0, 0, Header, 1, 13, 240
1, 0, Start_track
1, 0, Title_t, "(Ohne Titel)"
1, 0, Time_signature, 4, 2, 24, 8
1, 0, Key_signature, 0, "major"
1, 0, Tempo, 697674
1, 0, End_track
2, 0, Start_track
2, 0, Title_t, "Cembalo I"
2, 0, Program_c, 0, 6
2, 0, Control_c, 0, 7, 80
2, 0, Control_c, 0, 10, 32
2, 0, Note_on_c, 0, 72, 100
2, 108, Note_on_c, 0, 72, 0
2, 120, Note_on_c, 0, 67, 100
2, 228, Note_on_c, 0, 67, 0
2, 240, Note_on_c, 0, 72, 100
2, 348, Note_on_c, 0, 72, 0
2, 360, Note_on_c, 0, 67, 100
2, 468, Note_on_c, 0, 67, 0
2, 480, Note_on_c, 0, 72, 100
2, 588, Note_on_c, 0, 72, 0
2, 600, Note_on_c, 0, 71, 100
2, 654, Note_on_c, 0, 71, 0
2, 660, Note_on_c, 0, 69, 100
2, 714, Note_on_c, 0, 69, 0
2, 720, Note_on_c, 0, 67, 100
2, 828, Note_on_c, 0, 67, 0
2, 840, Note_on_c, 0, 69, 100
2, 894, Note_on_c, 0, 69, 0
2, 900, Note_on_c, 0, 71, 100
2, 954, Note_on_c, 0, 71, 0
2, 960, Note_on_c, 0, 72, 100
2, 1068, Note_on_c, 0, 72, 0
2, 1080, Note_on_c, 0, 71, 100
2, 1134, Note_on_c, 0, 71, 0
2, 1140, Note_on_c, 0, 69, 100
2, 1194, Note_on_c, 0, 69, 0
2, 1200, Note_on_c, 0, 67, 100
2, 1308, Note_on_c, 0, 67, 0
2, 1320, Note_on_c, 0, 65, 100
2, 1428, Note_on_c, 0, 65, 0
2, 1440, Note_on_c, 0, 64, 100
2, 1494, Note_on_c, 0, 64, 0
2, 1500, Note_on_c, 0, 65, 100
2, 1554, Note_on_c, 0, 65, 0
2, 1560, Note_on_c, 0, 67, 100
2, 1614, Note_on_c, 0, 67, 0
2, 1620, Note_on_c, 0, 64, 100
2, 1674, Note_on_c, 0, 64, 0
2, 1680, Note_on_c, 0, 60, 100
2, 1734, Note_on_c, 0, 60, 0
2, 1740, Note_on_c, 0, 62, 100
2, 1794, Note_on_c, 0, 62, 0
2, 1800, Note_on_c, 0, 64, 100
2, 1854, Note_on_c, 0, 64, 0
2, 1860, Note_on_c, 0, 66, 100
2, 1914, Note_on_c, 0, 66, 0
2, 1920, Note_on_c, 0, 67, 100
2, 2028, Note_on_c, 0, 67, 0
2, 2040, Note_on_c, 0, 62, 100
2, 2148, Note_on_c, 0, 62, 0
2, 2160, Note_on_c, 0, 67, 100
2, 2268, Note_on_c, 0, 67, 0
2, 2280, Note_on_c, 0, 62, 100
2, 2388, Note_on_c, 0, 62, 0
2, 2400, Note_on_c, 0, 67, 100
2, 2508, Note_on_c, 0, 67, 0
2, 2520, Note_on_c, 0, 66, 100
2, 2574, Note_on_c, 0, 66, 0
2, 2580, Note_on_c, 0, 64, 100
2, 2634, Note_on_c, 0, 64, 0
2, 2640, Note_on_c, 0, 62, 100
2, 2748, Note_on_c, 0, 62, 0
2, 2760, Note_on_c, 0, 64, 100
2, 2814, Note_on_c, 0, 64, 0
2, 2820, Note_on_c, 0, 66, 100
2, 2874, Note_on_c, 0, 66, 0
2, 2880, Note_on_c, 0, 67, 100
2, 2988, Note_on_c, 0, 67, 0
2, 3000, Note_on_c, 0, 66, 100
2, 3054, Note_on_c, 0, 66, 0
2, 3060, Note_on_c, 0, 64, 100
2, 3114, Note_on_c, 0, 64, 0
2, 3120, Note_on_c, 0, 62, 100
2, 3228, Note_on_c, 0, 62, 0
2, 3240, Note_on_c, 0, 60, 100
2, 3348, Note_on_c, 0, 60, 0
2, 3360, Note_on_c, 0, 59, 100
2, 3414, Note_on_c, 0, 59, 0
2, 3420, Note_on_c, 0, 60, 100
2, 3474, Note_on_c, 0, 60, 0
2, 3480, Note_on_c, 0, 62, 100
2, 3534, Note_on_c, 0, 62, 0
2, 3540, Note_on_c, 0, 59, 100
2, 3594, Note_on_c, 0, 59, 0
2, 3600, Note_on_c, 0, 55, 100
2, 3654, Note_on_c, 0, 55, 0
2, 3660, Note_on_c, 0, 59, 100
2, 3714, Note_on_c, 0, 59, 0
2, 3720, Note_on_c, 0, 62, 100
2, 3774, Note_on_c, 0, 62, 0
2, 3780, Note_on_c, 0, 65, 100
2, 3834, Note_on_c, 0, 65, 0
2, 3840, Note_on_c, 0, 60, 100
2, 3894, Note_on_c, 0, 60, 0
2, 3900, Note_on_c, 0, 62, 100
2, 3954, Note_on_c, 0, 62, 0
2, 3960, Note_on_c, 0, 64, 100
2, 4014, Note_on_c, 0, 64, 0
2, 4020, Note_on_c, 0, 60, 100
2, 4074, Note_on_c, 0, 60, 0
2, 4080, Note_on_c, 0, 55, 100
2, 4134, Note_on_c, 0, 55, 0
2, 4140, Note_on_c, 0, 60, 100
2, 4194, Note_on_c, 0, 60, 0
2, 4200, Note_on_c, 0, 64, 100
2, 4254, Note_on_c, 0, 64, 0
2, 4260, Note_on_c, 0, 67, 100
2, 4314, Note_on_c, 0, 67, 0
2, 4320, Note_on_c, 0, 62, 100
2, 4374, Note_on_c, 0, 62, 0
2, 4380, Note_on_c, 0, 64, 100
2, 4434, Note_on_c, 0, 64, 0
2, 4440, Note_on_c, 0, 65, 100
2, 4494, Note_on_c, 0, 65, 0
2, 4500, Note_on_c, 0, 62, 100
2, 4554, Note_on_c, 0, 62, 0
2, 4560, Note_on_c, 0, 59, 100
2, 4614, Note_on_c, 0, 59, 0
2, 4620, Note_on_c, 0, 62, 100
2, 4674, Note_on_c, 0, 62, 0
2, 4680, Note_on_c, 0, 65, 100
2, 4734, Note_on_c, 0, 65, 0
2, 4740, Note_on_c, 0, 69, 100
2, 4794, Note_on_c, 0, 69, 0
2, 4800, Note_on_c, 0, 67, 100
2, 4854, Note_on_c, 0, 67, 0
2, 4860, Note_on_c, 0, 65, 100
2, 4914, Note_on_c, 0, 65, 0
2, 4920, Note_on_c, 0, 64, 100
2, 4974, Note_on_c, 0, 64, 0
2, 4980, Note_on_c, 0, 65, 100
2, 5034, Note_on_c, 0, 65, 0
2, 5040, Note_on_c, 0, 67, 100
2, 5094, Note_on_c, 0, 67, 0
2, 5100, Note_on_c, 0, 64, 100
2, 5154, Note_on_c, 0, 64, 0
2, 5160, Note_on_c, 0, 60, 100
2, 5214, Note_on_c, 0, 60, 0
2, 5220, Note_on_c, 0, 57, 100
2, 5274, Note_on_c, 0, 57, 0
2, 5280, Note_on_c, 0, 65, 100
2, 5334, Note_on_c, 0, 65, 0
2, 5340, Note_on_c, 0, 64, 100
2, 5394, Note_on_c, 0, 64, 0
2, 5400, Note_on_c, 0, 62, 100
2, 5454, Note_on_c, 0, 62, 0
2, 5460, Note_on_c, 0, 64, 100
2, 5514, Note_on_c, 0, 64, 0
2, 5520, Note_on_c, 0, 65, 100
2, 5574, Note_on_c, 0, 65, 0
2, 5580, Note_on_c, 0, 62, 100
2, 5634, Note_on_c, 0, 62, 0
2, 5640, Note_on_c, 0, 59, 100
2, 5694, Note_on_c, 0, 59, 0
2, 5700, Note_on_c, 0, 55, 100
2, 5754, Note_on_c, 0, 55, 0
2, 5760, Note_on_c, 0, 64, 100
2, 5814, Note_on_c, 0, 64, 0
2, 5820, Note_on_c, 0, 65, 100
2, 5874, Note_on_c, 0, 65, 0
2, 5880, Note_on_c, 0, 67, 100
2, 5934, Note_on_c, 0, 67, 0
2, 5940, Note_on_c, 0, 64, 100
2, 5994, Note_on_c, 0, 64, 0
2, 6000, Note_on_c, 0, 60, 100
2, 6054, Note_on_c, 0, 60, 0
2, 6060, Note_on_c, 0, 62, 100
2, 6114, Note_on_c, 0, 62, 0
2, 6120, Note_on_c, 0, 64, 100
2, 6174, Note_on_c, 0, 64, 0
2, 6180, Note_on_c, 0, 60, 100
2, 6234, Note_on_c, 0, 60, 0
2, 6240, Note_on_c, 0, 57, 100
2, 6294, Note_on_c, 0, 57, 0
2, 6300, Note_on_c, 0, 59, 100
2, 6354, Note_on_c, 0, 59, 0
2, 6360, Note_on_c, 0, 60, 100
2, 6414, Note_on_c, 0, 60, 0
2, 6420, Note_on_c, 0, 57, 100
2, 6474, Note_on_c, 0, 57, 0
2, 6480, Note_on_c, 0, 53, 100
2, 6534, Note_on_c, 0, 53, 0
2, 6540, Note_on_c, 0, 55, 100
2, 6594, Note_on_c, 0, 55, 0
2, 6600, Note_on_c, 0, 57, 100
2, 6654, Note_on_c, 0, 57, 0
2, 6660, Note_on_c, 0, 53, 100
2, 6714, Note_on_c, 0, 53, 0
2, 6720, Note_on_c, 0, 50, 100
2, 6882, Note_on_c, 0, 50, 0
2, 6900, Note_on_c, 0, 52, 100
2, 6954, Note_on_c, 0, 52, 0
2, 6960, Note_on_c, 0, 53, 100
2, 7014, Note_on_c, 0, 53, 0
2, 7020, Note_on_c, 0, 55, 100
2, 7074, Note_on_c, 0, 55, 0
2, 7080, Note_on_c, 0, 57, 100
2, 7134, Note_on_c, 0, 57, 0
2, 7140, Note_on_c, 0, 59, 100
2, 7194, Note_on_c, 0, 59, 0
2, 7200, Note_on_c, 0, 60, 100
2, 7254, Note_on_c, 0, 60, 0
2, 7260, Note_on_c, 0, 62, 100
2, 7314, Note_on_c, 0, 62, 0
2, 7320, Note_on_c, 0, 64, 100
2, 7374, Note_on_c, 0, 64, 0
2, 7380, Note_on_c, 0, 65, 100
2, 7434, Note_on_c, 0, 65, 0
2, 7440, Note_on_c, 0, 67, 100
2, 7548, Note_on_c, 0, 67, 0
2, 7560, Note_on_c, 0, 55, 100
2, 7668, Note_on_c, 0, 55, 0
2, 7680, Note_on_c, 0, 79, 100
2, 7680, Note_on_c, 0, 76, 100
2, 7842, Note_on_c, 0, 79, 0
2, 7860, Note_on_c, 0, 81, 100
2, 7896, Note_on_c, 0, 76, 0
2, 7914, Note_on_c, 0, 81, 0
2, 7920, Note_on_c, 0, 79, 100
2, 7920, Note_on_c, 0, 76, 100
2, 8082, Note_on_c, 0, 79, 0
2, 8100, Note_on_c, 0, 81, 100
2, 8136, Note_on_c, 0, 76, 0
2, 8154, Note_on_c, 0, 81, 0
2, 8160, Note_on_c, 0, 79, 100
2, 8214, Note_on_c, 0, 79, 0
2, 8220, Note_on_c, 0, 81, 100
2, 8274, Note_on_c, 0, 81, 0
2, 8280, Note_on_c, 0, 79, 100
2, 8334, Note_on_c, 0, 79, 0
2, 8340, Note_on_c, 0, 84, 100
2, 8394, Note_on_c, 0, 84, 0
2, 8400, Note_on_c, 0, 79, 100
2, 8454, Note_on_c, 0, 79, 0
2, 8460, Note_on_c, 0, 77, 100
2, 8514, Note_on_c, 0, 77, 0
2, 8520, Note_on_c, 0, 76, 100
2, 8574, Note_on_c, 0, 76, 0
2, 8580, Note_on_c, 0, 74, 100
2, 8634, Note_on_c, 0, 74, 0
2, 8640, Note_on_c, 0, 72, 100
2, 8694, Note_on_c, 0, 72, 0
2, 8700, Note_on_c, 0, 76, 100
2, 8754, Note_on_c, 0, 76, 0
2, 8760, Note_on_c, 0, 74, 100
2, 8814, Note_on_c, 0, 74, 0
2, 8820, Note_on_c, 0, 72, 100
2, 8874, Note_on_c, 0, 72, 0
2, 8880, Note_on_c, 0, 71, 100
2, 8934, Note_on_c, 0, 71, 0
2, 8940, Note_on_c, 0, 72, 100
2, 8994, Note_on_c, 0, 72, 0
2, 9000, Note_on_c, 0, 74, 100
2, 9054, Note_on_c, 0, 74, 0
2, 9060, Note_on_c, 0, 71, 100
2, 9114, Note_on_c, 0, 71, 0
2, 9120, Note_on_c, 0, 67, 100
2, 9174, Note_on_c, 0, 67, 0
2, 9180, Note_on_c, 0, 72, 100
2, 9234, Note_on_c, 0, 72, 0
2, 9240, Note_on_c, 0, 71, 100
2, 9294, Note_on_c, 0, 71, 0
2, 9300, Note_on_c, 0, 69, 100
2, 9354, Note_on_c, 0, 69, 0
2, 9360, Note_on_c, 0, 67, 100
2, 9414, Note_on_c, 0, 67, 0
2, 9420, Note_on_c, 0, 65, 100
2, 9474, Note_on_c, 0, 65, 0
2, 9480, Note_on_c, 0, 64, 100
2, 9534, Note_on_c, 0, 64, 0
2, 9540, Note_on_c, 0, 62, 100
2, 9594, Note_on_c, 0, 62, 0
2, 9600, Note_on_c, 0, 72, 100
2, 9708, Note_on_c, 0, 72, 0
2, 9720, Note_on_c, 0, 67, 100
2, 9828, Note_on_c, 0, 67, 0
2, 9840, Note_on_c, 0, 72, 100
2, 9948, Note_on_c, 0, 72, 0
2, 9960, Note_on_c, 0, 67, 100
2, 10068, Note_on_c, 0, 67, 0
2, 10080, Note_on_c, 0, 72, 100
2, 10188, Note_on_c, 0, 72, 0
2, 10200, Note_on_c, 0, 71, 100
2, 10254, Note_on_c, 0, 71, 0
2, 10260, Note_on_c, 0, 69, 100
2, 10314, Note_on_c, 0, 69, 0
2, 10320, Note_on_c, 0, 67, 100
2, 10428, Note_on_c, 0, 67, 0
2, 10440, Note_on_c, 0, 69, 100
2, 10494, Note_on_c, 0, 69, 0
2, 10500, Note_on_c, 0, 71, 100
2, 10554, Note_on_c, 0, 71, 0
2, 10560, Note_on_c, 0, 72, 100
2, 10668, Note_on_c, 0, 72, 0
2, 10680, Note_on_c, 0, 71, 100
2, 10734, Note_on_c, 0, 71, 0
2, 10740, Note_on_c, 0, 69, 100
2, 10794, Note_on_c, 0, 69, 0
2, 10800, Note_on_c, 0, 67, 100
2, 10908, Note_on_c, 0, 67, 0
2, 10920, Note_on_c, 0, 65, 100
2, 11028, Note_on_c, 0, 65, 0
2, 11040, Note_on_c, 0, 64, 100
2, 11094, Note_on_c, 0, 64, 0
2, 11100, Note_on_c, 0, 65, 100
2, 11154, Note_on_c, 0, 65, 0
2, 11160, Note_on_c, 0, 67, 100
2, 11214, Note_on_c, 0, 67, 0
2, 11220, Note_on_c, 0, 64, 100
2, 11274, Note_on_c, 0, 64, 0
2, 11280, Note_on_c, 0, 60, 100
2, 11334, Note_on_c, 0, 60, 0
2, 11340, Note_on_c, 0, 62, 100
2, 11394, Note_on_c, 0, 62, 0
2, 11400, Note_on_c, 0, 64, 100
2, 11454, Note_on_c, 0, 64, 0
2, 11460, Note_on_c, 0, 66, 100
2, 11514, Note_on_c, 0, 66, 0
2, 11520, Note_on_c, 0, 67, 100
2, 11574, Note_on_c, 0, 67, 0
2, 11580, Note_on_c, 0, 79, 100
2, 11634, Note_on_c, 0, 79, 0
2, 11640, Note_on_c, 0, 78, 100
2, 11694, Note_on_c, 0, 78, 0
2, 11700, Note_on_c, 0, 79, 100
2, 11754, Note_on_c, 0, 79, 0
2, 11760, Note_on_c, 0, 83, 100
2, 11814, Note_on_c, 0, 83, 0
2, 11820, Note_on_c, 0, 79, 100
2, 11874, Note_on_c, 0, 79, 0
2, 11880, Note_on_c, 0, 78, 100
2, 11934, Note_on_c, 0, 78, 0
2, 11940, Note_on_c, 0, 79, 100
2, 11994, Note_on_c, 0, 79, 0
2, 12000, Note_on_c, 0, 74, 100
2, 12000, Note_on_c, 0, 67, 100
2, 12054, Note_on_c, 0, 74, 0
2, 12060, Note_on_c, 0, 83, 100
2, 12108, Note_on_c, 0, 67, 0
2, 12114, Note_on_c, 0, 83, 0
2, 12120, Note_on_c, 0, 81, 100
2, 12120, Note_on_c, 0, 71, 100
2, 12174, Note_on_c, 0, 71, 0
2, 12174, Note_on_c, 0, 81, 0
2, 12180, Note_on_c, 0, 79, 100
2, 12180, Note_on_c, 0, 72, 100
2, 12234, Note_on_c, 0, 72, 0
2, 12234, Note_on_c, 0, 79, 0
2, 12240, Note_on_c, 0, 78, 100
2, 12240, Note_on_c, 0, 74, 100
2, 12294, Note_on_c, 0, 74, 0
2, 12294, Note_on_c, 0, 78, 0
2, 12300, Note_on_c, 0, 76, 100
2, 12300, Note_on_c, 0, 66, 100
2, 12354, Note_on_c, 0, 66, 0
2, 12354, Note_on_c, 0, 76, 0
2, 12360, Note_on_c, 0, 74, 100
2, 12360, Note_on_c, 0, 67, 100
2, 12414, Note_on_c, 0, 67, 0
2, 12414, Note_on_c, 0, 74, 0
2, 12420, Note_on_c, 0, 72, 100
2, 12420, Note_on_c, 0, 69, 100
2, 12474, Note_on_c, 0, 69, 0
2, 12474, Note_on_c, 0, 72, 0
2, 12480, Note_on_c, 0, 71, 100
2, 12534, Note_on_c, 0, 71, 0
2, 12540, Note_on_c, 0, 72, 100
2, 12594, Note_on_c, 0, 72, 0
2, 12600, Note_on_c, 0, 74, 100
2, 12654, Note_on_c, 0, 74, 0
2, 12660, Note_on_c, 0, 76, 100
2, 12714, Note_on_c, 0, 76, 0
2, 12720, Note_on_c, 0, 69, 100
2, 12828, Note_on_c, 0, 69, 0
2, 12840, Note_on_c, 0, 78, 100
2, 12948, Note_on_c, 0, 78, 0
2, 12960, Note_on_c, 0, 79, 100
2, 13068, Note_on_c, 0, 79, 0
2, 13080, Note_on_c, 0, 67, 100
2, 13188, Note_on_c, 0, 67, 0
2, 13260, Note_on_c, 0, 71, 100
2, 13314, Note_on_c, 0, 71, 0
2, 13320, Note_on_c, 0, 72, 100
2, 13374, Note_on_c, 0, 72, 0
2, 13380, Note_on_c, 0, 74, 100
2, 13434, Note_on_c, 0, 74, 0
2, 13440, Note_on_c, 0, 76, 100
2, 13494, Note_on_c, 0, 76, 0
2, 13500, Note_on_c, 0, 78, 100
2, 13554, Note_on_c, 0, 78, 0
2, 13560, Note_on_c, 0, 79, 100
2, 13614, Note_on_c, 0, 79, 0
2, 13620, Note_on_c, 0, 76, 100
2, 13674, Note_on_c, 0, 76, 0
2, 13680, Note_on_c, 0, 72, 100
2, 13734, Note_on_c, 0, 72, 0
2, 13740, Note_on_c, 0, 74, 100
2, 13794, Note_on_c, 0, 74, 0
2, 13800, Note_on_c, 0, 76, 100
2, 13854, Note_on_c, 0, 76, 0
2, 13860, Note_on_c, 0, 72, 100
2, 13914, Note_on_c, 0, 72, 0
2, 13920, Note_on_c, 0, 69, 100
2, 13974, Note_on_c, 0, 69, 0
2, 13980, Note_on_c, 0, 71, 100
2, 14034, Note_on_c, 0, 71, 0
2, 14040, Note_on_c, 0, 72, 100
2, 14094, Note_on_c, 0, 72, 0
2, 14100, Note_on_c, 0, 69, 100
2, 14154, Note_on_c, 0, 69, 0
2, 14160, Note_on_c, 0, 66, 100
2, 14214, Note_on_c, 0, 66, 0
2, 14220, Note_on_c, 0, 67, 100
2, 14274, Note_on_c, 0, 67, 0
2, 14280, Note_on_c, 0, 69, 100
2, 14334, Note_on_c, 0, 69, 0
2, 14340, Note_on_c, 0, 66, 100
2, 14394, Note_on_c, 0, 66, 0
2, 14400, Note_on_c, 0, 62, 100
2, 14508, Note_on_c, 0, 62, 0
2, 14520, Note_on_c, 0, 69, 100
2, 14628, Note_on_c, 0, 69, 0
2, 14640, Note_on_c, 0, 69, 100
2, 14748, Note_on_c, 0, 69, 0
2, 14760, Note_on_c, 0, 62, 100
2, 14868, Note_on_c, 0, 62, 0
2, 15000, Note_on_c, 0, 74, 100
2, 15108, Note_on_c, 0, 74, 0
2, 15120, Note_on_c, 0, 74, 100
2, 15228, Note_on_c, 0, 74, 0
2, 15240, Note_on_c, 0, 67, 100
2, 15348, Note_on_c, 0, 67, 0
2, 15360, Note_on_c, 0, 67, 100
2, 15468, Note_on_c, 0, 67, 0
2, 15480, Note_on_c, 0, 60, 100
2, 15588, Note_on_c, 0, 60, 0
2, 15720, Note_on_c, 0, 72, 100
2, 15828, Note_on_c, 0, 72, 0
2, 15840, Note_on_c, 0, 72, 100
2, 15948, Note_on_c, 0, 72, 0
2, 15960, Note_on_c, 0, 66, 100
2, 16068, Note_on_c, 0, 66, 0
2, 16140, Note_on_c, 0, 66, 100
2, 16194, Note_on_c, 0, 66, 0
2, 16200, Note_on_c, 0, 69, 100
2, 16254, Note_on_c, 0, 69, 0
2, 16260, Note_on_c, 0, 72, 100
2, 16314, Note_on_c, 0, 72, 0
2, 16320, Note_on_c, 0, 67, 100
2, 16374, Note_on_c, 0, 67, 0
2, 16380, Note_on_c, 0, 69, 100
2, 16434, Note_on_c, 0, 69, 0
2, 16440, Note_on_c, 0, 71, 100
2, 16494, Note_on_c, 0, 71, 0
2, 16500, Note_on_c, 0, 67, 100
2, 16554, Note_on_c, 0, 67, 0
2, 16560, Note_on_c, 0, 62, 100
2, 16614, Note_on_c, 0, 62, 0
2, 16620, Note_on_c, 0, 67, 100
2, 16674, Note_on_c, 0, 67, 0
2, 16680, Note_on_c, 0, 71, 100
2, 16734, Note_on_c, 0, 71, 0
2, 16740, Note_on_c, 0, 74, 100
2, 16794, Note_on_c, 0, 74, 0
2, 16800, Note_on_c, 0, 69, 100
2, 16854, Note_on_c, 0, 69, 0
2, 16860, Note_on_c, 0, 71, 100
2, 16914, Note_on_c, 0, 71, 0
2, 16920, Note_on_c, 0, 72, 100
2, 16974, Note_on_c, 0, 72, 0
2, 16980, Note_on_c, 0, 69, 100
2, 17034, Note_on_c, 0, 69, 0
2, 17040, Note_on_c, 0, 66, 100
2, 17148, Note_on_c, 0, 66, 0
2, 17160, Note_on_c, 0, 66, 100
2, 17160, Note_on_c, 0, 69, 100
2, 17160, Note_on_c, 0, 74, 100
2, 17268, Note_on_c, 0, 74, 0
2, 17268, Note_on_c, 0, 69, 0
2, 17268, Note_on_c, 0, 66, 0
2, 17280, Note_on_c, 0, 67, 100
2, 17280, Note_on_c, 0, 71, 100
2, 17280, Note_on_c, 0, 74, 100
2, 17388, Note_on_c, 0, 74, 0
2, 17388, Note_on_c, 0, 71, 0
2, 17388, Note_on_c, 0, 67, 0
2, 17400, Note_on_c, 0, 67, 100
2, 17508, Note_on_c, 0, 67, 0
2, 17640, Note_on_c, 0, 62, 100
2, 17640, Note_on_c, 0, 67, 100
2, 17640, Note_on_c, 0, 71, 100
2, 17748, Note_on_c, 0, 71, 0
2, 17748, Note_on_c, 0, 67, 0
2, 17748, Note_on_c, 0, 62, 0
2, 17760, Note_on_c, 0, 64, 100
2, 17760, Note_on_c, 0, 67, 100
2, 17760, Note_on_c, 0, 72, 100
2, 17868, Note_on_c, 0, 72, 0
2, 17868, Note_on_c, 0, 67, 0
2, 17868, Note_on_c, 0, 64, 0
2, 17880, Note_on_c, 0, 71, 100
2, 17880, Note_on_c, 0, 74, 100
2, 17880, Note_on_c, 0, 79, 100
2, 17988, Note_on_c, 0, 79, 0
2, 17988, Note_on_c, 0, 74, 0
2, 17988, Note_on_c, 0, 71, 0
2, 18000, Note_on_c, 0, 67, 100
2, 18000, Note_on_c, 0, 72, 100
2, 18000, Note_on_c, 0, 79, 100
2, 18108, Note_on_c, 0, 79, 0
2, 18108, Note_on_c, 0, 72, 0
2, 18108, Note_on_c, 0, 67, 0
2, 18120, Note_on_c, 0, 72, 100
2, 18228, Note_on_c, 0, 72, 0
2, 18360, Note_on_c, 0, 84, 100
2, 18360, Note_on_c, 0, 78, 100
2, 18360, Note_on_c, 0, 81, 100
2, 18468, Note_on_c, 0, 81, 0
2, 18468, Note_on_c, 0, 78, 0
2, 18468, Note_on_c, 0, 84, 0
2, 18480, Note_on_c, 0, 84, 100
2, 18480, Note_on_c, 0, 78, 100
2, 18480, Note_on_c, 0, 81, 100
2, 18588, Note_on_c, 0, 81, 0
2, 18588, Note_on_c, 0, 78, 0
2, 18588, Note_on_c, 0, 84, 0
2, 18600, Note_on_c, 0, 83, 100
2, 18600, Note_on_c, 0, 74, 100
2, 18654, Note_on_c, 0, 83, 0
2, 18660, Note_on_c, 0, 81, 100
2, 18708, Note_on_c, 0, 74, 0
2, 18714, Note_on_c, 0, 81, 0
2, 18720, Note_on_c, 0, 83, 100
2, 18720, Note_on_c, 0, 74, 100
2, 18720, Note_on_c, 0, 79, 100
2, 18828, Note_on_c, 0, 79, 0
2, 18828, Note_on_c, 0, 74, 0
2, 18840, Note_on_c, 0, 76, 100
2, 18882, Note_on_c, 0, 83, 0
2, 18900, Note_on_c, 0, 84, 100
2, 18948, Note_on_c, 0, 76, 0
2, 18954, Note_on_c, 0, 84, 0
2, 18960, Note_on_c, 0, 81, 100
2, 18960, Note_on_c, 0, 74, 100
2, 19068, Note_on_c, 0, 74, 0
2, 19080, Note_on_c, 0, 72, 100
2, 19122, Note_on_c, 0, 81, 0
2, 19140, Note_on_c, 0, 79, 100
2, 19188, Note_on_c, 0, 72, 0
2, 19194, Note_on_c, 0, 79, 0
2, 19200, Note_on_c, 0, 71, 100
2, 19200, Note_on_c, 0, 79, 100
2, 19308, Note_on_c, 0, 79, 0
2, 19308, Note_on_c, 0, 71, 0
2, 19320, Note_on_c, 0, 78, 100
2, 19374, Note_on_c, 0, 78, 0
2, 19380, Note_on_c, 0, 76, 100
2, 19434, Note_on_c, 0, 76, 0
2, 19440, Note_on_c, 0, 74, 100
2, 19494, Note_on_c, 0, 74, 0
2, 19500, Note_on_c, 0, 72, 100
2, 19554, Note_on_c, 0, 72, 0
2, 19560, Note_on_c, 0, 71, 100
2, 19614, Note_on_c, 0, 71, 0
2, 19620, Note_on_c, 0, 69, 100
2, 19674, Note_on_c, 0, 69, 0
2, 19680, Note_on_c, 0, 67, 100
2, 19734, Note_on_c, 0, 67, 0
2, 19740, Note_on_c, 0, 69, 100
2, 19794, Note_on_c, 0, 69, 0
2, 19800, Note_on_c, 0, 71, 100
2, 19854, Note_on_c, 0, 71, 0
2, 19860, Note_on_c, 0, 72, 100
2, 19914, Note_on_c, 0, 72, 0
2, 19920, Note_on_c, 0, 74, 100
2, 19974, Note_on_c, 0, 74, 0
2, 19980, Note_on_c, 0, 72, 100
2, 20034, Note_on_c, 0, 72, 0
2, 20040, Note_on_c, 0, 74, 100
2, 20094, Note_on_c, 0, 74, 0
2, 20100, Note_on_c, 0, 71, 100
2, 20154, Note_on_c, 0, 71, 0
2, 20160, Note_on_c, 0, 72, 100
2, 20214, Note_on_c, 0, 72, 0
2, 20220, Note_on_c, 0, 71, 100
2, 20274, Note_on_c, 0, 71, 0
2, 20280, Note_on_c, 0, 72, 100
2, 20334, Note_on_c, 0, 72, 0
2, 20340, Note_on_c, 0, 74, 100
2, 20394, Note_on_c, 0, 74, 0
2, 20400, Note_on_c, 0, 72, 100
2, 20454, Note_on_c, 0, 72, 0
2, 20460, Note_on_c, 0, 74, 100
2, 20514, Note_on_c, 0, 74, 0
2, 20520, Note_on_c, 0, 71, 100
2, 20574, Note_on_c, 0, 71, 0
2, 20580, Note_on_c, 0, 74, 100
2, 20634, Note_on_c, 0, 74, 0
2, 20640, Note_on_c, 0, 72, 100
2, 20694, Note_on_c, 0, 72, 0
2, 20700, Note_on_c, 0, 76, 100
2, 20754, Note_on_c, 0, 76, 0
2, 20760, Note_on_c, 0, 74, 100
2, 20814, Note_on_c, 0, 74, 0
2, 20820, Note_on_c, 0, 71, 100
2, 20874, Note_on_c, 0, 71, 0
2, 20880, Note_on_c, 0, 72, 100
2, 20934, Note_on_c, 0, 72, 0
2, 20940, Note_on_c, 0, 69, 100
2, 20994, Note_on_c, 0, 69, 0
2, 21000, Note_on_c, 0, 71, 100
2, 21054, Note_on_c, 0, 71, 0
2, 21060, Note_on_c, 0, 68, 100
2, 21114, Note_on_c, 0, 68, 0
2, 21120, Note_on_c, 0, 69, 100
2, 21174, Note_on_c, 0, 69, 0
2, 21180, Note_on_c, 0, 68, 100
2, 21234, Note_on_c, 0, 68, 0
2, 21240, Note_on_c, 0, 69, 100
2, 21294, Note_on_c, 0, 69, 0
2, 21300, Note_on_c, 0, 71, 100
2, 21354, Note_on_c, 0, 71, 0
2, 21360, Note_on_c, 0, 69, 100
2, 21414, Note_on_c, 0, 69, 0
2, 21420, Note_on_c, 0, 71, 100
2, 21474, Note_on_c, 0, 71, 0
2, 21480, Note_on_c, 0, 68, 100
2, 21534, Note_on_c, 0, 68, 0
2, 21540, Note_on_c, 0, 71, 100
2, 21594, Note_on_c, 0, 71, 0
2, 21600, Note_on_c, 0, 69, 100
2, 21654, Note_on_c, 0, 69, 0
2, 21660, Note_on_c, 0, 71, 100
2, 21714, Note_on_c, 0, 71, 0
2, 21720, Note_on_c, 0, 72, 100
2, 21774, Note_on_c, 0, 72, 0
2, 21780, Note_on_c, 0, 74, 100
2, 21834, Note_on_c, 0, 74, 0
2, 21840, Note_on_c, 0, 76, 100
2, 21894, Note_on_c, 0, 76, 0
2, 21900, Note_on_c, 0, 77, 100
2, 21954, Note_on_c, 0, 77, 0
2, 21960, Note_on_c, 0, 79, 100
2, 22014, Note_on_c, 0, 79, 0
2, 22020, Note_on_c, 0, 76, 100
2, 22074, Note_on_c, 0, 76, 0
2, 22080, Note_on_c, 0, 77, 100
2, 22134, Note_on_c, 0, 77, 0
2, 22140, Note_on_c, 0, 76, 100
2, 22194, Note_on_c, 0, 76, 0
2, 22200, Note_on_c, 0, 77, 100
2, 22254, Note_on_c, 0, 77, 0
2, 22260, Note_on_c, 0, 79, 100
2, 22314, Note_on_c, 0, 79, 0
2, 22320, Note_on_c, 0, 77, 100
2, 22374, Note_on_c, 0, 77, 0
2, 22380, Note_on_c, 0, 79, 100
2, 22434, Note_on_c, 0, 79, 0
2, 22440, Note_on_c, 0, 76, 100
2, 22494, Note_on_c, 0, 76, 0
2, 22500, Note_on_c, 0, 79, 100
2, 22554, Note_on_c, 0, 79, 0
2, 22560, Note_on_c, 0, 77, 100
2, 22614, Note_on_c, 0, 77, 0
2, 22620, Note_on_c, 0, 69, 100
2, 22674, Note_on_c, 0, 69, 0
2, 22680, Note_on_c, 0, 71, 100
2, 22734, Note_on_c, 0, 71, 0
2, 22740, Note_on_c, 0, 72, 100
2, 22794, Note_on_c, 0, 72, 0
2, 22800, Note_on_c, 0, 74, 100
2, 22854, Note_on_c, 0, 74, 0
2, 22860, Note_on_c, 0, 76, 100
2, 22914, Note_on_c, 0, 76, 0
2, 22920, Note_on_c, 0, 77, 100
2, 22974, Note_on_c, 0, 77, 0
2, 22980, Note_on_c, 0, 74, 100
2, 23034, Note_on_c, 0, 74, 0
2, 23040, Note_on_c, 0, 76, 100
2, 23094, Note_on_c, 0, 76, 0
2, 23100, Note_on_c, 0, 67, 100
2, 23154, Note_on_c, 0, 67, 0
2, 23160, Note_on_c, 0, 69, 100
2, 23214, Note_on_c, 0, 69, 0
2, 23220, Note_on_c, 0, 71, 100
2, 23274, Note_on_c, 0, 71, 0
2, 23280, Note_on_c, 0, 72, 100
2, 23334, Note_on_c, 0, 72, 0
2, 23340, Note_on_c, 0, 74, 100
2, 23394, Note_on_c, 0, 74, 0
2, 23400, Note_on_c, 0, 76, 100
2, 23454, Note_on_c, 0, 76, 0
2, 23460, Note_on_c, 0, 72, 100
2, 23514, Note_on_c, 0, 72, 0
2, 23520, Note_on_c, 0, 74, 100
2, 23574, Note_on_c, 0, 74, 0
2, 23580, Note_on_c, 0, 66, 100
2, 23634, Note_on_c, 0, 66, 0
2, 23640, Note_on_c, 0, 68, 100
2, 23694, Note_on_c, 0, 68, 0
2, 23700, Note_on_c, 0, 69, 100
2, 23754, Note_on_c, 0, 69, 0
2, 23760, Note_on_c, 0, 71, 100
2, 23814, Note_on_c, 0, 71, 0
2, 23820, Note_on_c, 0, 72, 100
2, 23874, Note_on_c, 0, 72, 0
2, 23880, Note_on_c, 0, 74, 100
2, 23934, Note_on_c, 0, 74, 0
2, 23940, Note_on_c, 0, 71, 100
2, 23994, Note_on_c, 0, 71, 0
2, 24000, Note_on_c, 0, 72, 100
2, 24054, Note_on_c, 0, 72, 0
2, 24060, Note_on_c, 0, 76, 100
2, 24114, Note_on_c, 0, 76, 0
2, 24120, Note_on_c, 0, 77, 100
2, 24174, Note_on_c, 0, 77, 0
2, 24180, Note_on_c, 0, 79, 100
2, 24234, Note_on_c, 0, 79, 0
2, 24240, Note_on_c, 0, 81, 100
2, 24294, Note_on_c, 0, 81, 0
2, 24300, Note_on_c, 0, 72, 100
2, 24354, Note_on_c, 0, 72, 0
2, 24360, Note_on_c, 0, 81, 100
2, 24414, Note_on_c, 0, 81, 0
2, 24420, Note_on_c, 0, 72, 100
2, 24474, Note_on_c, 0, 72, 0
2, 24480, Note_on_c, 0, 70, 100
2, 24534, Note_on_c, 0, 70, 0
2, 24540, Note_on_c, 0, 81, 100
2, 24594, Note_on_c, 0, 81, 0
2, 24600, Note_on_c, 0, 79, 100
2, 24654, Note_on_c, 0, 79, 0
2, 24660, Note_on_c, 0, 77, 100
2, 24714, Note_on_c, 0, 77, 0
2, 24720, Note_on_c, 0, 79, 100
2, 24774, Note_on_c, 0, 79, 0
2, 24780, Note_on_c, 0, 70, 100
2, 24834, Note_on_c, 0, 70, 0
2, 24840, Note_on_c, 0, 79, 100
2, 24894, Note_on_c, 0, 79, 0
2, 24900, Note_on_c, 0, 70, 100
2, 24954, Note_on_c, 0, 70, 0
2, 24960, Note_on_c, 0, 69, 100
2, 25014, Note_on_c, 0, 69, 0
2, 25020, Note_on_c, 0, 72, 100
2, 25074, Note_on_c, 0, 72, 0
2, 25080, Note_on_c, 0, 74, 100
2, 25134, Note_on_c, 0, 74, 0
2, 25140, Note_on_c, 0, 76, 100
2, 25194, Note_on_c, 0, 76, 0
2, 25200, Note_on_c, 0, 77, 100
2, 25254, Note_on_c, 0, 77, 0
2, 25260, Note_on_c, 0, 69, 100
2, 25314, Note_on_c, 0, 69, 0
2, 25320, Note_on_c, 0, 77, 100
2, 25374, Note_on_c, 0, 77, 0
2, 25380, Note_on_c, 0, 69, 100
2, 25434, Note_on_c, 0, 69, 0
2, 25440, Note_on_c, 0, 67, 100
2, 25494, Note_on_c, 0, 67, 0
2, 25500, Note_on_c, 0, 77, 100
2, 25554, Note_on_c, 0, 77, 0
2, 25560, Note_on_c, 0, 76, 100
2, 25614, Note_on_c, 0, 76, 0
2, 25620, Note_on_c, 0, 74, 100
2, 25674, Note_on_c, 0, 74, 0
2, 25680, Note_on_c, 0, 76, 100
2, 25734, Note_on_c, 0, 76, 0
2, 25740, Note_on_c, 0, 67, 100
2, 25794, Note_on_c, 0, 67, 0
2, 25800, Note_on_c, 0, 76, 100
2, 25854, Note_on_c, 0, 76, 0
2, 25860, Note_on_c, 0, 67, 100
2, 25914, Note_on_c, 0, 67, 0
2, 25920, Note_on_c, 0, 65, 100
2, 25974, Note_on_c, 0, 65, 0
2, 25980, Note_on_c, 0, 76, 100
2, 26034, Note_on_c, 0, 76, 0
2, 26040, Note_on_c, 0, 74, 100
2, 26094, Note_on_c, 0, 74, 0
2, 26100, Note_on_c, 0, 72, 100
2, 26154, Note_on_c, 0, 72, 0
2, 26160, Note_on_c, 0, 74, 100
2, 26214, Note_on_c, 0, 74, 0
2, 26220, Note_on_c, 0, 65, 100
2, 26274, Note_on_c, 0, 65, 0
2, 26280, Note_on_c, 0, 74, 100
2, 26334, Note_on_c, 0, 74, 0
2, 26340, Note_on_c, 0, 65, 100
2, 26394, Note_on_c, 0, 65, 0
2, 26400, Note_on_c, 0, 64, 100
2, 26454, Note_on_c, 0, 64, 0
2, 26460, Note_on_c, 0, 67, 100
2, 26514, Note_on_c, 0, 67, 0
2, 26520, Note_on_c, 0, 69, 100
2, 26574, Note_on_c, 0, 69, 0
2, 26580, Note_on_c, 0, 71, 100
2, 26634, Note_on_c, 0, 71, 0
2, 26640, Note_on_c, 0, 72, 100
2, 26694, Note_on_c, 0, 72, 0
2, 26700, Note_on_c, 0, 76, 100
2, 26754, Note_on_c, 0, 76, 0
2, 26760, Note_on_c, 0, 77, 100
2, 26814, Note_on_c, 0, 77, 0
2, 26820, Note_on_c, 0, 79, 100
2, 26874, Note_on_c, 0, 79, 0
2, 26880, Note_on_c, 0, 81, 100
2, 26934, Note_on_c, 0, 81, 0
2, 26940, Note_on_c, 0, 83, 100
2, 26994, Note_on_c, 0, 83, 0
2, 27000, Note_on_c, 0, 84, 100
2, 27054, Note_on_c, 0, 84, 0
2, 27060, Note_on_c, 0, 81, 100
2, 27114, Note_on_c, 0, 81, 0
2, 27120, Note_on_c, 0, 77, 100
2, 27174, Note_on_c, 0, 77, 0
2, 27180, Note_on_c, 0, 79, 100
2, 27234, Note_on_c, 0, 79, 0
2, 27240, Note_on_c, 0, 81, 100
2, 27294, Note_on_c, 0, 81, 0
2, 27300, Note_on_c, 0, 77, 100
2, 27354, Note_on_c, 0, 77, 0
2, 27360, Note_on_c, 0, 74, 100
2, 27414, Note_on_c, 0, 74, 0
2, 27420, Note_on_c, 0, 76, 100
2, 27474, Note_on_c, 0, 76, 0
2, 27480, Note_on_c, 0, 77, 100
2, 27534, Note_on_c, 0, 77, 0
2, 27540, Note_on_c, 0, 74, 100
2, 27594, Note_on_c, 0, 74, 0
2, 27600, Note_on_c, 0, 71, 100
2, 27654, Note_on_c, 0, 71, 0
2, 27660, Note_on_c, 0, 72, 100
2, 27714, Note_on_c, 0, 72, 0
2, 27720, Note_on_c, 0, 74, 100
2, 27774, Note_on_c, 0, 74, 0
2, 27780, Note_on_c, 0, 71, 100
2, 27834, Note_on_c, 0, 71, 0
2, 27840, Note_on_c, 0, 72, 100
2, 27948, Note_on_c, 0, 72, 0
2, 27960, Note_on_c, 0, 67, 100
2, 28068, Note_on_c, 0, 67, 0
2, 28080, Note_on_c, 0, 72, 100
2, 28188, Note_on_c, 0, 72, 0
2, 28200, Note_on_c, 0, 67, 100
2, 28308, Note_on_c, 0, 67, 0
2, 28320, Note_on_c, 0, 72, 100
2, 28428, Note_on_c, 0, 72, 0
2, 28440, Note_on_c, 0, 71, 100
2, 28494, Note_on_c, 0, 71, 0
2, 28500, Note_on_c, 0, 69, 100
2, 28554, Note_on_c, 0, 69, 0
2, 28560, Note_on_c, 0, 67, 100
2, 28668, Note_on_c, 0, 67, 0
2, 28680, Note_on_c, 0, 69, 100
2, 28734, Note_on_c, 0, 69, 0
2, 28740, Note_on_c, 0, 71, 100
2, 28794, Note_on_c, 0, 71, 0
2, 28800, Note_on_c, 0, 72, 100
2, 28908, Note_on_c, 0, 72, 0
2, 28920, Note_on_c, 0, 71, 100
2, 28974, Note_on_c, 0, 71, 0
2, 28980, Note_on_c, 0, 69, 100
2, 29034, Note_on_c, 0, 69, 0
2, 29040, Note_on_c, 0, 67, 100
2, 29094, Note_on_c, 0, 67, 0
2, 29100, Note_on_c, 0, 65, 100
2, 29154, Note_on_c, 0, 65, 0
2, 29160, Note_on_c, 0, 64, 100
2, 29214, Note_on_c, 0, 64, 0
2, 29220, Note_on_c, 0, 62, 100
2, 29274, Note_on_c, 0, 62, 0
2, 29280, Note_on_c, 0, 60, 100
2, 29334, Note_on_c, 0, 60, 0
2, 29340, Note_on_c, 0, 79, 100
2, 29394, Note_on_c, 0, 79, 0
2, 29400, Note_on_c, 0, 76, 100
2, 29454, Note_on_c, 0, 76, 0
2, 29460, Note_on_c, 0, 72, 100
2, 29514, Note_on_c, 0, 72, 0
2, 29520, Note_on_c, 0, 67, 100
2, 29574, Note_on_c, 0, 67, 0
2, 29580, Note_on_c, 0, 64, 100
2, 29634, Note_on_c, 0, 64, 0
2, 29640, Note_on_c, 0, 60, 100
2, 29694, Note_on_c, 0, 60, 0
2, 29700, Note_on_c, 0, 70, 100
2, 29754, Note_on_c, 0, 70, 0
2, 29760, Note_on_c, 0, 69, 100
2, 29868, Note_on_c, 0, 69, 0
2, 30240, Note_on_c, 0, 69, 100
2, 30294, Note_on_c, 0, 69, 0
2, 30300, Note_on_c, 0, 81, 100
2, 30354, Note_on_c, 0, 81, 0
2, 30360, Note_on_c, 0, 78, 100
2, 30414, Note_on_c, 0, 78, 0
2, 30420, Note_on_c, 0, 74, 100
2, 30474, Note_on_c, 0, 74, 0
2, 30480, Note_on_c, 0, 69, 100
2, 30534, Note_on_c, 0, 69, 0
2, 30540, Note_on_c, 0, 66, 100
2, 30594, Note_on_c, 0, 66, 0
2, 30600, Note_on_c, 0, 62, 100
2, 30654, Note_on_c, 0, 62, 0
2, 30660, Note_on_c, 0, 72, 100
2, 30714, Note_on_c, 0, 72, 0
2, 30720, Note_on_c, 0, 71, 100
2, 30780, Note_on_c, 0, 67, 100
2, 30828, Note_on_c, 0, 71, 0
2, 30834, Note_on_c, 0, 67, 0
2, 30840, Note_on_c, 0, 62, 100
2, 30894, Note_on_c, 0, 62, 0
2, 30900, Note_on_c, 0, 59, 100
2, 30954, Note_on_c, 0, 59, 0
2, 30960, Note_on_c, 0, 55, 100
2, 31014, Note_on_c, 0, 55, 0
2, 31020, Note_on_c, 0, 59, 100
2, 31074, Note_on_c, 0, 59, 0
2, 31080, Note_on_c, 0, 62, 100
2, 31134, Note_on_c, 0, 62, 0
2, 31140, Note_on_c, 0, 67, 100
2, 31194, Note_on_c, 0, 67, 0
2, 31200, Note_on_c, 0, 71, 100
2, 31200, Note_on_c, 0, 56, 100
2, 31254, Note_on_c, 0, 71, 0
2, 31260, Note_on_c, 0, 83, 100
2, 31308, Note_on_c, 0, 56, 0
2, 31314, Note_on_c, 0, 83, 0
2, 31320, Note_on_c, 0, 80, 100
2, 31374, Note_on_c, 0, 80, 0
2, 31380, Note_on_c, 0, 76, 100
2, 31434, Note_on_c, 0, 76, 0
2, 31440, Note_on_c, 0, 71, 100
2, 31494, Note_on_c, 0, 71, 0
2, 31500, Note_on_c, 0, 68, 100
2, 31554, Note_on_c, 0, 68, 0
2, 31560, Note_on_c, 0, 64, 100
2, 31614, Note_on_c, 0, 64, 0
2, 31620, Note_on_c, 0, 74, 100
2, 31674, Note_on_c, 0, 74, 0
2, 31680, Note_on_c, 0, 72, 100
2, 31740, Note_on_c, 0, 69, 100
2, 31788, Note_on_c, 0, 72, 0
2, 31794, Note_on_c, 0, 69, 0
2, 31800, Note_on_c, 0, 64, 100
2, 31854, Note_on_c, 0, 64, 0
2, 31860, Note_on_c, 0, 60, 100
2, 31914, Note_on_c, 0, 60, 0
2, 31920, Note_on_c, 0, 57, 100
2, 31974, Note_on_c, 0, 57, 0
2, 31980, Note_on_c, 0, 60, 100
2, 32034, Note_on_c, 0, 60, 0
2, 32040, Note_on_c, 0, 64, 100
2, 32094, Note_on_c, 0, 64, 0
2, 32100, Note_on_c, 0, 69, 100
2, 32154, Note_on_c, 0, 69, 0
2, 32160, Note_on_c, 0, 77, 100
2, 32187, Note_on_c, 0, 77, 0
2, 32190, Note_on_c, 0, 72, 100
2, 32217, Note_on_c, 0, 72, 0
2, 32220, Note_on_c, 0, 71, 100
2, 32247, Note_on_c, 0, 71, 0
2, 32250, Note_on_c, 0, 72, 100
2, 32277, Note_on_c, 0, 72, 0
2, 32280, Note_on_c, 0, 57, 100
2, 32307, Note_on_c, 0, 57, 0
2, 32310, Note_on_c, 0, 69, 100
2, 32337, Note_on_c, 0, 69, 0
2, 32340, Note_on_c, 0, 67, 100
2, 32367, Note_on_c, 0, 67, 0
2, 32370, Note_on_c, 0, 69, 100
2, 32397, Note_on_c, 0, 69, 0
2, 32400, Note_on_c, 0, 77, 100
2, 32427, Note_on_c, 0, 77, 0
2, 32430, Note_on_c, 0, 72, 100
2, 32457, Note_on_c, 0, 72, 0
2, 32460, Note_on_c, 0, 71, 100
2, 32487, Note_on_c, 0, 71, 0
2, 32490, Note_on_c, 0, 72, 100
2, 32517, Note_on_c, 0, 72, 0
2, 32520, Note_on_c, 0, 57, 100
2, 32547, Note_on_c, 0, 57, 0
2, 32550, Note_on_c, 0, 69, 100
2, 32577, Note_on_c, 0, 69, 0
2, 32580, Note_on_c, 0, 67, 100
2, 32607, Note_on_c, 0, 67, 0
2, 32610, Note_on_c, 0, 69, 100
2, 32637, Note_on_c, 0, 69, 0
2, 32640, Note_on_c, 0, 77, 100
2, 32667, Note_on_c, 0, 77, 0
2, 32670, Note_on_c, 0, 74, 100
2, 32697, Note_on_c, 0, 74, 0
2, 32700, Note_on_c, 0, 72, 100
2, 32727, Note_on_c, 0, 72, 0
2, 32730, Note_on_c, 0, 74, 100
2, 32757, Note_on_c, 0, 74, 0
2, 32760, Note_on_c, 0, 59, 100
2, 32787, Note_on_c, 0, 59, 0
2, 32790, Note_on_c, 0, 67, 100
2, 32817, Note_on_c, 0, 67, 0
2, 32820, Note_on_c, 0, 65, 100
2, 32847, Note_on_c, 0, 65, 0
2, 32850, Note_on_c, 0, 67, 100
2, 32877, Note_on_c, 0, 67, 0
2, 32880, Note_on_c, 0, 77, 100
2, 32907, Note_on_c, 0, 77, 0
2, 32910, Note_on_c, 0, 74, 100
2, 32937, Note_on_c, 0, 74, 0
2, 32940, Note_on_c, 0, 72, 100
2, 32967, Note_on_c, 0, 72, 0
2, 32970, Note_on_c, 0, 74, 100
2, 32997, Note_on_c, 0, 74, 0
2, 33000, Note_on_c, 0, 59, 100
2, 33027, Note_on_c, 0, 59, 0
2, 33030, Note_on_c, 0, 67, 100
2, 33057, Note_on_c, 0, 67, 0
2, 33060, Note_on_c, 0, 65, 100
2, 33087, Note_on_c, 0, 65, 0
2, 33090, Note_on_c, 0, 67, 100
2, 33117, Note_on_c, 0, 67, 0
2, 33120, Note_on_c, 0, 76, 100
2, 33147, Note_on_c, 0, 76, 0
2, 33150, Note_on_c, 0, 72, 100
2, 33177, Note_on_c, 0, 72, 0
2, 33180, Note_on_c, 0, 71, 100
2, 33207, Note_on_c, 0, 71, 0
2, 33210, Note_on_c, 0, 72, 100
2, 33237, Note_on_c, 0, 72, 0
2, 33240, Note_on_c, 0, 60, 100
2, 33267, Note_on_c, 0, 60, 0
2, 33270, Note_on_c, 0, 67, 100
2, 33297, Note_on_c, 0, 67, 0
2, 33300, Note_on_c, 0, 65, 100
2, 33327, Note_on_c, 0, 65, 0
2, 33330, Note_on_c, 0, 67, 100
2, 33357, Note_on_c, 0, 67, 0
2, 33360, Note_on_c, 0, 76, 100
2, 33387, Note_on_c, 0, 76, 0
2, 33390, Note_on_c, 0, 72, 100
2, 33417, Note_on_c, 0, 72, 0
2, 33420, Note_on_c, 0, 71, 100
2, 33447, Note_on_c, 0, 71, 0
2, 33450, Note_on_c, 0, 72, 100
2, 33477, Note_on_c, 0, 72, 0
2, 33480, Note_on_c, 0, 60, 100
2, 33507, Note_on_c, 0, 60, 0
2, 33510, Note_on_c, 0, 67, 100
2, 33537, Note_on_c, 0, 67, 0
2, 33540, Note_on_c, 0, 65, 100
2, 33567, Note_on_c, 0, 65, 0
2, 33570, Note_on_c, 0, 67, 100
2, 33597, Note_on_c, 0, 67, 0
2, 33600, Note_on_c, 0, 75, 100
2, 33627, Note_on_c, 0, 75, 0
2, 33630, Note_on_c, 0, 72, 100
2, 33657, Note_on_c, 0, 72, 0
2, 33660, Note_on_c, 0, 71, 100
2, 33687, Note_on_c, 0, 71, 0
2, 33690, Note_on_c, 0, 72, 100
2, 33717, Note_on_c, 0, 72, 0
2, 33720, Note_on_c, 0, 66, 100
2, 33747, Note_on_c, 0, 66, 0
2, 33750, Note_on_c, 0, 69, 100
2, 33777, Note_on_c, 0, 69, 0
2, 33780, Note_on_c, 0, 67, 100
2, 33807, Note_on_c, 0, 67, 0
2, 33810, Note_on_c, 0, 69, 100
2, 33837, Note_on_c, 0, 69, 0
2, 33840, Note_on_c, 0, 75, 100
2, 33867, Note_on_c, 0, 75, 0
2, 33870, Note_on_c, 0, 72, 100
2, 33897, Note_on_c, 0, 72, 0
2, 33900, Note_on_c, 0, 71, 100
2, 33927, Note_on_c, 0, 71, 0
2, 33930, Note_on_c, 0, 72, 100
2, 33957, Note_on_c, 0, 72, 0
2, 33960, Note_on_c, 0, 66, 100
2, 33987, Note_on_c, 0, 66, 0
2, 33990, Note_on_c, 0, 69, 100
2, 34017, Note_on_c, 0, 69, 0
2, 34020, Note_on_c, 0, 67, 100
2, 34047, Note_on_c, 0, 67, 0
2, 34050, Note_on_c, 0, 69, 100
2, 34077, Note_on_c, 0, 69, 0
2, 34080, Note_on_c, 0, 74, 100
2, 34107, Note_on_c, 0, 74, 0
2, 34110, Note_on_c, 0, 69, 100
2, 34137, Note_on_c, 0, 69, 0
2, 34140, Note_on_c, 0, 67, 100
2, 34167, Note_on_c, 0, 67, 0
2, 34170, Note_on_c, 0, 69, 100
2, 34197, Note_on_c, 0, 69, 0
2, 34320, Note_on_c, 0, 72, 100
2, 34347, Note_on_c, 0, 72, 0
2, 34350, Note_on_c, 0, 69, 100
2, 34377, Note_on_c, 0, 69, 0
2, 34380, Note_on_c, 0, 67, 100
2, 34407, Note_on_c, 0, 67, 0
2, 34410, Note_on_c, 0, 69, 100
2, 34437, Note_on_c, 0, 69, 0
2, 34560, Note_on_c, 0, 71, 100
2, 34614, Note_on_c, 0, 71, 0
2, 34620, Note_on_c, 0, 69, 100
2, 34674, Note_on_c, 0, 69, 0
2, 34680, Note_on_c, 0, 67, 100
2, 34734, Note_on_c, 0, 67, 0
2, 34740, Note_on_c, 0, 69, 100
2, 34794, Note_on_c, 0, 69, 0
2, 34800, Note_on_c, 0, 71, 100
2, 34800, Note_on_c, 0, 62, 100
2, 34854, Note_on_c, 0, 62, 0
2, 34854, Note_on_c, 0, 71, 0
2, 34860, Note_on_c, 0, 72, 100
2, 34860, Note_on_c, 0, 64, 100
2, 34914, Note_on_c, 0, 64, 0
2, 34914, Note_on_c, 0, 72, 0
2, 34920, Note_on_c, 0, 74, 100
2, 34920, Note_on_c, 0, 65, 100
2, 34974, Note_on_c, 0, 65, 0
2, 34974, Note_on_c, 0, 74, 0
2, 34980, Note_on_c, 0, 76, 100
2, 34980, Note_on_c, 0, 67, 100
2, 35034, Note_on_c, 0, 67, 0
2, 35034, Note_on_c, 0, 76, 0
2, 35040, Note_on_c, 0, 77, 100
2, 35040, Note_on_c, 0, 59, 100
2, 35067, Note_on_c, 0, 77, 0
2, 35070, Note_on_c, 0, 74, 100
2, 35097, Note_on_c, 0, 74, 0
2, 35100, Note_on_c, 0, 72, 100
2, 35127, Note_on_c, 0, 72, 0
2, 35130, Note_on_c, 0, 71, 100
2, 35148, Note_on_c, 0, 59, 0
2, 35157, Note_on_c, 0, 71, 0
2, 35160, Note_on_c, 0, 67, 100
2, 35187, Note_on_c, 0, 67, 0
2, 35190, Note_on_c, 0, 71, 100
2, 35217, Note_on_c, 0, 71, 0
2, 35220, Note_on_c, 0, 72, 100
2, 35247, Note_on_c, 0, 72, 0
2, 35250, Note_on_c, 0, 74, 100
2, 35277, Note_on_c, 0, 74, 0
2, 35280, Note_on_c, 0, 77, 100
2, 35307, Note_on_c, 0, 77, 0
2, 35310, Note_on_c, 0, 74, 100
2, 35337, Note_on_c, 0, 74, 0
2, 35340, Note_on_c, 0, 72, 100
2, 35367, Note_on_c, 0, 72, 0
2, 35370, Note_on_c, 0, 71, 100
2, 35397, Note_on_c, 0, 71, 0
2, 35400, Note_on_c, 0, 67, 100
2, 35427, Note_on_c, 0, 67, 0
2, 35430, Note_on_c, 0, 71, 100
2, 35457, Note_on_c, 0, 71, 0
2, 35460, Note_on_c, 0, 72, 100
2, 35487, Note_on_c, 0, 72, 0
2, 35490, Note_on_c, 0, 74, 100
2, 35517, Note_on_c, 0, 74, 0
2, 35520, Note_on_c, 0, 79, 100
2, 35547, Note_on_c, 0, 79, 0
2, 35550, Note_on_c, 0, 76, 100
2, 35577, Note_on_c, 0, 76, 0
2, 35580, Note_on_c, 0, 74, 100
2, 35607, Note_on_c, 0, 74, 0
2, 35610, Note_on_c, 0, 72, 100
2, 35637, Note_on_c, 0, 72, 0
2, 35640, Note_on_c, 0, 67, 100
2, 35667, Note_on_c, 0, 67, 0
2, 35670, Note_on_c, 0, 72, 100
2, 35697, Note_on_c, 0, 72, 0
2, 35700, Note_on_c, 0, 74, 100
2, 35727, Note_on_c, 0, 74, 0
2, 35730, Note_on_c, 0, 76, 100
2, 35757, Note_on_c, 0, 76, 0
2, 35760, Note_on_c, 0, 79, 100
2, 35787, Note_on_c, 0, 79, 0
2, 35790, Note_on_c, 0, 76, 100
2, 35817, Note_on_c, 0, 76, 0
2, 35820, Note_on_c, 0, 74, 100
2, 35847, Note_on_c, 0, 74, 0
2, 35850, Note_on_c, 0, 72, 100
2, 35877, Note_on_c, 0, 72, 0
2, 35880, Note_on_c, 0, 67, 100
2, 35907, Note_on_c, 0, 67, 0
2, 35910, Note_on_c, 0, 72, 100
2, 35937, Note_on_c, 0, 72, 0
2, 35940, Note_on_c, 0, 74, 100
2, 35967, Note_on_c, 0, 74, 0
2, 35970, Note_on_c, 0, 76, 100
2, 35997, Note_on_c, 0, 76, 0
2, 36000, Note_on_c, 0, 81, 100
2, 36027, Note_on_c, 0, 81, 0
2, 36030, Note_on_c, 0, 75, 100
2, 36057, Note_on_c, 0, 75, 0
2, 36060, Note_on_c, 0, 74, 100
2, 36087, Note_on_c, 0, 74, 0
2, 36090, Note_on_c, 0, 72, 100
2, 36117, Note_on_c, 0, 72, 0
2, 36120, Note_on_c, 0, 66, 100
2, 36147, Note_on_c, 0, 66, 0
2, 36150, Note_on_c, 0, 72, 100
2, 36177, Note_on_c, 0, 72, 0
2, 36180, Note_on_c, 0, 74, 100
2, 36207, Note_on_c, 0, 74, 0
2, 36210, Note_on_c, 0, 75, 100
2, 36237, Note_on_c, 0, 75, 0
2, 36240, Note_on_c, 0, 81, 100
2, 36267, Note_on_c, 0, 81, 0
2, 36270, Note_on_c, 0, 75, 100
2, 36297, Note_on_c, 0, 75, 0
2, 36300, Note_on_c, 0, 74, 100
2, 36327, Note_on_c, 0, 74, 0
2, 36330, Note_on_c, 0, 72, 100
2, 36357, Note_on_c, 0, 72, 0
2, 36360, Note_on_c, 0, 66, 100
2, 36387, Note_on_c, 0, 66, 0
2, 36390, Note_on_c, 0, 72, 100
2, 36417, Note_on_c, 0, 72, 0
2, 36420, Note_on_c, 0, 74, 100
2, 36447, Note_on_c, 0, 74, 0
2, 36450, Note_on_c, 0, 75, 100
2, 36477, Note_on_c, 0, 75, 0
2, 36480, Note_on_c, 0, 83, 100
2, 36507, Note_on_c, 0, 83, 0
2, 36510, Note_on_c, 0, 77, 100
2, 36537, Note_on_c, 0, 77, 0
2, 36540, Note_on_c, 0, 76, 100
2, 36567, Note_on_c, 0, 76, 0
2, 36570, Note_on_c, 0, 74, 100
2, 36597, Note_on_c, 0, 74, 0
2, 36600, Note_on_c, 0, 67, 100
2, 36627, Note_on_c, 0, 67, 0
2, 36630, Note_on_c, 0, 74, 100
2, 36657, Note_on_c, 0, 74, 0
2, 36660, Note_on_c, 0, 76, 100
2, 36687, Note_on_c, 0, 76, 0
2, 36690, Note_on_c, 0, 77, 100
2, 36717, Note_on_c, 0, 77, 0
2, 36720, Note_on_c, 0, 83, 100
2, 36747, Note_on_c, 0, 83, 0
2, 36750, Note_on_c, 0, 77, 100
2, 36777, Note_on_c, 0, 77, 0
2, 36780, Note_on_c, 0, 76, 100
2, 36807, Note_on_c, 0, 76, 0
2, 36810, Note_on_c, 0, 74, 100
2, 36837, Note_on_c, 0, 74, 0
2, 36840, Note_on_c, 0, 67, 100
2, 36867, Note_on_c, 0, 67, 0
2, 36870, Note_on_c, 0, 74, 100
2, 36897, Note_on_c, 0, 74, 0
2, 36900, Note_on_c, 0, 76, 100
2, 36927, Note_on_c, 0, 76, 0
2, 36930, Note_on_c, 0, 77, 100
2, 36957, Note_on_c, 0, 77, 0
2, 36960, Note_on_c, 0, 84, 100
2, 36960, Note_on_c, 0, 76, 100
2, 37068, Note_on_c, 0, 76, 0
2, 37068, Note_on_c, 0, 84, 0
2, 37080, Note_on_c, 0, 83, 100
2, 37080, Note_on_c, 0, 74, 100
2, 37134, Note_on_c, 0, 74, 0
2, 37134, Note_on_c, 0, 83, 0
2, 37140, Note_on_c, 0, 81, 100
2, 37140, Note_on_c, 0, 72, 100
2, 37194, Note_on_c, 0, 72, 0
2, 37194, Note_on_c, 0, 81, 0
2, 37200, Note_on_c, 0, 79, 100
2, 37200, Note_on_c, 0, 71, 100
2, 37254, Note_on_c, 0, 71, 0
2, 37254, Note_on_c, 0, 79, 0
2, 37260, Note_on_c, 0, 77, 100
2, 37260, Note_on_c, 0, 69, 100
2, 37314, Note_on_c, 0, 69, 0
2, 37314, Note_on_c, 0, 77, 0
2, 37320, Note_on_c, 0, 76, 100
2, 37320, Note_on_c, 0, 67, 100
2, 37374, Note_on_c, 0, 67, 0
2, 37374, Note_on_c, 0, 76, 0
2, 37380, Note_on_c, 0, 74, 100
2, 37380, Note_on_c, 0, 65, 100
2, 37434, Note_on_c, 0, 65, 0
2, 37434, Note_on_c, 0, 74, 0
2, 37440, Note_on_c, 0, 72, 100
2, 37548, Note_on_c, 0, 72, 0
2, 37560, Note_on_c, 0, 67, 100
2, 37668, Note_on_c, 0, 67, 0
2, 37680, Note_on_c, 0, 72, 100
2, 37788, Note_on_c, 0, 72, 0
2, 37800, Note_on_c, 0, 67, 100
2, 37908, Note_on_c, 0, 67, 0
2, 37920, Note_on_c, 0, 72, 100
2, 38028, Note_on_c, 0, 72, 0
2, 38040, Note_on_c, 0, 71, 100
2, 38094, Note_on_c, 0, 71, 0
2, 38100, Note_on_c, 0, 69, 100
2, 38154, Note_on_c, 0, 69, 0
2, 38160, Note_on_c, 0, 67, 100
2, 38268, Note_on_c, 0, 67, 0
2, 38280, Note_on_c, 0, 69, 100
2, 38334, Note_on_c, 0, 69, 0
2, 38340, Note_on_c, 0, 71, 100
2, 38394, Note_on_c, 0, 71, 0
2, 38400, Note_on_c, 0, 72, 100
2, 38508, Note_on_c, 0, 72, 0
2, 38520, Note_on_c, 0, 71, 100
2, 38574, Note_on_c, 0, 71, 0
2, 38580, Note_on_c, 0, 69, 100
2, 38634, Note_on_c, 0, 69, 0
2, 38640, Note_on_c, 0, 67, 100
2, 38748, Note_on_c, 0, 67, 0
2, 38760, Note_on_c, 0, 65, 100
2, 38868, Note_on_c, 0, 65, 0
2, 38880, Note_on_c, 0, 64, 100
2, 38934, Note_on_c, 0, 64, 0
2, 38940, Note_on_c, 0, 65, 100
2, 38994, Note_on_c, 0, 65, 0
2, 39000, Note_on_c, 0, 67, 100
2, 39054, Note_on_c, 0, 67, 0
2, 39060, Note_on_c, 0, 64, 100
2, 39114, Note_on_c, 0, 64, 0
2, 39120, Note_on_c, 0, 60, 100
2, 39174, Note_on_c, 0, 60, 0
2, 39180, Note_on_c, 0, 62, 100
2, 39234, Note_on_c, 0, 62, 0
2, 39240, Note_on_c, 0, 64, 100
2, 39294, Note_on_c, 0, 64, 0
2, 39300, Note_on_c, 0, 65, 100
2, 39354, Note_on_c, 0, 65, 0
2, 39360, Note_on_c, 0, 67, 100
2, 39576, Note_on_c, 0, 67, 0
2, 39600, Note_on_c, 0, 55, 100
2, 39816, Note_on_c, 0, 55, 0
2, 39840, Note_on_c, 0, 60, 100
2, 40056, Note_on_c, 0, 60, 0
2, 42240, Note_on_c, 0, 81, 100
2, 42534, Note_on_c, 0, 81, 0
2, 42540, Note_on_c, 0, 79, 100
2, 42567, Note_on_c, 0, 79, 0
2, 42570, Note_on_c, 0, 77, 100
2, 42597, Note_on_c, 0, 77, 0
2, 42600, Note_on_c, 0, 76, 100
2, 42627, Note_on_c, 0, 76, 0
2, 42630, Note_on_c, 0, 77, 100
2, 42657, Note_on_c, 0, 77, 0
2, 42660, Note_on_c, 0, 79, 100
2, 42714, Note_on_c, 0, 79, 0
2, 42720, Note_on_c, 0, 73, 100
2, 42936, Note_on_c, 0, 73, 0
2, 43080, Note_on_c, 0, 74, 100
2, 43188, Note_on_c, 0, 74, 0
2, 43200, Note_on_c, 0, 79, 100
2, 43362, Note_on_c, 0, 79, 0
2, 43380, Note_on_c, 0, 81, 100
2, 43407, Note_on_c, 0, 81, 0
2, 43410, Note_on_c, 0, 82, 100
2, 43437, Note_on_c, 0, 82, 0
2, 43440, Note_on_c, 0, 81, 100
2, 43494, Note_on_c, 0, 81, 0
2, 43500, Note_on_c, 0, 79, 100
2, 43554, Note_on_c, 0, 79, 0
2, 43560, Note_on_c, 0, 77, 100
2, 43614, Note_on_c, 0, 77, 0
2, 43620, Note_on_c, 0, 76, 100
2, 43674, Note_on_c, 0, 76, 0
2, 43680, Note_on_c, 0, 77, 100
2, 44214, Note_on_c, 0, 77, 0
2, 44220, Note_on_c, 0, 67, 100
2, 44274, Note_on_c, 0, 67, 0
2, 44280, Note_on_c, 0, 71, 100
2, 44334, Note_on_c, 0, 71, 0
2, 44340, Note_on_c, 0, 74, 100
2, 44394, Note_on_c, 0, 74, 0
2, 44400, Note_on_c, 0, 79, 100
2, 44454, Note_on_c, 0, 79, 0
2, 44460, Note_on_c, 0, 77, 100
2, 44514, Note_on_c, 0, 77, 0
2, 44520, Note_on_c, 0, 76, 100
2, 44574, Note_on_c, 0, 76, 0
2, 44580, Note_on_c, 0, 74, 100
2, 44634, Note_on_c, 0, 74, 0
2, 44640, Note_on_c, 0, 76, 100
2, 44694, Note_on_c, 0, 76, 0
2, 44700, Note_on_c, 0, 76, 100
2, 44754, Note_on_c, 0, 76, 0
2, 44760, Note_on_c, 0, 78, 100
2, 44814, Note_on_c, 0, 78, 0
2, 44820, Note_on_c, 0, 79, 100
2, 44874, Note_on_c, 0, 79, 0
2, 44880, Note_on_c, 0, 81, 100
2, 44934, Note_on_c, 0, 81, 0
2, 44940, Note_on_c, 0, 79, 100
2, 44994, Note_on_c, 0, 79, 0
2, 45000, Note_on_c, 0, 78, 100
2, 45054, Note_on_c, 0, 78, 0
2, 45060, Note_on_c, 0, 76, 100
2, 45114, Note_on_c, 0, 76, 0
2, 45120, Note_on_c, 0, 75, 100
2, 45174, Note_on_c, 0, 75, 0
2, 45180, Note_on_c, 0, 71, 100
2, 45234, Note_on_c, 0, 71, 0
2, 45240, Note_on_c, 0, 76, 100
2, 45294, Note_on_c, 0, 76, 0
2, 45300, Note_on_c, 0, 75, 100
2, 45354, Note_on_c, 0, 75, 0
2, 45360, Note_on_c, 0, 76, 100
2, 45414, Note_on_c, 0, 76, 0
2, 45420, Note_on_c, 0, 71, 100
2, 45474, Note_on_c, 0, 71, 0
2, 45480, Note_on_c, 0, 72, 100
2, 45534, Note_on_c, 0, 72, 0
2, 45540, Note_on_c, 0, 69, 100
2, 45594, Note_on_c, 0, 69, 0
2, 45600, Note_on_c, 0, 66, 100
2, 45654, Note_on_c, 0, 66, 0
2, 45660, Note_on_c, 0, 72, 100
2, 45714, Note_on_c, 0, 72, 0
2, 45720, Note_on_c, 0, 71, 100
2, 45774, Note_on_c, 0, 71, 0
2, 45780, Note_on_c, 0, 69, 100
2, 45834, Note_on_c, 0, 69, 0
2, 45840, Note_on_c, 0, 71, 100
2, 45894, Note_on_c, 0, 71, 0
2, 45900, Note_on_c, 0, 66, 100
2, 45954, Note_on_c, 0, 66, 0
2, 45960, Note_on_c, 0, 67, 100
2, 46014, Note_on_c, 0, 67, 0
2, 46020, Note_on_c, 0, 64, 100
2, 46074, Note_on_c, 0, 64, 0
2, 46080, Note_on_c, 0, 72, 100
2, 46134, Note_on_c, 0, 72, 0
2, 46140, Note_on_c, 0, 66, 100
2, 46194, Note_on_c, 0, 66, 0
2, 46200, Note_on_c, 0, 67, 100
2, 46254, Note_on_c, 0, 67, 0
2, 46260, Note_on_c, 0, 64, 100
2, 46314, Note_on_c, 0, 64, 0
2, 46320, Note_on_c, 0, 63, 100
2, 46428, Note_on_c, 0, 63, 0
2, 46440, Note_on_c, 0, 78, 100
2, 46614, Note_on_c, 0, 78, 0
2, 46620, Note_on_c, 0, 64, 100
2, 46674, Note_on_c, 0, 64, 0
2, 46680, Note_on_c, 0, 67, 100
2, 46734, Note_on_c, 0, 67, 0
2, 46740, Note_on_c, 0, 71, 100
2, 46794, Note_on_c, 0, 71, 0
2, 46800, Note_on_c, 0, 76, 100
2, 46854, Note_on_c, 0, 76, 0
2, 46860, Note_on_c, 0, 74, 100
2, 46914, Note_on_c, 0, 74, 0
2, 46920, Note_on_c, 0, 72, 100
2, 46974, Note_on_c, 0, 72, 0
2, 46980, Note_on_c, 0, 71, 100
2, 47034, Note_on_c, 0, 71, 0
2, 47040, Note_on_c, 0, 72, 100
2, 47904, Note_on_c, 0, 72, 0
2, 48000, Note_on_c, 0, 71, 100
2, 48864, Note_on_c, 0, 71, 0
2, 48960, Note_on_c, 0, 69, 100
2, 49824, Note_on_c, 0, 69, 0
2, 49920, Note_on_c, 0, 67, 100
2, 49974, Note_on_c, 0, 67, 0
2, 49980, Note_on_c, 0, 64, 100
2, 50034, Note_on_c, 0, 64, 0
2, 50040, Note_on_c, 0, 67, 100
2, 50094, Note_on_c, 0, 67, 0
2, 50100, Note_on_c, 0, 71, 100
2, 50154, Note_on_c, 0, 71, 0
2, 50160, Note_on_c, 0, 76, 100
2, 50214, Note_on_c, 0, 76, 0
2, 50220, Note_on_c, 0, 74, 100
2, 50274, Note_on_c, 0, 74, 0
2, 50280, Note_on_c, 0, 72, 100
2, 50334, Note_on_c, 0, 72, 0
2, 50340, Note_on_c, 0, 71, 100
2, 50394, Note_on_c, 0, 71, 0
2, 50400, Note_on_c, 0, 72, 100
2, 50454, Note_on_c, 0, 72, 0
2, 50460, Note_on_c, 0, 69, 100
2, 50514, Note_on_c, 0, 69, 0
2, 50520, Note_on_c, 0, 72, 100
2, 50574, Note_on_c, 0, 72, 0
2, 50580, Note_on_c, 0, 76, 100
2, 50634, Note_on_c, 0, 76, 0
2, 50640, Note_on_c, 0, 81, 100
2, 50694, Note_on_c, 0, 81, 0
2, 50700, Note_on_c, 0, 79, 100
2, 50754, Note_on_c, 0, 79, 0
2, 50760, Note_on_c, 0, 78, 100
2, 50814, Note_on_c, 0, 78, 0
2, 50820, Note_on_c, 0, 76, 100
2, 50874, Note_on_c, 0, 76, 0
2, 50880, Note_on_c, 0, 78, 100
2, 50934, Note_on_c, 0, 78, 0
2, 50940, Note_on_c, 0, 62, 100
2, 50994, Note_on_c, 0, 62, 0
2, 51000, Note_on_c, 0, 66, 100
2, 51054, Note_on_c, 0, 66, 0
2, 51060, Note_on_c, 0, 69, 100
2, 51114, Note_on_c, 0, 69, 0
2, 51120, Note_on_c, 0, 74, 100
2, 51174, Note_on_c, 0, 74, 0
2, 51180, Note_on_c, 0, 72, 100
2, 51234, Note_on_c, 0, 72, 0
2, 51240, Note_on_c, 0, 71, 100
2, 51294, Note_on_c, 0, 71, 0
2, 51300, Note_on_c, 0, 69, 100
2, 51354, Note_on_c, 0, 69, 0
2, 51360, Note_on_c, 0, 71, 100
2, 51414, Note_on_c, 0, 71, 0
2, 51420, Note_on_c, 0, 67, 100
2, 51474, Note_on_c, 0, 67, 0
2, 51480, Note_on_c, 0, 71, 100
2, 51534, Note_on_c, 0, 71, 0
2, 51540, Note_on_c, 0, 74, 100
2, 51594, Note_on_c, 0, 74, 0
2, 51600, Note_on_c, 0, 79, 100
2, 51654, Note_on_c, 0, 79, 0
2, 51660, Note_on_c, 0, 78, 100
2, 51714, Note_on_c, 0, 78, 0
2, 51720, Note_on_c, 0, 76, 100
2, 51774, Note_on_c, 0, 76, 0
2, 51780, Note_on_c, 0, 74, 100
2, 51834, Note_on_c, 0, 74, 0
2, 51840, Note_on_c, 0, 76, 100
2, 51894, Note_on_c, 0, 76, 0
2, 51900, Note_on_c, 0, 74, 100
2, 51954, Note_on_c, 0, 74, 0
2, 51960, Note_on_c, 0, 72, 100
2, 52014, Note_on_c, 0, 72, 0
2, 52020, Note_on_c, 0, 71, 100
2, 52074, Note_on_c, 0, 71, 0
2, 52080, Note_on_c, 0, 81, 100
2, 52134, Note_on_c, 0, 81, 0
2, 52140, Note_on_c, 0, 79, 100
2, 52194, Note_on_c, 0, 79, 0
2, 52200, Note_on_c, 0, 78, 100
2, 52254, Note_on_c, 0, 78, 0
2, 52260, Note_on_c, 0, 76, 100
2, 52314, Note_on_c, 0, 76, 0
2, 52320, Note_on_c, 0, 78, 100
2, 52374, Note_on_c, 0, 78, 0
2, 52380, Note_on_c, 0, 76, 100
2, 52434, Note_on_c, 0, 76, 0
2, 52440, Note_on_c, 0, 74, 100
2, 52494, Note_on_c, 0, 74, 0
2, 52500, Note_on_c, 0, 72, 100
2, 52554, Note_on_c, 0, 72, 0
2, 52560, Note_on_c, 0, 83, 100
2, 52614, Note_on_c, 0, 83, 0
2, 52620, Note_on_c, 0, 81, 100
2, 52674, Note_on_c, 0, 81, 0
2, 52680, Note_on_c, 0, 79, 100
2, 52734, Note_on_c, 0, 79, 0
2, 52740, Note_on_c, 0, 78, 100
2, 52794, Note_on_c, 0, 78, 0
2, 52800, Note_on_c, 0, 79, 100
2, 52854, Note_on_c, 0, 79, 0
2, 52860, Note_on_c, 0, 78, 100
2, 52914, Note_on_c, 0, 78, 0
2, 52920, Note_on_c, 0, 76, 100
2, 52974, Note_on_c, 0, 76, 0
2, 52980, Note_on_c, 0, 74, 100
2, 53034, Note_on_c, 0, 74, 0
2, 53040, Note_on_c, 0, 84, 100
2, 53094, Note_on_c, 0, 84, 0
2, 53100, Note_on_c, 0, 83, 100
2, 53154, Note_on_c, 0, 83, 0
2, 53160, Note_on_c, 0, 81, 100
2, 53214, Note_on_c, 0, 81, 0
2, 53220, Note_on_c, 0, 79, 100
2, 53274, Note_on_c, 0, 79, 0
2, 53280, Note_on_c, 0, 81, 100
2, 53334, Note_on_c, 0, 81, 0
2, 53340, Note_on_c, 0, 79, 100
2, 53394, Note_on_c, 0, 79, 0
2, 53400, Note_on_c, 0, 78, 100
2, 53454, Note_on_c, 0, 78, 0
2, 53460, Note_on_c, 0, 76, 100
2, 53514, Note_on_c, 0, 76, 0
2, 53520, Note_on_c, 0, 74, 100
2, 53574, Note_on_c, 0, 74, 0
2, 53580, Note_on_c, 0, 72, 100
2, 53634, Note_on_c, 0, 72, 0
2, 53640, Note_on_c, 0, 71, 100
2, 53694, Note_on_c, 0, 71, 0
2, 53700, Note_on_c, 0, 69, 100
2, 53754, Note_on_c, 0, 69, 0
2, 53760, Note_on_c, 0, 79, 100
2, 53868, Note_on_c, 0, 79, 0
2, 53880, Note_on_c, 0, 74, 100
2, 53988, Note_on_c, 0, 74, 0
2, 54000, Note_on_c, 0, 79, 100
2, 54108, Note_on_c, 0, 79, 0
2, 54120, Note_on_c, 0, 74, 100
2, 54228, Note_on_c, 0, 74, 0
2, 54240, Note_on_c, 0, 79, 100
2, 54348, Note_on_c, 0, 79, 0
2, 54360, Note_on_c, 0, 78, 100
2, 54414, Note_on_c, 0, 78, 0
2, 54420, Note_on_c, 0, 76, 100
2, 54474, Note_on_c, 0, 76, 0
2, 54480, Note_on_c, 0, 74, 100
2, 54588, Note_on_c, 0, 74, 0
2, 54600, Note_on_c, 0, 76, 100
2, 54654, Note_on_c, 0, 76, 0
2, 54660, Note_on_c, 0, 78, 100
2, 54714, Note_on_c, 0, 78, 0
2, 54720, Note_on_c, 0, 79, 100
2, 54828, Note_on_c, 0, 79, 0
2, 54840, Note_on_c, 0, 78, 100
2, 54894, Note_on_c, 0, 78, 0
2, 54900, Note_on_c, 0, 76, 100
2, 54954, Note_on_c, 0, 76, 0
2, 54960, Note_on_c, 0, 74, 100
2, 55068, Note_on_c, 0, 74, 0
2, 55080, Note_on_c, 0, 72, 100
2, 55188, Note_on_c, 0, 72, 0
2, 55200, Note_on_c, 0, 71, 100
2, 55362, Note_on_c, 0, 71, 0
2, 55380, Note_on_c, 0, 69, 100
2, 55434, Note_on_c, 0, 69, 0
2, 55440, Note_on_c, 0, 69, 100
2, 55602, Note_on_c, 0, 69, 0
2, 55620, Note_on_c, 0, 67, 100
2, 55674, Note_on_c, 0, 67, 0
2, 55680, Note_on_c, 0, 67, 100
2, 55734, Note_on_c, 0, 67, 0
2, 55740, Note_on_c, 0, 71, 100
2, 55794, Note_on_c, 0, 71, 0
2, 55800, Note_on_c, 0, 74, 100
2, 55854, Note_on_c, 0, 74, 0
2, 55860, Note_on_c, 0, 72, 100
2, 55914, Note_on_c, 0, 72, 0
2, 55920, Note_on_c, 0, 71, 100
2, 55974, Note_on_c, 0, 71, 0
2, 55980, Note_on_c, 0, 69, 100
2, 56034, Note_on_c, 0, 69, 0
2, 56040, Note_on_c, 0, 67, 100
2, 56094, Note_on_c, 0, 67, 0
2, 56100, Note_on_c, 0, 66, 100
2, 56154, Note_on_c, 0, 66, 0
2, 56160, Note_on_c, 0, 67, 100
2, 56214, Note_on_c, 0, 67, 0
2, 56220, Note_on_c, 0, 69, 100
2, 56274, Note_on_c, 0, 69, 0
2, 56280, Note_on_c, 0, 71, 100
2, 56334, Note_on_c, 0, 71, 0
2, 56340, Note_on_c, 0, 72, 100
2, 56394, Note_on_c, 0, 72, 0
2, 56400, Note_on_c, 0, 74, 100
2, 56508, Note_on_c, 0, 74, 0
2, 56520, Note_on_c, 0, 72, 100
2, 56628, Note_on_c, 0, 72, 0
2, 56640, Note_on_c, 0, 71, 100
2, 56694, Note_on_c, 0, 71, 0
2, 56700, Note_on_c, 0, 74, 100
2, 56754, Note_on_c, 0, 74, 0
2, 56760, Note_on_c, 0, 67, 100
2, 56814, Note_on_c, 0, 67, 0
2, 56820, Note_on_c, 0, 69, 100
2, 56874, Note_on_c, 0, 69, 0
2, 56880, Note_on_c, 0, 71, 100
2, 56934, Note_on_c, 0, 71, 0
2, 56940, Note_on_c, 0, 72, 100
2, 56994, Note_on_c, 0, 72, 0
2, 57000, Note_on_c, 0, 74, 100
2, 57108, Note_on_c, 0, 74, 0
2, 57120, Note_on_c, 0, 67, 100
2, 57174, Note_on_c, 0, 67, 0
2, 57180, Note_on_c, 0, 62, 100
2, 57234, Note_on_c, 0, 62, 0
2, 57240, Note_on_c, 0, 64, 100
2, 57294, Note_on_c, 0, 64, 0
2, 57300, Note_on_c, 0, 66, 100
2, 57354, Note_on_c, 0, 66, 0
2, 57360, Note_on_c, 0, 67, 100
2, 57414, Note_on_c, 0, 67, 0
2, 57420, Note_on_c, 0, 69, 100
2, 57474, Note_on_c, 0, 69, 0
2, 57480, Note_on_c, 0, 71, 100
2, 57534, Note_on_c, 0, 71, 0
2, 57540, Note_on_c, 0, 72, 100
2, 57594, Note_on_c, 0, 72, 0
2, 57600, Note_on_c, 0, 74, 100
2, 57654, Note_on_c, 0, 74, 0
2, 57660, Note_on_c, 0, 71, 100
2, 57714, Note_on_c, 0, 71, 0
2, 57720, Note_on_c, 0, 67, 100
2, 57774, Note_on_c, 0, 67, 0
2, 57780, Note_on_c, 0, 69, 100
2, 57834, Note_on_c, 0, 69, 0
2, 57840, Note_on_c, 0, 71, 100
2, 57894, Note_on_c, 0, 71, 0
2, 57900, Note_on_c, 0, 72, 100
2, 57954, Note_on_c, 0, 72, 0
2, 57960, Note_on_c, 0, 74, 100
2, 58014, Note_on_c, 0, 74, 0
2, 58020, Note_on_c, 0, 76, 100
2, 58074, Note_on_c, 0, 76, 0
2, 58080, Note_on_c, 0, 77, 100
2, 58134, Note_on_c, 0, 77, 0
2, 58140, Note_on_c, 0, 76, 100
2, 58194, Note_on_c, 0, 76, 0
2, 58200, Note_on_c, 0, 74, 100
2, 58254, Note_on_c, 0, 74, 0
2, 58260, Note_on_c, 0, 76, 100
2, 58314, Note_on_c, 0, 76, 0
2, 58320, Note_on_c, 0, 77, 100
2, 58374, Note_on_c, 0, 77, 0
2, 58380, Note_on_c, 0, 81, 100
2, 58434, Note_on_c, 0, 81, 0
2, 58440, Note_on_c, 0, 79, 100
2, 58494, Note_on_c, 0, 79, 0
2, 58500, Note_on_c, 0, 77, 100
2, 58554, Note_on_c, 0, 77, 0
2, 58560, Note_on_c, 0, 76, 100
2, 58668, Note_on_c, 0, 76, 0
2, 58680, Note_on_c, 0, 79, 100
2, 58788, Note_on_c, 0, 79, 0
2, 58800, Note_on_c, 0, 76, 100
2, 58908, Note_on_c, 0, 76, 0
2, 58920, Note_on_c, 0, 79, 100
2, 59028, Note_on_c, 0, 79, 0
2, 59040, Note_on_c, 0, 76, 100
2, 59094, Note_on_c, 0, 76, 0
2, 59100, Note_on_c, 0, 74, 100
2, 59154, Note_on_c, 0, 74, 0
2, 59160, Note_on_c, 0, 76, 100
2, 59214, Note_on_c, 0, 76, 0
2, 59220, Note_on_c, 0, 77, 100
2, 59274, Note_on_c, 0, 77, 0
2, 59280, Note_on_c, 0, 79, 100
2, 59388, Note_on_c, 0, 79, 0
2, 59400, Note_on_c, 0, 67, 100
2, 59508, Note_on_c, 0, 67, 0
2, 59520, Note_on_c, 0, 79, 100
2, 59628, Note_on_c, 0, 79, 0
2, 59640, Note_on_c, 0, 67, 100
2, 59748, Note_on_c, 0, 67, 0
2, 59760, Note_on_c, 0, 79, 100
2, 59868, Note_on_c, 0, 79, 0
2, 59880, Note_on_c, 0, 67, 100
2, 59988, Note_on_c, 0, 67, 0
2, 60000, Note_on_c, 0, 79, 100
2, 60108, Note_on_c, 0, 79, 0
2, 61080, Note_on_c, 0, 79, 100
2, 61134, Note_on_c, 0, 79, 0
2, 61140, Note_on_c, 0, 77, 100
2, 61194, Note_on_c, 0, 77, 0
2, 61200, Note_on_c, 0, 76, 100
2, 61254, Note_on_c, 0, 76, 0
2, 61260, Note_on_c, 0, 77, 100
2, 61314, Note_on_c, 0, 77, 0
2, 61320, Note_on_c, 0, 76, 100
2, 61374, Note_on_c, 0, 76, 0
2, 61380, Note_on_c, 0, 74, 100
2, 61434, Note_on_c, 0, 74, 0
2, 61440, Note_on_c, 0, 72, 100
2, 61494, Note_on_c, 0, 72, 0
2, 61500, Note_on_c, 0, 72, 100
2, 61554, Note_on_c, 0, 72, 0
2, 61560, Note_on_c, 0, 77, 100
2, 61614, Note_on_c, 0, 77, 0
2, 61620, Note_on_c, 0, 81, 100
2, 61674, Note_on_c, 0, 81, 0
2, 61680, Note_on_c, 0, 84, 100
2, 61788, Note_on_c, 0, 84, 0
2, 61980, Note_on_c, 0, 84, 100
2, 62034, Note_on_c, 0, 84, 0
2, 62040, Note_on_c, 0, 79, 100
2, 62094, Note_on_c, 0, 79, 0
2, 62100, Note_on_c, 0, 76, 100
2, 62154, Note_on_c, 0, 76, 0
2, 62160, Note_on_c, 0, 72, 100
2, 62268, Note_on_c, 0, 72, 0
2, 62460, Note_on_c, 0, 69, 100
2, 62514, Note_on_c, 0, 69, 0
2, 62520, Note_on_c, 0, 74, 100
2, 62574, Note_on_c, 0, 74, 0
2, 62580, Note_on_c, 0, 77, 100
2, 62634, Note_on_c, 0, 77, 0
2, 62640, Note_on_c, 0, 81, 100
2, 62748, Note_on_c, 0, 81, 0
2, 62940, Note_on_c, 0, 81, 100
2, 62994, Note_on_c, 0, 81, 0
2, 63000, Note_on_c, 0, 76, 100
2, 63054, Note_on_c, 0, 76, 0
2, 63060, Note_on_c, 0, 72, 100
2, 63114, Note_on_c, 0, 72, 0
2, 63120, Note_on_c, 0, 69, 100
2, 63228, Note_on_c, 0, 69, 0
2, 63420, Note_on_c, 0, 65, 100
2, 63474, Note_on_c, 0, 65, 0
2, 63480, Note_on_c, 0, 70, 100
2, 63534, Note_on_c, 0, 70, 0
2, 63540, Note_on_c, 0, 74, 100
2, 63594, Note_on_c, 0, 74, 0
2, 63600, Note_on_c, 0, 77, 100
2, 63708, Note_on_c, 0, 77, 0
2, 63900, Note_on_c, 0, 77, 100
2, 63954, Note_on_c, 0, 77, 0
2, 63960, Note_on_c, 0, 72, 100
2, 64014, Note_on_c, 0, 72, 0
2, 64020, Note_on_c, 0, 69, 100
2, 64074, Note_on_c, 0, 69, 0
2, 64080, Note_on_c, 0, 65, 100
2, 64188, Note_on_c, 0, 65, 0
2, 64380, Note_on_c, 0, 74, 100
2, 64434, Note_on_c, 0, 74, 0
2, 64440, Note_on_c, 0, 70, 100
2, 64494, Note_on_c, 0, 70, 0
2, 64500, Note_on_c, 0, 67, 100
2, 64554, Note_on_c, 0, 67, 0
2, 64560, Note_on_c, 0, 79, 100
2, 64668, Note_on_c, 0, 79, 0
2, 64830, Note_on_c, 0, 74, 100
2, 64857, Note_on_c, 0, 74, 0
2, 64860, Note_on_c, 0, 76, 100
2, 64887, Note_on_c, 0, 76, 0
2, 64890, Note_on_c, 0, 74, 100
2, 64917, Note_on_c, 0, 74, 0
2, 64920, Note_on_c, 0, 72, 100
2, 64947, Note_on_c, 0, 72, 0
2, 64950, Note_on_c, 0, 70, 100
2, 64977, Note_on_c, 0, 70, 0
2, 64980, Note_on_c, 0, 69, 100
2, 65007, Note_on_c, 0, 69, 0
2, 65010, Note_on_c, 0, 67, 100
2, 65037, Note_on_c, 0, 67, 0
2, 65040, Note_on_c, 0, 69, 100
2, 65148, Note_on_c, 0, 69, 0
2, 66240, Note_on_c, 0, 77, 100
2, 66348, Note_on_c, 0, 77, 0
2, 66360, Note_on_c, 0, 72, 100
2, 66468, Note_on_c, 0, 72, 0
2, 66480, Note_on_c, 0, 77, 100
2, 66588, Note_on_c, 0, 77, 0
2, 66600, Note_on_c, 0, 72, 100
2, 66708, Note_on_c, 0, 72, 0
2, 66720, Note_on_c, 0, 77, 100
2, 66828, Note_on_c, 0, 77, 0
2, 66840, Note_on_c, 0, 76, 100
2, 66894, Note_on_c, 0, 76, 0
2, 66900, Note_on_c, 0, 74, 100
2, 66954, Note_on_c, 0, 74, 0
2, 66960, Note_on_c, 0, 72, 100
2, 67068, Note_on_c, 0, 72, 0
2, 67080, Note_on_c, 0, 74, 100
2, 67134, Note_on_c, 0, 74, 0
2, 67140, Note_on_c, 0, 76, 100
2, 67194, Note_on_c, 0, 76, 0
2, 67200, Note_on_c, 0, 77, 100
2, 67308, Note_on_c, 0, 77, 0
2, 67320, Note_on_c, 0, 76, 100
2, 67374, Note_on_c, 0, 76, 0
2, 67380, Note_on_c, 0, 74, 100
2, 67434, Note_on_c, 0, 74, 0
2, 67440, Note_on_c, 0, 72, 100
2, 67548, Note_on_c, 0, 72, 0
2, 67560, Note_on_c, 0, 70, 100
2, 67668, Note_on_c, 0, 70, 0
2, 67680, Note_on_c, 0, 69, 100
2, 67734, Note_on_c, 0, 69, 0
2, 67740, Note_on_c, 0, 70, 100
2, 67794, Note_on_c, 0, 70, 0
2, 67800, Note_on_c, 0, 72, 100
2, 67854, Note_on_c, 0, 72, 0
2, 67860, Note_on_c, 0, 69, 100
2, 67914, Note_on_c, 0, 69, 0
2, 67920, Note_on_c, 0, 65, 100
2, 67974, Note_on_c, 0, 65, 0
2, 67980, Note_on_c, 0, 69, 100
2, 68034, Note_on_c, 0, 69, 0
2, 68040, Note_on_c, 0, 70, 100
2, 68094, Note_on_c, 0, 70, 0
2, 68100, Note_on_c, 0, 72, 100
2, 68154, Note_on_c, 0, 72, 0
2, 68160, Note_on_c, 0, 74, 100
2, 68214, Note_on_c, 0, 74, 0
2, 68220, Note_on_c, 0, 76, 100
2, 68274, Note_on_c, 0, 76, 0
2, 68280, Note_on_c, 0, 77, 100
2, 68334, Note_on_c, 0, 77, 0
2, 68340, Note_on_c, 0, 74, 100
2, 68394, Note_on_c, 0, 74, 0
2, 68400, Note_on_c, 0, 70, 100
2, 68454, Note_on_c, 0, 70, 0
2, 68460, Note_on_c, 0, 72, 100
2, 68514, Note_on_c, 0, 72, 0
2, 68520, Note_on_c, 0, 74, 100
2, 68574, Note_on_c, 0, 74, 0
2, 68580, Note_on_c, 0, 70, 100
2, 68634, Note_on_c, 0, 70, 0
2, 68640, Note_on_c, 0, 67, 100
2, 68694, Note_on_c, 0, 67, 0
2, 68700, Note_on_c, 0, 69, 100
2, 68754, Note_on_c, 0, 69, 0
2, 68760, Note_on_c, 0, 70, 100
2, 68814, Note_on_c, 0, 70, 0
2, 68820, Note_on_c, 0, 67, 100
2, 68874, Note_on_c, 0, 67, 0
2, 68880, Note_on_c, 0, 64, 100
2, 68934, Note_on_c, 0, 64, 0
2, 68940, Note_on_c, 0, 65, 100
2, 68994, Note_on_c, 0, 65, 0
2, 69000, Note_on_c, 0, 67, 100
2, 69054, Note_on_c, 0, 67, 0
2, 69060, Note_on_c, 0, 64, 100
2, 69114, Note_on_c, 0, 64, 0
2, 69120, Note_on_c, 0, 60, 100
2, 69228, Note_on_c, 0, 60, 0
2, 69240, Note_on_c, 0, 79, 100
2, 69348, Note_on_c, 0, 79, 0
2, 69360, Note_on_c, 0, 79, 100
2, 69468, Note_on_c, 0, 79, 0
2, 69480, Note_on_c, 0, 72, 100
2, 69588, Note_on_c, 0, 72, 0
2, 69720, Note_on_c, 0, 72, 100
2, 69828, Note_on_c, 0, 72, 0
2, 69840, Note_on_c, 0, 72, 100
2, 69948, Note_on_c, 0, 72, 0
2, 69960, Note_on_c, 0, 65, 100
2, 70068, Note_on_c, 0, 65, 0
2, 70080, Note_on_c, 0, 65, 100
2, 70188, Note_on_c, 0, 65, 0
2, 70200, Note_on_c, 0, 58, 100
2, 70308, Note_on_c, 0, 58, 0
2, 70440, Note_on_c, 0, 82, 100
2, 70548, Note_on_c, 0, 82, 0
2, 70560, Note_on_c, 0, 82, 100
2, 70668, Note_on_c, 0, 82, 0
2, 70680, Note_on_c, 0, 76, 100
2, 70788, Note_on_c, 0, 76, 0
2, 70860, Note_on_c, 0, 76, 100
2, 70914, Note_on_c, 0, 76, 0
2, 70920, Note_on_c, 0, 79, 100
2, 70974, Note_on_c, 0, 79, 0
2, 70980, Note_on_c, 0, 82, 100
2, 71034, Note_on_c, 0, 82, 0
2, 71040, Note_on_c, 0, 77, 100
2, 71094, Note_on_c, 0, 77, 0
2, 71100, Note_on_c, 0, 79, 100
2, 71154, Note_on_c, 0, 79, 0
2, 71160, Note_on_c, 0, 81, 100
2, 71214, Note_on_c, 0, 81, 0
2, 71220, Note_on_c, 0, 77, 100
2, 71274, Note_on_c, 0, 77, 0
2, 71280, Note_on_c, 0, 72, 100
2, 71334, Note_on_c, 0, 72, 0
2, 71340, Note_on_c, 0, 77, 100
2, 71394, Note_on_c, 0, 77, 0
2, 71400, Note_on_c, 0, 81, 100
2, 71454, Note_on_c, 0, 81, 0
2, 71460, Note_on_c, 0, 84, 100
2, 71514, Note_on_c, 0, 84, 0
2, 71520, Note_on_c, 0, 79, 100
2, 71574, Note_on_c, 0, 79, 0
2, 71580, Note_on_c, 0, 81, 100
2, 71634, Note_on_c, 0, 81, 0
2, 71640, Note_on_c, 0, 82, 100
2, 71694, Note_on_c, 0, 82, 0
2, 71700, Note_on_c, 0, 79, 100
2, 71754, Note_on_c, 0, 79, 0
2, 71760, Note_on_c, 0, 76, 100
2, 71868, Note_on_c, 0, 76, 0
2, 71880, Note_on_c, 0, 76, 100
2, 71880, Note_on_c, 0, 79, 100
2, 71880, Note_on_c, 0, 84, 100
2, 71988, Note_on_c, 0, 84, 0
2, 71988, Note_on_c, 0, 79, 0
2, 71988, Note_on_c, 0, 76, 0
2, 72000, Note_on_c, 0, 77, 100
2, 72000, Note_on_c, 0, 81, 100
2, 72000, Note_on_c, 0, 84, 100
2, 72108, Note_on_c, 0, 84, 0
2, 72108, Note_on_c, 0, 81, 0
2, 72108, Note_on_c, 0, 77, 0
2, 72120, Note_on_c, 0, 77, 100
2, 72228, Note_on_c, 0, 77, 0
2, 72360, Note_on_c, 0, 72, 100
2, 72360, Note_on_c, 0, 77, 100
2, 72360, Note_on_c, 0, 81, 100
2, 72468, Note_on_c, 0, 81, 0
2, 72468, Note_on_c, 0, 77, 0
2, 72468, Note_on_c, 0, 72, 0
2, 72480, Note_on_c, 0, 74, 100
2, 72480, Note_on_c, 0, 77, 100
2, 72480, Note_on_c, 0, 82, 100
2, 72588, Note_on_c, 0, 82, 0
2, 72588, Note_on_c, 0, 77, 0
2, 72588, Note_on_c, 0, 74, 0
2, 72600, Note_on_c, 0, 69, 100
2, 72600, Note_on_c, 0, 72, 100
2, 72600, Note_on_c, 0, 77, 100
2, 72708, Note_on_c, 0, 77, 0
2, 72708, Note_on_c, 0, 72, 0
2, 72708, Note_on_c, 0, 69, 0
2, 72720, Note_on_c, 0, 65, 100
2, 72720, Note_on_c, 0, 70, 100
2, 72720, Note_on_c, 0, 77, 100
2, 72828, Note_on_c, 0, 77, 0
2, 72828, Note_on_c, 0, 70, 0
2, 72828, Note_on_c, 0, 65, 0
2, 72840, Note_on_c, 0, 70, 100
2, 72948, Note_on_c, 0, 70, 0
2, 73080, Note_on_c, 0, 82, 100
2, 73080, Note_on_c, 0, 76, 100
2, 73080, Note_on_c, 0, 79, 100
2, 73188, Note_on_c, 0, 79, 0
2, 73188, Note_on_c, 0, 76, 0
2, 73188, Note_on_c, 0, 82, 0
2, 73200, Note_on_c, 0, 82, 100
2, 73200, Note_on_c, 0, 76, 100
2, 73200, Note_on_c, 0, 79, 100
2, 73308, Note_on_c, 0, 79, 0
2, 73308, Note_on_c, 0, 76, 0
2, 73308, Note_on_c, 0, 82, 0
2, 73320, Note_on_c, 0, 81, 100
2, 73320, Note_on_c, 0, 72, 100
2, 73374, Note_on_c, 0, 81, 0
2, 73380, Note_on_c, 0, 79, 100
2, 73428, Note_on_c, 0, 72, 0
2, 73434, Note_on_c, 0, 79, 0
2, 73440, Note_on_c, 0, 81, 100
2, 73440, Note_on_c, 0, 72, 100
2, 73440, Note_on_c, 0, 77, 100
2, 73548, Note_on_c, 0, 77, 0
2, 73548, Note_on_c, 0, 72, 0
2, 73560, Note_on_c, 0, 74, 100
2, 73602, Note_on_c, 0, 81, 0
2, 73620, Note_on_c, 0, 82, 100
2, 73668, Note_on_c, 0, 74, 0
2, 73674, Note_on_c, 0, 82, 0
2, 73680, Note_on_c, 0, 79, 100
2, 73680, Note_on_c, 0, 72, 100
2, 73788, Note_on_c, 0, 72, 0
2, 73800, Note_on_c, 0, 70, 100
2, 73842, Note_on_c, 0, 79, 0
2, 73860, Note_on_c, 0, 77, 100
2, 73908, Note_on_c, 0, 70, 0
2, 73914, Note_on_c, 0, 77, 0
2, 73920, Note_on_c, 0, 77, 100
2, 73920, Note_on_c, 0, 69, 100
2, 73974, Note_on_c, 0, 77, 0
2, 73980, Note_on_c, 0, 76, 100
2, 74028, Note_on_c, 0, 69, 0
2, 74034, Note_on_c, 0, 76, 0
2, 74040, Note_on_c, 0, 77, 100
2, 74094, Note_on_c, 0, 77, 0
2, 74100, Note_on_c, 0, 79, 100
2, 74154, Note_on_c, 0, 79, 0
2, 74160, Note_on_c, 0, 77, 100
2, 74214, Note_on_c, 0, 77, 0
2, 74220, Note_on_c, 0, 79, 100
2, 74274, Note_on_c, 0, 79, 0
2, 74280, Note_on_c, 0, 76, 100
2, 74334, Note_on_c, 0, 76, 0
2, 74340, Note_on_c, 0, 79, 100
2, 74394, Note_on_c, 0, 79, 0
2, 74400, Note_on_c, 0, 77, 100
2, 74454, Note_on_c, 0, 77, 0
2, 74460, Note_on_c, 0, 81, 100
2, 74514, Note_on_c, 0, 81, 0
2, 74520, Note_on_c, 0, 79, 100
2, 74574, Note_on_c, 0, 79, 0
2, 74580, Note_on_c, 0, 76, 100
2, 74634, Note_on_c, 0, 76, 0
2, 74640, Note_on_c, 0, 77, 100
2, 74694, Note_on_c, 0, 77, 0
2, 74700, Note_on_c, 0, 74, 100
2, 74754, Note_on_c, 0, 74, 0
2, 74760, Note_on_c, 0, 76, 100
2, 74814, Note_on_c, 0, 76, 0
2, 74820, Note_on_c, 0, 73, 100
2, 74874, Note_on_c, 0, 73, 0
2, 74880, Note_on_c, 0, 74, 100
2, 74934, Note_on_c, 0, 74, 0
2, 74940, Note_on_c, 0, 73, 100
2, 74994, Note_on_c, 0, 73, 0
2, 75000, Note_on_c, 0, 74, 100
2, 75054, Note_on_c, 0, 74, 0
2, 75060, Note_on_c, 0, 76, 100
2, 75114, Note_on_c, 0, 76, 0
2, 75120, Note_on_c, 0, 74, 100
2, 75174, Note_on_c, 0, 74, 0
2, 75180, Note_on_c, 0, 76, 100
2, 75234, Note_on_c, 0, 76, 0
2, 75240, Note_on_c, 0, 73, 100
2, 75294, Note_on_c, 0, 73, 0
2, 75300, Note_on_c, 0, 76, 100
2, 75354, Note_on_c, 0, 76, 0
2, 75360, Note_on_c, 0, 74, 100
2, 75414, Note_on_c, 0, 74, 0
2, 75420, Note_on_c, 0, 77, 100
2, 75474, Note_on_c, 0, 77, 0
2, 75480, Note_on_c, 0, 76, 100
2, 75534, Note_on_c, 0, 76, 0
2, 75540, Note_on_c, 0, 73, 100
2, 75594, Note_on_c, 0, 73, 0
2, 75600, Note_on_c, 0, 74, 100
2, 75654, Note_on_c, 0, 74, 0
2, 75660, Note_on_c, 0, 70, 100
2, 75714, Note_on_c, 0, 70, 0
2, 75720, Note_on_c, 0, 72, 100
2, 75774, Note_on_c, 0, 72, 0
2, 75780, Note_on_c, 0, 69, 100
2, 75834, Note_on_c, 0, 69, 0
2, 75840, Note_on_c, 0, 70, 100
2, 76134, Note_on_c, 0, 70, 0
2, 76140, Note_on_c, 0, 79, 100
2, 76194, Note_on_c, 0, 79, 0
2, 76200, Note_on_c, 0, 76, 100
2, 76254, Note_on_c, 0, 76, 0
2, 76260, Note_on_c, 0, 72, 100
2, 76314, Note_on_c, 0, 72, 0
2, 76320, Note_on_c, 0, 69, 100
2, 76614, Note_on_c, 0, 69, 0
2, 76620, Note_on_c, 0, 77, 100
2, 76674, Note_on_c, 0, 77, 0
2, 76680, Note_on_c, 0, 74, 100
2, 76734, Note_on_c, 0, 74, 0
2, 76740, Note_on_c, 0, 69, 100
2, 76794, Note_on_c, 0, 69, 0
2, 76800, Note_on_c, 0, 67, 100
2, 77094, Note_on_c, 0, 67, 0
2, 77100, Note_on_c, 0, 76, 100
2, 77154, Note_on_c, 0, 76, 0
2, 77160, Note_on_c, 0, 73, 100
2, 77214, Note_on_c, 0, 73, 0
2, 77220, Note_on_c, 0, 67, 100
2, 77274, Note_on_c, 0, 67, 0
2, 77280, Note_on_c, 0, 65, 100
2, 77574, Note_on_c, 0, 65, 0
2, 77580, Note_on_c, 0, 69, 100
2, 77634, Note_on_c, 0, 69, 0
2, 77640, Note_on_c, 0, 74, 100
2, 77694, Note_on_c, 0, 74, 0
2, 77700, Note_on_c, 0, 77, 100
2, 77754, Note_on_c, 0, 77, 0
2, 77760, Note_on_c, 0, 76, 100
2, 78054, Note_on_c, 0, 76, 0
2, 78060, Note_on_c, 0, 74, 100
2, 78114, Note_on_c, 0, 74, 0
2, 78120, Note_on_c, 0, 72, 100
2, 78174, Note_on_c, 0, 72, 0
2, 78180, Note_on_c, 0, 71, 100
2, 78234, Note_on_c, 0, 71, 0
2, 78240, Note_on_c, 0, 69, 100
2, 78456, Note_on_c, 0, 69, 0
2, 78480, Note_on_c, 0, 74, 100
2, 78774, Note_on_c, 0, 74, 0
2, 78780, Note_on_c, 0, 72, 100
2, 78834, Note_on_c, 0, 72, 0
2, 78840, Note_on_c, 0, 71, 100
2, 78894, Note_on_c, 0, 71, 0
2, 78900, Note_on_c, 0, 72, 100
2, 78954, Note_on_c, 0, 72, 0
2, 78960, Note_on_c, 0, 74, 100
2, 79014, Note_on_c, 0, 74, 0
2, 79020, Note_on_c, 0, 76, 100
2, 79074, Note_on_c, 0, 76, 0
2, 79080, Note_on_c, 0, 77, 100
2, 79134, Note_on_c, 0, 77, 0
2, 79140, Note_on_c, 0, 76, 100
2, 79194, Note_on_c, 0, 76, 0
2, 79200, Note_on_c, 0, 74, 100
2, 79254, Note_on_c, 0, 74, 0
2, 79260, Note_on_c, 0, 72, 100
2, 79314, Note_on_c, 0, 72, 0
2, 79320, Note_on_c, 0, 71, 100
2, 79374, Note_on_c, 0, 71, 0
2, 79380, Note_on_c, 0, 72, 100
2, 79434, Note_on_c, 0, 72, 0
2, 79440, Note_on_c, 0, 74, 100
2, 79494, Note_on_c, 0, 74, 0
2, 79500, Note_on_c, 0, 77, 100
2, 79554, Note_on_c, 0, 77, 0
2, 79560, Note_on_c, 0, 76, 100
2, 79614, Note_on_c, 0, 76, 0
2, 79620, Note_on_c, 0, 74, 100
2, 79674, Note_on_c, 0, 74, 0
2, 79680, Note_on_c, 0, 72, 100
2, 79734, Note_on_c, 0, 72, 0
2, 79740, Note_on_c, 0, 71, 100
2, 79794, Note_on_c, 0, 71, 0
2, 79800, Note_on_c, 0, 69, 100
2, 79854, Note_on_c, 0, 69, 0
2, 79860, Note_on_c, 0, 71, 100
2, 79914, Note_on_c, 0, 71, 0
2, 79920, Note_on_c, 0, 72, 100
2, 79974, Note_on_c, 0, 72, 0
2, 79980, Note_on_c, 0, 76, 100
2, 80034, Note_on_c, 0, 76, 0
2, 80040, Note_on_c, 0, 74, 100
2, 80094, Note_on_c, 0, 74, 0
2, 80100, Note_on_c, 0, 72, 100
2, 80154, Note_on_c, 0, 72, 0
2, 80160, Note_on_c, 0, 71, 100
2, 80214, Note_on_c, 0, 71, 0
2, 80220, Note_on_c, 0, 69, 100
2, 80274, Note_on_c, 0, 69, 0
2, 80280, Note_on_c, 0, 68, 100
2, 80334, Note_on_c, 0, 68, 0
2, 80340, Note_on_c, 0, 69, 100
2, 80394, Note_on_c, 0, 69, 0
2, 80400, Note_on_c, 0, 71, 100
2, 80454, Note_on_c, 0, 71, 0
2, 80460, Note_on_c, 0, 77, 100
2, 80514, Note_on_c, 0, 77, 0
2, 80520, Note_on_c, 0, 76, 100
2, 80574, Note_on_c, 0, 76, 0
2, 80580, Note_on_c, 0, 74, 100
2, 80634, Note_on_c, 0, 74, 0
2, 80640, Note_on_c, 0, 72, 100
2, 80694, Note_on_c, 0, 72, 0
2, 80700, Note_on_c, 0, 74, 100
2, 80754, Note_on_c, 0, 74, 0
2, 80760, Note_on_c, 0, 76, 100
2, 80814, Note_on_c, 0, 76, 0
2, 80820, Note_on_c, 0, 72, 100
2, 80874, Note_on_c, 0, 72, 0
2, 80880, Note_on_c, 0, 69, 100
2, 80934, Note_on_c, 0, 69, 0
2, 80940, Note_on_c, 0, 71, 100
2, 80994, Note_on_c, 0, 71, 0
2, 81000, Note_on_c, 0, 72, 100
2, 81054, Note_on_c, 0, 72, 0
2, 81060, Note_on_c, 0, 69, 100
2, 81114, Note_on_c, 0, 69, 0
2, 81120, Note_on_c, 0, 66, 100
2, 81174, Note_on_c, 0, 66, 0
2, 81180, Note_on_c, 0, 67, 100
2, 81234, Note_on_c, 0, 67, 0
2, 81240, Note_on_c, 0, 69, 100
2, 81294, Note_on_c, 0, 69, 0
2, 81300, Note_on_c, 0, 66, 100
2, 81354, Note_on_c, 0, 66, 0
2, 81360, Note_on_c, 0, 62, 100
2, 81414, Note_on_c, 0, 62, 0
2, 81420, Note_on_c, 0, 64, 100
2, 81474, Note_on_c, 0, 64, 0
2, 81480, Note_on_c, 0, 66, 100
2, 81534, Note_on_c, 0, 66, 0
2, 81540, Note_on_c, 0, 62, 100
2, 81594, Note_on_c, 0, 62, 0
2, 81600, Note_on_c, 0, 59, 100
2, 81708, Note_on_c, 0, 59, 0
2, 81720, Note_on_c, 0, 78, 100
2, 81828, Note_on_c, 0, 78, 0
2, 81840, Note_on_c, 0, 78, 100
2, 81948, Note_on_c, 0, 78, 0
2, 81960, Note_on_c, 0, 71, 100
2, 82068, Note_on_c, 0, 71, 0
2, 82200, Note_on_c, 0, 83, 100
2, 82308, Note_on_c, 0, 83, 0
2, 82320, Note_on_c, 0, 83, 100
2, 82428, Note_on_c, 0, 83, 0
2, 82440, Note_on_c, 0, 76, 100
2, 82548, Note_on_c, 0, 76, 0
2, 82560, Note_on_c, 0, 76, 100
2, 82668, Note_on_c, 0, 76, 0
2, 82680, Note_on_c, 0, 69, 100
2, 82788, Note_on_c, 0, 69, 0
2, 82920, Note_on_c, 0, 81, 100
2, 83028, Note_on_c, 0, 81, 0
2, 83040, Note_on_c, 0, 81, 100
2, 83148, Note_on_c, 0, 81, 0
2, 83160, Note_on_c, 0, 75, 100
2, 83268, Note_on_c, 0, 75, 0
2, 83340, Note_on_c, 0, 75, 100
2, 83394, Note_on_c, 0, 75, 0
2, 83400, Note_on_c, 0, 78, 100
2, 83454, Note_on_c, 0, 78, 0
2, 83460, Note_on_c, 0, 81, 100
2, 83514, Note_on_c, 0, 81, 0
2, 83520, Note_on_c, 0, 76, 100
2, 83574, Note_on_c, 0, 76, 0
2, 83580, Note_on_c, 0, 78, 100
2, 83634, Note_on_c, 0, 78, 0
2, 83640, Note_on_c, 0, 79, 100
2, 83694, Note_on_c, 0, 79, 0
2, 83700, Note_on_c, 0, 76, 100
2, 83754, Note_on_c, 0, 76, 0
2, 83760, Note_on_c, 0, 71, 100
2, 83814, Note_on_c, 0, 71, 0
2, 83820, Note_on_c, 0, 76, 100
2, 83874, Note_on_c, 0, 76, 0
2, 83880, Note_on_c, 0, 79, 100
2, 83934, Note_on_c, 0, 79, 0
2, 83940, Note_on_c, 0, 83, 100
2, 83994, Note_on_c, 0, 83, 0
2, 84000, Note_on_c, 0, 78, 100
2, 84054, Note_on_c, 0, 78, 0
2, 84060, Note_on_c, 0, 79, 100
2, 84114, Note_on_c, 0, 79, 0
2, 84120, Note_on_c, 0, 81, 100
2, 84174, Note_on_c, 0, 81, 0
2, 84180, Note_on_c, 0, 78, 100
2, 84234, Note_on_c, 0, 78, 0
2, 84240, Note_on_c, 0, 75, 100
2, 84294, Note_on_c, 0, 75, 0
2, 84300, Note_on_c, 0, 76, 100
2, 84354, Note_on_c, 0, 76, 0
2, 84360, Note_on_c, 0, 78, 100
2, 84414, Note_on_c, 0, 78, 0
2, 84420, Note_on_c, 0, 75, 100
2, 84474, Note_on_c, 0, 75, 0
2, 84480, Note_on_c, 0, 71, 100
2, 84480, Note_on_c, 0, 74, 100
2, 84480, Note_on_c, 0, 76, 100
2, 84588, Note_on_c, 0, 76, 0
2, 84588, Note_on_c, 0, 74, 0
2, 84588, Note_on_c, 0, 71, 0
2, 84600, Note_on_c, 0, 71, 100
2, 84600, Note_on_c, 0, 74, 100
2, 84600, Note_on_c, 0, 76, 100
2, 84708, Note_on_c, 0, 76, 0
2, 84708, Note_on_c, 0, 74, 0
2, 84708, Note_on_c, 0, 71, 0
2, 84720, Note_on_c, 0, 71, 100
2, 84720, Note_on_c, 0, 74, 100
2, 84720, Note_on_c, 0, 76, 100
2, 84828, Note_on_c, 0, 76, 0
2, 84828, Note_on_c, 0, 74, 0
2, 84828, Note_on_c, 0, 71, 0
2, 84840, Note_on_c, 0, 71, 100
2, 84840, Note_on_c, 0, 74, 100
2, 84840, Note_on_c, 0, 76, 100
2, 84948, Note_on_c, 0, 76, 0
2, 84948, Note_on_c, 0, 74, 0
2, 84948, Note_on_c, 0, 71, 0
2, 84960, Note_on_c, 0, 71, 100
2, 84960, Note_on_c, 0, 74, 100
2, 84960, Note_on_c, 0, 76, 100
2, 85068, Note_on_c, 0, 76, 0
2, 85068, Note_on_c, 0, 74, 0
2, 85068, Note_on_c, 0, 71, 0
2, 85080, Note_on_c, 0, 71, 100
2, 85080, Note_on_c, 0, 74, 100
2, 85080, Note_on_c, 0, 76, 100
2, 85188, Note_on_c, 0, 76, 0
2, 85188, Note_on_c, 0, 74, 0
2, 85188, Note_on_c, 0, 71, 0
2, 85200, Note_on_c, 0, 69, 100
2, 85200, Note_on_c, 0, 72, 100
2, 85200, Note_on_c, 0, 76, 100
2, 85200, Note_on_c, 0, 81, 100
2, 85308, Note_on_c, 0, 81, 0
2, 85308, Note_on_c, 0, 69, 0
2, 85308, Note_on_c, 0, 72, 0
2, 85308, Note_on_c, 0, 76, 0
2, 85320, Note_on_c, 0, 69, 100
2, 85320, Note_on_c, 0, 72, 100
2, 85320, Note_on_c, 0, 76, 100
2, 85320, Note_on_c, 0, 81, 100
2, 85428, Note_on_c, 0, 81, 0
2, 85428, Note_on_c, 0, 69, 0
2, 85428, Note_on_c, 0, 72, 0
2, 85428, Note_on_c, 0, 76, 0
2, 85440, Note_on_c, 0, 81, 100
2, 85440, Note_on_c, 0, 69, 100
2, 85440, Note_on_c, 0, 71, 100
2, 85440, Note_on_c, 0, 78, 100
2, 85494, Note_on_c, 0, 81, 0
2, 85500, Note_on_c, 0, 84, 100
2, 85548, Note_on_c, 0, 69, 0
2, 85548, Note_on_c, 0, 78, 0
2, 85548, Note_on_c, 0, 71, 0
2, 85554, Note_on_c, 0, 84, 0
2, 85560, Note_on_c, 0, 83, 100
2, 85614, Note_on_c, 0, 83, 0
2, 85620, Note_on_c, 0, 81, 100
2, 85674, Note_on_c, 0, 81, 0
2, 85680, Note_on_c, 0, 79, 100
2, 85734, Note_on_c, 0, 79, 0
2, 85740, Note_on_c, 0, 78, 100
2, 85794, Note_on_c, 0, 78, 0
2, 85800, Note_on_c, 0, 76, 100
2, 85854, Note_on_c, 0, 76, 0
2, 85860, Note_on_c, 0, 75, 100
2, 85914, Note_on_c, 0, 75, 0
2, 85920, Note_on_c, 0, 76, 100
2, 85920, Note_on_c, 0, 71, 100
2, 86028, Note_on_c, 0, 71, 0
2, 86040, Note_on_c, 0, 72, 100
2, 86082, Note_on_c, 0, 76, 0
2, 86100, Note_on_c, 0, 78, 100
2, 86148, Note_on_c, 0, 72, 0
2, 86154, Note_on_c, 0, 78, 0
2, 86160, Note_on_c, 0, 78, 100
2, 86160, Note_on_c, 0, 71, 100
2, 86268, Note_on_c, 0, 71, 0
2, 86280, Note_on_c, 0, 69, 100
2, 86322, Note_on_c, 0, 78, 0
2, 86340, Note_on_c, 0, 76, 100
2, 86388, Note_on_c, 0, 69, 0
2, 86394, Note_on_c, 0, 76, 0
2, 86400, Note_on_c, 0, 67, 100
2, 86400, Note_on_c, 0, 76, 100
2, 86508, Note_on_c, 0, 76, 0
2, 86508, Note_on_c, 0, 67, 0
2, 86520, Note_on_c, 0, 71, 100
2, 86628, Note_on_c, 0, 71, 0
2, 86640, Note_on_c, 0, 76, 100
2, 86748, Note_on_c, 0, 76, 0
2, 86760, Note_on_c, 0, 71, 100
2, 86868, Note_on_c, 0, 71, 0
2, 86880, Note_on_c, 0, 76, 100
2, 86988, Note_on_c, 0, 76, 0
2, 87000, Note_on_c, 0, 74, 100
2, 87054, Note_on_c, 0, 74, 0
2, 87060, Note_on_c, 0, 72, 100
2, 87114, Note_on_c, 0, 72, 0
2, 87120, Note_on_c, 0, 71, 100
2, 87228, Note_on_c, 0, 71, 0
2, 87240, Note_on_c, 0, 73, 100
2, 87294, Note_on_c, 0, 73, 0
2, 87300, Note_on_c, 0, 74, 100
2, 87354, Note_on_c, 0, 74, 0
2, 87360, Note_on_c, 0, 76, 100
2, 87414, Note_on_c, 0, 76, 0
2, 87420, Note_on_c, 0, 74, 100
2, 87474, Note_on_c, 0, 74, 0
2, 87480, Note_on_c, 0, 73, 100
2, 87534, Note_on_c, 0, 73, 0
2, 87540, Note_on_c, 0, 74, 100
2, 87594, Note_on_c, 0, 74, 0
2, 87600, Note_on_c, 0, 76, 100
2, 87654, Note_on_c, 0, 76, 0
2, 87660, Note_on_c, 0, 74, 100
2, 87714, Note_on_c, 0, 74, 0
2, 87720, Note_on_c, 0, 73, 100
2, 87774, Note_on_c, 0, 73, 0
2, 87780, Note_on_c, 0, 74, 100
2, 87834, Note_on_c, 0, 74, 0
2, 87840, Note_on_c, 0, 76, 100
2, 87894, Note_on_c, 0, 76, 0
2, 87900, Note_on_c, 0, 74, 100
2, 87954, Note_on_c, 0, 74, 0
2, 87960, Note_on_c, 0, 73, 100
2, 88014, Note_on_c, 0, 73, 0
2, 88020, Note_on_c, 0, 74, 100
2, 88074, Note_on_c, 0, 74, 0
2, 88080, Note_on_c, 0, 76, 100
2, 88134, Note_on_c, 0, 76, 0
2, 88140, Note_on_c, 0, 74, 100
2, 88194, Note_on_c, 0, 74, 0
2, 88200, Note_on_c, 0, 73, 100
2, 88254, Note_on_c, 0, 73, 0
2, 88260, Note_on_c, 0, 71, 100
2, 88314, Note_on_c, 0, 71, 0
2, 88320, Note_on_c, 0, 69, 100
2, 89184, Note_on_c, 0, 69, 0
2, 89400, Note_on_c, 0, 67, 100
2, 89454, Note_on_c, 0, 67, 0
2, 89460, Note_on_c, 0, 69, 100
2, 89514, Note_on_c, 0, 69, 0
2, 89520, Note_on_c, 0, 71, 100
2, 89574, Note_on_c, 0, 71, 0
2, 89580, Note_on_c, 0, 72, 100
2, 89634, Note_on_c, 0, 72, 0
2, 89640, Note_on_c, 0, 74, 100
2, 89694, Note_on_c, 0, 74, 0
2, 89700, Note_on_c, 0, 72, 100
2, 89754, Note_on_c, 0, 72, 0
2, 89760, Note_on_c, 0, 71, 100
2, 89814, Note_on_c, 0, 71, 0
2, 89820, Note_on_c, 0, 69, 100
2, 89874, Note_on_c, 0, 69, 0
2, 89880, Note_on_c, 0, 67, 100
2, 89934, Note_on_c, 0, 67, 0
2, 89940, Note_on_c, 0, 69, 100
2, 89994, Note_on_c, 0, 69, 0
2, 90000, Note_on_c, 0, 71, 100
2, 90054, Note_on_c, 0, 71, 0
2, 90060, Note_on_c, 0, 72, 100
2, 90114, Note_on_c, 0, 72, 0
2, 90120, Note_on_c, 0, 74, 100
2, 90174, Note_on_c, 0, 74, 0
2, 90180, Note_on_c, 0, 72, 100
2, 90234, Note_on_c, 0, 72, 0
2, 90240, Note_on_c, 0, 70, 100
2, 91044, Note_on_c, 0, 70, 0
2, 91080, Note_on_c, 0, 67, 100
2, 91188, Note_on_c, 0, 67, 0
2, 91200, Note_on_c, 0, 72, 100
2, 91254, Note_on_c, 0, 72, 0
2, 91260, Note_on_c, 0, 74, 100
2, 91314, Note_on_c, 0, 74, 0
2, 91320, Note_on_c, 0, 72, 100
2, 91374, Note_on_c, 0, 72, 0
2, 91380, Note_on_c, 0, 70, 100
2, 91434, Note_on_c, 0, 70, 0
2, 91440, Note_on_c, 0, 68, 100
2, 91548, Note_on_c, 0, 68, 0
2, 91560, Note_on_c, 0, 65, 100
2, 91668, Note_on_c, 0, 65, 0
2, 91680, Note_on_c, 0, 68, 100
2, 91788, Note_on_c, 0, 68, 0
2, 91800, Note_on_c, 0, 72, 100
2, 91908, Note_on_c, 0, 72, 0
2, 91920, Note_on_c, 0, 78, 100
2, 92028, Note_on_c, 0, 78, 0
2, 92040, Note_on_c, 0, 81, 100
2, 92148, Note_on_c, 0, 81, 0
2, 92160, Note_on_c, 0, 79, 100
2, 92268, Note_on_c, 0, 79, 0
2, 92280, Note_on_c, 0, 74, 100
2, 92388, Note_on_c, 0, 74, 0
2, 92400, Note_on_c, 0, 79, 100
2, 92508, Note_on_c, 0, 79, 0
2, 92520, Note_on_c, 0, 74, 100
2, 92628, Note_on_c, 0, 74, 0
2, 92640, Note_on_c, 0, 79, 100
2, 92748, Note_on_c, 0, 79, 0
2, 92760, Note_on_c, 0, 77, 100
2, 92814, Note_on_c, 0, 77, 0
2, 92820, Note_on_c, 0, 76, 100
2, 92874, Note_on_c, 0, 76, 0
2, 92880, Note_on_c, 0, 74, 100
2, 92934, Note_on_c, 0, 74, 0
2, 92940, Note_on_c, 0, 81, 100
2, 92994, Note_on_c, 0, 81, 0
2, 93000, Note_on_c, 0, 79, 100
2, 93054, Note_on_c, 0, 79, 0
2, 93060, Note_on_c, 0, 77, 100
2, 93114, Note_on_c, 0, 77, 0
2, 93120, Note_on_c, 0, 76, 100
2, 93174, Note_on_c, 0, 76, 0
2, 93180, Note_on_c, 0, 77, 100
2, 93234, Note_on_c, 0, 77, 0
2, 93240, Note_on_c, 0, 79, 100
2, 93294, Note_on_c, 0, 79, 0
2, 93300, Note_on_c, 0, 77, 100
2, 93354, Note_on_c, 0, 77, 0
2, 93360, Note_on_c, 0, 76, 100
2, 93414, Note_on_c, 0, 76, 0
2, 93420, Note_on_c, 0, 77, 100
2, 93474, Note_on_c, 0, 77, 0
2, 93480, Note_on_c, 0, 79, 100
2, 93534, Note_on_c, 0, 79, 0
2, 93540, Note_on_c, 0, 77, 100
2, 93594, Note_on_c, 0, 77, 0
2, 93600, Note_on_c, 0, 76, 100
2, 93654, Note_on_c, 0, 76, 0
2, 93660, Note_on_c, 0, 77, 100
2, 93714, Note_on_c, 0, 77, 0
2, 93720, Note_on_c, 0, 79, 100
2, 93774, Note_on_c, 0, 79, 0
2, 93780, Note_on_c, 0, 81, 100
2, 93834, Note_on_c, 0, 81, 0
2, 93840, Note_on_c, 0, 74, 100
2, 93894, Note_on_c, 0, 74, 0
2, 93900, Note_on_c, 0, 76, 100
2, 93954, Note_on_c, 0, 76, 0
2, 93960, Note_on_c, 0, 77, 100
2, 94014, Note_on_c, 0, 77, 0
2, 94020, Note_on_c, 0, 79, 100
2, 94074, Note_on_c, 0, 79, 0
2, 94080, Note_on_c, 0, 76, 100
2, 94134, Note_on_c, 0, 76, 0
2, 94140, Note_on_c, 0, 77, 100
2, 94194, Note_on_c, 0, 77, 0
2, 94200, Note_on_c, 0, 79, 100
2, 94254, Note_on_c, 0, 79, 0
2, 94260, Note_on_c, 0, 81, 100
2, 94314, Note_on_c, 0, 81, 0
2, 94320, Note_on_c, 0, 71, 100
2, 94374, Note_on_c, 0, 71, 0
2, 94380, Note_on_c, 0, 72, 100
2, 94434, Note_on_c, 0, 72, 0
2, 94440, Note_on_c, 0, 74, 100
2, 94494, Note_on_c, 0, 74, 0
2, 94500, Note_on_c, 0, 76, 100
2, 94554, Note_on_c, 0, 76, 0
2, 94560, Note_on_c, 0, 72, 100
2, 94668, Note_on_c, 0, 72, 0
2, 94680, Note_on_c, 0, 79, 100
2, 94788, Note_on_c, 0, 79, 0
2, 94800, Note_on_c, 0, 76, 100
2, 94908, Note_on_c, 0, 76, 0
2, 94920, Note_on_c, 0, 70, 100
2, 95028, Note_on_c, 0, 70, 0
2, 95160, Note_on_c, 0, 72, 100
2, 95268, Note_on_c, 0, 72, 0
2, 95280, Note_on_c, 0, 69, 100
2, 95388, Note_on_c, 0, 69, 0
2, 95400, Note_on_c, 0, 65, 100
2, 95508, Note_on_c, 0, 65, 0
2, 95640, Note_on_c, 0, 81, 100
2, 95748, Note_on_c, 0, 81, 0
2, 95760, Note_on_c, 0, 78, 100
2, 95868, Note_on_c, 0, 78, 0
2, 95880, Note_on_c, 0, 74, 100
2, 95988, Note_on_c, 0, 74, 0
2, 96120, Note_on_c, 0, 74, 100
2, 96228, Note_on_c, 0, 74, 0
2, 96240, Note_on_c, 0, 71, 100
2, 96348, Note_on_c, 0, 71, 0
2, 96360, Note_on_c, 0, 67, 100
2, 96468, Note_on_c, 0, 67, 0
2, 96600, Note_on_c, 0, 83, 100
2, 96708, Note_on_c, 0, 83, 0
2, 96720, Note_on_c, 0, 80, 100
2, 96828, Note_on_c, 0, 80, 0
2, 96840, Note_on_c, 0, 76, 100
2, 96948, Note_on_c, 0, 76, 0
2, 97080, Note_on_c, 0, 76, 100
2, 97188, Note_on_c, 0, 76, 0
2, 97200, Note_on_c, 0, 72, 100
2, 97308, Note_on_c, 0, 72, 0
2, 97320, Note_on_c, 0, 69, 100
2, 97428, Note_on_c, 0, 69, 0
2, 97560, Note_on_c, 0, 81, 100
2, 97668, Note_on_c, 0, 81, 0
2, 97680, Note_on_c, 0, 77, 100
2, 97788, Note_on_c, 0, 77, 0
2, 97800, Note_on_c, 0, 74, 100
2, 97908, Note_on_c, 0, 74, 0
2, 98040, Note_on_c, 0, 74, 100
2, 98148, Note_on_c, 0, 74, 0
2, 98160, Note_on_c, 0, 71, 100
2, 98268, Note_on_c, 0, 71, 0
2, 98280, Note_on_c, 0, 67, 100
2, 98388, Note_on_c, 0, 67, 0
2, 98520, Note_on_c, 0, 79, 100
2, 98628, Note_on_c, 0, 79, 0
2, 98640, Note_on_c, 0, 76, 100
2, 98748, Note_on_c, 0, 76, 0
2, 98760, Note_on_c, 0, 72, 100
2, 98868, Note_on_c, 0, 72, 0
2, 99000, Note_on_c, 0, 72, 100
2, 99108, Note_on_c, 0, 72, 0
2, 99120, Note_on_c, 0, 69, 100
2, 99228, Note_on_c, 0, 69, 0
2, 99240, Note_on_c, 0, 65, 100
2, 99348, Note_on_c, 0, 65, 0
2, 99420, Note_on_c, 0, 71, 100
2, 99474, Note_on_c, 0, 71, 0
2, 99480, Note_on_c, 0, 74, 100
2, 99534, Note_on_c, 0, 74, 0
2, 99540, Note_on_c, 0, 77, 100
2, 99594, Note_on_c, 0, 77, 0
2, 99600, Note_on_c, 0, 83, 100
2, 99654, Note_on_c, 0, 83, 0
2, 99660, Note_on_c, 0, 81, 100
2, 99714, Note_on_c, 0, 81, 0
2, 99720, Note_on_c, 0, 80, 100
2, 99774, Note_on_c, 0, 80, 0
2, 99780, Note_on_c, 0, 78, 100
2, 99834, Note_on_c, 0, 78, 0
2, 99840, Note_on_c, 0, 80, 100
2, 100272, Note_on_c, 0, 80, 0
2, 100320, Note_on_c, 0, 79, 100
2, 100752, Note_on_c, 0, 79, 0
2, 100800, Note_on_c, 0, 78, 100
2, 101232, Note_on_c, 0, 78, 0
2, 101280, Note_on_c, 0, 77, 100
2, 101712, Note_on_c, 0, 77, 0
2, 101760, Note_on_c, 0, 76, 100
2, 102192, Note_on_c, 0, 76, 0
2, 102240, Note_on_c, 0, 75, 100
2, 102294, Note_on_c, 0, 75, 0
2, 102300, Note_on_c, 0, 84, 100
2, 102327, Note_on_c, 0, 84, 0
2, 102330, Note_on_c, 0, 82, 100
2, 102357, Note_on_c, 0, 82, 0
2, 102360, Note_on_c, 0, 81, 100
2, 102414, Note_on_c, 0, 81, 0
2, 102420, Note_on_c, 0, 82, 100
2, 102447, Note_on_c, 0, 82, 0
2, 102450, Note_on_c, 0, 84, 100
2, 102477, Note_on_c, 0, 84, 0
2, 102480, Note_on_c, 0, 78, 100
2, 102534, Note_on_c, 0, 78, 0
2, 102540, Note_on_c, 0, 81, 100
2, 102567, Note_on_c, 0, 81, 0
2, 102570, Note_on_c, 0, 79, 100
2, 102597, Note_on_c, 0, 79, 0
2, 102600, Note_on_c, 0, 78, 100
2, 102654, Note_on_c, 0, 78, 0
2, 102660, Note_on_c, 0, 79, 100
2, 102687, Note_on_c, 0, 79, 0
2, 102690, Note_on_c, 0, 81, 100
2, 102717, Note_on_c, 0, 81, 0
2, 102720, Note_on_c, 0, 72, 100
2, 102774, Note_on_c, 0, 72, 0
2, 102780, Note_on_c, 0, 75, 100
2, 102807, Note_on_c, 0, 75, 0
2, 102810, Note_on_c, 0, 74, 100
2, 102837, Note_on_c, 0, 74, 0
2, 102840, Note_on_c, 0, 72, 100
2, 102894, Note_on_c, 0, 72, 0
2, 102900, Note_on_c, 0, 74, 100
2, 102927, Note_on_c, 0, 74, 0
2, 102930, Note_on_c, 0, 75, 100
2, 102957, Note_on_c, 0, 75, 0
2, 102960, Note_on_c, 0, 69, 100
2, 103014, Note_on_c, 0, 69, 0
2, 103020, Note_on_c, 0, 72, 100
2, 103047, Note_on_c, 0, 72, 0
2, 103050, Note_on_c, 0, 70, 100
2, 103077, Note_on_c, 0, 70, 0
2, 103080, Note_on_c, 0, 69, 100
2, 103134, Note_on_c, 0, 69, 0
2, 103140, Note_on_c, 0, 70, 100
2, 103167, Note_on_c, 0, 70, 0
2, 103170, Note_on_c, 0, 72, 100
2, 103197, Note_on_c, 0, 72, 0
2, 103200, Note_on_c, 0, 66, 100
2, 103254, Note_on_c, 0, 66, 0
2, 103260, Note_on_c, 0, 62, 100
2, 103314, Note_on_c, 0, 62, 0
2, 103320, Note_on_c, 0, 66, 100
2, 103374, Note_on_c, 0, 66, 0
2, 103380, Note_on_c, 0, 69, 100
2, 103434, Note_on_c, 0, 69, 0
2, 103440, Note_on_c, 0, 74, 100
2, 103494, Note_on_c, 0, 74, 0
2, 103500, Note_on_c, 0, 72, 100
2, 103554, Note_on_c, 0, 72, 0
2, 103560, Note_on_c, 0, 71, 100
2, 103614, Note_on_c, 0, 71, 0
2, 103620, Note_on_c, 0, 69, 100
2, 103674, Note_on_c, 0, 69, 0
2, 103680, Note_on_c, 0, 71, 100
2, 103788, Note_on_c, 0, 71, 0
2, 104700, Note_on_c, 0, 67, 100
2, 104754, Note_on_c, 0, 67, 0
2, 104760, Note_on_c, 0, 71, 100
2, 104814, Note_on_c, 0, 71, 0
2, 104820, Note_on_c, 0, 74, 100
2, 104874, Note_on_c, 0, 74, 0
2, 104880, Note_on_c, 0, 79, 100
2, 104934, Note_on_c, 0, 79, 0
2, 104940, Note_on_c, 0, 77, 100
2, 104994, Note_on_c, 0, 77, 0
2, 105000, Note_on_c, 0, 76, 100
2, 105054, Note_on_c, 0, 76, 0
2, 105060, Note_on_c, 0, 74, 100
2, 105114, Note_on_c, 0, 74, 0
2, 105120, Note_on_c, 0, 76, 100
2, 105228, Note_on_c, 0, 76, 0
2, 106140, Note_on_c, 0, 60, 100
2, 106194, Note_on_c, 0, 60, 0
2, 106200, Note_on_c, 0, 64, 100
2, 106254, Note_on_c, 0, 64, 0
2, 106260, Note_on_c, 0, 67, 100
2, 106314, Note_on_c, 0, 67, 0
2, 106320, Note_on_c, 0, 72, 100
2, 106374, Note_on_c, 0, 72, 0
2, 106380, Note_on_c, 0, 70, 100
2, 106434, Note_on_c, 0, 70, 0
2, 106440, Note_on_c, 0, 69, 100
2, 106494, Note_on_c, 0, 69, 0
2, 106500, Note_on_c, 0, 67, 100
2, 106554, Note_on_c, 0, 67, 0
2, 106560, Note_on_c, 0, 69, 100
2, 106614, Note_on_c, 0, 69, 0
2, 106620, Note_on_c, 0, 67, 100
2, 106674, Note_on_c, 0, 67, 0
2, 106680, Note_on_c, 0, 65, 100
2, 106734, Note_on_c, 0, 65, 0
2, 106740, Note_on_c, 0, 64, 100
2, 106794, Note_on_c, 0, 64, 0
2, 106800, Note_on_c, 0, 74, 100
2, 106854, Note_on_c, 0, 74, 0
2, 106860, Note_on_c, 0, 72, 100
2, 106914, Note_on_c, 0, 72, 0
2, 106920, Note_on_c, 0, 71, 100
2, 106974, Note_on_c, 0, 71, 0
2, 106980, Note_on_c, 0, 69, 100
2, 107034, Note_on_c, 0, 69, 0
2, 107040, Note_on_c, 0, 71, 100
2, 107094, Note_on_c, 0, 71, 0
2, 107100, Note_on_c, 0, 69, 100
2, 107154, Note_on_c, 0, 69, 0
2, 107160, Note_on_c, 0, 67, 100
2, 107214, Note_on_c, 0, 67, 0
2, 107220, Note_on_c, 0, 65, 100
2, 107274, Note_on_c, 0, 65, 0
2, 107280, Note_on_c, 0, 76, 100
2, 107334, Note_on_c, 0, 76, 0
2, 107340, Note_on_c, 0, 74, 100
2, 107394, Note_on_c, 0, 74, 0
2, 107400, Note_on_c, 0, 72, 100
2, 107454, Note_on_c, 0, 72, 0
2, 107460, Note_on_c, 0, 71, 100
2, 107514, Note_on_c, 0, 71, 0
2, 107520, Note_on_c, 0, 72, 100
2, 107574, Note_on_c, 0, 72, 0
2, 107580, Note_on_c, 0, 71, 100
2, 107634, Note_on_c, 0, 71, 0
2, 107640, Note_on_c, 0, 69, 100
2, 107694, Note_on_c, 0, 69, 0
2, 107700, Note_on_c, 0, 67, 100
2, 107754, Note_on_c, 0, 67, 0
2, 107760, Note_on_c, 0, 77, 100
2, 107814, Note_on_c, 0, 77, 0
2, 107820, Note_on_c, 0, 76, 100
2, 107874, Note_on_c, 0, 76, 0
2, 107880, Note_on_c, 0, 74, 100
2, 107934, Note_on_c, 0, 74, 0
2, 107940, Note_on_c, 0, 72, 100
2, 107994, Note_on_c, 0, 72, 0
2, 108000, Note_on_c, 0, 74, 100
2, 108054, Note_on_c, 0, 74, 0
2, 108060, Note_on_c, 0, 72, 100
2, 108114, Note_on_c, 0, 72, 0
2, 108120, Note_on_c, 0, 71, 100
2, 108174, Note_on_c, 0, 71, 0
2, 108180, Note_on_c, 0, 69, 100
2, 108234, Note_on_c, 0, 69, 0
2, 108240, Note_on_c, 0, 79, 100
2, 108294, Note_on_c, 0, 79, 0
2, 108300, Note_on_c, 0, 77, 100
2, 108354, Note_on_c, 0, 77, 0
2, 108360, Note_on_c, 0, 76, 100
2, 108414, Note_on_c, 0, 76, 0
2, 108420, Note_on_c, 0, 74, 100
2, 108474, Note_on_c, 0, 74, 0
2, 108480, Note_on_c, 0, 76, 100
2, 108534, Note_on_c, 0, 76, 0
2, 108540, Note_on_c, 0, 72, 100
2, 108594, Note_on_c, 0, 72, 0
2, 108600, Note_on_c, 0, 76, 100
2, 108654, Note_on_c, 0, 76, 0
2, 108660, Note_on_c, 0, 79, 100
2, 108714, Note_on_c, 0, 79, 0
2, 108720, Note_on_c, 0, 84, 100
2, 108774, Note_on_c, 0, 84, 0
2, 108780, Note_on_c, 0, 82, 100
2, 108834, Note_on_c, 0, 82, 0
2, 108840, Note_on_c, 0, 81, 100
2, 108894, Note_on_c, 0, 81, 0
2, 108900, Note_on_c, 0, 79, 100
2, 108954, Note_on_c, 0, 79, 0
2, 108960, Note_on_c, 0, 81, 100
2, 109014, Note_on_c, 0, 81, 0
2, 109020, Note_on_c, 0, 79, 100
2, 109074, Note_on_c, 0, 79, 0
2, 109080, Note_on_c, 0, 77, 100
2, 109134, Note_on_c, 0, 77, 0
2, 109140, Note_on_c, 0, 76, 100
2, 109194, Note_on_c, 0, 76, 0
2, 109200, Note_on_c, 0, 77, 100
2, 109254, Note_on_c, 0, 77, 0
2, 109260, Note_on_c, 0, 76, 100
2, 109314, Note_on_c, 0, 76, 0
2, 109320, Note_on_c, 0, 74, 100
2, 109374, Note_on_c, 0, 74, 0
2, 109380, Note_on_c, 0, 72, 100
2, 109434, Note_on_c, 0, 72, 0
2, 109440, Note_on_c, 0, 71, 100
2, 109494, Note_on_c, 0, 71, 0
2, 109500, Note_on_c, 0, 67, 100
2, 109554, Note_on_c, 0, 67, 0
2, 109560, Note_on_c, 0, 71, 100
2, 109614, Note_on_c, 0, 71, 0
2, 109620, Note_on_c, 0, 74, 100
2, 109674, Note_on_c, 0, 74, 0
2, 109680, Note_on_c, 0, 79, 100
2, 109734, Note_on_c, 0, 79, 0
2, 109740, Note_on_c, 0, 77, 100
2, 109794, Note_on_c, 0, 77, 0
2, 109800, Note_on_c, 0, 76, 100
2, 109854, Note_on_c, 0, 76, 0
2, 109860, Note_on_c, 0, 74, 100
2, 109914, Note_on_c, 0, 74, 0
2, 109920, Note_on_c, 0, 76, 100
2, 109974, Note_on_c, 0, 76, 0
2, 109980, Note_on_c, 0, 67, 100
2, 110034, Note_on_c, 0, 67, 0
2, 110040, Note_on_c, 0, 72, 100
2, 110094, Note_on_c, 0, 72, 0
2, 110100, Note_on_c, 0, 76, 100
2, 110154, Note_on_c, 0, 76, 0
2, 110160, Note_on_c, 0, 77, 100
2, 110214, Note_on_c, 0, 77, 0
2, 110220, Note_on_c, 0, 76, 100
2, 110274, Note_on_c, 0, 76, 0
2, 110280, Note_on_c, 0, 74, 100
2, 110334, Note_on_c, 0, 74, 0
2, 110340, Note_on_c, 0, 72, 100
2, 110394, Note_on_c, 0, 72, 0
2, 110400, Note_on_c, 0, 74, 100
2, 110454, Note_on_c, 0, 74, 0
2, 110460, Note_on_c, 0, 67, 100
2, 110514, Note_on_c, 0, 67, 0
2, 110520, Note_on_c, 0, 71, 100
2, 110574, Note_on_c, 0, 71, 0
2, 110580, Note_on_c, 0, 74, 100
2, 110634, Note_on_c, 0, 74, 0
2, 110640, Note_on_c, 0, 76, 100
2, 110694, Note_on_c, 0, 76, 0
2, 110700, Note_on_c, 0, 74, 100
2, 110754, Note_on_c, 0, 74, 0
2, 110760, Note_on_c, 0, 72, 100
2, 110814, Note_on_c, 0, 72, 0
2, 110820, Note_on_c, 0, 71, 100
2, 110874, Note_on_c, 0, 71, 0
2, 110880, Note_on_c, 0, 72, 100
2, 110934, Note_on_c, 0, 72, 0
2, 110940, Note_on_c, 0, 66, 100
2, 110994, Note_on_c, 0, 66, 0
2, 111000, Note_on_c, 0, 69, 100
2, 111054, Note_on_c, 0, 69, 0
2, 111060, Note_on_c, 0, 72, 100
2, 111114, Note_on_c, 0, 72, 0
2, 111120, Note_on_c, 0, 74, 100
2, 111174, Note_on_c, 0, 74, 0
2, 111180, Note_on_c, 0, 72, 100
2, 111234, Note_on_c, 0, 72, 0
2, 111240, Note_on_c, 0, 71, 100
2, 111294, Note_on_c, 0, 71, 0
2, 111300, Note_on_c, 0, 69, 100
2, 111354, Note_on_c, 0, 69, 0
2, 111360, Note_on_c, 0, 71, 100
2, 111414, Note_on_c, 0, 71, 0
2, 111420, Note_on_c, 0, 69, 100
2, 111474, Note_on_c, 0, 69, 0
2, 111480, Note_on_c, 0, 67, 100
2, 111534, Note_on_c, 0, 67, 0
2, 111540, Note_on_c, 0, 69, 100
2, 111594, Note_on_c, 0, 69, 0
2, 111600, Note_on_c, 0, 71, 100
2, 111654, Note_on_c, 0, 71, 0
2, 111660, Note_on_c, 0, 72, 100
2, 111714, Note_on_c, 0, 72, 0
2, 111720, Note_on_c, 0, 74, 100
2, 111774, Note_on_c, 0, 74, 0
2, 111780, Note_on_c, 0, 76, 100
2, 111834, Note_on_c, 0, 76, 0
2, 111840, Note_on_c, 0, 77, 100
2, 111894, Note_on_c, 0, 77, 0
2, 111900, Note_on_c, 0, 74, 100
2, 111954, Note_on_c, 0, 74, 0
2, 111960, Note_on_c, 0, 71, 100
2, 112014, Note_on_c, 0, 71, 0
2, 112020, Note_on_c, 0, 74, 100
2, 112074, Note_on_c, 0, 74, 0
2, 112080, Note_on_c, 0, 67, 100
2, 112134, Note_on_c, 0, 67, 0
2, 112140, Note_on_c, 0, 71, 100
2, 112194, Note_on_c, 0, 71, 0
2, 112200, Note_on_c, 0, 74, 100
2, 112254, Note_on_c, 0, 74, 0
2, 112260, Note_on_c, 0, 77, 100
2, 112314, Note_on_c, 0, 77, 0
2, 112320, Note_on_c, 0, 76, 100
2, 112374, Note_on_c, 0, 76, 0
2, 112380, Note_on_c, 0, 72, 100
2, 112434, Note_on_c, 0, 72, 0
2, 112440, Note_on_c, 0, 74, 100
2, 112494, Note_on_c, 0, 74, 0
2, 112500, Note_on_c, 0, 76, 100
2, 112554, Note_on_c, 0, 76, 0
2, 112560, Note_on_c, 0, 77, 100
2, 112614, Note_on_c, 0, 77, 0
2, 112620, Note_on_c, 0, 79, 100
2, 112674, Note_on_c, 0, 79, 0
2, 112680, Note_on_c, 0, 81, 100
2, 112734, Note_on_c, 0, 81, 0
2, 112740, Note_on_c, 0, 83, 100
2, 112794, Note_on_c, 0, 83, 0
2, 112800, Note_on_c, 0, 84, 100
2, 112854, Note_on_c, 0, 84, 0
2, 112860, Note_on_c, 0, 81, 100
2, 112914, Note_on_c, 0, 81, 0
2, 112920, Note_on_c, 0, 78, 100
2, 112974, Note_on_c, 0, 78, 0
2, 112980, Note_on_c, 0, 81, 100
2, 113034, Note_on_c, 0, 81, 0
2, 113040, Note_on_c, 0, 74, 100
2, 113094, Note_on_c, 0, 74, 0
2, 113100, Note_on_c, 0, 78, 100
2, 113154, Note_on_c, 0, 78, 0
2, 113160, Note_on_c, 0, 81, 100
2, 113214, Note_on_c, 0, 81, 0
2, 113220, Note_on_c, 0, 84, 100
2, 113274, Note_on_c, 0, 84, 0
2, 113280, Note_on_c, 0, 83, 100
2, 113334, Note_on_c, 0, 83, 0
2, 113340, Note_on_c, 0, 79, 100
2, 113394, Note_on_c, 0, 79, 0
2, 113400, Note_on_c, 0, 74, 100
2, 113454, Note_on_c, 0, 74, 0
2, 113460, Note_on_c, 0, 79, 100
2, 113514, Note_on_c, 0, 79, 0
2, 113520, Note_on_c, 0, 71, 100
2, 113574, Note_on_c, 0, 71, 0
2, 113580, Note_on_c, 0, 74, 100
2, 113634, Note_on_c, 0, 74, 0
2, 113640, Note_on_c, 0, 79, 100
2, 113694, Note_on_c, 0, 79, 0
2, 113700, Note_on_c, 0, 83, 100
2, 113754, Note_on_c, 0, 83, 0
2, 113760, Note_on_c, 0, 81, 100
2, 113814, Note_on_c, 0, 81, 0
2, 113820, Note_on_c, 0, 78, 100
2, 113874, Note_on_c, 0, 78, 0
2, 113880, Note_on_c, 0, 72, 100
2, 113934, Note_on_c, 0, 72, 0
2, 113940, Note_on_c, 0, 78, 100
2, 113994, Note_on_c, 0, 78, 0
2, 114000, Note_on_c, 0, 69, 100
2, 114054, Note_on_c, 0, 69, 0
2, 114060, Note_on_c, 0, 72, 100
2, 114114, Note_on_c, 0, 72, 0
2, 114120, Note_on_c, 0, 78, 100
2, 114174, Note_on_c, 0, 78, 0
2, 114180, Note_on_c, 0, 81, 100
2, 114234, Note_on_c, 0, 81, 0
2, 114240, Note_on_c, 0, 79, 100
2, 114348, Note_on_c, 0, 79, 0
2, 114360, Note_on_c, 0, 74, 100
2, 114468, Note_on_c, 0, 74, 0
2, 114480, Note_on_c, 0, 79, 100
2, 114588, Note_on_c, 0, 79, 0
2, 114600, Note_on_c, 0, 74, 100
2, 114708, Note_on_c, 0, 74, 0
2, 114720, Note_on_c, 0, 79, 100
2, 114774, Note_on_c, 0, 79, 0
2, 114780, Note_on_c, 0, 77, 100
2, 114834, Note_on_c, 0, 77, 0
2, 114840, Note_on_c, 0, 76, 100
2, 114894, Note_on_c, 0, 76, 0
2, 114900, Note_on_c, 0, 77, 100
2, 114954, Note_on_c, 0, 77, 0
2, 114960, Note_on_c, 0, 79, 100
2, 115014, Note_on_c, 0, 79, 0
2, 115020, Note_on_c, 0, 77, 100
2, 115074, Note_on_c, 0, 77, 0
2, 115080, Note_on_c, 0, 76, 100
2, 115134, Note_on_c, 0, 76, 0
2, 115140, Note_on_c, 0, 79, 100
2, 115194, Note_on_c, 0, 79, 0
2, 115200, Note_on_c, 0, 69, 100
2, 115308, Note_on_c, 0, 69, 0
2, 115320, Note_on_c, 0, 77, 100
2, 115428, Note_on_c, 0, 77, 0
2, 115440, Note_on_c, 0, 69, 100
2, 115548, Note_on_c, 0, 69, 0
2, 115560, Note_on_c, 0, 77, 100
2, 115668, Note_on_c, 0, 77, 0
2, 115680, Note_on_c, 0, 67, 100
2, 115788, Note_on_c, 0, 67, 0
2, 115800, Note_on_c, 0, 77, 100
2, 115908, Note_on_c, 0, 77, 0
2, 115920, Note_on_c, 0, 67, 100
2, 116028, Note_on_c, 0, 67, 0
2, 116040, Note_on_c, 0, 77, 100
2, 116148, Note_on_c, 0, 77, 0
2, 116160, Note_on_c, 0, 67, 100
2, 116268, Note_on_c, 0, 67, 0
2, 116280, Note_on_c, 0, 76, 100
2, 116388, Note_on_c, 0, 76, 0
2, 116400, Note_on_c, 0, 67, 100
2, 116508, Note_on_c, 0, 67, 0
2, 116520, Note_on_c, 0, 76, 100
2, 116628, Note_on_c, 0, 76, 0
2, 116640, Note_on_c, 0, 72, 100
2, 116748, Note_on_c, 0, 72, 0
2, 116760, Note_on_c, 0, 76, 100
2, 116868, Note_on_c, 0, 76, 0
2, 116880, Note_on_c, 0, 69, 100
2, 116988, Note_on_c, 0, 69, 0
2, 117000, Note_on_c, 0, 62, 100
2, 117000, Note_on_c, 0, 69, 100
2, 117000, Note_on_c, 0, 74, 100
2, 117108, Note_on_c, 0, 74, 0
2, 117108, Note_on_c, 0, 69, 0
2, 117108, Note_on_c, 0, 62, 0
2, 117120, Note_on_c, 0, 67, 100
2, 117120, Note_on_c, 0, 71, 100
2, 117120, Note_on_c, 0, 74, 100
2, 117336, Note_on_c, 0, 74, 0
2, 117336, Note_on_c, 0, 71, 0
2, 117336, Note_on_c, 0, 67, 0
2, 117480, Note_on_c, 0, 76, 100
2, 117588, Note_on_c, 0, 76, 0
2, 117600, Note_on_c, 0, 76, 100
2, 117708, Note_on_c, 0, 76, 0
2, 117720, Note_on_c, 0, 65, 100
2, 117828, Note_on_c, 0, 65, 0
2, 117840, Note_on_c, 0, 65, 100
2, 117948, Note_on_c, 0, 65, 0
2, 117960, Note_on_c, 0, 74, 100
2, 118068, Note_on_c, 0, 74, 0
2, 118080, Note_on_c, 0, 74, 100
2, 118188, Note_on_c, 0, 74, 0
2, 118200, Note_on_c, 0, 64, 100
2, 118308, Note_on_c, 0, 64, 0
2, 118320, Note_on_c, 0, 64, 100
2, 118428, Note_on_c, 0, 64, 0
2, 118440, Note_on_c, 0, 72, 100
2, 118548, Note_on_c, 0, 72, 0
2, 118560, Note_on_c, 0, 72, 100
2, 118668, Note_on_c, 0, 72, 0
2, 118680, Note_on_c, 0, 62, 100
2, 118788, Note_on_c, 0, 62, 0
2, 118800, Note_on_c, 0, 62, 100
2, 118908, Note_on_c, 0, 62, 0
2, 118920, Note_on_c, 0, 67, 100
2, 118920, Note_on_c, 0, 62, 100
2, 119028, Note_on_c, 0, 62, 0
2, 119028, Note_on_c, 0, 67, 0
2, 119040, Note_on_c, 0, 64, 100
2, 119094, Note_on_c, 0, 64, 0
2, 119100, Note_on_c, 0, 67, 100
2, 119154, Note_on_c, 0, 67, 0
2, 119160, Note_on_c, 0, 72, 100
2, 119214, Note_on_c, 0, 72, 0
2, 119220, Note_on_c, 0, 76, 100
2, 119247, Note_on_c, 0, 76, 0
2, 119250, Note_on_c, 0, 74, 100
2, 119277, Note_on_c, 0, 74, 0
2, 119280, Note_on_c, 0, 76, 100
2, 119574, Note_on_c, 0, 76, 0
2, 119580, Note_on_c, 0, 77, 100
2, 119607, Note_on_c, 0, 77, 0
2, 119610, Note_on_c, 0, 76, 100
2, 119637, Note_on_c, 0, 76, 0
2, 119640, Note_on_c, 0, 74, 100
2, 119694, Note_on_c, 0, 74, 0
2, 119700, Note_on_c, 0, 76, 100
2, 119754, Note_on_c, 0, 76, 0
2, 119760, Note_on_c, 0, 77, 100
2, 120054, Note_on_c, 0, 77, 0
2, 120060, Note_on_c, 0, 79, 100
2, 120087, Note_on_c, 0, 79, 0
2, 120090, Note_on_c, 0, 77, 100
2, 120117, Note_on_c, 0, 77, 0
2, 120120, Note_on_c, 0, 76, 100
2, 120174, Note_on_c, 0, 76, 0
2, 120180, Note_on_c, 0, 77, 100
2, 120234, Note_on_c, 0, 77, 0
2, 120240, Note_on_c, 0, 79, 100
2, 120534, Note_on_c, 0, 79, 0
2, 120540, Note_on_c, 0, 81, 100
2, 120567, Note_on_c, 0, 81, 0
2, 120570, Note_on_c, 0, 79, 100
2, 120597, Note_on_c, 0, 79, 0
2, 120600, Note_on_c, 0, 77, 100
2, 120654, Note_on_c, 0, 77, 0
2, 120660, Note_on_c, 0, 79, 100
2, 120714, Note_on_c, 0, 79, 0
2, 120720, Note_on_c, 0, 81, 100
2, 121014, Note_on_c, 0, 81, 0
2, 121020, Note_on_c, 0, 83, 100
2, 121047, Note_on_c, 0, 83, 0
2, 121050, Note_on_c, 0, 81, 100
2, 121077, Note_on_c, 0, 81, 0
2, 121080, Note_on_c, 0, 79, 100
2, 121134, Note_on_c, 0, 79, 0
2, 121140, Note_on_c, 0, 81, 100
2, 121194, Note_on_c, 0, 81, 0
2, 121200, Note_on_c, 0, 83, 100
2, 121227, Note_on_c, 0, 83, 0
2, 121230, Note_on_c, 0, 81, 100
2, 121257, Note_on_c, 0, 81, 0
2, 121260, Note_on_c, 0, 79, 100
2, 121347, Note_on_c, 0, 79, 0
2, 121350, Note_on_c, 0, 77, 100
2, 121377, Note_on_c, 0, 77, 0
2, 121380, Note_on_c, 0, 74, 100
2, 121407, Note_on_c, 0, 74, 0
2, 121410, Note_on_c, 0, 71, 100
2, 121437, Note_on_c, 0, 71, 0
2, 121440, Note_on_c, 0, 67, 100
2, 121494, Note_on_c, 0, 67, 0
2, 121500, Note_on_c, 0, 72, 100
2, 121608, Note_on_c, 0, 72, 0
2, 121620, Note_on_c, 0, 71, 100
2, 121674, Note_on_c, 0, 71, 0
2, 121680, Note_on_c, 0, 72, 100
2, 121842, Note_on_c, 0, 72, 0
2, 121860, Note_on_c, 0, 74, 100
2, 121914, Note_on_c, 0, 74, 0
2, 121920, Note_on_c, 0, 71, 100
2, 121947, Note_on_c, 0, 71, 0
2, 121950, Note_on_c, 0, 69, 100
2, 121977, Note_on_c, 0, 69, 0
2, 121980, Note_on_c, 0, 67, 100
2, 122034, Note_on_c, 0, 67, 0
2, 122400, Note_on_c, 0, 79, 100
2, 122694, Note_on_c, 0, 79, 0
2, 122700, Note_on_c, 0, 77, 100
2, 122727, Note_on_c, 0, 77, 0
2, 122730, Note_on_c, 0, 76, 100
2, 122757, Note_on_c, 0, 76, 0
2, 122760, Note_on_c, 0, 74, 100
2, 122787, Note_on_c, 0, 74, 0
2, 122790, Note_on_c, 0, 76, 100
2, 122817, Note_on_c, 0, 76, 0
2, 122820, Note_on_c, 0, 72, 100
2, 122874, Note_on_c, 0, 72, 0
2, 122880, Note_on_c, 0, 81, 100
2, 123174, Note_on_c, 0, 81, 0
2, 123180, Note_on_c, 0, 79, 100
2, 123234, Note_on_c, 0, 79, 0
2, 123240, Note_on_c, 0, 77, 100
2, 123294, Note_on_c, 0, 77, 0
2, 123300, Note_on_c, 0, 76, 100
2, 123354, Note_on_c, 0, 76, 0
2, 123360, Note_on_c, 0, 74, 100
2, 123414, Note_on_c, 0, 74, 0
2, 123420, Note_on_c, 0, 72, 100
2, 123474, Note_on_c, 0, 72, 0
2, 123480, Note_on_c, 0, 71, 100
2, 123534, Note_on_c, 0, 71, 0
2, 123540, Note_on_c, 0, 74, 100
2, 123594, Note_on_c, 0, 74, 0
2, 123600, Note_on_c, 0, 77, 100
2, 123654, Note_on_c, 0, 77, 0
2, 123660, Note_on_c, 0, 81, 100
2, 123714, Note_on_c, 0, 81, 0
2, 123720, Note_on_c, 0, 79, 100
2, 123774, Note_on_c, 0, 79, 0
2, 123780, Note_on_c, 0, 77, 100
2, 123834, Note_on_c, 0, 77, 0
2, 123840, Note_on_c, 0, 79, 100
2, 124134, Note_on_c, 0, 79, 0
2, 124140, Note_on_c, 0, 77, 100
2, 124194, Note_on_c, 0, 77, 0
2, 124200, Note_on_c, 0, 76, 100
2, 124254, Note_on_c, 0, 76, 0
2, 124260, Note_on_c, 0, 74, 100
2, 124314, Note_on_c, 0, 74, 0
2, 124320, Note_on_c, 0, 72, 100
2, 124374, Note_on_c, 0, 72, 0
2, 124380, Note_on_c, 0, 69, 100
2, 124434, Note_on_c, 0, 69, 0
2, 124440, Note_on_c, 0, 72, 100
2, 124494, Note_on_c, 0, 72, 0
2, 124500, Note_on_c, 0, 76, 100
2, 124554, Note_on_c, 0, 76, 0
2, 124560, Note_on_c, 0, 69, 100
2, 124614, Note_on_c, 0, 69, 0
2, 124620, Note_on_c, 0, 79, 100
2, 124674, Note_on_c, 0, 79, 0
2, 124680, Note_on_c, 0, 77, 100
2, 124734, Note_on_c, 0, 77, 0
2, 124740, Note_on_c, 0, 76, 100
2, 124794, Note_on_c, 0, 76, 0
2, 124800, Note_on_c, 0, 77, 100
2, 125094, Note_on_c, 0, 77, 0
2, 125100, Note_on_c, 0, 76, 100
2, 125154, Note_on_c, 0, 76, 0
2, 125160, Note_on_c, 0, 74, 100
2, 125214, Note_on_c, 0, 74, 0
2, 125220, Note_on_c, 0, 72, 100
2, 125274, Note_on_c, 0, 72, 0
2, 125280, Note_on_c, 0, 71, 100
2, 125334, Note_on_c, 0, 71, 0
2, 125340, Note_on_c, 0, 69, 100
2, 125394, Note_on_c, 0, 69, 0
2, 125400, Note_on_c, 0, 67, 100
2, 125454, Note_on_c, 0, 67, 0
2, 125460, Note_on_c, 0, 71, 100
2, 125514, Note_on_c, 0, 71, 0
2, 125520, Note_on_c, 0, 74, 100
2, 125574, Note_on_c, 0, 74, 0
2, 125580, Note_on_c, 0, 77, 100
2, 125634, Note_on_c, 0, 77, 0
2, 125640, Note_on_c, 0, 76, 100
2, 125694, Note_on_c, 0, 76, 0
2, 125700, Note_on_c, 0, 74, 100
2, 125754, Note_on_c, 0, 74, 0
2, 125760, Note_on_c, 0, 76, 100
2, 125814, Note_on_c, 0, 76, 0
2, 125820, Note_on_c, 0, 77, 100
2, 125874, Note_on_c, 0, 77, 0
2, 125880, Note_on_c, 0, 77, 100
2, 125934, Note_on_c, 0, 77, 0
2, 125940, Note_on_c, 0, 76, 100
2, 125967, Note_on_c, 0, 76, 0
2, 125970, Note_on_c, 0, 77, 100
2, 125997, Note_on_c, 0, 77, 0
2, 126000, Note_on_c, 0, 79, 100
2, 126402, Note_on_c, 0, 79, 0
2, 126420, Note_on_c, 0, 81, 100
2, 126474, Note_on_c, 0, 81, 0
2, 126480, Note_on_c, 0, 74, 100
2, 126642, Note_on_c, 0, 74, 0
2, 126660, Note_on_c, 0, 72, 100
2, 126714, Note_on_c, 0, 72, 0
2, 126720, Note_on_c, 0, 72, 100
2, 126828, Note_on_c, 0, 72, 0
2, 126840, Note_on_c, 0, 67, 100
2, 126948, Note_on_c, 0, 67, 0
2, 126960, Note_on_c, 0, 72, 100
2, 127068, Note_on_c, 0, 72, 0
2, 127080, Note_on_c, 0, 67, 100
2, 127188, Note_on_c, 0, 67, 0
2, 127200, Note_on_c, 0, 72, 100
2, 127308, Note_on_c, 0, 72, 0
2, 127320, Note_on_c, 0, 71, 100
2, 127374, Note_on_c, 0, 71, 0
2, 127380, Note_on_c, 0, 69, 100
2, 127434, Note_on_c, 0, 69, 0
2, 127440, Note_on_c, 0, 67, 100
2, 127548, Note_on_c, 0, 67, 0
2, 127560, Note_on_c, 0, 69, 100
2, 127614, Note_on_c, 0, 69, 0
2, 127620, Note_on_c, 0, 71, 100
2, 127674, Note_on_c, 0, 71, 0
2, 127680, Note_on_c, 0, 72, 100
2, 127788, Note_on_c, 0, 72, 0
2, 127800, Note_on_c, 0, 71, 100
2, 127854, Note_on_c, 0, 71, 0
2, 127860, Note_on_c, 0, 69, 100
2, 127914, Note_on_c, 0, 69, 0
2, 127920, Note_on_c, 0, 67, 100
2, 128028, Note_on_c, 0, 67, 0
2, 128040, Note_on_c, 0, 65, 100
2, 128148, Note_on_c, 0, 65, 0
2, 128160, Note_on_c, 0, 64, 100
2, 128214, Note_on_c, 0, 64, 0
2, 128220, Note_on_c, 0, 65, 100
2, 128274, Note_on_c, 0, 65, 0
2, 128280, Note_on_c, 0, 67, 100
2, 128334, Note_on_c, 0, 67, 0
2, 128340, Note_on_c, 0, 64, 100
2, 128394, Note_on_c, 0, 64, 0
2, 128400, Note_on_c, 0, 60, 100
2, 128454, Note_on_c, 0, 60, 0
2, 128460, Note_on_c, 0, 62, 100
2, 128514, Note_on_c, 0, 62, 0
2, 128520, Note_on_c, 0, 64, 100
2, 128574, Note_on_c, 0, 64, 0
2, 128580, Note_on_c, 0, 66, 100
2, 128634, Note_on_c, 0, 66, 0
2, 128640, Note_on_c, 0, 67, 100
2, 128748, Note_on_c, 0, 67, 0
2, 128760, Note_on_c, 0, 62, 100
2, 128868, Note_on_c, 0, 62, 0
2, 128880, Note_on_c, 0, 67, 100
2, 128988, Note_on_c, 0, 67, 0
2, 129000, Note_on_c, 0, 62, 100
2, 129108, Note_on_c, 0, 62, 0
2, 129120, Note_on_c, 0, 67, 100
2, 129228, Note_on_c, 0, 67, 0
2, 129240, Note_on_c, 0, 66, 100
2, 129294, Note_on_c, 0, 66, 0
2, 129300, Note_on_c, 0, 64, 100
2, 129354, Note_on_c, 0, 64, 0
2, 129360, Note_on_c, 0, 62, 100
2, 129468, Note_on_c, 0, 62, 0
2, 129480, Note_on_c, 0, 64, 100
2, 129534, Note_on_c, 0, 64, 0
2, 129540, Note_on_c, 0, 66, 100
2, 129594, Note_on_c, 0, 66, 0
2, 129600, Note_on_c, 0, 67, 100
2, 129708, Note_on_c, 0, 67, 0
2, 129720, Note_on_c, 0, 66, 100
2, 129774, Note_on_c, 0, 66, 0
2, 129780, Note_on_c, 0, 64, 100
2, 129834, Note_on_c, 0, 64, 0
2, 129840, Note_on_c, 0, 62, 100
2, 129948, Note_on_c, 0, 62, 0
2, 129960, Note_on_c, 0, 60, 100
2, 130068, Note_on_c, 0, 60, 0
2, 130080, Note_on_c, 0, 59, 100
2, 130134, Note_on_c, 0, 59, 0
2, 130140, Note_on_c, 0, 60, 100
2, 130194, Note_on_c, 0, 60, 0
2, 130200, Note_on_c, 0, 62, 100
2, 130254, Note_on_c, 0, 62, 0
2, 130260, Note_on_c, 0, 59, 100
2, 130314, Note_on_c, 0, 59, 0
2, 130320, Note_on_c, 0, 55, 100
2, 130374, Note_on_c, 0, 55, 0
2, 130380, Note_on_c, 0, 59, 100
2, 130434, Note_on_c, 0, 59, 0
2, 130440, Note_on_c, 0, 62, 100
2, 130494, Note_on_c, 0, 62, 0
2, 130500, Note_on_c, 0, 65, 100
2, 130554, Note_on_c, 0, 65, 0
2, 130560, Note_on_c, 0, 60, 100
2, 130614, Note_on_c, 0, 60, 0
2, 130620, Note_on_c, 0, 62, 100
2, 130674, Note_on_c, 0, 62, 0
2, 130680, Note_on_c, 0, 64, 100
2, 130734, Note_on_c, 0, 64, 0
2, 130740, Note_on_c, 0, 60, 100
2, 130794, Note_on_c, 0, 60, 0
2, 130800, Note_on_c, 0, 55, 100
2, 130854, Note_on_c, 0, 55, 0
2, 130860, Note_on_c, 0, 60, 100
2, 130914, Note_on_c, 0, 60, 0
2, 130920, Note_on_c, 0, 64, 100
2, 130974, Note_on_c, 0, 64, 0
2, 130980, Note_on_c, 0, 67, 100
2, 131034, Note_on_c, 0, 67, 0
2, 131040, Note_on_c, 0, 62, 100
2, 131094, Note_on_c, 0, 62, 0
2, 131100, Note_on_c, 0, 64, 100
2, 131154, Note_on_c, 0, 64, 0
2, 131160, Note_on_c, 0, 65, 100
2, 131214, Note_on_c, 0, 65, 0
2, 131220, Note_on_c, 0, 62, 100
2, 131274, Note_on_c, 0, 62, 0
2, 131280, Note_on_c, 0, 59, 100
2, 131334, Note_on_c, 0, 59, 0
2, 131340, Note_on_c, 0, 62, 100
2, 131394, Note_on_c, 0, 62, 0
2, 131400, Note_on_c, 0, 65, 100
2, 131454, Note_on_c, 0, 65, 0
2, 131460, Note_on_c, 0, 69, 100
2, 131514, Note_on_c, 0, 69, 0
2, 131520, Note_on_c, 0, 67, 100
2, 131574, Note_on_c, 0, 67, 0
2, 131580, Note_on_c, 0, 65, 100
2, 131634, Note_on_c, 0, 65, 0
2, 131640, Note_on_c, 0, 64, 100
2, 131694, Note_on_c, 0, 64, 0
2, 131700, Note_on_c, 0, 65, 100
2, 131754, Note_on_c, 0, 65, 0
2, 131760, Note_on_c, 0, 67, 100
2, 131814, Note_on_c, 0, 67, 0
2, 131820, Note_on_c, 0, 64, 100
2, 131874, Note_on_c, 0, 64, 0
2, 131880, Note_on_c, 0, 60, 100
2, 131934, Note_on_c, 0, 60, 0
2, 131940, Note_on_c, 0, 57, 100
2, 131994, Note_on_c, 0, 57, 0
2, 132000, Note_on_c, 0, 65, 100
2, 132054, Note_on_c, 0, 65, 0
2, 132060, Note_on_c, 0, 64, 100
2, 132114, Note_on_c, 0, 64, 0
2, 132120, Note_on_c, 0, 62, 100
2, 132174, Note_on_c, 0, 62, 0
2, 132180, Note_on_c, 0, 64, 100
2, 132234, Note_on_c, 0, 64, 0
2, 132240, Note_on_c, 0, 65, 100
2, 132294, Note_on_c, 0, 65, 0
2, 132300, Note_on_c, 0, 62, 100
2, 132354, Note_on_c, 0, 62, 0
2, 132360, Note_on_c, 0, 59, 100
2, 132414, Note_on_c, 0, 59, 0
2, 132420, Note_on_c, 0, 55, 100
2, 132474, Note_on_c, 0, 55, 0
2, 132480, Note_on_c, 0, 64, 100
2, 132534, Note_on_c, 0, 64, 0
2, 132540, Note_on_c, 0, 65, 100
2, 132594, Note_on_c, 0, 65, 0
2, 132600, Note_on_c, 0, 67, 100
2, 132654, Note_on_c, 0, 67, 0
2, 132660, Note_on_c, 0, 64, 100
2, 132714, Note_on_c, 0, 64, 0
2, 132720, Note_on_c, 0, 60, 100
2, 132774, Note_on_c, 0, 60, 0
2, 132780, Note_on_c, 0, 62, 100
2, 132834, Note_on_c, 0, 62, 0
2, 132840, Note_on_c, 0, 64, 100
2, 132894, Note_on_c, 0, 64, 0
2, 132900, Note_on_c, 0, 60, 100
2, 132954, Note_on_c, 0, 60, 0
2, 132960, Note_on_c, 0, 57, 100
2, 133014, Note_on_c, 0, 57, 0
2, 133020, Note_on_c, 0, 59, 100
2, 133074, Note_on_c, 0, 59, 0
2, 133080, Note_on_c, 0, 60, 100
2, 133134, Note_on_c, 0, 60, 0
2, 133140, Note_on_c, 0, 57, 100
2, 133194, Note_on_c, 0, 57, 0
2, 133200, Note_on_c, 0, 53, 100
2, 133254, Note_on_c, 0, 53, 0
2, 133260, Note_on_c, 0, 55, 100
2, 133314, Note_on_c, 0, 55, 0
2, 133320, Note_on_c, 0, 57, 100
2, 133374, Note_on_c, 0, 57, 0
2, 133380, Note_on_c, 0, 53, 100
2, 133434, Note_on_c, 0, 53, 0
2, 133440, Note_on_c, 0, 50, 100
2, 133602, Note_on_c, 0, 50, 0
2, 133620, Note_on_c, 0, 52, 100
2, 133674, Note_on_c, 0, 52, 0
2, 133680, Note_on_c, 0, 53, 100
2, 133734, Note_on_c, 0, 53, 0
2, 133740, Note_on_c, 0, 55, 100
2, 133794, Note_on_c, 0, 55, 0
2, 133800, Note_on_c, 0, 57, 100
2, 133854, Note_on_c, 0, 57, 0
2, 133860, Note_on_c, 0, 59, 100
2, 133914, Note_on_c, 0, 59, 0
2, 133920, Note_on_c, 0, 60, 100
2, 133974, Note_on_c, 0, 60, 0
2, 133980, Note_on_c, 0, 62, 100
2, 134034, Note_on_c, 0, 62, 0
2, 134040, Note_on_c, 0, 64, 100
2, 134094, Note_on_c, 0, 64, 0
2, 134100, Note_on_c, 0, 65, 100
2, 134154, Note_on_c, 0, 65, 0
2, 134160, Note_on_c, 0, 67, 100
2, 134268, Note_on_c, 0, 67, 0
2, 134280, Note_on_c, 0, 55, 100
2, 134388, Note_on_c, 0, 55, 0
2, 134400, Note_on_c, 0, 60, 100
2, 134616, Note_on_c, 0, 60, 0
2, 134616, End_track
3, 0, Start_track
3, 0, Title_t, "~"
3, 0, Program_c, 1, 6
3, 0, Control_c, 1, 7, 80
3, 0, Control_c, 1, 10, 105
3, 0, Note_on_c, 1, 60, 100
3, 108, Note_on_c, 1, 60, 0
3, 120, Note_on_c, 1, 55, 100
3, 228, Note_on_c, 1, 55, 0
3, 240, Note_on_c, 1, 60, 100
3, 348, Note_on_c, 1, 60, 0
3, 360, Note_on_c, 1, 55, 100
3, 468, Note_on_c, 1, 55, 0
3, 480, Note_on_c, 1, 60, 100
3, 588, Note_on_c, 1, 60, 0
3, 600, Note_on_c, 1, 59, 100
3, 654, Note_on_c, 1, 59, 0
3, 660, Note_on_c, 1, 57, 100
3, 714, Note_on_c, 1, 57, 0
3, 720, Note_on_c, 1, 55, 100
3, 828, Note_on_c, 1, 55, 0
3, 840, Note_on_c, 1, 57, 100
3, 894, Note_on_c, 1, 57, 0
3, 900, Note_on_c, 1, 59, 100
3, 954, Note_on_c, 1, 59, 0
3, 960, Note_on_c, 1, 60, 100
3, 1068, Note_on_c, 1, 60, 0
3, 1080, Note_on_c, 1, 59, 100
3, 1134, Note_on_c, 1, 59, 0
3, 1140, Note_on_c, 1, 57, 100
3, 1194, Note_on_c, 1, 57, 0
3, 1200, Note_on_c, 1, 55, 100
3, 1308, Note_on_c, 1, 55, 0
3, 1320, Note_on_c, 1, 53, 100
3, 1428, Note_on_c, 1, 53, 0
3, 1440, Note_on_c, 1, 52, 100
3, 1494, Note_on_c, 1, 52, 0
3, 1500, Note_on_c, 1, 53, 100
3, 1554, Note_on_c, 1, 53, 0
3, 1560, Note_on_c, 1, 55, 100
3, 1614, Note_on_c, 1, 55, 0
3, 1620, Note_on_c, 1, 52, 100
3, 1674, Note_on_c, 1, 52, 0
3, 1680, Note_on_c, 1, 48, 100
3, 1734, Note_on_c, 1, 48, 0
3, 1740, Note_on_c, 1, 50, 100
3, 1794, Note_on_c, 1, 50, 0
3, 1800, Note_on_c, 1, 52, 100
3, 1854, Note_on_c, 1, 52, 0
3, 1860, Note_on_c, 1, 54, 100
3, 1914, Note_on_c, 1, 54, 0
3, 1920, Note_on_c, 1, 55, 100
3, 2028, Note_on_c, 1, 55, 0
3, 2040, Note_on_c, 1, 50, 100
3, 2148, Note_on_c, 1, 50, 0
3, 2160, Note_on_c, 1, 55, 100
3, 2268, Note_on_c, 1, 55, 0
3, 2280, Note_on_c, 1, 50, 100
3, 2388, Note_on_c, 1, 50, 0
3, 2400, Note_on_c, 1, 55, 100
3, 2508, Note_on_c, 1, 55, 0
3, 2520, Note_on_c, 1, 54, 100
3, 2574, Note_on_c, 1, 54, 0
3, 2580, Note_on_c, 1, 52, 100
3, 2634, Note_on_c, 1, 52, 0
3, 2640, Note_on_c, 1, 50, 100
3, 2748, Note_on_c, 1, 50, 0
3, 2760, Note_on_c, 1, 52, 100
3, 2814, Note_on_c, 1, 52, 0
3, 2820, Note_on_c, 1, 54, 100
3, 2874, Note_on_c, 1, 54, 0
3, 2880, Note_on_c, 1, 55, 100
3, 2988, Note_on_c, 1, 55, 0
3, 3000, Note_on_c, 1, 54, 100
3, 3054, Note_on_c, 1, 54, 0
3, 3060, Note_on_c, 1, 52, 100
3, 3114, Note_on_c, 1, 52, 0
3, 3120, Note_on_c, 1, 50, 100
3, 3228, Note_on_c, 1, 50, 0
3, 3240, Note_on_c, 1, 48, 100
3, 3348, Note_on_c, 1, 48, 0
3, 3360, Note_on_c, 1, 47, 100
3, 3414, Note_on_c, 1, 47, 0
3, 3420, Note_on_c, 1, 48, 100
3, 3474, Note_on_c, 1, 48, 0
3, 3480, Note_on_c, 1, 50, 100
3, 3534, Note_on_c, 1, 50, 0
3, 3540, Note_on_c, 1, 47, 100
3, 3594, Note_on_c, 1, 47, 0
3, 3600, Note_on_c, 1, 43, 100
3, 3654, Note_on_c, 1, 43, 0
3, 3660, Note_on_c, 1, 47, 100
3, 3714, Note_on_c, 1, 47, 0
3, 3720, Note_on_c, 1, 50, 100
3, 3774, Note_on_c, 1, 50, 0
3, 3780, Note_on_c, 1, 53, 100
3, 3834, Note_on_c, 1, 53, 0
3, 3840, Note_on_c, 1, 48, 100
3, 3894, Note_on_c, 1, 48, 0
3, 3900, Note_on_c, 1, 50, 100
3, 3954, Note_on_c, 1, 50, 0
3, 3960, Note_on_c, 1, 52, 100
3, 4014, Note_on_c, 1, 52, 0
3, 4020, Note_on_c, 1, 48, 100
3, 4074, Note_on_c, 1, 48, 0
3, 4080, Note_on_c, 1, 43, 100
3, 4134, Note_on_c, 1, 43, 0
3, 4140, Note_on_c, 1, 48, 100
3, 4194, Note_on_c, 1, 48, 0
3, 4200, Note_on_c, 1, 52, 100
3, 4254, Note_on_c, 1, 52, 0
3, 4260, Note_on_c, 1, 55, 100
3, 4314, Note_on_c, 1, 55, 0
3, 4320, Note_on_c, 1, 50, 100
3, 4374, Note_on_c, 1, 50, 0
3, 4380, Note_on_c, 1, 52, 100
3, 4434, Note_on_c, 1, 52, 0
3, 4440, Note_on_c, 1, 53, 100
3, 4494, Note_on_c, 1, 53, 0
3, 4500, Note_on_c, 1, 50, 100
3, 4554, Note_on_c, 1, 50, 0
3, 4560, Note_on_c, 1, 47, 100
3, 4614, Note_on_c, 1, 47, 0
3, 4620, Note_on_c, 1, 50, 100
3, 4674, Note_on_c, 1, 50, 0
3, 4680, Note_on_c, 1, 53, 100
3, 4734, Note_on_c, 1, 53, 0
3, 4740, Note_on_c, 1, 57, 100
3, 4794, Note_on_c, 1, 57, 0
3, 4800, Note_on_c, 1, 55, 100
3, 4854, Note_on_c, 1, 55, 0
3, 4860, Note_on_c, 1, 53, 100
3, 4914, Note_on_c, 1, 53, 0
3, 4920, Note_on_c, 1, 52, 100
3, 4974, Note_on_c, 1, 52, 0
3, 4980, Note_on_c, 1, 53, 100
3, 5034, Note_on_c, 1, 53, 0
3, 5040, Note_on_c, 1, 55, 100
3, 5094, Note_on_c, 1, 55, 0
3, 5100, Note_on_c, 1, 52, 100
3, 5154, Note_on_c, 1, 52, 0
3, 5160, Note_on_c, 1, 48, 100
3, 5214, Note_on_c, 1, 48, 0
3, 5220, Note_on_c, 1, 45, 100
3, 5274, Note_on_c, 1, 45, 0
3, 5280, Note_on_c, 1, 53, 100
3, 5334, Note_on_c, 1, 53, 0
3, 5340, Note_on_c, 1, 52, 100
3, 5394, Note_on_c, 1, 52, 0
3, 5400, Note_on_c, 1, 50, 100
3, 5454, Note_on_c, 1, 50, 0
3, 5460, Note_on_c, 1, 52, 100
3, 5514, Note_on_c, 1, 52, 0
3, 5520, Note_on_c, 1, 53, 100
3, 5574, Note_on_c, 1, 53, 0
3, 5580, Note_on_c, 1, 50, 100
3, 5634, Note_on_c, 1, 50, 0
3, 5640, Note_on_c, 1, 47, 100
3, 5694, Note_on_c, 1, 47, 0
3, 5700, Note_on_c, 1, 43, 100
3, 5754, Note_on_c, 1, 43, 0
3, 5760, Note_on_c, 1, 52, 100
3, 5814, Note_on_c, 1, 52, 0
3, 5820, Note_on_c, 1, 53, 100
3, 5874, Note_on_c, 1, 53, 0
3, 5880, Note_on_c, 1, 55, 100
3, 5934, Note_on_c, 1, 55, 0
3, 5940, Note_on_c, 1, 52, 100
3, 5994, Note_on_c, 1, 52, 0
3, 6000, Note_on_c, 1, 48, 100
3, 6054, Note_on_c, 1, 48, 0
3, 6060, Note_on_c, 1, 50, 100
3, 6114, Note_on_c, 1, 50, 0
3, 6120, Note_on_c, 1, 52, 100
3, 6174, Note_on_c, 1, 52, 0
3, 6180, Note_on_c, 1, 48, 100
3, 6234, Note_on_c, 1, 48, 0
3, 6240, Note_on_c, 1, 45, 100
3, 6294, Note_on_c, 1, 45, 0
3, 6300, Note_on_c, 1, 47, 100
3, 6354, Note_on_c, 1, 47, 0
3, 6360, Note_on_c, 1, 48, 100
3, 6414, Note_on_c, 1, 48, 0
3, 6420, Note_on_c, 1, 45, 100
3, 6474, Note_on_c, 1, 45, 0
3, 6480, Note_on_c, 1, 41, 100
3, 6534, Note_on_c, 1, 41, 0
3, 6540, Note_on_c, 1, 43, 100
3, 6594, Note_on_c, 1, 43, 0
3, 6600, Note_on_c, 1, 45, 100
3, 6654, Note_on_c, 1, 45, 0
3, 6660, Note_on_c, 1, 41, 100
3, 6714, Note_on_c, 1, 41, 0
3, 6720, Note_on_c, 1, 38, 100
3, 6882, Note_on_c, 1, 38, 0
3, 6900, Note_on_c, 1, 40, 100
3, 6954, Note_on_c, 1, 40, 0
3, 6960, Note_on_c, 1, 41, 100
3, 7014, Note_on_c, 1, 41, 0
3, 7020, Note_on_c, 1, 43, 100
3, 7074, Note_on_c, 1, 43, 0
3, 7080, Note_on_c, 1, 45, 100
3, 7134, Note_on_c, 1, 45, 0
3, 7140, Note_on_c, 1, 47, 100
3, 7194, Note_on_c, 1, 47, 0
3, 7200, Note_on_c, 1, 48, 100
3, 7254, Note_on_c, 1, 48, 0
3, 7260, Note_on_c, 1, 50, 100
3, 7314, Note_on_c, 1, 50, 0
3, 7320, Note_on_c, 1, 52, 100
3, 7374, Note_on_c, 1, 52, 0
3, 7380, Note_on_c, 1, 53, 100
3, 7434, Note_on_c, 1, 53, 0
3, 7440, Note_on_c, 1, 55, 100
3, 7548, Note_on_c, 1, 55, 0
3, 7560, Note_on_c, 1, 43, 100
3, 7668, Note_on_c, 1, 43, 0
3, 7680, Note_on_c, 1, 48, 100
3, 7788, Note_on_c, 1, 48, 0
3, 7800, Note_on_c, 1, 60, 100
3, 7908, Note_on_c, 1, 60, 0
3, 7920, Note_on_c, 1, 55, 100
3, 8028, Note_on_c, 1, 55, 0
3, 8040, Note_on_c, 1, 53, 100
3, 8148, Note_on_c, 1, 53, 0
3, 8160, Note_on_c, 1, 52, 100
3, 8268, Note_on_c, 1, 52, 0
3, 8280, Note_on_c, 1, 48, 100
3, 8334, Note_on_c, 1, 48, 0
3, 8340, Note_on_c, 1, 50, 100
3, 8394, Note_on_c, 1, 50, 0
3, 8400, Note_on_c, 1, 52, 100
3, 8508, Note_on_c, 1, 52, 0
3, 8520, Note_on_c, 1, 55, 100
3, 8628, Note_on_c, 1, 55, 0
3, 8640, Note_on_c, 1, 60, 100
3, 8694, Note_on_c, 1, 60, 0
3, 8700, Note_on_c, 1, 62, 100
3, 8754, Note_on_c, 1, 62, 0
3, 8760, Note_on_c, 1, 64, 100
3, 8814, Note_on_c, 1, 64, 0
3, 8820, Note_on_c, 1, 65, 100
3, 8874, Note_on_c, 1, 65, 0
3, 8880, Note_on_c, 1, 62, 100
3, 8934, Note_on_c, 1, 62, 0
3, 8940, Note_on_c, 1, 64, 100
3, 8994, Note_on_c, 1, 64, 0
3, 9000, Note_on_c, 1, 65, 100
3, 9054, Note_on_c, 1, 65, 0
3, 9060, Note_on_c, 1, 62, 100
3, 9114, Note_on_c, 1, 62, 0
3, 9120, Note_on_c, 1, 64, 100
3, 9174, Note_on_c, 1, 64, 0
3, 9180, Note_on_c, 1, 69, 100
3, 9234, Note_on_c, 1, 69, 0
3, 9240, Note_on_c, 1, 67, 100
3, 9294, Note_on_c, 1, 67, 0
3, 9300, Note_on_c, 1, 65, 100
3, 9354, Note_on_c, 1, 65, 0
3, 9360, Note_on_c, 1, 64, 100
3, 9414, Note_on_c, 1, 64, 0
3, 9420, Note_on_c, 1, 62, 100
3, 9474, Note_on_c, 1, 62, 0
3, 9480, Note_on_c, 1, 60, 100
3, 9534, Note_on_c, 1, 60, 0
3, 9540, Note_on_c, 1, 59, 100
3, 9594, Note_on_c, 1, 59, 0
3, 9600, Note_on_c, 1, 60, 100
3, 9708, Note_on_c, 1, 60, 0
3, 9720, Note_on_c, 1, 55, 100
3, 9828, Note_on_c, 1, 55, 0
3, 9840, Note_on_c, 1, 60, 100
3, 9948, Note_on_c, 1, 60, 0
3, 9960, Note_on_c, 1, 55, 100
3, 10068, Note_on_c, 1, 55, 0
3, 10080, Note_on_c, 1, 60, 100
3, 10188, Note_on_c, 1, 60, 0
3, 10200, Note_on_c, 1, 59, 100
3, 10254, Note_on_c, 1, 59, 0
3, 10260, Note_on_c, 1, 57, 100
3, 10314, Note_on_c, 1, 57, 0
3, 10320, Note_on_c, 1, 55, 100
3, 10428, Note_on_c, 1, 55, 0
3, 10440, Note_on_c, 1, 57, 100
3, 10494, Note_on_c, 1, 57, 0
3, 10500, Note_on_c, 1, 59, 100
3, 10554, Note_on_c, 1, 59, 0
3, 10560, Note_on_c, 1, 60, 100
3, 10668, Note_on_c, 1, 60, 0
3, 10680, Note_on_c, 1, 59, 100
3, 10734, Note_on_c, 1, 59, 0
3, 10740, Note_on_c, 1, 57, 100
3, 10794, Note_on_c, 1, 57, 0
3, 10800, Note_on_c, 1, 55, 100
3, 10908, Note_on_c, 1, 55, 0
3, 10920, Note_on_c, 1, 53, 100
3, 11028, Note_on_c, 1, 53, 0
3, 11040, Note_on_c, 1, 52, 100
3, 11094, Note_on_c, 1, 52, 0
3, 11100, Note_on_c, 1, 53, 100
3, 11154, Note_on_c, 1, 53, 0
3, 11160, Note_on_c, 1, 55, 100
3, 11214, Note_on_c, 1, 55, 0
3, 11220, Note_on_c, 1, 52, 100
3, 11274, Note_on_c, 1, 52, 0
3, 11280, Note_on_c, 1, 48, 100
3, 11334, Note_on_c, 1, 48, 0
3, 11340, Note_on_c, 1, 50, 100
3, 11394, Note_on_c, 1, 50, 0
3, 11400, Note_on_c, 1, 52, 100
3, 11454, Note_on_c, 1, 52, 0
3, 11460, Note_on_c, 1, 54, 100
3, 11514, Note_on_c, 1, 54, 0
3, 11520, Note_on_c, 1, 55, 100
3, 11628, Note_on_c, 1, 55, 0
3, 11640, Note_on_c, 1, 62, 100
3, 11694, Note_on_c, 1, 62, 0
3, 11700, Note_on_c, 1, 60, 100
3, 11754, Note_on_c, 1, 60, 0
3, 11760, Note_on_c, 1, 59, 100
3, 11868, Note_on_c, 1, 59, 0
3, 11880, Note_on_c, 1, 57, 100
3, 11934, Note_on_c, 1, 57, 0
3, 11940, Note_on_c, 1, 55, 100
3, 11994, Note_on_c, 1, 55, 0
3, 12480, Note_on_c, 1, 62, 100
3, 12774, Note_on_c, 1, 62, 0
3, 12780, Note_on_c, 1, 60, 100
3, 12834, Note_on_c, 1, 60, 0
3, 12840, Note_on_c, 1, 59, 100
3, 12894, Note_on_c, 1, 59, 0
3, 12900, Note_on_c, 1, 57, 100
3, 12954, Note_on_c, 1, 57, 0
3, 12960, Note_on_c, 1, 55, 100
3, 13014, Note_on_c, 1, 55, 0
3, 13020, Note_on_c, 1, 57, 100
3, 13074, Note_on_c, 1, 57, 0
3, 13080, Note_on_c, 1, 59, 100
3, 13134, Note_on_c, 1, 59, 0
3, 13140, Note_on_c, 1, 60, 100
3, 13194, Note_on_c, 1, 60, 0
3, 13200, Note_on_c, 1, 62, 100
3, 13254, Note_on_c, 1, 62, 0
3, 13260, Note_on_c, 1, 62, 100
3, 13314, Note_on_c, 1, 62, 0
3, 13320, Note_on_c, 1, 64, 100
3, 13374, Note_on_c, 1, 64, 0
3, 13380, Note_on_c, 1, 66, 100
3, 13434, Note_on_c, 1, 66, 0
3, 13440, Note_on_c, 1, 67, 100
3, 13494, Note_on_c, 1, 67, 0
3, 13500, Note_on_c, 1, 69, 100
3, 13554, Note_on_c, 1, 69, 0
3, 13560, Note_on_c, 1, 71, 100
3, 13614, Note_on_c, 1, 71, 0
3, 13620, Note_on_c, 1, 67, 100
3, 13674, Note_on_c, 1, 67, 0
3, 13680, Note_on_c, 1, 64, 100
3, 13734, Note_on_c, 1, 64, 0
3, 13740, Note_on_c, 1, 66, 100
3, 13794, Note_on_c, 1, 66, 0
3, 13800, Note_on_c, 1, 67, 100
3, 13854, Note_on_c, 1, 67, 0
3, 13860, Note_on_c, 1, 64, 100
3, 13914, Note_on_c, 1, 64, 0
3, 13920, Note_on_c, 1, 60, 100
3, 13974, Note_on_c, 1, 60, 0
3, 13980, Note_on_c, 1, 62, 100
3, 14034, Note_on_c, 1, 62, 0
3, 14040, Note_on_c, 1, 64, 100
3, 14094, Note_on_c, 1, 64, 0
3, 14100, Note_on_c, 1, 60, 100
3, 14154, Note_on_c, 1, 60, 0
3, 14160, Note_on_c, 1, 57, 100
3, 14214, Note_on_c, 1, 57, 0
3, 14220, Note_on_c, 1, 59, 100
3, 14274, Note_on_c, 1, 59, 0
3, 14280, Note_on_c, 1, 60, 100
3, 14334, Note_on_c, 1, 60, 0
3, 14340, Note_on_c, 1, 57, 100
3, 14394, Note_on_c, 1, 57, 0
3, 14400, Note_on_c, 1, 54, 100
3, 14508, Note_on_c, 1, 54, 0
3, 14520, Note_on_c, 1, 47, 100
3, 14628, Note_on_c, 1, 47, 0
3, 14760, Note_on_c, 1, 59, 100
3, 14868, Note_on_c, 1, 59, 0
3, 14880, Note_on_c, 1, 59, 100
3, 14988, Note_on_c, 1, 59, 0
3, 15000, Note_on_c, 1, 52, 100
3, 15108, Note_on_c, 1, 52, 0
3, 15180, Note_on_c, 1, 52, 100
3, 15234, Note_on_c, 1, 52, 0
3, 15240, Note_on_c, 1, 50, 100
3, 15294, Note_on_c, 1, 50, 0
3, 15300, Note_on_c, 1, 52, 100
3, 15354, Note_on_c, 1, 52, 0
3, 15360, Note_on_c, 1, 45, 100
3, 15468, Note_on_c, 1, 45, 0
3, 15480, Note_on_c, 1, 52, 100
3, 15588, Note_on_c, 1, 52, 0
3, 15600, Note_on_c, 1, 52, 100
3, 15708, Note_on_c, 1, 52, 0
3, 15720, Note_on_c, 1, 45, 100
3, 15828, Note_on_c, 1, 45, 0
3, 15960, Note_on_c, 1, 57, 100
3, 16068, Note_on_c, 1, 57, 0
3, 16080, Note_on_c, 1, 62, 100
3, 16188, Note_on_c, 1, 62, 0
3, 16200, Note_on_c, 1, 50, 100
3, 16308, Note_on_c, 1, 50, 0
3, 16440, Note_on_c, 1, 62, 100
3, 16548, Note_on_c, 1, 62, 0
3, 16560, Note_on_c, 1, 62, 100
3, 16668, Note_on_c, 1, 62, 0
3, 16680, Note_on_c, 1, 50, 100
3, 16788, Note_on_c, 1, 50, 0
3, 16920, Note_on_c, 1, 62, 100
3, 17028, Note_on_c, 1, 62, 0
3, 17040, Note_on_c, 1, 62, 100
3, 17094, Note_on_c, 1, 62, 0
3, 17100, Note_on_c, 1, 64, 100
3, 17154, Note_on_c, 1, 64, 0
3, 17160, Note_on_c, 1, 62, 100
3, 17214, Note_on_c, 1, 62, 0
3, 17220, Note_on_c, 1, 60, 100
3, 17274, Note_on_c, 1, 60, 0
3, 17280, Note_on_c, 1, 59, 100
3, 17334, Note_on_c, 1, 59, 0
3, 17340, Note_on_c, 1, 60, 100
3, 17394, Note_on_c, 1, 60, 0
3, 17400, Note_on_c, 1, 62, 100
3, 17454, Note_on_c, 1, 62, 0
3, 17460, Note_on_c, 1, 59, 100
3, 17514, Note_on_c, 1, 59, 0
3, 17520, Note_on_c, 1, 55, 100
3, 17574, Note_on_c, 1, 55, 0
3, 17580, Note_on_c, 1, 57, 100
3, 17634, Note_on_c, 1, 57, 0
3, 17640, Note_on_c, 1, 59, 100
3, 17694, Note_on_c, 1, 59, 0
3, 17700, Note_on_c, 1, 55, 100
3, 17754, Note_on_c, 1, 55, 0
3, 17760, Note_on_c, 1, 60, 100
3, 17868, Note_on_c, 1, 60, 0
3, 17880, Note_on_c, 1, 55, 100
3, 17988, Note_on_c, 1, 55, 0
3, 18000, Note_on_c, 1, 52, 100
3, 18108, Note_on_c, 1, 52, 0
3, 18120, Note_on_c, 1, 57, 100
3, 18228, Note_on_c, 1, 57, 0
3, 18240, Note_on_c, 1, 50, 100
3, 18348, Note_on_c, 1, 50, 0
3, 18360, Note_on_c, 1, 62, 100
3, 18468, Note_on_c, 1, 62, 0
3, 18480, Note_on_c, 1, 57, 100
3, 18588, Note_on_c, 1, 57, 0
3, 18600, Note_on_c, 1, 50, 100
3, 18708, Note_on_c, 1, 50, 0
3, 18720, Note_on_c, 1, 55, 100
3, 18828, Note_on_c, 1, 55, 0
3, 18840, Note_on_c, 1, 48, 100
3, 18948, Note_on_c, 1, 48, 0
3, 18960, Note_on_c, 1, 50, 100
3, 19068, Note_on_c, 1, 50, 0
3, 19080, Note_on_c, 1, 38, 100
3, 19188, Note_on_c, 1, 38, 0
3, 19200, Note_on_c, 1, 43, 100
3, 19254, Note_on_c, 1, 43, 0
3, 19260, Note_on_c, 1, 55, 100
3, 19314, Note_on_c, 1, 55, 0
3, 19320, Note_on_c, 1, 57, 100
3, 19374, Note_on_c, 1, 57, 0
3, 19380, Note_on_c, 1, 59, 100
3, 19434, Note_on_c, 1, 59, 0
3, 19440, Note_on_c, 1, 60, 100
3, 19494, Note_on_c, 1, 60, 0
3, 19500, Note_on_c, 1, 62, 100
3, 19554, Note_on_c, 1, 62, 0
3, 19560, Note_on_c, 1, 64, 100
3, 19614, Note_on_c, 1, 64, 0
3, 19620, Note_on_c, 1, 66, 100
3, 19674, Note_on_c, 1, 66, 0
3, 19680, Note_on_c, 1, 67, 100
3, 19734, Note_on_c, 1, 67, 0
3, 19740, Note_on_c, 1, 64, 100
3, 19794, Note_on_c, 1, 64, 0
3, 19800, Note_on_c, 1, 62, 100
3, 19854, Note_on_c, 1, 62, 0
3, 19860, Note_on_c, 1, 60, 100
3, 19914, Note_on_c, 1, 60, 0
3, 19920, Note_on_c, 1, 67, 100
3, 20028, Note_on_c, 1, 67, 0
3, 20040, Note_on_c, 1, 55, 100
3, 20148, Note_on_c, 1, 55, 0
3, 20160, Note_on_c, 1, 60, 100
3, 20160, Note_on_c, 1, 64, 100
3, 20268, Note_on_c, 1, 64, 0
3, 20268, Note_on_c, 1, 60, 0
3, 20280, Note_on_c, 1, 55, 100
3, 20280, Note_on_c, 1, 67, 100
3, 20388, Note_on_c, 1, 67, 0
3, 20388, Note_on_c, 1, 55, 0
3, 20400, Note_on_c, 1, 60, 100
3, 20400, Note_on_c, 1, 64, 100
3, 20508, Note_on_c, 1, 64, 0
3, 20508, Note_on_c, 1, 60, 0
3, 20520, Note_on_c, 1, 55, 100
3, 20520, Note_on_c, 1, 67, 100
3, 20628, Note_on_c, 1, 67, 0
3, 20628, Note_on_c, 1, 55, 0
3, 20640, Note_on_c, 1, 60, 100
3, 20640, Note_on_c, 1, 64, 100
3, 20856, Note_on_c, 1, 64, 0
3, 20856, Note_on_c, 1, 60, 0
3, 21000, Note_on_c, 1, 52, 100
3, 21000, Note_on_c, 1, 62, 100
3, 21108, Note_on_c, 1, 62, 0
3, 21108, Note_on_c, 1, 52, 0
3, 21120, Note_on_c, 1, 57, 100
3, 21120, Note_on_c, 1, 60, 100
3, 21228, Note_on_c, 1, 60, 0
3, 21228, Note_on_c, 1, 57, 0
3, 21240, Note_on_c, 1, 52, 100
3, 21240, Note_on_c, 1, 64, 100
3, 21348, Note_on_c, 1, 64, 0
3, 21348, Note_on_c, 1, 52, 0
3, 21360, Note_on_c, 1, 57, 100
3, 21360, Note_on_c, 1, 60, 100
3, 21468, Note_on_c, 1, 60, 0
3, 21468, Note_on_c, 1, 57, 0
3, 21480, Note_on_c, 1, 52, 100
3, 21480, Note_on_c, 1, 64, 100
3, 21588, Note_on_c, 1, 64, 0
3, 21588, Note_on_c, 1, 52, 0
3, 21600, Note_on_c, 1, 57, 100
3, 21600, Note_on_c, 1, 60, 100
3, 21816, Note_on_c, 1, 60, 0
3, 21816, Note_on_c, 1, 57, 0
3, 21960, Note_on_c, 1, 57, 100
3, 21960, Note_on_c, 1, 69, 100
3, 22068, Note_on_c, 1, 69, 0
3, 22068, Note_on_c, 1, 57, 0
3, 22080, Note_on_c, 1, 62, 100
3, 22080, Note_on_c, 1, 69, 100
3, 22188, Note_on_c, 1, 69, 0
3, 22188, Note_on_c, 1, 62, 0
3, 22200, Note_on_c, 1, 57, 100
3, 22200, Note_on_c, 1, 69, 100
3, 22308, Note_on_c, 1, 69, 0
3, 22308, Note_on_c, 1, 57, 0
3, 22320, Note_on_c, 1, 62, 100
3, 22320, Note_on_c, 1, 69, 100
3, 22428, Note_on_c, 1, 69, 0
3, 22428, Note_on_c, 1, 62, 0
3, 22440, Note_on_c, 1, 57, 100
3, 22440, Note_on_c, 1, 69, 100
3, 22548, Note_on_c, 1, 69, 0
3, 22548, Note_on_c, 1, 57, 0
3, 22560, Note_on_c, 1, 62, 100
3, 22560, Note_on_c, 1, 69, 100
3, 22668, Note_on_c, 1, 69, 0
3, 22668, Note_on_c, 1, 62, 0
3, 22860, Note_on_c, 1, 55, 100
3, 22914, Note_on_c, 1, 55, 0
3, 22920, Note_on_c, 1, 57, 100
3, 22974, Note_on_c, 1, 57, 0
3, 22980, Note_on_c, 1, 59, 100
3, 23034, Note_on_c, 1, 59, 0
3, 23040, Note_on_c, 1, 60, 100
3, 23148, Note_on_c, 1, 60, 0
3, 23340, Note_on_c, 1, 59, 100
3, 23394, Note_on_c, 1, 59, 0
3, 23400, Note_on_c, 1, 57, 100
3, 23454, Note_on_c, 1, 57, 0
3, 23460, Note_on_c, 1, 55, 100
3, 23514, Note_on_c, 1, 55, 0
3, 23520, Note_on_c, 1, 54, 100
3, 23628, Note_on_c, 1, 54, 0
3, 23820, Note_on_c, 1, 56, 100
3, 23874, Note_on_c, 1, 56, 0
3, 23880, Note_on_c, 1, 54, 100
3, 23934, Note_on_c, 1, 54, 0
3, 23940, Note_on_c, 1, 52, 100
3, 23994, Note_on_c, 1, 52, 0
3, 24000, Note_on_c, 1, 57, 100
3, 24108, Note_on_c, 1, 57, 0
3, 24300, Note_on_c, 1, 55, 100
3, 24354, Note_on_c, 1, 55, 0
3, 24360, Note_on_c, 1, 53, 100
3, 24414, Note_on_c, 1, 53, 0
3, 24420, Note_on_c, 1, 52, 100
3, 24474, Note_on_c, 1, 52, 0
3, 24480, Note_on_c, 1, 50, 100
3, 24588, Note_on_c, 1, 50, 0
3, 24780, Note_on_c, 1, 52, 100
3, 24834, Note_on_c, 1, 52, 0
3, 24840, Note_on_c, 1, 50, 100
3, 24894, Note_on_c, 1, 50, 0
3, 24900, Note_on_c, 1, 48, 100
3, 24954, Note_on_c, 1, 48, 0
3, 24960, Note_on_c, 1, 53, 100
3, 25068, Note_on_c, 1, 53, 0
3, 25260, Note_on_c, 1, 52, 100
3, 25314, Note_on_c, 1, 52, 0
3, 25320, Note_on_c, 1, 50, 100
3, 25374, Note_on_c, 1, 50, 0
3, 25380, Note_on_c, 1, 48, 100
3, 25434, Note_on_c, 1, 48, 0
3, 25440, Note_on_c, 1, 47, 100
3, 25548, Note_on_c, 1, 47, 0
3, 25740, Note_on_c, 1, 50, 100
3, 25794, Note_on_c, 1, 50, 0
3, 25800, Note_on_c, 1, 48, 100
3, 25854, Note_on_c, 1, 48, 0
3, 25860, Note_on_c, 1, 47, 100
3, 25914, Note_on_c, 1, 47, 0
3, 25920, Note_on_c, 1, 45, 100
3, 26028, Note_on_c, 1, 45, 0
3, 26220, Note_on_c, 1, 47, 100
3, 26274, Note_on_c, 1, 47, 0
3, 26280, Note_on_c, 1, 45, 100
3, 26334, Note_on_c, 1, 45, 0
3, 26340, Note_on_c, 1, 43, 100
3, 26394, Note_on_c, 1, 43, 0
3, 26400, Note_on_c, 1, 48, 100
3, 26508, Note_on_c, 1, 48, 0
3, 26700, Note_on_c, 1, 60, 100
3, 26754, Note_on_c, 1, 60, 0
3, 26760, Note_on_c, 1, 62, 100
3, 26814, Note_on_c, 1, 62, 0
3, 26820, Note_on_c, 1, 64, 100
3, 26874, Note_on_c, 1, 64, 0
3, 26880, Note_on_c, 1, 65, 100
3, 26934, Note_on_c, 1, 65, 0
3, 26940, Note_on_c, 1, 67, 100
3, 26994, Note_on_c, 1, 67, 0
3, 27000, Note_on_c, 1, 69, 100
3, 27054, Note_on_c, 1, 69, 0
3, 27060, Note_on_c, 1, 65, 100
3, 27114, Note_on_c, 1, 65, 0
3, 27120, Note_on_c, 1, 62, 100
3, 27174, Note_on_c, 1, 62, 0
3, 27180, Note_on_c, 1, 64, 100
3, 27234, Note_on_c, 1, 64, 0
3, 27240, Note_on_c, 1, 65, 100
3, 27294, Note_on_c, 1, 65, 0
3, 27300, Note_on_c, 1, 62, 100
3, 27354, Note_on_c, 1, 62, 0
3, 27360, Note_on_c, 1, 59, 100
3, 27414, Note_on_c, 1, 59, 0
3, 27420, Note_on_c, 1, 60, 100
3, 27474, Note_on_c, 1, 60, 0
3, 27480, Note_on_c, 1, 62, 100
3, 27534, Note_on_c, 1, 62, 0
3, 27540, Note_on_c, 1, 59, 100
3, 27594, Note_on_c, 1, 59, 0
3, 27600, Note_on_c, 1, 55, 100
3, 27654, Note_on_c, 1, 55, 0
3, 27660, Note_on_c, 1, 57, 100
3, 27714, Note_on_c, 1, 57, 0
3, 27720, Note_on_c, 1, 59, 100
3, 27774, Note_on_c, 1, 59, 0
3, 27780, Note_on_c, 1, 55, 100
3, 27834, Note_on_c, 1, 55, 0
3, 27840, Note_on_c, 1, 60, 100
3, 27948, Note_on_c, 1, 60, 0
3, 27960, Note_on_c, 1, 55, 100
3, 28068, Note_on_c, 1, 55, 0
3, 28080, Note_on_c, 1, 60, 100
3, 28188, Note_on_c, 1, 60, 0
3, 28200, Note_on_c, 1, 55, 100
3, 28308, Note_on_c, 1, 55, 0
3, 28320, Note_on_c, 1, 60, 100
3, 28428, Note_on_c, 1, 60, 0
3, 28440, Note_on_c, 1, 59, 100
3, 28494, Note_on_c, 1, 59, 0
3, 28500, Note_on_c, 1, 57, 100
3, 28554, Note_on_c, 1, 57, 0
3, 28560, Note_on_c, 1, 55, 100
3, 28668, Note_on_c, 1, 55, 0
3, 28680, Note_on_c, 1, 57, 100
3, 28734, Note_on_c, 1, 57, 0
3, 28740, Note_on_c, 1, 59, 100
3, 28794, Note_on_c, 1, 59, 0
3, 28800, Note_on_c, 1, 60, 100
3, 28908, Note_on_c, 1, 60, 0
3, 28920, Note_on_c, 1, 59, 100
3, 28974, Note_on_c, 1, 59, 0
3, 28980, Note_on_c, 1, 57, 100
3, 29034, Note_on_c, 1, 57, 0
3, 29040, Note_on_c, 1, 55, 100
3, 29148, Note_on_c, 1, 55, 0
3, 29160, Note_on_c, 1, 53, 100
3, 29268, Note_on_c, 1, 53, 0
3, 29280, Note_on_c, 1, 52, 100
3, 29388, Note_on_c, 1, 52, 0
3, 29820, Note_on_c, 1, 65, 100
3, 29874, Note_on_c, 1, 65, 0
3, 29880, Note_on_c, 1, 60, 100
3, 29934, Note_on_c, 1, 60, 0
3, 29940, Note_on_c, 1, 57, 100
3, 29994, Note_on_c, 1, 57, 0
3, 30000, Note_on_c, 1, 53, 100
3, 30054, Note_on_c, 1, 53, 0
3, 30060, Note_on_c, 1, 57, 100
3, 30114, Note_on_c, 1, 57, 0
3, 30120, Note_on_c, 1, 60, 100
3, 30174, Note_on_c, 1, 60, 0
3, 30180, Note_on_c, 1, 65, 100
3, 30234, Note_on_c, 1, 65, 0
3, 30240, Note_on_c, 1, 54, 100
3, 30348, Note_on_c, 1, 54, 0
3, 34200, Note_on_c, 1, 54, 100
3, 34227, Note_on_c, 1, 54, 0
3, 34230, Note_on_c, 1, 62, 100
3, 34257, Note_on_c, 1, 62, 0
3, 34260, Note_on_c, 1, 60, 100
3, 34287, Note_on_c, 1, 60, 0
3, 34290, Note_on_c, 1, 62, 100
3, 34317, Note_on_c, 1, 62, 0
3, 34440, Note_on_c, 1, 54, 100
3, 34467, Note_on_c, 1, 54, 0
3, 34470, Note_on_c, 1, 62, 100
3, 34497, Note_on_c, 1, 62, 0
3, 34500, Note_on_c, 1, 60, 100
3, 34527, Note_on_c, 1, 60, 0
3, 34530, Note_on_c, 1, 62, 100
3, 34557, Note_on_c, 1, 62, 0
3, 34560, Note_on_c, 1, 55, 100
3, 34614, Note_on_c, 1, 55, 0
3, 34620, Note_on_c, 1, 57, 100
3, 34674, Note_on_c, 1, 57, 0
3, 34680, Note_on_c, 1, 59, 100
3, 34734, Note_on_c, 1, 59, 0
3, 34740, Note_on_c, 1, 60, 100
3, 34794, Note_on_c, 1, 60, 0
3, 37440, Note_on_c, 1, 64, 100
3, 37548, Note_on_c, 1, 64, 0
3, 37560, Note_on_c, 1, 55, 100
3, 37668, Note_on_c, 1, 55, 0
3, 37680, Note_on_c, 1, 60, 100
3, 37788, Note_on_c, 1, 60, 0
3, 37800, Note_on_c, 1, 55, 100
3, 37908, Note_on_c, 1, 55, 0
3, 37920, Note_on_c, 1, 60, 100
3, 38028, Note_on_c, 1, 60, 0
3, 38040, Note_on_c, 1, 59, 100
3, 38094, Note_on_c, 1, 59, 0
3, 38100, Note_on_c, 1, 57, 100
3, 38154, Note_on_c, 1, 57, 0
3, 38160, Note_on_c, 1, 55, 100
3, 38268, Note_on_c, 1, 55, 0
3, 38280, Note_on_c, 1, 57, 100
3, 38334, Note_on_c, 1, 57, 0
3, 38340, Note_on_c, 1, 59, 100
3, 38394, Note_on_c, 1, 59, 0
3, 38400, Note_on_c, 1, 60, 100
3, 38508, Note_on_c, 1, 60, 0
3, 38520, Note_on_c, 1, 59, 100
3, 38574, Note_on_c, 1, 59, 0
3, 38580, Note_on_c, 1, 57, 100
3, 38634, Note_on_c, 1, 57, 0
3, 38640, Note_on_c, 1, 55, 100
3, 38748, Note_on_c, 1, 55, 0
3, 38760, Note_on_c, 1, 53, 100
3, 38868, Note_on_c, 1, 53, 0
3, 38880, Note_on_c, 1, 52, 100
3, 38934, Note_on_c, 1, 52, 0
3, 38940, Note_on_c, 1, 53, 100
3, 38994, Note_on_c, 1, 53, 0
3, 39000, Note_on_c, 1, 55, 100
3, 39054, Note_on_c, 1, 55, 0
3, 39060, Note_on_c, 1, 52, 100
3, 39114, Note_on_c, 1, 52, 0
3, 39120, Note_on_c, 1, 48, 100
3, 39174, Note_on_c, 1, 48, 0
3, 39180, Note_on_c, 1, 50, 100
3, 39234, Note_on_c, 1, 50, 0
3, 39240, Note_on_c, 1, 52, 100
3, 39294, Note_on_c, 1, 52, 0
3, 39300, Note_on_c, 1, 53, 100
3, 39354, Note_on_c, 1, 53, 0
3, 39360, Note_on_c, 1, 55, 100
3, 39576, Note_on_c, 1, 55, 0
3, 39600, Note_on_c, 1, 43, 100
3, 39816, Note_on_c, 1, 43, 0
3, 39840, Note_on_c, 1, 48, 100
3, 40056, Note_on_c, 1, 48, 0
3, 42240, Note_on_c, 1, 57, 100
3, 42294, Note_on_c, 1, 57, 0
3, 42300, Note_on_c, 1, 55, 100
3, 42354, Note_on_c, 1, 55, 0
3, 42360, Note_on_c, 1, 53, 100
3, 42414, Note_on_c, 1, 53, 0
3, 42420, Note_on_c, 1, 52, 100
3, 42474, Note_on_c, 1, 52, 0
3, 42480, Note_on_c, 1, 50, 100
3, 42534, Note_on_c, 1, 50, 0
3, 42540, Note_on_c, 1, 62, 100
3, 42594, Note_on_c, 1, 62, 0
3, 42600, Note_on_c, 1, 61, 100
3, 42654, Note_on_c, 1, 61, 0
3, 42660, Note_on_c, 1, 62, 100
3, 42714, Note_on_c, 1, 62, 0
3, 42720, Note_on_c, 1, 64, 100
3, 42774, Note_on_c, 1, 64, 0
3, 42780, Note_on_c, 1, 62, 100
3, 42834, Note_on_c, 1, 62, 0
3, 42840, Note_on_c, 1, 61, 100
3, 42894, Note_on_c, 1, 61, 0
3, 42900, Note_on_c, 1, 59, 100
3, 42954, Note_on_c, 1, 59, 0
3, 42960, Note_on_c, 1, 57, 100
3, 43068, Note_on_c, 1, 57, 0
3, 43080, Note_on_c, 1, 65, 100
3, 43188, Note_on_c, 1, 65, 0
3, 43200, Note_on_c, 1, 64, 100
3, 43308, Note_on_c, 1, 64, 0
3, 43320, Note_on_c, 1, 62, 100
3, 43428, Note_on_c, 1, 62, 0
3, 43440, Note_on_c, 1, 64, 100
3, 43548, Note_on_c, 1, 64, 0
3, 43560, Note_on_c, 1, 61, 100
3, 43668, Note_on_c, 1, 61, 0
3, 43680, Note_on_c, 1, 62, 100
3, 43734, Note_on_c, 1, 62, 0
3, 43740, Note_on_c, 1, 65, 100
3, 43794, Note_on_c, 1, 65, 0
3, 43800, Note_on_c, 1, 69, 100
3, 43854, Note_on_c, 1, 69, 0
3, 43860, Note_on_c, 1, 67, 100
3, 43914, Note_on_c, 1, 67, 0
3, 43920, Note_on_c, 1, 69, 100
3, 43974, Note_on_c, 1, 69, 0
3, 43980, Note_on_c, 1, 67, 100
3, 44034, Note_on_c, 1, 67, 0
3, 44040, Note_on_c, 1, 65, 100
3, 44094, Note_on_c, 1, 65, 0
3, 44100, Note_on_c, 1, 69, 100
3, 44154, Note_on_c, 1, 69, 0
3, 44160, Note_on_c, 1, 59, 100
3, 44268, Note_on_c, 1, 59, 0
3, 44280, Note_on_c, 1, 62, 100
3, 44388, Note_on_c, 1, 62, 0
3, 44400, Note_on_c, 1, 59, 100
3, 44508, Note_on_c, 1, 59, 0
3, 44520, Note_on_c, 1, 55, 100
3, 44628, Note_on_c, 1, 55, 0
3, 44640, Note_on_c, 1, 60, 100
3, 44748, Note_on_c, 1, 60, 0
3, 44760, Note_on_c, 1, 64, 100
3, 44868, Note_on_c, 1, 64, 0
3, 44880, Note_on_c, 1, 57, 100
3, 44988, Note_on_c, 1, 57, 0
3, 45000, Note_on_c, 1, 60, 100
3, 45108, Note_on_c, 1, 60, 0
3, 45120, Note_on_c, 1, 54, 100
3, 45174, Note_on_c, 1, 54, 0
3, 45180, Note_on_c, 1, 51, 100
3, 45234, Note_on_c, 1, 51, 0
3, 45240, Note_on_c, 1, 52, 100
3, 45294, Note_on_c, 1, 52, 0
3, 45300, Note_on_c, 1, 54, 100
3, 45354, Note_on_c, 1, 54, 0
3, 45360, Note_on_c, 1, 55, 100
3, 45468, Note_on_c, 1, 55, 0
3, 45480, Note_on_c, 1, 52, 100
3, 45588, Note_on_c, 1, 52, 0
3, 45600, Note_on_c, 1, 59, 100
3, 45708, Note_on_c, 1, 59, 0
3, 45720, Note_on_c, 1, 54, 100
3, 45828, Note_on_c, 1, 54, 0
3, 45840, Note_on_c, 1, 55, 100
3, 45948, Note_on_c, 1, 55, 0
3, 45960, Note_on_c, 1, 60, 100
3, 46014, Note_on_c, 1, 60, 0
3, 46020, Note_on_c, 1, 59, 100
3, 46074, Note_on_c, 1, 59, 0
3, 46080, Note_on_c, 1, 57, 100
3, 46134, Note_on_c, 1, 57, 0
3, 46140, Note_on_c, 1, 60, 100
3, 46194, Note_on_c, 1, 60, 0
3, 46200, Note_on_c, 1, 59, 100
3, 46254, Note_on_c, 1, 59, 0
3, 46260, Note_on_c, 1, 55, 100
3, 46314, Note_on_c, 1, 55, 0
3, 46320, Note_on_c, 1, 54, 100
3, 46428, Note_on_c, 1, 54, 0
3, 46440, Note_on_c, 1, 59, 100
3, 46494, Note_on_c, 1, 59, 0
3, 46500, Note_on_c, 1, 57, 100
3, 46554, Note_on_c, 1, 57, 0
3, 46560, Note_on_c, 1, 55, 100
3, 46614, Note_on_c, 1, 55, 0
3, 46620, Note_on_c, 1, 59, 100
3, 46674, Note_on_c, 1, 59, 0
3, 46680, Note_on_c, 1, 52, 100
3, 46734, Note_on_c, 1, 52, 0
3, 46740, Note_on_c, 1, 54, 100
3, 46794, Note_on_c, 1, 54, 0
3, 46800, Note_on_c, 1, 55, 100
3, 46854, Note_on_c, 1, 55, 0
3, 46860, Note_on_c, 1, 54, 100
3, 46914, Note_on_c, 1, 54, 0
3, 46920, Note_on_c, 1, 52, 100
3, 46974, Note_on_c, 1, 52, 0
3, 46980, Note_on_c, 1, 55, 100
3, 47034, Note_on_c, 1, 55, 0
3, 47040, Note_on_c, 1, 64, 100
3, 47094, Note_on_c, 1, 64, 0
3, 47100, Note_on_c, 1, 60, 100
3, 47154, Note_on_c, 1, 60, 0
3, 47160, Note_on_c, 1, 64, 100
3, 47214, Note_on_c, 1, 64, 0
3, 47220, Note_on_c, 1, 62, 100
3, 47274, Note_on_c, 1, 62, 0
3, 47280, Note_on_c, 1, 64, 100
3, 47334, Note_on_c, 1, 64, 0
3, 47340, Note_on_c, 1, 62, 100
3, 47394, Note_on_c, 1, 62, 0
3, 47400, Note_on_c, 1, 60, 100
3, 47454, Note_on_c, 1, 60, 0
3, 47460, Note_on_c, 1, 62, 100
3, 47514, Note_on_c, 1, 62, 0
3, 47520, Note_on_c, 1, 57, 100
3, 47574, Note_on_c, 1, 57, 0
3, 47580, Note_on_c, 1, 66, 100
3, 47634, Note_on_c, 1, 66, 0
3, 47640, Note_on_c, 1, 69, 100
3, 47694, Note_on_c, 1, 69, 0
3, 47700, Note_on_c, 1, 67, 100
3, 47754, Note_on_c, 1, 67, 0
3, 47760, Note_on_c, 1, 69, 100
3, 47814, Note_on_c, 1, 69, 0
3, 47820, Note_on_c, 1, 67, 100
3, 47874, Note_on_c, 1, 67, 0
3, 47880, Note_on_c, 1, 66, 100
3, 47934, Note_on_c, 1, 66, 0
3, 47940, Note_on_c, 1, 69, 100
3, 47994, Note_on_c, 1, 69, 0
3, 48000, Note_on_c, 1, 62, 100
3, 48054, Note_on_c, 1, 62, 0
3, 48060, Note_on_c, 1, 59, 100
3, 48114, Note_on_c, 1, 59, 0
3, 48120, Note_on_c, 1, 55, 100
3, 48174, Note_on_c, 1, 55, 0
3, 48180, Note_on_c, 1, 67, 100
3, 48234, Note_on_c, 1, 67, 0
3, 48240, Note_on_c, 1, 62, 100
3, 48294, Note_on_c, 1, 62, 0
3, 48300, Note_on_c, 1, 59, 100
3, 48354, Note_on_c, 1, 59, 0
3, 48360, Note_on_c, 1, 60, 100
3, 48414, Note_on_c, 1, 60, 0
3, 48420, Note_on_c, 1, 62, 100
3, 48474, Note_on_c, 1, 62, 0
3, 48480, Note_on_c, 1, 60, 100
3, 48534, Note_on_c, 1, 60, 0
3, 48540, Note_on_c, 1, 48, 100
3, 48594, Note_on_c, 1, 48, 0
3, 48600, Note_on_c, 1, 52, 100
3, 48654, Note_on_c, 1, 52, 0
3, 48660, Note_on_c, 1, 55, 100
3, 48714, Note_on_c, 1, 55, 0
3, 48720, Note_on_c, 1, 60, 100
3, 48774, Note_on_c, 1, 60, 0
3, 48780, Note_on_c, 1, 59, 100
3, 48834, Note_on_c, 1, 59, 0
3, 48840, Note_on_c, 1, 57, 100
3, 48894, Note_on_c, 1, 57, 0
3, 48900, Note_on_c, 1, 55, 100
3, 48954, Note_on_c, 1, 55, 0
3, 48960, Note_on_c, 1, 54, 100
3, 49068, Note_on_c, 1, 54, 0
3, 49080, Note_on_c, 1, 48, 100
3, 49188, Note_on_c, 1, 48, 0
3, 49200, Note_on_c, 1, 45, 100
3, 49308, Note_on_c, 1, 45, 0
3, 49320, Note_on_c, 1, 54, 100
3, 49494, Note_on_c, 1, 54, 0
3, 49500, Note_on_c, 1, 47, 100
3, 49554, Note_on_c, 1, 47, 0
3, 49560, Note_on_c, 1, 51, 100
3, 49614, Note_on_c, 1, 51, 0
3, 49620, Note_on_c, 1, 54, 100
3, 49674, Note_on_c, 1, 54, 0
3, 49680, Note_on_c, 1, 59, 100
3, 49734, Note_on_c, 1, 59, 0
3, 49740, Note_on_c, 1, 57, 100
3, 49794, Note_on_c, 1, 57, 0
3, 49800, Note_on_c, 1, 55, 100
3, 49854, Note_on_c, 1, 55, 0
3, 49860, Note_on_c, 1, 54, 100
3, 49914, Note_on_c, 1, 54, 0
3, 49920, Note_on_c, 1, 52, 100
3, 49974, Note_on_c, 1, 52, 0
3, 49980, Note_on_c, 1, 55, 100
3, 50034, Note_on_c, 1, 55, 0
3, 50040, Note_on_c, 1, 59, 100
3, 50094, Note_on_c, 1, 59, 0
3, 50100, Note_on_c, 1, 55, 100
3, 50154, Note_on_c, 1, 55, 0
3, 50160, Note_on_c, 1, 52, 100
3, 50214, Note_on_c, 1, 52, 0
3, 50220, Note_on_c, 1, 55, 100
3, 50247, Note_on_c, 1, 55, 0
3, 50250, Note_on_c, 1, 59, 100
3, 50277, Note_on_c, 1, 59, 0
3, 50280, Note_on_c, 1, 64, 100
3, 50334, Note_on_c, 1, 64, 0
3, 50340, Note_on_c, 1, 55, 100
3, 50394, Note_on_c, 1, 55, 0
3, 50400, Note_on_c, 1, 57, 100
3, 50454, Note_on_c, 1, 57, 0
3, 50460, Note_on_c, 1, 60, 100
3, 50514, Note_on_c, 1, 60, 0
3, 50520, Note_on_c, 1, 64, 100
3, 50574, Note_on_c, 1, 64, 0
3, 50580, Note_on_c, 1, 60, 100
3, 50634, Note_on_c, 1, 60, 0
3, 50640, Note_on_c, 1, 57, 100
3, 50694, Note_on_c, 1, 57, 0
3, 50700, Note_on_c, 1, 60, 100
3, 50727, Note_on_c, 1, 60, 0
3, 50730, Note_on_c, 1, 64, 100
3, 50757, Note_on_c, 1, 64, 0
3, 50760, Note_on_c, 1, 69, 100
3, 50814, Note_on_c, 1, 69, 0
3, 50820, Note_on_c, 1, 60, 100
3, 50874, Note_on_c, 1, 60, 0
3, 50880, Note_on_c, 1, 50, 100
3, 50934, Note_on_c, 1, 50, 0
3, 50940, Note_on_c, 1, 54, 100
3, 50994, Note_on_c, 1, 54, 0
3, 51000, Note_on_c, 1, 57, 100
3, 51054, Note_on_c, 1, 57, 0
3, 51060, Note_on_c, 1, 54, 100
3, 51114, Note_on_c, 1, 54, 0
3, 51120, Note_on_c, 1, 50, 100
3, 51174, Note_on_c, 1, 50, 0
3, 51180, Note_on_c, 1, 54, 100
3, 51207, Note_on_c, 1, 54, 0
3, 51210, Note_on_c, 1, 57, 100
3, 51237, Note_on_c, 1, 57, 0
3, 51240, Note_on_c, 1, 62, 100
3, 51294, Note_on_c, 1, 62, 0
3, 51300, Note_on_c, 1, 54, 100
3, 51354, Note_on_c, 1, 54, 0
3, 51360, Note_on_c, 1, 55, 100
3, 51414, Note_on_c, 1, 55, 0
3, 51420, Note_on_c, 1, 59, 100
3, 51474, Note_on_c, 1, 59, 0
3, 51480, Note_on_c, 1, 62, 100
3, 51534, Note_on_c, 1, 62, 0
3, 51540, Note_on_c, 1, 59, 100
3, 51594, Note_on_c, 1, 59, 0
3, 51600, Note_on_c, 1, 55, 100
3, 51654, Note_on_c, 1, 55, 0
3, 51660, Note_on_c, 1, 59, 100
3, 51687, Note_on_c, 1, 59, 0
3, 51690, Note_on_c, 1, 62, 100
3, 51717, Note_on_c, 1, 62, 0
3, 51720, Note_on_c, 1, 67, 100
3, 51774, Note_on_c, 1, 67, 0
3, 51780, Note_on_c, 1, 59, 100
3, 51834, Note_on_c, 1, 59, 0
3, 51840, Note_on_c, 1, 60, 100
3, 51894, Note_on_c, 1, 60, 0
3, 51900, Note_on_c, 1, 62, 100
3, 51954, Note_on_c, 1, 62, 0
3, 51960, Note_on_c, 1, 64, 100
3, 52014, Note_on_c, 1, 64, 0
3, 52020, Note_on_c, 1, 62, 100
3, 52074, Note_on_c, 1, 62, 0
3, 52080, Note_on_c, 1, 60, 100
3, 52134, Note_on_c, 1, 60, 0
3, 52140, Note_on_c, 1, 64, 100
3, 52194, Note_on_c, 1, 64, 0
3, 52200, Note_on_c, 1, 62, 100
3, 52254, Note_on_c, 1, 62, 0
3, 52260, Note_on_c, 1, 60, 100
3, 52314, Note_on_c, 1, 60, 0
3, 52320, Note_on_c, 1, 62, 100
3, 52374, Note_on_c, 1, 62, 0
3, 52380, Note_on_c, 1, 64, 100
3, 52434, Note_on_c, 1, 64, 0
3, 52440, Note_on_c, 1, 66, 100
3, 52494, Note_on_c, 1, 66, 0
3, 52500, Note_on_c, 1, 64, 100
3, 52554, Note_on_c, 1, 64, 0
3, 52560, Note_on_c, 1, 62, 100
3, 52614, Note_on_c, 1, 62, 0
3, 52620, Note_on_c, 1, 64, 100
3, 52674, Note_on_c, 1, 64, 0
3, 52680, Note_on_c, 1, 66, 100
3, 52734, Note_on_c, 1, 66, 0
3, 52740, Note_on_c, 1, 62, 100
3, 52794, Note_on_c, 1, 62, 0
3, 52800, Note_on_c, 1, 64, 100
3, 52854, Note_on_c, 1, 64, 0
3, 52860, Note_on_c, 1, 66, 100
3, 52914, Note_on_c, 1, 66, 0
3, 52920, Note_on_c, 1, 67, 100
3, 52974, Note_on_c, 1, 67, 0
3, 52980, Note_on_c, 1, 66, 100
3, 53034, Note_on_c, 1, 66, 0
3, 53040, Note_on_c, 1, 64, 100
3, 53094, Note_on_c, 1, 64, 0
3, 53100, Note_on_c, 1, 67, 100
3, 53154, Note_on_c, 1, 67, 0
3, 53160, Note_on_c, 1, 66, 100
3, 53214, Note_on_c, 1, 66, 0
3, 53220, Note_on_c, 1, 64, 100
3, 53274, Note_on_c, 1, 64, 0
3, 53280, Note_on_c, 1, 66, 100
3, 53334, Note_on_c, 1, 66, 0
3, 53340, Note_on_c, 1, 67, 100
3, 53394, Note_on_c, 1, 67, 0
3, 53400, Note_on_c, 1, 69, 100
3, 53454, Note_on_c, 1, 69, 0
3, 53460, Note_on_c, 1, 67, 100
3, 53514, Note_on_c, 1, 67, 0
3, 53520, Note_on_c, 1, 66, 100
3, 53574, Note_on_c, 1, 66, 0
3, 53580, Note_on_c, 1, 69, 100
3, 53634, Note_on_c, 1, 69, 0
3, 53640, Note_on_c, 1, 67, 100
3, 53694, Note_on_c, 1, 67, 0
3, 53700, Note_on_c, 1, 66, 100
3, 53754, Note_on_c, 1, 66, 0
3, 53760, Note_on_c, 1, 67, 100
3, 53814, Note_on_c, 1, 67, 0
3, 53820, Note_on_c, 1, 71, 100
3, 53874, Note_on_c, 1, 71, 0
3, 53880, Note_on_c, 1, 69, 100
3, 53934, Note_on_c, 1, 69, 0
3, 53940, Note_on_c, 1, 71, 100
3, 53994, Note_on_c, 1, 71, 0
3, 54000, Note_on_c, 1, 67, 100
3, 54054, Note_on_c, 1, 67, 0
3, 54060, Note_on_c, 1, 71, 100
3, 54114, Note_on_c, 1, 71, 0
3, 54120, Note_on_c, 1, 69, 100
3, 54174, Note_on_c, 1, 69, 0
3, 54180, Note_on_c, 1, 71, 100
3, 54234, Note_on_c, 1, 71, 0
3, 54240, Note_on_c, 1, 67, 100
3, 54348, Note_on_c, 1, 67, 0
3, 54360, Note_on_c, 1, 62, 100
3, 54468, Note_on_c, 1, 62, 0
3, 54600, Note_on_c, 1, 67, 100
3, 54654, Note_on_c, 1, 67, 0
3, 54660, Note_on_c, 1, 62, 100
3, 54714, Note_on_c, 1, 62, 0
3, 54720, Note_on_c, 1, 55, 100
3, 54828, Note_on_c, 1, 55, 0
3, 54840, Note_on_c, 1, 62, 100
3, 54948, Note_on_c, 1, 62, 0
3, 54960, Note_on_c, 1, 50, 100
3, 55068, Note_on_c, 1, 50, 0
3, 55080, Note_on_c, 1, 62, 100
3, 55254, Note_on_c, 1, 62, 0
3, 55260, Note_on_c, 1, 67, 100
3, 55314, Note_on_c, 1, 67, 0
3, 55320, Note_on_c, 1, 64, 100
3, 55374, Note_on_c, 1, 64, 0
3, 55380, Note_on_c, 1, 60, 100
3, 55434, Note_on_c, 1, 60, 0
3, 55440, Note_on_c, 1, 62, 100
3, 55548, Note_on_c, 1, 62, 0
3, 55560, Note_on_c, 1, 50, 100
3, 55668, Note_on_c, 1, 50, 0
3, 55680, Note_on_c, 1, 55, 100
3, 55788, Note_on_c, 1, 55, 0
3, 55800, Note_on_c, 1, 50, 100
3, 55908, Note_on_c, 1, 50, 0
3, 55920, Note_on_c, 1, 55, 100
3, 56028, Note_on_c, 1, 55, 0
3, 56040, Note_on_c, 1, 50, 100
3, 56148, Note_on_c, 1, 50, 0
3, 56160, Note_on_c, 1, 55, 100
3, 56268, Note_on_c, 1, 55, 0
3, 56280, Note_on_c, 1, 54, 100
3, 56334, Note_on_c, 1, 54, 0
3, 56340, Note_on_c, 1, 52, 100
3, 56394, Note_on_c, 1, 52, 0
3, 56400, Note_on_c, 1, 50, 100
3, 56508, Note_on_c, 1, 50, 0
3, 56520, Note_on_c, 1, 52, 100
3, 56574, Note_on_c, 1, 52, 0
3, 56580, Note_on_c, 1, 54, 100
3, 56634, Note_on_c, 1, 54, 0
3, 56640, Note_on_c, 1, 55, 100
3, 56748, Note_on_c, 1, 55, 0
3, 56760, Note_on_c, 1, 54, 100
3, 56814, Note_on_c, 1, 54, 0
3, 56820, Note_on_c, 1, 52, 100
3, 56874, Note_on_c, 1, 52, 0
3, 56880, Note_on_c, 1, 50, 100
3, 56934, Note_on_c, 1, 50, 0
3, 56940, Note_on_c, 1, 48, 100
3, 56994, Note_on_c, 1, 48, 0
3, 57000, Note_on_c, 1, 47, 100
3, 57054, Note_on_c, 1, 47, 0
3, 57060, Note_on_c, 1, 45, 100
3, 57114, Note_on_c, 1, 45, 0
3, 57120, Note_on_c, 1, 47, 100
3, 57228, Note_on_c, 1, 47, 0
3, 58200, Note_on_c, 1, 55, 100
3, 58254, Note_on_c, 1, 55, 0
3, 58260, Note_on_c, 1, 67, 100
3, 58314, Note_on_c, 1, 67, 0
3, 58320, Note_on_c, 1, 57, 100
3, 58374, Note_on_c, 1, 57, 0
3, 58380, Note_on_c, 1, 69, 100
3, 58434, Note_on_c, 1, 69, 0
3, 58440, Note_on_c, 1, 59, 100
3, 58494, Note_on_c, 1, 59, 0
3, 58500, Note_on_c, 1, 71, 100
3, 58554, Note_on_c, 1, 71, 0
3, 58560, Note_on_c, 1, 60, 100
3, 58614, Note_on_c, 1, 60, 0
3, 58620, Note_on_c, 1, 72, 100
3, 58674, Note_on_c, 1, 72, 0
3, 58680, Note_on_c, 1, 71, 100
3, 58734, Note_on_c, 1, 71, 0
3, 58740, Note_on_c, 1, 69, 100
3, 58794, Note_on_c, 1, 69, 0
3, 58800, Note_on_c, 1, 67, 100
3, 58854, Note_on_c, 1, 67, 0
3, 58860, Note_on_c, 1, 65, 100
3, 58914, Note_on_c, 1, 65, 0
3, 58920, Note_on_c, 1, 64, 100
3, 58974, Note_on_c, 1, 64, 0
3, 58980, Note_on_c, 1, 62, 100
3, 59034, Note_on_c, 1, 62, 0
3, 59040, Note_on_c, 1, 60, 100
3, 59094, Note_on_c, 1, 60, 0
3, 59100, Note_on_c, 1, 64, 100
3, 59154, Note_on_c, 1, 64, 0
3, 59160, Note_on_c, 1, 62, 100
3, 59214, Note_on_c, 1, 62, 0
3, 59220, Note_on_c, 1, 60, 100
3, 59274, Note_on_c, 1, 60, 0
3, 59280, Note_on_c, 1, 59, 100
3, 59334, Note_on_c, 1, 59, 0
3, 59340, Note_on_c, 1, 57, 100
3, 59394, Note_on_c, 1, 57, 0
3, 59400, Note_on_c, 1, 55, 100
3, 59454, Note_on_c, 1, 55, 0
3, 59460, Note_on_c, 1, 53, 100
3, 59514, Note_on_c, 1, 53, 0
3, 59520, Note_on_c, 1, 52, 100
3, 59574, Note_on_c, 1, 52, 0
3, 59580, Note_on_c, 1, 57, 100
3, 59634, Note_on_c, 1, 57, 0
3, 59640, Note_on_c, 1, 55, 100
3, 59694, Note_on_c, 1, 55, 0
3, 59700, Note_on_c, 1, 53, 100
3, 59754, Note_on_c, 1, 53, 0
3, 59760, Note_on_c, 1, 52, 100
3, 59814, Note_on_c, 1, 52, 0
3, 59820, Note_on_c, 1, 50, 100
3, 59874, Note_on_c, 1, 50, 0
3, 59880, Note_on_c, 1, 48, 100
3, 59934, Note_on_c, 1, 48, 0
3, 59940, Note_on_c, 1, 47, 100
3, 59994, Note_on_c, 1, 47, 0
3, 60000, Note_on_c, 1, 48, 100
3, 60108, Note_on_c, 1, 48, 0
3, 61080, Note_on_c, 1, 48, 100
3, 61134, Note_on_c, 1, 48, 0
3, 61140, Note_on_c, 1, 60, 100
3, 61194, Note_on_c, 1, 60, 0
3, 61200, Note_on_c, 1, 50, 100
3, 61254, Note_on_c, 1, 50, 0
3, 61260, Note_on_c, 1, 62, 100
3, 61314, Note_on_c, 1, 62, 0
3, 61320, Note_on_c, 1, 52, 100
3, 61374, Note_on_c, 1, 52, 0
3, 61380, Note_on_c, 1, 64, 100
3, 61434, Note_on_c, 1, 64, 0
3, 61440, Note_on_c, 1, 65, 100
3, 61734, Note_on_c, 1, 65, 0
3, 61740, Note_on_c, 1, 60, 100
3, 61794, Note_on_c, 1, 60, 0
3, 61800, Note_on_c, 1, 57, 100
3, 61854, Note_on_c, 1, 57, 0
3, 61860, Note_on_c, 1, 53, 100
3, 61914, Note_on_c, 1, 53, 0
3, 61920, Note_on_c, 1, 60, 100
3, 62214, Note_on_c, 1, 60, 0
3, 62220, Note_on_c, 1, 64, 100
3, 62274, Note_on_c, 1, 64, 0
3, 62280, Note_on_c, 1, 67, 100
3, 62334, Note_on_c, 1, 67, 0
3, 62340, Note_on_c, 1, 72, 100
3, 62394, Note_on_c, 1, 72, 0
3, 62400, Note_on_c, 1, 62, 100
3, 62694, Note_on_c, 1, 62, 0
3, 62700, Note_on_c, 1, 57, 100
3, 62754, Note_on_c, 1, 57, 0
3, 62760, Note_on_c, 1, 53, 100
3, 62814, Note_on_c, 1, 53, 0
3, 62820, Note_on_c, 1, 50, 100
3, 62874, Note_on_c, 1, 50, 0
3, 62880, Note_on_c, 1, 57, 100
3, 63174, Note_on_c, 1, 57, 0
3, 63180, Note_on_c, 1, 60, 100
3, 63234, Note_on_c, 1, 60, 0
3, 63240, Note_on_c, 1, 64, 100
3, 63294, Note_on_c, 1, 64, 0
3, 63300, Note_on_c, 1, 69, 100
3, 63354, Note_on_c, 1, 69, 0
3, 63360, Note_on_c, 1, 58, 100
3, 63654, Note_on_c, 1, 58, 0
3, 63660, Note_on_c, 1, 53, 100
3, 63714, Note_on_c, 1, 53, 0
3, 63720, Note_on_c, 1, 50, 100
3, 63774, Note_on_c, 1, 50, 0
3, 63780, Note_on_c, 1, 46, 100
3, 63834, Note_on_c, 1, 46, 0
3, 63840, Note_on_c, 1, 53, 100
3, 64134, Note_on_c, 1, 53, 0
3, 64140, Note_on_c, 1, 57, 100
3, 64194, Note_on_c, 1, 57, 0
3, 64200, Note_on_c, 1, 60, 100
3, 64254, Note_on_c, 1, 60, 0
3, 64260, Note_on_c, 1, 65, 100
3, 64314, Note_on_c, 1, 65, 0
3, 64320, Note_on_c, 1, 55, 100
3, 64614, Note_on_c, 1, 55, 0
3, 64620, Note_on_c, 1, 55, 100
3, 64674, Note_on_c, 1, 55, 0
3, 64680, Note_on_c, 1, 52, 100
3, 64734, Note_on_c, 1, 52, 0
3, 64740, Note_on_c, 1, 48, 100
3, 64794, Note_on_c, 1, 48, 0
3, 64800, Note_on_c, 1, 53, 100
3, 64854, Note_on_c, 1, 53, 0
3, 64860, Note_on_c, 1, 41, 100
3, 64914, Note_on_c, 1, 41, 0
3, 64920, Note_on_c, 1, 45, 100
3, 64974, Note_on_c, 1, 45, 0
3, 64980, Note_on_c, 1, 48, 100
3, 65034, Note_on_c, 1, 48, 0
3, 65040, Note_on_c, 1, 53, 100
3, 65148, Note_on_c, 1, 53, 0
3, 66240, Note_on_c, 1, 65, 100
3, 66294, Note_on_c, 1, 65, 0
3, 66300, Note_on_c, 1, 69, 100
3, 66354, Note_on_c, 1, 69, 0
3, 66360, Note_on_c, 1, 67, 100
3, 66414, Note_on_c, 1, 67, 0
3, 66420, Note_on_c, 1, 69, 100
3, 66474, Note_on_c, 1, 69, 0
3, 66480, Note_on_c, 1, 65, 100
3, 66534, Note_on_c, 1, 65, 0
3, 66540, Note_on_c, 1, 69, 100
3, 66594, Note_on_c, 1, 69, 0
3, 66600, Note_on_c, 1, 67, 100
3, 66654, Note_on_c, 1, 67, 0
3, 66660, Note_on_c, 1, 69, 100
3, 66714, Note_on_c, 1, 69, 0
3, 66720, Note_on_c, 1, 65, 100
3, 66828, Note_on_c, 1, 65, 0
3, 66840, Note_on_c, 1, 60, 100
3, 66948, Note_on_c, 1, 60, 0
3, 67080, Note_on_c, 1, 65, 100
3, 67134, Note_on_c, 1, 65, 0
3, 67140, Note_on_c, 1, 60, 100
3, 67194, Note_on_c, 1, 60, 0
3, 67200, Note_on_c, 1, 53, 100
3, 67308, Note_on_c, 1, 53, 0
3, 67320, Note_on_c, 1, 60, 100
3, 67428, Note_on_c, 1, 60, 0
3, 67440, Note_on_c, 1, 48, 100
3, 67548, Note_on_c, 1, 48, 0
3, 67560, Note_on_c, 1, 60, 100
3, 67788, Note_on_c, 1, 60, 0
3, 67800, Note_on_c, 1, 53, 100
3, 67854, Note_on_c, 1, 53, 0
3, 67860, Note_on_c, 1, 55, 100
3, 67914, Note_on_c, 1, 55, 0
3, 67920, Note_on_c, 1, 57, 100
3, 67974, Note_on_c, 1, 57, 0
3, 67980, Note_on_c, 1, 60, 100
3, 68034, Note_on_c, 1, 60, 0
3, 68040, Note_on_c, 1, 62, 100
3, 68094, Note_on_c, 1, 62, 0
3, 68100, Note_on_c, 1, 64, 100
3, 68154, Note_on_c, 1, 64, 0
3, 68160, Note_on_c, 1, 65, 100
3, 68214, Note_on_c, 1, 65, 0
3, 68220, Note_on_c, 1, 67, 100
3, 68274, Note_on_c, 1, 67, 0
3, 68280, Note_on_c, 1, 69, 100
3, 68334, Note_on_c, 1, 69, 0
3, 68340, Note_on_c, 1, 65, 100
3, 68394, Note_on_c, 1, 65, 0
3, 68400, Note_on_c, 1, 62, 100
3, 68454, Note_on_c, 1, 62, 0
3, 68460, Note_on_c, 1, 64, 100
3, 68514, Note_on_c, 1, 64, 0
3, 68520, Note_on_c, 1, 65, 100
3, 68574, Note_on_c, 1, 65, 0
3, 68580, Note_on_c, 1, 62, 100
3, 68634, Note_on_c, 1, 62, 0
3, 68640, Note_on_c, 1, 58, 100
3, 68694, Note_on_c, 1, 58, 0
3, 68700, Note_on_c, 1, 60, 100
3, 68754, Note_on_c, 1, 60, 0
3, 68760, Note_on_c, 1, 62, 100
3, 68814, Note_on_c, 1, 62, 0
3, 68820, Note_on_c, 1, 58, 100
3, 68874, Note_on_c, 1, 58, 0
3, 68880, Note_on_c, 1, 55, 100
3, 68934, Note_on_c, 1, 55, 0
3, 68940, Note_on_c, 1, 57, 100
3, 68994, Note_on_c, 1, 57, 0
3, 69000, Note_on_c, 1, 58, 100
3, 69054, Note_on_c, 1, 58, 0
3, 69060, Note_on_c, 1, 55, 100
3, 69114, Note_on_c, 1, 55, 0
3, 69120, Note_on_c, 1, 52, 100
3, 69228, Note_on_c, 1, 52, 0
3, 69240, Note_on_c, 1, 45, 100
3, 69348, Note_on_c, 1, 45, 0
3, 69480, Note_on_c, 1, 57, 100
3, 69588, Note_on_c, 1, 57, 0
3, 69600, Note_on_c, 1, 57, 100
3, 69708, Note_on_c, 1, 57, 0
3, 69720, Note_on_c, 1, 50, 100
3, 69828, Note_on_c, 1, 50, 0
3, 69900, Note_on_c, 1, 50, 100
3, 69954, Note_on_c, 1, 50, 0
3, 69960, Note_on_c, 1, 48, 100
3, 70014, Note_on_c, 1, 48, 0
3, 70020, Note_on_c, 1, 50, 100
3, 70074, Note_on_c, 1, 50, 0
3, 70080, Note_on_c, 1, 43, 100
3, 70188, Note_on_c, 1, 43, 0
3, 70200, Note_on_c, 1, 62, 100
3, 70308, Note_on_c, 1, 62, 0
3, 70320, Note_on_c, 1, 62, 100
3, 70428, Note_on_c, 1, 62, 0
3, 70440, Note_on_c, 1, 55, 100
3, 70548, Note_on_c, 1, 55, 0
3, 70680, Note_on_c, 1, 55, 100
3, 70788, Note_on_c, 1, 55, 0
3, 70800, Note_on_c, 1, 60, 100
3, 70908, Note_on_c, 1, 60, 0
3, 70920, Note_on_c, 1, 48, 100
3, 71028, Note_on_c, 1, 48, 0
3, 71160, Note_on_c, 1, 60, 100
3, 71268, Note_on_c, 1, 60, 0
3, 71280, Note_on_c, 1, 60, 100
3, 71388, Note_on_c, 1, 60, 0
3, 71400, Note_on_c, 1, 48, 100
3, 71508, Note_on_c, 1, 48, 0
3, 71640, Note_on_c, 1, 60, 100
3, 71748, Note_on_c, 1, 60, 0
3, 71760, Note_on_c, 1, 48, 100
3, 71814, Note_on_c, 1, 48, 0
3, 71820, Note_on_c, 1, 50, 100
3, 71874, Note_on_c, 1, 50, 0
3, 71880, Note_on_c, 1, 48, 100
3, 71934, Note_on_c, 1, 48, 0
3, 71940, Note_on_c, 1, 46, 100
3, 71994, Note_on_c, 1, 46, 0
3, 72000, Note_on_c, 1, 45, 100
3, 72054, Note_on_c, 1, 45, 0
3, 72060, Note_on_c, 1, 46, 100
3, 72114, Note_on_c, 1, 46, 0
3, 72120, Note_on_c, 1, 48, 100
3, 72174, Note_on_c, 1, 48, 0
3, 72180, Note_on_c, 1, 45, 100
3, 72234, Note_on_c, 1, 45, 0
3, 72240, Note_on_c, 1, 41, 100
3, 72294, Note_on_c, 1, 41, 0
3, 72300, Note_on_c, 1, 43, 100
3, 72354, Note_on_c, 1, 43, 0
3, 72360, Note_on_c, 1, 45, 100
3, 72414, Note_on_c, 1, 45, 0
3, 72420, Note_on_c, 1, 41, 100
3, 72474, Note_on_c, 1, 41, 0
3, 72480, Note_on_c, 1, 46, 100
3, 72588, Note_on_c, 1, 46, 0
3, 72600, Note_on_c, 1, 53, 100
3, 72708, Note_on_c, 1, 53, 0
3, 72720, Note_on_c, 1, 50, 100
3, 72828, Note_on_c, 1, 50, 0
3, 72840, Note_on_c, 1, 55, 100
3, 72948, Note_on_c, 1, 55, 0
3, 72960, Note_on_c, 1, 52, 100
3, 73068, Note_on_c, 1, 52, 0
3, 73080, Note_on_c, 1, 60, 100
3, 73188, Note_on_c, 1, 60, 0
3, 73200, Note_on_c, 1, 55, 100
3, 73308, Note_on_c, 1, 55, 0
3, 73320, Note_on_c, 1, 52, 100
3, 73428, Note_on_c, 1, 52, 0
3, 73440, Note_on_c, 1, 53, 100
3, 73548, Note_on_c, 1, 53, 0
3, 73560, Note_on_c, 1, 46, 100
3, 73668, Note_on_c, 1, 46, 0
3, 73680, Note_on_c, 1, 48, 100
3, 73788, Note_on_c, 1, 48, 0
3, 73800, Note_on_c, 1, 36, 100
3, 73908, Note_on_c, 1, 36, 0
3, 73920, Note_on_c, 1, 53, 100
3, 74028, Note_on_c, 1, 53, 0
3, 74040, Note_on_c, 1, 48, 100
3, 74040, Note_on_c, 1, 60, 100
3, 74148, Note_on_c, 1, 60, 0
3, 74148, Note_on_c, 1, 48, 0
3, 74160, Note_on_c, 1, 53, 100
3, 74160, Note_on_c, 1, 57, 100
3, 74268, Note_on_c, 1, 57, 0
3, 74268, Note_on_c, 1, 53, 0
3, 74280, Note_on_c, 1, 48, 100
3, 74280, Note_on_c, 1, 60, 100
3, 74388, Note_on_c, 1, 60, 0
3, 74388, Note_on_c, 1, 48, 0
3, 74400, Note_on_c, 1, 53, 100
3, 74400, Note_on_c, 1, 57, 100
3, 74616, Note_on_c, 1, 57, 0
3, 74616, Note_on_c, 1, 53, 0
3, 74760, Note_on_c, 1, 45, 100
3, 74760, Note_on_c, 1, 55, 100
3, 74868, Note_on_c, 1, 55, 0
3, 74868, Note_on_c, 1, 45, 0
3, 74880, Note_on_c, 1, 50, 100
3, 74880, Note_on_c, 1, 53, 100
3, 74988, Note_on_c, 1, 53, 0
3, 74988, Note_on_c, 1, 50, 0
3, 75000, Note_on_c, 1, 45, 100
3, 75000, Note_on_c, 1, 57, 100
3, 75108, Note_on_c, 1, 57, 0
3, 75108, Note_on_c, 1, 45, 0
3, 75120, Note_on_c, 1, 50, 100
3, 75120, Note_on_c, 1, 53, 100
3, 75228, Note_on_c, 1, 53, 0
3, 75228, Note_on_c, 1, 50, 0
3, 75240, Note_on_c, 1, 45, 100
3, 75240, Note_on_c, 1, 57, 100
3, 75348, Note_on_c, 1, 57, 0
3, 75348, Note_on_c, 1, 45, 0
3, 75360, Note_on_c, 1, 50, 100
3, 75360, Note_on_c, 1, 53, 100
3, 75576, Note_on_c, 1, 53, 0
3, 75576, Note_on_c, 1, 50, 0
3, 75660, Note_on_c, 1, 62, 100
3, 75714, Note_on_c, 1, 62, 0
3, 75720, Note_on_c, 1, 57, 100
3, 75774, Note_on_c, 1, 57, 0
3, 75780, Note_on_c, 1, 53, 100
3, 75834, Note_on_c, 1, 53, 0
3, 75840, Note_on_c, 1, 55, 100
3, 75894, Note_on_c, 1, 55, 0
3, 75900, Note_on_c, 1, 58, 100
3, 75954, Note_on_c, 1, 58, 0
3, 75960, Note_on_c, 1, 62, 100
3, 76014, Note_on_c, 1, 62, 0
3, 76020, Note_on_c, 1, 58, 100
3, 76074, Note_on_c, 1, 58, 0
3, 76080, Note_on_c, 1, 55, 100
3, 76134, Note_on_c, 1, 55, 0
3, 76140, Note_on_c, 1, 58, 100
3, 76194, Note_on_c, 1, 58, 0
3, 76200, Note_on_c, 1, 60, 100
3, 76254, Note_on_c, 1, 60, 0
3, 76260, Note_on_c, 1, 58, 100
3, 76314, Note_on_c, 1, 58, 0
3, 76320, Note_on_c, 1, 53, 100
3, 76374, Note_on_c, 1, 53, 0
3, 76380, Note_on_c, 1, 57, 100
3, 76434, Note_on_c, 1, 57, 0
3, 76440, Note_on_c, 1, 60, 100
3, 76494, Note_on_c, 1, 60, 0
3, 76500, Note_on_c, 1, 57, 100
3, 76554, Note_on_c, 1, 57, 0
3, 76560, Note_on_c, 1, 53, 100
3, 76614, Note_on_c, 1, 53, 0
3, 76620, Note_on_c, 1, 57, 100
3, 76674, Note_on_c, 1, 57, 0
3, 76680, Note_on_c, 1, 58, 100
3, 76734, Note_on_c, 1, 58, 0
3, 76740, Note_on_c, 1, 57, 100
3, 76794, Note_on_c, 1, 57, 0
3, 76800, Note_on_c, 1, 52, 100
3, 76854, Note_on_c, 1, 52, 0
3, 76860, Note_on_c, 1, 55, 100
3, 76914, Note_on_c, 1, 55, 0
3, 76920, Note_on_c, 1, 58, 100
3, 76974, Note_on_c, 1, 58, 0
3, 76980, Note_on_c, 1, 55, 100
3, 77034, Note_on_c, 1, 55, 0
3, 77040, Note_on_c, 1, 52, 100
3, 77094, Note_on_c, 1, 52, 0
3, 77100, Note_on_c, 1, 55, 100
3, 77154, Note_on_c, 1, 55, 0
3, 77160, Note_on_c, 1, 57, 100
3, 77214, Note_on_c, 1, 57, 0
3, 77220, Note_on_c, 1, 55, 100
3, 77274, Note_on_c, 1, 55, 0
3, 77280, Note_on_c, 1, 50, 100
3, 77334, Note_on_c, 1, 50, 0
3, 77340, Note_on_c, 1, 53, 100
3, 77394, Note_on_c, 1, 53, 0
3, 77400, Note_on_c, 1, 57, 100
3, 77454, Note_on_c, 1, 57, 0
3, 77460, Note_on_c, 1, 53, 100
3, 77514, Note_on_c, 1, 53, 0
3, 77520, Note_on_c, 1, 50, 100
3, 77574, Note_on_c, 1, 50, 0
3, 77580, Note_on_c, 1, 53, 100
3, 77634, Note_on_c, 1, 53, 0
3, 77640, Note_on_c, 1, 57, 100
3, 77694, Note_on_c, 1, 57, 0
3, 77700, Note_on_c, 1, 62, 100
3, 77754, Note_on_c, 1, 62, 0
3, 77760, Note_on_c, 1, 48, 100
3, 77814, Note_on_c, 1, 48, 0
3, 77820, Note_on_c, 1, 56, 100
3, 77874, Note_on_c, 1, 56, 0
3, 77880, Note_on_c, 1, 59, 100
3, 77934, Note_on_c, 1, 59, 0
3, 77940, Note_on_c, 1, 56, 100
3, 77994, Note_on_c, 1, 56, 0
3, 78000, Note_on_c, 1, 48, 100
3, 78054, Note_on_c, 1, 48, 0
3, 78060, Note_on_c, 1, 52, 100
3, 78114, Note_on_c, 1, 52, 0
3, 78120, Note_on_c, 1, 57, 100
3, 78174, Note_on_c, 1, 57, 0
3, 78180, Note_on_c, 1, 60, 100
3, 78234, Note_on_c, 1, 60, 0
3, 78240, Note_on_c, 1, 53, 100
3, 78294, Note_on_c, 1, 53, 0
3, 78300, Note_on_c, 1, 52, 100
3, 78354, Note_on_c, 1, 52, 0
3, 78360, Note_on_c, 1, 50, 100
3, 78414, Note_on_c, 1, 50, 0
3, 78420, Note_on_c, 1, 52, 100
3, 78474, Note_on_c, 1, 52, 0
3, 78480, Note_on_c, 1, 53, 100
3, 78534, Note_on_c, 1, 53, 0
3, 78540, Note_on_c, 1, 52, 100
3, 78594, Note_on_c, 1, 52, 0
3, 78600, Note_on_c, 1, 53, 100
3, 78654, Note_on_c, 1, 53, 0
3, 78660, Note_on_c, 1, 50, 100
3, 78714, Note_on_c, 1, 50, 0
3, 78720, Note_on_c, 1, 52, 100
3, 78828, Note_on_c, 1, 52, 0
3, 78840, Note_on_c, 1, 50, 100
3, 78894, Note_on_c, 1, 50, 0
3, 78900, Note_on_c, 1, 48, 100
3, 78954, Note_on_c, 1, 48, 0
3, 78960, Note_on_c, 1, 47, 100
3, 79068, Note_on_c, 1, 47, 0
3, 79080, Note_on_c, 1, 45, 100
3, 79188, Note_on_c, 1, 45, 0
3, 79200, Note_on_c, 1, 44, 100
3, 79254, Note_on_c, 1, 44, 0
3, 79260, Note_on_c, 1, 45, 100
3, 79314, Note_on_c, 1, 45, 0
3, 79320, Note_on_c, 1, 47, 100
3, 79374, Note_on_c, 1, 47, 0
3, 79380, Note_on_c, 1, 44, 100
3, 79434, Note_on_c, 1, 44, 0
3, 79440, Note_on_c, 1, 40, 100
3, 79494, Note_on_c, 1, 40, 0
3, 79500, Note_on_c, 1, 44, 100
3, 79554, Note_on_c, 1, 44, 0
3, 79560, Note_on_c, 1, 47, 100
3, 79614, Note_on_c, 1, 47, 0
3, 79620, Note_on_c, 1, 52, 100
3, 79674, Note_on_c, 1, 52, 0
3, 79680, Note_on_c, 1, 45, 100
3, 79734, Note_on_c, 1, 45, 0
3, 79740, Note_on_c, 1, 47, 100
3, 79794, Note_on_c, 1, 47, 0
3, 79800, Note_on_c, 1, 48, 100
3, 79854, Note_on_c, 1, 48, 0
3, 79860, Note_on_c, 1, 45, 100
3, 79914, Note_on_c, 1, 45, 0
3, 79920, Note_on_c, 1, 40, 100
3, 79974, Note_on_c, 1, 40, 0
3, 79980, Note_on_c, 1, 45, 100
3, 80034, Note_on_c, 1, 45, 0
3, 80040, Note_on_c, 1, 48, 100
3, 80094, Note_on_c, 1, 48, 0
3, 80100, Note_on_c, 1, 52, 100
3, 80154, Note_on_c, 1, 52, 0
3, 80160, Note_on_c, 1, 47, 100
3, 80214, Note_on_c, 1, 47, 0
3, 80220, Note_on_c, 1, 48, 100
3, 80274, Note_on_c, 1, 48, 0
3, 80280, Note_on_c, 1, 50, 100
3, 80334, Note_on_c, 1, 50, 0
3, 80340, Note_on_c, 1, 47, 100
3, 80394, Note_on_c, 1, 47, 0
3, 80400, Note_on_c, 1, 44, 100
3, 80508, Note_on_c, 1, 44, 0
3, 80520, Note_on_c, 1, 56, 100
3, 80628, Note_on_c, 1, 56, 0
3, 80640, Note_on_c, 1, 57, 100
3, 80694, Note_on_c, 1, 57, 0
3, 80700, Note_on_c, 1, 59, 100
3, 80754, Note_on_c, 1, 59, 0
3, 80760, Note_on_c, 1, 60, 100
3, 80814, Note_on_c, 1, 60, 0
3, 80820, Note_on_c, 1, 62, 100
3, 80874, Note_on_c, 1, 62, 0
3, 80880, Note_on_c, 1, 60, 100
3, 80934, Note_on_c, 1, 60, 0
3, 80940, Note_on_c, 1, 62, 100
3, 80994, Note_on_c, 1, 62, 0
3, 81000, Note_on_c, 1, 64, 100
3, 81054, Note_on_c, 1, 64, 0
3, 81060, Note_on_c, 1, 60, 100
3, 81114, Note_on_c, 1, 60, 0
3, 81120, Note_on_c, 1, 57, 100
3, 81174, Note_on_c, 1, 57, 0
3, 81180, Note_on_c, 1, 59, 100
3, 81234, Note_on_c, 1, 59, 0
3, 81240, Note_on_c, 1, 60, 100
3, 81294, Note_on_c, 1, 60, 0
3, 81300, Note_on_c, 1, 57, 100
3, 81354, Note_on_c, 1, 57, 0
3, 81360, Note_on_c, 1, 54, 100
3, 81414, Note_on_c, 1, 54, 0
3, 81420, Note_on_c, 1, 55, 100
3, 81474, Note_on_c, 1, 55, 0
3, 81480, Note_on_c, 1, 57, 100
3, 81534, Note_on_c, 1, 57, 0
3, 81540, Note_on_c, 1, 54, 100
3, 81594, Note_on_c, 1, 54, 0
3, 81600, Note_on_c, 1, 50, 100
3, 81708, Note_on_c, 1, 50, 0
3, 81720, Note_on_c, 1, 43, 100
3, 81828, Note_on_c, 1, 43, 0
3, 81960, Note_on_c, 1, 55, 100
3, 82068, Note_on_c, 1, 55, 0
3, 82080, Note_on_c, 1, 55, 100
3, 82188, Note_on_c, 1, 55, 0
3, 82200, Note_on_c, 1, 48, 100
3, 82308, Note_on_c, 1, 48, 0
3, 82380, Note_on_c, 1, 48, 100
3, 82434, Note_on_c, 1, 48, 0
3, 82440, Note_on_c, 1, 47, 100
3, 82494, Note_on_c, 1, 47, 0
3, 82500, Note_on_c, 1, 48, 100
3, 82554, Note_on_c, 1, 48, 0
3, 82560, Note_on_c, 1, 42, 100
3, 82668, Note_on_c, 1, 42, 0
3, 82680, Note_on_c, 1, 60, 100
3, 82788, Note_on_c, 1, 60, 0
3, 82800, Note_on_c, 1, 60, 100
3, 82908, Note_on_c, 1, 60, 0
3, 82920, Note_on_c, 1, 54, 100
3, 83028, Note_on_c, 1, 54, 0
3, 83160, Note_on_c, 1, 54, 100
3, 83268, Note_on_c, 1, 54, 0
3, 83280, Note_on_c, 1, 59, 100
3, 83388, Note_on_c, 1, 59, 0
3, 83400, Note_on_c, 1, 47, 100
3, 83508, Note_on_c, 1, 47, 0
3, 83640, Note_on_c, 1, 59, 100
3, 83748, Note_on_c, 1, 59, 0
3, 83760, Note_on_c, 1, 59, 100
3, 83868, Note_on_c, 1, 59, 0
3, 83880, Note_on_c, 1, 47, 100
3, 83988, Note_on_c, 1, 47, 0
3, 84120, Note_on_c, 1, 59, 100
3, 84228, Note_on_c, 1, 59, 0
3, 84240, Note_on_c, 1, 59, 100
3, 84294, Note_on_c, 1, 59, 0
3, 84300, Note_on_c, 1, 60, 100
3, 84354, Note_on_c, 1, 60, 0
3, 84360, Note_on_c, 1, 59, 100
3, 84414, Note_on_c, 1, 59, 0
3, 84420, Note_on_c, 1, 57, 100
3, 84474, Note_on_c, 1, 57, 0
3, 84480, Note_on_c, 1, 56, 100
3, 84534, Note_on_c, 1, 56, 0
3, 84540, Note_on_c, 1, 57, 100
3, 84594, Note_on_c, 1, 57, 0
3, 84600, Note_on_c, 1, 59, 100
3, 84654, Note_on_c, 1, 59, 0
3, 84660, Note_on_c, 1, 56, 100
3, 84714, Note_on_c, 1, 56, 0
3, 84720, Note_on_c, 1, 52, 100
3, 84774, Note_on_c, 1, 52, 0
3, 84780, Note_on_c, 1, 54, 100
3, 84834, Note_on_c, 1, 54, 0
3, 84840, Note_on_c, 1, 56, 100
3, 84894, Note_on_c, 1, 56, 0
3, 84900, Note_on_c, 1, 52, 100
3, 84954, Note_on_c, 1, 52, 0
3, 84960, Note_on_c, 1, 48, 100
3, 85014, Note_on_c, 1, 48, 0
3, 85020, Note_on_c, 1, 50, 100
3, 85074, Note_on_c, 1, 50, 0
3, 85080, Note_on_c, 1, 52, 100
3, 85134, Note_on_c, 1, 52, 0
3, 85140, Note_on_c, 1, 48, 100
3, 85194, Note_on_c, 1, 48, 0
3, 85200, Note_on_c, 1, 45, 100
3, 85254, Note_on_c, 1, 45, 0
3, 85260, Note_on_c, 1, 47, 100
3, 85314, Note_on_c, 1, 47, 0
3, 85320, Note_on_c, 1, 48, 100
3, 85374, Note_on_c, 1, 48, 0
3, 85380, Note_on_c, 1, 45, 100
3, 85434, Note_on_c, 1, 45, 0
3, 85440, Note_on_c, 1, 39, 100
3, 85656, Note_on_c, 1, 39, 0
3, 85800, Note_on_c, 1, 57, 100
3, 85908, Note_on_c, 1, 57, 0
3, 85920, Note_on_c, 1, 55, 100
3, 86028, Note_on_c, 1, 55, 0
3, 86040, Note_on_c, 1, 57, 100
3, 86148, Note_on_c, 1, 57, 0
3, 86160, Note_on_c, 1, 59, 100
3, 86268, Note_on_c, 1, 59, 0
3, 86280, Note_on_c, 1, 47, 100
3, 86388, Note_on_c, 1, 47, 0
3, 86400, Note_on_c, 1, 40, 100
3, 86508, Note_on_c, 1, 40, 0
3, 86520, Note_on_c, 1, 64, 100
3, 86574, Note_on_c, 1, 64, 0
3, 86580, Note_on_c, 1, 66, 100
3, 86634, Note_on_c, 1, 66, 0
3, 86640, Note_on_c, 1, 67, 100
3, 86694, Note_on_c, 1, 67, 0
3, 86700, Note_on_c, 1, 69, 100
3, 86754, Note_on_c, 1, 69, 0
3, 86760, Note_on_c, 1, 71, 100
3, 86814, Note_on_c, 1, 71, 0
3, 86820, Note_on_c, 1, 69, 100
3, 86874, Note_on_c, 1, 69, 0
3, 86880, Note_on_c, 1, 67, 100
3, 86934, Note_on_c, 1, 67, 0
3, 86940, Note_on_c, 1, 66, 100
3, 86994, Note_on_c, 1, 66, 0
3, 87000, Note_on_c, 1, 64, 100
3, 87054, Note_on_c, 1, 64, 0
3, 87060, Note_on_c, 1, 66, 100
3, 87114, Note_on_c, 1, 66, 0
3, 87120, Note_on_c, 1, 67, 100
3, 87174, Note_on_c, 1, 67, 0
3, 87180, Note_on_c, 1, 69, 100
3, 87234, Note_on_c, 1, 69, 0
3, 87240, Note_on_c, 1, 71, 100
3, 87294, Note_on_c, 1, 71, 0
3, 87300, Note_on_c, 1, 69, 100
3, 87354, Note_on_c, 1, 69, 0
3, 87360, Note_on_c, 1, 67, 100
3, 88164, Note_on_c, 1, 67, 0
3, 88200, Note_on_c, 1, 69, 100
3, 88308, Note_on_c, 1, 69, 0
3, 88320, Note_on_c, 1, 62, 100
3, 88428, Note_on_c, 1, 62, 0
3, 88440, Note_on_c, 1, 57, 100
3, 88494, Note_on_c, 1, 57, 0
3, 88500, Note_on_c, 1, 55, 100
3, 88554, Note_on_c, 1, 55, 0
3, 88560, Note_on_c, 1, 54, 100
3, 88668, Note_on_c, 1, 54, 0
3, 88680, Note_on_c, 1, 50, 100
3, 88788, Note_on_c, 1, 50, 0
3, 88800, Note_on_c, 1, 54, 100
3, 88908, Note_on_c, 1, 54, 0
3, 88920, Note_on_c, 1, 57, 100
3, 89028, Note_on_c, 1, 57, 0
3, 89040, Note_on_c, 1, 62, 100
3, 89148, Note_on_c, 1, 62, 0
3, 89160, Note_on_c, 1, 66, 100
3, 89268, Note_on_c, 1, 66, 0
3, 89280, Note_on_c, 1, 67, 100
3, 89388, Note_on_c, 1, 67, 0
3, 89400, Note_on_c, 1, 62, 100
3, 89508, Note_on_c, 1, 62, 0
3, 89520, Note_on_c, 1, 67, 100
3, 89628, Note_on_c, 1, 67, 0
3, 89640, Note_on_c, 1, 62, 100
3, 89748, Note_on_c, 1, 62, 0
3, 89760, Note_on_c, 1, 67, 100
3, 89868, Note_on_c, 1, 67, 0
3, 89880, Note_on_c, 1, 65, 100
3, 89934, Note_on_c, 1, 65, 0
3, 89940, Note_on_c, 1, 64, 100
3, 89994, Note_on_c, 1, 64, 0
3, 90000, Note_on_c, 1, 62, 100
3, 90108, Note_on_c, 1, 62, 0
3, 90120, Note_on_c, 1, 64, 100
3, 90174, Note_on_c, 1, 64, 0
3, 90180, Note_on_c, 1, 65, 100
3, 90234, Note_on_c, 1, 65, 0
3, 90240, Note_on_c, 1, 64, 100
3, 90294, Note_on_c, 1, 64, 0
3, 90300, Note_on_c, 1, 62, 100
3, 90354, Note_on_c, 1, 62, 0
3, 90360, Note_on_c, 1, 64, 100
3, 90414, Note_on_c, 1, 64, 0
3, 90420, Note_on_c, 1, 65, 100
3, 90474, Note_on_c, 1, 65, 0
3, 90480, Note_on_c, 1, 67, 100
3, 90534, Note_on_c, 1, 67, 0
3, 90540, Note_on_c, 1, 65, 100
3, 90594, Note_on_c, 1, 65, 0
3, 90600, Note_on_c, 1, 64, 100
3, 90654, Note_on_c, 1, 64, 0
3, 90660, Note_on_c, 1, 65, 100
3, 90714, Note_on_c, 1, 65, 0
3, 90720, Note_on_c, 1, 67, 100
3, 90774, Note_on_c, 1, 67, 0
3, 90780, Note_on_c, 1, 65, 100
3, 90834, Note_on_c, 1, 65, 0
3, 90840, Note_on_c, 1, 64, 100
3, 90894, Note_on_c, 1, 64, 0
3, 90900, Note_on_c, 1, 65, 100
3, 90954, Note_on_c, 1, 65, 0
3, 90960, Note_on_c, 1, 67, 100
3, 91014, Note_on_c, 1, 67, 0
3, 91020, Note_on_c, 1, 65, 100
3, 91074, Note_on_c, 1, 65, 0
3, 91080, Note_on_c, 1, 64, 100
3, 91134, Note_on_c, 1, 64, 0
3, 91140, Note_on_c, 1, 62, 100
3, 91194, Note_on_c, 1, 62, 0
3, 91200, Note_on_c, 1, 60, 100
3, 92004, Note_on_c, 1, 60, 0
3, 92040, Note_on_c, 1, 57, 100
3, 92148, Note_on_c, 1, 57, 0
3, 92160, Note_on_c, 1, 62, 100
3, 92160, Note_on_c, 1, 59, 100
3, 92214, Note_on_c, 1, 62, 0
3, 92220, Note_on_c, 1, 60, 100
3, 92268, Note_on_c, 1, 59, 0
3, 92274, Note_on_c, 1, 60, 0
3, 92280, Note_on_c, 1, 59, 100
3, 92334, Note_on_c, 1, 59, 0
3, 92340, Note_on_c, 1, 60, 100
3, 92394, Note_on_c, 1, 60, 0
3, 92400, Note_on_c, 1, 62, 100
3, 92454, Note_on_c, 1, 62, 0
3, 92460, Note_on_c, 1, 60, 100
3, 92514, Note_on_c, 1, 60, 0
3, 92520, Note_on_c, 1, 59, 100
3, 92574, Note_on_c, 1, 59, 0
3, 92580, Note_on_c, 1, 60, 100
3, 92634, Note_on_c, 1, 60, 0
3, 92640, Note_on_c, 1, 62, 100
3, 92694, Note_on_c, 1, 62, 0
3, 92700, Note_on_c, 1, 60, 100
3, 92754, Note_on_c, 1, 60, 0
3, 92760, Note_on_c, 1, 59, 100
3, 92814, Note_on_c, 1, 59, 0
3, 92820, Note_on_c, 1, 60, 100
3, 92874, Note_on_c, 1, 60, 0
3, 92880, Note_on_c, 1, 62, 100
3, 92988, Note_on_c, 1, 62, 0
3, 93000, Note_on_c, 1, 55, 100
3, 93108, Note_on_c, 1, 55, 0
3, 93120, Note_on_c, 1, 60, 100
3, 93228, Note_on_c, 1, 60, 0
3, 93240, Note_on_c, 1, 55, 100
3, 93348, Note_on_c, 1, 55, 0
3, 93360, Note_on_c, 1, 60, 100
3, 93468, Note_on_c, 1, 60, 0
3, 93480, Note_on_c, 1, 55, 100
3, 93588, Note_on_c, 1, 55, 0
3, 93600, Note_on_c, 1, 60, 100
3, 93708, Note_on_c, 1, 60, 0
3, 93720, Note_on_c, 1, 59, 100
3, 93774, Note_on_c, 1, 59, 0
3, 93780, Note_on_c, 1, 57, 100
3, 93834, Note_on_c, 1, 57, 0
3, 93840, Note_on_c, 1, 55, 100
3, 93948, Note_on_c, 1, 55, 0
3, 93960, Note_on_c, 1, 57, 100
3, 94014, Note_on_c, 1, 57, 0
3, 94020, Note_on_c, 1, 59, 100
3, 94074, Note_on_c, 1, 59, 0
3, 94080, Note_on_c, 1, 60, 100
3, 94188, Note_on_c, 1, 60, 0
3, 94200, Note_on_c, 1, 59, 100
3, 94254, Note_on_c, 1, 59, 0
3, 94260, Note_on_c, 1, 57, 100
3, 94314, Note_on_c, 1, 57, 0
3, 94320, Note_on_c, 1, 55, 100
3, 94428, Note_on_c, 1, 55, 0
3, 94440, Note_on_c, 1, 53, 100
3, 94548, Note_on_c, 1, 53, 0
3, 94560, Note_on_c, 1, 52, 100
3, 94776, Note_on_c, 1, 52, 0
3, 94860, Note_on_c, 1, 48, 100
3, 94914, Note_on_c, 1, 48, 0
3, 94920, Note_on_c, 1, 52, 100
3, 94974, Note_on_c, 1, 52, 0
3, 94980, Note_on_c, 1, 55, 100
3, 95034, Note_on_c, 1, 55, 0
3, 95040, Note_on_c, 1, 53, 100
3, 95148, Note_on_c, 1, 53, 0
3, 95160, Note_on_c, 1, 41, 100
3, 95268, Note_on_c, 1, 41, 0
3, 95340, Note_on_c, 1, 53, 100
3, 95394, Note_on_c, 1, 53, 0
3, 95400, Note_on_c, 1, 57, 100
3, 95454, Note_on_c, 1, 57, 0
3, 95460, Note_on_c, 1, 60, 100
3, 95514, Note_on_c, 1, 60, 0
3, 95520, Note_on_c, 1, 54, 100
3, 95628, Note_on_c, 1, 54, 0
3, 95640, Note_on_c, 1, 62, 100
3, 95748, Note_on_c, 1, 62, 0
3, 95820, Note_on_c, 1, 50, 100
3, 95874, Note_on_c, 1, 50, 0
3, 95880, Note_on_c, 1, 54, 100
3, 95934, Note_on_c, 1, 54, 0
3, 95940, Note_on_c, 1, 57, 100
3, 95994, Note_on_c, 1, 57, 0
3, 96000, Note_on_c, 1, 55, 100
3, 96108, Note_on_c, 1, 55, 0
3, 96120, Note_on_c, 1, 43, 100
3, 96228, Note_on_c, 1, 43, 0
3, 96300, Note_on_c, 1, 55, 100
3, 96354, Note_on_c, 1, 55, 0
3, 96360, Note_on_c, 1, 59, 100
3, 96414, Note_on_c, 1, 59, 0
3, 96420, Note_on_c, 1, 62, 100
3, 96474, Note_on_c, 1, 62, 0
3, 96480, Note_on_c, 1, 56, 100
3, 96588, Note_on_c, 1, 56, 0
3, 96600, Note_on_c, 1, 64, 100
3, 96708, Note_on_c, 1, 64, 0
3, 96780, Note_on_c, 1, 52, 100
3, 96834, Note_on_c, 1, 52, 0
3, 96840, Note_on_c, 1, 56, 100
3, 96894, Note_on_c, 1, 56, 0
3, 96900, Note_on_c, 1, 59, 100
3, 96954, Note_on_c, 1, 59, 0
3, 96960, Note_on_c, 1, 57, 100
3, 97068, Note_on_c, 1, 57, 0
3, 97080, Note_on_c, 1, 45, 100
3, 97188, Note_on_c, 1, 45, 0
3, 97260, Note_on_c, 1, 57, 100
3, 97314, Note_on_c, 1, 57, 0
3, 97320, Note_on_c, 1, 60, 100
3, 97374, Note_on_c, 1, 60, 0
3, 97380, Note_on_c, 1, 64, 100
3, 97434, Note_on_c, 1, 64, 0
3, 97440, Note_on_c, 1, 65, 100
3, 98352, Note_on_c, 1, 65, 0
3, 98400, Note_on_c, 1, 64, 100
3, 99312, Note_on_c, 1, 64, 0
3, 99360, Note_on_c, 1, 62, 100
3, 99948, Note_on_c, 1, 62, 0
3, 99960, Note_on_c, 1, 52, 100
3, 100068, Note_on_c, 1, 52, 0
3, 100140, Note_on_c, 1, 59, 100
3, 100194, Note_on_c, 1, 59, 0
3, 100200, Note_on_c, 1, 60, 100
3, 100254, Note_on_c, 1, 60, 0
3, 100260, Note_on_c, 1, 62, 100
3, 100314, Note_on_c, 1, 62, 0
3, 100320, Note_on_c, 1, 64, 100
3, 100428, Note_on_c, 1, 64, 0
3, 100440, Note_on_c, 1, 52, 100
3, 100548, Note_on_c, 1, 52, 0
3, 100620, Note_on_c, 1, 52, 100
3, 100674, Note_on_c, 1, 52, 0
3, 100680, Note_on_c, 1, 53, 100
3, 100734, Note_on_c, 1, 53, 0
3, 100740, Note_on_c, 1, 55, 100
3, 100794, Note_on_c, 1, 55, 0
3, 100800, Note_on_c, 1, 57, 100
3, 100908, Note_on_c, 1, 57, 0
3, 100920, Note_on_c, 1, 45, 100
3, 101028, Note_on_c, 1, 45, 0
3, 101100, Note_on_c, 1, 57, 100
3, 101154, Note_on_c, 1, 57, 0
3, 101160, Note_on_c, 1, 59, 100
3, 101214, Note_on_c, 1, 59, 0
3, 101220, Note_on_c, 1, 60, 100
3, 101274, Note_on_c, 1, 60, 0
3, 101280, Note_on_c, 1, 62, 100
3, 101388, Note_on_c, 1, 62, 0
3, 101400, Note_on_c, 1, 50, 100
3, 101508, Note_on_c, 1, 50, 0
3, 101580, Note_on_c, 1, 50, 100
3, 101634, Note_on_c, 1, 50, 0
3, 101640, Note_on_c, 1, 52, 100
3, 101694, Note_on_c, 1, 52, 0
3, 101700, Note_on_c, 1, 53, 100
3, 101754, Note_on_c, 1, 53, 0
3, 101760, Note_on_c, 1, 55, 100
3, 101868, Note_on_c, 1, 55, 0
3, 101880, Note_on_c, 1, 43, 100
3, 101988, Note_on_c, 1, 43, 0
3, 102060, Note_on_c, 1, 55, 100
3, 102114, Note_on_c, 1, 55, 0
3, 102120, Note_on_c, 1, 57, 100
3, 102174, Note_on_c, 1, 57, 0
3, 102180, Note_on_c, 1, 58, 100
3, 102234, Note_on_c, 1, 58, 0
3, 102240, Note_on_c, 1, 60, 100
3, 102456, Note_on_c, 1, 60, 0
3, 102780, Note_on_c, 1, 60, 100
3, 102807, Note_on_c, 1, 60, 0
3, 102810, Note_on_c, 1, 58, 100
3, 102837, Note_on_c, 1, 58, 0
3, 102840, Note_on_c, 1, 57, 100
3, 102894, Note_on_c, 1, 57, 0
3, 102900, Note_on_c, 1, 58, 100
3, 102927, Note_on_c, 1, 58, 0
3, 102930, Note_on_c, 1, 60, 100
3, 102957, Note_on_c, 1, 60, 0
3, 102960, Note_on_c, 1, 54, 100
3, 103014, Note_on_c, 1, 54, 0
3, 103020, Note_on_c, 1, 57, 100
3, 103047, Note_on_c, 1, 57, 0
3, 103050, Note_on_c, 1, 55, 100
3, 103077, Note_on_c, 1, 55, 0
3, 103080, Note_on_c, 1, 54, 100
3, 103134, Note_on_c, 1, 54, 0
3, 103140, Note_on_c, 1, 55, 100
3, 103167, Note_on_c, 1, 55, 0
3, 103170, Note_on_c, 1, 57, 100
3, 103197, Note_on_c, 1, 57, 0
3, 103200, Note_on_c, 1, 50, 100
3, 103308, Note_on_c, 1, 50, 0
3, 103320, Note_on_c, 1, 50, 100
3, 103320, Note_on_c, 1, 54, 100
3, 103320, Note_on_c, 1, 57, 100
3, 103428, Note_on_c, 1, 57, 0
3, 103428, Note_on_c, 1, 54, 0
3, 103428, Note_on_c, 1, 50, 0
3, 103440, Note_on_c, 1, 50, 100
3, 103440, Note_on_c, 1, 54, 100
3, 103440, Note_on_c, 1, 57, 100
3, 103548, Note_on_c, 1, 57, 0
3, 103548, Note_on_c, 1, 54, 0
3, 103548, Note_on_c, 1, 50, 0
3, 103560, Note_on_c, 1, 50, 100
3, 103560, Note_on_c, 1, 54, 100
3, 103560, Note_on_c, 1, 57, 100
3, 103668, Note_on_c, 1, 57, 0
3, 103668, Note_on_c, 1, 54, 0
3, 103668, Note_on_c, 1, 50, 0
3, 103680, Note_on_c, 1, 43, 100
3, 103680, Note_on_c, 1, 50, 100
3, 103680, Note_on_c, 1, 55, 100
3, 103788, Note_on_c, 1, 55, 0
3, 103788, Note_on_c, 1, 50, 0
3, 103788, Note_on_c, 1, 43, 0
3, 104760, Note_on_c, 1, 55, 100
3, 104760, Note_on_c, 1, 59, 100
3, 104760, Note_on_c, 1, 62, 100
3, 104868, Note_on_c, 1, 62, 0
3, 104868, Note_on_c, 1, 59, 0
3, 104868, Note_on_c, 1, 55, 0
3, 104880, Note_on_c, 1, 55, 100
3, 104880, Note_on_c, 1, 59, 100
3, 104880, Note_on_c, 1, 62, 100
3, 104988, Note_on_c, 1, 62, 0
3, 104988, Note_on_c, 1, 59, 0
3, 104988, Note_on_c, 1, 55, 0
3, 105000, Note_on_c, 1, 55, 100
3, 105000, Note_on_c, 1, 59, 100
3, 105000, Note_on_c, 1, 62, 100
3, 105108, Note_on_c, 1, 62, 0
3, 105108, Note_on_c, 1, 59, 0
3, 105108, Note_on_c, 1, 55, 0
3, 105120, Note_on_c, 1, 48, 100
3, 105120, Note_on_c, 1, 55, 100
3, 105120, Note_on_c, 1, 60, 100
3, 105228, Note_on_c, 1, 60, 0
3, 105228, Note_on_c, 1, 55, 0
3, 105228, Note_on_c, 1, 48, 0
3, 106200, Note_on_c, 1, 48, 100
3, 106200, Note_on_c, 1, 52, 100
3, 106200, Note_on_c, 1, 55, 100
3, 106308, Note_on_c, 1, 55, 0
3, 106308, Note_on_c, 1, 52, 0
3, 106308, Note_on_c, 1, 48, 0
3, 106320, Note_on_c, 1, 48, 100
3, 106320, Note_on_c, 1, 52, 100
3, 106320, Note_on_c, 1, 55, 100
3, 106428, Note_on_c, 1, 55, 0
3, 106428, Note_on_c, 1, 52, 0
3, 106428, Note_on_c, 1, 48, 0
3, 106440, Note_on_c, 1, 48, 100
3, 106440, Note_on_c, 1, 52, 100
3, 106440, Note_on_c, 1, 55, 100
3, 106548, Note_on_c, 1, 55, 0
3, 106548, Note_on_c, 1, 52, 0
3, 106548, Note_on_c, 1, 48, 0
3, 106560, Note_on_c, 1, 53, 100
3, 106614, Note_on_c, 1, 53, 0
3, 106620, Note_on_c, 1, 55, 100
3, 106674, Note_on_c, 1, 55, 0
3, 106680, Note_on_c, 1, 57, 100
3, 106734, Note_on_c, 1, 57, 0
3, 106740, Note_on_c, 1, 55, 100
3, 106794, Note_on_c, 1, 55, 0
3, 106800, Note_on_c, 1, 53, 100
3, 106854, Note_on_c, 1, 53, 0
3, 106860, Note_on_c, 1, 57, 100
3, 106914, Note_on_c, 1, 57, 0
3, 106920, Note_on_c, 1, 55, 100
3, 106974, Note_on_c, 1, 55, 0
3, 106980, Note_on_c, 1, 53, 100
3, 107034, Note_on_c, 1, 53, 0
3, 107040, Note_on_c, 1, 55, 100
3, 107094, Note_on_c, 1, 55, 0
3, 107100, Note_on_c, 1, 57, 100
3, 107154, Note_on_c, 1, 57, 0
3, 107160, Note_on_c, 1, 59, 100
3, 107214, Note_on_c, 1, 59, 0
3, 107220, Note_on_c, 1, 57, 100
3, 107274, Note_on_c, 1, 57, 0
3, 107280, Note_on_c, 1, 55, 100
3, 107334, Note_on_c, 1, 55, 0
3, 107340, Note_on_c, 1, 59, 100
3, 107394, Note_on_c, 1, 59, 0
3, 107400, Note_on_c, 1, 57, 100
3, 107454, Note_on_c, 1, 57, 0
3, 107460, Note_on_c, 1, 55, 100
3, 107514, Note_on_c, 1, 55, 0
3, 107520, Note_on_c, 1, 57, 100
3, 107574, Note_on_c, 1, 57, 0
3, 107580, Note_on_c, 1, 59, 100
3, 107634, Note_on_c, 1, 59, 0
3, 107640, Note_on_c, 1, 60, 100
3, 107694, Note_on_c, 1, 60, 0
3, 107700, Note_on_c, 1, 59, 100
3, 107754, Note_on_c, 1, 59, 0
3, 107760, Note_on_c, 1, 57, 100
3, 107814, Note_on_c, 1, 57, 0
3, 107820, Note_on_c, 1, 60, 100
3, 107874, Note_on_c, 1, 60, 0
3, 107880, Note_on_c, 1, 59, 100
3, 107934, Note_on_c, 1, 59, 0
3, 107940, Note_on_c, 1, 57, 100
3, 107994, Note_on_c, 1, 57, 0
3, 108000, Note_on_c, 1, 59, 100
3, 108054, Note_on_c, 1, 59, 0
3, 108060, Note_on_c, 1, 60, 100
3, 108114, Note_on_c, 1, 60, 0
3, 108120, Note_on_c, 1, 62, 100
3, 108174, Note_on_c, 1, 62, 0
3, 108180, Note_on_c, 1, 60, 100
3, 108234, Note_on_c, 1, 60, 0
3, 108240, Note_on_c, 1, 59, 100
3, 108294, Note_on_c, 1, 59, 0
3, 108300, Note_on_c, 1, 62, 100
3, 108354, Note_on_c, 1, 62, 0
3, 108360, Note_on_c, 1, 60, 100
3, 108414, Note_on_c, 1, 60, 0
3, 108420, Note_on_c, 1, 59, 100
3, 108474, Note_on_c, 1, 59, 0
3, 108480, Note_on_c, 1, 60, 100
3, 108534, Note_on_c, 1, 60, 0
3, 108540, Note_on_c, 1, 60, 100
3, 108594, Note_on_c, 1, 60, 0
3, 108600, Note_on_c, 1, 64, 100
3, 108654, Note_on_c, 1, 64, 0
3, 108660, Note_on_c, 1, 67, 100
3, 108714, Note_on_c, 1, 67, 0
3, 108720, Note_on_c, 1, 72, 100
3, 108774, Note_on_c, 1, 72, 0
3, 108780, Note_on_c, 1, 70, 100
3, 108834, Note_on_c, 1, 70, 0
3, 108840, Note_on_c, 1, 69, 100
3, 108894, Note_on_c, 1, 69, 0
3, 108900, Note_on_c, 1, 67, 100
3, 108954, Note_on_c, 1, 67, 0
3, 108960, Note_on_c, 1, 69, 100
3, 109014, Note_on_c, 1, 69, 0
3, 109020, Note_on_c, 1, 67, 100
3, 109074, Note_on_c, 1, 67, 0
3, 109080, Note_on_c, 1, 65, 100
3, 109134, Note_on_c, 1, 65, 0
3, 109140, Note_on_c, 1, 64, 100
3, 109194, Note_on_c, 1, 64, 0
3, 109200, Note_on_c, 1, 65, 100
3, 109254, Note_on_c, 1, 65, 0
3, 109260, Note_on_c, 1, 64, 100
3, 109314, Note_on_c, 1, 64, 0
3, 109320, Note_on_c, 1, 62, 100
3, 109374, Note_on_c, 1, 62, 0
3, 109380, Note_on_c, 1, 60, 100
3, 109434, Note_on_c, 1, 60, 0
3, 109440, Note_on_c, 1, 62, 100
3, 109548, Note_on_c, 1, 62, 0
3, 109560, Note_on_c, 1, 55, 100
3, 109668, Note_on_c, 1, 55, 0
3, 109680, Note_on_c, 1, 67, 100
3, 109788, Note_on_c, 1, 67, 0
3, 109800, Note_on_c, 1, 55, 100
3, 109908, Note_on_c, 1, 55, 0
3, 110040, Note_on_c, 1, 55, 100
3, 110148, Note_on_c, 1, 55, 0
3, 110160, Note_on_c, 1, 67, 100
3, 110268, Note_on_c, 1, 67, 0
3, 110280, Note_on_c, 1, 55, 100
3, 110388, Note_on_c, 1, 55, 0
3, 110520, Note_on_c, 1, 55, 100
3, 110628, Note_on_c, 1, 55, 0
3, 110640, Note_on_c, 1, 67, 100
3, 110748, Note_on_c, 1, 67, 0
3, 110760, Note_on_c, 1, 55, 100
3, 110868, Note_on_c, 1, 55, 0
3, 111000, Note_on_c, 1, 55, 100
3, 111108, Note_on_c, 1, 55, 0
3, 111120, Note_on_c, 1, 67, 100
3, 111228, Note_on_c, 1, 67, 0
3, 111240, Note_on_c, 1, 55, 100
3, 111348, Note_on_c, 1, 55, 0
3, 111480, Note_on_c, 1, 55, 100
3, 111588, Note_on_c, 1, 55, 0
3, 111600, Note_on_c, 1, 67, 100
3, 111708, Note_on_c, 1, 67, 0
3, 111720, Note_on_c, 1, 55, 100
3, 111828, Note_on_c, 1, 55, 0
3, 111960, Note_on_c, 1, 55, 100
3, 112068, Note_on_c, 1, 55, 0
3, 112080, Note_on_c, 1, 67, 100
3, 112188, Note_on_c, 1, 67, 0
3, 112200, Note_on_c, 1, 55, 100
3, 112308, Note_on_c, 1, 55, 0
3, 112440, Note_on_c, 1, 55, 100
3, 112548, Note_on_c, 1, 55, 0
3, 112560, Note_on_c, 1, 67, 100
3, 112668, Note_on_c, 1, 67, 0
3, 112680, Note_on_c, 1, 55, 100
3, 112788, Note_on_c, 1, 55, 0
3, 112920, Note_on_c, 1, 55, 100
3, 113028, Note_on_c, 1, 55, 0
3, 113040, Note_on_c, 1, 67, 100
3, 113148, Note_on_c, 1, 67, 0
3, 113160, Note_on_c, 1, 55, 100
3, 113268, Note_on_c, 1, 55, 0
3, 113400, Note_on_c, 1, 55, 100
3, 113508, Note_on_c, 1, 55, 0
3, 113520, Note_on_c, 1, 67, 100
3, 113628, Note_on_c, 1, 67, 0
3, 113640, Note_on_c, 1, 55, 100
3, 113748, Note_on_c, 1, 55, 0
3, 113880, Note_on_c, 1, 55, 100
3, 113988, Note_on_c, 1, 55, 0
3, 114000, Note_on_c, 1, 67, 100
3, 114108, Note_on_c, 1, 67, 0
3, 114120, Note_on_c, 1, 55, 100
3, 114228, Note_on_c, 1, 55, 0
3, 114240, Note_on_c, 1, 55, 100
3, 114294, Note_on_c, 1, 55, 0
3, 114300, Note_on_c, 1, 57, 100
3, 114354, Note_on_c, 1, 57, 0
3, 114360, Note_on_c, 1, 59, 100
3, 114414, Note_on_c, 1, 59, 0
3, 114420, Note_on_c, 1, 55, 100
3, 114474, Note_on_c, 1, 55, 0
3, 114480, Note_on_c, 1, 52, 100
3, 114534, Note_on_c, 1, 52, 0
3, 114540, Note_on_c, 1, 53, 100
3, 114594, Note_on_c, 1, 53, 0
3, 114600, Note_on_c, 1, 55, 100
3, 114654, Note_on_c, 1, 55, 0
3, 114660, Note_on_c, 1, 52, 100
3, 114714, Note_on_c, 1, 52, 0
3, 114720, Note_on_c, 1, 49, 100
3, 114774, Note_on_c, 1, 49, 0
3, 114780, Note_on_c, 1, 50, 100
3, 114834, Note_on_c, 1, 50, 0
3, 114840, Note_on_c, 1, 52, 100
3, 114894, Note_on_c, 1, 52, 0
3, 114900, Note_on_c, 1, 49, 100
3, 114954, Note_on_c, 1, 49, 0
3, 114960, Note_on_c, 1, 45, 100
3, 115014, Note_on_c, 1, 45, 0
3, 115020, Note_on_c, 1, 47, 100
3, 115074, Note_on_c, 1, 47, 0
3, 115080, Note_on_c, 1, 49, 100
3, 115134, Note_on_c, 1, 49, 0
3, 115140, Note_on_c, 1, 45, 100
3, 115194, Note_on_c, 1, 45, 0
3, 115200, Note_on_c, 1, 53, 100
3, 115254, Note_on_c, 1, 53, 0
3, 115260, Note_on_c, 1, 55, 100
3, 115314, Note_on_c, 1, 55, 0
3, 115320, Note_on_c, 1, 57, 100
3, 115374, Note_on_c, 1, 57, 0
3, 115380, Note_on_c, 1, 53, 100
3, 115434, Note_on_c, 1, 53, 0
3, 115440, Note_on_c, 1, 50, 100
3, 115494, Note_on_c, 1, 50, 0
3, 115500, Note_on_c, 1, 52, 100
3, 115554, Note_on_c, 1, 52, 0
3, 115560, Note_on_c, 1, 53, 100
3, 115614, Note_on_c, 1, 53, 0
3, 115620, Note_on_c, 1, 50, 100
3, 115674, Note_on_c, 1, 50, 0
3, 115680, Note_on_c, 1, 47, 100
3, 115734, Note_on_c, 1, 47, 0
3, 115740, Note_on_c, 1, 48, 100
3, 115794, Note_on_c, 1, 48, 0
3, 115800, Note_on_c, 1, 50, 100
3, 115854, Note_on_c, 1, 50, 0
3, 115860, Note_on_c, 1, 47, 100
3, 115914, Note_on_c, 1, 47, 0
3, 115920, Note_on_c, 1, 43, 100
3, 115974, Note_on_c, 1, 43, 0
3, 115980, Note_on_c, 1, 45, 100
3, 116034, Note_on_c, 1, 45, 0
3, 116040, Note_on_c, 1, 47, 100
3, 116094, Note_on_c, 1, 47, 0
3, 116100, Note_on_c, 1, 43, 100
3, 116154, Note_on_c, 1, 43, 0
3, 116160, Note_on_c, 1, 52, 100
3, 116214, Note_on_c, 1, 52, 0
3, 116220, Note_on_c, 1, 53, 100
3, 116274, Note_on_c, 1, 53, 0
3, 116280, Note_on_c, 1, 55, 100
3, 116334, Note_on_c, 1, 55, 0
3, 116340, Note_on_c, 1, 52, 100
3, 116394, Note_on_c, 1, 52, 0
3, 116400, Note_on_c, 1, 48, 100
3, 116454, Note_on_c, 1, 48, 0
3, 116460, Note_on_c, 1, 50, 100
3, 116514, Note_on_c, 1, 50, 0
3, 116520, Note_on_c, 1, 52, 100
3, 116574, Note_on_c, 1, 52, 0
3, 116580, Note_on_c, 1, 48, 100
3, 116634, Note_on_c, 1, 48, 0
3, 116640, Note_on_c, 1, 45, 100
3, 116694, Note_on_c, 1, 45, 0
3, 116700, Note_on_c, 1, 47, 100
3, 116754, Note_on_c, 1, 47, 0
3, 116760, Note_on_c, 1, 48, 100
3, 116814, Note_on_c, 1, 48, 0
3, 116820, Note_on_c, 1, 45, 100
3, 116874, Note_on_c, 1, 45, 0
3, 116880, Note_on_c, 1, 42, 100
3, 116934, Note_on_c, 1, 42, 0
3, 116940, Note_on_c, 1, 43, 100
3, 116994, Note_on_c, 1, 43, 0
3, 117000, Note_on_c, 1, 45, 100
3, 117054, Note_on_c, 1, 45, 0
3, 117060, Note_on_c, 1, 42, 100
3, 117114, Note_on_c, 1, 42, 0
3, 117120, Note_on_c, 1, 43, 100
3, 117228, Note_on_c, 1, 43, 0
3, 117240, Note_on_c, 1, 55, 100
3, 117348, Note_on_c, 1, 55, 0
3, 117360, Note_on_c, 1, 48, 100
3, 117468, Note_on_c, 1, 48, 0
3, 117480, Note_on_c, 1, 52, 100
3, 117588, Note_on_c, 1, 52, 0
3, 117600, Note_on_c, 1, 41, 100
3, 117708, Note_on_c, 1, 41, 0
3, 117720, Note_on_c, 1, 53, 100
3, 117828, Note_on_c, 1, 53, 0
3, 117840, Note_on_c, 1, 47, 100
3, 117948, Note_on_c, 1, 47, 0
3, 117960, Note_on_c, 1, 50, 100
3, 118068, Note_on_c, 1, 50, 0
3, 118080, Note_on_c, 1, 40, 100
3, 118188, Note_on_c, 1, 40, 0
3, 118200, Note_on_c, 1, 52, 100
3, 118308, Note_on_c, 1, 52, 0
3, 118320, Note_on_c, 1, 45, 100
3, 118428, Note_on_c, 1, 45, 0
3, 118440, Note_on_c, 1, 48, 100
3, 118548, Note_on_c, 1, 48, 0
3, 118560, Note_on_c, 1, 38, 100
3, 118668, Note_on_c, 1, 38, 0
3, 118680, Note_on_c, 1, 50, 100
3, 118788, Note_on_c, 1, 50, 0
3, 118800, Note_on_c, 1, 43, 100
3, 118908, Note_on_c, 1, 43, 0
3, 118920, Note_on_c, 1, 47, 100
3, 119028, Note_on_c, 1, 47, 0
3, 119040, Note_on_c, 1, 36, 100
3, 119148, Note_on_c, 1, 36, 0
3, 119160, Note_on_c, 1, 48, 100
3, 119268, Note_on_c, 1, 48, 0
3, 119400, Note_on_c, 1, 48, 100
3, 119508, Note_on_c, 1, 48, 0
3, 119520, Note_on_c, 1, 53, 100
3, 119628, Note_on_c, 1, 53, 0
3, 119640, Note_on_c, 1, 65, 100
3, 119748, Note_on_c, 1, 65, 0
3, 119880, Note_on_c, 1, 50, 100
3, 119988, Note_on_c, 1, 50, 0
3, 120000, Note_on_c, 1, 55, 100
3, 120108, Note_on_c, 1, 55, 0
3, 120120, Note_on_c, 1, 67, 100
3, 120228, Note_on_c, 1, 67, 0
3, 120360, Note_on_c, 1, 52, 100
3, 120468, Note_on_c, 1, 52, 0
3, 120480, Note_on_c, 1, 57, 100
3, 120588, Note_on_c, 1, 57, 0
3, 120600, Note_on_c, 1, 69, 100
3, 120708, Note_on_c, 1, 69, 0
3, 120840, Note_on_c, 1, 53, 100
3, 120948, Note_on_c, 1, 53, 0
3, 120960, Note_on_c, 1, 59, 100
3, 121068, Note_on_c, 1, 59, 0
3, 121080, Note_on_c, 1, 67, 100
3, 121188, Note_on_c, 1, 67, 0
3, 121320, Note_on_c, 1, 55, 100
3, 121428, Note_on_c, 1, 55, 0
3, 121440, Note_on_c, 1, 60, 100
3, 121548, Note_on_c, 1, 60, 0
3, 121560, Note_on_c, 1, 62, 100
3, 121668, Note_on_c, 1, 62, 0
3, 121680, Note_on_c, 1, 64, 100
3, 121788, Note_on_c, 1, 64, 0
3, 121800, Note_on_c, 1, 65, 100
3, 121908, Note_on_c, 1, 65, 0
3, 121920, Note_on_c, 1, 67, 100
3, 122028, Note_on_c, 1, 67, 0
3, 122040, Note_on_c, 1, 69, 100
3, 122148, Note_on_c, 1, 69, 0
3, 122160, Note_on_c, 1, 71, 100
3, 122268, Note_on_c, 1, 71, 0
3, 122280, Note_on_c, 1, 67, 100
3, 122388, Note_on_c, 1, 67, 0
3, 122400, Note_on_c, 1, 72, 100
3, 122508, Note_on_c, 1, 72, 0
3, 122520, Note_on_c, 1, 67, 100
3, 122628, Note_on_c, 1, 67, 0
3, 122640, Note_on_c, 1, 64, 100
3, 122748, Note_on_c, 1, 64, 0
3, 122760, Note_on_c, 1, 67, 100
3, 122868, Note_on_c, 1, 67, 0
3, 122880, Note_on_c, 1, 72, 100
3, 122988, Note_on_c, 1, 72, 0
3, 123000, Note_on_c, 1, 69, 100
3, 123108, Note_on_c, 1, 69, 0
3, 123120, Note_on_c, 1, 65, 100
3, 123228, Note_on_c, 1, 65, 0
3, 123240, Note_on_c, 1, 69, 100
3, 123348, Note_on_c, 1, 69, 0
3, 123360, Note_on_c, 1, 71, 100
3, 123468, Note_on_c, 1, 71, 0
3, 123480, Note_on_c, 1, 65, 100
3, 123588, Note_on_c, 1, 65, 0
3, 123600, Note_on_c, 1, 62, 100
3, 123708, Note_on_c, 1, 62, 0
3, 123720, Note_on_c, 1, 65, 100
3, 123828, Note_on_c, 1, 65, 0
3, 123840, Note_on_c, 1, 71, 100
3, 123948, Note_on_c, 1, 71, 0
3, 123960, Note_on_c, 1, 67, 100
3, 124068, Note_on_c, 1, 67, 0
3, 124080, Note_on_c, 1, 64, 100
3, 124188, Note_on_c, 1, 64, 0
3, 124200, Note_on_c, 1, 67, 100
3, 124308, Note_on_c, 1, 67, 0
3, 124320, Note_on_c, 1, 69, 100
3, 124428, Note_on_c, 1, 69, 0
3, 124440, Note_on_c, 1, 64, 100
3, 124548, Note_on_c, 1, 64, 0
3, 124560, Note_on_c, 1, 60, 100
3, 124668, Note_on_c, 1, 60, 0
3, 124680, Note_on_c, 1, 64, 100
3, 124788, Note_on_c, 1, 64, 0
3, 124800, Note_on_c, 1, 69, 100
3, 124908, Note_on_c, 1, 69, 0
3, 124920, Note_on_c, 1, 65, 100
3, 125028, Note_on_c, 1, 65, 0
3, 125040, Note_on_c, 1, 62, 100
3, 125148, Note_on_c, 1, 62, 0
3, 125160, Note_on_c, 1, 65, 100
3, 125268, Note_on_c, 1, 65, 0
3, 125280, Note_on_c, 1, 67, 100
3, 125388, Note_on_c, 1, 67, 0
3, 125400, Note_on_c, 1, 62, 100
3, 125508, Note_on_c, 1, 62, 0
3, 125520, Note_on_c, 1, 59, 100
3, 125628, Note_on_c, 1, 59, 0
3, 125640, Note_on_c, 1, 55, 100
3, 125748, Note_on_c, 1, 55, 0
3, 125760, Note_on_c, 1, 60, 100
3, 125868, Note_on_c, 1, 60, 0
3, 125880, Note_on_c, 1, 62, 100
3, 125988, Note_on_c, 1, 62, 0
3, 126000, Note_on_c, 1, 64, 100
3, 126108, Note_on_c, 1, 64, 0
3, 126120, Note_on_c, 1, 62, 100
3, 126228, Note_on_c, 1, 62, 0
3, 126240, Note_on_c, 1, 64, 100
3, 126348, Note_on_c, 1, 64, 0
3, 126360, Note_on_c, 1, 65, 100
3, 126468, Note_on_c, 1, 65, 0
3, 126480, Note_on_c, 1, 67, 100
3, 126588, Note_on_c, 1, 67, 0
3, 126600, Note_on_c, 1, 55, 100
3, 126708, Note_on_c, 1, 55, 0
3, 126720, Note_on_c, 1, 60, 100
3, 126828, Note_on_c, 1, 60, 0
3, 126840, Note_on_c, 1, 55, 100
3, 126948, Note_on_c, 1, 55, 0
3, 126960, Note_on_c, 1, 60, 100
3, 127068, Note_on_c, 1, 60, 0
3, 127080, Note_on_c, 1, 55, 100
3, 127188, Note_on_c, 1, 55, 0
3, 127200, Note_on_c, 1, 60, 100
3, 127308, Note_on_c, 1, 60, 0
3, 127320, Note_on_c, 1, 59, 100
3, 127374, Note_on_c, 1, 59, 0
3, 127380, Note_on_c, 1, 57, 100
3, 127434, Note_on_c, 1, 57, 0
3, 127440, Note_on_c, 1, 55, 100
3, 127548, Note_on_c, 1, 55, 0
3, 127560, Note_on_c, 1, 57, 100
3, 127614, Note_on_c, 1, 57, 0
3, 127620, Note_on_c, 1, 59, 100
3, 127674, Note_on_c, 1, 59, 0
3, 127680, Note_on_c, 1, 60, 100
3, 127788, Note_on_c, 1, 60, 0
3, 127800, Note_on_c, 1, 59, 100
3, 127854, Note_on_c, 1, 59, 0
3, 127860, Note_on_c, 1, 57, 100
3, 127914, Note_on_c, 1, 57, 0
3, 127920, Note_on_c, 1, 55, 100
3, 128028, Note_on_c, 1, 55, 0
3, 128040, Note_on_c, 1, 53, 100
3, 128148, Note_on_c, 1, 53, 0
3, 128160, Note_on_c, 1, 52, 100
3, 128214, Note_on_c, 1, 52, 0
3, 128220, Note_on_c, 1, 53, 100
3, 128274, Note_on_c, 1, 53, 0
3, 128280, Note_on_c, 1, 55, 100
3, 128334, Note_on_c, 1, 55, 0
3, 128340, Note_on_c, 1, 52, 100
3, 128394, Note_on_c, 1, 52, 0
3, 128400, Note_on_c, 1, 48, 100
3, 128454, Note_on_c, 1, 48, 0
3, 128460, Note_on_c, 1, 50, 100
3, 128514, Note_on_c, 1, 50, 0
3, 128520, Note_on_c, 1, 52, 100
3, 128574, Note_on_c, 1, 52, 0
3, 128580, Note_on_c, 1, 54, 100
3, 128634, Note_on_c, 1, 54, 0
3, 128640, Note_on_c, 1, 55, 100
3, 128748, Note_on_c, 1, 55, 0
3, 128760, Note_on_c, 1, 50, 100
3, 128868, Note_on_c, 1, 50, 0
3, 128880, Note_on_c, 1, 55, 100
3, 128988, Note_on_c, 1, 55, 0
3, 129000, Note_on_c, 1, 50, 100
3, 129108, Note_on_c, 1, 50, 0
3, 129120, Note_on_c, 1, 55, 100
3, 129228, Note_on_c, 1, 55, 0
3, 129240, Note_on_c, 1, 54, 100
3, 129294, Note_on_c, 1, 54, 0
3, 129300, Note_on_c, 1, 52, 100
3, 129354, Note_on_c, 1, 52, 0
3, 129360, Note_on_c, 1, 50, 100
3, 129468, Note_on_c, 1, 50, 0
3, 129480, Note_on_c, 1, 52, 100
3, 129534, Note_on_c, 1, 52, 0
3, 129540, Note_on_c, 1, 54, 100
3, 129594, Note_on_c, 1, 54, 0
3, 129600, Note_on_c, 1, 55, 100
3, 129708, Note_on_c, 1, 55, 0
3, 129720, Note_on_c, 1, 54, 100
3, 129774, Note_on_c, 1, 54, 0
3, 129780, Note_on_c, 1, 52, 100
3, 129834, Note_on_c, 1, 52, 0
3, 129840, Note_on_c, 1, 50, 100
3, 129948, Note_on_c, 1, 50, 0
3, 129960, Note_on_c, 1, 48, 100
3, 130068, Note_on_c, 1, 48, 0
3, 130080, Note_on_c, 1, 47, 100
3, 130134, Note_on_c, 1, 47, 0
3, 130140, Note_on_c, 1, 48, 100
3, 130194, Note_on_c, 1, 48, 0
3, 130200, Note_on_c, 1, 50, 100
3, 130254, Note_on_c, 1, 50, 0
3, 130260, Note_on_c, 1, 47, 100
3, 130314, Note_on_c, 1, 47, 0
3, 130320, Note_on_c, 1, 43, 100
3, 130374, Note_on_c, 1, 43, 0
3, 130380, Note_on_c, 1, 47, 100
3, 130434, Note_on_c, 1, 47, 0
3, 130440, Note_on_c, 1, 50, 100
3, 130494, Note_on_c, 1, 50, 0
3, 130500, Note_on_c, 1, 53, 100
3, 130554, Note_on_c, 1, 53, 0
3, 130560, Note_on_c, 1, 48, 100
3, 130614, Note_on_c, 1, 48, 0
3, 130620, Note_on_c, 1, 50, 100
3, 130674, Note_on_c, 1, 50, 0
3, 130680, Note_on_c, 1, 52, 100
3, 130734, Note_on_c, 1, 52, 0
3, 130740, Note_on_c, 1, 48, 100
3, 130794, Note_on_c, 1, 48, 0
3, 130800, Note_on_c, 1, 43, 100
3, 130854, Note_on_c, 1, 43, 0
3, 130860, Note_on_c, 1, 48, 100
3, 130914, Note_on_c, 1, 48, 0
3, 130920, Note_on_c, 1, 52, 100
3, 130974, Note_on_c, 1, 52, 0
3, 130980, Note_on_c, 1, 55, 100
3, 131034, Note_on_c, 1, 55, 0
3, 131040, Note_on_c, 1, 50, 100
3, 131094, Note_on_c, 1, 50, 0
3, 131100, Note_on_c, 1, 52, 100
3, 131154, Note_on_c, 1, 52, 0
3, 131160, Note_on_c, 1, 53, 100
3, 131214, Note_on_c, 1, 53, 0
3, 131220, Note_on_c, 1, 50, 100
3, 131274, Note_on_c, 1, 50, 0
3, 131280, Note_on_c, 1, 47, 100
3, 131334, Note_on_c, 1, 47, 0
3, 131340, Note_on_c, 1, 50, 100
3, 131394, Note_on_c, 1, 50, 0
3, 131400, Note_on_c, 1, 53, 100
3, 131454, Note_on_c, 1, 53, 0
3, 131460, Note_on_c, 1, 57, 100
3, 131514, Note_on_c, 1, 57, 0
3, 131520, Note_on_c, 1, 55, 100
3, 131574, Note_on_c, 1, 55, 0
3, 131580, Note_on_c, 1, 53, 100
3, 131634, Note_on_c, 1, 53, 0
3, 131640, Note_on_c, 1, 52, 100
3, 131694, Note_on_c, 1, 52, 0
3, 131700, Note_on_c, 1, 53, 100
3, 131754, Note_on_c, 1, 53, 0
3, 131760, Note_on_c, 1, 55, 100
3, 131814, Note_on_c, 1, 55, 0
3, 131820, Note_on_c, 1, 52, 100
3, 131874, Note_on_c, 1, 52, 0
3, 131880, Note_on_c, 1, 48, 100
3, 131934, Note_on_c, 1, 48, 0
3, 131940, Note_on_c, 1, 45, 100
3, 131994, Note_on_c, 1, 45, 0
3, 132000, Note_on_c, 1, 53, 100
3, 132054, Note_on_c, 1, 53, 0
3, 132060, Note_on_c, 1, 52, 100
3, 132114, Note_on_c, 1, 52, 0
3, 132120, Note_on_c, 1, 50, 100
3, 132174, Note_on_c, 1, 50, 0
3, 132180, Note_on_c, 1, 52, 100
3, 132234, Note_on_c, 1, 52, 0
3, 132240, Note_on_c, 1, 53, 100
3, 132294, Note_on_c, 1, 53, 0
3, 132300, Note_on_c, 1, 50, 100
3, 132354, Note_on_c, 1, 50, 0
3, 132360, Note_on_c, 1, 47, 100
3, 132414, Note_on_c, 1, 47, 0
3, 132420, Note_on_c, 1, 43, 100
3, 132474, Note_on_c, 1, 43, 0
3, 132480, Note_on_c, 1, 52, 100
3, 132534, Note_on_c, 1, 52, 0
3, 132540, Note_on_c, 1, 53, 100
3, 132594, Note_on_c, 1, 53, 0
3, 132600, Note_on_c, 1, 55, 100
3, 132654, Note_on_c, 1, 55, 0
3, 132660, Note_on_c, 1, 52, 100
3, 132714, Note_on_c, 1, 52, 0
3, 132720, Note_on_c, 1, 48, 100
3, 132774, Note_on_c, 1, 48, 0
3, 132780, Note_on_c, 1, 50, 100
3, 132834, Note_on_c, 1, 50, 0
3, 132840, Note_on_c, 1, 52, 100
3, 132894, Note_on_c, 1, 52, 0
3, 132900, Note_on_c, 1, 48, 100
3, 132954, Note_on_c, 1, 48, 0
3, 132960, Note_on_c, 1, 45, 100
3, 133014, Note_on_c, 1, 45, 0
3, 133020, Note_on_c, 1, 47, 100
3, 133074, Note_on_c, 1, 47, 0
3, 133080, Note_on_c, 1, 48, 100
3, 133134, Note_on_c, 1, 48, 0
3, 133140, Note_on_c, 1, 45, 100
3, 133194, Note_on_c, 1, 45, 0
3, 133200, Note_on_c, 1, 41, 100
3, 133254, Note_on_c, 1, 41, 0
3, 133260, Note_on_c, 1, 43, 100
3, 133314, Note_on_c, 1, 43, 0
3, 133320, Note_on_c, 1, 45, 100
3, 133374, Note_on_c, 1, 45, 0
3, 133380, Note_on_c, 1, 41, 100
3, 133434, Note_on_c, 1, 41, 0
3, 133440, Note_on_c, 1, 38, 100
3, 133602, Note_on_c, 1, 38, 0
3, 133620, Note_on_c, 1, 40, 100
3, 133674, Note_on_c, 1, 40, 0
3, 133680, Note_on_c, 1, 41, 100
3, 133734, Note_on_c, 1, 41, 0
3, 133740, Note_on_c, 1, 43, 100
3, 133794, Note_on_c, 1, 43, 0
3, 133800, Note_on_c, 1, 45, 100
3, 133854, Note_on_c, 1, 45, 0
3, 133860, Note_on_c, 1, 47, 100
3, 133914, Note_on_c, 1, 47, 0
3, 133920, Note_on_c, 1, 48, 100
3, 133974, Note_on_c, 1, 48, 0
3, 133980, Note_on_c, 1, 50, 100
3, 134034, Note_on_c, 1, 50, 0
3, 134040, Note_on_c, 1, 52, 100
3, 134094, Note_on_c, 1, 52, 0
3, 134100, Note_on_c, 1, 53, 100
3, 134154, Note_on_c, 1, 53, 0
3, 134160, Note_on_c, 1, 55, 100
3, 134268, Note_on_c, 1, 55, 0
3, 134280, Note_on_c, 1, 43, 100
3, 134388, Note_on_c, 1, 43, 0
3, 134400, Note_on_c, 1, 48, 100
3, 134616, Note_on_c, 1, 48, 0
3, 134616, End_track
4, 0, Start_track
4, 0, Title_t, "Cembalo II"
4, 0, Program_c, 2, 6
4, 0, Control_c, 2, 7, 80
4, 0, Control_c, 2, 10, 32
4, 0, Note_on_c, 2, 72, 100
4, 108, Note_on_c, 2, 72, 0
4, 120, Note_on_c, 2, 67, 100
4, 228, Note_on_c, 2, 67, 0
4, 240, Note_on_c, 2, 72, 100
4, 348, Note_on_c, 2, 72, 0
4, 360, Note_on_c, 2, 67, 100
4, 468, Note_on_c, 2, 67, 0
4, 480, Note_on_c, 2, 72, 100
4, 588, Note_on_c, 2, 72, 0
4, 600, Note_on_c, 2, 71, 100
4, 654, Note_on_c, 2, 71, 0
4, 660, Note_on_c, 2, 69, 100
4, 714, Note_on_c, 2, 69, 0
4, 720, Note_on_c, 2, 67, 100
4, 828, Note_on_c, 2, 67, 0
4, 840, Note_on_c, 2, 69, 100
4, 894, Note_on_c, 2, 69, 0
4, 900, Note_on_c, 2, 71, 100
4, 954, Note_on_c, 2, 71, 0
4, 960, Note_on_c, 2, 72, 100
4, 1068, Note_on_c, 2, 72, 0
4, 1080, Note_on_c, 2, 71, 100
4, 1134, Note_on_c, 2, 71, 0
4, 1140, Note_on_c, 2, 69, 100
4, 1194, Note_on_c, 2, 69, 0
4, 1200, Note_on_c, 2, 67, 100
4, 1308, Note_on_c, 2, 67, 0
4, 1320, Note_on_c, 2, 65, 100
4, 1428, Note_on_c, 2, 65, 0
4, 1440, Note_on_c, 2, 64, 100
4, 1494, Note_on_c, 2, 64, 0
4, 1500, Note_on_c, 2, 65, 100
4, 1554, Note_on_c, 2, 65, 0
4, 1560, Note_on_c, 2, 67, 100
4, 1614, Note_on_c, 2, 67, 0
4, 1620, Note_on_c, 2, 64, 100
4, 1674, Note_on_c, 2, 64, 0
4, 1680, Note_on_c, 2, 60, 100
4, 1734, Note_on_c, 2, 60, 0
4, 1740, Note_on_c, 2, 62, 100
4, 1794, Note_on_c, 2, 62, 0
4, 1800, Note_on_c, 2, 64, 100
4, 1854, Note_on_c, 2, 64, 0
4, 1860, Note_on_c, 2, 66, 100
4, 1914, Note_on_c, 2, 66, 0
4, 1920, Note_on_c, 2, 67, 100
4, 2028, Note_on_c, 2, 67, 0
4, 2040, Note_on_c, 2, 62, 100
4, 2148, Note_on_c, 2, 62, 0
4, 2160, Note_on_c, 2, 67, 100
4, 2268, Note_on_c, 2, 67, 0
4, 2280, Note_on_c, 2, 62, 100
4, 2388, Note_on_c, 2, 62, 0
4, 2400, Note_on_c, 2, 67, 100
4, 2508, Note_on_c, 2, 67, 0
4, 2520, Note_on_c, 2, 66, 100
4, 2574, Note_on_c, 2, 66, 0
4, 2580, Note_on_c, 2, 64, 100
4, 2634, Note_on_c, 2, 64, 0
4, 2640, Note_on_c, 2, 62, 100
4, 2748, Note_on_c, 2, 62, 0
4, 2760, Note_on_c, 2, 64, 100
4, 2814, Note_on_c, 2, 64, 0
4, 2820, Note_on_c, 2, 66, 100
4, 2874, Note_on_c, 2, 66, 0
4, 2880, Note_on_c, 2, 67, 100
4, 2988, Note_on_c, 2, 67, 0
4, 3000, Note_on_c, 2, 66, 100
4, 3054, Note_on_c, 2, 66, 0
4, 3060, Note_on_c, 2, 64, 100
4, 3114, Note_on_c, 2, 64, 0
4, 3120, Note_on_c, 2, 62, 100
4, 3228, Note_on_c, 2, 62, 0
4, 3240, Note_on_c, 2, 60, 100
4, 3348, Note_on_c, 2, 60, 0
4, 3360, Note_on_c, 2, 59, 100
4, 3414, Note_on_c, 2, 59, 0
4, 3420, Note_on_c, 2, 60, 100
4, 3474, Note_on_c, 2, 60, 0
4, 3480, Note_on_c, 2, 62, 100
4, 3534, Note_on_c, 2, 62, 0
4, 3540, Note_on_c, 2, 59, 100
4, 3594, Note_on_c, 2, 59, 0
4, 3600, Note_on_c, 2, 55, 100
4, 3654, Note_on_c, 2, 55, 0
4, 3660, Note_on_c, 2, 59, 100
4, 3714, Note_on_c, 2, 59, 0
4, 3720, Note_on_c, 2, 62, 100
4, 3774, Note_on_c, 2, 62, 0
4, 3780, Note_on_c, 2, 65, 100
4, 3834, Note_on_c, 2, 65, 0
4, 3840, Note_on_c, 2, 60, 100
4, 3894, Note_on_c, 2, 60, 0
4, 3900, Note_on_c, 2, 62, 100
4, 3954, Note_on_c, 2, 62, 0
4, 3960, Note_on_c, 2, 64, 100
4, 4014, Note_on_c, 2, 64, 0
4, 4020, Note_on_c, 2, 60, 100
4, 4074, Note_on_c, 2, 60, 0
4, 4080, Note_on_c, 2, 55, 100
4, 4134, Note_on_c, 2, 55, 0
4, 4140, Note_on_c, 2, 60, 100
4, 4194, Note_on_c, 2, 60, 0
4, 4200, Note_on_c, 2, 64, 100
4, 4254, Note_on_c, 2, 64, 0
4, 4260, Note_on_c, 2, 67, 100
4, 4314, Note_on_c, 2, 67, 0
4, 4320, Note_on_c, 2, 62, 100
4, 4374, Note_on_c, 2, 62, 0
4, 4380, Note_on_c, 2, 64, 100
4, 4434, Note_on_c, 2, 64, 0
4, 4440, Note_on_c, 2, 65, 100
4, 4494, Note_on_c, 2, 65, 0
4, 4500, Note_on_c, 2, 62, 100
4, 4554, Note_on_c, 2, 62, 0
4, 4560, Note_on_c, 2, 59, 100
4, 4614, Note_on_c, 2, 59, 0
4, 4620, Note_on_c, 2, 62, 100
4, 4674, Note_on_c, 2, 62, 0
4, 4680, Note_on_c, 2, 65, 100
4, 4734, Note_on_c, 2, 65, 0
4, 4740, Note_on_c, 2, 69, 100
4, 4794, Note_on_c, 2, 69, 0
4, 4800, Note_on_c, 2, 67, 100
4, 4854, Note_on_c, 2, 67, 0
4, 4860, Note_on_c, 2, 65, 100
4, 4914, Note_on_c, 2, 65, 0
4, 4920, Note_on_c, 2, 64, 100
4, 4974, Note_on_c, 2, 64, 0
4, 4980, Note_on_c, 2, 65, 100
4, 5034, Note_on_c, 2, 65, 0
4, 5040, Note_on_c, 2, 67, 100
4, 5094, Note_on_c, 2, 67, 0
4, 5100, Note_on_c, 2, 64, 100
4, 5154, Note_on_c, 2, 64, 0
4, 5160, Note_on_c, 2, 60, 100
4, 5214, Note_on_c, 2, 60, 0
4, 5220, Note_on_c, 2, 57, 100
4, 5274, Note_on_c, 2, 57, 0
4, 5280, Note_on_c, 2, 65, 100
4, 5334, Note_on_c, 2, 65, 0
4, 5340, Note_on_c, 2, 64, 100
4, 5394, Note_on_c, 2, 64, 0
4, 5400, Note_on_c, 2, 62, 100
4, 5454, Note_on_c, 2, 62, 0
4, 5460, Note_on_c, 2, 64, 100
4, 5514, Note_on_c, 2, 64, 0
4, 5520, Note_on_c, 2, 65, 100
4, 5574, Note_on_c, 2, 65, 0
4, 5580, Note_on_c, 2, 62, 100
4, 5634, Note_on_c, 2, 62, 0
4, 5640, Note_on_c, 2, 59, 100
4, 5694, Note_on_c, 2, 59, 0
4, 5700, Note_on_c, 2, 55, 100
4, 5754, Note_on_c, 2, 55, 0
4, 5760, Note_on_c, 2, 64, 100
4, 5814, Note_on_c, 2, 64, 0
4, 5820, Note_on_c, 2, 65, 100
4, 5874, Note_on_c, 2, 65, 0
4, 5880, Note_on_c, 2, 67, 100
4, 5934, Note_on_c, 2, 67, 0
4, 5940, Note_on_c, 2, 64, 100
4, 5994, Note_on_c, 2, 64, 0
4, 6000, Note_on_c, 2, 60, 100
4, 6054, Note_on_c, 2, 60, 0
4, 6060, Note_on_c, 2, 62, 100
4, 6114, Note_on_c, 2, 62, 0
4, 6120, Note_on_c, 2, 64, 100
4, 6174, Note_on_c, 2, 64, 0
4, 6180, Note_on_c, 2, 60, 100
4, 6234, Note_on_c, 2, 60, 0
4, 6240, Note_on_c, 2, 57, 100
4, 6294, Note_on_c, 2, 57, 0
4, 6300, Note_on_c, 2, 59, 100
4, 6354, Note_on_c, 2, 59, 0
4, 6360, Note_on_c, 2, 60, 100
4, 6414, Note_on_c, 2, 60, 0
4, 6420, Note_on_c, 2, 57, 100
4, 6474, Note_on_c, 2, 57, 0
4, 6480, Note_on_c, 2, 53, 100
4, 6534, Note_on_c, 2, 53, 0
4, 6540, Note_on_c, 2, 55, 100
4, 6594, Note_on_c, 2, 55, 0
4, 6600, Note_on_c, 2, 57, 100
4, 6654, Note_on_c, 2, 57, 0
4, 6660, Note_on_c, 2, 53, 100
4, 6714, Note_on_c, 2, 53, 0
4, 6720, Note_on_c, 2, 50, 100
4, 6882, Note_on_c, 2, 50, 0
4, 6900, Note_on_c, 2, 52, 100
4, 6954, Note_on_c, 2, 52, 0
4, 6960, Note_on_c, 2, 53, 100
4, 7014, Note_on_c, 2, 53, 0
4, 7020, Note_on_c, 2, 55, 100
4, 7074, Note_on_c, 2, 55, 0
4, 7080, Note_on_c, 2, 57, 100
4, 7134, Note_on_c, 2, 57, 0
4, 7140, Note_on_c, 2, 59, 100
4, 7194, Note_on_c, 2, 59, 0
4, 7200, Note_on_c, 2, 60, 100
4, 7254, Note_on_c, 2, 60, 0
4, 7260, Note_on_c, 2, 62, 100
4, 7314, Note_on_c, 2, 62, 0
4, 7320, Note_on_c, 2, 64, 100
4, 7374, Note_on_c, 2, 64, 0
4, 7380, Note_on_c, 2, 65, 100
4, 7434, Note_on_c, 2, 65, 0
4, 7440, Note_on_c, 2, 67, 100
4, 7548, Note_on_c, 2, 67, 0
4, 7560, Note_on_c, 2, 55, 100
4, 7668, Note_on_c, 2, 55, 0
4, 7680, Note_on_c, 2, 60, 100
4, 7734, Note_on_c, 2, 60, 0
4, 7740, Note_on_c, 2, 72, 100
4, 7794, Note_on_c, 2, 72, 0
4, 7800, Note_on_c, 2, 71, 100
4, 7854, Note_on_c, 2, 71, 0
4, 7860, Note_on_c, 2, 72, 100
4, 7914, Note_on_c, 2, 72, 0
4, 7920, Note_on_c, 2, 76, 100
4, 7974, Note_on_c, 2, 76, 0
4, 7980, Note_on_c, 2, 72, 100
4, 8034, Note_on_c, 2, 72, 0
4, 8040, Note_on_c, 2, 71, 100
4, 8094, Note_on_c, 2, 71, 0
4, 8100, Note_on_c, 2, 72, 100
4, 8154, Note_on_c, 2, 72, 0
4, 8160, Note_on_c, 2, 67, 100
4, 8214, Note_on_c, 2, 67, 0
4, 8220, Note_on_c, 2, 76, 100
4, 8274, Note_on_c, 2, 76, 0
4, 8280, Note_on_c, 2, 74, 100
4, 8334, Note_on_c, 2, 74, 0
4, 8340, Note_on_c, 2, 72, 100
4, 8394, Note_on_c, 2, 72, 0
4, 8400, Note_on_c, 2, 71, 100
4, 8454, Note_on_c, 2, 71, 0
4, 8460, Note_on_c, 2, 69, 100
4, 8514, Note_on_c, 2, 69, 0
4, 8520, Note_on_c, 2, 67, 100
4, 8574, Note_on_c, 2, 67, 0
4, 8580, Note_on_c, 2, 65, 100
4, 8634, Note_on_c, 2, 65, 0
4, 8640, Note_on_c, 2, 64, 100
4, 8694, Note_on_c, 2, 64, 0
4, 8700, Note_on_c, 2, 65, 100
4, 8754, Note_on_c, 2, 65, 0
4, 8760, Note_on_c, 2, 67, 100
4, 8814, Note_on_c, 2, 67, 0
4, 8820, Note_on_c, 2, 69, 100
4, 8874, Note_on_c, 2, 69, 0
4, 8880, Note_on_c, 2, 62, 100
4, 8988, Note_on_c, 2, 62, 0
4, 9000, Note_on_c, 2, 71, 100
4, 9108, Note_on_c, 2, 71, 0
4, 9120, Note_on_c, 2, 72, 100
4, 9228, Note_on_c, 2, 72, 0
4, 9240, Note_on_c, 2, 60, 100
4, 9348, Note_on_c, 2, 60, 0
4, 9420, Note_on_c, 2, 67, 100
4, 9474, Note_on_c, 2, 67, 0
4, 9480, Note_on_c, 2, 69, 100
4, 9534, Note_on_c, 2, 69, 0
4, 9540, Note_on_c, 2, 71, 100
4, 9594, Note_on_c, 2, 71, 0
4, 9600, Note_on_c, 2, 72, 100
4, 9708, Note_on_c, 2, 72, 0
4, 9720, Note_on_c, 2, 67, 100
4, 9828, Note_on_c, 2, 67, 0
4, 9840, Note_on_c, 2, 72, 100
4, 9948, Note_on_c, 2, 72, 0
4, 9960, Note_on_c, 2, 67, 100
4, 10068, Note_on_c, 2, 67, 0
4, 10080, Note_on_c, 2, 72, 100
4, 10188, Note_on_c, 2, 72, 0
4, 10200, Note_on_c, 2, 71, 100
4, 10254, Note_on_c, 2, 71, 0
4, 10260, Note_on_c, 2, 69, 100
4, 10314, Note_on_c, 2, 69, 0
4, 10320, Note_on_c, 2, 67, 100
4, 10428, Note_on_c, 2, 67, 0
4, 10440, Note_on_c, 2, 69, 100
4, 10494, Note_on_c, 2, 69, 0
4, 10500, Note_on_c, 2, 71, 100
4, 10554, Note_on_c, 2, 71, 0
4, 10560, Note_on_c, 2, 72, 100
4, 10668, Note_on_c, 2, 72, 0
4, 10680, Note_on_c, 2, 71, 100
4, 10734, Note_on_c, 2, 71, 0
4, 10740, Note_on_c, 2, 69, 100
4, 10794, Note_on_c, 2, 69, 0
4, 10800, Note_on_c, 2, 67, 100
4, 10908, Note_on_c, 2, 67, 0
4, 10920, Note_on_c, 2, 65, 100
4, 11028, Note_on_c, 2, 65, 0
4, 11040, Note_on_c, 2, 64, 100
4, 11094, Note_on_c, 2, 64, 0
4, 11100, Note_on_c, 2, 65, 100
4, 11154, Note_on_c, 2, 65, 0
4, 11160, Note_on_c, 2, 67, 100
4, 11214, Note_on_c, 2, 67, 0
4, 11220, Note_on_c, 2, 64, 100
4, 11274, Note_on_c, 2, 64, 0
4, 11280, Note_on_c, 2, 60, 100
4, 11334, Note_on_c, 2, 60, 0
4, 11340, Note_on_c, 2, 62, 100
4, 11394, Note_on_c, 2, 62, 0
4, 11400, Note_on_c, 2, 64, 100
4, 11454, Note_on_c, 2, 64, 0
4, 11460, Note_on_c, 2, 66, 100
4, 11514, Note_on_c, 2, 66, 0
4, 11520, Note_on_c, 2, 67, 100
4, 11628, Note_on_c, 2, 67, 0
4, 11640, Note_on_c, 2, 62, 100
4, 11748, Note_on_c, 2, 62, 0
4, 11760, Note_on_c, 2, 67, 100
4, 11868, Note_on_c, 2, 67, 0
4, 11880, Note_on_c, 2, 62, 100
4, 11988, Note_on_c, 2, 62, 0
4, 12000, Note_on_c, 2, 67, 100
4, 12108, Note_on_c, 2, 67, 0
4, 12120, Note_on_c, 2, 66, 100
4, 12174, Note_on_c, 2, 66, 0
4, 12180, Note_on_c, 2, 64, 100
4, 12234, Note_on_c, 2, 64, 0
4, 12240, Note_on_c, 2, 62, 100
4, 12348, Note_on_c, 2, 62, 0
4, 12360, Note_on_c, 2, 64, 100
4, 12414, Note_on_c, 2, 64, 0
4, 12420, Note_on_c, 2, 66, 100
4, 12474, Note_on_c, 2, 66, 0
4, 12480, Note_on_c, 2, 67, 100
4, 12588, Note_on_c, 2, 67, 0
4, 12600, Note_on_c, 2, 66, 100
4, 12654, Note_on_c, 2, 66, 0
4, 12660, Note_on_c, 2, 64, 100
4, 12714, Note_on_c, 2, 64, 0
4, 12720, Note_on_c, 2, 62, 100
4, 12828, Note_on_c, 2, 62, 0
4, 12840, Note_on_c, 2, 60, 100
4, 12948, Note_on_c, 2, 60, 0
4, 12960, Note_on_c, 2, 59, 100
4, 13014, Note_on_c, 2, 59, 0
4, 13020, Note_on_c, 2, 60, 100
4, 13074, Note_on_c, 2, 60, 0
4, 13080, Note_on_c, 2, 62, 100
4, 13134, Note_on_c, 2, 62, 0
4, 13140, Note_on_c, 2, 59, 100
4, 13194, Note_on_c, 2, 59, 0
4, 13200, Note_on_c, 2, 55, 100
4, 13308, Note_on_c, 2, 55, 0
4, 13320, Note_on_c, 2, 67, 100
4, 13428, Note_on_c, 2, 67, 0
4, 13440, Note_on_c, 2, 71, 100
4, 13548, Note_on_c, 2, 71, 0
4, 13560, Note_on_c, 2, 64, 100
4, 13668, Note_on_c, 2, 64, 0
4, 13800, Note_on_c, 2, 76, 100
4, 13908, Note_on_c, 2, 76, 0
4, 13920, Note_on_c, 2, 76, 100
4, 14028, Note_on_c, 2, 76, 0
4, 14040, Note_on_c, 2, 69, 100
4, 14148, Note_on_c, 2, 69, 0
4, 14280, Note_on_c, 2, 69, 100
4, 14388, Note_on_c, 2, 69, 0
4, 14400, Note_on_c, 2, 74, 100
4, 14454, Note_on_c, 2, 74, 0
4, 14460, Note_on_c, 2, 76, 100
4, 14514, Note_on_c, 2, 76, 0
4, 14520, Note_on_c, 2, 78, 100
4, 14574, Note_on_c, 2, 78, 0
4, 14580, Note_on_c, 2, 74, 100
4, 14634, Note_on_c, 2, 74, 0
4, 14640, Note_on_c, 2, 71, 100
4, 14694, Note_on_c, 2, 71, 0
4, 14700, Note_on_c, 2, 72, 100
4, 14754, Note_on_c, 2, 72, 0
4, 14760, Note_on_c, 2, 74, 100
4, 14814, Note_on_c, 2, 74, 0
4, 14820, Note_on_c, 2, 71, 100
4, 14874, Note_on_c, 2, 71, 0
4, 14880, Note_on_c, 2, 67, 100
4, 14934, Note_on_c, 2, 67, 0
4, 14940, Note_on_c, 2, 69, 100
4, 14994, Note_on_c, 2, 69, 0
4, 15000, Note_on_c, 2, 71, 100
4, 15054, Note_on_c, 2, 71, 0
4, 15060, Note_on_c, 2, 67, 100
4, 15114, Note_on_c, 2, 67, 0
4, 15120, Note_on_c, 2, 64, 100
4, 15174, Note_on_c, 2, 64, 0
4, 15180, Note_on_c, 2, 66, 100
4, 15234, Note_on_c, 2, 66, 0
4, 15240, Note_on_c, 2, 67, 100
4, 15294, Note_on_c, 2, 67, 0
4, 15300, Note_on_c, 2, 64, 100
4, 15354, Note_on_c, 2, 64, 0
4, 15360, Note_on_c, 2, 60, 100
4, 15468, Note_on_c, 2, 60, 0
4, 15480, Note_on_c, 2, 67, 100
4, 15588, Note_on_c, 2, 67, 0
4, 15600, Note_on_c, 2, 67, 100
4, 15708, Note_on_c, 2, 67, 0
4, 15720, Note_on_c, 2, 60, 100
4, 15828, Note_on_c, 2, 60, 0
4, 15960, Note_on_c, 2, 72, 100
4, 16068, Note_on_c, 2, 72, 0
4, 16080, Note_on_c, 2, 72, 100
4, 16134, Note_on_c, 2, 72, 0
4, 16140, Note_on_c, 2, 66, 100
4, 16194, Note_on_c, 2, 66, 0
4, 16200, Note_on_c, 2, 69, 100
4, 16254, Note_on_c, 2, 69, 0
4, 16260, Note_on_c, 2, 72, 100
4, 16314, Note_on_c, 2, 72, 0
4, 16320, Note_on_c, 2, 67, 100
4, 16374, Note_on_c, 2, 67, 0
4, 16380, Note_on_c, 2, 69, 100
4, 16434, Note_on_c, 2, 69, 0
4, 16440, Note_on_c, 2, 71, 100
4, 16494, Note_on_c, 2, 71, 0
4, 16500, Note_on_c, 2, 67, 100
4, 16554, Note_on_c, 2, 67, 0
4, 16560, Note_on_c, 2, 62, 100
4, 16614, Note_on_c, 2, 62, 0
4, 16620, Note_on_c, 2, 67, 100
4, 16674, Note_on_c, 2, 67, 0
4, 16680, Note_on_c, 2, 71, 100
4, 16734, Note_on_c, 2, 71, 0
4, 16740, Note_on_c, 2, 74, 100
4, 16794, Note_on_c, 2, 74, 0
4, 16800, Note_on_c, 2, 69, 100
4, 16854, Note_on_c, 2, 69, 0
4, 16860, Note_on_c, 2, 71, 100
4, 16914, Note_on_c, 2, 71, 0
4, 16920, Note_on_c, 2, 72, 100
4, 16974, Note_on_c, 2, 72, 0
4, 16980, Note_on_c, 2, 69, 100
4, 17034, Note_on_c, 2, 69, 0
4, 17040, Note_on_c, 2, 66, 100
4, 17148, Note_on_c, 2, 66, 0
4, 17160, Note_on_c, 2, 69, 100
4, 17160, Note_on_c, 2, 74, 100
4, 17160, Note_on_c, 2, 78, 100
4, 17268, Note_on_c, 2, 78, 0
4, 17268, Note_on_c, 2, 74, 0
4, 17268, Note_on_c, 2, 69, 0
4, 17280, Note_on_c, 2, 71, 100
4, 17280, Note_on_c, 2, 74, 100
4, 17280, Note_on_c, 2, 79, 100
4, 17388, Note_on_c, 2, 79, 0
4, 17388, Note_on_c, 2, 74, 0
4, 17388, Note_on_c, 2, 71, 0
4, 17400, Note_on_c, 2, 66, 100
4, 17400, Note_on_c, 2, 72, 100
4, 17400, Note_on_c, 2, 74, 100
4, 17508, Note_on_c, 2, 74, 0
4, 17508, Note_on_c, 2, 72, 0
4, 17508, Note_on_c, 2, 66, 0
4, 17520, Note_on_c, 2, 67, 100
4, 17520, Note_on_c, 2, 71, 100
4, 17520, Note_on_c, 2, 74, 100
4, 17628, Note_on_c, 2, 74, 0
4, 17628, Note_on_c, 2, 71, 0
4, 17628, Note_on_c, 2, 67, 0
4, 17640, Note_on_c, 2, 67, 100
4, 17748, Note_on_c, 2, 67, 0
4, 17880, Note_on_c, 2, 65, 100
4, 17880, Note_on_c, 2, 67, 100
4, 17880, Note_on_c, 2, 71, 100
4, 17988, Note_on_c, 2, 71, 0
4, 17988, Note_on_c, 2, 67, 0
4, 17988, Note_on_c, 2, 65, 0
4, 18000, Note_on_c, 2, 64, 100
4, 18000, Note_on_c, 2, 67, 100
4, 18000, Note_on_c, 2, 72, 100
4, 18108, Note_on_c, 2, 72, 0
4, 18108, Note_on_c, 2, 67, 0
4, 18108, Note_on_c, 2, 64, 0
4, 18120, Note_on_c, 2, 76, 100
4, 18120, Note_on_c, 2, 81, 100
4, 18120, Note_on_c, 2, 84, 100
4, 18228, Note_on_c, 2, 84, 0
4, 18228, Note_on_c, 2, 81, 0
4, 18228, Note_on_c, 2, 76, 0
4, 18240, Note_on_c, 2, 74, 100
4, 18240, Note_on_c, 2, 81, 100
4, 18240, Note_on_c, 2, 84, 100
4, 18348, Note_on_c, 2, 84, 0
4, 18348, Note_on_c, 2, 81, 0
4, 18348, Note_on_c, 2, 74, 0
4, 18360, Note_on_c, 2, 78, 100
4, 18468, Note_on_c, 2, 78, 0
4, 18600, Note_on_c, 2, 72, 100
4, 18600, Note_on_c, 2, 74, 100
4, 18600, Note_on_c, 2, 78, 100
4, 18708, Note_on_c, 2, 78, 0
4, 18708, Note_on_c, 2, 74, 0
4, 18708, Note_on_c, 2, 72, 0
4, 18720, Note_on_c, 2, 79, 100
4, 18720, Note_on_c, 2, 71, 100
4, 18720, Note_on_c, 2, 74, 100
4, 18828, Note_on_c, 2, 74, 0
4, 18828, Note_on_c, 2, 71, 0
4, 18840, Note_on_c, 2, 69, 100
4, 18882, Note_on_c, 2, 79, 0
4, 18900, Note_on_c, 2, 81, 100
4, 18948, Note_on_c, 2, 69, 0
4, 18954, Note_on_c, 2, 81, 0
4, 18960, Note_on_c, 2, 78, 100
4, 18960, Note_on_c, 2, 69, 100
4, 19122, Note_on_c, 2, 78, 0
4, 19140, Note_on_c, 2, 79, 100
4, 19176, Note_on_c, 2, 69, 0
4, 19194, Note_on_c, 2, 79, 0
4, 19200, Note_on_c, 2, 71, 100
4, 19200, Note_on_c, 2, 79, 100
4, 19308, Note_on_c, 2, 79, 0
4, 19308, Note_on_c, 2, 71, 0
4, 19320, Note_on_c, 2, 69, 100
4, 19374, Note_on_c, 2, 69, 0
4, 19380, Note_on_c, 2, 67, 100
4, 19434, Note_on_c, 2, 67, 0
4, 19440, Note_on_c, 2, 66, 100
4, 19494, Note_on_c, 2, 66, 0
4, 19500, Note_on_c, 2, 64, 100
4, 19554, Note_on_c, 2, 64, 0
4, 19560, Note_on_c, 2, 62, 100
4, 19614, Note_on_c, 2, 62, 0
4, 19620, Note_on_c, 2, 60, 100
4, 19674, Note_on_c, 2, 60, 0
4, 19680, Note_on_c, 2, 59, 100
4, 19734, Note_on_c, 2, 59, 0
4, 19740, Note_on_c, 2, 60, 100
4, 19794, Note_on_c, 2, 60, 0
4, 19800, Note_on_c, 2, 62, 100
4, 19854, Note_on_c, 2, 62, 0
4, 19860, Note_on_c, 2, 64, 100
4, 19914, Note_on_c, 2, 64, 0
4, 19920, Note_on_c, 2, 65, 100
4, 19974, Note_on_c, 2, 65, 0
4, 19980, Note_on_c, 2, 64, 100
4, 20034, Note_on_c, 2, 64, 0
4, 20040, Note_on_c, 2, 65, 100
4, 20094, Note_on_c, 2, 65, 0
4, 20100, Note_on_c, 2, 62, 100
4, 20154, Note_on_c, 2, 62, 0
4, 20160, Note_on_c, 2, 64, 100
4, 20214, Note_on_c, 2, 64, 0
4, 20220, Note_on_c, 2, 65, 100
4, 20274, Note_on_c, 2, 65, 0
4, 20280, Note_on_c, 2, 67, 100
4, 20334, Note_on_c, 2, 67, 0
4, 20340, Note_on_c, 2, 69, 100
4, 20394, Note_on_c, 2, 69, 0
4, 20400, Note_on_c, 2, 67, 100
4, 20454, Note_on_c, 2, 67, 0
4, 20460, Note_on_c, 2, 69, 100
4, 20514, Note_on_c, 2, 69, 0
4, 20520, Note_on_c, 2, 67, 100
4, 20574, Note_on_c, 2, 67, 0
4, 20580, Note_on_c, 2, 69, 100
4, 20634, Note_on_c, 2, 69, 0
4, 20640, Note_on_c, 2, 67, 100
4, 20694, Note_on_c, 2, 67, 0
4, 20700, Note_on_c, 2, 64, 100
4, 20754, Note_on_c, 2, 64, 0
4, 20760, Note_on_c, 2, 69, 100
4, 20814, Note_on_c, 2, 69, 0
4, 20820, Note_on_c, 2, 65, 100
4, 20874, Note_on_c, 2, 65, 0
4, 20880, Note_on_c, 2, 67, 100
4, 20934, Note_on_c, 2, 67, 0
4, 20940, Note_on_c, 2, 64, 100
4, 20994, Note_on_c, 2, 64, 0
4, 21000, Note_on_c, 2, 68, 100
4, 21054, Note_on_c, 2, 68, 0
4, 21060, Note_on_c, 2, 64, 100
4, 21114, Note_on_c, 2, 64, 0
4, 21120, Note_on_c, 2, 64, 100
4, 21174, Note_on_c, 2, 64, 0
4, 21180, Note_on_c, 2, 62, 100
4, 21234, Note_on_c, 2, 62, 0
4, 21240, Note_on_c, 2, 64, 100
4, 21294, Note_on_c, 2, 64, 0
4, 21300, Note_on_c, 2, 65, 100
4, 21354, Note_on_c, 2, 65, 0
4, 21360, Note_on_c, 2, 64, 100
4, 21414, Note_on_c, 2, 64, 0
4, 21420, Note_on_c, 2, 65, 100
4, 21474, Note_on_c, 2, 65, 0
4, 21480, Note_on_c, 2, 64, 100
4, 21534, Note_on_c, 2, 64, 0
4, 21540, Note_on_c, 2, 65, 100
4, 21594, Note_on_c, 2, 65, 0
4, 21600, Note_on_c, 2, 64, 100
4, 21708, Note_on_c, 2, 64, 0
4, 21720, Note_on_c, 2, 69, 100
4, 21774, Note_on_c, 2, 69, 0
4, 21780, Note_on_c, 2, 71, 100
4, 21834, Note_on_c, 2, 71, 0
4, 21840, Note_on_c, 2, 73, 100
4, 21894, Note_on_c, 2, 73, 0
4, 21900, Note_on_c, 2, 74, 100
4, 21954, Note_on_c, 2, 74, 0
4, 21960, Note_on_c, 2, 76, 100
4, 22014, Note_on_c, 2, 76, 0
4, 22020, Note_on_c, 2, 73, 100
4, 22074, Note_on_c, 2, 73, 0
4, 22080, Note_on_c, 2, 74, 100
4, 22134, Note_on_c, 2, 74, 0
4, 22140, Note_on_c, 2, 73, 100
4, 22194, Note_on_c, 2, 73, 0
4, 22200, Note_on_c, 2, 74, 100
4, 22254, Note_on_c, 2, 74, 0
4, 22260, Note_on_c, 2, 76, 100
4, 22314, Note_on_c, 2, 76, 0
4, 22320, Note_on_c, 2, 74, 100
4, 22374, Note_on_c, 2, 74, 0
4, 22380, Note_on_c, 2, 76, 100
4, 22434, Note_on_c, 2, 76, 0
4, 22440, Note_on_c, 2, 73, 100
4, 22494, Note_on_c, 2, 73, 0
4, 22500, Note_on_c, 2, 76, 100
4, 22554, Note_on_c, 2, 76, 0
4, 22560, Note_on_c, 2, 74, 100
4, 22614, Note_on_c, 2, 74, 0
4, 22620, Note_on_c, 2, 77, 100
4, 22674, Note_on_c, 2, 77, 0
4, 22680, Note_on_c, 2, 79, 100
4, 22734, Note_on_c, 2, 79, 0
4, 22740, Note_on_c, 2, 81, 100
4, 22794, Note_on_c, 2, 81, 0
4, 22800, Note_on_c, 2, 74, 100
4, 22908, Note_on_c, 2, 74, 0
4, 23100, Note_on_c, 2, 76, 100
4, 23154, Note_on_c, 2, 76, 0
4, 23160, Note_on_c, 2, 77, 100
4, 23214, Note_on_c, 2, 77, 0
4, 23220, Note_on_c, 2, 79, 100
4, 23274, Note_on_c, 2, 79, 0
4, 23280, Note_on_c, 2, 72, 100
4, 23388, Note_on_c, 2, 72, 0
4, 23580, Note_on_c, 2, 74, 100
4, 23634, Note_on_c, 2, 74, 0
4, 23640, Note_on_c, 2, 76, 100
4, 23694, Note_on_c, 2, 76, 0
4, 23700, Note_on_c, 2, 77, 100
4, 23754, Note_on_c, 2, 77, 0
4, 23760, Note_on_c, 2, 71, 100
4, 23868, Note_on_c, 2, 71, 0
4, 24060, Note_on_c, 2, 72, 100
4, 24114, Note_on_c, 2, 72, 0
4, 24120, Note_on_c, 2, 74, 100
4, 24174, Note_on_c, 2, 74, 0
4, 24180, Note_on_c, 2, 76, 100
4, 24234, Note_on_c, 2, 76, 0
4, 24240, Note_on_c, 2, 69, 100
4, 24348, Note_on_c, 2, 69, 0
4, 24540, Note_on_c, 2, 72, 100
4, 24594, Note_on_c, 2, 72, 0
4, 24600, Note_on_c, 2, 70, 100
4, 24654, Note_on_c, 2, 70, 0
4, 24660, Note_on_c, 2, 69, 100
4, 24714, Note_on_c, 2, 69, 0
4, 24720, Note_on_c, 2, 67, 100
4, 24828, Note_on_c, 2, 67, 0
4, 25020, Note_on_c, 2, 69, 100
4, 25074, Note_on_c, 2, 69, 0
4, 25080, Note_on_c, 2, 70, 100
4, 25134, Note_on_c, 2, 70, 0
4, 25140, Note_on_c, 2, 72, 100
4, 25194, Note_on_c, 2, 72, 0
4, 25200, Note_on_c, 2, 65, 100
4, 25308, Note_on_c, 2, 65, 0
4, 25500, Note_on_c, 2, 71, 100
4, 25554, Note_on_c, 2, 71, 0
4, 25560, Note_on_c, 2, 72, 100
4, 25614, Note_on_c, 2, 72, 0
4, 25620, Note_on_c, 2, 74, 100
4, 25674, Note_on_c, 2, 74, 0
4, 25680, Note_on_c, 2, 67, 100
4, 25788, Note_on_c, 2, 67, 0
4, 25980, Note_on_c, 2, 67, 100
4, 26034, Note_on_c, 2, 67, 0
4, 26040, Note_on_c, 2, 65, 100
4, 26094, Note_on_c, 2, 65, 0
4, 26100, Note_on_c, 2, 64, 100
4, 26154, Note_on_c, 2, 64, 0
4, 26160, Note_on_c, 2, 62, 100
4, 26268, Note_on_c, 2, 62, 0
4, 26460, Note_on_c, 2, 64, 100
4, 26514, Note_on_c, 2, 64, 0
4, 26520, Note_on_c, 2, 65, 100
4, 26574, Note_on_c, 2, 65, 0
4, 26580, Note_on_c, 2, 67, 100
4, 26634, Note_on_c, 2, 67, 0
4, 26640, Note_on_c, 2, 69, 100
4, 26748, Note_on_c, 2, 69, 0
4, 27000, Note_on_c, 2, 69, 100
4, 27108, Note_on_c, 2, 69, 0
4, 27120, Note_on_c, 2, 74, 100
4, 27174, Note_on_c, 2, 74, 0
4, 27180, Note_on_c, 2, 69, 100
4, 27234, Note_on_c, 2, 69, 0
4, 27240, Note_on_c, 2, 65, 100
4, 27294, Note_on_c, 2, 65, 0
4, 27300, Note_on_c, 2, 69, 100
4, 27354, Note_on_c, 2, 69, 0
4, 27360, Note_on_c, 2, 71, 100
4, 27414, Note_on_c, 2, 71, 0
4, 27420, Note_on_c, 2, 69, 100
4, 27474, Note_on_c, 2, 69, 0
4, 27480, Note_on_c, 2, 67, 100
4, 27534, Note_on_c, 2, 67, 0
4, 27540, Note_on_c, 2, 74, 100
4, 27594, Note_on_c, 2, 74, 0
4, 27600, Note_on_c, 2, 79, 100
4, 27654, Note_on_c, 2, 79, 0
4, 27660, Note_on_c, 2, 74, 100
4, 27714, Note_on_c, 2, 74, 0
4, 27720, Note_on_c, 2, 71, 100
4, 27774, Note_on_c, 2, 71, 0
4, 27780, Note_on_c, 2, 74, 100
4, 27834, Note_on_c, 2, 74, 0
4, 27840, Note_on_c, 2, 76, 100
4, 27948, Note_on_c, 2, 76, 0
4, 27960, Note_on_c, 2, 67, 100
4, 28068, Note_on_c, 2, 67, 0
4, 28080, Note_on_c, 2, 72, 100
4, 28188, Note_on_c, 2, 72, 0
4, 28200, Note_on_c, 2, 67, 100
4, 28308, Note_on_c, 2, 67, 0
4, 28320, Note_on_c, 2, 72, 100
4, 28428, Note_on_c, 2, 72, 0
4, 28440, Note_on_c, 2, 71, 100
4, 28494, Note_on_c, 2, 71, 0
4, 28500, Note_on_c, 2, 69, 100
4, 28554, Note_on_c, 2, 69, 0
4, 28560, Note_on_c, 2, 67, 100
4, 28668, Note_on_c, 2, 67, 0
4, 28680, Note_on_c, 2, 69, 100
4, 28734, Note_on_c, 2, 69, 0
4, 28740, Note_on_c, 2, 71, 100
4, 28794, Note_on_c, 2, 71, 0
4, 28800, Note_on_c, 2, 72, 100
4, 28908, Note_on_c, 2, 72, 0
4, 28920, Note_on_c, 2, 71, 100
4, 28974, Note_on_c, 2, 71, 0
4, 28980, Note_on_c, 2, 69, 100
4, 29034, Note_on_c, 2, 69, 0
4, 29040, Note_on_c, 2, 67, 100
4, 29148, Note_on_c, 2, 67, 0
4, 29160, Note_on_c, 2, 65, 100
4, 29268, Note_on_c, 2, 65, 0
4, 29280, Note_on_c, 2, 64, 100
4, 29388, Note_on_c, 2, 64, 0
4, 29400, Note_on_c, 2, 72, 100
4, 29400, Note_on_c, 2, 76, 100
4, 29400, Note_on_c, 2, 79, 100
4, 29508, Note_on_c, 2, 79, 0
4, 29508, Note_on_c, 2, 76, 0
4, 29508, Note_on_c, 2, 72, 0
4, 29520, Note_on_c, 2, 72, 100
4, 29520, Note_on_c, 2, 76, 100
4, 29628, Note_on_c, 2, 76, 0
4, 29628, Note_on_c, 2, 72, 0
4, 29640, Note_on_c, 2, 67, 100
4, 29640, Note_on_c, 2, 70, 100
4, 29748, Note_on_c, 2, 70, 0
4, 29748, Note_on_c, 2, 67, 0
4, 29880, Note_on_c, 2, 65, 100
4, 29880, Note_on_c, 2, 69, 100
4, 29880, Note_on_c, 2, 72, 100
4, 29988, Note_on_c, 2, 72, 0
4, 29988, Note_on_c, 2, 69, 0
4, 29988, Note_on_c, 2, 65, 0
4, 30000, Note_on_c, 2, 60, 100
4, 30000, Note_on_c, 2, 69, 100
4, 30108, Note_on_c, 2, 69, 0
4, 30108, Note_on_c, 2, 60, 0
4, 30120, Note_on_c, 2, 57, 100
4, 30120, Note_on_c, 2, 65, 100
4, 30228, Note_on_c, 2, 65, 0
4, 30228, Note_on_c, 2, 57, 0
4, 30360, Note_on_c, 2, 74, 100
4, 30360, Note_on_c, 2, 78, 100
4, 30360, Note_on_c, 2, 81, 100
4, 30468, Note_on_c, 2, 81, 0
4, 30468, Note_on_c, 2, 78, 0
4, 30468, Note_on_c, 2, 74, 0
4, 30480, Note_on_c, 2, 74, 100
4, 30480, Note_on_c, 2, 78, 100
4, 30588, Note_on_c, 2, 78, 0
4, 30588, Note_on_c, 2, 74, 0
4, 30600, Note_on_c, 2, 69, 100
4, 30600, Note_on_c, 2, 72, 100
4, 30708, Note_on_c, 2, 72, 0
4, 30708, Note_on_c, 2, 69, 0
4, 30840, Note_on_c, 2, 67, 100
4, 30840, Note_on_c, 2, 71, 100
4, 30840, Note_on_c, 2, 74, 100
4, 30948, Note_on_c, 2, 74, 0
4, 30948, Note_on_c, 2, 71, 0
4, 30948, Note_on_c, 2, 67, 0
4, 30960, Note_on_c, 2, 62, 100
4, 30960, Note_on_c, 2, 71, 100
4, 31068, Note_on_c, 2, 71, 0
4, 31068, Note_on_c, 2, 62, 0
4, 31080, Note_on_c, 2, 59, 100
4, 31080, Note_on_c, 2, 67, 100
4, 31188, Note_on_c, 2, 67, 0
4, 31188, Note_on_c, 2, 59, 0
4, 31320, Note_on_c, 2, 76, 100
4, 31320, Note_on_c, 2, 80, 100
4, 31320, Note_on_c, 2, 83, 100
4, 31428, Note_on_c, 2, 83, 0
4, 31428, Note_on_c, 2, 80, 0
4, 31428, Note_on_c, 2, 76, 0
4, 31440, Note_on_c, 2, 76, 100
4, 31440, Note_on_c, 2, 80, 100
4, 31548, Note_on_c, 2, 80, 0
4, 31548, Note_on_c, 2, 76, 0
4, 31560, Note_on_c, 2, 71, 100
4, 31560, Note_on_c, 2, 74, 100
4, 31668, Note_on_c, 2, 74, 0
4, 31668, Note_on_c, 2, 71, 0
4, 31800, Note_on_c, 2, 69, 100
4, 31800, Note_on_c, 2, 72, 100
4, 31800, Note_on_c, 2, 76, 100
4, 31908, Note_on_c, 2, 76, 0
4, 31908, Note_on_c, 2, 72, 0
4, 31908, Note_on_c, 2, 69, 0
4, 31920, Note_on_c, 2, 64, 100
4, 31920, Note_on_c, 2, 72, 100
4, 32028, Note_on_c, 2, 72, 0
4, 32028, Note_on_c, 2, 64, 0
4, 32040, Note_on_c, 2, 60, 100
4, 32040, Note_on_c, 2, 69, 100
4, 32148, Note_on_c, 2, 69, 0
4, 32148, Note_on_c, 2, 60, 0
4, 32280, Note_on_c, 2, 69, 100
4, 32280, Note_on_c, 2, 72, 100
4, 32280, Note_on_c, 2, 77, 100
4, 32388, Note_on_c, 2, 77, 0
4, 32388, Note_on_c, 2, 72, 0
4, 32388, Note_on_c, 2, 69, 0
4, 32400, Note_on_c, 2, 65, 100
4, 32400, Note_on_c, 2, 69, 100
4, 32400, Note_on_c, 2, 72, 100
4, 32508, Note_on_c, 2, 72, 0
4, 32508, Note_on_c, 2, 69, 0
4, 32508, Note_on_c, 2, 65, 0
4, 32520, Note_on_c, 2, 65, 100
4, 32520, Note_on_c, 2, 69, 100
4, 32628, Note_on_c, 2, 69, 0
4, 32628, Note_on_c, 2, 65, 0
4, 32760, Note_on_c, 2, 74, 100
4, 32760, Note_on_c, 2, 77, 100
4, 32868, Note_on_c, 2, 77, 0
4, 32868, Note_on_c, 2, 74, 0
4, 32880, Note_on_c, 2, 71, 100
4, 32880, Note_on_c, 2, 74, 100
4, 32988, Note_on_c, 2, 74, 0
4, 32988, Note_on_c, 2, 71, 0
4, 33000, Note_on_c, 2, 67, 100
4, 33108, Note_on_c, 2, 67, 0
4, 33240, Note_on_c, 2, 72, 100
4, 33240, Note_on_c, 2, 76, 100
4, 33348, Note_on_c, 2, 76, 0
4, 33348, Note_on_c, 2, 72, 0
4, 33360, Note_on_c, 2, 67, 100
4, 33360, Note_on_c, 2, 72, 100
4, 33468, Note_on_c, 2, 72, 0
4, 33468, Note_on_c, 2, 67, 0
4, 33480, Note_on_c, 2, 67, 100
4, 33588, Note_on_c, 2, 67, 0
4, 33720, Note_on_c, 2, 69, 100
4, 33720, Note_on_c, 2, 72, 100
4, 33720, Note_on_c, 2, 75, 100
4, 33828, Note_on_c, 2, 75, 0
4, 33828, Note_on_c, 2, 72, 0
4, 33828, Note_on_c, 2, 69, 0
4, 33840, Note_on_c, 2, 69, 100
4, 33840, Note_on_c, 2, 72, 100
4, 33948, Note_on_c, 2, 72, 0
4, 33948, Note_on_c, 2, 69, 0
4, 33960, Note_on_c, 2, 66, 100
4, 33960, Note_on_c, 2, 69, 100
4, 34068, Note_on_c, 2, 69, 0
4, 34068, Note_on_c, 2, 66, 0
4, 34200, Note_on_c, 2, 66, 100
4, 34200, Note_on_c, 2, 69, 100
4, 34200, Note_on_c, 2, 74, 100
4, 34308, Note_on_c, 2, 74, 0
4, 34308, Note_on_c, 2, 69, 0
4, 34308, Note_on_c, 2, 66, 0
4, 34320, Note_on_c, 2, 66, 100
4, 34320, Note_on_c, 2, 69, 100
4, 34428, Note_on_c, 2, 69, 0
4, 34428, Note_on_c, 2, 66, 0
4, 34440, Note_on_c, 2, 66, 100
4, 34440, Note_on_c, 2, 72, 100
4, 34548, Note_on_c, 2, 72, 0
4, 34548, Note_on_c, 2, 66, 0
4, 34680, Note_on_c, 2, 71, 100
4, 34734, Note_on_c, 2, 71, 0
4, 34740, Note_on_c, 2, 69, 100
4, 34794, Note_on_c, 2, 69, 0
4, 34800, Note_on_c, 2, 67, 100
4, 34854, Note_on_c, 2, 67, 0
4, 34860, Note_on_c, 2, 69, 100
4, 34914, Note_on_c, 2, 69, 0
4, 34920, Note_on_c, 2, 71, 100
4, 34974, Note_on_c, 2, 71, 0
4, 34980, Note_on_c, 2, 72, 100
4, 35034, Note_on_c, 2, 72, 0
4, 35040, Note_on_c, 2, 67, 100
4, 35040, Note_on_c, 2, 71, 100
4, 35040, Note_on_c, 2, 74, 100
4, 35148, Note_on_c, 2, 74, 0
4, 35148, Note_on_c, 2, 71, 0
4, 35148, Note_on_c, 2, 67, 0
4, 35160, Note_on_c, 2, 67, 100
4, 35160, Note_on_c, 2, 71, 100
4, 35160, Note_on_c, 2, 74, 100
4, 35268, Note_on_c, 2, 74, 0
4, 35268, Note_on_c, 2, 71, 0
4, 35268, Note_on_c, 2, 67, 0
4, 35280, Note_on_c, 2, 67, 100
4, 35280, Note_on_c, 2, 71, 100
4, 35280, Note_on_c, 2, 74, 100
4, 35388, Note_on_c, 2, 74, 0
4, 35388, Note_on_c, 2, 71, 0
4, 35388, Note_on_c, 2, 67, 0
4, 35400, Note_on_c, 2, 67, 100
4, 35400, Note_on_c, 2, 71, 100
4, 35400, Note_on_c, 2, 74, 100
4, 35508, Note_on_c, 2, 74, 0
4, 35508, Note_on_c, 2, 71, 0
4, 35508, Note_on_c, 2, 67, 0
4, 35520, Note_on_c, 2, 67, 100
4, 35520, Note_on_c, 2, 72, 100
4, 35520, Note_on_c, 2, 76, 100
4, 35628, Note_on_c, 2, 76, 0
4, 35628, Note_on_c, 2, 72, 0
4, 35628, Note_on_c, 2, 67, 0
4, 35640, Note_on_c, 2, 67, 100
4, 35640, Note_on_c, 2, 72, 100
4, 35640, Note_on_c, 2, 76, 100
4, 35748, Note_on_c, 2, 76, 0
4, 35748, Note_on_c, 2, 72, 0
4, 35748, Note_on_c, 2, 67, 0
4, 35760, Note_on_c, 2, 67, 100
4, 35760, Note_on_c, 2, 72, 100
4, 35760, Note_on_c, 2, 76, 100
4, 35868, Note_on_c, 2, 76, 0
4, 35868, Note_on_c, 2, 72, 0
4, 35868, Note_on_c, 2, 67, 0
4, 35880, Note_on_c, 2, 67, 100
4, 35880, Note_on_c, 2, 72, 100
4, 35880, Note_on_c, 2, 76, 100
4, 35988, Note_on_c, 2, 76, 0
4, 35988, Note_on_c, 2, 72, 0
4, 35988, Note_on_c, 2, 67, 0
4, 36000, Note_on_c, 2, 69, 100
4, 36000, Note_on_c, 2, 72, 100
4, 36000, Note_on_c, 2, 75, 100
4, 36108, Note_on_c, 2, 75, 0
4, 36108, Note_on_c, 2, 72, 0
4, 36108, Note_on_c, 2, 69, 0
4, 36120, Note_on_c, 2, 69, 100
4, 36120, Note_on_c, 2, 72, 100
4, 36120, Note_on_c, 2, 75, 100
4, 36228, Note_on_c, 2, 75, 0
4, 36228, Note_on_c, 2, 72, 0
4, 36228, Note_on_c, 2, 69, 0
4, 36240, Note_on_c, 2, 69, 100
4, 36240, Note_on_c, 2, 72, 100
4, 36240, Note_on_c, 2, 75, 100
4, 36348, Note_on_c, 2, 75, 0
4, 36348, Note_on_c, 2, 72, 0
4, 36348, Note_on_c, 2, 69, 0
4, 36360, Note_on_c, 2, 69, 100
4, 36360, Note_on_c, 2, 72, 100
4, 36360, Note_on_c, 2, 75, 100
4, 36468, Note_on_c, 2, 75, 0
4, 36468, Note_on_c, 2, 72, 0
4, 36468, Note_on_c, 2, 69, 0
4, 36480, Note_on_c, 2, 62, 100
4, 36480, Note_on_c, 2, 71, 100
4, 36480, Note_on_c, 2, 74, 100
4, 36588, Note_on_c, 2, 74, 0
4, 36588, Note_on_c, 2, 71, 0
4, 36588, Note_on_c, 2, 62, 0
4, 36600, Note_on_c, 2, 67, 100
4, 36600, Note_on_c, 2, 71, 100
4, 36600, Note_on_c, 2, 74, 100
4, 36708, Note_on_c, 2, 74, 0
4, 36708, Note_on_c, 2, 71, 0
4, 36708, Note_on_c, 2, 67, 0
4, 36720, Note_on_c, 2, 67, 100
4, 36720, Note_on_c, 2, 71, 100
4, 36720, Note_on_c, 2, 74, 100
4, 36828, Note_on_c, 2, 74, 0
4, 36828, Note_on_c, 2, 71, 0
4, 36828, Note_on_c, 2, 67, 0
4, 36840, Note_on_c, 2, 67, 100
4, 36840, Note_on_c, 2, 71, 100
4, 36840, Note_on_c, 2, 74, 100
4, 36948, Note_on_c, 2, 74, 0
4, 36948, Note_on_c, 2, 71, 0
4, 36948, Note_on_c, 2, 67, 0
4, 36960, Note_on_c, 2, 67, 100
4, 36960, Note_on_c, 2, 72, 100
4, 36960, Note_on_c, 2, 76, 100
4, 37014, Note_on_c, 2, 76, 0
4, 37014, Note_on_c, 2, 72, 0
4, 37014, Note_on_c, 2, 67, 0
4, 37020, Note_on_c, 2, 79, 100
4, 37074, Note_on_c, 2, 79, 0
4, 37080, Note_on_c, 2, 77, 100
4, 37134, Note_on_c, 2, 77, 0
4, 37140, Note_on_c, 2, 76, 100
4, 37194, Note_on_c, 2, 76, 0
4, 37200, Note_on_c, 2, 74, 100
4, 37254, Note_on_c, 2, 74, 0
4, 37260, Note_on_c, 2, 72, 100
4, 37314, Note_on_c, 2, 72, 0
4, 37320, Note_on_c, 2, 71, 100
4, 37374, Note_on_c, 2, 71, 0
4, 37380, Note_on_c, 2, 69, 100
4, 37434, Note_on_c, 2, 69, 0
4, 37440, Note_on_c, 2, 67, 100
4, 37548, Note_on_c, 2, 67, 0
4, 37560, Note_on_c, 2, 67, 100
4, 37668, Note_on_c, 2, 67, 0
4, 37680, Note_on_c, 2, 72, 100
4, 37788, Note_on_c, 2, 72, 0
4, 37800, Note_on_c, 2, 67, 100
4, 37908, Note_on_c, 2, 67, 0
4, 37920, Note_on_c, 2, 72, 100
4, 38028, Note_on_c, 2, 72, 0
4, 38040, Note_on_c, 2, 71, 100
4, 38094, Note_on_c, 2, 71, 0
4, 38100, Note_on_c, 2, 69, 100
4, 38154, Note_on_c, 2, 69, 0
4, 38160, Note_on_c, 2, 67, 100
4, 38268, Note_on_c, 2, 67, 0
4, 38280, Note_on_c, 2, 69, 100
4, 38334, Note_on_c, 2, 69, 0
4, 38340, Note_on_c, 2, 71, 100
4, 38394, Note_on_c, 2, 71, 0
4, 38400, Note_on_c, 2, 72, 100
4, 38508, Note_on_c, 2, 72, 0
4, 38520, Note_on_c, 2, 71, 100
4, 38574, Note_on_c, 2, 71, 0
4, 38580, Note_on_c, 2, 69, 100
4, 38634, Note_on_c, 2, 69, 0
4, 38640, Note_on_c, 2, 67, 100
4, 38748, Note_on_c, 2, 67, 0
4, 38760, Note_on_c, 2, 65, 100
4, 38868, Note_on_c, 2, 65, 0
4, 38880, Note_on_c, 2, 64, 100
4, 38934, Note_on_c, 2, 64, 0
4, 38940, Note_on_c, 2, 65, 100
4, 38994, Note_on_c, 2, 65, 0
4, 39000, Note_on_c, 2, 67, 100
4, 39054, Note_on_c, 2, 67, 0
4, 39060, Note_on_c, 2, 64, 100
4, 39114, Note_on_c, 2, 64, 0
4, 39120, Note_on_c, 2, 60, 100
4, 39174, Note_on_c, 2, 60, 0
4, 39180, Note_on_c, 2, 62, 100
4, 39234, Note_on_c, 2, 62, 0
4, 39240, Note_on_c, 2, 64, 100
4, 39294, Note_on_c, 2, 64, 0
4, 39300, Note_on_c, 2, 65, 100
4, 39354, Note_on_c, 2, 65, 0
4, 39360, Note_on_c, 2, 67, 100
4, 39576, Note_on_c, 2, 67, 0
4, 39600, Note_on_c, 2, 55, 100
4, 39816, Note_on_c, 2, 55, 0
4, 39840, Note_on_c, 2, 60, 100
4, 40056, Note_on_c, 2, 60, 0
4, 40320, Note_on_c, 2, 76, 100
4, 40614, Note_on_c, 2, 76, 0
4, 40620, Note_on_c, 2, 74, 100
4, 40647, Note_on_c, 2, 74, 0
4, 40650, Note_on_c, 2, 72, 100
4, 40677, Note_on_c, 2, 72, 0
4, 40680, Note_on_c, 2, 71, 100
4, 40707, Note_on_c, 2, 71, 0
4, 40710, Note_on_c, 2, 72, 100
4, 40737, Note_on_c, 2, 72, 0
4, 40740, Note_on_c, 2, 74, 100
4, 40794, Note_on_c, 2, 74, 0
4, 40800, Note_on_c, 2, 68, 100
4, 41016, Note_on_c, 2, 68, 0
4, 41160, Note_on_c, 2, 69, 100
4, 41268, Note_on_c, 2, 69, 0
4, 41280, Note_on_c, 2, 74, 100
4, 41442, Note_on_c, 2, 74, 0
4, 41460, Note_on_c, 2, 76, 100
4, 41487, Note_on_c, 2, 76, 0
4, 41490, Note_on_c, 2, 77, 100
4, 41517, Note_on_c, 2, 77, 0
4, 41520, Note_on_c, 2, 76, 100
4, 41574, Note_on_c, 2, 76, 0
4, 41580, Note_on_c, 2, 74, 100
4, 41634, Note_on_c, 2, 74, 0
4, 41640, Note_on_c, 2, 72, 100
4, 41694, Note_on_c, 2, 72, 0
4, 41700, Note_on_c, 2, 71, 100
4, 41754, Note_on_c, 2, 71, 0
4, 41760, Note_on_c, 2, 72, 100
4, 41814, Note_on_c, 2, 72, 0
4, 41820, Note_on_c, 2, 69, 100
4, 41874, Note_on_c, 2, 69, 0
4, 41880, Note_on_c, 2, 72, 100
4, 41934, Note_on_c, 2, 72, 0
4, 41940, Note_on_c, 2, 76, 100
4, 41994, Note_on_c, 2, 76, 0
4, 42000, Note_on_c, 2, 81, 100
4, 42054, Note_on_c, 2, 81, 0
4, 42060, Note_on_c, 2, 79, 100
4, 42114, Note_on_c, 2, 79, 0
4, 42120, Note_on_c, 2, 77, 100
4, 42174, Note_on_c, 2, 77, 0
4, 42180, Note_on_c, 2, 76, 100
4, 42234, Note_on_c, 2, 76, 0
4, 42240, Note_on_c, 2, 77, 100
4, 42294, Note_on_c, 2, 77, 0
4, 42300, Note_on_c, 2, 69, 100
4, 42354, Note_on_c, 2, 69, 0
4, 42360, Note_on_c, 2, 74, 100
4, 42414, Note_on_c, 2, 74, 0
4, 42420, Note_on_c, 2, 73, 100
4, 42474, Note_on_c, 2, 73, 0
4, 42480, Note_on_c, 2, 74, 100
4, 42534, Note_on_c, 2, 74, 0
4, 42540, Note_on_c, 2, 69, 100
4, 42594, Note_on_c, 2, 69, 0
4, 42600, Note_on_c, 2, 70, 100
4, 42654, Note_on_c, 2, 70, 0
4, 42660, Note_on_c, 2, 67, 100
4, 42714, Note_on_c, 2, 67, 0
4, 42720, Note_on_c, 2, 64, 100
4, 42774, Note_on_c, 2, 64, 0
4, 42780, Note_on_c, 2, 70, 100
4, 42834, Note_on_c, 2, 70, 0
4, 42840, Note_on_c, 2, 69, 100
4, 42894, Note_on_c, 2, 69, 0
4, 42900, Note_on_c, 2, 67, 100
4, 42954, Note_on_c, 2, 67, 0
4, 42960, Note_on_c, 2, 69, 100
4, 43014, Note_on_c, 2, 69, 0
4, 43020, Note_on_c, 2, 64, 100
4, 43074, Note_on_c, 2, 64, 0
4, 43080, Note_on_c, 2, 65, 100
4, 43134, Note_on_c, 2, 65, 0
4, 43140, Note_on_c, 2, 62, 100
4, 43194, Note_on_c, 2, 62, 0
4, 43200, Note_on_c, 2, 70, 100
4, 43254, Note_on_c, 2, 70, 0
4, 43260, Note_on_c, 2, 64, 100
4, 43314, Note_on_c, 2, 64, 0
4, 43320, Note_on_c, 2, 65, 100
4, 43374, Note_on_c, 2, 65, 0
4, 43380, Note_on_c, 2, 62, 100
4, 43434, Note_on_c, 2, 62, 0
4, 43440, Note_on_c, 2, 61, 100
4, 43548, Note_on_c, 2, 61, 0
4, 43560, Note_on_c, 2, 76, 100
4, 43734, Note_on_c, 2, 76, 0
4, 43740, Note_on_c, 2, 62, 100
4, 43794, Note_on_c, 2, 62, 0
4, 43800, Note_on_c, 2, 65, 100
4, 43854, Note_on_c, 2, 65, 0
4, 43860, Note_on_c, 2, 69, 100
4, 43914, Note_on_c, 2, 69, 0
4, 43920, Note_on_c, 2, 74, 100
4, 43974, Note_on_c, 2, 74, 0
4, 43980, Note_on_c, 2, 72, 100
4, 44034, Note_on_c, 2, 72, 0
4, 44040, Note_on_c, 2, 71, 100
4, 44094, Note_on_c, 2, 71, 0
4, 44100, Note_on_c, 2, 69, 100
4, 44154, Note_on_c, 2, 69, 0
4, 44160, Note_on_c, 2, 71, 100
4, 44694, Note_on_c, 2, 71, 0
4, 44700, Note_on_c, 2, 67, 100
4, 44754, Note_on_c, 2, 67, 0
4, 44760, Note_on_c, 2, 69, 100
4, 44814, Note_on_c, 2, 69, 0
4, 44820, Note_on_c, 2, 71, 100
4, 44874, Note_on_c, 2, 71, 0
4, 44880, Note_on_c, 2, 72, 100
4, 44934, Note_on_c, 2, 72, 0
4, 44940, Note_on_c, 2, 71, 100
4, 44994, Note_on_c, 2, 71, 0
4, 45000, Note_on_c, 2, 69, 100
4, 45054, Note_on_c, 2, 69, 0
4, 45060, Note_on_c, 2, 67, 100
4, 45114, Note_on_c, 2, 67, 0
4, 45120, Note_on_c, 2, 66, 100
4, 45228, Note_on_c, 2, 66, 0
4, 45240, Note_on_c, 2, 67, 100
4, 45294, Note_on_c, 2, 67, 0
4, 45300, Note_on_c, 2, 69, 100
4, 45354, Note_on_c, 2, 69, 0
4, 45360, Note_on_c, 2, 71, 100
4, 45468, Note_on_c, 2, 71, 0
4, 45480, Note_on_c, 2, 69, 100
4, 45708, Note_on_c, 2, 69, 0
4, 45720, Note_on_c, 2, 75, 100
4, 45828, Note_on_c, 2, 75, 0
4, 45840, Note_on_c, 2, 64, 100
4, 45948, Note_on_c, 2, 64, 0
4, 45960, Note_on_c, 2, 76, 100
4, 46068, Note_on_c, 2, 76, 0
4, 46080, Note_on_c, 2, 78, 100
4, 46134, Note_on_c, 2, 78, 0
4, 46140, Note_on_c, 2, 75, 100
4, 46194, Note_on_c, 2, 75, 0
4, 46200, Note_on_c, 2, 71, 100
4, 46308, Note_on_c, 2, 71, 0
4, 46560, Note_on_c, 2, 76, 100
4, 47472, Note_on_c, 2, 76, 0
4, 47520, Note_on_c, 2, 74, 100
4, 48432, Note_on_c, 2, 74, 0
4, 48480, Note_on_c, 2, 72, 100
4, 49392, Note_on_c, 2, 72, 0
4, 49440, Note_on_c, 2, 71, 100
4, 49974, Note_on_c, 2, 71, 0
4, 49980, Note_on_c, 2, 64, 100
4, 50034, Note_on_c, 2, 64, 0
4, 50040, Note_on_c, 2, 67, 100
4, 50094, Note_on_c, 2, 67, 0
4, 50100, Note_on_c, 2, 71, 100
4, 50154, Note_on_c, 2, 71, 0
4, 50160, Note_on_c, 2, 76, 100
4, 50214, Note_on_c, 2, 76, 0
4, 50220, Note_on_c, 2, 74, 100
4, 50274, Note_on_c, 2, 74, 0
4, 50280, Note_on_c, 2, 72, 100
4, 50334, Note_on_c, 2, 72, 0
4, 50340, Note_on_c, 2, 71, 100
4, 50394, Note_on_c, 2, 71, 0
4, 50400, Note_on_c, 2, 72, 100
4, 50454, Note_on_c, 2, 72, 0
4, 50460, Note_on_c, 2, 69, 100
4, 50514, Note_on_c, 2, 69, 0
4, 50520, Note_on_c, 2, 72, 100
4, 50574, Note_on_c, 2, 72, 0
4, 50580, Note_on_c, 2, 76, 100
4, 50634, Note_on_c, 2, 76, 0
4, 50640, Note_on_c, 2, 81, 100
4, 50694, Note_on_c, 2, 81, 0
4, 50700, Note_on_c, 2, 79, 100
4, 50754, Note_on_c, 2, 79, 0
4, 50760, Note_on_c, 2, 78, 100
4, 50814, Note_on_c, 2, 78, 0
4, 50820, Note_on_c, 2, 76, 100
4, 50874, Note_on_c, 2, 76, 0
4, 50880, Note_on_c, 2, 78, 100
4, 50934, Note_on_c, 2, 78, 0
4, 50940, Note_on_c, 2, 62, 100
4, 50994, Note_on_c, 2, 62, 0
4, 51000, Note_on_c, 2, 66, 100
4, 51054, Note_on_c, 2, 66, 0
4, 51060, Note_on_c, 2, 69, 100
4, 51114, Note_on_c, 2, 69, 0
4, 51120, Note_on_c, 2, 74, 100
4, 51174, Note_on_c, 2, 74, 0
4, 51180, Note_on_c, 2, 72, 100
4, 51234, Note_on_c, 2, 72, 0
4, 51240, Note_on_c, 2, 71, 100
4, 51294, Note_on_c, 2, 71, 0
4, 51300, Note_on_c, 2, 69, 100
4, 51354, Note_on_c, 2, 69, 0
4, 51360, Note_on_c, 2, 71, 100
4, 51414, Note_on_c, 2, 71, 0
4, 51420, Note_on_c, 2, 67, 100
4, 51474, Note_on_c, 2, 67, 0
4, 51480, Note_on_c, 2, 71, 100
4, 51534, Note_on_c, 2, 71, 0
4, 51540, Note_on_c, 2, 74, 100
4, 51594, Note_on_c, 2, 74, 0
4, 51600, Note_on_c, 2, 79, 100
4, 51654, Note_on_c, 2, 79, 0
4, 51660, Note_on_c, 2, 78, 100
4, 51714, Note_on_c, 2, 78, 0
4, 51720, Note_on_c, 2, 76, 100
4, 51774, Note_on_c, 2, 76, 0
4, 51780, Note_on_c, 2, 74, 100
4, 51834, Note_on_c, 2, 74, 0
4, 51840, Note_on_c, 2, 76, 100
4, 51894, Note_on_c, 2, 76, 0
4, 51900, Note_on_c, 2, 74, 100
4, 51954, Note_on_c, 2, 74, 0
4, 51960, Note_on_c, 2, 72, 100
4, 52014, Note_on_c, 2, 72, 0
4, 52020, Note_on_c, 2, 71, 100
4, 52074, Note_on_c, 2, 71, 0
4, 52080, Note_on_c, 2, 81, 100
4, 52134, Note_on_c, 2, 81, 0
4, 52140, Note_on_c, 2, 79, 100
4, 52194, Note_on_c, 2, 79, 0
4, 52200, Note_on_c, 2, 78, 100
4, 52254, Note_on_c, 2, 78, 0
4, 52260, Note_on_c, 2, 76, 100
4, 52314, Note_on_c, 2, 76, 0
4, 52320, Note_on_c, 2, 78, 100
4, 52374, Note_on_c, 2, 78, 0
4, 52380, Note_on_c, 2, 76, 100
4, 52434, Note_on_c, 2, 76, 0
4, 52440, Note_on_c, 2, 74, 100
4, 52494, Note_on_c, 2, 74, 0
4, 52500, Note_on_c, 2, 72, 100
4, 52554, Note_on_c, 2, 72, 0
4, 52560, Note_on_c, 2, 83, 100
4, 52614, Note_on_c, 2, 83, 0
4, 52620, Note_on_c, 2, 81, 100
4, 52674, Note_on_c, 2, 81, 0
4, 52680, Note_on_c, 2, 79, 100
4, 52734, Note_on_c, 2, 79, 0
4, 52740, Note_on_c, 2, 78, 100
4, 52794, Note_on_c, 2, 78, 0
4, 52800, Note_on_c, 2, 79, 100
4, 52854, Note_on_c, 2, 79, 0
4, 52860, Note_on_c, 2, 78, 100
4, 52914, Note_on_c, 2, 78, 0
4, 52920, Note_on_c, 2, 76, 100
4, 52974, Note_on_c, 2, 76, 0
4, 52980, Note_on_c, 2, 74, 100
4, 53034, Note_on_c, 2, 74, 0
4, 53040, Note_on_c, 2, 84, 100
4, 53094, Note_on_c, 2, 84, 0
4, 53100, Note_on_c, 2, 83, 100
4, 53154, Note_on_c, 2, 83, 0
4, 53160, Note_on_c, 2, 81, 100
4, 53214, Note_on_c, 2, 81, 0
4, 53220, Note_on_c, 2, 79, 100
4, 53274, Note_on_c, 2, 79, 0
4, 53280, Note_on_c, 2, 81, 100
4, 53334, Note_on_c, 2, 81, 0
4, 53340, Note_on_c, 2, 79, 100
4, 53394, Note_on_c, 2, 79, 0
4, 53400, Note_on_c, 2, 78, 100
4, 53454, Note_on_c, 2, 78, 0
4, 53460, Note_on_c, 2, 76, 100
4, 53514, Note_on_c, 2, 76, 0
4, 53520, Note_on_c, 2, 74, 100
4, 53574, Note_on_c, 2, 74, 0
4, 53580, Note_on_c, 2, 72, 100
4, 53634, Note_on_c, 2, 72, 0
4, 53640, Note_on_c, 2, 71, 100
4, 53694, Note_on_c, 2, 71, 0
4, 53700, Note_on_c, 2, 69, 100
4, 53754, Note_on_c, 2, 69, 0
4, 53760, Note_on_c, 2, 71, 100
4, 53760, Note_on_c, 2, 74, 100
4, 53922, Note_on_c, 2, 74, 0
4, 53922, Note_on_c, 2, 71, 0
4, 53940, Note_on_c, 2, 76, 100
4, 53994, Note_on_c, 2, 76, 0
4, 54000, Note_on_c, 2, 71, 100
4, 54000, Note_on_c, 2, 74, 100
4, 54162, Note_on_c, 2, 74, 0
4, 54162, Note_on_c, 2, 71, 0
4, 54180, Note_on_c, 2, 76, 100
4, 54234, Note_on_c, 2, 76, 0
4, 54240, Note_on_c, 2, 74, 100
4, 54294, Note_on_c, 2, 74, 0
4, 54300, Note_on_c, 2, 76, 100
4, 54354, Note_on_c, 2, 76, 0
4, 54360, Note_on_c, 2, 74, 100
4, 54414, Note_on_c, 2, 74, 0
4, 54420, Note_on_c, 2, 79, 100
4, 54474, Note_on_c, 2, 79, 0
4, 54480, Note_on_c, 2, 74, 100
4, 54534, Note_on_c, 2, 74, 0
4, 54540, Note_on_c, 2, 72, 100
4, 54594, Note_on_c, 2, 72, 0
4, 54600, Note_on_c, 2, 71, 100
4, 54654, Note_on_c, 2, 71, 0
4, 54660, Note_on_c, 2, 69, 100
4, 54714, Note_on_c, 2, 69, 0
4, 54720, Note_on_c, 2, 67, 100
4, 54774, Note_on_c, 2, 67, 0
4, 54780, Note_on_c, 2, 71, 100
4, 54834, Note_on_c, 2, 71, 0
4, 54840, Note_on_c, 2, 69, 100
4, 54894, Note_on_c, 2, 69, 0
4, 54900, Note_on_c, 2, 67, 100
4, 54954, Note_on_c, 2, 67, 0
4, 54960, Note_on_c, 2, 66, 100
4, 55014, Note_on_c, 2, 66, 0
4, 55020, Note_on_c, 2, 67, 100
4, 55074, Note_on_c, 2, 67, 0
4, 55080, Note_on_c, 2, 69, 100
4, 55134, Note_on_c, 2, 69, 0
4, 55140, Note_on_c, 2, 66, 100
4, 55194, Note_on_c, 2, 66, 0
4, 55200, Note_on_c, 2, 62, 100
4, 55308, Note_on_c, 2, 62, 0
4, 55320, Note_on_c, 2, 67, 100
4, 55374, Note_on_c, 2, 67, 0
4, 55380, Note_on_c, 2, 69, 100
4, 55434, Note_on_c, 2, 69, 0
4, 55440, Note_on_c, 2, 66, 100
4, 55602, Note_on_c, 2, 66, 0
4, 55620, Note_on_c, 2, 67, 100
4, 55674, Note_on_c, 2, 67, 0
4, 55680, Note_on_c, 2, 67, 100
4, 55896, Note_on_c, 2, 67, 0
4, 56040, Note_on_c, 2, 69, 100
4, 56148, Note_on_c, 2, 69, 0
4, 56160, Note_on_c, 2, 71, 100
4, 56214, Note_on_c, 2, 71, 0
4, 56220, Note_on_c, 2, 72, 100
4, 56274, Note_on_c, 2, 72, 0
4, 56280, Note_on_c, 2, 74, 100
4, 56334, Note_on_c, 2, 74, 0
4, 56340, Note_on_c, 2, 72, 100
4, 56394, Note_on_c, 2, 72, 0
4, 56400, Note_on_c, 2, 71, 100
4, 56454, Note_on_c, 2, 71, 0
4, 56460, Note_on_c, 2, 69, 100
4, 56514, Note_on_c, 2, 69, 0
4, 56520, Note_on_c, 2, 67, 100
4, 56574, Note_on_c, 2, 67, 0
4, 56580, Note_on_c, 2, 69, 100
4, 56634, Note_on_c, 2, 69, 0
4, 56640, Note_on_c, 2, 71, 100
4, 56694, Note_on_c, 2, 71, 0
4, 56700, Note_on_c, 2, 67, 100
4, 56754, Note_on_c, 2, 67, 0
4, 56760, Note_on_c, 2, 59, 100
4, 56814, Note_on_c, 2, 59, 0
4, 56820, Note_on_c, 2, 60, 100
4, 56874, Note_on_c, 2, 60, 0
4, 56880, Note_on_c, 2, 62, 100
4, 56934, Note_on_c, 2, 62, 0
4, 56940, Note_on_c, 2, 64, 100
4, 56994, Note_on_c, 2, 64, 0
4, 57000, Note_on_c, 2, 62, 100
4, 57054, Note_on_c, 2, 62, 0
4, 57060, Note_on_c, 2, 60, 100
4, 57114, Note_on_c, 2, 60, 0
4, 57120, Note_on_c, 2, 62, 100
4, 57228, Note_on_c, 2, 62, 0
4, 57660, Note_on_c, 2, 62, 100
4, 57714, Note_on_c, 2, 62, 0
4, 57720, Note_on_c, 2, 64, 100
4, 57774, Note_on_c, 2, 64, 0
4, 57780, Note_on_c, 2, 66, 100
4, 57834, Note_on_c, 2, 66, 0
4, 57840, Note_on_c, 2, 67, 100
4, 57894, Note_on_c, 2, 67, 0
4, 57900, Note_on_c, 2, 69, 100
4, 57954, Note_on_c, 2, 69, 0
4, 57960, Note_on_c, 2, 71, 100
4, 58014, Note_on_c, 2, 71, 0
4, 58020, Note_on_c, 2, 72, 100
4, 58074, Note_on_c, 2, 72, 0
4, 58080, Note_on_c, 2, 74, 100
4, 58134, Note_on_c, 2, 74, 0
4, 58140, Note_on_c, 2, 72, 100
4, 58194, Note_on_c, 2, 72, 0
4, 58200, Note_on_c, 2, 74, 100
4, 58254, Note_on_c, 2, 74, 0
4, 58260, Note_on_c, 2, 71, 100
4, 58314, Note_on_c, 2, 71, 0
4, 58320, Note_on_c, 2, 72, 100
4, 58374, Note_on_c, 2, 72, 0
4, 58380, Note_on_c, 2, 71, 100
4, 58434, Note_on_c, 2, 71, 0
4, 58440, Note_on_c, 2, 72, 100
4, 58494, Note_on_c, 2, 72, 0
4, 58500, Note_on_c, 2, 74, 100
4, 58554, Note_on_c, 2, 74, 0
4, 58560, Note_on_c, 2, 67, 100
4, 58668, Note_on_c, 2, 67, 0
4, 58680, Note_on_c, 2, 72, 100
4, 58788, Note_on_c, 2, 72, 0
4, 58800, Note_on_c, 2, 67, 100
4, 58908, Note_on_c, 2, 67, 0
4, 58920, Note_on_c, 2, 72, 100
4, 59028, Note_on_c, 2, 72, 0
4, 59040, Note_on_c, 2, 67, 100
4, 59148, Note_on_c, 2, 67, 0
4, 59160, Note_on_c, 2, 72, 100
4, 59214, Note_on_c, 2, 72, 0
4, 59220, Note_on_c, 2, 74, 100
4, 59274, Note_on_c, 2, 74, 0
4, 59280, Note_on_c, 2, 76, 100
4, 59334, Note_on_c, 2, 76, 0
4, 59340, Note_on_c, 2, 74, 100
4, 59394, Note_on_c, 2, 74, 0
4, 59400, Note_on_c, 2, 72, 100
4, 59454, Note_on_c, 2, 72, 0
4, 59460, Note_on_c, 2, 74, 100
4, 59514, Note_on_c, 2, 74, 0
4, 59520, Note_on_c, 2, 76, 100
4, 59574, Note_on_c, 2, 76, 0
4, 59580, Note_on_c, 2, 74, 100
4, 59634, Note_on_c, 2, 74, 0
4, 59640, Note_on_c, 2, 76, 100
4, 59694, Note_on_c, 2, 76, 0
4, 59700, Note_on_c, 2, 77, 100
4, 59754, Note_on_c, 2, 77, 0
4, 59760, Note_on_c, 2, 79, 100
4, 59868, Note_on_c, 2, 79, 0
4, 60060, Note_on_c, 2, 67, 100
4, 60114, Note_on_c, 2, 67, 0
4, 60120, Note_on_c, 2, 69, 100
4, 60174, Note_on_c, 2, 69, 0
4, 60180, Note_on_c, 2, 71, 100
4, 60234, Note_on_c, 2, 71, 0
4, 60240, Note_on_c, 2, 72, 100
4, 60294, Note_on_c, 2, 72, 0
4, 60300, Note_on_c, 2, 74, 100
4, 60354, Note_on_c, 2, 74, 0
4, 60360, Note_on_c, 2, 76, 100
4, 60414, Note_on_c, 2, 76, 0
4, 60420, Note_on_c, 2, 77, 100
4, 60474, Note_on_c, 2, 77, 0
4, 60480, Note_on_c, 2, 79, 100
4, 60534, Note_on_c, 2, 79, 0
4, 60540, Note_on_c, 2, 76, 100
4, 60594, Note_on_c, 2, 76, 0
4, 60600, Note_on_c, 2, 72, 100
4, 60654, Note_on_c, 2, 72, 0
4, 60660, Note_on_c, 2, 74, 100
4, 60714, Note_on_c, 2, 74, 0
4, 60720, Note_on_c, 2, 76, 100
4, 60774, Note_on_c, 2, 76, 0
4, 60780, Note_on_c, 2, 77, 100
4, 60834, Note_on_c, 2, 77, 0
4, 60840, Note_on_c, 2, 79, 100
4, 60894, Note_on_c, 2, 79, 0
4, 60900, Note_on_c, 2, 81, 100
4, 60954, Note_on_c, 2, 81, 0
4, 60960, Note_on_c, 2, 82, 100
4, 61014, Note_on_c, 2, 82, 0
4, 61020, Note_on_c, 2, 81, 100
4, 61074, Note_on_c, 2, 81, 0
4, 61080, Note_on_c, 2, 79, 100
4, 61134, Note_on_c, 2, 79, 0
4, 61140, Note_on_c, 2, 81, 100
4, 61194, Note_on_c, 2, 81, 0
4, 61200, Note_on_c, 2, 82, 100
4, 61254, Note_on_c, 2, 82, 0
4, 61260, Note_on_c, 2, 86, 100
4, 61314, Note_on_c, 2, 86, 0
4, 61320, Note_on_c, 2, 84, 100
4, 61374, Note_on_c, 2, 84, 0
4, 61380, Note_on_c, 2, 82, 100
4, 61434, Note_on_c, 2, 82, 0
4, 61440, Note_on_c, 2, 81, 100
4, 61467, Note_on_c, 2, 81, 0
4, 61470, Note_on_c, 2, 79, 100
4, 61497, Note_on_c, 2, 79, 0
4, 61500, Note_on_c, 2, 77, 100
4, 61527, Note_on_c, 2, 77, 0
4, 61530, Note_on_c, 2, 76, 100
4, 61557, Note_on_c, 2, 76, 0
4, 61560, Note_on_c, 2, 77, 100
4, 61614, Note_on_c, 2, 77, 0
4, 61620, Note_on_c, 2, 72, 100
4, 61674, Note_on_c, 2, 72, 0
4, 61680, Note_on_c, 2, 69, 100
4, 61734, Note_on_c, 2, 69, 0
4, 61740, Note_on_c, 2, 72, 100
4, 61794, Note_on_c, 2, 72, 0
4, 61800, Note_on_c, 2, 77, 100
4, 61854, Note_on_c, 2, 77, 0
4, 61860, Note_on_c, 2, 81, 100
4, 61914, Note_on_c, 2, 81, 0
4, 61920, Note_on_c, 2, 79, 100
4, 61947, Note_on_c, 2, 79, 0
4, 61950, Note_on_c, 2, 77, 100
4, 61977, Note_on_c, 2, 77, 0
4, 61980, Note_on_c, 2, 76, 100
4, 62007, Note_on_c, 2, 76, 0
4, 62010, Note_on_c, 2, 74, 100
4, 62037, Note_on_c, 2, 74, 0
4, 62040, Note_on_c, 2, 76, 100
4, 62094, Note_on_c, 2, 76, 0
4, 62100, Note_on_c, 2, 72, 100
4, 62154, Note_on_c, 2, 72, 0
4, 62160, Note_on_c, 2, 67, 100
4, 62214, Note_on_c, 2, 67, 0
4, 62220, Note_on_c, 2, 72, 100
4, 62274, Note_on_c, 2, 72, 0
4, 62280, Note_on_c, 2, 76, 100
4, 62334, Note_on_c, 2, 76, 0
4, 62340, Note_on_c, 2, 79, 100
4, 62394, Note_on_c, 2, 79, 0
4, 62400, Note_on_c, 2, 77, 100
4, 62427, Note_on_c, 2, 77, 0
4, 62430, Note_on_c, 2, 76, 100
4, 62457, Note_on_c, 2, 76, 0
4, 62460, Note_on_c, 2, 74, 100
4, 62487, Note_on_c, 2, 74, 0
4, 62490, Note_on_c, 2, 73, 100
4, 62517, Note_on_c, 2, 73, 0
4, 62520, Note_on_c, 2, 74, 100
4, 62574, Note_on_c, 2, 74, 0
4, 62580, Note_on_c, 2, 69, 100
4, 62634, Note_on_c, 2, 69, 0
4, 62640, Note_on_c, 2, 65, 100
4, 62694, Note_on_c, 2, 65, 0
4, 62700, Note_on_c, 2, 69, 100
4, 62754, Note_on_c, 2, 69, 0
4, 62760, Note_on_c, 2, 74, 100
4, 62814, Note_on_c, 2, 74, 0
4, 62820, Note_on_c, 2, 77, 100
4, 62874, Note_on_c, 2, 77, 0
4, 62880, Note_on_c, 2, 76, 100
4, 62907, Note_on_c, 2, 76, 0
4, 62910, Note_on_c, 2, 74, 100
4, 62937, Note_on_c, 2, 74, 0
4, 62940, Note_on_c, 2, 72, 100
4, 62967, Note_on_c, 2, 72, 0
4, 62970, Note_on_c, 2, 71, 100
4, 62997, Note_on_c, 2, 71, 0
4, 63000, Note_on_c, 2, 72, 100
4, 63054, Note_on_c, 2, 72, 0
4, 63060, Note_on_c, 2, 69, 100
4, 63114, Note_on_c, 2, 69, 0
4, 63120, Note_on_c, 2, 64, 100
4, 63174, Note_on_c, 2, 64, 0
4, 63180, Note_on_c, 2, 69, 100
4, 63234, Note_on_c, 2, 69, 0
4, 63240, Note_on_c, 2, 72, 100
4, 63294, Note_on_c, 2, 72, 0
4, 63300, Note_on_c, 2, 76, 100
4, 63354, Note_on_c, 2, 76, 0
4, 63360, Note_on_c, 2, 74, 100
4, 63387, Note_on_c, 2, 74, 0
4, 63390, Note_on_c, 2, 72, 100
4, 63417, Note_on_c, 2, 72, 0
4, 63420, Note_on_c, 2, 70, 100
4, 63447, Note_on_c, 2, 70, 0
4, 63450, Note_on_c, 2, 69, 100
4, 63477, Note_on_c, 2, 69, 0
4, 63480, Note_on_c, 2, 70, 100
4, 63534, Note_on_c, 2, 70, 0
4, 63540, Note_on_c, 2, 65, 100
4, 63594, Note_on_c, 2, 65, 0
4, 63600, Note_on_c, 2, 62, 100
4, 63654, Note_on_c, 2, 62, 0
4, 63660, Note_on_c, 2, 65, 100
4, 63714, Note_on_c, 2, 65, 0
4, 63720, Note_on_c, 2, 70, 100
4, 63774, Note_on_c, 2, 70, 0
4, 63780, Note_on_c, 2, 74, 100
4, 63834, Note_on_c, 2, 74, 0
4, 63840, Note_on_c, 2, 72, 100
4, 63867, Note_on_c, 2, 72, 0
4, 63870, Note_on_c, 2, 70, 100
4, 63897, Note_on_c, 2, 70, 0
4, 63900, Note_on_c, 2, 69, 100
4, 63927, Note_on_c, 2, 69, 0
4, 63930, Note_on_c, 2, 67, 100
4, 63957, Note_on_c, 2, 67, 0
4, 63960, Note_on_c, 2, 69, 100
4, 64014, Note_on_c, 2, 69, 0
4, 64020, Note_on_c, 2, 65, 100
4, 64074, Note_on_c, 2, 65, 0
4, 64080, Note_on_c, 2, 60, 100
4, 64134, Note_on_c, 2, 60, 0
4, 64140, Note_on_c, 2, 65, 100
4, 64194, Note_on_c, 2, 65, 0
4, 64200, Note_on_c, 2, 69, 100
4, 64254, Note_on_c, 2, 69, 0
4, 64260, Note_on_c, 2, 72, 100
4, 64314, Note_on_c, 2, 72, 0
4, 64320, Note_on_c, 2, 70, 100
4, 64347, Note_on_c, 2, 70, 0
4, 64350, Note_on_c, 2, 69, 100
4, 64377, Note_on_c, 2, 69, 0
4, 64380, Note_on_c, 2, 67, 100
4, 64407, Note_on_c, 2, 67, 0
4, 64410, Note_on_c, 2, 65, 100
4, 64437, Note_on_c, 2, 65, 0
4, 64440, Note_on_c, 2, 67, 100
4, 64494, Note_on_c, 2, 67, 0
4, 64500, Note_on_c, 2, 64, 100
4, 64554, Note_on_c, 2, 64, 0
4, 64560, Note_on_c, 2, 60, 100
4, 64614, Note_on_c, 2, 60, 0
4, 64620, Note_on_c, 2, 64, 100
4, 64674, Note_on_c, 2, 64, 0
4, 64680, Note_on_c, 2, 67, 100
4, 64734, Note_on_c, 2, 67, 0
4, 64740, Note_on_c, 2, 70, 100
4, 64794, Note_on_c, 2, 70, 0
4, 64800, Note_on_c, 2, 69, 100
4, 64854, Note_on_c, 2, 69, 0
4, 64860, Note_on_c, 2, 64, 100
4, 64914, Note_on_c, 2, 64, 0
4, 64920, Note_on_c, 2, 65, 100
4, 64974, Note_on_c, 2, 65, 0
4, 64980, Note_on_c, 2, 69, 100
4, 65034, Note_on_c, 2, 69, 0
4, 65040, Note_on_c, 2, 72, 100
4, 65094, Note_on_c, 2, 72, 0
4, 65100, Note_on_c, 2, 67, 100
4, 65154, Note_on_c, 2, 67, 0
4, 65160, Note_on_c, 2, 69, 100
4, 65214, Note_on_c, 2, 69, 0
4, 65220, Note_on_c, 2, 72, 100
4, 65274, Note_on_c, 2, 72, 0
4, 65280, Note_on_c, 2, 77, 100
4, 65334, Note_on_c, 2, 77, 0
4, 65340, Note_on_c, 2, 72, 100
4, 65394, Note_on_c, 2, 72, 0
4, 65400, Note_on_c, 2, 74, 100
4, 65454, Note_on_c, 2, 74, 0
4, 65460, Note_on_c, 2, 77, 100
4, 65514, Note_on_c, 2, 77, 0
4, 65520, Note_on_c, 2, 82, 100
4, 65574, Note_on_c, 2, 82, 0
4, 65580, Note_on_c, 2, 81, 100
4, 65634, Note_on_c, 2, 81, 0
4, 65640, Note_on_c, 2, 79, 100
4, 65694, Note_on_c, 2, 79, 0
4, 65700, Note_on_c, 2, 77, 100
4, 65754, Note_on_c, 2, 77, 0
4, 65760, Note_on_c, 2, 76, 100
4, 65814, Note_on_c, 2, 76, 0
4, 65820, Note_on_c, 2, 77, 100
4, 65874, Note_on_c, 2, 77, 0
4, 65880, Note_on_c, 2, 79, 100
4, 65934, Note_on_c, 2, 79, 0
4, 65940, Note_on_c, 2, 76, 100
4, 65994, Note_on_c, 2, 76, 0
4, 66000, Note_on_c, 2, 72, 100
4, 66054, Note_on_c, 2, 72, 0
4, 66060, Note_on_c, 2, 70, 100
4, 66114, Note_on_c, 2, 70, 0
4, 66120, Note_on_c, 2, 69, 100
4, 66174, Note_on_c, 2, 69, 0
4, 66180, Note_on_c, 2, 67, 100
4, 66234, Note_on_c, 2, 67, 0
4, 66240, Note_on_c, 2, 69, 100
4, 66294, Note_on_c, 2, 69, 0
4, 66300, Note_on_c, 2, 77, 100
4, 66354, Note_on_c, 2, 77, 0
4, 66360, Note_on_c, 2, 76, 100
4, 66414, Note_on_c, 2, 76, 0
4, 66420, Note_on_c, 2, 77, 100
4, 66474, Note_on_c, 2, 77, 0
4, 66480, Note_on_c, 2, 81, 100
4, 66534, Note_on_c, 2, 81, 0
4, 66540, Note_on_c, 2, 77, 100
4, 66594, Note_on_c, 2, 77, 0
4, 66600, Note_on_c, 2, 76, 100
4, 66654, Note_on_c, 2, 76, 0
4, 66660, Note_on_c, 2, 77, 100
4, 66714, Note_on_c, 2, 77, 0
4, 66720, Note_on_c, 2, 72, 100
4, 66774, Note_on_c, 2, 72, 0
4, 66780, Note_on_c, 2, 81, 100
4, 66834, Note_on_c, 2, 81, 0
4, 66840, Note_on_c, 2, 79, 100
4, 66894, Note_on_c, 2, 79, 0
4, 66900, Note_on_c, 2, 77, 100
4, 66954, Note_on_c, 2, 77, 0
4, 66960, Note_on_c, 2, 76, 100
4, 67014, Note_on_c, 2, 76, 0
4, 67020, Note_on_c, 2, 74, 100
4, 67074, Note_on_c, 2, 74, 0
4, 67080, Note_on_c, 2, 72, 100
4, 67134, Note_on_c, 2, 72, 0
4, 67140, Note_on_c, 2, 70, 100
4, 67194, Note_on_c, 2, 70, 0
4, 67200, Note_on_c, 2, 69, 100
4, 67254, Note_on_c, 2, 69, 0
4, 67260, Note_on_c, 2, 70, 100
4, 67314, Note_on_c, 2, 70, 0
4, 67320, Note_on_c, 2, 72, 100
4, 67374, Note_on_c, 2, 72, 0
4, 67380, Note_on_c, 2, 74, 100
4, 67434, Note_on_c, 2, 74, 0
4, 67440, Note_on_c, 2, 67, 100
4, 67548, Note_on_c, 2, 67, 0
4, 67560, Note_on_c, 2, 76, 100
4, 67668, Note_on_c, 2, 76, 0
4, 67680, Note_on_c, 2, 77, 100
4, 67788, Note_on_c, 2, 77, 0
4, 67800, Note_on_c, 2, 65, 100
4, 67908, Note_on_c, 2, 65, 0
4, 68040, Note_on_c, 2, 81, 100
4, 68148, Note_on_c, 2, 81, 0
4, 68160, Note_on_c, 2, 81, 100
4, 68268, Note_on_c, 2, 81, 0
4, 68280, Note_on_c, 2, 74, 100
4, 68388, Note_on_c, 2, 74, 0
4, 68520, Note_on_c, 2, 74, 100
4, 68628, Note_on_c, 2, 74, 0
4, 68640, Note_on_c, 2, 74, 100
4, 68748, Note_on_c, 2, 74, 0
4, 68760, Note_on_c, 2, 67, 100
4, 68868, Note_on_c, 2, 67, 0
4, 69000, Note_on_c, 2, 67, 100
4, 69108, Note_on_c, 2, 67, 0
4, 69120, Note_on_c, 2, 72, 100
4, 69174, Note_on_c, 2, 72, 0
4, 69180, Note_on_c, 2, 74, 100
4, 69234, Note_on_c, 2, 74, 0
4, 69240, Note_on_c, 2, 76, 100
4, 69294, Note_on_c, 2, 76, 0
4, 69300, Note_on_c, 2, 72, 100
4, 69354, Note_on_c, 2, 72, 0
4, 69360, Note_on_c, 2, 69, 100
4, 69414, Note_on_c, 2, 69, 0
4, 69420, Note_on_c, 2, 70, 100
4, 69474, Note_on_c, 2, 70, 0
4, 69480, Note_on_c, 2, 72, 100
4, 69534, Note_on_c, 2, 72, 0
4, 69540, Note_on_c, 2, 69, 100
4, 69594, Note_on_c, 2, 69, 0
4, 69600, Note_on_c, 2, 65, 100
4, 69654, Note_on_c, 2, 65, 0
4, 69660, Note_on_c, 2, 67, 100
4, 69714, Note_on_c, 2, 67, 0
4, 69720, Note_on_c, 2, 69, 100
4, 69774, Note_on_c, 2, 69, 0
4, 69780, Note_on_c, 2, 65, 100
4, 69834, Note_on_c, 2, 65, 0
4, 69840, Note_on_c, 2, 62, 100
4, 69894, Note_on_c, 2, 62, 0
4, 69900, Note_on_c, 2, 64, 100
4, 69954, Note_on_c, 2, 64, 0
4, 69960, Note_on_c, 2, 65, 100
4, 70014, Note_on_c, 2, 65, 0
4, 70020, Note_on_c, 2, 62, 100
4, 70074, Note_on_c, 2, 62, 0
4, 70080, Note_on_c, 2, 58, 100
4, 70188, Note_on_c, 2, 58, 0
4, 70200, Note_on_c, 2, 77, 100
4, 70308, Note_on_c, 2, 77, 0
4, 70320, Note_on_c, 2, 77, 100
4, 70428, Note_on_c, 2, 77, 0
4, 70440, Note_on_c, 2, 70, 100
4, 70548, Note_on_c, 2, 70, 0
4, 70680, Note_on_c, 2, 82, 100
4, 70788, Note_on_c, 2, 82, 0
4, 70800, Note_on_c, 2, 82, 100
4, 70854, Note_on_c, 2, 82, 0
4, 70860, Note_on_c, 2, 76, 100
4, 70914, Note_on_c, 2, 76, 0
4, 70920, Note_on_c, 2, 79, 100
4, 70974, Note_on_c, 2, 79, 0
4, 70980, Note_on_c, 2, 82, 100
4, 71034, Note_on_c, 2, 82, 0
4, 71040, Note_on_c, 2, 77, 100
4, 71094, Note_on_c, 2, 77, 0
4, 71100, Note_on_c, 2, 79, 100
4, 71154, Note_on_c, 2, 79, 0
4, 71160, Note_on_c, 2, 81, 100
4, 71214, Note_on_c, 2, 81, 0
4, 71220, Note_on_c, 2, 77, 100
4, 71274, Note_on_c, 2, 77, 0
4, 71280, Note_on_c, 2, 72, 100
4, 71334, Note_on_c, 2, 72, 0
4, 71340, Note_on_c, 2, 77, 100
4, 71394, Note_on_c, 2, 77, 0
4, 71400, Note_on_c, 2, 81, 100
4, 71454, Note_on_c, 2, 81, 0
4, 71460, Note_on_c, 2, 84, 100
4, 71514, Note_on_c, 2, 84, 0
4, 71520, Note_on_c, 2, 79, 100
4, 71574, Note_on_c, 2, 79, 0
4, 71580, Note_on_c, 2, 81, 100
4, 71634, Note_on_c, 2, 81, 0
4, 71640, Note_on_c, 2, 82, 100
4, 71694, Note_on_c, 2, 82, 0
4, 71700, Note_on_c, 2, 79, 100
4, 71754, Note_on_c, 2, 79, 0
4, 71760, Note_on_c, 2, 76, 100
4, 71868, Note_on_c, 2, 76, 0
4, 71880, Note_on_c, 2, 60, 100
4, 71880, Note_on_c, 2, 64, 100
4, 71880, Note_on_c, 2, 67, 100
4, 71988, Note_on_c, 2, 67, 0
4, 71988, Note_on_c, 2, 64, 0
4, 71988, Note_on_c, 2, 60, 0
4, 72000, Note_on_c, 2, 57, 100
4, 72000, Note_on_c, 2, 60, 100
4, 72000, Note_on_c, 2, 69, 100
4, 72108, Note_on_c, 2, 69, 0
4, 72108, Note_on_c, 2, 60, 0
4, 72108, Note_on_c, 2, 57, 0
4, 72120, Note_on_c, 2, 64, 100
4, 72120, Note_on_c, 2, 70, 100
4, 72120, Note_on_c, 2, 72, 100
4, 72228, Note_on_c, 2, 72, 0
4, 72228, Note_on_c, 2, 70, 0
4, 72228, Note_on_c, 2, 64, 0
4, 72240, Note_on_c, 2, 65, 100
4, 72240, Note_on_c, 2, 69, 100
4, 72240, Note_on_c, 2, 72, 100
4, 72348, Note_on_c, 2, 72, 0
4, 72348, Note_on_c, 2, 69, 0
4, 72348, Note_on_c, 2, 65, 0
4, 72360, Note_on_c, 2, 65, 100
4, 72468, Note_on_c, 2, 65, 0
4, 72600, Note_on_c, 2, 63, 100
4, 72600, Note_on_c, 2, 65, 100
4, 72600, Note_on_c, 2, 69, 100
4, 72708, Note_on_c, 2, 69, 0
4, 72708, Note_on_c, 2, 65, 0
4, 72708, Note_on_c, 2, 63, 0
4, 72720, Note_on_c, 2, 62, 100
4, 72720, Note_on_c, 2, 65, 100
4, 72720, Note_on_c, 2, 70, 100
4, 72828, Note_on_c, 2, 70, 0
4, 72828, Note_on_c, 2, 65, 0
4, 72828, Note_on_c, 2, 62, 0
4, 72840, Note_on_c, 2, 74, 100
4, 72840, Note_on_c, 2, 79, 100
4, 72840, Note_on_c, 2, 82, 100
4, 72948, Note_on_c, 2, 82, 0
4, 72948, Note_on_c, 2, 79, 0
4, 72948, Note_on_c, 2, 74, 0
4, 72960, Note_on_c, 2, 72, 100
4, 72960, Note_on_c, 2, 79, 100
4, 72960, Note_on_c, 2, 82, 100
4, 73068, Note_on_c, 2, 82, 0
4, 73068, Note_on_c, 2, 79, 0
4, 73068, Note_on_c, 2, 72, 0
4, 73080, Note_on_c, 2, 76, 100
4, 73188, Note_on_c, 2, 76, 0
4, 73320, Note_on_c, 2, 70, 100
4, 73320, Note_on_c, 2, 72, 100
4, 73320, Note_on_c, 2, 76, 100
4, 73428, Note_on_c, 2, 76, 0
4, 73428, Note_on_c, 2, 72, 0
4, 73428, Note_on_c, 2, 70, 0
4, 73440, Note_on_c, 2, 77, 100
4, 73440, Note_on_c, 2, 69, 100
4, 73440, Note_on_c, 2, 72, 100
4, 73548, Note_on_c, 2, 72, 0
4, 73548, Note_on_c, 2, 69, 0
4, 73560, Note_on_c, 2, 67, 100
4, 73602, Note_on_c, 2, 77, 0
4, 73620, Note_on_c, 2, 79, 100
4, 73668, Note_on_c, 2, 67, 0
4, 73674, Note_on_c, 2, 79, 0
4, 73680, Note_on_c, 2, 76, 100
4, 73680, Note_on_c, 2, 67, 100
4, 73842, Note_on_c, 2, 67, 0
4, 73842, Note_on_c, 2, 76, 0
4, 73860, Note_on_c, 2, 77, 100
4, 73860, Note_on_c, 2, 69, 100
4, 73860, Note_on_c, 2, 72, 100
4, 73914, Note_on_c, 2, 72, 0
4, 73914, Note_on_c, 2, 69, 0
4, 73914, Note_on_c, 2, 77, 0
4, 73920, Note_on_c, 2, 69, 100
4, 73920, Note_on_c, 2, 72, 100
4, 73920, Note_on_c, 2, 77, 100
4, 73974, Note_on_c, 2, 77, 0
4, 73974, Note_on_c, 2, 72, 0
4, 73974, Note_on_c, 2, 69, 0
4, 73980, Note_on_c, 2, 70, 100
4, 74034, Note_on_c, 2, 70, 0
4, 74040, Note_on_c, 2, 72, 100
4, 74094, Note_on_c, 2, 72, 0
4, 74100, Note_on_c, 2, 74, 100
4, 74154, Note_on_c, 2, 74, 0
4, 74160, Note_on_c, 2, 72, 100
4, 74214, Note_on_c, 2, 72, 0
4, 74220, Note_on_c, 2, 74, 100
4, 74274, Note_on_c, 2, 74, 0
4, 74280, Note_on_c, 2, 72, 100
4, 74334, Note_on_c, 2, 72, 0
4, 74340, Note_on_c, 2, 74, 100
4, 74394, Note_on_c, 2, 74, 0
4, 74400, Note_on_c, 2, 72, 100
4, 74454, Note_on_c, 2, 72, 0
4, 74460, Note_on_c, 2, 69, 100
4, 74514, Note_on_c, 2, 69, 0
4, 74520, Note_on_c, 2, 74, 100
4, 74574, Note_on_c, 2, 74, 0
4, 74580, Note_on_c, 2, 70, 100
4, 74634, Note_on_c, 2, 70, 0
4, 74640, Note_on_c, 2, 72, 100
4, 74694, Note_on_c, 2, 72, 0
4, 74700, Note_on_c, 2, 69, 100
4, 74754, Note_on_c, 2, 69, 0
4, 74760, Note_on_c, 2, 73, 100
4, 74814, Note_on_c, 2, 73, 0
4, 74820, Note_on_c, 2, 69, 100
4, 74874, Note_on_c, 2, 69, 0
4, 74880, Note_on_c, 2, 69, 100
4, 74934, Note_on_c, 2, 69, 0
4, 74940, Note_on_c, 2, 67, 100
4, 74994, Note_on_c, 2, 67, 0
4, 75000, Note_on_c, 2, 69, 100
4, 75054, Note_on_c, 2, 69, 0
4, 75060, Note_on_c, 2, 70, 100
4, 75114, Note_on_c, 2, 70, 0
4, 75120, Note_on_c, 2, 69, 100
4, 75174, Note_on_c, 2, 69, 0
4, 75180, Note_on_c, 2, 70, 100
4, 75234, Note_on_c, 2, 70, 0
4, 75240, Note_on_c, 2, 69, 100
4, 75294, Note_on_c, 2, 69, 0
4, 75300, Note_on_c, 2, 70, 100
4, 75354, Note_on_c, 2, 70, 0
4, 75360, Note_on_c, 2, 69, 100
4, 75576, Note_on_c, 2, 69, 0
4, 75600, Note_on_c, 2, 74, 100
4, 76056, Note_on_c, 2, 74, 0
4, 76080, Note_on_c, 2, 72, 100
4, 76512, Note_on_c, 2, 72, 0
4, 76560, Note_on_c, 2, 70, 100
4, 77016, Note_on_c, 2, 70, 0
4, 77040, Note_on_c, 2, 69, 100
4, 77388, Note_on_c, 2, 69, 0
4, 77400, Note_on_c, 2, 81, 100
4, 77508, Note_on_c, 2, 81, 0
4, 77520, Note_on_c, 2, 80, 100
4, 77574, Note_on_c, 2, 80, 0
4, 77580, Note_on_c, 2, 81, 100
4, 77634, Note_on_c, 2, 81, 0
4, 77640, Note_on_c, 2, 81, 100
4, 77694, Note_on_c, 2, 81, 0
4, 77700, Note_on_c, 2, 80, 100
4, 77727, Note_on_c, 2, 80, 0
4, 77730, Note_on_c, 2, 81, 100
4, 77757, Note_on_c, 2, 81, 0
4, 77760, Note_on_c, 2, 83, 100
4, 78054, Note_on_c, 2, 83, 0
4, 78060, Note_on_c, 2, 76, 100
4, 78114, Note_on_c, 2, 76, 0
4, 78120, Note_on_c, 2, 81, 100
4, 78174, Note_on_c, 2, 81, 0
4, 78180, Note_on_c, 2, 79, 100
4, 78234, Note_on_c, 2, 79, 0
4, 78240, Note_on_c, 2, 77, 100
4, 78294, Note_on_c, 2, 77, 0
4, 78300, Note_on_c, 2, 79, 100
4, 78354, Note_on_c, 2, 79, 0
4, 78360, Note_on_c, 2, 77, 100
4, 78414, Note_on_c, 2, 77, 0
4, 78420, Note_on_c, 2, 76, 100
4, 78474, Note_on_c, 2, 76, 0
4, 78480, Note_on_c, 2, 74, 100
4, 78534, Note_on_c, 2, 74, 0
4, 78540, Note_on_c, 2, 72, 100
4, 78594, Note_on_c, 2, 72, 0
4, 78600, Note_on_c, 2, 71, 100
4, 78654, Note_on_c, 2, 71, 0
4, 78660, Note_on_c, 2, 69, 100
4, 78714, Note_on_c, 2, 69, 0
4, 78720, Note_on_c, 2, 68, 100
4, 78774, Note_on_c, 2, 68, 0
4, 78780, Note_on_c, 2, 66, 100
4, 78834, Note_on_c, 2, 66, 0
4, 78840, Note_on_c, 2, 68, 100
4, 78894, Note_on_c, 2, 68, 0
4, 78900, Note_on_c, 2, 69, 100
4, 78954, Note_on_c, 2, 69, 0
4, 78960, Note_on_c, 2, 71, 100
4, 79014, Note_on_c, 2, 71, 0
4, 79020, Note_on_c, 2, 72, 100
4, 79074, Note_on_c, 2, 72, 0
4, 79080, Note_on_c, 2, 74, 100
4, 79134, Note_on_c, 2, 74, 0
4, 79140, Note_on_c, 2, 72, 100
4, 79194, Note_on_c, 2, 72, 0
4, 79200, Note_on_c, 2, 71, 100
4, 79254, Note_on_c, 2, 71, 0
4, 79260, Note_on_c, 2, 69, 100
4, 79314, Note_on_c, 2, 69, 0
4, 79320, Note_on_c, 2, 68, 100
4, 79374, Note_on_c, 2, 68, 0
4, 79380, Note_on_c, 2, 69, 100
4, 79434, Note_on_c, 2, 69, 0
4, 79440, Note_on_c, 2, 71, 100
4, 79494, Note_on_c, 2, 71, 0
4, 79500, Note_on_c, 2, 74, 100
4, 79554, Note_on_c, 2, 74, 0
4, 79560, Note_on_c, 2, 72, 100
4, 79614, Note_on_c, 2, 72, 0
4, 79620, Note_on_c, 2, 71, 100
4, 79674, Note_on_c, 2, 71, 0
4, 79680, Note_on_c, 2, 69, 100
4, 79788, Note_on_c, 2, 69, 0
4, 79800, Note_on_c, 2, 64, 100
4, 79908, Note_on_c, 2, 64, 0
4, 79920, Note_on_c, 2, 69, 100
4, 79974, Note_on_c, 2, 69, 0
4, 79980, Note_on_c, 2, 72, 100
4, 80034, Note_on_c, 2, 72, 0
4, 80040, Note_on_c, 2, 71, 100
4, 80094, Note_on_c, 2, 71, 0
4, 80100, Note_on_c, 2, 69, 100
4, 80154, Note_on_c, 2, 69, 0
4, 80160, Note_on_c, 2, 68, 100
4, 80214, Note_on_c, 2, 68, 0
4, 80220, Note_on_c, 2, 69, 100
4, 80274, Note_on_c, 2, 69, 0
4, 80280, Note_on_c, 2, 71, 100
4, 80334, Note_on_c, 2, 71, 0
4, 80340, Note_on_c, 2, 72, 100
4, 80394, Note_on_c, 2, 72, 0
4, 80400, Note_on_c, 2, 74, 100
4, 80454, Note_on_c, 2, 74, 0
4, 80460, Note_on_c, 2, 72, 100
4, 80514, Note_on_c, 2, 72, 0
4, 80520, Note_on_c, 2, 74, 100
4, 80574, Note_on_c, 2, 74, 0
4, 80580, Note_on_c, 2, 71, 100
4, 80634, Note_on_c, 2, 71, 0
4, 80640, Note_on_c, 2, 72, 100
4, 80748, Note_on_c, 2, 72, 0
4, 80760, Note_on_c, 2, 69, 100
4, 80868, Note_on_c, 2, 69, 0
4, 81000, Note_on_c, 2, 84, 100
4, 81108, Note_on_c, 2, 84, 0
4, 81120, Note_on_c, 2, 84, 100
4, 81228, Note_on_c, 2, 84, 0
4, 81240, Note_on_c, 2, 78, 100
4, 81348, Note_on_c, 2, 78, 0
4, 81480, Note_on_c, 2, 66, 100
4, 81588, Note_on_c, 2, 66, 0
4, 81600, Note_on_c, 2, 71, 100
4, 81654, Note_on_c, 2, 71, 0
4, 81660, Note_on_c, 2, 72, 100
4, 81714, Note_on_c, 2, 72, 0
4, 81720, Note_on_c, 2, 74, 100
4, 81774, Note_on_c, 2, 74, 0
4, 81780, Note_on_c, 2, 71, 100
4, 81834, Note_on_c, 2, 71, 0
4, 81840, Note_on_c, 2, 67, 100
4, 81894, Note_on_c, 2, 67, 0
4, 81900, Note_on_c, 2, 69, 100
4, 81954, Note_on_c, 2, 69, 0
4, 81960, Note_on_c, 2, 71, 100
4, 82014, Note_on_c, 2, 71, 0
4, 82020, Note_on_c, 2, 67, 100
4, 82074, Note_on_c, 2, 67, 0
4, 82080, Note_on_c, 2, 64, 100
4, 82134, Note_on_c, 2, 64, 0
4, 82140, Note_on_c, 2, 66, 100
4, 82194, Note_on_c, 2, 66, 0
4, 82200, Note_on_c, 2, 67, 100
4, 82254, Note_on_c, 2, 67, 0
4, 82260, Note_on_c, 2, 64, 100
4, 82314, Note_on_c, 2, 64, 0
4, 82320, Note_on_c, 2, 60, 100
4, 82374, Note_on_c, 2, 60, 0
4, 82380, Note_on_c, 2, 62, 100
4, 82434, Note_on_c, 2, 62, 0
4, 82440, Note_on_c, 2, 64, 100
4, 82494, Note_on_c, 2, 64, 0
4, 82500, Note_on_c, 2, 60, 100
4, 82554, Note_on_c, 2, 60, 0
4, 82560, Note_on_c, 2, 57, 100
4, 82668, Note_on_c, 2, 57, 0
4, 82680, Note_on_c, 2, 76, 100
4, 82788, Note_on_c, 2, 76, 0
4, 82800, Note_on_c, 2, 76, 100
4, 82908, Note_on_c, 2, 76, 0
4, 82920, Note_on_c, 2, 69, 100
4, 83028, Note_on_c, 2, 69, 0
4, 83160, Note_on_c, 2, 81, 100
4, 83268, Note_on_c, 2, 81, 0
4, 83280, Note_on_c, 2, 81, 100
4, 83334, Note_on_c, 2, 81, 0
4, 83340, Note_on_c, 2, 75, 100
4, 83394, Note_on_c, 2, 75, 0
4, 83400, Note_on_c, 2, 78, 100
4, 83454, Note_on_c, 2, 78, 0
4, 83460, Note_on_c, 2, 81, 100
4, 83514, Note_on_c, 2, 81, 0
4, 83520, Note_on_c, 2, 76, 100
4, 83574, Note_on_c, 2, 76, 0
4, 83580, Note_on_c, 2, 78, 100
4, 83634, Note_on_c, 2, 78, 0
4, 83640, Note_on_c, 2, 79, 100
4, 83694, Note_on_c, 2, 79, 0
4, 83700, Note_on_c, 2, 76, 100
4, 83754, Note_on_c, 2, 76, 0
4, 83760, Note_on_c, 2, 71, 100
4, 83814, Note_on_c, 2, 71, 0
4, 83820, Note_on_c, 2, 76, 100
4, 83874, Note_on_c, 2, 76, 0
4, 83880, Note_on_c, 2, 79, 100
4, 83934, Note_on_c, 2, 79, 0
4, 83940, Note_on_c, 2, 83, 100
4, 83994, Note_on_c, 2, 83, 0
4, 84000, Note_on_c, 2, 78, 100
4, 84054, Note_on_c, 2, 78, 0
4, 84060, Note_on_c, 2, 79, 100
4, 84114, Note_on_c, 2, 79, 0
4, 84120, Note_on_c, 2, 81, 100
4, 84174, Note_on_c, 2, 81, 0
4, 84180, Note_on_c, 2, 78, 100
4, 84234, Note_on_c, 2, 78, 0
4, 84240, Note_on_c, 2, 75, 100
4, 84348, Note_on_c, 2, 75, 0
4, 84360, Note_on_c, 2, 71, 100
4, 84414, Note_on_c, 2, 71, 0
4, 84420, Note_on_c, 2, 72, 100
4, 84474, Note_on_c, 2, 72, 0
4, 84480, Note_on_c, 2, 64, 100
4, 84480, Note_on_c, 2, 71, 100
4, 84480, Note_on_c, 2, 74, 100
4, 84588, Note_on_c, 2, 74, 0
4, 84588, Note_on_c, 2, 71, 0
4, 84588, Note_on_c, 2, 64, 0
4, 84600, Note_on_c, 2, 64, 100
4, 84600, Note_on_c, 2, 71, 100
4, 84600, Note_on_c, 2, 74, 100
4, 84708, Note_on_c, 2, 74, 0
4, 84708, Note_on_c, 2, 71, 0
4, 84708, Note_on_c, 2, 64, 0
4, 84720, Note_on_c, 2, 64, 100
4, 84720, Note_on_c, 2, 71, 100
4, 84720, Note_on_c, 2, 74, 100
4, 84828, Note_on_c, 2, 74, 0
4, 84828, Note_on_c, 2, 71, 0
4, 84828, Note_on_c, 2, 64, 0
4, 84840, Note_on_c, 2, 64, 100
4, 84840, Note_on_c, 2, 71, 100
4, 84840, Note_on_c, 2, 74, 100
4, 84948, Note_on_c, 2, 74, 0
4, 84948, Note_on_c, 2, 71, 0
4, 84948, Note_on_c, 2, 64, 0
4, 84960, Note_on_c, 2, 64, 100
4, 84960, Note_on_c, 2, 71, 100
4, 84960, Note_on_c, 2, 74, 100
4, 85068, Note_on_c, 2, 74, 0
4, 85068, Note_on_c, 2, 71, 0
4, 85068, Note_on_c, 2, 64, 0
4, 85080, Note_on_c, 2, 64, 100
4, 85080, Note_on_c, 2, 71, 100
4, 85080, Note_on_c, 2, 74, 100
4, 85188, Note_on_c, 2, 74, 0
4, 85188, Note_on_c, 2, 71, 0
4, 85188, Note_on_c, 2, 64, 0
4, 85200, Note_on_c, 2, 64, 100
4, 85200, Note_on_c, 2, 69, 100
4, 85200, Note_on_c, 2, 72, 100
4, 85308, Note_on_c, 2, 72, 0
4, 85308, Note_on_c, 2, 69, 0
4, 85308, Note_on_c, 2, 64, 0
4, 85320, Note_on_c, 2, 64, 100
4, 85320, Note_on_c, 2, 69, 100
4, 85320, Note_on_c, 2, 72, 100
4, 85428, Note_on_c, 2, 72, 0
4, 85428, Note_on_c, 2, 69, 0
4, 85428, Note_on_c, 2, 64, 0
4, 85440, Note_on_c, 2, 66, 100
4, 85440, Note_on_c, 2, 69, 100
4, 85440, Note_on_c, 2, 71, 100
4, 85656, Note_on_c, 2, 71, 0
4, 85656, Note_on_c, 2, 69, 0
4, 85656, Note_on_c, 2, 66, 0
4, 85800, Note_on_c, 2, 63, 100
4, 85800, Note_on_c, 2, 66, 100
4, 85800, Note_on_c, 2, 71, 100
4, 85908, Note_on_c, 2, 71, 0
4, 85908, Note_on_c, 2, 66, 0
4, 85908, Note_on_c, 2, 63, 0
4, 85920, Note_on_c, 2, 71, 100
4, 85920, Note_on_c, 2, 59, 100
4, 85920, Note_on_c, 2, 64, 100
4, 85974, Note_on_c, 2, 71, 0
4, 85980, Note_on_c, 2, 79, 100
4, 86028, Note_on_c, 2, 64, 0
4, 86028, Note_on_c, 2, 59, 0
4, 86034, Note_on_c, 2, 79, 0
4, 86040, Note_on_c, 2, 78, 100
4, 86040, Note_on_c, 2, 66, 100
4, 86040, Note_on_c, 2, 69, 100
4, 86094, Note_on_c, 2, 78, 0
4, 86100, Note_on_c, 2, 76, 100
4, 86148, Note_on_c, 2, 69, 0
4, 86148, Note_on_c, 2, 66, 0
4, 86154, Note_on_c, 2, 76, 0
4, 86160, Note_on_c, 2, 75, 100
4, 86160, Note_on_c, 2, 66, 100
4, 86322, Note_on_c, 2, 75, 0
4, 86340, Note_on_c, 2, 76, 100
4, 86376, Note_on_c, 2, 66, 0
4, 86394, Note_on_c, 2, 76, 0
4, 86400, Note_on_c, 2, 67, 100
4, 86400, Note_on_c, 2, 76, 100
4, 86616, Note_on_c, 2, 76, 0
4, 86616, Note_on_c, 2, 67, 0
4, 87360, Note_on_c, 2, 81, 100
4, 87468, Note_on_c, 2, 81, 0
4, 87480, Note_on_c, 2, 76, 100
4, 87588, Note_on_c, 2, 76, 0
4, 87600, Note_on_c, 2, 81, 100
4, 87708, Note_on_c, 2, 81, 0
4, 87720, Note_on_c, 2, 76, 100
4, 87828, Note_on_c, 2, 76, 0
4, 87840, Note_on_c, 2, 81, 100
4, 87948, Note_on_c, 2, 81, 0
4, 87960, Note_on_c, 2, 79, 100
4, 88014, Note_on_c, 2, 79, 0
4, 88020, Note_on_c, 2, 78, 100
4, 88074, Note_on_c, 2, 78, 0
4, 88080, Note_on_c, 2, 76, 100
4, 88188, Note_on_c, 2, 76, 0
4, 88200, Note_on_c, 2, 78, 100
4, 88254, Note_on_c, 2, 78, 0
4, 88260, Note_on_c, 2, 79, 100
4, 88314, Note_on_c, 2, 79, 0
4, 88320, Note_on_c, 2, 78, 100
4, 88374, Note_on_c, 2, 78, 0
4, 88380, Note_on_c, 2, 76, 100
4, 88434, Note_on_c, 2, 76, 0
4, 88440, Note_on_c, 2, 78, 100
4, 88494, Note_on_c, 2, 78, 0
4, 88500, Note_on_c, 2, 79, 100
4, 88554, Note_on_c, 2, 79, 0
4, 88560, Note_on_c, 2, 81, 100
4, 88614, Note_on_c, 2, 81, 0
4, 88620, Note_on_c, 2, 79, 100
4, 88674, Note_on_c, 2, 79, 0
4, 88680, Note_on_c, 2, 78, 100
4, 88734, Note_on_c, 2, 78, 0
4, 88740, Note_on_c, 2, 79, 100
4, 88794, Note_on_c, 2, 79, 0
4, 88800, Note_on_c, 2, 81, 100
4, 88854, Note_on_c, 2, 81, 0
4, 88860, Note_on_c, 2, 79, 100
4, 88914, Note_on_c, 2, 79, 0
4, 88920, Note_on_c, 2, 78, 100
4, 88974, Note_on_c, 2, 78, 0
4, 88980, Note_on_c, 2, 79, 100
4, 89034, Note_on_c, 2, 79, 0
4, 89040, Note_on_c, 2, 81, 100
4, 89094, Note_on_c, 2, 81, 0
4, 89100, Note_on_c, 2, 79, 100
4, 89154, Note_on_c, 2, 79, 0
4, 89160, Note_on_c, 2, 78, 100
4, 89214, Note_on_c, 2, 78, 0
4, 89220, Note_on_c, 2, 76, 100
4, 89274, Note_on_c, 2, 76, 0
4, 89280, Note_on_c, 2, 74, 100
4, 90144, Note_on_c, 2, 74, 0
4, 90360, Note_on_c, 2, 72, 100
4, 90414, Note_on_c, 2, 72, 0
4, 90420, Note_on_c, 2, 74, 100
4, 90474, Note_on_c, 2, 74, 0
4, 90480, Note_on_c, 2, 76, 100
4, 90534, Note_on_c, 2, 76, 0
4, 90540, Note_on_c, 2, 77, 100
4, 90594, Note_on_c, 2, 77, 0
4, 90600, Note_on_c, 2, 79, 100
4, 90654, Note_on_c, 2, 79, 0
4, 90660, Note_on_c, 2, 77, 100
4, 90714, Note_on_c, 2, 77, 0
4, 90720, Note_on_c, 2, 76, 100
4, 90774, Note_on_c, 2, 76, 0
4, 90780, Note_on_c, 2, 74, 100
4, 90834, Note_on_c, 2, 74, 0
4, 90840, Note_on_c, 2, 72, 100
4, 90894, Note_on_c, 2, 72, 0
4, 90900, Note_on_c, 2, 74, 100
4, 90954, Note_on_c, 2, 74, 0
4, 90960, Note_on_c, 2, 76, 100
4, 91014, Note_on_c, 2, 76, 0
4, 91020, Note_on_c, 2, 77, 100
4, 91074, Note_on_c, 2, 77, 0
4, 91080, Note_on_c, 2, 79, 100
4, 91134, Note_on_c, 2, 79, 0
4, 91140, Note_on_c, 2, 77, 100
4, 91194, Note_on_c, 2, 77, 0
4, 91200, Note_on_c, 2, 75, 100
4, 91974, Note_on_c, 2, 75, 0
4, 91980, Note_on_c, 2, 72, 100
4, 92034, Note_on_c, 2, 72, 0
4, 92040, Note_on_c, 2, 71, 100
4, 92094, Note_on_c, 2, 71, 0
4, 92100, Note_on_c, 2, 72, 100
4, 92154, Note_on_c, 2, 72, 0
4, 92160, Note_on_c, 2, 79, 100
4, 92268, Note_on_c, 2, 79, 0
4, 92280, Note_on_c, 2, 74, 100
4, 92388, Note_on_c, 2, 74, 0
4, 92400, Note_on_c, 2, 79, 100
4, 92508, Note_on_c, 2, 79, 0
4, 92520, Note_on_c, 2, 74, 100
4, 92628, Note_on_c, 2, 74, 0
4, 92640, Note_on_c, 2, 79, 100
4, 92748, Note_on_c, 2, 79, 0
4, 92760, Note_on_c, 2, 77, 100
4, 92814, Note_on_c, 2, 77, 0
4, 92820, Note_on_c, 2, 76, 100
4, 92874, Note_on_c, 2, 76, 0
4, 92880, Note_on_c, 2, 74, 100
4, 92934, Note_on_c, 2, 74, 0
4, 92940, Note_on_c, 2, 72, 100
4, 92994, Note_on_c, 2, 72, 0
4, 93000, Note_on_c, 2, 74, 100
4, 93054, Note_on_c, 2, 74, 0
4, 93060, Note_on_c, 2, 71, 100
4, 93114, Note_on_c, 2, 71, 0
4, 93120, Note_on_c, 2, 60, 100
4, 93174, Note_on_c, 2, 60, 0
4, 93180, Note_on_c, 2, 62, 100
4, 93234, Note_on_c, 2, 62, 0
4, 93240, Note_on_c, 2, 71, 100
4, 93294, Note_on_c, 2, 71, 0
4, 93300, Note_on_c, 2, 74, 100
4, 93354, Note_on_c, 2, 74, 0
4, 93360, Note_on_c, 2, 72, 100
4, 93414, Note_on_c, 2, 72, 0
4, 93420, Note_on_c, 2, 74, 100
4, 93474, Note_on_c, 2, 74, 0
4, 93480, Note_on_c, 2, 71, 100
4, 93534, Note_on_c, 2, 71, 0
4, 93540, Note_on_c, 2, 74, 100
4, 93594, Note_on_c, 2, 74, 0
4, 93600, Note_on_c, 2, 72, 100
4, 93654, Note_on_c, 2, 72, 0
4, 93660, Note_on_c, 2, 76, 100
4, 93714, Note_on_c, 2, 76, 0
4, 93720, Note_on_c, 2, 74, 100
4, 93774, Note_on_c, 2, 74, 0
4, 93780, Note_on_c, 2, 72, 100
4, 93834, Note_on_c, 2, 72, 0
4, 93840, Note_on_c, 2, 71, 100
4, 93894, Note_on_c, 2, 71, 0
4, 93900, Note_on_c, 2, 72, 100
4, 93954, Note_on_c, 2, 72, 0
4, 93960, Note_on_c, 2, 71, 100
4, 94014, Note_on_c, 2, 71, 0
4, 94020, Note_on_c, 2, 69, 100
4, 94074, Note_on_c, 2, 69, 0
4, 94080, Note_on_c, 2, 67, 100
4, 94134, Note_on_c, 2, 67, 0
4, 94140, Note_on_c, 2, 69, 100
4, 94194, Note_on_c, 2, 69, 0
4, 94200, Note_on_c, 2, 71, 100
4, 94254, Note_on_c, 2, 71, 0
4, 94260, Note_on_c, 2, 72, 100
4, 94314, Note_on_c, 2, 72, 0
4, 94320, Note_on_c, 2, 74, 100
4, 94374, Note_on_c, 2, 74, 0
4, 94380, Note_on_c, 2, 76, 100
4, 94434, Note_on_c, 2, 76, 0
4, 94440, Note_on_c, 2, 77, 100
4, 94494, Note_on_c, 2, 77, 0
4, 94500, Note_on_c, 2, 79, 100
4, 94554, Note_on_c, 2, 79, 0
4, 94560, Note_on_c, 2, 70, 100
4, 94776, Note_on_c, 2, 70, 0
4, 94920, Note_on_c, 2, 79, 100
4, 95028, Note_on_c, 2, 79, 0
4, 95040, Note_on_c, 2, 72, 100
4, 95148, Note_on_c, 2, 72, 0
4, 95160, Note_on_c, 2, 69, 100
4, 95268, Note_on_c, 2, 69, 0
4, 95400, Note_on_c, 2, 77, 100
4, 95508, Note_on_c, 2, 77, 0
4, 95520, Note_on_c, 2, 74, 100
4, 95628, Note_on_c, 2, 74, 0
4, 95640, Note_on_c, 2, 69, 100
4, 95748, Note_on_c, 2, 69, 0
4, 95880, Note_on_c, 2, 81, 100
4, 95988, Note_on_c, 2, 81, 0
4, 96000, Note_on_c, 2, 74, 100
4, 96108, Note_on_c, 2, 74, 0
4, 96120, Note_on_c, 2, 71, 100
4, 96228, Note_on_c, 2, 71, 0
4, 96360, Note_on_c, 2, 79, 100
4, 96468, Note_on_c, 2, 79, 0
4, 96480, Note_on_c, 2, 76, 100
4, 96588, Note_on_c, 2, 76, 0
4, 96600, Note_on_c, 2, 71, 100
4, 96708, Note_on_c, 2, 71, 0
4, 96840, Note_on_c, 2, 83, 100
4, 96948, Note_on_c, 2, 83, 0
4, 96960, Note_on_c, 2, 76, 100
4, 97068, Note_on_c, 2, 76, 0
4, 97080, Note_on_c, 2, 72, 100
4, 97188, Note_on_c, 2, 72, 0
4, 97320, Note_on_c, 2, 81, 100
4, 97428, Note_on_c, 2, 81, 0
4, 97440, Note_on_c, 2, 77, 100
4, 97548, Note_on_c, 2, 77, 0
4, 97560, Note_on_c, 2, 74, 100
4, 97668, Note_on_c, 2, 74, 0
4, 97800, Note_on_c, 2, 74, 100
4, 97908, Note_on_c, 2, 74, 0
4, 97920, Note_on_c, 2, 71, 100
4, 98028, Note_on_c, 2, 71, 0
4, 98040, Note_on_c, 2, 67, 100
4, 98148, Note_on_c, 2, 67, 0
4, 98280, Note_on_c, 2, 79, 100
4, 98388, Note_on_c, 2, 79, 0
4, 98400, Note_on_c, 2, 76, 100
4, 98508, Note_on_c, 2, 76, 0
4, 98520, Note_on_c, 2, 72, 100
4, 98628, Note_on_c, 2, 72, 0
4, 98760, Note_on_c, 2, 72, 100
4, 98868, Note_on_c, 2, 72, 0
4, 98880, Note_on_c, 2, 69, 100
4, 98934, Note_on_c, 2, 69, 0
4, 98940, Note_on_c, 2, 65, 100
4, 98994, Note_on_c, 2, 65, 0
4, 99000, Note_on_c, 2, 69, 100
4, 99054, Note_on_c, 2, 69, 0
4, 99060, Note_on_c, 2, 72, 100
4, 99114, Note_on_c, 2, 72, 0
4, 99120, Note_on_c, 2, 77, 100
4, 99174, Note_on_c, 2, 77, 0
4, 99180, Note_on_c, 2, 76, 100
4, 99234, Note_on_c, 2, 76, 0
4, 99240, Note_on_c, 2, 74, 100
4, 99294, Note_on_c, 2, 74, 0
4, 99300, Note_on_c, 2, 72, 100
4, 99354, Note_on_c, 2, 72, 0
4, 99360, Note_on_c, 2, 74, 100
4, 99468, Note_on_c, 2, 74, 0
4, 99480, Note_on_c, 2, 83, 100
4, 99588, Note_on_c, 2, 83, 0
4, 99600, Note_on_c, 2, 77, 100
4, 99708, Note_on_c, 2, 77, 0
4, 99720, Note_on_c, 2, 74, 100
4, 99828, Note_on_c, 2, 74, 0
4, 99840, Note_on_c, 2, 71, 100
4, 99948, Note_on_c, 2, 71, 0
4, 99960, Note_on_c, 2, 68, 100
4, 99960, Note_on_c, 2, 71, 100
4, 99960, Note_on_c, 2, 74, 100
4, 100068, Note_on_c, 2, 74, 0
4, 100068, Note_on_c, 2, 71, 0
4, 100068, Note_on_c, 2, 68, 0
4, 100080, Note_on_c, 2, 68, 100
4, 100080, Note_on_c, 2, 71, 100
4, 100080, Note_on_c, 2, 74, 100
4, 100188, Note_on_c, 2, 74, 0
4, 100188, Note_on_c, 2, 71, 0
4, 100188, Note_on_c, 2, 68, 0
4, 100200, Note_on_c, 2, 68, 100
4, 100200, Note_on_c, 2, 71, 100
4, 100200, Note_on_c, 2, 74, 100
4, 100308, Note_on_c, 2, 74, 0
4, 100308, Note_on_c, 2, 71, 0
4, 100308, Note_on_c, 2, 68, 0
4, 100440, Note_on_c, 2, 67, 100
4, 100440, Note_on_c, 2, 69, 100
4, 100440, Note_on_c, 2, 73, 100
4, 100548, Note_on_c, 2, 73, 0
4, 100548, Note_on_c, 2, 69, 0
4, 100548, Note_on_c, 2, 67, 0
4, 100560, Note_on_c, 2, 67, 100
4, 100560, Note_on_c, 2, 69, 100
4, 100560, Note_on_c, 2, 73, 100
4, 100668, Note_on_c, 2, 73, 0
4, 100668, Note_on_c, 2, 69, 0
4, 100668, Note_on_c, 2, 67, 0
4, 100680, Note_on_c, 2, 67, 100
4, 100680, Note_on_c, 2, 69, 100
4, 100680, Note_on_c, 2, 73, 100
4, 100788, Note_on_c, 2, 73, 0
4, 100788, Note_on_c, 2, 69, 0
4, 100788, Note_on_c, 2, 67, 0
4, 100920, Note_on_c, 2, 66, 100
4, 100920, Note_on_c, 2, 69, 100
4, 100920, Note_on_c, 2, 72, 100
4, 101028, Note_on_c, 2, 72, 0
4, 101028, Note_on_c, 2, 69, 0
4, 101028, Note_on_c, 2, 66, 0
4, 101040, Note_on_c, 2, 66, 100
4, 101040, Note_on_c, 2, 69, 100
4, 101040, Note_on_c, 2, 72, 100
4, 101148, Note_on_c, 2, 72, 0
4, 101148, Note_on_c, 2, 69, 0
4, 101148, Note_on_c, 2, 66, 0
4, 101160, Note_on_c, 2, 66, 100
4, 101160, Note_on_c, 2, 69, 100
4, 101160, Note_on_c, 2, 72, 100
4, 101268, Note_on_c, 2, 72, 0
4, 101268, Note_on_c, 2, 69, 0
4, 101268, Note_on_c, 2, 66, 0
4, 101400, Note_on_c, 2, 65, 100
4, 101400, Note_on_c, 2, 67, 100
4, 101400, Note_on_c, 2, 71, 100
4, 101508, Note_on_c, 2, 71, 0
4, 101508, Note_on_c, 2, 67, 0
4, 101508, Note_on_c, 2, 65, 0
4, 101520, Note_on_c, 2, 65, 100
4, 101520, Note_on_c, 2, 67, 100
4, 101520, Note_on_c, 2, 71, 100
4, 101628, Note_on_c, 2, 71, 0
4, 101628, Note_on_c, 2, 67, 0
4, 101628, Note_on_c, 2, 65, 0
4, 101640, Note_on_c, 2, 65, 100
4, 101640, Note_on_c, 2, 67, 100
4, 101640, Note_on_c, 2, 71, 100
4, 101748, Note_on_c, 2, 71, 0
4, 101748, Note_on_c, 2, 67, 0
4, 101748, Note_on_c, 2, 65, 0
4, 101880, Note_on_c, 2, 64, 100
4, 101880, Note_on_c, 2, 67, 100
4, 101880, Note_on_c, 2, 70, 100
4, 101988, Note_on_c, 2, 70, 0
4, 101988, Note_on_c, 2, 67, 0
4, 101988, Note_on_c, 2, 64, 0
4, 102000, Note_on_c, 2, 64, 100
4, 102000, Note_on_c, 2, 67, 100
4, 102000, Note_on_c, 2, 70, 100
4, 102108, Note_on_c, 2, 70, 0
4, 102108, Note_on_c, 2, 67, 0
4, 102108, Note_on_c, 2, 64, 0
4, 102120, Note_on_c, 2, 64, 100
4, 102120, Note_on_c, 2, 67, 100
4, 102120, Note_on_c, 2, 70, 100
4, 102228, Note_on_c, 2, 70, 0
4, 102228, Note_on_c, 2, 67, 0
4, 102228, Note_on_c, 2, 64, 0
4, 102240, Note_on_c, 2, 63, 100
4, 102240, Note_on_c, 2, 69, 100
4, 102456, Note_on_c, 2, 69, 0
4, 102456, Note_on_c, 2, 63, 0
4, 103260, Note_on_c, 2, 62, 100
4, 103314, Note_on_c, 2, 62, 0
4, 103320, Note_on_c, 2, 66, 100
4, 103374, Note_on_c, 2, 66, 0
4, 103380, Note_on_c, 2, 69, 100
4, 103434, Note_on_c, 2, 69, 0
4, 103440, Note_on_c, 2, 74, 100
4, 103494, Note_on_c, 2, 74, 0
4, 103500, Note_on_c, 2, 72, 100
4, 103554, Note_on_c, 2, 72, 0
4, 103560, Note_on_c, 2, 71, 100
4, 103614, Note_on_c, 2, 71, 0
4, 103620, Note_on_c, 2, 69, 100
4, 103674, Note_on_c, 2, 69, 0
4, 103680, Note_on_c, 2, 71, 100
4, 103734, Note_on_c, 2, 71, 0
4, 103740, Note_on_c, 2, 77, 100
4, 103767, Note_on_c, 2, 77, 0
4, 103770, Note_on_c, 2, 76, 100
4, 103797, Note_on_c, 2, 76, 0
4, 103800, Note_on_c, 2, 74, 100
4, 103854, Note_on_c, 2, 74, 0
4, 103860, Note_on_c, 2, 76, 100
4, 103887, Note_on_c, 2, 76, 0
4, 103890, Note_on_c, 2, 77, 100
4, 103917, Note_on_c, 2, 77, 0
4, 103920, Note_on_c, 2, 71, 100
4, 103974, Note_on_c, 2, 71, 0
4, 103980, Note_on_c, 2, 74, 100
4, 104007, Note_on_c, 2, 74, 0
4, 104010, Note_on_c, 2, 72, 100
4, 104037, Note_on_c, 2, 72, 0
4, 104040, Note_on_c, 2, 71, 100
4, 104094, Note_on_c, 2, 71, 0
4, 104100, Note_on_c, 2, 72, 100
4, 104127, Note_on_c, 2, 72, 0
4, 104130, Note_on_c, 2, 74, 100
4, 104157, Note_on_c, 2, 74, 0
4, 104160, Note_on_c, 2, 65, 100
4, 104214, Note_on_c, 2, 65, 0
4, 104220, Note_on_c, 2, 69, 100
4, 104247, Note_on_c, 2, 69, 0
4, 104250, Note_on_c, 2, 67, 100
4, 104277, Note_on_c, 2, 67, 0
4, 104280, Note_on_c, 2, 65, 100
4, 104334, Note_on_c, 2, 65, 0
4, 104340, Note_on_c, 2, 67, 100
4, 104367, Note_on_c, 2, 67, 0
4, 104370, Note_on_c, 2, 69, 100
4, 104397, Note_on_c, 2, 69, 0
4, 104400, Note_on_c, 2, 62, 100
4, 104454, Note_on_c, 2, 62, 0
4, 104460, Note_on_c, 2, 65, 100
4, 104487, Note_on_c, 2, 65, 0
4, 104490, Note_on_c, 2, 64, 100
4, 104517, Note_on_c, 2, 64, 0
4, 104520, Note_on_c, 2, 62, 100
4, 104574, Note_on_c, 2, 62, 0
4, 104580, Note_on_c, 2, 64, 100
4, 104607, Note_on_c, 2, 64, 0
4, 104610, Note_on_c, 2, 65, 100
4, 104637, Note_on_c, 2, 65, 0
4, 104640, Note_on_c, 2, 59, 100
4, 104694, Note_on_c, 2, 59, 0
4, 104700, Note_on_c, 2, 67, 100
4, 104754, Note_on_c, 2, 67, 0
4, 104760, Note_on_c, 2, 71, 100
4, 104814, Note_on_c, 2, 71, 0
4, 104820, Note_on_c, 2, 74, 100
4, 104874, Note_on_c, 2, 74, 0
4, 104880, Note_on_c, 2, 79, 100
4, 104934, Note_on_c, 2, 79, 0
4, 104940, Note_on_c, 2, 77, 100
4, 104994, Note_on_c, 2, 77, 0
4, 105000, Note_on_c, 2, 76, 100
4, 105054, Note_on_c, 2, 76, 0
4, 105060, Note_on_c, 2, 74, 100
4, 105114, Note_on_c, 2, 74, 0
4, 105120, Note_on_c, 2, 76, 100
4, 105228, Note_on_c, 2, 76, 0
4, 106140, Note_on_c, 2, 60, 100
4, 106194, Note_on_c, 2, 60, 0
4, 106200, Note_on_c, 2, 64, 100
4, 106254, Note_on_c, 2, 64, 0
4, 106260, Note_on_c, 2, 67, 100
4, 106314, Note_on_c, 2, 67, 0
4, 106320, Note_on_c, 2, 72, 100
4, 106374, Note_on_c, 2, 72, 0
4, 106380, Note_on_c, 2, 70, 100
4, 106434, Note_on_c, 2, 70, 0
4, 106440, Note_on_c, 2, 69, 100
4, 106494, Note_on_c, 2, 69, 0
4, 106500, Note_on_c, 2, 67, 100
4, 106554, Note_on_c, 2, 67, 0
4, 106560, Note_on_c, 2, 69, 100
4, 106614, Note_on_c, 2, 69, 0
4, 106620, Note_on_c, 2, 67, 100
4, 106674, Note_on_c, 2, 67, 0
4, 106680, Note_on_c, 2, 65, 100
4, 106734, Note_on_c, 2, 65, 0
4, 106740, Note_on_c, 2, 64, 100
4, 106794, Note_on_c, 2, 64, 0
4, 106800, Note_on_c, 2, 74, 100
4, 106854, Note_on_c, 2, 74, 0
4, 106860, Note_on_c, 2, 72, 100
4, 106914, Note_on_c, 2, 72, 0
4, 106920, Note_on_c, 2, 71, 100
4, 106974, Note_on_c, 2, 71, 0
4, 106980, Note_on_c, 2, 69, 100
4, 107034, Note_on_c, 2, 69, 0
4, 107040, Note_on_c, 2, 71, 100
4, 107094, Note_on_c, 2, 71, 0
4, 107100, Note_on_c, 2, 69, 100
4, 107154, Note_on_c, 2, 69, 0
4, 107160, Note_on_c, 2, 67, 100
4, 107214, Note_on_c, 2, 67, 0
4, 107220, Note_on_c, 2, 65, 100
4, 107274, Note_on_c, 2, 65, 0
4, 107280, Note_on_c, 2, 76, 100
4, 107334, Note_on_c, 2, 76, 0
4, 107340, Note_on_c, 2, 74, 100
4, 107394, Note_on_c, 2, 74, 0
4, 107400, Note_on_c, 2, 72, 100
4, 107454, Note_on_c, 2, 72, 0
4, 107460, Note_on_c, 2, 71, 100
4, 107514, Note_on_c, 2, 71, 0
4, 107520, Note_on_c, 2, 72, 100
4, 107574, Note_on_c, 2, 72, 0
4, 107580, Note_on_c, 2, 71, 100
4, 107634, Note_on_c, 2, 71, 0
4, 107640, Note_on_c, 2, 69, 100
4, 107694, Note_on_c, 2, 69, 0
4, 107700, Note_on_c, 2, 67, 100
4, 107754, Note_on_c, 2, 67, 0
4, 107760, Note_on_c, 2, 77, 100
4, 107814, Note_on_c, 2, 77, 0
4, 107820, Note_on_c, 2, 76, 100
4, 107874, Note_on_c, 2, 76, 0
4, 107880, Note_on_c, 2, 74, 100
4, 107934, Note_on_c, 2, 74, 0
4, 107940, Note_on_c, 2, 72, 100
4, 107994, Note_on_c, 2, 72, 0
4, 108000, Note_on_c, 2, 74, 100
4, 108054, Note_on_c, 2, 74, 0
4, 108060, Note_on_c, 2, 72, 100
4, 108114, Note_on_c, 2, 72, 0
4, 108120, Note_on_c, 2, 71, 100
4, 108174, Note_on_c, 2, 71, 0
4, 108180, Note_on_c, 2, 69, 100
4, 108234, Note_on_c, 2, 69, 0
4, 108240, Note_on_c, 2, 79, 100
4, 108294, Note_on_c, 2, 79, 0
4, 108300, Note_on_c, 2, 77, 100
4, 108354, Note_on_c, 2, 77, 0
4, 108360, Note_on_c, 2, 76, 100
4, 108414, Note_on_c, 2, 76, 0
4, 108420, Note_on_c, 2, 74, 100
4, 108474, Note_on_c, 2, 74, 0
4, 108480, Note_on_c, 2, 76, 100
4, 108534, Note_on_c, 2, 76, 0
4, 108540, Note_on_c, 2, 72, 100
4, 108594, Note_on_c, 2, 72, 0
4, 108600, Note_on_c, 2, 76, 100
4, 108654, Note_on_c, 2, 76, 0
4, 108660, Note_on_c, 2, 79, 100
4, 108714, Note_on_c, 2, 79, 0
4, 108720, Note_on_c, 2, 84, 100
4, 108774, Note_on_c, 2, 84, 0
4, 108780, Note_on_c, 2, 82, 100
4, 108834, Note_on_c, 2, 82, 0
4, 108840, Note_on_c, 2, 81, 100
4, 108894, Note_on_c, 2, 81, 0
4, 108900, Note_on_c, 2, 79, 100
4, 108954, Note_on_c, 2, 79, 0
4, 108960, Note_on_c, 2, 81, 100
4, 109014, Note_on_c, 2, 81, 0
4, 109020, Note_on_c, 2, 79, 100
4, 109074, Note_on_c, 2, 79, 0
4, 109080, Note_on_c, 2, 77, 100
4, 109134, Note_on_c, 2, 77, 0
4, 109140, Note_on_c, 2, 76, 100
4, 109194, Note_on_c, 2, 76, 0
4, 109200, Note_on_c, 2, 77, 100
4, 109254, Note_on_c, 2, 77, 0
4, 109260, Note_on_c, 2, 76, 100
4, 109314, Note_on_c, 2, 76, 0
4, 109320, Note_on_c, 2, 74, 100
4, 109374, Note_on_c, 2, 74, 0
4, 109380, Note_on_c, 2, 72, 100
4, 109434, Note_on_c, 2, 72, 0
4, 109440, Note_on_c, 2, 71, 100
4, 109872, Note_on_c, 2, 71, 0
4, 109920, Note_on_c, 2, 72, 100
4, 110352, Note_on_c, 2, 72, 0
4, 110400, Note_on_c, 2, 71, 100
4, 110832, Note_on_c, 2, 71, 0
4, 110880, Note_on_c, 2, 72, 100
4, 111312, Note_on_c, 2, 72, 0
4, 111360, Note_on_c, 2, 67, 100
4, 111414, Note_on_c, 2, 67, 0
4, 111420, Note_on_c, 2, 69, 100
4, 111474, Note_on_c, 2, 69, 0
4, 111480, Note_on_c, 2, 71, 100
4, 111534, Note_on_c, 2, 71, 0
4, 111540, Note_on_c, 2, 72, 100
4, 111594, Note_on_c, 2, 72, 0
4, 111600, Note_on_c, 2, 74, 100
4, 111654, Note_on_c, 2, 74, 0
4, 111660, Note_on_c, 2, 76, 100
4, 111714, Note_on_c, 2, 76, 0
4, 111720, Note_on_c, 2, 77, 100
4, 111774, Note_on_c, 2, 77, 0
4, 111780, Note_on_c, 2, 79, 100
4, 111834, Note_on_c, 2, 79, 0
4, 111840, Note_on_c, 2, 71, 100
4, 112272, Note_on_c, 2, 71, 0
4, 112320, Note_on_c, 2, 72, 100
4, 113184, Note_on_c, 2, 72, 0
4, 113280, Note_on_c, 2, 74, 100
4, 113604, Note_on_c, 2, 74, 0
4, 113640, Note_on_c, 2, 76, 100
4, 113694, Note_on_c, 2, 76, 0
4, 113700, Note_on_c, 2, 78, 100
4, 113754, Note_on_c, 2, 78, 0
4, 113760, Note_on_c, 2, 78, 100
4, 114192, Note_on_c, 2, 78, 0
4, 114240, Note_on_c, 2, 79, 100
4, 114348, Note_on_c, 2, 79, 0
4, 115200, Note_on_c, 2, 74, 100
4, 115308, Note_on_c, 2, 74, 0
4, 115320, Note_on_c, 2, 69, 100
4, 115428, Note_on_c, 2, 69, 0
4, 115440, Note_on_c, 2, 74, 100
4, 115548, Note_on_c, 2, 74, 0
4, 115560, Note_on_c, 2, 69, 100
4, 115668, Note_on_c, 2, 69, 0
4, 115680, Note_on_c, 2, 74, 100
4, 115734, Note_on_c, 2, 74, 0
4, 115740, Note_on_c, 2, 72, 100
4, 115794, Note_on_c, 2, 72, 0
4, 115800, Note_on_c, 2, 71, 100
4, 115854, Note_on_c, 2, 71, 0
4, 115860, Note_on_c, 2, 72, 100
4, 115914, Note_on_c, 2, 72, 0
4, 115920, Note_on_c, 2, 74, 100
4, 115974, Note_on_c, 2, 74, 0
4, 115980, Note_on_c, 2, 72, 100
4, 116034, Note_on_c, 2, 72, 0
4, 116040, Note_on_c, 2, 71, 100
4, 116094, Note_on_c, 2, 71, 0
4, 116100, Note_on_c, 2, 74, 100
4, 116154, Note_on_c, 2, 74, 0
4, 116160, Note_on_c, 2, 64, 100
4, 116268, Note_on_c, 2, 64, 0
4, 116280, Note_on_c, 2, 72, 100
4, 116388, Note_on_c, 2, 72, 0
4, 116400, Note_on_c, 2, 64, 100
4, 116508, Note_on_c, 2, 64, 0
4, 116520, Note_on_c, 2, 72, 100
4, 116628, Note_on_c, 2, 72, 0
4, 116640, Note_on_c, 2, 66, 100
4, 116748, Note_on_c, 2, 66, 0
4, 116760, Note_on_c, 2, 72, 100
4, 116868, Note_on_c, 2, 72, 0
4, 116880, Note_on_c, 2, 62, 100
4, 116988, Note_on_c, 2, 62, 0
4, 117000, Note_on_c, 2, 72, 100
4, 117108, Note_on_c, 2, 72, 0
4, 117120, Note_on_c, 2, 62, 100
4, 117228, Note_on_c, 2, 62, 0
4, 117240, Note_on_c, 2, 71, 100
4, 117348, Note_on_c, 2, 71, 0
4, 117360, Note_on_c, 2, 71, 100
4, 117468, Note_on_c, 2, 71, 0
4, 117480, Note_on_c, 2, 60, 100
4, 117588, Note_on_c, 2, 60, 0
4, 117600, Note_on_c, 2, 60, 100
4, 117708, Note_on_c, 2, 60, 0
4, 117720, Note_on_c, 2, 69, 100
4, 117828, Note_on_c, 2, 69, 0
4, 117840, Note_on_c, 2, 69, 100
4, 117948, Note_on_c, 2, 69, 0
4, 117960, Note_on_c, 2, 59, 100
4, 118068, Note_on_c, 2, 59, 0
4, 118080, Note_on_c, 2, 59, 100
4, 118188, Note_on_c, 2, 59, 0
4, 118200, Note_on_c, 2, 67, 100
4, 118308, Note_on_c, 2, 67, 0
4, 118320, Note_on_c, 2, 67, 100
4, 118428, Note_on_c, 2, 67, 0
4, 118440, Note_on_c, 2, 57, 100
4, 118548, Note_on_c, 2, 57, 0
4, 118560, Note_on_c, 2, 57, 100
4, 118668, Note_on_c, 2, 57, 0
4, 118680, Note_on_c, 2, 65, 100
4, 118788, Note_on_c, 2, 65, 0
4, 118800, Note_on_c, 2, 65, 100
4, 118908, Note_on_c, 2, 65, 0
4, 118920, Note_on_c, 2, 55, 100
4, 119028, Note_on_c, 2, 55, 0
4, 119040, Note_on_c, 2, 60, 100
4, 119094, Note_on_c, 2, 60, 0
4, 119100, Note_on_c, 2, 64, 100
4, 119154, Note_on_c, 2, 64, 0
4, 119160, Note_on_c, 2, 67, 100
4, 119214, Note_on_c, 2, 67, 0
4, 119220, Note_on_c, 2, 64, 100
4, 119274, Note_on_c, 2, 64, 0
4, 119280, Note_on_c, 2, 72, 100
4, 119334, Note_on_c, 2, 72, 0
4, 119340, Note_on_c, 2, 67, 100
4, 119394, Note_on_c, 2, 67, 0
4, 119400, Note_on_c, 2, 76, 100
4, 119454, Note_on_c, 2, 76, 0
4, 119460, Note_on_c, 2, 72, 100
4, 119514, Note_on_c, 2, 72, 0
4, 119520, Note_on_c, 2, 69, 100
4, 119574, Note_on_c, 2, 69, 0
4, 119580, Note_on_c, 2, 65, 100
4, 119634, Note_on_c, 2, 65, 0
4, 119640, Note_on_c, 2, 69, 100
4, 119694, Note_on_c, 2, 69, 0
4, 119700, Note_on_c, 2, 72, 100
4, 119754, Note_on_c, 2, 72, 0
4, 119760, Note_on_c, 2, 74, 100
4, 119814, Note_on_c, 2, 74, 0
4, 119820, Note_on_c, 2, 69, 100
4, 119874, Note_on_c, 2, 69, 0
4, 119880, Note_on_c, 2, 77, 100
4, 119934, Note_on_c, 2, 77, 0
4, 119940, Note_on_c, 2, 74, 100
4, 119994, Note_on_c, 2, 74, 0
4, 120000, Note_on_c, 2, 71, 100
4, 120054, Note_on_c, 2, 71, 0
4, 120060, Note_on_c, 2, 67, 100
4, 120114, Note_on_c, 2, 67, 0
4, 120120, Note_on_c, 2, 71, 100
4, 120174, Note_on_c, 2, 71, 0
4, 120180, Note_on_c, 2, 74, 100
4, 120234, Note_on_c, 2, 74, 0
4, 120240, Note_on_c, 2, 76, 100
4, 120294, Note_on_c, 2, 76, 0
4, 120300, Note_on_c, 2, 71, 100
4, 120354, Note_on_c, 2, 71, 0
4, 120360, Note_on_c, 2, 79, 100
4, 120414, Note_on_c, 2, 79, 0
4, 120420, Note_on_c, 2, 76, 100
4, 120474, Note_on_c, 2, 76, 0
4, 120480, Note_on_c, 2, 72, 100
4, 120534, Note_on_c, 2, 72, 0
4, 120540, Note_on_c, 2, 69, 100
4, 120594, Note_on_c, 2, 69, 0
4, 120600, Note_on_c, 2, 72, 100
4, 120654, Note_on_c, 2, 72, 0
4, 120660, Note_on_c, 2, 76, 100
4, 120714, Note_on_c, 2, 76, 0
4, 120720, Note_on_c, 2, 77, 100
4, 120774, Note_on_c, 2, 77, 0
4, 120780, Note_on_c, 2, 72, 100
4, 120834, Note_on_c, 2, 72, 0
4, 120840, Note_on_c, 2, 81, 100
4, 120894, Note_on_c, 2, 81, 0
4, 120900, Note_on_c, 2, 77, 100
4, 120954, Note_on_c, 2, 77, 0
4, 120960, Note_on_c, 2, 74, 100
4, 121014, Note_on_c, 2, 74, 0
4, 121020, Note_on_c, 2, 71, 100
4, 121074, Note_on_c, 2, 71, 0
4, 121080, Note_on_c, 2, 74, 100
4, 121134, Note_on_c, 2, 74, 0
4, 121140, Note_on_c, 2, 77, 100
4, 121194, Note_on_c, 2, 77, 0
4, 121200, Note_on_c, 2, 79, 100
4, 121254, Note_on_c, 2, 79, 0
4, 121260, Note_on_c, 2, 74, 100
4, 121314, Note_on_c, 2, 74, 0
4, 121320, Note_on_c, 2, 83, 100
4, 121374, Note_on_c, 2, 83, 0
4, 121380, Note_on_c, 2, 79, 100
4, 121434, Note_on_c, 2, 79, 0
4, 121440, Note_on_c, 2, 76, 100
4, 121467, Note_on_c, 2, 76, 0
4, 121470, Note_on_c, 2, 74, 100
4, 121497, Note_on_c, 2, 74, 0
4, 121500, Note_on_c, 2, 72, 100
4, 121554, Note_on_c, 2, 72, 0
4, 121560, Note_on_c, 2, 77, 100
4, 121587, Note_on_c, 2, 77, 0
4, 121590, Note_on_c, 2, 76, 100
4, 121617, Note_on_c, 2, 76, 0
4, 121620, Note_on_c, 2, 74, 100
4, 121674, Note_on_c, 2, 74, 0
4, 121680, Note_on_c, 2, 79, 100
4, 121707, Note_on_c, 2, 79, 0
4, 121710, Note_on_c, 2, 77, 100
4, 121737, Note_on_c, 2, 77, 0
4, 121740, Note_on_c, 2, 76, 100
4, 121794, Note_on_c, 2, 76, 0
4, 121800, Note_on_c, 2, 81, 100
4, 121854, Note_on_c, 2, 81, 0
4, 121860, Note_on_c, 2, 77, 100
4, 121914, Note_on_c, 2, 77, 0
4, 121920, Note_on_c, 2, 74, 100
4, 122028, Note_on_c, 2, 74, 0
4, 122040, Note_on_c, 2, 72, 100
4, 122148, Note_on_c, 2, 72, 0
4, 122160, Note_on_c, 2, 71, 100
4, 122268, Note_on_c, 2, 71, 0
4, 122280, Note_on_c, 2, 69, 100
4, 122388, Note_on_c, 2, 69, 0
4, 122400, Note_on_c, 2, 64, 100
4, 122508, Note_on_c, 2, 64, 0
4, 122640, Note_on_c, 2, 79, 100
4, 122880, Note_on_c, 2, 79, 100
4, 122934, Note_on_c, 2, 79, 0
4, 122934, Note_on_c, 2, 79, 0
4, 122940, Note_on_c, 2, 77, 100
4, 122967, Note_on_c, 2, 77, 0
4, 122970, Note_on_c, 2, 76, 100
4, 122997, Note_on_c, 2, 76, 0
4, 123000, Note_on_c, 2, 74, 100
4, 123027, Note_on_c, 2, 74, 0
4, 123030, Note_on_c, 2, 76, 100
4, 123057, Note_on_c, 2, 76, 0
4, 123060, Note_on_c, 2, 72, 100
4, 123114, Note_on_c, 2, 72, 0
4, 123120, Note_on_c, 2, 69, 100
4, 123120, Note_on_c, 2, 77, 100
4, 123228, Note_on_c, 2, 77, 0
4, 123228, Note_on_c, 2, 69, 0
4, 123240, Note_on_c, 2, 69, 100
4, 123240, Note_on_c, 2, 77, 100
4, 123348, Note_on_c, 2, 77, 0
4, 123348, Note_on_c, 2, 69, 0
4, 123360, Note_on_c, 2, 69, 100
4, 123360, Note_on_c, 2, 77, 100
4, 123468, Note_on_c, 2, 77, 0
4, 123468, Note_on_c, 2, 69, 0
4, 123480, Note_on_c, 2, 69, 100
4, 123480, Note_on_c, 2, 77, 100
4, 123588, Note_on_c, 2, 77, 0
4, 123588, Note_on_c, 2, 69, 0
4, 123600, Note_on_c, 2, 69, 100
4, 123600, Note_on_c, 2, 77, 100
4, 123708, Note_on_c, 2, 77, 0
4, 123708, Note_on_c, 2, 69, 0
4, 123720, Note_on_c, 2, 69, 100
4, 123720, Note_on_c, 2, 77, 100
4, 123828, Note_on_c, 2, 77, 0
4, 123828, Note_on_c, 2, 69, 0
4, 123840, Note_on_c, 2, 67, 100
4, 123900, Note_on_c, 2, 76, 100
4, 123927, Note_on_c, 2, 76, 0
4, 123930, Note_on_c, 2, 74, 100
4, 123948, Note_on_c, 2, 67, 0
4, 123957, Note_on_c, 2, 74, 0
4, 123960, Note_on_c, 2, 72, 100
4, 123987, Note_on_c, 2, 72, 0
4, 123990, Note_on_c, 2, 74, 100
4, 124017, Note_on_c, 2, 74, 0
4, 124020, Note_on_c, 2, 71, 100
4, 124074, Note_on_c, 2, 71, 0
4, 124080, Note_on_c, 2, 67, 100
4, 124080, Note_on_c, 2, 76, 100
4, 124188, Note_on_c, 2, 76, 0
4, 124188, Note_on_c, 2, 67, 0
4, 124200, Note_on_c, 2, 67, 100
4, 124200, Note_on_c, 2, 76, 100
4, 124308, Note_on_c, 2, 76, 0
4, 124308, Note_on_c, 2, 67, 0
4, 124320, Note_on_c, 2, 67, 100
4, 124320, Note_on_c, 2, 76, 100
4, 124428, Note_on_c, 2, 76, 0
4, 124428, Note_on_c, 2, 67, 0
4, 124440, Note_on_c, 2, 67, 100
4, 124440, Note_on_c, 2, 76, 100
4, 124548, Note_on_c, 2, 76, 0
4, 124548, Note_on_c, 2, 67, 0
4, 124560, Note_on_c, 2, 67, 100
4, 124560, Note_on_c, 2, 76, 100
4, 124668, Note_on_c, 2, 76, 0
4, 124668, Note_on_c, 2, 67, 0
4, 124680, Note_on_c, 2, 67, 100
4, 124680, Note_on_c, 2, 76, 100
4, 124788, Note_on_c, 2, 76, 0
4, 124788, Note_on_c, 2, 67, 0
4, 124800, Note_on_c, 2, 76, 100
4, 124800, Note_on_c, 2, 65, 100
4, 124854, Note_on_c, 2, 76, 0
4, 124860, Note_on_c, 2, 74, 100
4, 124887, Note_on_c, 2, 74, 0
4, 124890, Note_on_c, 2, 72, 100
4, 124908, Note_on_c, 2, 65, 0
4, 124917, Note_on_c, 2, 72, 0
4, 124920, Note_on_c, 2, 71, 100
4, 124947, Note_on_c, 2, 71, 0
4, 124950, Note_on_c, 2, 72, 100
4, 124977, Note_on_c, 2, 72, 0
4, 124980, Note_on_c, 2, 69, 100
4, 125034, Note_on_c, 2, 69, 0
4, 125040, Note_on_c, 2, 65, 100
4, 125040, Note_on_c, 2, 74, 100
4, 125148, Note_on_c, 2, 74, 0
4, 125148, Note_on_c, 2, 65, 0
4, 125160, Note_on_c, 2, 65, 100
4, 125160, Note_on_c, 2, 74, 100
4, 125268, Note_on_c, 2, 74, 0
4, 125268, Note_on_c, 2, 65, 0
4, 125280, Note_on_c, 2, 65, 100
4, 125280, Note_on_c, 2, 74, 100
4, 125388, Note_on_c, 2, 74, 0
4, 125388, Note_on_c, 2, 65, 0
4, 125400, Note_on_c, 2, 65, 100
4, 125400, Note_on_c, 2, 74, 100
4, 125508, Note_on_c, 2, 74, 0
4, 125508, Note_on_c, 2, 65, 0
4, 125520, Note_on_c, 2, 65, 100
4, 125520, Note_on_c, 2, 74, 100
4, 125628, Note_on_c, 2, 74, 0
4, 125628, Note_on_c, 2, 65, 0
4, 125640, Note_on_c, 2, 65, 100
4, 125640, Note_on_c, 2, 74, 100
4, 125748, Note_on_c, 2, 74, 0
4, 125748, Note_on_c, 2, 65, 0
4, 125760, Note_on_c, 2, 72, 100
4, 125760, Note_on_c, 2, 64, 100
4, 125814, Note_on_c, 2, 72, 0
4, 125820, Note_on_c, 2, 84, 100
4, 125868, Note_on_c, 2, 64, 0
4, 125874, Note_on_c, 2, 84, 0
4, 125880, Note_on_c, 2, 83, 100
4, 125934, Note_on_c, 2, 83, 0
4, 125940, Note_on_c, 2, 81, 100
4, 125994, Note_on_c, 2, 81, 0
4, 126000, Note_on_c, 2, 79, 100
4, 126054, Note_on_c, 2, 79, 0
4, 126060, Note_on_c, 2, 77, 100
4, 126114, Note_on_c, 2, 77, 0
4, 126120, Note_on_c, 2, 76, 100
4, 126174, Note_on_c, 2, 76, 0
4, 126180, Note_on_c, 2, 74, 100
4, 126234, Note_on_c, 2, 74, 0
4, 126240, Note_on_c, 2, 72, 100
4, 126294, Note_on_c, 2, 72, 0
4, 126300, Note_on_c, 2, 74, 100
4, 126327, Note_on_c, 2, 74, 0
4, 126330, Note_on_c, 2, 76, 100
4, 126357, Note_on_c, 2, 76, 0
4, 126360, Note_on_c, 2, 74, 100
4, 126387, Note_on_c, 2, 74, 0
4, 126390, Note_on_c, 2, 76, 100
4, 126417, Note_on_c, 2, 76, 0
4, 126420, Note_on_c, 2, 77, 100
4, 126474, Note_on_c, 2, 77, 0
4, 126480, Note_on_c, 2, 71, 100
4, 126642, Note_on_c, 2, 71, 0
4, 126660, Note_on_c, 2, 72, 100
4, 126714, Note_on_c, 2, 72, 0
4, 126720, Note_on_c, 2, 72, 100
4, 126828, Note_on_c, 2, 72, 0
4, 126840, Note_on_c, 2, 67, 100
4, 126948, Note_on_c, 2, 67, 0
4, 126960, Note_on_c, 2, 72, 100
4, 127068, Note_on_c, 2, 72, 0
4, 127080, Note_on_c, 2, 67, 100
4, 127188, Note_on_c, 2, 67, 0
4, 127200, Note_on_c, 2, 72, 100
4, 127308, Note_on_c, 2, 72, 0
4, 127320, Note_on_c, 2, 71, 100
4, 127374, Note_on_c, 2, 71, 0
4, 127380, Note_on_c, 2, 69, 100
4, 127434, Note_on_c, 2, 69, 0
4, 127440, Note_on_c, 2, 67, 100
4, 127548, Note_on_c, 2, 67, 0
4, 127560, Note_on_c, 2, 69, 100
4, 127614, Note_on_c, 2, 69, 0
4, 127620, Note_on_c, 2, 71, 100
4, 127674, Note_on_c, 2, 71, 0
4, 127680, Note_on_c, 2, 72, 100
4, 127788, Note_on_c, 2, 72, 0
4, 127800, Note_on_c, 2, 71, 100
4, 127854, Note_on_c, 2, 71, 0
4, 127860, Note_on_c, 2, 69, 100
4, 127914, Note_on_c, 2, 69, 0
4, 127920, Note_on_c, 2, 67, 100
4, 128028, Note_on_c, 2, 67, 0
4, 128040, Note_on_c, 2, 65, 100
4, 128148, Note_on_c, 2, 65, 0
4, 128160, Note_on_c, 2, 64, 100
4, 128214, Note_on_c, 2, 64, 0
4, 128220, Note_on_c, 2, 65, 100
4, 128274, Note_on_c, 2, 65, 0
4, 128280, Note_on_c, 2, 67, 100
4, 128334, Note_on_c, 2, 67, 0
4, 128340, Note_on_c, 2, 64, 100
4, 128394, Note_on_c, 2, 64, 0
4, 128400, Note_on_c, 2, 60, 100
4, 128454, Note_on_c, 2, 60, 0
4, 128460, Note_on_c, 2, 62, 100
4, 128514, Note_on_c, 2, 62, 0
4, 128520, Note_on_c, 2, 64, 100
4, 128574, Note_on_c, 2, 64, 0
4, 128580, Note_on_c, 2, 66, 100
4, 128634, Note_on_c, 2, 66, 0
4, 128640, Note_on_c, 2, 67, 100
4, 128748, Note_on_c, 2, 67, 0
4, 128760, Note_on_c, 2, 62, 100
4, 128868, Note_on_c, 2, 62, 0
4, 128880, Note_on_c, 2, 67, 100
4, 128988, Note_on_c, 2, 67, 0
4, 129000, Note_on_c, 2, 62, 100
4, 129108, Note_on_c, 2, 62, 0
4, 129120, Note_on_c, 2, 67, 100
4, 129228, Note_on_c, 2, 67, 0
4, 129240, Note_on_c, 2, 66, 100
4, 129294, Note_on_c, 2, 66, 0
4, 129300, Note_on_c, 2, 64, 100
4, 129354, Note_on_c, 2, 64, 0
4, 129360, Note_on_c, 2, 62, 100
4, 129468, Note_on_c, 2, 62, 0
4, 129480, Note_on_c, 2, 64, 100
4, 129534, Note_on_c, 2, 64, 0
4, 129540, Note_on_c, 2, 66, 100
4, 129594, Note_on_c, 2, 66, 0
4, 129600, Note_on_c, 2, 67, 100
4, 129708, Note_on_c, 2, 67, 0
4, 129720, Note_on_c, 2, 66, 100
4, 129774, Note_on_c, 2, 66, 0
4, 129780, Note_on_c, 2, 64, 100
4, 129834, Note_on_c, 2, 64, 0
4, 129840, Note_on_c, 2, 62, 100
4, 129948, Note_on_c, 2, 62, 0
4, 129960, Note_on_c, 2, 60, 100
4, 130068, Note_on_c, 2, 60, 0
4, 130080, Note_on_c, 2, 59, 100
4, 130134, Note_on_c, 2, 59, 0
4, 130140, Note_on_c, 2, 60, 100
4, 130194, Note_on_c, 2, 60, 0
4, 130200, Note_on_c, 2, 62, 100
4, 130254, Note_on_c, 2, 62, 0
4, 130260, Note_on_c, 2, 59, 100
4, 130314, Note_on_c, 2, 59, 0
4, 130320, Note_on_c, 2, 55, 100
4, 130374, Note_on_c, 2, 55, 0
4, 130380, Note_on_c, 2, 59, 100
4, 130434, Note_on_c, 2, 59, 0
4, 130440, Note_on_c, 2, 62, 100
4, 130494, Note_on_c, 2, 62, 0
4, 130500, Note_on_c, 2, 65, 100
4, 130554, Note_on_c, 2, 65, 0
4, 130560, Note_on_c, 2, 60, 100
4, 130614, Note_on_c, 2, 60, 0
4, 130620, Note_on_c, 2, 62, 100
4, 130674, Note_on_c, 2, 62, 0
4, 130680, Note_on_c, 2, 64, 100
4, 130734, Note_on_c, 2, 64, 0
4, 130740, Note_on_c, 2, 60, 100
4, 130794, Note_on_c, 2, 60, 0
4, 130800, Note_on_c, 2, 55, 100
4, 130854, Note_on_c, 2, 55, 0
4, 130860, Note_on_c, 2, 60, 100
4, 130914, Note_on_c, 2, 60, 0
4, 130920, Note_on_c, 2, 64, 100
4, 130974, Note_on_c, 2, 64, 0
4, 130980, Note_on_c, 2, 67, 100
4, 131034, Note_on_c, 2, 67, 0
4, 131040, Note_on_c, 2, 62, 100
4, 131094, Note_on_c, 2, 62, 0
4, 131100, Note_on_c, 2, 64, 100
4, 131154, Note_on_c, 2, 64, 0
4, 131160, Note_on_c, 2, 65, 100
4, 131214, Note_on_c, 2, 65, 0
4, 131220, Note_on_c, 2, 62, 100
4, 131274, Note_on_c, 2, 62, 0
4, 131280, Note_on_c, 2, 59, 100
4, 131334, Note_on_c, 2, 59, 0
4, 131340, Note_on_c, 2, 62, 100
4, 131394, Note_on_c, 2, 62, 0
4, 131400, Note_on_c, 2, 65, 100
4, 131454, Note_on_c, 2, 65, 0
4, 131460, Note_on_c, 2, 69, 100
4, 131514, Note_on_c, 2, 69, 0
4, 131520, Note_on_c, 2, 67, 100
4, 131574, Note_on_c, 2, 67, 0
4, 131580, Note_on_c, 2, 65, 100
4, 131634, Note_on_c, 2, 65, 0
4, 131640, Note_on_c, 2, 64, 100
4, 131694, Note_on_c, 2, 64, 0
4, 131700, Note_on_c, 2, 65, 100
4, 131754, Note_on_c, 2, 65, 0
4, 131760, Note_on_c, 2, 67, 100
4, 131814, Note_on_c, 2, 67, 0
4, 131820, Note_on_c, 2, 64, 100
4, 131874, Note_on_c, 2, 64, 0
4, 131880, Note_on_c, 2, 60, 100
4, 131934, Note_on_c, 2, 60, 0
4, 131940, Note_on_c, 2, 57, 100
4, 131994, Note_on_c, 2, 57, 0
4, 132000, Note_on_c, 2, 65, 100
4, 132054, Note_on_c, 2, 65, 0
4, 132060, Note_on_c, 2, 64, 100
4, 132114, Note_on_c, 2, 64, 0
4, 132120, Note_on_c, 2, 62, 100
4, 132174, Note_on_c, 2, 62, 0
4, 132180, Note_on_c, 2, 64, 100
4, 132234, Note_on_c, 2, 64, 0
4, 132240, Note_on_c, 2, 65, 100
4, 132294, Note_on_c, 2, 65, 0
4, 132300, Note_on_c, 2, 62, 100
4, 132354, Note_on_c, 2, 62, 0
4, 132360, Note_on_c, 2, 59, 100
4, 132414, Note_on_c, 2, 59, 0
4, 132420, Note_on_c, 2, 55, 100
4, 132474, Note_on_c, 2, 55, 0
4, 132480, Note_on_c, 2, 64, 100
4, 132534, Note_on_c, 2, 64, 0
4, 132540, Note_on_c, 2, 65, 100
4, 132594, Note_on_c, 2, 65, 0
4, 132600, Note_on_c, 2, 67, 100
4, 132654, Note_on_c, 2, 67, 0
4, 132660, Note_on_c, 2, 64, 100
4, 132714, Note_on_c, 2, 64, 0
4, 132720, Note_on_c, 2, 60, 100
4, 132774, Note_on_c, 2, 60, 0
4, 132780, Note_on_c, 2, 62, 100
4, 132834, Note_on_c, 2, 62, 0
4, 132840, Note_on_c, 2, 64, 100
4, 132894, Note_on_c, 2, 64, 0
4, 132900, Note_on_c, 2, 60, 100
4, 132954, Note_on_c, 2, 60, 0
4, 132960, Note_on_c, 2, 57, 100
4, 133014, Note_on_c, 2, 57, 0
4, 133020, Note_on_c, 2, 59, 100
4, 133074, Note_on_c, 2, 59, 0
4, 133080, Note_on_c, 2, 60, 100
4, 133134, Note_on_c, 2, 60, 0
4, 133140, Note_on_c, 2, 57, 100
4, 133194, Note_on_c, 2, 57, 0
4, 133200, Note_on_c, 2, 53, 100
4, 133254, Note_on_c, 2, 53, 0
4, 133260, Note_on_c, 2, 55, 100
4, 133314, Note_on_c, 2, 55, 0
4, 133320, Note_on_c, 2, 57, 100
4, 133374, Note_on_c, 2, 57, 0
4, 133380, Note_on_c, 2, 53, 100
4, 133434, Note_on_c, 2, 53, 0
4, 133440, Note_on_c, 2, 50, 100
4, 133602, Note_on_c, 2, 50, 0
4, 133620, Note_on_c, 2, 52, 100
4, 133674, Note_on_c, 2, 52, 0
4, 133680, Note_on_c, 2, 53, 100
4, 133734, Note_on_c, 2, 53, 0
4, 133740, Note_on_c, 2, 55, 100
4, 133794, Note_on_c, 2, 55, 0
4, 133800, Note_on_c, 2, 57, 100
4, 133854, Note_on_c, 2, 57, 0
4, 133860, Note_on_c, 2, 59, 100
4, 133914, Note_on_c, 2, 59, 0
4, 133920, Note_on_c, 2, 60, 100
4, 133974, Note_on_c, 2, 60, 0
4, 133980, Note_on_c, 2, 62, 100
4, 134034, Note_on_c, 2, 62, 0
4, 134040, Note_on_c, 2, 64, 100
4, 134094, Note_on_c, 2, 64, 0
4, 134100, Note_on_c, 2, 65, 100
4, 134154, Note_on_c, 2, 65, 0
4, 134160, Note_on_c, 2, 67, 100
4, 134268, Note_on_c, 2, 67, 0
4, 134280, Note_on_c, 2, 55, 100
4, 134388, Note_on_c, 2, 55, 0
4, 134400, Note_on_c, 2, 60, 100
4, 134616, Note_on_c, 2, 60, 0
4, 134616, End_track
5, 0, Start_track
5, 0, Title_t, "~"
5, 0, Program_c, 3, 6
5, 0, Control_c, 3, 7, 80
5, 0, Control_c, 3, 10, 98
5, 0, Note_on_c, 3, 60, 100
5, 108, Note_on_c, 3, 60, 0
5, 120, Note_on_c, 3, 55, 100
5, 228, Note_on_c, 3, 55, 0
5, 240, Note_on_c, 3, 60, 100
5, 348, Note_on_c, 3, 60, 0
5, 360, Note_on_c, 3, 55, 100
5, 468, Note_on_c, 3, 55, 0
5, 480, Note_on_c, 3, 60, 100
5, 588, Note_on_c, 3, 60, 0
5, 600, Note_on_c, 3, 59, 100
5, 654, Note_on_c, 3, 59, 0
5, 660, Note_on_c, 3, 57, 100
5, 714, Note_on_c, 3, 57, 0
5, 720, Note_on_c, 3, 55, 100
5, 828, Note_on_c, 3, 55, 0
5, 840, Note_on_c, 3, 57, 100
5, 894, Note_on_c, 3, 57, 0
5, 900, Note_on_c, 3, 59, 100
5, 954, Note_on_c, 3, 59, 0
5, 960, Note_on_c, 3, 60, 100
5, 1068, Note_on_c, 3, 60, 0
5, 1080, Note_on_c, 3, 59, 100
5, 1134, Note_on_c, 3, 59, 0
5, 1140, Note_on_c, 3, 57, 100
5, 1194, Note_on_c, 3, 57, 0
5, 1200, Note_on_c, 3, 55, 100
5, 1308, Note_on_c, 3, 55, 0
5, 1320, Note_on_c, 3, 53, 100
5, 1428, Note_on_c, 3, 53, 0
5, 1440, Note_on_c, 3, 52, 100
5, 1494, Note_on_c, 3, 52, 0
5, 1500, Note_on_c, 3, 53, 100
5, 1554, Note_on_c, 3, 53, 0
5, 1560, Note_on_c, 3, 55, 100
5, 1614, Note_on_c, 3, 55, 0
5, 1620, Note_on_c, 3, 52, 100
5, 1674, Note_on_c, 3, 52, 0
5, 1680, Note_on_c, 3, 48, 100
5, 1734, Note_on_c, 3, 48, 0
5, 1740, Note_on_c, 3, 50, 100
5, 1794, Note_on_c, 3, 50, 0
5, 1800, Note_on_c, 3, 52, 100
5, 1854, Note_on_c, 3, 52, 0
5, 1860, Note_on_c, 3, 54, 100
5, 1914, Note_on_c, 3, 54, 0
5, 1920, Note_on_c, 3, 55, 100
5, 2028, Note_on_c, 3, 55, 0
5, 2040, Note_on_c, 3, 50, 100
5, 2148, Note_on_c, 3, 50, 0
5, 2160, Note_on_c, 3, 55, 100
5, 2268, Note_on_c, 3, 55, 0
5, 2280, Note_on_c, 3, 50, 100
5, 2388, Note_on_c, 3, 50, 0
5, 2400, Note_on_c, 3, 55, 100
5, 2508, Note_on_c, 3, 55, 0
5, 2520, Note_on_c, 3, 54, 100
5, 2574, Note_on_c, 3, 54, 0
5, 2580, Note_on_c, 3, 52, 100
5, 2634, Note_on_c, 3, 52, 0
5, 2640, Note_on_c, 3, 50, 100
5, 2748, Note_on_c, 3, 50, 0
5, 2760, Note_on_c, 3, 52, 100
5, 2814, Note_on_c, 3, 52, 0
5, 2820, Note_on_c, 3, 54, 100
5, 2874, Note_on_c, 3, 54, 0
5, 2880, Note_on_c, 3, 55, 100
5, 2988, Note_on_c, 3, 55, 0
5, 3000, Note_on_c, 3, 54, 100
5, 3054, Note_on_c, 3, 54, 0
5, 3060, Note_on_c, 3, 52, 100
5, 3114, Note_on_c, 3, 52, 0
5, 3120, Note_on_c, 3, 50, 100
5, 3228, Note_on_c, 3, 50, 0
5, 3240, Note_on_c, 3, 48, 100
5, 3348, Note_on_c, 3, 48, 0
5, 3360, Note_on_c, 3, 47, 100
5, 3414, Note_on_c, 3, 47, 0
5, 3420, Note_on_c, 3, 48, 100
5, 3474, Note_on_c, 3, 48, 0
5, 3480, Note_on_c, 3, 50, 100
5, 3534, Note_on_c, 3, 50, 0
5, 3540, Note_on_c, 3, 47, 100
5, 3594, Note_on_c, 3, 47, 0
5, 3600, Note_on_c, 3, 43, 100
5, 3654, Note_on_c, 3, 43, 0
5, 3660, Note_on_c, 3, 47, 100
5, 3714, Note_on_c, 3, 47, 0
5, 3720, Note_on_c, 3, 50, 100
5, 3774, Note_on_c, 3, 50, 0
5, 3780, Note_on_c, 3, 53, 100
5, 3834, Note_on_c, 3, 53, 0
5, 3840, Note_on_c, 3, 48, 100
5, 3894, Note_on_c, 3, 48, 0
5, 3900, Note_on_c, 3, 50, 100
5, 3954, Note_on_c, 3, 50, 0
5, 3960, Note_on_c, 3, 52, 100
5, 4014, Note_on_c, 3, 52, 0
5, 4020, Note_on_c, 3, 48, 100
5, 4074, Note_on_c, 3, 48, 0
5, 4080, Note_on_c, 3, 43, 100
5, 4134, Note_on_c, 3, 43, 0
5, 4140, Note_on_c, 3, 48, 100
5, 4194, Note_on_c, 3, 48, 0
5, 4200, Note_on_c, 3, 52, 100
5, 4254, Note_on_c, 3, 52, 0
5, 4260, Note_on_c, 3, 55, 100
5, 4314, Note_on_c, 3, 55, 0
5, 4320, Note_on_c, 3, 50, 100
5, 4374, Note_on_c, 3, 50, 0
5, 4380, Note_on_c, 3, 52, 100
5, 4434, Note_on_c, 3, 52, 0
5, 4440, Note_on_c, 3, 53, 100
5, 4494, Note_on_c, 3, 53, 0
5, 4500, Note_on_c, 3, 50, 100
5, 4554, Note_on_c, 3, 50, 0
5, 4560, Note_on_c, 3, 47, 100
5, 4614, Note_on_c, 3, 47, 0
5, 4620, Note_on_c, 3, 50, 100
5, 4674, Note_on_c, 3, 50, 0
5, 4680, Note_on_c, 3, 53, 100
5, 4734, Note_on_c, 3, 53, 0
5, 4740, Note_on_c, 3, 57, 100
5, 4794, Note_on_c, 3, 57, 0
5, 4800, Note_on_c, 3, 55, 100
5, 4854, Note_on_c, 3, 55, 0
5, 4860, Note_on_c, 3, 53, 100
5, 4914, Note_on_c, 3, 53, 0
5, 4920, Note_on_c, 3, 52, 100
5, 4974, Note_on_c, 3, 52, 0
5, 4980, Note_on_c, 3, 53, 100
5, 5034, Note_on_c, 3, 53, 0
5, 5040, Note_on_c, 3, 55, 100
5, 5094, Note_on_c, 3, 55, 0
5, 5100, Note_on_c, 3, 52, 100
5, 5154, Note_on_c, 3, 52, 0
5, 5160, Note_on_c, 3, 48, 100
5, 5214, Note_on_c, 3, 48, 0
5, 5220, Note_on_c, 3, 45, 100
5, 5274, Note_on_c, 3, 45, 0
5, 5280, Note_on_c, 3, 53, 100
5, 5334, Note_on_c, 3, 53, 0
5, 5340, Note_on_c, 3, 52, 100
5, 5394, Note_on_c, 3, 52, 0
5, 5400, Note_on_c, 3, 50, 100
5, 5454, Note_on_c, 3, 50, 0
5, 5460, Note_on_c, 3, 52, 100
5, 5514, Note_on_c, 3, 52, 0
5, 5520, Note_on_c, 3, 53, 100
5, 5574, Note_on_c, 3, 53, 0
5, 5580, Note_on_c, 3, 50, 100
5, 5634, Note_on_c, 3, 50, 0
5, 5640, Note_on_c, 3, 47, 100
5, 5694, Note_on_c, 3, 47, 0
5, 5700, Note_on_c, 3, 43, 100
5, 5754, Note_on_c, 3, 43, 0
5, 5760, Note_on_c, 3, 52, 100
5, 5814, Note_on_c, 3, 52, 0
5, 5820, Note_on_c, 3, 53, 100
5, 5874, Note_on_c, 3, 53, 0
5, 5880, Note_on_c, 3, 55, 100
5, 5934, Note_on_c, 3, 55, 0
5, 5940, Note_on_c, 3, 52, 100
5, 5994, Note_on_c, 3, 52, 0
5, 6000, Note_on_c, 3, 48, 100
5, 6054, Note_on_c, 3, 48, 0
5, 6060, Note_on_c, 3, 50, 100
5, 6114, Note_on_c, 3, 50, 0
5, 6120, Note_on_c, 3, 52, 100
5, 6174, Note_on_c, 3, 52, 0
5, 6180, Note_on_c, 3, 48, 100
5, 6234, Note_on_c, 3, 48, 0
5, 6240, Note_on_c, 3, 45, 100
5, 6294, Note_on_c, 3, 45, 0
5, 6300, Note_on_c, 3, 47, 100
5, 6354, Note_on_c, 3, 47, 0
5, 6360, Note_on_c, 3, 48, 100
5, 6414, Note_on_c, 3, 48, 0
5, 6420, Note_on_c, 3, 45, 100
5, 6474, Note_on_c, 3, 45, 0
5, 6480, Note_on_c, 3, 41, 100
5, 6534, Note_on_c, 3, 41, 0
5, 6540, Note_on_c, 3, 43, 100
5, 6594, Note_on_c, 3, 43, 0
5, 6600, Note_on_c, 3, 45, 100
5, 6654, Note_on_c, 3, 45, 0
5, 6660, Note_on_c, 3, 41, 100
5, 6714, Note_on_c, 3, 41, 0
5, 6720, Note_on_c, 3, 38, 100
5, 6882, Note_on_c, 3, 38, 0
5, 6900, Note_on_c, 3, 40, 100
5, 6954, Note_on_c, 3, 40, 0
5, 6960, Note_on_c, 3, 41, 100
5, 7014, Note_on_c, 3, 41, 0
5, 7020, Note_on_c, 3, 43, 100
5, 7074, Note_on_c, 3, 43, 0
5, 7080, Note_on_c, 3, 45, 100
5, 7134, Note_on_c, 3, 45, 0
5, 7140, Note_on_c, 3, 47, 100
5, 7194, Note_on_c, 3, 47, 0
5, 7200, Note_on_c, 3, 48, 100
5, 7254, Note_on_c, 3, 48, 0
5, 7260, Note_on_c, 3, 50, 100
5, 7314, Note_on_c, 3, 50, 0
5, 7320, Note_on_c, 3, 52, 100
5, 7374, Note_on_c, 3, 52, 0
5, 7380, Note_on_c, 3, 53, 100
5, 7434, Note_on_c, 3, 53, 0
5, 7440, Note_on_c, 3, 55, 100
5, 7548, Note_on_c, 3, 55, 0
5, 7560, Note_on_c, 3, 43, 100
5, 7668, Note_on_c, 3, 43, 0
5, 7680, Note_on_c, 3, 48, 100
5, 7788, Note_on_c, 3, 48, 0
5, 7800, Note_on_c, 3, 55, 100
5, 7854, Note_on_c, 3, 55, 0
5, 7860, Note_on_c, 3, 53, 100
5, 7914, Note_on_c, 3, 53, 0
5, 7920, Note_on_c, 3, 52, 100
5, 8028, Note_on_c, 3, 52, 0
5, 8040, Note_on_c, 3, 50, 100
5, 8094, Note_on_c, 3, 50, 0
5, 8100, Note_on_c, 3, 48, 100
5, 8154, Note_on_c, 3, 48, 0
5, 8160, Note_on_c, 3, 60, 100
5, 8268, Note_on_c, 3, 60, 0
5, 8280, Note_on_c, 3, 64, 100
5, 8334, Note_on_c, 3, 64, 0
5, 8340, Note_on_c, 3, 65, 100
5, 8394, Note_on_c, 3, 65, 0
5, 8400, Note_on_c, 3, 67, 100
5, 8454, Note_on_c, 3, 67, 0
5, 8460, Note_on_c, 3, 59, 100
5, 8514, Note_on_c, 3, 59, 0
5, 8520, Note_on_c, 3, 60, 100
5, 8574, Note_on_c, 3, 60, 0
5, 8580, Note_on_c, 3, 62, 100
5, 8634, Note_on_c, 3, 62, 0
5, 8640, Note_on_c, 3, 55, 100
5, 8934, Note_on_c, 3, 55, 0
5, 8940, Note_on_c, 3, 53, 100
5, 8994, Note_on_c, 3, 53, 0
5, 9000, Note_on_c, 3, 52, 100
5, 9054, Note_on_c, 3, 52, 0
5, 9060, Note_on_c, 3, 50, 100
5, 9114, Note_on_c, 3, 50, 0
5, 9120, Note_on_c, 3, 48, 100
5, 9174, Note_on_c, 3, 48, 0
5, 9180, Note_on_c, 3, 50, 100
5, 9234, Note_on_c, 3, 50, 0
5, 9240, Note_on_c, 3, 52, 100
5, 9294, Note_on_c, 3, 52, 0
5, 9300, Note_on_c, 3, 53, 100
5, 9354, Note_on_c, 3, 53, 0
5, 9360, Note_on_c, 3, 55, 100
5, 9414, Note_on_c, 3, 55, 0
5, 9420, Note_on_c, 3, 55, 100
5, 9474, Note_on_c, 3, 55, 0
5, 9480, Note_on_c, 3, 57, 100
5, 9534, Note_on_c, 3, 57, 0
5, 9540, Note_on_c, 3, 59, 100
5, 9594, Note_on_c, 3, 59, 0
5, 9600, Note_on_c, 3, 60, 100
5, 9708, Note_on_c, 3, 60, 0
5, 9720, Note_on_c, 3, 55, 100
5, 9828, Note_on_c, 3, 55, 0
5, 9840, Note_on_c, 3, 60, 100
5, 9948, Note_on_c, 3, 60, 0
5, 9960, Note_on_c, 3, 55, 100
5, 10068, Note_on_c, 3, 55, 0
5, 10080, Note_on_c, 3, 60, 100
5, 10188, Note_on_c, 3, 60, 0
5, 10200, Note_on_c, 3, 59, 100
5, 10254, Note_on_c, 3, 59, 0
5, 10260, Note_on_c, 3, 57, 100
5, 10314, Note_on_c, 3, 57, 0
5, 10320, Note_on_c, 3, 55, 100
5, 10428, Note_on_c, 3, 55, 0
5, 10440, Note_on_c, 3, 57, 100
5, 10494, Note_on_c, 3, 57, 0
5, 10500, Note_on_c, 3, 59, 100
5, 10554, Note_on_c, 3, 59, 0
5, 10560, Note_on_c, 3, 60, 100
5, 10668, Note_on_c, 3, 60, 0
5, 10680, Note_on_c, 3, 59, 100
5, 10734, Note_on_c, 3, 59, 0
5, 10740, Note_on_c, 3, 57, 100
5, 10794, Note_on_c, 3, 57, 0
5, 10800, Note_on_c, 3, 55, 100
5, 10908, Note_on_c, 3, 55, 0
5, 10920, Note_on_c, 3, 53, 100
5, 11028, Note_on_c, 3, 53, 0
5, 11040, Note_on_c, 3, 52, 100
5, 11094, Note_on_c, 3, 52, 0
5, 11100, Note_on_c, 3, 53, 100
5, 11154, Note_on_c, 3, 53, 0
5, 11160, Note_on_c, 3, 55, 100
5, 11214, Note_on_c, 3, 55, 0
5, 11220, Note_on_c, 3, 52, 100
5, 11274, Note_on_c, 3, 52, 0
5, 11280, Note_on_c, 3, 48, 100
5, 11334, Note_on_c, 3, 48, 0
5, 11340, Note_on_c, 3, 50, 100
5, 11394, Note_on_c, 3, 50, 0
5, 11400, Note_on_c, 3, 52, 100
5, 11454, Note_on_c, 3, 52, 0
5, 11460, Note_on_c, 3, 54, 100
5, 11514, Note_on_c, 3, 54, 0
5, 11520, Note_on_c, 3, 55, 100
5, 11574, Note_on_c, 3, 55, 0
5, 11580, Note_on_c, 3, 59, 100
5, 11634, Note_on_c, 3, 59, 0
5, 11640, Note_on_c, 3, 57, 100
5, 11694, Note_on_c, 3, 57, 0
5, 11700, Note_on_c, 3, 59, 100
5, 11754, Note_on_c, 3, 59, 0
5, 11760, Note_on_c, 3, 55, 100
5, 11814, Note_on_c, 3, 55, 0
5, 11820, Note_on_c, 3, 59, 100
5, 11874, Note_on_c, 3, 59, 0
5, 11880, Note_on_c, 3, 60, 100
5, 11934, Note_on_c, 3, 60, 0
5, 11940, Note_on_c, 3, 59, 100
5, 11994, Note_on_c, 3, 59, 0
5, 12000, Note_on_c, 3, 55, 100
5, 12108, Note_on_c, 3, 55, 0
5, 12120, Note_on_c, 3, 50, 100
5, 12228, Note_on_c, 3, 50, 0
5, 12360, Note_on_c, 3, 55, 100
5, 12414, Note_on_c, 3, 55, 0
5, 12420, Note_on_c, 3, 50, 100
5, 12474, Note_on_c, 3, 50, 0
5, 12480, Note_on_c, 3, 43, 100
5, 12588, Note_on_c, 3, 43, 0
5, 12600, Note_on_c, 3, 50, 100
5, 12708, Note_on_c, 3, 50, 0
5, 12720, Note_on_c, 3, 38, 100
5, 12828, Note_on_c, 3, 38, 0
5, 12840, Note_on_c, 3, 50, 100
5, 13068, Note_on_c, 3, 50, 0
5, 13080, Note_on_c, 3, 43, 100
5, 13134, Note_on_c, 3, 43, 0
5, 13140, Note_on_c, 3, 45, 100
5, 13194, Note_on_c, 3, 45, 0
5, 13200, Note_on_c, 3, 47, 100
5, 13308, Note_on_c, 3, 47, 0
5, 13320, Note_on_c, 3, 43, 100
5, 13428, Note_on_c, 3, 43, 0
5, 13440, Note_on_c, 3, 48, 100
5, 13548, Note_on_c, 3, 48, 0
5, 13560, Note_on_c, 3, 55, 100
5, 13668, Note_on_c, 3, 55, 0
5, 13680, Note_on_c, 3, 55, 100
5, 13788, Note_on_c, 3, 55, 0
5, 13800, Note_on_c, 3, 48, 100
5, 13908, Note_on_c, 3, 48, 0
5, 14040, Note_on_c, 3, 60, 100
5, 14148, Note_on_c, 3, 60, 0
5, 14160, Note_on_c, 3, 60, 100
5, 14268, Note_on_c, 3, 60, 0
5, 14280, Note_on_c, 3, 54, 100
5, 14388, Note_on_c, 3, 54, 0
5, 14400, Note_on_c, 3, 66, 100
5, 14454, Note_on_c, 3, 66, 0
5, 14460, Note_on_c, 3, 67, 100
5, 14514, Note_on_c, 3, 67, 0
5, 14520, Note_on_c, 3, 69, 100
5, 14574, Note_on_c, 3, 69, 0
5, 14580, Note_on_c, 3, 66, 100
5, 14634, Note_on_c, 3, 66, 0
5, 14640, Note_on_c, 3, 62, 100
5, 14694, Note_on_c, 3, 62, 0
5, 14700, Note_on_c, 3, 64, 100
5, 14754, Note_on_c, 3, 64, 0
5, 14760, Note_on_c, 3, 66, 100
5, 14814, Note_on_c, 3, 66, 0
5, 14820, Note_on_c, 3, 62, 100
5, 14874, Note_on_c, 3, 62, 0
5, 14880, Note_on_c, 3, 59, 100
5, 14934, Note_on_c, 3, 59, 0
5, 14940, Note_on_c, 3, 60, 100
5, 14994, Note_on_c, 3, 60, 0
5, 15000, Note_on_c, 3, 62, 100
5, 15054, Note_on_c, 3, 62, 0
5, 15060, Note_on_c, 3, 59, 100
5, 15114, Note_on_c, 3, 59, 0
5, 15120, Note_on_c, 3, 55, 100
5, 15174, Note_on_c, 3, 55, 0
5, 15180, Note_on_c, 3, 57, 100
5, 15234, Note_on_c, 3, 57, 0
5, 15240, Note_on_c, 3, 59, 100
5, 15294, Note_on_c, 3, 59, 0
5, 15300, Note_on_c, 3, 55, 100
5, 15354, Note_on_c, 3, 55, 0
5, 15360, Note_on_c, 3, 52, 100
5, 15468, Note_on_c, 3, 52, 0
5, 15480, Note_on_c, 3, 45, 100
5, 15588, Note_on_c, 3, 45, 0
5, 15720, Note_on_c, 3, 57, 100
5, 15828, Note_on_c, 3, 57, 0
5, 15840, Note_on_c, 3, 57, 100
5, 15948, Note_on_c, 3, 57, 0
5, 15960, Note_on_c, 3, 50, 100
5, 16068, Note_on_c, 3, 50, 0
5, 16200, Note_on_c, 3, 50, 100
5, 16308, Note_on_c, 3, 50, 0
5, 16320, Note_on_c, 3, 50, 100
5, 16428, Note_on_c, 3, 50, 0
5, 16440, Note_on_c, 3, 38, 100
5, 16548, Note_on_c, 3, 38, 0
5, 16680, Note_on_c, 3, 50, 100
5, 16788, Note_on_c, 3, 50, 0
5, 16800, Note_on_c, 3, 50, 100
5, 16908, Note_on_c, 3, 50, 0
5, 16920, Note_on_c, 3, 38, 100
5, 17028, Note_on_c, 3, 38, 0
5, 17160, Note_on_c, 3, 50, 100
5, 17268, Note_on_c, 3, 50, 0
5, 17280, Note_on_c, 3, 43, 100
5, 17388, Note_on_c, 3, 43, 0
5, 17400, Note_on_c, 3, 50, 100
5, 17508, Note_on_c, 3, 50, 0
5, 17520, Note_on_c, 3, 55, 100
5, 17574, Note_on_c, 3, 55, 0
5, 17580, Note_on_c, 3, 53, 100
5, 17634, Note_on_c, 3, 53, 0
5, 17640, Note_on_c, 3, 52, 100
5, 17694, Note_on_c, 3, 52, 0
5, 17700, Note_on_c, 3, 50, 100
5, 17754, Note_on_c, 3, 50, 0
5, 17760, Note_on_c, 3, 48, 100
5, 17868, Note_on_c, 3, 48, 0
5, 17880, Note_on_c, 3, 60, 100
5, 17988, Note_on_c, 3, 60, 0
5, 18060, Note_on_c, 3, 59, 100
5, 18114, Note_on_c, 3, 59, 0
5, 18120, Note_on_c, 3, 57, 100
5, 18174, Note_on_c, 3, 57, 0
5, 18180, Note_on_c, 3, 55, 100
5, 18234, Note_on_c, 3, 55, 0
5, 18240, Note_on_c, 3, 54, 100
5, 18294, Note_on_c, 3, 54, 0
5, 18300, Note_on_c, 3, 55, 100
5, 18354, Note_on_c, 3, 55, 0
5, 18360, Note_on_c, 3, 57, 100
5, 18414, Note_on_c, 3, 57, 0
5, 18420, Note_on_c, 3, 54, 100
5, 18474, Note_on_c, 3, 54, 0
5, 18480, Note_on_c, 3, 50, 100
5, 18534, Note_on_c, 3, 50, 0
5, 18540, Note_on_c, 3, 52, 100
5, 18594, Note_on_c, 3, 52, 0
5, 18600, Note_on_c, 3, 54, 100
5, 18654, Note_on_c, 3, 54, 0
5, 18660, Note_on_c, 3, 50, 100
5, 18714, Note_on_c, 3, 50, 0
5, 18720, Note_on_c, 3, 55, 100
5, 18828, Note_on_c, 3, 55, 0
5, 18840, Note_on_c, 3, 48, 100
5, 18948, Note_on_c, 3, 48, 0
5, 18960, Note_on_c, 3, 50, 100
5, 19068, Note_on_c, 3, 50, 0
5, 19080, Note_on_c, 3, 38, 100
5, 19188, Note_on_c, 3, 38, 0
5, 19200, Note_on_c, 3, 43, 100
5, 19254, Note_on_c, 3, 43, 0
5, 19260, Note_on_c, 3, 62, 100
5, 19314, Note_on_c, 3, 62, 0
5, 19320, Note_on_c, 3, 60, 100
5, 19374, Note_on_c, 3, 60, 0
5, 19380, Note_on_c, 3, 59, 100
5, 19434, Note_on_c, 3, 59, 0
5, 19440, Note_on_c, 3, 57, 100
5, 19494, Note_on_c, 3, 57, 0
5, 19500, Note_on_c, 3, 55, 100
5, 19554, Note_on_c, 3, 55, 0
5, 19560, Note_on_c, 3, 54, 100
5, 19614, Note_on_c, 3, 54, 0
5, 19620, Note_on_c, 3, 52, 100
5, 19674, Note_on_c, 3, 52, 0
5, 19680, Note_on_c, 3, 50, 100
5, 19734, Note_on_c, 3, 50, 0
5, 19740, Note_on_c, 3, 48, 100
5, 19794, Note_on_c, 3, 48, 0
5, 19800, Note_on_c, 3, 47, 100
5, 19854, Note_on_c, 3, 47, 0
5, 19860, Note_on_c, 3, 45, 100
5, 19914, Note_on_c, 3, 45, 0
5, 19920, Note_on_c, 3, 43, 100
5, 20028, Note_on_c, 3, 43, 0
5, 20040, Note_on_c, 3, 55, 100
5, 20148, Note_on_c, 3, 55, 0
5, 20160, Note_on_c, 3, 60, 100
5, 20268, Note_on_c, 3, 60, 0
5, 20280, Note_on_c, 3, 55, 100
5, 20280, Note_on_c, 3, 64, 100
5, 20388, Note_on_c, 3, 64, 0
5, 20388, Note_on_c, 3, 55, 0
5, 20400, Note_on_c, 3, 60, 100
5, 20508, Note_on_c, 3, 60, 0
5, 20520, Note_on_c, 3, 55, 100
5, 20520, Note_on_c, 3, 62, 100
5, 20628, Note_on_c, 3, 62, 0
5, 20628, Note_on_c, 3, 55, 0
5, 20640, Note_on_c, 3, 64, 100
5, 20640, Note_on_c, 3, 60, 100
5, 20748, Note_on_c, 3, 64, 0
5, 20856, Note_on_c, 3, 60, 0
5, 21000, Note_on_c, 3, 52, 100
5, 21000, Note_on_c, 3, 59, 100
5, 21108, Note_on_c, 3, 59, 0
5, 21108, Note_on_c, 3, 52, 0
5, 21120, Note_on_c, 3, 57, 100
5, 21228, Note_on_c, 3, 57, 0
5, 21240, Note_on_c, 3, 52, 100
5, 21240, Note_on_c, 3, 60, 100
5, 21348, Note_on_c, 3, 60, 0
5, 21348, Note_on_c, 3, 52, 0
5, 21360, Note_on_c, 3, 57, 100
5, 21468, Note_on_c, 3, 57, 0
5, 21480, Note_on_c, 3, 52, 100
5, 21480, Note_on_c, 3, 59, 100
5, 21588, Note_on_c, 3, 59, 0
5, 21588, Note_on_c, 3, 52, 0
5, 21600, Note_on_c, 3, 57, 100
5, 21600, Note_on_c, 3, 60, 100
5, 21816, Note_on_c, 3, 60, 0
5, 21816, Note_on_c, 3, 57, 0
5, 21960, Note_on_c, 3, 57, 100
5, 21960, Note_on_c, 3, 69, 100
5, 22068, Note_on_c, 3, 69, 0
5, 22068, Note_on_c, 3, 57, 0
5, 22080, Note_on_c, 3, 62, 100
5, 22080, Note_on_c, 3, 65, 100
5, 22188, Note_on_c, 3, 65, 0
5, 22188, Note_on_c, 3, 62, 0
5, 22200, Note_on_c, 3, 57, 100
5, 22200, Note_on_c, 3, 65, 100
5, 22308, Note_on_c, 3, 65, 0
5, 22308, Note_on_c, 3, 57, 0
5, 22320, Note_on_c, 3, 62, 100
5, 22428, Note_on_c, 3, 62, 0
5, 22440, Note_on_c, 3, 57, 100
5, 22440, Note_on_c, 3, 64, 100
5, 22548, Note_on_c, 3, 64, 0
5, 22548, Note_on_c, 3, 57, 0
5, 22560, Note_on_c, 3, 62, 100
5, 22560, Note_on_c, 3, 65, 100
5, 22668, Note_on_c, 3, 65, 0
5, 22668, Note_on_c, 3, 62, 0
5, 22860, Note_on_c, 3, 59, 100
5, 22914, Note_on_c, 3, 59, 0
5, 22920, Note_on_c, 3, 60, 100
5, 22974, Note_on_c, 3, 60, 0
5, 22980, Note_on_c, 3, 62, 100
5, 23034, Note_on_c, 3, 62, 0
5, 23040, Note_on_c, 3, 55, 100
5, 23148, Note_on_c, 3, 55, 0
5, 23340, Note_on_c, 3, 62, 100
5, 23394, Note_on_c, 3, 62, 0
5, 23400, Note_on_c, 3, 60, 100
5, 23454, Note_on_c, 3, 60, 0
5, 23460, Note_on_c, 3, 59, 100
5, 23514, Note_on_c, 3, 59, 0
5, 23520, Note_on_c, 3, 57, 100
5, 23628, Note_on_c, 3, 57, 0
5, 23820, Note_on_c, 3, 59, 100
5, 23874, Note_on_c, 3, 59, 0
5, 23880, Note_on_c, 3, 57, 100
5, 23934, Note_on_c, 3, 57, 0
5, 23940, Note_on_c, 3, 56, 100
5, 23994, Note_on_c, 3, 56, 0
5, 24000, Note_on_c, 3, 64, 100
5, 24108, Note_on_c, 3, 64, 0
5, 24300, Note_on_c, 3, 60, 100
5, 24354, Note_on_c, 3, 60, 0
5, 24360, Note_on_c, 3, 62, 100
5, 24414, Note_on_c, 3, 62, 0
5, 24420, Note_on_c, 3, 64, 100
5, 24474, Note_on_c, 3, 64, 0
5, 24480, Note_on_c, 3, 65, 100
5, 24588, Note_on_c, 3, 65, 0
5, 24780, Note_on_c, 3, 55, 100
5, 24834, Note_on_c, 3, 55, 0
5, 24840, Note_on_c, 3, 53, 100
5, 24894, Note_on_c, 3, 53, 0
5, 24900, Note_on_c, 3, 52, 100
5, 24954, Note_on_c, 3, 52, 0
5, 24960, Note_on_c, 3, 60, 100
5, 25068, Note_on_c, 3, 60, 0
5, 25260, Note_on_c, 3, 57, 100
5, 25314, Note_on_c, 3, 57, 0
5, 25320, Note_on_c, 3, 59, 100
5, 25374, Note_on_c, 3, 59, 0
5, 25380, Note_on_c, 3, 60, 100
5, 25434, Note_on_c, 3, 60, 0
5, 25440, Note_on_c, 3, 62, 100
5, 25548, Note_on_c, 3, 62, 0
5, 25740, Note_on_c, 3, 52, 100
5, 25794, Note_on_c, 3, 52, 0
5, 25800, Note_on_c, 3, 53, 100
5, 25854, Note_on_c, 3, 53, 0
5, 25860, Note_on_c, 3, 55, 100
5, 25914, Note_on_c, 3, 55, 0
5, 25920, Note_on_c, 3, 57, 100
5, 26028, Note_on_c, 3, 57, 0
5, 26220, Note_on_c, 3, 55, 100
5, 26274, Note_on_c, 3, 55, 0
5, 26280, Note_on_c, 3, 57, 100
5, 26334, Note_on_c, 3, 57, 0
5, 26340, Note_on_c, 3, 59, 100
5, 26394, Note_on_c, 3, 59, 0
5, 26400, Note_on_c, 3, 60, 100
5, 26508, Note_on_c, 3, 60, 0
5, 26700, Note_on_c, 3, 58, 100
5, 26754, Note_on_c, 3, 58, 0
5, 26760, Note_on_c, 3, 57, 100
5, 26814, Note_on_c, 3, 57, 0
5, 26820, Note_on_c, 3, 55, 100
5, 26874, Note_on_c, 3, 55, 0
5, 26880, Note_on_c, 3, 53, 100
5, 26988, Note_on_c, 3, 53, 0
5, 27000, Note_on_c, 3, 52, 100
5, 27108, Note_on_c, 3, 52, 0
5, 27120, Note_on_c, 3, 53, 100
5, 27228, Note_on_c, 3, 53, 0
5, 27240, Note_on_c, 3, 50, 100
5, 27348, Note_on_c, 3, 50, 0
5, 27360, Note_on_c, 3, 55, 100
5, 27468, Note_on_c, 3, 55, 0
5, 27480, Note_on_c, 3, 43, 100
5, 27588, Note_on_c, 3, 43, 0
5, 27660, Note_on_c, 3, 65, 100
5, 27714, Note_on_c, 3, 65, 0
5, 27720, Note_on_c, 3, 64, 100
5, 27774, Note_on_c, 3, 64, 0
5, 27780, Note_on_c, 3, 62, 100
5, 27834, Note_on_c, 3, 62, 0
5, 27840, Note_on_c, 3, 60, 100
5, 27948, Note_on_c, 3, 60, 0
5, 27960, Note_on_c, 3, 55, 100
5, 28068, Note_on_c, 3, 55, 0
5, 28080, Note_on_c, 3, 60, 100
5, 28188, Note_on_c, 3, 60, 0
5, 28200, Note_on_c, 3, 55, 100
5, 28308, Note_on_c, 3, 55, 0
5, 28320, Note_on_c, 3, 60, 100
5, 28428, Note_on_c, 3, 60, 0
5, 28440, Note_on_c, 3, 59, 100
5, 28494, Note_on_c, 3, 59, 0
5, 28500, Note_on_c, 3, 57, 100
5, 28554, Note_on_c, 3, 57, 0
5, 28560, Note_on_c, 3, 55, 100
5, 28668, Note_on_c, 3, 55, 0
5, 28680, Note_on_c, 3, 57, 100
5, 28734, Note_on_c, 3, 57, 0
5, 28740, Note_on_c, 3, 59, 100
5, 28794, Note_on_c, 3, 59, 0
5, 28800, Note_on_c, 3, 60, 100
5, 28908, Note_on_c, 3, 60, 0
5, 28920, Note_on_c, 3, 59, 100
5, 28974, Note_on_c, 3, 59, 0
5, 28980, Note_on_c, 3, 57, 100
5, 29034, Note_on_c, 3, 57, 0
5, 29040, Note_on_c, 3, 55, 100
5, 29148, Note_on_c, 3, 55, 0
5, 29160, Note_on_c, 3, 53, 100
5, 29268, Note_on_c, 3, 53, 0
5, 29280, Note_on_c, 3, 52, 100
5, 29388, Note_on_c, 3, 52, 0
5, 29400, Note_on_c, 3, 60, 100
5, 29508, Note_on_c, 3, 60, 0
5, 29580, Note_on_c, 3, 48, 100
5, 29634, Note_on_c, 3, 48, 0
5, 29640, Note_on_c, 3, 52, 100
5, 29694, Note_on_c, 3, 52, 0
5, 29700, Note_on_c, 3, 55, 100
5, 29754, Note_on_c, 3, 55, 0
5, 29760, Note_on_c, 3, 53, 100
5, 29868, Note_on_c, 3, 53, 0
5, 29880, Note_on_c, 3, 41, 100
5, 29988, Note_on_c, 3, 41, 0
5, 30060, Note_on_c, 3, 53, 100
5, 30114, Note_on_c, 3, 53, 0
5, 30120, Note_on_c, 3, 57, 100
5, 30174, Note_on_c, 3, 57, 0
5, 30180, Note_on_c, 3, 60, 100
5, 30234, Note_on_c, 3, 60, 0
5, 30240, Note_on_c, 3, 54, 100
5, 30348, Note_on_c, 3, 54, 0
5, 30360, Note_on_c, 3, 62, 100
5, 30468, Note_on_c, 3, 62, 0
5, 30540, Note_on_c, 3, 50, 100
5, 30594, Note_on_c, 3, 50, 0
5, 30600, Note_on_c, 3, 54, 100
5, 30654, Note_on_c, 3, 54, 0
5, 30660, Note_on_c, 3, 57, 100
5, 30714, Note_on_c, 3, 57, 0
5, 30720, Note_on_c, 3, 55, 100
5, 30828, Note_on_c, 3, 55, 0
5, 30840, Note_on_c, 3, 43, 100
5, 30948, Note_on_c, 3, 43, 0
5, 31020, Note_on_c, 3, 55, 100
5, 31074, Note_on_c, 3, 55, 0
5, 31080, Note_on_c, 3, 59, 100
5, 31134, Note_on_c, 3, 59, 0
5, 31140, Note_on_c, 3, 62, 100
5, 31194, Note_on_c, 3, 62, 0
5, 31200, Note_on_c, 3, 56, 100
5, 31308, Note_on_c, 3, 56, 0
5, 31320, Note_on_c, 3, 64, 100
5, 31428, Note_on_c, 3, 64, 0
5, 31500, Note_on_c, 3, 52, 100
5, 31554, Note_on_c, 3, 52, 0
5, 31560, Note_on_c, 3, 56, 100
5, 31614, Note_on_c, 3, 56, 0
5, 31620, Note_on_c, 3, 59, 100
5, 31674, Note_on_c, 3, 59, 0
5, 31680, Note_on_c, 3, 57, 100
5, 31788, Note_on_c, 3, 57, 0
5, 31800, Note_on_c, 3, 45, 100
5, 31908, Note_on_c, 3, 45, 0
5, 31980, Note_on_c, 3, 57, 100
5, 32034, Note_on_c, 3, 57, 0
5, 32040, Note_on_c, 3, 60, 100
5, 32094, Note_on_c, 3, 60, 0
5, 32100, Note_on_c, 3, 64, 100
5, 32154, Note_on_c, 3, 64, 0
5, 32160, Note_on_c, 3, 57, 100
5, 32268, Note_on_c, 3, 57, 0
5, 32280, Note_on_c, 3, 65, 100
5, 32388, Note_on_c, 3, 65, 0
5, 32460, Note_on_c, 3, 57, 100
5, 32514, Note_on_c, 3, 57, 0
5, 32520, Note_on_c, 3, 60, 100
5, 32574, Note_on_c, 3, 60, 0
5, 32580, Note_on_c, 3, 65, 100
5, 32634, Note_on_c, 3, 65, 0
5, 32640, Note_on_c, 3, 59, 100
5, 32748, Note_on_c, 3, 59, 0
5, 32760, Note_on_c, 3, 67, 100
5, 32868, Note_on_c, 3, 67, 0
5, 32940, Note_on_c, 3, 59, 100
5, 32994, Note_on_c, 3, 59, 0
5, 33000, Note_on_c, 3, 62, 100
5, 33054, Note_on_c, 3, 62, 0
5, 33060, Note_on_c, 3, 67, 100
5, 33114, Note_on_c, 3, 67, 0
5, 33120, Note_on_c, 3, 60, 100
5, 33228, Note_on_c, 3, 60, 0
5, 33240, Note_on_c, 3, 67, 100
5, 33348, Note_on_c, 3, 67, 0
5, 33420, Note_on_c, 3, 60, 100
5, 33474, Note_on_c, 3, 60, 0
5, 33480, Note_on_c, 3, 64, 100
5, 33534, Note_on_c, 3, 64, 0
5, 33540, Note_on_c, 3, 67, 100
5, 33594, Note_on_c, 3, 67, 0
5, 33600, Note_on_c, 3, 54, 100
5, 33708, Note_on_c, 3, 54, 0
5, 33720, Note_on_c, 3, 60, 100
5, 33828, Note_on_c, 3, 60, 0
5, 33900, Note_on_c, 3, 57, 100
5, 33954, Note_on_c, 3, 57, 0
5, 33960, Note_on_c, 3, 60, 100
5, 34014, Note_on_c, 3, 60, 0
5, 34020, Note_on_c, 3, 63, 100
5, 34074, Note_on_c, 3, 63, 0
5, 34080, Note_on_c, 3, 54, 100
5, 34188, Note_on_c, 3, 54, 0
5, 34200, Note_on_c, 3, 62, 100
5, 34308, Note_on_c, 3, 62, 0
5, 34380, Note_on_c, 3, 54, 100
5, 34434, Note_on_c, 3, 54, 0
5, 34440, Note_on_c, 3, 57, 100
5, 34494, Note_on_c, 3, 57, 0
5, 34500, Note_on_c, 3, 62, 100
5, 34554, Note_on_c, 3, 62, 0
5, 34560, Note_on_c, 3, 55, 100
5, 34854, Note_on_c, 3, 55, 0
5, 34860, Note_on_c, 3, 53, 100
5, 34887, Note_on_c, 3, 53, 0
5, 34890, Note_on_c, 3, 52, 100
5, 34917, Note_on_c, 3, 52, 0
5, 34920, Note_on_c, 3, 50, 100
5, 34974, Note_on_c, 3, 50, 0
5, 34980, Note_on_c, 3, 48, 100
5, 35034, Note_on_c, 3, 48, 0
5, 35040, Note_on_c, 3, 47, 100
5, 35094, Note_on_c, 3, 47, 0
5, 35100, Note_on_c, 3, 48, 100
5, 35154, Note_on_c, 3, 48, 0
5, 35160, Note_on_c, 3, 50, 100
5, 35214, Note_on_c, 3, 50, 0
5, 35220, Note_on_c, 3, 47, 100
5, 35274, Note_on_c, 3, 47, 0
5, 35280, Note_on_c, 3, 43, 100
5, 35334, Note_on_c, 3, 43, 0
5, 35340, Note_on_c, 3, 47, 100
5, 35394, Note_on_c, 3, 47, 0
5, 35400, Note_on_c, 3, 50, 100
5, 35454, Note_on_c, 3, 50, 0
5, 35460, Note_on_c, 3, 53, 100
5, 35514, Note_on_c, 3, 53, 0
5, 35520, Note_on_c, 3, 48, 100
5, 35574, Note_on_c, 3, 48, 0
5, 35580, Note_on_c, 3, 50, 100
5, 35634, Note_on_c, 3, 50, 0
5, 35640, Note_on_c, 3, 52, 100
5, 35694, Note_on_c, 3, 52, 0
5, 35700, Note_on_c, 3, 48, 100
5, 35754, Note_on_c, 3, 48, 0
5, 35760, Note_on_c, 3, 43, 100
5, 35814, Note_on_c, 3, 43, 0
5, 35820, Note_on_c, 3, 48, 100
5, 35874, Note_on_c, 3, 48, 0
5, 35880, Note_on_c, 3, 52, 100
5, 35934, Note_on_c, 3, 52, 0
5, 35940, Note_on_c, 3, 55, 100
5, 35994, Note_on_c, 3, 55, 0
5, 36000, Note_on_c, 3, 54, 100
5, 36054, Note_on_c, 3, 54, 0
5, 36060, Note_on_c, 3, 55, 100
5, 36114, Note_on_c, 3, 55, 0
5, 36120, Note_on_c, 3, 57, 100
5, 36174, Note_on_c, 3, 57, 0
5, 36180, Note_on_c, 3, 54, 100
5, 36234, Note_on_c, 3, 54, 0
5, 36240, Note_on_c, 3, 43, 100
5, 36294, Note_on_c, 3, 43, 0
5, 36300, Note_on_c, 3, 48, 100
5, 36354, Note_on_c, 3, 48, 0
5, 36360, Note_on_c, 3, 54, 100
5, 36414, Note_on_c, 3, 54, 0
5, 36420, Note_on_c, 3, 57, 100
5, 36474, Note_on_c, 3, 57, 0
5, 36480, Note_on_c, 3, 55, 100
5, 36534, Note_on_c, 3, 55, 0
5, 36540, Note_on_c, 3, 57, 100
5, 36594, Note_on_c, 3, 57, 0
5, 36600, Note_on_c, 3, 59, 100
5, 36654, Note_on_c, 3, 59, 0
5, 36660, Note_on_c, 3, 57, 100
5, 36714, Note_on_c, 3, 57, 0
5, 36720, Note_on_c, 3, 55, 100
5, 36774, Note_on_c, 3, 55, 0
5, 36780, Note_on_c, 3, 53, 100
5, 36834, Note_on_c, 3, 53, 0
5, 36840, Note_on_c, 3, 52, 100
5, 36894, Note_on_c, 3, 52, 0
5, 36900, Note_on_c, 3, 50, 100
5, 36954, Note_on_c, 3, 50, 0
5, 36960, Note_on_c, 3, 48, 100
5, 37068, Note_on_c, 3, 48, 0
5, 37080, Note_on_c, 3, 50, 100
5, 37134, Note_on_c, 3, 50, 0
5, 37140, Note_on_c, 3, 52, 100
5, 37194, Note_on_c, 3, 52, 0
5, 37200, Note_on_c, 3, 53, 100
5, 37254, Note_on_c, 3, 53, 0
5, 37260, Note_on_c, 3, 55, 100
5, 37314, Note_on_c, 3, 55, 0
5, 37320, Note_on_c, 3, 57, 100
5, 37374, Note_on_c, 3, 57, 0
5, 37380, Note_on_c, 3, 59, 100
5, 37434, Note_on_c, 3, 59, 0
5, 37440, Note_on_c, 3, 60, 100
5, 37548, Note_on_c, 3, 60, 0
5, 37560, Note_on_c, 3, 55, 100
5, 37668, Note_on_c, 3, 55, 0
5, 37680, Note_on_c, 3, 60, 100
5, 37788, Note_on_c, 3, 60, 0
5, 37800, Note_on_c, 3, 55, 100
5, 37908, Note_on_c, 3, 55, 0
5, 37920, Note_on_c, 3, 60, 100
5, 38028, Note_on_c, 3, 60, 0
5, 38040, Note_on_c, 3, 59, 100
5, 38094, Note_on_c, 3, 59, 0
5, 38100, Note_on_c, 3, 57, 100
5, 38154, Note_on_c, 3, 57, 0
5, 38160, Note_on_c, 3, 55, 100
5, 38268, Note_on_c, 3, 55, 0
5, 38280, Note_on_c, 3, 57, 100
5, 38334, Note_on_c, 3, 57, 0
5, 38340, Note_on_c, 3, 59, 100
5, 38394, Note_on_c, 3, 59, 0
5, 38400, Note_on_c, 3, 60, 100
5, 38508, Note_on_c, 3, 60, 0
5, 38520, Note_on_c, 3, 59, 100
5, 38574, Note_on_c, 3, 59, 0
5, 38580, Note_on_c, 3, 57, 100
5, 38634, Note_on_c, 3, 57, 0
5, 38640, Note_on_c, 3, 55, 100
5, 38748, Note_on_c, 3, 55, 0
5, 38760, Note_on_c, 3, 53, 100
5, 38868, Note_on_c, 3, 53, 0
5, 38880, Note_on_c, 3, 52, 100
5, 38934, Note_on_c, 3, 52, 0
5, 38940, Note_on_c, 3, 53, 100
5, 38994, Note_on_c, 3, 53, 0
5, 39000, Note_on_c, 3, 55, 100
5, 39054, Note_on_c, 3, 55, 0
5, 39060, Note_on_c, 3, 52, 100
5, 39114, Note_on_c, 3, 52, 0
5, 39120, Note_on_c, 3, 48, 100
5, 39174, Note_on_c, 3, 48, 0
5, 39180, Note_on_c, 3, 50, 100
5, 39234, Note_on_c, 3, 50, 0
5, 39240, Note_on_c, 3, 52, 100
5, 39294, Note_on_c, 3, 52, 0
5, 39300, Note_on_c, 3, 53, 100
5, 39354, Note_on_c, 3, 53, 0
5, 39360, Note_on_c, 3, 55, 100
5, 39576, Note_on_c, 3, 55, 0
5, 39600, Note_on_c, 3, 43, 100
5, 39816, Note_on_c, 3, 43, 0
5, 39840, Note_on_c, 3, 48, 100
5, 40056, Note_on_c, 3, 48, 0
5, 40320, Note_on_c, 3, 60, 100
5, 40374, Note_on_c, 3, 60, 0
5, 40380, Note_on_c, 3, 64, 100
5, 40434, Note_on_c, 3, 64, 0
5, 40440, Note_on_c, 3, 69, 100
5, 40494, Note_on_c, 3, 69, 0
5, 40500, Note_on_c, 3, 68, 100
5, 40554, Note_on_c, 3, 68, 0
5, 40560, Note_on_c, 3, 69, 100
5, 40614, Note_on_c, 3, 69, 0
5, 40620, Note_on_c, 3, 64, 100
5, 40674, Note_on_c, 3, 64, 0
5, 40680, Note_on_c, 3, 65, 100
5, 40734, Note_on_c, 3, 65, 0
5, 40740, Note_on_c, 3, 62, 100
5, 40794, Note_on_c, 3, 62, 0
5, 40800, Note_on_c, 3, 59, 100
5, 40854, Note_on_c, 3, 59, 0
5, 40860, Note_on_c, 3, 65, 100
5, 40914, Note_on_c, 3, 65, 0
5, 40920, Note_on_c, 3, 64, 100
5, 40974, Note_on_c, 3, 64, 0
5, 40980, Note_on_c, 3, 62, 100
5, 41034, Note_on_c, 3, 62, 0
5, 41040, Note_on_c, 3, 64, 100
5, 41094, Note_on_c, 3, 64, 0
5, 41100, Note_on_c, 3, 59, 100
5, 41154, Note_on_c, 3, 59, 0
5, 41160, Note_on_c, 3, 60, 100
5, 41214, Note_on_c, 3, 60, 0
5, 41220, Note_on_c, 3, 57, 100
5, 41274, Note_on_c, 3, 57, 0
5, 41280, Note_on_c, 3, 65, 100
5, 41334, Note_on_c, 3, 65, 0
5, 41340, Note_on_c, 3, 59, 100
5, 41394, Note_on_c, 3, 59, 0
5, 41400, Note_on_c, 3, 60, 100
5, 41454, Note_on_c, 3, 60, 0
5, 41460, Note_on_c, 3, 57, 100
5, 41514, Note_on_c, 3, 57, 0
5, 41520, Note_on_c, 3, 52, 100
5, 41574, Note_on_c, 3, 52, 0
5, 41580, Note_on_c, 3, 59, 100
5, 41634, Note_on_c, 3, 59, 0
5, 41640, Note_on_c, 3, 57, 100
5, 41694, Note_on_c, 3, 57, 0
5, 41700, Note_on_c, 3, 56, 100
5, 41754, Note_on_c, 3, 56, 0
5, 41760, Note_on_c, 3, 57, 100
5, 41868, Note_on_c, 3, 57, 0
5, 41880, Note_on_c, 3, 45, 100
5, 41988, Note_on_c, 3, 45, 0
5, 42060, Note_on_c, 3, 57, 100
5, 42114, Note_on_c, 3, 57, 0
5, 42120, Note_on_c, 3, 59, 100
5, 42174, Note_on_c, 3, 59, 0
5, 42180, Note_on_c, 3, 61, 100
5, 42234, Note_on_c, 3, 61, 0
5, 42240, Note_on_c, 3, 62, 100
5, 42348, Note_on_c, 3, 62, 0
5, 42360, Note_on_c, 3, 57, 100
5, 42468, Note_on_c, 3, 57, 0
5, 42480, Note_on_c, 3, 53, 100
5, 42588, Note_on_c, 3, 53, 0
5, 42600, Note_on_c, 3, 50, 100
5, 42708, Note_on_c, 3, 50, 0
5, 42720, Note_on_c, 3, 57, 100
5, 42828, Note_on_c, 3, 57, 0
5, 42840, Note_on_c, 3, 52, 100
5, 42948, Note_on_c, 3, 52, 0
5, 42960, Note_on_c, 3, 53, 100
5, 43068, Note_on_c, 3, 53, 0
5, 43080, Note_on_c, 3, 58, 100
5, 43134, Note_on_c, 3, 58, 0
5, 43140, Note_on_c, 3, 57, 100
5, 43194, Note_on_c, 3, 57, 0
5, 43200, Note_on_c, 3, 55, 100
5, 43254, Note_on_c, 3, 55, 0
5, 43260, Note_on_c, 3, 58, 100
5, 43314, Note_on_c, 3, 58, 0
5, 43320, Note_on_c, 3, 57, 100
5, 43374, Note_on_c, 3, 57, 0
5, 43380, Note_on_c, 3, 53, 100
5, 43434, Note_on_c, 3, 53, 0
5, 43440, Note_on_c, 3, 52, 100
5, 43548, Note_on_c, 3, 52, 0
5, 43560, Note_on_c, 3, 57, 100
5, 43614, Note_on_c, 3, 57, 0
5, 43620, Note_on_c, 3, 55, 100
5, 43674, Note_on_c, 3, 55, 0
5, 43680, Note_on_c, 3, 53, 100
5, 43788, Note_on_c, 3, 53, 0
5, 43800, Note_on_c, 3, 50, 100
5, 43854, Note_on_c, 3, 50, 0
5, 43860, Note_on_c, 3, 52, 100
5, 43914, Note_on_c, 3, 52, 0
5, 43920, Note_on_c, 3, 53, 100
5, 43974, Note_on_c, 3, 53, 0
5, 43980, Note_on_c, 3, 52, 100
5, 44034, Note_on_c, 3, 52, 0
5, 44040, Note_on_c, 3, 53, 100
5, 44094, Note_on_c, 3, 53, 0
5, 44100, Note_on_c, 3, 50, 100
5, 44154, Note_on_c, 3, 50, 0
5, 44160, Note_on_c, 3, 62, 100
5, 44268, Note_on_c, 3, 62, 0
5, 44280, Note_on_c, 3, 59, 100
5, 44388, Note_on_c, 3, 59, 0
5, 44400, Note_on_c, 3, 55, 100
5, 44508, Note_on_c, 3, 55, 0
5, 44520, Note_on_c, 3, 59, 100
5, 44628, Note_on_c, 3, 59, 0
5, 44640, Note_on_c, 3, 60, 100
5, 44694, Note_on_c, 3, 60, 0
5, 44700, Note_on_c, 3, 59, 100
5, 44754, Note_on_c, 3, 59, 0
5, 44760, Note_on_c, 3, 60, 100
5, 44814, Note_on_c, 3, 60, 0
5, 44820, Note_on_c, 3, 62, 100
5, 44874, Note_on_c, 3, 62, 0
5, 44880, Note_on_c, 3, 64, 100
5, 44988, Note_on_c, 3, 64, 0
5, 45000, Note_on_c, 3, 52, 100
5, 45108, Note_on_c, 3, 52, 0
5, 45120, Note_on_c, 3, 59, 100
5, 45228, Note_on_c, 3, 59, 0
5, 45240, Note_on_c, 3, 47, 100
5, 45348, Note_on_c, 3, 47, 0
5, 45420, Note_on_c, 3, 55, 100
5, 45474, Note_on_c, 3, 55, 0
5, 45480, Note_on_c, 3, 57, 100
5, 45507, Note_on_c, 3, 57, 0
5, 45510, Note_on_c, 3, 59, 100
5, 45537, Note_on_c, 3, 59, 0
5, 45540, Note_on_c, 3, 60, 100
5, 45594, Note_on_c, 3, 60, 0
5, 45600, Note_on_c, 3, 51, 100
5, 45654, Note_on_c, 3, 51, 0
5, 45660, Note_on_c, 3, 54, 100
5, 45714, Note_on_c, 3, 54, 0
5, 45720, Note_on_c, 3, 59, 100
5, 45774, Note_on_c, 3, 59, 0
5, 45780, Note_on_c, 3, 54, 100
5, 45834, Note_on_c, 3, 54, 0
5, 45840, Note_on_c, 3, 55, 100
5, 45948, Note_on_c, 3, 55, 0
5, 45960, Note_on_c, 3, 67, 100
5, 46068, Note_on_c, 3, 67, 0
5, 46080, Note_on_c, 3, 69, 100
5, 46188, Note_on_c, 3, 69, 0
5, 46200, Note_on_c, 3, 67, 100
5, 46308, Note_on_c, 3, 67, 0
5, 46320, Note_on_c, 3, 69, 100
5, 46428, Note_on_c, 3, 69, 0
5, 46440, Note_on_c, 3, 71, 100
5, 46548, Note_on_c, 3, 71, 0
5, 46560, Note_on_c, 3, 64, 100
5, 46668, Note_on_c, 3, 64, 0
5, 46680, Note_on_c, 3, 59, 100
5, 46788, Note_on_c, 3, 59, 0
5, 46800, Note_on_c, 3, 55, 100
5, 46908, Note_on_c, 3, 55, 0
5, 46920, Note_on_c, 3, 64, 100
5, 47028, Note_on_c, 3, 64, 0
5, 47040, Note_on_c, 3, 60, 100
5, 47094, Note_on_c, 3, 60, 0
5, 47100, Note_on_c, 3, 64, 100
5, 47154, Note_on_c, 3, 64, 0
5, 47160, Note_on_c, 3, 57, 100
5, 47214, Note_on_c, 3, 57, 0
5, 47220, Note_on_c, 3, 59, 100
5, 47274, Note_on_c, 3, 59, 0
5, 47280, Note_on_c, 3, 60, 100
5, 47334, Note_on_c, 3, 60, 0
5, 47340, Note_on_c, 3, 59, 100
5, 47394, Note_on_c, 3, 59, 0
5, 47400, Note_on_c, 3, 57, 100
5, 47454, Note_on_c, 3, 57, 0
5, 47460, Note_on_c, 3, 60, 100
5, 47514, Note_on_c, 3, 60, 0
5, 47520, Note_on_c, 3, 66, 100
5, 47574, Note_on_c, 3, 66, 0
5, 47580, Note_on_c, 3, 69, 100
5, 47634, Note_on_c, 3, 69, 0
5, 47640, Note_on_c, 3, 62, 100
5, 47694, Note_on_c, 3, 62, 0
5, 47700, Note_on_c, 3, 64, 100
5, 47754, Note_on_c, 3, 64, 0
5, 47760, Note_on_c, 3, 66, 100
5, 47814, Note_on_c, 3, 66, 0
5, 47820, Note_on_c, 3, 64, 100
5, 47874, Note_on_c, 3, 64, 0
5, 47880, Note_on_c, 3, 62, 100
5, 47934, Note_on_c, 3, 62, 0
5, 47940, Note_on_c, 3, 66, 100
5, 47994, Note_on_c, 3, 66, 0
5, 48000, Note_on_c, 3, 67, 100
5, 48054, Note_on_c, 3, 67, 0
5, 48060, Note_on_c, 3, 55, 100
5, 48114, Note_on_c, 3, 55, 0
5, 48120, Note_on_c, 3, 59, 100
5, 48174, Note_on_c, 3, 59, 0
5, 48180, Note_on_c, 3, 62, 100
5, 48234, Note_on_c, 3, 62, 0
5, 48240, Note_on_c, 3, 67, 100
5, 48294, Note_on_c, 3, 67, 0
5, 48300, Note_on_c, 3, 66, 100
5, 48354, Note_on_c, 3, 66, 0
5, 48360, Note_on_c, 3, 64, 100
5, 48414, Note_on_c, 3, 64, 0
5, 48420, Note_on_c, 3, 62, 100
5, 48474, Note_on_c, 3, 62, 0
5, 48480, Note_on_c, 3, 64, 100
5, 48588, Note_on_c, 3, 64, 0
5, 48600, Note_on_c, 3, 67, 100
5, 48708, Note_on_c, 3, 67, 0
5, 48720, Note_on_c, 3, 64, 100
5, 48828, Note_on_c, 3, 64, 0
5, 48840, Note_on_c, 3, 60, 100
5, 48948, Note_on_c, 3, 60, 0
5, 48960, Note_on_c, 3, 57, 100
5, 49068, Note_on_c, 3, 57, 0
5, 49080, Note_on_c, 3, 60, 100
5, 49188, Note_on_c, 3, 60, 0
5, 49200, Note_on_c, 3, 54, 100
5, 49254, Note_on_c, 3, 54, 0
5, 49260, Note_on_c, 3, 55, 100
5, 49314, Note_on_c, 3, 55, 0
5, 49320, Note_on_c, 3, 57, 100
5, 49494, Note_on_c, 3, 57, 0
5, 49500, Note_on_c, 3, 47, 100
5, 49554, Note_on_c, 3, 47, 0
5, 49560, Note_on_c, 3, 51, 100
5, 49614, Note_on_c, 3, 51, 0
5, 49620, Note_on_c, 3, 54, 100
5, 49674, Note_on_c, 3, 54, 0
5, 49680, Note_on_c, 3, 59, 100
5, 49734, Note_on_c, 3, 59, 0
5, 49740, Note_on_c, 3, 57, 100
5, 49794, Note_on_c, 3, 57, 0
5, 49800, Note_on_c, 3, 55, 100
5, 49854, Note_on_c, 3, 55, 0
5, 49860, Note_on_c, 3, 54, 100
5, 49914, Note_on_c, 3, 54, 0
5, 49920, Note_on_c, 3, 52, 100
5, 50028, Note_on_c, 3, 52, 0
5, 50040, Note_on_c, 3, 64, 100
5, 50148, Note_on_c, 3, 64, 0
5, 50160, Note_on_c, 3, 59, 100
5, 50268, Note_on_c, 3, 59, 0
5, 50280, Note_on_c, 3, 55, 100
5, 50388, Note_on_c, 3, 55, 0
5, 50520, Note_on_c, 3, 69, 100
5, 50628, Note_on_c, 3, 69, 0
5, 50640, Note_on_c, 3, 64, 100
5, 50748, Note_on_c, 3, 64, 0
5, 50760, Note_on_c, 3, 60, 100
5, 50868, Note_on_c, 3, 60, 0
5, 51000, Note_on_c, 3, 62, 100
5, 51108, Note_on_c, 3, 62, 0
5, 51120, Note_on_c, 3, 57, 100
5, 51228, Note_on_c, 3, 57, 0
5, 51240, Note_on_c, 3, 54, 100
5, 51348, Note_on_c, 3, 54, 0
5, 51480, Note_on_c, 3, 67, 100
5, 51588, Note_on_c, 3, 67, 0
5, 51600, Note_on_c, 3, 62, 100
5, 51708, Note_on_c, 3, 62, 0
5, 51720, Note_on_c, 3, 59, 100
5, 51828, Note_on_c, 3, 59, 0
5, 51840, Note_on_c, 3, 55, 100
5, 51894, Note_on_c, 3, 55, 0
5, 51900, Note_on_c, 3, 54, 100
5, 51954, Note_on_c, 3, 54, 0
5, 51960, Note_on_c, 3, 52, 100
5, 52134, Note_on_c, 3, 52, 0
5, 52140, Note_on_c, 3, 60, 100
5, 52194, Note_on_c, 3, 60, 0
5, 52200, Note_on_c, 3, 62, 100
5, 52254, Note_on_c, 3, 62, 0
5, 52260, Note_on_c, 3, 64, 100
5, 52314, Note_on_c, 3, 64, 0
5, 52320, Note_on_c, 3, 57, 100
5, 52374, Note_on_c, 3, 57, 0
5, 52380, Note_on_c, 3, 55, 100
5, 52434, Note_on_c, 3, 55, 0
5, 52440, Note_on_c, 3, 54, 100
5, 52614, Note_on_c, 3, 54, 0
5, 52620, Note_on_c, 3, 62, 100
5, 52674, Note_on_c, 3, 62, 0
5, 52680, Note_on_c, 3, 64, 100
5, 52734, Note_on_c, 3, 64, 0
5, 52740, Note_on_c, 3, 66, 100
5, 52794, Note_on_c, 3, 66, 0
5, 52800, Note_on_c, 3, 59, 100
5, 52854, Note_on_c, 3, 59, 0
5, 52860, Note_on_c, 3, 57, 100
5, 52914, Note_on_c, 3, 57, 0
5, 52920, Note_on_c, 3, 55, 100
5, 53094, Note_on_c, 3, 55, 0
5, 53100, Note_on_c, 3, 64, 100
5, 53154, Note_on_c, 3, 64, 0
5, 53160, Note_on_c, 3, 66, 100
5, 53214, Note_on_c, 3, 66, 0
5, 53220, Note_on_c, 3, 67, 100
5, 53274, Note_on_c, 3, 67, 0
5, 53280, Note_on_c, 3, 60, 100
5, 53334, Note_on_c, 3, 60, 0
5, 53340, Note_on_c, 3, 59, 100
5, 53394, Note_on_c, 3, 59, 0
5, 53400, Note_on_c, 3, 57, 100
5, 53574, Note_on_c, 3, 57, 0
5, 53580, Note_on_c, 3, 66, 100
5, 53634, Note_on_c, 3, 66, 0
5, 53640, Note_on_c, 3, 67, 100
5, 53694, Note_on_c, 3, 67, 0
5, 53700, Note_on_c, 3, 69, 100
5, 53754, Note_on_c, 3, 69, 0
5, 53760, Note_on_c, 3, 55, 100
5, 53868, Note_on_c, 3, 55, 0
5, 53880, Note_on_c, 3, 67, 100
5, 53988, Note_on_c, 3, 67, 0
5, 54000, Note_on_c, 3, 62, 100
5, 54108, Note_on_c, 3, 62, 0
5, 54120, Note_on_c, 3, 60, 100
5, 54228, Note_on_c, 3, 60, 0
5, 54240, Note_on_c, 3, 59, 100
5, 54348, Note_on_c, 3, 59, 0
5, 54360, Note_on_c, 3, 55, 100
5, 54414, Note_on_c, 3, 55, 0
5, 54420, Note_on_c, 3, 57, 100
5, 54474, Note_on_c, 3, 57, 0
5, 54480, Note_on_c, 3, 59, 100
5, 54588, Note_on_c, 3, 59, 0
5, 54600, Note_on_c, 3, 62, 100
5, 54708, Note_on_c, 3, 62, 0
5, 54720, Note_on_c, 3, 55, 100
5, 54774, Note_on_c, 3, 55, 0
5, 54780, Note_on_c, 3, 57, 100
5, 54834, Note_on_c, 3, 57, 0
5, 54840, Note_on_c, 3, 59, 100
5, 54894, Note_on_c, 3, 59, 0
5, 54900, Note_on_c, 3, 60, 100
5, 54954, Note_on_c, 3, 60, 0
5, 54960, Note_on_c, 3, 57, 100
5, 55014, Note_on_c, 3, 57, 0
5, 55020, Note_on_c, 3, 59, 100
5, 55074, Note_on_c, 3, 59, 0
5, 55080, Note_on_c, 3, 60, 100
5, 55134, Note_on_c, 3, 60, 0
5, 55140, Note_on_c, 3, 57, 100
5, 55194, Note_on_c, 3, 57, 0
5, 55200, Note_on_c, 3, 59, 100
5, 55308, Note_on_c, 3, 59, 0
5, 55320, Note_on_c, 3, 60, 100
5, 55428, Note_on_c, 3, 60, 0
5, 55440, Note_on_c, 3, 62, 100
5, 55548, Note_on_c, 3, 62, 0
5, 55560, Note_on_c, 3, 50, 100
5, 55668, Note_on_c, 3, 50, 0
5, 55680, Note_on_c, 3, 55, 100
5, 55788, Note_on_c, 3, 55, 0
5, 55800, Note_on_c, 3, 50, 100
5, 55908, Note_on_c, 3, 50, 0
5, 55920, Note_on_c, 3, 55, 100
5, 56028, Note_on_c, 3, 55, 0
5, 56040, Note_on_c, 3, 50, 100
5, 56148, Note_on_c, 3, 50, 0
5, 56160, Note_on_c, 3, 55, 100
5, 56268, Note_on_c, 3, 55, 0
5, 56280, Note_on_c, 3, 54, 100
5, 56334, Note_on_c, 3, 54, 0
5, 56340, Note_on_c, 3, 52, 100
5, 56394, Note_on_c, 3, 52, 0
5, 56400, Note_on_c, 3, 50, 100
5, 56508, Note_on_c, 3, 50, 0
5, 56520, Note_on_c, 3, 52, 100
5, 56574, Note_on_c, 3, 52, 0
5, 56580, Note_on_c, 3, 54, 100
5, 56634, Note_on_c, 3, 54, 0
5, 56640, Note_on_c, 3, 55, 100
5, 56748, Note_on_c, 3, 55, 0
5, 56760, Note_on_c, 3, 54, 100
5, 56814, Note_on_c, 3, 54, 0
5, 56820, Note_on_c, 3, 52, 100
5, 56874, Note_on_c, 3, 52, 0
5, 56880, Note_on_c, 3, 50, 100
5, 56934, Note_on_c, 3, 50, 0
5, 56940, Note_on_c, 3, 48, 100
5, 56994, Note_on_c, 3, 48, 0
5, 57000, Note_on_c, 3, 47, 100
5, 57054, Note_on_c, 3, 47, 0
5, 57060, Note_on_c, 3, 45, 100
5, 57114, Note_on_c, 3, 45, 0
5, 57120, Note_on_c, 3, 47, 100
5, 57228, Note_on_c, 3, 47, 0
5, 58200, Note_on_c, 3, 43, 100
5, 58254, Note_on_c, 3, 43, 0
5, 58260, Note_on_c, 3, 55, 100
5, 58314, Note_on_c, 3, 55, 0
5, 58320, Note_on_c, 3, 45, 100
5, 58374, Note_on_c, 3, 45, 0
5, 58380, Note_on_c, 3, 57, 100
5, 58434, Note_on_c, 3, 57, 0
5, 58440, Note_on_c, 3, 47, 100
5, 58494, Note_on_c, 3, 47, 0
5, 58500, Note_on_c, 3, 59, 100
5, 58554, Note_on_c, 3, 59, 0
5, 58560, Note_on_c, 3, 48, 100
5, 58668, Note_on_c, 3, 48, 0
5, 59100, Note_on_c, 3, 60, 100
5, 59154, Note_on_c, 3, 60, 0
5, 59160, Note_on_c, 3, 59, 100
5, 59214, Note_on_c, 3, 59, 0
5, 59220, Note_on_c, 3, 57, 100
5, 59274, Note_on_c, 3, 57, 0
5, 59280, Note_on_c, 3, 55, 100
5, 59334, Note_on_c, 3, 55, 0
5, 59340, Note_on_c, 3, 53, 100
5, 59394, Note_on_c, 3, 53, 0
5, 59400, Note_on_c, 3, 52, 100
5, 59454, Note_on_c, 3, 52, 0
5, 59460, Note_on_c, 3, 50, 100
5, 59514, Note_on_c, 3, 50, 0
5, 59520, Note_on_c, 3, 48, 100
5, 59574, Note_on_c, 3, 48, 0
5, 59580, Note_on_c, 3, 52, 100
5, 59634, Note_on_c, 3, 52, 0
5, 59640, Note_on_c, 3, 50, 100
5, 59694, Note_on_c, 3, 50, 0
5, 59700, Note_on_c, 3, 48, 100
5, 59754, Note_on_c, 3, 48, 0
5, 59760, Note_on_c, 3, 47, 100
5, 59814, Note_on_c, 3, 47, 0
5, 59820, Note_on_c, 3, 45, 100
5, 59874, Note_on_c, 3, 45, 0
5, 59880, Note_on_c, 3, 43, 100
5, 59934, Note_on_c, 3, 43, 0
5, 59940, Note_on_c, 3, 41, 100
5, 59994, Note_on_c, 3, 41, 0
5, 60000, Note_on_c, 3, 40, 100
5, 60108, Note_on_c, 3, 40, 0
5, 61080, Note_on_c, 3, 60, 100
5, 61134, Note_on_c, 3, 60, 0
5, 61140, Note_on_c, 3, 72, 100
5, 61194, Note_on_c, 3, 72, 0
5, 61200, Note_on_c, 3, 62, 100
5, 61254, Note_on_c, 3, 62, 0
5, 61260, Note_on_c, 3, 74, 100
5, 61314, Note_on_c, 3, 74, 0
5, 61320, Note_on_c, 3, 64, 100
5, 61374, Note_on_c, 3, 64, 0
5, 61380, Note_on_c, 3, 76, 100
5, 61434, Note_on_c, 3, 76, 0
5, 61440, Note_on_c, 3, 65, 100
5, 61548, Note_on_c, 3, 65, 0
5, 61560, Note_on_c, 3, 53, 100
5, 61734, Note_on_c, 3, 53, 0
5, 61740, Note_on_c, 3, 57, 100
5, 61794, Note_on_c, 3, 57, 0
5, 61800, Note_on_c, 3, 60, 100
5, 61854, Note_on_c, 3, 60, 0
5, 61860, Note_on_c, 3, 65, 100
5, 61914, Note_on_c, 3, 65, 0
5, 61920, Note_on_c, 3, 60, 100
5, 62214, Note_on_c, 3, 60, 0
5, 62220, Note_on_c, 3, 55, 100
5, 62274, Note_on_c, 3, 55, 0
5, 62280, Note_on_c, 3, 52, 100
5, 62334, Note_on_c, 3, 52, 0
5, 62340, Note_on_c, 3, 48, 100
5, 62394, Note_on_c, 3, 48, 0
5, 62400, Note_on_c, 3, 50, 100
5, 62694, Note_on_c, 3, 50, 0
5, 62700, Note_on_c, 3, 53, 100
5, 62754, Note_on_c, 3, 53, 0
5, 62760, Note_on_c, 3, 57, 100
5, 62814, Note_on_c, 3, 57, 0
5, 62820, Note_on_c, 3, 62, 100
5, 62874, Note_on_c, 3, 62, 0
5, 62880, Note_on_c, 3, 57, 100
5, 63174, Note_on_c, 3, 57, 0
5, 63180, Note_on_c, 3, 52, 100
5, 63234, Note_on_c, 3, 52, 0
5, 63240, Note_on_c, 3, 48, 100
5, 63294, Note_on_c, 3, 48, 0
5, 63300, Note_on_c, 3, 45, 100
5, 63354, Note_on_c, 3, 45, 0
5, 63360, Note_on_c, 3, 46, 100
5, 63654, Note_on_c, 3, 46, 0
5, 63660, Note_on_c, 3, 50, 100
5, 63714, Note_on_c, 3, 50, 0
5, 63720, Note_on_c, 3, 53, 100
5, 63774, Note_on_c, 3, 53, 0
5, 63780, Note_on_c, 3, 58, 100
5, 63834, Note_on_c, 3, 58, 0
5, 63840, Note_on_c, 3, 53, 100
5, 64134, Note_on_c, 3, 53, 0
5, 64140, Note_on_c, 3, 48, 100
5, 64194, Note_on_c, 3, 48, 0
5, 64200, Note_on_c, 3, 45, 100
5, 64254, Note_on_c, 3, 45, 0
5, 64260, Note_on_c, 3, 41, 100
5, 64314, Note_on_c, 3, 41, 0
5, 64320, Note_on_c, 3, 43, 100
5, 64536, Note_on_c, 3, 43, 0
5, 64620, Note_on_c, 3, 48, 100
5, 64674, Note_on_c, 3, 48, 0
5, 64680, Note_on_c, 3, 52, 100
5, 64734, Note_on_c, 3, 52, 0
5, 64740, Note_on_c, 3, 55, 100
5, 64794, Note_on_c, 3, 55, 0
5, 64800, Note_on_c, 3, 53, 100
5, 64908, Note_on_c, 3, 53, 0
5, 65100, Note_on_c, 3, 64, 100
5, 65154, Note_on_c, 3, 64, 0
5, 65160, Note_on_c, 3, 65, 100
5, 65214, Note_on_c, 3, 65, 0
5, 65220, Note_on_c, 3, 67, 100
5, 65274, Note_on_c, 3, 67, 0
5, 65280, Note_on_c, 3, 69, 100
5, 65334, Note_on_c, 3, 69, 0
5, 65340, Note_on_c, 3, 64, 100
5, 65394, Note_on_c, 3, 64, 0
5, 65400, Note_on_c, 3, 65, 100
5, 65454, Note_on_c, 3, 65, 0
5, 65460, Note_on_c, 3, 57, 100
5, 65514, Note_on_c, 3, 57, 0
5, 65520, Note_on_c, 3, 62, 100
5, 65574, Note_on_c, 3, 62, 0
5, 65580, Note_on_c, 3, 60, 100
5, 65634, Note_on_c, 3, 60, 0
5, 65640, Note_on_c, 3, 62, 100
5, 65694, Note_on_c, 3, 62, 0
5, 65700, Note_on_c, 3, 58, 100
5, 65754, Note_on_c, 3, 58, 0
5, 65760, Note_on_c, 3, 55, 100
5, 65868, Note_on_c, 3, 55, 0
5, 65880, Note_on_c, 3, 48, 100
5, 65988, Note_on_c, 3, 48, 0
5, 66060, Note_on_c, 3, 60, 100
5, 66114, Note_on_c, 3, 60, 0
5, 66120, Note_on_c, 3, 62, 100
5, 66174, Note_on_c, 3, 62, 0
5, 66180, Note_on_c, 3, 64, 100
5, 66234, Note_on_c, 3, 64, 0
5, 66240, Note_on_c, 3, 65, 100
5, 66348, Note_on_c, 3, 65, 0
5, 66360, Note_on_c, 3, 60, 100
5, 66414, Note_on_c, 3, 60, 0
5, 66420, Note_on_c, 3, 58, 100
5, 66474, Note_on_c, 3, 58, 0
5, 66480, Note_on_c, 3, 57, 100
5, 66588, Note_on_c, 3, 57, 0
5, 66600, Note_on_c, 3, 55, 100
5, 66654, Note_on_c, 3, 55, 0
5, 66660, Note_on_c, 3, 53, 100
5, 66714, Note_on_c, 3, 53, 0
5, 66720, Note_on_c, 3, 65, 100
5, 66828, Note_on_c, 3, 65, 0
5, 66840, Note_on_c, 3, 69, 100
5, 66894, Note_on_c, 3, 69, 0
5, 66900, Note_on_c, 3, 70, 100
5, 66954, Note_on_c, 3, 70, 0
5, 66960, Note_on_c, 3, 72, 100
5, 67014, Note_on_c, 3, 72, 0
5, 67020, Note_on_c, 3, 64, 100
5, 67074, Note_on_c, 3, 64, 0
5, 67080, Note_on_c, 3, 65, 100
5, 67134, Note_on_c, 3, 65, 0
5, 67140, Note_on_c, 3, 67, 100
5, 67194, Note_on_c, 3, 67, 0
5, 67200, Note_on_c, 3, 60, 100
5, 67494, Note_on_c, 3, 60, 0
5, 67500, Note_on_c, 3, 58, 100
5, 67554, Note_on_c, 3, 58, 0
5, 67560, Note_on_c, 3, 57, 100
5, 67614, Note_on_c, 3, 57, 0
5, 67620, Note_on_c, 3, 55, 100
5, 67674, Note_on_c, 3, 55, 0
5, 67680, Note_on_c, 3, 53, 100
5, 67734, Note_on_c, 3, 53, 0
5, 67740, Note_on_c, 3, 55, 100
5, 67794, Note_on_c, 3, 55, 0
5, 67800, Note_on_c, 3, 57, 100
5, 67854, Note_on_c, 3, 57, 0
5, 67860, Note_on_c, 3, 58, 100
5, 67914, Note_on_c, 3, 58, 0
5, 67920, Note_on_c, 3, 60, 100
5, 68028, Note_on_c, 3, 60, 0
5, 68040, Note_on_c, 3, 53, 100
5, 68148, Note_on_c, 3, 53, 0
5, 68160, Note_on_c, 3, 58, 100
5, 68268, Note_on_c, 3, 58, 0
5, 68280, Note_on_c, 3, 65, 100
5, 68388, Note_on_c, 3, 65, 0
5, 68400, Note_on_c, 3, 65, 100
5, 68508, Note_on_c, 3, 65, 0
5, 68520, Note_on_c, 3, 58, 100
5, 68628, Note_on_c, 3, 58, 0
5, 68760, Note_on_c, 3, 58, 100
5, 68868, Note_on_c, 3, 58, 0
5, 68880, Note_on_c, 3, 58, 100
5, 68988, Note_on_c, 3, 58, 0
5, 69000, Note_on_c, 3, 52, 100
5, 69108, Note_on_c, 3, 52, 0
5, 69120, Note_on_c, 3, 64, 100
5, 69174, Note_on_c, 3, 64, 0
5, 69180, Note_on_c, 3, 65, 100
5, 69234, Note_on_c, 3, 65, 0
5, 69240, Note_on_c, 3, 67, 100
5, 69294, Note_on_c, 3, 67, 0
5, 69300, Note_on_c, 3, 64, 100
5, 69354, Note_on_c, 3, 64, 0
5, 69360, Note_on_c, 3, 60, 100
5, 69414, Note_on_c, 3, 60, 0
5, 69420, Note_on_c, 3, 62, 100
5, 69474, Note_on_c, 3, 62, 0
5, 69480, Note_on_c, 3, 64, 100
5, 69534, Note_on_c, 3, 64, 0
5, 69540, Note_on_c, 3, 60, 100
5, 69594, Note_on_c, 3, 60, 0
5, 69600, Note_on_c, 3, 57, 100
5, 69654, Note_on_c, 3, 57, 0
5, 69660, Note_on_c, 3, 58, 100
5, 69714, Note_on_c, 3, 58, 0
5, 69720, Note_on_c, 3, 60, 100
5, 69774, Note_on_c, 3, 60, 0
5, 69780, Note_on_c, 3, 57, 100
5, 69834, Note_on_c, 3, 57, 0
5, 69840, Note_on_c, 3, 53, 100
5, 69894, Note_on_c, 3, 53, 0
5, 69900, Note_on_c, 3, 55, 100
5, 69954, Note_on_c, 3, 55, 0
5, 69960, Note_on_c, 3, 57, 100
5, 70014, Note_on_c, 3, 57, 0
5, 70020, Note_on_c, 3, 53, 100
5, 70074, Note_on_c, 3, 53, 0
5, 70080, Note_on_c, 3, 50, 100
5, 70188, Note_on_c, 3, 50, 0
5, 70200, Note_on_c, 3, 43, 100
5, 70308, Note_on_c, 3, 43, 0
5, 70440, Note_on_c, 3, 55, 100
5, 70548, Note_on_c, 3, 55, 0
5, 70560, Note_on_c, 3, 55, 100
5, 70668, Note_on_c, 3, 55, 0
5, 70680, Note_on_c, 3, 48, 100
5, 70788, Note_on_c, 3, 48, 0
5, 70920, Note_on_c, 3, 48, 100
5, 71028, Note_on_c, 3, 48, 0
5, 71040, Note_on_c, 3, 48, 100
5, 71148, Note_on_c, 3, 48, 0
5, 71160, Note_on_c, 3, 36, 100
5, 71268, Note_on_c, 3, 36, 0
5, 71400, Note_on_c, 3, 48, 100
5, 71508, Note_on_c, 3, 48, 0
5, 71520, Note_on_c, 3, 48, 100
5, 71628, Note_on_c, 3, 48, 0
5, 71640, Note_on_c, 3, 36, 100
5, 71748, Note_on_c, 3, 36, 0
5, 71880, Note_on_c, 3, 48, 100
5, 71988, Note_on_c, 3, 48, 0
5, 72000, Note_on_c, 3, 41, 100
5, 72108, Note_on_c, 3, 41, 0
5, 72120, Note_on_c, 3, 48, 100
5, 72228, Note_on_c, 3, 48, 0
5, 72240, Note_on_c, 3, 53, 100
5, 72294, Note_on_c, 3, 53, 0
5, 72300, Note_on_c, 3, 55, 100
5, 72354, Note_on_c, 3, 55, 0
5, 72360, Note_on_c, 3, 53, 100
5, 72414, Note_on_c, 3, 53, 0
5, 72420, Note_on_c, 3, 51, 100
5, 72474, Note_on_c, 3, 51, 0
5, 72480, Note_on_c, 3, 50, 100
5, 72534, Note_on_c, 3, 50, 0
5, 72540, Note_on_c, 3, 51, 100
5, 72594, Note_on_c, 3, 51, 0
5, 72600, Note_on_c, 3, 53, 100
5, 72654, Note_on_c, 3, 53, 0
5, 72660, Note_on_c, 3, 50, 100
5, 72714, Note_on_c, 3, 50, 0
5, 72720, Note_on_c, 3, 46, 100
5, 72774, Note_on_c, 3, 46, 0
5, 72780, Note_on_c, 3, 48, 100
5, 72834, Note_on_c, 3, 48, 0
5, 72840, Note_on_c, 3, 50, 100
5, 72894, Note_on_c, 3, 50, 0
5, 72900, Note_on_c, 3, 46, 100
5, 72954, Note_on_c, 3, 46, 0
5, 72960, Note_on_c, 3, 48, 100
5, 73014, Note_on_c, 3, 48, 0
5, 73020, Note_on_c, 3, 50, 100
5, 73074, Note_on_c, 3, 50, 0
5, 73080, Note_on_c, 3, 52, 100
5, 73134, Note_on_c, 3, 52, 0
5, 73140, Note_on_c, 3, 55, 100
5, 73194, Note_on_c, 3, 55, 0
5, 73200, Note_on_c, 3, 60, 100
5, 73254, Note_on_c, 3, 60, 0
5, 73260, Note_on_c, 3, 55, 100
5, 73314, Note_on_c, 3, 55, 0
5, 73320, Note_on_c, 3, 52, 100
5, 73374, Note_on_c, 3, 52, 0
5, 73380, Note_on_c, 3, 48, 100
5, 73434, Note_on_c, 3, 48, 0
5, 73440, Note_on_c, 3, 53, 100
5, 73548, Note_on_c, 3, 53, 0
5, 73560, Note_on_c, 3, 46, 100
5, 73668, Note_on_c, 3, 46, 0
5, 73680, Note_on_c, 3, 48, 100
5, 73788, Note_on_c, 3, 48, 0
5, 73800, Note_on_c, 3, 36, 100
5, 73908, Note_on_c, 3, 36, 0
5, 73920, Note_on_c, 3, 53, 100
5, 74028, Note_on_c, 3, 53, 0
5, 74040, Note_on_c, 3, 48, 100
5, 74040, Note_on_c, 3, 57, 100
5, 74148, Note_on_c, 3, 57, 0
5, 74148, Note_on_c, 3, 48, 0
5, 74160, Note_on_c, 3, 53, 100
5, 74268, Note_on_c, 3, 53, 0
5, 74280, Note_on_c, 3, 48, 100
5, 74280, Note_on_c, 3, 55, 100
5, 74388, Note_on_c, 3, 55, 0
5, 74388, Note_on_c, 3, 48, 0
5, 74400, Note_on_c, 3, 53, 100
5, 74400, Note_on_c, 3, 57, 100
5, 74616, Note_on_c, 3, 57, 0
5, 74616, Note_on_c, 3, 53, 0
5, 74760, Note_on_c, 3, 45, 100
5, 74760, Note_on_c, 3, 52, 100
5, 74868, Note_on_c, 3, 52, 0
5, 74868, Note_on_c, 3, 45, 0
5, 74880, Note_on_c, 3, 50, 100
5, 74988, Note_on_c, 3, 50, 0
5, 75000, Note_on_c, 3, 45, 100
5, 75000, Note_on_c, 3, 53, 100
5, 75108, Note_on_c, 3, 53, 0
5, 75108, Note_on_c, 3, 45, 0
5, 75120, Note_on_c, 3, 50, 100
5, 75228, Note_on_c, 3, 50, 0
5, 75240, Note_on_c, 3, 45, 100
5, 75240, Note_on_c, 3, 52, 100
5, 75348, Note_on_c, 3, 52, 0
5, 75348, Note_on_c, 3, 45, 0
5, 75360, Note_on_c, 3, 50, 100
5, 75360, Note_on_c, 3, 53, 100
5, 75576, Note_on_c, 3, 53, 0
5, 75576, Note_on_c, 3, 50, 0
5, 75840, Note_on_c, 3, 58, 100
5, 75894, Note_on_c, 3, 58, 0
5, 75900, Note_on_c, 3, 62, 100
5, 75954, Note_on_c, 3, 62, 0
5, 75960, Note_on_c, 3, 67, 100
5, 76014, Note_on_c, 3, 67, 0
5, 76020, Note_on_c, 3, 62, 100
5, 76074, Note_on_c, 3, 62, 0
5, 76080, Note_on_c, 3, 58, 100
5, 76134, Note_on_c, 3, 58, 0
5, 76140, Note_on_c, 3, 64, 100
5, 76194, Note_on_c, 3, 64, 0
5, 76200, Note_on_c, 3, 67, 100
5, 76254, Note_on_c, 3, 67, 0
5, 76260, Note_on_c, 3, 64, 100
5, 76314, Note_on_c, 3, 64, 0
5, 76320, Note_on_c, 3, 57, 100
5, 76374, Note_on_c, 3, 57, 0
5, 76380, Note_on_c, 3, 60, 100
5, 76434, Note_on_c, 3, 60, 0
5, 76440, Note_on_c, 3, 65, 100
5, 76494, Note_on_c, 3, 65, 0
5, 76500, Note_on_c, 3, 60, 100
5, 76554, Note_on_c, 3, 60, 0
5, 76560, Note_on_c, 3, 57, 100
5, 76614, Note_on_c, 3, 57, 0
5, 76620, Note_on_c, 3, 62, 100
5, 76674, Note_on_c, 3, 62, 0
5, 76680, Note_on_c, 3, 65, 100
5, 76734, Note_on_c, 3, 65, 0
5, 76740, Note_on_c, 3, 62, 100
5, 76794, Note_on_c, 3, 62, 0
5, 76800, Note_on_c, 3, 55, 100
5, 76854, Note_on_c, 3, 55, 0
5, 76860, Note_on_c, 3, 62, 100
5, 76914, Note_on_c, 3, 62, 0
5, 76920, Note_on_c, 3, 64, 100
5, 76974, Note_on_c, 3, 64, 0
5, 76980, Note_on_c, 3, 62, 100
5, 77034, Note_on_c, 3, 62, 0
5, 77040, Note_on_c, 3, 55, 100
5, 77094, Note_on_c, 3, 55, 0
5, 77100, Note_on_c, 3, 61, 100
5, 77154, Note_on_c, 3, 61, 0
5, 77160, Note_on_c, 3, 64, 100
5, 77214, Note_on_c, 3, 64, 0
5, 77220, Note_on_c, 3, 61, 100
5, 77274, Note_on_c, 3, 61, 0
5, 77280, Note_on_c, 3, 53, 100
5, 77334, Note_on_c, 3, 53, 0
5, 77340, Note_on_c, 3, 57, 100
5, 77394, Note_on_c, 3, 57, 0
5, 77400, Note_on_c, 3, 62, 100
5, 77454, Note_on_c, 3, 62, 0
5, 77460, Note_on_c, 3, 64, 100
5, 77514, Note_on_c, 3, 64, 0
5, 77520, Note_on_c, 3, 65, 100
5, 77574, Note_on_c, 3, 65, 0
5, 77580, Note_on_c, 3, 64, 100
5, 77634, Note_on_c, 3, 64, 0
5, 77640, Note_on_c, 3, 62, 100
5, 77694, Note_on_c, 3, 62, 0
5, 77700, Note_on_c, 3, 60, 100
5, 77754, Note_on_c, 3, 60, 0
5, 77760, Note_on_c, 3, 59, 100
5, 77814, Note_on_c, 3, 59, 0
5, 77820, Note_on_c, 3, 57, 100
5, 77874, Note_on_c, 3, 57, 0
5, 77880, Note_on_c, 3, 56, 100
5, 77934, Note_on_c, 3, 56, 0
5, 77940, Note_on_c, 3, 54, 100
5, 77994, Note_on_c, 3, 54, 0
5, 78000, Note_on_c, 3, 52, 100
5, 78054, Note_on_c, 3, 52, 0
5, 78060, Note_on_c, 3, 50, 100
5, 78114, Note_on_c, 3, 50, 0
5, 78120, Note_on_c, 3, 48, 100
5, 78174, Note_on_c, 3, 48, 0
5, 78180, Note_on_c, 3, 45, 100
5, 78234, Note_on_c, 3, 45, 0
5, 78240, Note_on_c, 3, 50, 100
5, 78294, Note_on_c, 3, 50, 0
5, 78300, Note_on_c, 3, 57, 100
5, 78354, Note_on_c, 3, 57, 0
5, 78360, Note_on_c, 3, 59, 100
5, 78414, Note_on_c, 3, 59, 0
5, 78420, Note_on_c, 3, 60, 100
5, 78474, Note_on_c, 3, 60, 0
5, 78480, Note_on_c, 3, 62, 100
5, 78534, Note_on_c, 3, 62, 0
5, 78540, Note_on_c, 3, 64, 100
5, 78594, Note_on_c, 3, 64, 0
5, 78600, Note_on_c, 3, 65, 100
5, 78654, Note_on_c, 3, 65, 0
5, 78660, Note_on_c, 3, 62, 100
5, 78714, Note_on_c, 3, 62, 0
5, 78720, Note_on_c, 3, 64, 100
5, 78828, Note_on_c, 3, 64, 0
5, 78840, Note_on_c, 3, 62, 100
5, 78894, Note_on_c, 3, 62, 0
5, 78900, Note_on_c, 3, 60, 100
5, 78954, Note_on_c, 3, 60, 0
5, 78960, Note_on_c, 3, 59, 100
5, 79068, Note_on_c, 3, 59, 0
5, 79080, Note_on_c, 3, 57, 100
5, 79188, Note_on_c, 3, 57, 0
5, 79200, Note_on_c, 3, 56, 100
5, 79254, Note_on_c, 3, 56, 0
5, 79260, Note_on_c, 3, 57, 100
5, 79314, Note_on_c, 3, 57, 0
5, 79320, Note_on_c, 3, 59, 100
5, 79374, Note_on_c, 3, 59, 0
5, 79380, Note_on_c, 3, 56, 100
5, 79434, Note_on_c, 3, 56, 0
5, 79440, Note_on_c, 3, 52, 100
5, 79494, Note_on_c, 3, 52, 0
5, 79500, Note_on_c, 3, 56, 100
5, 79554, Note_on_c, 3, 56, 0
5, 79560, Note_on_c, 3, 59, 100
5, 79614, Note_on_c, 3, 59, 0
5, 79620, Note_on_c, 3, 62, 100
5, 79674, Note_on_c, 3, 62, 0
5, 79680, Note_on_c, 3, 57, 100
5, 79734, Note_on_c, 3, 57, 0
5, 79740, Note_on_c, 3, 59, 100
5, 79794, Note_on_c, 3, 59, 0
5, 79800, Note_on_c, 3, 60, 100
5, 79854, Note_on_c, 3, 60, 0
5, 79860, Note_on_c, 3, 57, 100
5, 79914, Note_on_c, 3, 57, 0
5, 79920, Note_on_c, 3, 52, 100
5, 79974, Note_on_c, 3, 52, 0
5, 79980, Note_on_c, 3, 57, 100
5, 80034, Note_on_c, 3, 57, 0
5, 80040, Note_on_c, 3, 60, 100
5, 80094, Note_on_c, 3, 60, 0
5, 80100, Note_on_c, 3, 64, 100
5, 80154, Note_on_c, 3, 64, 0
5, 80160, Note_on_c, 3, 59, 100
5, 80214, Note_on_c, 3, 59, 0
5, 80220, Note_on_c, 3, 60, 100
5, 80274, Note_on_c, 3, 60, 0
5, 80280, Note_on_c, 3, 62, 100
5, 80334, Note_on_c, 3, 62, 0
5, 80340, Note_on_c, 3, 59, 100
5, 80394, Note_on_c, 3, 59, 0
5, 80400, Note_on_c, 3, 56, 100
5, 80508, Note_on_c, 3, 56, 0
5, 80520, Note_on_c, 3, 52, 100
5, 80628, Note_on_c, 3, 52, 0
5, 80640, Note_on_c, 3, 57, 100
5, 80748, Note_on_c, 3, 57, 0
5, 80760, Note_on_c, 3, 64, 100
5, 80868, Note_on_c, 3, 64, 0
5, 80880, Note_on_c, 3, 64, 100
5, 80988, Note_on_c, 3, 64, 0
5, 81000, Note_on_c, 3, 57, 100
5, 81108, Note_on_c, 3, 57, 0
5, 81240, Note_on_c, 3, 57, 100
5, 81348, Note_on_c, 3, 57, 0
5, 81360, Note_on_c, 3, 57, 100
5, 81468, Note_on_c, 3, 57, 0
5, 81480, Note_on_c, 3, 50, 100
5, 81588, Note_on_c, 3, 50, 0
5, 81600, Note_on_c, 3, 62, 100
5, 81654, Note_on_c, 3, 62, 0
5, 81660, Note_on_c, 3, 64, 100
5, 81714, Note_on_c, 3, 64, 0
5, 81720, Note_on_c, 3, 66, 100
5, 81774, Note_on_c, 3, 66, 0
5, 81780, Note_on_c, 3, 62, 100
5, 81834, Note_on_c, 3, 62, 0
5, 81840, Note_on_c, 3, 59, 100
5, 81894, Note_on_c, 3, 59, 0
5, 81900, Note_on_c, 3, 60, 100
5, 81954, Note_on_c, 3, 60, 0
5, 81960, Note_on_c, 3, 62, 100
5, 82014, Note_on_c, 3, 62, 0
5, 82020, Note_on_c, 3, 59, 100
5, 82074, Note_on_c, 3, 59, 0
5, 82080, Note_on_c, 3, 55, 100
5, 82134, Note_on_c, 3, 55, 0
5, 82140, Note_on_c, 3, 57, 100
5, 82194, Note_on_c, 3, 57, 0
5, 82200, Note_on_c, 3, 59, 100
5, 82254, Note_on_c, 3, 59, 0
5, 82260, Note_on_c, 3, 55, 100
5, 82314, Note_on_c, 3, 55, 0
5, 82320, Note_on_c, 3, 52, 100
5, 82374, Note_on_c, 3, 52, 0
5, 82380, Note_on_c, 3, 54, 100
5, 82434, Note_on_c, 3, 54, 0
5, 82440, Note_on_c, 3, 55, 100
5, 82494, Note_on_c, 3, 55, 0
5, 82500, Note_on_c, 3, 52, 100
5, 82554, Note_on_c, 3, 52, 0
5, 82560, Note_on_c, 3, 48, 100
5, 82668, Note_on_c, 3, 48, 0
5, 82680, Note_on_c, 3, 42, 100
5, 82788, Note_on_c, 3, 42, 0
5, 82920, Note_on_c, 3, 54, 100
5, 83028, Note_on_c, 3, 54, 0
5, 83040, Note_on_c, 3, 54, 100
5, 83148, Note_on_c, 3, 54, 0
5, 83160, Note_on_c, 3, 47, 100
5, 83268, Note_on_c, 3, 47, 0
5, 83400, Note_on_c, 3, 59, 100
5, 83508, Note_on_c, 3, 59, 0
5, 83520, Note_on_c, 3, 59, 100
5, 83628, Note_on_c, 3, 59, 0
5, 83640, Note_on_c, 3, 47, 100
5, 83748, Note_on_c, 3, 47, 0
5, 83880, Note_on_c, 3, 59, 100
5, 83988, Note_on_c, 3, 59, 0
5, 84000, Note_on_c, 3, 59, 100
5, 84108, Note_on_c, 3, 59, 0
5, 84120, Note_on_c, 3, 47, 100
5, 84228, Note_on_c, 3, 47, 0
5, 84360, Note_on_c, 3, 59, 100
5, 84414, Note_on_c, 3, 59, 0
5, 84420, Note_on_c, 3, 57, 100
5, 84474, Note_on_c, 3, 57, 0
5, 84480, Note_on_c, 3, 56, 100
5, 84534, Note_on_c, 3, 56, 0
5, 84540, Note_on_c, 3, 57, 100
5, 84594, Note_on_c, 3, 57, 0
5, 84600, Note_on_c, 3, 59, 100
5, 84654, Note_on_c, 3, 59, 0
5, 84660, Note_on_c, 3, 56, 100
5, 84714, Note_on_c, 3, 56, 0
5, 84720, Note_on_c, 3, 52, 100
5, 84774, Note_on_c, 3, 52, 0
5, 84780, Note_on_c, 3, 54, 100
5, 84834, Note_on_c, 3, 54, 0
5, 84840, Note_on_c, 3, 56, 100
5, 84894, Note_on_c, 3, 56, 0
5, 84900, Note_on_c, 3, 52, 100
5, 84954, Note_on_c, 3, 52, 0
5, 84960, Note_on_c, 3, 48, 100
5, 85014, Note_on_c, 3, 48, 0
5, 85020, Note_on_c, 3, 50, 100
5, 85074, Note_on_c, 3, 50, 0
5, 85080, Note_on_c, 3, 52, 100
5, 85134, Note_on_c, 3, 52, 0
5, 85140, Note_on_c, 3, 48, 100
5, 85194, Note_on_c, 3, 48, 0
5, 85200, Note_on_c, 3, 45, 100
5, 85254, Note_on_c, 3, 45, 0
5, 85260, Note_on_c, 3, 47, 100
5, 85314, Note_on_c, 3, 47, 0
5, 85320, Note_on_c, 3, 48, 100
5, 85374, Note_on_c, 3, 48, 0
5, 85380, Note_on_c, 3, 45, 100
5, 85434, Note_on_c, 3, 45, 0
5, 85440, Note_on_c, 3, 39, 100
5, 85656, Note_on_c, 3, 39, 0
5, 85800, Note_on_c, 3, 57, 100
5, 85908, Note_on_c, 3, 57, 0
5, 85920, Note_on_c, 3, 55, 100
5, 86028, Note_on_c, 3, 55, 0
5, 86040, Note_on_c, 3, 57, 100
5, 86148, Note_on_c, 3, 57, 0
5, 86160, Note_on_c, 3, 59, 100
5, 86268, Note_on_c, 3, 59, 0
5, 86280, Note_on_c, 3, 47, 100
5, 86388, Note_on_c, 3, 47, 0
5, 86400, Note_on_c, 3, 52, 100
5, 86616, Note_on_c, 3, 52, 0
5, 87480, Note_on_c, 3, 69, 100
5, 87534, Note_on_c, 3, 69, 0
5, 87540, Note_on_c, 3, 71, 100
5, 87594, Note_on_c, 3, 71, 0
5, 87600, Note_on_c, 3, 73, 100
5, 87654, Note_on_c, 3, 73, 0
5, 87660, Note_on_c, 3, 74, 100
5, 87714, Note_on_c, 3, 74, 0
5, 87720, Note_on_c, 3, 76, 100
5, 87774, Note_on_c, 3, 76, 0
5, 87780, Note_on_c, 3, 74, 100
5, 87834, Note_on_c, 3, 74, 0
5, 87840, Note_on_c, 3, 73, 100
5, 87894, Note_on_c, 3, 73, 0
5, 87900, Note_on_c, 3, 71, 100
5, 87954, Note_on_c, 3, 71, 0
5, 87960, Note_on_c, 3, 69, 100
5, 88014, Note_on_c, 3, 69, 0
5, 88020, Note_on_c, 3, 71, 100
5, 88074, Note_on_c, 3, 71, 0
5, 88080, Note_on_c, 3, 73, 100
5, 88134, Note_on_c, 3, 73, 0
5, 88140, Note_on_c, 3, 74, 100
5, 88194, Note_on_c, 3, 74, 0
5, 88200, Note_on_c, 3, 76, 100
5, 88254, Note_on_c, 3, 76, 0
5, 88260, Note_on_c, 3, 74, 100
5, 88314, Note_on_c, 3, 74, 0
5, 88320, Note_on_c, 3, 72, 100
5, 89124, Note_on_c, 3, 72, 0
5, 89160, Note_on_c, 3, 74, 100
5, 89268, Note_on_c, 3, 74, 0
5, 89280, Note_on_c, 3, 67, 100
5, 89388, Note_on_c, 3, 67, 0
5, 89400, Note_on_c, 3, 62, 100
5, 89454, Note_on_c, 3, 62, 0
5, 89460, Note_on_c, 3, 60, 100
5, 89514, Note_on_c, 3, 60, 0
5, 89520, Note_on_c, 3, 59, 100
5, 89628, Note_on_c, 3, 59, 0
5, 89640, Note_on_c, 3, 55, 100
5, 89748, Note_on_c, 3, 55, 0
5, 89760, Note_on_c, 3, 59, 100
5, 89868, Note_on_c, 3, 59, 0
5, 89880, Note_on_c, 3, 62, 100
5, 89988, Note_on_c, 3, 62, 0
5, 90000, Note_on_c, 3, 67, 100
5, 90108, Note_on_c, 3, 67, 0
5, 90120, Note_on_c, 3, 59, 100
5, 90228, Note_on_c, 3, 59, 0
5, 90240, Note_on_c, 3, 60, 100
5, 90348, Note_on_c, 3, 60, 0
5, 90360, Note_on_c, 3, 55, 100
5, 90468, Note_on_c, 3, 55, 0
5, 90480, Note_on_c, 3, 60, 100
5, 90588, Note_on_c, 3, 60, 0
5, 90600, Note_on_c, 3, 55, 100
5, 90708, Note_on_c, 3, 55, 0
5, 90720, Note_on_c, 3, 60, 100
5, 90828, Note_on_c, 3, 60, 0
5, 90840, Note_on_c, 3, 58, 100
5, 90894, Note_on_c, 3, 58, 0
5, 90900, Note_on_c, 3, 56, 100
5, 90954, Note_on_c, 3, 56, 0
5, 90960, Note_on_c, 3, 55, 100
5, 91068, Note_on_c, 3, 55, 0
5, 91080, Note_on_c, 3, 56, 100
5, 91134, Note_on_c, 3, 56, 0
5, 91140, Note_on_c, 3, 58, 100
5, 91194, Note_on_c, 3, 58, 0
5, 91200, Note_on_c, 3, 60, 100
5, 91254, Note_on_c, 3, 60, 0
5, 91260, Note_on_c, 3, 58, 100
5, 91314, Note_on_c, 3, 58, 0
5, 91320, Note_on_c, 3, 56, 100
5, 91374, Note_on_c, 3, 56, 0
5, 91380, Note_on_c, 3, 58, 100
5, 91434, Note_on_c, 3, 58, 0
5, 91440, Note_on_c, 3, 60, 100
5, 91494, Note_on_c, 3, 60, 0
5, 91500, Note_on_c, 3, 58, 100
5, 91554, Note_on_c, 3, 58, 0
5, 91560, Note_on_c, 3, 56, 100
5, 91614, Note_on_c, 3, 56, 0
5, 91620, Note_on_c, 3, 58, 100
5, 91674, Note_on_c, 3, 58, 0
5, 91680, Note_on_c, 3, 60, 100
5, 91734, Note_on_c, 3, 60, 0
5, 91740, Note_on_c, 3, 58, 100
5, 91794, Note_on_c, 3, 58, 0
5, 91800, Note_on_c, 3, 56, 100
5, 91854, Note_on_c, 3, 56, 0
5, 91860, Note_on_c, 3, 58, 100
5, 91914, Note_on_c, 3, 58, 0
5, 91920, Note_on_c, 3, 60, 100
5, 92028, Note_on_c, 3, 60, 0
5, 92040, Note_on_c, 3, 48, 100
5, 92148, Note_on_c, 3, 48, 0
5, 92280, Note_on_c, 3, 50, 100
5, 92334, Note_on_c, 3, 50, 0
5, 92340, Note_on_c, 3, 48, 100
5, 92394, Note_on_c, 3, 48, 0
5, 92400, Note_on_c, 3, 47, 100
5, 92508, Note_on_c, 3, 47, 0
5, 92520, Note_on_c, 3, 43, 100
5, 92628, Note_on_c, 3, 43, 0
5, 92640, Note_on_c, 3, 47, 100
5, 92748, Note_on_c, 3, 47, 0
5, 92760, Note_on_c, 3, 50, 100
5, 92868, Note_on_c, 3, 50, 0
5, 92880, Note_on_c, 3, 55, 100
5, 92988, Note_on_c, 3, 55, 0
5, 93000, Note_on_c, 3, 43, 100
5, 93108, Note_on_c, 3, 43, 0
5, 93120, Note_on_c, 3, 48, 100
5, 93228, Note_on_c, 3, 48, 0
5, 93240, Note_on_c, 3, 43, 100
5, 93348, Note_on_c, 3, 43, 0
5, 93360, Note_on_c, 3, 48, 100
5, 93468, Note_on_c, 3, 48, 0
5, 93480, Note_on_c, 3, 43, 100
5, 93588, Note_on_c, 3, 43, 0
5, 93600, Note_on_c, 3, 48, 100
5, 93708, Note_on_c, 3, 48, 0
5, 93720, Note_on_c, 3, 47, 100
5, 93774, Note_on_c, 3, 47, 0
5, 93780, Note_on_c, 3, 45, 100
5, 93834, Note_on_c, 3, 45, 0
5, 93840, Note_on_c, 3, 43, 100
5, 93948, Note_on_c, 3, 43, 0
5, 93960, Note_on_c, 3, 45, 100
5, 94014, Note_on_c, 3, 45, 0
5, 94020, Note_on_c, 3, 47, 100
5, 94074, Note_on_c, 3, 47, 0
5, 94080, Note_on_c, 3, 48, 100
5, 94188, Note_on_c, 3, 48, 0
5, 94200, Note_on_c, 3, 47, 100
5, 94254, Note_on_c, 3, 47, 0
5, 94260, Note_on_c, 3, 45, 100
5, 94314, Note_on_c, 3, 45, 0
5, 94320, Note_on_c, 3, 43, 100
5, 94428, Note_on_c, 3, 43, 0
5, 94440, Note_on_c, 3, 41, 100
5, 94548, Note_on_c, 3, 41, 0
5, 94560, Note_on_c, 3, 40, 100
5, 94614, Note_on_c, 3, 40, 0
5, 94620, Note_on_c, 3, 48, 100
5, 94674, Note_on_c, 3, 48, 0
5, 94680, Note_on_c, 3, 52, 100
5, 94734, Note_on_c, 3, 52, 0
5, 94740, Note_on_c, 3, 55, 100
5, 94794, Note_on_c, 3, 55, 0
5, 94800, Note_on_c, 3, 60, 100
5, 94908, Note_on_c, 3, 60, 0
5, 94920, Note_on_c, 3, 52, 100
5, 95028, Note_on_c, 3, 52, 0
5, 95100, Note_on_c, 3, 53, 100
5, 95154, Note_on_c, 3, 53, 0
5, 95160, Note_on_c, 3, 57, 100
5, 95214, Note_on_c, 3, 57, 0
5, 95220, Note_on_c, 3, 60, 100
5, 95274, Note_on_c, 3, 60, 0
5, 95280, Note_on_c, 3, 65, 100
5, 95388, Note_on_c, 3, 65, 0
5, 95400, Note_on_c, 3, 53, 100
5, 95508, Note_on_c, 3, 53, 0
5, 95520, Note_on_c, 3, 54, 100
5, 95574, Note_on_c, 3, 54, 0
5, 95580, Note_on_c, 3, 50, 100
5, 95634, Note_on_c, 3, 50, 0
5, 95640, Note_on_c, 3, 54, 100
5, 95694, Note_on_c, 3, 54, 0
5, 95700, Note_on_c, 3, 57, 100
5, 95754, Note_on_c, 3, 57, 0
5, 95760, Note_on_c, 3, 62, 100
5, 95868, Note_on_c, 3, 62, 0
5, 95880, Note_on_c, 3, 54, 100
5, 95988, Note_on_c, 3, 54, 0
5, 96060, Note_on_c, 3, 55, 100
5, 96114, Note_on_c, 3, 55, 0
5, 96120, Note_on_c, 3, 59, 100
5, 96174, Note_on_c, 3, 59, 0
5, 96180, Note_on_c, 3, 62, 100
5, 96234, Note_on_c, 3, 62, 0
5, 96240, Note_on_c, 3, 67, 100
5, 96348, Note_on_c, 3, 67, 0
5, 96360, Note_on_c, 3, 55, 100
5, 96468, Note_on_c, 3, 55, 0
5, 96480, Note_on_c, 3, 56, 100
5, 96534, Note_on_c, 3, 56, 0
5, 96540, Note_on_c, 3, 52, 100
5, 96594, Note_on_c, 3, 52, 0
5, 96600, Note_on_c, 3, 56, 100
5, 96654, Note_on_c, 3, 56, 0
5, 96660, Note_on_c, 3, 59, 100
5, 96714, Note_on_c, 3, 59, 0
5, 96720, Note_on_c, 3, 64, 100
5, 96828, Note_on_c, 3, 64, 0
5, 96840, Note_on_c, 3, 56, 100
5, 96948, Note_on_c, 3, 56, 0
5, 97020, Note_on_c, 3, 57, 100
5, 97074, Note_on_c, 3, 57, 0
5, 97080, Note_on_c, 3, 60, 100
5, 97134, Note_on_c, 3, 60, 0
5, 97140, Note_on_c, 3, 64, 100
5, 97194, Note_on_c, 3, 64, 0
5, 97200, Note_on_c, 3, 69, 100
5, 97308, Note_on_c, 3, 69, 0
5, 97320, Note_on_c, 3, 57, 100
5, 97428, Note_on_c, 3, 57, 0
5, 97500, Note_on_c, 3, 62, 100
5, 97554, Note_on_c, 3, 62, 0
5, 97560, Note_on_c, 3, 57, 100
5, 97614, Note_on_c, 3, 57, 0
5, 97620, Note_on_c, 3, 53, 100
5, 97674, Note_on_c, 3, 53, 0
5, 97680, Note_on_c, 3, 50, 100
5, 97788, Note_on_c, 3, 50, 0
5, 97800, Note_on_c, 3, 53, 100
5, 97908, Note_on_c, 3, 53, 0
5, 97980, Note_on_c, 3, 55, 100
5, 98034, Note_on_c, 3, 55, 0
5, 98040, Note_on_c, 3, 59, 100
5, 98094, Note_on_c, 3, 59, 0
5, 98100, Note_on_c, 3, 62, 100
5, 98154, Note_on_c, 3, 62, 0
5, 98160, Note_on_c, 3, 67, 100
5, 98214, Note_on_c, 3, 67, 0
5, 98220, Note_on_c, 3, 65, 100
5, 98274, Note_on_c, 3, 65, 0
5, 98280, Note_on_c, 3, 64, 100
5, 98334, Note_on_c, 3, 64, 0
5, 98340, Note_on_c, 3, 62, 100
5, 98394, Note_on_c, 3, 62, 0
5, 98400, Note_on_c, 3, 60, 100
5, 99312, Note_on_c, 3, 60, 0
5, 99360, Note_on_c, 3, 59, 100
5, 99792, Note_on_c, 3, 59, 0
5, 99900, Note_on_c, 3, 64, 100
5, 99954, Note_on_c, 3, 64, 0
5, 99960, Note_on_c, 3, 59, 100
5, 100014, Note_on_c, 3, 59, 0
5, 100020, Note_on_c, 3, 56, 100
5, 100074, Note_on_c, 3, 56, 0
5, 100080, Note_on_c, 3, 52, 100
5, 100188, Note_on_c, 3, 52, 0
5, 100200, Note_on_c, 3, 64, 100
5, 100308, Note_on_c, 3, 64, 0
5, 100320, Note_on_c, 3, 45, 100
5, 100374, Note_on_c, 3, 45, 0
5, 100380, Note_on_c, 3, 57, 100
5, 100434, Note_on_c, 3, 57, 0
5, 100440, Note_on_c, 3, 52, 100
5, 100494, Note_on_c, 3, 52, 0
5, 100500, Note_on_c, 3, 49, 100
5, 100554, Note_on_c, 3, 49, 0
5, 100560, Note_on_c, 3, 45, 100
5, 100668, Note_on_c, 3, 45, 0
5, 100680, Note_on_c, 3, 57, 100
5, 100788, Note_on_c, 3, 57, 0
5, 100800, Note_on_c, 3, 50, 100
5, 100854, Note_on_c, 3, 50, 0
5, 100860, Note_on_c, 3, 62, 100
5, 100914, Note_on_c, 3, 62, 0
5, 100920, Note_on_c, 3, 57, 100
5, 100974, Note_on_c, 3, 57, 0
5, 100980, Note_on_c, 3, 54, 100
5, 101034, Note_on_c, 3, 54, 0
5, 101040, Note_on_c, 3, 50, 100
5, 101148, Note_on_c, 3, 50, 0
5, 101160, Note_on_c, 3, 62, 100
5, 101268, Note_on_c, 3, 62, 0
5, 101280, Note_on_c, 3, 43, 100
5, 101334, Note_on_c, 3, 43, 0
5, 101340, Note_on_c, 3, 55, 100
5, 101394, Note_on_c, 3, 55, 0
5, 101400, Note_on_c, 3, 50, 100
5, 101454, Note_on_c, 3, 50, 0
5, 101460, Note_on_c, 3, 47, 100
5, 101514, Note_on_c, 3, 47, 0
5, 101520, Note_on_c, 3, 43, 100
5, 101628, Note_on_c, 3, 43, 0
5, 101640, Note_on_c, 3, 55, 100
5, 101748, Note_on_c, 3, 55, 0
5, 101760, Note_on_c, 3, 48, 100
5, 101814, Note_on_c, 3, 48, 0
5, 101820, Note_on_c, 3, 60, 100
5, 101874, Note_on_c, 3, 60, 0
5, 101880, Note_on_c, 3, 55, 100
5, 101934, Note_on_c, 3, 55, 0
5, 101940, Note_on_c, 3, 52, 100
5, 101994, Note_on_c, 3, 52, 0
5, 102000, Note_on_c, 3, 48, 100
5, 102108, Note_on_c, 3, 48, 0
5, 102120, Note_on_c, 3, 60, 100
5, 102228, Note_on_c, 3, 60, 0
5, 102240, Note_on_c, 3, 54, 100
5, 102456, Note_on_c, 3, 54, 0
5, 103320, Note_on_c, 3, 50, 100
5, 103320, Note_on_c, 3, 54, 100
5, 103320, Note_on_c, 3, 57, 100
5, 103428, Note_on_c, 3, 57, 0
5, 103428, Note_on_c, 3, 54, 0
5, 103428, Note_on_c, 3, 50, 0
5, 103440, Note_on_c, 3, 50, 100
5, 103440, Note_on_c, 3, 54, 100
5, 103440, Note_on_c, 3, 57, 100
5, 103548, Note_on_c, 3, 57, 0
5, 103548, Note_on_c, 3, 54, 0
5, 103548, Note_on_c, 3, 50, 0
5, 103560, Note_on_c, 3, 50, 100
5, 103560, Note_on_c, 3, 54, 100
5, 103560, Note_on_c, 3, 57, 100
5, 103668, Note_on_c, 3, 57, 0
5, 103668, Note_on_c, 3, 54, 0
5, 103668, Note_on_c, 3, 50, 0
5, 103680, Note_on_c, 3, 43, 100
5, 103680, Note_on_c, 3, 50, 100
5, 103680, Note_on_c, 3, 55, 100
5, 103788, Note_on_c, 3, 55, 0
5, 103788, Note_on_c, 3, 50, 0
5, 103788, Note_on_c, 3, 43, 0
5, 104220, Note_on_c, 3, 53, 100
5, 104247, Note_on_c, 3, 53, 0
5, 104250, Note_on_c, 3, 52, 100
5, 104277, Note_on_c, 3, 52, 0
5, 104280, Note_on_c, 3, 50, 100
5, 104334, Note_on_c, 3, 50, 0
5, 104340, Note_on_c, 3, 52, 100
5, 104367, Note_on_c, 3, 52, 0
5, 104370, Note_on_c, 3, 53, 100
5, 104397, Note_on_c, 3, 53, 0
5, 104400, Note_on_c, 3, 47, 100
5, 104454, Note_on_c, 3, 47, 0
5, 104460, Note_on_c, 3, 50, 100
5, 104487, Note_on_c, 3, 50, 0
5, 104490, Note_on_c, 3, 48, 100
5, 104517, Note_on_c, 3, 48, 0
5, 104520, Note_on_c, 3, 47, 100
5, 104574, Note_on_c, 3, 47, 0
5, 104580, Note_on_c, 3, 48, 100
5, 104607, Note_on_c, 3, 48, 0
5, 104610, Note_on_c, 3, 50, 100
5, 104637, Note_on_c, 3, 50, 0
5, 104640, Note_on_c, 3, 43, 100
5, 104748, Note_on_c, 3, 43, 0
5, 104760, Note_on_c, 3, 55, 100
5, 104760, Note_on_c, 3, 59, 100
5, 104760, Note_on_c, 3, 62, 100
5, 104868, Note_on_c, 3, 62, 0
5, 104868, Note_on_c, 3, 59, 0
5, 104868, Note_on_c, 3, 55, 0
5, 104880, Note_on_c, 3, 55, 100
5, 104880, Note_on_c, 3, 59, 100
5, 104880, Note_on_c, 3, 62, 100
5, 104988, Note_on_c, 3, 62, 0
5, 104988, Note_on_c, 3, 59, 0
5, 104988, Note_on_c, 3, 55, 0
5, 105000, Note_on_c, 3, 55, 100
5, 105000, Note_on_c, 3, 59, 100
5, 105000, Note_on_c, 3, 62, 100
5, 105108, Note_on_c, 3, 62, 0
5, 105108, Note_on_c, 3, 59, 0
5, 105108, Note_on_c, 3, 55, 0
5, 105120, Note_on_c, 3, 48, 100
5, 105120, Note_on_c, 3, 55, 100
5, 105120, Note_on_c, 3, 60, 100
5, 105228, Note_on_c, 3, 60, 0
5, 105228, Note_on_c, 3, 55, 0
5, 105228, Note_on_c, 3, 48, 0
5, 106200, Note_on_c, 3, 48, 100
5, 106200, Note_on_c, 3, 52, 100
5, 106200, Note_on_c, 3, 55, 100
5, 106308, Note_on_c, 3, 55, 0
5, 106308, Note_on_c, 3, 52, 0
5, 106308, Note_on_c, 3, 48, 0
5, 106320, Note_on_c, 3, 48, 100
5, 106320, Note_on_c, 3, 52, 100
5, 106320, Note_on_c, 3, 55, 100
5, 106428, Note_on_c, 3, 55, 0
5, 106428, Note_on_c, 3, 52, 0
5, 106428, Note_on_c, 3, 48, 0
5, 106440, Note_on_c, 3, 60, 100
5, 106440, Note_on_c, 3, 48, 100
5, 106440, Note_on_c, 3, 52, 100
5, 106440, Note_on_c, 3, 55, 100
5, 106548, Note_on_c, 3, 55, 0
5, 106548, Note_on_c, 3, 52, 0
5, 106548, Note_on_c, 3, 48, 0
5, 106560, Note_on_c, 3, 53, 100
5, 106614, Note_on_c, 3, 60, 0
5, 106620, Note_on_c, 3, 58, 100
5, 106668, Note_on_c, 3, 53, 0
5, 106674, Note_on_c, 3, 58, 0
5, 106680, Note_on_c, 3, 57, 100
5, 106854, Note_on_c, 3, 57, 0
5, 106860, Note_on_c, 3, 53, 100
5, 106914, Note_on_c, 3, 53, 0
5, 106920, Note_on_c, 3, 55, 100
5, 106974, Note_on_c, 3, 55, 0
5, 106980, Note_on_c, 3, 57, 100
5, 107034, Note_on_c, 3, 57, 0
5, 107040, Note_on_c, 3, 62, 100
5, 107040, Note_on_c, 3, 55, 100
5, 107094, Note_on_c, 3, 62, 0
5, 107100, Note_on_c, 3, 60, 100
5, 107148, Note_on_c, 3, 55, 0
5, 107154, Note_on_c, 3, 60, 0
5, 107160, Note_on_c, 3, 59, 100
5, 107334, Note_on_c, 3, 59, 0
5, 107340, Note_on_c, 3, 55, 100
5, 107394, Note_on_c, 3, 55, 0
5, 107400, Note_on_c, 3, 57, 100
5, 107454, Note_on_c, 3, 57, 0
5, 107460, Note_on_c, 3, 59, 100
5, 107514, Note_on_c, 3, 59, 0
5, 107520, Note_on_c, 3, 64, 100
5, 107520, Note_on_c, 3, 57, 100
5, 107574, Note_on_c, 3, 64, 0
5, 107580, Note_on_c, 3, 62, 100
5, 107628, Note_on_c, 3, 57, 0
5, 107634, Note_on_c, 3, 62, 0
5, 107640, Note_on_c, 3, 60, 100
5, 107814, Note_on_c, 3, 60, 0
5, 107820, Note_on_c, 3, 57, 100
5, 107874, Note_on_c, 3, 57, 0
5, 107880, Note_on_c, 3, 59, 100
5, 107934, Note_on_c, 3, 59, 0
5, 107940, Note_on_c, 3, 60, 100
5, 107994, Note_on_c, 3, 60, 0
5, 108000, Note_on_c, 3, 65, 100
5, 108000, Note_on_c, 3, 59, 100
5, 108054, Note_on_c, 3, 65, 0
5, 108060, Note_on_c, 3, 64, 100
5, 108108, Note_on_c, 3, 59, 0
5, 108114, Note_on_c, 3, 64, 0
5, 108120, Note_on_c, 3, 62, 100
5, 108294, Note_on_c, 3, 62, 0
5, 108300, Note_on_c, 3, 59, 100
5, 108354, Note_on_c, 3, 59, 0
5, 108360, Note_on_c, 3, 60, 100
5, 108414, Note_on_c, 3, 60, 0
5, 108420, Note_on_c, 3, 62, 100
5, 108474, Note_on_c, 3, 62, 0
5, 108480, Note_on_c, 3, 60, 100
5, 108534, Note_on_c, 3, 60, 0
5, 108540, Note_on_c, 3, 60, 100
5, 108594, Note_on_c, 3, 60, 0
5, 108600, Note_on_c, 3, 64, 100
5, 108654, Note_on_c, 3, 64, 0
5, 108660, Note_on_c, 3, 67, 100
5, 108714, Note_on_c, 3, 67, 0
5, 108720, Note_on_c, 3, 72, 100
5, 108774, Note_on_c, 3, 72, 0
5, 108780, Note_on_c, 3, 70, 100
5, 108834, Note_on_c, 3, 70, 0
5, 108840, Note_on_c, 3, 69, 100
5, 108894, Note_on_c, 3, 69, 0
5, 108900, Note_on_c, 3, 67, 100
5, 108954, Note_on_c, 3, 67, 0
5, 108960, Note_on_c, 3, 69, 100
5, 109014, Note_on_c, 3, 69, 0
5, 109020, Note_on_c, 3, 67, 100
5, 109074, Note_on_c, 3, 67, 0
5, 109080, Note_on_c, 3, 65, 100
5, 109134, Note_on_c, 3, 65, 0
5, 109140, Note_on_c, 3, 64, 100
5, 109194, Note_on_c, 3, 64, 0
5, 109200, Note_on_c, 3, 65, 100
5, 109254, Note_on_c, 3, 65, 0
5, 109260, Note_on_c, 3, 64, 100
5, 109314, Note_on_c, 3, 64, 0
5, 109320, Note_on_c, 3, 62, 100
5, 109374, Note_on_c, 3, 62, 0
5, 109380, Note_on_c, 3, 60, 100
5, 109434, Note_on_c, 3, 60, 0
5, 109440, Note_on_c, 3, 62, 100
5, 109548, Note_on_c, 3, 62, 0
5, 109560, Note_on_c, 3, 67, 100
5, 109668, Note_on_c, 3, 67, 0
5, 109680, Note_on_c, 3, 55, 100
5, 109788, Note_on_c, 3, 55, 0
5, 109800, Note_on_c, 3, 67, 100
5, 109908, Note_on_c, 3, 67, 0
5, 110040, Note_on_c, 3, 67, 100
5, 110148, Note_on_c, 3, 67, 0
5, 110160, Note_on_c, 3, 55, 100
5, 110268, Note_on_c, 3, 55, 0
5, 110280, Note_on_c, 3, 67, 100
5, 110388, Note_on_c, 3, 67, 0
5, 110520, Note_on_c, 3, 67, 100
5, 110628, Note_on_c, 3, 67, 0
5, 110640, Note_on_c, 3, 55, 100
5, 110748, Note_on_c, 3, 55, 0
5, 110760, Note_on_c, 3, 67, 100
5, 110868, Note_on_c, 3, 67, 0
5, 111000, Note_on_c, 3, 67, 100
5, 111108, Note_on_c, 3, 67, 0
5, 111120, Note_on_c, 3, 55, 100
5, 111228, Note_on_c, 3, 55, 0
5, 111240, Note_on_c, 3, 67, 100
5, 111348, Note_on_c, 3, 67, 0
5, 111480, Note_on_c, 3, 67, 100
5, 111588, Note_on_c, 3, 67, 0
5, 111600, Note_on_c, 3, 55, 100
5, 111708, Note_on_c, 3, 55, 0
5, 111720, Note_on_c, 3, 67, 100
5, 111828, Note_on_c, 3, 67, 0
5, 111960, Note_on_c, 3, 67, 100
5, 112068, Note_on_c, 3, 67, 0
5, 112080, Note_on_c, 3, 55, 100
5, 112188, Note_on_c, 3, 55, 0
5, 112200, Note_on_c, 3, 67, 100
5, 112308, Note_on_c, 3, 67, 0
5, 112440, Note_on_c, 3, 67, 100
5, 112548, Note_on_c, 3, 67, 0
5, 112560, Note_on_c, 3, 55, 100
5, 112668, Note_on_c, 3, 55, 0
5, 112680, Note_on_c, 3, 67, 100
5, 112788, Note_on_c, 3, 67, 0
5, 112920, Note_on_c, 3, 67, 100
5, 113028, Note_on_c, 3, 67, 0
5, 113040, Note_on_c, 3, 55, 100
5, 113148, Note_on_c, 3, 55, 0
5, 113160, Note_on_c, 3, 67, 100
5, 113268, Note_on_c, 3, 67, 0
5, 113400, Note_on_c, 3, 67, 100
5, 113508, Note_on_c, 3, 67, 0
5, 113520, Note_on_c, 3, 55, 100
5, 113628, Note_on_c, 3, 55, 0
5, 113640, Note_on_c, 3, 67, 100
5, 113748, Note_on_c, 3, 67, 0
5, 113880, Note_on_c, 3, 67, 100
5, 113988, Note_on_c, 3, 67, 0
5, 114000, Note_on_c, 3, 55, 100
5, 114108, Note_on_c, 3, 55, 0
5, 114120, Note_on_c, 3, 67, 100
5, 114228, Note_on_c, 3, 67, 0
5, 114240, Note_on_c, 3, 55, 100
5, 114294, Note_on_c, 3, 55, 0
5, 114300, Note_on_c, 3, 57, 100
5, 114354, Note_on_c, 3, 57, 0
5, 114360, Note_on_c, 3, 59, 100
5, 114414, Note_on_c, 3, 59, 0
5, 114420, Note_on_c, 3, 55, 100
5, 114474, Note_on_c, 3, 55, 0
5, 114480, Note_on_c, 3, 52, 100
5, 114534, Note_on_c, 3, 52, 0
5, 114540, Note_on_c, 3, 53, 100
5, 114594, Note_on_c, 3, 53, 0
5, 114600, Note_on_c, 3, 55, 100
5, 114654, Note_on_c, 3, 55, 0
5, 114660, Note_on_c, 3, 52, 100
5, 114714, Note_on_c, 3, 52, 0
5, 114720, Note_on_c, 3, 49, 100
5, 114774, Note_on_c, 3, 49, 0
5, 114780, Note_on_c, 3, 50, 100
5, 114834, Note_on_c, 3, 50, 0
5, 114840, Note_on_c, 3, 52, 100
5, 114894, Note_on_c, 3, 52, 0
5, 114900, Note_on_c, 3, 49, 100
5, 114954, Note_on_c, 3, 49, 0
5, 114960, Note_on_c, 3, 45, 100
5, 115014, Note_on_c, 3, 45, 0
5, 115020, Note_on_c, 3, 47, 100
5, 115074, Note_on_c, 3, 47, 0
5, 115080, Note_on_c, 3, 49, 100
5, 115134, Note_on_c, 3, 49, 0
5, 115140, Note_on_c, 3, 45, 100
5, 115194, Note_on_c, 3, 45, 0
5, 115200, Note_on_c, 3, 53, 100
5, 115254, Note_on_c, 3, 53, 0
5, 115260, Note_on_c, 3, 55, 100
5, 115314, Note_on_c, 3, 55, 0
5, 115320, Note_on_c, 3, 57, 100
5, 115374, Note_on_c, 3, 57, 0
5, 115380, Note_on_c, 3, 53, 100
5, 115434, Note_on_c, 3, 53, 0
5, 115440, Note_on_c, 3, 50, 100
5, 115494, Note_on_c, 3, 50, 0
5, 115500, Note_on_c, 3, 52, 100
5, 115554, Note_on_c, 3, 52, 0
5, 115560, Note_on_c, 3, 53, 100
5, 115614, Note_on_c, 3, 53, 0
5, 115620, Note_on_c, 3, 50, 100
5, 115674, Note_on_c, 3, 50, 0
5, 115680, Note_on_c, 3, 47, 100
5, 115734, Note_on_c, 3, 47, 0
5, 115740, Note_on_c, 3, 48, 100
5, 115794, Note_on_c, 3, 48, 0
5, 115800, Note_on_c, 3, 50, 100
5, 115854, Note_on_c, 3, 50, 0
5, 115860, Note_on_c, 3, 47, 100
5, 115914, Note_on_c, 3, 47, 0
5, 115920, Note_on_c, 3, 43, 100
5, 115974, Note_on_c, 3, 43, 0
5, 115980, Note_on_c, 3, 45, 100
5, 116034, Note_on_c, 3, 45, 0
5, 116040, Note_on_c, 3, 47, 100
5, 116094, Note_on_c, 3, 47, 0
5, 116100, Note_on_c, 3, 43, 100
5, 116154, Note_on_c, 3, 43, 0
5, 116160, Note_on_c, 3, 52, 100
5, 116214, Note_on_c, 3, 52, 0
5, 116220, Note_on_c, 3, 53, 100
5, 116274, Note_on_c, 3, 53, 0
5, 116280, Note_on_c, 3, 55, 100
5, 116334, Note_on_c, 3, 55, 0
5, 116340, Note_on_c, 3, 52, 100
5, 116394, Note_on_c, 3, 52, 0
5, 116400, Note_on_c, 3, 48, 100
5, 116454, Note_on_c, 3, 48, 0
5, 116460, Note_on_c, 3, 50, 100
5, 116514, Note_on_c, 3, 50, 0
5, 116520, Note_on_c, 3, 52, 100
5, 116574, Note_on_c, 3, 52, 0
5, 116580, Note_on_c, 3, 48, 100
5, 116634, Note_on_c, 3, 48, 0
5, 116640, Note_on_c, 3, 45, 100
5, 116694, Note_on_c, 3, 45, 0
5, 116700, Note_on_c, 3, 47, 100
5, 116754, Note_on_c, 3, 47, 0
5, 116760, Note_on_c, 3, 48, 100
5, 116814, Note_on_c, 3, 48, 0
5, 116820, Note_on_c, 3, 45, 100
5, 116874, Note_on_c, 3, 45, 0
5, 116880, Note_on_c, 3, 42, 100
5, 116934, Note_on_c, 3, 42, 0
5, 116940, Note_on_c, 3, 43, 100
5, 116994, Note_on_c, 3, 43, 0
5, 117000, Note_on_c, 3, 45, 100
5, 117054, Note_on_c, 3, 45, 0
5, 117060, Note_on_c, 3, 42, 100
5, 117114, Note_on_c, 3, 42, 0
5, 117120, Note_on_c, 3, 43, 100
5, 117228, Note_on_c, 3, 43, 0
5, 117240, Note_on_c, 3, 55, 100
5, 117348, Note_on_c, 3, 55, 0
5, 117360, Note_on_c, 3, 48, 100
5, 117468, Note_on_c, 3, 48, 0
5, 117480, Note_on_c, 3, 52, 100
5, 117588, Note_on_c, 3, 52, 0
5, 117600, Note_on_c, 3, 41, 100
5, 117708, Note_on_c, 3, 41, 0
5, 117720, Note_on_c, 3, 53, 100
5, 117828, Note_on_c, 3, 53, 0
5, 117840, Note_on_c, 3, 47, 100
5, 117948, Note_on_c, 3, 47, 0
5, 117960, Note_on_c, 3, 50, 100
5, 118068, Note_on_c, 3, 50, 0
5, 118080, Note_on_c, 3, 40, 100
5, 118188, Note_on_c, 3, 40, 0
5, 118200, Note_on_c, 3, 52, 100
5, 118308, Note_on_c, 3, 52, 0
5, 118320, Note_on_c, 3, 45, 100
5, 118428, Note_on_c, 3, 45, 0
5, 118440, Note_on_c, 3, 48, 100
5, 118548, Note_on_c, 3, 48, 0
5, 118560, Note_on_c, 3, 38, 100
5, 118668, Note_on_c, 3, 38, 0
5, 118680, Note_on_c, 3, 50, 100
5, 118788, Note_on_c, 3, 50, 0
5, 118800, Note_on_c, 3, 43, 100
5, 118908, Note_on_c, 3, 43, 0
5, 118920, Note_on_c, 3, 47, 100
5, 119028, Note_on_c, 3, 47, 0
5, 119040, Note_on_c, 3, 36, 100
5, 119148, Note_on_c, 3, 36, 0
5, 119160, Note_on_c, 3, 48, 100
5, 119268, Note_on_c, 3, 48, 0
5, 119400, Note_on_c, 3, 48, 100
5, 119508, Note_on_c, 3, 48, 0
5, 119520, Note_on_c, 3, 53, 100
5, 119628, Note_on_c, 3, 53, 0
5, 119640, Note_on_c, 3, 41, 100
5, 119748, Note_on_c, 3, 41, 0
5, 119880, Note_on_c, 3, 50, 100
5, 119988, Note_on_c, 3, 50, 0
5, 120000, Note_on_c, 3, 55, 100
5, 120108, Note_on_c, 3, 55, 0
5, 120120, Note_on_c, 3, 43, 100
5, 120228, Note_on_c, 3, 43, 0
5, 120360, Note_on_c, 3, 52, 100
5, 120468, Note_on_c, 3, 52, 0
5, 120480, Note_on_c, 3, 57, 100
5, 120588, Note_on_c, 3, 57, 0
5, 120600, Note_on_c, 3, 45, 100
5, 120708, Note_on_c, 3, 45, 0
5, 120840, Note_on_c, 3, 53, 100
5, 120948, Note_on_c, 3, 53, 0
5, 120960, Note_on_c, 3, 59, 100
5, 121068, Note_on_c, 3, 59, 0
5, 121080, Note_on_c, 3, 47, 100
5, 121188, Note_on_c, 3, 47, 0
5, 121320, Note_on_c, 3, 55, 100
5, 121428, Note_on_c, 3, 55, 0
5, 121440, Note_on_c, 3, 48, 100
5, 121548, Note_on_c, 3, 48, 0
5, 121560, Note_on_c, 3, 50, 100
5, 121668, Note_on_c, 3, 50, 0
5, 121680, Note_on_c, 3, 52, 100
5, 121788, Note_on_c, 3, 52, 0
5, 121800, Note_on_c, 3, 53, 100
5, 121908, Note_on_c, 3, 53, 0
5, 121920, Note_on_c, 3, 55, 100
5, 122028, Note_on_c, 3, 55, 0
5, 122040, Note_on_c, 3, 57, 100
5, 122148, Note_on_c, 3, 57, 0
5, 122160, Note_on_c, 3, 59, 100
5, 122268, Note_on_c, 3, 59, 0
5, 122280, Note_on_c, 3, 55, 100
5, 122388, Note_on_c, 3, 55, 0
5, 122400, Note_on_c, 3, 60, 100
5, 122508, Note_on_c, 3, 60, 0
5, 122520, Note_on_c, 3, 64, 100
5, 122628, Note_on_c, 3, 64, 0
5, 122640, Note_on_c, 3, 67, 100
5, 122748, Note_on_c, 3, 67, 0
5, 122760, Note_on_c, 3, 64, 100
5, 122868, Note_on_c, 3, 64, 0
5, 122880, Note_on_c, 3, 60, 100
5, 122988, Note_on_c, 3, 60, 0
5, 123000, Note_on_c, 3, 65, 100
5, 123108, Note_on_c, 3, 65, 0
5, 123120, Note_on_c, 3, 53, 100
5, 123228, Note_on_c, 3, 53, 0
5, 123240, Note_on_c, 3, 65, 100
5, 123348, Note_on_c, 3, 65, 0
5, 123360, Note_on_c, 3, 59, 100
5, 123468, Note_on_c, 3, 59, 0
5, 123480, Note_on_c, 3, 62, 100
5, 123588, Note_on_c, 3, 62, 0
5, 123600, Note_on_c, 3, 65, 100
5, 123708, Note_on_c, 3, 65, 0
5, 123720, Note_on_c, 3, 62, 100
5, 123828, Note_on_c, 3, 62, 0
5, 123840, Note_on_c, 3, 59, 100
5, 123948, Note_on_c, 3, 59, 0
5, 123960, Note_on_c, 3, 64, 100
5, 124068, Note_on_c, 3, 64, 0
5, 124080, Note_on_c, 3, 52, 100
5, 124188, Note_on_c, 3, 52, 0
5, 124200, Note_on_c, 3, 64, 100
5, 124308, Note_on_c, 3, 64, 0
5, 124320, Note_on_c, 3, 57, 100
5, 124428, Note_on_c, 3, 57, 0
5, 124440, Note_on_c, 3, 60, 100
5, 124548, Note_on_c, 3, 60, 0
5, 124560, Note_on_c, 3, 64, 100
5, 124668, Note_on_c, 3, 64, 0
5, 124680, Note_on_c, 3, 60, 100
5, 124788, Note_on_c, 3, 60, 0
5, 124800, Note_on_c, 3, 57, 100
5, 124908, Note_on_c, 3, 57, 0
5, 124920, Note_on_c, 3, 62, 100
5, 125028, Note_on_c, 3, 62, 0
5, 125040, Note_on_c, 3, 50, 100
5, 125148, Note_on_c, 3, 50, 0
5, 125160, Note_on_c, 3, 62, 100
5, 125268, Note_on_c, 3, 62, 0
5, 125280, Note_on_c, 3, 55, 100
5, 125388, Note_on_c, 3, 55, 0
5, 125400, Note_on_c, 3, 59, 100
5, 125508, Note_on_c, 3, 59, 0
5, 125520, Note_on_c, 3, 62, 100
5, 125628, Note_on_c, 3, 62, 0
5, 125640, Note_on_c, 3, 55, 100
5, 125748, Note_on_c, 3, 55, 0
5, 125760, Note_on_c, 3, 60, 100
5, 125868, Note_on_c, 3, 60, 0
5, 125880, Note_on_c, 3, 62, 100
5, 125988, Note_on_c, 3, 62, 0
5, 126000, Note_on_c, 3, 64, 100
5, 126108, Note_on_c, 3, 64, 0
5, 126120, Note_on_c, 3, 60, 100
5, 126228, Note_on_c, 3, 60, 0
5, 126240, Note_on_c, 3, 64, 100
5, 126348, Note_on_c, 3, 64, 0
5, 126360, Note_on_c, 3, 65, 100
5, 126468, Note_on_c, 3, 65, 0
5, 126480, Note_on_c, 3, 67, 100
5, 126588, Note_on_c, 3, 67, 0
5, 126600, Note_on_c, 3, 55, 100
5, 126708, Note_on_c, 3, 55, 0
5, 126720, Note_on_c, 3, 60, 100
5, 126828, Note_on_c, 3, 60, 0
5, 126840, Note_on_c, 3, 55, 100
5, 126948, Note_on_c, 3, 55, 0
5, 126960, Note_on_c, 3, 60, 100
5, 127068, Note_on_c, 3, 60, 0
5, 127080, Note_on_c, 3, 55, 100
5, 127188, Note_on_c, 3, 55, 0
5, 127200, Note_on_c, 3, 60, 100
5, 127308, Note_on_c, 3, 60, 0
5, 127320, Note_on_c, 3, 59, 100
5, 127374, Note_on_c, 3, 59, 0
5, 127380, Note_on_c, 3, 57, 100
5, 127434, Note_on_c, 3, 57, 0
5, 127440, Note_on_c, 3, 55, 100
5, 127548, Note_on_c, 3, 55, 0
5, 127560, Note_on_c, 3, 57, 100
5, 127614, Note_on_c, 3, 57, 0
5, 127620, Note_on_c, 3, 59, 100
5, 127674, Note_on_c, 3, 59, 0
5, 127680, Note_on_c, 3, 60, 100
5, 127788, Note_on_c, 3, 60, 0
5, 127800, Note_on_c, 3, 59, 100
5, 127854, Note_on_c, 3, 59, 0
5, 127860, Note_on_c, 3, 57, 100
5, 127914, Note_on_c, 3, 57, 0
5, 127920, Note_on_c, 3, 55, 100
5, 128028, Note_on_c, 3, 55, 0
5, 128040, Note_on_c, 3, 53, 100
5, 128148, Note_on_c, 3, 53, 0
5, 128160, Note_on_c, 3, 52, 100
5, 128214, Note_on_c, 3, 52, 0
5, 128220, Note_on_c, 3, 53, 100
5, 128274, Note_on_c, 3, 53, 0
5, 128280, Note_on_c, 3, 55, 100
5, 128334, Note_on_c, 3, 55, 0
5, 128340, Note_on_c, 3, 52, 100
5, 128394, Note_on_c, 3, 52, 0
5, 128400, Note_on_c, 3, 48, 100
5, 128454, Note_on_c, 3, 48, 0
5, 128460, Note_on_c, 3, 50, 100
5, 128514, Note_on_c, 3, 50, 0
5, 128520, Note_on_c, 3, 52, 100
5, 128574, Note_on_c, 3, 52, 0
5, 128580, Note_on_c, 3, 54, 100
5, 128634, Note_on_c, 3, 54, 0
5, 128640, Note_on_c, 3, 55, 100
5, 128748, Note_on_c, 3, 55, 0
5, 128760, Note_on_c, 3, 50, 100
5, 128868, Note_on_c, 3, 50, 0
5, 128880, Note_on_c, 3, 55, 100
5, 128988, Note_on_c, 3, 55, 0
5, 129000, Note_on_c, 3, 50, 100
5, 129108, Note_on_c, 3, 50, 0
5, 129120, Note_on_c, 3, 55, 100
5, 129228, Note_on_c, 3, 55, 0
5, 129240, Note_on_c, 3, 54, 100
5, 129294, Note_on_c, 3, 54, 0
5, 129300, Note_on_c, 3, 52, 100
5, 129354, Note_on_c, 3, 52, 0
5, 129360, Note_on_c, 3, 50, 100
5, 129468, Note_on_c, 3, 50, 0
5, 129480, Note_on_c, 3, 52, 100
5, 129534, Note_on_c, 3, 52, 0
5, 129540, Note_on_c, 3, 54, 100
5, 129594, Note_on_c, 3, 54, 0
5, 129600, Note_on_c, 3, 55, 100
5, 129708, Note_on_c, 3, 55, 0
5, 129720, Note_on_c, 3, 54, 100
5, 129774, Note_on_c, 3, 54, 0
5, 129780, Note_on_c, 3, 52, 100
5, 129834, Note_on_c, 3, 52, 0
5, 129840, Note_on_c, 3, 50, 100
5, 129948, Note_on_c, 3, 50, 0
5, 129960, Note_on_c, 3, 48, 100
5, 130068, Note_on_c, 3, 48, 0
5, 130080, Note_on_c, 3, 47, 100
5, 130134, Note_on_c, 3, 47, 0
5, 130140, Note_on_c, 3, 48, 100
5, 130194, Note_on_c, 3, 48, 0
5, 130200, Note_on_c, 3, 50, 100
5, 130254, Note_on_c, 3, 50, 0
5, 130260, Note_on_c, 3, 47, 100
5, 130314, Note_on_c, 3, 47, 0
5, 130320, Note_on_c, 3, 43, 100
5, 130374, Note_on_c, 3, 43, 0
5, 130380, Note_on_c, 3, 47, 100
5, 130434, Note_on_c, 3, 47, 0
5, 130440, Note_on_c, 3, 50, 100
5, 130494, Note_on_c, 3, 50, 0
5, 130500, Note_on_c, 3, 53, 100
5, 130554, Note_on_c, 3, 53, 0
5, 130560, Note_on_c, 3, 48, 100
5, 130614, Note_on_c, 3, 48, 0
5, 130620, Note_on_c, 3, 50, 100
5, 130674, Note_on_c, 3, 50, 0
5, 130680, Note_on_c, 3, 52, 100
5, 130734, Note_on_c, 3, 52, 0
5, 130740, Note_on_c, 3, 48, 100
5, 130794, Note_on_c, 3, 48, 0
5, 130800, Note_on_c, 3, 43, 100
5, 130854, Note_on_c, 3, 43, 0
5, 130860, Note_on_c, 3, 48, 100
5, 130914, Note_on_c, 3, 48, 0
5, 130920, Note_on_c, 3, 52, 100
5, 130974, Note_on_c, 3, 52, 0
5, 130980, Note_on_c, 3, 55, 100
5, 131034, Note_on_c, 3, 55, 0
5, 131040, Note_on_c, 3, 50, 100
5, 131094, Note_on_c, 3, 50, 0
5, 131100, Note_on_c, 3, 52, 100
5, 131154, Note_on_c, 3, 52, 0
5, 131160, Note_on_c, 3, 53, 100
5, 131214, Note_on_c, 3, 53, 0
5, 131220, Note_on_c, 3, 50, 100
5, 131274, Note_on_c, 3, 50, 0
5, 131280, Note_on_c, 3, 47, 100
5, 131334, Note_on_c, 3, 47, 0
5, 131340, Note_on_c, 3, 50, 100
5, 131394, Note_on_c, 3, 50, 0
5, 131400, Note_on_c, 3, 53, 100
5, 131454, Note_on_c, 3, 53, 0
5, 131460, Note_on_c, 3, 57, 100
5, 131514, Note_on_c, 3, 57, 0
5, 131520, Note_on_c, 3, 55, 100
5, 131574, Note_on_c, 3, 55, 0
5, 131580, Note_on_c, 3, 53, 100
5, 131634, Note_on_c, 3, 53, 0
5, 131640, Note_on_c, 3, 52, 100
5, 131694, Note_on_c, 3, 52, 0
5, 131700, Note_on_c, 3, 53, 100
5, 131754, Note_on_c, 3, 53, 0
5, 131760, Note_on_c, 3, 55, 100
5, 131814, Note_on_c, 3, 55, 0
5, 131820, Note_on_c, 3, 52, 100
5, 131874, Note_on_c, 3, 52, 0
5, 131880, Note_on_c, 3, 48, 100
5, 131934, Note_on_c, 3, 48, 0
5, 131940, Note_on_c, 3, 45, 100
5, 131994, Note_on_c, 3, 45, 0
5, 132000, Note_on_c, 3, 53, 100
5, 132054, Note_on_c, 3, 53, 0
5, 132060, Note_on_c, 3, 52, 100
5, 132114, Note_on_c, 3, 52, 0
5, 132120, Note_on_c, 3, 50, 100
5, 132174, Note_on_c, 3, 50, 0
5, 132180, Note_on_c, 3, 52, 100
5, 132234, Note_on_c, 3, 52, 0
5, 132240, Note_on_c, 3, 53, 100
5, 132294, Note_on_c, 3, 53, 0
5, 132300, Note_on_c, 3, 50, 100
5, 132354, Note_on_c, 3, 50, 0
5, 132360, Note_on_c, 3, 47, 100
5, 132414, Note_on_c, 3, 47, 0
5, 132420, Note_on_c, 3, 43, 100
5, 132474, Note_on_c, 3, 43, 0
5, 132480, Note_on_c, 3, 52, 100
5, 132534, Note_on_c, 3, 52, 0
5, 132540, Note_on_c, 3, 53, 100
5, 132594, Note_on_c, 3, 53, 0
5, 132600, Note_on_c, 3, 55, 100
5, 132654, Note_on_c, 3, 55, 0
5, 132660, Note_on_c, 3, 52, 100
5, 132714, Note_on_c, 3, 52, 0
5, 132720, Note_on_c, 3, 48, 100
5, 132774, Note_on_c, 3, 48, 0
5, 132780, Note_on_c, 3, 50, 100
5, 132834, Note_on_c, 3, 50, 0
5, 132840, Note_on_c, 3, 52, 100
5, 132894, Note_on_c, 3, 52, 0
5, 132900, Note_on_c, 3, 48, 100
5, 132954, Note_on_c, 3, 48, 0
5, 132960, Note_on_c, 3, 45, 100
5, 133014, Note_on_c, 3, 45, 0
5, 133020, Note_on_c, 3, 47, 100
5, 133074, Note_on_c, 3, 47, 0
5, 133080, Note_on_c, 3, 48, 100
5, 133134, Note_on_c, 3, 48, 0
5, 133140, Note_on_c, 3, 45, 100
5, 133194, Note_on_c, 3, 45, 0
5, 133200, Note_on_c, 3, 41, 100
5, 133254, Note_on_c, 3, 41, 0
5, 133260, Note_on_c, 3, 43, 100
5, 133314, Note_on_c, 3, 43, 0
5, 133320, Note_on_c, 3, 45, 100
5, 133374, Note_on_c, 3, 45, 0
5, 133380, Note_on_c, 3, 41, 100
5, 133434, Note_on_c, 3, 41, 0
5, 133440, Note_on_c, 3, 38, 100
5, 133602, Note_on_c, 3, 38, 0
5, 133620, Note_on_c, 3, 40, 100
5, 133674, Note_on_c, 3, 40, 0
5, 133680, Note_on_c, 3, 41, 100
5, 133734, Note_on_c, 3, 41, 0
5, 133740, Note_on_c, 3, 43, 100
5, 133794, Note_on_c, 3, 43, 0
5, 133800, Note_on_c, 3, 45, 100
5, 133854, Note_on_c, 3, 45, 0
5, 133860, Note_on_c, 3, 47, 100
5, 133914, Note_on_c, 3, 47, 0
5, 133920, Note_on_c, 3, 48, 100
5, 133974, Note_on_c, 3, 48, 0
5, 133980, Note_on_c, 3, 50, 100
5, 134034, Note_on_c, 3, 50, 0
5, 134040, Note_on_c, 3, 52, 100
5, 134094, Note_on_c, 3, 52, 0
5, 134100, Note_on_c, 3, 53, 100
5, 134154, Note_on_c, 3, 53, 0
5, 134160, Note_on_c, 3, 55, 100
5, 134268, Note_on_c, 3, 55, 0
5, 134280, Note_on_c, 3, 43, 100
5, 134388, Note_on_c, 3, 43, 0
5, 134400, Note_on_c, 3, 48, 100
5, 134616, Note_on_c, 3, 48, 0
5, 134616, End_track
6, 0, Start_track
6, 0, Title_t, "Cembalo III"
6, 0, Program_c, 4, 6
6, 0, Control_c, 4, 7, 80
6, 0, Control_c, 4, 10, 30
6, 0, Note_on_c, 4, 72, 100
6, 108, Note_on_c, 4, 72, 0
6, 120, Note_on_c, 4, 67, 100
6, 228, Note_on_c, 4, 67, 0
6, 240, Note_on_c, 4, 72, 100
6, 348, Note_on_c, 4, 72, 0
6, 360, Note_on_c, 4, 67, 100
6, 468, Note_on_c, 4, 67, 0
6, 480, Note_on_c, 4, 72, 100
6, 588, Note_on_c, 4, 72, 0
6, 600, Note_on_c, 4, 71, 100
6, 654, Note_on_c, 4, 71, 0
6, 660, Note_on_c, 4, 69, 100
6, 714, Note_on_c, 4, 69, 0
6, 720, Note_on_c, 4, 67, 100
6, 828, Note_on_c, 4, 67, 0
6, 840, Note_on_c, 4, 69, 100
6, 894, Note_on_c, 4, 69, 0
6, 900, Note_on_c, 4, 71, 100
6, 954, Note_on_c, 4, 71, 0
6, 960, Note_on_c, 4, 72, 100
6, 1068, Note_on_c, 4, 72, 0
6, 1080, Note_on_c, 4, 71, 100
6, 1134, Note_on_c, 4, 71, 0
6, 1140, Note_on_c, 4, 69, 100
6, 1194, Note_on_c, 4, 69, 0
6, 1200, Note_on_c, 4, 67, 100
6, 1308, Note_on_c, 4, 67, 0
6, 1320, Note_on_c, 4, 65, 100
6, 1428, Note_on_c, 4, 65, 0
6, 1440, Note_on_c, 4, 64, 100
6, 1494, Note_on_c, 4, 64, 0
6, 1500, Note_on_c, 4, 65, 100
6, 1554, Note_on_c, 4, 65, 0
6, 1560, Note_on_c, 4, 67, 100
6, 1614, Note_on_c, 4, 67, 0
6, 1620, Note_on_c, 4, 64, 100
6, 1674, Note_on_c, 4, 64, 0
6, 1680, Note_on_c, 4, 60, 100
6, 1734, Note_on_c, 4, 60, 0
6, 1740, Note_on_c, 4, 62, 100
6, 1794, Note_on_c, 4, 62, 0
6, 1800, Note_on_c, 4, 64, 100
6, 1854, Note_on_c, 4, 64, 0
6, 1860, Note_on_c, 4, 66, 100
6, 1914, Note_on_c, 4, 66, 0
6, 1920, Note_on_c, 4, 67, 100
6, 2028, Note_on_c, 4, 67, 0
6, 2040, Note_on_c, 4, 62, 100
6, 2148, Note_on_c, 4, 62, 0
6, 2160, Note_on_c, 4, 67, 100
6, 2268, Note_on_c, 4, 67, 0
6, 2280, Note_on_c, 4, 62, 100
6, 2388, Note_on_c, 4, 62, 0
6, 2400, Note_on_c, 4, 67, 100
6, 2508, Note_on_c, 4, 67, 0
6, 2520, Note_on_c, 4, 66, 100
6, 2574, Note_on_c, 4, 66, 0
6, 2580, Note_on_c, 4, 64, 100
6, 2634, Note_on_c, 4, 64, 0
6, 2640, Note_on_c, 4, 62, 100
6, 2748, Note_on_c, 4, 62, 0
6, 2760, Note_on_c, 4, 64, 100
6, 2814, Note_on_c, 4, 64, 0
6, 2820, Note_on_c, 4, 66, 100
6, 2874, Note_on_c, 4, 66, 0
6, 2880, Note_on_c, 4, 67, 100
6, 2988, Note_on_c, 4, 67, 0
6, 3000, Note_on_c, 4, 66, 100
6, 3054, Note_on_c, 4, 66, 0
6, 3060, Note_on_c, 4, 64, 100
6, 3114, Note_on_c, 4, 64, 0
6, 3120, Note_on_c, 4, 62, 100
6, 3228, Note_on_c, 4, 62, 0
6, 3240, Note_on_c, 4, 60, 100
6, 3348, Note_on_c, 4, 60, 0
6, 3360, Note_on_c, 4, 59, 100
6, 3414, Note_on_c, 4, 59, 0
6, 3420, Note_on_c, 4, 60, 100
6, 3474, Note_on_c, 4, 60, 0
6, 3480, Note_on_c, 4, 62, 100
6, 3534, Note_on_c, 4, 62, 0
6, 3540, Note_on_c, 4, 59, 100
6, 3594, Note_on_c, 4, 59, 0
6, 3600, Note_on_c, 4, 55, 100
6, 3654, Note_on_c, 4, 55, 0
6, 3660, Note_on_c, 4, 59, 100
6, 3714, Note_on_c, 4, 59, 0
6, 3720, Note_on_c, 4, 62, 100
6, 3774, Note_on_c, 4, 62, 0
6, 3780, Note_on_c, 4, 65, 100
6, 3834, Note_on_c, 4, 65, 0
6, 3840, Note_on_c, 4, 60, 100
6, 3894, Note_on_c, 4, 60, 0
6, 3900, Note_on_c, 4, 62, 100
6, 3954, Note_on_c, 4, 62, 0
6, 3960, Note_on_c, 4, 64, 100
6, 4014, Note_on_c, 4, 64, 0
6, 4020, Note_on_c, 4, 60, 100
6, 4074, Note_on_c, 4, 60, 0
6, 4080, Note_on_c, 4, 55, 100
6, 4134, Note_on_c, 4, 55, 0
6, 4140, Note_on_c, 4, 60, 100
6, 4194, Note_on_c, 4, 60, 0
6, 4200, Note_on_c, 4, 64, 100
6, 4254, Note_on_c, 4, 64, 0
6, 4260, Note_on_c, 4, 67, 100
6, 4314, Note_on_c, 4, 67, 0
6, 4320, Note_on_c, 4, 62, 100
6, 4374, Note_on_c, 4, 62, 0
6, 4380, Note_on_c, 4, 64, 100
6, 4434, Note_on_c, 4, 64, 0
6, 4440, Note_on_c, 4, 65, 100
6, 4494, Note_on_c, 4, 65, 0
6, 4500, Note_on_c, 4, 62, 100
6, 4554, Note_on_c, 4, 62, 0
6, 4560, Note_on_c, 4, 59, 100
6, 4614, Note_on_c, 4, 59, 0
6, 4620, Note_on_c, 4, 62, 100
6, 4674, Note_on_c, 4, 62, 0
6, 4680, Note_on_c, 4, 65, 100
6, 4734, Note_on_c, 4, 65, 0
6, 4740, Note_on_c, 4, 69, 100
6, 4794, Note_on_c, 4, 69, 0
6, 4800, Note_on_c, 4, 67, 100
6, 4854, Note_on_c, 4, 67, 0
6, 4860, Note_on_c, 4, 65, 100
6, 4914, Note_on_c, 4, 65, 0
6, 4920, Note_on_c, 4, 64, 100
6, 4974, Note_on_c, 4, 64, 0
6, 4980, Note_on_c, 4, 65, 100
6, 5034, Note_on_c, 4, 65, 0
6, 5040, Note_on_c, 4, 67, 100
6, 5094, Note_on_c, 4, 67, 0
6, 5100, Note_on_c, 4, 64, 100
6, 5154, Note_on_c, 4, 64, 0
6, 5160, Note_on_c, 4, 60, 100
6, 5214, Note_on_c, 4, 60, 0
6, 5220, Note_on_c, 4, 57, 100
6, 5274, Note_on_c, 4, 57, 0
6, 5280, Note_on_c, 4, 65, 100
6, 5334, Note_on_c, 4, 65, 0
6, 5340, Note_on_c, 4, 64, 100
6, 5394, Note_on_c, 4, 64, 0
6, 5400, Note_on_c, 4, 62, 100
6, 5454, Note_on_c, 4, 62, 0
6, 5460, Note_on_c, 4, 64, 100
6, 5514, Note_on_c, 4, 64, 0
6, 5520, Note_on_c, 4, 65, 100
6, 5574, Note_on_c, 4, 65, 0
6, 5580, Note_on_c, 4, 62, 100
6, 5634, Note_on_c, 4, 62, 0
6, 5640, Note_on_c, 4, 59, 100
6, 5694, Note_on_c, 4, 59, 0
6, 5700, Note_on_c, 4, 55, 100
6, 5754, Note_on_c, 4, 55, 0
6, 5760, Note_on_c, 4, 64, 100
6, 5814, Note_on_c, 4, 64, 0
6, 5820, Note_on_c, 4, 65, 100
6, 5874, Note_on_c, 4, 65, 0
6, 5880, Note_on_c, 4, 67, 100
6, 5934, Note_on_c, 4, 67, 0
6, 5940, Note_on_c, 4, 64, 100
6, 5994, Note_on_c, 4, 64, 0
6, 6000, Note_on_c, 4, 60, 100
6, 6054, Note_on_c, 4, 60, 0
6, 6060, Note_on_c, 4, 62, 100
6, 6114, Note_on_c, 4, 62, 0
6, 6120, Note_on_c, 4, 64, 100
6, 6174, Note_on_c, 4, 64, 0
6, 6180, Note_on_c, 4, 60, 100
6, 6234, Note_on_c, 4, 60, 0
6, 6240, Note_on_c, 4, 57, 100
6, 6294, Note_on_c, 4, 57, 0
6, 6300, Note_on_c, 4, 59, 100
6, 6354, Note_on_c, 4, 59, 0
6, 6360, Note_on_c, 4, 60, 100
6, 6414, Note_on_c, 4, 60, 0
6, 6420, Note_on_c, 4, 57, 100
6, 6474, Note_on_c, 4, 57, 0
6, 6480, Note_on_c, 4, 53, 100
6, 6534, Note_on_c, 4, 53, 0
6, 6540, Note_on_c, 4, 55, 100
6, 6594, Note_on_c, 4, 55, 0
6, 6600, Note_on_c, 4, 57, 100
6, 6654, Note_on_c, 4, 57, 0
6, 6660, Note_on_c, 4, 53, 100
6, 6714, Note_on_c, 4, 53, 0
6, 6720, Note_on_c, 4, 50, 100
6, 6882, Note_on_c, 4, 50, 0
6, 6900, Note_on_c, 4, 52, 100
6, 6954, Note_on_c, 4, 52, 0
6, 6960, Note_on_c, 4, 53, 100
6, 7014, Note_on_c, 4, 53, 0
6, 7020, Note_on_c, 4, 55, 100
6, 7074, Note_on_c, 4, 55, 0
6, 7080, Note_on_c, 4, 57, 100
6, 7134, Note_on_c, 4, 57, 0
6, 7140, Note_on_c, 4, 59, 100
6, 7194, Note_on_c, 4, 59, 0
6, 7200, Note_on_c, 4, 60, 100
6, 7254, Note_on_c, 4, 60, 0
6, 7260, Note_on_c, 4, 62, 100
6, 7314, Note_on_c, 4, 62, 0
6, 7320, Note_on_c, 4, 64, 100
6, 7374, Note_on_c, 4, 64, 0
6, 7380, Note_on_c, 4, 65, 100
6, 7434, Note_on_c, 4, 65, 0
6, 7440, Note_on_c, 4, 67, 100
6, 7548, Note_on_c, 4, 67, 0
6, 7560, Note_on_c, 4, 55, 100
6, 7668, Note_on_c, 4, 55, 0
6, 7680, Note_on_c, 4, 72, 100
6, 7788, Note_on_c, 4, 72, 0
6, 7800, Note_on_c, 4, 67, 100
6, 7908, Note_on_c, 4, 67, 0
6, 7920, Note_on_c, 4, 72, 100
6, 8028, Note_on_c, 4, 72, 0
6, 8040, Note_on_c, 4, 67, 100
6, 8148, Note_on_c, 4, 67, 0
6, 8160, Note_on_c, 4, 72, 100
6, 8268, Note_on_c, 4, 72, 0
6, 8280, Note_on_c, 4, 71, 100
6, 8334, Note_on_c, 4, 71, 0
6, 8340, Note_on_c, 4, 69, 100
6, 8394, Note_on_c, 4, 69, 0
6, 8400, Note_on_c, 4, 67, 100
6, 8508, Note_on_c, 4, 67, 0
6, 8520, Note_on_c, 4, 69, 100
6, 8574, Note_on_c, 4, 69, 0
6, 8580, Note_on_c, 4, 71, 100
6, 8634, Note_on_c, 4, 71, 0
6, 8640, Note_on_c, 4, 72, 100
6, 8748, Note_on_c, 4, 72, 0
6, 8760, Note_on_c, 4, 71, 100
6, 8814, Note_on_c, 4, 71, 0
6, 8820, Note_on_c, 4, 69, 100
6, 8874, Note_on_c, 4, 69, 0
6, 8880, Note_on_c, 4, 67, 100
6, 8988, Note_on_c, 4, 67, 0
6, 9000, Note_on_c, 4, 65, 100
6, 9108, Note_on_c, 4, 65, 0
6, 9120, Note_on_c, 4, 64, 100
6, 9174, Note_on_c, 4, 64, 0
6, 9180, Note_on_c, 4, 65, 100
6, 9234, Note_on_c, 4, 65, 0
6, 9240, Note_on_c, 4, 67, 100
6, 9294, Note_on_c, 4, 67, 0
6, 9300, Note_on_c, 4, 64, 100
6, 9354, Note_on_c, 4, 64, 0
6, 9360, Note_on_c, 4, 60, 100
6, 9414, Note_on_c, 4, 60, 0
6, 9420, Note_on_c, 4, 67, 100
6, 9474, Note_on_c, 4, 67, 0
6, 9480, Note_on_c, 4, 69, 100
6, 9534, Note_on_c, 4, 69, 0
6, 9540, Note_on_c, 4, 71, 100
6, 9594, Note_on_c, 4, 71, 0
6, 9600, Note_on_c, 4, 72, 100
6, 9708, Note_on_c, 4, 72, 0
6, 9720, Note_on_c, 4, 67, 100
6, 9828, Note_on_c, 4, 67, 0
6, 9840, Note_on_c, 4, 72, 100
6, 9948, Note_on_c, 4, 72, 0
6, 9960, Note_on_c, 4, 67, 100
6, 10068, Note_on_c, 4, 67, 0
6, 10080, Note_on_c, 4, 72, 100
6, 10188, Note_on_c, 4, 72, 0
6, 10200, Note_on_c, 4, 71, 100
6, 10254, Note_on_c, 4, 71, 0
6, 10260, Note_on_c, 4, 69, 100
6, 10314, Note_on_c, 4, 69, 0
6, 10320, Note_on_c, 4, 67, 100
6, 10428, Note_on_c, 4, 67, 0
6, 10440, Note_on_c, 4, 69, 100
6, 10494, Note_on_c, 4, 69, 0
6, 10500, Note_on_c, 4, 71, 100
6, 10554, Note_on_c, 4, 71, 0
6, 10560, Note_on_c, 4, 72, 100
6, 10668, Note_on_c, 4, 72, 0
6, 10680, Note_on_c, 4, 71, 100
6, 10734, Note_on_c, 4, 71, 0
6, 10740, Note_on_c, 4, 69, 100
6, 10794, Note_on_c, 4, 69, 0
6, 10800, Note_on_c, 4, 67, 100
6, 10908, Note_on_c, 4, 67, 0
6, 10920, Note_on_c, 4, 65, 100
6, 11028, Note_on_c, 4, 65, 0
6, 11040, Note_on_c, 4, 64, 100
6, 11094, Note_on_c, 4, 64, 0
6, 11100, Note_on_c, 4, 65, 100
6, 11154, Note_on_c, 4, 65, 0
6, 11160, Note_on_c, 4, 67, 100
6, 11214, Note_on_c, 4, 67, 0
6, 11220, Note_on_c, 4, 64, 100
6, 11274, Note_on_c, 4, 64, 0
6, 11280, Note_on_c, 4, 60, 100
6, 11334, Note_on_c, 4, 60, 0
6, 11340, Note_on_c, 4, 62, 100
6, 11394, Note_on_c, 4, 62, 0
6, 11400, Note_on_c, 4, 64, 100
6, 11454, Note_on_c, 4, 64, 0
6, 11460, Note_on_c, 4, 66, 100
6, 11514, Note_on_c, 4, 66, 0
6, 11520, Note_on_c, 4, 67, 100
6, 11520, Note_on_c, 4, 71, 100
6, 11520, Note_on_c, 4, 74, 100
6, 11682, Note_on_c, 4, 74, 0
6, 11682, Note_on_c, 4, 71, 0
6, 11682, Note_on_c, 4, 67, 0
6, 11700, Note_on_c, 4, 76, 100
6, 11754, Note_on_c, 4, 76, 0
6, 11760, Note_on_c, 4, 71, 100
6, 11760, Note_on_c, 4, 74, 100
6, 11922, Note_on_c, 4, 74, 0
6, 11922, Note_on_c, 4, 71, 0
6, 11940, Note_on_c, 4, 76, 100
6, 11994, Note_on_c, 4, 76, 0
6, 12000, Note_on_c, 4, 74, 100
6, 12054, Note_on_c, 4, 74, 0
6, 12060, Note_on_c, 4, 76, 100
6, 12114, Note_on_c, 4, 76, 0
6, 12120, Note_on_c, 4, 74, 100
6, 12174, Note_on_c, 4, 74, 0
6, 12180, Note_on_c, 4, 79, 100
6, 12234, Note_on_c, 4, 79, 0
6, 12240, Note_on_c, 4, 74, 100
6, 12294, Note_on_c, 4, 74, 0
6, 12300, Note_on_c, 4, 72, 100
6, 12354, Note_on_c, 4, 72, 0
6, 12360, Note_on_c, 4, 71, 100
6, 12414, Note_on_c, 4, 71, 0
6, 12420, Note_on_c, 4, 69, 100
6, 12474, Note_on_c, 4, 69, 0
6, 12480, Note_on_c, 4, 67, 100
6, 12534, Note_on_c, 4, 67, 0
6, 12540, Note_on_c, 4, 71, 100
6, 12594, Note_on_c, 4, 71, 0
6, 12600, Note_on_c, 4, 69, 100
6, 12654, Note_on_c, 4, 69, 0
6, 12660, Note_on_c, 4, 67, 100
6, 12714, Note_on_c, 4, 67, 0
6, 12720, Note_on_c, 4, 66, 100
6, 12774, Note_on_c, 4, 66, 0
6, 12780, Note_on_c, 4, 67, 100
6, 12834, Note_on_c, 4, 67, 0
6, 12840, Note_on_c, 4, 69, 100
6, 12894, Note_on_c, 4, 69, 0
6, 12900, Note_on_c, 4, 66, 100
6, 12954, Note_on_c, 4, 66, 0
6, 12960, Note_on_c, 4, 62, 100
6, 13014, Note_on_c, 4, 62, 0
6, 13020, Note_on_c, 4, 67, 100
6, 13074, Note_on_c, 4, 67, 0
6, 13080, Note_on_c, 4, 66, 100
6, 13134, Note_on_c, 4, 66, 0
6, 13140, Note_on_c, 4, 64, 100
6, 13194, Note_on_c, 4, 64, 0
6, 13200, Note_on_c, 4, 62, 100
6, 13254, Note_on_c, 4, 62, 0
6, 13260, Note_on_c, 4, 60, 100
6, 13314, Note_on_c, 4, 60, 0
6, 13320, Note_on_c, 4, 59, 100
6, 13374, Note_on_c, 4, 59, 0
6, 13380, Note_on_c, 4, 57, 100
6, 13434, Note_on_c, 4, 57, 0
6, 13440, Note_on_c, 4, 55, 100
6, 13548, Note_on_c, 4, 55, 0
6, 13560, Note_on_c, 4, 71, 100
6, 13668, Note_on_c, 4, 71, 0
6, 13680, Note_on_c, 4, 71, 100
6, 13788, Note_on_c, 4, 71, 0
6, 13800, Note_on_c, 4, 64, 100
6, 13908, Note_on_c, 4, 64, 0
6, 14040, Note_on_c, 4, 76, 100
6, 14148, Note_on_c, 4, 76, 0
6, 14160, Note_on_c, 4, 76, 100
6, 14268, Note_on_c, 4, 76, 0
6, 14280, Note_on_c, 4, 69, 100
6, 14388, Note_on_c, 4, 69, 0
6, 14400, Note_on_c, 4, 69, 100
6, 14508, Note_on_c, 4, 69, 0
6, 14520, Note_on_c, 4, 62, 100
6, 14628, Note_on_c, 4, 62, 0
6, 14760, Note_on_c, 4, 74, 100
6, 14868, Note_on_c, 4, 74, 0
6, 14880, Note_on_c, 4, 74, 100
6, 14988, Note_on_c, 4, 74, 0
6, 15000, Note_on_c, 4, 67, 100
6, 15108, Note_on_c, 4, 67, 0
6, 15240, Note_on_c, 4, 67, 100
6, 15348, Note_on_c, 4, 67, 0
6, 15360, Note_on_c, 4, 72, 100
6, 15414, Note_on_c, 4, 72, 0
6, 15420, Note_on_c, 4, 74, 100
6, 15474, Note_on_c, 4, 74, 0
6, 15480, Note_on_c, 4, 76, 100
6, 15534, Note_on_c, 4, 76, 0
6, 15540, Note_on_c, 4, 72, 100
6, 15594, Note_on_c, 4, 72, 0
6, 15600, Note_on_c, 4, 69, 100
6, 15654, Note_on_c, 4, 69, 0
6, 15660, Note_on_c, 4, 71, 100
6, 15714, Note_on_c, 4, 71, 0
6, 15720, Note_on_c, 4, 72, 100
6, 15774, Note_on_c, 4, 72, 0
6, 15780, Note_on_c, 4, 69, 100
6, 15834, Note_on_c, 4, 69, 0
6, 15840, Note_on_c, 4, 66, 100
6, 15894, Note_on_c, 4, 66, 0
6, 15900, Note_on_c, 4, 67, 100
6, 15954, Note_on_c, 4, 67, 0
6, 15960, Note_on_c, 4, 69, 100
6, 16014, Note_on_c, 4, 69, 0
6, 16020, Note_on_c, 4, 66, 100
6, 16074, Note_on_c, 4, 66, 0
6, 16080, Note_on_c, 4, 62, 100
6, 16134, Note_on_c, 4, 62, 0
6, 16140, Note_on_c, 4, 66, 100
6, 16194, Note_on_c, 4, 66, 0
6, 16200, Note_on_c, 4, 69, 100
6, 16254, Note_on_c, 4, 69, 0
6, 16260, Note_on_c, 4, 72, 100
6, 16314, Note_on_c, 4, 72, 0
6, 16320, Note_on_c, 4, 67, 100
6, 16374, Note_on_c, 4, 67, 0
6, 16380, Note_on_c, 4, 69, 100
6, 16434, Note_on_c, 4, 69, 0
6, 16440, Note_on_c, 4, 71, 100
6, 16494, Note_on_c, 4, 71, 0
6, 16500, Note_on_c, 4, 67, 100
6, 16554, Note_on_c, 4, 67, 0
6, 16560, Note_on_c, 4, 62, 100
6, 16614, Note_on_c, 4, 62, 0
6, 16620, Note_on_c, 4, 67, 100
6, 16674, Note_on_c, 4, 67, 0
6, 16680, Note_on_c, 4, 71, 100
6, 16734, Note_on_c, 4, 71, 0
6, 16740, Note_on_c, 4, 74, 100
6, 16794, Note_on_c, 4, 74, 0
6, 16800, Note_on_c, 4, 69, 100
6, 16854, Note_on_c, 4, 69, 0
6, 16860, Note_on_c, 4, 71, 100
6, 16914, Note_on_c, 4, 71, 0
6, 16920, Note_on_c, 4, 72, 100
6, 16974, Note_on_c, 4, 72, 0
6, 16980, Note_on_c, 4, 69, 100
6, 17034, Note_on_c, 4, 69, 0
6, 17040, Note_on_c, 4, 66, 100
6, 17148, Note_on_c, 4, 66, 0
6, 17160, Note_on_c, 4, 62, 100
6, 17160, Note_on_c, 4, 66, 100
6, 17160, Note_on_c, 4, 69, 100
6, 17268, Note_on_c, 4, 69, 0
6, 17268, Note_on_c, 4, 66, 0
6, 17268, Note_on_c, 4, 62, 0
6, 17280, Note_on_c, 4, 62, 100
6, 17280, Note_on_c, 4, 67, 100
6, 17280, Note_on_c, 4, 71, 100
6, 17496, Note_on_c, 4, 71, 0
6, 17496, Note_on_c, 4, 67, 0
6, 17496, Note_on_c, 4, 62, 0
6, 17640, Note_on_c, 4, 71, 100
6, 17640, Note_on_c, 4, 74, 100
6, 17640, Note_on_c, 4, 79, 100
6, 17748, Note_on_c, 4, 79, 0
6, 17748, Note_on_c, 4, 74, 0
6, 17748, Note_on_c, 4, 71, 0
6, 17760, Note_on_c, 4, 67, 100
6, 17760, Note_on_c, 4, 72, 100
6, 17760, Note_on_c, 4, 79, 100
6, 17868, Note_on_c, 4, 79, 0
6, 17868, Note_on_c, 4, 72, 0
6, 17868, Note_on_c, 4, 67, 0
6, 17880, Note_on_c, 4, 72, 100
6, 17988, Note_on_c, 4, 72, 0
6, 18120, Note_on_c, 4, 64, 100
6, 18120, Note_on_c, 4, 69, 100
6, 18120, Note_on_c, 4, 72, 100
6, 18120, Note_on_c, 4, 76, 100
6, 18228, Note_on_c, 4, 76, 0
6, 18228, Note_on_c, 4, 64, 0
6, 18228, Note_on_c, 4, 69, 0
6, 18228, Note_on_c, 4, 72, 0
6, 18240, Note_on_c, 4, 66, 100
6, 18240, Note_on_c, 4, 69, 100
6, 18240, Note_on_c, 4, 74, 100
6, 18348, Note_on_c, 4, 74, 0
6, 18348, Note_on_c, 4, 69, 0
6, 18348, Note_on_c, 4, 66, 0
6, 18360, Note_on_c, 4, 72, 100
6, 18360, Note_on_c, 4, 78, 100
6, 18360, Note_on_c, 4, 81, 100
6, 18468, Note_on_c, 4, 81, 0
6, 18468, Note_on_c, 4, 78, 0
6, 18468, Note_on_c, 4, 72, 0
6, 18480, Note_on_c, 4, 74, 100
6, 18480, Note_on_c, 4, 78, 100
6, 18480, Note_on_c, 4, 81, 100
6, 18588, Note_on_c, 4, 81, 0
6, 18588, Note_on_c, 4, 78, 0
6, 18588, Note_on_c, 4, 74, 0
6, 18600, Note_on_c, 4, 74, 100
6, 18708, Note_on_c, 4, 74, 0
6, 18720, Note_on_c, 4, 67, 100
6, 18720, Note_on_c, 4, 71, 100
6, 18720, Note_on_c, 4, 74, 100
6, 18828, Note_on_c, 4, 74, 0
6, 18828, Note_on_c, 4, 71, 0
6, 18828, Note_on_c, 4, 67, 0
6, 18840, Note_on_c, 4, 64, 100
6, 18840, Note_on_c, 4, 67, 100
6, 18840, Note_on_c, 4, 76, 100
6, 18948, Note_on_c, 4, 76, 0
6, 18948, Note_on_c, 4, 67, 0
6, 18948, Note_on_c, 4, 64, 0
6, 18960, Note_on_c, 4, 66, 100
6, 18960, Note_on_c, 4, 69, 100
6, 19068, Note_on_c, 4, 69, 0
6, 19068, Note_on_c, 4, 66, 0
6, 19080, Note_on_c, 4, 66, 100
6, 19080, Note_on_c, 4, 69, 100
6, 19080, Note_on_c, 4, 74, 100
6, 19188, Note_on_c, 4, 74, 0
6, 19188, Note_on_c, 4, 69, 0
6, 19188, Note_on_c, 4, 66, 0
6, 19200, Note_on_c, 4, 62, 100
6, 19200, Note_on_c, 4, 67, 100
6, 19200, Note_on_c, 4, 71, 100
6, 19254, Note_on_c, 4, 71, 0
6, 19254, Note_on_c, 4, 67, 0
6, 19254, Note_on_c, 4, 62, 0
6, 19260, Note_on_c, 4, 59, 100
6, 19314, Note_on_c, 4, 59, 0
6, 19320, Note_on_c, 4, 60, 100
6, 19374, Note_on_c, 4, 60, 0
6, 19380, Note_on_c, 4, 62, 100
6, 19434, Note_on_c, 4, 62, 0
6, 19440, Note_on_c, 4, 64, 100
6, 19494, Note_on_c, 4, 64, 0
6, 19500, Note_on_c, 4, 66, 100
6, 19554, Note_on_c, 4, 66, 0
6, 19560, Note_on_c, 4, 67, 100
6, 19614, Note_on_c, 4, 67, 0
6, 19620, Note_on_c, 4, 69, 100
6, 19674, Note_on_c, 4, 69, 0
6, 19680, Note_on_c, 4, 71, 100
6, 19734, Note_on_c, 4, 71, 0
6, 19740, Note_on_c, 4, 69, 100
6, 19794, Note_on_c, 4, 69, 0
6, 19800, Note_on_c, 4, 67, 100
6, 19854, Note_on_c, 4, 67, 0
6, 19860, Note_on_c, 4, 69, 100
6, 19914, Note_on_c, 4, 69, 0
6, 19920, Note_on_c, 4, 71, 100
6, 19974, Note_on_c, 4, 71, 0
6, 19980, Note_on_c, 4, 69, 100
6, 20034, Note_on_c, 4, 69, 0
6, 20040, Note_on_c, 4, 67, 100
6, 20214, Note_on_c, 4, 67, 0
6, 20220, Note_on_c, 4, 65, 100
6, 20274, Note_on_c, 4, 65, 0
6, 20280, Note_on_c, 4, 64, 100
6, 20334, Note_on_c, 4, 64, 0
6, 20340, Note_on_c, 4, 65, 100
6, 20394, Note_on_c, 4, 65, 0
6, 20400, Note_on_c, 4, 64, 100
6, 20454, Note_on_c, 4, 64, 0
6, 20460, Note_on_c, 4, 65, 100
6, 20514, Note_on_c, 4, 65, 0
6, 20520, Note_on_c, 4, 62, 100
6, 20574, Note_on_c, 4, 62, 0
6, 20580, Note_on_c, 4, 65, 100
6, 20634, Note_on_c, 4, 65, 0
6, 20640, Note_on_c, 4, 64, 100
6, 20694, Note_on_c, 4, 64, 0
6, 20700, Note_on_c, 4, 67, 100
6, 20754, Note_on_c, 4, 67, 0
6, 20760, Note_on_c, 4, 65, 100
6, 20814, Note_on_c, 4, 65, 0
6, 20820, Note_on_c, 4, 62, 100
6, 20874, Note_on_c, 4, 62, 0
6, 20880, Note_on_c, 4, 64, 100
6, 20934, Note_on_c, 4, 64, 0
6, 20940, Note_on_c, 4, 60, 100
6, 20994, Note_on_c, 4, 60, 0
6, 21000, Note_on_c, 4, 62, 100
6, 21054, Note_on_c, 4, 62, 0
6, 21060, Note_on_c, 4, 59, 100
6, 21114, Note_on_c, 4, 59, 0
6, 21120, Note_on_c, 4, 60, 100
6, 21174, Note_on_c, 4, 60, 0
6, 21180, Note_on_c, 4, 59, 100
6, 21234, Note_on_c, 4, 59, 0
6, 21240, Note_on_c, 4, 60, 100
6, 21294, Note_on_c, 4, 60, 0
6, 21300, Note_on_c, 4, 62, 100
6, 21354, Note_on_c, 4, 62, 0
6, 21360, Note_on_c, 4, 60, 100
6, 21414, Note_on_c, 4, 60, 0
6, 21420, Note_on_c, 4, 62, 100
6, 21474, Note_on_c, 4, 62, 0
6, 21480, Note_on_c, 4, 59, 100
6, 21534, Note_on_c, 4, 59, 0
6, 21540, Note_on_c, 4, 62, 100
6, 21594, Note_on_c, 4, 62, 0
6, 21600, Note_on_c, 4, 60, 100
6, 21654, Note_on_c, 4, 60, 0
6, 21660, Note_on_c, 4, 62, 100
6, 21714, Note_on_c, 4, 62, 0
6, 21720, Note_on_c, 4, 64, 100
6, 21774, Note_on_c, 4, 64, 0
6, 21780, Note_on_c, 4, 57, 100
6, 21834, Note_on_c, 4, 57, 0
6, 21840, Note_on_c, 4, 69, 100
6, 21948, Note_on_c, 4, 69, 0
6, 21960, Note_on_c, 4, 69, 100
6, 22068, Note_on_c, 4, 69, 0
6, 22080, Note_on_c, 4, 69, 100
6, 22134, Note_on_c, 4, 69, 0
6, 22140, Note_on_c, 4, 67, 100
6, 22194, Note_on_c, 4, 67, 0
6, 22200, Note_on_c, 4, 69, 100
6, 22254, Note_on_c, 4, 69, 0
6, 22260, Note_on_c, 4, 70, 100
6, 22314, Note_on_c, 4, 70, 0
6, 22320, Note_on_c, 4, 69, 100
6, 22374, Note_on_c, 4, 69, 0
6, 22380, Note_on_c, 4, 70, 100
6, 22434, Note_on_c, 4, 70, 0
6, 22440, Note_on_c, 4, 69, 100
6, 22494, Note_on_c, 4, 69, 0
6, 22500, Note_on_c, 4, 70, 100
6, 22554, Note_on_c, 4, 70, 0
6, 22560, Note_on_c, 4, 69, 100
6, 22614, Note_on_c, 4, 69, 0
6, 22620, Note_on_c, 4, 74, 100
6, 22674, Note_on_c, 4, 74, 0
6, 22680, Note_on_c, 4, 76, 100
6, 22734, Note_on_c, 4, 76, 0
6, 22740, Note_on_c, 4, 77, 100
6, 22794, Note_on_c, 4, 77, 0
6, 22800, Note_on_c, 4, 79, 100
6, 22908, Note_on_c, 4, 79, 0
6, 23100, Note_on_c, 4, 72, 100
6, 23154, Note_on_c, 4, 72, 0
6, 23160, Note_on_c, 4, 74, 100
6, 23214, Note_on_c, 4, 74, 0
6, 23220, Note_on_c, 4, 76, 100
6, 23274, Note_on_c, 4, 76, 0
6, 23280, Note_on_c, 4, 64, 100
6, 23388, Note_on_c, 4, 64, 0
6, 23580, Note_on_c, 4, 69, 100
6, 23634, Note_on_c, 4, 69, 0
6, 23640, Note_on_c, 4, 71, 100
6, 23694, Note_on_c, 4, 71, 0
6, 23700, Note_on_c, 4, 72, 100
6, 23754, Note_on_c, 4, 72, 0
6, 23760, Note_on_c, 4, 74, 100
6, 23814, Note_on_c, 4, 74, 0
6, 23820, Note_on_c, 4, 76, 100
6, 23874, Note_on_c, 4, 76, 0
6, 23880, Note_on_c, 4, 74, 100
6, 23934, Note_on_c, 4, 74, 0
6, 23940, Note_on_c, 4, 76, 100
6, 23994, Note_on_c, 4, 76, 0
6, 24000, Note_on_c, 4, 72, 100
6, 24108, Note_on_c, 4, 72, 0
6, 24300, Note_on_c, 4, 70, 100
6, 24354, Note_on_c, 4, 70, 0
6, 24360, Note_on_c, 4, 69, 100
6, 24414, Note_on_c, 4, 69, 0
6, 24420, Note_on_c, 4, 67, 100
6, 24474, Note_on_c, 4, 67, 0
6, 24480, Note_on_c, 4, 65, 100
6, 24588, Note_on_c, 4, 65, 0
6, 24780, Note_on_c, 4, 72, 100
6, 24834, Note_on_c, 4, 72, 0
6, 24840, Note_on_c, 4, 74, 100
6, 24894, Note_on_c, 4, 74, 0
6, 24900, Note_on_c, 4, 76, 100
6, 24954, Note_on_c, 4, 76, 0
6, 24960, Note_on_c, 4, 77, 100
6, 25068, Note_on_c, 4, 77, 0
6, 25260, Note_on_c, 4, 67, 100
6, 25314, Note_on_c, 4, 67, 0
6, 25320, Note_on_c, 4, 65, 100
6, 25374, Note_on_c, 4, 65, 0
6, 25380, Note_on_c, 4, 64, 100
6, 25434, Note_on_c, 4, 64, 0
6, 25440, Note_on_c, 4, 62, 100
6, 25548, Note_on_c, 4, 62, 0
6, 25740, Note_on_c, 4, 60, 100
6, 25794, Note_on_c, 4, 60, 0
6, 25800, Note_on_c, 4, 62, 100
6, 25854, Note_on_c, 4, 62, 0
6, 25860, Note_on_c, 4, 64, 100
6, 25914, Note_on_c, 4, 64, 0
6, 25920, Note_on_c, 4, 65, 100
6, 26028, Note_on_c, 4, 65, 0
6, 26220, Note_on_c, 4, 71, 100
6, 26274, Note_on_c, 4, 71, 0
6, 26280, Note_on_c, 4, 72, 100
6, 26334, Note_on_c, 4, 72, 0
6, 26340, Note_on_c, 4, 74, 100
6, 26394, Note_on_c, 4, 74, 0
6, 26400, Note_on_c, 4, 76, 100
6, 26508, Note_on_c, 4, 76, 0
6, 26700, Note_on_c, 4, 74, 100
6, 26754, Note_on_c, 4, 74, 0
6, 26760, Note_on_c, 4, 72, 100
6, 26814, Note_on_c, 4, 72, 0
6, 26820, Note_on_c, 4, 70, 100
6, 26874, Note_on_c, 4, 70, 0
6, 26880, Note_on_c, 4, 69, 100
6, 26934, Note_on_c, 4, 69, 0
6, 26940, Note_on_c, 4, 67, 100
6, 26994, Note_on_c, 4, 67, 0
6, 27000, Note_on_c, 4, 65, 100
6, 27054, Note_on_c, 4, 65, 0
6, 27060, Note_on_c, 4, 67, 100
6, 27114, Note_on_c, 4, 67, 0
6, 27120, Note_on_c, 4, 69, 100
6, 27228, Note_on_c, 4, 69, 0
6, 27240, Note_on_c, 4, 74, 100
6, 27348, Note_on_c, 4, 74, 0
6, 27360, Note_on_c, 4, 74, 100
6, 27414, Note_on_c, 4, 74, 0
6, 27420, Note_on_c, 4, 72, 100
6, 27474, Note_on_c, 4, 72, 0
6, 27480, Note_on_c, 4, 71, 100
6, 27534, Note_on_c, 4, 71, 0
6, 27540, Note_on_c, 4, 72, 100
6, 27594, Note_on_c, 4, 72, 0
6, 27600, Note_on_c, 4, 74, 100
6, 27708, Note_on_c, 4, 74, 0
6, 27720, Note_on_c, 4, 79, 100
6, 27828, Note_on_c, 4, 79, 0
6, 27840, Note_on_c, 4, 76, 100
6, 27948, Note_on_c, 4, 76, 0
6, 27960, Note_on_c, 4, 67, 100
6, 28068, Note_on_c, 4, 67, 0
6, 28080, Note_on_c, 4, 72, 100
6, 28188, Note_on_c, 4, 72, 0
6, 28200, Note_on_c, 4, 67, 100
6, 28308, Note_on_c, 4, 67, 0
6, 28320, Note_on_c, 4, 72, 100
6, 28428, Note_on_c, 4, 72, 0
6, 28440, Note_on_c, 4, 71, 100
6, 28494, Note_on_c, 4, 71, 0
6, 28500, Note_on_c, 4, 69, 100
6, 28554, Note_on_c, 4, 69, 0
6, 28560, Note_on_c, 4, 67, 100
6, 28668, Note_on_c, 4, 67, 0
6, 28680, Note_on_c, 4, 69, 100
6, 28734, Note_on_c, 4, 69, 0
6, 28740, Note_on_c, 4, 71, 100
6, 28794, Note_on_c, 4, 71, 0
6, 28800, Note_on_c, 4, 72, 100
6, 28908, Note_on_c, 4, 72, 0
6, 28920, Note_on_c, 4, 71, 100
6, 28974, Note_on_c, 4, 71, 0
6, 28980, Note_on_c, 4, 69, 100
6, 29034, Note_on_c, 4, 69, 0
6, 29040, Note_on_c, 4, 67, 100
6, 29148, Note_on_c, 4, 67, 0
6, 29160, Note_on_c, 4, 65, 100
6, 29268, Note_on_c, 4, 65, 0
6, 29280, Note_on_c, 4, 64, 100
6, 29388, Note_on_c, 4, 64, 0
6, 29640, Note_on_c, 4, 67, 100
6, 29640, Note_on_c, 4, 72, 100
6, 29640, Note_on_c, 4, 79, 100
6, 29748, Note_on_c, 4, 79, 0
6, 29748, Note_on_c, 4, 72, 0
6, 29748, Note_on_c, 4, 67, 0
6, 29760, Note_on_c, 4, 69, 100
6, 29760, Note_on_c, 4, 72, 100
6, 29868, Note_on_c, 4, 72, 0
6, 29868, Note_on_c, 4, 69, 0
6, 29880, Note_on_c, 4, 65, 100
6, 29880, Note_on_c, 4, 69, 100
6, 29988, Note_on_c, 4, 69, 0
6, 29988, Note_on_c, 4, 65, 0
6, 30120, Note_on_c, 4, 69, 100
6, 30120, Note_on_c, 4, 72, 100
6, 30120, Note_on_c, 4, 77, 100
6, 30228, Note_on_c, 4, 77, 0
6, 30228, Note_on_c, 4, 72, 0
6, 30228, Note_on_c, 4, 69, 0
6, 30240, Note_on_c, 4, 69, 100
6, 30240, Note_on_c, 4, 74, 100
6, 30348, Note_on_c, 4, 74, 0
6, 30348, Note_on_c, 4, 69, 0
6, 30360, Note_on_c, 4, 62, 100
6, 30360, Note_on_c, 4, 69, 100
6, 30468, Note_on_c, 4, 69, 0
6, 30468, Note_on_c, 4, 62, 0
6, 30600, Note_on_c, 4, 69, 100
6, 30600, Note_on_c, 4, 74, 100
6, 30600, Note_on_c, 4, 81, 100
6, 30708, Note_on_c, 4, 81, 0
6, 30708, Note_on_c, 4, 74, 0
6, 30708, Note_on_c, 4, 69, 0
6, 30720, Note_on_c, 4, 71, 100
6, 30720, Note_on_c, 4, 74, 100
6, 30828, Note_on_c, 4, 74, 0
6, 30828, Note_on_c, 4, 71, 0
6, 30840, Note_on_c, 4, 67, 100
6, 30840, Note_on_c, 4, 71, 100
6, 30948, Note_on_c, 4, 71, 0
6, 30948, Note_on_c, 4, 67, 0
6, 31080, Note_on_c, 4, 71, 100
6, 31080, Note_on_c, 4, 74, 100
6, 31080, Note_on_c, 4, 79, 100
6, 31188, Note_on_c, 4, 79, 0
6, 31188, Note_on_c, 4, 74, 0
6, 31188, Note_on_c, 4, 71, 0
6, 31200, Note_on_c, 4, 71, 100
6, 31200, Note_on_c, 4, 76, 100
6, 31308, Note_on_c, 4, 76, 0
6, 31308, Note_on_c, 4, 71, 0
6, 31320, Note_on_c, 4, 64, 100
6, 31320, Note_on_c, 4, 71, 100
6, 31428, Note_on_c, 4, 71, 0
6, 31428, Note_on_c, 4, 64, 0
6, 31560, Note_on_c, 4, 71, 100
6, 31560, Note_on_c, 4, 76, 100
6, 31560, Note_on_c, 4, 83, 100
6, 31668, Note_on_c, 4, 83, 0
6, 31668, Note_on_c, 4, 76, 0
6, 31668, Note_on_c, 4, 71, 0
6, 31680, Note_on_c, 4, 72, 100
6, 31680, Note_on_c, 4, 76, 100
6, 31788, Note_on_c, 4, 76, 0
6, 31788, Note_on_c, 4, 72, 0
6, 31800, Note_on_c, 4, 69, 100
6, 31800, Note_on_c, 4, 72, 100
6, 31908, Note_on_c, 4, 72, 0
6, 31908, Note_on_c, 4, 69, 0
6, 32040, Note_on_c, 4, 69, 100
6, 32040, Note_on_c, 4, 76, 100
6, 32040, Note_on_c, 4, 81, 100
6, 32148, Note_on_c, 4, 81, 0
6, 32148, Note_on_c, 4, 76, 0
6, 32148, Note_on_c, 4, 69, 0
6, 32160, Note_on_c, 4, 69, 100
6, 32160, Note_on_c, 4, 72, 100
6, 32160, Note_on_c, 4, 77, 100
6, 32268, Note_on_c, 4, 77, 0
6, 32268, Note_on_c, 4, 72, 0
6, 32268, Note_on_c, 4, 69, 0
6, 32280, Note_on_c, 4, 65, 100
6, 32280, Note_on_c, 4, 69, 100
6, 32280, Note_on_c, 4, 72, 100
6, 32388, Note_on_c, 4, 72, 0
6, 32388, Note_on_c, 4, 69, 0
6, 32388, Note_on_c, 4, 65, 0
6, 32520, Note_on_c, 4, 65, 100
6, 32520, Note_on_c, 4, 72, 100
6, 32520, Note_on_c, 4, 77, 100
6, 32628, Note_on_c, 4, 77, 0
6, 32628, Note_on_c, 4, 72, 0
6, 32628, Note_on_c, 4, 65, 0
6, 32640, Note_on_c, 4, 65, 100
6, 32640, Note_on_c, 4, 67, 100
6, 32640, Note_on_c, 4, 74, 100
6, 32748, Note_on_c, 4, 74, 0
6, 32748, Note_on_c, 4, 67, 0
6, 32748, Note_on_c, 4, 65, 0
6, 32760, Note_on_c, 4, 65, 100
6, 32760, Note_on_c, 4, 67, 100
6, 32868, Note_on_c, 4, 67, 0
6, 32868, Note_on_c, 4, 65, 0
6, 33000, Note_on_c, 4, 67, 100
6, 33000, Note_on_c, 4, 74, 100
6, 33000, Note_on_c, 4, 77, 100
6, 33108, Note_on_c, 4, 77, 0
6, 33108, Note_on_c, 4, 74, 0
6, 33108, Note_on_c, 4, 67, 0
6, 33120, Note_on_c, 4, 67, 100
6, 33120, Note_on_c, 4, 72, 100
6, 33120, Note_on_c, 4, 76, 100
6, 33228, Note_on_c, 4, 76, 0
6, 33228, Note_on_c, 4, 72, 0
6, 33228, Note_on_c, 4, 67, 0
6, 33240, Note_on_c, 4, 64, 100
6, 33240, Note_on_c, 4, 67, 100
6, 33240, Note_on_c, 4, 72, 100
6, 33348, Note_on_c, 4, 72, 0
6, 33348, Note_on_c, 4, 67, 0
6, 33348, Note_on_c, 4, 64, 0
6, 33480, Note_on_c, 4, 67, 100
6, 33480, Note_on_c, 4, 72, 100
6, 33480, Note_on_c, 4, 76, 100
6, 33588, Note_on_c, 4, 76, 0
6, 33588, Note_on_c, 4, 72, 0
6, 33588, Note_on_c, 4, 67, 0
6, 33600, Note_on_c, 4, 66, 100
6, 33600, Note_on_c, 4, 72, 100
6, 33708, Note_on_c, 4, 72, 0
6, 33708, Note_on_c, 4, 66, 0
6, 33720, Note_on_c, 4, 66, 100
6, 33720, Note_on_c, 4, 69, 100
6, 33828, Note_on_c, 4, 69, 0
6, 33828, Note_on_c, 4, 66, 0
6, 33960, Note_on_c, 4, 60, 100
6, 33960, Note_on_c, 4, 66, 100
6, 33960, Note_on_c, 4, 72, 100
6, 34068, Note_on_c, 4, 72, 0
6, 34068, Note_on_c, 4, 66, 0
6, 34068, Note_on_c, 4, 60, 0
6, 34080, Note_on_c, 4, 62, 100
6, 34080, Note_on_c, 4, 66, 100
6, 34080, Note_on_c, 4, 69, 100
6, 34188, Note_on_c, 4, 69, 0
6, 34188, Note_on_c, 4, 66, 0
6, 34188, Note_on_c, 4, 62, 0
6, 34200, Note_on_c, 4, 62, 100
6, 34200, Note_on_c, 4, 66, 100
6, 34308, Note_on_c, 4, 66, 0
6, 34308, Note_on_c, 4, 62, 0
6, 34440, Note_on_c, 4, 62, 100
6, 34440, Note_on_c, 4, 69, 100
6, 34440, Note_on_c, 4, 72, 100
6, 34548, Note_on_c, 4, 72, 0
6, 34548, Note_on_c, 4, 69, 0
6, 34548, Note_on_c, 4, 62, 0
6, 34560, Note_on_c, 4, 62, 100
6, 34560, Note_on_c, 4, 67, 100
6, 34560, Note_on_c, 4, 71, 100
6, 34668, Note_on_c, 4, 71, 0
6, 34668, Note_on_c, 4, 67, 0
6, 34668, Note_on_c, 4, 62, 0
6, 34680, Note_on_c, 4, 67, 100
6, 34680, Note_on_c, 4, 71, 100
6, 34680, Note_on_c, 4, 74, 100
6, 34788, Note_on_c, 4, 74, 0
6, 34788, Note_on_c, 4, 71, 0
6, 34788, Note_on_c, 4, 67, 0
6, 34920, Note_on_c, 4, 65, 100
6, 34920, Note_on_c, 4, 67, 100
6, 34920, Note_on_c, 4, 74, 100
6, 35028, Note_on_c, 4, 74, 0
6, 35028, Note_on_c, 4, 67, 0
6, 35028, Note_on_c, 4, 65, 0
6, 35040, Note_on_c, 4, 65, 100
6, 35040, Note_on_c, 4, 67, 100
6, 35040, Note_on_c, 4, 74, 100
6, 35148, Note_on_c, 4, 74, 0
6, 35148, Note_on_c, 4, 67, 0
6, 35148, Note_on_c, 4, 65, 0
6, 35160, Note_on_c, 4, 65, 100
6, 35160, Note_on_c, 4, 67, 100
6, 35160, Note_on_c, 4, 74, 100
6, 35268, Note_on_c, 4, 74, 0
6, 35268, Note_on_c, 4, 67, 0
6, 35268, Note_on_c, 4, 65, 0
6, 35280, Note_on_c, 4, 65, 100
6, 35280, Note_on_c, 4, 67, 100
6, 35280, Note_on_c, 4, 74, 100
6, 35388, Note_on_c, 4, 74, 0
6, 35388, Note_on_c, 4, 67, 0
6, 35388, Note_on_c, 4, 65, 0
6, 35400, Note_on_c, 4, 65, 100
6, 35400, Note_on_c, 4, 67, 100
6, 35400, Note_on_c, 4, 74, 100
6, 35508, Note_on_c, 4, 74, 0
6, 35508, Note_on_c, 4, 67, 0
6, 35508, Note_on_c, 4, 65, 0
6, 35520, Note_on_c, 4, 64, 100
6, 35520, Note_on_c, 4, 67, 100
6, 35520, Note_on_c, 4, 74, 100
6, 35628, Note_on_c, 4, 74, 0
6, 35628, Note_on_c, 4, 67, 0
6, 35628, Note_on_c, 4, 64, 0
6, 35640, Note_on_c, 4, 64, 100
6, 35640, Note_on_c, 4, 67, 100
6, 35640, Note_on_c, 4, 74, 100
6, 35748, Note_on_c, 4, 74, 0
6, 35748, Note_on_c, 4, 67, 0
6, 35748, Note_on_c, 4, 64, 0
6, 35760, Note_on_c, 4, 64, 100
6, 35760, Note_on_c, 4, 67, 100
6, 35760, Note_on_c, 4, 72, 100
6, 35868, Note_on_c, 4, 72, 0
6, 35868, Note_on_c, 4, 67, 0
6, 35868, Note_on_c, 4, 64, 0
6, 35880, Note_on_c, 4, 64, 100
6, 35880, Note_on_c, 4, 67, 100
6, 35880, Note_on_c, 4, 72, 100
6, 35988, Note_on_c, 4, 72, 0
6, 35988, Note_on_c, 4, 67, 0
6, 35988, Note_on_c, 4, 64, 0
6, 36000, Note_on_c, 4, 69, 100
6, 36000, Note_on_c, 4, 72, 100
6, 36108, Note_on_c, 4, 72, 0
6, 36108, Note_on_c, 4, 69, 0
6, 36120, Note_on_c, 4, 66, 100
6, 36120, Note_on_c, 4, 69, 100
6, 36120, Note_on_c, 4, 72, 100
6, 36228, Note_on_c, 4, 72, 0
6, 36228, Note_on_c, 4, 69, 0
6, 36228, Note_on_c, 4, 66, 0
6, 36240, Note_on_c, 4, 66, 100
6, 36240, Note_on_c, 4, 69, 100
6, 36240, Note_on_c, 4, 72, 100
6, 36348, Note_on_c, 4, 72, 0
6, 36348, Note_on_c, 4, 69, 0
6, 36348, Note_on_c, 4, 66, 0
6, 36360, Note_on_c, 4, 66, 100
6, 36360, Note_on_c, 4, 69, 100
6, 36360, Note_on_c, 4, 72, 100
6, 36468, Note_on_c, 4, 72, 0
6, 36468, Note_on_c, 4, 69, 0
6, 36468, Note_on_c, 4, 66, 0
6, 36480, Note_on_c, 4, 62, 100
6, 36480, Note_on_c, 4, 69, 100
6, 36480, Note_on_c, 4, 71, 100
6, 36588, Note_on_c, 4, 71, 0
6, 36588, Note_on_c, 4, 69, 0
6, 36588, Note_on_c, 4, 62, 0
6, 36600, Note_on_c, 4, 62, 100
6, 36600, Note_on_c, 4, 71, 100
6, 36600, Note_on_c, 4, 67, 100
6, 36654, Note_on_c, 4, 67, 0
6, 36660, Note_on_c, 4, 65, 100
6, 36708, Note_on_c, 4, 71, 0
6, 36708, Note_on_c, 4, 62, 0
6, 36714, Note_on_c, 4, 65, 0
6, 36720, Note_on_c, 4, 62, 100
6, 36720, Note_on_c, 4, 67, 100
6, 36720, Note_on_c, 4, 71, 100
6, 36828, Note_on_c, 4, 71, 0
6, 36828, Note_on_c, 4, 67, 0
6, 36828, Note_on_c, 4, 62, 0
6, 36840, Note_on_c, 4, 62, 100
6, 36840, Note_on_c, 4, 67, 100
6, 36840, Note_on_c, 4, 71, 100
6, 36948, Note_on_c, 4, 71, 0
6, 36948, Note_on_c, 4, 67, 0
6, 36948, Note_on_c, 4, 62, 0
6, 36960, Note_on_c, 4, 64, 100
6, 36960, Note_on_c, 4, 67, 100
6, 36960, Note_on_c, 4, 72, 100
6, 37014, Note_on_c, 4, 72, 0
6, 37014, Note_on_c, 4, 67, 0
6, 37014, Note_on_c, 4, 64, 0
6, 37020, Note_on_c, 4, 64, 100
6, 37074, Note_on_c, 4, 64, 0
6, 37080, Note_on_c, 4, 65, 100
6, 37134, Note_on_c, 4, 65, 0
6, 37140, Note_on_c, 4, 67, 100
6, 37194, Note_on_c, 4, 67, 0
6, 37200, Note_on_c, 4, 69, 100
6, 37254, Note_on_c, 4, 69, 0
6, 37260, Note_on_c, 4, 71, 100
6, 37314, Note_on_c, 4, 71, 0
6, 37320, Note_on_c, 4, 72, 100
6, 37374, Note_on_c, 4, 72, 0
6, 37380, Note_on_c, 4, 74, 100
6, 37434, Note_on_c, 4, 74, 0
6, 37440, Note_on_c, 4, 76, 100
6, 37548, Note_on_c, 4, 76, 0
6, 37560, Note_on_c, 4, 67, 100
6, 37668, Note_on_c, 4, 67, 0
6, 37680, Note_on_c, 4, 72, 100
6, 37788, Note_on_c, 4, 72, 0
6, 37800, Note_on_c, 4, 67, 100
6, 37908, Note_on_c, 4, 67, 0
6, 37920, Note_on_c, 4, 72, 100
6, 38028, Note_on_c, 4, 72, 0
6, 38040, Note_on_c, 4, 71, 100
6, 38094, Note_on_c, 4, 71, 0
6, 38100, Note_on_c, 4, 69, 100
6, 38154, Note_on_c, 4, 69, 0
6, 38160, Note_on_c, 4, 67, 100
6, 38268, Note_on_c, 4, 67, 0
6, 38280, Note_on_c, 4, 69, 100
6, 38334, Note_on_c, 4, 69, 0
6, 38340, Note_on_c, 4, 71, 100
6, 38394, Note_on_c, 4, 71, 0
6, 38400, Note_on_c, 4, 72, 100
6, 38508, Note_on_c, 4, 72, 0
6, 38520, Note_on_c, 4, 71, 100
6, 38574, Note_on_c, 4, 71, 0
6, 38580, Note_on_c, 4, 69, 100
6, 38634, Note_on_c, 4, 69, 0
6, 38640, Note_on_c, 4, 67, 100
6, 38748, Note_on_c, 4, 67, 0
6, 38760, Note_on_c, 4, 65, 100
6, 38868, Note_on_c, 4, 65, 0
6, 38880, Note_on_c, 4, 64, 100
6, 38934, Note_on_c, 4, 64, 0
6, 38940, Note_on_c, 4, 65, 100
6, 38994, Note_on_c, 4, 65, 0
6, 39000, Note_on_c, 4, 67, 100
6, 39054, Note_on_c, 4, 67, 0
6, 39060, Note_on_c, 4, 64, 100
6, 39114, Note_on_c, 4, 64, 0
6, 39120, Note_on_c, 4, 60, 100
6, 39174, Note_on_c, 4, 60, 0
6, 39180, Note_on_c, 4, 62, 100
6, 39234, Note_on_c, 4, 62, 0
6, 39240, Note_on_c, 4, 64, 100
6, 39294, Note_on_c, 4, 64, 0
6, 39300, Note_on_c, 4, 65, 100
6, 39354, Note_on_c, 4, 65, 0
6, 39360, Note_on_c, 4, 67, 100
6, 39576, Note_on_c, 4, 67, 0
6, 39600, Note_on_c, 4, 55, 100
6, 39816, Note_on_c, 4, 55, 0
6, 39840, Note_on_c, 4, 60, 100
6, 40056, Note_on_c, 4, 60, 0
6, 45120, Note_on_c, 4, 83, 100
6, 45414, Note_on_c, 4, 83, 0
6, 45420, Note_on_c, 4, 81, 100
6, 45447, Note_on_c, 4, 81, 0
6, 45450, Note_on_c, 4, 79, 100
6, 45477, Note_on_c, 4, 79, 0
6, 45480, Note_on_c, 4, 78, 100
6, 45507, Note_on_c, 4, 78, 0
6, 45510, Note_on_c, 4, 79, 100
6, 45537, Note_on_c, 4, 79, 0
6, 45540, Note_on_c, 4, 81, 100
6, 45594, Note_on_c, 4, 81, 0
6, 45600, Note_on_c, 4, 75, 100
6, 45816, Note_on_c, 4, 75, 0
6, 45960, Note_on_c, 4, 76, 100
6, 46068, Note_on_c, 4, 76, 0
6, 46080, Note_on_c, 4, 81, 100
6, 46242, Note_on_c, 4, 81, 0
6, 46260, Note_on_c, 4, 83, 100
6, 46287, Note_on_c, 4, 83, 0
6, 46290, Note_on_c, 4, 84, 100
6, 46317, Note_on_c, 4, 84, 0
6, 46320, Note_on_c, 4, 83, 100
6, 46374, Note_on_c, 4, 83, 0
6, 46380, Note_on_c, 4, 81, 100
6, 46434, Note_on_c, 4, 81, 0
6, 46440, Note_on_c, 4, 79, 100
6, 46494, Note_on_c, 4, 79, 0
6, 46500, Note_on_c, 4, 78, 100
6, 46554, Note_on_c, 4, 78, 0
6, 46560, Note_on_c, 4, 79, 100
6, 47094, Note_on_c, 4, 79, 0
6, 47100, Note_on_c, 4, 69, 100
6, 47154, Note_on_c, 4, 69, 0
6, 47160, Note_on_c, 4, 72, 100
6, 47214, Note_on_c, 4, 72, 0
6, 47220, Note_on_c, 4, 76, 100
6, 47274, Note_on_c, 4, 76, 0
6, 47280, Note_on_c, 4, 81, 100
6, 47334, Note_on_c, 4, 81, 0
6, 47340, Note_on_c, 4, 79, 100
6, 47394, Note_on_c, 4, 79, 0
6, 47400, Note_on_c, 4, 78, 100
6, 47454, Note_on_c, 4, 78, 0
6, 47460, Note_on_c, 4, 76, 100
6, 47514, Note_on_c, 4, 76, 0
6, 47520, Note_on_c, 4, 78, 100
6, 48432, Note_on_c, 4, 78, 0
6, 48480, Note_on_c, 4, 76, 100
6, 49392, Note_on_c, 4, 76, 0
6, 49440, Note_on_c, 4, 75, 100
6, 49872, Note_on_c, 4, 75, 0
6, 49920, Note_on_c, 4, 76, 100
6, 49974, Note_on_c, 4, 76, 0
6, 49980, Note_on_c, 4, 64, 100
6, 50034, Note_on_c, 4, 64, 0
6, 50040, Note_on_c, 4, 67, 100
6, 50094, Note_on_c, 4, 67, 0
6, 50100, Note_on_c, 4, 71, 100
6, 50154, Note_on_c, 4, 71, 0
6, 50160, Note_on_c, 4, 76, 100
6, 50214, Note_on_c, 4, 76, 0
6, 50220, Note_on_c, 4, 74, 100
6, 50274, Note_on_c, 4, 74, 0
6, 50280, Note_on_c, 4, 72, 100
6, 50334, Note_on_c, 4, 72, 0
6, 50340, Note_on_c, 4, 71, 100
6, 50394, Note_on_c, 4, 71, 0
6, 50400, Note_on_c, 4, 72, 100
6, 50454, Note_on_c, 4, 72, 0
6, 50460, Note_on_c, 4, 69, 100
6, 50514, Note_on_c, 4, 69, 0
6, 50520, Note_on_c, 4, 72, 100
6, 50574, Note_on_c, 4, 72, 0
6, 50580, Note_on_c, 4, 76, 100
6, 50634, Note_on_c, 4, 76, 0
6, 50640, Note_on_c, 4, 81, 100
6, 50694, Note_on_c, 4, 81, 0
6, 50700, Note_on_c, 4, 79, 100
6, 50754, Note_on_c, 4, 79, 0
6, 50760, Note_on_c, 4, 78, 100
6, 50814, Note_on_c, 4, 78, 0
6, 50820, Note_on_c, 4, 76, 100
6, 50874, Note_on_c, 4, 76, 0
6, 50880, Note_on_c, 4, 78, 100
6, 50934, Note_on_c, 4, 78, 0
6, 50940, Note_on_c, 4, 62, 100
6, 50994, Note_on_c, 4, 62, 0
6, 51000, Note_on_c, 4, 66, 100
6, 51054, Note_on_c, 4, 66, 0
6, 51060, Note_on_c, 4, 69, 100
6, 51114, Note_on_c, 4, 69, 0
6, 51120, Note_on_c, 4, 74, 100
6, 51174, Note_on_c, 4, 74, 0
6, 51180, Note_on_c, 4, 72, 100
6, 51234, Note_on_c, 4, 72, 0
6, 51240, Note_on_c, 4, 71, 100
6, 51294, Note_on_c, 4, 71, 0
6, 51300, Note_on_c, 4, 69, 100
6, 51354, Note_on_c, 4, 69, 0
6, 51360, Note_on_c, 4, 71, 100
6, 51414, Note_on_c, 4, 71, 0
6, 51420, Note_on_c, 4, 67, 100
6, 51474, Note_on_c, 4, 67, 0
6, 51480, Note_on_c, 4, 71, 100
6, 51534, Note_on_c, 4, 71, 0
6, 51540, Note_on_c, 4, 74, 100
6, 51594, Note_on_c, 4, 74, 0
6, 51600, Note_on_c, 4, 79, 100
6, 51654, Note_on_c, 4, 79, 0
6, 51660, Note_on_c, 4, 78, 100
6, 51714, Note_on_c, 4, 78, 0
6, 51720, Note_on_c, 4, 76, 100
6, 51774, Note_on_c, 4, 76, 0
6, 51780, Note_on_c, 4, 74, 100
6, 51834, Note_on_c, 4, 74, 0
6, 51840, Note_on_c, 4, 76, 100
6, 51894, Note_on_c, 4, 76, 0
6, 51900, Note_on_c, 4, 74, 100
6, 51954, Note_on_c, 4, 74, 0
6, 51960, Note_on_c, 4, 72, 100
6, 52014, Note_on_c, 4, 72, 0
6, 52020, Note_on_c, 4, 71, 100
6, 52074, Note_on_c, 4, 71, 0
6, 52080, Note_on_c, 4, 81, 100
6, 52134, Note_on_c, 4, 81, 0
6, 52140, Note_on_c, 4, 79, 100
6, 52194, Note_on_c, 4, 79, 0
6, 52200, Note_on_c, 4, 78, 100
6, 52254, Note_on_c, 4, 78, 0
6, 52260, Note_on_c, 4, 76, 100
6, 52314, Note_on_c, 4, 76, 0
6, 52320, Note_on_c, 4, 78, 100
6, 52374, Note_on_c, 4, 78, 0
6, 52380, Note_on_c, 4, 76, 100
6, 52434, Note_on_c, 4, 76, 0
6, 52440, Note_on_c, 4, 74, 100
6, 52494, Note_on_c, 4, 74, 0
6, 52500, Note_on_c, 4, 72, 100
6, 52554, Note_on_c, 4, 72, 0
6, 52560, Note_on_c, 4, 83, 100
6, 52614, Note_on_c, 4, 83, 0
6, 52620, Note_on_c, 4, 81, 100
6, 52674, Note_on_c, 4, 81, 0
6, 52680, Note_on_c, 4, 79, 100
6, 52734, Note_on_c, 4, 79, 0
6, 52740, Note_on_c, 4, 78, 100
6, 52794, Note_on_c, 4, 78, 0
6, 52800, Note_on_c, 4, 79, 100
6, 52854, Note_on_c, 4, 79, 0
6, 52860, Note_on_c, 4, 78, 100
6, 52914, Note_on_c, 4, 78, 0
6, 52920, Note_on_c, 4, 76, 100
6, 52974, Note_on_c, 4, 76, 0
6, 52980, Note_on_c, 4, 74, 100
6, 53034, Note_on_c, 4, 74, 0
6, 53040, Note_on_c, 4, 84, 100
6, 53094, Note_on_c, 4, 84, 0
6, 53100, Note_on_c, 4, 83, 100
6, 53154, Note_on_c, 4, 83, 0
6, 53160, Note_on_c, 4, 81, 100
6, 53214, Note_on_c, 4, 81, 0
6, 53220, Note_on_c, 4, 79, 100
6, 53274, Note_on_c, 4, 79, 0
6, 53280, Note_on_c, 4, 81, 100
6, 53334, Note_on_c, 4, 81, 0
6, 53340, Note_on_c, 4, 79, 100
6, 53394, Note_on_c, 4, 79, 0
6, 53400, Note_on_c, 4, 78, 100
6, 53454, Note_on_c, 4, 78, 0
6, 53460, Note_on_c, 4, 76, 100
6, 53514, Note_on_c, 4, 76, 0
6, 53520, Note_on_c, 4, 74, 100
6, 53574, Note_on_c, 4, 74, 0
6, 53580, Note_on_c, 4, 72, 100
6, 53634, Note_on_c, 4, 72, 0
6, 53640, Note_on_c, 4, 71, 100
6, 53694, Note_on_c, 4, 71, 0
6, 53700, Note_on_c, 4, 69, 100
6, 53754, Note_on_c, 4, 69, 0
6, 53760, Note_on_c, 4, 71, 100
6, 53814, Note_on_c, 4, 71, 0
6, 53820, Note_on_c, 4, 79, 100
6, 53874, Note_on_c, 4, 79, 0
6, 53880, Note_on_c, 4, 78, 100
6, 53934, Note_on_c, 4, 78, 0
6, 53940, Note_on_c, 4, 79, 100
6, 53994, Note_on_c, 4, 79, 0
6, 54000, Note_on_c, 4, 83, 100
6, 54054, Note_on_c, 4, 83, 0
6, 54060, Note_on_c, 4, 79, 100
6, 54114, Note_on_c, 4, 79, 0
6, 54120, Note_on_c, 4, 78, 100
6, 54174, Note_on_c, 4, 78, 0
6, 54180, Note_on_c, 4, 79, 100
6, 54234, Note_on_c, 4, 79, 0
6, 54240, Note_on_c, 4, 74, 100
6, 54294, Note_on_c, 4, 74, 0
6, 54300, Note_on_c, 4, 83, 100
6, 54354, Note_on_c, 4, 83, 0
6, 54360, Note_on_c, 4, 81, 100
6, 54414, Note_on_c, 4, 81, 0
6, 54420, Note_on_c, 4, 79, 100
6, 54474, Note_on_c, 4, 79, 0
6, 54480, Note_on_c, 4, 78, 100
6, 54534, Note_on_c, 4, 78, 0
6, 54540, Note_on_c, 4, 76, 100
6, 54594, Note_on_c, 4, 76, 0
6, 54600, Note_on_c, 4, 74, 100
6, 54654, Note_on_c, 4, 74, 0
6, 54660, Note_on_c, 4, 72, 100
6, 54714, Note_on_c, 4, 72, 0
6, 54720, Note_on_c, 4, 71, 100
6, 54774, Note_on_c, 4, 71, 0
6, 54780, Note_on_c, 4, 72, 100
6, 54834, Note_on_c, 4, 72, 0
6, 54840, Note_on_c, 4, 74, 100
6, 54894, Note_on_c, 4, 74, 0
6, 54900, Note_on_c, 4, 76, 100
6, 54954, Note_on_c, 4, 76, 0
6, 54960, Note_on_c, 4, 69, 100
6, 55068, Note_on_c, 4, 69, 0
6, 55080, Note_on_c, 4, 78, 100
6, 55188, Note_on_c, 4, 78, 0
6, 55200, Note_on_c, 4, 79, 100
6, 55308, Note_on_c, 4, 79, 0
6, 55320, Note_on_c, 4, 67, 100
6, 55320, Note_on_c, 4, 72, 100
6, 55320, Note_on_c, 4, 76, 100
6, 55428, Note_on_c, 4, 76, 0
6, 55428, Note_on_c, 4, 72, 0
6, 55428, Note_on_c, 4, 67, 0
6, 55440, Note_on_c, 4, 66, 100
6, 55440, Note_on_c, 4, 69, 100
6, 55440, Note_on_c, 4, 74, 100
6, 55548, Note_on_c, 4, 74, 0
6, 55548, Note_on_c, 4, 69, 0
6, 55548, Note_on_c, 4, 66, 0
6, 55560, Note_on_c, 4, 66, 100
6, 55560, Note_on_c, 4, 69, 100
6, 55560, Note_on_c, 4, 72, 100
6, 55668, Note_on_c, 4, 72, 0
6, 55668, Note_on_c, 4, 69, 0
6, 55668, Note_on_c, 4, 66, 0
6, 55680, Note_on_c, 4, 62, 100
6, 55680, Note_on_c, 4, 67, 100
6, 55680, Note_on_c, 4, 71, 100
6, 55896, Note_on_c, 4, 71, 0
6, 55896, Note_on_c, 4, 67, 0
6, 55896, Note_on_c, 4, 62, 0
6, 56520, Note_on_c, 4, 62, 100
6, 56628, Note_on_c, 4, 62, 0
6, 56640, Note_on_c, 4, 67, 100
6, 56694, Note_on_c, 4, 67, 0
6, 56700, Note_on_c, 4, 71, 100
6, 56754, Note_on_c, 4, 71, 0
6, 56760, Note_on_c, 4, 74, 100
6, 56814, Note_on_c, 4, 74, 0
6, 56820, Note_on_c, 4, 72, 100
6, 56874, Note_on_c, 4, 72, 0
6, 56880, Note_on_c, 4, 71, 100
6, 56934, Note_on_c, 4, 71, 0
6, 56940, Note_on_c, 4, 69, 100
6, 56994, Note_on_c, 4, 69, 0
6, 57000, Note_on_c, 4, 67, 100
6, 57054, Note_on_c, 4, 67, 0
6, 57060, Note_on_c, 4, 66, 100
6, 57114, Note_on_c, 4, 66, 0
6, 57120, Note_on_c, 4, 67, 100
6, 57228, Note_on_c, 4, 67, 0
6, 58200, Note_on_c, 4, 79, 100
6, 58254, Note_on_c, 4, 79, 0
6, 58260, Note_on_c, 4, 77, 100
6, 58314, Note_on_c, 4, 77, 0
6, 58320, Note_on_c, 4, 76, 100
6, 58374, Note_on_c, 4, 76, 0
6, 58380, Note_on_c, 4, 77, 100
6, 58434, Note_on_c, 4, 77, 0
6, 58440, Note_on_c, 4, 76, 100
6, 58494, Note_on_c, 4, 76, 0
6, 58500, Note_on_c, 4, 74, 100
6, 58554, Note_on_c, 4, 74, 0
6, 58560, Note_on_c, 4, 72, 100
6, 58668, Note_on_c, 4, 72, 0
6, 58680, Note_on_c, 4, 76, 100
6, 58788, Note_on_c, 4, 76, 0
6, 58800, Note_on_c, 4, 72, 100
6, 58908, Note_on_c, 4, 72, 0
6, 58920, Note_on_c, 4, 67, 100
6, 59028, Note_on_c, 4, 67, 0
6, 59040, Note_on_c, 4, 72, 100
6, 59148, Note_on_c, 4, 72, 0
6, 59160, Note_on_c, 4, 67, 100
6, 59214, Note_on_c, 4, 67, 0
6, 59220, Note_on_c, 4, 69, 100
6, 59274, Note_on_c, 4, 69, 0
6, 59280, Note_on_c, 4, 71, 100
6, 59388, Note_on_c, 4, 71, 0
6, 59400, Note_on_c, 4, 72, 100
6, 59508, Note_on_c, 4, 72, 0
6, 59520, Note_on_c, 4, 64, 100
6, 59628, Note_on_c, 4, 64, 0
6, 59640, Note_on_c, 4, 67, 100
6, 59694, Note_on_c, 4, 67, 0
6, 59700, Note_on_c, 4, 69, 100
6, 59754, Note_on_c, 4, 69, 0
6, 59760, Note_on_c, 4, 71, 100
6, 59814, Note_on_c, 4, 71, 0
6, 59820, Note_on_c, 4, 72, 100
6, 59874, Note_on_c, 4, 72, 0
6, 59880, Note_on_c, 4, 74, 100
6, 59988, Note_on_c, 4, 74, 0
6, 60000, Note_on_c, 4, 67, 100
6, 60108, Note_on_c, 4, 67, 0
6, 60540, Note_on_c, 4, 67, 100
6, 60594, Note_on_c, 4, 67, 0
6, 60600, Note_on_c, 4, 69, 100
6, 60654, Note_on_c, 4, 69, 0
6, 60660, Note_on_c, 4, 71, 100
6, 60714, Note_on_c, 4, 71, 0
6, 60720, Note_on_c, 4, 72, 100
6, 60774, Note_on_c, 4, 72, 0
6, 60780, Note_on_c, 4, 74, 100
6, 60834, Note_on_c, 4, 74, 0
6, 60840, Note_on_c, 4, 76, 100
6, 60894, Note_on_c, 4, 76, 0
6, 60900, Note_on_c, 4, 77, 100
6, 60954, Note_on_c, 4, 77, 0
6, 60960, Note_on_c, 4, 79, 100
6, 61014, Note_on_c, 4, 79, 0
6, 61020, Note_on_c, 4, 77, 100
6, 61074, Note_on_c, 4, 77, 0
6, 61080, Note_on_c, 4, 76, 100
6, 61134, Note_on_c, 4, 76, 0
6, 61140, Note_on_c, 4, 77, 100
6, 61194, Note_on_c, 4, 77, 0
6, 61200, Note_on_c, 4, 79, 100
6, 61254, Note_on_c, 4, 79, 0
6, 61260, Note_on_c, 4, 77, 100
6, 61314, Note_on_c, 4, 77, 0
6, 61320, Note_on_c, 4, 79, 100
6, 61374, Note_on_c, 4, 79, 0
6, 61380, Note_on_c, 4, 81, 100
6, 61434, Note_on_c, 4, 81, 0
6, 61440, Note_on_c, 4, 77, 100
6, 61548, Note_on_c, 4, 77, 0
6, 61560, Note_on_c, 4, 72, 100
6, 61668, Note_on_c, 4, 72, 0
6, 61680, Note_on_c, 4, 77, 100
6, 61680, Note_on_c, 4, 69, 100
6, 61734, Note_on_c, 4, 69, 0
6, 61740, Note_on_c, 4, 65, 100
6, 61794, Note_on_c, 4, 65, 0
6, 61800, Note_on_c, 4, 69, 100
6, 61854, Note_on_c, 4, 69, 0
6, 61860, Note_on_c, 4, 72, 100
6, 61914, Note_on_c, 4, 72, 0
6, 61920, Note_on_c, 4, 60, 100
6, 61974, Note_on_c, 4, 60, 0
6, 61974, Note_on_c, 4, 77, 0
6, 61980, Note_on_c, 4, 79, 100
6, 61980, Note_on_c, 4, 64, 100
6, 62007, Note_on_c, 4, 79, 0
6, 62010, Note_on_c, 4, 77, 100
6, 62034, Note_on_c, 4, 64, 0
6, 62037, Note_on_c, 4, 77, 0
6, 62040, Note_on_c, 4, 76, 100
6, 62040, Note_on_c, 4, 67, 100
6, 62067, Note_on_c, 4, 76, 0
6, 62070, Note_on_c, 4, 77, 100
6, 62094, Note_on_c, 4, 67, 0
6, 62097, Note_on_c, 4, 77, 0
6, 62100, Note_on_c, 4, 79, 100
6, 62100, Note_on_c, 4, 72, 100
6, 62154, Note_on_c, 4, 72, 0
6, 62154, Note_on_c, 4, 79, 0
6, 62160, Note_on_c, 4, 76, 100
6, 62508, Note_on_c, 4, 76, 0
6, 62520, Note_on_c, 4, 69, 100
6, 62628, Note_on_c, 4, 69, 0
6, 62640, Note_on_c, 4, 74, 100
6, 62640, Note_on_c, 4, 65, 100
6, 62694, Note_on_c, 4, 65, 0
6, 62700, Note_on_c, 4, 62, 100
6, 62754, Note_on_c, 4, 62, 0
6, 62760, Note_on_c, 4, 65, 100
6, 62814, Note_on_c, 4, 65, 0
6, 62820, Note_on_c, 4, 69, 100
6, 62874, Note_on_c, 4, 69, 0
6, 62880, Note_on_c, 4, 57, 100
6, 62934, Note_on_c, 4, 57, 0
6, 62934, Note_on_c, 4, 74, 0
6, 62940, Note_on_c, 4, 76, 100
6, 62940, Note_on_c, 4, 60, 100
6, 62967, Note_on_c, 4, 76, 0
6, 62970, Note_on_c, 4, 74, 100
6, 62994, Note_on_c, 4, 60, 0
6, 62997, Note_on_c, 4, 74, 0
6, 63000, Note_on_c, 4, 72, 100
6, 63000, Note_on_c, 4, 64, 100
6, 63027, Note_on_c, 4, 72, 0
6, 63030, Note_on_c, 4, 74, 100
6, 63054, Note_on_c, 4, 64, 0
6, 63057, Note_on_c, 4, 74, 0
6, 63060, Note_on_c, 4, 76, 100
6, 63060, Note_on_c, 4, 69, 100
6, 63114, Note_on_c, 4, 69, 0
6, 63114, Note_on_c, 4, 76, 0
6, 63120, Note_on_c, 4, 72, 100
6, 63468, Note_on_c, 4, 72, 0
6, 63480, Note_on_c, 4, 65, 100
6, 63588, Note_on_c, 4, 65, 0
6, 63600, Note_on_c, 4, 70, 100
6, 63894, Note_on_c, 4, 70, 0
6, 63900, Note_on_c, 4, 72, 100
6, 63927, Note_on_c, 4, 72, 0
6, 63930, Note_on_c, 4, 70, 100
6, 63957, Note_on_c, 4, 70, 0
6, 63960, Note_on_c, 4, 69, 100
6, 63987, Note_on_c, 4, 69, 0
6, 63990, Note_on_c, 4, 70, 100
6, 64017, Note_on_c, 4, 70, 0
6, 64020, Note_on_c, 4, 72, 100
6, 64074, Note_on_c, 4, 72, 0
6, 64080, Note_on_c, 4, 69, 100
6, 64320, Note_on_c, 4, 69, 0
6, 64320, Note_on_c, 4, 69, 100
6, 64428, Note_on_c, 4, 69, 0
6, 64440, Note_on_c, 4, 62, 100
6, 64548, Note_on_c, 4, 62, 0
6, 64560, Note_on_c, 4, 67, 100
6, 64854, Note_on_c, 4, 67, 0
6, 64860, Note_on_c, 4, 69, 100
6, 64887, Note_on_c, 4, 69, 0
6, 64890, Note_on_c, 4, 70, 100
6, 64917, Note_on_c, 4, 70, 0
6, 64920, Note_on_c, 4, 69, 100
6, 64947, Note_on_c, 4, 69, 0
6, 64950, Note_on_c, 4, 67, 100
6, 64977, Note_on_c, 4, 67, 0
6, 64980, Note_on_c, 4, 65, 100
6, 65007, Note_on_c, 4, 65, 0
6, 65010, Note_on_c, 4, 64, 100
6, 65037, Note_on_c, 4, 64, 0
6, 65040, Note_on_c, 4, 65, 100
6, 65148, Note_on_c, 4, 65, 0
6, 66240, Note_on_c, 4, 69, 100
6, 66240, Note_on_c, 4, 72, 100
6, 66402, Note_on_c, 4, 72, 0
6, 66402, Note_on_c, 4, 69, 0
6, 66420, Note_on_c, 4, 74, 100
6, 66474, Note_on_c, 4, 74, 0
6, 66480, Note_on_c, 4, 69, 100
6, 66480, Note_on_c, 4, 72, 100
6, 66642, Note_on_c, 4, 72, 0
6, 66642, Note_on_c, 4, 69, 0
6, 66660, Note_on_c, 4, 74, 100
6, 66714, Note_on_c, 4, 74, 0
6, 66720, Note_on_c, 4, 72, 100
6, 66774, Note_on_c, 4, 72, 0
6, 66780, Note_on_c, 4, 74, 100
6, 66834, Note_on_c, 4, 74, 0
6, 66840, Note_on_c, 4, 72, 100
6, 66894, Note_on_c, 4, 72, 0
6, 66900, Note_on_c, 4, 77, 100
6, 66954, Note_on_c, 4, 77, 0
6, 66960, Note_on_c, 4, 72, 100
6, 67014, Note_on_c, 4, 72, 0
6, 67020, Note_on_c, 4, 70, 100
6, 67074, Note_on_c, 4, 70, 0
6, 67080, Note_on_c, 4, 69, 100
6, 67134, Note_on_c, 4, 69, 0
6, 67140, Note_on_c, 4, 67, 100
6, 67194, Note_on_c, 4, 67, 0
6, 67200, Note_on_c, 4, 65, 100
6, 67254, Note_on_c, 4, 65, 0
6, 67260, Note_on_c, 4, 69, 100
6, 67314, Note_on_c, 4, 69, 0
6, 67320, Note_on_c, 4, 67, 100
6, 67374, Note_on_c, 4, 67, 0
6, 67380, Note_on_c, 4, 65, 100
6, 67434, Note_on_c, 4, 65, 0
6, 67440, Note_on_c, 4, 64, 100
6, 67494, Note_on_c, 4, 64, 0
6, 67500, Note_on_c, 4, 65, 100
6, 67554, Note_on_c, 4, 65, 0
6, 67560, Note_on_c, 4, 67, 100
6, 67614, Note_on_c, 4, 67, 0
6, 67620, Note_on_c, 4, 64, 100
6, 67674, Note_on_c, 4, 64, 0
6, 67680, Note_on_c, 4, 60, 100
6, 67734, Note_on_c, 4, 60, 0
6, 67740, Note_on_c, 4, 65, 100
6, 67794, Note_on_c, 4, 65, 0
6, 67800, Note_on_c, 4, 64, 100
6, 67854, Note_on_c, 4, 64, 0
6, 67860, Note_on_c, 4, 62, 100
6, 67914, Note_on_c, 4, 62, 0
6, 68280, Note_on_c, 4, 81, 100
6, 68388, Note_on_c, 4, 81, 0
6, 68400, Note_on_c, 4, 81, 100
6, 68508, Note_on_c, 4, 81, 0
6, 68520, Note_on_c, 4, 74, 100
6, 68628, Note_on_c, 4, 74, 0
6, 68760, Note_on_c, 4, 74, 100
6, 68868, Note_on_c, 4, 74, 0
6, 68880, Note_on_c, 4, 74, 100
6, 68988, Note_on_c, 4, 74, 0
6, 69000, Note_on_c, 4, 67, 100
6, 69108, Note_on_c, 4, 67, 0
6, 69120, Note_on_c, 4, 67, 100
6, 69228, Note_on_c, 4, 67, 0
6, 69240, Note_on_c, 4, 60, 100
6, 69348, Note_on_c, 4, 60, 0
6, 69480, Note_on_c, 4, 72, 100
6, 69588, Note_on_c, 4, 72, 0
6, 69600, Note_on_c, 4, 72, 100
6, 69708, Note_on_c, 4, 72, 0
6, 69720, Note_on_c, 4, 65, 100
6, 69828, Note_on_c, 4, 65, 0
6, 69960, Note_on_c, 4, 65, 100
6, 70068, Note_on_c, 4, 65, 0
6, 70080, Note_on_c, 4, 70, 100
6, 70134, Note_on_c, 4, 70, 0
6, 70140, Note_on_c, 4, 72, 100
6, 70194, Note_on_c, 4, 72, 0
6, 70200, Note_on_c, 4, 74, 100
6, 70254, Note_on_c, 4, 74, 0
6, 70260, Note_on_c, 4, 70, 100
6, 70314, Note_on_c, 4, 70, 0
6, 70320, Note_on_c, 4, 67, 100
6, 70374, Note_on_c, 4, 67, 0
6, 70380, Note_on_c, 4, 69, 100
6, 70434, Note_on_c, 4, 69, 0
6, 70440, Note_on_c, 4, 70, 100
6, 70494, Note_on_c, 4, 70, 0
6, 70500, Note_on_c, 4, 67, 100
6, 70554, Note_on_c, 4, 67, 0
6, 70560, Note_on_c, 4, 64, 100
6, 70614, Note_on_c, 4, 64, 0
6, 70620, Note_on_c, 4, 65, 100
6, 70674, Note_on_c, 4, 65, 0
6, 70680, Note_on_c, 4, 67, 100
6, 70734, Note_on_c, 4, 67, 0
6, 70740, Note_on_c, 4, 64, 100
6, 70794, Note_on_c, 4, 64, 0
6, 70800, Note_on_c, 4, 60, 100
6, 70854, Note_on_c, 4, 60, 0
6, 70860, Note_on_c, 4, 76, 100
6, 70914, Note_on_c, 4, 76, 0
6, 70920, Note_on_c, 4, 79, 100
6, 70974, Note_on_c, 4, 79, 0
6, 70980, Note_on_c, 4, 82, 100
6, 71034, Note_on_c, 4, 82, 0
6, 71040, Note_on_c, 4, 77, 100
6, 71094, Note_on_c, 4, 77, 0
6, 71100, Note_on_c, 4, 79, 100
6, 71154, Note_on_c, 4, 79, 0
6, 71160, Note_on_c, 4, 81, 100
6, 71214, Note_on_c, 4, 81, 0
6, 71220, Note_on_c, 4, 77, 100
6, 71274, Note_on_c, 4, 77, 0
6, 71280, Note_on_c, 4, 72, 100
6, 71334, Note_on_c, 4, 72, 0
6, 71340, Note_on_c, 4, 77, 100
6, 71394, Note_on_c, 4, 77, 0
6, 71400, Note_on_c, 4, 81, 100
6, 71454, Note_on_c, 4, 81, 0
6, 71460, Note_on_c, 4, 84, 100
6, 71514, Note_on_c, 4, 84, 0
6, 71520, Note_on_c, 4, 79, 100
6, 71574, Note_on_c, 4, 79, 0
6, 71580, Note_on_c, 4, 81, 100
6, 71634, Note_on_c, 4, 81, 0
6, 71640, Note_on_c, 4, 82, 100
6, 71694, Note_on_c, 4, 82, 0
6, 71700, Note_on_c, 4, 79, 100
6, 71754, Note_on_c, 4, 79, 0
6, 71760, Note_on_c, 4, 76, 100
6, 71868, Note_on_c, 4, 76, 0
6, 71880, Note_on_c, 4, 70, 100
6, 71880, Note_on_c, 4, 72, 100
6, 71880, Note_on_c, 4, 76, 100
6, 71988, Note_on_c, 4, 76, 0
6, 71988, Note_on_c, 4, 72, 0
6, 71988, Note_on_c, 4, 70, 0
6, 72000, Note_on_c, 4, 69, 100
6, 72000, Note_on_c, 4, 72, 100
6, 72000, Note_on_c, 4, 77, 100
6, 72108, Note_on_c, 4, 77, 0
6, 72108, Note_on_c, 4, 72, 0
6, 72108, Note_on_c, 4, 69, 0
6, 72360, Note_on_c, 4, 57, 100
6, 72360, Note_on_c, 4, 65, 100
6, 72468, Note_on_c, 4, 65, 0
6, 72468, Note_on_c, 4, 57, 0
6, 72480, Note_on_c, 4, 62, 100
6, 72480, Note_on_c, 4, 65, 100
6, 72588, Note_on_c, 4, 65, 0
6, 72588, Note_on_c, 4, 62, 0
6, 72600, Note_on_c, 4, 58, 100
6, 72708, Note_on_c, 4, 58, 0
6, 72840, Note_on_c, 4, 70, 100
6, 72840, Note_on_c, 4, 74, 100
6, 72948, Note_on_c, 4, 74, 0
6, 72948, Note_on_c, 4, 70, 0
6, 72960, Note_on_c, 4, 67, 100
6, 72960, Note_on_c, 4, 72, 100
6, 73068, Note_on_c, 4, 72, 0
6, 73068, Note_on_c, 4, 67, 0
6, 73080, Note_on_c, 4, 70, 100
6, 73080, Note_on_c, 4, 76, 100
6, 73080, Note_on_c, 4, 79, 100
6, 73188, Note_on_c, 4, 79, 0
6, 73188, Note_on_c, 4, 76, 0
6, 73188, Note_on_c, 4, 70, 0
6, 73200, Note_on_c, 4, 72, 100
6, 73200, Note_on_c, 4, 76, 100
6, 73200, Note_on_c, 4, 79, 100
6, 73308, Note_on_c, 4, 79, 0
6, 73308, Note_on_c, 4, 76, 0
6, 73308, Note_on_c, 4, 72, 0
6, 73320, Note_on_c, 4, 72, 100
6, 73428, Note_on_c, 4, 72, 0
6, 73440, Note_on_c, 4, 69, 100
6, 73440, Note_on_c, 4, 72, 100
6, 73548, Note_on_c, 4, 72, 0
6, 73548, Note_on_c, 4, 69, 0
6, 73560, Note_on_c, 4, 62, 100
6, 73560, Note_on_c, 4, 65, 100
6, 73560, Note_on_c, 4, 74, 100
6, 73668, Note_on_c, 4, 74, 0
6, 73668, Note_on_c, 4, 65, 0
6, 73668, Note_on_c, 4, 62, 0
6, 73680, Note_on_c, 4, 64, 100
6, 73680, Note_on_c, 4, 67, 100
6, 73788, Note_on_c, 4, 67, 0
6, 73788, Note_on_c, 4, 64, 0
6, 73800, Note_on_c, 4, 64, 100
6, 73800, Note_on_c, 4, 67, 100
6, 73800, Note_on_c, 4, 72, 100
6, 73908, Note_on_c, 4, 72, 0
6, 73908, Note_on_c, 4, 67, 0
6, 73908, Note_on_c, 4, 64, 0
6, 73920, Note_on_c, 4, 69, 100
6, 73974, Note_on_c, 4, 69, 0
6, 73980, Note_on_c, 4, 67, 100
6, 74034, Note_on_c, 4, 67, 0
6, 74040, Note_on_c, 4, 69, 100
6, 74094, Note_on_c, 4, 69, 0
6, 74100, Note_on_c, 4, 70, 100
6, 74154, Note_on_c, 4, 70, 0
6, 74160, Note_on_c, 4, 69, 100
6, 74214, Note_on_c, 4, 69, 0
6, 74220, Note_on_c, 4, 70, 100
6, 74274, Note_on_c, 4, 70, 0
6, 74280, Note_on_c, 4, 67, 100
6, 74334, Note_on_c, 4, 67, 0
6, 74340, Note_on_c, 4, 70, 100
6, 74394, Note_on_c, 4, 70, 0
6, 74400, Note_on_c, 4, 69, 100
6, 74454, Note_on_c, 4, 69, 0
6, 74460, Note_on_c, 4, 72, 100
6, 74514, Note_on_c, 4, 72, 0
6, 74520, Note_on_c, 4, 70, 100
6, 74574, Note_on_c, 4, 70, 0
6, 74580, Note_on_c, 4, 67, 100
6, 74634, Note_on_c, 4, 67, 0
6, 74640, Note_on_c, 4, 69, 100
6, 74694, Note_on_c, 4, 69, 0
6, 74700, Note_on_c, 4, 65, 100
6, 74754, Note_on_c, 4, 65, 0
6, 74760, Note_on_c, 4, 67, 100
6, 74814, Note_on_c, 4, 67, 0
6, 74820, Note_on_c, 4, 64, 100
6, 74874, Note_on_c, 4, 64, 0
6, 74880, Note_on_c, 4, 65, 100
6, 74934, Note_on_c, 4, 65, 0
6, 74940, Note_on_c, 4, 64, 100
6, 74994, Note_on_c, 4, 64, 0
6, 75000, Note_on_c, 4, 65, 100
6, 75054, Note_on_c, 4, 65, 0
6, 75060, Note_on_c, 4, 67, 100
6, 75114, Note_on_c, 4, 67, 0
6, 75120, Note_on_c, 4, 65, 100
6, 75174, Note_on_c, 4, 65, 0
6, 75180, Note_on_c, 4, 67, 100
6, 75234, Note_on_c, 4, 67, 0
6, 75240, Note_on_c, 4, 64, 100
6, 75294, Note_on_c, 4, 64, 0
6, 75300, Note_on_c, 4, 67, 100
6, 75354, Note_on_c, 4, 67, 0
6, 75360, Note_on_c, 4, 65, 100
6, 75414, Note_on_c, 4, 65, 0
6, 75420, Note_on_c, 4, 69, 100
6, 75474, Note_on_c, 4, 69, 0
6, 75480, Note_on_c, 4, 67, 100
6, 75534, Note_on_c, 4, 67, 0
6, 75540, Note_on_c, 4, 64, 100
6, 75594, Note_on_c, 4, 64, 0
6, 75600, Note_on_c, 4, 65, 100
6, 75708, Note_on_c, 4, 65, 0
6, 75900, Note_on_c, 4, 67, 100
6, 75954, Note_on_c, 4, 67, 0
6, 75960, Note_on_c, 4, 70, 100
6, 76014, Note_on_c, 4, 70, 0
6, 76020, Note_on_c, 4, 74, 100
6, 76074, Note_on_c, 4, 74, 0
6, 76080, Note_on_c, 4, 79, 100
6, 76374, Note_on_c, 4, 79, 0
6, 76380, Note_on_c, 4, 65, 100
6, 76434, Note_on_c, 4, 65, 0
6, 76440, Note_on_c, 4, 69, 100
6, 76494, Note_on_c, 4, 69, 0
6, 76500, Note_on_c, 4, 72, 100
6, 76554, Note_on_c, 4, 72, 0
6, 76560, Note_on_c, 4, 77, 100
6, 76854, Note_on_c, 4, 77, 0
6, 76860, Note_on_c, 4, 64, 100
6, 76914, Note_on_c, 4, 64, 0
6, 76920, Note_on_c, 4, 67, 100
6, 76974, Note_on_c, 4, 67, 0
6, 76980, Note_on_c, 4, 70, 100
6, 77034, Note_on_c, 4, 70, 0
6, 77040, Note_on_c, 4, 76, 100
6, 77334, Note_on_c, 4, 76, 0
6, 77340, Note_on_c, 4, 62, 100
6, 77394, Note_on_c, 4, 62, 0
6, 77400, Note_on_c, 4, 65, 100
6, 77454, Note_on_c, 4, 65, 0
6, 77460, Note_on_c, 4, 69, 100
6, 77514, Note_on_c, 4, 69, 0
6, 77520, Note_on_c, 4, 74, 100
6, 77814, Note_on_c, 4, 74, 0
6, 77820, Note_on_c, 4, 77, 100
6, 77874, Note_on_c, 4, 77, 0
6, 77880, Note_on_c, 4, 76, 100
6, 77934, Note_on_c, 4, 76, 0
6, 77940, Note_on_c, 4, 74, 100
6, 77994, Note_on_c, 4, 74, 0
6, 78000, Note_on_c, 4, 72, 100
6, 78054, Note_on_c, 4, 72, 0
6, 78060, Note_on_c, 4, 74, 100
6, 78114, Note_on_c, 4, 74, 0
6, 78120, Note_on_c, 4, 76, 100
6, 78348, Note_on_c, 4, 76, 0
6, 78360, Note_on_c, 4, 74, 100
6, 78414, Note_on_c, 4, 74, 0
6, 78420, Note_on_c, 4, 72, 100
6, 78474, Note_on_c, 4, 72, 0
6, 78480, Note_on_c, 4, 71, 100
6, 78534, Note_on_c, 4, 71, 0
6, 78540, Note_on_c, 4, 69, 100
6, 78594, Note_on_c, 4, 69, 0
6, 78600, Note_on_c, 4, 68, 100
6, 78654, Note_on_c, 4, 68, 0
6, 78660, Note_on_c, 4, 69, 100
6, 78714, Note_on_c, 4, 69, 0
6, 78720, Note_on_c, 4, 64, 100
6, 78828, Note_on_c, 4, 64, 0
6, 79080, Note_on_c, 4, 64, 100
6, 79188, Note_on_c, 4, 64, 0
6, 79200, Note_on_c, 4, 76, 100
6, 80748, Note_on_c, 4, 76, 0
6, 80760, Note_on_c, 4, 81, 100
6, 80868, Note_on_c, 4, 81, 0
6, 80880, Note_on_c, 4, 81, 100
6, 80988, Note_on_c, 4, 81, 0
6, 81000, Note_on_c, 4, 76, 100
6, 81108, Note_on_c, 4, 76, 0
6, 81240, Note_on_c, 4, 84, 100
6, 81348, Note_on_c, 4, 84, 0
6, 81360, Note_on_c, 4, 84, 100
6, 81468, Note_on_c, 4, 84, 0
6, 81480, Note_on_c, 4, 78, 100
6, 81588, Note_on_c, 4, 78, 0
6, 81600, Note_on_c, 4, 78, 100
6, 81708, Note_on_c, 4, 78, 0
6, 81720, Note_on_c, 4, 71, 100
6, 81828, Note_on_c, 4, 71, 0
6, 81960, Note_on_c, 4, 83, 100
6, 82068, Note_on_c, 4, 83, 0
6, 82080, Note_on_c, 4, 83, 100
6, 82188, Note_on_c, 4, 83, 0
6, 82200, Note_on_c, 4, 76, 100
6, 82308, Note_on_c, 4, 76, 0
6, 82440, Note_on_c, 4, 64, 100
6, 82548, Note_on_c, 4, 64, 0
6, 82560, Note_on_c, 4, 69, 100
6, 82614, Note_on_c, 4, 69, 0
6, 82620, Note_on_c, 4, 71, 100
6, 82674, Note_on_c, 4, 71, 0
6, 82680, Note_on_c, 4, 72, 100
6, 82734, Note_on_c, 4, 72, 0
6, 82740, Note_on_c, 4, 69, 100
6, 82794, Note_on_c, 4, 69, 0
6, 82800, Note_on_c, 4, 66, 100
6, 82854, Note_on_c, 4, 66, 0
6, 82860, Note_on_c, 4, 67, 100
6, 82914, Note_on_c, 4, 67, 0
6, 82920, Note_on_c, 4, 69, 100
6, 82974, Note_on_c, 4, 69, 0
6, 82980, Note_on_c, 4, 66, 100
6, 83034, Note_on_c, 4, 66, 0
6, 83040, Note_on_c, 4, 63, 100
6, 83094, Note_on_c, 4, 63, 0
6, 83100, Note_on_c, 4, 64, 100
6, 83154, Note_on_c, 4, 64, 0
6, 83160, Note_on_c, 4, 66, 100
6, 83214, Note_on_c, 4, 66, 0
6, 83220, Note_on_c, 4, 63, 100
6, 83274, Note_on_c, 4, 63, 0
6, 83280, Note_on_c, 4, 59, 100
6, 83334, Note_on_c, 4, 59, 0
6, 83340, Note_on_c, 4, 75, 100
6, 83394, Note_on_c, 4, 75, 0
6, 83400, Note_on_c, 4, 78, 100
6, 83454, Note_on_c, 4, 78, 0
6, 83460, Note_on_c, 4, 81, 100
6, 83514, Note_on_c, 4, 81, 0
6, 83520, Note_on_c, 4, 76, 100
6, 83574, Note_on_c, 4, 76, 0
6, 83580, Note_on_c, 4, 78, 100
6, 83634, Note_on_c, 4, 78, 0
6, 83640, Note_on_c, 4, 79, 100
6, 83694, Note_on_c, 4, 79, 0
6, 83700, Note_on_c, 4, 76, 100
6, 83754, Note_on_c, 4, 76, 0
6, 83760, Note_on_c, 4, 71, 100
6, 83814, Note_on_c, 4, 71, 0
6, 83820, Note_on_c, 4, 76, 100
6, 83874, Note_on_c, 4, 76, 0
6, 83880, Note_on_c, 4, 79, 100
6, 83934, Note_on_c, 4, 79, 0
6, 83940, Note_on_c, 4, 83, 100
6, 83994, Note_on_c, 4, 83, 0
6, 84000, Note_on_c, 4, 78, 100
6, 84054, Note_on_c, 4, 78, 0
6, 84060, Note_on_c, 4, 79, 100
6, 84114, Note_on_c, 4, 79, 0
6, 84120, Note_on_c, 4, 81, 100
6, 84174, Note_on_c, 4, 81, 0
6, 84180, Note_on_c, 4, 78, 100
6, 84234, Note_on_c, 4, 78, 0
6, 84240, Note_on_c, 4, 75, 100
6, 84294, Note_on_c, 4, 75, 0
6, 84300, Note_on_c, 4, 76, 100
6, 84354, Note_on_c, 4, 76, 0
6, 84360, Note_on_c, 4, 78, 100
6, 84414, Note_on_c, 4, 78, 0
6, 84420, Note_on_c, 4, 75, 100
6, 84474, Note_on_c, 4, 75, 0
6, 84480, Note_on_c, 4, 64, 100
6, 84480, Note_on_c, 4, 71, 100
6, 84588, Note_on_c, 4, 71, 0
6, 84588, Note_on_c, 4, 64, 0
6, 84600, Note_on_c, 4, 64, 100
6, 84600, Note_on_c, 4, 71, 100
6, 84708, Note_on_c, 4, 71, 0
6, 84708, Note_on_c, 4, 64, 0
6, 84720, Note_on_c, 4, 64, 100
6, 84720, Note_on_c, 4, 68, 100
6, 84720, Note_on_c, 4, 71, 100
6, 84828, Note_on_c, 4, 71, 0
6, 84828, Note_on_c, 4, 68, 0
6, 84828, Note_on_c, 4, 64, 0
6, 84840, Note_on_c, 4, 64, 100
6, 84840, Note_on_c, 4, 68, 100
6, 84840, Note_on_c, 4, 71, 100
6, 84948, Note_on_c, 4, 71, 0
6, 84948, Note_on_c, 4, 68, 0
6, 84948, Note_on_c, 4, 64, 0
6, 84960, Note_on_c, 4, 64, 100
6, 84960, Note_on_c, 4, 68, 100
6, 84960, Note_on_c, 4, 71, 100
6, 85068, Note_on_c, 4, 71, 0
6, 85068, Note_on_c, 4, 68, 0
6, 85068, Note_on_c, 4, 64, 0
6, 85080, Note_on_c, 4, 64, 100
6, 85080, Note_on_c, 4, 68, 100
6, 85080, Note_on_c, 4, 71, 100
6, 85188, Note_on_c, 4, 71, 0
6, 85188, Note_on_c, 4, 68, 0
6, 85188, Note_on_c, 4, 64, 0
6, 85200, Note_on_c, 4, 60, 100
6, 85200, Note_on_c, 4, 64, 100
6, 85200, Note_on_c, 4, 69, 100
6, 85308, Note_on_c, 4, 69, 0
6, 85308, Note_on_c, 4, 64, 0
6, 85308, Note_on_c, 4, 60, 0
6, 85320, Note_on_c, 4, 60, 100
6, 85320, Note_on_c, 4, 64, 100
6, 85320, Note_on_c, 4, 69, 100
6, 85428, Note_on_c, 4, 69, 0
6, 85428, Note_on_c, 4, 64, 0
6, 85428, Note_on_c, 4, 60, 0
6, 85440, Note_on_c, 4, 69, 100
6, 85440, Note_on_c, 4, 71, 100
6, 85440, Note_on_c, 4, 78, 100
6, 85656, Note_on_c, 4, 78, 0
6, 85656, Note_on_c, 4, 71, 0
6, 85656, Note_on_c, 4, 69, 0
6, 85800, Note_on_c, 4, 59, 100
6, 85800, Note_on_c, 4, 63, 100
6, 85800, Note_on_c, 4, 66, 100
6, 85908, Note_on_c, 4, 66, 0
6, 85908, Note_on_c, 4, 63, 0
6, 85908, Note_on_c, 4, 59, 0
6, 85920, Note_on_c, 4, 67, 100
6, 85980, Note_on_c, 4, 64, 100
6, 86028, Note_on_c, 4, 67, 0
6, 86040, Note_on_c, 4, 72, 100
6, 86088, Note_on_c, 4, 64, 0
6, 86100, Note_on_c, 4, 64, 100
6, 86148, Note_on_c, 4, 72, 0
6, 86154, Note_on_c, 4, 64, 0
6, 86160, Note_on_c, 4, 66, 100
6, 86220, Note_on_c, 4, 63, 100
6, 86268, Note_on_c, 4, 66, 0
6, 86280, Note_on_c, 4, 71, 100
6, 86334, Note_on_c, 4, 71, 0
6, 86340, Note_on_c, 4, 66, 100
6, 86382, Note_on_c, 4, 63, 0
6, 86394, Note_on_c, 4, 66, 0
6, 86400, Note_on_c, 4, 59, 100
6, 86400, Note_on_c, 4, 64, 100
6, 86400, Note_on_c, 4, 67, 100
6, 86616, Note_on_c, 4, 67, 0
6, 86616, Note_on_c, 4, 64, 0
6, 86616, Note_on_c, 4, 59, 0
6, 88320, Note_on_c, 4, 74, 100
6, 88428, Note_on_c, 4, 74, 0
6, 88440, Note_on_c, 4, 69, 100
6, 88548, Note_on_c, 4, 69, 0
6, 88560, Note_on_c, 4, 74, 100
6, 88668, Note_on_c, 4, 74, 0
6, 88680, Note_on_c, 4, 69, 100
6, 88788, Note_on_c, 4, 69, 0
6, 88800, Note_on_c, 4, 74, 100
6, 88908, Note_on_c, 4, 74, 0
6, 88920, Note_on_c, 4, 72, 100
6, 88974, Note_on_c, 4, 72, 0
6, 88980, Note_on_c, 4, 71, 100
6, 89034, Note_on_c, 4, 71, 0
6, 89040, Note_on_c, 4, 69, 100
6, 89148, Note_on_c, 4, 69, 0
6, 89160, Note_on_c, 4, 71, 100
6, 89214, Note_on_c, 4, 71, 0
6, 89220, Note_on_c, 4, 72, 100
6, 89274, Note_on_c, 4, 72, 0
6, 89280, Note_on_c, 4, 74, 100
6, 89334, Note_on_c, 4, 74, 0
6, 89340, Note_on_c, 4, 72, 100
6, 89394, Note_on_c, 4, 72, 0
6, 89400, Note_on_c, 4, 71, 100
6, 89454, Note_on_c, 4, 71, 0
6, 89460, Note_on_c, 4, 72, 100
6, 89514, Note_on_c, 4, 72, 0
6, 89520, Note_on_c, 4, 74, 100
6, 89574, Note_on_c, 4, 74, 0
6, 89580, Note_on_c, 4, 72, 100
6, 89634, Note_on_c, 4, 72, 0
6, 89640, Note_on_c, 4, 71, 100
6, 89694, Note_on_c, 4, 71, 0
6, 89700, Note_on_c, 4, 72, 100
6, 89754, Note_on_c, 4, 72, 0
6, 89760, Note_on_c, 4, 74, 100
6, 89814, Note_on_c, 4, 74, 0
6, 89820, Note_on_c, 4, 72, 100
6, 89874, Note_on_c, 4, 72, 0
6, 89880, Note_on_c, 4, 71, 100
6, 89934, Note_on_c, 4, 71, 0
6, 89940, Note_on_c, 4, 72, 100
6, 89994, Note_on_c, 4, 72, 0
6, 90000, Note_on_c, 4, 74, 100
6, 90054, Note_on_c, 4, 74, 0
6, 90060, Note_on_c, 4, 72, 100
6, 90114, Note_on_c, 4, 72, 0
6, 90120, Note_on_c, 4, 71, 100
6, 90174, Note_on_c, 4, 71, 0
6, 90180, Note_on_c, 4, 69, 100
6, 90234, Note_on_c, 4, 69, 0
6, 90240, Note_on_c, 4, 67, 100
6, 91104, Note_on_c, 4, 67, 0
6, 91320, Note_on_c, 4, 65, 100
6, 91374, Note_on_c, 4, 65, 0
6, 91380, Note_on_c, 4, 67, 100
6, 91434, Note_on_c, 4, 67, 0
6, 91440, Note_on_c, 4, 68, 100
6, 91494, Note_on_c, 4, 68, 0
6, 91500, Note_on_c, 4, 70, 100
6, 91554, Note_on_c, 4, 70, 0
6, 91560, Note_on_c, 4, 72, 100
6, 91614, Note_on_c, 4, 72, 0
6, 91620, Note_on_c, 4, 70, 100
6, 91674, Note_on_c, 4, 70, 0
6, 91680, Note_on_c, 4, 68, 100
6, 91734, Note_on_c, 4, 68, 0
6, 91740, Note_on_c, 4, 67, 100
6, 91794, Note_on_c, 4, 67, 0
6, 91800, Note_on_c, 4, 65, 100
6, 91854, Note_on_c, 4, 65, 0
6, 91860, Note_on_c, 4, 67, 100
6, 91914, Note_on_c, 4, 67, 0
6, 91920, Note_on_c, 4, 69, 100
6, 91974, Note_on_c, 4, 69, 0
6, 91980, Note_on_c, 4, 71, 100
6, 92034, Note_on_c, 4, 71, 0
6, 92040, Note_on_c, 4, 72, 100
6, 92094, Note_on_c, 4, 72, 0
6, 92100, Note_on_c, 4, 69, 100
6, 92154, Note_on_c, 4, 69, 0
6, 92160, Note_on_c, 4, 79, 100
6, 92268, Note_on_c, 4, 79, 0
6, 92280, Note_on_c, 4, 74, 100
6, 92388, Note_on_c, 4, 74, 0
6, 92400, Note_on_c, 4, 79, 100
6, 92508, Note_on_c, 4, 79, 0
6, 92520, Note_on_c, 4, 74, 100
6, 92628, Note_on_c, 4, 74, 0
6, 92640, Note_on_c, 4, 79, 100
6, 92748, Note_on_c, 4, 79, 0
6, 92760, Note_on_c, 4, 77, 100
6, 92814, Note_on_c, 4, 77, 0
6, 92820, Note_on_c, 4, 76, 100
6, 92874, Note_on_c, 4, 76, 0
6, 92880, Note_on_c, 4, 74, 100
6, 92934, Note_on_c, 4, 74, 0
6, 92940, Note_on_c, 4, 77, 100
6, 92994, Note_on_c, 4, 77, 0
6, 93000, Note_on_c, 4, 71, 100
6, 93054, Note_on_c, 4, 71, 0
6, 93060, Note_on_c, 4, 74, 100
6, 93114, Note_on_c, 4, 74, 0
6, 93120, Note_on_c, 4, 67, 100
6, 93174, Note_on_c, 4, 67, 0
6, 93180, Note_on_c, 4, 69, 100
6, 93234, Note_on_c, 4, 69, 0
6, 93240, Note_on_c, 4, 67, 100
6, 93294, Note_on_c, 4, 67, 0
6, 93300, Note_on_c, 4, 69, 100
6, 93354, Note_on_c, 4, 69, 0
6, 93360, Note_on_c, 4, 67, 100
6, 93414, Note_on_c, 4, 67, 0
6, 93420, Note_on_c, 4, 69, 100
6, 93474, Note_on_c, 4, 69, 0
6, 93480, Note_on_c, 4, 67, 100
6, 93534, Note_on_c, 4, 67, 0
6, 93540, Note_on_c, 4, 69, 100
6, 93594, Note_on_c, 4, 69, 0
6, 93600, Note_on_c, 4, 67, 100
6, 93654, Note_on_c, 4, 67, 0
6, 93660, Note_on_c, 4, 69, 100
6, 93714, Note_on_c, 4, 69, 0
6, 93720, Note_on_c, 4, 71, 100
6, 93774, Note_on_c, 4, 71, 0
6, 93780, Note_on_c, 4, 72, 100
6, 93834, Note_on_c, 4, 72, 0
6, 93840, Note_on_c, 4, 74, 100
6, 93948, Note_on_c, 4, 74, 0
6, 93960, Note_on_c, 4, 67, 100
6, 94068, Note_on_c, 4, 67, 0
6, 94080, Note_on_c, 4, 79, 100
6, 94188, Note_on_c, 4, 79, 0
6, 94200, Note_on_c, 4, 67, 100
6, 94308, Note_on_c, 4, 67, 0
6, 94320, Note_on_c, 4, 79, 100
6, 94428, Note_on_c, 4, 79, 0
6, 94440, Note_on_c, 4, 67, 100
6, 94548, Note_on_c, 4, 67, 0
6, 94620, Note_on_c, 4, 67, 100
6, 94674, Note_on_c, 4, 67, 0
6, 94680, Note_on_c, 4, 64, 100
6, 94734, Note_on_c, 4, 64, 0
6, 94740, Note_on_c, 4, 60, 100
6, 94794, Note_on_c, 4, 60, 0
6, 95520, Note_on_c, 4, 57, 100
6, 95574, Note_on_c, 4, 57, 0
6, 95580, Note_on_c, 4, 69, 100
6, 95634, Note_on_c, 4, 69, 0
6, 95640, Note_on_c, 4, 66, 100
6, 95694, Note_on_c, 4, 66, 0
6, 95700, Note_on_c, 4, 62, 100
6, 95754, Note_on_c, 4, 62, 0
6, 96480, Note_on_c, 4, 59, 100
6, 96534, Note_on_c, 4, 59, 0
6, 96540, Note_on_c, 4, 71, 100
6, 96594, Note_on_c, 4, 71, 0
6, 96600, Note_on_c, 4, 68, 100
6, 96654, Note_on_c, 4, 68, 0
6, 96660, Note_on_c, 4, 64, 100
6, 96714, Note_on_c, 4, 64, 0
6, 97200, Note_on_c, 4, 76, 100
6, 97308, Note_on_c, 4, 76, 0
6, 97320, Note_on_c, 4, 72, 100
6, 97428, Note_on_c, 4, 72, 0
6, 97440, Note_on_c, 4, 69, 100
6, 97548, Note_on_c, 4, 69, 0
6, 97560, Note_on_c, 4, 65, 100
6, 97668, Note_on_c, 4, 65, 0
6, 97680, Note_on_c, 4, 69, 100
6, 97788, Note_on_c, 4, 69, 0
6, 97800, Note_on_c, 4, 74, 100
6, 97908, Note_on_c, 4, 74, 0
6, 97920, Note_on_c, 4, 62, 100
6, 98028, Note_on_c, 4, 62, 0
6, 98040, Note_on_c, 4, 67, 100
6, 98148, Note_on_c, 4, 67, 0
6, 98160, Note_on_c, 4, 71, 100
6, 98268, Note_on_c, 4, 71, 0
6, 98280, Note_on_c, 4, 74, 100
6, 98388, Note_on_c, 4, 74, 0
6, 98400, Note_on_c, 4, 64, 100
6, 98454, Note_on_c, 4, 64, 0
6, 98460, Note_on_c, 4, 60, 100
6, 98514, Note_on_c, 4, 60, 0
6, 98520, Note_on_c, 4, 64, 100
6, 98574, Note_on_c, 4, 64, 0
6, 98580, Note_on_c, 4, 67, 100
6, 98634, Note_on_c, 4, 67, 0
6, 98640, Note_on_c, 4, 72, 100
6, 98694, Note_on_c, 4, 72, 0
6, 98700, Note_on_c, 4, 71, 100
6, 98754, Note_on_c, 4, 71, 0
6, 98760, Note_on_c, 4, 69, 100
6, 98814, Note_on_c, 4, 69, 0
6, 98820, Note_on_c, 4, 67, 100
6, 98874, Note_on_c, 4, 67, 0
6, 98880, Note_on_c, 4, 65, 100
6, 98988, Note_on_c, 4, 65, 0
6, 99000, Note_on_c, 4, 77, 100
6, 99108, Note_on_c, 4, 77, 0
6, 99120, Note_on_c, 4, 72, 100
6, 99228, Note_on_c, 4, 72, 0
6, 99240, Note_on_c, 4, 69, 100
6, 99348, Note_on_c, 4, 69, 0
6, 99360, Note_on_c, 4, 65, 100
6, 99468, Note_on_c, 4, 65, 0
6, 99480, Note_on_c, 4, 77, 100
6, 99588, Note_on_c, 4, 77, 0
6, 99600, Note_on_c, 4, 74, 100
6, 99708, Note_on_c, 4, 74, 0
6, 99720, Note_on_c, 4, 71, 100
6, 99828, Note_on_c, 4, 71, 0
6, 99960, Note_on_c, 4, 68, 100
6, 99960, Note_on_c, 4, 71, 100
6, 100068, Note_on_c, 4, 71, 0
6, 100068, Note_on_c, 4, 68, 0
6, 100080, Note_on_c, 4, 64, 100
6, 100080, Note_on_c, 4, 68, 100
6, 100080, Note_on_c, 4, 71, 100
6, 100188, Note_on_c, 4, 71, 0
6, 100188, Note_on_c, 4, 68, 0
6, 100188, Note_on_c, 4, 64, 0
6, 100200, Note_on_c, 4, 64, 100
6, 100200, Note_on_c, 4, 68, 100
6, 100200, Note_on_c, 4, 71, 100
6, 100308, Note_on_c, 4, 71, 0
6, 100308, Note_on_c, 4, 68, 0
6, 100308, Note_on_c, 4, 64, 0
6, 100440, Note_on_c, 4, 64, 100
6, 100440, Note_on_c, 4, 67, 100
6, 100440, Note_on_c, 4, 69, 100
6, 100548, Note_on_c, 4, 69, 0
6, 100548, Note_on_c, 4, 67, 0
6, 100548, Note_on_c, 4, 64, 0
6, 100560, Note_on_c, 4, 64, 100
6, 100560, Note_on_c, 4, 67, 100
6, 100560, Note_on_c, 4, 69, 100
6, 100668, Note_on_c, 4, 69, 0
6, 100668, Note_on_c, 4, 67, 0
6, 100668, Note_on_c, 4, 64, 0
6, 100680, Note_on_c, 4, 64, 100
6, 100680, Note_on_c, 4, 67, 100
6, 100680, Note_on_c, 4, 69, 100
6, 100788, Note_on_c, 4, 69, 0
6, 100788, Note_on_c, 4, 67, 0
6, 100788, Note_on_c, 4, 64, 0
6, 100920, Note_on_c, 4, 66, 100
6, 100920, Note_on_c, 4, 69, 100
6, 101028, Note_on_c, 4, 69, 0
6, 101028, Note_on_c, 4, 66, 0
6, 101040, Note_on_c, 4, 62, 100
6, 101040, Note_on_c, 4, 66, 100
6, 101040, Note_on_c, 4, 69, 100
6, 101148, Note_on_c, 4, 69, 0
6, 101148, Note_on_c, 4, 66, 0
6, 101148, Note_on_c, 4, 62, 0
6, 101160, Note_on_c, 4, 62, 100
6, 101160, Note_on_c, 4, 66, 100
6, 101160, Note_on_c, 4, 69, 100
6, 101268, Note_on_c, 4, 69, 0
6, 101268, Note_on_c, 4, 66, 0
6, 101268, Note_on_c, 4, 62, 0
6, 101400, Note_on_c, 4, 62, 100
6, 101400, Note_on_c, 4, 65, 100
6, 101400, Note_on_c, 4, 67, 100
6, 101508, Note_on_c, 4, 67, 0
6, 101508, Note_on_c, 4, 65, 0
6, 101508, Note_on_c, 4, 62, 0
6, 101520, Note_on_c, 4, 62, 100
6, 101520, Note_on_c, 4, 65, 100
6, 101520, Note_on_c, 4, 67, 100
6, 101628, Note_on_c, 4, 67, 0
6, 101628, Note_on_c, 4, 65, 0
6, 101628, Note_on_c, 4, 62, 0
6, 101640, Note_on_c, 4, 65, 100
6, 101640, Note_on_c, 4, 67, 100
6, 101748, Note_on_c, 4, 67, 0
6, 101748, Note_on_c, 4, 65, 0
6, 101880, Note_on_c, 4, 64, 100
6, 101880, Note_on_c, 4, 67, 100
6, 101988, Note_on_c, 4, 67, 0
6, 101988, Note_on_c, 4, 64, 0
6, 102000, Note_on_c, 4, 60, 100
6, 102000, Note_on_c, 4, 64, 100
6, 102000, Note_on_c, 4, 67, 100
6, 102108, Note_on_c, 4, 67, 0
6, 102108, Note_on_c, 4, 64, 0
6, 102108, Note_on_c, 4, 60, 0
6, 102120, Note_on_c, 4, 60, 100
6, 102120, Note_on_c, 4, 64, 100
6, 102120, Note_on_c, 4, 67, 100
6, 102228, Note_on_c, 4, 67, 0
6, 102228, Note_on_c, 4, 64, 0
6, 102228, Note_on_c, 4, 60, 0
6, 102240, Note_on_c, 4, 60, 100
6, 102240, Note_on_c, 4, 66, 100
6, 102240, Note_on_c, 4, 72, 100
6, 102456, Note_on_c, 4, 72, 0
6, 102456, Note_on_c, 4, 66, 0
6, 102456, Note_on_c, 4, 60, 0
6, 103260, Note_on_c, 4, 62, 100
6, 103314, Note_on_c, 4, 62, 0
6, 103320, Note_on_c, 4, 66, 100
6, 103374, Note_on_c, 4, 66, 0
6, 103380, Note_on_c, 4, 69, 100
6, 103434, Note_on_c, 4, 69, 0
6, 103440, Note_on_c, 4, 74, 100
6, 103494, Note_on_c, 4, 74, 0
6, 103500, Note_on_c, 4, 72, 100
6, 103554, Note_on_c, 4, 72, 0
6, 103560, Note_on_c, 4, 71, 100
6, 103614, Note_on_c, 4, 71, 0
6, 103620, Note_on_c, 4, 69, 100
6, 103674, Note_on_c, 4, 69, 0
6, 103680, Note_on_c, 4, 71, 100
6, 103788, Note_on_c, 4, 71, 0
6, 104700, Note_on_c, 4, 67, 100
6, 104754, Note_on_c, 4, 67, 0
6, 104760, Note_on_c, 4, 71, 100
6, 104814, Note_on_c, 4, 71, 0
6, 104820, Note_on_c, 4, 74, 100
6, 104874, Note_on_c, 4, 74, 0
6, 104880, Note_on_c, 4, 79, 100
6, 104934, Note_on_c, 4, 79, 0
6, 104940, Note_on_c, 4, 77, 100
6, 104994, Note_on_c, 4, 77, 0
6, 105000, Note_on_c, 4, 76, 100
6, 105054, Note_on_c, 4, 76, 0
6, 105060, Note_on_c, 4, 74, 100
6, 105114, Note_on_c, 4, 74, 0
6, 105120, Note_on_c, 4, 76, 100
6, 105174, Note_on_c, 4, 76, 0
6, 105180, Note_on_c, 4, 70, 100
6, 105207, Note_on_c, 4, 70, 0
6, 105210, Note_on_c, 4, 69, 100
6, 105237, Note_on_c, 4, 69, 0
6, 105240, Note_on_c, 4, 67, 100
6, 105294, Note_on_c, 4, 67, 0
6, 105300, Note_on_c, 4, 69, 100
6, 105327, Note_on_c, 4, 69, 0
6, 105330, Note_on_c, 4, 70, 100
6, 105357, Note_on_c, 4, 70, 0
6, 105360, Note_on_c, 4, 64, 100
6, 105414, Note_on_c, 4, 64, 0
6, 105420, Note_on_c, 4, 67, 100
6, 105447, Note_on_c, 4, 67, 0
6, 105450, Note_on_c, 4, 65, 100
6, 105477, Note_on_c, 4, 65, 0
6, 105480, Note_on_c, 4, 64, 100
6, 105534, Note_on_c, 4, 64, 0
6, 105540, Note_on_c, 4, 65, 100
6, 105567, Note_on_c, 4, 65, 0
6, 105570, Note_on_c, 4, 67, 100
6, 105597, Note_on_c, 4, 67, 0
6, 105600, Note_on_c, 4, 58, 100
6, 105654, Note_on_c, 4, 58, 0
6, 105660, Note_on_c, 4, 62, 100
6, 105687, Note_on_c, 4, 62, 0
6, 105690, Note_on_c, 4, 60, 100
6, 105717, Note_on_c, 4, 60, 0
6, 105720, Note_on_c, 4, 58, 100
6, 105774, Note_on_c, 4, 58, 0
6, 105780, Note_on_c, 4, 60, 100
6, 105807, Note_on_c, 4, 60, 0
6, 105810, Note_on_c, 4, 62, 100
6, 105837, Note_on_c, 4, 62, 0
6, 105840, Note_on_c, 4, 55, 100
6, 105894, Note_on_c, 4, 55, 0
6, 105900, Note_on_c, 4, 58, 100
6, 105927, Note_on_c, 4, 58, 0
6, 105930, Note_on_c, 4, 57, 100
6, 105957, Note_on_c, 4, 57, 0
6, 105960, Note_on_c, 4, 55, 100
6, 106014, Note_on_c, 4, 55, 0
6, 106020, Note_on_c, 4, 57, 100
6, 106047, Note_on_c, 4, 57, 0
6, 106050, Note_on_c, 4, 58, 100
6, 106077, Note_on_c, 4, 58, 0
6, 106080, Note_on_c, 4, 52, 100
6, 106134, Note_on_c, 4, 52, 0
6, 106140, Note_on_c, 4, 60, 100
6, 106194, Note_on_c, 4, 60, 0
6, 106200, Note_on_c, 4, 64, 100
6, 106254, Note_on_c, 4, 64, 0
6, 106260, Note_on_c, 4, 67, 100
6, 106314, Note_on_c, 4, 67, 0
6, 106320, Note_on_c, 4, 72, 100
6, 106374, Note_on_c, 4, 72, 0
6, 106380, Note_on_c, 4, 70, 100
6, 106434, Note_on_c, 4, 70, 0
6, 106440, Note_on_c, 4, 69, 100
6, 106494, Note_on_c, 4, 69, 0
6, 106500, Note_on_c, 4, 67, 100
6, 106554, Note_on_c, 4, 67, 0
6, 106560, Note_on_c, 4, 69, 100
6, 106614, Note_on_c, 4, 69, 0
6, 106620, Note_on_c, 4, 67, 100
6, 106674, Note_on_c, 4, 67, 0
6, 106680, Note_on_c, 4, 65, 100
6, 106734, Note_on_c, 4, 65, 0
6, 106740, Note_on_c, 4, 64, 100
6, 106794, Note_on_c, 4, 64, 0
6, 106800, Note_on_c, 4, 74, 100
6, 106854, Note_on_c, 4, 74, 0
6, 106860, Note_on_c, 4, 72, 100
6, 106914, Note_on_c, 4, 72, 0
6, 106920, Note_on_c, 4, 71, 100
6, 106974, Note_on_c, 4, 71, 0
6, 106980, Note_on_c, 4, 69, 100
6, 107034, Note_on_c, 4, 69, 0
6, 107040, Note_on_c, 4, 71, 100
6, 107094, Note_on_c, 4, 71, 0
6, 107100, Note_on_c, 4, 69, 100
6, 107154, Note_on_c, 4, 69, 0
6, 107160, Note_on_c, 4, 67, 100
6, 107214, Note_on_c, 4, 67, 0
6, 107220, Note_on_c, 4, 65, 100
6, 107274, Note_on_c, 4, 65, 0
6, 107280, Note_on_c, 4, 76, 100
6, 107334, Note_on_c, 4, 76, 0
6, 107340, Note_on_c, 4, 74, 100
6, 107394, Note_on_c, 4, 74, 0
6, 107400, Note_on_c, 4, 72, 100
6, 107454, Note_on_c, 4, 72, 0
6, 107460, Note_on_c, 4, 71, 100
6, 107514, Note_on_c, 4, 71, 0
6, 107520, Note_on_c, 4, 72, 100
6, 107574, Note_on_c, 4, 72, 0
6, 107580, Note_on_c, 4, 71, 100
6, 107634, Note_on_c, 4, 71, 0
6, 107640, Note_on_c, 4, 69, 100
6, 107694, Note_on_c, 4, 69, 0
6, 107700, Note_on_c, 4, 67, 100
6, 107754, Note_on_c, 4, 67, 0
6, 107760, Note_on_c, 4, 77, 100
6, 107814, Note_on_c, 4, 77, 0
6, 107820, Note_on_c, 4, 76, 100
6, 107874, Note_on_c, 4, 76, 0
6, 107880, Note_on_c, 4, 74, 100
6, 107934, Note_on_c, 4, 74, 0
6, 107940, Note_on_c, 4, 72, 100
6, 107994, Note_on_c, 4, 72, 0
6, 108000, Note_on_c, 4, 74, 100
6, 108054, Note_on_c, 4, 74, 0
6, 108060, Note_on_c, 4, 72, 100
6, 108114, Note_on_c, 4, 72, 0
6, 108120, Note_on_c, 4, 71, 100
6, 108174, Note_on_c, 4, 71, 0
6, 108180, Note_on_c, 4, 69, 100
6, 108234, Note_on_c, 4, 69, 0
6, 108240, Note_on_c, 4, 79, 100
6, 108294, Note_on_c, 4, 79, 0
6, 108300, Note_on_c, 4, 77, 100
6, 108354, Note_on_c, 4, 77, 0
6, 108360, Note_on_c, 4, 76, 100
6, 108414, Note_on_c, 4, 76, 0
6, 108420, Note_on_c, 4, 74, 100
6, 108474, Note_on_c, 4, 74, 0
6, 108480, Note_on_c, 4, 76, 100
6, 108534, Note_on_c, 4, 76, 0
6, 108540, Note_on_c, 4, 72, 100
6, 108594, Note_on_c, 4, 72, 0
6, 108600, Note_on_c, 4, 76, 100
6, 108654, Note_on_c, 4, 76, 0
6, 108660, Note_on_c, 4, 79, 100
6, 108714, Note_on_c, 4, 79, 0
6, 108720, Note_on_c, 4, 84, 100
6, 108774, Note_on_c, 4, 84, 0
6, 108780, Note_on_c, 4, 82, 100
6, 108834, Note_on_c, 4, 82, 0
6, 108840, Note_on_c, 4, 81, 100
6, 108894, Note_on_c, 4, 81, 0
6, 108900, Note_on_c, 4, 79, 100
6, 108954, Note_on_c, 4, 79, 0
6, 108960, Note_on_c, 4, 81, 100
6, 109014, Note_on_c, 4, 81, 0
6, 109020, Note_on_c, 4, 79, 100
6, 109074, Note_on_c, 4, 79, 0
6, 109080, Note_on_c, 4, 77, 100
6, 109134, Note_on_c, 4, 77, 0
6, 109140, Note_on_c, 4, 76, 100
6, 109194, Note_on_c, 4, 76, 0
6, 109200, Note_on_c, 4, 77, 100
6, 109254, Note_on_c, 4, 77, 0
6, 109260, Note_on_c, 4, 76, 100
6, 109314, Note_on_c, 4, 76, 0
6, 109320, Note_on_c, 4, 74, 100
6, 109374, Note_on_c, 4, 74, 0
6, 109380, Note_on_c, 4, 72, 100
6, 109434, Note_on_c, 4, 72, 0
6, 109440, Note_on_c, 4, 71, 100
6, 109440, Note_on_c, 4, 67, 100
6, 109656, Note_on_c, 4, 71, 0
6, 110304, Note_on_c, 4, 67, 0
6, 110400, Note_on_c, 4, 67, 100
6, 110832, Note_on_c, 4, 67, 0
6, 110880, Note_on_c, 4, 66, 100
6, 111204, Note_on_c, 4, 66, 0
6, 111240, Note_on_c, 4, 64, 100
6, 111294, Note_on_c, 4, 64, 0
6, 111300, Note_on_c, 4, 66, 100
6, 111354, Note_on_c, 4, 66, 0
6, 111360, Note_on_c, 4, 62, 100
6, 111522, Note_on_c, 4, 62, 0
6, 111540, Note_on_c, 4, 64, 100
6, 111594, Note_on_c, 4, 64, 0
6, 111600, Note_on_c, 4, 65, 100
6, 111654, Note_on_c, 4, 65, 0
6, 111660, Note_on_c, 4, 67, 100
6, 111714, Note_on_c, 4, 67, 0
6, 111720, Note_on_c, 4, 69, 100
6, 111774, Note_on_c, 4, 69, 0
6, 111780, Note_on_c, 4, 71, 100
6, 111834, Note_on_c, 4, 71, 0
6, 111840, Note_on_c, 4, 62, 100
6, 112272, Note_on_c, 4, 62, 0
6, 112320, Note_on_c, 4, 64, 100
6, 112752, Note_on_c, 4, 64, 0
6, 112800, Note_on_c, 4, 69, 100
6, 113232, Note_on_c, 4, 69, 0
6, 113280, Note_on_c, 4, 71, 100
6, 113712, Note_on_c, 4, 71, 0
6, 113760, Note_on_c, 4, 72, 100
6, 114192, Note_on_c, 4, 72, 0
6, 114240, Note_on_c, 4, 71, 100
6, 114240, Note_on_c, 4, 74, 100
6, 114348, Note_on_c, 4, 74, 0
6, 114348, Note_on_c, 4, 71, 0
6, 116160, Note_on_c, 4, 84, 100
6, 116268, Note_on_c, 4, 84, 0
6, 116280, Note_on_c, 4, 79, 100
6, 116388, Note_on_c, 4, 79, 0
6, 116400, Note_on_c, 4, 84, 100
6, 116508, Note_on_c, 4, 84, 0
6, 116520, Note_on_c, 4, 79, 100
6, 116628, Note_on_c, 4, 79, 0
6, 116640, Note_on_c, 4, 84, 100
6, 116694, Note_on_c, 4, 84, 0
6, 116700, Note_on_c, 4, 83, 100
6, 116754, Note_on_c, 4, 83, 0
6, 116760, Note_on_c, 4, 81, 100
6, 116814, Note_on_c, 4, 81, 0
6, 116820, Note_on_c, 4, 83, 100
6, 116874, Note_on_c, 4, 83, 0
6, 116880, Note_on_c, 4, 84, 100
6, 116934, Note_on_c, 4, 84, 0
6, 116940, Note_on_c, 4, 83, 100
6, 116994, Note_on_c, 4, 83, 0
6, 117000, Note_on_c, 4, 81, 100
6, 117054, Note_on_c, 4, 81, 0
6, 117060, Note_on_c, 4, 84, 100
6, 117114, Note_on_c, 4, 84, 0
6, 117120, Note_on_c, 4, 83, 100
6, 117174, Note_on_c, 4, 83, 0
6, 117180, Note_on_c, 4, 77, 100
6, 117234, Note_on_c, 4, 77, 0
6, 117240, Note_on_c, 4, 79, 100
6, 117294, Note_on_c, 4, 79, 0
6, 117300, Note_on_c, 4, 74, 100
6, 117354, Note_on_c, 4, 74, 0
6, 117360, Note_on_c, 4, 76, 100
6, 117414, Note_on_c, 4, 76, 0
6, 117420, Note_on_c, 4, 79, 100
6, 117474, Note_on_c, 4, 79, 0
6, 117480, Note_on_c, 4, 84, 100
6, 117534, Note_on_c, 4, 84, 0
6, 117540, Note_on_c, 4, 79, 100
6, 117594, Note_on_c, 4, 79, 0
6, 117600, Note_on_c, 4, 81, 100
6, 117654, Note_on_c, 4, 81, 0
6, 117660, Note_on_c, 4, 76, 100
6, 117714, Note_on_c, 4, 76, 0
6, 117720, Note_on_c, 4, 77, 100
6, 117774, Note_on_c, 4, 77, 0
6, 117780, Note_on_c, 4, 72, 100
6, 117834, Note_on_c, 4, 72, 0
6, 117840, Note_on_c, 4, 74, 100
6, 117894, Note_on_c, 4, 74, 0
6, 117900, Note_on_c, 4, 77, 100
6, 117954, Note_on_c, 4, 77, 0
6, 117960, Note_on_c, 4, 83, 100
6, 118014, Note_on_c, 4, 83, 0
6, 118020, Note_on_c, 4, 77, 100
6, 118074, Note_on_c, 4, 77, 0
6, 118080, Note_on_c, 4, 79, 100
6, 118134, Note_on_c, 4, 79, 0
6, 118140, Note_on_c, 4, 74, 100
6, 118194, Note_on_c, 4, 74, 0
6, 118200, Note_on_c, 4, 76, 100
6, 118254, Note_on_c, 4, 76, 0
6, 118260, Note_on_c, 4, 71, 100
6, 118314, Note_on_c, 4, 71, 0
6, 118320, Note_on_c, 4, 72, 100
6, 118374, Note_on_c, 4, 72, 0
6, 118380, Note_on_c, 4, 76, 100
6, 118434, Note_on_c, 4, 76, 0
6, 118440, Note_on_c, 4, 81, 100
6, 118494, Note_on_c, 4, 81, 0
6, 118500, Note_on_c, 4, 76, 100
6, 118554, Note_on_c, 4, 76, 0
6, 118560, Note_on_c, 4, 77, 100
6, 118614, Note_on_c, 4, 77, 0
6, 118620, Note_on_c, 4, 72, 100
6, 118674, Note_on_c, 4, 72, 0
6, 118680, Note_on_c, 4, 74, 100
6, 118734, Note_on_c, 4, 74, 0
6, 118740, Note_on_c, 4, 69, 100
6, 118794, Note_on_c, 4, 69, 0
6, 118800, Note_on_c, 4, 71, 100
6, 118854, Note_on_c, 4, 71, 0
6, 118860, Note_on_c, 4, 74, 100
6, 118914, Note_on_c, 4, 74, 0
6, 118920, Note_on_c, 4, 79, 100
6, 118974, Note_on_c, 4, 79, 0
6, 118980, Note_on_c, 4, 74, 100
6, 119034, Note_on_c, 4, 74, 0
6, 119040, Note_on_c, 4, 76, 100
6, 119148, Note_on_c, 4, 76, 0
6, 119160, Note_on_c, 4, 64, 100
6, 119214, Note_on_c, 4, 64, 0
6, 119220, Note_on_c, 4, 67, 100
6, 119247, Note_on_c, 4, 67, 0
6, 119250, Note_on_c, 4, 65, 100
6, 119277, Note_on_c, 4, 65, 0
6, 119280, Note_on_c, 4, 67, 100
6, 119574, Note_on_c, 4, 67, 0
6, 119580, Note_on_c, 4, 69, 100
6, 119607, Note_on_c, 4, 69, 0
6, 119610, Note_on_c, 4, 67, 100
6, 119637, Note_on_c, 4, 67, 0
6, 119640, Note_on_c, 4, 65, 100
6, 119694, Note_on_c, 4, 65, 0
6, 119700, Note_on_c, 4, 67, 100
6, 119754, Note_on_c, 4, 67, 0
6, 119760, Note_on_c, 4, 69, 100
6, 120054, Note_on_c, 4, 69, 0
6, 120060, Note_on_c, 4, 71, 100
6, 120087, Note_on_c, 4, 71, 0
6, 120090, Note_on_c, 4, 69, 100
6, 120117, Note_on_c, 4, 69, 0
6, 120120, Note_on_c, 4, 67, 100
6, 120174, Note_on_c, 4, 67, 0
6, 120180, Note_on_c, 4, 69, 100
6, 120234, Note_on_c, 4, 69, 0
6, 120240, Note_on_c, 4, 71, 100
6, 120534, Note_on_c, 4, 71, 0
6, 120540, Note_on_c, 4, 72, 100
6, 120567, Note_on_c, 4, 72, 0
6, 120570, Note_on_c, 4, 71, 100
6, 120597, Note_on_c, 4, 71, 0
6, 120600, Note_on_c, 4, 69, 100
6, 120654, Note_on_c, 4, 69, 0
6, 120660, Note_on_c, 4, 71, 100
6, 120714, Note_on_c, 4, 71, 0
6, 120720, Note_on_c, 4, 72, 100
6, 121014, Note_on_c, 4, 72, 0
6, 121020, Note_on_c, 4, 74, 100
6, 121047, Note_on_c, 4, 74, 0
6, 121050, Note_on_c, 4, 72, 100
6, 121077, Note_on_c, 4, 72, 0
6, 121080, Note_on_c, 4, 71, 100
6, 121134, Note_on_c, 4, 71, 0
6, 121140, Note_on_c, 4, 72, 100
6, 121194, Note_on_c, 4, 72, 0
6, 121200, Note_on_c, 4, 74, 100
6, 121494, Note_on_c, 4, 74, 0
6, 121500, Note_on_c, 4, 67, 100
6, 121608, Note_on_c, 4, 67, 0
6, 121620, Note_on_c, 4, 65, 100
6, 121674, Note_on_c, 4, 65, 0
6, 121680, Note_on_c, 4, 67, 100
6, 121734, Note_on_c, 4, 67, 0
6, 121740, Note_on_c, 4, 65, 100
6, 121767, Note_on_c, 4, 65, 0
6, 121770, Note_on_c, 4, 67, 100
6, 121797, Note_on_c, 4, 67, 0
6, 121800, Note_on_c, 4, 65, 100
6, 121827, Note_on_c, 4, 65, 0
6, 121830, Note_on_c, 4, 64, 100
6, 121857, Note_on_c, 4, 64, 0
6, 121860, Note_on_c, 4, 62, 100
6, 121887, Note_on_c, 4, 62, 0
6, 121890, Note_on_c, 4, 60, 100
6, 121917, Note_on_c, 4, 60, 0
6, 121920, Note_on_c, 4, 67, 100
6, 122028, Note_on_c, 4, 67, 0
6, 122040, Note_on_c, 4, 74, 100
6, 122214, Note_on_c, 4, 74, 0
6, 122220, Note_on_c, 4, 76, 100
6, 122247, Note_on_c, 4, 76, 0
6, 122250, Note_on_c, 4, 74, 100
6, 122277, Note_on_c, 4, 74, 0
6, 122280, Note_on_c, 4, 72, 100
6, 122307, Note_on_c, 4, 72, 0
6, 122310, Note_on_c, 4, 74, 100
6, 122337, Note_on_c, 4, 74, 0
6, 122340, Note_on_c, 4, 71, 100
6, 122394, Note_on_c, 4, 71, 0
6, 122400, Note_on_c, 4, 76, 100
6, 122880, Note_on_c, 4, 76, 100
6, 122934, Note_on_c, 4, 76, 0
6, 122934, Note_on_c, 4, 76, 0
6, 122940, Note_on_c, 4, 74, 100
6, 122967, Note_on_c, 4, 74, 0
6, 122970, Note_on_c, 4, 72, 100
6, 122997, Note_on_c, 4, 72, 0
6, 123000, Note_on_c, 4, 71, 100
6, 123027, Note_on_c, 4, 71, 0
6, 123030, Note_on_c, 4, 72, 100
6, 123057, Note_on_c, 4, 72, 0
6, 123060, Note_on_c, 4, 69, 100
6, 123114, Note_on_c, 4, 69, 0
6, 123120, Note_on_c, 4, 65, 100
6, 123120, Note_on_c, 4, 74, 100
6, 123228, Note_on_c, 4, 74, 0
6, 123228, Note_on_c, 4, 65, 0
6, 123240, Note_on_c, 4, 65, 100
6, 123240, Note_on_c, 4, 74, 100
6, 123348, Note_on_c, 4, 74, 0
6, 123348, Note_on_c, 4, 65, 0
6, 123360, Note_on_c, 4, 65, 100
6, 123360, Note_on_c, 4, 74, 100
6, 123468, Note_on_c, 4, 74, 0
6, 123468, Note_on_c, 4, 65, 0
6, 123480, Note_on_c, 4, 65, 100
6, 123480, Note_on_c, 4, 74, 100
6, 123588, Note_on_c, 4, 74, 0
6, 123588, Note_on_c, 4, 65, 0
6, 123600, Note_on_c, 4, 65, 100
6, 123600, Note_on_c, 4, 74, 100
6, 123708, Note_on_c, 4, 74, 0
6, 123708, Note_on_c, 4, 65, 0
6, 123720, Note_on_c, 4, 65, 100
6, 123720, Note_on_c, 4, 74, 100
6, 123828, Note_on_c, 4, 74, 0
6, 123828, Note_on_c, 4, 65, 0
6, 123840, Note_on_c, 4, 64, 100
6, 123900, Note_on_c, 4, 72, 100
6, 123927, Note_on_c, 4, 72, 0
6, 123930, Note_on_c, 4, 71, 100
6, 123948, Note_on_c, 4, 64, 0
6, 123957, Note_on_c, 4, 71, 0
6, 123960, Note_on_c, 4, 69, 100
6, 123987, Note_on_c, 4, 69, 0
6, 123990, Note_on_c, 4, 71, 100
6, 124017, Note_on_c, 4, 71, 0
6, 124020, Note_on_c, 4, 67, 100
6, 124074, Note_on_c, 4, 67, 0
6, 124080, Note_on_c, 4, 64, 100
6, 124080, Note_on_c, 4, 72, 100
6, 124188, Note_on_c, 4, 72, 0
6, 124188, Note_on_c, 4, 64, 0
6, 124200, Note_on_c, 4, 64, 100
6, 124200, Note_on_c, 4, 72, 100
6, 124308, Note_on_c, 4, 72, 0
6, 124308, Note_on_c, 4, 64, 0
6, 124320, Note_on_c, 4, 64, 100
6, 124320, Note_on_c, 4, 72, 100
6, 124428, Note_on_c, 4, 72, 0
6, 124428, Note_on_c, 4, 64, 0
6, 124440, Note_on_c, 4, 64, 100
6, 124440, Note_on_c, 4, 72, 100
6, 124548, Note_on_c, 4, 72, 0
6, 124548, Note_on_c, 4, 64, 0
6, 124560, Note_on_c, 4, 64, 100
6, 124560, Note_on_c, 4, 72, 100
6, 124668, Note_on_c, 4, 72, 0
6, 124668, Note_on_c, 4, 64, 0
6, 124680, Note_on_c, 4, 64, 100
6, 124680, Note_on_c, 4, 72, 100
6, 124788, Note_on_c, 4, 72, 0
6, 124788, Note_on_c, 4, 64, 0
6, 124800, Note_on_c, 4, 72, 100
6, 124800, Note_on_c, 4, 62, 100
6, 124854, Note_on_c, 4, 72, 0
6, 124860, Note_on_c, 4, 71, 100
6, 124887, Note_on_c, 4, 71, 0
6, 124890, Note_on_c, 4, 69, 100
6, 124908, Note_on_c, 4, 62, 0
6, 124917, Note_on_c, 4, 69, 0
6, 124920, Note_on_c, 4, 67, 100
6, 124947, Note_on_c, 4, 67, 0
6, 124950, Note_on_c, 4, 69, 100
6, 124977, Note_on_c, 4, 69, 0
6, 124980, Note_on_c, 4, 65, 100
6, 125034, Note_on_c, 4, 65, 0
6, 125040, Note_on_c, 4, 62, 100
6, 125040, Note_on_c, 4, 71, 100
6, 125148, Note_on_c, 4, 71, 0
6, 125148, Note_on_c, 4, 62, 0
6, 125160, Note_on_c, 4, 62, 100
6, 125160, Note_on_c, 4, 71, 100
6, 125268, Note_on_c, 4, 71, 0
6, 125268, Note_on_c, 4, 62, 0
6, 125280, Note_on_c, 4, 62, 100
6, 125280, Note_on_c, 4, 71, 100
6, 125388, Note_on_c, 4, 71, 0
6, 125388, Note_on_c, 4, 62, 0
6, 125400, Note_on_c, 4, 62, 100
6, 125400, Note_on_c, 4, 71, 100
6, 125508, Note_on_c, 4, 71, 0
6, 125508, Note_on_c, 4, 62, 0
6, 125520, Note_on_c, 4, 62, 100
6, 125520, Note_on_c, 4, 71, 100
6, 125628, Note_on_c, 4, 71, 0
6, 125628, Note_on_c, 4, 62, 0
6, 125640, Note_on_c, 4, 62, 100
6, 125640, Note_on_c, 4, 67, 100
6, 125640, Note_on_c, 4, 71, 100
6, 125748, Note_on_c, 4, 71, 0
6, 125748, Note_on_c, 4, 67, 0
6, 125748, Note_on_c, 4, 62, 0
6, 125760, Note_on_c, 4, 72, 100
6, 125760, Note_on_c, 4, 64, 100
6, 125760, Note_on_c, 4, 67, 100
6, 125976, Note_on_c, 4, 67, 0
6, 125976, Note_on_c, 4, 64, 0
6, 126054, Note_on_c, 4, 72, 0
6, 126060, Note_on_c, 4, 69, 100
6, 126114, Note_on_c, 4, 69, 0
6, 126120, Note_on_c, 4, 67, 100
6, 126174, Note_on_c, 4, 67, 0
6, 126180, Note_on_c, 4, 65, 100
6, 126234, Note_on_c, 4, 65, 0
6, 126240, Note_on_c, 4, 64, 100
6, 126294, Note_on_c, 4, 64, 0
6, 126300, Note_on_c, 4, 65, 100
6, 126327, Note_on_c, 4, 65, 0
6, 126330, Note_on_c, 4, 67, 100
6, 126357, Note_on_c, 4, 67, 0
6, 126360, Note_on_c, 4, 69, 100
6, 126387, Note_on_c, 4, 69, 0
6, 126390, Note_on_c, 4, 67, 100
6, 126417, Note_on_c, 4, 67, 0
6, 126420, Note_on_c, 4, 65, 100
6, 126447, Note_on_c, 4, 65, 0
6, 126450, Note_on_c, 4, 64, 100
6, 126477, Note_on_c, 4, 64, 0
6, 126480, Note_on_c, 4, 65, 100
6, 126642, Note_on_c, 4, 65, 0
6, 126660, Note_on_c, 4, 64, 100
6, 126714, Note_on_c, 4, 64, 0
6, 126720, Note_on_c, 4, 64, 100
6, 126828, Note_on_c, 4, 64, 0
6, 126840, Note_on_c, 4, 67, 100
6, 126948, Note_on_c, 4, 67, 0
6, 126960, Note_on_c, 4, 72, 100
6, 127068, Note_on_c, 4, 72, 0
6, 127080, Note_on_c, 4, 67, 100
6, 127188, Note_on_c, 4, 67, 0
6, 127200, Note_on_c, 4, 72, 100
6, 127308, Note_on_c, 4, 72, 0
6, 127320, Note_on_c, 4, 71, 100
6, 127374, Note_on_c, 4, 71, 0
6, 127380, Note_on_c, 4, 69, 100
6, 127434, Note_on_c, 4, 69, 0
6, 127440, Note_on_c, 4, 67, 100
6, 127548, Note_on_c, 4, 67, 0
6, 127560, Note_on_c, 4, 69, 100
6, 127614, Note_on_c, 4, 69, 0
6, 127620, Note_on_c, 4, 71, 100
6, 127674, Note_on_c, 4, 71, 0
6, 127680, Note_on_c, 4, 72, 100
6, 127788, Note_on_c, 4, 72, 0
6, 127800, Note_on_c, 4, 71, 100
6, 127854, Note_on_c, 4, 71, 0
6, 127860, Note_on_c, 4, 69, 100
6, 127914, Note_on_c, 4, 69, 0
6, 127920, Note_on_c, 4, 67, 100
6, 128028, Note_on_c, 4, 67, 0
6, 128040, Note_on_c, 4, 65, 100
6, 128148, Note_on_c, 4, 65, 0
6, 128160, Note_on_c, 4, 64, 100
6, 128214, Note_on_c, 4, 64, 0
6, 128220, Note_on_c, 4, 65, 100
6, 128274, Note_on_c, 4, 65, 0
6, 128280, Note_on_c, 4, 67, 100
6, 128334, Note_on_c, 4, 67, 0
6, 128340, Note_on_c, 4, 64, 100
6, 128394, Note_on_c, 4, 64, 0
6, 128400, Note_on_c, 4, 60, 100
6, 128454, Note_on_c, 4, 60, 0
6, 128460, Note_on_c, 4, 62, 100
6, 128514, Note_on_c, 4, 62, 0
6, 128520, Note_on_c, 4, 64, 100
6, 128574, Note_on_c, 4, 64, 0
6, 128580, Note_on_c, 4, 66, 100
6, 128634, Note_on_c, 4, 66, 0
6, 128640, Note_on_c, 4, 67, 100
6, 128748, Note_on_c, 4, 67, 0
6, 128760, Note_on_c, 4, 62, 100
6, 128868, Note_on_c, 4, 62, 0
6, 128880, Note_on_c, 4, 67, 100
6, 128988, Note_on_c, 4, 67, 0
6, 129000, Note_on_c, 4, 62, 100
6, 129108, Note_on_c, 4, 62, 0
6, 129120, Note_on_c, 4, 67, 100
6, 129228, Note_on_c, 4, 67, 0
6, 129240, Note_on_c, 4, 66, 100
6, 129294, Note_on_c, 4, 66, 0
6, 129300, Note_on_c, 4, 64, 100
6, 129354, Note_on_c, 4, 64, 0
6, 129360, Note_on_c, 4, 62, 100
6, 129468, Note_on_c, 4, 62, 0
6, 129480, Note_on_c, 4, 64, 100
6, 129534, Note_on_c, 4, 64, 0
6, 129540, Note_on_c, 4, 66, 100
6, 129594, Note_on_c, 4, 66, 0
6, 129600, Note_on_c, 4, 67, 100
6, 129708, Note_on_c, 4, 67, 0
6, 129720, Note_on_c, 4, 66, 100
6, 129774, Note_on_c, 4, 66, 0
6, 129780, Note_on_c, 4, 64, 100
6, 129834, Note_on_c, 4, 64, 0
6, 129840, Note_on_c, 4, 62, 100
6, 129948, Note_on_c, 4, 62, 0
6, 129960, Note_on_c, 4, 60, 100
6, 130068, Note_on_c, 4, 60, 0
6, 130080, Note_on_c, 4, 59, 100
6, 130134, Note_on_c, 4, 59, 0
6, 130140, Note_on_c, 4, 60, 100
6, 130194, Note_on_c, 4, 60, 0
6, 130200, Note_on_c, 4, 62, 100
6, 130254, Note_on_c, 4, 62, 0
6, 130260, Note_on_c, 4, 59, 100
6, 130314, Note_on_c, 4, 59, 0
6, 130320, Note_on_c, 4, 55, 100
6, 130374, Note_on_c, 4, 55, 0
6, 130380, Note_on_c, 4, 59, 100
6, 130434, Note_on_c, 4, 59, 0
6, 130440, Note_on_c, 4, 62, 100
6, 130494, Note_on_c, 4, 62, 0
6, 130500, Note_on_c, 4, 65, 100
6, 130554, Note_on_c, 4, 65, 0
6, 130560, Note_on_c, 4, 60, 100
6, 130614, Note_on_c, 4, 60, 0
6, 130620, Note_on_c, 4, 62, 100
6, 130674, Note_on_c, 4, 62, 0
6, 130680, Note_on_c, 4, 64, 100
6, 130734, Note_on_c, 4, 64, 0
6, 130740, Note_on_c, 4, 60, 100
6, 130794, Note_on_c, 4, 60, 0
6, 130800, Note_on_c, 4, 55, 100
6, 130854, Note_on_c, 4, 55, 0
6, 130860, Note_on_c, 4, 60, 100
6, 130914, Note_on_c, 4, 60, 0
6, 130920, Note_on_c, 4, 64, 100
6, 130974, Note_on_c, 4, 64, 0
6, 130980, Note_on_c, 4, 67, 100
6, 131034, Note_on_c, 4, 67, 0
6, 131040, Note_on_c, 4, 62, 100
6, 131094, Note_on_c, 4, 62, 0
6, 131100, Note_on_c, 4, 64, 100
6, 131154, Note_on_c, 4, 64, 0
6, 131160, Note_on_c, 4, 65, 100
6, 131214, Note_on_c, 4, 65, 0
6, 131220, Note_on_c, 4, 62, 100
6, 131274, Note_on_c, 4, 62, 0
6, 131280, Note_on_c, 4, 59, 100
6, 131334, Note_on_c, 4, 59, 0
6, 131340, Note_on_c, 4, 62, 100
6, 131394, Note_on_c, 4, 62, 0
6, 131400, Note_on_c, 4, 65, 100
6, 131454, Note_on_c, 4, 65, 0
6, 131460, Note_on_c, 4, 69, 100
6, 131514, Note_on_c, 4, 69, 0
6, 131520, Note_on_c, 4, 67, 100
6, 131574, Note_on_c, 4, 67, 0
6, 131580, Note_on_c, 4, 65, 100
6, 131634, Note_on_c, 4, 65, 0
6, 131640, Note_on_c, 4, 64, 100
6, 131694, Note_on_c, 4, 64, 0
6, 131700, Note_on_c, 4, 65, 100
6, 131754, Note_on_c, 4, 65, 0
6, 131760, Note_on_c, 4, 67, 100
6, 131814, Note_on_c, 4, 67, 0
6, 131820, Note_on_c, 4, 64, 100
6, 131874, Note_on_c, 4, 64, 0
6, 131880, Note_on_c, 4, 60, 100
6, 131934, Note_on_c, 4, 60, 0
6, 131940, Note_on_c, 4, 57, 100
6, 131994, Note_on_c, 4, 57, 0
6, 132000, Note_on_c, 4, 65, 100
6, 132054, Note_on_c, 4, 65, 0
6, 132060, Note_on_c, 4, 64, 100
6, 132114, Note_on_c, 4, 64, 0
6, 132120, Note_on_c, 4, 62, 100
6, 132174, Note_on_c, 4, 62, 0
6, 132180, Note_on_c, 4, 64, 100
6, 132234, Note_on_c, 4, 64, 0
6, 132240, Note_on_c, 4, 65, 100
6, 132294, Note_on_c, 4, 65, 0
6, 132300, Note_on_c, 4, 62, 100
6, 132354, Note_on_c, 4, 62, 0
6, 132360, Note_on_c, 4, 59, 100
6, 132414, Note_on_c, 4, 59, 0
6, 132420, Note_on_c, 4, 55, 100
6, 132474, Note_on_c, 4, 55, 0
6, 132480, Note_on_c, 4, 64, 100
6, 132534, Note_on_c, 4, 64, 0
6, 132540, Note_on_c, 4, 65, 100
6, 132594, Note_on_c, 4, 65, 0
6, 132600, Note_on_c, 4, 67, 100
6, 132654, Note_on_c, 4, 67, 0
6, 132660, Note_on_c, 4, 64, 100
6, 132714, Note_on_c, 4, 64, 0
6, 132720, Note_on_c, 4, 60, 100
6, 132774, Note_on_c, 4, 60, 0
6, 132780, Note_on_c, 4, 62, 100
6, 132834, Note_on_c, 4, 62, 0
6, 132840, Note_on_c, 4, 64, 100
6, 132894, Note_on_c, 4, 64, 0
6, 132900, Note_on_c, 4, 60, 100
6, 132954, Note_on_c, 4, 60, 0
6, 132960, Note_on_c, 4, 57, 100
6, 133014, Note_on_c, 4, 57, 0
6, 133020, Note_on_c, 4, 59, 100
6, 133074, Note_on_c, 4, 59, 0
6, 133080, Note_on_c, 4, 60, 100
6, 133134, Note_on_c, 4, 60, 0
6, 133140, Note_on_c, 4, 57, 100
6, 133194, Note_on_c, 4, 57, 0
6, 133200, Note_on_c, 4, 53, 100
6, 133254, Note_on_c, 4, 53, 0
6, 133260, Note_on_c, 4, 55, 100
6, 133314, Note_on_c, 4, 55, 0
6, 133320, Note_on_c, 4, 57, 100
6, 133374, Note_on_c, 4, 57, 0
6, 133380, Note_on_c, 4, 53, 100
6, 133434, Note_on_c, 4, 53, 0
6, 133440, Note_on_c, 4, 50, 100
6, 133602, Note_on_c, 4, 50, 0
6, 133620, Note_on_c, 4, 52, 100
6, 133674, Note_on_c, 4, 52, 0
6, 133680, Note_on_c, 4, 53, 100
6, 133734, Note_on_c, 4, 53, 0
6, 133740, Note_on_c, 4, 55, 100
6, 133794, Note_on_c, 4, 55, 0
6, 133800, Note_on_c, 4, 57, 100
6, 133854, Note_on_c, 4, 57, 0
6, 133860, Note_on_c, 4, 59, 100
6, 133914, Note_on_c, 4, 59, 0
6, 133920, Note_on_c, 4, 60, 100
6, 133974, Note_on_c, 4, 60, 0
6, 133980, Note_on_c, 4, 62, 100
6, 134034, Note_on_c, 4, 62, 0
6, 134040, Note_on_c, 4, 64, 100
6, 134094, Note_on_c, 4, 64, 0
6, 134100, Note_on_c, 4, 65, 100
6, 134154, Note_on_c, 4, 65, 0
6, 134160, Note_on_c, 4, 67, 100
6, 134268, Note_on_c, 4, 67, 0
6, 134280, Note_on_c, 4, 55, 100
6, 134388, Note_on_c, 4, 55, 0
6, 134400, Note_on_c, 4, 60, 100
6, 134616, Note_on_c, 4, 60, 0
6, 134616, End_track
7, 0, Start_track
7, 0, Title_t, "~"
7, 0, Program_c, 5, 6
7, 0, Control_c, 5, 7, 80
7, 0, Control_c, 5, 10, 107
7, 0, Note_on_c, 5, 60, 100
7, 108, Note_on_c, 5, 60, 0
7, 120, Note_on_c, 5, 55, 100
7, 228, Note_on_c, 5, 55, 0
7, 240, Note_on_c, 5, 60, 100
7, 348, Note_on_c, 5, 60, 0
7, 360, Note_on_c, 5, 55, 100
7, 468, Note_on_c, 5, 55, 0
7, 480, Note_on_c, 5, 60, 100
7, 588, Note_on_c, 5, 60, 0
7, 600, Note_on_c, 5, 59, 100
7, 654, Note_on_c, 5, 59, 0
7, 660, Note_on_c, 5, 57, 100
7, 714, Note_on_c, 5, 57, 0
7, 720, Note_on_c, 5, 55, 100
7, 828, Note_on_c, 5, 55, 0
7, 840, Note_on_c, 5, 57, 100
7, 894, Note_on_c, 5, 57, 0
7, 900, Note_on_c, 5, 59, 100
7, 954, Note_on_c, 5, 59, 0
7, 960, Note_on_c, 5, 60, 100
7, 1068, Note_on_c, 5, 60, 0
7, 1080, Note_on_c, 5, 59, 100
7, 1134, Note_on_c, 5, 59, 0
7, 1140, Note_on_c, 5, 57, 100
7, 1194, Note_on_c, 5, 57, 0
7, 1200, Note_on_c, 5, 55, 100
7, 1308, Note_on_c, 5, 55, 0
7, 1320, Note_on_c, 5, 53, 100
7, 1428, Note_on_c, 5, 53, 0
7, 1440, Note_on_c, 5, 52, 100
7, 1494, Note_on_c, 5, 52, 0
7, 1500, Note_on_c, 5, 53, 100
7, 1554, Note_on_c, 5, 53, 0
7, 1560, Note_on_c, 5, 55, 100
7, 1614, Note_on_c, 5, 55, 0
7, 1620, Note_on_c, 5, 52, 100
7, 1674, Note_on_c, 5, 52, 0
7, 1680, Note_on_c, 5, 48, 100
7, 1734, Note_on_c, 5, 48, 0
7, 1740, Note_on_c, 5, 50, 100
7, 1794, Note_on_c, 5, 50, 0
7, 1800, Note_on_c, 5, 52, 100
7, 1854, Note_on_c, 5, 52, 0
7, 1860, Note_on_c, 5, 54, 100
7, 1914, Note_on_c, 5, 54, 0
7, 1920, Note_on_c, 5, 55, 100
7, 2028, Note_on_c, 5, 55, 0
7, 2040, Note_on_c, 5, 50, 100
7, 2148, Note_on_c, 5, 50, 0
7, 2160, Note_on_c, 5, 55, 100
7, 2268, Note_on_c, 5, 55, 0
7, 2280, Note_on_c, 5, 50, 100
7, 2388, Note_on_c, 5, 50, 0
7, 2400, Note_on_c, 5, 55, 100
7, 2508, Note_on_c, 5, 55, 0
7, 2520, Note_on_c, 5, 54, 100
7, 2574, Note_on_c, 5, 54, 0
7, 2580, Note_on_c, 5, 52, 100
7, 2634, Note_on_c, 5, 52, 0
7, 2640, Note_on_c, 5, 50, 100
7, 2748, Note_on_c, 5, 50, 0
7, 2760, Note_on_c, 5, 52, 100
7, 2814, Note_on_c, 5, 52, 0
7, 2820, Note_on_c, 5, 54, 100
7, 2874, Note_on_c, 5, 54, 0
7, 2880, Note_on_c, 5, 55, 100
7, 2988, Note_on_c, 5, 55, 0
7, 3000, Note_on_c, 5, 54, 100
7, 3054, Note_on_c, 5, 54, 0
7, 3060, Note_on_c, 5, 52, 100
7, 3114, Note_on_c, 5, 52, 0
7, 3120, Note_on_c, 5, 50, 100
7, 3228, Note_on_c, 5, 50, 0
7, 3240, Note_on_c, 5, 48, 100
7, 3348, Note_on_c, 5, 48, 0
7, 3360, Note_on_c, 5, 47, 100
7, 3414, Note_on_c, 5, 47, 0
7, 3420, Note_on_c, 5, 48, 100
7, 3474, Note_on_c, 5, 48, 0
7, 3480, Note_on_c, 5, 50, 100
7, 3534, Note_on_c, 5, 50, 0
7, 3540, Note_on_c, 5, 47, 100
7, 3594, Note_on_c, 5, 47, 0
7, 3600, Note_on_c, 5, 43, 100
7, 3654, Note_on_c, 5, 43, 0
7, 3660, Note_on_c, 5, 47, 100
7, 3714, Note_on_c, 5, 47, 0
7, 3720, Note_on_c, 5, 50, 100
7, 3774, Note_on_c, 5, 50, 0
7, 3780, Note_on_c, 5, 53, 100
7, 3834, Note_on_c, 5, 53, 0
7, 3840, Note_on_c, 5, 48, 100
7, 3894, Note_on_c, 5, 48, 0
7, 3900, Note_on_c, 5, 50, 100
7, 3954, Note_on_c, 5, 50, 0
7, 3960, Note_on_c, 5, 52, 100
7, 4014, Note_on_c, 5, 52, 0
7, 4020, Note_on_c, 5, 48, 100
7, 4074, Note_on_c, 5, 48, 0
7, 4080, Note_on_c, 5, 43, 100
7, 4134, Note_on_c, 5, 43, 0
7, 4140, Note_on_c, 5, 48, 100
7, 4194, Note_on_c, 5, 48, 0
7, 4200, Note_on_c, 5, 52, 100
7, 4254, Note_on_c, 5, 52, 0
7, 4260, Note_on_c, 5, 55, 100
7, 4314, Note_on_c, 5, 55, 0
7, 4320, Note_on_c, 5, 50, 100
7, 4374, Note_on_c, 5, 50, 0
7, 4380, Note_on_c, 5, 52, 100
7, 4434, Note_on_c, 5, 52, 0
7, 4440, Note_on_c, 5, 53, 100
7, 4494, Note_on_c, 5, 53, 0
7, 4500, Note_on_c, 5, 50, 100
7, 4554, Note_on_c, 5, 50, 0
7, 4560, Note_on_c, 5, 47, 100
7, 4614, Note_on_c, 5, 47, 0
7, 4620, Note_on_c, 5, 50, 100
7, 4674, Note_on_c, 5, 50, 0
7, 4680, Note_on_c, 5, 53, 100
7, 4734, Note_on_c, 5, 53, 0
7, 4740, Note_on_c, 5, 57, 100
7, 4794, Note_on_c, 5, 57, 0
7, 4800, Note_on_c, 5, 55, 100
7, 4854, Note_on_c, 5, 55, 0
7, 4860, Note_on_c, 5, 53, 100
7, 4914, Note_on_c, 5, 53, 0
7, 4920, Note_on_c, 5, 52, 100
7, 4974, Note_on_c, 5, 52, 0
7, 4980, Note_on_c, 5, 53, 100
7, 5034, Note_on_c, 5, 53, 0
7, 5040, Note_on_c, 5, 55, 100
7, 5094, Note_on_c, 5, 55, 0
7, 5100, Note_on_c, 5, 52, 100
7, 5154, Note_on_c, 5, 52, 0
7, 5160, Note_on_c, 5, 48, 100
7, 5214, Note_on_c, 5, 48, 0
7, 5220, Note_on_c, 5, 45, 100
7, 5274, Note_on_c, 5, 45, 0
7, 5280, Note_on_c, 5, 53, 100
7, 5334, Note_on_c, 5, 53, 0
7, 5340, Note_on_c, 5, 52, 100
7, 5394, Note_on_c, 5, 52, 0
7, 5400, Note_on_c, 5, 50, 100
7, 5454, Note_on_c, 5, 50, 0
7, 5460, Note_on_c, 5, 52, 100
7, 5514, Note_on_c, 5, 52, 0
7, 5520, Note_on_c, 5, 53, 100
7, 5574, Note_on_c, 5, 53, 0
7, 5580, Note_on_c, 5, 50, 100
7, 5634, Note_on_c, 5, 50, 0
7, 5640, Note_on_c, 5, 47, 100
7, 5694, Note_on_c, 5, 47, 0
7, 5700, Note_on_c, 5, 43, 100
7, 5754, Note_on_c, 5, 43, 0
7, 5760, Note_on_c, 5, 52, 100
7, 5814, Note_on_c, 5, 52, 0
7, 5820, Note_on_c, 5, 53, 100
7, 5874, Note_on_c, 5, 53, 0
7, 5880, Note_on_c, 5, 55, 100
7, 5934, Note_on_c, 5, 55, 0
7, 5940, Note_on_c, 5, 52, 100
7, 5994, Note_on_c, 5, 52, 0
7, 6000, Note_on_c, 5, 48, 100
7, 6054, Note_on_c, 5, 48, 0
7, 6060, Note_on_c, 5, 50, 100
7, 6114, Note_on_c, 5, 50, 0
7, 6120, Note_on_c, 5, 52, 100
7, 6174, Note_on_c, 5, 52, 0
7, 6180, Note_on_c, 5, 48, 100
7, 6234, Note_on_c, 5, 48, 0
7, 6240, Note_on_c, 5, 45, 100
7, 6294, Note_on_c, 5, 45, 0
7, 6300, Note_on_c, 5, 47, 100
7, 6354, Note_on_c, 5, 47, 0
7, 6360, Note_on_c, 5, 48, 100
7, 6414, Note_on_c, 5, 48, 0
7, 6420, Note_on_c, 5, 45, 100
7, 6474, Note_on_c, 5, 45, 0
7, 6480, Note_on_c, 5, 41, 100
7, 6534, Note_on_c, 5, 41, 0
7, 6540, Note_on_c, 5, 43, 100
7, 6594, Note_on_c, 5, 43, 0
7, 6600, Note_on_c, 5, 45, 100
7, 6654, Note_on_c, 5, 45, 0
7, 6660, Note_on_c, 5, 41, 100
7, 6714, Note_on_c, 5, 41, 0
7, 6720, Note_on_c, 5, 38, 100
7, 6882, Note_on_c, 5, 38, 0
7, 6900, Note_on_c, 5, 40, 100
7, 6954, Note_on_c, 5, 40, 0
7, 6960, Note_on_c, 5, 41, 100
7, 7014, Note_on_c, 5, 41, 0
7, 7020, Note_on_c, 5, 43, 100
7, 7074, Note_on_c, 5, 43, 0
7, 7080, Note_on_c, 5, 45, 100
7, 7134, Note_on_c, 5, 45, 0
7, 7140, Note_on_c, 5, 47, 100
7, 7194, Note_on_c, 5, 47, 0
7, 7200, Note_on_c, 5, 48, 100
7, 7254, Note_on_c, 5, 48, 0
7, 7260, Note_on_c, 5, 50, 100
7, 7314, Note_on_c, 5, 50, 0
7, 7320, Note_on_c, 5, 52, 100
7, 7374, Note_on_c, 5, 52, 0
7, 7380, Note_on_c, 5, 53, 100
7, 7434, Note_on_c, 5, 53, 0
7, 7440, Note_on_c, 5, 55, 100
7, 7548, Note_on_c, 5, 55, 0
7, 7560, Note_on_c, 5, 43, 100
7, 7668, Note_on_c, 5, 43, 0
7, 7680, Note_on_c, 5, 48, 100
7, 7734, Note_on_c, 5, 48, 0
7, 7740, Note_on_c, 5, 64, 100
7, 7794, Note_on_c, 5, 64, 0
7, 7800, Note_on_c, 5, 62, 100
7, 7854, Note_on_c, 5, 62, 0
7, 7860, Note_on_c, 5, 64, 100
7, 7914, Note_on_c, 5, 64, 0
7, 7920, Note_on_c, 5, 60, 100
7, 7974, Note_on_c, 5, 60, 0
7, 7980, Note_on_c, 5, 64, 100
7, 8034, Note_on_c, 5, 64, 0
7, 8040, Note_on_c, 5, 65, 100
7, 8094, Note_on_c, 5, 65, 0
7, 8100, Note_on_c, 5, 64, 100
7, 8154, Note_on_c, 5, 64, 0
7, 8160, Note_on_c, 5, 60, 100
7, 8268, Note_on_c, 5, 60, 0
7, 8280, Note_on_c, 5, 55, 100
7, 8388, Note_on_c, 5, 55, 0
7, 8520, Note_on_c, 5, 60, 100
7, 8574, Note_on_c, 5, 60, 0
7, 8580, Note_on_c, 5, 55, 100
7, 8634, Note_on_c, 5, 55, 0
7, 8640, Note_on_c, 5, 48, 100
7, 8748, Note_on_c, 5, 48, 0
7, 8760, Note_on_c, 5, 55, 100
7, 8868, Note_on_c, 5, 55, 0
7, 8880, Note_on_c, 5, 43, 100
7, 8988, Note_on_c, 5, 43, 0
7, 9000, Note_on_c, 5, 55, 100
7, 9228, Note_on_c, 5, 55, 0
7, 9240, Note_on_c, 5, 48, 100
7, 9294, Note_on_c, 5, 48, 0
7, 9300, Note_on_c, 5, 50, 100
7, 9354, Note_on_c, 5, 50, 0
7, 9360, Note_on_c, 5, 52, 100
7, 9414, Note_on_c, 5, 52, 0
7, 9420, Note_on_c, 5, 55, 100
7, 9474, Note_on_c, 5, 55, 0
7, 9480, Note_on_c, 5, 57, 100
7, 9534, Note_on_c, 5, 57, 0
7, 9540, Note_on_c, 5, 59, 100
7, 9594, Note_on_c, 5, 59, 0
7, 9600, Note_on_c, 5, 60, 100
7, 9708, Note_on_c, 5, 60, 0
7, 9720, Note_on_c, 5, 55, 100
7, 9828, Note_on_c, 5, 55, 0
7, 9840, Note_on_c, 5, 60, 100
7, 9948, Note_on_c, 5, 60, 0
7, 9960, Note_on_c, 5, 55, 100
7, 10068, Note_on_c, 5, 55, 0
7, 10080, Note_on_c, 5, 60, 100
7, 10188, Note_on_c, 5, 60, 0
7, 10200, Note_on_c, 5, 59, 100
7, 10254, Note_on_c, 5, 59, 0
7, 10260, Note_on_c, 5, 57, 100
7, 10314, Note_on_c, 5, 57, 0
7, 10320, Note_on_c, 5, 55, 100
7, 10428, Note_on_c, 5, 55, 0
7, 10440, Note_on_c, 5, 57, 100
7, 10494, Note_on_c, 5, 57, 0
7, 10500, Note_on_c, 5, 59, 100
7, 10554, Note_on_c, 5, 59, 0
7, 10560, Note_on_c, 5, 60, 100
7, 10668, Note_on_c, 5, 60, 0
7, 10680, Note_on_c, 5, 59, 100
7, 10734, Note_on_c, 5, 59, 0
7, 10740, Note_on_c, 5, 57, 100
7, 10794, Note_on_c, 5, 57, 0
7, 10800, Note_on_c, 5, 55, 100
7, 10908, Note_on_c, 5, 55, 0
7, 10920, Note_on_c, 5, 53, 100
7, 11028, Note_on_c, 5, 53, 0
7, 11040, Note_on_c, 5, 52, 100
7, 11094, Note_on_c, 5, 52, 0
7, 11100, Note_on_c, 5, 53, 100
7, 11154, Note_on_c, 5, 53, 0
7, 11160, Note_on_c, 5, 55, 100
7, 11214, Note_on_c, 5, 55, 0
7, 11220, Note_on_c, 5, 52, 100
7, 11274, Note_on_c, 5, 52, 0
7, 11280, Note_on_c, 5, 48, 100
7, 11334, Note_on_c, 5, 48, 0
7, 11340, Note_on_c, 5, 50, 100
7, 11394, Note_on_c, 5, 50, 0
7, 11400, Note_on_c, 5, 52, 100
7, 11454, Note_on_c, 5, 52, 0
7, 11460, Note_on_c, 5, 54, 100
7, 11514, Note_on_c, 5, 54, 0
7, 11520, Note_on_c, 5, 55, 100
7, 11628, Note_on_c, 5, 55, 0
7, 11640, Note_on_c, 5, 67, 100
7, 11748, Note_on_c, 5, 67, 0
7, 11760, Note_on_c, 5, 62, 100
7, 11868, Note_on_c, 5, 62, 0
7, 11880, Note_on_c, 5, 60, 100
7, 11988, Note_on_c, 5, 60, 0
7, 12000, Note_on_c, 5, 59, 100
7, 12108, Note_on_c, 5, 59, 0
7, 12120, Note_on_c, 5, 55, 100
7, 12174, Note_on_c, 5, 55, 0
7, 12180, Note_on_c, 5, 57, 100
7, 12234, Note_on_c, 5, 57, 0
7, 12240, Note_on_c, 5, 59, 100
7, 12348, Note_on_c, 5, 59, 0
7, 12360, Note_on_c, 5, 62, 100
7, 12468, Note_on_c, 5, 62, 0
7, 12480, Note_on_c, 5, 55, 100
7, 12534, Note_on_c, 5, 55, 0
7, 12540, Note_on_c, 5, 57, 100
7, 12594, Note_on_c, 5, 57, 0
7, 12600, Note_on_c, 5, 59, 100
7, 12654, Note_on_c, 5, 59, 0
7, 12660, Note_on_c, 5, 60, 100
7, 12714, Note_on_c, 5, 60, 0
7, 12720, Note_on_c, 5, 57, 100
7, 12774, Note_on_c, 5, 57, 0
7, 12780, Note_on_c, 5, 59, 100
7, 12834, Note_on_c, 5, 59, 0
7, 12840, Note_on_c, 5, 60, 100
7, 12894, Note_on_c, 5, 60, 0
7, 12900, Note_on_c, 5, 57, 100
7, 12954, Note_on_c, 5, 57, 0
7, 12960, Note_on_c, 5, 59, 100
7, 13014, Note_on_c, 5, 59, 0
7, 13020, Note_on_c, 5, 64, 100
7, 13074, Note_on_c, 5, 64, 0
7, 13080, Note_on_c, 5, 62, 100
7, 13134, Note_on_c, 5, 62, 0
7, 13140, Note_on_c, 5, 60, 100
7, 13194, Note_on_c, 5, 60, 0
7, 13200, Note_on_c, 5, 59, 100
7, 13254, Note_on_c, 5, 59, 0
7, 13260, Note_on_c, 5, 57, 100
7, 13314, Note_on_c, 5, 57, 0
7, 13320, Note_on_c, 5, 55, 100
7, 13374, Note_on_c, 5, 55, 0
7, 13380, Note_on_c, 5, 54, 100
7, 13434, Note_on_c, 5, 54, 0
7, 13440, Note_on_c, 5, 52, 100
7, 13548, Note_on_c, 5, 52, 0
7, 13800, Note_on_c, 5, 60, 100
7, 13908, Note_on_c, 5, 60, 0
7, 13920, Note_on_c, 5, 60, 100
7, 14028, Note_on_c, 5, 60, 0
7, 14040, Note_on_c, 5, 54, 100
7, 14148, Note_on_c, 5, 54, 0
7, 14220, Note_on_c, 5, 54, 100
7, 14274, Note_on_c, 5, 54, 0
7, 14280, Note_on_c, 5, 52, 100
7, 14334, Note_on_c, 5, 52, 0
7, 14340, Note_on_c, 5, 54, 100
7, 14394, Note_on_c, 5, 54, 0
7, 14400, Note_on_c, 5, 47, 100
7, 14508, Note_on_c, 5, 47, 0
7, 14520, Note_on_c, 5, 54, 100
7, 14628, Note_on_c, 5, 54, 0
7, 14640, Note_on_c, 5, 54, 100
7, 14748, Note_on_c, 5, 54, 0
7, 14760, Note_on_c, 5, 47, 100
7, 14868, Note_on_c, 5, 47, 0
7, 15000, Note_on_c, 5, 59, 100
7, 15108, Note_on_c, 5, 59, 0
7, 15120, Note_on_c, 5, 59, 100
7, 15228, Note_on_c, 5, 59, 0
7, 15240, Note_on_c, 5, 52, 100
7, 15348, Note_on_c, 5, 52, 0
7, 15360, Note_on_c, 5, 64, 100
7, 15414, Note_on_c, 5, 64, 0
7, 15420, Note_on_c, 5, 66, 100
7, 15474, Note_on_c, 5, 66, 0
7, 15480, Note_on_c, 5, 67, 100
7, 15534, Note_on_c, 5, 67, 0
7, 15540, Note_on_c, 5, 64, 100
7, 15594, Note_on_c, 5, 64, 0
7, 15600, Note_on_c, 5, 60, 100
7, 15654, Note_on_c, 5, 60, 0
7, 15660, Note_on_c, 5, 62, 100
7, 15714, Note_on_c, 5, 62, 0
7, 15720, Note_on_c, 5, 64, 100
7, 15774, Note_on_c, 5, 64, 0
7, 15780, Note_on_c, 5, 60, 100
7, 15834, Note_on_c, 5, 60, 0
7, 15840, Note_on_c, 5, 57, 100
7, 15894, Note_on_c, 5, 57, 0
7, 15900, Note_on_c, 5, 59, 100
7, 15954, Note_on_c, 5, 59, 0
7, 15960, Note_on_c, 5, 60, 100
7, 16014, Note_on_c, 5, 60, 0
7, 16020, Note_on_c, 5, 57, 100
7, 16074, Note_on_c, 5, 57, 0
7, 16080, Note_on_c, 5, 54, 100
7, 16188, Note_on_c, 5, 54, 0
7, 16200, Note_on_c, 5, 50, 100
7, 16308, Note_on_c, 5, 50, 0
7, 16440, Note_on_c, 5, 62, 100
7, 16548, Note_on_c, 5, 62, 0
7, 16560, Note_on_c, 5, 62, 100
7, 16668, Note_on_c, 5, 62, 0
7, 16680, Note_on_c, 5, 50, 100
7, 16788, Note_on_c, 5, 50, 0
7, 16920, Note_on_c, 5, 62, 100
7, 17028, Note_on_c, 5, 62, 0
7, 17040, Note_on_c, 5, 62, 100
7, 17148, Note_on_c, 5, 62, 0
7, 17160, Note_on_c, 5, 50, 100
7, 17268, Note_on_c, 5, 50, 0
7, 17280, Note_on_c, 5, 55, 100
7, 17388, Note_on_c, 5, 55, 0
7, 17400, Note_on_c, 5, 43, 100
7, 17508, Note_on_c, 5, 43, 0
7, 17580, Note_on_c, 5, 57, 100
7, 17634, Note_on_c, 5, 57, 0
7, 17640, Note_on_c, 5, 55, 100
7, 17694, Note_on_c, 5, 55, 0
7, 17700, Note_on_c, 5, 53, 100
7, 17754, Note_on_c, 5, 53, 0
7, 17760, Note_on_c, 5, 52, 100
7, 17814, Note_on_c, 5, 52, 0
7, 17820, Note_on_c, 5, 53, 100
7, 17874, Note_on_c, 5, 53, 0
7, 17880, Note_on_c, 5, 55, 100
7, 17934, Note_on_c, 5, 55, 0
7, 17940, Note_on_c, 5, 52, 100
7, 17994, Note_on_c, 5, 52, 0
7, 18000, Note_on_c, 5, 48, 100
7, 18054, Note_on_c, 5, 48, 0
7, 18060, Note_on_c, 5, 50, 100
7, 18114, Note_on_c, 5, 50, 0
7, 18120, Note_on_c, 5, 52, 100
7, 18174, Note_on_c, 5, 52, 0
7, 18180, Note_on_c, 5, 48, 100
7, 18234, Note_on_c, 5, 48, 0
7, 18240, Note_on_c, 5, 50, 100
7, 18294, Note_on_c, 5, 50, 0
7, 18300, Note_on_c, 5, 57, 100
7, 18354, Note_on_c, 5, 57, 0
7, 18360, Note_on_c, 5, 54, 100
7, 18414, Note_on_c, 5, 54, 0
7, 18420, Note_on_c, 5, 50, 100
7, 18474, Note_on_c, 5, 50, 0
7, 18480, Note_on_c, 5, 62, 100
7, 18534, Note_on_c, 5, 62, 0
7, 18540, Note_on_c, 5, 50, 100
7, 18594, Note_on_c, 5, 50, 0
7, 18600, Note_on_c, 5, 54, 100
7, 18654, Note_on_c, 5, 54, 0
7, 18660, Note_on_c, 5, 50, 100
7, 18714, Note_on_c, 5, 50, 0
7, 18720, Note_on_c, 5, 55, 100
7, 18828, Note_on_c, 5, 55, 0
7, 18840, Note_on_c, 5, 48, 100
7, 18948, Note_on_c, 5, 48, 0
7, 18960, Note_on_c, 5, 50, 100
7, 19068, Note_on_c, 5, 50, 0
7, 19080, Note_on_c, 5, 38, 100
7, 19188, Note_on_c, 5, 38, 0
7, 19200, Note_on_c, 5, 43, 100
7, 19254, Note_on_c, 5, 43, 0
7, 19260, Note_on_c, 5, 50, 100
7, 19314, Note_on_c, 5, 50, 0
7, 19320, Note_on_c, 5, 52, 100
7, 19374, Note_on_c, 5, 52, 0
7, 19380, Note_on_c, 5, 54, 100
7, 19434, Note_on_c, 5, 54, 0
7, 19440, Note_on_c, 5, 55, 100
7, 19494, Note_on_c, 5, 55, 0
7, 19500, Note_on_c, 5, 57, 100
7, 19554, Note_on_c, 5, 57, 0
7, 19560, Note_on_c, 5, 59, 100
7, 19614, Note_on_c, 5, 59, 0
7, 19620, Note_on_c, 5, 60, 100
7, 19674, Note_on_c, 5, 60, 0
7, 19680, Note_on_c, 5, 62, 100
7, 19734, Note_on_c, 5, 62, 0
7, 19740, Note_on_c, 5, 64, 100
7, 19794, Note_on_c, 5, 64, 0
7, 19800, Note_on_c, 5, 65, 100
7, 19974, Note_on_c, 5, 65, 0
7, 19980, Note_on_c, 5, 62, 100
7, 20034, Note_on_c, 5, 62, 0
7, 20040, Note_on_c, 5, 59, 100
7, 20094, Note_on_c, 5, 59, 0
7, 20100, Note_on_c, 5, 55, 100
7, 20154, Note_on_c, 5, 55, 0
7, 20160, Note_on_c, 5, 60, 100
7, 20160, Note_on_c, 5, 64, 100
7, 20268, Note_on_c, 5, 64, 0
7, 20268, Note_on_c, 5, 60, 0
7, 20280, Note_on_c, 5, 55, 100
7, 20280, Note_on_c, 5, 64, 100
7, 20388, Note_on_c, 5, 64, 0
7, 20388, Note_on_c, 5, 55, 0
7, 20400, Note_on_c, 5, 60, 100
7, 20508, Note_on_c, 5, 60, 0
7, 20520, Note_on_c, 5, 55, 100
7, 20628, Note_on_c, 5, 55, 0
7, 20640, Note_on_c, 5, 60, 100
7, 20856, Note_on_c, 5, 60, 0
7, 21000, Note_on_c, 5, 52, 100
7, 21108, Note_on_c, 5, 52, 0
7, 21120, Note_on_c, 5, 57, 100
7, 21228, Note_on_c, 5, 57, 0
7, 21240, Note_on_c, 5, 52, 100
7, 21348, Note_on_c, 5, 52, 0
7, 21360, Note_on_c, 5, 57, 100
7, 21468, Note_on_c, 5, 57, 0
7, 21480, Note_on_c, 5, 52, 100
7, 21588, Note_on_c, 5, 52, 0
7, 21600, Note_on_c, 5, 57, 100
7, 21816, Note_on_c, 5, 57, 0
7, 21960, Note_on_c, 5, 57, 100
7, 21960, Note_on_c, 5, 61, 100
7, 21960, Note_on_c, 5, 64, 100
7, 22068, Note_on_c, 5, 64, 0
7, 22068, Note_on_c, 5, 61, 0
7, 22068, Note_on_c, 5, 57, 0
7, 22080, Note_on_c, 5, 62, 100
7, 22080, Note_on_c, 5, 65, 100
7, 22188, Note_on_c, 5, 65, 0
7, 22188, Note_on_c, 5, 62, 0
7, 22200, Note_on_c, 5, 57, 100
7, 22200, Note_on_c, 5, 62, 100
7, 22308, Note_on_c, 5, 62, 0
7, 22308, Note_on_c, 5, 57, 0
7, 22320, Note_on_c, 5, 62, 100
7, 22320, Note_on_c, 5, 65, 100
7, 22428, Note_on_c, 5, 65, 0
7, 22428, Note_on_c, 5, 62, 0
7, 22440, Note_on_c, 5, 57, 100
7, 22440, Note_on_c, 5, 61, 100
7, 22548, Note_on_c, 5, 61, 0
7, 22548, Note_on_c, 5, 57, 0
7, 22560, Note_on_c, 5, 65, 100
7, 22560, Note_on_c, 5, 62, 100
7, 22614, Note_on_c, 5, 62, 0
7, 22620, Note_on_c, 5, 64, 100
7, 22668, Note_on_c, 5, 65, 0
7, 22674, Note_on_c, 5, 64, 0
7, 22680, Note_on_c, 5, 62, 100
7, 22734, Note_on_c, 5, 62, 0
7, 22740, Note_on_c, 5, 60, 100
7, 22794, Note_on_c, 5, 60, 0
7, 22800, Note_on_c, 5, 59, 100
7, 22908, Note_on_c, 5, 59, 0
7, 22920, Note_on_c, 5, 55, 100
7, 23028, Note_on_c, 5, 55, 0
7, 23040, Note_on_c, 5, 60, 100
7, 23094, Note_on_c, 5, 60, 0
7, 23100, Note_on_c, 5, 62, 100
7, 23154, Note_on_c, 5, 62, 0
7, 23160, Note_on_c, 5, 60, 100
7, 23214, Note_on_c, 5, 60, 0
7, 23220, Note_on_c, 5, 59, 100
7, 23274, Note_on_c, 5, 59, 0
7, 23280, Note_on_c, 5, 57, 100
7, 23388, Note_on_c, 5, 57, 0
7, 23400, Note_on_c, 5, 55, 100
7, 23508, Note_on_c, 5, 55, 0
7, 23520, Note_on_c, 5, 54, 100
7, 23574, Note_on_c, 5, 54, 0
7, 23580, Note_on_c, 5, 60, 100
7, 23634, Note_on_c, 5, 60, 0
7, 23640, Note_on_c, 5, 59, 100
7, 23694, Note_on_c, 5, 59, 0
7, 23700, Note_on_c, 5, 57, 100
7, 23754, Note_on_c, 5, 57, 0
7, 23760, Note_on_c, 5, 56, 100
7, 23868, Note_on_c, 5, 56, 0
7, 23880, Note_on_c, 5, 52, 100
7, 23988, Note_on_c, 5, 52, 0
7, 24000, Note_on_c, 5, 57, 100
7, 24054, Note_on_c, 5, 57, 0
7, 24060, Note_on_c, 5, 59, 100
7, 24114, Note_on_c, 5, 59, 0
7, 24120, Note_on_c, 5, 57, 100
7, 24174, Note_on_c, 5, 57, 0
7, 24180, Note_on_c, 5, 55, 100
7, 24234, Note_on_c, 5, 55, 0
7, 24240, Note_on_c, 5, 53, 100
7, 24348, Note_on_c, 5, 53, 0
7, 24360, Note_on_c, 5, 52, 100
7, 24468, Note_on_c, 5, 52, 0
7, 24480, Note_on_c, 5, 50, 100
7, 24534, Note_on_c, 5, 50, 0
7, 24540, Note_on_c, 5, 50, 100
7, 24594, Note_on_c, 5, 50, 0
7, 24600, Note_on_c, 5, 52, 100
7, 24654, Note_on_c, 5, 52, 0
7, 24660, Note_on_c, 5, 53, 100
7, 24714, Note_on_c, 5, 53, 0
7, 24720, Note_on_c, 5, 52, 100
7, 24828, Note_on_c, 5, 52, 0
7, 24840, Note_on_c, 5, 48, 100
7, 24948, Note_on_c, 5, 48, 0
7, 24960, Note_on_c, 5, 53, 100
7, 25014, Note_on_c, 5, 53, 0
7, 25020, Note_on_c, 5, 55, 100
7, 25074, Note_on_c, 5, 55, 0
7, 25080, Note_on_c, 5, 53, 100
7, 25134, Note_on_c, 5, 53, 0
7, 25140, Note_on_c, 5, 52, 100
7, 25194, Note_on_c, 5, 52, 0
7, 25200, Note_on_c, 5, 50, 100
7, 25308, Note_on_c, 5, 50, 0
7, 25320, Note_on_c, 5, 48, 100
7, 25428, Note_on_c, 5, 48, 0
7, 25440, Note_on_c, 5, 47, 100
7, 25494, Note_on_c, 5, 47, 0
7, 25500, Note_on_c, 5, 43, 100
7, 25554, Note_on_c, 5, 43, 0
7, 25560, Note_on_c, 5, 45, 100
7, 25614, Note_on_c, 5, 45, 0
7, 25620, Note_on_c, 5, 47, 100
7, 25674, Note_on_c, 5, 47, 0
7, 25680, Note_on_c, 5, 48, 100
7, 25788, Note_on_c, 5, 48, 0
7, 25800, Note_on_c, 5, 47, 100
7, 25908, Note_on_c, 5, 47, 0
7, 25920, Note_on_c, 5, 45, 100
7, 25974, Note_on_c, 5, 45, 0
7, 25980, Note_on_c, 5, 45, 100
7, 26034, Note_on_c, 5, 45, 0
7, 26040, Note_on_c, 5, 47, 100
7, 26094, Note_on_c, 5, 47, 0
7, 26100, Note_on_c, 5, 48, 100
7, 26154, Note_on_c, 5, 48, 0
7, 26160, Note_on_c, 5, 47, 100
7, 26268, Note_on_c, 5, 47, 0
7, 26280, Note_on_c, 5, 43, 100
7, 26388, Note_on_c, 5, 43, 0
7, 26400, Note_on_c, 5, 48, 100
7, 26454, Note_on_c, 5, 48, 0
7, 26460, Note_on_c, 5, 50, 100
7, 26514, Note_on_c, 5, 50, 0
7, 26520, Note_on_c, 5, 48, 100
7, 26574, Note_on_c, 5, 48, 0
7, 26580, Note_on_c, 5, 47, 100
7, 26634, Note_on_c, 5, 47, 0
7, 26640, Note_on_c, 5, 45, 100
7, 26694, Note_on_c, 5, 45, 0
7, 26700, Note_on_c, 5, 46, 100
7, 26754, Note_on_c, 5, 46, 0
7, 26760, Note_on_c, 5, 45, 100
7, 26814, Note_on_c, 5, 45, 0
7, 26820, Note_on_c, 5, 43, 100
7, 26874, Note_on_c, 5, 43, 0
7, 26880, Note_on_c, 5, 41, 100
7, 26988, Note_on_c, 5, 41, 0
7, 27000, Note_on_c, 5, 40, 100
7, 27108, Note_on_c, 5, 40, 0
7, 27120, Note_on_c, 5, 41, 100
7, 27228, Note_on_c, 5, 41, 0
7, 27240, Note_on_c, 5, 38, 100
7, 27348, Note_on_c, 5, 38, 0
7, 27360, Note_on_c, 5, 43, 100
7, 27468, Note_on_c, 5, 43, 0
7, 27480, Note_on_c, 5, 55, 100
7, 27534, Note_on_c, 5, 55, 0
7, 27540, Note_on_c, 5, 57, 100
7, 27594, Note_on_c, 5, 57, 0
7, 27600, Note_on_c, 5, 59, 100
7, 27654, Note_on_c, 5, 59, 0
7, 27660, Note_on_c, 5, 62, 100
7, 27714, Note_on_c, 5, 62, 0
7, 27720, Note_on_c, 5, 55, 100
7, 27774, Note_on_c, 5, 55, 0
7, 27780, Note_on_c, 5, 62, 100
7, 27834, Note_on_c, 5, 62, 0
7, 27840, Note_on_c, 5, 60, 100
7, 27948, Note_on_c, 5, 60, 0
7, 27960, Note_on_c, 5, 55, 100
7, 28068, Note_on_c, 5, 55, 0
7, 28080, Note_on_c, 5, 60, 100
7, 28188, Note_on_c, 5, 60, 0
7, 28200, Note_on_c, 5, 55, 100
7, 28308, Note_on_c, 5, 55, 0
7, 28320, Note_on_c, 5, 60, 100
7, 28428, Note_on_c, 5, 60, 0
7, 28440, Note_on_c, 5, 59, 100
7, 28494, Note_on_c, 5, 59, 0
7, 28500, Note_on_c, 5, 57, 100
7, 28554, Note_on_c, 5, 57, 0
7, 28560, Note_on_c, 5, 55, 100
7, 28668, Note_on_c, 5, 55, 0
7, 28680, Note_on_c, 5, 57, 100
7, 28734, Note_on_c, 5, 57, 0
7, 28740, Note_on_c, 5, 59, 100
7, 28794, Note_on_c, 5, 59, 0
7, 28800, Note_on_c, 5, 60, 100
7, 28908, Note_on_c, 5, 60, 0
7, 28920, Note_on_c, 5, 59, 100
7, 28974, Note_on_c, 5, 59, 0
7, 28980, Note_on_c, 5, 57, 100
7, 29034, Note_on_c, 5, 57, 0
7, 29040, Note_on_c, 5, 55, 100
7, 29148, Note_on_c, 5, 55, 0
7, 29160, Note_on_c, 5, 53, 100
7, 29268, Note_on_c, 5, 53, 0
7, 29280, Note_on_c, 5, 52, 100
7, 29334, Note_on_c, 5, 52, 0
7, 29340, Note_on_c, 5, 48, 100
7, 29394, Note_on_c, 5, 48, 0
7, 29400, Note_on_c, 5, 52, 100
7, 29454, Note_on_c, 5, 52, 0
7, 29460, Note_on_c, 5, 55, 100
7, 29514, Note_on_c, 5, 55, 0
7, 29520, Note_on_c, 5, 60, 100
7, 29628, Note_on_c, 5, 60, 0
7, 29640, Note_on_c, 5, 48, 100
7, 29748, Note_on_c, 5, 48, 0
7, 29820, Note_on_c, 5, 53, 100
7, 29874, Note_on_c, 5, 53, 0
7, 29880, Note_on_c, 5, 57, 100
7, 29934, Note_on_c, 5, 57, 0
7, 29940, Note_on_c, 5, 60, 100
7, 29994, Note_on_c, 5, 60, 0
7, 30000, Note_on_c, 5, 65, 100
7, 30108, Note_on_c, 5, 65, 0
7, 30120, Note_on_c, 5, 53, 100
7, 30228, Note_on_c, 5, 53, 0
7, 30240, Note_on_c, 5, 54, 100
7, 30294, Note_on_c, 5, 54, 0
7, 30300, Note_on_c, 5, 50, 100
7, 30354, Note_on_c, 5, 50, 0
7, 30360, Note_on_c, 5, 54, 100
7, 30414, Note_on_c, 5, 54, 0
7, 30420, Note_on_c, 5, 57, 100
7, 30474, Note_on_c, 5, 57, 0
7, 30480, Note_on_c, 5, 62, 100
7, 30588, Note_on_c, 5, 62, 0
7, 30600, Note_on_c, 5, 50, 100
7, 30708, Note_on_c, 5, 50, 0
7, 30780, Note_on_c, 5, 55, 100
7, 30834, Note_on_c, 5, 55, 0
7, 30840, Note_on_c, 5, 59, 100
7, 30894, Note_on_c, 5, 59, 0
7, 30900, Note_on_c, 5, 62, 100
7, 30954, Note_on_c, 5, 62, 0
7, 30960, Note_on_c, 5, 67, 100
7, 31068, Note_on_c, 5, 67, 0
7, 31080, Note_on_c, 5, 55, 100
7, 31188, Note_on_c, 5, 55, 0
7, 31200, Note_on_c, 5, 56, 100
7, 31254, Note_on_c, 5, 56, 0
7, 31260, Note_on_c, 5, 52, 100
7, 31314, Note_on_c, 5, 52, 0
7, 31320, Note_on_c, 5, 56, 100
7, 31374, Note_on_c, 5, 56, 0
7, 31380, Note_on_c, 5, 59, 100
7, 31434, Note_on_c, 5, 59, 0
7, 31440, Note_on_c, 5, 64, 100
7, 31548, Note_on_c, 5, 64, 0
7, 31560, Note_on_c, 5, 52, 100
7, 31668, Note_on_c, 5, 52, 0
7, 31740, Note_on_c, 5, 57, 100
7, 31794, Note_on_c, 5, 57, 0
7, 31800, Note_on_c, 5, 60, 100
7, 31854, Note_on_c, 5, 60, 0
7, 31860, Note_on_c, 5, 64, 100
7, 31914, Note_on_c, 5, 64, 0
7, 31920, Note_on_c, 5, 69, 100
7, 32028, Note_on_c, 5, 69, 0
7, 32040, Note_on_c, 5, 57, 100
7, 32148, Note_on_c, 5, 57, 0
7, 32160, Note_on_c, 5, 57, 100
7, 32214, Note_on_c, 5, 57, 0
7, 32220, Note_on_c, 5, 53, 100
7, 32274, Note_on_c, 5, 53, 0
7, 32280, Note_on_c, 5, 57, 100
7, 32334, Note_on_c, 5, 57, 0
7, 32340, Note_on_c, 5, 60, 100
7, 32394, Note_on_c, 5, 60, 0
7, 32400, Note_on_c, 5, 65, 100
7, 32508, Note_on_c, 5, 65, 0
7, 32520, Note_on_c, 5, 53, 100
7, 32628, Note_on_c, 5, 53, 0
7, 32640, Note_on_c, 5, 59, 100
7, 32694, Note_on_c, 5, 59, 0
7, 32700, Note_on_c, 5, 55, 100
7, 32754, Note_on_c, 5, 55, 0
7, 32760, Note_on_c, 5, 59, 100
7, 32814, Note_on_c, 5, 59, 0
7, 32820, Note_on_c, 5, 62, 100
7, 32874, Note_on_c, 5, 62, 0
7, 32880, Note_on_c, 5, 67, 100
7, 32988, Note_on_c, 5, 67, 0
7, 33000, Note_on_c, 5, 59, 100
7, 33108, Note_on_c, 5, 59, 0
7, 33120, Note_on_c, 5, 60, 100
7, 33174, Note_on_c, 5, 60, 0
7, 33180, Note_on_c, 5, 55, 100
7, 33234, Note_on_c, 5, 55, 0
7, 33240, Note_on_c, 5, 60, 100
7, 33294, Note_on_c, 5, 60, 0
7, 33300, Note_on_c, 5, 64, 100
7, 33354, Note_on_c, 5, 64, 0
7, 33360, Note_on_c, 5, 67, 100
7, 33468, Note_on_c, 5, 67, 0
7, 33480, Note_on_c, 5, 55, 100
7, 33588, Note_on_c, 5, 55, 0
7, 33600, Note_on_c, 5, 57, 100
7, 33654, Note_on_c, 5, 57, 0
7, 33660, Note_on_c, 5, 54, 100
7, 33714, Note_on_c, 5, 54, 0
7, 33720, Note_on_c, 5, 57, 100
7, 33774, Note_on_c, 5, 57, 0
7, 33780, Note_on_c, 5, 60, 100
7, 33834, Note_on_c, 5, 60, 0
7, 33840, Note_on_c, 5, 66, 100
7, 33948, Note_on_c, 5, 66, 0
7, 33960, Note_on_c, 5, 54, 100
7, 34068, Note_on_c, 5, 54, 0
7, 34140, Note_on_c, 5, 54, 100
7, 34194, Note_on_c, 5, 54, 0
7, 34200, Note_on_c, 5, 57, 100
7, 34254, Note_on_c, 5, 57, 0
7, 34260, Note_on_c, 5, 62, 100
7, 34314, Note_on_c, 5, 62, 0
7, 34320, Note_on_c, 5, 66, 100
7, 34428, Note_on_c, 5, 66, 0
7, 34440, Note_on_c, 5, 54, 100
7, 34548, Note_on_c, 5, 54, 0
7, 34560, Note_on_c, 5, 55, 100
7, 34668, Note_on_c, 5, 55, 0
7, 34680, Note_on_c, 5, 53, 100
7, 34734, Note_on_c, 5, 53, 0
7, 34740, Note_on_c, 5, 52, 100
7, 34794, Note_on_c, 5, 52, 0
7, 34800, Note_on_c, 5, 50, 100
7, 34854, Note_on_c, 5, 50, 0
7, 34860, Note_on_c, 5, 48, 100
7, 34914, Note_on_c, 5, 48, 0
7, 34920, Note_on_c, 5, 47, 100
7, 34974, Note_on_c, 5, 47, 0
7, 34980, Note_on_c, 5, 43, 100
7, 35034, Note_on_c, 5, 43, 0
7, 35040, Note_on_c, 5, 47, 100
7, 35094, Note_on_c, 5, 47, 0
7, 35100, Note_on_c, 5, 48, 100
7, 35154, Note_on_c, 5, 48, 0
7, 35160, Note_on_c, 5, 50, 100
7, 35214, Note_on_c, 5, 50, 0
7, 35220, Note_on_c, 5, 47, 100
7, 35274, Note_on_c, 5, 47, 0
7, 35280, Note_on_c, 5, 43, 100
7, 35334, Note_on_c, 5, 43, 0
7, 35340, Note_on_c, 5, 47, 100
7, 35394, Note_on_c, 5, 47, 0
7, 35400, Note_on_c, 5, 50, 100
7, 35454, Note_on_c, 5, 50, 0
7, 35460, Note_on_c, 5, 53, 100
7, 35514, Note_on_c, 5, 53, 0
7, 35520, Note_on_c, 5, 48, 100
7, 35574, Note_on_c, 5, 48, 0
7, 35580, Note_on_c, 5, 50, 100
7, 35634, Note_on_c, 5, 50, 0
7, 35640, Note_on_c, 5, 52, 100
7, 35694, Note_on_c, 5, 52, 0
7, 35700, Note_on_c, 5, 48, 100
7, 35754, Note_on_c, 5, 48, 0
7, 35760, Note_on_c, 5, 43, 100
7, 35814, Note_on_c, 5, 43, 0
7, 35820, Note_on_c, 5, 48, 100
7, 35874, Note_on_c, 5, 48, 0
7, 35880, Note_on_c, 5, 52, 100
7, 35934, Note_on_c, 5, 52, 0
7, 35940, Note_on_c, 5, 55, 100
7, 35994, Note_on_c, 5, 55, 0
7, 36000, Note_on_c, 5, 54, 100
7, 36054, Note_on_c, 5, 54, 0
7, 36060, Note_on_c, 5, 55, 100
7, 36114, Note_on_c, 5, 55, 0
7, 36120, Note_on_c, 5, 57, 100
7, 36174, Note_on_c, 5, 57, 0
7, 36180, Note_on_c, 5, 54, 100
7, 36234, Note_on_c, 5, 54, 0
7, 36240, Note_on_c, 5, 43, 100
7, 36294, Note_on_c, 5, 43, 0
7, 36300, Note_on_c, 5, 48, 100
7, 36354, Note_on_c, 5, 48, 0
7, 36360, Note_on_c, 5, 54, 100
7, 36414, Note_on_c, 5, 54, 0
7, 36420, Note_on_c, 5, 57, 100
7, 36474, Note_on_c, 5, 57, 0
7, 36480, Note_on_c, 5, 55, 100
7, 36534, Note_on_c, 5, 55, 0
7, 36540, Note_on_c, 5, 57, 100
7, 36594, Note_on_c, 5, 57, 0
7, 36600, Note_on_c, 5, 59, 100
7, 36654, Note_on_c, 5, 59, 0
7, 36660, Note_on_c, 5, 57, 100
7, 36714, Note_on_c, 5, 57, 0
7, 36720, Note_on_c, 5, 55, 100
7, 36774, Note_on_c, 5, 55, 0
7, 36780, Note_on_c, 5, 53, 100
7, 36834, Note_on_c, 5, 53, 0
7, 36840, Note_on_c, 5, 52, 100
7, 36894, Note_on_c, 5, 52, 0
7, 36900, Note_on_c, 5, 50, 100
7, 36954, Note_on_c, 5, 50, 0
7, 36960, Note_on_c, 5, 48, 100
7, 37068, Note_on_c, 5, 48, 0
7, 37080, Note_on_c, 5, 50, 100
7, 37134, Note_on_c, 5, 50, 0
7, 37140, Note_on_c, 5, 52, 100
7, 37194, Note_on_c, 5, 52, 0
7, 37200, Note_on_c, 5, 53, 100
7, 37254, Note_on_c, 5, 53, 0
7, 37260, Note_on_c, 5, 55, 100
7, 37314, Note_on_c, 5, 55, 0
7, 37320, Note_on_c, 5, 57, 100
7, 37374, Note_on_c, 5, 57, 0
7, 37380, Note_on_c, 5, 59, 100
7, 37434, Note_on_c, 5, 59, 0
7, 37440, Note_on_c, 5, 60, 100
7, 37548, Note_on_c, 5, 60, 0
7, 37560, Note_on_c, 5, 55, 100
7, 37668, Note_on_c, 5, 55, 0
7, 37680, Note_on_c, 5, 60, 100
7, 37788, Note_on_c, 5, 60, 0
7, 37800, Note_on_c, 5, 55, 100
7, 37908, Note_on_c, 5, 55, 0
7, 37920, Note_on_c, 5, 60, 100
7, 38028, Note_on_c, 5, 60, 0
7, 38040, Note_on_c, 5, 59, 100
7, 38094, Note_on_c, 5, 59, 0
7, 38100, Note_on_c, 5, 57, 100
7, 38154, Note_on_c, 5, 57, 0
7, 38160, Note_on_c, 5, 55, 100
7, 38268, Note_on_c, 5, 55, 0
7, 38280, Note_on_c, 5, 57, 100
7, 38334, Note_on_c, 5, 57, 0
7, 38340, Note_on_c, 5, 59, 100
7, 38394, Note_on_c, 5, 59, 0
7, 38400, Note_on_c, 5, 60, 100
7, 38508, Note_on_c, 5, 60, 0
7, 38520, Note_on_c, 5, 59, 100
7, 38574, Note_on_c, 5, 59, 0
7, 38580, Note_on_c, 5, 57, 100
7, 38634, Note_on_c, 5, 57, 0
7, 38640, Note_on_c, 5, 55, 100
7, 38748, Note_on_c, 5, 55, 0
7, 38760, Note_on_c, 5, 53, 100
7, 38868, Note_on_c, 5, 53, 0
7, 38880, Note_on_c, 5, 52, 100
7, 38934, Note_on_c, 5, 52, 0
7, 38940, Note_on_c, 5, 53, 100
7, 38994, Note_on_c, 5, 53, 0
7, 39000, Note_on_c, 5, 55, 100
7, 39054, Note_on_c, 5, 55, 0
7, 39060, Note_on_c, 5, 52, 100
7, 39114, Note_on_c, 5, 52, 0
7, 39120, Note_on_c, 5, 48, 100
7, 39174, Note_on_c, 5, 48, 0
7, 39180, Note_on_c, 5, 50, 100
7, 39234, Note_on_c, 5, 50, 0
7, 39240, Note_on_c, 5, 52, 100
7, 39294, Note_on_c, 5, 52, 0
7, 39300, Note_on_c, 5, 53, 100
7, 39354, Note_on_c, 5, 53, 0
7, 39360, Note_on_c, 5, 55, 100
7, 39576, Note_on_c, 5, 55, 0
7, 39600, Note_on_c, 5, 43, 100
7, 39816, Note_on_c, 5, 43, 0
7, 39840, Note_on_c, 5, 48, 100
7, 40056, Note_on_c, 5, 48, 0
7, 45120, Note_on_c, 5, 59, 100
7, 45174, Note_on_c, 5, 59, 0
7, 45180, Note_on_c, 5, 57, 100
7, 45234, Note_on_c, 5, 57, 0
7, 45240, Note_on_c, 5, 55, 100
7, 45294, Note_on_c, 5, 55, 0
7, 45300, Note_on_c, 5, 54, 100
7, 45354, Note_on_c, 5, 54, 0
7, 45360, Note_on_c, 5, 52, 100
7, 45414, Note_on_c, 5, 52, 0
7, 45420, Note_on_c, 5, 64, 100
7, 45474, Note_on_c, 5, 64, 0
7, 45480, Note_on_c, 5, 63, 100
7, 45534, Note_on_c, 5, 63, 0
7, 45540, Note_on_c, 5, 64, 100
7, 45594, Note_on_c, 5, 64, 0
7, 45600, Note_on_c, 5, 66, 100
7, 45654, Note_on_c, 5, 66, 0
7, 45660, Note_on_c, 5, 64, 100
7, 45714, Note_on_c, 5, 64, 0
7, 45720, Note_on_c, 5, 63, 100
7, 45774, Note_on_c, 5, 63, 0
7, 45780, Note_on_c, 5, 61, 100
7, 45834, Note_on_c, 5, 61, 0
7, 45840, Note_on_c, 5, 59, 100
7, 45948, Note_on_c, 5, 59, 0
7, 45960, Note_on_c, 5, 67, 100
7, 46068, Note_on_c, 5, 67, 0
7, 46080, Note_on_c, 5, 66, 100
7, 46188, Note_on_c, 5, 66, 0
7, 46200, Note_on_c, 5, 64, 100
7, 46308, Note_on_c, 5, 64, 0
7, 46320, Note_on_c, 5, 66, 100
7, 46428, Note_on_c, 5, 66, 0
7, 46440, Note_on_c, 5, 63, 100
7, 46548, Note_on_c, 5, 63, 0
7, 46560, Note_on_c, 5, 64, 100
7, 46614, Note_on_c, 5, 64, 0
7, 46620, Note_on_c, 5, 67, 100
7, 46674, Note_on_c, 5, 67, 0
7, 46680, Note_on_c, 5, 71, 100
7, 46734, Note_on_c, 5, 71, 0
7, 46740, Note_on_c, 5, 67, 100
7, 46794, Note_on_c, 5, 67, 0
7, 46800, Note_on_c, 5, 71, 100
7, 46854, Note_on_c, 5, 71, 0
7, 46860, Note_on_c, 5, 69, 100
7, 46914, Note_on_c, 5, 69, 0
7, 46920, Note_on_c, 5, 67, 100
7, 46974, Note_on_c, 5, 67, 0
7, 46980, Note_on_c, 5, 71, 100
7, 47034, Note_on_c, 5, 71, 0
7, 47040, Note_on_c, 5, 69, 100
7, 47148, Note_on_c, 5, 69, 0
7, 47160, Note_on_c, 5, 64, 100
7, 47268, Note_on_c, 5, 64, 0
7, 47280, Note_on_c, 5, 60, 100
7, 47388, Note_on_c, 5, 60, 0
7, 47400, Note_on_c, 5, 69, 100
7, 47508, Note_on_c, 5, 69, 0
7, 47580, Note_on_c, 5, 62, 100
7, 47634, Note_on_c, 5, 62, 0
7, 47640, Note_on_c, 5, 66, 100
7, 47694, Note_on_c, 5, 66, 0
7, 47700, Note_on_c, 5, 69, 100
7, 47754, Note_on_c, 5, 69, 0
7, 47760, Note_on_c, 5, 74, 100
7, 47814, Note_on_c, 5, 74, 0
7, 47820, Note_on_c, 5, 72, 100
7, 47874, Note_on_c, 5, 72, 0
7, 47880, Note_on_c, 5, 71, 100
7, 47934, Note_on_c, 5, 71, 0
7, 47940, Note_on_c, 5, 69, 100
7, 47994, Note_on_c, 5, 69, 0
7, 48000, Note_on_c, 5, 67, 100
7, 48108, Note_on_c, 5, 67, 0
7, 48120, Note_on_c, 5, 62, 100
7, 48228, Note_on_c, 5, 62, 0
7, 48240, Note_on_c, 5, 59, 100
7, 48348, Note_on_c, 5, 59, 0
7, 48360, Note_on_c, 5, 67, 100
7, 48468, Note_on_c, 5, 67, 0
7, 48480, Note_on_c, 5, 55, 100
7, 48534, Note_on_c, 5, 55, 0
7, 48540, Note_on_c, 5, 64, 100
7, 48594, Note_on_c, 5, 64, 0
7, 48600, Note_on_c, 5, 60, 100
7, 48654, Note_on_c, 5, 60, 0
7, 48660, Note_on_c, 5, 55, 100
7, 48714, Note_on_c, 5, 55, 0
7, 48720, Note_on_c, 5, 52, 100
7, 48774, Note_on_c, 5, 52, 0
7, 48780, Note_on_c, 5, 55, 100
7, 48834, Note_on_c, 5, 55, 0
7, 48840, Note_on_c, 5, 57, 100
7, 48894, Note_on_c, 5, 57, 0
7, 48900, Note_on_c, 5, 59, 100
7, 48954, Note_on_c, 5, 59, 0
7, 48960, Note_on_c, 5, 60, 100
7, 49014, Note_on_c, 5, 60, 0
7, 49020, Note_on_c, 5, 57, 100
7, 49074, Note_on_c, 5, 57, 0
7, 49080, Note_on_c, 5, 54, 100
7, 49134, Note_on_c, 5, 54, 0
7, 49140, Note_on_c, 5, 55, 100
7, 49194, Note_on_c, 5, 55, 0
7, 49200, Note_on_c, 5, 57, 100
7, 49254, Note_on_c, 5, 57, 0
7, 49260, Note_on_c, 5, 59, 100
7, 49314, Note_on_c, 5, 59, 0
7, 49320, Note_on_c, 5, 60, 100
7, 49374, Note_on_c, 5, 60, 0
7, 49380, Note_on_c, 5, 57, 100
7, 49434, Note_on_c, 5, 57, 0
7, 49440, Note_on_c, 5, 54, 100
7, 49494, Note_on_c, 5, 54, 0
7, 49500, Note_on_c, 5, 47, 100
7, 49554, Note_on_c, 5, 47, 0
7, 49560, Note_on_c, 5, 51, 100
7, 49614, Note_on_c, 5, 51, 0
7, 49620, Note_on_c, 5, 54, 100
7, 49674, Note_on_c, 5, 54, 0
7, 49680, Note_on_c, 5, 59, 100
7, 49734, Note_on_c, 5, 59, 0
7, 49740, Note_on_c, 5, 57, 100
7, 49794, Note_on_c, 5, 57, 0
7, 49800, Note_on_c, 5, 55, 100
7, 49854, Note_on_c, 5, 55, 0
7, 49860, Note_on_c, 5, 54, 100
7, 49914, Note_on_c, 5, 54, 0
7, 49920, Note_on_c, 5, 52, 100
7, 50136, Note_on_c, 5, 52, 0
7, 50280, Note_on_c, 5, 64, 100
7, 50388, Note_on_c, 5, 64, 0
7, 50400, Note_on_c, 5, 52, 100
7, 50508, Note_on_c, 5, 52, 0
7, 50520, Note_on_c, 5, 57, 100
7, 50628, Note_on_c, 5, 57, 0
7, 50760, Note_on_c, 5, 69, 100
7, 50868, Note_on_c, 5, 69, 0
7, 50880, Note_on_c, 5, 57, 100
7, 50988, Note_on_c, 5, 57, 0
7, 51000, Note_on_c, 5, 62, 100
7, 51108, Note_on_c, 5, 62, 0
7, 51240, Note_on_c, 5, 62, 100
7, 51348, Note_on_c, 5, 62, 0
7, 51360, Note_on_c, 5, 50, 100
7, 51468, Note_on_c, 5, 50, 0
7, 51480, Note_on_c, 5, 55, 100
7, 51588, Note_on_c, 5, 55, 0
7, 51720, Note_on_c, 5, 55, 100
7, 51828, Note_on_c, 5, 55, 0
7, 51840, Note_on_c, 5, 48, 100
7, 51894, Note_on_c, 5, 48, 0
7, 51900, Note_on_c, 5, 59, 100
7, 51954, Note_on_c, 5, 59, 0
7, 51960, Note_on_c, 5, 60, 100
7, 52014, Note_on_c, 5, 60, 0
7, 52020, Note_on_c, 5, 62, 100
7, 52074, Note_on_c, 5, 62, 0
7, 52080, Note_on_c, 5, 64, 100
7, 52188, Note_on_c, 5, 64, 0
7, 52200, Note_on_c, 5, 57, 100
7, 52374, Note_on_c, 5, 57, 0
7, 52380, Note_on_c, 5, 60, 100
7, 52434, Note_on_c, 5, 60, 0
7, 52440, Note_on_c, 5, 62, 100
7, 52494, Note_on_c, 5, 62, 0
7, 52500, Note_on_c, 5, 64, 100
7, 52554, Note_on_c, 5, 64, 0
7, 52560, Note_on_c, 5, 66, 100
7, 52668, Note_on_c, 5, 66, 0
7, 52680, Note_on_c, 5, 59, 100
7, 52854, Note_on_c, 5, 59, 0
7, 52860, Note_on_c, 5, 62, 100
7, 52914, Note_on_c, 5, 62, 0
7, 52920, Note_on_c, 5, 64, 100
7, 52974, Note_on_c, 5, 64, 0
7, 52980, Note_on_c, 5, 66, 100
7, 53034, Note_on_c, 5, 66, 0
7, 53040, Note_on_c, 5, 67, 100
7, 53148, Note_on_c, 5, 67, 0
7, 53160, Note_on_c, 5, 60, 100
7, 53334, Note_on_c, 5, 60, 0
7, 53340, Note_on_c, 5, 64, 100
7, 53394, Note_on_c, 5, 64, 0
7, 53400, Note_on_c, 5, 66, 100
7, 53454, Note_on_c, 5, 66, 0
7, 53460, Note_on_c, 5, 67, 100
7, 53514, Note_on_c, 5, 67, 0
7, 53520, Note_on_c, 5, 69, 100
7, 53628, Note_on_c, 5, 69, 0
7, 53640, Note_on_c, 5, 62, 100
7, 53748, Note_on_c, 5, 62, 0
7, 53760, Note_on_c, 5, 67, 100
7, 53868, Note_on_c, 5, 67, 0
7, 53880, Note_on_c, 5, 62, 100
7, 53934, Note_on_c, 5, 62, 0
7, 53940, Note_on_c, 5, 60, 100
7, 53994, Note_on_c, 5, 60, 0
7, 54000, Note_on_c, 5, 59, 100
7, 54108, Note_on_c, 5, 59, 0
7, 54120, Note_on_c, 5, 57, 100
7, 54174, Note_on_c, 5, 57, 0
7, 54180, Note_on_c, 5, 55, 100
7, 54234, Note_on_c, 5, 55, 0
7, 54240, Note_on_c, 5, 67, 100
7, 54348, Note_on_c, 5, 67, 0
7, 54360, Note_on_c, 5, 71, 100
7, 54414, Note_on_c, 5, 71, 0
7, 54420, Note_on_c, 5, 72, 100
7, 54474, Note_on_c, 5, 72, 0
7, 54480, Note_on_c, 5, 74, 100
7, 54534, Note_on_c, 5, 74, 0
7, 54540, Note_on_c, 5, 66, 100
7, 54594, Note_on_c, 5, 66, 0
7, 54600, Note_on_c, 5, 67, 100
7, 54654, Note_on_c, 5, 67, 0
7, 54660, Note_on_c, 5, 69, 100
7, 54714, Note_on_c, 5, 69, 0
7, 54720, Note_on_c, 5, 62, 100
7, 55014, Note_on_c, 5, 62, 0
7, 55020, Note_on_c, 5, 60, 100
7, 55074, Note_on_c, 5, 60, 0
7, 55080, Note_on_c, 5, 59, 100
7, 55134, Note_on_c, 5, 59, 0
7, 55140, Note_on_c, 5, 57, 100
7, 55194, Note_on_c, 5, 57, 0
7, 55200, Note_on_c, 5, 55, 100
7, 55308, Note_on_c, 5, 55, 0
7, 55320, Note_on_c, 5, 48, 100
7, 55428, Note_on_c, 5, 48, 0
7, 55440, Note_on_c, 5, 50, 100
7, 55548, Note_on_c, 5, 50, 0
7, 55560, Note_on_c, 5, 38, 100
7, 55668, Note_on_c, 5, 38, 0
7, 55680, Note_on_c, 5, 55, 100
7, 55788, Note_on_c, 5, 55, 0
7, 55800, Note_on_c, 5, 50, 100
7, 55908, Note_on_c, 5, 50, 0
7, 55920, Note_on_c, 5, 55, 100
7, 56028, Note_on_c, 5, 55, 0
7, 56040, Note_on_c, 5, 50, 100
7, 56148, Note_on_c, 5, 50, 0
7, 56160, Note_on_c, 5, 55, 100
7, 56268, Note_on_c, 5, 55, 0
7, 56280, Note_on_c, 5, 54, 100
7, 56334, Note_on_c, 5, 54, 0
7, 56340, Note_on_c, 5, 52, 100
7, 56394, Note_on_c, 5, 52, 0
7, 56400, Note_on_c, 5, 50, 100
7, 56508, Note_on_c, 5, 50, 0
7, 56520, Note_on_c, 5, 52, 100
7, 56574, Note_on_c, 5, 52, 0
7, 56580, Note_on_c, 5, 54, 100
7, 56634, Note_on_c, 5, 54, 0
7, 56640, Note_on_c, 5, 55, 100
7, 56748, Note_on_c, 5, 55, 0
7, 56760, Note_on_c, 5, 54, 100
7, 56814, Note_on_c, 5, 54, 0
7, 56820, Note_on_c, 5, 52, 100
7, 56874, Note_on_c, 5, 52, 0
7, 56880, Note_on_c, 5, 50, 100
7, 56934, Note_on_c, 5, 50, 0
7, 56940, Note_on_c, 5, 48, 100
7, 56994, Note_on_c, 5, 48, 0
7, 57000, Note_on_c, 5, 47, 100
7, 57054, Note_on_c, 5, 47, 0
7, 57060, Note_on_c, 5, 45, 100
7, 57114, Note_on_c, 5, 45, 0
7, 57120, Note_on_c, 5, 47, 100
7, 57228, Note_on_c, 5, 47, 0
7, 58200, Note_on_c, 5, 55, 100
7, 58254, Note_on_c, 5, 55, 0
7, 58260, Note_on_c, 5, 43, 100
7, 58314, Note_on_c, 5, 43, 0
7, 58320, Note_on_c, 5, 57, 100
7, 58374, Note_on_c, 5, 57, 0
7, 58380, Note_on_c, 5, 45, 100
7, 58434, Note_on_c, 5, 45, 0
7, 58440, Note_on_c, 5, 59, 100
7, 58494, Note_on_c, 5, 59, 0
7, 58500, Note_on_c, 5, 47, 100
7, 58554, Note_on_c, 5, 47, 0
7, 58560, Note_on_c, 5, 60, 100
7, 58668, Note_on_c, 5, 60, 0
7, 58680, Note_on_c, 5, 55, 100
7, 58788, Note_on_c, 5, 55, 0
7, 58800, Note_on_c, 5, 60, 100
7, 58908, Note_on_c, 5, 60, 0
7, 58920, Note_on_c, 5, 55, 100
7, 59028, Note_on_c, 5, 55, 0
7, 59040, Note_on_c, 5, 60, 100
7, 59148, Note_on_c, 5, 60, 0
7, 59160, Note_on_c, 5, 59, 100
7, 59214, Note_on_c, 5, 59, 0
7, 59220, Note_on_c, 5, 57, 100
7, 59274, Note_on_c, 5, 57, 0
7, 59280, Note_on_c, 5, 55, 100
7, 59388, Note_on_c, 5, 55, 0
7, 59400, Note_on_c, 5, 57, 100
7, 59454, Note_on_c, 5, 57, 0
7, 59460, Note_on_c, 5, 59, 100
7, 59514, Note_on_c, 5, 59, 0
7, 59520, Note_on_c, 5, 60, 100
7, 59574, Note_on_c, 5, 60, 0
7, 59580, Note_on_c, 5, 48, 100
7, 59634, Note_on_c, 5, 48, 0
7, 59640, Note_on_c, 5, 47, 100
7, 59694, Note_on_c, 5, 47, 0
7, 59700, Note_on_c, 5, 45, 100
7, 59754, Note_on_c, 5, 45, 0
7, 59760, Note_on_c, 5, 43, 100
7, 59814, Note_on_c, 5, 43, 0
7, 59820, Note_on_c, 5, 41, 100
7, 59874, Note_on_c, 5, 41, 0
7, 59880, Note_on_c, 5, 40, 100
7, 59934, Note_on_c, 5, 40, 0
7, 59940, Note_on_c, 5, 38, 100
7, 59994, Note_on_c, 5, 38, 0
7, 60000, Note_on_c, 5, 40, 100
7, 60108, Note_on_c, 5, 40, 0
7, 61080, Note_on_c, 5, 60, 100
7, 61134, Note_on_c, 5, 60, 0
7, 61140, Note_on_c, 5, 48, 100
7, 61194, Note_on_c, 5, 48, 0
7, 61200, Note_on_c, 5, 62, 100
7, 61254, Note_on_c, 5, 62, 0
7, 61260, Note_on_c, 5, 50, 100
7, 61314, Note_on_c, 5, 50, 0
7, 61320, Note_on_c, 5, 64, 100
7, 61374, Note_on_c, 5, 64, 0
7, 61380, Note_on_c, 5, 52, 100
7, 61434, Note_on_c, 5, 52, 0
7, 61440, Note_on_c, 5, 53, 100
7, 61494, Note_on_c, 5, 53, 0
7, 61500, Note_on_c, 5, 57, 100
7, 61554, Note_on_c, 5, 57, 0
7, 61560, Note_on_c, 5, 60, 100
7, 61614, Note_on_c, 5, 60, 0
7, 61620, Note_on_c, 5, 65, 100
7, 61674, Note_on_c, 5, 65, 0
7, 62160, Note_on_c, 5, 48, 100
7, 62268, Note_on_c, 5, 48, 0
7, 62400, Note_on_c, 5, 50, 100
7, 62454, Note_on_c, 5, 50, 0
7, 62460, Note_on_c, 5, 53, 100
7, 62514, Note_on_c, 5, 53, 0
7, 62520, Note_on_c, 5, 57, 100
7, 62574, Note_on_c, 5, 57, 0
7, 62580, Note_on_c, 5, 62, 100
7, 62634, Note_on_c, 5, 62, 0
7, 63120, Note_on_c, 5, 45, 100
7, 63228, Note_on_c, 5, 45, 0
7, 63360, Note_on_c, 5, 46, 100
7, 63414, Note_on_c, 5, 46, 0
7, 63420, Note_on_c, 5, 50, 100
7, 63474, Note_on_c, 5, 50, 0
7, 63480, Note_on_c, 5, 53, 100
7, 63534, Note_on_c, 5, 53, 0
7, 63540, Note_on_c, 5, 58, 100
7, 63594, Note_on_c, 5, 58, 0
7, 63600, Note_on_c, 5, 62, 100
7, 63654, Note_on_c, 5, 62, 0
7, 63660, Note_on_c, 5, 58, 100
7, 63714, Note_on_c, 5, 58, 0
7, 63720, Note_on_c, 5, 62, 100
7, 63774, Note_on_c, 5, 62, 0
7, 63780, Note_on_c, 5, 65, 100
7, 63834, Note_on_c, 5, 65, 0
7, 63840, Note_on_c, 5, 53, 100
7, 63894, Note_on_c, 5, 53, 0
7, 63900, Note_on_c, 5, 57, 100
7, 63954, Note_on_c, 5, 57, 0
7, 63960, Note_on_c, 5, 60, 100
7, 64014, Note_on_c, 5, 60, 0
7, 64020, Note_on_c, 5, 65, 100
7, 64074, Note_on_c, 5, 65, 0
7, 64080, Note_on_c, 5, 41, 100
7, 64188, Note_on_c, 5, 41, 0
7, 64320, Note_on_c, 5, 43, 100
7, 64374, Note_on_c, 5, 43, 0
7, 64380, Note_on_c, 5, 46, 100
7, 64434, Note_on_c, 5, 46, 0
7, 64440, Note_on_c, 5, 50, 100
7, 64494, Note_on_c, 5, 50, 0
7, 64500, Note_on_c, 5, 55, 100
7, 64554, Note_on_c, 5, 55, 0
7, 64560, Note_on_c, 5, 52, 100
7, 64614, Note_on_c, 5, 52, 0
7, 64620, Note_on_c, 5, 55, 100
7, 64674, Note_on_c, 5, 55, 0
7, 64680, Note_on_c, 5, 60, 100
7, 64734, Note_on_c, 5, 60, 0
7, 64740, Note_on_c, 5, 64, 100
7, 64794, Note_on_c, 5, 64, 0
7, 64800, Note_on_c, 5, 65, 100
7, 64908, Note_on_c, 5, 65, 0
7, 64920, Note_on_c, 5, 53, 100
7, 65028, Note_on_c, 5, 53, 0
7, 66360, Note_on_c, 5, 65, 100
7, 66468, Note_on_c, 5, 65, 0
7, 66480, Note_on_c, 5, 60, 100
7, 66588, Note_on_c, 5, 60, 0
7, 66600, Note_on_c, 5, 58, 100
7, 66708, Note_on_c, 5, 58, 0
7, 66720, Note_on_c, 5, 57, 100
7, 66828, Note_on_c, 5, 57, 0
7, 66840, Note_on_c, 5, 53, 100
7, 66894, Note_on_c, 5, 53, 0
7, 66900, Note_on_c, 5, 55, 100
7, 66954, Note_on_c, 5, 55, 0
7, 66960, Note_on_c, 5, 57, 100
7, 67068, Note_on_c, 5, 57, 0
7, 67080, Note_on_c, 5, 60, 100
7, 67188, Note_on_c, 5, 60, 0
7, 67200, Note_on_c, 5, 53, 100
7, 67254, Note_on_c, 5, 53, 0
7, 67260, Note_on_c, 5, 55, 100
7, 67314, Note_on_c, 5, 55, 0
7, 67320, Note_on_c, 5, 57, 100
7, 67374, Note_on_c, 5, 57, 0
7, 67380, Note_on_c, 5, 58, 100
7, 67434, Note_on_c, 5, 58, 0
7, 67440, Note_on_c, 5, 55, 100
7, 67494, Note_on_c, 5, 55, 0
7, 67500, Note_on_c, 5, 57, 100
7, 67554, Note_on_c, 5, 57, 0
7, 67560, Note_on_c, 5, 58, 100
7, 67614, Note_on_c, 5, 58, 0
7, 67620, Note_on_c, 5, 55, 100
7, 67674, Note_on_c, 5, 55, 0
7, 67680, Note_on_c, 5, 57, 100
7, 67734, Note_on_c, 5, 57, 0
7, 67740, Note_on_c, 5, 62, 100
7, 67794, Note_on_c, 5, 62, 0
7, 67800, Note_on_c, 5, 60, 100
7, 67854, Note_on_c, 5, 60, 0
7, 67860, Note_on_c, 5, 58, 100
7, 67914, Note_on_c, 5, 58, 0
7, 67920, Note_on_c, 5, 60, 100
7, 67920, Note_on_c, 5, 57, 100
7, 67974, Note_on_c, 5, 57, 0
7, 67974, Note_on_c, 5, 60, 0
7, 67980, Note_on_c, 5, 58, 100
7, 67980, Note_on_c, 5, 55, 100
7, 68034, Note_on_c, 5, 55, 0
7, 68034, Note_on_c, 5, 58, 0
7, 68040, Note_on_c, 5, 57, 100
7, 68040, Note_on_c, 5, 53, 100
7, 68094, Note_on_c, 5, 53, 0
7, 68094, Note_on_c, 5, 57, 0
7, 68100, Note_on_c, 5, 55, 100
7, 68100, Note_on_c, 5, 52, 100
7, 68154, Note_on_c, 5, 52, 0
7, 68154, Note_on_c, 5, 55, 0
7, 68160, Note_on_c, 5, 53, 100
7, 68160, Note_on_c, 5, 50, 100
7, 68268, Note_on_c, 5, 53, 0
7, 68376, Note_on_c, 5, 50, 0
7, 68520, Note_on_c, 5, 58, 100
7, 68628, Note_on_c, 5, 58, 0
7, 68640, Note_on_c, 5, 58, 100
7, 68748, Note_on_c, 5, 58, 0
7, 68760, Note_on_c, 5, 52, 100
7, 68868, Note_on_c, 5, 52, 0
7, 68940, Note_on_c, 5, 52, 100
7, 68994, Note_on_c, 5, 52, 0
7, 69000, Note_on_c, 5, 50, 100
7, 69054, Note_on_c, 5, 50, 0
7, 69060, Note_on_c, 5, 52, 100
7, 69114, Note_on_c, 5, 52, 0
7, 69120, Note_on_c, 5, 45, 100
7, 69228, Note_on_c, 5, 45, 0
7, 69240, Note_on_c, 5, 64, 100
7, 69348, Note_on_c, 5, 64, 0
7, 69360, Note_on_c, 5, 64, 100
7, 69468, Note_on_c, 5, 64, 0
7, 69480, Note_on_c, 5, 57, 100
7, 69588, Note_on_c, 5, 57, 0
7, 69720, Note_on_c, 5, 57, 100
7, 69828, Note_on_c, 5, 57, 0
7, 69840, Note_on_c, 5, 57, 100
7, 69948, Note_on_c, 5, 57, 0
7, 69960, Note_on_c, 5, 50, 100
7, 70068, Note_on_c, 5, 50, 0
7, 70080, Note_on_c, 5, 62, 100
7, 70134, Note_on_c, 5, 62, 0
7, 70140, Note_on_c, 5, 64, 100
7, 70194, Note_on_c, 5, 64, 0
7, 70200, Note_on_c, 5, 65, 100
7, 70254, Note_on_c, 5, 65, 0
7, 70260, Note_on_c, 5, 62, 100
7, 70314, Note_on_c, 5, 62, 0
7, 70320, Note_on_c, 5, 58, 100
7, 70374, Note_on_c, 5, 58, 0
7, 70380, Note_on_c, 5, 60, 100
7, 70434, Note_on_c, 5, 60, 0
7, 70440, Note_on_c, 5, 62, 100
7, 70494, Note_on_c, 5, 62, 0
7, 70500, Note_on_c, 5, 58, 100
7, 70554, Note_on_c, 5, 58, 0
7, 70560, Note_on_c, 5, 55, 100
7, 70614, Note_on_c, 5, 55, 0
7, 70620, Note_on_c, 5, 57, 100
7, 70674, Note_on_c, 5, 57, 0
7, 70680, Note_on_c, 5, 58, 100
7, 70734, Note_on_c, 5, 58, 0
7, 70740, Note_on_c, 5, 55, 100
7, 70794, Note_on_c, 5, 55, 0
7, 70800, Note_on_c, 5, 52, 100
7, 70908, Note_on_c, 5, 52, 0
7, 70920, Note_on_c, 5, 48, 100
7, 71028, Note_on_c, 5, 48, 0
7, 71160, Note_on_c, 5, 60, 100
7, 71268, Note_on_c, 5, 60, 0
7, 71280, Note_on_c, 5, 60, 100
7, 71388, Note_on_c, 5, 60, 0
7, 71400, Note_on_c, 5, 48, 100
7, 71508, Note_on_c, 5, 48, 0
7, 71640, Note_on_c, 5, 60, 100
7, 71748, Note_on_c, 5, 60, 0
7, 71760, Note_on_c, 5, 60, 100
7, 71868, Note_on_c, 5, 60, 0
7, 71880, Note_on_c, 5, 48, 100
7, 71988, Note_on_c, 5, 48, 0
7, 72000, Note_on_c, 5, 53, 100
7, 72108, Note_on_c, 5, 53, 0
7, 72120, Note_on_c, 5, 41, 100
7, 72228, Note_on_c, 5, 41, 0
7, 72240, Note_on_c, 5, 53, 100
7, 72294, Note_on_c, 5, 53, 0
7, 72300, Note_on_c, 5, 51, 100
7, 72354, Note_on_c, 5, 51, 0
7, 72360, Note_on_c, 5, 50, 100
7, 72414, Note_on_c, 5, 50, 0
7, 72420, Note_on_c, 5, 48, 100
7, 72474, Note_on_c, 5, 48, 0
7, 72480, Note_on_c, 5, 46, 100
7, 72588, Note_on_c, 5, 46, 0
7, 72780, Note_on_c, 5, 69, 100
7, 72834, Note_on_c, 5, 69, 0
7, 72840, Note_on_c, 5, 67, 100
7, 72894, Note_on_c, 5, 67, 0
7, 72900, Note_on_c, 5, 65, 100
7, 72954, Note_on_c, 5, 65, 0
7, 72960, Note_on_c, 5, 64, 100
7, 73014, Note_on_c, 5, 64, 0
7, 73020, Note_on_c, 5, 65, 100
7, 73074, Note_on_c, 5, 65, 0
7, 73080, Note_on_c, 5, 67, 100
7, 73134, Note_on_c, 5, 67, 0
7, 73140, Note_on_c, 5, 64, 100
7, 73194, Note_on_c, 5, 64, 0
7, 73200, Note_on_c, 5, 60, 100
7, 73254, Note_on_c, 5, 60, 0
7, 73260, Note_on_c, 5, 62, 100
7, 73314, Note_on_c, 5, 62, 0
7, 73320, Note_on_c, 5, 64, 100
7, 73374, Note_on_c, 5, 64, 0
7, 73380, Note_on_c, 5, 60, 100
7, 73434, Note_on_c, 5, 60, 0
7, 73440, Note_on_c, 5, 65, 100
7, 73548, Note_on_c, 5, 65, 0
7, 73560, Note_on_c, 5, 58, 100
7, 73668, Note_on_c, 5, 58, 0
7, 73680, Note_on_c, 5, 60, 100
7, 73788, Note_on_c, 5, 60, 0
7, 73800, Note_on_c, 5, 48, 100
7, 73908, Note_on_c, 5, 48, 0
7, 73920, Note_on_c, 5, 53, 100
7, 73920, Note_on_c, 5, 60, 100
7, 74028, Note_on_c, 5, 60, 0
7, 74028, Note_on_c, 5, 53, 0
7, 74040, Note_on_c, 5, 48, 100
7, 74040, Note_on_c, 5, 60, 100
7, 74148, Note_on_c, 5, 60, 0
7, 74148, Note_on_c, 5, 48, 0
7, 74160, Note_on_c, 5, 53, 100
7, 74160, Note_on_c, 5, 60, 100
7, 74268, Note_on_c, 5, 60, 0
7, 74268, Note_on_c, 5, 53, 0
7, 74280, Note_on_c, 5, 48, 100
7, 74280, Note_on_c, 5, 60, 100
7, 74388, Note_on_c, 5, 60, 0
7, 74388, Note_on_c, 5, 48, 0
7, 74400, Note_on_c, 5, 53, 100
7, 74400, Note_on_c, 5, 60, 100
7, 74616, Note_on_c, 5, 60, 0
7, 74616, Note_on_c, 5, 53, 0
7, 74760, Note_on_c, 5, 45, 100
7, 74868, Note_on_c, 5, 45, 0
7, 74880, Note_on_c, 5, 50, 100
7, 74880, Note_on_c, 5, 57, 100
7, 74988, Note_on_c, 5, 57, 0
7, 74988, Note_on_c, 5, 50, 0
7, 75000, Note_on_c, 5, 45, 100
7, 75000, Note_on_c, 5, 57, 100
7, 75108, Note_on_c, 5, 57, 0
7, 75108, Note_on_c, 5, 45, 0
7, 75120, Note_on_c, 5, 50, 100
7, 75120, Note_on_c, 5, 57, 100
7, 75228, Note_on_c, 5, 57, 0
7, 75228, Note_on_c, 5, 50, 0
7, 75240, Note_on_c, 5, 45, 100
7, 75240, Note_on_c, 5, 57, 100
7, 75348, Note_on_c, 5, 57, 0
7, 75348, Note_on_c, 5, 45, 0
7, 75360, Note_on_c, 5, 50, 100
7, 75360, Note_on_c, 5, 57, 100
7, 75576, Note_on_c, 5, 57, 0
7, 75576, Note_on_c, 5, 50, 0
7, 75660, Note_on_c, 5, 50, 100
7, 75714, Note_on_c, 5, 50, 0
7, 75720, Note_on_c, 5, 53, 100
7, 75774, Note_on_c, 5, 53, 0
7, 75780, Note_on_c, 5, 57, 100
7, 75834, Note_on_c, 5, 57, 0
7, 75840, Note_on_c, 5, 55, 100
7, 75894, Note_on_c, 5, 55, 0
7, 75900, Note_on_c, 5, 62, 100
7, 75954, Note_on_c, 5, 62, 0
7, 75960, Note_on_c, 5, 58, 100
7, 76014, Note_on_c, 5, 58, 0
7, 76020, Note_on_c, 5, 55, 100
7, 76074, Note_on_c, 5, 55, 0
7, 76080, Note_on_c, 5, 52, 100
7, 76134, Note_on_c, 5, 52, 0
7, 76140, Note_on_c, 5, 55, 100
7, 76194, Note_on_c, 5, 55, 0
7, 76200, Note_on_c, 5, 48, 100
7, 76254, Note_on_c, 5, 48, 0
7, 76260, Note_on_c, 5, 52, 100
7, 76314, Note_on_c, 5, 52, 0
7, 76320, Note_on_c, 5, 53, 100
7, 76374, Note_on_c, 5, 53, 0
7, 76380, Note_on_c, 5, 60, 100
7, 76434, Note_on_c, 5, 60, 0
7, 76440, Note_on_c, 5, 57, 100
7, 76494, Note_on_c, 5, 57, 0
7, 76500, Note_on_c, 5, 53, 100
7, 76554, Note_on_c, 5, 53, 0
7, 76560, Note_on_c, 5, 50, 100
7, 76614, Note_on_c, 5, 50, 0
7, 76620, Note_on_c, 5, 53, 100
7, 76674, Note_on_c, 5, 53, 0
7, 76680, Note_on_c, 5, 46, 100
7, 76734, Note_on_c, 5, 46, 0
7, 76740, Note_on_c, 5, 50, 100
7, 76794, Note_on_c, 5, 50, 0
7, 76800, Note_on_c, 5, 52, 100
7, 76854, Note_on_c, 5, 52, 0
7, 76860, Note_on_c, 5, 58, 100
7, 76914, Note_on_c, 5, 58, 0
7, 76920, Note_on_c, 5, 55, 100
7, 76974, Note_on_c, 5, 55, 0
7, 76980, Note_on_c, 5, 52, 100
7, 77034, Note_on_c, 5, 52, 0
7, 77040, Note_on_c, 5, 49, 100
7, 77094, Note_on_c, 5, 49, 0
7, 77100, Note_on_c, 5, 52, 100
7, 77154, Note_on_c, 5, 52, 0
7, 77160, Note_on_c, 5, 45, 100
7, 77214, Note_on_c, 5, 45, 0
7, 77220, Note_on_c, 5, 49, 100
7, 77274, Note_on_c, 5, 49, 0
7, 77280, Note_on_c, 5, 50, 100
7, 77334, Note_on_c, 5, 50, 0
7, 77340, Note_on_c, 5, 57, 100
7, 77394, Note_on_c, 5, 57, 0
7, 77400, Note_on_c, 5, 53, 100
7, 77454, Note_on_c, 5, 53, 0
7, 77460, Note_on_c, 5, 50, 100
7, 77514, Note_on_c, 5, 50, 0
7, 77520, Note_on_c, 5, 47, 100
7, 77574, Note_on_c, 5, 47, 0
7, 77580, Note_on_c, 5, 48, 100
7, 77634, Note_on_c, 5, 48, 0
7, 77640, Note_on_c, 5, 47, 100
7, 77694, Note_on_c, 5, 47, 0
7, 77700, Note_on_c, 5, 45, 100
7, 77754, Note_on_c, 5, 45, 0
7, 77760, Note_on_c, 5, 44, 100
7, 77814, Note_on_c, 5, 44, 0
7, 77820, Note_on_c, 5, 47, 100
7, 77874, Note_on_c, 5, 47, 0
7, 77880, Note_on_c, 5, 40, 100
7, 77934, Note_on_c, 5, 40, 0
7, 77940, Note_on_c, 5, 44, 100
7, 77994, Note_on_c, 5, 44, 0
7, 78000, Note_on_c, 5, 45, 100
7, 78054, Note_on_c, 5, 45, 0
7, 78060, Note_on_c, 5, 47, 100
7, 78114, Note_on_c, 5, 47, 0
7, 78120, Note_on_c, 5, 48, 100
7, 78174, Note_on_c, 5, 48, 0
7, 78180, Note_on_c, 5, 52, 100
7, 78234, Note_on_c, 5, 52, 0
7, 78240, Note_on_c, 5, 53, 100
7, 78294, Note_on_c, 5, 53, 0
7, 78300, Note_on_c, 5, 49, 100
7, 78354, Note_on_c, 5, 49, 0
7, 78360, Note_on_c, 5, 50, 100
7, 78414, Note_on_c, 5, 50, 0
7, 78420, Note_on_c, 5, 52, 100
7, 78474, Note_on_c, 5, 52, 0
7, 78480, Note_on_c, 5, 53, 100
7, 78534, Note_on_c, 5, 53, 0
7, 78540, Note_on_c, 5, 52, 100
7, 78594, Note_on_c, 5, 52, 0
7, 78600, Note_on_c, 5, 53, 100
7, 78654, Note_on_c, 5, 53, 0
7, 78660, Note_on_c, 5, 50, 100
7, 78714, Note_on_c, 5, 50, 0
7, 78720, Note_on_c, 5, 52, 100
7, 78774, Note_on_c, 5, 52, 0
7, 78780, Note_on_c, 5, 64, 100
7, 78834, Note_on_c, 5, 64, 0
7, 78840, Note_on_c, 5, 62, 100
7, 78894, Note_on_c, 5, 62, 0
7, 78900, Note_on_c, 5, 60, 100
7, 78954, Note_on_c, 5, 60, 0
7, 78960, Note_on_c, 5, 59, 100
7, 79068, Note_on_c, 5, 59, 0
7, 79080, Note_on_c, 5, 57, 100
7, 79188, Note_on_c, 5, 57, 0
7, 79200, Note_on_c, 5, 56, 100
7, 79254, Note_on_c, 5, 56, 0
7, 79260, Note_on_c, 5, 57, 100
7, 79314, Note_on_c, 5, 57, 0
7, 79320, Note_on_c, 5, 59, 100
7, 79374, Note_on_c, 5, 59, 0
7, 79380, Note_on_c, 5, 56, 100
7, 79434, Note_on_c, 5, 56, 0
7, 79440, Note_on_c, 5, 52, 100
7, 79494, Note_on_c, 5, 52, 0
7, 79500, Note_on_c, 5, 56, 100
7, 79554, Note_on_c, 5, 56, 0
7, 79560, Note_on_c, 5, 59, 100
7, 79614, Note_on_c, 5, 59, 0
7, 79620, Note_on_c, 5, 62, 100
7, 79674, Note_on_c, 5, 62, 0
7, 79680, Note_on_c, 5, 57, 100
7, 79734, Note_on_c, 5, 57, 0
7, 79740, Note_on_c, 5, 59, 100
7, 79794, Note_on_c, 5, 59, 0
7, 79800, Note_on_c, 5, 60, 100
7, 79854, Note_on_c, 5, 60, 0
7, 79860, Note_on_c, 5, 57, 100
7, 79914, Note_on_c, 5, 57, 0
7, 79920, Note_on_c, 5, 52, 100
7, 79974, Note_on_c, 5, 52, 0
7, 79980, Note_on_c, 5, 57, 100
7, 80034, Note_on_c, 5, 57, 0
7, 80040, Note_on_c, 5, 60, 100
7, 80094, Note_on_c, 5, 60, 0
7, 80100, Note_on_c, 5, 64, 100
7, 80154, Note_on_c, 5, 64, 0
7, 80160, Note_on_c, 5, 59, 100
7, 80214, Note_on_c, 5, 59, 0
7, 80220, Note_on_c, 5, 60, 100
7, 80274, Note_on_c, 5, 60, 0
7, 80280, Note_on_c, 5, 62, 100
7, 80334, Note_on_c, 5, 62, 0
7, 80340, Note_on_c, 5, 59, 100
7, 80394, Note_on_c, 5, 59, 0
7, 80400, Note_on_c, 5, 56, 100
7, 80508, Note_on_c, 5, 56, 0
7, 80520, Note_on_c, 5, 52, 100
7, 80628, Note_on_c, 5, 52, 0
7, 80640, Note_on_c, 5, 45, 100
7, 80748, Note_on_c, 5, 45, 0
7, 81000, Note_on_c, 5, 57, 100
7, 81108, Note_on_c, 5, 57, 0
7, 81120, Note_on_c, 5, 57, 100
7, 81228, Note_on_c, 5, 57, 0
7, 81240, Note_on_c, 5, 50, 100
7, 81348, Note_on_c, 5, 50, 0
7, 81420, Note_on_c, 5, 50, 100
7, 81474, Note_on_c, 5, 50, 0
7, 81480, Note_on_c, 5, 48, 100
7, 81534, Note_on_c, 5, 48, 0
7, 81540, Note_on_c, 5, 50, 100
7, 81594, Note_on_c, 5, 50, 0
7, 81600, Note_on_c, 5, 43, 100
7, 81708, Note_on_c, 5, 43, 0
7, 81720, Note_on_c, 5, 62, 100
7, 81828, Note_on_c, 5, 62, 0
7, 81840, Note_on_c, 5, 62, 100
7, 81948, Note_on_c, 5, 62, 0
7, 81960, Note_on_c, 5, 55, 100
7, 82068, Note_on_c, 5, 55, 0
7, 82200, Note_on_c, 5, 55, 100
7, 82308, Note_on_c, 5, 55, 0
7, 82320, Note_on_c, 5, 55, 100
7, 82428, Note_on_c, 5, 55, 0
7, 82440, Note_on_c, 5, 48, 100
7, 82548, Note_on_c, 5, 48, 0
7, 82560, Note_on_c, 5, 60, 100
7, 82614, Note_on_c, 5, 60, 0
7, 82620, Note_on_c, 5, 62, 100
7, 82674, Note_on_c, 5, 62, 0
7, 82680, Note_on_c, 5, 64, 100
7, 82734, Note_on_c, 5, 64, 0
7, 82740, Note_on_c, 5, 60, 100
7, 82794, Note_on_c, 5, 60, 0
7, 82800, Note_on_c, 5, 57, 100
7, 82854, Note_on_c, 5, 57, 0
7, 82860, Note_on_c, 5, 59, 100
7, 82914, Note_on_c, 5, 59, 0
7, 82920, Note_on_c, 5, 60, 100
7, 82974, Note_on_c, 5, 60, 0
7, 82980, Note_on_c, 5, 57, 100
7, 83034, Note_on_c, 5, 57, 0
7, 83040, Note_on_c, 5, 54, 100
7, 83094, Note_on_c, 5, 54, 0
7, 83100, Note_on_c, 5, 55, 100
7, 83154, Note_on_c, 5, 55, 0
7, 83160, Note_on_c, 5, 57, 100
7, 83214, Note_on_c, 5, 57, 0
7, 83220, Note_on_c, 5, 54, 100
7, 83274, Note_on_c, 5, 54, 0
7, 83280, Note_on_c, 5, 51, 100
7, 83388, Note_on_c, 5, 51, 0
7, 83400, Note_on_c, 5, 47, 100
7, 83508, Note_on_c, 5, 47, 0
7, 83640, Note_on_c, 5, 59, 100
7, 83748, Note_on_c, 5, 59, 0
7, 83760, Note_on_c, 5, 59, 100
7, 83868, Note_on_c, 5, 59, 0
7, 83880, Note_on_c, 5, 47, 100
7, 83988, Note_on_c, 5, 47, 0
7, 84120, Note_on_c, 5, 59, 100
7, 84228, Note_on_c, 5, 59, 0
7, 84240, Note_on_c, 5, 59, 100
7, 84294, Note_on_c, 5, 59, 0
7, 84300, Note_on_c, 5, 60, 100
7, 84354, Note_on_c, 5, 60, 0
7, 84360, Note_on_c, 5, 59, 100
7, 84414, Note_on_c, 5, 59, 0
7, 84420, Note_on_c, 5, 57, 100
7, 84474, Note_on_c, 5, 57, 0
7, 84480, Note_on_c, 5, 56, 100
7, 84534, Note_on_c, 5, 56, 0
7, 84540, Note_on_c, 5, 57, 100
7, 84594, Note_on_c, 5, 57, 0
7, 84600, Note_on_c, 5, 59, 100
7, 84654, Note_on_c, 5, 59, 0
7, 84660, Note_on_c, 5, 56, 100
7, 84714, Note_on_c, 5, 56, 0
7, 84720, Note_on_c, 5, 52, 100
7, 84774, Note_on_c, 5, 52, 0
7, 84780, Note_on_c, 5, 54, 100
7, 84834, Note_on_c, 5, 54, 0
7, 84840, Note_on_c, 5, 56, 100
7, 84894, Note_on_c, 5, 56, 0
7, 84900, Note_on_c, 5, 52, 100
7, 84954, Note_on_c, 5, 52, 0
7, 84960, Note_on_c, 5, 48, 100
7, 85014, Note_on_c, 5, 48, 0
7, 85020, Note_on_c, 5, 50, 100
7, 85074, Note_on_c, 5, 50, 0
7, 85080, Note_on_c, 5, 52, 100
7, 85134, Note_on_c, 5, 52, 0
7, 85140, Note_on_c, 5, 48, 100
7, 85194, Note_on_c, 5, 48, 0
7, 85200, Note_on_c, 5, 45, 100
7, 85254, Note_on_c, 5, 45, 0
7, 85260, Note_on_c, 5, 47, 100
7, 85314, Note_on_c, 5, 47, 0
7, 85320, Note_on_c, 5, 48, 100
7, 85374, Note_on_c, 5, 48, 0
7, 85380, Note_on_c, 5, 45, 100
7, 85434, Note_on_c, 5, 45, 0
7, 85440, Note_on_c, 5, 39, 100
7, 85656, Note_on_c, 5, 39, 0
7, 85800, Note_on_c, 5, 57, 100
7, 85908, Note_on_c, 5, 57, 0
7, 85920, Note_on_c, 5, 55, 100
7, 85920, Note_on_c, 5, 59, 100
7, 86028, Note_on_c, 5, 59, 0
7, 86028, Note_on_c, 5, 55, 0
7, 86040, Note_on_c, 5, 57, 100
7, 86148, Note_on_c, 5, 57, 0
7, 86160, Note_on_c, 5, 59, 100
7, 86268, Note_on_c, 5, 59, 0
7, 86280, Note_on_c, 5, 47, 100
7, 86388, Note_on_c, 5, 47, 0
7, 86400, Note_on_c, 5, 40, 100
7, 86616, Note_on_c, 5, 40, 0
7, 88440, Note_on_c, 5, 62, 100
7, 88494, Note_on_c, 5, 62, 0
7, 88500, Note_on_c, 5, 64, 100
7, 88554, Note_on_c, 5, 64, 0
7, 88560, Note_on_c, 5, 66, 100
7, 88614, Note_on_c, 5, 66, 0
7, 88620, Note_on_c, 5, 67, 100
7, 88674, Note_on_c, 5, 67, 0
7, 88680, Note_on_c, 5, 69, 100
7, 88734, Note_on_c, 5, 69, 0
7, 88740, Note_on_c, 5, 67, 100
7, 88794, Note_on_c, 5, 67, 0
7, 88800, Note_on_c, 5, 66, 100
7, 88854, Note_on_c, 5, 66, 0
7, 88860, Note_on_c, 5, 64, 100
7, 88914, Note_on_c, 5, 64, 0
7, 88920, Note_on_c, 5, 62, 100
7, 88974, Note_on_c, 5, 62, 0
7, 88980, Note_on_c, 5, 64, 100
7, 89034, Note_on_c, 5, 64, 0
7, 89040, Note_on_c, 5, 66, 100
7, 89094, Note_on_c, 5, 66, 0
7, 89100, Note_on_c, 5, 67, 100
7, 89154, Note_on_c, 5, 67, 0
7, 89160, Note_on_c, 5, 69, 100
7, 89214, Note_on_c, 5, 69, 0
7, 89220, Note_on_c, 5, 67, 100
7, 89274, Note_on_c, 5, 67, 0
7, 89280, Note_on_c, 5, 65, 100
7, 90084, Note_on_c, 5, 65, 0
7, 90120, Note_on_c, 5, 67, 100
7, 90228, Note_on_c, 5, 67, 0
7, 90240, Note_on_c, 5, 60, 100
7, 90348, Note_on_c, 5, 60, 0
7, 90360, Note_on_c, 5, 55, 100
7, 90414, Note_on_c, 5, 55, 0
7, 90420, Note_on_c, 5, 53, 100
7, 90474, Note_on_c, 5, 53, 0
7, 90480, Note_on_c, 5, 52, 100
7, 90588, Note_on_c, 5, 52, 0
7, 90600, Note_on_c, 5, 48, 100
7, 90708, Note_on_c, 5, 48, 0
7, 90720, Note_on_c, 5, 52, 100
7, 90828, Note_on_c, 5, 52, 0
7, 90840, Note_on_c, 5, 55, 100
7, 90948, Note_on_c, 5, 55, 0
7, 90960, Note_on_c, 5, 60, 100
7, 91068, Note_on_c, 5, 60, 0
7, 91080, Note_on_c, 5, 55, 100
7, 91188, Note_on_c, 5, 55, 0
7, 91200, Note_on_c, 5, 53, 100
7, 91308, Note_on_c, 5, 53, 0
7, 91320, Note_on_c, 5, 48, 100
7, 91428, Note_on_c, 5, 48, 0
7, 91440, Note_on_c, 5, 53, 100
7, 91548, Note_on_c, 5, 53, 0
7, 91560, Note_on_c, 5, 48, 100
7, 91668, Note_on_c, 5, 48, 0
7, 91680, Note_on_c, 5, 53, 100
7, 91788, Note_on_c, 5, 53, 0
7, 91800, Note_on_c, 5, 51, 100
7, 91854, Note_on_c, 5, 51, 0
7, 91860, Note_on_c, 5, 50, 100
7, 91914, Note_on_c, 5, 50, 0
7, 91920, Note_on_c, 5, 48, 100
7, 91974, Note_on_c, 5, 48, 0
7, 91980, Note_on_c, 5, 50, 100
7, 92034, Note_on_c, 5, 50, 0
7, 92040, Note_on_c, 5, 51, 100
7, 92094, Note_on_c, 5, 51, 0
7, 92100, Note_on_c, 5, 48, 100
7, 92154, Note_on_c, 5, 48, 0
7, 92160, Note_on_c, 5, 43, 100
7, 92268, Note_on_c, 5, 43, 0
7, 92280, Note_on_c, 5, 55, 100
7, 92334, Note_on_c, 5, 55, 0
7, 92340, Note_on_c, 5, 57, 100
7, 92394, Note_on_c, 5, 57, 0
7, 92400, Note_on_c, 5, 59, 100
7, 92454, Note_on_c, 5, 59, 0
7, 92460, Note_on_c, 5, 60, 100
7, 92514, Note_on_c, 5, 60, 0
7, 92520, Note_on_c, 5, 62, 100
7, 92574, Note_on_c, 5, 62, 0
7, 92580, Note_on_c, 5, 60, 100
7, 92634, Note_on_c, 5, 60, 0
7, 92640, Note_on_c, 5, 59, 100
7, 92694, Note_on_c, 5, 59, 0
7, 92700, Note_on_c, 5, 57, 100
7, 92754, Note_on_c, 5, 57, 0
7, 92760, Note_on_c, 5, 55, 100
7, 92814, Note_on_c, 5, 55, 0
7, 92820, Note_on_c, 5, 57, 100
7, 92874, Note_on_c, 5, 57, 0
7, 92880, Note_on_c, 5, 59, 100
7, 92934, Note_on_c, 5, 59, 0
7, 92940, Note_on_c, 5, 62, 100
7, 92994, Note_on_c, 5, 62, 0
7, 93000, Note_on_c, 5, 59, 100
7, 93054, Note_on_c, 5, 59, 0
7, 93060, Note_on_c, 5, 55, 100
7, 93114, Note_on_c, 5, 55, 0
7, 93120, Note_on_c, 5, 60, 100
7, 93228, Note_on_c, 5, 60, 0
7, 93240, Note_on_c, 5, 55, 100
7, 93348, Note_on_c, 5, 55, 0
7, 93360, Note_on_c, 5, 60, 100
7, 93468, Note_on_c, 5, 60, 0
7, 93480, Note_on_c, 5, 55, 100
7, 93588, Note_on_c, 5, 55, 0
7, 93600, Note_on_c, 5, 60, 100
7, 93708, Note_on_c, 5, 60, 0
7, 93720, Note_on_c, 5, 59, 100
7, 93774, Note_on_c, 5, 59, 0
7, 93780, Note_on_c, 5, 57, 100
7, 93834, Note_on_c, 5, 57, 0
7, 93840, Note_on_c, 5, 55, 100
7, 93948, Note_on_c, 5, 55, 0
7, 93960, Note_on_c, 5, 57, 100
7, 94014, Note_on_c, 5, 57, 0
7, 94020, Note_on_c, 5, 59, 100
7, 94074, Note_on_c, 5, 59, 0
7, 94080, Note_on_c, 5, 60, 100
7, 94188, Note_on_c, 5, 60, 0
7, 94200, Note_on_c, 5, 59, 100
7, 94254, Note_on_c, 5, 59, 0
7, 94260, Note_on_c, 5, 57, 100
7, 94314, Note_on_c, 5, 57, 0
7, 94320, Note_on_c, 5, 55, 100
7, 94428, Note_on_c, 5, 55, 0
7, 94440, Note_on_c, 5, 53, 100
7, 94548, Note_on_c, 5, 53, 0
7, 94560, Note_on_c, 5, 52, 100
7, 94668, Note_on_c, 5, 52, 0
7, 94800, Note_on_c, 5, 55, 100
7, 94854, Note_on_c, 5, 55, 0
7, 94860, Note_on_c, 5, 52, 100
7, 94914, Note_on_c, 5, 52, 0
7, 94920, Note_on_c, 5, 48, 100
7, 94974, Note_on_c, 5, 48, 0
7, 94980, Note_on_c, 5, 58, 100
7, 95034, Note_on_c, 5, 58, 0
7, 95040, Note_on_c, 5, 57, 100
7, 95094, Note_on_c, 5, 57, 0
7, 95100, Note_on_c, 5, 53, 100
7, 95154, Note_on_c, 5, 53, 0
7, 95160, Note_on_c, 5, 48, 100
7, 95214, Note_on_c, 5, 48, 0
7, 95220, Note_on_c, 5, 45, 100
7, 95274, Note_on_c, 5, 45, 0
7, 95280, Note_on_c, 5, 41, 100
7, 95334, Note_on_c, 5, 41, 0
7, 95340, Note_on_c, 5, 45, 100
7, 95394, Note_on_c, 5, 45, 0
7, 95400, Note_on_c, 5, 48, 100
7, 95454, Note_on_c, 5, 48, 0
7, 95460, Note_on_c, 5, 53, 100
7, 95514, Note_on_c, 5, 53, 0
7, 95520, Note_on_c, 5, 42, 100
7, 95628, Note_on_c, 5, 42, 0
7, 95760, Note_on_c, 5, 57, 100
7, 95814, Note_on_c, 5, 57, 0
7, 95820, Note_on_c, 5, 54, 100
7, 95874, Note_on_c, 5, 54, 0
7, 95880, Note_on_c, 5, 50, 100
7, 95934, Note_on_c, 5, 50, 0
7, 95940, Note_on_c, 5, 60, 100
7, 95994, Note_on_c, 5, 60, 0
7, 96000, Note_on_c, 5, 59, 100
7, 96054, Note_on_c, 5, 59, 0
7, 96060, Note_on_c, 5, 55, 100
7, 96114, Note_on_c, 5, 55, 0
7, 96120, Note_on_c, 5, 50, 100
7, 96174, Note_on_c, 5, 50, 0
7, 96180, Note_on_c, 5, 47, 100
7, 96234, Note_on_c, 5, 47, 0
7, 96240, Note_on_c, 5, 43, 100
7, 96294, Note_on_c, 5, 43, 0
7, 96300, Note_on_c, 5, 47, 100
7, 96354, Note_on_c, 5, 47, 0
7, 96360, Note_on_c, 5, 50, 100
7, 96414, Note_on_c, 5, 50, 0
7, 96420, Note_on_c, 5, 55, 100
7, 96474, Note_on_c, 5, 55, 0
7, 96480, Note_on_c, 5, 44, 100
7, 96588, Note_on_c, 5, 44, 0
7, 96720, Note_on_c, 5, 59, 100
7, 96774, Note_on_c, 5, 59, 0
7, 96780, Note_on_c, 5, 56, 100
7, 96834, Note_on_c, 5, 56, 0
7, 96840, Note_on_c, 5, 52, 100
7, 96894, Note_on_c, 5, 52, 0
7, 96900, Note_on_c, 5, 62, 100
7, 96954, Note_on_c, 5, 62, 0
7, 96960, Note_on_c, 5, 60, 100
7, 97014, Note_on_c, 5, 60, 0
7, 97020, Note_on_c, 5, 57, 100
7, 97074, Note_on_c, 5, 57, 0
7, 97080, Note_on_c, 5, 52, 100
7, 97134, Note_on_c, 5, 52, 0
7, 97140, Note_on_c, 5, 48, 100
7, 97194, Note_on_c, 5, 48, 0
7, 97200, Note_on_c, 5, 45, 100
7, 97254, Note_on_c, 5, 45, 0
7, 97260, Note_on_c, 5, 48, 100
7, 97314, Note_on_c, 5, 48, 0
7, 97320, Note_on_c, 5, 52, 100
7, 97374, Note_on_c, 5, 52, 0
7, 97380, Note_on_c, 5, 57, 100
7, 97434, Note_on_c, 5, 57, 0
7, 97500, Note_on_c, 5, 50, 100
7, 97554, Note_on_c, 5, 50, 0
7, 97560, Note_on_c, 5, 53, 100
7, 97614, Note_on_c, 5, 53, 0
7, 97620, Note_on_c, 5, 57, 100
7, 97674, Note_on_c, 5, 57, 0
7, 97680, Note_on_c, 5, 62, 100
7, 97734, Note_on_c, 5, 62, 0
7, 97740, Note_on_c, 5, 60, 100
7, 97794, Note_on_c, 5, 60, 0
7, 97800, Note_on_c, 5, 59, 100
7, 97854, Note_on_c, 5, 59, 0
7, 97860, Note_on_c, 5, 57, 100
7, 97914, Note_on_c, 5, 57, 0
7, 97920, Note_on_c, 5, 59, 100
7, 98784, Note_on_c, 5, 59, 0
7, 98880, Note_on_c, 5, 57, 100
7, 99528, Note_on_c, 5, 57, 0
7, 99660, Note_on_c, 5, 56, 100
7, 99714, Note_on_c, 5, 56, 0
7, 99720, Note_on_c, 5, 57, 100
7, 99774, Note_on_c, 5, 57, 0
7, 99780, Note_on_c, 5, 59, 100
7, 99834, Note_on_c, 5, 59, 0
7, 99840, Note_on_c, 5, 52, 100
7, 99948, Note_on_c, 5, 52, 0
7, 99960, Note_on_c, 5, 64, 100
7, 100068, Note_on_c, 5, 64, 0
7, 100140, Note_on_c, 5, 56, 100
7, 100194, Note_on_c, 5, 56, 0
7, 100200, Note_on_c, 5, 57, 100
7, 100254, Note_on_c, 5, 57, 0
7, 100260, Note_on_c, 5, 59, 100
7, 100314, Note_on_c, 5, 59, 0
7, 100320, Note_on_c, 5, 57, 100
7, 100428, Note_on_c, 5, 57, 0
7, 100440, Note_on_c, 5, 49, 100
7, 100548, Note_on_c, 5, 49, 0
7, 100620, Note_on_c, 5, 61, 100
7, 100674, Note_on_c, 5, 61, 0
7, 100680, Note_on_c, 5, 62, 100
7, 100734, Note_on_c, 5, 62, 0
7, 100740, Note_on_c, 5, 64, 100
7, 100794, Note_on_c, 5, 64, 0
7, 100800, Note_on_c, 5, 57, 100
7, 100908, Note_on_c, 5, 57, 0
7, 100920, Note_on_c, 5, 62, 100
7, 101028, Note_on_c, 5, 62, 0
7, 101100, Note_on_c, 5, 54, 100
7, 101154, Note_on_c, 5, 54, 0
7, 101160, Note_on_c, 5, 55, 100
7, 101214, Note_on_c, 5, 55, 0
7, 101220, Note_on_c, 5, 57, 100
7, 101274, Note_on_c, 5, 57, 0
7, 101280, Note_on_c, 5, 55, 100
7, 101388, Note_on_c, 5, 55, 0
7, 101400, Note_on_c, 5, 47, 100
7, 101508, Note_on_c, 5, 47, 0
7, 101580, Note_on_c, 5, 59, 100
7, 101634, Note_on_c, 5, 59, 0
7, 101640, Note_on_c, 5, 60, 100
7, 101694, Note_on_c, 5, 60, 0
7, 101700, Note_on_c, 5, 62, 100
7, 101754, Note_on_c, 5, 62, 0
7, 101760, Note_on_c, 5, 55, 100
7, 101868, Note_on_c, 5, 55, 0
7, 101880, Note_on_c, 5, 60, 100
7, 101988, Note_on_c, 5, 60, 0
7, 102060, Note_on_c, 5, 52, 100
7, 102114, Note_on_c, 5, 52, 0
7, 102120, Note_on_c, 5, 54, 100
7, 102174, Note_on_c, 5, 54, 0
7, 102180, Note_on_c, 5, 55, 100
7, 102234, Note_on_c, 5, 55, 0
7, 102240, Note_on_c, 5, 57, 100
7, 102456, Note_on_c, 5, 57, 0
7, 103320, Note_on_c, 5, 50, 100
7, 103320, Note_on_c, 5, 54, 100
7, 103320, Note_on_c, 5, 57, 100
7, 103428, Note_on_c, 5, 57, 0
7, 103428, Note_on_c, 5, 54, 0
7, 103428, Note_on_c, 5, 50, 0
7, 103440, Note_on_c, 5, 50, 100
7, 103440, Note_on_c, 5, 54, 100
7, 103440, Note_on_c, 5, 57, 100
7, 103548, Note_on_c, 5, 57, 0
7, 103548, Note_on_c, 5, 54, 0
7, 103548, Note_on_c, 5, 50, 0
7, 103560, Note_on_c, 5, 50, 100
7, 103560, Note_on_c, 5, 54, 100
7, 103560, Note_on_c, 5, 57, 100
7, 103668, Note_on_c, 5, 57, 0
7, 103668, Note_on_c, 5, 54, 0
7, 103668, Note_on_c, 5, 50, 0
7, 103680, Note_on_c, 5, 43, 100
7, 103680, Note_on_c, 5, 50, 100
7, 103680, Note_on_c, 5, 55, 100
7, 103788, Note_on_c, 5, 55, 0
7, 103788, Note_on_c, 5, 50, 0
7, 103788, Note_on_c, 5, 43, 0
7, 104760, Note_on_c, 5, 55, 100
7, 104760, Note_on_c, 5, 59, 100
7, 104760, Note_on_c, 5, 62, 100
7, 104868, Note_on_c, 5, 62, 0
7, 104868, Note_on_c, 5, 59, 0
7, 104868, Note_on_c, 5, 55, 0
7, 104880, Note_on_c, 5, 55, 100
7, 104880, Note_on_c, 5, 59, 100
7, 104880, Note_on_c, 5, 62, 100
7, 104988, Note_on_c, 5, 62, 0
7, 104988, Note_on_c, 5, 59, 0
7, 104988, Note_on_c, 5, 55, 0
7, 105000, Note_on_c, 5, 55, 100
7, 105000, Note_on_c, 5, 59, 100
7, 105000, Note_on_c, 5, 62, 100
7, 105108, Note_on_c, 5, 62, 0
7, 105108, Note_on_c, 5, 59, 0
7, 105108, Note_on_c, 5, 55, 0
7, 105120, Note_on_c, 5, 48, 100
7, 105120, Note_on_c, 5, 55, 100
7, 105120, Note_on_c, 5, 60, 100
7, 105228, Note_on_c, 5, 60, 0
7, 105228, Note_on_c, 5, 55, 0
7, 105228, Note_on_c, 5, 48, 0
7, 105660, Note_on_c, 5, 46, 100
7, 105687, Note_on_c, 5, 46, 0
7, 105690, Note_on_c, 5, 45, 100
7, 105717, Note_on_c, 5, 45, 0
7, 105720, Note_on_c, 5, 43, 100
7, 105774, Note_on_c, 5, 43, 0
7, 105780, Note_on_c, 5, 45, 100
7, 105807, Note_on_c, 5, 45, 0
7, 105810, Note_on_c, 5, 46, 100
7, 105837, Note_on_c, 5, 46, 0
7, 105840, Note_on_c, 5, 40, 100
7, 105894, Note_on_c, 5, 40, 0
7, 105900, Note_on_c, 5, 43, 100
7, 105927, Note_on_c, 5, 43, 0
7, 105930, Note_on_c, 5, 41, 100
7, 105957, Note_on_c, 5, 41, 0
7, 105960, Note_on_c, 5, 40, 100
7, 106014, Note_on_c, 5, 40, 0
7, 106020, Note_on_c, 5, 41, 100
7, 106047, Note_on_c, 5, 41, 0
7, 106050, Note_on_c, 5, 43, 100
7, 106077, Note_on_c, 5, 43, 0
7, 106080, Note_on_c, 5, 36, 100
7, 106188, Note_on_c, 5, 36, 0
7, 106200, Note_on_c, 5, 48, 100
7, 106200, Note_on_c, 5, 52, 100
7, 106200, Note_on_c, 5, 55, 100
7, 106308, Note_on_c, 5, 55, 0
7, 106308, Note_on_c, 5, 52, 0
7, 106308, Note_on_c, 5, 48, 0
7, 106320, Note_on_c, 5, 48, 100
7, 106320, Note_on_c, 5, 52, 100
7, 106320, Note_on_c, 5, 55, 100
7, 106428, Note_on_c, 5, 55, 0
7, 106428, Note_on_c, 5, 52, 0
7, 106428, Note_on_c, 5, 48, 0
7, 106440, Note_on_c, 5, 48, 100
7, 106440, Note_on_c, 5, 52, 100
7, 106440, Note_on_c, 5, 55, 100
7, 106548, Note_on_c, 5, 55, 0
7, 106548, Note_on_c, 5, 52, 0
7, 106548, Note_on_c, 5, 48, 0
7, 106560, Note_on_c, 5, 53, 100
7, 106614, Note_on_c, 5, 53, 0
7, 106620, Note_on_c, 5, 52, 100
7, 106674, Note_on_c, 5, 52, 0
7, 106680, Note_on_c, 5, 53, 100
7, 106734, Note_on_c, 5, 53, 0
7, 106740, Note_on_c, 5, 55, 100
7, 106794, Note_on_c, 5, 55, 0
7, 106800, Note_on_c, 5, 57, 100
7, 106908, Note_on_c, 5, 57, 0
7, 106920, Note_on_c, 5, 62, 100
7, 107094, Note_on_c, 5, 62, 0
7, 107100, Note_on_c, 5, 53, 100
7, 107154, Note_on_c, 5, 53, 0
7, 107160, Note_on_c, 5, 55, 100
7, 107214, Note_on_c, 5, 55, 0
7, 107220, Note_on_c, 5, 57, 100
7, 107274, Note_on_c, 5, 57, 0
7, 107280, Note_on_c, 5, 59, 100
7, 107388, Note_on_c, 5, 59, 0
7, 107400, Note_on_c, 5, 64, 100
7, 107574, Note_on_c, 5, 64, 0
7, 107580, Note_on_c, 5, 55, 100
7, 107634, Note_on_c, 5, 55, 0
7, 107640, Note_on_c, 5, 57, 100
7, 107694, Note_on_c, 5, 57, 0
7, 107700, Note_on_c, 5, 59, 100
7, 107754, Note_on_c, 5, 59, 0
7, 107760, Note_on_c, 5, 60, 100
7, 107868, Note_on_c, 5, 60, 0
7, 107880, Note_on_c, 5, 65, 100
7, 108054, Note_on_c, 5, 65, 0
7, 108060, Note_on_c, 5, 57, 100
7, 108114, Note_on_c, 5, 57, 0
7, 108120, Note_on_c, 5, 59, 100
7, 108174, Note_on_c, 5, 59, 0
7, 108180, Note_on_c, 5, 60, 100
7, 108234, Note_on_c, 5, 60, 0
7, 108240, Note_on_c, 5, 59, 100
7, 108348, Note_on_c, 5, 59, 0
7, 108360, Note_on_c, 5, 67, 100
7, 108534, Note_on_c, 5, 67, 0
7, 108540, Note_on_c, 5, 48, 100
7, 108594, Note_on_c, 5, 48, 0
7, 108600, Note_on_c, 5, 52, 100
7, 108654, Note_on_c, 5, 52, 0
7, 108660, Note_on_c, 5, 55, 100
7, 108714, Note_on_c, 5, 55, 0
7, 108720, Note_on_c, 5, 60, 100
7, 108774, Note_on_c, 5, 60, 0
7, 108780, Note_on_c, 5, 58, 100
7, 108834, Note_on_c, 5, 58, 0
7, 108840, Note_on_c, 5, 57, 100
7, 108894, Note_on_c, 5, 57, 0
7, 108900, Note_on_c, 5, 55, 100
7, 108954, Note_on_c, 5, 55, 0
7, 108960, Note_on_c, 5, 57, 100
7, 109014, Note_on_c, 5, 57, 0
7, 109020, Note_on_c, 5, 55, 100
7, 109074, Note_on_c, 5, 55, 0
7, 109080, Note_on_c, 5, 53, 100
7, 109134, Note_on_c, 5, 53, 0
7, 109140, Note_on_c, 5, 52, 100
7, 109194, Note_on_c, 5, 52, 0
7, 109200, Note_on_c, 5, 53, 100
7, 109254, Note_on_c, 5, 53, 0
7, 109260, Note_on_c, 5, 52, 100
7, 109314, Note_on_c, 5, 52, 0
7, 109320, Note_on_c, 5, 50, 100
7, 109374, Note_on_c, 5, 50, 0
7, 109380, Note_on_c, 5, 48, 100
7, 109434, Note_on_c, 5, 48, 0
7, 109440, Note_on_c, 5, 55, 100
7, 109548, Note_on_c, 5, 55, 0
7, 109560, Note_on_c, 5, 43, 100
7, 109668, Note_on_c, 5, 43, 0
7, 109800, Note_on_c, 5, 43, 100
7, 109908, Note_on_c, 5, 43, 0
7, 109920, Note_on_c, 5, 43, 100
7, 110028, Note_on_c, 5, 43, 0
7, 110040, Note_on_c, 5, 55, 100
7, 110148, Note_on_c, 5, 55, 0
7, 110160, Note_on_c, 5, 43, 100
7, 110268, Note_on_c, 5, 43, 0
7, 110280, Note_on_c, 5, 55, 100
7, 110388, Note_on_c, 5, 55, 0
7, 110520, Note_on_c, 5, 43, 100
7, 110628, Note_on_c, 5, 43, 0
7, 110640, Note_on_c, 5, 43, 100
7, 110748, Note_on_c, 5, 43, 0
7, 110760, Note_on_c, 5, 55, 100
7, 110868, Note_on_c, 5, 55, 0
7, 111000, Note_on_c, 5, 43, 100
7, 111108, Note_on_c, 5, 43, 0
7, 111120, Note_on_c, 5, 43, 100
7, 111228, Note_on_c, 5, 43, 0
7, 111240, Note_on_c, 5, 55, 100
7, 111348, Note_on_c, 5, 55, 0
7, 111480, Note_on_c, 5, 43, 100
7, 111588, Note_on_c, 5, 43, 0
7, 111600, Note_on_c, 5, 43, 100
7, 111708, Note_on_c, 5, 43, 0
7, 111720, Note_on_c, 5, 55, 100
7, 111828, Note_on_c, 5, 55, 0
7, 111960, Note_on_c, 5, 43, 100
7, 112068, Note_on_c, 5, 43, 0
7, 112080, Note_on_c, 5, 43, 100
7, 112188, Note_on_c, 5, 43, 0
7, 112200, Note_on_c, 5, 55, 100
7, 112308, Note_on_c, 5, 55, 0
7, 112440, Note_on_c, 5, 43, 100
7, 112548, Note_on_c, 5, 43, 0
7, 112560, Note_on_c, 5, 43, 100
7, 112668, Note_on_c, 5, 43, 0
7, 112680, Note_on_c, 5, 55, 100
7, 112788, Note_on_c, 5, 55, 0
7, 112920, Note_on_c, 5, 43, 100
7, 113028, Note_on_c, 5, 43, 0
7, 113040, Note_on_c, 5, 43, 100
7, 113148, Note_on_c, 5, 43, 0
7, 113160, Note_on_c, 5, 55, 100
7, 113268, Note_on_c, 5, 55, 0
7, 113400, Note_on_c, 5, 43, 100
7, 113508, Note_on_c, 5, 43, 0
7, 113520, Note_on_c, 5, 43, 100
7, 113628, Note_on_c, 5, 43, 0
7, 113640, Note_on_c, 5, 55, 100
7, 113748, Note_on_c, 5, 55, 0
7, 113880, Note_on_c, 5, 43, 100
7, 113988, Note_on_c, 5, 43, 0
7, 114000, Note_on_c, 5, 43, 100
7, 114108, Note_on_c, 5, 43, 0
7, 114120, Note_on_c, 5, 55, 100
7, 114228, Note_on_c, 5, 55, 0
7, 114240, Note_on_c, 5, 55, 100
7, 114294, Note_on_c, 5, 55, 0
7, 114300, Note_on_c, 5, 57, 100
7, 114354, Note_on_c, 5, 57, 0
7, 114360, Note_on_c, 5, 59, 100
7, 114414, Note_on_c, 5, 59, 0
7, 114420, Note_on_c, 5, 55, 100
7, 114474, Note_on_c, 5, 55, 0
7, 114480, Note_on_c, 5, 52, 100
7, 114534, Note_on_c, 5, 52, 0
7, 114540, Note_on_c, 5, 53, 100
7, 114594, Note_on_c, 5, 53, 0
7, 114600, Note_on_c, 5, 55, 100
7, 114654, Note_on_c, 5, 55, 0
7, 114660, Note_on_c, 5, 52, 100
7, 114714, Note_on_c, 5, 52, 0
7, 114720, Note_on_c, 5, 49, 100
7, 114774, Note_on_c, 5, 49, 0
7, 114780, Note_on_c, 5, 50, 100
7, 114834, Note_on_c, 5, 50, 0
7, 114840, Note_on_c, 5, 52, 100
7, 114894, Note_on_c, 5, 52, 0
7, 114900, Note_on_c, 5, 49, 100
7, 114954, Note_on_c, 5, 49, 0
7, 114960, Note_on_c, 5, 45, 100
7, 115014, Note_on_c, 5, 45, 0
7, 115020, Note_on_c, 5, 47, 100
7, 115074, Note_on_c, 5, 47, 0
7, 115080, Note_on_c, 5, 49, 100
7, 115134, Note_on_c, 5, 49, 0
7, 115140, Note_on_c, 5, 45, 100
7, 115194, Note_on_c, 5, 45, 0
7, 115200, Note_on_c, 5, 53, 100
7, 115254, Note_on_c, 5, 53, 0
7, 115260, Note_on_c, 5, 55, 100
7, 115314, Note_on_c, 5, 55, 0
7, 115320, Note_on_c, 5, 57, 100
7, 115374, Note_on_c, 5, 57, 0
7, 115380, Note_on_c, 5, 53, 100
7, 115434, Note_on_c, 5, 53, 0
7, 115440, Note_on_c, 5, 50, 100
7, 115494, Note_on_c, 5, 50, 0
7, 115500, Note_on_c, 5, 52, 100
7, 115554, Note_on_c, 5, 52, 0
7, 115560, Note_on_c, 5, 53, 100
7, 115614, Note_on_c, 5, 53, 0
7, 115620, Note_on_c, 5, 50, 100
7, 115674, Note_on_c, 5, 50, 0
7, 115680, Note_on_c, 5, 47, 100
7, 115734, Note_on_c, 5, 47, 0
7, 115740, Note_on_c, 5, 48, 100
7, 115794, Note_on_c, 5, 48, 0
7, 115800, Note_on_c, 5, 50, 100
7, 115854, Note_on_c, 5, 50, 0
7, 115860, Note_on_c, 5, 47, 100
7, 115914, Note_on_c, 5, 47, 0
7, 115920, Note_on_c, 5, 43, 100
7, 115974, Note_on_c, 5, 43, 0
7, 115980, Note_on_c, 5, 45, 100
7, 116034, Note_on_c, 5, 45, 0
7, 116040, Note_on_c, 5, 47, 100
7, 116094, Note_on_c, 5, 47, 0
7, 116100, Note_on_c, 5, 43, 100
7, 116154, Note_on_c, 5, 43, 0
7, 116160, Note_on_c, 5, 52, 100
7, 116214, Note_on_c, 5, 52, 0
7, 116220, Note_on_c, 5, 53, 100
7, 116274, Note_on_c, 5, 53, 0
7, 116280, Note_on_c, 5, 55, 100
7, 116334, Note_on_c, 5, 55, 0
7, 116340, Note_on_c, 5, 52, 100
7, 116394, Note_on_c, 5, 52, 0
7, 116400, Note_on_c, 5, 48, 100
7, 116454, Note_on_c, 5, 48, 0
7, 116460, Note_on_c, 5, 50, 100
7, 116514, Note_on_c, 5, 50, 0
7, 116520, Note_on_c, 5, 52, 100
7, 116574, Note_on_c, 5, 52, 0
7, 116580, Note_on_c, 5, 48, 100
7, 116634, Note_on_c, 5, 48, 0
7, 116640, Note_on_c, 5, 45, 100
7, 116694, Note_on_c, 5, 45, 0
7, 116700, Note_on_c, 5, 47, 100
7, 116754, Note_on_c, 5, 47, 0
7, 116760, Note_on_c, 5, 48, 100
7, 116814, Note_on_c, 5, 48, 0
7, 116820, Note_on_c, 5, 45, 100
7, 116874, Note_on_c, 5, 45, 0
7, 116880, Note_on_c, 5, 42, 100
7, 116934, Note_on_c, 5, 42, 0
7, 116940, Note_on_c, 5, 43, 100
7, 116994, Note_on_c, 5, 43, 0
7, 117000, Note_on_c, 5, 45, 100
7, 117054, Note_on_c, 5, 45, 0
7, 117060, Note_on_c, 5, 42, 100
7, 117114, Note_on_c, 5, 42, 0
7, 117120, Note_on_c, 5, 43, 100
7, 117228, Note_on_c, 5, 43, 0
7, 117240, Note_on_c, 5, 55, 100
7, 117348, Note_on_c, 5, 55, 0
7, 117360, Note_on_c, 5, 48, 100
7, 117468, Note_on_c, 5, 48, 0
7, 117480, Note_on_c, 5, 52, 100
7, 117588, Note_on_c, 5, 52, 0
7, 117600, Note_on_c, 5, 41, 100
7, 117708, Note_on_c, 5, 41, 0
7, 117720, Note_on_c, 5, 53, 100
7, 117828, Note_on_c, 5, 53, 0
7, 117840, Note_on_c, 5, 47, 100
7, 117948, Note_on_c, 5, 47, 0
7, 117960, Note_on_c, 5, 50, 100
7, 118068, Note_on_c, 5, 50, 0
7, 118080, Note_on_c, 5, 40, 100
7, 118188, Note_on_c, 5, 40, 0
7, 118200, Note_on_c, 5, 52, 100
7, 118308, Note_on_c, 5, 52, 0
7, 118320, Note_on_c, 5, 45, 100
7, 118428, Note_on_c, 5, 45, 0
7, 118440, Note_on_c, 5, 48, 100
7, 118548, Note_on_c, 5, 48, 0
7, 118560, Note_on_c, 5, 38, 100
7, 118668, Note_on_c, 5, 38, 0
7, 118680, Note_on_c, 5, 50, 100
7, 118788, Note_on_c, 5, 50, 0
7, 118800, Note_on_c, 5, 43, 100
7, 118908, Note_on_c, 5, 43, 0
7, 118920, Note_on_c, 5, 47, 100
7, 119028, Note_on_c, 5, 47, 0
7, 119040, Note_on_c, 5, 36, 100
7, 119148, Note_on_c, 5, 36, 0
7, 119160, Note_on_c, 5, 48, 100
7, 119268, Note_on_c, 5, 48, 0
7, 119400, Note_on_c, 5, 48, 100
7, 119508, Note_on_c, 5, 48, 0
7, 119520, Note_on_c, 5, 41, 100
7, 119628, Note_on_c, 5, 41, 0
7, 119640, Note_on_c, 5, 53, 100
7, 119748, Note_on_c, 5, 53, 0
7, 119880, Note_on_c, 5, 50, 100
7, 119988, Note_on_c, 5, 50, 0
7, 120000, Note_on_c, 5, 43, 100
7, 120108, Note_on_c, 5, 43, 0
7, 120120, Note_on_c, 5, 55, 100
7, 120228, Note_on_c, 5, 55, 0
7, 120360, Note_on_c, 5, 52, 100
7, 120468, Note_on_c, 5, 52, 0
7, 120480, Note_on_c, 5, 45, 100
7, 120588, Note_on_c, 5, 45, 0
7, 120600, Note_on_c, 5, 57, 100
7, 120708, Note_on_c, 5, 57, 0
7, 120840, Note_on_c, 5, 53, 100
7, 120948, Note_on_c, 5, 53, 0
7, 120960, Note_on_c, 5, 47, 100
7, 121068, Note_on_c, 5, 47, 0
7, 121080, Note_on_c, 5, 59, 100
7, 121188, Note_on_c, 5, 59, 0
7, 121320, Note_on_c, 5, 55, 100
7, 121428, Note_on_c, 5, 55, 0
7, 121440, Note_on_c, 5, 48, 100
7, 121548, Note_on_c, 5, 48, 0
7, 121560, Note_on_c, 5, 50, 100
7, 121668, Note_on_c, 5, 50, 0
7, 121680, Note_on_c, 5, 52, 100
7, 121788, Note_on_c, 5, 52, 0
7, 121800, Note_on_c, 5, 53, 100
7, 121908, Note_on_c, 5, 53, 0
7, 121920, Note_on_c, 5, 55, 100
7, 122028, Note_on_c, 5, 55, 0
7, 122040, Note_on_c, 5, 57, 100
7, 122148, Note_on_c, 5, 57, 0
7, 122160, Note_on_c, 5, 59, 100
7, 122268, Note_on_c, 5, 59, 0
7, 122280, Note_on_c, 5, 55, 100
7, 122388, Note_on_c, 5, 55, 0
7, 122400, Note_on_c, 5, 60, 100
7, 122508, Note_on_c, 5, 60, 0
7, 122520, Note_on_c, 5, 52, 100
7, 122628, Note_on_c, 5, 52, 0
7, 122640, Note_on_c, 5, 60, 100
7, 122748, Note_on_c, 5, 60, 0
7, 122760, Note_on_c, 5, 52, 100
7, 122868, Note_on_c, 5, 52, 0
7, 122880, Note_on_c, 5, 53, 100
7, 123096, Note_on_c, 5, 53, 0
7, 123360, Note_on_c, 5, 59, 100
7, 123468, Note_on_c, 5, 59, 0
7, 123480, Note_on_c, 5, 50, 100
7, 123588, Note_on_c, 5, 50, 0
7, 123600, Note_on_c, 5, 59, 100
7, 123708, Note_on_c, 5, 59, 0
7, 123720, Note_on_c, 5, 50, 100
7, 123828, Note_on_c, 5, 50, 0
7, 123840, Note_on_c, 5, 52, 100
7, 124056, Note_on_c, 5, 52, 0
7, 124320, Note_on_c, 5, 57, 100
7, 124428, Note_on_c, 5, 57, 0
7, 124440, Note_on_c, 5, 48, 100
7, 124548, Note_on_c, 5, 48, 0
7, 124560, Note_on_c, 5, 57, 100
7, 124668, Note_on_c, 5, 57, 0
7, 124680, Note_on_c, 5, 48, 100
7, 124788, Note_on_c, 5, 48, 0
7, 124800, Note_on_c, 5, 50, 100
7, 125016, Note_on_c, 5, 50, 0
7, 125280, Note_on_c, 5, 55, 100
7, 125388, Note_on_c, 5, 55, 0
7, 125400, Note_on_c, 5, 43, 100
7, 125508, Note_on_c, 5, 43, 0
7, 125520, Note_on_c, 5, 47, 100
7, 125628, Note_on_c, 5, 47, 0
7, 125640, Note_on_c, 5, 43, 100
7, 125748, Note_on_c, 5, 43, 0
7, 125760, Note_on_c, 5, 48, 100
7, 125868, Note_on_c, 5, 48, 0
7, 125880, Note_on_c, 5, 50, 100
7, 125988, Note_on_c, 5, 50, 0
7, 126000, Note_on_c, 5, 52, 100
7, 126108, Note_on_c, 5, 52, 0
7, 126120, Note_on_c, 5, 50, 100
7, 126228, Note_on_c, 5, 50, 0
7, 126240, Note_on_c, 5, 52, 100
7, 126348, Note_on_c, 5, 52, 0
7, 126360, Note_on_c, 5, 53, 100
7, 126468, Note_on_c, 5, 53, 0
7, 126480, Note_on_c, 5, 55, 100
7, 126588, Note_on_c, 5, 55, 0
7, 126600, Note_on_c, 5, 43, 100
7, 126708, Note_on_c, 5, 43, 0
7, 126720, Note_on_c, 5, 60, 100
7, 126828, Note_on_c, 5, 60, 0
7, 126840, Note_on_c, 5, 55, 100
7, 126948, Note_on_c, 5, 55, 0
7, 126960, Note_on_c, 5, 60, 100
7, 127068, Note_on_c, 5, 60, 0
7, 127080, Note_on_c, 5, 55, 100
7, 127188, Note_on_c, 5, 55, 0
7, 127200, Note_on_c, 5, 60, 100
7, 127308, Note_on_c, 5, 60, 0
7, 127320, Note_on_c, 5, 59, 100
7, 127374, Note_on_c, 5, 59, 0
7, 127380, Note_on_c, 5, 57, 100
7, 127434, Note_on_c, 5, 57, 0
7, 127440, Note_on_c, 5, 55, 100
7, 127548, Note_on_c, 5, 55, 0
7, 127560, Note_on_c, 5, 57, 100
7, 127614, Note_on_c, 5, 57, 0
7, 127620, Note_on_c, 5, 59, 100
7, 127674, Note_on_c, 5, 59, 0
7, 127680, Note_on_c, 5, 60, 100
7, 127788, Note_on_c, 5, 60, 0
7, 127800, Note_on_c, 5, 59, 100
7, 127854, Note_on_c, 5, 59, 0
7, 127860, Note_on_c, 5, 57, 100
7, 127914, Note_on_c, 5, 57, 0
7, 127920, Note_on_c, 5, 55, 100
7, 128028, Note_on_c, 5, 55, 0
7, 128040, Note_on_c, 5, 53, 100
7, 128148, Note_on_c, 5, 53, 0
7, 128160, Note_on_c, 5, 52, 100
7, 128214, Note_on_c, 5, 52, 0
7, 128220, Note_on_c, 5, 53, 100
7, 128274, Note_on_c, 5, 53, 0
7, 128280, Note_on_c, 5, 55, 100
7, 128334, Note_on_c, 5, 55, 0
7, 128340, Note_on_c, 5, 52, 100
7, 128394, Note_on_c, 5, 52, 0
7, 128400, Note_on_c, 5, 48, 100
7, 128454, Note_on_c, 5, 48, 0
7, 128460, Note_on_c, 5, 50, 100
7, 128514, Note_on_c, 5, 50, 0
7, 128520, Note_on_c, 5, 52, 100
7, 128574, Note_on_c, 5, 52, 0
7, 128580, Note_on_c, 5, 54, 100
7, 128634, Note_on_c, 5, 54, 0
7, 128640, Note_on_c, 5, 55, 100
7, 128748, Note_on_c, 5, 55, 0
7, 128760, Note_on_c, 5, 50, 100
7, 128868, Note_on_c, 5, 50, 0
7, 128880, Note_on_c, 5, 55, 100
7, 128988, Note_on_c, 5, 55, 0
7, 129000, Note_on_c, 5, 50, 100
7, 129108, Note_on_c, 5, 50, 0
7, 129120, Note_on_c, 5, 55, 100
7, 129228, Note_on_c, 5, 55, 0
7, 129240, Note_on_c, 5, 54, 100
7, 129294, Note_on_c, 5, 54, 0
7, 129300, Note_on_c, 5, 52, 100
7, 129354, Note_on_c, 5, 52, 0
7, 129360, Note_on_c, 5, 50, 100
7, 129468, Note_on_c, 5, 50, 0
7, 129480, Note_on_c, 5, 52, 100
7, 129534, Note_on_c, 5, 52, 0
7, 129540, Note_on_c, 5, 54, 100
7, 129594, Note_on_c, 5, 54, 0
7, 129600, Note_on_c, 5, 55, 100
7, 129708, Note_on_c, 5, 55, 0
7, 129720, Note_on_c, 5, 54, 100
7, 129774, Note_on_c, 5, 54, 0
7, 129780, Note_on_c, 5, 52, 100
7, 129834, Note_on_c, 5, 52, 0
7, 129840, Note_on_c, 5, 50, 100
7, 129948, Note_on_c, 5, 50, 0
7, 129960, Note_on_c, 5, 48, 100
7, 130068, Note_on_c, 5, 48, 0
7, 130080, Note_on_c, 5, 47, 100
7, 130134, Note_on_c, 5, 47, 0
7, 130140, Note_on_c, 5, 48, 100
7, 130194, Note_on_c, 5, 48, 0
7, 130200, Note_on_c, 5, 50, 100
7, 130254, Note_on_c, 5, 50, 0
7, 130260, Note_on_c, 5, 47, 100
7, 130314, Note_on_c, 5, 47, 0
7, 130320, Note_on_c, 5, 43, 100
7, 130374, Note_on_c, 5, 43, 0
7, 130380, Note_on_c, 5, 47, 100
7, 130434, Note_on_c, 5, 47, 0
7, 130440, Note_on_c, 5, 50, 100
7, 130494, Note_on_c, 5, 50, 0
7, 130500, Note_on_c, 5, 53, 100
7, 130554, Note_on_c, 5, 53, 0
7, 130560, Note_on_c, 5, 48, 100
7, 130614, Note_on_c, 5, 48, 0
7, 130620, Note_on_c, 5, 50, 100
7, 130674, Note_on_c, 5, 50, 0
7, 130680, Note_on_c, 5, 52, 100
7, 130734, Note_on_c, 5, 52, 0
7, 130740, Note_on_c, 5, 48, 100
7, 130794, Note_on_c, 5, 48, 0
7, 130800, Note_on_c, 5, 43, 100
7, 130854, Note_on_c, 5, 43, 0
7, 130860, Note_on_c, 5, 48, 100
7, 130914, Note_on_c, 5, 48, 0
7, 130920, Note_on_c, 5, 52, 100
7, 130974, Note_on_c, 5, 52, 0
7, 130980, Note_on_c, 5, 55, 100
7, 131034, Note_on_c, 5, 55, 0
7, 131040, Note_on_c, 5, 50, 100
7, 131094, Note_on_c, 5, 50, 0
7, 131100, Note_on_c, 5, 52, 100
7, 131154, Note_on_c, 5, 52, 0
7, 131160, Note_on_c, 5, 53, 100
7, 131214, Note_on_c, 5, 53, 0
7, 131220, Note_on_c, 5, 50, 100
7, 131274, Note_on_c, 5, 50, 0
7, 131280, Note_on_c, 5, 47, 100
7, 131334, Note_on_c, 5, 47, 0
7, 131340, Note_on_c, 5, 50, 100
7, 131394, Note_on_c, 5, 50, 0
7, 131400, Note_on_c, 5, 53, 100
7, 131454, Note_on_c, 5, 53, 0
7, 131460, Note_on_c, 5, 57, 100
7, 131514, Note_on_c, 5, 57, 0
7, 131520, Note_on_c, 5, 55, 100
7, 131574, Note_on_c, 5, 55, 0
7, 131580, Note_on_c, 5, 53, 100
7, 131634, Note_on_c, 5, 53, 0
7, 131640, Note_on_c, 5, 52, 100
7, 131694, Note_on_c, 5, 52, 0
7, 131700, Note_on_c, 5, 53, 100
7, 131754, Note_on_c, 5, 53, 0
7, 131760, Note_on_c, 5, 55, 100
7, 131814, Note_on_c, 5, 55, 0
7, 131820, Note_on_c, 5, 52, 100
7, 131874, Note_on_c, 5, 52, 0
7, 131880, Note_on_c, 5, 48, 100
7, 131934, Note_on_c, 5, 48, 0
7, 131940, Note_on_c, 5, 45, 100
7, 131994, Note_on_c, 5, 45, 0
7, 132000, Note_on_c, 5, 53, 100
7, 132054, Note_on_c, 5, 53, 0
7, 132060, Note_on_c, 5, 52, 100
7, 132114, Note_on_c, 5, 52, 0
7, 132120, Note_on_c, 5, 50, 100
7, 132174, Note_on_c, 5, 50, 0
7, 132180, Note_on_c, 5, 52, 100
7, 132234, Note_on_c, 5, 52, 0
7, 132240, Note_on_c, 5, 53, 100
7, 132294, Note_on_c, 5, 53, 0
7, 132300, Note_on_c, 5, 50, 100
7, 132354, Note_on_c, 5, 50, 0
7, 132360, Note_on_c, 5, 47, 100
7, 132414, Note_on_c, 5, 47, 0
7, 132420, Note_on_c, 5, 43, 100
7, 132474, Note_on_c, 5, 43, 0
7, 132480, Note_on_c, 5, 52, 100
7, 132534, Note_on_c, 5, 52, 0
7, 132540, Note_on_c, 5, 53, 100
7, 132594, Note_on_c, 5, 53, 0
7, 132600, Note_on_c, 5, 55, 100
7, 132654, Note_on_c, 5, 55, 0
7, 132660, Note_on_c, 5, 52, 100
7, 132714, Note_on_c, 5, 52, 0
7, 132720, Note_on_c, 5, 48, 100
7, 132774, Note_on_c, 5, 48, 0
7, 132780, Note_on_c, 5, 50, 100
7, 132834, Note_on_c, 5, 50, 0
7, 132840, Note_on_c, 5, 52, 100
7, 132894, Note_on_c, 5, 52, 0
7, 132900, Note_on_c, 5, 48, 100
7, 132954, Note_on_c, 5, 48, 0
7, 132960, Note_on_c, 5, 45, 100
7, 133014, Note_on_c, 5, 45, 0
7, 133020, Note_on_c, 5, 47, 100
7, 133074, Note_on_c, 5, 47, 0
7, 133080, Note_on_c, 5, 48, 100
7, 133134, Note_on_c, 5, 48, 0
7, 133140, Note_on_c, 5, 45, 100
7, 133194, Note_on_c, 5, 45, 0
7, 133200, Note_on_c, 5, 41, 100
7, 133254, Note_on_c, 5, 41, 0
7, 133260, Note_on_c, 5, 43, 100
7, 133314, Note_on_c, 5, 43, 0
7, 133320, Note_on_c, 5, 45, 100
7, 133374, Note_on_c, 5, 45, 0
7, 133380, Note_on_c, 5, 41, 100
7, 133434, Note_on_c, 5, 41, 0
7, 133440, Note_on_c, 5, 38, 100
7, 133602, Note_on_c, 5, 38, 0
7, 133620, Note_on_c, 5, 40, 100
7, 133674, Note_on_c, 5, 40, 0
7, 133680, Note_on_c, 5, 41, 100
7, 133734, Note_on_c, 5, 41, 0
7, 133740, Note_on_c, 5, 43, 100
7, 133794, Note_on_c, 5, 43, 0
7, 133800, Note_on_c, 5, 45, 100
7, 133854, Note_on_c, 5, 45, 0
7, 133860, Note_on_c, 5, 47, 100
7, 133914, Note_on_c, 5, 47, 0
7, 133920, Note_on_c, 5, 48, 100
7, 133974, Note_on_c, 5, 48, 0
7, 133980, Note_on_c, 5, 50, 100
7, 134034, Note_on_c, 5, 50, 0
7, 134040, Note_on_c, 5, 52, 100
7, 134094, Note_on_c, 5, 52, 0
7, 134100, Note_on_c, 5, 53, 100
7, 134154, Note_on_c, 5, 53, 0
7, 134160, Note_on_c, 5, 55, 100
7, 134268, Note_on_c, 5, 55, 0
7, 134280, Note_on_c, 5, 43, 100
7, 134388, Note_on_c, 5, 43, 0
7, 134400, Note_on_c, 5, 48, 100
7, 134616, Note_on_c, 5, 48, 0
7, 134616, End_track
8, 0, Start_track
8, 0, Title_t, "I "
8, 0, Program_c, 6, 40
8, 0, Control_c, 6, 7, 120
8, 0, Control_c, 6, 10, 14
8, 0, Note_on_c, 6, 76, 100
8, 108, Note_on_c, 6, 76, 0
8, 120, Note_on_c, 6, 76, 100
8, 336, Note_on_c, 6, 76, 0
8, 360, Note_on_c, 6, 76, 100
8, 534, Note_on_c, 6, 76, 0
8, 540, Note_on_c, 6, 74, 100
8, 594, Note_on_c, 6, 74, 0
8, 600, Note_on_c, 6, 76, 100
8, 654, Note_on_c, 6, 76, 0
8, 660, Note_on_c, 6, 77, 100
8, 714, Note_on_c, 6, 77, 0
8, 720, Note_on_c, 6, 79, 100
8, 756, Note_on_c, 6, 79, 0
8, 760, Note_on_c, 6, 77, 100
8, 796, Note_on_c, 6, 77, 0
8, 800, Note_on_c, 6, 76, 100
8, 836, Note_on_c, 6, 76, 0
8, 840, Note_on_c, 6, 77, 100
8, 876, Note_on_c, 6, 77, 0
8, 880, Note_on_c, 6, 76, 100
8, 916, Note_on_c, 6, 76, 0
8, 920, Note_on_c, 6, 74, 100
8, 956, Note_on_c, 6, 74, 0
8, 960, Note_on_c, 6, 76, 100
8, 996, Note_on_c, 6, 76, 0
8, 1000, Note_on_c, 6, 74, 100
8, 1036, Note_on_c, 6, 74, 0
8, 1040, Note_on_c, 6, 72, 100
8, 1076, Note_on_c, 6, 72, 0
8, 1080, Note_on_c, 6, 74, 100
8, 1188, Note_on_c, 6, 74, 0
8, 1200, Note_on_c, 6, 67, 100
8, 1308, Note_on_c, 6, 67, 0
8, 1320, Note_on_c, 6, 71, 100
8, 1428, Note_on_c, 6, 71, 0
8, 1440, Note_on_c, 6, 72, 100
8, 1548, Note_on_c, 6, 72, 0
8, 1560, Note_on_c, 6, 60, 100
8, 1668, Note_on_c, 6, 60, 0
8, 1920, Note_on_c, 6, 74, 100
8, 1974, Note_on_c, 6, 74, 0
8, 1980, Note_on_c, 6, 79, 100
8, 2034, Note_on_c, 6, 79, 0
8, 2040, Note_on_c, 6, 78, 100
8, 2094, Note_on_c, 6, 78, 0
8, 2100, Note_on_c, 6, 76, 100
8, 2154, Note_on_c, 6, 76, 0
8, 2160, Note_on_c, 6, 74, 100
8, 2214, Note_on_c, 6, 74, 0
8, 2220, Note_on_c, 6, 72, 100
8, 2274, Note_on_c, 6, 72, 0
8, 2280, Note_on_c, 6, 71, 100
8, 2334, Note_on_c, 6, 71, 0
8, 2340, Note_on_c, 6, 69, 100
8, 2394, Note_on_c, 6, 69, 0
8, 2400, Note_on_c, 6, 67, 100
8, 2454, Note_on_c, 6, 67, 0
8, 2460, Note_on_c, 6, 74, 100
8, 2514, Note_on_c, 6, 74, 0
8, 2520, Note_on_c, 6, 76, 100
8, 2574, Note_on_c, 6, 76, 0
8, 2580, Note_on_c, 6, 78, 100
8, 2634, Note_on_c, 6, 78, 0
8, 2640, Note_on_c, 6, 79, 100
8, 2748, Note_on_c, 6, 79, 0
8, 2760, Note_on_c, 6, 67, 100
8, 2934, Note_on_c, 6, 67, 0
8, 2940, Note_on_c, 6, 62, 100
8, 2994, Note_on_c, 6, 62, 0
8, 3000, Note_on_c, 6, 72, 100
8, 3108, Note_on_c, 6, 72, 0
8, 3120, Note_on_c, 6, 71, 100
8, 3228, Note_on_c, 6, 71, 0
8, 3240, Note_on_c, 6, 69, 100
8, 3348, Note_on_c, 6, 69, 0
8, 3360, Note_on_c, 6, 67, 100
8, 3414, Note_on_c, 6, 67, 0
8, 3420, Note_on_c, 6, 69, 100
8, 3474, Note_on_c, 6, 69, 0
8, 3480, Note_on_c, 6, 71, 100
8, 3588, Note_on_c, 6, 71, 0
8, 3720, Note_on_c, 6, 71, 100
8, 3828, Note_on_c, 6, 71, 0
8, 3960, Note_on_c, 6, 72, 100
8, 4068, Note_on_c, 6, 72, 0
8, 4200, Note_on_c, 6, 72, 100
8, 4308, Note_on_c, 6, 72, 0
8, 4440, Note_on_c, 6, 74, 100
8, 4548, Note_on_c, 6, 74, 0
8, 4680, Note_on_c, 6, 74, 100
8, 4788, Note_on_c, 6, 74, 0
8, 4800, Note_on_c, 6, 76, 100
8, 4854, Note_on_c, 6, 76, 0
8, 4860, Note_on_c, 6, 77, 100
8, 4914, Note_on_c, 6, 77, 0
8, 4920, Note_on_c, 6, 79, 100
8, 5028, Note_on_c, 6, 79, 0
8, 5100, Note_on_c, 6, 79, 100
8, 5154, Note_on_c, 6, 79, 0
8, 5160, Note_on_c, 6, 77, 100
8, 5214, Note_on_c, 6, 77, 0
8, 5220, Note_on_c, 6, 76, 100
8, 5274, Note_on_c, 6, 76, 0
8, 5280, Note_on_c, 6, 74, 100
8, 5334, Note_on_c, 6, 74, 0
8, 5340, Note_on_c, 6, 76, 100
8, 5394, Note_on_c, 6, 76, 0
8, 5400, Note_on_c, 6, 77, 100
8, 5508, Note_on_c, 6, 77, 0
8, 5580, Note_on_c, 6, 77, 100
8, 5634, Note_on_c, 6, 77, 0
8, 5640, Note_on_c, 6, 76, 100
8, 5694, Note_on_c, 6, 76, 0
8, 5700, Note_on_c, 6, 74, 100
8, 5754, Note_on_c, 6, 74, 0
8, 5760, Note_on_c, 6, 72, 100
8, 5814, Note_on_c, 6, 72, 0
8, 5820, Note_on_c, 6, 74, 100
8, 5874, Note_on_c, 6, 74, 0
8, 5880, Note_on_c, 6, 76, 100
8, 6096, Note_on_c, 6, 76, 0
8, 6120, Note_on_c, 6, 76, 100
8, 6267, Note_on_c, 6, 76, 0
8, 6270, Note_on_c, 6, 74, 100
8, 6297, Note_on_c, 6, 74, 0
8, 6300, Note_on_c, 6, 72, 100
8, 6354, Note_on_c, 6, 72, 0
8, 6360, Note_on_c, 6, 81, 100
8, 6576, Note_on_c, 6, 81, 0
8, 6600, Note_on_c, 6, 81, 100
8, 6747, Note_on_c, 6, 81, 0
8, 6750, Note_on_c, 6, 79, 100
8, 6777, Note_on_c, 6, 79, 0
8, 6780, Note_on_c, 6, 77, 100
8, 6834, Note_on_c, 6, 77, 0
8, 6840, Note_on_c, 6, 86, 100
8, 7056, Note_on_c, 6, 86, 0
8, 7080, Note_on_c, 6, 86, 100
8, 7227, Note_on_c, 6, 86, 0
8, 7230, Note_on_c, 6, 84, 100
8, 7257, Note_on_c, 6, 84, 0
8, 7260, Note_on_c, 6, 83, 100
8, 7314, Note_on_c, 6, 83, 0
8, 7320, Note_on_c, 6, 84, 100
8, 7374, Note_on_c, 6, 84, 0
8, 7380, Note_on_c, 6, 76, 100
8, 7434, Note_on_c, 6, 76, 0
8, 7440, Note_on_c, 6, 74, 100
8, 7548, Note_on_c, 6, 74, 0
8, 7560, Note_on_c, 6, 83, 100
8, 7668, Note_on_c, 6, 83, 0
8, 7680, Note_on_c, 6, 84, 100
8, 7788, Note_on_c, 6, 84, 0
8, 7800, Note_on_c, 6, 67, 100
8, 7908, Note_on_c, 6, 67, 0
8, 7920, Note_on_c, 6, 72, 100
8, 8028, Note_on_c, 6, 72, 0
8, 8040, Note_on_c, 6, 67, 100
8, 8148, Note_on_c, 6, 67, 0
8, 8160, Note_on_c, 6, 72, 100
8, 8268, Note_on_c, 6, 72, 0
8, 8280, Note_on_c, 6, 71, 100
8, 8334, Note_on_c, 6, 71, 0
8, 8340, Note_on_c, 6, 69, 100
8, 8394, Note_on_c, 6, 69, 0
8, 8400, Note_on_c, 6, 67, 100
8, 8508, Note_on_c, 6, 67, 0
8, 8520, Note_on_c, 6, 69, 100
8, 8574, Note_on_c, 6, 69, 0
8, 8580, Note_on_c, 6, 71, 100
8, 8634, Note_on_c, 6, 71, 0
8, 8640, Note_on_c, 6, 72, 100
8, 8748, Note_on_c, 6, 72, 0
8, 8760, Note_on_c, 6, 71, 100
8, 8814, Note_on_c, 6, 71, 0
8, 8820, Note_on_c, 6, 69, 100
8, 8874, Note_on_c, 6, 69, 0
8, 8880, Note_on_c, 6, 67, 100
8, 8988, Note_on_c, 6, 67, 0
8, 9000, Note_on_c, 6, 65, 100
8, 9108, Note_on_c, 6, 65, 0
8, 9120, Note_on_c, 6, 64, 100
8, 9174, Note_on_c, 6, 64, 0
8, 9180, Note_on_c, 6, 65, 100
8, 9234, Note_on_c, 6, 65, 0
8, 9240, Note_on_c, 6, 67, 100
8, 9294, Note_on_c, 6, 67, 0
8, 9300, Note_on_c, 6, 64, 100
8, 9354, Note_on_c, 6, 64, 0
8, 9360, Note_on_c, 6, 60, 100
8, 9468, Note_on_c, 6, 60, 0
8, 9720, Note_on_c, 6, 76, 100
8, 9936, Note_on_c, 6, 76, 0
8, 9960, Note_on_c, 6, 76, 100
8, 10134, Note_on_c, 6, 76, 0
8, 10140, Note_on_c, 6, 74, 100
8, 10194, Note_on_c, 6, 74, 0
8, 10200, Note_on_c, 6, 76, 100
8, 10254, Note_on_c, 6, 76, 0
8, 10260, Note_on_c, 6, 77, 100
8, 10314, Note_on_c, 6, 77, 0
8, 10320, Note_on_c, 6, 79, 100
8, 10356, Note_on_c, 6, 79, 0
8, 10360, Note_on_c, 6, 77, 100
8, 10396, Note_on_c, 6, 77, 0
8, 10400, Note_on_c, 6, 76, 100
8, 10436, Note_on_c, 6, 76, 0
8, 10440, Note_on_c, 6, 77, 100
8, 10476, Note_on_c, 6, 77, 0
8, 10480, Note_on_c, 6, 76, 100
8, 10516, Note_on_c, 6, 76, 0
8, 10520, Note_on_c, 6, 74, 100
8, 10556, Note_on_c, 6, 74, 0
8, 10560, Note_on_c, 6, 76, 100
8, 10596, Note_on_c, 6, 76, 0
8, 10600, Note_on_c, 6, 74, 100
8, 10636, Note_on_c, 6, 74, 0
8, 10640, Note_on_c, 6, 72, 100
8, 10676, Note_on_c, 6, 72, 0
8, 10680, Note_on_c, 6, 74, 100
8, 10788, Note_on_c, 6, 74, 0
8, 10800, Note_on_c, 6, 67, 100
8, 10908, Note_on_c, 6, 67, 0
8, 10920, Note_on_c, 6, 71, 100
8, 11028, Note_on_c, 6, 71, 0
8, 11040, Note_on_c, 6, 72, 100
8, 11148, Note_on_c, 6, 72, 0
8, 11160, Note_on_c, 6, 60, 100
8, 11268, Note_on_c, 6, 60, 0
8, 11520, Note_on_c, 6, 67, 100
8, 11628, Note_on_c, 6, 67, 0
8, 11640, Note_on_c, 6, 62, 100
8, 11748, Note_on_c, 6, 62, 0
8, 11760, Note_on_c, 6, 67, 100
8, 11868, Note_on_c, 6, 67, 0
8, 11880, Note_on_c, 6, 62, 100
8, 11988, Note_on_c, 6, 62, 0
8, 12000, Note_on_c, 6, 67, 100
8, 12108, Note_on_c, 6, 67, 0
8, 12120, Note_on_c, 6, 66, 100
8, 12174, Note_on_c, 6, 66, 0
8, 12180, Note_on_c, 6, 64, 100
8, 12234, Note_on_c, 6, 64, 0
8, 12240, Note_on_c, 6, 62, 100
8, 12348, Note_on_c, 6, 62, 0
8, 12360, Note_on_c, 6, 64, 100
8, 12414, Note_on_c, 6, 64, 0
8, 12420, Note_on_c, 6, 66, 100
8, 12474, Note_on_c, 6, 66, 0
8, 12480, Note_on_c, 6, 67, 100
8, 12588, Note_on_c, 6, 67, 0
8, 12600, Note_on_c, 6, 66, 100
8, 12654, Note_on_c, 6, 66, 0
8, 12660, Note_on_c, 6, 64, 100
8, 12714, Note_on_c, 6, 64, 0
8, 12720, Note_on_c, 6, 62, 100
8, 12828, Note_on_c, 6, 62, 0
8, 12840, Note_on_c, 6, 60, 100
8, 12948, Note_on_c, 6, 60, 0
8, 12960, Note_on_c, 6, 59, 100
8, 13014, Note_on_c, 6, 59, 0
8, 13020, Note_on_c, 6, 60, 100
8, 13074, Note_on_c, 6, 60, 0
8, 13080, Note_on_c, 6, 62, 100
8, 13134, Note_on_c, 6, 62, 0
8, 13140, Note_on_c, 6, 59, 100
8, 13194, Note_on_c, 6, 59, 0
8, 13200, Note_on_c, 6, 55, 100
8, 13308, Note_on_c, 6, 55, 0
8, 13440, Note_on_c, 6, 76, 100
8, 13656, Note_on_c, 6, 76, 0
8, 13920, Note_on_c, 6, 76, 100
8, 14136, Note_on_c, 6, 76, 0
8, 14400, Note_on_c, 6, 74, 100
8, 14616, Note_on_c, 6, 74, 0
8, 14880, Note_on_c, 6, 74, 100
8, 15096, Note_on_c, 6, 74, 0
8, 15360, Note_on_c, 6, 72, 100
8, 15576, Note_on_c, 6, 72, 0
8, 15840, Note_on_c, 6, 72, 100
8, 15948, Note_on_c, 6, 72, 0
8, 15960, Note_on_c, 6, 81, 100
8, 16068, Note_on_c, 6, 81, 0
8, 16080, Note_on_c, 6, 81, 100
8, 16188, Note_on_c, 6, 81, 0
8, 16200, Note_on_c, 6, 72, 100
8, 16308, Note_on_c, 6, 72, 0
8, 16320, Note_on_c, 6, 71, 100
8, 16428, Note_on_c, 6, 71, 0
8, 16440, Note_on_c, 6, 79, 100
8, 16548, Note_on_c, 6, 79, 0
8, 16560, Note_on_c, 6, 79, 100
8, 16668, Note_on_c, 6, 79, 0
8, 16680, Note_on_c, 6, 71, 100
8, 16788, Note_on_c, 6, 71, 0
8, 16800, Note_on_c, 6, 69, 100
8, 16908, Note_on_c, 6, 69, 0
8, 16920, Note_on_c, 6, 78, 100
8, 17028, Note_on_c, 6, 78, 0
8, 17040, Note_on_c, 6, 78, 100
8, 17148, Note_on_c, 6, 78, 0
8, 17160, Note_on_c, 6, 69, 100
8, 17268, Note_on_c, 6, 69, 0
8, 17280, Note_on_c, 6, 67, 100
8, 17496, Note_on_c, 6, 67, 0
8, 17520, Note_on_c, 6, 79, 100
8, 17736, Note_on_c, 6, 79, 0
8, 18000, Note_on_c, 6, 84, 100
8, 18216, Note_on_c, 6, 84, 0
8, 18480, Note_on_c, 6, 74, 100
8, 18534, Note_on_c, 6, 74, 0
8, 18540, Note_on_c, 6, 84, 100
8, 18594, Note_on_c, 6, 84, 0
8, 18600, Note_on_c, 6, 83, 100
8, 18654, Note_on_c, 6, 83, 0
8, 18660, Note_on_c, 6, 81, 100
8, 18714, Note_on_c, 6, 81, 0
8, 18720, Note_on_c, 6, 83, 100
8, 18882, Note_on_c, 6, 83, 0
8, 18900, Note_on_c, 6, 84, 100
8, 18954, Note_on_c, 6, 84, 0
8, 18960, Note_on_c, 6, 81, 100
8, 19122, Note_on_c, 6, 81, 0
8, 19140, Note_on_c, 6, 79, 100
8, 19194, Note_on_c, 6, 79, 0
8, 19200, Note_on_c, 6, 79, 100
8, 19416, Note_on_c, 6, 79, 0
8, 20460, Note_on_c, 6, 67, 100
8, 20487, Note_on_c, 6, 67, 0
8, 20490, Note_on_c, 6, 69, 100
8, 20517, Note_on_c, 6, 69, 0
8, 20520, Note_on_c, 6, 71, 100
8, 20547, Note_on_c, 6, 71, 0
8, 20550, Note_on_c, 6, 72, 100
8, 20577, Note_on_c, 6, 72, 0
8, 20580, Note_on_c, 6, 74, 100
8, 20634, Note_on_c, 6, 74, 0
8, 20640, Note_on_c, 6, 76, 100
8, 20748, Note_on_c, 6, 76, 0
8, 21420, Note_on_c, 6, 64, 100
8, 21447, Note_on_c, 6, 64, 0
8, 21450, Note_on_c, 6, 66, 100
8, 21477, Note_on_c, 6, 66, 0
8, 21480, Note_on_c, 6, 68, 100
8, 21507, Note_on_c, 6, 68, 0
8, 21510, Note_on_c, 6, 69, 100
8, 21537, Note_on_c, 6, 69, 0
8, 21540, Note_on_c, 6, 71, 100
8, 21594, Note_on_c, 6, 71, 0
8, 21600, Note_on_c, 6, 72, 100
8, 21708, Note_on_c, 6, 72, 0
8, 22380, Note_on_c, 6, 69, 100
8, 22407, Note_on_c, 6, 69, 0
8, 22410, Note_on_c, 6, 71, 100
8, 22437, Note_on_c, 6, 71, 0
8, 22440, Note_on_c, 6, 73, 100
8, 22467, Note_on_c, 6, 73, 0
8, 22470, Note_on_c, 6, 74, 100
8, 22497, Note_on_c, 6, 74, 0
8, 22500, Note_on_c, 6, 76, 100
8, 22554, Note_on_c, 6, 76, 0
8, 22560, Note_on_c, 6, 77, 100
8, 22992, Note_on_c, 6, 77, 0
8, 23040, Note_on_c, 6, 76, 100
8, 23472, Note_on_c, 6, 76, 0
8, 23520, Note_on_c, 6, 74, 100
8, 23952, Note_on_c, 6, 74, 0
8, 24000, Note_on_c, 6, 72, 100
8, 24432, Note_on_c, 6, 72, 0
8, 24480, Note_on_c, 6, 70, 100
8, 24912, Note_on_c, 6, 70, 0
8, 24960, Note_on_c, 6, 69, 100
8, 25392, Note_on_c, 6, 69, 0
8, 25440, Note_on_c, 6, 67, 100
8, 25872, Note_on_c, 6, 67, 0
8, 25920, Note_on_c, 6, 65, 100
8, 26352, Note_on_c, 6, 65, 0
8, 26400, Note_on_c, 6, 64, 100
8, 27096, Note_on_c, 6, 64, 0
8, 27120, Note_on_c, 6, 62, 100
8, 27228, Note_on_c, 6, 62, 0
8, 27240, Note_on_c, 6, 60, 100
8, 27348, Note_on_c, 6, 60, 0
8, 27360, Note_on_c, 6, 59, 100
8, 27576, Note_on_c, 6, 59, 0
8, 27840, Note_on_c, 6, 76, 100
8, 27948, Note_on_c, 6, 76, 0
8, 27960, Note_on_c, 6, 76, 100
8, 28176, Note_on_c, 6, 76, 0
8, 28200, Note_on_c, 6, 76, 100
8, 28374, Note_on_c, 6, 76, 0
8, 28380, Note_on_c, 6, 74, 100
8, 28434, Note_on_c, 6, 74, 0
8, 28440, Note_on_c, 6, 76, 100
8, 28494, Note_on_c, 6, 76, 0
8, 28500, Note_on_c, 6, 77, 100
8, 28554, Note_on_c, 6, 77, 0
8, 28560, Note_on_c, 6, 79, 100
8, 28596, Note_on_c, 6, 79, 0
8, 28600, Note_on_c, 6, 77, 100
8, 28636, Note_on_c, 6, 77, 0
8, 28640, Note_on_c, 6, 76, 100
8, 28676, Note_on_c, 6, 76, 0
8, 28680, Note_on_c, 6, 77, 100
8, 28716, Note_on_c, 6, 77, 0
8, 28720, Note_on_c, 6, 76, 100
8, 28756, Note_on_c, 6, 76, 0
8, 28760, Note_on_c, 6, 74, 100
8, 28796, Note_on_c, 6, 74, 0
8, 28800, Note_on_c, 6, 76, 100
8, 28836, Note_on_c, 6, 76, 0
8, 28840, Note_on_c, 6, 74, 100
8, 28876, Note_on_c, 6, 74, 0
8, 28880, Note_on_c, 6, 72, 100
8, 28916, Note_on_c, 6, 72, 0
8, 28920, Note_on_c, 6, 74, 100
8, 29028, Note_on_c, 6, 74, 0
8, 29040, Note_on_c, 6, 67, 100
8, 29148, Note_on_c, 6, 67, 0
8, 29160, Note_on_c, 6, 71, 100
8, 29268, Note_on_c, 6, 71, 0
8, 29280, Note_on_c, 6, 72, 100
8, 29496, Note_on_c, 6, 72, 0
8, 29760, Note_on_c, 6, 72, 100
8, 29976, Note_on_c, 6, 72, 0
8, 30240, Note_on_c, 6, 72, 100
8, 30456, Note_on_c, 6, 72, 0
8, 30720, Note_on_c, 6, 74, 100
8, 30936, Note_on_c, 6, 74, 0
8, 31200, Note_on_c, 6, 76, 100
8, 31416, Note_on_c, 6, 76, 0
8, 31680, Note_on_c, 6, 76, 100
8, 31896, Note_on_c, 6, 76, 0
8, 32160, Note_on_c, 6, 77, 100
8, 32376, Note_on_c, 6, 77, 0
8, 32640, Note_on_c, 6, 77, 100
8, 32856, Note_on_c, 6, 77, 0
8, 33120, Note_on_c, 6, 76, 100
8, 33336, Note_on_c, 6, 76, 0
8, 33600, Note_on_c, 6, 75, 100
8, 34032, Note_on_c, 6, 75, 0
8, 34080, Note_on_c, 6, 74, 100
8, 34296, Note_on_c, 6, 74, 0
8, 34320, Note_on_c, 6, 72, 100
8, 34536, Note_on_c, 6, 72, 0
8, 34560, Note_on_c, 6, 71, 100
8, 34614, Note_on_c, 6, 71, 0
8, 34620, Note_on_c, 6, 69, 100
8, 34674, Note_on_c, 6, 69, 0
8, 34680, Note_on_c, 6, 67, 100
8, 34734, Note_on_c, 6, 67, 0
8, 34740, Note_on_c, 6, 69, 100
8, 34794, Note_on_c, 6, 69, 0
8, 34800, Note_on_c, 6, 71, 100
8, 34854, Note_on_c, 6, 71, 0
8, 34860, Note_on_c, 6, 72, 100
8, 34914, Note_on_c, 6, 72, 0
8, 34920, Note_on_c, 6, 74, 100
8, 34974, Note_on_c, 6, 74, 0
8, 34980, Note_on_c, 6, 76, 100
8, 35034, Note_on_c, 6, 76, 0
8, 35040, Note_on_c, 6, 74, 100
8, 35148, Note_on_c, 6, 74, 0
8, 35160, Note_on_c, 6, 77, 100
8, 35268, Note_on_c, 6, 77, 0
8, 35280, Note_on_c, 6, 77, 100
8, 35388, Note_on_c, 6, 77, 0
8, 35400, Note_on_c, 6, 77, 100
8, 35508, Note_on_c, 6, 77, 0
8, 35520, Note_on_c, 6, 76, 100
8, 35628, Note_on_c, 6, 76, 0
8, 35640, Note_on_c, 6, 79, 100
8, 35748, Note_on_c, 6, 79, 0
8, 35760, Note_on_c, 6, 79, 100
8, 35868, Note_on_c, 6, 79, 0
8, 35880, Note_on_c, 6, 79, 100
8, 35988, Note_on_c, 6, 79, 0
8, 36000, Note_on_c, 6, 75, 100
8, 36108, Note_on_c, 6, 75, 0
8, 36120, Note_on_c, 6, 81, 100
8, 36228, Note_on_c, 6, 81, 0
8, 36240, Note_on_c, 6, 81, 100
8, 36348, Note_on_c, 6, 81, 0
8, 36360, Note_on_c, 6, 81, 100
8, 36468, Note_on_c, 6, 81, 0
8, 36480, Note_on_c, 6, 74, 100
8, 36588, Note_on_c, 6, 74, 0
8, 36600, Note_on_c, 6, 83, 100
8, 36708, Note_on_c, 6, 83, 0
8, 36720, Note_on_c, 6, 83, 100
8, 36828, Note_on_c, 6, 83, 0
8, 36840, Note_on_c, 6, 83, 100
8, 36948, Note_on_c, 6, 83, 0
8, 36960, Note_on_c, 6, 72, 100
8, 37014, Note_on_c, 6, 72, 0
8, 37020, Note_on_c, 6, 84, 100
8, 37074, Note_on_c, 6, 84, 0
8, 37080, Note_on_c, 6, 83, 100
8, 37134, Note_on_c, 6, 83, 0
8, 37140, Note_on_c, 6, 81, 100
8, 37194, Note_on_c, 6, 81, 0
8, 37200, Note_on_c, 6, 79, 100
8, 37254, Note_on_c, 6, 79, 0
8, 37260, Note_on_c, 6, 77, 100
8, 37314, Note_on_c, 6, 77, 0
8, 37320, Note_on_c, 6, 76, 100
8, 37374, Note_on_c, 6, 76, 0
8, 37380, Note_on_c, 6, 74, 100
8, 37434, Note_on_c, 6, 74, 0
8, 37440, Note_on_c, 6, 76, 100
8, 37548, Note_on_c, 6, 76, 0
8, 37560, Note_on_c, 6, 76, 100
8, 37776, Note_on_c, 6, 76, 0
8, 37800, Note_on_c, 6, 76, 100
8, 37974, Note_on_c, 6, 76, 0
8, 37980, Note_on_c, 6, 74, 100
8, 38034, Note_on_c, 6, 74, 0
8, 38040, Note_on_c, 6, 76, 100
8, 38094, Note_on_c, 6, 76, 0
8, 38100, Note_on_c, 6, 77, 100
8, 38154, Note_on_c, 6, 77, 0
8, 38160, Note_on_c, 6, 79, 100
8, 38196, Note_on_c, 6, 79, 0
8, 38200, Note_on_c, 6, 77, 100
8, 38236, Note_on_c, 6, 77, 0
8, 38240, Note_on_c, 6, 76, 100
8, 38276, Note_on_c, 6, 76, 0
8, 38280, Note_on_c, 6, 77, 100
8, 38316, Note_on_c, 6, 77, 0
8, 38320, Note_on_c, 6, 76, 100
8, 38356, Note_on_c, 6, 76, 0
8, 38360, Note_on_c, 6, 74, 100
8, 38396, Note_on_c, 6, 74, 0
8, 38400, Note_on_c, 6, 76, 100
8, 38436, Note_on_c, 6, 76, 0
8, 38440, Note_on_c, 6, 74, 100
8, 38476, Note_on_c, 6, 74, 0
8, 38480, Note_on_c, 6, 72, 100
8, 38516, Note_on_c, 6, 72, 0
8, 38520, Note_on_c, 6, 74, 100
8, 38628, Note_on_c, 6, 74, 0
8, 38640, Note_on_c, 6, 67, 100
8, 38748, Note_on_c, 6, 67, 0
8, 38760, Note_on_c, 6, 71, 100
8, 38868, Note_on_c, 6, 71, 0
8, 38880, Note_on_c, 6, 72, 100
8, 38988, Note_on_c, 6, 72, 0
8, 39000, Note_on_c, 6, 72, 100
8, 39216, Note_on_c, 6, 72, 0
8, 39240, Note_on_c, 6, 72, 100
8, 39468, Note_on_c, 6, 72, 0
8, 39480, Note_on_c, 6, 71, 100
8, 39534, Note_on_c, 6, 71, 0
8, 39540, Note_on_c, 6, 69, 100
8, 39594, Note_on_c, 6, 69, 0
8, 39600, Note_on_c, 6, 67, 100
8, 39654, Note_on_c, 6, 67, 0
8, 39660, Note_on_c, 6, 65, 100
8, 39714, Note_on_c, 6, 65, 0
8, 39720, Note_on_c, 6, 64, 100
8, 39774, Note_on_c, 6, 64, 0
8, 39780, Note_on_c, 6, 62, 100
8, 39834, Note_on_c, 6, 62, 0
8, 39840, Note_on_c, 6, 60, 100
8, 40056, Note_on_c, 6, 60, 0
8, 46680, Note_on_c, 6, 76, 100
8, 46734, Note_on_c, 6, 76, 0
8, 46740, Note_on_c, 6, 75, 100
8, 46794, Note_on_c, 6, 75, 0
8, 46800, Note_on_c, 6, 76, 100
8, 46908, Note_on_c, 6, 76, 0
8, 47160, Note_on_c, 6, 84, 100
8, 47214, Note_on_c, 6, 84, 0
8, 47220, Note_on_c, 6, 83, 100
8, 47274, Note_on_c, 6, 83, 0
8, 47280, Note_on_c, 6, 81, 100
8, 47388, Note_on_c, 6, 81, 0
8, 47640, Note_on_c, 6, 78, 100
8, 47694, Note_on_c, 6, 78, 0
8, 47700, Note_on_c, 6, 76, 100
8, 47754, Note_on_c, 6, 76, 0
8, 47760, Note_on_c, 6, 74, 100
8, 47868, Note_on_c, 6, 74, 0
8, 48120, Note_on_c, 6, 83, 100
8, 48174, Note_on_c, 6, 83, 0
8, 48180, Note_on_c, 6, 81, 100
8, 48234, Note_on_c, 6, 81, 0
8, 48240, Note_on_c, 6, 79, 100
8, 48348, Note_on_c, 6, 79, 0
8, 48600, Note_on_c, 6, 76, 100
8, 48654, Note_on_c, 6, 76, 0
8, 48660, Note_on_c, 6, 74, 100
8, 48714, Note_on_c, 6, 74, 0
8, 48720, Note_on_c, 6, 72, 100
8, 48828, Note_on_c, 6, 72, 0
8, 49080, Note_on_c, 6, 81, 100
8, 49134, Note_on_c, 6, 81, 0
8, 49140, Note_on_c, 6, 79, 100
8, 49194, Note_on_c, 6, 79, 0
8, 49200, Note_on_c, 6, 78, 100
8, 49308, Note_on_c, 6, 78, 0
8, 49560, Note_on_c, 6, 78, 100
8, 49614, Note_on_c, 6, 78, 0
8, 49620, Note_on_c, 6, 76, 100
8, 49674, Note_on_c, 6, 76, 0
8, 49680, Note_on_c, 6, 75, 100
8, 49788, Note_on_c, 6, 75, 0
8, 50040, Note_on_c, 6, 83, 100
8, 50148, Note_on_c, 6, 83, 0
8, 50160, Note_on_c, 6, 76, 100
8, 50268, Note_on_c, 6, 76, 0
8, 50280, Note_on_c, 6, 79, 100
8, 50388, Note_on_c, 6, 79, 0
8, 50400, Note_on_c, 6, 72, 100
8, 50508, Note_on_c, 6, 72, 0
8, 51000, Note_on_c, 6, 81, 100
8, 51108, Note_on_c, 6, 81, 0
8, 51120, Note_on_c, 6, 74, 100
8, 51228, Note_on_c, 6, 74, 0
8, 51240, Note_on_c, 6, 78, 100
8, 51348, Note_on_c, 6, 78, 0
8, 51360, Note_on_c, 6, 71, 100
8, 51468, Note_on_c, 6, 71, 0
8, 51960, Note_on_c, 6, 67, 100
8, 52068, Note_on_c, 6, 67, 0
8, 52080, Note_on_c, 6, 69, 100
8, 52428, Note_on_c, 6, 69, 0
8, 52440, Note_on_c, 6, 69, 100
8, 52548, Note_on_c, 6, 69, 0
8, 52560, Note_on_c, 6, 71, 100
8, 52908, Note_on_c, 6, 71, 0
8, 52920, Note_on_c, 6, 71, 100
8, 53028, Note_on_c, 6, 71, 0
8, 53040, Note_on_c, 6, 72, 100
8, 53388, Note_on_c, 6, 72, 0
8, 53400, Note_on_c, 6, 72, 100
8, 53508, Note_on_c, 6, 72, 0
8, 53520, Note_on_c, 6, 74, 100
8, 53868, Note_on_c, 6, 74, 0
8, 53880, Note_on_c, 6, 74, 100
8, 53988, Note_on_c, 6, 74, 0
8, 54000, Note_on_c, 6, 79, 100
8, 54108, Note_on_c, 6, 79, 0
8, 54120, Note_on_c, 6, 74, 100
8, 54228, Note_on_c, 6, 74, 0
8, 54240, Note_on_c, 6, 79, 100
8, 54348, Note_on_c, 6, 79, 0
8, 54360, Note_on_c, 6, 78, 100
8, 54414, Note_on_c, 6, 78, 0
8, 54420, Note_on_c, 6, 76, 100
8, 54474, Note_on_c, 6, 76, 0
8, 54480, Note_on_c, 6, 74, 100
8, 54588, Note_on_c, 6, 74, 0
8, 54600, Note_on_c, 6, 76, 100
8, 54654, Note_on_c, 6, 76, 0
8, 54660, Note_on_c, 6, 78, 100
8, 54714, Note_on_c, 6, 78, 0
8, 54720, Note_on_c, 6, 79, 100
8, 54828, Note_on_c, 6, 79, 0
8, 54840, Note_on_c, 6, 78, 100
8, 54894, Note_on_c, 6, 78, 0
8, 54900, Note_on_c, 6, 76, 100
8, 54954, Note_on_c, 6, 76, 0
8, 54960, Note_on_c, 6, 74, 100
8, 55068, Note_on_c, 6, 74, 0
8, 55080, Note_on_c, 6, 72, 100
8, 55188, Note_on_c, 6, 72, 0
8, 55200, Note_on_c, 6, 71, 100
8, 55362, Note_on_c, 6, 71, 0
8, 55380, Note_on_c, 6, 69, 100
8, 55434, Note_on_c, 6, 69, 0
8, 55440, Note_on_c, 6, 69, 100
8, 55602, Note_on_c, 6, 69, 0
8, 55620, Note_on_c, 6, 67, 100
8, 55674, Note_on_c, 6, 67, 0
8, 55680, Note_on_c, 6, 67, 100
8, 55788, Note_on_c, 6, 67, 0
8, 55800, Note_on_c, 6, 62, 100
8, 55908, Note_on_c, 6, 62, 0
8, 55920, Note_on_c, 6, 67, 100
8, 56028, Note_on_c, 6, 67, 0
8, 56040, Note_on_c, 6, 62, 100
8, 56148, Note_on_c, 6, 62, 0
8, 56160, Note_on_c, 6, 67, 100
8, 56268, Note_on_c, 6, 67, 0
8, 56280, Note_on_c, 6, 66, 100
8, 56334, Note_on_c, 6, 66, 0
8, 56340, Note_on_c, 6, 64, 100
8, 56394, Note_on_c, 6, 64, 0
8, 56400, Note_on_c, 6, 62, 100
8, 56508, Note_on_c, 6, 62, 0
8, 56520, Note_on_c, 6, 64, 100
8, 56574, Note_on_c, 6, 64, 0
8, 56580, Note_on_c, 6, 66, 100
8, 56634, Note_on_c, 6, 66, 0
8, 56640, Note_on_c, 6, 67, 100
8, 56748, Note_on_c, 6, 67, 0
8, 56760, Note_on_c, 6, 66, 100
8, 56814, Note_on_c, 6, 66, 0
8, 56820, Note_on_c, 6, 64, 100
8, 56874, Note_on_c, 6, 64, 0
8, 56880, Note_on_c, 6, 62, 100
8, 56934, Note_on_c, 6, 62, 0
8, 56940, Note_on_c, 6, 60, 100
8, 56994, Note_on_c, 6, 60, 0
8, 57000, Note_on_c, 6, 59, 100
8, 57054, Note_on_c, 6, 59, 0
8, 57060, Note_on_c, 6, 57, 100
8, 57114, Note_on_c, 6, 57, 0
8, 57120, Note_on_c, 6, 59, 100
8, 57228, Note_on_c, 6, 59, 0
8, 58200, Note_on_c, 6, 74, 100
8, 58254, Note_on_c, 6, 74, 0
8, 58260, Note_on_c, 6, 76, 100
8, 58314, Note_on_c, 6, 76, 0
8, 58320, Note_on_c, 6, 77, 100
8, 58374, Note_on_c, 6, 77, 0
8, 58380, Note_on_c, 6, 81, 100
8, 58434, Note_on_c, 6, 81, 0
8, 58440, Note_on_c, 6, 79, 100
8, 58494, Note_on_c, 6, 79, 0
8, 58500, Note_on_c, 6, 77, 100
8, 58554, Note_on_c, 6, 77, 0
8, 58560, Note_on_c, 6, 76, 100
8, 58668, Note_on_c, 6, 76, 0
8, 58680, Note_on_c, 6, 67, 100
8, 58788, Note_on_c, 6, 67, 0
8, 58800, Note_on_c, 6, 72, 100
8, 58908, Note_on_c, 6, 72, 0
8, 58920, Note_on_c, 6, 67, 100
8, 59028, Note_on_c, 6, 67, 0
8, 59040, Note_on_c, 6, 72, 100
8, 59148, Note_on_c, 6, 72, 0
8, 59160, Note_on_c, 6, 71, 100
8, 59214, Note_on_c, 6, 71, 0
8, 59220, Note_on_c, 6, 69, 100
8, 59274, Note_on_c, 6, 69, 0
8, 59280, Note_on_c, 6, 67, 100
8, 59388, Note_on_c, 6, 67, 0
8, 59400, Note_on_c, 6, 69, 100
8, 59454, Note_on_c, 6, 69, 0
8, 59460, Note_on_c, 6, 71, 100
8, 59514, Note_on_c, 6, 71, 0
8, 59520, Note_on_c, 6, 72, 100
8, 59628, Note_on_c, 6, 72, 0
8, 59640, Note_on_c, 6, 71, 100
8, 59694, Note_on_c, 6, 71, 0
8, 59700, Note_on_c, 6, 69, 100
8, 59754, Note_on_c, 6, 69, 0
8, 59760, Note_on_c, 6, 67, 100
8, 59814, Note_on_c, 6, 67, 0
8, 59820, Note_on_c, 6, 65, 100
8, 59874, Note_on_c, 6, 65, 0
8, 59880, Note_on_c, 6, 64, 100
8, 59934, Note_on_c, 6, 64, 0
8, 59940, Note_on_c, 6, 62, 100
8, 59994, Note_on_c, 6, 62, 0
8, 60000, Note_on_c, 6, 64, 100
8, 60108, Note_on_c, 6, 64, 0
8, 61080, Note_on_c, 6, 79, 100
8, 61134, Note_on_c, 6, 79, 0
8, 61140, Note_on_c, 6, 81, 100
8, 61194, Note_on_c, 6, 81, 0
8, 61200, Note_on_c, 6, 82, 100
8, 61254, Note_on_c, 6, 82, 0
8, 61260, Note_on_c, 6, 86, 100
8, 61314, Note_on_c, 6, 86, 0
8, 61320, Note_on_c, 6, 84, 100
8, 61374, Note_on_c, 6, 84, 0
8, 61380, Note_on_c, 6, 82, 100
8, 61434, Note_on_c, 6, 82, 0
8, 61440, Note_on_c, 6, 81, 100
8, 61872, Note_on_c, 6, 81, 0
8, 61920, Note_on_c, 6, 79, 100
8, 62352, Note_on_c, 6, 79, 0
8, 62400, Note_on_c, 6, 77, 100
8, 62832, Note_on_c, 6, 77, 0
8, 62880, Note_on_c, 6, 76, 100
8, 63312, Note_on_c, 6, 76, 0
8, 63360, Note_on_c, 6, 74, 100
8, 63792, Note_on_c, 6, 74, 0
8, 63840, Note_on_c, 6, 72, 100
8, 64272, Note_on_c, 6, 72, 0
8, 64320, Note_on_c, 6, 70, 100
8, 64752, Note_on_c, 6, 70, 0
8, 64800, Note_on_c, 6, 69, 100
8, 65016, Note_on_c, 6, 69, 0
8, 66240, Note_on_c, 6, 77, 100
8, 66348, Note_on_c, 6, 77, 0
8, 66360, Note_on_c, 6, 72, 100
8, 66468, Note_on_c, 6, 72, 0
8, 66480, Note_on_c, 6, 77, 100
8, 66588, Note_on_c, 6, 77, 0
8, 66600, Note_on_c, 6, 72, 100
8, 66708, Note_on_c, 6, 72, 0
8, 66720, Note_on_c, 6, 77, 100
8, 66828, Note_on_c, 6, 77, 0
8, 66840, Note_on_c, 6, 76, 100
8, 66894, Note_on_c, 6, 76, 0
8, 66900, Note_on_c, 6, 74, 100
8, 66954, Note_on_c, 6, 74, 0
8, 66960, Note_on_c, 6, 72, 100
8, 67068, Note_on_c, 6, 72, 0
8, 67080, Note_on_c, 6, 74, 100
8, 67134, Note_on_c, 6, 74, 0
8, 67140, Note_on_c, 6, 76, 100
8, 67194, Note_on_c, 6, 76, 0
8, 67200, Note_on_c, 6, 77, 100
8, 67308, Note_on_c, 6, 77, 0
8, 67320, Note_on_c, 6, 76, 100
8, 67374, Note_on_c, 6, 76, 0
8, 67380, Note_on_c, 6, 74, 100
8, 67434, Note_on_c, 6, 74, 0
8, 67440, Note_on_c, 6, 72, 100
8, 67548, Note_on_c, 6, 72, 0
8, 67560, Note_on_c, 6, 70, 100
8, 67668, Note_on_c, 6, 70, 0
8, 67680, Note_on_c, 6, 69, 100
8, 67734, Note_on_c, 6, 69, 0
8, 67740, Note_on_c, 6, 70, 100
8, 67794, Note_on_c, 6, 70, 0
8, 67800, Note_on_c, 6, 72, 100
8, 67854, Note_on_c, 6, 72, 0
8, 67860, Note_on_c, 6, 69, 100
8, 67914, Note_on_c, 6, 69, 0
8, 67920, Note_on_c, 6, 65, 100
8, 68028, Note_on_c, 6, 65, 0
8, 68160, Note_on_c, 6, 74, 100
8, 68376, Note_on_c, 6, 74, 0
8, 68640, Note_on_c, 6, 74, 100
8, 68856, Note_on_c, 6, 74, 0
8, 69120, Note_on_c, 6, 72, 100
8, 69336, Note_on_c, 6, 72, 0
8, 69600, Note_on_c, 6, 72, 100
8, 69816, Note_on_c, 6, 72, 0
8, 70080, Note_on_c, 6, 70, 100
8, 70296, Note_on_c, 6, 70, 0
8, 70560, Note_on_c, 6, 70, 100
8, 70668, Note_on_c, 6, 70, 0
8, 70680, Note_on_c, 6, 79, 100
8, 70788, Note_on_c, 6, 79, 0
8, 70800, Note_on_c, 6, 79, 100
8, 70908, Note_on_c, 6, 79, 0
8, 70920, Note_on_c, 6, 70, 100
8, 71028, Note_on_c, 6, 70, 0
8, 71040, Note_on_c, 6, 69, 100
8, 71148, Note_on_c, 6, 69, 0
8, 71160, Note_on_c, 6, 77, 100
8, 71268, Note_on_c, 6, 77, 0
8, 71280, Note_on_c, 6, 77, 100
8, 71388, Note_on_c, 6, 77, 0
8, 71400, Note_on_c, 6, 69, 100
8, 71508, Note_on_c, 6, 69, 0
8, 71520, Note_on_c, 6, 67, 100
8, 71628, Note_on_c, 6, 67, 0
8, 71640, Note_on_c, 6, 76, 100
8, 71748, Note_on_c, 6, 76, 0
8, 71760, Note_on_c, 6, 76, 100
8, 71868, Note_on_c, 6, 76, 0
8, 71880, Note_on_c, 6, 67, 100
8, 71988, Note_on_c, 6, 67, 0
8, 72000, Note_on_c, 6, 65, 100
8, 72216, Note_on_c, 6, 65, 0
8, 72240, Note_on_c, 6, 77, 100
8, 72456, Note_on_c, 6, 77, 0
8, 72720, Note_on_c, 6, 82, 100
8, 72936, Note_on_c, 6, 82, 0
8, 73200, Note_on_c, 6, 72, 100
8, 73254, Note_on_c, 6, 72, 0
8, 73260, Note_on_c, 6, 82, 100
8, 73314, Note_on_c, 6, 82, 0
8, 73320, Note_on_c, 6, 81, 100
8, 73374, Note_on_c, 6, 81, 0
8, 73380, Note_on_c, 6, 79, 100
8, 73434, Note_on_c, 6, 79, 0
8, 73440, Note_on_c, 6, 81, 100
8, 73602, Note_on_c, 6, 81, 0
8, 73620, Note_on_c, 6, 82, 100
8, 73674, Note_on_c, 6, 82, 0
8, 73680, Note_on_c, 6, 79, 100
8, 73842, Note_on_c, 6, 79, 0
8, 73860, Note_on_c, 6, 77, 100
8, 73914, Note_on_c, 6, 77, 0
8, 73920, Note_on_c, 6, 77, 100
8, 74136, Note_on_c, 6, 77, 0
8, 74220, Note_on_c, 6, 60, 100
8, 74247, Note_on_c, 6, 60, 0
8, 74250, Note_on_c, 6, 62, 100
8, 74277, Note_on_c, 6, 62, 0
8, 74280, Note_on_c, 6, 64, 100
8, 74307, Note_on_c, 6, 64, 0
8, 74310, Note_on_c, 6, 65, 100
8, 74337, Note_on_c, 6, 65, 0
8, 74340, Note_on_c, 6, 67, 100
8, 74394, Note_on_c, 6, 67, 0
8, 74400, Note_on_c, 6, 69, 100
8, 74508, Note_on_c, 6, 69, 0
8, 75180, Note_on_c, 6, 69, 100
8, 75207, Note_on_c, 6, 69, 0
8, 75210, Note_on_c, 6, 71, 100
8, 75237, Note_on_c, 6, 71, 0
8, 75240, Note_on_c, 6, 73, 100
8, 75267, Note_on_c, 6, 73, 0
8, 75270, Note_on_c, 6, 74, 100
8, 75297, Note_on_c, 6, 74, 0
8, 75300, Note_on_c, 6, 76, 100
8, 75354, Note_on_c, 6, 76, 0
8, 75360, Note_on_c, 6, 77, 100
8, 75468, Note_on_c, 6, 77, 0
8, 75600, Note_on_c, 6, 81, 100
8, 76056, Note_on_c, 6, 81, 0
8, 76080, Note_on_c, 6, 79, 100
8, 76512, Note_on_c, 6, 79, 0
8, 76560, Note_on_c, 6, 77, 100
8, 77016, Note_on_c, 6, 77, 0
8, 77040, Note_on_c, 6, 76, 100
8, 77472, Note_on_c, 6, 76, 0
8, 77520, Note_on_c, 6, 74, 100
8, 77976, Note_on_c, 6, 74, 0
8, 78000, Note_on_c, 6, 72, 100
8, 78432, Note_on_c, 6, 72, 0
8, 78480, Note_on_c, 6, 71, 100
8, 78588, Note_on_c, 6, 71, 0
8, 78600, Note_on_c, 6, 69, 100
8, 78708, Note_on_c, 6, 69, 0
8, 78720, Note_on_c, 6, 68, 100
8, 78828, Note_on_c, 6, 68, 0
8, 78840, Note_on_c, 6, 64, 100
8, 78948, Note_on_c, 6, 64, 0
8, 79200, Note_on_c, 6, 76, 100
8, 80544, Note_on_c, 6, 76, 0
8, 80640, Note_on_c, 6, 76, 100
8, 80856, Note_on_c, 6, 76, 0
8, 81120, Note_on_c, 6, 78, 100
8, 81336, Note_on_c, 6, 78, 0
8, 81600, Note_on_c, 6, 78, 100
8, 81816, Note_on_c, 6, 78, 0
8, 82080, Note_on_c, 6, 76, 100
8, 82296, Note_on_c, 6, 76, 0
8, 82560, Note_on_c, 6, 76, 100
8, 82776, Note_on_c, 6, 76, 0
8, 83040, Note_on_c, 6, 75, 100
8, 83148, Note_on_c, 6, 75, 0
8, 83160, Note_on_c, 6, 81, 100
8, 83268, Note_on_c, 6, 81, 0
8, 83280, Note_on_c, 6, 81, 100
8, 83388, Note_on_c, 6, 81, 0
8, 83400, Note_on_c, 6, 71, 100
8, 83508, Note_on_c, 6, 71, 0
8, 83520, Note_on_c, 6, 71, 100
8, 83628, Note_on_c, 6, 71, 0
8, 83640, Note_on_c, 6, 79, 100
8, 83748, Note_on_c, 6, 79, 0
8, 83760, Note_on_c, 6, 79, 100
8, 83868, Note_on_c, 6, 79, 0
8, 83880, Note_on_c, 6, 71, 100
8, 83988, Note_on_c, 6, 71, 0
8, 84000, Note_on_c, 6, 69, 100
8, 84108, Note_on_c, 6, 69, 0
8, 84120, Note_on_c, 6, 78, 100
8, 84228, Note_on_c, 6, 78, 0
8, 84240, Note_on_c, 6, 78, 100
8, 84348, Note_on_c, 6, 78, 0
8, 84360, Note_on_c, 6, 75, 100
8, 84468, Note_on_c, 6, 75, 0
8, 84480, Note_on_c, 6, 76, 100
8, 84588, Note_on_c, 6, 76, 0
8, 84600, Note_on_c, 6, 76, 100
8, 84816, Note_on_c, 6, 76, 0
8, 84840, Note_on_c, 6, 76, 100
8, 85068, Note_on_c, 6, 76, 0
8, 85080, Note_on_c, 6, 76, 100
8, 85296, Note_on_c, 6, 76, 0
8, 85320, Note_on_c, 6, 81, 100
8, 85428, Note_on_c, 6, 81, 0
8, 85440, Note_on_c, 6, 81, 100
8, 85656, Note_on_c, 6, 81, 0
8, 85800, Note_on_c, 6, 83, 100
8, 85854, Note_on_c, 6, 83, 0
8, 85860, Note_on_c, 6, 75, 100
8, 85914, Note_on_c, 6, 75, 0
8, 85920, Note_on_c, 6, 76, 100
8, 86082, Note_on_c, 6, 76, 0
8, 86100, Note_on_c, 6, 78, 100
8, 86154, Note_on_c, 6, 78, 0
8, 86160, Note_on_c, 6, 78, 100
8, 86322, Note_on_c, 6, 78, 0
8, 86340, Note_on_c, 6, 76, 100
8, 86394, Note_on_c, 6, 76, 0
8, 86400, Note_on_c, 6, 76, 100
8, 86616, Note_on_c, 6, 76, 0
8, 87360, Note_on_c, 6, 76, 100
8, 87576, Note_on_c, 6, 76, 0
8, 88320, Note_on_c, 6, 74, 100
8, 88536, Note_on_c, 6, 74, 0
8, 89280, Note_on_c, 6, 74, 100
8, 89496, Note_on_c, 6, 74, 0
8, 90240, Note_on_c, 6, 76, 100
8, 90456, Note_on_c, 6, 76, 0
8, 91200, Note_on_c, 6, 80, 100
8, 91416, Note_on_c, 6, 80, 0
8, 91920, Note_on_c, 6, 78, 100
8, 92136, Note_on_c, 6, 78, 0
8, 92160, Note_on_c, 6, 79, 100
8, 92376, Note_on_c, 6, 79, 0
8, 92880, Note_on_c, 6, 77, 100
8, 93096, Note_on_c, 6, 77, 0
8, 93120, Note_on_c, 6, 76, 100
8, 93228, Note_on_c, 6, 76, 0
8, 93240, Note_on_c, 6, 67, 100
8, 93348, Note_on_c, 6, 67, 0
8, 93360, Note_on_c, 6, 72, 100
8, 93468, Note_on_c, 6, 72, 0
8, 93480, Note_on_c, 6, 67, 100
8, 93588, Note_on_c, 6, 67, 0
8, 93600, Note_on_c, 6, 72, 100
8, 93708, Note_on_c, 6, 72, 0
8, 93720, Note_on_c, 6, 71, 100
8, 93774, Note_on_c, 6, 71, 0
8, 93780, Note_on_c, 6, 69, 100
8, 93834, Note_on_c, 6, 69, 0
8, 93840, Note_on_c, 6, 67, 100
8, 93948, Note_on_c, 6, 67, 0
8, 93960, Note_on_c, 6, 69, 100
8, 94014, Note_on_c, 6, 69, 0
8, 94020, Note_on_c, 6, 71, 100
8, 94074, Note_on_c, 6, 71, 0
8, 94080, Note_on_c, 6, 72, 100
8, 94188, Note_on_c, 6, 72, 0
8, 94200, Note_on_c, 6, 71, 100
8, 94254, Note_on_c, 6, 71, 0
8, 94260, Note_on_c, 6, 69, 100
8, 94314, Note_on_c, 6, 69, 0
8, 94320, Note_on_c, 6, 67, 100
8, 94428, Note_on_c, 6, 67, 0
8, 94440, Note_on_c, 6, 71, 100
8, 94548, Note_on_c, 6, 71, 0
8, 94560, Note_on_c, 6, 72, 100
8, 94776, Note_on_c, 6, 72, 0
8, 95040, Note_on_c, 6, 72, 100
8, 95256, Note_on_c, 6, 72, 0
8, 95520, Note_on_c, 6, 74, 100
8, 95736, Note_on_c, 6, 74, 0
8, 96000, Note_on_c, 6, 74, 100
8, 96216, Note_on_c, 6, 74, 0
8, 96480, Note_on_c, 6, 76, 100
8, 96696, Note_on_c, 6, 76, 0
8, 96960, Note_on_c, 6, 76, 100
8, 97176, Note_on_c, 6, 76, 0
8, 97440, Note_on_c, 6, 74, 100
8, 97548, Note_on_c, 6, 74, 0
8, 97560, Note_on_c, 6, 81, 100
8, 97668, Note_on_c, 6, 81, 0
8, 97680, Note_on_c, 6, 77, 100
8, 97788, Note_on_c, 6, 77, 0
8, 97800, Note_on_c, 6, 74, 100
8, 97908, Note_on_c, 6, 74, 0
8, 98040, Note_on_c, 6, 74, 100
8, 98148, Note_on_c, 6, 74, 0
8, 98160, Note_on_c, 6, 71, 100
8, 98268, Note_on_c, 6, 71, 0
8, 98280, Note_on_c, 6, 67, 100
8, 98388, Note_on_c, 6, 67, 0
8, 98520, Note_on_c, 6, 79, 100
8, 98628, Note_on_c, 6, 79, 0
8, 98640, Note_on_c, 6, 76, 100
8, 98748, Note_on_c, 6, 76, 0
8, 98760, Note_on_c, 6, 72, 100
8, 98868, Note_on_c, 6, 72, 0
8, 99000, Note_on_c, 6, 72, 100
8, 99108, Note_on_c, 6, 72, 0
8, 99120, Note_on_c, 6, 69, 100
8, 99228, Note_on_c, 6, 69, 0
8, 99240, Note_on_c, 6, 65, 100
8, 99348, Note_on_c, 6, 65, 0
8, 99480, Note_on_c, 6, 77, 100
8, 99588, Note_on_c, 6, 77, 0
8, 99600, Note_on_c, 6, 74, 100
8, 99708, Note_on_c, 6, 74, 0
8, 99720, Note_on_c, 6, 71, 100
8, 99828, Note_on_c, 6, 71, 0
8, 99840, Note_on_c, 6, 80, 100
8, 100272, Note_on_c, 6, 80, 0
8, 100320, Note_on_c, 6, 79, 100
8, 100752, Note_on_c, 6, 79, 0
8, 100800, Note_on_c, 6, 78, 100
8, 101232, Note_on_c, 6, 78, 0
8, 101280, Note_on_c, 6, 77, 100
8, 101712, Note_on_c, 6, 77, 0
8, 101760, Note_on_c, 6, 76, 100
8, 102192, Note_on_c, 6, 76, 0
8, 102240, Note_on_c, 6, 75, 100
8, 102456, Note_on_c, 6, 75, 0
8, 103320, Note_on_c, 6, 78, 100
8, 103428, Note_on_c, 6, 78, 0
8, 103440, Note_on_c, 6, 78, 100
8, 103548, Note_on_c, 6, 78, 0
8, 103560, Note_on_c, 6, 78, 100
8, 103668, Note_on_c, 6, 78, 0
8, 103680, Note_on_c, 6, 79, 100
8, 103788, Note_on_c, 6, 79, 0
8, 104760, Note_on_c, 6, 79, 100
8, 104868, Note_on_c, 6, 79, 0
8, 104880, Note_on_c, 6, 79, 100
8, 104988, Note_on_c, 6, 79, 0
8, 105000, Note_on_c, 6, 77, 100
8, 105108, Note_on_c, 6, 77, 0
8, 105120, Note_on_c, 6, 76, 100
8, 105228, Note_on_c, 6, 76, 0
8, 106200, Note_on_c, 6, 76, 100
8, 106308, Note_on_c, 6, 76, 0
8, 106320, Note_on_c, 6, 76, 100
8, 106428, Note_on_c, 6, 76, 0
8, 106440, Note_on_c, 6, 76, 100
8, 106548, Note_on_c, 6, 76, 0
8, 106560, Note_on_c, 6, 77, 100
8, 106668, Note_on_c, 6, 77, 0
8, 106680, Note_on_c, 6, 72, 100
8, 106788, Note_on_c, 6, 72, 0
8, 106800, Note_on_c, 6, 74, 100
8, 107148, Note_on_c, 6, 74, 0
8, 107160, Note_on_c, 6, 74, 100
8, 107268, Note_on_c, 6, 74, 0
8, 107280, Note_on_c, 6, 76, 100
8, 107628, Note_on_c, 6, 76, 0
8, 107640, Note_on_c, 6, 76, 100
8, 107748, Note_on_c, 6, 76, 0
8, 107760, Note_on_c, 6, 77, 100
8, 108108, Note_on_c, 6, 77, 0
8, 108120, Note_on_c, 6, 77, 100
8, 108228, Note_on_c, 6, 77, 0
8, 108240, Note_on_c, 6, 79, 100
8, 108534, Note_on_c, 6, 79, 0
8, 108540, Note_on_c, 6, 72, 100
8, 108594, Note_on_c, 6, 72, 0
8, 108600, Note_on_c, 6, 76, 100
8, 108654, Note_on_c, 6, 76, 0
8, 108660, Note_on_c, 6, 79, 100
8, 108714, Note_on_c, 6, 79, 0
8, 108720, Note_on_c, 6, 84, 100
8, 108774, Note_on_c, 6, 84, 0
8, 108780, Note_on_c, 6, 82, 100
8, 108834, Note_on_c, 6, 82, 0
8, 108840, Note_on_c, 6, 81, 100
8, 108894, Note_on_c, 6, 81, 0
8, 108900, Note_on_c, 6, 79, 100
8, 108954, Note_on_c, 6, 79, 0
8, 108960, Note_on_c, 6, 81, 100
8, 109014, Note_on_c, 6, 81, 0
8, 109020, Note_on_c, 6, 79, 100
8, 109074, Note_on_c, 6, 79, 0
8, 109080, Note_on_c, 6, 77, 100
8, 109134, Note_on_c, 6, 77, 0
8, 109140, Note_on_c, 6, 76, 100
8, 109194, Note_on_c, 6, 76, 0
8, 109200, Note_on_c, 6, 77, 100
8, 109254, Note_on_c, 6, 77, 0
8, 109260, Note_on_c, 6, 76, 100
8, 109314, Note_on_c, 6, 76, 0
8, 109320, Note_on_c, 6, 74, 100
8, 109374, Note_on_c, 6, 74, 0
8, 109380, Note_on_c, 6, 72, 100
8, 109434, Note_on_c, 6, 72, 0
8, 109440, Note_on_c, 6, 71, 100
8, 109872, Note_on_c, 6, 71, 0
8, 109920, Note_on_c, 6, 72, 100
8, 110352, Note_on_c, 6, 72, 0
8, 110400, Note_on_c, 6, 74, 100
8, 110832, Note_on_c, 6, 74, 0
8, 110880, Note_on_c, 6, 75, 100
8, 111312, Note_on_c, 6, 75, 0
8, 111360, Note_on_c, 6, 77, 100
8, 112224, Note_on_c, 6, 77, 0
8, 112320, Note_on_c, 6, 76, 100
8, 112752, Note_on_c, 6, 76, 0
8, 112800, Note_on_c, 6, 78, 100
8, 113232, Note_on_c, 6, 78, 0
8, 113280, Note_on_c, 6, 79, 100
8, 113712, Note_on_c, 6, 79, 0
8, 113760, Note_on_c, 6, 81, 100
8, 114192, Note_on_c, 6, 81, 0
8, 114240, Note_on_c, 6, 83, 100
8, 114348, Note_on_c, 6, 83, 0
8, 114360, Note_on_c, 6, 79, 100
8, 114576, Note_on_c, 6, 79, 0
8, 114600, Note_on_c, 6, 79, 100
8, 114828, Note_on_c, 6, 79, 0
8, 114840, Note_on_c, 6, 76, 100
8, 114948, Note_on_c, 6, 76, 0
8, 114960, Note_on_c, 6, 73, 100
8, 115068, Note_on_c, 6, 73, 0
8, 115080, Note_on_c, 6, 69, 100
8, 115188, Note_on_c, 6, 69, 0
8, 115200, Note_on_c, 6, 74, 100
8, 115254, Note_on_c, 6, 74, 0
8, 115260, Note_on_c, 6, 76, 100
8, 115314, Note_on_c, 6, 76, 0
8, 115320, Note_on_c, 6, 77, 100
8, 115536, Note_on_c, 6, 77, 0
8, 115560, Note_on_c, 6, 77, 100
8, 115788, Note_on_c, 6, 77, 0
8, 115800, Note_on_c, 6, 74, 100
8, 115908, Note_on_c, 6, 74, 0
8, 115920, Note_on_c, 6, 71, 100
8, 116028, Note_on_c, 6, 71, 0
8, 116040, Note_on_c, 6, 67, 100
8, 116148, Note_on_c, 6, 67, 0
8, 116160, Note_on_c, 6, 72, 100
8, 116214, Note_on_c, 6, 72, 0
8, 116220, Note_on_c, 6, 74, 100
8, 116274, Note_on_c, 6, 74, 0
8, 116280, Note_on_c, 6, 76, 100
8, 116496, Note_on_c, 6, 76, 0
8, 116520, Note_on_c, 6, 76, 100
8, 116748, Note_on_c, 6, 76, 0
8, 116760, Note_on_c, 6, 72, 100
8, 116868, Note_on_c, 6, 72, 0
8, 116880, Note_on_c, 6, 69, 100
8, 116988, Note_on_c, 6, 69, 0
8, 117000, Note_on_c, 6, 74, 100
8, 117108, Note_on_c, 6, 74, 0
8, 117120, Note_on_c, 6, 74, 100
8, 117228, Note_on_c, 6, 74, 0
8, 117360, Note_on_c, 6, 76, 100
8, 117468, Note_on_c, 6, 76, 0
8, 117600, Note_on_c, 6, 76, 100
8, 117708, Note_on_c, 6, 76, 0
8, 117840, Note_on_c, 6, 74, 100
8, 117948, Note_on_c, 6, 74, 0
8, 118080, Note_on_c, 6, 74, 100
8, 118188, Note_on_c, 6, 74, 0
8, 118320, Note_on_c, 6, 72, 100
8, 118428, Note_on_c, 6, 72, 0
8, 118560, Note_on_c, 6, 72, 100
8, 118668, Note_on_c, 6, 72, 0
8, 118800, Note_on_c, 6, 71, 100
8, 118908, Note_on_c, 6, 71, 0
8, 119040, Note_on_c, 6, 72, 100
8, 119148, Note_on_c, 6, 72, 0
8, 119160, Note_on_c, 6, 67, 100
8, 119268, Note_on_c, 6, 67, 0
8, 119280, Note_on_c, 6, 64, 100
8, 119388, Note_on_c, 6, 64, 0
8, 119400, Note_on_c, 6, 72, 100
8, 119508, Note_on_c, 6, 72, 0
8, 119640, Note_on_c, 6, 69, 100
8, 119748, Note_on_c, 6, 69, 0
8, 119760, Note_on_c, 6, 65, 100
8, 119868, Note_on_c, 6, 65, 0
8, 119880, Note_on_c, 6, 74, 100
8, 119988, Note_on_c, 6, 74, 0
8, 120120, Note_on_c, 6, 71, 100
8, 120228, Note_on_c, 6, 71, 0
8, 120240, Note_on_c, 6, 67, 100
8, 120348, Note_on_c, 6, 67, 0
8, 120360, Note_on_c, 6, 76, 100
8, 120468, Note_on_c, 6, 76, 0
8, 120600, Note_on_c, 6, 72, 100
8, 120708, Note_on_c, 6, 72, 0
8, 120720, Note_on_c, 6, 69, 100
8, 120828, Note_on_c, 6, 69, 0
8, 120840, Note_on_c, 6, 77, 100
8, 120948, Note_on_c, 6, 77, 0
8, 121080, Note_on_c, 6, 74, 100
8, 121188, Note_on_c, 6, 74, 0
8, 121200, Note_on_c, 6, 71, 100
8, 121308, Note_on_c, 6, 71, 0
8, 121320, Note_on_c, 6, 79, 100
8, 121428, Note_on_c, 6, 79, 0
8, 121560, Note_on_c, 6, 72, 100
8, 121614, Note_on_c, 6, 72, 0
8, 121620, Note_on_c, 6, 71, 100
8, 121674, Note_on_c, 6, 71, 0
8, 121680, Note_on_c, 6, 72, 100
8, 121842, Note_on_c, 6, 72, 0
8, 121860, Note_on_c, 6, 74, 100
8, 121914, Note_on_c, 6, 74, 0
8, 121920, Note_on_c, 6, 71, 100
8, 121947, Note_on_c, 6, 71, 0
8, 121950, Note_on_c, 6, 69, 100
8, 121977, Note_on_c, 6, 69, 0
8, 121980, Note_on_c, 6, 67, 100
8, 122034, Note_on_c, 6, 67, 0
8, 126720, Note_on_c, 6, 76, 100
8, 126828, Note_on_c, 6, 76, 0
8, 126840, Note_on_c, 6, 76, 100
8, 127056, Note_on_c, 6, 76, 0
8, 127080, Note_on_c, 6, 76, 100
8, 127254, Note_on_c, 6, 76, 0
8, 127260, Note_on_c, 6, 74, 100
8, 127314, Note_on_c, 6, 74, 0
8, 127320, Note_on_c, 6, 76, 100
8, 127374, Note_on_c, 6, 76, 0
8, 127380, Note_on_c, 6, 77, 100
8, 127434, Note_on_c, 6, 77, 0
8, 127440, Note_on_c, 6, 79, 100
8, 127476, Note_on_c, 6, 79, 0
8, 127480, Note_on_c, 6, 77, 100
8, 127516, Note_on_c, 6, 77, 0
8, 127520, Note_on_c, 6, 76, 100
8, 127556, Note_on_c, 6, 76, 0
8, 127560, Note_on_c, 6, 77, 100
8, 127596, Note_on_c, 6, 77, 0
8, 127600, Note_on_c, 6, 76, 100
8, 127636, Note_on_c, 6, 76, 0
8, 127640, Note_on_c, 6, 74, 100
8, 127676, Note_on_c, 6, 74, 0
8, 127680, Note_on_c, 6, 76, 100
8, 127716, Note_on_c, 6, 76, 0
8, 127720, Note_on_c, 6, 74, 100
8, 127756, Note_on_c, 6, 74, 0
8, 127760, Note_on_c, 6, 72, 100
8, 127796, Note_on_c, 6, 72, 0
8, 127800, Note_on_c, 6, 74, 100
8, 127908, Note_on_c, 6, 74, 0
8, 127920, Note_on_c, 6, 67, 100
8, 128028, Note_on_c, 6, 67, 0
8, 128040, Note_on_c, 6, 71, 100
8, 128148, Note_on_c, 6, 71, 0
8, 128160, Note_on_c, 6, 72, 100
8, 128268, Note_on_c, 6, 72, 0
8, 128280, Note_on_c, 6, 60, 100
8, 128388, Note_on_c, 6, 60, 0
8, 128640, Note_on_c, 6, 74, 100
8, 128694, Note_on_c, 6, 74, 0
8, 128700, Note_on_c, 6, 79, 100
8, 128754, Note_on_c, 6, 79, 0
8, 128760, Note_on_c, 6, 78, 100
8, 128814, Note_on_c, 6, 78, 0
8, 128820, Note_on_c, 6, 76, 100
8, 128874, Note_on_c, 6, 76, 0
8, 128880, Note_on_c, 6, 74, 100
8, 128934, Note_on_c, 6, 74, 0
8, 128940, Note_on_c, 6, 72, 100
8, 128994, Note_on_c, 6, 72, 0
8, 129000, Note_on_c, 6, 71, 100
8, 129054, Note_on_c, 6, 71, 0
8, 129060, Note_on_c, 6, 69, 100
8, 129114, Note_on_c, 6, 69, 0
8, 129120, Note_on_c, 6, 67, 100
8, 129174, Note_on_c, 6, 67, 0
8, 129180, Note_on_c, 6, 74, 100
8, 129234, Note_on_c, 6, 74, 0
8, 129240, Note_on_c, 6, 76, 100
8, 129294, Note_on_c, 6, 76, 0
8, 129300, Note_on_c, 6, 78, 100
8, 129354, Note_on_c, 6, 78, 0
8, 129360, Note_on_c, 6, 79, 100
8, 129468, Note_on_c, 6, 79, 0
8, 129480, Note_on_c, 6, 67, 100
8, 129654, Note_on_c, 6, 67, 0
8, 129660, Note_on_c, 6, 62, 100
8, 129714, Note_on_c, 6, 62, 0
8, 129720, Note_on_c, 6, 72, 100
8, 129828, Note_on_c, 6, 72, 0
8, 129840, Note_on_c, 6, 71, 100
8, 129948, Note_on_c, 6, 71, 0
8, 129960, Note_on_c, 6, 69, 100
8, 130068, Note_on_c, 6, 69, 0
8, 130080, Note_on_c, 6, 67, 100
8, 130134, Note_on_c, 6, 67, 0
8, 130140, Note_on_c, 6, 69, 100
8, 130194, Note_on_c, 6, 69, 0
8, 130200, Note_on_c, 6, 71, 100
8, 130308, Note_on_c, 6, 71, 0
8, 130440, Note_on_c, 6, 71, 100
8, 130548, Note_on_c, 6, 71, 0
8, 130680, Note_on_c, 6, 72, 100
8, 130788, Note_on_c, 6, 72, 0
8, 130920, Note_on_c, 6, 72, 100
8, 131028, Note_on_c, 6, 72, 0
8, 131160, Note_on_c, 6, 74, 100
8, 131268, Note_on_c, 6, 74, 0
8, 131400, Note_on_c, 6, 74, 100
8, 131508, Note_on_c, 6, 74, 0
8, 131520, Note_on_c, 6, 76, 100
8, 131574, Note_on_c, 6, 76, 0
8, 131580, Note_on_c, 6, 77, 100
8, 131634, Note_on_c, 6, 77, 0
8, 131640, Note_on_c, 6, 79, 100
8, 131748, Note_on_c, 6, 79, 0
8, 131820, Note_on_c, 6, 79, 100
8, 131874, Note_on_c, 6, 79, 0
8, 131880, Note_on_c, 6, 77, 100
8, 131934, Note_on_c, 6, 77, 0
8, 131940, Note_on_c, 6, 76, 100
8, 131994, Note_on_c, 6, 76, 0
8, 132000, Note_on_c, 6, 74, 100
8, 132054, Note_on_c, 6, 74, 0
8, 132060, Note_on_c, 6, 76, 100
8, 132114, Note_on_c, 6, 76, 0
8, 132120, Note_on_c, 6, 77, 100
8, 132228, Note_on_c, 6, 77, 0
8, 132300, Note_on_c, 6, 77, 100
8, 132354, Note_on_c, 6, 77, 0
8, 132360, Note_on_c, 6, 76, 100
8, 132414, Note_on_c, 6, 76, 0
8, 132420, Note_on_c, 6, 74, 100
8, 132474, Note_on_c, 6, 74, 0
8, 132480, Note_on_c, 6, 72, 100
8, 132534, Note_on_c, 6, 72, 0
8, 132540, Note_on_c, 6, 74, 100
8, 132594, Note_on_c, 6, 74, 0
8, 132600, Note_on_c, 6, 76, 100
8, 132816, Note_on_c, 6, 76, 0
8, 132840, Note_on_c, 6, 76, 100
8, 132987, Note_on_c, 6, 76, 0
8, 132990, Note_on_c, 6, 74, 100
8, 133017, Note_on_c, 6, 74, 0
8, 133020, Note_on_c, 6, 72, 100
8, 133074, Note_on_c, 6, 72, 0
8, 133080, Note_on_c, 6, 81, 100
8, 133296, Note_on_c, 6, 81, 0
8, 133320, Note_on_c, 6, 81, 100
8, 133467, Note_on_c, 6, 81, 0
8, 133470, Note_on_c, 6, 79, 100
8, 133497, Note_on_c, 6, 79, 0
8, 133500, Note_on_c, 6, 77, 100
8, 133554, Note_on_c, 6, 77, 0
8, 133560, Note_on_c, 6, 86, 100
8, 133776, Note_on_c, 6, 86, 0
8, 133800, Note_on_c, 6, 86, 100
8, 133947, Note_on_c, 6, 86, 0
8, 133950, Note_on_c, 6, 84, 100
8, 133977, Note_on_c, 6, 84, 0
8, 133980, Note_on_c, 6, 83, 100
8, 134034, Note_on_c, 6, 83, 0
8, 134040, Note_on_c, 6, 84, 100
8, 134094, Note_on_c, 6, 84, 0
8, 134100, Note_on_c, 6, 76, 100
8, 134154, Note_on_c, 6, 76, 0
8, 134160, Note_on_c, 6, 74, 100
8, 134268, Note_on_c, 6, 74, 0
8, 134280, Note_on_c, 6, 83, 100
8, 134388, Note_on_c, 6, 83, 0
8, 134400, Note_on_c, 6, 84, 100
8, 134616, Note_on_c, 6, 84, 0
8, 134616, End_track
9, 0, Start_track
9, 0, Title_t, "II"
9, 0, Program_c, 7, 40
9, 0, Control_c, 7, 7, 120
9, 0, Control_c, 7, 10, 114
9, 0, Note_on_c, 7, 72, 100
9, 108, Note_on_c, 7, 72, 0
9, 120, Note_on_c, 7, 72, 100
9, 336, Note_on_c, 7, 72, 0
9, 360, Note_on_c, 7, 72, 100
9, 534, Note_on_c, 7, 72, 0
9, 540, Note_on_c, 7, 71, 100
9, 594, Note_on_c, 7, 71, 0
9, 600, Note_on_c, 7, 72, 100
9, 654, Note_on_c, 7, 72, 0
9, 660, Note_on_c, 7, 74, 100
9, 714, Note_on_c, 7, 74, 0
9, 720, Note_on_c, 7, 76, 100
9, 828, Note_on_c, 7, 76, 0
9, 1080, Note_on_c, 7, 65, 100
9, 1188, Note_on_c, 7, 65, 0
9, 1200, Note_on_c, 7, 64, 100
9, 1308, Note_on_c, 7, 64, 0
9, 1320, Note_on_c, 7, 62, 100
9, 1428, Note_on_c, 7, 62, 0
9, 1440, Note_on_c, 7, 60, 100
9, 1656, Note_on_c, 7, 60, 0
9, 1920, Note_on_c, 7, 71, 100
9, 2028, Note_on_c, 7, 71, 0
9, 2040, Note_on_c, 7, 71, 100
9, 2256, Note_on_c, 7, 71, 0
9, 2280, Note_on_c, 7, 71, 100
9, 2454, Note_on_c, 7, 71, 0
9, 2460, Note_on_c, 7, 69, 100
9, 2514, Note_on_c, 7, 69, 0
9, 2520, Note_on_c, 7, 71, 100
9, 2574, Note_on_c, 7, 71, 0
9, 2580, Note_on_c, 7, 72, 100
9, 2634, Note_on_c, 7, 72, 0
9, 2640, Note_on_c, 7, 74, 100
9, 2676, Note_on_c, 7, 74, 0
9, 2680, Note_on_c, 7, 72, 100
9, 2716, Note_on_c, 7, 72, 0
9, 2720, Note_on_c, 7, 71, 100
9, 2756, Note_on_c, 7, 71, 0
9, 2760, Note_on_c, 7, 72, 100
9, 2796, Note_on_c, 7, 72, 0
9, 2800, Note_on_c, 7, 71, 100
9, 2836, Note_on_c, 7, 71, 0
9, 2840, Note_on_c, 7, 69, 100
9, 2876, Note_on_c, 7, 69, 0
9, 2880, Note_on_c, 7, 71, 100
9, 2916, Note_on_c, 7, 71, 0
9, 2920, Note_on_c, 7, 69, 100
9, 2956, Note_on_c, 7, 69, 0
9, 2960, Note_on_c, 7, 67, 100
9, 2996, Note_on_c, 7, 67, 0
9, 3000, Note_on_c, 7, 69, 100
9, 3108, Note_on_c, 7, 69, 0
9, 3120, Note_on_c, 7, 62, 100
9, 3228, Note_on_c, 7, 62, 0
9, 3240, Note_on_c, 7, 66, 100
9, 3348, Note_on_c, 7, 66, 0
9, 3360, Note_on_c, 7, 67, 100
9, 3468, Note_on_c, 7, 67, 0
9, 3480, Note_on_c, 7, 67, 100
9, 3588, Note_on_c, 7, 67, 0
9, 3720, Note_on_c, 7, 67, 100
9, 3828, Note_on_c, 7, 67, 0
9, 3960, Note_on_c, 7, 67, 100
9, 4068, Note_on_c, 7, 67, 0
9, 4200, Note_on_c, 7, 67, 100
9, 4308, Note_on_c, 7, 67, 0
9, 4440, Note_on_c, 7, 67, 100
9, 4548, Note_on_c, 7, 67, 0
9, 4680, Note_on_c, 7, 67, 100
9, 4788, Note_on_c, 7, 67, 0
9, 4800, Note_on_c, 7, 67, 100
9, 4854, Note_on_c, 7, 67, 0
9, 4860, Note_on_c, 7, 69, 100
9, 4914, Note_on_c, 7, 69, 0
9, 4920, Note_on_c, 7, 71, 100
9, 5028, Note_on_c, 7, 71, 0
9, 5040, Note_on_c, 7, 64, 100
9, 5202, Note_on_c, 7, 64, 0
9, 5220, Note_on_c, 7, 62, 100
9, 5247, Note_on_c, 7, 62, 0
9, 5250, Note_on_c, 7, 64, 100
9, 5277, Note_on_c, 7, 64, 0
9, 5280, Note_on_c, 7, 65, 100
9, 5334, Note_on_c, 7, 65, 0
9, 5340, Note_on_c, 7, 67, 100
9, 5394, Note_on_c, 7, 67, 0
9, 5400, Note_on_c, 7, 69, 100
9, 5508, Note_on_c, 7, 69, 0
9, 5520, Note_on_c, 7, 62, 100
9, 5682, Note_on_c, 7, 62, 0
9, 5700, Note_on_c, 7, 60, 100
9, 5727, Note_on_c, 7, 60, 0
9, 5730, Note_on_c, 7, 62, 100
9, 5757, Note_on_c, 7, 62, 0
9, 5760, Note_on_c, 7, 64, 100
9, 5814, Note_on_c, 7, 64, 0
9, 5820, Note_on_c, 7, 67, 100
9, 5874, Note_on_c, 7, 67, 0
9, 5880, Note_on_c, 7, 72, 100
9, 6096, Note_on_c, 7, 72, 0
9, 6120, Note_on_c, 7, 72, 100
9, 6267, Note_on_c, 7, 72, 0
9, 6270, Note_on_c, 7, 71, 100
9, 6297, Note_on_c, 7, 71, 0
9, 6300, Note_on_c, 7, 69, 100
9, 6354, Note_on_c, 7, 69, 0
9, 6360, Note_on_c, 7, 77, 100
9, 6576, Note_on_c, 7, 77, 0
9, 6600, Note_on_c, 7, 77, 100
9, 6747, Note_on_c, 7, 77, 0
9, 6750, Note_on_c, 7, 79, 100
9, 6777, Note_on_c, 7, 79, 0
9, 6780, Note_on_c, 7, 81, 100
9, 6834, Note_on_c, 7, 81, 0
9, 6840, Note_on_c, 7, 69, 100
9, 7056, Note_on_c, 7, 69, 0
9, 7080, Note_on_c, 7, 69, 100
9, 7134, Note_on_c, 7, 69, 0
9, 7140, Note_on_c, 7, 67, 100
9, 7194, Note_on_c, 7, 67, 0
9, 7200, Note_on_c, 7, 79, 100
9, 7308, Note_on_c, 7, 79, 0
9, 7320, Note_on_c, 7, 72, 100
9, 7428, Note_on_c, 7, 72, 0
9, 7440, Note_on_c, 7, 71, 100
9, 7548, Note_on_c, 7, 71, 0
9, 7560, Note_on_c, 7, 74, 100
9, 7668, Note_on_c, 7, 74, 0
9, 7680, Note_on_c, 7, 76, 100
9, 7788, Note_on_c, 7, 76, 0
9, 7800, Note_on_c, 7, 67, 100
9, 7908, Note_on_c, 7, 67, 0
9, 7920, Note_on_c, 7, 72, 100
9, 8028, Note_on_c, 7, 72, 0
9, 8040, Note_on_c, 7, 67, 100
9, 8148, Note_on_c, 7, 67, 0
9, 8160, Note_on_c, 7, 72, 100
9, 8268, Note_on_c, 7, 72, 0
9, 8280, Note_on_c, 7, 71, 100
9, 8334, Note_on_c, 7, 71, 0
9, 8340, Note_on_c, 7, 69, 100
9, 8394, Note_on_c, 7, 69, 0
9, 8400, Note_on_c, 7, 67, 100
9, 8508, Note_on_c, 7, 67, 0
9, 8520, Note_on_c, 7, 69, 100
9, 8574, Note_on_c, 7, 69, 0
9, 8580, Note_on_c, 7, 71, 100
9, 8634, Note_on_c, 7, 71, 0
9, 8640, Note_on_c, 7, 72, 100
9, 8748, Note_on_c, 7, 72, 0
9, 8760, Note_on_c, 7, 71, 100
9, 8814, Note_on_c, 7, 71, 0
9, 8820, Note_on_c, 7, 69, 100
9, 8874, Note_on_c, 7, 69, 0
9, 8880, Note_on_c, 7, 67, 100
9, 8988, Note_on_c, 7, 67, 0
9, 9000, Note_on_c, 7, 65, 100
9, 9108, Note_on_c, 7, 65, 0
9, 9120, Note_on_c, 7, 64, 100
9, 9174, Note_on_c, 7, 64, 0
9, 9180, Note_on_c, 7, 65, 100
9, 9234, Note_on_c, 7, 65, 0
9, 9240, Note_on_c, 7, 67, 100
9, 9294, Note_on_c, 7, 67, 0
9, 9300, Note_on_c, 7, 64, 100
9, 9354, Note_on_c, 7, 64, 0
9, 9360, Note_on_c, 7, 60, 100
9, 9468, Note_on_c, 7, 60, 0
9, 9720, Note_on_c, 7, 72, 100
9, 9936, Note_on_c, 7, 72, 0
9, 9960, Note_on_c, 7, 72, 100
9, 10134, Note_on_c, 7, 72, 0
9, 10140, Note_on_c, 7, 71, 100
9, 10194, Note_on_c, 7, 71, 0
9, 10200, Note_on_c, 7, 72, 100
9, 10254, Note_on_c, 7, 72, 0
9, 10260, Note_on_c, 7, 74, 100
9, 10314, Note_on_c, 7, 74, 0
9, 10320, Note_on_c, 7, 76, 100
9, 10428, Note_on_c, 7, 76, 0
9, 10680, Note_on_c, 7, 65, 100
9, 10788, Note_on_c, 7, 65, 0
9, 10800, Note_on_c, 7, 64, 100
9, 10908, Note_on_c, 7, 64, 0
9, 10920, Note_on_c, 7, 62, 100
9, 11028, Note_on_c, 7, 62, 0
9, 11040, Note_on_c, 7, 60, 100
9, 11256, Note_on_c, 7, 60, 0
9, 11520, Note_on_c, 7, 67, 100
9, 11628, Note_on_c, 7, 67, 0
9, 11640, Note_on_c, 7, 62, 100
9, 11748, Note_on_c, 7, 62, 0
9, 11760, Note_on_c, 7, 67, 100
9, 11868, Note_on_c, 7, 67, 0
9, 11880, Note_on_c, 7, 62, 100
9, 11988, Note_on_c, 7, 62, 0
9, 12000, Note_on_c, 7, 67, 100
9, 12108, Note_on_c, 7, 67, 0
9, 12120, Note_on_c, 7, 66, 100
9, 12174, Note_on_c, 7, 66, 0
9, 12180, Note_on_c, 7, 64, 100
9, 12234, Note_on_c, 7, 64, 0
9, 12240, Note_on_c, 7, 62, 100
9, 12348, Note_on_c, 7, 62, 0
9, 12360, Note_on_c, 7, 64, 100
9, 12414, Note_on_c, 7, 64, 0
9, 12420, Note_on_c, 7, 66, 100
9, 12474, Note_on_c, 7, 66, 0
9, 12480, Note_on_c, 7, 67, 100
9, 12588, Note_on_c, 7, 67, 0
9, 12600, Note_on_c, 7, 66, 100
9, 12654, Note_on_c, 7, 66, 0
9, 12660, Note_on_c, 7, 64, 100
9, 12714, Note_on_c, 7, 64, 0
9, 12720, Note_on_c, 7, 62, 100
9, 12828, Note_on_c, 7, 62, 0
9, 12840, Note_on_c, 7, 60, 100
9, 12948, Note_on_c, 7, 60, 0
9, 12960, Note_on_c, 7, 59, 100
9, 13014, Note_on_c, 7, 59, 0
9, 13020, Note_on_c, 7, 60, 100
9, 13074, Note_on_c, 7, 60, 0
9, 13080, Note_on_c, 7, 62, 100
9, 13134, Note_on_c, 7, 62, 0
9, 13140, Note_on_c, 7, 59, 100
9, 13194, Note_on_c, 7, 59, 0
9, 13200, Note_on_c, 7, 55, 100
9, 13308, Note_on_c, 7, 55, 0
9, 13440, Note_on_c, 7, 72, 100
9, 13656, Note_on_c, 7, 72, 0
9, 13920, Note_on_c, 7, 72, 100
9, 14136, Note_on_c, 7, 72, 0
9, 14400, Note_on_c, 7, 71, 100
9, 14616, Note_on_c, 7, 71, 0
9, 14880, Note_on_c, 7, 71, 100
9, 15096, Note_on_c, 7, 71, 0
9, 15360, Note_on_c, 7, 69, 100
9, 15576, Note_on_c, 7, 69, 0
9, 15840, Note_on_c, 7, 69, 100
9, 16056, Note_on_c, 7, 69, 0
9, 16200, Note_on_c, 7, 69, 100
9, 16308, Note_on_c, 7, 69, 0
9, 16320, Note_on_c, 7, 67, 100
9, 16536, Note_on_c, 7, 67, 0
9, 16680, Note_on_c, 7, 67, 100
9, 16788, Note_on_c, 7, 67, 0
9, 16800, Note_on_c, 7, 66, 100
9, 17016, Note_on_c, 7, 66, 0
9, 17160, Note_on_c, 7, 66, 100
9, 17268, Note_on_c, 7, 66, 0
9, 17280, Note_on_c, 7, 62, 100
9, 17496, Note_on_c, 7, 62, 0
9, 17520, Note_on_c, 7, 74, 100
9, 17736, Note_on_c, 7, 74, 0
9, 18000, Note_on_c, 7, 76, 100
9, 18216, Note_on_c, 7, 76, 0
9, 18480, Note_on_c, 7, 69, 100
9, 18588, Note_on_c, 7, 69, 0
9, 18600, Note_on_c, 7, 78, 100
9, 18708, Note_on_c, 7, 78, 0
9, 18720, Note_on_c, 7, 79, 100
9, 18882, Note_on_c, 7, 79, 0
9, 18900, Note_on_c, 7, 81, 100
9, 18954, Note_on_c, 7, 81, 0
9, 18960, Note_on_c, 7, 78, 100
9, 19122, Note_on_c, 7, 78, 0
9, 19140, Note_on_c, 7, 74, 100
9, 19194, Note_on_c, 7, 74, 0
9, 19200, Note_on_c, 7, 74, 100
9, 19416, Note_on_c, 7, 74, 0
9, 20520, Note_on_c, 7, 71, 100
9, 20628, Note_on_c, 7, 71, 0
9, 20640, Note_on_c, 7, 72, 100
9, 20748, Note_on_c, 7, 72, 0
9, 21480, Note_on_c, 7, 68, 100
9, 21588, Note_on_c, 7, 68, 0
9, 21600, Note_on_c, 7, 69, 100
9, 21708, Note_on_c, 7, 69, 0
9, 22440, Note_on_c, 7, 73, 100
9, 22548, Note_on_c, 7, 73, 0
9, 22560, Note_on_c, 7, 74, 100
9, 23256, Note_on_c, 7, 74, 0
9, 23280, Note_on_c, 7, 72, 100
9, 23712, Note_on_c, 7, 72, 0
9, 23760, Note_on_c, 7, 71, 100
9, 24216, Note_on_c, 7, 71, 0
9, 24240, Note_on_c, 7, 69, 100
9, 24672, Note_on_c, 7, 69, 0
9, 24720, Note_on_c, 7, 67, 100
9, 25176, Note_on_c, 7, 67, 0
9, 25200, Note_on_c, 7, 65, 100
9, 25632, Note_on_c, 7, 65, 0
9, 25680, Note_on_c, 7, 64, 100
9, 26136, Note_on_c, 7, 64, 0
9, 26160, Note_on_c, 7, 62, 100
9, 26592, Note_on_c, 7, 62, 0
9, 26640, Note_on_c, 7, 60, 100
9, 27096, Note_on_c, 7, 60, 0
9, 27120, Note_on_c, 7, 57, 100
9, 27336, Note_on_c, 7, 57, 0
9, 27360, Note_on_c, 7, 55, 100
9, 27576, Note_on_c, 7, 55, 0
9, 27840, Note_on_c, 7, 67, 100
9, 27948, Note_on_c, 7, 67, 0
9, 27960, Note_on_c, 7, 72, 100
9, 28176, Note_on_c, 7, 72, 0
9, 28200, Note_on_c, 7, 72, 100
9, 28374, Note_on_c, 7, 72, 0
9, 28380, Note_on_c, 7, 71, 100
9, 28434, Note_on_c, 7, 71, 0
9, 28440, Note_on_c, 7, 72, 100
9, 28494, Note_on_c, 7, 72, 0
9, 28500, Note_on_c, 7, 74, 100
9, 28554, Note_on_c, 7, 74, 0
9, 28560, Note_on_c, 7, 76, 100
9, 28668, Note_on_c, 7, 76, 0
9, 28920, Note_on_c, 7, 65, 100
9, 29028, Note_on_c, 7, 65, 0
9, 29040, Note_on_c, 7, 64, 100
9, 29148, Note_on_c, 7, 64, 0
9, 29160, Note_on_c, 7, 62, 100
9, 29268, Note_on_c, 7, 62, 0
9, 29280, Note_on_c, 7, 60, 100
9, 29496, Note_on_c, 7, 60, 0
9, 29760, Note_on_c, 7, 69, 100
9, 29976, Note_on_c, 7, 69, 0
9, 30240, Note_on_c, 7, 69, 100
9, 30456, Note_on_c, 7, 69, 0
9, 30720, Note_on_c, 7, 71, 100
9, 30936, Note_on_c, 7, 71, 0
9, 31200, Note_on_c, 7, 71, 100
9, 31416, Note_on_c, 7, 71, 0
9, 31680, Note_on_c, 7, 72, 100
9, 31896, Note_on_c, 7, 72, 0
9, 32160, Note_on_c, 7, 72, 100
9, 32376, Note_on_c, 7, 72, 0
9, 32640, Note_on_c, 7, 74, 100
9, 32856, Note_on_c, 7, 74, 0
9, 33120, Note_on_c, 7, 72, 100
9, 33336, Note_on_c, 7, 72, 0
9, 33600, Note_on_c, 7, 69, 100
9, 34464, Note_on_c, 7, 69, 0
9, 34560, Note_on_c, 7, 67, 100
9, 34668, Note_on_c, 7, 67, 0
9, 34680, Note_on_c, 7, 62, 100
9, 34788, Note_on_c, 7, 62, 0
9, 34800, Note_on_c, 7, 67, 100
9, 34854, Note_on_c, 7, 67, 0
9, 34860, Note_on_c, 7, 69, 100
9, 34914, Note_on_c, 7, 69, 0
9, 34920, Note_on_c, 7, 71, 100
9, 34974, Note_on_c, 7, 71, 0
9, 34980, Note_on_c, 7, 72, 100
9, 35034, Note_on_c, 7, 72, 0
9, 35040, Note_on_c, 7, 74, 100
9, 35148, Note_on_c, 7, 74, 0
9, 35160, Note_on_c, 7, 74, 100
9, 35268, Note_on_c, 7, 74, 0
9, 35280, Note_on_c, 7, 74, 100
9, 35388, Note_on_c, 7, 74, 0
9, 35400, Note_on_c, 7, 74, 100
9, 35508, Note_on_c, 7, 74, 0
9, 35520, Note_on_c, 7, 74, 100
9, 35628, Note_on_c, 7, 74, 0
9, 35640, Note_on_c, 7, 67, 100
9, 35748, Note_on_c, 7, 67, 0
9, 35760, Note_on_c, 7, 72, 100
9, 35868, Note_on_c, 7, 72, 0
9, 35880, Note_on_c, 7, 72, 100
9, 35988, Note_on_c, 7, 72, 0
9, 36000, Note_on_c, 7, 72, 100
9, 36108, Note_on_c, 7, 72, 0
9, 36120, Note_on_c, 7, 72, 100
9, 36228, Note_on_c, 7, 72, 0
9, 36240, Note_on_c, 7, 72, 100
9, 36348, Note_on_c, 7, 72, 0
9, 36360, Note_on_c, 7, 72, 100
9, 36468, Note_on_c, 7, 72, 0
9, 36480, Note_on_c, 7, 71, 100
9, 36588, Note_on_c, 7, 71, 0
9, 36600, Note_on_c, 7, 74, 100
9, 36708, Note_on_c, 7, 74, 0
9, 36720, Note_on_c, 7, 74, 100
9, 36828, Note_on_c, 7, 74, 0
9, 36840, Note_on_c, 7, 74, 100
9, 36948, Note_on_c, 7, 74, 0
9, 36960, Note_on_c, 7, 72, 100
9, 37014, Note_on_c, 7, 72, 0
9, 37020, Note_on_c, 7, 76, 100
9, 37074, Note_on_c, 7, 76, 0
9, 37080, Note_on_c, 7, 74, 100
9, 37134, Note_on_c, 7, 74, 0
9, 37140, Note_on_c, 7, 72, 100
9, 37194, Note_on_c, 7, 72, 0
9, 37200, Note_on_c, 7, 71, 100
9, 37254, Note_on_c, 7, 71, 0
9, 37260, Note_on_c, 7, 69, 100
9, 37314, Note_on_c, 7, 69, 0
9, 37320, Note_on_c, 7, 67, 100
9, 37374, Note_on_c, 7, 67, 0
9, 37380, Note_on_c, 7, 65, 100
9, 37434, Note_on_c, 7, 65, 0
9, 37440, Note_on_c, 7, 64, 100
9, 37548, Note_on_c, 7, 64, 0
9, 37560, Note_on_c, 7, 72, 100
9, 37776, Note_on_c, 7, 72, 0
9, 37800, Note_on_c, 7, 72, 100
9, 37974, Note_on_c, 7, 72, 0
9, 37980, Note_on_c, 7, 71, 100
9, 38034, Note_on_c, 7, 71, 0
9, 38040, Note_on_c, 7, 72, 100
9, 38094, Note_on_c, 7, 72, 0
9, 38100, Note_on_c, 7, 74, 100
9, 38154, Note_on_c, 7, 74, 0
9, 38160, Note_on_c, 7, 76, 100
9, 38268, Note_on_c, 7, 76, 0
9, 38520, Note_on_c, 7, 65, 100
9, 38628, Note_on_c, 7, 65, 0
9, 38640, Note_on_c, 7, 64, 100
9, 38748, Note_on_c, 7, 64, 0
9, 38760, Note_on_c, 7, 67, 100
9, 38868, Note_on_c, 7, 67, 0
9, 38880, Note_on_c, 7, 67, 100
9, 38988, Note_on_c, 7, 67, 0
9, 39000, Note_on_c, 7, 67, 100
9, 39216, Note_on_c, 7, 67, 0
9, 39240, Note_on_c, 7, 65, 100
9, 39348, Note_on_c, 7, 65, 0
9, 39360, Note_on_c, 7, 64, 100
9, 39468, Note_on_c, 7, 64, 0
9, 39480, Note_on_c, 7, 62, 100
9, 39534, Note_on_c, 7, 62, 0
9, 39540, Note_on_c, 7, 60, 100
9, 39594, Note_on_c, 7, 60, 0
9, 39600, Note_on_c, 7, 59, 100
9, 39708, Note_on_c, 7, 59, 0
9, 39720, Note_on_c, 7, 59, 100
9, 39828, Note_on_c, 7, 59, 0
9, 39840, Note_on_c, 7, 55, 100
9, 40056, Note_on_c, 7, 55, 0
9, 46680, Note_on_c, 7, 71, 100
9, 46734, Note_on_c, 7, 71, 0
9, 46740, Note_on_c, 7, 69, 100
9, 46794, Note_on_c, 7, 69, 0
9, 46800, Note_on_c, 7, 71, 100
9, 46908, Note_on_c, 7, 71, 0
9, 47160, Note_on_c, 7, 69, 100
9, 47214, Note_on_c, 7, 69, 0
9, 47220, Note_on_c, 7, 68, 100
9, 47274, Note_on_c, 7, 68, 0
9, 47280, Note_on_c, 7, 69, 100
9, 47388, Note_on_c, 7, 69, 0
9, 47640, Note_on_c, 7, 69, 100
9, 47694, Note_on_c, 7, 69, 0
9, 47700, Note_on_c, 7, 67, 100
9, 47754, Note_on_c, 7, 67, 0
9, 47760, Note_on_c, 7, 69, 100
9, 47868, Note_on_c, 7, 69, 0
9, 48120, Note_on_c, 7, 74, 100
9, 48174, Note_on_c, 7, 74, 0
9, 48180, Note_on_c, 7, 72, 100
9, 48234, Note_on_c, 7, 72, 0
9, 48240, Note_on_c, 7, 74, 100
9, 48348, Note_on_c, 7, 74, 0
9, 48600, Note_on_c, 7, 72, 100
9, 48654, Note_on_c, 7, 72, 0
9, 48660, Note_on_c, 7, 71, 100
9, 48714, Note_on_c, 7, 71, 0
9, 48720, Note_on_c, 7, 72, 100
9, 48828, Note_on_c, 7, 72, 0
9, 49080, Note_on_c, 7, 72, 100
9, 49134, Note_on_c, 7, 72, 0
9, 49140, Note_on_c, 7, 71, 100
9, 49194, Note_on_c, 7, 71, 0
9, 49200, Note_on_c, 7, 69, 100
9, 49308, Note_on_c, 7, 69, 0
9, 49560, Note_on_c, 7, 69, 100
9, 49614, Note_on_c, 7, 69, 0
9, 49620, Note_on_c, 7, 67, 100
9, 49674, Note_on_c, 7, 67, 0
9, 49680, Note_on_c, 7, 66, 100
9, 49788, Note_on_c, 7, 66, 0
9, 50520, Note_on_c, 7, 76, 100
9, 50628, Note_on_c, 7, 76, 0
9, 50640, Note_on_c, 7, 69, 100
9, 50748, Note_on_c, 7, 69, 0
9, 50760, Note_on_c, 7, 71, 100
9, 50868, Note_on_c, 7, 71, 0
9, 50880, Note_on_c, 7, 66, 100
9, 50988, Note_on_c, 7, 66, 0
9, 51480, Note_on_c, 7, 74, 100
9, 51588, Note_on_c, 7, 74, 0
9, 51600, Note_on_c, 7, 67, 100
9, 51708, Note_on_c, 7, 67, 0
9, 51720, Note_on_c, 7, 71, 100
9, 51828, Note_on_c, 7, 71, 0
9, 51840, Note_on_c, 7, 64, 100
9, 51948, Note_on_c, 7, 64, 0
9, 52200, Note_on_c, 7, 57, 100
9, 52308, Note_on_c, 7, 57, 0
9, 52320, Note_on_c, 7, 66, 100
9, 52644, Note_on_c, 7, 66, 0
9, 52680, Note_on_c, 7, 59, 100
9, 52788, Note_on_c, 7, 59, 0
9, 52800, Note_on_c, 7, 67, 100
9, 53124, Note_on_c, 7, 67, 0
9, 53160, Note_on_c, 7, 60, 100
9, 53268, Note_on_c, 7, 60, 0
9, 53280, Note_on_c, 7, 69, 100
9, 53604, Note_on_c, 7, 69, 0
9, 53640, Note_on_c, 7, 62, 100
9, 53748, Note_on_c, 7, 62, 0
9, 53760, Note_on_c, 7, 71, 100
9, 53868, Note_on_c, 7, 71, 0
9, 53880, Note_on_c, 7, 74, 100
9, 53988, Note_on_c, 7, 74, 0
9, 54000, Note_on_c, 7, 79, 100
9, 54108, Note_on_c, 7, 79, 0
9, 54120, Note_on_c, 7, 74, 100
9, 54228, Note_on_c, 7, 74, 0
9, 54240, Note_on_c, 7, 79, 100
9, 54348, Note_on_c, 7, 79, 0
9, 54360, Note_on_c, 7, 78, 100
9, 54414, Note_on_c, 7, 78, 0
9, 54420, Note_on_c, 7, 76, 100
9, 54474, Note_on_c, 7, 76, 0
9, 54480, Note_on_c, 7, 74, 100
9, 54588, Note_on_c, 7, 74, 0
9, 54600, Note_on_c, 7, 76, 100
9, 54654, Note_on_c, 7, 76, 0
9, 54660, Note_on_c, 7, 78, 100
9, 54714, Note_on_c, 7, 78, 0
9, 54720, Note_on_c, 7, 79, 100
9, 54828, Note_on_c, 7, 79, 0
9, 54840, Note_on_c, 7, 78, 100
9, 54894, Note_on_c, 7, 78, 0
9, 54900, Note_on_c, 7, 76, 100
9, 54954, Note_on_c, 7, 76, 0
9, 54960, Note_on_c, 7, 74, 100
9, 55068, Note_on_c, 7, 74, 0
9, 55080, Note_on_c, 7, 72, 100
9, 55188, Note_on_c, 7, 72, 0
9, 55200, Note_on_c, 7, 67, 100
9, 55362, Note_on_c, 7, 67, 0
9, 55380, Note_on_c, 7, 69, 100
9, 55434, Note_on_c, 7, 69, 0
9, 55440, Note_on_c, 7, 66, 100
9, 55602, Note_on_c, 7, 66, 0
9, 55620, Note_on_c, 7, 67, 100
9, 55674, Note_on_c, 7, 67, 0
9, 55680, Note_on_c, 7, 67, 100
9, 55788, Note_on_c, 7, 67, 0
9, 55800, Note_on_c, 7, 62, 100
9, 55908, Note_on_c, 7, 62, 0
9, 55920, Note_on_c, 7, 67, 100
9, 56028, Note_on_c, 7, 67, 0
9, 56040, Note_on_c, 7, 62, 100
9, 56148, Note_on_c, 7, 62, 0
9, 56160, Note_on_c, 7, 67, 100
9, 56268, Note_on_c, 7, 67, 0
9, 56280, Note_on_c, 7, 66, 100
9, 56334, Note_on_c, 7, 66, 0
9, 56340, Note_on_c, 7, 64, 100
9, 56394, Note_on_c, 7, 64, 0
9, 56400, Note_on_c, 7, 62, 100
9, 56508, Note_on_c, 7, 62, 0
9, 56520, Note_on_c, 7, 64, 100
9, 56574, Note_on_c, 7, 64, 0
9, 56580, Note_on_c, 7, 66, 100
9, 56634, Note_on_c, 7, 66, 0
9, 56640, Note_on_c, 7, 67, 100
9, 56748, Note_on_c, 7, 67, 0
9, 56760, Note_on_c, 7, 66, 100
9, 56814, Note_on_c, 7, 66, 0
9, 56820, Note_on_c, 7, 64, 100
9, 56874, Note_on_c, 7, 64, 0
9, 56880, Note_on_c, 7, 62, 100
9, 56934, Note_on_c, 7, 62, 0
9, 56940, Note_on_c, 7, 60, 100
9, 56994, Note_on_c, 7, 60, 0
9, 57000, Note_on_c, 7, 59, 100
9, 57054, Note_on_c, 7, 59, 0
9, 57060, Note_on_c, 7, 57, 100
9, 57114, Note_on_c, 7, 57, 0
9, 57120, Note_on_c, 7, 59, 100
9, 57228, Note_on_c, 7, 59, 0
9, 58200, Note_on_c, 7, 71, 100
9, 58308, Note_on_c, 7, 71, 0
9, 58320, Note_on_c, 7, 72, 100
9, 58428, Note_on_c, 7, 72, 0
9, 58440, Note_on_c, 7, 74, 100
9, 58548, Note_on_c, 7, 74, 0
9, 58560, Note_on_c, 7, 72, 100
9, 58668, Note_on_c, 7, 72, 0
9, 58680, Note_on_c, 7, 67, 100
9, 58788, Note_on_c, 7, 67, 0
9, 58800, Note_on_c, 7, 72, 100
9, 58908, Note_on_c, 7, 72, 0
9, 58920, Note_on_c, 7, 67, 100
9, 59028, Note_on_c, 7, 67, 0
9, 59040, Note_on_c, 7, 72, 100
9, 59148, Note_on_c, 7, 72, 0
9, 59160, Note_on_c, 7, 71, 100
9, 59214, Note_on_c, 7, 71, 0
9, 59220, Note_on_c, 7, 69, 100
9, 59274, Note_on_c, 7, 69, 0
9, 59280, Note_on_c, 7, 67, 100
9, 59388, Note_on_c, 7, 67, 0
9, 59400, Note_on_c, 7, 69, 100
9, 59454, Note_on_c, 7, 69, 0
9, 59460, Note_on_c, 7, 71, 100
9, 59514, Note_on_c, 7, 71, 0
9, 59520, Note_on_c, 7, 72, 100
9, 59628, Note_on_c, 7, 72, 0
9, 59640, Note_on_c, 7, 71, 100
9, 59694, Note_on_c, 7, 71, 0
9, 59700, Note_on_c, 7, 69, 100
9, 59754, Note_on_c, 7, 69, 0
9, 59760, Note_on_c, 7, 67, 100
9, 59814, Note_on_c, 7, 67, 0
9, 59820, Note_on_c, 7, 65, 100
9, 59874, Note_on_c, 7, 65, 0
9, 59880, Note_on_c, 7, 64, 100
9, 59934, Note_on_c, 7, 64, 0
9, 59940, Note_on_c, 7, 62, 100
9, 59994, Note_on_c, 7, 62, 0
9, 60000, Note_on_c, 7, 64, 100
9, 60108, Note_on_c, 7, 64, 0
9, 61080, Note_on_c, 7, 76, 100
9, 61188, Note_on_c, 7, 76, 0
9, 61200, Note_on_c, 7, 77, 100
9, 61308, Note_on_c, 7, 77, 0
9, 61320, Note_on_c, 7, 79, 100
9, 61428, Note_on_c, 7, 79, 0
9, 61440, Note_on_c, 7, 77, 100
9, 61548, Note_on_c, 7, 77, 0
9, 61560, Note_on_c, 7, 72, 100
9, 61668, Note_on_c, 7, 72, 0
9, 61680, Note_on_c, 7, 77, 100
9, 62112, Note_on_c, 7, 77, 0
9, 62160, Note_on_c, 7, 76, 100
9, 62508, Note_on_c, 7, 76, 0
9, 62520, Note_on_c, 7, 69, 100
9, 62628, Note_on_c, 7, 69, 0
9, 62640, Note_on_c, 7, 74, 100
9, 63072, Note_on_c, 7, 74, 0
9, 63120, Note_on_c, 7, 72, 100
9, 63468, Note_on_c, 7, 72, 0
9, 63480, Note_on_c, 7, 65, 100
9, 63588, Note_on_c, 7, 65, 0
9, 63600, Note_on_c, 7, 70, 100
9, 64032, Note_on_c, 7, 70, 0
9, 64080, Note_on_c, 7, 69, 100
9, 64428, Note_on_c, 7, 69, 0
9, 64440, Note_on_c, 7, 62, 100
9, 64548, Note_on_c, 7, 62, 0
9, 64560, Note_on_c, 7, 67, 100
9, 64908, Note_on_c, 7, 67, 0
9, 64920, Note_on_c, 7, 65, 100
9, 65028, Note_on_c, 7, 65, 0
9, 66240, Note_on_c, 7, 77, 100
9, 66348, Note_on_c, 7, 77, 0
9, 66360, Note_on_c, 7, 72, 100
9, 66468, Note_on_c, 7, 72, 0
9, 66480, Note_on_c, 7, 77, 100
9, 66588, Note_on_c, 7, 77, 0
9, 66600, Note_on_c, 7, 72, 100
9, 66708, Note_on_c, 7, 72, 0
9, 66720, Note_on_c, 7, 77, 100
9, 66828, Note_on_c, 7, 77, 0
9, 66840, Note_on_c, 7, 76, 100
9, 66894, Note_on_c, 7, 76, 0
9, 66900, Note_on_c, 7, 74, 100
9, 66954, Note_on_c, 7, 74, 0
9, 66960, Note_on_c, 7, 72, 100
9, 67068, Note_on_c, 7, 72, 0
9, 67080, Note_on_c, 7, 74, 100
9, 67134, Note_on_c, 7, 74, 0
9, 67140, Note_on_c, 7, 76, 100
9, 67194, Note_on_c, 7, 76, 0
9, 67200, Note_on_c, 7, 77, 100
9, 67308, Note_on_c, 7, 77, 0
9, 67320, Note_on_c, 7, 76, 100
9, 67374, Note_on_c, 7, 76, 0
9, 67380, Note_on_c, 7, 74, 100
9, 67434, Note_on_c, 7, 74, 0
9, 67440, Note_on_c, 7, 72, 100
9, 67548, Note_on_c, 7, 72, 0
9, 67560, Note_on_c, 7, 70, 100
9, 67668, Note_on_c, 7, 70, 0
9, 67680, Note_on_c, 7, 69, 100
9, 67734, Note_on_c, 7, 69, 0
9, 67740, Note_on_c, 7, 70, 100
9, 67794, Note_on_c, 7, 70, 0
9, 67800, Note_on_c, 7, 72, 100
9, 67854, Note_on_c, 7, 72, 0
9, 67860, Note_on_c, 7, 69, 100
9, 67914, Note_on_c, 7, 69, 0
9, 67920, Note_on_c, 7, 65, 100
9, 68028, Note_on_c, 7, 65, 0
9, 68160, Note_on_c, 7, 70, 100
9, 68376, Note_on_c, 7, 70, 0
9, 68640, Note_on_c, 7, 70, 100
9, 68856, Note_on_c, 7, 70, 0
9, 69120, Note_on_c, 7, 69, 100
9, 69336, Note_on_c, 7, 69, 0
9, 69600, Note_on_c, 7, 69, 100
9, 69816, Note_on_c, 7, 69, 0
9, 70080, Note_on_c, 7, 67, 100
9, 70296, Note_on_c, 7, 67, 0
9, 70560, Note_on_c, 7, 67, 100
9, 70776, Note_on_c, 7, 67, 0
9, 70920, Note_on_c, 7, 67, 100
9, 71028, Note_on_c, 7, 67, 0
9, 71040, Note_on_c, 7, 65, 100
9, 71256, Note_on_c, 7, 65, 0
9, 71400, Note_on_c, 7, 65, 100
9, 71508, Note_on_c, 7, 65, 0
9, 71520, Note_on_c, 7, 64, 100
9, 71736, Note_on_c, 7, 64, 0
9, 71880, Note_on_c, 7, 64, 100
9, 71988, Note_on_c, 7, 64, 0
9, 72000, Note_on_c, 7, 60, 100
9, 72216, Note_on_c, 7, 60, 0
9, 72240, Note_on_c, 7, 72, 100
9, 72456, Note_on_c, 7, 72, 0
9, 72720, Note_on_c, 7, 74, 100
9, 72936, Note_on_c, 7, 74, 0
9, 73200, Note_on_c, 7, 67, 100
9, 73308, Note_on_c, 7, 67, 0
9, 73320, Note_on_c, 7, 76, 100
9, 73428, Note_on_c, 7, 76, 0
9, 73440, Note_on_c, 7, 77, 100
9, 73602, Note_on_c, 7, 77, 0
9, 73620, Note_on_c, 7, 79, 100
9, 73674, Note_on_c, 7, 79, 0
9, 73680, Note_on_c, 7, 76, 100
9, 73842, Note_on_c, 7, 76, 0
9, 73860, Note_on_c, 7, 72, 100
9, 73914, Note_on_c, 7, 72, 0
9, 73920, Note_on_c, 7, 72, 100
9, 74136, Note_on_c, 7, 72, 0
9, 74280, Note_on_c, 7, 64, 100
9, 74388, Note_on_c, 7, 64, 0
9, 74400, Note_on_c, 7, 65, 100
9, 74508, Note_on_c, 7, 65, 0
9, 75240, Note_on_c, 7, 69, 100
9, 75348, Note_on_c, 7, 69, 0
9, 75360, Note_on_c, 7, 69, 100
9, 75468, Note_on_c, 7, 69, 0
9, 75840, Note_on_c, 7, 70, 100
9, 76272, Note_on_c, 7, 70, 0
9, 76320, Note_on_c, 7, 69, 100
9, 76752, Note_on_c, 7, 69, 0
9, 76800, Note_on_c, 7, 67, 100
9, 77232, Note_on_c, 7, 67, 0
9, 77280, Note_on_c, 7, 65, 100
9, 77712, Note_on_c, 7, 65, 0
9, 77760, Note_on_c, 7, 64, 100
9, 78192, Note_on_c, 7, 64, 0
9, 78240, Note_on_c, 7, 62, 100
9, 78564, Note_on_c, 7, 62, 0
9, 78600, Note_on_c, 7, 65, 100
9, 78708, Note_on_c, 7, 65, 0
9, 78720, Note_on_c, 7, 59, 100
9, 78936, Note_on_c, 7, 59, 0
9, 79320, Note_on_c, 7, 74, 100
9, 79428, Note_on_c, 7, 74, 0
9, 79440, Note_on_c, 7, 74, 100
9, 79548, Note_on_c, 7, 74, 0
9, 79560, Note_on_c, 7, 74, 100
9, 79668, Note_on_c, 7, 74, 0
9, 79800, Note_on_c, 7, 72, 100
9, 79908, Note_on_c, 7, 72, 0
9, 79920, Note_on_c, 7, 72, 100
9, 80028, Note_on_c, 7, 72, 0
9, 80040, Note_on_c, 7, 72, 100
9, 80148, Note_on_c, 7, 72, 0
9, 80280, Note_on_c, 7, 71, 100
9, 80388, Note_on_c, 7, 71, 0
9, 80400, Note_on_c, 7, 71, 100
9, 80508, Note_on_c, 7, 71, 0
9, 80520, Note_on_c, 7, 71, 100
9, 80628, Note_on_c, 7, 71, 0
9, 80640, Note_on_c, 7, 72, 100
9, 80856, Note_on_c, 7, 72, 0
9, 81120, Note_on_c, 7, 72, 100
9, 81336, Note_on_c, 7, 72, 0
9, 81600, Note_on_c, 7, 71, 100
9, 81816, Note_on_c, 7, 71, 0
9, 82080, Note_on_c, 7, 71, 100
9, 82296, Note_on_c, 7, 71, 0
9, 82560, Note_on_c, 7, 69, 100
9, 82776, Note_on_c, 7, 69, 0
9, 83040, Note_on_c, 7, 71, 100
9, 83256, Note_on_c, 7, 71, 0
9, 83400, Note_on_c, 7, 75, 100
9, 83508, Note_on_c, 7, 75, 0
9, 83520, Note_on_c, 7, 76, 100
9, 83736, Note_on_c, 7, 76, 0
9, 83880, Note_on_c, 7, 76, 100
9, 83988, Note_on_c, 7, 76, 0
9, 84000, Note_on_c, 7, 78, 100
9, 84216, Note_on_c, 7, 78, 0
9, 84360, Note_on_c, 7, 78, 100
9, 84468, Note_on_c, 7, 78, 0
9, 84480, Note_on_c, 7, 71, 100
9, 84588, Note_on_c, 7, 71, 0
9, 84600, Note_on_c, 7, 74, 100
9, 84816, Note_on_c, 7, 74, 0
9, 84840, Note_on_c, 7, 74, 100
9, 85068, Note_on_c, 7, 74, 0
9, 85080, Note_on_c, 7, 74, 100
9, 85188, Note_on_c, 7, 74, 0
9, 85200, Note_on_c, 7, 72, 100
9, 85308, Note_on_c, 7, 72, 0
9, 85320, Note_on_c, 7, 72, 100
9, 85428, Note_on_c, 7, 72, 0
9, 85440, Note_on_c, 7, 71, 100
9, 85656, Note_on_c, 7, 71, 0
9, 85800, Note_on_c, 7, 71, 100
9, 85908, Note_on_c, 7, 71, 0
9, 85920, Note_on_c, 7, 71, 100
9, 85974, Note_on_c, 7, 71, 0
9, 85980, Note_on_c, 7, 79, 100
9, 86034, Note_on_c, 7, 79, 0
9, 86040, Note_on_c, 7, 78, 100
9, 86094, Note_on_c, 7, 78, 0
9, 86100, Note_on_c, 7, 76, 100
9, 86154, Note_on_c, 7, 76, 0
9, 86160, Note_on_c, 7, 75, 100
9, 86322, Note_on_c, 7, 75, 0
9, 86340, Note_on_c, 7, 71, 100
9, 86394, Note_on_c, 7, 71, 0
9, 86400, Note_on_c, 7, 71, 100
9, 86616, Note_on_c, 7, 71, 0
9, 87360, Note_on_c, 7, 69, 100
9, 87576, Note_on_c, 7, 69, 0
9, 88320, Note_on_c, 7, 69, 100
9, 88536, Note_on_c, 7, 69, 0
9, 89280, Note_on_c, 7, 67, 100
9, 89496, Note_on_c, 7, 67, 0
9, 90240, Note_on_c, 7, 67, 100
9, 90456, Note_on_c, 7, 67, 0
9, 91200, Note_on_c, 7, 65, 100
9, 91416, Note_on_c, 7, 65, 0
9, 91920, Note_on_c, 7, 72, 100
9, 92136, Note_on_c, 7, 72, 0
9, 92160, Note_on_c, 7, 74, 100
9, 92376, Note_on_c, 7, 74, 0
9, 92880, Note_on_c, 7, 71, 100
9, 93096, Note_on_c, 7, 71, 0
9, 93120, Note_on_c, 7, 72, 100
9, 93228, Note_on_c, 7, 72, 0
9, 93240, Note_on_c, 7, 67, 100
9, 93348, Note_on_c, 7, 67, 0
9, 93360, Note_on_c, 7, 72, 100
9, 93468, Note_on_c, 7, 72, 0
9, 93480, Note_on_c, 7, 67, 100
9, 93588, Note_on_c, 7, 67, 0
9, 93600, Note_on_c, 7, 72, 100
9, 93708, Note_on_c, 7, 72, 0
9, 93720, Note_on_c, 7, 71, 100
9, 93774, Note_on_c, 7, 71, 0
9, 93780, Note_on_c, 7, 69, 100
9, 93834, Note_on_c, 7, 69, 0
9, 93840, Note_on_c, 7, 67, 100
9, 93948, Note_on_c, 7, 67, 0
9, 93960, Note_on_c, 7, 69, 100
9, 94014, Note_on_c, 7, 69, 0
9, 94020, Note_on_c, 7, 71, 100
9, 94074, Note_on_c, 7, 71, 0
9, 94080, Note_on_c, 7, 72, 100
9, 94188, Note_on_c, 7, 72, 0
9, 94200, Note_on_c, 7, 71, 100
9, 94254, Note_on_c, 7, 71, 0
9, 94260, Note_on_c, 7, 69, 100
9, 94314, Note_on_c, 7, 69, 0
9, 94320, Note_on_c, 7, 67, 100
9, 94428, Note_on_c, 7, 67, 0
9, 94440, Note_on_c, 7, 67, 100
9, 94548, Note_on_c, 7, 67, 0
9, 94560, Note_on_c, 7, 67, 100
9, 94776, Note_on_c, 7, 67, 0
9, 95040, Note_on_c, 7, 69, 100
9, 95256, Note_on_c, 7, 69, 0
9, 95520, Note_on_c, 7, 69, 100
9, 95736, Note_on_c, 7, 69, 0
9, 96000, Note_on_c, 7, 71, 100
9, 96216, Note_on_c, 7, 71, 0
9, 96480, Note_on_c, 7, 71, 100
9, 96696, Note_on_c, 7, 71, 0
9, 96960, Note_on_c, 7, 72, 100
9, 97176, Note_on_c, 7, 72, 0
9, 97320, Note_on_c, 7, 81, 100
9, 97428, Note_on_c, 7, 81, 0
9, 97440, Note_on_c, 7, 77, 100
9, 97548, Note_on_c, 7, 77, 0
9, 97560, Note_on_c, 7, 74, 100
9, 97668, Note_on_c, 7, 74, 0
9, 97800, Note_on_c, 7, 74, 100
9, 97908, Note_on_c, 7, 74, 0
9, 97920, Note_on_c, 7, 71, 100
9, 98028, Note_on_c, 7, 71, 0
9, 98040, Note_on_c, 7, 67, 100
9, 98148, Note_on_c, 7, 67, 0
9, 98280, Note_on_c, 7, 79, 100
9, 98388, Note_on_c, 7, 79, 0
9, 98400, Note_on_c, 7, 76, 100
9, 98508, Note_on_c, 7, 76, 0
9, 98520, Note_on_c, 7, 72, 100
9, 98628, Note_on_c, 7, 72, 0
9, 98760, Note_on_c, 7, 72, 100
9, 98868, Note_on_c, 7, 72, 0
9, 98880, Note_on_c, 7, 69, 100
9, 98988, Note_on_c, 7, 69, 0
9, 99000, Note_on_c, 7, 65, 100
9, 99108, Note_on_c, 7, 65, 0
9, 99240, Note_on_c, 7, 77, 100
9, 99348, Note_on_c, 7, 77, 0
9, 99360, Note_on_c, 7, 74, 100
9, 99468, Note_on_c, 7, 74, 0
9, 99480, Note_on_c, 7, 71, 100
9, 99588, Note_on_c, 7, 71, 0
9, 99840, Note_on_c, 7, 76, 100
9, 100704, Note_on_c, 7, 76, 0
9, 100800, Note_on_c, 7, 74, 100
9, 101664, Note_on_c, 7, 74, 0
9, 101760, Note_on_c, 7, 72, 100
9, 102456, Note_on_c, 7, 72, 0
9, 103320, Note_on_c, 7, 74, 100
9, 103428, Note_on_c, 7, 74, 0
9, 103440, Note_on_c, 7, 74, 100
9, 103548, Note_on_c, 7, 74, 0
9, 103560, Note_on_c, 7, 72, 100
9, 103668, Note_on_c, 7, 72, 0
9, 103680, Note_on_c, 7, 71, 100
9, 103788, Note_on_c, 7, 71, 0
9, 104760, Note_on_c, 7, 71, 100
9, 104868, Note_on_c, 7, 71, 0
9, 104880, Note_on_c, 7, 71, 100
9, 104988, Note_on_c, 7, 71, 0
9, 105000, Note_on_c, 7, 71, 100
9, 105108, Note_on_c, 7, 71, 0
9, 105120, Note_on_c, 7, 72, 100
9, 105228, Note_on_c, 7, 72, 0
9, 106200, Note_on_c, 7, 72, 100
9, 106308, Note_on_c, 7, 72, 0
9, 106320, Note_on_c, 7, 72, 100
9, 106428, Note_on_c, 7, 72, 0
9, 106440, Note_on_c, 7, 70, 100
9, 106548, Note_on_c, 7, 70, 0
9, 106560, Note_on_c, 7, 69, 100
9, 106776, Note_on_c, 7, 69, 0
9, 106920, Note_on_c, 7, 62, 100
9, 107028, Note_on_c, 7, 62, 0
9, 107040, Note_on_c, 7, 71, 100
9, 107364, Note_on_c, 7, 71, 0
9, 107400, Note_on_c, 7, 64, 100
9, 107508, Note_on_c, 7, 64, 0
9, 107520, Note_on_c, 7, 72, 100
9, 107844, Note_on_c, 7, 72, 0
9, 107880, Note_on_c, 7, 65, 100
9, 107988, Note_on_c, 7, 65, 0
9, 108000, Note_on_c, 7, 74, 100
9, 108324, Note_on_c, 7, 74, 0
9, 108360, Note_on_c, 7, 67, 100
9, 108468, Note_on_c, 7, 67, 0
9, 108480, Note_on_c, 7, 76, 100
9, 108534, Note_on_c, 7, 76, 0
9, 108540, Note_on_c, 7, 60, 100
9, 108594, Note_on_c, 7, 60, 0
9, 108600, Note_on_c, 7, 64, 100
9, 108654, Note_on_c, 7, 64, 0
9, 108660, Note_on_c, 7, 67, 100
9, 108714, Note_on_c, 7, 67, 0
9, 108720, Note_on_c, 7, 72, 100
9, 108774, Note_on_c, 7, 72, 0
9, 108780, Note_on_c, 7, 70, 100
9, 108834, Note_on_c, 7, 70, 0
9, 108840, Note_on_c, 7, 69, 100
9, 108894, Note_on_c, 7, 69, 0
9, 108900, Note_on_c, 7, 67, 100
9, 108954, Note_on_c, 7, 67, 0
9, 108960, Note_on_c, 7, 69, 100
9, 109014, Note_on_c, 7, 69, 0
9, 109020, Note_on_c, 7, 67, 100
9, 109074, Note_on_c, 7, 67, 0
9, 109080, Note_on_c, 7, 65, 100
9, 109134, Note_on_c, 7, 65, 0
9, 109140, Note_on_c, 7, 64, 100
9, 109194, Note_on_c, 7, 64, 0
9, 109200, Note_on_c, 7, 65, 100
9, 109254, Note_on_c, 7, 65, 0
9, 109260, Note_on_c, 7, 64, 100
9, 109314, Note_on_c, 7, 64, 0
9, 109320, Note_on_c, 7, 62, 100
9, 109374, Note_on_c, 7, 62, 0
9, 109380, Note_on_c, 7, 60, 100
9, 109434, Note_on_c, 7, 60, 0
9, 109440, Note_on_c, 7, 67, 100
9, 110304, Note_on_c, 7, 67, 0
9, 110400, Note_on_c, 7, 71, 100
9, 110832, Note_on_c, 7, 71, 0
9, 110880, Note_on_c, 7, 72, 100
9, 111312, Note_on_c, 7, 72, 0
9, 111360, Note_on_c, 7, 71, 100
9, 112224, Note_on_c, 7, 71, 0
9, 112320, Note_on_c, 7, 72, 100
9, 113184, Note_on_c, 7, 72, 0
9, 113280, Note_on_c, 7, 74, 100
9, 113712, Note_on_c, 7, 74, 0
9, 113760, Note_on_c, 7, 78, 100
9, 114192, Note_on_c, 7, 78, 0
9, 114240, Note_on_c, 7, 79, 100
9, 114348, Note_on_c, 7, 79, 0
9, 114480, Note_on_c, 7, 71, 100
9, 114588, Note_on_c, 7, 71, 0
9, 114720, Note_on_c, 7, 69, 100
9, 114828, Note_on_c, 7, 69, 0
9, 114960, Note_on_c, 7, 69, 100
9, 115068, Note_on_c, 7, 69, 0
9, 115200, Note_on_c, 7, 69, 100
9, 115308, Note_on_c, 7, 69, 0
9, 115440, Note_on_c, 7, 69, 100
9, 115548, Note_on_c, 7, 69, 0
9, 115680, Note_on_c, 7, 67, 100
9, 115788, Note_on_c, 7, 67, 0
9, 115920, Note_on_c, 7, 67, 100
9, 116028, Note_on_c, 7, 67, 0
9, 116160, Note_on_c, 7, 67, 100
9, 116268, Note_on_c, 7, 67, 0
9, 116400, Note_on_c, 7, 67, 100
9, 116508, Note_on_c, 7, 67, 0
9, 116640, Note_on_c, 7, 66, 100
9, 116748, Note_on_c, 7, 66, 0
9, 116880, Note_on_c, 7, 69, 100
9, 116988, Note_on_c, 7, 69, 0
9, 117120, Note_on_c, 7, 71, 100
9, 117228, Note_on_c, 7, 71, 0
9, 117360, Note_on_c, 7, 71, 100
9, 117468, Note_on_c, 7, 71, 0
9, 117600, Note_on_c, 7, 69, 100
9, 117708, Note_on_c, 7, 69, 0
9, 117840, Note_on_c, 7, 69, 100
9, 117948, Note_on_c, 7, 69, 0
9, 118080, Note_on_c, 7, 67, 100
9, 118188, Note_on_c, 7, 67, 0
9, 118320, Note_on_c, 7, 67, 100
9, 118428, Note_on_c, 7, 67, 0
9, 118560, Note_on_c, 7, 65, 100
9, 118668, Note_on_c, 7, 65, 0
9, 118800, Note_on_c, 7, 65, 100
9, 118908, Note_on_c, 7, 65, 0
9, 119040, Note_on_c, 7, 64, 100
9, 119148, Note_on_c, 7, 64, 0
9, 119160, Note_on_c, 7, 64, 100
9, 119268, Note_on_c, 7, 64, 0
9, 119280, Note_on_c, 7, 60, 100
9, 119388, Note_on_c, 7, 60, 0
9, 119400, Note_on_c, 7, 67, 100
9, 119508, Note_on_c, 7, 67, 0
9, 119640, Note_on_c, 7, 65, 100
9, 119748, Note_on_c, 7, 65, 0
9, 119760, Note_on_c, 7, 62, 100
9, 119868, Note_on_c, 7, 62, 0
9, 119880, Note_on_c, 7, 69, 100
9, 119988, Note_on_c, 7, 69, 0
9, 120120, Note_on_c, 7, 67, 100
9, 120228, Note_on_c, 7, 67, 0
9, 120240, Note_on_c, 7, 64, 100
9, 120348, Note_on_c, 7, 64, 0
9, 120360, Note_on_c, 7, 71, 100
9, 120468, Note_on_c, 7, 71, 0
9, 120600, Note_on_c, 7, 69, 100
9, 120708, Note_on_c, 7, 69, 0
9, 120720, Note_on_c, 7, 65, 100
9, 120828, Note_on_c, 7, 65, 0
9, 120840, Note_on_c, 7, 72, 100
9, 120948, Note_on_c, 7, 72, 0
9, 121080, Note_on_c, 7, 71, 100
9, 121188, Note_on_c, 7, 71, 0
9, 121200, Note_on_c, 7, 67, 100
9, 121308, Note_on_c, 7, 67, 0
9, 121320, Note_on_c, 7, 74, 100
9, 121428, Note_on_c, 7, 74, 0
9, 121560, Note_on_c, 7, 65, 100
9, 121668, Note_on_c, 7, 65, 0
9, 121680, Note_on_c, 7, 64, 100
9, 121788, Note_on_c, 7, 64, 0
9, 121800, Note_on_c, 7, 62, 100
9, 121908, Note_on_c, 7, 62, 0
9, 121920, Note_on_c, 7, 62, 100
9, 122028, Note_on_c, 7, 62, 0
9, 126720, Note_on_c, 7, 72, 100
9, 126828, Note_on_c, 7, 72, 0
9, 126840, Note_on_c, 7, 72, 100
9, 127056, Note_on_c, 7, 72, 0
9, 127080, Note_on_c, 7, 72, 100
9, 127254, Note_on_c, 7, 72, 0
9, 127260, Note_on_c, 7, 71, 100
9, 127314, Note_on_c, 7, 71, 0
9, 127320, Note_on_c, 7, 72, 100
9, 127374, Note_on_c, 7, 72, 0
9, 127380, Note_on_c, 7, 74, 100
9, 127434, Note_on_c, 7, 74, 0
9, 127440, Note_on_c, 7, 76, 100
9, 127548, Note_on_c, 7, 76, 0
9, 127800, Note_on_c, 7, 65, 100
9, 127908, Note_on_c, 7, 65, 0
9, 127920, Note_on_c, 7, 64, 100
9, 128028, Note_on_c, 7, 64, 0
9, 128040, Note_on_c, 7, 62, 100
9, 128148, Note_on_c, 7, 62, 0
9, 128160, Note_on_c, 7, 60, 100
9, 128376, Note_on_c, 7, 60, 0
9, 128640, Note_on_c, 7, 71, 100
9, 128748, Note_on_c, 7, 71, 0
9, 128760, Note_on_c, 7, 71, 100
9, 128976, Note_on_c, 7, 71, 0
9, 129000, Note_on_c, 7, 71, 100
9, 129174, Note_on_c, 7, 71, 0
9, 129180, Note_on_c, 7, 69, 100
9, 129234, Note_on_c, 7, 69, 0
9, 129240, Note_on_c, 7, 71, 100
9, 129294, Note_on_c, 7, 71, 0
9, 129300, Note_on_c, 7, 72, 100
9, 129354, Note_on_c, 7, 72, 0
9, 129360, Note_on_c, 7, 74, 100
9, 129396, Note_on_c, 7, 74, 0
9, 129400, Note_on_c, 7, 72, 100
9, 129436, Note_on_c, 7, 72, 0
9, 129440, Note_on_c, 7, 71, 100
9, 129476, Note_on_c, 7, 71, 0
9, 129480, Note_on_c, 7, 72, 100
9, 129516, Note_on_c, 7, 72, 0
9, 129520, Note_on_c, 7, 71, 100
9, 129556, Note_on_c, 7, 71, 0
9, 129560, Note_on_c, 7, 69, 100
9, 129596, Note_on_c, 7, 69, 0
9, 129600, Note_on_c, 7, 71, 100
9, 129636, Note_on_c, 7, 71, 0
9, 129640, Note_on_c, 7, 69, 100
9, 129676, Note_on_c, 7, 69, 0
9, 129680, Note_on_c, 7, 67, 100
9, 129716, Note_on_c, 7, 67, 0
9, 129720, Note_on_c, 7, 69, 100
9, 129828, Note_on_c, 7, 69, 0
9, 129840, Note_on_c, 7, 62, 100
9, 129948, Note_on_c, 7, 62, 0
9, 129960, Note_on_c, 7, 66, 100
9, 130068, Note_on_c, 7, 66, 0
9, 130080, Note_on_c, 7, 67, 100
9, 130188, Note_on_c, 7, 67, 0
9, 130200, Note_on_c, 7, 67, 100
9, 130308, Note_on_c, 7, 67, 0
9, 130440, Note_on_c, 7, 67, 100
9, 130548, Note_on_c, 7, 67, 0
9, 130680, Note_on_c, 7, 67, 100
9, 130788, Note_on_c, 7, 67, 0
9, 130920, Note_on_c, 7, 67, 100
9, 131028, Note_on_c, 7, 67, 0
9, 131160, Note_on_c, 7, 67, 100
9, 131268, Note_on_c, 7, 67, 0
9, 131400, Note_on_c, 7, 67, 100
9, 131508, Note_on_c, 7, 67, 0
9, 131520, Note_on_c, 7, 67, 100
9, 131574, Note_on_c, 7, 67, 0
9, 131580, Note_on_c, 7, 69, 100
9, 131634, Note_on_c, 7, 69, 0
9, 131640, Note_on_c, 7, 71, 100
9, 131748, Note_on_c, 7, 71, 0
9, 131760, Note_on_c, 7, 64, 100
9, 131922, Note_on_c, 7, 64, 0
9, 131940, Note_on_c, 7, 62, 100
9, 131967, Note_on_c, 7, 62, 0
9, 131970, Note_on_c, 7, 64, 100
9, 131997, Note_on_c, 7, 64, 0
9, 132000, Note_on_c, 7, 65, 100
9, 132054, Note_on_c, 7, 65, 0
9, 132060, Note_on_c, 7, 67, 100
9, 132114, Note_on_c, 7, 67, 0
9, 132120, Note_on_c, 7, 69, 100
9, 132228, Note_on_c, 7, 69, 0
9, 132240, Note_on_c, 7, 62, 100
9, 132402, Note_on_c, 7, 62, 0
9, 132420, Note_on_c, 7, 60, 100
9, 132447, Note_on_c, 7, 60, 0
9, 132450, Note_on_c, 7, 62, 100
9, 132477, Note_on_c, 7, 62, 0
9, 132480, Note_on_c, 7, 64, 100
9, 132534, Note_on_c, 7, 64, 0
9, 132540, Note_on_c, 7, 67, 100
9, 132594, Note_on_c, 7, 67, 0
9, 132600, Note_on_c, 7, 72, 100
9, 132816, Note_on_c, 7, 72, 0
9, 132840, Note_on_c, 7, 72, 100
9, 132987, Note_on_c, 7, 72, 0
9, 132990, Note_on_c, 7, 71, 100
9, 133017, Note_on_c, 7, 71, 0
9, 133020, Note_on_c, 7, 69, 100
9, 133074, Note_on_c, 7, 69, 0
9, 133080, Note_on_c, 7, 77, 100
9, 133296, Note_on_c, 7, 77, 0
9, 133320, Note_on_c, 7, 77, 100
9, 133467, Note_on_c, 7, 77, 0
9, 133470, Note_on_c, 7, 79, 100
9, 133497, Note_on_c, 7, 79, 0
9, 133500, Note_on_c, 7, 81, 100
9, 133554, Note_on_c, 7, 81, 0
9, 133560, Note_on_c, 7, 69, 100
9, 133776, Note_on_c, 7, 69, 0
9, 133800, Note_on_c, 7, 69, 100
9, 133854, Note_on_c, 7, 69, 0
9, 133860, Note_on_c, 7, 67, 100
9, 133914, Note_on_c, 7, 67, 0
9, 133920, Note_on_c, 7, 79, 100
9, 134028, Note_on_c, 7, 79, 0
9, 134040, Note_on_c, 7, 72, 100
9, 134148, Note_on_c, 7, 72, 0
9, 134160, Note_on_c, 7, 71, 100
9, 134268, Note_on_c, 7, 71, 0
9, 134280, Note_on_c, 7, 74, 100
9, 134388, Note_on_c, 7, 74, 0
9, 134400, Note_on_c, 7, 76, 100
9, 134616, Note_on_c, 7, 76, 0
9, 134616, End_track
10, 0, Start_track
10, 0, Title_t, "Viola"
10, 0, Program_c, 8, 41
10, 0, Control_c, 8, 7, 120
10, 0, Control_c, 8, 10, 34
10, 0, Note_on_c, 8, 67, 100
10, 108, Note_on_c, 8, 67, 0
10, 120, Note_on_c, 8, 67, 100
10, 336, Note_on_c, 8, 67, 0
10, 360, Note_on_c, 8, 67, 100
10, 468, Note_on_c, 8, 67, 0
10, 480, Note_on_c, 8, 69, 100
10, 588, Note_on_c, 8, 69, 0
10, 600, Note_on_c, 8, 67, 100
10, 654, Note_on_c, 8, 67, 0
10, 660, Note_on_c, 8, 65, 100
10, 714, Note_on_c, 8, 65, 0
10, 720, Note_on_c, 8, 72, 100
10, 828, Note_on_c, 8, 72, 0
10, 1080, Note_on_c, 8, 60, 100
10, 1188, Note_on_c, 8, 60, 0
10, 1200, Note_on_c, 8, 60, 100
10, 1308, Note_on_c, 8, 60, 0
10, 1320, Note_on_c, 8, 59, 100
10, 1428, Note_on_c, 8, 59, 0
10, 1440, Note_on_c, 8, 55, 100
10, 1656, Note_on_c, 8, 55, 0
10, 1920, Note_on_c, 8, 67, 100
10, 2028, Note_on_c, 8, 67, 0
10, 2040, Note_on_c, 8, 67, 100
10, 2256, Note_on_c, 8, 67, 0
10, 2280, Note_on_c, 8, 67, 100
10, 2454, Note_on_c, 8, 67, 0
10, 2460, Note_on_c, 8, 66, 100
10, 2514, Note_on_c, 8, 66, 0
10, 2520, Note_on_c, 8, 67, 100
10, 2574, Note_on_c, 8, 67, 0
10, 2580, Note_on_c, 8, 69, 100
10, 2634, Note_on_c, 8, 69, 0
10, 2640, Note_on_c, 8, 71, 100
10, 2748, Note_on_c, 8, 71, 0
10, 3000, Note_on_c, 8, 57, 100
10, 3108, Note_on_c, 8, 57, 0
10, 3120, Note_on_c, 8, 59, 100
10, 3228, Note_on_c, 8, 59, 0
10, 3240, Note_on_c, 8, 62, 100
10, 3348, Note_on_c, 8, 62, 0
10, 3360, Note_on_c, 8, 62, 100
10, 3468, Note_on_c, 8, 62, 0
10, 3480, Note_on_c, 8, 62, 100
10, 3588, Note_on_c, 8, 62, 0
10, 3720, Note_on_c, 8, 62, 100
10, 3828, Note_on_c, 8, 62, 0
10, 3960, Note_on_c, 8, 64, 100
10, 4068, Note_on_c, 8, 64, 0
10, 4200, Note_on_c, 8, 64, 100
10, 4308, Note_on_c, 8, 64, 0
10, 4440, Note_on_c, 8, 59, 100
10, 4548, Note_on_c, 8, 59, 0
10, 4680, Note_on_c, 8, 59, 100
10, 4788, Note_on_c, 8, 59, 0
10, 4800, Note_on_c, 8, 59, 100
10, 5016, Note_on_c, 8, 59, 0
10, 5040, Note_on_c, 8, 57, 100
10, 5472, Note_on_c, 8, 57, 0
10, 5520, Note_on_c, 8, 55, 100
10, 5868, Note_on_c, 8, 55, 0
10, 5880, Note_on_c, 8, 55, 100
10, 5988, Note_on_c, 8, 55, 0
10, 6000, Note_on_c, 8, 64, 100
10, 6108, Note_on_c, 8, 64, 0
10, 6120, Note_on_c, 8, 60, 100
10, 6228, Note_on_c, 8, 60, 0
10, 6240, Note_on_c, 8, 65, 100
10, 6348, Note_on_c, 8, 65, 0
10, 6360, Note_on_c, 8, 60, 100
10, 6468, Note_on_c, 8, 60, 0
10, 6480, Note_on_c, 8, 69, 100
10, 6588, Note_on_c, 8, 69, 0
10, 6600, Note_on_c, 8, 65, 100
10, 6708, Note_on_c, 8, 65, 0
10, 6720, Note_on_c, 8, 74, 100
10, 6828, Note_on_c, 8, 74, 0
10, 6840, Note_on_c, 8, 65, 100
10, 6948, Note_on_c, 8, 65, 0
10, 6960, Note_on_c, 8, 71, 100
10, 7068, Note_on_c, 8, 71, 0
10, 7080, Note_on_c, 8, 62, 100
10, 7188, Note_on_c, 8, 62, 0
10, 7200, Note_on_c, 8, 64, 100
10, 7308, Note_on_c, 8, 64, 0
10, 7320, Note_on_c, 8, 67, 100
10, 7428, Note_on_c, 8, 67, 0
10, 7440, Note_on_c, 8, 67, 100
10, 7548, Note_on_c, 8, 67, 0
10, 7560, Note_on_c, 8, 67, 100
10, 7668, Note_on_c, 8, 67, 0
10, 7680, Note_on_c, 8, 67, 100
10, 7788, Note_on_c, 8, 67, 0
10, 7800, Note_on_c, 8, 67, 100
10, 7908, Note_on_c, 8, 67, 0
10, 7920, Note_on_c, 8, 72, 100
10, 8028, Note_on_c, 8, 72, 0
10, 8040, Note_on_c, 8, 67, 100
10, 8148, Note_on_c, 8, 67, 0
10, 8160, Note_on_c, 8, 72, 100
10, 8268, Note_on_c, 8, 72, 0
10, 8280, Note_on_c, 8, 71, 100
10, 8334, Note_on_c, 8, 71, 0
10, 8340, Note_on_c, 8, 69, 100
10, 8394, Note_on_c, 8, 69, 0
10, 8400, Note_on_c, 8, 67, 100
10, 8508, Note_on_c, 8, 67, 0
10, 8520, Note_on_c, 8, 69, 100
10, 8574, Note_on_c, 8, 69, 0
10, 8580, Note_on_c, 8, 71, 100
10, 8634, Note_on_c, 8, 71, 0
10, 8640, Note_on_c, 8, 72, 100
10, 8748, Note_on_c, 8, 72, 0
10, 8760, Note_on_c, 8, 71, 100
10, 8814, Note_on_c, 8, 71, 0
10, 8820, Note_on_c, 8, 69, 100
10, 8874, Note_on_c, 8, 69, 0
10, 8880, Note_on_c, 8, 67, 100
10, 8988, Note_on_c, 8, 67, 0
10, 9000, Note_on_c, 8, 65, 100
10, 9108, Note_on_c, 8, 65, 0
10, 9120, Note_on_c, 8, 64, 100
10, 9174, Note_on_c, 8, 64, 0
10, 9180, Note_on_c, 8, 65, 100
10, 9234, Note_on_c, 8, 65, 0
10, 9240, Note_on_c, 8, 67, 100
10, 9294, Note_on_c, 8, 67, 0
10, 9300, Note_on_c, 8, 64, 100
10, 9354, Note_on_c, 8, 64, 0
10, 9360, Note_on_c, 8, 60, 100
10, 9468, Note_on_c, 8, 60, 0
10, 9720, Note_on_c, 8, 67, 100
10, 9936, Note_on_c, 8, 67, 0
10, 9960, Note_on_c, 8, 67, 100
10, 10068, Note_on_c, 8, 67, 0
10, 10080, Note_on_c, 8, 69, 100
10, 10188, Note_on_c, 8, 69, 0
10, 10200, Note_on_c, 8, 67, 100
10, 10254, Note_on_c, 8, 67, 0
10, 10260, Note_on_c, 8, 65, 100
10, 10314, Note_on_c, 8, 65, 0
10, 10320, Note_on_c, 8, 72, 100
10, 10428, Note_on_c, 8, 72, 0
10, 10680, Note_on_c, 8, 60, 100
10, 10788, Note_on_c, 8, 60, 0
10, 10800, Note_on_c, 8, 60, 100
10, 10908, Note_on_c, 8, 60, 0
10, 10920, Note_on_c, 8, 59, 100
10, 11028, Note_on_c, 8, 59, 0
10, 11040, Note_on_c, 8, 55, 100
10, 11256, Note_on_c, 8, 55, 0
10, 11520, Note_on_c, 8, 67, 100
10, 11628, Note_on_c, 8, 67, 0
10, 11640, Note_on_c, 8, 62, 100
10, 11748, Note_on_c, 8, 62, 0
10, 11760, Note_on_c, 8, 67, 100
10, 11868, Note_on_c, 8, 67, 0
10, 11880, Note_on_c, 8, 62, 100
10, 11988, Note_on_c, 8, 62, 0
10, 12000, Note_on_c, 8, 67, 100
10, 12108, Note_on_c, 8, 67, 0
10, 12120, Note_on_c, 8, 66, 100
10, 12174, Note_on_c, 8, 66, 0
10, 12180, Note_on_c, 8, 64, 100
10, 12234, Note_on_c, 8, 64, 0
10, 12240, Note_on_c, 8, 62, 100
10, 12348, Note_on_c, 8, 62, 0
10, 12360, Note_on_c, 8, 64, 100
10, 12414, Note_on_c, 8, 64, 0
10, 12420, Note_on_c, 8, 66, 100
10, 12474, Note_on_c, 8, 66, 0
10, 12480, Note_on_c, 8, 67, 100
10, 12588, Note_on_c, 8, 67, 0
10, 12600, Note_on_c, 8, 66, 100
10, 12654, Note_on_c, 8, 66, 0
10, 12660, Note_on_c, 8, 64, 100
10, 12714, Note_on_c, 8, 64, 0
10, 12720, Note_on_c, 8, 62, 100
10, 12828, Note_on_c, 8, 62, 0
10, 12840, Note_on_c, 8, 60, 100
10, 12948, Note_on_c, 8, 60, 0
10, 12960, Note_on_c, 8, 59, 100
10, 13014, Note_on_c, 8, 59, 0
10, 13020, Note_on_c, 8, 60, 100
10, 13074, Note_on_c, 8, 60, 0
10, 13080, Note_on_c, 8, 62, 100
10, 13134, Note_on_c, 8, 62, 0
10, 13140, Note_on_c, 8, 59, 100
10, 13194, Note_on_c, 8, 59, 0
10, 13200, Note_on_c, 8, 55, 100
10, 13308, Note_on_c, 8, 55, 0
10, 13440, Note_on_c, 8, 67, 100
10, 13656, Note_on_c, 8, 67, 0
10, 13920, Note_on_c, 8, 69, 100
10, 14136, Note_on_c, 8, 69, 0
10, 14400, Note_on_c, 8, 69, 100
10, 14616, Note_on_c, 8, 69, 0
10, 14880, Note_on_c, 8, 67, 100
10, 15096, Note_on_c, 8, 67, 0
10, 15360, Note_on_c, 8, 67, 100
10, 15576, Note_on_c, 8, 67, 0
10, 15840, Note_on_c, 8, 66, 100
10, 16056, Note_on_c, 8, 66, 0
10, 16200, Note_on_c, 8, 66, 100
10, 16308, Note_on_c, 8, 66, 0
10, 16320, Note_on_c, 8, 62, 100
10, 16536, Note_on_c, 8, 62, 0
10, 16680, Note_on_c, 8, 62, 100
10, 16788, Note_on_c, 8, 62, 0
10, 16800, Note_on_c, 8, 62, 100
10, 17016, Note_on_c, 8, 62, 0
10, 17160, Note_on_c, 8, 60, 100
10, 17268, Note_on_c, 8, 60, 0
10, 17280, Note_on_c, 8, 59, 100
10, 17496, Note_on_c, 8, 59, 0
10, 17520, Note_on_c, 8, 55, 100
10, 17736, Note_on_c, 8, 55, 0
10, 18000, Note_on_c, 8, 67, 100
10, 18216, Note_on_c, 8, 67, 0
10, 18480, Note_on_c, 8, 69, 100
10, 18588, Note_on_c, 8, 69, 0
10, 18600, Note_on_c, 8, 74, 100
10, 18708, Note_on_c, 8, 74, 0
10, 18720, Note_on_c, 8, 74, 100
10, 18828, Note_on_c, 8, 74, 0
10, 18840, Note_on_c, 8, 76, 100
10, 18948, Note_on_c, 8, 76, 0
10, 18960, Note_on_c, 8, 69, 100
10, 19068, Note_on_c, 8, 69, 0
10, 19080, Note_on_c, 8, 72, 100
10, 19188, Note_on_c, 8, 72, 0
10, 19200, Note_on_c, 8, 71, 100
10, 19416, Note_on_c, 8, 71, 0
10, 20520, Note_on_c, 8, 67, 100
10, 20628, Note_on_c, 8, 67, 0
10, 20640, Note_on_c, 8, 67, 100
10, 20748, Note_on_c, 8, 67, 0
10, 21480, Note_on_c, 8, 64, 100
10, 21588, Note_on_c, 8, 64, 0
10, 21600, Note_on_c, 8, 64, 100
10, 21708, Note_on_c, 8, 64, 0
10, 22440, Note_on_c, 8, 69, 100
10, 22548, Note_on_c, 8, 69, 0
10, 22560, Note_on_c, 8, 69, 100
10, 22776, Note_on_c, 8, 69, 0
10, 22800, Note_on_c, 8, 67, 100
10, 23256, Note_on_c, 8, 67, 0
10, 23280, Note_on_c, 8, 69, 100
10, 23712, Note_on_c, 8, 69, 0
10, 23760, Note_on_c, 8, 64, 100
10, 24216, Note_on_c, 8, 64, 0
10, 24240, Note_on_c, 8, 65, 100
10, 24672, Note_on_c, 8, 65, 0
10, 24720, Note_on_c, 8, 60, 100
10, 25176, Note_on_c, 8, 60, 0
10, 25200, Note_on_c, 8, 62, 100
10, 25632, Note_on_c, 8, 62, 0
10, 25680, Note_on_c, 8, 60, 100
10, 26028, Note_on_c, 8, 60, 0
10, 26040, Note_on_c, 8, 53, 100
10, 26148, Note_on_c, 8, 53, 0
10, 26160, Note_on_c, 8, 55, 100
10, 26592, Note_on_c, 8, 55, 0
10, 26640, Note_on_c, 8, 57, 100
10, 27096, Note_on_c, 8, 57, 0
10, 27120, Note_on_c, 8, 53, 100
10, 27336, Note_on_c, 8, 53, 0
10, 27360, Note_on_c, 8, 50, 100
10, 27576, Note_on_c, 8, 50, 0
10, 27840, Note_on_c, 8, 60, 100
10, 27948, Note_on_c, 8, 60, 0
10, 27960, Note_on_c, 8, 67, 100
10, 28176, Note_on_c, 8, 67, 0
10, 28200, Note_on_c, 8, 67, 100
10, 28308, Note_on_c, 8, 67, 0
10, 28320, Note_on_c, 8, 69, 100
10, 28428, Note_on_c, 8, 69, 0
10, 28440, Note_on_c, 8, 67, 100
10, 28494, Note_on_c, 8, 67, 0
10, 28500, Note_on_c, 8, 65, 100
10, 28554, Note_on_c, 8, 65, 0
10, 28560, Note_on_c, 8, 72, 100
10, 28668, Note_on_c, 8, 72, 0
10, 28920, Note_on_c, 8, 60, 100
10, 29028, Note_on_c, 8, 60, 0
10, 29040, Note_on_c, 8, 60, 100
10, 29148, Note_on_c, 8, 60, 0
10, 29160, Note_on_c, 8, 59, 100
10, 29268, Note_on_c, 8, 59, 0
10, 29280, Note_on_c, 8, 67, 100
10, 29496, Note_on_c, 8, 67, 0
10, 29760, Note_on_c, 8, 65, 100
10, 29976, Note_on_c, 8, 65, 0
10, 30240, Note_on_c, 8, 62, 100
10, 30456, Note_on_c, 8, 62, 0
10, 30720, Note_on_c, 8, 67, 100
10, 30936, Note_on_c, 8, 67, 0
10, 31200, Note_on_c, 8, 64, 100
10, 31416, Note_on_c, 8, 64, 0
10, 31680, Note_on_c, 8, 69, 100
10, 31896, Note_on_c, 8, 69, 0
10, 32160, Note_on_c, 8, 69, 100
10, 32376, Note_on_c, 8, 69, 0
10, 32640, Note_on_c, 8, 67, 100
10, 32856, Note_on_c, 8, 67, 0
10, 33120, Note_on_c, 8, 67, 100
10, 33336, Note_on_c, 8, 67, 0
10, 33600, Note_on_c, 8, 60, 100
10, 34032, Note_on_c, 8, 60, 0
10, 34080, Note_on_c, 8, 62, 100
10, 34614, Note_on_c, 8, 62, 0
10, 34620, Note_on_c, 8, 60, 100
10, 34674, Note_on_c, 8, 60, 0
10, 34680, Note_on_c, 8, 59, 100
10, 34734, Note_on_c, 8, 59, 0
10, 34740, Note_on_c, 8, 60, 100
10, 34794, Note_on_c, 8, 60, 0
10, 34800, Note_on_c, 8, 62, 100
10, 34854, Note_on_c, 8, 62, 0
10, 34860, Note_on_c, 8, 64, 100
10, 34914, Note_on_c, 8, 64, 0
10, 34920, Note_on_c, 8, 65, 100
10, 35028, Note_on_c, 8, 65, 0
10, 35040, Note_on_c, 8, 55, 100
10, 35148, Note_on_c, 8, 55, 0
10, 35160, Note_on_c, 8, 71, 100
10, 35268, Note_on_c, 8, 71, 0
10, 35280, Note_on_c, 8, 71, 100
10, 35388, Note_on_c, 8, 71, 0
10, 35400, Note_on_c, 8, 71, 100
10, 35508, Note_on_c, 8, 71, 0
10, 35520, Note_on_c, 8, 67, 100
10, 35628, Note_on_c, 8, 67, 0
10, 35640, Note_on_c, 8, 64, 100
10, 35748, Note_on_c, 8, 64, 0
10, 35760, Note_on_c, 8, 64, 100
10, 35868, Note_on_c, 8, 64, 0
10, 35880, Note_on_c, 8, 64, 100
10, 35988, Note_on_c, 8, 64, 0
10, 36000, Note_on_c, 8, 66, 100
10, 36108, Note_on_c, 8, 66, 0
10, 36120, Note_on_c, 8, 66, 100
10, 36228, Note_on_c, 8, 66, 0
10, 36240, Note_on_c, 8, 66, 100
10, 36348, Note_on_c, 8, 66, 0
10, 36360, Note_on_c, 8, 66, 100
10, 36468, Note_on_c, 8, 66, 0
10, 36480, Note_on_c, 8, 67, 100
10, 36588, Note_on_c, 8, 67, 0
10, 36600, Note_on_c, 8, 67, 100
10, 36708, Note_on_c, 8, 67, 0
10, 36720, Note_on_c, 8, 67, 100
10, 36828, Note_on_c, 8, 67, 0
10, 36840, Note_on_c, 8, 67, 100
10, 36948, Note_on_c, 8, 67, 0
10, 36960, Note_on_c, 8, 67, 100
10, 37014, Note_on_c, 8, 67, 0
10, 37020, Note_on_c, 8, 64, 100
10, 37074, Note_on_c, 8, 64, 0
10, 37080, Note_on_c, 8, 65, 100
10, 37134, Note_on_c, 8, 65, 0
10, 37140, Note_on_c, 8, 67, 100
10, 37194, Note_on_c, 8, 67, 0
10, 37200, Note_on_c, 8, 69, 100
10, 37254, Note_on_c, 8, 69, 0
10, 37260, Note_on_c, 8, 71, 100
10, 37314, Note_on_c, 8, 71, 0
10, 37320, Note_on_c, 8, 72, 100
10, 37374, Note_on_c, 8, 72, 0
10, 37380, Note_on_c, 8, 74, 100
10, 37434, Note_on_c, 8, 74, 0
10, 37440, Note_on_c, 8, 67, 100
10, 37548, Note_on_c, 8, 67, 0
10, 37560, Note_on_c, 8, 67, 100
10, 37776, Note_on_c, 8, 67, 0
10, 37800, Note_on_c, 8, 67, 100
10, 37908, Note_on_c, 8, 67, 0
10, 37920, Note_on_c, 8, 69, 100
10, 38028, Note_on_c, 8, 69, 0
10, 38040, Note_on_c, 8, 67, 100
10, 38094, Note_on_c, 8, 67, 0
10, 38100, Note_on_c, 8, 65, 100
10, 38154, Note_on_c, 8, 65, 0
10, 38160, Note_on_c, 8, 72, 100
10, 38268, Note_on_c, 8, 72, 0
10, 38520, Note_on_c, 8, 60, 100
10, 38628, Note_on_c, 8, 60, 0
10, 38640, Note_on_c, 8, 60, 100
10, 38748, Note_on_c, 8, 60, 0
10, 38760, Note_on_c, 8, 59, 100
10, 38868, Note_on_c, 8, 59, 0
10, 38880, Note_on_c, 8, 64, 100
10, 38988, Note_on_c, 8, 64, 0
10, 39000, Note_on_c, 8, 64, 100
10, 39216, Note_on_c, 8, 64, 0
10, 39240, Note_on_c, 8, 60, 100
10, 39348, Note_on_c, 8, 60, 0
10, 39360, Note_on_c, 8, 55, 100
10, 39468, Note_on_c, 8, 55, 0
10, 39480, Note_on_c, 8, 67, 100
10, 39588, Note_on_c, 8, 67, 0
10, 39600, Note_on_c, 8, 62, 100
10, 39708, Note_on_c, 8, 62, 0
10, 39720, Note_on_c, 8, 55, 100
10, 39828, Note_on_c, 8, 55, 0
10, 39840, Note_on_c, 8, 52, 100
10, 40056, Note_on_c, 8, 52, 0
10, 46680, Note_on_c, 8, 67, 100
10, 46734, Note_on_c, 8, 67, 0
10, 46740, Note_on_c, 8, 66, 100
10, 46794, Note_on_c, 8, 66, 0
10, 46800, Note_on_c, 8, 64, 100
10, 46908, Note_on_c, 8, 64, 0
10, 47160, Note_on_c, 8, 64, 100
10, 47214, Note_on_c, 8, 64, 0
10, 47220, Note_on_c, 8, 62, 100
10, 47274, Note_on_c, 8, 62, 0
10, 47280, Note_on_c, 8, 60, 100
10, 47388, Note_on_c, 8, 60, 0
10, 47640, Note_on_c, 8, 62, 100
10, 47694, Note_on_c, 8, 62, 0
10, 47700, Note_on_c, 8, 64, 100
10, 47754, Note_on_c, 8, 64, 0
10, 47760, Note_on_c, 8, 66, 100
10, 47868, Note_on_c, 8, 66, 0
10, 48120, Note_on_c, 8, 67, 100
10, 48174, Note_on_c, 8, 67, 0
10, 48180, Note_on_c, 8, 69, 100
10, 48234, Note_on_c, 8, 69, 0
10, 48240, Note_on_c, 8, 71, 100
10, 48348, Note_on_c, 8, 71, 0
10, 48600, Note_on_c, 8, 60, 100
10, 48654, Note_on_c, 8, 60, 0
10, 48660, Note_on_c, 8, 62, 100
10, 48714, Note_on_c, 8, 62, 0
10, 48720, Note_on_c, 8, 64, 100
10, 48828, Note_on_c, 8, 64, 0
10, 49080, Note_on_c, 8, 54, 100
10, 49134, Note_on_c, 8, 54, 0
10, 49140, Note_on_c, 8, 55, 100
10, 49194, Note_on_c, 8, 55, 0
10, 49200, Note_on_c, 8, 57, 100
10, 49308, Note_on_c, 8, 57, 0
10, 49560, Note_on_c, 8, 63, 100
10, 49614, Note_on_c, 8, 63, 0
10, 49620, Note_on_c, 8, 64, 100
10, 49674, Note_on_c, 8, 64, 0
10, 49680, Note_on_c, 8, 66, 100
10, 49788, Note_on_c, 8, 66, 0
10, 49920, Note_on_c, 8, 64, 100
10, 50784, Note_on_c, 8, 64, 0
10, 50880, Note_on_c, 8, 62, 100
10, 51744, Note_on_c, 8, 62, 0
10, 51840, Note_on_c, 8, 60, 100
10, 52056, Note_on_c, 8, 60, 0
10, 52320, Note_on_c, 8, 57, 100
10, 52536, Note_on_c, 8, 57, 0
10, 52800, Note_on_c, 8, 64, 100
10, 53016, Note_on_c, 8, 64, 0
10, 53280, Note_on_c, 8, 62, 100
10, 53496, Note_on_c, 8, 62, 0
10, 53760, Note_on_c, 8, 62, 100
10, 53868, Note_on_c, 8, 62, 0
10, 53880, Note_on_c, 8, 62, 100
10, 54096, Note_on_c, 8, 62, 0
10, 54120, Note_on_c, 8, 62, 100
10, 54348, Note_on_c, 8, 62, 0
10, 54360, Note_on_c, 8, 62, 100
10, 54576, Note_on_c, 8, 62, 0
10, 54600, Note_on_c, 8, 62, 100
10, 54828, Note_on_c, 8, 62, 0
10, 54840, Note_on_c, 8, 67, 100
10, 54948, Note_on_c, 8, 67, 0
10, 54960, Note_on_c, 8, 66, 100
10, 55068, Note_on_c, 8, 66, 0
10, 55080, Note_on_c, 8, 66, 100
10, 55188, Note_on_c, 8, 66, 0
10, 55200, Note_on_c, 8, 62, 100
10, 55308, Note_on_c, 8, 62, 0
10, 55320, Note_on_c, 8, 64, 100
10, 55428, Note_on_c, 8, 64, 0
10, 55440, Note_on_c, 8, 57, 100
10, 55548, Note_on_c, 8, 57, 0
10, 55560, Note_on_c, 8, 62, 100
10, 55668, Note_on_c, 8, 62, 0
10, 55680, Note_on_c, 8, 62, 100
10, 55788, Note_on_c, 8, 62, 0
10, 55800, Note_on_c, 8, 62, 100
10, 55908, Note_on_c, 8, 62, 0
10, 55920, Note_on_c, 8, 67, 100
10, 56028, Note_on_c, 8, 67, 0
10, 56040, Note_on_c, 8, 62, 100
10, 56148, Note_on_c, 8, 62, 0
10, 56160, Note_on_c, 8, 67, 100
10, 56268, Note_on_c, 8, 67, 0
10, 56280, Note_on_c, 8, 66, 100
10, 56334, Note_on_c, 8, 66, 0
10, 56340, Note_on_c, 8, 64, 100
10, 56394, Note_on_c, 8, 64, 0
10, 56400, Note_on_c, 8, 62, 100
10, 56508, Note_on_c, 8, 62, 0
10, 56520, Note_on_c, 8, 64, 100
10, 56574, Note_on_c, 8, 64, 0
10, 56580, Note_on_c, 8, 66, 100
10, 56634, Note_on_c, 8, 66, 0
10, 56640, Note_on_c, 8, 67, 100
10, 56748, Note_on_c, 8, 67, 0
10, 56760, Note_on_c, 8, 66, 100
10, 56814, Note_on_c, 8, 66, 0
10, 56820, Note_on_c, 8, 64, 100
10, 56874, Note_on_c, 8, 64, 0
10, 56880, Note_on_c, 8, 62, 100
10, 56934, Note_on_c, 8, 62, 0
10, 56940, Note_on_c, 8, 60, 100
10, 56994, Note_on_c, 8, 60, 0
10, 57000, Note_on_c, 8, 59, 100
10, 57054, Note_on_c, 8, 59, 0
10, 57060, Note_on_c, 8, 57, 100
10, 57114, Note_on_c, 8, 57, 0
10, 57120, Note_on_c, 8, 59, 100
10, 57228, Note_on_c, 8, 59, 0
10, 58200, Note_on_c, 8, 67, 100
10, 58308, Note_on_c, 8, 67, 0
10, 58320, Note_on_c, 8, 60, 100
10, 58428, Note_on_c, 8, 60, 0
10, 58440, Note_on_c, 8, 55, 100
10, 58548, Note_on_c, 8, 55, 0
10, 58560, Note_on_c, 8, 60, 100
10, 58668, Note_on_c, 8, 60, 0
10, 58680, Note_on_c, 8, 55, 100
10, 58788, Note_on_c, 8, 55, 0
10, 58800, Note_on_c, 8, 60, 100
10, 58908, Note_on_c, 8, 60, 0
10, 58920, Note_on_c, 8, 55, 100
10, 59028, Note_on_c, 8, 55, 0
10, 59040, Note_on_c, 8, 60, 100
10, 59148, Note_on_c, 8, 60, 0
10, 59160, Note_on_c, 8, 59, 100
10, 59214, Note_on_c, 8, 59, 0
10, 59220, Note_on_c, 8, 57, 100
10, 59274, Note_on_c, 8, 57, 0
10, 59280, Note_on_c, 8, 55, 100
10, 59388, Note_on_c, 8, 55, 0
10, 59400, Note_on_c, 8, 57, 100
10, 59454, Note_on_c, 8, 57, 0
10, 59460, Note_on_c, 8, 59, 100
10, 59514, Note_on_c, 8, 59, 0
10, 59520, Note_on_c, 8, 60, 100
10, 59628, Note_on_c, 8, 60, 0
10, 59640, Note_on_c, 8, 59, 100
10, 59694, Note_on_c, 8, 59, 0
10, 59700, Note_on_c, 8, 57, 100
10, 59754, Note_on_c, 8, 57, 0
10, 59760, Note_on_c, 8, 55, 100
10, 59814, Note_on_c, 8, 55, 0
10, 59820, Note_on_c, 8, 53, 100
10, 59874, Note_on_c, 8, 53, 0
10, 59880, Note_on_c, 8, 52, 100
10, 59934, Note_on_c, 8, 52, 0
10, 59940, Note_on_c, 8, 50, 100
10, 59994, Note_on_c, 8, 50, 0
10, 60000, Note_on_c, 8, 52, 100
10, 60108, Note_on_c, 8, 52, 0
10, 61080, Note_on_c, 8, 72, 100
10, 61188, Note_on_c, 8, 72, 0
10, 61200, Note_on_c, 8, 65, 100
10, 61308, Note_on_c, 8, 65, 0
10, 61320, Note_on_c, 8, 60, 100
10, 61428, Note_on_c, 8, 60, 0
10, 61440, Note_on_c, 8, 72, 100
10, 62268, Note_on_c, 8, 72, 0
10, 62280, Note_on_c, 8, 70, 100
10, 62388, Note_on_c, 8, 70, 0
10, 62400, Note_on_c, 8, 69, 100
10, 63228, Note_on_c, 8, 69, 0
10, 63240, Note_on_c, 8, 67, 100
10, 63348, Note_on_c, 8, 67, 0
10, 63360, Note_on_c, 8, 65, 100
10, 64188, Note_on_c, 8, 65, 0
10, 64200, Note_on_c, 8, 64, 100
10, 64308, Note_on_c, 8, 64, 0
10, 64320, Note_on_c, 8, 62, 100
10, 64428, Note_on_c, 8, 62, 0
10, 64440, Note_on_c, 8, 67, 100
10, 64548, Note_on_c, 8, 67, 0
10, 64560, Note_on_c, 8, 60, 100
10, 64992, Note_on_c, 8, 60, 0
10, 66240, Note_on_c, 8, 60, 100
10, 66348, Note_on_c, 8, 60, 0
10, 66360, Note_on_c, 8, 60, 100
10, 66576, Note_on_c, 8, 60, 0
10, 66600, Note_on_c, 8, 60, 100
10, 66828, Note_on_c, 8, 60, 0
10, 66840, Note_on_c, 8, 60, 100
10, 67056, Note_on_c, 8, 60, 0
10, 67080, Note_on_c, 8, 60, 100
10, 67308, Note_on_c, 8, 60, 0
10, 67320, Note_on_c, 8, 65, 100
10, 67428, Note_on_c, 8, 65, 0
10, 67440, Note_on_c, 8, 64, 100
10, 67548, Note_on_c, 8, 64, 0
10, 67560, Note_on_c, 8, 60, 100
10, 67668, Note_on_c, 8, 60, 0
10, 67680, Note_on_c, 8, 60, 100
10, 67788, Note_on_c, 8, 60, 0
10, 67800, Note_on_c, 8, 60, 100
10, 67908, Note_on_c, 8, 60, 0
10, 67920, Note_on_c, 8, 60, 100
10, 68028, Note_on_c, 8, 60, 0
10, 68160, Note_on_c, 8, 65, 100
10, 68376, Note_on_c, 8, 65, 0
10, 68640, Note_on_c, 8, 67, 100
10, 68856, Note_on_c, 8, 67, 0
10, 69120, Note_on_c, 8, 67, 100
10, 69336, Note_on_c, 8, 67, 0
10, 69600, Note_on_c, 8, 65, 100
10, 69816, Note_on_c, 8, 65, 0
10, 70080, Note_on_c, 8, 65, 100
10, 70296, Note_on_c, 8, 65, 0
10, 70560, Note_on_c, 8, 64, 100
10, 70776, Note_on_c, 8, 64, 0
10, 70920, Note_on_c, 8, 64, 100
10, 71028, Note_on_c, 8, 64, 0
10, 71040, Note_on_c, 8, 60, 100
10, 71256, Note_on_c, 8, 60, 0
10, 71400, Note_on_c, 8, 60, 100
10, 71508, Note_on_c, 8, 60, 0
10, 71520, Note_on_c, 8, 60, 100
10, 71736, Note_on_c, 8, 60, 0
10, 71880, Note_on_c, 8, 58, 100
10, 71988, Note_on_c, 8, 58, 0
10, 72000, Note_on_c, 8, 57, 100
10, 72216, Note_on_c, 8, 57, 0
10, 72240, Note_on_c, 8, 53, 100
10, 72456, Note_on_c, 8, 53, 0
10, 72720, Note_on_c, 8, 62, 100
10, 72936, Note_on_c, 8, 62, 0
10, 73200, Note_on_c, 8, 67, 100
10, 73308, Note_on_c, 8, 67, 0
10, 73320, Note_on_c, 8, 72, 100
10, 73428, Note_on_c, 8, 72, 0
10, 73440, Note_on_c, 8, 72, 100
10, 73548, Note_on_c, 8, 72, 0
10, 73560, Note_on_c, 8, 74, 100
10, 73668, Note_on_c, 8, 74, 0
10, 73680, Note_on_c, 8, 67, 100
10, 73788, Note_on_c, 8, 67, 0
10, 73800, Note_on_c, 8, 70, 100
10, 73908, Note_on_c, 8, 70, 0
10, 73920, Note_on_c, 8, 69, 100
10, 74136, Note_on_c, 8, 69, 0
10, 74280, Note_on_c, 8, 60, 100
10, 74388, Note_on_c, 8, 60, 0
10, 74400, Note_on_c, 8, 60, 100
10, 74508, Note_on_c, 8, 60, 0
10, 75240, Note_on_c, 8, 64, 100
10, 75348, Note_on_c, 8, 64, 0
10, 75360, Note_on_c, 8, 62, 100
10, 75468, Note_on_c, 8, 62, 0
10, 76080, Note_on_c, 8, 60, 100
10, 76512, Note_on_c, 8, 60, 0
10, 76560, Note_on_c, 8, 62, 100
10, 76776, Note_on_c, 8, 62, 0
10, 76800, Note_on_c, 8, 58, 100
10, 76908, Note_on_c, 8, 58, 0
10, 76920, Note_on_c, 8, 62, 100
10, 77028, Note_on_c, 8, 62, 0
10, 77040, Note_on_c, 8, 69, 100
10, 77472, Note_on_c, 8, 69, 0
10, 77520, Note_on_c, 8, 62, 100
10, 77628, Note_on_c, 8, 62, 0
10, 77640, Note_on_c, 8, 65, 100
10, 77748, Note_on_c, 8, 65, 0
10, 77760, Note_on_c, 8, 59, 100
10, 77976, Note_on_c, 8, 59, 0
10, 78000, Note_on_c, 8, 60, 100
10, 78108, Note_on_c, 8, 60, 0
10, 78120, Note_on_c, 8, 57, 100
10, 78228, Note_on_c, 8, 57, 0
10, 78240, Note_on_c, 8, 57, 100
10, 78456, Note_on_c, 8, 57, 0
10, 78480, Note_on_c, 8, 56, 100
10, 78588, Note_on_c, 8, 56, 0
10, 78600, Note_on_c, 8, 59, 100
10, 78708, Note_on_c, 8, 59, 0
10, 78720, Note_on_c, 8, 64, 100
10, 78936, Note_on_c, 8, 64, 0
10, 79320, Note_on_c, 8, 68, 100
10, 79428, Note_on_c, 8, 68, 0
10, 79440, Note_on_c, 8, 68, 100
10, 79548, Note_on_c, 8, 68, 0
10, 79560, Note_on_c, 8, 68, 100
10, 79668, Note_on_c, 8, 68, 0
10, 79800, Note_on_c, 8, 69, 100
10, 79908, Note_on_c, 8, 69, 0
10, 79920, Note_on_c, 8, 69, 100
10, 80028, Note_on_c, 8, 69, 0
10, 80040, Note_on_c, 8, 69, 100
10, 80148, Note_on_c, 8, 69, 0
10, 80280, Note_on_c, 8, 68, 100
10, 80388, Note_on_c, 8, 68, 0
10, 80400, Note_on_c, 8, 68, 100
10, 80508, Note_on_c, 8, 68, 0
10, 80520, Note_on_c, 8, 68, 100
10, 80628, Note_on_c, 8, 68, 0
10, 80640, Note_on_c, 8, 64, 100
10, 80856, Note_on_c, 8, 64, 0
10, 81120, Note_on_c, 8, 62, 100
10, 81336, Note_on_c, 8, 62, 0
10, 81600, Note_on_c, 8, 62, 100
10, 81816, Note_on_c, 8, 62, 0
10, 82080, Note_on_c, 8, 60, 100
10, 82296, Note_on_c, 8, 60, 0
10, 82560, Note_on_c, 8, 60, 100
10, 82776, Note_on_c, 8, 60, 0
10, 83040, Note_on_c, 8, 59, 100
10, 83256, Note_on_c, 8, 59, 0
10, 83400, Note_on_c, 8, 66, 100
10, 83508, Note_on_c, 8, 66, 0
10, 83520, Note_on_c, 8, 67, 100
10, 83736, Note_on_c, 8, 67, 0
10, 83880, Note_on_c, 8, 67, 100
10, 83988, Note_on_c, 8, 67, 0
10, 84000, Note_on_c, 8, 63, 100
10, 84216, Note_on_c, 8, 63, 0
10, 84360, Note_on_c, 8, 59, 100
10, 84468, Note_on_c, 8, 59, 0
10, 84480, Note_on_c, 8, 59, 100
10, 84588, Note_on_c, 8, 59, 0
10, 84600, Note_on_c, 8, 68, 100
10, 84816, Note_on_c, 8, 68, 0
10, 84840, Note_on_c, 8, 71, 100
10, 85068, Note_on_c, 8, 71, 0
10, 85080, Note_on_c, 8, 64, 100
10, 85188, Note_on_c, 8, 64, 0
10, 85200, Note_on_c, 8, 69, 100
10, 85308, Note_on_c, 8, 69, 0
10, 85320, Note_on_c, 8, 64, 100
10, 85428, Note_on_c, 8, 64, 0
10, 85440, Note_on_c, 8, 66, 100
10, 85656, Note_on_c, 8, 66, 0
10, 85800, Note_on_c, 8, 66, 100
10, 85908, Note_on_c, 8, 66, 0
10, 85920, Note_on_c, 8, 64, 100
10, 86028, Note_on_c, 8, 64, 0
10, 86040, Note_on_c, 8, 69, 100
10, 86148, Note_on_c, 8, 69, 0
10, 86160, Note_on_c, 8, 66, 100
10, 86268, Note_on_c, 8, 66, 0
10, 86280, Note_on_c, 8, 69, 100
10, 86388, Note_on_c, 8, 69, 0
10, 86400, Note_on_c, 8, 67, 100
10, 86616, Note_on_c, 8, 67, 0
10, 87360, Note_on_c, 8, 64, 100
10, 87576, Note_on_c, 8, 64, 0
10, 88320, Note_on_c, 8, 66, 100
10, 88536, Note_on_c, 8, 66, 0
10, 89280, Note_on_c, 8, 62, 100
10, 89496, Note_on_c, 8, 62, 0
10, 90240, Note_on_c, 8, 60, 100
10, 90456, Note_on_c, 8, 60, 0
10, 91200, Note_on_c, 8, 60, 100
10, 91416, Note_on_c, 8, 60, 0
10, 91920, Note_on_c, 8, 63, 100
10, 92136, Note_on_c, 8, 63, 0
10, 92160, Note_on_c, 8, 62, 100
10, 92376, Note_on_c, 8, 62, 0
10, 92880, Note_on_c, 8, 67, 100
10, 93096, Note_on_c, 8, 67, 0
10, 93120, Note_on_c, 8, 67, 100
10, 93228, Note_on_c, 8, 67, 0
10, 93240, Note_on_c, 8, 67, 100
10, 93348, Note_on_c, 8, 67, 0
10, 93360, Note_on_c, 8, 72, 100
10, 93468, Note_on_c, 8, 72, 0
10, 93480, Note_on_c, 8, 67, 100
10, 93588, Note_on_c, 8, 67, 0
10, 93600, Note_on_c, 8, 72, 100
10, 93708, Note_on_c, 8, 72, 0
10, 93720, Note_on_c, 8, 71, 100
10, 93774, Note_on_c, 8, 71, 0
10, 93780, Note_on_c, 8, 69, 100
10, 93834, Note_on_c, 8, 69, 0
10, 93840, Note_on_c, 8, 67, 100
10, 93948, Note_on_c, 8, 67, 0
10, 93960, Note_on_c, 8, 69, 100
10, 94014, Note_on_c, 8, 69, 0
10, 94020, Note_on_c, 8, 71, 100
10, 94074, Note_on_c, 8, 71, 0
10, 94080, Note_on_c, 8, 72, 100
10, 94188, Note_on_c, 8, 72, 0
10, 94200, Note_on_c, 8, 71, 100
10, 94254, Note_on_c, 8, 71, 0
10, 94260, Note_on_c, 8, 69, 100
10, 94314, Note_on_c, 8, 69, 0
10, 94320, Note_on_c, 8, 67, 100
10, 94428, Note_on_c, 8, 67, 0
10, 94440, Note_on_c, 8, 55, 100
10, 94548, Note_on_c, 8, 55, 0
10, 94560, Note_on_c, 8, 60, 100
10, 94776, Note_on_c, 8, 60, 0
10, 95040, Note_on_c, 8, 65, 100
10, 95256, Note_on_c, 8, 65, 0
10, 95520, Note_on_c, 8, 62, 100
10, 95736, Note_on_c, 8, 62, 0
10, 96000, Note_on_c, 8, 67, 100
10, 96216, Note_on_c, 8, 67, 0
10, 96480, Note_on_c, 8, 64, 100
10, 96696, Note_on_c, 8, 64, 0
10, 96960, Note_on_c, 8, 69, 100
10, 97176, Note_on_c, 8, 69, 0
10, 97440, Note_on_c, 8, 69, 100
10, 97548, Note_on_c, 8, 69, 0
10, 97560, Note_on_c, 8, 57, 100
10, 97668, Note_on_c, 8, 57, 0
10, 97680, Note_on_c, 8, 62, 100
10, 97788, Note_on_c, 8, 62, 0
10, 97800, Note_on_c, 8, 53, 100
10, 97908, Note_on_c, 8, 53, 0
10, 98040, Note_on_c, 8, 62, 100
10, 98148, Note_on_c, 8, 62, 0
10, 98160, Note_on_c, 8, 67, 100
10, 98268, Note_on_c, 8, 67, 0
10, 98280, Note_on_c, 8, 59, 100
10, 98388, Note_on_c, 8, 59, 0
10, 98520, Note_on_c, 8, 67, 100
10, 98628, Note_on_c, 8, 67, 0
10, 98640, Note_on_c, 8, 72, 100
10, 98748, Note_on_c, 8, 72, 0
10, 98760, Note_on_c, 8, 64, 100
10, 98868, Note_on_c, 8, 64, 0
10, 99000, Note_on_c, 8, 57, 100
10, 99108, Note_on_c, 8, 57, 0
10, 99120, Note_on_c, 8, 60, 100
10, 99228, Note_on_c, 8, 60, 0
10, 99240, Note_on_c, 8, 65, 100
10, 99348, Note_on_c, 8, 65, 0
10, 99480, Note_on_c, 8, 62, 100
10, 99588, Note_on_c, 8, 62, 0
10, 99600, Note_on_c, 8, 65, 100
10, 99708, Note_on_c, 8, 65, 0
10, 99720, Note_on_c, 8, 71, 100
10, 99828, Note_on_c, 8, 71, 0
10, 99840, Note_on_c, 8, 71, 100
10, 100056, Note_on_c, 8, 71, 0
10, 100080, Note_on_c, 8, 59, 100
10, 100296, Note_on_c, 8, 59, 0
10, 100320, Note_on_c, 8, 57, 100
10, 100536, Note_on_c, 8, 57, 0
10, 100560, Note_on_c, 8, 69, 100
10, 101016, Note_on_c, 8, 69, 0
10, 101040, Note_on_c, 8, 57, 100
10, 101256, Note_on_c, 8, 57, 0
10, 101280, Note_on_c, 8, 55, 100
10, 101496, Note_on_c, 8, 55, 0
10, 101520, Note_on_c, 8, 67, 100
10, 101976, Note_on_c, 8, 67, 0
10, 102000, Note_on_c, 8, 55, 100
10, 102216, Note_on_c, 8, 55, 0
10, 102240, Note_on_c, 8, 57, 100
10, 102456, Note_on_c, 8, 57, 0
10, 103320, Note_on_c, 8, 69, 100
10, 103428, Note_on_c, 8, 69, 0
10, 103440, Note_on_c, 8, 69, 100
10, 103548, Note_on_c, 8, 69, 0
10, 103560, Note_on_c, 8, 62, 100
10, 103668, Note_on_c, 8, 62, 0
10, 103680, Note_on_c, 8, 62, 100
10, 103788, Note_on_c, 8, 62, 0
10, 104760, Note_on_c, 8, 62, 100
10, 104868, Note_on_c, 8, 62, 0
10, 104880, Note_on_c, 8, 62, 100
10, 104988, Note_on_c, 8, 62, 0
10, 105000, Note_on_c, 8, 67, 100
10, 105108, Note_on_c, 8, 67, 0
10, 105120, Note_on_c, 8, 67, 100
10, 105228, Note_on_c, 8, 67, 0
10, 106200, Note_on_c, 8, 67, 100
10, 106308, Note_on_c, 8, 67, 0
10, 106320, Note_on_c, 8, 67, 100
10, 106428, Note_on_c, 8, 67, 0
10, 106440, Note_on_c, 8, 60, 100
10, 106548, Note_on_c, 8, 60, 0
10, 106560, Note_on_c, 8, 60, 100
10, 106776, Note_on_c, 8, 60, 0
10, 107040, Note_on_c, 8, 67, 100
10, 107256, Note_on_c, 8, 67, 0
10, 107520, Note_on_c, 8, 64, 100
10, 107736, Note_on_c, 8, 64, 0
10, 108000, Note_on_c, 8, 67, 100
10, 108216, Note_on_c, 8, 67, 0
10, 108540, Note_on_c, 8, 48, 100
10, 108594, Note_on_c, 8, 48, 0
10, 108600, Note_on_c, 8, 52, 100
10, 108654, Note_on_c, 8, 52, 0
10, 108660, Note_on_c, 8, 55, 100
10, 108714, Note_on_c, 8, 55, 0
10, 108720, Note_on_c, 8, 60, 100
10, 108774, Note_on_c, 8, 60, 0
10, 108780, Note_on_c, 8, 58, 100
10, 108834, Note_on_c, 8, 58, 0
10, 108840, Note_on_c, 8, 57, 100
10, 108894, Note_on_c, 8, 57, 0
10, 108900, Note_on_c, 8, 55, 100
10, 108954, Note_on_c, 8, 55, 0
10, 108960, Note_on_c, 8, 57, 100
10, 109014, Note_on_c, 8, 57, 0
10, 109020, Note_on_c, 8, 55, 100
10, 109074, Note_on_c, 8, 55, 0
10, 109080, Note_on_c, 8, 53, 100
10, 109134, Note_on_c, 8, 53, 0
10, 109140, Note_on_c, 8, 52, 100
10, 109194, Note_on_c, 8, 52, 0
10, 109200, Note_on_c, 8, 53, 100
10, 109254, Note_on_c, 8, 53, 0
10, 109260, Note_on_c, 8, 52, 100
10, 109314, Note_on_c, 8, 52, 0
10, 109320, Note_on_c, 8, 50, 100
10, 109374, Note_on_c, 8, 50, 0
10, 109380, Note_on_c, 8, 48, 100
10, 109434, Note_on_c, 8, 48, 0
10, 109440, Note_on_c, 8, 55, 100
10, 109548, Note_on_c, 8, 55, 0
10, 109560, Note_on_c, 8, 62, 100
10, 109668, Note_on_c, 8, 62, 0
10, 109680, Note_on_c, 8, 59, 100
10, 109788, Note_on_c, 8, 59, 0
10, 109800, Note_on_c, 8, 55, 100
10, 109908, Note_on_c, 8, 55, 0
10, 110040, Note_on_c, 8, 64, 100
10, 110148, Note_on_c, 8, 64, 0
10, 110160, Note_on_c, 8, 60, 100
10, 110268, Note_on_c, 8, 60, 0
10, 110280, Note_on_c, 8, 55, 100
10, 110388, Note_on_c, 8, 55, 0
10, 110520, Note_on_c, 8, 62, 100
10, 110628, Note_on_c, 8, 62, 0
10, 110640, Note_on_c, 8, 59, 100
10, 110748, Note_on_c, 8, 59, 0
10, 110760, Note_on_c, 8, 55, 100
10, 110868, Note_on_c, 8, 55, 0
10, 110880, Note_on_c, 8, 69, 100
10, 111312, Note_on_c, 8, 69, 0
10, 111360, Note_on_c, 8, 62, 100
10, 112224, Note_on_c, 8, 62, 0
10, 112320, Note_on_c, 8, 67, 100
10, 112752, Note_on_c, 8, 67, 0
10, 112800, Note_on_c, 8, 69, 100
10, 113232, Note_on_c, 8, 69, 0
10, 113280, Note_on_c, 8, 71, 100
10, 113712, Note_on_c, 8, 71, 0
10, 113760, Note_on_c, 8, 72, 100
10, 114192, Note_on_c, 8, 72, 0
10, 114240, Note_on_c, 8, 74, 100
10, 114348, Note_on_c, 8, 74, 0
10, 114480, Note_on_c, 8, 67, 100
10, 114588, Note_on_c, 8, 67, 0
10, 114720, Note_on_c, 8, 64, 100
10, 114828, Note_on_c, 8, 64, 0
10, 114960, Note_on_c, 8, 64, 100
10, 115068, Note_on_c, 8, 64, 0
10, 115200, Note_on_c, 8, 62, 100
10, 115308, Note_on_c, 8, 62, 0
10, 115440, Note_on_c, 8, 62, 100
10, 115548, Note_on_c, 8, 62, 0
10, 115680, Note_on_c, 8, 62, 100
10, 115788, Note_on_c, 8, 62, 0
10, 115920, Note_on_c, 8, 62, 100
10, 116028, Note_on_c, 8, 62, 0
10, 116160, Note_on_c, 8, 60, 100
10, 116268, Note_on_c, 8, 60, 0
10, 116400, Note_on_c, 8, 60, 100
10, 116508, Note_on_c, 8, 60, 0
10, 116640, Note_on_c, 8, 60, 100
10, 116748, Note_on_c, 8, 60, 0
10, 116880, Note_on_c, 8, 62, 100
10, 116988, Note_on_c, 8, 62, 0
10, 117120, Note_on_c, 8, 67, 100
10, 117228, Note_on_c, 8, 67, 0
10, 117360, Note_on_c, 8, 67, 100
10, 117468, Note_on_c, 8, 67, 0
10, 117600, Note_on_c, 8, 65, 100
10, 117708, Note_on_c, 8, 65, 0
10, 117840, Note_on_c, 8, 65, 100
10, 117948, Note_on_c, 8, 65, 0
10, 118080, Note_on_c, 8, 64, 100
10, 118188, Note_on_c, 8, 64, 0
10, 118320, Note_on_c, 8, 64, 100
10, 118428, Note_on_c, 8, 64, 0
10, 118560, Note_on_c, 8, 62, 100
10, 118668, Note_on_c, 8, 62, 0
10, 118800, Note_on_c, 8, 62, 100
10, 118908, Note_on_c, 8, 62, 0
10, 119040, Note_on_c, 8, 60, 100
10, 119148, Note_on_c, 8, 60, 0
10, 119160, Note_on_c, 8, 60, 100
10, 119268, Note_on_c, 8, 60, 0
10, 119280, Note_on_c, 8, 55, 100
10, 119388, Note_on_c, 8, 55, 0
10, 119400, Note_on_c, 8, 52, 100
10, 119508, Note_on_c, 8, 52, 0
10, 119640, Note_on_c, 8, 62, 100
10, 119748, Note_on_c, 8, 62, 0
10, 119760, Note_on_c, 8, 57, 100
10, 119868, Note_on_c, 8, 57, 0
10, 119880, Note_on_c, 8, 53, 100
10, 119988, Note_on_c, 8, 53, 0
10, 120120, Note_on_c, 8, 64, 100
10, 120228, Note_on_c, 8, 64, 0
10, 120240, Note_on_c, 8, 59, 100
10, 120348, Note_on_c, 8, 59, 0
10, 120360, Note_on_c, 8, 55, 100
10, 120468, Note_on_c, 8, 55, 0
10, 120600, Note_on_c, 8, 65, 100
10, 120708, Note_on_c, 8, 65, 0
10, 120720, Note_on_c, 8, 60, 100
10, 120828, Note_on_c, 8, 60, 0
10, 120840, Note_on_c, 8, 57, 100
10, 120948, Note_on_c, 8, 57, 0
10, 121080, Note_on_c, 8, 67, 100
10, 121188, Note_on_c, 8, 67, 0
10, 121200, Note_on_c, 8, 62, 100
10, 121308, Note_on_c, 8, 62, 0
10, 121320, Note_on_c, 8, 59, 100
10, 121428, Note_on_c, 8, 59, 0
10, 121560, Note_on_c, 8, 62, 100
10, 121668, Note_on_c, 8, 62, 0
10, 121680, Note_on_c, 8, 60, 100
10, 121788, Note_on_c, 8, 60, 0
10, 121800, Note_on_c, 8, 57, 100
10, 121908, Note_on_c, 8, 57, 0
10, 121920, Note_on_c, 8, 55, 100
10, 122028, Note_on_c, 8, 55, 0
10, 126720, Note_on_c, 8, 67, 100
10, 126828, Note_on_c, 8, 67, 0
10, 126840, Note_on_c, 8, 67, 100
10, 127056, Note_on_c, 8, 67, 0
10, 127080, Note_on_c, 8, 67, 100
10, 127188, Note_on_c, 8, 67, 0
10, 127200, Note_on_c, 8, 69, 100
10, 127308, Note_on_c, 8, 69, 0
10, 127320, Note_on_c, 8, 67, 100
10, 127374, Note_on_c, 8, 67, 0
10, 127380, Note_on_c, 8, 65, 100
10, 127434, Note_on_c, 8, 65, 0
10, 127440, Note_on_c, 8, 72, 100
10, 127548, Note_on_c, 8, 72, 0
10, 127800, Note_on_c, 8, 60, 100
10, 127908, Note_on_c, 8, 60, 0
10, 127920, Note_on_c, 8, 60, 100
10, 128028, Note_on_c, 8, 60, 0
10, 128040, Note_on_c, 8, 59, 100
10, 128148, Note_on_c, 8, 59, 0
10, 128160, Note_on_c, 8, 55, 100
10, 128376, Note_on_c, 8, 55, 0
10, 128640, Note_on_c, 8, 67, 100
10, 128748, Note_on_c, 8, 67, 0
10, 128760, Note_on_c, 8, 67, 100
10, 128976, Note_on_c, 8, 67, 0
10, 129000, Note_on_c, 8, 67, 100
10, 129174, Note_on_c, 8, 67, 0
10, 129180, Note_on_c, 8, 66, 100
10, 129234, Note_on_c, 8, 66, 0
10, 129240, Note_on_c, 8, 67, 100
10, 129294, Note_on_c, 8, 67, 0
10, 129300, Note_on_c, 8, 69, 100
10, 129354, Note_on_c, 8, 69, 0
10, 129360, Note_on_c, 8, 71, 100
10, 129468, Note_on_c, 8, 71, 0
10, 129720, Note_on_c, 8, 57, 100
10, 129828, Note_on_c, 8, 57, 0
10, 129840, Note_on_c, 8, 59, 100
10, 129948, Note_on_c, 8, 59, 0
10, 129960, Note_on_c, 8, 62, 100
10, 130068, Note_on_c, 8, 62, 0
10, 130080, Note_on_c, 8, 62, 100
10, 130188, Note_on_c, 8, 62, 0
10, 130200, Note_on_c, 8, 62, 100
10, 130308, Note_on_c, 8, 62, 0
10, 130440, Note_on_c, 8, 62, 100
10, 130548, Note_on_c, 8, 62, 0
10, 130680, Note_on_c, 8, 64, 100
10, 130788, Note_on_c, 8, 64, 0
10, 130920, Note_on_c, 8, 64, 100
10, 131028, Note_on_c, 8, 64, 0
10, 131160, Note_on_c, 8, 59, 100
10, 131268, Note_on_c, 8, 59, 0
10, 131400, Note_on_c, 8, 59, 100
10, 131508, Note_on_c, 8, 59, 0
10, 131520, Note_on_c, 8, 59, 100
10, 131736, Note_on_c, 8, 59, 0
10, 131760, Note_on_c, 8, 57, 100
10, 132192, Note_on_c, 8, 57, 0
10, 132240, Note_on_c, 8, 55, 100
10, 132588, Note_on_c, 8, 55, 0
10, 132600, Note_on_c, 8, 55, 100
10, 132708, Note_on_c, 8, 55, 0
10, 132720, Note_on_c, 8, 64, 100
10, 132828, Note_on_c, 8, 64, 0
10, 132840, Note_on_c, 8, 60, 100
10, 132948, Note_on_c, 8, 60, 0
10, 132960, Note_on_c, 8, 65, 100
10, 133068, Note_on_c, 8, 65, 0
10, 133080, Note_on_c, 8, 60, 100
10, 133188, Note_on_c, 8, 60, 0
10, 133200, Note_on_c, 8, 69, 100
10, 133308, Note_on_c, 8, 69, 0
10, 133320, Note_on_c, 8, 65, 100
10, 133428, Note_on_c, 8, 65, 0
10, 133440, Note_on_c, 8, 74, 100
10, 133548, Note_on_c, 8, 74, 0
10, 133560, Note_on_c, 8, 65, 100
10, 133668, Note_on_c, 8, 65, 0
10, 133680, Note_on_c, 8, 71, 100
10, 133788, Note_on_c, 8, 71, 0
10, 133800, Note_on_c, 8, 62, 100
10, 133908, Note_on_c, 8, 62, 0
10, 133920, Note_on_c, 8, 64, 100
10, 134028, Note_on_c, 8, 64, 0
10, 134040, Note_on_c, 8, 67, 100
10, 134148, Note_on_c, 8, 67, 0
10, 134160, Note_on_c, 8, 67, 100
10, 134268, Note_on_c, 8, 67, 0
10, 134280, Note_on_c, 8, 67, 100
10, 134388, Note_on_c, 8, 67, 0
10, 134400, Note_on_c, 8, 67, 100
10, 134616, Note_on_c, 8, 67, 0
10, 134616, End_track
11, 0, Start_track
11, 0, Title_t, "Basso Continuo"
11, 0, Program_c, 10, 42
11, 0, Control_c, 10, 7, 127
11, 0, Control_c, 10, 10, 94
11, 0, Note_on_c, 10, 60, 100
11, 108, Note_on_c, 10, 60, 0
11, 240, Note_on_c, 10, 59, 100
11, 348, Note_on_c, 10, 59, 0
11, 480, Note_on_c, 10, 57, 100
11, 588, Note_on_c, 10, 57, 0
11, 720, Note_on_c, 10, 52, 100
11, 828, Note_on_c, 10, 52, 0
11, 1080, Note_on_c, 10, 53, 100
11, 1188, Note_on_c, 10, 53, 0
11, 1200, Note_on_c, 10, 55, 100
11, 1308, Note_on_c, 10, 55, 0
11, 1320, Note_on_c, 10, 43, 100
11, 1428, Note_on_c, 10, 43, 0
11, 1440, Note_on_c, 10, 48, 100
11, 1548, Note_on_c, 10, 48, 0
11, 1560, Note_on_c, 10, 60, 100
11, 1668, Note_on_c, 10, 60, 0
11, 1680, Note_on_c, 10, 59, 100
11, 1788, Note_on_c, 10, 59, 0
11, 1800, Note_on_c, 10, 57, 100
11, 1908, Note_on_c, 10, 57, 0
11, 1920, Note_on_c, 10, 55, 100
11, 2028, Note_on_c, 10, 55, 0
11, 2160, Note_on_c, 10, 54, 100
11, 2268, Note_on_c, 10, 54, 0
11, 2400, Note_on_c, 10, 52, 100
11, 2508, Note_on_c, 10, 52, 0
11, 2640, Note_on_c, 10, 47, 100
11, 2748, Note_on_c, 10, 47, 0
11, 3000, Note_on_c, 10, 48, 100
11, 3108, Note_on_c, 10, 48, 0
11, 3120, Note_on_c, 10, 50, 100
11, 3228, Note_on_c, 10, 50, 0
11, 3240, Note_on_c, 10, 38, 100
11, 3348, Note_on_c, 10, 38, 0
11, 3360, Note_on_c, 10, 43, 100
11, 3468, Note_on_c, 10, 43, 0
11, 3480, Note_on_c, 10, 55, 100
11, 3588, Note_on_c, 10, 55, 0
11, 3600, Note_on_c, 10, 59, 100
11, 3708, Note_on_c, 10, 59, 0
11, 3720, Note_on_c, 10, 55, 100
11, 3828, Note_on_c, 10, 55, 0
11, 3840, Note_on_c, 10, 43, 100
11, 3948, Note_on_c, 10, 43, 0
11, 3960, Note_on_c, 10, 52, 100
11, 4068, Note_on_c, 10, 52, 0
11, 4080, Note_on_c, 10, 60, 100
11, 4188, Note_on_c, 10, 60, 0
11, 4200, Note_on_c, 10, 55, 100
11, 4308, Note_on_c, 10, 55, 0
11, 4320, Note_on_c, 10, 43, 100
11, 4428, Note_on_c, 10, 43, 0
11, 4440, Note_on_c, 10, 55, 100
11, 4548, Note_on_c, 10, 55, 0
11, 4560, Note_on_c, 10, 62, 100
11, 4668, Note_on_c, 10, 62, 0
11, 4680, Note_on_c, 10, 53, 100
11, 4788, Note_on_c, 10, 53, 0
11, 4800, Note_on_c, 10, 52, 100
11, 4908, Note_on_c, 10, 52, 0
11, 4920, Note_on_c, 10, 64, 100
11, 5028, Note_on_c, 10, 64, 0
11, 5040, Note_on_c, 10, 60, 100
11, 5148, Note_on_c, 10, 60, 0
11, 5160, Note_on_c, 10, 57, 100
11, 5268, Note_on_c, 10, 57, 0
11, 5280, Note_on_c, 10, 50, 100
11, 5388, Note_on_c, 10, 50, 0
11, 5400, Note_on_c, 10, 62, 100
11, 5508, Note_on_c, 10, 62, 0
11, 5520, Note_on_c, 10, 59, 100
11, 5628, Note_on_c, 10, 59, 0
11, 5640, Note_on_c, 10, 55, 100
11, 5748, Note_on_c, 10, 55, 0
11, 5760, Note_on_c, 10, 60, 100
11, 5868, Note_on_c, 10, 60, 0
11, 5880, Note_on_c, 10, 59, 100
11, 5988, Note_on_c, 10, 59, 0
11, 6000, Note_on_c, 10, 57, 100
11, 6108, Note_on_c, 10, 57, 0
11, 6120, Note_on_c, 10, 55, 100
11, 6228, Note_on_c, 10, 55, 0
11, 6240, Note_on_c, 10, 53, 100
11, 6348, Note_on_c, 10, 53, 0
11, 6360, Note_on_c, 10, 52, 100
11, 6468, Note_on_c, 10, 52, 0
11, 6480, Note_on_c, 10, 50, 100
11, 6588, Note_on_c, 10, 50, 0
11, 6600, Note_on_c, 10, 48, 100
11, 6708, Note_on_c, 10, 48, 0
11, 6720, Note_on_c, 10, 47, 100
11, 6828, Note_on_c, 10, 47, 0
11, 6840, Note_on_c, 10, 45, 100
11, 6948, Note_on_c, 10, 45, 0
11, 6960, Note_on_c, 10, 43, 100
11, 7068, Note_on_c, 10, 43, 0
11, 7080, Note_on_c, 10, 41, 100
11, 7188, Note_on_c, 10, 41, 0
11, 7200, Note_on_c, 10, 40, 100
11, 7254, Note_on_c, 10, 40, 0
11, 7260, Note_on_c, 10, 50, 100
11, 7314, Note_on_c, 10, 50, 0
11, 7320, Note_on_c, 10, 52, 100
11, 7374, Note_on_c, 10, 52, 0
11, 7380, Note_on_c, 10, 53, 100
11, 7434, Note_on_c, 10, 53, 0
11, 7440, Note_on_c, 10, 55, 100
11, 7548, Note_on_c, 10, 55, 0
11, 7560, Note_on_c, 10, 43, 100
11, 7668, Note_on_c, 10, 43, 0
11, 7680, Note_on_c, 10, 48, 100
11, 7788, Note_on_c, 10, 48, 0
11, 7800, Note_on_c, 10, 36, 100
11, 7908, Note_on_c, 10, 36, 0
11, 8040, Note_on_c, 10, 50, 100
11, 8148, Note_on_c, 10, 50, 0
11, 8160, Note_on_c, 10, 52, 100
11, 8268, Note_on_c, 10, 52, 0
11, 8280, Note_on_c, 10, 40, 100
11, 8388, Note_on_c, 10, 40, 0
11, 8520, Note_on_c, 10, 50, 100
11, 8628, Note_on_c, 10, 50, 0
11, 8640, Note_on_c, 10, 52, 100
11, 8748, Note_on_c, 10, 52, 0
11, 8760, Note_on_c, 10, 48, 100
11, 8868, Note_on_c, 10, 48, 0
11, 8880, Note_on_c, 10, 55, 100
11, 8988, Note_on_c, 10, 55, 0
11, 9000, Note_on_c, 10, 43, 100
11, 9108, Note_on_c, 10, 43, 0
11, 9120, Note_on_c, 10, 48, 100
11, 9228, Note_on_c, 10, 48, 0
11, 9240, Note_on_c, 10, 36, 100
11, 9348, Note_on_c, 10, 36, 0
11, 9600, Note_on_c, 10, 60, 100
11, 9708, Note_on_c, 10, 60, 0
11, 9840, Note_on_c, 10, 59, 100
11, 9948, Note_on_c, 10, 59, 0
11, 10080, Note_on_c, 10, 57, 100
11, 10188, Note_on_c, 10, 57, 0
11, 10320, Note_on_c, 10, 52, 100
11, 10428, Note_on_c, 10, 52, 0
11, 10680, Note_on_c, 10, 53, 100
11, 10788, Note_on_c, 10, 53, 0
11, 10800, Note_on_c, 10, 55, 100
11, 10908, Note_on_c, 10, 55, 0
11, 10920, Note_on_c, 10, 43, 100
11, 11028, Note_on_c, 10, 43, 0
11, 11040, Note_on_c, 10, 48, 100
11, 11148, Note_on_c, 10, 48, 0
11, 11160, Note_on_c, 10, 60, 100
11, 11268, Note_on_c, 10, 60, 0
11, 11280, Note_on_c, 10, 59, 100
11, 11388, Note_on_c, 10, 59, 0
11, 11400, Note_on_c, 10, 57, 100
11, 11508, Note_on_c, 10, 57, 0
11, 11520, Note_on_c, 10, 55, 100
11, 11628, Note_on_c, 10, 55, 0
11, 11640, Note_on_c, 10, 43, 100
11, 11748, Note_on_c, 10, 43, 0
11, 11880, Note_on_c, 10, 57, 100
11, 11988, Note_on_c, 10, 57, 0
11, 12000, Note_on_c, 10, 59, 100
11, 12108, Note_on_c, 10, 59, 0
11, 12120, Note_on_c, 10, 47, 100
11, 12228, Note_on_c, 10, 47, 0
11, 12360, Note_on_c, 10, 57, 100
11, 12468, Note_on_c, 10, 57, 0
11, 12480, Note_on_c, 10, 59, 100
11, 12588, Note_on_c, 10, 59, 0
11, 12600, Note_on_c, 10, 55, 100
11, 12708, Note_on_c, 10, 55, 0
11, 12720, Note_on_c, 10, 62, 100
11, 12828, Note_on_c, 10, 62, 0
11, 12840, Note_on_c, 10, 50, 100
11, 12948, Note_on_c, 10, 50, 0
11, 12960, Note_on_c, 10, 43, 100
11, 13068, Note_on_c, 10, 43, 0
11, 13080, Note_on_c, 10, 45, 100
11, 13188, Note_on_c, 10, 45, 0
11, 13200, Note_on_c, 10, 47, 100
11, 13308, Note_on_c, 10, 47, 0
11, 13320, Note_on_c, 10, 43, 100
11, 13428, Note_on_c, 10, 43, 0
11, 13440, Note_on_c, 10, 48, 100
11, 13548, Note_on_c, 10, 48, 0
11, 13560, Note_on_c, 10, 50, 100
11, 13668, Note_on_c, 10, 50, 0
11, 13680, Note_on_c, 10, 52, 100
11, 13788, Note_on_c, 10, 52, 0
11, 13800, Note_on_c, 10, 48, 100
11, 13908, Note_on_c, 10, 48, 0
11, 13920, Note_on_c, 10, 42, 100
11, 14028, Note_on_c, 10, 42, 0
11, 14040, Note_on_c, 10, 43, 100
11, 14148, Note_on_c, 10, 43, 0
11, 14160, Note_on_c, 10, 45, 100
11, 14268, Note_on_c, 10, 45, 0
11, 14280, Note_on_c, 10, 42, 100
11, 14388, Note_on_c, 10, 42, 0
11, 14400, Note_on_c, 10, 47, 100
11, 14508, Note_on_c, 10, 47, 0
11, 14520, Note_on_c, 10, 48, 100
11, 14628, Note_on_c, 10, 48, 0
11, 14640, Note_on_c, 10, 50, 100
11, 14748, Note_on_c, 10, 50, 0
11, 14760, Note_on_c, 10, 47, 100
11, 14868, Note_on_c, 10, 47, 0
11, 14880, Note_on_c, 10, 40, 100
11, 14988, Note_on_c, 10, 40, 0
11, 15000, Note_on_c, 10, 42, 100
11, 15108, Note_on_c, 10, 42, 0
11, 15120, Note_on_c, 10, 43, 100
11, 15228, Note_on_c, 10, 43, 0
11, 15240, Note_on_c, 10, 40, 100
11, 15348, Note_on_c, 10, 40, 0
11, 15360, Note_on_c, 10, 45, 100
11, 15468, Note_on_c, 10, 45, 0
11, 15480, Note_on_c, 10, 47, 100
11, 15588, Note_on_c, 10, 47, 0
11, 15600, Note_on_c, 10, 48, 100
11, 15708, Note_on_c, 10, 48, 0
11, 15720, Note_on_c, 10, 45, 100
11, 15828, Note_on_c, 10, 45, 0
11, 15840, Note_on_c, 10, 50, 100
11, 15948, Note_on_c, 10, 50, 0
11, 15960, Note_on_c, 10, 38, 100
11, 16068, Note_on_c, 10, 38, 0
11, 16200, Note_on_c, 10, 50, 100
11, 16308, Note_on_c, 10, 50, 0
11, 16320, Note_on_c, 10, 50, 100
11, 16428, Note_on_c, 10, 50, 0
11, 16440, Note_on_c, 10, 38, 100
11, 16548, Note_on_c, 10, 38, 0
11, 16680, Note_on_c, 10, 50, 100
11, 16788, Note_on_c, 10, 50, 0
11, 16800, Note_on_c, 10, 50, 100
11, 16908, Note_on_c, 10, 50, 0
11, 16920, Note_on_c, 10, 38, 100
11, 17028, Note_on_c, 10, 38, 0
11, 17160, Note_on_c, 10, 50, 100
11, 17268, Note_on_c, 10, 50, 0
11, 17280, Note_on_c, 10, 43, 100
11, 17388, Note_on_c, 10, 43, 0
11, 17400, Note_on_c, 10, 45, 100
11, 17508, Note_on_c, 10, 45, 0
11, 17520, Note_on_c, 10, 47, 100
11, 17628, Note_on_c, 10, 47, 0
11, 17640, Note_on_c, 10, 43, 100
11, 17748, Note_on_c, 10, 43, 0
11, 17760, Note_on_c, 10, 48, 100
11, 17868, Note_on_c, 10, 48, 0
11, 17880, Note_on_c, 10, 50, 100
11, 17988, Note_on_c, 10, 50, 0
11, 18000, Note_on_c, 10, 52, 100
11, 18108, Note_on_c, 10, 52, 0
11, 18120, Note_on_c, 10, 48, 100
11, 18228, Note_on_c, 10, 48, 0
11, 18240, Note_on_c, 10, 50, 100
11, 18348, Note_on_c, 10, 50, 0
11, 18360, Note_on_c, 10, 52, 100
11, 18468, Note_on_c, 10, 52, 0
11, 18480, Note_on_c, 10, 54, 100
11, 18588, Note_on_c, 10, 54, 0
11, 18600, Note_on_c, 10, 50, 100
11, 18708, Note_on_c, 10, 50, 0
11, 18720, Note_on_c, 10, 55, 100
11, 18828, Note_on_c, 10, 55, 0
11, 18840, Note_on_c, 10, 48, 100
11, 18948, Note_on_c, 10, 48, 0
11, 18960, Note_on_c, 10, 50, 100
11, 19068, Note_on_c, 10, 50, 0
11, 19080, Note_on_c, 10, 38, 100
11, 19188, Note_on_c, 10, 38, 0
11, 19200, Note_on_c, 10, 43, 100
11, 19416, Note_on_c, 10, 43, 0
11, 20040, Note_on_c, 10, 43, 100
11, 20148, Note_on_c, 10, 43, 0
11, 20160, Note_on_c, 10, 48, 100
11, 20268, Note_on_c, 10, 48, 0
11, 20280, Note_on_c, 10, 43, 100
11, 20388, Note_on_c, 10, 43, 0
11, 20400, Note_on_c, 10, 48, 100
11, 20508, Note_on_c, 10, 48, 0
11, 20520, Note_on_c, 10, 43, 100
11, 20628, Note_on_c, 10, 43, 0
11, 20640, Note_on_c, 10, 48, 100
11, 20856, Note_on_c, 10, 48, 0
11, 21000, Note_on_c, 10, 40, 100
11, 21108, Note_on_c, 10, 40, 0
11, 21120, Note_on_c, 10, 45, 100
11, 21228, Note_on_c, 10, 45, 0
11, 21240, Note_on_c, 10, 40, 100
11, 21348, Note_on_c, 10, 40, 0
11, 21360, Note_on_c, 10, 45, 100
11, 21468, Note_on_c, 10, 45, 0
11, 21480, Note_on_c, 10, 40, 100
11, 21588, Note_on_c, 10, 40, 0
11, 21600, Note_on_c, 10, 45, 100
11, 21816, Note_on_c, 10, 45, 0
11, 21960, Note_on_c, 10, 57, 100
11, 22068, Note_on_c, 10, 57, 0
11, 22080, Note_on_c, 10, 62, 100
11, 22188, Note_on_c, 10, 62, 0
11, 22200, Note_on_c, 10, 57, 100
11, 22308, Note_on_c, 10, 57, 0
11, 22320, Note_on_c, 10, 62, 100
11, 22428, Note_on_c, 10, 62, 0
11, 22440, Note_on_c, 10, 57, 100
11, 22548, Note_on_c, 10, 57, 0
11, 22560, Note_on_c, 10, 62, 100
11, 22668, Note_on_c, 10, 62, 0
11, 22680, Note_on_c, 10, 60, 100
11, 22788, Note_on_c, 10, 60, 0
11, 22800, Note_on_c, 10, 59, 100
11, 22908, Note_on_c, 10, 59, 0
11, 22920, Note_on_c, 10, 55, 100
11, 23028, Note_on_c, 10, 55, 0
11, 23040, Note_on_c, 10, 60, 100
11, 23148, Note_on_c, 10, 60, 0
11, 23160, Note_on_c, 10, 59, 100
11, 23268, Note_on_c, 10, 59, 0
11, 23280, Note_on_c, 10, 57, 100
11, 23388, Note_on_c, 10, 57, 0
11, 23400, Note_on_c, 10, 55, 100
11, 23508, Note_on_c, 10, 55, 0
11, 23520, Note_on_c, 10, 54, 100
11, 23628, Note_on_c, 10, 54, 0
11, 23640, Note_on_c, 10, 59, 100
11, 23748, Note_on_c, 10, 59, 0
11, 23760, Note_on_c, 10, 56, 100
11, 23868, Note_on_c, 10, 56, 0
11, 23880, Note_on_c, 10, 52, 100
11, 23988, Note_on_c, 10, 52, 0
11, 24000, Note_on_c, 10, 57, 100
11, 24108, Note_on_c, 10, 57, 0
11, 24120, Note_on_c, 10, 55, 100
11, 24228, Note_on_c, 10, 55, 0
11, 24240, Note_on_c, 10, 53, 100
11, 24348, Note_on_c, 10, 53, 0
11, 24360, Note_on_c, 10, 52, 100
11, 24468, Note_on_c, 10, 52, 0
11, 24480, Note_on_c, 10, 50, 100
11, 24588, Note_on_c, 10, 50, 0
11, 24600, Note_on_c, 10, 55, 100
11, 24708, Note_on_c, 10, 55, 0
11, 24720, Note_on_c, 10, 52, 100
11, 24828, Note_on_c, 10, 52, 0
11, 24840, Note_on_c, 10, 48, 100
11, 24948, Note_on_c, 10, 48, 0
11, 24960, Note_on_c, 10, 53, 100
11, 25068, Note_on_c, 10, 53, 0
11, 25080, Note_on_c, 10, 52, 100
11, 25188, Note_on_c, 10, 52, 0
11, 25200, Note_on_c, 10, 50, 100
11, 25308, Note_on_c, 10, 50, 0
11, 25320, Note_on_c, 10, 48, 100
11, 25428, Note_on_c, 10, 48, 0
11, 25440, Note_on_c, 10, 47, 100
11, 25548, Note_on_c, 10, 47, 0
11, 25560, Note_on_c, 10, 43, 100
11, 25668, Note_on_c, 10, 43, 0
11, 25680, Note_on_c, 10, 48, 100
11, 25788, Note_on_c, 10, 48, 0
11, 25800, Note_on_c, 10, 47, 100
11, 25908, Note_on_c, 10, 47, 0
11, 25920, Note_on_c, 10, 45, 100
11, 26028, Note_on_c, 10, 45, 0
11, 26040, Note_on_c, 10, 50, 100
11, 26148, Note_on_c, 10, 50, 0
11, 26160, Note_on_c, 10, 47, 100
11, 26268, Note_on_c, 10, 47, 0
11, 26280, Note_on_c, 10, 43, 100
11, 26388, Note_on_c, 10, 43, 0
11, 26400, Note_on_c, 10, 48, 100
11, 26508, Note_on_c, 10, 48, 0
11, 26520, Note_on_c, 10, 47, 100
11, 26628, Note_on_c, 10, 47, 0
11, 26640, Note_on_c, 10, 45, 100
11, 26748, Note_on_c, 10, 45, 0
11, 26760, Note_on_c, 10, 43, 100
11, 26868, Note_on_c, 10, 43, 0
11, 26880, Note_on_c, 10, 41, 100
11, 26988, Note_on_c, 10, 41, 0
11, 27000, Note_on_c, 10, 40, 100
11, 27108, Note_on_c, 10, 40, 0
11, 27120, Note_on_c, 10, 41, 100
11, 27228, Note_on_c, 10, 41, 0
11, 27240, Note_on_c, 10, 38, 100
11, 27348, Note_on_c, 10, 38, 0
11, 27360, Note_on_c, 10, 43, 100
11, 27576, Note_on_c, 10, 43, 0
11, 27840, Note_on_c, 10, 60, 100
11, 27948, Note_on_c, 10, 60, 0
11, 28080, Note_on_c, 10, 59, 100
11, 28188, Note_on_c, 10, 59, 0
11, 28320, Note_on_c, 10, 57, 100
11, 28428, Note_on_c, 10, 57, 0
11, 28560, Note_on_c, 10, 52, 100
11, 28668, Note_on_c, 10, 52, 0
11, 28920, Note_on_c, 10, 53, 100
11, 29028, Note_on_c, 10, 53, 0
11, 29040, Note_on_c, 10, 55, 100
11, 29148, Note_on_c, 10, 55, 0
11, 29160, Note_on_c, 10, 53, 100
11, 29268, Note_on_c, 10, 53, 0
11, 29280, Note_on_c, 10, 52, 100
11, 29388, Note_on_c, 10, 52, 0
11, 29400, Note_on_c, 10, 52, 100
11, 29508, Note_on_c, 10, 52, 0
11, 29520, Note_on_c, 10, 52, 100
11, 29628, Note_on_c, 10, 52, 0
11, 29640, Note_on_c, 10, 52, 100
11, 29748, Note_on_c, 10, 52, 0
11, 29760, Note_on_c, 10, 53, 100
11, 29868, Note_on_c, 10, 53, 0
11, 29880, Note_on_c, 10, 53, 100
11, 29988, Note_on_c, 10, 53, 0
11, 30000, Note_on_c, 10, 53, 100
11, 30108, Note_on_c, 10, 53, 0
11, 30120, Note_on_c, 10, 53, 100
11, 30228, Note_on_c, 10, 53, 0
11, 30240, Note_on_c, 10, 54, 100
11, 30348, Note_on_c, 10, 54, 0
11, 30360, Note_on_c, 10, 54, 100
11, 30468, Note_on_c, 10, 54, 0
11, 30480, Note_on_c, 10, 54, 100
11, 30588, Note_on_c, 10, 54, 0
11, 30600, Note_on_c, 10, 54, 100
11, 30708, Note_on_c, 10, 54, 0
11, 30720, Note_on_c, 10, 55, 100
11, 30828, Note_on_c, 10, 55, 0
11, 30840, Note_on_c, 10, 55, 100
11, 30948, Note_on_c, 10, 55, 0
11, 30960, Note_on_c, 10, 55, 100
11, 31068, Note_on_c, 10, 55, 0
11, 31080, Note_on_c, 10, 55, 100
11, 31188, Note_on_c, 10, 55, 0
11, 31200, Note_on_c, 10, 56, 100
11, 31308, Note_on_c, 10, 56, 0
11, 31320, Note_on_c, 10, 56, 100
11, 31428, Note_on_c, 10, 56, 0
11, 31440, Note_on_c, 10, 56, 100
11, 31548, Note_on_c, 10, 56, 0
11, 31560, Note_on_c, 10, 56, 100
11, 31668, Note_on_c, 10, 56, 0
11, 31680, Note_on_c, 10, 57, 100
11, 31788, Note_on_c, 10, 57, 0
11, 31800, Note_on_c, 10, 57, 100
11, 31908, Note_on_c, 10, 57, 0
11, 31920, Note_on_c, 10, 57, 100
11, 32028, Note_on_c, 10, 57, 0
11, 32040, Note_on_c, 10, 57, 100
11, 32148, Note_on_c, 10, 57, 0
11, 32160, Note_on_c, 10, 57, 100
11, 32268, Note_on_c, 10, 57, 0
11, 32280, Note_on_c, 10, 57, 100
11, 32388, Note_on_c, 10, 57, 0
11, 32400, Note_on_c, 10, 57, 100
11, 32508, Note_on_c, 10, 57, 0
11, 32520, Note_on_c, 10, 57, 100
11, 32628, Note_on_c, 10, 57, 0
11, 32640, Note_on_c, 10, 59, 100
11, 32748, Note_on_c, 10, 59, 0
11, 32760, Note_on_c, 10, 59, 100
11, 32868, Note_on_c, 10, 59, 0
11, 32880, Note_on_c, 10, 59, 100
11, 32988, Note_on_c, 10, 59, 0
11, 33000, Note_on_c, 10, 59, 100
11, 33108, Note_on_c, 10, 59, 0
11, 33120, Note_on_c, 10, 60, 100
11, 33228, Note_on_c, 10, 60, 0
11, 33240, Note_on_c, 10, 60, 100
11, 33348, Note_on_c, 10, 60, 0
11, 33360, Note_on_c, 10, 60, 100
11, 33468, Note_on_c, 10, 60, 0
11, 33480, Note_on_c, 10, 60, 100
11, 33588, Note_on_c, 10, 60, 0
11, 33600, Note_on_c, 10, 54, 100
11, 33708, Note_on_c, 10, 54, 0
11, 33720, Note_on_c, 10, 54, 100
11, 33828, Note_on_c, 10, 54, 0
11, 33840, Note_on_c, 10, 54, 100
11, 33948, Note_on_c, 10, 54, 0
11, 33960, Note_on_c, 10, 54, 100
11, 34068, Note_on_c, 10, 54, 0
11, 34080, Note_on_c, 10, 54, 100
11, 34188, Note_on_c, 10, 54, 0
11, 34200, Note_on_c, 10, 54, 100
11, 34308, Note_on_c, 10, 54, 0
11, 34320, Note_on_c, 10, 54, 100
11, 34428, Note_on_c, 10, 54, 0
11, 34440, Note_on_c, 10, 54, 100
11, 34548, Note_on_c, 10, 54, 0
11, 34560, Note_on_c, 10, 55, 100
11, 34668, Note_on_c, 10, 55, 0
11, 34680, Note_on_c, 10, 53, 100
11, 34734, Note_on_c, 10, 53, 0
11, 34740, Note_on_c, 10, 52, 100
11, 34794, Note_on_c, 10, 52, 0
11, 34800, Note_on_c, 10, 50, 100
11, 34908, Note_on_c, 10, 50, 0
11, 34920, Note_on_c, 10, 48, 100
11, 35028, Note_on_c, 10, 48, 0
11, 35040, Note_on_c, 10, 47, 100
11, 35148, Note_on_c, 10, 47, 0
11, 35160, Note_on_c, 10, 43, 100
11, 35268, Note_on_c, 10, 43, 0
11, 35280, Note_on_c, 10, 43, 100
11, 35388, Note_on_c, 10, 43, 0
11, 35400, Note_on_c, 10, 43, 100
11, 35508, Note_on_c, 10, 43, 0
11, 35520, Note_on_c, 10, 43, 100
11, 35628, Note_on_c, 10, 43, 0
11, 35640, Note_on_c, 10, 43, 100
11, 35748, Note_on_c, 10, 43, 0
11, 35760, Note_on_c, 10, 43, 100
11, 35868, Note_on_c, 10, 43, 0
11, 35880, Note_on_c, 10, 43, 100
11, 35988, Note_on_c, 10, 43, 0
11, 36000, Note_on_c, 10, 43, 100
11, 36108, Note_on_c, 10, 43, 0
11, 36120, Note_on_c, 10, 43, 100
11, 36228, Note_on_c, 10, 43, 0
11, 36240, Note_on_c, 10, 43, 100
11, 36348, Note_on_c, 10, 43, 0
11, 36360, Note_on_c, 10, 43, 100
11, 36468, Note_on_c, 10, 43, 0
11, 36480, Note_on_c, 10, 43, 100
11, 36588, Note_on_c, 10, 43, 0
11, 36600, Note_on_c, 10, 43, 100
11, 36708, Note_on_c, 10, 43, 0
11, 36720, Note_on_c, 10, 43, 100
11, 36828, Note_on_c, 10, 43, 0
11, 36840, Note_on_c, 10, 43, 100
11, 36948, Note_on_c, 10, 43, 0
11, 36960, Note_on_c, 10, 48, 100
11, 37068, Note_on_c, 10, 48, 0
11, 37080, Note_on_c, 10, 50, 100
11, 37134, Note_on_c, 10, 50, 0
11, 37140, Note_on_c, 10, 52, 100
11, 37194, Note_on_c, 10, 52, 0
11, 37200, Note_on_c, 10, 53, 100
11, 37254, Note_on_c, 10, 53, 0
11, 37260, Note_on_c, 10, 55, 100
11, 37314, Note_on_c, 10, 55, 0
11, 37320, Note_on_c, 10, 57, 100
11, 37374, Note_on_c, 10, 57, 0
11, 37380, Note_on_c, 10, 59, 100
11, 37434, Note_on_c, 10, 59, 0
11, 37440, Note_on_c, 10, 60, 100
11, 37548, Note_on_c, 10, 60, 0
11, 37680, Note_on_c, 10, 59, 100
11, 37788, Note_on_c, 10, 59, 0
11, 37920, Note_on_c, 10, 57, 100
11, 38028, Note_on_c, 10, 57, 0
11, 38160, Note_on_c, 10, 52, 100
11, 38268, Note_on_c, 10, 52, 0
11, 38520, Note_on_c, 10, 53, 100
11, 38628, Note_on_c, 10, 53, 0
11, 38640, Note_on_c, 10, 55, 100
11, 38748, Note_on_c, 10, 55, 0
11, 38760, Note_on_c, 10, 53, 100
11, 38868, Note_on_c, 10, 53, 0
11, 38880, Note_on_c, 10, 52, 100
11, 38988, Note_on_c, 10, 52, 0
11, 39120, Note_on_c, 10, 57, 100
11, 39228, Note_on_c, 10, 57, 0
11, 39480, Note_on_c, 10, 55, 100
11, 39534, Note_on_c, 10, 55, 0
11, 39540, Note_on_c, 10, 53, 100
11, 39594, Note_on_c, 10, 53, 0
11, 39600, Note_on_c, 10, 55, 100
11, 39708, Note_on_c, 10, 55, 0
11, 39720, Note_on_c, 10, 43, 100
11, 39828, Note_on_c, 10, 43, 0
11, 39840, Note_on_c, 10, 36, 100
11, 39948, Note_on_c, 10, 36, 0
11, 39960, Note_on_c, 10, 48, 100
11, 40014, Note_on_c, 10, 48, 0
11, 40020, Note_on_c, 10, 50, 100
11, 40074, Note_on_c, 10, 50, 0
11, 40080, Note_on_c, 10, 48, 100
11, 40188, Note_on_c, 10, 48, 0
11, 40200, Note_on_c, 10, 47, 100
11, 40308, Note_on_c, 10, 47, 0
11, 40320, Note_on_c, 10, 45, 100
11, 40428, Note_on_c, 10, 45, 0
11, 40440, Note_on_c, 10, 47, 100
11, 40548, Note_on_c, 10, 47, 0
11, 40560, Note_on_c, 10, 48, 100
11, 40668, Note_on_c, 10, 48, 0
11, 40680, Note_on_c, 10, 50, 100
11, 40788, Note_on_c, 10, 50, 0
11, 40800, Note_on_c, 10, 52, 100
11, 40908, Note_on_c, 10, 52, 0
11, 40920, Note_on_c, 10, 50, 100
11, 41028, Note_on_c, 10, 50, 0
11, 41040, Note_on_c, 10, 48, 100
11, 41148, Note_on_c, 10, 48, 0
11, 41160, Note_on_c, 10, 45, 100
11, 41268, Note_on_c, 10, 45, 0
11, 41280, Note_on_c, 10, 47, 100
11, 41388, Note_on_c, 10, 47, 0
11, 41400, Note_on_c, 10, 45, 100
11, 41508, Note_on_c, 10, 45, 0
11, 41520, Note_on_c, 10, 44, 100
11, 41628, Note_on_c, 10, 44, 0
11, 41640, Note_on_c, 10, 40, 100
11, 41748, Note_on_c, 10, 40, 0
11, 41760, Note_on_c, 10, 45, 100
11, 41868, Note_on_c, 10, 45, 0
11, 41880, Note_on_c, 10, 57, 100
11, 41934, Note_on_c, 10, 57, 0
11, 41940, Note_on_c, 10, 55, 100
11, 41994, Note_on_c, 10, 55, 0
11, 42000, Note_on_c, 10, 53, 100
11, 42108, Note_on_c, 10, 53, 0
11, 42120, Note_on_c, 10, 57, 100
11, 42228, Note_on_c, 10, 57, 0
11, 42240, Note_on_c, 10, 50, 100
11, 42348, Note_on_c, 10, 50, 0
11, 42360, Note_on_c, 10, 52, 100
11, 42468, Note_on_c, 10, 52, 0
11, 42480, Note_on_c, 10, 53, 100
11, 42588, Note_on_c, 10, 53, 0
11, 42600, Note_on_c, 10, 58, 100
11, 42708, Note_on_c, 10, 58, 0
11, 42720, Note_on_c, 10, 57, 100
11, 42828, Note_on_c, 10, 57, 0
11, 42840, Note_on_c, 10, 55, 100
11, 42948, Note_on_c, 10, 55, 0
11, 42960, Note_on_c, 10, 53, 100
11, 43068, Note_on_c, 10, 53, 0
11, 43080, Note_on_c, 10, 50, 100
11, 43188, Note_on_c, 10, 50, 0
11, 43200, Note_on_c, 10, 49, 100
11, 43308, Note_on_c, 10, 49, 0
11, 43320, Note_on_c, 10, 50, 100
11, 43428, Note_on_c, 10, 50, 0
11, 43440, Note_on_c, 10, 57, 100
11, 43548, Note_on_c, 10, 57, 0
11, 43560, Note_on_c, 10, 45, 100
11, 43668, Note_on_c, 10, 45, 0
11, 43680, Note_on_c, 10, 50, 100
11, 43788, Note_on_c, 10, 50, 0
11, 43800, Note_on_c, 10, 38, 100
11, 43908, Note_on_c, 10, 38, 0
11, 44040, Note_on_c, 10, 50, 100
11, 44148, Note_on_c, 10, 50, 0
11, 44160, Note_on_c, 10, 55, 100
11, 44268, Note_on_c, 10, 55, 0
11, 44280, Note_on_c, 10, 43, 100
11, 44388, Note_on_c, 10, 43, 0
11, 44520, Note_on_c, 10, 55, 100
11, 44628, Note_on_c, 10, 55, 0
11, 44640, Note_on_c, 10, 48, 100
11, 44748, Note_on_c, 10, 48, 0
11, 44760, Note_on_c, 10, 47, 100
11, 44868, Note_on_c, 10, 47, 0
11, 44880, Note_on_c, 10, 45, 100
11, 44988, Note_on_c, 10, 45, 0
11, 45000, Note_on_c, 10, 57, 100
11, 45108, Note_on_c, 10, 57, 0
11, 45120, Note_on_c, 10, 59, 100
11, 45228, Note_on_c, 10, 59, 0
11, 45240, Note_on_c, 10, 57, 100
11, 45348, Note_on_c, 10, 57, 0
11, 45360, Note_on_c, 10, 55, 100
11, 45468, Note_on_c, 10, 55, 0
11, 45480, Note_on_c, 10, 60, 100
11, 45588, Note_on_c, 10, 60, 0
11, 45600, Note_on_c, 10, 59, 100
11, 45708, Note_on_c, 10, 59, 0
11, 45720, Note_on_c, 10, 57, 100
11, 45828, Note_on_c, 10, 57, 0
11, 45840, Note_on_c, 10, 55, 100
11, 45948, Note_on_c, 10, 55, 0
11, 45960, Note_on_c, 10, 52, 100
11, 46068, Note_on_c, 10, 52, 0
11, 46080, Note_on_c, 10, 51, 100
11, 46188, Note_on_c, 10, 51, 0
11, 46200, Note_on_c, 10, 52, 100
11, 46308, Note_on_c, 10, 52, 0
11, 46320, Note_on_c, 10, 59, 100
11, 46428, Note_on_c, 10, 59, 0
11, 46440, Note_on_c, 10, 47, 100
11, 46548, Note_on_c, 10, 47, 0
11, 46560, Note_on_c, 10, 52, 100
11, 46668, Note_on_c, 10, 52, 0
11, 46680, Note_on_c, 10, 40, 100
11, 46788, Note_on_c, 10, 40, 0
11, 46920, Note_on_c, 10, 52, 100
11, 47028, Note_on_c, 10, 52, 0
11, 47040, Note_on_c, 10, 57, 100
11, 47148, Note_on_c, 10, 57, 0
11, 47160, Note_on_c, 10, 45, 100
11, 47268, Note_on_c, 10, 45, 0
11, 47400, Note_on_c, 10, 45, 100
11, 47508, Note_on_c, 10, 45, 0
11, 47520, Note_on_c, 10, 50, 100
11, 47628, Note_on_c, 10, 50, 0
11, 47640, Note_on_c, 10, 38, 100
11, 47748, Note_on_c, 10, 38, 0
11, 47880, Note_on_c, 10, 50, 100
11, 47988, Note_on_c, 10, 50, 0
11, 48000, Note_on_c, 10, 55, 100
11, 48108, Note_on_c, 10, 55, 0
11, 48120, Note_on_c, 10, 43, 100
11, 48228, Note_on_c, 10, 43, 0
11, 48360, Note_on_c, 10, 55, 100
11, 48468, Note_on_c, 10, 55, 0
11, 48480, Note_on_c, 10, 60, 100
11, 48588, Note_on_c, 10, 60, 0
11, 48600, Note_on_c, 10, 48, 100
11, 48708, Note_on_c, 10, 48, 0
11, 48840, Note_on_c, 10, 60, 100
11, 48948, Note_on_c, 10, 60, 0
11, 48960, Note_on_c, 10, 54, 100
11, 49014, Note_on_c, 10, 54, 0
11, 49020, Note_on_c, 10, 42, 100
11, 49074, Note_on_c, 10, 42, 0
11, 49080, Note_on_c, 10, 45, 100
11, 49134, Note_on_c, 10, 45, 0
11, 49140, Note_on_c, 10, 48, 100
11, 49194, Note_on_c, 10, 48, 0
11, 49200, Note_on_c, 10, 54, 100
11, 49254, Note_on_c, 10, 54, 0
11, 49260, Note_on_c, 10, 52, 100
11, 49314, Note_on_c, 10, 52, 0
11, 49320, Note_on_c, 10, 50, 100
11, 49374, Note_on_c, 10, 50, 0
11, 49380, Note_on_c, 10, 52, 100
11, 49434, Note_on_c, 10, 52, 0
11, 49440, Note_on_c, 10, 54, 100
11, 49494, Note_on_c, 10, 54, 0
11, 49500, Note_on_c, 10, 47, 100
11, 49554, Note_on_c, 10, 47, 0
11, 49560, Note_on_c, 10, 50, 100
11, 49614, Note_on_c, 10, 50, 0
11, 49620, Note_on_c, 10, 54, 100
11, 49674, Note_on_c, 10, 54, 0
11, 49680, Note_on_c, 10, 59, 100
11, 49734, Note_on_c, 10, 59, 0
11, 49740, Note_on_c, 10, 57, 100
11, 49794, Note_on_c, 10, 57, 0
11, 49800, Note_on_c, 10, 55, 100
11, 49854, Note_on_c, 10, 55, 0
11, 49860, Note_on_c, 10, 54, 100
11, 49914, Note_on_c, 10, 54, 0
11, 49920, Note_on_c, 10, 52, 100
11, 50028, Note_on_c, 10, 52, 0
11, 50040, Note_on_c, 10, 54, 100
11, 50148, Note_on_c, 10, 54, 0
11, 50160, Note_on_c, 10, 55, 100
11, 50268, Note_on_c, 10, 55, 0
11, 50280, Note_on_c, 10, 52, 100
11, 50388, Note_on_c, 10, 52, 0
11, 50400, Note_on_c, 10, 45, 100
11, 50508, Note_on_c, 10, 45, 0
11, 50520, Note_on_c, 10, 47, 100
11, 50628, Note_on_c, 10, 47, 0
11, 50640, Note_on_c, 10, 48, 100
11, 50748, Note_on_c, 10, 48, 0
11, 50760, Note_on_c, 10, 45, 100
11, 50868, Note_on_c, 10, 45, 0
11, 50880, Note_on_c, 10, 50, 100
11, 50988, Note_on_c, 10, 50, 0
11, 51000, Note_on_c, 10, 52, 100
11, 51108, Note_on_c, 10, 52, 0
11, 51120, Note_on_c, 10, 54, 100
11, 51228, Note_on_c, 10, 54, 0
11, 51240, Note_on_c, 10, 50, 100
11, 51348, Note_on_c, 10, 50, 0
11, 51360, Note_on_c, 10, 43, 100
11, 51468, Note_on_c, 10, 43, 0
11, 51480, Note_on_c, 10, 45, 100
11, 51588, Note_on_c, 10, 45, 0
11, 51600, Note_on_c, 10, 47, 100
11, 51708, Note_on_c, 10, 47, 0
11, 51720, Note_on_c, 10, 43, 100
11, 51828, Note_on_c, 10, 43, 0
11, 51840, Note_on_c, 10, 48, 100
11, 51948, Note_on_c, 10, 48, 0
11, 51960, Note_on_c, 10, 47, 100
11, 52068, Note_on_c, 10, 47, 0
11, 52080, Note_on_c, 10, 48, 100
11, 52188, Note_on_c, 10, 48, 0
11, 52200, Note_on_c, 10, 45, 100
11, 52308, Note_on_c, 10, 45, 0
11, 52320, Note_on_c, 10, 50, 100
11, 52428, Note_on_c, 10, 50, 0
11, 52440, Note_on_c, 10, 48, 100
11, 52548, Note_on_c, 10, 48, 0
11, 52560, Note_on_c, 10, 50, 100
11, 52668, Note_on_c, 10, 50, 0
11, 52680, Note_on_c, 10, 47, 100
11, 52788, Note_on_c, 10, 47, 0
11, 52800, Note_on_c, 10, 52, 100
11, 52908, Note_on_c, 10, 52, 0
11, 52920, Note_on_c, 10, 50, 100
11, 53028, Note_on_c, 10, 50, 0
11, 53040, Note_on_c, 10, 52, 100
11, 53148, Note_on_c, 10, 52, 0
11, 53160, Note_on_c, 10, 48, 100
11, 53268, Note_on_c, 10, 48, 0
11, 53280, Note_on_c, 10, 54, 100
11, 53388, Note_on_c, 10, 54, 0
11, 53400, Note_on_c, 10, 52, 100
11, 53508, Note_on_c, 10, 52, 0
11, 53520, Note_on_c, 10, 54, 100
11, 53628, Note_on_c, 10, 54, 0
11, 53640, Note_on_c, 10, 50, 100
11, 53748, Note_on_c, 10, 50, 0
11, 53760, Note_on_c, 10, 55, 100
11, 53868, Note_on_c, 10, 55, 0
11, 53880, Note_on_c, 10, 43, 100
11, 53988, Note_on_c, 10, 43, 0
11, 54120, Note_on_c, 10, 57, 100
11, 54228, Note_on_c, 10, 57, 0
11, 54240, Note_on_c, 10, 59, 100
11, 54348, Note_on_c, 10, 59, 0
11, 54360, Note_on_c, 10, 47, 100
11, 54468, Note_on_c, 10, 47, 0
11, 54600, Note_on_c, 10, 57, 100
11, 54708, Note_on_c, 10, 57, 0
11, 54720, Note_on_c, 10, 59, 100
11, 54828, Note_on_c, 10, 59, 0
11, 54840, Note_on_c, 10, 55, 100
11, 54948, Note_on_c, 10, 55, 0
11, 54960, Note_on_c, 10, 62, 100
11, 55068, Note_on_c, 10, 62, 0
11, 55080, Note_on_c, 10, 50, 100
11, 55188, Note_on_c, 10, 50, 0
11, 55200, Note_on_c, 10, 55, 100
11, 55308, Note_on_c, 10, 55, 0
11, 55320, Note_on_c, 10, 48, 100
11, 55428, Note_on_c, 10, 48, 0
11, 55440, Note_on_c, 10, 50, 100
11, 55548, Note_on_c, 10, 50, 0
11, 55560, Note_on_c, 10, 38, 100
11, 55668, Note_on_c, 10, 38, 0
11, 55680, Note_on_c, 10, 55, 100
11, 55788, Note_on_c, 10, 55, 0
11, 55800, Note_on_c, 10, 50, 100
11, 55908, Note_on_c, 10, 50, 0
11, 55920, Note_on_c, 10, 55, 100
11, 56028, Note_on_c, 10, 55, 0
11, 56040, Note_on_c, 10, 50, 100
11, 56148, Note_on_c, 10, 50, 0
11, 56160, Note_on_c, 10, 55, 100
11, 56268, Note_on_c, 10, 55, 0
11, 56280, Note_on_c, 10, 54, 100
11, 56334, Note_on_c, 10, 54, 0
11, 56340, Note_on_c, 10, 52, 100
11, 56394, Note_on_c, 10, 52, 0
11, 56400, Note_on_c, 10, 50, 100
11, 56508, Note_on_c, 10, 50, 0
11, 56520, Note_on_c, 10, 52, 100
11, 56574, Note_on_c, 10, 52, 0
11, 56580, Note_on_c, 10, 54, 100
11, 56634, Note_on_c, 10, 54, 0
11, 56640, Note_on_c, 10, 55, 100
11, 56748, Note_on_c, 10, 55, 0
11, 56760, Note_on_c, 10, 54, 100
11, 56814, Note_on_c, 10, 54, 0
11, 56820, Note_on_c, 10, 52, 100
11, 56874, Note_on_c, 10, 52, 0
11, 56880, Note_on_c, 10, 50, 100
11, 56934, Note_on_c, 10, 50, 0
11, 56940, Note_on_c, 10, 48, 100
11, 56994, Note_on_c, 10, 48, 0
11, 57000, Note_on_c, 10, 47, 100
11, 57054, Note_on_c, 10, 47, 0
11, 57060, Note_on_c, 10, 45, 100
11, 57114, Note_on_c, 10, 45, 0
11, 57120, Note_on_c, 10, 47, 100
11, 57228, Note_on_c, 10, 47, 0
11, 58200, Note_on_c, 10, 43, 100
11, 58308, Note_on_c, 10, 43, 0
11, 58320, Note_on_c, 10, 45, 100
11, 58428, Note_on_c, 10, 45, 0
11, 58440, Note_on_c, 10, 47, 100
11, 58548, Note_on_c, 10, 47, 0
11, 58560, Note_on_c, 10, 48, 100
11, 58668, Note_on_c, 10, 48, 0
11, 58680, Note_on_c, 10, 43, 100
11, 58788, Note_on_c, 10, 43, 0
11, 58800, Note_on_c, 10, 48, 100
11, 58908, Note_on_c, 10, 48, 0
11, 58920, Note_on_c, 10, 43, 100
11, 59028, Note_on_c, 10, 43, 0
11, 59040, Note_on_c, 10, 48, 100
11, 59148, Note_on_c, 10, 48, 0
11, 59160, Note_on_c, 10, 47, 100
11, 59214, Note_on_c, 10, 47, 0
11, 59220, Note_on_c, 10, 45, 100
11, 59274, Note_on_c, 10, 45, 0
11, 59280, Note_on_c, 10, 43, 100
11, 59388, Note_on_c, 10, 43, 0
11, 59400, Note_on_c, 10, 45, 100
11, 59454, Note_on_c, 10, 45, 0
11, 59460, Note_on_c, 10, 47, 100
11, 59514, Note_on_c, 10, 47, 0
11, 59520, Note_on_c, 10, 48, 100
11, 59628, Note_on_c, 10, 48, 0
11, 59640, Note_on_c, 10, 47, 100
11, 59694, Note_on_c, 10, 47, 0
11, 59700, Note_on_c, 10, 45, 100
11, 59754, Note_on_c, 10, 45, 0
11, 59760, Note_on_c, 10, 43, 100
11, 59814, Note_on_c, 10, 43, 0
11, 59820, Note_on_c, 10, 41, 100
11, 59874, Note_on_c, 10, 41, 0
11, 59880, Note_on_c, 10, 40, 100
11, 59934, Note_on_c, 10, 40, 0
11, 59940, Note_on_c, 10, 38, 100
11, 59994, Note_on_c, 10, 38, 0
11, 60000, Note_on_c, 10, 40, 100
11, 60108, Note_on_c, 10, 40, 0
11, 61080, Note_on_c, 10, 48, 100
11, 61188, Note_on_c, 10, 48, 0
11, 61200, Note_on_c, 10, 50, 100
11, 61308, Note_on_c, 10, 50, 0
11, 61320, Note_on_c, 10, 52, 100
11, 61428, Note_on_c, 10, 52, 0
11, 61440, Note_on_c, 10, 53, 100
11, 61548, Note_on_c, 10, 53, 0
11, 61560, Note_on_c, 10, 55, 100
11, 61668, Note_on_c, 10, 55, 0
11, 61680, Note_on_c, 10, 57, 100
11, 61788, Note_on_c, 10, 57, 0
11, 61800, Note_on_c, 10, 58, 100
11, 61908, Note_on_c, 10, 58, 0
11, 61920, Note_on_c, 10, 60, 100
11, 62028, Note_on_c, 10, 60, 0
11, 62040, Note_on_c, 10, 48, 100
11, 62148, Note_on_c, 10, 48, 0
11, 62160, Note_on_c, 10, 52, 100
11, 62268, Note_on_c, 10, 52, 0
11, 62280, Note_on_c, 10, 48, 100
11, 62388, Note_on_c, 10, 48, 0
11, 62400, Note_on_c, 10, 50, 100
11, 62508, Note_on_c, 10, 50, 0
11, 62520, Note_on_c, 10, 52, 100
11, 62628, Note_on_c, 10, 52, 0
11, 62640, Note_on_c, 10, 53, 100
11, 62748, Note_on_c, 10, 53, 0
11, 62760, Note_on_c, 10, 55, 100
11, 62868, Note_on_c, 10, 55, 0
11, 62880, Note_on_c, 10, 57, 100
11, 62988, Note_on_c, 10, 57, 0
11, 63000, Note_on_c, 10, 45, 100
11, 63108, Note_on_c, 10, 45, 0
11, 63120, Note_on_c, 10, 48, 100
11, 63228, Note_on_c, 10, 48, 0
11, 63240, Note_on_c, 10, 45, 100
11, 63348, Note_on_c, 10, 45, 0
11, 63360, Note_on_c, 10, 46, 100
11, 63468, Note_on_c, 10, 46, 0
11, 63480, Note_on_c, 10, 48, 100
11, 63588, Note_on_c, 10, 48, 0
11, 63600, Note_on_c, 10, 50, 100
11, 63708, Note_on_c, 10, 50, 0
11, 63720, Note_on_c, 10, 52, 100
11, 63828, Note_on_c, 10, 52, 0
11, 63840, Note_on_c, 10, 53, 100
11, 63948, Note_on_c, 10, 53, 0
11, 63960, Note_on_c, 10, 55, 100
11, 64068, Note_on_c, 10, 55, 0
11, 64080, Note_on_c, 10, 57, 100
11, 64188, Note_on_c, 10, 57, 0
11, 64200, Note_on_c, 10, 53, 100
11, 64308, Note_on_c, 10, 53, 0
11, 64320, Note_on_c, 10, 55, 100
11, 64428, Note_on_c, 10, 55, 0
11, 64440, Note_on_c, 10, 53, 100
11, 64548, Note_on_c, 10, 53, 0
11, 64560, Note_on_c, 10, 52, 100
11, 64668, Note_on_c, 10, 52, 0
11, 64680, Note_on_c, 10, 48, 100
11, 64788, Note_on_c, 10, 48, 0
11, 64800, Note_on_c, 10, 53, 100
11, 64908, Note_on_c, 10, 53, 0
11, 64920, Note_on_c, 10, 55, 100
11, 65028, Note_on_c, 10, 55, 0
11, 65040, Note_on_c, 10, 53, 100
11, 65148, Note_on_c, 10, 53, 0
11, 65160, Note_on_c, 10, 52, 100
11, 65268, Note_on_c, 10, 52, 0
11, 65280, Note_on_c, 10, 50, 100
11, 65388, Note_on_c, 10, 50, 0
11, 65400, Note_on_c, 10, 48, 100
11, 65508, Note_on_c, 10, 48, 0
11, 65520, Note_on_c, 10, 50, 100
11, 65628, Note_on_c, 10, 50, 0
11, 65640, Note_on_c, 10, 46, 100
11, 65748, Note_on_c, 10, 46, 0
11, 65760, Note_on_c, 10, 48, 100
11, 65868, Note_on_c, 10, 48, 0
11, 65880, Note_on_c, 10, 46, 100
11, 65988, Note_on_c, 10, 46, 0
11, 66000, Note_on_c, 10, 45, 100
11, 66108, Note_on_c, 10, 45, 0
11, 66120, Note_on_c, 10, 43, 100
11, 66228, Note_on_c, 10, 43, 0
11, 66240, Note_on_c, 10, 41, 100
11, 66348, Note_on_c, 10, 41, 0
11, 66360, Note_on_c, 10, 53, 100
11, 66468, Note_on_c, 10, 53, 0
11, 66600, Note_on_c, 10, 43, 100
11, 66708, Note_on_c, 10, 43, 0
11, 66720, Note_on_c, 10, 45, 100
11, 66828, Note_on_c, 10, 45, 0
11, 66840, Note_on_c, 10, 57, 100
11, 66948, Note_on_c, 10, 57, 0
11, 67080, Note_on_c, 10, 43, 100
11, 67188, Note_on_c, 10, 43, 0
11, 67200, Note_on_c, 10, 45, 100
11, 67308, Note_on_c, 10, 45, 0
11, 67320, Note_on_c, 10, 41, 100
11, 67428, Note_on_c, 10, 41, 0
11, 67440, Note_on_c, 10, 48, 100
11, 67548, Note_on_c, 10, 48, 0
11, 67560, Note_on_c, 10, 36, 100
11, 67668, Note_on_c, 10, 36, 0
11, 67680, Note_on_c, 10, 41, 100
11, 67788, Note_on_c, 10, 41, 0
11, 67800, Note_on_c, 10, 43, 100
11, 67908, Note_on_c, 10, 43, 0
11, 67920, Note_on_c, 10, 45, 100
11, 68028, Note_on_c, 10, 45, 0
11, 68040, Note_on_c, 10, 41, 100
11, 68148, Note_on_c, 10, 41, 0
11, 68160, Note_on_c, 10, 46, 100
11, 68268, Note_on_c, 10, 46, 0
11, 68280, Note_on_c, 10, 48, 100
11, 68388, Note_on_c, 10, 48, 0
11, 68400, Note_on_c, 10, 50, 100
11, 68508, Note_on_c, 10, 50, 0
11, 68520, Note_on_c, 10, 46, 100
11, 68628, Note_on_c, 10, 46, 0
11, 68640, Note_on_c, 10, 40, 100
11, 68748, Note_on_c, 10, 40, 0
11, 68760, Note_on_c, 10, 41, 100
11, 68868, Note_on_c, 10, 41, 0
11, 68880, Note_on_c, 10, 43, 100
11, 68988, Note_on_c, 10, 43, 0
11, 69000, Note_on_c, 10, 40, 100
11, 69108, Note_on_c, 10, 40, 0
11, 69120, Note_on_c, 10, 45, 100
11, 69228, Note_on_c, 10, 45, 0
11, 69240, Note_on_c, 10, 46, 100
11, 69348, Note_on_c, 10, 46, 0
11, 69360, Note_on_c, 10, 48, 100
11, 69468, Note_on_c, 10, 48, 0
11, 69480, Note_on_c, 10, 45, 100
11, 69588, Note_on_c, 10, 45, 0
11, 69600, Note_on_c, 10, 38, 100
11, 69708, Note_on_c, 10, 38, 0
11, 69720, Note_on_c, 10, 40, 100
11, 69828, Note_on_c, 10, 40, 0
11, 69840, Note_on_c, 10, 41, 100
11, 69948, Note_on_c, 10, 41, 0
11, 69960, Note_on_c, 10, 38, 100
11, 70068, Note_on_c, 10, 38, 0
11, 70080, Note_on_c, 10, 43, 100
11, 70188, Note_on_c, 10, 43, 0
11, 70200, Note_on_c, 10, 45, 100
11, 70308, Note_on_c, 10, 45, 0
11, 70320, Note_on_c, 10, 46, 100
11, 70428, Note_on_c, 10, 46, 0
11, 70440, Note_on_c, 10, 43, 100
11, 70548, Note_on_c, 10, 43, 0
11, 70560, Note_on_c, 10, 48, 100
11, 70668, Note_on_c, 10, 48, 0
11, 70680, Note_on_c, 10, 36, 100
11, 70788, Note_on_c, 10, 36, 0
11, 70920, Note_on_c, 10, 48, 100
11, 71028, Note_on_c, 10, 48, 0
11, 71040, Note_on_c, 10, 48, 100
11, 71148, Note_on_c, 10, 48, 0
11, 71160, Note_on_c, 10, 36, 100
11, 71268, Note_on_c, 10, 36, 0
11, 71400, Note_on_c, 10, 48, 100
11, 71508, Note_on_c, 10, 48, 0
11, 71520, Note_on_c, 10, 48, 100
11, 71628, Note_on_c, 10, 48, 0
11, 71640, Note_on_c, 10, 36, 100
11, 71748, Note_on_c, 10, 36, 0
11, 71880, Note_on_c, 10, 48, 100
11, 71988, Note_on_c, 10, 48, 0
11, 72000, Note_on_c, 10, 41, 100
11, 72108, Note_on_c, 10, 41, 0
11, 72120, Note_on_c, 10, 43, 100
11, 72228, Note_on_c, 10, 43, 0
11, 72240, Note_on_c, 10, 45, 100
11, 72348, Note_on_c, 10, 45, 0
11, 72360, Note_on_c, 10, 41, 100
11, 72468, Note_on_c, 10, 41, 0
11, 72480, Note_on_c, 10, 46, 100
11, 72588, Note_on_c, 10, 46, 0
11, 72600, Note_on_c, 10, 48, 100
11, 72708, Note_on_c, 10, 48, 0
11, 72720, Note_on_c, 10, 50, 100
11, 72828, Note_on_c, 10, 50, 0
11, 72840, Note_on_c, 10, 46, 100
11, 72948, Note_on_c, 10, 46, 0
11, 72960, Note_on_c, 10, 48, 100
11, 73068, Note_on_c, 10, 48, 0
11, 73080, Note_on_c, 10, 50, 100
11, 73188, Note_on_c, 10, 50, 0
11, 73200, Note_on_c, 10, 52, 100
11, 73308, Note_on_c, 10, 52, 0
11, 73320, Note_on_c, 10, 48, 100
11, 73428, Note_on_c, 10, 48, 0
11, 73440, Note_on_c, 10, 53, 100
11, 73548, Note_on_c, 10, 53, 0
11, 73560, Note_on_c, 10, 46, 100
11, 73668, Note_on_c, 10, 46, 0
11, 73680, Note_on_c, 10, 48, 100
11, 73788, Note_on_c, 10, 48, 0
11, 73800, Note_on_c, 10, 36, 100
11, 73908, Note_on_c, 10, 36, 0
11, 73920, Note_on_c, 10, 53, 100
11, 74028, Note_on_c, 10, 53, 0
11, 74040, Note_on_c, 10, 48, 100
11, 74148, Note_on_c, 10, 48, 0
11, 74160, Note_on_c, 10, 53, 100
11, 74268, Note_on_c, 10, 53, 0
11, 74280, Note_on_c, 10, 48, 100
11, 74388, Note_on_c, 10, 48, 0
11, 74400, Note_on_c, 10, 53, 100
11, 74616, Note_on_c, 10, 53, 0
11, 74760, Note_on_c, 10, 45, 100
11, 74868, Note_on_c, 10, 45, 0
11, 74880, Note_on_c, 10, 50, 100
11, 74988, Note_on_c, 10, 50, 0
11, 75000, Note_on_c, 10, 45, 100
11, 75108, Note_on_c, 10, 45, 0
11, 75120, Note_on_c, 10, 50, 100
11, 75228, Note_on_c, 10, 50, 0
11, 75240, Note_on_c, 10, 45, 100
11, 75348, Note_on_c, 10, 45, 0
11, 75360, Note_on_c, 10, 50, 100
11, 75576, Note_on_c, 10, 50, 0
11, 75720, Note_on_c, 10, 50, 100
11, 75828, Note_on_c, 10, 50, 0
11, 75840, Note_on_c, 10, 55, 100
11, 75948, Note_on_c, 10, 55, 0
11, 75960, Note_on_c, 10, 53, 100
11, 76068, Note_on_c, 10, 53, 0
11, 76080, Note_on_c, 10, 52, 100
11, 76188, Note_on_c, 10, 52, 0
11, 76200, Note_on_c, 10, 48, 100
11, 76308, Note_on_c, 10, 48, 0
11, 76320, Note_on_c, 10, 53, 100
11, 76428, Note_on_c, 10, 53, 0
11, 76440, Note_on_c, 10, 52, 100
11, 76548, Note_on_c, 10, 52, 0
11, 76560, Note_on_c, 10, 50, 100
11, 76668, Note_on_c, 10, 50, 0
11, 76680, Note_on_c, 10, 46, 100
11, 76788, Note_on_c, 10, 46, 0
11, 76800, Note_on_c, 10, 52, 100
11, 76908, Note_on_c, 10, 52, 0
11, 76920, Note_on_c, 10, 50, 100
11, 77028, Note_on_c, 10, 50, 0
11, 77040, Note_on_c, 10, 49, 100
11, 77148, Note_on_c, 10, 49, 0
11, 77160, Note_on_c, 10, 45, 100
11, 77268, Note_on_c, 10, 45, 0
11, 77280, Note_on_c, 10, 50, 100
11, 77388, Note_on_c, 10, 50, 0
11, 77400, Note_on_c, 10, 48, 100
11, 77508, Note_on_c, 10, 48, 0
11, 77520, Note_on_c, 10, 47, 100
11, 77628, Note_on_c, 10, 47, 0
11, 77640, Note_on_c, 10, 45, 100
11, 77748, Note_on_c, 10, 45, 0
11, 77760, Note_on_c, 10, 44, 100
11, 77868, Note_on_c, 10, 44, 0
11, 77880, Note_on_c, 10, 40, 100
11, 77988, Note_on_c, 10, 40, 0
11, 78000, Note_on_c, 10, 45, 100
11, 78108, Note_on_c, 10, 45, 0
11, 78120, Note_on_c, 10, 57, 100
11, 78228, Note_on_c, 10, 57, 0
11, 78240, Note_on_c, 10, 50, 100
11, 78348, Note_on_c, 10, 50, 0
11, 78360, Note_on_c, 10, 52, 100
11, 78468, Note_on_c, 10, 52, 0
11, 78480, Note_on_c, 10, 53, 100
11, 78588, Note_on_c, 10, 53, 0
11, 78600, Note_on_c, 10, 50, 100
11, 78708, Note_on_c, 10, 50, 0
11, 78720, Note_on_c, 10, 52, 100
11, 78828, Note_on_c, 10, 52, 0
11, 78840, Note_on_c, 10, 50, 100
11, 78894, Note_on_c, 10, 50, 0
11, 78900, Note_on_c, 10, 48, 100
11, 78954, Note_on_c, 10, 48, 0
11, 78960, Note_on_c, 10, 47, 100
11, 79068, Note_on_c, 10, 47, 0
11, 79080, Note_on_c, 10, 45, 100
11, 79188, Note_on_c, 10, 45, 0
11, 79200, Note_on_c, 10, 44, 100
11, 79308, Note_on_c, 10, 44, 0
11, 79320, Note_on_c, 10, 40, 100
11, 79428, Note_on_c, 10, 40, 0
11, 79440, Note_on_c, 10, 40, 100
11, 79548, Note_on_c, 10, 40, 0
11, 79560, Note_on_c, 10, 40, 100
11, 79668, Note_on_c, 10, 40, 0
11, 79680, Note_on_c, 10, 40, 100
11, 79788, Note_on_c, 10, 40, 0
11, 79800, Note_on_c, 10, 40, 100
11, 79908, Note_on_c, 10, 40, 0
11, 79920, Note_on_c, 10, 40, 100
11, 80028, Note_on_c, 10, 40, 0
11, 80040, Note_on_c, 10, 40, 100
11, 80148, Note_on_c, 10, 40, 0
11, 80160, Note_on_c, 10, 40, 100
11, 80268, Note_on_c, 10, 40, 0
11, 80280, Note_on_c, 10, 40, 100
11, 80388, Note_on_c, 10, 40, 0
11, 80400, Note_on_c, 10, 40, 100
11, 80508, Note_on_c, 10, 40, 0
11, 80520, Note_on_c, 10, 40, 100
11, 80628, Note_on_c, 10, 40, 0
11, 80640, Note_on_c, 10, 45, 100
11, 80748, Note_on_c, 10, 45, 0
11, 80760, Note_on_c, 10, 47, 100
11, 80868, Note_on_c, 10, 47, 0
11, 80880, Note_on_c, 10, 48, 100
11, 80988, Note_on_c, 10, 48, 0
11, 81000, Note_on_c, 10, 45, 100
11, 81108, Note_on_c, 10, 45, 0
11, 81120, Note_on_c, 10, 50, 100
11, 81228, Note_on_c, 10, 50, 0
11, 81240, Note_on_c, 10, 52, 100
11, 81348, Note_on_c, 10, 52, 0
11, 81360, Note_on_c, 10, 54, 100
11, 81468, Note_on_c, 10, 54, 0
11, 81480, Note_on_c, 10, 50, 100
11, 81588, Note_on_c, 10, 50, 0
11, 81600, Note_on_c, 10, 43, 100
11, 81708, Note_on_c, 10, 43, 0
11, 81720, Note_on_c, 10, 45, 100
11, 81828, Note_on_c, 10, 45, 0
11, 81840, Note_on_c, 10, 47, 100
11, 81948, Note_on_c, 10, 47, 0
11, 81960, Note_on_c, 10, 43, 100
11, 82068, Note_on_c, 10, 43, 0
11, 82080, Note_on_c, 10, 48, 100
11, 82188, Note_on_c, 10, 48, 0
11, 82200, Note_on_c, 10, 50, 100
11, 82308, Note_on_c, 10, 50, 0
11, 82320, Note_on_c, 10, 52, 100
11, 82428, Note_on_c, 10, 52, 0
11, 82440, Note_on_c, 10, 48, 100
11, 82548, Note_on_c, 10, 48, 0
11, 82560, Note_on_c, 10, 42, 100
11, 82668, Note_on_c, 10, 42, 0
11, 82680, Note_on_c, 10, 43, 100
11, 82788, Note_on_c, 10, 43, 0
11, 82800, Note_on_c, 10, 45, 100
11, 82908, Note_on_c, 10, 45, 0
11, 82920, Note_on_c, 10, 42, 100
11, 83028, Note_on_c, 10, 42, 0
11, 83040, Note_on_c, 10, 47, 100
11, 83148, Note_on_c, 10, 47, 0
11, 83160, Note_on_c, 10, 59, 100
11, 83268, Note_on_c, 10, 59, 0
11, 83400, Note_on_c, 10, 59, 100
11, 83508, Note_on_c, 10, 59, 0
11, 83520, Note_on_c, 10, 59, 100
11, 83628, Note_on_c, 10, 59, 0
11, 83640, Note_on_c, 10, 47, 100
11, 83748, Note_on_c, 10, 47, 0
11, 83880, Note_on_c, 10, 59, 100
11, 83988, Note_on_c, 10, 59, 0
11, 84000, Note_on_c, 10, 59, 100
11, 84108, Note_on_c, 10, 59, 0
11, 84120, Note_on_c, 10, 47, 100
11, 84228, Note_on_c, 10, 47, 0
11, 84360, Note_on_c, 10, 59, 100
11, 84414, Note_on_c, 10, 59, 0
11, 84420, Note_on_c, 10, 57, 100
11, 84474, Note_on_c, 10, 57, 0
11, 84480, Note_on_c, 10, 56, 100
11, 84534, Note_on_c, 10, 56, 0
11, 84540, Note_on_c, 10, 57, 100
11, 84594, Note_on_c, 10, 57, 0
11, 84600, Note_on_c, 10, 59, 100
11, 84654, Note_on_c, 10, 59, 0
11, 84660, Note_on_c, 10, 56, 100
11, 84714, Note_on_c, 10, 56, 0
11, 84720, Note_on_c, 10, 52, 100
11, 84774, Note_on_c, 10, 52, 0
11, 84780, Note_on_c, 10, 54, 100
11, 84834, Note_on_c, 10, 54, 0
11, 84840, Note_on_c, 10, 56, 100
11, 84894, Note_on_c, 10, 56, 0
11, 84900, Note_on_c, 10, 52, 100
11, 84954, Note_on_c, 10, 52, 0
11, 84960, Note_on_c, 10, 48, 100
11, 85014, Note_on_c, 10, 48, 0
11, 85020, Note_on_c, 10, 50, 100
11, 85074, Note_on_c, 10, 50, 0
11, 85080, Note_on_c, 10, 52, 100
11, 85134, Note_on_c, 10, 52, 0
11, 85140, Note_on_c, 10, 48, 100
11, 85194, Note_on_c, 10, 48, 0
11, 85200, Note_on_c, 10, 45, 100
11, 85254, Note_on_c, 10, 45, 0
11, 85260, Note_on_c, 10, 47, 100
11, 85314, Note_on_c, 10, 47, 0
11, 85320, Note_on_c, 10, 48, 100
11, 85374, Note_on_c, 10, 48, 0
11, 85380, Note_on_c, 10, 45, 100
11, 85434, Note_on_c, 10, 45, 0
11, 85440, Note_on_c, 10, 39, 100
11, 85656, Note_on_c, 10, 39, 0
11, 85800, Note_on_c, 10, 57, 100
11, 85908, Note_on_c, 10, 57, 0
11, 85920, Note_on_c, 10, 55, 100
11, 86028, Note_on_c, 10, 55, 0
11, 86040, Note_on_c, 10, 57, 100
11, 86148, Note_on_c, 10, 57, 0
11, 86160, Note_on_c, 10, 59, 100
11, 86268, Note_on_c, 10, 59, 0
11, 86280, Note_on_c, 10, 47, 100
11, 86388, Note_on_c, 10, 47, 0
11, 86400, Note_on_c, 10, 52, 100
11, 86400, Note_on_c, 10, 52, 100
11, 86454, Note_on_c, 10, 52, 0
11, 86454, Note_on_c, 10, 52, 0
11, 86460, Note_on_c, 10, 59, 100
11, 86514, Note_on_c, 10, 59, 0
11, 86520, Note_on_c, 10, 55, 100
11, 86574, Note_on_c, 10, 55, 0
11, 86580, Note_on_c, 10, 59, 100
11, 86634, Note_on_c, 10, 59, 0
11, 86640, Note_on_c, 10, 52, 100
11, 86694, Note_on_c, 10, 52, 0
11, 86700, Note_on_c, 10, 59, 100
11, 86754, Note_on_c, 10, 59, 0
11, 86760, Note_on_c, 10, 55, 100
11, 86814, Note_on_c, 10, 55, 0
11, 86820, Note_on_c, 10, 59, 100
11, 86874, Note_on_c, 10, 59, 0
11, 86880, Note_on_c, 10, 52, 100
11, 86934, Note_on_c, 10, 52, 0
11, 86940, Note_on_c, 10, 59, 100
11, 86994, Note_on_c, 10, 59, 0
11, 87000, Note_on_c, 10, 55, 100
11, 87054, Note_on_c, 10, 55, 0
11, 87060, Note_on_c, 10, 59, 100
11, 87114, Note_on_c, 10, 59, 0
11, 87120, Note_on_c, 10, 52, 100
11, 87174, Note_on_c, 10, 52, 0
11, 87180, Note_on_c, 10, 59, 100
11, 87234, Note_on_c, 10, 59, 0
11, 87240, Note_on_c, 10, 55, 100
11, 87294, Note_on_c, 10, 55, 0
11, 87300, Note_on_c, 10, 59, 100
11, 87354, Note_on_c, 10, 59, 0
11, 87360, Note_on_c, 10, 49, 100
11, 87360, Note_on_c, 10, 49, 100
11, 87414, Note_on_c, 10, 49, 0
11, 87414, Note_on_c, 10, 49, 0
11, 87420, Note_on_c, 10, 52, 100
11, 87474, Note_on_c, 10, 52, 0
11, 87480, Note_on_c, 10, 57, 100
11, 87534, Note_on_c, 10, 57, 0
11, 87540, Note_on_c, 10, 52, 100
11, 87594, Note_on_c, 10, 52, 0
11, 87600, Note_on_c, 10, 49, 100
11, 87654, Note_on_c, 10, 49, 0
11, 87660, Note_on_c, 10, 52, 100
11, 87714, Note_on_c, 10, 52, 0
11, 87720, Note_on_c, 10, 57, 100
11, 87774, Note_on_c, 10, 57, 0
11, 87780, Note_on_c, 10, 52, 100
11, 87834, Note_on_c, 10, 52, 0
11, 87840, Note_on_c, 10, 49, 100
11, 87894, Note_on_c, 10, 49, 0
11, 87900, Note_on_c, 10, 52, 100
11, 87954, Note_on_c, 10, 52, 0
11, 87960, Note_on_c, 10, 57, 100
11, 88014, Note_on_c, 10, 57, 0
11, 88020, Note_on_c, 10, 52, 100
11, 88074, Note_on_c, 10, 52, 0
11, 88080, Note_on_c, 10, 49, 100
11, 88134, Note_on_c, 10, 49, 0
11, 88140, Note_on_c, 10, 57, 100
11, 88194, Note_on_c, 10, 57, 0
11, 88200, Note_on_c, 10, 55, 100
11, 88254, Note_on_c, 10, 55, 0
11, 88260, Note_on_c, 10, 57, 100
11, 88314, Note_on_c, 10, 57, 0
11, 88320, Note_on_c, 10, 50, 100
11, 88320, Note_on_c, 10, 50, 100
11, 88374, Note_on_c, 10, 50, 0
11, 88374, Note_on_c, 10, 50, 0
11, 88380, Note_on_c, 10, 57, 100
11, 88434, Note_on_c, 10, 57, 0
11, 88440, Note_on_c, 10, 54, 100
11, 88494, Note_on_c, 10, 54, 0
11, 88500, Note_on_c, 10, 57, 100
11, 88554, Note_on_c, 10, 57, 0
11, 88560, Note_on_c, 10, 50, 100
11, 88614, Note_on_c, 10, 50, 0
11, 88620, Note_on_c, 10, 57, 100
11, 88674, Note_on_c, 10, 57, 0
11, 88680, Note_on_c, 10, 54, 100
11, 88734, Note_on_c, 10, 54, 0
11, 88740, Note_on_c, 10, 57, 100
11, 88794, Note_on_c, 10, 57, 0
11, 88800, Note_on_c, 10, 50, 100
11, 88854, Note_on_c, 10, 50, 0
11, 88860, Note_on_c, 10, 57, 100
11, 88914, Note_on_c, 10, 57, 0
11, 88920, Note_on_c, 10, 54, 100
11, 88974, Note_on_c, 10, 54, 0
11, 88980, Note_on_c, 10, 57, 100
11, 89034, Note_on_c, 10, 57, 0
11, 89040, Note_on_c, 10, 50, 100
11, 89094, Note_on_c, 10, 50, 0
11, 89100, Note_on_c, 10, 57, 100
11, 89154, Note_on_c, 10, 57, 0
11, 89160, Note_on_c, 10, 54, 100
11, 89214, Note_on_c, 10, 54, 0
11, 89220, Note_on_c, 10, 57, 100
11, 89274, Note_on_c, 10, 57, 0
11, 89280, Note_on_c, 10, 47, 100
11, 89280, Note_on_c, 10, 47, 100
11, 89334, Note_on_c, 10, 47, 0
11, 89334, Note_on_c, 10, 47, 0
11, 89340, Note_on_c, 10, 50, 100
11, 89394, Note_on_c, 10, 50, 0
11, 89400, Note_on_c, 10, 55, 100
11, 89454, Note_on_c, 10, 55, 0
11, 89460, Note_on_c, 10, 50, 100
11, 89514, Note_on_c, 10, 50, 0
11, 89520, Note_on_c, 10, 47, 100
11, 89574, Note_on_c, 10, 47, 0
11, 89580, Note_on_c, 10, 50, 100
11, 89634, Note_on_c, 10, 50, 0
11, 89640, Note_on_c, 10, 55, 100
11, 89694, Note_on_c, 10, 55, 0
11, 89700, Note_on_c, 10, 50, 100
11, 89754, Note_on_c, 10, 50, 0
11, 89760, Note_on_c, 10, 47, 100
11, 89814, Note_on_c, 10, 47, 0
11, 89820, Note_on_c, 10, 50, 100
11, 89874, Note_on_c, 10, 50, 0
11, 89880, Note_on_c, 10, 55, 100
11, 89934, Note_on_c, 10, 55, 0
11, 89940, Note_on_c, 10, 50, 100
11, 89994, Note_on_c, 10, 50, 0
11, 90000, Note_on_c, 10, 47, 100
11, 90054, Note_on_c, 10, 47, 0
11, 90060, Note_on_c, 10, 55, 100
11, 90114, Note_on_c, 10, 55, 0
11, 90120, Note_on_c, 10, 53, 100
11, 90174, Note_on_c, 10, 53, 0
11, 90180, Note_on_c, 10, 55, 100
11, 90234, Note_on_c, 10, 55, 0
11, 90240, Note_on_c, 10, 48, 100
11, 90240, Note_on_c, 10, 48, 100
11, 90294, Note_on_c, 10, 48, 0
11, 90294, Note_on_c, 10, 48, 0
11, 90300, Note_on_c, 10, 55, 100
11, 90354, Note_on_c, 10, 55, 0
11, 90360, Note_on_c, 10, 52, 100
11, 90414, Note_on_c, 10, 52, 0
11, 90420, Note_on_c, 10, 55, 100
11, 90474, Note_on_c, 10, 55, 0
11, 90480, Note_on_c, 10, 48, 100
11, 90534, Note_on_c, 10, 48, 0
11, 90540, Note_on_c, 10, 55, 100
11, 90594, Note_on_c, 10, 55, 0
11, 90600, Note_on_c, 10, 52, 100
11, 90654, Note_on_c, 10, 52, 0
11, 90660, Note_on_c, 10, 55, 100
11, 90714, Note_on_c, 10, 55, 0
11, 90720, Note_on_c, 10, 48, 100
11, 90774, Note_on_c, 10, 48, 0
11, 90780, Note_on_c, 10, 55, 100
11, 90834, Note_on_c, 10, 55, 0
11, 90840, Note_on_c, 10, 52, 100
11, 90894, Note_on_c, 10, 52, 0
11, 90900, Note_on_c, 10, 55, 100
11, 90954, Note_on_c, 10, 55, 0
11, 90960, Note_on_c, 10, 48, 100
11, 91014, Note_on_c, 10, 48, 0
11, 91020, Note_on_c, 10, 55, 100
11, 91074, Note_on_c, 10, 55, 0
11, 91080, Note_on_c, 10, 52, 100
11, 91134, Note_on_c, 10, 52, 0
11, 91140, Note_on_c, 10, 55, 100
11, 91194, Note_on_c, 10, 55, 0
11, 91200, Note_on_c, 10, 41, 100
11, 91200, Note_on_c, 10, 41, 100
11, 91254, Note_on_c, 10, 41, 0
11, 91254, Note_on_c, 10, 41, 0
11, 91260, Note_on_c, 10, 48, 100
11, 91314, Note_on_c, 10, 48, 0
11, 91320, Note_on_c, 10, 53, 100
11, 91374, Note_on_c, 10, 53, 0
11, 91380, Note_on_c, 10, 48, 100
11, 91434, Note_on_c, 10, 48, 0
11, 91440, Note_on_c, 10, 41, 100
11, 91494, Note_on_c, 10, 41, 0
11, 91500, Note_on_c, 10, 48, 100
11, 91554, Note_on_c, 10, 48, 0
11, 91560, Note_on_c, 10, 53, 100
11, 91614, Note_on_c, 10, 53, 0
11, 91620, Note_on_c, 10, 48, 100
11, 91674, Note_on_c, 10, 48, 0
11, 91680, Note_on_c, 10, 44, 100
11, 91734, Note_on_c, 10, 44, 0
11, 91740, Note_on_c, 10, 48, 100
11, 91794, Note_on_c, 10, 48, 0
11, 91800, Note_on_c, 10, 53, 100
11, 91854, Note_on_c, 10, 53, 0
11, 91860, Note_on_c, 10, 48, 100
11, 91914, Note_on_c, 10, 48, 0
11, 91920, Note_on_c, 10, 45, 100
11, 91920, Note_on_c, 10, 45, 100
11, 91974, Note_on_c, 10, 45, 0
11, 91974, Note_on_c, 10, 45, 0
11, 91980, Note_on_c, 10, 48, 100
11, 92034, Note_on_c, 10, 48, 0
11, 92040, Note_on_c, 10, 54, 100
11, 92094, Note_on_c, 10, 54, 0
11, 92100, Note_on_c, 10, 48, 100
11, 92154, Note_on_c, 10, 48, 0
11, 92160, Note_on_c, 10, 47, 100
11, 92160, Note_on_c, 10, 47, 100
11, 92214, Note_on_c, 10, 47, 0
11, 92214, Note_on_c, 10, 47, 0
11, 92220, Note_on_c, 10, 50, 100
11, 92274, Note_on_c, 10, 50, 0
11, 92280, Note_on_c, 10, 55, 100
11, 92334, Note_on_c, 10, 55, 0
11, 92340, Note_on_c, 10, 50, 100
11, 92394, Note_on_c, 10, 50, 0
11, 92400, Note_on_c, 10, 47, 100
11, 92454, Note_on_c, 10, 47, 0
11, 92460, Note_on_c, 10, 50, 100
11, 92514, Note_on_c, 10, 50, 0
11, 92520, Note_on_c, 10, 55, 100
11, 92574, Note_on_c, 10, 55, 0
11, 92580, Note_on_c, 10, 50, 100
11, 92634, Note_on_c, 10, 50, 0
11, 92640, Note_on_c, 10, 47, 100
11, 92694, Note_on_c, 10, 47, 0
11, 92700, Note_on_c, 10, 50, 100
11, 92754, Note_on_c, 10, 50, 0
11, 92760, Note_on_c, 10, 55, 100
11, 92814, Note_on_c, 10, 55, 0
11, 92820, Note_on_c, 10, 50, 100
11, 92874, Note_on_c, 10, 50, 0
11, 92880, Note_on_c, 10, 43, 100
11, 92880, Note_on_c, 10, 43, 100
11, 92934, Note_on_c, 10, 43, 0
11, 92934, Note_on_c, 10, 43, 0
11, 92940, Note_on_c, 10, 50, 100
11, 92994, Note_on_c, 10, 50, 0
11, 93000, Note_on_c, 10, 55, 100
11, 93054, Note_on_c, 10, 55, 0
11, 93060, Note_on_c, 10, 50, 100
11, 93114, Note_on_c, 10, 50, 0
11, 93120, Note_on_c, 10, 48, 100
11, 93228, Note_on_c, 10, 48, 0
11, 93240, Note_on_c, 10, 43, 100
11, 93348, Note_on_c, 10, 43, 0
11, 93360, Note_on_c, 10, 48, 100
11, 93468, Note_on_c, 10, 48, 0
11, 93480, Note_on_c, 10, 43, 100
11, 93588, Note_on_c, 10, 43, 0
11, 93600, Note_on_c, 10, 48, 100
11, 93708, Note_on_c, 10, 48, 0
11, 93720, Note_on_c, 10, 47, 100
11, 93774, Note_on_c, 10, 47, 0
11, 93780, Note_on_c, 10, 45, 100
11, 93834, Note_on_c, 10, 45, 0
11, 93840, Note_on_c, 10, 43, 100
11, 93948, Note_on_c, 10, 43, 0
11, 93960, Note_on_c, 10, 45, 100
11, 94014, Note_on_c, 10, 45, 0
11, 94020, Note_on_c, 10, 47, 100
11, 94074, Note_on_c, 10, 47, 0
11, 94080, Note_on_c, 10, 48, 100
11, 94188, Note_on_c, 10, 48, 0
11, 94200, Note_on_c, 10, 47, 100
11, 94254, Note_on_c, 10, 47, 0
11, 94260, Note_on_c, 10, 45, 100
11, 94314, Note_on_c, 10, 45, 0
11, 94320, Note_on_c, 10, 43, 100
11, 94428, Note_on_c, 10, 43, 0
11, 94440, Note_on_c, 10, 41, 100
11, 94548, Note_on_c, 10, 41, 0
11, 94560, Note_on_c, 10, 40, 100
11, 94668, Note_on_c, 10, 40, 0
11, 94680, Note_on_c, 10, 40, 100
11, 94788, Note_on_c, 10, 40, 0
11, 94800, Note_on_c, 10, 40, 100
11, 94908, Note_on_c, 10, 40, 0
11, 94920, Note_on_c, 10, 40, 100
11, 95028, Note_on_c, 10, 40, 0
11, 95040, Note_on_c, 10, 41, 100
11, 95148, Note_on_c, 10, 41, 0
11, 95160, Note_on_c, 10, 41, 100
11, 95268, Note_on_c, 10, 41, 0
11, 95280, Note_on_c, 10, 41, 100
11, 95388, Note_on_c, 10, 41, 0
11, 95400, Note_on_c, 10, 41, 100
11, 95508, Note_on_c, 10, 41, 0
11, 95520, Note_on_c, 10, 42, 100
11, 95628, Note_on_c, 10, 42, 0
11, 95640, Note_on_c, 10, 42, 100
11, 95748, Note_on_c, 10, 42, 0
11, 95760, Note_on_c, 10, 42, 100
11, 95868, Note_on_c, 10, 42, 0
11, 95880, Note_on_c, 10, 42, 100
11, 95988, Note_on_c, 10, 42, 0
11, 96000, Note_on_c, 10, 43, 100
11, 96108, Note_on_c, 10, 43, 0
11, 96120, Note_on_c, 10, 43, 100
11, 96228, Note_on_c, 10, 43, 0
11, 96240, Note_on_c, 10, 43, 100
11, 96348, Note_on_c, 10, 43, 0
11, 96360, Note_on_c, 10, 43, 100
11, 96468, Note_on_c, 10, 43, 0
11, 96480, Note_on_c, 10, 44, 100
11, 96588, Note_on_c, 10, 44, 0
11, 96600, Note_on_c, 10, 44, 100
11, 96708, Note_on_c, 10, 44, 0
11, 96720, Note_on_c, 10, 44, 100
11, 96828, Note_on_c, 10, 44, 0
11, 96840, Note_on_c, 10, 44, 100
11, 96948, Note_on_c, 10, 44, 0
11, 96960, Note_on_c, 10, 45, 100
11, 97068, Note_on_c, 10, 45, 0
11, 97080, Note_on_c, 10, 45, 100
11, 97188, Note_on_c, 10, 45, 0
11, 97200, Note_on_c, 10, 45, 100
11, 97308, Note_on_c, 10, 45, 0
11, 97320, Note_on_c, 10, 45, 100
11, 97428, Note_on_c, 10, 45, 0
11, 97440, Note_on_c, 10, 50, 100
11, 97548, Note_on_c, 10, 50, 0
11, 97560, Note_on_c, 10, 38, 100
11, 97668, Note_on_c, 10, 38, 0
11, 97800, Note_on_c, 10, 50, 100
11, 97908, Note_on_c, 10, 50, 0
11, 97920, Note_on_c, 10, 55, 100
11, 98028, Note_on_c, 10, 55, 0
11, 98040, Note_on_c, 10, 43, 100
11, 98148, Note_on_c, 10, 43, 0
11, 98280, Note_on_c, 10, 43, 100
11, 98388, Note_on_c, 10, 43, 0
11, 98400, Note_on_c, 10, 48, 100
11, 98508, Note_on_c, 10, 48, 0
11, 98520, Note_on_c, 10, 36, 100
11, 98628, Note_on_c, 10, 36, 0
11, 98760, Note_on_c, 10, 48, 100
11, 98868, Note_on_c, 10, 48, 0
11, 98880, Note_on_c, 10, 53, 100
11, 98988, Note_on_c, 10, 53, 0
11, 99000, Note_on_c, 10, 41, 100
11, 99108, Note_on_c, 10, 41, 0
11, 99240, Note_on_c, 10, 53, 100
11, 99348, Note_on_c, 10, 53, 0
11, 99360, Note_on_c, 10, 59, 100
11, 99468, Note_on_c, 10, 59, 0
11, 99480, Note_on_c, 10, 47, 100
11, 99588, Note_on_c, 10, 47, 0
11, 99720, Note_on_c, 10, 47, 100
11, 99828, Note_on_c, 10, 47, 0
11, 99840, Note_on_c, 10, 52, 100
11, 99894, Note_on_c, 10, 52, 0
11, 99900, Note_on_c, 10, 40, 100
11, 99954, Note_on_c, 10, 40, 0
11, 99960, Note_on_c, 10, 44, 100
11, 100014, Note_on_c, 10, 44, 0
11, 100020, Note_on_c, 10, 47, 100
11, 100074, Note_on_c, 10, 47, 0
11, 100080, Note_on_c, 10, 52, 100
11, 100134, Note_on_c, 10, 52, 0
11, 100140, Note_on_c, 10, 50, 100
11, 100194, Note_on_c, 10, 50, 0
11, 100200, Note_on_c, 10, 48, 100
11, 100254, Note_on_c, 10, 48, 0
11, 100260, Note_on_c, 10, 47, 100
11, 100314, Note_on_c, 10, 47, 0
11, 100320, Note_on_c, 10, 49, 100
11, 100374, Note_on_c, 10, 49, 0
11, 100380, Note_on_c, 10, 45, 100
11, 100434, Note_on_c, 10, 45, 0
11, 100440, Note_on_c, 10, 49, 100
11, 100494, Note_on_c, 10, 49, 0
11, 100500, Note_on_c, 10, 52, 100
11, 100554, Note_on_c, 10, 52, 0
11, 100560, Note_on_c, 10, 57, 100
11, 100614, Note_on_c, 10, 57, 0
11, 100620, Note_on_c, 10, 55, 100
11, 100674, Note_on_c, 10, 55, 0
11, 100680, Note_on_c, 10, 53, 100
11, 100734, Note_on_c, 10, 53, 0
11, 100740, Note_on_c, 10, 52, 100
11, 100794, Note_on_c, 10, 52, 0
11, 100800, Note_on_c, 10, 50, 100
11, 100854, Note_on_c, 10, 50, 0
11, 100860, Note_on_c, 10, 38, 100
11, 100914, Note_on_c, 10, 38, 0
11, 100920, Note_on_c, 10, 42, 100
11, 100974, Note_on_c, 10, 42, 0
11, 100980, Note_on_c, 10, 45, 100
11, 101034, Note_on_c, 10, 45, 0
11, 101040, Note_on_c, 10, 50, 100
11, 101094, Note_on_c, 10, 50, 0
11, 101100, Note_on_c, 10, 48, 100
11, 101154, Note_on_c, 10, 48, 0
11, 101160, Note_on_c, 10, 47, 100
11, 101214, Note_on_c, 10, 47, 0
11, 101220, Note_on_c, 10, 45, 100
11, 101274, Note_on_c, 10, 45, 0
11, 101280, Note_on_c, 10, 47, 100
11, 101334, Note_on_c, 10, 47, 0
11, 101340, Note_on_c, 10, 43, 100
11, 101394, Note_on_c, 10, 43, 0
11, 101400, Note_on_c, 10, 47, 100
11, 101454, Note_on_c, 10, 47, 0
11, 101460, Note_on_c, 10, 50, 100
11, 101514, Note_on_c, 10, 50, 0
11, 101520, Note_on_c, 10, 55, 100
11, 101574, Note_on_c, 10, 55, 0
11, 101580, Note_on_c, 10, 53, 100
11, 101634, Note_on_c, 10, 53, 0
11, 101640, Note_on_c, 10, 52, 100
11, 101694, Note_on_c, 10, 52, 0
11, 101700, Note_on_c, 10, 50, 100
11, 101754, Note_on_c, 10, 50, 0
11, 101760, Note_on_c, 10, 48, 100
11, 101814, Note_on_c, 10, 48, 0
11, 101820, Note_on_c, 10, 36, 100
11, 101874, Note_on_c, 10, 36, 0
11, 101880, Note_on_c, 10, 40, 100
11, 101934, Note_on_c, 10, 40, 0
11, 101940, Note_on_c, 10, 43, 100
11, 101994, Note_on_c, 10, 43, 0
11, 102000, Note_on_c, 10, 48, 100
11, 102054, Note_on_c, 10, 48, 0
11, 102060, Note_on_c, 10, 46, 100
11, 102114, Note_on_c, 10, 46, 0
11, 102120, Note_on_c, 10, 45, 100
11, 102174, Note_on_c, 10, 45, 0
11, 102180, Note_on_c, 10, 43, 100
11, 102234, Note_on_c, 10, 43, 0
11, 102240, Note_on_c, 10, 42, 100
11, 102456, Note_on_c, 10, 42, 0
11, 103320, Note_on_c, 10, 38, 100
11, 103428, Note_on_c, 10, 38, 0
11, 103440, Note_on_c, 10, 38, 100
11, 103548, Note_on_c, 10, 38, 0
11, 103560, Note_on_c, 10, 38, 100
11, 103668, Note_on_c, 10, 38, 0
11, 103680, Note_on_c, 10, 43, 100
11, 103788, Note_on_c, 10, 43, 0
11, 104760, Note_on_c, 10, 43, 100
11, 104868, Note_on_c, 10, 43, 0
11, 104880, Note_on_c, 10, 43, 100
11, 104988, Note_on_c, 10, 43, 0
11, 105000, Note_on_c, 10, 43, 100
11, 105108, Note_on_c, 10, 43, 0
11, 105120, Note_on_c, 10, 36, 100
11, 105228, Note_on_c, 10, 36, 0
11, 106200, Note_on_c, 10, 36, 100
11, 106308, Note_on_c, 10, 36, 0
11, 106320, Note_on_c, 10, 36, 100
11, 106428, Note_on_c, 10, 36, 0
11, 106440, Note_on_c, 10, 36, 100
11, 106548, Note_on_c, 10, 36, 0
11, 106560, Note_on_c, 10, 41, 100
11, 106668, Note_on_c, 10, 41, 0
11, 106680, Note_on_c, 10, 40, 100
11, 106788, Note_on_c, 10, 40, 0
11, 106800, Note_on_c, 10, 41, 100
11, 106908, Note_on_c, 10, 41, 0
11, 106920, Note_on_c, 10, 38, 100
11, 107028, Note_on_c, 10, 38, 0
11, 107040, Note_on_c, 10, 43, 100
11, 107148, Note_on_c, 10, 43, 0
11, 107160, Note_on_c, 10, 41, 100
11, 107268, Note_on_c, 10, 41, 0
11, 107280, Note_on_c, 10, 43, 100
11, 107388, Note_on_c, 10, 43, 0
11, 107400, Note_on_c, 10, 40, 100
11, 107508, Note_on_c, 10, 40, 0
11, 107520, Note_on_c, 10, 45, 100
11, 107628, Note_on_c, 10, 45, 0
11, 107640, Note_on_c, 10, 43, 100
11, 107748, Note_on_c, 10, 43, 0
11, 107760, Note_on_c, 10, 45, 100
11, 107868, Note_on_c, 10, 45, 0
11, 107880, Note_on_c, 10, 41, 100
11, 107988, Note_on_c, 10, 41, 0
11, 108000, Note_on_c, 10, 47, 100
11, 108108, Note_on_c, 10, 47, 0
11, 108120, Note_on_c, 10, 45, 100
11, 108228, Note_on_c, 10, 45, 0
11, 108240, Note_on_c, 10, 47, 100
11, 108348, Note_on_c, 10, 47, 0
11, 108360, Note_on_c, 10, 43, 100
11, 108468, Note_on_c, 10, 43, 0
11, 108480, Note_on_c, 10, 48, 100
11, 108534, Note_on_c, 10, 48, 0
11, 108540, Note_on_c, 10, 48, 100
11, 108594, Note_on_c, 10, 48, 0
11, 108600, Note_on_c, 10, 52, 100
11, 108654, Note_on_c, 10, 52, 0
11, 108660, Note_on_c, 10, 55, 100
11, 108714, Note_on_c, 10, 55, 0
11, 108720, Note_on_c, 10, 60, 100
11, 108774, Note_on_c, 10, 60, 0
11, 108780, Note_on_c, 10, 58, 100
11, 108834, Note_on_c, 10, 58, 0
11, 108840, Note_on_c, 10, 57, 100
11, 108894, Note_on_c, 10, 57, 0
11, 108900, Note_on_c, 10, 55, 100
11, 108954, Note_on_c, 10, 55, 0
11, 108960, Note_on_c, 10, 57, 100
11, 109014, Note_on_c, 10, 57, 0
11, 109020, Note_on_c, 10, 55, 100
11, 109074, Note_on_c, 10, 55, 0
11, 109080, Note_on_c, 10, 53, 100
11, 109134, Note_on_c, 10, 53, 0
11, 109140, Note_on_c, 10, 52, 100
11, 109194, Note_on_c, 10, 52, 0
11, 109200, Note_on_c, 10, 53, 100
11, 109254, Note_on_c, 10, 53, 0
11, 109260, Note_on_c, 10, 52, 100
11, 109314, Note_on_c, 10, 52, 0
11, 109320, Note_on_c, 10, 50, 100
11, 109374, Note_on_c, 10, 50, 0
11, 109380, Note_on_c, 10, 48, 100
11, 109434, Note_on_c, 10, 48, 0
11, 109440, Note_on_c, 10, 55, 100
11, 109548, Note_on_c, 10, 55, 0
11, 109560, Note_on_c, 10, 43, 100
11, 109668, Note_on_c, 10, 43, 0
11, 109800, Note_on_c, 10, 55, 100
11, 109908, Note_on_c, 10, 55, 0
11, 109920, Note_on_c, 10, 55, 100
11, 110028, Note_on_c, 10, 55, 0
11, 110040, Note_on_c, 10, 43, 100
11, 110148, Note_on_c, 10, 43, 0
11, 110280, Note_on_c, 10, 55, 100
11, 110388, Note_on_c, 10, 55, 0
11, 110400, Note_on_c, 10, 55, 100
11, 110508, Note_on_c, 10, 55, 0
11, 110520, Note_on_c, 10, 43, 100
11, 110628, Note_on_c, 10, 43, 0
11, 110760, Note_on_c, 10, 55, 100
11, 110868, Note_on_c, 10, 55, 0
11, 110880, Note_on_c, 10, 55, 100
11, 110988, Note_on_c, 10, 55, 0
11, 111000, Note_on_c, 10, 43, 100
11, 111108, Note_on_c, 10, 43, 0
11, 111240, Note_on_c, 10, 55, 100
11, 111348, Note_on_c, 10, 55, 0
11, 111360, Note_on_c, 10, 55, 100
11, 111468, Note_on_c, 10, 55, 0
11, 111480, Note_on_c, 10, 43, 100
11, 111588, Note_on_c, 10, 43, 0
11, 111720, Note_on_c, 10, 55, 100
11, 111828, Note_on_c, 10, 55, 0
11, 111840, Note_on_c, 10, 55, 100
11, 111948, Note_on_c, 10, 55, 0
11, 111960, Note_on_c, 10, 43, 100
11, 112068, Note_on_c, 10, 43, 0
11, 112200, Note_on_c, 10, 55, 100
11, 112308, Note_on_c, 10, 55, 0
11, 112320, Note_on_c, 10, 55, 100
11, 112428, Note_on_c, 10, 55, 0
11, 112440, Note_on_c, 10, 43, 100
11, 112548, Note_on_c, 10, 43, 0
11, 112680, Note_on_c, 10, 55, 100
11, 112788, Note_on_c, 10, 55, 0
11, 112800, Note_on_c, 10, 55, 100
11, 112908, Note_on_c, 10, 55, 0
11, 112920, Note_on_c, 10, 43, 100
11, 113028, Note_on_c, 10, 43, 0
11, 113160, Note_on_c, 10, 55, 100
11, 113268, Note_on_c, 10, 55, 0
11, 113280, Note_on_c, 10, 55, 100
11, 113388, Note_on_c, 10, 55, 0
11, 113400, Note_on_c, 10, 43, 100
11, 113508, Note_on_c, 10, 43, 0
11, 113640, Note_on_c, 10, 55, 100
11, 113748, Note_on_c, 10, 55, 0
11, 113760, Note_on_c, 10, 55, 100
11, 113868, Note_on_c, 10, 55, 0
11, 113880, Note_on_c, 10, 43, 100
11, 113988, Note_on_c, 10, 43, 0
11, 114120, Note_on_c, 10, 55, 100
11, 114228, Note_on_c, 10, 55, 0
11, 114240, Note_on_c, 10, 55, 100
11, 114348, Note_on_c, 10, 55, 0
11, 114480, Note_on_c, 10, 52, 100
11, 114588, Note_on_c, 10, 52, 0
11, 114720, Note_on_c, 10, 49, 100
11, 114828, Note_on_c, 10, 49, 0
11, 114960, Note_on_c, 10, 45, 100
11, 115068, Note_on_c, 10, 45, 0
11, 115200, Note_on_c, 10, 53, 100
11, 115308, Note_on_c, 10, 53, 0
11, 115440, Note_on_c, 10, 50, 100
11, 115548, Note_on_c, 10, 50, 0
11, 115680, Note_on_c, 10, 47, 100
11, 115788, Note_on_c, 10, 47, 0
11, 115920, Note_on_c, 10, 43, 100
11, 116028, Note_on_c, 10, 43, 0
11, 116160, Note_on_c, 10, 52, 100
11, 116268, Note_on_c, 10, 52, 0
11, 116400, Note_on_c, 10, 48, 100
11, 116508, Note_on_c, 10, 48, 0
11, 116640, Note_on_c, 10, 45, 100
11, 116748, Note_on_c, 10, 45, 0
11, 116880, Note_on_c, 10, 42, 100
11, 116988, Note_on_c, 10, 42, 0
11, 117120, Note_on_c, 10, 43, 100
11, 117228, Note_on_c, 10, 43, 0
11, 117360, Note_on_c, 10, 48, 100
11, 117468, Note_on_c, 10, 48, 0
11, 117600, Note_on_c, 10, 41, 100
11, 117708, Note_on_c, 10, 41, 0
11, 117840, Note_on_c, 10, 47, 100
11, 117948, Note_on_c, 10, 47, 0
11, 118080, Note_on_c, 10, 40, 100
11, 118188, Note_on_c, 10, 40, 0
11, 118320, Note_on_c, 10, 45, 100
11, 118428, Note_on_c, 10, 45, 0
11, 118560, Note_on_c, 10, 38, 100
11, 118668, Note_on_c, 10, 38, 0
11, 118800, Note_on_c, 10, 43, 100
11, 118908, Note_on_c, 10, 43, 0
11, 119040, Note_on_c, 10, 36, 100
11, 119148, Note_on_c, 10, 36, 0
11, 119160, Note_on_c, 10, 48, 100
11, 119268, Note_on_c, 10, 48, 0
11, 119400, Note_on_c, 10, 36, 100
11, 119508, Note_on_c, 10, 36, 0
11, 119520, Note_on_c, 10, 41, 100
11, 119628, Note_on_c, 10, 41, 0
11, 119640, Note_on_c, 10, 53, 100
11, 119748, Note_on_c, 10, 53, 0
11, 119880, Note_on_c, 10, 38, 100
11, 119988, Note_on_c, 10, 38, 0
11, 120000, Note_on_c, 10, 43, 100
11, 120108, Note_on_c, 10, 43, 0
11, 120120, Note_on_c, 10, 55, 100
11, 120228, Note_on_c, 10, 55, 0
11, 120360, Note_on_c, 10, 40, 100
11, 120468, Note_on_c, 10, 40, 0
11, 120480, Note_on_c, 10, 45, 100
11, 120588, Note_on_c, 10, 45, 0
11, 120600, Note_on_c, 10, 57, 100
11, 120708, Note_on_c, 10, 57, 0
11, 120840, Note_on_c, 10, 53, 100
11, 120948, Note_on_c, 10, 53, 0
11, 120960, Note_on_c, 10, 47, 100
11, 121068, Note_on_c, 10, 47, 0
11, 121080, Note_on_c, 10, 59, 100
11, 121188, Note_on_c, 10, 59, 0
11, 121320, Note_on_c, 10, 43, 100
11, 121428, Note_on_c, 10, 43, 0
11, 121440, Note_on_c, 10, 48, 100
11, 121548, Note_on_c, 10, 48, 0
11, 121560, Note_on_c, 10, 50, 100
11, 121668, Note_on_c, 10, 50, 0
11, 121680, Note_on_c, 10, 52, 100
11, 121788, Note_on_c, 10, 52, 0
11, 121800, Note_on_c, 10, 53, 100
11, 121908, Note_on_c, 10, 53, 0
11, 121920, Note_on_c, 10, 55, 100
11, 122028, Note_on_c, 10, 55, 0
11, 122040, Note_on_c, 10, 57, 100
11, 122148, Note_on_c, 10, 57, 0
11, 122160, Note_on_c, 10, 59, 100
11, 122268, Note_on_c, 10, 59, 0
11, 122280, Note_on_c, 10, 55, 100
11, 122388, Note_on_c, 10, 55, 0
11, 122400, Note_on_c, 10, 60, 100
11, 122508, Note_on_c, 10, 60, 0
11, 122520, Note_on_c, 10, 52, 100
11, 122628, Note_on_c, 10, 52, 0
11, 122640, Note_on_c, 10, 60, 100
11, 122748, Note_on_c, 10, 60, 0
11, 122760, Note_on_c, 10, 52, 100
11, 122868, Note_on_c, 10, 52, 0
11, 122880, Note_on_c, 10, 53, 100
11, 123096, Note_on_c, 10, 53, 0
11, 123360, Note_on_c, 10, 59, 100
11, 123468, Note_on_c, 10, 59, 0
11, 123480, Note_on_c, 10, 50, 100
11, 123588, Note_on_c, 10, 50, 0
11, 123600, Note_on_c, 10, 59, 100
11, 123708, Note_on_c, 10, 59, 0
11, 123720, Note_on_c, 10, 50, 100
11, 123828, Note_on_c, 10, 50, 0
11, 123840, Note_on_c, 10, 52, 100
11, 124056, Note_on_c, 10, 52, 0
11, 124320, Note_on_c, 10, 57, 100
11, 124428, Note_on_c, 10, 57, 0
11, 124440, Note_on_c, 10, 48, 100
11, 124548, Note_on_c, 10, 48, 0
11, 124560, Note_on_c, 10, 57, 100
11, 124668, Note_on_c, 10, 57, 0
11, 124680, Note_on_c, 10, 48, 100
11, 124788, Note_on_c, 10, 48, 0
11, 124800, Note_on_c, 10, 50, 100
11, 125016, Note_on_c, 10, 50, 0
11, 125280, Note_on_c, 10, 55, 100
11, 125388, Note_on_c, 10, 55, 0
11, 125400, Note_on_c, 10, 43, 100
11, 125508, Note_on_c, 10, 43, 0
11, 125520, Note_on_c, 10, 47, 100
11, 125628, Note_on_c, 10, 47, 0
11, 125640, Note_on_c, 10, 43, 100
11, 125748, Note_on_c, 10, 43, 0
11, 125760, Note_on_c, 10, 48, 100
11, 125868, Note_on_c, 10, 48, 0
11, 125880, Note_on_c, 10, 50, 100
11, 125988, Note_on_c, 10, 50, 0
11, 126000, Note_on_c, 10, 52, 100
11, 126108, Note_on_c, 10, 52, 0
11, 126120, Note_on_c, 10, 50, 100
11, 126228, Note_on_c, 10, 50, 0
11, 126240, Note_on_c, 10, 52, 100
11, 126348, Note_on_c, 10, 52, 0
11, 126360, Note_on_c, 10, 53, 100
11, 126468, Note_on_c, 10, 53, 0
11, 126480, Note_on_c, 10, 55, 100
11, 126588, Note_on_c, 10, 55, 0
11, 126600, Note_on_c, 10, 43, 100
11, 126708, Note_on_c, 10, 43, 0
11, 126720, Note_on_c, 10, 60, 100
11, 126828, Note_on_c, 10, 60, 0
11, 126960, Note_on_c, 10, 59, 100
11, 127068, Note_on_c, 10, 59, 0
11, 127200, Note_on_c, 10, 57, 100
11, 127308, Note_on_c, 10, 57, 0
11, 127440, Note_on_c, 10, 52, 100
11, 127548, Note_on_c, 10, 52, 0
11, 127800, Note_on_c, 10, 53, 100
11, 127908, Note_on_c, 10, 53, 0
11, 127920, Note_on_c, 10, 55, 100
11, 128028, Note_on_c, 10, 55, 0
11, 128040, Note_on_c, 10, 43, 100
11, 128148, Note_on_c, 10, 43, 0
11, 128160, Note_on_c, 10, 48, 100
11, 128268, Note_on_c, 10, 48, 0
11, 128280, Note_on_c, 10, 60, 100
11, 128388, Note_on_c, 10, 60, 0
11, 128400, Note_on_c, 10, 59, 100
11, 128508, Note_on_c, 10, 59, 0
11, 128520, Note_on_c, 10, 57, 100
11, 128628, Note_on_c, 10, 57, 0
11, 128640, Note_on_c, 10, 55, 100
11, 128748, Note_on_c, 10, 55, 0
11, 128880, Note_on_c, 10, 54, 100
11, 128988, Note_on_c, 10, 54, 0
11, 129120, Note_on_c, 10, 52, 100
11, 129228, Note_on_c, 10, 52, 0
11, 129360, Note_on_c, 10, 47, 100
11, 129468, Note_on_c, 10, 47, 0
11, 129720, Note_on_c, 10, 48, 100
11, 129828, Note_on_c, 10, 48, 0
11, 129840, Note_on_c, 10, 50, 100
11, 129948, Note_on_c, 10, 50, 0
11, 129960, Note_on_c, 10, 38, 100
11, 130068, Note_on_c, 10, 38, 0
11, 130080, Note_on_c, 10, 43, 100
11, 130188, Note_on_c, 10, 43, 0
11, 130200, Note_on_c, 10, 55, 100
11, 130308, Note_on_c, 10, 55, 0
11, 130320, Note_on_c, 10, 59, 100
11, 130428, Note_on_c, 10, 59, 0
11, 130440, Note_on_c, 10, 55, 100
11, 130548, Note_on_c, 10, 55, 0
11, 130560, Note_on_c, 10, 43, 100
11, 130668, Note_on_c, 10, 43, 0
11, 130680, Note_on_c, 10, 55, 100
11, 130788, Note_on_c, 10, 55, 0
11, 130800, Note_on_c, 10, 60, 100
11, 130908, Note_on_c, 10, 60, 0
11, 130920, Note_on_c, 10, 55, 100
11, 131028, Note_on_c, 10, 55, 0
11, 131040, Note_on_c, 10, 43, 100
11, 131148, Note_on_c, 10, 43, 0
11, 131160, Note_on_c, 10, 55, 100
11, 131268, Note_on_c, 10, 55, 0
11, 131280, Note_on_c, 10, 62, 100
11, 131388, Note_on_c, 10, 62, 0
11, 131400, Note_on_c, 10, 53, 100
11, 131508, Note_on_c, 10, 53, 0
11, 131520, Note_on_c, 10, 52, 100
11, 131628, Note_on_c, 10, 52, 0
11, 131640, Note_on_c, 10, 64, 100
11, 131748, Note_on_c, 10, 64, 0
11, 131760, Note_on_c, 10, 60, 100
11, 131868, Note_on_c, 10, 60, 0
11, 131880, Note_on_c, 10, 57, 100
11, 131988, Note_on_c, 10, 57, 0
11, 132000, Note_on_c, 10, 50, 100
11, 132108, Note_on_c, 10, 50, 0
11, 132120, Note_on_c, 10, 62, 100
11, 132228, Note_on_c, 10, 62, 0
11, 132240, Note_on_c, 10, 59, 100
11, 132348, Note_on_c, 10, 59, 0
11, 132360, Note_on_c, 10, 55, 100
11, 132468, Note_on_c, 10, 55, 0
11, 132480, Note_on_c, 10, 60, 100
11, 132588, Note_on_c, 10, 60, 0
11, 132600, Note_on_c, 10, 59, 100
11, 132708, Note_on_c, 10, 59, 0
11, 132720, Note_on_c, 10, 57, 100
11, 132828, Note_on_c, 10, 57, 0
11, 132840, Note_on_c, 10, 55, 100
11, 132948, Note_on_c, 10, 55, 0
11, 132960, Note_on_c, 10, 53, 100
11, 133068, Note_on_c, 10, 53, 0
11, 133080, Note_on_c, 10, 52, 100
11, 133188, Note_on_c, 10, 52, 0
11, 133200, Note_on_c, 10, 50, 100
11, 133308, Note_on_c, 10, 50, 0
11, 133320, Note_on_c, 10, 48, 100
11, 133428, Note_on_c, 10, 48, 0
11, 133440, Note_on_c, 10, 47, 100
11, 133548, Note_on_c, 10, 47, 0
11, 133560, Note_on_c, 10, 45, 100
11, 133668, Note_on_c, 10, 45, 0
11, 133680, Note_on_c, 10, 43, 100
11, 133788, Note_on_c, 10, 43, 0
11, 133800, Note_on_c, 10, 41, 100
11, 133908, Note_on_c, 10, 41, 0
11, 133920, Note_on_c, 10, 40, 100
11, 133974, Note_on_c, 10, 40, 0
11, 133980, Note_on_c, 10, 50, 100
11, 134034, Note_on_c, 10, 50, 0
11, 134040, Note_on_c, 10, 52, 100
11, 134094, Note_on_c, 10, 52, 0
11, 134100, Note_on_c, 10, 53, 100
11, 134154, Note_on_c, 10, 53, 0
11, 134160, Note_on_c, 10, 55, 100
11, 134268, Note_on_c, 10, 55, 0
11, 134280, Note_on_c, 10, 43, 100
11, 134388, Note_on_c, 10, 43, 0
11, 134400, Note_on_c, 10, 48, 100
11, 134616, Note_on_c, 10, 48, 0
11, 134616, End_track
12, 0, Start_track
12, 0, Program_c, 10, 43
12, 0, Control_c, 10, 7, 127
12, 0, Control_c, 10, 10, 72
12, 0, Note_on_c, 10, 48, 100
12, 108, Note_on_c, 10, 48, 0
12, 240, Note_on_c, 10, 47, 100
12, 348, Note_on_c, 10, 47, 0
12, 480, Note_on_c, 10, 45, 100
12, 588, Note_on_c, 10, 45, 0
12, 720, Note_on_c, 10, 40, 100
12, 828, Note_on_c, 10, 40, 0
12, 1080, Note_on_c, 10, 41, 100
12, 1188, Note_on_c, 10, 41, 0
12, 1200, Note_on_c, 10, 43, 100
12, 1308, Note_on_c, 10, 43, 0
12, 1320, Note_on_c, 10, 31, 100
12, 1428, Note_on_c, 10, 31, 0
12, 1440, Note_on_c, 10, 36, 100
12, 1548, Note_on_c, 10, 36, 0
12, 1560, Note_on_c, 10, 48, 100
12, 1668, Note_on_c, 10, 48, 0
12, 1680, Note_on_c, 10, 47, 100
12, 1788, Note_on_c, 10, 47, 0
12, 1800, Note_on_c, 10, 45, 100
12, 1908, Note_on_c, 10, 45, 0
12, 1920, Note_on_c, 10, 43, 100
12, 2028, Note_on_c, 10, 43, 0
12, 2160, Note_on_c, 10, 42, 100
12, 2268, Note_on_c, 10, 42, 0
12, 2400, Note_on_c, 10, 40, 100
12, 2508, Note_on_c, 10, 40, 0
12, 2640, Note_on_c, 10, 35, 100
12, 2748, Note_on_c, 10, 35, 0
12, 3000, Note_on_c, 10, 36, 100
12, 3108, Note_on_c, 10, 36, 0
12, 3120, Note_on_c, 10, 38, 100
12, 3228, Note_on_c, 10, 38, 0
12, 3240, Note_on_c, 10, 26, 100
12, 3348, Note_on_c, 10, 26, 0
12, 3360, Note_on_c, 10, 31, 100
12, 3468, Note_on_c, 10, 31, 0
12, 3480, Note_on_c, 10, 43, 100
12, 3588, Note_on_c, 10, 43, 0
12, 3600, Note_on_c, 10, 47, 100
12, 3708, Note_on_c, 10, 47, 0
12, 3720, Note_on_c, 10, 43, 100
12, 3828, Note_on_c, 10, 43, 0
12, 3840, Note_on_c, 10, 31, 100
12, 3948, Note_on_c, 10, 31, 0
12, 3960, Note_on_c, 10, 40, 100
12, 4068, Note_on_c, 10, 40, 0
12, 4080, Note_on_c, 10, 48, 100
12, 4188, Note_on_c, 10, 48, 0
12, 4200, Note_on_c, 10, 43, 100
12, 4308, Note_on_c, 10, 43, 0
12, 4320, Note_on_c, 10, 31, 100
12, 4428, Note_on_c, 10, 31, 0
12, 4440, Note_on_c, 10, 43, 100
12, 4548, Note_on_c, 10, 43, 0
12, 4560, Note_on_c, 10, 50, 100
12, 4668, Note_on_c, 10, 50, 0
12, 4680, Note_on_c, 10, 41, 100
12, 4788, Note_on_c, 10, 41, 0
12, 4800, Note_on_c, 10, 40, 100
12, 4908, Note_on_c, 10, 40, 0
12, 4920, Note_on_c, 10, 52, 100
12, 5028, Note_on_c, 10, 52, 0
12, 5040, Note_on_c, 10, 48, 100
12, 5148, Note_on_c, 10, 48, 0
12, 5160, Note_on_c, 10, 45, 100
12, 5268, Note_on_c, 10, 45, 0
12, 5280, Note_on_c, 10, 38, 100
12, 5388, Note_on_c, 10, 38, 0
12, 5400, Note_on_c, 10, 50, 100
12, 5508, Note_on_c, 10, 50, 0
12, 5520, Note_on_c, 10, 47, 100
12, 5628, Note_on_c, 10, 47, 0
12, 5640, Note_on_c, 10, 43, 100
12, 5748, Note_on_c, 10, 43, 0
12, 5760, Note_on_c, 10, 48, 100
12, 5868, Note_on_c, 10, 48, 0
12, 5880, Note_on_c, 10, 47, 100
12, 5988, Note_on_c, 10, 47, 0
12, 6000, Note_on_c, 10, 45, 100
12, 6108, Note_on_c, 10, 45, 0
12, 6120, Note_on_c, 10, 43, 100
12, 6228, Note_on_c, 10, 43, 0
12, 6240, Note_on_c, 10, 41, 100
12, 6348, Note_on_c, 10, 41, 0
12, 6360, Note_on_c, 10, 40, 100
12, 6468, Note_on_c, 10, 40, 0
12, 6480, Note_on_c, 10, 38, 100
12, 6588, Note_on_c, 10, 38, 0
12, 6600, Note_on_c, 10, 36, 100
12, 6708, Note_on_c, 10, 36, 0
12, 6720, Note_on_c, 10, 35, 100
12, 6828, Note_on_c, 10, 35, 0
12, 6840, Note_on_c, 10, 33, 100
12, 6948, Note_on_c, 10, 33, 0
12, 6960, Note_on_c, 10, 31, 100
12, 7068, Note_on_c, 10, 31, 0
12, 7080, Note_on_c, 10, 29, 100
12, 7188, Note_on_c, 10, 29, 0
12, 7200, Note_on_c, 10, 28, 100
12, 7254, Note_on_c, 10, 28, 0
12, 7260, Note_on_c, 10, 38, 100
12, 7314, Note_on_c, 10, 38, 0
12, 7320, Note_on_c, 10, 40, 100
12, 7374, Note_on_c, 10, 40, 0
12, 7380, Note_on_c, 10, 41, 100
12, 7434, Note_on_c, 10, 41, 0
12, 7440, Note_on_c, 10, 43, 100
12, 7548, Note_on_c, 10, 43, 0
12, 7560, Note_on_c, 10, 31, 100
12, 7668, Note_on_c, 10, 31, 0
12, 7680, Note_on_c, 10, 36, 100
12, 7788, Note_on_c, 10, 36, 0
12, 7800, Note_on_c, 10, 24, 100
12, 7908, Note_on_c, 10, 24, 0
12, 8040, Note_on_c, 10, 38, 100
12, 8148, Note_on_c, 10, 38, 0
12, 8160, Note_on_c, 10, 40, 100
12, 8268, Note_on_c, 10, 40, 0
12, 8280, Note_on_c, 10, 28, 100
12, 8388, Note_on_c, 10, 28, 0
12, 8520, Note_on_c, 10, 38, 100
12, 8628, Note_on_c, 10, 38, 0
12, 8640, Note_on_c, 10, 40, 100
12, 8748, Note_on_c, 10, 40, 0
12, 8760, Note_on_c, 10, 36, 100
12, 8868, Note_on_c, 10, 36, 0
12, 8880, Note_on_c, 10, 43, 100
12, 8988, Note_on_c, 10, 43, 0
12, 9000, Note_on_c, 10, 31, 100
12, 9108, Note_on_c, 10, 31, 0
12, 9120, Note_on_c, 10, 36, 100
12, 9228, Note_on_c, 10, 36, 0
12, 9240, Note_on_c, 10, 24, 100
12, 9348, Note_on_c, 10, 24, 0
12, 9600, Note_on_c, 10, 48, 100
12, 9708, Note_on_c, 10, 48, 0
12, 9840, Note_on_c, 10, 47, 100
12, 9948, Note_on_c, 10, 47, 0
12, 10080, Note_on_c, 10, 45, 100
12, 10188, Note_on_c, 10, 45, 0
12, 10320, Note_on_c, 10, 40, 100
12, 10428, Note_on_c, 10, 40, 0
12, 10680, Note_on_c, 10, 41, 100
12, 10788, Note_on_c, 10, 41, 0
12, 10800, Note_on_c, 10, 43, 100
12, 10908, Note_on_c, 10, 43, 0
12, 10920, Note_on_c, 10, 31, 100
12, 11028, Note_on_c, 10, 31, 0
12, 11040, Note_on_c, 10, 36, 100
12, 11148, Note_on_c, 10, 36, 0
12, 11160, Note_on_c, 10, 48, 100
12, 11268, Note_on_c, 10, 48, 0
12, 11280, Note_on_c, 10, 47, 100
12, 11388, Note_on_c, 10, 47, 0
12, 11400, Note_on_c, 10, 45, 100
12, 11508, Note_on_c, 10, 45, 0
12, 11520, Note_on_c, 10, 43, 100
12, 11628, Note_on_c, 10, 43, 0
12, 11640, Note_on_c, 10, 31, 100
12, 11748, Note_on_c, 10, 31, 0
12, 11880, Note_on_c, 10, 45, 100
12, 11988, Note_on_c, 10, 45, 0
12, 12000, Note_on_c, 10, 47, 100
12, 12108, Note_on_c, 10, 47, 0
12, 12120, Note_on_c, 10, 35, 100
12, 12228, Note_on_c, 10, 35, 0
12, 12360, Note_on_c, 10, 45, 100
12, 12468, Note_on_c, 10, 45, 0
12, 12480, Note_on_c, 10, 47, 100
12, 12588, Note_on_c, 10, 47, 0
12, 12600, Note_on_c, 10, 43, 100
12, 12708, Note_on_c, 10, 43, 0
12, 12720, Note_on_c, 10, 50, 100
12, 12828, Note_on_c, 10, 50, 0
12, 12840, Note_on_c, 10, 38, 100
12, 12948, Note_on_c, 10, 38, 0
12, 12960, Note_on_c, 10, 31, 100
12, 13068, Note_on_c, 10, 31, 0
12, 13080, Note_on_c, 10, 33, 100
12, 13188, Note_on_c, 10, 33, 0
12, 13200, Note_on_c, 10, 35, 100
12, 13308, Note_on_c, 10, 35, 0
12, 13320, Note_on_c, 10, 31, 100
12, 13428, Note_on_c, 10, 31, 0
12, 13440, Note_on_c, 10, 36, 100
12, 13548, Note_on_c, 10, 36, 0
12, 13560, Note_on_c, 10, 38, 100
12, 13668, Note_on_c, 10, 38, 0
12, 13680, Note_on_c, 10, 40, 100
12, 13788, Note_on_c, 10, 40, 0
12, 13800, Note_on_c, 10, 36, 100
12, 13908, Note_on_c, 10, 36, 0
12, 13920, Note_on_c, 10, 30, 100
12, 14028, Note_on_c, 10, 30, 0
12, 14040, Note_on_c, 10, 31, 100
12, 14148, Note_on_c, 10, 31, 0
12, 14160, Note_on_c, 10, 33, 100
12, 14268, Note_on_c, 10, 33, 0
12, 14280, Note_on_c, 10, 30, 100
12, 14388, Note_on_c, 10, 30, 0
12, 14400, Note_on_c, 10, 35, 100
12, 14508, Note_on_c, 10, 35, 0
12, 14520, Note_on_c, 10, 36, 100
12, 14628, Note_on_c, 10, 36, 0
12, 14640, Note_on_c, 10, 38, 100
12, 14748, Note_on_c, 10, 38, 0
12, 14760, Note_on_c, 10, 35, 100
12, 14868, Note_on_c, 10, 35, 0
12, 14880, Note_on_c, 10, 28, 100
12, 14988, Note_on_c, 10, 28, 0
12, 15000, Note_on_c, 10, 30, 100
12, 15108, Note_on_c, 10, 30, 0
12, 15120, Note_on_c, 10, 31, 100
12, 15228, Note_on_c, 10, 31, 0
12, 15240, Note_on_c, 10, 28, 100
12, 15348, Note_on_c, 10, 28, 0
12, 15360, Note_on_c, 10, 33, 100
12, 15468, Note_on_c, 10, 33, 0
12, 15480, Note_on_c, 10, 35, 100
12, 15588, Note_on_c, 10, 35, 0
12, 15600, Note_on_c, 10, 36, 100
12, 15708, Note_on_c, 10, 36, 0
12, 15720, Note_on_c, 10, 33, 100
12, 15828, Note_on_c, 10, 33, 0
12, 15840, Note_on_c, 10, 38, 100
12, 15948, Note_on_c, 10, 38, 0
12, 15960, Note_on_c, 10, 26, 100
12, 16068, Note_on_c, 10, 26, 0
12, 16200, Note_on_c, 10, 38, 100
12, 16308, Note_on_c, 10, 38, 0
12, 16320, Note_on_c, 10, 38, 100
12, 16428, Note_on_c, 10, 38, 0
12, 16440, Note_on_c, 10, 26, 100
12, 16548, Note_on_c, 10, 26, 0
12, 16680, Note_on_c, 10, 38, 100
12, 16788, Note_on_c, 10, 38, 0
12, 16800, Note_on_c, 10, 38, 100
12, 16908, Note_on_c, 10, 38, 0
12, 16920, Note_on_c, 10, 26, 100
12, 17028, Note_on_c, 10, 26, 0
12, 17160, Note_on_c, 10, 38, 100
12, 17268, Note_on_c, 10, 38, 0
12, 17280, Note_on_c, 10, 31, 100
12, 17388, Note_on_c, 10, 31, 0
12, 17400, Note_on_c, 10, 33, 100
12, 17508, Note_on_c, 10, 33, 0
12, 17520, Note_on_c, 10, 35, 100
12, 17628, Note_on_c, 10, 35, 0
12, 17640, Note_on_c, 10, 31, 100
12, 17748, Note_on_c, 10, 31, 0
12, 17760, Note_on_c, 10, 36, 100
12, 17868, Note_on_c, 10, 36, 0
12, 17880, Note_on_c, 10, 38, 100
12, 17988, Note_on_c, 10, 38, 0
12, 18000, Note_on_c, 10, 40, 100
12, 18108, Note_on_c, 10, 40, 0
12, 18120, Note_on_c, 10, 36, 100
12, 18228, Note_on_c, 10, 36, 0
12, 18240, Note_on_c, 10, 38, 100
12, 18348, Note_on_c, 10, 38, 0
12, 18360, Note_on_c, 10, 40, 100
12, 18468, Note_on_c, 10, 40, 0
12, 18480, Note_on_c, 10, 42, 100
12, 18588, Note_on_c, 10, 42, 0
12, 18600, Note_on_c, 10, 38, 100
12, 18708, Note_on_c, 10, 38, 0
12, 18720, Note_on_c, 10, 43, 100
12, 18828, Note_on_c, 10, 43, 0
12, 18840, Note_on_c, 10, 36, 100
12, 18948, Note_on_c, 10, 36, 0
12, 18960, Note_on_c, 10, 38, 100
12, 19068, Note_on_c, 10, 38, 0
12, 19080, Note_on_c, 10, 26, 100
12, 19188, Note_on_c, 10, 26, 0
12, 19200, Note_on_c, 10, 31, 100
12, 19416, Note_on_c, 10, 31, 0
12, 20040, Note_on_c, 10, 31, 100
12, 20148, Note_on_c, 10, 31, 0
12, 20160, Note_on_c, 10, 36, 100
12, 20268, Note_on_c, 10, 36, 0
12, 20280, Note_on_c, 10, 31, 100
12, 20388, Note_on_c, 10, 31, 0
12, 20400, Note_on_c, 10, 36, 100
12, 20508, Note_on_c, 10, 36, 0
12, 20520, Note_on_c, 10, 31, 100
12, 20628, Note_on_c, 10, 31, 0
12, 20640, Note_on_c, 10, 36, 100
12, 20856, Note_on_c, 10, 36, 0
12, 21000, Note_on_c, 10, 28, 100
12, 21108, Note_on_c, 10, 28, 0
12, 21120, Note_on_c, 10, 33, 100
12, 21228, Note_on_c, 10, 33, 0
12, 21240, Note_on_c, 10, 28, 100
12, 21348, Note_on_c, 10, 28, 0
12, 21360, Note_on_c, 10, 33, 100
12, 21468, Note_on_c, 10, 33, 0
12, 21480, Note_on_c, 10, 28, 100
12, 21588, Note_on_c, 10, 28, 0
12, 21600, Note_on_c, 10, 33, 100
12, 21816, Note_on_c, 10, 33, 0
12, 21960, Note_on_c, 10, 45, 100
12, 22068, Note_on_c, 10, 45, 0
12, 22080, Note_on_c, 10, 50, 100
12, 22188, Note_on_c, 10, 50, 0
12, 22200, Note_on_c, 10, 45, 100
12, 22308, Note_on_c, 10, 45, 0
12, 22320, Note_on_c, 10, 50, 100
12, 22428, Note_on_c, 10, 50, 0
12, 22440, Note_on_c, 10, 45, 100
12, 22548, Note_on_c, 10, 45, 0
12, 22560, Note_on_c, 10, 50, 100
12, 22668, Note_on_c, 10, 50, 0
12, 22680, Note_on_c, 10, 48, 100
12, 22788, Note_on_c, 10, 48, 0
12, 22800, Note_on_c, 10, 47, 100
12, 22908, Note_on_c, 10, 47, 0
12, 22920, Note_on_c, 10, 43, 100
12, 23028, Note_on_c, 10, 43, 0
12, 23040, Note_on_c, 10, 48, 100
12, 23148, Note_on_c, 10, 48, 0
12, 23160, Note_on_c, 10, 47, 100
12, 23268, Note_on_c, 10, 47, 0
12, 23280, Note_on_c, 10, 45, 100
12, 23388, Note_on_c, 10, 45, 0
12, 23400, Note_on_c, 10, 43, 100
12, 23508, Note_on_c, 10, 43, 0
12, 23520, Note_on_c, 10, 42, 100
12, 23628, Note_on_c, 10, 42, 0
12, 23640, Note_on_c, 10, 47, 100
12, 23748, Note_on_c, 10, 47, 0
12, 23760, Note_on_c, 10, 44, 100
12, 23868, Note_on_c, 10, 44, 0
12, 23880, Note_on_c, 10, 40, 100
12, 23988, Note_on_c, 10, 40, 0
12, 24000, Note_on_c, 10, 45, 100
12, 24108, Note_on_c, 10, 45, 0
12, 24120, Note_on_c, 10, 43, 100
12, 24228, Note_on_c, 10, 43, 0
12, 24240, Note_on_c, 10, 41, 100
12, 24348, Note_on_c, 10, 41, 0
12, 24360, Note_on_c, 10, 40, 100
12, 24468, Note_on_c, 10, 40, 0
12, 24480, Note_on_c, 10, 38, 100
12, 24588, Note_on_c, 10, 38, 0
12, 24600, Note_on_c, 10, 43, 100
12, 24708, Note_on_c, 10, 43, 0
12, 24720, Note_on_c, 10, 40, 100
12, 24828, Note_on_c, 10, 40, 0
12, 24840, Note_on_c, 10, 36, 100
12, 24948, Note_on_c, 10, 36, 0
12, 24960, Note_on_c, 10, 41, 100
12, 25068, Note_on_c, 10, 41, 0
12, 25080, Note_on_c, 10, 40, 100
12, 25188, Note_on_c, 10, 40, 0
12, 25200, Note_on_c, 10, 38, 100
12, 25308, Note_on_c, 10, 38, 0
12, 25320, Note_on_c, 10, 36, 100
12, 25428, Note_on_c, 10, 36, 0
12, 25440, Note_on_c, 10, 35, 100
12, 25548, Note_on_c, 10, 35, 0
12, 25560, Note_on_c, 10, 31, 100
12, 25668, Note_on_c, 10, 31, 0
12, 25680, Note_on_c, 10, 36, 100
12, 25788, Note_on_c, 10, 36, 0
12, 25800, Note_on_c, 10, 35, 100
12, 25908, Note_on_c, 10, 35, 0
12, 25920, Note_on_c, 10, 33, 100
12, 26028, Note_on_c, 10, 33, 0
12, 26040, Note_on_c, 10, 38, 100
12, 26148, Note_on_c, 10, 38, 0
12, 26160, Note_on_c, 10, 35, 100
12, 26268, Note_on_c, 10, 35, 0
12, 26280, Note_on_c, 10, 31, 100
12, 26388, Note_on_c, 10, 31, 0
12, 26400, Note_on_c, 10, 36, 100
12, 26508, Note_on_c, 10, 36, 0
12, 26520, Note_on_c, 10, 35, 100
12, 26628, Note_on_c, 10, 35, 0
12, 26640, Note_on_c, 10, 33, 100
12, 26748, Note_on_c, 10, 33, 0
12, 26760, Note_on_c, 10, 31, 100
12, 26868, Note_on_c, 10, 31, 0
12, 26880, Note_on_c, 10, 29, 100
12, 26988, Note_on_c, 10, 29, 0
12, 27000, Note_on_c, 10, 28, 100
12, 27108, Note_on_c, 10, 28, 0
12, 27120, Note_on_c, 10, 29, 100
12, 27228, Note_on_c, 10, 29, 0
12, 27240, Note_on_c, 10, 26, 100
12, 27348, Note_on_c, 10, 26, 0
12, 27360, Note_on_c, 10, 31, 100
12, 27576, Note_on_c, 10, 31, 0
12, 27840, Note_on_c, 10, 48, 100
12, 27948, Note_on_c, 10, 48, 0
12, 28080, Note_on_c, 10, 47, 100
12, 28188, Note_on_c, 10, 47, 0
12, 28320, Note_on_c, 10, 45, 100
12, 28428, Note_on_c, 10, 45, 0
12, 28560, Note_on_c, 10, 40, 100
12, 28668, Note_on_c, 10, 40, 0
12, 28920, Note_on_c, 10, 41, 100
12, 29028, Note_on_c, 10, 41, 0
12, 29040, Note_on_c, 10, 43, 100
12, 29148, Note_on_c, 10, 43, 0
12, 29160, Note_on_c, 10, 41, 100
12, 29268, Note_on_c, 10, 41, 0
12, 29280, Note_on_c, 10, 40, 100
12, 29388, Note_on_c, 10, 40, 0
12, 29400, Note_on_c, 10, 40, 100
12, 29508, Note_on_c, 10, 40, 0
12, 29520, Note_on_c, 10, 40, 100
12, 29628, Note_on_c, 10, 40, 0
12, 29640, Note_on_c, 10, 40, 100
12, 29748, Note_on_c, 10, 40, 0
12, 29760, Note_on_c, 10, 41, 100
12, 29868, Note_on_c, 10, 41, 0
12, 29880, Note_on_c, 10, 41, 100
12, 29988, Note_on_c, 10, 41, 0
12, 30000, Note_on_c, 10, 41, 100
12, 30108, Note_on_c, 10, 41, 0
12, 30120, Note_on_c, 10, 41, 100
12, 30228, Note_on_c, 10, 41, 0
12, 30240, Note_on_c, 10, 42, 100
12, 30348, Note_on_c, 10, 42, 0
12, 30360, Note_on_c, 10, 42, 100
12, 30468, Note_on_c, 10, 42, 0
12, 30480, Note_on_c, 10, 42, 100
12, 30588, Note_on_c, 10, 42, 0
12, 30600, Note_on_c, 10, 42, 100
12, 30708, Note_on_c, 10, 42, 0
12, 30720, Note_on_c, 10, 43, 100
12, 30828, Note_on_c, 10, 43, 0
12, 30840, Note_on_c, 10, 43, 100
12, 30948, Note_on_c, 10, 43, 0
12, 30960, Note_on_c, 10, 43, 100
12, 31068, Note_on_c, 10, 43, 0
12, 31080, Note_on_c, 10, 43, 100
12, 31188, Note_on_c, 10, 43, 0
12, 31200, Note_on_c, 10, 44, 100
12, 31308, Note_on_c, 10, 44, 0
12, 31320, Note_on_c, 10, 44, 100
12, 31428, Note_on_c, 10, 44, 0
12, 31440, Note_on_c, 10, 44, 100
12, 31548, Note_on_c, 10, 44, 0
12, 31560, Note_on_c, 10, 44, 100
12, 31668, Note_on_c, 10, 44, 0
12, 31680, Note_on_c, 10, 45, 100
12, 31788, Note_on_c, 10, 45, 0
12, 31800, Note_on_c, 10, 45, 100
12, 31908, Note_on_c, 10, 45, 0
12, 31920, Note_on_c, 10, 45, 100
12, 32028, Note_on_c, 10, 45, 0
12, 32040, Note_on_c, 10, 45, 100
12, 32148, Note_on_c, 10, 45, 0
12, 32160, Note_on_c, 10, 45, 100
12, 32268, Note_on_c, 10, 45, 0
12, 32280, Note_on_c, 10, 45, 100
12, 32388, Note_on_c, 10, 45, 0
12, 32400, Note_on_c, 10, 45, 100
12, 32508, Note_on_c, 10, 45, 0
12, 32520, Note_on_c, 10, 45, 100
12, 32628, Note_on_c, 10, 45, 0
12, 32640, Note_on_c, 10, 47, 100
12, 32748, Note_on_c, 10, 47, 0
12, 32760, Note_on_c, 10, 47, 100
12, 32868, Note_on_c, 10, 47, 0
12, 32880, Note_on_c, 10, 47, 100
12, 32988, Note_on_c, 10, 47, 0
12, 33000, Note_on_c, 10, 47, 100
12, 33108, Note_on_c, 10, 47, 0
12, 33120, Note_on_c, 10, 48, 100
12, 33228, Note_on_c, 10, 48, 0
12, 33240, Note_on_c, 10, 48, 100
12, 33348, Note_on_c, 10, 48, 0
12, 33360, Note_on_c, 10, 48, 100
12, 33468, Note_on_c, 10, 48, 0
12, 33480, Note_on_c, 10, 48, 100
12, 33588, Note_on_c, 10, 48, 0
12, 33600, Note_on_c, 10, 42, 100
12, 33708, Note_on_c, 10, 42, 0
12, 33720, Note_on_c, 10, 42, 100
12, 33828, Note_on_c, 10, 42, 0
12, 33840, Note_on_c, 10, 42, 100
12, 33948, Note_on_c, 10, 42, 0
12, 33960, Note_on_c, 10, 42, 100
12, 34068, Note_on_c, 10, 42, 0
12, 34080, Note_on_c, 10, 42, 100
12, 34188, Note_on_c, 10, 42, 0
12, 34200, Note_on_c, 10, 42, 100
12, 34308, Note_on_c, 10, 42, 0
12, 34320, Note_on_c, 10, 42, 100
12, 34428, Note_on_c, 10, 42, 0
12, 34440, Note_on_c, 10, 42, 100
12, 34548, Note_on_c, 10, 42, 0
12, 34560, Note_on_c, 10, 43, 100
12, 34668, Note_on_c, 10, 43, 0
12, 34680, Note_on_c, 10, 41, 100
12, 34734, Note_on_c, 10, 41, 0
12, 34740, Note_on_c, 10, 40, 100
12, 34794, Note_on_c, 10, 40, 0
12, 34800, Note_on_c, 10, 38, 100
12, 34908, Note_on_c, 10, 38, 0
12, 34920, Note_on_c, 10, 36, 100
12, 35028, Note_on_c, 10, 36, 0
12, 35040, Note_on_c, 10, 35, 100
12, 35148, Note_on_c, 10, 35, 0
12, 35160, Note_on_c, 10, 31, 100
12, 35268, Note_on_c, 10, 31, 0
12, 35280, Note_on_c, 10, 31, 100
12, 35388, Note_on_c, 10, 31, 0
12, 35400, Note_on_c, 10, 31, 100
12, 35508, Note_on_c, 10, 31, 0
12, 35520, Note_on_c, 10, 31, 100
12, 35628, Note_on_c, 10, 31, 0
12, 35640, Note_on_c, 10, 31, 100
12, 35748, Note_on_c, 10, 31, 0
12, 35760, Note_on_c, 10, 31, 100
12, 35868, Note_on_c, 10, 31, 0
12, 35880, Note_on_c, 10, 31, 100
12, 35988, Note_on_c, 10, 31, 0
12, 36000, Note_on_c, 10, 31, 100
12, 36108, Note_on_c, 10, 31, 0
12, 36120, Note_on_c, 10, 31, 100
12, 36228, Note_on_c, 10, 31, 0
12, 36240, Note_on_c, 10, 31, 100
12, 36348, Note_on_c, 10, 31, 0
12, 36360, Note_on_c, 10, 31, 100
12, 36468, Note_on_c, 10, 31, 0
12, 36480, Note_on_c, 10, 31, 100
12, 36588, Note_on_c, 10, 31, 0
12, 36600, Note_on_c, 10, 31, 100
12, 36708, Note_on_c, 10, 31, 0
12, 36720, Note_on_c, 10, 31, 100
12, 36828, Note_on_c, 10, 31, 0
12, 36840, Note_on_c, 10, 31, 100
12, 36948, Note_on_c, 10, 31, 0
12, 36960, Note_on_c, 10, 36, 100
12, 37068, Note_on_c, 10, 36, 0
12, 37080, Note_on_c, 10, 38, 100
12, 37134, Note_on_c, 10, 38, 0
12, 37140, Note_on_c, 10, 40, 100
12, 37194, Note_on_c, 10, 40, 0
12, 37200, Note_on_c, 10, 41, 100
12, 37254, Note_on_c, 10, 41, 0
12, 37260, Note_on_c, 10, 43, 100
12, 37314, Note_on_c, 10, 43, 0
12, 37320, Note_on_c, 10, 45, 100
12, 37374, Note_on_c, 10, 45, 0
12, 37380, Note_on_c, 10, 47, 100
12, 37434, Note_on_c, 10, 47, 0
12, 37440, Note_on_c, 10, 48, 100
12, 37548, Note_on_c, 10, 48, 0
12, 37680, Note_on_c, 10, 47, 100
12, 37788, Note_on_c, 10, 47, 0
12, 37920, Note_on_c, 10, 45, 100
12, 38028, Note_on_c, 10, 45, 0
12, 38160, Note_on_c, 10, 40, 100
12, 38268, Note_on_c, 10, 40, 0
12, 38520, Note_on_c, 10, 41, 100
12, 38628, Note_on_c, 10, 41, 0
12, 38640, Note_on_c, 10, 43, 100
12, 38748, Note_on_c, 10, 43, 0
12, 38760, Note_on_c, 10, 41, 100
12, 38868, Note_on_c, 10, 41, 0
12, 38880, Note_on_c, 10, 40, 100
12, 38988, Note_on_c, 10, 40, 0
12, 39120, Note_on_c, 10, 45, 100
12, 39228, Note_on_c, 10, 45, 0
12, 39480, Note_on_c, 10, 43, 100
12, 39534, Note_on_c, 10, 43, 0
12, 39540, Note_on_c, 10, 41, 100
12, 39594, Note_on_c, 10, 41, 0
12, 39600, Note_on_c, 10, 43, 100
12, 39708, Note_on_c, 10, 43, 0
12, 39720, Note_on_c, 10, 31, 100
12, 39828, Note_on_c, 10, 31, 0
12, 39840, Note_on_c, 10, 24, 100
12, 39948, Note_on_c, 10, 24, 0
12, 39960, Note_on_c, 10, 36, 100
12, 40014, Note_on_c, 10, 36, 0
12, 40020, Note_on_c, 10, 38, 100
12, 40074, Note_on_c, 10, 38, 0
12, 40080, Note_on_c, 10, 36, 100
12, 40188, Note_on_c, 10, 36, 0
12, 40200, Note_on_c, 10, 35, 100
12, 40308, Note_on_c, 10, 35, 0
12, 40320, Note_on_c, 10, 33, 100
12, 40428, Note_on_c, 10, 33, 0
12, 40440, Note_on_c, 10, 35, 100
12, 40548, Note_on_c, 10, 35, 0
12, 40560, Note_on_c, 10, 36, 100
12, 40668, Note_on_c, 10, 36, 0
12, 40680, Note_on_c, 10, 38, 100
12, 40788, Note_on_c, 10, 38, 0
12, 40800, Note_on_c, 10, 40, 100
12, 40908, Note_on_c, 10, 40, 0
12, 40920, Note_on_c, 10, 38, 100
12, 41028, Note_on_c, 10, 38, 0
12, 41040, Note_on_c, 10, 36, 100
12, 41148, Note_on_c, 10, 36, 0
12, 41160, Note_on_c, 10, 33, 100
12, 41268, Note_on_c, 10, 33, 0
12, 41280, Note_on_c, 10, 35, 100
12, 41388, Note_on_c, 10, 35, 0
12, 41400, Note_on_c, 10, 33, 100
12, 41508, Note_on_c, 10, 33, 0
12, 41520, Note_on_c, 10, 32, 100
12, 41628, Note_on_c, 10, 32, 0
12, 41640, Note_on_c, 10, 28, 100
12, 41748, Note_on_c, 10, 28, 0
12, 41760, Note_on_c, 10, 33, 100
12, 41868, Note_on_c, 10, 33, 0
12, 41880, Note_on_c, 10, 45, 100
12, 41934, Note_on_c, 10, 45, 0
12, 41940, Note_on_c, 10, 43, 100
12, 41994, Note_on_c, 10, 43, 0
12, 42000, Note_on_c, 10, 41, 100
12, 42108, Note_on_c, 10, 41, 0
12, 42120, Note_on_c, 10, 45, 100
12, 42228, Note_on_c, 10, 45, 0
12, 42240, Note_on_c, 10, 38, 100
12, 42348, Note_on_c, 10, 38, 0
12, 42360, Note_on_c, 10, 40, 100
12, 42468, Note_on_c, 10, 40, 0
12, 42480, Note_on_c, 10, 41, 100
12, 42588, Note_on_c, 10, 41, 0
12, 42600, Note_on_c, 10, 46, 100
12, 42708, Note_on_c, 10, 46, 0
12, 42720, Note_on_c, 10, 45, 100
12, 42828, Note_on_c, 10, 45, 0
12, 42840, Note_on_c, 10, 43, 100
12, 42948, Note_on_c, 10, 43, 0
12, 42960, Note_on_c, 10, 41, 100
12, 43068, Note_on_c, 10, 41, 0
12, 43080, Note_on_c, 10, 38, 100
12, 43188, Note_on_c, 10, 38, 0
12, 43200, Note_on_c, 10, 37, 100
12, 43308, Note_on_c, 10, 37, 0
12, 43320, Note_on_c, 10, 38, 100
12, 43428, Note_on_c, 10, 38, 0
12, 43440, Note_on_c, 10, 45, 100
12, 43548, Note_on_c, 10, 45, 0
12, 43560, Note_on_c, 10, 33, 100
12, 43668, Note_on_c, 10, 33, 0
12, 43680, Note_on_c, 10, 38, 100
12, 43788, Note_on_c, 10, 38, 0
12, 43800, Note_on_c, 10, 26, 100
12, 43908, Note_on_c, 10, 26, 0
12, 44040, Note_on_c, 10, 38, 100
12, 44148, Note_on_c, 10, 38, 0
12, 44160, Note_on_c, 10, 43, 100
12, 44268, Note_on_c, 10, 43, 0
12, 44280, Note_on_c, 10, 31, 100
12, 44388, Note_on_c, 10, 31, 0
12, 44520, Note_on_c, 10, 43, 100
12, 44628, Note_on_c, 10, 43, 0
12, 44640, Note_on_c, 10, 36, 100
12, 44748, Note_on_c, 10, 36, 0
12, 44760, Note_on_c, 10, 35, 100
12, 44868, Note_on_c, 10, 35, 0
12, 44880, Note_on_c, 10, 33, 100
12, 44988, Note_on_c, 10, 33, 0
12, 45000, Note_on_c, 10, 45, 100
12, 45108, Note_on_c, 10, 45, 0
12, 45120, Note_on_c, 10, 47, 100
12, 45228, Note_on_c, 10, 47, 0
12, 45240, Note_on_c, 10, 45, 100
12, 45348, Note_on_c, 10, 45, 0
12, 45360, Note_on_c, 10, 43, 100
12, 45468, Note_on_c, 10, 43, 0
12, 45480, Note_on_c, 10, 48, 100
12, 45588, Note_on_c, 10, 48, 0
12, 45600, Note_on_c, 10, 47, 100
12, 45708, Note_on_c, 10, 47, 0
12, 45720, Note_on_c, 10, 45, 100
12, 45828, Note_on_c, 10, 45, 0
12, 45840, Note_on_c, 10, 43, 100
12, 45948, Note_on_c, 10, 43, 0
12, 45960, Note_on_c, 10, 40, 100
12, 46068, Note_on_c, 10, 40, 0
12, 46080, Note_on_c, 10, 39, 100
12, 46188, Note_on_c, 10, 39, 0
12, 46200, Note_on_c, 10, 40, 100
12, 46308, Note_on_c, 10, 40, 0
12, 46320, Note_on_c, 10, 47, 100
12, 46428, Note_on_c, 10, 47, 0
12, 46440, Note_on_c, 10, 35, 100
12, 46548, Note_on_c, 10, 35, 0
12, 46560, Note_on_c, 10, 40, 100
12, 46668, Note_on_c, 10, 40, 0
12, 46680, Note_on_c, 10, 28, 100
12, 46788, Note_on_c, 10, 28, 0
12, 46920, Note_on_c, 10, 40, 100
12, 47028, Note_on_c, 10, 40, 0
12, 47040, Note_on_c, 10, 45, 100
12, 47148, Note_on_c, 10, 45, 0
12, 47160, Note_on_c, 10, 33, 100
12, 47268, Note_on_c, 10, 33, 0
12, 47400, Note_on_c, 10, 33, 100
12, 47508, Note_on_c, 10, 33, 0
12, 47520, Note_on_c, 10, 38, 100
12, 47628, Note_on_c, 10, 38, 0
12, 47640, Note_on_c, 10, 26, 100
12, 47748, Note_on_c, 10, 26, 0
12, 47880, Note_on_c, 10, 38, 100
12, 47988, Note_on_c, 10, 38, 0
12, 48000, Note_on_c, 10, 43, 100
12, 48108, Note_on_c, 10, 43, 0
12, 48120, Note_on_c, 10, 31, 100
12, 48228, Note_on_c, 10, 31, 0
12, 48360, Note_on_c, 10, 43, 100
12, 48468, Note_on_c, 10, 43, 0
12, 48480, Note_on_c, 10, 48, 100
12, 48588, Note_on_c, 10, 48, 0
12, 48600, Note_on_c, 10, 36, 100
12, 48708, Note_on_c, 10, 36, 0
12, 48840, Note_on_c, 10, 48, 100
12, 48948, Note_on_c, 10, 48, 0
12, 48960, Note_on_c, 10, 42, 100
12, 49014, Note_on_c, 10, 42, 0
12, 49020, Note_on_c, 10, 30, 100
12, 49074, Note_on_c, 10, 30, 0
12, 49080, Note_on_c, 10, 33, 100
12, 49134, Note_on_c, 10, 33, 0
12, 49140, Note_on_c, 10, 36, 100
12, 49194, Note_on_c, 10, 36, 0
12, 49200, Note_on_c, 10, 42, 100
12, 49254, Note_on_c, 10, 42, 0
12, 49260, Note_on_c, 10, 40, 100
12, 49314, Note_on_c, 10, 40, 0
12, 49320, Note_on_c, 10, 38, 100
12, 49374, Note_on_c, 10, 38, 0
12, 49380, Note_on_c, 10, 40, 100
12, 49434, Note_on_c, 10, 40, 0
12, 49440, Note_on_c, 10, 42, 100
12, 49494, Note_on_c, 10, 42, 0
12, 49500, Note_on_c, 10, 35, 100
12, 49554, Note_on_c, 10, 35, 0
12, 49560, Note_on_c, 10, 38, 100
12, 49614, Note_on_c, 10, 38, 0
12, 49620, Note_on_c, 10, 42, 100
12, 49674, Note_on_c, 10, 42, 0
12, 49680, Note_on_c, 10, 47, 100
12, 49734, Note_on_c, 10, 47, 0
12, 49740, Note_on_c, 10, 45, 100
12, 49794, Note_on_c, 10, 45, 0
12, 49800, Note_on_c, 10, 43, 100
12, 49854, Note_on_c, 10, 43, 0
12, 49860, Note_on_c, 10, 42, 100
12, 49914, Note_on_c, 10, 42, 0
12, 49920, Note_on_c, 10, 40, 100
12, 50028, Note_on_c, 10, 40, 0
12, 50040, Note_on_c, 10, 42, 100
12, 50148, Note_on_c, 10, 42, 0
12, 50160, Note_on_c, 10, 43, 100
12, 50268, Note_on_c, 10, 43, 0
12, 50280, Note_on_c, 10, 40, 100
12, 50388, Note_on_c, 10, 40, 0
12, 50400, Note_on_c, 10, 33, 100
12, 50508, Note_on_c, 10, 33, 0
12, 50520, Note_on_c, 10, 35, 100
12, 50628, Note_on_c, 10, 35, 0
12, 50640, Note_on_c, 10, 36, 100
12, 50748, Note_on_c, 10, 36, 0
12, 50760, Note_on_c, 10, 33, 100
12, 50868, Note_on_c, 10, 33, 0
12, 50880, Note_on_c, 10, 38, 100
12, 50988, Note_on_c, 10, 38, 0
12, 51000, Note_on_c, 10, 40, 100
12, 51108, Note_on_c, 10, 40, 0
12, 51120, Note_on_c, 10, 42, 100
12, 51228, Note_on_c, 10, 42, 0
12, 51240, Note_on_c, 10, 38, 100
12, 51348, Note_on_c, 10, 38, 0
12, 51360, Note_on_c, 10, 31, 100
12, 51468, Note_on_c, 10, 31, 0
12, 51480, Note_on_c, 10, 33, 100
12, 51588, Note_on_c, 10, 33, 0
12, 51600, Note_on_c, 10, 35, 100
12, 51708, Note_on_c, 10, 35, 0
12, 51720, Note_on_c, 10, 31, 100
12, 51828, Note_on_c, 10, 31, 0
12, 51840, Note_on_c, 10, 36, 100
12, 51948, Note_on_c, 10, 36, 0
12, 51960, Note_on_c, 10, 35, 100
12, 52068, Note_on_c, 10, 35, 0
12, 52080, Note_on_c, 10, 36, 100
12, 52188, Note_on_c, 10, 36, 0
12, 52200, Note_on_c, 10, 33, 100
12, 52308, Note_on_c, 10, 33, 0
12, 52320, Note_on_c, 10, 38, 100
12, 52428, Note_on_c, 10, 38, 0
12, 52440, Note_on_c, 10, 36, 100
12, 52548, Note_on_c, 10, 36, 0
12, 52560, Note_on_c, 10, 38, 100
12, 52668, Note_on_c, 10, 38, 0
12, 52680, Note_on_c, 10, 35, 100
12, 52788, Note_on_c, 10, 35, 0
12, 52800, Note_on_c, 10, 40, 100
12, 52908, Note_on_c, 10, 40, 0
12, 52920, Note_on_c, 10, 38, 100
12, 53028, Note_on_c, 10, 38, 0
12, 53040, Note_on_c, 10, 40, 100
12, 53148, Note_on_c, 10, 40, 0
12, 53160, Note_on_c, 10, 36, 100
12, 53268, Note_on_c, 10, 36, 0
12, 53280, Note_on_c, 10, 42, 100
12, 53388, Note_on_c, 10, 42, 0
12, 53400, Note_on_c, 10, 40, 100
12, 53508, Note_on_c, 10, 40, 0
12, 53520, Note_on_c, 10, 42, 100
12, 53628, Note_on_c, 10, 42, 0
12, 53640, Note_on_c, 10, 38, 100
12, 53748, Note_on_c, 10, 38, 0
12, 53760, Note_on_c, 10, 43, 100
12, 53868, Note_on_c, 10, 43, 0
12, 53880, Note_on_c, 10, 31, 100
12, 53988, Note_on_c, 10, 31, 0
12, 54120, Note_on_c, 10, 45, 100
12, 54228, Note_on_c, 10, 45, 0
12, 54240, Note_on_c, 10, 47, 100
12, 54348, Note_on_c, 10, 47, 0
12, 54360, Note_on_c, 10, 35, 100
12, 54468, Note_on_c, 10, 35, 0
12, 54600, Note_on_c, 10, 45, 100
12, 54708, Note_on_c, 10, 45, 0
12, 54720, Note_on_c, 10, 47, 100
12, 54828, Note_on_c, 10, 47, 0
12, 54840, Note_on_c, 10, 43, 100
12, 54948, Note_on_c, 10, 43, 0
12, 54960, Note_on_c, 10, 50, 100
12, 55068, Note_on_c, 10, 50, 0
12, 55080, Note_on_c, 10, 38, 100
12, 55188, Note_on_c, 10, 38, 0
12, 55200, Note_on_c, 10, 43, 100
12, 55308, Note_on_c, 10, 43, 0
12, 55320, Note_on_c, 10, 36, 100
12, 55428, Note_on_c, 10, 36, 0
12, 55440, Note_on_c, 10, 38, 100
12, 55548, Note_on_c, 10, 38, 0
12, 55560, Note_on_c, 10, 26, 100
12, 55668, Note_on_c, 10, 26, 0
12, 55680, Note_on_c, 10, 43, 100
12, 55788, Note_on_c, 10, 43, 0
12, 55800, Note_on_c, 10, 38, 100
12, 55908, Note_on_c, 10, 38, 0
12, 55920, Note_on_c, 10, 43, 100
12, 56028, Note_on_c, 10, 43, 0
12, 56040, Note_on_c, 10, 38, 100
12, 56148, Note_on_c, 10, 38, 0
12, 56160, Note_on_c, 10, 43, 100
12, 56268, Note_on_c, 10, 43, 0
12, 56280, Note_on_c, 10, 42, 100
12, 56334, Note_on_c, 10, 42, 0
12, 56340, Note_on_c, 10, 40, 100
12, 56394, Note_on_c, 10, 40, 0
12, 56400, Note_on_c, 10, 38, 100
12, 56508, Note_on_c, 10, 38, 0
12, 56520, Note_on_c, 10, 40, 100
12, 56574, Note_on_c, 10, 40, 0
12, 56580, Note_on_c, 10, 42, 100
12, 56634, Note_on_c, 10, 42, 0
12, 56640, Note_on_c, 10, 43, 100
12, 56748, Note_on_c, 10, 43, 0
12, 56760, Note_on_c, 10, 42, 100
12, 56814, Note_on_c, 10, 42, 0
12, 56820, Note_on_c, 10, 40, 100
12, 56874, Note_on_c, 10, 40, 0
12, 56880, Note_on_c, 10, 38, 100
12, 56934, Note_on_c, 10, 38, 0
12, 56940, Note_on_c, 10, 36, 100
12, 56994, Note_on_c, 10, 36, 0
12, 57000, Note_on_c, 10, 35, 100
12, 57054, Note_on_c, 10, 35, 0
12, 57060, Note_on_c, 10, 33, 100
12, 57114, Note_on_c, 10, 33, 0
12, 57120, Note_on_c, 10, 35, 100
12, 57228, Note_on_c, 10, 35, 0
12, 58200, Note_on_c, 10, 31, 100
12, 58308, Note_on_c, 10, 31, 0
12, 58320, Note_on_c, 10, 33, 100
12, 58428, Note_on_c, 10, 33, 0
12, 58440, Note_on_c, 10, 35, 100
12, 58548, Note_on_c, 10, 35, 0
12, 58560, Note_on_c, 10, 36, 100
12, 58668, Note_on_c, 10, 36, 0
12, 58680, Note_on_c, 10, 31, 100
12, 58788, Note_on_c, 10, 31, 0
12, 58800, Note_on_c, 10, 36, 100
12, 58908, Note_on_c, 10, 36, 0
12, 58920, Note_on_c, 10, 31, 100
12, 59028, Note_on_c, 10, 31, 0
12, 59040, Note_on_c, 10, 36, 100
12, 59148, Note_on_c, 10, 36, 0
12, 59160, Note_on_c, 10, 35, 100
12, 59214, Note_on_c, 10, 35, 0
12, 59220, Note_on_c, 10, 33, 100
12, 59274, Note_on_c, 10, 33, 0
12, 59280, Note_on_c, 10, 31, 100
12, 59388, Note_on_c, 10, 31, 0
12, 59400, Note_on_c, 10, 33, 100
12, 59454, Note_on_c, 10, 33, 0
12, 59460, Note_on_c, 10, 35, 100
12, 59514, Note_on_c, 10, 35, 0
12, 59520, Note_on_c, 10, 36, 100
12, 59628, Note_on_c, 10, 36, 0
12, 59640, Note_on_c, 10, 35, 100
12, 59694, Note_on_c, 10, 35, 0
12, 59700, Note_on_c, 10, 33, 100
12, 59754, Note_on_c, 10, 33, 0
12, 59760, Note_on_c, 10, 31, 100
12, 59814, Note_on_c, 10, 31, 0
12, 59820, Note_on_c, 10, 29, 100
12, 59874, Note_on_c, 10, 29, 0
12, 59880, Note_on_c, 10, 28, 100
12, 59934, Note_on_c, 10, 28, 0
12, 59940, Note_on_c, 10, 26, 100
12, 59994, Note_on_c, 10, 26, 0
12, 60000, Note_on_c, 10, 28, 100
12, 60108, Note_on_c, 10, 28, 0
12, 61080, Note_on_c, 10, 36, 100
12, 61188, Note_on_c, 10, 36, 0
12, 61200, Note_on_c, 10, 38, 100
12, 61308, Note_on_c, 10, 38, 0
12, 61320, Note_on_c, 10, 40, 100
12, 61428, Note_on_c, 10, 40, 0
12, 61440, Note_on_c, 10, 41, 100
12, 61548, Note_on_c, 10, 41, 0
12, 61560, Note_on_c, 10, 43, 100
12, 61668, Note_on_c, 10, 43, 0
12, 61680, Note_on_c, 10, 45, 100
12, 61788, Note_on_c, 10, 45, 0
12, 61800, Note_on_c, 10, 46, 100
12, 61908, Note_on_c, 10, 46, 0
12, 61920, Note_on_c, 10, 48, 100
12, 62028, Note_on_c, 10, 48, 0
12, 62040, Note_on_c, 10, 36, 100
12, 62148, Note_on_c, 10, 36, 0
12, 62160, Note_on_c, 10, 40, 100
12, 62268, Note_on_c, 10, 40, 0
12, 62280, Note_on_c, 10, 36, 100
12, 62388, Note_on_c, 10, 36, 0
12, 62400, Note_on_c, 10, 38, 100
12, 62508, Note_on_c, 10, 38, 0
12, 62520, Note_on_c, 10, 40, 100
12, 62628, Note_on_c, 10, 40, 0
12, 62640, Note_on_c, 10, 41, 100
12, 62748, Note_on_c, 10, 41, 0
12, 62760, Note_on_c, 10, 43, 100
12, 62868, Note_on_c, 10, 43, 0
12, 62880, Note_on_c, 10, 45, 100
12, 62988, Note_on_c, 10, 45, 0
12, 63000, Note_on_c, 10, 33, 100
12, 63108, Note_on_c, 10, 33, 0
12, 63120, Note_on_c, 10, 36, 100
12, 63228, Note_on_c, 10, 36, 0
12, 63240, Note_on_c, 10, 33, 100
12, 63348, Note_on_c, 10, 33, 0
12, 63360, Note_on_c, 10, 34, 100
12, 63468, Note_on_c, 10, 34, 0
12, 63480, Note_on_c, 10, 36, 100
12, 63588, Note_on_c, 10, 36, 0
12, 63600, Note_on_c, 10, 38, 100
12, 63708, Note_on_c, 10, 38, 0
12, 63720, Note_on_c, 10, 40, 100
12, 63828, Note_on_c, 10, 40, 0
12, 63840, Note_on_c, 10, 41, 100
12, 63948, Note_on_c, 10, 41, 0
12, 63960, Note_on_c, 10, 43, 100
12, 64068, Note_on_c, 10, 43, 0
12, 64080, Note_on_c, 10, 45, 100
12, 64188, Note_on_c, 10, 45, 0
12, 64200, Note_on_c, 10, 41, 100
12, 64308, Note_on_c, 10, 41, 0
12, 64320, Note_on_c, 10, 43, 100
12, 64428, Note_on_c, 10, 43, 0
12, 64440, Note_on_c, 10, 41, 100
12, 64548, Note_on_c, 10, 41, 0
12, 64560, Note_on_c, 10, 40, 100
12, 64668, Note_on_c, 10, 40, 0
12, 64680, Note_on_c, 10, 36, 100
12, 64788, Note_on_c, 10, 36, 0
12, 64800, Note_on_c, 10, 41, 100
12, 64908, Note_on_c, 10, 41, 0
12, 64920, Note_on_c, 10, 43, 100
12, 65028, Note_on_c, 10, 43, 0
12, 65040, Note_on_c, 10, 41, 100
12, 65148, Note_on_c, 10, 41, 0
12, 65160, Note_on_c, 10, 40, 100
12, 65268, Note_on_c, 10, 40, 0
12, 65280, Note_on_c, 10, 38, 100
12, 65388, Note_on_c, 10, 38, 0
12, 65400, Note_on_c, 10, 36, 100
12, 65508, Note_on_c, 10, 36, 0
12, 65520, Note_on_c, 10, 38, 100
12, 65628, Note_on_c, 10, 38, 0
12, 65640, Note_on_c, 10, 34, 100
12, 65748, Note_on_c, 10, 34, 0
12, 65760, Note_on_c, 10, 36, 100
12, 65868, Note_on_c, 10, 36, 0
12, 65880, Note_on_c, 10, 34, 100
12, 65988, Note_on_c, 10, 34, 0
12, 66000, Note_on_c, 10, 33, 100
12, 66108, Note_on_c, 10, 33, 0
12, 66120, Note_on_c, 10, 31, 100
12, 66228, Note_on_c, 10, 31, 0
12, 66240, Note_on_c, 10, 29, 100
12, 66348, Note_on_c, 10, 29, 0
12, 66360, Note_on_c, 10, 41, 100
12, 66468, Note_on_c, 10, 41, 0
12, 66600, Note_on_c, 10, 31, 100
12, 66708, Note_on_c, 10, 31, 0
12, 66720, Note_on_c, 10, 33, 100
12, 66828, Note_on_c, 10, 33, 0
12, 66840, Note_on_c, 10, 45, 100
12, 66948, Note_on_c, 10, 45, 0
12, 67080, Note_on_c, 10, 31, 100
12, 67188, Note_on_c, 10, 31, 0
12, 67200, Note_on_c, 10, 33, 100
12, 67308, Note_on_c, 10, 33, 0
12, 67320, Note_on_c, 10, 29, 100
12, 67428, Note_on_c, 10, 29, 0
12, 67440, Note_on_c, 10, 36, 100
12, 67548, Note_on_c, 10, 36, 0
12, 67560, Note_on_c, 10, 24, 100
12, 67668, Note_on_c, 10, 24, 0
12, 67680, Note_on_c, 10, 29, 100
12, 67788, Note_on_c, 10, 29, 0
12, 67800, Note_on_c, 10, 31, 100
12, 67908, Note_on_c, 10, 31, 0
12, 67920, Note_on_c, 10, 33, 100
12, 68028, Note_on_c, 10, 33, 0
12, 68040, Note_on_c, 10, 29, 100
12, 68148, Note_on_c, 10, 29, 0
12, 68160, Note_on_c, 10, 34, 100
12, 68268, Note_on_c, 10, 34, 0
12, 68280, Note_on_c, 10, 36, 100
12, 68388, Note_on_c, 10, 36, 0
12, 68400, Note_on_c, 10, 38, 100
12, 68508, Note_on_c, 10, 38, 0
12, 68520, Note_on_c, 10, 34, 100
12, 68628, Note_on_c, 10, 34, 0
12, 68640, Note_on_c, 10, 28, 100
12, 68748, Note_on_c, 10, 28, 0
12, 68760, Note_on_c, 10, 29, 100
12, 68868, Note_on_c, 10, 29, 0
12, 68880, Note_on_c, 10, 31, 100
12, 68988, Note_on_c, 10, 31, 0
12, 69000, Note_on_c, 10, 28, 100
12, 69108, Note_on_c, 10, 28, 0
12, 69120, Note_on_c, 10, 33, 100
12, 69228, Note_on_c, 10, 33, 0
12, 69240, Note_on_c, 10, 34, 100
12, 69348, Note_on_c, 10, 34, 0
12, 69360, Note_on_c, 10, 36, 100
12, 69468, Note_on_c, 10, 36, 0
12, 69480, Note_on_c, 10, 33, 100
12, 69588, Note_on_c, 10, 33, 0
12, 69600, Note_on_c, 10, 26, 100
12, 69708, Note_on_c, 10, 26, 0
12, 69720, Note_on_c, 10, 28, 100
12, 69828, Note_on_c, 10, 28, 0
12, 69840, Note_on_c, 10, 29, 100
12, 69948, Note_on_c, 10, 29, 0
12, 69960, Note_on_c, 10, 26, 100
12, 70068, Note_on_c, 10, 26, 0
12, 70080, Note_on_c, 10, 31, 100
12, 70188, Note_on_c, 10, 31, 0
12, 70200, Note_on_c, 10, 33, 100
12, 70308, Note_on_c, 10, 33, 0
12, 70320, Note_on_c, 10, 34, 100
12, 70428, Note_on_c, 10, 34, 0
12, 70440, Note_on_c, 10, 31, 100
12, 70548, Note_on_c, 10, 31, 0
12, 70560, Note_on_c, 10, 36, 100
12, 70668, Note_on_c, 10, 36, 0
12, 70680, Note_on_c, 10, 24, 100
12, 70788, Note_on_c, 10, 24, 0
12, 70920, Note_on_c, 10, 36, 100
12, 71028, Note_on_c, 10, 36, 0
12, 71040, Note_on_c, 10, 36, 100
12, 71148, Note_on_c, 10, 36, 0
12, 71160, Note_on_c, 10, 24, 100
12, 71268, Note_on_c, 10, 24, 0
12, 71400, Note_on_c, 10, 36, 100
12, 71508, Note_on_c, 10, 36, 0
12, 71520, Note_on_c, 10, 36, 100
12, 71628, Note_on_c, 10, 36, 0
12, 71640, Note_on_c, 10, 24, 100
12, 71748, Note_on_c, 10, 24, 0
12, 71880, Note_on_c, 10, 36, 100
12, 71988, Note_on_c, 10, 36, 0
12, 72000, Note_on_c, 10, 29, 100
12, 72108, Note_on_c, 10, 29, 0
12, 72120, Note_on_c, 10, 31, 100
12, 72228, Note_on_c, 10, 31, 0
12, 72240, Note_on_c, 10, 33, 100
12, 72348, Note_on_c, 10, 33, 0
12, 72360, Note_on_c, 10, 29, 100
12, 72468, Note_on_c, 10, 29, 0
12, 72480, Note_on_c, 10, 34, 100
12, 72588, Note_on_c, 10, 34, 0
12, 72600, Note_on_c, 10, 36, 100
12, 72708, Note_on_c, 10, 36, 0
12, 72720, Note_on_c, 10, 38, 100
12, 72828, Note_on_c, 10, 38, 0
12, 72840, Note_on_c, 10, 34, 100
12, 72948, Note_on_c, 10, 34, 0
12, 72960, Note_on_c, 10, 36, 100
12, 73068, Note_on_c, 10, 36, 0
12, 73080, Note_on_c, 10, 38, 100
12, 73188, Note_on_c, 10, 38, 0
12, 73200, Note_on_c, 10, 40, 100
12, 73308, Note_on_c, 10, 40, 0
12, 73320, Note_on_c, 10, 36, 100
12, 73428, Note_on_c, 10, 36, 0
12, 73440, Note_on_c, 10, 41, 100
12, 73548, Note_on_c, 10, 41, 0
12, 73560, Note_on_c, 10, 34, 100
12, 73668, Note_on_c, 10, 34, 0
12, 73680, Note_on_c, 10, 36, 100
12, 73788, Note_on_c, 10, 36, 0
12, 73800, Note_on_c, 10, 24, 100
12, 73908, Note_on_c, 10, 24, 0
12, 73920, Note_on_c, 10, 41, 100
12, 74028, Note_on_c, 10, 41, 0
12, 74040, Note_on_c, 10, 36, 100
12, 74148, Note_on_c, 10, 36, 0
12, 74160, Note_on_c, 10, 41, 100
12, 74268, Note_on_c, 10, 41, 0
12, 74280, Note_on_c, 10, 36, 100
12, 74388, Note_on_c, 10, 36, 0
12, 74400, Note_on_c, 10, 41, 100
12, 74616, Note_on_c, 10, 41, 0
12, 74760, Note_on_c, 10, 33, 100
12, 74868, Note_on_c, 10, 33, 0
12, 74880, Note_on_c, 10, 38, 100
12, 74988, Note_on_c, 10, 38, 0
12, 75000, Note_on_c, 10, 33, 100
12, 75108, Note_on_c, 10, 33, 0
12, 75120, Note_on_c, 10, 38, 100
12, 75228, Note_on_c, 10, 38, 0
12, 75240, Note_on_c, 10, 33, 100
12, 75348, Note_on_c, 10, 33, 0
12, 75360, Note_on_c, 10, 38, 100
12, 75576, Note_on_c, 10, 38, 0
12, 75720, Note_on_c, 10, 38, 100
12, 75828, Note_on_c, 10, 38, 0
12, 75840, Note_on_c, 10, 43, 100
12, 75948, Note_on_c, 10, 43, 0
12, 75960, Note_on_c, 10, 41, 100
12, 76068, Note_on_c, 10, 41, 0
12, 76080, Note_on_c, 10, 40, 100
12, 76188, Note_on_c, 10, 40, 0
12, 76200, Note_on_c, 10, 36, 100
12, 76308, Note_on_c, 10, 36, 0
12, 76320, Note_on_c, 10, 41, 100
12, 76428, Note_on_c, 10, 41, 0
12, 76440, Note_on_c, 10, 40, 100
12, 76548, Note_on_c, 10, 40, 0
12, 76560, Note_on_c, 10, 38, 100
12, 76668, Note_on_c, 10, 38, 0
12, 76680, Note_on_c, 10, 34, 100
12, 76788, Note_on_c, 10, 34, 0
12, 76800, Note_on_c, 10, 40, 100
12, 76908, Note_on_c, 10, 40, 0
12, 76920, Note_on_c, 10, 38, 100
12, 77028, Note_on_c, 10, 38, 0
12, 77040, Note_on_c, 10, 37, 100
12, 77148, Note_on_c, 10, 37, 0
12, 77160, Note_on_c, 10, 33, 100
12, 77268, Note_on_c, 10, 33, 0
12, 77280, Note_on_c, 10, 38, 100
12, 77388, Note_on_c, 10, 38, 0
12, 77400, Note_on_c, 10, 36, 100
12, 77508, Note_on_c, 10, 36, 0
12, 77520, Note_on_c, 10, 35, 100
12, 77628, Note_on_c, 10, 35, 0
12, 77640, Note_on_c, 10, 33, 100
12, 77748, Note_on_c, 10, 33, 0
12, 77760, Note_on_c, 10, 32, 100
12, 77868, Note_on_c, 10, 32, 0
12, 77880, Note_on_c, 10, 28, 100
12, 77988, Note_on_c, 10, 28, 0
12, 78000, Note_on_c, 10, 33, 100
12, 78108, Note_on_c, 10, 33, 0
12, 78120, Note_on_c, 10, 45, 100
12, 78228, Note_on_c, 10, 45, 0
12, 78240, Note_on_c, 10, 38, 100
12, 78348, Note_on_c, 10, 38, 0
12, 78360, Note_on_c, 10, 40, 100
12, 78468, Note_on_c, 10, 40, 0
12, 78480, Note_on_c, 10, 41, 100
12, 78588, Note_on_c, 10, 41, 0
12, 78600, Note_on_c, 10, 38, 100
12, 78708, Note_on_c, 10, 38, 0
12, 78720, Note_on_c, 10, 40, 100
12, 78828, Note_on_c, 10, 40, 0
12, 78840, Note_on_c, 10, 38, 100
12, 78894, Note_on_c, 10, 38, 0
12, 78900, Note_on_c, 10, 36, 100
12, 78954, Note_on_c, 10, 36, 0
12, 78960, Note_on_c, 10, 35, 100
12, 79068, Note_on_c, 10, 35, 0
12, 79080, Note_on_c, 10, 33, 100
12, 79188, Note_on_c, 10, 33, 0
12, 79200, Note_on_c, 10, 32, 100
12, 79308, Note_on_c, 10, 32, 0
12, 79320, Note_on_c, 10, 28, 100
12, 79428, Note_on_c, 10, 28, 0
12, 79440, Note_on_c, 10, 28, 100
12, 79548, Note_on_c, 10, 28, 0
12, 79560, Note_on_c, 10, 28, 100
12, 79668, Note_on_c, 10, 28, 0
12, 79680, Note_on_c, 10, 28, 100
12, 79788, Note_on_c, 10, 28, 0
12, 79800, Note_on_c, 10, 28, 100
12, 79908, Note_on_c, 10, 28, 0
12, 79920, Note_on_c, 10, 28, 100
12, 80028, Note_on_c, 10, 28, 0
12, 80040, Note_on_c, 10, 28, 100
12, 80148, Note_on_c, 10, 28, 0
12, 80160, Note_on_c, 10, 28, 100
12, 80268, Note_on_c, 10, 28, 0
12, 80280, Note_on_c, 10, 28, 100
12, 80388, Note_on_c, 10, 28, 0
12, 80400, Note_on_c, 10, 28, 100
12, 80508, Note_on_c, 10, 28, 0
12, 80520, Note_on_c, 10, 28, 100
12, 80628, Note_on_c, 10, 28, 0
12, 80640, Note_on_c, 10, 33, 100
12, 80748, Note_on_c, 10, 33, 0
12, 80760, Note_on_c, 10, 35, 100
12, 80868, Note_on_c, 10, 35, 0
12, 80880, Note_on_c, 10, 36, 100
12, 80988, Note_on_c, 10, 36, 0
12, 81000, Note_on_c, 10, 33, 100
12, 81108, Note_on_c, 10, 33, 0
12, 81120, Note_on_c, 10, 38, 100
12, 81228, Note_on_c, 10, 38, 0
12, 81240, Note_on_c, 10, 40, 100
12, 81348, Note_on_c, 10, 40, 0
12, 81360, Note_on_c, 10, 42, 100
12, 81468, Note_on_c, 10, 42, 0
12, 81480, Note_on_c, 10, 38, 100
12, 81588, Note_on_c, 10, 38, 0
12, 81600, Note_on_c, 10, 31, 100
12, 81708, Note_on_c, 10, 31, 0
12, 81720, Note_on_c, 10, 33, 100
12, 81828, Note_on_c, 10, 33, 0
12, 81840, Note_on_c, 10, 35, 100
12, 81948, Note_on_c, 10, 35, 0
12, 81960, Note_on_c, 10, 31, 100
12, 82068, Note_on_c, 10, 31, 0
12, 82080, Note_on_c, 10, 36, 100
12, 82188, Note_on_c, 10, 36, 0
12, 82200, Note_on_c, 10, 38, 100
12, 82308, Note_on_c, 10, 38, 0
12, 82320, Note_on_c, 10, 40, 100
12, 82428, Note_on_c, 10, 40, 0
12, 82440, Note_on_c, 10, 36, 100
12, 82548, Note_on_c, 10, 36, 0
12, 82560, Note_on_c, 10, 30, 100
12, 82668, Note_on_c, 10, 30, 0
12, 82680, Note_on_c, 10, 31, 100
12, 82788, Note_on_c, 10, 31, 0
12, 82800, Note_on_c, 10, 33, 100
12, 82908, Note_on_c, 10, 33, 0
12, 82920, Note_on_c, 10, 30, 100
12, 83028, Note_on_c, 10, 30, 0
12, 83040, Note_on_c, 10, 35, 100
12, 83148, Note_on_c, 10, 35, 0
12, 83160, Note_on_c, 10, 47, 100
12, 83268, Note_on_c, 10, 47, 0
12, 83400, Note_on_c, 10, 47, 100
12, 83508, Note_on_c, 10, 47, 0
12, 83520, Note_on_c, 10, 47, 100
12, 83628, Note_on_c, 10, 47, 0
12, 83640, Note_on_c, 10, 35, 100
12, 83748, Note_on_c, 10, 35, 0
12, 83880, Note_on_c, 10, 47, 100
12, 83988, Note_on_c, 10, 47, 0
12, 84000, Note_on_c, 10, 47, 100
12, 84108, Note_on_c, 10, 47, 0
12, 84120, Note_on_c, 10, 35, 100
12, 84228, Note_on_c, 10, 35, 0
12, 84360, Note_on_c, 10, 47, 100
12, 84414, Note_on_c, 10, 47, 0
12, 84420, Note_on_c, 10, 45, 100
12, 84474, Note_on_c, 10, 45, 0
12, 84480, Note_on_c, 10, 44, 100
12, 84534, Note_on_c, 10, 44, 0
12, 84540, Note_on_c, 10, 45, 100
12, 84594, Note_on_c, 10, 45, 0
12, 84600, Note_on_c, 10, 47, 100
12, 84654, Note_on_c, 10, 47, 0
12, 84660, Note_on_c, 10, 44, 100
12, 84714, Note_on_c, 10, 44, 0
12, 84720, Note_on_c, 10, 40, 100
12, 84774, Note_on_c, 10, 40, 0
12, 84780, Note_on_c, 10, 42, 100
12, 84834, Note_on_c, 10, 42, 0
12, 84840, Note_on_c, 10, 44, 100
12, 84894, Note_on_c, 10, 44, 0
12, 84900, Note_on_c, 10, 40, 100
12, 84954, Note_on_c, 10, 40, 0
12, 84960, Note_on_c, 10, 36, 100
12, 85014, Note_on_c, 10, 36, 0
12, 85020, Note_on_c, 10, 38, 100
12, 85074, Note_on_c, 10, 38, 0
12, 85080, Note_on_c, 10, 40, 100
12, 85134, Note_on_c, 10, 40, 0
12, 85140, Note_on_c, 10, 36, 100
12, 85194, Note_on_c, 10, 36, 0
12, 85200, Note_on_c, 10, 33, 100
12, 85254, Note_on_c, 10, 33, 0
12, 85260, Note_on_c, 10, 35, 100
12, 85314, Note_on_c, 10, 35, 0
12, 85320, Note_on_c, 10, 36, 100
12, 85374, Note_on_c, 10, 36, 0
12, 85380, Note_on_c, 10, 33, 100
12, 85434, Note_on_c, 10, 33, 0
12, 85440, Note_on_c, 10, 27, 100
12, 85656, Note_on_c, 10, 27, 0
12, 85800, Note_on_c, 10, 45, 100
12, 85908, Note_on_c, 10, 45, 0
12, 85920, Note_on_c, 10, 43, 100
12, 86028, Note_on_c, 10, 43, 0
12, 86040, Note_on_c, 10, 45, 100
12, 86148, Note_on_c, 10, 45, 0
12, 86160, Note_on_c, 10, 47, 100
12, 86268, Note_on_c, 10, 47, 0
12, 86280, Note_on_c, 10, 35, 100
12, 86388, Note_on_c, 10, 35, 0
12, 86400, Note_on_c, 10, 40, 100
12, 86400, Note_on_c, 10, 40, 100
12, 86454, Note_on_c, 10, 40, 0
12, 86454, Note_on_c, 10, 40, 0
12, 86460, Note_on_c, 10, 47, 100
12, 86514, Note_on_c, 10, 47, 0
12, 86520, Note_on_c, 10, 43, 100
12, 86574, Note_on_c, 10, 43, 0
12, 86580, Note_on_c, 10, 47, 100
12, 86634, Note_on_c, 10, 47, 0
12, 86640, Note_on_c, 10, 40, 100
12, 86694, Note_on_c, 10, 40, 0
12, 86700, Note_on_c, 10, 47, 100
12, 86754, Note_on_c, 10, 47, 0
12, 86760, Note_on_c, 10, 43, 100
12, 86814, Note_on_c, 10, 43, 0
12, 86820, Note_on_c, 10, 47, 100
12, 86874, Note_on_c, 10, 47, 0
12, 86880, Note_on_c, 10, 40, 100
12, 86934, Note_on_c, 10, 40, 0
12, 86940, Note_on_c, 10, 47, 100
12, 86994, Note_on_c, 10, 47, 0
12, 87000, Note_on_c, 10, 43, 100
12, 87054, Note_on_c, 10, 43, 0
12, 87060, Note_on_c, 10, 47, 100
12, 87114, Note_on_c, 10, 47, 0
12, 87120, Note_on_c, 10, 40, 100
12, 87174, Note_on_c, 10, 40, 0
12, 87180, Note_on_c, 10, 47, 100
12, 87234, Note_on_c, 10, 47, 0
12, 87240, Note_on_c, 10, 43, 100
12, 87294, Note_on_c, 10, 43, 0
12, 87300, Note_on_c, 10, 47, 100
12, 87354, Note_on_c, 10, 47, 0
12, 87360, Note_on_c, 10, 37, 100
12, 87360, Note_on_c, 10, 37, 100
12, 87414, Note_on_c, 10, 37, 0
12, 87414, Note_on_c, 10, 37, 0
12, 87420, Note_on_c, 10, 40, 100
12, 87474, Note_on_c, 10, 40, 0
12, 87480, Note_on_c, 10, 45, 100
12, 87534, Note_on_c, 10, 45, 0
12, 87540, Note_on_c, 10, 40, 100
12, 87594, Note_on_c, 10, 40, 0
12, 87600, Note_on_c, 10, 37, 100
12, 87654, Note_on_c, 10, 37, 0
12, 87660, Note_on_c, 10, 40, 100
12, 87714, Note_on_c, 10, 40, 0
12, 87720, Note_on_c, 10, 45, 100
12, 87774, Note_on_c, 10, 45, 0
12, 87780, Note_on_c, 10, 40, 100
12, 87834, Note_on_c, 10, 40, 0
12, 87840, Note_on_c, 10, 37, 100
12, 87894, Note_on_c, 10, 37, 0
12, 87900, Note_on_c, 10, 40, 100
12, 87954, Note_on_c, 10, 40, 0
12, 87960, Note_on_c, 10, 45, 100
12, 88014, Note_on_c, 10, 45, 0
12, 88020, Note_on_c, 10, 40, 100
12, 88074, Note_on_c, 10, 40, 0
12, 88080, Note_on_c, 10, 37, 100
12, 88134, Note_on_c, 10, 37, 0
12, 88140, Note_on_c, 10, 45, 100
12, 88194, Note_on_c, 10, 45, 0
12, 88200, Note_on_c, 10, 43, 100
12, 88254, Note_on_c, 10, 43, 0
12, 88260, Note_on_c, 10, 45, 100
12, 88314, Note_on_c, 10, 45, 0
12, 88320, Note_on_c, 10, 38, 100
12, 88320, Note_on_c, 10, 38, 100
12, 88374, Note_on_c, 10, 38, 0
12, 88374, Note_on_c, 10, 38, 0
12, 88380, Note_on_c, 10, 45, 100
12, 88434, Note_on_c, 10, 45, 0
12, 88440, Note_on_c, 10, 42, 100
12, 88494, Note_on_c, 10, 42, 0
12, 88500, Note_on_c, 10, 45, 100
12, 88554, Note_on_c, 10, 45, 0
12, 88560, Note_on_c, 10, 38, 100
12, 88614, Note_on_c, 10, 38, 0
12, 88620, Note_on_c, 10, 45, 100
12, 88674, Note_on_c, 10, 45, 0
12, 88680, Note_on_c, 10, 42, 100
12, 88734, Note_on_c, 10, 42, 0
12, 88740, Note_on_c, 10, 45, 100
12, 88794, Note_on_c, 10, 45, 0
12, 88800, Note_on_c, 10, 38, 100
12, 88854, Note_on_c, 10, 38, 0
12, 88860, Note_on_c, 10, 45, 100
12, 88914, Note_on_c, 10, 45, 0
12, 88920, Note_on_c, 10, 42, 100
12, 88974, Note_on_c, 10, 42, 0
12, 88980, Note_on_c, 10, 45, 100
12, 89034, Note_on_c, 10, 45, 0
12, 89040, Note_on_c, 10, 38, 100
12, 89094, Note_on_c, 10, 38, 0
12, 89100, Note_on_c, 10, 45, 100
12, 89154, Note_on_c, 10, 45, 0
12, 89160, Note_on_c, 10, 42, 100
12, 89214, Note_on_c, 10, 42, 0
12, 89220, Note_on_c, 10, 45, 100
12, 89274, Note_on_c, 10, 45, 0
12, 89280, Note_on_c, 10, 35, 100
12, 89280, Note_on_c, 10, 35, 100
12, 89334, Note_on_c, 10, 35, 0
12, 89334, Note_on_c, 10, 35, 0
12, 89340, Note_on_c, 10, 38, 100
12, 89394, Note_on_c, 10, 38, 0
12, 89400, Note_on_c, 10, 43, 100
12, 89454, Note_on_c, 10, 43, 0
12, 89460, Note_on_c, 10, 38, 100
12, 89514, Note_on_c, 10, 38, 0
12, 89520, Note_on_c, 10, 35, 100
12, 89574, Note_on_c, 10, 35, 0
12, 89580, Note_on_c, 10, 38, 100
12, 89634, Note_on_c, 10, 38, 0
12, 89640, Note_on_c, 10, 43, 100
12, 89694, Note_on_c, 10, 43, 0
12, 89700, Note_on_c, 10, 38, 100
12, 89754, Note_on_c, 10, 38, 0
12, 89760, Note_on_c, 10, 35, 100
12, 89814, Note_on_c, 10, 35, 0
12, 89820, Note_on_c, 10, 38, 100
12, 89874, Note_on_c, 10, 38, 0
12, 89880, Note_on_c, 10, 43, 100
12, 89934, Note_on_c, 10, 43, 0
12, 89940, Note_on_c, 10, 38, 100
12, 89994, Note_on_c, 10, 38, 0
12, 90000, Note_on_c, 10, 35, 100
12, 90054, Note_on_c, 10, 35, 0
12, 90060, Note_on_c, 10, 43, 100
12, 90114, Note_on_c, 10, 43, 0
12, 90120, Note_on_c, 10, 41, 100
12, 90174, Note_on_c, 10, 41, 0
12, 90180, Note_on_c, 10, 43, 100
12, 90234, Note_on_c, 10, 43, 0
12, 90240, Note_on_c, 10, 36, 100
12, 90240, Note_on_c, 10, 36, 100
12, 90294, Note_on_c, 10, 36, 0
12, 90294, Note_on_c, 10, 36, 0
12, 90300, Note_on_c, 10, 43, 100
12, 90354, Note_on_c, 10, 43, 0
12, 90360, Note_on_c, 10, 40, 100
12, 90414, Note_on_c, 10, 40, 0
12, 90420, Note_on_c, 10, 43, 100
12, 90474, Note_on_c, 10, 43, 0
12, 90480, Note_on_c, 10, 36, 100
12, 90534, Note_on_c, 10, 36, 0
12, 90540, Note_on_c, 10, 43, 100
12, 90594, Note_on_c, 10, 43, 0
12, 90600, Note_on_c, 10, 40, 100
12, 90654, Note_on_c, 10, 40, 0
12, 90660, Note_on_c, 10, 43, 100
12, 90714, Note_on_c, 10, 43, 0
12, 90720, Note_on_c, 10, 36, 100
12, 90774, Note_on_c, 10, 36, 0
12, 90780, Note_on_c, 10, 43, 100
12, 90834, Note_on_c, 10, 43, 0
12, 90840, Note_on_c, 10, 40, 100
12, 90894, Note_on_c, 10, 40, 0
12, 90900, Note_on_c, 10, 43, 100
12, 90954, Note_on_c, 10, 43, 0
12, 90960, Note_on_c, 10, 36, 100
12, 91014, Note_on_c, 10, 36, 0
12, 91020, Note_on_c, 10, 43, 100
12, 91074, Note_on_c, 10, 43, 0
12, 91080, Note_on_c, 10, 40, 100
12, 91134, Note_on_c, 10, 40, 0
12, 91140, Note_on_c, 10, 43, 100
12, 91194, Note_on_c, 10, 43, 0
12, 91200, Note_on_c, 10, 29, 100
12, 91200, Note_on_c, 10, 29, 100
12, 91254, Note_on_c, 10, 29, 0
12, 91254, Note_on_c, 10, 29, 0
12, 91260, Note_on_c, 10, 36, 100
12, 91314, Note_on_c, 10, 36, 0
12, 91320, Note_on_c, 10, 41, 100
12, 91374, Note_on_c, 10, 41, 0
12, 91380, Note_on_c, 10, 36, 100
12, 91434, Note_on_c, 10, 36, 0
12, 91440, Note_on_c, 10, 29, 100
12, 91494, Note_on_c, 10, 29, 0
12, 91500, Note_on_c, 10, 36, 100
12, 91554, Note_on_c, 10, 36, 0
12, 91560, Note_on_c, 10, 41, 100
12, 91614, Note_on_c, 10, 41, 0
12, 91620, Note_on_c, 10, 36, 100
12, 91674, Note_on_c, 10, 36, 0
12, 91680, Note_on_c, 10, 32, 100
12, 91734, Note_on_c, 10, 32, 0
12, 91740, Note_on_c, 10, 36, 100
12, 91794, Note_on_c, 10, 36, 0
12, 91800, Note_on_c, 10, 41, 100
12, 91854, Note_on_c, 10, 41, 0
12, 91860, Note_on_c, 10, 36, 100
12, 91914, Note_on_c, 10, 36, 0
12, 91920, Note_on_c, 10, 33, 100
12, 91920, Note_on_c, 10, 33, 100
12, 91974, Note_on_c, 10, 33, 0
12, 91974, Note_on_c, 10, 33, 0
12, 91980, Note_on_c, 10, 36, 100
12, 92034, Note_on_c, 10, 36, 0
12, 92040, Note_on_c, 10, 42, 100
12, 92094, Note_on_c, 10, 42, 0
12, 92100, Note_on_c, 10, 36, 100
12, 92154, Note_on_c, 10, 36, 0
12, 92160, Note_on_c, 10, 35, 100
12, 92160, Note_on_c, 10, 35, 100
12, 92214, Note_on_c, 10, 35, 0
12, 92214, Note_on_c, 10, 35, 0
12, 92220, Note_on_c, 10, 38, 100
12, 92274, Note_on_c, 10, 38, 0
12, 92280, Note_on_c, 10, 43, 100
12, 92334, Note_on_c, 10, 43, 0
12, 92340, Note_on_c, 10, 38, 100
12, 92394, Note_on_c, 10, 38, 0
12, 92400, Note_on_c, 10, 35, 100
12, 92454, Note_on_c, 10, 35, 0
12, 92460, Note_on_c, 10, 38, 100
12, 92514, Note_on_c, 10, 38, 0
12, 92520, Note_on_c, 10, 43, 100
12, 92574, Note_on_c, 10, 43, 0
12, 92580, Note_on_c, 10, 38, 100
12, 92634, Note_on_c, 10, 38, 0
12, 92640, Note_on_c, 10, 35, 100
12, 92694, Note_on_c, 10, 35, 0
12, 92700, Note_on_c, 10, 38, 100
12, 92754, Note_on_c, 10, 38, 0
12, 92760, Note_on_c, 10, 43, 100
12, 92814, Note_on_c, 10, 43, 0
12, 92820, Note_on_c, 10, 38, 100
12, 92874, Note_on_c, 10, 38, 0
12, 92880, Note_on_c, 10, 31, 100
12, 92880, Note_on_c, 10, 31, 100
12, 92934, Note_on_c, 10, 31, 0
12, 92934, Note_on_c, 10, 31, 0
12, 92940, Note_on_c, 10, 38, 100
12, 92994, Note_on_c, 10, 38, 0
12, 93000, Note_on_c, 10, 43, 100
12, 93054, Note_on_c, 10, 43, 0
12, 93060, Note_on_c, 10, 38, 100
12, 93114, Note_on_c, 10, 38, 0
12, 93120, Note_on_c, 10, 36, 100
12, 93228, Note_on_c, 10, 36, 0
12, 93240, Note_on_c, 10, 31, 100
12, 93348, Note_on_c, 10, 31, 0
12, 93360, Note_on_c, 10, 36, 100
12, 93468, Note_on_c, 10, 36, 0
12, 93480, Note_on_c, 10, 31, 100
12, 93588, Note_on_c, 10, 31, 0
12, 93600, Note_on_c, 10, 36, 100
12, 93708, Note_on_c, 10, 36, 0
12, 93720, Note_on_c, 10, 35, 100
12, 93774, Note_on_c, 10, 35, 0
12, 93780, Note_on_c, 10, 33, 100
12, 93834, Note_on_c, 10, 33, 0
12, 93840, Note_on_c, 10, 31, 100
12, 93948, Note_on_c, 10, 31, 0
12, 93960, Note_on_c, 10, 33, 100
12, 94014, Note_on_c, 10, 33, 0
12, 94020, Note_on_c, 10, 35, 100
12, 94074, Note_on_c, 10, 35, 0
12, 94080, Note_on_c, 10, 36, 100
12, 94188, Note_on_c, 10, 36, 0
12, 94200, Note_on_c, 10, 35, 100
12, 94254, Note_on_c, 10, 35, 0
12, 94260, Note_on_c, 10, 33, 100
12, 94314, Note_on_c, 10, 33, 0
12, 94320, Note_on_c, 10, 31, 100
12, 94428, Note_on_c, 10, 31, 0
12, 94440, Note_on_c, 10, 29, 100
12, 94548, Note_on_c, 10, 29, 0
12, 94560, Note_on_c, 10, 28, 100
12, 94668, Note_on_c, 10, 28, 0
12, 94680, Note_on_c, 10, 28, 100
12, 94788, Note_on_c, 10, 28, 0
12, 94800, Note_on_c, 10, 28, 100
12, 94908, Note_on_c, 10, 28, 0
12, 94920, Note_on_c, 10, 28, 100
12, 95028, Note_on_c, 10, 28, 0
12, 95040, Note_on_c, 10, 29, 100
12, 95148, Note_on_c, 10, 29, 0
12, 95160, Note_on_c, 10, 29, 100
12, 95268, Note_on_c, 10, 29, 0
12, 95280, Note_on_c, 10, 29, 100
12, 95388, Note_on_c, 10, 29, 0
12, 95400, Note_on_c, 10, 29, 100
12, 95508, Note_on_c, 10, 29, 0
12, 95520, Note_on_c, 10, 30, 100
12, 95628, Note_on_c, 10, 30, 0
12, 95640, Note_on_c, 10, 30, 100
12, 95748, Note_on_c, 10, 30, 0
12, 95760, Note_on_c, 10, 30, 100
12, 95868, Note_on_c, 10, 30, 0
12, 95880, Note_on_c, 10, 30, 100
12, 95988, Note_on_c, 10, 30, 0
12, 96000, Note_on_c, 10, 31, 100
12, 96108, Note_on_c, 10, 31, 0
12, 96120, Note_on_c, 10, 31, 100
12, 96228, Note_on_c, 10, 31, 0
12, 96240, Note_on_c, 10, 31, 100
12, 96348, Note_on_c, 10, 31, 0
12, 96360, Note_on_c, 10, 31, 100
12, 96468, Note_on_c, 10, 31, 0
12, 96480, Note_on_c, 10, 32, 100
12, 96588, Note_on_c, 10, 32, 0
12, 96600, Note_on_c, 10, 32, 100
12, 96708, Note_on_c, 10, 32, 0
12, 96720, Note_on_c, 10, 32, 100
12, 96828, Note_on_c, 10, 32, 0
12, 96840, Note_on_c, 10, 32, 100
12, 96948, Note_on_c, 10, 32, 0
12, 96960, Note_on_c, 10, 33, 100
12, 97068, Note_on_c, 10, 33, 0
12, 97080, Note_on_c, 10, 33, 100
12, 97188, Note_on_c, 10, 33, 0
12, 97200, Note_on_c, 10, 33, 100
12, 97308, Note_on_c, 10, 33, 0
12, 97320, Note_on_c, 10, 33, 100
12, 97428, Note_on_c, 10, 33, 0
12, 97440, Note_on_c, 10, 38, 100
12, 97548, Note_on_c, 10, 38, 0
12, 97560, Note_on_c, 10, 26, 100
12, 97668, Note_on_c, 10, 26, 0
12, 97800, Note_on_c, 10, 38, 100
12, 97908, Note_on_c, 10, 38, 0
12, 97920, Note_on_c, 10, 43, 100
12, 98028, Note_on_c, 10, 43, 0
12, 98040, Note_on_c, 10, 31, 100
12, 98148, Note_on_c, 10, 31, 0
12, 98280, Note_on_c, 10, 31, 100
12, 98388, Note_on_c, 10, 31, 0
12, 98400, Note_on_c, 10, 36, 100
12, 98508, Note_on_c, 10, 36, 0
12, 98520, Note_on_c, 10, 24, 100
12, 98628, Note_on_c, 10, 24, 0
12, 98760, Note_on_c, 10, 36, 100
12, 98868, Note_on_c, 10, 36, 0
12, 98880, Note_on_c, 10, 41, 100
12, 98988, Note_on_c, 10, 41, 0
12, 99000, Note_on_c, 10, 29, 100
12, 99108, Note_on_c, 10, 29, 0
12, 99240, Note_on_c, 10, 41, 100
12, 99348, Note_on_c, 10, 41, 0
12, 99360, Note_on_c, 10, 47, 100
12, 99468, Note_on_c, 10, 47, 0
12, 99480, Note_on_c, 10, 35, 100
12, 99588, Note_on_c, 10, 35, 0
12, 99720, Note_on_c, 10, 35, 100
12, 99828, Note_on_c, 10, 35, 0
12, 99840, Note_on_c, 10, 40, 100
12, 99894, Note_on_c, 10, 40, 0
12, 99900, Note_on_c, 10, 28, 100
12, 99954, Note_on_c, 10, 28, 0
12, 99960, Note_on_c, 10, 32, 100
12, 100014, Note_on_c, 10, 32, 0
12, 100020, Note_on_c, 10, 35, 100
12, 100074, Note_on_c, 10, 35, 0
12, 100080, Note_on_c, 10, 40, 100
12, 100134, Note_on_c, 10, 40, 0
12, 100140, Note_on_c, 10, 38, 100
12, 100194, Note_on_c, 10, 38, 0
12, 100200, Note_on_c, 10, 36, 100
12, 100254, Note_on_c, 10, 36, 0
12, 100260, Note_on_c, 10, 35, 100
12, 100314, Note_on_c, 10, 35, 0
12, 100320, Note_on_c, 10, 37, 100
12, 100374, Note_on_c, 10, 37, 0
12, 100380, Note_on_c, 10, 33, 100
12, 100434, Note_on_c, 10, 33, 0
12, 100440, Note_on_c, 10, 37, 100
12, 100494, Note_on_c, 10, 37, 0
12, 100500, Note_on_c, 10, 40, 100
12, 100554, Note_on_c, 10, 40, 0
12, 100560, Note_on_c, 10, 45, 100
12, 100614, Note_on_c, 10, 45, 0
12, 100620, Note_on_c, 10, 43, 100
12, 100674, Note_on_c, 10, 43, 0
12, 100680, Note_on_c, 10, 41, 100
12, 100734, Note_on_c, 10, 41, 0
12, 100740, Note_on_c, 10, 40, 100
12, 100794, Note_on_c, 10, 40, 0
12, 100800, Note_on_c, 10, 38, 100
12, 100854, Note_on_c, 10, 38, 0
12, 100860, Note_on_c, 10, 26, 100
12, 100914, Note_on_c, 10, 26, 0
12, 100920, Note_on_c, 10, 30, 100
12, 100974, Note_on_c, 10, 30, 0
12, 100980, Note_on_c, 10, 33, 100
12, 101034, Note_on_c, 10, 33, 0
12, 101040, Note_on_c, 10, 38, 100
12, 101094, Note_on_c, 10, 38, 0
12, 101100, Note_on_c, 10, 36, 100
12, 101154, Note_on_c, 10, 36, 0
12, 101160, Note_on_c, 10, 35, 100
12, 101214, Note_on_c, 10, 35, 0
12, 101220, Note_on_c, 10, 33, 100
12, 101274, Note_on_c, 10, 33, 0
12, 101280, Note_on_c, 10, 35, 100
12, 101334, Note_on_c, 10, 35, 0
12, 101340, Note_on_c, 10, 31, 100
12, 101394, Note_on_c, 10, 31, 0
12, 101400, Note_on_c, 10, 35, 100
12, 101454, Note_on_c, 10, 35, 0
12, 101460, Note_on_c, 10, 38, 100
12, 101514, Note_on_c, 10, 38, 0
12, 101520, Note_on_c, 10, 43, 100
12, 101574, Note_on_c, 10, 43, 0
12, 101580, Note_on_c, 10, 41, 100
12, 101634, Note_on_c, 10, 41, 0
12, 101640, Note_on_c, 10, 40, 100
12, 101694, Note_on_c, 10, 40, 0
12, 101700, Note_on_c, 10, 38, 100
12, 101754, Note_on_c, 10, 38, 0
12, 101760, Note_on_c, 10, 36, 100
12, 101814, Note_on_c, 10, 36, 0
12, 101820, Note_on_c, 10, 24, 100
12, 101874, Note_on_c, 10, 24, 0
12, 101880, Note_on_c, 10, 28, 100
12, 101934, Note_on_c, 10, 28, 0
12, 101940, Note_on_c, 10, 31, 100
12, 101994, Note_on_c, 10, 31, 0
12, 102000, Note_on_c, 10, 36, 100
12, 102054, Note_on_c, 10, 36, 0
12, 102060, Note_on_c, 10, 34, 100
12, 102114, Note_on_c, 10, 34, 0
12, 102120, Note_on_c, 10, 33, 100
12, 102174, Note_on_c, 10, 33, 0
12, 102180, Note_on_c, 10, 31, 100
12, 102234, Note_on_c, 10, 31, 0
12, 102240, Note_on_c, 10, 30, 100
12, 102456, Note_on_c, 10, 30, 0
12, 103320, Note_on_c, 10, 26, 100
12, 103428, Note_on_c, 10, 26, 0
12, 103440, Note_on_c, 10, 26, 100
12, 103548, Note_on_c, 10, 26, 0
12, 103560, Note_on_c, 10, 26, 100
12, 103668, Note_on_c, 10, 26, 0
12, 103680, Note_on_c, 10, 31, 100
12, 103788, Note_on_c, 10, 31, 0
12, 104760, Note_on_c, 10, 31, 100
12, 104868, Note_on_c, 10, 31, 0
12, 104880, Note_on_c, 10, 31, 100
12, 104988, Note_on_c, 10, 31, 0
12, 105000, Note_on_c, 10, 31, 100
12, 105108, Note_on_c, 10, 31, 0
12, 105120, Note_on_c, 10, 24, 100
12, 105228, Note_on_c, 10, 24, 0
12, 106200, Note_on_c, 10, 24, 100
12, 106308, Note_on_c, 10, 24, 0
12, 106320, Note_on_c, 10, 24, 100
12, 106428, Note_on_c, 10, 24, 0
12, 106440, Note_on_c, 10, 24, 100
12, 106548, Note_on_c, 10, 24, 0
12, 106560, Note_on_c, 10, 29, 100
12, 106668, Note_on_c, 10, 29, 0
12, 106680, Note_on_c, 10, 28, 100
12, 106788, Note_on_c, 10, 28, 0
12, 106800, Note_on_c, 10, 29, 100
12, 106908, Note_on_c, 10, 29, 0
12, 106920, Note_on_c, 10, 26, 100
12, 107028, Note_on_c, 10, 26, 0
12, 107040, Note_on_c, 10, 31, 100
12, 107148, Note_on_c, 10, 31, 0
12, 107160, Note_on_c, 10, 29, 100
12, 107268, Note_on_c, 10, 29, 0
12, 107280, Note_on_c, 10, 31, 100
12, 107388, Note_on_c, 10, 31, 0
12, 107400, Note_on_c, 10, 28, 100
12, 107508, Note_on_c, 10, 28, 0
12, 107520, Note_on_c, 10, 33, 100
12, 107628, Note_on_c, 10, 33, 0
12, 107640, Note_on_c, 10, 31, 100
12, 107748, Note_on_c, 10, 31, 0
12, 107760, Note_on_c, 10, 33, 100
12, 107868, Note_on_c, 10, 33, 0
12, 107880, Note_on_c, 10, 29, 100
12, 107988, Note_on_c, 10, 29, 0
12, 108000, Note_on_c, 10, 35, 100
12, 108108, Note_on_c, 10, 35, 0
12, 108120, Note_on_c, 10, 33, 100
12, 108228, Note_on_c, 10, 33, 0
12, 108240, Note_on_c, 10, 35, 100
12, 108348, Note_on_c, 10, 35, 0
12, 108360, Note_on_c, 10, 31, 100
12, 108468, Note_on_c, 10, 31, 0
12, 108480, Note_on_c, 10, 36, 100
12, 108534, Note_on_c, 10, 36, 0
12, 108540, Note_on_c, 10, 36, 100
12, 108594, Note_on_c, 10, 36, 0
12, 108600, Note_on_c, 10, 40, 100
12, 108654, Note_on_c, 10, 40, 0
12, 108660, Note_on_c, 10, 43, 100
12, 108714, Note_on_c, 10, 43, 0
12, 108720, Note_on_c, 10, 48, 100
12, 108774, Note_on_c, 10, 48, 0
12, 108780, Note_on_c, 10, 46, 100
12, 108834, Note_on_c, 10, 46, 0
12, 108840, Note_on_c, 10, 45, 100
12, 108894, Note_on_c, 10, 45, 0
12, 108900, Note_on_c, 10, 43, 100
12, 108954, Note_on_c, 10, 43, 0
12, 108960, Note_on_c, 10, 45, 100
12, 109014, Note_on_c, 10, 45, 0
12, 109020, Note_on_c, 10, 43, 100
12, 109074, Note_on_c, 10, 43, 0
12, 109080, Note_on_c, 10, 41, 100
12, 109134, Note_on_c, 10, 41, 0
12, 109140, Note_on_c, 10, 40, 100
12, 109194, Note_on_c, 10, 40, 0
12, 109200, Note_on_c, 10, 41, 100
12, 109254, Note_on_c, 10, 41, 0
12, 109260, Note_on_c, 10, 40, 100
12, 109314, Note_on_c, 10, 40, 0
12, 109320, Note_on_c, 10, 38, 100
12, 109374, Note_on_c, 10, 38, 0
12, 109380, Note_on_c, 10, 36, 100
12, 109434, Note_on_c, 10, 36, 0
12, 109440, Note_on_c, 10, 43, 100
12, 109548, Note_on_c, 10, 43, 0
12, 109560, Note_on_c, 10, 31, 100
12, 109668, Note_on_c, 10, 31, 0
12, 109800, Note_on_c, 10, 43, 100
12, 109908, Note_on_c, 10, 43, 0
12, 109920, Note_on_c, 10, 43, 100
12, 110028, Note_on_c, 10, 43, 0
12, 110040, Note_on_c, 10, 31, 100
12, 110148, Note_on_c, 10, 31, 0
12, 110280, Note_on_c, 10, 43, 100
12, 110388, Note_on_c, 10, 43, 0
12, 110400, Note_on_c, 10, 43, 100
12, 110508, Note_on_c, 10, 43, 0
12, 110520, Note_on_c, 10, 31, 100
12, 110628, Note_on_c, 10, 31, 0
12, 110760, Note_on_c, 10, 43, 100
12, 110868, Note_on_c, 10, 43, 0
12, 110880, Note_on_c, 10, 43, 100
12, 110988, Note_on_c, 10, 43, 0
12, 111000, Note_on_c, 10, 31, 100
12, 111108, Note_on_c, 10, 31, 0
12, 111240, Note_on_c, 10, 43, 100
12, 111348, Note_on_c, 10, 43, 0
12, 111360, Note_on_c, 10, 43, 100
12, 111468, Note_on_c, 10, 43, 0
12, 111480, Note_on_c, 10, 31, 100
12, 111588, Note_on_c, 10, 31, 0
12, 111720, Note_on_c, 10, 43, 100
12, 111828, Note_on_c, 10, 43, 0
12, 111840, Note_on_c, 10, 43, 100
12, 111948, Note_on_c, 10, 43, 0
12, 111960, Note_on_c, 10, 31, 100
12, 112068, Note_on_c, 10, 31, 0
12, 112200, Note_on_c, 10, 43, 100
12, 112308, Note_on_c, 10, 43, 0
12, 112320, Note_on_c, 10, 43, 100
12, 112428, Note_on_c, 10, 43, 0
12, 112440, Note_on_c, 10, 31, 100
12, 112548, Note_on_c, 10, 31, 0
12, 112680, Note_on_c, 10, 43, 100
12, 112788, Note_on_c, 10, 43, 0
12, 112800, Note_on_c, 10, 43, 100
12, 112908, Note_on_c, 10, 43, 0
12, 112920, Note_on_c, 10, 31, 100
12, 113028, Note_on_c, 10, 31, 0
12, 113160, Note_on_c, 10, 43, 100
12, 113268, Note_on_c, 10, 43, 0
12, 113280, Note_on_c, 10, 43, 100
12, 113388, Note_on_c, 10, 43, 0
12, 113400, Note_on_c, 10, 31, 100
12, 113508, Note_on_c, 10, 31, 0
12, 113640, Note_on_c, 10, 43, 100
12, 113748, Note_on_c, 10, 43, 0
12, 113760, Note_on_c, 10, 43, 100
12, 113868, Note_on_c, 10, 43, 0
12, 113880, Note_on_c, 10, 31, 100
12, 113988, Note_on_c, 10, 31, 0
12, 114120, Note_on_c, 10, 43, 100
12, 114228, Note_on_c, 10, 43, 0
12, 114240, Note_on_c, 10, 43, 100
12, 114348, Note_on_c, 10, 43, 0
12, 114480, Note_on_c, 10, 40, 100
12, 114588, Note_on_c, 10, 40, 0
12, 114720, Note_on_c, 10, 37, 100
12, 114828, Note_on_c, 10, 37, 0
12, 114960, Note_on_c, 10, 33, 100
12, 115068, Note_on_c, 10, 33, 0
12, 115200, Note_on_c, 10, 41, 100
12, 115308, Note_on_c, 10, 41, 0
12, 115440, Note_on_c, 10, 38, 100
12, 115548, Note_on_c, 10, 38, 0
12, 115680, Note_on_c, 10, 35, 100
12, 115788, Note_on_c, 10, 35, 0
12, 115920, Note_on_c, 10, 31, 100
12, 116028, Note_on_c, 10, 31, 0
12, 116160, Note_on_c, 10, 40, 100
12, 116268, Note_on_c, 10, 40, 0
12, 116400, Note_on_c, 10, 36, 100
12, 116508, Note_on_c, 10, 36, 0
12, 116640, Note_on_c, 10, 33, 100
12, 116748, Note_on_c, 10, 33, 0
12, 116880, Note_on_c, 10, 30, 100
12, 116988, Note_on_c, 10, 30, 0
12, 117120, Note_on_c, 10, 31, 100
12, 117228, Note_on_c, 10, 31, 0
12, 117360, Note_on_c, 10, 36, 100
12, 117468, Note_on_c, 10, 36, 0
12, 117600, Note_on_c, 10, 29, 100
12, 117708, Note_on_c, 10, 29, 0
12, 117840, Note_on_c, 10, 35, 100
12, 117948, Note_on_c, 10, 35, 0
12, 118080, Note_on_c, 10, 28, 100
12, 118188, Note_on_c, 10, 28, 0
12, 118320, Note_on_c, 10, 33, 100
12, 118428, Note_on_c, 10, 33, 0
12, 118560, Note_on_c, 10, 26, 100
12, 118668, Note_on_c, 10, 26, 0
12, 118800, Note_on_c, 10, 31, 100
12, 118908, Note_on_c, 10, 31, 0
12, 119040, Note_on_c, 10, 24, 100
12, 119148, Note_on_c, 10, 24, 0
12, 119160, Note_on_c, 10, 36, 100
12, 119268, Note_on_c, 10, 36, 0
12, 119400, Note_on_c, 10, 24, 100
12, 119508, Note_on_c, 10, 24, 0
12, 119520, Note_on_c, 10, 29, 100
12, 119628, Note_on_c, 10, 29, 0
12, 119640, Note_on_c, 10, 41, 100
12, 119748, Note_on_c, 10, 41, 0
12, 119880, Note_on_c, 10, 26, 100
12, 119988, Note_on_c, 10, 26, 0
12, 120000, Note_on_c, 10, 31, 100
12, 120108, Note_on_c, 10, 31, 0
12, 120120, Note_on_c, 10, 43, 100
12, 120228, Note_on_c, 10, 43, 0
12, 120360, Note_on_c, 10, 28, 100
12, 120468, Note_on_c, 10, 28, 0
12, 120480, Note_on_c, 10, 33, 100
12, 120588, Note_on_c, 10, 33, 0
12, 120600, Note_on_c, 10, 45, 100
12, 120708, Note_on_c, 10, 45, 0
12, 120840, Note_on_c, 10, 41, 100
12, 120948, Note_on_c, 10, 41, 0
12, 120960, Note_on_c, 10, 35, 100
12, 121068, Note_on_c, 10, 35, 0
12, 121080, Note_on_c, 10, 47, 100
12, 121188, Note_on_c, 10, 47, 0
12, 121320, Note_on_c, 10, 31, 100
12, 121428, Note_on_c, 10, 31, 0
12, 121440, Note_on_c, 10, 36, 100
12, 121548, Note_on_c, 10, 36, 0
12, 121560, Note_on_c, 10, 38, 100
12, 121668, Note_on_c, 10, 38, 0
12, 121680, Note_on_c, 10, 40, 100
12, 121788, Note_on_c, 10, 40, 0
12, 121800, Note_on_c, 10, 41, 100
12, 121908, Note_on_c, 10, 41, 0
12, 121920, Note_on_c, 10, 43, 100
12, 122028, Note_on_c, 10, 43, 0
12, 122040, Note_on_c, 10, 45, 100
12, 122148, Note_on_c, 10, 45, 0
12, 122160, Note_on_c, 10, 47, 100
12, 122268, Note_on_c, 10, 47, 0
12, 122280, Note_on_c, 10, 43, 100
12, 122388, Note_on_c, 10, 43, 0
12, 122400, Note_on_c, 10, 48, 100
12, 122508, Note_on_c, 10, 48, 0
12, 122520, Note_on_c, 10, 40, 100
12, 122628, Note_on_c, 10, 40, 0
12, 122640, Note_on_c, 10, 48, 100
12, 122748, Note_on_c, 10, 48, 0
12, 122760, Note_on_c, 10, 40, 100
12, 122868, Note_on_c, 10, 40, 0
12, 122880, Note_on_c, 10, 41, 100
12, 123096, Note_on_c, 10, 41, 0
12, 123360, Note_on_c, 10, 47, 100
12, 123468, Note_on_c, 10, 47, 0
12, 123480, Note_on_c, 10, 38, 100
12, 123588, Note_on_c, 10, 38, 0
12, 123600, Note_on_c, 10, 47, 100
12, 123708, Note_on_c, 10, 47, 0
12, 123720, Note_on_c, 10, 38, 100
12, 123828, Note_on_c, 10, 38, 0
12, 123840, Note_on_c, 10, 40, 100
12, 124056, Note_on_c, 10, 40, 0
12, 124320, Note_on_c, 10, 45, 100
12, 124428, Note_on_c, 10, 45, 0
12, 124440, Note_on_c, 10, 36, 100
12, 124548, Note_on_c, 10, 36, 0
12, 124560, Note_on_c, 10, 45, 100
12, 124668, Note_on_c, 10, 45, 0
12, 124680, Note_on_c, 10, 36, 100
12, 124788, Note_on_c, 10, 36, 0
12, 124800, Note_on_c, 10, 38, 100
12, 125016, Note_on_c, 10, 38, 0
12, 125280, Note_on_c, 10, 43, 100
12, 125388, Note_on_c, 10, 43, 0
12, 125400, Note_on_c, 10, 31, 100
12, 125508, Note_on_c, 10, 31, 0
12, 125520, Note_on_c, 10, 35, 100
12, 125628, Note_on_c, 10, 35, 0
12, 125640, Note_on_c, 10, 31, 100
12, 125748, Note_on_c, 10, 31, 0
12, 125760, Note_on_c, 10, 36, 100
12, 125868, Note_on_c, 10, 36, 0
12, 125880, Note_on_c, 10, 38, 100
12, 125988, Note_on_c, 10, 38, 0
12, 126000, Note_on_c, 10, 40, 100
12, 126108, Note_on_c, 10, 40, 0
12, 126120, Note_on_c, 10, 38, 100
12, 126228, Note_on_c, 10, 38, 0
12, 126240, Note_on_c, 10, 40, 100
12, 126348, Note_on_c, 10, 40, 0
12, 126360, Note_on_c, 10, 41, 100
12, 126468, Note_on_c, 10, 41, 0
12, 126480, Note_on_c, 10, 43, 100
12, 126588, Note_on_c, 10, 43, 0
12, 126600, Note_on_c, 10, 31, 100
12, 126708, Note_on_c, 10, 31, 0
12, 126720, Note_on_c, 10, 48, 100
12, 126828, Note_on_c, 10, 48, 0
12, 126960, Note_on_c, 10, 47, 100
12, 127068, Note_on_c, 10, 47, 0
12, 127200, Note_on_c, 10, 45, 100
12, 127308, Note_on_c, 10, 45, 0
12, 127440, Note_on_c, 10, 40, 100
12, 127548, Note_on_c, 10, 40, 0
12, 127800, Note_on_c, 10, 41, 100
12, 127908, Note_on_c, 10, 41, 0
12, 127920, Note_on_c, 10, 43, 100
12, 128028, Note_on_c, 10, 43, 0
12, 128040, Note_on_c, 10, 31, 100
12, 128148, Note_on_c, 10, 31, 0
12, 128160, Note_on_c, 10, 36, 100
12, 128268, Note_on_c, 10, 36, 0
12, 128280, Note_on_c, 10, 48, 100
12, 128388, Note_on_c, 10, 48, 0
12, 128400, Note_on_c, 10, 47, 100
12, 128508, Note_on_c, 10, 47, 0
12, 128520, Note_on_c, 10, 45, 100
12, 128628, Note_on_c, 10, 45, 0
12, 128640, Note_on_c, 10, 43, 100
12, 128748, Note_on_c, 10, 43, 0
12, 128880, Note_on_c, 10, 42, 100
12, 128988, Note_on_c, 10, 42, 0
12, 129120, Note_on_c, 10, 40, 100
12, 129228, Note_on_c, 10, 40, 0
12, 129360, Note_on_c, 10, 35, 100
12, 129468, Note_on_c, 10, 35, 0
12, 129720, Note_on_c, 10, 36, 100
12, 129828, Note_on_c, 10, 36, 0
12, 129840, Note_on_c, 10, 38, 100
12, 129948, Note_on_c, 10, 38, 0
12, 129960, Note_on_c, 10, 26, 100
12, 130068, Note_on_c, 10, 26, 0
12, 130080, Note_on_c, 10, 31, 100
12, 130188, Note_on_c, 10, 31, 0
12, 130200, Note_on_c, 10, 43, 100
12, 130308, Note_on_c, 10, 43, 0
12, 130320, Note_on_c, 10, 47, 100
12, 130428, Note_on_c, 10, 47, 0
12, 130440, Note_on_c, 10, 43, 100
12, 130548, Note_on_c, 10, 43, 0
12, 130560, Note_on_c, 10, 31, 100
12, 130668, Note_on_c, 10, 31, 0
12, 130680, Note_on_c, 10, 43, 100
12, 130788, Note_on_c, 10, 43, 0
12, 130800, Note_on_c, 10, 48, 100
12, 130908, Note_on_c, 10, 48, 0
12, 130920, Note_on_c, 10, 43, 100
12, 131028, Note_on_c, 10, 43, 0
12, 131040, Note_on_c, 10, 31, 100
12, 131148, Note_on_c, 10, 31, 0
12, 131160, Note_on_c, 10, 43, 100
12, 131268, Note_on_c, 10, 43, 0
12, 131280, Note_on_c, 10, 50, 100
12, 131388, Note_on_c, 10, 50, 0
12, 131400, Note_on_c, 10, 41, 100
12, 131508, Note_on_c, 10, 41, 0
12, 131520, Note_on_c, 10, 40, 100
12, 131628, Note_on_c, 10, 40, 0
12, 131640, Note_on_c, 10, 52, 100
12, 131748, Note_on_c, 10, 52, 0
12, 131760, Note_on_c, 10, 48, 100
12, 131868, Note_on_c, 10, 48, 0
12, 131880, Note_on_c, 10, 45, 100
12, 131988, Note_on_c, 10, 45, 0
12, 132000, Note_on_c, 10, 38, 100
12, 132108, Note_on_c, 10, 38, 0
12, 132120, Note_on_c, 10, 50, 100
12, 132228, Note_on_c, 10, 50, 0
12, 132240, Note_on_c, 10, 47, 100
12, 132348, Note_on_c, 10, 47, 0
12, 132360, Note_on_c, 10, 43, 100
12, 132468, Note_on_c, 10, 43, 0
12, 132480, Note_on_c, 10, 48, 100
12, 132588, Note_on_c, 10, 48, 0
12, 132600, Note_on_c, 10, 47, 100
12, 132708, Note_on_c, 10, 47, 0
12, 132720, Note_on_c, 10, 45, 100
12, 132828, Note_on_c, 10, 45, 0
12, 132840, Note_on_c, 10, 43, 100
12, 132948, Note_on_c, 10, 43, 0
12, 132960, Note_on_c, 10, 41, 100
12, 133068, Note_on_c, 10, 41, 0
12, 133080, Note_on_c, 10, 40, 100
12, 133188, Note_on_c, 10, 40, 0
12, 133200, Note_on_c, 10, 38, 100
12, 133308, Note_on_c, 10, 38, 0
12, 133320, Note_on_c, 10, 36, 100
12, 133428, Note_on_c, 10, 36, 0
12, 133440, Note_on_c, 10, 35, 100
12, 133548, Note_on_c, 10, 35, 0
12, 133560, Note_on_c, 10, 33, 100
12, 133668, Note_on_c, 10, 33, 0
12, 133680, Note_on_c, 10, 31, 100
12, 133788, Note_on_c, 10, 31, 0
12, 133800, Note_on_c, 10, 29, 100
12, 133908, Note_on_c, 10, 29, 0
12, 133920, Note_on_c, 10, 28, 100
12, 133974, Note_on_c, 10, 28, 0
12, 133980, Note_on_c, 10, 38, 100
12, 134034, Note_on_c, 10, 38, 0
12, 134040, Note_on_c, 10, 40, 100
12, 134094, Note_on_c, 10, 40, 0
12, 134100, Note_on_c, 10, 41, 100
12, 134154, Note_on_c, 10, 41, 0
12, 134160, Note_on_c, 10, 43, 100
12, 134268, Note_on_c, 10, 43, 0
12, 134280, Note_on_c, 10, 31, 100
12, 134388, Note_on_c, 10, 31, 0
12, 134400, Note_on_c, 10, 36, 100
12, 134616, Note_on_c, 10, 36, 0
12, 134616, End_track
13, 0, Start_track
13, 0, End_track
0, 0, End_of_file
