0, 0, Header, 1, 5, 1024
1, 0, Start_track
1, 0, Time_signature, 4, 2, 24, 8
1, 0, Key_signature, 0, "major"
1, 0, Tempo, 1000000
1, 172032, End_track
2, 0, Start_track
2, 0, Title_t, "Instrument 1"
2, 512, Note_on_c, 0, 60, 96
2, 1024, Note_off_c, 0, 60, 0
2, 1024, Note_on_c, 0, 64, 96
2, 1536, Note_off_c, 0, 64, 0
2, 1536, Note_on_c, 0, 69, 96
2, 2560, Note_off_c, 0, 69, 0
2, 2560, Note_on_c, 0, 67, 96
2, 3584, Note_off_c, 0, 67, 0
2, 3584, Note_on_c, 0, 66, 96
2, 3840, Note_off_c, 0, 66, 0
2, 3840, Note_on_c, 0, 64, 96
2, 4096, Note_off_c, 0, 64, 0
2, 4096, Note_on_c, 0, 66, 96
2, 4224, Note_off_c, 0, 66, 0
2, 4224, Note_on_c, 0, 67, 96
2, 4352, Note_off_c, 0, 67, 0
2, 4352, Note_on_c, 0, 69, 96
2, 4480, Note_off_c, 0, 69, 0
2, 4480, Note_on_c, 0, 71, 96
2, 4608, Note_off_c, 0, 71, 0
2, 4608, Note_on_c, 0, 72, 96
2, 5632, Note_off_c, 0, 72, 0
2, 5632, Note_on_c, 0, 71, 96
2, 5888, Note_off_c, 0, 71, 0
2, 5888, Note_on_c, 0, 69, 96
2, 6144, Note_off_c, 0, 69, 0
2, 6144, Note_on_c, 0, 71, 96
2, 6400, Note_off_c, 0, 71, 0
2, 6400, Note_on_c, 0, 67, 96
2, 6656, Note_off_c, 0, 67, 0
2, 6656, Note_on_c, 0, 64, 96
2, 7680, Note_off_c, 0, 64, 0
2, 7680, Note_on_c, 0, 62, 96
2, 7936, Note_off_c, 0, 62, 0
2, 7936, Note_on_c, 0, 60, 96
2, 8192, Note_off_c, 0, 60, 0
2, 8192, Note_on_c, 0, 62, 96
2, 8704, Note_off_c, 0, 62, 0
2, 9472, Note_on_c, 0, 62, 96
2, 9728, Note_off_c, 0, 62, 0
2, 9728, Note_on_c, 0, 64, 96
2, 9984, Note_off_c, 0, 64, 0
2, 9984, Note_on_c, 0, 66, 96
2, 10240, Note_off_c, 0, 66, 0
2, 10240, Note_on_c, 0, 67, 96
2, 10496, Note_off_c, 0, 67, 0
2, 10496, Note_on_c, 0, 62, 96
2, 10752, Note_off_c, 0, 62, 0
2, 10752, Note_on_c, 0, 67, 96
2, 11520, Note_off_c, 0, 67, 0
2, 11520, Note_on_c, 0, 69, 96
2, 11648, Note_off_c, 0, 69, 0
2, 11648, Note_on_c, 0, 67, 96
2, 11776, Note_off_c, 0, 67, 0
2, 11776, Note_on_c, 0, 65, 96
2, 12032, Note_off_c, 0, 65, 0
2, 12032, Note_on_c, 0, 64, 96
2, 12288, Note_off_c, 0, 64, 0
2, 12288, Note_on_c, 0, 62, 96
2, 12544, Note_off_c, 0, 62, 0
2, 12544, Note_on_c, 0, 60, 96
2, 12800, Note_off_c, 0, 60, 0
2, 12800, Note_on_c, 0, 62, 96
2, 13056, Note_off_c, 0, 62, 0
2, 13056, Note_on_c, 0, 64, 96
2, 13312, Note_off_c, 0, 64, 0
2, 13312, Note_on_c, 0, 62, 96
2, 13568, Note_off_c, 0, 62, 0
2, 13568, Note_on_c, 0, 65, 96
2, 13824, Note_off_c, 0, 65, 0
2, 13824, Note_on_c, 0, 64, 96
2, 14080, Note_off_c, 0, 64, 0
2, 14080, Note_on_c, 0, 62, 96
2, 14336, Note_off_c, 0, 62, 0
2, 14336, Note_on_c, 0, 60, 96
2, 14592, Note_off_c, 0, 60, 0
2, 14592, Note_on_c, 0, 64, 96
2, 14848, Note_off_c, 0, 64, 0
2, 14848, Note_on_c, 0, 66, 96
2, 15104, Note_off_c, 0, 66, 0
2, 15104, Note_on_c, 0, 67, 96
2, 15360, Note_off_c, 0, 67, 0
2, 15360, Note_on_c, 0, 69, 96
2, 15616, Note_off_c, 0, 69, 0
2, 15616, Note_on_c, 0, 64, 96
2, 15872, Note_off_c, 0, 64, 0
2, 15872, Note_on_c, 0, 69, 96
2, 16640, Note_off_c, 0, 69, 0
2, 16640, Note_on_c, 0, 62, 96
2, 16896, Note_off_c, 0, 62, 0
2, 16896, Note_on_c, 0, 64, 96
2, 17152, Note_off_c, 0, 64, 0
2, 17152, Note_on_c, 0, 66, 96
2, 17408, Note_off_c, 0, 66, 0
2, 17408, Note_on_c, 0, 67, 96
2, 17664, Note_off_c, 0, 67, 0
2, 17664, Note_on_c, 0, 62, 96
2, 17920, Note_off_c, 0, 62, 0
2, 17920, Note_on_c, 0, 67, 96
2, 18688, Note_off_c, 0, 67, 0
2, 18688, Note_on_c, 0, 65, 96
2, 18816, Note_off_c, 0, 65, 0
2, 18816, Note_on_c, 0, 64, 96
2, 18944, Note_off_c, 0, 64, 0
2, 18944, Note_on_c, 0, 65, 96
2, 19200, Note_off_c, 0, 65, 0
2, 19200, Note_on_c, 0, 62, 96
2, 19456, Note_off_c, 0, 62, 0
2, 19456, Note_on_c, 0, 67, 96
2, 19712, Note_off_c, 0, 67, 0
2, 19712, Note_on_c, 0, 62, 96
2, 19968, Note_off_c, 0, 62, 0
2, 19968, Note_on_c, 0, 69, 96
2, 20736, Note_off_c, 0, 69, 0
2, 20736, Note_on_c, 0, 67, 96
2, 20992, Note_off_c, 0, 67, 0
2, 20992, Note_on_c, 0, 69, 96
2, 21248, Note_off_c, 0, 69, 0
2, 21248, Note_on_c, 0, 66, 96
2, 21504, Note_off_c, 0, 66, 0
2, 21504, Note_on_c, 0, 67, 96
2, 21760, Note_off_c, 0, 67, 0
2, 21760, Note_on_c, 0, 62, 96
2, 22016, Note_off_c, 0, 62, 0
2, 22016, Note_on_c, 0, 65, 96
2, 22272, Note_off_c, 0, 65, 0
2, 22272, Note_on_c, 0, 64, 96
2, 22528, Note_off_c, 0, 64, 0
2, 22528, Note_on_c, 0, 65, 96
2, 22656, Note_off_c, 0, 65, 0
2, 22656, Note_on_c, 0, 64, 96
2, 22784, Note_off_c, 0, 64, 0
2, 22784, Note_on_c, 0, 62, 96
2, 23040, Note_off_c, 0, 62, 0
2, 23040, Note_on_c, 0, 71, 96
2, 23808, Note_off_c, 0, 71, 0
2, 23808, Note_on_c, 0, 67, 96
2, 24064, Note_off_c, 0, 67, 0
2, 24064, Note_on_c, 0, 72, 96
2, 24320, Note_off_c, 0, 72, 0
2, 24320, Note_on_c, 0, 64, 96
2, 24576, Note_off_c, 0, 64, 0
2, 24576, Note_on_c, 0, 65, 96
2, 24832, Note_off_c, 0, 65, 0
2, 24832, Note_on_c, 0, 67, 96
2, 25088, Note_off_c, 0, 67, 0
2, 25088, Note_on_c, 0, 69, 96
2, 25344, Note_off_c, 0, 69, 0
2, 25344, Note_on_c, 0, 67, 96
2, 25600, Note_off_c, 0, 67, 0
2, 25600, Note_on_c, 0, 65, 96
2, 25856, Note_off_c, 0, 65, 0
2, 25856, Note_on_c, 0, 64, 96
2, 26112, Note_off_c, 0, 64, 0
2, 26112, Note_on_c, 0, 62, 96
2, 26368, Note_off_c, 0, 62, 0
2, 26368, Note_on_c, 0, 60, 96
2, 26624, Note_off_c, 0, 60, 0
2, 26624, Note_on_c, 0, 62, 96
2, 26880, Note_off_c, 0, 62, 0
2, 26880, Note_on_c, 0, 60, 96
2, 27136, Note_off_c, 0, 60, 0
2, 27136, Note_on_c, 0, 59, 96
2, 27392, Note_off_c, 0, 59, 0
2, 27392, Note_on_c, 0, 60, 96
2, 27648, Note_off_c, 0, 60, 0
2, 27648, Note_on_c, 0, 62, 96
2, 27904, Note_off_c, 0, 62, 0
2, 27904, Note_on_c, 0, 64, 96
2, 28160, Note_off_c, 0, 64, 0
2, 28160, Note_on_c, 0, 65, 96
2, 28416, Note_off_c, 0, 65, 0
2, 28416, Note_on_c, 0, 62, 96
2, 28672, Note_off_c, 0, 62, 0
2, 28672, Note_on_c, 0, 64, 96
2, 28928, Note_off_c, 0, 64, 0
2, 28928, Note_on_c, 0, 65, 96
2, 29184, Note_off_c, 0, 65, 0
2, 29184, Note_on_c, 0, 67, 96
2, 29440, Note_off_c, 0, 67, 0
2, 29440, Note_on_c, 0, 65, 96
2, 29696, Note_off_c, 0, 65, 0
2, 29696, Note_on_c, 0, 64, 96
2, 29952, Note_off_c, 0, 64, 0
2, 29952, Note_on_c, 0, 62, 96
2, 30208, Note_off_c, 0, 62, 0
2, 30208, Note_on_c, 0, 60, 96
2, 30464, Note_off_c, 0, 60, 0
2, 30464, Note_on_c, 0, 59, 96
2, 30720, Note_off_c, 0, 59, 0
2, 30720, Note_on_c, 0, 60, 96
2, 30976, Note_off_c, 0, 60, 0
2, 30976, Note_on_c, 0, 59, 96
2, 31232, Note_off_c, 0, 59, 0
2, 31232, Note_on_c, 0, 57, 96
2, 31488, Note_off_c, 0, 57, 0
2, 31488, Note_on_c, 0, 59, 96
2, 31744, Note_off_c, 0, 59, 0
2, 31744, Note_on_c, 0, 60, 96
2, 32000, Note_off_c, 0, 60, 0
2, 32000, Note_on_c, 0, 64, 96
2, 32256, Note_off_c, 0, 64, 0
2, 32256, Note_on_c, 0, 62, 96
2, 32512, Note_off_c, 0, 62, 0
2, 32512, Note_on_c, 0, 60, 96
2, 32768, Note_off_c, 0, 60, 0
2, 32768, Note_on_c, 0, 59, 96
2, 33024, Note_off_c, 0, 59, 0
2, 33024, Note_on_c, 0, 60, 96
2, 33280, Note_off_c, 0, 60, 0
2, 33280, Note_on_c, 0, 62, 96
2, 34048, Note_off_c, 0, 62, 0
2, 34048, Note_on_c, 0, 60, 96
2, 34304, Note_off_c, 0, 60, 0
2, 34304, Note_on_c, 0, 59, 96
2, 34560, Note_off_c, 0, 59, 0
2, 34560, Note_on_c, 0, 57, 96
2, 34816, Note_off_c, 0, 57, 0
2, 34816, Note_on_c, 0, 59, 96
2, 34944, Note_off_c, 0, 59, 0
2, 34944, Note_on_c, 0, 57, 96
2, 35072, Note_off_c, 0, 57, 0
2, 35072, Note_on_c, 0, 55, 96
2, 35200, Note_off_c, 0, 55, 0
2, 35200, Note_on_c, 0, 57, 96
2, 35328, Note_off_c, 0, 57, 0
2, 35328, Note_on_c, 0, 59, 96
2, 36096, Note_off_c, 0, 59, 0
2, 36096, Note_on_c, 0, 55, 96
2, 36352, Note_off_c, 0, 55, 0
2, 36352, Note_on_c, 0, 57, 96
2, 36608, Note_off_c, 0, 57, 0
2, 36608, Note_on_c, 0, 59, 96
2, 36864, Note_off_c, 0, 59, 0
2, 36864, Note_on_c, 0, 60, 96
2, 37120, Note_off_c, 0, 60, 0
2, 37120, Note_on_c, 0, 59, 96
2, 37376, Note_off_c, 0, 59, 0
2, 37376, Note_on_c, 0, 60, 96
2, 38144, Note_off_c, 0, 60, 0
2, 38144, Note_on_c, 0, 57, 96
2, 38400, Note_off_c, 0, 57, 0
2, 38400, Note_on_c, 0, 62, 96
2, 38656, Note_off_c, 0, 62, 0
2, 38656, Note_on_c, 0, 60, 96
2, 38912, Note_off_c, 0, 60, 0
2, 38912, Note_on_c, 0, 59, 96
2, 39168, Note_off_c, 0, 59, 0
2, 39168, Note_on_c, 0, 60, 96
2, 39424, Note_off_c, 0, 60, 0
2, 39424, Note_on_c, 0, 62, 96
2, 39680, Note_off_c, 0, 62, 0
2, 39680, Note_on_c, 0, 64, 96
2, 39936, Note_off_c, 0, 64, 0
2, 39936, Note_on_c, 0, 66, 96
2, 40192, Note_off_c, 0, 66, 0
2, 40192, Note_on_c, 0, 68, 96
2, 40448, Note_off_c, 0, 68, 0
2, 40448, Note_on_c, 0, 69, 96
2, 40704, Note_off_c, 0, 69, 0
2, 40704, Note_on_c, 0, 71, 96
2, 40960, Note_off_c, 0, 71, 0
2, 40960, Note_on_c, 0, 72, 96
2, 41088, Note_off_c, 0, 72, 0
2, 41088, Note_on_c, 0, 74, 96
2, 41216, Note_off_c, 0, 74, 0
2, 41216, Note_on_c, 0, 72, 96
2, 41344, Note_off_c, 0, 72, 0
2, 41344, Note_on_c, 0, 71, 96
2, 41472, Note_off_c, 0, 71, 0
2, 41472, Note_on_c, 0, 72, 96
2, 42240, Note_off_c, 0, 72, 0
2, 42240, Note_on_c, 0, 71, 96
2, 42368, Note_off_c, 0, 71, 0
2, 42368, Note_on_c, 0, 69, 96
2, 42496, Note_off_c, 0, 69, 0
2, 42496, Note_on_c, 0, 74, 96
2, 42752, Note_off_c, 0, 74, 0
2, 42752, Note_on_c, 0, 72, 96
2, 43008, Note_off_c, 0, 72, 0
2, 43008, Note_on_c, 0, 71, 96
2, 43136, Note_off_c, 0, 71, 0
2, 43136, Note_on_c, 0, 72, 96
2, 43264, Note_off_c, 0, 72, 0
2, 43264, Note_on_c, 0, 71, 96
2, 43392, Note_off_c, 0, 71, 0
2, 43392, Note_on_c, 0, 69, 96
2, 43520, Note_off_c, 0, 69, 0
2, 43520, Note_on_c, 0, 71, 96
2, 43776, Note_off_c, 0, 71, 0
2, 43776, Note_on_c, 0, 71, 96
2, 44288, Note_off_c, 0, 71, 0
2, 44288, Note_on_c, 0, 74, 96
2, 44800, Note_off_c, 0, 74, 0
2, 44800, Note_on_c, 0, 73, 96
2, 45056, Note_off_c, 0, 73, 0
2, 45056, Note_on_c, 0, 74, 96
2, 46336, Note_off_c, 0, 74, 0
2, 46336, Note_on_c, 0, 72, 96
2, 46592, Note_off_c, 0, 72, 0
2, 46592, Note_on_c, 0, 71, 96
2, 46848, Note_off_c, 0, 71, 0
2, 46848, Note_on_c, 0, 69, 96
2, 47104, Note_off_c, 0, 69, 0
2, 47104, Note_on_c, 0, 67, 96
2, 47360, Note_off_c, 0, 67, 0
2, 47360, Note_on_c, 0, 65, 96
2, 47488, Note_off_c, 0, 65, 0
2, 47488, Note_on_c, 0, 64, 96
2, 47616, Note_off_c, 0, 64, 0
2, 47616, Note_on_c, 0, 65, 96
2, 48384, Note_off_c, 0, 65, 0
2, 48384, Note_on_c, 0, 64, 96
2, 48640, Note_off_c, 0, 64, 0
2, 48640, Note_on_c, 0, 62, 96
2, 48896, Note_off_c, 0, 62, 0
2, 48896, Note_on_c, 0, 60, 96
2, 49152, Note_off_c, 0, 60, 0
2, 49152, Note_on_c, 0, 62, 96
2, 49408, Note_off_c, 0, 62, 0
2, 49408, Note_on_c, 0, 65, 96
2, 49664, Note_off_c, 0, 65, 0
2, 49664, Note_on_c, 0, 64, 96
2, 49920, Note_off_c, 0, 64, 0
2, 49920, Note_on_c, 0, 62, 96
2, 50176, Note_off_c, 0, 62, 0
2, 50176, Note_on_c, 0, 60, 96
2, 50432, Note_off_c, 0, 60, 0
2, 50432, Note_on_c, 0, 62, 96
2, 50688, Note_off_c, 0, 62, 0
2, 50688, Note_on_c, 0, 64, 96
2, 51456, Note_off_c, 0, 64, 0
2, 51456, Note_on_c, 0, 57, 96
2, 51712, Note_off_c, 0, 57, 0
2, 51712, Note_on_c, 0, 59, 96
2, 51968, Note_off_c, 0, 59, 0
2, 51968, Note_on_c, 0, 60, 96
2, 52224, Note_off_c, 0, 60, 0
2, 52224, Note_on_c, 0, 62, 96
2, 52480, Note_off_c, 0, 62, 0
2, 52480, Note_on_c, 0, 64, 96
2, 52736, Note_off_c, 0, 64, 0
2, 52736, Note_on_c, 0, 65, 96
2, 52992, Note_off_c, 0, 65, 0
2, 52992, Note_on_c, 0, 57, 96
2, 53248, Note_off_c, 0, 57, 0
2, 53248, Note_on_c, 0, 59, 96
2, 53504, Note_off_c, 0, 59, 0
2, 53504, Note_on_c, 0, 67, 96
2, 54016, Note_off_c, 0, 67, 0
2, 54016, Note_on_c, 0, 65, 96
2, 54528, Note_off_c, 0, 65, 0
2, 54528, Note_on_c, 0, 67, 96
2, 54656, Note_off_c, 0, 67, 0
2, 54656, Note_on_c, 0, 65, 96
2, 54784, Note_off_c, 0, 65, 0
2, 54784, Note_on_c, 0, 64, 96
2, 54912, Note_off_c, 0, 64, 0
2, 54912, Note_on_c, 0, 62, 96
2, 55040, Note_off_c, 0, 62, 0
2, 55040, Note_on_c, 0, 60, 96
2, 55168, Note_off_c, 0, 60, 0
2, 55168, Note_on_c, 0, 59, 96
2, 55296, Note_off_c, 0, 59, 0
2, 55296, Note_on_c, 0, 57, 96
2, 55552, Note_off_c, 0, 57, 0
2, 55552, Note_on_c, 0, 62, 96
2, 56064, Note_off_c, 0, 62, 0
2, 56064, Note_on_c, 0, 60, 96
2, 56576, Note_off_c, 0, 60, 0
2, 56576, Note_on_c, 0, 65, 96
2, 56704, Note_off_c, 0, 65, 0
2, 56704, Note_on_c, 0, 67, 96
2, 56832, Note_off_c, 0, 67, 0
2, 56832, Note_on_c, 0, 65, 96
2, 56960, Note_off_c, 0, 65, 0
2, 56960, Note_on_c, 0, 64, 96
2, 57088, Note_off_c, 0, 64, 0
2, 57088, Note_on_c, 0, 62, 96
2, 57216, Note_off_c, 0, 62, 0
2, 57216, Note_on_c, 0, 60, 96
2, 57344, Note_off_c, 0, 60, 0
2, 57344, Note_on_c, 0, 59, 96
2, 57600, Note_off_c, 0, 59, 0
2, 57600, Note_on_c, 0, 60, 96
2, 58112, Note_off_c, 0, 60, 0
2, 58112, Note_on_c, 0, 62, 96
2, 58624, Note_off_c, 0, 62, 0
2, 58624, Note_on_c, 0, 59, 96
2, 58880, Note_off_c, 0, 59, 0
2, 58880, Note_on_c, 0, 55, 96
2, 59136, Note_off_c, 0, 55, 0
2, 59136, Note_on_c, 0, 59, 96
2, 59392, Note_off_c, 0, 59, 0
2, 59392, Note_on_c, 0, 48, 96
2, 59648, Note_off_c, 0, 48, 0
2, 59648, Note_on_c, 0, 55, 96
2, 59904, Note_off_c, 0, 55, 0
2, 59904, Note_on_c, 0, 57, 96
2, 60160, Note_off_c, 0, 57, 0
2, 60160, Note_on_c, 0, 59, 96
2, 60416, Note_off_c, 0, 59, 0
2, 60416, Note_on_c, 0, 60, 96
2, 60672, Note_off_c, 0, 60, 0
2, 60672, Note_on_c, 0, 62, 96
2, 60928, Note_off_c, 0, 62, 0
2, 60928, Note_on_c, 0, 64, 96
2, 61184, Note_off_c, 0, 64, 0
2, 61184, Note_on_c, 0, 65, 96
2, 61440, Note_off_c, 0, 65, 0
2, 61440, Note_on_c, 0, 64, 96
2, 61696, Note_off_c, 0, 64, 0
2, 61696, Note_on_c, 0, 62, 96
2, 61952, Note_off_c, 0, 62, 0
2, 61952, Note_on_c, 0, 60, 96
2, 62208, Note_off_c, 0, 60, 0
2, 62208, Note_on_c, 0, 62, 96
2, 62464, Note_off_c, 0, 62, 0
2, 62464, Note_on_c, 0, 64, 96
2, 62720, Note_off_c, 0, 64, 0
2, 62720, Note_on_c, 0, 65, 96
2, 62976, Note_off_c, 0, 65, 0
2, 62976, Note_on_c, 0, 67, 96
2, 63232, Note_off_c, 0, 67, 0
2, 63232, Note_on_c, 0, 69, 96
2, 63488, Note_off_c, 0, 69, 0
2, 63488, Note_on_c, 0, 67, 96
2, 63744, Note_off_c, 0, 67, 0
2, 63744, Note_on_c, 0, 65, 96
2, 64000, Note_off_c, 0, 65, 0
2, 64000, Note_on_c, 0, 64, 96
2, 64256, Note_off_c, 0, 64, 0
2, 64256, Note_on_c, 0, 66, 96
2, 64512, Note_off_c, 0, 66, 0
2, 64512, Note_on_c, 0, 67, 96
2, 64768, Note_off_c, 0, 67, 0
2, 64768, Note_on_c, 0, 69, 96
2, 65024, Note_off_c, 0, 69, 0
2, 65024, Note_on_c, 0, 71, 96
2, 65280, Note_off_c, 0, 71, 0
2, 65280, Note_on_c, 0, 72, 96
2, 65536, Note_off_c, 0, 72, 0
2, 65536, Note_on_c, 0, 74, 96
2, 65792, Note_off_c, 0, 74, 0
2, 65792, Note_on_c, 0, 72, 96
2, 65920, Note_off_c, 0, 72, 0
2, 65920, Note_on_c, 0, 71, 96
2, 66048, Note_off_c, 0, 71, 0
2, 66048, Note_on_c, 0, 69, 96
2, 66816, Note_off_c, 0, 69, 0
2, 66816, Note_on_c, 0, 71, 96
2, 66944, Note_off_c, 0, 71, 0
2, 66944, Note_on_c, 0, 72, 96
2, 67072, Note_off_c, 0, 72, 0
2, 67072, Note_on_c, 0, 71, 96
2, 67328, Note_off_c, 0, 71, 0
2, 67328, Note_on_c, 0, 72, 96
2, 67456, Note_off_c, 0, 72, 0
2, 67456, Note_on_c, 0, 74, 96
2, 67584, Note_off_c, 0, 74, 0
2, 67584, Note_on_c, 0, 68, 96
2, 67840, Note_off_c, 0, 68, 0
2, 67840, Note_on_c, 0, 69, 96
2, 67968, Note_off_c, 0, 69, 0
2, 67968, Note_on_c, 0, 71, 96
2, 68096, Note_off_c, 0, 71, 0
2, 68096, Note_on_c, 0, 69, 96
2, 68608, Note_off_c, 0, 69, 0
2, 68864, Note_on_c, 0, 67, 96
2, 69120, Note_off_c, 0, 67, 0
2, 69120, Note_on_c, 0, 65, 96
2, 69376, Note_off_c, 0, 65, 0
2, 69376, Note_on_c, 0, 64, 96
2, 69632, Note_off_c, 0, 64, 0
2, 69632, Note_on_c, 0, 62, 96
2, 69888, Note_off_c, 0, 62, 0
2, 69888, Note_on_c, 0, 60, 96
2, 70144, Note_off_c, 0, 60, 0
2, 70144, Note_on_c, 0, 59, 96
2, 70400, Note_off_c, 0, 59, 0
2, 70400, Note_on_c, 0, 60, 96
2, 70656, Note_off_c, 0, 60, 0
2, 70656, Note_on_c, 0, 62, 96
2, 70912, Note_off_c, 0, 62, 0
2, 70912, Note_on_c, 0, 64, 96
2, 71168, Note_off_c, 0, 64, 0
2, 71168, Note_on_c, 0, 65, 96
2, 71424, Note_off_c, 0, 65, 0
2, 71424, Note_on_c, 0, 67, 96
2, 71680, Note_off_c, 0, 67, 0
2, 71680, Note_on_c, 0, 69, 96
2, 71936, Note_off_c, 0, 69, 0
2, 71936, Note_on_c, 0, 67, 96
2, 72192, Note_off_c, 0, 67, 0
2, 72192, Note_on_c, 0, 69, 96
2, 72448, Note_off_c, 0, 69, 0
2, 72448, Note_on_c, 0, 71, 96
2, 72704, Note_off_c, 0, 71, 0
2, 72704, Note_on_c, 0, 72, 96
2, 72960, Note_off_c, 0, 72, 0
2, 72960, Note_on_c, 0, 71, 96
2, 73088, Note_off_c, 0, 71, 0
2, 73088, Note_on_c, 0, 69, 96
2, 73216, Note_off_c, 0, 69, 0
2, 73216, Note_on_c, 0, 74, 96
2, 73472, Note_off_c, 0, 74, 0
2, 73472, Note_on_c, 0, 74, 96
2, 73728, Note_off_c, 0, 74, 0
2, 73728, Note_on_c, 0, 67, 96
2, 73856, Note_off_c, 0, 67, 0
2, 73856, Note_on_c, 0, 69, 96
2, 73984, Note_off_c, 0, 69, 0
2, 73984, Note_on_c, 0, 67, 96
2, 74112, Note_off_c, 0, 67, 0
2, 74112, Note_on_c, 0, 66, 96
2, 74240, Note_off_c, 0, 66, 0
2, 74240, Note_on_c, 0, 67, 96
2, 75008, Note_off_c, 0, 67, 0
2, 75008, Note_on_c, 0, 65, 96
2, 75264, Note_off_c, 0, 65, 0
2, 75264, Note_on_c, 0, 64, 96
2, 75520, Note_off_c, 0, 64, 0
2, 75520, Note_on_c, 0, 62, 96
2, 75776, Note_off_c, 0, 62, 0
2, 75776, Note_on_c, 0, 64, 96
2, 75904, Note_off_c, 0, 64, 0
2, 75904, Note_on_c, 0, 62, 96
2, 76032, Note_off_c, 0, 62, 0
2, 76032, Note_on_c, 0, 60, 96
2, 76160, Note_off_c, 0, 60, 0
2, 76160, Note_on_c, 0, 59, 96
2, 76288, Note_off_c, 0, 59, 0
2, 76288, Note_on_c, 0, 60, 96
2, 77056, Note_off_c, 0, 60, 0
2, 77056, Note_on_c, 0, 57, 96
2, 77312, Note_off_c, 0, 57, 0
2, 77312, Note_on_c, 0, 59, 96
2, 77568, Note_off_c, 0, 59, 0
2, 77568, Note_on_c, 0, 60, 96
2, 77824, Note_off_c, 0, 60, 0
2, 77824, Note_on_c, 0, 62, 96
2, 78080, Note_off_c, 0, 62, 0
2, 78080, Note_on_c, 0, 55, 96
2, 78336, Note_off_c, 0, 55, 0
2, 78336, Note_on_c, 0, 67, 96
2, 79104, Note_off_c, 0, 67, 0
2, 79104, Note_on_c, 0, 66, 96
2, 79360, Note_off_c, 0, 66, 0
2, 79360, Note_on_c, 0, 69, 96
2, 79616, Note_off_c, 0, 69, 0
2, 79616, Note_on_c, 0, 68, 96
2, 79872, Note_off_c, 0, 68, 0
2, 79872, Note_on_c, 0, 69, 96
2, 80128, Note_off_c, 0, 69, 0
2, 80128, Note_on_c, 0, 57, 96
2, 80384, Note_off_c, 0, 57, 0
2, 80384, Note_on_c, 0, 64, 96
2, 81024, Note_off_c, 0, 64, 0
2, 81024, Note_on_c, 0, 72, 96
2, 81152, Note_off_c, 0, 72, 0
2, 81152, Note_on_c, 0, 71, 96
2, 81280, Note_off_c, 0, 71, 0
2, 81280, Note_on_c, 0, 69, 96
2, 81408, Note_off_c, 0, 69, 0
2, 81408, Note_on_c, 0, 67, 96
2, 81664, Note_off_c, 0, 67, 0
2, 81664, Note_on_c, 0, 65, 96
2, 81920, Note_off_c, 0, 65, 0
2, 81920, Note_on_c, 0, 64, 96
2, 83072, Note_off_c, 0, 64, 0
2, 83072, Note_on_c, 0, 69, 96
2, 83200, Note_off_c, 0, 69, 0
2, 83200, Note_on_c, 0, 67, 96
2, 83328, Note_off_c, 0, 67, 0
2, 83328, Note_on_c, 0, 65, 96
2, 83456, Note_off_c, 0, 65, 0
2, 83456, Note_on_c, 0, 64, 96
2, 83712, Note_off_c, 0, 64, 0
2, 83712, Note_on_c, 0, 62, 96
2, 83968, Note_off_c, 0, 62, 0
2, 83968, Note_on_c, 0, 60, 96
2, 84224, Note_off_c, 0, 60, 0
2, 84224, Note_on_c, 0, 64, 96
2, 84480, Note_off_c, 0, 64, 0
2, 84480, Note_on_c, 0, 67, 96
2, 84736, Note_off_c, 0, 67, 0
2, 84736, Note_on_c, 0, 72, 96
2, 84992, Note_off_c, 0, 72, 0
2, 84992, Note_on_c, 0, 71, 96
2, 85120, Note_off_c, 0, 71, 0
2, 85120, Note_on_c, 0, 69, 96
2, 85248, Note_off_c, 0, 69, 0
2, 85248, Note_on_c, 0, 67, 96
2, 85504, Note_off_c, 0, 67, 0
2, 85504, Note_on_c, 0, 69, 96
2, 85632, Note_off_c, 0, 69, 0
2, 85632, Note_on_c, 0, 67, 96
2, 85760, Note_off_c, 0, 67, 0
2, 85760, Note_on_c, 0, 66, 96
2, 86016, Note_off_c, 0, 66, 0
2, 86016, Note_on_c, 0, 67, 96
2, 87168, Note_off_c, 0, 67, 0
2, 87168, Note_on_c, 0, 62, 96
2, 87296, Note_off_c, 0, 62, 0
2, 87296, Note_on_c, 0, 64, 96
2, 87424, Note_off_c, 0, 64, 0
2, 87424, Note_on_c, 0, 66, 96
2, 87552, Note_off_c, 0, 66, 0
2, 87552, Note_on_c, 0, 67, 96
2, 87680, Note_off_c, 0, 67, 0
2, 87680, Note_on_c, 0, 69, 96
2, 87808, Note_off_c, 0, 69, 0
2, 87808, Note_on_c, 0, 71, 96
2, 87936, Note_off_c, 0, 71, 0
2, 87936, Note_on_c, 0, 72, 96
2, 88064, Note_off_c, 0, 72, 0
2, 88064, Note_on_c, 0, 74, 96
2, 88192, Note_off_c, 0, 74, 0
2, 88192, Note_on_c, 0, 73, 96
2, 88320, Note_off_c, 0, 73, 0
2, 88320, Note_on_c, 0, 74, 96
2, 88448, Note_off_c, 0, 74, 0
2, 88448, Note_on_c, 0, 76, 96
2, 88576, Note_off_c, 0, 76, 0
2, 88576, Note_on_c, 0, 77, 96
2, 88704, Note_off_c, 0, 77, 0
2, 88704, Note_on_c, 0, 76, 96
2, 88832, Note_off_c, 0, 76, 0
2, 88832, Note_on_c, 0, 74, 96
2, 88960, Note_off_c, 0, 74, 0
2, 88960, Note_on_c, 0, 77, 96
2, 89088, Note_off_c, 0, 77, 0
2, 89088, Note_on_c, 0, 76, 96
2, 89344, Note_off_c, 0, 76, 0
2, 89344, Note_on_c, 0, 67, 96
2, 89856, Note_off_c, 0, 67, 0
2, 89856, Note_on_c, 0, 65, 96
2, 89984, Note_off_c, 0, 65, 0
2, 89984, Note_on_c, 0, 64, 96
2, 90112, Note_off_c, 0, 64, 0
2, 90112, Note_on_c, 0, 65, 96
2, 90368, Note_off_c, 0, 65, 0
2, 90368, Note_on_c, 0, 70, 96
2, 90624, Note_off_c, 0, 70, 0
2, 90624, Note_on_c, 0, 69, 96
2, 90880, Note_off_c, 0, 69, 0
2, 90880, Note_on_c, 0, 67, 96
2, 91136, Note_off_c, 0, 67, 0
2, 91136, Note_on_c, 0, 65, 96
2, 91392, Note_off_c, 0, 65, 0
2, 91392, Note_on_c, 0, 64, 96
2, 91648, Note_off_c, 0, 64, 0
2, 91648, Note_on_c, 0, 62, 96
2, 91904, Note_off_c, 0, 62, 0
2, 91904, Note_on_c, 0, 60, 96
2, 92160, Note_off_c, 0, 60, 0
2, 92160, Note_on_c, 0, 59, 96
2, 92416, Note_off_c, 0, 59, 0
2, 92416, Note_on_c, 0, 62, 96
2, 92672, Note_off_c, 0, 62, 0
2, 92672, Note_on_c, 0, 65, 96
2, 92928, Note_off_c, 0, 65, 0
2, 92928, Note_on_c, 0, 69, 96
2, 93440, Note_off_c, 0, 69, 0
2, 93440, Note_on_c, 0, 67, 96
2, 93952, Note_off_c, 0, 67, 0
2, 93952, Note_on_c, 0, 65, 96
2, 94336, Note_off_c, 0, 65, 0
2, 94336, Note_on_c, 0, 74, 96
2, 94464, Note_off_c, 0, 74, 0
2, 94464, Note_on_c, 0, 72, 96
2, 94592, Note_off_c, 0, 72, 0
2, 94592, Note_on_c, 0, 71, 96
2, 94720, Note_off_c, 0, 71, 0
2, 94720, Note_on_c, 0, 72, 96
2, 94976, Note_off_c, 0, 72, 0
2, 94976, Note_on_c, 0, 67, 96
2, 95232, Note_off_c, 0, 67, 0
2, 95232, Note_on_c, 0, 69, 96
2, 95488, Note_off_c, 0, 69, 0
2, 95488, Note_on_c, 0, 74, 96
2, 95744, Note_off_c, 0, 74, 0
2, 95744, Note_on_c, 0, 76, 96
2, 96000, Note_off_c, 0, 76, 0
2, 96000, Note_on_c, 0, 77, 96
2, 96256, Note_off_c, 0, 77, 0
2, 96256, Note_on_c, 0, 71, 96
2, 96512, Note_off_c, 0, 71, 0
2, 96512, Note_on_c, 0, 69, 96
2, 96768, Note_off_c, 0, 69, 0
2, 96768, Note_on_c, 0, 67, 96
2, 97280, Note_off_c, 0, 67, 0
2, 97536, Note_on_c, 0, 72, 96
2, 97664, Note_off_c, 0, 72, 0
2, 97664, Note_on_c, 0, 71, 96
2, 97792, Note_off_c, 0, 71, 0
2, 97792, Note_on_c, 0, 72, 96
2, 98048, Note_off_c, 0, 72, 0
2, 98048, Note_on_c, 0, 69, 96
2, 98304, Note_off_c, 0, 69, 0
2, 98304, Note_on_c, 0, 65, 96
2, 98560, Note_off_c, 0, 65, 0
2, 98560, Note_on_c, 0, 64, 96
2, 98816, Note_off_c, 0, 64, 0
2, 98816, Note_on_c, 0, 62, 96
2, 99072, Note_off_c, 0, 62, 0
2, 99072, Note_on_c, 0, 69, 96
2, 99584, Note_off_c, 0, 69, 0
2, 99584, Note_on_c, 0, 67, 96
2, 100096, Note_off_c, 0, 67, 0
2, 100096, Note_on_c, 0, 65, 96
2, 100352, Note_off_c, 0, 65, 0
2, 100352, Note_on_c, 0, 67, 96
2, 100480, Note_off_c, 0, 67, 0
2, 100480, Note_on_c, 0, 65, 96
2, 100608, Note_off_c, 0, 65, 0
2, 100608, Note_on_c, 0, 64, 96
2, 100864, Note_off_c, 0, 64, 0
2, 100864, Note_on_c, 0, 65, 96
2, 100992, Note_off_c, 0, 65, 0
2, 100992, Note_on_c, 0, 64, 96
2, 101120, Note_off_c, 0, 64, 0
2, 101120, Note_on_c, 0, 62, 96
2, 101376, Note_off_c, 0, 62, 0
2, 101376, Note_on_c, 0, 60, 96
2, 101632, Note_off_c, 0, 60, 0
2, 101632, Note_on_c, 0, 62, 96
2, 101760, Note_off_c, 0, 62, 0
2, 101760, Note_on_c, 0, 64, 96
2, 101888, Note_off_c, 0, 64, 0
2, 101888, Note_on_c, 0, 65, 96
2, 102016, Note_off_c, 0, 65, 0
2, 102016, Note_on_c, 0, 67, 96
2, 102144, Note_off_c, 0, 67, 0
2, 102144, Note_on_c, 0, 69, 96
2, 102272, Note_off_c, 0, 69, 0
2, 102272, Note_on_c, 0, 71, 96
2, 102400, Note_off_c, 0, 71, 0
2, 102400, Note_on_c, 0, 72, 96
2, 102528, Note_off_c, 0, 72, 0
2, 102528, Note_on_c, 0, 71, 96
2, 102656, Note_off_c, 0, 71, 0
2, 102656, Note_on_c, 0, 69, 96
2, 102912, Note_off_c, 0, 69, 0
2, 102912, Note_on_c, 0, 77, 96
2, 103680, Note_off_c, 0, 77, 0
2, 103680, Note_on_c, 0, 76, 96
2, 103936, Note_off_c, 0, 76, 0
2, 103936, Note_on_c, 0, 74, 96
2, 104192, Note_off_c, 0, 74, 0
2, 104192, Note_on_c, 0, 72, 96
2, 104448, Note_off_c, 0, 72, 0
2, 104448, Note_on_c, 0, 71, 96
2, 104576, Note_off_c, 0, 71, 0
2, 104576, Note_on_c, 0, 74, 96
2, 104704, Note_off_c, 0, 74, 0
2, 104704, Note_on_c, 0, 72, 96
2, 105088, Note_off_c, 0, 72, 0
2, 105088, Note_on_c, 0, 76, 96
2, 105216, Note_off_c, 0, 76, 0
2, 105216, Note_on_c, 0, 74, 96
2, 105600, Note_off_c, 0, 74, 0
2, 105600, Note_on_c, 0, 77, 96
2, 105728, Note_off_c, 0, 77, 0
2, 105728, Note_on_c, 0, 76, 96
2, 106240, Note_off_c, 0, 76, 0
2, 106240, Note_on_c, 0, 77, 96
2, 106496, Note_off_c, 0, 77, 0
2, 106496, Note_on_c, 0, 65, 96
2, 106752, Note_off_c, 0, 65, 0
2, 106752, Note_on_c, 0, 64, 96
2, 107008, Note_off_c, 0, 64, 0
2, 107008, Note_on_c, 0, 64, 96
2, 107264, Note_off_c, 0, 64, 0
2, 107264, Note_on_c, 0, 62, 96
2, 107520, Note_off_c, 0, 62, 0
2, 107520, Note_on_c, 0, 60, 96
2, 107776, Note_off_c, 0, 60, 0
2, 107776, Note_on_c, 0, 76, 96
2, 108288, Note_off_c, 0, 76, 0
2, 108288, Note_on_c, 0, 74, 96
2, 108416, Note_off_c, 0, 74, 0
2, 108416, Note_on_c, 0, 72, 96
2, 108544, Note_off_c, 0, 72, 0
2, 108544, Note_on_c, 0, 74, 96
2, 108672, Note_off_c, 0, 74, 0
2, 108672, Note_on_c, 0, 72, 96
2, 108800, Note_off_c, 0, 72, 0
2, 108800, Note_on_c, 0, 71, 96
2, 108928, Note_off_c, 0, 71, 0
2, 108928, Note_on_c, 0, 69, 96
2, 109056, Note_off_c, 0, 69, 0
2, 109056, Note_on_c, 0, 67, 96
2, 109824, Note_off_c, 0, 67, 0
2, 109824, Note_on_c, 0, 77, 96
2, 110080, Note_off_c, 0, 77, 0
2, 110080, Note_on_c, 0, 76, 96
2, 110336, Note_off_c, 0, 76, 0
2, 110336, Note_on_c, 0, 74, 96
2, 110592, Note_off_c, 0, 74, 0
2, 110592, Note_on_c, 0, 76, 96
2, 110848, Note_off_c, 0, 76, 0
2, 110848, Note_on_c, 0, 78, 96
2, 110976, Note_off_c, 0, 78, 0
2, 110976, Note_on_c, 0, 79, 96
2, 111104, Note_off_c, 0, 79, 0
2, 111104, Note_on_c, 0, 78, 96
2, 111360, Note_off_c, 0, 78, 0
2, 111360, Note_on_c, 0, 79, 96
2, 111488, Note_off_c, 0, 79, 0
2, 111488, Note_on_c, 0, 81, 96
2, 111616, Note_off_c, 0, 81, 0
2, 111616, Note_on_c, 0, 79, 96
2, 112256, Note_off_c, 0, 79, 0
2, 112256, Note_on_c, 0, 77, 96
2, 112384, Note_off_c, 0, 77, 0
2, 112384, Note_on_c, 0, 76, 96
2, 112512, Note_off_c, 0, 76, 0
2, 112512, Note_on_c, 0, 74, 96
2, 112640, Note_off_c, 0, 74, 0
2, 112640, Note_on_c, 0, 76, 96
2, 112896, Note_off_c, 0, 76, 0
2, 112896, Note_on_c, 0, 69, 96
2, 113152, Note_off_c, 0, 69, 0
2, 113152, Note_on_c, 0, 74, 96
2, 113408, Note_off_c, 0, 74, 0
2, 113408, Note_on_c, 0, 73, 96
2, 113664, Note_off_c, 0, 73, 0
2, 113664, Note_on_c, 0, 74, 96
2, 113920, Note_off_c, 0, 74, 0
2, 113920, Note_on_c, 0, 76, 96
2, 114176, Note_off_c, 0, 76, 0
2, 114176, Note_on_c, 0, 77, 96
2, 114816, Note_off_c, 0, 77, 0
2, 114816, Note_on_c, 0, 76, 96
2, 114944, Note_off_c, 0, 76, 0
2, 114944, Note_on_c, 0, 74, 96
2, 115072, Note_off_c, 0, 74, 0
2, 115072, Note_on_c, 0, 77, 96
2, 115200, Note_off_c, 0, 77, 0
2, 115200, Note_on_c, 0, 76, 96
2, 115328, Note_off_c, 0, 76, 0
2, 115328, Note_on_c, 0, 74, 96
2, 115456, Note_off_c, 0, 74, 0
2, 115456, Note_on_c, 0, 72, 96
2, 115584, Note_off_c, 0, 72, 0
2, 115584, Note_on_c, 0, 71, 96
2, 115712, Note_off_c, 0, 71, 0
2, 115712, Note_on_c, 0, 69, 96
2, 115840, Note_off_c, 0, 69, 0
2, 115840, Note_on_c, 0, 72, 96
2, 115968, Note_off_c, 0, 72, 0
2, 115968, Note_on_c, 0, 71, 96
2, 116096, Note_off_c, 0, 71, 0
2, 116096, Note_on_c, 0, 69, 96
2, 116224, Note_off_c, 0, 69, 0
2, 116224, Note_on_c, 0, 67, 96
2, 116352, Note_off_c, 0, 67, 0
2, 116352, Note_on_c, 0, 65, 96
2, 116480, Note_off_c, 0, 65, 0
2, 116480, Note_on_c, 0, 64, 96
2, 116608, Note_off_c, 0, 64, 0
2, 116608, Note_on_c, 0, 65, 96
2, 116736, Note_off_c, 0, 65, 0
2, 116736, Note_on_c, 0, 65, 96
2, 118272, Note_off_c, 0, 65, 0
2, 118272, Note_on_c, 0, 64, 96
2, 118528, Note_off_c, 0, 64, 0
2, 118528, Note_on_c, 0, 65, 96
2, 118784, Note_off_c, 0, 65, 0
2, 118784, Note_on_c, 0, 64, 96
2, 119936, Note_off_c, 0, 64, 0
2, 119936, Note_on_c, 0, 60, 96
2, 120064, Note_off_c, 0, 60, 0
2, 120064, Note_on_c, 0, 59, 96
2, 120192, Note_off_c, 0, 59, 0
2, 120192, Note_on_c, 0, 57, 96
2, 120320, Note_off_c, 0, 57, 0
2, 120320, Note_on_c, 0, 55, 96
2, 120448, Note_off_c, 0, 55, 0
2, 120448, Note_on_c, 0, 53, 96
2, 120576, Note_off_c, 0, 53, 0
2, 120576, Note_on_c, 0, 52, 96
2, 120704, Note_off_c, 0, 52, 0
2, 120704, Note_on_c, 0, 50, 96
2, 120832, Note_off_c, 0, 50, 0
2, 120832, Note_on_c, 0, 48, 96
2, 121856, Note_off_c, 0, 48, 0
2, 122112, Note_on_c, 0, 72, 96
2, 122368, Note_off_c, 0, 72, 0
2, 122368, Note_on_c, 0, 71, 96
2, 122624, Note_off_c, 0, 71, 0
2, 122624, Note_on_c, 0, 69, 96
2, 122880, Note_off_c, 0, 69, 0
2, 122880, Note_on_c, 0, 71, 96
2, 123136, Note_off_c, 0, 71, 0
2, 123136, Note_on_c, 0, 67, 96
2, 123392, Note_off_c, 0, 67, 0
2, 123392, Note_on_c, 0, 69, 96
2, 123648, Note_off_c, 0, 69, 0
2, 123648, Note_on_c, 0, 71, 96
2, 123904, Note_off_c, 0, 71, 0
2, 123904, Note_on_c, 0, 72, 96
2, 124416, Note_off_c, 0, 72, 0
2, 124544, Note_on_c, 0, 77, 96
2, 124672, Note_off_c, 0, 77, 0
2, 124672, Note_on_c, 0, 79, 96
2, 124800, Note_off_c, 0, 79, 0
2, 124800, Note_on_c, 0, 81, 96
2, 124928, Note_off_c, 0, 81, 0
2, 124928, Note_on_c, 0, 79, 96
2, 125056, Note_off_c, 0, 79, 0
2, 125056, Note_on_c, 0, 82, 96
2, 125184, Note_off_c, 0, 82, 0
2, 125184, Note_on_c, 0, 81, 96
2, 125312, Note_off_c, 0, 81, 0
2, 125312, Note_on_c, 0, 79, 96
2, 125440, Note_off_c, 0, 79, 0
2, 125440, Note_on_c, 0, 81, 96
2, 125568, Note_off_c, 0, 81, 0
2, 125568, Note_on_c, 0, 74, 96
2, 125696, Note_off_c, 0, 74, 0
2, 125696, Note_on_c, 0, 72, 96
2, 125824, Note_off_c, 0, 72, 0
2, 125824, Note_on_c, 0, 71, 96
2, 125952, Note_off_c, 0, 71, 0
2, 125952, Note_on_c, 0, 72, 96
2, 126080, Note_off_c, 0, 72, 0
2, 126080, Note_on_c, 0, 71, 96
2, 126208, Note_off_c, 0, 71, 0
2, 126208, Note_on_c, 0, 69, 96
2, 126336, Note_off_c, 0, 69, 0
2, 126336, Note_on_c, 0, 67, 96
2, 126464, Note_off_c, 0, 67, 0
2, 126464, Note_on_c, 0, 66, 96
2, 126592, Note_off_c, 0, 66, 0
2, 126592, Note_on_c, 0, 69, 96
2, 126720, Note_off_c, 0, 69, 0
2, 126720, Note_on_c, 0, 71, 96
2, 126848, Note_off_c, 0, 71, 0
2, 126848, Note_on_c, 0, 72, 96
2, 126976, Note_off_c, 0, 72, 0
2, 126976, Note_on_c, 0, 71, 96
2, 127104, Note_off_c, 0, 71, 0
2, 127104, Note_on_c, 0, 69, 96
2, 127232, Note_off_c, 0, 69, 0
2, 127232, Note_on_c, 0, 67, 96
2, 128128, Note_off_c, 0, 67, 0
2, 128128, Note_on_c, 0, 67, 96
2, 128256, Note_off_c, 0, 67, 0
2, 128256, Note_on_c, 0, 72, 96
2, 128768, Note_off_c, 0, 72, 0
2, 128768, Note_on_c, 0, 72, 96
2, 129152, Note_off_c, 0, 72, 0
2, 129152, Note_on_c, 0, 71, 96
2, 129280, Note_off_c, 0, 71, 0
2, 129280, Note_on_c, 0, 76, 96
2, 129792, Note_off_c, 0, 76, 0
2, 129792, Note_on_c, 0, 76, 96
2, 130176, Note_off_c, 0, 76, 0
2, 130176, Note_on_c, 0, 74, 96
2, 130304, Note_off_c, 0, 74, 0
2, 130304, Note_on_c, 0, 79, 96
2, 130816, Note_off_c, 0, 79, 0
2, 130816, Note_on_c, 0, 79, 96
2, 131200, Note_off_c, 0, 79, 0
2, 131200, Note_on_c, 0, 77, 96
2, 131328, Note_off_c, 0, 77, 0
2, 131328, Note_on_c, 0, 76, 96
2, 131456, Note_off_c, 0, 76, 0
2, 131456, Note_on_c, 0, 74, 96
2, 131584, Note_off_c, 0, 74, 0
2, 131584, Note_on_c, 0, 76, 96
2, 131840, Note_off_c, 0, 76, 0
2, 131840, Note_on_c, 0, 80, 96
2, 132096, Note_off_c, 0, 80, 0
2, 132096, Note_on_c, 0, 81, 96
2, 132224, Note_off_c, 0, 81, 0
2, 132224, Note_on_c, 0, 76, 96
2, 132352, Note_off_c, 0, 76, 0
2, 132352, Note_on_c, 0, 74, 96
2, 132480, Note_off_c, 0, 74, 0
2, 132480, Note_on_c, 0, 72, 96
2, 132608, Note_off_c, 0, 72, 0
2, 132608, Note_on_c, 0, 74, 96
2, 132864, Note_off_c, 0, 74, 0
2, 132864, Note_on_c, 0, 83, 96
2, 133120, Note_off_c, 0, 83, 0
2, 133120, Note_on_c, 0, 84, 96
2, 133376, Note_off_c, 0, 84, 0
2, 133376, Note_on_c, 0, 69, 96
2, 133632, Note_off_c, 0, 69, 0
2, 133632, Note_on_c, 0, 69, 96
2, 133760, Note_off_c, 0, 69, 0
2, 133760, Note_on_c, 0, 68, 96
2, 133888, Note_off_c, 0, 68, 0
2, 133888, Note_on_c, 0, 69, 96
2, 134144, Note_off_c, 0, 69, 0
2, 134144, Note_on_c, 0, 74, 96
2, 135424, Note_off_c, 0, 74, 0
2, 135424, Note_on_c, 0, 72, 96
2, 135552, Note_off_c, 0, 72, 0
2, 135552, Note_on_c, 0, 71, 96
2, 135680, Note_off_c, 0, 71, 0
2, 135680, Note_on_c, 0, 69, 96
2, 135808, Note_off_c, 0, 69, 0
2, 135808, Note_on_c, 0, 68, 96
2, 135936, Note_off_c, 0, 68, 0
2, 135936, Note_on_c, 0, 66, 96
2, 136064, Note_off_c, 0, 66, 0
2, 136064, Note_on_c, 0, 64, 96
2, 136192, Note_off_c, 0, 64, 0
2, 136192, Note_on_c, 0, 72, 96
2, 137472, Note_off_c, 0, 72, 0
2, 137472, Note_on_c, 0, 60, 96
2, 137728, Note_off_c, 0, 60, 0
2, 137728, Note_on_c, 0, 64, 96
2, 137984, Note_off_c, 0, 64, 0
2, 137984, Note_on_c, 0, 69, 96
2, 138496, Note_off_c, 0, 69, 0
2, 138496, Note_on_c, 0, 67, 96
2, 139008, Note_off_c, 0, 67, 0
2, 139008, Note_on_c, 0, 65, 96
2, 139136, Note_off_c, 0, 65, 0
2, 139136, Note_on_c, 0, 64, 96
2, 139264, Note_off_c, 0, 64, 0
2, 139264, Note_on_c, 0, 65, 96
2, 139520, Note_off_c, 0, 65, 0
2, 139520, Note_on_c, 0, 62, 96
2, 139648, Note_off_c, 0, 62, 0
2, 139648, Note_on_c, 0, 65, 96
2, 139776, Note_off_c, 0, 65, 0
2, 139776, Note_on_c, 0, 69, 96
2, 140032, Note_off_c, 0, 69, 0
2, 140032, Note_on_c, 0, 74, 96
2, 140544, Note_off_c, 0, 74, 0
2, 140544, Note_on_c, 0, 72, 96
2, 141056, Note_off_c, 0, 72, 0
2, 141056, Note_on_c, 0, 71, 96
2, 141184, Note_off_c, 0, 71, 0
2, 141184, Note_on_c, 0, 69, 96
2, 141312, Note_off_c, 0, 69, 0
2, 141312, Note_on_c, 0, 71, 96
2, 141440, Note_off_c, 0, 71, 0
2, 141440, Note_on_c, 0, 67, 96
2, 141568, Note_off_c, 0, 67, 0
2, 141568, Note_on_c, 0, 69, 96
2, 141696, Note_off_c, 0, 69, 0
2, 141696, Note_on_c, 0, 71, 96
2, 141824, Note_off_c, 0, 71, 0
2, 141824, Note_on_c, 0, 72, 96
2, 141952, Note_off_c, 0, 72, 0
2, 141952, Note_on_c, 0, 74, 96
2, 142080, Note_off_c, 0, 74, 0
2, 142080, Note_on_c, 0, 76, 96
2, 142592, Note_off_c, 0, 76, 0
2, 142592, Note_on_c, 0, 74, 96
2, 143104, Note_off_c, 0, 74, 0
2, 143104, Note_on_c, 0, 72, 96
2, 143232, Note_off_c, 0, 72, 0
2, 143232, Note_on_c, 0, 71, 96
2, 143360, Note_off_c, 0, 71, 0
2, 143360, Note_on_c, 0, 72, 96
2, 143488, Note_off_c, 0, 72, 0
2, 143488, Note_on_c, 0, 71, 96
2, 143616, Note_off_c, 0, 71, 0
2, 143616, Note_on_c, 0, 72, 96
2, 143744, Note_off_c, 0, 72, 0
2, 143744, Note_on_c, 0, 74, 96
2, 143872, Note_off_c, 0, 74, 0
2, 143872, Note_on_c, 0, 76, 96
2, 144000, Note_off_c, 0, 76, 0
2, 144000, Note_on_c, 0, 77, 96
2, 144128, Note_off_c, 0, 77, 0
2, 144128, Note_on_c, 0, 79, 96
2, 144640, Note_off_c, 0, 79, 0
2, 144640, Note_on_c, 0, 77, 96
2, 145152, Note_off_c, 0, 77, 0
2, 145152, Note_on_c, 0, 76, 96
2, 145280, Note_off_c, 0, 76, 0
2, 145280, Note_on_c, 0, 74, 96
2, 145408, Note_off_c, 0, 74, 0
2, 145408, Note_on_c, 0, 76, 96
2, 145536, Note_off_c, 0, 76, 0
2, 145536, Note_on_c, 0, 77, 96
2, 145664, Note_off_c, 0, 77, 0
2, 145664, Note_on_c, 0, 76, 96
2, 145792, Note_off_c, 0, 76, 0
2, 145792, Note_on_c, 0, 74, 96
2, 145920, Note_off_c, 0, 74, 0
2, 145920, Note_on_c, 0, 76, 96
2, 146176, Note_off_c, 0, 76, 0
2, 146176, Note_on_c, 0, 78, 96
2, 146432, Note_off_c, 0, 78, 0
2, 146432, Note_on_c, 0, 78, 96
2, 147200, Note_off_c, 0, 78, 0
2, 147200, Note_on_c, 0, 79, 96
2, 147456, Note_off_c, 0, 79, 0
2, 147456, Note_on_c, 0, 79, 96
2, 148608, Note_off_c, 0, 79, 0
2, 148608, Note_on_c, 0, 77, 96
2, 148736, Note_off_c, 0, 77, 0
2, 148736, Note_on_c, 0, 76, 96
2, 148864, Note_off_c, 0, 76, 0
2, 148864, Note_on_c, 0, 74, 96
2, 148992, Note_off_c, 0, 74, 0
2, 148992, Note_on_c, 0, 76, 96
2, 149120, Note_off_c, 0, 76, 0
2, 149120, Note_on_c, 0, 79, 96
2, 149248, Note_off_c, 0, 79, 0
2, 149248, Note_on_c, 0, 76, 96
2, 149376, Note_off_c, 0, 76, 0
2, 149376, Note_on_c, 0, 71, 96
2, 149504, Note_off_c, 0, 71, 0
2, 149504, Note_on_c, 0, 72, 96
2, 149632, Note_off_c, 0, 72, 0
2, 149632, Note_on_c, 0, 69, 96
2, 149760, Note_off_c, 0, 69, 0
2, 149760, Note_on_c, 0, 71, 96
2, 149888, Note_off_c, 0, 71, 0
2, 149888, Note_on_c, 0, 72, 96
2, 150016, Note_off_c, 0, 72, 0
2, 150016, Note_on_c, 0, 74, 96
2, 150144, Note_off_c, 0, 74, 0
2, 150144, Note_on_c, 0, 69, 96
2, 150272, Note_off_c, 0, 69, 0
2, 150272, Note_on_c, 0, 74, 96
2, 150400, Note_off_c, 0, 74, 0
2, 150400, Note_on_c, 0, 76, 96
2, 150528, Note_off_c, 0, 76, 0
2, 150528, Note_on_c, 0, 77, 96
2, 152192, Note_off_c, 0, 77, 0
2, 152192, Note_on_c, 0, 79, 96
2, 152320, Note_off_c, 0, 79, 0
2, 152320, Note_on_c, 0, 77, 96
2, 152448, Note_off_c, 0, 77, 0
2, 152448, Note_on_c, 0, 74, 96
2, 152576, Note_off_c, 0, 74, 0
2, 152576, Note_on_c, 0, 76, 96
2, 152704, Note_off_c, 0, 76, 0
2, 152704, Note_on_c, 0, 77, 96
2, 152832, Note_off_c, 0, 77, 0
2, 152832, Note_on_c, 0, 76, 96
2, 152960, Note_off_c, 0, 76, 0
2, 152960, Note_on_c, 0, 72, 96
2, 153088, Note_off_c, 0, 72, 0
2, 153088, Note_on_c, 0, 74, 96
2, 153216, Note_off_c, 0, 74, 0
2, 153216, Note_on_c, 0, 76, 96
2, 153344, Note_off_c, 0, 76, 0
2, 153344, Note_on_c, 0, 74, 96
2, 153472, Note_off_c, 0, 74, 0
2, 153472, Note_on_c, 0, 71, 96
2, 153600, Note_off_c, 0, 71, 0
2, 153600, Note_on_c, 0, 72, 96
2, 153728, Note_off_c, 0, 72, 0
2, 153728, Note_on_c, 0, 67, 96
2, 153856, Note_off_c, 0, 67, 0
2, 153856, Note_on_c, 0, 72, 96
2, 153984, Note_off_c, 0, 72, 0
2, 153984, Note_on_c, 0, 74, 96
2, 154112, Note_off_c, 0, 74, 0
2, 154112, Note_on_c, 0, 76, 96
2, 154880, Note_off_c, 0, 76, 0
2, 154880, Note_on_c, 0, 74, 96
2, 155136, Note_off_c, 0, 74, 0
2, 155136, Note_on_c, 0, 74, 96
2, 155392, Note_off_c, 0, 74, 0
2, 155392, Note_on_c, 0, 72, 96
2, 155648, Note_off_c, 0, 72, 0
2, 155648, Note_on_c, 0, 72, 96
2, 155904, Note_off_c, 0, 72, 0
2, 155904, Note_on_c, 0, 71, 96
2, 156160, Note_off_c, 0, 71, 0
2, 156160, Note_on_c, 0, 71, 96
2, 156416, Note_off_c, 0, 71, 0
2, 156416, Note_on_c, 0, 69, 96
2, 156672, Note_off_c, 0, 69, 0
2, 156672, Note_on_c, 0, 71, 96
2, 156928, Note_off_c, 0, 71, 0
2, 156928, Note_on_c, 0, 73, 96
2, 157184, Note_off_c, 0, 73, 0
2, 157184, Note_on_c, 0, 73, 96
2, 157440, Note_off_c, 0, 73, 0
2, 157440, Note_on_c, 0, 74, 96
2, 157824, Note_off_c, 0, 74, 0
2, 157824, Note_on_c, 0, 76, 96
2, 157952, Note_off_c, 0, 76, 0
2, 157952, Note_on_c, 0, 74, 96
2, 158080, Note_off_c, 0, 74, 0
2, 158080, Note_on_c, 0, 73, 96
2, 158208, Note_off_c, 0, 73, 0
2, 158208, Note_on_c, 0, 74, 96
2, 158464, Note_off_c, 0, 74, 0
2, 158464, Note_on_c, 0, 76, 96
2, 158720, Note_off_c, 0, 76, 0
2, 158720, Note_on_c, 0, 77, 96
2, 158848, Note_off_c, 0, 77, 0
2, 158848, Note_on_c, 0, 76, 96
2, 158976, Note_off_c, 0, 76, 0
2, 158976, Note_on_c, 0, 74, 96
2, 159232, Note_off_c, 0, 74, 0
2, 159232, Note_on_c, 0, 76, 96
2, 159872, Note_off_c, 0, 76, 0
2, 159872, Note_on_c, 0, 77, 96
2, 160000, Note_off_c, 0, 77, 0
2, 160000, Note_on_c, 0, 76, 96
2, 160128, Note_off_c, 0, 76, 0
2, 160128, Note_on_c, 0, 74, 96
2, 160256, Note_off_c, 0, 74, 0
2, 160256, Note_on_c, 0, 76, 96
2, 160384, Note_off_c, 0, 76, 0
2, 160384, Note_on_c, 0, 72, 96
2, 160512, Note_off_c, 0, 72, 0
2, 160512, Note_on_c, 0, 76, 96
2, 160640, Note_off_c, 0, 76, 0
2, 160640, Note_on_c, 0, 77, 96
2, 160768, Note_off_c, 0, 77, 0
2, 160768, Note_on_c, 0, 79, 96
2, 160896, Note_off_c, 0, 79, 0
2, 160896, Note_on_c, 0, 81, 96
2, 161024, Note_off_c, 0, 81, 0
2, 161024, Note_on_c, 0, 79, 96
2, 161152, Note_off_c, 0, 79, 0
2, 161152, Note_on_c, 0, 77, 96
2, 161280, Note_off_c, 0, 77, 0
2, 161280, Note_on_c, 0, 79, 96
2, 161920, Note_off_c, 0, 79, 0
2, 161920, Note_on_c, 0, 81, 96
2, 162048, Note_off_c, 0, 81, 0
2, 162048, Note_on_c, 0, 79, 96
2, 162176, Note_off_c, 0, 79, 0
2, 162176, Note_on_c, 0, 77, 96
2, 162304, Note_off_c, 0, 77, 0
2, 162304, Note_on_c, 0, 79, 96
2, 162944, Note_off_c, 0, 79, 0
2, 162944, Note_on_c, 0, 81, 96
2, 163072, Note_off_c, 0, 81, 0
2, 163072, Note_on_c, 0, 79, 96
2, 163200, Note_off_c, 0, 79, 0
2, 163200, Note_on_c, 0, 77, 96
2, 163328, Note_off_c, 0, 77, 0
2, 163328, Note_on_c, 0, 79, 96
2, 163968, Note_off_c, 0, 79, 0
2, 163968, Note_on_c, 0, 81, 96
2, 164096, Note_off_c, 0, 81, 0
2, 164096, Note_on_c, 0, 79, 96
2, 164224, Note_off_c, 0, 79, 0
2, 164224, Note_on_c, 0, 77, 96
2, 164352, Note_off_c, 0, 77, 0
2, 164352, Note_on_c, 0, 79, 96
2, 164480, Note_off_c, 0, 79, 0
2, 164480, Note_on_c, 0, 77, 96
2, 164608, Note_off_c, 0, 77, 0
2, 164608, Note_on_c, 0, 76, 96
2, 164736, Note_off_c, 0, 76, 0
2, 164736, Note_on_c, 0, 74, 96
2, 164864, Note_off_c, 0, 74, 0
2, 164864, Note_on_c, 0, 76, 96
2, 164992, Note_off_c, 0, 76, 0
2, 164992, Note_on_c, 0, 77, 96
2, 165120, Note_off_c, 0, 77, 0
2, 165120, Note_on_c, 0, 76, 96
2, 165248, Note_off_c, 0, 76, 0
2, 165248, Note_on_c, 0, 74, 96
2, 165376, Note_off_c, 0, 74, 0
2, 165376, Note_on_c, 0, 76, 96
2, 165504, Note_off_c, 0, 76, 0
2, 165504, Note_on_c, 0, 74, 96
2, 165632, Note_off_c, 0, 74, 0
2, 165632, Note_on_c, 0, 72, 96
2, 165760, Note_off_c, 0, 72, 0
2, 165760, Note_on_c, 0, 71, 96
2, 165888, Note_off_c, 0, 71, 0
2, 165888, Note_on_c, 0, 72, 96
2, 167168, Note_off_c, 0, 72, 0
2, 167168, Note_on_c, 0, 74, 96
2, 167296, Note_off_c, 0, 74, 0
2, 167296, Note_on_c, 0, 76, 96
2, 167424, Note_off_c, 0, 76, 0
2, 167424, Note_on_c, 0, 77, 96
2, 167552, Note_off_c, 0, 77, 0
2, 167552, Note_on_c, 0, 79, 96
2, 167680, Note_off_c, 0, 79, 0
2, 167680, Note_on_c, 0, 81, 96
2, 167808, Note_off_c, 0, 81, 0
2, 167808, Note_on_c, 0, 83, 96
2, 167936, Note_off_c, 0, 83, 0
2, 167936, Note_on_c, 0, 84, 96
2, 172032, Note_off_c, 0, 84, 0
2, 172032, End_track
3, 0, Start_track
3, 0, Title_t, "Instrument 2"
3, 2560, Note_on_c, 1, 55, 96
3, 3072, Note_off_c, 1, 55, 0
3, 3072, Note_on_c, 1, 60, 96
3, 3584, Note_off_c, 1, 60, 0
3, 3584, Note_on_c, 1, 64, 96
3, 4096, Note_off_c, 1, 64, 0
3, 4096, Note_on_c, 1, 62, 96
3, 4864, Note_off_c, 1, 62, 0
3, 4864, Note_on_c, 1, 60, 96
3, 5120, Note_off_c, 1, 60, 0
3, 5120, Note_on_c, 1, 62, 96
3, 6656, Note_off_c, 1, 62, 0
3, 6656, Note_on_c, 1, 60, 96
3, 6912, Note_off_c, 1, 60, 0
3, 6912, Note_on_c, 1, 59, 96
3, 7168, Note_off_c, 1, 59, 0
3, 7168, Note_on_c, 1, 57, 96
3, 8704, Note_off_c, 1, 57, 0
3, 10752, Note_on_c, 1, 62, 96
3, 11008, Note_off_c, 1, 62, 0
3, 11008, Note_on_c, 1, 64, 96
3, 11264, Note_off_c, 1, 64, 0
3, 11264, Note_on_c, 1, 62, 96
3, 11776, Note_off_c, 1, 62, 0
3, 11776, Note_on_c, 1, 60, 96
3, 12288, Note_off_c, 1, 60, 0
3, 12288, Note_on_c, 1, 67, 96
3, 12800, Note_off_c, 1, 67, 0
3, 12800, Note_on_c, 1, 59, 96
3, 13056, Note_off_c, 1, 59, 0
3, 13056, Note_on_c, 1, 57, 96
3, 13312, Note_off_c, 1, 57, 0
3, 13312, Note_on_c, 1, 59, 96
3, 13824, Note_off_c, 1, 59, 0
3, 13824, Note_on_c, 1, 55, 96
3, 14848, Note_off_c, 1, 55, 0
3, 14848, Note_on_c, 1, 57, 96
3, 15104, Note_off_c, 1, 57, 0
3, 15104, Note_on_c, 1, 59, 96
3, 15360, Note_off_c, 1, 59, 0
3, 15360, Note_on_c, 1, 52, 96
3, 15872, Note_off_c, 1, 52, 0
3, 15872, Note_on_c, 1, 54, 96
3, 16128, Note_off_c, 1, 54, 0
3, 16128, Note_on_c, 1, 55, 96
3, 16384, Note_off_c, 1, 55, 0
3, 16384, Note_on_c, 1, 54, 96
3, 16896, Note_off_c, 1, 54, 0
3, 16896, Note_on_c, 1, 55, 96
3, 17152, Note_off_c, 1, 55, 0
3, 17152, Note_on_c, 1, 57, 96
3, 17408, Note_off_c, 1, 57, 0
3, 17408, Note_on_c, 1, 59, 96
3, 17920, Note_off_c, 1, 59, 0
3, 17920, Note_on_c, 1, 57, 96
3, 18176, Note_off_c, 1, 57, 0
3, 18176, Note_on_c, 1, 55, 96
3, 18432, Note_off_c, 1, 55, 0
3, 18432, Note_on_c, 1, 60, 96
3, 20480, Note_off_c, 1, 60, 0
3, 20480, Note_on_c, 1, 59, 96
3, 20992, Note_off_c, 1, 59, 0
3, 22016, Note_on_c, 1, 62, 96
3, 22272, Note_off_c, 1, 62, 0
3, 22272, Note_on_c, 1, 60, 96
3, 22528, Note_off_c, 1, 60, 0
3, 22528, Note_on_c, 1, 59, 96
3, 23040, Note_off_c, 1, 59, 0
3, 23040, Note_on_c, 1, 62, 96
3, 23552, Note_off_c, 1, 62, 0
3, 23552, Note_on_c, 1, 55, 96
3, 24064, Note_off_c, 1, 55, 0
3, 25088, Note_on_c, 1, 52, 96
3, 25600, Note_off_c, 1, 52, 0
3, 25600, Note_on_c, 1, 53, 96
3, 27136, Note_off_c, 1, 53, 0
3, 27136, Note_on_c, 1, 55, 96
3, 27392, Note_off_c, 1, 55, 0
3, 27392, Note_on_c, 1, 57, 96
3, 27648, Note_off_c, 1, 57, 0
3, 27648, Note_on_c, 1, 55, 96
3, 28160, Note_off_c, 1, 55, 0
3, 28160, Note_on_c, 1, 53, 96
3, 28672, Note_off_c, 1, 53, 0
3, 28672, Note_on_c, 1, 55, 96
3, 29696, Note_off_c, 1, 55, 0
3, 33280, Note_on_c, 1, 54, 96
3, 33792, Note_off_c, 1, 54, 0
3, 33792, Note_on_c, 1, 55, 96
3, 34304, Note_off_c, 1, 55, 0
3, 34304, Note_on_c, 1, 62, 96
3, 35328, Note_off_c, 1, 62, 0
3, 35328, Note_on_c, 1, 54, 96
3, 35584, Note_off_c, 1, 54, 0
3, 35584, Note_on_c, 1, 55, 96
3, 35712, Note_off_c, 1, 55, 0
3, 35712, Note_on_c, 1, 57, 96
3, 35840, Note_off_c, 1, 57, 0
3, 35840, Note_on_c, 1, 55, 96
3, 36352, Note_off_c, 1, 55, 0
3, 36352, Note_on_c, 1, 64, 96
3, 36864, Note_off_c, 1, 64, 0
3, 36864, Note_on_c, 1, 57, 96
3, 37632, Note_off_c, 1, 57, 0
3, 37632, Note_on_c, 1, 55, 96
3, 37888, Note_off_c, 1, 55, 0
3, 37888, Note_on_c, 1, 57, 96
3, 38400, Note_off_c, 1, 57, 0
3, 38400, Note_on_c, 1, 54, 96
3, 38912, Note_off_c, 1, 54, 0
3, 38912, Note_on_c, 1, 55, 96
3, 39168, Note_off_c, 1, 55, 0
3, 39168, Note_on_c, 1, 57, 96
3, 39424, Note_off_c, 1, 57, 0
3, 39424, Note_on_c, 1, 59, 96
3, 39936, Note_off_c, 1, 59, 0
3, 40192, Note_on_c, 1, 62, 96
3, 40448, Note_off_c, 1, 62, 0
3, 40448, Note_on_c, 1, 60, 96
3, 40704, Note_off_c, 1, 60, 0
3, 40704, Note_on_c, 1, 59, 96
3, 40960, Note_off_c, 1, 59, 0
3, 40960, Note_on_c, 1, 57, 96
3, 41472, Note_off_c, 1, 57, 0
3, 41472, Note_on_c, 1, 64, 96
3, 41984, Note_off_c, 1, 64, 0
3, 41984, Note_on_c, 1, 66, 96
3, 42496, Note_off_c, 1, 66, 0
3, 42496, Note_on_c, 1, 57, 96
3, 43008, Note_off_c, 1, 57, 0
3, 43008, Note_on_c, 1, 55, 96
3, 45056, Note_off_c, 1, 55, 0
3, 45056, Note_on_c, 1, 57, 96
3, 45568, Note_off_c, 1, 57, 0
3, 45568, Note_on_c, 1, 62, 96
3, 45824, Note_off_c, 1, 62, 0
3, 45824, Note_on_c, 1, 64, 96
3, 46080, Note_off_c, 1, 64, 0
3, 46080, Note_on_c, 1, 66, 96
3, 46336, Note_off_c, 1, 66, 0
3, 46336, Note_on_c, 1, 62, 96
3, 46592, Note_off_c, 1, 62, 0
3, 46592, Note_on_c, 1, 67, 96
3, 47104, Note_off_c, 1, 67, 0
3, 47104, Note_on_c, 1, 62, 96
3, 47616, Note_off_c, 1, 62, 0
3, 47616, Note_on_c, 1, 60, 96
3, 47872, Note_off_c, 1, 60, 0
3, 47872, Note_on_c, 1, 59, 96
3, 48128, Note_off_c, 1, 59, 0
3, 48128, Note_on_c, 1, 60, 96
3, 48640, Note_off_c, 1, 60, 0
3, 48640, Note_on_c, 1, 55, 96
3, 49152, Note_off_c, 1, 55, 0
3, 49152, Note_on_c, 1, 57, 96
3, 49664, Note_off_c, 1, 57, 0
3, 49664, Note_on_c, 1, 59, 96
3, 50176, Note_off_c, 1, 59, 0
3, 50176, Note_on_c, 1, 60, 96
3, 50944, Note_off_c, 1, 60, 0
3, 50944, Note_on_c, 1, 58, 96
3, 51200, Note_off_c, 1, 58, 0
3, 51200, Note_on_c, 1, 57, 96
3, 51712, Note_off_c, 1, 57, 0
3, 51712, Note_on_c, 1, 55, 96
3, 52224, Note_off_c, 1, 55, 0
3, 52224, Note_on_c, 1, 53, 96
3, 52736, Note_off_c, 1, 53, 0
3, 52736, Note_on_c, 1, 57, 96
3, 53248, Note_off_c, 1, 57, 0
3, 53248, Note_on_c, 1, 53, 96
3, 53760, Note_off_c, 1, 53, 0
3, 53760, Note_on_c, 1, 50, 96
3, 54272, Note_off_c, 1, 50, 0
3, 54272, Note_on_c, 1, 55, 96
3, 55552, Note_off_c, 1, 55, 0
3, 55552, Note_on_c, 1, 53, 96
3, 55808, Note_off_c, 1, 53, 0
3, 55808, Note_on_c, 1, 55, 96
3, 56320, Note_off_c, 1, 55, 0
3, 56320, Note_on_c, 1, 57, 96
3, 57600, Note_off_c, 1, 57, 0
3, 57600, Note_on_c, 1, 55, 96
3, 57856, Note_off_c, 1, 55, 0
3, 57856, Note_on_c, 1, 57, 96
3, 58368, Note_off_c, 1, 57, 0
3, 58368, Note_on_c, 1, 59, 96
3, 58880, Note_off_c, 1, 59, 0
3, 58880, Note_on_c, 1, 62, 96
3, 59392, Note_off_c, 1, 62, 0
3, 59392, Note_on_c, 1, 55, 96
3, 59904, Note_off_c, 1, 55, 0
3, 59904, Note_on_c, 1, 53, 96
3, 60416, Note_off_c, 1, 53, 0
3, 60416, Note_on_c, 1, 52, 96
3, 60928, Note_off_c, 1, 52, 0
3, 60928, Note_on_c, 1, 55, 96
3, 61952, Note_off_c, 1, 55, 0
3, 61952, Note_on_c, 1, 52, 96
3, 62464, Note_off_c, 1, 52, 0
3, 62464, Note_on_c, 1, 57, 96
3, 62976, Note_off_c, 1, 57, 0
3, 62976, Note_on_c, 1, 55, 96
3, 63232, Note_off_c, 1, 55, 0
3, 63232, Note_on_c, 1, 53, 96
3, 63488, Note_off_c, 1, 53, 0
3, 63488, Note_on_c, 1, 52, 96
3, 64000, Note_off_c, 1, 52, 0
3, 64000, Note_on_c, 1, 60, 96
3, 64512, Note_off_c, 1, 60, 0
3, 64512, Note_on_c, 1, 59, 96
3, 65024, Note_off_c, 1, 59, 0
3, 65024, Note_on_c, 1, 57, 96
3, 65536, Note_off_c, 1, 57, 0
3, 65536, Note_on_c, 1, 55, 96
3, 66048, Note_off_c, 1, 55, 0
3, 68096, Note_on_c, 1, 52, 96
3, 68608, Note_off_c, 1, 52, 0
3, 68608, Note_on_c, 1, 50, 96
3, 69120, Note_off_c, 1, 50, 0
3, 69120, Note_on_c, 1, 48, 96
3, 69632, Note_off_c, 1, 48, 0
3, 69632, Note_on_c, 1, 50, 96
3, 70656, Note_off_c, 1, 50, 0
3, 71168, Note_on_c, 1, 55, 96
3, 71680, Note_off_c, 1, 55, 0
3, 71680, Note_on_c, 1, 50, 96
3, 72704, Note_off_c, 1, 50, 0
3, 73216, Note_on_c, 1, 55, 96
3, 74496, Note_off_c, 1, 55, 0
3, 74496, Note_on_c, 1, 53, 96
3, 74752, Note_off_c, 1, 53, 0
3, 74752, Note_on_c, 1, 52, 96
3, 75008, Note_off_c, 1, 52, 0
3, 75008, Note_on_c, 1, 53, 96
3, 75264, Note_off_c, 1, 53, 0
3, 75264, Note_on_c, 1, 55, 96
3, 76288, Note_off_c, 1, 55, 0
3, 76288, Note_on_c, 1, 54, 96
3, 76544, Note_off_c, 1, 54, 0
3, 76544, Note_on_c, 1, 52, 96
3, 76800, Note_off_c, 1, 52, 0
3, 76800, Note_on_c, 1, 54, 96
3, 77824, Note_off_c, 1, 54, 0
3, 78080, Note_on_c, 1, 50, 96
3, 78336, Note_off_c, 1, 50, 0
3, 78336, Note_on_c, 1, 52, 96
3, 78592, Note_off_c, 1, 52, 0
3, 78592, Note_on_c, 1, 55, 96
3, 78848, Note_off_c, 1, 55, 0
3, 78848, Note_on_c, 1, 59, 96
3, 79104, Note_off_c, 1, 59, 0
3, 79104, Note_on_c, 1, 57, 96
3, 79360, Note_off_c, 1, 57, 0
3, 79616, Note_on_c, 1, 62, 96
3, 79872, Note_off_c, 1, 62, 0
3, 79872, Note_on_c, 1, 60, 96
3, 80384, Note_off_c, 1, 60, 0
3, 80384, Note_on_c, 1, 59, 96
3, 80640, Note_off_c, 1, 59, 0
3, 80640, Note_on_c, 1, 60, 96
3, 80768, Note_off_c, 1, 60, 0
3, 80768, Note_on_c, 1, 62, 96
3, 80896, Note_off_c, 1, 62, 0
3, 80896, Note_on_c, 1, 60, 96
3, 81408, Note_off_c, 1, 60, 0
3, 81408, Note_on_c, 1, 62, 96
3, 81920, Note_off_c, 1, 62, 0
3, 81920, Note_on_c, 1, 60, 96
3, 82432, Note_off_c, 1, 60, 0
3, 83456, Note_on_c, 1, 67, 96
3, 83712, Note_off_c, 1, 67, 0
3, 83712, Note_on_c, 1, 65, 96
3, 83968, Note_off_c, 1, 65, 0
3, 83968, Note_on_c, 1, 64, 96
3, 84992, Note_off_c, 1, 64, 0
3, 84992, Note_on_c, 1, 66, 96
3, 85504, Note_off_c, 1, 66, 0
3, 86272, Note_on_c, 1, 64, 96
3, 86528, Note_off_c, 1, 64, 0
3, 86528, Note_on_c, 1, 62, 96
3, 86784, Note_off_c, 1, 62, 0
3, 86784, Note_on_c, 1, 60, 96
3, 87040, Note_off_c, 1, 60, 0
3, 87040, Note_on_c, 1, 62, 96
3, 87552, Note_off_c, 1, 62, 0
3, 88832, Note_on_c, 1, 65, 96
3, 89088, Note_off_c, 1, 65, 0
3, 89088, Note_on_c, 1, 67, 96
3, 89344, Note_off_c, 1, 67, 0
3, 89344, Note_on_c, 1, 70, 96
3, 89600, Note_off_c, 1, 70, 0
3, 89600, Note_on_c, 1, 69, 96
3, 90368, Note_off_c, 1, 69, 0
3, 90368, Note_on_c, 1, 67, 96
3, 90624, Note_off_c, 1, 67, 0
3, 90624, Note_on_c, 1, 65, 96
3, 90880, Note_off_c, 1, 65, 0
3, 90880, Note_on_c, 1, 64, 96
3, 91136, Note_off_c, 1, 64, 0
3, 91136, Note_on_c, 1, 62, 96
3, 91392, Note_off_c, 1, 62, 0
3, 91392, Note_on_c, 1, 64, 96
3, 91648, Note_off_c, 1, 64, 0
3, 91648, Note_on_c, 1, 65, 96
3, 92672, Note_off_c, 1, 65, 0
3, 92672, Note_on_c, 1, 69, 96
3, 93184, Note_off_c, 1, 69, 0
3, 93184, Note_on_c, 1, 62, 96
3, 93696, Note_off_c, 1, 62, 0
3, 93696, Note_on_c, 1, 60, 96
3, 94208, Note_off_c, 1, 60, 0
3, 94208, Note_on_c, 1, 62, 96
3, 94720, Note_off_c, 1, 62, 0
3, 94720, Note_on_c, 1, 55, 96
3, 95232, Note_off_c, 1, 55, 0
3, 95744, Note_on_c, 1, 57, 96
3, 96256, Note_off_c, 1, 57, 0
3, 96256, Note_on_c, 1, 55, 96
3, 96768, Note_off_c, 1, 55, 0
3, 96768, Note_on_c, 1, 60, 96
3, 97280, Note_off_c, 1, 60, 0
3, 97280, Note_on_c, 1, 53, 96
3, 97792, Note_off_c, 1, 53, 0
3, 97792, Note_on_c, 1, 57, 96
3, 98816, Note_off_c, 1, 57, 0
3, 98816, Note_on_c, 1, 59, 96
3, 99328, Note_off_c, 1, 59, 0
3, 99328, Note_on_c, 1, 60, 96
3, 99840, Note_off_c, 1, 60, 0
3, 99840, Note_on_c, 1, 59, 96
3, 100352, Note_off_c, 1, 59, 0
3, 100608, Note_on_c, 1, 55, 96
3, 101120, Note_off_c, 1, 55, 0
3, 101120, Note_on_c, 1, 53, 96
3, 101376, Note_off_c, 1, 53, 0
3, 101376, Note_on_c, 1, 55, 96
3, 102400, Note_off_c, 1, 55, 0
3, 102400, Note_on_c, 1, 53, 96
3, 102912, Note_off_c, 1, 53, 0
3, 102912, Note_on_c, 1, 48, 96
3, 103424, Note_off_c, 1, 48, 0
3, 103424, Note_on_c, 1, 50, 96
3, 103936, Note_off_c, 1, 50, 0
3, 103936, Note_on_c, 1, 52, 96
3, 104448, Note_off_c, 1, 52, 0
3, 104448, Note_on_c, 1, 53, 96
3, 104960, Note_off_c, 1, 53, 0
3, 105984, Note_on_c, 1, 48, 96
3, 106496, Note_off_c, 1, 48, 0
3, 106496, Note_on_c, 1, 50, 96
3, 107008, Note_off_c, 1, 50, 0
3, 107008, Note_on_c, 1, 59, 96
3, 107520, Note_off_c, 1, 59, 0
3, 107520, Note_on_c, 1, 57, 96
3, 108544, Note_off_c, 1, 57, 0
3, 108544, Note_on_c, 1, 55, 96
3, 110848, Note_off_c, 1, 55, 0
3, 110848, Note_on_c, 1, 48, 96
3, 111104, Note_off_c, 1, 48, 0
3, 111104, Note_on_c, 1, 50, 96
3, 111616, Note_off_c, 1, 50, 0
3, 111616, Note_on_c, 1, 52, 96
3, 113152, Note_off_c, 1, 52, 0
3, 113152, Note_on_c, 1, 57, 96
3, 113920, Note_off_c, 1, 57, 0
3, 113920, Note_on_c, 1, 55, 96
3, 114176, Note_off_c, 1, 55, 0
3, 114176, Note_on_c, 1, 53, 96
3, 114432, Note_off_c, 1, 53, 0
3, 114432, Note_on_c, 1, 52, 96
3, 114688, Note_off_c, 1, 52, 0
3, 114688, Note_on_c, 1, 50, 96
3, 115200, Note_off_c, 1, 50, 0
3, 115200, Note_on_c, 1, 55, 96
3, 115712, Note_off_c, 1, 55, 0
3, 115712, Note_on_c, 1, 52, 96
3, 115968, Note_off_c, 1, 52, 0
3, 115968, Note_on_c, 1, 55, 96
3, 116224, Note_off_c, 1, 55, 0
3, 116224, Note_on_c, 1, 59, 96
3, 116480, Note_off_c, 1, 59, 0
3, 116480, Note_on_c, 1, 60, 96
3, 116736, Note_off_c, 1, 60, 0
3, 116736, Note_on_c, 1, 59, 96
3, 117248, Note_off_c, 1, 59, 0
3, 117248, Note_on_c, 1, 50, 96
3, 117760, Note_off_c, 1, 50, 0
3, 117760, Note_on_c, 1, 55, 96
3, 118272, Note_off_c, 1, 55, 0
3, 119296, Note_on_c, 1, 47, 96
3, 119808, Note_off_c, 1, 47, 0
3, 119808, Note_on_c, 1, 48, 96
3, 120320, Note_off_c, 1, 48, 0
3, 120320, Note_on_c, 1, 50, 96
3, 120832, Note_off_c, 1, 50, 0
3, 120832, Note_on_c, 1, 52, 96
3, 121088, Note_off_c, 1, 52, 0
3, 121088, Note_on_c, 1, 57, 96
3, 121344, Note_off_c, 1, 57, 0
3, 121344, Note_on_c, 1, 55, 96
3, 121600, Note_off_c, 1, 55, 0
3, 121600, Note_on_c, 1, 53, 96
3, 121856, Note_off_c, 1, 53, 0
3, 121856, Note_on_c, 1, 55, 96
3, 122368, Note_off_c, 1, 55, 0
3, 122368, Note_on_c, 1, 62, 96
3, 122880, Note_off_c, 1, 62, 0
3, 122880, Note_on_c, 1, 55, 96
3, 123392, Note_off_c, 1, 55, 0
3, 123392, Note_on_c, 1, 53, 96
3, 124160, Note_off_c, 1, 53, 0
3, 124160, Note_on_c, 1, 52, 96
3, 124416, Note_off_c, 1, 52, 0
3, 126208, Note_on_c, 1, 64, 96
3, 126464, Note_off_c, 1, 64, 0
3, 126464, Note_on_c, 1, 62, 96
3, 126720, Note_off_c, 1, 62, 0
3, 126720, Note_on_c, 1, 60, 96
3, 126976, Note_off_c, 1, 60, 0
3, 126976, Note_on_c, 1, 62, 96
3, 127232, Note_off_c, 1, 62, 0
3, 127232, Note_on_c, 1, 59, 96
3, 127488, Note_off_c, 1, 59, 0
3, 127488, Note_on_c, 1, 60, 96
3, 127744, Note_off_c, 1, 60, 0
3, 127744, Note_on_c, 1, 62, 96
3, 128000, Note_off_c, 1, 62, 0
3, 128000, Note_on_c, 1, 64, 96
3, 128512, Note_off_c, 1, 64, 0
3, 128512, Note_on_c, 1, 62, 96
3, 129536, Note_off_c, 1, 62, 0
3, 129536, Note_on_c, 1, 60, 96
3, 130048, Note_off_c, 1, 60, 0
3, 130048, Note_on_c, 1, 65, 96
3, 130560, Note_off_c, 1, 65, 0
3, 130560, Note_on_c, 1, 64, 96
3, 131072, Note_off_c, 1, 64, 0
3, 131072, Note_on_c, 1, 69, 96
3, 132608, Note_off_c, 1, 69, 0
3, 132608, Note_on_c, 1, 68, 96
3, 132736, Note_off_c, 1, 68, 0
3, 132736, Note_on_c, 1, 65, 96
3, 132864, Note_off_c, 1, 65, 0
3, 132864, Note_on_c, 1, 64, 96
3, 132992, Note_off_c, 1, 64, 0
3, 132992, Note_on_c, 1, 62, 96
3, 133120, Note_off_c, 1, 62, 0
3, 133120, Note_on_c, 1, 64, 96
3, 134144, Note_off_c, 1, 64, 0
3, 134400, Note_on_c, 1, 67, 96
3, 134656, Note_off_c, 1, 67, 0
3, 134656, Note_on_c, 1, 69, 96
3, 134912, Note_off_c, 1, 69, 0
3, 134912, Note_on_c, 1, 71, 96
3, 135168, Note_off_c, 1, 71, 0
3, 135168, Note_on_c, 1, 64, 96
3, 136448, Note_off_c, 1, 64, 0
3, 136448, Note_on_c, 1, 60, 96
3, 136704, Note_off_c, 1, 60, 0
3, 136704, Note_on_c, 1, 62, 96
3, 136960, Note_off_c, 1, 62, 0
3, 136960, Note_on_c, 1, 64, 96
3, 137216, Note_off_c, 1, 64, 0
3, 137216, Note_on_c, 1, 57, 96
3, 138240, Note_off_c, 1, 57, 0
3, 138752, Note_on_c, 1, 61, 96
3, 139264, Note_off_c, 1, 61, 0
3, 139264, Note_on_c, 1, 62, 96
3, 139776, Note_off_c, 1, 62, 0
3, 139776, Note_on_c, 1, 53, 96
3, 140800, Note_off_c, 1, 53, 0
3, 140800, Note_on_c, 1, 52, 96
3, 141312, Note_off_c, 1, 52, 0
3, 141312, Note_on_c, 1, 53, 96
3, 141824, Note_off_c, 1, 53, 0
3, 141824, Note_on_c, 1, 55, 96
3, 142336, Note_off_c, 1, 55, 0
3, 142336, Note_on_c, 1, 57, 96
3, 142848, Note_off_c, 1, 57, 0
3, 142848, Note_on_c, 1, 64, 96
3, 143872, Note_off_c, 1, 64, 0
3, 143872, Note_on_c, 1, 59, 96
3, 144384, Note_off_c, 1, 59, 0
3, 144384, Note_on_c, 1, 60, 96
3, 144896, Note_off_c, 1, 60, 0
3, 144896, Note_on_c, 1, 67, 96
3, 145664, Note_off_c, 1, 67, 0
3, 145664, Note_on_c, 1, 64, 96
3, 145920, Note_off_c, 1, 64, 0
3, 145920, Note_on_c, 1, 69, 96
3, 146688, Note_off_c, 1, 69, 0
3, 146688, Note_on_c, 1, 67, 96
3, 146944, Note_off_c, 1, 67, 0
3, 146944, Note_on_c, 1, 69, 96
3, 147456, Note_off_c, 1, 69, 0
3, 147456, Note_on_c, 1, 67, 96
3, 147968, Note_off_c, 1, 67, 0
3, 147968, Note_on_c, 1, 62, 96
3, 148480, Note_off_c, 1, 62, 0
3, 148480, Note_on_c, 1, 59, 96
3, 148992, Note_off_c, 1, 59, 0
3, 148992, Note_on_c, 1, 64, 96
3, 150016, Note_off_c, 1, 64, 0
3, 150016, Note_on_c, 1, 62, 96
3, 150528, Note_off_c, 1, 62, 0
3, 150528, Note_on_c, 1, 60, 96
3, 151040, Note_off_c, 1, 60, 0
3, 151040, Note_on_c, 1, 59, 96
3, 151296, Note_off_c, 1, 59, 0
3, 151296, Note_on_c, 1, 60, 96
3, 151552, Note_off_c, 1, 60, 0
3, 151552, Note_on_c, 1, 59, 96
3, 152064, Note_off_c, 1, 59, 0
3, 152064, Note_on_c, 1, 50, 96
3, 152576, Note_off_c, 1, 50, 0
3, 152576, Note_on_c, 1, 48, 96
3, 153088, Note_off_c, 1, 48, 0
3, 153088, Note_on_c, 1, 53, 96
3, 153600, Note_off_c, 1, 53, 0
3, 153600, Note_on_c, 1, 52, 96
3, 154112, Note_off_c, 1, 52, 0
3, 154112, Note_on_c, 1, 48, 96
3, 154624, Note_off_c, 1, 48, 0
3, 154624, Note_on_c, 1, 50, 96
3, 155136, Note_off_c, 1, 50, 0
3, 155136, Note_on_c, 1, 52, 96
3, 155648, Note_off_c, 1, 52, 0
3, 155648, Note_on_c, 1, 53, 96
3, 156160, Note_off_c, 1, 53, 0
3, 156160, Note_on_c, 1, 50, 96
3, 156672, Note_off_c, 1, 50, 0
3, 157184, Note_on_c, 1, 58, 96
3, 158208, Note_off_c, 1, 58, 0
3, 158208, Note_on_c, 1, 57, 96
3, 158720, Note_off_c, 1, 57, 0
3, 158720, Note_on_c, 1, 60, 96
3, 159232, Note_off_c, 1, 60, 0
3, 159232, Note_on_c, 1, 59, 96
3, 159744, Note_off_c, 1, 59, 0
3, 159744, Note_on_c, 1, 60, 96
3, 160256, Note_off_c, 1, 60, 0
3, 161408, Note_on_c, 1, 55, 96
3, 161536, Note_off_c, 1, 55, 0
3, 161536, Note_on_c, 1, 57, 96
3, 161664, Note_off_c, 1, 57, 0
3, 161664, Note_on_c, 1, 59, 96
3, 161792, Note_off_c, 1, 59, 0
3, 161792, Note_on_c, 1, 60, 96
3, 162048, Note_off_c, 1, 60, 0
3, 162048, Note_on_c, 1, 64, 96
3, 162304, Note_off_c, 1, 64, 0
3, 162304, Note_on_c, 1, 62, 96
3, 162560, Note_off_c, 1, 62, 0
3, 162560, Note_on_c, 1, 65, 96
3, 162816, Note_off_c, 1, 65, 0
3, 162816, Note_on_c, 1, 64, 96
3, 163072, Note_off_c, 1, 64, 0
3, 163072, Note_on_c, 1, 60, 96
3, 163328, Note_off_c, 1, 60, 0
3, 163328, Note_on_c, 1, 62, 96
3, 163584, Note_off_c, 1, 62, 0
3, 163584, Note_on_c, 1, 59, 96
3, 163840, Note_off_c, 1, 59, 0
3, 163840, Note_on_c, 1, 60, 96
3, 164096, Note_off_c, 1, 60, 0
3, 164096, Note_on_c, 1, 57, 96
3, 164352, Note_off_c, 1, 57, 0
3, 164352, Note_on_c, 1, 58, 96
3, 165120, Note_off_c, 1, 58, 0
3, 165120, Note_on_c, 1, 55, 96
3, 165376, Note_off_c, 1, 55, 0
3, 165376, Note_on_c, 1, 56, 96
3, 165888, Note_off_c, 1, 56, 0
3, 165888, Note_on_c, 1, 55, 96
3, 166144, Note_off_c, 1, 55, 0
3, 166144, Note_on_c, 1, 60, 96
3, 166400, Note_off_c, 1, 60, 0
3, 166400, Note_on_c, 1, 59, 96
3, 166656, Note_off_c, 1, 59, 0
3, 166656, Note_on_c, 1, 57, 96
3, 166912, Note_off_c, 1, 57, 0
3, 166912, Note_on_c, 1, 55, 96
3, 167424, Note_off_c, 1, 55, 0
3, 167424, Note_on_c, 1, 53, 96
3, 167936, Note_off_c, 1, 53, 0
3, 167936, Note_on_c, 1, 55, 96
3, 172032, Note_off_c, 1, 55, 0
3, 172032, End_track
4, 0, Start_track
4, 0, Title_t, "Instrument 3"
4, 1024, Note_on_c, 2, 48, 96
4, 2048, Note_off_c, 2, 48, 0
4, 2048, Note_on_c, 2, 52, 96
4, 3072, Note_off_c, 2, 52, 0
4, 3072, Note_on_c, 2, 57, 96
4, 5120, Note_off_c, 2, 57, 0
4, 5120, Note_on_c, 2, 55, 96
4, 7168, Note_off_c, 2, 55, 0
4, 7168, Note_on_c, 2, 54, 96
4, 7680, Note_off_c, 2, 54, 0
4, 7680, Note_on_c, 2, 52, 96
4, 8192, Note_off_c, 2, 52, 0
4, 8192, Note_on_c, 2, 54, 96
4, 8448, Note_off_c, 2, 54, 0
4, 8448, Note_on_c, 2, 55, 96
4, 8704, Note_off_c, 2, 55, 0
4, 8704, Note_on_c, 2, 57, 96
4, 8960, Note_off_c, 2, 57, 0
4, 8960, Note_on_c, 2, 59, 96
4, 9216, Note_off_c, 2, 59, 0
4, 9216, Note_on_c, 2, 60, 96
4, 11264, Note_off_c, 2, 60, 0
4, 11264, Note_on_c, 2, 59, 96
4, 11776, Note_off_c, 2, 59, 0
4, 11776, Note_on_c, 2, 57, 96
4, 12288, Note_off_c, 2, 57, 0
4, 12288, Note_on_c, 2, 59, 96
4, 12800, Note_off_c, 2, 59, 0
4, 12800, Note_on_c, 2, 55, 96
4, 13312, Note_off_c, 2, 55, 0
4, 13312, Note_on_c, 2, 52, 96
4, 15360, Note_off_c, 2, 52, 0
4, 15360, Note_on_c, 2, 50, 96
4, 15872, Note_off_c, 2, 50, 0
4, 15872, Note_on_c, 2, 48, 96
4, 16384, Note_off_c, 2, 48, 0
4, 16384, Note_on_c, 2, 50, 96
4, 17408, Note_off_c, 2, 50, 0
4, 18944, Note_on_c, 2, 50, 96
4, 19456, Note_off_c, 2, 50, 0
4, 19456, Note_on_c, 2, 52, 96
4, 19968, Note_off_c, 2, 52, 0
4, 19968, Note_on_c, 2, 54, 96
4, 20480, Note_off_c, 2, 54, 0
4, 20480, Note_on_c, 2, 55, 96
4, 20992, Note_off_c, 2, 55, 0
4, 20992, Note_on_c, 2, 50, 96
4, 21504, Note_off_c, 2, 50, 0
4, 21504, Note_on_c, 2, 55, 96
4, 23040, Note_off_c, 2, 55, 0
4, 23040, Note_on_c, 2, 57, 96
4, 23296, Note_off_c, 2, 57, 0
4, 23296, Note_on_c, 2, 55, 96
4, 23552, Note_off_c, 2, 55, 0
4, 23552, Note_on_c, 2, 53, 96
4, 24064, Note_off_c, 2, 53, 0
4, 24064, Note_on_c, 2, 52, 96
4, 24576, Note_off_c, 2, 52, 0
4, 24576, Note_on_c, 2, 50, 96
4, 25088, Note_off_c, 2, 50, 0
4, 25088, Note_on_c, 2, 48, 96
4, 25600, Note_off_c, 2, 48, 0
4, 25600, Note_on_c, 2, 50, 96
4, 26112, Note_off_c, 2, 50, 0
4, 26112, Note_on_c, 2, 52, 96
4, 26624, Note_off_c, 2, 52, 0
4, 26624, Note_on_c, 2, 50, 96
4, 27136, Note_off_c, 2, 50, 0
4, 27136, Note_on_c, 2, 53, 96
4, 27648, Note_off_c, 2, 53, 0
4, 27648, Note_on_c, 2, 52, 96
4, 28160, Note_off_c, 2, 52, 0
4, 28160, Note_on_c, 2, 50, 96
4, 28672, Note_off_c, 2, 50, 0
4, 28672, Note_on_c, 2, 48, 96
4, 29184, Note_off_c, 2, 48, 0
4, 29184, Note_on_c, 2, 52, 96
4, 29696, Note_off_c, 2, 52, 0
4, 29696, Note_on_c, 2, 54, 96
4, 30208, Note_off_c, 2, 54, 0
4, 30208, Note_on_c, 2, 55, 96
4, 30720, Note_off_c, 2, 55, 0
4, 30720, Note_on_c, 2, 57, 96
4, 31232, Note_off_c, 2, 57, 0
4, 31232, Note_on_c, 2, 52, 96
4, 31744, Note_off_c, 2, 52, 0
4, 31744, Note_on_c, 2, 57, 96
4, 33280, Note_off_c, 2, 57, 0
4, 33280, Note_on_c, 2, 50, 96
4, 33792, Note_off_c, 2, 50, 0
4, 33792, Note_on_c, 2, 52, 96
4, 34304, Note_off_c, 2, 52, 0
4, 34304, Note_on_c, 2, 54, 96
4, 34816, Note_off_c, 2, 54, 0
4, 34816, Note_on_c, 2, 55, 96
4, 35328, Note_off_c, 2, 55, 0
4, 35328, Note_on_c, 2, 50, 96
4, 35840, Note_off_c, 2, 50, 0
4, 35840, Note_on_c, 2, 55, 96
4, 37376, Note_off_c, 2, 55, 0
4, 37376, Note_on_c, 2, 54, 96
4, 37632, Note_off_c, 2, 54, 0
4, 37632, Note_on_c, 2, 52, 96
4, 37888, Note_off_c, 2, 52, 0
4, 37888, Note_on_c, 2, 54, 96
4, 38400, Note_off_c, 2, 54, 0
4, 38400, Note_on_c, 2, 50, 96
4, 38912, Note_off_c, 2, 50, 0
4, 38912, Note_on_c, 2, 55, 96
4, 39424, Note_off_c, 2, 55, 0
4, 39424, Note_on_c, 2, 50, 96
4, 39936, Note_off_c, 2, 50, 0
4, 39936, Note_on_c, 2, 57, 96
4, 41472, Note_off_c, 2, 57, 0
4, 41472, Note_on_c, 2, 55, 96
4, 41984, Note_off_c, 2, 55, 0
4, 41984, Note_on_c, 2, 57, 96
4, 42496, Note_off_c, 2, 57, 0
4, 42496, Note_on_c, 2, 54, 96
4, 43008, Note_off_c, 2, 54, 0
4, 43008, Note_on_c, 2, 55, 96
4, 43520, Note_off_c, 2, 55, 0
4, 43520, Note_on_c, 2, 50, 96
4, 44032, Note_off_c, 2, 50, 0
4, 44032, Note_on_c, 2, 53, 96
4, 44544, Note_off_c, 2, 53, 0
4, 44544, Note_on_c, 2, 52, 96
4, 45056, Note_off_c, 2, 52, 0
4, 45056, Note_on_c, 2, 53, 96
4, 45312, Note_off_c, 2, 53, 0
4, 45312, Note_on_c, 2, 52, 96
4, 45568, Note_off_c, 2, 52, 0
4, 45568, Note_on_c, 2, 50, 96
4, 46080, Note_off_c, 2, 50, 0
4, 46080, Note_on_c, 2, 59, 96
4, 47616, Note_off_c, 2, 59, 0
4, 47616, Note_on_c, 2, 55, 96
4, 48128, Note_off_c, 2, 55, 0
4, 48128, Note_on_c, 2, 60, 96
4, 48640, Note_off_c, 2, 60, 0
4, 48640, Note_on_c, 2, 52, 96
4, 49152, Note_off_c, 2, 52, 0
4, 49152, Note_on_c, 2, 53, 96
4, 49664, Note_off_c, 2, 53, 0
4, 49664, Note_on_c, 2, 55, 96
4, 50176, Note_off_c, 2, 55, 0
4, 50176, Note_on_c, 2, 57, 96
4, 50688, Note_off_c, 2, 57, 0
4, 50688, Note_on_c, 2, 55, 96
4, 51200, Note_off_c, 2, 55, 0
4, 51200, Note_on_c, 2, 53, 96
4, 51712, Note_off_c, 2, 53, 0
4, 51712, Note_on_c, 2, 52, 96
4, 52224, Note_off_c, 2, 52, 0
4, 52224, Note_on_c, 2, 50, 96
4, 52736, Note_off_c, 2, 50, 0
4, 52736, Note_on_c, 2, 48, 96
4, 53248, Note_off_c, 2, 48, 0
4, 53248, Note_on_c, 2, 50, 96
4, 53760, Note_off_c, 2, 50, 0
4, 53760, Note_on_c, 2, 48, 96
4, 54272, Note_off_c, 2, 48, 0
4, 54272, Note_on_c, 2, 47, 96
4, 54784, Note_off_c, 2, 47, 0
4, 54784, Note_on_c, 2, 48, 96
4, 55296, Note_off_c, 2, 48, 0
4, 55296, Note_on_c, 2, 50, 96
4, 55808, Note_off_c, 2, 50, 0
4, 55808, Note_on_c, 2, 52, 96
4, 56320, Note_off_c, 2, 52, 0
4, 56320, Note_on_c, 2, 53, 96
4, 56832, Note_off_c, 2, 53, 0
4, 56832, Note_on_c, 2, 50, 96
4, 57344, Note_off_c, 2, 50, 0
4, 57344, Note_on_c, 2, 52, 96
4, 57856, Note_off_c, 2, 52, 0
4, 57856, Note_on_c, 2, 53, 96
4, 58368, Note_off_c, 2, 53, 0
4, 58368, Note_on_c, 2, 55, 96
4, 58880, Note_off_c, 2, 55, 0
4, 58880, Note_on_c, 2, 53, 96
4, 59392, Note_off_c, 2, 53, 0
4, 59392, Note_on_c, 2, 52, 96
4, 59904, Note_off_c, 2, 52, 0
4, 59904, Note_on_c, 2, 50, 96
4, 60416, Note_off_c, 2, 50, 0
4, 60416, Note_on_c, 2, 48, 96
4, 60928, Note_off_c, 2, 48, 0
4, 60928, Note_on_c, 2, 47, 96
4, 61440, Note_off_c, 2, 47, 0
4, 61440, Note_on_c, 2, 48, 96
4, 61952, Note_off_c, 2, 48, 0
4, 61952, Note_on_c, 2, 47, 96
4, 62464, Note_off_c, 2, 47, 0
4, 62464, Note_on_c, 2, 45, 96
4, 62976, Note_off_c, 2, 45, 0
4, 62976, Note_on_c, 2, 47, 96
4, 63488, Note_off_c, 2, 47, 0
4, 63488, Note_on_c, 2, 48, 96
4, 64000, Note_off_c, 2, 48, 0
4, 64000, Note_on_c, 2, 52, 96
4, 64512, Note_off_c, 2, 52, 0
4, 64512, Note_on_c, 2, 50, 96
4, 65024, Note_off_c, 2, 50, 0
4, 65024, Note_on_c, 2, 48, 96
4, 65536, Note_off_c, 2, 48, 0
4, 65536, Note_on_c, 2, 47, 96
4, 66048, Note_off_c, 2, 47, 0
4, 66048, Note_on_c, 2, 48, 96
4, 66560, Note_off_c, 2, 48, 0
4, 66560, Note_on_c, 2, 50, 96
4, 68096, Note_off_c, 2, 50, 0
4, 68096, Note_on_c, 2, 48, 96
4, 68608, Note_off_c, 2, 48, 0
4, 68608, Note_on_c, 2, 47, 96
4, 69120, Note_off_c, 2, 47, 0
4, 69120, Note_on_c, 2, 45, 96
4, 69632, Note_off_c, 2, 45, 0
4, 69632, Note_on_c, 2, 47, 96
4, 69888, Note_off_c, 2, 47, 0
4, 69888, Note_on_c, 2, 45, 96
4, 70144, Note_off_c, 2, 45, 0
4, 70144, Note_on_c, 2, 43, 96
4, 70400, Note_off_c, 2, 43, 0
4, 70400, Note_on_c, 2, 45, 96
4, 70656, Note_off_c, 2, 45, 0
4, 70656, Note_on_c, 2, 47, 96
4, 72192, Note_off_c, 2, 47, 0
4, 72192, Note_on_c, 2, 43, 96
4, 72704, Note_off_c, 2, 43, 0
4, 72704, Note_on_c, 2, 45, 96
4, 73216, Note_off_c, 2, 45, 0
4, 73216, Note_on_c, 2, 47, 96
4, 73728, Note_off_c, 2, 47, 0
4, 73728, Note_on_c, 2, 48, 96
4, 74240, Note_off_c, 2, 48, 0
4, 74240, Note_on_c, 2, 47, 96
4, 74752, Note_off_c, 2, 47, 0
4, 74752, Note_on_c, 2, 48, 96
4, 76288, Note_off_c, 2, 48, 0
4, 76288, Note_on_c, 2, 45, 96
4, 76800, Note_off_c, 2, 45, 0
4, 76800, Note_on_c, 2, 50, 96
4, 77312, Note_off_c, 2, 50, 0
4, 77312, Note_on_c, 2, 48, 96
4, 77824, Note_off_c, 2, 48, 0
4, 77824, Note_on_c, 2, 47, 96
4, 78336, Note_off_c, 2, 47, 0
4, 78336, Note_on_c, 2, 48, 96
4, 78848, Note_off_c, 2, 48, 0
4, 78848, Note_on_c, 2, 50, 96
4, 79360, Note_off_c, 2, 50, 0
4, 79360, Note_on_c, 2, 52, 96
4, 79872, Note_off_c, 2, 52, 0
4, 79872, Note_on_c, 2, 54, 96
4, 80384, Note_off_c, 2, 54, 0
4, 80384, Note_on_c, 2, 56, 96
4, 80896, Note_off_c, 2, 56, 0
4, 80896, Note_on_c, 2, 57, 96
4, 81408, Note_off_c, 2, 57, 0
4, 81408, Note_on_c, 2, 59, 96
4, 81920, Note_off_c, 2, 59, 0
4, 81920, Note_on_c, 2, 60, 96
4, 82176, Note_off_c, 2, 60, 0
4, 82176, Note_on_c, 2, 62, 96
4, 82432, Note_off_c, 2, 62, 0
4, 82432, Note_on_c, 2, 60, 96
4, 82688, Note_off_c, 2, 60, 0
4, 82688, Note_on_c, 2, 59, 96
4, 82944, Note_off_c, 2, 59, 0
4, 82944, Note_on_c, 2, 60, 96
4, 84480, Note_off_c, 2, 60, 0
4, 84480, Note_on_c, 2, 59, 96
4, 84736, Note_off_c, 2, 59, 0
4, 84736, Note_on_c, 2, 57, 96
4, 84992, Note_off_c, 2, 57, 0
4, 84992, Note_on_c, 2, 62, 96
4, 85504, Note_off_c, 2, 62, 0
4, 85504, Note_on_c, 2, 60, 96
4, 86016, Note_off_c, 2, 60, 0
4, 86016, Note_on_c, 2, 59, 96
4, 86272, Note_off_c, 2, 59, 0
4, 86272, Note_on_c, 2, 60, 96
4, 86528, Note_off_c, 2, 60, 0
4, 86528, Note_on_c, 2, 59, 96
4, 86784, Note_off_c, 2, 59, 0
4, 86784, Note_on_c, 2, 57, 96
4, 87040, Note_off_c, 2, 57, 0
4, 87040, Note_on_c, 2, 59, 96
4, 87552, Note_off_c, 2, 59, 0
4, 87552, Note_on_c, 2, 59, 96
4, 88576, Note_off_c, 2, 59, 0
4, 88576, Note_on_c, 2, 62, 96
4, 89600, Note_off_c, 2, 62, 0
4, 89600, Note_on_c, 2, 61, 96
4, 90112, Note_off_c, 2, 61, 0
4, 90112, Note_on_c, 2, 62, 96
4, 92672, Note_off_c, 2, 62, 0
4, 92672, Note_on_c, 2, 60, 96
4, 93184, Note_off_c, 2, 60, 0
4, 93184, Note_on_c, 2, 59, 96
4, 93696, Note_off_c, 2, 59, 0
4, 93696, Note_on_c, 2, 57, 96
4, 94208, Note_off_c, 2, 57, 0
4, 94208, Note_on_c, 2, 55, 96
4, 94720, Note_off_c, 2, 55, 0
4, 94720, Note_on_c, 2, 53, 96
4, 94976, Note_off_c, 2, 53, 0
4, 94976, Note_on_c, 2, 52, 96
4, 95232, Note_off_c, 2, 52, 0
4, 95232, Note_on_c, 2, 53, 96
4, 96768, Note_off_c, 2, 53, 0
4, 96768, Note_on_c, 2, 52, 96
4, 97280, Note_off_c, 2, 52, 0
4, 97280, Note_on_c, 2, 50, 96
4, 97792, Note_off_c, 2, 50, 0
4, 97792, Note_on_c, 2, 48, 96
4, 98304, Note_off_c, 2, 48, 0
4, 98304, Note_on_c, 2, 50, 96
4, 98816, Note_off_c, 2, 50, 0
4, 98816, Note_on_c, 2, 53, 96
4, 99328, Note_off_c, 2, 53, 0
4, 99328, Note_on_c, 2, 52, 96
4, 99840, Note_off_c, 2, 52, 0
4, 99840, Note_on_c, 2, 50, 96
4, 100352, Note_off_c, 2, 50, 0
4, 100352, Note_on_c, 2, 48, 96
4, 100864, Note_off_c, 2, 48, 0
4, 100864, Note_on_c, 2, 50, 96
4, 101376, Note_off_c, 2, 50, 0
4, 101376, Note_on_c, 2, 52, 96
4, 102912, Note_off_c, 2, 52, 0
4, 102912, Note_on_c, 2, 45, 96
4, 103424, Note_off_c, 2, 45, 0
4, 103424, Note_on_c, 2, 47, 96
4, 103936, Note_off_c, 2, 47, 0
4, 103936, Note_on_c, 2, 48, 96
4, 104448, Note_off_c, 2, 48, 0
4, 104448, Note_on_c, 2, 50, 96
4, 104960, Note_off_c, 2, 50, 0
4, 104960, Note_on_c, 2, 52, 96
4, 105472, Note_off_c, 2, 52, 0
4, 105472, Note_on_c, 2, 53, 96
4, 105984, Note_off_c, 2, 53, 0
4, 105984, Note_on_c, 2, 45, 96
4, 106496, Note_off_c, 2, 45, 0
4, 106496, Note_on_c, 2, 47, 96
4, 107008, Note_off_c, 2, 47, 0
4, 107008, Note_on_c, 2, 55, 96
4, 108032, Note_off_c, 2, 55, 0
4, 108032, Note_on_c, 2, 53, 96
4, 109056, Note_off_c, 2, 53, 0
4, 109056, Note_on_c, 2, 55, 96
4, 109312, Note_off_c, 2, 55, 0
4, 109312, Note_on_c, 2, 53, 96
4, 109568, Note_off_c, 2, 53, 0
4, 109568, Note_on_c, 2, 52, 96
4, 109824, Note_off_c, 2, 52, 0
4, 109824, Note_on_c, 2, 50, 96
4, 110080, Note_off_c, 2, 50, 0
4, 110080, Note_on_c, 2, 48, 96
4, 110336, Note_off_c, 2, 48, 0
4, 110336, Note_on_c, 2, 47, 96
4, 110592, Note_off_c, 2, 47, 0
4, 110592, Note_on_c, 2, 45, 96
4, 111104, Note_off_c, 2, 45, 0
4, 111104, Note_on_c, 2, 50, 96
4, 112128, Note_off_c, 2, 50, 0
4, 112128, Note_on_c, 2, 48, 96
4, 113152, Note_off_c, 2, 48, 0
4, 113152, Note_on_c, 2, 53, 96
4, 113408, Note_off_c, 2, 53, 0
4, 113408, Note_on_c, 2, 55, 96
4, 113664, Note_off_c, 2, 55, 0
4, 113664, Note_on_c, 2, 53, 96
4, 113920, Note_off_c, 2, 53, 0
4, 113920, Note_on_c, 2, 52, 96
4, 114176, Note_off_c, 2, 52, 0
4, 114176, Note_on_c, 2, 50, 96
4, 114432, Note_off_c, 2, 50, 0
4, 114432, Note_on_c, 2, 48, 96
4, 114688, Note_off_c, 2, 48, 0
4, 114688, Note_on_c, 2, 47, 96
4, 115200, Note_off_c, 2, 47, 0
4, 115200, Note_on_c, 2, 48, 96
4, 116224, Note_off_c, 2, 48, 0
4, 116224, Note_on_c, 2, 50, 96
4, 117248, Note_off_c, 2, 50, 0
4, 117248, Note_on_c, 2, 47, 96
4, 117760, Note_off_c, 2, 47, 0
4, 117760, Note_on_c, 2, 43, 96
4, 118272, Note_off_c, 2, 43, 0
4, 118272, Note_on_c, 2, 47, 96
4, 118784, Note_off_c, 2, 47, 0
4, 118784, Note_on_c, 2, 36, 96
4, 119296, Note_off_c, 2, 36, 0
4, 119296, Note_on_c, 2, 43, 96
4, 119808, Note_off_c, 2, 43, 0
4, 119808, Note_on_c, 2, 45, 96
4, 120320, Note_off_c, 2, 45, 0
4, 120320, Note_on_c, 2, 47, 96
4, 120832, Note_off_c, 2, 47, 0
4, 120832, Note_on_c, 2, 48, 96
4, 121344, Note_off_c, 2, 48, 0
4, 121344, Note_on_c, 2, 50, 96
4, 121856, Note_off_c, 2, 50, 0
4, 121856, Note_on_c, 2, 52, 96
4, 122368, Note_off_c, 2, 52, 0
4, 122368, Note_on_c, 2, 53, 96
4, 122880, Note_off_c, 2, 53, 0
4, 122880, Note_on_c, 2, 52, 96
4, 123392, Note_off_c, 2, 52, 0
4, 123392, Note_on_c, 2, 50, 96
4, 123904, Note_off_c, 2, 50, 0
4, 123904, Note_on_c, 2, 48, 96
4, 124416, Note_off_c, 2, 48, 0
4, 124416, Note_on_c, 2, 50, 96
4, 124928, Note_off_c, 2, 50, 0
4, 124928, Note_on_c, 2, 52, 96
4, 125440, Note_off_c, 2, 52, 0
4, 125440, Note_on_c, 2, 53, 96
4, 125952, Note_off_c, 2, 53, 0
4, 125952, Note_on_c, 2, 55, 96
4, 126464, Note_off_c, 2, 55, 0
4, 126464, Note_on_c, 2, 57, 96
4, 126976, Note_off_c, 2, 57, 0
4, 126976, Note_on_c, 2, 55, 96
4, 127488, Note_off_c, 2, 55, 0
4, 127488, Note_on_c, 2, 53, 96
4, 128000, Note_off_c, 2, 53, 0
4, 128000, Note_on_c, 2, 52, 96
4, 128512, Note_off_c, 2, 52, 0
4, 128512, Note_on_c, 2, 54, 96
4, 129024, Note_off_c, 2, 54, 0
4, 129024, Note_on_c, 2, 55, 96
4, 129536, Note_off_c, 2, 55, 0
4, 129536, Note_on_c, 2, 57, 96
4, 130048, Note_off_c, 2, 57, 0
4, 130048, Note_on_c, 2, 59, 96
4, 130560, Note_off_c, 2, 59, 0
4, 130560, Note_on_c, 2, 60, 96
4, 131072, Note_off_c, 2, 60, 0
4, 131072, Note_on_c, 2, 62, 96
4, 131584, Note_off_c, 2, 62, 0
4, 131584, Note_on_c, 2, 60, 96
4, 131840, Note_off_c, 2, 60, 0
4, 131840, Note_on_c, 2, 59, 96
4, 132096, Note_off_c, 2, 59, 0
4, 132096, Note_on_c, 2, 57, 96
4, 133632, Note_off_c, 2, 57, 0
4, 133632, Note_on_c, 2, 59, 96
4, 133888, Note_off_c, 2, 59, 0
4, 133888, Note_on_c, 2, 60, 96
4, 134144, Note_off_c, 2, 60, 0
4, 134144, Note_on_c, 2, 59, 96
4, 134656, Note_off_c, 2, 59, 0
4, 134656, Note_on_c, 2, 60, 96
4, 134912, Note_off_c, 2, 60, 0
4, 134912, Note_on_c, 2, 62, 96
4, 135168, Note_off_c, 2, 62, 0
4, 135168, Note_on_c, 2, 56, 96
4, 135680, Note_off_c, 2, 56, 0
4, 135680, Note_on_c, 2, 57, 96
4, 135936, Note_off_c, 2, 57, 0
4, 135936, Note_on_c, 2, 59, 96
4, 136192, Note_off_c, 2, 59, 0
4, 136192, Note_on_c, 2, 57, 96
4, 137216, Note_off_c, 2, 57, 0
4, 137728, Note_on_c, 2, 55, 96
4, 138240, Note_off_c, 2, 55, 0
4, 138240, Note_on_c, 2, 53, 96
4, 138752, Note_off_c, 2, 53, 0
4, 138752, Note_on_c, 2, 52, 96
4, 139264, Note_off_c, 2, 52, 0
4, 139264, Note_on_c, 2, 50, 96
4, 139776, Note_off_c, 2, 50, 0
4, 139776, Note_on_c, 2, 48, 96
4, 140288, Note_off_c, 2, 48, 0
4, 140288, Note_on_c, 2, 47, 96
4, 140800, Note_off_c, 2, 47, 0
4, 140800, Note_on_c, 2, 48, 96
4, 141312, Note_off_c, 2, 48, 0
4, 141312, Note_on_c, 2, 50, 96
4, 141824, Note_off_c, 2, 50, 0
4, 141824, Note_on_c, 2, 52, 96
4, 142336, Note_off_c, 2, 52, 0
4, 142336, Note_on_c, 2, 53, 96
4, 142848, Note_off_c, 2, 53, 0
4, 142848, Note_on_c, 2, 55, 96
4, 143360, Note_off_c, 2, 55, 0
4, 143360, Note_on_c, 2, 57, 96
4, 143872, Note_off_c, 2, 57, 0
4, 143872, Note_on_c, 2, 55, 96
4, 144384, Note_off_c, 2, 55, 0
4, 144384, Note_on_c, 2, 57, 96
4, 144896, Note_off_c, 2, 57, 0
4, 144896, Note_on_c, 2, 59, 96
4, 145408, Note_off_c, 2, 59, 0
4, 145408, Note_on_c, 2, 60, 96
4, 145920, Note_off_c, 2, 60, 0
4, 145920, Note_on_c, 2, 59, 96
4, 146176, Note_off_c, 2, 59, 0
4, 146176, Note_on_c, 2, 57, 96
4, 146432, Note_off_c, 2, 57, 0
4, 146432, Note_on_c, 2, 62, 96
4, 146944, Note_off_c, 2, 62, 0
4, 146944, Note_on_c, 2, 62, 96
4, 147456, Note_off_c, 2, 62, 0
4, 147456, Note_on_c, 2, 55, 96
4, 147712, Note_off_c, 2, 55, 0
4, 147712, Note_on_c, 2, 57, 96
4, 147968, Note_off_c, 2, 57, 0
4, 147968, Note_on_c, 2, 55, 96
4, 148224, Note_off_c, 2, 55, 0
4, 148224, Note_on_c, 2, 54, 96
4, 148480, Note_off_c, 2, 54, 0
4, 148480, Note_on_c, 2, 55, 96
4, 150016, Note_off_c, 2, 55, 0
4, 150016, Note_on_c, 2, 53, 96
4, 150528, Note_off_c, 2, 53, 0
4, 150528, Note_on_c, 2, 52, 96
4, 151040, Note_off_c, 2, 52, 0
4, 151040, Note_on_c, 2, 50, 96
4, 151552, Note_off_c, 2, 50, 0
4, 151552, Note_on_c, 2, 52, 96
4, 151808, Note_off_c, 2, 52, 0
4, 151808, Note_on_c, 2, 50, 96
4, 152064, Note_off_c, 2, 50, 0
4, 152064, Note_on_c, 2, 48, 96
4, 152320, Note_off_c, 2, 48, 0
4, 152320, Note_on_c, 2, 47, 96
4, 152576, Note_off_c, 2, 47, 0
4, 152576, Note_on_c, 2, 48, 96
4, 154112, Note_off_c, 2, 48, 0
4, 154112, Note_on_c, 2, 45, 96
4, 154624, Note_off_c, 2, 45, 0
4, 154624, Note_on_c, 2, 47, 96
4, 155136, Note_off_c, 2, 47, 0
4, 155136, Note_on_c, 2, 48, 96
4, 155648, Note_off_c, 2, 48, 0
4, 155648, Note_on_c, 2, 50, 96
4, 156160, Note_off_c, 2, 50, 0
4, 156160, Note_on_c, 2, 43, 96
4, 156672, Note_off_c, 2, 43, 0
4, 156672, Note_on_c, 2, 55, 96
4, 158208, Note_off_c, 2, 55, 0
4, 158208, Note_on_c, 2, 54, 96
4, 158720, Note_off_c, 2, 54, 0
4, 158720, Note_on_c, 2, 57, 96
4, 159232, Note_off_c, 2, 57, 0
4, 159232, Note_on_c, 2, 56, 96
4, 159744, Note_off_c, 2, 56, 0
4, 159744, Note_on_c, 2, 57, 96
4, 160256, Note_off_c, 2, 57, 0
4, 160256, Note_on_c, 2, 45, 96
4, 160768, Note_off_c, 2, 45, 0
4, 160768, Note_on_c, 2, 52, 96
4, 162048, Note_off_c, 2, 52, 0
4, 162048, Note_on_c, 2, 60, 96
4, 162304, Note_off_c, 2, 60, 0
4, 162304, Note_on_c, 2, 59, 96
4, 162560, Note_off_c, 2, 59, 0
4, 162560, Note_on_c, 2, 57, 96
4, 162816, Note_off_c, 2, 57, 0
4, 162816, Note_on_c, 2, 55, 96
4, 163328, Note_off_c, 2, 55, 0
4, 163328, Note_on_c, 2, 53, 96
4, 163840, Note_off_c, 2, 53, 0
4, 163840, Note_on_c, 2, 52, 96
4, 166144, Note_off_c, 2, 52, 0
4, 166144, Note_on_c, 2, 57, 96
4, 166400, Note_off_c, 2, 57, 0
4, 166400, Note_on_c, 2, 55, 96
4, 166656, Note_off_c, 2, 55, 0
4, 166656, Note_on_c, 2, 53, 96
4, 166912, Note_off_c, 2, 53, 0
4, 166912, Note_on_c, 2, 52, 96
4, 167424, Note_off_c, 2, 52, 0
4, 167424, Note_on_c, 2, 50, 96
4, 167936, Note_off_c, 2, 50, 0
4, 167936, Note_on_c, 2, 48, 96
4, 167936, Note_on_c, 2, 52, 96
4, 172032, Note_off_c, 2, 48, 0
4, 172032, Note_off_c, 2, 52, 0
4, 172032, End_track
5, 0, Start_track
5, 0, Title_t, "Instrument 4"
5, 14336, Note_on_c, 3, 60, 96
5, 16384, Note_off_c, 3, 60, 0
5, 16384, Note_on_c, 3, 59, 96
5, 18432, Note_off_c, 3, 59, 0
5, 18432, Note_on_c, 3, 57, 96
5, 20480, Note_off_c, 3, 57, 0
5, 20480, Note_on_c, 3, 59, 96
5, 22528, Note_off_c, 3, 59, 0
5, 22528, Note_on_c, 3, 55, 96
5, 24576, Note_off_c, 3, 55, 0
5, 24576, Note_on_c, 3, 57, 96
5, 26624, Note_off_c, 3, 57, 0
5, 26624, Note_on_c, 3, 59, 96
5, 28672, Note_off_c, 3, 59, 0
5, 28672, Note_on_c, 3, 60, 96
5, 30720, Note_off_c, 3, 60, 0
5, 59392, Note_on_c, 3, 60, 96
5, 61440, Note_off_c, 3, 60, 0
5, 61440, Note_on_c, 3, 60, 96
5, 63488, Note_off_c, 3, 60, 0
5, 63488, Note_on_c, 3, 55, 96
5, 65536, Note_off_c, 3, 55, 0
5, 65536, Note_on_c, 3, 55, 96
5, 67072, Note_off_c, 3, 55, 0
5, 67072, Note_on_c, 3, 53, 96
5, 67584, Note_off_c, 3, 53, 0
5, 67584, Note_on_c, 3, 52, 96
5, 69120, Note_off_c, 3, 52, 0
5, 69120, Note_on_c, 3, 53, 96
5, 69632, Note_off_c, 3, 53, 0
5, 69632, Note_on_c, 3, 55, 96
5, 71680, Note_off_c, 3, 55, 0
5, 71680, Note_on_c, 3, 53, 96
5, 73728, Note_off_c, 3, 53, 0
5, 73728, Note_on_c, 3, 52, 96
5, 75776, Note_off_c, 3, 52, 0
5, 100352, Note_on_c, 3, 52, 96
5, 102400, Note_off_c, 3, 52, 0
5, 102400, Note_on_c, 3, 57, 96
5, 104448, Note_off_c, 3, 57, 0
5, 104448, Note_on_c, 3, 57, 96
5, 106496, Note_off_c, 3, 57, 0
5, 106496, Note_on_c, 3, 55, 96
5, 107520, Note_off_c, 3, 55, 0
5, 107520, Note_on_c, 3, 57, 96
5, 108544, Note_off_c, 3, 57, 0
5, 108544, Note_on_c, 3, 59, 96
5, 110592, Note_off_c, 3, 59, 0
5, 110592, Note_on_c, 3, 60, 96
5, 111616, Note_off_c, 3, 60, 0
5, 111616, Note_on_c, 3, 59, 96
5, 112640, Note_off_c, 3, 59, 0
5, 112640, Note_on_c, 3, 57, 96
5, 114688, Note_off_c, 3, 57, 0
5, 114688, Note_on_c, 3, 55, 96
5, 116736, Note_off_c, 3, 55, 0
5, 145408, Note_on_c, 3, 60, 96
5, 147456, Note_off_c, 3, 60, 0
5, 147456, Note_on_c, 3, 59, 96
5, 149504, Note_off_c, 3, 59, 0
5, 149504, Note_on_c, 3, 57, 96
5, 151552, Note_off_c, 3, 57, 0
5, 151552, Note_on_c, 3, 55, 96
5, 153600, Note_off_c, 3, 55, 0
5, 153600, Note_on_c, 3, 57, 96
5, 155136, Note_off_c, 3, 57, 0
5, 155136, Note_on_c, 3, 55, 96
5, 155648, Note_off_c, 3, 55, 0
5, 155648, Note_on_c, 3, 53, 96
5, 157184, Note_off_c, 3, 53, 0
5, 157184, Note_on_c, 3, 52, 96
5, 157696, Note_off_c, 3, 52, 0
5, 157696, Note_on_c, 3, 50, 96
5, 159744, Note_off_c, 3, 50, 0
5, 159744, Note_on_c, 3, 48, 96
5, 172032, Note_off_c, 3, 48, 0
5, 172032, End_track
0, 0, End_of_file
