0, 0, Header, 0, 1, 960
1, 0, Start_track
1, 0, Title_t, "Rondo in Bb"
1, 0, Title_t, "from ""Anna Magdalena's Notebook"""
1, 0, Text_t, "Composed by Francois Couperin\012"
1, 0, Text_t, "Programmed for MIDI by Lory Werths\012"
1, 0, Text_t, "Frantois Couperin was a favorite of Johann Sebastian Bach's, so it is not surprising that one of his compositions was put into Magdalena's Notebook.\012"
1, 0, Time_signature, 6, 3, 12, 8
1, 0, Key_signature, -2, "major"
1, 0, Tempo, 857143
1, 0, Control_c, 0, 0, 0
1, 0, Control_c, 0, 7, 110
1, 0, Control_c, 0, 10, 32
1, 0, Control_c, 0, 7, 110
1, 0, Control_c, 0, 10, 32
1, 0, Control_c, 1, 0, 0
1, 0, Control_c, 1, 7, 105
1, 0, Control_c, 1, 10, 95
1, 0, Control_c, 1, 7, 105
1, 0, Control_c, 1, 10, 95
1, 1, Control_c, 1, 32, 8
1, 1, Control_c, 0, 32, 8
1, 2, Program_c, 1, 6
1, 2, Program_c, 0, 6
1, 14, Control_c, 0, 0, 8
1, 14, Control_c, 1, 0, 8
1, 16, Program_c, 0, 6
1, 16, Program_c, 1, 6
1, 1440, Note_on_c, 0, 74, 100
1, 1440, Note_on_c, 1, 58, 100
1, 1560, Note_on_c, 0, 74, 0
1, 1560, Note_on_c, 0, 72, 100
1, 1680, Note_on_c, 0, 72, 0
1, 1680, Note_on_c, 0, 74, 100
1, 1920, Note_on_c, 1, 58, 0
1, 1920, Note_on_c, 1, 65, 100
1, 2392, Note_on_c, 0, 74, 0
1, 2400, Note_on_c, 1, 65, 0
1, 2400, Note_on_c, 0, 72, 100
1, 2400, Note_on_c, 1, 60, 100
1, 2464, Note_on_c, 0, 72, 0
1, 2464, Note_on_c, 0, 74, 100
1, 2520, Note_on_c, 0, 74, 0
1, 2520, Note_on_c, 0, 72, 100
1, 2640, Note_on_c, 1, 60, 0
1, 2640, Note_on_c, 1, 65, 100
1, 2880, Note_on_c, 1, 65, 0
1, 2880, Note_on_c, 0, 72, 0
1, 2880, Note_on_c, 0, 70, 100
1, 2880, Note_on_c, 1, 62, 100
1, 3120, Note_on_c, 0, 70, 0
1, 3120, Note_on_c, 0, 69, 100
1, 3360, Note_on_c, 0, 69, 0
1, 3360, Note_on_c, 1, 62, 0
1, 3360, Note_on_c, 0, 70, 100
1, 3360, Note_on_c, 1, 65, 100
1, 3600, Note_on_c, 0, 70, 0
1, 3600, Note_on_c, 0, 72, 100
1, 3664, Note_on_c, 0, 72, 0
1, 3664, Note_on_c, 0, 70, 100
1, 3720, Note_on_c, 0, 70, 0
1, 3720, Note_on_c, 0, 72, 100
1, 3840, Note_on_c, 0, 72, 0
1, 3840, Note_on_c, 1, 65, 0
1, 3840, Note_on_c, 0, 70, 100
1, 3840, Note_on_c, 1, 60, 100
1, 4080, Note_on_c, 1, 60, 0
1, 4080, Note_on_c, 0, 70, 0
1, 4080, Note_on_c, 0, 72, 100
1, 4080, Note_on_c, 1, 65, 100
1, 4312, Note_on_c, 0, 72, 0
1, 4320, Note_on_c, 1, 65, 0
1, 4320, Note_on_c, 0, 72, 100
1, 4320, Note_on_c, 1, 58, 100
1, 4800, Note_on_c, 1, 58, 0
1, 4800, Note_on_c, 0, 72, 0
1, 4800, Note_on_c, 0, 74, 100
1, 4800, Note_on_c, 1, 65, 100
1, 5272, Note_on_c, 0, 74, 0
1, 5280, Note_on_c, 1, 65, 0
1, 5280, Note_on_c, 0, 72, 100
1, 5280, Note_on_c, 1, 57, 100
1, 5400, Note_on_c, 0, 72, 0
1, 5400, Note_on_c, 0, 74, 100
1, 5520, Note_on_c, 0, 74, 0
1, 5520, Note_on_c, 1, 57, 0
1, 5520, Note_on_c, 0, 75, 100
1, 5520, Note_on_c, 1, 65, 100
1, 5752, Note_on_c, 1, 65, 0
1, 5752, Note_on_c, 0, 75, 0
1, 5760, Note_on_c, 0, 75, 100
1, 5760, Note_on_c, 1, 58, 100
1, 5880, Note_on_c, 0, 75, 0
1, 5880, Note_on_c, 0, 74, 100
1, 5960, Note_on_c, 1, 58, 0
1, 6000, Note_on_c, 0, 74, 0
1, 6000, Note_on_c, 0, 75, 100
1, 6120, Note_on_c, 0, 75, 0
1, 6120, Note_on_c, 0, 74, 100
1, 6240, Note_on_c, 0, 74, 0
1, 6240, Note_on_c, 0, 75, 100
1, 6240, Note_on_c, 1, 65, 100
1, 6360, Note_on_c, 0, 75, 0
1, 6360, Note_on_c, 0, 74, 100
1, 6440, Note_on_c, 1, 65, 0
1, 6480, Note_on_c, 0, 74, 0
1, 6480, Note_on_c, 0, 72, 100
1, 6600, Note_on_c, 0, 72, 0
1, 6600, Note_on_c, 0, 74, 100
1, 6720, Note_on_c, 0, 74, 0
1, 6720, Note_on_c, 0, 72, 100
1, 6720, Note_on_c, 0, 69, 100
1, 6720, Note_on_c, 1, 53, 100
1, 6920, Note_on_c, 1, 53, 0
1, 7192, Note_on_c, 0, 69, 0
1, 7192, Note_on_c, 0, 72, 0
1, 7200, Note_on_c, 0, 74, 100
1, 7200, Note_on_c, 1, 58, 100
1, 7440, Note_on_c, 1, 58, 0
1, 7440, Note_on_c, 0, 74, 0
1, 7440, Note_on_c, 0, 75, 100
1, 7440, Note_on_c, 1, 60, 100
1, 7680, Note_on_c, 1, 60, 0
1, 7680, Note_on_c, 0, 75, 0
1, 7680, Note_on_c, 0, 77, 100
1, 7680, Note_on_c, 1, 62, 100
1, 7920, Note_on_c, 1, 62, 0
1, 7920, Note_on_c, 1, 58, 100
1, 8160, Note_on_c, 1, 58, 0
1, 8160, Note_on_c, 0, 77, 0
1, 8160, Note_on_c, 0, 72, 100
1, 8160, Note_on_c, 1, 57, 100
1, 8400, Note_on_c, 1, 57, 0
1, 8400, Note_on_c, 1, 60, 100
1, 8632, Note_on_c, 1, 60, 0
1, 8632, Note_on_c, 0, 72, 0
1, 8640, Note_on_c, 0, 74, 100
1, 8640, Note_on_c, 1, 58, 100
1, 8880, Note_on_c, 1, 58, 0
1, 8880, Note_on_c, 0, 74, 0
1, 8880, Note_on_c, 0, 75, 100
1, 8880, Note_on_c, 1, 60, 100
1, 9120, Note_on_c, 1, 60, 0
1, 9120, Note_on_c, 0, 75, 0
1, 9120, Note_on_c, 0, 77, 100
1, 9120, Note_on_c, 1, 62, 100
1, 9360, Note_on_c, 1, 62, 0
1, 9360, Note_on_c, 0, 77, 0
1, 9360, Note_on_c, 0, 75, 100
1, 9360, Note_on_c, 1, 60, 100
1, 9600, Note_on_c, 1, 60, 0
1, 9600, Note_on_c, 0, 75, 0
1, 9600, Note_on_c, 0, 74, 100
1, 9600, Note_on_c, 1, 58, 100
1, 9840, Note_on_c, 1, 58, 0
1, 9840, Note_on_c, 0, 74, 0
1, 9840, Note_on_c, 0, 72, 100
1, 9840, Note_on_c, 1, 57, 100
1, 10080, Note_on_c, 1, 57, 0
1, 10080, Note_on_c, 0, 72, 0
1, 10080, Note_on_c, 0, 70, 100
1, 10080, Note_on_c, 1, 55, 100
1, 10320, Note_on_c, 1, 55, 0
1, 10320, Note_on_c, 1, 58, 100
1, 10552, Note_on_c, 0, 70, 0
1, 10560, Note_on_c, 1, 58, 0
1, 10560, Note_on_c, 0, 72, 100
1, 10560, Note_on_c, 1, 57, 100
1, 10800, Note_on_c, 1, 57, 0
1, 10800, Note_on_c, 0, 72, 0
1, 10800, Note_on_c, 0, 74, 100
1, 10800, Note_on_c, 1, 60, 100
1, 10920, Note_on_c, 0, 74, 0
1, 10920, Note_on_c, 0, 75, 100
1, 11040, Note_on_c, 0, 75, 0
1, 11040, Note_on_c, 1, 60, 0
1, 11040, Note_on_c, 0, 74, 100
1, 11040, Note_on_c, 1, 58, 100
1, 11280, Note_on_c, 1, 58, 0
1, 11280, Note_on_c, 1, 46, 100
1, 11512, Note_on_c, 0, 74, 0
1, 11520, Note_on_c, 1, 46, 0
1, 11520, Note_on_c, 0, 72, 100
1, 11520, Note_on_c, 1, 53, 100
1, 11640, Note_on_c, 0, 72, 0
1, 11640, Note_on_c, 0, 74, 100
1, 11760, Note_on_c, 0, 74, 0
1, 11760, Note_on_c, 1, 53, 0
1, 11760, Note_on_c, 0, 72, 100
1, 11760, Note_on_c, 1, 52, 100
1, 12000, Note_on_c, 1, 52, 0
1, 12000, Note_on_c, 1, 53, 100
1, 12240, Note_on_c, 1, 53, 0
1, 12240, Note_on_c, 1, 55, 100
1, 12480, Note_on_c, 1, 55, 0
1, 12480, Note_on_c, 1, 57, 100
1, 12720, Note_on_c, 1, 57, 0
1, 12720, Note_on_c, 1, 53, 100
1, 12952, Note_on_c, 1, 53, 0
1, 12952, Note_on_c, 0, 72, 0
1, 12960, Note_on_c, 0, 74, 100
1, 12960, Note_on_c, 1, 58, 100
1, 13080, Note_on_c, 0, 74, 0
1, 13080, Note_on_c, 0, 72, 100
1, 13200, Note_on_c, 0, 72, 0
1, 13200, Note_on_c, 0, 74, 100
1, 13440, Note_on_c, 1, 58, 0
1, 13440, Note_on_c, 1, 65, 100
1, 13912, Note_on_c, 0, 74, 0
1, 13920, Note_on_c, 1, 65, 0
1, 13920, Note_on_c, 0, 72, 100
1, 13920, Note_on_c, 1, 60, 100
1, 13984, Note_on_c, 0, 72, 0
1, 13984, Note_on_c, 0, 74, 100
1, 14040, Note_on_c, 0, 74, 0
1, 14040, Note_on_c, 0, 72, 100
1, 14160, Note_on_c, 1, 60, 0
1, 14160, Note_on_c, 1, 65, 100
1, 14400, Note_on_c, 1, 65, 0
1, 14400, Note_on_c, 0, 72, 0
1, 14400, Note_on_c, 0, 70, 100
1, 14400, Note_on_c, 1, 62, 100
1, 14640, Note_on_c, 0, 70, 0
1, 14640, Note_on_c, 0, 69, 100
1, 14880, Note_on_c, 0, 69, 0
1, 14880, Note_on_c, 1, 62, 0
1, 14880, Note_on_c, 0, 70, 100
1, 14880, Note_on_c, 1, 65, 100
1, 15120, Note_on_c, 0, 70, 0
1, 15120, Note_on_c, 0, 72, 100
1, 15184, Note_on_c, 0, 72, 0
1, 15184, Note_on_c, 0, 70, 100
1, 15240, Note_on_c, 0, 70, 0
1, 15240, Note_on_c, 0, 72, 100
1, 15360, Note_on_c, 0, 72, 0
1, 15360, Note_on_c, 1, 65, 0
1, 15360, Note_on_c, 0, 70, 100
1, 15360, Note_on_c, 1, 60, 100
1, 15600, Note_on_c, 1, 60, 0
1, 15600, Note_on_c, 0, 70, 0
1, 15600, Note_on_c, 0, 72, 100
1, 15600, Note_on_c, 1, 65, 100
1, 15832, Note_on_c, 0, 72, 0
1, 15840, Note_on_c, 1, 65, 0
1, 15840, Note_on_c, 0, 72, 100
1, 15840, Note_on_c, 1, 58, 100
1, 16320, Note_on_c, 1, 58, 0
1, 16320, Note_on_c, 0, 72, 0
1, 16320, Note_on_c, 0, 74, 100
1, 16320, Note_on_c, 1, 65, 100
1, 16792, Note_on_c, 0, 74, 0
1, 16800, Note_on_c, 1, 65, 0
1, 16800, Note_on_c, 0, 72, 100
1, 16800, Note_on_c, 1, 57, 100
1, 16920, Note_on_c, 0, 72, 0
1, 16920, Note_on_c, 0, 74, 100
1, 17040, Note_on_c, 0, 74, 0
1, 17040, Note_on_c, 1, 57, 0
1, 17040, Note_on_c, 0, 75, 100
1, 17040, Note_on_c, 1, 65, 100
1, 17272, Note_on_c, 1, 65, 0
1, 17272, Note_on_c, 0, 75, 0
1, 17280, Note_on_c, 0, 75, 100
1, 17280, Note_on_c, 1, 58, 100
1, 17400, Note_on_c, 0, 75, 0
1, 17400, Note_on_c, 0, 74, 100
1, 17480, Note_on_c, 1, 58, 0
1, 17520, Note_on_c, 0, 74, 0
1, 17520, Note_on_c, 0, 75, 100
1, 17640, Note_on_c, 0, 75, 0
1, 17640, Note_on_c, 0, 74, 100
1, 17760, Note_on_c, 0, 74, 0
1, 17760, Note_on_c, 0, 75, 100
1, 17760, Note_on_c, 1, 65, 100
1, 17880, Note_on_c, 0, 75, 0
1, 17880, Note_on_c, 0, 74, 100
1, 17960, Note_on_c, 1, 65, 0
1, 18000, Note_on_c, 0, 74, 0
1, 18000, Note_on_c, 0, 72, 100
1, 18120, Note_on_c, 0, 72, 0
1, 18120, Note_on_c, 0, 74, 100
1, 18240, Note_on_c, 0, 74, 0
1, 18240, Note_on_c, 0, 72, 100
1, 18240, Note_on_c, 0, 69, 100
1, 18240, Note_on_c, 1, 53, 100
1, 18440, Note_on_c, 1, 53, 0
1, 18712, Note_on_c, 0, 69, 0
1, 18712, Note_on_c, 0, 72, 0
1, 18720, Note_on_c, 0, 74, 100
1, 18720, Note_on_c, 1, 58, 100
1, 18960, Note_on_c, 1, 58, 0
1, 18960, Note_on_c, 0, 74, 0
1, 18960, Note_on_c, 0, 75, 100
1, 18960, Note_on_c, 1, 60, 100
1, 19200, Note_on_c, 1, 60, 0
1, 19200, Note_on_c, 0, 75, 0
1, 19200, Note_on_c, 0, 77, 100
1, 19200, Note_on_c, 1, 62, 100
1, 19440, Note_on_c, 1, 62, 0
1, 19440, Note_on_c, 1, 58, 100
1, 19680, Note_on_c, 1, 58, 0
1, 19680, Note_on_c, 0, 77, 0
1, 19680, Note_on_c, 0, 72, 100
1, 19680, Note_on_c, 1, 57, 100
1, 19920, Note_on_c, 1, 57, 0
1, 19920, Note_on_c, 1, 60, 100
1, 20152, Note_on_c, 1, 60, 0
1, 20152, Note_on_c, 0, 72, 0
1, 20160, Note_on_c, 0, 74, 100
1, 20160, Note_on_c, 1, 58, 100
1, 20400, Note_on_c, 1, 58, 0
1, 20400, Note_on_c, 0, 74, 0
1, 20400, Note_on_c, 0, 75, 100
1, 20400, Note_on_c, 1, 60, 100
1, 20640, Note_on_c, 1, 60, 0
1, 20640, Note_on_c, 0, 75, 0
1, 20640, Note_on_c, 0, 77, 100
1, 20640, Note_on_c, 1, 62, 100
1, 20880, Note_on_c, 1, 62, 0
1, 20880, Note_on_c, 0, 77, 0
1, 20880, Note_on_c, 0, 75, 100
1, 20880, Note_on_c, 1, 60, 100
1, 21120, Note_on_c, 1, 60, 0
1, 21120, Note_on_c, 0, 75, 0
1, 21120, Note_on_c, 0, 74, 100
1, 21120, Note_on_c, 1, 58, 100
1, 21360, Note_on_c, 1, 58, 0
1, 21360, Note_on_c, 0, 74, 0
1, 21360, Note_on_c, 0, 72, 100
1, 21360, Note_on_c, 1, 57, 100
1, 21600, Note_on_c, 1, 57, 0
1, 21600, Note_on_c, 0, 72, 0
1, 21600, Note_on_c, 0, 70, 100
1, 21600, Note_on_c, 1, 55, 100
1, 21840, Note_on_c, 1, 55, 0
1, 21840, Note_on_c, 1, 58, 100
1, 22072, Note_on_c, 0, 70, 0
1, 22080, Note_on_c, 1, 58, 0
1, 22080, Note_on_c, 0, 72, 100
1, 22080, Note_on_c, 1, 57, 100
1, 22320, Note_on_c, 1, 57, 0
1, 22320, Note_on_c, 0, 72, 0
1, 22320, Note_on_c, 0, 74, 100
1, 22320, Note_on_c, 1, 60, 100
1, 22440, Note_on_c, 0, 74, 0
1, 22440, Note_on_c, 0, 75, 100
1, 22560, Note_on_c, 0, 75, 0
1, 22560, Note_on_c, 1, 60, 0
1, 22560, Note_on_c, 0, 74, 100
1, 22560, Note_on_c, 1, 58, 100
1, 22800, Note_on_c, 1, 58, 0
1, 22800, Note_on_c, 1, 46, 100
1, 23032, Note_on_c, 0, 74, 0
1, 23040, Note_on_c, 1, 46, 0
1, 23040, Note_on_c, 0, 72, 100
1, 23040, Poly_aftertouch_c, 0, 60, 0
1, 23040, Note_on_c, 1, 53, 100
1, 23040, Poly_aftertouch_c, 1, 60, 0
1, 23280, Note_on_c, 1, 53, 0
1, 23280, Note_on_c, 1, 52, 100
1, 23520, Note_on_c, 1, 52, 0
1, 23520, Note_on_c, 1, 53, 100
1, 23760, Note_on_c, 1, 53, 0
1, 23760, Note_on_c, 1, 55, 100
1, 24000, Note_on_c, 1, 55, 0
1, 24000, Note_on_c, 1, 53, 100
1, 24240, Note_on_c, 1, 53, 0
1, 24240, Note_on_c, 1, 51, 100
1, 24472, Note_on_c, 1, 51, 0
1, 24472, Note_on_c, 0, 72, 0
1, 24480, Note_on_c, 0, 77, 100
1, 24480, Note_on_c, 1, 50, 100
1, 24720, Note_on_c, 1, 50, 0
1, 24720, Note_on_c, 1, 58, 100
1, 24960, Note_on_c, 1, 58, 0
1, 24960, Note_on_c, 1, 57, 100
1, 25200, Note_on_c, 1, 57, 0
1, 25200, Note_on_c, 1, 58, 100
1, 25432, Note_on_c, 0, 77, 0
1, 25440, Note_on_c, 1, 58, 0
1, 25440, Note_on_c, 0, 70, 100
1, 25440, Note_on_c, 1, 50, 100
1, 25504, Note_on_c, 0, 70, 0
1, 25504, Note_on_c, 0, 69, 100
1, 25560, Note_on_c, 0, 69, 0
1, 25560, Note_on_c, 0, 70, 100
1, 25680, Note_on_c, 1, 50, 0
1, 25680, Note_on_c, 1, 58, 100
1, 25920, Note_on_c, 1, 58, 0
1, 25920, Note_on_c, 0, 70, 0
1, 25920, Note_on_c, 0, 72, 100
1, 25920, Note_on_c, 1, 51, 100
1, 26160, Note_on_c, 1, 51, 0
1, 26160, Note_on_c, 1, 58, 100
1, 26400, Note_on_c, 1, 58, 0
1, 26400, Note_on_c, 1, 57, 100
1, 26640, Note_on_c, 1, 57, 0
1, 26640, Note_on_c, 0, 72, 0
1, 26640, Note_on_c, 0, 70, 100
1, 26640, Note_on_c, 1, 58, 100
1, 26880, Note_on_c, 1, 58, 0
1, 26880, Note_on_c, 0, 70, 0
1, 26880, Note_on_c, 0, 72, 100
1, 26880, Note_on_c, 1, 51, 100
1, 26944, Note_on_c, 0, 72, 0
1, 26944, Note_on_c, 0, 70, 100
1, 27000, Note_on_c, 0, 70, 0
1, 27000, Note_on_c, 0, 72, 100
1, 27120, Note_on_c, 0, 72, 0
1, 27120, Note_on_c, 1, 51, 0
1, 27120, Note_on_c, 0, 74, 100
1, 27120, Note_on_c, 1, 58, 100
1, 27360, Note_on_c, 1, 58, 0
1, 27360, Note_on_c, 0, 74, 0
1, 27360, Note_on_c, 0, 72, 100
1, 27360, Note_on_c, 1, 53, 100
1, 27600, Note_on_c, 1, 53, 0
1, 27600, Note_on_c, 0, 72, 0
1, 27600, Note_on_c, 0, 70, 100
1, 27600, Note_on_c, 1, 58, 100
1, 27840, Note_on_c, 1, 58, 0
1, 27840, Note_on_c, 0, 70, 0
1, 27840, Note_on_c, 0, 72, 100
1, 27840, Note_on_c, 1, 57, 100
1, 28080, Note_on_c, 1, 57, 0
1, 28080, Note_on_c, 0, 72, 0
1, 28080, Note_on_c, 0, 74, 100
1, 28080, Note_on_c, 1, 58, 100
1, 28320, Note_on_c, 1, 58, 0
1, 28320, Note_on_c, 0, 74, 0
1, 28320, Note_on_c, 0, 72, 100
1, 28320, Note_on_c, 1, 53, 100
1, 28560, Note_on_c, 1, 53, 0
1, 28560, Note_on_c, 0, 72, 0
1, 28560, Note_on_c, 0, 74, 100
1, 28560, Note_on_c, 1, 58, 100
1, 28800, Note_on_c, 1, 58, 0
1, 28800, Note_on_c, 0, 74, 0
1, 28800, Note_on_c, 0, 75, 100
1, 28800, Note_on_c, 1, 55, 100
1, 29040, Note_on_c, 1, 55, 0
1, 29040, Note_on_c, 0, 75, 0
1, 29040, Note_on_c, 0, 74, 100
1, 29040, Note_on_c, 1, 58, 100
1, 29280, Note_on_c, 1, 58, 0
1, 29280, Note_on_c, 0, 74, 0
1, 29280, Note_on_c, 0, 75, 100
1, 29280, Note_on_c, 1, 57, 100
1, 29344, Note_on_c, 0, 75, 0
1, 29344, Note_on_c, 0, 74, 100
1, 29400, Note_on_c, 0, 74, 0
1, 29400, Note_on_c, 0, 75, 100
1, 29520, Note_on_c, 0, 75, 0
1, 29520, Note_on_c, 1, 57, 0
1, 29520, Note_on_c, 0, 77, 100
1, 29520, Note_on_c, 1, 58, 100
1, 29760, Note_on_c, 1, 58, 0
1, 29760, Note_on_c, 0, 77, 0
1, 29760, Note_on_c, 0, 74, 100
1, 29760, Note_on_c, 1, 55, 100
1, 30000, Note_on_c, 1, 55, 0
1, 30000, Note_on_c, 0, 74, 0
1, 30000, Note_on_c, 0, 75, 100
1, 30000, Note_on_c, 1, 58, 100
1, 30240, Note_on_c, 1, 58, 0
1, 30240, Note_on_c, 0, 75, 0
1, 30240, Note_on_c, 0, 77, 100
1, 30240, Note_on_c, 1, 50, 100
1, 30304, Note_on_c, 0, 77, 0
1, 30304, Note_on_c, 0, 76, 100
1, 30360, Note_on_c, 0, 76, 0
1, 30360, Note_on_c, 0, 77, 100
1, 30480, Note_on_c, 1, 50, 0
1, 30480, Note_on_c, 1, 58, 100
1, 30720, Note_on_c, 1, 58, 0
1, 30720, Note_on_c, 0, 77, 0
1, 30720, Note_on_c, 0, 79, 100
1, 30720, Note_on_c, 1, 57, 100
1, 30960, Note_on_c, 1, 57, 0
1, 30960, Note_on_c, 0, 79, 0
1, 30960, Note_on_c, 0, 77, 100
1, 30960, Note_on_c, 1, 58, 100
1, 31200, Note_on_c, 1, 58, 0
1, 31200, Note_on_c, 0, 77, 0
1, 31200, Note_on_c, 0, 75, 100
1, 31200, Note_on_c, 1, 50, 100
1, 31440, Note_on_c, 1, 50, 0
1, 31440, Note_on_c, 0, 75, 0
1, 31440, Note_on_c, 0, 74, 100
1, 31440, Note_on_c, 1, 58, 100
1, 31680, Note_on_c, 1, 58, 0
1, 31680, Note_on_c, 0, 74, 0
1, 31680, Note_on_c, 0, 72, 100
1, 31680, Note_on_c, 1, 51, 100
1, 31744, Note_on_c, 0, 72, 0
1, 31744, Note_on_c, 0, 74, 100
1, 31800, Note_on_c, 0, 74, 0
1, 31800, Note_on_c, 0, 72, 100
1, 31920, Note_on_c, 1, 51, 0
1, 31920, Note_on_c, 1, 58, 100
1, 32160, Note_on_c, 1, 58, 0
1, 32160, Note_on_c, 0, 72, 0
1, 32160, Note_on_c, 0, 70, 100
1, 32160, Note_on_c, 1, 57, 100
1, 32400, Note_on_c, 1, 57, 0
1, 32400, Note_on_c, 1, 58, 100
1, 32640, Note_on_c, 1, 58, 0
1, 32640, Note_on_c, 0, 70, 0
1, 32640, Note_on_c, 0, 72, 100
1, 32640, Note_on_c, 1, 51, 100
1, 32880, Note_on_c, 1, 51, 0
1, 32880, Note_on_c, 1, 58, 100
1, 33112, Note_on_c, 0, 72, 0
1, 33120, Note_on_c, 1, 58, 0
1, 33120, Note_on_c, 0, 72, 100
1, 33120, Note_on_c, 1, 53, 100
1, 33320, Note_on_c, 1, 53, 0
1, 33360, Note_on_c, 0, 72, 0
1, 33360, Note_on_c, 0, 74, 100
1, 33600, Note_on_c, 1, 58, 100
1, 33800, Note_on_c, 1, 58, 0
1, 33840, Note_on_c, 0, 74, 0
1, 33840, Note_on_c, 0, 75, 100
1, 34080, Note_on_c, 0, 75, 0
1, 34080, Note_on_c, 0, 72, 100
1, 34080, Note_on_c, 1, 57, 100
1, 34144, Note_on_c, 1, 57, 0
1, 34144, Note_on_c, 1, 58, 100
1, 34200, Note_on_c, 1, 58, 0
1, 34200, Note_on_c, 1, 57, 100
1, 34320, Note_on_c, 0, 72, 0
1, 34320, Note_on_c, 0, 70, 100
1, 34560, Note_on_c, 0, 70, 0
1, 34560, Note_on_c, 1, 57, 0
1, 34560, Note_on_c, 0, 70, 100
1, 34560, Note_on_c, 1, 58, 100
1, 34760, Note_on_c, 1, 58, 0
1, 34800, Note_on_c, 0, 70, 0
1, 34800, Note_on_c, 0, 69, 100
1, 35040, Note_on_c, 0, 69, 0
1, 35040, Note_on_c, 0, 70, 100
1, 35040, Note_on_c, 1, 46, 100
1, 35240, Note_on_c, 1, 46, 0
1, 35280, Note_on_c, 0, 70, 0
1, 35280, Note_on_c, 0, 72, 100
1, 35520, Note_on_c, 0, 72, 0
1, 35520, Note_on_c, 0, 74, 100
1, 35520, Note_on_c, 1, 48, 100
1, 35720, Note_on_c, 1, 48, 0
1, 35760, Note_on_c, 0, 74, 0
1, 35760, Note_on_c, 0, 75, 100
1, 36000, Note_on_c, 0, 75, 0
1, 36000, Note_on_c, 0, 77, 100
1, 36000, Note_on_c, 1, 50, 100
1, 36240, Note_on_c, 1, 50, 0
1, 36240, Note_on_c, 1, 58, 100
1, 36480, Note_on_c, 1, 58, 0
1, 36480, Note_on_c, 1, 57, 100
1, 36720, Note_on_c, 1, 57, 0
1, 36720, Note_on_c, 1, 58, 100
1, 36952, Note_on_c, 0, 77, 0
1, 36960, Note_on_c, 1, 58, 0
1, 36960, Note_on_c, 0, 70, 100
1, 36960, Note_on_c, 1, 50, 100
1, 37024, Note_on_c, 0, 70, 0
1, 37024, Note_on_c, 0, 69, 100
1, 37080, Note_on_c, 0, 69, 0
1, 37080, Note_on_c, 0, 70, 100
1, 37200, Note_on_c, 1, 50, 0
1, 37200, Note_on_c, 1, 58, 100
1, 37440, Note_on_c, 1, 58, 0
1, 37440, Note_on_c, 0, 70, 0
1, 37440, Note_on_c, 0, 72, 100
1, 37440, Note_on_c, 1, 51, 100
1, 37680, Note_on_c, 1, 51, 0
1, 37680, Note_on_c, 1, 58, 100
1, 37920, Note_on_c, 1, 58, 0
1, 37920, Note_on_c, 1, 57, 100
1, 38160, Note_on_c, 1, 57, 0
1, 38160, Note_on_c, 0, 72, 0
1, 38160, Note_on_c, 0, 70, 100
1, 38160, Note_on_c, 1, 58, 100
1, 38400, Note_on_c, 1, 58, 0
1, 38400, Note_on_c, 0, 70, 0
1, 38400, Note_on_c, 0, 72, 100
1, 38400, Note_on_c, 1, 51, 100
1, 38464, Note_on_c, 0, 72, 0
1, 38464, Note_on_c, 0, 70, 100
1, 38520, Note_on_c, 0, 70, 0
1, 38520, Note_on_c, 0, 72, 100
1, 38640, Note_on_c, 0, 72, 0
1, 38640, Note_on_c, 1, 51, 0
1, 38640, Note_on_c, 0, 74, 100
1, 38640, Note_on_c, 1, 58, 100
1, 38880, Note_on_c, 1, 58, 0
1, 38880, Note_on_c, 0, 74, 0
1, 38880, Note_on_c, 0, 72, 100
1, 38880, Note_on_c, 1, 53, 100
1, 39120, Note_on_c, 1, 53, 0
1, 39120, Note_on_c, 0, 72, 0
1, 39120, Note_on_c, 0, 70, 100
1, 39120, Note_on_c, 1, 58, 100
1, 39360, Note_on_c, 1, 58, 0
1, 39360, Note_on_c, 0, 70, 0
1, 39360, Note_on_c, 0, 72, 100
1, 39360, Note_on_c, 1, 57, 100
1, 39600, Note_on_c, 1, 57, 0
1, 39600, Note_on_c, 0, 72, 0
1, 39600, Note_on_c, 0, 74, 100
1, 39600, Note_on_c, 1, 58, 100
1, 39840, Note_on_c, 1, 58, 0
1, 39840, Note_on_c, 0, 74, 0
1, 39840, Note_on_c, 0, 72, 100
1, 39840, Note_on_c, 1, 53, 100
1, 40080, Note_on_c, 1, 53, 0
1, 40080, Note_on_c, 0, 72, 0
1, 40080, Note_on_c, 0, 74, 100
1, 40080, Note_on_c, 1, 58, 100
1, 40320, Note_on_c, 1, 58, 0
1, 40320, Note_on_c, 0, 74, 0
1, 40320, Note_on_c, 0, 75, 100
1, 40320, Note_on_c, 1, 55, 100
1, 40560, Note_on_c, 1, 55, 0
1, 40560, Note_on_c, 0, 75, 0
1, 40560, Note_on_c, 0, 74, 100
1, 40560, Note_on_c, 1, 58, 100
1, 40800, Note_on_c, 1, 58, 0
1, 40800, Note_on_c, 0, 74, 0
1, 40800, Note_on_c, 0, 75, 100
1, 40800, Note_on_c, 1, 57, 100
1, 40864, Note_on_c, 0, 75, 0
1, 40864, Note_on_c, 0, 74, 100
1, 40920, Note_on_c, 0, 74, 0
1, 40920, Note_on_c, 0, 75, 100
1, 41040, Note_on_c, 0, 75, 0
1, 41040, Note_on_c, 1, 57, 0
1, 41040, Note_on_c, 0, 77, 100
1, 41040, Note_on_c, 1, 58, 100
1, 41280, Note_on_c, 1, 58, 0
1, 41280, Note_on_c, 0, 77, 0
1, 41280, Note_on_c, 0, 74, 100
1, 41280, Note_on_c, 1, 55, 100
1, 41520, Note_on_c, 1, 55, 0
1, 41520, Note_on_c, 0, 74, 0
1, 41520, Note_on_c, 0, 75, 100
1, 41520, Note_on_c, 1, 58, 100
1, 41760, Note_on_c, 1, 58, 0
1, 41760, Note_on_c, 0, 75, 0
1, 41760, Note_on_c, 0, 77, 100
1, 41760, Note_on_c, 1, 50, 100
1, 41824, Note_on_c, 0, 77, 0
1, 41824, Note_on_c, 0, 76, 100
1, 41880, Note_on_c, 0, 76, 0
1, 41880, Note_on_c, 0, 77, 100
1, 42000, Note_on_c, 1, 50, 0
1, 42000, Note_on_c, 1, 58, 100
1, 42240, Note_on_c, 1, 58, 0
1, 42240, Note_on_c, 0, 77, 0
1, 42240, Note_on_c, 0, 79, 100
1, 42240, Note_on_c, 1, 57, 100
1, 42480, Note_on_c, 1, 57, 0
1, 42480, Note_on_c, 0, 79, 0
1, 42480, Note_on_c, 0, 77, 100
1, 42480, Note_on_c, 1, 58, 100
1, 42720, Note_on_c, 1, 58, 0
1, 42720, Note_on_c, 0, 77, 0
1, 42720, Note_on_c, 0, 75, 100
1, 42720, Note_on_c, 1, 50, 100
1, 42960, Note_on_c, 1, 50, 0
1, 42960, Note_on_c, 0, 75, 0
1, 42960, Note_on_c, 0, 74, 100
1, 42960, Note_on_c, 1, 58, 100
1, 43200, Note_on_c, 1, 58, 0
1, 43200, Note_on_c, 0, 74, 0
1, 43200, Note_on_c, 0, 72, 100
1, 43200, Note_on_c, 1, 51, 100
1, 43264, Note_on_c, 0, 72, 0
1, 43264, Note_on_c, 0, 74, 100
1, 43320, Note_on_c, 0, 74, 0
1, 43320, Note_on_c, 0, 72, 100
1, 43440, Note_on_c, 1, 51, 0
1, 43440, Note_on_c, 1, 58, 100
1, 43680, Note_on_c, 1, 58, 0
1, 43680, Note_on_c, 0, 72, 0
1, 43680, Note_on_c, 0, 70, 100
1, 43680, Note_on_c, 1, 57, 100
1, 43920, Note_on_c, 1, 57, 0
1, 43920, Note_on_c, 1, 58, 100
1, 44160, Note_on_c, 1, 58, 0
1, 44160, Note_on_c, 0, 70, 0
1, 44160, Note_on_c, 0, 72, 100
1, 44160, Note_on_c, 1, 51, 100
1, 44400, Note_on_c, 1, 51, 0
1, 44400, Note_on_c, 1, 58, 100
1, 44632, Note_on_c, 0, 72, 0
1, 44640, Note_on_c, 1, 58, 0
1, 44640, Note_on_c, 0, 72, 100
1, 44640, Note_on_c, 1, 53, 100
1, 44840, Note_on_c, 1, 53, 0
1, 44880, Note_on_c, 0, 72, 0
1, 44880, Note_on_c, 0, 74, 100
1, 45120, Note_on_c, 1, 58, 100
1, 45320, Note_on_c, 1, 58, 0
1, 45360, Note_on_c, 0, 74, 0
1, 45360, Note_on_c, 0, 75, 100
1, 45600, Note_on_c, 0, 75, 0
1, 45600, Note_on_c, 0, 72, 100
1, 45600, Note_on_c, 1, 57, 100
1, 45664, Note_on_c, 1, 57, 0
1, 45664, Note_on_c, 1, 58, 100
1, 45720, Note_on_c, 1, 58, 0
1, 45720, Note_on_c, 1, 57, 100
1, 45840, Note_on_c, 0, 72, 0
1, 45840, Note_on_c, 0, 70, 100
1, 46080, Note_on_c, 0, 70, 0
1, 46080, Note_on_c, 1, 57, 0
1, 46080, Note_on_c, 0, 70, 100
1, 46080, Note_on_c, 0, 65, 100
1, 46080, Note_on_c, 0, 62, 100
1, 46080, Poly_aftertouch_c, 0, 60, 0
1, 46080, Note_on_c, 1, 58, 100
1, 46080, Poly_aftertouch_c, 1, 60, 0
1, 46552, Note_on_c, 1, 58, 0
1, 46560, Note_on_c, 1, 53, 100
1, 47032, Note_on_c, 1, 53, 0
1, 47040, Note_on_c, 1, 46, 100
1, 47512, Note_on_c, 1, 46, 0
1, 47512, Note_on_c, 0, 70, 0
1, 47512, Note_on_c, 0, 65, 0
1, 47512, Note_on_c, 0, 62, 0
1, 47519, Control_c, 0, 0, 0
1, 47519, Control_c, 0, 0, 0
1, 47519, Control_c, 1, 0, 0
1, 47520, Program_c, 0, 6
1, 47520, Note_on_c, 0, 74, 100
1, 47520, Note_on_c, 1, 58, 100
1, 47520, Control_c, 1, 0, 0
1, 47520, Program_c, 1, 6
1, 47760, Note_on_c, 1, 58, 0
1, 47760, Note_on_c, 1, 65, 100
1, 48000, Note_on_c, 1, 65, 0
1, 48000, Note_on_c, 1, 63, 100
1, 48240, Note_on_c, 1, 63, 0
1, 48240, Note_on_c, 1, 65, 100
1, 48480, Note_on_c, 1, 65, 0
1, 48480, Note_on_c, 0, 74, 0
1, 48480, Note_on_c, 0, 77, 100
1, 48480, Note_on_c, 1, 57, 100
1, 48680, Note_on_c, 0, 77, 0
1, 48720, Note_on_c, 1, 57, 0
1, 48720, Note_on_c, 1, 65, 100
1, 48952, Note_on_c, 1, 65, 0
1, 48960, Note_on_c, 0, 74, 100
1, 48960, Note_on_c, 1, 58, 100
1, 49024, Note_on_c, 0, 74, 0
1, 49024, Note_on_c, 0, 75, 100
1, 49080, Note_on_c, 0, 75, 0
1, 49080, Note_on_c, 0, 74, 100
1, 49200, Note_on_c, 1, 58, 0
1, 49200, Note_on_c, 1, 65, 100
1, 49440, Note_on_c, 1, 65, 0
1, 49440, Note_on_c, 0, 74, 0
1, 49440, Note_on_c, 0, 70, 100
1, 49440, Note_on_c, 1, 63, 100
1, 49640, Note_on_c, 0, 70, 0
1, 49680, Note_on_c, 1, 63, 0
1, 49680, Note_on_c, 1, 65, 100
1, 49920, Note_on_c, 1, 65, 0
1, 49920, Note_on_c, 0, 72, 100
1, 49920, Note_on_c, 1, 53, 100
1, 50120, Note_on_c, 0, 72, 0
1, 50160, Note_on_c, 1, 53, 0
1, 50160, Note_on_c, 1, 65, 100
1, 50392, Note_on_c, 1, 65, 0
1, 50400, Note_on_c, 0, 74, 100
1, 50400, Note_on_c, 1, 58, 100
1, 50640, Note_on_c, 1, 58, 0
1, 50640, Note_on_c, 1, 65, 100
1, 50880, Note_on_c, 1, 65, 0
1, 50880, Note_on_c, 0, 74, 0
1, 50880, Note_on_c, 0, 75, 100
1, 50880, Note_on_c, 1, 63, 100
1, 51080, Note_on_c, 0, 75, 0
1, 51120, Note_on_c, 1, 63, 0
1, 51120, Note_on_c, 1, 65, 100
1, 51360, Note_on_c, 1, 65, 0
1, 51360, Note_on_c, 0, 77, 100
1, 51360, Note_on_c, 1, 57, 100
1, 51560, Note_on_c, 0, 77, 0
1, 51600, Note_on_c, 1, 57, 0
1, 51600, Note_on_c, 1, 65, 100
1, 51832, Note_on_c, 1, 65, 0
1, 51840, Note_on_c, 0, 74, 100
1, 51840, Note_on_c, 1, 58, 100
1, 52080, Note_on_c, 1, 58, 0
1, 52080, Note_on_c, 1, 65, 100
1, 52320, Note_on_c, 1, 65, 0
1, 52320, Note_on_c, 0, 74, 0
1, 52320, Note_on_c, 0, 70, 100
1, 52320, Note_on_c, 1, 63, 100
1, 52520, Note_on_c, 0, 70, 0
1, 52560, Note_on_c, 1, 63, 0
1, 52560, Note_on_c, 1, 65, 100
1, 52800, Note_on_c, 1, 65, 0
1, 52800, Note_on_c, 0, 72, 100
1, 52800, Note_on_c, 1, 53, 100
1, 53000, Note_on_c, 0, 72, 0
1, 53040, Note_on_c, 1, 53, 0
1, 53040, Note_on_c, 1, 65, 100
1, 53272, Note_on_c, 1, 65, 0
1, 53280, Note_on_c, 0, 74, 100
1, 53280, Note_on_c, 1, 58, 100
1, 53520, Note_on_c, 1, 58, 0
1, 53520, Note_on_c, 1, 65, 100
1, 53760, Note_on_c, 1, 65, 0
1, 53760, Note_on_c, 0, 74, 0
1, 53760, Note_on_c, 0, 75, 100
1, 53760, Note_on_c, 1, 63, 100
1, 53824, Note_on_c, 0, 75, 0
1, 53824, Note_on_c, 0, 74, 100
1, 53880, Note_on_c, 0, 74, 0
1, 53880, Note_on_c, 0, 75, 100
1, 54000, Note_on_c, 1, 63, 0
1, 54000, Note_on_c, 1, 65, 100
1, 54240, Note_on_c, 1, 65, 0
1, 54240, Note_on_c, 0, 75, 0
1, 54240, Note_on_c, 0, 77, 100
1, 54240, Note_on_c, 1, 57, 100
1, 54440, Note_on_c, 0, 77, 0
1, 54480, Note_on_c, 1, 57, 0
1, 54480, Note_on_c, 1, 65, 100
1, 54712, Note_on_c, 1, 65, 0
1, 54720, Note_on_c, 0, 74, 100
1, 54720, Note_on_c, 1, 58, 100
1, 54960, Note_on_c, 1, 58, 0
1, 54960, Note_on_c, 1, 65, 100
1, 55200, Note_on_c, 1, 65, 0
1, 55200, Note_on_c, 0, 74, 0
1, 55200, Note_on_c, 0, 70, 100
1, 55200, Note_on_c, 1, 63, 100
1, 55400, Note_on_c, 0, 70, 0
1, 55440, Note_on_c, 1, 63, 0
1, 55440, Note_on_c, 1, 65, 100
1, 55680, Note_on_c, 1, 65, 0
1, 55680, Note_on_c, 0, 72, 100
1, 55680, Note_on_c, 1, 53, 100
1, 55880, Note_on_c, 0, 72, 0
1, 55920, Note_on_c, 1, 53, 0
1, 55920, Note_on_c, 1, 65, 100
1, 56152, Note_on_c, 1, 65, 0
1, 56160, Note_on_c, 0, 72, 100
1, 56160, Note_on_c, 1, 58, 100
1, 56360, Note_on_c, 1, 58, 0
1, 56400, Note_on_c, 0, 72, 0
1, 56400, Note_on_c, 0, 74, 100
1, 56640, Note_on_c, 0, 74, 0
1, 56640, Note_on_c, 0, 75, 100
1, 56640, Note_on_c, 1, 57, 100
1, 56840, Note_on_c, 1, 57, 0
1, 56880, Note_on_c, 0, 75, 0
1, 56880, Note_on_c, 0, 74, 100
1, 57120, Note_on_c, 0, 74, 0
1, 57120, Note_on_c, 0, 72, 100
1, 57120, Note_on_c, 1, 55, 100
1, 57184, Note_on_c, 0, 72, 0
1, 57184, Note_on_c, 0, 74, 100
1, 57240, Note_on_c, 0, 74, 0
1, 57240, Note_on_c, 0, 72, 100
1, 57320, Note_on_c, 1, 55, 0
1, 57360, Note_on_c, 0, 72, 0
1, 57360, Note_on_c, 0, 70, 100
1, 57592, Note_on_c, 0, 70, 0
1, 57600, Note_on_c, 0, 77, 100
1, 57600, Note_on_c, 0, 72, 100
1, 57600, Note_on_c, 0, 69, 100
1, 57600, Note_on_c, 1, 53, 100
1, 57840, Note_on_c, 1, 53, 0
1, 57840, Note_on_c, 1, 52, 100
1, 58080, Note_on_c, 1, 52, 0
1, 58080, Note_on_c, 1, 53, 100
1, 58320, Note_on_c, 1, 53, 0
1, 58320, Note_on_c, 1, 55, 100
1, 58560, Note_on_c, 1, 55, 0
1, 58560, Note_on_c, 1, 57, 100
1, 58800, Note_on_c, 1, 57, 0
1, 58800, Note_on_c, 1, 53, 100
1, 59032, Note_on_c, 1, 53, 0
1, 59032, Note_on_c, 0, 69, 0
1, 59032, Note_on_c, 0, 72, 0
1, 59032, Note_on_c, 0, 77, 0
1, 59040, Note_on_c, 0, 74, 100
1, 59040, Note_on_c, 1, 58, 100
1, 59280, Note_on_c, 1, 58, 0
1, 59280, Note_on_c, 1, 65, 100
1, 59520, Note_on_c, 1, 65, 0
1, 59520, Note_on_c, 1, 63, 100
1, 59760, Note_on_c, 1, 63, 0
1, 59760, Note_on_c, 1, 65, 100
1, 60000, Note_on_c, 1, 65, 0
1, 60000, Note_on_c, 0, 74, 0
1, 60000, Note_on_c, 0, 77, 100
1, 60000, Note_on_c, 1, 57, 100
1, 60200, Note_on_c, 0, 77, 0
1, 60240, Note_on_c, 1, 57, 0
1, 60240, Note_on_c, 1, 65, 100
1, 60472, Note_on_c, 1, 65, 0
1, 60480, Note_on_c, 0, 74, 100
1, 60480, Note_on_c, 1, 58, 100
1, 60720, Note_on_c, 1, 58, 0
1, 60720, Note_on_c, 1, 65, 100
1, 60960, Note_on_c, 1, 65, 0
1, 60960, Note_on_c, 0, 74, 0
1, 60960, Note_on_c, 0, 70, 100
1, 60960, Note_on_c, 1, 63, 100
1, 61160, Note_on_c, 0, 70, 0
1, 61200, Note_on_c, 1, 63, 0
1, 61200, Note_on_c, 1, 65, 100
1, 61440, Note_on_c, 1, 65, 0
1, 61440, Note_on_c, 0, 72, 100
1, 61440, Note_on_c, 1, 53, 100
1, 61640, Note_on_c, 0, 72, 0
1, 61680, Note_on_c, 1, 53, 0
1, 61680, Note_on_c, 1, 65, 100
1, 61912, Note_on_c, 1, 65, 0
1, 61920, Note_on_c, 0, 74, 100
1, 61920, Note_on_c, 1, 58, 100
1, 62160, Note_on_c, 1, 58, 0
1, 62160, Note_on_c, 1, 65, 100
1, 62400, Note_on_c, 1, 65, 0
1, 62400, Note_on_c, 0, 74, 0
1, 62400, Note_on_c, 0, 75, 100
1, 62400, Note_on_c, 1, 63, 100
1, 62464, Note_on_c, 0, 75, 0
1, 62464, Note_on_c, 0, 74, 100
1, 62520, Note_on_c, 0, 74, 0
1, 62520, Note_on_c, 0, 75, 100
1, 62640, Note_on_c, 1, 63, 0
1, 62640, Note_on_c, 1, 65, 100
1, 62880, Note_on_c, 1, 65, 0
1, 62880, Note_on_c, 0, 75, 0
1, 62880, Note_on_c, 0, 77, 100
1, 62880, Note_on_c, 1, 57, 100
1, 63080, Note_on_c, 0, 77, 0
1, 63120, Note_on_c, 1, 57, 0
1, 63120, Note_on_c, 1, 65, 100
1, 63352, Note_on_c, 1, 65, 0
1, 63360, Note_on_c, 0, 74, 100
1, 63360, Note_on_c, 1, 58, 100
1, 63600, Note_on_c, 1, 58, 0
1, 63600, Note_on_c, 1, 65, 100
1, 63840, Note_on_c, 1, 65, 0
1, 63840, Note_on_c, 0, 74, 0
1, 63840, Note_on_c, 0, 70, 100
1, 63840, Note_on_c, 1, 63, 100
1, 63904, Note_on_c, 0, 70, 0
1, 63904, Note_on_c, 0, 69, 100
1, 63960, Note_on_c, 0, 69, 0
1, 63960, Note_on_c, 0, 70, 100
1, 64080, Note_on_c, 1, 63, 0
1, 64080, Note_on_c, 1, 65, 100
1, 64320, Note_on_c, 1, 65, 0
1, 64320, Note_on_c, 0, 70, 0
1, 64320, Note_on_c, 0, 72, 100
1, 64320, Note_on_c, 1, 53, 100
1, 64520, Note_on_c, 0, 72, 0
1, 64560, Note_on_c, 1, 53, 0
1, 64560, Note_on_c, 1, 65, 100
1, 64792, Note_on_c, 1, 65, 0
1, 64800, Note_on_c, 0, 74, 100
1, 64800, Note_on_c, 1, 58, 100
1, 65040, Note_on_c, 1, 58, 0
1, 65040, Note_on_c, 1, 65, 100
1, 65280, Note_on_c, 1, 65, 0
1, 65280, Note_on_c, 0, 74, 0
1, 65280, Note_on_c, 0, 75, 100
1, 65280, Note_on_c, 1, 63, 100
1, 65344, Note_on_c, 0, 75, 0
1, 65344, Note_on_c, 0, 74, 100
1, 65400, Note_on_c, 0, 74, 0
1, 65400, Note_on_c, 0, 75, 100
1, 65520, Note_on_c, 1, 63, 0
1, 65520, Note_on_c, 1, 65, 100
1, 65760, Note_on_c, 1, 65, 0
1, 65760, Note_on_c, 0, 75, 0
1, 65760, Note_on_c, 0, 77, 100
1, 65760, Note_on_c, 1, 57, 100
1, 65960, Note_on_c, 0, 77, 0
1, 66000, Note_on_c, 1, 57, 0
1, 66000, Note_on_c, 1, 65, 100
1, 66232, Note_on_c, 1, 65, 0
1, 66240, Note_on_c, 0, 74, 100
1, 66240, Note_on_c, 1, 58, 100
1, 66480, Note_on_c, 1, 58, 0
1, 66480, Note_on_c, 1, 65, 100
1, 66720, Note_on_c, 1, 65, 0
1, 66720, Note_on_c, 0, 74, 0
1, 66720, Note_on_c, 0, 70, 100
1, 66720, Note_on_c, 1, 63, 100
1, 66920, Note_on_c, 0, 70, 0
1, 66960, Note_on_c, 1, 63, 0
1, 66960, Note_on_c, 1, 65, 100
1, 67200, Note_on_c, 1, 65, 0
1, 67200, Note_on_c, 0, 72, 100
1, 67200, Note_on_c, 1, 53, 100
1, 67400, Note_on_c, 0, 72, 0
1, 67440, Note_on_c, 1, 53, 0
1, 67440, Note_on_c, 1, 65, 100
1, 67672, Note_on_c, 1, 65, 0
1, 67680, Note_on_c, 0, 72, 100
1, 67680, Note_on_c, 1, 58, 100
1, 67920, Note_on_c, 0, 72, 0
1, 67920, Note_on_c, 0, 74, 100
1, 68160, Note_on_c, 0, 74, 0
1, 68160, Note_on_c, 1, 58, 0
1, 68160, Note_on_c, 0, 75, 100
1, 68160, Note_on_c, 1, 57, 100
1, 68224, Note_on_c, 1, 57, 0
1, 68224, Note_on_c, 1, 58, 100
1, 68280, Note_on_c, 1, 58, 0
1, 68280, Note_on_c, 1, 57, 100
1, 68400, Note_on_c, 0, 75, 0
1, 68400, Note_on_c, 0, 74, 100
1, 68640, Note_on_c, 0, 74, 0
1, 68640, Note_on_c, 1, 57, 0
1, 68640, Note_on_c, 0, 72, 100
1, 68640, Note_on_c, 1, 55, 100
1, 68704, Note_on_c, 0, 72, 0
1, 68704, Note_on_c, 0, 74, 100
1, 68760, Note_on_c, 0, 74, 0
1, 68760, Note_on_c, 0, 72, 100
1, 68880, Note_on_c, 0, 72, 0
1, 68880, Note_on_c, 0, 70, 100
1, 69112, Note_on_c, 0, 70, 0
1, 69112, Note_on_c, 1, 55, 0
1, 69120, Note_on_c, 0, 77, 100
1, 69120, Note_on_c, 0, 72, 100
1, 69120, Note_on_c, 0, 69, 100
1, 69120, Note_on_c, 1, 53, 100
1, 69360, Note_on_c, 1, 53, 0
1, 69360, Note_on_c, 1, 52, 100
1, 69600, Note_on_c, 1, 52, 0
1, 69600, Note_on_c, 1, 53, 100
1, 69840, Note_on_c, 1, 53, 0
1, 69840, Note_on_c, 1, 55, 100
1, 70080, Note_on_c, 1, 55, 0
1, 70080, Note_on_c, 1, 53, 100
1, 70320, Note_on_c, 1, 53, 0
1, 70320, Note_on_c, 1, 51, 100
1, 70552, Note_on_c, 1, 51, 0
1, 70552, Note_on_c, 0, 69, 0
1, 70552, Note_on_c, 0, 72, 0
1, 70552, Note_on_c, 0, 77, 0
1, 70560, Note_on_c, 0, 77, 100
1, 70560, Note_on_c, 1, 50, 100
1, 70800, Note_on_c, 1, 50, 0
1, 70800, Note_on_c, 1, 58, 100
1, 71040, Note_on_c, 1, 58, 0
1, 71040, Note_on_c, 1, 57, 100
1, 71280, Note_on_c, 1, 57, 0
1, 71280, Note_on_c, 1, 58, 100
1, 71512, Note_on_c, 0, 77, 0
1, 71520, Note_on_c, 1, 58, 0
1, 71520, Note_on_c, 0, 70, 100
1, 71520, Note_on_c, 1, 50, 100
1, 71584, Note_on_c, 0, 70, 0
1, 71584, Note_on_c, 0, 69, 100
1, 71640, Note_on_c, 0, 69, 0
1, 71640, Note_on_c, 0, 70, 100
1, 71760, Note_on_c, 1, 50, 0
1, 71760, Note_on_c, 1, 58, 100
1, 71992, Note_on_c, 1, 58, 0
1, 72000, Note_on_c, 0, 70, 0
1, 72000, Note_on_c, 0, 72, 100
1, 72000, Note_on_c, 1, 51, 100
1, 72240, Note_on_c, 1, 51, 0
1, 72240, Note_on_c, 1, 58, 100
1, 72480, Note_on_c, 1, 58, 0
1, 72480, Note_on_c, 1, 57, 100
1, 72720, Note_on_c, 1, 57, 0
1, 72720, Note_on_c, 0, 72, 0
1, 72720, Note_on_c, 0, 70, 100
1, 72720, Note_on_c, 1, 58, 100
1, 72960, Note_on_c, 1, 58, 0
1, 72960, Note_on_c, 0, 70, 0
1, 72960, Note_on_c, 0, 72, 100
1, 72960, Note_on_c, 1, 51, 100
1, 73024, Note_on_c, 0, 72, 0
1, 73024, Note_on_c, 0, 70, 100
1, 73080, Note_on_c, 0, 70, 0
1, 73080, Note_on_c, 0, 72, 100
1, 73200, Note_on_c, 0, 72, 0
1, 73200, Note_on_c, 1, 51, 0
1, 73200, Note_on_c, 0, 74, 100
1, 73200, Note_on_c, 1, 58, 100
1, 73440, Note_on_c, 1, 58, 0
1, 73440, Note_on_c, 0, 74, 0
1, 73440, Note_on_c, 0, 72, 100
1, 73440, Note_on_c, 1, 53, 100
1, 73680, Note_on_c, 1, 53, 0
1, 73680, Note_on_c, 0, 72, 0
1, 73680, Note_on_c, 0, 70, 100
1, 73680, Note_on_c, 1, 58, 100
1, 73920, Note_on_c, 1, 58, 0
1, 73920, Note_on_c, 0, 70, 0
1, 73920, Note_on_c, 0, 72, 100
1, 73920, Note_on_c, 1, 57, 100
1, 74160, Note_on_c, 1, 57, 0
1, 74160, Note_on_c, 0, 72, 0
1, 74160, Note_on_c, 0, 74, 100
1, 74160, Note_on_c, 1, 58, 100
1, 74400, Note_on_c, 1, 58, 0
1, 74400, Note_on_c, 0, 74, 0
1, 74400, Note_on_c, 0, 72, 100
1, 74400, Note_on_c, 1, 53, 100
1, 74640, Note_on_c, 1, 53, 0
1, 74640, Note_on_c, 0, 72, 0
1, 74640, Note_on_c, 0, 74, 100
1, 74640, Note_on_c, 1, 58, 100
1, 74880, Note_on_c, 1, 58, 0
1, 74880, Note_on_c, 0, 74, 0
1, 74880, Note_on_c, 0, 75, 100
1, 74880, Note_on_c, 1, 55, 100
1, 75120, Note_on_c, 1, 55, 0
1, 75120, Note_on_c, 0, 75, 0
1, 75120, Note_on_c, 0, 74, 100
1, 75120, Note_on_c, 1, 58, 100
1, 75360, Note_on_c, 1, 58, 0
1, 75360, Note_on_c, 0, 74, 0
1, 75360, Note_on_c, 0, 75, 100
1, 75360, Note_on_c, 1, 57, 100
1, 75424, Note_on_c, 0, 75, 0
1, 75424, Note_on_c, 0, 74, 100
1, 75480, Note_on_c, 0, 74, 0
1, 75480, Note_on_c, 0, 75, 100
1, 75600, Note_on_c, 0, 75, 0
1, 75600, Note_on_c, 1, 57, 0
1, 75600, Note_on_c, 0, 77, 100
1, 75600, Note_on_c, 1, 58, 100
1, 75840, Note_on_c, 1, 58, 0
1, 75840, Note_on_c, 0, 77, 0
1, 75840, Note_on_c, 0, 74, 100
1, 75840, Note_on_c, 1, 55, 100
1, 76080, Note_on_c, 1, 55, 0
1, 76080, Note_on_c, 0, 74, 0
1, 76080, Note_on_c, 0, 75, 100
1, 76080, Note_on_c, 1, 58, 100
1, 76312, Note_on_c, 1, 58, 0
1, 76312, Note_on_c, 0, 75, 0
1, 76320, Note_on_c, 0, 77, 100
1, 76320, Note_on_c, 1, 50, 100
1, 76384, Note_on_c, 0, 77, 0
1, 76384, Note_on_c, 0, 76, 100
1, 76440, Note_on_c, 0, 76, 0
1, 76440, Note_on_c, 0, 77, 100
1, 76560, Note_on_c, 1, 50, 0
1, 76560, Note_on_c, 1, 58, 100
1, 76800, Note_on_c, 1, 58, 0
1, 76800, Note_on_c, 0, 77, 0
1, 76800, Note_on_c, 0, 79, 100
1, 76800, Note_on_c, 1, 57, 100
1, 77040, Note_on_c, 1, 57, 0
1, 77040, Note_on_c, 0, 79, 0
1, 77040, Note_on_c, 0, 77, 100
1, 77040, Note_on_c, 1, 58, 100
1, 77280, Note_on_c, 1, 58, 0
1, 77280, Note_on_c, 0, 77, 0
1, 77280, Note_on_c, 0, 75, 100
1, 77280, Note_on_c, 1, 50, 100
1, 77520, Note_on_c, 1, 50, 0
1, 77520, Note_on_c, 0, 75, 0
1, 77520, Note_on_c, 0, 74, 100
1, 77520, Note_on_c, 1, 58, 100
1, 77752, Note_on_c, 1, 58, 0
1, 77760, Note_on_c, 0, 74, 0
1, 77760, Note_on_c, 0, 72, 100
1, 77760, Note_on_c, 1, 51, 100
1, 77824, Note_on_c, 0, 72, 0
1, 77824, Note_on_c, 0, 74, 100
1, 77880, Note_on_c, 0, 74, 0
1, 77880, Note_on_c, 0, 72, 100
1, 78000, Note_on_c, 1, 51, 0
1, 78000, Note_on_c, 1, 58, 100
1, 78240, Note_on_c, 1, 58, 0
1, 78240, Note_on_c, 0, 72, 0
1, 78240, Note_on_c, 0, 70, 100
1, 78240, Note_on_c, 1, 57, 100
1, 78480, Note_on_c, 1, 57, 0
1, 78480, Note_on_c, 1, 58, 100
1, 78720, Note_on_c, 1, 58, 0
1, 78720, Note_on_c, 0, 70, 0
1, 78720, Note_on_c, 0, 72, 100
1, 78720, Note_on_c, 1, 51, 100
1, 78960, Note_on_c, 1, 51, 0
1, 78960, Note_on_c, 1, 58, 100
1, 79192, Note_on_c, 1, 58, 0
1, 79192, Note_on_c, 0, 72, 0
1, 79200, Note_on_c, 0, 72, 100
1, 79200, Note_on_c, 1, 53, 100
1, 79400, Note_on_c, 1, 53, 0
1, 79440, Note_on_c, 0, 72, 0
1, 79440, Note_on_c, 0, 74, 100
1, 79680, Note_on_c, 1, 58, 100
1, 79880, Note_on_c, 1, 58, 0
1, 79920, Note_on_c, 0, 74, 0
1, 79920, Note_on_c, 0, 75, 100
1, 80160, Note_on_c, 0, 75, 0
1, 80160, Note_on_c, 0, 72, 100
1, 80160, Note_on_c, 1, 57, 100
1, 80224, Note_on_c, 1, 57, 0
1, 80224, Note_on_c, 1, 58, 100
1, 80280, Note_on_c, 1, 58, 0
1, 80280, Note_on_c, 1, 57, 100
1, 80400, Note_on_c, 0, 72, 0
1, 80400, Note_on_c, 0, 70, 100
1, 80632, Note_on_c, 0, 70, 0
1, 80640, Note_on_c, 1, 57, 0
1, 80640, Note_on_c, 0, 70, 100
1, 80640, Note_on_c, 0, 65, 100
1, 80640, Note_on_c, 0, 62, 100
1, 80640, Note_on_c, 1, 58, 100
1, 81112, Note_on_c, 1, 58, 0
1, 81120, Note_on_c, 1, 53, 100
1, 81592, Note_on_c, 1, 53, 0
1, 81600, Note_on_c, 1, 46, 100
1, 82072, Note_on_c, 1, 46, 0
1, 82072, Note_on_c, 0, 70, 0
1, 82072, Note_on_c, 0, 65, 0
1, 82072, Note_on_c, 0, 62, 0
1, 82079, Control_c, 0, 0, 8
1, 82079, Control_c, 0, 0, 8
1, 82079, Control_c, 1, 0, 8
1, 82080, Note_on_c, 0, 65, 100
1, 82080, Program_c, 0, 6
1, 82080, Note_on_c, 1, 46, 100
1, 82080, Control_c, 1, 0, 8
1, 82080, Program_c, 1, 6
1, 82320, Note_on_c, 1, 50, 100
1, 82560, Note_on_c, 1, 50, 0
1, 82560, Note_on_c, 1, 53, 100
1, 82800, Note_on_c, 1, 53, 0
1, 82800, Note_on_c, 1, 50, 100
1, 83032, Note_on_c, 1, 46, 0
1, 83040, Note_on_c, 1, 50, 0
1, 83040, Note_on_c, 0, 65, 0
1, 83040, Note_on_c, 0, 70, 100
1, 83040, Note_on_c, 1, 46, 100
1, 83280, Note_on_c, 1, 53, 100
1, 83512, Note_on_c, 1, 53, 0
1, 83512, Note_on_c, 1, 46, 0
1, 83512, Note_on_c, 0, 70, 0
1, 83520, Note_on_c, 0, 70, 100
1, 83520, Note_on_c, 1, 46, 100
1, 83760, Note_on_c, 1, 51, 100
1, 84000, Note_on_c, 1, 51, 0
1, 84000, Note_on_c, 1, 55, 100
1, 84240, Note_on_c, 1, 55, 0
1, 84240, Note_on_c, 1, 51, 100
1, 84472, Note_on_c, 1, 46, 0
1, 84480, Note_on_c, 1, 51, 0
1, 84480, Note_on_c, 0, 70, 0
1, 84480, Note_on_c, 0, 67, 100
1, 84480, Note_on_c, 1, 46, 100
1, 84720, Note_on_c, 1, 55, 100
1, 84952, Note_on_c, 1, 55, 0
1, 84952, Note_on_c, 1, 46, 0
1, 84952, Note_on_c, 0, 67, 0
1, 84960, Note_on_c, 0, 63, 100
1, 84960, Note_on_c, 1, 46, 100
1, 85200, Note_on_c, 1, 48, 100
1, 85440, Note_on_c, 1, 48, 0
1, 85440, Note_on_c, 1, 51, 100
1, 85680, Note_on_c, 1, 51, 0
1, 85680, Note_on_c, 1, 48, 100
1, 85912, Note_on_c, 1, 46, 0
1, 85920, Note_on_c, 1, 48, 0
1, 85920, Note_on_c, 0, 63, 0
1, 85920, Note_on_c, 0, 67, 100
1, 85920, Note_on_c, 1, 46, 100
1, 85984, Note_on_c, 0, 67, 0
1, 85984, Note_on_c, 0, 65, 100
1, 86040, Note_on_c, 0, 65, 0
1, 86040, Note_on_c, 0, 67, 100
1, 86160, Note_on_c, 1, 51, 100
1, 86392, Note_on_c, 1, 51, 0
1, 86392, Note_on_c, 1, 46, 0
1, 86400, Note_on_c, 0, 67, 0
1, 86400, Note_on_c, 0, 65, 100
1, 86400, Note_on_c, 1, 46, 100
1, 86640, Note_on_c, 1, 50, 100
1, 86880, Note_on_c, 1, 50, 0
1, 86880, Note_on_c, 1, 53, 100
1, 87120, Note_on_c, 1, 53, 0
1, 87120, Note_on_c, 1, 50, 100
1, 87352, Note_on_c, 1, 46, 0
1, 87360, Note_on_c, 1, 50, 0
1, 87360, Note_on_c, 0, 65, 0
1, 87360, Note_on_c, 0, 58, 100
1, 87360, Note_on_c, 1, 46, 100
1, 87600, Note_on_c, 1, 53, 100
1, 87832, Note_on_c, 1, 53, 0
1, 87832, Note_on_c, 1, 46, 0
1, 87832, Note_on_c, 0, 58, 0
1, 87840, Note_on_c, 0, 65, 100
1, 87840, Note_on_c, 1, 46, 100
1, 88080, Note_on_c, 1, 50, 100
1, 88320, Note_on_c, 1, 50, 0
1, 88320, Note_on_c, 1, 53, 100
1, 88560, Note_on_c, 1, 53, 0
1, 88560, Note_on_c, 1, 50, 100
1, 88792, Note_on_c, 1, 46, 0
1, 88800, Note_on_c, 1, 50, 0
1, 88800, Note_on_c, 0, 65, 0
1, 88800, Note_on_c, 0, 70, 100
1, 88800, Note_on_c, 1, 46, 100
1, 89040, Note_on_c, 1, 53, 100
1, 89272, Note_on_c, 1, 53, 0
1, 89272, Note_on_c, 1, 46, 0
1, 89272, Note_on_c, 0, 70, 0
1, 89280, Note_on_c, 0, 67, 100
1, 89280, Note_on_c, 1, 46, 100
1, 89520, Note_on_c, 1, 51, 100
1, 89760, Note_on_c, 1, 51, 0
1, 89760, Note_on_c, 1, 55, 100
1, 90000, Note_on_c, 1, 55, 0
1, 90000, Note_on_c, 1, 51, 100
1, 90232, Note_on_c, 1, 46, 0
1, 90240, Note_on_c, 1, 51, 0
1, 90240, Note_on_c, 0, 67, 0
1, 90240, Note_on_c, 0, 65, 100
1, 90240, Note_on_c, 1, 46, 100
1, 90480, Note_on_c, 1, 55, 100
1, 90712, Note_on_c, 1, 55, 0
1, 90712, Note_on_c, 1, 46, 0
1, 90712, Note_on_c, 0, 65, 0
1, 90720, Note_on_c, 0, 67, 100
1, 90720, Note_on_c, 1, 46, 100
1, 90960, Note_on_c, 1, 48, 100
1, 91200, Note_on_c, 1, 48, 0
1, 91200, Note_on_c, 1, 51, 100
1, 91440, Note_on_c, 1, 51, 0
1, 91440, Note_on_c, 1, 48, 100
1, 91672, Note_on_c, 1, 46, 0
1, 91680, Note_on_c, 1, 48, 0
1, 91680, Note_on_c, 0, 67, 0
1, 91680, Note_on_c, 0, 69, 100
1, 91680, Note_on_c, 1, 46, 100
1, 91920, Note_on_c, 1, 51, 100
1, 92152, Note_on_c, 1, 51, 0
1, 92152, Note_on_c, 1, 46, 0
1, 92152, Note_on_c, 0, 69, 0
1, 92160, Note_on_c, 0, 69, 100
1, 92160, Note_on_c, 1, 46, 100
1, 92400, Note_on_c, 1, 50, 100
1, 92640, Note_on_c, 1, 50, 0
1, 92640, Note_on_c, 0, 69, 0
1, 92640, Note_on_c, 0, 70, 100
1, 92640, Note_on_c, 1, 53, 100
1, 92880, Note_on_c, 1, 53, 0
1, 92880, Note_on_c, 1, 50, 100
1, 93112, Note_on_c, 0, 70, 0
1, 93112, Note_on_c, 1, 46, 0
1, 93120, Note_on_c, 1, 50, 0
1, 93120, Poly_aftertouch_c, 0, 69, 0
1, 93120, Note_on_c, 1, 46, 100
1, 93360, Note_on_c, 1, 53, 100
1, 93592, Note_on_c, 1, 53, 0
1, 93592, Note_on_c, 1, 46, 0
1, 93600, Note_on_c, 0, 65, 100
1, 93600, Note_on_c, 1, 46, 100
1, 93840, Note_on_c, 1, 50, 100
1, 94080, Note_on_c, 1, 50, 0
1, 94080, Note_on_c, 1, 53, 100
1, 94320, Note_on_c, 1, 53, 0
1, 94320, Note_on_c, 1, 50, 100
1, 94552, Note_on_c, 1, 46, 0
1, 94560, Note_on_c, 1, 50, 0
1, 94560, Note_on_c, 0, 65, 0
1, 94560, Note_on_c, 0, 70, 100
1, 94560, Note_on_c, 1, 46, 100
1, 94800, Note_on_c, 1, 53, 100
1, 95032, Note_on_c, 1, 53, 0
1, 95032, Note_on_c, 1, 46, 0
1, 95032, Note_on_c, 0, 70, 0
1, 95040, Note_on_c, 0, 70, 100
1, 95040, Note_on_c, 1, 46, 100
1, 95280, Note_on_c, 1, 51, 100
1, 95520, Note_on_c, 1, 51, 0
1, 95520, Note_on_c, 1, 55, 100
1, 95760, Note_on_c, 1, 55, 0
1, 95760, Note_on_c, 1, 51, 100
1, 95992, Note_on_c, 1, 46, 0
1, 96000, Note_on_c, 1, 51, 0
1, 96000, Note_on_c, 0, 70, 0
1, 96000, Note_on_c, 0, 67, 100
1, 96000, Note_on_c, 1, 46, 100
1, 96240, Note_on_c, 1, 55, 100
1, 96472, Note_on_c, 1, 55, 0
1, 96472, Note_on_c, 1, 46, 0
1, 96472, Note_on_c, 0, 67, 0
1, 96480, Note_on_c, 0, 63, 100
1, 96480, Note_on_c, 1, 46, 100
1, 96720, Note_on_c, 1, 48, 100
1, 96960, Note_on_c, 1, 48, 0
1, 96960, Note_on_c, 1, 51, 100
1, 97200, Note_on_c, 1, 51, 0
1, 97200, Note_on_c, 1, 48, 100
1, 97432, Note_on_c, 1, 46, 0
1, 97440, Note_on_c, 1, 48, 0
1, 97440, Note_on_c, 0, 63, 0
1, 97440, Note_on_c, 0, 67, 100
1, 97440, Note_on_c, 1, 46, 100
1, 97504, Note_on_c, 0, 67, 0
1, 97504, Note_on_c, 0, 65, 100
1, 97560, Note_on_c, 0, 65, 0
1, 97560, Note_on_c, 0, 67, 100
1, 97680, Note_on_c, 1, 51, 100
1, 97912, Note_on_c, 1, 51, 0
1, 97912, Note_on_c, 1, 46, 0
1, 97920, Note_on_c, 0, 67, 0
1, 97920, Note_on_c, 0, 65, 100
1, 97920, Note_on_c, 1, 46, 100
1, 98160, Note_on_c, 1, 50, 100
1, 98400, Note_on_c, 1, 50, 0
1, 98400, Note_on_c, 1, 53, 100
1, 98640, Note_on_c, 1, 53, 0
1, 98640, Note_on_c, 1, 50, 100
1, 98872, Note_on_c, 1, 46, 0
1, 98880, Note_on_c, 1, 50, 0
1, 98880, Note_on_c, 0, 65, 0
1, 98880, Note_on_c, 0, 58, 100
1, 98880, Note_on_c, 1, 46, 100
1, 99120, Note_on_c, 1, 53, 100
1, 99352, Note_on_c, 1, 53, 0
1, 99352, Note_on_c, 1, 46, 0
1, 99352, Note_on_c, 0, 58, 0
1, 99360, Note_on_c, 0, 65, 100
1, 99360, Note_on_c, 1, 46, 100
1, 99600, Note_on_c, 1, 50, 100
1, 99840, Note_on_c, 1, 50, 0
1, 99840, Note_on_c, 1, 53, 100
1, 100080, Note_on_c, 1, 53, 0
1, 100080, Note_on_c, 1, 50, 100
1, 100312, Note_on_c, 1, 46, 0
1, 100320, Note_on_c, 1, 50, 0
1, 100320, Note_on_c, 0, 65, 0
1, 100320, Note_on_c, 0, 70, 100
1, 100320, Note_on_c, 1, 46, 100
1, 100560, Note_on_c, 1, 53, 100
1, 100792, Note_on_c, 1, 53, 0
1, 100792, Note_on_c, 1, 46, 0
1, 100792, Note_on_c, 0, 70, 0
1, 100800, Note_on_c, 0, 67, 100
1, 100800, Note_on_c, 1, 46, 100
1, 101040, Note_on_c, 1, 51, 100
1, 101280, Note_on_c, 1, 51, 0
1, 101280, Note_on_c, 1, 55, 100
1, 101520, Note_on_c, 1, 55, 0
1, 101520, Note_on_c, 1, 51, 100
1, 101752, Note_on_c, 1, 46, 0
1, 101760, Note_on_c, 1, 51, 0
1, 101760, Note_on_c, 0, 67, 0
1, 101760, Note_on_c, 0, 65, 100
1, 101760, Note_on_c, 1, 46, 100
1, 102000, Note_on_c, 1, 55, 100
1, 102232, Note_on_c, 1, 55, 0
1, 102232, Note_on_c, 1, 46, 0
1, 102232, Note_on_c, 0, 65, 0
1, 102240, Note_on_c, 0, 67, 100
1, 102240, Note_on_c, 1, 46, 100
1, 102480, Note_on_c, 1, 48, 100
1, 102720, Note_on_c, 1, 48, 0
1, 102720, Note_on_c, 1, 51, 100
1, 102960, Note_on_c, 1, 51, 0
1, 102960, Note_on_c, 1, 48, 100
1, 103192, Note_on_c, 1, 46, 0
1, 103200, Note_on_c, 1, 48, 0
1, 103200, Note_on_c, 0, 67, 0
1, 103200, Note_on_c, 0, 69, 100
1, 103200, Note_on_c, 1, 46, 100
1, 103264, Note_on_c, 0, 69, 0
1, 103264, Note_on_c, 0, 67, 100
1, 103320, Note_on_c, 0, 67, 0
1, 103320, Note_on_c, 0, 69, 100
1, 103440, Note_on_c, 1, 51, 100
1, 103672, Note_on_c, 1, 51, 0
1, 103672, Note_on_c, 1, 46, 0
1, 103680, Note_on_c, 0, 69, 0
1, 103680, Note_on_c, 0, 70, 100
1, 103680, Note_on_c, 0, 65, 100
1, 103680, Note_on_c, 0, 62, 100
1, 103680, Note_on_c, 1, 46, 100
1, 103695, Control_c, 0, 0, 8
1, 103695, Control_c, 0, 0, 8
1, 103695, Control_c, 1, 0, 8
1, 103696, Program_c, 0, 6
1, 103696, Control_c, 1, 0, 8
1, 103696, Program_c, 1, 6
1, 103920, Note_on_c, 1, 50, 100
1, 104160, Note_on_c, 1, 50, 0
1, 104160, Note_on_c, 1, 53, 100
1, 104400, Note_on_c, 1, 53, 0
1, 104400, Note_on_c, 1, 50, 100
1, 104632, Note_on_c, 1, 46, 0
1, 104640, Note_on_c, 1, 50, 0
1, 104640, Note_on_c, 1, 46, 100
1, 104880, Note_on_c, 1, 53, 100
1, 105112, Note_on_c, 1, 53, 0
1, 105112, Note_on_c, 0, 70, 0
1, 105112, Note_on_c, 0, 62, 0
1, 105112, Note_on_c, 0, 65, 0
1, 105112, Note_on_c, 1, 46, 0
1, 105120, Note_on_c, 0, 74, 100
1, 105120, Note_on_c, 1, 58, 100
1, 105240, Note_on_c, 0, 74, 0
1, 105240, Note_on_c, 0, 72, 100
1, 105360, Note_on_c, 0, 72, 0
1, 105360, Note_on_c, 0, 74, 100
1, 105600, Note_on_c, 1, 58, 0
1, 105600, Note_on_c, 1, 65, 100
1, 106072, Note_on_c, 0, 74, 0
1, 106080, Note_on_c, 1, 65, 0
1, 106080, Note_on_c, 0, 72, 100
1, 106080, Note_on_c, 1, 60, 100
1, 106144, Note_on_c, 0, 72, 0
1, 106144, Note_on_c, 0, 74, 100
1, 106200, Note_on_c, 0, 74, 0
1, 106200, Note_on_c, 0, 72, 100
1, 106320, Note_on_c, 1, 60, 0
1, 106320, Note_on_c, 1, 65, 100
1, 106560, Note_on_c, 1, 65, 0
1, 106560, Note_on_c, 0, 72, 0
1, 106560, Note_on_c, 0, 70, 100
1, 106560, Note_on_c, 1, 62, 100
1, 106800, Note_on_c, 0, 70, 0
1, 106800, Note_on_c, 0, 69, 100
1, 107040, Note_on_c, 0, 69, 0
1, 107040, Note_on_c, 1, 62, 0
1, 107040, Note_on_c, 0, 70, 100
1, 107040, Note_on_c, 1, 65, 100
1, 107280, Note_on_c, 0, 70, 0
1, 107280, Note_on_c, 0, 72, 100
1, 107344, Note_on_c, 0, 72, 0
1, 107344, Note_on_c, 0, 70, 100
1, 107400, Note_on_c, 0, 70, 0
1, 107400, Note_on_c, 0, 72, 100
1, 107520, Note_on_c, 0, 72, 0
1, 107520, Note_on_c, 1, 65, 0
1, 107520, Note_on_c, 0, 70, 100
1, 107520, Note_on_c, 1, 60, 100
1, 107760, Note_on_c, 1, 60, 0
1, 107760, Note_on_c, 0, 70, 0
1, 107760, Note_on_c, 0, 72, 100
1, 107760, Note_on_c, 1, 65, 100
1, 107992, Note_on_c, 0, 72, 0
1, 108000, Note_on_c, 1, 65, 0
1, 108000, Note_on_c, 0, 72, 100
1, 108000, Note_on_c, 1, 58, 100
1, 108480, Note_on_c, 1, 58, 0
1, 108480, Note_on_c, 0, 72, 0
1, 108480, Note_on_c, 0, 74, 100
1, 108480, Note_on_c, 1, 65, 100
1, 108952, Note_on_c, 0, 74, 0
1, 108960, Note_on_c, 1, 65, 0
1, 108960, Note_on_c, 0, 72, 100
1, 108960, Note_on_c, 1, 57, 100
1, 109080, Note_on_c, 0, 72, 0
1, 109080, Note_on_c, 0, 74, 100
1, 109200, Note_on_c, 0, 74, 0
1, 109200, Note_on_c, 1, 57, 0
1, 109200, Note_on_c, 0, 75, 100
1, 109200, Note_on_c, 1, 65, 100
1, 109432, Note_on_c, 1, 65, 0
1, 109432, Note_on_c, 0, 75, 0
1, 109440, Note_on_c, 0, 75, 100
1, 109440, Note_on_c, 1, 58, 100
1, 109560, Note_on_c, 0, 75, 0
1, 109560, Note_on_c, 0, 74, 100
1, 109640, Note_on_c, 1, 58, 0
1, 109680, Note_on_c, 0, 74, 0
1, 109680, Note_on_c, 0, 75, 100
1, 109800, Note_on_c, 0, 75, 0
1, 109800, Note_on_c, 0, 74, 100
1, 109920, Note_on_c, 0, 74, 0
1, 109920, Note_on_c, 0, 75, 100
1, 109920, Note_on_c, 1, 65, 100
1, 110040, Note_on_c, 0, 75, 0
1, 110040, Note_on_c, 0, 74, 100
1, 110120, Note_on_c, 1, 65, 0
1, 110160, Note_on_c, 0, 74, 0
1, 110160, Note_on_c, 0, 72, 100
1, 110280, Note_on_c, 0, 72, 0
1, 110280, Note_on_c, 0, 74, 100
1, 110400, Note_on_c, 0, 74, 0
1, 110400, Note_on_c, 0, 72, 100
1, 110400, Note_on_c, 0, 69, 100
1, 110400, Note_on_c, 1, 53, 100
1, 110600, Note_on_c, 1, 53, 0
1, 110872, Note_on_c, 0, 69, 0
1, 110872, Note_on_c, 0, 72, 0
1, 110880, Note_on_c, 0, 74, 100
1, 110880, Note_on_c, 1, 58, 100
1, 111120, Note_on_c, 1, 58, 0
1, 111120, Note_on_c, 0, 74, 0
1, 111120, Note_on_c, 0, 75, 100
1, 111120, Note_on_c, 1, 60, 100
1, 111360, Note_on_c, 1, 60, 0
1, 111360, Note_on_c, 0, 75, 0
1, 111360, Note_on_c, 0, 77, 100
1, 111360, Note_on_c, 1, 62, 100
1, 111600, Note_on_c, 1, 62, 0
1, 111600, Note_on_c, 1, 58, 100
1, 111840, Note_on_c, 1, 58, 0
1, 111840, Note_on_c, 0, 77, 0
1, 111840, Note_on_c, 0, 72, 100
1, 111840, Note_on_c, 1, 57, 100
1, 112080, Note_on_c, 1, 57, 0
1, 112080, Note_on_c, 1, 60, 100
1, 112312, Note_on_c, 1, 60, 0
1, 112312, Note_on_c, 0, 72, 0
1, 112320, Note_on_c, 0, 74, 100
1, 112320, Note_on_c, 1, 58, 100
1, 112560, Note_on_c, 1, 58, 0
1, 112560, Note_on_c, 0, 74, 0
1, 112560, Note_on_c, 0, 75, 100
1, 112560, Note_on_c, 1, 60, 100
1, 112800, Note_on_c, 1, 60, 0
1, 112800, Note_on_c, 0, 75, 0
1, 112800, Note_on_c, 0, 77, 100
1, 112800, Note_on_c, 1, 62, 100
1, 113040, Note_on_c, 1, 62, 0
1, 113040, Note_on_c, 0, 77, 0
1, 113040, Note_on_c, 0, 75, 100
1, 113040, Note_on_c, 1, 60, 100
1, 113280, Note_on_c, 1, 60, 0
1, 113280, Note_on_c, 0, 75, 0
1, 113280, Note_on_c, 0, 74, 100
1, 113280, Note_on_c, 1, 58, 100
1, 113520, Note_on_c, 1, 58, 0
1, 113520, Note_on_c, 0, 74, 0
1, 113520, Note_on_c, 0, 72, 100
1, 113520, Note_on_c, 1, 57, 100
1, 113760, Note_on_c, 1, 57, 0
1, 113760, Note_on_c, 0, 72, 0
1, 113760, Note_on_c, 0, 70, 100
1, 113760, Note_on_c, 1, 55, 100
1, 114000, Note_on_c, 1, 55, 0
1, 114000, Note_on_c, 1, 58, 100
1, 114232, Note_on_c, 0, 70, 0
1, 114240, Note_on_c, 1, 58, 0
1, 114240, Note_on_c, 0, 72, 100
1, 114240, Note_on_c, 1, 57, 100
1, 114480, Note_on_c, 1, 57, 0
1, 114480, Note_on_c, 0, 72, 0
1, 114480, Note_on_c, 0, 74, 100
1, 114480, Note_on_c, 1, 60, 100
1, 114600, Note_on_c, 0, 74, 0
1, 114600, Note_on_c, 0, 75, 100
1, 114720, Note_on_c, 0, 75, 0
1, 114720, Note_on_c, 1, 60, 0
1, 114720, Note_on_c, 0, 74, 100
1, 114720, Note_on_c, 1, 58, 100
1, 114960, Note_on_c, 1, 58, 0
1, 114960, Note_on_c, 1, 46, 100
1, 115192, Note_on_c, 0, 74, 0
1, 115200, Note_on_c, 1, 46, 0
1, 115200, Note_on_c, 0, 72, 100
1, 115200, Note_on_c, 1, 53, 100
1, 115320, Note_on_c, 0, 72, 0
1, 115320, Note_on_c, 0, 74, 100
1, 115440, Note_on_c, 0, 74, 0
1, 115440, Note_on_c, 1, 53, 0
1, 115440, Note_on_c, 0, 72, 100
1, 115440, Note_on_c, 1, 52, 100
1, 115680, Note_on_c, 1, 52, 0
1, 115680, Note_on_c, 1, 53, 100
1, 115920, Note_on_c, 1, 53, 0
1, 115920, Note_on_c, 1, 55, 100
1, 116160, Note_on_c, 1, 55, 0
1, 116160, Note_on_c, 1, 57, 100
1, 116400, Note_on_c, 1, 57, 0
1, 116400, Note_on_c, 1, 53, 100
1, 116632, Note_on_c, 1, 53, 0
1, 116632, Note_on_c, 0, 72, 0
1, 116640, Note_on_c, 0, 74, 100
1, 116640, Note_on_c, 1, 58, 100
1, 116760, Note_on_c, 0, 74, 0
1, 116760, Note_on_c, 0, 72, 100
1, 116880, Note_on_c, 0, 72, 0
1, 116880, Note_on_c, 0, 74, 100
1, 117120, Note_on_c, 1, 58, 0
1, 117120, Note_on_c, 1, 65, 100
1, 117592, Note_on_c, 0, 74, 0
1, 117600, Note_on_c, 1, 65, 0
1, 117600, Note_on_c, 0, 72, 100
1, 117600, Note_on_c, 1, 60, 100
1, 117664, Note_on_c, 0, 72, 0
1, 117664, Note_on_c, 0, 74, 100
1, 117720, Note_on_c, 0, 74, 0
1, 117720, Note_on_c, 0, 72, 100
1, 117840, Note_on_c, 1, 60, 0
1, 117840, Note_on_c, 1, 65, 100
1, 118080, Note_on_c, 1, 65, 0
1, 118080, Note_on_c, 0, 72, 0
1, 118080, Note_on_c, 0, 70, 100
1, 118080, Note_on_c, 1, 62, 100
1, 118320, Note_on_c, 0, 70, 0
1, 118320, Note_on_c, 0, 69, 100
1, 118560, Note_on_c, 0, 69, 0
1, 118560, Note_on_c, 1, 62, 0
1, 118560, Note_on_c, 0, 70, 100
1, 118560, Note_on_c, 1, 65, 100
1, 118800, Note_on_c, 0, 70, 0
1, 118800, Note_on_c, 0, 72, 100
1, 118864, Note_on_c, 0, 72, 0
1, 118864, Note_on_c, 0, 70, 100
1, 118920, Note_on_c, 0, 70, 0
1, 118920, Note_on_c, 0, 72, 100
1, 119040, Note_on_c, 0, 72, 0
1, 119040, Note_on_c, 1, 65, 0
1, 119040, Note_on_c, 0, 70, 100
1, 119040, Note_on_c, 1, 60, 100
1, 119280, Note_on_c, 1, 60, 0
1, 119280, Note_on_c, 0, 70, 0
1, 119280, Note_on_c, 0, 72, 100
1, 119280, Note_on_c, 1, 65, 100
1, 119512, Note_on_c, 0, 72, 0
1, 119520, Note_on_c, 1, 65, 0
1, 119520, Note_on_c, 0, 72, 100
1, 119520, Note_on_c, 1, 58, 100
1, 120000, Note_on_c, 1, 58, 0
1, 120000, Note_on_c, 0, 72, 0
1, 120000, Note_on_c, 0, 74, 100
1, 120000, Note_on_c, 1, 65, 100
1, 120472, Note_on_c, 0, 74, 0
1, 120480, Note_on_c, 1, 65, 0
1, 120480, Note_on_c, 0, 72, 100
1, 120480, Note_on_c, 1, 57, 100
1, 120600, Note_on_c, 0, 72, 0
1, 120600, Note_on_c, 0, 74, 100
1, 120720, Note_on_c, 0, 74, 0
1, 120720, Note_on_c, 1, 57, 0
1, 120720, Note_on_c, 0, 75, 100
1, 120720, Note_on_c, 1, 65, 100
1, 120952, Note_on_c, 1, 65, 0
1, 120952, Note_on_c, 0, 75, 0
1, 120960, Note_on_c, 0, 75, 100
1, 120960, Note_on_c, 1, 58, 100
1, 121080, Note_on_c, 0, 75, 0
1, 121080, Note_on_c, 0, 74, 100
1, 121160, Note_on_c, 1, 58, 0
1, 121200, Note_on_c, 0, 74, 0
1, 121200, Note_on_c, 0, 75, 100
1, 121320, Note_on_c, 0, 75, 0
1, 121320, Note_on_c, 0, 74, 100
1, 121440, Note_on_c, 0, 74, 0
1, 121440, Note_on_c, 0, 75, 100
1, 121440, Note_on_c, 1, 65, 100
1, 121560, Note_on_c, 0, 75, 0
1, 121560, Note_on_c, 0, 74, 100
1, 121640, Note_on_c, 1, 65, 0
1, 121680, Note_on_c, 0, 74, 0
1, 121680, Note_on_c, 0, 72, 100
1, 121800, Note_on_c, 0, 72, 0
1, 121800, Note_on_c, 0, 74, 100
1, 121920, Note_on_c, 0, 74, 0
1, 121920, Note_on_c, 0, 72, 100
1, 121920, Note_on_c, 0, 69, 100
1, 121920, Note_on_c, 1, 53, 100
1, 122120, Note_on_c, 1, 53, 0
1, 122392, Note_on_c, 0, 69, 0
1, 122392, Note_on_c, 0, 72, 0
1, 122400, Note_on_c, 0, 74, 100
1, 122400, Note_on_c, 1, 58, 100
1, 122640, Note_on_c, 1, 58, 0
1, 122640, Note_on_c, 0, 74, 0
1, 122640, Note_on_c, 0, 75, 100
1, 122640, Note_on_c, 1, 60, 100
1, 122880, Note_on_c, 1, 60, 0
1, 122880, Note_on_c, 0, 75, 0
1, 122880, Note_on_c, 0, 77, 100
1, 122880, Note_on_c, 1, 62, 100
1, 123120, Note_on_c, 1, 62, 0
1, 123120, Note_on_c, 1, 58, 100
1, 123360, Note_on_c, 1, 58, 0
1, 123360, Note_on_c, 0, 77, 0
1, 123360, Note_on_c, 0, 72, 100
1, 123360, Note_on_c, 1, 57, 100
1, 123600, Note_on_c, 1, 57, 0
1, 123600, Note_on_c, 1, 60, 100
1, 123832, Note_on_c, 1, 60, 0
1, 123832, Note_on_c, 0, 72, 0
1, 123840, Note_on_c, 0, 74, 100
1, 123840, Note_on_c, 1, 58, 100
1, 124080, Note_on_c, 1, 58, 0
1, 124080, Note_on_c, 0, 74, 0
1, 124080, Note_on_c, 0, 75, 100
1, 124080, Note_on_c, 1, 60, 100
1, 124320, Note_on_c, 1, 60, 0
1, 124320, Note_on_c, 0, 75, 0
1, 124320, Note_on_c, 0, 77, 100
1, 124320, Note_on_c, 1, 62, 100
1, 124560, Note_on_c, 1, 62, 0
1, 124560, Note_on_c, 0, 77, 0
1, 124560, Note_on_c, 0, 75, 100
1, 124560, Note_on_c, 1, 60, 100
1, 124800, Note_on_c, 1, 60, 0
1, 124800, Note_on_c, 0, 75, 0
1, 124800, Note_on_c, 0, 74, 100
1, 124800, Note_on_c, 1, 58, 100
1, 125040, Note_on_c, 1, 58, 0
1, 125040, Note_on_c, 0, 74, 0
1, 125040, Note_on_c, 0, 72, 100
1, 125040, Note_on_c, 1, 57, 100
1, 125280, Note_on_c, 1, 57, 0
1, 125280, Note_on_c, 0, 72, 0
1, 125280, Note_on_c, 0, 70, 100
1, 125280, Note_on_c, 1, 55, 100
1, 125520, Note_on_c, 1, 55, 0
1, 125520, Note_on_c, 1, 58, 100
1, 125752, Note_on_c, 0, 70, 0
1, 125760, Note_on_c, 1, 58, 0
1, 125760, Note_on_c, 0, 72, 100
1, 125760, Note_on_c, 1, 57, 100
1, 126000, Note_on_c, 1, 57, 0
1, 126000, Note_on_c, 0, 72, 0
1, 126000, Note_on_c, 0, 74, 100
1, 126000, Note_on_c, 1, 60, 100
1, 126120, Note_on_c, 0, 74, 0
1, 126120, Note_on_c, 0, 75, 100
1, 126240, Note_on_c, 0, 75, 0
1, 126240, Note_on_c, 1, 60, 0
1, 126240, Note_on_c, 0, 74, 100
1, 126240, Note_on_c, 1, 58, 100
1, 126480, Note_on_c, 1, 58, 0
1, 126480, Note_on_c, 1, 46, 100
1, 126712, Note_on_c, 0, 74, 0
1, 126720, Note_on_c, 1, 46, 0
1, 126720, Note_on_c, 0, 72, 100
1, 126720, Poly_aftertouch_c, 0, 60, 0
1, 126720, Note_on_c, 1, 53, 100
1, 126720, Poly_aftertouch_c, 1, 60, 0
1, 126960, Note_on_c, 1, 53, 0
1, 126960, Note_on_c, 1, 52, 100
1, 127200, Note_on_c, 1, 52, 0
1, 127200, Note_on_c, 1, 53, 100
1, 127440, Note_on_c, 1, 53, 0
1, 127440, Note_on_c, 1, 55, 100
1, 127680, Note_on_c, 1, 55, 0
1, 127680, Note_on_c, 1, 53, 100
1, 127920, Note_on_c, 1, 53, 0
1, 127920, Note_on_c, 1, 51, 100
1, 128152, Note_on_c, 1, 51, 0
1, 128152, Note_on_c, 0, 72, 0
1, 128160, Note_on_c, 0, 77, 100
1, 128160, Note_on_c, 1, 50, 100
1, 128400, Note_on_c, 1, 50, 0
1, 128400, Note_on_c, 1, 58, 100
1, 128640, Note_on_c, 1, 58, 0
1, 128640, Note_on_c, 1, 57, 100
1, 128880, Note_on_c, 1, 57, 0
1, 128880, Note_on_c, 1, 58, 100
1, 129112, Note_on_c, 0, 77, 0
1, 129120, Note_on_c, 1, 58, 0
1, 129120, Note_on_c, 0, 70, 100
1, 129120, Note_on_c, 1, 50, 100
1, 129184, Note_on_c, 0, 70, 0
1, 129184, Note_on_c, 0, 69, 100
1, 129240, Note_on_c, 0, 69, 0
1, 129240, Note_on_c, 0, 70, 100
1, 129360, Note_on_c, 1, 50, 0
1, 129360, Note_on_c, 1, 58, 100
1, 129600, Note_on_c, 1, 58, 0
1, 129600, Note_on_c, 0, 70, 0
1, 129600, Note_on_c, 0, 72, 100
1, 129600, Note_on_c, 1, 51, 100
1, 129840, Note_on_c, 1, 51, 0
1, 129840, Note_on_c, 1, 58, 100
1, 130080, Note_on_c, 1, 58, 0
1, 130080, Note_on_c, 1, 57, 100
1, 130320, Note_on_c, 1, 57, 0
1, 130320, Note_on_c, 0, 72, 0
1, 130320, Note_on_c, 0, 70, 100
1, 130320, Note_on_c, 1, 58, 100
1, 130560, Note_on_c, 1, 58, 0
1, 130560, Note_on_c, 0, 70, 0
1, 130560, Note_on_c, 0, 72, 100
1, 130560, Note_on_c, 1, 51, 100
1, 130624, Note_on_c, 0, 72, 0
1, 130624, Note_on_c, 0, 70, 100
1, 130680, Note_on_c, 0, 70, 0
1, 130680, Note_on_c, 0, 72, 100
1, 130800, Note_on_c, 0, 72, 0
1, 130800, Note_on_c, 1, 51, 0
1, 130800, Note_on_c, 0, 74, 100
1, 130800, Note_on_c, 1, 58, 100
1, 131040, Note_on_c, 1, 58, 0
1, 131040, Note_on_c, 0, 74, 0
1, 131040, Note_on_c, 0, 72, 100
1, 131040, Note_on_c, 1, 53, 100
1, 131280, Note_on_c, 1, 53, 0
1, 131280, Note_on_c, 0, 72, 0
1, 131280, Note_on_c, 0, 70, 100
1, 131280, Note_on_c, 1, 58, 100
1, 131520, Note_on_c, 1, 58, 0
1, 131520, Note_on_c, 0, 70, 0
1, 131520, Note_on_c, 0, 72, 100
1, 131520, Note_on_c, 1, 57, 100
1, 131760, Note_on_c, 1, 57, 0
1, 131760, Note_on_c, 0, 72, 0
1, 131760, Note_on_c, 0, 74, 100
1, 131760, Note_on_c, 1, 58, 100
1, 132000, Note_on_c, 1, 58, 0
1, 132000, Note_on_c, 0, 74, 0
1, 132000, Note_on_c, 0, 72, 100
1, 132000, Note_on_c, 1, 53, 100
1, 132240, Note_on_c, 1, 53, 0
1, 132240, Note_on_c, 0, 72, 0
1, 132240, Note_on_c, 0, 74, 100
1, 132240, Note_on_c, 1, 58, 100
1, 132480, Note_on_c, 1, 58, 0
1, 132480, Note_on_c, 0, 74, 0
1, 132480, Note_on_c, 0, 75, 100
1, 132480, Note_on_c, 1, 55, 100
1, 132720, Note_on_c, 1, 55, 0
1, 132720, Note_on_c, 0, 75, 0
1, 132720, Note_on_c, 0, 74, 100
1, 132720, Note_on_c, 1, 58, 100
1, 132960, Note_on_c, 1, 58, 0
1, 132960, Note_on_c, 0, 74, 0
1, 132960, Note_on_c, 0, 75, 100
1, 132960, Note_on_c, 1, 57, 100
1, 133024, Note_on_c, 0, 75, 0
1, 133024, Note_on_c, 0, 74, 100
1, 133080, Note_on_c, 0, 74, 0
1, 133080, Note_on_c, 0, 75, 100
1, 133200, Note_on_c, 0, 75, 0
1, 133200, Note_on_c, 1, 57, 0
1, 133200, Note_on_c, 0, 77, 100
1, 133200, Note_on_c, 1, 58, 100
1, 133440, Note_on_c, 1, 58, 0
1, 133440, Note_on_c, 0, 77, 0
1, 133440, Note_on_c, 0, 74, 100
1, 133440, Note_on_c, 1, 55, 100
1, 133680, Note_on_c, 1, 55, 0
1, 133680, Note_on_c, 0, 74, 0
1, 133680, Note_on_c, 0, 75, 100
1, 133680, Note_on_c, 1, 58, 100
1, 133920, Note_on_c, 1, 58, 0
1, 133920, Note_on_c, 0, 75, 0
1, 133920, Note_on_c, 0, 77, 100
1, 133920, Note_on_c, 1, 50, 100
1, 133984, Note_on_c, 0, 77, 0
1, 133984, Note_on_c, 0, 76, 100
1, 134040, Note_on_c, 0, 76, 0
1, 134040, Note_on_c, 0, 77, 100
1, 134160, Note_on_c, 1, 50, 0
1, 134160, Note_on_c, 1, 58, 100
1, 134400, Note_on_c, 1, 58, 0
1, 134400, Note_on_c, 0, 77, 0
1, 134400, Note_on_c, 0, 79, 100
1, 134400, Note_on_c, 1, 57, 100
1, 134640, Note_on_c, 1, 57, 0
1, 134640, Note_on_c, 0, 79, 0
1, 134640, Note_on_c, 0, 77, 100
1, 134640, Note_on_c, 1, 58, 100
1, 134880, Note_on_c, 1, 58, 0
1, 134880, Note_on_c, 0, 77, 0
1, 134880, Note_on_c, 0, 75, 100
1, 134880, Note_on_c, 1, 50, 100
1, 135120, Note_on_c, 1, 50, 0
1, 135120, Note_on_c, 0, 75, 0
1, 135120, Note_on_c, 0, 74, 100
1, 135120, Note_on_c, 1, 58, 100
1, 135360, Note_on_c, 1, 58, 0
1, 135360, Note_on_c, 0, 74, 0
1, 135360, Note_on_c, 0, 72, 100
1, 135360, Note_on_c, 1, 51, 100
1, 135424, Note_on_c, 0, 72, 0
1, 135424, Note_on_c, 0, 74, 100
1, 135480, Note_on_c, 0, 74, 0
1, 135480, Note_on_c, 0, 72, 100
1, 135600, Note_on_c, 1, 51, 0
1, 135600, Note_on_c, 1, 58, 100
1, 135840, Note_on_c, 1, 58, 0
1, 135840, Note_on_c, 0, 72, 0
1, 135840, Note_on_c, 0, 70, 100
1, 135840, Note_on_c, 1, 57, 100
1, 136080, Note_on_c, 1, 57, 0
1, 136080, Note_on_c, 1, 58, 100
1, 136320, Note_on_c, 1, 58, 0
1, 136320, Note_on_c, 0, 70, 0
1, 136320, Note_on_c, 0, 72, 100
1, 136320, Note_on_c, 1, 51, 100
1, 136560, Note_on_c, 1, 51, 0
1, 136560, Note_on_c, 1, 58, 100
1, 136792, Note_on_c, 0, 72, 0
1, 136800, Note_on_c, 1, 58, 0
1, 136800, Note_on_c, 0, 72, 100
1, 136800, Note_on_c, 1, 53, 100
1, 137000, Note_on_c, 1, 53, 0
1, 137040, Note_on_c, 0, 72, 0
1, 137040, Note_on_c, 0, 74, 100
1, 137280, Note_on_c, 1, 58, 100
1, 137480, Note_on_c, 1, 58, 0
1, 137520, Note_on_c, 0, 74, 0
1, 137520, Note_on_c, 0, 75, 100
1, 137760, Note_on_c, 0, 75, 0
1, 137760, Note_on_c, 0, 72, 100
1, 137760, Note_on_c, 1, 57, 100
1, 137824, Note_on_c, 1, 57, 0
1, 137824, Note_on_c, 1, 58, 100
1, 137880, Note_on_c, 1, 58, 0
1, 137880, Note_on_c, 1, 57, 100
1, 138000, Note_on_c, 0, 72, 0
1, 138000, Note_on_c, 0, 70, 100
1, 138240, Note_on_c, 0, 70, 0
1, 138240, Note_on_c, 1, 57, 0
1, 138240, Note_on_c, 0, 70, 100
1, 138240, Note_on_c, 1, 58, 100
1, 138440, Note_on_c, 1, 58, 0
1, 138480, Note_on_c, 0, 70, 0
1, 138480, Note_on_c, 0, 69, 100
1, 138720, Note_on_c, 0, 69, 0
1, 138720, Note_on_c, 0, 70, 100
1, 138720, Note_on_c, 1, 46, 100
1, 138920, Note_on_c, 1, 46, 0
1, 138960, Note_on_c, 0, 70, 0
1, 138960, Note_on_c, 0, 72, 100
1, 139200, Note_on_c, 0, 72, 0
1, 139200, Note_on_c, 0, 74, 100
1, 139200, Note_on_c, 1, 48, 100
1, 139400, Note_on_c, 1, 48, 0
1, 139440, Note_on_c, 0, 74, 0
1, 139440, Note_on_c, 0, 75, 100
1, 139680, Note_on_c, 0, 75, 0
1, 139680, Note_on_c, 0, 77, 100
1, 139680, Note_on_c, 1, 50, 100
1, 139920, Note_on_c, 1, 50, 0
1, 139920, Note_on_c, 1, 58, 100
1, 140160, Note_on_c, 1, 58, 0
1, 140160, Note_on_c, 1, 57, 100
1, 140400, Note_on_c, 1, 57, 0
1, 140400, Note_on_c, 1, 58, 100
1, 140632, Note_on_c, 0, 77, 0
1, 140640, Note_on_c, 1, 58, 0
1, 140640, Note_on_c, 0, 70, 100
1, 140640, Note_on_c, 1, 50, 100
1, 140704, Note_on_c, 0, 70, 0
1, 140704, Note_on_c, 0, 69, 100
1, 140760, Note_on_c, 0, 69, 0
1, 140760, Note_on_c, 0, 70, 100
1, 140880, Note_on_c, 1, 50, 0
1, 140880, Note_on_c, 1, 58, 100
1, 141120, Note_on_c, 1, 58, 0
1, 141120, Note_on_c, 0, 70, 0
1, 141120, Note_on_c, 0, 72, 100
1, 141120, Note_on_c, 1, 51, 100
1, 141360, Note_on_c, 1, 51, 0
1, 141360, Note_on_c, 1, 58, 100
1, 141600, Note_on_c, 1, 58, 0
1, 141600, Note_on_c, 1, 57, 100
1, 141840, Note_on_c, 1, 57, 0
1, 141840, Note_on_c, 0, 72, 0
1, 141840, Note_on_c, 0, 70, 100
1, 141840, Note_on_c, 1, 58, 100
1, 142080, Note_on_c, 1, 58, 0
1, 142080, Note_on_c, 0, 70, 0
1, 142080, Note_on_c, 0, 72, 100
1, 142080, Note_on_c, 1, 51, 100
1, 142144, Note_on_c, 0, 72, 0
1, 142144, Note_on_c, 0, 70, 100
1, 142200, Note_on_c, 0, 70, 0
1, 142200, Note_on_c, 0, 72, 100
1, 142320, Note_on_c, 0, 72, 0
1, 142320, Note_on_c, 1, 51, 0
1, 142320, Note_on_c, 0, 74, 100
1, 142320, Note_on_c, 1, 58, 100
1, 142560, Note_on_c, 1, 58, 0
1, 142560, Note_on_c, 0, 74, 0
1, 142560, Note_on_c, 0, 72, 100
1, 142560, Note_on_c, 1, 53, 100
1, 142800, Note_on_c, 1, 53, 0
1, 142800, Note_on_c, 0, 72, 0
1, 142800, Note_on_c, 0, 70, 100
1, 142800, Note_on_c, 1, 58, 100
1, 143040, Note_on_c, 1, 58, 0
1, 143040, Note_on_c, 0, 70, 0
1, 143040, Note_on_c, 0, 72, 100
1, 143040, Note_on_c, 1, 57, 100
1, 143280, Note_on_c, 1, 57, 0
1, 143280, Note_on_c, 0, 72, 0
1, 143280, Note_on_c, 0, 74, 100
1, 143280, Note_on_c, 1, 58, 100
1, 143520, Note_on_c, 1, 58, 0
1, 143520, Note_on_c, 0, 74, 0
1, 143520, Note_on_c, 0, 72, 100
1, 143520, Note_on_c, 1, 53, 100
1, 143760, Note_on_c, 1, 53, 0
1, 143760, Note_on_c, 0, 72, 0
1, 143760, Note_on_c, 0, 74, 100
1, 143760, Note_on_c, 1, 58, 100
1, 144000, Note_on_c, 1, 58, 0
1, 144000, Note_on_c, 0, 74, 0
1, 144000, Note_on_c, 0, 75, 100
1, 144000, Note_on_c, 1, 55, 100
1, 144240, Note_on_c, 1, 55, 0
1, 144240, Note_on_c, 0, 75, 0
1, 144240, Note_on_c, 0, 74, 100
1, 144240, Note_on_c, 1, 58, 100
1, 144480, Note_on_c, 1, 58, 0
1, 144480, Note_on_c, 0, 74, 0
1, 144480, Note_on_c, 0, 75, 100
1, 144480, Note_on_c, 1, 57, 100
1, 144544, Note_on_c, 0, 75, 0
1, 144544, Note_on_c, 0, 74, 100
1, 144600, Note_on_c, 0, 74, 0
1, 144600, Note_on_c, 0, 75, 100
1, 144720, Note_on_c, 0, 75, 0
1, 144720, Note_on_c, 1, 57, 0
1, 144720, Note_on_c, 0, 77, 100
1, 144720, Note_on_c, 1, 58, 100
1, 144960, Note_on_c, 1, 58, 0
1, 144960, Note_on_c, 0, 77, 0
1, 144960, Note_on_c, 0, 74, 100
1, 144960, Note_on_c, 1, 55, 100
1, 145200, Note_on_c, 1, 55, 0
1, 145200, Note_on_c, 0, 74, 0
1, 145200, Note_on_c, 0, 75, 100
1, 145200, Note_on_c, 1, 58, 100
1, 145440, Note_on_c, 1, 58, 0
1, 145440, Note_on_c, 0, 75, 0
1, 145440, Note_on_c, 0, 77, 100
1, 145440, Note_on_c, 1, 50, 100
1, 145504, Note_on_c, 0, 77, 0
1, 145504, Note_on_c, 0, 76, 100
1, 145560, Note_on_c, 0, 76, 0
1, 145560, Note_on_c, 0, 77, 100
1, 145680, Note_on_c, 1, 50, 0
1, 145680, Note_on_c, 1, 58, 100
1, 145920, Note_on_c, 1, 58, 0
1, 145920, Note_on_c, 0, 77, 0
1, 145920, Note_on_c, 0, 79, 100
1, 145920, Note_on_c, 1, 57, 100
1, 146160, Note_on_c, 1, 57, 0
1, 146160, Note_on_c, 0, 79, 0
1, 146160, Note_on_c, 0, 77, 100
1, 146160, Note_on_c, 1, 58, 100
1, 146400, Note_on_c, 1, 58, 0
1, 146400, Note_on_c, 0, 77, 0
1, 146400, Note_on_c, 0, 75, 100
1, 146400, Note_on_c, 1, 50, 100
1, 146640, Note_on_c, 1, 50, 0
1, 146640, Note_on_c, 0, 75, 0
1, 146640, Note_on_c, 0, 74, 100
1, 146640, Note_on_c, 1, 58, 100
1, 146880, Note_on_c, 1, 58, 0
1, 146880, Note_on_c, 0, 74, 0
1, 146880, Note_on_c, 0, 72, 100
1, 146880, Note_on_c, 1, 51, 100
1, 146944, Note_on_c, 0, 72, 0
1, 146944, Note_on_c, 0, 74, 100
1, 147000, Note_on_c, 0, 74, 0
1, 147000, Note_on_c, 0, 72, 100
1, 147120, Note_on_c, 1, 51, 0
1, 147120, Note_on_c, 1, 58, 100
1, 147360, Note_on_c, 1, 58, 0
1, 147360, Note_on_c, 0, 72, 0
1, 147360, Note_on_c, 0, 70, 100
1, 147360, Note_on_c, 1, 57, 100
1, 147600, Note_on_c, 1, 57, 0
1, 147600, Note_on_c, 1, 58, 100
1, 147840, Note_on_c, 1, 58, 0
1, 147840, Note_on_c, 0, 70, 0
1, 147840, Note_on_c, 0, 72, 100
1, 147840, Note_on_c, 1, 51, 100
1, 148080, Note_on_c, 1, 51, 0
1, 148080, Note_on_c, 1, 58, 100
1, 148312, Note_on_c, 0, 72, 0
1, 148320, Note_on_c, 1, 58, 0
1, 148320, Note_on_c, 0, 72, 100
1, 148320, Note_on_c, 1, 53, 100
1, 148520, Note_on_c, 1, 53, 0
1, 148560, Note_on_c, 0, 72, 0
1, 148560, Note_on_c, 0, 74, 100
1, 148800, Note_on_c, 1, 58, 100
1, 149000, Note_on_c, 1, 58, 0
1, 149040, Note_on_c, 0, 74, 0
1, 149040, Note_on_c, 0, 75, 100
1, 149280, Note_on_c, 0, 75, 0
1, 149280, Note_on_c, 0, 72, 100
1, 149280, Note_on_c, 1, 57, 100
1, 149344, Note_on_c, 1, 57, 0
1, 149344, Note_on_c, 1, 58, 100
1, 149400, Note_on_c, 1, 58, 0
1, 149400, Note_on_c, 1, 57, 100
1, 149520, Note_on_c, 0, 72, 0
1, 149520, Note_on_c, 0, 70, 100
1, 149760, Note_on_c, 0, 70, 0
1, 149760, Note_on_c, 1, 57, 0
1, 149760, Note_on_c, 0, 70, 100
1, 149760, Note_on_c, 0, 65, 100
1, 149760, Note_on_c, 0, 62, 100
1, 149760, Note_on_c, 1, 58, 100
1, 150232, Note_on_c, 1, 58, 0
1, 150240, Note_on_c, 1, 53, 100
1, 150712, Note_on_c, 1, 53, 0
1, 150720, Note_on_c, 1, 46, 100
1, 151192, Note_on_c, 1, 46, 0
1, 151192, Note_on_c, 0, 70, 0
1, 151192, Note_on_c, 0, 65, 0
1, 151192, Note_on_c, 0, 62, 0
1, 151199, Control_c, 0, 0, 0
1, 151199, Control_c, 0, 0, 0
1, 151199, Control_c, 1, 0, 0
1, 151200, Note_on_c, 0, 74, 100
1, 151200, Program_c, 0, 6
1, 151200, Note_on_c, 1, 58, 100
1, 151200, Control_c, 1, 0, 0
1, 151200, Program_c, 1, 6
1, 151440, Note_on_c, 1, 58, 0
1, 151440, Note_on_c, 1, 67, 100
1, 151680, Note_on_c, 1, 67, 0
1, 151680, Note_on_c, 1, 66, 100
1, 151920, Note_on_c, 1, 66, 0
1, 151920, Note_on_c, 1, 67, 100
1, 152160, Note_on_c, 1, 67, 0
1, 152160, Note_on_c, 0, 74, 0
1, 152160, Note_on_c, 0, 75, 100
1, 152160, Note_on_c, 1, 60, 100
1, 152400, Note_on_c, 1, 60, 0
1, 152400, Note_on_c, 1, 69, 100
1, 152632, Note_on_c, 1, 69, 0
1, 152632, Note_on_c, 0, 75, 0
1, 152640, Note_on_c, 0, 74, 100
1, 152640, Note_on_c, 1, 58, 100
1, 152880, Note_on_c, 1, 58, 0
1, 152880, Note_on_c, 1, 67, 100
1, 153120, Note_on_c, 1, 67, 0
1, 153120, Note_on_c, 1, 66, 100
1, 153360, Note_on_c, 1, 66, 0
1, 153360, Note_on_c, 1, 67, 100
1, 153600, Note_on_c, 1, 67, 0
1, 153600, Note_on_c, 0, 74, 0
1, 153600, Note_on_c, 0, 75, 100
1, 153600, Note_on_c, 1, 60, 100
1, 153664, Note_on_c, 0, 75, 0
1, 153664, Note_on_c, 0, 74, 100
1, 153720, Note_on_c, 0, 74, 0
1, 153720, Note_on_c, 0, 75, 100
1, 153840, Note_on_c, 1, 60, 0
1, 153840, Note_on_c, 1, 69, 100
1, 154072, Note_on_c, 1, 69, 0
1, 154080, Note_on_c, 0, 75, 0
1, 154080, Note_on_c, 0, 74, 100
1, 154080, Note_on_c, 1, 58, 100
1, 154320, Note_on_c, 0, 74, 0
1, 154320, Note_on_c, 0, 75, 100
1, 154560, Note_on_c, 0, 75, 0
1, 154560, Note_on_c, 1, 58, 0
1, 154560, Note_on_c, 0, 74, 100
1, 154560, Note_on_c, 1, 60, 100
1, 154624, Note_on_c, 1, 60, 0
1, 154624, Note_on_c, 1, 58, 100
1, 154680, Note_on_c, 1, 58, 0
1, 154680, Note_on_c, 1, 60, 100
1, 154800, Note_on_c, 0, 74, 0
1, 154800, Note_on_c, 0, 72, 100
1, 155040, Note_on_c, 0, 72, 0
1, 155040, Note_on_c, 1, 60, 0
1, 155040, Note_on_c, 0, 70, 100
1, 155040, Note_on_c, 1, 62, 100
1, 155280, Note_on_c, 0, 70, 0
1, 155280, Note_on_c, 0, 69, 100
1, 155512, Note_on_c, 0, 69, 0
1, 155512, Note_on_c, 1, 62, 0
1, 155520, Note_on_c, 0, 70, 100
1, 155520, Note_on_c, 1, 55, 100
1, 155640, Note_on_c, 0, 70, 0
1, 155640, Note_on_c, 0, 69, 100
1, 155720, Note_on_c, 1, 55, 0
1, 155760, Note_on_c, 0, 69, 0
1, 155760, Note_on_c, 0, 70, 100
1, 156000, Note_on_c, 1, 50, 100
1, 156200, Note_on_c, 1, 50, 0
1, 156480, Note_on_c, 0, 70, 0
1, 156480, Note_on_c, 0, 67, 100
1, 156480, Note_on_c, 1, 43, 100
1, 156680, Note_on_c, 1, 43, 0
1, 156952, Note_on_c, 0, 67, 0
1, 156960, Note_on_c, 0, 74, 100
1, 156960, Note_on_c, 1, 67, 100
1, 157200, Note_on_c, 1, 67, 0
1, 157200, Note_on_c, 1, 70, 100
1, 157440, Note_on_c, 1, 70, 0
1, 157440, Note_on_c, 1, 69, 100
1, 157680, Note_on_c, 1, 69, 0
1, 157680, Note_on_c, 1, 70, 100
1, 157920, Note_on_c, 1, 70, 0
1, 157920, Note_on_c, 0, 74, 0
1, 157920, Note_on_c, 0, 79, 100
1, 157920, Note_on_c, 1, 67, 100
1, 158160, Note_on_c, 1, 67, 0
1, 158160, Note_on_c, 1, 70, 100
1, 158392, Note_on_c, 1, 70, 0
1, 158392, Note_on_c, 0, 79, 0
1, 158400, Note_on_c, 0, 74, 100
1, 158400, Note_on_c, 1, 66, 100
1, 158640, Note_on_c, 1, 66, 0
1, 158640, Note_on_c, 1, 69, 100
1, 158880, Note_on_c, 1, 69, 0
1, 158880, Note_on_c, 1, 67, 100
1, 159120, Note_on_c, 1, 67, 0
1, 159120, Note_on_c, 1, 69, 100
1, 159360, Note_on_c, 1, 69, 0
1, 159360, Note_on_c, 0, 74, 0
1, 159360, Note_on_c, 0, 81, 100
1, 159360, Note_on_c, 1, 66, 100
1, 159600, Note_on_c, 1, 66, 0
1, 159600, Note_on_c, 1, 69, 100
1, 159832, Note_on_c, 1, 69, 0
1, 159832, Note_on_c, 0, 81, 0
1, 159840, Note_on_c, 0, 74, 100
1, 159840, Note_on_c, 1, 67, 100
1, 160080, Note_on_c, 1, 67, 0
1, 160080, Note_on_c, 1, 70, 100
1, 160320, Note_on_c, 1, 70, 0
1, 160320, Note_on_c, 1, 69, 100
1, 160560, Note_on_c, 1, 69, 0
1, 160560, Note_on_c, 1, 70, 100
1, 160800, Note_on_c, 1, 70, 0
1, 160800, Note_on_c, 0, 74, 0
1, 160800, Note_on_c, 0, 82, 100
1, 160800, Note_on_c, 1, 67, 100
1, 161040, Note_on_c, 1, 67, 0
1, 161040, Note_on_c, 1, 70, 100
1, 161272, Note_on_c, 1, 70, 0
1, 161272, Note_on_c, 0, 82, 0
1, 161280, Note_on_c, 0, 74, 100
1, 161280, Note_on_c, 1, 66, 100
1, 161520, Note_on_c, 1, 66, 0
1, 161520, Note_on_c, 1, 69, 100
1, 161760, Note_on_c, 1, 69, 0
1, 161760, Note_on_c, 1, 67, 100
1, 162000, Note_on_c, 1, 67, 0
1, 162000, Note_on_c, 1, 69, 100
1, 162240, Note_on_c, 1, 69, 0
1, 162240, Note_on_c, 0, 74, 0
1, 162240, Note_on_c, 0, 81, 100
1, 162240, Note_on_c, 1, 66, 100
1, 162480, Note_on_c, 1, 66, 0
1, 162480, Note_on_c, 1, 69, 100
1, 162712, Note_on_c, 1, 69, 0
1, 162712, Note_on_c, 0, 81, 0
1, 162720, Note_on_c, 0, 74, 100
1, 162720, Note_on_c, 1, 67, 100
1, 162960, Note_on_c, 1, 67, 0
1, 162960, Note_on_c, 1, 70, 100
1, 163200, Note_on_c, 1, 70, 0
1, 163200, Note_on_c, 1, 69, 100
1, 163440, Note_on_c, 1, 69, 0
1, 163440, Note_on_c, 1, 70, 100
1, 163680, Note_on_c, 1, 70, 0
1, 163680, Note_on_c, 0, 74, 0
1, 163680, Note_on_c, 0, 82, 100
1, 163680, Note_on_c, 1, 67, 100
1, 163920, Note_on_c, 1, 67, 0
1, 163920, Note_on_c, 1, 70, 100
1, 164152, Note_on_c, 1, 70, 0
1, 164152, Note_on_c, 0, 82, 0
1, 164160, Note_on_c, 0, 74, 100
1, 164160, Note_on_c, 1, 65, 100
1, 164360, Note_on_c, 1, 65, 0
1, 164400, Note_on_c, 0, 74, 0
1, 164400, Note_on_c, 0, 81, 100
1, 164640, Note_on_c, 0, 81, 0
1, 164640, Note_on_c, 0, 82, 100
1, 164640, Note_on_c, 1, 74, 100
1, 164840, Note_on_c, 1, 74, 0
1, 164880, Note_on_c, 0, 82, 0
1, 164880, Note_on_c, 0, 81, 100
1, 165120, Note_on_c, 0, 81, 0
1, 165120, Note_on_c, 0, 79, 100
1, 165120, Note_on_c, 1, 67, 100
1, 165320, Note_on_c, 1, 67, 0
1, 165360, Note_on_c, 0, 79, 0
1, 165360, Note_on_c, 0, 77, 100
1, 165592, Note_on_c, 0, 77, 0
1, 165600, Note_on_c, 0, 76, 100
1, 165600, Note_on_c, 1, 69, 100
1, 166320, Note_on_c, 0, 76, 0
1, 166320, Note_on_c, 0, 74, 100
1, 166552, Note_on_c, 1, 69, 0
1, 166560, Note_on_c, 0, 74, 0
1, 166560, Note_on_c, 0, 73, 100
1, 166560, Note_on_c, 1, 57, 100
1, 166624, Note_on_c, 0, 73, 0
1, 166624, Note_on_c, 0, 74, 100
1, 166680, Note_on_c, 0, 74, 0
1, 166680, Note_on_c, 0, 73, 100
1, 166760, Note_on_c, 1, 57, 0
1, 167040, Note_on_c, 0, 73, 0
1, 167040, Note_on_c, 0, 74, 100
1, 167040, Note_on_c, 0, 69, 100
1, 167040, Note_on_c, 0, 66, 100
1, 167040, Note_on_c, 1, 62, 100
1, 167280, Note_on_c, 1, 62, 0
1, 167280, Note_on_c, 1, 61, 100
1, 167520, Note_on_c, 1, 61, 0
1, 167520, Note_on_c, 1, 62, 100
1, 167760, Note_on_c, 1, 62, 0
1, 167760, Note_on_c, 1, 63, 100
1, 168000, Note_on_c, 1, 63, 0
1, 168000, Note_on_c, 1, 62, 100
1, 168240, Note_on_c, 1, 62, 0
1, 168240, Note_on_c, 1, 60, 100
1, 168472, Note_on_c, 1, 60, 0
1, 168472, Note_on_c, 0, 66, 0
1, 168472, Note_on_c, 0, 69, 0
1, 168472, Note_on_c, 0, 74, 0
1, 168480, Note_on_c, 0, 74, 100
1, 168480, Note_on_c, 1, 58, 100
1, 168720, Note_on_c, 1, 58, 0
1, 168720, Note_on_c, 1, 62, 100
1, 168960, Note_on_c, 1, 62, 0
1, 168960, Note_on_c, 1, 60, 100
1, 169200, Note_on_c, 1, 60, 0
1, 169200, Note_on_c, 1, 62, 100
1, 169440, Note_on_c, 1, 62, 0
1, 169440, Note_on_c, 0, 74, 0
1, 169440, Note_on_c, 0, 79, 100
1, 169440, Note_on_c, 1, 59, 100
1, 169680, Note_on_c, 1, 59, 0
1, 169680, Note_on_c, 1, 62, 100
1, 169912, Note_on_c, 1, 62, 0
1, 169912, Note_on_c, 0, 79, 0
1, 169920, Note_on_c, 0, 71, 100
1, 169920, Note_on_c, 1, 55, 100
1, 170160, Note_on_c, 1, 55, 0
1, 170160, Note_on_c, 1, 67, 100
1, 170400, Note_on_c, 1, 67, 0
1, 170400, Note_on_c, 1, 65, 100
1, 170640, Note_on_c, 1, 65, 0
1, 170640, Note_on_c, 1, 67, 100
1, 170880, Note_on_c, 1, 67, 0
1, 170880, Note_on_c, 0, 71, 0
1, 170880, Note_on_c, 0, 79, 100
1, 170880, Note_on_c, 1, 62, 100
1, 171120, Note_on_c, 1, 62, 0
1, 171120, Note_on_c, 1, 67, 100
1, 171352, Note_on_c, 1, 67, 0
1, 171352, Note_on_c, 0, 79, 0
1, 171360, Note_on_c, 0, 67, 100
1, 171360, Note_on_c, 1, 59, 100
1, 171600, Note_on_c, 1, 59, 0
1, 171600, Note_on_c, 1, 62, 100
1, 171840, Note_on_c, 1, 62, 0
1, 171840, Note_on_c, 1, 60, 100
1, 172080, Note_on_c, 1, 60, 0
1, 172080, Note_on_c, 1, 62, 100
1, 172320, Note_on_c, 1, 62, 0
1, 172320, Note_on_c, 0, 67, 0
1, 172320, Note_on_c, 0, 79, 100
1, 172320, Note_on_c, 1, 55, 100
1, 172560, Note_on_c, 1, 55, 0
1, 172560, Note_on_c, 1, 62, 100
1, 172792, Note_on_c, 1, 62, 0
1, 172792, Note_on_c, 0, 79, 0
1, 172800, Note_on_c, 0, 75, 100
1, 172800, Note_on_c, 1, 60, 100
1, 173040, Note_on_c, 1, 60, 0
1, 173040, Note_on_c, 1, 59, 100
1, 173280, Note_on_c, 1, 59, 0
1, 173280, Note_on_c, 1, 60, 100
1, 173520, Note_on_c, 1, 60, 0
1, 173520, Note_on_c, 1, 62, 100
1, 173760, Note_on_c, 1, 62, 0
1, 173760, Note_on_c, 0, 75, 0
1, 173760, Note_on_c, 0, 72, 100
1, 173760, Note_on_c, 1, 60, 100
1, 174000, Note_on_c, 1, 60, 0
1, 174000, Note_on_c, 1, 58, 100
1, 174232, Note_on_c, 1, 58, 0
1, 174232, Note_on_c, 0, 72, 0
1, 174240, Note_on_c, 0, 72, 100
1, 174240, Note_on_c, 1, 57, 100
1, 174480, Note_on_c, 1, 57, 0
1, 174480, Note_on_c, 1, 60, 100
1, 174720, Note_on_c, 1, 60, 0
1, 174720, Note_on_c, 1, 58, 100
1, 174960, Note_on_c, 1, 58, 0
1, 174960, Note_on_c, 1, 60, 100
1, 175200, Note_on_c, 1, 60, 0
1, 175200, Note_on_c, 0, 72, 0
1, 175200, Note_on_c, 0, 77, 100
1, 175200, Note_on_c, 1, 57, 100
1, 175264, Note_on_c, 0, 77, 0
1, 175264, Note_on_c, 0, 76, 100
1, 175320, Note_on_c, 0, 76, 0
1, 175320, Note_on_c, 0, 77, 100
1, 175440, Note_on_c, 1, 57, 0
1, 175440, Note_on_c, 1, 60, 100
1, 175672, Note_on_c, 1, 60, 0
1, 175680, Note_on_c, 0, 77, 0
1, 175680, Note_on_c, 0, 69, 100
1, 175680, Note_on_c, 1, 53, 100
1, 175920, Note_on_c, 1, 53, 0
1, 175920, Note_on_c, 1, 65, 100
1, 176160, Note_on_c, 1, 65, 0
1, 176160, Note_on_c, 1, 63, 100
1, 176400, Note_on_c, 1, 63, 0
1, 176400, Note_on_c, 1, 65, 100
1, 176640, Note_on_c, 1, 65, 0
1, 176640, Note_on_c, 0, 69, 0
1, 176640, Note_on_c, 0, 77, 100
1, 176640, Note_on_c, 1, 60, 100
1, 176880, Note_on_c, 1, 60, 0
1, 176880, Note_on_c, 1, 65, 100
1, 177112, Note_on_c, 1, 65, 0
1, 177112, Note_on_c, 0, 77, 0
1, 177120, Note_on_c, 0, 65, 100
1, 177120, Note_on_c, 1, 57, 100
1, 177360, Note_on_c, 1, 57, 0
1, 177360, Note_on_c, 1, 60, 100
1, 177600, Note_on_c, 1, 60, 0
1, 177600, Note_on_c, 1, 58, 100
1, 177840, Note_on_c, 1, 58, 0
1, 177840, Note_on_c, 1, 60, 100
1, 178080, Note_on_c, 1, 60, 0
1, 178080, Note_on_c, 0, 65, 0
1, 178080, Note_on_c, 0, 77, 100
1, 178080, Note_on_c, 1, 53, 100
1, 178320, Note_on_c, 1, 53, 0
1, 178320, Note_on_c, 1, 60, 100
1, 178552, Note_on_c, 1, 60, 0
1, 178552, Note_on_c, 0, 77, 0
1, 178560, Note_on_c, 0, 74, 100
1, 178560, Note_on_c, 1, 58, 100
1, 178760, Note_on_c, 1, 58, 0
1, 179040, Note_on_c, 1, 53, 100
1, 179240, Note_on_c, 1, 53, 0
1, 179520, Note_on_c, 0, 74, 0
1, 179520, Note_on_c, 0, 74, 100
1, 179520, Note_on_c, 1, 50, 100
1, 179720, Note_on_c, 1, 50, 0
1, 179760, Note_on_c, 0, 74, 0
1, 179760, Note_on_c, 0, 70, 100
1, 179992, Note_on_c, 0, 70, 0
1, 180000, Note_on_c, 0, 74, 100
1, 180000, Note_on_c, 1, 58, 100
1, 180200, Note_on_c, 1, 58, 0
1, 180240, Note_on_c, 0, 74, 0
1, 180240, Note_on_c, 0, 77, 100
1, 180480, Note_on_c, 0, 77, 0
1, 180480, Note_on_c, 0, 75, 100
1, 180480, Note_on_c, 1, 65, 100
1, 180680, Note_on_c, 1, 65, 0
1, 180720, Note_on_c, 0, 75, 0
1, 180720, Note_on_c, 0, 74, 100
1, 180960, Note_on_c, 0, 74, 0
1, 180960, Note_on_c, 0, 72, 100
1, 180960, Note_on_c, 1, 67, 100
1, 181160, Note_on_c, 1, 67, 0
1, 181200, Note_on_c, 0, 72, 0
1, 181200, Note_on_c, 0, 70, 100
1, 181432, Note_on_c, 0, 70, 0
1, 181440, Note_on_c, 0, 72, 100
1, 181440, Note_on_c, 1, 57, 100
1, 181640, Note_on_c, 1, 57, 0
1, 181680, Note_on_c, 0, 72, 0
1, 181680, Note_on_c, 0, 75, 100
1, 181920, Note_on_c, 0, 75, 0
1, 181920, Note_on_c, 0, 74, 100
1, 181920, Note_on_c, 1, 64, 100
1, 182120, Note_on_c, 1, 64, 0
1, 182160, Note_on_c, 0, 74, 0
1, 182160, Note_on_c, 0, 72, 100
1, 182400, Note_on_c, 0, 72, 0
1, 182400, Note_on_c, 0, 70, 100
1, 182400, Note_on_c, 1, 65, 100
1, 182600, Note_on_c, 1, 65, 0
1, 182640, Note_on_c, 0, 70, 0
1, 182640, Note_on_c, 0, 69, 100
1, 182880, Note_on_c, 0, 69, 0
1, 182880, Note_on_c, 0, 70, 100
1, 182880, Note_on_c, 1, 55, 100
1, 182944, Note_on_c, 0, 70, 0
1, 182944, Note_on_c, 0, 69, 100
1, 183000, Note_on_c, 0, 69, 0
1, 183000, Note_on_c, 0, 70, 100
1, 183080, Note_on_c, 1, 55, 0
1, 183120, Note_on_c, 0, 70, 0
1, 183120, Note_on_c, 0, 74, 100
1, 183360, Note_on_c, 0, 74, 0
1, 183360, Note_on_c, 0, 72, 100
1, 183360, Note_on_c, 1, 62, 100
1, 183560, Note_on_c, 1, 62, 0
1, 183600, Note_on_c, 0, 72, 0
1, 183600, Note_on_c, 0, 70, 100
1, 183840, Note_on_c, 0, 70, 0
1, 183840, Note_on_c, 0, 69, 100
1, 183840, Note_on_c, 1, 64, 100
1, 184040, Note_on_c, 1, 64, 0
1, 184080, Note_on_c, 0, 69, 0
1, 184080, Note_on_c, 0, 67, 100
1, 184312, Note_on_c, 0, 67, 0
1, 184320, Note_on_c, 0, 69, 100
1, 184320, Note_on_c, 1, 53, 100
1, 184543, Control_c, 0, 0, 8
1, 184543, Control_c, 0, 0, 8
1, 184543, Control_c, 1, 0, 8
1, 184544, Program_c, 0, 6
1, 184544, Control_c, 1, 0, 8
1, 184544, Program_c, 1, 6
1, 184560, Note_on_c, 1, 53, 0
1, 184560, Note_on_c, 1, 52, 100
1, 184800, Note_on_c, 1, 52, 0
1, 184800, Note_on_c, 1, 53, 100
1, 185040, Note_on_c, 1, 53, 0
1, 185040, Note_on_c, 1, 55, 100
1, 185272, Note_on_c, 0, 69, 0
1, 185280, Note_on_c, 1, 55, 0
1, 185280, Note_on_c, 0, 69, 100
1, 185280, Note_on_c, 1, 57, 100
1, 185520, Note_on_c, 1, 57, 0
1, 185520, Note_on_c, 0, 69, 0
1, 185520, Note_on_c, 0, 65, 100
1, 185520, Note_on_c, 1, 53, 100
1, 185752, Note_on_c, 1, 53, 0
1, 185752, Note_on_c, 0, 65, 0
1, 185760, Note_on_c, 0, 74, 100
1, 185760, Note_on_c, 1, 58, 100
1, 185880, Note_on_c, 0, 74, 0
1, 185880, Note_on_c, 0, 72, 100
1, 186000, Note_on_c, 0, 72, 0
1, 186000, Note_on_c, 0, 74, 100
1, 186240, Note_on_c, 1, 58, 0
1, 186240, Note_on_c, 1, 65, 100
1, 186712, Note_on_c, 0, 74, 0
1, 186720, Note_on_c, 1, 65, 0
1, 186720, Note_on_c, 0, 72, 100
1, 186720, Note_on_c, 1, 60, 100
1, 186784, Note_on_c, 0, 72, 0
1, 186784, Note_on_c, 0, 74, 100
1, 186840, Note_on_c, 0, 74, 0
1, 186840, Note_on_c, 0, 72, 100
1, 186960, Note_on_c, 1, 60, 0
1, 186960, Note_on_c, 1, 65, 100
1, 187200, Note_on_c, 1, 65, 0
1, 187200, Note_on_c, 0, 72, 0
1, 187200, Note_on_c, 0, 70, 100
1, 187200, Note_on_c, 1, 62, 100
1, 187440, Note_on_c, 0, 70, 0
1, 187440, Note_on_c, 0, 69, 100
1, 187680, Note_on_c, 0, 69, 0
1, 187680, Note_on_c, 1, 62, 0
1, 187680, Note_on_c, 0, 70, 100
1, 187680, Note_on_c, 1, 65, 100
1, 187920, Note_on_c, 0, 70, 0
1, 187920, Note_on_c, 0, 72, 100
1, 187984, Note_on_c, 0, 72, 0
1, 187984, Note_on_c, 0, 70, 100
1, 188040, Note_on_c, 0, 70, 0
1, 188040, Note_on_c, 0, 72, 100
1, 188160, Note_on_c, 0, 72, 0
1, 188160, Note_on_c, 1, 65, 0
1, 188160, Note_on_c, 0, 70, 100
1, 188160, Note_on_c, 1, 60, 100
1, 188400, Note_on_c, 1, 60, 0
1, 188400, Note_on_c, 0, 70, 0
1, 188400, Note_on_c, 0, 72, 100
1, 188400, Note_on_c, 1, 65, 100
1, 188632, Note_on_c, 0, 72, 0
1, 188640, Note_on_c, 1, 65, 0
1, 188640, Note_on_c, 0, 72, 100
1, 188640, Note_on_c, 1, 58, 100
1, 189120, Note_on_c, 1, 58, 0
1, 189120, Note_on_c, 0, 72, 0
1, 189120, Note_on_c, 0, 74, 100
1, 189120, Note_on_c, 1, 65, 100
1, 189592, Note_on_c, 0, 74, 0
1, 189600, Note_on_c, 1, 65, 0
1, 189600, Note_on_c, 0, 72, 100
1, 189600, Note_on_c, 1, 57, 100
1, 189720, Note_on_c, 0, 72, 0
1, 189720, Note_on_c, 0, 74, 100
1, 189840, Note_on_c, 0, 74, 0
1, 189840, Note_on_c, 1, 57, 0
1, 189840, Note_on_c, 0, 75, 100
1, 189840, Note_on_c, 1, 65, 100
1, 190072, Note_on_c, 1, 65, 0
1, 190072, Note_on_c, 0, 75, 0
1, 190080, Note_on_c, 0, 75, 100
1, 190080, Note_on_c, 1, 58, 100
1, 190200, Note_on_c, 0, 75, 0
1, 190200, Note_on_c, 0, 74, 100
1, 190280, Note_on_c, 1, 58, 0
1, 190320, Note_on_c, 0, 74, 0
1, 190320, Note_on_c, 0, 75, 100
1, 190440, Note_on_c, 0, 75, 0
1, 190440, Note_on_c, 0, 74, 100
1, 190560, Note_on_c, 0, 74, 0
1, 190560, Note_on_c, 0, 75, 100
1, 190560, Note_on_c, 1, 65, 100
1, 190680, Note_on_c, 0, 75, 0
1, 190680, Note_on_c, 0, 74, 100
1, 190760, Note_on_c, 1, 65, 0
1, 190800, Note_on_c, 0, 74, 0
1, 190800, Note_on_c, 0, 72, 100
1, 190920, Note_on_c, 0, 72, 0
1, 190920, Note_on_c, 0, 74, 100
1, 191040, Note_on_c, 0, 74, 0
1, 191040, Note_on_c, 0, 72, 100
1, 191040, Note_on_c, 0, 69, 100
1, 191040, Note_on_c, 1, 53, 100
1, 191240, Note_on_c, 1, 53, 0
1, 191512, Note_on_c, 0, 69, 0
1, 191512, Note_on_c, 0, 72, 0
1, 191520, Note_on_c, 0, 74, 100
1, 191520, Note_on_c, 1, 58, 100
1, 191760, Note_on_c, 1, 58, 0
1, 191760, Note_on_c, 0, 74, 0
1, 191760, Note_on_c, 0, 75, 100
1, 191760, Note_on_c, 1, 60, 100
1, 192000, Note_on_c, 1, 60, 0
1, 192000, Note_on_c, 0, 75, 0
1, 192000, Note_on_c, 0, 77, 100
1, 192000, Note_on_c, 1, 62, 100
1, 192240, Note_on_c, 1, 62, 0
1, 192240, Note_on_c, 1, 58, 100
1, 192480, Note_on_c, 1, 58, 0
1, 192480, Note_on_c, 0, 77, 0
1, 192480, Note_on_c, 0, 72, 100
1, 192480, Note_on_c, 1, 57, 100
1, 192720, Note_on_c, 1, 57, 0
1, 192720, Note_on_c, 1, 60, 100
1, 192952, Note_on_c, 1, 60, 0
1, 192952, Note_on_c, 0, 72, 0
1, 192960, Note_on_c, 0, 74, 100
1, 192960, Note_on_c, 1, 58, 100
1, 193200, Note_on_c, 1, 58, 0
1, 193200, Note_on_c, 0, 74, 0
1, 193200, Note_on_c, 0, 75, 100
1, 193200, Note_on_c, 1, 60, 100
1, 193440, Note_on_c, 1, 60, 0
1, 193440, Note_on_c, 0, 75, 0
1, 193440, Note_on_c, 0, 77, 100
1, 193440, Note_on_c, 1, 62, 100
1, 193680, Note_on_c, 1, 62, 0
1, 193680, Note_on_c, 0, 77, 0
1, 193680, Note_on_c, 0, 75, 100
1, 193680, Note_on_c, 1, 60, 100
1, 193920, Note_on_c, 1, 60, 0
1, 193920, Note_on_c, 0, 75, 0
1, 193920, Note_on_c, 0, 74, 100
1, 193920, Note_on_c, 1, 58, 100
1, 194160, Note_on_c, 1, 58, 0
1, 194160, Note_on_c, 0, 74, 0
1, 194160, Note_on_c, 0, 72, 100
1, 194160, Note_on_c, 1, 57, 100
1, 194400, Note_on_c, 1, 57, 0
1, 194400, Note_on_c, 0, 72, 0
1, 194400, Note_on_c, 0, 70, 100
1, 194400, Note_on_c, 1, 55, 100
1, 194640, Note_on_c, 1, 55, 0
1, 194640, Note_on_c, 1, 58, 100
1, 194872, Note_on_c, 0, 70, 0
1, 194880, Note_on_c, 1, 58, 0
1, 194880, Note_on_c, 0, 72, 100
1, 194880, Note_on_c, 1, 57, 100
1, 195120, Note_on_c, 1, 57, 0
1, 195120, Note_on_c, 0, 72, 0
1, 195120, Note_on_c, 0, 74, 100
1, 195120, Note_on_c, 1, 60, 100
1, 195240, Note_on_c, 0, 74, 0
1, 195240, Note_on_c, 0, 75, 100
1, 195360, Note_on_c, 0, 75, 0
1, 195360, Note_on_c, 1, 60, 0
1, 195360, Note_on_c, 0, 74, 100
1, 195360, Note_on_c, 1, 58, 100
1, 195600, Note_on_c, 1, 58, 0
1, 195600, Note_on_c, 1, 46, 100
1, 195832, Note_on_c, 0, 74, 0
1, 195840, Note_on_c, 1, 46, 0
1, 195840, Note_on_c, 0, 72, 100
1, 195840, Note_on_c, 1, 53, 100
1, 195960, Note_on_c, 0, 72, 0
1, 195960, Note_on_c, 0, 74, 100
1, 196080, Note_on_c, 0, 74, 0
1, 196080, Note_on_c, 1, 53, 0
1, 196080, Note_on_c, 0, 72, 100
1, 196080, Note_on_c, 1, 52, 100
1, 196320, Note_on_c, 1, 52, 0
1, 196320, Note_on_c, 1, 53, 100
1, 196560, Note_on_c, 1, 53, 0
1, 196560, Note_on_c, 1, 55, 100
1, 196800, Note_on_c, 1, 55, 0
1, 196800, Note_on_c, 1, 57, 100
1, 197040, Note_on_c, 1, 57, 0
1, 197040, Note_on_c, 1, 53, 100
1, 197272, Note_on_c, 1, 53, 0
1, 197272, Note_on_c, 0, 72, 0
1, 197280, Note_on_c, 0, 74, 100
1, 197280, Note_on_c, 1, 58, 100
1, 197400, Note_on_c, 0, 74, 0
1, 197400, Note_on_c, 0, 72, 100
1, 197520, Note_on_c, 0, 72, 0
1, 197520, Note_on_c, 0, 74, 100
1, 197760, Note_on_c, 1, 58, 0
1, 197760, Note_on_c, 1, 65, 100
1, 198232, Note_on_c, 0, 74, 0
1, 198240, Note_on_c, 1, 65, 0
1, 198240, Note_on_c, 0, 72, 100
1, 198240, Note_on_c, 1, 60, 100
1, 198304, Note_on_c, 0, 72, 0
1, 198304, Note_on_c, 0, 74, 100
1, 198360, Note_on_c, 0, 74, 0
1, 198360, Note_on_c, 0, 72, 100
1, 198480, Note_on_c, 1, 60, 0
1, 198480, Note_on_c, 1, 65, 100
1, 198720, Note_on_c, 1, 65, 0
1, 198720, Note_on_c, 0, 72, 0
1, 198720, Note_on_c, 0, 70, 100
1, 198720, Note_on_c, 1, 62, 100
1, 198960, Note_on_c, 0, 70, 0
1, 198960, Note_on_c, 0, 69, 100
1, 199200, Note_on_c, 0, 69, 0
1, 199200, Note_on_c, 1, 62, 0
1, 199200, Note_on_c, 0, 70, 100
1, 199200, Note_on_c, 1, 65, 100
1, 199440, Note_on_c, 0, 70, 0
1, 199440, Note_on_c, 0, 72, 100
1, 199504, Note_on_c, 0, 72, 0
1, 199504, Note_on_c, 0, 70, 100
1, 199560, Note_on_c, 0, 70, 0
1, 199560, Note_on_c, 0, 72, 100
1, 199680, Note_on_c, 0, 72, 0
1, 199680, Note_on_c, 1, 65, 0
1, 199680, Note_on_c, 0, 70, 100
1, 199680, Note_on_c, 1, 60, 100
1, 199920, Note_on_c, 1, 60, 0
1, 199920, Note_on_c, 0, 70, 0
1, 199920, Note_on_c, 0, 72, 100
1, 199920, Note_on_c, 1, 65, 100
1, 200152, Note_on_c, 0, 72, 0
1, 200160, Note_on_c, 1, 65, 0
1, 200160, Note_on_c, 0, 72, 100
1, 200160, Note_on_c, 1, 58, 100
1, 200640, Note_on_c, 1, 58, 0
1, 200640, Note_on_c, 0, 72, 0
1, 200640, Note_on_c, 0, 74, 100
1, 200640, Note_on_c, 1, 65, 100
1, 201112, Note_on_c, 0, 74, 0
1, 201120, Note_on_c, 1, 65, 0
1, 201120, Note_on_c, 0, 72, 100
1, 201120, Note_on_c, 1, 57, 100
1, 201240, Note_on_c, 0, 72, 0
1, 201240, Note_on_c, 0, 74, 100
1, 201360, Note_on_c, 0, 74, 0
1, 201360, Note_on_c, 1, 57, 0
1, 201360, Note_on_c, 0, 75, 100
1, 201360, Note_on_c, 1, 65, 100
1, 201592, Note_on_c, 1, 65, 0
1, 201592, Note_on_c, 0, 75, 0
1, 201600, Note_on_c, 0, 75, 100
1, 201600, Note_on_c, 1, 58, 100
1, 201720, Note_on_c, 0, 75, 0
1, 201720, Note_on_c, 0, 74, 100
1, 201800, Note_on_c, 1, 58, 0
1, 201840, Note_on_c, 0, 74, 0
1, 201840, Note_on_c, 0, 75, 100
1, 201960, Note_on_c, 0, 75, 0
1, 201960, Note_on_c, 0, 74, 100
1, 202080, Note_on_c, 0, 74, 0
1, 202080, Note_on_c, 0, 75, 100
1, 202080, Note_on_c, 1, 65, 100
1, 202200, Note_on_c, 0, 75, 0
1, 202200, Note_on_c, 0, 74, 100
1, 202280, Note_on_c, 1, 65, 0
1, 202320, Note_on_c, 0, 74, 0
1, 202320, Note_on_c, 0, 72, 100
1, 202440, Note_on_c, 0, 72, 0
1, 202440, Note_on_c, 0, 74, 100
1, 202560, Note_on_c, 0, 74, 0
1, 202560, Note_on_c, 0, 72, 100
1, 202560, Note_on_c, 0, 69, 100
1, 202560, Note_on_c, 1, 53, 100
1, 202760, Note_on_c, 1, 53, 0
1, 203032, Note_on_c, 0, 69, 0
1, 203032, Note_on_c, 0, 72, 0
1, 203040, Note_on_c, 0, 74, 100
1, 203040, Note_on_c, 1, 58, 100
1, 203280, Note_on_c, 1, 58, 0
1, 203280, Note_on_c, 0, 74, 0
1, 203280, Note_on_c, 0, 75, 100
1, 203280, Note_on_c, 1, 60, 100
1, 203520, Note_on_c, 1, 60, 0
1, 203520, Note_on_c, 0, 75, 0
1, 203520, Note_on_c, 0, 77, 100
1, 203520, Note_on_c, 1, 62, 100
1, 203760, Note_on_c, 1, 62, 0
1, 203760, Note_on_c, 1, 58, 100
1, 204000, Note_on_c, 1, 58, 0
1, 204000, Note_on_c, 0, 77, 0
1, 204000, Note_on_c, 0, 72, 100
1, 204000, Note_on_c, 1, 57, 100
1, 204240, Note_on_c, 1, 57, 0
1, 204240, Note_on_c, 1, 60, 100
1, 204472, Note_on_c, 1, 60, 0
1, 204472, Note_on_c, 0, 72, 0
1, 204480, Note_on_c, 0, 74, 100
1, 204480, Note_on_c, 1, 58, 100
1, 204720, Note_on_c, 1, 58, 0
1, 204720, Note_on_c, 0, 74, 0
1, 204720, Note_on_c, 0, 75, 100
1, 204720, Note_on_c, 1, 60, 100
1, 204960, Note_on_c, 1, 60, 0
1, 204960, Note_on_c, 0, 75, 0
1, 204960, Note_on_c, 0, 77, 100
1, 204960, Note_on_c, 1, 62, 100
1, 205200, Note_on_c, 1, 62, 0
1, 205200, Note_on_c, 0, 77, 0
1, 205200, Note_on_c, 0, 75, 100
1, 205200, Note_on_c, 1, 60, 100
1, 205440, Note_on_c, 1, 60, 0
1, 205440, Note_on_c, 0, 75, 0
1, 205440, Note_on_c, 0, 74, 100
1, 205440, Note_on_c, 1, 58, 100
1, 205680, Note_on_c, 1, 58, 0
1, 205680, Note_on_c, 0, 74, 0
1, 205680, Note_on_c, 0, 72, 100
1, 205680, Note_on_c, 1, 57, 100
1, 205920, Note_on_c, 1, 57, 0
1, 205920, Note_on_c, 0, 72, 0
1, 205920, Note_on_c, 0, 70, 100
1, 205920, Note_on_c, 1, 55, 100
1, 206160, Note_on_c, 1, 55, 0
1, 206160, Note_on_c, 1, 58, 100
1, 206392, Note_on_c, 0, 70, 0
1, 206400, Note_on_c, 1, 58, 0
1, 206400, Note_on_c, 0, 72, 100
1, 206400, Note_on_c, 1, 57, 100
1, 206640, Note_on_c, 1, 57, 0
1, 206640, Note_on_c, 0, 72, 0
1, 206640, Note_on_c, 0, 74, 100
1, 206640, Note_on_c, 1, 60, 100
1, 206760, Note_on_c, 0, 74, 0
1, 206760, Note_on_c, 0, 75, 100
1, 206880, Note_on_c, 0, 75, 0
1, 206880, Note_on_c, 1, 60, 0
1, 206880, Note_on_c, 0, 74, 100
1, 206880, Note_on_c, 1, 58, 100
1, 207120, Note_on_c, 1, 58, 0
1, 207120, Note_on_c, 1, 46, 100
1, 207352, Note_on_c, 0, 74, 0
1, 207360, Note_on_c, 1, 46, 0
1, 207360, Note_on_c, 0, 72, 100
1, 207360, Poly_aftertouch_c, 0, 60, 0
1, 207360, Note_on_c, 1, 53, 100
1, 207360, Poly_aftertouch_c, 1, 60, 0
1, 207600, Note_on_c, 1, 53, 0
1, 207600, Note_on_c, 1, 52, 100
1, 207840, Note_on_c, 1, 52, 0
1, 207840, Note_on_c, 1, 53, 100
1, 208080, Note_on_c, 1, 53, 0
1, 208080, Note_on_c, 1, 55, 100
1, 208320, Note_on_c, 1, 55, 0
1, 208320, Note_on_c, 1, 53, 100
1, 208560, Note_on_c, 1, 53, 0
1, 208560, Note_on_c, 1, 51, 100
1, 208792, Note_on_c, 1, 51, 0
1, 208792, Note_on_c, 0, 72, 0
1, 208800, Note_on_c, 0, 77, 100
1, 208800, Note_on_c, 1, 50, 100
1, 209040, Note_on_c, 1, 50, 0
1, 209040, Note_on_c, 1, 58, 100
1, 209280, Note_on_c, 1, 58, 0
1, 209280, Note_on_c, 1, 57, 100
1, 209520, Note_on_c, 1, 57, 0
1, 209520, Note_on_c, 1, 58, 100
1, 209752, Note_on_c, 0, 77, 0
1, 209760, Note_on_c, 1, 58, 0
1, 209760, Note_on_c, 0, 70, 100
1, 209760, Note_on_c, 1, 50, 100
1, 209824, Note_on_c, 0, 70, 0
1, 209824, Note_on_c, 0, 69, 100
1, 209880, Note_on_c, 0, 69, 0
1, 209880, Note_on_c, 0, 70, 100
1, 210000, Note_on_c, 1, 50, 0
1, 210000, Note_on_c, 1, 58, 100
1, 210240, Note_on_c, 1, 58, 0
1, 210240, Note_on_c, 0, 70, 0
1, 210240, Note_on_c, 0, 72, 100
1, 210240, Note_on_c, 1, 51, 100
1, 210480, Note_on_c, 1, 51, 0
1, 210480, Note_on_c, 1, 58, 100
1, 210720, Note_on_c, 1, 58, 0
1, 210720, Note_on_c, 1, 57, 100
1, 210960, Note_on_c, 1, 57, 0
1, 210960, Note_on_c, 0, 72, 0
1, 210960, Note_on_c, 0, 70, 100
1, 210960, Note_on_c, 1, 58, 100
1, 211200, Note_on_c, 1, 58, 0
1, 211200, Note_on_c, 0, 70, 0
1, 211200, Note_on_c, 0, 72, 100
1, 211200, Note_on_c, 1, 51, 100
1, 211264, Note_on_c, 0, 72, 0
1, 211264, Note_on_c, 0, 70, 100
1, 211320, Note_on_c, 0, 70, 0
1, 211320, Note_on_c, 0, 72, 100
1, 211440, Note_on_c, 0, 72, 0
1, 211440, Note_on_c, 1, 51, 0
1, 211440, Note_on_c, 0, 74, 100
1, 211440, Note_on_c, 1, 58, 100
1, 211680, Note_on_c, 1, 58, 0
1, 211680, Note_on_c, 0, 74, 0
1, 211680, Note_on_c, 0, 72, 100
1, 211680, Note_on_c, 1, 53, 100
1, 211920, Note_on_c, 1, 53, 0
1, 211920, Note_on_c, 0, 72, 0
1, 211920, Note_on_c, 0, 70, 100
1, 211920, Note_on_c, 1, 58, 100
1, 212160, Note_on_c, 1, 58, 0
1, 212160, Note_on_c, 0, 70, 0
1, 212160, Note_on_c, 0, 72, 100
1, 212160, Note_on_c, 1, 57, 100
1, 212400, Note_on_c, 1, 57, 0
1, 212400, Note_on_c, 0, 72, 0
1, 212400, Note_on_c, 0, 74, 100
1, 212400, Note_on_c, 1, 58, 100
1, 212640, Note_on_c, 1, 58, 0
1, 212640, Note_on_c, 0, 74, 0
1, 212640, Note_on_c, 0, 72, 100
1, 212640, Note_on_c, 1, 53, 100
1, 212880, Note_on_c, 1, 53, 0
1, 212880, Note_on_c, 0, 72, 0
1, 212880, Note_on_c, 0, 74, 100
1, 212880, Note_on_c, 1, 58, 100
1, 213120, Note_on_c, 1, 58, 0
1, 213120, Note_on_c, 0, 74, 0
1, 213120, Note_on_c, 0, 75, 100
1, 213120, Note_on_c, 1, 55, 100
1, 213360, Note_on_c, 1, 55, 0
1, 213360, Note_on_c, 0, 75, 0
1, 213360, Note_on_c, 0, 74, 100
1, 213360, Note_on_c, 1, 58, 100
1, 213600, Note_on_c, 1, 58, 0
1, 213600, Note_on_c, 0, 74, 0
1, 213600, Note_on_c, 0, 75, 100
1, 213600, Note_on_c, 1, 57, 100
1, 213664, Note_on_c, 0, 75, 0
1, 213664, Note_on_c, 0, 74, 100
1, 213720, Note_on_c, 0, 74, 0
1, 213720, Note_on_c, 0, 75, 100
1, 213840, Note_on_c, 0, 75, 0
1, 213840, Note_on_c, 1, 57, 0
1, 213840, Note_on_c, 0, 77, 100
1, 213840, Note_on_c, 1, 58, 100
1, 214080, Note_on_c, 1, 58, 0
1, 214080, Note_on_c, 0, 77, 0
1, 214080, Note_on_c, 0, 74, 100
1, 214080, Note_on_c, 1, 55, 100
1, 214320, Note_on_c, 1, 55, 0
1, 214320, Note_on_c, 0, 74, 0
1, 214320, Note_on_c, 0, 75, 100
1, 214320, Note_on_c, 1, 58, 100
1, 214560, Note_on_c, 1, 58, 0
1, 214560, Note_on_c, 0, 75, 0
1, 214560, Note_on_c, 0, 77, 100
1, 214560, Note_on_c, 1, 50, 100
1, 214624, Note_on_c, 0, 77, 0
1, 214624, Note_on_c, 0, 76, 100
1, 214680, Note_on_c, 0, 76, 0
1, 214680, Note_on_c, 0, 77, 100
1, 214800, Note_on_c, 1, 50, 0
1, 214800, Note_on_c, 1, 58, 100
1, 215040, Note_on_c, 1, 58, 0
1, 215040, Note_on_c, 0, 77, 0
1, 215040, Note_on_c, 0, 79, 100
1, 215040, Note_on_c, 1, 57, 100
1, 215280, Note_on_c, 1, 57, 0
1, 215280, Note_on_c, 0, 79, 0
1, 215280, Note_on_c, 0, 77, 100
1, 215280, Note_on_c, 1, 58, 100
1, 215520, Note_on_c, 1, 58, 0
1, 215520, Note_on_c, 0, 77, 0
1, 215520, Note_on_c, 0, 75, 100
1, 215520, Note_on_c, 1, 50, 100
1, 215760, Note_on_c, 1, 50, 0
1, 215760, Note_on_c, 0, 75, 0
1, 215760, Note_on_c, 0, 74, 100
1, 215760, Note_on_c, 1, 58, 100
1, 216000, Note_on_c, 1, 58, 0
1, 216000, Note_on_c, 0, 74, 0
1, 216000, Note_on_c, 0, 72, 100
1, 216000, Note_on_c, 1, 51, 100
1, 216064, Note_on_c, 0, 72, 0
1, 216064, Note_on_c, 0, 74, 100
1, 216120, Note_on_c, 0, 74, 0
1, 216120, Note_on_c, 0, 72, 100
1, 216240, Note_on_c, 1, 51, 0
1, 216240, Note_on_c, 1, 58, 100
1, 216480, Note_on_c, 1, 58, 0
1, 216480, Note_on_c, 0, 72, 0
1, 216480, Note_on_c, 0, 70, 100
1, 216480, Note_on_c, 1, 57, 100
1, 216720, Note_on_c, 1, 57, 0
1, 216720, Note_on_c, 1, 58, 100
1, 216960, Note_on_c, 1, 58, 0
1, 216960, Note_on_c, 0, 70, 0
1, 216960, Note_on_c, 0, 72, 100
1, 216960, Note_on_c, 1, 51, 100
1, 217200, Note_on_c, 1, 51, 0
1, 217200, Note_on_c, 1, 58, 100
1, 217432, Note_on_c, 0, 72, 0
1, 217440, Note_on_c, 1, 58, 0
1, 217440, Note_on_c, 0, 72, 100
1, 217440, Note_on_c, 1, 53, 100
1, 217640, Note_on_c, 1, 53, 0
1, 217680, Note_on_c, 0, 72, 0
1, 217680, Note_on_c, 0, 74, 100
1, 217920, Note_on_c, 1, 58, 100
1, 218120, Note_on_c, 1, 58, 0
1, 218160, Note_on_c, 0, 74, 0
1, 218160, Note_on_c, 0, 75, 100
1, 218400, Note_on_c, 0, 75, 0
1, 218400, Note_on_c, 0, 72, 100
1, 218400, Note_on_c, 1, 57, 100
1, 218464, Note_on_c, 1, 57, 0
1, 218464, Note_on_c, 1, 58, 100
1, 218520, Note_on_c, 1, 58, 0
1, 218520, Note_on_c, 1, 57, 100
1, 218640, Note_on_c, 0, 72, 0
1, 218640, Note_on_c, 0, 70, 100
1, 218880, Note_on_c, 0, 70, 0
1, 218880, Note_on_c, 1, 57, 0
1, 218880, Note_on_c, 0, 70, 100
1, 218880, Note_on_c, 1, 58, 100
1, 219080, Note_on_c, 1, 58, 0
1, 219120, Note_on_c, 0, 70, 0
1, 219120, Note_on_c, 0, 69, 100
1, 219360, Note_on_c, 0, 69, 0
1, 219360, Note_on_c, 0, 70, 100
1, 219360, Note_on_c, 1, 46, 100
1, 219560, Note_on_c, 1, 46, 0
1, 219600, Note_on_c, 0, 70, 0
1, 219600, Note_on_c, 0, 72, 100
1, 219840, Note_on_c, 0, 72, 0
1, 219840, Note_on_c, 0, 74, 100
1, 219840, Note_on_c, 1, 48, 100
1, 220040, Note_on_c, 1, 48, 0
1, 220080, Note_on_c, 0, 74, 0
1, 220080, Note_on_c, 0, 75, 100
1, 220320, Note_on_c, 0, 75, 0
1, 220320, Note_on_c, 0, 77, 100
1, 220320, Note_on_c, 1, 50, 100
1, 220560, Note_on_c, 1, 50, 0
1, 220560, Note_on_c, 1, 58, 100
1, 220800, Note_on_c, 1, 58, 0
1, 220800, Note_on_c, 1, 57, 100
1, 221040, Note_on_c, 1, 57, 0
1, 221040, Note_on_c, 1, 58, 100
1, 221272, Note_on_c, 0, 77, 0
1, 221280, Note_on_c, 1, 58, 0
1, 221280, Note_on_c, 0, 70, 100
1, 221280, Note_on_c, 1, 50, 100
1, 221344, Note_on_c, 0, 70, 0
1, 221344, Note_on_c, 0, 69, 100
1, 221400, Note_on_c, 0, 69, 0
1, 221400, Note_on_c, 0, 70, 100
1, 221520, Note_on_c, 1, 50, 0
1, 221520, Note_on_c, 1, 58, 100
1, 221760, Note_on_c, 1, 58, 0
1, 221760, Note_on_c, 0, 70, 0
1, 221760, Note_on_c, 0, 72, 100
1, 221760, Note_on_c, 1, 51, 100
1, 222000, Note_on_c, 1, 51, 0
1, 222000, Note_on_c, 1, 58, 100
1, 222240, Note_on_c, 1, 58, 0
1, 222240, Note_on_c, 1, 57, 100
1, 222480, Note_on_c, 1, 57, 0
1, 222480, Note_on_c, 0, 72, 0
1, 222480, Note_on_c, 0, 70, 100
1, 222480, Note_on_c, 1, 58, 100
1, 222720, Note_on_c, 1, 58, 0
1, 222720, Note_on_c, 0, 70, 0
1, 222720, Note_on_c, 0, 72, 100
1, 222720, Note_on_c, 1, 51, 100
1, 222784, Note_on_c, 0, 72, 0
1, 222784, Note_on_c, 0, 70, 100
1, 222840, Note_on_c, 0, 70, 0
1, 222840, Note_on_c, 0, 72, 100
1, 222960, Note_on_c, 0, 72, 0
1, 222960, Note_on_c, 1, 51, 0
1, 222960, Note_on_c, 0, 74, 100
1, 222960, Note_on_c, 1, 58, 100
1, 223200, Note_on_c, 1, 58, 0
1, 223200, Note_on_c, 0, 74, 0
1, 223200, Note_on_c, 0, 72, 100
1, 223200, Note_on_c, 1, 53, 100
1, 223440, Note_on_c, 1, 53, 0
1, 223440, Note_on_c, 0, 72, 0
1, 223440, Note_on_c, 0, 70, 100
1, 223440, Note_on_c, 1, 58, 100
1, 223680, Note_on_c, 1, 58, 0
1, 223680, Note_on_c, 0, 70, 0
1, 223680, Note_on_c, 0, 72, 100
1, 223680, Note_on_c, 1, 57, 100
1, 223920, Note_on_c, 1, 57, 0
1, 223920, Note_on_c, 0, 72, 0
1, 223920, Note_on_c, 0, 74, 100
1, 223920, Note_on_c, 1, 58, 100
1, 224160, Note_on_c, 1, 58, 0
1, 224160, Note_on_c, 0, 74, 0
1, 224160, Note_on_c, 0, 72, 100
1, 224160, Note_on_c, 1, 53, 100
1, 224400, Note_on_c, 1, 53, 0
1, 224400, Note_on_c, 0, 72, 0
1, 224400, Note_on_c, 0, 74, 100
1, 224400, Note_on_c, 1, 58, 100
1, 224640, Note_on_c, 1, 58, 0
1, 224640, Note_on_c, 0, 74, 0
1, 224640, Note_on_c, 0, 75, 100
1, 224640, Note_on_c, 1, 55, 100
1, 224880, Note_on_c, 1, 55, 0
1, 224880, Note_on_c, 0, 75, 0
1, 224880, Note_on_c, 0, 74, 100
1, 224880, Note_on_c, 1, 58, 100
1, 225120, Note_on_c, 1, 58, 0
1, 225120, Note_on_c, 0, 74, 0
1, 225120, Note_on_c, 0, 75, 100
1, 225120, Note_on_c, 1, 57, 100
1, 225184, Note_on_c, 0, 75, 0
1, 225184, Note_on_c, 0, 74, 100
1, 225240, Note_on_c, 0, 74, 0
1, 225240, Note_on_c, 0, 75, 100
1, 225360, Note_on_c, 0, 75, 0
1, 225360, Note_on_c, 1, 57, 0
1, 225360, Note_on_c, 0, 77, 100
1, 225360, Note_on_c, 1, 58, 100
1, 225600, Note_on_c, 1, 58, 0
1, 225600, Note_on_c, 0, 77, 0
1, 225600, Note_on_c, 0, 74, 100
1, 225600, Note_on_c, 1, 55, 100
1, 225840, Note_on_c, 1, 55, 0
1, 225840, Note_on_c, 0, 74, 0
1, 225840, Note_on_c, 0, 75, 100
1, 225840, Note_on_c, 1, 58, 100
1, 226080, Note_on_c, 1, 58, 0
1, 226080, Note_on_c, 0, 75, 0
1, 226080, Note_on_c, 0, 77, 100
1, 226080, Note_on_c, 1, 50, 100
1, 226144, Note_on_c, 0, 77, 0
1, 226144, Note_on_c, 0, 76, 100
1, 226200, Note_on_c, 0, 76, 0
1, 226200, Note_on_c, 0, 77, 100
1, 226320, Note_on_c, 1, 50, 0
1, 226320, Note_on_c, 1, 58, 100
1, 226560, Note_on_c, 1, 58, 0
1, 226560, Note_on_c, 0, 77, 0
1, 226560, Note_on_c, 0, 79, 100
1, 226560, Note_on_c, 1, 57, 100
1, 226800, Note_on_c, 1, 57, 0
1, 226800, Note_on_c, 0, 79, 0
1, 226800, Note_on_c, 0, 77, 100
1, 226800, Note_on_c, 1, 58, 100
1, 227040, Note_on_c, 1, 58, 0
1, 227040, Note_on_c, 0, 77, 0
1, 227040, Note_on_c, 0, 75, 100
1, 227040, Note_on_c, 1, 50, 100
1, 227280, Note_on_c, 1, 50, 0
1, 227280, Note_on_c, 0, 75, 0
1, 227280, Note_on_c, 0, 74, 100
1, 227280, Note_on_c, 1, 58, 100
1, 227520, Note_on_c, 1, 58, 0
1, 227520, Note_on_c, 0, 74, 0
1, 227520, Note_on_c, 0, 72, 100
1, 227520, Note_on_c, 1, 51, 100
1, 227584, Note_on_c, 0, 72, 0
1, 227584, Note_on_c, 0, 74, 100
1, 227640, Note_on_c, 0, 74, 0
1, 227640, Note_on_c, 0, 72, 100
1, 227760, Note_on_c, 1, 51, 0
1, 227760, Note_on_c, 1, 58, 100
1, 228000, Note_on_c, 1, 58, 0
1, 228000, Note_on_c, 0, 72, 0
1, 228000, Note_on_c, 0, 70, 100
1, 228000, Note_on_c, 1, 57, 100
1, 228240, Note_on_c, 1, 57, 0
1, 228240, Note_on_c, 1, 58, 100
1, 228480, Note_on_c, 1, 58, 0
1, 228480, Note_on_c, 0, 70, 0
1, 228480, Note_on_c, 0, 72, 100
1, 228480, Note_on_c, 1, 51, 100
1, 228720, Note_on_c, 1, 51, 0
1, 228720, Note_on_c, 1, 58, 100
1, 228952, Note_on_c, 0, 72, 0
1, 228960, Tempo, 857143
1, 228960, Note_on_c, 1, 58, 0
1, 228960, Note_on_c, 0, 72, 100
1, 228960, Note_on_c, 1, 53, 100
1, 229032, Tempo, 869565
1, 229104, Tempo, 882353
1, 229160, Note_on_c, 1, 53, 0
1, 229176, Tempo, 895522
1, 229200, Note_on_c, 0, 72, 0
1, 229200, Note_on_c, 0, 74, 100
1, 229248, Tempo, 909091
1, 229320, Tempo, 923077
1, 229392, Tempo, 937500
1, 229440, Note_on_c, 1, 58, 100
1, 229464, Tempo, 952381
1, 229536, Tempo, 967742
1, 229608, Tempo, 983607
1, 229640, Note_on_c, 1, 58, 0
1, 229680, Tempo, 1000000
1, 229680, Note_on_c, 0, 74, 0
1, 229680, Note_on_c, 0, 75, 100
1, 229752, Tempo, 1016949
1, 229824, Tempo, 1034483
1, 229896, Tempo, 1052632
1, 229920, Note_on_c, 0, 75, 0
1, 229920, Note_on_c, 0, 72, 100
1, 229920, Note_on_c, 1, 57, 100
1, 229968, Tempo, 1071429
1, 229984, Note_on_c, 1, 57, 0
1, 229984, Note_on_c, 1, 58, 100
1, 230040, Tempo, 1090909
1, 230040, Note_on_c, 1, 58, 0
1, 230040, Note_on_c, 1, 57, 100
1, 230112, Tempo, 1111111
1, 230160, Note_on_c, 0, 72, 0
1, 230160, Note_on_c, 0, 70, 100
1, 230184, Tempo, 1132075
1, 230256, Tempo, 1153846
1, 230328, Tempo, 1176471
1, 230400, Tempo, 1200000
1, 230400, Note_on_c, 0, 70, 0
1, 230400, Note_on_c, 1, 57, 0
1, 230400, Control_c, 0, 64, 127
1, 230400, Note_on_c, 0, 70, 100
1, 230400, Note_on_c, 0, 65, 100
1, 230400, Note_on_c, 0, 62, 100
1, 230400, Note_on_c, 1, 58, 100
1, 230872, Note_on_c, 1, 58, 0
1, 230880, Note_on_c, 1, 53, 100
1, 231352, Note_on_c, 1, 53, 0
1, 231360, Note_on_c, 1, 46, 100
1, 231832, Note_on_c, 1, 46, 0
1, 233264, Control_c, 0, 64, 0
1, 233272, Note_on_c, 0, 70, 0
1, 233272, Note_on_c, 0, 65, 0
1, 233272, Note_on_c, 0, 62, 0
1, 233272, End_track
0, 0, End_of_file
