0, 0, Header, 1, 10, 240
1, 0, Start_track
1, 0, Time_signature, 4, 2, 24, 8
1, 0, Tempo, 2142857
1, 30, Tempo, 4000000
1, 120, Tempo, 5454545
1, 150, Tempo, 1333333
1, 210, Tempo, 3333333
1, 300, Tempo, 1500000
1, 480, Tempo, 2142857
1, 510, Tempo, 3750000
1, 630, Tempo, 3000000
1, 720, Tempo, 4615385
1, 780, Tempo, 1250000
1, 960, Tempo, 2142857
1, 990, Tempo, 4000000
1, 1080, Tempo, 6000000
1, 1110, Tempo, 1500000
1, 1170, Tempo, 6000000
1, 1260, Tempo, 1500000
1, 1680, Tempo, 4000000
1, 1920, Tempo, 1000000
1, 2160, Tempo, 4000000
1, 2280, Tempo, 6000000
1, 2400, Tempo, 1000000
1, 2880, Tempo, 666667
1, 4200, Tempo, 1200000
1, 4260, Tempo, 666667
1, 6120, Tempo, 1200000
1, 6180, Tempo, 666667
1, 6660, Tempo, 750000
1, 7140, Tempo, 722892
1, 7620, Tempo, 697674
1, 8100, Tempo, 674157
1, 8580, Tempo, 652174
1, 9120, Tempo, 857143
1, 9360, Tempo, 1200000
1, 9840, Tempo, 800000
1, 10080, Tempo, 722892
1, 10500, Tempo, 3000000
1, 10800, Tempo, 1333333
1, 10980, Tempo, 1052632
1, 16320, Tempo, 1090909
1, 16560, Tempo, 800000
1, 17520, Tempo, 1090909
1, 18960, Tempo, 1333333
1, 19200, Tempo, 1200000
1, 19440, Tempo, 1000000
1, 19560, Tempo, 923077
1, 19680, Tempo, 800000
1, 20160, Tempo, 600000
1, 25920, Tempo, 1200000
1, 26400, Tempo, 1500000
1, 26880, Tempo, 1714286
1, 27360, Tempo, 2000000
1, 28320, Tempo, 6000000
1, 28350, Tempo, 666667
1, 120960, Tempo, 1000000
1, 121440, Tempo, 937500
1, 121920, Tempo, 882353
1, 122400, Tempo, 833333
1, 123840, Tempo, 1090909
1, 127200, Tempo, 705882
1, 130260, Tempo, 800000
1, 134400, Tempo, 1000000
1, 134640, Tempo, 1034483
1, 134880, Tempo, 1090909
1, 135120, Tempo, 1153846
1, 135360, Tempo, 1200000
1, 135600, Tempo, 1250000
1, 136080, Tempo, 1333333
1, 136080, End_track
2, 0, Start_track
2, 0, Title_t, "Toccata and"
2, 0, Program_c, 0, 19
2, 0, Control_c, 0, 7, 127
2, 0, Note_on_c, 0, 81, 127
2, 14, Note_off_c, 0, 81, 64
2, 16, Note_on_c, 0, 79, 127
2, 28, Note_off_c, 0, 79, 64
2, 30, Note_on_c, 0, 81, 127
2, 118, Note_off_c, 0, 81, 64
2, 150, Note_on_c, 0, 79, 127
2, 162, Note_off_c, 0, 79, 64
2, 164, Note_on_c, 0, 77, 127
2, 176, Note_off_c, 0, 77, 64
2, 178, Note_on_c, 0, 76, 127
2, 192, Note_off_c, 0, 76, 64
2, 194, Note_on_c, 0, 74, 127
2, 208, Note_off_c, 0, 74, 64
2, 210, Note_on_c, 0, 73, 127
2, 238, Note_off_c, 0, 73, 64
2, 240, Note_on_c, 0, 74, 127
2, 298, Note_off_c, 0, 74, 64
2, 480, Note_on_c, 0, 69, 127
2, 494, Note_off_c, 0, 69, 64
2, 496, Note_on_c, 0, 67, 127
2, 508, Note_off_c, 0, 67, 64
2, 510, Note_on_c, 0, 69, 127
2, 598, Note_off_c, 0, 69, 64
2, 630, Note_on_c, 0, 64, 127
2, 658, Note_off_c, 0, 64, 64
2, 660, Note_on_c, 0, 65, 127
2, 688, Note_off_c, 0, 65, 64
2, 690, Note_on_c, 0, 61, 127
2, 718, Note_off_c, 0, 61, 64
2, 720, Note_on_c, 0, 62, 127
2, 778, Note_off_c, 0, 62, 64
2, 960, Note_on_c, 0, 57, 127
2, 974, Note_off_c, 0, 57, 64
2, 976, Note_on_c, 0, 55, 127
2, 988, Note_off_c, 0, 55, 64
2, 990, Note_on_c, 0, 57, 127
2, 1078, Note_off_c, 0, 57, 64
2, 1110, Note_on_c, 0, 55, 127
2, 1122, Note_off_c, 0, 55, 64
2, 1124, Note_on_c, 0, 53, 127
2, 1136, Note_off_c, 0, 53, 64
2, 1138, Note_on_c, 0, 52, 127
2, 1152, Note_off_c, 0, 52, 64
2, 1154, Note_on_c, 0, 50, 127
2, 1168, Note_off_c, 0, 50, 64
2, 1170, Note_on_c, 0, 49, 127
2, 1198, Note_off_c, 0, 49, 64
2, 1200, Note_on_c, 0, 50, 127
2, 1258, Note_off_c, 0, 50, 64
2, 1740, Note_on_c, 0, 58, 127
2, 1760, Note_on_c, 0, 61, 127
2, 1780, Note_on_c, 0, 64, 127
2, 2158, Note_off_c, 0, 58, 64
2, 2158, Note_off_c, 0, 61, 64
2, 2158, Note_off_c, 0, 64, 64
2, 2158, Note_on_c, 0, 62, 127
2, 2160, Note_on_c, 0, 57, 127
2, 2396, Note_off_c, 0, 62, 64
2, 2398, Note_off_c, 0, 57, 64
2, 2820, Note_on_c, 0, 61, 127
2, 2878, Note_off_c, 0, 61, 64
2, 2880, Note_on_c, 0, 62, 127
2, 2918, Note_off_c, 0, 62, 64
2, 2920, Note_on_c, 0, 64, 127
2, 2958, Note_off_c, 0, 64, 64
2, 2960, Note_on_c, 0, 61, 127
2, 2998, Note_off_c, 0, 61, 64
2, 3000, Note_on_c, 0, 62, 127
2, 3038, Note_off_c, 0, 62, 64
2, 3040, Note_on_c, 0, 64, 127
2, 3078, Note_off_c, 0, 64, 64
2, 3080, Note_on_c, 0, 61, 127
2, 3118, Note_off_c, 0, 61, 64
2, 3120, Note_on_c, 0, 62, 127
2, 3158, Note_off_c, 0, 62, 64
2, 3160, Note_on_c, 0, 64, 127
2, 3198, Note_off_c, 0, 64, 64
2, 3200, Note_on_c, 0, 61, 127
2, 3238, Note_off_c, 0, 61, 64
2, 3240, Note_on_c, 0, 62, 127
2, 3298, Note_off_c, 0, 62, 64
2, 3300, Note_on_c, 0, 64, 127
2, 3358, Note_off_c, 0, 64, 64
2, 3360, Note_on_c, 0, 65, 127
2, 3398, Note_off_c, 0, 65, 64
2, 3400, Note_on_c, 0, 67, 127
2, 3438, Note_off_c, 0, 67, 64
2, 3440, Note_on_c, 0, 64, 127
2, 3478, Note_off_c, 0, 64, 64
2, 3480, Note_on_c, 0, 65, 127
2, 3518, Note_off_c, 0, 65, 64
2, 3520, Note_on_c, 0, 67, 127
2, 3558, Note_off_c, 0, 67, 64
2, 3560, Note_on_c, 0, 64, 127
2, 3598, Note_off_c, 0, 64, 64
2, 3600, Note_on_c, 0, 65, 127
2, 3638, Note_off_c, 0, 65, 64
2, 3640, Note_on_c, 0, 67, 127
2, 3678, Note_off_c, 0, 67, 64
2, 3680, Note_on_c, 0, 64, 127
2, 3718, Note_off_c, 0, 64, 64
2, 3720, Note_on_c, 0, 65, 127
2, 3778, Note_off_c, 0, 65, 64
2, 3780, Note_on_c, 0, 67, 127
2, 3838, Note_off_c, 0, 67, 64
2, 3840, Note_on_c, 0, 69, 127
2, 3878, Note_off_c, 0, 69, 64
2, 3880, Note_on_c, 0, 70, 127
2, 3918, Note_off_c, 0, 70, 64
2, 3920, Note_on_c, 0, 67, 127
2, 3958, Note_off_c, 0, 67, 64
2, 3960, Note_on_c, 0, 69, 127
2, 3998, Note_off_c, 0, 69, 64
2, 4000, Note_on_c, 0, 70, 127
2, 4038, Note_off_c, 0, 70, 64
2, 4040, Note_on_c, 0, 67, 127
2, 4078, Note_off_c, 0, 67, 64
2, 4080, Note_on_c, 0, 69, 127
2, 4118, Note_off_c, 0, 69, 64
2, 4120, Note_on_c, 0, 70, 127
2, 4158, Note_off_c, 0, 70, 64
2, 4160, Note_on_c, 0, 67, 127
2, 4198, Note_off_c, 0, 67, 64
2, 4200, Note_on_c, 0, 69, 127
2, 4258, Note_off_c, 0, 69, 64
2, 4740, Note_on_c, 0, 73, 127
2, 4798, Note_off_c, 0, 73, 64
2, 4800, Note_on_c, 0, 74, 127
2, 4838, Note_off_c, 0, 74, 64
2, 4840, Note_on_c, 0, 76, 127
2, 4878, Note_off_c, 0, 76, 64
2, 4880, Note_on_c, 0, 73, 127
2, 4918, Note_off_c, 0, 73, 64
2, 4920, Note_on_c, 0, 74, 127
2, 4958, Note_off_c, 0, 74, 64
2, 4960, Note_on_c, 0, 76, 127
2, 4998, Note_off_c, 0, 76, 64
2, 5000, Note_on_c, 0, 73, 127
2, 5038, Note_off_c, 0, 73, 64
2, 5040, Note_on_c, 0, 74, 127
2, 5078, Note_off_c, 0, 74, 64
2, 5080, Note_on_c, 0, 76, 127
2, 5118, Note_off_c, 0, 76, 64
2, 5120, Note_on_c, 0, 73, 127
2, 5158, Note_off_c, 0, 73, 64
2, 5160, Note_on_c, 0, 74, 127
2, 5218, Note_off_c, 0, 74, 64
2, 5220, Note_on_c, 0, 76, 127
2, 5278, Note_off_c, 0, 76, 64
2, 5280, Note_on_c, 0, 77, 127
2, 5318, Note_off_c, 0, 77, 64
2, 5320, Note_on_c, 0, 79, 127
2, 5358, Note_off_c, 0, 79, 64
2, 5360, Note_on_c, 0, 76, 127
2, 5398, Note_off_c, 0, 76, 64
2, 5400, Note_on_c, 0, 77, 127
2, 5438, Note_off_c, 0, 77, 64
2, 5440, Note_on_c, 0, 79, 127
2, 5478, Note_off_c, 0, 79, 64
2, 5480, Note_on_c, 0, 76, 127
2, 5518, Note_off_c, 0, 76, 64
2, 5520, Note_on_c, 0, 77, 127
2, 5558, Note_off_c, 0, 77, 64
2, 5560, Note_on_c, 0, 79, 127
2, 5598, Note_off_c, 0, 79, 64
2, 5600, Note_on_c, 0, 76, 127
2, 5638, Note_off_c, 0, 76, 64
2, 5640, Note_on_c, 0, 77, 127
2, 5698, Note_off_c, 0, 77, 64
2, 5700, Note_on_c, 0, 79, 127
2, 5758, Note_off_c, 0, 79, 64
2, 5760, Note_on_c, 0, 81, 127
2, 5798, Note_off_c, 0, 81, 64
2, 5800, Note_on_c, 0, 82, 127
2, 5838, Note_off_c, 0, 82, 64
2, 5840, Note_on_c, 0, 79, 127
2, 5878, Note_off_c, 0, 79, 64
2, 5880, Note_on_c, 0, 81, 127
2, 5918, Note_off_c, 0, 81, 64
2, 5920, Note_on_c, 0, 82, 127
2, 5958, Note_off_c, 0, 82, 64
2, 5960, Note_on_c, 0, 79, 127
2, 5998, Note_off_c, 0, 79, 64
2, 6000, Note_on_c, 0, 81, 127
2, 6038, Note_off_c, 0, 81, 64
2, 6040, Note_on_c, 0, 82, 127
2, 6078, Note_off_c, 0, 82, 64
2, 6080, Note_on_c, 0, 79, 127
2, 6118, Note_off_c, 0, 79, 64
2, 6120, Note_on_c, 0, 81, 127
2, 6178, Note_off_c, 0, 81, 64
2, 6660, Note_on_c, 0, 81, 127
2, 6718, Note_off_c, 0, 81, 64
2, 6720, Note_on_c, 0, 79, 127
2, 6758, Note_off_c, 0, 79, 64
2, 6760, Note_on_c, 0, 82, 127
2, 6798, Note_off_c, 0, 82, 64
2, 6800, Note_on_c, 0, 76, 127
2, 6838, Note_off_c, 0, 76, 64
2, 6840, Note_on_c, 0, 79, 127
2, 6878, Note_off_c, 0, 79, 64
2, 6880, Note_on_c, 0, 82, 127
2, 6918, Note_off_c, 0, 82, 64
2, 6920, Note_on_c, 0, 76, 127
2, 6958, Note_off_c, 0, 76, 64
2, 6960, Note_on_c, 0, 77, 127
2, 6998, Note_off_c, 0, 77, 64
2, 7000, Note_on_c, 0, 81, 127
2, 7038, Note_off_c, 0, 81, 64
2, 7040, Note_on_c, 0, 74, 127
2, 7078, Note_off_c, 0, 74, 64
2, 7080, Note_on_c, 0, 77, 127
2, 7118, Note_off_c, 0, 77, 64
2, 7120, Note_on_c, 0, 81, 127
2, 7158, Note_off_c, 0, 81, 64
2, 7160, Note_on_c, 0, 74, 127
2, 7198, Note_off_c, 0, 74, 64
2, 7200, Note_on_c, 0, 76, 127
2, 7238, Note_off_c, 0, 76, 64
2, 7240, Note_on_c, 0, 79, 127
2, 7278, Note_off_c, 0, 79, 64
2, 7280, Note_on_c, 0, 72, 127
2, 7318, Note_off_c, 0, 72, 64
2, 7320, Note_on_c, 0, 76, 127
2, 7358, Note_off_c, 0, 76, 64
2, 7360, Note_on_c, 0, 79, 127
2, 7398, Note_off_c, 0, 79, 64
2, 7400, Note_on_c, 0, 72, 127
2, 7438, Note_off_c, 0, 72, 64
2, 7440, Note_on_c, 0, 74, 127
2, 7478, Note_off_c, 0, 74, 64
2, 7480, Note_on_c, 0, 77, 127
2, 7518, Note_off_c, 0, 77, 64
2, 7520, Note_on_c, 0, 71, 127
2, 7558, Note_off_c, 0, 71, 64
2, 7560, Note_on_c, 0, 74, 127
2, 7598, Note_off_c, 0, 74, 64
2, 7600, Note_on_c, 0, 77, 127
2, 7638, Note_off_c, 0, 77, 64
2, 7640, Note_on_c, 0, 71, 127
2, 7678, Note_off_c, 0, 71, 64
2, 7680, Note_on_c, 0, 72, 127
2, 7718, Note_off_c, 0, 72, 64
2, 7720, Note_on_c, 0, 76, 127
2, 7758, Note_off_c, 0, 76, 64
2, 7760, Note_on_c, 0, 69, 127
2, 7798, Note_off_c, 0, 69, 64
2, 7800, Note_on_c, 0, 72, 127
2, 7838, Note_off_c, 0, 72, 64
2, 7840, Note_on_c, 0, 76, 127
2, 7878, Note_off_c, 0, 76, 64
2, 7880, Note_on_c, 0, 69, 127
2, 7918, Note_off_c, 0, 69, 64
2, 7920, Note_on_c, 0, 71, 127
2, 7958, Note_off_c, 0, 71, 64
2, 7960, Note_on_c, 0, 74, 127
2, 7998, Note_off_c, 0, 74, 64
2, 8000, Note_on_c, 0, 67, 127
2, 8038, Note_off_c, 0, 67, 64
2, 8040, Note_on_c, 0, 71, 127
2, 8078, Note_off_c, 0, 71, 64
2, 8080, Note_on_c, 0, 74, 127
2, 8118, Note_off_c, 0, 74, 64
2, 8120, Note_on_c, 0, 67, 127
2, 8158, Note_off_c, 0, 67, 64
2, 8160, Note_on_c, 0, 69, 127
2, 8198, Note_off_c, 0, 69, 64
2, 8200, Note_on_c, 0, 72, 127
2, 8238, Note_off_c, 0, 72, 64
2, 8240, Note_on_c, 0, 65, 127
2, 8278, Note_off_c, 0, 65, 64
2, 8280, Note_on_c, 0, 69, 127
2, 8318, Note_off_c, 0, 69, 64
2, 8320, Note_on_c, 0, 72, 127
2, 8358, Note_off_c, 0, 72, 64
2, 8360, Note_on_c, 0, 65, 127
2, 8398, Note_off_c, 0, 65, 64
2, 8400, Note_on_c, 0, 67, 127
2, 8438, Note_off_c, 0, 67, 64
2, 8440, Note_on_c, 0, 70, 127
2, 8478, Note_off_c, 0, 70, 64
2, 8480, Note_on_c, 0, 64, 127
2, 8518, Note_off_c, 0, 64, 64
2, 8520, Note_on_c, 0, 67, 127
2, 8558, Note_off_c, 0, 67, 64
2, 8560, Note_on_c, 0, 70, 127
2, 8598, Note_off_c, 0, 70, 64
2, 8600, Note_on_c, 0, 64, 127
2, 8638, Note_off_c, 0, 64, 64
2, 8640, Note_on_c, 0, 65, 127
2, 8678, Note_off_c, 0, 65, 64
2, 8680, Note_on_c, 0, 69, 127
2, 8718, Note_off_c, 0, 69, 64
2, 8720, Note_on_c, 0, 62, 127
2, 8758, Note_off_c, 0, 62, 64
2, 8760, Note_on_c, 0, 65, 127
2, 8798, Note_off_c, 0, 65, 64
2, 8800, Note_on_c, 0, 69, 127
2, 8838, Note_off_c, 0, 69, 64
2, 8840, Note_on_c, 0, 62, 127
2, 8878, Note_off_c, 0, 62, 64
2, 8880, Note_on_c, 0, 64, 127
2, 8918, Note_off_c, 0, 64, 64
2, 8920, Note_on_c, 0, 67, 127
2, 8958, Note_off_c, 0, 67, 64
2, 8960, Note_on_c, 0, 61, 127
2, 8998, Note_off_c, 0, 61, 64
2, 9000, Note_on_c, 0, 64, 127
2, 9038, Note_off_c, 0, 64, 64
2, 9040, Note_on_c, 0, 67, 127
2, 9078, Note_off_c, 0, 67, 64
2, 9080, Note_on_c, 0, 61, 127
2, 9118, Note_off_c, 0, 61, 64
2, 9400, Note_on_c, 0, 61, 127
2, 9410, Note_on_c, 0, 64, 127
2, 9420, Note_on_c, 0, 67, 127
2, 9430, Note_on_c, 0, 70, 127
2, 9838, Note_off_c, 0, 61, 64
2, 9838, Note_off_c, 0, 64, 64
2, 9838, Note_off_c, 0, 67, 64
2, 9838, Note_off_c, 0, 70, 64
2, 10560, Note_on_c, 0, 65, 127
2, 10560, Note_on_c, 0, 62, 127
2, 10798, Note_off_c, 0, 62, 64
2, 10798, Note_off_c, 0, 65, 64
2, 10980, Note_on_c, 0, 69, 127
2, 11038, Note_off_c, 0, 69, 64
2, 11040, Note_on_c, 0, 74, 127
2, 11098, Note_off_c, 0, 74, 64
2, 11100, Note_on_c, 0, 76, 127
2, 11158, Note_off_c, 0, 76, 64
2, 11160, Note_on_c, 0, 77, 127
2, 11218, Note_off_c, 0, 77, 64
2, 11220, Note_on_c, 0, 74, 127
2, 11278, Note_off_c, 0, 74, 64
2, 11280, Note_on_c, 0, 76, 127
2, 11338, Note_off_c, 0, 76, 64
2, 11340, Note_on_c, 0, 77, 127
2, 11398, Note_off_c, 0, 77, 64
2, 11400, Note_on_c, 0, 79, 127
2, 11458, Note_off_c, 0, 79, 64
2, 11460, Note_on_c, 0, 76, 127
2, 11518, Note_off_c, 0, 76, 64
2, 11520, Note_on_c, 0, 77, 127
2, 11578, Note_off_c, 0, 77, 64
2, 11580, Note_on_c, 0, 79, 127
2, 11638, Note_off_c, 0, 79, 64
2, 11640, Note_on_c, 0, 81, 127
2, 11698, Note_off_c, 0, 81, 64
2, 11700, Note_on_c, 0, 77, 127
2, 11758, Note_off_c, 0, 77, 64
2, 11760, Note_on_c, 0, 79, 127
2, 11818, Note_off_c, 0, 79, 64
2, 11820, Note_on_c, 0, 81, 127
2, 11878, Note_off_c, 0, 81, 64
2, 11880, Note_on_c, 0, 82, 127
2, 11938, Note_off_c, 0, 82, 64
2, 11940, Note_on_c, 0, 79, 127
2, 11998, Note_off_c, 0, 79, 64
2, 12000, Note_on_c, 0, 81, 127
2, 12058, Note_off_c, 0, 81, 64
2, 12060, Note_on_c, 0, 77, 127
2, 12118, Note_off_c, 0, 77, 64
2, 12120, Note_on_c, 0, 79, 127
2, 12178, Note_off_c, 0, 79, 64
2, 12180, Note_on_c, 0, 76, 127
2, 12238, Note_off_c, 0, 76, 64
2, 12240, Note_on_c, 0, 77, 127
2, 12298, Note_off_c, 0, 77, 64
2, 12300, Note_on_c, 0, 74, 127
2, 12358, Note_off_c, 0, 74, 64
2, 12360, Note_on_c, 0, 76, 127
2, 12418, Note_off_c, 0, 76, 64
2, 12420, Note_on_c, 0, 73, 127
2, 12478, Note_off_c, 0, 73, 64
2, 12480, Note_on_c, 0, 74, 127
2, 12538, Note_off_c, 0, 74, 64
2, 12540, Note_on_c, 0, 69, 127
2, 12598, Note_off_c, 0, 69, 64
2, 12600, Note_on_c, 0, 70, 127
2, 12658, Note_off_c, 0, 70, 64
2, 12660, Note_on_c, 0, 67, 127
2, 12718, Note_off_c, 0, 67, 64
2, 12720, Note_on_c, 0, 69, 127
2, 12778, Note_off_c, 0, 69, 64
2, 12780, Note_on_c, 0, 65, 127
2, 12838, Note_off_c, 0, 65, 64
2, 12840, Note_on_c, 0, 67, 127
2, 12898, Note_off_c, 0, 67, 64
2, 12900, Note_on_c, 0, 64, 127
2, 12958, Note_off_c, 0, 64, 64
2, 12960, Note_on_c, 0, 65, 127
2, 13018, Note_off_c, 0, 65, 64
2, 13020, Note_on_c, 0, 62, 127
2, 13078, Note_off_c, 0, 62, 64
2, 13080, Note_on_c, 0, 67, 127
2, 13138, Note_off_c, 0, 67, 64
2, 13140, Note_on_c, 0, 64, 127
2, 13198, Note_off_c, 0, 64, 64
2, 13200, Note_on_c, 0, 65, 127
2, 13258, Note_off_c, 0, 65, 64
2, 13260, Note_on_c, 0, 62, 127
2, 13318, Note_off_c, 0, 62, 64
2, 13320, Note_on_c, 0, 64, 127
2, 13378, Note_off_c, 0, 64, 64
2, 13380, Note_on_c, 0, 61, 127
2, 13438, Note_off_c, 0, 61, 64
2, 13440, Note_on_c, 0, 62, 127
2, 13498, Note_off_c, 0, 62, 64
2, 13500, Note_on_c, 0, 57, 127
2, 13558, Note_off_c, 0, 57, 64
2, 13560, Note_on_c, 0, 58, 127
2, 13618, Note_off_c, 0, 58, 64
2, 13620, Note_on_c, 0, 55, 127
2, 13678, Note_off_c, 0, 55, 64
2, 13680, Note_on_c, 0, 57, 127
2, 13738, Note_off_c, 0, 57, 64
2, 13740, Note_on_c, 0, 53, 127
2, 13798, Note_off_c, 0, 53, 64
2, 13800, Note_on_c, 0, 55, 127
2, 13858, Note_off_c, 0, 55, 64
2, 13860, Note_on_c, 0, 52, 127
2, 13918, Note_off_c, 0, 52, 64
2, 13920, Note_on_c, 0, 53, 127
2, 13978, Note_off_c, 0, 53, 64
2, 13980, Note_on_c, 0, 50, 127
2, 14038, Note_off_c, 0, 50, 64
2, 14040, Note_on_c, 0, 55, 127
2, 14098, Note_off_c, 0, 55, 64
2, 14100, Note_on_c, 0, 52, 127
2, 14158, Note_off_c, 0, 52, 64
2, 14160, Note_on_c, 0, 53, 127
2, 14218, Note_off_c, 0, 53, 64
2, 14220, Note_on_c, 0, 50, 127
2, 14278, Note_off_c, 0, 50, 64
2, 14280, Note_on_c, 0, 52, 127
2, 14338, Note_off_c, 0, 52, 64
2, 14340, Note_on_c, 0, 49, 127
2, 14398, Note_off_c, 0, 49, 64
2, 14400, Note_on_c, 0, 50, 127
2, 14518, Note_off_c, 0, 50, 64
2, 16320, Note_on_c, 0, 69, 127
2, 16320, Note_on_c, 0, 64, 127
2, 16320, Note_on_c, 0, 61, 127
2, 16558, Note_off_c, 0, 61, 64
2, 16558, Note_off_c, 0, 64, 64
2, 16558, Note_off_c, 0, 69, 64
2, 16560, Note_on_c, 0, 69, 127
2, 16588, Note_off_c, 0, 69, 64
2, 16590, Note_on_c, 0, 67, 127
2, 16618, Note_off_c, 0, 67, 64
2, 16620, Note_on_c, 0, 65, 127
2, 16648, Note_off_c, 0, 65, 64
2, 16650, Note_on_c, 0, 64, 127
2, 16678, Note_off_c, 0, 64, 64
2, 16680, Note_on_c, 0, 62, 127
2, 16708, Note_off_c, 0, 62, 64
2, 16710, Note_on_c, 0, 61, 127
2, 16738, Note_off_c, 0, 61, 64
2, 16740, Note_on_c, 0, 59, 127
2, 16768, Note_off_c, 0, 59, 64
2, 16770, Note_on_c, 0, 61, 127
2, 16798, Note_off_c, 0, 61, 64
2, 16800, Note_on_c, 0, 57, 127
2, 16828, Note_off_c, 0, 57, 64
2, 16830, Note_on_c, 0, 59, 127
2, 16858, Note_off_c, 0, 59, 64
2, 16860, Note_on_c, 0, 61, 127
2, 16888, Note_off_c, 0, 61, 64
2, 16890, Note_on_c, 0, 62, 127
2, 16918, Note_off_c, 0, 62, 64
2, 16920, Note_on_c, 0, 64, 127
2, 16948, Note_off_c, 0, 64, 64
2, 16950, Note_on_c, 0, 65, 127
2, 16978, Note_off_c, 0, 65, 64
2, 16980, Note_on_c, 0, 67, 127
2, 17008, Note_off_c, 0, 67, 64
2, 17010, Note_on_c, 0, 69, 127
2, 17038, Note_off_c, 0, 69, 64
2, 17040, Note_on_c, 0, 67, 127
2, 17068, Note_off_c, 0, 67, 64
2, 17070, Note_on_c, 0, 65, 127
2, 17098, Note_off_c, 0, 65, 64
2, 17100, Note_on_c, 0, 64, 127
2, 17128, Note_off_c, 0, 64, 64
2, 17130, Note_on_c, 0, 65, 127
2, 17158, Note_off_c, 0, 65, 64
2, 17160, Note_on_c, 0, 62, 127
2, 17188, Note_off_c, 0, 62, 64
2, 17190, Note_on_c, 0, 65, 127
2, 17218, Note_off_c, 0, 65, 64
2, 17220, Note_on_c, 0, 69, 127
2, 17248, Note_off_c, 0, 69, 64
2, 17250, Note_on_c, 0, 73, 127
2, 17278, Note_off_c, 0, 73, 64
2, 17280, Note_on_c, 0, 74, 127
2, 17308, Note_off_c, 0, 74, 64
2, 17310, Note_on_c, 0, 69, 127
2, 17338, Note_off_c, 0, 69, 64
2, 17340, Note_on_c, 0, 71, 127
2, 17368, Note_off_c, 0, 71, 64
2, 17370, Note_on_c, 0, 73, 127
2, 17398, Note_off_c, 0, 73, 64
2, 17400, Note_on_c, 0, 74, 127
2, 17428, Note_off_c, 0, 74, 64
2, 17430, Note_on_c, 0, 76, 127
2, 17458, Note_off_c, 0, 76, 64
2, 17460, Note_on_c, 0, 77, 127
2, 17472, Note_off_c, 0, 77, 64
2, 17474, Note_on_c, 0, 79, 127
2, 17488, Note_off_c, 0, 79, 64
2, 17490, Note_on_c, 0, 81, 127
2, 17518, Note_off_c, 0, 81, 64
2, 17520, Note_on_c, 0, 82, 127
2, 17638, Note_off_c, 0, 82, 64
2, 20160, Note_on_c, 0, 76, 127
2, 20160, Note_on_c, 0, 73, 127
2, 20160, Note_on_c, 0, 70, 127
2, 20638, Note_off_c, 0, 70, 64
2, 20638, Note_off_c, 0, 73, 64
2, 20638, Note_off_c, 0, 76, 64
2, 20640, Note_on_c, 0, 73, 127
2, 20678, Note_off_c, 0, 73, 64
2, 20680, Note_on_c, 0, 76, 127
2, 20718, Note_off_c, 0, 76, 64
2, 20720, Note_on_c, 0, 73, 127
2, 20758, Note_off_c, 0, 73, 64
2, 20760, Note_on_c, 0, 70, 127
2, 20798, Note_off_c, 0, 70, 64
2, 20800, Note_on_c, 0, 73, 127
2, 20838, Note_off_c, 0, 73, 64
2, 20840, Note_on_c, 0, 70, 127
2, 20878, Note_off_c, 0, 70, 64
2, 20880, Note_on_c, 0, 73, 127
2, 20918, Note_off_c, 0, 73, 64
2, 20920, Note_on_c, 0, 76, 127
2, 20958, Note_off_c, 0, 76, 64
2, 20960, Note_on_c, 0, 73, 127
2, 20998, Note_off_c, 0, 73, 64
2, 21000, Note_on_c, 0, 70, 127
2, 21038, Note_off_c, 0, 70, 64
2, 21040, Note_on_c, 0, 73, 127
2, 21078, Note_off_c, 0, 73, 64
2, 21080, Note_on_c, 0, 70, 127
2, 21118, Note_off_c, 0, 70, 64
2, 21120, Note_on_c, 0, 73, 127
2, 21158, Note_off_c, 0, 73, 64
2, 21160, Note_on_c, 0, 76, 127
2, 21198, Note_off_c, 0, 76, 64
2, 21200, Note_on_c, 0, 73, 127
2, 21238, Note_off_c, 0, 73, 64
2, 21240, Note_on_c, 0, 70, 127
2, 21278, Note_off_c, 0, 70, 64
2, 21280, Note_on_c, 0, 73, 127
2, 21318, Note_off_c, 0, 73, 64
2, 21320, Note_on_c, 0, 70, 127
2, 21358, Note_off_c, 0, 70, 64
2, 21360, Note_on_c, 0, 73, 127
2, 21398, Note_off_c, 0, 73, 64
2, 21400, Note_on_c, 0, 76, 127
2, 21438, Note_off_c, 0, 76, 64
2, 21440, Note_on_c, 0, 73, 127
2, 21478, Note_off_c, 0, 73, 64
2, 21480, Note_on_c, 0, 70, 127
2, 21518, Note_off_c, 0, 70, 64
2, 21520, Note_on_c, 0, 73, 127
2, 21558, Note_off_c, 0, 73, 64
2, 21560, Note_on_c, 0, 70, 127
2, 21598, Note_off_c, 0, 70, 64
2, 21600, Note_on_c, 0, 67, 127
2, 21638, Note_off_c, 0, 67, 64
2, 21640, Note_on_c, 0, 70, 127
2, 21678, Note_off_c, 0, 70, 64
2, 21680, Note_on_c, 0, 67, 127
2, 21718, Note_off_c, 0, 67, 64
2, 21720, Note_on_c, 0, 64, 127
2, 21758, Note_off_c, 0, 64, 64
2, 21760, Note_on_c, 0, 67, 127
2, 21798, Note_off_c, 0, 67, 64
2, 21800, Note_on_c, 0, 64, 127
2, 21838, Note_off_c, 0, 64, 64
2, 21840, Note_on_c, 0, 67, 127
2, 21878, Note_off_c, 0, 67, 64
2, 21880, Note_on_c, 0, 70, 127
2, 21918, Note_off_c, 0, 70, 64
2, 21920, Note_on_c, 0, 67, 127
2, 21958, Note_off_c, 0, 67, 64
2, 21960, Note_on_c, 0, 64, 127
2, 21998, Note_off_c, 0, 64, 64
2, 22000, Note_on_c, 0, 67, 127
2, 22038, Note_off_c, 0, 67, 64
2, 22040, Note_on_c, 0, 64, 127
2, 22078, Note_off_c, 0, 64, 64
2, 22080, Note_on_c, 0, 67, 127
2, 22118, Note_off_c, 0, 67, 64
2, 22120, Note_on_c, 0, 70, 127
2, 22158, Note_off_c, 0, 70, 64
2, 22160, Note_on_c, 0, 67, 127
2, 22198, Note_off_c, 0, 67, 64
2, 22200, Note_on_c, 0, 64, 127
2, 22238, Note_off_c, 0, 64, 64
2, 22240, Note_on_c, 0, 67, 127
2, 22278, Note_off_c, 0, 67, 64
2, 22280, Note_on_c, 0, 64, 127
2, 22318, Note_off_c, 0, 64, 64
2, 22320, Note_on_c, 0, 67, 127
2, 22358, Note_off_c, 0, 67, 64
2, 22360, Note_on_c, 0, 70, 127
2, 22398, Note_off_c, 0, 70, 64
2, 22400, Note_on_c, 0, 67, 127
2, 22438, Note_off_c, 0, 67, 64
2, 22440, Note_on_c, 0, 64, 127
2, 22478, Note_off_c, 0, 64, 64
2, 22480, Note_on_c, 0, 67, 127
2, 22518, Note_off_c, 0, 67, 64
2, 22520, Note_on_c, 0, 64, 127
2, 22558, Note_off_c, 0, 64, 64
2, 22560, Note_on_c, 0, 61, 127
2, 22598, Note_off_c, 0, 61, 64
2, 22600, Note_on_c, 0, 64, 127
2, 22638, Note_off_c, 0, 64, 64
2, 22640, Note_on_c, 0, 61, 127
2, 22678, Note_off_c, 0, 61, 64
2, 22680, Note_on_c, 0, 58, 127
2, 22718, Note_off_c, 0, 58, 64
2, 22720, Note_on_c, 0, 61, 127
2, 22758, Note_off_c, 0, 61, 64
2, 22760, Note_on_c, 0, 58, 127
2, 22798, Note_off_c, 0, 58, 64
2, 22800, Note_on_c, 0, 61, 127
2, 22838, Note_off_c, 0, 61, 64
2, 22840, Note_on_c, 0, 64, 127
2, 22878, Note_off_c, 0, 64, 64
2, 22880, Note_on_c, 0, 61, 127
2, 22918, Note_off_c, 0, 61, 64
2, 22920, Note_on_c, 0, 58, 127
2, 22958, Note_off_c, 0, 58, 64
2, 22960, Note_on_c, 0, 61, 127
2, 22998, Note_off_c, 0, 61, 64
2, 23000, Note_on_c, 0, 58, 127
2, 23038, Note_off_c, 0, 58, 64
2, 23040, Note_on_c, 0, 61, 127
2, 23078, Note_off_c, 0, 61, 64
2, 23080, Note_on_c, 0, 64, 127
2, 23118, Note_off_c, 0, 64, 64
2, 23120, Note_on_c, 0, 61, 127
2, 23158, Note_off_c, 0, 61, 64
2, 23160, Note_on_c, 0, 58, 127
2, 23198, Note_off_c, 0, 58, 64
2, 23200, Note_on_c, 0, 61, 127
2, 23238, Note_off_c, 0, 61, 64
2, 23240, Note_on_c, 0, 58, 127
2, 23278, Note_off_c, 0, 58, 64
2, 23280, Note_on_c, 0, 61, 127
2, 23318, Note_off_c, 0, 61, 64
2, 23320, Note_on_c, 0, 64, 127
2, 23358, Note_off_c, 0, 64, 64
2, 23360, Note_on_c, 0, 61, 127
2, 23398, Note_off_c, 0, 61, 64
2, 23400, Note_on_c, 0, 58, 127
2, 23438, Note_off_c, 0, 58, 64
2, 23440, Note_on_c, 0, 61, 127
2, 23478, Note_off_c, 0, 61, 64
2, 23480, Note_on_c, 0, 58, 127
2, 23518, Note_off_c, 0, 58, 64
2, 23520, Note_on_c, 0, 61, 127
2, 23558, Note_off_c, 0, 61, 64
2, 23560, Note_on_c, 0, 64, 127
2, 23598, Note_off_c, 0, 64, 64
2, 23600, Note_on_c, 0, 61, 127
2, 23638, Note_off_c, 0, 61, 64
2, 23640, Note_on_c, 0, 64, 127
2, 23678, Note_off_c, 0, 64, 64
2, 23680, Note_on_c, 0, 67, 127
2, 23718, Note_off_c, 0, 67, 64
2, 23720, Note_on_c, 0, 64, 127
2, 23758, Note_off_c, 0, 64, 64
2, 23760, Note_on_c, 0, 61, 127
2, 23798, Note_off_c, 0, 61, 64
2, 23800, Note_on_c, 0, 64, 127
2, 23838, Note_off_c, 0, 64, 64
2, 23840, Note_on_c, 0, 61, 127
2, 23878, Note_off_c, 0, 61, 64
2, 23880, Note_on_c, 0, 64, 127
2, 23918, Note_off_c, 0, 64, 64
2, 23920, Note_on_c, 0, 67, 127
2, 23958, Note_off_c, 0, 67, 64
2, 23960, Note_on_c, 0, 64, 127
2, 23998, Note_off_c, 0, 64, 64
2, 24000, Note_on_c, 0, 61, 127
2, 24038, Note_off_c, 0, 61, 64
2, 24040, Note_on_c, 0, 64, 127
2, 24078, Note_off_c, 0, 64, 64
2, 24080, Note_on_c, 0, 61, 127
2, 24118, Note_off_c, 0, 61, 64
2, 24120, Note_on_c, 0, 64, 127
2, 24158, Note_off_c, 0, 64, 64
2, 24160, Note_on_c, 0, 67, 127
2, 24198, Note_off_c, 0, 67, 64
2, 24200, Note_on_c, 0, 64, 127
2, 24238, Note_off_c, 0, 64, 64
2, 24240, Note_on_c, 0, 61, 127
2, 24278, Note_off_c, 0, 61, 64
2, 24280, Note_on_c, 0, 64, 127
2, 24318, Note_off_c, 0, 64, 64
2, 24320, Note_on_c, 0, 61, 127
2, 24358, Note_off_c, 0, 61, 64
2, 24360, Note_on_c, 0, 64, 127
2, 24398, Note_off_c, 0, 64, 64
2, 24400, Note_on_c, 0, 67, 127
2, 24438, Note_off_c, 0, 67, 64
2, 24440, Note_on_c, 0, 64, 127
2, 24478, Note_off_c, 0, 64, 64
2, 24480, Note_on_c, 0, 67, 127
2, 24518, Note_off_c, 0, 67, 64
2, 24520, Note_on_c, 0, 70, 127
2, 24558, Note_off_c, 0, 70, 64
2, 24560, Note_on_c, 0, 67, 127
2, 24598, Note_off_c, 0, 67, 64
2, 24600, Note_on_c, 0, 70, 127
2, 24638, Note_off_c, 0, 70, 64
2, 24640, Note_on_c, 0, 67, 127
2, 24678, Note_off_c, 0, 67, 64
2, 24680, Note_on_c, 0, 70, 127
2, 24718, Note_off_c, 0, 70, 64
2, 24720, Note_on_c, 0, 67, 127
2, 24758, Note_off_c, 0, 67, 64
2, 24760, Note_on_c, 0, 70, 127
2, 24798, Note_off_c, 0, 70, 64
2, 24800, Note_on_c, 0, 67, 127
2, 24838, Note_off_c, 0, 67, 64
2, 24840, Note_on_c, 0, 70, 127
2, 24878, Note_off_c, 0, 70, 64
2, 24880, Note_on_c, 0, 67, 127
2, 24918, Note_off_c, 0, 67, 64
2, 24920, Note_on_c, 0, 70, 127
2, 24958, Note_off_c, 0, 70, 64
2, 24960, Note_on_c, 0, 73, 127
2, 24998, Note_off_c, 0, 73, 64
2, 25000, Note_on_c, 0, 70, 127
2, 25038, Note_off_c, 0, 70, 64
2, 25040, Note_on_c, 0, 73, 127
2, 25078, Note_off_c, 0, 73, 64
2, 25080, Note_on_c, 0, 76, 127
2, 25118, Note_off_c, 0, 76, 64
2, 25120, Note_on_c, 0, 73, 127
2, 25158, Note_off_c, 0, 73, 64
2, 25160, Note_on_c, 0, 76, 127
2, 25198, Note_off_c, 0, 76, 64
2, 25200, Note_on_c, 0, 73, 127
2, 25238, Note_off_c, 0, 73, 64
2, 25240, Note_on_c, 0, 76, 127
2, 25278, Note_off_c, 0, 76, 64
2, 25280, Note_on_c, 0, 73, 127
2, 25318, Note_off_c, 0, 73, 64
2, 25320, Note_on_c, 0, 76, 127
2, 25358, Note_off_c, 0, 76, 64
2, 25360, Note_on_c, 0, 73, 127
2, 25398, Note_off_c, 0, 73, 64
2, 25400, Note_on_c, 0, 76, 127
2, 25438, Note_off_c, 0, 76, 64
2, 25440, Note_on_c, 0, 81, 127
2, 25440, Note_on_c, 0, 76, 127
2, 25440, Note_on_c, 0, 73, 127
2, 25440, Note_on_c, 0, 69, 127
2, 25678, Note_off_c, 0, 69, 64
2, 25678, Note_off_c, 0, 73, 64
2, 25678, Note_off_c, 0, 76, 64
2, 25678, Note_off_c, 0, 81, 64
2, 25680, Note_on_c, 0, 81, 127
2, 25680, Note_on_c, 0, 77, 127
2, 25680, Note_on_c, 0, 74, 127
2, 25680, Note_on_c, 0, 69, 127
2, 25918, Note_off_c, 0, 69, 64
2, 25918, Note_off_c, 0, 74, 64
2, 25918, Note_off_c, 0, 77, 64
2, 25918, Note_off_c, 0, 81, 64
2, 25920, Note_on_c, 0, 79, 127
2, 25920, Note_on_c, 0, 74, 127
2, 25920, Note_on_c, 0, 70, 127
2, 26158, Note_off_c, 0, 70, 64
2, 26158, Note_off_c, 0, 74, 64
2, 26158, Note_off_c, 0, 79, 64
2, 26400, Note_on_c, 0, 79, 127
2, 26400, Note_on_c, 0, 76, 127
2, 26400, Note_on_c, 0, 73, 127
2, 26400, Note_on_c, 0, 69, 127
2, 26638, Note_off_c, 0, 69, 64
2, 26638, Note_off_c, 0, 73, 64
2, 26638, Note_off_c, 0, 76, 64
2, 26638, Note_off_c, 0, 79, 64
2, 26638, End_track
3, 0, Start_track
3, 0, Title_t, "Fugue in D Min."
3, 0, Program_c, 0, 19
3, 0, Control_c, 0, 7, 127
3, 0, Note_on_c, 0, 69, 127
3, 14, Note_off_c, 0, 69, 64
3, 16, Note_on_c, 0, 67, 127
3, 28, Note_off_c, 0, 67, 64
3, 30, Note_on_c, 0, 69, 127
3, 118, Note_off_c, 0, 69, 64
3, 150, Note_on_c, 0, 67, 127
3, 162, Note_off_c, 0, 67, 64
3, 164, Note_on_c, 0, 65, 127
3, 176, Note_off_c, 0, 65, 64
3, 178, Note_on_c, 0, 64, 127
3, 192, Note_off_c, 0, 64, 64
3, 194, Note_on_c, 0, 62, 127
3, 208, Note_off_c, 0, 62, 64
3, 210, Note_on_c, 0, 61, 127
3, 238, Note_off_c, 0, 61, 64
3, 240, Note_on_c, 0, 62, 127
3, 298, Note_off_c, 0, 62, 64
3, 480, Note_on_c, 0, 57, 127
3, 494, Note_off_c, 0, 57, 64
3, 496, Note_on_c, 0, 55, 127
3, 508, Note_off_c, 0, 55, 64
3, 510, Note_on_c, 0, 57, 127
3, 598, Note_off_c, 0, 57, 64
3, 630, Note_on_c, 0, 52, 127
3, 658, Note_off_c, 0, 52, 64
3, 660, Note_on_c, 0, 53, 127
3, 688, Note_off_c, 0, 53, 64
3, 690, Note_on_c, 0, 49, 127
3, 718, Note_off_c, 0, 49, 64
3, 720, Note_on_c, 0, 50, 127
3, 778, Note_off_c, 0, 50, 64
3, 960, Note_on_c, 0, 45, 127
3, 974, Note_off_c, 0, 45, 64
3, 976, Note_on_c, 0, 43, 127
3, 988, Note_off_c, 0, 43, 64
3, 990, Note_on_c, 0, 45, 127
3, 1078, Note_off_c, 0, 45, 64
3, 1110, Note_on_c, 0, 43, 127
3, 1122, Note_off_c, 0, 43, 64
3, 1124, Note_on_c, 0, 41, 127
3, 1136, Note_off_c, 0, 41, 64
3, 1138, Note_on_c, 0, 40, 127
3, 1152, Note_off_c, 0, 40, 64
3, 1154, Note_on_c, 0, 38, 127
3, 1168, Note_off_c, 0, 38, 64
3, 1170, Note_on_c, 0, 37, 127
3, 1198, Note_off_c, 0, 37, 64
3, 1200, Note_on_c, 0, 38, 127
3, 1258, Note_off_c, 0, 38, 64
3, 1680, Note_on_c, 0, 49, 127
3, 1700, Note_on_c, 0, 52, 127
3, 1720, Note_on_c, 0, 55, 127
3, 2158, Note_off_c, 0, 49, 64
3, 2158, Note_off_c, 0, 52, 64
3, 2158, Note_off_c, 0, 55, 64
3, 2160, Note_on_c, 0, 50, 127
3, 2160, Note_on_c, 0, 55, 127
3, 2218, Note_off_c, 0, 55, 64
3, 2220, Note_on_c, 0, 52, 127
3, 2278, Note_off_c, 0, 52, 64
3, 2280, Note_on_c, 0, 54, 127
3, 2398, Note_off_c, 0, 54, 64
3, 2398, Note_off_c, 0, 50, 64
3, 2820, Note_on_c, 0, 49, 127
3, 2878, Note_off_c, 0, 49, 64
3, 2880, Note_on_c, 0, 50, 127
3, 2918, Note_off_c, 0, 50, 64
3, 2920, Note_on_c, 0, 52, 127
3, 2958, Note_off_c, 0, 52, 64
3, 2960, Note_on_c, 0, 49, 127
3, 2998, Note_off_c, 0, 49, 64
3, 3000, Note_on_c, 0, 50, 127
3, 3038, Note_off_c, 0, 50, 64
3, 3040, Note_on_c, 0, 52, 127
3, 3078, Note_off_c, 0, 52, 64
3, 3080, Note_on_c, 0, 49, 127
3, 3118, Note_off_c, 0, 49, 64
3, 3120, Note_on_c, 0, 50, 127
3, 3158, Note_off_c, 0, 50, 64
3, 3160, Note_on_c, 0, 52, 127
3, 3198, Note_off_c, 0, 52, 64
3, 3200, Note_on_c, 0, 49, 127
3, 3238, Note_off_c, 0, 49, 64
3, 3240, Note_on_c, 0, 50, 127
3, 3298, Note_off_c, 0, 50, 64
3, 3300, Note_on_c, 0, 52, 127
3, 3358, Note_off_c, 0, 52, 64
3, 3360, Note_on_c, 0, 53, 127
3, 3398, Note_off_c, 0, 53, 64
3, 3400, Note_on_c, 0, 55, 127
3, 3438, Note_off_c, 0, 55, 64
3, 3440, Note_on_c, 0, 52, 127
3, 3478, Note_off_c, 0, 52, 64
3, 3480, Note_on_c, 0, 53, 127
3, 3518, Note_off_c, 0, 53, 64
3, 3520, Note_on_c, 0, 55, 127
3, 3558, Note_off_c, 0, 55, 64
3, 3560, Note_on_c, 0, 52, 127
3, 3598, Note_off_c, 0, 52, 64
3, 3600, Note_on_c, 0, 53, 127
3, 3638, Note_off_c, 0, 53, 64
3, 3640, Note_on_c, 0, 55, 127
3, 3678, Note_off_c, 0, 55, 64
3, 3680, Note_on_c, 0, 52, 127
3, 3718, Note_off_c, 0, 52, 64
3, 3720, Note_on_c, 0, 53, 127
3, 3778, Note_off_c, 0, 53, 64
3, 3780, Note_on_c, 0, 55, 127
3, 3838, Note_off_c, 0, 55, 64
3, 3840, Note_on_c, 0, 57, 127
3, 3878, Note_off_c, 0, 57, 64
3, 3880, Note_on_c, 0, 58, 127
3, 3918, Note_off_c, 0, 58, 64
3, 3920, Note_on_c, 0, 55, 127
3, 3958, Note_off_c, 0, 55, 64
3, 3960, Note_on_c, 0, 57, 127
3, 3998, Note_off_c, 0, 57, 64
3, 4000, Note_on_c, 0, 58, 127
3, 4038, Note_off_c, 0, 58, 64
3, 4040, Note_on_c, 0, 55, 127
3, 4078, Note_off_c, 0, 55, 64
3, 4080, Note_on_c, 0, 57, 127
3, 4118, Note_off_c, 0, 57, 64
3, 4120, Note_on_c, 0, 58, 127
3, 4158, Note_off_c, 0, 58, 64
3, 4160, Note_on_c, 0, 55, 127
3, 4198, Note_off_c, 0, 55, 64
3, 4200, Note_on_c, 0, 57, 127
3, 4258, Note_off_c, 0, 57, 64
3, 4740, Note_on_c, 0, 61, 127
3, 4798, Note_off_c, 0, 61, 64
3, 4800, Note_on_c, 0, 62, 127
3, 4838, Note_off_c, 0, 62, 64
3, 4840, Note_on_c, 0, 64, 127
3, 4878, Note_off_c, 0, 64, 64
3, 4880, Note_on_c, 0, 61, 127
3, 4918, Note_off_c, 0, 61, 64
3, 4920, Note_on_c, 0, 62, 127
3, 4958, Note_off_c, 0, 62, 64
3, 4960, Note_on_c, 0, 64, 127
3, 4998, Note_off_c, 0, 64, 64
3, 5000, Note_on_c, 0, 61, 127
3, 5038, Note_off_c, 0, 61, 64
3, 5040, Note_on_c, 0, 62, 127
3, 5078, Note_off_c, 0, 62, 64
3, 5080, Note_on_c, 0, 64, 127
3, 5118, Note_off_c, 0, 64, 64
3, 5120, Note_on_c, 0, 61, 127
3, 5158, Note_off_c, 0, 61, 64
3, 5160, Note_on_c, 0, 62, 127
3, 5218, Note_off_c, 0, 62, 64
3, 5220, Note_on_c, 0, 64, 127
3, 5278, Note_off_c, 0, 64, 64
3, 5280, Note_on_c, 0, 65, 127
3, 5318, Note_off_c, 0, 65, 64
3, 5320, Note_on_c, 0, 67, 127
3, 5358, Note_off_c, 0, 67, 64
3, 5360, Note_on_c, 0, 64, 127
3, 5398, Note_off_c, 0, 64, 64
3, 5400, Note_on_c, 0, 65, 127
3, 5438, Note_off_c, 0, 65, 64
3, 5440, Note_on_c, 0, 67, 127
3, 5478, Note_off_c, 0, 67, 64
3, 5480, Note_on_c, 0, 64, 127
3, 5518, Note_off_c, 0, 64, 64
3, 5520, Note_on_c, 0, 65, 127
3, 5558, Note_off_c, 0, 65, 64
3, 5560, Note_on_c, 0, 67, 127
3, 5598, Note_off_c, 0, 67, 64
3, 5600, Note_on_c, 0, 64, 127
3, 5638, Note_off_c, 0, 64, 64
3, 5640, Note_on_c, 0, 65, 127
3, 5698, Note_off_c, 0, 65, 64
3, 5700, Note_on_c, 0, 67, 127
3, 5758, Note_off_c, 0, 67, 64
3, 5760, Note_on_c, 0, 69, 127
3, 5798, Note_off_c, 0, 69, 64
3, 5800, Note_on_c, 0, 70, 127
3, 5838, Note_off_c, 0, 70, 64
3, 5840, Note_on_c, 0, 67, 127
3, 5878, Note_off_c, 0, 67, 64
3, 5880, Note_on_c, 0, 69, 127
3, 5918, Note_off_c, 0, 69, 64
3, 5920, Note_on_c, 0, 70, 127
3, 5958, Note_off_c, 0, 70, 64
3, 5960, Note_on_c, 0, 67, 127
3, 5998, Note_off_c, 0, 67, 64
3, 6000, Note_on_c, 0, 69, 127
3, 6038, Note_off_c, 0, 69, 64
3, 6040, Note_on_c, 0, 70, 127
3, 6078, Note_off_c, 0, 70, 64
3, 6080, Note_on_c, 0, 67, 127
3, 6118, Note_off_c, 0, 67, 64
3, 6120, Note_on_c, 0, 69, 127
3, 6178, Note_off_c, 0, 69, 64
3, 6660, Note_on_c, 0, 69, 127
3, 6718, Note_off_c, 0, 69, 64
3, 6720, Note_on_c, 0, 67, 127
3, 6758, Note_off_c, 0, 67, 64
3, 6760, Note_on_c, 0, 70, 127
3, 6798, Note_off_c, 0, 70, 64
3, 6800, Note_on_c, 0, 64, 127
3, 6838, Note_off_c, 0, 64, 64
3, 6840, Note_on_c, 0, 67, 127
3, 6878, Note_off_c, 0, 67, 64
3, 6880, Note_on_c, 0, 70, 127
3, 6918, Note_off_c, 0, 70, 64
3, 6920, Note_on_c, 0, 64, 127
3, 6958, Note_off_c, 0, 64, 64
3, 6960, Note_on_c, 0, 65, 127
3, 6998, Note_off_c, 0, 65, 64
3, 7000, Note_on_c, 0, 69, 127
3, 7038, Note_off_c, 0, 69, 64
3, 7040, Note_on_c, 0, 62, 127
3, 7078, Note_off_c, 0, 62, 64
3, 7080, Note_on_c, 0, 65, 127
3, 7118, Note_off_c, 0, 65, 64
3, 7120, Note_on_c, 0, 69, 127
3, 7158, Note_off_c, 0, 69, 64
3, 7160, Note_on_c, 0, 62, 127
3, 7198, Note_off_c, 0, 62, 64
3, 7200, Note_on_c, 0, 64, 127
3, 7238, Note_off_c, 0, 64, 64
3, 7240, Note_on_c, 0, 67, 127
3, 7278, Note_off_c, 0, 67, 64
3, 7280, Note_on_c, 0, 60, 127
3, 7318, Note_off_c, 0, 60, 64
3, 7320, Note_on_c, 0, 64, 127
3, 7358, Note_off_c, 0, 64, 64
3, 7360, Note_on_c, 0, 67, 127
3, 7398, Note_off_c, 0, 67, 64
3, 7400, Note_on_c, 0, 60, 127
3, 7438, Note_off_c, 0, 60, 64
3, 7440, Note_on_c, 0, 62, 127
3, 7478, Note_off_c, 0, 62, 64
3, 7480, Note_on_c, 0, 65, 127
3, 7518, Note_off_c, 0, 65, 64
3, 7520, Note_on_c, 0, 59, 127
3, 7558, Note_off_c, 0, 59, 64
3, 7560, Note_on_c, 0, 62, 127
3, 7598, Note_off_c, 0, 62, 64
3, 7600, Note_on_c, 0, 65, 127
3, 7638, Note_off_c, 0, 65, 64
3, 7640, Note_on_c, 0, 59, 127
3, 7678, Note_off_c, 0, 59, 64
3, 7680, Note_on_c, 0, 60, 127
3, 7718, Note_off_c, 0, 60, 64
3, 7720, Note_on_c, 0, 64, 127
3, 7758, Note_off_c, 0, 64, 64
3, 7760, Note_on_c, 0, 57, 127
3, 7798, Note_off_c, 0, 57, 64
3, 7800, Note_on_c, 0, 60, 127
3, 7838, Note_off_c, 0, 60, 64
3, 7840, Note_on_c, 0, 64, 127
3, 7878, Note_off_c, 0, 64, 64
3, 7880, Note_on_c, 0, 57, 127
3, 7918, Note_off_c, 0, 57, 64
3, 7920, Note_on_c, 0, 59, 127
3, 7958, Note_off_c, 0, 59, 64
3, 7960, Note_on_c, 0, 62, 127
3, 7998, Note_off_c, 0, 62, 64
3, 8000, Note_on_c, 0, 55, 127
3, 8038, Note_off_c, 0, 55, 64
3, 8040, Note_on_c, 0, 59, 127
3, 8078, Note_off_c, 0, 59, 64
3, 8080, Note_on_c, 0, 62, 127
3, 8118, Note_off_c, 0, 62, 64
3, 8120, Note_on_c, 0, 55, 127
3, 8158, Note_off_c, 0, 55, 64
3, 8160, Note_on_c, 0, 57, 127
3, 8198, Note_off_c, 0, 57, 64
3, 8200, Note_on_c, 0, 60, 127
3, 8238, Note_off_c, 0, 60, 64
3, 8240, Note_on_c, 0, 53, 127
3, 8278, Note_off_c, 0, 53, 64
3, 8280, Note_on_c, 0, 57, 127
3, 8318, Note_off_c, 0, 57, 64
3, 8320, Note_on_c, 0, 60, 127
3, 8358, Note_off_c, 0, 60, 64
3, 8360, Note_on_c, 0, 53, 127
3, 8398, Note_off_c, 0, 53, 64
3, 8400, Note_on_c, 0, 55, 127
3, 8438, Note_off_c, 0, 55, 64
3, 8440, Note_on_c, 0, 58, 127
3, 8478, Note_off_c, 0, 58, 64
3, 8480, Note_on_c, 0, 52, 127
3, 8518, Note_off_c, 0, 52, 64
3, 8520, Note_on_c, 0, 55, 127
3, 8558, Note_off_c, 0, 55, 64
3, 8560, Note_on_c, 0, 58, 127
3, 8598, Note_off_c, 0, 58, 64
3, 8600, Note_on_c, 0, 52, 127
3, 8638, Note_off_c, 0, 52, 64
3, 8640, Note_on_c, 0, 53, 127
3, 8678, Note_off_c, 0, 53, 64
3, 8680, Note_on_c, 0, 57, 127
3, 8718, Note_off_c, 0, 57, 64
3, 8720, Note_on_c, 0, 50, 127
3, 8758, Note_off_c, 0, 50, 64
3, 8760, Note_on_c, 0, 53, 127
3, 8798, Note_off_c, 0, 53, 64
3, 8800, Note_on_c, 0, 57, 127
3, 8838, Note_off_c, 0, 57, 64
3, 8840, Note_on_c, 0, 50, 127
3, 8878, Note_off_c, 0, 50, 64
3, 8880, Note_on_c, 0, 52, 127
3, 8918, Note_off_c, 0, 52, 64
3, 8920, Note_on_c, 0, 55, 127
3, 8958, Note_off_c, 0, 55, 64
3, 8960, Note_on_c, 0, 49, 127
3, 8998, Note_off_c, 0, 49, 64
3, 9000, Note_on_c, 0, 52, 127
3, 9038, Note_off_c, 0, 52, 64
3, 9040, Note_on_c, 0, 55, 127
3, 9078, Note_off_c, 0, 55, 64
3, 9080, Note_on_c, 0, 49, 127
3, 9118, Note_off_c, 0, 49, 64
3, 9360, Note_on_c, 0, 49, 127
3, 9370, Note_on_c, 0, 52, 127
3, 9380, Note_on_c, 0, 55, 127
3, 9390, Note_on_c, 0, 58, 127
3, 9838, Note_off_c, 0, 49, 64
3, 9838, Note_off_c, 0, 52, 64
3, 9838, Note_off_c, 0, 55, 64
3, 9838, Note_off_c, 0, 58, 64
3, 10560, Note_on_c, 0, 50, 127
3, 10560, Note_on_c, 0, 57, 127
3, 10560, Note_on_c, 0, 53, 127
3, 10798, Note_off_c, 0, 53, 64
3, 10798, Note_off_c, 0, 57, 64
3, 10798, Note_off_c, 0, 50, 64
3, 11070, Note_on_c, 0, 69, 127
3, 11118, Note_off_c, 0, 69, 64
3, 11130, Note_on_c, 0, 69, 127
3, 11178, Note_off_c, 0, 69, 64
3, 11190, Note_on_c, 0, 69, 127
3, 11238, Note_off_c, 0, 69, 64
3, 11250, Note_on_c, 0, 69, 127
3, 11298, Note_off_c, 0, 69, 64
3, 11310, Note_on_c, 0, 69, 127
3, 11358, Note_off_c, 0, 69, 64
3, 11370, Note_on_c, 0, 69, 127
3, 11418, Note_off_c, 0, 69, 64
3, 11430, Note_on_c, 0, 69, 127
3, 11478, Note_off_c, 0, 69, 64
3, 11490, Note_on_c, 0, 69, 127
3, 11538, Note_off_c, 0, 69, 64
3, 11550, Note_on_c, 0, 69, 127
3, 11598, Note_off_c, 0, 69, 64
3, 11610, Note_on_c, 0, 69, 127
3, 11658, Note_off_c, 0, 69, 64
3, 11670, Note_on_c, 0, 69, 127
3, 11718, Note_off_c, 0, 69, 64
3, 11730, Note_on_c, 0, 69, 127
3, 11778, Note_off_c, 0, 69, 64
3, 11790, Note_on_c, 0, 69, 127
3, 11838, Note_off_c, 0, 69, 64
3, 11850, Note_on_c, 0, 69, 127
3, 11898, Note_off_c, 0, 69, 64
3, 11910, Note_on_c, 0, 69, 127
3, 11958, Note_off_c, 0, 69, 64
3, 11970, Note_on_c, 0, 69, 127
3, 12018, Note_off_c, 0, 69, 64
3, 12030, Note_on_c, 0, 69, 127
3, 12078, Note_off_c, 0, 69, 64
3, 12090, Note_on_c, 0, 69, 127
3, 12138, Note_off_c, 0, 69, 64
3, 12150, Note_on_c, 0, 69, 127
3, 12198, Note_off_c, 0, 69, 64
3, 12210, Note_on_c, 0, 69, 127
3, 12258, Note_off_c, 0, 69, 64
3, 12270, Note_on_c, 0, 69, 127
3, 12318, Note_off_c, 0, 69, 64
3, 12330, Note_on_c, 0, 69, 127
3, 12378, Note_off_c, 0, 69, 64
3, 12390, Note_on_c, 0, 69, 127
3, 12438, Note_off_c, 0, 69, 64
3, 12450, Note_on_c, 0, 69, 127
3, 12478, Note_off_c, 0, 69, 64
3, 12510, Note_on_c, 0, 69, 127
3, 12558, Note_off_c, 0, 69, 64
3, 12570, Note_on_c, 0, 69, 127
3, 12618, Note_off_c, 0, 69, 64
3, 12630, Note_on_c, 0, 69, 127
3, 12678, Note_off_c, 0, 69, 64
3, 12690, Note_on_c, 0, 69, 127
3, 12738, Note_off_c, 0, 69, 64
3, 12750, Note_on_c, 0, 69, 127
3, 12798, Note_off_c, 0, 69, 64
3, 12810, Note_on_c, 0, 69, 127
3, 12858, Note_off_c, 0, 69, 64
3, 12870, Note_on_c, 0, 69, 127
3, 12918, Note_off_c, 0, 69, 64
3, 12930, Note_on_c, 0, 69, 127
3, 12978, Note_off_c, 0, 69, 64
3, 12990, Note_on_c, 0, 69, 127
3, 13038, Note_off_c, 0, 69, 64
3, 13050, Note_on_c, 0, 69, 127
3, 13098, Note_off_c, 0, 69, 64
3, 13110, Note_on_c, 0, 69, 127
3, 13158, Note_off_c, 0, 69, 64
3, 13170, Note_on_c, 0, 69, 127
3, 13218, Note_off_c, 0, 69, 64
3, 13230, Note_on_c, 0, 69, 127
3, 13278, Note_off_c, 0, 69, 64
3, 13290, Note_on_c, 0, 69, 127
3, 13338, Note_off_c, 0, 69, 64
3, 13350, Note_on_c, 0, 69, 127
3, 13398, Note_off_c, 0, 69, 64
3, 13410, Note_on_c, 0, 69, 127
3, 13438, Note_off_c, 0, 69, 64
3, 13470, Note_on_c, 0, 69, 127
3, 13518, Note_off_c, 0, 69, 64
3, 13530, Note_on_c, 0, 69, 127
3, 13578, Note_off_c, 0, 69, 64
3, 13590, Note_on_c, 0, 69, 127
3, 13638, Note_off_c, 0, 69, 64
3, 13650, Note_on_c, 0, 69, 127
3, 13698, Note_off_c, 0, 69, 64
3, 13710, Note_on_c, 0, 69, 127
3, 13758, Note_off_c, 0, 69, 64
3, 13770, Note_on_c, 0, 69, 127
3, 13818, Note_off_c, 0, 69, 64
3, 13830, Note_on_c, 0, 69, 127
3, 13878, Note_off_c, 0, 69, 64
3, 13890, Note_on_c, 0, 69, 127
3, 13938, Note_off_c, 0, 69, 64
3, 13950, Note_on_c, 0, 69, 127
3, 13998, Note_off_c, 0, 69, 64
3, 14010, Note_on_c, 0, 69, 127
3, 14058, Note_off_c, 0, 69, 64
3, 14070, Note_on_c, 0, 69, 127
3, 14118, Note_off_c, 0, 69, 64
3, 14130, Note_on_c, 0, 69, 127
3, 14178, Note_off_c, 0, 69, 64
3, 14190, Note_on_c, 0, 69, 127
3, 14238, Note_off_c, 0, 69, 64
3, 14250, Note_on_c, 0, 69, 127
3, 14298, Note_off_c, 0, 69, 64
3, 14310, Note_on_c, 0, 69, 127
3, 14358, Note_off_c, 0, 69, 64
3, 14370, Note_on_c, 0, 69, 127
3, 14398, Note_off_c, 0, 69, 64
3, 20160, Note_on_c, 0, 61, 127
3, 20160, Note_on_c, 0, 67, 127
3, 20160, Note_on_c, 0, 64, 127
3, 20638, Note_off_c, 0, 64, 64
3, 20638, Note_off_c, 0, 67, 64
3, 20638, Note_off_c, 0, 61, 64
3, 20640, Note_on_c, 0, 64, 127
3, 20678, Note_off_c, 0, 64, 64
3, 20680, Note_on_c, 0, 67, 127
3, 20718, Note_off_c, 0, 67, 64
3, 20720, Note_on_c, 0, 64, 127
3, 20758, Note_off_c, 0, 64, 64
3, 20760, Note_on_c, 0, 61, 127
3, 20798, Note_off_c, 0, 61, 64
3, 20800, Note_on_c, 0, 64, 127
3, 20838, Note_off_c, 0, 64, 64
3, 20840, Note_on_c, 0, 61, 127
3, 20878, Note_off_c, 0, 61, 64
3, 20880, Note_on_c, 0, 64, 127
3, 20918, Note_off_c, 0, 64, 64
3, 20920, Note_on_c, 0, 67, 127
3, 20958, Note_off_c, 0, 67, 64
3, 20960, Note_on_c, 0, 64, 127
3, 20998, Note_off_c, 0, 64, 64
3, 21000, Note_on_c, 0, 61, 127
3, 21038, Note_off_c, 0, 61, 64
3, 21040, Note_on_c, 0, 64, 127
3, 21078, Note_off_c, 0, 64, 64
3, 21080, Note_on_c, 0, 61, 127
3, 21118, Note_off_c, 0, 61, 64
3, 21120, Note_on_c, 0, 64, 127
3, 21158, Note_off_c, 0, 64, 64
3, 21160, Note_on_c, 0, 67, 127
3, 21198, Note_off_c, 0, 67, 64
3, 21200, Note_on_c, 0, 64, 127
3, 21238, Note_off_c, 0, 64, 64
3, 21240, Note_on_c, 0, 61, 127
3, 21278, Note_off_c, 0, 61, 64
3, 21280, Note_on_c, 0, 64, 127
3, 21318, Note_off_c, 0, 64, 64
3, 21320, Note_on_c, 0, 61, 127
3, 21358, Note_off_c, 0, 61, 64
3, 21360, Note_on_c, 0, 64, 127
3, 21398, Note_off_c, 0, 64, 64
3, 21400, Note_on_c, 0, 67, 127
3, 21438, Note_off_c, 0, 67, 64
3, 21440, Note_on_c, 0, 64, 127
3, 21478, Note_off_c, 0, 64, 64
3, 21480, Note_on_c, 0, 61, 127
3, 21518, Note_off_c, 0, 61, 64
3, 21520, Note_on_c, 0, 64, 127
3, 21558, Note_off_c, 0, 64, 64
3, 21560, Note_on_c, 0, 61, 127
3, 21598, Note_off_c, 0, 61, 64
3, 21600, Note_on_c, 0, 58, 127
3, 21638, Note_off_c, 0, 58, 64
3, 21640, Note_on_c, 0, 61, 127
3, 21678, Note_off_c, 0, 61, 64
3, 21680, Note_on_c, 0, 58, 127
3, 21718, Note_off_c, 0, 58, 64
3, 21720, Note_on_c, 0, 55, 127
3, 21758, Note_off_c, 0, 55, 64
3, 21760, Note_on_c, 0, 58, 127
3, 21798, Note_off_c, 0, 58, 64
3, 21800, Note_on_c, 0, 55, 127
3, 21838, Note_off_c, 0, 55, 64
3, 21840, Note_on_c, 0, 58, 127
3, 21878, Note_off_c, 0, 58, 64
3, 21880, Note_on_c, 0, 61, 127
3, 21918, Note_off_c, 0, 61, 64
3, 21920, Note_on_c, 0, 58, 127
3, 21958, Note_off_c, 0, 58, 64
3, 21960, Note_on_c, 0, 55, 127
3, 21998, Note_off_c, 0, 55, 64
3, 22000, Note_on_c, 0, 58, 127
3, 22038, Note_off_c, 0, 58, 64
3, 22040, Note_on_c, 0, 55, 127
3, 22078, Note_off_c, 0, 55, 64
3, 22080, Note_on_c, 0, 58, 127
3, 22118, Note_off_c, 0, 58, 64
3, 22120, Note_on_c, 0, 61, 127
3, 22158, Note_off_c, 0, 61, 64
3, 22160, Note_on_c, 0, 58, 127
3, 22198, Note_off_c, 0, 58, 64
3, 22200, Note_on_c, 0, 55, 127
3, 22238, Note_off_c, 0, 55, 64
3, 22240, Note_on_c, 0, 58, 127
3, 22278, Note_off_c, 0, 58, 64
3, 22280, Note_on_c, 0, 55, 127
3, 22318, Note_off_c, 0, 55, 64
3, 22320, Note_on_c, 0, 58, 127
3, 22358, Note_off_c, 0, 58, 64
3, 22360, Note_on_c, 0, 61, 127
3, 22398, Note_off_c, 0, 61, 64
3, 22400, Note_on_c, 0, 58, 127
3, 22438, Note_off_c, 0, 58, 64
3, 22440, Note_on_c, 0, 55, 127
3, 22478, Note_off_c, 0, 55, 64
3, 22480, Note_on_c, 0, 58, 127
3, 22518, Note_off_c, 0, 58, 64
3, 22520, Note_on_c, 0, 55, 127
3, 22558, Note_off_c, 0, 55, 64
3, 22560, Note_on_c, 0, 52, 127
3, 22598, Note_off_c, 0, 52, 64
3, 22600, Note_on_c, 0, 55, 127
3, 22638, Note_off_c, 0, 55, 64
3, 22640, Note_on_c, 0, 52, 127
3, 22678, Note_off_c, 0, 52, 64
3, 22680, Note_on_c, 0, 49, 127
3, 22718, Note_off_c, 0, 49, 64
3, 22720, Note_on_c, 0, 52, 127
3, 22758, Note_off_c, 0, 52, 64
3, 22760, Note_on_c, 0, 49, 127
3, 22798, Note_off_c, 0, 49, 64
3, 22800, Note_on_c, 0, 52, 127
3, 22838, Note_off_c, 0, 52, 64
3, 22840, Note_on_c, 0, 55, 127
3, 22878, Note_off_c, 0, 55, 64
3, 22880, Note_on_c, 0, 52, 127
3, 22918, Note_off_c, 0, 52, 64
3, 22920, Note_on_c, 0, 49, 127
3, 22958, Note_off_c, 0, 49, 64
3, 22960, Note_on_c, 0, 52, 127
3, 22998, Note_off_c, 0, 52, 64
3, 23000, Note_on_c, 0, 49, 127
3, 23038, Note_off_c, 0, 49, 64
3, 23040, Note_on_c, 0, 52, 127
3, 23078, Note_off_c, 0, 52, 64
3, 23080, Note_on_c, 0, 55, 127
3, 23118, Note_off_c, 0, 55, 64
3, 23120, Note_on_c, 0, 52, 127
3, 23158, Note_off_c, 0, 52, 64
3, 23160, Note_on_c, 0, 49, 127
3, 23198, Note_off_c, 0, 49, 64
3, 23200, Note_on_c, 0, 52, 127
3, 23238, Note_off_c, 0, 52, 64
3, 23240, Note_on_c, 0, 49, 127
3, 23278, Note_off_c, 0, 49, 64
3, 23280, Note_on_c, 0, 52, 127
3, 23318, Note_off_c, 0, 52, 64
3, 23320, Note_on_c, 0, 55, 127
3, 23358, Note_off_c, 0, 55, 64
3, 23360, Note_on_c, 0, 52, 127
3, 23398, Note_off_c, 0, 52, 64
3, 23400, Note_on_c, 0, 49, 127
3, 23438, Note_off_c, 0, 49, 64
3, 23440, Note_on_c, 0, 52, 127
3, 23478, Note_off_c, 0, 52, 64
3, 23480, Note_on_c, 0, 49, 127
3, 23518, Note_off_c, 0, 49, 64
3, 23520, Note_on_c, 0, 52, 127
3, 23558, Note_off_c, 0, 52, 64
3, 23560, Note_on_c, 0, 55, 127
3, 23598, Note_off_c, 0, 55, 64
3, 23600, Note_on_c, 0, 52, 127
3, 23638, Note_off_c, 0, 52, 64
3, 23640, Note_on_c, 0, 55, 127
3, 23678, Note_off_c, 0, 55, 64
3, 23680, Note_on_c, 0, 58, 127
3, 23718, Note_off_c, 0, 58, 64
3, 23720, Note_on_c, 0, 55, 127
3, 23758, Note_off_c, 0, 55, 64
3, 23760, Note_on_c, 0, 52, 127
3, 23798, Note_off_c, 0, 52, 64
3, 23800, Note_on_c, 0, 55, 127
3, 23838, Note_off_c, 0, 55, 64
3, 23840, Note_on_c, 0, 52, 127
3, 23878, Note_off_c, 0, 52, 64
3, 23880, Note_on_c, 0, 55, 127
3, 23918, Note_off_c, 0, 55, 64
3, 23920, Note_on_c, 0, 58, 127
3, 23958, Note_off_c, 0, 58, 64
3, 23960, Note_on_c, 0, 55, 127
3, 23998, Note_off_c, 0, 55, 64
3, 24000, Note_on_c, 0, 52, 127
3, 24038, Note_off_c, 0, 52, 64
3, 24040, Note_on_c, 0, 55, 127
3, 24078, Note_off_c, 0, 55, 64
3, 24080, Note_on_c, 0, 52, 127
3, 24118, Note_off_c, 0, 52, 64
3, 24120, Note_on_c, 0, 55, 127
3, 24158, Note_off_c, 0, 55, 64
3, 24160, Note_on_c, 0, 58, 127
3, 24198, Note_off_c, 0, 58, 64
3, 24200, Note_on_c, 0, 55, 127
3, 24238, Note_off_c, 0, 55, 64
3, 24240, Note_on_c, 0, 52, 127
3, 24278, Note_off_c, 0, 52, 64
3, 24280, Note_on_c, 0, 55, 127
3, 24318, Note_off_c, 0, 55, 64
3, 24320, Note_on_c, 0, 52, 127
3, 24358, Note_off_c, 0, 52, 64
3, 24360, Note_on_c, 0, 55, 127
3, 24398, Note_off_c, 0, 55, 64
3, 24400, Note_on_c, 0, 58, 127
3, 24438, Note_off_c, 0, 58, 64
3, 24440, Note_on_c, 0, 55, 127
3, 24478, Note_off_c, 0, 55, 64
3, 24480, Note_on_c, 0, 52, 127
3, 24518, Note_off_c, 0, 52, 64
3, 24520, Note_on_c, 0, 55, 127
3, 24558, Note_off_c, 0, 55, 64
3, 24560, Note_on_c, 0, 52, 127
3, 24598, Note_off_c, 0, 52, 64
3, 24600, Note_on_c, 0, 55, 127
3, 24638, Note_off_c, 0, 55, 64
3, 24640, Note_on_c, 0, 52, 127
3, 24678, Note_off_c, 0, 52, 64
3, 24680, Note_on_c, 0, 55, 127
3, 24718, Note_off_c, 0, 55, 64
3, 24720, Note_on_c, 0, 58, 127
3, 24758, Note_off_c, 0, 58, 64
3, 24760, Note_on_c, 0, 61, 127
3, 24798, Note_off_c, 0, 61, 64
3, 24800, Note_on_c, 0, 58, 127
3, 24838, Note_off_c, 0, 58, 64
3, 24840, Note_on_c, 0, 61, 127
3, 24878, Note_off_c, 0, 61, 64
3, 24880, Note_on_c, 0, 58, 127
3, 24918, Note_off_c, 0, 58, 64
3, 24920, Note_on_c, 0, 61, 127
3, 24958, Note_off_c, 0, 61, 64
3, 24960, Note_on_c, 0, 64, 127
3, 24998, Note_off_c, 0, 64, 64
3, 25000, Note_on_c, 0, 61, 127
3, 25038, Note_off_c, 0, 61, 64
3, 25040, Note_on_c, 0, 64, 127
3, 25078, Note_off_c, 0, 64, 64
3, 25080, Note_on_c, 0, 61, 127
3, 25118, Note_off_c, 0, 61, 64
3, 25120, Note_on_c, 0, 64, 127
3, 25158, Note_off_c, 0, 64, 64
3, 25160, Note_on_c, 0, 61, 127
3, 25198, Note_off_c, 0, 61, 64
3, 25200, Note_on_c, 0, 64, 127
3, 25238, Note_off_c, 0, 64, 64
3, 25240, Note_on_c, 0, 61, 127
3, 25278, Note_off_c, 0, 61, 64
3, 25280, Note_on_c, 0, 64, 127
3, 25318, Note_off_c, 0, 64, 64
3, 25320, Note_on_c, 0, 61, 127
3, 25358, Note_off_c, 0, 61, 64
3, 25360, Note_on_c, 0, 64, 127
3, 25398, Note_off_c, 0, 64, 64
3, 25400, Note_on_c, 0, 61, 127
3, 25438, Note_off_c, 0, 61, 64
3, 25440, Note_on_c, 0, 57, 127
3, 25678, Note_off_c, 0, 57, 64
3, 25680, Note_on_c, 0, 57, 127
3, 25918, Note_off_c, 0, 57, 64
3, 25920, Note_on_c, 0, 67, 127
3, 25920, Note_on_c, 0, 62, 127
3, 26158, Note_off_c, 0, 62, 64
3, 26158, Note_off_c, 0, 67, 64
3, 26400, Note_on_c, 0, 61, 127
3, 26400, Note_on_c, 0, 64, 127
3, 26638, Note_off_c, 0, 64, 64
3, 26638, Note_off_c, 0, 61, 64
3, 26638, End_track
4, 0, Start_track
4, 0, Title_t, "J.S. Bach"
4, 0, Program_c, 0, 19
4, 0, Control_c, 0, 7, 127
4, 1440, Note_on_c, 0, 38, 127
4, 2398, Note_off_c, 0, 38, 64
4, 9120, Note_on_c, 0, 38, 127
4, 9838, Note_off_c, 0, 38, 64
4, 10560, Note_on_c, 0, 38, 127
4, 10798, Note_off_c, 0, 38, 64
4, 15000, Note_on_c, 0, 50, 127
4, 15118, Note_off_c, 0, 50, 64
4, 15120, Note_on_c, 0, 48, 127
4, 15238, Note_off_c, 0, 48, 64
4, 15240, Note_on_c, 0, 46, 127
4, 15358, Note_off_c, 0, 46, 64
4, 15360, Note_on_c, 0, 45, 127
4, 15478, Note_off_c, 0, 45, 64
4, 15960, Note_on_c, 0, 50, 127
4, 16078, Note_off_c, 0, 50, 64
4, 16080, Note_on_c, 0, 48, 127
4, 16198, Note_off_c, 0, 48, 64
4, 16200, Note_on_c, 0, 46, 127
4, 16318, Note_off_c, 0, 46, 64
4, 16320, Note_on_c, 0, 45, 127
4, 16558, Note_off_c, 0, 45, 64
4, 17640, Note_on_c, 0, 50, 127
4, 17758, Note_off_c, 0, 50, 64
4, 17760, Note_on_c, 0, 48, 127
4, 17878, Note_off_c, 0, 48, 64
4, 17880, Note_on_c, 0, 46, 127
4, 17998, Note_off_c, 0, 46, 64
4, 18000, Note_on_c, 0, 45, 127
4, 18118, Note_off_c, 0, 45, 64
4, 18600, Note_on_c, 0, 50, 127
4, 18718, Note_off_c, 0, 50, 64
4, 18720, Note_on_c, 0, 48, 127
4, 18838, Note_off_c, 0, 48, 64
4, 18840, Note_on_c, 0, 46, 127
4, 18958, Note_off_c, 0, 46, 64
4, 18960, Note_on_c, 0, 45, 127
4, 19078, Note_off_c, 0, 45, 64
4, 19080, Note_on_c, 0, 44, 127
4, 19198, Note_off_c, 0, 44, 64
4, 19200, Note_on_c, 0, 43, 127
4, 19318, Note_off_c, 0, 43, 64
4, 20160, Note_on_c, 0, 55, 127
4, 20638, Note_off_c, 0, 55, 64
4, 25440, Note_on_c, 0, 55, 127
4, 25678, Note_off_c, 0, 55, 64
4, 25680, Note_on_c, 0, 53, 127
4, 25918, Note_off_c, 0, 53, 64
4, 25920, Note_on_c, 0, 58, 127
4, 26278, Note_off_c, 0, 58, 64
4, 26280, Note_on_c, 0, 57, 127
4, 26338, Note_off_c, 0, 57, 64
4, 26340, Note_on_c, 0, 55, 127
4, 26398, Note_off_c, 0, 55, 64
4, 26400, Note_on_c, 0, 57, 127
4, 26578, Note_off_c, 0, 57, 64
4, 26580, Note_on_c, 0, 52, 127
4, 26638, Note_off_c, 0, 52, 64
4, 26640, Note_on_c, 0, 53, 127
4, 26698, Note_off_c, 0, 53, 64
4, 26700, Note_on_c, 0, 50, 127
4, 26758, Note_off_c, 0, 50, 64
4, 26760, Note_on_c, 0, 52, 127
4, 26818, Note_off_c, 0, 52, 64
4, 26820, Note_on_c, 0, 49, 127
4, 26878, Note_off_c, 0, 49, 64
4, 26880, Note_on_c, 0, 50, 127
4, 26938, Note_off_c, 0, 50, 64
4, 26940, Note_on_c, 0, 47, 127
4, 26998, Note_off_c, 0, 47, 64
4, 27000, Note_on_c, 0, 49, 127
4, 27058, Note_off_c, 0, 49, 64
4, 27060, Note_on_c, 0, 45, 127
4, 27118, Note_off_c, 0, 45, 64
4, 27120, Note_on_c, 0, 46, 127
4, 27178, Note_off_c, 0, 46, 64
4, 27180, Note_on_c, 0, 44, 127
4, 27238, Note_off_c, 0, 44, 64
4, 27240, Note_on_c, 0, 45, 127
4, 27298, Note_off_c, 0, 45, 64
4, 27300, Note_on_c, 0, 55, 127
4, 27358, Note_off_c, 0, 55, 64
4, 27360, Note_on_c, 0, 53, 127
4, 27478, Note_off_c, 0, 53, 64
4, 27480, Note_on_c, 0, 50, 127
4, 27598, Note_off_c, 0, 50, 64
4, 27600, Note_on_c, 0, 45, 127
4, 27838, Note_off_c, 0, 45, 64
4, 27840, Note_on_c, 0, 38, 127
4, 28318, Note_off_c, 0, 38, 64
4, 28318, End_track
5, 0, Start_track
5, 0, Title_t, "***************"
5, 0, Program_c, 0, 19
5, 0, Control_c, 0, 7, 127
5, 9840, Note_on_c, 0, 70, 127
5, 9868, Note_off_c, 0, 70, 64
5, 9870, Note_on_c, 0, 69, 127
5, 9898, Note_off_c, 0, 69, 64
5, 9900, Note_on_c, 0, 67, 127
5, 9928, Note_off_c, 0, 67, 64
5, 9930, Note_on_c, 0, 65, 127
5, 9958, Note_off_c, 0, 65, 64
5, 9960, Note_on_c, 0, 64, 127
5, 9988, Note_off_c, 0, 64, 64
5, 9990, Note_on_c, 0, 62, 127
5, 10018, Note_off_c, 0, 62, 64
5, 10020, Note_on_c, 0, 61, 127
5, 10048, Note_off_c, 0, 61, 64
5, 10050, Note_on_c, 0, 59, 127
5, 10078, Note_off_c, 0, 59, 64
5, 10080, Note_on_c, 0, 61, 127
5, 10138, Note_off_c, 0, 61, 64
5, 10140, Note_on_c, 0, 57, 127
5, 10198, Note_off_c, 0, 57, 64
5, 10200, Note_on_c, 0, 61, 127
5, 10258, Note_off_c, 0, 61, 64
5, 10260, Note_on_c, 0, 64, 127
5, 10288, Note_off_c, 0, 64, 64
5, 10290, Note_on_c, 0, 67, 127
5, 10318, Note_off_c, 0, 67, 64
5, 10320, Note_on_c, 0, 65, 127
5, 10348, Note_off_c, 0, 65, 64
5, 10350, Note_on_c, 0, 67, 127
5, 10378, Note_off_c, 0, 67, 64
5, 10380, Note_on_c, 0, 65, 127
5, 10408, Note_off_c, 0, 65, 64
5, 10410, Note_on_c, 0, 67, 127
5, 10438, Note_off_c, 0, 67, 64
5, 10440, Note_on_c, 0, 65, 127
5, 10468, Note_off_c, 0, 65, 64
5, 10470, Note_on_c, 0, 67, 127
5, 10498, Note_off_c, 0, 67, 64
5, 10500, Note_on_c, 0, 64, 127
5, 10558, Note_off_c, 0, 64, 64
5, 15000, Note_on_c, 0, 62, 127
5, 15058, Note_off_c, 0, 62, 64
5, 15060, Note_on_c, 0, 70, 127
5, 15060, Note_on_c, 0, 65, 127
5, 15118, Note_off_c, 0, 65, 64
5, 15118, Note_off_c, 0, 70, 64
5, 15120, Note_on_c, 0, 57, 127
5, 15178, Note_off_c, 0, 57, 64
5, 15180, Note_on_c, 0, 69, 127
5, 15180, Note_on_c, 0, 64, 127
5, 15238, Note_off_c, 0, 64, 64
5, 15238, Note_off_c, 0, 69, 64
5, 15240, Note_on_c, 0, 58, 127
5, 15298, Note_off_c, 0, 58, 64
5, 15300, Note_on_c, 0, 67, 127
5, 15300, Note_on_c, 0, 62, 127
5, 15358, Note_off_c, 0, 62, 64
5, 15358, Note_off_c, 0, 67, 64
5, 15360, Note_on_c, 0, 61, 127
5, 15360, Note_on_c, 0, 69, 127
5, 15360, Note_on_c, 0, 64, 127
5, 15478, Note_off_c, 0, 64, 64
5, 15478, Note_off_c, 0, 69, 64
5, 15478, Note_off_c, 0, 61, 64
5, 15960, Note_on_c, 0, 62, 127
5, 16018, Note_off_c, 0, 62, 64
5, 16020, Note_on_c, 0, 70, 127
5, 16020, Note_on_c, 0, 65, 127
5, 16078, Note_off_c, 0, 65, 64
5, 16078, Note_off_c, 0, 70, 64
5, 16080, Note_on_c, 0, 57, 127
5, 16138, Note_off_c, 0, 57, 64
5, 16140, Note_on_c, 0, 69, 127
5, 16140, Note_on_c, 0, 64, 127
5, 16198, Note_off_c, 0, 64, 64
5, 16198, Note_off_c, 0, 69, 64
5, 16200, Note_on_c, 0, 58, 127
5, 16258, Note_off_c, 0, 58, 64
5, 16260, Note_on_c, 0, 67, 127
5, 16260, Note_on_c, 0, 62, 127
5, 16318, Note_off_c, 0, 62, 64
5, 16318, Note_off_c, 0, 67, 64
5, 16320, Note_on_c, 0, 61, 127
5, 16320, Note_on_c, 0, 52, 127
5, 16320, Note_on_c, 0, 69, 127
5, 16320, Note_on_c, 0, 64, 127
5, 16558, Note_off_c, 0, 64, 64
5, 16558, Note_off_c, 0, 69, 64
5, 16558, Note_off_c, 0, 52, 64
5, 16558, Note_off_c, 0, 61, 64
5, 17640, Note_on_c, 0, 74, 127
5, 17698, Note_off_c, 0, 74, 64
5, 17700, Note_on_c, 0, 82, 127
5, 17700, Note_on_c, 0, 77, 127
5, 17758, Note_off_c, 0, 77, 64
5, 17758, Note_off_c, 0, 82, 64
5, 17760, Note_on_c, 0, 69, 127
5, 17818, Note_off_c, 0, 69, 64
5, 17820, Note_on_c, 0, 74, 127
5, 17820, Note_on_c, 0, 81, 127
5, 17878, Note_off_c, 0, 81, 64
5, 17878, Note_off_c, 0, 74, 64
5, 17880, Note_on_c, 0, 70, 127
5, 17938, Note_off_c, 0, 70, 64
5, 17940, Note_on_c, 0, 79, 127
5, 17940, Note_on_c, 0, 74, 127
5, 17998, Note_off_c, 0, 74, 64
5, 17998, Note_off_c, 0, 79, 64
5, 18000, Note_on_c, 0, 64, 127
5, 18000, Note_on_c, 0, 73, 127
5, 18000, Note_on_c, 0, 81, 127
5, 18000, Note_on_c, 0, 76, 127
5, 18058, Note_off_c, 0, 76, 64
5, 18058, Note_off_c, 0, 81, 64
5, 18058, Note_off_c, 0, 73, 64
5, 18058, Note_off_c, 0, 64, 64
5, 18600, Note_on_c, 0, 74, 127
5, 18658, Note_off_c, 0, 74, 64
5, 18660, Note_on_c, 0, 82, 127
5, 18660, Note_on_c, 0, 77, 127
5, 18718, Note_off_c, 0, 77, 64
5, 18718, Note_off_c, 0, 82, 64
5, 18720, Note_on_c, 0, 69, 127
5, 18778, Note_off_c, 0, 69, 64
5, 18778, Note_on_c, 0, 81, 127
5, 18780, Note_on_c, 0, 76, 127
5, 18836, Note_off_c, 0, 81, 64
5, 18838, Note_off_c, 0, 76, 64
5, 18840, Note_on_c, 0, 70, 127
5, 18898, Note_off_c, 0, 70, 64
5, 18900, Note_on_c, 0, 79, 127
5, 18900, Note_on_c, 0, 74, 127
5, 18958, Note_off_c, 0, 74, 64
5, 18958, Note_off_c, 0, 79, 64
5, 18962, Note_on_c, 0, 64, 127
5, 18964, Note_on_c, 0, 69, 127
5, 18966, Note_on_c, 0, 73, 127
5, 18968, Note_on_c, 0, 76, 127
5, 18970, Note_on_c, 0, 81, 127
5, 19080, Note_off_c, 0, 64, 64
5, 19080, Note_on_c, 0, 65, 127
5, 19080, Note_on_c, 0, 59, 127
5, 19080, Note_on_c, 0, 74, 127
5, 19080, Note_on_c, 0, 71, 127
5, 19082, Note_off_c, 0, 69, 64
5, 19084, Note_off_c, 0, 73, 64
5, 19086, Note_off_c, 0, 76, 64
5, 19088, Note_off_c, 0, 81, 64
5, 19198, Note_off_c, 0, 71, 64
5, 19198, Note_off_c, 0, 74, 64
5, 19198, Note_off_c, 0, 59, 64
5, 19198, Note_off_c, 0, 65, 64
5, 19200, Note_on_c, 0, 73, 127
5, 19200, Note_on_c, 0, 57, 127
5, 19200, Note_on_c, 0, 69, 127
5, 19200, Note_on_c, 0, 64, 127
5, 19378, Note_off_c, 0, 73, 64
5, 19380, Note_on_c, 0, 71, 127
5, 19438, Note_off_c, 0, 71, 64
5, 19438, Note_off_c, 0, 64, 64
5, 19438, Note_off_c, 0, 69, 64
5, 19438, Note_off_c, 0, 57, 64
5, 19440, Note_on_c, 0, 69, 127
5, 19498, Note_off_c, 0, 69, 64
5, 19500, Note_on_c, 0, 73, 127
5, 19558, Note_off_c, 0, 73, 64
5, 19560, Note_on_c, 0, 76, 127
5, 19588, Note_off_c, 0, 76, 64
5, 19590, Note_on_c, 0, 79, 127
5, 19618, Note_off_c, 0, 79, 64
5, 19620, Note_on_c, 0, 82, 127
5, 19678, Note_off_c, 0, 82, 64
5, 19680, Note_on_c, 0, 81, 127
5, 19708, Note_off_c, 0, 81, 64
5, 19710, Note_on_c, 0, 79, 127
5, 19738, Note_off_c, 0, 79, 64
5, 19740, Note_on_c, 0, 77, 127
5, 19768, Note_off_c, 0, 77, 64
5, 19770, Note_on_c, 0, 76, 127
5, 19798, Note_off_c, 0, 76, 64
5, 19800, Note_on_c, 0, 77, 127
5, 19828, Note_off_c, 0, 77, 64
5, 19830, Note_on_c, 0, 76, 127
5, 19858, Note_off_c, 0, 76, 64
5, 19860, Note_on_c, 0, 74, 127
5, 19888, Note_off_c, 0, 74, 64
5, 19890, Note_on_c, 0, 73, 127
5, 19918, Note_off_c, 0, 73, 64
5, 19920, Note_on_c, 0, 74, 127
5, 19948, Note_off_c, 0, 74, 64
5, 19950, Note_on_c, 0, 72, 127
5, 19978, Note_off_c, 0, 72, 64
5, 19980, Note_on_c, 0, 70, 127
5, 20008, Note_off_c, 0, 70, 64
5, 20010, Note_on_c, 0, 69, 127
5, 20038, Note_off_c, 0, 69, 64
5, 20040, Note_on_c, 0, 67, 127
5, 20068, Note_off_c, 0, 67, 64
5, 20070, Note_on_c, 0, 65, 127
5, 20098, Note_off_c, 0, 65, 64
5, 20100, Note_on_c, 0, 64, 127
5, 20128, Note_off_c, 0, 64, 64
5, 20130, Note_on_c, 0, 62, 127
5, 20158, Note_off_c, 0, 62, 64
5, 27300, Note_on_c, 0, 73, 127
5, 27300, Note_on_c, 0, 57, 127
5, 27300, Note_on_c, 0, 69, 127
5, 27300, Note_on_c, 0, 64, 127
5, 27358, Note_off_c, 0, 64, 64
5, 27358, Note_off_c, 0, 69, 64
5, 27358, Note_off_c, 0, 57, 64
5, 27358, Note_off_c, 0, 73, 64
5, 27360, Note_on_c, 0, 74, 127
5, 27360, Note_on_c, 0, 57, 127
5, 27360, Note_on_c, 0, 69, 127
5, 27360, Note_on_c, 0, 65, 127
5, 27360, Note_on_c, 0, 62, 127
5, 27478, Note_off_c, 0, 62, 64
5, 27478, Note_off_c, 0, 65, 64
5, 27478, Note_off_c, 0, 69, 64
5, 27478, Note_off_c, 0, 57, 64
5, 27478, Note_off_c, 0, 74, 64
5, 27480, Note_on_c, 0, 65, 127
5, 27480, Note_on_c, 0, 62, 127
5, 27480, Note_on_c, 0, 57, 127
5, 27538, Note_off_c, 0, 57, 64
5, 27598, Note_off_c, 0, 65, 64
5, 27600, Note_on_c, 0, 64, 127
5, 27718, Note_off_c, 0, 62, 64
5, 27720, Note_on_c, 0, 61, 127
5, 27780, Note_on_c, 0, 55, 127
5, 27838, Note_off_c, 0, 55, 64
5, 27838, Note_off_c, 0, 61, 64
5, 27838, Note_off_c, 0, 64, 64
5, 27840, Note_on_c, 0, 55, 127
5, 27840, Note_on_c, 0, 62, 127
5, 27840, Note_on_c, 0, 57, 127
5, 27840, Note_on_c, 0, 50, 127
5, 27958, Note_off_c, 0, 55, 64
5, 27960, Note_on_c, 0, 53, 127
5, 28018, Note_off_c, 0, 53, 64
5, 28020, Note_on_c, 0, 52, 127
5, 28078, Note_off_c, 0, 52, 64
5, 28080, Note_on_c, 0, 53, 127
5, 28318, Note_off_c, 0, 53, 64
5, 28318, Note_off_c, 0, 50, 64
5, 28318, Note_off_c, 0, 57, 64
5, 28318, Note_off_c, 0, 62, 64
5, 28318, End_track
6, 0, Start_track
6, 0, Title_t, "Entered by:"
6, 0, Program_c, 0, 19
6, 0, Control_c, 0, 7, 127
6, 14520, Note_on_c, 0, 62, 127
6, 14548, Note_off_c, 0, 62, 64
6, 14550, Note_on_c, 0, 65, 127
6, 14578, Note_off_c, 0, 65, 64
6, 14580, Note_on_c, 0, 70, 127
6, 14608, Note_off_c, 0, 70, 64
6, 14610, Note_on_c, 0, 65, 127
6, 14638, Note_off_c, 0, 65, 64
6, 14640, Note_on_c, 0, 60, 127
6, 14668, Note_off_c, 0, 60, 64
6, 14670, Note_on_c, 0, 64, 127
6, 14698, Note_off_c, 0, 64, 64
6, 14700, Note_on_c, 0, 69, 127
6, 14728, Note_off_c, 0, 69, 64
6, 14730, Note_on_c, 0, 64, 127
6, 14758, Note_off_c, 0, 64, 64
6, 14760, Note_on_c, 0, 58, 127
6, 14788, Note_off_c, 0, 58, 64
6, 14790, Note_on_c, 0, 62, 127
6, 14818, Note_off_c, 0, 62, 64
6, 14820, Note_on_c, 0, 67, 127
6, 14848, Note_off_c, 0, 67, 64
6, 14850, Note_on_c, 0, 62, 127
6, 14878, Note_off_c, 0, 62, 64
6, 14880, Note_on_c, 0, 57, 127
6, 14908, Note_off_c, 0, 57, 64
6, 14910, Note_on_c, 0, 61, 127
6, 14938, Note_off_c, 0, 61, 64
6, 14940, Note_on_c, 0, 64, 127
6, 14968, Note_off_c, 0, 64, 64
6, 14970, Note_on_c, 0, 69, 127
6, 14998, Note_off_c, 0, 69, 64
6, 15480, Note_on_c, 0, 62, 127
6, 15508, Note_off_c, 0, 62, 64
6, 15510, Note_on_c, 0, 65, 127
6, 15538, Note_off_c, 0, 65, 64
6, 15540, Note_on_c, 0, 70, 127
6, 15568, Note_off_c, 0, 70, 64
6, 15570, Note_on_c, 0, 65, 127
6, 15598, Note_off_c, 0, 65, 64
6, 15600, Note_on_c, 0, 60, 127
6, 15628, Note_off_c, 0, 60, 64
6, 15630, Note_on_c, 0, 64, 127
6, 15658, Note_off_c, 0, 64, 64
6, 15660, Note_on_c, 0, 69, 127
6, 15688, Note_off_c, 0, 69, 64
6, 15690, Note_on_c, 0, 64, 127
6, 15718, Note_off_c, 0, 64, 64
6, 15720, Note_on_c, 0, 58, 127
6, 15748, Note_off_c, 0, 58, 64
6, 15750, Note_on_c, 0, 62, 127
6, 15778, Note_off_c, 0, 62, 64
6, 15780, Note_on_c, 0, 67, 127
6, 15808, Note_off_c, 0, 67, 64
6, 15810, Note_on_c, 0, 62, 127
6, 15838, Note_off_c, 0, 62, 64
6, 15840, Note_on_c, 0, 57, 127
6, 15868, Note_off_c, 0, 57, 64
6, 15870, Note_on_c, 0, 61, 127
6, 15898, Note_off_c, 0, 61, 64
6, 15900, Note_on_c, 0, 64, 127
6, 15928, Note_off_c, 0, 64, 64
6, 15930, Note_on_c, 0, 69, 127
6, 15958, Note_off_c, 0, 69, 64
6, 18120, Note_on_c, 0, 74, 127
6, 18148, Note_off_c, 0, 74, 64
6, 18150, Note_on_c, 0, 77, 127
6, 18178, Note_off_c, 0, 77, 64
6, 18180, Note_on_c, 0, 82, 127
6, 18208, Note_off_c, 0, 82, 64
6, 18210, Note_on_c, 0, 77, 127
6, 18238, Note_off_c, 0, 77, 64
6, 18240, Note_on_c, 0, 72, 127
6, 18268, Note_off_c, 0, 72, 64
6, 18270, Note_on_c, 0, 76, 127
6, 18298, Note_off_c, 0, 76, 64
6, 18300, Note_on_c, 0, 81, 127
6, 18328, Note_off_c, 0, 81, 64
6, 18330, Note_on_c, 0, 76, 127
6, 18358, Note_off_c, 0, 76, 64
6, 18360, Note_on_c, 0, 70, 127
6, 18388, Note_off_c, 0, 70, 64
6, 18390, Note_on_c, 0, 74, 127
6, 18418, Note_off_c, 0, 74, 64
6, 18420, Note_on_c, 0, 79, 127
6, 18448, Note_off_c, 0, 79, 64
6, 18450, Note_on_c, 0, 74, 127
6, 18478, Note_off_c, 0, 74, 64
6, 18480, Note_on_c, 0, 69, 127
6, 18508, Note_off_c, 0, 69, 64
6, 18510, Note_on_c, 0, 73, 127
6, 18538, Note_off_c, 0, 73, 64
6, 18540, Note_on_c, 0, 76, 127
6, 18568, Note_off_c, 0, 76, 64
6, 18570, Note_on_c, 0, 81, 127
6, 18598, Note_off_c, 0, 81, 64
6, 18598, End_track
7, 0, Start_track
7, 0, Title_t, "Kenneth T."
7, 0, Program_c, 0, 19
7, 0, Control_c, 0, 7, 127
7, 28380, Note_on_c, 0, 69, 127
7, 28438, Note_off_c, 0, 69, 64
7, 28440, Note_on_c, 0, 67, 127
7, 28498, Note_off_c, 0, 67, 64
7, 28500, Note_on_c, 0, 69, 127
7, 28558, Note_off_c, 0, 69, 64
7, 28560, Note_on_c, 0, 65, 127
7, 28618, Note_off_c, 0, 65, 64
7, 28620, Note_on_c, 0, 69, 127
7, 28678, Note_off_c, 0, 69, 64
7, 28680, Note_on_c, 0, 64, 127
7, 28738, Note_off_c, 0, 64, 64
7, 28740, Note_on_c, 0, 69, 127
7, 28798, Note_off_c, 0, 69, 64
7, 28800, Note_on_c, 0, 62, 127
7, 28858, Note_off_c, 0, 62, 64
7, 28860, Note_on_c, 0, 69, 127
7, 28918, Note_off_c, 0, 69, 64
7, 28920, Note_on_c, 0, 61, 127
7, 28978, Note_off_c, 0, 61, 64
7, 28980, Note_on_c, 0, 69, 127
7, 29038, Note_off_c, 0, 69, 64
7, 29040, Note_on_c, 0, 62, 127
7, 29098, Note_off_c, 0, 62, 64
7, 29100, Note_on_c, 0, 69, 127
7, 29158, Note_off_c, 0, 69, 64
7, 29160, Note_on_c, 0, 64, 127
7, 29218, Note_off_c, 0, 64, 64
7, 29220, Note_on_c, 0, 69, 127
7, 29278, Note_off_c, 0, 69, 64
7, 29280, Note_on_c, 0, 65, 127
7, 29338, Note_off_c, 0, 65, 64
7, 29340, Note_on_c, 0, 69, 127
7, 29398, Note_off_c, 0, 69, 64
7, 29400, Note_on_c, 0, 57, 127
7, 29458, Note_off_c, 0, 57, 64
7, 29460, Note_on_c, 0, 69, 127
7, 29518, Note_off_c, 0, 69, 64
7, 29520, Note_on_c, 0, 59, 127
7, 29578, Note_off_c, 0, 59, 64
7, 29580, Note_on_c, 0, 69, 127
7, 29638, Note_off_c, 0, 69, 64
7, 29640, Note_on_c, 0, 61, 127
7, 29698, Note_off_c, 0, 61, 64
7, 29700, Note_on_c, 0, 69, 127
7, 29758, Note_off_c, 0, 69, 64
7, 29760, Note_on_c, 0, 62, 127
7, 29818, Note_off_c, 0, 62, 64
7, 29820, Note_on_c, 0, 69, 127
7, 29878, Note_off_c, 0, 69, 64
7, 29880, Note_on_c, 0, 61, 127
7, 29938, Note_off_c, 0, 61, 64
7, 29940, Note_on_c, 0, 69, 127
7, 29998, Note_off_c, 0, 69, 64
7, 30000, Note_on_c, 0, 62, 127
7, 30058, Note_off_c, 0, 62, 64
7, 30060, Note_on_c, 0, 69, 127
7, 30118, Note_off_c, 0, 69, 64
7, 30120, Note_on_c, 0, 64, 127
7, 30178, Note_off_c, 0, 64, 64
7, 30180, Note_on_c, 0, 69, 127
7, 30238, Note_off_c, 0, 69, 64
7, 30240, Note_on_c, 0, 65, 127
7, 30358, Note_off_c, 0, 65, 64
7, 30360, Note_on_c, 0, 66, 127
7, 30478, Note_off_c, 0, 66, 64
7, 30480, Note_on_c, 0, 67, 127
7, 30598, Note_off_c, 0, 67, 64
7, 30600, Note_on_c, 0, 60, 127
7, 30718, Note_off_c, 0, 60, 64
7, 30720, Note_on_c, 0, 58, 127
7, 30838, Note_off_c, 0, 58, 64
7, 30840, Note_on_c, 0, 57, 127
7, 30958, Note_off_c, 0, 57, 64
7, 30960, Note_on_c, 0, 58, 127
7, 31078, Note_off_c, 0, 58, 64
7, 31080, Note_on_c, 0, 60, 127
7, 31198, Note_off_c, 0, 60, 64
7, 31200, Note_on_c, 0, 62, 127
7, 31318, Note_off_c, 0, 62, 64
7, 31320, Note_on_c, 0, 54, 127
7, 31438, Note_off_c, 0, 54, 64
7, 31440, Note_on_c, 0, 55, 127
7, 31558, Note_off_c, 0, 55, 64
7, 31560, Note_on_c, 0, 57, 127
7, 31678, Note_off_c, 0, 57, 64
7, 31680, Note_on_c, 0, 58, 127
7, 31798, Note_off_c, 0, 58, 64
7, 31800, Note_on_c, 0, 57, 127
7, 31918, Note_off_c, 0, 57, 64
7, 31920, Note_on_c, 0, 58, 127
7, 32038, Note_off_c, 0, 58, 64
7, 32040, Note_on_c, 0, 54, 127
7, 32158, Note_off_c, 0, 54, 64
7, 32160, Note_on_c, 0, 55, 127
7, 32218, Note_off_c, 0, 55, 64
7, 32220, Note_on_c, 0, 67, 127
7, 32278, Note_off_c, 0, 67, 64
7, 32280, Note_on_c, 0, 55, 127
7, 32338, Note_off_c, 0, 55, 64
7, 32340, Note_on_c, 0, 67, 127
7, 32398, Note_off_c, 0, 67, 64
7, 32400, Note_on_c, 0, 62, 127
7, 32458, Note_off_c, 0, 62, 64
7, 32460, Note_on_c, 0, 67, 127
7, 32518, Note_off_c, 0, 67, 64
7, 32520, Note_on_c, 0, 62, 127
7, 32578, Note_off_c, 0, 62, 64
7, 32580, Note_on_c, 0, 67, 127
7, 32638, Note_off_c, 0, 67, 64
7, 32640, Note_on_c, 0, 60, 127
7, 32698, Note_off_c, 0, 60, 64
7, 32700, Note_on_c, 0, 63, 127
7, 32758, Note_off_c, 0, 63, 64
7, 32760, Note_on_c, 0, 60, 127
7, 32818, Note_off_c, 0, 60, 64
7, 32820, Note_on_c, 0, 63, 127
7, 32878, Note_off_c, 0, 63, 64
7, 32880, Note_on_c, 0, 60, 127
7, 32938, Note_off_c, 0, 60, 64
7, 32940, Note_on_c, 0, 63, 127
7, 32998, Note_off_c, 0, 63, 64
7, 33000, Note_on_c, 0, 60, 127
7, 33058, Note_off_c, 0, 60, 64
7, 33060, Note_on_c, 0, 63, 127
7, 33118, Note_off_c, 0, 63, 64
7, 33120, Note_on_c, 0, 60, 127
7, 33178, Note_off_c, 0, 60, 64
7, 33180, Note_on_c, 0, 65, 127
7, 33238, Note_off_c, 0, 65, 64
7, 33240, Note_on_c, 0, 60, 127
7, 33298, Note_off_c, 0, 60, 64
7, 33300, Note_on_c, 0, 65, 127
7, 33358, Note_off_c, 0, 65, 64
7, 33360, Note_on_c, 0, 60, 127
7, 33418, Note_off_c, 0, 60, 64
7, 33420, Note_on_c, 0, 65, 127
7, 33478, Note_off_c, 0, 65, 64
7, 33480, Note_on_c, 0, 60, 127
7, 33538, Note_off_c, 0, 60, 64
7, 33540, Note_on_c, 0, 65, 127
7, 33598, Note_off_c, 0, 65, 64
7, 33600, Note_on_c, 0, 58, 127
7, 33658, Note_off_c, 0, 58, 64
7, 33660, Note_on_c, 0, 62, 127
7, 33718, Note_off_c, 0, 62, 64
7, 33720, Note_on_c, 0, 58, 127
7, 33778, Note_off_c, 0, 58, 64
7, 33780, Note_on_c, 0, 62, 127
7, 33838, Note_off_c, 0, 62, 64
7, 33840, Note_on_c, 0, 58, 127
7, 33898, Note_off_c, 0, 58, 64
7, 33900, Note_on_c, 0, 62, 127
7, 33958, Note_off_c, 0, 62, 64
7, 33960, Note_on_c, 0, 58, 127
7, 34018, Note_off_c, 0, 58, 64
7, 34020, Note_on_c, 0, 62, 127
7, 34078, Note_off_c, 0, 62, 64
7, 34080, Note_on_c, 0, 58, 127
7, 34138, Note_off_c, 0, 58, 64
7, 34140, Note_on_c, 0, 64, 127
7, 34198, Note_off_c, 0, 64, 64
7, 34200, Note_on_c, 0, 58, 127
7, 34258, Note_off_c, 0, 58, 64
7, 34260, Note_on_c, 0, 64, 127
7, 34318, Note_off_c, 0, 64, 64
7, 34320, Note_on_c, 0, 58, 127
7, 34378, Note_off_c, 0, 58, 64
7, 34380, Note_on_c, 0, 64, 127
7, 34438, Note_off_c, 0, 64, 64
7, 34440, Note_on_c, 0, 58, 127
7, 34498, Note_off_c, 0, 58, 64
7, 34500, Note_on_c, 0, 64, 127
7, 34558, Note_off_c, 0, 64, 64
7, 34560, Note_on_c, 0, 57, 127
7, 34618, Note_off_c, 0, 57, 64
7, 34620, Note_on_c, 0, 61, 127
7, 34678, Note_off_c, 0, 61, 64
7, 34680, Note_on_c, 0, 57, 127
7, 34738, Note_off_c, 0, 57, 64
7, 34740, Note_on_c, 0, 61, 127
7, 34798, Note_off_c, 0, 61, 64
7, 34800, Note_on_c, 0, 57, 127
7, 34858, Note_off_c, 0, 57, 64
7, 34860, Note_on_c, 0, 61, 127
7, 34918, Note_off_c, 0, 61, 64
7, 34920, Note_on_c, 0, 57, 127
7, 34978, Note_off_c, 0, 57, 64
7, 34980, Note_on_c, 0, 61, 127
7, 35038, Note_off_c, 0, 61, 64
7, 35040, Note_on_c, 0, 53, 127
7, 35098, Note_off_c, 0, 53, 64
7, 35100, Note_on_c, 0, 62, 127
7, 35158, Note_off_c, 0, 62, 64
7, 35160, Note_on_c, 0, 53, 127
7, 35218, Note_off_c, 0, 53, 64
7, 35220, Note_on_c, 0, 62, 127
7, 35278, Note_off_c, 0, 62, 64
7, 35280, Note_on_c, 0, 53, 127
7, 35338, Note_off_c, 0, 53, 64
7, 35340, Note_on_c, 0, 62, 127
7, 35398, Note_off_c, 0, 62, 64
7, 35400, Note_on_c, 0, 53, 127
7, 35458, Note_off_c, 0, 53, 64
7, 35460, Note_on_c, 0, 62, 127
7, 35518, Note_off_c, 0, 62, 64
7, 35520, Note_on_c, 0, 52, 127
7, 35578, Note_off_c, 0, 52, 64
7, 35580, Note_on_c, 0, 58, 127
7, 35638, Note_off_c, 0, 58, 64
7, 35640, Note_on_c, 0, 52, 127
7, 35698, Note_off_c, 0, 52, 64
7, 35700, Note_on_c, 0, 58, 127
7, 35758, Note_off_c, 0, 58, 64
7, 35760, Note_on_c, 0, 52, 127
7, 35818, Note_off_c, 0, 52, 64
7, 35820, Note_on_c, 0, 58, 127
7, 35878, Note_off_c, 0, 58, 64
7, 35880, Note_on_c, 0, 52, 127
7, 35938, Note_off_c, 0, 52, 64
7, 35940, Note_on_c, 0, 58, 127
7, 35998, Note_off_c, 0, 58, 64
7, 36000, Note_on_c, 0, 50, 127
7, 36058, Note_off_c, 0, 50, 64
7, 36060, Note_on_c, 0, 57, 127
7, 36118, Note_off_c, 0, 57, 64
7, 36120, Note_on_c, 0, 50, 127
7, 36178, Note_off_c, 0, 50, 64
7, 36180, Note_on_c, 0, 57, 127
7, 36238, Note_off_c, 0, 57, 64
7, 36240, Note_on_c, 0, 50, 127
7, 36298, Note_off_c, 0, 50, 64
7, 36300, Note_on_c, 0, 57, 127
7, 36358, Note_off_c, 0, 57, 64
7, 36360, Note_on_c, 0, 50, 127
7, 36418, Note_off_c, 0, 50, 64
7, 36420, Note_on_c, 0, 57, 127
7, 36478, Note_off_c, 0, 57, 64
7, 36480, Note_on_c, 0, 52, 127
7, 36538, Note_off_c, 0, 52, 64
7, 36540, Note_on_c, 0, 55, 127
7, 36598, Note_off_c, 0, 55, 64
7, 36600, Note_on_c, 0, 52, 127
7, 36658, Note_off_c, 0, 52, 64
7, 36660, Note_on_c, 0, 55, 127
7, 36718, Note_off_c, 0, 55, 64
7, 36720, Note_on_c, 0, 52, 127
7, 36778, Note_off_c, 0, 52, 64
7, 36780, Note_on_c, 0, 55, 127
7, 36838, Note_off_c, 0, 55, 64
7, 36840, Note_on_c, 0, 52, 127
7, 36898, Note_off_c, 0, 52, 64
7, 36900, Note_on_c, 0, 55, 127
7, 36958, Note_off_c, 0, 55, 64
7, 36960, Note_on_c, 0, 53, 127
7, 36960, Note_on_c, 0, 57, 127
7, 37078, Note_off_c, 0, 57, 64
7, 37078, Note_off_c, 0, 53, 64
7, 37080, Note_on_c, 0, 57, 127
7, 37080, Note_on_c, 0, 52, 127
7, 37198, Note_off_c, 0, 52, 64
7, 37198, Note_off_c, 0, 57, 64
7, 37200, Note_on_c, 0, 57, 127
7, 37200, Note_on_c, 0, 50, 127
7, 37318, Note_off_c, 0, 50, 64
7, 37318, Note_off_c, 0, 57, 64
7, 37320, Note_on_c, 0, 55, 127
7, 37320, Note_on_c, 0, 57, 127
7, 37438, Note_off_c, 0, 57, 64
7, 37438, Note_off_c, 0, 55, 64
7, 37440, Note_on_c, 0, 53, 127
7, 37440, Note_on_c, 0, 57, 127
7, 37558, Note_off_c, 0, 57, 64
7, 37558, Note_off_c, 0, 53, 64
7, 37560, Note_on_c, 0, 52, 127
7, 37560, Note_on_c, 0, 57, 127
7, 37678, Note_off_c, 0, 57, 64
7, 37678, Note_off_c, 0, 52, 64
7, 37680, Note_on_c, 0, 53, 127
7, 37680, Note_on_c, 0, 57, 127
7, 37798, Note_off_c, 0, 57, 64
7, 37798, Note_off_c, 0, 53, 64
7, 37800, Note_on_c, 0, 57, 127
7, 37800, Note_on_c, 0, 49, 127
7, 37918, Note_off_c, 0, 49, 64
7, 37918, Note_off_c, 0, 57, 64
7, 37920, Note_on_c, 0, 57, 127
7, 37920, Note_on_c, 0, 50, 127
7, 38038, Note_off_c, 0, 50, 64
7, 38038, Note_off_c, 0, 57, 64
7, 38040, Note_on_c, 0, 49, 127
7, 38040, Note_on_c, 0, 57, 127
7, 38158, Note_off_c, 0, 57, 64
7, 38158, Note_off_c, 0, 49, 64
7, 38160, Note_on_c, 0, 50, 127
7, 38160, Note_on_c, 0, 57, 127
7, 38278, Note_off_c, 0, 57, 64
7, 38278, Note_off_c, 0, 50, 64
7, 38280, Note_on_c, 0, 57, 127
7, 38280, Note_on_c, 0, 52, 127
7, 38398, Note_off_c, 0, 52, 64
7, 38398, Note_off_c, 0, 57, 64
7, 38400, Note_on_c, 0, 57, 127
7, 38400, Note_on_c, 0, 53, 127
7, 38518, Note_off_c, 0, 53, 64
7, 38518, Note_off_c, 0, 57, 64
7, 38520, Note_on_c, 0, 57, 127
7, 38520, Note_on_c, 0, 52, 127
7, 38638, Note_off_c, 0, 52, 64
7, 38638, Note_off_c, 0, 57, 64
7, 38640, Note_on_c, 0, 57, 127
7, 38640, Note_on_c, 0, 53, 127
7, 38758, Note_off_c, 0, 53, 64
7, 38758, Note_off_c, 0, 57, 64
7, 38760, Note_on_c, 0, 49, 127
7, 38760, Note_on_c, 0, 57, 127
7, 38878, Note_off_c, 0, 57, 64
7, 38878, Note_off_c, 0, 49, 64
7, 38880, Note_on_c, 0, 57, 127
7, 38880, Note_on_c, 0, 50, 127
7, 39118, Note_off_c, 0, 50, 64
7, 39118, Note_off_c, 0, 57, 64
7, 39120, Note_on_c, 0, 62, 127
7, 39120, Note_on_c, 0, 53, 127
7, 39358, Note_off_c, 0, 53, 64
7, 39358, Note_off_c, 0, 62, 64
7, 39360, Note_on_c, 0, 70, 127
7, 39418, Note_off_c, 0, 70, 64
7, 39420, Note_on_c, 0, 81, 127
7, 39478, Note_off_c, 0, 81, 64
7, 39480, Note_on_c, 0, 72, 127
7, 39538, Note_off_c, 0, 72, 64
7, 39540, Note_on_c, 0, 81, 127
7, 39598, Note_off_c, 0, 81, 64
7, 39600, Note_on_c, 0, 74, 127
7, 39658, Note_off_c, 0, 74, 64
7, 39660, Note_on_c, 0, 79, 127
7, 39718, Note_off_c, 0, 79, 64
7, 39720, Note_on_c, 0, 70, 127
7, 39778, Note_off_c, 0, 70, 64
7, 39780, Note_on_c, 0, 79, 127
7, 39838, Note_off_c, 0, 79, 64
7, 39840, Note_on_c, 0, 76, 127
7, 39898, Note_off_c, 0, 76, 64
7, 39900, Note_on_c, 0, 79, 127
7, 39958, Note_off_c, 0, 79, 64
7, 39960, Note_on_c, 0, 74, 127
7, 40018, Note_off_c, 0, 74, 64
7, 40020, Note_on_c, 0, 79, 127
7, 40078, Note_off_c, 0, 79, 64
7, 40080, Note_on_c, 0, 72, 127
7, 40138, Note_off_c, 0, 72, 64
7, 40140, Note_on_c, 0, 79, 127
7, 40198, Note_off_c, 0, 79, 64
7, 40200, Note_on_c, 0, 70, 127
7, 40258, Note_off_c, 0, 70, 64
7, 40260, Note_on_c, 0, 79, 127
7, 40318, Note_off_c, 0, 79, 64
7, 40320, Note_on_c, 0, 69, 127
7, 40378, Note_off_c, 0, 69, 64
7, 40380, Note_on_c, 0, 79, 127
7, 40438, Note_off_c, 0, 79, 64
7, 40440, Note_on_c, 0, 70, 127
7, 40498, Note_off_c, 0, 70, 64
7, 40500, Note_on_c, 0, 79, 127
7, 40558, Note_off_c, 0, 79, 64
7, 40560, Note_on_c, 0, 72, 127
7, 40618, Note_off_c, 0, 72, 64
7, 40620, Note_on_c, 0, 77, 127
7, 40678, Note_off_c, 0, 77, 64
7, 40680, Note_on_c, 0, 69, 127
7, 40738, Note_off_c, 0, 69, 64
7, 40740, Note_on_c, 0, 77, 127
7, 40798, Note_off_c, 0, 77, 64
7, 40800, Note_on_c, 0, 74, 127
7, 40858, Note_off_c, 0, 74, 64
7, 40860, Note_on_c, 0, 77, 127
7, 40918, Note_off_c, 0, 77, 64
7, 40920, Note_on_c, 0, 72, 127
7, 40978, Note_off_c, 0, 72, 64
7, 40980, Note_on_c, 0, 77, 127
7, 41038, Note_off_c, 0, 77, 64
7, 41040, Note_on_c, 0, 70, 127
7, 41098, Note_off_c, 0, 70, 64
7, 41100, Note_on_c, 0, 77, 127
7, 41158, Note_off_c, 0, 77, 64
7, 41160, Note_on_c, 0, 69, 127
7, 41218, Note_off_c, 0, 69, 64
7, 41220, Note_on_c, 0, 77, 127
7, 41278, Note_off_c, 0, 77, 64
7, 41280, Note_on_c, 0, 67, 127
7, 41338, Note_off_c, 0, 67, 64
7, 41340, Note_on_c, 0, 77, 127
7, 41398, Note_off_c, 0, 77, 64
7, 41400, Note_on_c, 0, 69, 127
7, 41458, Note_off_c, 0, 69, 64
7, 41460, Note_on_c, 0, 77, 127
7, 41518, Note_off_c, 0, 77, 64
7, 41520, Note_on_c, 0, 70, 127
7, 41578, Note_off_c, 0, 70, 64
7, 41580, Note_on_c, 0, 76, 127
7, 41638, Note_off_c, 0, 76, 64
7, 41640, Note_on_c, 0, 67, 127
7, 41698, Note_off_c, 0, 67, 64
7, 41700, Note_on_c, 0, 76, 127
7, 41758, Note_off_c, 0, 76, 64
7, 41760, Note_on_c, 0, 73, 127
7, 41818, Note_off_c, 0, 73, 64
7, 41820, Note_on_c, 0, 76, 127
7, 41878, Note_off_c, 0, 76, 64
7, 41880, Note_on_c, 0, 71, 127
7, 41938, Note_off_c, 0, 71, 64
7, 41940, Note_on_c, 0, 76, 127
7, 41998, Note_off_c, 0, 76, 64
7, 42000, Note_on_c, 0, 69, 127
7, 42058, Note_off_c, 0, 69, 64
7, 42060, Note_on_c, 0, 76, 127
7, 42118, Note_off_c, 0, 76, 64
7, 42120, Note_on_c, 0, 67, 127
7, 42178, Note_off_c, 0, 67, 64
7, 42180, Note_on_c, 0, 76, 127
7, 42238, Note_off_c, 0, 76, 64
7, 42240, Note_on_c, 0, 65, 127
7, 42298, Note_off_c, 0, 65, 64
7, 42300, Note_on_c, 0, 76, 127
7, 42358, Note_off_c, 0, 76, 64
7, 42360, Note_on_c, 0, 67, 127
7, 42418, Note_off_c, 0, 67, 64
7, 42420, Note_on_c, 0, 76, 127
7, 42478, Note_off_c, 0, 76, 64
7, 42480, Note_on_c, 0, 69, 127
7, 42538, Note_off_c, 0, 69, 64
7, 42540, Note_on_c, 0, 74, 127
7, 42598, Note_off_c, 0, 74, 64
7, 42600, Note_on_c, 0, 65, 127
7, 42658, Note_off_c, 0, 65, 64
7, 42660, Note_on_c, 0, 74, 127
7, 42718, Note_off_c, 0, 74, 64
7, 42720, Note_on_c, 0, 64, 127
7, 42778, Note_off_c, 0, 64, 64
7, 42780, Note_on_c, 0, 76, 127
7, 42838, Note_off_c, 0, 76, 64
7, 42840, Note_on_c, 0, 64, 127
7, 42898, Note_off_c, 0, 64, 64
7, 42900, Note_on_c, 0, 76, 127
7, 42958, Note_off_c, 0, 76, 64
7, 42960, Note_on_c, 0, 65, 127
7, 43018, Note_off_c, 0, 65, 64
7, 43020, Note_on_c, 0, 74, 127
7, 43078, Note_off_c, 0, 74, 64
7, 43080, Note_on_c, 0, 65, 127
7, 43138, Note_off_c, 0, 65, 64
7, 43140, Note_on_c, 0, 74, 127
7, 43198, Note_off_c, 0, 74, 64
7, 43200, Note_on_c, 0, 70, 127
7, 43258, Note_off_c, 0, 70, 64
7, 43260, Note_on_c, 0, 73, 127
7, 43318, Note_off_c, 0, 73, 64
7, 43320, Note_on_c, 0, 70, 127
7, 43378, Note_off_c, 0, 70, 64
7, 43380, Note_on_c, 0, 73, 127
7, 43438, Note_off_c, 0, 73, 64
7, 43440, Note_on_c, 0, 69, 127
7, 43498, Note_off_c, 0, 69, 64
7, 43500, Note_on_c, 0, 74, 127
7, 43558, Note_off_c, 0, 74, 64
7, 43560, Note_on_c, 0, 65, 127
7, 43618, Note_off_c, 0, 65, 64
7, 43620, Note_on_c, 0, 74, 127
7, 43678, Note_off_c, 0, 74, 64
7, 43680, Note_on_c, 0, 64, 127
7, 43738, Note_off_c, 0, 64, 64
7, 43740, Note_on_c, 0, 76, 127
7, 43798, Note_off_c, 0, 76, 64
7, 43800, Note_on_c, 0, 64, 127
7, 43858, Note_off_c, 0, 64, 64
7, 43860, Note_on_c, 0, 76, 127
7, 43918, Note_off_c, 0, 76, 64
7, 43920, Note_on_c, 0, 65, 127
7, 43978, Note_off_c, 0, 65, 64
7, 43980, Note_on_c, 0, 74, 127
7, 44038, Note_off_c, 0, 74, 64
7, 44040, Note_on_c, 0, 65, 127
7, 44098, Note_off_c, 0, 65, 64
7, 44100, Note_on_c, 0, 74, 127
7, 44158, Note_off_c, 0, 74, 64
7, 44220, Note_on_c, 0, 74, 127
7, 44278, Note_off_c, 0, 74, 64
7, 44280, Note_on_c, 0, 73, 127
7, 44338, Note_off_c, 0, 73, 64
7, 44340, Note_on_c, 0, 74, 127
7, 44398, Note_off_c, 0, 74, 64
7, 44400, Note_on_c, 0, 71, 127
7, 44458, Note_off_c, 0, 71, 64
7, 44460, Note_on_c, 0, 74, 127
7, 44518, Note_off_c, 0, 74, 64
7, 44520, Note_on_c, 0, 73, 127
7, 44578, Note_off_c, 0, 73, 64
7, 44580, Note_on_c, 0, 71, 127
7, 44638, Note_off_c, 0, 71, 64
7, 44640, Note_on_c, 0, 73, 127
7, 44700, Note_on_c, 0, 69, 127
7, 44758, Note_off_c, 0, 69, 64
7, 44760, Note_on_c, 0, 67, 127
7, 44818, Note_off_c, 0, 67, 64
7, 44820, Note_on_c, 0, 69, 127
7, 44878, Note_off_c, 0, 69, 64
7, 44878, Note_off_c, 0, 73, 64
7, 44880, Note_on_c, 0, 64, 127
7, 44938, Note_off_c, 0, 64, 64
7, 44940, Note_on_c, 0, 67, 127
7, 44998, Note_off_c, 0, 67, 64
7, 45000, Note_on_c, 0, 65, 127
7, 45058, Note_off_c, 0, 65, 64
7, 45060, Note_on_c, 0, 64, 127
7, 45118, Note_off_c, 0, 64, 64
7, 45180, Note_on_c, 0, 74, 127
7, 45238, Note_off_c, 0, 74, 64
7, 45240, Note_on_c, 0, 73, 127
7, 45298, Note_off_c, 0, 73, 64
7, 45300, Note_on_c, 0, 74, 127
7, 45358, Note_off_c, 0, 74, 64
7, 45360, Note_on_c, 0, 77, 127
7, 45418, Note_off_c, 0, 77, 64
7, 45420, Note_on_c, 0, 74, 127
7, 45478, Note_off_c, 0, 74, 64
7, 45480, Note_on_c, 0, 73, 127
7, 45538, Note_off_c, 0, 73, 64
7, 45540, Note_on_c, 0, 71, 127
7, 45598, Note_off_c, 0, 71, 64
7, 45600, Note_on_c, 0, 73, 127
7, 45838, Note_off_c, 0, 73, 64
7, 45840, Note_on_c, 0, 76, 127
7, 46080, Note_on_c, 0, 65, 127
7, 46198, Note_off_c, 0, 76, 64
7, 46200, Note_on_c, 0, 74, 127
7, 46318, Note_off_c, 0, 65, 64
7, 46320, Note_on_c, 0, 64, 127
7, 46438, Note_off_c, 0, 74, 64
7, 46440, Note_on_c, 0, 73, 127
7, 46558, Note_off_c, 0, 73, 64
7, 46558, Note_off_c, 0, 64, 64
7, 46560, Note_on_c, 0, 62, 127
7, 46560, Note_on_c, 0, 72, 127
7, 46678, Note_off_c, 0, 62, 64
7, 46680, Note_on_c, 0, 69, 127
7, 46798, Note_off_c, 0, 72, 64
7, 46800, Note_on_c, 0, 70, 127
7, 46918, Note_off_c, 0, 69, 64
7, 46920, Note_on_c, 0, 67, 127
7, 47038, Note_off_c, 0, 70, 64
7, 47040, Note_on_c, 0, 69, 127
7, 47278, Note_off_c, 0, 69, 64
7, 47278, Note_off_c, 0, 67, 64
7, 47280, Note_on_c, 0, 66, 127
7, 47280, Note_on_c, 0, 69, 127
7, 47518, Note_off_c, 0, 69, 64
7, 47518, Note_off_c, 0, 66, 64
7, 47520, Note_on_c, 0, 65, 127
7, 47520, Note_on_c, 0, 67, 127
7, 47758, Note_off_c, 0, 67, 64
7, 47758, Note_off_c, 0, 65, 64
7, 47760, Note_on_c, 0, 63, 127
7, 47760, Note_on_c, 0, 67, 127
7, 47998, Note_off_c, 0, 67, 64
7, 48000, Note_on_c, 0, 66, 127
7, 48118, Note_off_c, 0, 66, 64
7, 48118, Note_off_c, 0, 63, 64
7, 48120, Note_on_c, 0, 62, 127
7, 48120, Note_on_c, 0, 69, 127
7, 48238, Note_off_c, 0, 62, 64
7, 48240, Note_on_c, 0, 66, 127
7, 48358, Note_off_c, 0, 66, 64
7, 48358, Note_off_c, 0, 69, 64
7, 48360, Note_on_c, 0, 72, 127
7, 48360, Note_on_c, 0, 75, 127
7, 48478, Note_off_c, 0, 75, 64
7, 48480, Note_on_c, 0, 74, 127
7, 48598, Note_off_c, 0, 72, 64
7, 48600, Note_on_c, 0, 70, 127
7, 48658, Note_off_c, 0, 70, 64
7, 48660, Note_on_c, 0, 69, 127
7, 48718, Note_off_c, 0, 69, 64
7, 48718, Note_off_c, 0, 74, 64
7, 48720, Note_on_c, 0, 70, 127
7, 48838, Note_off_c, 0, 70, 64
7, 48840, Note_on_c, 0, 79, 127
7, 48840, Note_on_c, 0, 70, 127
7, 48958, Note_off_c, 0, 70, 64
7, 48960, Note_on_c, 0, 69, 127
7, 49078, Note_off_c, 0, 79, 64
7, 49080, Note_on_c, 0, 78, 127
7, 49198, Note_off_c, 0, 78, 64
7, 49198, Note_off_c, 0, 69, 64
7, 49200, Note_on_c, 0, 74, 127
7, 49200, Note_on_c, 0, 79, 127
7, 49318, Note_off_c, 0, 74, 64
7, 49320, Note_on_c, 0, 72, 127
7, 49438, Note_off_c, 0, 72, 64
7, 49438, Note_off_c, 0, 79, 64
7, 49440, Note_on_c, 0, 70, 127
7, 49558, Note_off_c, 0, 70, 64
7, 49560, Note_on_c, 0, 74, 127
7, 49560, Note_on_c, 0, 69, 127
7, 49678, Note_off_c, 0, 69, 64
7, 49678, Note_off_c, 0, 74, 64
7, 49680, Note_on_c, 0, 70, 127
7, 49680, Note_on_c, 0, 74, 127
7, 49798, Note_off_c, 0, 74, 64
7, 49798, Note_off_c, 0, 70, 64
7, 49800, Note_on_c, 0, 66, 127
7, 49800, Note_on_c, 0, 74, 127
7, 49918, Note_off_c, 0, 74, 64
7, 49918, Note_off_c, 0, 66, 64
7, 49920, Note_on_c, 0, 67, 127
7, 49920, Note_on_c, 0, 74, 127
7, 50038, Note_off_c, 0, 74, 64
7, 50038, Note_off_c, 0, 67, 64
7, 50040, Note_on_c, 0, 66, 127
7, 50040, Note_on_c, 0, 74, 127
7, 50158, Note_off_c, 0, 74, 64
7, 50158, Note_off_c, 0, 66, 64
7, 50160, Note_on_c, 0, 67, 127
7, 50160, Note_on_c, 0, 74, 127
7, 50278, Note_off_c, 0, 74, 64
7, 50278, Note_off_c, 0, 67, 64
7, 50280, Note_on_c, 0, 69, 127
7, 50280, Note_on_c, 0, 74, 127
7, 50398, Note_off_c, 0, 74, 64
7, 50398, Note_off_c, 0, 69, 64
7, 50400, Note_on_c, 0, 70, 127
7, 50400, Note_on_c, 0, 74, 127
7, 50518, Note_off_c, 0, 74, 64
7, 50518, Note_off_c, 0, 70, 64
7, 50520, Note_on_c, 0, 74, 127
7, 50520, Note_on_c, 0, 69, 127
7, 50638, Note_off_c, 0, 69, 64
7, 50638, Note_off_c, 0, 74, 64
7, 50640, Note_on_c, 0, 70, 127
7, 50640, Note_on_c, 0, 74, 127
7, 50758, Note_off_c, 0, 74, 64
7, 50758, Note_off_c, 0, 70, 64
7, 50760, Note_on_c, 0, 66, 127
7, 50760, Note_on_c, 0, 74, 127
7, 50878, Note_off_c, 0, 74, 64
7, 50878, Note_off_c, 0, 66, 64
7, 50880, Note_on_c, 0, 74, 127
7, 50938, Note_off_c, 0, 74, 64
7, 50940, Note_on_c, 0, 79, 127
7, 50998, Note_off_c, 0, 79, 64
7, 51000, Note_on_c, 0, 77, 127
7, 51058, Note_off_c, 0, 77, 64
7, 51060, Note_on_c, 0, 79, 127
7, 51118, Note_off_c, 0, 79, 64
7, 51120, Note_on_c, 0, 76, 127
7, 51178, Note_off_c, 0, 76, 64
7, 51180, Note_on_c, 0, 77, 127
7, 51238, Note_off_c, 0, 77, 64
7, 51240, Note_on_c, 0, 74, 127
7, 51298, Note_off_c, 0, 74, 64
7, 51300, Note_on_c, 0, 76, 127
7, 51358, Note_off_c, 0, 76, 64
7, 51360, Note_on_c, 0, 72, 127
7, 51418, Note_off_c, 0, 72, 64
7, 51420, Note_on_c, 0, 81, 127
7, 51478, Note_off_c, 0, 81, 64
7, 51480, Note_on_c, 0, 79, 127
7, 51538, Note_off_c, 0, 79, 64
7, 51540, Note_on_c, 0, 81, 127
7, 51598, Note_off_c, 0, 81, 64
7, 51600, Note_on_c, 0, 77, 127
7, 51658, Note_off_c, 0, 77, 64
7, 51660, Note_on_c, 0, 79, 127
7, 51718, Note_off_c, 0, 79, 64
7, 51720, Note_on_c, 0, 76, 127
7, 51778, Note_off_c, 0, 76, 64
7, 51780, Note_on_c, 0, 77, 127
7, 51838, Note_off_c, 0, 77, 64
7, 51840, Note_on_c, 0, 74, 127
7, 51898, Note_off_c, 0, 74, 64
7, 51900, Note_on_c, 0, 82, 127
7, 51958, Note_off_c, 0, 82, 64
7, 51960, Note_on_c, 0, 81, 127
7, 52018, Note_off_c, 0, 81, 64
7, 52020, Note_on_c, 0, 82, 127
7, 52078, Note_off_c, 0, 82, 64
7, 52080, Note_on_c, 0, 79, 127
7, 52138, Note_off_c, 0, 79, 64
7, 52140, Note_on_c, 0, 81, 127
7, 52198, Note_off_c, 0, 81, 64
7, 52200, Note_on_c, 0, 77, 127
7, 52258, Note_off_c, 0, 77, 64
7, 52260, Note_on_c, 0, 79, 127
7, 52318, Note_off_c, 0, 79, 64
7, 52320, Note_on_c, 0, 76, 127
7, 52378, Note_off_c, 0, 76, 64
7, 52380, Note_on_c, 0, 84, 127
7, 52438, Note_off_c, 0, 84, 64
7, 52440, Note_on_c, 0, 82, 127
7, 52498, Note_off_c, 0, 82, 64
7, 52500, Note_on_c, 0, 84, 127
7, 52558, Note_off_c, 0, 84, 64
7, 52560, Note_on_c, 0, 81, 127
7, 52618, Note_off_c, 0, 81, 64
7, 52620, Note_on_c, 0, 82, 127
7, 52678, Note_off_c, 0, 82, 64
7, 52680, Note_on_c, 0, 79, 127
7, 52738, Note_off_c, 0, 79, 64
7, 52740, Note_on_c, 0, 81, 127
7, 52798, Note_off_c, 0, 81, 64
7, 52800, Note_on_c, 0, 77, 127
7, 52858, Note_off_c, 0, 77, 64
7, 52860, Note_on_c, 0, 75, 127
7, 52918, Note_off_c, 0, 75, 64
7, 52920, Note_on_c, 0, 74, 127
7, 52978, Note_off_c, 0, 74, 64
7, 52980, Note_on_c, 0, 72, 127
7, 53038, Note_off_c, 0, 72, 64
7, 53040, Note_on_c, 0, 74, 127
7, 53098, Note_off_c, 0, 74, 64
7, 53100, Note_on_c, 0, 72, 127
7, 53158, Note_off_c, 0, 72, 64
7, 53160, Note_on_c, 0, 70, 127
7, 53218, Note_off_c, 0, 70, 64
7, 53220, Note_on_c, 0, 69, 127
7, 53278, Note_off_c, 0, 69, 64
7, 53280, Note_on_c, 0, 70, 127
7, 53338, Note_off_c, 0, 70, 64
7, 53340, Note_on_c, 0, 74, 127
7, 53398, Note_off_c, 0, 74, 64
7, 53400, Note_on_c, 0, 70, 127
7, 53458, Note_off_c, 0, 70, 64
7, 53460, Note_on_c, 0, 69, 127
7, 53518, Note_off_c, 0, 69, 64
7, 53520, Note_on_c, 0, 67, 127
7, 53578, Note_off_c, 0, 67, 64
7, 53580, Note_on_c, 0, 70, 127
7, 53638, Note_off_c, 0, 70, 64
7, 53640, Note_on_c, 0, 67, 127
7, 53698, Note_off_c, 0, 67, 64
7, 53700, Note_on_c, 0, 65, 127
7, 53758, Note_off_c, 0, 65, 64
7, 53760, Note_on_c, 0, 64, 127
7, 53818, Note_off_c, 0, 64, 64
7, 53820, Note_on_c, 0, 65, 127
7, 53878, Note_off_c, 0, 65, 64
7, 53880, Note_on_c, 0, 67, 127
7, 53938, Note_off_c, 0, 67, 64
7, 53940, Note_on_c, 0, 69, 127
7, 53998, Note_off_c, 0, 69, 64
7, 54000, Note_on_c, 0, 70, 127
7, 54058, Note_off_c, 0, 70, 64
7, 54060, Note_on_c, 0, 74, 127
7, 54118, Note_off_c, 0, 74, 64
7, 54120, Note_on_c, 0, 72, 127
7, 54178, Note_off_c, 0, 72, 64
7, 54180, Note_on_c, 0, 70, 127
7, 54238, Note_off_c, 0, 70, 64
7, 54240, Note_on_c, 0, 69, 127
7, 54478, Note_off_c, 0, 69, 64
7, 54480, Note_on_c, 0, 72, 127
7, 54598, Note_off_c, 0, 72, 64
7, 54600, Note_on_c, 0, 70, 127
7, 54718, Note_off_c, 0, 70, 64
7, 54720, Note_on_c, 0, 69, 127
7, 54838, Note_off_c, 0, 69, 64
7, 54840, Note_on_c, 0, 67, 127
7, 54958, Note_off_c, 0, 67, 64
7, 54960, Note_on_c, 0, 69, 127
7, 55078, Note_off_c, 0, 69, 64
7, 55080, Note_on_c, 0, 70, 127
7, 55198, Note_off_c, 0, 70, 64
7, 55200, Note_on_c, 0, 72, 127
7, 55318, Note_off_c, 0, 72, 64
7, 55320, Note_on_c, 0, 64, 127
7, 55438, Note_off_c, 0, 64, 64
7, 55440, Note_on_c, 0, 65, 127
7, 55558, Note_off_c, 0, 65, 64
7, 55560, Note_on_c, 0, 67, 127
7, 55678, Note_off_c, 0, 67, 64
7, 55680, Note_on_c, 0, 69, 127
7, 55798, Note_off_c, 0, 69, 64
7, 55800, Note_on_c, 0, 67, 127
7, 55918, Note_off_c, 0, 67, 64
7, 55920, Note_on_c, 0, 69, 127
7, 56038, Note_off_c, 0, 69, 64
7, 56040, Note_on_c, 0, 70, 127
7, 56158, Note_off_c, 0, 70, 64
7, 56160, Note_on_c, 0, 72, 127
7, 56218, Note_off_c, 0, 72, 64
7, 56220, Note_on_c, 0, 70, 127
7, 56278, Note_off_c, 0, 70, 64
7, 56280, Note_on_c, 0, 69, 127
7, 56338, Note_off_c, 0, 69, 64
7, 56340, Note_on_c, 0, 67, 127
7, 56398, Note_off_c, 0, 67, 64
7, 56400, Note_on_c, 0, 65, 127
7, 56458, Note_off_c, 0, 65, 64
7, 56640, Note_on_c, 0, 74, 127
7, 56698, Note_off_c, 0, 74, 64
7, 56700, Note_on_c, 0, 72, 127
7, 56758, Note_off_c, 0, 72, 64
7, 56760, Note_on_c, 0, 70, 127
7, 56818, Note_off_c, 0, 70, 64
7, 56820, Note_on_c, 0, 69, 127
7, 56878, Note_off_c, 0, 69, 64
7, 56880, Note_on_c, 0, 67, 127
7, 56938, Note_off_c, 0, 67, 64
7, 57120, Note_on_c, 0, 76, 127
7, 57178, Note_off_c, 0, 76, 64
7, 57180, Note_on_c, 0, 74, 127
7, 57238, Note_off_c, 0, 74, 64
7, 57240, Note_on_c, 0, 72, 127
7, 57298, Note_off_c, 0, 72, 64
7, 57300, Note_on_c, 0, 70, 127
7, 57358, Note_off_c, 0, 70, 64
7, 57360, Note_on_c, 0, 69, 127
7, 57418, Note_off_c, 0, 69, 64
7, 57600, Note_on_c, 0, 77, 127
7, 57658, Note_off_c, 0, 77, 64
7, 57660, Note_on_c, 0, 76, 127
7, 57718, Note_off_c, 0, 76, 64
7, 57720, Note_on_c, 0, 74, 127
7, 57778, Note_off_c, 0, 74, 64
7, 57780, Note_on_c, 0, 72, 127
7, 57838, Note_off_c, 0, 72, 64
7, 57840, Note_on_c, 0, 70, 127
7, 57898, Note_off_c, 0, 70, 64
7, 58080, Note_on_c, 0, 79, 127
7, 58138, Note_off_c, 0, 79, 64
7, 58140, Note_on_c, 0, 77, 127
7, 58198, Note_off_c, 0, 77, 64
7, 58200, Note_on_c, 0, 76, 127
7, 58258, Note_off_c, 0, 76, 64
7, 58260, Note_on_c, 0, 74, 127
7, 58318, Note_off_c, 0, 74, 64
7, 58320, Note_on_c, 0, 72, 127
7, 58378, Note_off_c, 0, 72, 64
7, 58560, Note_on_c, 0, 81, 127
7, 58618, Note_off_c, 0, 81, 64
7, 58620, Note_on_c, 0, 77, 127
7, 58678, Note_off_c, 0, 77, 64
7, 58680, Note_on_c, 0, 76, 127
7, 58738, Note_off_c, 0, 76, 64
7, 58740, Note_on_c, 0, 77, 127
7, 58798, Note_off_c, 0, 77, 64
7, 58800, Note_on_c, 0, 72, 127
7, 58858, Note_off_c, 0, 72, 64
7, 58860, Note_on_c, 0, 77, 127
7, 58918, Note_off_c, 0, 77, 64
7, 58920, Note_on_c, 0, 76, 127
7, 58978, Note_off_c, 0, 76, 64
7, 58980, Note_on_c, 0, 77, 127
7, 59038, Note_off_c, 0, 77, 64
7, 59040, Note_on_c, 0, 81, 127
7, 59098, Note_off_c, 0, 81, 64
7, 59100, Note_on_c, 0, 77, 127
7, 59158, Note_off_c, 0, 77, 64
7, 59160, Note_on_c, 0, 76, 127
7, 59218, Note_off_c, 0, 76, 64
7, 59220, Note_on_c, 0, 77, 127
7, 59278, Note_off_c, 0, 77, 64
7, 59280, Note_on_c, 0, 72, 127
7, 59338, Note_off_c, 0, 72, 64
7, 59340, Note_on_c, 0, 77, 127
7, 59398, Note_off_c, 0, 77, 64
7, 59400, Note_on_c, 0, 76, 127
7, 59458, Note_off_c, 0, 76, 64
7, 59460, Note_on_c, 0, 77, 127
7, 59518, Note_off_c, 0, 77, 64
7, 59520, Note_on_c, 0, 79, 127
7, 59578, Note_off_c, 0, 79, 64
7, 59580, Note_on_c, 0, 76, 127
7, 59638, Note_off_c, 0, 76, 64
7, 59640, Note_on_c, 0, 74, 127
7, 59698, Note_off_c, 0, 74, 64
7, 59700, Note_on_c, 0, 76, 127
7, 59758, Note_off_c, 0, 76, 64
7, 59760, Note_on_c, 0, 72, 127
7, 59818, Note_off_c, 0, 72, 64
7, 59820, Note_on_c, 0, 76, 127
7, 59878, Note_off_c, 0, 76, 64
7, 59880, Note_on_c, 0, 74, 127
7, 59938, Note_off_c, 0, 74, 64
7, 59940, Note_on_c, 0, 76, 127
7, 59998, Note_off_c, 0, 76, 64
7, 60000, Note_on_c, 0, 79, 127
7, 60058, Note_off_c, 0, 79, 64
7, 60060, Note_on_c, 0, 76, 127
7, 60118, Note_off_c, 0, 76, 64
7, 60120, Note_on_c, 0, 74, 127
7, 60178, Note_off_c, 0, 74, 64
7, 60180, Note_on_c, 0, 76, 127
7, 60238, Note_off_c, 0, 76, 64
7, 60240, Note_on_c, 0, 72, 127
7, 60298, Note_off_c, 0, 72, 64
7, 60300, Note_on_c, 0, 76, 127
7, 60358, Note_off_c, 0, 76, 64
7, 60360, Note_on_c, 0, 74, 127
7, 60418, Note_off_c, 0, 74, 64
7, 60420, Note_on_c, 0, 76, 127
7, 60478, Note_off_c, 0, 76, 64
7, 60480, Note_on_c, 0, 81, 127
7, 60538, Note_off_c, 0, 81, 64
7, 60540, Note_on_c, 0, 77, 127
7, 60598, Note_off_c, 0, 77, 64
7, 60600, Note_on_c, 0, 76, 127
7, 60658, Note_off_c, 0, 76, 64
7, 60660, Note_on_c, 0, 77, 127
7, 60718, Note_off_c, 0, 77, 64
7, 60720, Note_on_c, 0, 72, 127
7, 60778, Note_off_c, 0, 72, 64
7, 60780, Note_on_c, 0, 77, 127
7, 60838, Note_off_c, 0, 77, 64
7, 60840, Note_on_c, 0, 76, 127
7, 60898, Note_off_c, 0, 76, 64
7, 60900, Note_on_c, 0, 77, 127
7, 60958, Note_off_c, 0, 77, 64
7, 60960, Note_on_c, 0, 81, 127
7, 61018, Note_off_c, 0, 81, 64
7, 61020, Note_on_c, 0, 77, 127
7, 61078, Note_off_c, 0, 77, 64
7, 61080, Note_on_c, 0, 76, 127
7, 61138, Note_off_c, 0, 76, 64
7, 61140, Note_on_c, 0, 77, 127
7, 61198, Note_off_c, 0, 77, 64
7, 61200, Note_on_c, 0, 72, 127
7, 61258, Note_off_c, 0, 72, 64
7, 61260, Note_on_c, 0, 77, 127
7, 61318, Note_off_c, 0, 77, 64
7, 61320, Note_on_c, 0, 76, 127
7, 61378, Note_off_c, 0, 76, 64
7, 61380, Note_on_c, 0, 77, 127
7, 61438, Note_off_c, 0, 77, 64
7, 61440, Note_on_c, 0, 79, 127
7, 61498, Note_off_c, 0, 79, 64
7, 61500, Note_on_c, 0, 76, 127
7, 61558, Note_off_c, 0, 76, 64
7, 61560, Note_on_c, 0, 74, 127
7, 61618, Note_off_c, 0, 74, 64
7, 61620, Note_on_c, 0, 76, 127
7, 61678, Note_off_c, 0, 76, 64
7, 61680, Note_on_c, 0, 72, 127
7, 61738, Note_off_c, 0, 72, 64
7, 61740, Note_on_c, 0, 76, 127
7, 61798, Note_off_c, 0, 76, 64
7, 61800, Note_on_c, 0, 74, 127
7, 61858, Note_off_c, 0, 74, 64
7, 61860, Note_on_c, 0, 76, 127
7, 61918, Note_off_c, 0, 76, 64
7, 61920, Note_on_c, 0, 79, 127
7, 61978, Note_off_c, 0, 79, 64
7, 61980, Note_on_c, 0, 76, 127
7, 62038, Note_off_c, 0, 76, 64
7, 62040, Note_on_c, 0, 74, 127
7, 62098, Note_off_c, 0, 74, 64
7, 62100, Note_on_c, 0, 76, 127
7, 62158, Note_off_c, 0, 76, 64
7, 62160, Note_on_c, 0, 72, 127
7, 62218, Note_off_c, 0, 72, 64
7, 62220, Note_on_c, 0, 76, 127
7, 62278, Note_off_c, 0, 76, 64
7, 62280, Note_on_c, 0, 74, 127
7, 62338, Note_off_c, 0, 74, 64
7, 62340, Note_on_c, 0, 76, 127
7, 62398, Note_off_c, 0, 76, 64
7, 62400, Note_on_c, 0, 77, 127
7, 62458, Note_off_c, 0, 77, 64
7, 62460, Note_on_c, 0, 79, 127
7, 62518, Note_off_c, 0, 79, 64
7, 62520, Note_on_c, 0, 77, 127
7, 62578, Note_off_c, 0, 77, 64
7, 62580, Note_on_c, 0, 76, 127
7, 62638, Note_off_c, 0, 76, 64
7, 62640, Note_on_c, 0, 74, 127
7, 62698, Note_off_c, 0, 74, 64
7, 63120, Note_on_c, 0, 77, 127
7, 63178, Note_off_c, 0, 77, 64
7, 63180, Note_on_c, 0, 81, 127
7, 63238, Note_off_c, 0, 81, 64
7, 63240, Note_on_c, 0, 77, 127
7, 63298, Note_off_c, 0, 77, 64
7, 63300, Note_on_c, 0, 74, 127
7, 63358, Note_off_c, 0, 74, 64
7, 63600, Note_on_c, 0, 77, 127
7, 63658, Note_off_c, 0, 77, 64
7, 63660, Note_on_c, 0, 81, 127
7, 63718, Note_off_c, 0, 81, 64
7, 63720, Note_on_c, 0, 77, 127
7, 63778, Note_off_c, 0, 77, 64
7, 63780, Note_on_c, 0, 74, 127
7, 63838, Note_off_c, 0, 74, 64
7, 64080, Note_on_c, 0, 76, 127
7, 64138, Note_off_c, 0, 76, 64
7, 64140, Note_on_c, 0, 79, 127
7, 64198, Note_off_c, 0, 79, 64
7, 64200, Note_on_c, 0, 76, 127
7, 64258, Note_off_c, 0, 76, 64
7, 64260, Note_on_c, 0, 72, 127
7, 64318, Note_off_c, 0, 72, 64
7, 64560, Note_on_c, 0, 76, 127
7, 64618, Note_off_c, 0, 76, 64
7, 64620, Note_on_c, 0, 79, 127
7, 64678, Note_off_c, 0, 79, 64
7, 64680, Note_on_c, 0, 76, 127
7, 64738, Note_off_c, 0, 76, 64
7, 64740, Note_on_c, 0, 72, 127
7, 64798, Note_off_c, 0, 72, 64
7, 65040, Note_on_c, 0, 74, 127
7, 65098, Note_off_c, 0, 74, 64
7, 65100, Note_on_c, 0, 77, 127
7, 65158, Note_off_c, 0, 77, 64
7, 65160, Note_on_c, 0, 74, 127
7, 65218, Note_off_c, 0, 74, 64
7, 65220, Note_on_c, 0, 70, 127
7, 65278, Note_off_c, 0, 70, 64
7, 65520, Note_on_c, 0, 74, 127
7, 65578, Note_off_c, 0, 74, 64
7, 65580, Note_on_c, 0, 77, 127
7, 65638, Note_off_c, 0, 77, 64
7, 65640, Note_on_c, 0, 74, 127
7, 65698, Note_off_c, 0, 74, 64
7, 65700, Note_on_c, 0, 70, 127
7, 65758, Note_off_c, 0, 70, 64
7, 66000, Note_on_c, 0, 73, 127
7, 66058, Note_off_c, 0, 73, 64
7, 66060, Note_on_c, 0, 76, 127
7, 66118, Note_off_c, 0, 76, 64
7, 66120, Note_on_c, 0, 73, 127
7, 66178, Note_off_c, 0, 73, 64
7, 66180, Note_on_c, 0, 70, 127
7, 66238, Note_off_c, 0, 70, 64
7, 66480, Note_on_c, 0, 73, 127
7, 66538, Note_off_c, 0, 73, 64
7, 66540, Note_on_c, 0, 76, 127
7, 66598, Note_off_c, 0, 76, 64
7, 66600, Note_on_c, 0, 73, 127
7, 66658, Note_off_c, 0, 73, 64
7, 66660, Note_on_c, 0, 70, 127
7, 66718, Note_off_c, 0, 70, 64
7, 66780, Note_on_c, 0, 81, 127
7, 66838, Note_off_c, 0, 81, 64
7, 66840, Note_on_c, 0, 79, 127
7, 66898, Note_off_c, 0, 79, 64
7, 66900, Note_on_c, 0, 81, 127
7, 66958, Note_off_c, 0, 81, 64
7, 66960, Note_on_c, 0, 77, 127
7, 67018, Note_off_c, 0, 77, 64
7, 67020, Note_on_c, 0, 81, 127
7, 67078, Note_off_c, 0, 81, 64
7, 67080, Note_on_c, 0, 76, 127
7, 67138, Note_off_c, 0, 76, 64
7, 67140, Note_on_c, 0, 81, 127
7, 67198, Note_off_c, 0, 81, 64
7, 67200, Note_on_c, 0, 74, 127
7, 67258, Note_off_c, 0, 74, 64
7, 67260, Note_on_c, 0, 81, 127
7, 67318, Note_off_c, 0, 81, 64
7, 67320, Note_on_c, 0, 73, 127
7, 67378, Note_off_c, 0, 73, 64
7, 67380, Note_on_c, 0, 81, 127
7, 67438, Note_off_c, 0, 81, 64
7, 67440, Note_on_c, 0, 74, 127
7, 67498, Note_off_c, 0, 74, 64
7, 67500, Note_on_c, 0, 81, 127
7, 67558, Note_off_c, 0, 81, 64
7, 67560, Note_on_c, 0, 76, 127
7, 67618, Note_off_c, 0, 76, 64
7, 67620, Note_on_c, 0, 81, 127
7, 67678, Note_off_c, 0, 81, 64
7, 67680, Note_on_c, 0, 77, 127
7, 67738, Note_off_c, 0, 77, 64
7, 67740, Note_on_c, 0, 81, 127
7, 67798, Note_off_c, 0, 81, 64
7, 67800, Note_on_c, 0, 69, 127
7, 67858, Note_off_c, 0, 69, 64
7, 67860, Note_on_c, 0, 81, 127
7, 67918, Note_off_c, 0, 81, 64
7, 67920, Note_on_c, 0, 71, 127
7, 67978, Note_off_c, 0, 71, 64
7, 67980, Note_on_c, 0, 81, 127
7, 68038, Note_off_c, 0, 81, 64
7, 68040, Note_on_c, 0, 73, 127
7, 68098, Note_off_c, 0, 73, 64
7, 68100, Note_on_c, 0, 81, 127
7, 68158, Note_off_c, 0, 81, 64
7, 68160, Note_on_c, 0, 74, 127
7, 68218, Note_off_c, 0, 74, 64
7, 68220, Note_on_c, 0, 81, 127
7, 68278, Note_off_c, 0, 81, 64
7, 68280, Note_on_c, 0, 73, 127
7, 68338, Note_off_c, 0, 73, 64
7, 68340, Note_on_c, 0, 81, 127
7, 68398, Note_off_c, 0, 81, 64
7, 68400, Note_on_c, 0, 74, 127
7, 68518, Note_off_c, 0, 74, 64
7, 68520, Note_on_c, 0, 76, 127
7, 68638, Note_off_c, 0, 76, 64
7, 68640, Note_on_c, 0, 74, 127
7, 68758, Note_off_c, 0, 74, 64
7, 68760, Note_on_c, 0, 69, 127
7, 68760, Note_on_c, 0, 72, 127
7, 68878, Note_off_c, 0, 72, 64
7, 68878, Note_off_c, 0, 69, 64
7, 68880, Note_on_c, 0, 67, 127
7, 68880, Note_on_c, 0, 70, 127
7, 68998, Note_off_c, 0, 70, 64
7, 68998, Note_off_c, 0, 67, 64
7, 69000, Note_on_c, 0, 66, 127
7, 69000, Note_on_c, 0, 69, 127
7, 69118, Note_off_c, 0, 69, 64
7, 69118, Note_off_c, 0, 66, 64
7, 69120, Note_on_c, 0, 67, 127
7, 69120, Note_on_c, 0, 70, 127
7, 69178, Note_off_c, 0, 70, 64
7, 69180, Note_on_c, 0, 69, 127
7, 69238, Note_off_c, 0, 69, 64
7, 69238, Note_off_c, 0, 67, 64
7, 69240, Note_on_c, 0, 67, 127
7, 69298, Note_off_c, 0, 67, 64
7, 69300, Note_on_c, 0, 65, 127
7, 69358, Note_off_c, 0, 65, 64
7, 69360, Note_on_c, 0, 64, 127
7, 69418, Note_off_c, 0, 64, 64
7, 69420, Note_on_c, 0, 62, 127
7, 69478, Note_off_c, 0, 62, 64
7, 69480, Note_on_c, 0, 61, 127
7, 69538, Note_off_c, 0, 61, 64
7, 69540, Note_on_c, 0, 59, 127
7, 69598, Note_off_c, 0, 59, 64
7, 69600, Note_on_c, 0, 57, 127
7, 69658, Note_off_c, 0, 57, 64
7, 69840, Note_on_c, 0, 55, 127
7, 69898, Note_off_c, 0, 55, 64
7, 69900, Note_on_c, 0, 58, 127
7, 69958, Note_off_c, 0, 58, 64
7, 69960, Note_on_c, 0, 55, 127
7, 70018, Note_off_c, 0, 55, 64
7, 70020, Note_on_c, 0, 52, 127
7, 70078, Note_off_c, 0, 52, 64
7, 70320, Note_on_c, 0, 55, 127
7, 70378, Note_off_c, 0, 55, 64
7, 70380, Note_on_c, 0, 58, 127
7, 70438, Note_off_c, 0, 58, 64
7, 70440, Note_on_c, 0, 55, 127
7, 70498, Note_off_c, 0, 55, 64
7, 70500, Note_on_c, 0, 52, 127
7, 70558, Note_off_c, 0, 52, 64
7, 70800, Note_on_c, 0, 57, 127
7, 70858, Note_off_c, 0, 57, 64
7, 70860, Note_on_c, 0, 62, 127
7, 70918, Note_off_c, 0, 62, 64
7, 70920, Note_on_c, 0, 57, 127
7, 70978, Note_off_c, 0, 57, 64
7, 70980, Note_on_c, 0, 53, 127
7, 71038, Note_off_c, 0, 53, 64
7, 71280, Note_on_c, 0, 57, 127
7, 71338, Note_off_c, 0, 57, 64
7, 71340, Note_on_c, 0, 62, 127
7, 71398, Note_off_c, 0, 62, 64
7, 71400, Note_on_c, 0, 57, 127
7, 71458, Note_off_c, 0, 57, 64
7, 71460, Note_on_c, 0, 53, 127
7, 71518, Note_off_c, 0, 53, 64
7, 71760, Note_on_c, 0, 55, 127
7, 71818, Note_off_c, 0, 55, 64
7, 71820, Note_on_c, 0, 58, 127
7, 71878, Note_off_c, 0, 58, 64
7, 71880, Note_on_c, 0, 55, 127
7, 71938, Note_off_c, 0, 55, 64
7, 71940, Note_on_c, 0, 52, 127
7, 71998, Note_off_c, 0, 52, 64
7, 72240, Note_on_c, 0, 55, 127
7, 72298, Note_off_c, 0, 55, 64
7, 72300, Note_on_c, 0, 58, 127
7, 72358, Note_off_c, 0, 58, 64
7, 72360, Note_on_c, 0, 55, 127
7, 72418, Note_off_c, 0, 55, 64
7, 72420, Note_on_c, 0, 52, 127
7, 72478, Note_off_c, 0, 52, 64
7, 72720, Note_on_c, 0, 57, 127
7, 72778, Note_off_c, 0, 57, 64
7, 72780, Note_on_c, 0, 62, 127
7, 72838, Note_off_c, 0, 62, 64
7, 72840, Note_on_c, 0, 57, 127
7, 72898, Note_off_c, 0, 57, 64
7, 72900, Note_on_c, 0, 53, 127
7, 72958, Note_off_c, 0, 53, 64
7, 73200, Note_on_c, 0, 57, 127
7, 73258, Note_off_c, 0, 57, 64
7, 73260, Note_on_c, 0, 62, 127
7, 73318, Note_off_c, 0, 62, 64
7, 73320, Note_on_c, 0, 57, 127
7, 73378, Note_off_c, 0, 57, 64
7, 73380, Note_on_c, 0, 53, 127
7, 73438, Note_off_c, 0, 53, 64
7, 73680, Note_on_c, 0, 58, 127
7, 73738, Note_off_c, 0, 58, 64
7, 73740, Note_on_c, 0, 61, 127
7, 73798, Note_off_c, 0, 61, 64
7, 73800, Note_on_c, 0, 58, 127
7, 73858, Note_off_c, 0, 58, 64
7, 73860, Note_on_c, 0, 55, 127
7, 73918, Note_off_c, 0, 55, 64
7, 74160, Note_on_c, 0, 58, 127
7, 74218, Note_off_c, 0, 58, 64
7, 74220, Note_on_c, 0, 61, 127
7, 74278, Note_off_c, 0, 61, 64
7, 74280, Note_on_c, 0, 58, 127
7, 74338, Note_off_c, 0, 58, 64
7, 74340, Note_on_c, 0, 55, 127
7, 74398, Note_off_c, 0, 55, 64
7, 74640, Note_on_c, 0, 62, 127
7, 74698, Note_off_c, 0, 62, 64
7, 74700, Note_on_c, 0, 65, 127
7, 74758, Note_off_c, 0, 65, 64
7, 74760, Note_on_c, 0, 62, 127
7, 74818, Note_off_c, 0, 62, 64
7, 74820, Note_on_c, 0, 57, 127
7, 74878, Note_off_c, 0, 57, 64
7, 75120, Note_on_c, 0, 62, 127
7, 75178, Note_off_c, 0, 62, 64
7, 75180, Note_on_c, 0, 65, 127
7, 75238, Note_off_c, 0, 65, 64
7, 75240, Note_on_c, 0, 62, 127
7, 75298, Note_off_c, 0, 62, 64
7, 75300, Note_on_c, 0, 57, 127
7, 75358, Note_off_c, 0, 57, 64
7, 75600, Note_on_c, 0, 58, 127
7, 75658, Note_off_c, 0, 58, 64
7, 75660, Note_on_c, 0, 61, 127
7, 75718, Note_off_c, 0, 61, 64
7, 75720, Note_on_c, 0, 58, 127
7, 75778, Note_off_c, 0, 58, 64
7, 75780, Note_on_c, 0, 55, 127
7, 75838, Note_off_c, 0, 55, 64
7, 76080, Note_on_c, 0, 58, 127
7, 76138, Note_off_c, 0, 58, 64
7, 76140, Note_on_c, 0, 61, 127
7, 76198, Note_off_c, 0, 61, 64
7, 76200, Note_on_c, 0, 58, 127
7, 76258, Note_off_c, 0, 58, 64
7, 76260, Note_on_c, 0, 55, 127
7, 76318, Note_off_c, 0, 55, 64
7, 76560, Note_on_c, 0, 62, 127
7, 76618, Note_off_c, 0, 62, 64
7, 76620, Note_on_c, 0, 65, 127
7, 76678, Note_off_c, 0, 65, 64
7, 76680, Note_on_c, 0, 62, 127
7, 76738, Note_off_c, 0, 62, 64
7, 76740, Note_on_c, 0, 57, 127
7, 76798, Note_off_c, 0, 57, 64
7, 77040, Note_on_c, 0, 62, 127
7, 77098, Note_off_c, 0, 62, 64
7, 77100, Note_on_c, 0, 65, 127
7, 77158, Note_off_c, 0, 65, 64
7, 77160, Note_on_c, 0, 62, 127
7, 77218, Note_off_c, 0, 62, 64
7, 77220, Note_on_c, 0, 57, 127
7, 77278, Note_off_c, 0, 57, 64
7, 77520, Note_on_c, 0, 61, 127
7, 77578, Note_off_c, 0, 61, 64
7, 77580, Note_on_c, 0, 64, 127
7, 77638, Note_off_c, 0, 64, 64
7, 77640, Note_on_c, 0, 61, 127
7, 77698, Note_off_c, 0, 61, 64
7, 77700, Note_on_c, 0, 58, 127
7, 77758, Note_off_c, 0, 58, 64
7, 78000, Note_on_c, 0, 61, 127
7, 78058, Note_off_c, 0, 61, 64
7, 78060, Note_on_c, 0, 64, 127
7, 78118, Note_off_c, 0, 64, 64
7, 78120, Note_on_c, 0, 61, 127
7, 78178, Note_off_c, 0, 61, 64
7, 78180, Note_on_c, 0, 58, 127
7, 78238, Note_off_c, 0, 58, 64
7, 78480, Note_on_c, 0, 62, 127
7, 78538, Note_off_c, 0, 62, 64
7, 78540, Note_on_c, 0, 65, 127
7, 78598, Note_off_c, 0, 65, 64
7, 78600, Note_on_c, 0, 62, 127
7, 78658, Note_off_c, 0, 62, 64
7, 78780, Note_on_c, 0, 62, 127
7, 78838, Note_off_c, 0, 62, 64
7, 78840, Note_on_c, 0, 58, 127
7, 78898, Note_off_c, 0, 58, 64
7, 79020, Note_on_c, 0, 57, 127
7, 79078, Note_off_c, 0, 57, 64
7, 79080, Note_on_c, 0, 53, 127
7, 79138, Note_off_c, 0, 53, 64
7, 79260, Note_on_c, 0, 50, 127
7, 79318, Note_off_c, 0, 50, 64
7, 79320, Note_on_c, 0, 45, 127
7, 79378, Note_off_c, 0, 45, 64
7, 79500, Note_on_c, 0, 50, 127
7, 79558, Note_off_c, 0, 50, 64
7, 79560, Note_on_c, 0, 49, 127
7, 79618, Note_off_c, 0, 49, 64
7, 79620, Note_on_c, 0, 47, 127
7, 79678, Note_off_c, 0, 47, 64
7, 79740, Note_on_c, 0, 58, 127
7, 79798, Note_off_c, 0, 58, 64
7, 79800, Note_on_c, 0, 57, 127
7, 79858, Note_off_c, 0, 57, 64
7, 79860, Note_on_c, 0, 55, 127
7, 79918, Note_off_c, 0, 55, 64
7, 79980, Note_on_c, 0, 55, 127
7, 80038, Note_off_c, 0, 55, 64
7, 80040, Note_on_c, 0, 53, 127
7, 80098, Note_off_c, 0, 53, 64
7, 80100, Note_on_c, 0, 52, 127
7, 80158, Note_off_c, 0, 52, 64
7, 80220, Note_on_c, 0, 58, 127
7, 80278, Note_off_c, 0, 58, 64
7, 80280, Note_on_c, 0, 57, 127
7, 80338, Note_off_c, 0, 57, 64
7, 80340, Note_on_c, 0, 55, 127
7, 80398, Note_off_c, 0, 55, 64
7, 80460, Note_on_c, 0, 55, 127
7, 80518, Note_off_c, 0, 55, 64
7, 80520, Note_on_c, 0, 53, 127
7, 80578, Note_off_c, 0, 53, 64
7, 80580, Note_on_c, 0, 52, 127
7, 80638, Note_off_c, 0, 52, 64
7, 80940, Note_on_c, 0, 65, 127
7, 80998, Note_off_c, 0, 65, 64
7, 81000, Note_on_c, 0, 64, 127
7, 81058, Note_off_c, 0, 64, 64
7, 81060, Note_on_c, 0, 62, 127
7, 81118, Note_off_c, 0, 62, 64
7, 81120, Note_on_c, 0, 69, 127
7, 81178, Note_off_c, 0, 69, 64
7, 81420, Note_on_c, 0, 76, 127
7, 81478, Note_off_c, 0, 76, 64
7, 81480, Note_on_c, 0, 74, 127
7, 81538, Note_off_c, 0, 74, 64
7, 81540, Note_on_c, 0, 73, 127
7, 81598, Note_off_c, 0, 73, 64
7, 81600, Note_on_c, 0, 74, 127
7, 81658, Note_off_c, 0, 74, 64
7, 81660, Note_on_c, 0, 75, 127
7, 81688, Note_off_c, 0, 75, 64
7, 81690, Note_on_c, 0, 74, 127
7, 81718, Note_off_c, 0, 74, 64
7, 81720, Note_on_c, 0, 72, 127
7, 81748, Note_off_c, 0, 72, 64
7, 81750, Note_on_c, 0, 70, 127
7, 81778, Note_off_c, 0, 70, 64
7, 81780, Note_on_c, 0, 69, 127
7, 81808, Note_off_c, 0, 69, 64
7, 81810, Note_on_c, 0, 67, 127
7, 81838, Note_off_c, 0, 67, 64
7, 81840, Note_on_c, 0, 66, 127
7, 81958, Note_off_c, 0, 66, 64
7, 81960, Note_on_c, 0, 69, 127
7, 82198, Note_off_c, 0, 69, 64
7, 82200, Note_on_c, 0, 67, 127
7, 82318, Note_off_c, 0, 67, 64
7, 82320, Note_on_c, 0, 72, 127
7, 82438, Note_off_c, 0, 72, 64
7, 82440, Note_on_c, 0, 71, 127
7, 82558, Note_off_c, 0, 71, 64
7, 82560, Note_on_c, 0, 75, 127
7, 82678, Note_off_c, 0, 75, 64
7, 82680, Note_on_c, 0, 74, 127
7, 82798, Note_off_c, 0, 74, 64
7, 82800, Note_on_c, 0, 75, 127
7, 82918, Note_off_c, 0, 75, 64
7, 82920, Note_on_c, 0, 71, 127
7, 83038, Note_off_c, 0, 71, 64
7, 83040, Note_on_c, 0, 72, 127
7, 83158, Note_off_c, 0, 72, 64
7, 83160, Note_on_c, 0, 71, 127
7, 83278, Note_off_c, 0, 71, 64
7, 83280, Note_on_c, 0, 72, 127
7, 83398, Note_off_c, 0, 72, 64
7, 83400, Note_on_c, 0, 74, 127
7, 83518, Note_off_c, 0, 74, 64
7, 83520, Note_on_c, 0, 75, 127
7, 83638, Note_off_c, 0, 75, 64
7, 83640, Note_on_c, 0, 74, 127
7, 83758, Note_off_c, 0, 74, 64
7, 83760, Note_on_c, 0, 75, 127
7, 83878, Note_off_c, 0, 75, 64
7, 83880, Note_on_c, 0, 77, 127
7, 83998, Note_off_c, 0, 77, 64
7, 84000, Note_on_c, 0, 79, 127
7, 84028, Note_off_c, 0, 79, 64
7, 84030, Note_on_c, 0, 81, 127
7, 84058, Note_off_c, 0, 81, 64
7, 84060, Note_on_c, 0, 79, 127
7, 84088, Note_off_c, 0, 79, 64
7, 84090, Note_on_c, 0, 81, 127
7, 84118, Note_off_c, 0, 81, 64
7, 84120, Note_on_c, 0, 79, 127
7, 84148, Note_off_c, 0, 79, 64
7, 84150, Note_on_c, 0, 81, 127
7, 84178, Note_off_c, 0, 81, 64
7, 84180, Note_on_c, 0, 79, 127
7, 84208, Note_off_c, 0, 79, 64
7, 84210, Note_on_c, 0, 81, 127
7, 84238, Note_off_c, 0, 81, 64
7, 84240, Note_on_c, 0, 79, 127
7, 84268, Note_off_c, 0, 79, 64
7, 84270, Note_on_c, 0, 81, 127
7, 84298, Note_off_c, 0, 81, 64
7, 84300, Note_on_c, 0, 79, 127
7, 84328, Note_off_c, 0, 79, 64
7, 84330, Note_on_c, 0, 81, 127
7, 84358, Note_off_c, 0, 81, 64
7, 84360, Note_on_c, 0, 79, 127
7, 84388, Note_off_c, 0, 79, 64
7, 84390, Note_on_c, 0, 81, 127
7, 84418, Note_off_c, 0, 81, 64
7, 84420, Note_on_c, 0, 79, 127
7, 84448, Note_off_c, 0, 79, 64
7, 84450, Note_on_c, 0, 81, 127
7, 84478, Note_off_c, 0, 81, 64
7, 84480, Note_on_c, 0, 79, 127
7, 84508, Note_off_c, 0, 79, 64
7, 84510, Note_on_c, 0, 81, 127
7, 84538, Note_off_c, 0, 81, 64
7, 84540, Note_on_c, 0, 79, 127
7, 84568, Note_off_c, 0, 79, 64
7, 84570, Note_on_c, 0, 81, 127
7, 84598, Note_off_c, 0, 81, 64
7, 84600, Note_on_c, 0, 79, 127
7, 84628, Note_off_c, 0, 79, 64
7, 84630, Note_on_c, 0, 81, 127
7, 84658, Note_off_c, 0, 81, 64
7, 84660, Note_on_c, 0, 79, 127
7, 84688, Note_off_c, 0, 79, 64
7, 84690, Note_on_c, 0, 81, 127
7, 84718, Note_off_c, 0, 81, 64
7, 84720, Note_on_c, 0, 79, 127
7, 84748, Note_off_c, 0, 79, 64
7, 84750, Note_on_c, 0, 81, 127
7, 84778, Note_off_c, 0, 81, 64
7, 84780, Note_on_c, 0, 79, 127
7, 84808, Note_off_c, 0, 79, 64
7, 84810, Note_on_c, 0, 81, 127
7, 84838, Note_off_c, 0, 81, 64
7, 84840, Note_on_c, 0, 79, 127
7, 84868, Note_off_c, 0, 79, 64
7, 84870, Note_on_c, 0, 81, 127
7, 84898, Note_off_c, 0, 81, 64
7, 84900, Note_on_c, 0, 79, 127
7, 84928, Note_off_c, 0, 79, 64
7, 84930, Note_on_c, 0, 81, 127
7, 84958, Note_off_c, 0, 81, 64
7, 84960, Note_on_c, 0, 79, 127
7, 84988, Note_off_c, 0, 79, 64
7, 84990, Note_on_c, 0, 81, 127
7, 85018, Note_off_c, 0, 81, 64
7, 85020, Note_on_c, 0, 79, 127
7, 85048, Note_off_c, 0, 79, 64
7, 85050, Note_on_c, 0, 81, 127
7, 85078, Note_off_c, 0, 81, 64
7, 85080, Note_on_c, 0, 79, 127
7, 85108, Note_off_c, 0, 79, 64
7, 85110, Note_on_c, 0, 81, 127
7, 85138, Note_off_c, 0, 81, 64
7, 85140, Note_on_c, 0, 79, 127
7, 85168, Note_off_c, 0, 79, 64
7, 85170, Note_on_c, 0, 81, 127
7, 85198, Note_off_c, 0, 81, 64
7, 85200, Note_on_c, 0, 79, 127
7, 85228, Note_off_c, 0, 79, 64
7, 85230, Note_on_c, 0, 81, 127
7, 85258, Note_off_c, 0, 81, 64
7, 85260, Note_on_c, 0, 79, 127
7, 85288, Note_off_c, 0, 79, 64
7, 85290, Note_on_c, 0, 81, 127
7, 85318, Note_off_c, 0, 81, 64
7, 85320, Note_on_c, 0, 79, 127
7, 85348, Note_off_c, 0, 79, 64
7, 85350, Note_on_c, 0, 81, 127
7, 85378, Note_off_c, 0, 81, 64
7, 85380, Note_on_c, 0, 79, 127
7, 85408, Note_off_c, 0, 79, 64
7, 85410, Note_on_c, 0, 81, 127
7, 85438, Note_off_c, 0, 81, 64
7, 85440, Note_on_c, 0, 79, 127
7, 85468, Note_off_c, 0, 79, 64
7, 85470, Note_on_c, 0, 81, 127
7, 85498, Note_off_c, 0, 81, 64
7, 85500, Note_on_c, 0, 79, 127
7, 85528, Note_off_c, 0, 79, 64
7, 85530, Note_on_c, 0, 81, 127
7, 85558, Note_off_c, 0, 81, 64
7, 85560, Note_on_c, 0, 79, 127
7, 85588, Note_off_c, 0, 79, 64
7, 85590, Note_on_c, 0, 81, 127
7, 85618, Note_off_c, 0, 81, 64
7, 85620, Note_on_c, 0, 79, 127
7, 85648, Note_off_c, 0, 79, 64
7, 85650, Note_on_c, 0, 81, 127
7, 85678, Note_off_c, 0, 81, 64
7, 85680, Note_on_c, 0, 79, 127
7, 85708, Note_off_c, 0, 79, 64
7, 85710, Note_on_c, 0, 81, 127
7, 85738, Note_off_c, 0, 81, 64
7, 85740, Note_on_c, 0, 79, 127
7, 85768, Note_off_c, 0, 79, 64
7, 85770, Note_on_c, 0, 81, 127
7, 85798, Note_off_c, 0, 81, 64
7, 85800, Note_on_c, 0, 79, 127
7, 85828, Note_off_c, 0, 79, 64
7, 85830, Note_on_c, 0, 81, 127
7, 85858, Note_off_c, 0, 81, 64
7, 85860, Note_on_c, 0, 79, 127
7, 85888, Note_off_c, 0, 79, 64
7, 85890, Note_on_c, 0, 81, 127
7, 85918, Note_off_c, 0, 81, 64
7, 85920, Note_on_c, 0, 79, 127
7, 85978, Note_off_c, 0, 79, 64
7, 85980, Note_on_c, 0, 79, 127
7, 86038, Note_off_c, 0, 79, 64
7, 86040, Note_on_c, 0, 77, 127
7, 86098, Note_off_c, 0, 77, 64
7, 86100, Note_on_c, 0, 79, 127
7, 86158, Note_off_c, 0, 79, 64
7, 86160, Note_on_c, 0, 75, 127
7, 86218, Note_off_c, 0, 75, 64
7, 86220, Note_on_c, 0, 77, 127
7, 86278, Note_off_c, 0, 77, 64
7, 86280, Note_on_c, 0, 74, 127
7, 86338, Note_off_c, 0, 74, 64
7, 86340, Note_on_c, 0, 75, 127
7, 86398, Note_off_c, 0, 75, 64
7, 86400, Note_on_c, 0, 72, 127
7, 86458, Note_off_c, 0, 72, 64
7, 86460, Note_on_c, 0, 77, 127
7, 86518, Note_off_c, 0, 77, 64
7, 86520, Note_on_c, 0, 75, 127
7, 86578, Note_off_c, 0, 75, 64
7, 86580, Note_on_c, 0, 77, 127
7, 86638, Note_off_c, 0, 77, 64
7, 86640, Note_on_c, 0, 74, 127
7, 86698, Note_off_c, 0, 74, 64
7, 86700, Note_on_c, 0, 75, 127
7, 86758, Note_off_c, 0, 75, 64
7, 86760, Note_on_c, 0, 72, 127
7, 86818, Note_off_c, 0, 72, 64
7, 86820, Note_on_c, 0, 74, 127
7, 86878, Note_off_c, 0, 74, 64
7, 86880, Note_on_c, 0, 70, 127
7, 86938, Note_off_c, 0, 70, 64
7, 86940, Note_on_c, 0, 75, 127
7, 86998, Note_off_c, 0, 75, 64
7, 87000, Note_on_c, 0, 74, 127
7, 87058, Note_off_c, 0, 74, 64
7, 87060, Note_on_c, 0, 75, 127
7, 87118, Note_off_c, 0, 75, 64
7, 87120, Note_on_c, 0, 72, 127
7, 87178, Note_off_c, 0, 72, 64
7, 87180, Note_on_c, 0, 74, 127
7, 87238, Note_off_c, 0, 74, 64
7, 87240, Note_on_c, 0, 70, 127
7, 87298, Note_off_c, 0, 70, 64
7, 87300, Note_on_c, 0, 72, 127
7, 87358, Note_off_c, 0, 72, 64
7, 87360, Note_on_c, 0, 69, 127
7, 87418, Note_off_c, 0, 69, 64
7, 87420, Note_on_c, 0, 74, 127
7, 87478, Note_off_c, 0, 74, 64
7, 87480, Note_on_c, 0, 72, 127
7, 87538, Note_off_c, 0, 72, 64
7, 87540, Note_on_c, 0, 74, 127
7, 87598, Note_off_c, 0, 74, 64
7, 87600, Note_on_c, 0, 70, 127
7, 87658, Note_off_c, 0, 70, 64
7, 87660, Note_on_c, 0, 72, 127
7, 87718, Note_off_c, 0, 72, 64
7, 87720, Note_on_c, 0, 69, 127
7, 87778, Note_off_c, 0, 69, 64
7, 87780, Note_on_c, 0, 70, 127
7, 87838, Note_off_c, 0, 70, 64
7, 87840, Note_on_c, 0, 67, 127
7, 87898, Note_off_c, 0, 67, 64
7, 87900, Note_on_c, 0, 70, 127
7, 87958, Note_off_c, 0, 70, 64
7, 87960, Note_on_c, 0, 69, 127
7, 88018, Note_off_c, 0, 69, 64
7, 88020, Note_on_c, 0, 70, 127
7, 88078, Note_off_c, 0, 70, 64
7, 88080, Note_on_c, 0, 72, 127
7, 88138, Note_off_c, 0, 72, 64
7, 88140, Note_on_c, 0, 70, 127
7, 88198, Note_off_c, 0, 70, 64
7, 88200, Note_on_c, 0, 69, 127
7, 88258, Note_off_c, 0, 69, 64
7, 88260, Note_on_c, 0, 67, 127
7, 88318, Note_off_c, 0, 67, 64
7, 88320, Note_on_c, 0, 66, 127
7, 88438, Note_off_c, 0, 66, 64
7, 88440, Note_on_c, 0, 69, 127
7, 88558, Note_off_c, 0, 69, 64
7, 88560, Note_on_c, 0, 74, 127
7, 88618, Note_off_c, 0, 74, 64
7, 88620, Note_on_c, 0, 67, 127
7, 88678, Note_off_c, 0, 67, 64
7, 88680, Note_on_c, 0, 72, 127
7, 88738, Note_off_c, 0, 72, 64
7, 88740, Note_on_c, 0, 66, 127
7, 88798, Note_off_c, 0, 66, 64
7, 88800, Note_on_c, 0, 70, 127
7, 88858, Note_off_c, 0, 70, 64
7, 88860, Note_on_c, 0, 67, 127
7, 88918, Note_off_c, 0, 67, 64
7, 88920, Note_on_c, 0, 74, 127
7, 88978, Note_off_c, 0, 74, 64
7, 88980, Note_on_c, 0, 69, 127
7, 89038, Note_off_c, 0, 69, 64
7, 89040, Note_on_c, 0, 70, 127
7, 89098, Note_off_c, 0, 70, 64
7, 89100, Note_on_c, 0, 67, 127
7, 89158, Note_off_c, 0, 67, 64
7, 89160, Note_on_c, 0, 69, 127
7, 89218, Note_off_c, 0, 69, 64
7, 89220, Note_on_c, 0, 66, 127
7, 89278, Note_off_c, 0, 66, 64
7, 89280, Note_on_c, 0, 67, 127
7, 89338, Note_off_c, 0, 67, 64
7, 89340, Note_on_c, 0, 74, 127
7, 89398, Note_off_c, 0, 74, 64
7, 89400, Note_on_c, 0, 66, 127
7, 89458, Note_off_c, 0, 66, 64
7, 89460, Note_on_c, 0, 74, 127
7, 89518, Note_off_c, 0, 74, 64
7, 89520, Note_on_c, 0, 67, 127
7, 89578, Note_off_c, 0, 67, 64
7, 89580, Note_on_c, 0, 74, 127
7, 89638, Note_off_c, 0, 74, 64
7, 89640, Note_on_c, 0, 69, 127
7, 89698, Note_off_c, 0, 69, 64
7, 89700, Note_on_c, 0, 74, 127
7, 89758, Note_off_c, 0, 74, 64
7, 89760, Note_on_c, 0, 70, 127
7, 89818, Note_off_c, 0, 70, 64
7, 89820, Note_on_c, 0, 67, 127
7, 89878, Note_off_c, 0, 67, 64
7, 89880, Note_on_c, 0, 74, 127
7, 89938, Note_off_c, 0, 74, 64
7, 89940, Note_on_c, 0, 69, 127
7, 89998, Note_off_c, 0, 69, 64
7, 90000, Note_on_c, 0, 70, 127
7, 90058, Note_off_c, 0, 70, 64
7, 90060, Note_on_c, 0, 67, 127
7, 90118, Note_off_c, 0, 67, 64
7, 90120, Note_on_c, 0, 72, 127
7, 90178, Note_off_c, 0, 72, 64
7, 90180, Note_on_c, 0, 69, 127
7, 90238, Note_off_c, 0, 69, 64
7, 90240, Note_on_c, 0, 74, 127
7, 90298, Note_off_c, 0, 74, 64
7, 90300, Note_on_c, 0, 72, 127
7, 90358, Note_off_c, 0, 72, 64
7, 90360, Note_on_c, 0, 70, 127
7, 90418, Note_off_c, 0, 70, 64
7, 90420, Note_on_c, 0, 69, 127
7, 90478, Note_off_c, 0, 69, 64
7, 90480, Note_on_c, 0, 70, 127
7, 90538, Note_off_c, 0, 70, 64
7, 90540, Note_on_c, 0, 69, 127
7, 90598, Note_off_c, 0, 69, 64
7, 90600, Note_on_c, 0, 70, 127
7, 90658, Note_off_c, 0, 70, 64
7, 90660, Note_on_c, 0, 67, 127
7, 90718, Note_off_c, 0, 67, 64
7, 90720, Note_on_c, 0, 69, 127
7, 90778, Note_off_c, 0, 69, 64
7, 90780, Note_on_c, 0, 70, 127
7, 90838, Note_off_c, 0, 70, 64
7, 90840, Note_on_c, 0, 72, 127
7, 90898, Note_off_c, 0, 72, 64
7, 90900, Note_on_c, 0, 74, 127
7, 90958, Note_off_c, 0, 74, 64
7, 90960, Note_on_c, 0, 75, 127
7, 91018, Note_off_c, 0, 75, 64
7, 91020, Note_on_c, 0, 74, 127
7, 91078, Note_off_c, 0, 74, 64
7, 91080, Note_on_c, 0, 72, 127
7, 91138, Note_off_c, 0, 72, 64
7, 91140, Note_on_c, 0, 74, 127
7, 91198, Note_off_c, 0, 74, 64
7, 91200, Note_on_c, 0, 70, 127
7, 91258, Note_off_c, 0, 70, 64
7, 91260, Note_on_c, 0, 72, 127
7, 91318, Note_off_c, 0, 72, 64
7, 91320, Note_on_c, 0, 69, 127
7, 91378, Note_off_c, 0, 69, 64
7, 91380, Note_on_c, 0, 70, 127
7, 91438, Note_off_c, 0, 70, 64
7, 91440, Note_on_c, 0, 67, 127
7, 91558, Note_off_c, 0, 67, 64
7, 91560, Note_on_c, 0, 71, 127
7, 91678, Note_off_c, 0, 71, 64
7, 91680, Note_on_c, 0, 72, 127
7, 91738, Note_off_c, 0, 72, 64
7, 91740, Note_on_c, 0, 75, 127
7, 91798, Note_off_c, 0, 75, 64
7, 91800, Note_on_c, 0, 77, 127
7, 91858, Note_off_c, 0, 77, 64
7, 91860, Note_on_c, 0, 79, 127
7, 91918, Note_off_c, 0, 79, 64
7, 91920, Note_on_c, 0, 80, 127
7, 91978, Note_off_c, 0, 80, 64
7, 91980, Note_on_c, 0, 79, 127
7, 92038, Note_off_c, 0, 79, 64
7, 92040, Note_on_c, 0, 77, 127
7, 92098, Note_off_c, 0, 77, 64
7, 92100, Note_on_c, 0, 79, 127
7, 92158, Note_off_c, 0, 79, 64
7, 92160, Note_on_c, 0, 75, 127
7, 92218, Note_off_c, 0, 75, 64
7, 92220, Note_on_c, 0, 77, 127
7, 92278, Note_off_c, 0, 77, 64
7, 92280, Note_on_c, 0, 74, 127
7, 92338, Note_off_c, 0, 74, 64
7, 92340, Note_on_c, 0, 75, 127
7, 92398, Note_off_c, 0, 75, 64
7, 92400, Note_on_c, 0, 72, 127
7, 92518, Note_off_c, 0, 72, 64
7, 92520, Note_on_c, 0, 70, 127
7, 92638, Note_off_c, 0, 70, 64
7, 92640, Note_on_c, 0, 69, 127
7, 92758, Note_off_c, 0, 69, 64
7, 92760, Note_on_c, 0, 70, 127
7, 92998, Note_off_c, 0, 70, 64
7, 93000, Note_on_c, 0, 69, 127
7, 93238, Note_off_c, 0, 69, 64
7, 93240, Note_on_c, 0, 67, 127
7, 93478, Note_off_c, 0, 67, 64
7, 93480, Note_on_c, 0, 66, 127
7, 93598, Note_off_c, 0, 66, 64
7, 93600, Note_on_c, 0, 65, 127
7, 93718, Note_off_c, 0, 65, 64
7, 93720, Note_on_c, 0, 63, 127
7, 93958, Note_off_c, 0, 63, 64
7, 93960, Note_on_c, 0, 62, 127
7, 94018, Note_off_c, 0, 62, 64
7, 94020, Note_on_c, 0, 70, 127
7, 94078, Note_off_c, 0, 70, 64
7, 94080, Note_on_c, 0, 69, 127
7, 94138, Note_off_c, 0, 69, 64
7, 94140, Note_on_c, 0, 70, 127
7, 94198, Note_off_c, 0, 70, 64
7, 94200, Note_on_c, 0, 69, 127
7, 94258, Note_off_c, 0, 69, 64
7, 94260, Note_on_c, 0, 67, 127
7, 94318, Note_off_c, 0, 67, 64
7, 94320, Note_on_c, 0, 66, 127
7, 94378, Note_off_c, 0, 66, 64
7, 94380, Note_on_c, 0, 75, 127
7, 94438, Note_off_c, 0, 75, 64
7, 94440, Note_on_c, 0, 74, 127
7, 94498, Note_off_c, 0, 74, 64
7, 94500, Note_on_c, 0, 72, 127
7, 94558, Note_off_c, 0, 72, 64
7, 94560, Note_on_c, 0, 70, 127
7, 94618, Note_off_c, 0, 70, 64
7, 94620, Note_on_c, 0, 81, 127
7, 94678, Note_off_c, 0, 81, 64
7, 94680, Note_on_c, 0, 79, 127
7, 94738, Note_off_c, 0, 79, 64
7, 94740, Note_on_c, 0, 78, 127
7, 94798, Note_off_c, 0, 78, 64
7, 94800, Note_on_c, 0, 79, 127
7, 94978, Note_off_c, 0, 79, 64
7, 94980, Note_on_c, 0, 77, 127
7, 95038, Note_off_c, 0, 77, 64
7, 95040, Note_on_c, 0, 75, 127
7, 95098, Note_off_c, 0, 75, 64
7, 95100, Note_on_c, 0, 77, 127
7, 95158, Note_off_c, 0, 77, 64
7, 95160, Note_on_c, 0, 74, 127
7, 95218, Note_off_c, 0, 74, 64
7, 95220, Note_on_c, 0, 75, 127
7, 95278, Note_off_c, 0, 75, 64
7, 95280, Note_on_c, 0, 73, 127
7, 95518, Note_off_c, 0, 73, 64
7, 95520, Note_on_c, 0, 69, 127
7, 95520, Note_on_c, 0, 74, 127
7, 95758, Note_off_c, 0, 74, 64
7, 95758, Note_off_c, 0, 69, 64
7, 95760, Note_on_c, 0, 66, 127
7, 95760, Note_on_c, 0, 72, 127
7, 95998, Note_off_c, 0, 72, 64
7, 95998, Note_off_c, 0, 66, 64
7, 96000, Note_on_c, 0, 70, 127
7, 96238, Note_off_c, 0, 70, 64
7, 96240, Note_on_c, 0, 61, 127
7, 96240, Note_on_c, 0, 69, 127
7, 96358, Note_off_c, 0, 69, 64
7, 96358, Note_off_c, 0, 61, 64
7, 96360, Note_on_c, 0, 64, 127
7, 96360, Note_on_c, 0, 73, 127
7, 96478, Note_off_c, 0, 73, 64
7, 96478, Note_off_c, 0, 64, 64
7, 96480, Note_on_c, 0, 65, 127
7, 96480, Note_on_c, 0, 74, 127
7, 96598, Note_off_c, 0, 74, 64
7, 96598, Note_off_c, 0, 65, 64
7, 96600, Note_on_c, 0, 67, 127
7, 96600, Note_on_c, 0, 76, 127
7, 96718, Note_off_c, 0, 76, 64
7, 96718, Note_off_c, 0, 67, 64
7, 96720, Note_on_c, 0, 77, 127
7, 96840, Note_on_c, 0, 74, 127
7, 96958, Note_off_c, 0, 77, 64
7, 96960, Note_on_c, 0, 76, 127
7, 97198, Note_off_c, 0, 74, 64
7, 97200, Note_on_c, 0, 73, 127
7, 97438, Note_off_c, 0, 73, 64
7, 97438, Note_off_c, 0, 76, 64
7, 97440, Note_on_c, 0, 74, 127
7, 97798, Note_off_c, 0, 74, 64
7, 97800, Note_on_c, 0, 77, 127
7, 97918, Note_off_c, 0, 77, 64
7, 97920, Note_on_c, 0, 79, 127
7, 98038, Note_off_c, 0, 79, 64
7, 98040, Note_on_c, 0, 74, 127
7, 98158, Note_off_c, 0, 74, 64
7, 98160, Note_on_c, 0, 73, 127
7, 98278, Note_off_c, 0, 73, 64
7, 98280, Note_on_c, 0, 74, 127
7, 98398, Note_off_c, 0, 74, 64
7, 98400, Note_on_c, 0, 76, 127
7, 98518, Note_off_c, 0, 76, 64
7, 98520, Note_on_c, 0, 74, 127
7, 98638, Note_off_c, 0, 74, 64
7, 98640, Note_on_c, 0, 73, 127
7, 98758, Note_off_c, 0, 73, 64
7, 98760, Note_on_c, 0, 74, 127
7, 98878, Note_off_c, 0, 74, 64
7, 98880, Note_on_c, 0, 76, 127
7, 98998, Note_off_c, 0, 76, 64
7, 99000, Note_on_c, 0, 74, 127
7, 99118, Note_off_c, 0, 74, 64
7, 99120, Note_on_c, 0, 73, 127
7, 99238, Note_off_c, 0, 73, 64
7, 99240, Note_on_c, 0, 74, 127
7, 99358, Note_off_c, 0, 74, 64
7, 99360, Note_on_c, 0, 76, 127
7, 99478, Note_off_c, 0, 76, 64
7, 99480, Note_on_c, 0, 79, 127
7, 99598, Note_off_c, 0, 79, 64
7, 99600, Note_on_c, 0, 77, 127
7, 99718, Note_off_c, 0, 77, 64
7, 99720, Note_on_c, 0, 74, 127
7, 99838, Note_off_c, 0, 74, 64
7, 99840, Note_on_c, 0, 70, 127
7, 99958, Note_off_c, 0, 70, 64
7, 99960, Note_on_c, 0, 76, 127
7, 100078, Note_off_c, 0, 76, 64
7, 100080, Note_on_c, 0, 74, 127
7, 100198, Note_off_c, 0, 74, 64
7, 100200, Note_on_c, 0, 74, 127
7, 100318, Note_off_c, 0, 74, 64
7, 100320, Note_on_c, 0, 73, 127
7, 100558, Note_off_c, 0, 73, 64
7, 100560, Note_on_c, 0, 74, 127
7, 100678, Note_off_c, 0, 74, 64
7, 100680, Note_on_c, 0, 76, 127
7, 100798, Note_off_c, 0, 76, 64
7, 100800, Note_on_c, 0, 77, 127
7, 100918, Note_off_c, 0, 77, 64
7, 100920, Note_on_c, 0, 76, 127
7, 101038, Note_off_c, 0, 76, 64
7, 101040, Note_on_c, 0, 77, 127
7, 101158, Note_off_c, 0, 77, 64
7, 101160, Note_on_c, 0, 73, 127
7, 101278, Note_off_c, 0, 73, 64
7, 101280, Note_on_c, 0, 74, 127
7, 101398, Note_off_c, 0, 74, 64
7, 101400, Note_on_c, 0, 73, 127
7, 101518, Note_off_c, 0, 73, 64
7, 101520, Note_on_c, 0, 74, 127
7, 101638, Note_off_c, 0, 74, 64
7, 101640, Note_on_c, 0, 76, 127
7, 101758, Note_off_c, 0, 76, 64
7, 101760, Note_on_c, 0, 77, 127
7, 101878, Note_off_c, 0, 77, 64
7, 101880, Note_on_c, 0, 76, 127
7, 101998, Note_off_c, 0, 76, 64
7, 102000, Note_on_c, 0, 77, 127
7, 102118, Note_off_c, 0, 77, 64
7, 102120, Note_on_c, 0, 79, 127
7, 102238, Note_off_c, 0, 79, 64
7, 102240, Note_on_c, 0, 81, 127
7, 102298, Note_off_c, 0, 81, 64
7, 102300, Note_on_c, 0, 82, 127
7, 102358, Note_off_c, 0, 82, 64
7, 102360, Note_on_c, 0, 79, 127
7, 102418, Note_off_c, 0, 79, 64
7, 102420, Note_on_c, 0, 81, 127
7, 102478, Note_off_c, 0, 81, 64
7, 102480, Note_on_c, 0, 77, 127
7, 102538, Note_off_c, 0, 77, 64
7, 102540, Note_on_c, 0, 79, 127
7, 102598, Note_off_c, 0, 79, 64
7, 102600, Note_on_c, 0, 76, 127
7, 102658, Note_off_c, 0, 76, 64
7, 102660, Note_on_c, 0, 77, 127
7, 102718, Note_off_c, 0, 77, 64
7, 102720, Note_on_c, 0, 74, 127
7, 102778, Note_off_c, 0, 74, 64
7, 102780, Note_on_c, 0, 69, 127
7, 102838, Note_off_c, 0, 69, 64
7, 102840, Note_on_c, 0, 73, 127
7, 102898, Note_off_c, 0, 73, 64
7, 102900, Note_on_c, 0, 69, 127
7, 102958, Note_off_c, 0, 69, 64
7, 102960, Note_on_c, 0, 74, 127
7, 103018, Note_off_c, 0, 74, 64
7, 103020, Note_on_c, 0, 69, 127
7, 103078, Note_off_c, 0, 69, 64
7, 103080, Note_on_c, 0, 76, 127
7, 103138, Note_off_c, 0, 76, 64
7, 103140, Note_on_c, 0, 69, 127
7, 103198, Note_off_c, 0, 69, 64
7, 103200, Note_on_c, 0, 77, 127
7, 103258, Note_off_c, 0, 77, 64
7, 103260, Note_on_c, 0, 69, 127
7, 103318, Note_off_c, 0, 69, 64
7, 103320, Note_on_c, 0, 76, 127
7, 103378, Note_off_c, 0, 76, 64
7, 103380, Note_on_c, 0, 69, 127
7, 103438, Note_off_c, 0, 69, 64
7, 103440, Note_on_c, 0, 77, 127
7, 103498, Note_off_c, 0, 77, 64
7, 103500, Note_on_c, 0, 69, 127
7, 103558, Note_off_c, 0, 69, 64
7, 103560, Note_on_c, 0, 79, 127
7, 103618, Note_off_c, 0, 79, 64
7, 103620, Note_on_c, 0, 69, 127
7, 103678, Note_off_c, 0, 69, 64
7, 103680, Note_on_c, 0, 81, 127
7, 103738, Note_off_c, 0, 81, 64
7, 103740, Note_on_c, 0, 69, 127
7, 103798, Note_off_c, 0, 69, 64
7, 103800, Note_on_c, 0, 76, 127
7, 103858, Note_off_c, 0, 76, 64
7, 103860, Note_on_c, 0, 69, 127
7, 103918, Note_off_c, 0, 69, 64
7, 103920, Note_on_c, 0, 77, 127
7, 103978, Note_off_c, 0, 77, 64
7, 103980, Note_on_c, 0, 69, 127
7, 104038, Note_off_c, 0, 69, 64
7, 104040, Note_on_c, 0, 79, 127
7, 104098, Note_off_c, 0, 79, 64
7, 104100, Note_on_c, 0, 69, 127
7, 104158, Note_off_c, 0, 69, 64
7, 104160, Note_on_c, 0, 81, 127
7, 104398, Note_off_c, 0, 81, 64
7, 106140, Note_on_c, 0, 76, 127
7, 106198, Note_off_c, 0, 76, 64
7, 106200, Note_on_c, 0, 74, 127
7, 106258, Note_off_c, 0, 74, 64
7, 106260, Note_on_c, 0, 73, 127
7, 106318, Note_off_c, 0, 73, 64
7, 106320, Note_on_c, 0, 74, 127
7, 106438, Note_off_c, 0, 74, 64
7, 106500, Note_on_c, 0, 77, 127
7, 106558, Note_off_c, 0, 77, 64
7, 106560, Note_on_c, 0, 76, 127
7, 106618, Note_off_c, 0, 76, 64
7, 106620, Note_on_c, 0, 77, 127
7, 106678, Note_off_c, 0, 77, 64
7, 106680, Note_on_c, 0, 79, 127
7, 106738, Note_off_c, 0, 79, 64
7, 106740, Note_on_c, 0, 81, 127
7, 106798, Note_off_c, 0, 81, 64
7, 106800, Note_on_c, 0, 82, 127
7, 106858, Note_off_c, 0, 82, 64
7, 106860, Note_on_c, 0, 81, 127
7, 106918, Note_off_c, 0, 81, 64
7, 106920, Note_on_c, 0, 79, 127
7, 106978, Note_off_c, 0, 79, 64
7, 106980, Note_on_c, 0, 81, 127
7, 107038, Note_off_c, 0, 81, 64
7, 107040, Note_on_c, 0, 77, 127
7, 107158, Note_off_c, 0, 77, 64
7, 107160, Note_on_c, 0, 76, 127
7, 107278, Note_off_c, 0, 76, 64
7, 107280, Note_on_c, 0, 74, 127
7, 107338, Note_off_c, 0, 74, 64
7, 107340, Note_on_c, 0, 76, 127
7, 107398, Note_off_c, 0, 76, 64
7, 107400, Note_on_c, 0, 77, 127
7, 107458, Note_off_c, 0, 77, 64
7, 107460, Note_on_c, 0, 75, 127
7, 107518, Note_off_c, 0, 75, 64
7, 107520, Note_on_c, 0, 74, 127
7, 107578, Note_off_c, 0, 74, 64
7, 107580, Note_on_c, 0, 72, 127
7, 107638, Note_off_c, 0, 72, 64
7, 107640, Note_on_c, 0, 70, 127
7, 107698, Note_off_c, 0, 70, 64
7, 107700, Note_on_c, 0, 69, 127
7, 107758, Note_off_c, 0, 69, 64
7, 107760, Note_on_c, 0, 67, 127
7, 107818, Note_off_c, 0, 67, 64
7, 107820, Note_on_c, 0, 69, 127
7, 107878, Note_off_c, 0, 69, 64
7, 107880, Note_on_c, 0, 70, 127
7, 107938, Note_off_c, 0, 70, 64
7, 107940, Note_on_c, 0, 72, 127
7, 107998, Note_off_c, 0, 72, 64
7, 108000, Note_on_c, 0, 69, 127
7, 108238, Note_off_c, 0, 69, 64
7, 108360, Note_on_c, 0, 72, 127
7, 108598, Note_off_c, 0, 72, 64
7, 108600, Note_on_c, 0, 70, 127
7, 108718, Note_off_c, 0, 70, 64
7, 108840, Note_on_c, 0, 79, 127
7, 108958, Note_off_c, 0, 79, 64
7, 108960, Note_on_c, 0, 75, 127
7, 109018, Note_off_c, 0, 75, 64
7, 109020, Note_on_c, 0, 77, 127
7, 109078, Note_off_c, 0, 77, 64
7, 109080, Note_on_c, 0, 74, 127
7, 109138, Note_off_c, 0, 74, 64
7, 109140, Note_on_c, 0, 75, 127
7, 109198, Note_off_c, 0, 75, 64
7, 109200, Note_on_c, 0, 72, 127
7, 109258, Note_off_c, 0, 72, 64
7, 109260, Note_on_c, 0, 70, 127
7, 109318, Note_off_c, 0, 70, 64
7, 109320, Note_on_c, 0, 69, 127
7, 109378, Note_off_c, 0, 69, 64
7, 109380, Note_on_c, 0, 67, 127
7, 109438, Note_off_c, 0, 67, 64
7, 109440, Note_on_c, 0, 69, 127
7, 109678, Note_off_c, 0, 69, 64
7, 109680, Note_on_c, 0, 57, 127
7, 109738, Note_off_c, 0, 57, 64
7, 109740, Note_on_c, 0, 62, 127
7, 109798, Note_off_c, 0, 62, 64
7, 109800, Note_on_c, 0, 57, 127
7, 109858, Note_off_c, 0, 57, 64
7, 109860, Note_on_c, 0, 55, 127
7, 109918, Note_off_c, 0, 55, 64
7, 110160, Note_on_c, 0, 57, 127
7, 110218, Note_off_c, 0, 57, 64
7, 110220, Note_on_c, 0, 62, 127
7, 110278, Note_off_c, 0, 62, 64
7, 110280, Note_on_c, 0, 57, 127
7, 110338, Note_off_c, 0, 57, 64
7, 110340, Note_on_c, 0, 54, 127
7, 110398, Note_off_c, 0, 54, 64
7, 110640, Note_on_c, 0, 58, 127
7, 110698, Note_off_c, 0, 58, 64
7, 110700, Note_on_c, 0, 62, 127
7, 110758, Note_off_c, 0, 62, 64
7, 110760, Note_on_c, 0, 58, 127
7, 110818, Note_off_c, 0, 58, 64
7, 110820, Note_on_c, 0, 57, 127
7, 110878, Note_off_c, 0, 57, 64
7, 111120, Note_on_c, 0, 58, 127
7, 111178, Note_off_c, 0, 58, 64
7, 111180, Note_on_c, 0, 62, 127
7, 111238, Note_off_c, 0, 62, 64
7, 111240, Note_on_c, 0, 60, 127
7, 111298, Note_off_c, 0, 60, 64
7, 111300, Note_on_c, 0, 58, 127
7, 111358, Note_off_c, 0, 58, 64
7, 111600, Note_on_c, 0, 60, 127
7, 111658, Note_off_c, 0, 60, 64
7, 111660, Note_on_c, 0, 63, 127
7, 111718, Note_off_c, 0, 63, 64
7, 111720, Note_on_c, 0, 60, 127
7, 111778, Note_off_c, 0, 60, 64
7, 111780, Note_on_c, 0, 58, 127
7, 111838, Note_off_c, 0, 58, 64
7, 112080, Note_on_c, 0, 60, 127
7, 112138, Note_off_c, 0, 60, 64
7, 112140, Note_on_c, 0, 63, 127
7, 112198, Note_off_c, 0, 63, 64
7, 112200, Note_on_c, 0, 60, 127
7, 112258, Note_off_c, 0, 60, 64
7, 112260, Note_on_c, 0, 58, 127
7, 112318, Note_off_c, 0, 58, 64
7, 112560, Note_on_c, 0, 67, 127
7, 112618, Note_off_c, 0, 67, 64
7, 112620, Note_on_c, 0, 70, 127
7, 112678, Note_off_c, 0, 70, 64
7, 112680, Note_on_c, 0, 67, 127
7, 112738, Note_off_c, 0, 67, 64
7, 112740, Note_on_c, 0, 62, 127
7, 112798, Note_off_c, 0, 62, 64
7, 113040, Note_on_c, 0, 67, 127
7, 113098, Note_off_c, 0, 67, 64
7, 113100, Note_on_c, 0, 70, 127
7, 113158, Note_off_c, 0, 70, 64
7, 113160, Note_on_c, 0, 67, 127
7, 113218, Note_off_c, 0, 67, 64
7, 113220, Note_on_c, 0, 62, 127
7, 113278, Note_off_c, 0, 62, 64
7, 113520, Note_on_c, 0, 66, 127
7, 113578, Note_off_c, 0, 66, 64
7, 113580, Note_on_c, 0, 69, 127
7, 113638, Note_off_c, 0, 69, 64
7, 113640, Note_on_c, 0, 66, 127
7, 113698, Note_off_c, 0, 66, 64
7, 113700, Note_on_c, 0, 63, 127
7, 113758, Note_off_c, 0, 63, 64
7, 114000, Note_on_c, 0, 66, 127
7, 114058, Note_off_c, 0, 66, 64
7, 114060, Note_on_c, 0, 69, 127
7, 114118, Note_off_c, 0, 69, 64
7, 114120, Note_on_c, 0, 66, 127
7, 114178, Note_off_c, 0, 66, 64
7, 114180, Note_on_c, 0, 63, 127
7, 114238, Note_off_c, 0, 63, 64
7, 114240, Note_on_c, 0, 62, 127
7, 114358, Note_off_c, 0, 62, 64
7, 114480, Note_on_c, 0, 67, 127
7, 114480, Note_on_c, 0, 74, 127
7, 114598, Note_off_c, 0, 74, 64
7, 114598, Note_off_c, 0, 67, 64
7, 114600, Note_on_c, 0, 66, 127
7, 114600, Note_on_c, 0, 72, 127
7, 114718, Note_off_c, 0, 72, 64
7, 114718, Note_off_c, 0, 66, 64
7, 114720, Note_on_c, 0, 70, 127
7, 114720, Note_on_c, 0, 67, 127
7, 114958, Note_off_c, 0, 67, 64
7, 114958, Note_off_c, 0, 70, 64
7, 114960, Note_on_c, 0, 67, 127
7, 114960, Note_on_c, 0, 72, 127
7, 115078, Note_off_c, 0, 72, 64
7, 115078, Note_off_c, 0, 67, 64
7, 115080, Note_on_c, 0, 74, 127
7, 115080, Note_on_c, 0, 71, 127
7, 115198, Note_off_c, 0, 71, 64
7, 115198, Note_off_c, 0, 74, 64
7, 115200, Note_on_c, 0, 75, 127
7, 115200, Note_on_c, 0, 72, 127
7, 115438, Note_off_c, 0, 72, 64
7, 115438, Note_off_c, 0, 75, 64
7, 115440, Note_on_c, 0, 72, 127
7, 115440, Note_on_c, 0, 77, 127
7, 115558, Note_off_c, 0, 77, 64
7, 115558, Note_off_c, 0, 72, 64
7, 115560, Note_on_c, 0, 76, 127
7, 115560, Note_on_c, 0, 79, 127
7, 115678, Note_off_c, 0, 79, 64
7, 115678, Note_off_c, 0, 76, 64
7, 115680, Note_on_c, 0, 77, 127
7, 115680, Note_on_c, 0, 81, 127
7, 115918, Note_off_c, 0, 81, 64
7, 115918, Note_off_c, 0, 77, 64
7, 115920, Note_on_c, 0, 70, 127
7, 115920, Note_on_c, 0, 77, 127
7, 116038, Note_off_c, 0, 77, 64
7, 116038, Note_off_c, 0, 70, 64
7, 116040, Note_on_c, 0, 75, 127
7, 116040, Note_on_c, 0, 69, 127
7, 116158, Note_off_c, 0, 69, 64
7, 116158, Note_off_c, 0, 75, 64
7, 116160, Note_on_c, 0, 70, 127
7, 116160, Note_on_c, 0, 74, 127
7, 116218, Note_off_c, 0, 74, 64
7, 116218, Note_off_c, 0, 70, 64
7, 116220, Note_on_c, 0, 75, 127
7, 116278, Note_off_c, 0, 75, 64
7, 116280, Note_on_c, 0, 74, 127
7, 116338, Note_off_c, 0, 74, 64
7, 116340, Note_on_c, 0, 72, 127
7, 116398, Note_off_c, 0, 72, 64
7, 116400, Note_on_c, 0, 70, 127
7, 116458, Note_off_c, 0, 70, 64
7, 116460, Note_on_c, 0, 72, 127
7, 116518, Note_off_c, 0, 72, 64
7, 116520, Note_on_c, 0, 70, 127
7, 116578, Note_off_c, 0, 70, 64
7, 116580, Note_on_c, 0, 69, 127
7, 116638, Note_off_c, 0, 69, 64
7, 116640, Note_on_c, 0, 67, 127
7, 116698, Note_off_c, 0, 67, 64
7, 116700, Note_on_c, 0, 72, 127
7, 116758, Note_off_c, 0, 72, 64
7, 116760, Note_on_c, 0, 70, 127
7, 116818, Note_off_c, 0, 70, 64
7, 116820, Note_on_c, 0, 69, 127
7, 116878, Note_off_c, 0, 69, 64
7, 116880, Note_on_c, 0, 67, 127
7, 116938, Note_off_c, 0, 67, 64
7, 116940, Note_on_c, 0, 69, 127
7, 116998, Note_off_c, 0, 69, 64
7, 117000, Note_on_c, 0, 67, 127
7, 117058, Note_off_c, 0, 67, 64
7, 117060, Note_on_c, 0, 66, 127
7, 117118, Note_off_c, 0, 66, 64
7, 117120, Note_on_c, 0, 67, 127
7, 117178, Note_off_c, 0, 67, 64
7, 117180, Note_on_c, 0, 65, 127
7, 117238, Note_off_c, 0, 65, 64
7, 117240, Note_on_c, 0, 64, 127
7, 117298, Note_off_c, 0, 64, 64
7, 117300, Note_on_c, 0, 62, 127
7, 117358, Note_off_c, 0, 62, 64
7, 117360, Note_on_c, 0, 61, 127
7, 117478, Note_off_c, 0, 61, 64
7, 117480, Note_on_c, 0, 64, 127
7, 117598, Note_off_c, 0, 64, 64
7, 117600, Note_on_c, 0, 65, 127
7, 117658, Note_off_c, 0, 65, 64
7, 117660, Note_on_c, 0, 67, 127
7, 117718, Note_off_c, 0, 67, 64
7, 117720, Note_on_c, 0, 69, 127
7, 117778, Note_off_c, 0, 69, 64
7, 117780, Note_on_c, 0, 71, 127
7, 117838, Note_off_c, 0, 71, 64
7, 117840, Note_on_c, 0, 73, 127
7, 117898, Note_off_c, 0, 73, 64
7, 117900, Note_on_c, 0, 74, 127
7, 117958, Note_off_c, 0, 74, 64
7, 117960, Note_on_c, 0, 76, 127
7, 118018, Note_off_c, 0, 76, 64
7, 118020, Note_on_c, 0, 77, 127
7, 118078, Note_off_c, 0, 77, 64
7, 118080, Note_on_c, 0, 79, 127
7, 118198, Note_off_c, 0, 79, 64
7, 118200, Note_on_c, 0, 77, 127
7, 118258, Note_off_c, 0, 77, 64
7, 118260, Note_on_c, 0, 76, 127
7, 118318, Note_off_c, 0, 76, 64
7, 118320, Note_on_c, 0, 74, 127
7, 118438, Note_off_c, 0, 74, 64
7, 118440, Note_on_c, 0, 73, 127
7, 118558, Note_off_c, 0, 73, 64
7, 118560, Note_on_c, 0, 74, 127
7, 118678, Note_off_c, 0, 74, 64
7, 118680, Note_on_c, 0, 76, 127
7, 118798, Note_off_c, 0, 76, 64
7, 118800, Note_on_c, 0, 77, 127
7, 118918, Note_off_c, 0, 77, 64
7, 118920, Note_on_c, 0, 79, 127
7, 119038, Note_off_c, 0, 79, 64
7, 119040, Note_on_c, 0, 81, 127
7, 119158, Note_off_c, 0, 81, 64
7, 119160, Note_on_c, 0, 73, 127
7, 119278, Note_off_c, 0, 73, 64
7, 119280, Note_on_c, 0, 74, 127
7, 119398, Note_off_c, 0, 74, 64
7, 119400, Note_on_c, 0, 76, 127
7, 119518, Note_off_c, 0, 76, 64
7, 119520, Note_on_c, 0, 77, 127
7, 119638, Note_off_c, 0, 77, 64
7, 119640, Note_on_c, 0, 76, 127
7, 119758, Note_off_c, 0, 76, 64
7, 119760, Note_on_c, 0, 77, 127
7, 119878, Note_off_c, 0, 77, 64
7, 119880, Note_on_c, 0, 74, 127
7, 119998, Note_off_c, 0, 74, 64
7, 120000, Note_on_c, 0, 76, 127
7, 120118, Note_off_c, 0, 76, 64
7, 120120, Note_on_c, 0, 74, 127
7, 120120, Note_on_c, 0, 69, 127
7, 120238, Note_off_c, 0, 69, 64
7, 120238, Note_off_c, 0, 74, 64
7, 120240, Note_on_c, 0, 70, 127
7, 120240, Note_on_c, 0, 74, 127
7, 120358, Note_off_c, 0, 74, 64
7, 120358, Note_off_c, 0, 70, 64
7, 120360, Note_on_c, 0, 73, 127
7, 120360, Note_on_c, 0, 69, 127
7, 120478, Note_off_c, 0, 69, 64
7, 120478, Note_off_c, 0, 73, 64
7, 120480, Note_on_c, 0, 74, 127
7, 120480, Note_on_c, 0, 69, 127
7, 120598, Note_off_c, 0, 69, 64
7, 120598, Note_off_c, 0, 74, 64
7, 120600, Note_on_c, 0, 77, 127
7, 120600, Note_on_c, 0, 74, 127
7, 120718, Note_off_c, 0, 74, 64
7, 120718, Note_off_c, 0, 77, 64
7, 120720, Note_on_c, 0, 76, 127
7, 120720, Note_on_c, 0, 74, 127
7, 120838, Note_off_c, 0, 74, 64
7, 120840, Note_on_c, 0, 72, 127
7, 120958, Note_off_c, 0, 72, 64
7, 120958, Note_off_c, 0, 76, 64
7, 120960, Note_on_c, 0, 70, 127
7, 120960, Note_on_c, 0, 65, 127
7, 120960, Note_on_c, 0, 74, 127
7, 121438, Note_off_c, 0, 74, 64
7, 121438, Note_off_c, 0, 65, 64
7, 121438, Note_off_c, 0, 70, 64
7, 121470, Note_on_c, 0, 77, 127
7, 121498, Note_off_c, 0, 77, 64
7, 121500, Note_on_c, 0, 79, 127
7, 121528, Note_off_c, 0, 79, 64
7, 121530, Note_on_c, 0, 81, 127
7, 121558, Note_off_c, 0, 81, 64
7, 121560, Note_on_c, 0, 82, 127
7, 121588, Note_off_c, 0, 82, 64
7, 121710, Note_on_c, 0, 72, 127
7, 121738, Note_off_c, 0, 72, 64
7, 121740, Note_on_c, 0, 74, 127
7, 121768, Note_off_c, 0, 74, 64
7, 121770, Note_on_c, 0, 75, 127
7, 121798, Note_off_c, 0, 75, 64
7, 121800, Note_on_c, 0, 77, 127
7, 121828, Note_off_c, 0, 77, 64
7, 121950, Note_on_c, 0, 69, 127
7, 121978, Note_off_c, 0, 69, 64
7, 121980, Note_on_c, 0, 70, 127
7, 122008, Note_off_c, 0, 70, 64
7, 122010, Note_on_c, 0, 72, 127
7, 122038, Note_off_c, 0, 72, 64
7, 122040, Note_on_c, 0, 74, 127
7, 122068, Note_off_c, 0, 74, 64
7, 122190, Note_on_c, 0, 67, 127
7, 122218, Note_off_c, 0, 67, 64
7, 122220, Note_on_c, 0, 69, 127
7, 122248, Note_off_c, 0, 69, 64
7, 122250, Note_on_c, 0, 70, 127
7, 122278, Note_off_c, 0, 70, 64
7, 122280, Note_on_c, 0, 72, 127
7, 122308, Note_off_c, 0, 72, 64
7, 122430, Note_on_c, 0, 65, 127
7, 122458, Note_off_c, 0, 65, 64
7, 122460, Note_on_c, 0, 67, 127
7, 122488, Note_off_c, 0, 67, 64
7, 122490, Note_on_c, 0, 69, 127
7, 122518, Note_off_c, 0, 69, 64
7, 122520, Note_on_c, 0, 70, 127
7, 122548, Note_off_c, 0, 70, 64
7, 122670, Note_on_c, 0, 60, 127
7, 122698, Note_off_c, 0, 60, 64
7, 122700, Note_on_c, 0, 62, 127
7, 122728, Note_off_c, 0, 62, 64
7, 122730, Note_on_c, 0, 63, 127
7, 122758, Note_off_c, 0, 63, 64
7, 122760, Note_on_c, 0, 65, 127
7, 122788, Note_off_c, 0, 65, 64
7, 122910, Note_on_c, 0, 57, 127
7, 122938, Note_off_c, 0, 57, 64
7, 122940, Note_on_c, 0, 58, 127
7, 122968, Note_off_c, 0, 58, 64
7, 122970, Note_on_c, 0, 60, 127
7, 122998, Note_off_c, 0, 60, 64
7, 123000, Note_on_c, 0, 62, 127
7, 123028, Note_off_c, 0, 62, 64
7, 123150, Note_on_c, 0, 58, 127
7, 123178, Note_off_c, 0, 58, 64
7, 123180, Note_on_c, 0, 60, 127
7, 123208, Note_off_c, 0, 60, 64
7, 123210, Note_on_c, 0, 62, 127
7, 123238, Note_off_c, 0, 62, 64
7, 123240, Note_on_c, 0, 63, 127
7, 123268, Note_off_c, 0, 63, 64
7, 123390, Note_on_c, 0, 60, 127
7, 123418, Note_off_c, 0, 60, 64
7, 123420, Note_on_c, 0, 62, 127
7, 123448, Note_off_c, 0, 62, 64
7, 123450, Note_on_c, 0, 64, 127
7, 123478, Note_off_c, 0, 64, 64
7, 123480, Note_on_c, 0, 66, 127
7, 123508, Note_off_c, 0, 66, 64
7, 123630, Note_on_c, 0, 66, 127
7, 123658, Note_off_c, 0, 66, 64
7, 123660, Note_on_c, 0, 67, 127
7, 123688, Note_off_c, 0, 67, 64
7, 123690, Note_on_c, 0, 69, 127
7, 123718, Note_off_c, 0, 69, 64
7, 123720, Note_on_c, 0, 70, 127
7, 123750, Note_on_c, 0, 72, 127
7, 123778, Note_off_c, 0, 72, 64
7, 123780, Note_on_c, 0, 74, 127
7, 123780, Note_on_c, 0, 74, 127
7, 123808, Note_off_c, 0, 74, 64
7, 123810, Note_on_c, 0, 67, 127
7, 123838, Note_off_c, 0, 67, 64
7, 123838, Note_off_c, 0, 74, 64
7, 123838, Note_off_c, 0, 70, 64
7, 123840, Note_on_c, 0, 70, 127
7, 123840, Note_on_c, 0, 76, 127
7, 123840, Note_on_c, 0, 67, 127
7, 123840, Note_on_c, 0, 64, 127
7, 124558, Note_off_c, 0, 64, 64
7, 124558, Note_off_c, 0, 67, 64
7, 124558, Note_off_c, 0, 76, 64
7, 124558, Note_off_c, 0, 70, 64
7, 124560, Note_on_c, 0, 74, 127
7, 124560, Note_on_c, 0, 69, 127
7, 124560, Note_on_c, 0, 65, 127
7, 124798, Note_off_c, 0, 65, 64
7, 124798, Note_off_c, 0, 69, 64
7, 124798, Note_off_c, 0, 74, 64
7, 124800, Note_on_c, 0, 62, 127
7, 124800, Note_on_c, 0, 65, 127
7, 124800, Note_on_c, 0, 74, 127
7, 124800, Note_on_c, 0, 71, 127
7, 125278, Note_off_c, 0, 71, 64
7, 125278, Note_off_c, 0, 74, 64
7, 125278, Note_off_c, 0, 65, 64
7, 125278, Note_off_c, 0, 62, 64
7, 126120, Note_on_c, 0, 71, 127
7, 126120, Note_on_c, 0, 74, 127
7, 126120, Note_on_c, 0, 68, 127
7, 126120, Note_on_c, 0, 64, 127
7, 126238, Note_off_c, 0, 64, 64
7, 126238, Note_off_c, 0, 68, 64
7, 126238, Note_off_c, 0, 74, 64
7, 126238, Note_off_c, 0, 71, 64
7, 126240, Note_on_c, 0, 72, 127
7, 126240, Note_on_c, 0, 64, 127
7, 126240, Note_on_c, 0, 69, 127
7, 126598, Note_off_c, 0, 69, 64
7, 126600, Note_on_c, 0, 67, 127
7, 126658, Note_off_c, 0, 67, 64
7, 126660, Note_on_c, 0, 65, 127
7, 126718, Note_off_c, 0, 65, 64
7, 126718, Note_off_c, 0, 64, 64
7, 127198, Note_off_c, 0, 72, 64
7, 127230, Note_on_c, 0, 67, 127
7, 127258, Note_off_c, 0, 67, 64
7, 127260, Note_on_c, 0, 65, 127
7, 127288, Note_off_c, 0, 65, 64
7, 127290, Note_on_c, 0, 67, 127
7, 127318, Note_off_c, 0, 67, 64
7, 127320, Note_on_c, 0, 64, 127
7, 127348, Note_off_c, 0, 64, 64
7, 127470, Note_on_c, 0, 69, 127
7, 127498, Note_off_c, 0, 69, 64
7, 127500, Note_on_c, 0, 67, 127
7, 127528, Note_off_c, 0, 67, 64
7, 127530, Note_on_c, 0, 69, 127
7, 127558, Note_off_c, 0, 69, 64
7, 127560, Note_on_c, 0, 65, 127
7, 127588, Note_off_c, 0, 65, 64
7, 127710, Note_on_c, 0, 71, 127
7, 127738, Note_off_c, 0, 71, 64
7, 127740, Note_on_c, 0, 69, 127
7, 127768, Note_off_c, 0, 69, 64
7, 127770, Note_on_c, 0, 71, 127
7, 127798, Note_off_c, 0, 71, 64
7, 127800, Note_on_c, 0, 67, 127
7, 127828, Note_off_c, 0, 67, 64
7, 127950, Note_on_c, 0, 72, 127
7, 127978, Note_off_c, 0, 72, 64
7, 127980, Note_on_c, 0, 71, 127
7, 128008, Note_off_c, 0, 71, 64
7, 128010, Note_on_c, 0, 72, 127
7, 128038, Note_off_c, 0, 72, 64
7, 128070, Note_on_c, 0, 74, 127
7, 128098, Note_off_c, 0, 74, 64
7, 128100, Note_on_c, 0, 72, 127
7, 128128, Note_off_c, 0, 72, 64
7, 128130, Note_on_c, 0, 74, 127
7, 128158, Note_off_c, 0, 74, 64
7, 128190, Note_on_c, 0, 76, 127
7, 128218, Note_off_c, 0, 76, 64
7, 128220, Note_on_c, 0, 74, 127
7, 128248, Note_off_c, 0, 74, 64
7, 128250, Note_on_c, 0, 76, 127
7, 128278, Note_off_c, 0, 76, 64
7, 128310, Note_on_c, 0, 77, 127
7, 128338, Note_off_c, 0, 77, 64
7, 128340, Note_on_c, 0, 76, 127
7, 128368, Note_off_c, 0, 76, 64
7, 128370, Note_on_c, 0, 77, 127
7, 128398, Note_off_c, 0, 77, 64
7, 128430, Note_on_c, 0, 79, 127
7, 128458, Note_off_c, 0, 79, 64
7, 128460, Note_on_c, 0, 77, 127
7, 128488, Note_off_c, 0, 77, 64
7, 128490, Note_on_c, 0, 76, 127
7, 128518, Note_off_c, 0, 76, 64
7, 128520, Note_on_c, 0, 79, 127
7, 128548, Note_off_c, 0, 79, 64
7, 128550, Note_on_c, 0, 72, 127
7, 128578, Note_off_c, 0, 72, 64
7, 128580, Note_on_c, 0, 71, 127
7, 128608, Note_off_c, 0, 71, 64
7, 128610, Note_on_c, 0, 72, 127
7, 128638, Note_off_c, 0, 72, 64
7, 128670, Note_on_c, 0, 74, 127
7, 128698, Note_off_c, 0, 74, 64
7, 128700, Note_on_c, 0, 72, 127
7, 128728, Note_off_c, 0, 72, 64
7, 128730, Note_on_c, 0, 74, 127
7, 128758, Note_off_c, 0, 74, 64
7, 128760, Note_on_c, 0, 71, 127
7, 128788, Note_off_c, 0, 71, 64
7, 128910, Note_on_c, 0, 72, 127
7, 128938, Note_off_c, 0, 72, 64
7, 128940, Note_on_c, 0, 71, 127
7, 128968, Note_off_c, 0, 71, 64
7, 128970, Note_on_c, 0, 72, 127
7, 128998, Note_off_c, 0, 72, 64
7, 129000, Note_on_c, 0, 69, 127
7, 129028, Note_off_c, 0, 69, 64
7, 129150, Note_on_c, 0, 71, 127
7, 129178, Note_off_c, 0, 71, 64
7, 129180, Note_on_c, 0, 69, 127
7, 129208, Note_off_c, 0, 69, 64
7, 129210, Note_on_c, 0, 71, 127
7, 129238, Note_off_c, 0, 71, 64
7, 129270, Note_on_c, 0, 69, 127
7, 129298, Note_off_c, 0, 69, 64
7, 129300, Note_on_c, 0, 67, 127
7, 129328, Note_off_c, 0, 67, 64
7, 129330, Note_on_c, 0, 69, 127
7, 129358, Note_off_c, 0, 69, 64
7, 129390, Note_on_c, 0, 68, 127
7, 129418, Note_off_c, 0, 68, 64
7, 129420, Note_on_c, 0, 66, 127
7, 129448, Note_off_c, 0, 66, 64
7, 129450, Note_on_c, 0, 68, 127
7, 129478, Note_off_c, 0, 68, 64
7, 129480, Note_on_c, 0, 64, 127
7, 129508, Note_off_c, 0, 64, 64
7, 129630, Note_on_c, 0, 62, 127
7, 129658, Note_off_c, 0, 62, 64
7, 129660, Note_on_c, 0, 60, 127
7, 129688, Note_off_c, 0, 60, 64
7, 129690, Note_on_c, 0, 59, 127
7, 129718, Note_off_c, 0, 59, 64
7, 129750, Note_on_c, 0, 64, 127
7, 129778, Note_off_c, 0, 64, 64
7, 129780, Note_on_c, 0, 62, 127
7, 129808, Note_off_c, 0, 62, 64
7, 129810, Note_on_c, 0, 60, 127
7, 129838, Note_off_c, 0, 60, 64
7, 129870, Note_on_c, 0, 65, 127
7, 129898, Note_off_c, 0, 65, 64
7, 129900, Note_on_c, 0, 64, 127
7, 129928, Note_off_c, 0, 64, 64
7, 129930, Note_on_c, 0, 62, 127
7, 129958, Note_off_c, 0, 62, 64
7, 129990, Note_on_c, 0, 67, 127
7, 130018, Note_off_c, 0, 67, 64
7, 130020, Note_on_c, 0, 65, 127
7, 130048, Note_off_c, 0, 65, 64
7, 130050, Note_on_c, 0, 64, 127
7, 130078, Note_off_c, 0, 64, 64
7, 130110, Note_on_c, 0, 69, 127
7, 130138, Note_off_c, 0, 69, 64
7, 130140, Note_on_c, 0, 67, 127
7, 130168, Note_off_c, 0, 67, 64
7, 130170, Note_on_c, 0, 65, 127
7, 130198, Note_off_c, 0, 65, 64
7, 130230, Note_on_c, 0, 67, 127
7, 130258, Note_off_c, 0, 67, 64
7, 130260, Note_on_c, 0, 69, 127
7, 130288, Note_off_c, 0, 69, 64
7, 130290, Note_on_c, 0, 71, 127
7, 130318, Note_off_c, 0, 71, 64
7, 130320, Note_on_c, 0, 72, 127
7, 130440, Note_on_c, 0, 60, 127
7, 130440, Note_on_c, 0, 67, 127
7, 130440, Note_on_c, 0, 64, 127
7, 130558, Note_off_c, 0, 64, 64
7, 130558, Note_off_c, 0, 67, 64
7, 130558, Note_off_c, 0, 60, 64
7, 130558, Note_off_c, 0, 72, 64
7, 130560, Note_on_c, 0, 73, 127
7, 130560, Note_on_c, 0, 69, 127
7, 130560, Note_on_c, 0, 64, 127
7, 130678, Note_off_c, 0, 64, 64
7, 130678, Note_off_c, 0, 69, 64
7, 130678, Note_off_c, 0, 73, 64
7, 130770, Note_on_c, 0, 69, 127
7, 130798, Note_off_c, 0, 69, 64
7, 130800, Note_on_c, 0, 73, 127
7, 130918, Note_off_c, 0, 73, 64
7, 130920, Note_on_c, 0, 73, 127
7, 130920, Note_on_c, 0, 64, 127
7, 130920, Note_on_c, 0, 69, 127
7, 131038, Note_off_c, 0, 69, 64
7, 131038, Note_off_c, 0, 64, 64
7, 131038, Note_off_c, 0, 73, 64
7, 131040, Note_on_c, 0, 69, 127
7, 131040, Note_on_c, 0, 74, 127
7, 131040, Note_on_c, 0, 65, 127
7, 131158, Note_off_c, 0, 65, 64
7, 131158, Note_off_c, 0, 74, 64
7, 131158, Note_off_c, 0, 69, 64
7, 131250, Note_on_c, 0, 69, 127
7, 131278, Note_off_c, 0, 69, 64
7, 131280, Note_on_c, 0, 74, 127
7, 131398, Note_off_c, 0, 74, 64
7, 131400, Note_on_c, 0, 74, 127
7, 131400, Note_on_c, 0, 69, 127
7, 131400, Note_on_c, 0, 65, 127
7, 131518, Note_off_c, 0, 65, 64
7, 131518, Note_off_c, 0, 69, 64
7, 131518, Note_off_c, 0, 74, 64
7, 131520, Note_on_c, 0, 71, 127
7, 131520, Note_on_c, 0, 67, 127
7, 131520, Note_on_c, 0, 62, 127
7, 131638, Note_off_c, 0, 62, 64
7, 131638, Note_off_c, 0, 67, 64
7, 131638, Note_off_c, 0, 71, 64
7, 131730, Note_on_c, 0, 67, 127
7, 131758, Note_off_c, 0, 67, 64
7, 131760, Note_on_c, 0, 71, 127
7, 131878, Note_off_c, 0, 71, 64
7, 131880, Note_on_c, 0, 67, 127
7, 131880, Note_on_c, 0, 71, 127
7, 131880, Note_on_c, 0, 62, 127
7, 131998, Note_off_c, 0, 62, 64
7, 131998, Note_off_c, 0, 71, 64
7, 131998, Note_off_c, 0, 67, 64
7, 132000, Note_on_c, 0, 72, 127
7, 132000, Note_on_c, 0, 67, 127
7, 132000, Note_on_c, 0, 64, 127
7, 132118, Note_off_c, 0, 64, 64
7, 132118, Note_off_c, 0, 67, 64
7, 132118, Note_off_c, 0, 72, 64
7, 132210, Note_on_c, 0, 67, 127
7, 132238, Note_off_c, 0, 67, 64
7, 132240, Note_on_c, 0, 72, 127
7, 132358, Note_off_c, 0, 72, 64
7, 132360, Note_on_c, 0, 72, 127
7, 132360, Note_on_c, 0, 67, 127
7, 132360, Note_on_c, 0, 64, 127
7, 132478, Note_off_c, 0, 64, 64
7, 132478, Note_off_c, 0, 67, 64
7, 132478, Note_off_c, 0, 72, 64
7, 132480, Note_on_c, 0, 69, 127
7, 132480, Note_on_c, 0, 65, 127
7, 132480, Note_on_c, 0, 60, 127
7, 132598, Note_off_c, 0, 60, 64
7, 132598, Note_off_c, 0, 65, 64
7, 132598, Note_off_c, 0, 69, 64
7, 132690, Note_on_c, 0, 65, 127
7, 132718, Note_off_c, 0, 65, 64
7, 132720, Note_on_c, 0, 69, 127
7, 132838, Note_off_c, 0, 69, 64
7, 132840, Note_on_c, 0, 65, 127
7, 132840, Note_on_c, 0, 69, 127
7, 132840, Note_on_c, 0, 60, 127
7, 132958, Note_off_c, 0, 60, 64
7, 132958, Note_off_c, 0, 69, 64
7, 132958, Note_off_c, 0, 65, 64
7, 132960, Note_on_c, 0, 70, 127
7, 132960, Note_on_c, 0, 65, 127
7, 132960, Note_on_c, 0, 62, 127
7, 133078, Note_off_c, 0, 62, 64
7, 133078, Note_off_c, 0, 65, 64
7, 133078, Note_off_c, 0, 70, 64
7, 133170, Note_on_c, 0, 65, 127
7, 133198, Note_off_c, 0, 65, 64
7, 133200, Note_on_c, 0, 70, 127
7, 133318, Note_off_c, 0, 70, 64
7, 133320, Note_on_c, 0, 70, 127
7, 133320, Note_on_c, 0, 62, 127
7, 133320, Note_on_c, 0, 65, 127
7, 133438, Note_off_c, 0, 65, 64
7, 133438, Note_off_c, 0, 62, 64
7, 133438, Note_off_c, 0, 70, 64
7, 133440, Note_on_c, 0, 70, 127
7, 133440, Note_on_c, 0, 67, 127
7, 133440, Note_on_c, 0, 64, 127
7, 133558, Note_off_c, 0, 64, 64
7, 133558, Note_off_c, 0, 67, 64
7, 133558, Note_off_c, 0, 70, 64
7, 133650, Note_on_c, 0, 61, 127
7, 133678, Note_off_c, 0, 61, 64
7, 133680, Note_on_c, 0, 70, 127
7, 133798, Note_off_c, 0, 70, 64
7, 133800, Note_on_c, 0, 61, 127
7, 133800, Note_on_c, 0, 70, 127
7, 133800, Note_on_c, 0, 67, 127
7, 133800, Note_on_c, 0, 64, 127
7, 133918, Note_off_c, 0, 64, 64
7, 133918, Note_off_c, 0, 67, 64
7, 133918, Note_off_c, 0, 70, 64
7, 133918, Note_off_c, 0, 61, 64
7, 133920, Note_on_c, 0, 66, 127
7, 133920, Note_on_c, 0, 69, 127
7, 133920, Note_on_c, 0, 62, 127
7, 134038, Note_off_c, 0, 62, 64
7, 134038, Note_off_c, 0, 69, 64
7, 134038, Note_off_c, 0, 66, 64
7, 134130, Note_on_c, 0, 66, 127
7, 134158, Note_off_c, 0, 66, 64
7, 134160, Note_on_c, 0, 69, 127
7, 134278, Note_off_c, 0, 69, 64
7, 134280, Note_on_c, 0, 69, 127
7, 134280, Note_on_c, 0, 66, 127
7, 134280, Note_on_c, 0, 62, 127
7, 134398, Note_off_c, 0, 62, 64
7, 134398, Note_off_c, 0, 66, 64
7, 134400, Note_on_c, 0, 58, 127
7, 134400, Note_on_c, 0, 62, 127
7, 134638, Note_off_c, 0, 69, 64
7, 134640, Note_on_c, 0, 67, 127
7, 134878, Note_off_c, 0, 62, 64
7, 134878, Note_off_c, 0, 58, 64
7, 134880, Note_on_c, 0, 61, 127
7, 134880, Note_on_c, 0, 64, 127
7, 135118, Note_off_c, 0, 64, 64
7, 135118, Note_off_c, 0, 61, 64
7, 135118, Note_off_c, 0, 67, 64
7, 135120, Note_on_c, 0, 62, 127
7, 135120, Note_on_c, 0, 65, 127
7, 135358, Note_off_c, 0, 65, 64
7, 135360, Note_on_c, 0, 64, 127
7, 135598, Note_off_c, 0, 62, 64
7, 135600, Note_on_c, 0, 60, 127
7, 135838, Note_off_c, 0, 64, 64
7, 135840, Note_on_c, 0, 62, 127
7, 136078, Note_off_c, 0, 60, 64
7, 136080, Note_on_c, 0, 58, 127
7, 136318, Note_off_c, 0, 58, 64
7, 136320, Note_on_c, 0, 62, 127
7, 136320, Note_on_c, 0, 57, 127
7, 137278, Note_off_c, 0, 57, 64
7, 137278, Note_off_c, 0, 62, 64
7, 137278, Note_off_c, 0, 62, 64
7, 137278, End_track
8, 0, Start_track
8, 0, Title_t, "Settlemyer, Jr."
8, 0, Program_c, 0, 19
8, 0, Control_c, 0, 7, 127
8, 30300, Note_on_c, 0, 74, 127
8, 30358, Note_off_c, 0, 74, 64
8, 30360, Note_on_c, 0, 72, 127
8, 30418, Note_off_c, 0, 72, 64
8, 30420, Note_on_c, 0, 74, 127
8, 30478, Note_off_c, 0, 74, 64
8, 30480, Note_on_c, 0, 70, 127
8, 30538, Note_off_c, 0, 70, 64
8, 30540, Note_on_c, 0, 74, 127
8, 30598, Note_off_c, 0, 74, 64
8, 30600, Note_on_c, 0, 69, 127
8, 30658, Note_off_c, 0, 69, 64
8, 30660, Note_on_c, 0, 74, 127
8, 30718, Note_off_c, 0, 74, 64
8, 30720, Note_on_c, 0, 67, 127
8, 30778, Note_off_c, 0, 67, 64
8, 30780, Note_on_c, 0, 74, 127
8, 30838, Note_off_c, 0, 74, 64
8, 30840, Note_on_c, 0, 66, 127
8, 30898, Note_off_c, 0, 66, 64
8, 30900, Note_on_c, 0, 74, 127
8, 30958, Note_off_c, 0, 74, 64
8, 30960, Note_on_c, 0, 67, 127
8, 31018, Note_off_c, 0, 67, 64
8, 31020, Note_on_c, 0, 74, 127
8, 31078, Note_off_c, 0, 74, 64
8, 31080, Note_on_c, 0, 69, 127
8, 31138, Note_off_c, 0, 69, 64
8, 31140, Note_on_c, 0, 74, 127
8, 31198, Note_off_c, 0, 74, 64
8, 31200, Note_on_c, 0, 70, 127
8, 31258, Note_off_c, 0, 70, 64
8, 31260, Note_on_c, 0, 74, 127
8, 31318, Note_off_c, 0, 74, 64
8, 31320, Note_on_c, 0, 62, 127
8, 31378, Note_off_c, 0, 62, 64
8, 31380, Note_on_c, 0, 74, 127
8, 31438, Note_off_c, 0, 74, 64
8, 31440, Note_on_c, 0, 64, 127
8, 31498, Note_off_c, 0, 64, 64
8, 31500, Note_on_c, 0, 74, 127
8, 31558, Note_off_c, 0, 74, 64
8, 31560, Note_on_c, 0, 66, 127
8, 31618, Note_off_c, 0, 66, 64
8, 31620, Note_on_c, 0, 74, 127
8, 31678, Note_off_c, 0, 74, 64
8, 31680, Note_on_c, 0, 67, 127
8, 31738, Note_off_c, 0, 67, 64
8, 31740, Note_on_c, 0, 74, 127
8, 31798, Note_off_c, 0, 74, 64
8, 31800, Note_on_c, 0, 66, 127
8, 31858, Note_off_c, 0, 66, 64
8, 31860, Note_on_c, 0, 74, 127
8, 31918, Note_off_c, 0, 74, 64
8, 31920, Note_on_c, 0, 67, 127
8, 31978, Note_off_c, 0, 67, 64
8, 31980, Note_on_c, 0, 74, 127
8, 32038, Note_off_c, 0, 74, 64
8, 32040, Note_on_c, 0, 69, 127
8, 32098, Note_off_c, 0, 69, 64
8, 32100, Note_on_c, 0, 74, 127
8, 32158, Note_off_c, 0, 74, 64
8, 32160, Note_on_c, 0, 70, 127
8, 32278, Note_off_c, 0, 70, 64
8, 32280, Note_on_c, 0, 74, 127
8, 32398, Note_off_c, 0, 74, 64
8, 32400, Note_on_c, 0, 70, 127
8, 32518, Note_off_c, 0, 70, 64
8, 32520, Note_on_c, 0, 74, 127
8, 32638, Note_off_c, 0, 74, 64
8, 32640, Note_on_c, 0, 75, 127
8, 32758, Note_off_c, 0, 75, 64
8, 32760, Note_on_c, 0, 67, 127
8, 32878, Note_off_c, 0, 67, 64
8, 32880, Note_on_c, 0, 75, 127
8, 32998, Note_off_c, 0, 75, 64
8, 33000, Note_on_c, 0, 67, 127
8, 33118, Note_off_c, 0, 67, 64
8, 33120, Note_on_c, 0, 72, 127
8, 33238, Note_off_c, 0, 72, 64
8, 33240, Note_on_c, 0, 69, 127
8, 33358, Note_off_c, 0, 69, 64
8, 33360, Note_on_c, 0, 72, 127
8, 33478, Note_off_c, 0, 72, 64
8, 33480, Note_on_c, 0, 69, 127
8, 33598, Note_off_c, 0, 69, 64
8, 33600, Note_on_c, 0, 74, 127
8, 33718, Note_off_c, 0, 74, 64
8, 33720, Note_on_c, 0, 65, 127
8, 33838, Note_off_c, 0, 65, 64
8, 33840, Note_on_c, 0, 74, 127
8, 33958, Note_off_c, 0, 74, 64
8, 33960, Note_on_c, 0, 65, 127
8, 34078, Note_off_c, 0, 65, 64
8, 34080, Note_on_c, 0, 70, 127
8, 34198, Note_off_c, 0, 70, 64
8, 34200, Note_on_c, 0, 67, 127
8, 34318, Note_off_c, 0, 67, 64
8, 34320, Note_on_c, 0, 70, 127
8, 34438, Note_off_c, 0, 70, 64
8, 34440, Note_on_c, 0, 67, 127
8, 34558, Note_off_c, 0, 67, 64
8, 34560, Note_on_c, 0, 73, 127
8, 34678, Note_off_c, 0, 73, 64
8, 34680, Note_on_c, 0, 64, 127
8, 34798, Note_off_c, 0, 64, 64
8, 34800, Note_on_c, 0, 73, 127
8, 34918, Note_off_c, 0, 73, 64
8, 34920, Note_on_c, 0, 64, 127
8, 35038, Note_off_c, 0, 64, 64
8, 35040, Note_on_c, 0, 69, 127
8, 35158, Note_off_c, 0, 69, 64
8, 35160, Note_on_c, 0, 65, 127
8, 35278, Note_off_c, 0, 65, 64
8, 35280, Note_on_c, 0, 69, 127
8, 35398, Note_off_c, 0, 69, 64
8, 35400, Note_on_c, 0, 65, 127
8, 35518, Note_off_c, 0, 65, 64
8, 35520, Note_on_c, 0, 67, 127
8, 35638, Note_off_c, 0, 67, 64
8, 35640, Note_on_c, 0, 61, 127
8, 35758, Note_off_c, 0, 61, 64
8, 35760, Note_on_c, 0, 67, 127
8, 35878, Note_off_c, 0, 67, 64
8, 35880, Note_on_c, 0, 61, 127
8, 35998, Note_off_c, 0, 61, 64
8, 36000, Note_on_c, 0, 65, 127
8, 36118, Note_off_c, 0, 65, 64
8, 36120, Note_on_c, 0, 62, 127
8, 36238, Note_off_c, 0, 62, 64
8, 36240, Note_on_c, 0, 65, 127
8, 36358, Note_off_c, 0, 65, 64
8, 36360, Note_on_c, 0, 62, 127
8, 36478, Note_off_c, 0, 62, 64
8, 36480, Note_on_c, 0, 64, 127
8, 36598, Note_off_c, 0, 64, 64
8, 36600, Note_on_c, 0, 58, 127
8, 36718, Note_off_c, 0, 58, 64
8, 36720, Note_on_c, 0, 64, 127
8, 36838, Note_off_c, 0, 64, 64
8, 36840, Note_on_c, 0, 58, 127
8, 36958, Note_off_c, 0, 58, 64
8, 37020, Note_on_c, 0, 81, 127
8, 37078, Note_off_c, 0, 81, 64
8, 37080, Note_on_c, 0, 79, 127
8, 37138, Note_off_c, 0, 79, 64
8, 37140, Note_on_c, 0, 81, 127
8, 37198, Note_off_c, 0, 81, 64
8, 37200, Note_on_c, 0, 77, 127
8, 37258, Note_off_c, 0, 77, 64
8, 37260, Note_on_c, 0, 81, 127
8, 37318, Note_off_c, 0, 81, 64
8, 37320, Note_on_c, 0, 76, 127
8, 37378, Note_off_c, 0, 76, 64
8, 37380, Note_on_c, 0, 81, 127
8, 37438, Note_off_c, 0, 81, 64
8, 37440, Note_on_c, 0, 74, 127
8, 37498, Note_off_c, 0, 74, 64
8, 37500, Note_on_c, 0, 81, 127
8, 37558, Note_off_c, 0, 81, 64
8, 37560, Note_on_c, 0, 73, 127
8, 37618, Note_off_c, 0, 73, 64
8, 37620, Note_on_c, 0, 81, 127
8, 37678, Note_off_c, 0, 81, 64
8, 37680, Note_on_c, 0, 74, 127
8, 37738, Note_off_c, 0, 74, 64
8, 37740, Note_on_c, 0, 81, 127
8, 37798, Note_off_c, 0, 81, 64
8, 37800, Note_on_c, 0, 76, 127
8, 37858, Note_off_c, 0, 76, 64
8, 37860, Note_on_c, 0, 81, 127
8, 37918, Note_off_c, 0, 81, 64
8, 37920, Note_on_c, 0, 77, 127
8, 37978, Note_off_c, 0, 77, 64
8, 37980, Note_on_c, 0, 81, 127
8, 38038, Note_off_c, 0, 81, 64
8, 38040, Note_on_c, 0, 69, 127
8, 38098, Note_off_c, 0, 69, 64
8, 38100, Note_on_c, 0, 81, 127
8, 38158, Note_off_c, 0, 81, 64
8, 38160, Note_on_c, 0, 71, 127
8, 38218, Note_off_c, 0, 71, 64
8, 38220, Note_on_c, 0, 81, 127
8, 38278, Note_off_c, 0, 81, 64
8, 38280, Note_on_c, 0, 73, 127
8, 38338, Note_off_c, 0, 73, 64
8, 38340, Note_on_c, 0, 81, 127
8, 38398, Note_off_c, 0, 81, 64
8, 38400, Note_on_c, 0, 74, 127
8, 38458, Note_off_c, 0, 74, 64
8, 38460, Note_on_c, 0, 81, 127
8, 38518, Note_off_c, 0, 81, 64
8, 38520, Note_on_c, 0, 73, 127
8, 38578, Note_off_c, 0, 73, 64
8, 38580, Note_on_c, 0, 81, 127
8, 38638, Note_off_c, 0, 81, 64
8, 38640, Note_on_c, 0, 74, 127
8, 38698, Note_off_c, 0, 74, 64
8, 38700, Note_on_c, 0, 81, 127
8, 38758, Note_off_c, 0, 81, 64
8, 38760, Note_on_c, 0, 76, 127
8, 38818, Note_off_c, 0, 76, 64
8, 38820, Note_on_c, 0, 81, 127
8, 38878, Note_off_c, 0, 81, 64
8, 38880, Note_on_c, 0, 77, 127
8, 38938, Note_off_c, 0, 77, 64
8, 38940, Note_on_c, 0, 81, 127
8, 38998, Note_off_c, 0, 81, 64
8, 39000, Note_on_c, 0, 76, 127
8, 39058, Note_off_c, 0, 76, 64
8, 39060, Note_on_c, 0, 81, 127
8, 39118, Note_off_c, 0, 81, 64
8, 39120, Note_on_c, 0, 74, 127
8, 39178, Note_off_c, 0, 74, 64
8, 39180, Note_on_c, 0, 81, 127
8, 39238, Note_off_c, 0, 81, 64
8, 39240, Note_on_c, 0, 72, 127
8, 39298, Note_off_c, 0, 72, 64
8, 39300, Note_on_c, 0, 81, 127
8, 39358, Note_off_c, 0, 81, 64
8, 39360, Note_on_c, 0, 62, 127
8, 39360, Note_on_c, 0, 55, 127
8, 39598, Note_off_c, 0, 55, 64
8, 39598, Note_off_c, 0, 62, 64
8, 39840, Note_on_c, 0, 48, 127
8, 39840, Note_on_c, 0, 60, 127
8, 40078, Note_off_c, 0, 60, 64
8, 40078, Note_off_c, 0, 48, 64
8, 40080, Note_on_c, 0, 52, 127
8, 40080, Note_on_c, 0, 60, 127
8, 40318, Note_off_c, 0, 60, 64
8, 40318, Note_off_c, 0, 52, 64
8, 40320, Note_on_c, 0, 60, 127
8, 40320, Note_on_c, 0, 53, 127
8, 40558, Note_off_c, 0, 53, 64
8, 40558, Note_off_c, 0, 60, 64
8, 40800, Note_on_c, 0, 46, 127
8, 40800, Note_on_c, 0, 58, 127
8, 41038, Note_off_c, 0, 58, 64
8, 41038, Note_off_c, 0, 46, 64
8, 41040, Note_on_c, 0, 58, 127
8, 41040, Note_on_c, 0, 50, 127
8, 41278, Note_off_c, 0, 50, 64
8, 41278, Note_off_c, 0, 58, 64
8, 41280, Note_on_c, 0, 58, 127
8, 41280, Note_on_c, 0, 51, 127
8, 41518, Note_off_c, 0, 51, 64
8, 41518, Note_off_c, 0, 58, 64
8, 41760, Note_on_c, 0, 45, 127
8, 41760, Note_on_c, 0, 57, 127
8, 41998, Note_off_c, 0, 57, 64
8, 41998, Note_off_c, 0, 45, 64
8, 42000, Note_on_c, 0, 49, 127
8, 42000, Note_on_c, 0, 57, 127
8, 42238, Note_off_c, 0, 57, 64
8, 42238, Note_off_c, 0, 49, 64
8, 42240, Note_on_c, 0, 57, 127
8, 42240, Note_on_c, 0, 50, 127
8, 42478, Note_off_c, 0, 50, 64
8, 42478, Note_off_c, 0, 57, 64
8, 42600, Note_on_c, 0, 53, 127
8, 42600, Note_on_c, 0, 62, 127
8, 42718, Note_off_c, 0, 62, 64
8, 42718, Note_off_c, 0, 53, 64
8, 42720, Note_on_c, 0, 61, 127
8, 42720, Note_on_c, 0, 58, 127
8, 42838, Note_off_c, 0, 58, 64
8, 42838, Note_off_c, 0, 61, 64
8, 42840, Note_on_c, 0, 61, 127
8, 42840, Note_on_c, 0, 58, 127
8, 42958, Note_off_c, 0, 58, 64
8, 42958, Note_off_c, 0, 61, 64
8, 42960, Note_on_c, 0, 62, 127
8, 42960, Note_on_c, 0, 57, 127
8, 43078, Note_off_c, 0, 57, 64
8, 43078, Note_off_c, 0, 62, 64
8, 43080, Note_on_c, 0, 62, 127
8, 43080, Note_on_c, 0, 57, 127
8, 43198, Note_off_c, 0, 57, 64
8, 43198, Note_off_c, 0, 62, 64
8, 43200, Note_on_c, 0, 64, 127
8, 43200, Note_on_c, 0, 55, 127
8, 43438, Note_off_c, 0, 55, 64
8, 43438, Note_off_c, 0, 64, 64
8, 43560, Note_on_c, 0, 62, 127
8, 43560, Note_on_c, 0, 57, 127
8, 43678, Note_off_c, 0, 57, 64
8, 43678, Note_off_c, 0, 62, 64
8, 43680, Note_on_c, 0, 61, 127
8, 43680, Note_on_c, 0, 58, 127
8, 43798, Note_off_c, 0, 58, 64
8, 43798, Note_off_c, 0, 61, 64
8, 43800, Note_on_c, 0, 61, 127
8, 43800, Note_on_c, 0, 58, 127
8, 43918, Note_off_c, 0, 58, 64
8, 43918, Note_off_c, 0, 61, 64
8, 43920, Note_on_c, 0, 62, 127
8, 43920, Note_on_c, 0, 57, 127
8, 44038, Note_off_c, 0, 57, 64
8, 44038, Note_off_c, 0, 62, 64
8, 44040, Note_on_c, 0, 57, 127
8, 44040, Note_on_c, 0, 62, 127
8, 44158, Note_off_c, 0, 62, 64
8, 44158, Note_off_c, 0, 57, 64
8, 44160, Note_on_c, 0, 56, 127
8, 44160, Note_on_c, 0, 64, 127
8, 44398, Note_off_c, 0, 64, 64
8, 44398, Note_off_c, 0, 56, 64
8, 44640, Note_on_c, 0, 57, 127
8, 44878, Note_off_c, 0, 57, 64
8, 45120, Note_on_c, 0, 65, 127
8, 45358, Note_off_c, 0, 65, 64
8, 45360, Note_on_c, 0, 62, 127
8, 45598, Note_off_c, 0, 62, 64
8, 45600, Note_on_c, 0, 57, 127
8, 45658, Note_off_c, 0, 57, 64
8, 45660, Note_on_c, 0, 69, 127
8, 45718, Note_off_c, 0, 69, 64
8, 45720, Note_on_c, 0, 67, 127
8, 45778, Note_off_c, 0, 67, 64
8, 45780, Note_on_c, 0, 69, 127
8, 45838, Note_off_c, 0, 69, 64
8, 45840, Note_on_c, 0, 61, 127
8, 45898, Note_off_c, 0, 61, 64
8, 45900, Note_on_c, 0, 67, 127
8, 45958, Note_off_c, 0, 67, 64
8, 45960, Note_on_c, 0, 65, 127
8, 46018, Note_off_c, 0, 65, 64
8, 46020, Note_on_c, 0, 64, 127
8, 46078, Note_off_c, 0, 64, 64
8, 46140, Note_on_c, 0, 62, 127
8, 46198, Note_off_c, 0, 62, 64
8, 46200, Note_on_c, 0, 61, 127
8, 46258, Note_off_c, 0, 61, 64
8, 46260, Note_on_c, 0, 62, 127
8, 46318, Note_off_c, 0, 62, 64
8, 46320, Note_on_c, 0, 57, 127
8, 46378, Note_off_c, 0, 57, 64
8, 46380, Note_on_c, 0, 57, 127
8, 46438, Note_off_c, 0, 57, 64
8, 46440, Note_on_c, 0, 55, 127
8, 46498, Note_off_c, 0, 55, 64
8, 46500, Note_on_c, 0, 57, 127
8, 46558, Note_off_c, 0, 57, 64
8, 46560, Note_on_c, 0, 54, 127
8, 46618, Note_off_c, 0, 54, 64
8, 46620, Note_on_c, 0, 62, 127
8, 46678, Note_off_c, 0, 62, 64
8, 46680, Note_on_c, 0, 61, 127
8, 46738, Note_off_c, 0, 61, 64
8, 46740, Note_on_c, 0, 62, 127
8, 46798, Note_off_c, 0, 62, 64
8, 46800, Note_on_c, 0, 55, 127
8, 46858, Note_off_c, 0, 55, 64
8, 46860, Note_on_c, 0, 65, 127
8, 46918, Note_off_c, 0, 65, 64
8, 46920, Note_on_c, 0, 63, 127
8, 46978, Note_off_c, 0, 63, 64
8, 46980, Note_on_c, 0, 62, 127
8, 47038, Note_off_c, 0, 62, 64
8, 47040, Note_on_c, 0, 61, 127
8, 47098, Note_off_c, 0, 61, 64
8, 47100, Note_on_c, 0, 64, 127
8, 47158, Note_off_c, 0, 64, 64
8, 47160, Note_on_c, 0, 57, 127
8, 47218, Note_off_c, 0, 57, 64
8, 47220, Note_on_c, 0, 61, 127
8, 47278, Note_off_c, 0, 61, 64
8, 47280, Note_on_c, 0, 50, 127
8, 47338, Note_off_c, 0, 50, 64
8, 47340, Note_on_c, 0, 63, 127
8, 47398, Note_off_c, 0, 63, 64
8, 47400, Note_on_c, 0, 62, 127
8, 47458, Note_off_c, 0, 62, 64
8, 47460, Note_on_c, 0, 60, 127
8, 47518, Note_off_c, 0, 60, 64
8, 47520, Note_on_c, 0, 59, 127
8, 47578, Note_off_c, 0, 59, 64
8, 47580, Note_on_c, 0, 62, 127
8, 47638, Note_off_c, 0, 62, 64
8, 47640, Note_on_c, 0, 55, 127
8, 47698, Note_off_c, 0, 55, 64
8, 47700, Note_on_c, 0, 59, 127
8, 47758, Note_off_c, 0, 59, 64
8, 47760, Note_on_c, 0, 48, 127
8, 47818, Note_off_c, 0, 48, 64
8, 47820, Note_on_c, 0, 62, 127
8, 47878, Note_off_c, 0, 62, 64
8, 47880, Note_on_c, 0, 60, 127
8, 47938, Note_off_c, 0, 60, 64
8, 47940, Note_on_c, 0, 58, 127
8, 47998, Note_off_c, 0, 58, 64
8, 48000, Note_on_c, 0, 57, 127
8, 48058, Note_off_c, 0, 57, 64
8, 48060, Note_on_c, 0, 60, 127
8, 48118, Note_off_c, 0, 60, 64
8, 48120, Note_on_c, 0, 54, 127
8, 48178, Note_off_c, 0, 54, 64
8, 48180, Note_on_c, 0, 57, 127
8, 48238, Note_off_c, 0, 57, 64
8, 48240, Note_on_c, 0, 50, 127
8, 48298, Note_off_c, 0, 50, 64
8, 48300, Note_on_c, 0, 60, 127
8, 48358, Note_off_c, 0, 60, 64
8, 48360, Note_on_c, 0, 58, 127
8, 48418, Note_off_c, 0, 58, 64
8, 48420, Note_on_c, 0, 57, 127
8, 48478, Note_off_c, 0, 57, 64
8, 48480, Note_on_c, 0, 58, 127
8, 48538, Note_off_c, 0, 58, 64
8, 48540, Note_on_c, 0, 69, 127
8, 48598, Note_off_c, 0, 69, 64
8, 48600, Note_on_c, 0, 67, 127
8, 48658, Note_off_c, 0, 67, 64
8, 48660, Note_on_c, 0, 66, 127
8, 48718, Note_off_c, 0, 66, 64
8, 48720, Note_on_c, 0, 67, 127
8, 48778, Note_off_c, 0, 67, 64
8, 48780, Note_on_c, 0, 58, 127
8, 48838, Note_off_c, 0, 58, 64
8, 48840, Note_on_c, 0, 57, 127
8, 48898, Note_off_c, 0, 57, 64
8, 48900, Note_on_c, 0, 55, 127
8, 48958, Note_off_c, 0, 55, 64
8, 48960, Note_on_c, 0, 62, 127
8, 49198, Note_off_c, 0, 62, 64
8, 49320, Note_on_c, 0, 62, 127
8, 49438, Note_off_c, 0, 62, 64
8, 49440, Note_on_c, 0, 62, 127
8, 49558, Note_off_c, 0, 62, 64
8, 49560, Note_on_c, 0, 62, 127
8, 49678, Note_off_c, 0, 62, 64
8, 49680, Note_on_c, 0, 62, 127
8, 49798, Note_off_c, 0, 62, 64
8, 49800, Note_on_c, 0, 60, 127
8, 49918, Note_off_c, 0, 60, 64
8, 49920, Note_on_c, 0, 58, 127
8, 50038, Note_off_c, 0, 58, 64
8, 50040, Note_on_c, 0, 62, 127
8, 50158, Note_off_c, 0, 62, 64
8, 50160, Note_on_c, 0, 62, 127
8, 50278, Note_off_c, 0, 62, 64
8, 50280, Note_on_c, 0, 60, 127
8, 50398, Note_off_c, 0, 60, 64
8, 50400, Note_on_c, 0, 58, 127
8, 50518, Note_off_c, 0, 58, 64
8, 50520, Note_on_c, 0, 62, 127
8, 50638, Note_off_c, 0, 62, 64
8, 50640, Note_on_c, 0, 62, 127
8, 50758, Note_off_c, 0, 62, 64
8, 50760, Note_on_c, 0, 60, 127
8, 50878, Note_off_c, 0, 60, 64
8, 50880, Note_on_c, 0, 58, 127
8, 51118, Note_off_c, 0, 58, 64
8, 54300, Note_on_c, 0, 60, 127
8, 54358, Note_off_c, 0, 60, 64
8, 54360, Note_on_c, 0, 58, 127
8, 54418, Note_off_c, 0, 58, 64
8, 54420, Note_on_c, 0, 60, 127
8, 54478, Note_off_c, 0, 60, 64
8, 54480, Note_on_c, 0, 57, 127
8, 54538, Note_off_c, 0, 57, 64
8, 54540, Note_on_c, 0, 60, 127
8, 54598, Note_off_c, 0, 60, 64
8, 54600, Note_on_c, 0, 55, 127
8, 54658, Note_off_c, 0, 55, 64
8, 54660, Note_on_c, 0, 60, 127
8, 54718, Note_off_c, 0, 60, 64
8, 54720, Note_on_c, 0, 53, 127
8, 54778, Note_off_c, 0, 53, 64
8, 54780, Note_on_c, 0, 60, 127
8, 54838, Note_off_c, 0, 60, 64
8, 54840, Note_on_c, 0, 52, 127
8, 54898, Note_off_c, 0, 52, 64
8, 54900, Note_on_c, 0, 60, 127
8, 54958, Note_off_c, 0, 60, 64
8, 54960, Note_on_c, 0, 53, 127
8, 55018, Note_off_c, 0, 53, 64
8, 55020, Note_on_c, 0, 60, 127
8, 55078, Note_off_c, 0, 60, 64
8, 55080, Note_on_c, 0, 55, 127
8, 55138, Note_off_c, 0, 55, 64
8, 55140, Note_on_c, 0, 60, 127
8, 55198, Note_off_c, 0, 60, 64
8, 55200, Note_on_c, 0, 57, 127
8, 55258, Note_off_c, 0, 57, 64
8, 55260, Note_on_c, 0, 60, 127
8, 55318, Note_off_c, 0, 60, 64
8, 55320, Note_on_c, 0, 48, 127
8, 55378, Note_off_c, 0, 48, 64
8, 55380, Note_on_c, 0, 60, 127
8, 55438, Note_off_c, 0, 60, 64
8, 55440, Note_on_c, 0, 50, 127
8, 55498, Note_off_c, 0, 50, 64
8, 55500, Note_on_c, 0, 60, 127
8, 55558, Note_off_c, 0, 60, 64
8, 55560, Note_on_c, 0, 52, 127
8, 55618, Note_off_c, 0, 52, 64
8, 55620, Note_on_c, 0, 60, 127
8, 55678, Note_off_c, 0, 60, 64
8, 55680, Note_on_c, 0, 53, 127
8, 55738, Note_off_c, 0, 53, 64
8, 55740, Note_on_c, 0, 60, 127
8, 55798, Note_off_c, 0, 60, 64
8, 55800, Note_on_c, 0, 52, 127
8, 55858, Note_off_c, 0, 52, 64
8, 55860, Note_on_c, 0, 60, 127
8, 55918, Note_off_c, 0, 60, 64
8, 55920, Note_on_c, 0, 53, 127
8, 55978, Note_off_c, 0, 53, 64
8, 55980, Note_on_c, 0, 60, 127
8, 56038, Note_off_c, 0, 60, 64
8, 56040, Note_on_c, 0, 55, 127
8, 56098, Note_off_c, 0, 55, 64
8, 56100, Note_on_c, 0, 60, 127
8, 56158, Note_off_c, 0, 60, 64
8, 56160, Note_on_c, 0, 57, 127
8, 56398, Note_off_c, 0, 57, 64
8, 66720, Note_on_c, 0, 69, 127
8, 66838, Note_off_c, 0, 69, 64
8, 66840, Note_on_c, 0, 73, 127
8, 66958, Note_off_c, 0, 73, 64
8, 66960, Note_on_c, 0, 74, 127
8, 67078, Note_off_c, 0, 74, 64
8, 67080, Note_on_c, 0, 67, 127
8, 67198, Note_off_c, 0, 67, 64
8, 67200, Note_on_c, 0, 65, 127
8, 67318, Note_off_c, 0, 65, 64
8, 67320, Note_on_c, 0, 69, 127
8, 67438, Note_off_c, 0, 69, 64
8, 67440, Note_on_c, 0, 71, 127
8, 67558, Note_off_c, 0, 71, 64
8, 67560, Note_on_c, 0, 73, 127
8, 67678, Note_off_c, 0, 73, 64
8, 67680, Note_on_c, 0, 74, 127
8, 67798, Note_off_c, 0, 74, 64
8, 67800, Note_on_c, 0, 73, 127
8, 67918, Note_off_c, 0, 73, 64
8, 67920, Note_on_c, 0, 74, 127
8, 68038, Note_off_c, 0, 74, 64
8, 68040, Note_on_c, 0, 76, 127
8, 68158, Note_off_c, 0, 76, 64
8, 68160, Note_on_c, 0, 77, 127
8, 68278, Note_off_c, 0, 77, 64
8, 68280, Note_on_c, 0, 76, 127
8, 68398, Note_off_c, 0, 76, 64
8, 68400, Note_on_c, 0, 77, 127
8, 68460, Note_on_c, 0, 69, 127
8, 68518, Note_off_c, 0, 69, 64
8, 68518, Note_off_c, 0, 77, 64
8, 68520, Note_on_c, 0, 67, 127
8, 68520, Note_on_c, 0, 73, 127
8, 68578, Note_off_c, 0, 67, 64
8, 68580, Note_on_c, 0, 69, 127
8, 68638, Note_off_c, 0, 69, 64
8, 68638, Note_off_c, 0, 73, 64
8, 68700, Note_on_c, 0, 66, 127
8, 68758, Note_off_c, 0, 66, 64
8, 68760, Note_on_c, 0, 64, 127
8, 68818, Note_off_c, 0, 64, 64
8, 68820, Note_on_c, 0, 66, 127
8, 68878, Note_off_c, 0, 66, 64
8, 68940, Note_on_c, 0, 62, 127
8, 68998, Note_off_c, 0, 62, 64
8, 69000, Note_on_c, 0, 60, 127
8, 69058, Note_off_c, 0, 60, 64
8, 69060, Note_on_c, 0, 62, 127
8, 69118, Note_off_c, 0, 62, 64
8, 69120, Note_on_c, 0, 58, 127
8, 69178, Note_off_c, 0, 58, 64
8, 69180, Note_on_c, 0, 60, 127
8, 69238, Note_off_c, 0, 60, 64
8, 69240, Note_on_c, 0, 58, 127
8, 69298, Note_off_c, 0, 58, 64
8, 69300, Note_on_c, 0, 57, 127
8, 69358, Note_off_c, 0, 57, 64
8, 69360, Note_on_c, 0, 55, 127
8, 69418, Note_off_c, 0, 55, 64
8, 69420, Note_on_c, 0, 53, 127
8, 69478, Note_off_c, 0, 53, 64
8, 69480, Note_on_c, 0, 52, 127
8, 69538, Note_off_c, 0, 52, 64
8, 69540, Note_on_c, 0, 50, 127
8, 69598, Note_off_c, 0, 50, 64
8, 69600, Note_on_c, 0, 49, 127
8, 69658, Note_off_c, 0, 49, 64
8, 69660, Note_on_c, 0, 45, 127
8, 69718, Note_off_c, 0, 45, 64
8, 69720, Note_on_c, 0, 49, 127
8, 69778, Note_off_c, 0, 49, 64
8, 69780, Note_on_c, 0, 52, 127
8, 69838, Note_off_c, 0, 52, 64
8, 70080, Note_on_c, 0, 49, 127
8, 70138, Note_off_c, 0, 49, 64
8, 70140, Note_on_c, 0, 45, 127
8, 70198, Note_off_c, 0, 45, 64
8, 70200, Note_on_c, 0, 49, 127
8, 70258, Note_off_c, 0, 49, 64
8, 70260, Note_on_c, 0, 52, 127
8, 70318, Note_off_c, 0, 52, 64
8, 70560, Note_on_c, 0, 50, 127
8, 70618, Note_off_c, 0, 50, 64
8, 70620, Note_on_c, 0, 45, 127
8, 70678, Note_off_c, 0, 45, 64
8, 70680, Note_on_c, 0, 50, 127
8, 70738, Note_off_c, 0, 50, 64
8, 70740, Note_on_c, 0, 53, 127
8, 70798, Note_off_c, 0, 53, 64
8, 71040, Note_on_c, 0, 50, 127
8, 71098, Note_off_c, 0, 50, 64
8, 71100, Note_on_c, 0, 45, 127
8, 71158, Note_off_c, 0, 45, 64
8, 71160, Note_on_c, 0, 50, 127
8, 71218, Note_off_c, 0, 50, 64
8, 71220, Note_on_c, 0, 53, 127
8, 71278, Note_off_c, 0, 53, 64
8, 71520, Note_on_c, 0, 49, 127
8, 71578, Note_off_c, 0, 49, 64
8, 71580, Note_on_c, 0, 45, 127
8, 71638, Note_off_c, 0, 45, 64
8, 71640, Note_on_c, 0, 49, 127
8, 71698, Note_off_c, 0, 49, 64
8, 71700, Note_on_c, 0, 52, 127
8, 71758, Note_off_c, 0, 52, 64
8, 72000, Note_on_c, 0, 49, 127
8, 72058, Note_off_c, 0, 49, 64
8, 72060, Note_on_c, 0, 45, 127
8, 72118, Note_off_c, 0, 45, 64
8, 72120, Note_on_c, 0, 49, 127
8, 72178, Note_off_c, 0, 49, 64
8, 72180, Note_on_c, 0, 52, 127
8, 72238, Note_off_c, 0, 52, 64
8, 72480, Note_on_c, 0, 50, 127
8, 72538, Note_off_c, 0, 50, 64
8, 72540, Note_on_c, 0, 45, 127
8, 72598, Note_off_c, 0, 45, 64
8, 72600, Note_on_c, 0, 50, 127
8, 72658, Note_off_c, 0, 50, 64
8, 72660, Note_on_c, 0, 53, 127
8, 72718, Note_off_c, 0, 53, 64
8, 72960, Note_on_c, 0, 50, 127
8, 73018, Note_off_c, 0, 50, 64
8, 73020, Note_on_c, 0, 45, 127
8, 73078, Note_off_c, 0, 45, 64
8, 73080, Note_on_c, 0, 50, 127
8, 73138, Note_off_c, 0, 50, 64
8, 73140, Note_on_c, 0, 53, 127
8, 73198, Note_off_c, 0, 53, 64
8, 73440, Note_on_c, 0, 52, 127
8, 73498, Note_off_c, 0, 52, 64
8, 73500, Note_on_c, 0, 49, 127
8, 73558, Note_off_c, 0, 49, 64
8, 73560, Note_on_c, 0, 52, 127
8, 73618, Note_off_c, 0, 52, 64
8, 73620, Note_on_c, 0, 55, 127
8, 73678, Note_off_c, 0, 55, 64
8, 73920, Note_on_c, 0, 52, 127
8, 73978, Note_off_c, 0, 52, 64
8, 73980, Note_on_c, 0, 49, 127
8, 74038, Note_off_c, 0, 49, 64
8, 74040, Note_on_c, 0, 52, 127
8, 74098, Note_off_c, 0, 52, 64
8, 74100, Note_on_c, 0, 55, 127
8, 74158, Note_off_c, 0, 55, 64
8, 74400, Note_on_c, 0, 53, 127
8, 74458, Note_off_c, 0, 53, 64
8, 74460, Note_on_c, 0, 50, 127
8, 74518, Note_off_c, 0, 50, 64
8, 74520, Note_on_c, 0, 53, 127
8, 74578, Note_off_c, 0, 53, 64
8, 74580, Note_on_c, 0, 57, 127
8, 74638, Note_off_c, 0, 57, 64
8, 74880, Note_on_c, 0, 53, 127
8, 74938, Note_off_c, 0, 53, 64
8, 74940, Note_on_c, 0, 50, 127
8, 74998, Note_off_c, 0, 50, 64
8, 75000, Note_on_c, 0, 53, 127
8, 75058, Note_off_c, 0, 53, 64
8, 75060, Note_on_c, 0, 57, 127
8, 75118, Note_off_c, 0, 57, 64
8, 75360, Note_on_c, 0, 52, 127
8, 75418, Note_off_c, 0, 52, 64
8, 75420, Note_on_c, 0, 49, 127
8, 75478, Note_off_c, 0, 49, 64
8, 75480, Note_on_c, 0, 52, 127
8, 75538, Note_off_c, 0, 52, 64
8, 75540, Note_on_c, 0, 55, 127
8, 75598, Note_off_c, 0, 55, 64
8, 75840, Note_on_c, 0, 52, 127
8, 75898, Note_off_c, 0, 52, 64
8, 75900, Note_on_c, 0, 49, 127
8, 75958, Note_off_c, 0, 49, 64
8, 75960, Note_on_c, 0, 52, 127
8, 76018, Note_off_c, 0, 52, 64
8, 76020, Note_on_c, 0, 55, 127
8, 76078, Note_off_c, 0, 55, 64
8, 76320, Note_on_c, 0, 53, 127
8, 76378, Note_off_c, 0, 53, 64
8, 76380, Note_on_c, 0, 50, 127
8, 76438, Note_off_c, 0, 50, 64
8, 76440, Note_on_c, 0, 53, 127
8, 76498, Note_off_c, 0, 53, 64
8, 76500, Note_on_c, 0, 57, 127
8, 76558, Note_off_c, 0, 57, 64
8, 76800, Note_on_c, 0, 53, 127
8, 76858, Note_off_c, 0, 53, 64
8, 76860, Note_on_c, 0, 50, 127
8, 76918, Note_off_c, 0, 50, 64
8, 76920, Note_on_c, 0, 53, 127
8, 76978, Note_off_c, 0, 53, 64
8, 76980, Note_on_c, 0, 57, 127
8, 77038, Note_off_c, 0, 57, 64
8, 77280, Note_on_c, 0, 55, 127
8, 77338, Note_off_c, 0, 55, 64
8, 77340, Note_on_c, 0, 52, 127
8, 77398, Note_off_c, 0, 52, 64
8, 77400, Note_on_c, 0, 55, 127
8, 77458, Note_off_c, 0, 55, 64
8, 77460, Note_on_c, 0, 58, 127
8, 77518, Note_off_c, 0, 58, 64
8, 77760, Note_on_c, 0, 55, 127
8, 77818, Note_off_c, 0, 55, 64
8, 77820, Note_on_c, 0, 52, 127
8, 77878, Note_off_c, 0, 52, 64
8, 77880, Note_on_c, 0, 55, 127
8, 77938, Note_off_c, 0, 55, 64
8, 77940, Note_on_c, 0, 58, 127
8, 77998, Note_off_c, 0, 58, 64
8, 78240, Note_on_c, 0, 57, 127
8, 78298, Note_off_c, 0, 57, 64
8, 78300, Note_on_c, 0, 53, 127
8, 78358, Note_off_c, 0, 53, 64
8, 78360, Note_on_c, 0, 57, 127
8, 78418, Note_off_c, 0, 57, 64
8, 78420, Note_on_c, 0, 61, 127
8, 78478, Note_off_c, 0, 61, 64
8, 78660, Note_on_c, 0, 57, 127
8, 78718, Note_off_c, 0, 57, 64
8, 78720, Note_on_c, 0, 58, 127
8, 78778, Note_off_c, 0, 58, 64
8, 78900, Note_on_c, 0, 55, 127
8, 78958, Note_off_c, 0, 55, 64
8, 78960, Note_on_c, 0, 53, 127
8, 79018, Note_off_c, 0, 53, 64
8, 79140, Note_on_c, 0, 50, 127
8, 79198, Note_off_c, 0, 50, 64
8, 79200, Note_on_c, 0, 45, 127
8, 79258, Note_off_c, 0, 45, 64
8, 79380, Note_on_c, 0, 41, 127
8, 79438, Note_off_c, 0, 41, 64
8, 79440, Note_on_c, 0, 38, 127
8, 79498, Note_off_c, 0, 38, 64
8, 79680, Note_on_c, 0, 49, 127
8, 79738, Note_off_c, 0, 49, 64
8, 79920, Note_on_c, 0, 53, 127
8, 79978, Note_off_c, 0, 53, 64
8, 80160, Note_on_c, 0, 50, 127
8, 80218, Note_off_c, 0, 50, 64
8, 80400, Note_on_c, 0, 53, 127
8, 80458, Note_off_c, 0, 53, 64
8, 80640, Note_on_c, 0, 50, 127
8, 80698, Note_off_c, 0, 50, 64
8, 80700, Note_on_c, 0, 52, 127
8, 80728, Note_off_c, 0, 52, 64
8, 80730, Note_on_c, 0, 53, 127
8, 80758, Note_off_c, 0, 53, 64
8, 80760, Note_on_c, 0, 55, 127
8, 80788, Note_off_c, 0, 55, 64
8, 80790, Note_on_c, 0, 57, 127
8, 80818, Note_off_c, 0, 57, 64
8, 80820, Note_on_c, 0, 59, 127
8, 80848, Note_off_c, 0, 59, 64
8, 80850, Note_on_c, 0, 61, 127
8, 80878, Note_off_c, 0, 61, 64
8, 80880, Note_on_c, 0, 62, 127
8, 80938, Note_off_c, 0, 62, 64
8, 81120, Note_on_c, 0, 57, 127
8, 81178, Note_off_c, 0, 57, 64
8, 81180, Note_on_c, 0, 59, 127
8, 81208, Note_off_c, 0, 59, 64
8, 81210, Note_on_c, 0, 61, 127
8, 81238, Note_off_c, 0, 61, 64
8, 81240, Note_on_c, 0, 62, 127
8, 81268, Note_off_c, 0, 62, 64
8, 81270, Note_on_c, 0, 64, 127
8, 81298, Note_off_c, 0, 64, 64
8, 81300, Note_on_c, 0, 65, 127
8, 81328, Note_off_c, 0, 65, 64
8, 81330, Note_on_c, 0, 67, 127
8, 81358, Note_off_c, 0, 67, 64
8, 81360, Note_on_c, 0, 69, 127
8, 81418, Note_off_c, 0, 69, 64
8, 81420, Note_on_c, 0, 67, 127
8, 81478, Note_off_c, 0, 67, 64
8, 81480, Note_on_c, 0, 65, 127
8, 81538, Note_off_c, 0, 65, 64
8, 81540, Note_on_c, 0, 64, 127
8, 81598, Note_off_c, 0, 64, 64
8, 81600, Note_on_c, 0, 65, 127
8, 81718, Note_off_c, 0, 65, 64
8, 81900, Note_on_c, 0, 63, 127
8, 81958, Note_off_c, 0, 63, 64
8, 81960, Note_on_c, 0, 62, 127
8, 82018, Note_off_c, 0, 62, 64
8, 82020, Note_on_c, 0, 60, 127
8, 82078, Note_off_c, 0, 60, 64
8, 82080, Note_on_c, 0, 58, 127
8, 82198, Note_off_c, 0, 58, 64
8, 82200, Note_on_c, 0, 59, 127
8, 82318, Note_off_c, 0, 59, 64
8, 82320, Note_on_c, 0, 60, 127
8, 82438, Note_off_c, 0, 60, 64
8, 82440, Note_on_c, 0, 67, 127
8, 82558, Note_off_c, 0, 67, 64
8, 82560, Note_on_c, 0, 67, 127
8, 82588, Note_off_c, 0, 67, 64
8, 82590, Note_on_c, 0, 69, 127
8, 82618, Note_off_c, 0, 69, 64
8, 82620, Note_on_c, 0, 67, 127
8, 82648, Note_off_c, 0, 67, 64
8, 82650, Note_on_c, 0, 69, 127
8, 82678, Note_off_c, 0, 69, 64
8, 82680, Note_on_c, 0, 67, 127
8, 82708, Note_off_c, 0, 67, 64
8, 82710, Note_on_c, 0, 69, 127
8, 82738, Note_off_c, 0, 69, 64
8, 82740, Note_on_c, 0, 67, 127
8, 82768, Note_off_c, 0, 67, 64
8, 82770, Note_on_c, 0, 69, 127
8, 82798, Note_off_c, 0, 69, 64
8, 82800, Note_on_c, 0, 67, 127
8, 82828, Note_off_c, 0, 67, 64
8, 82830, Note_on_c, 0, 69, 127
8, 82858, Note_off_c, 0, 69, 64
8, 82860, Note_on_c, 0, 67, 127
8, 82888, Note_off_c, 0, 67, 64
8, 82890, Note_on_c, 0, 69, 127
8, 82918, Note_off_c, 0, 69, 64
8, 82920, Note_on_c, 0, 67, 127
8, 82948, Note_off_c, 0, 67, 64
8, 82950, Note_on_c, 0, 69, 127
8, 82978, Note_off_c, 0, 69, 64
8, 82980, Note_on_c, 0, 67, 127
8, 83008, Note_off_c, 0, 67, 64
8, 83010, Note_on_c, 0, 69, 127
8, 83038, Note_off_c, 0, 69, 64
8, 83040, Note_on_c, 0, 67, 127
8, 83068, Note_off_c, 0, 67, 64
8, 83070, Note_on_c, 0, 69, 127
8, 83098, Note_off_c, 0, 69, 64
8, 83100, Note_on_c, 0, 67, 127
8, 83128, Note_off_c, 0, 67, 64
8, 83130, Note_on_c, 0, 69, 127
8, 83158, Note_off_c, 0, 69, 64
8, 83160, Note_on_c, 0, 67, 127
8, 83188, Note_off_c, 0, 67, 64
8, 83190, Note_on_c, 0, 69, 127
8, 83218, Note_off_c, 0, 69, 64
8, 83220, Note_on_c, 0, 67, 127
8, 83248, Note_off_c, 0, 67, 64
8, 83250, Note_on_c, 0, 69, 127
8, 83278, Note_off_c, 0, 69, 64
8, 83280, Note_on_c, 0, 67, 127
8, 83308, Note_off_c, 0, 67, 64
8, 83310, Note_on_c, 0, 69, 127
8, 83338, Note_off_c, 0, 69, 64
8, 83340, Note_on_c, 0, 67, 127
8, 83368, Note_off_c, 0, 67, 64
8, 83370, Note_on_c, 0, 69, 127
8, 83398, Note_off_c, 0, 69, 64
8, 83400, Note_on_c, 0, 67, 127
8, 83428, Note_off_c, 0, 67, 64
8, 83430, Note_on_c, 0, 69, 127
8, 83458, Note_off_c, 0, 69, 64
8, 83460, Note_on_c, 0, 67, 127
8, 83488, Note_off_c, 0, 67, 64
8, 83490, Note_on_c, 0, 69, 127
8, 83518, Note_off_c, 0, 69, 64
8, 83520, Note_on_c, 0, 67, 127
8, 83548, Note_off_c, 0, 67, 64
8, 83550, Note_on_c, 0, 69, 127
8, 83578, Note_off_c, 0, 69, 64
8, 83580, Note_on_c, 0, 67, 127
8, 83608, Note_off_c, 0, 67, 64
8, 83610, Note_on_c, 0, 69, 127
8, 83638, Note_off_c, 0, 69, 64
8, 83640, Note_on_c, 0, 67, 127
8, 83668, Note_off_c, 0, 67, 64
8, 83670, Note_on_c, 0, 69, 127
8, 83698, Note_off_c, 0, 69, 64
8, 83700, Note_on_c, 0, 67, 127
8, 83728, Note_off_c, 0, 67, 64
8, 83730, Note_on_c, 0, 69, 127
8, 83758, Note_off_c, 0, 69, 64
8, 83760, Note_on_c, 0, 67, 127
8, 83788, Note_off_c, 0, 67, 64
8, 83790, Note_on_c, 0, 69, 127
8, 83818, Note_off_c, 0, 69, 64
8, 83820, Note_on_c, 0, 67, 127
8, 83848, Note_off_c, 0, 67, 64
8, 83850, Note_on_c, 0, 69, 127
8, 83878, Note_off_c, 0, 69, 64
8, 83880, Note_on_c, 0, 67, 127
8, 83908, Note_off_c, 0, 67, 64
8, 83910, Note_on_c, 0, 69, 127
8, 83938, Note_off_c, 0, 69, 64
8, 83940, Note_on_c, 0, 67, 127
8, 83968, Note_off_c, 0, 67, 64
8, 83970, Note_on_c, 0, 69, 127
8, 83998, Note_off_c, 0, 69, 64
8, 84000, Note_on_c, 0, 67, 127
8, 84058, Note_off_c, 0, 67, 64
8, 84060, Note_on_c, 0, 67, 127
8, 84118, Note_off_c, 0, 67, 64
8, 84120, Note_on_c, 0, 65, 127
8, 84178, Note_off_c, 0, 65, 64
8, 84180, Note_on_c, 0, 67, 127
8, 84238, Note_off_c, 0, 67, 64
8, 84240, Note_on_c, 0, 63, 127
8, 84298, Note_off_c, 0, 63, 64
8, 84300, Note_on_c, 0, 67, 127
8, 84358, Note_off_c, 0, 67, 64
8, 84360, Note_on_c, 0, 62, 127
8, 84418, Note_off_c, 0, 62, 64
8, 84420, Note_on_c, 0, 67, 127
8, 84478, Note_off_c, 0, 67, 64
8, 84480, Note_on_c, 0, 60, 127
8, 84538, Note_off_c, 0, 60, 64
8, 84540, Note_on_c, 0, 67, 127
8, 84598, Note_off_c, 0, 67, 64
8, 84600, Note_on_c, 0, 59, 127
8, 84658, Note_off_c, 0, 59, 64
8, 84660, Note_on_c, 0, 67, 127
8, 84718, Note_off_c, 0, 67, 64
8, 84720, Note_on_c, 0, 60, 127
8, 84778, Note_off_c, 0, 60, 64
8, 84780, Note_on_c, 0, 67, 127
8, 84838, Note_off_c, 0, 67, 64
8, 84840, Note_on_c, 0, 62, 127
8, 84898, Note_off_c, 0, 62, 64
8, 84900, Note_on_c, 0, 67, 127
8, 84958, Note_off_c, 0, 67, 64
8, 84960, Note_on_c, 0, 63, 127
8, 85018, Note_off_c, 0, 63, 64
8, 85020, Note_on_c, 0, 67, 127
8, 85078, Note_off_c, 0, 67, 64
8, 85080, Note_on_c, 0, 55, 127
8, 85138, Note_off_c, 0, 55, 64
8, 85140, Note_on_c, 0, 67, 127
8, 85198, Note_off_c, 0, 67, 64
8, 85200, Note_on_c, 0, 57, 127
8, 85258, Note_off_c, 0, 57, 64
8, 85260, Note_on_c, 0, 67, 127
8, 85318, Note_off_c, 0, 67, 64
8, 85320, Note_on_c, 0, 59, 127
8, 85378, Note_off_c, 0, 59, 64
8, 85380, Note_on_c, 0, 67, 127
8, 85438, Note_off_c, 0, 67, 64
8, 85440, Note_on_c, 0, 60, 127
8, 85498, Note_off_c, 0, 60, 64
8, 85500, Note_on_c, 0, 67, 127
8, 85558, Note_off_c, 0, 67, 64
8, 85560, Note_on_c, 0, 59, 127
8, 85618, Note_off_c, 0, 59, 64
8, 85620, Note_on_c, 0, 67, 127
8, 85678, Note_off_c, 0, 67, 64
8, 85680, Note_on_c, 0, 60, 127
8, 85738, Note_off_c, 0, 60, 64
8, 85740, Note_on_c, 0, 67, 127
8, 85798, Note_off_c, 0, 67, 64
8, 85800, Note_on_c, 0, 62, 127
8, 85858, Note_off_c, 0, 62, 64
8, 85860, Note_on_c, 0, 67, 127
8, 85918, Note_off_c, 0, 67, 64
8, 85920, Note_on_c, 0, 63, 127
8, 86038, Note_off_c, 0, 63, 64
8, 86040, Note_on_c, 0, 62, 127
8, 86158, Note_off_c, 0, 62, 64
8, 86160, Note_on_c, 0, 67, 127
8, 86218, Note_off_c, 0, 67, 64
8, 86220, Note_on_c, 0, 68, 127
8, 86278, Note_off_c, 0, 68, 64
8, 86280, Note_on_c, 0, 65, 127
8, 86338, Note_off_c, 0, 65, 64
8, 86340, Note_on_c, 0, 67, 127
8, 86398, Note_off_c, 0, 67, 64
8, 86400, Note_on_c, 0, 63, 127
8, 86518, Note_off_c, 0, 63, 64
8, 86520, Note_on_c, 0, 60, 127
8, 86638, Note_off_c, 0, 60, 64
8, 86640, Note_on_c, 0, 65, 127
8, 86698, Note_off_c, 0, 65, 64
8, 86700, Note_on_c, 0, 67, 127
8, 86758, Note_off_c, 0, 67, 64
8, 86760, Note_on_c, 0, 63, 127
8, 86818, Note_off_c, 0, 63, 64
8, 86820, Note_on_c, 0, 65, 127
8, 86878, Note_off_c, 0, 65, 64
8, 86880, Note_on_c, 0, 62, 127
8, 86998, Note_off_c, 0, 62, 64
8, 87000, Note_on_c, 0, 58, 127
8, 87118, Note_off_c, 0, 58, 64
8, 87120, Note_on_c, 0, 63, 127
8, 87178, Note_off_c, 0, 63, 64
8, 87180, Note_on_c, 0, 65, 127
8, 87238, Note_off_c, 0, 65, 64
8, 87240, Note_on_c, 0, 62, 127
8, 87298, Note_off_c, 0, 62, 64
8, 87300, Note_on_c, 0, 63, 127
8, 87358, Note_off_c, 0, 63, 64
8, 87360, Note_on_c, 0, 60, 127
8, 87478, Note_off_c, 0, 60, 64
8, 87480, Note_on_c, 0, 66, 127
8, 87598, Note_off_c, 0, 66, 64
8, 87600, Note_on_c, 0, 67, 127
8, 87658, Note_off_c, 0, 67, 64
8, 87660, Note_on_c, 0, 69, 127
8, 87718, Note_off_c, 0, 69, 64
8, 87720, Note_on_c, 0, 65, 127
8, 87778, Note_off_c, 0, 65, 64
8, 87780, Note_on_c, 0, 67, 127
8, 87838, Note_off_c, 0, 67, 64
8, 87840, Note_on_c, 0, 63, 127
8, 87898, Note_off_c, 0, 63, 64
8, 87900, Note_on_c, 0, 67, 127
8, 87958, Note_off_c, 0, 67, 64
8, 87960, Note_on_c, 0, 66, 127
8, 88018, Note_off_c, 0, 66, 64
8, 88020, Note_on_c, 0, 67, 127
8, 88078, Note_off_c, 0, 67, 64
8, 88080, Note_on_c, 0, 69, 127
8, 88138, Note_off_c, 0, 69, 64
8, 88140, Note_on_c, 0, 67, 127
8, 88198, Note_off_c, 0, 67, 64
8, 88200, Note_on_c, 0, 66, 127
8, 88258, Note_off_c, 0, 66, 64
8, 88260, Note_on_c, 0, 64, 127
8, 88318, Note_off_c, 0, 64, 64
8, 88380, Note_on_c, 0, 62, 127
8, 88438, Note_off_c, 0, 62, 64
8, 88440, Note_on_c, 0, 60, 127
8, 88498, Note_off_c, 0, 60, 64
8, 88500, Note_on_c, 0, 62, 127
8, 88558, Note_off_c, 0, 62, 64
8, 88560, Note_on_c, 0, 58, 127
8, 88618, Note_off_c, 0, 58, 64
8, 88620, Note_on_c, 0, 62, 127
8, 88678, Note_off_c, 0, 62, 64
8, 88680, Note_on_c, 0, 57, 127
8, 88738, Note_off_c, 0, 57, 64
8, 88740, Note_on_c, 0, 62, 127
8, 88798, Note_off_c, 0, 62, 64
8, 88800, Note_on_c, 0, 55, 127
8, 88858, Note_off_c, 0, 55, 64
8, 88860, Note_on_c, 0, 62, 127
8, 88918, Note_off_c, 0, 62, 64
8, 88920, Note_on_c, 0, 54, 127
8, 88978, Note_off_c, 0, 54, 64
8, 88980, Note_on_c, 0, 62, 127
8, 89038, Note_off_c, 0, 62, 64
8, 89040, Note_on_c, 0, 55, 127
8, 89098, Note_off_c, 0, 55, 64
8, 89100, Note_on_c, 0, 62, 127
8, 89158, Note_off_c, 0, 62, 64
8, 89160, Note_on_c, 0, 57, 127
8, 89218, Note_off_c, 0, 57, 64
8, 89220, Note_on_c, 0, 62, 127
8, 89278, Note_off_c, 0, 62, 64
8, 89280, Note_on_c, 0, 58, 127
8, 89338, Note_off_c, 0, 58, 64
8, 89340, Note_on_c, 0, 62, 127
8, 89398, Note_off_c, 0, 62, 64
8, 89400, Note_on_c, 0, 50, 127
8, 89458, Note_off_c, 0, 50, 64
8, 89460, Note_on_c, 0, 62, 127
8, 89518, Note_off_c, 0, 62, 64
8, 89520, Note_on_c, 0, 52, 127
8, 89578, Note_off_c, 0, 52, 64
8, 89580, Note_on_c, 0, 62, 127
8, 89638, Note_off_c, 0, 62, 64
8, 89640, Note_on_c, 0, 54, 127
8, 89698, Note_off_c, 0, 54, 64
8, 89700, Note_on_c, 0, 62, 127
8, 89758, Note_off_c, 0, 62, 64
8, 89760, Note_on_c, 0, 55, 127
8, 89818, Note_off_c, 0, 55, 64
8, 89820, Note_on_c, 0, 62, 127
8, 89878, Note_off_c, 0, 62, 64
8, 89880, Note_on_c, 0, 54, 127
8, 89938, Note_off_c, 0, 54, 64
8, 89940, Note_on_c, 0, 62, 127
8, 89998, Note_off_c, 0, 62, 64
8, 90000, Note_on_c, 0, 55, 127
8, 90058, Note_off_c, 0, 55, 64
8, 90060, Note_on_c, 0, 62, 127
8, 90118, Note_off_c, 0, 62, 64
8, 90120, Note_on_c, 0, 57, 127
8, 90178, Note_off_c, 0, 57, 64
8, 90180, Note_on_c, 0, 62, 127
8, 90238, Note_off_c, 0, 62, 64
8, 90240, Note_on_c, 0, 58, 127
8, 90358, Note_off_c, 0, 58, 64
8, 90360, Note_on_c, 0, 57, 127
8, 90478, Note_off_c, 0, 57, 64
8, 90480, Note_on_c, 0, 55, 127
8, 90958, Note_off_c, 0, 55, 64
8, 90960, Note_on_c, 0, 54, 127
8, 91198, Note_off_c, 0, 54, 64
8, 91200, Note_on_c, 0, 55, 127
8, 91318, Note_off_c, 0, 55, 64
8, 91320, Note_on_c, 0, 57, 127
8, 91438, Note_off_c, 0, 57, 64
8, 91440, Note_on_c, 0, 58, 127
8, 91498, Note_off_c, 0, 58, 64
8, 91500, Note_on_c, 0, 57, 127
8, 91558, Note_off_c, 0, 57, 64
8, 91560, Note_on_c, 0, 55, 127
8, 91618, Note_off_c, 0, 55, 64
8, 91620, Note_on_c, 0, 53, 127
8, 91678, Note_off_c, 0, 53, 64
8, 91680, Note_on_c, 0, 51, 127
8, 91798, Note_off_c, 0, 51, 64
8, 91800, Note_on_c, 0, 63, 127
8, 91918, Note_off_c, 0, 63, 64
8, 91920, Note_on_c, 0, 62, 127
8, 92158, Note_off_c, 0, 62, 64
8, 92160, Note_on_c, 0, 60, 127
8, 92278, Note_off_c, 0, 60, 64
8, 92280, Note_on_c, 0, 62, 127
8, 92398, Note_off_c, 0, 62, 64
8, 92400, Note_on_c, 0, 63, 127
8, 92458, Note_off_c, 0, 63, 64
8, 92460, Note_on_c, 0, 65, 127
8, 92518, Note_off_c, 0, 65, 64
8, 92520, Note_on_c, 0, 62, 127
8, 92578, Note_off_c, 0, 62, 64
8, 92580, Note_on_c, 0, 63, 127
8, 92638, Note_off_c, 0, 63, 64
8, 92640, Note_on_c, 0, 60, 127
8, 92698, Note_off_c, 0, 60, 64
8, 92700, Note_on_c, 0, 63, 127
8, 92758, Note_off_c, 0, 63, 64
8, 92760, Note_on_c, 0, 62, 127
8, 92818, Note_off_c, 0, 62, 64
8, 92820, Note_on_c, 0, 65, 127
8, 92878, Note_off_c, 0, 65, 64
8, 92880, Note_on_c, 0, 69, 127
8, 92938, Note_off_c, 0, 69, 64
8, 92940, Note_on_c, 0, 67, 127
8, 92998, Note_off_c, 0, 67, 64
8, 93000, Note_on_c, 0, 65, 127
8, 93058, Note_off_c, 0, 65, 64
8, 93060, Note_on_c, 0, 67, 127
8, 93118, Note_off_c, 0, 67, 64
8, 93120, Note_on_c, 0, 62, 127
8, 93178, Note_off_c, 0, 62, 64
8, 93180, Note_on_c, 0, 58, 127
8, 93238, Note_off_c, 0, 58, 64
8, 93240, Note_on_c, 0, 63, 127
8, 93298, Note_off_c, 0, 63, 64
8, 93300, Note_on_c, 0, 62, 127
8, 93358, Note_off_c, 0, 62, 64
8, 93360, Note_on_c, 0, 61, 127
8, 93418, Note_off_c, 0, 61, 64
8, 93420, Note_on_c, 0, 57, 127
8, 93478, Note_off_c, 0, 57, 64
8, 93480, Note_on_c, 0, 62, 127
8, 93538, Note_off_c, 0, 62, 64
8, 93540, Note_on_c, 0, 60, 127
8, 93598, Note_off_c, 0, 60, 64
8, 93600, Note_on_c, 0, 59, 127
8, 93658, Note_off_c, 0, 59, 64
8, 93660, Note_on_c, 0, 55, 127
8, 93718, Note_off_c, 0, 55, 64
8, 93720, Note_on_c, 0, 60, 127
8, 93778, Note_off_c, 0, 60, 64
8, 93780, Note_on_c, 0, 58, 127
8, 93838, Note_off_c, 0, 58, 64
8, 93840, Note_on_c, 0, 57, 127
8, 93898, Note_off_c, 0, 57, 64
8, 93900, Note_on_c, 0, 53, 127
8, 93958, Note_off_c, 0, 53, 64
8, 93960, Note_on_c, 0, 58, 127
8, 94018, Note_off_c, 0, 58, 64
8, 94020, Note_on_c, 0, 62, 127
8, 94078, Note_off_c, 0, 62, 64
8, 94080, Note_on_c, 0, 60, 127
8, 94138, Note_off_c, 0, 60, 64
8, 94140, Note_on_c, 0, 62, 127
8, 94198, Note_off_c, 0, 62, 64
8, 94200, Note_on_c, 0, 60, 127
8, 94258, Note_off_c, 0, 60, 64
8, 94260, Note_on_c, 0, 58, 127
8, 94318, Note_off_c, 0, 58, 64
8, 94320, Note_on_c, 0, 57, 127
8, 94378, Note_off_c, 0, 57, 64
8, 94380, Note_on_c, 0, 60, 127
8, 94438, Note_off_c, 0, 60, 64
8, 94440, Note_on_c, 0, 58, 127
8, 94498, Note_off_c, 0, 58, 64
8, 94500, Note_on_c, 0, 57, 127
8, 94558, Note_off_c, 0, 57, 64
8, 94560, Note_on_c, 0, 55, 127
8, 94618, Note_off_c, 0, 55, 64
8, 94620, Note_on_c, 0, 60, 127
8, 94678, Note_off_c, 0, 60, 64
8, 94680, Note_on_c, 0, 58, 127
8, 94738, Note_off_c, 0, 58, 64
8, 94740, Note_on_c, 0, 57, 127
8, 94798, Note_off_c, 0, 57, 64
8, 94800, Note_on_c, 0, 58, 127
8, 94858, Note_off_c, 0, 58, 64
8, 94860, Note_on_c, 0, 60, 127
8, 94918, Note_off_c, 0, 60, 64
8, 94920, Note_on_c, 0, 58, 127
8, 94978, Note_off_c, 0, 58, 64
8, 94980, Note_on_c, 0, 57, 127
8, 95038, Note_off_c, 0, 57, 64
8, 95040, Note_on_c, 0, 55, 127
8, 95098, Note_off_c, 0, 55, 64
8, 95100, Note_on_c, 0, 57, 127
8, 95158, Note_off_c, 0, 57, 64
8, 95160, Note_on_c, 0, 53, 127
8, 95218, Note_off_c, 0, 53, 64
8, 95220, Note_on_c, 0, 55, 127
8, 95278, Note_off_c, 0, 55, 64
8, 95280, Note_on_c, 0, 52, 127
8, 95518, Note_off_c, 0, 52, 64
8, 95520, Note_on_c, 0, 54, 127
8, 95758, Note_off_c, 0, 54, 64
8, 95760, Note_on_c, 0, 50, 127
8, 95998, Note_off_c, 0, 50, 64
8, 96000, Note_on_c, 0, 55, 127
8, 96238, Note_off_c, 0, 55, 64
8, 96240, Note_on_c, 0, 57, 127
8, 96298, Note_off_c, 0, 57, 64
8, 96300, Note_on_c, 0, 58, 127
8, 96358, Note_off_c, 0, 58, 64
8, 96360, Note_on_c, 0, 57, 127
8, 96418, Note_off_c, 0, 57, 64
8, 96420, Note_on_c, 0, 55, 127
8, 96478, Note_off_c, 0, 55, 64
8, 96480, Note_on_c, 0, 53, 127
8, 96538, Note_off_c, 0, 53, 64
8, 96540, Note_on_c, 0, 55, 127
8, 96598, Note_off_c, 0, 55, 64
8, 96600, Note_on_c, 0, 52, 127
8, 96658, Note_off_c, 0, 52, 64
8, 96660, Note_on_c, 0, 57, 127
8, 96718, Note_off_c, 0, 57, 64
8, 96720, Note_on_c, 0, 50, 127
8, 96958, Note_off_c, 0, 50, 64
8, 97920, Note_on_c, 0, 58, 127
8, 97978, Note_off_c, 0, 58, 64
8, 97980, Note_on_c, 0, 57, 127
8, 98038, Note_off_c, 0, 57, 64
8, 98040, Note_on_c, 0, 55, 127
8, 98098, Note_off_c, 0, 55, 64
8, 98100, Note_on_c, 0, 53, 127
8, 98158, Note_off_c, 0, 53, 64
8, 98160, Note_on_c, 0, 52, 127
8, 98218, Note_off_c, 0, 52, 64
8, 98220, Note_on_c, 0, 53, 127
8, 98278, Note_off_c, 0, 53, 64
8, 98280, Note_on_c, 0, 52, 127
8, 98338, Note_off_c, 0, 52, 64
8, 98340, Note_on_c, 0, 50, 127
8, 98398, Note_off_c, 0, 50, 64
8, 98400, Note_on_c, 0, 49, 127
8, 98458, Note_off_c, 0, 49, 64
8, 98460, Note_on_c, 0, 45, 127
8, 98518, Note_off_c, 0, 45, 64
8, 98520, Note_on_c, 0, 50, 127
8, 98578, Note_off_c, 0, 50, 64
8, 98580, Note_on_c, 0, 45, 127
8, 98638, Note_off_c, 0, 45, 64
8, 98640, Note_on_c, 0, 52, 127
8, 98698, Note_off_c, 0, 52, 64
8, 98700, Note_on_c, 0, 45, 127
8, 98758, Note_off_c, 0, 45, 64
8, 98760, Note_on_c, 0, 53, 127
8, 98818, Note_off_c, 0, 53, 64
8, 98820, Note_on_c, 0, 45, 127
8, 98878, Note_off_c, 0, 45, 64
8, 98880, Note_on_c, 0, 55, 127
8, 98938, Note_off_c, 0, 55, 64
8, 98940, Note_on_c, 0, 45, 127
8, 98998, Note_off_c, 0, 45, 64
8, 99000, Note_on_c, 0, 53, 127
8, 99058, Note_off_c, 0, 53, 64
8, 99060, Note_on_c, 0, 45, 127
8, 99118, Note_off_c, 0, 45, 64
8, 99120, Note_on_c, 0, 52, 127
8, 99178, Note_off_c, 0, 52, 64
8, 99180, Note_on_c, 0, 45, 127
8, 99238, Note_off_c, 0, 45, 64
8, 99240, Note_on_c, 0, 50, 127
8, 99298, Note_off_c, 0, 50, 64
8, 99300, Note_on_c, 0, 45, 127
8, 99358, Note_off_c, 0, 45, 64
8, 99360, Note_on_c, 0, 49, 127
8, 99418, Note_off_c, 0, 49, 64
8, 99420, Note_on_c, 0, 57, 127
8, 99478, Note_off_c, 0, 57, 64
8, 99480, Note_on_c, 0, 45, 127
8, 99538, Note_off_c, 0, 45, 64
8, 99540, Note_on_c, 0, 57, 127
8, 99598, Note_off_c, 0, 57, 64
8, 99600, Note_on_c, 0, 50, 127
8, 99658, Note_off_c, 0, 50, 64
8, 99660, Note_on_c, 0, 57, 127
8, 99718, Note_off_c, 0, 57, 64
8, 99720, Note_on_c, 0, 53, 127
8, 99778, Note_off_c, 0, 53, 64
8, 99780, Note_on_c, 0, 62, 127
8, 99838, Note_off_c, 0, 62, 64
8, 99840, Note_on_c, 0, 55, 127
8, 99898, Note_off_c, 0, 55, 64
8, 99900, Note_on_c, 0, 62, 127
8, 99958, Note_off_c, 0, 62, 64
8, 99960, Note_on_c, 0, 52, 127
8, 100018, Note_off_c, 0, 52, 64
8, 100020, Note_on_c, 0, 61, 127
8, 100078, Note_off_c, 0, 61, 64
8, 100080, Note_on_c, 0, 53, 127
8, 100138, Note_off_c, 0, 53, 64
8, 100140, Note_on_c, 0, 62, 127
8, 100198, Note_off_c, 0, 62, 64
8, 100200, Note_on_c, 0, 50, 127
8, 100258, Note_off_c, 0, 50, 64
8, 100260, Note_on_c, 0, 62, 127
8, 100318, Note_off_c, 0, 62, 64
8, 100320, Note_on_c, 0, 64, 127
8, 100378, Note_off_c, 0, 64, 64
8, 100380, Note_on_c, 0, 69, 127
8, 100438, Note_off_c, 0, 69, 64
8, 100440, Note_on_c, 0, 67, 127
8, 100498, Note_off_c, 0, 67, 64
8, 100500, Note_on_c, 0, 69, 127
8, 100558, Note_off_c, 0, 69, 64
8, 100560, Note_on_c, 0, 65, 127
8, 100618, Note_off_c, 0, 65, 64
8, 100620, Note_on_c, 0, 69, 127
8, 100678, Note_off_c, 0, 69, 64
8, 100680, Note_on_c, 0, 64, 127
8, 100738, Note_off_c, 0, 64, 64
8, 100740, Note_on_c, 0, 69, 127
8, 100798, Note_off_c, 0, 69, 64
8, 100800, Note_on_c, 0, 62, 127
8, 100858, Note_off_c, 0, 62, 64
8, 100860, Note_on_c, 0, 69, 127
8, 100918, Note_off_c, 0, 69, 64
8, 100920, Note_on_c, 0, 61, 127
8, 100978, Note_off_c, 0, 61, 64
8, 100980, Note_on_c, 0, 69, 127
8, 101038, Note_off_c, 0, 69, 64
8, 101040, Note_on_c, 0, 62, 127
8, 101098, Note_off_c, 0, 62, 64
8, 101100, Note_on_c, 0, 69, 127
8, 101158, Note_off_c, 0, 69, 64
8, 101160, Note_on_c, 0, 64, 127
8, 101218, Note_off_c, 0, 64, 64
8, 101220, Note_on_c, 0, 69, 127
8, 101278, Note_off_c, 0, 69, 64
8, 101280, Note_on_c, 0, 65, 127
8, 101338, Note_off_c, 0, 65, 64
8, 101340, Note_on_c, 0, 69, 127
8, 101398, Note_off_c, 0, 69, 64
8, 101400, Note_on_c, 0, 57, 127
8, 101458, Note_off_c, 0, 57, 64
8, 101460, Note_on_c, 0, 69, 127
8, 101518, Note_off_c, 0, 69, 64
8, 101520, Note_on_c, 0, 59, 127
8, 101578, Note_off_c, 0, 59, 64
8, 101580, Note_on_c, 0, 69, 127
8, 101638, Note_off_c, 0, 69, 64
8, 101640, Note_on_c, 0, 61, 127
8, 101698, Note_off_c, 0, 61, 64
8, 101700, Note_on_c, 0, 69, 127
8, 101758, Note_off_c, 0, 69, 64
8, 101760, Note_on_c, 0, 62, 127
8, 101818, Note_off_c, 0, 62, 64
8, 101820, Note_on_c, 0, 69, 127
8, 101878, Note_off_c, 0, 69, 64
8, 101880, Note_on_c, 0, 61, 127
8, 101938, Note_off_c, 0, 61, 64
8, 101940, Note_on_c, 0, 69, 127
8, 101998, Note_off_c, 0, 69, 64
8, 102000, Note_on_c, 0, 62, 127
8, 102058, Note_off_c, 0, 62, 64
8, 102060, Note_on_c, 0, 69, 127
8, 102118, Note_off_c, 0, 69, 64
8, 102120, Note_on_c, 0, 64, 127
8, 102178, Note_off_c, 0, 64, 64
8, 102180, Note_on_c, 0, 69, 127
8, 102238, Note_off_c, 0, 69, 64
8, 102240, Note_on_c, 0, 65, 127
8, 102358, Note_off_c, 0, 65, 64
8, 102360, Note_on_c, 0, 64, 127
8, 102478, Note_off_c, 0, 64, 64
8, 102480, Note_on_c, 0, 62, 127
8, 102598, Note_off_c, 0, 62, 64
8, 102600, Note_on_c, 0, 67, 127
8, 102718, Note_off_c, 0, 67, 64
8, 102720, Note_on_c, 0, 65, 127
8, 102838, Note_off_c, 0, 65, 64
8, 102840, Note_on_c, 0, 64, 127
8, 102958, Note_off_c, 0, 64, 64
8, 102960, Note_on_c, 0, 65, 127
8, 103078, Note_off_c, 0, 65, 64
8, 103080, Note_on_c, 0, 61, 127
8, 103198, Note_off_c, 0, 61, 64
8, 103200, Note_on_c, 0, 62, 127
8, 103318, Note_off_c, 0, 62, 64
8, 103320, Note_on_c, 0, 61, 127
8, 103438, Note_off_c, 0, 61, 64
8, 103440, Note_on_c, 0, 62, 127
8, 103558, Note_off_c, 0, 62, 64
8, 103560, Note_on_c, 0, 59, 127
8, 103678, Note_off_c, 0, 59, 64
8, 103680, Note_on_c, 0, 61, 127
8, 103798, Note_off_c, 0, 61, 64
8, 103800, Note_on_c, 0, 67, 127
8, 103918, Note_off_c, 0, 67, 64
8, 103920, Note_on_c, 0, 65, 127
8, 104038, Note_off_c, 0, 65, 64
8, 104040, Note_on_c, 0, 62, 127
8, 104158, Note_off_c, 0, 62, 64
8, 104160, Note_on_c, 0, 61, 127
8, 104398, Note_off_c, 0, 61, 64
8, 106140, Note_on_c, 0, 67, 127
8, 106198, Note_off_c, 0, 67, 64
8, 106200, Note_on_c, 0, 65, 127
8, 106258, Note_off_c, 0, 65, 64
8, 106260, Note_on_c, 0, 64, 127
8, 106318, Note_off_c, 0, 64, 64
8, 106320, Note_on_c, 0, 65, 127
8, 106378, Note_off_c, 0, 65, 64
8, 106380, Note_on_c, 0, 61, 127
8, 106438, Note_off_c, 0, 61, 64
8, 106440, Note_on_c, 0, 62, 127
8, 106798, Note_off_c, 0, 62, 64
8, 106800, Note_on_c, 0, 61, 127
8, 107038, Note_off_c, 0, 61, 64
8, 107040, Note_on_c, 0, 62, 127
8, 107098, Note_off_c, 0, 62, 64
8, 107100, Note_on_c, 0, 69, 127
8, 107158, Note_off_c, 0, 69, 64
8, 107160, Note_on_c, 0, 71, 127
8, 107218, Note_off_c, 0, 71, 64
8, 107220, Note_on_c, 0, 73, 127
8, 107278, Note_off_c, 0, 73, 64
8, 107280, Note_on_c, 0, 74, 127
8, 107398, Note_off_c, 0, 74, 64
8, 107400, Note_on_c, 0, 72, 127
8, 107518, Note_off_c, 0, 72, 64
8, 107520, Note_on_c, 0, 65, 127
8, 107878, Note_off_c, 0, 65, 64
8, 107880, Note_on_c, 0, 63, 127
8, 108058, Note_off_c, 0, 63, 64
8, 108060, Note_on_c, 0, 60, 127
8, 108118, Note_off_c, 0, 60, 64
8, 108120, Note_on_c, 0, 57, 127
8, 108178, Note_off_c, 0, 57, 64
8, 108180, Note_on_c, 0, 53, 127
8, 108238, Note_off_c, 0, 53, 64
8, 108240, Note_on_c, 0, 57, 127
8, 108298, Note_off_c, 0, 57, 64
8, 108300, Note_on_c, 0, 60, 127
8, 108358, Note_off_c, 0, 60, 64
8, 108360, Note_on_c, 0, 63, 127
8, 108418, Note_off_c, 0, 63, 64
8, 108420, Note_on_c, 0, 60, 127
8, 108478, Note_off_c, 0, 60, 64
8, 108480, Note_on_c, 0, 62, 127
8, 108538, Note_off_c, 0, 62, 64
8, 108540, Note_on_c, 0, 58, 127
8, 108598, Note_off_c, 0, 58, 64
8, 108600, Note_on_c, 0, 55, 127
8, 108658, Note_off_c, 0, 55, 64
8, 108660, Note_on_c, 0, 50, 127
8, 108718, Note_off_c, 0, 50, 64
8, 108720, Note_on_c, 0, 55, 127
8, 108778, Note_off_c, 0, 55, 64
8, 108780, Note_on_c, 0, 58, 127
8, 108838, Note_off_c, 0, 58, 64
8, 108840, Note_on_c, 0, 62, 127
8, 108898, Note_off_c, 0, 62, 64
8, 108900, Note_on_c, 0, 67, 127
8, 108958, Note_off_c, 0, 67, 64
8, 108960, Note_on_c, 0, 60, 127
8, 109018, Note_off_c, 0, 60, 64
8, 109020, Note_on_c, 0, 62, 127
8, 109078, Note_off_c, 0, 62, 64
8, 109080, Note_on_c, 0, 58, 127
8, 109138, Note_off_c, 0, 58, 64
8, 109140, Note_on_c, 0, 60, 127
8, 109198, Note_off_c, 0, 60, 64
8, 109200, Note_on_c, 0, 57, 127
8, 109258, Note_off_c, 0, 57, 64
8, 109260, Note_on_c, 0, 55, 127
8, 109318, Note_off_c, 0, 55, 64
8, 109320, Note_on_c, 0, 54, 127
8, 109378, Note_off_c, 0, 54, 64
8, 109380, Note_on_c, 0, 52, 127
8, 109438, Note_off_c, 0, 52, 64
8, 109440, Note_on_c, 0, 54, 127
8, 109498, Note_off_c, 0, 54, 64
8, 109500, Note_on_c, 0, 50, 127
8, 109558, Note_off_c, 0, 50, 64
8, 109560, Note_on_c, 0, 54, 127
8, 109618, Note_off_c, 0, 54, 64
8, 109620, Note_on_c, 0, 55, 127
8, 109678, Note_off_c, 0, 55, 64
8, 109920, Note_on_c, 0, 54, 127
8, 109978, Note_off_c, 0, 54, 64
8, 109980, Note_on_c, 0, 50, 127
8, 110038, Note_off_c, 0, 50, 64
8, 110040, Note_on_c, 0, 54, 127
8, 110098, Note_off_c, 0, 54, 64
8, 110100, Note_on_c, 0, 55, 127
8, 110158, Note_off_c, 0, 55, 64
8, 110400, Note_on_c, 0, 55, 127
8, 110458, Note_off_c, 0, 55, 64
8, 110460, Note_on_c, 0, 50, 127
8, 110518, Note_off_c, 0, 50, 64
8, 110520, Note_on_c, 0, 55, 127
8, 110578, Note_off_c, 0, 55, 64
8, 110580, Note_on_c, 0, 57, 127
8, 110638, Note_off_c, 0, 57, 64
8, 110880, Note_on_c, 0, 55, 127
8, 110938, Note_off_c, 0, 55, 64
8, 110940, Note_on_c, 0, 50, 127
8, 110998, Note_off_c, 0, 50, 64
8, 111000, Note_on_c, 0, 55, 127
8, 111058, Note_off_c, 0, 55, 64
8, 111060, Note_on_c, 0, 57, 127
8, 111118, Note_off_c, 0, 57, 64
8, 111360, Note_on_c, 0, 57, 127
8, 111418, Note_off_c, 0, 57, 64
8, 111420, Note_on_c, 0, 54, 127
8, 111478, Note_off_c, 0, 54, 64
8, 111480, Note_on_c, 0, 57, 127
8, 111538, Note_off_c, 0, 57, 64
8, 111540, Note_on_c, 0, 58, 127
8, 111598, Note_off_c, 0, 58, 64
8, 111840, Note_on_c, 0, 57, 127
8, 111898, Note_off_c, 0, 57, 64
8, 111900, Note_on_c, 0, 54, 127
8, 111958, Note_off_c, 0, 54, 64
8, 111960, Note_on_c, 0, 57, 127
8, 112018, Note_off_c, 0, 57, 64
8, 112020, Note_on_c, 0, 58, 127
8, 112078, Note_off_c, 0, 58, 64
8, 112320, Note_on_c, 0, 57, 127
8, 112378, Note_off_c, 0, 57, 64
8, 112380, Note_on_c, 0, 58, 127
8, 112438, Note_off_c, 0, 58, 64
8, 112440, Note_on_c, 0, 62, 127
8, 112498, Note_off_c, 0, 62, 64
8, 112500, Note_on_c, 0, 66, 127
8, 112558, Note_off_c, 0, 66, 64
8, 112800, Note_on_c, 0, 58, 127
8, 112858, Note_off_c, 0, 58, 64
8, 112860, Note_on_c, 0, 55, 127
8, 112918, Note_off_c, 0, 55, 64
8, 112920, Note_on_c, 0, 58, 127
8, 112978, Note_off_c, 0, 58, 64
8, 112980, Note_on_c, 0, 62, 127
8, 113038, Note_off_c, 0, 62, 64
8, 113280, Note_on_c, 0, 60, 127
8, 113338, Note_off_c, 0, 60, 64
8, 113340, Note_on_c, 0, 57, 127
8, 113398, Note_off_c, 0, 57, 64
8, 113400, Note_on_c, 0, 60, 127
8, 113458, Note_off_c, 0, 60, 64
8, 113460, Note_on_c, 0, 63, 127
8, 113518, Note_off_c, 0, 63, 64
8, 113760, Note_on_c, 0, 60, 127
8, 113818, Note_off_c, 0, 60, 64
8, 113820, Note_on_c, 0, 57, 127
8, 113878, Note_off_c, 0, 57, 64
8, 113880, Note_on_c, 0, 60, 127
8, 113938, Note_off_c, 0, 60, 64
8, 113940, Note_on_c, 0, 63, 127
8, 113998, Note_off_c, 0, 63, 64
8, 114240, Note_on_c, 0, 54, 127
8, 114358, Note_off_c, 0, 54, 64
8, 114480, Note_on_c, 0, 55, 127
8, 114598, Note_off_c, 0, 55, 64
8, 114600, Note_on_c, 0, 57, 127
8, 114718, Note_off_c, 0, 57, 64
8, 114720, Note_on_c, 0, 58, 127
8, 114958, Note_off_c, 0, 58, 64
8, 114960, Note_on_c, 0, 63, 127
8, 115078, Note_off_c, 0, 63, 64
8, 115080, Note_on_c, 0, 59, 127
8, 115198, Note_off_c, 0, 59, 64
8, 115200, Note_on_c, 0, 55, 127
8, 115438, Note_off_c, 0, 55, 64
8, 115440, Note_on_c, 0, 60, 127
8, 115558, Note_off_c, 0, 60, 64
8, 115560, Note_on_c, 0, 58, 127
8, 115678, Note_off_c, 0, 58, 64
8, 115680, Note_on_c, 0, 57, 127
8, 115918, Note_off_c, 0, 57, 64
8, 115920, Note_on_c, 0, 58, 127
8, 116038, Note_off_c, 0, 58, 64
8, 116040, Note_on_c, 0, 60, 127
8, 116158, Note_off_c, 0, 60, 64
8, 116160, Note_on_c, 0, 62, 127
8, 116218, Note_off_c, 0, 62, 64
8, 116220, Note_on_c, 0, 67, 127
8, 116278, Note_off_c, 0, 67, 64
8, 116280, Note_on_c, 0, 65, 127
8, 116338, Note_off_c, 0, 65, 64
8, 116340, Note_on_c, 0, 63, 127
8, 116398, Note_off_c, 0, 63, 64
8, 116400, Note_on_c, 0, 62, 127
8, 116458, Note_off_c, 0, 62, 64
8, 116460, Note_on_c, 0, 63, 127
8, 116518, Note_off_c, 0, 63, 64
8, 116520, Note_on_c, 0, 62, 127
8, 116578, Note_off_c, 0, 62, 64
8, 116580, Note_on_c, 0, 60, 127
8, 116638, Note_off_c, 0, 60, 64
8, 116640, Note_on_c, 0, 58, 127
8, 116698, Note_off_c, 0, 58, 64
8, 116700, Note_on_c, 0, 63, 127
8, 116758, Note_off_c, 0, 63, 64
8, 116760, Note_on_c, 0, 62, 127
8, 116818, Note_off_c, 0, 62, 64
8, 116820, Note_on_c, 0, 60, 127
8, 116878, Note_off_c, 0, 60, 64
8, 116880, Note_on_c, 0, 58, 127
8, 116938, Note_off_c, 0, 58, 64
8, 116940, Note_on_c, 0, 60, 127
8, 116998, Note_off_c, 0, 60, 64
8, 117000, Note_on_c, 0, 58, 127
8, 117058, Note_off_c, 0, 58, 64
8, 117060, Note_on_c, 0, 57, 127
8, 117118, Note_off_c, 0, 57, 64
8, 117120, Note_on_c, 0, 58, 127
8, 117178, Note_off_c, 0, 58, 64
8, 117180, Note_on_c, 0, 57, 127
8, 117238, Note_off_c, 0, 57, 64
8, 117240, Note_on_c, 0, 55, 127
8, 117298, Note_off_c, 0, 55, 64
8, 117300, Note_on_c, 0, 53, 127
8, 117358, Note_off_c, 0, 53, 64
8, 117360, Note_on_c, 0, 52, 127
8, 117478, Note_off_c, 0, 52, 64
8, 117480, Note_on_c, 0, 55, 127
8, 117598, Note_off_c, 0, 55, 64
8, 117600, Note_on_c, 0, 57, 127
8, 117658, Note_off_c, 0, 57, 64
8, 117660, Note_on_c, 0, 59, 127
8, 117718, Note_off_c, 0, 59, 64
8, 117720, Note_on_c, 0, 61, 127
8, 117778, Note_off_c, 0, 61, 64
8, 117780, Note_on_c, 0, 62, 127
8, 117838, Note_off_c, 0, 62, 64
8, 117840, Note_on_c, 0, 64, 127
8, 117898, Note_off_c, 0, 64, 64
8, 117900, Note_on_c, 0, 65, 127
8, 117958, Note_off_c, 0, 65, 64
8, 117960, Note_on_c, 0, 67, 127
8, 118018, Note_off_c, 0, 67, 64
8, 118020, Note_on_c, 0, 69, 127
8, 118078, Note_off_c, 0, 69, 64
8, 118080, Note_on_c, 0, 70, 127
8, 118198, Note_off_c, 0, 70, 64
8, 118200, Note_on_c, 0, 69, 127
8, 118258, Note_off_c, 0, 69, 64
8, 118260, Note_on_c, 0, 67, 127
8, 118318, Note_off_c, 0, 67, 64
8, 118320, Note_on_c, 0, 65, 127
8, 118378, Note_off_c, 0, 65, 64
8, 118380, Note_on_c, 0, 69, 127
8, 118438, Note_off_c, 0, 69, 64
8, 118440, Note_on_c, 0, 64, 127
8, 118498, Note_off_c, 0, 64, 64
8, 118500, Note_on_c, 0, 69, 127
8, 118558, Note_off_c, 0, 69, 64
8, 118560, Note_on_c, 0, 62, 127
8, 118618, Note_off_c, 0, 62, 64
8, 118620, Note_on_c, 0, 69, 127
8, 118678, Note_off_c, 0, 69, 64
8, 118680, Note_on_c, 0, 61, 127
8, 118738, Note_off_c, 0, 61, 64
8, 118740, Note_on_c, 0, 69, 127
8, 118798, Note_off_c, 0, 69, 64
8, 118800, Note_on_c, 0, 62, 127
8, 118858, Note_off_c, 0, 62, 64
8, 118860, Note_on_c, 0, 69, 127
8, 118918, Note_off_c, 0, 69, 64
8, 118920, Note_on_c, 0, 64, 127
8, 118978, Note_off_c, 0, 64, 64
8, 118980, Note_on_c, 0, 69, 127
8, 119038, Note_off_c, 0, 69, 64
8, 119040, Note_on_c, 0, 65, 127
8, 119098, Note_off_c, 0, 65, 64
8, 119100, Note_on_c, 0, 69, 127
8, 119158, Note_off_c, 0, 69, 64
8, 119160, Note_on_c, 0, 57, 127
8, 119218, Note_off_c, 0, 57, 64
8, 119220, Note_on_c, 0, 69, 127
8, 119278, Note_off_c, 0, 69, 64
8, 119280, Note_on_c, 0, 59, 127
8, 119338, Note_off_c, 0, 59, 64
8, 119340, Note_on_c, 0, 69, 127
8, 119398, Note_off_c, 0, 69, 64
8, 119400, Note_on_c, 0, 61, 127
8, 119458, Note_off_c, 0, 61, 64
8, 119460, Note_on_c, 0, 69, 127
8, 119518, Note_off_c, 0, 69, 64
8, 119520, Note_on_c, 0, 62, 127
8, 119578, Note_off_c, 0, 62, 64
8, 119580, Note_on_c, 0, 69, 127
8, 119638, Note_off_c, 0, 69, 64
8, 119640, Note_on_c, 0, 61, 127
8, 119698, Note_off_c, 0, 61, 64
8, 119700, Note_on_c, 0, 69, 127
8, 119758, Note_off_c, 0, 69, 64
8, 119760, Note_on_c, 0, 62, 127
8, 119818, Note_off_c, 0, 62, 64
8, 119820, Note_on_c, 0, 69, 127
8, 119878, Note_off_c, 0, 69, 64
8, 119880, Note_on_c, 0, 59, 127
8, 119938, Note_off_c, 0, 59, 64
8, 119940, Note_on_c, 0, 69, 127
8, 119998, Note_off_c, 0, 69, 64
8, 120000, Note_on_c, 0, 61, 127
8, 120118, Note_off_c, 0, 61, 64
8, 120120, Note_on_c, 0, 62, 127
8, 120238, Note_off_c, 0, 62, 64
8, 120240, Note_on_c, 0, 67, 127
8, 120358, Note_off_c, 0, 67, 64
8, 120360, Note_on_c, 0, 64, 127
8, 120478, Note_off_c, 0, 64, 64
8, 120480, Note_on_c, 0, 65, 127
8, 120598, Note_off_c, 0, 65, 64
8, 120600, Note_on_c, 0, 69, 127
8, 120718, Note_off_c, 0, 69, 64
8, 120720, Note_on_c, 0, 70, 127
8, 120838, Note_off_c, 0, 70, 64
8, 120840, Note_on_c, 0, 69, 127
8, 120958, Note_off_c, 0, 69, 64
8, 120960, Note_on_c, 0, 58, 127
8, 120960, Note_on_c, 0, 62, 127
8, 120960, Note_on_c, 0, 53, 127
8, 121438, Note_off_c, 0, 53, 64
8, 121438, Note_off_c, 0, 62, 64
8, 121438, Note_off_c, 0, 58, 64
8, 121590, Note_on_c, 0, 69, 127
8, 121618, Note_off_c, 0, 69, 64
8, 121620, Note_on_c, 0, 70, 127
8, 121648, Note_off_c, 0, 70, 64
8, 121650, Note_on_c, 0, 72, 127
8, 121678, Note_off_c, 0, 72, 64
8, 121680, Note_on_c, 0, 74, 127
8, 121708, Note_off_c, 0, 74, 64
8, 121830, Note_on_c, 0, 65, 127
8, 121858, Note_off_c, 0, 65, 64
8, 121860, Note_on_c, 0, 67, 127
8, 121888, Note_off_c, 0, 67, 64
8, 121890, Note_on_c, 0, 69, 127
8, 121918, Note_off_c, 0, 69, 64
8, 121920, Note_on_c, 0, 70, 127
8, 121948, Note_off_c, 0, 70, 64
8, 122070, Note_on_c, 0, 69, 127
8, 122098, Note_off_c, 0, 69, 64
8, 122100, Note_on_c, 0, 67, 127
8, 122128, Note_off_c, 0, 67, 64
8, 122130, Note_on_c, 0, 65, 127
8, 122158, Note_off_c, 0, 65, 64
8, 122160, Note_on_c, 0, 63, 127
8, 122188, Note_off_c, 0, 63, 64
8, 122310, Note_on_c, 0, 67, 127
8, 122338, Note_off_c, 0, 67, 64
8, 122340, Note_on_c, 0, 65, 127
8, 122368, Note_off_c, 0, 65, 64
8, 122370, Note_on_c, 0, 63, 127
8, 122398, Note_off_c, 0, 63, 64
8, 122400, Note_on_c, 0, 62, 127
8, 122428, Note_off_c, 0, 62, 64
8, 122550, Note_on_c, 0, 57, 127
8, 122578, Note_off_c, 0, 57, 64
8, 122580, Note_on_c, 0, 58, 127
8, 122608, Note_off_c, 0, 58, 64
8, 122610, Note_on_c, 0, 60, 127
8, 122638, Note_off_c, 0, 60, 64
8, 122640, Note_on_c, 0, 62, 127
8, 122668, Note_off_c, 0, 62, 64
8, 122790, Note_on_c, 0, 53, 127
8, 122818, Note_off_c, 0, 53, 64
8, 122820, Note_on_c, 0, 55, 127
8, 122848, Note_off_c, 0, 55, 64
8, 122850, Note_on_c, 0, 57, 127
8, 122878, Note_off_c, 0, 57, 64
8, 122880, Note_on_c, 0, 58, 127
8, 122908, Note_off_c, 0, 58, 64
8, 123030, Note_on_c, 0, 60, 127
8, 123058, Note_off_c, 0, 60, 64
8, 123060, Note_on_c, 0, 58, 127
8, 123088, Note_off_c, 0, 58, 64
8, 123090, Note_on_c, 0, 57, 127
8, 123118, Note_off_c, 0, 57, 64
8, 123120, Note_on_c, 0, 55, 127
8, 123148, Note_off_c, 0, 55, 64
8, 123270, Note_on_c, 0, 62, 127
8, 123298, Note_off_c, 0, 62, 64
8, 123300, Note_on_c, 0, 60, 127
8, 123328, Note_off_c, 0, 60, 64
8, 123330, Note_on_c, 0, 58, 127
8, 123358, Note_off_c, 0, 58, 64
8, 123360, Note_on_c, 0, 57, 127
8, 123388, Note_off_c, 0, 57, 64
8, 123510, Note_on_c, 0, 63, 127
8, 123538, Note_off_c, 0, 63, 64
8, 123540, Note_on_c, 0, 62, 127
8, 123568, Note_off_c, 0, 62, 64
8, 123570, Note_on_c, 0, 60, 127
8, 123598, Note_off_c, 0, 60, 64
8, 123600, Note_on_c, 0, 58, 127
8, 123628, Note_off_c, 0, 58, 64
8, 123780, Note_on_c, 0, 55, 127
8, 123838, Note_off_c, 0, 55, 64
8, 123840, Note_on_c, 0, 61, 127
8, 124558, Note_off_c, 0, 61, 64
8, 124560, Note_on_c, 0, 62, 127
8, 124798, Note_off_c, 0, 62, 64
8, 124800, Note_on_c, 0, 59, 127
8, 125278, Note_off_c, 0, 59, 64
8, 126120, Note_on_c, 0, 59, 127
8, 126120, Note_on_c, 0, 56, 127
8, 126120, Note_on_c, 0, 52, 127
8, 126238, Note_off_c, 0, 52, 64
8, 126238, Note_off_c, 0, 56, 64
8, 126238, Note_off_c, 0, 59, 64
8, 126240, Note_on_c, 0, 52, 127
8, 126240, Note_on_c, 0, 60, 127
8, 126240, Note_on_c, 0, 57, 127
8, 126718, Note_off_c, 0, 57, 64
8, 126720, Note_on_c, 0, 64, 127
8, 126720, Note_on_c, 0, 55, 127
8, 127198, Note_off_c, 0, 55, 64
8, 127198, Note_off_c, 0, 64, 64
8, 127198, Note_off_c, 0, 60, 64
8, 127198, Note_off_c, 0, 52, 64
8, 127350, Note_on_c, 0, 64, 127
8, 127378, Note_off_c, 0, 64, 64
8, 127380, Note_on_c, 0, 62, 127
8, 127408, Note_off_c, 0, 62, 64
8, 127410, Note_on_c, 0, 64, 127
8, 127438, Note_off_c, 0, 64, 64
8, 127440, Note_on_c, 0, 60, 127
8, 127468, Note_off_c, 0, 60, 64
8, 127590, Note_on_c, 0, 65, 127
8, 127618, Note_off_c, 0, 65, 64
8, 127620, Note_on_c, 0, 64, 127
8, 127648, Note_off_c, 0, 64, 64
8, 127650, Note_on_c, 0, 65, 127
8, 127678, Note_off_c, 0, 65, 64
8, 127680, Note_on_c, 0, 62, 127
8, 127708, Note_off_c, 0, 62, 64
8, 127830, Note_on_c, 0, 67, 127
8, 127858, Note_off_c, 0, 67, 64
8, 127860, Note_on_c, 0, 65, 127
8, 127888, Note_off_c, 0, 65, 64
8, 127890, Note_on_c, 0, 67, 127
8, 127918, Note_off_c, 0, 67, 64
8, 127920, Note_on_c, 0, 64, 127
8, 127948, Note_off_c, 0, 64, 64
8, 128040, Note_on_c, 0, 69, 127
8, 128068, Note_off_c, 0, 69, 64
8, 128160, Note_on_c, 0, 71, 127
8, 128188, Note_off_c, 0, 71, 64
8, 128280, Note_on_c, 0, 72, 127
8, 128308, Note_off_c, 0, 72, 64
8, 128400, Note_on_c, 0, 74, 127
8, 128428, Note_off_c, 0, 74, 64
8, 128550, Note_on_c, 0, 72, 127
8, 128578, Note_off_c, 0, 72, 64
8, 128580, Note_on_c, 0, 71, 127
8, 128608, Note_off_c, 0, 71, 64
8, 128610, Note_on_c, 0, 72, 127
8, 128638, Note_off_c, 0, 72, 64
8, 128640, Note_on_c, 0, 69, 127
8, 128668, Note_off_c, 0, 69, 64
8, 128790, Note_on_c, 0, 68, 127
8, 128818, Note_off_c, 0, 68, 64
8, 128820, Note_on_c, 0, 66, 127
8, 128848, Note_off_c, 0, 66, 64
8, 128850, Note_on_c, 0, 68, 127
8, 128878, Note_off_c, 0, 68, 64
8, 128880, Note_on_c, 0, 64, 127
8, 128908, Note_off_c, 0, 64, 64
8, 129030, Note_on_c, 0, 65, 127
8, 129058, Note_off_c, 0, 65, 64
8, 129060, Note_on_c, 0, 64, 127
8, 129088, Note_off_c, 0, 64, 64
8, 129090, Note_on_c, 0, 65, 127
8, 129118, Note_off_c, 0, 65, 64
8, 129120, Note_on_c, 0, 62, 127
8, 129148, Note_off_c, 0, 62, 64
8, 129240, Note_on_c, 0, 60, 127
8, 129268, Note_off_c, 0, 60, 64
8, 129360, Note_on_c, 0, 59, 127
8, 129388, Note_off_c, 0, 59, 64
8, 129510, Note_on_c, 0, 60, 127
8, 129538, Note_off_c, 0, 60, 64
8, 129540, Note_on_c, 0, 59, 127
8, 129568, Note_off_c, 0, 59, 64
8, 129570, Note_on_c, 0, 57, 127
8, 129598, Note_off_c, 0, 57, 64
8, 129600, Note_on_c, 0, 56, 127
8, 129628, Note_off_c, 0, 56, 64
8, 129720, Note_on_c, 0, 57, 127
8, 129748, Note_off_c, 0, 57, 64
8, 129840, Note_on_c, 0, 59, 127
8, 129868, Note_off_c, 0, 59, 64
8, 129960, Note_on_c, 0, 60, 127
8, 129988, Note_off_c, 0, 60, 64
8, 130080, Note_on_c, 0, 62, 127
8, 130108, Note_off_c, 0, 62, 64
8, 130200, Note_on_c, 0, 64, 127
8, 130228, Note_off_c, 0, 64, 64
8, 130440, Note_on_c, 0, 55, 127
8, 130558, Note_off_c, 0, 55, 64
8, 130560, Note_on_c, 0, 57, 127
8, 130678, Note_off_c, 0, 57, 64
8, 130680, Note_on_c, 0, 57, 127
8, 130708, Note_off_c, 0, 57, 64
8, 130710, Note_on_c, 0, 61, 127
8, 130738, Note_off_c, 0, 61, 64
8, 130740, Note_on_c, 0, 64, 127
8, 130768, Note_off_c, 0, 64, 64
8, 130920, Note_on_c, 0, 57, 127
8, 131038, Note_off_c, 0, 57, 64
8, 131040, Note_on_c, 0, 57, 127
8, 131158, Note_off_c, 0, 57, 64
8, 131160, Note_on_c, 0, 57, 127
8, 131188, Note_off_c, 0, 57, 64
8, 131190, Note_on_c, 0, 62, 127
8, 131218, Note_off_c, 0, 62, 64
8, 131220, Note_on_c, 0, 65, 127
8, 131248, Note_off_c, 0, 65, 64
8, 131400, Note_on_c, 0, 57, 127
8, 131518, Note_off_c, 0, 57, 64
8, 131520, Note_on_c, 0, 59, 127
8, 131638, Note_off_c, 0, 59, 64
8, 131640, Note_on_c, 0, 55, 127
8, 131668, Note_off_c, 0, 55, 64
8, 131670, Note_on_c, 0, 59, 127
8, 131698, Note_off_c, 0, 59, 64
8, 131700, Note_on_c, 0, 62, 127
8, 131728, Note_off_c, 0, 62, 64
8, 131880, Note_on_c, 0, 55, 127
8, 131998, Note_off_c, 0, 55, 64
8, 132000, Note_on_c, 0, 55, 127
8, 132118, Note_off_c, 0, 55, 64
8, 132120, Note_on_c, 0, 55, 127
8, 132148, Note_off_c, 0, 55, 64
8, 132150, Note_on_c, 0, 60, 127
8, 132178, Note_off_c, 0, 60, 64
8, 132180, Note_on_c, 0, 64, 127
8, 132208, Note_off_c, 0, 64, 64
8, 132360, Note_on_c, 0, 55, 127
8, 132478, Note_off_c, 0, 55, 64
8, 132480, Note_on_c, 0, 57, 127
8, 132598, Note_off_c, 0, 57, 64
8, 132600, Note_on_c, 0, 53, 127
8, 132628, Note_off_c, 0, 53, 64
8, 132630, Note_on_c, 0, 57, 127
8, 132658, Note_off_c, 0, 57, 64
8, 132660, Note_on_c, 0, 60, 127
8, 132688, Note_off_c, 0, 60, 64
8, 132840, Note_on_c, 0, 53, 127
8, 132958, Note_off_c, 0, 53, 64
8, 132960, Note_on_c, 0, 53, 127
8, 133078, Note_off_c, 0, 53, 64
8, 133080, Note_on_c, 0, 53, 127
8, 133108, Note_off_c, 0, 53, 64
8, 133110, Note_on_c, 0, 58, 127
8, 133138, Note_off_c, 0, 58, 64
8, 133140, Note_on_c, 0, 62, 127
8, 133168, Note_off_c, 0, 62, 64
8, 133320, Note_on_c, 0, 53, 127
8, 133438, Note_off_c, 0, 53, 64
8, 133440, Note_on_c, 0, 52, 127
8, 133558, Note_off_c, 0, 52, 64
8, 133560, Note_on_c, 0, 52, 127
8, 133588, Note_off_c, 0, 52, 64
8, 133590, Note_on_c, 0, 55, 127
8, 133618, Note_off_c, 0, 55, 64
8, 133620, Note_on_c, 0, 58, 127
8, 133648, Note_off_c, 0, 58, 64
8, 133800, Note_on_c, 0, 52, 127
8, 133918, Note_off_c, 0, 52, 64
8, 133920, Note_on_c, 0, 54, 127
8, 134038, Note_off_c, 0, 54, 64
8, 134040, Note_on_c, 0, 50, 127
8, 134068, Note_off_c, 0, 50, 64
8, 134070, Note_on_c, 0, 57, 127
8, 134098, Note_off_c, 0, 57, 64
8, 134100, Note_on_c, 0, 62, 127
8, 134128, Note_off_c, 0, 62, 64
8, 134280, Note_on_c, 0, 54, 127
8, 134398, Note_off_c, 0, 54, 64
8, 134400, Note_on_c, 0, 55, 127
8, 134878, Note_off_c, 0, 55, 64
8, 134880, Note_on_c, 0, 58, 127
8, 135118, Note_off_c, 0, 58, 64
8, 135120, Note_on_c, 0, 57, 127
8, 135358, Note_off_c, 0, 57, 64
8, 135360, Note_on_c, 0, 57, 127
8, 135838, Note_off_c, 0, 57, 64
8, 135840, Note_on_c, 0, 53, 127
8, 136078, Note_off_c, 0, 53, 64
8, 136080, Note_on_c, 0, 55, 127
8, 136318, Note_off_c, 0, 55, 64
8, 136320, Note_on_c, 0, 53, 127
8, 137278, Note_off_c, 0, 53, 64
8, 137278, End_track
9, 0, Start_track
9, 0, Title_t, "Jan-Oct 1990"
9, 0, Program_c, 0, 19
9, 0, Control_c, 0, 7, 127
9, 49020, Note_on_c, 0, 50, 127
9, 49078, Note_off_c, 0, 50, 64
9, 49080, Note_on_c, 0, 48, 127
9, 49138, Note_off_c, 0, 48, 64
9, 49140, Note_on_c, 0, 50, 127
9, 49198, Note_off_c, 0, 50, 64
9, 49200, Note_on_c, 0, 46, 127
9, 49258, Note_off_c, 0, 46, 64
9, 49260, Note_on_c, 0, 50, 127
9, 49318, Note_off_c, 0, 50, 64
9, 49320, Note_on_c, 0, 45, 127
9, 49378, Note_off_c, 0, 45, 64
9, 49380, Note_on_c, 0, 50, 127
9, 49438, Note_off_c, 0, 50, 64
9, 49440, Note_on_c, 0, 43, 127
9, 49498, Note_off_c, 0, 43, 64
9, 49500, Note_on_c, 0, 50, 127
9, 49558, Note_off_c, 0, 50, 64
9, 49560, Note_on_c, 0, 42, 127
9, 49618, Note_off_c, 0, 42, 64
9, 49620, Note_on_c, 0, 50, 127
9, 49678, Note_off_c, 0, 50, 64
9, 49680, Note_on_c, 0, 43, 127
9, 49738, Note_off_c, 0, 43, 64
9, 49740, Note_on_c, 0, 50, 127
9, 49798, Note_off_c, 0, 50, 64
9, 49800, Note_on_c, 0, 45, 127
9, 49858, Note_off_c, 0, 45, 64
9, 49860, Note_on_c, 0, 50, 127
9, 49918, Note_off_c, 0, 50, 64
9, 49920, Note_on_c, 0, 46, 127
9, 49978, Note_off_c, 0, 46, 64
9, 49980, Note_on_c, 0, 50, 127
9, 50038, Note_off_c, 0, 50, 64
9, 50040, Note_on_c, 0, 38, 127
9, 50098, Note_off_c, 0, 38, 64
9, 50100, Note_on_c, 0, 50, 127
9, 50158, Note_off_c, 0, 50, 64
9, 50160, Note_on_c, 0, 40, 127
9, 50218, Note_off_c, 0, 40, 64
9, 50220, Note_on_c, 0, 50, 127
9, 50278, Note_off_c, 0, 50, 64
9, 50280, Note_on_c, 0, 42, 127
9, 50338, Note_off_c, 0, 42, 64
9, 50340, Note_on_c, 0, 50, 127
9, 50398, Note_off_c, 0, 50, 64
9, 50400, Note_on_c, 0, 43, 127
9, 50458, Note_off_c, 0, 43, 64
9, 50460, Note_on_c, 0, 50, 127
9, 50518, Note_off_c, 0, 50, 64
9, 50520, Note_on_c, 0, 42, 127
9, 50578, Note_off_c, 0, 42, 64
9, 50580, Note_on_c, 0, 50, 127
9, 50638, Note_off_c, 0, 50, 64
9, 50640, Note_on_c, 0, 43, 127
9, 50698, Note_off_c, 0, 43, 64
9, 50700, Note_on_c, 0, 50, 127
9, 50758, Note_off_c, 0, 50, 64
9, 50760, Note_on_c, 0, 45, 127
9, 50818, Note_off_c, 0, 45, 64
9, 50820, Note_on_c, 0, 50, 127
9, 50878, Note_off_c, 0, 50, 64
9, 50880, Note_on_c, 0, 46, 127
9, 51118, Note_off_c, 0, 46, 64
9, 51240, Note_on_c, 0, 47, 127
9, 51358, Note_off_c, 0, 47, 64
9, 51360, Note_on_c, 0, 48, 127
9, 51598, Note_off_c, 0, 48, 64
9, 51720, Note_on_c, 0, 49, 127
9, 51838, Note_off_c, 0, 49, 64
9, 51840, Note_on_c, 0, 50, 127
9, 52078, Note_off_c, 0, 50, 64
9, 52200, Note_on_c, 0, 50, 127
9, 52318, Note_off_c, 0, 50, 64
9, 52320, Note_on_c, 0, 52, 127
9, 52558, Note_off_c, 0, 52, 64
9, 52680, Note_on_c, 0, 52, 127
9, 52798, Note_off_c, 0, 52, 64
9, 52800, Note_on_c, 0, 53, 127
9, 52918, Note_off_c, 0, 53, 64
9, 52920, Note_on_c, 0, 45, 127
9, 53038, Note_off_c, 0, 45, 64
9, 53040, Note_on_c, 0, 46, 127
9, 53158, Note_off_c, 0, 46, 64
9, 53160, Note_on_c, 0, 50, 127
9, 53278, Note_off_c, 0, 50, 64
9, 53280, Note_on_c, 0, 43, 127
9, 53518, Note_off_c, 0, 43, 64
9, 53640, Note_on_c, 0, 46, 127
9, 53878, Note_off_c, 0, 46, 64
9, 53880, Note_on_c, 0, 45, 127
9, 53998, Note_off_c, 0, 45, 64
9, 54000, Note_on_c, 0, 43, 127
9, 54118, Note_off_c, 0, 43, 64
9, 54120, Note_on_c, 0, 48, 127
9, 54238, Note_off_c, 0, 48, 64
9, 54240, Note_on_c, 0, 41, 127
9, 54478, Note_off_c, 0, 41, 64
9, 82140, Note_on_c, 0, 55, 127
9, 82198, Note_off_c, 0, 55, 64
9, 82200, Note_on_c, 0, 53, 127
9, 82258, Note_off_c, 0, 53, 64
9, 82260, Note_on_c, 0, 55, 127
9, 82318, Note_off_c, 0, 55, 64
9, 82320, Note_on_c, 0, 51, 127
9, 82378, Note_off_c, 0, 51, 64
9, 82380, Note_on_c, 0, 55, 127
9, 82438, Note_off_c, 0, 55, 64
9, 82440, Note_on_c, 0, 50, 127
9, 82498, Note_off_c, 0, 50, 64
9, 82500, Note_on_c, 0, 55, 127
9, 82558, Note_off_c, 0, 55, 64
9, 82560, Note_on_c, 0, 48, 127
9, 82618, Note_off_c, 0, 48, 64
9, 82620, Note_on_c, 0, 55, 127
9, 82678, Note_off_c, 0, 55, 64
9, 82680, Note_on_c, 0, 47, 127
9, 82738, Note_off_c, 0, 47, 64
9, 82740, Note_on_c, 0, 55, 127
9, 82798, Note_off_c, 0, 55, 64
9, 82800, Note_on_c, 0, 48, 127
9, 82858, Note_off_c, 0, 48, 64
9, 82860, Note_on_c, 0, 55, 127
9, 82918, Note_off_c, 0, 55, 64
9, 82920, Note_on_c, 0, 50, 127
9, 82978, Note_off_c, 0, 50, 64
9, 82980, Note_on_c, 0, 55, 127
9, 83038, Note_off_c, 0, 55, 64
9, 83040, Note_on_c, 0, 51, 127
9, 83098, Note_off_c, 0, 51, 64
9, 83100, Note_on_c, 0, 55, 127
9, 83158, Note_off_c, 0, 55, 64
9, 83160, Note_on_c, 0, 43, 127
9, 83218, Note_off_c, 0, 43, 64
9, 83220, Note_on_c, 0, 55, 127
9, 83278, Note_off_c, 0, 55, 64
9, 83280, Note_on_c, 0, 45, 127
9, 83338, Note_off_c, 0, 45, 64
9, 83340, Note_on_c, 0, 55, 127
9, 83398, Note_off_c, 0, 55, 64
9, 83400, Note_on_c, 0, 47, 127
9, 83458, Note_off_c, 0, 47, 64
9, 83460, Note_on_c, 0, 55, 127
9, 83518, Note_off_c, 0, 55, 64
9, 83520, Note_on_c, 0, 48, 127
9, 83578, Note_off_c, 0, 48, 64
9, 83580, Note_on_c, 0, 55, 127
9, 83638, Note_off_c, 0, 55, 64
9, 83640, Note_on_c, 0, 47, 127
9, 83698, Note_off_c, 0, 47, 64
9, 83700, Note_on_c, 0, 55, 127
9, 83758, Note_off_c, 0, 55, 64
9, 83760, Note_on_c, 0, 48, 127
9, 83818, Note_off_c, 0, 48, 64
9, 83820, Note_on_c, 0, 55, 127
9, 83878, Note_off_c, 0, 55, 64
9, 83880, Note_on_c, 0, 50, 127
9, 83938, Note_off_c, 0, 50, 64
9, 83940, Note_on_c, 0, 55, 127
9, 83998, Note_off_c, 0, 55, 64
9, 84000, Note_on_c, 0, 51, 127
9, 84118, Note_off_c, 0, 51, 64
9, 84120, Note_on_c, 0, 50, 127
9, 84238, Note_off_c, 0, 50, 64
9, 84240, Note_on_c, 0, 48, 127
9, 84358, Note_off_c, 0, 48, 64
9, 84360, Note_on_c, 0, 47, 127
9, 84478, Note_off_c, 0, 47, 64
9, 84480, Note_on_c, 0, 48, 127
9, 84598, Note_off_c, 0, 48, 64
9, 84600, Note_on_c, 0, 50, 127
9, 84718, Note_off_c, 0, 50, 64
9, 84720, Note_on_c, 0, 51, 127
9, 84838, Note_off_c, 0, 51, 64
9, 84840, Note_on_c, 0, 53, 127
9, 84958, Note_off_c, 0, 53, 64
9, 84960, Note_on_c, 0, 55, 127
9, 85078, Note_off_c, 0, 55, 64
9, 85080, Note_on_c, 0, 47, 127
9, 85198, Note_off_c, 0, 47, 64
9, 85200, Note_on_c, 0, 48, 127
9, 85318, Note_off_c, 0, 48, 64
9, 85320, Note_on_c, 0, 50, 127
9, 85438, Note_off_c, 0, 50, 64
9, 85440, Note_on_c, 0, 51, 127
9, 85558, Note_off_c, 0, 51, 64
9, 85560, Note_on_c, 0, 50, 127
9, 85678, Note_off_c, 0, 50, 64
9, 85680, Note_on_c, 0, 51, 127
9, 85798, Note_off_c, 0, 51, 64
9, 85800, Note_on_c, 0, 53, 127
9, 85918, Note_off_c, 0, 53, 64
9, 85920, Note_on_c, 0, 55, 127
9, 86038, Note_off_c, 0, 55, 64
9, 86040, Note_on_c, 0, 47, 127
9, 86158, Note_off_c, 0, 47, 64
9, 86160, Note_on_c, 0, 48, 127
9, 86278, Note_off_c, 0, 48, 64
9, 86280, Note_on_c, 0, 50, 127
9, 86398, Note_off_c, 0, 50, 64
9, 86400, Note_on_c, 0, 51, 127
9, 86518, Note_off_c, 0, 51, 64
9, 86520, Note_on_c, 0, 45, 127
9, 86638, Note_off_c, 0, 45, 64
9, 86640, Note_on_c, 0, 46, 127
9, 86758, Note_off_c, 0, 46, 64
9, 86760, Note_on_c, 0, 48, 127
9, 86878, Note_off_c, 0, 48, 64
9, 86880, Note_on_c, 0, 50, 127
9, 86998, Note_off_c, 0, 50, 64
9, 87000, Note_on_c, 0, 43, 127
9, 87118, Note_off_c, 0, 43, 64
9, 87120, Note_on_c, 0, 45, 127
9, 87238, Note_off_c, 0, 45, 64
9, 87240, Note_on_c, 0, 46, 127
9, 87358, Note_off_c, 0, 46, 64
9, 87360, Note_on_c, 0, 48, 127
9, 87478, Note_off_c, 0, 48, 64
9, 87480, Note_on_c, 0, 50, 127
9, 87598, Note_off_c, 0, 50, 64
9, 87600, Note_on_c, 0, 55, 127
9, 87718, Note_off_c, 0, 55, 64
9, 87720, Note_on_c, 0, 50, 127
9, 87838, Note_off_c, 0, 50, 64
9, 87840, Note_on_c, 0, 51, 127
9, 87958, Note_off_c, 0, 51, 64
9, 87960, Note_on_c, 0, 46, 127
9, 88078, Note_off_c, 0, 46, 64
9, 88080, Note_on_c, 0, 45, 127
9, 88198, Note_off_c, 0, 45, 64
9, 88200, Note_on_c, 0, 48, 127
9, 88318, Note_off_c, 0, 48, 64
9, 88320, Note_on_c, 0, 50, 127
9, 90478, Note_off_c, 0, 50, 64
9, 90600, Note_on_c, 0, 43, 127
9, 90718, Note_off_c, 0, 43, 64
9, 90720, Note_on_c, 0, 48, 127
9, 90838, Note_off_c, 0, 48, 64
9, 90840, Note_on_c, 0, 45, 127
9, 90958, Note_off_c, 0, 45, 64
9, 90960, Note_on_c, 0, 50, 127
9, 91078, Note_off_c, 0, 50, 64
9, 91080, Note_on_c, 0, 38, 127
9, 91198, Note_off_c, 0, 38, 64
9, 91200, Note_on_c, 0, 43, 127
9, 91438, Note_off_c, 0, 43, 64
9, 91560, Note_on_c, 0, 43, 127
9, 91678, Note_off_c, 0, 43, 64
9, 91680, Note_on_c, 0, 48, 127
9, 91918, Note_off_c, 0, 48, 64
9, 92040, Note_on_c, 0, 47, 127
9, 92158, Note_off_c, 0, 47, 64
9, 92160, Note_on_c, 0, 48, 127
9, 92398, Note_off_c, 0, 48, 64
9, 100320, Note_on_c, 0, 57, 127
9, 104220, Note_on_c, 0, 57, 127
9, 104278, Note_off_c, 0, 57, 64
9, 104280, Note_on_c, 0, 55, 127
9, 104338, Note_off_c, 0, 55, 64
9, 104340, Note_on_c, 0, 57, 127
9, 104398, Note_off_c, 0, 57, 64
9, 104398, Note_off_c, 0, 57, 64
9, 104400, Note_on_c, 0, 53, 127
9, 104458, Note_off_c, 0, 53, 64
9, 104460, Note_on_c, 0, 57, 127
9, 104518, Note_off_c, 0, 57, 64
9, 104520, Note_on_c, 0, 52, 127
9, 104578, Note_off_c, 0, 52, 64
9, 104580, Note_on_c, 0, 57, 127
9, 104638, Note_off_c, 0, 57, 64
9, 104640, Note_on_c, 0, 50, 127
9, 104698, Note_off_c, 0, 50, 64
9, 104700, Note_on_c, 0, 57, 127
9, 104758, Note_off_c, 0, 57, 64
9, 104760, Note_on_c, 0, 49, 127
9, 104818, Note_off_c, 0, 49, 64
9, 104820, Note_on_c, 0, 57, 127
9, 104878, Note_off_c, 0, 57, 64
9, 104880, Note_on_c, 0, 50, 127
9, 104938, Note_off_c, 0, 50, 64
9, 104940, Note_on_c, 0, 57, 127
9, 104998, Note_off_c, 0, 57, 64
9, 105000, Note_on_c, 0, 52, 127
9, 105058, Note_off_c, 0, 52, 64
9, 105060, Note_on_c, 0, 57, 127
9, 105118, Note_off_c, 0, 57, 64
9, 105120, Note_on_c, 0, 53, 127
9, 105178, Note_off_c, 0, 53, 64
9, 105180, Note_on_c, 0, 57, 127
9, 105238, Note_off_c, 0, 57, 64
9, 105240, Note_on_c, 0, 45, 127
9, 105298, Note_off_c, 0, 45, 64
9, 105300, Note_on_c, 0, 57, 127
9, 105358, Note_off_c, 0, 57, 64
9, 105360, Note_on_c, 0, 47, 127
9, 105418, Note_off_c, 0, 47, 64
9, 105420, Note_on_c, 0, 57, 127
9, 105478, Note_off_c, 0, 57, 64
9, 105480, Note_on_c, 0, 49, 127
9, 105538, Note_off_c, 0, 49, 64
9, 105540, Note_on_c, 0, 57, 127
9, 105598, Note_off_c, 0, 57, 64
9, 105600, Note_on_c, 0, 50, 127
9, 105658, Note_off_c, 0, 50, 64
9, 105660, Note_on_c, 0, 57, 127
9, 105718, Note_off_c, 0, 57, 64
9, 105720, Note_on_c, 0, 49, 127
9, 105778, Note_off_c, 0, 49, 64
9, 105780, Note_on_c, 0, 57, 127
9, 105838, Note_off_c, 0, 57, 64
9, 105840, Note_on_c, 0, 50, 127
9, 105898, Note_off_c, 0, 50, 64
9, 105900, Note_on_c, 0, 57, 127
9, 105958, Note_off_c, 0, 57, 64
9, 105960, Note_on_c, 0, 52, 127
9, 106018, Note_off_c, 0, 52, 64
9, 106020, Note_on_c, 0, 57, 127
9, 106078, Note_off_c, 0, 57, 64
9, 106080, Note_on_c, 0, 53, 127
9, 106318, Note_off_c, 0, 53, 64
9, 106440, Note_on_c, 0, 53, 127
9, 106558, Note_off_c, 0, 53, 64
9, 106560, Note_on_c, 0, 55, 127
9, 106678, Note_off_c, 0, 55, 64
9, 106680, Note_on_c, 0, 52, 127
9, 106798, Note_off_c, 0, 52, 64
9, 106800, Note_on_c, 0, 57, 127
9, 106918, Note_off_c, 0, 57, 64
9, 106920, Note_on_c, 0, 45, 127
9, 107038, Note_off_c, 0, 45, 64
9, 107040, Note_on_c, 0, 50, 127
9, 107278, Note_off_c, 0, 50, 64
9, 107400, Note_on_c, 0, 45, 127
9, 107518, Note_off_c, 0, 45, 64
9, 107520, Note_on_c, 0, 46, 127
9, 107638, Note_off_c, 0, 46, 64
9, 107640, Note_on_c, 0, 43, 127
9, 107758, Note_off_c, 0, 43, 64
9, 107760, Note_on_c, 0, 48, 127
9, 107878, Note_off_c, 0, 48, 64
9, 107880, Note_on_c, 0, 36, 127
9, 107998, Note_off_c, 0, 36, 64
9, 108000, Note_on_c, 0, 41, 127
9, 108238, Note_off_c, 0, 41, 64
9, 108360, Note_on_c, 0, 45, 127
9, 108478, Note_off_c, 0, 45, 64
9, 108480, Note_on_c, 0, 46, 127
9, 108718, Note_off_c, 0, 46, 64
9, 108840, Note_on_c, 0, 46, 127
9, 108958, Note_off_c, 0, 46, 64
9, 108960, Note_on_c, 0, 48, 127
9, 109198, Note_off_c, 0, 48, 64
9, 109320, Note_on_c, 0, 45, 127
9, 109438, Note_off_c, 0, 45, 64
9, 109440, Note_on_c, 0, 50, 127
9, 109678, Note_off_c, 0, 50, 64
9, 109920, Note_on_c, 0, 50, 127
9, 110158, Note_off_c, 0, 50, 64
9, 110400, Note_on_c, 0, 50, 127
9, 110638, Note_off_c, 0, 50, 64
9, 110880, Note_on_c, 0, 50, 127
9, 111118, Note_off_c, 0, 50, 64
9, 111360, Note_on_c, 0, 50, 127
9, 111598, Note_off_c, 0, 50, 64
9, 111840, Note_on_c, 0, 50, 127
9, 112078, Note_off_c, 0, 50, 64
9, 112320, Note_on_c, 0, 50, 127
9, 112558, Note_off_c, 0, 50, 64
9, 112800, Note_on_c, 0, 50, 127
9, 113038, Note_off_c, 0, 50, 64
9, 113280, Note_on_c, 0, 50, 127
9, 113518, Note_off_c, 0, 50, 64
9, 113760, Note_on_c, 0, 50, 127
9, 113998, Note_off_c, 0, 50, 64
9, 114300, Note_on_c, 0, 50, 127
9, 114358, Note_off_c, 0, 50, 64
9, 114360, Note_on_c, 0, 48, 127
9, 114418, Note_off_c, 0, 48, 64
9, 114420, Note_on_c, 0, 50, 127
9, 114478, Note_off_c, 0, 50, 64
9, 114480, Note_on_c, 0, 46, 127
9, 114538, Note_off_c, 0, 46, 64
9, 114540, Note_on_c, 0, 50, 127
9, 114598, Note_off_c, 0, 50, 64
9, 114600, Note_on_c, 0, 45, 127
9, 114658, Note_off_c, 0, 45, 64
9, 114660, Note_on_c, 0, 50, 127
9, 114718, Note_off_c, 0, 50, 64
9, 114720, Note_on_c, 0, 43, 127
9, 114778, Note_off_c, 0, 43, 64
9, 114780, Note_on_c, 0, 55, 127
9, 114838, Note_off_c, 0, 55, 64
9, 114840, Note_on_c, 0, 53, 127
9, 114898, Note_off_c, 0, 53, 64
9, 114900, Note_on_c, 0, 55, 127
9, 114958, Note_off_c, 0, 55, 64
9, 114960, Note_on_c, 0, 51, 127
9, 115018, Note_off_c, 0, 51, 64
9, 115020, Note_on_c, 0, 55, 127
9, 115078, Note_off_c, 0, 55, 64
9, 115080, Note_on_c, 0, 50, 127
9, 115138, Note_off_c, 0, 50, 64
9, 115140, Note_on_c, 0, 55, 127
9, 115198, Note_off_c, 0, 55, 64
9, 115200, Note_on_c, 0, 48, 127
9, 115258, Note_off_c, 0, 48, 64
9, 115260, Note_on_c, 0, 48, 127
9, 115318, Note_off_c, 0, 48, 64
9, 115320, Note_on_c, 0, 46, 127
9, 115378, Note_off_c, 0, 46, 64
9, 115380, Note_on_c, 0, 48, 127
9, 115438, Note_off_c, 0, 48, 64
9, 115440, Note_on_c, 0, 45, 127
9, 115498, Note_off_c, 0, 45, 64
9, 115500, Note_on_c, 0, 48, 127
9, 115558, Note_off_c, 0, 48, 64
9, 115560, Note_on_c, 0, 43, 127
9, 115618, Note_off_c, 0, 43, 64
9, 115620, Note_on_c, 0, 48, 127
9, 115678, Note_off_c, 0, 48, 64
9, 115680, Note_on_c, 0, 41, 127
9, 115738, Note_off_c, 0, 41, 64
9, 115740, Note_on_c, 0, 53, 127
9, 115798, Note_off_c, 0, 53, 64
9, 115800, Note_on_c, 0, 51, 127
9, 115858, Note_off_c, 0, 51, 64
9, 115860, Note_on_c, 0, 53, 127
9, 115918, Note_off_c, 0, 53, 64
9, 115920, Note_on_c, 0, 50, 127
9, 115978, Note_off_c, 0, 50, 64
9, 115980, Note_on_c, 0, 53, 127
9, 116038, Note_off_c, 0, 53, 64
9, 116040, Note_on_c, 0, 48, 127
9, 116098, Note_off_c, 0, 48, 64
9, 116100, Note_on_c, 0, 53, 127
9, 116158, Note_off_c, 0, 53, 64
9, 116160, Note_on_c, 0, 46, 127
9, 116278, Note_off_c, 0, 46, 64
9, 116280, Note_on_c, 0, 51, 127
9, 116398, Note_off_c, 0, 51, 64
9, 116400, Note_on_c, 0, 53, 127
9, 116518, Note_off_c, 0, 53, 64
9, 116520, Note_on_c, 0, 41, 127
9, 116638, Note_off_c, 0, 41, 64
9, 116640, Note_on_c, 0, 43, 127
9, 116758, Note_off_c, 0, 43, 64
9, 116760, Note_on_c, 0, 48, 127
9, 116878, Note_off_c, 0, 48, 64
9, 116880, Note_on_c, 0, 50, 127
9, 116998, Note_off_c, 0, 50, 64
9, 117000, Note_on_c, 0, 38, 127
9, 117118, Note_off_c, 0, 38, 64
9, 117120, Note_on_c, 0, 43, 127
9, 117358, Note_off_c, 0, 43, 64
9, 117420, Note_on_c, 0, 45, 127
9, 117478, Note_off_c, 0, 45, 64
9, 117480, Note_on_c, 0, 43, 127
9, 117538, Note_off_c, 0, 43, 64
9, 117540, Note_on_c, 0, 45, 127
9, 117598, Note_off_c, 0, 45, 64
9, 117600, Note_on_c, 0, 41, 127
9, 117718, Note_off_c, 0, 41, 64
9, 117720, Note_on_c, 0, 38, 127
9, 117838, Note_off_c, 0, 38, 64
9, 117840, Note_on_c, 0, 45, 127
9, 118078, Note_off_c, 0, 45, 64
9, 118080, Note_on_c, 0, 38, 127
9, 119518, Note_off_c, 0, 38, 64
9, 119880, Note_on_c, 0, 50, 127
9, 119998, Note_off_c, 0, 50, 64
9, 120000, Note_on_c, 0, 45, 127
9, 120118, Note_off_c, 0, 45, 64
9, 120120, Note_on_c, 0, 41, 127
9, 120238, Note_off_c, 0, 41, 64
9, 120240, Note_on_c, 0, 43, 127
9, 120358, Note_off_c, 0, 43, 64
9, 120360, Note_on_c, 0, 45, 127
9, 120478, Note_off_c, 0, 45, 64
9, 120480, Note_on_c, 0, 41, 127
9, 120598, Note_off_c, 0, 41, 64
9, 120600, Note_on_c, 0, 38, 127
9, 120718, Note_off_c, 0, 38, 64
9, 120720, Note_on_c, 0, 43, 127
9, 120838, Note_off_c, 0, 43, 64
9, 120840, Note_on_c, 0, 45, 127
9, 120958, Note_off_c, 0, 45, 64
9, 120960, Note_on_c, 0, 46, 127
9, 121438, Note_off_c, 0, 46, 64
9, 123840, Note_on_c, 0, 49, 127
9, 124318, Note_off_c, 0, 49, 64
9, 124320, Note_on_c, 0, 53, 127
9, 124678, Note_off_c, 0, 53, 64
9, 124680, Note_on_c, 0, 50, 127
9, 124798, Note_off_c, 0, 50, 64
9, 124800, Note_on_c, 0, 44, 127
9, 125278, Note_off_c, 0, 44, 64
9, 125340, Note_on_c, 0, 56, 127
9, 125398, Note_off_c, 0, 56, 64
9, 125400, Note_on_c, 0, 59, 127
9, 125458, Note_off_c, 0, 59, 64
9, 125460, Note_on_c, 0, 53, 127
9, 125518, Note_off_c, 0, 53, 64
9, 125520, Note_on_c, 0, 55, 127
9, 125578, Note_off_c, 0, 55, 64
9, 125580, Note_on_c, 0, 50, 127
9, 125638, Note_off_c, 0, 50, 64
9, 125640, Note_on_c, 0, 53, 127
9, 125698, Note_off_c, 0, 53, 64
9, 125700, Note_on_c, 0, 47, 127
9, 125758, Note_off_c, 0, 47, 64
9, 125760, Note_on_c, 0, 50, 127
9, 125818, Note_off_c, 0, 50, 64
9, 125820, Note_on_c, 0, 44, 127
9, 125878, Note_off_c, 0, 44, 64
9, 125880, Note_on_c, 0, 45, 127
9, 125998, Note_off_c, 0, 45, 64
9, 126000, Note_on_c, 0, 40, 127
9, 127198, Note_off_c, 0, 40, 64
9, 130440, Note_on_c, 0, 52, 127
9, 130558, Note_off_c, 0, 52, 64
9, 130560, Note_on_c, 0, 55, 127
9, 130678, Note_off_c, 0, 55, 64
9, 130920, Note_on_c, 0, 55, 127
9, 131038, Note_off_c, 0, 55, 64
9, 131040, Note_on_c, 0, 53, 127
9, 131158, Note_off_c, 0, 53, 64
9, 131400, Note_on_c, 0, 53, 127
9, 131518, Note_off_c, 0, 53, 64
9, 131520, Note_on_c, 0, 53, 127
9, 131638, Note_off_c, 0, 53, 64
9, 131880, Note_on_c, 0, 53, 127
9, 131998, Note_off_c, 0, 53, 64
9, 132000, Note_on_c, 0, 52, 127
9, 132118, Note_off_c, 0, 52, 64
9, 132360, Note_on_c, 0, 52, 127
9, 132478, Note_off_c, 0, 52, 64
9, 132480, Note_on_c, 0, 52, 127
9, 132598, Note_off_c, 0, 52, 64
9, 132840, Note_on_c, 0, 52, 127
9, 132958, Note_off_c, 0, 52, 64
9, 132960, Note_on_c, 0, 50, 127
9, 133078, Note_off_c, 0, 50, 64
9, 133320, Note_on_c, 0, 50, 127
9, 133438, Note_off_c, 0, 50, 64
9, 133440, Note_on_c, 0, 49, 127
9, 133558, Note_off_c, 0, 49, 64
9, 133800, Note_on_c, 0, 49, 127
9, 133918, Note_off_c, 0, 49, 64
9, 133920, Note_on_c, 0, 48, 127
9, 134038, Note_off_c, 0, 48, 64
9, 134280, Note_on_c, 0, 48, 127
9, 134398, Note_off_c, 0, 48, 64
9, 134400, Note_on_c, 0, 43, 127
9, 134638, Note_off_c, 0, 43, 64
9, 134640, Note_on_c, 0, 46, 127
9, 134878, Note_off_c, 0, 46, 64
9, 134880, Note_on_c, 0, 40, 127
9, 135118, Note_off_c, 0, 40, 64
9, 135120, Note_on_c, 0, 41, 127
9, 135358, Note_off_c, 0, 41, 64
9, 135360, Note_on_c, 0, 45, 127
9, 135838, Note_off_c, 0, 45, 64
9, 135840, Note_on_c, 0, 46, 127
9, 136078, Note_off_c, 0, 46, 64
9, 136080, Note_on_c, 0, 43, 127
9, 136318, Note_off_c, 0, 43, 64
9, 136320, Note_on_c, 0, 50, 127
9, 136320, Note_on_c, 0, 38, 127
9, 137278, Note_off_c, 0, 38, 64
9, 137278, Note_off_c, 0, 50, 64
9, 137278, End_track
10, 0, Start_track
10, 0, Title_t, "***************"
10, 0, Program_c, 0, 19
10, 50880, Note_on_c, 0, 67, 127
10, 50938, Note_off_c, 0, 67, 64
10, 50940, Note_on_c, 0, 70, 127
10, 50998, Note_off_c, 0, 70, 64
10, 51000, Note_on_c, 0, 69, 127
10, 51058, Note_off_c, 0, 69, 64
10, 51060, Note_on_c, 0, 70, 127
10, 51118, Note_off_c, 0, 70, 64
10, 51120, Note_on_c, 0, 67, 127
10, 51178, Note_off_c, 0, 67, 64
10, 51180, Note_on_c, 0, 69, 127
10, 51238, Note_off_c, 0, 69, 64
10, 51240, Note_on_c, 0, 65, 127
10, 51298, Note_off_c, 0, 65, 64
10, 51300, Note_on_c, 0, 67, 127
10, 51358, Note_off_c, 0, 67, 64
10, 51360, Note_on_c, 0, 64, 127
10, 51418, Note_off_c, 0, 64, 64
10, 51420, Note_on_c, 0, 72, 127
10, 51478, Note_off_c, 0, 72, 64
10, 51480, Note_on_c, 0, 70, 127
10, 51538, Note_off_c, 0, 70, 64
10, 51540, Note_on_c, 0, 72, 127
10, 51598, Note_off_c, 0, 72, 64
10, 51600, Note_on_c, 0, 69, 127
10, 51658, Note_off_c, 0, 69, 64
10, 51660, Note_on_c, 0, 70, 127
10, 51718, Note_off_c, 0, 70, 64
10, 51720, Note_on_c, 0, 67, 127
10, 51778, Note_off_c, 0, 67, 64
10, 51780, Note_on_c, 0, 69, 127
10, 51838, Note_off_c, 0, 69, 64
10, 51840, Note_on_c, 0, 65, 127
10, 51898, Note_off_c, 0, 65, 64
10, 51900, Note_on_c, 0, 74, 127
10, 51958, Note_off_c, 0, 74, 64
10, 51960, Note_on_c, 0, 72, 127
10, 52018, Note_off_c, 0, 72, 64
10, 52020, Note_on_c, 0, 74, 127
10, 52078, Note_off_c, 0, 74, 64
10, 52080, Note_on_c, 0, 70, 127
10, 52138, Note_off_c, 0, 70, 64
10, 52140, Note_on_c, 0, 72, 127
10, 52198, Note_off_c, 0, 72, 64
10, 52200, Note_on_c, 0, 69, 127
10, 52258, Note_off_c, 0, 69, 64
10, 52260, Note_on_c, 0, 70, 127
10, 52318, Note_off_c, 0, 70, 64
10, 52320, Note_on_c, 0, 67, 127
10, 52378, Note_off_c, 0, 67, 64
10, 52380, Note_on_c, 0, 76, 127
10, 52438, Note_off_c, 0, 76, 64
10, 52440, Note_on_c, 0, 74, 127
10, 52498, Note_off_c, 0, 74, 64
10, 52500, Note_on_c, 0, 76, 127
10, 52558, Note_off_c, 0, 76, 64
10, 52560, Note_on_c, 0, 72, 127
10, 52618, Note_off_c, 0, 72, 64
10, 52620, Note_on_c, 0, 74, 127
10, 52678, Note_off_c, 0, 74, 64
10, 52680, Note_on_c, 0, 70, 127
10, 52738, Note_off_c, 0, 70, 64
10, 52740, Note_on_c, 0, 72, 127
10, 52798, Note_off_c, 0, 72, 64
10, 52800, Note_on_c, 0, 69, 127
10, 52918, Note_off_c, 0, 69, 64
10, 52920, Note_on_c, 0, 65, 127
10, 53038, Note_off_c, 0, 65, 64
10, 53040, Note_on_c, 0, 70, 127
10, 53098, Note_off_c, 0, 70, 64
10, 53100, Note_on_c, 0, 69, 127
10, 53158, Note_off_c, 0, 69, 64
10, 53160, Note_on_c, 0, 67, 127
10, 53218, Note_off_c, 0, 67, 64
10, 53220, Note_on_c, 0, 65, 127
10, 53278, Note_off_c, 0, 65, 64
10, 53280, Note_on_c, 0, 67, 127
10, 53338, Note_off_c, 0, 67, 64
10, 53340, Note_on_c, 0, 70, 127
10, 53398, Note_off_c, 0, 70, 64
10, 53400, Note_on_c, 0, 67, 127
10, 53458, Note_off_c, 0, 67, 64
10, 53460, Note_on_c, 0, 65, 127
10, 53518, Note_off_c, 0, 65, 64
10, 53520, Note_on_c, 0, 64, 127
10, 53578, Note_off_c, 0, 64, 64
10, 53580, Note_on_c, 0, 67, 127
10, 53638, Note_off_c, 0, 67, 64
10, 53640, Note_on_c, 0, 64, 127
10, 53698, Note_off_c, 0, 64, 64
10, 53700, Note_on_c, 0, 62, 127
10, 53758, Note_off_c, 0, 62, 64
10, 53760, Note_on_c, 0, 60, 127
10, 53818, Note_off_c, 0, 60, 64
10, 53820, Note_on_c, 0, 62, 127
10, 53878, Note_off_c, 0, 62, 64
10, 53880, Note_on_c, 0, 64, 127
10, 53938, Note_off_c, 0, 64, 64
10, 53940, Note_on_c, 0, 65, 127
10, 53998, Note_off_c, 0, 65, 64
10, 54000, Note_on_c, 0, 67, 127
10, 54118, Note_off_c, 0, 67, 64
10, 54120, Note_on_c, 0, 64, 127
10, 54238, Note_off_c, 0, 64, 64
10, 54240, Note_on_c, 0, 65, 127
10, 54478, Note_off_c, 0, 65, 64
10, 56460, Note_on_c, 0, 63, 127
10, 56518, Note_off_c, 0, 63, 64
10, 56520, Note_on_c, 0, 62, 127
10, 56578, Note_off_c, 0, 62, 64
10, 56580, Note_on_c, 0, 60, 127
10, 56638, Note_off_c, 0, 60, 64
10, 56640, Note_on_c, 0, 58, 127
10, 56758, Note_off_c, 0, 58, 64
10, 56940, Note_on_c, 0, 65, 127
10, 56998, Note_off_c, 0, 65, 64
10, 57000, Note_on_c, 0, 64, 127
10, 57058, Note_off_c, 0, 64, 64
10, 57060, Note_on_c, 0, 62, 127
10, 57118, Note_off_c, 0, 62, 64
10, 57120, Note_on_c, 0, 60, 127
10, 57238, Note_off_c, 0, 60, 64
10, 57420, Note_on_c, 0, 67, 127
10, 57478, Note_off_c, 0, 67, 64
10, 57480, Note_on_c, 0, 65, 127
10, 57538, Note_off_c, 0, 65, 64
10, 57540, Note_on_c, 0, 64, 127
10, 57598, Note_off_c, 0, 64, 64
10, 57600, Note_on_c, 0, 62, 127
10, 57718, Note_off_c, 0, 62, 64
10, 57900, Note_on_c, 0, 69, 127
10, 57958, Note_off_c, 0, 69, 64
10, 57960, Note_on_c, 0, 67, 127
10, 58018, Note_off_c, 0, 67, 64
10, 58020, Note_on_c, 0, 65, 127
10, 58078, Note_off_c, 0, 65, 64
10, 58080, Note_on_c, 0, 64, 127
10, 58198, Note_off_c, 0, 64, 64
10, 58380, Note_on_c, 0, 70, 127
10, 58438, Note_off_c, 0, 70, 64
10, 58440, Note_on_c, 0, 69, 127
10, 58498, Note_off_c, 0, 69, 64
10, 58500, Note_on_c, 0, 67, 127
10, 58558, Note_off_c, 0, 67, 64
10, 58560, Note_on_c, 0, 65, 127
10, 58678, Note_off_c, 0, 65, 64
10, 58800, Note_on_c, 0, 72, 127
10, 58918, Note_off_c, 0, 72, 64
10, 59040, Note_on_c, 0, 65, 127
10, 59158, Note_off_c, 0, 65, 64
10, 59280, Note_on_c, 0, 72, 127
10, 59398, Note_off_c, 0, 72, 64
10, 59520, Note_on_c, 0, 64, 127
10, 59638, Note_off_c, 0, 64, 64
10, 59760, Note_on_c, 0, 72, 127
10, 59878, Note_off_c, 0, 72, 64
10, 60000, Note_on_c, 0, 64, 127
10, 60118, Note_off_c, 0, 64, 64
10, 60240, Note_on_c, 0, 72, 127
10, 60358, Note_off_c, 0, 72, 64
10, 60480, Note_on_c, 0, 65, 127
10, 60598, Note_off_c, 0, 65, 64
10, 60720, Note_on_c, 0, 72, 127
10, 60838, Note_off_c, 0, 72, 64
10, 60960, Note_on_c, 0, 65, 127
10, 61078, Note_off_c, 0, 65, 64
10, 61200, Note_on_c, 0, 72, 127
10, 61318, Note_off_c, 0, 72, 64
10, 61440, Note_on_c, 0, 64, 127
10, 61558, Note_off_c, 0, 64, 64
10, 61680, Note_on_c, 0, 72, 127
10, 61798, Note_off_c, 0, 72, 64
10, 61920, Note_on_c, 0, 64, 127
10, 62038, Note_off_c, 0, 64, 64
10, 62160, Note_on_c, 0, 72, 127
10, 62278, Note_off_c, 0, 72, 64
10, 62400, Note_on_c, 0, 62, 127
10, 62518, Note_off_c, 0, 62, 64
10, 62700, Note_on_c, 0, 72, 127
10, 62758, Note_off_c, 0, 72, 64
10, 62760, Note_on_c, 0, 71, 127
10, 62818, Note_off_c, 0, 71, 64
10, 62820, Note_on_c, 0, 69, 127
10, 62878, Note_off_c, 0, 69, 64
10, 62880, Note_on_c, 0, 71, 127
10, 62938, Note_off_c, 0, 71, 64
10, 62940, Note_on_c, 0, 67, 127
10, 62998, Note_off_c, 0, 67, 64
10, 63000, Note_on_c, 0, 71, 127
10, 63058, Note_off_c, 0, 71, 64
10, 63060, Note_on_c, 0, 74, 127
10, 63118, Note_off_c, 0, 74, 64
10, 63360, Note_on_c, 0, 71, 127
10, 63418, Note_off_c, 0, 71, 64
10, 63420, Note_on_c, 0, 67, 127
10, 63478, Note_off_c, 0, 67, 64
10, 63480, Note_on_c, 0, 71, 127
10, 63538, Note_off_c, 0, 71, 64
10, 63540, Note_on_c, 0, 74, 127
10, 63598, Note_off_c, 0, 74, 64
10, 63840, Note_on_c, 0, 70, 127
10, 63898, Note_off_c, 0, 70, 64
10, 63900, Note_on_c, 0, 67, 127
10, 63958, Note_off_c, 0, 67, 64
10, 63960, Note_on_c, 0, 70, 127
10, 64018, Note_off_c, 0, 70, 64
10, 64020, Note_on_c, 0, 72, 127
10, 64078, Note_off_c, 0, 72, 64
10, 64320, Note_on_c, 0, 70, 127
10, 64378, Note_off_c, 0, 70, 64
10, 64380, Note_on_c, 0, 67, 127
10, 64438, Note_off_c, 0, 67, 64
10, 64440, Note_on_c, 0, 70, 127
10, 64498, Note_off_c, 0, 70, 64
10, 64500, Note_on_c, 0, 72, 127
10, 64558, Note_off_c, 0, 72, 64
10, 64800, Note_on_c, 0, 69, 127
10, 64858, Note_off_c, 0, 69, 64
10, 64860, Note_on_c, 0, 65, 127
10, 64918, Note_off_c, 0, 65, 64
10, 64920, Note_on_c, 0, 69, 127
10, 64978, Note_off_c, 0, 69, 64
10, 64980, Note_on_c, 0, 72, 127
10, 65038, Note_off_c, 0, 72, 64
10, 65280, Note_on_c, 0, 69, 127
10, 65338, Note_off_c, 0, 69, 64
10, 65340, Note_on_c, 0, 65, 127
10, 65398, Note_off_c, 0, 65, 64
10, 65400, Note_on_c, 0, 69, 127
10, 65458, Note_off_c, 0, 69, 64
10, 65460, Note_on_c, 0, 72, 127
10, 65518, Note_off_c, 0, 72, 64
10, 65760, Note_on_c, 0, 67, 127
10, 65818, Note_off_c, 0, 67, 64
10, 65820, Note_on_c, 0, 64, 127
10, 65878, Note_off_c, 0, 64, 64
10, 65880, Note_on_c, 0, 67, 127
10, 65938, Note_off_c, 0, 67, 64
10, 65940, Note_on_c, 0, 70, 127
10, 65998, Note_off_c, 0, 70, 64
10, 66240, Note_on_c, 0, 67, 127
10, 66298, Note_off_c, 0, 67, 64
10, 66300, Note_on_c, 0, 64, 127
10, 66358, Note_off_c, 0, 64, 64
10, 66360, Note_on_c, 0, 67, 127
10, 66418, Note_off_c, 0, 67, 64
10, 66420, Note_on_c, 0, 70, 127
10, 66478, Note_off_c, 0, 70, 64
10, 95340, Note_on_c, 0, 70, 127
10, 95398, Note_off_c, 0, 70, 64
10, 95400, Note_on_c, 0, 69, 127
10, 95458, Note_off_c, 0, 69, 64
10, 95460, Note_on_c, 0, 67, 127
10, 95518, Note_off_c, 0, 67, 64
10, 95580, Note_on_c, 0, 63, 127
10, 95638, Note_off_c, 0, 63, 64
10, 95640, Note_on_c, 0, 62, 127
10, 95698, Note_off_c, 0, 62, 64
10, 95700, Note_on_c, 0, 60, 127
10, 95758, Note_off_c, 0, 60, 64
10, 95760, Note_on_c, 0, 62, 127
10, 95818, Note_off_c, 0, 62, 64
10, 95820, Note_on_c, 0, 60, 127
10, 95878, Note_off_c, 0, 60, 64
10, 95880, Note_on_c, 0, 58, 127
10, 95938, Note_off_c, 0, 58, 64
10, 95940, Note_on_c, 0, 57, 127
10, 95998, Note_off_c, 0, 57, 64
10, 96000, Note_on_c, 0, 67, 127
10, 96058, Note_off_c, 0, 67, 64
10, 96060, Note_on_c, 0, 65, 127
10, 96118, Note_off_c, 0, 65, 64
10, 96120, Note_on_c, 0, 63, 127
10, 96178, Note_off_c, 0, 63, 64
10, 96180, Note_on_c, 0, 62, 127
10, 96238, Note_off_c, 0, 62, 64
10, 96720, Note_on_c, 0, 69, 127
10, 96778, Note_off_c, 0, 69, 64
10, 96780, Note_on_c, 0, 67, 127
10, 96838, Note_off_c, 0, 67, 64
10, 96840, Note_on_c, 0, 69, 127
10, 96898, Note_off_c, 0, 69, 64
10, 96900, Note_on_c, 0, 65, 127
10, 96958, Note_off_c, 0, 65, 64
10, 96960, Note_on_c, 0, 67, 127
10, 97018, Note_off_c, 0, 67, 64
10, 97020, Note_on_c, 0, 69, 127
10, 97078, Note_off_c, 0, 69, 64
10, 97080, Note_on_c, 0, 67, 127
10, 97138, Note_off_c, 0, 67, 64
10, 97140, Note_on_c, 0, 69, 127
10, 97198, Note_off_c, 0, 69, 64
10, 97200, Note_on_c, 0, 70, 127
10, 97258, Note_off_c, 0, 70, 64
10, 97260, Note_on_c, 0, 69, 127
10, 97318, Note_off_c, 0, 69, 64
10, 97320, Note_on_c, 0, 67, 127
10, 97378, Note_off_c, 0, 67, 64
10, 97380, Note_on_c, 0, 69, 127
10, 97438, Note_off_c, 0, 69, 64
10, 97440, Note_on_c, 0, 69, 127
10, 97440, Note_on_c, 0, 65, 127
10, 97498, Note_off_c, 0, 65, 64
10, 97498, Note_off_c, 0, 69, 64
10, 97500, Note_on_c, 0, 70, 127
10, 97500, Note_on_c, 0, 67, 127
10, 97558, Note_off_c, 0, 67, 64
10, 97558, Note_off_c, 0, 70, 64
10, 97560, Note_on_c, 0, 67, 127
10, 97560, Note_on_c, 0, 64, 127
10, 97618, Note_off_c, 0, 64, 64
10, 97618, Note_off_c, 0, 67, 64
10, 97620, Note_on_c, 0, 69, 127
10, 97620, Note_on_c, 0, 65, 127
10, 97678, Note_off_c, 0, 65, 64
10, 97678, Note_off_c, 0, 69, 64
10, 97680, Note_on_c, 0, 65, 127
10, 97680, Note_on_c, 0, 62, 127
10, 97738, Note_off_c, 0, 62, 64
10, 97740, Note_on_c, 0, 60, 127
10, 97798, Note_off_c, 0, 60, 64
10, 97798, Note_off_c, 0, 65, 64
10, 97800, Note_on_c, 0, 69, 127
10, 97800, Note_on_c, 0, 58, 127
10, 97858, Note_off_c, 0, 58, 64
10, 97860, Note_on_c, 0, 57, 127
10, 97918, Note_off_c, 0, 57, 64
10, 97918, Note_off_c, 0, 69, 64
10, 97920, Note_on_c, 0, 67, 127
10, 98038, Note_off_c, 0, 67, 64
10, 98040, Note_on_c, 0, 69, 127
10, 98158, Note_off_c, 0, 69, 64
10, 98160, Note_on_c, 0, 67, 127
10, 98278, Note_off_c, 0, 67, 64
10, 98280, Note_on_c, 0, 65, 127
10, 98398, Note_off_c, 0, 65, 64
10, 98400, Note_on_c, 0, 67, 127
10, 98518, Note_off_c, 0, 67, 64
10, 98520, Note_on_c, 0, 65, 127
10, 98638, Note_off_c, 0, 65, 64
10, 98640, Note_on_c, 0, 64, 127
10, 98758, Note_off_c, 0, 64, 64
10, 98760, Note_on_c, 0, 69, 127
10, 98878, Note_off_c, 0, 69, 64
10, 98880, Note_on_c, 0, 70, 127
10, 98998, Note_off_c, 0, 70, 64
10, 99000, Note_on_c, 0, 69, 127
10, 99118, Note_off_c, 0, 69, 64
10, 99120, Note_on_c, 0, 67, 127
10, 99238, Note_off_c, 0, 67, 64
10, 99240, Note_on_c, 0, 65, 127
10, 99358, Note_off_c, 0, 65, 64
10, 99360, Note_on_c, 0, 69, 127
10, 99478, Note_off_c, 0, 69, 64
10, 99480, Note_on_c, 0, 76, 127
10, 99598, Note_off_c, 0, 76, 64
10, 99600, Note_on_c, 0, 74, 127
10, 99718, Note_off_c, 0, 74, 64
10, 99720, Note_on_c, 0, 69, 127
10, 99838, Note_off_c, 0, 69, 64
10, 99840, Note_on_c, 0, 67, 127
10, 99958, Note_off_c, 0, 67, 64
10, 99960, Note_on_c, 0, 67, 127
10, 100078, Note_off_c, 0, 67, 64
10, 100080, Note_on_c, 0, 69, 127
10, 100198, Note_off_c, 0, 69, 64
10, 100200, Note_on_c, 0, 65, 127
10, 100318, Note_off_c, 0, 65, 64
10, 100318, End_track
0, 0, End_of_file
