0, 0, Header, 1, 5, 1024
1, 0, Start_track
1, 0, Time_signature, 4, 2, 24, 8
1, 0, Key_signature, -1, "minor"
1, 0, Tempo, 1111111
1, 141312, End_track
2, 0, Start_track
2, 0, Title_t, "Instrument 1"
2, 13312, Note_on_c, 0, 67, 96
2, 14336, Note_off_c, 0, 67, 0
2, 14336, Note_on_c, 0, 67, 96
2, 15360, Note_off_c, 0, 67, 0
2, 15360, Note_on_c, 0, 66, 96
2, 15872, Note_off_c, 0, 66, 0
2, 15872, Note_on_c, 0, 67, 96
2, 16128, Note_off_c, 0, 67, 0
2, 16128, Note_on_c, 0, 69, 96
2, 16384, Note_off_c, 0, 69, 0
2, 16384, Note_on_c, 0, 70, 96
2, 17664, Note_off_c, 0, 70, 0
2, 17664, Note_on_c, 0, 67, 96
2, 18048, Note_off_c, 0, 67, 0
2, 18048, Note_on_c, 0, 66, 96
2, 18176, Note_off_c, 0, 66, 0
2, 18176, Note_on_c, 0, 67, 96
2, 18432, Note_off_c, 0, 67, 0
2, 18432, Note_on_c, 0, 72, 96
2, 19712, Note_off_c, 0, 72, 0
2, 19712, Note_on_c, 0, 69, 96
2, 19968, Note_off_c, 0, 69, 0
2, 19968, Note_on_c, 0, 69, 96
2, 20096, Note_off_c, 0, 69, 0
2, 20096, Note_on_c, 0, 67, 96
2, 20224, Note_off_c, 0, 67, 0
2, 20224, Note_on_c, 0, 69, 96
2, 20480, Note_off_c, 0, 69, 0
2, 20480, Note_on_c, 0, 74, 96
2, 21760, Note_off_c, 0, 74, 0
2, 21760, Note_on_c, 0, 67, 96
2, 21888, Note_off_c, 0, 67, 0
2, 21888, Note_on_c, 0, 69, 96
2, 22016, Note_off_c, 0, 69, 0
2, 22016, Note_on_c, 0, 70, 96
2, 22144, Note_off_c, 0, 70, 0
2, 22144, Note_on_c, 0, 72, 96
2, 22272, Note_off_c, 0, 72, 0
2, 22272, Note_on_c, 0, 74, 96
2, 22528, Note_off_c, 0, 74, 0
2, 22528, Note_on_c, 0, 75, 96
2, 23296, Note_off_c, 0, 75, 0
2, 23296, Note_on_c, 0, 74, 96
2, 23552, Note_off_c, 0, 74, 0
2, 23552, Note_on_c, 0, 72, 96
2, 23808, Note_off_c, 0, 72, 0
2, 23808, Note_on_c, 0, 70, 96
2, 23936, Note_off_c, 0, 70, 0
2, 23936, Note_on_c, 0, 69, 96
2, 24064, Note_off_c, 0, 69, 0
2, 24064, Note_on_c, 0, 69, 96
2, 24320, Note_off_c, 0, 69, 0
2, 24320, Note_on_c, 0, 70, 96
2, 24448, Note_off_c, 0, 70, 0
2, 24448, Note_on_c, 0, 72, 96
2, 24576, Note_off_c, 0, 72, 0
2, 24576, Note_on_c, 0, 66, 96
2, 25088, Note_off_c, 0, 66, 0
2, 25088, Note_on_c, 0, 64, 96
2, 25344, Note_off_c, 0, 64, 0
2, 25344, Note_on_c, 0, 62, 96
2, 25600, Note_off_c, 0, 62, 0
2, 25600, Note_on_c, 0, 67, 96
2, 26752, Note_off_c, 0, 67, 0
2, 26752, Note_on_c, 0, 69, 96
2, 26880, Note_off_c, 0, 69, 0
2, 26880, Note_on_c, 0, 67, 96
2, 27008, Note_off_c, 0, 67, 0
2, 27008, Note_on_c, 0, 66, 96
2, 27136, Note_off_c, 0, 66, 0
2, 27136, Note_on_c, 0, 67, 96
2, 27392, Note_off_c, 0, 67, 0
2, 27392, Note_on_c, 0, 72, 96
2, 27520, Note_off_c, 0, 72, 0
2, 27520, Note_on_c, 0, 69, 96
2, 27648, Note_off_c, 0, 69, 0
2, 27648, Note_on_c, 0, 67, 96
2, 28160, Note_off_c, 0, 67, 0
2, 28160, Note_on_c, 0, 66, 96
2, 28544, Note_off_c, 0, 66, 0
2, 28544, Note_on_c, 0, 67, 96
2, 28672, Note_off_c, 0, 67, 0
2, 28672, Note_on_c, 0, 67, 96
2, 30720, Note_off_c, 0, 67, 0
2, 40960, Note_on_c, 0, 67, 96
2, 41472, Note_off_c, 0, 67, 0
2, 41472, Note_on_c, 0, 70, 96
2, 41728, Note_off_c, 0, 70, 0
2, 41728, Note_on_c, 0, 69, 96
2, 41984, Note_off_c, 0, 69, 0
2, 41984, Note_on_c, 0, 70, 96
2, 42112, Note_off_c, 0, 70, 0
2, 42112, Note_on_c, 0, 69, 96
2, 42240, Note_off_c, 0, 69, 0
2, 42240, Note_on_c, 0, 70, 96
2, 43008, Note_off_c, 0, 70, 0
2, 43008, Note_on_c, 0, 72, 96
2, 44288, Note_off_c, 0, 72, 0
2, 44288, Note_on_c, 0, 70, 96
2, 44544, Note_off_c, 0, 70, 0
2, 44544, Note_on_c, 0, 69, 96
2, 44800, Note_off_c, 0, 69, 0
2, 44800, Note_on_c, 0, 70, 96
2, 45056, Note_off_c, 0, 70, 0
2, 45056, Note_on_c, 0, 72, 96
2, 45312, Note_off_c, 0, 72, 0
2, 45312, Note_on_c, 0, 74, 96
2, 45568, Note_off_c, 0, 74, 0
2, 45568, Note_on_c, 0, 75, 96
2, 46336, Note_off_c, 0, 75, 0
2, 46336, Note_on_c, 0, 72, 96
2, 46592, Note_off_c, 0, 72, 0
2, 46592, Note_on_c, 0, 70, 96
2, 46848, Note_off_c, 0, 70, 0
2, 46848, Note_on_c, 0, 72, 96
2, 47104, Note_off_c, 0, 72, 0
2, 47104, Note_on_c, 0, 74, 96
2, 47360, Note_off_c, 0, 74, 0
2, 47360, Note_on_c, 0, 75, 96
2, 47616, Note_off_c, 0, 75, 0
2, 47616, Note_on_c, 0, 77, 96
2, 48384, Note_off_c, 0, 77, 0
2, 48384, Note_on_c, 0, 74, 96
2, 48640, Note_off_c, 0, 74, 0
2, 48640, Note_on_c, 0, 72, 96
2, 48896, Note_off_c, 0, 72, 0
2, 48896, Note_on_c, 0, 74, 96
2, 49152, Note_off_c, 0, 74, 0
2, 49152, Note_on_c, 0, 75, 96
2, 49408, Note_off_c, 0, 75, 0
2, 49408, Note_on_c, 0, 77, 96
2, 49664, Note_off_c, 0, 77, 0
2, 49664, Note_on_c, 0, 79, 96
2, 50432, Note_off_c, 0, 79, 0
2, 50432, Note_on_c, 0, 72, 96
2, 50688, Note_off_c, 0, 72, 0
2, 50688, Note_on_c, 0, 74, 96
2, 50944, Note_off_c, 0, 74, 0
2, 50944, Note_on_c, 0, 75, 96
2, 51200, Note_off_c, 0, 75, 0
2, 51200, Note_on_c, 0, 69, 96
2, 51712, Note_off_c, 0, 69, 0
2, 51712, Note_on_c, 0, 67, 96
2, 51968, Note_off_c, 0, 67, 0
2, 51968, Note_on_c, 0, 65, 96
2, 52224, Note_off_c, 0, 65, 0
2, 52224, Note_on_c, 0, 77, 96
2, 53504, Note_off_c, 0, 77, 0
2, 53504, Note_on_c, 0, 79, 96
2, 53632, Note_off_c, 0, 79, 0
2, 53632, Note_on_c, 0, 77, 96
2, 53760, Note_off_c, 0, 77, 0
2, 53760, Note_on_c, 0, 75, 96
2, 53888, Note_off_c, 0, 75, 0
2, 53888, Note_on_c, 0, 77, 96
2, 54016, Note_off_c, 0, 77, 0
2, 54016, Note_on_c, 0, 74, 96
2, 54272, Note_off_c, 0, 74, 0
2, 54272, Note_on_c, 0, 75, 96
2, 55552, Note_off_c, 0, 75, 0
2, 55552, Note_on_c, 0, 81, 96
2, 55680, Note_off_c, 0, 81, 0
2, 55680, Note_on_c, 0, 82, 96
2, 55808, Note_off_c, 0, 82, 0
2, 55808, Note_on_c, 0, 84, 96
2, 56064, Note_off_c, 0, 84, 0
2, 56064, Note_on_c, 0, 75, 96
2, 56320, Note_off_c, 0, 75, 0
2, 56320, Note_on_c, 0, 74, 96
2, 57600, Note_off_c, 0, 74, 0
2, 57600, Note_on_c, 0, 67, 96
2, 57856, Note_off_c, 0, 67, 0
2, 57856, Note_on_c, 0, 67, 96
2, 57984, Note_off_c, 0, 67, 0
2, 57984, Note_on_c, 0, 65, 96
2, 58112, Note_off_c, 0, 65, 0
2, 58112, Note_on_c, 0, 67, 96
2, 58368, Note_off_c, 0, 67, 0
2, 58368, Note_on_c, 0, 72, 96
2, 58496, Note_off_c, 0, 72, 0
2, 58496, Note_on_c, 0, 70, 96
2, 58624, Note_off_c, 0, 70, 0
2, 58624, Note_on_c, 0, 69, 96
2, 58880, Note_off_c, 0, 69, 0
2, 58880, Note_on_c, 0, 70, 96
2, 59008, Note_off_c, 0, 70, 0
2, 59008, Note_on_c, 0, 69, 96
2, 59136, Note_off_c, 0, 69, 0
2, 59136, Note_on_c, 0, 67, 96
2, 59392, Note_off_c, 0, 67, 0
2, 59392, Note_on_c, 0, 65, 96
2, 59648, Note_off_c, 0, 65, 0
2, 59648, Note_on_c, 0, 67, 96
2, 59776, Note_off_c, 0, 67, 0
2, 59776, Note_on_c, 0, 69, 96
2, 59904, Note_off_c, 0, 69, 0
2, 59904, Note_on_c, 0, 70, 96
2, 60032, Note_off_c, 0, 70, 0
2, 60032, Note_on_c, 0, 72, 96
2, 60160, Note_off_c, 0, 72, 0
2, 60160, Note_on_c, 0, 74, 96
2, 60288, Note_off_c, 0, 74, 0
2, 60288, Note_on_c, 0, 75, 96
2, 60416, Note_off_c, 0, 75, 0
2, 60416, Note_on_c, 0, 77, 96
2, 61696, Note_off_c, 0, 77, 0
2, 61696, Note_on_c, 0, 79, 96
2, 61824, Note_off_c, 0, 79, 0
2, 61824, Note_on_c, 0, 77, 96
2, 61952, Note_off_c, 0, 77, 0
2, 61952, Note_on_c, 0, 75, 96
2, 62080, Note_off_c, 0, 75, 0
2, 62080, Note_on_c, 0, 74, 96
2, 62208, Note_off_c, 0, 74, 0
2, 62208, Note_on_c, 0, 72, 96
2, 62336, Note_off_c, 0, 72, 0
2, 62336, Note_on_c, 0, 70, 96
2, 62464, Note_off_c, 0, 70, 0
2, 62464, Note_on_c, 0, 74, 96
2, 62976, Note_off_c, 0, 74, 0
2, 62976, Note_on_c, 0, 72, 96
2, 63360, Note_off_c, 0, 72, 0
2, 63360, Note_on_c, 0, 70, 96
2, 63488, Note_off_c, 0, 70, 0
2, 63488, Note_on_c, 0, 70, 96
2, 65536, Note_off_c, 0, 70, 0
2, 73728, Note_on_c, 0, 70, 96
2, 74240, Note_off_c, 0, 70, 0
2, 74240, Note_on_c, 0, 72, 96
2, 74368, Note_off_c, 0, 72, 0
2, 74368, Note_on_c, 0, 70, 96
2, 74496, Note_off_c, 0, 70, 0
2, 74496, Note_on_c, 0, 69, 96
2, 74624, Note_off_c, 0, 69, 0
2, 74624, Note_on_c, 0, 70, 96
2, 74752, Note_off_c, 0, 70, 0
2, 74752, Note_on_c, 0, 72, 96
2, 75264, Note_off_c, 0, 72, 0
2, 75264, Note_on_c, 0, 74, 96
2, 75392, Note_off_c, 0, 74, 0
2, 75392, Note_on_c, 0, 72, 96
2, 75520, Note_off_c, 0, 72, 0
2, 75520, Note_on_c, 0, 70, 96
2, 75648, Note_off_c, 0, 70, 0
2, 75648, Note_on_c, 0, 72, 96
2, 75776, Note_off_c, 0, 72, 0
2, 75776, Note_on_c, 0, 74, 96
2, 76032, Note_off_c, 0, 74, 0
2, 76032, Note_on_c, 0, 70, 96
2, 76288, Note_off_c, 0, 70, 0
2, 76288, Note_on_c, 0, 69, 96
2, 76544, Note_off_c, 0, 69, 0
2, 76544, Note_on_c, 0, 70, 96
2, 76800, Note_off_c, 0, 70, 0
2, 76800, Note_on_c, 0, 77, 96
2, 77568, Note_off_c, 0, 77, 0
2, 77568, Note_on_c, 0, 75, 96
2, 77696, Note_off_c, 0, 75, 0
2, 77696, Note_on_c, 0, 74, 96
2, 77824, Note_off_c, 0, 74, 0
2, 77824, Note_on_c, 0, 72, 96
2, 78080, Note_off_c, 0, 72, 0
2, 78080, Note_on_c, 0, 74, 96
2, 78208, Note_off_c, 0, 74, 0
2, 78208, Note_on_c, 0, 72, 96
2, 78336, Note_off_c, 0, 72, 0
2, 78336, Note_on_c, 0, 71, 96
2, 78592, Note_off_c, 0, 71, 0
2, 78592, Note_on_c, 0, 72, 96
2, 78848, Note_off_c, 0, 72, 0
2, 78848, Note_on_c, 0, 74, 96
2, 79104, Note_off_c, 0, 74, 0
2, 79104, Note_on_c, 0, 75, 96
2, 79232, Note_off_c, 0, 75, 0
2, 79232, Note_on_c, 0, 74, 96
2, 79360, Note_off_c, 0, 74, 0
2, 79360, Note_on_c, 0, 72, 96
2, 79616, Note_off_c, 0, 72, 0
2, 79616, Note_on_c, 0, 74, 96
2, 79872, Note_off_c, 0, 74, 0
2, 79872, Note_on_c, 0, 75, 96
2, 80128, Note_off_c, 0, 75, 0
2, 80128, Note_on_c, 0, 72, 96
2, 80384, Note_off_c, 0, 72, 0
2, 80384, Note_on_c, 0, 71, 96
2, 80640, Note_off_c, 0, 71, 0
2, 80640, Note_on_c, 0, 72, 96
2, 80896, Note_off_c, 0, 72, 0
2, 80896, Note_on_c, 0, 79, 96
2, 81664, Note_off_c, 0, 79, 0
2, 81664, Note_on_c, 0, 77, 96
2, 81792, Note_off_c, 0, 77, 0
2, 81792, Note_on_c, 0, 75, 96
2, 81920, Note_off_c, 0, 75, 0
2, 81920, Note_on_c, 0, 74, 96
2, 82176, Note_off_c, 0, 74, 0
2, 82176, Note_on_c, 0, 79, 96
2, 82304, Note_off_c, 0, 79, 0
2, 82304, Note_on_c, 0, 81, 96
2, 82432, Note_off_c, 0, 81, 0
2, 82432, Note_on_c, 0, 82, 96
2, 82688, Note_off_c, 0, 82, 0
2, 82688, Note_on_c, 0, 77, 96
2, 82944, Note_off_c, 0, 77, 0
2, 82944, Note_on_c, 0, 75, 96
2, 83200, Note_off_c, 0, 75, 0
2, 83200, Note_on_c, 0, 74, 96
2, 83456, Note_off_c, 0, 74, 0
2, 83456, Note_on_c, 0, 74, 96
2, 83712, Note_off_c, 0, 74, 0
2, 83712, Note_on_c, 0, 72, 96
2, 83968, Note_off_c, 0, 72, 0
2, 83968, Note_on_c, 0, 72, 96
2, 84224, Note_off_c, 0, 72, 0
2, 84224, Note_on_c, 0, 78, 96
2, 84352, Note_off_c, 0, 78, 0
2, 84352, Note_on_c, 0, 79, 96
2, 84480, Note_off_c, 0, 79, 0
2, 84480, Note_on_c, 0, 81, 96
2, 84736, Note_off_c, 0, 81, 0
2, 84736, Note_on_c, 0, 75, 96
2, 84992, Note_off_c, 0, 75, 0
2, 84992, Note_on_c, 0, 74, 96
2, 85248, Note_off_c, 0, 74, 0
2, 85248, Note_on_c, 0, 72, 96
2, 85504, Note_off_c, 0, 72, 0
2, 85504, Note_on_c, 0, 72, 96
2, 85760, Note_off_c, 0, 72, 0
2, 85760, Note_on_c, 0, 70, 96
2, 86016, Note_off_c, 0, 70, 0
2, 86016, Note_on_c, 0, 70, 96
2, 86272, Note_off_c, 0, 70, 0
2, 86272, Note_on_c, 0, 79, 96
2, 86656, Note_off_c, 0, 79, 0
2, 86656, Note_on_c, 0, 77, 96
2, 86784, Note_off_c, 0, 77, 0
2, 86784, Note_on_c, 0, 75, 96
2, 86912, Note_off_c, 0, 75, 0
2, 86912, Note_on_c, 0, 74, 96
2, 87040, Note_off_c, 0, 74, 0
2, 87040, Note_on_c, 0, 72, 96
2, 87168, Note_off_c, 0, 72, 0
2, 87168, Note_on_c, 0, 74, 96
2, 87296, Note_off_c, 0, 74, 0
2, 87296, Note_on_c, 0, 72, 96
2, 87424, Note_off_c, 0, 72, 0
2, 87424, Note_on_c, 0, 71, 96
2, 87552, Note_off_c, 0, 71, 0
2, 87552, Note_on_c, 0, 72, 96
2, 88320, Note_off_c, 0, 72, 0
2, 88320, Note_on_c, 0, 75, 96
2, 88448, Note_off_c, 0, 75, 0
2, 88448, Note_on_c, 0, 74, 96
2, 88576, Note_off_c, 0, 74, 0
2, 88576, Note_on_c, 0, 72, 96
2, 88704, Note_off_c, 0, 72, 0
2, 88704, Note_on_c, 0, 74, 96
2, 88832, Note_off_c, 0, 74, 0
2, 88832, Note_on_c, 0, 75, 96
2, 89216, Note_off_c, 0, 75, 0
2, 89216, Note_on_c, 0, 72, 96
2, 89344, Note_off_c, 0, 72, 0
2, 89344, Note_on_c, 0, 68, 96
2, 89472, Note_off_c, 0, 68, 0
2, 89472, Note_on_c, 0, 67, 96
2, 89600, Note_off_c, 0, 67, 0
2, 89600, Note_on_c, 0, 68, 96
2, 90368, Note_off_c, 0, 68, 0
2, 90368, Note_on_c, 0, 75, 96
2, 90496, Note_off_c, 0, 75, 0
2, 90496, Note_on_c, 0, 74, 96
2, 90624, Note_off_c, 0, 74, 0
2, 90624, Note_on_c, 0, 75, 96
2, 90752, Note_off_c, 0, 75, 0
2, 90752, Note_on_c, 0, 72, 96
2, 90880, Note_off_c, 0, 72, 0
2, 90880, Note_on_c, 0, 71, 96
2, 91008, Note_off_c, 0, 71, 0
2, 91008, Note_on_c, 0, 72, 96
2, 91136, Note_off_c, 0, 72, 0
2, 91136, Note_on_c, 0, 72, 96
2, 91264, Note_off_c, 0, 72, 0
2, 91264, Note_on_c, 0, 68, 96
2, 91392, Note_off_c, 0, 68, 0
2, 91392, Note_on_c, 0, 67, 96
2, 91520, Note_off_c, 0, 67, 0
2, 91520, Note_on_c, 0, 68, 96
2, 91648, Note_off_c, 0, 68, 0
2, 91648, Note_on_c, 0, 68, 96
2, 91776, Note_off_c, 0, 68, 0
2, 91776, Note_on_c, 0, 67, 96
2, 91904, Note_off_c, 0, 67, 0
2, 91904, Note_on_c, 0, 66, 96
2, 92032, Note_off_c, 0, 66, 0
2, 92032, Note_on_c, 0, 67, 96
2, 92160, Note_off_c, 0, 67, 0
2, 92160, Note_on_c, 0, 66, 96
2, 92416, Note_off_c, 0, 66, 0
2, 92416, Note_on_c, 0, 69, 96
2, 92544, Note_off_c, 0, 69, 0
2, 92544, Note_on_c, 0, 72, 96
2, 92672, Note_off_c, 0, 72, 0
2, 92672, Note_on_c, 0, 75, 96
2, 92928, Note_off_c, 0, 75, 0
2, 92928, Note_on_c, 0, 74, 96
2, 93184, Note_off_c, 0, 74, 0
2, 93184, Note_on_c, 0, 74, 96
2, 94336, Note_off_c, 0, 74, 0
2, 94336, Note_on_c, 0, 79, 96
2, 94464, Note_off_c, 0, 79, 0
2, 94464, Note_on_c, 0, 78, 96
2, 94592, Note_off_c, 0, 78, 0
2, 94592, Note_on_c, 0, 76, 96
2, 94720, Note_off_c, 0, 76, 0
2, 94720, Note_on_c, 0, 74, 96
2, 95104, Note_off_c, 0, 74, 0
2, 95104, Note_on_c, 0, 72, 96
2, 95232, Note_off_c, 0, 72, 0
2, 95232, Note_on_c, 0, 70, 96
2, 95744, Note_off_c, 0, 70, 0
2, 95744, Note_on_c, 0, 69, 96
2, 95872, Note_off_c, 0, 69, 0
2, 95872, Note_on_c, 0, 67, 96
2, 96000, Note_off_c, 0, 67, 0
2, 96000, Note_on_c, 0, 69, 96
2, 96256, Note_off_c, 0, 69, 0
2, 96256, Note_on_c, 0, 67, 96
2, 98304, Note_off_c, 0, 67, 0
2, 111616, Note_on_c, 0, 67, 96
2, 112640, Note_off_c, 0, 67, 0
2, 112640, Note_on_c, 0, 67, 96
2, 113664, Note_off_c, 0, 67, 0
2, 113664, Note_on_c, 0, 66, 96
2, 114176, Note_off_c, 0, 66, 0
2, 114176, Note_on_c, 0, 67, 96
2, 114432, Note_off_c, 0, 67, 0
2, 114432, Note_on_c, 0, 69, 96
2, 114688, Note_off_c, 0, 69, 0
2, 114688, Note_on_c, 0, 70, 96
2, 115968, Note_off_c, 0, 70, 0
2, 115968, Note_on_c, 0, 67, 96
2, 116224, Note_off_c, 0, 67, 0
2, 116224, Note_on_c, 0, 67, 96
2, 116352, Note_off_c, 0, 67, 0
2, 116352, Note_on_c, 0, 66, 96
2, 116480, Note_off_c, 0, 66, 0
2, 116480, Note_on_c, 0, 67, 96
2, 116736, Note_off_c, 0, 67, 0
2, 116736, Note_on_c, 0, 72, 96
2, 118016, Note_off_c, 0, 72, 0
2, 118016, Note_on_c, 0, 69, 96
2, 118272, Note_off_c, 0, 69, 0
2, 118272, Note_on_c, 0, 69, 96
2, 118400, Note_off_c, 0, 69, 0
2, 118400, Note_on_c, 0, 67, 96
2, 118528, Note_off_c, 0, 67, 0
2, 118528, Note_on_c, 0, 69, 96
2, 118784, Note_off_c, 0, 69, 0
2, 118784, Note_on_c, 0, 74, 96
2, 120064, Note_off_c, 0, 74, 0
2, 120064, Note_on_c, 0, 67, 96
2, 120192, Note_off_c, 0, 67, 0
2, 120192, Note_on_c, 0, 69, 96
2, 120320, Note_off_c, 0, 69, 0
2, 120320, Note_on_c, 0, 70, 96
2, 120448, Note_off_c, 0, 70, 0
2, 120448, Note_on_c, 0, 72, 96
2, 120576, Note_off_c, 0, 72, 0
2, 120576, Note_on_c, 0, 74, 96
2, 120832, Note_off_c, 0, 74, 0
2, 120832, Note_on_c, 0, 75, 96
2, 121600, Note_off_c, 0, 75, 0
2, 121600, Note_on_c, 0, 74, 96
2, 121856, Note_off_c, 0, 74, 0
2, 121856, Note_on_c, 0, 72, 96
2, 122112, Note_off_c, 0, 72, 0
2, 122112, Note_on_c, 0, 70, 96
2, 122240, Note_off_c, 0, 70, 0
2, 122240, Note_on_c, 0, 69, 96
2, 122368, Note_off_c, 0, 69, 0
2, 122368, Note_on_c, 0, 69, 96
2, 122624, Note_off_c, 0, 69, 0
2, 122624, Note_on_c, 0, 70, 96
2, 122752, Note_off_c, 0, 70, 0
2, 122752, Note_on_c, 0, 72, 96
2, 122880, Note_off_c, 0, 72, 0
2, 122880, Note_on_c, 0, 67, 96
2, 122944, Note_off_c, 0, 67, 0
2, 122944, Note_on_c, 0, 66, 96
2, 123392, Note_off_c, 0, 66, 0
2, 123392, Note_on_c, 0, 64, 96
2, 123648, Note_off_c, 0, 64, 0
2, 123648, Note_on_c, 0, 62, 96
2, 123904, Note_off_c, 0, 62, 0
2, 123904, Note_on_c, 0, 67, 96
2, 125056, Note_off_c, 0, 67, 0
2, 125056, Note_on_c, 0, 69, 96
2, 125184, Note_off_c, 0, 69, 0
2, 125184, Note_on_c, 0, 67, 96
2, 125312, Note_off_c, 0, 67, 0
2, 125312, Note_on_c, 0, 66, 96
2, 125440, Note_off_c, 0, 66, 0
2, 125440, Note_on_c, 0, 67, 96
2, 125568, Note_off_c, 0, 67, 0
2, 125568, Note_on_c, 0, 72, 96
2, 125696, Note_off_c, 0, 72, 0
2, 125696, Note_on_c, 0, 69, 96
2, 125952, Note_off_c, 0, 69, 0
2, 125952, Note_on_c, 0, 67, 96
2, 126464, Note_off_c, 0, 67, 0
2, 126464, Note_on_c, 0, 66, 96
2, 126848, Note_off_c, 0, 66, 0
2, 126848, Note_on_c, 0, 67, 96
2, 126976, Note_off_c, 0, 67, 0
2, 126976, Note_on_c, 0, 67, 96
2, 127232, Note_off_c, 0, 67, 0
2, 127232, Note_on_c, 0, 79, 96
2, 127488, Note_off_c, 0, 79, 0
2, 127488, Note_on_c, 0, 77, 96
2, 128256, Note_off_c, 0, 77, 0
2, 128256, Note_on_c, 0, 75, 96
2, 128384, Note_off_c, 0, 75, 0
2, 128384, Note_on_c, 0, 74, 96
2, 128512, Note_off_c, 0, 74, 0
2, 128512, Note_on_c, 0, 79, 96
2, 128640, Note_off_c, 0, 79, 0
2, 128640, Note_on_c, 0, 77, 96
2, 128768, Note_off_c, 0, 77, 0
2, 128768, Note_on_c, 0, 75, 96
2, 128896, Note_off_c, 0, 75, 0
2, 128896, Note_on_c, 0, 74, 96
2, 129024, Note_off_c, 0, 74, 0
2, 129024, Note_on_c, 0, 77, 96
2, 129152, Note_off_c, 0, 77, 0
2, 129152, Note_on_c, 0, 75, 96
2, 129280, Note_off_c, 0, 75, 0
2, 129280, Note_on_c, 0, 74, 96
2, 129408, Note_off_c, 0, 74, 0
2, 129408, Note_on_c, 0, 72, 96
2, 129536, Note_off_c, 0, 72, 0
2, 129536, Note_on_c, 0, 82, 96
2, 130176, Note_off_c, 0, 82, 0
2, 130176, Note_on_c, 0, 81, 96
2, 130304, Note_off_c, 0, 81, 0
2, 130304, Note_on_c, 0, 82, 96
2, 130432, Note_off_c, 0, 82, 0
2, 130432, Note_on_c, 0, 84, 96
2, 130560, Note_off_c, 0, 84, 0
2, 130560, Note_on_c, 0, 82, 96
2, 130688, Note_off_c, 0, 82, 0
2, 130688, Note_on_c, 0, 81, 96
2, 130816, Note_off_c, 0, 81, 0
2, 130816, Note_on_c, 0, 79, 96
2, 130944, Note_off_c, 0, 79, 0
2, 130944, Note_on_c, 0, 81, 96
2, 131072, Note_off_c, 0, 81, 0
2, 131072, Note_on_c, 0, 79, 96
2, 131200, Note_off_c, 0, 79, 0
2, 131200, Note_on_c, 0, 78, 96
2, 131328, Note_off_c, 0, 78, 0
2, 131328, Note_on_c, 0, 79, 96
2, 131456, Note_off_c, 0, 79, 0
2, 131456, Note_on_c, 0, 81, 96
2, 131584, Note_off_c, 0, 81, 0
2, 131584, Note_on_c, 0, 72, 96
2, 132224, Note_off_c, 0, 72, 0
2, 132224, Note_on_c, 0, 75, 96
2, 132352, Note_off_c, 0, 75, 0
2, 132352, Note_on_c, 0, 74, 96
2, 132480, Note_off_c, 0, 74, 0
2, 132480, Note_on_c, 0, 72, 96
2, 132608, Note_off_c, 0, 72, 0
2, 132608, Note_on_c, 0, 74, 96
2, 132736, Note_off_c, 0, 74, 0
2, 132736, Note_on_c, 0, 72, 96
2, 132864, Note_off_c, 0, 72, 0
2, 132864, Note_on_c, 0, 70, 96
2, 132992, Note_off_c, 0, 70, 0
2, 132992, Note_on_c, 0, 69, 96
2, 133120, Note_off_c, 0, 69, 0
2, 133120, Note_on_c, 0, 70, 96
2, 133376, Note_off_c, 0, 70, 0
2, 133376, Note_on_c, 0, 79, 96
2, 133504, Note_off_c, 0, 79, 0
2, 133504, Note_on_c, 0, 75, 96
2, 133632, Note_off_c, 0, 75, 0
2, 133632, Note_on_c, 0, 73, 96
2, 133760, Note_off_c, 0, 73, 0
2, 133760, Note_on_c, 0, 74, 96
2, 133888, Note_off_c, 0, 74, 0
2, 133888, Note_on_c, 0, 67, 96
2, 134144, Note_off_c, 0, 67, 0
2, 134144, Note_on_c, 0, 70, 96
2, 134656, Note_off_c, 0, 70, 0
2, 134656, Note_on_c, 0, 69, 96
2, 134784, Note_off_c, 0, 69, 0
2, 134784, Note_on_c, 0, 67, 96
2, 134912, Note_off_c, 0, 67, 0
2, 134912, Note_on_c, 0, 69, 96
2, 135168, Note_off_c, 0, 69, 0
2, 135168, Note_on_c, 0, 67, 96
2, 141312, Note_off_c, 0, 67, 0
2, 141312, End_track
3, 0, Start_track
3, 0, Title_t, "Instrument 2"
3, 3072, Note_on_c, 1, 62, 96
3, 4096, Note_off_c, 1, 62, 0
3, 4096, Note_on_c, 1, 62, 96
3, 5120, Note_off_c, 1, 62, 0
3, 5120, Note_on_c, 1, 60, 96
3, 6144, Note_off_c, 1, 60, 0
3, 6144, Note_on_c, 1, 65, 96
3, 7680, Note_off_c, 1, 65, 0
3, 7680, Note_on_c, 1, 63, 96
3, 7936, Note_off_c, 1, 63, 0
3, 7936, Note_on_c, 1, 62, 96
3, 8192, Note_off_c, 1, 62, 0
3, 8192, Note_on_c, 1, 63, 96
3, 10240, Note_off_c, 1, 63, 0
3, 10240, Note_on_c, 1, 62, 96
3, 13312, Note_off_c, 1, 62, 0
3, 13312, Note_on_c, 1, 60, 96
3, 14336, Note_off_c, 1, 60, 0
3, 14336, Note_on_c, 1, 62, 96
3, 17408, Note_off_c, 1, 62, 0
3, 17920, Note_on_c, 1, 58, 96
3, 18944, Note_off_c, 1, 58, 0
3, 18944, Note_on_c, 1, 57, 96
3, 19200, Note_off_c, 1, 57, 0
3, 19200, Note_on_c, 1, 55, 96
3, 19456, Note_off_c, 1, 55, 0
3, 19456, Note_on_c, 1, 57, 96
3, 20480, Note_off_c, 1, 57, 0
3, 22016, Note_on_c, 1, 67, 96
3, 23040, Note_off_c, 1, 67, 0
3, 23040, Note_on_c, 1, 66, 96
3, 23552, Note_off_c, 1, 66, 0
3, 23552, Note_on_c, 1, 67, 96
3, 24064, Note_off_c, 1, 67, 0
3, 24064, Note_on_c, 1, 63, 96
3, 24576, Note_off_c, 1, 63, 0
3, 24576, Note_on_c, 1, 62, 96
3, 25600, Note_off_c, 1, 62, 0
3, 26112, Note_on_c, 1, 58, 96
3, 26624, Note_off_c, 1, 58, 0
3, 26624, Note_on_c, 1, 63, 96
3, 27648, Note_off_c, 1, 63, 0
3, 27648, Note_on_c, 1, 62, 96
3, 28160, Note_off_c, 1, 62, 0
3, 28160, Note_on_c, 1, 60, 96
3, 29184, Note_off_c, 1, 60, 0
3, 29184, Note_on_c, 1, 58, 96
3, 29440, Note_off_c, 1, 58, 0
3, 29440, Note_on_c, 1, 60, 96
3, 29696, Note_off_c, 1, 60, 0
3, 29696, Note_on_c, 1, 62, 96
3, 30208, Note_off_c, 1, 62, 0
3, 30208, Note_on_c, 1, 60, 96
3, 30464, Note_off_c, 1, 60, 0
3, 30464, Note_on_c, 1, 58, 96
3, 30720, Note_off_c, 1, 58, 0
3, 30720, Note_on_c, 1, 57, 96
3, 32256, Note_off_c, 1, 57, 0
3, 32256, Note_on_c, 1, 58, 96
3, 32512, Note_off_c, 1, 58, 0
3, 32512, Note_on_c, 1, 60, 96
3, 32768, Note_off_c, 1, 60, 0
3, 32768, Note_on_c, 1, 62, 96
3, 33280, Note_off_c, 1, 62, 0
3, 33280, Note_on_c, 1, 63, 96
3, 33792, Note_off_c, 1, 63, 0
3, 33792, Note_on_c, 1, 65, 96
3, 34304, Note_off_c, 1, 65, 0
3, 34304, Note_on_c, 1, 67, 96
3, 34816, Note_off_c, 1, 67, 0
3, 34816, Note_on_c, 1, 60, 96
3, 36352, Note_off_c, 1, 60, 0
3, 36352, Note_on_c, 1, 62, 96
3, 36608, Note_off_c, 1, 62, 0
3, 36608, Note_on_c, 1, 63, 96
3, 36864, Note_off_c, 1, 63, 0
3, 36864, Note_on_c, 1, 65, 96
3, 38400, Note_off_c, 1, 65, 0
3, 38400, Note_on_c, 1, 67, 96
3, 38656, Note_off_c, 1, 67, 0
3, 38656, Note_on_c, 1, 65, 96
3, 38912, Note_off_c, 1, 65, 0
3, 38912, Note_on_c, 1, 63, 96
3, 40960, Note_off_c, 1, 63, 0
3, 40960, Note_on_c, 1, 62, 96
3, 42496, Note_off_c, 1, 62, 0
3, 42496, Note_on_c, 1, 63, 96
3, 42752, Note_off_c, 1, 63, 0
3, 42752, Note_on_c, 1, 65, 96
3, 43008, Note_off_c, 1, 65, 0
3, 43008, Note_on_c, 1, 67, 96
3, 43264, Note_off_c, 1, 67, 0
3, 43264, Note_on_c, 1, 65, 96
3, 43520, Note_off_c, 1, 65, 0
3, 43520, Note_on_c, 1, 63, 96
3, 43776, Note_off_c, 1, 63, 0
3, 43776, Note_on_c, 1, 62, 96
3, 44032, Note_off_c, 1, 62, 0
3, 44032, Note_on_c, 1, 60, 96
3, 44544, Note_off_c, 1, 60, 0
3, 45568, Note_on_c, 1, 67, 96
3, 46080, Note_off_c, 1, 67, 0
3, 46080, Note_on_c, 1, 65, 96
3, 48128, Note_off_c, 1, 65, 0
3, 48640, Note_on_c, 1, 70, 96
3, 49152, Note_off_c, 1, 70, 0
3, 49152, Note_on_c, 1, 70, 96
3, 50176, Note_off_c, 1, 70, 0
3, 50688, Note_on_c, 1, 67, 96
3, 51200, Note_off_c, 1, 67, 0
3, 51200, Note_on_c, 1, 65, 96
3, 52224, Note_off_c, 1, 65, 0
3, 52736, Note_on_c, 1, 68, 96
3, 53248, Note_off_c, 1, 68, 0
3, 53248, Note_on_c, 1, 67, 96
3, 54272, Note_off_c, 1, 67, 0
3, 54784, Note_on_c, 1, 67, 96
3, 55296, Note_off_c, 1, 67, 0
3, 55296, Note_on_c, 1, 65, 96
3, 56320, Note_off_c, 1, 65, 0
3, 56832, Note_on_c, 1, 65, 96
3, 57344, Note_off_c, 1, 65, 0
3, 57344, Note_on_c, 1, 67, 96
3, 57856, Note_off_c, 1, 67, 0
3, 58368, Note_on_c, 1, 67, 96
3, 58880, Note_off_c, 1, 67, 0
3, 59392, Note_on_c, 1, 60, 96
3, 59904, Note_off_c, 1, 60, 0
3, 60928, Note_on_c, 1, 63, 96
3, 61440, Note_off_c, 1, 63, 0
3, 61440, Note_on_c, 1, 62, 96
3, 61952, Note_off_c, 1, 62, 0
3, 61952, Note_on_c, 1, 67, 96
3, 62464, Note_off_c, 1, 67, 0
3, 62464, Note_on_c, 1, 65, 96
3, 62720, Note_off_c, 1, 65, 0
3, 62720, Note_on_c, 1, 62, 96
3, 62976, Note_off_c, 1, 62, 0
3, 62976, Note_on_c, 1, 63, 96
3, 64000, Note_off_c, 1, 63, 0
3, 64000, Note_on_c, 1, 62, 96
3, 64256, Note_off_c, 1, 62, 0
3, 64256, Note_on_c, 1, 63, 96
3, 64512, Note_off_c, 1, 63, 0
3, 64512, Note_on_c, 1, 65, 96
3, 65024, Note_off_c, 1, 65, 0
3, 65024, Note_on_c, 1, 63, 96
3, 65280, Note_off_c, 1, 63, 0
3, 65280, Note_on_c, 1, 62, 96
3, 65536, Note_off_c, 1, 62, 0
3, 65536, Note_on_c, 1, 60, 96
3, 67072, Note_off_c, 1, 60, 0
3, 67072, Note_on_c, 1, 62, 96
3, 67328, Note_off_c, 1, 62, 0
3, 67328, Note_on_c, 1, 63, 96
3, 67584, Note_off_c, 1, 63, 0
3, 67584, Note_on_c, 1, 65, 96
3, 70144, Note_off_c, 1, 65, 0
3, 70144, Note_on_c, 1, 63, 96
3, 70400, Note_off_c, 1, 63, 0
3, 70400, Note_on_c, 1, 62, 96
3, 70656, Note_off_c, 1, 62, 0
3, 70656, Note_on_c, 1, 63, 96
3, 71168, Note_off_c, 1, 63, 0
3, 71168, Note_on_c, 1, 72, 96
3, 71680, Note_off_c, 1, 72, 0
3, 71680, Note_on_c, 1, 66, 96
3, 72192, Note_off_c, 1, 66, 0
3, 72192, Note_on_c, 1, 67, 96
3, 72704, Note_off_c, 1, 67, 0
3, 72704, Note_on_c, 1, 69, 96
3, 74240, Note_off_c, 1, 69, 0
3, 74240, Note_on_c, 1, 67, 96
3, 74752, Note_off_c, 1, 67, 0
3, 74752, Note_on_c, 1, 65, 96
3, 76288, Note_off_c, 1, 65, 0
3, 76288, Note_on_c, 1, 63, 96
3, 76800, Note_off_c, 1, 63, 0
3, 76800, Note_on_c, 1, 62, 96
3, 77312, Note_off_c, 1, 62, 0
3, 77312, Note_on_c, 1, 67, 96
3, 77824, Note_off_c, 1, 67, 0
3, 77824, Note_on_c, 1, 69, 96
3, 78336, Note_off_c, 1, 69, 0
3, 79360, Note_on_c, 1, 71, 96
3, 79872, Note_off_c, 1, 71, 0
3, 79872, Note_on_c, 1, 72, 96
3, 80384, Note_off_c, 1, 72, 0
3, 81408, Note_on_c, 1, 69, 96
3, 81920, Note_off_c, 1, 69, 0
3, 81920, Note_on_c, 1, 70, 96
3, 82944, Note_off_c, 1, 70, 0
3, 83456, Note_on_c, 1, 70, 96
3, 83968, Note_off_c, 1, 70, 0
3, 83968, Note_on_c, 1, 69, 96
3, 84992, Note_off_c, 1, 69, 0
3, 85504, Note_on_c, 1, 69, 96
3, 86016, Note_off_c, 1, 69, 0
3, 86016, Note_on_c, 1, 67, 96
3, 87040, Note_off_c, 1, 67, 0
3, 87296, Note_on_c, 1, 65, 96
3, 87552, Note_off_c, 1, 65, 0
3, 87552, Note_on_c, 1, 67, 96
3, 87808, Note_off_c, 1, 67, 0
3, 87808, Note_on_c, 1, 65, 96
3, 88064, Note_off_c, 1, 65, 0
3, 88064, Note_on_c, 1, 67, 96
3, 88576, Note_off_c, 1, 67, 0
3, 89344, Note_on_c, 1, 62, 96
3, 89600, Note_off_c, 1, 62, 0
3, 89600, Note_on_c, 1, 63, 96
3, 89856, Note_off_c, 1, 63, 0
3, 89856, Note_on_c, 1, 62, 96
3, 90112, Note_off_c, 1, 62, 0
3, 90112, Note_on_c, 1, 63, 96
3, 90624, Note_off_c, 1, 63, 0
3, 91648, Note_on_c, 1, 63, 96
3, 92160, Note_off_c, 1, 63, 0
3, 92160, Note_on_c, 1, 62, 96
3, 92672, Note_off_c, 1, 62, 0
3, 92672, Note_on_c, 1, 66, 96
3, 93184, Note_off_c, 1, 66, 0
3, 93184, Note_on_c, 1, 67, 96
3, 93696, Note_off_c, 1, 67, 0
3, 93696, Note_on_c, 1, 69, 96
3, 94208, Note_off_c, 1, 69, 0
3, 94208, Note_on_c, 1, 62, 96
3, 94720, Note_off_c, 1, 62, 0
3, 94720, Note_on_c, 1, 67, 96
3, 95232, Note_off_c, 1, 67, 0
3, 95744, Note_on_c, 1, 62, 96
3, 96768, Note_off_c, 1, 62, 0
3, 96768, Note_on_c, 1, 60, 96
3, 97024, Note_off_c, 1, 60, 0
3, 97024, Note_on_c, 1, 59, 96
3, 97280, Note_off_c, 1, 59, 0
3, 97280, Note_on_c, 1, 60, 96
3, 97536, Note_off_c, 1, 60, 0
3, 97536, Note_on_c, 1, 62, 96
3, 97792, Note_off_c, 1, 62, 0
3, 97792, Note_on_c, 1, 62, 96
3, 98048, Note_off_c, 1, 62, 0
3, 98048, Note_on_c, 1, 63, 96
3, 98304, Note_off_c, 1, 63, 0
3, 98304, Note_on_c, 1, 63, 96
3, 100864, Note_off_c, 1, 63, 0
3, 100864, Note_on_c, 1, 62, 96
3, 101120, Note_off_c, 1, 62, 0
3, 101120, Note_on_c, 1, 60, 96
3, 101376, Note_off_c, 1, 60, 0
3, 101376, Note_on_c, 1, 62, 96
3, 101632, Note_off_c, 1, 62, 0
3, 101632, Note_on_c, 1, 63, 96
3, 101888, Note_off_c, 1, 63, 0
3, 101888, Note_on_c, 1, 63, 96
3, 102144, Note_off_c, 1, 63, 0
3, 102144, Note_on_c, 1, 65, 96
3, 102400, Note_off_c, 1, 65, 0
3, 102400, Note_on_c, 1, 65, 96
3, 104704, Note_off_c, 1, 65, 0
3, 104704, Note_on_c, 1, 63, 96
3, 104960, Note_off_c, 1, 63, 0
3, 104960, Note_on_c, 1, 67, 96
3, 105216, Note_off_c, 1, 67, 0
3, 105216, Note_on_c, 1, 65, 96
3, 105472, Note_off_c, 1, 65, 0
3, 105472, Note_on_c, 1, 65, 96
3, 105728, Note_off_c, 1, 65, 0
3, 105728, Note_on_c, 1, 63, 96
3, 105984, Note_off_c, 1, 63, 0
3, 105984, Note_on_c, 1, 63, 96
3, 106240, Note_off_c, 1, 63, 0
3, 106240, Note_on_c, 1, 62, 96
3, 106496, Note_off_c, 1, 62, 0
3, 106496, Note_on_c, 1, 62, 96
3, 106752, Note_off_c, 1, 62, 0
3, 106752, Note_on_c, 1, 68, 96
3, 107008, Note_off_c, 1, 68, 0
3, 107008, Note_on_c, 1, 68, 96
3, 107264, Note_off_c, 1, 68, 0
3, 107264, Note_on_c, 1, 67, 96
3, 107520, Note_off_c, 1, 67, 0
3, 107520, Note_on_c, 1, 67, 96
3, 107776, Note_off_c, 1, 67, 0
3, 107776, Note_on_c, 1, 65, 96
3, 108032, Note_off_c, 1, 65, 0
3, 108032, Note_on_c, 1, 65, 96
3, 108288, Note_off_c, 1, 65, 0
3, 108288, Note_on_c, 1, 63, 96
3, 108544, Note_off_c, 1, 63, 0
3, 108544, Note_on_c, 1, 63, 96
3, 109312, Note_off_c, 1, 63, 0
3, 109312, Note_on_c, 1, 65, 96
3, 109568, Note_off_c, 1, 65, 0
3, 109568, Note_on_c, 1, 62, 96
3, 110336, Note_off_c, 1, 62, 0
3, 110336, Note_on_c, 1, 67, 96
3, 110592, Note_off_c, 1, 67, 0
3, 110592, Note_on_c, 1, 63, 96
3, 110848, Note_off_c, 1, 63, 0
3, 110848, Note_on_c, 1, 65, 96
3, 111104, Note_off_c, 1, 65, 0
3, 111104, Note_on_c, 1, 65, 96
3, 111360, Note_off_c, 1, 65, 0
3, 111360, Note_on_c, 1, 63, 96
3, 111616, Note_off_c, 1, 63, 0
3, 111616, Note_on_c, 1, 63, 96
3, 111872, Note_off_c, 1, 63, 0
3, 111872, Note_on_c, 1, 62, 96
3, 112128, Note_off_c, 1, 62, 0
3, 112128, Note_on_c, 1, 62, 96
3, 112384, Note_off_c, 1, 62, 0
3, 112384, Note_on_c, 1, 60, 96
3, 112640, Note_off_c, 1, 60, 0
3, 112640, Note_on_c, 1, 60, 96
3, 112896, Note_off_c, 1, 60, 0
3, 112896, Note_on_c, 1, 58, 96
3, 113152, Note_off_c, 1, 58, 0
3, 113152, Note_on_c, 1, 58, 96
3, 113408, Note_off_c, 1, 58, 0
3, 113408, Note_on_c, 1, 57, 96
3, 113664, Note_off_c, 1, 57, 0
3, 113664, Note_on_c, 1, 57, 96
3, 114176, Note_off_c, 1, 57, 0
3, 114176, Note_on_c, 1, 58, 96
3, 114432, Note_off_c, 1, 58, 0
3, 114432, Note_on_c, 1, 60, 96
3, 114688, Note_off_c, 1, 60, 0
3, 114688, Note_on_c, 1, 54, 96
3, 115712, Note_off_c, 1, 54, 0
3, 116224, Note_on_c, 1, 58, 96
3, 117248, Note_off_c, 1, 58, 0
3, 117248, Note_on_c, 1, 57, 96
3, 117504, Note_off_c, 1, 57, 0
3, 117504, Note_on_c, 1, 55, 96
3, 117760, Note_off_c, 1, 55, 0
3, 117760, Note_on_c, 1, 57, 96
3, 118784, Note_off_c, 1, 57, 0
3, 120320, Note_on_c, 1, 67, 96
3, 121344, Note_off_c, 1, 67, 0
3, 121344, Note_on_c, 1, 66, 96
3, 121856, Note_off_c, 1, 66, 0
3, 121856, Note_on_c, 1, 67, 96
3, 122368, Note_off_c, 1, 67, 0
3, 122368, Note_on_c, 1, 63, 96
3, 122880, Note_off_c, 1, 63, 0
3, 122880, Note_on_c, 1, 62, 96
3, 123904, Note_off_c, 1, 62, 0
3, 124416, Note_on_c, 1, 58, 96
3, 124928, Note_off_c, 1, 58, 0
3, 124928, Note_on_c, 1, 63, 96
3, 125952, Note_off_c, 1, 63, 0
3, 125952, Note_on_c, 1, 62, 96
3, 126464, Note_off_c, 1, 62, 0
3, 126464, Note_on_c, 1, 60, 96
3, 126976, Note_off_c, 1, 60, 0
3, 126976, Note_on_c, 1, 59, 96
3, 127488, Note_off_c, 1, 59, 0
3, 127488, Note_on_c, 1, 60, 96
3, 128000, Note_off_c, 1, 60, 0
3, 128000, Note_on_c, 1, 62, 96
3, 128512, Note_off_c, 1, 62, 0
3, 128512, Note_on_c, 1, 59, 96
3, 129024, Note_off_c, 1, 59, 0
3, 129024, Note_on_c, 1, 60, 96
3, 129536, Note_off_c, 1, 60, 0
3, 129536, Note_on_c, 1, 62, 96
3, 130048, Note_off_c, 1, 62, 0
3, 130048, Note_on_c, 1, 60, 96
3, 130560, Note_off_c, 1, 60, 0
3, 130560, Note_on_c, 1, 62, 96
3, 130816, Note_off_c, 1, 62, 0
3, 130816, Note_on_c, 1, 58, 96
3, 131072, Note_off_c, 1, 58, 0
3, 131072, Note_on_c, 1, 57, 96
3, 131584, Note_off_c, 1, 57, 0
3, 131584, Note_on_c, 1, 55, 96
3, 132096, Note_off_c, 1, 55, 0
3, 132096, Note_on_c, 1, 54, 96
3, 132608, Note_off_c, 1, 54, 0
3, 132608, Note_on_c, 1, 57, 96
3, 132864, Note_off_c, 1, 57, 0
3, 132864, Note_on_c, 1, 63, 96
3, 133120, Note_off_c, 1, 63, 0
3, 133120, Note_on_c, 1, 62, 96
3, 134912, Note_off_c, 1, 62, 0
3, 134912, Note_on_c, 1, 60, 96
3, 135424, Note_off_c, 1, 60, 0
3, 135424, Note_on_c, 1, 59, 96
3, 135680, Note_on_c, 1, 65, 96
3, 135936, Note_off_c, 1, 65, 0
3, 135936, Note_on_c, 1, 62, 96
3, 136192, Note_off_c, 1, 62, 0
3, 136192, Note_on_c, 1, 63, 96
3, 136448, Note_off_c, 1, 59, 0
3, 136448, Note_on_c, 1, 59, 96
3, 136704, Note_off_c, 1, 59, 0
3, 136704, Note_on_c, 1, 60, 96
3, 137216, Note_off_c, 1, 60, 0
3, 137216, Note_off_c, 1, 63, 0
3, 137216, Note_on_c, 1, 59, 96
3, 137216, Note_on_c, 1, 62, 96
3, 141312, Note_off_c, 1, 59, 0
3, 141312, Note_off_c, 1, 62, 0
3, 141312, End_track
4, 0, Start_track
4, 0, Title_t, "Instrument 3"
4, 1024, Note_on_c, 2, 55, 96
4, 2048, Note_off_c, 2, 55, 0
4, 2048, Note_on_c, 2, 55, 96
4, 3072, Note_off_c, 2, 55, 0
4, 3072, Note_on_c, 2, 53, 96
4, 4096, Note_off_c, 2, 53, 0
4, 4096, Note_on_c, 2, 58, 96
4, 5632, Note_off_c, 2, 58, 0
4, 5632, Note_on_c, 2, 57, 96
4, 5888, Note_off_c, 2, 57, 0
4, 5888, Note_on_c, 2, 55, 96
4, 6144, Note_off_c, 2, 55, 0
4, 6144, Note_on_c, 2, 57, 96
4, 7168, Note_off_c, 2, 57, 0
4, 7168, Note_on_c, 2, 55, 96
4, 9216, Note_off_c, 2, 55, 0
4, 9216, Note_on_c, 2, 60, 96
4, 11264, Note_off_c, 2, 60, 0
4, 11264, Note_on_c, 2, 58, 96
4, 11776, Note_off_c, 2, 58, 0
4, 11776, Note_on_c, 2, 57, 96
4, 12288, Note_off_c, 2, 57, 0
4, 12288, Note_on_c, 2, 55, 96
4, 12800, Note_off_c, 2, 55, 0
4, 12800, Note_on_c, 2, 54, 96
4, 13312, Note_off_c, 2, 54, 0
4, 13312, Note_on_c, 2, 55, 96
4, 13824, Note_off_c, 2, 55, 0
4, 13824, Note_on_c, 2, 57, 96
4, 14336, Note_off_c, 2, 57, 0
4, 14336, Note_on_c, 2, 58, 96
4, 14848, Note_off_c, 2, 58, 0
4, 14848, Note_on_c, 2, 57, 96
4, 15104, Note_off_c, 2, 57, 0
4, 15104, Note_on_c, 2, 55, 96
4, 15360, Note_off_c, 2, 55, 0
4, 15360, Note_on_c, 2, 57, 96
4, 16896, Note_off_c, 2, 57, 0
4, 16896, Note_on_c, 2, 55, 96
4, 17152, Note_off_c, 2, 55, 0
4, 17152, Note_on_c, 2, 54, 96
4, 17408, Note_off_c, 2, 54, 0
4, 17408, Note_on_c, 2, 55, 96
4, 18432, Note_off_c, 2, 55, 0
4, 19968, Note_on_c, 2, 60, 96
4, 20992, Note_off_c, 2, 60, 0
4, 20992, Note_on_c, 2, 58, 96
4, 21248, Note_off_c, 2, 58, 0
4, 21248, Note_on_c, 2, 57, 96
4, 21504, Note_off_c, 2, 57, 0
4, 21504, Note_on_c, 2, 58, 96
4, 22016, Note_off_c, 2, 58, 0
4, 22016, Note_on_c, 2, 62, 96
4, 22784, Note_off_c, 2, 62, 0
4, 22784, Note_on_c, 2, 60, 96
4, 23296, Note_off_c, 2, 60, 0
4, 23296, Note_on_c, 2, 58, 96
4, 23552, Note_off_c, 2, 58, 0
4, 23552, Note_on_c, 2, 57, 96
4, 23808, Note_off_c, 2, 57, 0
4, 23808, Note_on_c, 2, 55, 96
4, 24064, Note_off_c, 2, 55, 0
4, 24064, Note_on_c, 2, 60, 96
4, 24576, Note_off_c, 2, 60, 0
4, 24576, Note_on_c, 2, 57, 96
4, 25600, Note_off_c, 2, 57, 0
4, 26112, Note_on_c, 2, 55, 96
4, 27136, Note_off_c, 2, 55, 0
4, 27136, Note_on_c, 2, 60, 96
4, 27648, Note_off_c, 2, 60, 0
4, 27648, Note_on_c, 2, 57, 96
4, 28672, Note_off_c, 2, 57, 0
4, 28672, Note_on_c, 2, 55, 96
4, 31744, Note_off_c, 2, 55, 0
4, 31744, Note_on_c, 2, 53, 96
4, 33792, Note_off_c, 2, 53, 0
4, 33792, Note_on_c, 2, 58, 96
4, 35840, Note_off_c, 2, 58, 0
4, 35840, Note_on_c, 2, 57, 96
4, 37376, Note_off_c, 2, 57, 0
4, 37376, Note_on_c, 2, 59, 96
4, 37632, Note_off_c, 2, 59, 0
4, 37632, Note_on_c, 2, 60, 96
4, 37888, Note_off_c, 2, 60, 0
4, 37888, Note_on_c, 2, 62, 96
4, 39424, Note_off_c, 2, 62, 0
4, 39424, Note_on_c, 2, 60, 96
4, 39680, Note_off_c, 2, 60, 0
4, 39680, Note_on_c, 2, 59, 96
4, 39936, Note_off_c, 2, 59, 0
4, 39936, Note_on_c, 2, 60, 96
4, 41472, Note_off_c, 2, 60, 0
4, 41472, Note_on_c, 2, 58, 96
4, 41728, Note_off_c, 2, 58, 0
4, 41728, Note_on_c, 2, 60, 96
4, 41984, Note_off_c, 2, 60, 0
4, 41984, Note_on_c, 2, 62, 96
4, 43008, Note_off_c, 2, 62, 0
4, 43520, Note_on_c, 2, 55, 96
4, 44032, Note_off_c, 2, 55, 0
4, 44032, Note_on_c, 2, 57, 96
4, 44544, Note_off_c, 2, 57, 0
4, 45568, Note_on_c, 2, 58, 96
4, 46080, Note_off_c, 2, 58, 0
4, 46080, Note_on_c, 2, 60, 96
4, 46592, Note_off_c, 2, 60, 0
4, 46592, Note_on_c, 2, 57, 96
4, 47104, Note_off_c, 2, 57, 0
4, 47104, Note_on_c, 2, 58, 96
4, 47616, Note_off_c, 2, 58, 0
4, 47616, Note_on_c, 2, 62, 96
4, 47872, Note_off_c, 2, 62, 0
4, 47872, Note_on_c, 2, 60, 96
4, 48128, Note_off_c, 2, 60, 0
4, 48128, Note_on_c, 2, 62, 96
4, 48640, Note_off_c, 2, 62, 0
4, 48640, Note_on_c, 2, 65, 96
4, 49152, Note_off_c, 2, 65, 0
4, 49152, Note_on_c, 2, 58, 96
4, 49664, Note_off_c, 2, 58, 0
4, 49664, Note_on_c, 2, 63, 96
4, 49920, Note_off_c, 2, 63, 0
4, 49920, Note_on_c, 2, 62, 96
4, 50176, Note_off_c, 2, 62, 0
4, 50176, Note_on_c, 2, 60, 96
4, 51712, Note_off_c, 2, 60, 0
4, 51712, Note_on_c, 2, 58, 96
4, 51968, Note_off_c, 2, 58, 0
4, 51968, Note_on_c, 2, 57, 96
4, 52224, Note_off_c, 2, 57, 0
4, 52224, Note_on_c, 2, 58, 96
4, 52480, Note_off_c, 2, 58, 0
4, 52480, Note_on_c, 2, 60, 96
4, 52736, Note_off_c, 2, 60, 0
4, 52736, Note_on_c, 2, 62, 96
4, 53760, Note_off_c, 2, 62, 0
4, 53760, Note_on_c, 2, 60, 96
4, 54016, Note_off_c, 2, 60, 0
4, 54016, Note_on_c, 2, 59, 96
4, 54272, Note_off_c, 2, 59, 0
4, 54272, Note_on_c, 2, 60, 96
4, 55808, Note_off_c, 2, 60, 0
4, 55808, Note_on_c, 2, 58, 96
4, 56064, Note_off_c, 2, 58, 0
4, 56064, Note_on_c, 2, 57, 96
4, 56320, Note_off_c, 2, 57, 0
4, 56320, Note_on_c, 2, 58, 96
4, 57856, Note_off_c, 2, 58, 0
4, 58368, Note_on_c, 2, 63, 96
4, 58880, Note_off_c, 2, 63, 0
4, 59392, Note_on_c, 2, 57, 96
4, 59904, Note_off_c, 2, 57, 0
4, 60928, Note_on_c, 2, 57, 96
4, 61440, Note_off_c, 2, 57, 0
4, 61440, Note_on_c, 2, 58, 96
4, 62976, Note_off_c, 2, 58, 0
4, 62976, Note_on_c, 2, 57, 96
4, 63488, Note_off_c, 2, 57, 0
4, 63488, Note_on_c, 2, 53, 96
4, 64512, Note_off_c, 2, 53, 0
4, 64512, Note_on_c, 2, 58, 96
4, 66560, Note_off_c, 2, 58, 0
4, 66560, Note_on_c, 2, 57, 96
4, 68096, Note_off_c, 2, 57, 0
4, 68096, Note_on_c, 2, 59, 96
4, 68352, Note_off_c, 2, 59, 0
4, 68352, Note_on_c, 2, 60, 96
4, 68608, Note_off_c, 2, 60, 0
4, 68608, Note_on_c, 2, 62, 96
4, 68864, Note_off_c, 2, 62, 0
4, 68864, Note_on_c, 2, 60, 96
4, 69120, Note_off_c, 2, 60, 0
4, 69120, Note_on_c, 2, 59, 96
4, 69376, Note_off_c, 2, 59, 0
4, 69376, Note_on_c, 2, 57, 96
4, 69632, Note_off_c, 2, 57, 0
4, 69632, Note_on_c, 2, 55, 96
4, 71168, Note_off_c, 2, 55, 0
4, 71168, Note_on_c, 2, 57, 96
4, 71424, Note_off_c, 2, 57, 0
4, 71424, Note_on_c, 2, 58, 96
4, 71680, Note_off_c, 2, 58, 0
4, 71680, Note_on_c, 2, 60, 96
4, 71936, Note_off_c, 2, 60, 0
4, 71936, Note_on_c, 2, 62, 96
4, 72192, Note_off_c, 2, 62, 0
4, 72192, Note_on_c, 2, 63, 96
4, 73216, Note_off_c, 2, 63, 0
4, 73216, Note_on_c, 2, 62, 96
4, 73472, Note_off_c, 2, 62, 0
4, 73472, Note_on_c, 2, 60, 96
4, 73728, Note_off_c, 2, 60, 0
4, 73728, Note_on_c, 2, 58, 96
4, 74240, Note_off_c, 2, 58, 0
4, 74240, Note_on_c, 2, 63, 96
4, 75264, Note_off_c, 2, 63, 0
4, 75264, Note_on_c, 2, 62, 96
4, 75520, Note_off_c, 2, 62, 0
4, 75520, Note_on_c, 2, 60, 96
4, 75776, Note_off_c, 2, 60, 0
4, 75776, Note_on_c, 2, 58, 96
4, 77312, Note_off_c, 2, 58, 0
4, 77312, Note_on_c, 2, 58, 96
4, 77824, Note_off_c, 2, 58, 0
4, 77824, Note_on_c, 2, 65, 96
4, 78336, Note_off_c, 2, 65, 0
4, 79360, Note_on_c, 2, 65, 96
4, 79872, Note_off_c, 2, 65, 0
4, 79872, Note_on_c, 2, 67, 96
4, 80384, Note_off_c, 2, 67, 0
4, 80384, Note_on_c, 2, 65, 96
4, 80896, Note_off_c, 2, 65, 0
4, 80896, Note_on_c, 2, 63, 96
4, 81920, Note_off_c, 2, 63, 0
4, 82432, Note_on_c, 2, 62, 96
4, 82944, Note_off_c, 2, 62, 0
4, 82944, Note_on_c, 2, 67, 96
4, 83456, Note_off_c, 2, 67, 0
4, 83456, Note_on_c, 2, 65, 96
4, 83968, Note_off_c, 2, 65, 0
4, 83968, Note_on_c, 2, 63, 96
4, 84480, Note_off_c, 2, 63, 0
4, 84480, Note_on_c, 2, 62, 96
4, 84992, Note_off_c, 2, 62, 0
4, 85504, Note_on_c, 2, 62, 96
4, 86016, Note_off_c, 2, 62, 0
4, 86016, Note_on_c, 2, 62, 96
4, 87040, Note_off_c, 2, 62, 0
4, 87296, Note_on_c, 2, 62, 96
4, 87552, Note_off_c, 2, 62, 0
4, 87552, Note_on_c, 2, 65, 96
4, 87808, Note_off_c, 2, 65, 0
4, 87808, Note_on_c, 2, 62, 96
4, 88064, Note_off_c, 2, 62, 0
4, 88064, Note_on_c, 2, 60, 96
4, 88576, Note_off_c, 2, 60, 0
4, 89344, Note_on_c, 2, 59, 96
4, 89600, Note_off_c, 2, 59, 0
4, 89600, Note_on_c, 2, 60, 96
4, 89856, Note_off_c, 2, 60, 0
4, 89856, Note_on_c, 2, 59, 96
4, 90112, Note_off_c, 2, 59, 0
4, 90112, Note_on_c, 2, 60, 96
4, 90624, Note_off_c, 2, 60, 0
4, 91648, Note_on_c, 2, 60, 96
4, 91904, Note_off_c, 2, 60, 0
4, 91904, Note_on_c, 2, 58, 96
4, 92160, Note_off_c, 2, 58, 0
4, 92160, Note_on_c, 2, 57, 96
4, 92672, Note_off_c, 2, 57, 0
4, 92672, Note_on_c, 2, 60, 96
4, 93184, Note_off_c, 2, 60, 0
4, 93184, Note_on_c, 2, 62, 96
4, 93440, Note_off_c, 2, 62, 0
4, 93440, Note_on_c, 2, 60, 96
4, 93696, Note_off_c, 2, 60, 0
4, 93696, Note_on_c, 2, 60, 96
4, 93952, Note_off_c, 2, 60, 0
4, 93952, Note_on_c, 2, 58, 96
4, 94208, Note_off_c, 2, 58, 0
4, 94208, Note_on_c, 2, 58, 96
4, 94720, Note_off_c, 2, 58, 0
4, 94720, Note_on_c, 2, 55, 96
4, 95744, Note_off_c, 2, 55, 0
4, 95744, Note_on_c, 2, 54, 96
4, 96256, Note_off_c, 2, 54, 0
4, 96256, Note_on_c, 2, 55, 96
4, 98816, Note_off_c, 2, 55, 0
4, 98816, Note_on_c, 2, 55, 96
4, 99072, Note_off_c, 2, 55, 0
4, 99072, Note_on_c, 2, 54, 96
4, 99328, Note_off_c, 2, 54, 0
4, 99328, Note_on_c, 2, 55, 96
4, 99584, Note_off_c, 2, 55, 0
4, 99584, Note_on_c, 2, 57, 96
4, 99840, Note_off_c, 2, 57, 0
4, 99840, Note_on_c, 2, 57, 96
4, 100096, Note_off_c, 2, 57, 0
4, 100096, Note_on_c, 2, 58, 96
4, 100352, Note_off_c, 2, 58, 0
4, 100352, Note_on_c, 2, 58, 96
4, 102912, Note_off_c, 2, 58, 0
4, 102912, Note_on_c, 2, 57, 96
4, 103168, Note_off_c, 2, 57, 0
4, 103168, Note_on_c, 2, 55, 96
4, 103424, Note_off_c, 2, 55, 0
4, 103424, Note_on_c, 2, 57, 96
4, 103680, Note_off_c, 2, 57, 0
4, 103680, Note_on_c, 2, 59, 96
4, 103936, Note_off_c, 2, 59, 0
4, 103936, Note_on_c, 2, 59, 96
4, 104192, Note_off_c, 2, 59, 0
4, 104192, Note_on_c, 2, 60, 96
4, 104448, Note_off_c, 2, 60, 0
4, 104448, Note_on_c, 2, 60, 96
4, 109312, Note_off_c, 2, 60, 0
4, 109312, Note_on_c, 2, 62, 96
4, 109568, Note_off_c, 2, 62, 0
4, 109568, Note_on_c, 2, 59, 96
4, 110336, Note_off_c, 2, 59, 0
4, 110336, Note_on_c, 2, 57, 96
4, 110464, Note_off_c, 2, 57, 0
4, 110464, Note_on_c, 2, 59, 96
4, 110592, Note_off_c, 2, 59, 0
4, 110592, Note_on_c, 2, 60, 96
4, 111104, Note_off_c, 2, 60, 0
4, 115200, Note_on_c, 2, 50, 96
4, 115712, Note_off_c, 2, 50, 0
4, 115712, Note_on_c, 2, 55, 96
4, 116736, Note_off_c, 2, 55, 0
4, 118272, Note_on_c, 2, 60, 96
4, 119296, Note_off_c, 2, 60, 0
4, 119296, Note_on_c, 2, 58, 96
4, 119552, Note_off_c, 2, 58, 0
4, 119552, Note_on_c, 2, 57, 96
4, 119808, Note_off_c, 2, 57, 0
4, 119808, Note_on_c, 2, 58, 96
4, 120320, Note_off_c, 2, 58, 0
4, 120320, Note_on_c, 2, 62, 96
4, 121088, Note_off_c, 2, 62, 0
4, 121088, Note_on_c, 2, 60, 96
4, 121600, Note_off_c, 2, 60, 0
4, 121600, Note_on_c, 2, 58, 96
4, 121856, Note_off_c, 2, 58, 0
4, 121856, Note_on_c, 2, 57, 96
4, 122112, Note_off_c, 2, 57, 0
4, 122112, Note_on_c, 2, 55, 96
4, 122368, Note_off_c, 2, 55, 0
4, 122368, Note_on_c, 2, 60, 96
4, 122624, Note_off_c, 2, 60, 0
4, 122624, Note_on_c, 2, 58, 96
4, 122880, Note_off_c, 2, 58, 0
4, 122880, Note_on_c, 2, 57, 96
4, 123904, Note_off_c, 2, 57, 0
4, 124416, Note_on_c, 2, 55, 96
4, 125440, Note_off_c, 2, 55, 0
4, 125440, Note_on_c, 2, 60, 96
4, 125952, Note_off_c, 2, 60, 0
4, 125952, Note_on_c, 2, 57, 96
4, 126976, Note_off_c, 2, 57, 0
4, 126976, Note_on_c, 2, 55, 96
4, 127488, Note_off_c, 2, 55, 0
4, 127488, Note_on_c, 2, 57, 96
4, 128000, Note_off_c, 2, 57, 0
4, 128000, Note_on_c, 2, 59, 96
4, 128512, Note_off_c, 2, 59, 0
4, 128512, Note_on_c, 2, 55, 96
4, 129536, Note_off_c, 2, 55, 0
4, 129536, Note_on_c, 2, 53, 96
4, 130048, Note_off_c, 2, 53, 0
4, 130048, Note_on_c, 2, 51, 96
4, 130560, Note_off_c, 2, 51, 0
4, 130560, Note_on_c, 2, 50, 96
4, 130816, Note_off_c, 2, 50, 0
4, 130816, Note_on_c, 2, 51, 96
4, 131072, Note_off_c, 2, 51, 0
4, 131072, Note_on_c, 2, 48, 96
4, 131584, Note_off_c, 2, 48, 0
4, 131584, Note_on_c, 2, 51, 96
4, 132096, Note_off_c, 2, 51, 0
4, 132096, Note_on_c, 2, 50, 96
4, 132608, Note_off_c, 2, 50, 0
4, 132608, Note_on_c, 2, 54, 96
4, 133120, Note_off_c, 2, 54, 0
4, 133120, Note_on_c, 2, 55, 96
4, 134656, Note_off_c, 2, 55, 0
4, 134656, Note_on_c, 2, 54, 96
4, 135168, Note_off_c, 2, 54, 0
4, 135168, Note_on_c, 2, 55, 96
4, 136960, Note_off_c, 2, 55, 0
4, 136960, Note_on_c, 2, 54, 96
4, 137216, Note_off_c, 2, 54, 0
4, 137216, Note_on_c, 2, 55, 96
4, 141312, Note_off_c, 2, 55, 0
4, 141312, End_track
5, 0, Start_track
5, 0, Title_t, "Instrument 4"
5, 0, Note_on_c, 3, 43, 96
5, 512, Note_off_c, 3, 43, 0
5, 512, Note_on_c, 3, 45, 96
5, 1024, Note_off_c, 3, 45, 0
5, 1024, Note_on_c, 3, 46, 96
5, 1536, Note_off_c, 3, 46, 0
5, 1536, Note_on_c, 3, 48, 96
5, 2048, Note_off_c, 3, 48, 0
5, 2048, Note_on_c, 3, 50, 96
5, 2560, Note_off_c, 3, 50, 0
5, 2560, Note_on_c, 3, 51, 96
5, 3072, Note_off_c, 3, 51, 0
5, 3072, Note_on_c, 3, 50, 96
5, 3584, Note_off_c, 3, 50, 0
5, 3584, Note_on_c, 3, 48, 96
5, 4096, Note_off_c, 3, 48, 0
5, 4096, Note_on_c, 3, 46, 96
5, 4608, Note_off_c, 3, 46, 0
5, 4608, Note_on_c, 3, 50, 96
5, 5120, Note_off_c, 3, 50, 0
5, 5120, Note_on_c, 3, 53, 96
5, 5632, Note_off_c, 3, 53, 0
5, 5632, Note_on_c, 3, 51, 96
5, 6144, Note_off_c, 3, 51, 0
5, 6144, Note_on_c, 3, 50, 96
5, 6656, Note_off_c, 3, 50, 0
5, 6656, Note_on_c, 3, 48, 96
5, 7168, Note_off_c, 3, 48, 0
5, 7168, Note_on_c, 3, 47, 96
5, 7680, Note_off_c, 3, 47, 0
5, 7680, Note_on_c, 3, 43, 96
5, 8192, Note_off_c, 3, 43, 0
5, 8192, Note_on_c, 3, 48, 96
5, 8704, Note_off_c, 3, 48, 0
5, 8704, Note_on_c, 3, 46, 96
5, 9216, Note_off_c, 3, 46, 0
5, 9216, Note_on_c, 3, 45, 96
5, 9728, Note_off_c, 3, 45, 0
5, 9728, Note_on_c, 3, 43, 96
5, 10240, Note_off_c, 3, 43, 0
5, 10240, Note_on_c, 3, 42, 96
5, 10752, Note_off_c, 3, 42, 0
5, 10752, Note_on_c, 3, 38, 96
5, 11264, Note_off_c, 3, 38, 0
5, 11264, Note_on_c, 3, 43, 96
5, 11776, Note_off_c, 3, 43, 0
5, 11776, Note_on_c, 3, 41, 96
5, 12288, Note_off_c, 3, 41, 0
5, 12288, Note_on_c, 3, 39, 96
5, 12800, Note_off_c, 3, 39, 0
5, 12800, Note_on_c, 3, 38, 96
5, 13312, Note_off_c, 3, 38, 0
5, 13312, Note_on_c, 3, 39, 96
5, 14336, Note_off_c, 3, 39, 0
5, 14336, Note_on_c, 3, 38, 96
5, 16896, Note_off_c, 3, 38, 0
5, 16896, Note_on_c, 3, 50, 96
5, 17408, Note_off_c, 3, 50, 0
5, 17408, Note_on_c, 3, 51, 96
5, 17920, Note_off_c, 3, 51, 0
5, 17920, Note_on_c, 3, 50, 96
5, 18432, Note_off_c, 3, 50, 0
5, 18432, Note_on_c, 3, 52, 96
5, 18944, Note_off_c, 3, 52, 0
5, 18944, Note_on_c, 3, 48, 96
5, 19456, Note_off_c, 3, 48, 0
5, 19456, Note_on_c, 3, 53, 96
5, 19968, Note_off_c, 3, 53, 0
5, 19968, Note_on_c, 3, 52, 96
5, 20480, Note_off_c, 3, 52, 0
5, 20480, Note_on_c, 3, 54, 96
5, 20992, Note_off_c, 3, 54, 0
5, 20992, Note_on_c, 3, 50, 96
5, 21504, Note_off_c, 3, 50, 0
5, 21504, Note_on_c, 3, 55, 96
5, 22016, Note_off_c, 3, 55, 0
5, 22016, Note_on_c, 3, 43, 96
5, 22528, Note_off_c, 3, 43, 0
5, 22528, Note_on_c, 3, 48, 96
5, 23040, Note_off_c, 3, 48, 0
5, 23040, Note_on_c, 3, 50, 96
5, 23552, Note_off_c, 3, 50, 0
5, 23552, Note_on_c, 3, 51, 96
5, 24064, Note_off_c, 3, 51, 0
5, 24064, Note_on_c, 3, 48, 96
5, 24576, Note_off_c, 3, 48, 0
5, 24576, Note_on_c, 3, 50, 96
5, 25088, Note_off_c, 3, 50, 0
5, 25088, Note_on_c, 3, 48, 96
5, 25600, Note_off_c, 3, 48, 0
5, 25600, Note_on_c, 3, 46, 96
5, 26112, Note_off_c, 3, 46, 0
5, 26112, Note_on_c, 3, 51, 96
5, 26624, Note_off_c, 3, 51, 0
5, 26624, Note_on_c, 3, 48, 96
5, 27136, Note_off_c, 3, 48, 0
5, 27136, Note_on_c, 3, 45, 96
5, 27648, Note_off_c, 3, 45, 0
5, 27648, Note_on_c, 3, 50, 96
5, 28160, Note_off_c, 3, 50, 0
5, 28160, Note_on_c, 3, 38, 96
5, 28672, Note_off_c, 3, 38, 0
5, 28672, Note_on_c, 3, 43, 96
5, 29184, Note_off_c, 3, 43, 0
5, 29184, Note_on_c, 3, 45, 96
5, 29696, Note_off_c, 3, 45, 0
5, 29696, Note_on_c, 3, 46, 96
5, 30208, Note_off_c, 3, 46, 0
5, 30208, Note_on_c, 3, 48, 96
5, 30720, Note_off_c, 3, 48, 0
5, 30720, Note_on_c, 3, 50, 96
5, 31232, Note_off_c, 3, 50, 0
5, 31232, Note_on_c, 3, 51, 96
5, 31744, Note_off_c, 3, 51, 0
5, 31744, Note_on_c, 3, 50, 96
5, 32256, Note_off_c, 3, 50, 0
5, 32256, Note_on_c, 3, 48, 96
5, 32768, Note_off_c, 3, 48, 0
5, 32768, Note_on_c, 3, 46, 96
5, 33280, Note_off_c, 3, 46, 0
5, 33280, Note_on_c, 3, 48, 96
5, 33792, Note_off_c, 3, 48, 0
5, 33792, Note_on_c, 3, 50, 96
5, 34304, Note_off_c, 3, 50, 0
5, 34304, Note_on_c, 3, 51, 96
5, 34816, Note_off_c, 3, 51, 0
5, 34816, Note_on_c, 3, 53, 96
5, 35328, Note_off_c, 3, 53, 0
5, 35328, Note_on_c, 3, 55, 96
5, 35840, Note_off_c, 3, 55, 0
5, 35840, Note_on_c, 3, 53, 96
5, 36352, Note_off_c, 3, 53, 0
5, 36352, Note_on_c, 3, 51, 96
5, 36864, Note_off_c, 3, 51, 0
5, 36864, Note_on_c, 3, 50, 96
5, 37376, Note_off_c, 3, 50, 0
5, 37376, Note_on_c, 3, 48, 96
5, 37888, Note_off_c, 3, 48, 0
5, 37888, Note_on_c, 3, 47, 96
5, 38400, Note_off_c, 3, 47, 0
5, 38400, Note_on_c, 3, 43, 96
5, 38912, Note_off_c, 3, 43, 0
5, 38912, Note_on_c, 3, 48, 96
5, 39424, Note_off_c, 3, 48, 0
5, 39424, Note_on_c, 3, 50, 96
5, 39936, Note_off_c, 3, 50, 0
5, 39936, Note_on_c, 3, 51, 96
5, 40448, Note_off_c, 3, 51, 0
5, 40448, Note_on_c, 3, 48, 96
5, 40960, Note_off_c, 3, 48, 0
5, 40960, Note_on_c, 3, 55, 96
5, 41472, Note_off_c, 3, 55, 0
5, 41472, Note_on_c, 3, 43, 96
5, 41984, Note_off_c, 3, 43, 0
5, 41984, Note_on_c, 3, 55, 96
5, 42496, Note_off_c, 3, 55, 0
5, 42496, Note_on_c, 3, 53, 96
5, 43008, Note_off_c, 3, 53, 0
5, 43008, Note_on_c, 3, 51, 96
5, 43520, Note_off_c, 3, 51, 0
5, 43520, Note_on_c, 3, 48, 96
5, 44032, Note_off_c, 3, 48, 0
5, 44032, Note_on_c, 3, 53, 96
5, 44544, Note_off_c, 3, 53, 0
5, 44544, Note_on_c, 3, 55, 96
5, 45056, Note_off_c, 3, 55, 0
5, 45056, Note_on_c, 3, 57, 96
5, 45568, Note_off_c, 3, 57, 0
5, 45568, Note_on_c, 3, 55, 96
5, 46080, Note_off_c, 3, 55, 0
5, 46080, Note_on_c, 3, 57, 96
5, 46592, Note_off_c, 3, 57, 0
5, 46592, Note_on_c, 3, 53, 96
5, 47104, Note_off_c, 3, 53, 0
5, 47104, Note_on_c, 3, 58, 96
5, 47616, Note_off_c, 3, 58, 0
5, 47616, Note_on_c, 3, 46, 96
5, 48128, Note_off_c, 3, 46, 0
5, 48128, Note_on_c, 3, 58, 96
5, 48640, Note_off_c, 3, 58, 0
5, 48640, Note_on_c, 3, 56, 96
5, 49152, Note_off_c, 3, 56, 0
5, 49152, Note_on_c, 3, 55, 96
5, 49664, Note_off_c, 3, 55, 0
5, 49664, Note_on_c, 3, 53, 96
5, 50176, Note_off_c, 3, 53, 0
5, 50176, Note_on_c, 3, 51, 96
5, 51712, Note_off_c, 3, 51, 0
5, 51712, Note_on_c, 3, 39, 96
5, 52224, Note_off_c, 3, 39, 0
5, 52224, Note_on_c, 3, 38, 96
5, 52736, Note_off_c, 3, 38, 0
5, 52736, Note_on_c, 3, 48, 96
5, 53248, Note_off_c, 3, 48, 0
5, 53248, Note_on_c, 3, 47, 96
5, 53760, Note_off_c, 3, 47, 0
5, 53760, Note_on_c, 3, 43, 96
5, 54272, Note_off_c, 3, 43, 0
5, 54272, Note_on_c, 3, 48, 96
5, 54784, Note_off_c, 3, 48, 0
5, 54784, Note_on_c, 3, 46, 96
5, 55296, Note_off_c, 3, 46, 0
5, 55296, Note_on_c, 3, 45, 96
5, 55808, Note_off_c, 3, 45, 0
5, 55808, Note_on_c, 3, 41, 96
5, 56320, Note_off_c, 3, 41, 0
5, 56320, Note_on_c, 3, 46, 96
5, 56832, Note_off_c, 3, 46, 0
5, 56832, Note_on_c, 3, 50, 96
5, 57344, Note_off_c, 3, 50, 0
5, 57344, Note_on_c, 3, 51, 96
5, 57856, Note_off_c, 3, 51, 0
5, 57856, Note_on_c, 3, 50, 96
5, 58368, Note_off_c, 3, 50, 0
5, 58368, Note_on_c, 3, 51, 96
5, 58880, Note_off_c, 3, 51, 0
5, 58880, Note_on_c, 3, 50, 96
5, 59392, Note_off_c, 3, 50, 0
5, 59392, Note_on_c, 3, 51, 96
5, 59904, Note_off_c, 3, 51, 0
5, 59904, Note_on_c, 3, 50, 96
5, 60416, Note_off_c, 3, 50, 0
5, 60416, Note_on_c, 3, 51, 96
5, 60928, Note_off_c, 3, 51, 0
5, 60928, Note_on_c, 3, 48, 96
5, 61440, Note_off_c, 3, 48, 0
5, 61440, Note_on_c, 3, 50, 96
5, 61952, Note_off_c, 3, 50, 0
5, 61952, Note_on_c, 3, 51, 96
5, 62464, Note_off_c, 3, 51, 0
5, 62464, Note_on_c, 3, 53, 96
5, 62976, Note_off_c, 3, 53, 0
5, 62976, Note_on_c, 3, 41, 96
5, 63488, Note_off_c, 3, 41, 0
5, 63488, Note_on_c, 3, 46, 96
5, 64000, Note_off_c, 3, 46, 0
5, 64000, Note_on_c, 3, 48, 96
5, 64512, Note_off_c, 3, 48, 0
5, 64512, Note_on_c, 3, 50, 96
5, 65024, Note_off_c, 3, 50, 0
5, 65024, Note_on_c, 3, 51, 96
5, 65536, Note_off_c, 3, 51, 0
5, 65536, Note_on_c, 3, 53, 96
5, 66048, Note_off_c, 3, 53, 0
5, 66048, Note_on_c, 3, 55, 96
5, 66560, Note_off_c, 3, 55, 0
5, 66560, Note_on_c, 3, 53, 96
5, 67072, Note_off_c, 3, 53, 0
5, 67072, Note_on_c, 3, 51, 96
5, 67584, Note_off_c, 3, 51, 0
5, 67584, Note_on_c, 3, 50, 96
5, 68096, Note_off_c, 3, 50, 0
5, 68096, Note_on_c, 3, 48, 96
5, 68608, Note_off_c, 3, 48, 0
5, 68608, Note_on_c, 3, 47, 96
5, 69120, Note_off_c, 3, 47, 0
5, 69120, Note_on_c, 3, 43, 96
5, 69632, Note_off_c, 3, 43, 0
5, 69632, Note_on_c, 3, 48, 96
5, 70144, Note_off_c, 3, 48, 0
5, 70144, Note_on_c, 3, 50, 96
5, 70656, Note_off_c, 3, 50, 0
5, 70656, Note_on_c, 3, 48, 96
5, 71168, Note_off_c, 3, 48, 0
5, 71168, Note_on_c, 3, 46, 96
5, 71680, Note_off_c, 3, 46, 0
5, 71680, Note_on_c, 3, 45, 96
5, 72192, Note_off_c, 3, 45, 0
5, 72192, Note_on_c, 3, 43, 96
5, 72704, Note_off_c, 3, 43, 0
5, 72704, Note_on_c, 3, 42, 96
5, 73216, Note_off_c, 3, 42, 0
5, 73216, Note_on_c, 3, 38, 96
5, 73728, Note_off_c, 3, 38, 0
5, 73728, Note_on_c, 3, 43, 96
5, 74240, Note_off_c, 3, 43, 0
5, 74240, Note_on_c, 3, 55, 96
5, 74752, Note_off_c, 3, 55, 0
5, 74752, Note_on_c, 3, 57, 96
5, 75264, Note_off_c, 3, 57, 0
5, 75264, Note_on_c, 3, 53, 96
5, 75776, Note_off_c, 3, 53, 0
5, 75776, Note_on_c, 3, 46, 96
5, 76288, Note_off_c, 3, 46, 0
5, 76288, Note_on_c, 3, 48, 96
5, 76800, Note_off_c, 3, 48, 0
5, 76800, Note_on_c, 3, 50, 96
5, 77312, Note_off_c, 3, 50, 0
5, 77312, Note_on_c, 3, 51, 96
5, 77824, Note_off_c, 3, 51, 0
5, 77824, Note_on_c, 3, 53, 96
5, 78336, Note_off_c, 3, 53, 0
5, 78336, Note_on_c, 3, 41, 96
5, 78848, Note_off_c, 3, 41, 0
5, 78848, Note_on_c, 3, 39, 96
5, 79360, Note_off_c, 3, 39, 0
5, 79360, Note_on_c, 3, 38, 96
5, 79872, Note_off_c, 3, 38, 0
5, 79872, Note_on_c, 3, 36, 96
5, 80384, Note_off_c, 3, 36, 0
5, 80384, Note_on_c, 3, 38, 96
5, 80896, Note_off_c, 3, 38, 0
5, 80896, Note_on_c, 3, 39, 96
5, 81408, Note_off_c, 3, 39, 0
5, 81408, Note_on_c, 3, 36, 96
5, 81920, Note_off_c, 3, 36, 0
5, 81920, Note_on_c, 3, 43, 96
5, 82432, Note_off_c, 3, 43, 0
5, 82432, Note_on_c, 3, 55, 96
5, 82944, Note_off_c, 3, 55, 0
5, 83456, Note_on_c, 3, 55, 96
5, 83968, Note_off_c, 3, 55, 0
5, 83968, Note_on_c, 3, 55, 96
5, 84480, Note_off_c, 3, 55, 0
5, 84480, Note_on_c, 3, 54, 96
5, 84992, Note_off_c, 3, 54, 0
5, 85504, Note_on_c, 3, 54, 96
5, 86016, Note_off_c, 3, 54, 0
5, 86016, Note_on_c, 3, 55, 96
5, 86528, Note_off_c, 3, 55, 0
5, 86528, Note_on_c, 3, 53, 96
5, 87040, Note_off_c, 3, 53, 0
5, 87040, Note_on_c, 3, 51, 96
5, 88576, Note_off_c, 3, 51, 0
5, 88576, Note_on_c, 3, 50, 96
5, 89088, Note_off_c, 3, 50, 0
5, 89088, Note_on_c, 3, 48, 96
5, 90624, Note_off_c, 3, 48, 0
5, 90624, Note_on_c, 3, 36, 96
5, 91136, Note_off_c, 3, 36, 0
5, 91136, Note_on_c, 3, 48, 96
5, 92672, Note_off_c, 3, 48, 0
5, 92672, Note_on_c, 3, 45, 96
5, 93184, Note_off_c, 3, 45, 0
5, 93184, Note_on_c, 3, 46, 96
5, 93696, Note_off_c, 3, 46, 0
5, 93696, Note_on_c, 3, 42, 96
5, 94208, Note_off_c, 3, 42, 0
5, 94208, Note_on_c, 3, 43, 96
5, 94720, Note_off_c, 3, 43, 0
5, 94720, Note_on_c, 3, 46, 96
5, 95232, Note_off_c, 3, 46, 0
5, 95232, Note_on_c, 3, 48, 96
5, 95744, Note_off_c, 3, 48, 0
5, 95744, Note_on_c, 3, 50, 96
5, 96256, Note_off_c, 3, 50, 0
5, 96256, Note_on_c, 3, 51, 96
5, 96768, Note_off_c, 3, 51, 0
5, 96768, Note_on_c, 3, 53, 96
5, 97280, Note_off_c, 3, 53, 0
5, 97280, Note_on_c, 3, 51, 96
5, 97792, Note_off_c, 3, 51, 0
5, 97792, Note_on_c, 3, 50, 96
5, 98304, Note_off_c, 3, 50, 0
5, 98304, Note_on_c, 3, 48, 96
5, 98816, Note_off_c, 3, 48, 0
5, 98816, Note_on_c, 3, 36, 96
5, 99328, Note_off_c, 3, 36, 0
5, 99840, Note_on_c, 3, 48, 96
5, 100352, Note_off_c, 3, 48, 0
5, 100352, Note_on_c, 3, 43, 96
5, 100864, Note_off_c, 3, 43, 0
5, 100864, Note_on_c, 3, 55, 96
5, 101376, Note_off_c, 3, 55, 0
5, 101376, Note_on_c, 3, 53, 96
5, 101888, Note_off_c, 3, 53, 0
5, 101888, Note_on_c, 3, 51, 96
5, 102400, Note_off_c, 3, 51, 0
5, 102400, Note_on_c, 3, 50, 96
5, 102912, Note_off_c, 3, 50, 0
5, 102912, Note_on_c, 3, 38, 96
5, 103424, Note_off_c, 3, 38, 0
5, 103424, Note_on_c, 3, 50, 96
5, 103936, Note_off_c, 3, 50, 0
5, 103936, Note_on_c, 3, 43, 96
5, 104448, Note_off_c, 3, 43, 0
5, 104448, Note_on_c, 3, 48, 96
5, 104960, Note_off_c, 3, 48, 0
5, 104960, Note_on_c, 3, 51, 96
5, 105472, Note_off_c, 3, 51, 0
5, 105472, Note_on_c, 3, 44, 96
5, 105984, Note_off_c, 3, 44, 0
5, 105984, Note_on_c, 3, 48, 96
5, 106496, Note_off_c, 3, 48, 0
5, 106496, Note_on_c, 3, 41, 96
5, 107008, Note_off_c, 3, 41, 0
5, 107008, Note_on_c, 3, 53, 96
5, 107520, Note_off_c, 3, 53, 0
5, 107520, Note_on_c, 3, 51, 96
5, 108032, Note_off_c, 3, 51, 0
5, 108032, Note_on_c, 3, 56, 96
5, 108544, Note_off_c, 3, 56, 0
5, 108544, Note_on_c, 3, 55, 96
5, 109056, Note_off_c, 3, 55, 0
5, 109056, Note_on_c, 3, 53, 96
5, 109568, Note_off_c, 3, 53, 0
5, 109568, Note_on_c, 3, 55, 96
5, 110080, Note_off_c, 3, 55, 0
5, 110080, Note_on_c, 3, 43, 96
5, 110592, Note_off_c, 3, 43, 0
5, 110592, Note_on_c, 3, 48, 96
5, 111104, Note_off_c, 3, 48, 0
5, 111104, Note_on_c, 3, 50, 96
5, 111616, Note_off_c, 3, 50, 0
5, 111616, Note_on_c, 3, 48, 96
5, 112128, Note_off_c, 3, 48, 0
5, 112128, Note_on_c, 3, 46, 96
5, 112640, Note_off_c, 3, 46, 0
5, 112640, Note_on_c, 3, 45, 96
5, 113152, Note_off_c, 3, 45, 0
5, 113152, Note_on_c, 3, 38, 96
5, 113664, Note_off_c, 3, 38, 0
5, 113664, Note_on_c, 3, 50, 96
5, 115200, Note_off_c, 3, 50, 0
5, 115200, Note_on_c, 3, 46, 96
5, 115712, Note_off_c, 3, 46, 0
5, 115712, Note_on_c, 3, 51, 96
5, 116224, Note_off_c, 3, 51, 0
5, 116224, Note_on_c, 3, 50, 96
5, 116736, Note_off_c, 3, 50, 0
5, 116736, Note_on_c, 3, 52, 96
5, 117248, Note_off_c, 3, 52, 0
5, 117248, Note_on_c, 3, 48, 96
5, 117760, Note_off_c, 3, 48, 0
5, 117760, Note_on_c, 3, 53, 96
5, 118272, Note_off_c, 3, 53, 0
5, 118272, Note_on_c, 3, 52, 96
5, 118784, Note_off_c, 3, 52, 0
5, 118784, Note_on_c, 3, 54, 96
5, 119296, Note_off_c, 3, 54, 0
5, 119296, Note_on_c, 3, 50, 96
5, 119808, Note_off_c, 3, 50, 0
5, 119808, Note_on_c, 3, 55, 96
5, 120320, Note_off_c, 3, 55, 0
5, 120320, Note_on_c, 3, 43, 96
5, 120832, Note_off_c, 3, 43, 0
5, 120832, Note_on_c, 3, 48, 96
5, 121344, Note_off_c, 3, 48, 0
5, 121344, Note_on_c, 3, 50, 96
5, 121856, Note_off_c, 3, 50, 0
5, 121856, Note_on_c, 3, 51, 96
5, 122368, Note_off_c, 3, 51, 0
5, 122368, Note_on_c, 3, 48, 96
5, 122880, Note_off_c, 3, 48, 0
5, 122880, Note_on_c, 3, 50, 96
5, 123392, Note_off_c, 3, 50, 0
5, 123392, Note_on_c, 3, 48, 96
5, 123904, Note_off_c, 3, 48, 0
5, 123904, Note_on_c, 3, 46, 96
5, 124416, Note_off_c, 3, 46, 0
5, 124416, Note_on_c, 3, 51, 96
5, 124928, Note_off_c, 3, 51, 0
5, 124928, Note_on_c, 3, 48, 96
5, 125440, Note_off_c, 3, 48, 0
5, 125440, Note_on_c, 3, 45, 96
5, 125952, Note_off_c, 3, 45, 0
5, 125952, Note_on_c, 3, 50, 96
5, 126464, Note_off_c, 3, 50, 0
5, 126464, Note_on_c, 3, 38, 96
5, 126976, Note_off_c, 3, 38, 0
5, 126976, Note_on_c, 3, 43, 96
5, 133632, Note_off_c, 3, 43, 0
5, 133632, Note_on_c, 3, 46, 96
5, 134144, Note_off_c, 3, 46, 0
5, 134144, Note_on_c, 3, 50, 96
5, 134656, Note_off_c, 3, 50, 0
5, 134656, Note_on_c, 3, 38, 96
5, 135168, Note_off_c, 3, 38, 0
5, 135168, Note_on_c, 3, 43, 96
5, 141312, Note_off_c, 3, 43, 0
5, 141312, End_track
0, 0, End_of_file
