0, 0, Header, 1, 9, 1024
1, 0, Start_track
1, 0, Time_signature, 4, 2, 24, 8
1, 0, Key_signature, -1, "major"
1, 0, Tempo, 857142
1, 24576, Time_signature, 3, 2, 24, 8
1, 129024, Time_signature, 4, 2, 24, 8
1, 157696, End_track
2, 0, Start_track
2, 0, Title_t, "Instrument 1"
2, 1024, Note_on_c, 0, 69, 96
2, 1536, Note_off_c, 0, 69, 0
2, 1536, Note_on_c, 0, 65, 96
2, 2048, Note_off_c, 0, 65, 0
2, 2048, Note_on_c, 0, 72, 96
2, 3072, Note_off_c, 0, 72, 0
2, 3072, Note_on_c, 0, 72, 96
2, 3584, Note_off_c, 0, 72, 0
2, 3584, Note_on_c, 0, 77, 96
2, 4096, Note_off_c, 0, 77, 0
2, 4096, Note_on_c, 0, 76, 96
2, 5120, Note_off_c, 0, 76, 0
2, 5120, Note_on_c, 0, 77, 96
2, 5632, Note_off_c, 0, 77, 0
2, 5632, Note_on_c, 0, 81, 96
2, 6144, Note_off_c, 0, 81, 0
2, 6144, Note_on_c, 0, 74, 96
2, 6656, Note_off_c, 0, 74, 0
2, 6656, Note_on_c, 0, 74, 96
2, 7168, Note_off_c, 0, 74, 0
2, 7168, Note_on_c, 0, 79, 96
2, 7424, Note_off_c, 0, 79, 0
2, 7424, Note_on_c, 0, 77, 96
2, 7680, Note_off_c, 0, 77, 0
2, 7680, Note_on_c, 0, 76, 96
2, 7936, Note_off_c, 0, 76, 0
2, 7936, Note_on_c, 0, 74, 96
2, 8192, Note_off_c, 0, 74, 0
2, 8192, Note_on_c, 0, 72, 96
2, 8704, Note_off_c, 0, 72, 0
2, 8704, Note_on_c, 0, 72, 96
2, 9216, Note_off_c, 0, 72, 0
2, 9216, Note_on_c, 0, 77, 96
2, 9728, Note_off_c, 0, 77, 0
2, 9728, Note_on_c, 0, 81, 96
2, 10240, Note_off_c, 0, 81, 0
2, 10240, Note_on_c, 0, 74, 96
2, 10752, Note_off_c, 0, 74, 0
2, 10752, Note_on_c, 0, 79, 96
2, 11264, Note_off_c, 0, 79, 0
2, 11264, Note_on_c, 0, 76, 96
2, 12032, Note_off_c, 0, 76, 0
2, 12032, Note_on_c, 0, 77, 96
2, 12288, Note_off_c, 0, 77, 0
2, 12288, Note_on_c, 0, 77, 96
2, 12800, Note_off_c, 0, 77, 0
2, 12800, Note_on_c, 0, 69, 96
2, 13312, Note_off_c, 0, 69, 0
2, 13312, Note_on_c, 0, 74, 96
2, 14848, Note_off_c, 0, 74, 0
2, 14848, Note_on_c, 0, 72, 96
2, 15104, Note_off_c, 0, 72, 0
2, 15104, Note_on_c, 0, 71, 96
2, 15360, Note_off_c, 0, 71, 0
2, 15360, Note_on_c, 0, 72, 96
2, 15872, Note_off_c, 0, 72, 0
2, 15872, Note_on_c, 0, 77, 96
2, 16384, Note_off_c, 0, 77, 0
2, 16384, Note_on_c, 0, 71, 96
2, 16896, Note_off_c, 0, 71, 0
2, 16896, Note_on_c, 0, 67, 96
2, 17408, Note_off_c, 0, 67, 0
2, 17408, Note_on_c, 0, 79, 96
2, 17920, Note_off_c, 0, 79, 0
2, 17920, Note_on_c, 0, 77, 96
2, 18176, Note_off_c, 0, 77, 0
2, 18176, Note_on_c, 0, 81, 96
2, 18432, Note_off_c, 0, 81, 0
2, 18432, Note_on_c, 0, 74, 96
2, 18944, Note_off_c, 0, 74, 0
2, 18944, Note_on_c, 0, 76, 96
2, 19200, Note_off_c, 0, 76, 0
2, 19200, Note_on_c, 0, 77, 96
2, 19456, Note_off_c, 0, 77, 0
2, 19456, Note_on_c, 0, 76, 96
2, 19968, Note_off_c, 0, 76, 0
2, 19968, Note_on_c, 0, 74, 96
2, 20224, Note_off_c, 0, 74, 0
2, 20224, Note_on_c, 0, 72, 96
2, 20480, Note_off_c, 0, 72, 0
2, 20480, Note_on_c, 0, 72, 96
2, 21504, Note_off_c, 0, 72, 0
2, 25600, Note_on_c, 0, 72, 96
2, 26624, Note_off_c, 0, 72, 0
2, 26624, Note_on_c, 0, 72, 96
2, 27648, Note_off_c, 0, 72, 0
2, 27648, Note_on_c, 0, 77, 96
2, 28160, Note_off_c, 0, 77, 0
2, 28160, Note_on_c, 0, 76, 96
2, 28672, Note_off_c, 0, 76, 0
2, 28672, Note_on_c, 0, 77, 96
2, 29696, Note_off_c, 0, 77, 0
2, 30720, Note_on_c, 0, 76, 96
2, 31232, Note_off_c, 0, 76, 0
2, 31232, Note_on_c, 0, 77, 96
2, 31744, Note_off_c, 0, 77, 0
2, 31744, Note_on_c, 0, 76, 96
2, 32256, Note_off_c, 0, 76, 0
2, 32256, Note_on_c, 0, 77, 96
2, 32768, Note_off_c, 0, 77, 0
2, 32768, Note_on_c, 0, 76, 96
2, 33280, Note_off_c, 0, 76, 0
2, 33280, Note_on_c, 0, 77, 96
2, 33792, Note_off_c, 0, 77, 0
2, 33792, Note_on_c, 0, 79, 96
2, 34816, Note_off_c, 0, 79, 0
2, 34816, Note_on_c, 0, 74, 96
2, 35328, Note_off_c, 0, 74, 0
2, 35328, Note_on_c, 0, 76, 96
2, 35840, Note_off_c, 0, 76, 0
2, 35840, Note_on_c, 0, 74, 96
2, 36352, Note_off_c, 0, 74, 0
2, 36352, Note_on_c, 0, 76, 96
2, 36864, Note_off_c, 0, 76, 0
2, 36864, Note_on_c, 0, 77, 96
2, 37376, Note_off_c, 0, 77, 0
2, 37376, Note_on_c, 0, 79, 96
2, 37888, Note_off_c, 0, 79, 0
2, 37888, Note_on_c, 0, 77, 96
2, 38400, Note_off_c, 0, 77, 0
2, 38400, Note_on_c, 0, 79, 96
2, 38912, Note_off_c, 0, 79, 0
2, 38912, Note_on_c, 0, 77, 96
2, 39424, Note_off_c, 0, 77, 0
2, 39424, Note_on_c, 0, 79, 96
2, 39936, Note_off_c, 0, 79, 0
2, 39936, Note_on_c, 0, 76, 96
2, 40960, Note_off_c, 0, 76, 0
2, 40960, Note_on_c, 0, 72, 96
2, 41984, Note_off_c, 0, 72, 0
2, 41984, Note_on_c, 0, 76, 96
2, 43008, Note_off_c, 0, 76, 0
2, 43008, Note_on_c, 0, 72, 96
2, 44032, Note_off_c, 0, 72, 0
2, 44032, Note_on_c, 0, 69, 96
2, 45056, Note_off_c, 0, 69, 0
2, 47104, Note_on_c, 0, 67, 96
2, 48128, Note_off_c, 0, 67, 0
2, 48128, Note_on_c, 0, 67, 96
2, 49152, Note_off_c, 0, 67, 0
2, 49152, Note_on_c, 0, 74, 96
2, 49664, Note_off_c, 0, 74, 0
2, 49664, Note_on_c, 0, 72, 96
2, 50176, Note_off_c, 0, 72, 0
2, 50176, Note_on_c, 0, 74, 96
2, 51200, Note_off_c, 0, 74, 0
2, 52224, Note_on_c, 0, 69, 96
2, 52736, Note_off_c, 0, 69, 0
2, 52736, Note_on_c, 0, 70, 96
2, 53248, Note_off_c, 0, 70, 0
2, 53248, Note_on_c, 0, 72, 96
2, 54272, Note_off_c, 0, 72, 0
2, 54272, Note_on_c, 0, 72, 96
2, 55296, Note_off_c, 0, 72, 0
2, 55296, Note_on_c, 0, 72, 96
2, 56320, Note_off_c, 0, 72, 0
2, 56320, Note_on_c, 0, 67, 96
2, 57344, Note_off_c, 0, 67, 0
2, 59392, Note_on_c, 0, 65, 96
2, 60416, Note_off_c, 0, 65, 0
2, 60416, Note_on_c, 0, 65, 96
2, 61440, Note_off_c, 0, 65, 0
2, 61440, Note_on_c, 0, 72, 96
2, 61952, Note_off_c, 0, 72, 0
2, 61952, Note_on_c, 0, 71, 96
2, 62464, Note_off_c, 0, 71, 0
2, 62464, Note_on_c, 0, 72, 96
2, 63488, Note_off_c, 0, 72, 0
2, 64512, Note_on_c, 0, 70, 96
2, 65024, Note_off_c, 0, 70, 0
2, 65024, Note_on_c, 0, 72, 96
2, 65536, Note_off_c, 0, 72, 0
2, 65536, Note_on_c, 0, 70, 96
2, 66048, Note_off_c, 0, 70, 0
2, 66048, Note_on_c, 0, 72, 96
2, 66560, Note_off_c, 0, 72, 0
2, 66560, Note_on_c, 0, 70, 96
2, 67072, Note_off_c, 0, 70, 0
2, 67072, Note_on_c, 0, 72, 96
2, 67584, Note_off_c, 0, 72, 0
2, 67584, Note_on_c, 0, 74, 96
2, 68608, Note_off_c, 0, 74, 0
2, 68608, Note_on_c, 0, 69, 96
2, 69120, Note_off_c, 0, 69, 0
2, 69120, Note_on_c, 0, 70, 96
2, 69632, Note_off_c, 0, 70, 0
2, 69632, Note_on_c, 0, 69, 96
2, 70144, Note_off_c, 0, 69, 0
2, 70144, Note_on_c, 0, 70, 96
2, 70656, Note_off_c, 0, 70, 0
2, 70656, Note_on_c, 0, 72, 96
2, 71680, Note_off_c, 0, 72, 0
2, 71680, Note_on_c, 0, 67, 96
2, 72192, Note_off_c, 0, 67, 0
2, 72192, Note_on_c, 0, 69, 96
2, 72704, Note_off_c, 0, 69, 0
2, 72704, Note_on_c, 0, 67, 96
2, 73216, Note_off_c, 0, 67, 0
2, 73216, Note_on_c, 0, 69, 96
2, 73728, Note_off_c, 0, 69, 0
2, 73728, Note_on_c, 0, 70, 96
2, 74752, Note_off_c, 0, 70, 0
2, 74752, Note_on_c, 0, 65, 96
2, 75264, Note_off_c, 0, 65, 0
2, 75264, Note_on_c, 0, 67, 96
2, 75776, Note_off_c, 0, 67, 0
2, 75776, Note_on_c, 0, 65, 96
2, 76288, Note_off_c, 0, 65, 0
2, 76288, Note_on_c, 0, 67, 96
2, 76800, Note_off_c, 0, 67, 0
2, 76800, Note_on_c, 0, 69, 96
2, 77824, Note_off_c, 0, 69, 0
2, 77824, Note_on_c, 0, 65, 96
2, 78848, Note_off_c, 0, 65, 0
2, 78848, Note_on_c, 0, 77, 96
2, 79872, Note_off_c, 0, 77, 0
2, 79872, Note_on_c, 0, 76, 96
2, 80896, Note_off_c, 0, 76, 0
2, 80896, Note_on_c, 0, 72, 96
2, 81920, Note_off_c, 0, 72, 0
2, 81920, Note_on_c, 0, 76, 96
2, 82944, Note_off_c, 0, 76, 0
2, 82944, Note_on_c, 0, 77, 96
2, 83968, Note_off_c, 0, 77, 0
2, 83968, Note_on_c, 0, 72, 96
2, 84992, Note_off_c, 0, 72, 0
2, 87040, Note_on_c, 0, 76, 96
2, 88064, Note_off_c, 0, 76, 0
2, 88064, Note_on_c, 0, 76, 96
2, 89088, Note_off_c, 0, 76, 0
2, 89088, Note_on_c, 0, 74, 96
2, 90112, Note_off_c, 0, 74, 0
2, 90112, Note_on_c, 0, 74, 96
2, 91136, Note_off_c, 0, 74, 0
2, 92160, Note_on_c, 0, 72, 96
2, 93184, Note_off_c, 0, 72, 0
2, 93184, Note_on_c, 0, 77, 96
2, 94208, Note_off_c, 0, 77, 0
2, 94208, Note_on_c, 0, 74, 96
2, 95232, Note_off_c, 0, 74, 0
2, 95232, Note_on_c, 0, 76, 96
2, 96256, Note_off_c, 0, 76, 0
2, 96256, Note_on_c, 0, 72, 96
2, 97280, Note_off_c, 0, 72, 0
2, 97280, Note_on_c, 0, 72, 96
2, 98304, Note_off_c, 0, 72, 0
2, 98304, Note_on_c, 0, 72, 96
2, 108544, Note_off_c, 0, 72, 0
2, 108544, Note_on_c, 0, 72, 96
2, 109568, Note_off_c, 0, 72, 0
2, 109568, Note_on_c, 0, 77, 96
2, 110592, Note_off_c, 0, 77, 0
2, 110592, Note_on_c, 0, 74, 96
2, 111616, Note_off_c, 0, 74, 0
2, 111616, Note_on_c, 0, 79, 96
2, 112640, Note_off_c, 0, 79, 0
2, 112640, Note_on_c, 0, 76, 96
2, 113664, Note_off_c, 0, 76, 0
2, 113664, Note_on_c, 0, 77, 96
2, 114688, Note_off_c, 0, 77, 0
2, 126976, Note_on_c, 0, 77, 96
2, 128000, Note_off_c, 0, 77, 0
2, 128000, Note_on_c, 0, 77, 96
2, 129024, Note_off_c, 0, 77, 0
2, 129024, Note_on_c, 0, 77, 96
2, 129536, Note_off_c, 0, 77, 0
2, 129536, Note_on_c, 0, 76, 96
2, 130048, Note_off_c, 0, 76, 0
2, 130048, Note_on_c, 0, 76, 96
2, 130560, Note_off_c, 0, 76, 0
2, 130560, Note_on_c, 0, 74, 96
2, 131072, Note_off_c, 0, 74, 0
2, 131072, Note_on_c, 0, 73, 96
2, 132096, Note_off_c, 0, 73, 0
2, 132096, Note_on_c, 0, 74, 96
2, 133120, Note_off_c, 0, 74, 0
2, 133120, Note_on_c, 0, 74, 96
2, 134656, Note_off_c, 0, 74, 0
2, 134656, Note_on_c, 0, 76, 96
2, 135168, Note_off_c, 0, 76, 0
2, 135168, Note_on_c, 0, 73, 96
2, 136192, Note_off_c, 0, 73, 0
2, 136192, Note_on_c, 0, 81, 96
2, 136704, Note_off_c, 0, 81, 0
2, 136704, Note_on_c, 0, 76, 96
2, 137216, Note_off_c, 0, 76, 0
2, 137216, Note_on_c, 0, 77, 96
2, 138240, Note_off_c, 0, 77, 0
2, 138240, Note_on_c, 0, 78, 96
2, 139264, Note_off_c, 0, 78, 0
2, 139264, Note_on_c, 0, 79, 96
2, 140288, Note_off_c, 0, 79, 0
2, 140288, Note_on_c, 0, 79, 96
2, 140800, Note_off_c, 0, 79, 0
2, 140800, Note_on_c, 0, 74, 96
2, 141312, Note_off_c, 0, 74, 0
2, 141312, Note_on_c, 0, 75, 96
2, 142336, Note_off_c, 0, 75, 0
2, 142336, Note_on_c, 0, 76, 96
2, 143360, Note_off_c, 0, 76, 0
2, 143360, Note_on_c, 0, 77, 96
2, 144384, Note_off_c, 0, 77, 0
2, 144384, Note_on_c, 0, 77, 96
2, 144896, Note_off_c, 0, 77, 0
2, 144896, Note_on_c, 0, 77, 96
2, 145408, Note_off_c, 0, 77, 0
2, 145408, Note_on_c, 0, 77, 96
2, 145920, Note_off_c, 0, 77, 0
2, 145920, Note_on_c, 0, 75, 96
2, 146432, Note_off_c, 0, 75, 0
2, 146432, Note_on_c, 0, 75, 96
2, 146944, Note_off_c, 0, 75, 0
2, 146944, Note_on_c, 0, 79, 96
2, 147456, Note_off_c, 0, 79, 0
2, 147456, Note_on_c, 0, 73, 96
2, 148480, Note_off_c, 0, 73, 0
2, 148480, Note_on_c, 0, 74, 96
2, 149504, Note_off_c, 0, 74, 0
2, 149504, Note_on_c, 0, 74, 96
2, 151040, Note_off_c, 0, 74, 0
2, 151040, Note_on_c, 0, 73, 96
2, 151552, Note_off_c, 0, 73, 0
2, 151552, Note_on_c, 0, 74, 96
2, 152576, Note_off_c, 0, 74, 0
2, 153600, Note_on_c, 0, 67, 96
2, 155136, Note_off_c, 0, 67, 0
2, 155136, Note_on_c, 0, 67, 96
2, 155648, Note_off_c, 0, 67, 0
2, 155648, Note_on_c, 0, 69, 96
2, 157696, Note_off_c, 0, 69, 0
2, 157696, End_track
3, 0, Start_track
3, 0, Title_t, "Instrument 2"
3, 3072, Note_on_c, 1, 72, 96
3, 3584, Note_off_c, 1, 72, 0
3, 3584, Note_on_c, 1, 69, 96
3, 4096, Note_off_c, 1, 69, 0
3, 4096, Note_on_c, 1, 67, 96
3, 5120, Note_off_c, 1, 67, 0
3, 5120, Note_on_c, 1, 69, 96
3, 5632, Note_off_c, 1, 69, 0
3, 5632, Note_on_c, 1, 72, 96
3, 6144, Note_off_c, 1, 72, 0
3, 6144, Note_on_c, 1, 65, 96
3, 6656, Note_off_c, 1, 65, 0
3, 6656, Note_on_c, 1, 65, 96
3, 7168, Note_off_c, 1, 65, 0
3, 7168, Note_on_c, 1, 70, 96
3, 7424, Note_off_c, 1, 70, 0
3, 7424, Note_on_c, 1, 69, 96
3, 7680, Note_off_c, 1, 69, 0
3, 7680, Note_on_c, 1, 67, 96
3, 7936, Note_off_c, 1, 67, 0
3, 7936, Note_on_c, 1, 65, 96
3, 8192, Note_off_c, 1, 65, 0
3, 8192, Note_on_c, 1, 64, 96
3, 8704, Note_off_c, 1, 64, 0
3, 8704, Note_on_c, 1, 64, 96
3, 9216, Note_off_c, 1, 64, 0
3, 9216, Note_on_c, 1, 65, 96
3, 9728, Note_off_c, 1, 65, 0
3, 9728, Note_on_c, 1, 65, 96
3, 10240, Note_off_c, 1, 65, 0
3, 10240, Note_on_c, 1, 65, 96
3, 10752, Note_off_c, 1, 65, 0
3, 10752, Note_on_c, 1, 70, 96
3, 11264, Note_off_c, 1, 70, 0
3, 11264, Note_on_c, 1, 67, 96
3, 12032, Note_off_c, 1, 67, 0
3, 12032, Note_on_c, 1, 69, 96
3, 12288, Note_off_c, 1, 69, 0
3, 12288, Note_on_c, 1, 69, 96
3, 13312, Note_off_c, 1, 69, 0
3, 13824, Note_on_c, 1, 65, 96
3, 14080, Note_off_c, 1, 65, 0
3, 14080, Note_on_c, 1, 67, 96
3, 14336, Note_off_c, 1, 67, 0
3, 14336, Note_on_c, 1, 69, 96
3, 15872, Note_off_c, 1, 69, 0
3, 15872, Note_on_c, 1, 62, 96
3, 16384, Note_off_c, 1, 62, 0
3, 16384, Note_on_c, 1, 67, 96
3, 16896, Note_off_c, 1, 67, 0
3, 16896, Note_on_c, 1, 62, 96
3, 17408, Note_off_c, 1, 62, 0
3, 17408, Note_on_c, 1, 67, 96
3, 17920, Note_off_c, 1, 67, 0
3, 17920, Note_on_c, 1, 69, 96
3, 18432, Note_off_c, 1, 69, 0
3, 18432, Note_on_c, 1, 67, 96
3, 18944, Note_off_c, 1, 67, 0
3, 18944, Note_on_c, 1, 67, 96
3, 19456, Note_off_c, 1, 67, 0
3, 19456, Note_on_c, 1, 67, 96
3, 19968, Note_off_c, 1, 67, 0
3, 19968, Note_on_c, 1, 67, 96
3, 20480, Note_off_c, 1, 67, 0
3, 20480, Note_on_c, 1, 64, 96
3, 21504, Note_off_c, 1, 64, 0
3, 28672, Note_on_c, 1, 65, 96
3, 29696, Note_off_c, 1, 65, 0
3, 29696, Note_on_c, 1, 65, 96
3, 30720, Note_off_c, 1, 65, 0
3, 30720, Note_on_c, 1, 72, 96
3, 31232, Note_off_c, 1, 72, 0
3, 31232, Note_on_c, 1, 71, 96
3, 31744, Note_off_c, 1, 71, 0
3, 31744, Note_on_c, 1, 72, 96
3, 32768, Note_off_c, 1, 72, 0
3, 33792, Note_on_c, 1, 70, 96
3, 34304, Note_off_c, 1, 70, 0
3, 34304, Note_on_c, 1, 72, 96
3, 34816, Note_off_c, 1, 72, 0
3, 34816, Note_on_c, 1, 70, 96
3, 35328, Note_off_c, 1, 70, 0
3, 35328, Note_on_c, 1, 72, 96
3, 35840, Note_off_c, 1, 72, 0
3, 35840, Note_on_c, 1, 70, 96
3, 36352, Note_off_c, 1, 70, 0
3, 36352, Note_on_c, 1, 72, 96
3, 36864, Note_off_c, 1, 72, 0
3, 36864, Note_on_c, 1, 74, 96
3, 37888, Note_off_c, 1, 74, 0
3, 37888, Note_on_c, 1, 69, 96
3, 38400, Note_off_c, 1, 69, 0
3, 38400, Note_on_c, 1, 70, 96
3, 38912, Note_off_c, 1, 70, 0
3, 38912, Note_on_c, 1, 69, 96
3, 39424, Note_off_c, 1, 69, 0
3, 39424, Note_on_c, 1, 70, 96
3, 39936, Note_off_c, 1, 70, 0
3, 39936, Note_on_c, 1, 72, 96
3, 40448, Note_off_c, 1, 72, 0
3, 40448, Note_on_c, 1, 74, 96
3, 40960, Note_off_c, 1, 74, 0
3, 40960, Note_on_c, 1, 72, 96
3, 41472, Note_off_c, 1, 72, 0
3, 41472, Note_on_c, 1, 74, 96
3, 41984, Note_off_c, 1, 74, 0
3, 41984, Note_on_c, 1, 70, 96
3, 42496, Note_off_c, 1, 70, 0
3, 42496, Note_on_c, 1, 72, 96
3, 43008, Note_off_c, 1, 72, 0
3, 43008, Note_on_c, 1, 69, 96
3, 44032, Note_off_c, 1, 69, 0
3, 44032, Note_on_c, 1, 65, 96
3, 45056, Note_off_c, 1, 65, 0
3, 45056, Note_on_c, 1, 69, 96
3, 46080, Note_off_c, 1, 69, 0
3, 46080, Note_on_c, 1, 67, 96
3, 47104, Note_off_c, 1, 67, 0
3, 47104, Note_on_c, 1, 64, 96
3, 48128, Note_off_c, 1, 64, 0
3, 51200, Note_on_c, 1, 70, 96
3, 52224, Note_off_c, 1, 70, 0
3, 52224, Note_on_c, 1, 69, 96
3, 53248, Note_off_c, 1, 69, 0
3, 53248, Note_on_c, 1, 65, 96
3, 54272, Note_off_c, 1, 65, 0
3, 54272, Note_on_c, 1, 69, 96
3, 55296, Note_off_c, 1, 69, 0
3, 55296, Note_on_c, 1, 67, 96
3, 56320, Note_off_c, 1, 67, 0
3, 56320, Note_on_c, 1, 64, 96
3, 57344, Note_off_c, 1, 64, 0
3, 57344, Note_on_c, 1, 67, 96
3, 58368, Note_off_c, 1, 67, 0
3, 58368, Note_on_c, 1, 72, 96
3, 59392, Note_off_c, 1, 72, 0
3, 59392, Note_on_c, 1, 69, 96
3, 60416, Note_off_c, 1, 69, 0
3, 62464, Note_on_c, 1, 60, 96
3, 63488, Note_off_c, 1, 60, 0
3, 63488, Note_on_c, 1, 60, 96
3, 64512, Note_off_c, 1, 60, 0
3, 64512, Note_on_c, 1, 67, 96
3, 65024, Note_off_c, 1, 67, 0
3, 65024, Note_on_c, 1, 65, 96
3, 65536, Note_off_c, 1, 65, 0
3, 65536, Note_on_c, 1, 67, 96
3, 66560, Note_off_c, 1, 67, 0
3, 67584, Note_on_c, 1, 65, 96
3, 68096, Note_off_c, 1, 65, 0
3, 68096, Note_on_c, 1, 67, 96
3, 68608, Note_off_c, 1, 67, 0
3, 68608, Note_on_c, 1, 65, 96
3, 69120, Note_off_c, 1, 65, 0
3, 69120, Note_on_c, 1, 67, 96
3, 69632, Note_off_c, 1, 67, 0
3, 69632, Note_on_c, 1, 65, 96
3, 70144, Note_off_c, 1, 65, 0
3, 70144, Note_on_c, 1, 67, 96
3, 70656, Note_off_c, 1, 67, 0
3, 70656, Note_on_c, 1, 69, 96
3, 71680, Note_off_c, 1, 69, 0
3, 71680, Note_on_c, 1, 64, 96
3, 72192, Note_off_c, 1, 64, 0
3, 72192, Note_on_c, 1, 65, 96
3, 72704, Note_off_c, 1, 65, 0
3, 72704, Note_on_c, 1, 64, 96
3, 73216, Note_off_c, 1, 64, 0
3, 73216, Note_on_c, 1, 65, 96
3, 73728, Note_off_c, 1, 65, 0
3, 73728, Note_on_c, 1, 67, 96
3, 74752, Note_off_c, 1, 67, 0
3, 74752, Note_on_c, 1, 62, 96
3, 75264, Note_off_c, 1, 62, 0
3, 75264, Note_on_c, 1, 64, 96
3, 75776, Note_off_c, 1, 64, 0
3, 75776, Note_on_c, 1, 62, 96
3, 76288, Note_off_c, 1, 62, 0
3, 76288, Note_on_c, 1, 64, 96
3, 76800, Note_off_c, 1, 64, 0
3, 76800, Note_on_c, 1, 65, 96
3, 77312, Note_off_c, 1, 65, 0
3, 77312, Note_on_c, 1, 64, 96
3, 77824, Note_off_c, 1, 64, 0
3, 77824, Note_on_c, 1, 65, 96
3, 78336, Note_off_c, 1, 65, 0
3, 78336, Note_on_c, 1, 67, 96
3, 78848, Note_off_c, 1, 67, 0
3, 78848, Note_on_c, 1, 69, 96
3, 79872, Note_off_c, 1, 69, 0
3, 79872, Note_on_c, 1, 67, 96
3, 80896, Note_off_c, 1, 67, 0
3, 80896, Note_on_c, 1, 64, 96
3, 81920, Note_off_c, 1, 64, 0
3, 81920, Note_on_c, 1, 72, 96
3, 82944, Note_off_c, 1, 72, 0
3, 82944, Note_on_c, 1, 72, 96
3, 83968, Note_off_c, 1, 72, 0
3, 83968, Note_on_c, 1, 69, 96
3, 84992, Note_off_c, 1, 69, 0
3, 87040, Note_on_c, 1, 67, 96
3, 88064, Note_off_c, 1, 67, 0
3, 88064, Note_on_c, 1, 67, 96
3, 89088, Note_off_c, 1, 67, 0
3, 89088, Note_on_c, 1, 67, 96
3, 90112, Note_off_c, 1, 67, 0
3, 90112, Note_on_c, 1, 65, 96
3, 91136, Note_off_c, 1, 65, 0
3, 92160, Note_on_c, 1, 65, 96
3, 93184, Note_off_c, 1, 65, 0
3, 93184, Note_on_c, 1, 65, 96
3, 94208, Note_off_c, 1, 65, 0
3, 94208, Note_on_c, 1, 67, 96
3, 95232, Note_off_c, 1, 67, 0
3, 95232, Note_on_c, 1, 67, 96
3, 96256, Note_off_c, 1, 67, 0
3, 96256, Note_on_c, 1, 64, 96
3, 97280, Note_off_c, 1, 64, 0
3, 109568, Note_on_c, 1, 69, 96
3, 110592, Note_off_c, 1, 69, 0
3, 110592, Note_on_c, 1, 65, 96
3, 111616, Note_off_c, 1, 65, 0
3, 111616, Note_on_c, 1, 70, 96
3, 112640, Note_off_c, 1, 70, 0
3, 112640, Note_on_c, 1, 67, 96
3, 113664, Note_off_c, 1, 67, 0
3, 113664, Note_on_c, 1, 69, 96
3, 114688, Note_off_c, 1, 69, 0
3, 126976, Note_on_c, 1, 69, 96
3, 128000, Note_off_c, 1, 69, 0
3, 128000, Note_on_c, 1, 69, 96
3, 129024, Note_off_c, 1, 69, 0
3, 129024, Note_on_c, 1, 71, 96
3, 130048, Note_off_c, 1, 71, 0
3, 130048, Note_on_c, 1, 70, 96
3, 131072, Note_off_c, 1, 70, 0
3, 131072, Note_on_c, 1, 69, 96
3, 132096, Note_off_c, 1, 69, 0
3, 132096, Note_on_c, 1, 69, 96
3, 133120, Note_off_c, 1, 69, 0
3, 133120, Note_on_c, 1, 69, 96
3, 134144, Note_off_c, 1, 69, 0
3, 134144, Note_on_c, 1, 67, 96
3, 135168, Note_off_c, 1, 67, 0
3, 135168, Note_on_c, 1, 69, 96
3, 136192, Note_off_c, 1, 69, 0
3, 138240, Note_on_c, 1, 69, 96
3, 138752, Note_off_c, 1, 69, 0
3, 138752, Note_on_c, 1, 69, 96
3, 139264, Note_off_c, 1, 69, 0
3, 139264, Note_on_c, 1, 67, 96
3, 140288, Note_off_c, 1, 67, 0
3, 140288, Note_on_c, 1, 67, 96
3, 141312, Note_off_c, 1, 67, 0
3, 141312, Note_on_c, 1, 67, 96
3, 142336, Note_off_c, 1, 67, 0
3, 142336, Note_on_c, 1, 67, 96
3, 142848, Note_off_c, 1, 67, 0
3, 142848, Note_on_c, 1, 70, 96
3, 143360, Note_off_c, 1, 70, 0
3, 143360, Note_on_c, 1, 69, 96
3, 144384, Note_off_c, 1, 69, 0
3, 144384, Note_on_c, 1, 69, 96
3, 144896, Note_off_c, 1, 69, 0
3, 144896, Note_on_c, 1, 72, 96
3, 145408, Note_off_c, 1, 72, 0
3, 145408, Note_on_c, 1, 70, 96
3, 146432, Note_off_c, 1, 70, 0
3, 146432, Note_on_c, 1, 70, 96
3, 146944, Note_off_c, 1, 70, 0
3, 146944, Note_on_c, 1, 70, 96
3, 147456, Note_off_c, 1, 70, 0
3, 147456, Note_on_c, 1, 69, 96
3, 148480, Note_off_c, 1, 69, 0
3, 148480, Note_on_c, 1, 69, 96
3, 148992, Note_off_c, 1, 69, 0
3, 148992, Note_on_c, 1, 67, 96
3, 149504, Note_off_c, 1, 67, 0
3, 149504, Note_on_c, 1, 69, 96
3, 151040, Note_off_c, 1, 69, 0
3, 151040, Note_on_c, 1, 69, 96
3, 151552, Note_off_c, 1, 69, 0
3, 151552, Note_on_c, 1, 69, 96
3, 152576, Note_off_c, 1, 69, 0
3, 153600, Note_on_c, 1, 70, 96
3, 155136, Note_off_c, 1, 70, 0
3, 155136, Note_on_c, 1, 70, 96
3, 155648, Note_off_c, 1, 70, 0
3, 155648, Note_on_c, 1, 64, 96
3, 157696, Note_off_c, 1, 64, 0
3, 157696, End_track
4, 0, Start_track
4, 0, Title_t, "Instrument 3"
4, 3072, Note_on_c, 2, 65, 96
4, 3584, Note_off_c, 2, 65, 0
4, 3584, Note_on_c, 2, 60, 96
4, 4096, Note_off_c, 2, 60, 0
4, 4096, Note_on_c, 2, 60, 96
4, 5120, Note_off_c, 2, 60, 0
4, 5120, Note_on_c, 2, 60, 96
4, 5632, Note_off_c, 2, 60, 0
4, 5632, Note_on_c, 2, 57, 96
4, 6144, Note_off_c, 2, 57, 0
4, 6144, Note_on_c, 2, 62, 96
4, 6400, Note_off_c, 2, 62, 0
4, 6400, Note_on_c, 2, 60, 96
4, 6656, Note_off_c, 2, 60, 0
4, 6656, Note_on_c, 2, 58, 96
4, 6912, Note_off_c, 2, 58, 0
4, 6912, Note_on_c, 2, 57, 96
4, 7168, Note_off_c, 2, 57, 0
4, 7168, Note_on_c, 2, 55, 96
4, 7680, Note_off_c, 2, 55, 0
4, 7680, Note_on_c, 2, 62, 96
4, 8192, Note_off_c, 2, 62, 0
4, 8192, Note_on_c, 2, 67, 96
4, 8448, Note_off_c, 2, 67, 0
4, 8448, Note_on_c, 2, 65, 96
4, 8704, Note_off_c, 2, 65, 0
4, 8704, Note_on_c, 2, 64, 96
4, 8960, Note_off_c, 2, 64, 0
4, 8960, Note_on_c, 2, 62, 96
4, 9216, Note_off_c, 2, 62, 0
4, 9216, Note_on_c, 2, 60, 96
4, 9728, Note_off_c, 2, 60, 0
4, 9728, Note_on_c, 2, 58, 96
4, 9984, Note_off_c, 2, 58, 0
4, 9984, Note_on_c, 2, 57, 96
4, 10240, Note_off_c, 2, 57, 0
4, 10240, Note_on_c, 2, 62, 96
4, 10752, Note_off_c, 2, 62, 0
4, 10752, Note_on_c, 2, 58, 96
4, 11264, Note_off_c, 2, 58, 0
4, 11264, Note_on_c, 2, 60, 96
4, 12032, Note_off_c, 2, 60, 0
4, 12032, Note_on_c, 2, 60, 96
4, 12288, Note_off_c, 2, 60, 0
4, 12288, Note_on_c, 2, 60, 96
4, 12800, Note_off_c, 2, 60, 0
4, 12800, Note_on_c, 2, 60, 96
4, 13312, Note_off_c, 2, 60, 0
4, 13312, Note_on_c, 2, 65, 96
4, 14848, Note_off_c, 2, 65, 0
4, 14848, Note_on_c, 2, 64, 96
4, 15104, Note_off_c, 2, 64, 0
4, 15104, Note_on_c, 2, 62, 96
4, 15360, Note_off_c, 2, 62, 0
4, 15360, Note_on_c, 2, 64, 96
4, 15872, Note_off_c, 2, 64, 0
4, 15872, Note_on_c, 2, 69, 96
4, 16384, Note_off_c, 2, 69, 0
4, 16384, Note_on_c, 2, 62, 96
4, 16896, Note_off_c, 2, 62, 0
4, 16896, Note_on_c, 2, 59, 96
4, 17408, Note_off_c, 2, 59, 0
4, 17408, Note_on_c, 2, 64, 96
4, 17920, Note_off_c, 2, 64, 0
4, 17920, Note_on_c, 2, 62, 96
4, 18176, Note_off_c, 2, 62, 0
4, 18176, Note_on_c, 2, 60, 96
4, 18432, Note_off_c, 2, 60, 0
4, 18432, Note_on_c, 2, 59, 96
4, 18944, Note_off_c, 2, 59, 0
4, 18944, Note_on_c, 2, 60, 96
4, 19200, Note_off_c, 2, 60, 0
4, 19200, Note_on_c, 2, 62, 96
4, 19456, Note_off_c, 2, 62, 0
4, 19456, Note_on_c, 2, 60, 96
4, 19968, Note_off_c, 2, 60, 0
4, 19968, Note_on_c, 2, 59, 96
4, 20224, Note_off_c, 2, 59, 0
4, 20224, Note_on_c, 2, 60, 96
4, 20480, Note_off_c, 2, 60, 0
4, 20480, Note_on_c, 2, 60, 96
4, 21504, Note_off_c, 2, 60, 0
4, 40960, Note_on_c, 2, 60, 96
4, 41984, Note_off_c, 2, 60, 0
4, 41984, Note_on_c, 2, 60, 96
4, 43008, Note_off_c, 2, 60, 0
4, 43008, Note_on_c, 2, 65, 96
4, 43520, Note_off_c, 2, 65, 0
4, 43520, Note_on_c, 2, 64, 96
4, 44032, Note_off_c, 2, 64, 0
4, 44032, Note_on_c, 2, 65, 96
4, 45056, Note_off_c, 2, 65, 0
4, 46080, Note_on_c, 2, 64, 96
4, 46592, Note_off_c, 2, 64, 0
4, 46592, Note_on_c, 2, 65, 96
4, 47104, Note_off_c, 2, 65, 0
4, 47104, Note_on_c, 2, 64, 96
4, 47616, Note_off_c, 2, 64, 0
4, 47616, Note_on_c, 2, 65, 96
4, 48128, Note_off_c, 2, 65, 0
4, 48128, Note_on_c, 2, 64, 96
4, 48640, Note_off_c, 2, 64, 0
4, 48640, Note_on_c, 2, 65, 96
4, 49152, Note_off_c, 2, 65, 0
4, 49152, Note_on_c, 2, 67, 96
4, 50176, Note_off_c, 2, 67, 0
4, 50176, Note_on_c, 2, 62, 96
4, 50688, Note_off_c, 2, 62, 0
4, 50688, Note_on_c, 2, 64, 96
4, 51200, Note_off_c, 2, 64, 0
4, 51200, Note_on_c, 2, 62, 96
4, 51712, Note_off_c, 2, 62, 0
4, 51712, Note_on_c, 2, 64, 96
4, 52224, Note_off_c, 2, 64, 0
4, 52224, Note_on_c, 2, 65, 96
4, 52736, Note_off_c, 2, 65, 0
4, 52736, Note_on_c, 2, 67, 96
4, 53248, Note_off_c, 2, 67, 0
4, 53248, Note_on_c, 2, 65, 96
4, 53760, Note_off_c, 2, 65, 0
4, 53760, Note_on_c, 2, 67, 96
4, 54272, Note_off_c, 2, 67, 0
4, 54272, Note_on_c, 2, 65, 96
4, 54784, Note_off_c, 2, 65, 0
4, 54784, Note_on_c, 2, 67, 96
4, 55296, Note_off_c, 2, 67, 0
4, 55296, Note_on_c, 2, 64, 96
4, 56320, Note_off_c, 2, 64, 0
4, 56320, Note_on_c, 2, 60, 96
4, 57344, Note_off_c, 2, 60, 0
4, 57344, Note_on_c, 2, 64, 96
4, 58368, Note_off_c, 2, 64, 0
4, 58368, Note_on_c, 2, 65, 96
4, 59392, Note_off_c, 2, 65, 0
4, 59392, Note_on_c, 2, 60, 96
4, 60416, Note_off_c, 2, 60, 0
4, 61440, Note_on_c, 2, 60, 96
4, 61952, Note_off_c, 2, 60, 0
4, 61952, Note_on_c, 2, 62, 96
4, 62464, Note_off_c, 2, 62, 0
4, 62464, Note_on_c, 2, 60, 96
4, 62976, Note_off_c, 2, 60, 0
4, 62976, Note_on_c, 2, 62, 96
4, 63488, Note_off_c, 2, 62, 0
4, 63488, Note_on_c, 2, 64, 96
4, 64000, Note_off_c, 2, 64, 0
4, 64000, Note_on_c, 2, 60, 96
4, 64512, Note_off_c, 2, 60, 0
4, 64512, Note_on_c, 2, 62, 96
4, 65024, Note_off_c, 2, 62, 0
4, 65024, Note_on_c, 2, 60, 96
4, 65536, Note_off_c, 2, 60, 0
4, 65536, Note_on_c, 2, 62, 96
4, 66560, Note_off_c, 2, 62, 0
4, 66560, Note_on_c, 2, 58, 96
4, 67584, Note_off_c, 2, 58, 0
4, 67584, Note_on_c, 2, 57, 96
4, 68608, Note_off_c, 2, 57, 0
4, 68608, Note_on_c, 2, 53, 96
4, 69632, Note_off_c, 2, 53, 0
4, 69632, Note_on_c, 2, 62, 96
4, 70144, Note_off_c, 2, 62, 0
4, 70144, Note_on_c, 2, 62, 96
4, 70656, Note_off_c, 2, 62, 0
4, 70656, Note_on_c, 2, 57, 96
4, 71168, Note_off_c, 2, 57, 0
4, 71168, Note_on_c, 2, 58, 96
4, 71680, Note_off_c, 2, 58, 0
4, 71680, Note_on_c, 2, 60, 96
4, 72704, Note_off_c, 2, 60, 0
4, 72704, Note_on_c, 2, 60, 96
4, 73728, Note_off_c, 2, 60, 0
4, 73728, Note_on_c, 2, 55, 96
4, 74240, Note_off_c, 2, 55, 0
4, 74240, Note_on_c, 2, 57, 96
4, 74752, Note_off_c, 2, 57, 0
4, 74752, Note_on_c, 2, 58, 96
4, 75776, Note_off_c, 2, 58, 0
4, 75776, Note_on_c, 2, 58, 96
4, 76800, Note_off_c, 2, 58, 0
4, 76800, Note_on_c, 2, 57, 96
4, 77312, Note_off_c, 2, 57, 0
4, 77312, Note_on_c, 2, 58, 96
4, 77824, Note_off_c, 2, 58, 0
4, 77824, Note_on_c, 2, 57, 96
4, 78336, Note_off_c, 2, 57, 0
4, 78336, Note_on_c, 2, 58, 96
4, 78848, Note_off_c, 2, 58, 0
4, 78848, Note_on_c, 2, 57, 96
4, 79360, Note_off_c, 2, 57, 0
4, 79360, Note_on_c, 2, 58, 96
4, 79872, Note_off_c, 2, 58, 0
4, 79872, Note_on_c, 2, 60, 96
4, 80896, Note_off_c, 2, 60, 0
4, 80896, Note_on_c, 2, 55, 96
4, 81920, Note_off_c, 2, 55, 0
4, 81920, Note_on_c, 2, 60, 96
4, 82944, Note_off_c, 2, 60, 0
4, 82944, Note_on_c, 2, 57, 96
4, 83968, Note_off_c, 2, 57, 0
4, 83968, Note_on_c, 2, 53, 96
4, 84992, Note_off_c, 2, 53, 0
4, 87040, Note_on_c, 2, 60, 96
4, 88064, Note_off_c, 2, 60, 0
4, 88064, Note_on_c, 2, 60, 96
4, 89088, Note_off_c, 2, 60, 0
4, 89088, Note_on_c, 2, 55, 96
4, 90112, Note_off_c, 2, 55, 0
4, 90112, Note_on_c, 2, 58, 96
4, 91136, Note_off_c, 2, 58, 0
4, 92160, Note_on_c, 2, 60, 96
4, 93184, Note_off_c, 2, 60, 0
4, 93184, Note_on_c, 2, 62, 96
4, 94208, Note_off_c, 2, 62, 0
4, 94208, Note_on_c, 2, 62, 96
4, 95232, Note_off_c, 2, 62, 0
4, 95232, Note_on_c, 2, 60, 96
4, 96256, Note_off_c, 2, 60, 0
4, 96256, Note_on_c, 2, 60, 96
4, 97280, Note_off_c, 2, 60, 0
4, 109568, Note_on_c, 2, 60, 96
4, 110592, Note_off_c, 2, 60, 0
4, 110592, Note_on_c, 2, 58, 96
4, 111616, Note_off_c, 2, 58, 0
4, 111616, Note_on_c, 2, 62, 96
4, 112640, Note_off_c, 2, 62, 0
4, 112640, Note_on_c, 2, 60, 96
4, 113664, Note_off_c, 2, 60, 0
4, 113664, Note_on_c, 2, 60, 96
4, 114688, Note_off_c, 2, 60, 0
4, 126976, Note_on_c, 2, 60, 96
4, 128000, Note_off_c, 2, 60, 0
4, 128000, Note_on_c, 2, 62, 96
4, 129024, Note_off_c, 2, 62, 0
4, 129024, Note_on_c, 2, 62, 96
4, 129536, Note_off_c, 2, 62, 0
4, 129536, Note_on_c, 2, 64, 96
4, 130048, Note_off_c, 2, 64, 0
4, 130048, Note_on_c, 2, 64, 96
4, 130560, Note_off_c, 2, 64, 0
4, 130560, Note_on_c, 2, 65, 96
4, 131072, Note_off_c, 2, 65, 0
4, 131072, Note_on_c, 2, 64, 96
4, 132096, Note_off_c, 2, 64, 0
4, 132096, Note_on_c, 2, 65, 96
4, 133120, Note_off_c, 2, 65, 0
4, 133120, Note_on_c, 2, 65, 96
4, 134144, Note_off_c, 2, 65, 0
4, 134144, Note_on_c, 2, 64, 96
4, 134656, Note_off_c, 2, 64, 0
4, 134656, Note_on_c, 2, 62, 96
4, 135168, Note_off_c, 2, 62, 0
4, 135168, Note_on_c, 2, 64, 96
4, 136192, Note_off_c, 2, 64, 0
4, 138240, Note_on_c, 2, 62, 96
4, 138752, Note_off_c, 2, 62, 0
4, 138752, Note_on_c, 2, 60, 96
4, 139264, Note_off_c, 2, 60, 0
4, 139264, Note_on_c, 2, 62, 96
4, 140288, Note_off_c, 2, 62, 0
4, 140288, Note_on_c, 2, 62, 96
4, 141312, Note_off_c, 2, 62, 0
4, 141312, Note_on_c, 2, 60, 96
4, 142336, Note_off_c, 2, 60, 0
4, 142336, Note_on_c, 2, 60, 96
4, 142848, Note_off_c, 2, 60, 0
4, 142848, Note_on_c, 2, 58, 96
4, 143360, Note_off_c, 2, 58, 0
4, 143360, Note_on_c, 2, 60, 96
4, 143872, Note_off_c, 2, 60, 0
4, 143872, Note_on_c, 2, 61, 96
4, 144000, Note_off_c, 2, 61, 0
4, 144000, Note_on_c, 2, 59, 96
4, 144128, Note_off_c, 2, 59, 0
4, 144128, Note_on_c, 2, 61, 96
4, 144384, Note_off_c, 2, 61, 0
4, 144384, Note_on_c, 2, 62, 96
4, 145408, Note_off_c, 2, 62, 0
4, 145408, Note_on_c, 2, 62, 96
4, 146432, Note_off_c, 2, 62, 0
4, 146432, Note_on_c, 2, 67, 96
4, 146944, Note_off_c, 2, 67, 0
4, 146944, Note_on_c, 2, 65, 96
4, 147456, Note_off_c, 2, 65, 0
4, 147456, Note_on_c, 2, 64, 96
4, 148480, Note_off_c, 2, 64, 0
4, 148480, Note_on_c, 2, 65, 96
4, 148992, Note_off_c, 2, 65, 0
4, 148992, Note_on_c, 2, 67, 96
4, 149504, Note_off_c, 2, 67, 0
4, 149504, Note_on_c, 2, 64, 96
4, 151040, Note_off_c, 2, 64, 0
4, 151040, Note_on_c, 2, 65, 96
4, 151552, Note_off_c, 2, 65, 0
4, 151552, Note_on_c, 2, 65, 96
4, 152576, Note_off_c, 2, 65, 0
4, 153600, Note_on_c, 2, 50, 96
4, 155136, Note_off_c, 2, 50, 0
4, 155136, Note_on_c, 2, 50, 96
4, 155648, Note_off_c, 2, 50, 0
4, 155648, Note_on_c, 2, 57, 96
4, 157696, Note_off_c, 2, 57, 0
4, 157696, End_track
5, 0, Start_track
5, 0, Title_t, "Instrument 4"
5, 3072, Note_on_c, 3, 57, 96
5, 3584, Note_off_c, 3, 57, 0
5, 3584, Note_on_c, 3, 53, 96
5, 4096, Note_off_c, 3, 53, 0
5, 4096, Note_on_c, 3, 60, 96
5, 5120, Note_off_c, 3, 60, 0
5, 5120, Note_on_c, 3, 57, 96
5, 5632, Note_off_c, 3, 57, 0
5, 5632, Note_on_c, 3, 53, 96
5, 6144, Note_off_c, 3, 53, 0
5, 6144, Note_on_c, 3, 58, 96
5, 6656, Note_off_c, 3, 58, 0
5, 6656, Note_on_c, 3, 58, 96
5, 7168, Note_off_c, 3, 58, 0
5, 7168, Note_on_c, 3, 58, 96
5, 8704, Note_off_c, 3, 58, 0
5, 8704, Note_on_c, 3, 60, 96
5, 8960, Note_off_c, 3, 60, 0
5, 8960, Note_on_c, 3, 58, 96
5, 9216, Note_off_c, 3, 58, 0
5, 9216, Note_on_c, 3, 57, 96
5, 9728, Note_off_c, 3, 57, 0
5, 9728, Note_on_c, 3, 55, 96
5, 9984, Note_off_c, 3, 55, 0
5, 9984, Note_on_c, 3, 53, 96
5, 10240, Note_off_c, 3, 53, 0
5, 10240, Note_on_c, 3, 58, 96
5, 10752, Note_off_c, 3, 58, 0
5, 10752, Note_on_c, 3, 57, 96
5, 11008, Note_off_c, 3, 57, 0
5, 11008, Note_on_c, 3, 55, 96
5, 11264, Note_off_c, 3, 55, 0
5, 11264, Note_on_c, 3, 60, 96
5, 11776, Note_off_c, 3, 60, 0
5, 11776, Note_on_c, 3, 48, 96
5, 12288, Note_off_c, 3, 48, 0
5, 12288, Note_on_c, 3, 53, 96
5, 13312, Note_off_c, 3, 53, 0
5, 13824, Note_on_c, 3, 50, 96
5, 14336, Note_off_c, 3, 50, 0
5, 14336, Note_on_c, 3, 57, 96
5, 15872, Note_off_c, 3, 57, 0
5, 15872, Note_on_c, 3, 55, 96
5, 16128, Note_off_c, 3, 55, 0
5, 16128, Note_on_c, 3, 53, 96
5, 16384, Note_off_c, 3, 53, 0
5, 16384, Note_on_c, 3, 55, 96
5, 16896, Note_off_c, 3, 55, 0
5, 16896, Note_on_c, 3, 55, 96
5, 17152, Note_off_c, 3, 55, 0
5, 17152, Note_on_c, 3, 53, 96
5, 17408, Note_off_c, 3, 53, 0
5, 17408, Note_on_c, 3, 52, 96
5, 17920, Note_off_c, 3, 52, 0
5, 17920, Note_on_c, 3, 53, 96
5, 18432, Note_off_c, 3, 53, 0
5, 18432, Note_on_c, 3, 55, 96
5, 18944, Note_off_c, 3, 55, 0
5, 18944, Note_on_c, 3, 48, 96
5, 19456, Note_off_c, 3, 48, 0
5, 19456, Note_on_c, 3, 55, 96
5, 19968, Note_off_c, 3, 55, 0
5, 19968, Note_on_c, 3, 43, 96
5, 20480, Note_off_c, 3, 43, 0
5, 20480, Note_on_c, 3, 48, 96
5, 21504, Note_off_c, 3, 48, 0
5, 44032, Note_on_c, 3, 53, 96
5, 45056, Note_off_c, 3, 53, 0
5, 45056, Note_on_c, 3, 53, 96
5, 46080, Note_off_c, 3, 53, 0
5, 46080, Note_on_c, 3, 60, 96
5, 46592, Note_off_c, 3, 60, 0
5, 46592, Note_on_c, 3, 59, 96
5, 47104, Note_off_c, 3, 59, 0
5, 47104, Note_on_c, 3, 60, 96
5, 48128, Note_off_c, 3, 60, 0
5, 49152, Note_on_c, 3, 58, 96
5, 49664, Note_off_c, 3, 58, 0
5, 49664, Note_on_c, 3, 60, 96
5, 50176, Note_off_c, 3, 60, 0
5, 50176, Note_on_c, 3, 58, 96
5, 50688, Note_off_c, 3, 58, 0
5, 50688, Note_on_c, 3, 60, 96
5, 51200, Note_off_c, 3, 60, 0
5, 51200, Note_on_c, 3, 58, 96
5, 51712, Note_off_c, 3, 58, 0
5, 51712, Note_on_c, 3, 60, 96
5, 52224, Note_off_c, 3, 60, 0
5, 52224, Note_on_c, 3, 62, 96
5, 53248, Note_off_c, 3, 62, 0
5, 53248, Note_on_c, 3, 57, 96
5, 53760, Note_off_c, 3, 57, 0
5, 53760, Note_on_c, 3, 58, 96
5, 54272, Note_off_c, 3, 58, 0
5, 54272, Note_on_c, 3, 57, 96
5, 54784, Note_off_c, 3, 57, 0
5, 54784, Note_on_c, 3, 58, 96
5, 55296, Note_off_c, 3, 58, 0
5, 55296, Note_on_c, 3, 60, 96
5, 55808, Note_off_c, 3, 60, 0
5, 55808, Note_on_c, 3, 62, 96
5, 56320, Note_off_c, 3, 62, 0
5, 56320, Note_on_c, 3, 60, 96
5, 56832, Note_off_c, 3, 60, 0
5, 56832, Note_on_c, 3, 62, 96
5, 57344, Note_off_c, 3, 62, 0
5, 57344, Note_on_c, 3, 58, 96
5, 57856, Note_off_c, 3, 58, 0
5, 57856, Note_on_c, 3, 60, 96
5, 58368, Note_off_c, 3, 60, 0
5, 58368, Note_on_c, 3, 57, 96
5, 59392, Note_off_c, 3, 57, 0
5, 59392, Note_on_c, 3, 53, 96
5, 60416, Note_off_c, 3, 53, 0
5, 60416, Note_on_c, 3, 57, 96
5, 61440, Note_off_c, 3, 57, 0
5, 61440, Note_on_c, 3, 60, 96
5, 62464, Note_off_c, 3, 60, 0
5, 62464, Note_on_c, 3, 48, 96
5, 63488, Note_off_c, 3, 48, 0
5, 66560, Note_on_c, 3, 55, 96
5, 67584, Note_off_c, 3, 55, 0
5, 67584, Note_on_c, 3, 50, 96
5, 68608, Note_off_c, 3, 50, 0
5, 68608, Note_on_c, 3, 38, 96
5, 69632, Note_off_c, 3, 38, 0
5, 80896, Note_on_c, 3, 48, 96
5, 81920, Note_off_c, 3, 48, 0
5, 81920, Note_on_c, 3, 48, 96
5, 82944, Note_off_c, 3, 48, 0
5, 82944, Note_on_c, 3, 53, 96
5, 83456, Note_off_c, 3, 53, 0
5, 83456, Note_on_c, 3, 52, 96
5, 83968, Note_off_c, 3, 52, 0
5, 83968, Note_on_c, 3, 53, 96
5, 84992, Note_off_c, 3, 53, 0
5, 86016, Note_on_c, 3, 52, 96
5, 86528, Note_off_c, 3, 52, 0
5, 86528, Note_on_c, 3, 53, 96
5, 87040, Note_off_c, 3, 53, 0
5, 87040, Note_on_c, 3, 52, 96
5, 87552, Note_off_c, 3, 52, 0
5, 87552, Note_on_c, 3, 53, 96
5, 88064, Note_off_c, 3, 53, 0
5, 88064, Note_on_c, 3, 52, 96
5, 88576, Note_off_c, 3, 52, 0
5, 88576, Note_on_c, 3, 53, 96
5, 89088, Note_off_c, 3, 53, 0
5, 89088, Note_on_c, 3, 55, 96
5, 90112, Note_off_c, 3, 55, 0
5, 90112, Note_on_c, 3, 50, 96
5, 90624, Note_off_c, 3, 50, 0
5, 90624, Note_on_c, 3, 52, 96
5, 91136, Note_off_c, 3, 52, 0
5, 91136, Note_on_c, 3, 50, 96
5, 91648, Note_off_c, 3, 50, 0
5, 91648, Note_on_c, 3, 52, 96
5, 92160, Note_off_c, 3, 52, 0
5, 92160, Note_on_c, 3, 53, 96
5, 93184, Note_off_c, 3, 53, 0
5, 93184, Note_on_c, 3, 50, 96
5, 94208, Note_off_c, 3, 50, 0
5, 94208, Note_on_c, 3, 55, 96
5, 95232, Note_off_c, 3, 55, 0
5, 95232, Note_on_c, 3, 48, 96
5, 96256, Note_off_c, 3, 48, 0
5, 96256, Note_on_c, 3, 48, 96
5, 97280, Note_off_c, 3, 48, 0
5, 109568, Note_on_c, 3, 57, 96
5, 110592, Note_off_c, 3, 57, 0
5, 110592, Note_on_c, 3, 58, 96
5, 111616, Note_off_c, 3, 58, 0
5, 111616, Note_on_c, 3, 55, 96
5, 112640, Note_off_c, 3, 55, 0
5, 112640, Note_on_c, 3, 60, 96
5, 113664, Note_off_c, 3, 60, 0
5, 113664, Note_on_c, 3, 53, 96
5, 114688, Note_off_c, 3, 53, 0
5, 126976, Note_on_c, 3, 53, 96
5, 128000, Note_off_c, 3, 53, 0
5, 128000, Note_on_c, 3, 50, 96
5, 129024, Note_off_c, 3, 50, 0
5, 129024, Note_on_c, 3, 44, 96
5, 130048, Note_off_c, 3, 44, 0
5, 130048, Note_on_c, 3, 43, 96
5, 131072, Note_off_c, 3, 43, 0
5, 131072, Note_on_c, 3, 43, 96
5, 132096, Note_off_c, 3, 43, 0
5, 132096, Note_on_c, 3, 41, 96
5, 133120, Note_off_c, 3, 41, 0
5, 133120, Note_on_c, 3, 46, 96
5, 134656, Note_off_c, 3, 46, 0
5, 134656, Note_on_c, 3, 46, 96
5, 135168, Note_off_c, 3, 46, 0
5, 135168, Note_on_c, 3, 45, 96
5, 136192, Note_off_c, 3, 45, 0
5, 138240, Note_on_c, 3, 62, 96
5, 138752, Note_off_c, 3, 62, 0
5, 138752, Note_on_c, 3, 57, 96
5, 139264, Note_off_c, 3, 57, 0
5, 139264, Note_on_c, 3, 58, 96
5, 140288, Note_off_c, 3, 58, 0
5, 140288, Note_on_c, 3, 59, 96
5, 141312, Note_off_c, 3, 59, 0
5, 141312, Note_on_c, 3, 60, 96
5, 142336, Note_off_c, 3, 60, 0
5, 142336, Note_on_c, 3, 60, 96
5, 142848, Note_off_c, 3, 60, 0
5, 142848, Note_on_c, 3, 55, 96
5, 143360, Note_off_c, 3, 55, 0
5, 143360, Note_on_c, 3, 57, 96
5, 143872, Note_off_c, 3, 57, 0
5, 143872, Note_on_c, 3, 52, 96
5, 144384, Note_off_c, 3, 52, 0
5, 144384, Note_on_c, 3, 53, 96
5, 144640, Note_off_c, 3, 53, 0
5, 144640, Note_on_c, 3, 49, 96
5, 144896, Note_off_c, 3, 49, 0
5, 144896, Note_on_c, 3, 50, 96
5, 145408, Note_off_c, 3, 50, 0
5, 145408, Note_on_c, 3, 55, 96
5, 146432, Note_off_c, 3, 55, 0
5, 146432, Note_on_c, 3, 55, 96
5, 146944, Note_off_c, 3, 55, 0
5, 146944, Note_on_c, 3, 55, 96
5, 147456, Note_off_c, 3, 55, 0
5, 147456, Note_on_c, 3, 55, 96
5, 148480, Note_off_c, 3, 55, 0
5, 148480, Note_on_c, 3, 53, 96
5, 148992, Note_off_c, 3, 53, 0
5, 148992, Note_on_c, 3, 58, 96
5, 149504, Note_off_c, 3, 58, 0
5, 149504, Note_on_c, 3, 57, 96
5, 150528, Note_off_c, 3, 57, 0
5, 150528, Note_on_c, 3, 45, 96
5, 151552, Note_off_c, 3, 45, 0
5, 151552, Note_on_c, 3, 50, 96
5, 152576, Note_off_c, 3, 50, 0
5, 153600, Note_on_c, 3, 46, 96
5, 155136, Note_off_c, 3, 46, 0
5, 155136, Note_on_c, 3, 46, 96
5, 155648, Note_off_c, 3, 46, 0
5, 155648, Note_on_c, 3, 45, 96
5, 157696, Note_off_c, 3, 45, 0
5, 157696, End_track
6, 0, Start_track
6, 0, Title_t, "Instrument 5"
6, 0, Note_on_c, 4, 53, 96
6, 1024, Note_off_c, 4, 53, 0
6, 3072, Note_on_c, 4, 57, 96
6, 3584, Note_off_c, 4, 57, 0
6, 3584, Note_on_c, 4, 53, 96
6, 4096, Note_off_c, 4, 53, 0
6, 4096, Note_on_c, 4, 60, 96
6, 5120, Note_off_c, 4, 60, 0
6, 5120, Note_on_c, 4, 57, 96
6, 5632, Note_off_c, 4, 57, 0
6, 5632, Note_on_c, 4, 53, 96
6, 6144, Note_off_c, 4, 53, 0
6, 6144, Note_on_c, 4, 58, 96
6, 6656, Note_off_c, 4, 58, 0
6, 6656, Note_on_c, 4, 58, 96
6, 7168, Note_off_c, 4, 58, 0
6, 7168, Note_on_c, 4, 58, 96
6, 8704, Note_off_c, 4, 58, 0
6, 8704, Note_on_c, 4, 60, 96
6, 8960, Note_off_c, 4, 60, 0
6, 8960, Note_on_c, 4, 58, 96
6, 9216, Note_off_c, 4, 58, 0
6, 9216, Note_on_c, 4, 57, 96
6, 9728, Note_off_c, 4, 57, 0
6, 9728, Note_on_c, 4, 55, 96
6, 9984, Note_off_c, 4, 55, 0
6, 9984, Note_on_c, 4, 53, 96
6, 10240, Note_off_c, 4, 53, 0
6, 10240, Note_on_c, 4, 58, 96
6, 10752, Note_off_c, 4, 58, 0
6, 10752, Note_on_c, 4, 57, 96
6, 11008, Note_off_c, 4, 57, 0
6, 11008, Note_on_c, 4, 55, 96
6, 11264, Note_off_c, 4, 55, 0
6, 11264, Note_on_c, 4, 60, 96
6, 11776, Note_off_c, 4, 60, 0
6, 11776, Note_on_c, 4, 48, 96
6, 12288, Note_off_c, 4, 48, 0
6, 12288, Note_on_c, 4, 53, 96
6, 13312, Note_off_c, 4, 53, 0
6, 13824, Note_on_c, 4, 50, 96
6, 14336, Note_off_c, 4, 50, 0
6, 14336, Note_on_c, 4, 57, 96
6, 15872, Note_off_c, 4, 57, 0
6, 15872, Note_on_c, 4, 55, 96
6, 16128, Note_off_c, 4, 55, 0
6, 16128, Note_on_c, 4, 53, 96
6, 16384, Note_off_c, 4, 53, 0
6, 16384, Note_on_c, 4, 55, 96
6, 16896, Note_off_c, 4, 55, 0
6, 16896, Note_on_c, 4, 55, 96
6, 17152, Note_off_c, 4, 55, 0
6, 17152, Note_on_c, 4, 53, 96
6, 17408, Note_off_c, 4, 53, 0
6, 17408, Note_on_c, 4, 52, 96
6, 17920, Note_off_c, 4, 52, 0
6, 17920, Note_on_c, 4, 53, 96
6, 18432, Note_off_c, 4, 53, 0
6, 18432, Note_on_c, 4, 55, 96
6, 18944, Note_off_c, 4, 55, 0
6, 18944, Note_on_c, 4, 48, 96
6, 19456, Note_off_c, 4, 48, 0
6, 19456, Note_on_c, 4, 55, 96
6, 19968, Note_off_c, 4, 55, 0
6, 19968, Note_on_c, 4, 43, 96
6, 20480, Note_off_c, 4, 43, 0
6, 20480, Note_on_c, 4, 48, 96
6, 21504, Note_off_c, 4, 48, 0
6, 21504, Note_on_c, 4, 60, 96
6, 22016, Note_off_c, 4, 60, 0
6, 22016, Note_on_c, 4, 53, 96
6, 22528, Note_off_c, 4, 53, 0
6, 22528, Note_on_c, 4, 55, 96
6, 23040, Note_off_c, 4, 55, 0
6, 23040, Note_on_c, 4, 48, 96
6, 23552, Note_off_c, 4, 48, 0
6, 23552, Note_on_c, 4, 55, 96
6, 24064, Note_off_c, 4, 55, 0
6, 24064, Note_on_c, 4, 43, 96
6, 24576, Note_off_c, 4, 43, 0
6, 24576, Note_on_c, 4, 48, 96
6, 25600, Note_off_c, 4, 48, 0
6, 25600, Note_on_c, 4, 72, 96
6, 26624, Note_off_c, 4, 72, 0
6, 26624, Note_on_c, 4, 72, 96
6, 27648, Note_off_c, 4, 72, 0
6, 27648, Note_on_c, 4, 77, 96
6, 28160, Note_off_c, 4, 77, 0
6, 28160, Note_on_c, 4, 76, 96
6, 28672, Note_off_c, 4, 76, 0
6, 28672, Note_on_c, 4, 65, 96
6, 28672, Note_on_c, 4, 77, 96
6, 29696, Note_off_c, 4, 65, 0
6, 29696, Note_off_c, 4, 77, 0
6, 29696, Note_on_c, 4, 65, 96
6, 30720, Note_off_c, 4, 65, 0
6, 30720, Note_on_c, 4, 72, 96
6, 30720, Note_on_c, 4, 76, 96
6, 31232, Note_off_c, 4, 72, 0
6, 31232, Note_off_c, 4, 76, 0
6, 31232, Note_on_c, 4, 71, 96
6, 31232, Note_on_c, 4, 77, 96
6, 31744, Note_off_c, 4, 71, 0
6, 31744, Note_off_c, 4, 77, 0
6, 31744, Note_on_c, 4, 72, 96
6, 31744, Note_on_c, 4, 76, 96
6, 32256, Note_off_c, 4, 76, 0
6, 32256, Note_on_c, 4, 77, 96
6, 32768, Note_off_c, 4, 72, 0
6, 32768, Note_off_c, 4, 77, 0
6, 32768, Note_on_c, 4, 76, 96
6, 33280, Note_off_c, 4, 76, 0
6, 33280, Note_on_c, 4, 77, 96
6, 33792, Note_off_c, 4, 77, 0
6, 33792, Note_on_c, 4, 70, 96
6, 33792, Note_on_c, 4, 79, 96
6, 34304, Note_off_c, 4, 70, 0
6, 34304, Note_on_c, 4, 72, 96
6, 34816, Note_off_c, 4, 72, 0
6, 34816, Note_off_c, 4, 79, 0
6, 34816, Note_on_c, 4, 70, 96
6, 34816, Note_on_c, 4, 74, 96
6, 35328, Note_off_c, 4, 70, 0
6, 35328, Note_off_c, 4, 74, 0
6, 35328, Note_on_c, 4, 72, 96
6, 35328, Note_on_c, 4, 76, 96
6, 35840, Note_off_c, 4, 72, 0
6, 35840, Note_off_c, 4, 76, 0
6, 35840, Note_on_c, 4, 70, 96
6, 35840, Note_on_c, 4, 74, 96
6, 36352, Note_off_c, 4, 70, 0
6, 36352, Note_off_c, 4, 74, 0
6, 36352, Note_on_c, 4, 72, 96
6, 36352, Note_on_c, 4, 76, 96
6, 36864, Note_off_c, 4, 72, 0
6, 36864, Note_off_c, 4, 76, 0
6, 36864, Note_on_c, 4, 74, 96
6, 36864, Note_on_c, 4, 77, 96
6, 37376, Note_off_c, 4, 77, 0
6, 37376, Note_on_c, 4, 79, 96
6, 37888, Note_off_c, 4, 74, 0
6, 37888, Note_off_c, 4, 79, 0
6, 37888, Note_on_c, 4, 69, 96
6, 37888, Note_on_c, 4, 77, 96
6, 38400, Note_off_c, 4, 69, 0
6, 38400, Note_off_c, 4, 77, 0
6, 38400, Note_on_c, 4, 70, 96
6, 38400, Note_on_c, 4, 79, 96
6, 38912, Note_off_c, 4, 70, 0
6, 38912, Note_off_c, 4, 79, 0
6, 38912, Note_on_c, 4, 69, 96
6, 38912, Note_on_c, 4, 77, 96
6, 39424, Note_off_c, 4, 69, 0
6, 39424, Note_off_c, 4, 77, 0
6, 39424, Note_on_c, 4, 70, 96
6, 39424, Note_on_c, 4, 79, 96
6, 39936, Note_off_c, 4, 70, 0
6, 39936, Note_off_c, 4, 79, 0
6, 39936, Note_on_c, 4, 72, 96
6, 39936, Note_on_c, 4, 76, 96
6, 40960, Note_off_c, 4, 72, 0
6, 40960, Note_off_c, 4, 76, 0
6, 40960, Note_on_c, 4, 60, 96
6, 41984, Note_off_c, 4, 60, 0
6, 41984, Note_on_c, 4, 60, 96
6, 43008, Note_off_c, 4, 60, 0
6, 43008, Note_on_c, 4, 65, 96
6, 43520, Note_off_c, 4, 65, 0
6, 43520, Note_on_c, 4, 64, 96
6, 44032, Note_off_c, 4, 64, 0
6, 44032, Note_on_c, 4, 53, 96
6, 44032, Note_on_c, 4, 65, 96
6, 45056, Note_off_c, 4, 53, 0
6, 45056, Note_off_c, 4, 65, 0
6, 45056, Note_on_c, 4, 53, 96
6, 46080, Note_off_c, 4, 53, 0
6, 46080, Note_on_c, 4, 60, 96
6, 46592, Note_off_c, 4, 60, 0
6, 46592, Note_on_c, 4, 59, 96
6, 47104, Note_off_c, 4, 59, 0
6, 47104, Note_on_c, 4, 60, 96
6, 48128, Note_off_c, 4, 60, 0
6, 49152, Note_on_c, 4, 58, 96
6, 49664, Note_off_c, 4, 58, 0
6, 49664, Note_on_c, 4, 60, 96
6, 50176, Note_off_c, 4, 60, 0
6, 50176, Note_on_c, 4, 58, 96
6, 50688, Note_off_c, 4, 58, 0
6, 50688, Note_on_c, 4, 60, 96
6, 51200, Note_off_c, 4, 60, 0
6, 51200, Note_on_c, 4, 58, 96
6, 51712, Note_off_c, 4, 58, 0
6, 51712, Note_on_c, 4, 60, 96
6, 52224, Note_off_c, 4, 60, 0
6, 52224, Note_on_c, 4, 62, 96
6, 53248, Note_off_c, 4, 62, 0
6, 53248, Note_on_c, 4, 57, 96
6, 53760, Note_off_c, 4, 57, 0
6, 53760, Note_on_c, 4, 58, 96
6, 54272, Note_off_c, 4, 58, 0
6, 54272, Note_on_c, 4, 57, 96
6, 54784, Note_off_c, 4, 57, 0
6, 54784, Note_on_c, 4, 58, 96
6, 55296, Note_off_c, 4, 58, 0
6, 55296, Note_on_c, 4, 60, 96
6, 55808, Note_off_c, 4, 60, 0
6, 55808, Note_on_c, 4, 62, 96
6, 56320, Note_off_c, 4, 62, 0
6, 56320, Note_on_c, 4, 60, 96
6, 56832, Note_off_c, 4, 60, 0
6, 56832, Note_on_c, 4, 62, 96
6, 57344, Note_off_c, 4, 62, 0
6, 57344, Note_on_c, 4, 58, 96
6, 57856, Note_off_c, 4, 58, 0
6, 57856, Note_on_c, 4, 60, 96
6, 58368, Note_off_c, 4, 60, 0
6, 58368, Note_on_c, 4, 57, 96
6, 59392, Note_off_c, 4, 57, 0
6, 59392, Note_on_c, 4, 53, 96
6, 60416, Note_off_c, 4, 53, 0
6, 60416, Note_on_c, 4, 57, 96
6, 61440, Note_off_c, 4, 57, 0
6, 61440, Note_on_c, 4, 60, 96
6, 62464, Note_off_c, 4, 60, 0
6, 62464, Note_on_c, 4, 48, 96
6, 63488, Note_off_c, 4, 48, 0
6, 63488, Note_on_c, 4, 60, 96
6, 64512, Note_off_c, 4, 60, 0
6, 64512, Note_on_c, 4, 55, 96
6, 65536, Note_off_c, 4, 55, 0
6, 65536, Note_on_c, 4, 43, 96
6, 66560, Note_off_c, 4, 43, 0
6, 66560, Note_on_c, 4, 55, 96
6, 67584, Note_off_c, 4, 55, 0
6, 67584, Note_on_c, 4, 50, 96
6, 68608, Note_off_c, 4, 50, 0
6, 68608, Note_on_c, 4, 38, 96
6, 69632, Note_off_c, 4, 38, 0
6, 69632, Note_on_c, 4, 62, 96
6, 70656, Note_off_c, 4, 62, 0
6, 70656, Note_on_c, 4, 57, 96
6, 71168, Note_off_c, 4, 57, 0
6, 71168, Note_on_c, 4, 58, 96
6, 71680, Note_off_c, 4, 58, 0
6, 71680, Note_on_c, 4, 60, 96
6, 72704, Note_off_c, 4, 60, 0
6, 72704, Note_on_c, 4, 60, 96
6, 73728, Note_off_c, 4, 60, 0
6, 73728, Note_on_c, 4, 55, 96
6, 74240, Note_off_c, 4, 55, 0
6, 74240, Note_on_c, 4, 57, 96
6, 74752, Note_off_c, 4, 57, 0
6, 74752, Note_on_c, 4, 58, 96
6, 75776, Note_off_c, 4, 58, 0
6, 75776, Note_on_c, 4, 58, 96
6, 76800, Note_off_c, 4, 58, 0
6, 76800, Note_on_c, 4, 57, 96
6, 77312, Note_off_c, 4, 57, 0
6, 77312, Note_on_c, 4, 58, 96
6, 77824, Note_off_c, 4, 58, 0
6, 77824, Note_on_c, 4, 57, 96
6, 78336, Note_off_c, 4, 57, 0
6, 78336, Note_on_c, 4, 58, 96
6, 78848, Note_off_c, 4, 58, 0
6, 78848, Note_on_c, 4, 57, 96
6, 79360, Note_off_c, 4, 57, 0
6, 79360, Note_on_c, 4, 58, 96
6, 79872, Note_off_c, 4, 58, 0
6, 79872, Note_on_c, 4, 60, 96
6, 80896, Note_off_c, 4, 60, 0
6, 80896, Note_on_c, 4, 48, 96
6, 81920, Note_off_c, 4, 48, 0
6, 81920, Note_on_c, 4, 48, 96
6, 82944, Note_off_c, 4, 48, 0
6, 82944, Note_on_c, 4, 53, 96
6, 83456, Note_off_c, 4, 53, 0
6, 83456, Note_on_c, 4, 52, 96
6, 83968, Note_off_c, 4, 52, 0
6, 83968, Note_on_c, 4, 53, 96
6, 84992, Note_off_c, 4, 53, 0
6, 86016, Note_on_c, 4, 52, 96
6, 86528, Note_off_c, 4, 52, 0
6, 86528, Note_on_c, 4, 53, 96
6, 87040, Note_off_c, 4, 53, 0
6, 87040, Note_on_c, 4, 52, 96
6, 87552, Note_off_c, 4, 52, 0
6, 87552, Note_on_c, 4, 53, 96
6, 88064, Note_off_c, 4, 53, 0
6, 88064, Note_on_c, 4, 52, 96
6, 88576, Note_off_c, 4, 52, 0
6, 88576, Note_on_c, 4, 53, 96
6, 89088, Note_off_c, 4, 53, 0
6, 89088, Note_on_c, 4, 55, 96
6, 90112, Note_off_c, 4, 55, 0
6, 90112, Note_on_c, 4, 50, 96
6, 90624, Note_off_c, 4, 50, 0
6, 90624, Note_on_c, 4, 52, 96
6, 91136, Note_off_c, 4, 52, 0
6, 91136, Note_on_c, 4, 50, 96
6, 91648, Note_off_c, 4, 50, 0
6, 91648, Note_on_c, 4, 52, 96
6, 92160, Note_off_c, 4, 52, 0
6, 92160, Note_on_c, 4, 53, 96
6, 93184, Note_off_c, 4, 53, 0
6, 93184, Note_on_c, 4, 50, 96
6, 94208, Note_off_c, 4, 50, 0
6, 94208, Note_on_c, 4, 55, 96
6, 95232, Note_off_c, 4, 55, 0
6, 95232, Note_on_c, 4, 48, 96
6, 96256, Note_off_c, 4, 48, 0
6, 96256, Note_on_c, 4, 48, 96
6, 97280, Note_off_c, 4, 48, 0
6, 102400, Note_on_c, 4, 52, 96
6, 103424, Note_off_c, 4, 52, 0
6, 103424, Note_on_c, 4, 48, 96
6, 104448, Note_off_c, 4, 48, 0
6, 104448, Note_on_c, 4, 53, 96
6, 104960, Note_off_c, 4, 53, 0
6, 104960, Note_on_c, 4, 52, 96
6, 105472, Note_off_c, 4, 52, 0
6, 105472, Note_on_c, 4, 53, 96
6, 105984, Note_off_c, 4, 53, 0
6, 105984, Note_on_c, 4, 55, 96
6, 106496, Note_off_c, 4, 55, 0
6, 106496, Note_on_c, 4, 57, 96
6, 107008, Note_off_c, 4, 57, 0
6, 107008, Note_on_c, 4, 58, 96
6, 107520, Note_off_c, 4, 58, 0
6, 107520, Note_on_c, 4, 60, 96
6, 108032, Note_off_c, 4, 60, 0
6, 108032, Note_on_c, 4, 62, 96
6, 108544, Note_off_c, 4, 62, 0
6, 108544, Note_on_c, 4, 60, 96
6, 109056, Note_off_c, 4, 60, 0
6, 109056, Note_on_c, 4, 58, 96
6, 109568, Note_off_c, 4, 58, 0
6, 109568, Note_on_c, 4, 57, 96
6, 110080, Note_off_c, 4, 57, 0
6, 110080, Note_on_c, 4, 53, 96
6, 110592, Note_off_c, 4, 53, 0
6, 110592, Note_on_c, 4, 58, 96
6, 111104, Note_off_c, 4, 58, 0
6, 111104, Note_on_c, 4, 57, 96
6, 111616, Note_off_c, 4, 57, 0
6, 111616, Note_on_c, 4, 58, 96
6, 112128, Note_off_c, 4, 58, 0
6, 112128, Note_on_c, 4, 55, 96
6, 112640, Note_off_c, 4, 55, 0
6, 112640, Note_on_c, 4, 60, 96
6, 113152, Note_off_c, 4, 60, 0
6, 113152, Note_on_c, 4, 48, 96
6, 113664, Note_off_c, 4, 48, 0
6, 113664, Note_on_c, 4, 53, 96
6, 114688, Note_off_c, 4, 53, 0
6, 114688, Note_on_c, 4, 41, 96
6, 115712, Note_off_c, 4, 41, 0
6, 126976, Note_on_c, 4, 53, 96
6, 128000, Note_off_c, 4, 53, 0
6, 128000, Note_on_c, 4, 50, 96
6, 129024, Note_off_c, 4, 50, 0
6, 129024, Note_on_c, 4, 44, 96
6, 130048, Note_off_c, 4, 44, 0
6, 130048, Note_on_c, 4, 43, 96
6, 132096, Note_off_c, 4, 43, 0
6, 132096, Note_on_c, 4, 41, 96
6, 133120, Note_off_c, 4, 41, 0
6, 133120, Note_on_c, 4, 46, 96
6, 134656, Note_off_c, 4, 46, 0
6, 134656, Note_on_c, 4, 46, 96
6, 135168, Note_off_c, 4, 46, 0
6, 135168, Note_on_c, 4, 45, 96
6, 136192, Note_off_c, 4, 45, 0
6, 138240, Note_on_c, 4, 62, 96
6, 138752, Note_off_c, 4, 62, 0
6, 138752, Note_on_c, 4, 57, 96
6, 139264, Note_off_c, 4, 57, 0
6, 139264, Note_on_c, 4, 58, 96
6, 140288, Note_off_c, 4, 58, 0
6, 140288, Note_on_c, 4, 59, 96
6, 141312, Note_off_c, 4, 59, 0
6, 141312, Note_on_c, 4, 60, 96
6, 142336, Note_off_c, 4, 60, 0
6, 142336, Note_on_c, 4, 60, 96
6, 142848, Note_off_c, 4, 60, 0
6, 142848, Note_on_c, 4, 55, 96
6, 143360, Note_off_c, 4, 55, 0
6, 143360, Note_on_c, 4, 57, 96
6, 143872, Note_off_c, 4, 57, 0
6, 143872, Note_on_c, 4, 52, 96
6, 144384, Note_off_c, 4, 52, 0
6, 144384, Note_on_c, 4, 53, 96
6, 144640, Note_off_c, 4, 53, 0
6, 144640, Note_on_c, 4, 49, 96
6, 144896, Note_off_c, 4, 49, 0
6, 144896, Note_on_c, 4, 50, 96
6, 145152, Note_off_c, 4, 50, 0
6, 145152, Note_on_c, 4, 38, 96
6, 145408, Note_off_c, 4, 38, 0
6, 145408, Note_on_c, 4, 43, 96
6, 146432, Note_off_c, 4, 43, 0
6, 146432, Note_on_c, 4, 43, 96
6, 148480, Note_off_c, 4, 43, 0
6, 148480, Note_on_c, 4, 41, 96
6, 148992, Note_off_c, 4, 41, 0
6, 148992, Note_on_c, 4, 46, 96
6, 149504, Note_off_c, 4, 46, 0
6, 149504, Note_on_c, 4, 45, 96
6, 151552, Note_off_c, 4, 45, 0
6, 151552, Note_on_c, 4, 38, 96
6, 151552, Note_on_c, 4, 50, 96
6, 152576, Note_off_c, 4, 38, 0
6, 152576, Note_off_c, 4, 50, 0
6, 153600, Note_on_c, 4, 46, 96
6, 155648, Note_off_c, 4, 46, 0
6, 155648, Note_on_c, 4, 45, 96
6, 157696, Note_off_c, 4, 45, 0
6, 157696, End_track
7, 0, Start_track
7, 0, Title_t, "Instrument 6"
7, 9216, Note_on_c, 5, 77, 96
7, 9216, Note_on_c, 5, 77, 96
7, 9728, Note_off_c, 5, 77, 0
7, 9728, Note_on_c, 5, 81, 96
7, 9728, Note_off_c, 5, 77, 0
7, 9728, Note_on_c, 5, 81, 96
7, 10240, Note_off_c, 5, 81, 0
7, 10240, Note_on_c, 5, 74, 96
7, 10240, Note_off_c, 5, 81, 0
7, 10240, Note_on_c, 5, 74, 96
7, 10752, Note_off_c, 5, 74, 0
7, 10752, Note_on_c, 5, 79, 96
7, 10752, Note_off_c, 5, 74, 0
7, 10752, Note_on_c, 5, 79, 96
7, 11264, Note_off_c, 5, 79, 0
7, 11264, Note_on_c, 5, 76, 96
7, 11264, Note_off_c, 5, 79, 0
7, 11264, Note_on_c, 5, 76, 96
7, 12032, Note_off_c, 5, 76, 0
7, 12032, Note_on_c, 5, 77, 96
7, 12032, Note_off_c, 5, 76, 0
7, 12032, Note_on_c, 5, 77, 96
7, 12288, Note_off_c, 5, 77, 0
7, 12288, Note_off_c, 5, 77, 0
7, 12288, Note_on_c, 5, 77, 96
7, 12288, Note_on_c, 5, 77, 96
7, 12800, Note_off_c, 5, 77, 0
7, 12800, Note_off_c, 5, 77, 0
7, 17408, Note_on_c, 5, 79, 96
7, 17408, Note_on_c, 5, 79, 96
7, 17920, Note_off_c, 5, 79, 0
7, 17920, Note_on_c, 5, 77, 96
7, 17920, Note_off_c, 5, 79, 0
7, 17920, Note_on_c, 5, 77, 96
7, 18176, Note_off_c, 5, 77, 0
7, 18176, Note_on_c, 5, 81, 96
7, 18176, Note_off_c, 5, 77, 0
7, 18176, Note_on_c, 5, 81, 96
7, 18432, Note_off_c, 5, 81, 0
7, 18432, Note_on_c, 5, 74, 96
7, 18432, Note_off_c, 5, 81, 0
7, 18432, Note_on_c, 5, 74, 96
7, 18944, Note_off_c, 5, 74, 0
7, 18944, Note_on_c, 5, 76, 96
7, 18944, Note_off_c, 5, 74, 0
7, 18944, Note_on_c, 5, 76, 96
7, 19200, Note_off_c, 5, 76, 0
7, 19200, Note_on_c, 5, 77, 96
7, 19200, Note_off_c, 5, 76, 0
7, 19200, Note_on_c, 5, 77, 96
7, 19456, Note_off_c, 5, 77, 0
7, 19456, Note_on_c, 5, 76, 96
7, 19456, Note_off_c, 5, 77, 0
7, 19456, Note_on_c, 5, 76, 96
7, 19968, Note_off_c, 5, 76, 0
7, 19968, Note_on_c, 5, 74, 96
7, 19968, Note_off_c, 5, 76, 0
7, 19968, Note_on_c, 5, 74, 96
7, 20224, Note_off_c, 5, 74, 0
7, 20224, Note_on_c, 5, 72, 96
7, 20224, Note_off_c, 5, 74, 0
7, 20224, Note_on_c, 5, 72, 96
7, 20480, Note_off_c, 5, 72, 0
7, 20480, Note_off_c, 5, 72, 0
7, 20480, Note_on_c, 5, 72, 96
7, 20480, Note_on_c, 5, 72, 96
7, 21504, Note_off_c, 5, 72, 0
7, 21504, Note_on_c, 5, 76, 96
7, 21504, Note_off_c, 5, 72, 0
7, 21504, Note_on_c, 5, 76, 96
7, 22016, Note_off_c, 5, 76, 0
7, 22016, Note_on_c, 5, 74, 96
7, 22016, Note_off_c, 5, 76, 0
7, 22016, Note_on_c, 5, 74, 96
7, 22272, Note_off_c, 5, 74, 0
7, 22272, Note_on_c, 5, 72, 96
7, 22272, Note_off_c, 5, 74, 0
7, 22272, Note_on_c, 5, 72, 96
7, 22528, Note_off_c, 5, 72, 0
7, 22528, Note_on_c, 5, 71, 96
7, 22528, Note_off_c, 5, 72, 0
7, 22528, Note_on_c, 5, 71, 96
7, 23040, Note_off_c, 5, 71, 0
7, 23040, Note_on_c, 5, 72, 96
7, 23040, Note_off_c, 5, 71, 0
7, 23040, Note_on_c, 5, 72, 96
7, 23296, Note_off_c, 5, 72, 0
7, 23296, Note_on_c, 5, 74, 96
7, 23296, Note_off_c, 5, 72, 0
7, 23296, Note_on_c, 5, 74, 96
7, 23552, Note_off_c, 5, 74, 0
7, 23552, Note_on_c, 5, 71, 96
7, 23552, Note_off_c, 5, 74, 0
7, 23552, Note_on_c, 5, 71, 96
7, 24320, Note_off_c, 5, 71, 0
7, 24320, Note_on_c, 5, 72, 96
7, 24320, Note_off_c, 5, 71, 0
7, 24320, Note_on_c, 5, 72, 96
7, 24576, Note_off_c, 5, 72, 0
7, 24576, Note_off_c, 5, 72, 0
7, 24576, Note_on_c, 5, 72, 96
7, 24576, Note_on_c, 5, 72, 96
7, 25600, Note_off_c, 5, 72, 0
7, 25600, Note_on_c, 5, 72, 96
7, 25600, Note_off_c, 5, 72, 0
7, 25600, Note_on_c, 5, 72, 96
7, 26624, Note_off_c, 5, 72, 0
7, 26624, Note_on_c, 5, 72, 96
7, 26624, Note_off_c, 5, 72, 0
7, 26624, Note_on_c, 5, 72, 96
7, 27648, Note_off_c, 5, 72, 0
7, 27648, Note_off_c, 5, 72, 0
7, 27648, Note_on_c, 5, 77, 96
7, 27648, Note_on_c, 5, 77, 96
7, 28160, Note_off_c, 5, 77, 0
7, 28160, Note_on_c, 5, 79, 96
7, 28160, Note_off_c, 5, 77, 0
7, 28160, Note_on_c, 5, 79, 96
7, 28672, Note_off_c, 5, 79, 0
7, 28672, Note_on_c, 5, 77, 96
7, 28672, Note_off_c, 5, 79, 0
7, 28672, Note_on_c, 5, 77, 96
7, 29184, Note_off_c, 5, 77, 0
7, 29184, Note_on_c, 5, 79, 96
7, 29184, Note_off_c, 5, 77, 0
7, 29184, Note_on_c, 5, 79, 96
7, 29696, Note_off_c, 5, 79, 0
7, 29696, Note_on_c, 5, 77, 96
7, 29696, Note_off_c, 5, 79, 0
7, 29696, Note_on_c, 5, 77, 96
7, 30208, Note_off_c, 5, 77, 0
7, 30208, Note_on_c, 5, 79, 96
7, 30208, Note_off_c, 5, 77, 0
7, 30208, Note_on_c, 5, 79, 96
7, 30720, Note_off_c, 5, 79, 0
7, 30720, Note_off_c, 5, 79, 0
7, 30720, Note_on_c, 5, 76, 96
7, 30720, Note_on_c, 5, 76, 96
7, 31232, Note_off_c, 5, 76, 0
7, 31232, Note_on_c, 5, 77, 96
7, 31232, Note_off_c, 5, 76, 0
7, 31232, Note_on_c, 5, 77, 96
7, 31744, Note_off_c, 5, 77, 0
7, 31744, Note_on_c, 5, 76, 96
7, 31744, Note_off_c, 5, 77, 0
7, 31744, Note_on_c, 5, 76, 96
7, 32256, Note_off_c, 5, 76, 0
7, 32256, Note_on_c, 5, 77, 96
7, 32256, Note_off_c, 5, 76, 0
7, 32256, Note_on_c, 5, 77, 96
7, 32768, Note_off_c, 5, 77, 0
7, 32768, Note_on_c, 5, 76, 96
7, 32768, Note_off_c, 5, 77, 0
7, 32768, Note_on_c, 5, 76, 96
7, 33280, Note_off_c, 5, 76, 0
7, 33280, Note_on_c, 5, 77, 96
7, 33280, Note_off_c, 5, 76, 0
7, 33280, Note_on_c, 5, 77, 96
7, 33792, Note_off_c, 5, 77, 0
7, 33792, Note_off_c, 5, 77, 0
7, 33792, Note_on_c, 5, 79, 96
7, 33792, Note_on_c, 5, 79, 96
7, 34304, Note_off_c, 5, 79, 0
7, 34304, Note_on_c, 5, 81, 96
7, 34304, Note_off_c, 5, 79, 0
7, 34304, Note_on_c, 5, 81, 96
7, 34816, Note_off_c, 5, 81, 0
7, 34816, Note_on_c, 5, 79, 96
7, 34816, Note_off_c, 5, 81, 0
7, 34816, Note_on_c, 5, 79, 96
7, 35328, Note_off_c, 5, 79, 0
7, 35328, Note_on_c, 5, 81, 96
7, 35328, Note_off_c, 5, 79, 0
7, 35328, Note_on_c, 5, 81, 96
7, 35840, Note_off_c, 5, 81, 0
7, 35840, Note_on_c, 5, 79, 96
7, 35840, Note_off_c, 5, 81, 0
7, 35840, Note_on_c, 5, 79, 96
7, 36352, Note_off_c, 5, 79, 0
7, 36352, Note_on_c, 5, 81, 96
7, 36352, Note_off_c, 5, 79, 0
7, 36352, Note_on_c, 5, 81, 96
7, 36864, Note_off_c, 5, 81, 0
7, 36864, Note_off_c, 5, 81, 0
7, 36864, Note_on_c, 5, 77, 96
7, 36864, Note_on_c, 5, 77, 96
7, 37376, Note_off_c, 5, 77, 0
7, 37376, Note_on_c, 5, 79, 96
7, 37376, Note_off_c, 5, 77, 0
7, 37376, Note_on_c, 5, 79, 96
7, 37888, Note_off_c, 5, 79, 0
7, 37888, Note_on_c, 5, 77, 96
7, 37888, Note_off_c, 5, 79, 0
7, 37888, Note_on_c, 5, 77, 96
7, 38400, Note_off_c, 5, 77, 0
7, 38400, Note_on_c, 5, 79, 96
7, 38400, Note_off_c, 5, 77, 0
7, 38400, Note_on_c, 5, 79, 96
7, 38912, Note_off_c, 5, 79, 0
7, 38912, Note_on_c, 5, 77, 96
7, 38912, Note_off_c, 5, 79, 0
7, 38912, Note_on_c, 5, 77, 96
7, 39424, Note_off_c, 5, 77, 0
7, 39424, Note_on_c, 5, 79, 96
7, 39424, Note_off_c, 5, 77, 0
7, 39424, Note_on_c, 5, 79, 96
7, 39936, Note_off_c, 5, 79, 0
7, 39936, Note_off_c, 5, 79, 0
7, 39936, Note_on_c, 5, 76, 96
7, 39936, Note_on_c, 5, 76, 96
7, 40448, Note_off_c, 5, 76, 0
7, 40448, Note_on_c, 5, 77, 96
7, 40448, Note_off_c, 5, 76, 0
7, 40448, Note_on_c, 5, 77, 96
7, 40960, Note_off_c, 5, 77, 0
7, 40960, Note_on_c, 5, 76, 96
7, 40960, Note_off_c, 5, 77, 0
7, 40960, Note_on_c, 5, 76, 96
7, 41472, Note_off_c, 5, 76, 0
7, 41472, Note_on_c, 5, 77, 96
7, 41472, Note_off_c, 5, 76, 0
7, 41472, Note_on_c, 5, 77, 96
7, 41984, Note_off_c, 5, 77, 0
7, 41984, Note_on_c, 5, 74, 96
7, 41984, Note_off_c, 5, 77, 0
7, 41984, Note_on_c, 5, 74, 96
7, 42496, Note_off_c, 5, 74, 0
7, 42496, Note_on_c, 5, 76, 96
7, 42496, Note_off_c, 5, 74, 0
7, 42496, Note_on_c, 5, 76, 96
7, 43008, Note_off_c, 5, 76, 0
7, 43008, Note_off_c, 5, 76, 0
7, 43008, Note_on_c, 5, 77, 96
7, 43008, Note_on_c, 5, 77, 96
7, 44032, Note_off_c, 5, 77, 0
7, 44032, Note_on_c, 5, 72, 96
7, 44032, Note_off_c, 5, 77, 0
7, 44032, Note_on_c, 5, 72, 96
7, 45056, Note_off_c, 5, 72, 0
7, 45056, Note_on_c, 5, 77, 96
7, 45056, Note_off_c, 5, 72, 0
7, 45056, Note_on_c, 5, 77, 96
7, 46080, Note_off_c, 5, 77, 0
7, 46080, Note_off_c, 5, 77, 0
7, 46080, Note_on_c, 5, 79, 96
7, 46080, Note_on_c, 5, 79, 96
7, 47104, Note_off_c, 5, 79, 0
7, 47104, Note_on_c, 5, 72, 96
7, 47104, Note_off_c, 5, 79, 0
7, 47104, Note_on_c, 5, 72, 96
7, 48128, Note_off_c, 5, 72, 0
7, 48128, Note_off_c, 5, 72, 0
7, 50176, Note_on_c, 5, 74, 96
7, 50176, Note_on_c, 5, 74, 96
7, 51200, Note_off_c, 5, 74, 0
7, 51200, Note_on_c, 5, 74, 96
7, 51200, Note_off_c, 5, 74, 0
7, 51200, Note_on_c, 5, 74, 96
7, 52224, Note_off_c, 5, 74, 0
7, 52224, Note_off_c, 5, 74, 0
7, 52224, Note_on_c, 5, 81, 96
7, 52224, Note_on_c, 5, 81, 96
7, 52736, Note_off_c, 5, 81, 0
7, 52736, Note_on_c, 5, 79, 96
7, 52736, Note_off_c, 5, 81, 0
7, 52736, Note_on_c, 5, 79, 96
7, 53248, Note_off_c, 5, 79, 0
7, 53248, Note_on_c, 5, 81, 96
7, 53248, Note_off_c, 5, 79, 0
7, 53248, Note_on_c, 5, 81, 96
7, 54272, Note_off_c, 5, 81, 0
7, 54272, Note_off_c, 5, 81, 0
7, 56320, Note_on_c, 5, 72, 96
7, 56320, Note_on_c, 5, 72, 96
7, 57344, Note_off_c, 5, 72, 0
7, 57344, Note_on_c, 5, 72, 96
7, 57344, Note_off_c, 5, 72, 0
7, 57344, Note_on_c, 5, 72, 96
7, 58368, Note_off_c, 5, 72, 0
7, 58368, Note_off_c, 5, 72, 0
7, 58368, Note_on_c, 5, 77, 96
7, 58368, Note_on_c, 5, 77, 96
7, 58880, Note_off_c, 5, 77, 0
7, 58880, Note_on_c, 5, 79, 96
7, 58880, Note_off_c, 5, 77, 0
7, 58880, Note_on_c, 5, 79, 96
7, 59392, Note_off_c, 5, 79, 0
7, 59392, Note_on_c, 5, 77, 96
7, 59392, Note_off_c, 5, 79, 0
7, 59392, Note_on_c, 5, 77, 96
7, 59904, Note_off_c, 5, 77, 0
7, 59904, Note_on_c, 5, 79, 96
7, 59904, Note_off_c, 5, 77, 0
7, 59904, Note_on_c, 5, 79, 96
7, 60416, Note_off_c, 5, 79, 0
7, 60416, Note_on_c, 5, 77, 96
7, 60416, Note_off_c, 5, 79, 0
7, 60416, Note_on_c, 5, 77, 96
7, 60928, Note_off_c, 5, 77, 0
7, 60928, Note_on_c, 5, 79, 96
7, 60928, Note_off_c, 5, 77, 0
7, 60928, Note_on_c, 5, 79, 96
7, 61440, Note_off_c, 5, 79, 0
7, 61440, Note_off_c, 5, 79, 0
7, 61440, Note_on_c, 5, 76, 96
7, 61440, Note_on_c, 5, 76, 96
7, 61952, Note_off_c, 5, 76, 0
7, 61952, Note_on_c, 5, 77, 96
7, 61952, Note_off_c, 5, 76, 0
7, 61952, Note_on_c, 5, 77, 96
7, 62464, Note_off_c, 5, 77, 0
7, 62464, Note_on_c, 5, 76, 96
7, 62464, Note_off_c, 5, 77, 0
7, 62464, Note_on_c, 5, 76, 96
7, 62976, Note_off_c, 5, 76, 0
7, 62976, Note_on_c, 5, 77, 96
7, 62976, Note_off_c, 5, 76, 0
7, 62976, Note_on_c, 5, 77, 96
7, 63488, Note_off_c, 5, 77, 0
7, 63488, Note_on_c, 5, 76, 96
7, 63488, Note_off_c, 5, 77, 0
7, 63488, Note_on_c, 5, 76, 96
7, 64000, Note_off_c, 5, 76, 0
7, 64000, Note_on_c, 5, 77, 96
7, 64000, Note_off_c, 5, 76, 0
7, 64000, Note_on_c, 5, 77, 96
7, 64512, Note_off_c, 5, 77, 0
7, 64512, Note_off_c, 5, 77, 0
7, 64512, Note_on_c, 5, 79, 96
7, 64512, Note_on_c, 5, 79, 96
7, 65536, Note_off_c, 5, 79, 0
7, 65536, Note_on_c, 5, 74, 96
7, 65536, Note_off_c, 5, 79, 0
7, 65536, Note_on_c, 5, 74, 96
7, 66048, Note_off_c, 5, 74, 0
7, 66048, Note_on_c, 5, 76, 96
7, 66048, Note_off_c, 5, 74, 0
7, 66048, Note_on_c, 5, 76, 96
7, 66560, Note_off_c, 5, 76, 0
7, 66560, Note_on_c, 5, 74, 96
7, 66560, Note_off_c, 5, 76, 0
7, 66560, Note_on_c, 5, 74, 96
7, 67072, Note_off_c, 5, 74, 0
7, 67072, Note_on_c, 5, 76, 96
7, 67072, Note_off_c, 5, 74, 0
7, 67072, Note_on_c, 5, 76, 96
7, 67584, Note_off_c, 5, 76, 0
7, 67584, Note_off_c, 5, 76, 0
7, 67584, Note_on_c, 5, 77, 96
7, 67584, Note_on_c, 5, 77, 96
7, 68608, Note_off_c, 5, 77, 0
7, 68608, Note_on_c, 5, 69, 96
7, 68608, Note_off_c, 5, 77, 0
7, 68608, Note_on_c, 5, 69, 96
7, 69632, Note_off_c, 5, 69, 0
7, 69632, Note_on_c, 5, 74, 96
7, 69632, Note_off_c, 5, 69, 0
7, 69632, Note_on_c, 5, 74, 96
7, 70656, Note_off_c, 5, 74, 0
7, 70656, Note_off_c, 5, 74, 0
7, 70656, Note_on_c, 5, 72, 96
7, 70656, Note_on_c, 5, 72, 96
7, 71168, Note_off_c, 5, 72, 0
7, 71168, Note_on_c, 5, 74, 96
7, 71168, Note_off_c, 5, 72, 0
7, 71168, Note_on_c, 5, 74, 96
7, 71680, Note_off_c, 5, 74, 0
7, 71680, Note_on_c, 5, 76, 96
7, 71680, Note_off_c, 5, 74, 0
7, 71680, Note_on_c, 5, 76, 96
7, 72192, Note_off_c, 5, 76, 0
7, 72192, Note_on_c, 5, 74, 96
7, 72192, Note_off_c, 5, 76, 0
7, 72192, Note_on_c, 5, 74, 96
7, 72704, Note_off_c, 5, 74, 0
7, 72704, Note_on_c, 5, 72, 96
7, 72704, Note_off_c, 5, 74, 0
7, 72704, Note_on_c, 5, 72, 96
7, 73216, Note_off_c, 5, 72, 0
7, 73216, Note_on_c, 5, 74, 96
7, 73216, Note_off_c, 5, 72, 0
7, 73216, Note_on_c, 5, 74, 96
7, 73728, Note_off_c, 5, 74, 0
7, 73728, Note_off_c, 5, 74, 0
7, 73728, Note_on_c, 5, 70, 96
7, 73728, Note_on_c, 5, 70, 96
7, 74240, Note_off_c, 5, 70, 0
7, 74240, Note_on_c, 5, 72, 96
7, 74240, Note_off_c, 5, 70, 0
7, 74240, Note_on_c, 5, 72, 96
7, 74752, Note_off_c, 5, 72, 0
7, 74752, Note_on_c, 5, 74, 96
7, 74752, Note_off_c, 5, 72, 0
7, 74752, Note_on_c, 5, 74, 96
7, 75264, Note_off_c, 5, 74, 0
7, 75264, Note_on_c, 5, 72, 96
7, 75264, Note_off_c, 5, 74, 0
7, 75264, Note_on_c, 5, 72, 96
7, 75776, Note_off_c, 5, 72, 0
7, 75776, Note_on_c, 5, 70, 96
7, 75776, Note_off_c, 5, 72, 0
7, 75776, Note_on_c, 5, 70, 96
7, 76288, Note_off_c, 5, 70, 0
7, 76288, Note_on_c, 5, 74, 96
7, 76288, Note_off_c, 5, 70, 0
7, 76288, Note_on_c, 5, 74, 96
7, 76800, Note_off_c, 5, 74, 0
7, 76800, Note_off_c, 5, 74, 0
7, 76800, Note_on_c, 5, 72, 96
7, 76800, Note_on_c, 5, 72, 96
7, 77824, Note_off_c, 5, 72, 0
7, 77824, Note_on_c, 5, 72, 96
7, 77824, Note_off_c, 5, 72, 0
7, 77824, Note_on_c, 5, 72, 96
7, 78848, Note_off_c, 5, 72, 0
7, 78848, Note_on_c, 5, 77, 96
7, 78848, Note_off_c, 5, 72, 0
7, 78848, Note_on_c, 5, 77, 96
7, 79872, Note_off_c, 5, 77, 0
7, 79872, Note_off_c, 5, 77, 0
7, 79872, Note_on_c, 5, 76, 96
7, 79872, Note_on_c, 5, 76, 96
7, 80896, Note_off_c, 5, 76, 0
7, 80896, Note_on_c, 5, 72, 96
7, 80896, Note_off_c, 5, 76, 0
7, 80896, Note_on_c, 5, 72, 96
7, 81920, Note_off_c, 5, 72, 0
7, 81920, Note_on_c, 5, 76, 96
7, 81920, Note_off_c, 5, 72, 0
7, 81920, Note_on_c, 5, 76, 96
7, 82944, Note_off_c, 5, 76, 0
7, 82944, Note_off_c, 5, 76, 0
7, 82944, Note_on_c, 5, 77, 96
7, 82944, Note_on_c, 5, 77, 96
7, 83968, Note_off_c, 5, 77, 0
7, 83968, Note_on_c, 5, 72, 96
7, 83968, Note_off_c, 5, 77, 0
7, 83968, Note_on_c, 5, 72, 96
7, 84992, Note_off_c, 5, 72, 0
7, 84992, Note_on_c, 5, 77, 96
7, 84992, Note_off_c, 5, 72, 0
7, 84992, Note_on_c, 5, 77, 96
7, 86016, Note_off_c, 5, 77, 0
7, 86016, Note_off_c, 5, 77, 0
7, 86016, Note_on_c, 5, 79, 96
7, 86016, Note_on_c, 5, 79, 96
7, 87040, Note_off_c, 5, 79, 0
7, 87040, Note_on_c, 5, 72, 96
7, 87040, Note_off_c, 5, 79, 0
7, 87040, Note_on_c, 5, 72, 96
7, 88064, Note_off_c, 5, 72, 0
7, 88064, Note_on_c, 5, 84, 96
7, 88064, Note_off_c, 5, 72, 0
7, 88064, Note_on_c, 5, 84, 96
7, 89088, Note_off_c, 5, 84, 0
7, 89088, Note_off_c, 5, 84, 0
7, 89088, Note_on_c, 5, 82, 96
7, 89088, Note_on_c, 5, 82, 96
7, 89600, Note_off_c, 5, 82, 0
7, 89600, Note_on_c, 5, 81, 96
7, 89600, Note_off_c, 5, 82, 0
7, 89600, Note_on_c, 5, 81, 96
7, 90112, Note_off_c, 5, 81, 0
7, 90112, Note_on_c, 5, 82, 96
7, 90112, Note_off_c, 5, 81, 0
7, 90112, Note_on_c, 5, 82, 96
7, 90624, Note_off_c, 5, 82, 0
7, 90624, Note_on_c, 5, 84, 96
7, 90624, Note_off_c, 5, 82, 0
7, 90624, Note_on_c, 5, 84, 96
7, 91136, Note_off_c, 5, 84, 0
7, 91136, Note_on_c, 5, 82, 96
7, 91136, Note_off_c, 5, 84, 0
7, 91136, Note_on_c, 5, 82, 96
7, 91648, Note_off_c, 5, 82, 0
7, 91648, Note_on_c, 5, 84, 96
7, 91648, Note_off_c, 5, 82, 0
7, 91648, Note_on_c, 5, 84, 96
7, 92160, Note_off_c, 5, 84, 0
7, 92160, Note_off_c, 5, 84, 0
7, 92160, Note_on_c, 5, 81, 96
7, 92160, Note_on_c, 5, 81, 96
7, 92672, Note_off_c, 5, 81, 0
7, 92672, Note_on_c, 5, 82, 96
7, 92672, Note_off_c, 5, 81, 0
7, 92672, Note_on_c, 5, 82, 96
7, 93184, Note_off_c, 5, 82, 0
7, 93184, Note_on_c, 5, 81, 96
7, 93184, Note_off_c, 5, 82, 0
7, 93184, Note_on_c, 5, 81, 96
7, 93696, Note_off_c, 5, 81, 0
7, 93696, Note_on_c, 5, 79, 96
7, 93696, Note_off_c, 5, 81, 0
7, 93696, Note_on_c, 5, 79, 96
7, 94208, Note_off_c, 5, 79, 0
7, 94208, Note_on_c, 5, 77, 96
7, 94208, Note_off_c, 5, 79, 0
7, 94208, Note_on_c, 5, 77, 96
7, 94720, Note_off_c, 5, 77, 0
7, 94720, Note_on_c, 5, 79, 96
7, 94720, Note_off_c, 5, 77, 0
7, 94720, Note_on_c, 5, 79, 96
7, 95232, Note_off_c, 5, 79, 0
7, 95232, Note_off_c, 5, 79, 0
7, 95232, Note_on_c, 5, 76, 96
7, 95232, Note_on_c, 5, 76, 96
7, 96256, Note_off_c, 5, 76, 0
7, 96256, Note_on_c, 5, 76, 96
7, 96256, Note_off_c, 5, 76, 0
7, 96256, Note_on_c, 5, 72, 96
7, 97280, Note_off_c, 5, 76, 0
7, 97280, Note_on_c, 5, 81, 96
7, 97280, Note_off_c, 5, 72, 0
7, 97280, Note_on_c, 5, 77, 96
7, 98304, Note_off_c, 5, 81, 0
7, 98304, Note_off_c, 5, 77, 0
7, 98304, Note_on_c, 5, 79, 96
7, 98304, Note_on_c, 5, 76, 96
7, 98816, Note_off_c, 5, 79, 0
7, 98816, Note_on_c, 5, 81, 96
7, 98816, Note_off_c, 5, 76, 0
7, 98816, Note_on_c, 5, 77, 96
7, 99328, Note_off_c, 5, 81, 0
7, 99328, Note_on_c, 5, 79, 96
7, 99328, Note_off_c, 5, 77, 0
7, 99328, Note_on_c, 5, 76, 96
7, 99840, Note_off_c, 5, 79, 0
7, 99840, Note_on_c, 5, 82, 96
7, 99840, Note_off_c, 5, 76, 0
7, 99840, Note_on_c, 5, 79, 96
7, 100352, Note_off_c, 5, 82, 0
7, 100352, Note_on_c, 5, 81, 96
7, 100352, Note_off_c, 5, 79, 0
7, 100352, Note_on_c, 5, 77, 96
7, 100864, Note_off_c, 5, 81, 0
7, 100864, Note_on_c, 5, 82, 96
7, 100864, Note_off_c, 5, 77, 0
7, 100864, Note_on_c, 5, 81, 96
7, 101376, Note_off_c, 5, 82, 0
7, 101376, Note_off_c, 5, 81, 0
7, 101376, Note_on_c, 5, 84, 96
7, 101376, Note_on_c, 5, 79, 96
7, 101888, Note_off_c, 5, 79, 0
7, 101888, Note_on_c, 5, 81, 96
7, 102400, Note_off_c, 5, 84, 0
7, 102400, Note_on_c, 5, 72, 96
7, 102400, Note_off_c, 5, 81, 0
7, 102400, Note_on_c, 5, 79, 96
7, 102912, Note_off_c, 5, 79, 0
7, 102912, Note_on_c, 5, 81, 96
7, 103424, Note_off_c, 5, 72, 0
7, 103424, Note_off_c, 5, 81, 0
7, 103424, Note_on_c, 5, 77, 96
7, 103936, Note_off_c, 5, 77, 0
7, 103936, Note_on_c, 5, 79, 96
7, 104448, Note_off_c, 5, 79, 0
7, 104448, Note_on_c, 5, 81, 96
7, 104960, Note_off_c, 5, 81, 0
7, 104960, Note_on_c, 5, 79, 96
7, 105472, Note_on_c, 5, 72, 96
7, 105472, Note_off_c, 5, 79, 0
7, 105472, Note_on_c, 5, 77, 96
7, 105984, Note_off_c, 5, 77, 0
7, 105984, Note_on_c, 5, 81, 96
7, 106496, Note_off_c, 5, 72, 0
7, 106496, Note_on_c, 5, 77, 96
7, 106496, Note_off_c, 5, 81, 0
7, 106496, Note_on_c, 5, 79, 96
7, 107008, Note_off_c, 5, 79, 0
7, 107008, Note_on_c, 5, 77, 96
7, 107520, Note_off_c, 5, 77, 0
7, 107520, Note_off_c, 5, 77, 0
7, 107520, Note_on_c, 5, 76, 96
7, 107520, Note_on_c, 5, 76, 96
7, 108544, Note_off_c, 5, 76, 0
7, 108544, Note_on_c, 5, 72, 96
7, 108544, Note_off_c, 5, 76, 0
7, 108544, Note_on_c, 5, 72, 96
7, 109568, Note_off_c, 5, 72, 0
7, 109568, Note_on_c, 5, 77, 96
7, 109568, Note_off_c, 5, 72, 0
7, 109568, Note_on_c, 5, 77, 96
7, 110592, Note_off_c, 5, 77, 0
7, 110592, Note_off_c, 5, 77, 0
7, 110592, Note_on_c, 5, 74, 96
7, 110592, Note_on_c, 5, 74, 96
7, 111616, Note_off_c, 5, 74, 0
7, 111616, Note_on_c, 5, 79, 96
7, 111616, Note_off_c, 5, 74, 0
7, 111616, Note_on_c, 5, 79, 96
7, 112640, Note_off_c, 5, 79, 0
7, 112640, Note_on_c, 5, 76, 96
7, 112640, Note_off_c, 5, 79, 0
7, 112640, Note_on_c, 5, 76, 96
7, 113664, Note_off_c, 5, 76, 0
7, 113664, Note_off_c, 5, 76, 0
7, 113664, Note_on_c, 5, 77, 96
7, 113664, Note_on_c, 5, 77, 96
7, 113920, Note_off_c, 5, 77, 0
7, 113920, Note_on_c, 5, 76, 96
7, 113920, Note_off_c, 5, 77, 0
7, 113920, Note_on_c, 5, 76, 96
7, 114176, Note_off_c, 5, 76, 0
7, 114176, Note_on_c, 5, 77, 96
7, 114176, Note_off_c, 5, 76, 0
7, 114176, Note_on_c, 5, 77, 96
7, 114432, Note_off_c, 5, 77, 0
7, 114432, Note_on_c, 5, 76, 96
7, 114432, Note_off_c, 5, 77, 0
7, 114432, Note_on_c, 5, 76, 96
7, 114688, Note_off_c, 5, 76, 0
7, 114688, Note_on_c, 5, 77, 96
7, 114688, Note_off_c, 5, 76, 0
7, 114688, Note_on_c, 5, 77, 96
7, 114944, Note_off_c, 5, 77, 0
7, 114944, Note_on_c, 5, 76, 96
7, 114944, Note_off_c, 5, 77, 0
7, 114944, Note_on_c, 5, 76, 96
7, 115200, Note_off_c, 5, 76, 0
7, 115200, Note_on_c, 5, 77, 96
7, 115200, Note_off_c, 5, 76, 0
7, 115200, Note_on_c, 5, 77, 96
7, 115456, Note_off_c, 5, 77, 0
7, 115456, Note_on_c, 5, 76, 96
7, 115456, Note_off_c, 5, 77, 0
7, 115456, Note_on_c, 5, 76, 96
7, 115712, Note_off_c, 5, 76, 0
7, 115712, Note_on_c, 5, 77, 96
7, 115712, Note_off_c, 5, 76, 0
7, 115712, Note_on_c, 5, 77, 96
7, 115968, Note_off_c, 5, 77, 0
7, 115968, Note_on_c, 5, 76, 96
7, 115968, Note_off_c, 5, 77, 0
7, 115968, Note_on_c, 5, 76, 96
7, 116224, Note_off_c, 5, 76, 0
7, 116224, Note_on_c, 5, 77, 96
7, 116224, Note_off_c, 5, 76, 0
7, 116224, Note_on_c, 5, 77, 96
7, 116480, Note_off_c, 5, 77, 0
7, 116480, Note_on_c, 5, 76, 96
7, 116480, Note_off_c, 5, 77, 0
7, 116480, Note_on_c, 5, 76, 96
7, 116736, Note_off_c, 5, 76, 0
7, 116736, Note_off_c, 5, 76, 0
7, 116736, Note_on_c, 5, 77, 96
7, 116736, Note_on_c, 5, 77, 96
7, 123904, Note_off_c, 5, 77, 0
7, 123904, Note_on_c, 5, 79, 96
7, 123904, Note_off_c, 5, 77, 0
7, 123904, Note_on_c, 5, 79, 96
7, 124928, Note_off_c, 5, 79, 0
7, 124928, Note_on_c, 5, 76, 96
7, 124928, Note_off_c, 5, 79, 0
7, 124928, Note_on_c, 5, 76, 96
7, 125952, Note_off_c, 5, 76, 0
7, 125952, Note_off_c, 5, 76, 0
7, 125952, Note_on_c, 5, 77, 96
7, 125952, Note_on_c, 5, 77, 96
7, 126976, Note_off_c, 5, 77, 0
7, 126976, Note_on_c, 5, 77, 96
7, 126976, Note_off_c, 5, 77, 0
7, 126976, Note_on_c, 5, 77, 96
7, 128000, Note_off_c, 5, 77, 0
7, 128000, Note_on_c, 5, 77, 96
7, 128000, Note_off_c, 5, 77, 0
7, 128000, Note_on_c, 5, 77, 96
7, 129024, Note_off_c, 5, 77, 0
7, 129024, Note_off_c, 5, 77, 0
7, 129024, Note_on_c, 5, 77, 96
7, 129024, Note_on_c, 5, 77, 96
7, 129536, Note_off_c, 5, 77, 0
7, 129536, Note_on_c, 5, 76, 96
7, 129536, Note_off_c, 5, 77, 0
7, 129536, Note_on_c, 5, 76, 96
7, 130048, Note_off_c, 5, 76, 0
7, 130048, Note_on_c, 5, 76, 96
7, 130048, Note_off_c, 5, 76, 0
7, 130048, Note_on_c, 5, 76, 96
7, 130560, Note_off_c, 5, 76, 0
7, 130560, Note_on_c, 5, 74, 96
7, 130560, Note_off_c, 5, 76, 0
7, 130560, Note_on_c, 5, 74, 96
7, 131072, Note_off_c, 5, 74, 0
7, 131072, Note_on_c, 5, 73, 96
7, 131072, Note_off_c, 5, 74, 0
7, 131072, Note_on_c, 5, 73, 96
7, 132096, Note_off_c, 5, 73, 0
7, 132096, Note_on_c, 5, 81, 96
7, 132096, Note_off_c, 5, 73, 0
7, 132096, Note_on_c, 5, 81, 96
7, 132608, Note_off_c, 5, 81, 0
7, 132608, Note_on_c, 5, 69, 96
7, 132608, Note_off_c, 5, 81, 0
7, 132608, Note_on_c, 5, 69, 96
7, 133120, Note_off_c, 5, 69, 0
7, 133120, Note_off_c, 5, 69, 0
7, 133120, Note_on_c, 5, 74, 96
7, 133120, Note_on_c, 5, 74, 96
7, 134656, Note_off_c, 5, 74, 0
7, 134656, Note_on_c, 5, 76, 96
7, 134656, Note_off_c, 5, 74, 0
7, 134656, Note_on_c, 5, 76, 96
7, 135168, Note_off_c, 5, 76, 0
7, 135168, Note_on_c, 5, 73, 96
7, 135168, Note_off_c, 5, 76, 0
7, 135168, Note_on_c, 5, 73, 96
7, 136192, Note_off_c, 5, 73, 0
7, 136192, Note_on_c, 5, 81, 96
7, 136192, Note_off_c, 5, 73, 0
7, 136192, Note_on_c, 5, 81, 96
7, 136704, Note_off_c, 5, 81, 0
7, 136704, Note_on_c, 5, 76, 96
7, 136704, Note_off_c, 5, 81, 0
7, 136704, Note_on_c, 5, 76, 96
7, 137216, Note_off_c, 5, 76, 0
7, 137216, Note_off_c, 5, 76, 0
7, 137216, Note_on_c, 5, 77, 96
7, 137216, Note_on_c, 5, 77, 96
7, 138240, Note_off_c, 5, 77, 0
7, 138240, Note_on_c, 5, 78, 96
7, 138240, Note_off_c, 5, 77, 0
7, 138240, Note_on_c, 5, 78, 96
7, 139264, Note_off_c, 5, 78, 0
7, 139264, Note_on_c, 5, 79, 96
7, 139264, Note_off_c, 5, 78, 0
7, 139264, Note_on_c, 5, 79, 96
7, 140288, Note_off_c, 5, 79, 0
7, 140288, Note_on_c, 5, 79, 96
7, 140288, Note_off_c, 5, 79, 0
7, 140288, Note_on_c, 5, 79, 96
7, 140800, Note_off_c, 5, 79, 0
7, 140800, Note_on_c, 5, 74, 96
7, 140800, Note_off_c, 5, 79, 0
7, 140800, Note_on_c, 5, 74, 96
7, 141312, Note_off_c, 5, 74, 0
7, 141312, Note_off_c, 5, 74, 0
7, 141312, Note_on_c, 5, 75, 96
7, 141312, Note_on_c, 5, 75, 96
7, 142336, Note_off_c, 5, 75, 0
7, 142336, Note_on_c, 5, 76, 96
7, 142336, Note_off_c, 5, 75, 0
7, 142336, Note_on_c, 5, 76, 96
7, 143360, Note_off_c, 5, 76, 0
7, 143360, Note_on_c, 5, 77, 96
7, 143360, Note_off_c, 5, 76, 0
7, 143360, Note_on_c, 5, 77, 96
7, 144384, Note_off_c, 5, 77, 0
7, 144384, Note_on_c, 5, 77, 96
7, 144384, Note_off_c, 5, 77, 0
7, 144384, Note_on_c, 5, 77, 96
7, 144896, Note_off_c, 5, 77, 0
7, 144896, Note_on_c, 5, 77, 96
7, 144896, Note_off_c, 5, 77, 0
7, 144896, Note_on_c, 5, 77, 96
7, 145408, Note_off_c, 5, 77, 0
7, 145408, Note_off_c, 5, 77, 0
7, 145408, Note_on_c, 5, 77, 96
7, 145408, Note_on_c, 5, 77, 96
7, 145920, Note_off_c, 5, 77, 0
7, 145920, Note_on_c, 5, 75, 96
7, 145920, Note_off_c, 5, 77, 0
7, 145920, Note_on_c, 5, 75, 96
7, 146432, Note_off_c, 5, 75, 0
7, 146432, Note_on_c, 5, 75, 96
7, 146432, Note_off_c, 5, 75, 0
7, 146432, Note_on_c, 5, 75, 96
7, 146944, Note_off_c, 5, 75, 0
7, 146944, Note_on_c, 5, 79, 96
7, 146944, Note_off_c, 5, 75, 0
7, 146944, Note_on_c, 5, 79, 96
7, 147456, Note_off_c, 5, 79, 0
7, 147456, Note_on_c, 5, 73, 96
7, 147456, Note_off_c, 5, 79, 0
7, 147456, Note_on_c, 5, 73, 96
7, 147968, Note_off_c, 5, 73, 0
7, 147968, Note_on_c, 5, 70, 96
7, 147968, Note_off_c, 5, 73, 0
7, 147968, Note_on_c, 5, 70, 96
7, 148224, Note_off_c, 5, 70, 0
7, 148224, Note_on_c, 5, 69, 96
7, 148224, Note_off_c, 5, 70, 0
7, 148224, Note_on_c, 5, 69, 96
7, 148480, Note_off_c, 5, 69, 0
7, 148480, Note_on_c, 5, 74, 96
7, 148480, Note_off_c, 5, 69, 0
7, 148480, Note_on_c, 5, 74, 96
7, 149504, Note_off_c, 5, 74, 0
7, 149504, Note_off_c, 5, 74, 0
7, 149504, Note_on_c, 5, 74, 96
7, 149504, Note_on_c, 5, 74, 96
7, 151040, Note_off_c, 5, 74, 0
7, 151040, Note_on_c, 5, 73, 96
7, 151040, Note_off_c, 5, 74, 0
7, 151040, Note_on_c, 5, 73, 96
7, 151552, Note_off_c, 5, 73, 0
7, 151552, Note_on_c, 5, 74, 96
7, 151552, Note_off_c, 5, 73, 0
7, 151552, Note_on_c, 5, 74, 96
7, 152064, Note_off_c, 5, 74, 0
7, 152064, Note_on_c, 5, 81, 96
7, 152064, Note_off_c, 5, 74, 0
7, 152064, Note_on_c, 5, 81, 96
7, 152320, Note_off_c, 5, 81, 0
7, 152320, Note_on_c, 5, 79, 96
7, 152320, Note_off_c, 5, 81, 0
7, 152320, Note_on_c, 5, 79, 96
7, 152576, Note_off_c, 5, 79, 0
7, 152576, Note_on_c, 5, 77, 96
7, 152576, Note_off_c, 5, 79, 0
7, 152576, Note_on_c, 5, 77, 96
7, 152832, Note_off_c, 5, 77, 0
7, 152832, Note_on_c, 5, 76, 96
7, 152832, Note_off_c, 5, 77, 0
7, 152832, Note_on_c, 5, 76, 96
7, 153088, Note_off_c, 5, 76, 0
7, 153088, Note_on_c, 5, 74, 96
7, 153088, Note_off_c, 5, 76, 0
7, 153088, Note_on_c, 5, 74, 96
7, 153344, Note_off_c, 5, 74, 0
7, 153344, Note_on_c, 5, 73, 96
7, 153344, Note_off_c, 5, 74, 0
7, 153344, Note_on_c, 5, 73, 96
7, 153600, Note_off_c, 5, 73, 0
7, 153600, Note_off_c, 5, 73, 0
7, 153600, Note_on_c, 5, 74, 96
7, 153600, Note_on_c, 5, 74, 96
7, 155136, Note_off_c, 5, 74, 0
7, 155136, Note_on_c, 5, 76, 96
7, 155136, Note_off_c, 5, 74, 0
7, 155136, Note_on_c, 5, 76, 96
7, 155648, Note_off_c, 5, 76, 0
7, 155648, Note_on_c, 5, 73, 96
7, 155648, Note_off_c, 5, 76, 0
7, 155648, Note_on_c, 5, 73, 96
7, 157696, Note_off_c, 5, 73, 0
7, 157696, Note_off_c, 5, 73, 0
7, 157696, End_track
8, 0, Start_track
8, 0, Title_t, "Instrument 7"
8, 9216, Note_on_c, 6, 65, 96
8, 9728, Note_off_c, 6, 65, 0
8, 9728, Note_on_c, 6, 65, 96
8, 10240, Note_off_c, 6, 65, 0
8, 10240, Note_on_c, 6, 65, 96
8, 10752, Note_off_c, 6, 65, 0
8, 10752, Note_on_c, 6, 70, 96
8, 11264, Note_off_c, 6, 70, 0
8, 11264, Note_on_c, 6, 67, 96
8, 12032, Note_off_c, 6, 67, 0
8, 12032, Note_on_c, 6, 69, 96
8, 12288, Note_off_c, 6, 69, 0
8, 12288, Note_on_c, 6, 69, 96
8, 12800, Note_off_c, 6, 69, 0
8, 17408, Note_on_c, 6, 67, 96
8, 17920, Note_off_c, 6, 67, 0
8, 17920, Note_on_c, 6, 69, 96
8, 18432, Note_off_c, 6, 69, 0
8, 18432, Note_on_c, 6, 67, 96
8, 18944, Note_off_c, 6, 67, 0
8, 18944, Note_on_c, 6, 67, 96
8, 19456, Note_off_c, 6, 67, 0
8, 19456, Note_on_c, 6, 67, 96
8, 19968, Note_off_c, 6, 67, 0
8, 19968, Note_on_c, 6, 67, 96
8, 20480, Note_off_c, 6, 67, 0
8, 20480, Note_on_c, 6, 67, 96
8, 21504, Note_off_c, 6, 67, 0
8, 21504, Note_on_c, 6, 67, 96
8, 22016, Note_off_c, 6, 67, 0
8, 22016, Note_on_c, 6, 65, 96
8, 22272, Note_off_c, 6, 65, 0
8, 22272, Note_on_c, 6, 69, 96
8, 22528, Note_off_c, 6, 69, 0
8, 22528, Note_on_c, 6, 62, 96
8, 23040, Note_off_c, 6, 62, 0
8, 23040, Note_on_c, 6, 64, 96
8, 23296, Note_off_c, 6, 64, 0
8, 23296, Note_on_c, 6, 65, 96
8, 23552, Note_off_c, 6, 65, 0
8, 23552, Note_on_c, 6, 62, 96
8, 24320, Note_off_c, 6, 62, 0
8, 24320, Note_on_c, 6, 64, 96
8, 24576, Note_off_c, 6, 64, 0
8, 24576, Note_on_c, 6, 64, 96
8, 25600, Note_off_c, 6, 64, 0
8, 28672, Note_on_c, 6, 65, 96
8, 29696, Note_off_c, 6, 65, 0
8, 29696, Note_on_c, 6, 65, 96
8, 30720, Note_off_c, 6, 65, 0
8, 30720, Note_on_c, 6, 72, 96
8, 31232, Note_off_c, 6, 72, 0
8, 31232, Note_on_c, 6, 74, 96
8, 31744, Note_off_c, 6, 74, 0
8, 31744, Note_on_c, 6, 72, 96
8, 32256, Note_off_c, 6, 72, 0
8, 32256, Note_on_c, 6, 74, 96
8, 32768, Note_off_c, 6, 74, 0
8, 32768, Note_on_c, 6, 72, 96
8, 33280, Note_off_c, 6, 72, 0
8, 33280, Note_on_c, 6, 74, 96
8, 33792, Note_off_c, 6, 74, 0
8, 33792, Note_on_c, 6, 70, 96
8, 34304, Note_off_c, 6, 70, 0
8, 34304, Note_on_c, 6, 72, 96
8, 34816, Note_off_c, 6, 72, 0
8, 34816, Note_on_c, 6, 70, 96
8, 35328, Note_off_c, 6, 70, 0
8, 35328, Note_on_c, 6, 72, 96
8, 35840, Note_off_c, 6, 72, 0
8, 35840, Note_on_c, 6, 70, 96
8, 36352, Note_off_c, 6, 70, 0
8, 36352, Note_on_c, 6, 72, 96
8, 36864, Note_off_c, 6, 72, 0
8, 36864, Note_on_c, 6, 74, 96
8, 37888, Note_off_c, 6, 74, 0
8, 37888, Note_on_c, 6, 69, 96
8, 38400, Note_off_c, 6, 69, 0
8, 38400, Note_on_c, 6, 70, 96
8, 38912, Note_off_c, 6, 70, 0
8, 38912, Note_on_c, 6, 69, 96
8, 39424, Note_off_c, 6, 69, 0
8, 39424, Note_on_c, 6, 70, 96
8, 39936, Note_off_c, 6, 70, 0
8, 39936, Note_on_c, 6, 72, 96
8, 40448, Note_off_c, 6, 72, 0
8, 40448, Note_on_c, 6, 74, 96
8, 40960, Note_off_c, 6, 74, 0
8, 40960, Note_on_c, 6, 72, 96
8, 41472, Note_off_c, 6, 72, 0
8, 41472, Note_on_c, 6, 74, 96
8, 41984, Note_off_c, 6, 74, 0
8, 41984, Note_on_c, 6, 70, 96
8, 42496, Note_off_c, 6, 70, 0
8, 42496, Note_on_c, 6, 72, 96
8, 43008, Note_off_c, 6, 72, 0
8, 43008, Note_on_c, 6, 69, 96
8, 43520, Note_off_c, 6, 69, 0
8, 43520, Note_on_c, 6, 70, 96
8, 44032, Note_off_c, 6, 70, 0
8, 44032, Note_on_c, 6, 69, 96
8, 44544, Note_off_c, 6, 69, 0
8, 44544, Note_on_c, 6, 70, 96
8, 45056, Note_off_c, 6, 70, 0
8, 45056, Note_on_c, 6, 69, 96
8, 45568, Note_off_c, 6, 69, 0
8, 45568, Note_on_c, 6, 70, 96
8, 46080, Note_off_c, 6, 70, 0
8, 46080, Note_on_c, 6, 67, 96
8, 46592, Note_off_c, 6, 67, 0
8, 46592, Note_on_c, 6, 69, 96
8, 47104, Note_off_c, 6, 69, 0
8, 47104, Note_on_c, 6, 67, 96
8, 47616, Note_off_c, 6, 67, 0
8, 47616, Note_on_c, 6, 69, 96
8, 48128, Note_off_c, 6, 69, 0
8, 48128, Note_on_c, 6, 67, 96
8, 48640, Note_off_c, 6, 67, 0
8, 48640, Note_on_c, 6, 69, 96
8, 49152, Note_off_c, 6, 69, 0
8, 49152, Note_on_c, 6, 70, 96
8, 50176, Note_off_c, 6, 70, 0
8, 50176, Note_on_c, 6, 67, 96
8, 51200, Note_off_c, 6, 67, 0
8, 51200, Note_on_c, 6, 70, 96
8, 52224, Note_off_c, 6, 70, 0
8, 52224, Note_on_c, 6, 69, 96
8, 53248, Note_off_c, 6, 69, 0
8, 53248, Note_on_c, 6, 65, 96
8, 54272, Note_off_c, 6, 65, 0
8, 54272, Note_on_c, 6, 69, 96
8, 55296, Note_off_c, 6, 69, 0
8, 55296, Note_on_c, 6, 67, 96
8, 56320, Note_off_c, 6, 67, 0
8, 56320, Note_on_c, 6, 64, 96
8, 57344, Note_off_c, 6, 64, 0
8, 57344, Note_on_c, 6, 67, 96
8, 58368, Note_off_c, 6, 67, 0
8, 58368, Note_on_c, 6, 69, 96
8, 58880, Note_off_c, 6, 69, 0
8, 58880, Note_on_c, 6, 70, 96
8, 59392, Note_off_c, 6, 70, 0
8, 59392, Note_on_c, 6, 69, 96
8, 59904, Note_off_c, 6, 69, 0
8, 59904, Note_on_c, 6, 70, 96
8, 60416, Note_off_c, 6, 70, 0
8, 60416, Note_on_c, 6, 69, 96
8, 60928, Note_off_c, 6, 69, 0
8, 60928, Note_on_c, 6, 70, 96
8, 61440, Note_off_c, 6, 70, 0
8, 61440, Note_on_c, 6, 67, 96
8, 62464, Note_off_c, 6, 67, 0
8, 62464, Note_on_c, 6, 64, 96
8, 63488, Note_off_c, 6, 64, 0
8, 63488, Note_on_c, 6, 67, 96
8, 64512, Note_off_c, 6, 67, 0
8, 64512, Note_on_c, 6, 70, 96
8, 65536, Note_off_c, 6, 70, 0
8, 65536, Note_on_c, 6, 62, 96
8, 66560, Note_off_c, 6, 62, 0
8, 66560, Note_on_c, 6, 67, 96
8, 67584, Note_off_c, 6, 67, 0
8, 67584, Note_on_c, 6, 65, 96
8, 68608, Note_off_c, 6, 65, 0
8, 68608, Note_on_c, 6, 62, 96
8, 69632, Note_off_c, 6, 62, 0
8, 69632, Note_on_c, 6, 65, 96
8, 70656, Note_off_c, 6, 65, 0
8, 70656, Note_on_c, 6, 65, 96
8, 71680, Note_off_c, 6, 65, 0
8, 71680, Note_on_c, 6, 60, 96
8, 72704, Note_off_c, 6, 60, 0
8, 72704, Note_on_c, 6, 64, 96
8, 73728, Note_off_c, 6, 64, 0
8, 73728, Note_on_c, 6, 62, 96
8, 74752, Note_off_c, 6, 62, 0
8, 74752, Note_on_c, 6, 58, 96
8, 75776, Note_off_c, 6, 58, 0
8, 75776, Note_on_c, 6, 62, 96
8, 76288, Note_off_c, 6, 62, 0
8, 76288, Note_on_c, 6, 64, 96
8, 76800, Note_off_c, 6, 64, 0
8, 76800, Note_on_c, 6, 65, 96
8, 77312, Note_off_c, 6, 65, 0
8, 77312, Note_on_c, 6, 67, 96
8, 77824, Note_off_c, 6, 67, 0
8, 77824, Note_on_c, 6, 65, 96
8, 78336, Note_off_c, 6, 65, 0
8, 78336, Note_on_c, 6, 64, 96
8, 78848, Note_off_c, 6, 64, 0
8, 78848, Note_on_c, 6, 65, 96
8, 79360, Note_off_c, 6, 65, 0
8, 79360, Note_on_c, 6, 62, 96
8, 79872, Note_off_c, 6, 62, 0
8, 79872, Note_on_c, 6, 67, 96
8, 80384, Note_off_c, 6, 67, 0
8, 80384, Note_on_c, 6, 69, 96
8, 80896, Note_off_c, 6, 69, 0
8, 80896, Note_on_c, 6, 67, 96
8, 81408, Note_off_c, 6, 67, 0
8, 81408, Note_on_c, 6, 69, 96
8, 81920, Note_off_c, 6, 69, 0
8, 81920, Note_on_c, 6, 67, 96
8, 82432, Note_off_c, 6, 67, 0
8, 82432, Note_on_c, 6, 69, 96
8, 82944, Note_off_c, 6, 69, 0
8, 82944, Note_on_c, 6, 65, 96
8, 83456, Note_off_c, 6, 65, 0
8, 83456, Note_on_c, 6, 67, 96
8, 83968, Note_off_c, 6, 67, 0
8, 83968, Note_on_c, 6, 65, 96
8, 84480, Note_off_c, 6, 65, 0
8, 84480, Note_on_c, 6, 67, 96
8, 84992, Note_off_c, 6, 67, 0
8, 84992, Note_on_c, 6, 69, 96
8, 85504, Note_off_c, 6, 69, 0
8, 85504, Note_on_c, 6, 65, 96
8, 86016, Note_off_c, 6, 65, 0
8, 86016, Note_on_c, 6, 72, 96
8, 87040, Note_off_c, 6, 72, 0
8, 87040, Note_on_c, 6, 67, 96
8, 88064, Note_off_c, 6, 67, 0
8, 88064, Note_on_c, 6, 67, 96
8, 89088, Note_off_c, 6, 67, 0
8, 89088, Note_on_c, 6, 67, 96
8, 90112, Note_off_c, 6, 67, 0
8, 90112, Note_on_c, 6, 65, 96
8, 90624, Note_off_c, 6, 65, 0
8, 90624, Note_on_c, 6, 67, 96
8, 91136, Note_off_c, 6, 67, 0
8, 91136, Note_on_c, 6, 65, 96
8, 91648, Note_off_c, 6, 65, 0
8, 91648, Note_on_c, 6, 67, 96
8, 92160, Note_off_c, 6, 67, 0
8, 92160, Note_on_c, 6, 69, 96
8, 92672, Note_off_c, 6, 69, 0
8, 92672, Note_on_c, 6, 67, 96
8, 93184, Note_off_c, 6, 67, 0
8, 93184, Note_on_c, 6, 65, 96
8, 93696, Note_off_c, 6, 65, 0
8, 93696, Note_on_c, 6, 64, 96
8, 94208, Note_off_c, 6, 64, 0
8, 94208, Note_on_c, 6, 62, 96
8, 94720, Note_off_c, 6, 62, 0
8, 94720, Note_on_c, 6, 64, 96
8, 95232, Note_off_c, 6, 64, 0
8, 95232, Note_on_c, 6, 60, 96
8, 96256, Note_off_c, 6, 60, 0
8, 96256, Note_on_c, 6, 60, 96
8, 97280, Note_off_c, 6, 60, 0
8, 102400, Note_on_c, 6, 67, 96
8, 103424, Note_off_c, 6, 67, 0
8, 103424, Note_on_c, 6, 72, 96
8, 104448, Note_off_c, 6, 72, 0
8, 104448, Note_on_c, 6, 69, 96
8, 104960, Note_off_c, 6, 69, 0
8, 104960, Note_on_c, 6, 70, 96
8, 105472, Note_off_c, 6, 70, 0
8, 105472, Note_on_c, 6, 69, 96
8, 105984, Note_off_c, 6, 69, 0
8, 105984, Note_on_c, 6, 72, 96
8, 106496, Note_off_c, 6, 72, 0
8, 106496, Note_on_c, 6, 70, 96
8, 107008, Note_off_c, 6, 70, 0
8, 107008, Note_on_c, 6, 69, 96
8, 107520, Note_off_c, 6, 69, 0
8, 107520, Note_on_c, 6, 67, 96
8, 108544, Note_off_c, 6, 67, 0
8, 108544, Note_on_c, 6, 64, 96
8, 109568, Note_off_c, 6, 64, 0
8, 109568, Note_on_c, 6, 69, 96
8, 110592, Note_off_c, 6, 69, 0
8, 110592, Note_on_c, 6, 65, 96
8, 111616, Note_off_c, 6, 65, 0
8, 111616, Note_on_c, 6, 70, 96
8, 112640, Note_off_c, 6, 70, 0
8, 112640, Note_on_c, 6, 67, 96
8, 113664, Note_off_c, 6, 67, 0
8, 113664, Note_on_c, 6, 69, 96
8, 114688, Note_off_c, 6, 69, 0
8, 115200, Note_on_c, 6, 57, 96
8, 115712, Note_off_c, 6, 57, 0
8, 115712, Note_on_c, 6, 58, 96
8, 116224, Note_off_c, 6, 58, 0
8, 116224, Note_on_c, 6, 60, 96
8, 116736, Note_off_c, 6, 60, 0
8, 116736, Note_on_c, 6, 62, 96
8, 117248, Note_off_c, 6, 62, 0
8, 117248, Note_on_c, 6, 60, 96
8, 117760, Note_off_c, 6, 60, 0
8, 117760, Note_on_c, 6, 62, 96
8, 118272, Note_off_c, 6, 62, 0
8, 118272, Note_on_c, 6, 64, 96
8, 118784, Note_off_c, 6, 64, 0
8, 118784, Note_on_c, 6, 65, 96
8, 119296, Note_off_c, 6, 65, 0
8, 119296, Note_on_c, 6, 67, 96
8, 119808, Note_off_c, 6, 67, 0
8, 119808, Note_on_c, 6, 69, 96
8, 120320, Note_off_c, 6, 69, 0
8, 120320, Note_on_c, 6, 70, 96
8, 120832, Note_off_c, 6, 70, 0
8, 120832, Note_on_c, 6, 69, 96
8, 121344, Note_off_c, 6, 69, 0
8, 121344, Note_on_c, 6, 67, 96
8, 121856, Note_off_c, 6, 67, 0
8, 121856, Note_on_c, 6, 65, 96
8, 122368, Note_off_c, 6, 65, 0
8, 122368, Note_on_c, 6, 69, 96
8, 122880, Note_off_c, 6, 69, 0
8, 122880, Note_on_c, 6, 67, 96
8, 123904, Note_off_c, 6, 67, 0
8, 123904, Note_on_c, 6, 67, 96
8, 124416, Note_off_c, 6, 67, 0
8, 124416, Note_on_c, 6, 69, 96
8, 124928, Note_off_c, 6, 69, 0
8, 124928, Note_on_c, 6, 70, 96
8, 125440, Note_off_c, 6, 70, 0
8, 125440, Note_on_c, 6, 72, 96
8, 125952, Note_off_c, 6, 72, 0
8, 125952, Note_on_c, 6, 69, 96
8, 126976, Note_off_c, 6, 69, 0
8, 126976, Note_on_c, 6, 69, 96
8, 128000, Note_off_c, 6, 69, 0
8, 128000, Note_on_c, 6, 69, 96
8, 129024, Note_off_c, 6, 69, 0
8, 129024, Note_on_c, 6, 71, 96
8, 130048, Note_off_c, 6, 71, 0
8, 130048, Note_on_c, 6, 70, 96
8, 131072, Note_off_c, 6, 70, 0
8, 131072, Note_on_c, 6, 69, 96
8, 132096, Note_off_c, 6, 69, 0
8, 132096, Note_on_c, 6, 69, 96
8, 133120, Note_off_c, 6, 69, 0
8, 133120, Note_on_c, 6, 69, 96
8, 134144, Note_off_c, 6, 69, 0
8, 134144, Note_on_c, 6, 67, 96
8, 135168, Note_off_c, 6, 67, 0
8, 135168, Note_on_c, 6, 69, 96
8, 136192, Note_off_c, 6, 69, 0
8, 138240, Note_on_c, 6, 69, 96
8, 138752, Note_off_c, 6, 69, 0
8, 138752, Note_on_c, 6, 69, 96
8, 139264, Note_off_c, 6, 69, 0
8, 139264, Note_on_c, 6, 67, 96
8, 139776, Note_off_c, 6, 67, 0
8, 139776, Note_on_c, 6, 67, 96
8, 140288, Note_off_c, 6, 67, 0
8, 140288, Note_on_c, 6, 67, 96
8, 140800, Note_off_c, 6, 67, 0
8, 140800, Note_on_c, 6, 67, 96
8, 141312, Note_off_c, 6, 67, 0
8, 141312, Note_on_c, 6, 67, 96
8, 141824, Note_off_c, 6, 67, 0
8, 141824, Note_on_c, 6, 67, 96
8, 142336, Note_off_c, 6, 67, 0
8, 142336, Note_on_c, 6, 67, 96
8, 142848, Note_off_c, 6, 67, 0
8, 142848, Note_on_c, 6, 70, 96
8, 143360, Note_off_c, 6, 70, 0
8, 143360, Note_on_c, 6, 69, 96
8, 143872, Note_off_c, 6, 69, 0
8, 143872, Note_on_c, 6, 69, 96
8, 144384, Note_off_c, 6, 69, 0
8, 144384, Note_on_c, 6, 69, 96
8, 144896, Note_off_c, 6, 69, 0
8, 144896, Note_on_c, 6, 72, 96
8, 145408, Note_off_c, 6, 72, 0
8, 145408, Note_on_c, 6, 70, 96
8, 145920, Note_off_c, 6, 70, 0
8, 145920, Note_on_c, 6, 70, 96
8, 146432, Note_off_c, 6, 70, 0
8, 146432, Note_on_c, 6, 70, 96
8, 146944, Note_off_c, 6, 70, 0
8, 146944, Note_on_c, 6, 70, 96
8, 147456, Note_off_c, 6, 70, 0
8, 147456, Note_on_c, 6, 69, 96
8, 147968, Note_off_c, 6, 69, 0
8, 147968, Note_on_c, 6, 69, 96
8, 148480, Note_off_c, 6, 69, 0
8, 148480, Note_on_c, 6, 69, 96
8, 148992, Note_off_c, 6, 69, 0
8, 148992, Note_on_c, 6, 67, 96
8, 149504, Note_off_c, 6, 67, 0
8, 149504, Note_on_c, 6, 69, 96
8, 150016, Note_off_c, 6, 69, 0
8, 150016, Note_on_c, 6, 69, 96
8, 150528, Note_off_c, 6, 69, 0
8, 150528, Note_on_c, 6, 69, 96
8, 151040, Note_off_c, 6, 69, 0
8, 151040, Note_on_c, 6, 69, 96
8, 151552, Note_off_c, 6, 69, 0
8, 151552, Note_on_c, 6, 65, 96
8, 152064, Note_off_c, 6, 65, 0
8, 152064, Note_on_c, 6, 65, 96
8, 152576, Note_off_c, 6, 65, 0
8, 152576, Note_on_c, 6, 65, 96
8, 153088, Note_off_c, 6, 65, 0
8, 153088, Note_on_c, 6, 65, 96
8, 153600, Note_off_c, 6, 65, 0
8, 153600, Note_on_c, 6, 62, 96
8, 154112, Note_off_c, 6, 62, 0
8, 154112, Note_on_c, 6, 62, 96
8, 154624, Note_off_c, 6, 62, 0
8, 154624, Note_on_c, 6, 62, 96
8, 155136, Note_off_c, 6, 62, 0
8, 155136, Note_on_c, 6, 62, 96
8, 155648, Note_off_c, 6, 62, 0
8, 155648, Note_on_c, 6, 64, 96
8, 157696, Note_off_c, 6, 64, 0
8, 157696, End_track
9, 0, Start_track
9, 0, Title_t, "Instrument 8"
9, 9216, Note_on_c, 7, 60, 96
9, 9728, Note_off_c, 7, 60, 0
9, 9728, Note_on_c, 7, 60, 96
9, 10240, Note_off_c, 7, 60, 0
9, 10240, Note_on_c, 7, 62, 96
9, 10752, Note_off_c, 7, 62, 0
9, 10752, Note_on_c, 7, 58, 96
9, 11264, Note_off_c, 7, 58, 0
9, 11264, Note_on_c, 7, 60, 96
9, 11776, Note_off_c, 7, 60, 0
9, 11776, Note_on_c, 7, 60, 96
9, 12288, Note_off_c, 7, 60, 0
9, 12288, Note_on_c, 7, 60, 96
9, 12800, Note_off_c, 7, 60, 0
9, 17408, Note_on_c, 7, 64, 96
9, 17920, Note_off_c, 7, 64, 0
9, 17920, Note_on_c, 7, 62, 96
9, 18176, Note_off_c, 7, 62, 0
9, 18176, Note_on_c, 7, 60, 96
9, 18432, Note_off_c, 7, 60, 0
9, 18432, Note_on_c, 7, 59, 96
9, 18944, Note_off_c, 7, 59, 0
9, 18944, Note_on_c, 7, 60, 96
9, 19200, Note_off_c, 7, 60, 0
9, 19200, Note_on_c, 7, 62, 96
9, 19456, Note_off_c, 7, 62, 0
9, 19456, Note_on_c, 7, 60, 96
9, 19968, Note_off_c, 7, 60, 0
9, 19968, Note_on_c, 7, 59, 96
9, 20224, Note_off_c, 7, 59, 0
9, 20224, Note_on_c, 7, 60, 96
9, 20480, Note_off_c, 7, 60, 0
9, 20480, Note_on_c, 7, 60, 96
9, 21504, Note_off_c, 7, 60, 0
9, 21504, Note_on_c, 7, 60, 96
9, 22016, Note_off_c, 7, 60, 0
9, 22016, Note_on_c, 7, 57, 96
9, 22528, Note_off_c, 7, 57, 0
9, 22528, Note_on_c, 7, 55, 96
9, 23040, Note_off_c, 7, 55, 0
9, 23040, Note_on_c, 7, 55, 96
9, 23552, Note_off_c, 7, 55, 0
9, 23552, Note_on_c, 7, 55, 96
9, 24064, Note_off_c, 7, 55, 0
9, 24064, Note_on_c, 7, 55, 96
9, 24576, Note_off_c, 7, 55, 0
9, 24576, Note_on_c, 7, 55, 96
9, 25600, Note_off_c, 7, 55, 0
9, 40960, Note_on_c, 7, 60, 96
9, 41984, Note_off_c, 7, 60, 0
9, 41984, Note_on_c, 7, 60, 96
9, 43008, Note_off_c, 7, 60, 0
9, 43008, Note_on_c, 7, 65, 96
9, 43520, Note_off_c, 7, 65, 0
9, 43520, Note_on_c, 7, 67, 96
9, 44032, Note_off_c, 7, 67, 0
9, 44032, Note_on_c, 7, 65, 96
9, 44544, Note_off_c, 7, 65, 0
9, 44544, Note_on_c, 7, 67, 96
9, 45056, Note_off_c, 7, 67, 0
9, 45056, Note_on_c, 7, 65, 96
9, 45568, Note_off_c, 7, 65, 0
9, 45568, Note_on_c, 7, 67, 96
9, 46080, Note_off_c, 7, 67, 0
9, 46080, Note_on_c, 7, 64, 96
9, 46592, Note_off_c, 7, 64, 0
9, 46592, Note_on_c, 7, 65, 96
9, 47104, Note_off_c, 7, 65, 0
9, 47104, Note_on_c, 7, 64, 96
9, 47616, Note_off_c, 7, 64, 0
9, 47616, Note_on_c, 7, 65, 96
9, 48128, Note_off_c, 7, 65, 0
9, 48128, Note_on_c, 7, 64, 96
9, 48640, Note_off_c, 7, 64, 0
9, 48640, Note_on_c, 7, 65, 96
9, 49152, Note_off_c, 7, 65, 0
9, 49152, Note_on_c, 7, 67, 96
9, 49664, Note_off_c, 7, 67, 0
9, 49664, Note_on_c, 7, 69, 96
9, 50176, Note_off_c, 7, 69, 0
9, 50176, Note_on_c, 7, 67, 96
9, 50688, Note_off_c, 7, 67, 0
9, 50688, Note_on_c, 7, 69, 96
9, 51200, Note_off_c, 7, 69, 0
9, 51200, Note_on_c, 7, 67, 96
9, 51712, Note_off_c, 7, 67, 0
9, 51712, Note_on_c, 7, 69, 96
9, 52224, Note_off_c, 7, 69, 0
9, 52224, Note_on_c, 7, 65, 96
9, 52736, Note_off_c, 7, 65, 0
9, 52736, Note_on_c, 7, 67, 96
9, 53248, Note_off_c, 7, 67, 0
9, 53248, Note_on_c, 7, 65, 96
9, 53760, Note_off_c, 7, 65, 0
9, 53760, Note_on_c, 7, 67, 96
9, 54272, Note_off_c, 7, 67, 0
9, 54272, Note_on_c, 7, 65, 96
9, 54784, Note_off_c, 7, 65, 0
9, 54784, Note_on_c, 7, 67, 96
9, 55296, Note_off_c, 7, 67, 0
9, 55296, Note_on_c, 7, 64, 96
9, 55808, Note_off_c, 7, 64, 0
9, 55808, Note_on_c, 7, 65, 96
9, 56320, Note_off_c, 7, 65, 0
9, 56320, Note_on_c, 7, 64, 96
9, 56832, Note_off_c, 7, 64, 0
9, 56832, Note_on_c, 7, 65, 96
9, 57344, Note_off_c, 7, 65, 0
9, 57344, Note_on_c, 7, 64, 96
9, 57856, Note_off_c, 7, 64, 0
9, 57856, Note_on_c, 7, 65, 96
9, 58368, Note_off_c, 7, 65, 0
9, 58368, Note_on_c, 7, 67, 96
9, 59392, Note_off_c, 7, 67, 0
9, 59392, Note_on_c, 7, 60, 96
9, 60416, Note_off_c, 7, 60, 0
9, 60416, Note_on_c, 7, 60, 96
9, 61440, Note_off_c, 7, 60, 0
9, 61440, Note_on_c, 7, 64, 96
9, 61952, Note_off_c, 7, 64, 0
9, 61952, Note_on_c, 7, 62, 96
9, 62464, Note_off_c, 7, 62, 0
9, 62464, Note_on_c, 7, 60, 96
9, 62976, Note_off_c, 7, 60, 0
9, 62976, Note_on_c, 7, 62, 96
9, 63488, Note_off_c, 7, 62, 0
9, 63488, Note_on_c, 7, 64, 96
9, 64000, Note_off_c, 7, 64, 0
9, 64000, Note_on_c, 7, 60, 96
9, 64512, Note_off_c, 7, 60, 0
9, 64512, Note_on_c, 7, 62, 96
9, 65024, Note_off_c, 7, 62, 0
9, 65024, Note_on_c, 7, 60, 96
9, 65536, Note_off_c, 7, 60, 0
9, 65536, Note_on_c, 7, 62, 96
9, 66560, Note_off_c, 7, 62, 0
9, 66560, Note_on_c, 7, 58, 96
9, 67584, Note_off_c, 7, 58, 0
9, 67584, Note_on_c, 7, 57, 96
9, 68608, Note_off_c, 7, 57, 0
9, 68608, Note_on_c, 7, 53, 96
9, 69632, Note_off_c, 7, 53, 0
9, 69632, Note_on_c, 7, 62, 96
9, 70656, Note_off_c, 7, 62, 0
9, 70656, Note_on_c, 7, 57, 96
9, 71168, Note_off_c, 7, 57, 0
9, 71168, Note_on_c, 7, 58, 96
9, 71680, Note_off_c, 7, 58, 0
9, 71680, Note_on_c, 7, 60, 96
9, 72704, Note_off_c, 7, 60, 0
9, 72704, Note_on_c, 7, 60, 96
9, 73728, Note_off_c, 7, 60, 0
9, 73728, Note_on_c, 7, 55, 96
9, 74240, Note_off_c, 7, 55, 0
9, 74240, Note_on_c, 7, 57, 96
9, 74752, Note_off_c, 7, 57, 0
9, 74752, Note_on_c, 7, 58, 96
9, 75776, Note_off_c, 7, 58, 0
9, 75776, Note_on_c, 7, 58, 96
9, 76800, Note_off_c, 7, 58, 0
9, 76800, Note_on_c, 7, 57, 96
9, 77312, Note_off_c, 7, 57, 0
9, 77312, Note_on_c, 7, 58, 96
9, 77824, Note_off_c, 7, 58, 0
9, 77824, Note_on_c, 7, 57, 96
9, 78336, Note_off_c, 7, 57, 0
9, 78336, Note_on_c, 7, 58, 96
9, 78848, Note_off_c, 7, 58, 0
9, 78848, Note_on_c, 7, 57, 96
9, 79360, Note_off_c, 7, 57, 0
9, 79360, Note_on_c, 7, 58, 96
9, 79872, Note_off_c, 7, 58, 0
9, 79872, Note_on_c, 7, 60, 96
9, 80896, Note_off_c, 7, 60, 0
9, 80896, Note_on_c, 7, 58, 96
9, 81408, Note_off_c, 7, 58, 0
9, 81408, Note_on_c, 7, 60, 96
9, 81920, Note_off_c, 7, 60, 0
9, 81920, Note_on_c, 7, 58, 96
9, 82432, Note_off_c, 7, 58, 0
9, 82432, Note_on_c, 7, 60, 96
9, 82944, Note_off_c, 7, 60, 0
9, 82944, Note_on_c, 7, 57, 96
9, 83456, Note_off_c, 7, 57, 0
9, 83456, Note_on_c, 7, 58, 96
9, 83968, Note_off_c, 7, 58, 0
9, 83968, Note_on_c, 7, 57, 96
9, 84480, Note_off_c, 7, 57, 0
9, 84480, Note_on_c, 7, 55, 96
9, 84992, Note_off_c, 7, 55, 0
9, 84992, Note_on_c, 7, 53, 96
9, 85504, Note_off_c, 7, 53, 0
9, 85504, Note_on_c, 7, 57, 96
9, 86016, Note_off_c, 7, 57, 0
9, 86016, Note_on_c, 7, 55, 96
9, 86528, Note_off_c, 7, 55, 0
9, 86528, Note_on_c, 7, 57, 96
9, 87040, Note_off_c, 7, 57, 0
9, 87040, Note_on_c, 7, 55, 96
9, 87552, Note_off_c, 7, 55, 0
9, 87552, Note_on_c, 7, 57, 96
9, 88064, Note_off_c, 7, 57, 0
9, 88064, Note_on_c, 7, 55, 96
9, 88576, Note_off_c, 7, 55, 0
9, 88576, Note_on_c, 7, 57, 96
9, 89088, Note_off_c, 7, 57, 0
9, 89088, Note_on_c, 7, 58, 96
9, 89600, Note_off_c, 7, 58, 0
9, 89600, Note_on_c, 7, 60, 96
9, 90112, Note_off_c, 7, 60, 0
9, 90112, Note_on_c, 7, 62, 96
9, 90624, Note_off_c, 7, 62, 0
9, 90624, Note_on_c, 7, 60, 96
9, 91136, Note_off_c, 7, 60, 0
9, 91136, Note_on_c, 7, 62, 96
9, 91648, Note_off_c, 7, 62, 0
9, 91648, Note_on_c, 7, 58, 96
9, 92160, Note_off_c, 7, 58, 0
9, 92160, Note_on_c, 7, 65, 96
9, 93184, Note_off_c, 7, 65, 0
9, 93184, Note_on_c, 7, 57, 96
9, 94208, Note_off_c, 7, 57, 0
9, 94208, Note_on_c, 7, 59, 96
9, 95232, Note_off_c, 7, 59, 0
9, 95232, Note_on_c, 7, 60, 96
9, 96256, Note_off_c, 7, 60, 0
9, 96256, Note_on_c, 7, 55, 96
9, 97280, Note_off_c, 7, 55, 0
9, 99328, Note_on_c, 7, 60, 96
9, 100352, Note_off_c, 7, 60, 0
9, 100352, Note_on_c, 7, 65, 96
9, 101376, Note_off_c, 7, 65, 0
9, 101376, Note_on_c, 7, 64, 96
9, 101888, Note_off_c, 7, 64, 0
9, 101888, Note_on_c, 7, 65, 96
9, 102400, Note_off_c, 7, 65, 0
9, 102400, Note_on_c, 7, 64, 96
9, 102912, Note_off_c, 7, 64, 0
9, 102912, Note_on_c, 7, 65, 96
9, 103424, Note_off_c, 7, 65, 0
9, 103424, Note_on_c, 7, 62, 96
9, 103936, Note_off_c, 7, 62, 0
9, 103936, Note_on_c, 7, 64, 96
9, 104448, Note_off_c, 7, 64, 0
9, 104448, Note_on_c, 7, 65, 96
9, 104960, Note_off_c, 7, 65, 0
9, 104960, Note_on_c, 7, 67, 96
9, 105472, Note_off_c, 7, 67, 0
9, 105472, Note_on_c, 7, 69, 96
9, 105984, Note_off_c, 7, 69, 0
9, 105984, Note_on_c, 7, 64, 96
9, 106496, Note_off_c, 7, 64, 0
9, 106496, Note_on_c, 7, 65, 96
9, 107008, Note_off_c, 7, 65, 0
9, 107008, Note_on_c, 7, 62, 96
9, 107520, Note_off_c, 7, 62, 0
9, 107520, Note_on_c, 7, 67, 96
9, 108544, Note_off_c, 7, 67, 0
9, 108544, Note_on_c, 7, 55, 96
9, 109568, Note_off_c, 7, 55, 0
9, 109568, Note_on_c, 7, 60, 96
9, 110592, Note_off_c, 7, 60, 0
9, 110592, Note_on_c, 7, 58, 96
9, 111616, Note_off_c, 7, 58, 0
9, 111616, Note_on_c, 7, 62, 96
9, 112640, Note_off_c, 7, 62, 0
9, 112640, Note_on_c, 7, 60, 96
9, 113664, Note_off_c, 7, 60, 0
9, 113664, Note_on_c, 7, 60, 96
9, 114688, Note_off_c, 7, 60, 0
9, 115200, Note_on_c, 7, 53, 96
9, 115712, Note_off_c, 7, 53, 0
9, 115712, Note_on_c, 7, 55, 96
9, 116224, Note_off_c, 7, 55, 0
9, 116224, Note_on_c, 7, 57, 96
9, 116736, Note_off_c, 7, 57, 0
9, 116736, Note_on_c, 7, 58, 96
9, 117248, Note_off_c, 7, 58, 0
9, 117248, Note_on_c, 7, 57, 96
9, 117760, Note_off_c, 7, 57, 0
9, 117760, Note_on_c, 7, 58, 96
9, 118272, Note_off_c, 7, 58, 0
9, 118272, Note_on_c, 7, 60, 96
9, 118784, Note_off_c, 7, 60, 0
9, 118784, Note_on_c, 7, 62, 96
9, 119296, Note_off_c, 7, 62, 0
9, 119296, Note_on_c, 7, 64, 96
9, 119808, Note_off_c, 7, 64, 0
9, 119808, Note_on_c, 7, 65, 96
9, 120320, Note_off_c, 7, 65, 0
9, 120320, Note_on_c, 7, 67, 96
9, 120832, Note_off_c, 7, 67, 0
9, 120832, Note_on_c, 7, 65, 96
9, 121344, Note_off_c, 7, 65, 0
9, 121344, Note_on_c, 7, 64, 96
9, 121856, Note_off_c, 7, 64, 0
9, 121856, Note_on_c, 7, 62, 96
9, 122368, Note_off_c, 7, 62, 0
9, 122368, Note_on_c, 7, 60, 96
9, 122880, Note_off_c, 7, 60, 0
9, 122880, Note_on_c, 7, 58, 96
9, 123392, Note_off_c, 7, 58, 0
9, 123392, Note_on_c, 7, 57, 96
9, 123904, Note_off_c, 7, 57, 0
9, 123904, Note_on_c, 7, 58, 96
9, 124416, Note_off_c, 7, 58, 0
9, 124416, Note_on_c, 7, 55, 96
9, 124928, Note_off_c, 7, 55, 0
9, 124928, Note_on_c, 7, 60, 96
9, 125440, Note_off_c, 7, 60, 0
9, 125440, Note_on_c, 7, 48, 96
9, 125952, Note_off_c, 7, 48, 0
9, 125952, Note_on_c, 7, 53, 96
9, 126976, Note_off_c, 7, 53, 0
9, 126976, Note_on_c, 7, 60, 96
9, 128000, Note_off_c, 7, 60, 0
9, 128000, Note_on_c, 7, 62, 96
9, 129024, Note_off_c, 7, 62, 0
9, 129024, Note_on_c, 7, 62, 96
9, 129536, Note_off_c, 7, 62, 0
9, 129536, Note_on_c, 7, 64, 96
9, 130048, Note_off_c, 7, 64, 0
9, 130048, Note_on_c, 7, 64, 96
9, 130560, Note_off_c, 7, 64, 0
9, 130560, Note_on_c, 7, 65, 96
9, 131072, Note_off_c, 7, 65, 0
9, 131072, Note_on_c, 7, 64, 96
9, 132096, Note_off_c, 7, 64, 0
9, 132096, Note_on_c, 7, 65, 96
9, 133120, Note_off_c, 7, 65, 0
9, 133120, Note_on_c, 7, 65, 96
9, 134144, Note_off_c, 7, 65, 0
9, 134144, Note_on_c, 7, 64, 96
9, 134656, Note_off_c, 7, 64, 0
9, 134656, Note_on_c, 7, 62, 96
9, 135168, Note_off_c, 7, 62, 0
9, 135168, Note_on_c, 7, 64, 96
9, 136192, Note_off_c, 7, 64, 0
9, 138240, Note_on_c, 7, 62, 96
9, 138752, Note_off_c, 7, 62, 0
9, 138752, Note_on_c, 7, 60, 96
9, 139264, Note_off_c, 7, 60, 0
9, 139264, Note_on_c, 7, 62, 96
9, 139776, Note_off_c, 7, 62, 0
9, 139776, Note_on_c, 7, 62, 96
9, 140288, Note_off_c, 7, 62, 0
9, 140288, Note_on_c, 7, 62, 96
9, 140800, Note_off_c, 7, 62, 0
9, 140800, Note_on_c, 7, 62, 96
9, 141312, Note_off_c, 7, 62, 0
9, 141312, Note_on_c, 7, 60, 96
9, 141824, Note_off_c, 7, 60, 0
9, 141824, Note_on_c, 7, 60, 96
9, 142336, Note_off_c, 7, 60, 0
9, 142336, Note_on_c, 7, 60, 96
9, 142848, Note_off_c, 7, 60, 0
9, 142848, Note_on_c, 7, 58, 96
9, 143360, Note_off_c, 7, 58, 0
9, 143360, Note_on_c, 7, 60, 96
9, 143872, Note_off_c, 7, 60, 0
9, 143872, Note_on_c, 7, 61, 96
9, 144384, Note_off_c, 7, 61, 0
9, 144384, Note_on_c, 7, 62, 96
9, 144896, Note_off_c, 7, 62, 0
9, 144896, Note_on_c, 7, 62, 96
9, 145408, Note_off_c, 7, 62, 0
9, 145408, Note_on_c, 7, 62, 96
9, 145920, Note_off_c, 7, 62, 0
9, 145920, Note_on_c, 7, 62, 96
9, 146432, Note_off_c, 7, 62, 0
9, 146432, Note_on_c, 7, 67, 96
9, 146944, Note_off_c, 7, 67, 0
9, 146944, Note_on_c, 7, 65, 96
9, 147456, Note_off_c, 7, 65, 0
9, 147456, Note_on_c, 7, 64, 96
9, 147968, Note_off_c, 7, 64, 0
9, 147968, Note_on_c, 7, 64, 96
9, 148480, Note_off_c, 7, 64, 0
9, 148480, Note_on_c, 7, 65, 96
9, 148992, Note_off_c, 7, 65, 0
9, 148992, Note_on_c, 7, 62, 96
9, 149504, Note_off_c, 7, 62, 0
9, 149504, Note_on_c, 7, 64, 96
9, 150016, Note_off_c, 7, 64, 0
9, 150016, Note_on_c, 7, 64, 96
9, 150528, Note_off_c, 7, 64, 0
9, 150528, Note_on_c, 7, 64, 96
9, 151040, Note_off_c, 7, 64, 0
9, 151040, Note_on_c, 7, 64, 96
9, 151552, Note_off_c, 7, 64, 0
9, 151552, Note_on_c, 7, 62, 96
9, 152064, Note_off_c, 7, 62, 0
9, 152064, Note_on_c, 7, 62, 96
9, 152576, Note_off_c, 7, 62, 0
9, 152576, Note_on_c, 7, 62, 96
9, 153088, Note_off_c, 7, 62, 0
9, 153088, Note_on_c, 7, 62, 96
9, 153600, Note_off_c, 7, 62, 0
9, 153600, Note_on_c, 7, 67, 96
9, 154112, Note_off_c, 7, 67, 0
9, 154112, Note_on_c, 7, 65, 96
9, 154624, Note_off_c, 7, 65, 0
9, 154624, Note_on_c, 7, 64, 96
9, 155136, Note_off_c, 7, 64, 0
9, 155136, Note_on_c, 7, 65, 96
9, 155392, Note_off_c, 7, 65, 0
9, 155392, Note_on_c, 7, 67, 96
9, 155648, Note_off_c, 7, 67, 0
9, 155648, Note_on_c, 7, 64, 96
9, 157696, Note_off_c, 7, 64, 0
9, 157696, End_track
0, 0, End_of_file
