0, 0, Header, 1, 4, 120
1, 0, Start_track
1, 0, Title_t, "Polonaise in Dm"
1, 0, Title_t, "from ""Anna Magdalena's Notebook"""
1, 0, Text_t, "Possibly by Carl Philipp Emanuel Bach\012"
1, 0, Text_t, "Compiled for Magdalena's Notebook by Johann Sebastian Bach (1685-1750)\012"
1, 0, Text_t, "Programmed for MIDI by Lory Werths\012"
1, 0, Time_signature, 3, 2, 24, 8
1, 0, Key_signature, -1, "major"
1, 0, Tempo, 600000
1, 2880, Tempo, 600000
1, 2880, End_track
2, 0, Start_track
2, 0, Title_t, " "
2, 0, Control_c, 0, 0, 0
2, 0, Control_c, 0, 7, 105
2, 0, Control_c, 0, 10, 32
2, 0, Control_c, 0, 32, 8
2, 0, Program_c, 0, 6
2, 119, Control_c, 0, 0, 8
2, 120, Program_c, 0, 6
2, 360, Note_on_c, 0, 74, 100
2, 419, Note_on_c, 0, 74, 0
2, 420, Note_on_c, 0, 74, 100
2, 449, Note_on_c, 0, 74, 0
2, 450, Note_on_c, 0, 73, 100
2, 479, Note_on_c, 0, 73, 0
2, 480, Note_on_c, 0, 74, 100
2, 495, Note_on_c, 0, 74, 0
2, 495, Note_on_c, 0, 73, 100
2, 510, Note_on_c, 0, 73, 0
2, 510, Note_on_c, 0, 74, 100
2, 599, Note_on_c, 0, 74, 0
2, 600, Note_on_c, 0, 74, 100
2, 615, Note_on_c, 0, 74, 0
2, 615, Note_on_c, 0, 76, 100
2, 630, Note_on_c, 0, 76, 0
2, 630, Note_on_c, 0, 77, 100
2, 719, Note_on_c, 0, 77, 0
2, 720, Note_on_c, 0, 77, 100
2, 735, Note_on_c, 0, 77, 0
2, 735, Note_on_c, 0, 76, 100
2, 750, Note_on_c, 0, 76, 0
2, 750, Note_on_c, 0, 74, 100
2, 779, Note_on_c, 0, 74, 0
2, 780, Note_on_c, 0, 76, 100
2, 839, Note_on_c, 0, 76, 0
2, 840, Note_on_c, 0, 69, 100
2, 1079, Note_on_c, 0, 69, 0
2, 1080, Note_on_c, 0, 76, 100
2, 1139, Note_on_c, 0, 76, 0
2, 1140, Note_on_c, 0, 76, 100
2, 1169, Note_on_c, 0, 76, 0
2, 1170, Note_on_c, 0, 74, 100
2, 1199, Note_on_c, 0, 74, 0
2, 1200, Note_on_c, 0, 76, 100
2, 1215, Note_on_c, 0, 76, 0
2, 1215, Note_on_c, 0, 74, 100
2, 1230, Note_on_c, 0, 74, 0
2, 1230, Note_on_c, 0, 76, 100
2, 1319, Note_on_c, 0, 76, 0
2, 1320, Note_on_c, 0, 76, 100
2, 1379, Note_on_c, 0, 76, 0
2, 1380, Note_on_c, 0, 77, 100
2, 1409, Note_on_c, 0, 77, 0
2, 1410, Note_on_c, 0, 79, 100
2, 1439, Note_on_c, 0, 79, 0
2, 1440, Note_on_c, 0, 77, 100
2, 1499, Note_on_c, 0, 77, 0
2, 1500, Note_on_c, 0, 77, 100
2, 1529, Note_on_c, 0, 77, 0
2, 1530, Note_on_c, 0, 76, 100
2, 1559, Note_on_c, 0, 76, 0
2, 1560, Note_on_c, 0, 77, 100
2, 1619, Note_on_c, 0, 77, 0
2, 1620, Note_on_c, 0, 77, 100
2, 1649, Note_on_c, 0, 77, 0
2, 1650, Note_on_c, 0, 76, 100
2, 1679, Note_on_c, 0, 76, 0
2, 1680, Note_on_c, 0, 74, 100
2, 1695, Note_on_c, 0, 74, 0
2, 1695, Note_on_c, 0, 73, 100
2, 1710, Note_on_c, 0, 73, 0
2, 1710, Note_on_c, 0, 74, 100
2, 1799, Note_on_c, 0, 74, 0
2, 1800, Note_on_c, 0, 77, 100
2, 1859, Note_on_c, 0, 77, 0
2, 1860, Note_on_c, 0, 77, 100
2, 1880, Note_on_c, 0, 77, 0
2, 1880, Note_on_c, 0, 79, 100
2, 1900, Note_on_c, 0, 79, 0
2, 1900, Note_on_c, 0, 81, 100
2, 1920, Note_on_c, 0, 81, 0
2, 1920, Note_on_c, 0, 79, 100
2, 1979, Note_on_c, 0, 79, 0
2, 1980, Note_on_c, 0, 76, 100
2, 2039, Note_on_c, 0, 76, 0
2, 2040, Note_on_c, 0, 74, 100
2, 2099, Note_on_c, 0, 74, 0
2, 2100, Note_on_c, 0, 72, 100
2, 2159, Note_on_c, 0, 72, 0
2, 2160, Note_on_c, 0, 79, 100
2, 2219, Note_on_c, 0, 79, 0
2, 2220, Note_on_c, 0, 79, 100
2, 2249, Note_on_c, 0, 79, 0
2, 2250, Note_on_c, 0, 81, 100
2, 2279, Note_on_c, 0, 81, 0
2, 2280, Note_on_c, 0, 82, 100
2, 2339, Note_on_c, 0, 82, 0
2, 2340, Note_on_c, 0, 81, 100
2, 2399, Note_on_c, 0, 81, 0
2, 2400, Note_on_c, 0, 82, 100
2, 2519, Note_on_c, 0, 82, 0
2, 2520, Note_on_c, 0, 81, 100
2, 2579, Note_on_c, 0, 81, 0
2, 2580, Note_on_c, 0, 79, 100
2, 2609, Note_on_c, 0, 79, 0
2, 2610, Note_on_c, 0, 77, 100
2, 2639, Note_on_c, 0, 77, 0
2, 2640, Note_on_c, 0, 79, 100
2, 2655, Note_on_c, 0, 79, 0
2, 2655, Note_on_c, 0, 81, 100
2, 2670, Note_on_c, 0, 81, 0
2, 2670, Note_on_c, 0, 79, 100
2, 2759, Note_on_c, 0, 79, 0
2, 2760, Note_on_c, 0, 77, 100
2, 2780, Note_on_c, 0, 77, 0
2, 2780, Note_on_c, 0, 76, 100
2, 2800, Note_on_c, 0, 76, 0
2, 2800, Note_on_c, 0, 77, 100
2, 2820, Note_on_c, 0, 77, 0
2, 2820, Note_on_c, 0, 76, 100
2, 2840, Note_on_c, 0, 76, 0
2, 2840, Note_on_c, 0, 77, 100
2, 2860, Note_on_c, 0, 77, 0
2, 2860, Note_on_c, 0, 76, 100
2, 2880, Note_on_c, 0, 76, 0
2, 2880, Note_on_c, 0, 77, 100
2, 2939, Note_on_c, 0, 77, 0
2, 2940, Note_on_c, 0, 77, 100
2, 2969, Note_on_c, 0, 77, 0
2, 2970, Note_on_c, 0, 76, 100
2, 2999, Note_on_c, 0, 76, 0
2, 3000, Note_on_c, 0, 77, 100
2, 3015, Note_on_c, 0, 77, 0
2, 3015, Note_on_c, 0, 76, 100
2, 3030, Note_on_c, 0, 76, 0
2, 3030, Note_on_c, 0, 77, 100
2, 3119, Note_on_c, 0, 77, 0
2, 3120, Note_on_c, 0, 65, 100
2, 3239, Note_on_c, 0, 65, 0
2, 3240, Note_on_c, 0, 74, 100
2, 3299, Note_on_c, 0, 74, 0
2, 3300, Note_on_c, 0, 74, 100
2, 3329, Note_on_c, 0, 74, 0
2, 3330, Note_on_c, 0, 73, 100
2, 3359, Note_on_c, 0, 73, 0
2, 3360, Note_on_c, 0, 74, 100
2, 3375, Note_on_c, 0, 74, 0
2, 3375, Note_on_c, 0, 73, 100
2, 3390, Note_on_c, 0, 73, 0
2, 3390, Note_on_c, 0, 74, 100
2, 3479, Note_on_c, 0, 74, 0
2, 3480, Note_on_c, 0, 74, 100
2, 3495, Note_on_c, 0, 74, 0
2, 3495, Note_on_c, 0, 76, 100
2, 3510, Note_on_c, 0, 76, 0
2, 3510, Note_on_c, 0, 77, 100
2, 3599, Note_on_c, 0, 77, 0
2, 3600, Note_on_c, 0, 77, 100
2, 3615, Note_on_c, 0, 77, 0
2, 3615, Note_on_c, 0, 76, 100
2, 3630, Note_on_c, 0, 76, 0
2, 3630, Note_on_c, 0, 74, 100
2, 3659, Note_on_c, 0, 74, 0
2, 3660, Note_on_c, 0, 76, 100
2, 3719, Note_on_c, 0, 76, 0
2, 3720, Note_on_c, 0, 69, 100
2, 3959, Note_on_c, 0, 69, 0
2, 3960, Note_on_c, 0, 76, 100
2, 4019, Note_on_c, 0, 76, 0
2, 4020, Note_on_c, 0, 76, 100
2, 4049, Note_on_c, 0, 76, 0
2, 4050, Note_on_c, 0, 74, 100
2, 4079, Note_on_c, 0, 74, 0
2, 4080, Note_on_c, 0, 76, 100
2, 4095, Note_on_c, 0, 76, 0
2, 4095, Note_on_c, 0, 74, 100
2, 4110, Note_on_c, 0, 74, 0
2, 4110, Note_on_c, 0, 76, 100
2, 4199, Note_on_c, 0, 76, 0
2, 4200, Note_on_c, 0, 76, 100
2, 4259, Note_on_c, 0, 76, 0
2, 4260, Note_on_c, 0, 77, 100
2, 4289, Note_on_c, 0, 77, 0
2, 4290, Note_on_c, 0, 79, 100
2, 4319, Note_on_c, 0, 79, 0
2, 4320, Note_on_c, 0, 77, 100
2, 4379, Note_on_c, 0, 77, 0
2, 4380, Note_on_c, 0, 77, 100
2, 4409, Note_on_c, 0, 77, 0
2, 4410, Note_on_c, 0, 76, 100
2, 4439, Note_on_c, 0, 76, 0
2, 4440, Note_on_c, 0, 77, 100
2, 4499, Note_on_c, 0, 77, 0
2, 4500, Note_on_c, 0, 77, 100
2, 4529, Note_on_c, 0, 77, 0
2, 4530, Note_on_c, 0, 76, 100
2, 4559, Note_on_c, 0, 76, 0
2, 4560, Note_on_c, 0, 74, 100
2, 4575, Note_on_c, 0, 74, 0
2, 4575, Note_on_c, 0, 73, 100
2, 4590, Note_on_c, 0, 73, 0
2, 4590, Note_on_c, 0, 74, 100
2, 4679, Note_on_c, 0, 74, 0
2, 4680, Note_on_c, 0, 77, 100
2, 4739, Note_on_c, 0, 77, 0
2, 4740, Note_on_c, 0, 77, 100
2, 4760, Note_on_c, 0, 77, 0
2, 4760, Note_on_c, 0, 79, 100
2, 4780, Note_on_c, 0, 79, 0
2, 4780, Note_on_c, 0, 81, 100
2, 4800, Note_on_c, 0, 81, 0
2, 4800, Note_on_c, 0, 79, 100
2, 4859, Note_on_c, 0, 79, 0
2, 4860, Note_on_c, 0, 76, 100
2, 4919, Note_on_c, 0, 76, 0
2, 4920, Note_on_c, 0, 74, 100
2, 4979, Note_on_c, 0, 74, 0
2, 4980, Note_on_c, 0, 72, 100
2, 5039, Note_on_c, 0, 72, 0
2, 5040, Note_on_c, 0, 79, 100
2, 5099, Note_on_c, 0, 79, 0
2, 5100, Note_on_c, 0, 79, 100
2, 5129, Note_on_c, 0, 79, 0
2, 5130, Note_on_c, 0, 81, 100
2, 5159, Note_on_c, 0, 81, 0
2, 5160, Note_on_c, 0, 82, 100
2, 5219, Note_on_c, 0, 82, 0
2, 5220, Note_on_c, 0, 81, 100
2, 5279, Note_on_c, 0, 81, 0
2, 5280, Note_on_c, 0, 82, 100
2, 5399, Note_on_c, 0, 82, 0
2, 5400, Note_on_c, 0, 81, 100
2, 5459, Note_on_c, 0, 81, 0
2, 5460, Note_on_c, 0, 79, 100
2, 5489, Note_on_c, 0, 79, 0
2, 5490, Note_on_c, 0, 77, 100
2, 5519, Note_on_c, 0, 77, 0
2, 5520, Note_on_c, 0, 79, 100
2, 5535, Note_on_c, 0, 79, 0
2, 5535, Note_on_c, 0, 81, 100
2, 5550, Note_on_c, 0, 81, 0
2, 5550, Note_on_c, 0, 79, 100
2, 5639, Note_on_c, 0, 79, 0
2, 5640, Note_on_c, 0, 77, 100
2, 5660, Note_on_c, 0, 77, 0
2, 5660, Note_on_c, 0, 76, 100
2, 5680, Note_on_c, 0, 76, 0
2, 5680, Note_on_c, 0, 77, 100
2, 5700, Note_on_c, 0, 77, 0
2, 5700, Note_on_c, 0, 76, 100
2, 5720, Note_on_c, 0, 76, 0
2, 5720, Note_on_c, 0, 77, 100
2, 5740, Note_on_c, 0, 77, 0
2, 5740, Note_on_c, 0, 76, 100
2, 5760, Note_on_c, 0, 76, 0
2, 5760, Note_on_c, 0, 77, 100
2, 5819, Note_on_c, 0, 77, 0
2, 5820, Note_on_c, 0, 77, 100
2, 5849, Note_on_c, 0, 77, 0
2, 5850, Note_on_c, 0, 76, 100
2, 5879, Note_on_c, 0, 76, 0
2, 5880, Note_on_c, 0, 77, 100
2, 5895, Note_on_c, 0, 77, 0
2, 5895, Note_on_c, 0, 76, 100
2, 5910, Note_on_c, 0, 76, 0
2, 5910, Note_on_c, 0, 77, 100
2, 5999, Note_on_c, 0, 77, 0
2, 6000, Note_on_c, 0, 65, 100
2, 6119, Note_on_c, 0, 65, 0
2, 6120, Note_on_c, 0, 81, 100
2, 6179, Note_on_c, 0, 81, 0
2, 6180, Note_on_c, 0, 81, 100
2, 6209, Note_on_c, 0, 81, 0
2, 6210, Note_on_c, 0, 79, 100
2, 6239, Note_on_c, 0, 79, 0
2, 6240, Note_on_c, 0, 81, 100
2, 6255, Note_on_c, 0, 81, 0
2, 6255, Note_on_c, 0, 79, 100
2, 6270, Note_on_c, 0, 79, 0
2, 6270, Note_on_c, 0, 81, 100
2, 6359, Note_on_c, 0, 81, 0
2, 6360, Note_on_c, 0, 81, 100
2, 6375, Note_on_c, 0, 81, 0
2, 6375, Note_on_c, 0, 82, 100
2, 6390, Note_on_c, 0, 82, 0
2, 6390, Note_on_c, 0, 84, 100
2, 6479, Note_on_c, 0, 84, 0
2, 6480, Note_on_c, 0, 81, 100
2, 6539, Note_on_c, 0, 81, 0
2, 6540, Note_on_c, 0, 81, 100
2, 6569, Note_on_c, 0, 81, 0
2, 6570, Note_on_c, 0, 79, 100
2, 6599, Note_on_c, 0, 79, 0
2, 6600, Note_on_c, 0, 81, 100
2, 6659, Note_on_c, 0, 81, 0
2, 6660, Note_on_c, 0, 81, 100
2, 6689, Note_on_c, 0, 81, 0
2, 6690, Note_on_c, 0, 79, 100
2, 6719, Note_on_c, 0, 79, 0
2, 6720, Note_on_c, 0, 77, 100
2, 6735, Note_on_c, 0, 77, 0
2, 6735, Note_on_c, 0, 76, 100
2, 6750, Note_on_c, 0, 76, 0
2, 6750, Note_on_c, 0, 77, 100
2, 6839, Note_on_c, 0, 77, 0
2, 6840, Note_on_c, 0, 72, 100
2, 6899, Note_on_c, 0, 72, 0
2, 6900, Note_on_c, 0, 70, 100
2, 6929, Note_on_c, 0, 70, 0
2, 6930, Note_on_c, 0, 69, 100
2, 6959, Note_on_c, 0, 69, 0
2, 6960, Note_on_c, 0, 74, 100
2, 7019, Note_on_c, 0, 74, 0
2, 7020, Note_on_c, 0, 72, 100
2, 7079, Note_on_c, 0, 72, 0
2, 7080, Note_on_c, 0, 70, 100
2, 7088, Note_on_c, 0, 70, 0
2, 7088, Note_on_c, 0, 72, 100
2, 7095, Note_on_c, 0, 72, 0
2, 7095, Note_on_c, 0, 70, 100
2, 7140, Note_on_c, 0, 70, 0
2, 7140, Note_on_c, 0, 69, 100
2, 7199, Note_on_c, 0, 69, 0
2, 7200, Note_on_c, 0, 67, 100
2, 7259, Note_on_c, 0, 67, 0
2, 7260, Note_on_c, 0, 79, 100
2, 7319, Note_on_c, 0, 79, 0
2, 7320, Note_on_c, 0, 77, 100
2, 7340, Note_on_c, 0, 77, 0
2, 7340, Note_on_c, 0, 76, 100
2, 7360, Note_on_c, 0, 76, 0
2, 7360, Note_on_c, 0, 77, 100
2, 7380, Note_on_c, 0, 77, 0
2, 7380, Note_on_c, 0, 76, 100
2, 7400, Note_on_c, 0, 76, 0
2, 7400, Note_on_c, 0, 77, 100
2, 7420, Note_on_c, 0, 77, 0
2, 7420, Note_on_c, 0, 76, 100
2, 7440, Note_on_c, 0, 76, 0
2, 7440, Note_on_c, 0, 77, 100
2, 7460, Note_on_c, 0, 77, 0
2, 7460, Note_on_c, 0, 76, 100
2, 7480, Note_on_c, 0, 76, 0
2, 7480, Note_on_c, 0, 77, 100
2, 7500, Note_on_c, 0, 77, 0
2, 7500, Note_on_c, 0, 76, 100
2, 7520, Note_on_c, 0, 76, 0
2, 7520, Note_on_c, 0, 77, 100
2, 7540, Note_on_c, 0, 77, 0
2, 7540, Note_on_c, 0, 76, 100
2, 7560, Note_on_c, 0, 76, 0
2, 7560, Note_on_c, 0, 67, 100
2, 7589, Note_on_c, 0, 67, 0
2, 7590, Note_on_c, 0, 72, 100
2, 7619, Note_on_c, 0, 72, 0
2, 7620, Note_on_c, 0, 76, 100
2, 7649, Note_on_c, 0, 76, 0
2, 7650, Note_on_c, 0, 72, 100
2, 7679, Note_on_c, 0, 72, 0
2, 7680, Note_on_c, 0, 67, 100
2, 7709, Note_on_c, 0, 67, 0
2, 7710, Note_on_c, 0, 72, 100
2, 7739, Note_on_c, 0, 72, 0
2, 7740, Note_on_c, 0, 76, 100
2, 7769, Note_on_c, 0, 76, 0
2, 7770, Note_on_c, 0, 72, 100
2, 7799, Note_on_c, 0, 72, 0
2, 7800, Note_on_c, 0, 67, 100
2, 7829, Note_on_c, 0, 67, 0
2, 7830, Note_on_c, 0, 72, 100
2, 7859, Note_on_c, 0, 72, 0
2, 7860, Note_on_c, 0, 76, 100
2, 7889, Note_on_c, 0, 76, 0
2, 7890, Note_on_c, 0, 74, 100
2, 7919, Note_on_c, 0, 74, 0
2, 7920, Note_on_c, 0, 72, 100
2, 7979, Note_on_c, 0, 72, 0
2, 7980, Note_on_c, 0, 76, 100
2, 8000, Note_on_c, 0, 76, 0
2, 8000, Note_on_c, 0, 77, 100
2, 8020, Note_on_c, 0, 77, 0
2, 8020, Note_on_c, 0, 79, 100
2, 8040, Note_on_c, 0, 79, 0
2, 8040, Note_on_c, 0, 72, 100
2, 8055, Note_on_c, 0, 72, 0
2, 8055, Note_on_c, 0, 70, 100
2, 8070, Note_on_c, 0, 70, 0
2, 8070, Note_on_c, 0, 70, 100
2, 8279, Note_on_c, 0, 70, 0
2, 8280, Note_on_c, 0, 72, 100
2, 8295, Note_on_c, 0, 72, 0
2, 8295, Note_on_c, 0, 70, 100
2, 8310, Note_on_c, 0, 70, 0
2, 8310, Note_on_c, 0, 69, 100
2, 8339, Note_on_c, 0, 69, 0
2, 8340, Note_on_c, 0, 70, 100
2, 8369, Note_on_c, 0, 70, 0
2, 8370, Note_on_c, 0, 67, 100
2, 8399, Note_on_c, 0, 67, 0
2, 8400, Note_on_c, 0, 69, 100
2, 8415, Note_on_c, 0, 69, 0
2, 8415, Note_on_c, 0, 67, 100
2, 8430, Note_on_c, 0, 67, 0
2, 8430, Note_on_c, 0, 69, 100
2, 8639, Note_on_c, 0, 69, 0
2, 8640, Note_on_c, 0, 69, 100
2, 8729, Note_on_c, 0, 69, 0
2, 8730, Note_on_c, 0, 74, 100
2, 8759, Note_on_c, 0, 74, 0
2, 8760, Note_on_c, 0, 74, 100
2, 8780, Note_on_c, 0, 74, 0
2, 8780, Note_on_c, 0, 73, 100
2, 8800, Note_on_c, 0, 73, 0
2, 8800, Note_on_c, 0, 74, 100
2, 8820, Note_on_c, 0, 74, 0
2, 8820, Note_on_c, 0, 73, 100
2, 8840, Note_on_c, 0, 73, 0
2, 8840, Note_on_c, 0, 74, 100
2, 8860, Note_on_c, 0, 74, 0
2, 8860, Note_on_c, 0, 73, 100
2, 8880, Note_on_c, 0, 73, 0
2, 8880, Note_on_c, 0, 74, 100
2, 8900, Note_on_c, 0, 74, 0
2, 8900, Note_on_c, 0, 73, 100
2, 8920, Note_on_c, 0, 73, 0
2, 8920, Note_on_c, 0, 74, 100
2, 8940, Note_on_c, 0, 74, 0
2, 8940, Note_on_c, 0, 73, 100
2, 8960, Note_on_c, 0, 73, 0
2, 8960, Note_on_c, 0, 74, 100
2, 8980, Note_on_c, 0, 74, 0
2, 8980, Note_on_c, 0, 73, 100
2, 9000, Note_on_c, 0, 73, 0
2, 9000, Note_on_c, 0, 74, 100
2, 9089, Note_on_c, 0, 74, 0
2, 9090, Note_on_c, 0, 76, 100
2, 9119, Note_on_c, 0, 76, 0
2, 9120, Note_on_c, 0, 77, 100
2, 9145, Note_on_c, 0, 77, 0
2, 9180, Note_on_c, 0, 81, 100
2, 9205, Note_on_c, 0, 81, 0
2, 9240, Note_on_c, 0, 86, 100
2, 9265, Note_on_c, 0, 86, 0
2, 9300, Note_on_c, 0, 81, 100
2, 9325, Note_on_c, 0, 81, 0
2, 9360, Note_on_c, 0, 79, 100
2, 9389, Note_on_c, 0, 79, 0
2, 9390, Note_on_c, 0, 77, 100
2, 9419, Note_on_c, 0, 77, 0
2, 9420, Note_on_c, 0, 76, 100
2, 9449, Note_on_c, 0, 76, 0
2, 9450, Note_on_c, 0, 77, 100
2, 9479, Note_on_c, 0, 77, 0
2, 9480, Note_on_c, 0, 74, 100
2, 9495, Note_on_c, 0, 74, 0
2, 9495, Note_on_c, 0, 73, 100
2, 9510, Note_on_c, 0, 73, 0
2, 9510, Note_on_c, 0, 74, 100
2, 9599, Note_on_c, 0, 74, 0
2, 9600, Note_on_c, 0, 62, 100
2, 9719, Note_on_c, 0, 62, 0
2, 9720, Note_on_c, 0, 81, 100
2, 9779, Note_on_c, 0, 81, 0
2, 9780, Note_on_c, 0, 81, 100
2, 9809, Note_on_c, 0, 81, 0
2, 9810, Note_on_c, 0, 79, 100
2, 9839, Note_on_c, 0, 79, 0
2, 9840, Note_on_c, 0, 81, 100
2, 9855, Note_on_c, 0, 81, 0
2, 9855, Note_on_c, 0, 79, 100
2, 9870, Note_on_c, 0, 79, 0
2, 9870, Note_on_c, 0, 81, 100
2, 9959, Note_on_c, 0, 81, 0
2, 9960, Note_on_c, 0, 81, 100
2, 9975, Note_on_c, 0, 81, 0
2, 9975, Note_on_c, 0, 82, 100
2, 9990, Note_on_c, 0, 82, 0
2, 9990, Note_on_c, 0, 84, 100
2, 10079, Note_on_c, 0, 84, 0
2, 10080, Note_on_c, 0, 81, 100
2, 10139, Note_on_c, 0, 81, 0
2, 10140, Note_on_c, 0, 81, 100
2, 10169, Note_on_c, 0, 81, 0
2, 10170, Note_on_c, 0, 79, 100
2, 10199, Note_on_c, 0, 79, 0
2, 10200, Note_on_c, 0, 81, 100
2, 10259, Note_on_c, 0, 81, 0
2, 10260, Note_on_c, 0, 81, 100
2, 10289, Note_on_c, 0, 81, 0
2, 10290, Note_on_c, 0, 79, 100
2, 10319, Note_on_c, 0, 79, 0
2, 10320, Note_on_c, 0, 77, 100
2, 10335, Note_on_c, 0, 77, 0
2, 10335, Note_on_c, 0, 76, 100
2, 10350, Note_on_c, 0, 76, 0
2, 10350, Note_on_c, 0, 77, 100
2, 10439, Note_on_c, 0, 77, 0
2, 10440, Note_on_c, 0, 72, 100
2, 10499, Note_on_c, 0, 72, 0
2, 10500, Note_on_c, 0, 70, 100
2, 10529, Note_on_c, 0, 70, 0
2, 10530, Note_on_c, 0, 69, 100
2, 10559, Note_on_c, 0, 69, 0
2, 10560, Note_on_c, 0, 74, 100
2, 10619, Note_on_c, 0, 74, 0
2, 10620, Note_on_c, 0, 72, 100
2, 10679, Note_on_c, 0, 72, 0
2, 10680, Note_on_c, 0, 70, 100
2, 10688, Note_on_c, 0, 70, 0
2, 10688, Note_on_c, 0, 72, 100
2, 10695, Note_on_c, 0, 72, 0
2, 10695, Note_on_c, 0, 70, 100
2, 10740, Note_on_c, 0, 70, 0
2, 10740, Note_on_c, 0, 69, 100
2, 10799, Note_on_c, 0, 69, 0
2, 10800, Note_on_c, 0, 67, 100
2, 10859, Note_on_c, 0, 67, 0
2, 10860, Note_on_c, 0, 79, 100
2, 10919, Note_on_c, 0, 79, 0
2, 10920, Note_on_c, 0, 77, 100
2, 10940, Note_on_c, 0, 77, 0
2, 10940, Note_on_c, 0, 76, 100
2, 10960, Note_on_c, 0, 76, 0
2, 10960, Note_on_c, 0, 77, 100
2, 10980, Note_on_c, 0, 77, 0
2, 10980, Note_on_c, 0, 76, 100
2, 11000, Note_on_c, 0, 76, 0
2, 11000, Note_on_c, 0, 77, 100
2, 11020, Note_on_c, 0, 77, 0
2, 11020, Note_on_c, 0, 76, 100
2, 11040, Note_on_c, 0, 76, 0
2, 11040, Note_on_c, 0, 77, 100
2, 11060, Note_on_c, 0, 77, 0
2, 11060, Note_on_c, 0, 76, 100
2, 11080, Note_on_c, 0, 76, 0
2, 11080, Note_on_c, 0, 77, 100
2, 11100, Note_on_c, 0, 77, 0
2, 11100, Note_on_c, 0, 76, 100
2, 11120, Note_on_c, 0, 76, 0
2, 11120, Note_on_c, 0, 77, 100
2, 11140, Note_on_c, 0, 77, 0
2, 11140, Note_on_c, 0, 76, 100
2, 11160, Note_on_c, 0, 76, 0
2, 11160, Note_on_c, 0, 67, 100
2, 11189, Note_on_c, 0, 67, 0
2, 11190, Note_on_c, 0, 72, 100
2, 11219, Note_on_c, 0, 72, 0
2, 11220, Note_on_c, 0, 76, 100
2, 11249, Note_on_c, 0, 76, 0
2, 11250, Note_on_c, 0, 72, 100
2, 11279, Note_on_c, 0, 72, 0
2, 11280, Note_on_c, 0, 67, 100
2, 11309, Note_on_c, 0, 67, 0
2, 11310, Note_on_c, 0, 72, 100
2, 11339, Note_on_c, 0, 72, 0
2, 11340, Note_on_c, 0, 76, 100
2, 11369, Note_on_c, 0, 76, 0
2, 11370, Note_on_c, 0, 72, 100
2, 11399, Note_on_c, 0, 72, 0
2, 11400, Note_on_c, 0, 67, 100
2, 11429, Note_on_c, 0, 67, 0
2, 11430, Note_on_c, 0, 72, 100
2, 11459, Note_on_c, 0, 72, 0
2, 11460, Note_on_c, 0, 76, 100
2, 11489, Note_on_c, 0, 76, 0
2, 11490, Note_on_c, 0, 74, 100
2, 11519, Note_on_c, 0, 74, 0
2, 11520, Note_on_c, 0, 72, 100
2, 11579, Note_on_c, 0, 72, 0
2, 11580, Note_on_c, 0, 76, 100
2, 11600, Note_on_c, 0, 76, 0
2, 11600, Note_on_c, 0, 77, 100
2, 11620, Note_on_c, 0, 77, 0
2, 11620, Note_on_c, 0, 79, 100
2, 11640, Note_on_c, 0, 79, 0
2, 11640, Note_on_c, 0, 72, 100
2, 11655, Note_on_c, 0, 72, 0
2, 11655, Note_on_c, 0, 70, 100
2, 11670, Note_on_c, 0, 70, 0
2, 11670, Note_on_c, 0, 70, 100
2, 11879, Note_on_c, 0, 70, 0
2, 11880, Note_on_c, 0, 72, 100
2, 11895, Note_on_c, 0, 72, 0
2, 11895, Note_on_c, 0, 70, 100
2, 11910, Note_on_c, 0, 70, 0
2, 11910, Note_on_c, 0, 69, 100
2, 11939, Note_on_c, 0, 69, 0
2, 11940, Note_on_c, 0, 70, 100
2, 11969, Note_on_c, 0, 70, 0
2, 11970, Note_on_c, 0, 67, 100
2, 11999, Note_on_c, 0, 67, 0
2, 12000, Note_on_c, 0, 69, 100
2, 12015, Note_on_c, 0, 69, 0
2, 12015, Note_on_c, 0, 67, 100
2, 12030, Note_on_c, 0, 67, 0
2, 12030, Note_on_c, 0, 69, 100
2, 12239, Note_on_c, 0, 69, 0
2, 12240, Note_on_c, 0, 69, 100
2, 12329, Note_on_c, 0, 69, 0
2, 12330, Note_on_c, 0, 74, 100
2, 12359, Note_on_c, 0, 74, 0
2, 12360, Note_on_c, 0, 74, 100
2, 12380, Note_on_c, 0, 74, 0
2, 12380, Note_on_c, 0, 73, 100
2, 12400, Note_on_c, 0, 73, 0
2, 12400, Note_on_c, 0, 74, 100
2, 12420, Note_on_c, 0, 74, 0
2, 12420, Note_on_c, 0, 73, 100
2, 12440, Note_on_c, 0, 73, 0
2, 12440, Note_on_c, 0, 74, 100
2, 12460, Note_on_c, 0, 74, 0
2, 12460, Note_on_c, 0, 73, 100
2, 12480, Note_on_c, 0, 73, 0
2, 12480, Note_on_c, 0, 74, 100
2, 12500, Note_on_c, 0, 74, 0
2, 12500, Note_on_c, 0, 73, 100
2, 12520, Note_on_c, 0, 73, 0
2, 12520, Note_on_c, 0, 74, 100
2, 12540, Note_on_c, 0, 74, 0
2, 12540, Note_on_c, 0, 73, 100
2, 12560, Note_on_c, 0, 73, 0
2, 12560, Note_on_c, 0, 74, 100
2, 12580, Note_on_c, 0, 74, 0
2, 12580, Note_on_c, 0, 73, 100
2, 12600, Note_on_c, 0, 73, 0
2, 12600, Note_on_c, 0, 74, 100
2, 12689, Note_on_c, 0, 74, 0
2, 12690, Note_on_c, 0, 76, 100
2, 12719, Note_on_c, 0, 76, 0
2, 12720, Note_on_c, 0, 77, 100
2, 12745, Note_on_c, 0, 77, 0
2, 12780, Note_on_c, 0, 81, 100
2, 12805, Note_on_c, 0, 81, 0
2, 12840, Note_on_c, 0, 86, 100
2, 12865, Note_on_c, 0, 86, 0
2, 12900, Note_on_c, 0, 81, 100
2, 12925, Note_on_c, 0, 81, 0
2, 12960, Note_on_c, 0, 79, 100
2, 12989, Note_on_c, 0, 79, 0
2, 12990, Note_on_c, 0, 77, 100
2, 13019, Note_on_c, 0, 77, 0
2, 13020, Note_on_c, 0, 76, 100
2, 13049, Note_on_c, 0, 76, 0
2, 13050, Note_on_c, 0, 77, 100
2, 13079, Note_on_c, 0, 77, 0
2, 13080, Note_on_c, 0, 74, 100
2, 13095, Note_on_c, 0, 74, 0
2, 13095, Note_on_c, 0, 73, 100
2, 13110, Note_on_c, 0, 73, 0
2, 13110, Note_on_c, 0, 74, 100
2, 13199, Note_on_c, 0, 74, 0
2, 13200, Note_on_c, 0, 62, 100
2, 13319, Note_on_c, 0, 62, 0
2, 13319, End_track
3, 0, Start_track
3, 0, Control_c, 1, 0, 0
3, 0, Control_c, 1, 7, 100
3, 0, Control_c, 1, 10, 95
3, 0, Control_c, 1, 32, 8
3, 0, Program_c, 1, 6
3, 119, Control_c, 1, 0, 8
3, 120, Program_c, 1, 6
3, 360, Note_on_c, 1, 50, 100
3, 475, Note_on_c, 1, 50, 0
3, 480, Note_on_c, 1, 53, 100
3, 595, Note_on_c, 1, 53, 0
3, 600, Note_on_c, 1, 50, 100
3, 715, Note_on_c, 1, 50, 0
3, 720, Note_on_c, 1, 45, 100
3, 835, Note_on_c, 1, 45, 0
3, 840, Note_on_c, 1, 57, 100
3, 955, Note_on_c, 1, 57, 0
3, 960, Note_on_c, 1, 52, 100
3, 1075, Note_on_c, 1, 52, 0
3, 1080, Note_on_c, 1, 49, 100
3, 1195, Note_on_c, 1, 49, 0
3, 1200, Note_on_c, 1, 45, 100
3, 1315, Note_on_c, 1, 45, 0
3, 1320, Note_on_c, 1, 49, 100
3, 1435, Note_on_c, 1, 49, 0
3, 1440, Note_on_c, 1, 50, 100
3, 1555, Note_on_c, 1, 50, 0
3, 1560, Note_on_c, 1, 45, 100
3, 1675, Note_on_c, 1, 45, 0
3, 1680, Note_on_c, 1, 38, 100
3, 1795, Note_on_c, 1, 38, 0
3, 1800, Note_on_c, 1, 50, 100
3, 1915, Note_on_c, 1, 50, 0
3, 1920, Note_on_c, 1, 52, 100
3, 2035, Note_on_c, 1, 52, 0
3, 2040, Note_on_c, 1, 52, 100
3, 2155, Note_on_c, 1, 52, 0
3, 2160, Note_on_c, 1, 48, 100
3, 2275, Note_on_c, 1, 48, 0
3, 2280, Note_on_c, 1, 48, 100
3, 2395, Note_on_c, 1, 48, 0
3, 2400, Note_on_c, 1, 52, 100
3, 2515, Note_on_c, 1, 52, 0
3, 2520, Note_on_c, 1, 53, 100
3, 2635, Note_on_c, 1, 53, 0
3, 2640, Note_on_c, 1, 46, 100
3, 2755, Note_on_c, 1, 46, 0
3, 2760, Note_on_c, 1, 48, 100
3, 2875, Note_on_c, 1, 48, 0
3, 2880, Note_on_c, 1, 41, 100
3, 3239, Note_on_c, 1, 41, 0
3, 3240, Note_on_c, 1, 50, 100
3, 3355, Note_on_c, 1, 50, 0
3, 3360, Note_on_c, 1, 53, 100
3, 3475, Note_on_c, 1, 53, 0
3, 3480, Note_on_c, 1, 50, 100
3, 3595, Note_on_c, 1, 50, 0
3, 3600, Note_on_c, 1, 45, 100
3, 3715, Note_on_c, 1, 45, 0
3, 3720, Note_on_c, 1, 57, 100
3, 3835, Note_on_c, 1, 57, 0
3, 3840, Note_on_c, 1, 52, 100
3, 3955, Note_on_c, 1, 52, 0
3, 3960, Note_on_c, 1, 49, 100
3, 4075, Note_on_c, 1, 49, 0
3, 4080, Note_on_c, 1, 45, 100
3, 4195, Note_on_c, 1, 45, 0
3, 4200, Note_on_c, 1, 49, 100
3, 4315, Note_on_c, 1, 49, 0
3, 4320, Note_on_c, 1, 50, 100
3, 4435, Note_on_c, 1, 50, 0
3, 4440, Note_on_c, 1, 45, 100
3, 4555, Note_on_c, 1, 45, 0
3, 4560, Note_on_c, 1, 38, 100
3, 4675, Note_on_c, 1, 38, 0
3, 4680, Note_on_c, 1, 50, 100
3, 4795, Note_on_c, 1, 50, 0
3, 4800, Note_on_c, 1, 52, 100
3, 4915, Note_on_c, 1, 52, 0
3, 4920, Note_on_c, 1, 52, 100
3, 5035, Note_on_c, 1, 52, 0
3, 5040, Note_on_c, 1, 48, 100
3, 5155, Note_on_c, 1, 48, 0
3, 5160, Note_on_c, 1, 48, 100
3, 5275, Note_on_c, 1, 48, 0
3, 5280, Note_on_c, 1, 52, 100
3, 5395, Note_on_c, 1, 52, 0
3, 5400, Note_on_c, 1, 53, 100
3, 5515, Note_on_c, 1, 53, 0
3, 5520, Note_on_c, 1, 46, 100
3, 5635, Note_on_c, 1, 46, 0
3, 5640, Note_on_c, 1, 48, 100
3, 5755, Note_on_c, 1, 48, 0
3, 5760, Note_on_c, 1, 41, 100
3, 6119, Note_on_c, 1, 41, 0
3, 6120, Note_on_c, 1, 41, 100
3, 6235, Note_on_c, 1, 41, 0
3, 6240, Note_on_c, 1, 53, 100
3, 6355, Note_on_c, 1, 53, 0
3, 6360, Note_on_c, 1, 52, 100
3, 6475, Note_on_c, 1, 52, 0
3, 6480, Note_on_c, 1, 53, 100
3, 6595, Note_on_c, 1, 53, 0
3, 6600, Note_on_c, 1, 48, 100
3, 6715, Note_on_c, 1, 48, 0
3, 6720, Note_on_c, 1, 41, 100
3, 6835, Note_on_c, 1, 41, 0
3, 6840, Note_on_c, 1, 57, 100
3, 6955, Note_on_c, 1, 57, 0
3, 6960, Note_on_c, 1, 58, 100
3, 7075, Note_on_c, 1, 58, 0
3, 7080, Note_on_c, 1, 55, 100
3, 7195, Note_on_c, 1, 55, 0
3, 7200, Note_on_c, 1, 58, 100
3, 7315, Note_on_c, 1, 58, 0
3, 7320, Note_on_c, 1, 60, 100
3, 7435, Note_on_c, 1, 60, 0
3, 7440, Note_on_c, 1, 48, 100
3, 7555, Note_on_c, 1, 48, 0
3, 7560, Note_on_c, 1, 48, 100
3, 7675, Note_on_c, 1, 48, 0
3, 7680, Note_on_c, 1, 48, 100
3, 7795, Note_on_c, 1, 48, 0
3, 7800, Note_on_c, 1, 48, 100
3, 7915, Note_on_c, 1, 48, 0
3, 7920, Note_on_c, 1, 48, 100
3, 8035, Note_on_c, 1, 48, 0
3, 8040, Note_on_c, 1, 52, 100
3, 8155, Note_on_c, 1, 52, 0
3, 8160, Note_on_c, 1, 50, 100
3, 8275, Note_on_c, 1, 50, 0
3, 8280, Note_on_c, 1, 48, 100
3, 8395, Note_on_c, 1, 48, 0
3, 8400, Note_on_c, 1, 53, 100
3, 8515, Note_on_c, 1, 53, 0
3, 8520, Note_on_c, 1, 52, 100
3, 8635, Note_on_c, 1, 52, 0
3, 8640, Note_on_c, 1, 50, 100
3, 8755, Note_on_c, 1, 50, 0
3, 8760, Note_on_c, 1, 57, 100
3, 8875, Note_on_c, 1, 57, 0
3, 8880, Note_on_c, 1, 55, 100
3, 8995, Note_on_c, 1, 55, 0
3, 9000, Note_on_c, 1, 53, 100
3, 9115, Note_on_c, 1, 53, 0
3, 9120, Note_on_c, 1, 50, 100
3, 9235, Note_on_c, 1, 50, 0
3, 9240, Note_on_c, 1, 53, 100
3, 9355, Note_on_c, 1, 53, 0
3, 9360, Note_on_c, 1, 57, 100
3, 9475, Note_on_c, 1, 57, 0
3, 9480, Note_on_c, 1, 50, 100
3, 9717, Note_on_c, 1, 50, 0
3, 9720, Note_on_c, 1, 41, 100
3, 9835, Note_on_c, 1, 41, 0
3, 9840, Note_on_c, 1, 53, 100
3, 9955, Note_on_c, 1, 53, 0
3, 9960, Note_on_c, 1, 52, 100
3, 10075, Note_on_c, 1, 52, 0
3, 10080, Note_on_c, 1, 53, 100
3, 10195, Note_on_c, 1, 53, 0
3, 10200, Note_on_c, 1, 48, 100
3, 10315, Note_on_c, 1, 48, 0
3, 10320, Note_on_c, 1, 41, 100
3, 10435, Note_on_c, 1, 41, 0
3, 10440, Note_on_c, 1, 57, 100
3, 10555, Note_on_c, 1, 57, 0
3, 10560, Note_on_c, 1, 58, 100
3, 10675, Note_on_c, 1, 58, 0
3, 10680, Note_on_c, 1, 55, 100
3, 10795, Note_on_c, 1, 55, 0
3, 10800, Note_on_c, 1, 58, 100
3, 10915, Note_on_c, 1, 58, 0
3, 10920, Note_on_c, 1, 60, 100
3, 11035, Note_on_c, 1, 60, 0
3, 11040, Note_on_c, 1, 48, 100
3, 11155, Note_on_c, 1, 48, 0
3, 11160, Note_on_c, 1, 48, 100
3, 11275, Note_on_c, 1, 48, 0
3, 11280, Note_on_c, 1, 48, 100
3, 11395, Note_on_c, 1, 48, 0
3, 11400, Note_on_c, 1, 48, 100
3, 11515, Note_on_c, 1, 48, 0
3, 11520, Note_on_c, 1, 48, 100
3, 11635, Note_on_c, 1, 48, 0
3, 11640, Note_on_c, 1, 52, 100
3, 11755, Note_on_c, 1, 52, 0
3, 11760, Note_on_c, 1, 50, 100
3, 11875, Note_on_c, 1, 50, 0
3, 11880, Note_on_c, 1, 48, 100
3, 11995, Note_on_c, 1, 48, 0
3, 12000, Note_on_c, 1, 53, 100
3, 12115, Note_on_c, 1, 53, 0
3, 12120, Note_on_c, 1, 52, 100
3, 12235, Note_on_c, 1, 52, 0
3, 12240, Note_on_c, 1, 50, 100
3, 12355, Note_on_c, 1, 50, 0
3, 12360, Note_on_c, 1, 57, 100
3, 12475, Note_on_c, 1, 57, 0
3, 12480, Note_on_c, 1, 55, 100
3, 12595, Note_on_c, 1, 55, 0
3, 12600, Note_on_c, 1, 53, 100
3, 12715, Note_on_c, 1, 53, 0
3, 12720, Note_on_c, 1, 50, 100
3, 12835, Note_on_c, 1, 50, 0
3, 12840, Note_on_c, 1, 53, 100
3, 12955, Note_on_c, 1, 53, 0
3, 12960, Note_on_c, 1, 57, 100
3, 13075, Note_on_c, 1, 57, 0
3, 13080, Note_on_c, 1, 50, 100
3, 13317, Note_on_c, 1, 50, 0
3, 13317, End_track
4, 0, Start_track
4, 0, End_track
0, 0, End_of_file
