0, 0, Header, 1, 4, 480
1, 0, Start_track
1, 0, Title_t, "untitled"
1, 0, Text_t, "Quaerendo 3\012"
1, 0, Text_t, "Voce 1nd\012"
1, 0, Text_t, "Voce 20-\012"
1, 0, Time_signature, 4, 2, 24, 8
1, 0, Key_signature, 0, "major"
1, 0, Tempo, 500000
1, 0, End_track
2, 0, Start_track
2, 0, Program_c, 0, 0
2, 25440, Note_on_c, 0, 60, 64
2, 25680, Note_on_c, 0, 60, 0
2, 25680, Note_on_c, 0, 62, 64
2, 25920, Note_on_c, 0, 62, 0
2, 25920, Note_on_c, 0, 63, 64
2, 26400, Note_on_c, 0, 63, 0
2, 26400, Note_on_c, 0, 64, 64
2, 26880, Note_on_c, 0, 64, 0
2, 26880, Note_on_c, 0, 65, 64
2, 27360, Note_on_c, 0, 65, 0
2, 27360, Note_on_c, 0, 66, 64
2, 27840, Note_on_c, 0, 66, 0
2, 27840, Note_on_c, 0, 67, 64
2, 28800, Note_on_c, 0, 67, 0
2, 28800, Note_on_c, 0, 68, 64
2, 29760, Note_on_c, 0, 68, 0
2, 29760, Note_on_c, 0, 59, 64
2, 30720, Note_on_c, 0, 59, 0
2, 31200, Note_on_c, 0, 67, 64
2, 31680, Note_on_c, 0, 67, 0
2, 31680, Note_on_c, 0, 66, 64
2, 32160, Note_on_c, 0, 66, 0
2, 32160, Note_on_c, 0, 65, 64
2, 33120, Note_on_c, 0, 65, 0
2, 33120, Note_on_c, 0, 64, 64
2, 33600, Note_on_c, 0, 64, 0
2, 33600, Note_on_c, 0, 63, 64
2, 34080, Note_on_c, 0, 63, 0
2, 34080, Note_on_c, 0, 62, 64
2, 35040, Note_on_c, 0, 62, 0
2, 35040, Note_on_c, 0, 60, 64
2, 35520, Note_on_c, 0, 60, 0
2, 35520, Note_on_c, 0, 59, 64
2, 36000, Note_on_c, 0, 59, 0
2, 36000, Note_on_c, 0, 55, 64
2, 36480, Note_on_c, 0, 55, 0
2, 36480, Note_on_c, 0, 60, 64
2, 36960, Note_on_c, 0, 60, 0
2, 36960, Note_on_c, 0, 65, 64
2, 37440, Note_on_c, 0, 65, 0
2, 37440, Note_on_c, 0, 63, 64
2, 38400, Note_on_c, 0, 63, 0
2, 38400, Note_on_c, 0, 63, 64
2, 38480, Note_on_c, 0, 63, 0
2, 38480, Note_on_c, 0, 62, 64
2, 38560, Note_on_c, 0, 62, 0
2, 38560, Note_on_c, 0, 63, 64
2, 38640, Note_on_c, 0, 63, 0
2, 38640, Note_on_c, 0, 62, 64
2, 38720, Note_on_c, 0, 62, 0
2, 38720, Note_on_c, 0, 63, 64
2, 38800, Note_on_c, 0, 63, 0
2, 38800, Note_on_c, 0, 62, 64
2, 38880, Note_on_c, 0, 62, 0
2, 38880, Note_on_c, 0, 60, 64
2, 39120, Note_on_c, 0, 60, 0
2, 39120, Note_on_c, 0, 62, 64
2, 39360, Note_on_c, 0, 62, 0
2, 39360, Note_on_c, 0, 60, 64
2, 39600, Note_on_c, 0, 60, 0
2, 39600, Note_on_c, 0, 72, 64
2, 39840, Note_on_c, 0, 72, 0
2, 39840, Note_on_c, 0, 70, 64
2, 40080, Note_on_c, 0, 70, 0
2, 40080, Note_on_c, 0, 68, 64
2, 40320, Note_on_c, 0, 68, 0
2, 40320, Note_on_c, 0, 67, 64
2, 40560, Note_on_c, 0, 67, 0
2, 40560, Note_on_c, 0, 65, 64
2, 40800, Note_on_c, 0, 65, 0
2, 40800, Note_on_c, 0, 63, 64
2, 41040, Note_on_c, 0, 63, 0
2, 41040, Note_on_c, 0, 67, 64
2, 41280, Note_on_c, 0, 67, 0
2, 41280, Note_on_c, 0, 65, 64
2, 41520, Note_on_c, 0, 65, 0
2, 41520, Note_on_c, 0, 67, 64
2, 41760, Note_on_c, 0, 67, 0
2, 41760, Note_on_c, 0, 65, 64
2, 42000, Note_on_c, 0, 65, 0
2, 42000, Note_on_c, 0, 63, 64
2, 42240, Note_on_c, 0, 63, 0
2, 42240, Note_on_c, 0, 62, 64
2, 42480, Note_on_c, 0, 62, 0
2, 42480, Note_on_c, 0, 63, 64
2, 42720, Note_on_c, 0, 63, 0
2, 42720, Note_on_c, 0, 65, 64
2, 42960, Note_on_c, 0, 65, 0
2, 42960, Note_on_c, 0, 62, 64
2, 43200, Note_on_c, 0, 62, 0
2, 43200, Note_on_c, 0, 63, 64
2, 43440, Note_on_c, 0, 63, 0
2, 43440, Note_on_c, 0, 60, 64
2, 43680, Note_on_c, 0, 60, 0
2, 43680, Note_on_c, 0, 57, 64
2, 43920, Note_on_c, 0, 57, 0
2, 43920, Note_on_c, 0, 60, 64
2, 44160, Note_on_c, 0, 60, 0
2, 44160, Note_on_c, 0, 54, 64
2, 44640, Note_on_c, 0, 54, 0
2, 44640, Note_on_c, 0, 55, 64
2, 44880, Note_on_c, 0, 55, 0
2, 44880, Note_on_c, 0, 57, 64
2, 45120, Note_on_c, 0, 57, 0
2, 45120, Note_on_c, 0, 59, 64
2, 45360, Note_on_c, 0, 59, 0
2, 45360, Note_on_c, 0, 60, 64
2, 45600, Note_on_c, 0, 60, 0
2, 45600, Note_on_c, 0, 62, 64
2, 45840, Note_on_c, 0, 62, 0
2, 45840, Note_on_c, 0, 63, 64
2, 46080, Note_on_c, 0, 63, 0
2, 46080, Note_on_c, 0, 65, 64
2, 46560, Note_on_c, 0, 65, 0
2, 46560, Note_on_c, 0, 63, 64
2, 46800, Note_on_c, 0, 63, 0
2, 46800, Note_on_c, 0, 62, 64
2, 47040, Note_on_c, 0, 62, 0
2, 47040, Note_on_c, 0, 63, 64
2, 47280, Note_on_c, 0, 63, 0
2, 47280, Note_on_c, 0, 62, 64
2, 47520, Note_on_c, 0, 62, 0
2, 47520, Note_on_c, 0, 60, 64
2, 47760, Note_on_c, 0, 60, 0
2, 47760, Note_on_c, 0, 63, 64
2, 48000, Note_on_c, 0, 63, 0
2, 48000, Note_on_c, 0, 62, 64
2, 48480, Note_on_c, 0, 62, 0
2, 48480, Note_on_c, 0, 60, 64
2, 48720, Note_on_c, 0, 60, 0
2, 48720, Note_on_c, 0, 59, 64
2, 48960, Note_on_c, 0, 59, 0
2, 48960, Note_on_c, 0, 60, 64
2, 49440, Note_on_c, 0, 60, 0
2, 49440, Note_on_c, 0, 62, 64
2, 49920, Note_on_c, 0, 62, 0
2, 49920, Note_on_c, 0, 55, 64
2, 50880, Note_on_c, 0, 55, 0
2, 50880, Note_on_c, 0, 54, 64
2, 51840, Note_on_c, 0, 54, 0
2, 52080, Note_on_c, 0, 51, 64
2, 52320, Note_on_c, 0, 51, 0
2, 52320, Note_on_c, 0, 54, 64
2, 52560, Note_on_c, 0, 54, 0
2, 52560, Note_on_c, 0, 55, 64
2, 52800, Note_on_c, 0, 55, 0
2, 53040, Note_on_c, 0, 57, 64
2, 53280, Note_on_c, 0, 57, 0
2, 53280, Note_on_c, 0, 59, 64
2, 53520, Note_on_c, 0, 59, 0
2, 53520, Note_on_c, 0, 60, 64
2, 53760, Note_on_c, 0, 60, 0
2, 54000, Note_on_c, 0, 59, 64
2, 54240, Note_on_c, 0, 59, 0
2, 54240, Note_on_c, 0, 60, 64
2, 54480, Note_on_c, 0, 60, 0
2, 54480, Note_on_c, 0, 62, 64
2, 54720, Note_on_c, 0, 62, 0
2, 54720, Note_on_c, 0, 63, 64
2, 55200, Note_on_c, 0, 63, 0
2, 55200, Note_on_c, 0, 64, 64
2, 55680, Note_on_c, 0, 64, 0
2, 55680, Note_on_c, 0, 65, 64
2, 56160, Note_on_c, 0, 65, 0
2, 56160, Note_on_c, 0, 66, 64
2, 56640, Note_on_c, 0, 66, 0
2, 56640, Note_on_c, 0, 67, 64
2, 57600, Note_on_c, 0, 67, 0
2, 57600, Note_on_c, 0, 68, 64
2, 58560, Note_on_c, 0, 68, 0
2, 58560, Note_on_c, 0, 59, 64
2, 59520, Note_on_c, 0, 59, 0
2, 60000, Note_on_c, 0, 67, 64
2, 60480, Note_on_c, 0, 67, 0
2, 60480, Note_on_c, 0, 66, 64
2, 60960, Note_on_c, 0, 66, 0
2, 60960, Note_on_c, 0, 65, 64
2, 61920, Note_on_c, 0, 65, 0
2, 61920, Note_on_c, 0, 64, 64
2, 62400, Note_on_c, 0, 64, 0
2, 62400, Note_on_c, 0, 63, 64
2, 62880, Note_on_c, 0, 63, 0
2, 62880, Note_on_c, 0, 62, 64
2, 63840, Note_on_c, 0, 62, 0
2, 63840, Note_on_c, 0, 60, 64
2, 64320, Note_on_c, 0, 60, 0
2, 64320, Note_on_c, 0, 59, 64
2, 64800, Note_on_c, 0, 59, 0
2, 64800, Note_on_c, 0, 55, 64
2, 65280, Note_on_c, 0, 55, 0
2, 65280, Note_on_c, 0, 60, 64
2, 65760, Note_on_c, 0, 60, 0
2, 65760, Note_on_c, 0, 65, 64
2, 66240, Note_on_c, 0, 65, 0
2, 66240, Note_on_c, 0, 63, 64
2, 67200, Note_on_c, 0, 63, 0
2, 67200, Note_on_c, 0, 63, 64
2, 67280, Note_on_c, 0, 63, 0
2, 67280, Note_on_c, 0, 62, 64
2, 67360, Note_on_c, 0, 62, 0
2, 67360, Note_on_c, 0, 63, 64
2, 67440, Note_on_c, 0, 63, 0
2, 67440, Note_on_c, 0, 62, 64
2, 67520, Note_on_c, 0, 62, 0
2, 67520, Note_on_c, 0, 63, 64
2, 67600, Note_on_c, 0, 63, 0
2, 67600, Note_on_c, 0, 62, 64
2, 67680, Note_on_c, 0, 62, 0
2, 67680, Note_on_c, 0, 60, 64
2, 67920, Note_on_c, 0, 60, 0
2, 67920, Note_on_c, 0, 62, 64
2, 68160, Note_on_c, 0, 62, 0
2, 68160, Note_on_c, 0, 60, 64
2, 68400, Note_on_c, 0, 60, 0
2, 68400, Note_on_c, 0, 72, 64
2, 68640, Note_on_c, 0, 72, 0
2, 68640, Note_on_c, 0, 70, 64
2, 68880, Note_on_c, 0, 70, 0
2, 68880, Note_on_c, 0, 68, 64
2, 69120, Note_on_c, 0, 68, 0
2, 69120, Note_on_c, 0, 67, 64
2, 69360, Note_on_c, 0, 67, 0
2, 69360, Note_on_c, 0, 65, 64
2, 69600, Note_on_c, 0, 65, 0
2, 69600, Note_on_c, 0, 63, 64
2, 69840, Note_on_c, 0, 63, 0
2, 69840, Note_on_c, 0, 67, 64
2, 70080, Note_on_c, 0, 67, 0
2, 70080, Note_on_c, 0, 65, 64
2, 70320, Note_on_c, 0, 65, 0
2, 70320, Note_on_c, 0, 67, 64
2, 70560, Note_on_c, 0, 67, 0
2, 70560, Note_on_c, 0, 65, 64
2, 70800, Note_on_c, 0, 65, 0
2, 70800, Note_on_c, 0, 63, 64
2, 71040, Note_on_c, 0, 63, 0
2, 71040, Note_on_c, 0, 62, 64
2, 71280, Note_on_c, 0, 62, 0
2, 71280, Note_on_c, 0, 63, 64
2, 71520, Note_on_c, 0, 63, 0
2, 71520, Note_on_c, 0, 65, 64
2, 71760, Note_on_c, 0, 65, 0
2, 71760, Note_on_c, 0, 62, 64
2, 72000, Note_on_c, 0, 62, 0
2, 72000, Note_on_c, 0, 63, 64
2, 72240, Note_on_c, 0, 63, 0
2, 72240, Note_on_c, 0, 60, 64
2, 72480, Note_on_c, 0, 60, 0
2, 72480, Note_on_c, 0, 57, 64
2, 72720, Note_on_c, 0, 57, 0
2, 72720, Note_on_c, 0, 60, 64
2, 72960, Note_on_c, 0, 60, 0
2, 72960, Note_on_c, 0, 54, 64
2, 73440, Note_on_c, 0, 54, 0
2, 73440, Note_on_c, 0, 55, 64
2, 73680, Note_on_c, 0, 55, 0
2, 73680, Note_on_c, 0, 57, 64
2, 73920, Note_on_c, 0, 57, 0
2, 73920, Note_on_c, 0, 59, 64
2, 74160, Note_on_c, 0, 59, 0
2, 74160, Note_on_c, 0, 60, 64
2, 74400, Note_on_c, 0, 60, 0
2, 74400, Note_on_c, 0, 62, 64
2, 74640, Note_on_c, 0, 62, 0
2, 74640, Note_on_c, 0, 63, 64
2, 74880, Note_on_c, 0, 63, 0
2, 74880, Note_on_c, 0, 65, 64
2, 75360, Note_on_c, 0, 65, 0
2, 75360, Note_on_c, 0, 63, 64
2, 75600, Note_on_c, 0, 63, 0
2, 75600, Note_on_c, 0, 62, 64
2, 75840, Note_on_c, 0, 62, 0
2, 75840, Note_on_c, 0, 63, 64
2, 76080, Note_on_c, 0, 63, 0
2, 76080, Note_on_c, 0, 62, 64
2, 76320, Note_on_c, 0, 62, 0
2, 76320, Note_on_c, 0, 60, 64
2, 76560, Note_on_c, 0, 60, 0
2, 76560, Note_on_c, 0, 63, 64
2, 76800, Note_on_c, 0, 63, 0
2, 76800, Note_on_c, 0, 62, 64
2, 77280, Note_on_c, 0, 62, 0
2, 77280, Note_on_c, 0, 60, 64
2, 77520, Note_on_c, 0, 60, 0
2, 77520, Note_on_c, 0, 59, 64
2, 77760, Note_on_c, 0, 59, 0
2, 77760, Note_on_c, 0, 60, 64
2, 78240, Note_on_c, 0, 60, 0
2, 78240, Note_on_c, 0, 62, 64
2, 78720, Note_on_c, 0, 62, 0
2, 78720, Note_on_c, 0, 55, 64
2, 79680, Note_on_c, 0, 55, 0
2, 79680, Note_on_c, 0, 54, 64
2, 80640, Note_on_c, 0, 54, 0
2, 80880, Note_on_c, 0, 51, 64
2, 81120, Note_on_c, 0, 51, 0
2, 81120, Note_on_c, 0, 54, 64
2, 81360, Note_on_c, 0, 54, 0
2, 81360, Note_on_c, 0, 55, 64
2, 81600, Note_on_c, 0, 55, 0
2, 81840, Note_on_c, 0, 57, 64
2, 82080, Note_on_c, 0, 57, 0
2, 82080, Note_on_c, 0, 59, 64
2, 82320, Note_on_c, 0, 59, 0
2, 82320, Note_on_c, 0, 60, 64
2, 82560, Note_on_c, 0, 60, 0
2, 82800, Note_on_c, 0, 59, 64
2, 83040, Note_on_c, 0, 59, 0
2, 83040, Note_on_c, 0, 60, 64
2, 83280, Note_on_c, 0, 60, 0
2, 83280, Note_on_c, 0, 62, 64
2, 83520, Note_on_c, 0, 62, 0
2, 83520, Note_on_c, 0, 63, 64
2, 84000, Note_on_c, 0, 63, 0
2, 84000, Note_on_c, 0, 64, 64
2, 84480, Note_on_c, 0, 64, 0
2, 84480, Note_on_c, 0, 65, 64
2, 84960, Note_on_c, 0, 65, 0
2, 84960, Note_on_c, 0, 66, 64
2, 85440, Note_on_c, 0, 66, 0
2, 85440, Note_on_c, 0, 67, 64
2, 86400, Note_on_c, 0, 67, 0
2, 86400, Note_on_c, 0, 68, 64
2, 87360, Note_on_c, 0, 68, 0
2, 87360, Note_on_c, 0, 59, 64
2, 88320, Note_on_c, 0, 59, 0
2, 88800, Note_on_c, 0, 67, 64
2, 89280, Note_on_c, 0, 67, 0
2, 89280, Note_on_c, 0, 66, 64
2, 89760, Note_on_c, 0, 66, 0
2, 89760, Note_on_c, 0, 65, 64
2, 90720, Note_on_c, 0, 65, 0
2, 90720, Note_on_c, 0, 64, 64
2, 91200, Note_on_c, 0, 64, 0
2, 91200, Note_on_c, 0, 63, 64
2, 91680, Note_on_c, 0, 63, 0
2, 91680, Note_on_c, 0, 62, 64
2, 92640, Note_on_c, 0, 62, 0
2, 92640, Note_on_c, 0, 60, 64
2, 93120, Note_on_c, 0, 60, 0
2, 93120, Note_on_c, 0, 59, 64
2, 93600, Note_on_c, 0, 59, 0
2, 93600, Note_on_c, 0, 55, 64
2, 94080, Note_on_c, 0, 55, 0
2, 94080, Note_on_c, 0, 60, 64
2, 94560, Note_on_c, 0, 60, 0
2, 94560, Note_on_c, 0, 65, 64
2, 95040, Note_on_c, 0, 65, 0
2, 95040, Note_on_c, 0, 63, 64
2, 96000, Note_on_c, 0, 63, 0
2, 96000, Note_on_c, 0, 63, 64
2, 96080, Note_on_c, 0, 63, 0
2, 96080, Note_on_c, 0, 62, 64
2, 96160, Note_on_c, 0, 62, 0
2, 96160, Note_on_c, 0, 63, 64
2, 96240, Note_on_c, 0, 63, 0
2, 96240, Note_on_c, 0, 62, 64
2, 96320, Note_on_c, 0, 62, 0
2, 96320, Note_on_c, 0, 63, 64
2, 96400, Note_on_c, 0, 63, 0
2, 96400, Note_on_c, 0, 62, 64
2, 96480, Note_on_c, 0, 62, 0
2, 96480, Note_on_c, 0, 60, 64
2, 96720, Note_on_c, 0, 60, 0
2, 96720, Note_on_c, 0, 62, 64
2, 96960, Note_on_c, 0, 62, 0
2, 96960, Note_on_c, 0, 60, 64
2, 97200, Note_on_c, 0, 60, 0
2, 97200, Note_on_c, 0, 72, 64
2, 97440, Note_on_c, 0, 72, 0
2, 97440, Note_on_c, 0, 70, 64
2, 97680, Note_on_c, 0, 70, 0
2, 97680, Note_on_c, 0, 68, 64
2, 97920, Note_on_c, 0, 68, 0
2, 97920, Note_on_c, 0, 67, 64
2, 98160, Note_on_c, 0, 67, 0
2, 98160, Note_on_c, 0, 65, 64
2, 98400, Note_on_c, 0, 65, 0
2, 98400, Note_on_c, 0, 63, 64
2, 98640, Note_on_c, 0, 63, 0
2, 98640, Note_on_c, 0, 67, 64
2, 98880, Note_on_c, 0, 67, 0
2, 98880, Note_on_c, 0, 65, 64
2, 99120, Note_on_c, 0, 65, 0
2, 99120, Note_on_c, 0, 67, 64
2, 99360, Note_on_c, 0, 67, 0
2, 99360, Note_on_c, 0, 65, 64
2, 99600, Note_on_c, 0, 65, 0
2, 99600, Note_on_c, 0, 63, 64
2, 99840, Note_on_c, 0, 63, 0
2, 99840, Note_on_c, 0, 62, 64
2, 100080, Note_on_c, 0, 62, 0
2, 100080, Note_on_c, 0, 63, 64
2, 100320, Note_on_c, 0, 63, 0
2, 100320, Note_on_c, 0, 65, 64
2, 100560, Note_on_c, 0, 65, 0
2, 100560, Note_on_c, 0, 62, 64
2, 100800, Note_on_c, 0, 62, 0
2, 100800, Note_on_c, 0, 63, 64
2, 101760, Note_on_c, 0, 63, 0
2, 101760, End_track
3, 0, Start_track
3, 1440, Note_on_c, 0, 50, 64
3, 1680, Note_on_c, 0, 50, 0
3, 1680, Note_on_c, 0, 48, 64
3, 1920, Note_on_c, 0, 48, 0
3, 1920, Note_on_c, 0, 47, 64
3, 2400, Note_on_c, 0, 47, 0
3, 2400, Note_on_c, 0, 46, 64
3, 2880, Note_on_c, 0, 46, 0
3, 2880, Note_on_c, 0, 45, 64
3, 3360, Note_on_c, 0, 45, 0
3, 3360, Note_on_c, 0, 44, 64
3, 3840, Note_on_c, 0, 44, 0
3, 3840, Note_on_c, 0, 43, 64
3, 4800, Note_on_c, 0, 43, 0
3, 4800, Note_on_c, 0, 42, 64
3, 5760, Note_on_c, 0, 42, 0
3, 5760, Note_on_c, 0, 51, 64
3, 6720, Note_on_c, 0, 51, 0
3, 7200, Note_on_c, 0, 43, 64
3, 7680, Note_on_c, 0, 43, 0
3, 7680, Note_on_c, 0, 44, 64
3, 8160, Note_on_c, 0, 44, 0
3, 8160, Note_on_c, 0, 45, 64
3, 9120, Note_on_c, 0, 45, 0
3, 9120, Note_on_c, 0, 46, 64
3, 9600, Note_on_c, 0, 46, 0
3, 9600, Note_on_c, 0, 47, 64
3, 10080, Note_on_c, 0, 47, 0
3, 10080, Note_on_c, 0, 48, 64
3, 11040, Note_on_c, 0, 48, 0
3, 11040, Note_on_c, 0, 50, 64
3, 11520, Note_on_c, 0, 50, 0
3, 11520, Note_on_c, 0, 51, 64
3, 12000, Note_on_c, 0, 51, 0
3, 12000, Note_on_c, 0, 55, 64
3, 12480, Note_on_c, 0, 55, 0
3, 12480, Note_on_c, 0, 50, 64
3, 12960, Note_on_c, 0, 50, 0
3, 12960, Note_on_c, 0, 45, 64
3, 13440, Note_on_c, 0, 45, 0
3, 13440, Note_on_c, 0, 47, 64
3, 14400, Note_on_c, 0, 47, 0
3, 14400, Note_on_c, 0, 50, 64
3, 14480, Note_on_c, 0, 50, 0
3, 14480, Note_on_c, 0, 48, 64
3, 14560, Note_on_c, 0, 48, 0
3, 14560, Note_on_c, 0, 50, 64
3, 14640, Note_on_c, 0, 50, 0
3, 14640, Note_on_c, 0, 48, 64
3, 14720, Note_on_c, 0, 48, 0
3, 14720, Note_on_c, 0, 50, 64
3, 14800, Note_on_c, 0, 50, 0
3, 14800, Note_on_c, 0, 48, 64
3, 14880, Note_on_c, 0, 48, 0
3, 14880, Note_on_c, 0, 50, 64
3, 15120, Note_on_c, 0, 50, 0
3, 15120, Note_on_c, 0, 48, 64
3, 15360, Note_on_c, 0, 48, 0
3, 15360, Note_on_c, 0, 50, 64
3, 15600, Note_on_c, 0, 50, 0
3, 15600, Note_on_c, 0, 38, 64
3, 15840, Note_on_c, 0, 38, 0
3, 15840, Note_on_c, 0, 40, 64
3, 16080, Note_on_c, 0, 40, 0
3, 16080, Note_on_c, 0, 42, 64
3, 16320, Note_on_c, 0, 42, 0
3, 16320, Note_on_c, 0, 43, 64
3, 16560, Note_on_c, 0, 43, 0
3, 16560, Note_on_c, 0, 45, 64
3, 16800, Note_on_c, 0, 45, 0
3, 16800, Note_on_c, 0, 47, 64
3, 17040, Note_on_c, 0, 47, 0
3, 17040, Note_on_c, 0, 43, 64
3, 17280, Note_on_c, 0, 43, 0
3, 17280, Note_on_c, 0, 45, 64
3, 17520, Note_on_c, 0, 45, 0
3, 17520, Note_on_c, 0, 43, 64
3, 17760, Note_on_c, 0, 43, 0
3, 17760, Note_on_c, 0, 45, 64
3, 18000, Note_on_c, 0, 45, 0
3, 18000, Note_on_c, 0, 47, 64
3, 18240, Note_on_c, 0, 47, 0
3, 18240, Note_on_c, 0, 48, 64
3, 18480, Note_on_c, 0, 48, 0
3, 18480, Note_on_c, 0, 47, 64
3, 18720, Note_on_c, 0, 47, 0
3, 18720, Note_on_c, 0, 45, 64
3, 18960, Note_on_c, 0, 45, 0
3, 18960, Note_on_c, 0, 48, 64
3, 19200, Note_on_c, 0, 48, 0
3, 19200, Note_on_c, 0, 47, 64
3, 19440, Note_on_c, 0, 47, 0
3, 19440, Note_on_c, 0, 50, 64
3, 19680, Note_on_c, 0, 50, 0
3, 19680, Note_on_c, 0, 53, 64
3, 19920, Note_on_c, 0, 53, 0
3, 19920, Note_on_c, 0, 50, 64
3, 20160, Note_on_c, 0, 50, 0
3, 20160, Note_on_c, 0, 56, 64
3, 20640, Note_on_c, 0, 56, 0
3, 20640, Note_on_c, 0, 55, 64
3, 20880, Note_on_c, 0, 55, 0
3, 20880, Note_on_c, 0, 53, 64
3, 21120, Note_on_c, 0, 53, 0
3, 21120, Note_on_c, 0, 51, 64
3, 21360, Note_on_c, 0, 51, 0
3, 21360, Note_on_c, 0, 50, 64
3, 21600, Note_on_c, 0, 50, 0
3, 21600, Note_on_c, 0, 48, 64
3, 21840, Note_on_c, 0, 48, 0
3, 21840, Note_on_c, 0, 47, 64
3, 22080, Note_on_c, 0, 47, 0
3, 22080, Note_on_c, 0, 45, 64
3, 22560, Note_on_c, 0, 45, 0
3, 22560, Note_on_c, 0, 47, 64
3, 22800, Note_on_c, 0, 47, 0
3, 22800, Note_on_c, 0, 48, 64
3, 23040, Note_on_c, 0, 48, 0
3, 23040, Note_on_c, 0, 47, 64
3, 23280, Note_on_c, 0, 47, 0
3, 23280, Note_on_c, 0, 48, 64
3, 23520, Note_on_c, 0, 48, 0
3, 23520, Note_on_c, 0, 50, 64
3, 23760, Note_on_c, 0, 50, 0
3, 23760, Note_on_c, 0, 47, 64
3, 24000, Note_on_c, 0, 47, 0
3, 24000, Note_on_c, 0, 48, 64
3, 24480, Note_on_c, 0, 48, 0
3, 24480, Note_on_c, 0, 50, 64
3, 24720, Note_on_c, 0, 50, 0
3, 24720, Note_on_c, 0, 51, 64
3, 24960, Note_on_c, 0, 51, 0
3, 24960, Note_on_c, 0, 50, 64
3, 25440, Note_on_c, 0, 50, 0
3, 25440, Note_on_c, 0, 48, 64
3, 25920, Note_on_c, 0, 48, 0
3, 25920, Note_on_c, 0, 55, 64
3, 26880, Note_on_c, 0, 55, 0
3, 26880, Note_on_c, 0, 56, 64
3, 27840, Note_on_c, 0, 56, 0
3, 28080, Note_on_c, 0, 59, 64
3, 28320, Note_on_c, 0, 59, 0
3, 28320, Note_on_c, 0, 56, 64
3, 28560, Note_on_c, 0, 56, 0
3, 28560, Note_on_c, 0, 55, 64
3, 28800, Note_on_c, 0, 55, 0
3, 29040, Note_on_c, 0, 53, 64
3, 29280, Note_on_c, 0, 53, 0
3, 29280, Note_on_c, 0, 51, 64
3, 29520, Note_on_c, 0, 51, 0
3, 29520, Note_on_c, 0, 50, 64
3, 29760, Note_on_c, 0, 50, 0
3, 30000, Note_on_c, 0, 51, 64
3, 30240, Note_on_c, 0, 51, 0
3, 30240, Note_on_c, 0, 50, 64
3, 30480, Note_on_c, 0, 50, 0
3, 30480, Note_on_c, 0, 48, 64
3, 30720, Note_on_c, 0, 48, 0
3, 30720, Note_on_c, 0, 47, 64
3, 31200, Note_on_c, 0, 47, 0
3, 31200, Note_on_c, 0, 46, 64
3, 31680, Note_on_c, 0, 46, 0
3, 31680, Note_on_c, 0, 45, 64
3, 32160, Note_on_c, 0, 45, 0
3, 32160, Note_on_c, 0, 44, 64
3, 32640, Note_on_c, 0, 44, 0
3, 32640, Note_on_c, 0, 43, 64
3, 33600, Note_on_c, 0, 43, 0
3, 33600, Note_on_c, 0, 42, 64
3, 34560, Note_on_c, 0, 42, 0
3, 34560, Note_on_c, 0, 51, 64
3, 35520, Note_on_c, 0, 51, 0
3, 36000, Note_on_c, 0, 43, 64
3, 36480, Note_on_c, 0, 43, 0
3, 36480, Note_on_c, 0, 44, 64
3, 36960, Note_on_c, 0, 44, 0
3, 36960, Note_on_c, 0, 45, 64
3, 37920, Note_on_c, 0, 45, 0
3, 37920, Note_on_c, 0, 46, 64
3, 38400, Note_on_c, 0, 46, 0
3, 38400, Note_on_c, 0, 47, 64
3, 38880, Note_on_c, 0, 47, 0
3, 38880, Note_on_c, 0, 48, 64
3, 39840, Note_on_c, 0, 48, 0
3, 39840, Note_on_c, 0, 50, 64
3, 40320, Note_on_c, 0, 50, 0
3, 40320, Note_on_c, 0, 51, 64
3, 40800, Note_on_c, 0, 51, 0
3, 40800, Note_on_c, 0, 55, 64
3, 41280, Note_on_c, 0, 55, 0
3, 41280, Note_on_c, 0, 50, 64
3, 41760, Note_on_c, 0, 50, 0
3, 41760, Note_on_c, 0, 45, 64
3, 42240, Note_on_c, 0, 45, 0
3, 42240, Note_on_c, 0, 47, 64
3, 43200, Note_on_c, 0, 47, 0
3, 43200, Note_on_c, 0, 50, 64
3, 43280, Note_on_c, 0, 50, 0
3, 43280, Note_on_c, 0, 48, 64
3, 43360, Note_on_c, 0, 48, 0
3, 43360, Note_on_c, 0, 50, 64
3, 43440, Note_on_c, 0, 50, 0
3, 43440, Note_on_c, 0, 48, 64
3, 43520, Note_on_c, 0, 48, 0
3, 43520, Note_on_c, 0, 50, 64
3, 43600, Note_on_c, 0, 50, 0
3, 43600, Note_on_c, 0, 48, 64
3, 43680, Note_on_c, 0, 48, 0
3, 43680, Note_on_c, 0, 50, 64
3, 43920, Note_on_c, 0, 50, 0
3, 43920, Note_on_c, 0, 48, 64
3, 44160, Note_on_c, 0, 48, 0
3, 44160, Note_on_c, 0, 50, 64
3, 44400, Note_on_c, 0, 50, 0
3, 44400, Note_on_c, 0, 38, 64
3, 44640, Note_on_c, 0, 38, 0
3, 44640, Note_on_c, 0, 40, 64
3, 44880, Note_on_c, 0, 40, 0
3, 44880, Note_on_c, 0, 42, 64
3, 45120, Note_on_c, 0, 42, 0
3, 45120, Note_on_c, 0, 43, 64
3, 45360, Note_on_c, 0, 43, 0
3, 45360, Note_on_c, 0, 45, 64
3, 45600, Note_on_c, 0, 45, 0
3, 45600, Note_on_c, 0, 47, 64
3, 45840, Note_on_c, 0, 47, 0
3, 45840, Note_on_c, 0, 43, 64
3, 46080, Note_on_c, 0, 43, 0
3, 46080, Note_on_c, 0, 45, 64
3, 46320, Note_on_c, 0, 45, 0
3, 46320, Note_on_c, 0, 43, 64
3, 46560, Note_on_c, 0, 43, 0
3, 46560, Note_on_c, 0, 45, 64
3, 46800, Note_on_c, 0, 45, 0
3, 46800, Note_on_c, 0, 47, 64
3, 47040, Note_on_c, 0, 47, 0
3, 47040, Note_on_c, 0, 48, 64
3, 47280, Note_on_c, 0, 48, 0
3, 47280, Note_on_c, 0, 47, 64
3, 47520, Note_on_c, 0, 47, 0
3, 47520, Note_on_c, 0, 45, 64
3, 47760, Note_on_c, 0, 45, 0
3, 47760, Note_on_c, 0, 48, 64
3, 48000, Note_on_c, 0, 48, 0
3, 48000, Note_on_c, 0, 47, 64
3, 48240, Note_on_c, 0, 47, 0
3, 48240, Note_on_c, 0, 50, 64
3, 48480, Note_on_c, 0, 50, 0
3, 48480, Note_on_c, 0, 53, 64
3, 48720, Note_on_c, 0, 53, 0
3, 48720, Note_on_c, 0, 50, 64
3, 48960, Note_on_c, 0, 50, 0
3, 48960, Note_on_c, 0, 56, 64
3, 49440, Note_on_c, 0, 56, 0
3, 49440, Note_on_c, 0, 55, 64
3, 49680, Note_on_c, 0, 55, 0
3, 49680, Note_on_c, 0, 53, 64
3, 49920, Note_on_c, 0, 53, 0
3, 49920, Note_on_c, 0, 51, 64
3, 50160, Note_on_c, 0, 51, 0
3, 50160, Note_on_c, 0, 50, 64
3, 50400, Note_on_c, 0, 50, 0
3, 50400, Note_on_c, 0, 48, 64
3, 50640, Note_on_c, 0, 48, 0
3, 50640, Note_on_c, 0, 47, 64
3, 50880, Note_on_c, 0, 47, 0
3, 50880, Note_on_c, 0, 45, 64
3, 51360, Note_on_c, 0, 45, 0
3, 51360, Note_on_c, 0, 47, 64
3, 51600, Note_on_c, 0, 47, 0
3, 51600, Note_on_c, 0, 48, 64
3, 51840, Note_on_c, 0, 48, 0
3, 51840, Note_on_c, 0, 47, 64
3, 52080, Note_on_c, 0, 47, 0
3, 52080, Note_on_c, 0, 48, 64
3, 52320, Note_on_c, 0, 48, 0
3, 52320, Note_on_c, 0, 50, 64
3, 52560, Note_on_c, 0, 50, 0
3, 52560, Note_on_c, 0, 47, 64
3, 52800, Note_on_c, 0, 47, 0
3, 52800, Note_on_c, 0, 48, 64
3, 53280, Note_on_c, 0, 48, 0
3, 53280, Note_on_c, 0, 50, 64
3, 53520, Note_on_c, 0, 50, 0
3, 53520, Note_on_c, 0, 51, 64
3, 53760, Note_on_c, 0, 51, 0
3, 53760, Note_on_c, 0, 50, 64
3, 54240, Note_on_c, 0, 50, 0
3, 54240, Note_on_c, 0, 48, 64
3, 54720, Note_on_c, 0, 48, 0
3, 54720, Note_on_c, 0, 55, 64
3, 55680, Note_on_c, 0, 55, 0
3, 55680, Note_on_c, 0, 56, 64
3, 56640, Note_on_c, 0, 56, 0
3, 56880, Note_on_c, 0, 59, 64
3, 57120, Note_on_c, 0, 59, 0
3, 57120, Note_on_c, 0, 56, 64
3, 57360, Note_on_c, 0, 56, 0
3, 57360, Note_on_c, 0, 55, 64
3, 57600, Note_on_c, 0, 55, 0
3, 57840, Note_on_c, 0, 53, 64
3, 58080, Note_on_c, 0, 53, 0
3, 58080, Note_on_c, 0, 51, 64
3, 58320, Note_on_c, 0, 51, 0
3, 58320, Note_on_c, 0, 50, 64
3, 58560, Note_on_c, 0, 50, 0
3, 58800, Note_on_c, 0, 51, 64
3, 59040, Note_on_c, 0, 51, 0
3, 59040, Note_on_c, 0, 50, 64
3, 59280, Note_on_c, 0, 50, 0
3, 59280, Note_on_c, 0, 48, 64
3, 59520, Note_on_c, 0, 48, 0
3, 59520, Note_on_c, 0, 47, 64
3, 60000, Note_on_c, 0, 47, 0
3, 60000, Note_on_c, 0, 46, 64
3, 60480, Note_on_c, 0, 46, 0
3, 60480, Note_on_c, 0, 45, 64
3, 60960, Note_on_c, 0, 45, 0
3, 60960, Note_on_c, 0, 44, 64
3, 61440, Note_on_c, 0, 44, 0
3, 61440, Note_on_c, 0, 43, 64
3, 62400, Note_on_c, 0, 43, 0
3, 62400, Note_on_c, 0, 42, 64
3, 63360, Note_on_c, 0, 42, 0
3, 63360, Note_on_c, 0, 51, 64
3, 64320, Note_on_c, 0, 51, 0
3, 64800, Note_on_c, 0, 43, 64
3, 65280, Note_on_c, 0, 43, 0
3, 65280, Note_on_c, 0, 44, 64
3, 65760, Note_on_c, 0, 44, 0
3, 65760, Note_on_c, 0, 45, 64
3, 66720, Note_on_c, 0, 45, 0
3, 66720, Note_on_c, 0, 46, 64
3, 67200, Note_on_c, 0, 46, 0
3, 67200, Note_on_c, 0, 47, 64
3, 67680, Note_on_c, 0, 47, 0
3, 67680, Note_on_c, 0, 48, 64
3, 68640, Note_on_c, 0, 48, 0
3, 68640, Note_on_c, 0, 50, 64
3, 69120, Note_on_c, 0, 50, 0
3, 69120, Note_on_c, 0, 51, 64
3, 69600, Note_on_c, 0, 51, 0
3, 69600, Note_on_c, 0, 55, 64
3, 70080, Note_on_c, 0, 55, 0
3, 70080, Note_on_c, 0, 50, 64
3, 70560, Note_on_c, 0, 50, 0
3, 70560, Note_on_c, 0, 45, 64
3, 71040, Note_on_c, 0, 45, 0
3, 71040, Note_on_c, 0, 47, 64
3, 72000, Note_on_c, 0, 47, 0
3, 72000, Note_on_c, 0, 50, 64
3, 72080, Note_on_c, 0, 50, 0
3, 72080, Note_on_c, 0, 48, 64
3, 72160, Note_on_c, 0, 48, 0
3, 72160, Note_on_c, 0, 50, 64
3, 72240, Note_on_c, 0, 50, 0
3, 72240, Note_on_c, 0, 48, 64
3, 72320, Note_on_c, 0, 48, 0
3, 72320, Note_on_c, 0, 50, 64
3, 72400, Note_on_c, 0, 50, 0
3, 72400, Note_on_c, 0, 48, 64
3, 72480, Note_on_c, 0, 48, 0
3, 72480, Note_on_c, 0, 50, 64
3, 72720, Note_on_c, 0, 50, 0
3, 72720, Note_on_c, 0, 48, 64
3, 72960, Note_on_c, 0, 48, 0
3, 72960, Note_on_c, 0, 50, 64
3, 73200, Note_on_c, 0, 50, 0
3, 73200, Note_on_c, 0, 38, 64
3, 73440, Note_on_c, 0, 38, 0
3, 73440, Note_on_c, 0, 40, 64
3, 73680, Note_on_c, 0, 40, 0
3, 73680, Note_on_c, 0, 42, 64
3, 73920, Note_on_c, 0, 42, 0
3, 73920, Note_on_c, 0, 43, 64
3, 74160, Note_on_c, 0, 43, 0
3, 74160, Note_on_c, 0, 45, 64
3, 74400, Note_on_c, 0, 45, 0
3, 74400, Note_on_c, 0, 47, 64
3, 74640, Note_on_c, 0, 47, 0
3, 74640, Note_on_c, 0, 43, 64
3, 74880, Note_on_c, 0, 43, 0
3, 74880, Note_on_c, 0, 45, 64
3, 75120, Note_on_c, 0, 45, 0
3, 75120, Note_on_c, 0, 43, 64
3, 75360, Note_on_c, 0, 43, 0
3, 75360, Note_on_c, 0, 45, 64
3, 75600, Note_on_c, 0, 45, 0
3, 75600, Note_on_c, 0, 47, 64
3, 75840, Note_on_c, 0, 47, 0
3, 75840, Note_on_c, 0, 48, 64
3, 76080, Note_on_c, 0, 48, 0
3, 76080, Note_on_c, 0, 47, 64
3, 76320, Note_on_c, 0, 47, 0
3, 76320, Note_on_c, 0, 45, 64
3, 76560, Note_on_c, 0, 45, 0
3, 76560, Note_on_c, 0, 48, 64
3, 76800, Note_on_c, 0, 48, 0
3, 76800, Note_on_c, 0, 47, 64
3, 77040, Note_on_c, 0, 47, 0
3, 77040, Note_on_c, 0, 50, 64
3, 77280, Note_on_c, 0, 50, 0
3, 77280, Note_on_c, 0, 53, 64
3, 77520, Note_on_c, 0, 53, 0
3, 77520, Note_on_c, 0, 50, 64
3, 77760, Note_on_c, 0, 50, 0
3, 77760, Note_on_c, 0, 56, 64
3, 78240, Note_on_c, 0, 56, 0
3, 78240, Note_on_c, 0, 55, 64
3, 78480, Note_on_c, 0, 55, 0
3, 78480, Note_on_c, 0, 53, 64
3, 78720, Note_on_c, 0, 53, 0
3, 78720, Note_on_c, 0, 51, 64
3, 78960, Note_on_c, 0, 51, 0
3, 78960, Note_on_c, 0, 50, 64
3, 79200, Note_on_c, 0, 50, 0
3, 79200, Note_on_c, 0, 48, 64
3, 79440, Note_on_c, 0, 48, 0
3, 79440, Note_on_c, 0, 47, 64
3, 79680, Note_on_c, 0, 47, 0
3, 79680, Note_on_c, 0, 45, 64
3, 80160, Note_on_c, 0, 45, 0
3, 80160, Note_on_c, 0, 47, 64
3, 80400, Note_on_c, 0, 47, 0
3, 80400, Note_on_c, 0, 48, 64
3, 80640, Note_on_c, 0, 48, 0
3, 80640, Note_on_c, 0, 47, 64
3, 80880, Note_on_c, 0, 47, 0
3, 80880, Note_on_c, 0, 48, 64
3, 81120, Note_on_c, 0, 48, 0
3, 81120, Note_on_c, 0, 50, 64
3, 81360, Note_on_c, 0, 50, 0
3, 81360, Note_on_c, 0, 47, 64
3, 81600, Note_on_c, 0, 47, 0
3, 81600, Note_on_c, 0, 48, 64
3, 82080, Note_on_c, 0, 48, 0
3, 82080, Note_on_c, 0, 50, 64
3, 82320, Note_on_c, 0, 50, 0
3, 82320, Note_on_c, 0, 51, 64
3, 82560, Note_on_c, 0, 51, 0
3, 82560, Note_on_c, 0, 50, 64
3, 83040, Note_on_c, 0, 50, 0
3, 83040, Note_on_c, 0, 48, 64
3, 83520, Note_on_c, 0, 48, 0
3, 83520, Note_on_c, 0, 55, 64
3, 84480, Note_on_c, 0, 55, 0
3, 84480, Note_on_c, 0, 56, 64
3, 85440, Note_on_c, 0, 56, 0
3, 85680, Note_on_c, 0, 59, 64
3, 85920, Note_on_c, 0, 59, 0
3, 85920, Note_on_c, 0, 56, 64
3, 86160, Note_on_c, 0, 56, 0
3, 86160, Note_on_c, 0, 55, 64
3, 86400, Note_on_c, 0, 55, 0
3, 86640, Note_on_c, 0, 53, 64
3, 86880, Note_on_c, 0, 53, 0
3, 86880, Note_on_c, 0, 51, 64
3, 87120, Note_on_c, 0, 51, 0
3, 87120, Note_on_c, 0, 50, 64
3, 87360, Note_on_c, 0, 50, 0
3, 87600, Note_on_c, 0, 51, 64
3, 87840, Note_on_c, 0, 51, 0
3, 87840, Note_on_c, 0, 50, 64
3, 88080, Note_on_c, 0, 50, 0
3, 88080, Note_on_c, 0, 48, 64
3, 88320, Note_on_c, 0, 48, 0
3, 88320, Note_on_c, 0, 47, 64
3, 88800, Note_on_c, 0, 47, 0
3, 88800, Note_on_c, 0, 46, 64
3, 89280, Note_on_c, 0, 46, 0
3, 89280, Note_on_c, 0, 45, 64
3, 89760, Note_on_c, 0, 45, 0
3, 89760, Note_on_c, 0, 44, 64
3, 90240, Note_on_c, 0, 44, 0
3, 90240, Note_on_c, 0, 43, 64
3, 91200, Note_on_c, 0, 43, 0
3, 91200, Note_on_c, 0, 42, 64
3, 92160, Note_on_c, 0, 42, 0
3, 92160, Note_on_c, 0, 51, 64
3, 93120, Note_on_c, 0, 51, 0
3, 93600, Note_on_c, 0, 43, 64
3, 94080, Note_on_c, 0, 43, 0
3, 94080, Note_on_c, 0, 44, 64
3, 94560, Note_on_c, 0, 44, 0
3, 94560, Note_on_c, 0, 45, 64
3, 95520, Note_on_c, 0, 45, 0
3, 95520, Note_on_c, 0, 46, 64
3, 96000, Note_on_c, 0, 46, 0
3, 96000, Note_on_c, 0, 47, 64
3, 96480, Note_on_c, 0, 47, 0
3, 96480, Note_on_c, 0, 48, 64
3, 97440, Note_on_c, 0, 48, 0
3, 97440, Note_on_c, 0, 50, 64
3, 97920, Note_on_c, 0, 50, 0
3, 97920, Note_on_c, 0, 51, 64
3, 98400, Note_on_c, 0, 51, 0
3, 98400, Note_on_c, 0, 55, 64
3, 98880, Note_on_c, 0, 55, 0
3, 98880, Note_on_c, 0, 50, 64
3, 99360, Note_on_c, 0, 50, 0
3, 99360, Note_on_c, 0, 45, 64
3, 99840, Note_on_c, 0, 45, 0
3, 99840, Note_on_c, 0, 47, 64
3, 100800, Note_on_c, 0, 47, 0
3, 100800, Note_on_c, 0, 48, 64
3, 101760, Note_on_c, 0, 48, 0
3, 101760, End_track
4, 0, Start_track
4, 0, End_track
0, 0, End_of_file
