0, 0, Header, 1, 19, 240
1, 0, Start_track
1, 0, Sequencer_specific, 10, 0, 0, 91, 35, 1, 0, 5, 6, 42, 0
1, 0, Title_t, "J. S. Bach - Orchestral Suite No.4 in D Major BWV1069"
1, 0, Instrument_name_t, "Conductor Track"
1, 0, SMPTE_offset, 96, 0, 3, 0, 0
1, 0, MIDI_port, 0
1, 0, Marker_t, "Originally Sequenced 20 Dec 1999"
1, 0, Tempo, 1111111
1, 0, Key_signature, 2, "major"
1, 0, Time_signature, 1, 2, 24, 8
1, 240, Time_signature, 4, 2, 24, 8
1, 44400, Tempo, 1111111
1, 44480, Tempo, 1132075
1, 44560, Tempo, 1153846
1, 44640, Tempo, 1176470
1, 44720, Tempo, 1200000
1, 44800, Tempo, 1224489
1, 44880, Tempo, 1250000
1, 44960, Tempo, 1276595
1, 45040, Tempo, 1304347
1, 45120, Tempo, 1333333
1, 45200, Tempo, 1363636
1, 45280, Tempo, 1395348
1, 45360, Tempo, 344827
1, 45360, Time_signature, 9, 3, 36, 8
1, 199800, Time_signature, 4, 2, 24, 8
1, 199800, Tempo, 1111111
1, 218040, Tempo, 1111111
1, 218120, Tempo, 1132075
1, 218200, Tempo, 1153846
1, 218280, Tempo, 1176470
1, 218360, Tempo, 1200000
1, 218440, Tempo, 1224489
1, 218520, Tempo, 1250000
1, 218600, Tempo, 1276595
1, 218680, Tempo, 1304347
1, 218760, Tempo, 1333333
1, 218840, Tempo, 1363636
1, 218920, Tempo, 1395348
1, 219000, Tempo, 344827
1, 219000, Time_signature, 9, 3, 36, 8
1, 374520, Time_signature, 4, 2, 24, 8
1, 374520, Tempo, 1111111
1, 392760, Tempo, 1111111
1, 392840, Tempo, 1132075
1, 392920, Tempo, 1153846
1, 393000, Tempo, 1176470
1, 393080, Tempo, 1200000
1, 393160, Tempo, 1224489
1, 393240, Tempo, 1250000
1, 393320, Tempo, 1276595
1, 393400, Tempo, 1304347
1, 393480, Tempo, 1333333
1, 393560, Tempo, 1363636
1, 393640, Tempo, 1395348
1, 393720, Tempo, 1500000
1, 394680, Tempo, 2000000
1, 395400, Tempo, 2000000
1, 395400, End_track
2, 0, Start_track
2, 0, Title_t, "1st Movement - Overture"
2, 0, MIDI_port, 0
2, 0, End_track
3, 0, Start_track
3, 0, Title_t, "Sequenced by D. L. Viens 19 Jan 2001"
3, 0, MIDI_port, 0
3, 0, End_track
4, 0, Start_track
4, 0, Title_t, "dlviens@empire.net"
4, 0, MIDI_port, 0
4, 0, End_track
5, 0, Start_track
5, 0, MIDI_port, 0
5, 0, End_track
6, 0, Start_track
6, 0, Title_t, "Trumpet I in D"
6, 0, MIDI_port, 0
6, 0, Program_c, 0, 56
6, 0, Control_c, 0, 10, 54
6, 0, Control_c, 0, 11, 127
6, 0, Control_c, 0, 7, 96
6, 180, Note_on_c, 0, 81, 76
6, 233, Note_on_c, 0, 81, 0
6, 240, Note_on_c, 0, 81, 76
6, 479, Note_on_c, 0, 81, 0
6, 1140, Note_on_c, 0, 86, 76
6, 1193, Note_on_c, 0, 86, 0
6, 1200, Note_on_c, 0, 86, 76
6, 1439, Note_on_c, 0, 86, 0
6, 2100, Note_on_c, 0, 74, 76
6, 2153, Note_on_c, 0, 74, 0
6, 2160, Note_on_c, 0, 81, 76
6, 2399, Note_on_c, 0, 81, 0
6, 3060, Note_on_c, 0, 78, 76
6, 3113, Note_on_c, 0, 78, 0
6, 3120, Note_on_c, 0, 79, 76
6, 3469, Note_on_c, 0, 79, 0
6, 3480, Note_on_c, 0, 79, 76
6, 3589, Note_on_c, 0, 79, 0
6, 3600, Note_on_c, 0, 79, 76
6, 3773, Note_on_c, 0, 79, 0
6, 3780, Note_on_c, 0, 76, 76
6, 3833, Note_on_c, 0, 76, 0
6, 3840, Note_on_c, 0, 81, 76
6, 4013, Note_on_c, 0, 81, 0
6, 4020, Note_on_c, 0, 76, 76
6, 4073, Note_on_c, 0, 76, 0
6, 4080, Note_on_c, 0, 78, 76
6, 4309, Note_on_c, 0, 78, 0
6, 4320, Note_on_c, 0, 74, 76
6, 4559, Note_on_c, 0, 74, 0
6, 7860, Note_on_c, 0, 85, 76
6, 7913, Note_on_c, 0, 85, 0
6, 7920, Note_on_c, 0, 85, 76
6, 8159, Note_on_c, 0, 85, 0
6, 8820, Note_on_c, 0, 81, 76
6, 8873, Note_on_c, 0, 81, 0
6, 8880, Note_on_c, 0, 81, 76
6, 9119, Note_on_c, 0, 81, 0
6, 9780, Note_on_c, 0, 74, 76
6, 9833, Note_on_c, 0, 74, 0
6, 9840, Note_on_c, 0, 76, 76
6, 10079, Note_on_c, 0, 76, 0
6, 10740, Note_on_c, 0, 85, 76
6, 10793, Note_on_c, 0, 85, 0
6, 10800, Note_on_c, 0, 83, 76
6, 11149, Note_on_c, 0, 83, 0
6, 11160, Note_on_c, 0, 83, 76
6, 11269, Note_on_c, 0, 83, 0
6, 11280, Note_on_c, 0, 83, 76
6, 11453, Note_on_c, 0, 83, 0
6, 11460, Note_on_c, 0, 81, 76
6, 11513, Note_on_c, 0, 81, 0
6, 11520, Note_on_c, 0, 83, 76
6, 11693, Note_on_c, 0, 83, 0
6, 11700, Note_on_c, 0, 80, 76
6, 11753, Note_on_c, 0, 80, 0
6, 11760, Note_on_c, 0, 81, 76
6, 11989, Note_on_c, 0, 81, 0
6, 12000, Note_on_c, 0, 85, 76
6, 12239, Note_on_c, 0, 85, 0
6, 21540, Note_on_c, 0, 80, 76
6, 21593, Note_on_c, 0, 80, 0
6, 21600, Note_on_c, 0, 81, 76
6, 21773, Note_on_c, 0, 81, 0
6, 21780, Note_on_c, 0, 83, 76
6, 21833, Note_on_c, 0, 83, 0
6, 21840, Note_on_c, 0, 80, 76
6, 22189, Note_on_c, 0, 80, 0
6, 22200, Note_on_c, 0, 81, 76
6, 22309, Note_on_c, 0, 81, 0
6, 22320, Note_on_c, 0, 81, 76
6, 23039, Note_on_c, 0, 81, 0
6, 23220, Note_on_c, 0, 81, 76
6, 23273, Note_on_c, 0, 81, 0
6, 23280, Note_on_c, 0, 81, 76
6, 23519, Note_on_c, 0, 81, 0
6, 24180, Note_on_c, 0, 86, 76
6, 24233, Note_on_c, 0, 86, 0
6, 24240, Note_on_c, 0, 86, 76
6, 24479, Note_on_c, 0, 86, 0
6, 25140, Note_on_c, 0, 74, 76
6, 25193, Note_on_c, 0, 74, 0
6, 25200, Note_on_c, 0, 81, 76
6, 25439, Note_on_c, 0, 81, 0
6, 26100, Note_on_c, 0, 78, 76
6, 26153, Note_on_c, 0, 78, 0
6, 26160, Note_on_c, 0, 79, 76
6, 26509, Note_on_c, 0, 79, 0
6, 26520, Note_on_c, 0, 79, 76
6, 26629, Note_on_c, 0, 79, 0
6, 26640, Note_on_c, 0, 79, 76
6, 26813, Note_on_c, 0, 79, 0
6, 26820, Note_on_c, 0, 76, 76
6, 26873, Note_on_c, 0, 76, 0
6, 26880, Note_on_c, 0, 81, 76
6, 27053, Note_on_c, 0, 81, 0
6, 27060, Note_on_c, 0, 76, 76
6, 27113, Note_on_c, 0, 76, 0
6, 27120, Note_on_c, 0, 78, 76
6, 27349, Note_on_c, 0, 78, 0
6, 27360, Note_on_c, 0, 74, 76
6, 27599, Note_on_c, 0, 74, 0
6, 30900, Note_on_c, 0, 85, 76
6, 30953, Note_on_c, 0, 85, 0
6, 30960, Note_on_c, 0, 85, 76
6, 31199, Note_on_c, 0, 85, 0
6, 31860, Note_on_c, 0, 81, 76
6, 31913, Note_on_c, 0, 81, 0
6, 31920, Note_on_c, 0, 81, 76
6, 32159, Note_on_c, 0, 81, 0
6, 32820, Note_on_c, 0, 74, 76
6, 32873, Note_on_c, 0, 74, 0
6, 32880, Note_on_c, 0, 76, 76
6, 33119, Note_on_c, 0, 76, 0
6, 33780, Note_on_c, 0, 85, 76
6, 33833, Note_on_c, 0, 85, 0
6, 33840, Note_on_c, 0, 83, 76
6, 34189, Note_on_c, 0, 83, 0
6, 34200, Note_on_c, 0, 83, 76
6, 34309, Note_on_c, 0, 83, 0
6, 34320, Note_on_c, 0, 83, 76
6, 34493, Note_on_c, 0, 83, 0
6, 34500, Note_on_c, 0, 81, 76
6, 34553, Note_on_c, 0, 81, 0
6, 34560, Note_on_c, 0, 83, 76
6, 34733, Note_on_c, 0, 83, 0
6, 34740, Note_on_c, 0, 80, 76
6, 34793, Note_on_c, 0, 80, 0
6, 34800, Note_on_c, 0, 81, 76
6, 35029, Note_on_c, 0, 81, 0
6, 35040, Note_on_c, 0, 85, 76
6, 35279, Note_on_c, 0, 85, 0
6, 44580, Note_on_c, 0, 80, 76
6, 44633, Note_on_c, 0, 80, 0
6, 44640, Note_on_c, 0, 81, 76
6, 44813, Note_on_c, 0, 81, 0
6, 44820, Note_on_c, 0, 83, 76
6, 44873, Note_on_c, 0, 83, 0
6, 44880, Note_on_c, 0, 80, 76
6, 45229, Note_on_c, 0, 80, 0
6, 45240, Note_on_c, 0, 81, 76
6, 45349, Note_on_c, 0, 81, 0
6, 45360, Note_on_c, 0, 81, 76
6, 45599, Note_on_c, 0, 81, 0
6, 60840, Note_on_c, 0, 81, 76
6, 60959, Note_on_c, 0, 81, 0
6, 61200, Note_on_c, 0, 79, 76
6, 61319, Note_on_c, 0, 79, 0
6, 61560, Note_on_c, 0, 78, 76
6, 61679, Note_on_c, 0, 78, 0
6, 61920, Note_on_c, 0, 78, 76
6, 62039, Note_on_c, 0, 78, 0
6, 62280, Note_on_c, 0, 81, 76
6, 62399, Note_on_c, 0, 81, 0
6, 62640, Note_on_c, 0, 83, 76
6, 62759, Note_on_c, 0, 83, 0
6, 63000, Note_on_c, 0, 79, 76
6, 63119, Note_on_c, 0, 79, 0
6, 63360, Note_on_c, 0, 78, 76
6, 63479, Note_on_c, 0, 78, 0
6, 63720, Note_on_c, 0, 76, 76
6, 63839, Note_on_c, 0, 76, 0
6, 64080, Note_on_c, 0, 81, 76
6, 64199, Note_on_c, 0, 81, 0
6, 64440, Note_on_c, 0, 79, 76
6, 64559, Note_on_c, 0, 79, 0
6, 64800, Note_on_c, 0, 78, 76
6, 64919, Note_on_c, 0, 78, 0
6, 65160, Note_on_c, 0, 83, 76
6, 65279, Note_on_c, 0, 83, 0
6, 65520, Note_on_c, 0, 81, 76
6, 65639, Note_on_c, 0, 81, 0
6, 65880, Note_on_c, 0, 79, 76
6, 66134, Note_on_c, 0, 79, 0
6, 66150, Note_on_c, 0, 76, 76
6, 66224, Note_on_c, 0, 76, 0
6, 66240, Note_on_c, 0, 79, 76
6, 67059, Note_on_c, 0, 79, 0
6, 67080, Note_on_c, 0, 76, 76
6, 67179, Note_on_c, 0, 76, 0
6, 67200, Note_on_c, 0, 78, 76
6, 67299, Note_on_c, 0, 78, 0
6, 67320, Note_on_c, 0, 79, 76
6, 67419, Note_on_c, 0, 79, 0
6, 67440, Note_on_c, 0, 81, 76
6, 67539, Note_on_c, 0, 81, 0
6, 67560, Note_on_c, 0, 78, 76
6, 67659, Note_on_c, 0, 78, 0
6, 67680, Note_on_c, 0, 79, 76
6, 67779, Note_on_c, 0, 79, 0
6, 67800, Note_on_c, 0, 78, 76
6, 67899, Note_on_c, 0, 78, 0
6, 67920, Note_on_c, 0, 76, 76
6, 68019, Note_on_c, 0, 76, 0
6, 68040, Note_on_c, 0, 78, 76
6, 68139, Note_on_c, 0, 78, 0
6, 68160, Note_on_c, 0, 81, 76
6, 68259, Note_on_c, 0, 81, 0
6, 68280, Note_on_c, 0, 79, 76
6, 68379, Note_on_c, 0, 79, 0
6, 68400, Note_on_c, 0, 81, 76
6, 68654, Note_on_c, 0, 81, 0
6, 68670, Note_on_c, 0, 83, 76
6, 68744, Note_on_c, 0, 83, 0
6, 68760, Note_on_c, 0, 76, 76
6, 69014, Note_on_c, 0, 76, 0
6, 69030, Note_on_c, 0, 81, 76
6, 69104, Note_on_c, 0, 81, 0
6, 69120, Note_on_c, 0, 78, 76
6, 69239, Note_on_c, 0, 78, 0
6, 70200, Note_on_c, 0, 81, 76
6, 70319, Note_on_c, 0, 81, 0
6, 71280, Note_on_c, 0, 86, 76
6, 71399, Note_on_c, 0, 86, 0
6, 91800, Note_on_c, 0, 81, 76
6, 91919, Note_on_c, 0, 81, 0
6, 92880, Note_on_c, 0, 85, 76
6, 92999, Note_on_c, 0, 85, 0
6, 93960, Note_on_c, 0, 88, 76
6, 94079, Note_on_c, 0, 88, 0
6, 106200, Note_on_c, 0, 81, 76
6, 106319, Note_on_c, 0, 81, 0
6, 106560, Note_on_c, 0, 79, 76
6, 106679, Note_on_c, 0, 79, 0
6, 106920, Note_on_c, 0, 78, 76
6, 107039, Note_on_c, 0, 78, 0
6, 107280, Note_on_c, 0, 83, 76
6, 107399, Note_on_c, 0, 83, 0
6, 107640, Note_on_c, 0, 81, 76
6, 107759, Note_on_c, 0, 81, 0
6, 108000, Note_on_c, 0, 80, 76
6, 108119, Note_on_c, 0, 80, 0
6, 108360, Note_on_c, 0, 85, 76
6, 108479, Note_on_c, 0, 85, 0
6, 108720, Note_on_c, 0, 83, 76
6, 108839, Note_on_c, 0, 83, 0
6, 109080, Note_on_c, 0, 81, 76
6, 109199, Note_on_c, 0, 81, 0
6, 109440, Note_on_c, 0, 81, 76
6, 109559, Note_on_c, 0, 81, 0
6, 109800, Note_on_c, 0, 81, 76
6, 109919, Note_on_c, 0, 81, 0
6, 110160, Note_on_c, 0, 81, 76
6, 110279, Note_on_c, 0, 81, 0
6, 110520, Note_on_c, 0, 80, 76
6, 110639, Note_on_c, 0, 80, 0
6, 110880, Note_on_c, 0, 81, 76
6, 110999, Note_on_c, 0, 81, 0
6, 111240, Note_on_c, 0, 83, 76
6, 112059, Note_on_c, 0, 83, 0
6, 112080, Note_on_c, 0, 85, 76
6, 112179, Note_on_c, 0, 85, 0
6, 112200, Note_on_c, 0, 86, 76
6, 112299, Note_on_c, 0, 86, 0
6, 112320, Note_on_c, 0, 85, 76
6, 112574, Note_on_c, 0, 85, 0
6, 112590, Note_on_c, 0, 83, 76
6, 112664, Note_on_c, 0, 83, 0
6, 112680, Note_on_c, 0, 81, 76
6, 112934, Note_on_c, 0, 81, 0
6, 112950, Note_on_c, 0, 83, 76
6, 113024, Note_on_c, 0, 83, 0
6, 113040, Note_on_c, 0, 80, 76
6, 113294, Note_on_c, 0, 80, 0
6, 113310, Note_on_c, 0, 81, 76
6, 113384, Note_on_c, 0, 81, 0
6, 113400, Note_on_c, 0, 81, 76
6, 113519, Note_on_c, 0, 81, 0
6, 114480, Note_on_c, 0, 81, 76
6, 114599, Note_on_c, 0, 81, 0
6, 115800, Note_on_c, 0, 76, 76
6, 115899, Note_on_c, 0, 76, 0
6, 115920, Note_on_c, 0, 76, 76
6, 116039, Note_on_c, 0, 76, 0
6, 116040, Note_on_c, 0, 79, 76
6, 116139, Note_on_c, 0, 79, 0
6, 116160, Note_on_c, 0, 78, 76
6, 116259, Note_on_c, 0, 78, 0
6, 116280, Note_on_c, 0, 78, 76
6, 116399, Note_on_c, 0, 78, 0
6, 116400, Note_on_c, 0, 81, 76
6, 116499, Note_on_c, 0, 81, 0
6, 116520, Note_on_c, 0, 79, 76
6, 116619, Note_on_c, 0, 79, 0
6, 116640, Note_on_c, 0, 79, 76
6, 116759, Note_on_c, 0, 79, 0
6, 117000, Note_on_c, 0, 81, 76
6, 117119, Note_on_c, 0, 81, 0
6, 117360, Note_on_c, 0, 79, 76
6, 117479, Note_on_c, 0, 79, 0
6, 117720, Note_on_c, 0, 78, 76
6, 117974, Note_on_c, 0, 78, 0
6, 117990, Note_on_c, 0, 74, 76
6, 118064, Note_on_c, 0, 74, 0
6, 118080, Note_on_c, 0, 74, 76
6, 118199, Note_on_c, 0, 74, 0
6, 118200, Note_on_c, 0, 78, 76
6, 118299, Note_on_c, 0, 78, 0
6, 118320, Note_on_c, 0, 76, 76
6, 118419, Note_on_c, 0, 76, 0
6, 118440, Note_on_c, 0, 76, 76
6, 118559, Note_on_c, 0, 76, 0
6, 118560, Note_on_c, 0, 79, 76
6, 118659, Note_on_c, 0, 79, 0
6, 118680, Note_on_c, 0, 78, 76
6, 118779, Note_on_c, 0, 78, 0
6, 118800, Note_on_c, 0, 78, 76
6, 118919, Note_on_c, 0, 78, 0
6, 121320, Note_on_c, 0, 81, 76
6, 121439, Note_on_c, 0, 81, 0
6, 121680, Note_on_c, 0, 81, 76
6, 121799, Note_on_c, 0, 81, 0
6, 122040, Note_on_c, 0, 83, 76
6, 122159, Note_on_c, 0, 83, 0
6, 126630, Note_on_c, 0, 66, 76
6, 126704, Note_on_c, 0, 66, 0
6, 126720, Note_on_c, 0, 66, 76
6, 126974, Note_on_c, 0, 66, 0
6, 126990, Note_on_c, 0, 66, 76
6, 127064, Note_on_c, 0, 66, 0
6, 127080, Note_on_c, 0, 66, 76
6, 127334, Note_on_c, 0, 66, 0
6, 127350, Note_on_c, 0, 66, 76
6, 127424, Note_on_c, 0, 66, 0
6, 127440, Note_on_c, 0, 66, 76
6, 127559, Note_on_c, 0, 66, 0
6, 136320, Note_on_c, 0, 78, 76
6, 136419, Note_on_c, 0, 78, 0
6, 136440, Note_on_c, 0, 78, 76
6, 136694, Note_on_c, 0, 78, 0
6, 136710, Note_on_c, 0, 78, 76
6, 136784, Note_on_c, 0, 78, 0
6, 136800, Note_on_c, 0, 78, 76
6, 136919, Note_on_c, 0, 78, 0
6, 137430, Note_on_c, 0, 66, 76
6, 137504, Note_on_c, 0, 66, 0
6, 137520, Note_on_c, 0, 66, 76
6, 137774, Note_on_c, 0, 66, 0
6, 137790, Note_on_c, 0, 66, 76
6, 137864, Note_on_c, 0, 66, 0
6, 137880, Note_on_c, 0, 66, 76
6, 137999, Note_on_c, 0, 66, 0
6, 146070, Note_on_c, 0, 62, 76
6, 146144, Note_on_c, 0, 62, 0
6, 146160, Note_on_c, 0, 62, 76
6, 146414, Note_on_c, 0, 62, 0
6, 146430, Note_on_c, 0, 62, 76
6, 146504, Note_on_c, 0, 62, 0
6, 146520, Note_on_c, 0, 62, 76
6, 146774, Note_on_c, 0, 62, 0
6, 146790, Note_on_c, 0, 62, 76
6, 146864, Note_on_c, 0, 62, 0
6, 146880, Note_on_c, 0, 62, 76
6, 146999, Note_on_c, 0, 62, 0
6, 148230, Note_on_c, 0, 62, 76
6, 148304, Note_on_c, 0, 62, 0
6, 148320, Note_on_c, 0, 62, 76
6, 148574, Note_on_c, 0, 62, 0
6, 148590, Note_on_c, 0, 62, 76
6, 148664, Note_on_c, 0, 62, 0
6, 148680, Note_on_c, 0, 62, 76
6, 148934, Note_on_c, 0, 62, 0
6, 148950, Note_on_c, 0, 62, 76
6, 149024, Note_on_c, 0, 62, 0
6, 149040, Note_on_c, 0, 62, 76
6, 149159, Note_on_c, 0, 62, 0
6, 189360, Note_on_c, 0, 81, 76
6, 189479, Note_on_c, 0, 81, 0
6, 189720, Note_on_c, 0, 79, 76
6, 189839, Note_on_c, 0, 79, 0
6, 190080, Note_on_c, 0, 78, 76
6, 190199, Note_on_c, 0, 78, 0
6, 190440, Note_on_c, 0, 78, 76
6, 190559, Note_on_c, 0, 78, 0
6, 190800, Note_on_c, 0, 81, 76
6, 190919, Note_on_c, 0, 81, 0
6, 191160, Note_on_c, 0, 83, 76
6, 191279, Note_on_c, 0, 83, 0
6, 191520, Note_on_c, 0, 79, 76
6, 191639, Note_on_c, 0, 79, 0
6, 191880, Note_on_c, 0, 78, 76
6, 191999, Note_on_c, 0, 78, 0
6, 192240, Note_on_c, 0, 76, 76
6, 192359, Note_on_c, 0, 76, 0
6, 192600, Note_on_c, 0, 81, 76
6, 192719, Note_on_c, 0, 81, 0
6, 192960, Note_on_c, 0, 79, 76
6, 193079, Note_on_c, 0, 79, 0
6, 193320, Note_on_c, 0, 78, 76
6, 193439, Note_on_c, 0, 78, 0
6, 193680, Note_on_c, 0, 83, 76
6, 193799, Note_on_c, 0, 83, 0
6, 194040, Note_on_c, 0, 81, 76
6, 194159, Note_on_c, 0, 81, 0
6, 194400, Note_on_c, 0, 79, 76
6, 194654, Note_on_c, 0, 79, 0
6, 194670, Note_on_c, 0, 76, 76
6, 194744, Note_on_c, 0, 76, 0
6, 194760, Note_on_c, 0, 79, 76
6, 195599, Note_on_c, 0, 79, 0
6, 195600, Note_on_c, 0, 76, 76
6, 195699, Note_on_c, 0, 76, 0
6, 195720, Note_on_c, 0, 78, 76
6, 195819, Note_on_c, 0, 78, 0
6, 195840, Note_on_c, 0, 79, 76
6, 195959, Note_on_c, 0, 79, 0
6, 195960, Note_on_c, 0, 81, 76
6, 196059, Note_on_c, 0, 81, 0
6, 196080, Note_on_c, 0, 78, 76
6, 196179, Note_on_c, 0, 78, 0
6, 196200, Note_on_c, 0, 79, 76
6, 196319, Note_on_c, 0, 79, 0
6, 196320, Note_on_c, 0, 78, 76
6, 196419, Note_on_c, 0, 78, 0
6, 196440, Note_on_c, 0, 76, 76
6, 196539, Note_on_c, 0, 76, 0
6, 196560, Note_on_c, 0, 78, 76
6, 196679, Note_on_c, 0, 78, 0
6, 196680, Note_on_c, 0, 81, 76
6, 196779, Note_on_c, 0, 81, 0
6, 196800, Note_on_c, 0, 79, 76
6, 196899, Note_on_c, 0, 79, 0
6, 196920, Note_on_c, 0, 81, 76
6, 197174, Note_on_c, 0, 81, 0
6, 197190, Note_on_c, 0, 83, 76
6, 197264, Note_on_c, 0, 83, 0
6, 197280, Note_on_c, 0, 76, 76
6, 197534, Note_on_c, 0, 76, 0
6, 197550, Note_on_c, 0, 81, 76
6, 197624, Note_on_c, 0, 81, 0
6, 197640, Note_on_c, 0, 78, 76
6, 197759, Note_on_c, 0, 78, 0
6, 198720, Note_on_c, 0, 81, 76
6, 198839, Note_on_c, 0, 81, 0
6, 199800, Note_on_c, 0, 86, 76
6, 200039, Note_on_c, 0, 86, 0
6, 204540, Note_on_c, 0, 85, 76
6, 204593, Note_on_c, 0, 85, 0
6, 204600, Note_on_c, 0, 86, 76
6, 204839, Note_on_c, 0, 86, 0
6, 205500, Note_on_c, 0, 81, 76
6, 205553, Note_on_c, 0, 81, 0
6, 205560, Note_on_c, 0, 83, 76
6, 205799, Note_on_c, 0, 83, 0
6, 206460, Note_on_c, 0, 79, 76
6, 206513, Note_on_c, 0, 79, 0
6, 206520, Note_on_c, 0, 81, 76
6, 206759, Note_on_c, 0, 81, 0
6, 207420, Note_on_c, 0, 78, 76
6, 207473, Note_on_c, 0, 78, 0
6, 207480, Note_on_c, 0, 79, 76
6, 207829, Note_on_c, 0, 79, 0
6, 207840, Note_on_c, 0, 79, 76
6, 207949, Note_on_c, 0, 79, 0
6, 207960, Note_on_c, 0, 79, 76
6, 208133, Note_on_c, 0, 79, 0
6, 208140, Note_on_c, 0, 76, 76
6, 208193, Note_on_c, 0, 76, 0
6, 208200, Note_on_c, 0, 81, 76
6, 208373, Note_on_c, 0, 81, 0
6, 208380, Note_on_c, 0, 76, 76
6, 208433, Note_on_c, 0, 76, 0
6, 208440, Note_on_c, 0, 78, 76
6, 208669, Note_on_c, 0, 78, 0
6, 208680, Note_on_c, 0, 74, 76
6, 208909, Note_on_c, 0, 74, 0
6, 218220, Note_on_c, 0, 81, 76
6, 218273, Note_on_c, 0, 81, 0
6, 218280, Note_on_c, 0, 81, 76
6, 218453, Note_on_c, 0, 81, 0
6, 218460, Note_on_c, 0, 83, 76
6, 218513, Note_on_c, 0, 83, 0
6, 218520, Note_on_c, 0, 81, 76
6, 218759, Note_on_c, 0, 81, 0
6, 218760, Note_on_c, 0, 79, 76
6, 218774, Note_on_c, 0, 79, 0
6, 218775, Note_on_c, 0, 81, 76
6, 218789, Note_on_c, 0, 81, 0
6, 218790, Note_on_c, 0, 79, 76
6, 218804, Note_on_c, 0, 79, 0
6, 218805, Note_on_c, 0, 81, 76
6, 218819, Note_on_c, 0, 81, 0
6, 218820, Note_on_c, 0, 79, 76
6, 218834, Note_on_c, 0, 79, 0
6, 218835, Note_on_c, 0, 81, 76
6, 218849, Note_on_c, 0, 81, 0
6, 218850, Note_on_c, 0, 79, 76
6, 218864, Note_on_c, 0, 79, 0
6, 218865, Note_on_c, 0, 81, 76
6, 218879, Note_on_c, 0, 81, 0
6, 218880, Note_on_c, 0, 79, 76
6, 218894, Note_on_c, 0, 79, 0
6, 218895, Note_on_c, 0, 81, 76
6, 218909, Note_on_c, 0, 81, 0
6, 218910, Note_on_c, 0, 78, 76
6, 218924, Note_on_c, 0, 78, 0
6, 218925, Note_on_c, 0, 79, 76
6, 218939, Note_on_c, 0, 79, 0
6, 218940, Note_on_c, 0, 78, 76
6, 218993, Note_on_c, 0, 78, 0
6, 219000, Note_on_c, 0, 78, 76
6, 219359, Note_on_c, 0, 78, 0
6, 235560, Note_on_c, 0, 81, 76
6, 235679, Note_on_c, 0, 81, 0
6, 235920, Note_on_c, 0, 79, 76
6, 236039, Note_on_c, 0, 79, 0
6, 236280, Note_on_c, 0, 78, 76
6, 236399, Note_on_c, 0, 78, 0
6, 236640, Note_on_c, 0, 78, 76
6, 236759, Note_on_c, 0, 78, 0
6, 237000, Note_on_c, 0, 81, 76
6, 237119, Note_on_c, 0, 81, 0
6, 237360, Note_on_c, 0, 83, 76
6, 237479, Note_on_c, 0, 83, 0
6, 237720, Note_on_c, 0, 79, 76
6, 237839, Note_on_c, 0, 79, 0
6, 238080, Note_on_c, 0, 78, 76
6, 238199, Note_on_c, 0, 78, 0
6, 238440, Note_on_c, 0, 76, 76
6, 238559, Note_on_c, 0, 76, 0
6, 238800, Note_on_c, 0, 81, 76
6, 238919, Note_on_c, 0, 81, 0
6, 239160, Note_on_c, 0, 79, 76
6, 239279, Note_on_c, 0, 79, 0
6, 239520, Note_on_c, 0, 78, 76
6, 239639, Note_on_c, 0, 78, 0
6, 239880, Note_on_c, 0, 83, 76
6, 239999, Note_on_c, 0, 83, 0
6, 240240, Note_on_c, 0, 81, 76
6, 240359, Note_on_c, 0, 81, 0
6, 240600, Note_on_c, 0, 79, 76
6, 240854, Note_on_c, 0, 79, 0
6, 240870, Note_on_c, 0, 76, 76
6, 240944, Note_on_c, 0, 76, 0
6, 240960, Note_on_c, 0, 79, 76
6, 241779, Note_on_c, 0, 79, 0
6, 241800, Note_on_c, 0, 76, 76
6, 241899, Note_on_c, 0, 76, 0
6, 241920, Note_on_c, 0, 78, 76
6, 242019, Note_on_c, 0, 78, 0
6, 242040, Note_on_c, 0, 79, 76
6, 242139, Note_on_c, 0, 79, 0
6, 242160, Note_on_c, 0, 81, 76
6, 242259, Note_on_c, 0, 81, 0
6, 242280, Note_on_c, 0, 78, 76
6, 242379, Note_on_c, 0, 78, 0
6, 242400, Note_on_c, 0, 79, 76
6, 242499, Note_on_c, 0, 79, 0
6, 242520, Note_on_c, 0, 78, 76
6, 242619, Note_on_c, 0, 78, 0
6, 242640, Note_on_c, 0, 76, 76
6, 242739, Note_on_c, 0, 76, 0
6, 242760, Note_on_c, 0, 78, 76
6, 242859, Note_on_c, 0, 78, 0
6, 242880, Note_on_c, 0, 81, 76
6, 242979, Note_on_c, 0, 81, 0
6, 243000, Note_on_c, 0, 79, 76
6, 243099, Note_on_c, 0, 79, 0
6, 243120, Note_on_c, 0, 81, 76
6, 243374, Note_on_c, 0, 81, 0
6, 243390, Note_on_c, 0, 83, 76
6, 243464, Note_on_c, 0, 83, 0
6, 243480, Note_on_c, 0, 76, 76
6, 243734, Note_on_c, 0, 76, 0
6, 243750, Note_on_c, 0, 81, 76
6, 243824, Note_on_c, 0, 81, 0
6, 243840, Note_on_c, 0, 78, 76
6, 243959, Note_on_c, 0, 78, 0
6, 244920, Note_on_c, 0, 81, 76
6, 245039, Note_on_c, 0, 81, 0
6, 246000, Note_on_c, 0, 86, 76
6, 246119, Note_on_c, 0, 86, 0
6, 266520, Note_on_c, 0, 81, 76
6, 266639, Note_on_c, 0, 81, 0
6, 267600, Note_on_c, 0, 85, 76
6, 267719, Note_on_c, 0, 85, 0
6, 268680, Note_on_c, 0, 88, 76
6, 268799, Note_on_c, 0, 88, 0
6, 280920, Note_on_c, 0, 81, 76
6, 281039, Note_on_c, 0, 81, 0
6, 281280, Note_on_c, 0, 79, 76
6, 281399, Note_on_c, 0, 79, 0
6, 281640, Note_on_c, 0, 78, 76
6, 281759, Note_on_c, 0, 78, 0
6, 282000, Note_on_c, 0, 83, 76
6, 282119, Note_on_c, 0, 83, 0
6, 282360, Note_on_c, 0, 81, 76
6, 282479, Note_on_c, 0, 81, 0
6, 282720, Note_on_c, 0, 80, 76
6, 282839, Note_on_c, 0, 80, 0
6, 283080, Note_on_c, 0, 85, 76
6, 283199, Note_on_c, 0, 85, 0
6, 283440, Note_on_c, 0, 83, 76
6, 283559, Note_on_c, 0, 83, 0
6, 283800, Note_on_c, 0, 81, 76
6, 283919, Note_on_c, 0, 81, 0
6, 284160, Note_on_c, 0, 81, 76
6, 284279, Note_on_c, 0, 81, 0
6, 284520, Note_on_c, 0, 81, 76
6, 284639, Note_on_c, 0, 81, 0
6, 284880, Note_on_c, 0, 81, 76
6, 284999, Note_on_c, 0, 81, 0
6, 285240, Note_on_c, 0, 80, 76
6, 285359, Note_on_c, 0, 80, 0
6, 285600, Note_on_c, 0, 81, 76
6, 285719, Note_on_c, 0, 81, 0
6, 285960, Note_on_c, 0, 83, 76
6, 286779, Note_on_c, 0, 83, 0
6, 286800, Note_on_c, 0, 85, 76
6, 286899, Note_on_c, 0, 85, 0
6, 286920, Note_on_c, 0, 86, 76
6, 287019, Note_on_c, 0, 86, 0
6, 287040, Note_on_c, 0, 85, 76
6, 287294, Note_on_c, 0, 85, 0
6, 287310, Note_on_c, 0, 83, 76
6, 287384, Note_on_c, 0, 83, 0
6, 287400, Note_on_c, 0, 81, 76
6, 287654, Note_on_c, 0, 81, 0
6, 287670, Note_on_c, 0, 83, 76
6, 287744, Note_on_c, 0, 83, 0
6, 287760, Note_on_c, 0, 80, 76
6, 288014, Note_on_c, 0, 80, 0
6, 288030, Note_on_c, 0, 81, 76
6, 288104, Note_on_c, 0, 81, 0
6, 288120, Note_on_c, 0, 81, 76
6, 288239, Note_on_c, 0, 81, 0
6, 289200, Note_on_c, 0, 81, 76
6, 289319, Note_on_c, 0, 81, 0
6, 290520, Note_on_c, 0, 76, 76
6, 290619, Note_on_c, 0, 76, 0
6, 290640, Note_on_c, 0, 76, 76
6, 290759, Note_on_c, 0, 76, 0
6, 290760, Note_on_c, 0, 79, 76
6, 290859, Note_on_c, 0, 79, 0
6, 290880, Note_on_c, 0, 78, 76
6, 290979, Note_on_c, 0, 78, 0
6, 291000, Note_on_c, 0, 78, 76
6, 291119, Note_on_c, 0, 78, 0
6, 291120, Note_on_c, 0, 81, 76
6, 291219, Note_on_c, 0, 81, 0
6, 291240, Note_on_c, 0, 79, 76
6, 291339, Note_on_c, 0, 79, 0
6, 291360, Note_on_c, 0, 79, 76
6, 291479, Note_on_c, 0, 79, 0
6, 291720, Note_on_c, 0, 81, 76
6, 291839, Note_on_c, 0, 81, 0
6, 292080, Note_on_c, 0, 79, 76
6, 292199, Note_on_c, 0, 79, 0
6, 292440, Note_on_c, 0, 78, 76
6, 292694, Note_on_c, 0, 78, 0
6, 292710, Note_on_c, 0, 74, 76
6, 292784, Note_on_c, 0, 74, 0
6, 292800, Note_on_c, 0, 74, 76
6, 292919, Note_on_c, 0, 74, 0
6, 292920, Note_on_c, 0, 78, 76
6, 293019, Note_on_c, 0, 78, 0
6, 293040, Note_on_c, 0, 76, 76
6, 293139, Note_on_c, 0, 76, 0
6, 293160, Note_on_c, 0, 76, 76
6, 293279, Note_on_c, 0, 76, 0
6, 293280, Note_on_c, 0, 79, 76
6, 293379, Note_on_c, 0, 79, 0
6, 293400, Note_on_c, 0, 78, 76
6, 293499, Note_on_c, 0, 78, 0
6, 293520, Note_on_c, 0, 78, 76
6, 293639, Note_on_c, 0, 78, 0
6, 296040, Note_on_c, 0, 81, 76
6, 296159, Note_on_c, 0, 81, 0
6, 296400, Note_on_c, 0, 81, 76
6, 296519, Note_on_c, 0, 81, 0
6, 296760, Note_on_c, 0, 83, 76
6, 296879, Note_on_c, 0, 83, 0
6, 301350, Note_on_c, 0, 66, 76
6, 301424, Note_on_c, 0, 66, 0
6, 301440, Note_on_c, 0, 66, 76
6, 301694, Note_on_c, 0, 66, 0
6, 301710, Note_on_c, 0, 66, 76
6, 301784, Note_on_c, 0, 66, 0
6, 301800, Note_on_c, 0, 66, 76
6, 302054, Note_on_c, 0, 66, 0
6, 302070, Note_on_c, 0, 66, 76
6, 302144, Note_on_c, 0, 66, 0
6, 302160, Note_on_c, 0, 66, 76
6, 302279, Note_on_c, 0, 66, 0
6, 311040, Note_on_c, 0, 78, 76
6, 311139, Note_on_c, 0, 78, 0
6, 311160, Note_on_c, 0, 78, 76
6, 311414, Note_on_c, 0, 78, 0
6, 311430, Note_on_c, 0, 78, 76
6, 311504, Note_on_c, 0, 78, 0
6, 311520, Note_on_c, 0, 78, 76
6, 311639, Note_on_c, 0, 78, 0
6, 312150, Note_on_c, 0, 66, 76
6, 312224, Note_on_c, 0, 66, 0
6, 312240, Note_on_c, 0, 66, 76
6, 312494, Note_on_c, 0, 66, 0
6, 312510, Note_on_c, 0, 66, 76
6, 312584, Note_on_c, 0, 66, 0
6, 312600, Note_on_c, 0, 66, 76
6, 312719, Note_on_c, 0, 66, 0
6, 320790, Note_on_c, 0, 62, 76
6, 320864, Note_on_c, 0, 62, 0
6, 320880, Note_on_c, 0, 62, 76
6, 321134, Note_on_c, 0, 62, 0
6, 321150, Note_on_c, 0, 62, 76
6, 321224, Note_on_c, 0, 62, 0
6, 321240, Note_on_c, 0, 62, 76
6, 321494, Note_on_c, 0, 62, 0
6, 321510, Note_on_c, 0, 62, 76
6, 321584, Note_on_c, 0, 62, 0
6, 321600, Note_on_c, 0, 62, 76
6, 321719, Note_on_c, 0, 62, 0
6, 322950, Note_on_c, 0, 62, 76
6, 323024, Note_on_c, 0, 62, 0
6, 323040, Note_on_c, 0, 62, 76
6, 323294, Note_on_c, 0, 62, 0
6, 323310, Note_on_c, 0, 62, 76
6, 323384, Note_on_c, 0, 62, 0
6, 323400, Note_on_c, 0, 62, 76
6, 323654, Note_on_c, 0, 62, 0
6, 323670, Note_on_c, 0, 62, 76
6, 323744, Note_on_c, 0, 62, 0
6, 323760, Note_on_c, 0, 62, 76
6, 323879, Note_on_c, 0, 62, 0
6, 364080, Note_on_c, 0, 81, 76
6, 364199, Note_on_c, 0, 81, 0
6, 364440, Note_on_c, 0, 79, 76
6, 364559, Note_on_c, 0, 79, 0
6, 364800, Note_on_c, 0, 78, 76
6, 364919, Note_on_c, 0, 78, 0
6, 365160, Note_on_c, 0, 78, 76
6, 365279, Note_on_c, 0, 78, 0
6, 365520, Note_on_c, 0, 81, 76
6, 365639, Note_on_c, 0, 81, 0
6, 365880, Note_on_c, 0, 83, 76
6, 365999, Note_on_c, 0, 83, 0
6, 366240, Note_on_c, 0, 79, 76
6, 366359, Note_on_c, 0, 79, 0
6, 366600, Note_on_c, 0, 78, 76
6, 366719, Note_on_c, 0, 78, 0
6, 366960, Note_on_c, 0, 76, 76
6, 367079, Note_on_c, 0, 76, 0
6, 367320, Note_on_c, 0, 81, 76
6, 367439, Note_on_c, 0, 81, 0
6, 367680, Note_on_c, 0, 79, 76
6, 367799, Note_on_c, 0, 79, 0
6, 368040, Note_on_c, 0, 78, 76
6, 368159, Note_on_c, 0, 78, 0
6, 368400, Note_on_c, 0, 83, 76
6, 368519, Note_on_c, 0, 83, 0
6, 368760, Note_on_c, 0, 81, 76
6, 368879, Note_on_c, 0, 81, 0
6, 369120, Note_on_c, 0, 79, 76
6, 369374, Note_on_c, 0, 79, 0
6, 369390, Note_on_c, 0, 76, 76
6, 369464, Note_on_c, 0, 76, 0
6, 369480, Note_on_c, 0, 79, 76
6, 370319, Note_on_c, 0, 79, 0
6, 370320, Note_on_c, 0, 76, 76
6, 370419, Note_on_c, 0, 76, 0
6, 370440, Note_on_c, 0, 78, 76
6, 370539, Note_on_c, 0, 78, 0
6, 370560, Note_on_c, 0, 79, 76
6, 370679, Note_on_c, 0, 79, 0
6, 370680, Note_on_c, 0, 81, 76
6, 370779, Note_on_c, 0, 81, 0
6, 370800, Note_on_c, 0, 78, 76
6, 370899, Note_on_c, 0, 78, 0
6, 370920, Note_on_c, 0, 79, 76
6, 371039, Note_on_c, 0, 79, 0
6, 371040, Note_on_c, 0, 78, 76
6, 371139, Note_on_c, 0, 78, 0
6, 371160, Note_on_c, 0, 76, 76
6, 371259, Note_on_c, 0, 76, 0
6, 371280, Note_on_c, 0, 78, 76
6, 371399, Note_on_c, 0, 78, 0
6, 371400, Note_on_c, 0, 81, 76
6, 371499, Note_on_c, 0, 81, 0
6, 371520, Note_on_c, 0, 79, 76
6, 371619, Note_on_c, 0, 79, 0
6, 371640, Note_on_c, 0, 81, 76
6, 371894, Note_on_c, 0, 81, 0
6, 371910, Note_on_c, 0, 83, 76
6, 371984, Note_on_c, 0, 83, 0
6, 372000, Note_on_c, 0, 76, 76
6, 372254, Note_on_c, 0, 76, 0
6, 372270, Note_on_c, 0, 81, 76
6, 372344, Note_on_c, 0, 81, 0
6, 372360, Note_on_c, 0, 78, 76
6, 372479, Note_on_c, 0, 78, 0
6, 373440, Note_on_c, 0, 81, 76
6, 373559, Note_on_c, 0, 81, 0
6, 374520, Note_on_c, 0, 86, 76
6, 374759, Note_on_c, 0, 86, 0
6, 379260, Note_on_c, 0, 85, 76
6, 379313, Note_on_c, 0, 85, 0
6, 379320, Note_on_c, 0, 86, 76
6, 379559, Note_on_c, 0, 86, 0
6, 380220, Note_on_c, 0, 81, 76
6, 380273, Note_on_c, 0, 81, 0
6, 380280, Note_on_c, 0, 83, 76
6, 380519, Note_on_c, 0, 83, 0
6, 381180, Note_on_c, 0, 79, 76
6, 381233, Note_on_c, 0, 79, 0
6, 381240, Note_on_c, 0, 81, 76
6, 381479, Note_on_c, 0, 81, 0
6, 382140, Note_on_c, 0, 78, 76
6, 382193, Note_on_c, 0, 78, 0
6, 382200, Note_on_c, 0, 79, 76
6, 382549, Note_on_c, 0, 79, 0
6, 382560, Note_on_c, 0, 79, 76
6, 382669, Note_on_c, 0, 79, 0
6, 382680, Note_on_c, 0, 79, 76
6, 382853, Note_on_c, 0, 79, 0
6, 382860, Note_on_c, 0, 76, 76
6, 382913, Note_on_c, 0, 76, 0
6, 382920, Note_on_c, 0, 81, 76
6, 383093, Note_on_c, 0, 81, 0
6, 383100, Note_on_c, 0, 76, 76
6, 383153, Note_on_c, 0, 76, 0
6, 383160, Note_on_c, 0, 78, 76
6, 383389, Note_on_c, 0, 78, 0
6, 383400, Note_on_c, 0, 74, 76
6, 383629, Note_on_c, 0, 74, 0
6, 392940, Note_on_c, 0, 81, 76
6, 392993, Note_on_c, 0, 81, 0
6, 393000, Note_on_c, 0, 81, 76
6, 393173, Note_on_c, 0, 81, 0
6, 393180, Note_on_c, 0, 83, 76
6, 393233, Note_on_c, 0, 83, 0
6, 393240, Note_on_c, 0, 81, 76
6, 393479, Note_on_c, 0, 81, 0
6, 393480, Note_on_c, 0, 79, 76
6, 393494, Note_on_c, 0, 79, 0
6, 393495, Note_on_c, 0, 81, 76
6, 393509, Note_on_c, 0, 81, 0
6, 393510, Note_on_c, 0, 79, 76
6, 393524, Note_on_c, 0, 79, 0
6, 393525, Note_on_c, 0, 81, 76
6, 393539, Note_on_c, 0, 81, 0
6, 393540, Note_on_c, 0, 79, 76
6, 393554, Note_on_c, 0, 79, 0
6, 393555, Note_on_c, 0, 81, 76
6, 393569, Note_on_c, 0, 81, 0
6, 393570, Note_on_c, 0, 79, 76
6, 393584, Note_on_c, 0, 79, 0
6, 393585, Note_on_c, 0, 81, 76
6, 393599, Note_on_c, 0, 81, 0
6, 393600, Note_on_c, 0, 79, 76
6, 393614, Note_on_c, 0, 79, 0
6, 393615, Note_on_c, 0, 81, 76
6, 393629, Note_on_c, 0, 81, 0
6, 393630, Note_on_c, 0, 78, 76
6, 393644, Note_on_c, 0, 78, 0
6, 393645, Note_on_c, 0, 79, 76
6, 393659, Note_on_c, 0, 79, 0
6, 393660, Note_on_c, 0, 78, 76
6, 393713, Note_on_c, 0, 78, 0
6, 393720, Note_on_c, 0, 78, 76
6, 394679, Note_on_c, 0, 78, 0
6, 394679, End_track
7, 0, Start_track
7, 0, Title_t, "Trumpet II in D"
7, 0, MIDI_port, 0
7, 0, Program_c, 1, 56
7, 0, Control_c, 1, 10, 64
7, 0, Control_c, 1, 11, 127
7, 0, Control_c, 1, 7, 96
7, 180, Note_on_c, 1, 78, 76
7, 233, Note_on_c, 1, 78, 0
7, 240, Note_on_c, 1, 78, 76
7, 479, Note_on_c, 1, 78, 0
7, 1140, Note_on_c, 1, 81, 76
7, 1193, Note_on_c, 1, 81, 0
7, 1200, Note_on_c, 1, 81, 76
7, 1439, Note_on_c, 1, 81, 0
7, 2100, Note_on_c, 1, 79, 76
7, 2153, Note_on_c, 1, 79, 0
7, 2160, Note_on_c, 1, 81, 76
7, 2399, Note_on_c, 1, 81, 0
7, 3060, Note_on_c, 1, 74, 76
7, 3113, Note_on_c, 1, 74, 0
7, 3120, Note_on_c, 1, 76, 76
7, 3469, Note_on_c, 1, 76, 0
7, 3480, Note_on_c, 1, 76, 76
7, 3589, Note_on_c, 1, 76, 0
7, 3600, Note_on_c, 1, 76, 76
7, 3829, Note_on_c, 1, 76, 0
7, 3840, Note_on_c, 1, 76, 76
7, 4069, Note_on_c, 1, 76, 0
7, 4080, Note_on_c, 1, 74, 76
7, 4309, Note_on_c, 1, 74, 0
7, 4320, Note_on_c, 1, 69, 76
7, 4559, Note_on_c, 1, 69, 0
7, 7860, Note_on_c, 1, 81, 76
7, 7913, Note_on_c, 1, 81, 0
7, 7920, Note_on_c, 1, 81, 76
7, 8159, Note_on_c, 1, 81, 0
7, 8820, Note_on_c, 1, 79, 76
7, 8873, Note_on_c, 1, 79, 0
7, 8880, Note_on_c, 1, 78, 76
7, 9119, Note_on_c, 1, 78, 0
7, 9780, Note_on_c, 1, 81, 76
7, 9833, Note_on_c, 1, 81, 0
7, 9840, Note_on_c, 1, 81, 76
7, 10079, Note_on_c, 1, 81, 0
7, 10740, Note_on_c, 1, 81, 76
7, 10793, Note_on_c, 1, 81, 0
7, 10800, Note_on_c, 1, 78, 76
7, 11149, Note_on_c, 1, 78, 0
7, 11160, Note_on_c, 1, 78, 76
7, 11269, Note_on_c, 1, 78, 0
7, 11280, Note_on_c, 1, 76, 76
7, 11509, Note_on_c, 1, 76, 0
7, 11520, Note_on_c, 1, 76, 76
7, 11749, Note_on_c, 1, 76, 0
7, 11760, Note_on_c, 1, 76, 76
7, 11989, Note_on_c, 1, 76, 0
7, 12000, Note_on_c, 1, 81, 76
7, 12239, Note_on_c, 1, 81, 0
7, 21540, Note_on_c, 1, 76, 76
7, 21593, Note_on_c, 1, 76, 0
7, 21600, Note_on_c, 1, 76, 76
7, 21773, Note_on_c, 1, 76, 0
7, 21780, Note_on_c, 1, 78, 76
7, 21833, Note_on_c, 1, 78, 0
7, 21840, Note_on_c, 1, 76, 76
7, 22069, Note_on_c, 1, 76, 0
7, 22080, Note_on_c, 1, 76, 76
7, 22309, Note_on_c, 1, 76, 0
7, 22320, Note_on_c, 1, 76, 76
7, 23039, Note_on_c, 1, 76, 0
7, 23220, Note_on_c, 1, 78, 76
7, 23273, Note_on_c, 1, 78, 0
7, 23280, Note_on_c, 1, 78, 76
7, 23519, Note_on_c, 1, 78, 0
7, 24180, Note_on_c, 1, 81, 76
7, 24233, Note_on_c, 1, 81, 0
7, 24240, Note_on_c, 1, 81, 76
7, 24479, Note_on_c, 1, 81, 0
7, 25140, Note_on_c, 1, 79, 76
7, 25193, Note_on_c, 1, 79, 0
7, 25200, Note_on_c, 1, 81, 76
7, 25439, Note_on_c, 1, 81, 0
7, 26100, Note_on_c, 1, 74, 76
7, 26153, Note_on_c, 1, 74, 0
7, 26160, Note_on_c, 1, 76, 76
7, 26509, Note_on_c, 1, 76, 0
7, 26520, Note_on_c, 1, 76, 76
7, 26629, Note_on_c, 1, 76, 0
7, 26640, Note_on_c, 1, 76, 76
7, 26869, Note_on_c, 1, 76, 0
7, 26880, Note_on_c, 1, 76, 76
7, 27109, Note_on_c, 1, 76, 0
7, 27120, Note_on_c, 1, 74, 76
7, 27349, Note_on_c, 1, 74, 0
7, 27360, Note_on_c, 1, 69, 76
7, 27599, Note_on_c, 1, 69, 0
7, 30900, Note_on_c, 1, 81, 76
7, 30953, Note_on_c, 1, 81, 0
7, 30960, Note_on_c, 1, 81, 76
7, 31199, Note_on_c, 1, 81, 0
7, 31860, Note_on_c, 1, 79, 76
7, 31913, Note_on_c, 1, 79, 0
7, 31920, Note_on_c, 1, 78, 76
7, 32159, Note_on_c, 1, 78, 0
7, 32820, Note_on_c, 1, 81, 76
7, 32873, Note_on_c, 1, 81, 0
7, 32880, Note_on_c, 1, 81, 76
7, 33119, Note_on_c, 1, 81, 0
7, 33780, Note_on_c, 1, 81, 76
7, 33833, Note_on_c, 1, 81, 0
7, 33840, Note_on_c, 1, 78, 76
7, 34189, Note_on_c, 1, 78, 0
7, 34200, Note_on_c, 1, 78, 76
7, 34309, Note_on_c, 1, 78, 0
7, 34320, Note_on_c, 1, 76, 76
7, 34549, Note_on_c, 1, 76, 0
7, 34560, Note_on_c, 1, 76, 76
7, 34789, Note_on_c, 1, 76, 0
7, 34800, Note_on_c, 1, 76, 76
7, 35029, Note_on_c, 1, 76, 0
7, 35040, Note_on_c, 1, 81, 76
7, 35279, Note_on_c, 1, 81, 0
7, 44580, Note_on_c, 1, 76, 76
7, 44633, Note_on_c, 1, 76, 0
7, 44640, Note_on_c, 1, 76, 76
7, 44813, Note_on_c, 1, 76, 0
7, 44820, Note_on_c, 1, 78, 76
7, 44873, Note_on_c, 1, 78, 0
7, 44880, Note_on_c, 1, 76, 76
7, 45109, Note_on_c, 1, 76, 0
7, 45120, Note_on_c, 1, 76, 76
7, 45349, Note_on_c, 1, 76, 0
7, 45360, Note_on_c, 1, 76, 76
7, 45599, Note_on_c, 1, 76, 0
7, 60840, Note_on_c, 1, 76, 76
7, 60959, Note_on_c, 1, 76, 0
7, 61200, Note_on_c, 1, 76, 76
7, 61319, Note_on_c, 1, 76, 0
7, 61560, Note_on_c, 1, 74, 76
7, 61679, Note_on_c, 1, 74, 0
7, 61920, Note_on_c, 1, 74, 76
7, 62039, Note_on_c, 1, 74, 0
7, 62280, Note_on_c, 1, 78, 76
7, 62399, Note_on_c, 1, 78, 0
7, 62640, Note_on_c, 1, 79, 76
7, 62759, Note_on_c, 1, 79, 0
7, 63000, Note_on_c, 1, 76, 76
7, 63119, Note_on_c, 1, 76, 0
7, 63360, Note_on_c, 1, 74, 76
7, 63479, Note_on_c, 1, 74, 0
7, 63720, Note_on_c, 1, 69, 76
7, 63839, Note_on_c, 1, 69, 0
7, 64080, Note_on_c, 1, 78, 76
7, 64199, Note_on_c, 1, 78, 0
7, 64440, Note_on_c, 1, 76, 76
7, 64559, Note_on_c, 1, 76, 0
7, 64800, Note_on_c, 1, 74, 76
7, 64919, Note_on_c, 1, 74, 0
7, 65160, Note_on_c, 1, 76, 76
7, 65279, Note_on_c, 1, 76, 0
7, 65520, Note_on_c, 1, 78, 76
7, 65639, Note_on_c, 1, 78, 0
7, 65880, Note_on_c, 1, 83, 76
7, 66134, Note_on_c, 1, 83, 0
7, 66150, Note_on_c, 1, 79, 76
7, 66224, Note_on_c, 1, 79, 0
7, 66240, Note_on_c, 1, 76, 76
7, 67059, Note_on_c, 1, 76, 0
7, 67080, Note_on_c, 1, 69, 76
7, 67179, Note_on_c, 1, 69, 0
7, 67200, Note_on_c, 1, 74, 76
7, 67299, Note_on_c, 1, 74, 0
7, 67320, Note_on_c, 1, 76, 76
7, 67419, Note_on_c, 1, 76, 0
7, 67440, Note_on_c, 1, 69, 76
7, 67539, Note_on_c, 1, 69, 0
7, 67560, Note_on_c, 1, 74, 76
7, 67659, Note_on_c, 1, 74, 0
7, 67680, Note_on_c, 1, 76, 76
7, 67779, Note_on_c, 1, 76, 0
7, 67800, Note_on_c, 1, 74, 76
7, 67899, Note_on_c, 1, 74, 0
7, 67920, Note_on_c, 1, 73, 76
7, 68019, Note_on_c, 1, 73, 0
7, 68040, Note_on_c, 1, 74, 76
7, 68294, Note_on_c, 1, 74, 0
7, 68310, Note_on_c, 1, 69, 76
7, 68384, Note_on_c, 1, 69, 0
7, 68400, Note_on_c, 1, 66, 76
7, 68654, Note_on_c, 1, 66, 0
7, 68670, Note_on_c, 1, 62, 76
7, 68744, Note_on_c, 1, 62, 0
7, 68760, Note_on_c, 1, 69, 76
7, 69014, Note_on_c, 1, 69, 0
7, 69030, Note_on_c, 1, 76, 76
7, 69104, Note_on_c, 1, 76, 0
7, 69120, Note_on_c, 1, 74, 76
7, 69239, Note_on_c, 1, 74, 0
7, 70200, Note_on_c, 1, 78, 76
7, 70319, Note_on_c, 1, 78, 0
7, 71280, Note_on_c, 1, 81, 76
7, 71399, Note_on_c, 1, 81, 0
7, 91800, Note_on_c, 1, 76, 76
7, 91919, Note_on_c, 1, 76, 0
7, 92880, Note_on_c, 1, 81, 76
7, 92999, Note_on_c, 1, 81, 0
7, 93960, Note_on_c, 1, 85, 76
7, 94079, Note_on_c, 1, 85, 0
7, 106200, Note_on_c, 1, 76, 76
7, 106319, Note_on_c, 1, 76, 0
7, 106560, Note_on_c, 1, 76, 76
7, 106679, Note_on_c, 1, 76, 0
7, 106920, Note_on_c, 1, 74, 76
7, 107039, Note_on_c, 1, 74, 0
7, 107280, Note_on_c, 1, 74, 76
7, 107399, Note_on_c, 1, 74, 0
7, 107640, Note_on_c, 1, 76, 76
7, 107759, Note_on_c, 1, 76, 0
7, 108000, Note_on_c, 1, 76, 76
7, 108119, Note_on_c, 1, 76, 0
7, 108360, Note_on_c, 1, 76, 76
7, 108479, Note_on_c, 1, 76, 0
7, 108720, Note_on_c, 1, 78, 76
7, 108839, Note_on_c, 1, 78, 0
7, 109080, Note_on_c, 1, 78, 76
7, 109199, Note_on_c, 1, 78, 0
7, 109440, Note_on_c, 1, 78, 76
7, 109559, Note_on_c, 1, 78, 0
7, 109800, Note_on_c, 1, 76, 76
7, 109919, Note_on_c, 1, 76, 0
7, 110160, Note_on_c, 1, 74, 76
7, 110279, Note_on_c, 1, 74, 0
7, 110520, Note_on_c, 1, 76, 76
7, 110639, Note_on_c, 1, 76, 0
7, 110880, Note_on_c, 1, 78, 76
7, 110999, Note_on_c, 1, 78, 0
7, 111240, Note_on_c, 1, 76, 76
7, 112574, Note_on_c, 1, 76, 0
7, 112590, Note_on_c, 1, 76, 76
7, 112664, Note_on_c, 1, 76, 0
7, 112680, Note_on_c, 1, 76, 76
7, 112934, Note_on_c, 1, 76, 0
7, 112950, Note_on_c, 1, 78, 76
7, 113024, Note_on_c, 1, 78, 0
7, 113040, Note_on_c, 1, 76, 76
7, 113294, Note_on_c, 1, 76, 0
7, 113310, Note_on_c, 1, 76, 76
7, 113384, Note_on_c, 1, 76, 0
7, 113400, Note_on_c, 1, 76, 76
7, 113519, Note_on_c, 1, 76, 0
7, 114480, Note_on_c, 1, 76, 76
7, 114599, Note_on_c, 1, 76, 0
7, 115800, Note_on_c, 1, 69, 76
7, 115899, Note_on_c, 1, 69, 0
7, 115920, Note_on_c, 1, 69, 76
7, 116039, Note_on_c, 1, 69, 0
7, 116040, Note_on_c, 1, 76, 76
7, 116139, Note_on_c, 1, 76, 0
7, 116160, Note_on_c, 1, 74, 76
7, 116259, Note_on_c, 1, 74, 0
7, 116280, Note_on_c, 1, 74, 76
7, 116399, Note_on_c, 1, 74, 0
7, 116400, Note_on_c, 1, 78, 76
7, 116499, Note_on_c, 1, 78, 0
7, 116520, Note_on_c, 1, 76, 76
7, 116619, Note_on_c, 1, 76, 0
7, 116640, Note_on_c, 1, 76, 76
7, 116759, Note_on_c, 1, 76, 0
7, 117000, Note_on_c, 1, 76, 76
7, 117119, Note_on_c, 1, 76, 0
7, 117360, Note_on_c, 1, 76, 76
7, 117479, Note_on_c, 1, 76, 0
7, 117720, Note_on_c, 1, 74, 76
7, 117974, Note_on_c, 1, 74, 0
7, 117990, Note_on_c, 1, 66, 76
7, 118064, Note_on_c, 1, 66, 0
7, 118080, Note_on_c, 1, 66, 76
7, 118199, Note_on_c, 1, 66, 0
7, 118200, Note_on_c, 1, 74, 76
7, 118299, Note_on_c, 1, 74, 0
7, 118320, Note_on_c, 1, 69, 76
7, 118419, Note_on_c, 1, 69, 0
7, 118440, Note_on_c, 1, 69, 76
7, 118559, Note_on_c, 1, 69, 0
7, 118560, Note_on_c, 1, 76, 76
7, 118659, Note_on_c, 1, 76, 0
7, 118680, Note_on_c, 1, 74, 76
7, 118779, Note_on_c, 1, 74, 0
7, 118800, Note_on_c, 1, 74, 76
7, 118919, Note_on_c, 1, 74, 0
7, 121320, Note_on_c, 1, 78, 76
7, 121439, Note_on_c, 1, 78, 0
7, 121680, Note_on_c, 1, 78, 76
7, 121799, Note_on_c, 1, 78, 0
7, 122040, Note_on_c, 1, 79, 76
7, 122159, Note_on_c, 1, 79, 0
7, 126630, Note_on_c, 1, 66, 76
7, 126704, Note_on_c, 1, 66, 0
7, 126720, Note_on_c, 1, 66, 76
7, 126974, Note_on_c, 1, 66, 0
7, 126990, Note_on_c, 1, 66, 76
7, 127064, Note_on_c, 1, 66, 0
7, 127080, Note_on_c, 1, 66, 76
7, 127334, Note_on_c, 1, 66, 0
7, 127350, Note_on_c, 1, 66, 76
7, 127424, Note_on_c, 1, 66, 0
7, 127440, Note_on_c, 1, 66, 76
7, 127559, Note_on_c, 1, 66, 0
7, 137430, Note_on_c, 1, 66, 76
7, 137504, Note_on_c, 1, 66, 0
7, 137520, Note_on_c, 1, 66, 76
7, 137774, Note_on_c, 1, 66, 0
7, 137790, Note_on_c, 1, 66, 76
7, 137864, Note_on_c, 1, 66, 0
7, 137880, Note_on_c, 1, 66, 76
7, 137999, Note_on_c, 1, 66, 0
7, 146070, Note_on_c, 1, 62, 76
7, 146144, Note_on_c, 1, 62, 0
7, 146160, Note_on_c, 1, 62, 76
7, 146414, Note_on_c, 1, 62, 0
7, 146430, Note_on_c, 1, 62, 76
7, 146504, Note_on_c, 1, 62, 0
7, 146520, Note_on_c, 1, 62, 76
7, 146774, Note_on_c, 1, 62, 0
7, 146790, Note_on_c, 1, 62, 76
7, 146864, Note_on_c, 1, 62, 0
7, 146880, Note_on_c, 1, 62, 76
7, 146999, Note_on_c, 1, 62, 0
7, 148230, Note_on_c, 1, 62, 76
7, 148304, Note_on_c, 1, 62, 0
7, 148320, Note_on_c, 1, 62, 76
7, 148574, Note_on_c, 1, 62, 0
7, 148590, Note_on_c, 1, 62, 76
7, 148664, Note_on_c, 1, 62, 0
7, 148680, Note_on_c, 1, 62, 76
7, 148934, Note_on_c, 1, 62, 0
7, 148950, Note_on_c, 1, 62, 76
7, 149024, Note_on_c, 1, 62, 0
7, 149040, Note_on_c, 1, 62, 76
7, 149159, Note_on_c, 1, 62, 0
7, 189360, Note_on_c, 1, 76, 76
7, 189479, Note_on_c, 1, 76, 0
7, 189720, Note_on_c, 1, 76, 76
7, 189839, Note_on_c, 1, 76, 0
7, 190080, Note_on_c, 1, 74, 76
7, 190199, Note_on_c, 1, 74, 0
7, 190440, Note_on_c, 1, 74, 76
7, 190559, Note_on_c, 1, 74, 0
7, 190800, Note_on_c, 1, 78, 76
7, 190919, Note_on_c, 1, 78, 0
7, 191160, Note_on_c, 1, 79, 76
7, 191279, Note_on_c, 1, 79, 0
7, 191520, Note_on_c, 1, 76, 76
7, 191639, Note_on_c, 1, 76, 0
7, 191880, Note_on_c, 1, 74, 76
7, 191999, Note_on_c, 1, 74, 0
7, 192240, Note_on_c, 1, 69, 76
7, 192359, Note_on_c, 1, 69, 0
7, 192600, Note_on_c, 1, 78, 76
7, 192719, Note_on_c, 1, 78, 0
7, 192960, Note_on_c, 1, 76, 76
7, 193079, Note_on_c, 1, 76, 0
7, 193320, Note_on_c, 1, 74, 76
7, 193439, Note_on_c, 1, 74, 0
7, 193680, Note_on_c, 1, 76, 76
7, 193799, Note_on_c, 1, 76, 0
7, 194040, Note_on_c, 1, 78, 76
7, 194159, Note_on_c, 1, 78, 0
7, 194400, Note_on_c, 1, 83, 76
7, 194654, Note_on_c, 1, 83, 0
7, 194670, Note_on_c, 1, 79, 76
7, 194744, Note_on_c, 1, 79, 0
7, 194760, Note_on_c, 1, 76, 76
7, 195599, Note_on_c, 1, 76, 0
7, 195600, Note_on_c, 1, 69, 76
7, 195699, Note_on_c, 1, 69, 0
7, 195720, Note_on_c, 1, 74, 76
7, 195819, Note_on_c, 1, 74, 0
7, 195840, Note_on_c, 1, 76, 76
7, 195959, Note_on_c, 1, 76, 0
7, 195960, Note_on_c, 1, 69, 76
7, 196059, Note_on_c, 1, 69, 0
7, 196080, Note_on_c, 1, 74, 76
7, 196179, Note_on_c, 1, 74, 0
7, 196200, Note_on_c, 1, 76, 76
7, 196319, Note_on_c, 1, 76, 0
7, 196320, Note_on_c, 1, 74, 76
7, 196419, Note_on_c, 1, 74, 0
7, 196440, Note_on_c, 1, 73, 76
7, 196539, Note_on_c, 1, 73, 0
7, 196560, Note_on_c, 1, 74, 76
7, 196814, Note_on_c, 1, 74, 0
7, 196830, Note_on_c, 1, 69, 76
7, 196904, Note_on_c, 1, 69, 0
7, 196920, Note_on_c, 1, 66, 76
7, 197174, Note_on_c, 1, 66, 0
7, 197190, Note_on_c, 1, 62, 76
7, 197264, Note_on_c, 1, 62, 0
7, 197280, Note_on_c, 1, 69, 76
7, 197534, Note_on_c, 1, 69, 0
7, 197550, Note_on_c, 1, 76, 76
7, 197624, Note_on_c, 1, 76, 0
7, 197640, Note_on_c, 1, 74, 76
7, 197759, Note_on_c, 1, 74, 0
7, 198720, Note_on_c, 1, 78, 76
7, 198839, Note_on_c, 1, 78, 0
7, 199800, Note_on_c, 1, 81, 76
7, 200039, Note_on_c, 1, 81, 0
7, 204540, Note_on_c, 1, 81, 76
7, 204593, Note_on_c, 1, 81, 0
7, 204600, Note_on_c, 1, 81, 76
7, 204839, Note_on_c, 1, 81, 0
7, 205500, Note_on_c, 1, 78, 76
7, 205553, Note_on_c, 1, 78, 0
7, 205560, Note_on_c, 1, 74, 76
7, 205799, Note_on_c, 1, 74, 0
7, 206460, Note_on_c, 1, 76, 76
7, 206513, Note_on_c, 1, 76, 0
7, 206520, Note_on_c, 1, 76, 76
7, 206759, Note_on_c, 1, 76, 0
7, 207420, Note_on_c, 1, 74, 76
7, 207473, Note_on_c, 1, 74, 0
7, 207480, Note_on_c, 1, 76, 76
7, 207829, Note_on_c, 1, 76, 0
7, 207840, Note_on_c, 1, 76, 76
7, 207949, Note_on_c, 1, 76, 0
7, 207960, Note_on_c, 1, 76, 76
7, 208189, Note_on_c, 1, 76, 0
7, 208200, Note_on_c, 1, 76, 76
7, 208429, Note_on_c, 1, 76, 0
7, 208440, Note_on_c, 1, 74, 76
7, 208669, Note_on_c, 1, 74, 0
7, 208680, Note_on_c, 1, 69, 76
7, 208919, Note_on_c, 1, 69, 0
7, 218220, Note_on_c, 1, 76, 76
7, 218273, Note_on_c, 1, 76, 0
7, 218280, Note_on_c, 1, 78, 76
7, 218453, Note_on_c, 1, 78, 0
7, 218460, Note_on_c, 1, 79, 76
7, 218513, Note_on_c, 1, 79, 0
7, 218520, Note_on_c, 1, 76, 76
7, 218869, Note_on_c, 1, 76, 0
7, 218880, Note_on_c, 1, 74, 76
7, 218989, Note_on_c, 1, 74, 0
7, 219000, Note_on_c, 1, 74, 76
7, 219359, Note_on_c, 1, 74, 0
7, 235560, Note_on_c, 1, 76, 76
7, 235679, Note_on_c, 1, 76, 0
7, 235920, Note_on_c, 1, 76, 76
7, 236039, Note_on_c, 1, 76, 0
7, 236280, Note_on_c, 1, 74, 76
7, 236399, Note_on_c, 1, 74, 0
7, 236640, Note_on_c, 1, 74, 76
7, 236759, Note_on_c, 1, 74, 0
7, 237000, Note_on_c, 1, 78, 76
7, 237119, Note_on_c, 1, 78, 0
7, 237360, Note_on_c, 1, 79, 76
7, 237479, Note_on_c, 1, 79, 0
7, 237720, Note_on_c, 1, 76, 76
7, 237839, Note_on_c, 1, 76, 0
7, 238080, Note_on_c, 1, 74, 76
7, 238199, Note_on_c, 1, 74, 0
7, 238440, Note_on_c, 1, 69, 76
7, 238559, Note_on_c, 1, 69, 0
7, 238800, Note_on_c, 1, 78, 76
7, 238919, Note_on_c, 1, 78, 0
7, 239160, Note_on_c, 1, 76, 76
7, 239279, Note_on_c, 1, 76, 0
7, 239520, Note_on_c, 1, 74, 76
7, 239639, Note_on_c, 1, 74, 0
7, 239880, Note_on_c, 1, 76, 76
7, 239999, Note_on_c, 1, 76, 0
7, 240240, Note_on_c, 1, 78, 76
7, 240359, Note_on_c, 1, 78, 0
7, 240600, Note_on_c, 1, 83, 76
7, 240854, Note_on_c, 1, 83, 0
7, 240870, Note_on_c, 1, 79, 76
7, 240944, Note_on_c, 1, 79, 0
7, 240960, Note_on_c, 1, 76, 76
7, 241779, Note_on_c, 1, 76, 0
7, 241800, Note_on_c, 1, 69, 76
7, 241899, Note_on_c, 1, 69, 0
7, 241920, Note_on_c, 1, 74, 76
7, 242019, Note_on_c, 1, 74, 0
7, 242040, Note_on_c, 1, 76, 76
7, 242139, Note_on_c, 1, 76, 0
7, 242160, Note_on_c, 1, 69, 76
7, 242259, Note_on_c, 1, 69, 0
7, 242280, Note_on_c, 1, 74, 76
7, 242379, Note_on_c, 1, 74, 0
7, 242400, Note_on_c, 1, 76, 76
7, 242499, Note_on_c, 1, 76, 0
7, 242520, Note_on_c, 1, 74, 76
7, 242619, Note_on_c, 1, 74, 0
7, 242640, Note_on_c, 1, 73, 76
7, 242739, Note_on_c, 1, 73, 0
7, 242760, Note_on_c, 1, 74, 76
7, 243014, Note_on_c, 1, 74, 0
7, 243030, Note_on_c, 1, 69, 76
7, 243104, Note_on_c, 1, 69, 0
7, 243120, Note_on_c, 1, 66, 76
7, 243374, Note_on_c, 1, 66, 0
7, 243390, Note_on_c, 1, 62, 76
7, 243464, Note_on_c, 1, 62, 0
7, 243480, Note_on_c, 1, 69, 76
7, 243734, Note_on_c, 1, 69, 0
7, 243750, Note_on_c, 1, 76, 76
7, 243824, Note_on_c, 1, 76, 0
7, 243840, Note_on_c, 1, 74, 76
7, 243959, Note_on_c, 1, 74, 0
7, 244920, Note_on_c, 1, 78, 76
7, 245039, Note_on_c, 1, 78, 0
7, 246000, Note_on_c, 1, 81, 76
7, 246119, Note_on_c, 1, 81, 0
7, 266520, Note_on_c, 1, 76, 76
7, 266639, Note_on_c, 1, 76, 0
7, 267600, Note_on_c, 1, 81, 76
7, 267719, Note_on_c, 1, 81, 0
7, 268680, Note_on_c, 1, 85, 76
7, 268799, Note_on_c, 1, 85, 0
7, 280920, Note_on_c, 1, 76, 76
7, 281039, Note_on_c, 1, 76, 0
7, 281280, Note_on_c, 1, 76, 76
7, 281399, Note_on_c, 1, 76, 0
7, 281640, Note_on_c, 1, 74, 76
7, 281759, Note_on_c, 1, 74, 0
7, 282000, Note_on_c, 1, 74, 76
7, 282119, Note_on_c, 1, 74, 0
7, 282360, Note_on_c, 1, 76, 76
7, 282479, Note_on_c, 1, 76, 0
7, 282720, Note_on_c, 1, 76, 76
7, 282839, Note_on_c, 1, 76, 0
7, 283080, Note_on_c, 1, 76, 76
7, 283199, Note_on_c, 1, 76, 0
7, 283440, Note_on_c, 1, 78, 76
7, 283559, Note_on_c, 1, 78, 0
7, 283800, Note_on_c, 1, 78, 76
7, 283919, Note_on_c, 1, 78, 0
7, 284160, Note_on_c, 1, 78, 76
7, 284279, Note_on_c, 1, 78, 0
7, 284520, Note_on_c, 1, 76, 76
7, 284639, Note_on_c, 1, 76, 0
7, 284880, Note_on_c, 1, 74, 76
7, 284999, Note_on_c, 1, 74, 0
7, 285240, Note_on_c, 1, 76, 76
7, 285359, Note_on_c, 1, 76, 0
7, 285600, Note_on_c, 1, 78, 76
7, 285719, Note_on_c, 1, 78, 0
7, 285960, Note_on_c, 1, 76, 76
7, 287294, Note_on_c, 1, 76, 0
7, 287310, Note_on_c, 1, 76, 76
7, 287384, Note_on_c, 1, 76, 0
7, 287400, Note_on_c, 1, 76, 76
7, 287654, Note_on_c, 1, 76, 0
7, 287670, Note_on_c, 1, 78, 76
7, 287744, Note_on_c, 1, 78, 0
7, 287760, Note_on_c, 1, 76, 76
7, 288014, Note_on_c, 1, 76, 0
7, 288030, Note_on_c, 1, 76, 76
7, 288104, Note_on_c, 1, 76, 0
7, 288120, Note_on_c, 1, 76, 76
7, 288239, Note_on_c, 1, 76, 0
7, 289200, Note_on_c, 1, 76, 76
7, 289319, Note_on_c, 1, 76, 0
7, 290520, Note_on_c, 1, 69, 76
7, 290619, Note_on_c, 1, 69, 0
7, 290640, Note_on_c, 1, 69, 76
7, 290759, Note_on_c, 1, 69, 0
7, 290760, Note_on_c, 1, 76, 76
7, 290859, Note_on_c, 1, 76, 0
7, 290880, Note_on_c, 1, 74, 76
7, 290979, Note_on_c, 1, 74, 0
7, 291000, Note_on_c, 1, 74, 76
7, 291119, Note_on_c, 1, 74, 0
7, 291120, Note_on_c, 1, 78, 76
7, 291219, Note_on_c, 1, 78, 0
7, 291240, Note_on_c, 1, 76, 76
7, 291339, Note_on_c, 1, 76, 0
7, 291360, Note_on_c, 1, 76, 76
7, 291479, Note_on_c, 1, 76, 0
7, 291720, Note_on_c, 1, 76, 76
7, 291839, Note_on_c, 1, 76, 0
7, 292080, Note_on_c, 1, 76, 76
7, 292199, Note_on_c, 1, 76, 0
7, 292440, Note_on_c, 1, 74, 76
7, 292694, Note_on_c, 1, 74, 0
7, 292710, Note_on_c, 1, 66, 76
7, 292784, Note_on_c, 1, 66, 0
7, 292800, Note_on_c, 1, 66, 76
7, 292919, Note_on_c, 1, 66, 0
7, 292920, Note_on_c, 1, 74, 76
7, 293019, Note_on_c, 1, 74, 0
7, 293040, Note_on_c, 1, 69, 76
7, 293139, Note_on_c, 1, 69, 0
7, 293160, Note_on_c, 1, 69, 76
7, 293279, Note_on_c, 1, 69, 0
7, 293280, Note_on_c, 1, 76, 76
7, 293379, Note_on_c, 1, 76, 0
7, 293400, Note_on_c, 1, 74, 76
7, 293499, Note_on_c, 1, 74, 0
7, 293520, Note_on_c, 1, 74, 76
7, 293639, Note_on_c, 1, 74, 0
7, 296040, Note_on_c, 1, 78, 76
7, 296159, Note_on_c, 1, 78, 0
7, 296400, Note_on_c, 1, 78, 76
7, 296519, Note_on_c, 1, 78, 0
7, 296760, Note_on_c, 1, 79, 76
7, 296879, Note_on_c, 1, 79, 0
7, 301350, Note_on_c, 1, 66, 76
7, 301424, Note_on_c, 1, 66, 0
7, 301440, Note_on_c, 1, 66, 76
7, 301694, Note_on_c, 1, 66, 0
7, 301710, Note_on_c, 1, 66, 76
7, 301784, Note_on_c, 1, 66, 0
7, 301800, Note_on_c, 1, 66, 76
7, 302054, Note_on_c, 1, 66, 0
7, 302070, Note_on_c, 1, 66, 76
7, 302144, Note_on_c, 1, 66, 0
7, 302160, Note_on_c, 1, 66, 76
7, 302279, Note_on_c, 1, 66, 0
7, 312150, Note_on_c, 1, 66, 76
7, 312224, Note_on_c, 1, 66, 0
7, 312240, Note_on_c, 1, 66, 76
7, 312494, Note_on_c, 1, 66, 0
7, 312510, Note_on_c, 1, 66, 76
7, 312584, Note_on_c, 1, 66, 0
7, 312600, Note_on_c, 1, 66, 76
7, 312719, Note_on_c, 1, 66, 0
7, 320790, Note_on_c, 1, 62, 76
7, 320864, Note_on_c, 1, 62, 0
7, 320880, Note_on_c, 1, 62, 76
7, 321134, Note_on_c, 1, 62, 0
7, 321150, Note_on_c, 1, 62, 76
7, 321224, Note_on_c, 1, 62, 0
7, 321240, Note_on_c, 1, 62, 76
7, 321494, Note_on_c, 1, 62, 0
7, 321510, Note_on_c, 1, 62, 76
7, 321584, Note_on_c, 1, 62, 0
7, 321600, Note_on_c, 1, 62, 76
7, 321719, Note_on_c, 1, 62, 0
7, 322950, Note_on_c, 1, 62, 76
7, 323024, Note_on_c, 1, 62, 0
7, 323040, Note_on_c, 1, 62, 76
7, 323294, Note_on_c, 1, 62, 0
7, 323310, Note_on_c, 1, 62, 76
7, 323384, Note_on_c, 1, 62, 0
7, 323400, Note_on_c, 1, 62, 76
7, 323654, Note_on_c, 1, 62, 0
7, 323670, Note_on_c, 1, 62, 76
7, 323744, Note_on_c, 1, 62, 0
7, 323760, Note_on_c, 1, 62, 76
7, 323879, Note_on_c, 1, 62, 0
7, 364080, Note_on_c, 1, 76, 76
7, 364199, Note_on_c, 1, 76, 0
7, 364440, Note_on_c, 1, 76, 76
7, 364559, Note_on_c, 1, 76, 0
7, 364800, Note_on_c, 1, 74, 76
7, 364919, Note_on_c, 1, 74, 0
7, 365160, Note_on_c, 1, 74, 76
7, 365279, Note_on_c, 1, 74, 0
7, 365520, Note_on_c, 1, 78, 76
7, 365639, Note_on_c, 1, 78, 0
7, 365880, Note_on_c, 1, 79, 76
7, 365999, Note_on_c, 1, 79, 0
7, 366240, Note_on_c, 1, 76, 76
7, 366359, Note_on_c, 1, 76, 0
7, 366600, Note_on_c, 1, 74, 76
7, 366719, Note_on_c, 1, 74, 0
7, 366960, Note_on_c, 1, 69, 76
7, 367079, Note_on_c, 1, 69, 0
7, 367320, Note_on_c, 1, 78, 76
7, 367439, Note_on_c, 1, 78, 0
7, 367680, Note_on_c, 1, 76, 76
7, 367799, Note_on_c, 1, 76, 0
7, 368040, Note_on_c, 1, 74, 76
7, 368159, Note_on_c, 1, 74, 0
7, 368400, Note_on_c, 1, 76, 76
7, 368519, Note_on_c, 1, 76, 0
7, 368760, Note_on_c, 1, 78, 76
7, 368879, Note_on_c, 1, 78, 0
7, 369120, Note_on_c, 1, 83, 76
7, 369374, Note_on_c, 1, 83, 0
7, 369390, Note_on_c, 1, 79, 76
7, 369464, Note_on_c, 1, 79, 0
7, 369480, Note_on_c, 1, 76, 76
7, 370319, Note_on_c, 1, 76, 0
7, 370320, Note_on_c, 1, 69, 76
7, 370419, Note_on_c, 1, 69, 0
7, 370440, Note_on_c, 1, 74, 76
7, 370539, Note_on_c, 1, 74, 0
7, 370560, Note_on_c, 1, 76, 76
7, 370679, Note_on_c, 1, 76, 0
7, 370680, Note_on_c, 1, 69, 76
7, 370779, Note_on_c, 1, 69, 0
7, 370800, Note_on_c, 1, 74, 76
7, 370899, Note_on_c, 1, 74, 0
7, 370920, Note_on_c, 1, 76, 76
7, 371039, Note_on_c, 1, 76, 0
7, 371040, Note_on_c, 1, 74, 76
7, 371139, Note_on_c, 1, 74, 0
7, 371160, Note_on_c, 1, 73, 76
7, 371259, Note_on_c, 1, 73, 0
7, 371280, Note_on_c, 1, 74, 76
7, 371534, Note_on_c, 1, 74, 0
7, 371550, Note_on_c, 1, 69, 76
7, 371624, Note_on_c, 1, 69, 0
7, 371640, Note_on_c, 1, 66, 76
7, 371894, Note_on_c, 1, 66, 0
7, 371910, Note_on_c, 1, 62, 76
7, 371984, Note_on_c, 1, 62, 0
7, 372000, Note_on_c, 1, 69, 76
7, 372254, Note_on_c, 1, 69, 0
7, 372270, Note_on_c, 1, 76, 76
7, 372344, Note_on_c, 1, 76, 0
7, 372360, Note_on_c, 1, 74, 76
7, 372479, Note_on_c, 1, 74, 0
7, 373440, Note_on_c, 1, 78, 76
7, 373559, Note_on_c, 1, 78, 0
7, 374520, Note_on_c, 1, 81, 76
7, 374759, Note_on_c, 1, 81, 0
7, 379260, Note_on_c, 1, 81, 76
7, 379313, Note_on_c, 1, 81, 0
7, 379320, Note_on_c, 1, 81, 76
7, 379559, Note_on_c, 1, 81, 0
7, 380220, Note_on_c, 1, 78, 76
7, 380273, Note_on_c, 1, 78, 0
7, 380280, Note_on_c, 1, 74, 76
7, 380519, Note_on_c, 1, 74, 0
7, 381180, Note_on_c, 1, 76, 76
7, 381233, Note_on_c, 1, 76, 0
7, 381240, Note_on_c, 1, 76, 76
7, 381479, Note_on_c, 1, 76, 0
7, 382140, Note_on_c, 1, 74, 76
7, 382193, Note_on_c, 1, 74, 0
7, 382200, Note_on_c, 1, 76, 76
7, 382549, Note_on_c, 1, 76, 0
7, 382560, Note_on_c, 1, 76, 76
7, 382669, Note_on_c, 1, 76, 0
7, 382680, Note_on_c, 1, 76, 76
7, 382909, Note_on_c, 1, 76, 0
7, 382920, Note_on_c, 1, 76, 76
7, 383149, Note_on_c, 1, 76, 0
7, 383160, Note_on_c, 1, 74, 76
7, 383389, Note_on_c, 1, 74, 0
7, 383400, Note_on_c, 1, 69, 76
7, 383639, Note_on_c, 1, 69, 0
7, 392940, Note_on_c, 1, 76, 76
7, 392993, Note_on_c, 1, 76, 0
7, 393000, Note_on_c, 1, 78, 76
7, 393173, Note_on_c, 1, 78, 0
7, 393180, Note_on_c, 1, 79, 76
7, 393233, Note_on_c, 1, 79, 0
7, 393240, Note_on_c, 1, 76, 76
7, 393589, Note_on_c, 1, 76, 0
7, 393600, Note_on_c, 1, 74, 76
7, 393709, Note_on_c, 1, 74, 0
7, 393720, Note_on_c, 1, 74, 76
7, 394679, Note_on_c, 1, 74, 0
7, 394679, End_track
8, 0, Start_track
8, 0, Title_t, "Trumpet III in D"
8, 0, MIDI_port, 0
8, 0, Program_c, 2, 56
8, 0, Control_c, 2, 10, 74
8, 0, Control_c, 2, 11, 127
8, 0, Control_c, 2, 7, 96
8, 180, Note_on_c, 2, 74, 76
8, 233, Note_on_c, 2, 74, 0
8, 240, Note_on_c, 2, 74, 76
8, 479, Note_on_c, 2, 74, 0
8, 1140, Note_on_c, 2, 78, 76
8, 1193, Note_on_c, 2, 78, 0
8, 1200, Note_on_c, 2, 78, 76
8, 1439, Note_on_c, 2, 78, 0
8, 2100, Note_on_c, 2, 62, 76
8, 2153, Note_on_c, 2, 62, 0
8, 2160, Note_on_c, 2, 62, 76
8, 2399, Note_on_c, 2, 62, 0
8, 3060, Note_on_c, 2, 69, 76
8, 3113, Note_on_c, 2, 69, 0
8, 3120, Note_on_c, 2, 76, 76
8, 3469, Note_on_c, 2, 76, 0
8, 3480, Note_on_c, 2, 76, 76
8, 3589, Note_on_c, 2, 76, 0
8, 3600, Note_on_c, 2, 69, 76
8, 3829, Note_on_c, 2, 69, 0
8, 3840, Note_on_c, 2, 69, 76
8, 4069, Note_on_c, 2, 69, 0
8, 4080, Note_on_c, 2, 69, 76
8, 4309, Note_on_c, 2, 69, 0
8, 4320, Note_on_c, 2, 66, 76
8, 4559, Note_on_c, 2, 66, 0
8, 7860, Note_on_c, 2, 76, 76
8, 7913, Note_on_c, 2, 76, 0
8, 7920, Note_on_c, 2, 76, 76
8, 8159, Note_on_c, 2, 76, 0
8, 8820, Note_on_c, 2, 76, 76
8, 8873, Note_on_c, 2, 76, 0
8, 8880, Note_on_c, 2, 69, 76
8, 9119, Note_on_c, 2, 69, 0
8, 9780, Note_on_c, 2, 69, 76
8, 9833, Note_on_c, 2, 69, 0
8, 9840, Note_on_c, 2, 69, 76
8, 10079, Note_on_c, 2, 69, 0
8, 10740, Note_on_c, 2, 78, 76
8, 10793, Note_on_c, 2, 78, 0
8, 10800, Note_on_c, 2, 74, 76
8, 11149, Note_on_c, 2, 74, 0
8, 11160, Note_on_c, 2, 74, 76
8, 11269, Note_on_c, 2, 74, 0
8, 11280, Note_on_c, 2, 74, 76
8, 11509, Note_on_c, 2, 74, 0
8, 11520, Note_on_c, 2, 74, 76
8, 11749, Note_on_c, 2, 74, 0
8, 11760, Note_on_c, 2, 69, 76
8, 11989, Note_on_c, 2, 69, 0
8, 12000, Note_on_c, 2, 76, 76
8, 12239, Note_on_c, 2, 76, 0
8, 21540, Note_on_c, 2, 74, 76
8, 21593, Note_on_c, 2, 74, 0
8, 21600, Note_on_c, 2, 69, 76
8, 21773, Note_on_c, 2, 69, 0
8, 21780, Note_on_c, 2, 74, 76
8, 21833, Note_on_c, 2, 74, 0
8, 21840, Note_on_c, 2, 74, 76
8, 22189, Note_on_c, 2, 74, 0
8, 22200, Note_on_c, 2, 74, 76
8, 22309, Note_on_c, 2, 74, 0
8, 22320, Note_on_c, 2, 69, 76
8, 23039, Note_on_c, 2, 69, 0
8, 23220, Note_on_c, 2, 74, 76
8, 23273, Note_on_c, 2, 74, 0
8, 23280, Note_on_c, 2, 74, 76
8, 23519, Note_on_c, 2, 74, 0
8, 24180, Note_on_c, 2, 78, 76
8, 24233, Note_on_c, 2, 78, 0
8, 24240, Note_on_c, 2, 78, 76
8, 24479, Note_on_c, 2, 78, 0
8, 25140, Note_on_c, 2, 62, 76
8, 25193, Note_on_c, 2, 62, 0
8, 25200, Note_on_c, 2, 62, 76
8, 25439, Note_on_c, 2, 62, 0
8, 26100, Note_on_c, 2, 69, 76
8, 26153, Note_on_c, 2, 69, 0
8, 26160, Note_on_c, 2, 76, 76
8, 26509, Note_on_c, 2, 76, 0
8, 26520, Note_on_c, 2, 76, 76
8, 26629, Note_on_c, 2, 76, 0
8, 26640, Note_on_c, 2, 69, 76
8, 26869, Note_on_c, 2, 69, 0
8, 26880, Note_on_c, 2, 69, 76
8, 27109, Note_on_c, 2, 69, 0
8, 27120, Note_on_c, 2, 69, 76
8, 27349, Note_on_c, 2, 69, 0
8, 27360, Note_on_c, 2, 66, 76
8, 27599, Note_on_c, 2, 66, 0
8, 30900, Note_on_c, 2, 76, 76
8, 30953, Note_on_c, 2, 76, 0
8, 30960, Note_on_c, 2, 76, 76
8, 31199, Note_on_c, 2, 76, 0
8, 31860, Note_on_c, 2, 76, 76
8, 31913, Note_on_c, 2, 76, 0
8, 31920, Note_on_c, 2, 69, 76
8, 32159, Note_on_c, 2, 69, 0
8, 32820, Note_on_c, 2, 69, 76
8, 32873, Note_on_c, 2, 69, 0
8, 32880, Note_on_c, 2, 69, 76
8, 33119, Note_on_c, 2, 69, 0
8, 33780, Note_on_c, 2, 78, 76
8, 33833, Note_on_c, 2, 78, 0
8, 33840, Note_on_c, 2, 74, 76
8, 34189, Note_on_c, 2, 74, 0
8, 34200, Note_on_c, 2, 74, 76
8, 34309, Note_on_c, 2, 74, 0
8, 34320, Note_on_c, 2, 74, 76
8, 34549, Note_on_c, 2, 74, 0
8, 34560, Note_on_c, 2, 74, 76
8, 34789, Note_on_c, 2, 74, 0
8, 34800, Note_on_c, 2, 69, 76
8, 35029, Note_on_c, 2, 69, 0
8, 35040, Note_on_c, 2, 76, 76
8, 35279, Note_on_c, 2, 76, 0
8, 44580, Note_on_c, 2, 74, 76
8, 44633, Note_on_c, 2, 74, 0
8, 44640, Note_on_c, 2, 69, 76
8, 44813, Note_on_c, 2, 69, 0
8, 44820, Note_on_c, 2, 74, 76
8, 44873, Note_on_c, 2, 74, 0
8, 44880, Note_on_c, 2, 74, 76
8, 45229, Note_on_c, 2, 74, 0
8, 45240, Note_on_c, 2, 74, 76
8, 45349, Note_on_c, 2, 74, 0
8, 45360, Note_on_c, 2, 69, 76
8, 45599, Note_on_c, 2, 69, 0
8, 60840, Note_on_c, 2, 69, 76
8, 60959, Note_on_c, 2, 69, 0
8, 61200, Note_on_c, 2, 69, 76
8, 61319, Note_on_c, 2, 69, 0
8, 61560, Note_on_c, 2, 69, 76
8, 61679, Note_on_c, 2, 69, 0
8, 67230, Note_on_c, 2, 69, 76
8, 67304, Note_on_c, 2, 69, 0
8, 67320, Note_on_c, 2, 69, 76
8, 67574, Note_on_c, 2, 69, 0
8, 67590, Note_on_c, 2, 69, 76
8, 67664, Note_on_c, 2, 69, 0
8, 67680, Note_on_c, 2, 69, 76
8, 67934, Note_on_c, 2, 69, 0
8, 67950, Note_on_c, 2, 69, 76
8, 68024, Note_on_c, 2, 69, 0
8, 68040, Note_on_c, 2, 69, 76
8, 68294, Note_on_c, 2, 69, 0
8, 68310, Note_on_c, 2, 76, 76
8, 68384, Note_on_c, 2, 76, 0
8, 68400, Note_on_c, 2, 74, 76
8, 68654, Note_on_c, 2, 74, 0
8, 68670, Note_on_c, 2, 74, 76
8, 68744, Note_on_c, 2, 74, 0
8, 68760, Note_on_c, 2, 74, 76
8, 69014, Note_on_c, 2, 74, 0
8, 69030, Note_on_c, 2, 69, 76
8, 69104, Note_on_c, 2, 69, 0
8, 69120, Note_on_c, 2, 69, 76
8, 69239, Note_on_c, 2, 69, 0
8, 70200, Note_on_c, 2, 74, 76
8, 70319, Note_on_c, 2, 74, 0
8, 71280, Note_on_c, 2, 78, 76
8, 71399, Note_on_c, 2, 78, 0
8, 91800, Note_on_c, 2, 69, 76
8, 91919, Note_on_c, 2, 69, 0
8, 92880, Note_on_c, 2, 76, 76
8, 92999, Note_on_c, 2, 76, 0
8, 93960, Note_on_c, 2, 81, 76
8, 94079, Note_on_c, 2, 81, 0
8, 106200, Note_on_c, 2, 69, 76
8, 106319, Note_on_c, 2, 69, 0
8, 106560, Note_on_c, 2, 69, 76
8, 106679, Note_on_c, 2, 69, 0
8, 106920, Note_on_c, 2, 69, 76
8, 107039, Note_on_c, 2, 69, 0
8, 113400, Note_on_c, 2, 69, 76
8, 113519, Note_on_c, 2, 69, 0
8, 114480, Note_on_c, 2, 69, 76
8, 114599, Note_on_c, 2, 69, 0
8, 115830, Note_on_c, 2, 69, 76
8, 115904, Note_on_c, 2, 69, 0
8, 115920, Note_on_c, 2, 69, 76
8, 116174, Note_on_c, 2, 69, 0
8, 116190, Note_on_c, 2, 69, 76
8, 116264, Note_on_c, 2, 69, 0
8, 116280, Note_on_c, 2, 69, 76
8, 116534, Note_on_c, 2, 69, 0
8, 116550, Note_on_c, 2, 69, 76
8, 116624, Note_on_c, 2, 69, 0
8, 116640, Note_on_c, 2, 69, 76
8, 116759, Note_on_c, 2, 69, 0
8, 117000, Note_on_c, 2, 69, 76
8, 117119, Note_on_c, 2, 69, 0
8, 117360, Note_on_c, 2, 69, 76
8, 117479, Note_on_c, 2, 69, 0
8, 117720, Note_on_c, 2, 69, 76
8, 117974, Note_on_c, 2, 69, 0
8, 117990, Note_on_c, 2, 69, 76
8, 118064, Note_on_c, 2, 69, 0
8, 118080, Note_on_c, 2, 69, 76
8, 118334, Note_on_c, 2, 69, 0
8, 118350, Note_on_c, 2, 69, 76
8, 118424, Note_on_c, 2, 69, 0
8, 118440, Note_on_c, 2, 69, 76
8, 118694, Note_on_c, 2, 69, 0
8, 118710, Note_on_c, 2, 69, 76
8, 118784, Note_on_c, 2, 69, 0
8, 118800, Note_on_c, 2, 69, 76
8, 118919, Note_on_c, 2, 69, 0
8, 121320, Note_on_c, 2, 74, 76
8, 121439, Note_on_c, 2, 74, 0
8, 121680, Note_on_c, 2, 74, 76
8, 121799, Note_on_c, 2, 74, 0
8, 122040, Note_on_c, 2, 74, 76
8, 122159, Note_on_c, 2, 74, 0
8, 126630, Note_on_c, 2, 66, 76
8, 126704, Note_on_c, 2, 66, 0
8, 126720, Note_on_c, 2, 66, 76
8, 126974, Note_on_c, 2, 66, 0
8, 126990, Note_on_c, 2, 66, 76
8, 127064, Note_on_c, 2, 66, 0
8, 127080, Note_on_c, 2, 66, 76
8, 127334, Note_on_c, 2, 66, 0
8, 127350, Note_on_c, 2, 66, 76
8, 127424, Note_on_c, 2, 66, 0
8, 127440, Note_on_c, 2, 66, 76
8, 127559, Note_on_c, 2, 66, 0
8, 137430, Note_on_c, 2, 66, 76
8, 137504, Note_on_c, 2, 66, 0
8, 137520, Note_on_c, 2, 66, 76
8, 137774, Note_on_c, 2, 66, 0
8, 137790, Note_on_c, 2, 66, 76
8, 137864, Note_on_c, 2, 66, 0
8, 137880, Note_on_c, 2, 66, 76
8, 137999, Note_on_c, 2, 66, 0
8, 146070, Note_on_c, 2, 62, 76
8, 146144, Note_on_c, 2, 62, 0
8, 146160, Note_on_c, 2, 62, 76
8, 146414, Note_on_c, 2, 62, 0
8, 146430, Note_on_c, 2, 62, 76
8, 146504, Note_on_c, 2, 62, 0
8, 146520, Note_on_c, 2, 62, 76
8, 146774, Note_on_c, 2, 62, 0
8, 146790, Note_on_c, 2, 62, 76
8, 146864, Note_on_c, 2, 62, 0
8, 146880, Note_on_c, 2, 62, 76
8, 146999, Note_on_c, 2, 62, 0
8, 148230, Note_on_c, 2, 62, 76
8, 148304, Note_on_c, 2, 62, 0
8, 148320, Note_on_c, 2, 62, 76
8, 148574, Note_on_c, 2, 62, 0
8, 148590, Note_on_c, 2, 62, 76
8, 148664, Note_on_c, 2, 62, 0
8, 148680, Note_on_c, 2, 62, 76
8, 148934, Note_on_c, 2, 62, 0
8, 148950, Note_on_c, 2, 62, 76
8, 149024, Note_on_c, 2, 62, 0
8, 149040, Note_on_c, 2, 62, 76
8, 149159, Note_on_c, 2, 62, 0
8, 189360, Note_on_c, 2, 69, 76
8, 189479, Note_on_c, 2, 69, 0
8, 189720, Note_on_c, 2, 69, 76
8, 189839, Note_on_c, 2, 69, 0
8, 190080, Note_on_c, 2, 69, 76
8, 190199, Note_on_c, 2, 69, 0
8, 195750, Note_on_c, 2, 69, 76
8, 195824, Note_on_c, 2, 69, 0
8, 195840, Note_on_c, 2, 69, 76
8, 196094, Note_on_c, 2, 69, 0
8, 196110, Note_on_c, 2, 69, 76
8, 196184, Note_on_c, 2, 69, 0
8, 196200, Note_on_c, 2, 69, 76
8, 196454, Note_on_c, 2, 69, 0
8, 196470, Note_on_c, 2, 69, 76
8, 196544, Note_on_c, 2, 69, 0
8, 196560, Note_on_c, 2, 69, 76
8, 196814, Note_on_c, 2, 69, 0
8, 196830, Note_on_c, 2, 76, 76
8, 196904, Note_on_c, 2, 76, 0
8, 196920, Note_on_c, 2, 74, 76
8, 197174, Note_on_c, 2, 74, 0
8, 197190, Note_on_c, 2, 74, 76
8, 197264, Note_on_c, 2, 74, 0
8, 197280, Note_on_c, 2, 74, 76
8, 197534, Note_on_c, 2, 74, 0
8, 197550, Note_on_c, 2, 69, 76
8, 197624, Note_on_c, 2, 69, 0
8, 197640, Note_on_c, 2, 69, 76
8, 197759, Note_on_c, 2, 69, 0
8, 198720, Note_on_c, 2, 74, 76
8, 198839, Note_on_c, 2, 74, 0
8, 199800, Note_on_c, 2, 78, 76
8, 200039, Note_on_c, 2, 78, 0
8, 204540, Note_on_c, 2, 76, 76
8, 204593, Note_on_c, 2, 76, 0
8, 204600, Note_on_c, 2, 78, 76
8, 204839, Note_on_c, 2, 78, 0
8, 205500, Note_on_c, 2, 74, 76
8, 205553, Note_on_c, 2, 74, 0
8, 205560, Note_on_c, 2, 62, 76
8, 205799, Note_on_c, 2, 62, 0
8, 206460, Note_on_c, 2, 76, 76
8, 206513, Note_on_c, 2, 76, 0
8, 206520, Note_on_c, 2, 69, 76
8, 206759, Note_on_c, 2, 69, 0
8, 207420, Note_on_c, 2, 69, 76
8, 207473, Note_on_c, 2, 69, 0
8, 207480, Note_on_c, 2, 76, 76
8, 207829, Note_on_c, 2, 76, 0
8, 207840, Note_on_c, 2, 76, 76
8, 207949, Note_on_c, 2, 76, 0
8, 207960, Note_on_c, 2, 69, 76
8, 208189, Note_on_c, 2, 69, 0
8, 208200, Note_on_c, 2, 69, 76
8, 208429, Note_on_c, 2, 69, 0
8, 208440, Note_on_c, 2, 69, 76
8, 208669, Note_on_c, 2, 69, 0
8, 208680, Note_on_c, 2, 66, 76
8, 208919, Note_on_c, 2, 66, 0
8, 218220, Note_on_c, 2, 69, 76
8, 218273, Note_on_c, 2, 69, 0
8, 218280, Note_on_c, 2, 62, 76
8, 218453, Note_on_c, 2, 62, 0
8, 218460, Note_on_c, 2, 62, 76
8, 218513, Note_on_c, 2, 62, 0
8, 218520, Note_on_c, 2, 69, 76
8, 218869, Note_on_c, 2, 69, 0
8, 218880, Note_on_c, 2, 69, 76
8, 218989, Note_on_c, 2, 69, 0
8, 219000, Note_on_c, 2, 69, 76
8, 219359, Note_on_c, 2, 69, 0
8, 235560, Note_on_c, 2, 69, 76
8, 235679, Note_on_c, 2, 69, 0
8, 235920, Note_on_c, 2, 69, 76
8, 236039, Note_on_c, 2, 69, 0
8, 236280, Note_on_c, 2, 69, 76
8, 236399, Note_on_c, 2, 69, 0
8, 241950, Note_on_c, 2, 69, 76
8, 242024, Note_on_c, 2, 69, 0
8, 242040, Note_on_c, 2, 69, 76
8, 242294, Note_on_c, 2, 69, 0
8, 242310, Note_on_c, 2, 69, 76
8, 242384, Note_on_c, 2, 69, 0
8, 242400, Note_on_c, 2, 69, 76
8, 242654, Note_on_c, 2, 69, 0
8, 242670, Note_on_c, 2, 69, 76
8, 242744, Note_on_c, 2, 69, 0
8, 242760, Note_on_c, 2, 69, 76
8, 243014, Note_on_c, 2, 69, 0
8, 243030, Note_on_c, 2, 76, 76
8, 243104, Note_on_c, 2, 76, 0
8, 243120, Note_on_c, 2, 74, 76
8, 243374, Note_on_c, 2, 74, 0
8, 243390, Note_on_c, 2, 74, 76
8, 243464, Note_on_c, 2, 74, 0
8, 243480, Note_on_c, 2, 74, 76
8, 243734, Note_on_c, 2, 74, 0
8, 243750, Note_on_c, 2, 69, 76
8, 243824, Note_on_c, 2, 69, 0
8, 243840, Note_on_c, 2, 69, 76
8, 243959, Note_on_c, 2, 69, 0
8, 244920, Note_on_c, 2, 74, 76
8, 245039, Note_on_c, 2, 74, 0
8, 246000, Note_on_c, 2, 78, 76
8, 246119, Note_on_c, 2, 78, 0
8, 266520, Note_on_c, 2, 69, 76
8, 266639, Note_on_c, 2, 69, 0
8, 267600, Note_on_c, 2, 76, 76
8, 267719, Note_on_c, 2, 76, 0
8, 268680, Note_on_c, 2, 81, 76
8, 268799, Note_on_c, 2, 81, 0
8, 280920, Note_on_c, 2, 69, 76
8, 281039, Note_on_c, 2, 69, 0
8, 281280, Note_on_c, 2, 69, 76
8, 281399, Note_on_c, 2, 69, 0
8, 281640, Note_on_c, 2, 69, 76
8, 281759, Note_on_c, 2, 69, 0
8, 288120, Note_on_c, 2, 69, 76
8, 288239, Note_on_c, 2, 69, 0
8, 289200, Note_on_c, 2, 69, 76
8, 289319, Note_on_c, 2, 69, 0
8, 290550, Note_on_c, 2, 69, 76
8, 290624, Note_on_c, 2, 69, 0
8, 290640, Note_on_c, 2, 69, 76
8, 290894, Note_on_c, 2, 69, 0
8, 290910, Note_on_c, 2, 69, 76
8, 290984, Note_on_c, 2, 69, 0
8, 291000, Note_on_c, 2, 69, 76
8, 291254, Note_on_c, 2, 69, 0
8, 291270, Note_on_c, 2, 69, 76
8, 291344, Note_on_c, 2, 69, 0
8, 291360, Note_on_c, 2, 69, 76
8, 291479, Note_on_c, 2, 69, 0
8, 291720, Note_on_c, 2, 69, 76
8, 291839, Note_on_c, 2, 69, 0
8, 292080, Note_on_c, 2, 69, 76
8, 292199, Note_on_c, 2, 69, 0
8, 292440, Note_on_c, 2, 69, 76
8, 292694, Note_on_c, 2, 69, 0
8, 292710, Note_on_c, 2, 69, 76
8, 292784, Note_on_c, 2, 69, 0
8, 292800, Note_on_c, 2, 69, 76
8, 293054, Note_on_c, 2, 69, 0
8, 293070, Note_on_c, 2, 69, 76
8, 293144, Note_on_c, 2, 69, 0
8, 293160, Note_on_c, 2, 69, 76
8, 293414, Note_on_c, 2, 69, 0
8, 293430, Note_on_c, 2, 69, 76
8, 293504, Note_on_c, 2, 69, 0
8, 293520, Note_on_c, 2, 69, 76
8, 293639, Note_on_c, 2, 69, 0
8, 296040, Note_on_c, 2, 74, 76
8, 296159, Note_on_c, 2, 74, 0
8, 296400, Note_on_c, 2, 74, 76
8, 296519, Note_on_c, 2, 74, 0
8, 296760, Note_on_c, 2, 74, 76
8, 296879, Note_on_c, 2, 74, 0
8, 301350, Note_on_c, 2, 66, 76
8, 301424, Note_on_c, 2, 66, 0
8, 301440, Note_on_c, 2, 66, 76
8, 301694, Note_on_c, 2, 66, 0
8, 301710, Note_on_c, 2, 66, 76
8, 301784, Note_on_c, 2, 66, 0
8, 301800, Note_on_c, 2, 66, 76
8, 302054, Note_on_c, 2, 66, 0
8, 302070, Note_on_c, 2, 66, 76
8, 302144, Note_on_c, 2, 66, 0
8, 302160, Note_on_c, 2, 66, 76
8, 302279, Note_on_c, 2, 66, 0
8, 312150, Note_on_c, 2, 66, 76
8, 312224, Note_on_c, 2, 66, 0
8, 312240, Note_on_c, 2, 66, 76
8, 312494, Note_on_c, 2, 66, 0
8, 312510, Note_on_c, 2, 66, 76
8, 312584, Note_on_c, 2, 66, 0
8, 312600, Note_on_c, 2, 66, 76
8, 312719, Note_on_c, 2, 66, 0
8, 320790, Note_on_c, 2, 62, 76
8, 320864, Note_on_c, 2, 62, 0
8, 320880, Note_on_c, 2, 62, 76
8, 321134, Note_on_c, 2, 62, 0
8, 321150, Note_on_c, 2, 62, 76
8, 321224, Note_on_c, 2, 62, 0
8, 321240, Note_on_c, 2, 62, 76
8, 321494, Note_on_c, 2, 62, 0
8, 321510, Note_on_c, 2, 62, 76
8, 321584, Note_on_c, 2, 62, 0
8, 321600, Note_on_c, 2, 62, 76
8, 321719, Note_on_c, 2, 62, 0
8, 322950, Note_on_c, 2, 62, 76
8, 323024, Note_on_c, 2, 62, 0
8, 323040, Note_on_c, 2, 62, 76
8, 323294, Note_on_c, 2, 62, 0
8, 323310, Note_on_c, 2, 62, 76
8, 323384, Note_on_c, 2, 62, 0
8, 323400, Note_on_c, 2, 62, 76
8, 323654, Note_on_c, 2, 62, 0
8, 323670, Note_on_c, 2, 62, 76
8, 323744, Note_on_c, 2, 62, 0
8, 323760, Note_on_c, 2, 62, 76
8, 323879, Note_on_c, 2, 62, 0
8, 364080, Note_on_c, 2, 69, 76
8, 364199, Note_on_c, 2, 69, 0
8, 364440, Note_on_c, 2, 69, 76
8, 364559, Note_on_c, 2, 69, 0
8, 364800, Note_on_c, 2, 69, 76
8, 364919, Note_on_c, 2, 69, 0
8, 370470, Note_on_c, 2, 69, 76
8, 370544, Note_on_c, 2, 69, 0
8, 370560, Note_on_c, 2, 69, 76
8, 370814, Note_on_c, 2, 69, 0
8, 370830, Note_on_c, 2, 69, 76
8, 370904, Note_on_c, 2, 69, 0
8, 370920, Note_on_c, 2, 69, 76
8, 371174, Note_on_c, 2, 69, 0
8, 371190, Note_on_c, 2, 69, 76
8, 371264, Note_on_c, 2, 69, 0
8, 371280, Note_on_c, 2, 69, 76
8, 371534, Note_on_c, 2, 69, 0
8, 371550, Note_on_c, 2, 76, 76
8, 371624, Note_on_c, 2, 76, 0
8, 371640, Note_on_c, 2, 74, 76
8, 371894, Note_on_c, 2, 74, 0
8, 371910, Note_on_c, 2, 74, 76
8, 371984, Note_on_c, 2, 74, 0
8, 372000, Note_on_c, 2, 74, 76
8, 372254, Note_on_c, 2, 74, 0
8, 372270, Note_on_c, 2, 69, 76
8, 372344, Note_on_c, 2, 69, 0
8, 372360, Note_on_c, 2, 69, 76
8, 372479, Note_on_c, 2, 69, 0
8, 373440, Note_on_c, 2, 74, 76
8, 373559, Note_on_c, 2, 74, 0
8, 374520, Note_on_c, 2, 78, 76
8, 374759, Note_on_c, 2, 78, 0
8, 379260, Note_on_c, 2, 76, 76
8, 379313, Note_on_c, 2, 76, 0
8, 379320, Note_on_c, 2, 78, 76
8, 379559, Note_on_c, 2, 78, 0
8, 380220, Note_on_c, 2, 74, 76
8, 380273, Note_on_c, 2, 74, 0
8, 380280, Note_on_c, 2, 62, 76
8, 380519, Note_on_c, 2, 62, 0
8, 381180, Note_on_c, 2, 76, 76
8, 381233, Note_on_c, 2, 76, 0
8, 381240, Note_on_c, 2, 69, 76
8, 381479, Note_on_c, 2, 69, 0
8, 382140, Note_on_c, 2, 69, 76
8, 382193, Note_on_c, 2, 69, 0
8, 382200, Note_on_c, 2, 76, 76
8, 382549, Note_on_c, 2, 76, 0
8, 382560, Note_on_c, 2, 76, 76
8, 382669, Note_on_c, 2, 76, 0
8, 382680, Note_on_c, 2, 69, 76
8, 382909, Note_on_c, 2, 69, 0
8, 382920, Note_on_c, 2, 69, 76
8, 383149, Note_on_c, 2, 69, 0
8, 383160, Note_on_c, 2, 69, 76
8, 383389, Note_on_c, 2, 69, 0
8, 383400, Note_on_c, 2, 66, 76
8, 383639, Note_on_c, 2, 66, 0
8, 392940, Note_on_c, 2, 69, 76
8, 392993, Note_on_c, 2, 69, 0
8, 393000, Note_on_c, 2, 62, 76
8, 393173, Note_on_c, 2, 62, 0
8, 393180, Note_on_c, 2, 62, 76
8, 393233, Note_on_c, 2, 62, 0
8, 393240, Note_on_c, 2, 69, 76
8, 393589, Note_on_c, 2, 69, 0
8, 393600, Note_on_c, 2, 69, 76
8, 393709, Note_on_c, 2, 69, 0
8, 393720, Note_on_c, 2, 69, 76
8, 394679, Note_on_c, 2, 69, 0
8, 394679, End_track
9, 0, Start_track
9, 0, Title_t, "Timpani in D and A"
9, 0, MIDI_port, 0
9, 0, Program_c, 3, 47
9, 0, Control_c, 3, 10, 25
9, 0, Control_c, 3, 11, 127
9, 0, Control_c, 3, 7, 96
9, 180, Note_on_c, 3, 50, 76
9, 209, Note_on_c, 3, 50, 0
9, 210, Note_on_c, 3, 50, 76
9, 239, Note_on_c, 3, 50, 0
9, 240, Note_on_c, 3, 50, 76
9, 479, Note_on_c, 3, 50, 0
9, 1140, Note_on_c, 3, 50, 76
9, 1169, Note_on_c, 3, 50, 0
9, 1170, Note_on_c, 3, 50, 76
9, 1199, Note_on_c, 3, 50, 0
9, 1200, Note_on_c, 3, 50, 76
9, 1439, Note_on_c, 3, 50, 0
9, 2100, Note_on_c, 3, 50, 76
9, 2129, Note_on_c, 3, 50, 0
9, 2130, Note_on_c, 3, 50, 76
9, 2159, Note_on_c, 3, 50, 0
9, 2160, Note_on_c, 3, 50, 76
9, 2399, Note_on_c, 3, 50, 0
9, 3060, Note_on_c, 3, 50, 76
9, 3089, Note_on_c, 3, 50, 0
9, 3090, Note_on_c, 3, 50, 76
9, 3119, Note_on_c, 3, 50, 0
9, 3120, Note_on_c, 3, 50, 76
9, 3479, Note_on_c, 3, 50, 0
9, 3480, Note_on_c, 3, 50, 76
9, 3519, Note_on_c, 3, 50, 0
9, 3520, Note_on_c, 3, 50, 76
9, 3559, Note_on_c, 3, 50, 0
9, 3560, Note_on_c, 3, 50, 76
9, 3599, Note_on_c, 3, 50, 0
9, 3600, Note_on_c, 3, 45, 76
9, 3839, Note_on_c, 3, 45, 0
9, 3840, Note_on_c, 3, 45, 76
9, 4079, Note_on_c, 3, 45, 0
9, 4080, Note_on_c, 3, 50, 76
9, 4559, Note_on_c, 3, 50, 0
9, 7860, Note_on_c, 3, 45, 76
9, 7889, Note_on_c, 3, 45, 0
9, 7890, Note_on_c, 3, 45, 76
9, 7919, Note_on_c, 3, 45, 0
9, 7920, Note_on_c, 3, 45, 76
9, 8159, Note_on_c, 3, 45, 0
9, 8820, Note_on_c, 3, 45, 76
9, 8849, Note_on_c, 3, 45, 0
9, 8850, Note_on_c, 3, 45, 76
9, 8879, Note_on_c, 3, 45, 0
9, 8880, Note_on_c, 3, 45, 76
9, 9119, Note_on_c, 3, 45, 0
9, 9780, Note_on_c, 3, 45, 76
9, 9809, Note_on_c, 3, 45, 0
9, 9810, Note_on_c, 3, 45, 76
9, 9839, Note_on_c, 3, 45, 0
9, 9840, Note_on_c, 3, 45, 76
9, 10079, Note_on_c, 3, 45, 0
9, 10740, Note_on_c, 3, 45, 76
9, 10769, Note_on_c, 3, 45, 0
9, 10770, Note_on_c, 3, 45, 76
9, 10799, Note_on_c, 3, 45, 0
9, 10800, Note_on_c, 3, 45, 76
9, 11099, Note_on_c, 3, 45, 0
9, 11100, Note_on_c, 3, 45, 76
9, 11159, Note_on_c, 3, 45, 0
9, 11160, Note_on_c, 3, 45, 76
9, 11219, Note_on_c, 3, 45, 0
9, 11220, Note_on_c, 3, 45, 76
9, 11279, Note_on_c, 3, 45, 0
9, 11280, Note_on_c, 3, 50, 76
9, 11519, Note_on_c, 3, 50, 0
9, 11700, Note_on_c, 3, 50, 76
9, 11759, Note_on_c, 3, 50, 0
9, 11760, Note_on_c, 3, 45, 76
9, 12239, Note_on_c, 3, 45, 0
9, 21780, Note_on_c, 3, 50, 76
9, 21839, Note_on_c, 3, 50, 0
9, 21840, Note_on_c, 3, 45, 76
9, 22019, Note_on_c, 3, 45, 0
9, 22020, Note_on_c, 3, 50, 76
9, 22079, Note_on_c, 3, 50, 0
9, 22080, Note_on_c, 3, 50, 76
9, 22199, Note_on_c, 3, 50, 0
9, 22320, Note_on_c, 3, 45, 76
9, 23039, Note_on_c, 3, 45, 0
9, 23220, Note_on_c, 3, 50, 76
9, 23249, Note_on_c, 3, 50, 0
9, 23250, Note_on_c, 3, 50, 76
9, 23279, Note_on_c, 3, 50, 0
9, 23280, Note_on_c, 3, 50, 76
9, 23519, Note_on_c, 3, 50, 0
9, 24180, Note_on_c, 3, 50, 76
9, 24209, Note_on_c, 3, 50, 0
9, 24210, Note_on_c, 3, 50, 76
9, 24239, Note_on_c, 3, 50, 0
9, 24240, Note_on_c, 3, 50, 76
9, 24479, Note_on_c, 3, 50, 0
9, 25140, Note_on_c, 3, 50, 76
9, 25169, Note_on_c, 3, 50, 0
9, 25170, Note_on_c, 3, 50, 76
9, 25199, Note_on_c, 3, 50, 0
9, 25200, Note_on_c, 3, 50, 76
9, 25439, Note_on_c, 3, 50, 0
9, 26100, Note_on_c, 3, 50, 76
9, 26129, Note_on_c, 3, 50, 0
9, 26130, Note_on_c, 3, 50, 76
9, 26159, Note_on_c, 3, 50, 0
9, 26160, Note_on_c, 3, 50, 76
9, 26519, Note_on_c, 3, 50, 0
9, 26520, Note_on_c, 3, 50, 76
9, 26559, Note_on_c, 3, 50, 0
9, 26560, Note_on_c, 3, 50, 76
9, 26599, Note_on_c, 3, 50, 0
9, 26600, Note_on_c, 3, 50, 76
9, 26639, Note_on_c, 3, 50, 0
9, 26640, Note_on_c, 3, 45, 76
9, 26879, Note_on_c, 3, 45, 0
9, 26880, Note_on_c, 3, 45, 76
9, 27119, Note_on_c, 3, 45, 0
9, 27120, Note_on_c, 3, 50, 76
9, 27599, Note_on_c, 3, 50, 0
9, 30900, Note_on_c, 3, 45, 76
9, 30929, Note_on_c, 3, 45, 0
9, 30930, Note_on_c, 3, 45, 76
9, 30959, Note_on_c, 3, 45, 0
9, 30960, Note_on_c, 3, 45, 76
9, 31199, Note_on_c, 3, 45, 0
9, 31860, Note_on_c, 3, 45, 76
9, 31889, Note_on_c, 3, 45, 0
9, 31890, Note_on_c, 3, 45, 76
9, 31919, Note_on_c, 3, 45, 0
9, 31920, Note_on_c, 3, 45, 76
9, 32159, Note_on_c, 3, 45, 0
9, 32820, Note_on_c, 3, 45, 76
9, 32849, Note_on_c, 3, 45, 0
9, 32850, Note_on_c, 3, 45, 76
9, 32879, Note_on_c, 3, 45, 0
9, 32880, Note_on_c, 3, 45, 76
9, 33119, Note_on_c, 3, 45, 0
9, 33780, Note_on_c, 3, 45, 76
9, 33809, Note_on_c, 3, 45, 0
9, 33810, Note_on_c, 3, 45, 76
9, 33839, Note_on_c, 3, 45, 0
9, 33840, Note_on_c, 3, 45, 76
9, 34139, Note_on_c, 3, 45, 0
9, 34140, Note_on_c, 3, 45, 76
9, 34199, Note_on_c, 3, 45, 0
9, 34200, Note_on_c, 3, 45, 76
9, 34259, Note_on_c, 3, 45, 0
9, 34260, Note_on_c, 3, 45, 76
9, 34319, Note_on_c, 3, 45, 0
9, 34320, Note_on_c, 3, 50, 76
9, 34559, Note_on_c, 3, 50, 0
9, 34740, Note_on_c, 3, 50, 76
9, 34799, Note_on_c, 3, 50, 0
9, 34800, Note_on_c, 3, 45, 76
9, 35279, Note_on_c, 3, 45, 0
9, 44820, Note_on_c, 3, 50, 76
9, 44879, Note_on_c, 3, 50, 0
9, 44880, Note_on_c, 3, 45, 76
9, 45059, Note_on_c, 3, 45, 0
9, 45060, Note_on_c, 3, 50, 76
9, 45119, Note_on_c, 3, 50, 0
9, 45120, Note_on_c, 3, 50, 76
9, 45239, Note_on_c, 3, 50, 0
9, 45360, Note_on_c, 3, 45, 76
9, 46079, Note_on_c, 3, 45, 0
9, 60840, Note_on_c, 3, 45, 76
9, 60959, Note_on_c, 3, 45, 0
9, 61200, Note_on_c, 3, 45, 76
9, 61319, Note_on_c, 3, 45, 0
9, 61560, Note_on_c, 3, 50, 76
9, 61679, Note_on_c, 3, 50, 0
9, 67230, Note_on_c, 3, 45, 76
9, 67304, Note_on_c, 3, 45, 0
9, 67320, Note_on_c, 3, 45, 76
9, 67574, Note_on_c, 3, 45, 0
9, 67590, Note_on_c, 3, 45, 76
9, 67664, Note_on_c, 3, 45, 0
9, 67680, Note_on_c, 3, 45, 76
9, 67934, Note_on_c, 3, 45, 0
9, 67950, Note_on_c, 3, 45, 76
9, 68024, Note_on_c, 3, 45, 0
9, 68040, Note_on_c, 3, 50, 76
9, 68159, Note_on_c, 3, 50, 0
9, 68670, Note_on_c, 3, 50, 76
9, 68744, Note_on_c, 3, 50, 0
9, 68760, Note_on_c, 3, 45, 76
9, 69014, Note_on_c, 3, 45, 0
9, 69030, Note_on_c, 3, 45, 76
9, 69104, Note_on_c, 3, 45, 0
9, 69120, Note_on_c, 3, 50, 76
9, 69239, Note_on_c, 3, 50, 0
9, 70200, Note_on_c, 3, 50, 76
9, 70319, Note_on_c, 3, 50, 0
9, 71280, Note_on_c, 3, 50, 76
9, 71399, Note_on_c, 3, 50, 0
9, 91800, Note_on_c, 3, 45, 76
9, 91919, Note_on_c, 3, 45, 0
9, 92880, Note_on_c, 3, 45, 76
9, 92999, Note_on_c, 3, 45, 0
9, 93960, Note_on_c, 3, 45, 76
9, 94079, Note_on_c, 3, 45, 0
9, 106200, Note_on_c, 3, 45, 76
9, 106319, Note_on_c, 3, 45, 0
9, 106560, Note_on_c, 3, 45, 76
9, 106679, Note_on_c, 3, 45, 0
9, 106920, Note_on_c, 3, 50, 76
9, 107039, Note_on_c, 3, 50, 0
9, 113400, Note_on_c, 3, 45, 76
9, 113519, Note_on_c, 3, 45, 0
9, 114480, Note_on_c, 3, 45, 76
9, 114599, Note_on_c, 3, 45, 0
9, 115560, Note_on_c, 3, 45, 76
9, 115679, Note_on_c, 3, 45, 0
9, 117000, Note_on_c, 3, 45, 76
9, 117119, Note_on_c, 3, 45, 0
9, 117360, Note_on_c, 3, 45, 76
9, 117479, Note_on_c, 3, 45, 0
9, 117720, Note_on_c, 3, 50, 76
9, 117839, Note_on_c, 3, 50, 0
9, 118800, Note_on_c, 3, 50, 76
9, 118919, Note_on_c, 3, 50, 0
9, 119880, Note_on_c, 3, 50, 76
9, 119999, Note_on_c, 3, 50, 0
9, 121320, Note_on_c, 3, 50, 76
9, 121439, Note_on_c, 3, 50, 0
9, 121680, Note_on_c, 3, 50, 76
9, 121799, Note_on_c, 3, 50, 0
9, 122040, Note_on_c, 3, 50, 76
9, 122159, Note_on_c, 3, 50, 0
9, 147150, Note_on_c, 3, 50, 76
9, 147224, Note_on_c, 3, 50, 0
9, 147240, Note_on_c, 3, 50, 76
9, 147494, Note_on_c, 3, 50, 0
9, 147510, Note_on_c, 3, 50, 76
9, 147584, Note_on_c, 3, 50, 0
9, 147600, Note_on_c, 3, 50, 76
9, 147854, Note_on_c, 3, 50, 0
9, 147870, Note_on_c, 3, 50, 76
9, 147944, Note_on_c, 3, 50, 0
9, 147960, Note_on_c, 3, 50, 76
9, 148214, Note_on_c, 3, 50, 0
9, 148230, Note_on_c, 3, 50, 76
9, 148304, Note_on_c, 3, 50, 0
9, 148320, Note_on_c, 3, 50, 76
9, 148574, Note_on_c, 3, 50, 0
9, 148590, Note_on_c, 3, 50, 76
9, 148664, Note_on_c, 3, 50, 0
9, 148680, Note_on_c, 3, 50, 76
9, 148934, Note_on_c, 3, 50, 0
9, 148950, Note_on_c, 3, 50, 76
9, 149024, Note_on_c, 3, 50, 0
9, 149040, Note_on_c, 3, 50, 76
9, 149159, Note_on_c, 3, 50, 0
9, 189360, Note_on_c, 3, 45, 76
9, 189479, Note_on_c, 3, 45, 0
9, 189720, Note_on_c, 3, 45, 76
9, 189839, Note_on_c, 3, 45, 0
9, 190080, Note_on_c, 3, 50, 76
9, 190199, Note_on_c, 3, 50, 0
9, 195750, Note_on_c, 3, 45, 76
9, 195824, Note_on_c, 3, 45, 0
9, 195840, Note_on_c, 3, 45, 76
9, 196094, Note_on_c, 3, 45, 0
9, 196110, Note_on_c, 3, 45, 76
9, 196184, Note_on_c, 3, 45, 0
9, 196200, Note_on_c, 3, 45, 76
9, 196454, Note_on_c, 3, 45, 0
9, 196470, Note_on_c, 3, 45, 76
9, 196544, Note_on_c, 3, 45, 0
9, 196560, Note_on_c, 3, 50, 76
9, 196679, Note_on_c, 3, 50, 0
9, 197190, Note_on_c, 3, 50, 76
9, 197264, Note_on_c, 3, 50, 0
9, 197280, Note_on_c, 3, 45, 76
9, 197534, Note_on_c, 3, 45, 0
9, 197550, Note_on_c, 3, 45, 76
9, 197624, Note_on_c, 3, 45, 0
9, 197640, Note_on_c, 3, 50, 76
9, 197759, Note_on_c, 3, 50, 0
9, 198720, Note_on_c, 3, 50, 76
9, 198839, Note_on_c, 3, 50, 0
9, 199800, Note_on_c, 3, 50, 76
9, 200039, Note_on_c, 3, 50, 0
9, 204540, Note_on_c, 3, 45, 76
9, 204599, Note_on_c, 3, 45, 0
9, 204600, Note_on_c, 3, 50, 76
9, 204839, Note_on_c, 3, 50, 0
9, 205500, Note_on_c, 3, 50, 76
9, 205559, Note_on_c, 3, 50, 0
9, 205560, Note_on_c, 3, 50, 76
9, 205799, Note_on_c, 3, 50, 0
9, 206460, Note_on_c, 3, 45, 76
9, 206519, Note_on_c, 3, 45, 0
9, 206520, Note_on_c, 3, 45, 76
9, 206759, Note_on_c, 3, 45, 0
9, 207420, Note_on_c, 3, 50, 76
9, 207479, Note_on_c, 3, 50, 0
9, 207480, Note_on_c, 3, 50, 76
9, 207839, Note_on_c, 3, 50, 0
9, 207840, Note_on_c, 3, 50, 76
9, 207879, Note_on_c, 3, 50, 0
9, 207880, Note_on_c, 3, 50, 76
9, 207919, Note_on_c, 3, 50, 0
9, 207920, Note_on_c, 3, 50, 76
9, 207959, Note_on_c, 3, 50, 0
9, 207960, Note_on_c, 3, 45, 76
9, 208199, Note_on_c, 3, 45, 0
9, 208200, Note_on_c, 3, 45, 76
9, 208439, Note_on_c, 3, 45, 0
9, 208440, Note_on_c, 3, 50, 76
9, 208919, Note_on_c, 3, 50, 0
9, 218220, Note_on_c, 3, 45, 76
9, 218279, Note_on_c, 3, 45, 0
9, 218280, Note_on_c, 3, 50, 76
9, 218459, Note_on_c, 3, 50, 0
9, 218460, Note_on_c, 3, 50, 76
9, 218519, Note_on_c, 3, 50, 0
9, 218520, Note_on_c, 3, 45, 76
9, 218699, Note_on_c, 3, 45, 0
9, 218700, Note_on_c, 3, 45, 76
9, 218759, Note_on_c, 3, 45, 0
9, 218760, Note_on_c, 3, 45, 76
9, 218939, Note_on_c, 3, 45, 0
9, 218940, Note_on_c, 3, 45, 76
9, 218999, Note_on_c, 3, 45, 0
9, 219000, Note_on_c, 3, 50, 76
9, 219359, Note_on_c, 3, 50, 0
9, 235560, Note_on_c, 3, 45, 76
9, 235679, Note_on_c, 3, 45, 0
9, 235920, Note_on_c, 3, 45, 76
9, 236039, Note_on_c, 3, 45, 0
9, 236280, Note_on_c, 3, 50, 76
9, 236399, Note_on_c, 3, 50, 0
9, 241950, Note_on_c, 3, 45, 76
9, 242024, Note_on_c, 3, 45, 0
9, 242040, Note_on_c, 3, 45, 76
9, 242294, Note_on_c, 3, 45, 0
9, 242310, Note_on_c, 3, 45, 76
9, 242384, Note_on_c, 3, 45, 0
9, 242400, Note_on_c, 3, 45, 76
9, 242654, Note_on_c, 3, 45, 0
9, 242670, Note_on_c, 3, 45, 76
9, 242744, Note_on_c, 3, 45, 0
9, 242760, Note_on_c, 3, 50, 76
9, 242879, Note_on_c, 3, 50, 0
9, 243390, Note_on_c, 3, 50, 76
9, 243464, Note_on_c, 3, 50, 0
9, 243480, Note_on_c, 3, 45, 76
9, 243734, Note_on_c, 3, 45, 0
9, 243750, Note_on_c, 3, 45, 76
9, 243824, Note_on_c, 3, 45, 0
9, 243840, Note_on_c, 3, 50, 76
9, 243959, Note_on_c, 3, 50, 0
9, 244920, Note_on_c, 3, 50, 76
9, 245039, Note_on_c, 3, 50, 0
9, 246000, Note_on_c, 3, 50, 76
9, 246119, Note_on_c, 3, 50, 0
9, 266520, Note_on_c, 3, 45, 76
9, 266639, Note_on_c, 3, 45, 0
9, 267600, Note_on_c, 3, 45, 76
9, 267719, Note_on_c, 3, 45, 0
9, 268680, Note_on_c, 3, 45, 76
9, 268799, Note_on_c, 3, 45, 0
9, 280920, Note_on_c, 3, 45, 76
9, 281039, Note_on_c, 3, 45, 0
9, 281280, Note_on_c, 3, 45, 76
9, 281399, Note_on_c, 3, 45, 0
9, 281640, Note_on_c, 3, 50, 76
9, 281759, Note_on_c, 3, 50, 0
9, 288120, Note_on_c, 3, 45, 76
9, 288239, Note_on_c, 3, 45, 0
9, 289200, Note_on_c, 3, 45, 76
9, 289319, Note_on_c, 3, 45, 0
9, 290280, Note_on_c, 3, 45, 76
9, 290399, Note_on_c, 3, 45, 0
9, 291720, Note_on_c, 3, 45, 76
9, 291839, Note_on_c, 3, 45, 0
9, 292080, Note_on_c, 3, 45, 76
9, 292199, Note_on_c, 3, 45, 0
9, 292440, Note_on_c, 3, 50, 76
9, 292559, Note_on_c, 3, 50, 0
9, 293520, Note_on_c, 3, 50, 76
9, 293639, Note_on_c, 3, 50, 0
9, 294600, Note_on_c, 3, 50, 76
9, 294719, Note_on_c, 3, 50, 0
9, 296040, Note_on_c, 3, 50, 76
9, 296159, Note_on_c, 3, 50, 0
9, 296400, Note_on_c, 3, 50, 76
9, 296519, Note_on_c, 3, 50, 0
9, 296760, Note_on_c, 3, 50, 76
9, 296879, Note_on_c, 3, 50, 0
9, 321870, Note_on_c, 3, 50, 76
9, 321944, Note_on_c, 3, 50, 0
9, 321960, Note_on_c, 3, 50, 76
9, 322214, Note_on_c, 3, 50, 0
9, 322230, Note_on_c, 3, 50, 76
9, 322304, Note_on_c, 3, 50, 0
9, 322320, Note_on_c, 3, 50, 76
9, 322574, Note_on_c, 3, 50, 0
9, 322590, Note_on_c, 3, 50, 76
9, 322664, Note_on_c, 3, 50, 0
9, 322680, Note_on_c, 3, 50, 76
9, 322934, Note_on_c, 3, 50, 0
9, 322950, Note_on_c, 3, 50, 76
9, 323024, Note_on_c, 3, 50, 0
9, 323040, Note_on_c, 3, 50, 76
9, 323294, Note_on_c, 3, 50, 0
9, 323310, Note_on_c, 3, 50, 76
9, 323384, Note_on_c, 3, 50, 0
9, 323400, Note_on_c, 3, 50, 76
9, 323654, Note_on_c, 3, 50, 0
9, 323670, Note_on_c, 3, 50, 76
9, 323744, Note_on_c, 3, 50, 0
9, 323760, Note_on_c, 3, 50, 76
9, 323879, Note_on_c, 3, 50, 0
9, 364080, Note_on_c, 3, 45, 76
9, 364199, Note_on_c, 3, 45, 0
9, 364440, Note_on_c, 3, 45, 76
9, 364559, Note_on_c, 3, 45, 0
9, 364800, Note_on_c, 3, 50, 76
9, 364919, Note_on_c, 3, 50, 0
9, 370470, Note_on_c, 3, 45, 76
9, 370544, Note_on_c, 3, 45, 0
9, 370560, Note_on_c, 3, 45, 76
9, 370814, Note_on_c, 3, 45, 0
9, 370830, Note_on_c, 3, 45, 76
9, 370904, Note_on_c, 3, 45, 0
9, 370920, Note_on_c, 3, 45, 76
9, 371174, Note_on_c, 3, 45, 0
9, 371190, Note_on_c, 3, 45, 76
9, 371264, Note_on_c, 3, 45, 0
9, 371280, Note_on_c, 3, 50, 76
9, 371399, Note_on_c, 3, 50, 0
9, 371910, Note_on_c, 3, 50, 76
9, 371984, Note_on_c, 3, 50, 0
9, 372000, Note_on_c, 3, 45, 76
9, 372254, Note_on_c, 3, 45, 0
9, 372270, Note_on_c, 3, 45, 76
9, 372344, Note_on_c, 3, 45, 0
9, 372360, Note_on_c, 3, 50, 76
9, 372479, Note_on_c, 3, 50, 0
9, 373440, Note_on_c, 3, 50, 76
9, 373559, Note_on_c, 3, 50, 0
9, 374520, Note_on_c, 3, 50, 76
9, 374759, Note_on_c, 3, 50, 0
9, 379260, Note_on_c, 3, 45, 76
9, 379319, Note_on_c, 3, 45, 0
9, 379320, Note_on_c, 3, 50, 76
9, 379559, Note_on_c, 3, 50, 0
9, 380220, Note_on_c, 3, 50, 76
9, 380279, Note_on_c, 3, 50, 0
9, 380280, Note_on_c, 3, 50, 76
9, 380519, Note_on_c, 3, 50, 0
9, 381180, Note_on_c, 3, 45, 76
9, 381239, Note_on_c, 3, 45, 0
9, 381240, Note_on_c, 3, 45, 76
9, 381479, Note_on_c, 3, 45, 0
9, 382140, Note_on_c, 3, 50, 76
9, 382199, Note_on_c, 3, 50, 0
9, 382200, Note_on_c, 3, 50, 76
9, 382559, Note_on_c, 3, 50, 0
9, 382560, Note_on_c, 3, 50, 76
9, 382599, Note_on_c, 3, 50, 0
9, 382600, Note_on_c, 3, 50, 76
9, 382639, Note_on_c, 3, 50, 0
9, 382640, Note_on_c, 3, 50, 76
9, 382679, Note_on_c, 3, 50, 0
9, 382680, Note_on_c, 3, 45, 76
9, 382919, Note_on_c, 3, 45, 0
9, 382920, Note_on_c, 3, 45, 76
9, 383159, Note_on_c, 3, 45, 0
9, 383160, Note_on_c, 3, 50, 76
9, 383639, Note_on_c, 3, 50, 0
9, 392940, Note_on_c, 3, 45, 76
9, 392999, Note_on_c, 3, 45, 0
9, 393000, Note_on_c, 3, 50, 76
9, 393179, Note_on_c, 3, 50, 0
9, 393180, Note_on_c, 3, 50, 76
9, 393239, Note_on_c, 3, 50, 0
9, 393240, Note_on_c, 3, 45, 76
9, 393419, Note_on_c, 3, 45, 0
9, 393420, Note_on_c, 3, 45, 76
9, 393479, Note_on_c, 3, 45, 0
9, 393480, Note_on_c, 3, 45, 76
9, 393659, Note_on_c, 3, 45, 0
9, 393660, Note_on_c, 3, 45, 76
9, 393719, Note_on_c, 3, 45, 0
9, 393720, Note_on_c, 3, 50, 76
9, 394679, Note_on_c, 3, 50, 0
9, 394679, End_track
10, 0, Start_track
10, 0, Title_t, "Oboe I"
10, 0, MIDI_port, 0
10, 0, Program_c, 4, 68
10, 0, Control_c, 4, 10, 59
10, 0, Control_c, 4, 11, 127
10, 0, Control_c, 4, 7, 80
10, 540, Note_on_c, 4, 64, 76
10, 593, Note_on_c, 4, 64, 0
10, 600, Note_on_c, 4, 66, 76
10, 653, Note_on_c, 4, 66, 0
10, 660, Note_on_c, 4, 62, 76
10, 713, Note_on_c, 4, 62, 0
10, 720, Note_on_c, 4, 69, 76
10, 1493, Note_on_c, 4, 69, 0
10, 1500, Note_on_c, 4, 67, 76
10, 1553, Note_on_c, 4, 67, 0
10, 1560, Note_on_c, 4, 69, 76
10, 1613, Note_on_c, 4, 69, 0
10, 1620, Note_on_c, 4, 66, 76
10, 1673, Note_on_c, 4, 66, 0
10, 1680, Note_on_c, 4, 67, 76
10, 2453, Note_on_c, 4, 67, 0
10, 2460, Note_on_c, 4, 66, 76
10, 2513, Note_on_c, 4, 66, 0
10, 2520, Note_on_c, 4, 67, 76
10, 2573, Note_on_c, 4, 67, 0
10, 2580, Note_on_c, 4, 64, 76
10, 2633, Note_on_c, 4, 64, 0
10, 2640, Note_on_c, 4, 66, 76
10, 2693, Note_on_c, 4, 66, 0
10, 2700, Note_on_c, 4, 67, 76
10, 2753, Note_on_c, 4, 67, 0
10, 2760, Note_on_c, 4, 69, 76
10, 2813, Note_on_c, 4, 69, 0
10, 2820, Note_on_c, 4, 71, 76
10, 2873, Note_on_c, 4, 71, 0
10, 2880, Note_on_c, 4, 73, 76
10, 2933, Note_on_c, 4, 73, 0
10, 2940, Note_on_c, 4, 74, 76
10, 2993, Note_on_c, 4, 74, 0
10, 3000, Note_on_c, 4, 76, 76
10, 3053, Note_on_c, 4, 76, 0
10, 3060, Note_on_c, 4, 78, 76
10, 3113, Note_on_c, 4, 78, 0
10, 3120, Note_on_c, 4, 79, 76
10, 3469, Note_on_c, 4, 79, 0
10, 3480, Note_on_c, 4, 79, 76
10, 3589, Note_on_c, 4, 79, 0
10, 3600, Note_on_c, 4, 79, 76
10, 3773, Note_on_c, 4, 79, 0
10, 3780, Note_on_c, 4, 76, 76
10, 3833, Note_on_c, 4, 76, 0
10, 3840, Note_on_c, 4, 81, 76
10, 4013, Note_on_c, 4, 81, 0
10, 4020, Note_on_c, 4, 76, 76
10, 4073, Note_on_c, 4, 76, 0
10, 4080, Note_on_c, 4, 78, 76
10, 4309, Note_on_c, 4, 78, 0
10, 4320, Note_on_c, 4, 74, 76
10, 4549, Note_on_c, 4, 74, 0
10, 4560, Note_on_c, 4, 81, 76
10, 5093, Note_on_c, 4, 81, 0
10, 5100, Note_on_c, 4, 79, 76
10, 5153, Note_on_c, 4, 79, 0
10, 5160, Note_on_c, 4, 81, 76
10, 5213, Note_on_c, 4, 81, 0
10, 5220, Note_on_c, 4, 78, 76
10, 5273, Note_on_c, 4, 78, 0
10, 5280, Note_on_c, 4, 83, 76
10, 5453, Note_on_c, 4, 83, 0
10, 5460, Note_on_c, 4, 81, 76
10, 5513, Note_on_c, 4, 81, 0
10, 5520, Note_on_c, 4, 79, 76
10, 5869, Note_on_c, 4, 79, 0
10, 5880, Note_on_c, 4, 78, 76
10, 5989, Note_on_c, 4, 78, 0
10, 6000, Note_on_c, 4, 79, 76
10, 6293, Note_on_c, 4, 79, 0
10, 6300, Note_on_c, 4, 78, 76
10, 6353, Note_on_c, 4, 78, 0
10, 6360, Note_on_c, 4, 79, 76
10, 6413, Note_on_c, 4, 79, 0
10, 6420, Note_on_c, 4, 76, 76
10, 6473, Note_on_c, 4, 76, 0
10, 6480, Note_on_c, 4, 72, 76
10, 7013, Note_on_c, 4, 72, 0
10, 7020, Note_on_c, 4, 71, 76
10, 7073, Note_on_c, 4, 71, 0
10, 7080, Note_on_c, 4, 72, 76
10, 7133, Note_on_c, 4, 72, 0
10, 7140, Note_on_c, 4, 69, 76
10, 7193, Note_on_c, 4, 69, 0
10, 7200, Note_on_c, 4, 71, 76
10, 7373, Note_on_c, 4, 71, 0
10, 7380, Note_on_c, 4, 73, 76
10, 7433, Note_on_c, 4, 73, 0
10, 7440, Note_on_c, 4, 74, 76
10, 7789, Note_on_c, 4, 74, 0
10, 7800, Note_on_c, 4, 76, 76
10, 7909, Note_on_c, 4, 76, 0
10, 7920, Note_on_c, 4, 73, 76
10, 8093, Note_on_c, 4, 73, 0
10, 8100, Note_on_c, 4, 76, 76
10, 8153, Note_on_c, 4, 76, 0
10, 8160, Note_on_c, 4, 76, 76
10, 8333, Note_on_c, 4, 76, 0
10, 8340, Note_on_c, 4, 79, 76
10, 8393, Note_on_c, 4, 79, 0
10, 8400, Note_on_c, 4, 79, 76
10, 8693, Note_on_c, 4, 79, 0
10, 8700, Note_on_c, 4, 71, 76
10, 8753, Note_on_c, 4, 71, 0
10, 8760, Note_on_c, 4, 73, 76
10, 8813, Note_on_c, 4, 73, 0
10, 8820, Note_on_c, 4, 69, 76
10, 8873, Note_on_c, 4, 69, 0
10, 8880, Note_on_c, 4, 78, 76
10, 9653, Note_on_c, 4, 78, 0
10, 9660, Note_on_c, 4, 76, 76
10, 9713, Note_on_c, 4, 76, 0
10, 9720, Note_on_c, 4, 78, 76
10, 9773, Note_on_c, 4, 78, 0
10, 9780, Note_on_c, 4, 74, 76
10, 9833, Note_on_c, 4, 74, 0
10, 9840, Note_on_c, 4, 76, 76
10, 10433, Note_on_c, 4, 76, 0
10, 10440, Note_on_c, 4, 81, 76
10, 10493, Note_on_c, 4, 81, 0
10, 10500, Note_on_c, 4, 80, 76
10, 10553, Note_on_c, 4, 80, 0
10, 10560, Note_on_c, 4, 78, 76
10, 10613, Note_on_c, 4, 78, 0
10, 10620, Note_on_c, 4, 76, 76
10, 10673, Note_on_c, 4, 76, 0
10, 10680, Note_on_c, 4, 74, 76
10, 10733, Note_on_c, 4, 74, 0
10, 10740, Note_on_c, 4, 73, 76
10, 10793, Note_on_c, 4, 73, 0
10, 10800, Note_on_c, 4, 74, 76
10, 11149, Note_on_c, 4, 74, 0
10, 11160, Note_on_c, 4, 74, 76
10, 11269, Note_on_c, 4, 74, 0
10, 11280, Note_on_c, 4, 74, 76
10, 11453, Note_on_c, 4, 74, 0
10, 11460, Note_on_c, 4, 71, 76
10, 11513, Note_on_c, 4, 71, 0
10, 11520, Note_on_c, 4, 76, 76
10, 11693, Note_on_c, 4, 76, 0
10, 11700, Note_on_c, 4, 74, 76
10, 11753, Note_on_c, 4, 74, 0
10, 11760, Note_on_c, 4, 73, 76
10, 11989, Note_on_c, 4, 73, 0
10, 12000, Note_on_c, 4, 69, 76
10, 12229, Note_on_c, 4, 69, 0
10, 12240, Note_on_c, 4, 78, 76
10, 12773, Note_on_c, 4, 78, 0
10, 12780, Note_on_c, 4, 78, 76
10, 12833, Note_on_c, 4, 78, 0
10, 12840, Note_on_c, 4, 80, 76
10, 12893, Note_on_c, 4, 80, 0
10, 12900, Note_on_c, 4, 81, 76
10, 12953, Note_on_c, 4, 81, 0
10, 12960, Note_on_c, 4, 83, 76
10, 13013, Note_on_c, 4, 83, 0
10, 13020, Note_on_c, 4, 81, 76
10, 13073, Note_on_c, 4, 81, 0
10, 13080, Note_on_c, 4, 83, 76
10, 13133, Note_on_c, 4, 83, 0
10, 13140, Note_on_c, 4, 80, 76
10, 13193, Note_on_c, 4, 80, 0
10, 13200, Note_on_c, 4, 73, 76
10, 13373, Note_on_c, 4, 73, 0
10, 13380, Note_on_c, 4, 83, 76
10, 13433, Note_on_c, 4, 83, 0
10, 13440, Note_on_c, 4, 81, 76
10, 13613, Note_on_c, 4, 81, 0
10, 13620, Note_on_c, 4, 80, 76
10, 13673, Note_on_c, 4, 80, 0
10, 13680, Note_on_c, 4, 81, 76
10, 13973, Note_on_c, 4, 81, 0
10, 13980, Note_on_c, 4, 80, 76
10, 14033, Note_on_c, 4, 80, 0
10, 14040, Note_on_c, 4, 81, 76
10, 14093, Note_on_c, 4, 81, 0
10, 14100, Note_on_c, 4, 78, 76
10, 14153, Note_on_c, 4, 78, 0
10, 14160, Note_on_c, 4, 74, 76
10, 14693, Note_on_c, 4, 74, 0
10, 14700, Note_on_c, 4, 73, 76
10, 14753, Note_on_c, 4, 73, 0
10, 14760, Note_on_c, 4, 74, 76
10, 14813, Note_on_c, 4, 74, 0
10, 14820, Note_on_c, 4, 71, 76
10, 14873, Note_on_c, 4, 71, 0
10, 14880, Note_on_c, 4, 73, 76
10, 15053, Note_on_c, 4, 73, 0
10, 15060, Note_on_c, 4, 74, 76
10, 15113, Note_on_c, 4, 74, 0
10, 15120, Note_on_c, 4, 76, 76
10, 15293, Note_on_c, 4, 76, 0
10, 15300, Note_on_c, 4, 78, 76
10, 15353, Note_on_c, 4, 78, 0
10, 15360, Note_on_c, 4, 80, 76
10, 15533, Note_on_c, 4, 80, 0
10, 15540, Note_on_c, 4, 81, 76
10, 15593, Note_on_c, 4, 81, 0
10, 15600, Note_on_c, 4, 71, 76
10, 15893, Note_on_c, 4, 71, 0
10, 15900, Note_on_c, 4, 69, 76
10, 15953, Note_on_c, 4, 69, 0
10, 15960, Note_on_c, 4, 71, 76
10, 16013, Note_on_c, 4, 71, 0
10, 16020, Note_on_c, 4, 68, 76
10, 16073, Note_on_c, 4, 68, 0
10, 16080, Note_on_c, 4, 74, 76
10, 16373, Note_on_c, 4, 74, 0
10, 16380, Note_on_c, 4, 73, 76
10, 16433, Note_on_c, 4, 73, 0
10, 16440, Note_on_c, 4, 74, 76
10, 16493, Note_on_c, 4, 74, 0
10, 16500, Note_on_c, 4, 71, 76
10, 16553, Note_on_c, 4, 71, 0
10, 16560, Note_on_c, 4, 73, 76
10, 16853, Note_on_c, 4, 73, 0
10, 16860, Note_on_c, 4, 71, 76
10, 16913, Note_on_c, 4, 71, 0
10, 16920, Note_on_c, 4, 73, 76
10, 16973, Note_on_c, 4, 73, 0
10, 16980, Note_on_c, 4, 69, 76
10, 17033, Note_on_c, 4, 69, 0
10, 17040, Note_on_c, 4, 76, 76
10, 17333, Note_on_c, 4, 76, 0
10, 17340, Note_on_c, 4, 74, 76
10, 17393, Note_on_c, 4, 74, 0
10, 17400, Note_on_c, 4, 76, 76
10, 17453, Note_on_c, 4, 76, 0
10, 17460, Note_on_c, 4, 73, 76
10, 17513, Note_on_c, 4, 73, 0
10, 17520, Note_on_c, 4, 74, 76
10, 17813, Note_on_c, 4, 74, 0
10, 17820, Note_on_c, 4, 73, 76
10, 17873, Note_on_c, 4, 73, 0
10, 17880, Note_on_c, 4, 74, 76
10, 17933, Note_on_c, 4, 74, 0
10, 17940, Note_on_c, 4, 71, 76
10, 17993, Note_on_c, 4, 71, 0
10, 18000, Note_on_c, 4, 77, 76
10, 18293, Note_on_c, 4, 77, 0
10, 18300, Note_on_c, 4, 76, 76
10, 18353, Note_on_c, 4, 76, 0
10, 18360, Note_on_c, 4, 77, 76
10, 18413, Note_on_c, 4, 77, 0
10, 18420, Note_on_c, 4, 74, 76
10, 18473, Note_on_c, 4, 74, 0
10, 18480, Note_on_c, 4, 76, 76
10, 18773, Note_on_c, 4, 76, 0
10, 18780, Note_on_c, 4, 74, 76
10, 18833, Note_on_c, 4, 74, 0
10, 18840, Note_on_c, 4, 76, 76
10, 18893, Note_on_c, 4, 76, 0
10, 18900, Note_on_c, 4, 72, 76
10, 18953, Note_on_c, 4, 72, 0
10, 18960, Note_on_c, 4, 74, 76
10, 19253, Note_on_c, 4, 74, 0
10, 19260, Note_on_c, 4, 72, 76
10, 19313, Note_on_c, 4, 72, 0
10, 19320, Note_on_c, 4, 74, 76
10, 19373, Note_on_c, 4, 74, 0
10, 19380, Note_on_c, 4, 71, 76
10, 19433, Note_on_c, 4, 71, 0
10, 19440, Note_on_c, 4, 72, 76
10, 19733, Note_on_c, 4, 72, 0
10, 19740, Note_on_c, 4, 71, 76
10, 19793, Note_on_c, 4, 71, 0
10, 19800, Note_on_c, 4, 72, 76
10, 19853, Note_on_c, 4, 72, 0
10, 19860, Note_on_c, 4, 69, 76
10, 19913, Note_on_c, 4, 69, 0
10, 19920, Note_on_c, 4, 79, 76
10, 20453, Note_on_c, 4, 79, 0
10, 20460, Note_on_c, 4, 78, 76
10, 20513, Note_on_c, 4, 78, 0
10, 20520, Note_on_c, 4, 79, 76
10, 20573, Note_on_c, 4, 79, 0
10, 20580, Note_on_c, 4, 76, 76
10, 20633, Note_on_c, 4, 76, 0
10, 20640, Note_on_c, 4, 78, 76
10, 20813, Note_on_c, 4, 78, 0
10, 20820, Note_on_c, 4, 80, 76
10, 20873, Note_on_c, 4, 80, 0
10, 20880, Note_on_c, 4, 81, 76
10, 21229, Note_on_c, 4, 81, 0
10, 21240, Note_on_c, 4, 83, 76
10, 21349, Note_on_c, 4, 83, 0
10, 21360, Note_on_c, 4, 74, 76
10, 21589, Note_on_c, 4, 74, 0
10, 21600, Note_on_c, 4, 73, 76
10, 21773, Note_on_c, 4, 73, 0
10, 21780, Note_on_c, 4, 71, 76
10, 21833, Note_on_c, 4, 71, 0
10, 21840, Note_on_c, 4, 71, 76
10, 21854, Note_on_c, 4, 71, 0
10, 21855, Note_on_c, 4, 73, 76
10, 21869, Note_on_c, 4, 73, 0
10, 21870, Note_on_c, 4, 71, 76
10, 21884, Note_on_c, 4, 71, 0
10, 21885, Note_on_c, 4, 73, 76
10, 21899, Note_on_c, 4, 73, 0
10, 21900, Note_on_c, 4, 71, 76
10, 21914, Note_on_c, 4, 71, 0
10, 21915, Note_on_c, 4, 73, 76
10, 21929, Note_on_c, 4, 73, 0
10, 21930, Note_on_c, 4, 71, 76
10, 21944, Note_on_c, 4, 71, 0
10, 21945, Note_on_c, 4, 73, 76
10, 21959, Note_on_c, 4, 73, 0
10, 21960, Note_on_c, 4, 71, 76
10, 21974, Note_on_c, 4, 71, 0
10, 21975, Note_on_c, 4, 73, 76
10, 21989, Note_on_c, 4, 73, 0
10, 21990, Note_on_c, 4, 71, 76
10, 22004, Note_on_c, 4, 71, 0
10, 22005, Note_on_c, 4, 73, 76
10, 22019, Note_on_c, 4, 73, 0
10, 22020, Note_on_c, 4, 71, 76
10, 22034, Note_on_c, 4, 71, 0
10, 22035, Note_on_c, 4, 73, 76
10, 22049, Note_on_c, 4, 73, 0
10, 22050, Note_on_c, 4, 71, 76
10, 22064, Note_on_c, 4, 71, 0
10, 22065, Note_on_c, 4, 73, 76
10, 22079, Note_on_c, 4, 73, 0
10, 22080, Note_on_c, 4, 71, 76
10, 22094, Note_on_c, 4, 71, 0
10, 22095, Note_on_c, 4, 73, 76
10, 22109, Note_on_c, 4, 73, 0
10, 22110, Note_on_c, 4, 71, 76
10, 22124, Note_on_c, 4, 71, 0
10, 22125, Note_on_c, 4, 73, 76
10, 22139, Note_on_c, 4, 73, 0
10, 22140, Note_on_c, 4, 71, 76
10, 22154, Note_on_c, 4, 71, 0
10, 22155, Note_on_c, 4, 73, 76
10, 22169, Note_on_c, 4, 73, 0
10, 22170, Note_on_c, 4, 69, 76
10, 22184, Note_on_c, 4, 69, 0
10, 22185, Note_on_c, 4, 71, 76
10, 22199, Note_on_c, 4, 71, 0
10, 22200, Note_on_c, 4, 69, 76
10, 22309, Note_on_c, 4, 69, 0
10, 22320, Note_on_c, 4, 69, 76
10, 23039, Note_on_c, 4, 69, 0
10, 23580, Note_on_c, 4, 64, 76
10, 23633, Note_on_c, 4, 64, 0
10, 23640, Note_on_c, 4, 66, 76
10, 23693, Note_on_c, 4, 66, 0
10, 23700, Note_on_c, 4, 62, 76
10, 23753, Note_on_c, 4, 62, 0
10, 23760, Note_on_c, 4, 69, 76
10, 24533, Note_on_c, 4, 69, 0
10, 24540, Note_on_c, 4, 67, 76
10, 24593, Note_on_c, 4, 67, 0
10, 24600, Note_on_c, 4, 69, 76
10, 24653, Note_on_c, 4, 69, 0
10, 24660, Note_on_c, 4, 66, 76
10, 24713, Note_on_c, 4, 66, 0
10, 24720, Note_on_c, 4, 67, 76
10, 25493, Note_on_c, 4, 67, 0
10, 25500, Note_on_c, 4, 66, 76
10, 25553, Note_on_c, 4, 66, 0
10, 25560, Note_on_c, 4, 67, 76
10, 25613, Note_on_c, 4, 67, 0
10, 25620, Note_on_c, 4, 64, 76
10, 25673, Note_on_c, 4, 64, 0
10, 25680, Note_on_c, 4, 66, 76
10, 25733, Note_on_c, 4, 66, 0
10, 25740, Note_on_c, 4, 67, 76
10, 25793, Note_on_c, 4, 67, 0
10, 25800, Note_on_c, 4, 69, 76
10, 25853, Note_on_c, 4, 69, 0
10, 25860, Note_on_c, 4, 71, 76
10, 25913, Note_on_c, 4, 71, 0
10, 25920, Note_on_c, 4, 73, 76
10, 25973, Note_on_c, 4, 73, 0
10, 25980, Note_on_c, 4, 74, 76
10, 26033, Note_on_c, 4, 74, 0
10, 26040, Note_on_c, 4, 76, 76
10, 26093, Note_on_c, 4, 76, 0
10, 26100, Note_on_c, 4, 78, 76
10, 26153, Note_on_c, 4, 78, 0
10, 26160, Note_on_c, 4, 79, 76
10, 26509, Note_on_c, 4, 79, 0
10, 26520, Note_on_c, 4, 79, 76
10, 26629, Note_on_c, 4, 79, 0
10, 26640, Note_on_c, 4, 79, 76
10, 26813, Note_on_c, 4, 79, 0
10, 26820, Note_on_c, 4, 76, 76
10, 26873, Note_on_c, 4, 76, 0
10, 26880, Note_on_c, 4, 81, 76
10, 27053, Note_on_c, 4, 81, 0
10, 27060, Note_on_c, 4, 76, 76
10, 27113, Note_on_c, 4, 76, 0
10, 27120, Note_on_c, 4, 78, 76
10, 27349, Note_on_c, 4, 78, 0
10, 27360, Note_on_c, 4, 74, 76
10, 27589, Note_on_c, 4, 74, 0
10, 27600, Note_on_c, 4, 81, 76
10, 28133, Note_on_c, 4, 81, 0
10, 28140, Note_on_c, 4, 79, 76
10, 28193, Note_on_c, 4, 79, 0
10, 28200, Note_on_c, 4, 81, 76
10, 28253, Note_on_c, 4, 81, 0
10, 28260, Note_on_c, 4, 78, 76
10, 28313, Note_on_c, 4, 78, 0
10, 28320, Note_on_c, 4, 83, 76
10, 28493, Note_on_c, 4, 83, 0
10, 28500, Note_on_c, 4, 81, 76
10, 28553, Note_on_c, 4, 81, 0
10, 28560, Note_on_c, 4, 79, 76
10, 28909, Note_on_c, 4, 79, 0
10, 28920, Note_on_c, 4, 78, 76
10, 29029, Note_on_c, 4, 78, 0
10, 29040, Note_on_c, 4, 79, 76
10, 29333, Note_on_c, 4, 79, 0
10, 29340, Note_on_c, 4, 78, 76
10, 29393, Note_on_c, 4, 78, 0
10, 29400, Note_on_c, 4, 79, 76
10, 29453, Note_on_c, 4, 79, 0
10, 29460, Note_on_c, 4, 76, 76
10, 29513, Note_on_c, 4, 76, 0
10, 29520, Note_on_c, 4, 72, 76
10, 30053, Note_on_c, 4, 72, 0
10, 30060, Note_on_c, 4, 71, 76
10, 30113, Note_on_c, 4, 71, 0
10, 30120, Note_on_c, 4, 72, 76
10, 30173, Note_on_c, 4, 72, 0
10, 30180, Note_on_c, 4, 69, 76
10, 30233, Note_on_c, 4, 69, 0
10, 30240, Note_on_c, 4, 71, 76
10, 30413, Note_on_c, 4, 71, 0
10, 30420, Note_on_c, 4, 73, 76
10, 30473, Note_on_c, 4, 73, 0
10, 30480, Note_on_c, 4, 74, 76
10, 30829, Note_on_c, 4, 74, 0
10, 30840, Note_on_c, 4, 76, 76
10, 30949, Note_on_c, 4, 76, 0
10, 30960, Note_on_c, 4, 73, 76
10, 31133, Note_on_c, 4, 73, 0
10, 31140, Note_on_c, 4, 76, 76
10, 31193, Note_on_c, 4, 76, 0
10, 31200, Note_on_c, 4, 76, 76
10, 31373, Note_on_c, 4, 76, 0
10, 31380, Note_on_c, 4, 79, 76
10, 31433, Note_on_c, 4, 79, 0
10, 31440, Note_on_c, 4, 79, 76
10, 31733, Note_on_c, 4, 79, 0
10, 31740, Note_on_c, 4, 71, 76
10, 31793, Note_on_c, 4, 71, 0
10, 31800, Note_on_c, 4, 73, 76
10, 31853, Note_on_c, 4, 73, 0
10, 31860, Note_on_c, 4, 69, 76
10, 31913, Note_on_c, 4, 69, 0
10, 31920, Note_on_c, 4, 78, 76
10, 32693, Note_on_c, 4, 78, 0
10, 32700, Note_on_c, 4, 76, 76
10, 32753, Note_on_c, 4, 76, 0
10, 32760, Note_on_c, 4, 78, 76
10, 32813, Note_on_c, 4, 78, 0
10, 32820, Note_on_c, 4, 74, 76
10, 32873, Note_on_c, 4, 74, 0
10, 32880, Note_on_c, 4, 76, 76
10, 33473, Note_on_c, 4, 76, 0
10, 33480, Note_on_c, 4, 81, 76
10, 33533, Note_on_c, 4, 81, 0
10, 33540, Note_on_c, 4, 80, 76
10, 33593, Note_on_c, 4, 80, 0
10, 33600, Note_on_c, 4, 78, 76
10, 33653, Note_on_c, 4, 78, 0
10, 33660, Note_on_c, 4, 76, 76
10, 33713, Note_on_c, 4, 76, 0
10, 33720, Note_on_c, 4, 74, 76
10, 33773, Note_on_c, 4, 74, 0
10, 33780, Note_on_c, 4, 73, 76
10, 33833, Note_on_c, 4, 73, 0
10, 33840, Note_on_c, 4, 74, 76
10, 34189, Note_on_c, 4, 74, 0
10, 34200, Note_on_c, 4, 74, 76
10, 34309, Note_on_c, 4, 74, 0
10, 34320, Note_on_c, 4, 74, 76
10, 34493, Note_on_c, 4, 74, 0
10, 34500, Note_on_c, 4, 71, 76
10, 34553, Note_on_c, 4, 71, 0
10, 34560, Note_on_c, 4, 76, 76
10, 34733, Note_on_c, 4, 76, 0
10, 34740, Note_on_c, 4, 74, 76
10, 34793, Note_on_c, 4, 74, 0
10, 34800, Note_on_c, 4, 73, 76
10, 35029, Note_on_c, 4, 73, 0
10, 35040, Note_on_c, 4, 69, 76
10, 35269, Note_on_c, 4, 69, 0
10, 35280, Note_on_c, 4, 78, 76
10, 35813, Note_on_c, 4, 78, 0
10, 35820, Note_on_c, 4, 78, 76
10, 35873, Note_on_c, 4, 78, 0
10, 35880, Note_on_c, 4, 80, 76
10, 35933, Note_on_c, 4, 80, 0
10, 35940, Note_on_c, 4, 81, 76
10, 35993, Note_on_c, 4, 81, 0
10, 36000, Note_on_c, 4, 83, 76
10, 36053, Note_on_c, 4, 83, 0
10, 36060, Note_on_c, 4, 81, 76
10, 36113, Note_on_c, 4, 81, 0
10, 36120, Note_on_c, 4, 83, 76
10, 36173, Note_on_c, 4, 83, 0
10, 36180, Note_on_c, 4, 80, 76
10, 36233, Note_on_c, 4, 80, 0
10, 36240, Note_on_c, 4, 73, 76
10, 36413, Note_on_c, 4, 73, 0
10, 36420, Note_on_c, 4, 83, 76
10, 36473, Note_on_c, 4, 83, 0
10, 36480, Note_on_c, 4, 81, 76
10, 36653, Note_on_c, 4, 81, 0
10, 36660, Note_on_c, 4, 80, 76
10, 36713, Note_on_c, 4, 80, 0
10, 36720, Note_on_c, 4, 81, 76
10, 37013, Note_on_c, 4, 81, 0
10, 37020, Note_on_c, 4, 80, 76
10, 37073, Note_on_c, 4, 80, 0
10, 37080, Note_on_c, 4, 81, 76
10, 37133, Note_on_c, 4, 81, 0
10, 37140, Note_on_c, 4, 78, 76
10, 37193, Note_on_c, 4, 78, 0
10, 37200, Note_on_c, 4, 74, 76
10, 37733, Note_on_c, 4, 74, 0
10, 37740, Note_on_c, 4, 73, 76
10, 37793, Note_on_c, 4, 73, 0
10, 37800, Note_on_c, 4, 74, 76
10, 37853, Note_on_c, 4, 74, 0
10, 37860, Note_on_c, 4, 71, 76
10, 37913, Note_on_c, 4, 71, 0
10, 37920, Note_on_c, 4, 73, 76
10, 38093, Note_on_c, 4, 73, 0
10, 38100, Note_on_c, 4, 74, 76
10, 38153, Note_on_c, 4, 74, 0
10, 38160, Note_on_c, 4, 76, 76
10, 38333, Note_on_c, 4, 76, 0
10, 38340, Note_on_c, 4, 78, 76
10, 38393, Note_on_c, 4, 78, 0
10, 38400, Note_on_c, 4, 80, 76
10, 38573, Note_on_c, 4, 80, 0
10, 38580, Note_on_c, 4, 81, 76
10, 38633, Note_on_c, 4, 81, 0
10, 38640, Note_on_c, 4, 71, 76
10, 38933, Note_on_c, 4, 71, 0
10, 38940, Note_on_c, 4, 69, 76
10, 38993, Note_on_c, 4, 69, 0
10, 39000, Note_on_c, 4, 71, 76
10, 39053, Note_on_c, 4, 71, 0
10, 39060, Note_on_c, 4, 68, 76
10, 39113, Note_on_c, 4, 68, 0
10, 39120, Note_on_c, 4, 74, 76
10, 39413, Note_on_c, 4, 74, 0
10, 39420, Note_on_c, 4, 73, 76
10, 39473, Note_on_c, 4, 73, 0
10, 39480, Note_on_c, 4, 74, 76
10, 39533, Note_on_c, 4, 74, 0
10, 39540, Note_on_c, 4, 71, 76
10, 39593, Note_on_c, 4, 71, 0
10, 39600, Note_on_c, 4, 73, 76
10, 39893, Note_on_c, 4, 73, 0
10, 39900, Note_on_c, 4, 71, 76
10, 39953, Note_on_c, 4, 71, 0
10, 39960, Note_on_c, 4, 73, 76
10, 40013, Note_on_c, 4, 73, 0
10, 40020, Note_on_c, 4, 69, 76
10, 40073, Note_on_c, 4, 69, 0
10, 40080, Note_on_c, 4, 76, 76
10, 40373, Note_on_c, 4, 76, 0
10, 40380, Note_on_c, 4, 74, 76
10, 40433, Note_on_c, 4, 74, 0
10, 40440, Note_on_c, 4, 76, 76
10, 40493, Note_on_c, 4, 76, 0
10, 40500, Note_on_c, 4, 73, 76
10, 40553, Note_on_c, 4, 73, 0
10, 40560, Note_on_c, 4, 74, 76
10, 40853, Note_on_c, 4, 74, 0
10, 40860, Note_on_c, 4, 73, 76
10, 40913, Note_on_c, 4, 73, 0
10, 40920, Note_on_c, 4, 74, 76
10, 40973, Note_on_c, 4, 74, 0
10, 40980, Note_on_c, 4, 71, 76
10, 41033, Note_on_c, 4, 71, 0
10, 41040, Note_on_c, 4, 77, 76
10, 41333, Note_on_c, 4, 77, 0
10, 41340, Note_on_c, 4, 76, 76
10, 41393, Note_on_c, 4, 76, 0
10, 41400, Note_on_c, 4, 77, 76
10, 41453, Note_on_c, 4, 77, 0
10, 41460, Note_on_c, 4, 74, 76
10, 41513, Note_on_c, 4, 74, 0
10, 41520, Note_on_c, 4, 76, 76
10, 41813, Note_on_c, 4, 76, 0
10, 41820, Note_on_c, 4, 74, 76
10, 41873, Note_on_c, 4, 74, 0
10, 41880, Note_on_c, 4, 76, 76
10, 41933, Note_on_c, 4, 76, 0
10, 41940, Note_on_c, 4, 72, 76
10, 41993, Note_on_c, 4, 72, 0
10, 42000, Note_on_c, 4, 74, 76
10, 42293, Note_on_c, 4, 74, 0
10, 42300, Note_on_c, 4, 72, 76
10, 42353, Note_on_c, 4, 72, 0
10, 42360, Note_on_c, 4, 74, 76
10, 42413, Note_on_c, 4, 74, 0
10, 42420, Note_on_c, 4, 71, 76
10, 42473, Note_on_c, 4, 71, 0
10, 42480, Note_on_c, 4, 72, 76
10, 42773, Note_on_c, 4, 72, 0
10, 42780, Note_on_c, 4, 71, 76
10, 42833, Note_on_c, 4, 71, 0
10, 42840, Note_on_c, 4, 72, 76
10, 42893, Note_on_c, 4, 72, 0
10, 42900, Note_on_c, 4, 69, 76
10, 42953, Note_on_c, 4, 69, 0
10, 42960, Note_on_c, 4, 79, 76
10, 43493, Note_on_c, 4, 79, 0
10, 43500, Note_on_c, 4, 78, 76
10, 43553, Note_on_c, 4, 78, 0
10, 43560, Note_on_c, 4, 79, 76
10, 43613, Note_on_c, 4, 79, 0
10, 43620, Note_on_c, 4, 76, 76
10, 43673, Note_on_c, 4, 76, 0
10, 43680, Note_on_c, 4, 78, 76
10, 43853, Note_on_c, 4, 78, 0
10, 43860, Note_on_c, 4, 80, 76
10, 43913, Note_on_c, 4, 80, 0
10, 43920, Note_on_c, 4, 81, 76
10, 44269, Note_on_c, 4, 81, 0
10, 44280, Note_on_c, 4, 83, 76
10, 44389, Note_on_c, 4, 83, 0
10, 44400, Note_on_c, 4, 74, 76
10, 44629, Note_on_c, 4, 74, 0
10, 44640, Note_on_c, 4, 73, 76
10, 44813, Note_on_c, 4, 73, 0
10, 44820, Note_on_c, 4, 71, 76
10, 44873, Note_on_c, 4, 71, 0
10, 44880, Note_on_c, 4, 71, 76
10, 44894, Note_on_c, 4, 71, 0
10, 44895, Note_on_c, 4, 73, 76
10, 44909, Note_on_c, 4, 73, 0
10, 44910, Note_on_c, 4, 71, 76
10, 44924, Note_on_c, 4, 71, 0
10, 44925, Note_on_c, 4, 73, 76
10, 44939, Note_on_c, 4, 73, 0
10, 44940, Note_on_c, 4, 71, 76
10, 44954, Note_on_c, 4, 71, 0
10, 44955, Note_on_c, 4, 73, 76
10, 44969, Note_on_c, 4, 73, 0
10, 44970, Note_on_c, 4, 71, 76
10, 44984, Note_on_c, 4, 71, 0
10, 44985, Note_on_c, 4, 73, 76
10, 44999, Note_on_c, 4, 73, 0
10, 45000, Note_on_c, 4, 71, 76
10, 45014, Note_on_c, 4, 71, 0
10, 45015, Note_on_c, 4, 73, 76
10, 45029, Note_on_c, 4, 73, 0
10, 45030, Note_on_c, 4, 71, 76
10, 45044, Note_on_c, 4, 71, 0
10, 45045, Note_on_c, 4, 73, 76
10, 45059, Note_on_c, 4, 73, 0
10, 45060, Note_on_c, 4, 71, 76
10, 45074, Note_on_c, 4, 71, 0
10, 45075, Note_on_c, 4, 73, 76
10, 45089, Note_on_c, 4, 73, 0
10, 45090, Note_on_c, 4, 71, 76
10, 45104, Note_on_c, 4, 71, 0
10, 45105, Note_on_c, 4, 73, 76
10, 45119, Note_on_c, 4, 73, 0
10, 45120, Note_on_c, 4, 71, 76
10, 45134, Note_on_c, 4, 71, 0
10, 45135, Note_on_c, 4, 73, 76
10, 45149, Note_on_c, 4, 73, 0
10, 45150, Note_on_c, 4, 71, 76
10, 45164, Note_on_c, 4, 71, 0
10, 45165, Note_on_c, 4, 73, 76
10, 45179, Note_on_c, 4, 73, 0
10, 45180, Note_on_c, 4, 71, 76
10, 45194, Note_on_c, 4, 71, 0
10, 45195, Note_on_c, 4, 73, 76
10, 45209, Note_on_c, 4, 73, 0
10, 45210, Note_on_c, 4, 69, 76
10, 45224, Note_on_c, 4, 69, 0
10, 45225, Note_on_c, 4, 71, 76
10, 45239, Note_on_c, 4, 71, 0
10, 45240, Note_on_c, 4, 69, 76
10, 45349, Note_on_c, 4, 69, 0
10, 45360, Note_on_c, 4, 69, 76
10, 45599, Note_on_c, 4, 69, 0
10, 49920, Note_on_c, 4, 81, 76
10, 50019, Note_on_c, 4, 81, 0
10, 50040, Note_on_c, 4, 81, 76
10, 50159, Note_on_c, 4, 81, 0
10, 50160, Note_on_c, 4, 83, 76
10, 50259, Note_on_c, 4, 83, 0
10, 50280, Note_on_c, 4, 79, 76
10, 50379, Note_on_c, 4, 79, 0
10, 50400, Note_on_c, 4, 79, 76
10, 50519, Note_on_c, 4, 79, 0
10, 50520, Note_on_c, 4, 81, 76
10, 50619, Note_on_c, 4, 81, 0
10, 50640, Note_on_c, 4, 78, 76
10, 50739, Note_on_c, 4, 78, 0
10, 50760, Note_on_c, 4, 78, 76
10, 50879, Note_on_c, 4, 78, 0
10, 50880, Note_on_c, 4, 79, 76
10, 50999, Note_on_c, 4, 79, 0
10, 51000, Note_on_c, 4, 81, 76
10, 51099, Note_on_c, 4, 81, 0
10, 51120, Note_on_c, 4, 83, 76
10, 51239, Note_on_c, 4, 83, 0
10, 51240, Note_on_c, 4, 84, 76
10, 51339, Note_on_c, 4, 84, 0
10, 51360, Note_on_c, 4, 81, 76
10, 51459, Note_on_c, 4, 81, 0
10, 51480, Note_on_c, 4, 81, 76
10, 51599, Note_on_c, 4, 81, 0
10, 51600, Note_on_c, 4, 83, 76
10, 51699, Note_on_c, 4, 83, 0
10, 51720, Note_on_c, 4, 79, 76
10, 51819, Note_on_c, 4, 79, 0
10, 51840, Note_on_c, 4, 79, 76
10, 52094, Note_on_c, 4, 79, 0
10, 52110, Note_on_c, 4, 79, 76
10, 52184, Note_on_c, 4, 79, 0
10, 52200, Note_on_c, 4, 79, 76
10, 52454, Note_on_c, 4, 79, 0
10, 52470, Note_on_c, 4, 79, 76
10, 52544, Note_on_c, 4, 79, 0
10, 52560, Note_on_c, 4, 79, 76
10, 52814, Note_on_c, 4, 79, 0
10, 52830, Note_on_c, 4, 79, 76
10, 52904, Note_on_c, 4, 79, 0
10, 52920, Note_on_c, 4, 79, 76
10, 53039, Note_on_c, 4, 79, 0
10, 53040, Note_on_c, 4, 76, 76
10, 53159, Note_on_c, 4, 76, 0
10, 53160, Note_on_c, 4, 78, 76
10, 53259, Note_on_c, 4, 78, 0
10, 53280, Note_on_c, 4, 79, 76
10, 53399, Note_on_c, 4, 79, 0
10, 53400, Note_on_c, 4, 81, 76
10, 53499, Note_on_c, 4, 81, 0
10, 53520, Note_on_c, 4, 78, 76
10, 53619, Note_on_c, 4, 78, 0
10, 53640, Note_on_c, 4, 79, 76
10, 53759, Note_on_c, 4, 79, 0
10, 53760, Note_on_c, 4, 78, 76
10, 53879, Note_on_c, 4, 78, 0
10, 53880, Note_on_c, 4, 76, 76
10, 53979, Note_on_c, 4, 76, 0
10, 54000, Note_on_c, 4, 78, 76
10, 54119, Note_on_c, 4, 78, 0
10, 54120, Note_on_c, 4, 74, 76
10, 54239, Note_on_c, 4, 74, 0
10, 54240, Note_on_c, 4, 76, 76
10, 54339, Note_on_c, 4, 76, 0
10, 54360, Note_on_c, 4, 78, 76
10, 54479, Note_on_c, 4, 78, 0
10, 54480, Note_on_c, 4, 79, 76
10, 54579, Note_on_c, 4, 79, 0
10, 54600, Note_on_c, 4, 76, 76
10, 54699, Note_on_c, 4, 76, 0
10, 54720, Note_on_c, 4, 76, 76
10, 54839, Note_on_c, 4, 76, 0
10, 54840, Note_on_c, 4, 78, 76
10, 54939, Note_on_c, 4, 78, 0
10, 54960, Note_on_c, 4, 74, 76
10, 55059, Note_on_c, 4, 74, 0
10, 55080, Note_on_c, 4, 74, 76
10, 55334, Note_on_c, 4, 74, 0
10, 55350, Note_on_c, 4, 74, 76
10, 55424, Note_on_c, 4, 74, 0
10, 55440, Note_on_c, 4, 74, 76
10, 55694, Note_on_c, 4, 74, 0
10, 55710, Note_on_c, 4, 74, 76
10, 55784, Note_on_c, 4, 74, 0
10, 55800, Note_on_c, 4, 74, 76
10, 56054, Note_on_c, 4, 74, 0
10, 56070, Note_on_c, 4, 74, 76
10, 56144, Note_on_c, 4, 74, 0
10, 56160, Note_on_c, 4, 74, 76
10, 56279, Note_on_c, 4, 74, 0
10, 56280, Note_on_c, 4, 71, 76
10, 56399, Note_on_c, 4, 71, 0
10, 56400, Note_on_c, 4, 73, 76
10, 56499, Note_on_c, 4, 73, 0
10, 56520, Note_on_c, 4, 74, 76
10, 56639, Note_on_c, 4, 74, 0
10, 56640, Note_on_c, 4, 83, 76
10, 56739, Note_on_c, 4, 83, 0
10, 56760, Note_on_c, 4, 73, 76
10, 56859, Note_on_c, 4, 73, 0
10, 56880, Note_on_c, 4, 74, 76
10, 56999, Note_on_c, 4, 74, 0
10, 57000, Note_on_c, 4, 73, 76
10, 57119, Note_on_c, 4, 73, 0
10, 57120, Note_on_c, 4, 71, 76
10, 57219, Note_on_c, 4, 71, 0
10, 57240, Note_on_c, 4, 73, 76
10, 57359, Note_on_c, 4, 73, 0
10, 57360, Note_on_c, 4, 69, 76
10, 57479, Note_on_c, 4, 69, 0
10, 57480, Note_on_c, 4, 71, 76
10, 57579, Note_on_c, 4, 71, 0
10, 57600, Note_on_c, 4, 72, 76
10, 57719, Note_on_c, 4, 72, 0
10, 57720, Note_on_c, 4, 81, 76
10, 57819, Note_on_c, 4, 81, 0
10, 57840, Note_on_c, 4, 71, 76
10, 57939, Note_on_c, 4, 71, 0
10, 57960, Note_on_c, 4, 72, 76
10, 58079, Note_on_c, 4, 72, 0
10, 58080, Note_on_c, 4, 71, 76
10, 58199, Note_on_c, 4, 71, 0
10, 58200, Note_on_c, 4, 69, 76
10, 58299, Note_on_c, 4, 69, 0
10, 58320, Note_on_c, 4, 71, 76
10, 58574, Note_on_c, 4, 71, 0
10, 58590, Note_on_c, 4, 83, 76
10, 58664, Note_on_c, 4, 83, 0
10, 58680, Note_on_c, 4, 83, 76
10, 58799, Note_on_c, 4, 83, 0
10, 58800, Note_on_c, 4, 84, 76
10, 58899, Note_on_c, 4, 84, 0
10, 58920, Note_on_c, 4, 81, 76
10, 59019, Note_on_c, 4, 81, 0
10, 59040, Note_on_c, 4, 81, 76
10, 59159, Note_on_c, 4, 81, 0
10, 59160, Note_on_c, 4, 83, 76
10, 59259, Note_on_c, 4, 83, 0
10, 59280, Note_on_c, 4, 79, 76
10, 59379, Note_on_c, 4, 79, 0
10, 59400, Note_on_c, 4, 79, 76
10, 59519, Note_on_c, 4, 79, 0
10, 59520, Note_on_c, 4, 76, 76
10, 59639, Note_on_c, 4, 76, 0
10, 59640, Note_on_c, 4, 78, 76
10, 59739, Note_on_c, 4, 78, 0
10, 59760, Note_on_c, 4, 80, 76
10, 59879, Note_on_c, 4, 80, 0
10, 59880, Note_on_c, 4, 81, 76
10, 59979, Note_on_c, 4, 81, 0
10, 60000, Note_on_c, 4, 83, 76
10, 60099, Note_on_c, 4, 83, 0
10, 60120, Note_on_c, 4, 76, 76
10, 60374, Note_on_c, 4, 76, 0
10, 60390, Note_on_c, 4, 80, 76
10, 60464, Note_on_c, 4, 80, 0
10, 60480, Note_on_c, 4, 69, 76
10, 60599, Note_on_c, 4, 69, 0
10, 60600, Note_on_c, 4, 73, 76
10, 60719, Note_on_c, 4, 73, 0
10, 60720, Note_on_c, 4, 76, 76
10, 60819, Note_on_c, 4, 76, 0
10, 60840, Note_on_c, 4, 81, 76
10, 60959, Note_on_c, 4, 81, 0
10, 60960, Note_on_c, 4, 83, 76
10, 61059, Note_on_c, 4, 83, 0
10, 61080, Note_on_c, 4, 79, 76
10, 61179, Note_on_c, 4, 79, 0
10, 61200, Note_on_c, 4, 79, 76
10, 61319, Note_on_c, 4, 79, 0
10, 61320, Note_on_c, 4, 81, 76
10, 61419, Note_on_c, 4, 81, 0
10, 61440, Note_on_c, 4, 78, 76
10, 61539, Note_on_c, 4, 78, 0
10, 61560, Note_on_c, 4, 78, 76
10, 61679, Note_on_c, 4, 78, 0
10, 61680, Note_on_c, 4, 74, 76
10, 61799, Note_on_c, 4, 74, 0
10, 61800, Note_on_c, 4, 76, 76
10, 61899, Note_on_c, 4, 76, 0
10, 61920, Note_on_c, 4, 78, 76
10, 62039, Note_on_c, 4, 78, 0
10, 62040, Note_on_c, 4, 79, 76
10, 62139, Note_on_c, 4, 79, 0
10, 62160, Note_on_c, 4, 81, 76
10, 62259, Note_on_c, 4, 81, 0
10, 62280, Note_on_c, 4, 74, 76
10, 62534, Note_on_c, 4, 74, 0
10, 62550, Note_on_c, 4, 78, 76
10, 62624, Note_on_c, 4, 78, 0
10, 62640, Note_on_c, 4, 67, 76
10, 62759, Note_on_c, 4, 67, 0
10, 62760, Note_on_c, 4, 71, 76
10, 62879, Note_on_c, 4, 71, 0
10, 62880, Note_on_c, 4, 74, 76
10, 62979, Note_on_c, 4, 74, 0
10, 63000, Note_on_c, 4, 79, 76
10, 63119, Note_on_c, 4, 79, 0
10, 63120, Note_on_c, 4, 81, 76
10, 63219, Note_on_c, 4, 81, 0
10, 63240, Note_on_c, 4, 78, 76
10, 63339, Note_on_c, 4, 78, 0
10, 63360, Note_on_c, 4, 78, 76
10, 63479, Note_on_c, 4, 78, 0
10, 63480, Note_on_c, 4, 79, 76
10, 63579, Note_on_c, 4, 79, 0
10, 63600, Note_on_c, 4, 76, 76
10, 63699, Note_on_c, 4, 76, 0
10, 63720, Note_on_c, 4, 76, 76
10, 63839, Note_on_c, 4, 76, 0
10, 63840, Note_on_c, 4, 78, 76
10, 63959, Note_on_c, 4, 78, 0
10, 63960, Note_on_c, 4, 79, 76
10, 64059, Note_on_c, 4, 79, 0
10, 64080, Note_on_c, 4, 81, 76
10, 64199, Note_on_c, 4, 81, 0
10, 64200, Note_on_c, 4, 83, 76
10, 64299, Note_on_c, 4, 83, 0
10, 64320, Note_on_c, 4, 79, 76
10, 64419, Note_on_c, 4, 79, 0
10, 64440, Note_on_c, 4, 79, 76
10, 64559, Note_on_c, 4, 79, 0
10, 64560, Note_on_c, 4, 81, 76
10, 64659, Note_on_c, 4, 81, 0
10, 64680, Note_on_c, 4, 78, 76
10, 64779, Note_on_c, 4, 78, 0
10, 64800, Note_on_c, 4, 78, 76
10, 64919, Note_on_c, 4, 78, 0
10, 64920, Note_on_c, 4, 79, 76
10, 65039, Note_on_c, 4, 79, 0
10, 65040, Note_on_c, 4, 81, 76
10, 65139, Note_on_c, 4, 81, 0
10, 65160, Note_on_c, 4, 83, 76
10, 65279, Note_on_c, 4, 83, 0
10, 65280, Note_on_c, 4, 84, 76
10, 65379, Note_on_c, 4, 84, 0
10, 65400, Note_on_c, 4, 81, 76
10, 65499, Note_on_c, 4, 81, 0
10, 65520, Note_on_c, 4, 81, 76
10, 65639, Note_on_c, 4, 81, 0
10, 65640, Note_on_c, 4, 83, 76
10, 65739, Note_on_c, 4, 83, 0
10, 65760, Note_on_c, 4, 79, 76
10, 65859, Note_on_c, 4, 79, 0
10, 65880, Note_on_c, 4, 79, 76
10, 66134, Note_on_c, 4, 79, 0
10, 66150, Note_on_c, 4, 79, 76
10, 66224, Note_on_c, 4, 79, 0
10, 66240, Note_on_c, 4, 79, 76
10, 66494, Note_on_c, 4, 79, 0
10, 66510, Note_on_c, 4, 79, 76
10, 66584, Note_on_c, 4, 79, 0
10, 66600, Note_on_c, 4, 79, 76
10, 66854, Note_on_c, 4, 79, 0
10, 66870, Note_on_c, 4, 79, 76
10, 66944, Note_on_c, 4, 79, 0
10, 66960, Note_on_c, 4, 79, 76
10, 67079, Note_on_c, 4, 79, 0
10, 67080, Note_on_c, 4, 76, 76
10, 67199, Note_on_c, 4, 76, 0
10, 67200, Note_on_c, 4, 78, 76
10, 67299, Note_on_c, 4, 78, 0
10, 67320, Note_on_c, 4, 79, 76
10, 67439, Note_on_c, 4, 79, 0
10, 67440, Note_on_c, 4, 81, 76
10, 67539, Note_on_c, 4, 81, 0
10, 67560, Note_on_c, 4, 78, 76
10, 67659, Note_on_c, 4, 78, 0
10, 67680, Note_on_c, 4, 79, 76
10, 67799, Note_on_c, 4, 79, 0
10, 67800, Note_on_c, 4, 78, 76
10, 67919, Note_on_c, 4, 78, 0
10, 67920, Note_on_c, 4, 76, 76
10, 68019, Note_on_c, 4, 76, 0
10, 68040, Note_on_c, 4, 78, 76
10, 68159, Note_on_c, 4, 78, 0
10, 68160, Note_on_c, 4, 81, 76
10, 68279, Note_on_c, 4, 81, 0
10, 68280, Note_on_c, 4, 79, 76
10, 68379, Note_on_c, 4, 79, 0
10, 68400, Note_on_c, 4, 81, 76
10, 68654, Note_on_c, 4, 81, 0
10, 68670, Note_on_c, 4, 74, 76
10, 68744, Note_on_c, 4, 74, 0
10, 68760, Note_on_c, 4, 69, 76
10, 69014, Note_on_c, 4, 69, 0
10, 69030, Note_on_c, 4, 73, 76
10, 69104, Note_on_c, 4, 73, 0
10, 69120, Note_on_c, 4, 74, 76
10, 71399, Note_on_c, 4, 74, 0
10, 71400, Note_on_c, 4, 73, 76
10, 71519, Note_on_c, 4, 73, 0
10, 71520, Note_on_c, 4, 74, 76
10, 71619, Note_on_c, 4, 74, 0
10, 71640, Note_on_c, 4, 74, 76
10, 71759, Note_on_c, 4, 74, 0
10, 71760, Note_on_c, 4, 76, 76
10, 71859, Note_on_c, 4, 76, 0
10, 71880, Note_on_c, 4, 72, 76
10, 71979, Note_on_c, 4, 72, 0
10, 72000, Note_on_c, 4, 72, 76
10, 72119, Note_on_c, 4, 72, 0
10, 72120, Note_on_c, 4, 74, 76
10, 72219, Note_on_c, 4, 74, 0
10, 72240, Note_on_c, 4, 71, 76
10, 72339, Note_on_c, 4, 71, 0
10, 72360, Note_on_c, 4, 71, 76
10, 72479, Note_on_c, 4, 71, 0
10, 72480, Note_on_c, 4, 74, 76
10, 72599, Note_on_c, 4, 74, 0
10, 72600, Note_on_c, 4, 76, 76
10, 72699, Note_on_c, 4, 76, 0
10, 72720, Note_on_c, 4, 76, 76
10, 72839, Note_on_c, 4, 76, 0
10, 72840, Note_on_c, 4, 78, 76
10, 72939, Note_on_c, 4, 78, 0
10, 72960, Note_on_c, 4, 74, 76
10, 73059, Note_on_c, 4, 74, 0
10, 73080, Note_on_c, 4, 74, 76
10, 73199, Note_on_c, 4, 74, 0
10, 73200, Note_on_c, 4, 76, 76
10, 73299, Note_on_c, 4, 76, 0
10, 73320, Note_on_c, 4, 73, 76
10, 73419, Note_on_c, 4, 73, 0
10, 73440, Note_on_c, 4, 73, 76
10, 73559, Note_on_c, 4, 73, 0
10, 73560, Note_on_c, 4, 76, 76
10, 73679, Note_on_c, 4, 76, 0
10, 73680, Note_on_c, 4, 78, 76
10, 73779, Note_on_c, 4, 78, 0
10, 73800, Note_on_c, 4, 78, 76
10, 73919, Note_on_c, 4, 78, 0
10, 73920, Note_on_c, 4, 79, 76
10, 74019, Note_on_c, 4, 79, 0
10, 74040, Note_on_c, 4, 76, 76
10, 74139, Note_on_c, 4, 76, 0
10, 74160, Note_on_c, 4, 76, 76
10, 74279, Note_on_c, 4, 76, 0
10, 74280, Note_on_c, 4, 78, 76
10, 74379, Note_on_c, 4, 78, 0
10, 74400, Note_on_c, 4, 74, 76
10, 74499, Note_on_c, 4, 74, 0
10, 74520, Note_on_c, 4, 74, 76
10, 74639, Note_on_c, 4, 74, 0
10, 74640, Note_on_c, 4, 76, 76
10, 74759, Note_on_c, 4, 76, 0
10, 74760, Note_on_c, 4, 78, 76
10, 74859, Note_on_c, 4, 78, 0
10, 74880, Note_on_c, 4, 78, 76
10, 75939, Note_on_c, 4, 78, 0
10, 75960, Note_on_c, 4, 76, 76
10, 76299, Note_on_c, 4, 76, 0
10, 76320, Note_on_c, 4, 79, 76
10, 76779, Note_on_c, 4, 79, 0
10, 76800, Note_on_c, 4, 73, 76
10, 76919, Note_on_c, 4, 73, 0
10, 76920, Note_on_c, 4, 74, 76
10, 77039, Note_on_c, 4, 74, 0
10, 77040, Note_on_c, 4, 76, 76
10, 77159, Note_on_c, 4, 76, 0
10, 77160, Note_on_c, 4, 85, 76
10, 77259, Note_on_c, 4, 85, 0
10, 77280, Note_on_c, 4, 75, 76
10, 77379, Note_on_c, 4, 75, 0
10, 77400, Note_on_c, 4, 76, 76
10, 77519, Note_on_c, 4, 76, 0
10, 77520, Note_on_c, 4, 75, 76
10, 77639, Note_on_c, 4, 75, 0
10, 77640, Note_on_c, 4, 73, 76
10, 77739, Note_on_c, 4, 73, 0
10, 77760, Note_on_c, 4, 75, 76
10, 78099, Note_on_c, 4, 75, 0
10, 78120, Note_on_c, 4, 78, 76
10, 78459, Note_on_c, 4, 78, 0
10, 78480, Note_on_c, 4, 83, 76
10, 78939, Note_on_c, 4, 83, 0
10, 78960, Note_on_c, 4, 71, 76
10, 79079, Note_on_c, 4, 71, 0
10, 79080, Note_on_c, 4, 73, 76
10, 79199, Note_on_c, 4, 73, 0
10, 79200, Note_on_c, 4, 74, 76
10, 79319, Note_on_c, 4, 74, 0
10, 79320, Note_on_c, 4, 83, 76
10, 79419, Note_on_c, 4, 83, 0
10, 79440, Note_on_c, 4, 73, 76
10, 79539, Note_on_c, 4, 73, 0
10, 79560, Note_on_c, 4, 74, 76
10, 79679, Note_on_c, 4, 74, 0
10, 79680, Note_on_c, 4, 73, 76
10, 79799, Note_on_c, 4, 73, 0
10, 79800, Note_on_c, 4, 71, 76
10, 79899, Note_on_c, 4, 71, 0
10, 79920, Note_on_c, 4, 73, 76
10, 80259, Note_on_c, 4, 73, 0
10, 80280, Note_on_c, 4, 76, 76
10, 80619, Note_on_c, 4, 76, 0
10, 80640, Note_on_c, 4, 81, 76
10, 81099, Note_on_c, 4, 81, 0
10, 81120, Note_on_c, 4, 73, 76
10, 81239, Note_on_c, 4, 73, 0
10, 81240, Note_on_c, 4, 74, 76
10, 81359, Note_on_c, 4, 74, 0
10, 81360, Note_on_c, 4, 76, 76
10, 81479, Note_on_c, 4, 76, 0
10, 81480, Note_on_c, 4, 73, 76
10, 81579, Note_on_c, 4, 73, 0
10, 81600, Note_on_c, 4, 74, 76
10, 81699, Note_on_c, 4, 74, 0
10, 81720, Note_on_c, 4, 69, 76
10, 81839, Note_on_c, 4, 69, 0
10, 81840, Note_on_c, 4, 73, 76
10, 81959, Note_on_c, 4, 73, 0
10, 81960, Note_on_c, 4, 74, 76
10, 82059, Note_on_c, 4, 74, 0
10, 82080, Note_on_c, 4, 83, 76
10, 82179, Note_on_c, 4, 83, 0
10, 82200, Note_on_c, 4, 73, 76
10, 82319, Note_on_c, 4, 73, 0
10, 82320, Note_on_c, 4, 74, 76
10, 82439, Note_on_c, 4, 74, 0
10, 82440, Note_on_c, 4, 76, 76
10, 82559, Note_on_c, 4, 76, 0
10, 82560, Note_on_c, 4, 73, 76
10, 82659, Note_on_c, 4, 73, 0
10, 82680, Note_on_c, 4, 74, 76
10, 82779, Note_on_c, 4, 74, 0
10, 82800, Note_on_c, 4, 71, 76
10, 82919, Note_on_c, 4, 71, 0
10, 82920, Note_on_c, 4, 73, 76
10, 83039, Note_on_c, 4, 73, 0
10, 83040, Note_on_c, 4, 74, 76
10, 83139, Note_on_c, 4, 74, 0
10, 83160, Note_on_c, 4, 77, 76
10, 83279, Note_on_c, 4, 77, 0
10, 83280, Note_on_c, 4, 76, 76
10, 83379, Note_on_c, 4, 76, 0
10, 83400, Note_on_c, 4, 74, 76
10, 83499, Note_on_c, 4, 74, 0
10, 83520, Note_on_c, 4, 74, 76
10, 83639, Note_on_c, 4, 74, 0
10, 83640, Note_on_c, 4, 72, 76
10, 83739, Note_on_c, 4, 72, 0
10, 83760, Note_on_c, 4, 71, 76
10, 83859, Note_on_c, 4, 71, 0
10, 83880, Note_on_c, 4, 71, 76
10, 83999, Note_on_c, 4, 71, 0
10, 84000, Note_on_c, 4, 72, 76
10, 84099, Note_on_c, 4, 72, 0
10, 84120, Note_on_c, 4, 74, 76
10, 84219, Note_on_c, 4, 74, 0
10, 84240, Note_on_c, 4, 72, 76
10, 84359, Note_on_c, 4, 72, 0
10, 84360, Note_on_c, 4, 69, 76
10, 84479, Note_on_c, 4, 69, 0
10, 84480, Note_on_c, 4, 71, 76
10, 84599, Note_on_c, 4, 71, 0
10, 84600, Note_on_c, 4, 72, 76
10, 84719, Note_on_c, 4, 72, 0
10, 84720, Note_on_c, 4, 74, 76
10, 84819, Note_on_c, 4, 74, 0
10, 84840, Note_on_c, 4, 71, 76
10, 84939, Note_on_c, 4, 71, 0
10, 84960, Note_on_c, 4, 72, 76
10, 85079, Note_on_c, 4, 72, 0
10, 85080, Note_on_c, 4, 71, 76
10, 85199, Note_on_c, 4, 71, 0
10, 85200, Note_on_c, 4, 69, 76
10, 85299, Note_on_c, 4, 69, 0
10, 85320, Note_on_c, 4, 68, 76
10, 85439, Note_on_c, 4, 68, 0
10, 85440, Note_on_c, 4, 71, 76
10, 85559, Note_on_c, 4, 71, 0
10, 85560, Note_on_c, 4, 76, 76
10, 85679, Note_on_c, 4, 76, 0
10, 85680, Note_on_c, 4, 80, 76
10, 85799, Note_on_c, 4, 80, 0
10, 85800, Note_on_c, 4, 81, 76
10, 85899, Note_on_c, 4, 81, 0
10, 85920, Note_on_c, 4, 83, 76
10, 86019, Note_on_c, 4, 83, 0
10, 86040, Note_on_c, 4, 76, 76
10, 86159, Note_on_c, 4, 76, 0
10, 86160, Note_on_c, 4, 81, 76
10, 86259, Note_on_c, 4, 81, 0
10, 86280, Note_on_c, 4, 80, 76
10, 86379, Note_on_c, 4, 80, 0
10, 86400, Note_on_c, 4, 81, 76
10, 88659, Note_on_c, 4, 81, 0
10, 88680, Note_on_c, 4, 78, 76
10, 88799, Note_on_c, 4, 78, 0
10, 88800, Note_on_c, 4, 80, 76
10, 88919, Note_on_c, 4, 80, 0
10, 88920, Note_on_c, 4, 81, 76
10, 89039, Note_on_c, 4, 81, 0
10, 89040, Note_on_c, 4, 83, 76
10, 89139, Note_on_c, 4, 83, 0
10, 89160, Note_on_c, 4, 80, 76
10, 89259, Note_on_c, 4, 80, 0
10, 89280, Note_on_c, 4, 81, 76
10, 89399, Note_on_c, 4, 81, 0
10, 89400, Note_on_c, 4, 80, 76
10, 89519, Note_on_c, 4, 80, 0
10, 89520, Note_on_c, 4, 78, 76
10, 89619, Note_on_c, 4, 78, 0
10, 89640, Note_on_c, 4, 80, 76
10, 89759, Note_on_c, 4, 80, 0
10, 89760, Note_on_c, 4, 81, 76
10, 89879, Note_on_c, 4, 81, 0
10, 89880, Note_on_c, 4, 83, 76
10, 89999, Note_on_c, 4, 83, 0
10, 90000, Note_on_c, 4, 85, 76
10, 90119, Note_on_c, 4, 85, 0
10, 90120, Note_on_c, 4, 86, 76
10, 90219, Note_on_c, 4, 86, 0
10, 90240, Note_on_c, 4, 83, 76
10, 90339, Note_on_c, 4, 83, 0
10, 90360, Note_on_c, 4, 83, 76
10, 90479, Note_on_c, 4, 83, 0
10, 90480, Note_on_c, 4, 85, 76
10, 90579, Note_on_c, 4, 85, 0
10, 90600, Note_on_c, 4, 81, 76
10, 90699, Note_on_c, 4, 81, 0
10, 90720, Note_on_c, 4, 81, 76
10, 91179, Note_on_c, 4, 81, 0
10, 91200, Note_on_c, 4, 74, 76
10, 91319, Note_on_c, 4, 74, 0
10, 91320, Note_on_c, 4, 73, 76
10, 91419, Note_on_c, 4, 73, 0
10, 91440, Note_on_c, 4, 71, 76
10, 91559, Note_on_c, 4, 71, 0
10, 91560, Note_on_c, 4, 81, 76
10, 91659, Note_on_c, 4, 81, 0
10, 91680, Note_on_c, 4, 80, 76
10, 91779, Note_on_c, 4, 80, 0
10, 91800, Note_on_c, 4, 81, 76
10, 91919, Note_on_c, 4, 81, 0
10, 92160, Note_on_c, 4, 76, 76
10, 92279, Note_on_c, 4, 76, 0
10, 92520, Note_on_c, 4, 80, 76
10, 92639, Note_on_c, 4, 80, 0
10, 92880, Note_on_c, 4, 81, 76
10, 92999, Note_on_c, 4, 81, 0
10, 93240, Note_on_c, 4, 76, 76
10, 93359, Note_on_c, 4, 76, 0
10, 93600, Note_on_c, 4, 80, 76
10, 93719, Note_on_c, 4, 80, 0
10, 93960, Note_on_c, 4, 81, 76
10, 94214, Note_on_c, 4, 81, 0
10, 94230, Note_on_c, 4, 76, 76
10, 94304, Note_on_c, 4, 76, 0
10, 94320, Note_on_c, 4, 76, 76
10, 94439, Note_on_c, 4, 76, 0
10, 94440, Note_on_c, 4, 78, 76
10, 94539, Note_on_c, 4, 78, 0
10, 94560, Note_on_c, 4, 74, 76
10, 94659, Note_on_c, 4, 74, 0
10, 94680, Note_on_c, 4, 74, 76
10, 94799, Note_on_c, 4, 74, 0
10, 94800, Note_on_c, 4, 76, 76
10, 94899, Note_on_c, 4, 76, 0
10, 94920, Note_on_c, 4, 73, 76
10, 95019, Note_on_c, 4, 73, 0
10, 95040, Note_on_c, 4, 73, 76
10, 95159, Note_on_c, 4, 73, 0
10, 95160, Note_on_c, 4, 74, 76
10, 95279, Note_on_c, 4, 74, 0
10, 95280, Note_on_c, 4, 76, 76
10, 95399, Note_on_c, 4, 76, 0
10, 95400, Note_on_c, 4, 78, 76
10, 95519, Note_on_c, 4, 78, 0
10, 95520, Note_on_c, 4, 79, 76
10, 95619, Note_on_c, 4, 79, 0
10, 95640, Note_on_c, 4, 76, 76
10, 95739, Note_on_c, 4, 76, 0
10, 95760, Note_on_c, 4, 76, 76
10, 95879, Note_on_c, 4, 76, 0
10, 95880, Note_on_c, 4, 78, 76
10, 95979, Note_on_c, 4, 78, 0
10, 96000, Note_on_c, 4, 74, 76
10, 96099, Note_on_c, 4, 74, 0
10, 96120, Note_on_c, 4, 74, 76
10, 96374, Note_on_c, 4, 74, 0
10, 96390, Note_on_c, 4, 74, 76
10, 96464, Note_on_c, 4, 74, 0
10, 96480, Note_on_c, 4, 74, 76
10, 96734, Note_on_c, 4, 74, 0
10, 96750, Note_on_c, 4, 74, 76
10, 96824, Note_on_c, 4, 74, 0
10, 96840, Note_on_c, 4, 74, 76
10, 97094, Note_on_c, 4, 74, 0
10, 97110, Note_on_c, 4, 74, 76
10, 97184, Note_on_c, 4, 74, 0
10, 97200, Note_on_c, 4, 74, 76
10, 97319, Note_on_c, 4, 74, 0
10, 97320, Note_on_c, 4, 71, 76
10, 97439, Note_on_c, 4, 71, 0
10, 97440, Note_on_c, 4, 73, 76
10, 97559, Note_on_c, 4, 73, 0
10, 97560, Note_on_c, 4, 74, 76
10, 97679, Note_on_c, 4, 74, 0
10, 97680, Note_on_c, 4, 83, 76
10, 97779, Note_on_c, 4, 83, 0
10, 97800, Note_on_c, 4, 73, 76
10, 97899, Note_on_c, 4, 73, 0
10, 97920, Note_on_c, 4, 74, 76
10, 98039, Note_on_c, 4, 74, 0
10, 98040, Note_on_c, 4, 73, 76
10, 98159, Note_on_c, 4, 73, 0
10, 98160, Note_on_c, 4, 71, 76
10, 98259, Note_on_c, 4, 71, 0
10, 98280, Note_on_c, 4, 73, 76
10, 98399, Note_on_c, 4, 73, 0
10, 98400, Note_on_c, 4, 76, 76
10, 98499, Note_on_c, 4, 76, 0
10, 98520, Note_on_c, 4, 74, 76
10, 98619, Note_on_c, 4, 74, 0
10, 98640, Note_on_c, 4, 76, 76
10, 99479, Note_on_c, 4, 76, 0
10, 99480, Note_on_c, 4, 78, 76
10, 99599, Note_on_c, 4, 78, 0
10, 99600, Note_on_c, 4, 76, 76
10, 99699, Note_on_c, 4, 76, 0
10, 99720, Note_on_c, 4, 74, 76
10, 99839, Note_on_c, 4, 74, 0
10, 99840, Note_on_c, 4, 76, 76
10, 99939, Note_on_c, 4, 76, 0
10, 99960, Note_on_c, 4, 73, 76
10, 100059, Note_on_c, 4, 73, 0
10, 100080, Note_on_c, 4, 73, 76
10, 100199, Note_on_c, 4, 73, 0
10, 100200, Note_on_c, 4, 74, 76
10, 100299, Note_on_c, 4, 74, 0
10, 100320, Note_on_c, 4, 71, 76
10, 100419, Note_on_c, 4, 71, 0
10, 100440, Note_on_c, 4, 71, 76
10, 101639, Note_on_c, 4, 71, 0
10, 101640, Note_on_c, 4, 73, 76
10, 101759, Note_on_c, 4, 73, 0
10, 101760, Note_on_c, 4, 74, 76
10, 101859, Note_on_c, 4, 74, 0
10, 101880, Note_on_c, 4, 76, 76
10, 101999, Note_on_c, 4, 76, 0
10, 102000, Note_on_c, 4, 73, 76
10, 102119, Note_on_c, 4, 73, 0
10, 102120, Note_on_c, 4, 69, 76
10, 102219, Note_on_c, 4, 69, 0
10, 102240, Note_on_c, 4, 81, 76
10, 103779, Note_on_c, 4, 81, 0
10, 103800, Note_on_c, 4, 80, 76
10, 103919, Note_on_c, 4, 80, 0
10, 103920, Note_on_c, 4, 81, 76
10, 104039, Note_on_c, 4, 81, 0
10, 104040, Note_on_c, 4, 83, 76
10, 104159, Note_on_c, 4, 83, 0
10, 104160, Note_on_c, 4, 85, 76
10, 104259, Note_on_c, 4, 85, 0
10, 104280, Note_on_c, 4, 81, 76
10, 104379, Note_on_c, 4, 81, 0
10, 104400, Note_on_c, 4, 81, 76
10, 104519, Note_on_c, 4, 81, 0
10, 104520, Note_on_c, 4, 83, 76
10, 104619, Note_on_c, 4, 83, 0
10, 104640, Note_on_c, 4, 80, 76
10, 104739, Note_on_c, 4, 80, 0
10, 104760, Note_on_c, 4, 80, 76
10, 104879, Note_on_c, 4, 80, 0
10, 104880, Note_on_c, 4, 76, 76
10, 104999, Note_on_c, 4, 76, 0
10, 105000, Note_on_c, 4, 78, 76
10, 105119, Note_on_c, 4, 78, 0
10, 105120, Note_on_c, 4, 80, 76
10, 105239, Note_on_c, 4, 80, 0
10, 105240, Note_on_c, 4, 81, 76
10, 105339, Note_on_c, 4, 81, 0
10, 105360, Note_on_c, 4, 83, 76
10, 105459, Note_on_c, 4, 83, 0
10, 105480, Note_on_c, 4, 76, 76
10, 105734, Note_on_c, 4, 76, 0
10, 105750, Note_on_c, 4, 80, 76
10, 105824, Note_on_c, 4, 80, 0
10, 105840, Note_on_c, 4, 69, 76
10, 105959, Note_on_c, 4, 69, 0
10, 105960, Note_on_c, 4, 73, 76
10, 106079, Note_on_c, 4, 73, 0
10, 106080, Note_on_c, 4, 76, 76
10, 106179, Note_on_c, 4, 76, 0
10, 106200, Note_on_c, 4, 81, 76
10, 106319, Note_on_c, 4, 81, 0
10, 106320, Note_on_c, 4, 83, 76
10, 106419, Note_on_c, 4, 83, 0
10, 106440, Note_on_c, 4, 79, 76
10, 106539, Note_on_c, 4, 79, 0
10, 106560, Note_on_c, 4, 79, 76
10, 106679, Note_on_c, 4, 79, 0
10, 106680, Note_on_c, 4, 81, 76
10, 106779, Note_on_c, 4, 81, 0
10, 106800, Note_on_c, 4, 78, 76
10, 106899, Note_on_c, 4, 78, 0
10, 106920, Note_on_c, 4, 78, 76
10, 107039, Note_on_c, 4, 78, 0
10, 107040, Note_on_c, 4, 74, 76
10, 107159, Note_on_c, 4, 74, 0
10, 107160, Note_on_c, 4, 78, 76
10, 107259, Note_on_c, 4, 78, 0
10, 107280, Note_on_c, 4, 83, 76
10, 107399, Note_on_c, 4, 83, 0
10, 107400, Note_on_c, 4, 85, 76
10, 107499, Note_on_c, 4, 85, 0
10, 107520, Note_on_c, 4, 81, 76
10, 107619, Note_on_c, 4, 81, 0
10, 107640, Note_on_c, 4, 81, 76
10, 107759, Note_on_c, 4, 81, 0
10, 107760, Note_on_c, 4, 83, 76
10, 107859, Note_on_c, 4, 83, 0
10, 107880, Note_on_c, 4, 80, 76
10, 107979, Note_on_c, 4, 80, 0
10, 108000, Note_on_c, 4, 80, 76
10, 108119, Note_on_c, 4, 80, 0
10, 108120, Note_on_c, 4, 81, 76
10, 108239, Note_on_c, 4, 81, 0
10, 108240, Note_on_c, 4, 83, 76
10, 108339, Note_on_c, 4, 83, 0
10, 108360, Note_on_c, 4, 85, 76
10, 108479, Note_on_c, 4, 85, 0
10, 108480, Note_on_c, 4, 86, 76
10, 108579, Note_on_c, 4, 86, 0
10, 108600, Note_on_c, 4, 83, 76
10, 108699, Note_on_c, 4, 83, 0
10, 108720, Note_on_c, 4, 83, 76
10, 108839, Note_on_c, 4, 83, 0
10, 108840, Note_on_c, 4, 85, 76
10, 108939, Note_on_c, 4, 85, 0
10, 108960, Note_on_c, 4, 81, 76
10, 109059, Note_on_c, 4, 81, 0
10, 109080, Note_on_c, 4, 81, 76
10, 109334, Note_on_c, 4, 81, 0
10, 109350, Note_on_c, 4, 81, 76
10, 109424, Note_on_c, 4, 81, 0
10, 109440, Note_on_c, 4, 81, 76
10, 109694, Note_on_c, 4, 81, 0
10, 109710, Note_on_c, 4, 81, 76
10, 109784, Note_on_c, 4, 81, 0
10, 109800, Note_on_c, 4, 81, 76
10, 110054, Note_on_c, 4, 81, 0
10, 110070, Note_on_c, 4, 81, 76
10, 110144, Note_on_c, 4, 81, 0
10, 110160, Note_on_c, 4, 81, 76
10, 110279, Note_on_c, 4, 81, 0
10, 110280, Note_on_c, 4, 83, 76
10, 110399, Note_on_c, 4, 83, 0
10, 110400, Note_on_c, 4, 81, 76
10, 110499, Note_on_c, 4, 81, 0
10, 110520, Note_on_c, 4, 80, 76
10, 110639, Note_on_c, 4, 80, 0
10, 110640, Note_on_c, 4, 81, 76
10, 110739, Note_on_c, 4, 81, 0
10, 110760, Note_on_c, 4, 78, 76
10, 110859, Note_on_c, 4, 78, 0
10, 110880, Note_on_c, 4, 78, 76
10, 110999, Note_on_c, 4, 78, 0
10, 111000, Note_on_c, 4, 80, 76
10, 111099, Note_on_c, 4, 80, 0
10, 111120, Note_on_c, 4, 76, 76
10, 111219, Note_on_c, 4, 76, 0
10, 111240, Note_on_c, 4, 76, 76
10, 111494, Note_on_c, 4, 76, 0
10, 111510, Note_on_c, 4, 76, 76
10, 111584, Note_on_c, 4, 76, 0
10, 111600, Note_on_c, 4, 76, 76
10, 111854, Note_on_c, 4, 76, 0
10, 111870, Note_on_c, 4, 76, 76
10, 111944, Note_on_c, 4, 76, 0
10, 111960, Note_on_c, 4, 76, 76
10, 112214, Note_on_c, 4, 76, 0
10, 112230, Note_on_c, 4, 76, 76
10, 112304, Note_on_c, 4, 76, 0
10, 112320, Note_on_c, 4, 76, 76
10, 112439, Note_on_c, 4, 76, 0
10, 112440, Note_on_c, 4, 81, 76
10, 112539, Note_on_c, 4, 81, 0
10, 112560, Note_on_c, 4, 80, 76
10, 112659, Note_on_c, 4, 80, 0
10, 112680, Note_on_c, 4, 81, 76
10, 112799, Note_on_c, 4, 81, 0
10, 112800, Note_on_c, 4, 76, 76
10, 112919, Note_on_c, 4, 76, 0
10, 112920, Note_on_c, 4, 78, 76
10, 113019, Note_on_c, 4, 78, 0
10, 113040, Note_on_c, 4, 73, 76
10, 113159, Note_on_c, 4, 73, 0
10, 113160, Note_on_c, 4, 71, 76
10, 113279, Note_on_c, 4, 71, 0
10, 113280, Note_on_c, 4, 69, 76
10, 113379, Note_on_c, 4, 69, 0
10, 113400, Note_on_c, 4, 69, 76
10, 113759, Note_on_c, 4, 69, 0
10, 114750, Note_on_c, 4, 73, 76
10, 114824, Note_on_c, 4, 73, 0
10, 114840, Note_on_c, 4, 73, 76
10, 114959, Note_on_c, 4, 73, 0
10, 114960, Note_on_c, 4, 76, 76
10, 115059, Note_on_c, 4, 76, 0
10, 115080, Note_on_c, 4, 74, 76
10, 115179, Note_on_c, 4, 74, 0
10, 115200, Note_on_c, 4, 74, 76
10, 115319, Note_on_c, 4, 74, 0
10, 115320, Note_on_c, 4, 78, 76
10, 115419, Note_on_c, 4, 78, 0
10, 115440, Note_on_c, 4, 76, 76
10, 115539, Note_on_c, 4, 76, 0
10, 115560, Note_on_c, 4, 76, 76
10, 115679, Note_on_c, 4, 76, 0
10, 116910, Note_on_c, 4, 81, 76
10, 116984, Note_on_c, 4, 81, 0
10, 117000, Note_on_c, 4, 81, 76
10, 117119, Note_on_c, 4, 81, 0
10, 117120, Note_on_c, 4, 83, 76
10, 117219, Note_on_c, 4, 83, 0
10, 117240, Note_on_c, 4, 79, 76
10, 117339, Note_on_c, 4, 79, 0
10, 117360, Note_on_c, 4, 79, 76
10, 117479, Note_on_c, 4, 79, 0
10, 117480, Note_on_c, 4, 81, 76
10, 117579, Note_on_c, 4, 81, 0
10, 117600, Note_on_c, 4, 78, 76
10, 117699, Note_on_c, 4, 78, 0
10, 117720, Note_on_c, 4, 78, 76
10, 117974, Note_on_c, 4, 78, 0
10, 117990, Note_on_c, 4, 74, 76
10, 118064, Note_on_c, 4, 74, 0
10, 118080, Note_on_c, 4, 74, 76
10, 118199, Note_on_c, 4, 74, 0
10, 118200, Note_on_c, 4, 78, 76
10, 118299, Note_on_c, 4, 78, 0
10, 118320, Note_on_c, 4, 76, 76
10, 118419, Note_on_c, 4, 76, 0
10, 118440, Note_on_c, 4, 76, 76
10, 118559, Note_on_c, 4, 76, 0
10, 118560, Note_on_c, 4, 79, 76
10, 118659, Note_on_c, 4, 79, 0
10, 118680, Note_on_c, 4, 78, 76
10, 118779, Note_on_c, 4, 78, 0
10, 118800, Note_on_c, 4, 78, 76
10, 118919, Note_on_c, 4, 78, 0
10, 120150, Note_on_c, 4, 69, 76
10, 120224, Note_on_c, 4, 69, 0
10, 120240, Note_on_c, 4, 69, 76
10, 120359, Note_on_c, 4, 69, 0
10, 120360, Note_on_c, 4, 72, 76
10, 120459, Note_on_c, 4, 72, 0
10, 120480, Note_on_c, 4, 71, 76
10, 120579, Note_on_c, 4, 71, 0
10, 120600, Note_on_c, 4, 71, 76
10, 120719, Note_on_c, 4, 71, 0
10, 120720, Note_on_c, 4, 74, 76
10, 120819, Note_on_c, 4, 74, 0
10, 120840, Note_on_c, 4, 72, 76
10, 120939, Note_on_c, 4, 72, 0
10, 120960, Note_on_c, 4, 72, 76
10, 121079, Note_on_c, 4, 72, 0
10, 121080, Note_on_c, 4, 76, 76
10, 121199, Note_on_c, 4, 76, 0
10, 121200, Note_on_c, 4, 74, 76
10, 121299, Note_on_c, 4, 74, 0
10, 121320, Note_on_c, 4, 74, 76
10, 121439, Note_on_c, 4, 74, 0
10, 121440, Note_on_c, 4, 76, 76
10, 121539, Note_on_c, 4, 76, 0
10, 121560, Note_on_c, 4, 72, 76
10, 121659, Note_on_c, 4, 72, 0
10, 121680, Note_on_c, 4, 72, 76
10, 121799, Note_on_c, 4, 72, 0
10, 121800, Note_on_c, 4, 74, 76
10, 121899, Note_on_c, 4, 74, 0
10, 121920, Note_on_c, 4, 71, 76
10, 122019, Note_on_c, 4, 71, 0
10, 122040, Note_on_c, 4, 71, 76
10, 122159, Note_on_c, 4, 71, 0
10, 122160, Note_on_c, 4, 67, 76
10, 122279, Note_on_c, 4, 67, 0
10, 122280, Note_on_c, 4, 69, 76
10, 122399, Note_on_c, 4, 69, 0
10, 122400, Note_on_c, 4, 71, 76
10, 122519, Note_on_c, 4, 71, 0
10, 122520, Note_on_c, 4, 73, 76
10, 122619, Note_on_c, 4, 73, 0
10, 122640, Note_on_c, 4, 74, 76
10, 122739, Note_on_c, 4, 74, 0
10, 122760, Note_on_c, 4, 74, 76
10, 123239, Note_on_c, 4, 74, 0
10, 123240, Note_on_c, 4, 73, 76
10, 123359, Note_on_c, 4, 73, 0
10, 123360, Note_on_c, 4, 71, 76
10, 123479, Note_on_c, 4, 71, 0
10, 123480, Note_on_c, 4, 73, 76
10, 123599, Note_on_c, 4, 73, 0
10, 123600, Note_on_c, 4, 74, 76
10, 123699, Note_on_c, 4, 74, 0
10, 123720, Note_on_c, 4, 76, 76
10, 123819, Note_on_c, 4, 76, 0
10, 123840, Note_on_c, 4, 76, 76
10, 124319, Note_on_c, 4, 76, 0
10, 124320, Note_on_c, 4, 74, 76
10, 124439, Note_on_c, 4, 74, 0
10, 124440, Note_on_c, 4, 73, 76
10, 124559, Note_on_c, 4, 73, 0
10, 124560, Note_on_c, 4, 74, 76
10, 124679, Note_on_c, 4, 74, 0
10, 124680, Note_on_c, 4, 76, 76
10, 124779, Note_on_c, 4, 76, 0
10, 124800, Note_on_c, 4, 78, 76
10, 124899, Note_on_c, 4, 78, 0
10, 124920, Note_on_c, 4, 78, 76
10, 125399, Note_on_c, 4, 78, 0
10, 125400, Note_on_c, 4, 76, 76
10, 125519, Note_on_c, 4, 76, 0
10, 125520, Note_on_c, 4, 74, 76
10, 125639, Note_on_c, 4, 74, 0
10, 125640, Note_on_c, 4, 76, 76
10, 125759, Note_on_c, 4, 76, 0
10, 125760, Note_on_c, 4, 78, 76
10, 125859, Note_on_c, 4, 78, 0
10, 125880, Note_on_c, 4, 79, 76
10, 125979, Note_on_c, 4, 79, 0
10, 126000, Note_on_c, 4, 79, 76
10, 126614, Note_on_c, 4, 79, 0
10, 126630, Note_on_c, 4, 78, 76
10, 126704, Note_on_c, 4, 78, 0
10, 126720, Note_on_c, 4, 78, 76
10, 126839, Note_on_c, 4, 78, 0
10, 126840, Note_on_c, 4, 79, 76
10, 126939, Note_on_c, 4, 79, 0
10, 126960, Note_on_c, 4, 76, 76
10, 127059, Note_on_c, 4, 76, 0
10, 127080, Note_on_c, 4, 76, 76
10, 127199, Note_on_c, 4, 76, 0
10, 127200, Note_on_c, 4, 78, 76
10, 127299, Note_on_c, 4, 78, 0
10, 127320, Note_on_c, 4, 74, 76
10, 127419, Note_on_c, 4, 74, 0
10, 127440, Note_on_c, 4, 74, 76
10, 127559, Note_on_c, 4, 74, 0
10, 127560, Note_on_c, 4, 76, 76
10, 127679, Note_on_c, 4, 76, 0
10, 127680, Note_on_c, 4, 78, 76
10, 127799, Note_on_c, 4, 78, 0
10, 127800, Note_on_c, 4, 79, 76
10, 127919, Note_on_c, 4, 79, 0
10, 127920, Note_on_c, 4, 81, 76
10, 128019, Note_on_c, 4, 81, 0
10, 128040, Note_on_c, 4, 78, 76
10, 128139, Note_on_c, 4, 78, 0
10, 128160, Note_on_c, 4, 78, 76
10, 128279, Note_on_c, 4, 78, 0
10, 128280, Note_on_c, 4, 79, 76
10, 128379, Note_on_c, 4, 79, 0
10, 128400, Note_on_c, 4, 76, 76
10, 128499, Note_on_c, 4, 76, 0
10, 128520, Note_on_c, 4, 76, 76
10, 128774, Note_on_c, 4, 76, 0
10, 128790, Note_on_c, 4, 76, 76
10, 128864, Note_on_c, 4, 76, 0
10, 128880, Note_on_c, 4, 76, 76
10, 128999, Note_on_c, 4, 76, 0
10, 129000, Note_on_c, 4, 78, 76
10, 129099, Note_on_c, 4, 78, 0
10, 129120, Note_on_c, 4, 74, 76
10, 129219, Note_on_c, 4, 74, 0
10, 129240, Note_on_c, 4, 74, 76
10, 129359, Note_on_c, 4, 74, 0
10, 129360, Note_on_c, 4, 76, 76
10, 129459, Note_on_c, 4, 76, 0
10, 129480, Note_on_c, 4, 73, 76
10, 129579, Note_on_c, 4, 73, 0
10, 129600, Note_on_c, 4, 73, 76
10, 129719, Note_on_c, 4, 73, 0
10, 129720, Note_on_c, 4, 74, 76
10, 129839, Note_on_c, 4, 74, 0
10, 129840, Note_on_c, 4, 76, 76
10, 129959, Note_on_c, 4, 76, 0
10, 129960, Note_on_c, 4, 78, 76
10, 130079, Note_on_c, 4, 78, 0
10, 130080, Note_on_c, 4, 79, 76
10, 130179, Note_on_c, 4, 79, 0
10, 130200, Note_on_c, 4, 76, 76
10, 130299, Note_on_c, 4, 76, 0
10, 130320, Note_on_c, 4, 76, 76
10, 130439, Note_on_c, 4, 76, 0
10, 130440, Note_on_c, 4, 78, 76
10, 130539, Note_on_c, 4, 78, 0
10, 130560, Note_on_c, 4, 74, 76
10, 130659, Note_on_c, 4, 74, 0
10, 130680, Note_on_c, 4, 74, 76
10, 130799, Note_on_c, 4, 74, 0
10, 130800, Note_on_c, 4, 71, 76
10, 130919, Note_on_c, 4, 71, 0
10, 130920, Note_on_c, 4, 73, 76
10, 131039, Note_on_c, 4, 73, 0
10, 131040, Note_on_c, 4, 74, 76
10, 131159, Note_on_c, 4, 74, 0
10, 131160, Note_on_c, 4, 76, 76
10, 131259, Note_on_c, 4, 76, 0
10, 131280, Note_on_c, 4, 72, 76
10, 131379, Note_on_c, 4, 72, 0
10, 131400, Note_on_c, 4, 72, 76
10, 131519, Note_on_c, 4, 72, 0
10, 131520, Note_on_c, 4, 74, 76
10, 131619, Note_on_c, 4, 74, 0
10, 131640, Note_on_c, 4, 71, 76
10, 131739, Note_on_c, 4, 71, 0
10, 131760, Note_on_c, 4, 71, 76
10, 132014, Note_on_c, 4, 71, 0
10, 132030, Note_on_c, 4, 71, 76
10, 132104, Note_on_c, 4, 71, 0
10, 132120, Note_on_c, 4, 76, 76
10, 132374, Note_on_c, 4, 76, 0
10, 132390, Note_on_c, 4, 75, 76
10, 132464, Note_on_c, 4, 75, 0
10, 132480, Note_on_c, 4, 76, 76
10, 132734, Note_on_c, 4, 76, 0
10, 132750, Note_on_c, 4, 78, 76
10, 132824, Note_on_c, 4, 78, 0
10, 132840, Note_on_c, 4, 79, 76
10, 132959, Note_on_c, 4, 79, 0
10, 132960, Note_on_c, 4, 81, 76
10, 133059, Note_on_c, 4, 81, 0
10, 133080, Note_on_c, 4, 78, 76
10, 133179, Note_on_c, 4, 78, 0
10, 133200, Note_on_c, 4, 76, 76
10, 133319, Note_on_c, 4, 76, 0
10, 133320, Note_on_c, 4, 78, 76
10, 133419, Note_on_c, 4, 78, 0
10, 133440, Note_on_c, 4, 74, 76
10, 133539, Note_on_c, 4, 74, 0
10, 133560, Note_on_c, 4, 73, 76
10, 133679, Note_on_c, 4, 73, 0
10, 133680, Note_on_c, 4, 74, 76
10, 133779, Note_on_c, 4, 74, 0
10, 133800, Note_on_c, 4, 71, 76
10, 133899, Note_on_c, 4, 71, 0
10, 133920, Note_on_c, 4, 76, 76
10, 134174, Note_on_c, 4, 76, 0
10, 134190, Note_on_c, 4, 73, 76
10, 134264, Note_on_c, 4, 73, 0
10, 134280, Note_on_c, 4, 66, 76
10, 134534, Note_on_c, 4, 66, 0
10, 134550, Note_on_c, 4, 76, 76
10, 134624, Note_on_c, 4, 76, 0
10, 134640, Note_on_c, 4, 74, 76
10, 134894, Note_on_c, 4, 74, 0
10, 134910, Note_on_c, 4, 79, 76
10, 134984, Note_on_c, 4, 79, 0
10, 135000, Note_on_c, 4, 78, 76
10, 135119, Note_on_c, 4, 78, 0
10, 135120, Note_on_c, 4, 76, 76
10, 135239, Note_on_c, 4, 76, 0
10, 135240, Note_on_c, 4, 74, 76
10, 135359, Note_on_c, 4, 74, 0
10, 135360, Note_on_c, 4, 73, 76
10, 135479, Note_on_c, 4, 73, 0
10, 135480, Note_on_c, 4, 74, 76
10, 135579, Note_on_c, 4, 74, 0
10, 135600, Note_on_c, 4, 71, 76
10, 135699, Note_on_c, 4, 71, 0
10, 135720, Note_on_c, 4, 66, 76
10, 135839, Note_on_c, 4, 66, 0
10, 135840, Note_on_c, 4, 71, 76
10, 135939, Note_on_c, 4, 71, 0
10, 135960, Note_on_c, 4, 70, 76
10, 136059, Note_on_c, 4, 70, 0
10, 136080, Note_on_c, 4, 71, 76
10, 136199, Note_on_c, 4, 71, 0
10, 138600, Note_on_c, 4, 74, 76
10, 138719, Note_on_c, 4, 74, 0
10, 138960, Note_on_c, 4, 78, 76
10, 139079, Note_on_c, 4, 78, 0
10, 139680, Note_on_c, 4, 76, 76
10, 139799, Note_on_c, 4, 76, 0
10, 140040, Note_on_c, 4, 79, 76
10, 140159, Note_on_c, 4, 79, 0
10, 140670, Note_on_c, 4, 78, 76
10, 140744, Note_on_c, 4, 78, 0
10, 140760, Note_on_c, 4, 78, 76
10, 140879, Note_on_c, 4, 78, 0
10, 140880, Note_on_c, 4, 79, 76
10, 140979, Note_on_c, 4, 79, 0
10, 141000, Note_on_c, 4, 76, 76
10, 141099, Note_on_c, 4, 76, 0
10, 141120, Note_on_c, 4, 76, 76
10, 141239, Note_on_c, 4, 76, 0
10, 141240, Note_on_c, 4, 78, 76
10, 141339, Note_on_c, 4, 78, 0
10, 141360, Note_on_c, 4, 75, 76
10, 141459, Note_on_c, 4, 75, 0
10, 141480, Note_on_c, 4, 75, 76
10, 141819, Note_on_c, 4, 75, 0
10, 141840, Note_on_c, 4, 83, 76
10, 142814, Note_on_c, 4, 83, 0
10, 142830, Note_on_c, 4, 75, 76
10, 142904, Note_on_c, 4, 75, 0
10, 142920, Note_on_c, 4, 76, 76
10, 143759, Note_on_c, 4, 76, 0
10, 143760, Note_on_c, 4, 78, 76
10, 143879, Note_on_c, 4, 78, 0
10, 143880, Note_on_c, 4, 79, 76
10, 143979, Note_on_c, 4, 79, 0
10, 144000, Note_on_c, 4, 81, 76
10, 144974, Note_on_c, 4, 81, 0
10, 144990, Note_on_c, 4, 71, 76
10, 145064, Note_on_c, 4, 71, 0
10, 145080, Note_on_c, 4, 72, 76
10, 146054, Note_on_c, 4, 72, 0
10, 146070, Note_on_c, 4, 62, 76
10, 146144, Note_on_c, 4, 62, 0
10, 146160, Note_on_c, 4, 62, 76
10, 146414, Note_on_c, 4, 62, 0
10, 146430, Note_on_c, 4, 62, 76
10, 146504, Note_on_c, 4, 62, 0
10, 146520, Note_on_c, 4, 62, 76
10, 146774, Note_on_c, 4, 62, 0
10, 146790, Note_on_c, 4, 62, 76
10, 146864, Note_on_c, 4, 62, 0
10, 146880, Note_on_c, 4, 62, 76
10, 146999, Note_on_c, 4, 62, 0
10, 147240, Note_on_c, 4, 67, 76
10, 147359, Note_on_c, 4, 67, 0
10, 147600, Note_on_c, 4, 71, 76
10, 147719, Note_on_c, 4, 71, 0
10, 147960, Note_on_c, 4, 71, 76
10, 148079, Note_on_c, 4, 71, 0
10, 148320, Note_on_c, 4, 69, 76
10, 148439, Note_on_c, 4, 69, 0
10, 148680, Note_on_c, 4, 71, 76
10, 148799, Note_on_c, 4, 71, 0
10, 149040, Note_on_c, 4, 72, 76
10, 149159, Note_on_c, 4, 72, 0
10, 149160, Note_on_c, 4, 71, 76
10, 149279, Note_on_c, 4, 71, 0
10, 149280, Note_on_c, 4, 69, 76
10, 149379, Note_on_c, 4, 69, 0
10, 149400, Note_on_c, 4, 74, 76
10, 149519, Note_on_c, 4, 74, 0
10, 149520, Note_on_c, 4, 76, 76
10, 149619, Note_on_c, 4, 76, 0
10, 149640, Note_on_c, 4, 72, 76
10, 149739, Note_on_c, 4, 72, 0
10, 149760, Note_on_c, 4, 72, 76
10, 149879, Note_on_c, 4, 72, 0
10, 149880, Note_on_c, 4, 74, 76
10, 149979, Note_on_c, 4, 74, 0
10, 150000, Note_on_c, 4, 71, 76
10, 150099, Note_on_c, 4, 71, 0
10, 150120, Note_on_c, 4, 71, 76
10, 150239, Note_on_c, 4, 71, 0
10, 150240, Note_on_c, 4, 67, 76
10, 150359, Note_on_c, 4, 67, 0
10, 150360, Note_on_c, 4, 69, 76
10, 150479, Note_on_c, 4, 69, 0
10, 150480, Note_on_c, 4, 71, 76
10, 150599, Note_on_c, 4, 71, 0
10, 150600, Note_on_c, 4, 72, 76
10, 150699, Note_on_c, 4, 72, 0
10, 150720, Note_on_c, 4, 69, 76
10, 150819, Note_on_c, 4, 69, 0
10, 150840, Note_on_c, 4, 69, 76
10, 150959, Note_on_c, 4, 69, 0
10, 150960, Note_on_c, 4, 71, 76
10, 151059, Note_on_c, 4, 71, 0
10, 151080, Note_on_c, 4, 67, 76
10, 151179, Note_on_c, 4, 67, 0
10, 151200, Note_on_c, 4, 67, 76
10, 151454, Note_on_c, 4, 67, 0
10, 151470, Note_on_c, 4, 67, 76
10, 151544, Note_on_c, 4, 67, 0
10, 151560, Note_on_c, 4, 72, 76
10, 151814, Note_on_c, 4, 72, 0
10, 151830, Note_on_c, 4, 71, 76
10, 151904, Note_on_c, 4, 71, 0
10, 151920, Note_on_c, 4, 72, 76
10, 152174, Note_on_c, 4, 72, 0
10, 152190, Note_on_c, 4, 74, 76
10, 152264, Note_on_c, 4, 74, 0
10, 152280, Note_on_c, 4, 76, 76
10, 152399, Note_on_c, 4, 76, 0
10, 152400, Note_on_c, 4, 77, 76
10, 152499, Note_on_c, 4, 77, 0
10, 152520, Note_on_c, 4, 74, 76
10, 152619, Note_on_c, 4, 74, 0
10, 152640, Note_on_c, 4, 72, 76
10, 152759, Note_on_c, 4, 72, 0
10, 152760, Note_on_c, 4, 74, 76
10, 152859, Note_on_c, 4, 74, 0
10, 152880, Note_on_c, 4, 71, 76
10, 152979, Note_on_c, 4, 71, 0
10, 153000, Note_on_c, 4, 69, 76
10, 153119, Note_on_c, 4, 69, 0
10, 153120, Note_on_c, 4, 71, 76
10, 153219, Note_on_c, 4, 71, 0
10, 153240, Note_on_c, 4, 67, 76
10, 153339, Note_on_c, 4, 67, 0
10, 153360, Note_on_c, 4, 74, 76
10, 153614, Note_on_c, 4, 74, 0
10, 153630, Note_on_c, 4, 69, 76
10, 153704, Note_on_c, 4, 69, 0
10, 153720, Note_on_c, 4, 62, 76
10, 153974, Note_on_c, 4, 62, 0
10, 153990, Note_on_c, 4, 72, 76
10, 154064, Note_on_c, 4, 72, 0
10, 154080, Note_on_c, 4, 71, 76
10, 154334, Note_on_c, 4, 71, 0
10, 154350, Note_on_c, 4, 76, 76
10, 154424, Note_on_c, 4, 76, 0
10, 154440, Note_on_c, 4, 74, 76
10, 154559, Note_on_c, 4, 74, 0
10, 154560, Note_on_c, 4, 76, 76
10, 154679, Note_on_c, 4, 76, 0
10, 154680, Note_on_c, 4, 78, 76
10, 154799, Note_on_c, 4, 78, 0
10, 154800, Note_on_c, 4, 79, 76
10, 154919, Note_on_c, 4, 79, 0
10, 154920, Note_on_c, 4, 81, 76
10, 155019, Note_on_c, 4, 81, 0
10, 155040, Note_on_c, 4, 78, 76
10, 155139, Note_on_c, 4, 78, 0
10, 155160, Note_on_c, 4, 78, 76
10, 155414, Note_on_c, 4, 78, 0
10, 155430, Note_on_c, 4, 79, 76
10, 155504, Note_on_c, 4, 79, 0
10, 155520, Note_on_c, 4, 79, 76
10, 155639, Note_on_c, 4, 79, 0
10, 155880, Note_on_c, 4, 74, 76
10, 155999, Note_on_c, 4, 74, 0
10, 156240, Note_on_c, 4, 78, 76
10, 156359, Note_on_c, 4, 78, 0
10, 156600, Note_on_c, 4, 79, 76
10, 156719, Note_on_c, 4, 79, 0
10, 156960, Note_on_c, 4, 74, 76
10, 157079, Note_on_c, 4, 74, 0
10, 157320, Note_on_c, 4, 78, 76
10, 157439, Note_on_c, 4, 78, 0
10, 157680, Note_on_c, 4, 79, 76
10, 157799, Note_on_c, 4, 79, 0
10, 178470, Note_on_c, 4, 81, 76
10, 178544, Note_on_c, 4, 81, 0
10, 178560, Note_on_c, 4, 81, 76
10, 178679, Note_on_c, 4, 81, 0
10, 178680, Note_on_c, 4, 83, 76
10, 178779, Note_on_c, 4, 83, 0
10, 178800, Note_on_c, 4, 79, 76
10, 178899, Note_on_c, 4, 79, 0
10, 178920, Note_on_c, 4, 79, 76
10, 179039, Note_on_c, 4, 79, 0
10, 179040, Note_on_c, 4, 81, 76
10, 179139, Note_on_c, 4, 81, 0
10, 179160, Note_on_c, 4, 78, 76
10, 179259, Note_on_c, 4, 78, 0
10, 179280, Note_on_c, 4, 78, 76
10, 179399, Note_on_c, 4, 78, 0
10, 179400, Note_on_c, 4, 79, 76
10, 179519, Note_on_c, 4, 79, 0
10, 179520, Note_on_c, 4, 81, 76
10, 179639, Note_on_c, 4, 81, 0
10, 179640, Note_on_c, 4, 83, 76
10, 179759, Note_on_c, 4, 83, 0
10, 179760, Note_on_c, 4, 84, 76
10, 179859, Note_on_c, 4, 84, 0
10, 179880, Note_on_c, 4, 81, 76
10, 179979, Note_on_c, 4, 81, 0
10, 180000, Note_on_c, 4, 81, 76
10, 180119, Note_on_c, 4, 81, 0
10, 180120, Note_on_c, 4, 83, 76
10, 180219, Note_on_c, 4, 83, 0
10, 180240, Note_on_c, 4, 79, 76
10, 180339, Note_on_c, 4, 79, 0
10, 180360, Note_on_c, 4, 79, 76
10, 180614, Note_on_c, 4, 79, 0
10, 180630, Note_on_c, 4, 79, 76
10, 180704, Note_on_c, 4, 79, 0
10, 180720, Note_on_c, 4, 79, 76
10, 180974, Note_on_c, 4, 79, 0
10, 180990, Note_on_c, 4, 79, 76
10, 181064, Note_on_c, 4, 79, 0
10, 181080, Note_on_c, 4, 79, 76
10, 181334, Note_on_c, 4, 79, 0
10, 181350, Note_on_c, 4, 79, 76
10, 181424, Note_on_c, 4, 79, 0
10, 181440, Note_on_c, 4, 79, 76
10, 181559, Note_on_c, 4, 79, 0
10, 181560, Note_on_c, 4, 76, 76
10, 181679, Note_on_c, 4, 76, 0
10, 181680, Note_on_c, 4, 78, 76
10, 181799, Note_on_c, 4, 78, 0
10, 181800, Note_on_c, 4, 79, 76
10, 181919, Note_on_c, 4, 79, 0
10, 181920, Note_on_c, 4, 81, 76
10, 182019, Note_on_c, 4, 81, 0
10, 182040, Note_on_c, 4, 78, 76
10, 182139, Note_on_c, 4, 78, 0
10, 182160, Note_on_c, 4, 79, 76
10, 182279, Note_on_c, 4, 79, 0
10, 182280, Note_on_c, 4, 78, 76
10, 182399, Note_on_c, 4, 78, 0
10, 182400, Note_on_c, 4, 76, 76
10, 182499, Note_on_c, 4, 76, 0
10, 182520, Note_on_c, 4, 78, 76
10, 182639, Note_on_c, 4, 78, 0
10, 182640, Note_on_c, 4, 74, 76
10, 182759, Note_on_c, 4, 74, 0
10, 182760, Note_on_c, 4, 76, 76
10, 182859, Note_on_c, 4, 76, 0
10, 182880, Note_on_c, 4, 78, 76
10, 182999, Note_on_c, 4, 78, 0
10, 183000, Note_on_c, 4, 79, 76
10, 183099, Note_on_c, 4, 79, 0
10, 183120, Note_on_c, 4, 76, 76
10, 183219, Note_on_c, 4, 76, 0
10, 183240, Note_on_c, 4, 76, 76
10, 183359, Note_on_c, 4, 76, 0
10, 183360, Note_on_c, 4, 78, 76
10, 183459, Note_on_c, 4, 78, 0
10, 183480, Note_on_c, 4, 74, 76
10, 183579, Note_on_c, 4, 74, 0
10, 183600, Note_on_c, 4, 74, 76
10, 183854, Note_on_c, 4, 74, 0
10, 183870, Note_on_c, 4, 74, 76
10, 183944, Note_on_c, 4, 74, 0
10, 183960, Note_on_c, 4, 74, 76
10, 184214, Note_on_c, 4, 74, 0
10, 184230, Note_on_c, 4, 74, 76
10, 184304, Note_on_c, 4, 74, 0
10, 184320, Note_on_c, 4, 74, 76
10, 184574, Note_on_c, 4, 74, 0
10, 184590, Note_on_c, 4, 74, 76
10, 184664, Note_on_c, 4, 74, 0
10, 184680, Note_on_c, 4, 74, 76
10, 184799, Note_on_c, 4, 74, 0
10, 184800, Note_on_c, 4, 71, 76
10, 184919, Note_on_c, 4, 71, 0
10, 184920, Note_on_c, 4, 73, 76
10, 185039, Note_on_c, 4, 73, 0
10, 185040, Note_on_c, 4, 74, 76
10, 185159, Note_on_c, 4, 74, 0
10, 185160, Note_on_c, 4, 83, 76
10, 185259, Note_on_c, 4, 83, 0
10, 185280, Note_on_c, 4, 73, 76
10, 185379, Note_on_c, 4, 73, 0
10, 185400, Note_on_c, 4, 74, 76
10, 185519, Note_on_c, 4, 74, 0
10, 185520, Note_on_c, 4, 73, 76
10, 185639, Note_on_c, 4, 73, 0
10, 185640, Note_on_c, 4, 71, 76
10, 185739, Note_on_c, 4, 71, 0
10, 185760, Note_on_c, 4, 73, 76
10, 185879, Note_on_c, 4, 73, 0
10, 185880, Note_on_c, 4, 69, 76
10, 185999, Note_on_c, 4, 69, 0
10, 186000, Note_on_c, 4, 71, 76
10, 186119, Note_on_c, 4, 71, 0
10, 186120, Note_on_c, 4, 72, 76
10, 186239, Note_on_c, 4, 72, 0
10, 186240, Note_on_c, 4, 81, 76
10, 186339, Note_on_c, 4, 81, 0
10, 186360, Note_on_c, 4, 71, 76
10, 186459, Note_on_c, 4, 71, 0
10, 186480, Note_on_c, 4, 72, 76
10, 186599, Note_on_c, 4, 72, 0
10, 186600, Note_on_c, 4, 71, 76
10, 186719, Note_on_c, 4, 71, 0
10, 186720, Note_on_c, 4, 69, 76
10, 186819, Note_on_c, 4, 69, 0
10, 186840, Note_on_c, 4, 71, 76
10, 187094, Note_on_c, 4, 71, 0
10, 187110, Note_on_c, 4, 83, 76
10, 187184, Note_on_c, 4, 83, 0
10, 187200, Note_on_c, 4, 83, 76
10, 187319, Note_on_c, 4, 83, 0
10, 187320, Note_on_c, 4, 84, 76
10, 187419, Note_on_c, 4, 84, 0
10, 187440, Note_on_c, 4, 81, 76
10, 187539, Note_on_c, 4, 81, 0
10, 187560, Note_on_c, 4, 81, 76
10, 187679, Note_on_c, 4, 81, 0
10, 187680, Note_on_c, 4, 83, 76
10, 187779, Note_on_c, 4, 83, 0
10, 187800, Note_on_c, 4, 79, 76
10, 187899, Note_on_c, 4, 79, 0
10, 187920, Note_on_c, 4, 79, 76
10, 188019, Note_on_c, 4, 79, 0
10, 188040, Note_on_c, 4, 76, 76
10, 188159, Note_on_c, 4, 76, 0
10, 188160, Note_on_c, 4, 78, 76
10, 188279, Note_on_c, 4, 78, 0
10, 188280, Note_on_c, 4, 80, 76
10, 188399, Note_on_c, 4, 80, 0
10, 188400, Note_on_c, 4, 81, 76
10, 188499, Note_on_c, 4, 81, 0
10, 188520, Note_on_c, 4, 83, 76
10, 188619, Note_on_c, 4, 83, 0
10, 188640, Note_on_c, 4, 76, 76
10, 188894, Note_on_c, 4, 76, 0
10, 188910, Note_on_c, 4, 80, 76
10, 188984, Note_on_c, 4, 80, 0
10, 189000, Note_on_c, 4, 69, 76
10, 189119, Note_on_c, 4, 69, 0
10, 189120, Note_on_c, 4, 73, 76
10, 189239, Note_on_c, 4, 73, 0
10, 189240, Note_on_c, 4, 76, 76
10, 189339, Note_on_c, 4, 76, 0
10, 189360, Note_on_c, 4, 81, 76
10, 189479, Note_on_c, 4, 81, 0
10, 189480, Note_on_c, 4, 83, 76
10, 189579, Note_on_c, 4, 83, 0
10, 189600, Note_on_c, 4, 79, 76
10, 189699, Note_on_c, 4, 79, 0
10, 189720, Note_on_c, 4, 79, 76
10, 189839, Note_on_c, 4, 79, 0
10, 189840, Note_on_c, 4, 81, 76
10, 189939, Note_on_c, 4, 81, 0
10, 189960, Note_on_c, 4, 78, 76
10, 190059, Note_on_c, 4, 78, 0
10, 190080, Note_on_c, 4, 78, 76
10, 190199, Note_on_c, 4, 78, 0
10, 190200, Note_on_c, 4, 74, 76
10, 190319, Note_on_c, 4, 74, 0
10, 190320, Note_on_c, 4, 76, 76
10, 190439, Note_on_c, 4, 76, 0
10, 190440, Note_on_c, 4, 78, 76
10, 190559, Note_on_c, 4, 78, 0
10, 190560, Note_on_c, 4, 79, 76
10, 190659, Note_on_c, 4, 79, 0
10, 190680, Note_on_c, 4, 81, 76
10, 190779, Note_on_c, 4, 81, 0
10, 190800, Note_on_c, 4, 74, 76
10, 191054, Note_on_c, 4, 74, 0
10, 191070, Note_on_c, 4, 78, 76
10, 191144, Note_on_c, 4, 78, 0
10, 191160, Note_on_c, 4, 67, 76
10, 191279, Note_on_c, 4, 67, 0
10, 191280, Note_on_c, 4, 71, 76
10, 191399, Note_on_c, 4, 71, 0
10, 191400, Note_on_c, 4, 74, 76
10, 191499, Note_on_c, 4, 74, 0
10, 191520, Note_on_c, 4, 79, 76
10, 191639, Note_on_c, 4, 79, 0
10, 191640, Note_on_c, 4, 81, 76
10, 191739, Note_on_c, 4, 81, 0
10, 191760, Note_on_c, 4, 78, 76
10, 191859, Note_on_c, 4, 78, 0
10, 191880, Note_on_c, 4, 78, 76
10, 191999, Note_on_c, 4, 78, 0
10, 192000, Note_on_c, 4, 79, 76
10, 192099, Note_on_c, 4, 79, 0
10, 192120, Note_on_c, 4, 76, 76
10, 192219, Note_on_c, 4, 76, 0
10, 192240, Note_on_c, 4, 76, 76
10, 192359, Note_on_c, 4, 76, 0
10, 192360, Note_on_c, 4, 78, 76
10, 192479, Note_on_c, 4, 78, 0
10, 192480, Note_on_c, 4, 79, 76
10, 192599, Note_on_c, 4, 79, 0
10, 192600, Note_on_c, 4, 81, 76
10, 192719, Note_on_c, 4, 81, 0
10, 192720, Note_on_c, 4, 83, 76
10, 192819, Note_on_c, 4, 83, 0
10, 192840, Note_on_c, 4, 79, 76
10, 192939, Note_on_c, 4, 79, 0
10, 192960, Note_on_c, 4, 79, 76
10, 193079, Note_on_c, 4, 79, 0
10, 193080, Note_on_c, 4, 81, 76
10, 193179, Note_on_c, 4, 81, 0
10, 193200, Note_on_c, 4, 78, 76
10, 193299, Note_on_c, 4, 78, 0
10, 193320, Note_on_c, 4, 78, 76
10, 193439, Note_on_c, 4, 78, 0
10, 193440, Note_on_c, 4, 79, 76
10, 193559, Note_on_c, 4, 79, 0
10, 193560, Note_on_c, 4, 81, 76
10, 193679, Note_on_c, 4, 81, 0
10, 193680, Note_on_c, 4, 83, 76
10, 193799, Note_on_c, 4, 83, 0
10, 193800, Note_on_c, 4, 84, 76
10, 193899, Note_on_c, 4, 84, 0
10, 193920, Note_on_c, 4, 81, 76
10, 194019, Note_on_c, 4, 81, 0
10, 194040, Note_on_c, 4, 81, 76
10, 194159, Note_on_c, 4, 81, 0
10, 194160, Note_on_c, 4, 83, 76
10, 194259, Note_on_c, 4, 83, 0
10, 194280, Note_on_c, 4, 79, 76
10, 194379, Note_on_c, 4, 79, 0
10, 194400, Note_on_c, 4, 79, 76
10, 194654, Note_on_c, 4, 79, 0
10, 194670, Note_on_c, 4, 79, 76
10, 194744, Note_on_c, 4, 79, 0
10, 194760, Note_on_c, 4, 79, 76
10, 195014, Note_on_c, 4, 79, 0
10, 195030, Note_on_c, 4, 79, 76
10, 195104, Note_on_c, 4, 79, 0
10, 195120, Note_on_c, 4, 79, 76
10, 195374, Note_on_c, 4, 79, 0
10, 195390, Note_on_c, 4, 79, 76
10, 195464, Note_on_c, 4, 79, 0
10, 195480, Note_on_c, 4, 79, 76
10, 195599, Note_on_c, 4, 79, 0
10, 195600, Note_on_c, 4, 76, 76
10, 195699, Note_on_c, 4, 76, 0
10, 195720, Note_on_c, 4, 78, 76
10, 195819, Note_on_c, 4, 78, 0
10, 195840, Note_on_c, 4, 79, 76
10, 195959, Note_on_c, 4, 79, 0
10, 195960, Note_on_c, 4, 81, 76
10, 196059, Note_on_c, 4, 81, 0
10, 196080, Note_on_c, 4, 78, 76
10, 196179, Note_on_c, 4, 78, 0
10, 196200, Note_on_c, 4, 79, 76
10, 196319, Note_on_c, 4, 79, 0
10, 196320, Note_on_c, 4, 78, 76
10, 196419, Note_on_c, 4, 78, 0
10, 196440, Note_on_c, 4, 76, 76
10, 196539, Note_on_c, 4, 76, 0
10, 196560, Note_on_c, 4, 78, 76
10, 196679, Note_on_c, 4, 78, 0
10, 196680, Note_on_c, 4, 81, 76
10, 196779, Note_on_c, 4, 81, 0
10, 196800, Note_on_c, 4, 79, 76
10, 196899, Note_on_c, 4, 79, 0
10, 196920, Note_on_c, 4, 81, 76
10, 197174, Note_on_c, 4, 81, 0
10, 197190, Note_on_c, 4, 74, 76
10, 197264, Note_on_c, 4, 74, 0
10, 197280, Note_on_c, 4, 69, 76
10, 197534, Note_on_c, 4, 69, 0
10, 197550, Note_on_c, 4, 73, 76
10, 197624, Note_on_c, 4, 73, 0
10, 197640, Note_on_c, 4, 74, 76
10, 197759, Note_on_c, 4, 74, 0
10, 198000, Note_on_c, 4, 78, 76
10, 198119, Note_on_c, 4, 78, 0
10, 198360, Note_on_c, 4, 81, 76
10, 198479, Note_on_c, 4, 81, 0
10, 198720, Note_on_c, 4, 86, 76
10, 198839, Note_on_c, 4, 86, 0
10, 199080, Note_on_c, 4, 78, 76
10, 199199, Note_on_c, 4, 78, 0
10, 199440, Note_on_c, 4, 81, 76
10, 199559, Note_on_c, 4, 81, 0
10, 199800, Note_on_c, 4, 74, 76
10, 200093, Note_on_c, 4, 74, 0
10, 200100, Note_on_c, 4, 73, 76
10, 200153, Note_on_c, 4, 73, 0
10, 200160, Note_on_c, 4, 74, 76
10, 200213, Note_on_c, 4, 74, 0
10, 200220, Note_on_c, 4, 69, 76
10, 200273, Note_on_c, 4, 69, 0
10, 200280, Note_on_c, 4, 78, 76
10, 200813, Note_on_c, 4, 78, 0
10, 200820, Note_on_c, 4, 76, 76
10, 200873, Note_on_c, 4, 76, 0
10, 200880, Note_on_c, 4, 74, 76
10, 200933, Note_on_c, 4, 74, 0
10, 200940, Note_on_c, 4, 76, 76
10, 200993, Note_on_c, 4, 76, 0
10, 201000, Note_on_c, 4, 78, 76
10, 201053, Note_on_c, 4, 78, 0
10, 201060, Note_on_c, 4, 76, 76
10, 201113, Note_on_c, 4, 76, 0
10, 201120, Note_on_c, 4, 78, 76
10, 201173, Note_on_c, 4, 78, 0
10, 201180, Note_on_c, 4, 74, 76
10, 201233, Note_on_c, 4, 74, 0
10, 201240, Note_on_c, 4, 81, 76
10, 201773, Note_on_c, 4, 81, 0
10, 201780, Note_on_c, 4, 79, 76
10, 201833, Note_on_c, 4, 79, 0
10, 201840, Note_on_c, 4, 78, 76
10, 201893, Note_on_c, 4, 78, 0
10, 201900, Note_on_c, 4, 79, 76
10, 201953, Note_on_c, 4, 79, 0
10, 201960, Note_on_c, 4, 81, 76
10, 202013, Note_on_c, 4, 81, 0
10, 202020, Note_on_c, 4, 79, 76
10, 202073, Note_on_c, 4, 79, 0
10, 202080, Note_on_c, 4, 81, 76
10, 202133, Note_on_c, 4, 81, 0
10, 202140, Note_on_c, 4, 78, 76
10, 202193, Note_on_c, 4, 78, 0
10, 202200, Note_on_c, 4, 71, 76
10, 202373, Note_on_c, 4, 71, 0
10, 202380, Note_on_c, 4, 81, 76
10, 202433, Note_on_c, 4, 81, 0
10, 202440, Note_on_c, 4, 83, 76
10, 202613, Note_on_c, 4, 83, 0
10, 202620, Note_on_c, 4, 78, 76
10, 202673, Note_on_c, 4, 78, 0
10, 202680, Note_on_c, 4, 79, 76
10, 203749, Note_on_c, 4, 79, 0
10, 203760, Note_on_c, 4, 69, 76
10, 203813, Note_on_c, 4, 69, 0
10, 203820, Note_on_c, 4, 71, 76
10, 203873, Note_on_c, 4, 71, 0
10, 203880, Note_on_c, 4, 73, 76
10, 203933, Note_on_c, 4, 73, 0
10, 203940, Note_on_c, 4, 74, 76
10, 203993, Note_on_c, 4, 74, 0
10, 204000, Note_on_c, 4, 76, 76
10, 204053, Note_on_c, 4, 76, 0
10, 204060, Note_on_c, 4, 78, 76
10, 204113, Note_on_c, 4, 78, 0
10, 204120, Note_on_c, 4, 79, 76
10, 204173, Note_on_c, 4, 79, 0
10, 204180, Note_on_c, 4, 78, 76
10, 204233, Note_on_c, 4, 78, 0
10, 204240, Note_on_c, 4, 76, 76
10, 204293, Note_on_c, 4, 76, 0
10, 204300, Note_on_c, 4, 78, 76
10, 204353, Note_on_c, 4, 78, 0
10, 204360, Note_on_c, 4, 79, 76
10, 204413, Note_on_c, 4, 79, 0
10, 204420, Note_on_c, 4, 76, 76
10, 204473, Note_on_c, 4, 76, 0
10, 204480, Note_on_c, 4, 81, 76
10, 204533, Note_on_c, 4, 81, 0
10, 204540, Note_on_c, 4, 76, 76
10, 204593, Note_on_c, 4, 76, 0
10, 204600, Note_on_c, 4, 78, 76
10, 204893, Note_on_c, 4, 78, 0
10, 204900, Note_on_c, 4, 76, 76
10, 204953, Note_on_c, 4, 76, 0
10, 204960, Note_on_c, 4, 78, 76
10, 205013, Note_on_c, 4, 78, 0
10, 205020, Note_on_c, 4, 74, 76
10, 205073, Note_on_c, 4, 74, 0
10, 205080, Note_on_c, 4, 81, 76
10, 205853, Note_on_c, 4, 81, 0
10, 205860, Note_on_c, 4, 79, 76
10, 205913, Note_on_c, 4, 79, 0
10, 205920, Note_on_c, 4, 81, 76
10, 205973, Note_on_c, 4, 81, 0
10, 205980, Note_on_c, 4, 78, 76
10, 206033, Note_on_c, 4, 78, 0
10, 206040, Note_on_c, 4, 79, 76
10, 206813, Note_on_c, 4, 79, 0
10, 206820, Note_on_c, 4, 78, 76
10, 206873, Note_on_c, 4, 78, 0
10, 206880, Note_on_c, 4, 79, 76
10, 206933, Note_on_c, 4, 79, 0
10, 206940, Note_on_c, 4, 76, 76
10, 206993, Note_on_c, 4, 76, 0
10, 207000, Note_on_c, 4, 78, 76
10, 207053, Note_on_c, 4, 78, 0
10, 207060, Note_on_c, 4, 81, 76
10, 207113, Note_on_c, 4, 81, 0
10, 207120, Note_on_c, 4, 86, 76
10, 207173, Note_on_c, 4, 86, 0
10, 207180, Note_on_c, 4, 85, 76
10, 207233, Note_on_c, 4, 85, 0
10, 207240, Note_on_c, 4, 83, 76
10, 207293, Note_on_c, 4, 83, 0
10, 207300, Note_on_c, 4, 81, 76
10, 207353, Note_on_c, 4, 81, 0
10, 207360, Note_on_c, 4, 79, 76
10, 207413, Note_on_c, 4, 79, 0
10, 207420, Note_on_c, 4, 78, 76
10, 207473, Note_on_c, 4, 78, 0
10, 207480, Note_on_c, 4, 79, 76
10, 207829, Note_on_c, 4, 79, 0
10, 207840, Note_on_c, 4, 79, 76
10, 207949, Note_on_c, 4, 79, 0
10, 207960, Note_on_c, 4, 79, 76
10, 208133, Note_on_c, 4, 79, 0
10, 208140, Note_on_c, 4, 76, 76
10, 208193, Note_on_c, 4, 76, 0
10, 208200, Note_on_c, 4, 81, 76
10, 208373, Note_on_c, 4, 81, 0
10, 208380, Note_on_c, 4, 76, 76
10, 208433, Note_on_c, 4, 76, 0
10, 208440, Note_on_c, 4, 78, 76
10, 208669, Note_on_c, 4, 78, 0
10, 208680, Note_on_c, 4, 74, 76
10, 208909, Note_on_c, 4, 74, 0
10, 208920, Note_on_c, 4, 71, 76
10, 209453, Note_on_c, 4, 71, 0
10, 209460, Note_on_c, 4, 71, 76
10, 209513, Note_on_c, 4, 71, 0
10, 209520, Note_on_c, 4, 73, 76
10, 209573, Note_on_c, 4, 73, 0
10, 209580, Note_on_c, 4, 74, 76
10, 209633, Note_on_c, 4, 74, 0
10, 209640, Note_on_c, 4, 76, 76
10, 209693, Note_on_c, 4, 76, 0
10, 209700, Note_on_c, 4, 74, 76
10, 209753, Note_on_c, 4, 74, 0
10, 209760, Note_on_c, 4, 76, 76
10, 209813, Note_on_c, 4, 76, 0
10, 209820, Note_on_c, 4, 73, 76
10, 209873, Note_on_c, 4, 73, 0
10, 209880, Note_on_c, 4, 66, 76
10, 210053, Note_on_c, 4, 66, 0
10, 210060, Note_on_c, 4, 76, 76
10, 210113, Note_on_c, 4, 76, 0
10, 210120, Note_on_c, 4, 74, 76
10, 210293, Note_on_c, 4, 74, 0
10, 210300, Note_on_c, 4, 73, 76
10, 210353, Note_on_c, 4, 73, 0
10, 210360, Note_on_c, 4, 74, 76
10, 210653, Note_on_c, 4, 74, 0
10, 210660, Note_on_c, 4, 73, 76
10, 210713, Note_on_c, 4, 73, 0
10, 210720, Note_on_c, 4, 74, 76
10, 210773, Note_on_c, 4, 74, 0
10, 210780, Note_on_c, 4, 71, 76
10, 210833, Note_on_c, 4, 71, 0
10, 210840, Note_on_c, 4, 67, 76
10, 211373, Note_on_c, 4, 67, 0
10, 211380, Note_on_c, 4, 66, 76
10, 211433, Note_on_c, 4, 66, 0
10, 211440, Note_on_c, 4, 67, 76
10, 211493, Note_on_c, 4, 67, 0
10, 211500, Note_on_c, 4, 64, 76
10, 211553, Note_on_c, 4, 64, 0
10, 211560, Note_on_c, 4, 66, 76
10, 211733, Note_on_c, 4, 66, 0
10, 211740, Note_on_c, 4, 67, 76
10, 211793, Note_on_c, 4, 67, 0
10, 211800, Note_on_c, 4, 69, 76
10, 211973, Note_on_c, 4, 69, 0
10, 211980, Note_on_c, 4, 71, 76
10, 212033, Note_on_c, 4, 71, 0
10, 212040, Note_on_c, 4, 73, 76
10, 212213, Note_on_c, 4, 73, 0
10, 212220, Note_on_c, 4, 74, 76
10, 212273, Note_on_c, 4, 74, 0
10, 212280, Note_on_c, 4, 73, 76
10, 212333, Note_on_c, 4, 73, 0
10, 212340, Note_on_c, 4, 74, 76
10, 212393, Note_on_c, 4, 74, 0
10, 212400, Note_on_c, 4, 76, 76
10, 212453, Note_on_c, 4, 76, 0
10, 212460, Note_on_c, 4, 73, 76
10, 212513, Note_on_c, 4, 73, 0
10, 212520, Note_on_c, 4, 69, 76
10, 212813, Note_on_c, 4, 69, 0
10, 212820, Note_on_c, 4, 71, 76
10, 212873, Note_on_c, 4, 71, 0
10, 212880, Note_on_c, 4, 73, 76
10, 212933, Note_on_c, 4, 73, 0
10, 212940, Note_on_c, 4, 69, 76
10, 212993, Note_on_c, 4, 69, 0
10, 213000, Note_on_c, 4, 76, 76
10, 213293, Note_on_c, 4, 76, 0
10, 213300, Note_on_c, 4, 74, 76
10, 213353, Note_on_c, 4, 74, 0
10, 213360, Note_on_c, 4, 76, 76
10, 213413, Note_on_c, 4, 76, 0
10, 213420, Note_on_c, 4, 73, 76
10, 213473, Note_on_c, 4, 73, 0
10, 213480, Note_on_c, 4, 74, 76
10, 213773, Note_on_c, 4, 74, 0
10, 213780, Note_on_c, 4, 73, 76
10, 213833, Note_on_c, 4, 73, 0
10, 213840, Note_on_c, 4, 74, 76
10, 213893, Note_on_c, 4, 74, 0
10, 213900, Note_on_c, 4, 69, 76
10, 213953, Note_on_c, 4, 69, 0
10, 213960, Note_on_c, 4, 78, 76
10, 214253, Note_on_c, 4, 78, 0
10, 214260, Note_on_c, 4, 76, 76
10, 214313, Note_on_c, 4, 76, 0
10, 214320, Note_on_c, 4, 78, 76
10, 214373, Note_on_c, 4, 78, 0
10, 214380, Note_on_c, 4, 74, 76
10, 214433, Note_on_c, 4, 74, 0
10, 214440, Note_on_c, 4, 76, 76
10, 214733, Note_on_c, 4, 76, 0
10, 214740, Note_on_c, 4, 74, 76
10, 214793, Note_on_c, 4, 74, 0
10, 214800, Note_on_c, 4, 76, 76
10, 214853, Note_on_c, 4, 76, 0
10, 214860, Note_on_c, 4, 73, 76
10, 214913, Note_on_c, 4, 73, 0
10, 214920, Note_on_c, 4, 79, 76
10, 215213, Note_on_c, 4, 79, 0
10, 215220, Note_on_c, 4, 77, 76
10, 215273, Note_on_c, 4, 77, 0
10, 215280, Note_on_c, 4, 79, 76
10, 215333, Note_on_c, 4, 79, 0
10, 215340, Note_on_c, 4, 76, 76
10, 215393, Note_on_c, 4, 76, 0
10, 215400, Note_on_c, 4, 77, 76
10, 215693, Note_on_c, 4, 77, 0
10, 215700, Note_on_c, 4, 76, 76
10, 215753, Note_on_c, 4, 76, 0
10, 215760, Note_on_c, 4, 77, 76
10, 215813, Note_on_c, 4, 77, 0
10, 215820, Note_on_c, 4, 74, 76
10, 215873, Note_on_c, 4, 74, 0
10, 215880, Note_on_c, 4, 76, 76
10, 216173, Note_on_c, 4, 76, 0
10, 216180, Note_on_c, 4, 74, 76
10, 216233, Note_on_c, 4, 74, 0
10, 216240, Note_on_c, 4, 76, 76
10, 216293, Note_on_c, 4, 76, 0
10, 216300, Note_on_c, 4, 73, 76
10, 216353, Note_on_c, 4, 73, 0
10, 216360, Note_on_c, 4, 74, 76
10, 216413, Note_on_c, 4, 74, 0
10, 216420, Note_on_c, 4, 73, 76
10, 216473, Note_on_c, 4, 73, 0
10, 216480, Note_on_c, 4, 74, 76
10, 216533, Note_on_c, 4, 74, 0
10, 216540, Note_on_c, 4, 71, 76
10, 216593, Note_on_c, 4, 71, 0
10, 216600, Note_on_c, 4, 72, 76
10, 217133, Note_on_c, 4, 72, 0
10, 217140, Note_on_c, 4, 71, 76
10, 217193, Note_on_c, 4, 71, 0
10, 217200, Note_on_c, 4, 72, 76
10, 217253, Note_on_c, 4, 72, 0
10, 217260, Note_on_c, 4, 69, 76
10, 217313, Note_on_c, 4, 69, 0
10, 217320, Note_on_c, 4, 71, 76
10, 217493, Note_on_c, 4, 71, 0
10, 217500, Note_on_c, 4, 73, 76
10, 217553, Note_on_c, 4, 73, 0
10, 217560, Note_on_c, 4, 74, 76
10, 217909, Note_on_c, 4, 74, 0
10, 217920, Note_on_c, 4, 76, 76
10, 218029, Note_on_c, 4, 76, 0
10, 218040, Note_on_c, 4, 69, 76
10, 218213, Note_on_c, 4, 69, 0
10, 218220, Note_on_c, 4, 79, 76
10, 218273, Note_on_c, 4, 79, 0
10, 218280, Note_on_c, 4, 78, 76
10, 218453, Note_on_c, 4, 78, 0
10, 218460, Note_on_c, 4, 76, 76
10, 218513, Note_on_c, 4, 76, 0
10, 218520, Note_on_c, 4, 73, 76
10, 218534, Note_on_c, 4, 73, 0
10, 218535, Note_on_c, 4, 74, 76
10, 218549, Note_on_c, 4, 74, 0
10, 218550, Note_on_c, 4, 73, 76
10, 218564, Note_on_c, 4, 73, 0
10, 218565, Note_on_c, 4, 74, 76
10, 218579, Note_on_c, 4, 74, 0
10, 218580, Note_on_c, 4, 73, 76
10, 218594, Note_on_c, 4, 73, 0
10, 218595, Note_on_c, 4, 74, 76
10, 218609, Note_on_c, 4, 74, 0
10, 218610, Note_on_c, 4, 73, 76
10, 218624, Note_on_c, 4, 73, 0
10, 218625, Note_on_c, 4, 74, 76
10, 218639, Note_on_c, 4, 74, 0
10, 218640, Note_on_c, 4, 73, 76
10, 218654, Note_on_c, 4, 73, 0
10, 218655, Note_on_c, 4, 74, 76
10, 218669, Note_on_c, 4, 74, 0
10, 218670, Note_on_c, 4, 73, 76
10, 218684, Note_on_c, 4, 73, 0
10, 218685, Note_on_c, 4, 74, 76
10, 218699, Note_on_c, 4, 74, 0
10, 218700, Note_on_c, 4, 73, 76
10, 218714, Note_on_c, 4, 73, 0
10, 218715, Note_on_c, 4, 74, 76
10, 218729, Note_on_c, 4, 74, 0
10, 218730, Note_on_c, 4, 73, 76
10, 218744, Note_on_c, 4, 73, 0
10, 218745, Note_on_c, 4, 74, 76
10, 218759, Note_on_c, 4, 74, 0
10, 218760, Note_on_c, 4, 73, 76
10, 218774, Note_on_c, 4, 73, 0
10, 218775, Note_on_c, 4, 74, 76
10, 218789, Note_on_c, 4, 74, 0
10, 218790, Note_on_c, 4, 73, 76
10, 218804, Note_on_c, 4, 73, 0
10, 218805, Note_on_c, 4, 74, 76
10, 218819, Note_on_c, 4, 74, 0
10, 218820, Note_on_c, 4, 73, 76
10, 218834, Note_on_c, 4, 73, 0
10, 218835, Note_on_c, 4, 74, 76
10, 218849, Note_on_c, 4, 74, 0
10, 218850, Note_on_c, 4, 71, 76
10, 218864, Note_on_c, 4, 71, 0
10, 218865, Note_on_c, 4, 73, 76
10, 218879, Note_on_c, 4, 73, 0
10, 218880, Note_on_c, 4, 74, 76
10, 218989, Note_on_c, 4, 74, 0
10, 219000, Note_on_c, 4, 74, 76
10, 219719, Note_on_c, 4, 74, 0
10, 224640, Note_on_c, 4, 81, 76
10, 224739, Note_on_c, 4, 81, 0
10, 224760, Note_on_c, 4, 81, 76
10, 224879, Note_on_c, 4, 81, 0
10, 224880, Note_on_c, 4, 83, 76
10, 224979, Note_on_c, 4, 83, 0
10, 225000, Note_on_c, 4, 79, 76
10, 225099, Note_on_c, 4, 79, 0
10, 225120, Note_on_c, 4, 79, 76
10, 225239, Note_on_c, 4, 79, 0
10, 225240, Note_on_c, 4, 81, 76
10, 225339, Note_on_c, 4, 81, 0
10, 225360, Note_on_c, 4, 78, 76
10, 225459, Note_on_c, 4, 78, 0
10, 225480, Note_on_c, 4, 78, 76
10, 225599, Note_on_c, 4, 78, 0
10, 225600, Note_on_c, 4, 79, 76
10, 225719, Note_on_c, 4, 79, 0
10, 225720, Note_on_c, 4, 81, 76
10, 225819, Note_on_c, 4, 81, 0
10, 225840, Note_on_c, 4, 83, 76
10, 225959, Note_on_c, 4, 83, 0
10, 225960, Note_on_c, 4, 84, 76
10, 226059, Note_on_c, 4, 84, 0
10, 226080, Note_on_c, 4, 81, 76
10, 226179, Note_on_c, 4, 81, 0
10, 226200, Note_on_c, 4, 81, 76
10, 226319, Note_on_c, 4, 81, 0
10, 226320, Note_on_c, 4, 83, 76
10, 226419, Note_on_c, 4, 83, 0
10, 226440, Note_on_c, 4, 79, 76
10, 226539, Note_on_c, 4, 79, 0
10, 226560, Note_on_c, 4, 79, 76
10, 226814, Note_on_c, 4, 79, 0
10, 226830, Note_on_c, 4, 79, 76
10, 226904, Note_on_c, 4, 79, 0
10, 226920, Note_on_c, 4, 79, 76
10, 227174, Note_on_c, 4, 79, 0
10, 227190, Note_on_c, 4, 79, 76
10, 227264, Note_on_c, 4, 79, 0
10, 227280, Note_on_c, 4, 79, 76
10, 227534, Note_on_c, 4, 79, 0
10, 227550, Note_on_c, 4, 79, 76
10, 227624, Note_on_c, 4, 79, 0
10, 227640, Note_on_c, 4, 79, 76
10, 227759, Note_on_c, 4, 79, 0
10, 227760, Note_on_c, 4, 76, 76
10, 227879, Note_on_c, 4, 76, 0
10, 227880, Note_on_c, 4, 78, 76
10, 227979, Note_on_c, 4, 78, 0
10, 228000, Note_on_c, 4, 79, 76
10, 228119, Note_on_c, 4, 79, 0
10, 228120, Note_on_c, 4, 81, 76
10, 228219, Note_on_c, 4, 81, 0
10, 228240, Note_on_c, 4, 78, 76
10, 228339, Note_on_c, 4, 78, 0
10, 228360, Note_on_c, 4, 79, 76
10, 228479, Note_on_c, 4, 79, 0
10, 228480, Note_on_c, 4, 78, 76
10, 228599, Note_on_c, 4, 78, 0
10, 228600, Note_on_c, 4, 76, 76
10, 228699, Note_on_c, 4, 76, 0
10, 228720, Note_on_c, 4, 78, 76
10, 228839, Note_on_c, 4, 78, 0
10, 228840, Note_on_c, 4, 74, 76
10, 228959, Note_on_c, 4, 74, 0
10, 228960, Note_on_c, 4, 76, 76
10, 229059, Note_on_c, 4, 76, 0
10, 229080, Note_on_c, 4, 78, 76
10, 229199, Note_on_c, 4, 78, 0
10, 229200, Note_on_c, 4, 79, 76
10, 229299, Note_on_c, 4, 79, 0
10, 229320, Note_on_c, 4, 76, 76
10, 229419, Note_on_c, 4, 76, 0
10, 229440, Note_on_c, 4, 76, 76
10, 229559, Note_on_c, 4, 76, 0
10, 229560, Note_on_c, 4, 78, 76
10, 229659, Note_on_c, 4, 78, 0
10, 229680, Note_on_c, 4, 74, 76
10, 229779, Note_on_c, 4, 74, 0
10, 229800, Note_on_c, 4, 74, 76
10, 230054, Note_on_c, 4, 74, 0
10, 230070, Note_on_c, 4, 74, 76
10, 230144, Note_on_c, 4, 74, 0
10, 230160, Note_on_c, 4, 74, 76
10, 230414, Note_on_c, 4, 74, 0
10, 230430, Note_on_c, 4, 74, 76
10, 230504, Note_on_c, 4, 74, 0
10, 230520, Note_on_c, 4, 74, 76
10, 230774, Note_on_c, 4, 74, 0
10, 230790, Note_on_c, 4, 74, 76
10, 230864, Note_on_c, 4, 74, 0
10, 230880, Note_on_c, 4, 74, 76
10, 230999, Note_on_c, 4, 74, 0
10, 231000, Note_on_c, 4, 71, 76
10, 231119, Note_on_c, 4, 71, 0
10, 231120, Note_on_c, 4, 73, 76
10, 231219, Note_on_c, 4, 73, 0
10, 231240, Note_on_c, 4, 74, 76
10, 231359, Note_on_c, 4, 74, 0
10, 231360, Note_on_c, 4, 83, 76
10, 231459, Note_on_c, 4, 83, 0
10, 231480, Note_on_c, 4, 73, 76
10, 231579, Note_on_c, 4, 73, 0
10, 231600, Note_on_c, 4, 74, 76
10, 231719, Note_on_c, 4, 74, 0
10, 231720, Note_on_c, 4, 73, 76
10, 231839, Note_on_c, 4, 73, 0
10, 231840, Note_on_c, 4, 71, 76
10, 231939, Note_on_c, 4, 71, 0
10, 231960, Note_on_c, 4, 73, 76
10, 232079, Note_on_c, 4, 73, 0
10, 232080, Note_on_c, 4, 69, 76
10, 232199, Note_on_c, 4, 69, 0
10, 232200, Note_on_c, 4, 71, 76
10, 232299, Note_on_c, 4, 71, 0
10, 232320, Note_on_c, 4, 72, 76
10, 232439, Note_on_c, 4, 72, 0
10, 232440, Note_on_c, 4, 81, 76
10, 232539, Note_on_c, 4, 81, 0
10, 232560, Note_on_c, 4, 71, 76
10, 232659, Note_on_c, 4, 71, 0
10, 232680, Note_on_c, 4, 72, 76
10, 232799, Note_on_c, 4, 72, 0
10, 232800, Note_on_c, 4, 71, 76
10, 232919, Note_on_c, 4, 71, 0
10, 232920, Note_on_c, 4, 69, 76
10, 233019, Note_on_c, 4, 69, 0
10, 233040, Note_on_c, 4, 71, 76
10, 233294, Note_on_c, 4, 71, 0
10, 233310, Note_on_c, 4, 83, 76
10, 233384, Note_on_c, 4, 83, 0
10, 233400, Note_on_c, 4, 83, 76
10, 233519, Note_on_c, 4, 83, 0
10, 233520, Note_on_c, 4, 84, 76
10, 233619, Note_on_c, 4, 84, 0
10, 233640, Note_on_c, 4, 81, 76
10, 233739, Note_on_c, 4, 81, 0
10, 233760, Note_on_c, 4, 81, 76
10, 233879, Note_on_c, 4, 81, 0
10, 233880, Note_on_c, 4, 83, 76
10, 233979, Note_on_c, 4, 83, 0
10, 234000, Note_on_c, 4, 79, 76
10, 234099, Note_on_c, 4, 79, 0
10, 234120, Note_on_c, 4, 79, 76
10, 234239, Note_on_c, 4, 79, 0
10, 234240, Note_on_c, 4, 76, 76
10, 234359, Note_on_c, 4, 76, 0
10, 234360, Note_on_c, 4, 78, 76
10, 234459, Note_on_c, 4, 78, 0
10, 234480, Note_on_c, 4, 80, 76
10, 234599, Note_on_c, 4, 80, 0
10, 234600, Note_on_c, 4, 81, 76
10, 234699, Note_on_c, 4, 81, 0
10, 234720, Note_on_c, 4, 83, 76
10, 234819, Note_on_c, 4, 83, 0
10, 234840, Note_on_c, 4, 76, 76
10, 235094, Note_on_c, 4, 76, 0
10, 235110, Note_on_c, 4, 80, 76
10, 235184, Note_on_c, 4, 80, 0
10, 235200, Note_on_c, 4, 69, 76
10, 235319, Note_on_c, 4, 69, 0
10, 235320, Note_on_c, 4, 73, 76
10, 235439, Note_on_c, 4, 73, 0
10, 235440, Note_on_c, 4, 76, 76
10, 235539, Note_on_c, 4, 76, 0
10, 235560, Note_on_c, 4, 81, 76
10, 235679, Note_on_c, 4, 81, 0
10, 235680, Note_on_c, 4, 83, 76
10, 235779, Note_on_c, 4, 83, 0
10, 235800, Note_on_c, 4, 79, 76
10, 235899, Note_on_c, 4, 79, 0
10, 235920, Note_on_c, 4, 79, 76
10, 236039, Note_on_c, 4, 79, 0
10, 236040, Note_on_c, 4, 81, 76
10, 236139, Note_on_c, 4, 81, 0
10, 236160, Note_on_c, 4, 78, 76
10, 236259, Note_on_c, 4, 78, 0
10, 236280, Note_on_c, 4, 78, 76
10, 236399, Note_on_c, 4, 78, 0
10, 236400, Note_on_c, 4, 74, 76
10, 236519, Note_on_c, 4, 74, 0
10, 236520, Note_on_c, 4, 76, 76
10, 236619, Note_on_c, 4, 76, 0
10, 236640, Note_on_c, 4, 78, 76
10, 236759, Note_on_c, 4, 78, 0
10, 236760, Note_on_c, 4, 79, 76
10, 236859, Note_on_c, 4, 79, 0
10, 236880, Note_on_c, 4, 81, 76
10, 236979, Note_on_c, 4, 81, 0
10, 237000, Note_on_c, 4, 74, 76
10, 237254, Note_on_c, 4, 74, 0
10, 237270, Note_on_c, 4, 78, 76
10, 237344, Note_on_c, 4, 78, 0
10, 237360, Note_on_c, 4, 67, 76
10, 237479, Note_on_c, 4, 67, 0
10, 237480, Note_on_c, 4, 71, 76
10, 237599, Note_on_c, 4, 71, 0
10, 237600, Note_on_c, 4, 74, 76
10, 237699, Note_on_c, 4, 74, 0
10, 237720, Note_on_c, 4, 79, 76
10, 237839, Note_on_c, 4, 79, 0
10, 237840, Note_on_c, 4, 81, 76
10, 237939, Note_on_c, 4, 81, 0
10, 237960, Note_on_c, 4, 78, 76
10, 238059, Note_on_c, 4, 78, 0
10, 238080, Note_on_c, 4, 78, 76
10, 238199, Note_on_c, 4, 78, 0
10, 238200, Note_on_c, 4, 79, 76
10, 238299, Note_on_c, 4, 79, 0
10, 238320, Note_on_c, 4, 76, 76
10, 238419, Note_on_c, 4, 76, 0
10, 238440, Note_on_c, 4, 76, 76
10, 238559, Note_on_c, 4, 76, 0
10, 238560, Note_on_c, 4, 78, 76
10, 238679, Note_on_c, 4, 78, 0
10, 238680, Note_on_c, 4, 79, 76
10, 238779, Note_on_c, 4, 79, 0
10, 238800, Note_on_c, 4, 81, 76
10, 238919, Note_on_c, 4, 81, 0
10, 238920, Note_on_c, 4, 83, 76
10, 239019, Note_on_c, 4, 83, 0
10, 239040, Note_on_c, 4, 79, 76
10, 239139, Note_on_c, 4, 79, 0
10, 239160, Note_on_c, 4, 79, 76
10, 239279, Note_on_c, 4, 79, 0
10, 239280, Note_on_c, 4, 81, 76
10, 239379, Note_on_c, 4, 81, 0
10, 239400, Note_on_c, 4, 78, 76
10, 239499, Note_on_c, 4, 78, 0
10, 239520, Note_on_c, 4, 78, 76
10, 239639, Note_on_c, 4, 78, 0
10, 239640, Note_on_c, 4, 79, 76
10, 239759, Note_on_c, 4, 79, 0
10, 239760, Note_on_c, 4, 81, 76
10, 239859, Note_on_c, 4, 81, 0
10, 239880, Note_on_c, 4, 83, 76
10, 239999, Note_on_c, 4, 83, 0
10, 240000, Note_on_c, 4, 84, 76
10, 240099, Note_on_c, 4, 84, 0
10, 240120, Note_on_c, 4, 81, 76
10, 240219, Note_on_c, 4, 81, 0
10, 240240, Note_on_c, 4, 81, 76
10, 240359, Note_on_c, 4, 81, 0
10, 240360, Note_on_c, 4, 83, 76
10, 240459, Note_on_c, 4, 83, 0
10, 240480, Note_on_c, 4, 79, 76
10, 240579, Note_on_c, 4, 79, 0
10, 240600, Note_on_c, 4, 79, 76
10, 240854, Note_on_c, 4, 79, 0
10, 240870, Note_on_c, 4, 79, 76
10, 240944, Note_on_c, 4, 79, 0
10, 240960, Note_on_c, 4, 79, 76
10, 241214, Note_on_c, 4, 79, 0
10, 241230, Note_on_c, 4, 79, 76
10, 241304, Note_on_c, 4, 79, 0
10, 241320, Note_on_c, 4, 79, 76
10, 241574, Note_on_c, 4, 79, 0
10, 241590, Note_on_c, 4, 79, 76
10, 241664, Note_on_c, 4, 79, 0
10, 241680, Note_on_c, 4, 79, 76
10, 241799, Note_on_c, 4, 79, 0
10, 241800, Note_on_c, 4, 76, 76
10, 241919, Note_on_c, 4, 76, 0
10, 241920, Note_on_c, 4, 78, 76
10, 242019, Note_on_c, 4, 78, 0
10, 242040, Note_on_c, 4, 79, 76
10, 242159, Note_on_c, 4, 79, 0
10, 242160, Note_on_c, 4, 81, 76
10, 242259, Note_on_c, 4, 81, 0
10, 242280, Note_on_c, 4, 78, 76
10, 242379, Note_on_c, 4, 78, 0
10, 242400, Note_on_c, 4, 79, 76
10, 242519, Note_on_c, 4, 79, 0
10, 242520, Note_on_c, 4, 78, 76
10, 242639, Note_on_c, 4, 78, 0
10, 242640, Note_on_c, 4, 76, 76
10, 242739, Note_on_c, 4, 76, 0
10, 242760, Note_on_c, 4, 78, 76
10, 242879, Note_on_c, 4, 78, 0
10, 242880, Note_on_c, 4, 81, 76
10, 242999, Note_on_c, 4, 81, 0
10, 243000, Note_on_c, 4, 79, 76
10, 243099, Note_on_c, 4, 79, 0
10, 243120, Note_on_c, 4, 81, 76
10, 243374, Note_on_c, 4, 81, 0
10, 243390, Note_on_c, 4, 74, 76
10, 243464, Note_on_c, 4, 74, 0
10, 243480, Note_on_c, 4, 69, 76
10, 243734, Note_on_c, 4, 69, 0
10, 243750, Note_on_c, 4, 73, 76
10, 243824, Note_on_c, 4, 73, 0
10, 243840, Note_on_c, 4, 74, 76
10, 246119, Note_on_c, 4, 74, 0
10, 246120, Note_on_c, 4, 73, 76
10, 246239, Note_on_c, 4, 73, 0
10, 246240, Note_on_c, 4, 74, 76
10, 246339, Note_on_c, 4, 74, 0
10, 246360, Note_on_c, 4, 74, 76
10, 246479, Note_on_c, 4, 74, 0
10, 246480, Note_on_c, 4, 76, 76
10, 246579, Note_on_c, 4, 76, 0
10, 246600, Note_on_c, 4, 72, 76
10, 246699, Note_on_c, 4, 72, 0
10, 246720, Note_on_c, 4, 72, 76
10, 246839, Note_on_c, 4, 72, 0
10, 246840, Note_on_c, 4, 74, 76
10, 246939, Note_on_c, 4, 74, 0
10, 246960, Note_on_c, 4, 71, 76
10, 247059, Note_on_c, 4, 71, 0
10, 247080, Note_on_c, 4, 71, 76
10, 247199, Note_on_c, 4, 71, 0
10, 247200, Note_on_c, 4, 74, 76
10, 247319, Note_on_c, 4, 74, 0
10, 247320, Note_on_c, 4, 76, 76
10, 247419, Note_on_c, 4, 76, 0
10, 247440, Note_on_c, 4, 76, 76
10, 247559, Note_on_c, 4, 76, 0
10, 247560, Note_on_c, 4, 78, 76
10, 247659, Note_on_c, 4, 78, 0
10, 247680, Note_on_c, 4, 74, 76
10, 247779, Note_on_c, 4, 74, 0
10, 247800, Note_on_c, 4, 74, 76
10, 247919, Note_on_c, 4, 74, 0
10, 247920, Note_on_c, 4, 76, 76
10, 248019, Note_on_c, 4, 76, 0
10, 248040, Note_on_c, 4, 73, 76
10, 248139, Note_on_c, 4, 73, 0
10, 248160, Note_on_c, 4, 73, 76
10, 248279, Note_on_c, 4, 73, 0
10, 248280, Note_on_c, 4, 76, 76
10, 248399, Note_on_c, 4, 76, 0
10, 248400, Note_on_c, 4, 78, 76
10, 248499, Note_on_c, 4, 78, 0
10, 248520, Note_on_c, 4, 78, 76
10, 248639, Note_on_c, 4, 78, 0
10, 248640, Note_on_c, 4, 79, 76
10, 248739, Note_on_c, 4, 79, 0
10, 248760, Note_on_c, 4, 76, 76
10, 248859, Note_on_c, 4, 76, 0
10, 248880, Note_on_c, 4, 76, 76
10, 248999, Note_on_c, 4, 76, 0
10, 249000, Note_on_c, 4, 78, 76
10, 249099, Note_on_c, 4, 78, 0
10, 249120, Note_on_c, 4, 74, 76
10, 249219, Note_on_c, 4, 74, 0
10, 249240, Note_on_c, 4, 74, 76
10, 249359, Note_on_c, 4, 74, 0
10, 249360, Note_on_c, 4, 76, 76
10, 249479, Note_on_c, 4, 76, 0
10, 249480, Note_on_c, 4, 78, 76
10, 249579, Note_on_c, 4, 78, 0
10, 249600, Note_on_c, 4, 78, 76
10, 250659, Note_on_c, 4, 78, 0
10, 250680, Note_on_c, 4, 76, 76
10, 251019, Note_on_c, 4, 76, 0
10, 251040, Note_on_c, 4, 79, 76
10, 251499, Note_on_c, 4, 79, 0
10, 251520, Note_on_c, 4, 73, 76
10, 251639, Note_on_c, 4, 73, 0
10, 251640, Note_on_c, 4, 74, 76
10, 251759, Note_on_c, 4, 74, 0
10, 251760, Note_on_c, 4, 76, 76
10, 251879, Note_on_c, 4, 76, 0
10, 251880, Note_on_c, 4, 85, 76
10, 251979, Note_on_c, 4, 85, 0
10, 252000, Note_on_c, 4, 75, 76
10, 252099, Note_on_c, 4, 75, 0
10, 252120, Note_on_c, 4, 76, 76
10, 252239, Note_on_c, 4, 76, 0
10, 252240, Note_on_c, 4, 75, 76
10, 252359, Note_on_c, 4, 75, 0
10, 252360, Note_on_c, 4, 73, 76
10, 252459, Note_on_c, 4, 73, 0
10, 252480, Note_on_c, 4, 75, 76
10, 252819, Note_on_c, 4, 75, 0
10, 252840, Note_on_c, 4, 78, 76
10, 253179, Note_on_c, 4, 78, 0
10, 253200, Note_on_c, 4, 83, 76
10, 253659, Note_on_c, 4, 83, 0
10, 253680, Note_on_c, 4, 71, 76
10, 253799, Note_on_c, 4, 71, 0
10, 253800, Note_on_c, 4, 73, 76
10, 253919, Note_on_c, 4, 73, 0
10, 253920, Note_on_c, 4, 74, 76
10, 254039, Note_on_c, 4, 74, 0
10, 254040, Note_on_c, 4, 83, 76
10, 254139, Note_on_c, 4, 83, 0
10, 254160, Note_on_c, 4, 73, 76
10, 254259, Note_on_c, 4, 73, 0
10, 254280, Note_on_c, 4, 74, 76
10, 254399, Note_on_c, 4, 74, 0
10, 254400, Note_on_c, 4, 73, 76
10, 254519, Note_on_c, 4, 73, 0
10, 254520, Note_on_c, 4, 71, 76
10, 254619, Note_on_c, 4, 71, 0
10, 254640, Note_on_c, 4, 73, 76
10, 254979, Note_on_c, 4, 73, 0
10, 255000, Note_on_c, 4, 76, 76
10, 255339, Note_on_c, 4, 76, 0
10, 255360, Note_on_c, 4, 81, 76
10, 255819, Note_on_c, 4, 81, 0
10, 255840, Note_on_c, 4, 73, 76
10, 255959, Note_on_c, 4, 73, 0
10, 255960, Note_on_c, 4, 74, 76
10, 256079, Note_on_c, 4, 74, 0
10, 256080, Note_on_c, 4, 76, 76
10, 256199, Note_on_c, 4, 76, 0
10, 256200, Note_on_c, 4, 73, 76
10, 256299, Note_on_c, 4, 73, 0
10, 256320, Note_on_c, 4, 74, 76
10, 256419, Note_on_c, 4, 74, 0
10, 256440, Note_on_c, 4, 69, 76
10, 256559, Note_on_c, 4, 69, 0
10, 256560, Note_on_c, 4, 73, 76
10, 256679, Note_on_c, 4, 73, 0
10, 256680, Note_on_c, 4, 74, 76
10, 256779, Note_on_c, 4, 74, 0
10, 256800, Note_on_c, 4, 83, 76
10, 256899, Note_on_c, 4, 83, 0
10, 256920, Note_on_c, 4, 73, 76
10, 257039, Note_on_c, 4, 73, 0
10, 257040, Note_on_c, 4, 74, 76
10, 257159, Note_on_c, 4, 74, 0
10, 257160, Note_on_c, 4, 76, 76
10, 257279, Note_on_c, 4, 76, 0
10, 257280, Note_on_c, 4, 73, 76
10, 257379, Note_on_c, 4, 73, 0
10, 257400, Note_on_c, 4, 74, 76
10, 257499, Note_on_c, 4, 74, 0
10, 257520, Note_on_c, 4, 71, 76
10, 257639, Note_on_c, 4, 71, 0
10, 257640, Note_on_c, 4, 73, 76
10, 257759, Note_on_c, 4, 73, 0
10, 257760, Note_on_c, 4, 74, 76
10, 257859, Note_on_c, 4, 74, 0
10, 257880, Note_on_c, 4, 77, 76
10, 257999, Note_on_c, 4, 77, 0
10, 258000, Note_on_c, 4, 76, 76
10, 258099, Note_on_c, 4, 76, 0
10, 258120, Note_on_c, 4, 74, 76
10, 258219, Note_on_c, 4, 74, 0
10, 258240, Note_on_c, 4, 74, 76
10, 258359, Note_on_c, 4, 74, 0
10, 258360, Note_on_c, 4, 72, 76
10, 258459, Note_on_c, 4, 72, 0
10, 258480, Note_on_c, 4, 71, 76
10, 258579, Note_on_c, 4, 71, 0
10, 258600, Note_on_c, 4, 71, 76
10, 258719, Note_on_c, 4, 71, 0
10, 258720, Note_on_c, 4, 72, 76
10, 258819, Note_on_c, 4, 72, 0
10, 258840, Note_on_c, 4, 74, 76
10, 258939, Note_on_c, 4, 74, 0
10, 258960, Note_on_c, 4, 72, 76
10, 259079, Note_on_c, 4, 72, 0
10, 259080, Note_on_c, 4, 69, 76
10, 259199, Note_on_c, 4, 69, 0
10, 259200, Note_on_c, 4, 71, 76
10, 259319, Note_on_c, 4, 71, 0
10, 259320, Note_on_c, 4, 72, 76
10, 259439, Note_on_c, 4, 72, 0
10, 259440, Note_on_c, 4, 74, 76
10, 259539, Note_on_c, 4, 74, 0
10, 259560, Note_on_c, 4, 71, 76
10, 259659, Note_on_c, 4, 71, 0
10, 259680, Note_on_c, 4, 72, 76
10, 259799, Note_on_c, 4, 72, 0
10, 259800, Note_on_c, 4, 71, 76
10, 259919, Note_on_c, 4, 71, 0
10, 259920, Note_on_c, 4, 69, 76
10, 260019, Note_on_c, 4, 69, 0
10, 260040, Note_on_c, 4, 68, 76
10, 260159, Note_on_c, 4, 68, 0
10, 260160, Note_on_c, 4, 71, 76
10, 260279, Note_on_c, 4, 71, 0
10, 260280, Note_on_c, 4, 76, 76
10, 260399, Note_on_c, 4, 76, 0
10, 260400, Note_on_c, 4, 80, 76
10, 260519, Note_on_c, 4, 80, 0
10, 260520, Note_on_c, 4, 81, 76
10, 260619, Note_on_c, 4, 81, 0
10, 260640, Note_on_c, 4, 83, 76
10, 260739, Note_on_c, 4, 83, 0
10, 260760, Note_on_c, 4, 76, 76
10, 260879, Note_on_c, 4, 76, 0
10, 260880, Note_on_c, 4, 81, 76
10, 260979, Note_on_c, 4, 81, 0
10, 261000, Note_on_c, 4, 80, 76
10, 261099, Note_on_c, 4, 80, 0
10, 261120, Note_on_c, 4, 81, 76
10, 263379, Note_on_c, 4, 81, 0
10, 263400, Note_on_c, 4, 78, 76
10, 263519, Note_on_c, 4, 78, 0
10, 263520, Note_on_c, 4, 80, 76
10, 263639, Note_on_c, 4, 80, 0
10, 263640, Note_on_c, 4, 81, 76
10, 263759, Note_on_c, 4, 81, 0
10, 263760, Note_on_c, 4, 83, 76
10, 263859, Note_on_c, 4, 83, 0
10, 263880, Note_on_c, 4, 80, 76
10, 263979, Note_on_c, 4, 80, 0
10, 264000, Note_on_c, 4, 81, 76
10, 264119, Note_on_c, 4, 81, 0
10, 264120, Note_on_c, 4, 80, 76
10, 264239, Note_on_c, 4, 80, 0
10, 264240, Note_on_c, 4, 78, 76
10, 264339, Note_on_c, 4, 78, 0
10, 264360, Note_on_c, 4, 80, 76
10, 264479, Note_on_c, 4, 80, 0
10, 264480, Note_on_c, 4, 81, 76
10, 264599, Note_on_c, 4, 81, 0
10, 264600, Note_on_c, 4, 83, 76
10, 264719, Note_on_c, 4, 83, 0
10, 264720, Note_on_c, 4, 85, 76
10, 264839, Note_on_c, 4, 85, 0
10, 264840, Note_on_c, 4, 86, 76
10, 264939, Note_on_c, 4, 86, 0
10, 264960, Note_on_c, 4, 83, 76
10, 265059, Note_on_c, 4, 83, 0
10, 265080, Note_on_c, 4, 83, 76
10, 265199, Note_on_c, 4, 83, 0
10, 265200, Note_on_c, 4, 85, 76
10, 265299, Note_on_c, 4, 85, 0
10, 265320, Note_on_c, 4, 81, 76
10, 265419, Note_on_c, 4, 81, 0
10, 265440, Note_on_c, 4, 81, 76
10, 265899, Note_on_c, 4, 81, 0
10, 265920, Note_on_c, 4, 74, 76
10, 266039, Note_on_c, 4, 74, 0
10, 266040, Note_on_c, 4, 73, 76
10, 266139, Note_on_c, 4, 73, 0
10, 266160, Note_on_c, 4, 71, 76
10, 266279, Note_on_c, 4, 71, 0
10, 266280, Note_on_c, 4, 81, 76
10, 266379, Note_on_c, 4, 81, 0
10, 266400, Note_on_c, 4, 80, 76
10, 266499, Note_on_c, 4, 80, 0
10, 266520, Note_on_c, 4, 81, 76
10, 266639, Note_on_c, 4, 81, 0
10, 266880, Note_on_c, 4, 76, 76
10, 266999, Note_on_c, 4, 76, 0
10, 267240, Note_on_c, 4, 80, 76
10, 267359, Note_on_c, 4, 80, 0
10, 267600, Note_on_c, 4, 81, 76
10, 267719, Note_on_c, 4, 81, 0
10, 267960, Note_on_c, 4, 76, 76
10, 268079, Note_on_c, 4, 76, 0
10, 268320, Note_on_c, 4, 80, 76
10, 268439, Note_on_c, 4, 80, 0
10, 268680, Note_on_c, 4, 81, 76
10, 268934, Note_on_c, 4, 81, 0
10, 268950, Note_on_c, 4, 76, 76
10, 269024, Note_on_c, 4, 76, 0
10, 269040, Note_on_c, 4, 76, 76
10, 269159, Note_on_c, 4, 76, 0
10, 269160, Note_on_c, 4, 78, 76
10, 269259, Note_on_c, 4, 78, 0
10, 269280, Note_on_c, 4, 74, 76
10, 269379, Note_on_c, 4, 74, 0
10, 269400, Note_on_c, 4, 74, 76
10, 269519, Note_on_c, 4, 74, 0
10, 269520, Note_on_c, 4, 76, 76
10, 269619, Note_on_c, 4, 76, 0
10, 269640, Note_on_c, 4, 73, 76
10, 269739, Note_on_c, 4, 73, 0
10, 269760, Note_on_c, 4, 73, 76
10, 269879, Note_on_c, 4, 73, 0
10, 269880, Note_on_c, 4, 74, 76
10, 269999, Note_on_c, 4, 74, 0
10, 270000, Note_on_c, 4, 76, 76
10, 270119, Note_on_c, 4, 76, 0
10, 270120, Note_on_c, 4, 78, 76
10, 270239, Note_on_c, 4, 78, 0
10, 270240, Note_on_c, 4, 79, 76
10, 270339, Note_on_c, 4, 79, 0
10, 270360, Note_on_c, 4, 76, 76
10, 270459, Note_on_c, 4, 76, 0
10, 270480, Note_on_c, 4, 76, 76
10, 270599, Note_on_c, 4, 76, 0
10, 270600, Note_on_c, 4, 78, 76
10, 270699, Note_on_c, 4, 78, 0
10, 270720, Note_on_c, 4, 74, 76
10, 270819, Note_on_c, 4, 74, 0
10, 270840, Note_on_c, 4, 74, 76
10, 271094, Note_on_c, 4, 74, 0
10, 271110, Note_on_c, 4, 74, 76
10, 271184, Note_on_c, 4, 74, 0
10, 271200, Note_on_c, 4, 74, 76
10, 271454, Note_on_c, 4, 74, 0
10, 271470, Note_on_c, 4, 74, 76
10, 271544, Note_on_c, 4, 74, 0
10, 271560, Note_on_c, 4, 74, 76
10, 271814, Note_on_c, 4, 74, 0
10, 271830, Note_on_c, 4, 74, 76
10, 271904, Note_on_c, 4, 74, 0
10, 271920, Note_on_c, 4, 74, 76
10, 272039, Note_on_c, 4, 74, 0
10, 272040, Note_on_c, 4, 71, 76
10, 272159, Note_on_c, 4, 71, 0
10, 272160, Note_on_c, 4, 73, 76
10, 272279, Note_on_c, 4, 73, 0
10, 272280, Note_on_c, 4, 74, 76
10, 272399, Note_on_c, 4, 74, 0
10, 272400, Note_on_c, 4, 83, 76
10, 272499, Note_on_c, 4, 83, 0
10, 272520, Note_on_c, 4, 73, 76
10, 272619, Note_on_c, 4, 73, 0
10, 272640, Note_on_c, 4, 74, 76
10, 272759, Note_on_c, 4, 74, 0
10, 272760, Note_on_c, 4, 73, 76
10, 272879, Note_on_c, 4, 73, 0
10, 272880, Note_on_c, 4, 71, 76
10, 272979, Note_on_c, 4, 71, 0
10, 273000, Note_on_c, 4, 73, 76
10, 273119, Note_on_c, 4, 73, 0
10, 273120, Note_on_c, 4, 76, 76
10, 273219, Note_on_c, 4, 76, 0
10, 273240, Note_on_c, 4, 74, 76
10, 273339, Note_on_c, 4, 74, 0
10, 273360, Note_on_c, 4, 76, 76
10, 274199, Note_on_c, 4, 76, 0
10, 274200, Note_on_c, 4, 78, 76
10, 274319, Note_on_c, 4, 78, 0
10, 274320, Note_on_c, 4, 76, 76
10, 274419, Note_on_c, 4, 76, 0
10, 274440, Note_on_c, 4, 74, 76
10, 274559, Note_on_c, 4, 74, 0
10, 274560, Note_on_c, 4, 76, 76
10, 274659, Note_on_c, 4, 76, 0
10, 274680, Note_on_c, 4, 73, 76
10, 274779, Note_on_c, 4, 73, 0
10, 274800, Note_on_c, 4, 73, 76
10, 274919, Note_on_c, 4, 73, 0
10, 274920, Note_on_c, 4, 74, 76
10, 275019, Note_on_c, 4, 74, 0
10, 275040, Note_on_c, 4, 71, 76
10, 275139, Note_on_c, 4, 71, 0
10, 275160, Note_on_c, 4, 71, 76
10, 276359, Note_on_c, 4, 71, 0
10, 276360, Note_on_c, 4, 73, 76
10, 276479, Note_on_c, 4, 73, 0
10, 276480, Note_on_c, 4, 74, 76
10, 276579, Note_on_c, 4, 74, 0
10, 276600, Note_on_c, 4, 76, 76
10, 276719, Note_on_c, 4, 76, 0
10, 276720, Note_on_c, 4, 73, 76
10, 276839, Note_on_c, 4, 73, 0
10, 276840, Note_on_c, 4, 69, 76
10, 276939, Note_on_c, 4, 69, 0
10, 276960, Note_on_c, 4, 81, 76
10, 278499, Note_on_c, 4, 81, 0
10, 278520, Note_on_c, 4, 80, 76
10, 278639, Note_on_c, 4, 80, 0
10, 278640, Note_on_c, 4, 81, 76
10, 278759, Note_on_c, 4, 81, 0
10, 278760, Note_on_c, 4, 83, 76
10, 278879, Note_on_c, 4, 83, 0
10, 278880, Note_on_c, 4, 85, 76
10, 278979, Note_on_c, 4, 85, 0
10, 279000, Note_on_c, 4, 81, 76
10, 279099, Note_on_c, 4, 81, 0
10, 279120, Note_on_c, 4, 81, 76
10, 279239, Note_on_c, 4, 81, 0
10, 279240, Note_on_c, 4, 83, 76
10, 279339, Note_on_c, 4, 83, 0
10, 279360, Note_on_c, 4, 80, 76
10, 279459, Note_on_c, 4, 80, 0
10, 279480, Note_on_c, 4, 80, 76
10, 279599, Note_on_c, 4, 80, 0
10, 279600, Note_on_c, 4, 76, 76
10, 279719, Note_on_c, 4, 76, 0
10, 279720, Note_on_c, 4, 78, 76
10, 279839, Note_on_c, 4, 78, 0
10, 279840, Note_on_c, 4, 80, 76
10, 279959, Note_on_c, 4, 80, 0
10, 279960, Note_on_c, 4, 81, 76
10, 280059, Note_on_c, 4, 81, 0
10, 280080, Note_on_c, 4, 83, 76
10, 280179, Note_on_c, 4, 83, 0
10, 280200, Note_on_c, 4, 76, 76
10, 280454, Note_on_c, 4, 76, 0
10, 280470, Note_on_c, 4, 80, 76
10, 280544, Note_on_c, 4, 80, 0
10, 280560, Note_on_c, 4, 69, 76
10, 280679, Note_on_c, 4, 69, 0
10, 280680, Note_on_c, 4, 73, 76
10, 280799, Note_on_c, 4, 73, 0
10, 280800, Note_on_c, 4, 76, 76
10, 280899, Note_on_c, 4, 76, 0
10, 280920, Note_on_c, 4, 81, 76
10, 281039, Note_on_c, 4, 81, 0
10, 281040, Note_on_c, 4, 83, 76
10, 281139, Note_on_c, 4, 83, 0
10, 281160, Note_on_c, 4, 79, 76
10, 281259, Note_on_c, 4, 79, 0
10, 281280, Note_on_c, 4, 79, 76
10, 281399, Note_on_c, 4, 79, 0
10, 281400, Note_on_c, 4, 81, 76
10, 281499, Note_on_c, 4, 81, 0
10, 281520, Note_on_c, 4, 78, 76
10, 281619, Note_on_c, 4, 78, 0
10, 281640, Note_on_c, 4, 78, 76
10, 281759, Note_on_c, 4, 78, 0
10, 281760, Note_on_c, 4, 74, 76
10, 281879, Note_on_c, 4, 74, 0
10, 281880, Note_on_c, 4, 78, 76
10, 281979, Note_on_c, 4, 78, 0
10, 282000, Note_on_c, 4, 83, 76
10, 282119, Note_on_c, 4, 83, 0
10, 282120, Note_on_c, 4, 85, 76
10, 282219, Note_on_c, 4, 85, 0
10, 282240, Note_on_c, 4, 81, 76
10, 282339, Note_on_c, 4, 81, 0
10, 282360, Note_on_c, 4, 81, 76
10, 282479, Note_on_c, 4, 81, 0
10, 282480, Note_on_c, 4, 83, 76
10, 282579, Note_on_c, 4, 83, 0
10, 282600, Note_on_c, 4, 80, 76
10, 282699, Note_on_c, 4, 80, 0
10, 282720, Note_on_c, 4, 80, 76
10, 282839, Note_on_c, 4, 80, 0
10, 282840, Note_on_c, 4, 81, 76
10, 282959, Note_on_c, 4, 81, 0
10, 282960, Note_on_c, 4, 83, 76
10, 283059, Note_on_c, 4, 83, 0
10, 283080, Note_on_c, 4, 85, 76
10, 283199, Note_on_c, 4, 85, 0
10, 283200, Note_on_c, 4, 86, 76
10, 283299, Note_on_c, 4, 86, 0
10, 283320, Note_on_c, 4, 83, 76
10, 283419, Note_on_c, 4, 83, 0
10, 283440, Note_on_c, 4, 83, 76
10, 283559, Note_on_c, 4, 83, 0
10, 283560, Note_on_c, 4, 85, 76
10, 283659, Note_on_c, 4, 85, 0
10, 283680, Note_on_c, 4, 81, 76
10, 283779, Note_on_c, 4, 81, 0
10, 283800, Note_on_c, 4, 81, 76
10, 284054, Note_on_c, 4, 81, 0
10, 284070, Note_on_c, 4, 81, 76
10, 284144, Note_on_c, 4, 81, 0
10, 284160, Note_on_c, 4, 81, 76
10, 284414, Note_on_c, 4, 81, 0
10, 284430, Note_on_c, 4, 81, 76
10, 284504, Note_on_c, 4, 81, 0
10, 284520, Note_on_c, 4, 81, 76
10, 284774, Note_on_c, 4, 81, 0
10, 284790, Note_on_c, 4, 81, 76
10, 284864, Note_on_c, 4, 81, 0
10, 284880, Note_on_c, 4, 81, 76
10, 284999, Note_on_c, 4, 81, 0
10, 285000, Note_on_c, 4, 83, 76
10, 285119, Note_on_c, 4, 83, 0
10, 285120, Note_on_c, 4, 81, 76
10, 285219, Note_on_c, 4, 81, 0
10, 285240, Note_on_c, 4, 80, 76
10, 285359, Note_on_c, 4, 80, 0
10, 285360, Note_on_c, 4, 81, 76
10, 285459, Note_on_c, 4, 81, 0
10, 285480, Note_on_c, 4, 78, 76
10, 285579, Note_on_c, 4, 78, 0
10, 285600, Note_on_c, 4, 78, 76
10, 285719, Note_on_c, 4, 78, 0
10, 285720, Note_on_c, 4, 80, 76
10, 285819, Note_on_c, 4, 80, 0
10, 285840, Note_on_c, 4, 76, 76
10, 285939, Note_on_c, 4, 76, 0
10, 285960, Note_on_c, 4, 76, 76
10, 286214, Note_on_c, 4, 76, 0
10, 286230, Note_on_c, 4, 76, 76
10, 286304, Note_on_c, 4, 76, 0
10, 286320, Note_on_c, 4, 76, 76
10, 286574, Note_on_c, 4, 76, 0
10, 286590, Note_on_c, 4, 76, 76
10, 286664, Note_on_c, 4, 76, 0
10, 286680, Note_on_c, 4, 76, 76
10, 286934, Note_on_c, 4, 76, 0
10, 286950, Note_on_c, 4, 76, 76
10, 287024, Note_on_c, 4, 76, 0
10, 287040, Note_on_c, 4, 76, 76
10, 287159, Note_on_c, 4, 76, 0
10, 287160, Note_on_c, 4, 81, 76
10, 287259, Note_on_c, 4, 81, 0
10, 287280, Note_on_c, 4, 80, 76
10, 287379, Note_on_c, 4, 80, 0
10, 287400, Note_on_c, 4, 81, 76
10, 287519, Note_on_c, 4, 81, 0
10, 287520, Note_on_c, 4, 76, 76
10, 287639, Note_on_c, 4, 76, 0
10, 287640, Note_on_c, 4, 78, 76
10, 287739, Note_on_c, 4, 78, 0
10, 287760, Note_on_c, 4, 73, 76
10, 287879, Note_on_c, 4, 73, 0
10, 287880, Note_on_c, 4, 71, 76
10, 287999, Note_on_c, 4, 71, 0
10, 288000, Note_on_c, 4, 69, 76
10, 288099, Note_on_c, 4, 69, 0
10, 288120, Note_on_c, 4, 69, 76
10, 288479, Note_on_c, 4, 69, 0
10, 289470, Note_on_c, 4, 73, 76
10, 289544, Note_on_c, 4, 73, 0
10, 289560, Note_on_c, 4, 73, 76
10, 289679, Note_on_c, 4, 73, 0
10, 289680, Note_on_c, 4, 76, 76
10, 289779, Note_on_c, 4, 76, 0
10, 289800, Note_on_c, 4, 74, 76
10, 289899, Note_on_c, 4, 74, 0
10, 289920, Note_on_c, 4, 74, 76
10, 290039, Note_on_c, 4, 74, 0
10, 290040, Note_on_c, 4, 78, 76
10, 290139, Note_on_c, 4, 78, 0
10, 290160, Note_on_c, 4, 76, 76
10, 290259, Note_on_c, 4, 76, 0
10, 290280, Note_on_c, 4, 76, 76
10, 290399, Note_on_c, 4, 76, 0
10, 291630, Note_on_c, 4, 81, 76
10, 291704, Note_on_c, 4, 81, 0
10, 291720, Note_on_c, 4, 81, 76
10, 291839, Note_on_c, 4, 81, 0
10, 291840, Note_on_c, 4, 83, 76
10, 291939, Note_on_c, 4, 83, 0
10, 291960, Note_on_c, 4, 79, 76
10, 292059, Note_on_c, 4, 79, 0
10, 292080, Note_on_c, 4, 79, 76
10, 292199, Note_on_c, 4, 79, 0
10, 292200, Note_on_c, 4, 81, 76
10, 292299, Note_on_c, 4, 81, 0
10, 292320, Note_on_c, 4, 78, 76
10, 292419, Note_on_c, 4, 78, 0
10, 292440, Note_on_c, 4, 78, 76
10, 292694, Note_on_c, 4, 78, 0
10, 292710, Note_on_c, 4, 74, 76
10, 292784, Note_on_c, 4, 74, 0
10, 292800, Note_on_c, 4, 74, 76
10, 292919, Note_on_c, 4, 74, 0
10, 292920, Note_on_c, 4, 78, 76
10, 293019, Note_on_c, 4, 78, 0
10, 293040, Note_on_c, 4, 76, 76
10, 293139, Note_on_c, 4, 76, 0
10, 293160, Note_on_c, 4, 76, 76
10, 293279, Note_on_c, 4, 76, 0
10, 293280, Note_on_c, 4, 79, 76
10, 293379, Note_on_c, 4, 79, 0
10, 293400, Note_on_c, 4, 78, 76
10, 293499, Note_on_c, 4, 78, 0
10, 293520, Note_on_c, 4, 78, 76
10, 293639, Note_on_c, 4, 78, 0
10, 294870, Note_on_c, 4, 69, 76
10, 294944, Note_on_c, 4, 69, 0
10, 294960, Note_on_c, 4, 69, 76
10, 295079, Note_on_c, 4, 69, 0
10, 295080, Note_on_c, 4, 72, 76
10, 295179, Note_on_c, 4, 72, 0
10, 295200, Note_on_c, 4, 71, 76
10, 295299, Note_on_c, 4, 71, 0
10, 295320, Note_on_c, 4, 71, 76
10, 295439, Note_on_c, 4, 71, 0
10, 295440, Note_on_c, 4, 74, 76
10, 295539, Note_on_c, 4, 74, 0
10, 295560, Note_on_c, 4, 72, 76
10, 295659, Note_on_c, 4, 72, 0
10, 295680, Note_on_c, 4, 72, 76
10, 295799, Note_on_c, 4, 72, 0
10, 295800, Note_on_c, 4, 76, 76
10, 295919, Note_on_c, 4, 76, 0
10, 295920, Note_on_c, 4, 74, 76
10, 296019, Note_on_c, 4, 74, 0
10, 296040, Note_on_c, 4, 74, 76
10, 296159, Note_on_c, 4, 74, 0
10, 296160, Note_on_c, 4, 76, 76
10, 296259, Note_on_c, 4, 76, 0
10, 296280, Note_on_c, 4, 72, 76
10, 296379, Note_on_c, 4, 72, 0
10, 296400, Note_on_c, 4, 72, 76
10, 296519, Note_on_c, 4, 72, 0
10, 296520, Note_on_c, 4, 74, 76
10, 296619, Note_on_c, 4, 74, 0
10, 296640, Note_on_c, 4, 71, 76
10, 296739, Note_on_c, 4, 71, 0
10, 296760, Note_on_c, 4, 71, 76
10, 296879, Note_on_c, 4, 71, 0
10, 296880, Note_on_c, 4, 67, 76
10, 296999, Note_on_c, 4, 67, 0
10, 297000, Note_on_c, 4, 69, 76
10, 297119, Note_on_c, 4, 69, 0
10, 297120, Note_on_c, 4, 71, 76
10, 297239, Note_on_c, 4, 71, 0
10, 297240, Note_on_c, 4, 73, 76
10, 297339, Note_on_c, 4, 73, 0
10, 297360, Note_on_c, 4, 74, 76
10, 297459, Note_on_c, 4, 74, 0
10, 297480, Note_on_c, 4, 74, 76
10, 297959, Note_on_c, 4, 74, 0
10, 297960, Note_on_c, 4, 73, 76
10, 298079, Note_on_c, 4, 73, 0
10, 298080, Note_on_c, 4, 71, 76
10, 298199, Note_on_c, 4, 71, 0
10, 298200, Note_on_c, 4, 73, 76
10, 298319, Note_on_c, 4, 73, 0
10, 298320, Note_on_c, 4, 74, 76
10, 298419, Note_on_c, 4, 74, 0
10, 298440, Note_on_c, 4, 76, 76
10, 298539, Note_on_c, 4, 76, 0
10, 298560, Note_on_c, 4, 76, 76
10, 299039, Note_on_c, 4, 76, 0
10, 299040, Note_on_c, 4, 74, 76
10, 299159, Note_on_c, 4, 74, 0
10, 299160, Note_on_c, 4, 73, 76
10, 299279, Note_on_c, 4, 73, 0
10, 299280, Note_on_c, 4, 74, 76
10, 299399, Note_on_c, 4, 74, 0
10, 299400, Note_on_c, 4, 76, 76
10, 299499, Note_on_c, 4, 76, 0
10, 299520, Note_on_c, 4, 78, 76
10, 299619, Note_on_c, 4, 78, 0
10, 299640, Note_on_c, 4, 78, 76
10, 300119, Note_on_c, 4, 78, 0
10, 300120, Note_on_c, 4, 76, 76
10, 300239, Note_on_c, 4, 76, 0
10, 300240, Note_on_c, 4, 74, 76
10, 300359, Note_on_c, 4, 74, 0
10, 300360, Note_on_c, 4, 76, 76
10, 300479, Note_on_c, 4, 76, 0
10, 300480, Note_on_c, 4, 78, 76
10, 300579, Note_on_c, 4, 78, 0
10, 300600, Note_on_c, 4, 79, 76
10, 300699, Note_on_c, 4, 79, 0
10, 300720, Note_on_c, 4, 79, 76
10, 301334, Note_on_c, 4, 79, 0
10, 301350, Note_on_c, 4, 78, 76
10, 301424, Note_on_c, 4, 78, 0
10, 301440, Note_on_c, 4, 78, 76
10, 301559, Note_on_c, 4, 78, 0
10, 301560, Note_on_c, 4, 79, 76
10, 301659, Note_on_c, 4, 79, 0
10, 301680, Note_on_c, 4, 76, 76
10, 301779, Note_on_c, 4, 76, 0
10, 301800, Note_on_c, 4, 76, 76
10, 301919, Note_on_c, 4, 76, 0
10, 301920, Note_on_c, 4, 78, 76
10, 302019, Note_on_c, 4, 78, 0
10, 302040, Note_on_c, 4, 74, 76
10, 302139, Note_on_c, 4, 74, 0
10, 302160, Note_on_c, 4, 74, 76
10, 302279, Note_on_c, 4, 74, 0
10, 302280, Note_on_c, 4, 76, 76
10, 302399, Note_on_c, 4, 76, 0
10, 302400, Note_on_c, 4, 78, 76
10, 302519, Note_on_c, 4, 78, 0
10, 302520, Note_on_c, 4, 79, 76
10, 302639, Note_on_c, 4, 79, 0
10, 302640, Note_on_c, 4, 81, 76
10, 302739, Note_on_c, 4, 81, 0
10, 302760, Note_on_c, 4, 78, 76
10, 302859, Note_on_c, 4, 78, 0
10, 302880, Note_on_c, 4, 78, 76
10, 302999, Note_on_c, 4, 78, 0
10, 303000, Note_on_c, 4, 79, 76
10, 303099, Note_on_c, 4, 79, 0
10, 303120, Note_on_c, 4, 76, 76
10, 303219, Note_on_c, 4, 76, 0
10, 303240, Note_on_c, 4, 76, 76
10, 303494, Note_on_c, 4, 76, 0
10, 303510, Note_on_c, 4, 76, 76
10, 303584, Note_on_c, 4, 76, 0
10, 303600, Note_on_c, 4, 76, 76
10, 303719, Note_on_c, 4, 76, 0
10, 303720, Note_on_c, 4, 78, 76
10, 303819, Note_on_c, 4, 78, 0
10, 303840, Note_on_c, 4, 74, 76
10, 303939, Note_on_c, 4, 74, 0
10, 303960, Note_on_c, 4, 74, 76
10, 304079, Note_on_c, 4, 74, 0
10, 304080, Note_on_c, 4, 76, 76
10, 304179, Note_on_c, 4, 76, 0
10, 304200, Note_on_c, 4, 73, 76
10, 304299, Note_on_c, 4, 73, 0
10, 304320, Note_on_c, 4, 73, 76
10, 304439, Note_on_c, 4, 73, 0
10, 304440, Note_on_c, 4, 74, 76
10, 304559, Note_on_c, 4, 74, 0
10, 304560, Note_on_c, 4, 76, 76
10, 304679, Note_on_c, 4, 76, 0
10, 304680, Note_on_c, 4, 78, 76
10, 304799, Note_on_c, 4, 78, 0
10, 304800, Note_on_c, 4, 79, 76
10, 304899, Note_on_c, 4, 79, 0
10, 304920, Note_on_c, 4, 76, 76
10, 305019, Note_on_c, 4, 76, 0
10, 305040, Note_on_c, 4, 76, 76
10, 305159, Note_on_c, 4, 76, 0
10, 305160, Note_on_c, 4, 78, 76
10, 305259, Note_on_c, 4, 78, 0
10, 305280, Note_on_c, 4, 74, 76
10, 305379, Note_on_c, 4, 74, 0
10, 305400, Note_on_c, 4, 74, 76
10, 305519, Note_on_c, 4, 74, 0
10, 305520, Note_on_c, 4, 71, 76
10, 305639, Note_on_c, 4, 71, 0
10, 305640, Note_on_c, 4, 73, 76
10, 305759, Note_on_c, 4, 73, 0
10, 305760, Note_on_c, 4, 74, 76
10, 305879, Note_on_c, 4, 74, 0
10, 305880, Note_on_c, 4, 76, 76
10, 305979, Note_on_c, 4, 76, 0
10, 306000, Note_on_c, 4, 72, 76
10, 306099, Note_on_c, 4, 72, 0
10, 306120, Note_on_c, 4, 72, 76
10, 306239, Note_on_c, 4, 72, 0
10, 306240, Note_on_c, 4, 74, 76
10, 306339, Note_on_c, 4, 74, 0
10, 306360, Note_on_c, 4, 71, 76
10, 306459, Note_on_c, 4, 71, 0
10, 306480, Note_on_c, 4, 71, 76
10, 306734, Note_on_c, 4, 71, 0
10, 306750, Note_on_c, 4, 71, 76
10, 306824, Note_on_c, 4, 71, 0
10, 306840, Note_on_c, 4, 76, 76
10, 307094, Note_on_c, 4, 76, 0
10, 307110, Note_on_c, 4, 75, 76
10, 307184, Note_on_c, 4, 75, 0
10, 307200, Note_on_c, 4, 76, 76
10, 307454, Note_on_c, 4, 76, 0
10, 307470, Note_on_c, 4, 78, 76
10, 307544, Note_on_c, 4, 78, 0
10, 307560, Note_on_c, 4, 79, 76
10, 307679, Note_on_c, 4, 79, 0
10, 307680, Note_on_c, 4, 81, 76
10, 307779, Note_on_c, 4, 81, 0
10, 307800, Note_on_c, 4, 78, 76
10, 307899, Note_on_c, 4, 78, 0
10, 307920, Note_on_c, 4, 76, 76
10, 308039, Note_on_c, 4, 76, 0
10, 308040, Note_on_c, 4, 78, 76
10, 308139, Note_on_c, 4, 78, 0
10, 308160, Note_on_c, 4, 74, 76
10, 308259, Note_on_c, 4, 74, 0
10, 308280, Note_on_c, 4, 73, 76
10, 308399, Note_on_c, 4, 73, 0
10, 308400, Note_on_c, 4, 74, 76
10, 308499, Note_on_c, 4, 74, 0
10, 308520, Note_on_c, 4, 71, 76
10, 308619, Note_on_c, 4, 71, 0
10, 308640, Note_on_c, 4, 76, 76
10, 308894, Note_on_c, 4, 76, 0
10, 308910, Note_on_c, 4, 73, 76
10, 308984, Note_on_c, 4, 73, 0
10, 309000, Note_on_c, 4, 66, 76
10, 309254, Note_on_c, 4, 66, 0
10, 309270, Note_on_c, 4, 76, 76
10, 309344, Note_on_c, 4, 76, 0
10, 309360, Note_on_c, 4, 74, 76
10, 309614, Note_on_c, 4, 74, 0
10, 309630, Note_on_c, 4, 79, 76
10, 309704, Note_on_c, 4, 79, 0
10, 309720, Note_on_c, 4, 78, 76
10, 309839, Note_on_c, 4, 78, 0
10, 309840, Note_on_c, 4, 76, 76
10, 309959, Note_on_c, 4, 76, 0
10, 309960, Note_on_c, 4, 74, 76
10, 310079, Note_on_c, 4, 74, 0
10, 310080, Note_on_c, 4, 73, 76
10, 310199, Note_on_c, 4, 73, 0
10, 310200, Note_on_c, 4, 74, 76
10, 310299, Note_on_c, 4, 74, 0
10, 310320, Note_on_c, 4, 71, 76
10, 310419, Note_on_c, 4, 71, 0
10, 310440, Note_on_c, 4, 66, 76
10, 310559, Note_on_c, 4, 66, 0
10, 310560, Note_on_c, 4, 71, 76
10, 310659, Note_on_c, 4, 71, 0
10, 310680, Note_on_c, 4, 70, 76
10, 310779, Note_on_c, 4, 70, 0
10, 310800, Note_on_c, 4, 71, 76
10, 310919, Note_on_c, 4, 71, 0
10, 313320, Note_on_c, 4, 74, 76
10, 313439, Note_on_c, 4, 74, 0
10, 313680, Note_on_c, 4, 78, 76
10, 313799, Note_on_c, 4, 78, 0
10, 314400, Note_on_c, 4, 76, 76
10, 314519, Note_on_c, 4, 76, 0
10, 314760, Note_on_c, 4, 79, 76
10, 314879, Note_on_c, 4, 79, 0
10, 315390, Note_on_c, 4, 78, 76
10, 315464, Note_on_c, 4, 78, 0
10, 315480, Note_on_c, 4, 78, 76
10, 315599, Note_on_c, 4, 78, 0
10, 315600, Note_on_c, 4, 79, 76
10, 315699, Note_on_c, 4, 79, 0
10, 315720, Note_on_c, 4, 76, 76
10, 315819, Note_on_c, 4, 76, 0
10, 315840, Note_on_c, 4, 76, 76
10, 315959, Note_on_c, 4, 76, 0
10, 315960, Note_on_c, 4, 78, 76
10, 316059, Note_on_c, 4, 78, 0
10, 316080, Note_on_c, 4, 75, 76
10, 316179, Note_on_c, 4, 75, 0
10, 316200, Note_on_c, 4, 75, 76
10, 316539, Note_on_c, 4, 75, 0
10, 316560, Note_on_c, 4, 83, 76
10, 317534, Note_on_c, 4, 83, 0
10, 317550, Note_on_c, 4, 75, 76
10, 317624, Note_on_c, 4, 75, 0
10, 317640, Note_on_c, 4, 76, 76
10, 318479, Note_on_c, 4, 76, 0
10, 318480, Note_on_c, 4, 78, 76
10, 318599, Note_on_c, 4, 78, 0
10, 318600, Note_on_c, 4, 79, 76
10, 318699, Note_on_c, 4, 79, 0
10, 318720, Note_on_c, 4, 81, 76
10, 319694, Note_on_c, 4, 81, 0
10, 319710, Note_on_c, 4, 71, 76
10, 319784, Note_on_c, 4, 71, 0
10, 319800, Note_on_c, 4, 72, 76
10, 320774, Note_on_c, 4, 72, 0
10, 320790, Note_on_c, 4, 62, 76
10, 320864, Note_on_c, 4, 62, 0
10, 320880, Note_on_c, 4, 62, 76
10, 321134, Note_on_c, 4, 62, 0
10, 321150, Note_on_c, 4, 62, 76
10, 321224, Note_on_c, 4, 62, 0
10, 321240, Note_on_c, 4, 62, 76
10, 321494, Note_on_c, 4, 62, 0
10, 321510, Note_on_c, 4, 62, 76
10, 321584, Note_on_c, 4, 62, 0
10, 321600, Note_on_c, 4, 62, 76
10, 321719, Note_on_c, 4, 62, 0
10, 321960, Note_on_c, 4, 67, 76
10, 322079, Note_on_c, 4, 67, 0
10, 322320, Note_on_c, 4, 71, 76
10, 322439, Note_on_c, 4, 71, 0
10, 322680, Note_on_c, 4, 71, 76
10, 322799, Note_on_c, 4, 71, 0
10, 323040, Note_on_c, 4, 69, 76
10, 323159, Note_on_c, 4, 69, 0
10, 323400, Note_on_c, 4, 71, 76
10, 323519, Note_on_c, 4, 71, 0
10, 323760, Note_on_c, 4, 72, 76
10, 323879, Note_on_c, 4, 72, 0
10, 323880, Note_on_c, 4, 71, 76
10, 323999, Note_on_c, 4, 71, 0
10, 324000, Note_on_c, 4, 69, 76
10, 324099, Note_on_c, 4, 69, 0
10, 324120, Note_on_c, 4, 74, 76
10, 324239, Note_on_c, 4, 74, 0
10, 324240, Note_on_c, 4, 76, 76
10, 324339, Note_on_c, 4, 76, 0
10, 324360, Note_on_c, 4, 72, 76
10, 324459, Note_on_c, 4, 72, 0
10, 324480, Note_on_c, 4, 72, 76
10, 324599, Note_on_c, 4, 72, 0
10, 324600, Note_on_c, 4, 74, 76
10, 324699, Note_on_c, 4, 74, 0
10, 324720, Note_on_c, 4, 71, 76
10, 324819, Note_on_c, 4, 71, 0
10, 324840, Note_on_c, 4, 71, 76
10, 324959, Note_on_c, 4, 71, 0
10, 324960, Note_on_c, 4, 67, 76
10, 325079, Note_on_c, 4, 67, 0
10, 325080, Note_on_c, 4, 69, 76
10, 325199, Note_on_c, 4, 69, 0
10, 325200, Note_on_c, 4, 71, 76
10, 325319, Note_on_c, 4, 71, 0
10, 325320, Note_on_c, 4, 72, 76
10, 325419, Note_on_c, 4, 72, 0
10, 325440, Note_on_c, 4, 69, 76
10, 325539, Note_on_c, 4, 69, 0
10, 325560, Note_on_c, 4, 69, 76
10, 325679, Note_on_c, 4, 69, 0
10, 325680, Note_on_c, 4, 71, 76
10, 325779, Note_on_c, 4, 71, 0
10, 325800, Note_on_c, 4, 67, 76
10, 325899, Note_on_c, 4, 67, 0
10, 325920, Note_on_c, 4, 67, 76
10, 326174, Note_on_c, 4, 67, 0
10, 326190, Note_on_c, 4, 67, 76
10, 326264, Note_on_c, 4, 67, 0
10, 326280, Note_on_c, 4, 72, 76
10, 326534, Note_on_c, 4, 72, 0
10, 326550, Note_on_c, 4, 71, 76
10, 326624, Note_on_c, 4, 71, 0
10, 326640, Note_on_c, 4, 72, 76
10, 326894, Note_on_c, 4, 72, 0
10, 326910, Note_on_c, 4, 74, 76
10, 326984, Note_on_c, 4, 74, 0
10, 327000, Note_on_c, 4, 76, 76
10, 327119, Note_on_c, 4, 76, 0
10, 327120, Note_on_c, 4, 77, 76
10, 327219, Note_on_c, 4, 77, 0
10, 327240, Note_on_c, 4, 74, 76
10, 327339, Note_on_c, 4, 74, 0
10, 327360, Note_on_c, 4, 72, 76
10, 327479, Note_on_c, 4, 72, 0
10, 327480, Note_on_c, 4, 74, 76
10, 327579, Note_on_c, 4, 74, 0
10, 327600, Note_on_c, 4, 71, 76
10, 327699, Note_on_c, 4, 71, 0
10, 327720, Note_on_c, 4, 69, 76
10, 327839, Note_on_c, 4, 69, 0
10, 327840, Note_on_c, 4, 71, 76
10, 327939, Note_on_c, 4, 71, 0
10, 327960, Note_on_c, 4, 67, 76
10, 328059, Note_on_c, 4, 67, 0
10, 328080, Note_on_c, 4, 74, 76
10, 328334, Note_on_c, 4, 74, 0
10, 328350, Note_on_c, 4, 69, 76
10, 328424, Note_on_c, 4, 69, 0
10, 328440, Note_on_c, 4, 62, 76
10, 328694, Note_on_c, 4, 62, 0
10, 328710, Note_on_c, 4, 72, 76
10, 328784, Note_on_c, 4, 72, 0
10, 328800, Note_on_c, 4, 71, 76
10, 329054, Note_on_c, 4, 71, 0
10, 329070, Note_on_c, 4, 76, 76
10, 329144, Note_on_c, 4, 76, 0
10, 329160, Note_on_c, 4, 74, 76
10, 329279, Note_on_c, 4, 74, 0
10, 329280, Note_on_c, 4, 76, 76
10, 329399, Note_on_c, 4, 76, 0
10, 329400, Note_on_c, 4, 78, 76
10, 329519, Note_on_c, 4, 78, 0
10, 329520, Note_on_c, 4, 79, 76
10, 329639, Note_on_c, 4, 79, 0
10, 329640, Note_on_c, 4, 81, 76
10, 329739, Note_on_c, 4, 81, 0
10, 329760, Note_on_c, 4, 78, 76
10, 329859, Note_on_c, 4, 78, 0
10, 329880, Note_on_c, 4, 78, 76
10, 330134, Note_on_c, 4, 78, 0
10, 330150, Note_on_c, 4, 79, 76
10, 330224, Note_on_c, 4, 79, 0
10, 330240, Note_on_c, 4, 79, 76
10, 330359, Note_on_c, 4, 79, 0
10, 330600, Note_on_c, 4, 74, 76
10, 330719, Note_on_c, 4, 74, 0
10, 330960, Note_on_c, 4, 78, 76
10, 331079, Note_on_c, 4, 78, 0
10, 331320, Note_on_c, 4, 79, 76
10, 331439, Note_on_c, 4, 79, 0
10, 331680, Note_on_c, 4, 74, 76
10, 331799, Note_on_c, 4, 74, 0
10, 332040, Note_on_c, 4, 78, 76
10, 332159, Note_on_c, 4, 78, 0
10, 332400, Note_on_c, 4, 79, 76
10, 332519, Note_on_c, 4, 79, 0
10, 353190, Note_on_c, 4, 81, 76
10, 353264, Note_on_c, 4, 81, 0
10, 353280, Note_on_c, 4, 81, 76
10, 353399, Note_on_c, 4, 81, 0
10, 353400, Note_on_c, 4, 83, 76
10, 353499, Note_on_c, 4, 83, 0
10, 353520, Note_on_c, 4, 79, 76
10, 353619, Note_on_c, 4, 79, 0
10, 353640, Note_on_c, 4, 79, 76
10, 353759, Note_on_c, 4, 79, 0
10, 353760, Note_on_c, 4, 81, 76
10, 353859, Note_on_c, 4, 81, 0
10, 353880, Note_on_c, 4, 78, 76
10, 353979, Note_on_c, 4, 78, 0
10, 354000, Note_on_c, 4, 78, 76
10, 354119, Note_on_c, 4, 78, 0
10, 354120, Note_on_c, 4, 79, 76
10, 354239, Note_on_c, 4, 79, 0
10, 354240, Note_on_c, 4, 81, 76
10, 354359, Note_on_c, 4, 81, 0
10, 354360, Note_on_c, 4, 83, 76
10, 354479, Note_on_c, 4, 83, 0
10, 354480, Note_on_c, 4, 84, 76
10, 354579, Note_on_c, 4, 84, 0
10, 354600, Note_on_c, 4, 81, 76
10, 354699, Note_on_c, 4, 81, 0
10, 354720, Note_on_c, 4, 81, 76
10, 354839, Note_on_c, 4, 81, 0
10, 354840, Note_on_c, 4, 83, 76
10, 354939, Note_on_c, 4, 83, 0
10, 354960, Note_on_c, 4, 79, 76
10, 355059, Note_on_c, 4, 79, 0
10, 355080, Note_on_c, 4, 79, 76
10, 355334, Note_on_c, 4, 79, 0
10, 355350, Note_on_c, 4, 79, 76
10, 355424, Note_on_c, 4, 79, 0
10, 355440, Note_on_c, 4, 79, 76
10, 355694, Note_on_c, 4, 79, 0
10, 355710, Note_on_c, 4, 79, 76
10, 355784, Note_on_c, 4, 79, 0
10, 355800, Note_on_c, 4, 79, 76
10, 356054, Note_on_c, 4, 79, 0
10, 356070, Note_on_c, 4, 79, 76
10, 356144, Note_on_c, 4, 79, 0
10, 356160, Note_on_c, 4, 79, 76
10, 356279, Note_on_c, 4, 79, 0
10, 356280, Note_on_c, 4, 76, 76
10, 356399, Note_on_c, 4, 76, 0
10, 356400, Note_on_c, 4, 78, 76
10, 356519, Note_on_c, 4, 78, 0
10, 356520, Note_on_c, 4, 79, 76
10, 356639, Note_on_c, 4, 79, 0
10, 356640, Note_on_c, 4, 81, 76
10, 356739, Note_on_c, 4, 81, 0
10, 356760, Note_on_c, 4, 78, 76
10, 356859, Note_on_c, 4, 78, 0
10, 356880, Note_on_c, 4, 79, 76
10, 356999, Note_on_c, 4, 79, 0
10, 357000, Note_on_c, 4, 78, 76
10, 357119, Note_on_c, 4, 78, 0
10, 357120, Note_on_c, 4, 76, 76
10, 357219, Note_on_c, 4, 76, 0
10, 357240, Note_on_c, 4, 78, 76
10, 357359, Note_on_c, 4, 78, 0
10, 357360, Note_on_c, 4, 74, 76
10, 357479, Note_on_c, 4, 74, 0
10, 357480, Note_on_c, 4, 76, 76
10, 357579, Note_on_c, 4, 76, 0
10, 357600, Note_on_c, 4, 78, 76
10, 357719, Note_on_c, 4, 78, 0
10, 357720, Note_on_c, 4, 79, 76
10, 357819, Note_on_c, 4, 79, 0
10, 357840, Note_on_c, 4, 76, 76
10, 357939, Note_on_c, 4, 76, 0
10, 357960, Note_on_c, 4, 76, 76
10, 358079, Note_on_c, 4, 76, 0
10, 358080, Note_on_c, 4, 78, 76
10, 358179, Note_on_c, 4, 78, 0
10, 358200, Note_on_c, 4, 74, 76
10, 358299, Note_on_c, 4, 74, 0
10, 358320, Note_on_c, 4, 74, 76
10, 358574, Note_on_c, 4, 74, 0
10, 358590, Note_on_c, 4, 74, 76
10, 358664, Note_on_c, 4, 74, 0
10, 358680, Note_on_c, 4, 74, 76
10, 358934, Note_on_c, 4, 74, 0
10, 358950, Note_on_c, 4, 74, 76
10, 359024, Note_on_c, 4, 74, 0
10, 359040, Note_on_c, 4, 74, 76
10, 359294, Note_on_c, 4, 74, 0
10, 359310, Note_on_c, 4, 74, 76
10, 359384, Note_on_c, 4, 74, 0
10, 359400, Note_on_c, 4, 74, 76
10, 359519, Note_on_c, 4, 74, 0
10, 359520, Note_on_c, 4, 71, 76
10, 359639, Note_on_c, 4, 71, 0
10, 359640, Note_on_c, 4, 73, 76
10, 359759, Note_on_c, 4, 73, 0
10, 359760, Note_on_c, 4, 74, 76
10, 359879, Note_on_c, 4, 74, 0
10, 359880, Note_on_c, 4, 83, 76
10, 359979, Note_on_c, 4, 83, 0
10, 360000, Note_on_c, 4, 73, 76
10, 360099, Note_on_c, 4, 73, 0
10, 360120, Note_on_c, 4, 74, 76
10, 360239, Note_on_c, 4, 74, 0
10, 360240, Note_on_c, 4, 73, 76
10, 360359, Note_on_c, 4, 73, 0
10, 360360, Note_on_c, 4, 71, 76
10, 360459, Note_on_c, 4, 71, 0
10, 360480, Note_on_c, 4, 73, 76
10, 360599, Note_on_c, 4, 73, 0
10, 360600, Note_on_c, 4, 69, 76
10, 360719, Note_on_c, 4, 69, 0
10, 360720, Note_on_c, 4, 71, 76
10, 360839, Note_on_c, 4, 71, 0
10, 360840, Note_on_c, 4, 72, 76
10, 360959, Note_on_c, 4, 72, 0
10, 360960, Note_on_c, 4, 81, 76
10, 361059, Note_on_c, 4, 81, 0
10, 361080, Note_on_c, 4, 71, 76
10, 361179, Note_on_c, 4, 71, 0
10, 361200, Note_on_c, 4, 72, 76
10, 361319, Note_on_c, 4, 72, 0
10, 361320, Note_on_c, 4, 71, 76
10, 361439, Note_on_c, 4, 71, 0
10, 361440, Note_on_c, 4, 69, 76
10, 361539, Note_on_c, 4, 69, 0
10, 361560, Note_on_c, 4, 71, 76
10, 361814, Note_on_c, 4, 71, 0
10, 361830, Note_on_c, 4, 83, 76
10, 361904, Note_on_c, 4, 83, 0
10, 361920, Note_on_c, 4, 83, 76
10, 362039, Note_on_c, 4, 83, 0
10, 362040, Note_on_c, 4, 84, 76
10, 362139, Note_on_c, 4, 84, 0
10, 362160, Note_on_c, 4, 81, 76
10, 362259, Note_on_c, 4, 81, 0
10, 362280, Note_on_c, 4, 81, 76
10, 362399, Note_on_c, 4, 81, 0
10, 362400, Note_on_c, 4, 83, 76
10, 362499, Note_on_c, 4, 83, 0
10, 362520, Note_on_c, 4, 79, 76
10, 362619, Note_on_c, 4, 79, 0
10, 362640, Note_on_c, 4, 79, 76
10, 362739, Note_on_c, 4, 79, 0
10, 362760, Note_on_c, 4, 76, 76
10, 362879, Note_on_c, 4, 76, 0
10, 362880, Note_on_c, 4, 78, 76
10, 362999, Note_on_c, 4, 78, 0
10, 363000, Note_on_c, 4, 80, 76
10, 363119, Note_on_c, 4, 80, 0
10, 363120, Note_on_c, 4, 81, 76
10, 363219, Note_on_c, 4, 81, 0
10, 363240, Note_on_c, 4, 83, 76
10, 363339, Note_on_c, 4, 83, 0
10, 363360, Note_on_c, 4, 76, 76
10, 363614, Note_on_c, 4, 76, 0
10, 363630, Note_on_c, 4, 80, 76
10, 363704, Note_on_c, 4, 80, 0
10, 363720, Note_on_c, 4, 69, 76
10, 363839, Note_on_c, 4, 69, 0
10, 363840, Note_on_c, 4, 73, 76
10, 363959, Note_on_c, 4, 73, 0
10, 363960, Note_on_c, 4, 76, 76
10, 364059, Note_on_c, 4, 76, 0
10, 364080, Note_on_c, 4, 81, 76
10, 364199, Note_on_c, 4, 81, 0
10, 364200, Note_on_c, 4, 83, 76
10, 364299, Note_on_c, 4, 83, 0
10, 364320, Note_on_c, 4, 79, 76
10, 364419, Note_on_c, 4, 79, 0
10, 364440, Note_on_c, 4, 79, 76
10, 364559, Note_on_c, 4, 79, 0
10, 364560, Note_on_c, 4, 81, 76
10, 364659, Note_on_c, 4, 81, 0
10, 364680, Note_on_c, 4, 78, 76
10, 364779, Note_on_c, 4, 78, 0
10, 364800, Note_on_c, 4, 78, 76
10, 364919, Note_on_c, 4, 78, 0
10, 364920, Note_on_c, 4, 74, 76
10, 365039, Note_on_c, 4, 74, 0
10, 365040, Note_on_c, 4, 76, 76
10, 365159, Note_on_c, 4, 76, 0
10, 365160, Note_on_c, 4, 78, 76
10, 365279, Note_on_c, 4, 78, 0
10, 365280, Note_on_c, 4, 79, 76
10, 365379, Note_on_c, 4, 79, 0
10, 365400, Note_on_c, 4, 81, 76
10, 365499, Note_on_c, 4, 81, 0
10, 365520, Note_on_c, 4, 74, 76
10, 365774, Note_on_c, 4, 74, 0
10, 365790, Note_on_c, 4, 78, 76
10, 365864, Note_on_c, 4, 78, 0
10, 365880, Note_on_c, 4, 67, 76
10, 365999, Note_on_c, 4, 67, 0
10, 366000, Note_on_c, 4, 71, 76
10, 366119, Note_on_c, 4, 71, 0
10, 366120, Note_on_c, 4, 74, 76
10, 366219, Note_on_c, 4, 74, 0
10, 366240, Note_on_c, 4, 79, 76
10, 366359, Note_on_c, 4, 79, 0
10, 366360, Note_on_c, 4, 81, 76
10, 366459, Note_on_c, 4, 81, 0
10, 366480, Note_on_c, 4, 78, 76
10, 366579, Note_on_c, 4, 78, 0
10, 366600, Note_on_c, 4, 78, 76
10, 366719, Note_on_c, 4, 78, 0
10, 366720, Note_on_c, 4, 79, 76
10, 366819, Note_on_c, 4, 79, 0
10, 366840, Note_on_c, 4, 76, 76
10, 366939, Note_on_c, 4, 76, 0
10, 366960, Note_on_c, 4, 76, 76
10, 367079, Note_on_c, 4, 76, 0
10, 367080, Note_on_c, 4, 78, 76
10, 367199, Note_on_c, 4, 78, 0
10, 367200, Note_on_c, 4, 79, 76
10, 367319, Note_on_c, 4, 79, 0
10, 367320, Note_on_c, 4, 81, 76
10, 367439, Note_on_c, 4, 81, 0
10, 367440, Note_on_c, 4, 83, 76
10, 367539, Note_on_c, 4, 83, 0
10, 367560, Note_on_c, 4, 79, 76
10, 367659, Note_on_c, 4, 79, 0
10, 367680, Note_on_c, 4, 79, 76
10, 367799, Note_on_c, 4, 79, 0
10, 367800, Note_on_c, 4, 81, 76
10, 367899, Note_on_c, 4, 81, 0
10, 367920, Note_on_c, 4, 78, 76
10, 368019, Note_on_c, 4, 78, 0
10, 368040, Note_on_c, 4, 78, 76
10, 368159, Note_on_c, 4, 78, 0
10, 368160, Note_on_c, 4, 79, 76
10, 368279, Note_on_c, 4, 79, 0
10, 368280, Note_on_c, 4, 81, 76
10, 368399, Note_on_c, 4, 81, 0
10, 368400, Note_on_c, 4, 83, 76
10, 368519, Note_on_c, 4, 83, 0
10, 368520, Note_on_c, 4, 84, 76
10, 368619, Note_on_c, 4, 84, 0
10, 368640, Note_on_c, 4, 81, 76
10, 368739, Note_on_c, 4, 81, 0
10, 368760, Note_on_c, 4, 81, 76
10, 368879, Note_on_c, 4, 81, 0
10, 368880, Note_on_c, 4, 83, 76
10, 368979, Note_on_c, 4, 83, 0
10, 369000, Note_on_c, 4, 79, 76
10, 369099, Note_on_c, 4, 79, 0
10, 369120, Note_on_c, 4, 79, 76
10, 369374, Note_on_c, 4, 79, 0
10, 369390, Note_on_c, 4, 79, 76
10, 369464, Note_on_c, 4, 79, 0
10, 369480, Note_on_c, 4, 79, 76
10, 369734, Note_on_c, 4, 79, 0
10, 369750, Note_on_c, 4, 79, 76
10, 369824, Note_on_c, 4, 79, 0
10, 369840, Note_on_c, 4, 79, 76
10, 370094, Note_on_c, 4, 79, 0
10, 370110, Note_on_c, 4, 79, 76
10, 370184, Note_on_c, 4, 79, 0
10, 370200, Note_on_c, 4, 79, 76
10, 370319, Note_on_c, 4, 79, 0
10, 370320, Note_on_c, 4, 76, 76
10, 370419, Note_on_c, 4, 76, 0
10, 370440, Note_on_c, 4, 78, 76
10, 370539, Note_on_c, 4, 78, 0
10, 370560, Note_on_c, 4, 79, 76
10, 370679, Note_on_c, 4, 79, 0
10, 370680, Note_on_c, 4, 81, 76
10, 370779, Note_on_c, 4, 81, 0
10, 370800, Note_on_c, 4, 78, 76
10, 370899, Note_on_c, 4, 78, 0
10, 370920, Note_on_c, 4, 79, 76
10, 371039, Note_on_c, 4, 79, 0
10, 371040, Note_on_c, 4, 78, 76
10, 371139, Note_on_c, 4, 78, 0
10, 371160, Note_on_c, 4, 76, 76
10, 371259, Note_on_c, 4, 76, 0
10, 371280, Note_on_c, 4, 78, 76
10, 371399, Note_on_c, 4, 78, 0
10, 371400, Note_on_c, 4, 81, 76
10, 371499, Note_on_c, 4, 81, 0
10, 371520, Note_on_c, 4, 79, 76
10, 371619, Note_on_c, 4, 79, 0
10, 371640, Note_on_c, 4, 81, 76
10, 371894, Note_on_c, 4, 81, 0
10, 371910, Note_on_c, 4, 74, 76
10, 371984, Note_on_c, 4, 74, 0
10, 372000, Note_on_c, 4, 69, 76
10, 372254, Note_on_c, 4, 69, 0
10, 372270, Note_on_c, 4, 73, 76
10, 372344, Note_on_c, 4, 73, 0
10, 372360, Note_on_c, 4, 74, 76
10, 372479, Note_on_c, 4, 74, 0
10, 372720, Note_on_c, 4, 78, 76
10, 372839, Note_on_c, 4, 78, 0
10, 373080, Note_on_c, 4, 81, 76
10, 373199, Note_on_c, 4, 81, 0
10, 373440, Note_on_c, 4, 86, 76
10, 373559, Note_on_c, 4, 86, 0
10, 373800, Note_on_c, 4, 78, 76
10, 373919, Note_on_c, 4, 78, 0
10, 374160, Note_on_c, 4, 81, 76
10, 374279, Note_on_c, 4, 81, 0
10, 374520, Note_on_c, 4, 74, 76
10, 374813, Note_on_c, 4, 74, 0
10, 374820, Note_on_c, 4, 73, 76
10, 374873, Note_on_c, 4, 73, 0
10, 374880, Note_on_c, 4, 74, 76
10, 374933, Note_on_c, 4, 74, 0
10, 374940, Note_on_c, 4, 69, 76
10, 374993, Note_on_c, 4, 69, 0
10, 375000, Note_on_c, 4, 78, 76
10, 375533, Note_on_c, 4, 78, 0
10, 375540, Note_on_c, 4, 76, 76
10, 375593, Note_on_c, 4, 76, 0
10, 375600, Note_on_c, 4, 74, 76
10, 375653, Note_on_c, 4, 74, 0
10, 375660, Note_on_c, 4, 76, 76
10, 375713, Note_on_c, 4, 76, 0
10, 375720, Note_on_c, 4, 78, 76
10, 375773, Note_on_c, 4, 78, 0
10, 375780, Note_on_c, 4, 76, 76
10, 375833, Note_on_c, 4, 76, 0
10, 375840, Note_on_c, 4, 78, 76
10, 375893, Note_on_c, 4, 78, 0
10, 375900, Note_on_c, 4, 74, 76
10, 375953, Note_on_c, 4, 74, 0
10, 375960, Note_on_c, 4, 81, 76
10, 376493, Note_on_c, 4, 81, 0
10, 376500, Note_on_c, 4, 79, 76
10, 376553, Note_on_c, 4, 79, 0
10, 376560, Note_on_c, 4, 78, 76
10, 376613, Note_on_c, 4, 78, 0
10, 376620, Note_on_c, 4, 79, 76
10, 376673, Note_on_c, 4, 79, 0
10, 376680, Note_on_c, 4, 81, 76
10, 376733, Note_on_c, 4, 81, 0
10, 376740, Note_on_c, 4, 79, 76
10, 376793, Note_on_c, 4, 79, 0
10, 376800, Note_on_c, 4, 81, 76
10, 376853, Note_on_c, 4, 81, 0
10, 376860, Note_on_c, 4, 78, 76
10, 376913, Note_on_c, 4, 78, 0
10, 376920, Note_on_c, 4, 71, 76
10, 377093, Note_on_c, 4, 71, 0
10, 377100, Note_on_c, 4, 81, 76
10, 377153, Note_on_c, 4, 81, 0
10, 377160, Note_on_c, 4, 83, 76
10, 377333, Note_on_c, 4, 83, 0
10, 377340, Note_on_c, 4, 78, 76
10, 377393, Note_on_c, 4, 78, 0
10, 377400, Note_on_c, 4, 79, 76
10, 378469, Note_on_c, 4, 79, 0
10, 378480, Note_on_c, 4, 69, 76
10, 378533, Note_on_c, 4, 69, 0
10, 378540, Note_on_c, 4, 71, 76
10, 378593, Note_on_c, 4, 71, 0
10, 378600, Note_on_c, 4, 73, 76
10, 378653, Note_on_c, 4, 73, 0
10, 378660, Note_on_c, 4, 74, 76
10, 378713, Note_on_c, 4, 74, 0
10, 378720, Note_on_c, 4, 76, 76
10, 378773, Note_on_c, 4, 76, 0
10, 378780, Note_on_c, 4, 78, 76
10, 378833, Note_on_c, 4, 78, 0
10, 378840, Note_on_c, 4, 79, 76
10, 378893, Note_on_c, 4, 79, 0
10, 378900, Note_on_c, 4, 78, 76
10, 378953, Note_on_c, 4, 78, 0
10, 378960, Note_on_c, 4, 76, 76
10, 379013, Note_on_c, 4, 76, 0
10, 379020, Note_on_c, 4, 78, 76
10, 379073, Note_on_c, 4, 78, 0
10, 379080, Note_on_c, 4, 79, 76
10, 379133, Note_on_c, 4, 79, 0
10, 379140, Note_on_c, 4, 76, 76
10, 379193, Note_on_c, 4, 76, 0
10, 379200, Note_on_c, 4, 81, 76
10, 379253, Note_on_c, 4, 81, 0
10, 379260, Note_on_c, 4, 76, 76
10, 379313, Note_on_c, 4, 76, 0
10, 379320, Note_on_c, 4, 78, 76
10, 379613, Note_on_c, 4, 78, 0
10, 379620, Note_on_c, 4, 76, 76
10, 379673, Note_on_c, 4, 76, 0
10, 379680, Note_on_c, 4, 78, 76
10, 379733, Note_on_c, 4, 78, 0
10, 379740, Note_on_c, 4, 74, 76
10, 379793, Note_on_c, 4, 74, 0
10, 379800, Note_on_c, 4, 81, 76
10, 380573, Note_on_c, 4, 81, 0
10, 380580, Note_on_c, 4, 79, 76
10, 380633, Note_on_c, 4, 79, 0
10, 380640, Note_on_c, 4, 81, 76
10, 380693, Note_on_c, 4, 81, 0
10, 380700, Note_on_c, 4, 78, 76
10, 380753, Note_on_c, 4, 78, 0
10, 380760, Note_on_c, 4, 79, 76
10, 381533, Note_on_c, 4, 79, 0
10, 381540, Note_on_c, 4, 78, 76
10, 381593, Note_on_c, 4, 78, 0
10, 381600, Note_on_c, 4, 79, 76
10, 381653, Note_on_c, 4, 79, 0
10, 381660, Note_on_c, 4, 76, 76
10, 381713, Note_on_c, 4, 76, 0
10, 381720, Note_on_c, 4, 78, 76
10, 381773, Note_on_c, 4, 78, 0
10, 381780, Note_on_c, 4, 81, 76
10, 381833, Note_on_c, 4, 81, 0
10, 381840, Note_on_c, 4, 86, 76
10, 381893, Note_on_c, 4, 86, 0
10, 381900, Note_on_c, 4, 85, 76
10, 381953, Note_on_c, 4, 85, 0
10, 381960, Note_on_c, 4, 83, 76
10, 382013, Note_on_c, 4, 83, 0
10, 382020, Note_on_c, 4, 81, 76
10, 382073, Note_on_c, 4, 81, 0
10, 382080, Note_on_c, 4, 79, 76
10, 382133, Note_on_c, 4, 79, 0
10, 382140, Note_on_c, 4, 78, 76
10, 382193, Note_on_c, 4, 78, 0
10, 382200, Note_on_c, 4, 79, 76
10, 382549, Note_on_c, 4, 79, 0
10, 382560, Note_on_c, 4, 79, 76
10, 382669, Note_on_c, 4, 79, 0
10, 382680, Note_on_c, 4, 79, 76
10, 382853, Note_on_c, 4, 79, 0
10, 382860, Note_on_c, 4, 76, 76
10, 382913, Note_on_c, 4, 76, 0
10, 382920, Note_on_c, 4, 81, 76
10, 383093, Note_on_c, 4, 81, 0
10, 383100, Note_on_c, 4, 76, 76
10, 383153, Note_on_c, 4, 76, 0
10, 383160, Note_on_c, 4, 78, 76
10, 383389, Note_on_c, 4, 78, 0
10, 383400, Note_on_c, 4, 74, 76
10, 383629, Note_on_c, 4, 74, 0
10, 383640, Note_on_c, 4, 71, 76
10, 384173, Note_on_c, 4, 71, 0
10, 384180, Note_on_c, 4, 71, 76
10, 384233, Note_on_c, 4, 71, 0
10, 384240, Note_on_c, 4, 73, 76
10, 384293, Note_on_c, 4, 73, 0
10, 384300, Note_on_c, 4, 74, 76
10, 384353, Note_on_c, 4, 74, 0
10, 384360, Note_on_c, 4, 76, 76
10, 384413, Note_on_c, 4, 76, 0
10, 384420, Note_on_c, 4, 74, 76
10, 384473, Note_on_c, 4, 74, 0
10, 384480, Note_on_c, 4, 76, 76
10, 384533, Note_on_c, 4, 76, 0
10, 384540, Note_on_c, 4, 73, 76
10, 384593, Note_on_c, 4, 73, 0
10, 384600, Note_on_c, 4, 66, 76
10, 384773, Note_on_c, 4, 66, 0
10, 384780, Note_on_c, 4, 76, 76
10, 384833, Note_on_c, 4, 76, 0
10, 384840, Note_on_c, 4, 74, 76
10, 385013, Note_on_c, 4, 74, 0
10, 385020, Note_on_c, 4, 73, 76
10, 385073, Note_on_c, 4, 73, 0
10, 385080, Note_on_c, 4, 74, 76
10, 385373, Note_on_c, 4, 74, 0
10, 385380, Note_on_c, 4, 73, 76
10, 385433, Note_on_c, 4, 73, 0
10, 385440, Note_on_c, 4, 74, 76
10, 385493, Note_on_c, 4, 74, 0
10, 385500, Note_on_c, 4, 71, 76
10, 385553, Note_on_c, 4, 71, 0
10, 385560, Note_on_c, 4, 67, 76
10, 386093, Note_on_c, 4, 67, 0
10, 386100, Note_on_c, 4, 66, 76
10, 386153, Note_on_c, 4, 66, 0
10, 386160, Note_on_c, 4, 67, 76
10, 386213, Note_on_c, 4, 67, 0
10, 386220, Note_on_c, 4, 64, 76
10, 386273, Note_on_c, 4, 64, 0
10, 386280, Note_on_c, 4, 66, 76
10, 386453, Note_on_c, 4, 66, 0
10, 386460, Note_on_c, 4, 67, 76
10, 386513, Note_on_c, 4, 67, 0
10, 386520, Note_on_c, 4, 69, 76
10, 386693, Note_on_c, 4, 69, 0
10, 386700, Note_on_c, 4, 71, 76
10, 386753, Note_on_c, 4, 71, 0
10, 386760, Note_on_c, 4, 73, 76
10, 386933, Note_on_c, 4, 73, 0
10, 386940, Note_on_c, 4, 74, 76
10, 386993, Note_on_c, 4, 74, 0
10, 387000, Note_on_c, 4, 73, 76
10, 387053, Note_on_c, 4, 73, 0
10, 387060, Note_on_c, 4, 74, 76
10, 387113, Note_on_c, 4, 74, 0
10, 387120, Note_on_c, 4, 76, 76
10, 387173, Note_on_c, 4, 76, 0
10, 387180, Note_on_c, 4, 73, 76
10, 387233, Note_on_c, 4, 73, 0
10, 387240, Note_on_c, 4, 69, 76
10, 387533, Note_on_c, 4, 69, 0
10, 387540, Note_on_c, 4, 71, 76
10, 387593, Note_on_c, 4, 71, 0
10, 387600, Note_on_c, 4, 73, 76
10, 387653, Note_on_c, 4, 73, 0
10, 387660, Note_on_c, 4, 69, 76
10, 387713, Note_on_c, 4, 69, 0
10, 387720, Note_on_c, 4, 76, 76
10, 388013, Note_on_c, 4, 76, 0
10, 388020, Note_on_c, 4, 74, 76
10, 388073, Note_on_c, 4, 74, 0
10, 388080, Note_on_c, 4, 76, 76
10, 388133, Note_on_c, 4, 76, 0
10, 388140, Note_on_c, 4, 73, 76
10, 388193, Note_on_c, 4, 73, 0
10, 388200, Note_on_c, 4, 74, 76
10, 388493, Note_on_c, 4, 74, 0
10, 388500, Note_on_c, 4, 73, 76
10, 388553, Note_on_c, 4, 73, 0
10, 388560, Note_on_c, 4, 74, 76
10, 388613, Note_on_c, 4, 74, 0
10, 388620, Note_on_c, 4, 69, 76
10, 388673, Note_on_c, 4, 69, 0
10, 388680, Note_on_c, 4, 78, 76
10, 388973, Note_on_c, 4, 78, 0
10, 388980, Note_on_c, 4, 76, 76
10, 389033, Note_on_c, 4, 76, 0
10, 389040, Note_on_c, 4, 78, 76
10, 389093, Note_on_c, 4, 78, 0
10, 389100, Note_on_c, 4, 74, 76
10, 389153, Note_on_c, 4, 74, 0
10, 389160, Note_on_c, 4, 76, 76
10, 389453, Note_on_c, 4, 76, 0
10, 389460, Note_on_c, 4, 74, 76
10, 389513, Note_on_c, 4, 74, 0
10, 389520, Note_on_c, 4, 76, 76
10, 389573, Note_on_c, 4, 76, 0
10, 389580, Note_on_c, 4, 73, 76
10, 389633, Note_on_c, 4, 73, 0
10, 389640, Note_on_c, 4, 79, 76
10, 389933, Note_on_c, 4, 79, 0
10, 389940, Note_on_c, 4, 77, 76
10, 389993, Note_on_c, 4, 77, 0
10, 390000, Note_on_c, 4, 79, 76
10, 390053, Note_on_c, 4, 79, 0
10, 390060, Note_on_c, 4, 76, 76
10, 390113, Note_on_c, 4, 76, 0
10, 390120, Note_on_c, 4, 77, 76
10, 390413, Note_on_c, 4, 77, 0
10, 390420, Note_on_c, 4, 76, 76
10, 390473, Note_on_c, 4, 76, 0
10, 390480, Note_on_c, 4, 77, 76
10, 390533, Note_on_c, 4, 77, 0
10, 390540, Note_on_c, 4, 74, 76
10, 390593, Note_on_c, 4, 74, 0
10, 390600, Note_on_c, 4, 76, 76
10, 390893, Note_on_c, 4, 76, 0
10, 390900, Note_on_c, 4, 74, 76
10, 390953, Note_on_c, 4, 74, 0
10, 390960, Note_on_c, 4, 76, 76
10, 391013, Note_on_c, 4, 76, 0
10, 391020, Note_on_c, 4, 73, 76
10, 391073, Note_on_c, 4, 73, 0
10, 391080, Note_on_c, 4, 74, 76
10, 391133, Note_on_c, 4, 74, 0
10, 391140, Note_on_c, 4, 73, 76
10, 391193, Note_on_c, 4, 73, 0
10, 391200, Note_on_c, 4, 74, 76
10, 391253, Note_on_c, 4, 74, 0
10, 391260, Note_on_c, 4, 71, 76
10, 391313, Note_on_c, 4, 71, 0
10, 391320, Note_on_c, 4, 72, 76
10, 391853, Note_on_c, 4, 72, 0
10, 391860, Note_on_c, 4, 71, 76
10, 391913, Note_on_c, 4, 71, 0
10, 391920, Note_on_c, 4, 72, 76
10, 391973, Note_on_c, 4, 72, 0
10, 391980, Note_on_c, 4, 69, 76
10, 392033, Note_on_c, 4, 69, 0
10, 392040, Note_on_c, 4, 71, 76
10, 392213, Note_on_c, 4, 71, 0
10, 392220, Note_on_c, 4, 73, 76
10, 392273, Note_on_c, 4, 73, 0
10, 392280, Note_on_c, 4, 74, 76
10, 392629, Note_on_c, 4, 74, 0
10, 392640, Note_on_c, 4, 76, 76
10, 392749, Note_on_c, 4, 76, 0
10, 392760, Note_on_c, 4, 69, 76
10, 392933, Note_on_c, 4, 69, 0
10, 392940, Note_on_c, 4, 79, 76
10, 392993, Note_on_c, 4, 79, 0
10, 393000, Note_on_c, 4, 78, 76
10, 393173, Note_on_c, 4, 78, 0
10, 393180, Note_on_c, 4, 76, 76
10, 393233, Note_on_c, 4, 76, 0
10, 393240, Note_on_c, 4, 73, 76
10, 393254, Note_on_c, 4, 73, 0
10, 393255, Note_on_c, 4, 74, 76
10, 393269, Note_on_c, 4, 74, 0
10, 393270, Note_on_c, 4, 73, 76
10, 393284, Note_on_c, 4, 73, 0
10, 393285, Note_on_c, 4, 74, 76
10, 393299, Note_on_c, 4, 74, 0
10, 393300, Note_on_c, 4, 73, 76
10, 393314, Note_on_c, 4, 73, 0
10, 393315, Note_on_c, 4, 74, 76
10, 393329, Note_on_c, 4, 74, 0
10, 393330, Note_on_c, 4, 73, 76
10, 393344, Note_on_c, 4, 73, 0
10, 393345, Note_on_c, 4, 74, 76
10, 393359, Note_on_c, 4, 74, 0
10, 393360, Note_on_c, 4, 73, 76
10, 393374, Note_on_c, 4, 73, 0
10, 393375, Note_on_c, 4, 74, 76
10, 393389, Note_on_c, 4, 74, 0
10, 393390, Note_on_c, 4, 73, 76
10, 393404, Note_on_c, 4, 73, 0
10, 393405, Note_on_c, 4, 74, 76
10, 393419, Note_on_c, 4, 74, 0
10, 393420, Note_on_c, 4, 73, 76
10, 393434, Note_on_c, 4, 73, 0
10, 393435, Note_on_c, 4, 74, 76
10, 393449, Note_on_c, 4, 74, 0
10, 393450, Note_on_c, 4, 73, 76
10, 393464, Note_on_c, 4, 73, 0
10, 393465, Note_on_c, 4, 74, 76
10, 393479, Note_on_c, 4, 74, 0
10, 393480, Note_on_c, 4, 73, 76
10, 393494, Note_on_c, 4, 73, 0
10, 393495, Note_on_c, 4, 74, 76
10, 393509, Note_on_c, 4, 74, 0
10, 393510, Note_on_c, 4, 73, 76
10, 393524, Note_on_c, 4, 73, 0
10, 393525, Note_on_c, 4, 74, 76
10, 393539, Note_on_c, 4, 74, 0
10, 393540, Note_on_c, 4, 73, 76
10, 393554, Note_on_c, 4, 73, 0
10, 393555, Note_on_c, 4, 74, 76
10, 393569, Note_on_c, 4, 74, 0
10, 393570, Note_on_c, 4, 71, 76
10, 393584, Note_on_c, 4, 71, 0
10, 393585, Note_on_c, 4, 73, 76
10, 393599, Note_on_c, 4, 73, 0
10, 393600, Note_on_c, 4, 74, 76
10, 393709, Note_on_c, 4, 74, 0
10, 393720, Note_on_c, 4, 74, 76
10, 394679, Note_on_c, 4, 74, 0
10, 394679, End_track
11, 0, Start_track
11, 0, Title_t, "Oboe II"
11, 0, MIDI_port, 0
11, 0, Program_c, 5, 68
11, 0, Control_c, 5, 10, 64
11, 0, Control_c, 5, 11, 127
11, 0, Control_c, 5, 7, 80
11, 420, Note_on_c, 5, 74, 76
11, 473, Note_on_c, 5, 74, 0
11, 480, Note_on_c, 5, 74, 76
11, 653, Note_on_c, 5, 74, 0
11, 660, Note_on_c, 5, 69, 76
11, 713, Note_on_c, 5, 69, 0
11, 720, Note_on_c, 5, 66, 76
11, 1199, Note_on_c, 5, 66, 0
11, 1380, Note_on_c, 5, 74, 76
11, 1433, Note_on_c, 5, 74, 0
11, 1440, Note_on_c, 5, 74, 76
11, 1613, Note_on_c, 5, 74, 0
11, 1620, Note_on_c, 5, 69, 76
11, 1673, Note_on_c, 5, 69, 0
11, 1680, Note_on_c, 5, 71, 76
11, 2159, Note_on_c, 5, 71, 0
11, 2340, Note_on_c, 5, 74, 76
11, 2393, Note_on_c, 5, 74, 0
11, 2400, Note_on_c, 5, 74, 76
11, 2573, Note_on_c, 5, 74, 0
11, 2580, Note_on_c, 5, 67, 76
11, 2633, Note_on_c, 5, 67, 0
11, 2640, Note_on_c, 5, 69, 76
11, 2879, Note_on_c, 5, 69, 0
11, 3060, Note_on_c, 5, 74, 76
11, 3113, Note_on_c, 5, 74, 0
11, 3120, Note_on_c, 5, 76, 76
11, 3469, Note_on_c, 5, 76, 0
11, 3480, Note_on_c, 5, 76, 76
11, 3589, Note_on_c, 5, 76, 0
11, 3600, Note_on_c, 5, 76, 76
11, 3829, Note_on_c, 5, 76, 0
11, 3840, Note_on_c, 5, 73, 76
11, 4069, Note_on_c, 5, 73, 0
11, 4080, Note_on_c, 5, 74, 76
11, 4309, Note_on_c, 5, 74, 0
11, 4320, Note_on_c, 5, 69, 76
11, 4559, Note_on_c, 5, 69, 0
11, 4740, Note_on_c, 5, 78, 76
11, 4793, Note_on_c, 5, 78, 0
11, 4800, Note_on_c, 5, 78, 76
11, 4973, Note_on_c, 5, 78, 0
11, 4980, Note_on_c, 5, 72, 76
11, 5033, Note_on_c, 5, 72, 0
11, 5040, Note_on_c, 5, 71, 76
11, 5389, Note_on_c, 5, 71, 0
11, 5400, Note_on_c, 5, 71, 76
11, 5509, Note_on_c, 5, 71, 0
11, 5520, Note_on_c, 5, 75, 76
11, 5693, Note_on_c, 5, 75, 0
11, 5700, Note_on_c, 5, 78, 76
11, 5753, Note_on_c, 5, 78, 0
11, 5760, Note_on_c, 5, 71, 76
11, 5933, Note_on_c, 5, 71, 0
11, 5940, Note_on_c, 5, 75, 76
11, 5993, Note_on_c, 5, 75, 0
11, 6000, Note_on_c, 5, 76, 76
11, 6173, Note_on_c, 5, 76, 0
11, 6180, Note_on_c, 5, 76, 76
11, 6233, Note_on_c, 5, 76, 0
11, 6240, Note_on_c, 5, 76, 76
11, 6413, Note_on_c, 5, 76, 0
11, 6420, Note_on_c, 5, 71, 76
11, 6473, Note_on_c, 5, 71, 0
11, 6480, Note_on_c, 5, 67, 76
11, 6719, Note_on_c, 5, 67, 0
11, 6900, Note_on_c, 5, 66, 76
11, 6953, Note_on_c, 5, 66, 0
11, 6960, Note_on_c, 5, 67, 76
11, 7309, Note_on_c, 5, 67, 0
11, 7320, Note_on_c, 5, 67, 76
11, 7429, Note_on_c, 5, 67, 0
11, 7440, Note_on_c, 5, 69, 76
11, 7613, Note_on_c, 5, 69, 0
11, 7620, Note_on_c, 5, 67, 76
11, 7673, Note_on_c, 5, 67, 0
11, 7680, Note_on_c, 5, 69, 76
11, 7853, Note_on_c, 5, 69, 0
11, 7860, Note_on_c, 5, 71, 76
11, 7913, Note_on_c, 5, 71, 0
11, 7920, Note_on_c, 5, 69, 76
11, 8093, Note_on_c, 5, 69, 0
11, 8100, Note_on_c, 5, 73, 76
11, 8153, Note_on_c, 5, 73, 0
11, 8160, Note_on_c, 5, 73, 76
11, 8333, Note_on_c, 5, 73, 0
11, 8340, Note_on_c, 5, 76, 76
11, 8393, Note_on_c, 5, 76, 0
11, 8400, Note_on_c, 5, 76, 76
11, 8573, Note_on_c, 5, 76, 0
11, 8580, Note_on_c, 5, 74, 76
11, 8633, Note_on_c, 5, 74, 0
11, 8640, Note_on_c, 5, 76, 76
11, 8813, Note_on_c, 5, 76, 0
11, 8820, Note_on_c, 5, 73, 76
11, 8873, Note_on_c, 5, 73, 0
11, 8880, Note_on_c, 5, 69, 76
11, 9359, Note_on_c, 5, 69, 0
11, 9540, Note_on_c, 5, 74, 76
11, 9593, Note_on_c, 5, 74, 0
11, 9600, Note_on_c, 5, 74, 76
11, 9773, Note_on_c, 5, 74, 0
11, 9780, Note_on_c, 5, 69, 76
11, 9833, Note_on_c, 5, 69, 0
11, 9840, Note_on_c, 5, 69, 76
11, 10319, Note_on_c, 5, 69, 0
11, 10500, Note_on_c, 5, 73, 76
11, 10553, Note_on_c, 5, 73, 0
11, 10560, Note_on_c, 5, 73, 76
11, 10733, Note_on_c, 5, 73, 0
11, 10740, Note_on_c, 5, 69, 76
11, 10793, Note_on_c, 5, 69, 0
11, 10800, Note_on_c, 5, 71, 76
11, 11149, Note_on_c, 5, 71, 0
11, 11160, Note_on_c, 5, 71, 76
11, 11269, Note_on_c, 5, 71, 0
11, 11280, Note_on_c, 5, 71, 76
11, 11509, Note_on_c, 5, 71, 0
11, 11520, Note_on_c, 5, 68, 76
11, 11749, Note_on_c, 5, 68, 0
11, 11760, Note_on_c, 5, 69, 76
11, 11933, Note_on_c, 5, 69, 0
11, 11940, Note_on_c, 5, 76, 76
11, 11993, Note_on_c, 5, 76, 0
11, 12000, Note_on_c, 5, 76, 76
11, 12173, Note_on_c, 5, 76, 0
11, 12180, Note_on_c, 5, 73, 76
11, 12233, Note_on_c, 5, 73, 0
11, 12240, Note_on_c, 5, 73, 76
11, 12719, Note_on_c, 5, 73, 0
11, 12900, Note_on_c, 5, 74, 76
11, 12953, Note_on_c, 5, 74, 0
11, 12960, Note_on_c, 5, 74, 76
11, 13133, Note_on_c, 5, 74, 0
11, 13140, Note_on_c, 5, 71, 76
11, 13193, Note_on_c, 5, 71, 0
11, 13200, Note_on_c, 5, 73, 76
11, 13429, Note_on_c, 5, 73, 0
11, 13440, Note_on_c, 5, 77, 76
11, 13669, Note_on_c, 5, 77, 0
11, 13680, Note_on_c, 5, 78, 76
11, 14159, Note_on_c, 5, 78, 0
11, 14340, Note_on_c, 5, 73, 76
11, 14393, Note_on_c, 5, 73, 0
11, 14400, Note_on_c, 5, 73, 76
11, 14573, Note_on_c, 5, 73, 0
11, 14580, Note_on_c, 5, 69, 76
11, 14633, Note_on_c, 5, 69, 0
11, 14640, Note_on_c, 5, 71, 76
11, 14989, Note_on_c, 5, 71, 0
11, 15000, Note_on_c, 5, 69, 76
11, 15053, Note_on_c, 5, 69, 0
11, 15060, Note_on_c, 5, 68, 76
11, 15113, Note_on_c, 5, 68, 0
11, 15120, Note_on_c, 5, 69, 76
11, 15293, Note_on_c, 5, 69, 0
11, 15300, Note_on_c, 5, 69, 76
11, 15353, Note_on_c, 5, 69, 0
11, 15360, Note_on_c, 5, 71, 76
11, 15533, Note_on_c, 5, 71, 0
11, 15540, Note_on_c, 5, 73, 76
11, 15593, Note_on_c, 5, 73, 0
11, 15600, Note_on_c, 5, 68, 76
11, 15773, Note_on_c, 5, 68, 0
11, 15780, Note_on_c, 5, 74, 76
11, 15833, Note_on_c, 5, 74, 0
11, 15840, Note_on_c, 5, 74, 76
11, 16013, Note_on_c, 5, 74, 0
11, 16020, Note_on_c, 5, 71, 76
11, 16073, Note_on_c, 5, 71, 0
11, 16080, Note_on_c, 5, 68, 76
11, 16559, Note_on_c, 5, 68, 0
11, 16740, Note_on_c, 5, 76, 76
11, 16793, Note_on_c, 5, 76, 0
11, 16800, Note_on_c, 5, 76, 76
11, 16973, Note_on_c, 5, 76, 0
11, 16980, Note_on_c, 5, 73, 76
11, 17033, Note_on_c, 5, 73, 0
11, 17040, Note_on_c, 5, 69, 76
11, 17519, Note_on_c, 5, 69, 0
11, 17700, Note_on_c, 5, 77, 76
11, 17753, Note_on_c, 5, 77, 0
11, 17760, Note_on_c, 5, 77, 76
11, 17933, Note_on_c, 5, 77, 0
11, 17940, Note_on_c, 5, 74, 76
11, 17993, Note_on_c, 5, 74, 0
11, 18000, Note_on_c, 5, 71, 76
11, 18479, Note_on_c, 5, 71, 0
11, 18660, Note_on_c, 5, 74, 76
11, 18713, Note_on_c, 5, 74, 0
11, 18720, Note_on_c, 5, 72, 76
11, 18959, Note_on_c, 5, 72, 0
11, 19140, Note_on_c, 5, 72, 76
11, 19193, Note_on_c, 5, 72, 0
11, 19200, Note_on_c, 5, 71, 76
11, 19439, Note_on_c, 5, 71, 0
11, 19620, Note_on_c, 5, 71, 76
11, 19673, Note_on_c, 5, 71, 0
11, 19680, Note_on_c, 5, 69, 76
11, 19853, Note_on_c, 5, 69, 0
11, 19860, Note_on_c, 5, 72, 76
11, 19913, Note_on_c, 5, 72, 0
11, 19920, Note_on_c, 5, 76, 76
11, 20573, Note_on_c, 5, 76, 0
11, 20580, Note_on_c, 5, 73, 76
11, 20633, Note_on_c, 5, 73, 0
11, 20640, Note_on_c, 5, 74, 76
11, 20813, Note_on_c, 5, 74, 0
11, 20820, Note_on_c, 5, 71, 76
11, 20873, Note_on_c, 5, 71, 0
11, 20880, Note_on_c, 5, 73, 76
11, 21053, Note_on_c, 5, 73, 0
11, 21060, Note_on_c, 5, 69, 76
11, 21113, Note_on_c, 5, 69, 0
11, 21120, Note_on_c, 5, 71, 76
11, 21293, Note_on_c, 5, 71, 0
11, 21300, Note_on_c, 5, 66, 76
11, 21353, Note_on_c, 5, 66, 0
11, 21360, Note_on_c, 5, 71, 76
11, 21533, Note_on_c, 5, 71, 0
11, 21540, Note_on_c, 5, 68, 76
11, 21593, Note_on_c, 5, 68, 0
11, 21600, Note_on_c, 5, 69, 76
11, 21773, Note_on_c, 5, 69, 0
11, 21780, Note_on_c, 5, 71, 76
11, 21833, Note_on_c, 5, 71, 0
11, 21840, Note_on_c, 5, 68, 76
11, 21854, Note_on_c, 5, 68, 0
11, 21855, Note_on_c, 5, 69, 76
11, 21869, Note_on_c, 5, 69, 0
11, 21870, Note_on_c, 5, 68, 76
11, 21884, Note_on_c, 5, 68, 0
11, 21885, Note_on_c, 5, 69, 76
11, 21899, Note_on_c, 5, 69, 0
11, 21900, Note_on_c, 5, 68, 76
11, 21914, Note_on_c, 5, 68, 0
11, 21915, Note_on_c, 5, 69, 76
11, 21929, Note_on_c, 5, 69, 0
11, 21930, Note_on_c, 5, 68, 76
11, 21944, Note_on_c, 5, 68, 0
11, 21945, Note_on_c, 5, 69, 76
11, 21959, Note_on_c, 5, 69, 0
11, 21960, Note_on_c, 5, 68, 76
11, 21974, Note_on_c, 5, 68, 0
11, 21975, Note_on_c, 5, 69, 76
11, 21989, Note_on_c, 5, 69, 0
11, 21990, Note_on_c, 5, 68, 76
11, 22004, Note_on_c, 5, 68, 0
11, 22005, Note_on_c, 5, 69, 76
11, 22019, Note_on_c, 5, 69, 0
11, 22020, Note_on_c, 5, 68, 76
11, 22034, Note_on_c, 5, 68, 0
11, 22035, Note_on_c, 5, 69, 76
11, 22049, Note_on_c, 5, 69, 0
11, 22050, Note_on_c, 5, 68, 76
11, 22064, Note_on_c, 5, 68, 0
11, 22065, Note_on_c, 5, 69, 76
11, 22079, Note_on_c, 5, 69, 0
11, 22080, Note_on_c, 5, 68, 76
11, 22094, Note_on_c, 5, 68, 0
11, 22095, Note_on_c, 5, 69, 76
11, 22109, Note_on_c, 5, 69, 0
11, 22110, Note_on_c, 5, 68, 76
11, 22124, Note_on_c, 5, 68, 0
11, 22125, Note_on_c, 5, 69, 76
11, 22139, Note_on_c, 5, 69, 0
11, 22140, Note_on_c, 5, 68, 76
11, 22154, Note_on_c, 5, 68, 0
11, 22155, Note_on_c, 5, 69, 76
11, 22169, Note_on_c, 5, 69, 0
11, 22170, Note_on_c, 5, 66, 76
11, 22184, Note_on_c, 5, 66, 0
11, 22185, Note_on_c, 5, 68, 76
11, 22199, Note_on_c, 5, 68, 0
11, 22200, Note_on_c, 5, 69, 76
11, 22309, Note_on_c, 5, 69, 0
11, 22320, Note_on_c, 5, 69, 76
11, 23039, Note_on_c, 5, 69, 0
11, 23460, Note_on_c, 5, 74, 76
11, 23513, Note_on_c, 5, 74, 0
11, 23520, Note_on_c, 5, 74, 76
11, 23693, Note_on_c, 5, 74, 0
11, 23700, Note_on_c, 5, 69, 76
11, 23753, Note_on_c, 5, 69, 0
11, 23760, Note_on_c, 5, 66, 76
11, 24239, Note_on_c, 5, 66, 0
11, 24420, Note_on_c, 5, 74, 76
11, 24473, Note_on_c, 5, 74, 0
11, 24480, Note_on_c, 5, 74, 76
11, 24653, Note_on_c, 5, 74, 0
11, 24660, Note_on_c, 5, 69, 76
11, 24713, Note_on_c, 5, 69, 0
11, 24720, Note_on_c, 5, 71, 76
11, 25199, Note_on_c, 5, 71, 0
11, 25380, Note_on_c, 5, 74, 76
11, 25433, Note_on_c, 5, 74, 0
11, 25440, Note_on_c, 5, 74, 76
11, 25613, Note_on_c, 5, 74, 0
11, 25620, Note_on_c, 5, 67, 76
11, 25673, Note_on_c, 5, 67, 0
11, 25680, Note_on_c, 5, 69, 76
11, 25919, Note_on_c, 5, 69, 0
11, 26100, Note_on_c, 5, 74, 76
11, 26153, Note_on_c, 5, 74, 0
11, 26160, Note_on_c, 5, 76, 76
11, 26509, Note_on_c, 5, 76, 0
11, 26520, Note_on_c, 5, 76, 76
11, 26629, Note_on_c, 5, 76, 0
11, 26640, Note_on_c, 5, 76, 76
11, 26869, Note_on_c, 5, 76, 0
11, 26880, Note_on_c, 5, 73, 76
11, 27109, Note_on_c, 5, 73, 0
11, 27120, Note_on_c, 5, 74, 76
11, 27349, Note_on_c, 5, 74, 0
11, 27360, Note_on_c, 5, 69, 76
11, 27599, Note_on_c, 5, 69, 0
11, 27780, Note_on_c, 5, 78, 76
11, 27833, Note_on_c, 5, 78, 0
11, 27840, Note_on_c, 5, 78, 76
11, 28013, Note_on_c, 5, 78, 0
11, 28020, Note_on_c, 5, 72, 76
11, 28073, Note_on_c, 5, 72, 0
11, 28080, Note_on_c, 5, 71, 76
11, 28429, Note_on_c, 5, 71, 0
11, 28440, Note_on_c, 5, 71, 76
11, 28549, Note_on_c, 5, 71, 0
11, 28560, Note_on_c, 5, 75, 76
11, 28733, Note_on_c, 5, 75, 0
11, 28740, Note_on_c, 5, 78, 76
11, 28793, Note_on_c, 5, 78, 0
11, 28800, Note_on_c, 5, 71, 76
11, 28973, Note_on_c, 5, 71, 0
11, 28980, Note_on_c, 5, 75, 76
11, 29033, Note_on_c, 5, 75, 0
11, 29040, Note_on_c, 5, 76, 76
11, 29213, Note_on_c, 5, 76, 0
11, 29220, Note_on_c, 5, 76, 76
11, 29273, Note_on_c, 5, 76, 0
11, 29280, Note_on_c, 5, 76, 76
11, 29453, Note_on_c, 5, 76, 0
11, 29460, Note_on_c, 5, 71, 76
11, 29513, Note_on_c, 5, 71, 0
11, 29520, Note_on_c, 5, 67, 76
11, 29759, Note_on_c, 5, 67, 0
11, 29940, Note_on_c, 5, 66, 76
11, 29993, Note_on_c, 5, 66, 0
11, 30000, Note_on_c, 5, 67, 76
11, 30349, Note_on_c, 5, 67, 0
11, 30360, Note_on_c, 5, 67, 76
11, 30469, Note_on_c, 5, 67, 0
11, 30480, Note_on_c, 5, 69, 76
11, 30653, Note_on_c, 5, 69, 0
11, 30660, Note_on_c, 5, 67, 76
11, 30713, Note_on_c, 5, 67, 0
11, 30720, Note_on_c, 5, 69, 76
11, 30893, Note_on_c, 5, 69, 0
11, 30900, Note_on_c, 5, 71, 76
11, 30953, Note_on_c, 5, 71, 0
11, 30960, Note_on_c, 5, 69, 76
11, 31133, Note_on_c, 5, 69, 0
11, 31140, Note_on_c, 5, 73, 76
11, 31193, Note_on_c, 5, 73, 0
11, 31200, Note_on_c, 5, 73, 76
11, 31373, Note_on_c, 5, 73, 0
11, 31380, Note_on_c, 5, 76, 76
11, 31433, Note_on_c, 5, 76, 0
11, 31440, Note_on_c, 5, 76, 76
11, 31613, Note_on_c, 5, 76, 0
11, 31620, Note_on_c, 5, 74, 76
11, 31673, Note_on_c, 5, 74, 0
11, 31680, Note_on_c, 5, 76, 76
11, 31853, Note_on_c, 5, 76, 0
11, 31860, Note_on_c, 5, 73, 76
11, 31913, Note_on_c, 5, 73, 0
11, 31920, Note_on_c, 5, 69, 76
11, 32399, Note_on_c, 5, 69, 0
11, 32580, Note_on_c, 5, 74, 76
11, 32633, Note_on_c, 5, 74, 0
11, 32640, Note_on_c, 5, 74, 76
11, 32813, Note_on_c, 5, 74, 0
11, 32820, Note_on_c, 5, 69, 76
11, 32873, Note_on_c, 5, 69, 0
11, 32880, Note_on_c, 5, 69, 76
11, 33359, Note_on_c, 5, 69, 0
11, 33540, Note_on_c, 5, 73, 76
11, 33593, Note_on_c, 5, 73, 0
11, 33600, Note_on_c, 5, 73, 76
11, 33773, Note_on_c, 5, 73, 0
11, 33780, Note_on_c, 5, 69, 76
11, 33833, Note_on_c, 5, 69, 0
11, 33840, Note_on_c, 5, 71, 76
11, 34189, Note_on_c, 5, 71, 0
11, 34200, Note_on_c, 5, 71, 76
11, 34309, Note_on_c, 5, 71, 0
11, 34320, Note_on_c, 5, 71, 76
11, 34549, Note_on_c, 5, 71, 0
11, 34560, Note_on_c, 5, 68, 76
11, 34789, Note_on_c, 5, 68, 0
11, 34800, Note_on_c, 5, 69, 76
11, 34973, Note_on_c, 5, 69, 0
11, 34980, Note_on_c, 5, 76, 76
11, 35033, Note_on_c, 5, 76, 0
11, 35040, Note_on_c, 5, 76, 76
11, 35213, Note_on_c, 5, 76, 0
11, 35220, Note_on_c, 5, 73, 76
11, 35273, Note_on_c, 5, 73, 0
11, 35280, Note_on_c, 5, 73, 76
11, 35759, Note_on_c, 5, 73, 0
11, 35940, Note_on_c, 5, 74, 76
11, 35993, Note_on_c, 5, 74, 0
11, 36000, Note_on_c, 5, 74, 76
11, 36173, Note_on_c, 5, 74, 0
11, 36180, Note_on_c, 5, 71, 76
11, 36233, Note_on_c, 5, 71, 0
11, 36240, Note_on_c, 5, 73, 76
11, 36469, Note_on_c, 5, 73, 0
11, 36480, Note_on_c, 5, 77, 76
11, 36709, Note_on_c, 5, 77, 0
11, 36720, Note_on_c, 5, 78, 76
11, 37199, Note_on_c, 5, 78, 0
11, 37380, Note_on_c, 5, 73, 76
11, 37433, Note_on_c, 5, 73, 0
11, 37440, Note_on_c, 5, 73, 76
11, 37613, Note_on_c, 5, 73, 0
11, 37620, Note_on_c, 5, 69, 76
11, 37673, Note_on_c, 5, 69, 0
11, 37680, Note_on_c, 5, 71, 76
11, 38029, Note_on_c, 5, 71, 0
11, 38040, Note_on_c, 5, 69, 76
11, 38093, Note_on_c, 5, 69, 0
11, 38100, Note_on_c, 5, 68, 76
11, 38153, Note_on_c, 5, 68, 0
11, 38160, Note_on_c, 5, 69, 76
11, 38333, Note_on_c, 5, 69, 0
11, 38340, Note_on_c, 5, 69, 76
11, 38393, Note_on_c, 5, 69, 0
11, 38400, Note_on_c, 5, 71, 76
11, 38573, Note_on_c, 5, 71, 0
11, 38580, Note_on_c, 5, 73, 76
11, 38633, Note_on_c, 5, 73, 0
11, 38640, Note_on_c, 5, 68, 76
11, 38813, Note_on_c, 5, 68, 0
11, 38820, Note_on_c, 5, 74, 76
11, 38873, Note_on_c, 5, 74, 0
11, 38880, Note_on_c, 5, 74, 76
11, 39053, Note_on_c, 5, 74, 0
11, 39060, Note_on_c, 5, 71, 76
11, 39113, Note_on_c, 5, 71, 0
11, 39120, Note_on_c, 5, 68, 76
11, 39599, Note_on_c, 5, 68, 0
11, 39780, Note_on_c, 5, 76, 76
11, 39833, Note_on_c, 5, 76, 0
11, 39840, Note_on_c, 5, 76, 76
11, 40013, Note_on_c, 5, 76, 0
11, 40020, Note_on_c, 5, 73, 76
11, 40073, Note_on_c, 5, 73, 0
11, 40080, Note_on_c, 5, 69, 76
11, 40559, Note_on_c, 5, 69, 0
11, 40740, Note_on_c, 5, 77, 76
11, 40793, Note_on_c, 5, 77, 0
11, 40800, Note_on_c, 5, 77, 76
11, 40973, Note_on_c, 5, 77, 0
11, 40980, Note_on_c, 5, 74, 76
11, 41033, Note_on_c, 5, 74, 0
11, 41040, Note_on_c, 5, 71, 76
11, 41519, Note_on_c, 5, 71, 0
11, 41700, Note_on_c, 5, 74, 76
11, 41753, Note_on_c, 5, 74, 0
11, 41760, Note_on_c, 5, 72, 76
11, 41999, Note_on_c, 5, 72, 0
11, 42180, Note_on_c, 5, 72, 76
11, 42233, Note_on_c, 5, 72, 0
11, 42240, Note_on_c, 5, 71, 76
11, 42479, Note_on_c, 5, 71, 0
11, 42660, Note_on_c, 5, 71, 76
11, 42713, Note_on_c, 5, 71, 0
11, 42720, Note_on_c, 5, 69, 76
11, 42893, Note_on_c, 5, 69, 0
11, 42900, Note_on_c, 5, 72, 76
11, 42953, Note_on_c, 5, 72, 0
11, 42960, Note_on_c, 5, 76, 76
11, 43613, Note_on_c, 5, 76, 0
11, 43620, Note_on_c, 5, 73, 76
11, 43673, Note_on_c, 5, 73, 0
11, 43680, Note_on_c, 5, 74, 76
11, 43853, Note_on_c, 5, 74, 0
11, 43860, Note_on_c, 5, 71, 76
11, 43913, Note_on_c, 5, 71, 0
11, 43920, Note_on_c, 5, 73, 76
11, 44093, Note_on_c, 5, 73, 0
11, 44100, Note_on_c, 5, 69, 76
11, 44153, Note_on_c, 5, 69, 0
11, 44160, Note_on_c, 5, 71, 76
11, 44333, Note_on_c, 5, 71, 0
11, 44340, Note_on_c, 5, 66, 76
11, 44393, Note_on_c, 5, 66, 0
11, 44400, Note_on_c, 5, 71, 76
11, 44573, Note_on_c, 5, 71, 0
11, 44580, Note_on_c, 5, 68, 76
11, 44633, Note_on_c, 5, 68, 0
11, 44640, Note_on_c, 5, 69, 76
11, 44813, Note_on_c, 5, 69, 0
11, 44820, Note_on_c, 5, 71, 76
11, 44873, Note_on_c, 5, 71, 0
11, 44880, Note_on_c, 5, 68, 76
11, 44894, Note_on_c, 5, 68, 0
11, 44895, Note_on_c, 5, 69, 76
11, 44909, Note_on_c, 5, 69, 0
11, 44910, Note_on_c, 5, 68, 76
11, 44924, Note_on_c, 5, 68, 0
11, 44925, Note_on_c, 5, 69, 76
11, 44939, Note_on_c, 5, 69, 0
11, 44940, Note_on_c, 5, 68, 76
11, 44954, Note_on_c, 5, 68, 0
11, 44955, Note_on_c, 5, 69, 76
11, 44969, Note_on_c, 5, 69, 0
11, 44970, Note_on_c, 5, 68, 76
11, 44984, Note_on_c, 5, 68, 0
11, 44985, Note_on_c, 5, 69, 76
11, 44999, Note_on_c, 5, 69, 0
11, 45000, Note_on_c, 5, 68, 76
11, 45014, Note_on_c, 5, 68, 0
11, 45015, Note_on_c, 5, 69, 76
11, 45029, Note_on_c, 5, 69, 0
11, 45030, Note_on_c, 5, 68, 76
11, 45044, Note_on_c, 5, 68, 0
11, 45045, Note_on_c, 5, 69, 76
11, 45059, Note_on_c, 5, 69, 0
11, 45060, Note_on_c, 5, 68, 76
11, 45074, Note_on_c, 5, 68, 0
11, 45075, Note_on_c, 5, 69, 76
11, 45089, Note_on_c, 5, 69, 0
11, 45090, Note_on_c, 5, 68, 76
11, 45104, Note_on_c, 5, 68, 0
11, 45105, Note_on_c, 5, 69, 76
11, 45119, Note_on_c, 5, 69, 0
11, 45120, Note_on_c, 5, 68, 76
11, 45134, Note_on_c, 5, 68, 0
11, 45135, Note_on_c, 5, 69, 76
11, 45149, Note_on_c, 5, 69, 0
11, 45150, Note_on_c, 5, 68, 76
11, 45164, Note_on_c, 5, 68, 0
11, 45165, Note_on_c, 5, 69, 76
11, 45179, Note_on_c, 5, 69, 0
11, 45180, Note_on_c, 5, 68, 76
11, 45194, Note_on_c, 5, 68, 0
11, 45195, Note_on_c, 5, 69, 76
11, 45209, Note_on_c, 5, 69, 0
11, 45210, Note_on_c, 5, 66, 76
11, 45224, Note_on_c, 5, 66, 0
11, 45225, Note_on_c, 5, 68, 76
11, 45239, Note_on_c, 5, 68, 0
11, 45240, Note_on_c, 5, 69, 76
11, 45349, Note_on_c, 5, 69, 0
11, 45360, Note_on_c, 5, 69, 76
11, 45584, Note_on_c, 5, 69, 0
11, 45600, Note_on_c, 5, 76, 76
11, 45704, Note_on_c, 5, 76, 0
11, 45720, Note_on_c, 5, 76, 76
11, 45839, Note_on_c, 5, 76, 0
11, 45840, Note_on_c, 5, 78, 76
11, 45944, Note_on_c, 5, 78, 0
11, 45960, Note_on_c, 5, 74, 76
11, 46064, Note_on_c, 5, 74, 0
11, 46080, Note_on_c, 5, 74, 76
11, 46199, Note_on_c, 5, 74, 0
11, 46200, Note_on_c, 5, 76, 76
11, 46319, Note_on_c, 5, 76, 0
11, 46320, Note_on_c, 5, 73, 76
11, 46424, Note_on_c, 5, 73, 0
11, 46440, Note_on_c, 5, 73, 76
11, 46559, Note_on_c, 5, 73, 0
11, 46560, Note_on_c, 5, 74, 76
11, 46679, Note_on_c, 5, 74, 0
11, 46680, Note_on_c, 5, 76, 76
11, 46779, Note_on_c, 5, 76, 0
11, 46800, Note_on_c, 5, 78, 76
11, 46919, Note_on_c, 5, 78, 0
11, 46920, Note_on_c, 5, 79, 76
11, 47019, Note_on_c, 5, 79, 0
11, 47040, Note_on_c, 5, 76, 76
11, 47139, Note_on_c, 5, 76, 0
11, 47160, Note_on_c, 5, 76, 76
11, 47279, Note_on_c, 5, 76, 0
11, 47280, Note_on_c, 5, 78, 76
11, 47379, Note_on_c, 5, 78, 0
11, 47400, Note_on_c, 5, 74, 76
11, 47499, Note_on_c, 5, 74, 0
11, 47520, Note_on_c, 5, 74, 76
11, 47774, Note_on_c, 5, 74, 0
11, 47790, Note_on_c, 5, 74, 76
11, 47864, Note_on_c, 5, 74, 0
11, 47880, Note_on_c, 5, 74, 76
11, 48134, Note_on_c, 5, 74, 0
11, 48150, Note_on_c, 5, 74, 76
11, 48224, Note_on_c, 5, 74, 0
11, 48240, Note_on_c, 5, 74, 76
11, 48494, Note_on_c, 5, 74, 0
11, 48510, Note_on_c, 5, 74, 76
11, 48584, Note_on_c, 5, 74, 0
11, 48600, Note_on_c, 5, 74, 76
11, 48719, Note_on_c, 5, 74, 0
11, 48720, Note_on_c, 5, 71, 76
11, 48839, Note_on_c, 5, 71, 0
11, 48840, Note_on_c, 5, 73, 76
11, 48939, Note_on_c, 5, 73, 0
11, 48960, Note_on_c, 5, 74, 76
11, 49079, Note_on_c, 5, 74, 0
11, 49080, Note_on_c, 5, 83, 76
11, 49179, Note_on_c, 5, 83, 0
11, 49200, Note_on_c, 5, 73, 76
11, 49299, Note_on_c, 5, 73, 0
11, 49320, Note_on_c, 5, 74, 76
11, 49439, Note_on_c, 5, 74, 0
11, 49440, Note_on_c, 5, 73, 76
11, 49559, Note_on_c, 5, 73, 0
11, 49560, Note_on_c, 5, 71, 76
11, 49659, Note_on_c, 5, 71, 0
11, 49680, Note_on_c, 5, 73, 76
11, 49799, Note_on_c, 5, 73, 0
11, 49800, Note_on_c, 5, 76, 76
11, 49919, Note_on_c, 5, 76, 0
11, 49920, Note_on_c, 5, 74, 76
11, 50019, Note_on_c, 5, 74, 0
11, 50040, Note_on_c, 5, 76, 76
11, 50294, Note_on_c, 5, 76, 0
11, 50310, Note_on_c, 5, 74, 76
11, 50384, Note_on_c, 5, 74, 0
11, 50400, Note_on_c, 5, 76, 76
11, 50654, Note_on_c, 5, 76, 0
11, 50670, Note_on_c, 5, 73, 76
11, 50744, Note_on_c, 5, 73, 0
11, 50760, Note_on_c, 5, 74, 76
11, 50879, Note_on_c, 5, 74, 0
11, 50880, Note_on_c, 5, 73, 76
11, 50999, Note_on_c, 5, 73, 0
11, 51000, Note_on_c, 5, 74, 76
11, 51099, Note_on_c, 5, 74, 0
11, 51120, Note_on_c, 5, 74, 76
11, 51374, Note_on_c, 5, 74, 0
11, 51390, Note_on_c, 5, 66, 76
11, 51464, Note_on_c, 5, 66, 0
11, 51480, Note_on_c, 5, 69, 76
11, 51734, Note_on_c, 5, 69, 0
11, 51750, Note_on_c, 5, 74, 76
11, 51824, Note_on_c, 5, 74, 0
11, 51840, Note_on_c, 5, 74, 76
11, 51959, Note_on_c, 5, 74, 0
11, 51960, Note_on_c, 5, 76, 76
11, 52079, Note_on_c, 5, 76, 0
11, 52080, Note_on_c, 5, 74, 76
11, 52179, Note_on_c, 5, 74, 0
11, 52200, Note_on_c, 5, 73, 76
11, 52319, Note_on_c, 5, 73, 0
11, 52320, Note_on_c, 5, 74, 76
11, 52419, Note_on_c, 5, 74, 0
11, 52440, Note_on_c, 5, 71, 76
11, 52539, Note_on_c, 5, 71, 0
11, 52560, Note_on_c, 5, 71, 76
11, 52679, Note_on_c, 5, 71, 0
11, 52680, Note_on_c, 5, 73, 76
11, 52779, Note_on_c, 5, 73, 0
11, 52800, Note_on_c, 5, 69, 76
11, 52899, Note_on_c, 5, 69, 0
11, 52920, Note_on_c, 5, 69, 76
11, 53174, Note_on_c, 5, 69, 0
11, 53190, Note_on_c, 5, 81, 76
11, 53264, Note_on_c, 5, 81, 0
11, 53280, Note_on_c, 5, 76, 76
11, 53534, Note_on_c, 5, 76, 0
11, 53550, Note_on_c, 5, 73, 76
11, 53624, Note_on_c, 5, 73, 0
11, 53640, Note_on_c, 5, 69, 76
11, 53894, Note_on_c, 5, 69, 0
11, 53910, Note_on_c, 5, 69, 76
11, 53984, Note_on_c, 5, 69, 0
11, 54000, Note_on_c, 5, 69, 76
11, 54119, Note_on_c, 5, 69, 0
11, 54120, Note_on_c, 5, 71, 76
11, 54239, Note_on_c, 5, 71, 0
11, 54240, Note_on_c, 5, 73, 76
11, 54339, Note_on_c, 5, 73, 0
11, 54360, Note_on_c, 5, 74, 76
11, 54614, Note_on_c, 5, 74, 0
11, 54630, Note_on_c, 5, 76, 76
11, 54704, Note_on_c, 5, 76, 0
11, 54720, Note_on_c, 5, 73, 76
11, 54749, Note_on_c, 5, 73, 0
11, 54750, Note_on_c, 5, 74, 76
11, 54779, Note_on_c, 5, 74, 0
11, 54780, Note_on_c, 5, 73, 76
11, 54809, Note_on_c, 5, 73, 0
11, 54810, Note_on_c, 5, 74, 76
11, 54839, Note_on_c, 5, 74, 0
11, 54840, Note_on_c, 5, 73, 76
11, 54869, Note_on_c, 5, 73, 0
11, 54870, Note_on_c, 5, 74, 76
11, 54899, Note_on_c, 5, 74, 0
11, 54900, Note_on_c, 5, 71, 76
11, 54929, Note_on_c, 5, 71, 0
11, 54930, Note_on_c, 5, 73, 76
11, 54959, Note_on_c, 5, 73, 0
11, 54990, Note_on_c, 5, 69, 76
11, 55064, Note_on_c, 5, 69, 0
11, 55080, Note_on_c, 5, 69, 76
11, 55199, Note_on_c, 5, 69, 0
11, 55200, Note_on_c, 5, 71, 76
11, 55319, Note_on_c, 5, 71, 0
11, 55320, Note_on_c, 5, 69, 76
11, 55419, Note_on_c, 5, 69, 0
11, 55440, Note_on_c, 5, 68, 76
11, 55559, Note_on_c, 5, 68, 0
11, 55560, Note_on_c, 5, 69, 76
11, 55659, Note_on_c, 5, 69, 0
11, 55680, Note_on_c, 5, 66, 76
11, 55779, Note_on_c, 5, 66, 0
11, 55800, Note_on_c, 5, 66, 76
11, 55919, Note_on_c, 5, 66, 0
11, 55920, Note_on_c, 5, 68, 76
11, 56019, Note_on_c, 5, 68, 0
11, 56040, Note_on_c, 5, 64, 76
11, 56139, Note_on_c, 5, 64, 0
11, 56160, Note_on_c, 5, 64, 76
11, 56519, Note_on_c, 5, 64, 0
11, 56760, Note_on_c, 5, 76, 76
11, 56859, Note_on_c, 5, 76, 0
11, 56880, Note_on_c, 5, 71, 76
11, 57134, Note_on_c, 5, 71, 0
11, 57150, Note_on_c, 5, 71, 76
11, 57224, Note_on_c, 5, 71, 0
11, 57240, Note_on_c, 5, 69, 76
11, 57599, Note_on_c, 5, 69, 0
11, 57840, Note_on_c, 5, 74, 76
11, 57939, Note_on_c, 5, 74, 0
11, 57960, Note_on_c, 5, 69, 76
11, 58214, Note_on_c, 5, 69, 0
11, 58230, Note_on_c, 5, 69, 76
11, 58304, Note_on_c, 5, 69, 0
11, 58320, Note_on_c, 5, 67, 76
11, 58439, Note_on_c, 5, 67, 0
11, 58680, Note_on_c, 5, 73, 76
11, 58799, Note_on_c, 5, 73, 0
11, 59040, Note_on_c, 5, 75, 76
11, 59159, Note_on_c, 5, 75, 0
11, 59400, Note_on_c, 5, 76, 76
11, 59654, Note_on_c, 5, 76, 0
11, 59670, Note_on_c, 5, 76, 76
11, 59744, Note_on_c, 5, 76, 0
11, 59760, Note_on_c, 5, 76, 76
11, 59879, Note_on_c, 5, 76, 0
11, 59880, Note_on_c, 5, 78, 76
11, 59979, Note_on_c, 5, 78, 0
11, 60000, Note_on_c, 5, 74, 76
11, 60099, Note_on_c, 5, 74, 0
11, 60120, Note_on_c, 5, 74, 76
11, 60239, Note_on_c, 5, 74, 0
11, 60240, Note_on_c, 5, 76, 76
11, 60339, Note_on_c, 5, 76, 0
11, 60360, Note_on_c, 5, 73, 76
11, 60459, Note_on_c, 5, 73, 0
11, 60480, Note_on_c, 5, 73, 76
11, 60599, Note_on_c, 5, 73, 0
11, 60600, Note_on_c, 5, 69, 76
11, 60719, Note_on_c, 5, 69, 0
11, 60720, Note_on_c, 5, 71, 76
11, 60819, Note_on_c, 5, 71, 0
11, 60840, Note_on_c, 5, 73, 76
11, 60959, Note_on_c, 5, 73, 0
11, 60960, Note_on_c, 5, 74, 76
11, 61059, Note_on_c, 5, 74, 0
11, 61080, Note_on_c, 5, 76, 76
11, 61179, Note_on_c, 5, 76, 0
11, 61200, Note_on_c, 5, 69, 76
11, 61454, Note_on_c, 5, 69, 0
11, 61470, Note_on_c, 5, 73, 76
11, 61544, Note_on_c, 5, 73, 0
11, 61560, Note_on_c, 5, 62, 76
11, 61679, Note_on_c, 5, 62, 0
11, 61680, Note_on_c, 5, 66, 76
11, 61799, Note_on_c, 5, 66, 0
11, 61800, Note_on_c, 5, 69, 76
11, 61899, Note_on_c, 5, 69, 0
11, 61920, Note_on_c, 5, 74, 76
11, 62039, Note_on_c, 5, 74, 0
11, 62040, Note_on_c, 5, 76, 76
11, 62139, Note_on_c, 5, 76, 0
11, 62160, Note_on_c, 5, 72, 76
11, 62259, Note_on_c, 5, 72, 0
11, 62280, Note_on_c, 5, 72, 76
11, 62399, Note_on_c, 5, 72, 0
11, 62400, Note_on_c, 5, 74, 76
11, 62499, Note_on_c, 5, 74, 0
11, 62520, Note_on_c, 5, 71, 76
11, 62619, Note_on_c, 5, 71, 0
11, 62640, Note_on_c, 5, 71, 76
11, 62759, Note_on_c, 5, 71, 0
11, 62760, Note_on_c, 5, 67, 76
11, 62879, Note_on_c, 5, 67, 0
11, 62880, Note_on_c, 5, 71, 76
11, 62979, Note_on_c, 5, 71, 0
11, 63000, Note_on_c, 5, 76, 76
11, 63119, Note_on_c, 5, 76, 0
11, 63120, Note_on_c, 5, 78, 76
11, 63219, Note_on_c, 5, 78, 0
11, 63240, Note_on_c, 5, 74, 76
11, 63339, Note_on_c, 5, 74, 0
11, 63360, Note_on_c, 5, 74, 76
11, 63479, Note_on_c, 5, 74, 0
11, 63480, Note_on_c, 5, 76, 76
11, 63579, Note_on_c, 5, 76, 0
11, 63600, Note_on_c, 5, 73, 76
11, 63699, Note_on_c, 5, 73, 0
11, 63720, Note_on_c, 5, 73, 76
11, 63839, Note_on_c, 5, 73, 0
11, 63840, Note_on_c, 5, 74, 76
11, 63959, Note_on_c, 5, 74, 0
11, 63960, Note_on_c, 5, 76, 76
11, 64059, Note_on_c, 5, 76, 0
11, 64080, Note_on_c, 5, 78, 76
11, 64199, Note_on_c, 5, 78, 0
11, 64200, Note_on_c, 5, 79, 76
11, 64299, Note_on_c, 5, 79, 0
11, 64320, Note_on_c, 5, 76, 76
11, 64419, Note_on_c, 5, 76, 0
11, 64440, Note_on_c, 5, 76, 76
11, 64559, Note_on_c, 5, 76, 0
11, 64560, Note_on_c, 5, 78, 76
11, 64659, Note_on_c, 5, 78, 0
11, 64680, Note_on_c, 5, 74, 76
11, 64779, Note_on_c, 5, 74, 0
11, 64800, Note_on_c, 5, 74, 76
11, 64919, Note_on_c, 5, 74, 0
11, 65430, Note_on_c, 5, 73, 76
11, 65504, Note_on_c, 5, 73, 0
11, 65520, Note_on_c, 5, 73, 76
11, 65774, Note_on_c, 5, 73, 0
11, 65790, Note_on_c, 5, 75, 76
11, 65864, Note_on_c, 5, 75, 0
11, 65880, Note_on_c, 5, 76, 76
11, 66134, Note_on_c, 5, 76, 0
11, 66150, Note_on_c, 5, 76, 76
11, 66224, Note_on_c, 5, 76, 0
11, 66240, Note_on_c, 5, 76, 76
11, 66494, Note_on_c, 5, 76, 0
11, 66510, Note_on_c, 5, 76, 76
11, 66584, Note_on_c, 5, 76, 0
11, 66600, Note_on_c, 5, 76, 76
11, 66854, Note_on_c, 5, 76, 0
11, 66870, Note_on_c, 5, 76, 76
11, 66944, Note_on_c, 5, 76, 0
11, 66960, Note_on_c, 5, 76, 76
11, 67079, Note_on_c, 5, 76, 0
11, 67080, Note_on_c, 5, 73, 76
11, 67199, Note_on_c, 5, 73, 0
11, 67200, Note_on_c, 5, 74, 76
11, 67299, Note_on_c, 5, 74, 0
11, 67320, Note_on_c, 5, 76, 76
11, 67439, Note_on_c, 5, 76, 0
11, 67440, Note_on_c, 5, 73, 76
11, 67539, Note_on_c, 5, 73, 0
11, 67560, Note_on_c, 5, 74, 76
11, 67659, Note_on_c, 5, 74, 0
11, 67680, Note_on_c, 5, 76, 76
11, 67799, Note_on_c, 5, 76, 0
11, 67800, Note_on_c, 5, 74, 76
11, 67919, Note_on_c, 5, 74, 0
11, 67920, Note_on_c, 5, 73, 76
11, 68019, Note_on_c, 5, 73, 0
11, 68040, Note_on_c, 5, 74, 76
11, 68294, Note_on_c, 5, 74, 0
11, 68310, Note_on_c, 5, 73, 76
11, 68384, Note_on_c, 5, 73, 0
11, 68400, Note_on_c, 5, 74, 76
11, 68654, Note_on_c, 5, 74, 0
11, 68670, Note_on_c, 5, 71, 76
11, 68744, Note_on_c, 5, 71, 0
11, 68760, Note_on_c, 5, 69, 76
11, 69014, Note_on_c, 5, 69, 0
11, 69030, Note_on_c, 5, 69, 76
11, 69104, Note_on_c, 5, 69, 0
11, 69120, Note_on_c, 5, 69, 76
11, 69374, Note_on_c, 5, 69, 0
11, 69390, Note_on_c, 5, 69, 76
11, 69464, Note_on_c, 5, 69, 0
11, 69480, Note_on_c, 5, 69, 76
11, 69599, Note_on_c, 5, 69, 0
11, 69600, Note_on_c, 5, 71, 76
11, 69699, Note_on_c, 5, 71, 0
11, 69720, Note_on_c, 5, 67, 76
11, 69819, Note_on_c, 5, 67, 0
11, 69840, Note_on_c, 5, 67, 76
11, 69959, Note_on_c, 5, 67, 0
11, 69960, Note_on_c, 5, 69, 76
11, 70059, Note_on_c, 5, 69, 0
11, 70080, Note_on_c, 5, 66, 76
11, 70179, Note_on_c, 5, 66, 0
11, 70200, Note_on_c, 5, 66, 76
11, 70319, Note_on_c, 5, 66, 0
11, 70320, Note_on_c, 5, 67, 76
11, 70439, Note_on_c, 5, 67, 0
11, 70440, Note_on_c, 5, 69, 76
11, 70539, Note_on_c, 5, 69, 0
11, 70560, Note_on_c, 5, 69, 76
11, 70679, Note_on_c, 5, 69, 0
11, 70680, Note_on_c, 5, 71, 76
11, 70779, Note_on_c, 5, 71, 0
11, 70800, Note_on_c, 5, 67, 76
11, 70899, Note_on_c, 5, 67, 0
11, 70920, Note_on_c, 5, 67, 76
11, 71039, Note_on_c, 5, 67, 0
11, 71040, Note_on_c, 5, 69, 76
11, 71139, Note_on_c, 5, 69, 0
11, 71160, Note_on_c, 5, 66, 76
11, 71259, Note_on_c, 5, 66, 0
11, 71280, Note_on_c, 5, 66, 76
11, 71399, Note_on_c, 5, 66, 0
11, 71640, Note_on_c, 5, 67, 76
11, 71759, Note_on_c, 5, 67, 0
11, 72000, Note_on_c, 5, 69, 76
11, 72119, Note_on_c, 5, 69, 0
11, 72360, Note_on_c, 5, 62, 76
11, 72479, Note_on_c, 5, 62, 0
11, 72720, Note_on_c, 5, 69, 76
11, 72839, Note_on_c, 5, 69, 0
11, 73080, Note_on_c, 5, 71, 76
11, 73199, Note_on_c, 5, 71, 0
11, 73440, Note_on_c, 5, 64, 76
11, 73559, Note_on_c, 5, 64, 0
11, 73800, Note_on_c, 5, 71, 76
11, 73919, Note_on_c, 5, 71, 0
11, 74160, Note_on_c, 5, 73, 76
11, 74279, Note_on_c, 5, 73, 0
11, 74520, Note_on_c, 5, 66, 76
11, 74774, Note_on_c, 5, 66, 0
11, 74790, Note_on_c, 5, 74, 76
11, 74864, Note_on_c, 5, 74, 0
11, 74880, Note_on_c, 5, 74, 76
11, 74999, Note_on_c, 5, 74, 0
11, 75000, Note_on_c, 5, 76, 76
11, 75099, Note_on_c, 5, 76, 0
11, 75120, Note_on_c, 5, 73, 76
11, 75219, Note_on_c, 5, 73, 0
11, 75240, Note_on_c, 5, 73, 76
11, 75359, Note_on_c, 5, 73, 0
11, 75360, Note_on_c, 5, 74, 76
11, 75459, Note_on_c, 5, 74, 0
11, 75480, Note_on_c, 5, 71, 76
11, 75579, Note_on_c, 5, 71, 0
11, 75600, Note_on_c, 5, 71, 76
11, 75719, Note_on_c, 5, 71, 0
11, 75720, Note_on_c, 5, 73, 76
11, 75839, Note_on_c, 5, 73, 0
11, 75840, Note_on_c, 5, 74, 76
11, 75939, Note_on_c, 5, 74, 0
11, 75960, Note_on_c, 5, 76, 76
11, 76079, Note_on_c, 5, 76, 0
11, 76080, Note_on_c, 5, 78, 76
11, 76179, Note_on_c, 5, 78, 0
11, 76200, Note_on_c, 5, 74, 76
11, 76299, Note_on_c, 5, 74, 0
11, 76320, Note_on_c, 5, 74, 76
11, 76439, Note_on_c, 5, 74, 0
11, 76440, Note_on_c, 5, 76, 76
11, 76539, Note_on_c, 5, 76, 0
11, 76560, Note_on_c, 5, 73, 76
11, 76659, Note_on_c, 5, 73, 0
11, 76680, Note_on_c, 5, 73, 76
11, 77019, Note_on_c, 5, 73, 0
11, 77040, Note_on_c, 5, 78, 76
11, 77859, Note_on_c, 5, 78, 0
11, 77880, Note_on_c, 5, 71, 76
11, 77999, Note_on_c, 5, 71, 0
11, 78000, Note_on_c, 5, 73, 76
11, 78119, Note_on_c, 5, 73, 0
11, 78120, Note_on_c, 5, 75, 76
11, 78239, Note_on_c, 5, 75, 0
11, 78240, Note_on_c, 5, 83, 76
11, 78339, Note_on_c, 5, 83, 0
11, 78360, Note_on_c, 5, 73, 76
11, 78459, Note_on_c, 5, 73, 0
11, 78480, Note_on_c, 5, 75, 76
11, 78599, Note_on_c, 5, 75, 0
11, 78600, Note_on_c, 5, 73, 76
11, 78719, Note_on_c, 5, 73, 0
11, 78720, Note_on_c, 5, 71, 76
11, 78819, Note_on_c, 5, 71, 0
11, 78840, Note_on_c, 5, 76, 76
11, 80019, Note_on_c, 5, 76, 0
11, 80040, Note_on_c, 5, 69, 76
11, 80159, Note_on_c, 5, 69, 0
11, 80160, Note_on_c, 5, 71, 76
11, 80279, Note_on_c, 5, 71, 0
11, 80280, Note_on_c, 5, 73, 76
11, 80399, Note_on_c, 5, 73, 0
11, 80400, Note_on_c, 5, 81, 76
11, 80499, Note_on_c, 5, 81, 0
11, 80520, Note_on_c, 5, 71, 76
11, 80619, Note_on_c, 5, 71, 0
11, 80640, Note_on_c, 5, 73, 76
11, 80759, Note_on_c, 5, 73, 0
11, 80760, Note_on_c, 5, 71, 76
11, 80879, Note_on_c, 5, 71, 0
11, 80880, Note_on_c, 5, 69, 76
11, 80979, Note_on_c, 5, 69, 0
11, 81000, Note_on_c, 5, 74, 76
11, 81339, Note_on_c, 5, 74, 0
11, 81360, Note_on_c, 5, 81, 76
11, 83139, Note_on_c, 5, 81, 0
11, 83160, Note_on_c, 5, 80, 76
11, 83189, Note_on_c, 5, 80, 0
11, 83190, Note_on_c, 5, 81, 76
11, 83219, Note_on_c, 5, 81, 0
11, 83220, Note_on_c, 5, 80, 76
11, 83249, Note_on_c, 5, 80, 0
11, 83250, Note_on_c, 5, 81, 76
11, 83279, Note_on_c, 5, 81, 0
11, 83280, Note_on_c, 5, 80, 76
11, 83309, Note_on_c, 5, 80, 0
11, 83310, Note_on_c, 5, 81, 76
11, 83339, Note_on_c, 5, 81, 0
11, 83340, Note_on_c, 5, 80, 76
11, 83369, Note_on_c, 5, 80, 0
11, 83370, Note_on_c, 5, 81, 76
11, 83399, Note_on_c, 5, 81, 0
11, 83400, Note_on_c, 5, 80, 76
11, 83429, Note_on_c, 5, 80, 0
11, 83430, Note_on_c, 5, 81, 76
11, 83459, Note_on_c, 5, 81, 0
11, 83460, Note_on_c, 5, 80, 76
11, 83489, Note_on_c, 5, 80, 0
11, 83490, Note_on_c, 5, 81, 76
11, 83519, Note_on_c, 5, 81, 0
11, 83520, Note_on_c, 5, 80, 76
11, 83549, Note_on_c, 5, 80, 0
11, 83550, Note_on_c, 5, 81, 76
11, 83579, Note_on_c, 5, 81, 0
11, 83580, Note_on_c, 5, 80, 76
11, 83609, Note_on_c, 5, 80, 0
11, 83610, Note_on_c, 5, 81, 76
11, 83639, Note_on_c, 5, 81, 0
11, 83640, Note_on_c, 5, 80, 76
11, 83669, Note_on_c, 5, 80, 0
11, 83670, Note_on_c, 5, 81, 76
11, 83699, Note_on_c, 5, 81, 0
11, 83700, Note_on_c, 5, 80, 76
11, 83729, Note_on_c, 5, 80, 0
11, 83730, Note_on_c, 5, 81, 76
11, 83759, Note_on_c, 5, 81, 0
11, 83760, Note_on_c, 5, 80, 76
11, 83789, Note_on_c, 5, 80, 0
11, 83790, Note_on_c, 5, 81, 76
11, 83819, Note_on_c, 5, 81, 0
11, 83820, Note_on_c, 5, 80, 76
11, 83849, Note_on_c, 5, 80, 0
11, 83850, Note_on_c, 5, 81, 76
11, 83879, Note_on_c, 5, 81, 0
11, 83880, Note_on_c, 5, 80, 76
11, 83909, Note_on_c, 5, 80, 0
11, 83910, Note_on_c, 5, 81, 76
11, 83939, Note_on_c, 5, 81, 0
11, 83940, Note_on_c, 5, 80, 76
11, 83969, Note_on_c, 5, 80, 0
11, 83970, Note_on_c, 5, 81, 76
11, 83999, Note_on_c, 5, 81, 0
11, 84000, Note_on_c, 5, 80, 76
11, 84029, Note_on_c, 5, 80, 0
11, 84030, Note_on_c, 5, 81, 76
11, 84059, Note_on_c, 5, 81, 0
11, 84060, Note_on_c, 5, 80, 76
11, 84089, Note_on_c, 5, 80, 0
11, 84090, Note_on_c, 5, 81, 76
11, 84119, Note_on_c, 5, 81, 0
11, 84120, Note_on_c, 5, 80, 76
11, 84149, Note_on_c, 5, 80, 0
11, 84150, Note_on_c, 5, 81, 76
11, 84179, Note_on_c, 5, 81, 0
11, 84180, Note_on_c, 5, 78, 76
11, 84209, Note_on_c, 5, 78, 0
11, 84210, Note_on_c, 5, 80, 76
11, 84239, Note_on_c, 5, 80, 0
11, 84240, Note_on_c, 5, 81, 76
11, 84359, Note_on_c, 5, 81, 0
11, 84360, Note_on_c, 5, 78, 76
11, 84479, Note_on_c, 5, 78, 0
11, 84480, Note_on_c, 5, 80, 76
11, 84599, Note_on_c, 5, 80, 0
11, 84600, Note_on_c, 5, 81, 76
11, 84719, Note_on_c, 5, 81, 0
11, 84720, Note_on_c, 5, 83, 76
11, 84819, Note_on_c, 5, 83, 0
11, 84840, Note_on_c, 5, 80, 76
11, 84939, Note_on_c, 5, 80, 0
11, 84960, Note_on_c, 5, 81, 76
11, 85079, Note_on_c, 5, 81, 0
11, 85080, Note_on_c, 5, 80, 76
11, 85199, Note_on_c, 5, 80, 0
11, 85200, Note_on_c, 5, 78, 76
11, 85299, Note_on_c, 5, 78, 0
11, 85320, Note_on_c, 5, 83, 76
11, 85659, Note_on_c, 5, 83, 0
11, 85680, Note_on_c, 5, 76, 76
11, 86499, Note_on_c, 5, 76, 0
11, 86520, Note_on_c, 5, 69, 76
11, 86639, Note_on_c, 5, 69, 0
11, 86640, Note_on_c, 5, 72, 76
11, 86739, Note_on_c, 5, 72, 0
11, 86760, Note_on_c, 5, 72, 76
11, 86879, Note_on_c, 5, 72, 0
11, 86880, Note_on_c, 5, 74, 76
11, 86979, Note_on_c, 5, 74, 0
11, 87000, Note_on_c, 5, 71, 76
11, 87099, Note_on_c, 5, 71, 0
11, 87120, Note_on_c, 5, 71, 76
11, 87239, Note_on_c, 5, 71, 0
11, 87240, Note_on_c, 5, 72, 76
11, 87339, Note_on_c, 5, 72, 0
11, 87360, Note_on_c, 5, 69, 76
11, 87459, Note_on_c, 5, 69, 0
11, 87480, Note_on_c, 5, 69, 76
11, 87599, Note_on_c, 5, 69, 0
11, 87600, Note_on_c, 5, 71, 76
11, 87719, Note_on_c, 5, 71, 0
11, 87720, Note_on_c, 5, 72, 76
11, 87839, Note_on_c, 5, 72, 0
11, 87840, Note_on_c, 5, 74, 76
11, 87959, Note_on_c, 5, 74, 0
11, 87960, Note_on_c, 5, 76, 76
11, 88059, Note_on_c, 5, 76, 0
11, 88080, Note_on_c, 5, 72, 76
11, 88179, Note_on_c, 5, 72, 0
11, 88200, Note_on_c, 5, 72, 76
11, 88319, Note_on_c, 5, 72, 0
11, 88320, Note_on_c, 5, 74, 76
11, 88419, Note_on_c, 5, 74, 0
11, 88440, Note_on_c, 5, 71, 76
11, 88539, Note_on_c, 5, 71, 0
11, 88560, Note_on_c, 5, 71, 76
11, 88899, Note_on_c, 5, 71, 0
11, 88920, Note_on_c, 5, 78, 76
11, 89894, Note_on_c, 5, 78, 0
11, 89910, Note_on_c, 5, 76, 76
11, 89984, Note_on_c, 5, 76, 0
11, 90000, Note_on_c, 5, 76, 76
11, 90119, Note_on_c, 5, 76, 0
11, 90120, Note_on_c, 5, 78, 76
11, 90219, Note_on_c, 5, 78, 0
11, 90240, Note_on_c, 5, 74, 76
11, 90339, Note_on_c, 5, 74, 0
11, 90360, Note_on_c, 5, 74, 76
11, 90479, Note_on_c, 5, 74, 0
11, 90480, Note_on_c, 5, 76, 76
11, 90579, Note_on_c, 5, 76, 0
11, 90600, Note_on_c, 5, 73, 76
11, 90699, Note_on_c, 5, 73, 0
11, 90720, Note_on_c, 5, 73, 76
11, 90839, Note_on_c, 5, 73, 0
11, 90840, Note_on_c, 5, 76, 76
11, 90939, Note_on_c, 5, 76, 0
11, 90960, Note_on_c, 5, 74, 76
11, 91059, Note_on_c, 5, 74, 0
11, 91080, Note_on_c, 5, 76, 76
11, 91334, Note_on_c, 5, 76, 0
11, 91350, Note_on_c, 5, 78, 76
11, 91424, Note_on_c, 5, 78, 0
11, 91440, Note_on_c, 5, 76, 76
11, 91694, Note_on_c, 5, 76, 0
11, 91710, Note_on_c, 5, 74, 76
11, 91784, Note_on_c, 5, 74, 0
11, 91800, Note_on_c, 5, 73, 76
11, 91919, Note_on_c, 5, 73, 0
11, 92160, Note_on_c, 5, 69, 76
11, 92279, Note_on_c, 5, 69, 0
11, 92520, Note_on_c, 5, 76, 76
11, 92639, Note_on_c, 5, 76, 0
11, 92880, Note_on_c, 5, 76, 76
11, 92999, Note_on_c, 5, 76, 0
11, 93240, Note_on_c, 5, 69, 76
11, 93359, Note_on_c, 5, 69, 0
11, 93600, Note_on_c, 5, 71, 76
11, 93719, Note_on_c, 5, 71, 0
11, 93960, Note_on_c, 5, 73, 76
11, 94079, Note_on_c, 5, 73, 0
11, 94080, Note_on_c, 5, 71, 76
11, 94179, Note_on_c, 5, 71, 0
11, 94200, Note_on_c, 5, 69, 76
11, 94299, Note_on_c, 5, 69, 0
11, 94320, Note_on_c, 5, 71, 76
11, 94574, Note_on_c, 5, 71, 0
11, 94590, Note_on_c, 5, 69, 76
11, 94664, Note_on_c, 5, 69, 0
11, 94680, Note_on_c, 5, 71, 76
11, 94934, Note_on_c, 5, 71, 0
11, 94950, Note_on_c, 5, 68, 76
11, 95024, Note_on_c, 5, 68, 0
11, 95040, Note_on_c, 5, 69, 76
11, 95159, Note_on_c, 5, 69, 0
11, 95160, Note_on_c, 5, 68, 76
11, 95279, Note_on_c, 5, 68, 0
11, 95280, Note_on_c, 5, 69, 76
11, 95379, Note_on_c, 5, 69, 0
11, 95400, Note_on_c, 5, 69, 76
11, 95654, Note_on_c, 5, 69, 0
11, 95670, Note_on_c, 5, 73, 76
11, 95744, Note_on_c, 5, 73, 0
11, 95760, Note_on_c, 5, 76, 76
11, 96014, Note_on_c, 5, 76, 0
11, 96030, Note_on_c, 5, 69, 76
11, 96104, Note_on_c, 5, 69, 0
11, 96120, Note_on_c, 5, 69, 76
11, 96239, Note_on_c, 5, 69, 0
11, 96240, Note_on_c, 5, 71, 76
11, 96359, Note_on_c, 5, 71, 0
11, 96360, Note_on_c, 5, 69, 76
11, 96459, Note_on_c, 5, 69, 0
11, 96480, Note_on_c, 5, 68, 76
11, 96599, Note_on_c, 5, 68, 0
11, 96600, Note_on_c, 5, 69, 76
11, 96699, Note_on_c, 5, 69, 0
11, 96720, Note_on_c, 5, 66, 76
11, 96819, Note_on_c, 5, 66, 0
11, 96840, Note_on_c, 5, 66, 76
11, 96959, Note_on_c, 5, 66, 0
11, 96960, Note_on_c, 5, 68, 76
11, 97059, Note_on_c, 5, 68, 0
11, 97080, Note_on_c, 5, 64, 76
11, 97179, Note_on_c, 5, 64, 0
11, 97200, Note_on_c, 5, 64, 76
11, 97454, Note_on_c, 5, 64, 0
11, 97470, Note_on_c, 5, 76, 76
11, 97544, Note_on_c, 5, 76, 0
11, 97560, Note_on_c, 5, 71, 76
11, 97814, Note_on_c, 5, 71, 0
11, 97830, Note_on_c, 5, 68, 76
11, 97904, Note_on_c, 5, 68, 0
11, 97920, Note_on_c, 5, 64, 76
11, 98174, Note_on_c, 5, 64, 0
11, 98190, Note_on_c, 5, 64, 76
11, 98264, Note_on_c, 5, 64, 0
11, 98280, Note_on_c, 5, 64, 76
11, 98399, Note_on_c, 5, 64, 0
11, 98400, Note_on_c, 5, 69, 76
11, 98519, Note_on_c, 5, 69, 0
11, 98520, Note_on_c, 5, 71, 76
11, 98619, Note_on_c, 5, 71, 0
11, 98640, Note_on_c, 5, 73, 76
11, 98759, Note_on_c, 5, 73, 0
11, 98760, Note_on_c, 5, 74, 76
11, 98859, Note_on_c, 5, 74, 0
11, 98880, Note_on_c, 5, 71, 76
11, 98979, Note_on_c, 5, 71, 0
11, 99000, Note_on_c, 5, 71, 76
11, 99119, Note_on_c, 5, 71, 0
11, 99120, Note_on_c, 5, 73, 76
11, 99219, Note_on_c, 5, 73, 0
11, 99240, Note_on_c, 5, 69, 76
11, 99339, Note_on_c, 5, 69, 0
11, 99360, Note_on_c, 5, 69, 76
11, 99614, Note_on_c, 5, 69, 0
11, 99630, Note_on_c, 5, 69, 76
11, 99704, Note_on_c, 5, 69, 0
11, 99720, Note_on_c, 5, 69, 76
11, 99974, Note_on_c, 5, 69, 0
11, 99990, Note_on_c, 5, 69, 76
11, 100064, Note_on_c, 5, 69, 0
11, 100080, Note_on_c, 5, 69, 76
11, 100334, Note_on_c, 5, 69, 0
11, 100350, Note_on_c, 5, 69, 76
11, 100424, Note_on_c, 5, 69, 0
11, 100440, Note_on_c, 5, 69, 76
11, 100559, Note_on_c, 5, 69, 0
11, 100560, Note_on_c, 5, 66, 76
11, 100679, Note_on_c, 5, 66, 0
11, 100680, Note_on_c, 5, 68, 76
11, 100799, Note_on_c, 5, 68, 0
11, 100800, Note_on_c, 5, 69, 76
11, 100919, Note_on_c, 5, 69, 0
11, 100920, Note_on_c, 5, 78, 76
11, 101019, Note_on_c, 5, 78, 0
11, 101040, Note_on_c, 5, 68, 76
11, 101139, Note_on_c, 5, 68, 0
11, 101160, Note_on_c, 5, 69, 76
11, 101279, Note_on_c, 5, 69, 0
11, 101280, Note_on_c, 5, 68, 76
11, 101399, Note_on_c, 5, 68, 0
11, 101400, Note_on_c, 5, 66, 76
11, 101499, Note_on_c, 5, 66, 0
11, 101520, Note_on_c, 5, 68, 76
11, 101639, Note_on_c, 5, 68, 0
11, 101640, Note_on_c, 5, 64, 76
11, 101759, Note_on_c, 5, 64, 0
11, 101760, Note_on_c, 5, 66, 76
11, 101879, Note_on_c, 5, 66, 0
11, 101880, Note_on_c, 5, 67, 76
11, 101999, Note_on_c, 5, 67, 0
11, 102000, Note_on_c, 5, 76, 76
11, 102099, Note_on_c, 5, 76, 0
11, 102120, Note_on_c, 5, 66, 76
11, 102219, Note_on_c, 5, 66, 0
11, 102240, Note_on_c, 5, 67, 76
11, 102359, Note_on_c, 5, 67, 0
11, 102360, Note_on_c, 5, 66, 76
11, 102479, Note_on_c, 5, 66, 0
11, 102480, Note_on_c, 5, 64, 76
11, 102579, Note_on_c, 5, 64, 0
11, 102600, Note_on_c, 5, 66, 76
11, 102854, Note_on_c, 5, 66, 0
11, 102870, Note_on_c, 5, 78, 76
11, 102944, Note_on_c, 5, 78, 0
11, 102960, Note_on_c, 5, 78, 76
11, 103079, Note_on_c, 5, 78, 0
11, 103080, Note_on_c, 5, 79, 76
11, 103179, Note_on_c, 5, 79, 0
11, 103200, Note_on_c, 5, 76, 76
11, 103299, Note_on_c, 5, 76, 0
11, 103320, Note_on_c, 5, 76, 76
11, 103439, Note_on_c, 5, 76, 0
11, 103440, Note_on_c, 5, 78, 76
11, 103539, Note_on_c, 5, 78, 0
11, 103560, Note_on_c, 5, 75, 76
11, 103659, Note_on_c, 5, 75, 0
11, 103680, Note_on_c, 5, 75, 76
11, 103799, Note_on_c, 5, 75, 0
11, 103800, Note_on_c, 5, 71, 76
11, 103919, Note_on_c, 5, 71, 0
11, 103920, Note_on_c, 5, 73, 76
11, 104039, Note_on_c, 5, 73, 0
11, 104040, Note_on_c, 5, 75, 76
11, 104159, Note_on_c, 5, 75, 0
11, 104160, Note_on_c, 5, 76, 76
11, 104259, Note_on_c, 5, 76, 0
11, 104280, Note_on_c, 5, 78, 76
11, 104379, Note_on_c, 5, 78, 0
11, 104400, Note_on_c, 5, 71, 76
11, 104654, Note_on_c, 5, 71, 0
11, 104670, Note_on_c, 5, 75, 76
11, 104744, Note_on_c, 5, 75, 0
11, 104760, Note_on_c, 5, 64, 76
11, 104879, Note_on_c, 5, 64, 0
11, 104880, Note_on_c, 5, 68, 76
11, 104999, Note_on_c, 5, 68, 0
11, 105000, Note_on_c, 5, 71, 76
11, 105099, Note_on_c, 5, 71, 0
11, 105120, Note_on_c, 5, 76, 76
11, 105239, Note_on_c, 5, 76, 0
11, 105240, Note_on_c, 5, 78, 76
11, 105339, Note_on_c, 5, 78, 0
11, 105360, Note_on_c, 5, 74, 76
11, 105459, Note_on_c, 5, 74, 0
11, 105480, Note_on_c, 5, 74, 76
11, 105599, Note_on_c, 5, 74, 0
11, 105600, Note_on_c, 5, 76, 76
11, 105699, Note_on_c, 5, 76, 0
11, 105720, Note_on_c, 5, 73, 76
11, 105819, Note_on_c, 5, 73, 0
11, 105840, Note_on_c, 5, 73, 76
11, 105959, Note_on_c, 5, 73, 0
11, 105960, Note_on_c, 5, 69, 76
11, 106079, Note_on_c, 5, 69, 0
11, 106080, Note_on_c, 5, 71, 76
11, 106199, Note_on_c, 5, 71, 0
11, 106200, Note_on_c, 5, 73, 76
11, 106319, Note_on_c, 5, 73, 0
11, 106320, Note_on_c, 5, 74, 76
11, 106419, Note_on_c, 5, 74, 0
11, 106440, Note_on_c, 5, 76, 76
11, 106539, Note_on_c, 5, 76, 0
11, 106560, Note_on_c, 5, 69, 76
11, 106814, Note_on_c, 5, 69, 0
11, 106830, Note_on_c, 5, 73, 76
11, 106904, Note_on_c, 5, 73, 0
11, 106920, Note_on_c, 5, 62, 76
11, 107039, Note_on_c, 5, 62, 0
11, 107040, Note_on_c, 5, 66, 76
11, 107159, Note_on_c, 5, 66, 0
11, 107160, Note_on_c, 5, 69, 76
11, 107259, Note_on_c, 5, 69, 0
11, 107280, Note_on_c, 5, 74, 76
11, 107399, Note_on_c, 5, 74, 0
11, 107400, Note_on_c, 5, 76, 76
11, 107499, Note_on_c, 5, 76, 0
11, 107520, Note_on_c, 5, 73, 76
11, 107619, Note_on_c, 5, 73, 0
11, 107640, Note_on_c, 5, 73, 76
11, 107759, Note_on_c, 5, 73, 0
11, 107760, Note_on_c, 5, 74, 76
11, 107859, Note_on_c, 5, 74, 0
11, 107880, Note_on_c, 5, 71, 76
11, 107979, Note_on_c, 5, 71, 0
11, 108000, Note_on_c, 5, 71, 76
11, 108119, Note_on_c, 5, 71, 0
11, 108120, Note_on_c, 5, 73, 76
11, 108239, Note_on_c, 5, 73, 0
11, 108240, Note_on_c, 5, 74, 76
11, 108339, Note_on_c, 5, 74, 0
11, 108360, Note_on_c, 5, 76, 76
11, 108479, Note_on_c, 5, 76, 0
11, 108480, Note_on_c, 5, 78, 76
11, 108579, Note_on_c, 5, 78, 0
11, 108600, Note_on_c, 5, 74, 76
11, 108699, Note_on_c, 5, 74, 0
11, 108720, Note_on_c, 5, 74, 76
11, 108839, Note_on_c, 5, 74, 0
11, 108840, Note_on_c, 5, 76, 76
11, 108939, Note_on_c, 5, 76, 0
11, 108960, Note_on_c, 5, 73, 76
11, 109059, Note_on_c, 5, 73, 0
11, 109080, Note_on_c, 5, 73, 76
11, 109199, Note_on_c, 5, 73, 0
11, 109200, Note_on_c, 5, 74, 76
11, 109319, Note_on_c, 5, 74, 0
11, 109320, Note_on_c, 5, 76, 76
11, 109419, Note_on_c, 5, 76, 0
11, 109440, Note_on_c, 5, 78, 76
11, 109559, Note_on_c, 5, 78, 0
11, 109560, Note_on_c, 5, 79, 76
11, 109659, Note_on_c, 5, 79, 0
11, 109680, Note_on_c, 5, 76, 76
11, 109779, Note_on_c, 5, 76, 0
11, 109800, Note_on_c, 5, 76, 76
11, 109919, Note_on_c, 5, 76, 0
11, 109920, Note_on_c, 5, 78, 76
11, 110019, Note_on_c, 5, 78, 0
11, 110040, Note_on_c, 5, 74, 76
11, 110139, Note_on_c, 5, 74, 0
11, 110160, Note_on_c, 5, 74, 76
11, 110414, Note_on_c, 5, 74, 0
11, 110430, Note_on_c, 5, 74, 76
11, 110504, Note_on_c, 5, 74, 0
11, 110520, Note_on_c, 5, 74, 76
11, 110774, Note_on_c, 5, 74, 0
11, 110790, Note_on_c, 5, 74, 76
11, 110864, Note_on_c, 5, 74, 0
11, 110880, Note_on_c, 5, 74, 76
11, 111134, Note_on_c, 5, 74, 0
11, 111150, Note_on_c, 5, 74, 76
11, 111224, Note_on_c, 5, 74, 0
11, 111240, Note_on_c, 5, 74, 76
11, 111359, Note_on_c, 5, 74, 0
11, 111360, Note_on_c, 5, 71, 76
11, 111479, Note_on_c, 5, 71, 0
11, 111480, Note_on_c, 5, 73, 76
11, 111599, Note_on_c, 5, 73, 0
11, 111600, Note_on_c, 5, 74, 76
11, 111719, Note_on_c, 5, 74, 0
11, 111720, Note_on_c, 5, 76, 76
11, 111819, Note_on_c, 5, 76, 0
11, 111840, Note_on_c, 5, 73, 76
11, 111939, Note_on_c, 5, 73, 0
11, 111960, Note_on_c, 5, 74, 76
11, 112079, Note_on_c, 5, 74, 0
11, 112080, Note_on_c, 5, 73, 76
11, 112199, Note_on_c, 5, 73, 0
11, 112200, Note_on_c, 5, 71, 76
11, 112299, Note_on_c, 5, 71, 0
11, 112320, Note_on_c, 5, 73, 76
11, 112439, Note_on_c, 5, 73, 0
11, 112440, Note_on_c, 5, 76, 76
11, 112539, Note_on_c, 5, 76, 0
11, 112560, Note_on_c, 5, 74, 76
11, 112659, Note_on_c, 5, 74, 0
11, 112680, Note_on_c, 5, 76, 76
11, 112934, Note_on_c, 5, 76, 0
11, 112950, Note_on_c, 5, 69, 76
11, 113024, Note_on_c, 5, 69, 0
11, 113040, Note_on_c, 5, 64, 76
11, 113294, Note_on_c, 5, 64, 0
11, 113310, Note_on_c, 5, 68, 76
11, 113384, Note_on_c, 5, 68, 0
11, 113400, Note_on_c, 5, 69, 76
11, 113759, Note_on_c, 5, 69, 0
11, 114750, Note_on_c, 5, 69, 76
11, 114824, Note_on_c, 5, 69, 0
11, 114840, Note_on_c, 5, 69, 76
11, 114959, Note_on_c, 5, 69, 0
11, 114960, Note_on_c, 5, 73, 76
11, 115059, Note_on_c, 5, 73, 0
11, 115080, Note_on_c, 5, 71, 76
11, 115179, Note_on_c, 5, 71, 0
11, 115200, Note_on_c, 5, 71, 76
11, 115319, Note_on_c, 5, 71, 0
11, 115320, Note_on_c, 5, 74, 76
11, 115419, Note_on_c, 5, 74, 0
11, 115440, Note_on_c, 5, 73, 76
11, 115539, Note_on_c, 5, 73, 0
11, 115560, Note_on_c, 5, 73, 76
11, 115679, Note_on_c, 5, 73, 0
11, 116910, Note_on_c, 5, 73, 76
11, 116984, Note_on_c, 5, 73, 0
11, 117000, Note_on_c, 5, 76, 76
11, 117254, Note_on_c, 5, 76, 0
11, 117270, Note_on_c, 5, 73, 76
11, 117344, Note_on_c, 5, 73, 0
11, 117360, Note_on_c, 5, 69, 76
11, 117614, Note_on_c, 5, 69, 0
11, 117630, Note_on_c, 5, 73, 76
11, 117704, Note_on_c, 5, 73, 0
11, 117720, Note_on_c, 5, 74, 76
11, 117974, Note_on_c, 5, 74, 0
11, 117990, Note_on_c, 5, 69, 76
11, 118064, Note_on_c, 5, 69, 0
11, 118080, Note_on_c, 5, 69, 76
11, 118199, Note_on_c, 5, 69, 0
11, 118200, Note_on_c, 5, 74, 76
11, 118299, Note_on_c, 5, 74, 0
11, 118320, Note_on_c, 5, 73, 76
11, 118419, Note_on_c, 5, 73, 0
11, 118440, Note_on_c, 5, 73, 76
11, 118559, Note_on_c, 5, 73, 0
11, 118560, Note_on_c, 5, 76, 76
11, 118659, Note_on_c, 5, 76, 0
11, 118680, Note_on_c, 5, 74, 76
11, 118779, Note_on_c, 5, 74, 0
11, 118800, Note_on_c, 5, 74, 76
11, 118919, Note_on_c, 5, 74, 0
11, 120150, Note_on_c, 5, 66, 76
11, 120224, Note_on_c, 5, 66, 0
11, 120240, Note_on_c, 5, 66, 76
11, 120359, Note_on_c, 5, 66, 0
11, 120360, Note_on_c, 5, 69, 76
11, 120459, Note_on_c, 5, 69, 0
11, 120480, Note_on_c, 5, 67, 76
11, 120579, Note_on_c, 5, 67, 0
11, 120600, Note_on_c, 5, 67, 76
11, 120719, Note_on_c, 5, 67, 0
11, 120720, Note_on_c, 5, 71, 76
11, 120819, Note_on_c, 5, 71, 0
11, 120840, Note_on_c, 5, 69, 76
11, 120939, Note_on_c, 5, 69, 0
11, 120960, Note_on_c, 5, 69, 76
11, 121214, Note_on_c, 5, 69, 0
11, 121230, Note_on_c, 5, 66, 76
11, 121304, Note_on_c, 5, 66, 0
11, 121320, Note_on_c, 5, 69, 76
11, 121574, Note_on_c, 5, 69, 0
11, 121590, Note_on_c, 5, 66, 76
11, 121664, Note_on_c, 5, 66, 0
11, 121680, Note_on_c, 5, 62, 76
11, 121934, Note_on_c, 5, 62, 0
11, 121950, Note_on_c, 5, 66, 76
11, 122024, Note_on_c, 5, 66, 0
11, 122040, Note_on_c, 5, 67, 76
11, 122294, Note_on_c, 5, 67, 0
11, 122310, Note_on_c, 5, 66, 76
11, 122384, Note_on_c, 5, 66, 0
11, 122400, Note_on_c, 5, 67, 76
11, 122654, Note_on_c, 5, 67, 0
11, 122670, Note_on_c, 5, 69, 76
11, 122744, Note_on_c, 5, 69, 0
11, 122760, Note_on_c, 5, 69, 76
11, 122879, Note_on_c, 5, 69, 0
11, 122880, Note_on_c, 5, 71, 76
11, 122979, Note_on_c, 5, 71, 0
11, 123000, Note_on_c, 5, 68, 76
11, 123099, Note_on_c, 5, 68, 0
11, 123120, Note_on_c, 5, 68, 76
11, 123239, Note_on_c, 5, 68, 0
11, 123240, Note_on_c, 5, 69, 76
11, 123359, Note_on_c, 5, 69, 0
11, 123360, Note_on_c, 5, 71, 76
11, 123459, Note_on_c, 5, 71, 0
11, 123480, Note_on_c, 5, 69, 76
11, 123734, Note_on_c, 5, 69, 0
11, 123750, Note_on_c, 5, 71, 76
11, 123824, Note_on_c, 5, 71, 0
11, 123840, Note_on_c, 5, 71, 76
11, 123959, Note_on_c, 5, 71, 0
11, 123960, Note_on_c, 5, 73, 76
11, 124059, Note_on_c, 5, 73, 0
11, 124080, Note_on_c, 5, 70, 76
11, 124179, Note_on_c, 5, 70, 0
11, 124200, Note_on_c, 5, 70, 76
11, 124319, Note_on_c, 5, 70, 0
11, 124320, Note_on_c, 5, 71, 76
11, 124439, Note_on_c, 5, 71, 0
11, 124440, Note_on_c, 5, 73, 76
11, 124539, Note_on_c, 5, 73, 0
11, 124560, Note_on_c, 5, 71, 76
11, 124814, Note_on_c, 5, 71, 0
11, 124830, Note_on_c, 5, 73, 76
11, 124904, Note_on_c, 5, 73, 0
11, 124920, Note_on_c, 5, 73, 76
11, 125039, Note_on_c, 5, 73, 0
11, 125040, Note_on_c, 5, 74, 76
11, 125139, Note_on_c, 5, 74, 0
11, 125160, Note_on_c, 5, 71, 76
11, 125259, Note_on_c, 5, 71, 0
11, 125280, Note_on_c, 5, 71, 76
11, 125399, Note_on_c, 5, 71, 0
11, 125400, Note_on_c, 5, 73, 76
11, 125519, Note_on_c, 5, 73, 0
11, 125520, Note_on_c, 5, 74, 76
11, 125619, Note_on_c, 5, 74, 0
11, 125640, Note_on_c, 5, 73, 76
11, 125894, Note_on_c, 5, 73, 0
11, 125910, Note_on_c, 5, 74, 76
11, 125984, Note_on_c, 5, 74, 0
11, 126000, Note_on_c, 5, 74, 76
11, 126119, Note_on_c, 5, 74, 0
11, 126120, Note_on_c, 5, 76, 76
11, 126219, Note_on_c, 5, 76, 0
11, 126240, Note_on_c, 5, 73, 76
11, 126339, Note_on_c, 5, 73, 0
11, 126360, Note_on_c, 5, 73, 76
11, 126479, Note_on_c, 5, 73, 0
11, 127710, Note_on_c, 5, 71, 76
11, 127784, Note_on_c, 5, 71, 0
11, 127800, Note_on_c, 5, 71, 76
11, 127919, Note_on_c, 5, 71, 0
11, 127920, Note_on_c, 5, 73, 76
11, 128019, Note_on_c, 5, 73, 0
11, 128040, Note_on_c, 5, 69, 76
11, 128139, Note_on_c, 5, 69, 0
11, 128160, Note_on_c, 5, 69, 76
11, 128279, Note_on_c, 5, 69, 0
11, 128280, Note_on_c, 5, 71, 76
11, 128379, Note_on_c, 5, 71, 0
11, 128400, Note_on_c, 5, 68, 76
11, 128499, Note_on_c, 5, 68, 0
11, 128520, Note_on_c, 5, 68, 76
11, 128639, Note_on_c, 5, 68, 0
11, 128640, Note_on_c, 5, 70, 76
11, 128759, Note_on_c, 5, 70, 0
11, 128760, Note_on_c, 5, 71, 76
11, 128879, Note_on_c, 5, 71, 0
11, 128880, Note_on_c, 5, 73, 76
11, 128999, Note_on_c, 5, 73, 0
11, 129000, Note_on_c, 5, 74, 76
11, 129099, Note_on_c, 5, 74, 0
11, 129120, Note_on_c, 5, 71, 76
11, 129219, Note_on_c, 5, 71, 0
11, 129240, Note_on_c, 5, 71, 76
11, 129359, Note_on_c, 5, 71, 0
11, 129360, Note_on_c, 5, 73, 76
11, 129459, Note_on_c, 5, 73, 0
11, 129480, Note_on_c, 5, 70, 76
11, 129579, Note_on_c, 5, 70, 0
11, 129600, Note_on_c, 5, 70, 76
11, 129719, Note_on_c, 5, 70, 0
11, 129720, Note_on_c, 5, 71, 76
11, 129839, Note_on_c, 5, 71, 0
11, 129840, Note_on_c, 5, 73, 76
11, 129939, Note_on_c, 5, 73, 0
11, 129960, Note_on_c, 5, 73, 76
11, 130229, Note_on_c, 5, 73, 0
11, 130230, Note_on_c, 5, 71, 76
11, 130304, Note_on_c, 5, 71, 0
11, 130320, Note_on_c, 5, 71, 76
11, 130589, Note_on_c, 5, 71, 0
11, 130590, Note_on_c, 5, 70, 76
11, 130664, Note_on_c, 5, 70, 0
11, 130680, Note_on_c, 5, 71, 76
11, 130799, Note_on_c, 5, 71, 0
11, 131040, Note_on_c, 5, 71, 76
11, 131159, Note_on_c, 5, 71, 0
11, 131400, Note_on_c, 5, 75, 76
11, 131519, Note_on_c, 5, 75, 0
11, 131760, Note_on_c, 5, 76, 76
11, 131879, Note_on_c, 5, 76, 0
11, 132390, Note_on_c, 5, 71, 76
11, 132464, Note_on_c, 5, 71, 0
11, 132480, Note_on_c, 5, 73, 76
11, 132734, Note_on_c, 5, 73, 0
11, 132750, Note_on_c, 5, 75, 76
11, 132824, Note_on_c, 5, 75, 0
11, 132840, Note_on_c, 5, 76, 76
11, 133094, Note_on_c, 5, 76, 0
11, 133110, Note_on_c, 5, 71, 76
11, 133184, Note_on_c, 5, 71, 0
11, 133200, Note_on_c, 5, 70, 76
11, 133454, Note_on_c, 5, 70, 0
11, 133470, Note_on_c, 5, 71, 76
11, 133544, Note_on_c, 5, 71, 0
11, 133560, Note_on_c, 5, 73, 76
11, 133814, Note_on_c, 5, 73, 0
11, 133830, Note_on_c, 5, 76, 76
11, 133904, Note_on_c, 5, 76, 0
11, 133920, Note_on_c, 5, 70, 76
11, 134039, Note_on_c, 5, 70, 0
11, 134040, Note_on_c, 5, 71, 76
11, 134159, Note_on_c, 5, 71, 0
11, 134160, Note_on_c, 5, 73, 76
11, 134259, Note_on_c, 5, 73, 0
11, 134280, Note_on_c, 5, 73, 76
11, 134399, Note_on_c, 5, 73, 0
11, 134400, Note_on_c, 5, 74, 76
11, 134499, Note_on_c, 5, 74, 0
11, 134520, Note_on_c, 5, 71, 76
11, 134619, Note_on_c, 5, 71, 0
11, 134640, Note_on_c, 5, 71, 76
11, 134759, Note_on_c, 5, 71, 0
11, 134760, Note_on_c, 5, 73, 76
11, 134859, Note_on_c, 5, 73, 0
11, 134880, Note_on_c, 5, 70, 76
11, 134979, Note_on_c, 5, 70, 0
11, 135000, Note_on_c, 5, 71, 76
11, 135254, Note_on_c, 5, 71, 0
11, 135270, Note_on_c, 5, 71, 76
11, 135344, Note_on_c, 5, 71, 0
11, 135360, Note_on_c, 5, 67, 76
11, 135479, Note_on_c, 5, 67, 0
11, 135480, Note_on_c, 5, 66, 76
11, 135599, Note_on_c, 5, 66, 0
11, 135600, Note_on_c, 5, 64, 76
11, 135699, Note_on_c, 5, 64, 0
11, 135720, Note_on_c, 5, 66, 76
11, 135974, Note_on_c, 5, 66, 0
11, 135990, Note_on_c, 5, 66, 76
11, 136064, Note_on_c, 5, 66, 0
11, 136080, Note_on_c, 5, 66, 76
11, 136199, Note_on_c, 5, 66, 0
11, 138600, Note_on_c, 5, 71, 76
11, 138719, Note_on_c, 5, 71, 0
11, 138960, Note_on_c, 5, 75, 76
11, 139079, Note_on_c, 5, 75, 0
11, 139590, Note_on_c, 5, 76, 76
11, 139664, Note_on_c, 5, 76, 0
11, 139680, Note_on_c, 5, 76, 76
11, 139799, Note_on_c, 5, 76, 0
11, 139800, Note_on_c, 5, 78, 76
11, 139899, Note_on_c, 5, 78, 0
11, 139920, Note_on_c, 5, 74, 76
11, 140019, Note_on_c, 5, 74, 0
11, 140040, Note_on_c, 5, 74, 76
11, 140159, Note_on_c, 5, 74, 0
11, 140160, Note_on_c, 5, 76, 76
11, 140259, Note_on_c, 5, 76, 0
11, 140280, Note_on_c, 5, 72, 76
11, 140379, Note_on_c, 5, 72, 0
11, 140400, Note_on_c, 5, 72, 76
11, 140654, Note_on_c, 5, 72, 0
11, 140670, Note_on_c, 5, 72, 76
11, 140744, Note_on_c, 5, 72, 0
11, 140760, Note_on_c, 5, 72, 76
11, 141014, Note_on_c, 5, 72, 0
11, 141030, Note_on_c, 5, 72, 76
11, 141104, Note_on_c, 5, 72, 0
11, 141120, Note_on_c, 5, 72, 76
11, 141374, Note_on_c, 5, 72, 0
11, 141390, Note_on_c, 5, 72, 76
11, 141464, Note_on_c, 5, 72, 0
11, 141480, Note_on_c, 5, 71, 76
11, 141839, Note_on_c, 5, 71, 0
11, 142200, Note_on_c, 5, 66, 76
11, 142679, Note_on_c, 5, 66, 0
11, 142680, Note_on_c, 5, 67, 76
11, 142799, Note_on_c, 5, 67, 0
11, 142800, Note_on_c, 5, 69, 76
11, 142899, Note_on_c, 5, 69, 0
11, 142920, Note_on_c, 5, 71, 76
11, 143039, Note_on_c, 5, 71, 0
11, 143040, Note_on_c, 5, 72, 76
11, 143139, Note_on_c, 5, 72, 0
11, 143160, Note_on_c, 5, 70, 76
11, 143259, Note_on_c, 5, 70, 0
11, 143280, Note_on_c, 5, 71, 76
11, 143399, Note_on_c, 5, 71, 0
11, 143400, Note_on_c, 5, 69, 76
11, 143519, Note_on_c, 5, 69, 0
11, 143520, Note_on_c, 5, 67, 76
11, 143619, Note_on_c, 5, 67, 0
11, 143640, Note_on_c, 5, 69, 76
11, 143999, Note_on_c, 5, 69, 0
11, 144360, Note_on_c, 5, 62, 76
11, 144839, Note_on_c, 5, 62, 0
11, 144840, Note_on_c, 5, 64, 76
11, 144959, Note_on_c, 5, 64, 0
11, 144960, Note_on_c, 5, 66, 76
11, 145079, Note_on_c, 5, 66, 0
11, 145080, Note_on_c, 5, 67, 76
11, 145199, Note_on_c, 5, 67, 0
11, 145200, Note_on_c, 5, 69, 76
11, 145299, Note_on_c, 5, 69, 0
11, 145320, Note_on_c, 5, 66, 76
11, 145419, Note_on_c, 5, 66, 0
11, 145440, Note_on_c, 5, 67, 76
11, 145559, Note_on_c, 5, 67, 0
11, 145560, Note_on_c, 5, 66, 76
11, 145679, Note_on_c, 5, 66, 0
11, 145680, Note_on_c, 5, 64, 76
11, 145779, Note_on_c, 5, 64, 0
11, 145800, Note_on_c, 5, 66, 76
11, 146054, Note_on_c, 5, 66, 0
11, 146070, Note_on_c, 5, 62, 76
11, 146144, Note_on_c, 5, 62, 0
11, 146160, Note_on_c, 5, 62, 76
11, 146414, Note_on_c, 5, 62, 0
11, 146430, Note_on_c, 5, 62, 76
11, 146504, Note_on_c, 5, 62, 0
11, 146520, Note_on_c, 5, 62, 76
11, 146774, Note_on_c, 5, 62, 0
11, 146790, Note_on_c, 5, 62, 76
11, 146864, Note_on_c, 5, 62, 0
11, 146880, Note_on_c, 5, 62, 76
11, 146999, Note_on_c, 5, 62, 0
11, 147240, Note_on_c, 5, 71, 76
11, 147359, Note_on_c, 5, 71, 0
11, 147600, Note_on_c, 5, 67, 76
11, 147719, Note_on_c, 5, 67, 0
11, 147960, Note_on_c, 5, 67, 76
11, 148079, Note_on_c, 5, 67, 0
11, 148320, Note_on_c, 5, 66, 76
11, 148439, Note_on_c, 5, 66, 0
11, 148680, Note_on_c, 5, 67, 76
11, 148799, Note_on_c, 5, 67, 0
11, 149040, Note_on_c, 5, 69, 76
11, 149159, Note_on_c, 5, 69, 0
11, 149160, Note_on_c, 5, 67, 76
11, 149279, Note_on_c, 5, 67, 0
11, 149280, Note_on_c, 5, 69, 76
11, 149379, Note_on_c, 5, 69, 0
11, 149400, Note_on_c, 5, 69, 76
11, 149654, Note_on_c, 5, 69, 0
11, 149670, Note_on_c, 5, 67, 76
11, 149744, Note_on_c, 5, 67, 0
11, 149760, Note_on_c, 5, 67, 76
11, 150014, Note_on_c, 5, 67, 0
11, 150030, Note_on_c, 5, 66, 76
11, 150104, Note_on_c, 5, 66, 0
11, 150120, Note_on_c, 5, 67, 76
11, 150239, Note_on_c, 5, 67, 0
11, 150480, Note_on_c, 5, 74, 76
11, 150599, Note_on_c, 5, 74, 0
11, 150840, Note_on_c, 5, 74, 76
11, 150959, Note_on_c, 5, 74, 0
11, 151200, Note_on_c, 5, 74, 76
11, 151319, Note_on_c, 5, 74, 0
11, 151830, Note_on_c, 5, 67, 76
11, 151904, Note_on_c, 5, 67, 0
11, 151920, Note_on_c, 5, 69, 76
11, 152174, Note_on_c, 5, 69, 0
11, 152190, Note_on_c, 5, 71, 76
11, 152264, Note_on_c, 5, 71, 0
11, 152280, Note_on_c, 5, 72, 76
11, 152534, Note_on_c, 5, 72, 0
11, 152550, Note_on_c, 5, 67, 76
11, 152624, Note_on_c, 5, 67, 0
11, 152640, Note_on_c, 5, 66, 76
11, 152669, Note_on_c, 5, 66, 0
11, 152670, Note_on_c, 5, 67, 76
11, 152699, Note_on_c, 5, 67, 0
11, 152700, Note_on_c, 5, 66, 76
11, 152729, Note_on_c, 5, 66, 0
11, 152730, Note_on_c, 5, 67, 76
11, 152759, Note_on_c, 5, 67, 0
11, 152760, Note_on_c, 5, 66, 76
11, 152789, Note_on_c, 5, 66, 0
11, 152790, Note_on_c, 5, 67, 76
11, 152819, Note_on_c, 5, 67, 0
11, 152820, Note_on_c, 5, 64, 76
11, 152849, Note_on_c, 5, 64, 0
11, 152850, Note_on_c, 5, 66, 76
11, 152879, Note_on_c, 5, 66, 0
11, 152910, Note_on_c, 5, 67, 76
11, 152984, Note_on_c, 5, 67, 0
11, 153000, Note_on_c, 5, 69, 76
11, 153254, Note_on_c, 5, 69, 0
11, 153270, Note_on_c, 5, 72, 76
11, 153344, Note_on_c, 5, 72, 0
11, 153360, Note_on_c, 5, 66, 76
11, 153479, Note_on_c, 5, 66, 0
11, 153480, Note_on_c, 5, 67, 76
11, 153599, Note_on_c, 5, 67, 0
11, 153600, Note_on_c, 5, 69, 76
11, 153699, Note_on_c, 5, 69, 0
11, 153720, Note_on_c, 5, 69, 76
11, 153839, Note_on_c, 5, 69, 0
11, 153840, Note_on_c, 5, 71, 76
11, 153939, Note_on_c, 5, 71, 0
11, 153960, Note_on_c, 5, 67, 76
11, 154059, Note_on_c, 5, 67, 0
11, 154080, Note_on_c, 5, 67, 76
11, 154199, Note_on_c, 5, 67, 0
11, 154200, Note_on_c, 5, 69, 76
11, 154299, Note_on_c, 5, 69, 0
11, 154320, Note_on_c, 5, 66, 76
11, 154419, Note_on_c, 5, 66, 0
11, 154440, Note_on_c, 5, 67, 76
11, 154694, Note_on_c, 5, 67, 0
11, 154710, Note_on_c, 5, 72, 76
11, 154784, Note_on_c, 5, 72, 0
11, 154800, Note_on_c, 5, 71, 76
11, 154919, Note_on_c, 5, 71, 0
11, 154920, Note_on_c, 5, 72, 76
11, 155019, Note_on_c, 5, 72, 0
11, 155040, Note_on_c, 5, 69, 76
11, 155139, Note_on_c, 5, 69, 0
11, 155160, Note_on_c, 5, 69, 76
11, 155189, Note_on_c, 5, 69, 0
11, 155190, Note_on_c, 5, 71, 76
11, 155219, Note_on_c, 5, 71, 0
11, 155220, Note_on_c, 5, 69, 76
11, 155249, Note_on_c, 5, 69, 0
11, 155250, Note_on_c, 5, 71, 76
11, 155279, Note_on_c, 5, 71, 0
11, 155280, Note_on_c, 5, 69, 76
11, 155309, Note_on_c, 5, 69, 0
11, 155310, Note_on_c, 5, 71, 76
11, 155339, Note_on_c, 5, 71, 0
11, 155340, Note_on_c, 5, 67, 76
11, 155369, Note_on_c, 5, 67, 0
11, 155370, Note_on_c, 5, 69, 76
11, 155399, Note_on_c, 5, 69, 0
11, 155430, Note_on_c, 5, 71, 76
11, 155504, Note_on_c, 5, 71, 0
11, 155520, Note_on_c, 5, 71, 76
11, 155639, Note_on_c, 5, 71, 0
11, 155880, Note_on_c, 5, 67, 76
11, 155999, Note_on_c, 5, 67, 0
11, 156240, Note_on_c, 5, 74, 76
11, 156359, Note_on_c, 5, 74, 0
11, 156600, Note_on_c, 5, 74, 76
11, 156719, Note_on_c, 5, 74, 0
11, 156960, Note_on_c, 5, 67, 76
11, 157079, Note_on_c, 5, 67, 0
11, 157320, Note_on_c, 5, 69, 76
11, 157439, Note_on_c, 5, 69, 0
11, 157680, Note_on_c, 5, 71, 76
11, 157799, Note_on_c, 5, 71, 0
11, 179550, Note_on_c, 5, 74, 76
11, 179624, Note_on_c, 5, 74, 0
11, 179640, Note_on_c, 5, 74, 76
11, 179894, Note_on_c, 5, 74, 0
11, 179910, Note_on_c, 5, 66, 76
11, 179984, Note_on_c, 5, 66, 0
11, 180000, Note_on_c, 5, 69, 76
11, 180254, Note_on_c, 5, 69, 0
11, 180270, Note_on_c, 5, 74, 76
11, 180344, Note_on_c, 5, 74, 0
11, 180360, Note_on_c, 5, 74, 76
11, 180479, Note_on_c, 5, 74, 0
11, 180480, Note_on_c, 5, 76, 76
11, 180599, Note_on_c, 5, 76, 0
11, 180600, Note_on_c, 5, 74, 76
11, 180699, Note_on_c, 5, 74, 0
11, 180720, Note_on_c, 5, 73, 76
11, 180839, Note_on_c, 5, 73, 0
11, 180840, Note_on_c, 5, 74, 76
11, 180939, Note_on_c, 5, 74, 0
11, 180960, Note_on_c, 5, 71, 76
11, 181059, Note_on_c, 5, 71, 0
11, 181080, Note_on_c, 5, 71, 76
11, 181199, Note_on_c, 5, 71, 0
11, 181200, Note_on_c, 5, 73, 76
11, 181299, Note_on_c, 5, 73, 0
11, 181320, Note_on_c, 5, 69, 76
11, 181419, Note_on_c, 5, 69, 0
11, 181440, Note_on_c, 5, 69, 76
11, 181694, Note_on_c, 5, 69, 0
11, 181710, Note_on_c, 5, 81, 76
11, 181784, Note_on_c, 5, 81, 0
11, 181800, Note_on_c, 5, 76, 76
11, 182054, Note_on_c, 5, 76, 0
11, 182070, Note_on_c, 5, 73, 76
11, 182144, Note_on_c, 5, 73, 0
11, 182160, Note_on_c, 5, 69, 76
11, 182414, Note_on_c, 5, 69, 0
11, 182430, Note_on_c, 5, 69, 76
11, 182504, Note_on_c, 5, 69, 0
11, 182520, Note_on_c, 5, 69, 76
11, 182639, Note_on_c, 5, 69, 0
11, 182640, Note_on_c, 5, 71, 76
11, 182759, Note_on_c, 5, 71, 0
11, 182760, Note_on_c, 5, 73, 76
11, 182859, Note_on_c, 5, 73, 0
11, 182880, Note_on_c, 5, 74, 76
11, 183134, Note_on_c, 5, 74, 0
11, 183150, Note_on_c, 5, 76, 76
11, 183224, Note_on_c, 5, 76, 0
11, 183240, Note_on_c, 5, 73, 76
11, 183494, Note_on_c, 5, 73, 0
11, 183510, Note_on_c, 5, 69, 76
11, 183584, Note_on_c, 5, 69, 0
11, 183600, Note_on_c, 5, 69, 76
11, 183719, Note_on_c, 5, 69, 0
11, 183720, Note_on_c, 5, 71, 76
11, 183839, Note_on_c, 5, 71, 0
11, 183840, Note_on_c, 5, 69, 76
11, 183939, Note_on_c, 5, 69, 0
11, 183960, Note_on_c, 5, 68, 76
11, 184079, Note_on_c, 5, 68, 0
11, 184080, Note_on_c, 5, 69, 76
11, 184179, Note_on_c, 5, 69, 0
11, 184200, Note_on_c, 5, 66, 76
11, 184299, Note_on_c, 5, 66, 0
11, 184320, Note_on_c, 5, 66, 76
11, 184439, Note_on_c, 5, 66, 0
11, 184440, Note_on_c, 5, 68, 76
11, 184539, Note_on_c, 5, 68, 0
11, 184560, Note_on_c, 5, 64, 76
11, 184659, Note_on_c, 5, 64, 0
11, 184680, Note_on_c, 5, 64, 76
11, 185039, Note_on_c, 5, 64, 0
11, 185310, Note_on_c, 5, 76, 76
11, 185384, Note_on_c, 5, 76, 0
11, 185400, Note_on_c, 5, 71, 76
11, 185654, Note_on_c, 5, 71, 0
11, 185670, Note_on_c, 5, 71, 76
11, 185744, Note_on_c, 5, 71, 0
11, 185760, Note_on_c, 5, 69, 76
11, 186119, Note_on_c, 5, 69, 0
11, 186390, Note_on_c, 5, 74, 76
11, 186464, Note_on_c, 5, 74, 0
11, 186480, Note_on_c, 5, 69, 76
11, 186734, Note_on_c, 5, 69, 0
11, 186750, Note_on_c, 5, 69, 76
11, 186824, Note_on_c, 5, 69, 0
11, 186840, Note_on_c, 5, 67, 76
11, 186959, Note_on_c, 5, 67, 0
11, 187200, Note_on_c, 5, 73, 76
11, 187319, Note_on_c, 5, 73, 0
11, 187560, Note_on_c, 5, 75, 76
11, 187679, Note_on_c, 5, 75, 0
11, 187920, Note_on_c, 5, 76, 76
11, 188174, Note_on_c, 5, 76, 0
11, 188190, Note_on_c, 5, 76, 76
11, 188264, Note_on_c, 5, 76, 0
11, 188280, Note_on_c, 5, 76, 76
11, 188399, Note_on_c, 5, 76, 0
11, 188400, Note_on_c, 5, 78, 76
11, 188499, Note_on_c, 5, 78, 0
11, 188520, Note_on_c, 5, 74, 76
11, 188619, Note_on_c, 5, 74, 0
11, 188640, Note_on_c, 5, 74, 76
11, 188759, Note_on_c, 5, 74, 0
11, 188760, Note_on_c, 5, 76, 76
11, 188859, Note_on_c, 5, 76, 0
11, 188880, Note_on_c, 5, 73, 76
11, 188979, Note_on_c, 5, 73, 0
11, 189000, Note_on_c, 5, 73, 76
11, 189119, Note_on_c, 5, 73, 0
11, 189120, Note_on_c, 5, 69, 76
11, 189239, Note_on_c, 5, 69, 0
11, 189240, Note_on_c, 5, 71, 76
11, 189359, Note_on_c, 5, 71, 0
11, 189360, Note_on_c, 5, 73, 76
11, 189479, Note_on_c, 5, 73, 0
11, 189480, Note_on_c, 5, 74, 76
11, 189579, Note_on_c, 5, 74, 0
11, 189600, Note_on_c, 5, 76, 76
11, 189699, Note_on_c, 5, 76, 0
11, 189720, Note_on_c, 5, 69, 76
11, 189974, Note_on_c, 5, 69, 0
11, 189990, Note_on_c, 5, 73, 76
11, 190064, Note_on_c, 5, 73, 0
11, 190080, Note_on_c, 5, 62, 76
11, 190199, Note_on_c, 5, 62, 0
11, 190200, Note_on_c, 5, 66, 76
11, 190319, Note_on_c, 5, 66, 0
11, 190320, Note_on_c, 5, 69, 76
11, 190419, Note_on_c, 5, 69, 0
11, 190440, Note_on_c, 5, 74, 76
11, 190559, Note_on_c, 5, 74, 0
11, 190560, Note_on_c, 5, 76, 76
11, 190659, Note_on_c, 5, 76, 0
11, 190680, Note_on_c, 5, 72, 76
11, 190779, Note_on_c, 5, 72, 0
11, 190800, Note_on_c, 5, 72, 76
11, 190919, Note_on_c, 5, 72, 0
11, 190920, Note_on_c, 5, 74, 76
11, 191019, Note_on_c, 5, 74, 0
11, 191040, Note_on_c, 5, 71, 76
11, 191139, Note_on_c, 5, 71, 0
11, 191160, Note_on_c, 5, 71, 76
11, 191279, Note_on_c, 5, 71, 0
11, 191280, Note_on_c, 5, 67, 76
11, 191399, Note_on_c, 5, 67, 0
11, 191400, Note_on_c, 5, 71, 76
11, 191499, Note_on_c, 5, 71, 0
11, 191520, Note_on_c, 5, 76, 76
11, 191639, Note_on_c, 5, 76, 0
11, 191640, Note_on_c, 5, 78, 76
11, 191739, Note_on_c, 5, 78, 0
11, 191760, Note_on_c, 5, 74, 76
11, 191859, Note_on_c, 5, 74, 0
11, 191880, Note_on_c, 5, 74, 76
11, 191999, Note_on_c, 5, 74, 0
11, 192000, Note_on_c, 5, 76, 76
11, 192099, Note_on_c, 5, 76, 0
11, 192120, Note_on_c, 5, 73, 76
11, 192219, Note_on_c, 5, 73, 0
11, 192240, Note_on_c, 5, 73, 76
11, 192359, Note_on_c, 5, 73, 0
11, 192360, Note_on_c, 5, 74, 76
11, 192479, Note_on_c, 5, 74, 0
11, 192480, Note_on_c, 5, 76, 76
11, 192579, Note_on_c, 5, 76, 0
11, 192600, Note_on_c, 5, 78, 76
11, 192719, Note_on_c, 5, 78, 0
11, 192720, Note_on_c, 5, 79, 76
11, 192819, Note_on_c, 5, 79, 0
11, 192840, Note_on_c, 5, 76, 76
11, 192939, Note_on_c, 5, 76, 0
11, 192960, Note_on_c, 5, 76, 76
11, 193079, Note_on_c, 5, 76, 0
11, 193080, Note_on_c, 5, 78, 76
11, 193179, Note_on_c, 5, 78, 0
11, 193200, Note_on_c, 5, 74, 76
11, 193299, Note_on_c, 5, 74, 0
11, 193320, Note_on_c, 5, 74, 76
11, 193439, Note_on_c, 5, 74, 0
11, 193950, Note_on_c, 5, 73, 76
11, 194024, Note_on_c, 5, 73, 0
11, 194040, Note_on_c, 5, 73, 76
11, 194294, Note_on_c, 5, 73, 0
11, 194310, Note_on_c, 5, 75, 76
11, 194384, Note_on_c, 5, 75, 0
11, 194400, Note_on_c, 5, 76, 76
11, 194654, Note_on_c, 5, 76, 0
11, 194670, Note_on_c, 5, 76, 76
11, 194744, Note_on_c, 5, 76, 0
11, 194760, Note_on_c, 5, 76, 76
11, 195014, Note_on_c, 5, 76, 0
11, 195030, Note_on_c, 5, 76, 76
11, 195104, Note_on_c, 5, 76, 0
11, 195120, Note_on_c, 5, 76, 76
11, 195374, Note_on_c, 5, 76, 0
11, 195390, Note_on_c, 5, 76, 76
11, 195464, Note_on_c, 5, 76, 0
11, 195480, Note_on_c, 5, 76, 76
11, 195599, Note_on_c, 5, 76, 0
11, 195600, Note_on_c, 5, 73, 76
11, 195699, Note_on_c, 5, 73, 0
11, 195720, Note_on_c, 5, 74, 76
11, 195819, Note_on_c, 5, 74, 0
11, 195840, Note_on_c, 5, 76, 76
11, 195959, Note_on_c, 5, 76, 0
11, 195960, Note_on_c, 5, 73, 76
11, 196059, Note_on_c, 5, 73, 0
11, 196080, Note_on_c, 5, 74, 76
11, 196179, Note_on_c, 5, 74, 0
11, 196200, Note_on_c, 5, 76, 76
11, 196319, Note_on_c, 5, 76, 0
11, 196320, Note_on_c, 5, 74, 76
11, 196419, Note_on_c, 5, 74, 0
11, 196440, Note_on_c, 5, 73, 76
11, 196539, Note_on_c, 5, 73, 0
11, 196560, Note_on_c, 5, 74, 76
11, 196814, Note_on_c, 5, 74, 0
11, 196830, Note_on_c, 5, 73, 76
11, 196904, Note_on_c, 5, 73, 0
11, 196920, Note_on_c, 5, 74, 76
11, 197174, Note_on_c, 5, 74, 0
11, 197190, Note_on_c, 5, 71, 76
11, 197264, Note_on_c, 5, 71, 0
11, 197280, Note_on_c, 5, 69, 76
11, 197534, Note_on_c, 5, 69, 0
11, 197550, Note_on_c, 5, 69, 76
11, 197624, Note_on_c, 5, 69, 0
11, 197640, Note_on_c, 5, 69, 76
11, 197759, Note_on_c, 5, 69, 0
11, 198000, Note_on_c, 5, 74, 76
11, 198119, Note_on_c, 5, 74, 0
11, 198360, Note_on_c, 5, 76, 76
11, 198479, Note_on_c, 5, 76, 0
11, 198720, Note_on_c, 5, 81, 76
11, 198839, Note_on_c, 5, 81, 0
11, 199080, Note_on_c, 5, 74, 76
11, 199199, Note_on_c, 5, 74, 0
11, 199440, Note_on_c, 5, 76, 76
11, 199559, Note_on_c, 5, 76, 0
11, 199800, Note_on_c, 5, 69, 76
11, 199973, Note_on_c, 5, 69, 0
11, 199980, Note_on_c, 5, 78, 76
11, 200033, Note_on_c, 5, 78, 0
11, 200040, Note_on_c, 5, 78, 76
11, 200213, Note_on_c, 5, 78, 0
11, 200220, Note_on_c, 5, 74, 76
11, 200273, Note_on_c, 5, 74, 0
11, 200280, Note_on_c, 5, 69, 76
11, 200759, Note_on_c, 5, 69, 0
11, 200940, Note_on_c, 5, 81, 76
11, 200993, Note_on_c, 5, 81, 0
11, 201000, Note_on_c, 5, 81, 76
11, 201173, Note_on_c, 5, 81, 0
11, 201180, Note_on_c, 5, 78, 76
11, 201233, Note_on_c, 5, 78, 0
11, 201240, Note_on_c, 5, 74, 76
11, 201719, Note_on_c, 5, 74, 0
11, 201900, Note_on_c, 5, 72, 76
11, 201953, Note_on_c, 5, 72, 0
11, 201960, Note_on_c, 5, 72, 76
11, 202133, Note_on_c, 5, 72, 0
11, 202140, Note_on_c, 5, 69, 76
11, 202193, Note_on_c, 5, 69, 0
11, 202200, Note_on_c, 5, 78, 76
11, 202439, Note_on_c, 5, 78, 0
11, 202560, Note_on_c, 5, 78, 76
11, 202669, Note_on_c, 5, 78, 0
11, 202680, Note_on_c, 5, 76, 76
11, 202789, Note_on_c, 5, 76, 0
11, 202800, Note_on_c, 5, 64, 76
11, 202853, Note_on_c, 5, 64, 0
11, 202860, Note_on_c, 5, 66, 76
11, 202913, Note_on_c, 5, 66, 0
11, 202920, Note_on_c, 5, 67, 76
11, 202973, Note_on_c, 5, 67, 0
11, 202980, Note_on_c, 5, 69, 76
11, 203033, Note_on_c, 5, 69, 0
11, 203040, Note_on_c, 5, 71, 76
11, 203093, Note_on_c, 5, 71, 0
11, 203100, Note_on_c, 5, 73, 76
11, 203153, Note_on_c, 5, 73, 0
11, 203160, Note_on_c, 5, 74, 76
11, 203213, Note_on_c, 5, 74, 0
11, 203220, Note_on_c, 5, 73, 76
11, 203273, Note_on_c, 5, 73, 0
11, 203280, Note_on_c, 5, 71, 76
11, 203333, Note_on_c, 5, 71, 0
11, 203340, Note_on_c, 5, 73, 76
11, 203393, Note_on_c, 5, 73, 0
11, 203400, Note_on_c, 5, 74, 76
11, 203453, Note_on_c, 5, 74, 0
11, 203460, Note_on_c, 5, 71, 76
11, 203513, Note_on_c, 5, 71, 0
11, 203520, Note_on_c, 5, 76, 76
11, 203573, Note_on_c, 5, 76, 0
11, 203580, Note_on_c, 5, 71, 76
11, 203633, Note_on_c, 5, 71, 0
11, 203640, Note_on_c, 5, 73, 76
11, 204599, Note_on_c, 5, 73, 0
11, 204780, Note_on_c, 5, 69, 76
11, 204833, Note_on_c, 5, 69, 0
11, 204840, Note_on_c, 5, 69, 76
11, 205013, Note_on_c, 5, 69, 0
11, 205020, Note_on_c, 5, 74, 76
11, 205073, Note_on_c, 5, 74, 0
11, 205080, Note_on_c, 5, 78, 76
11, 205559, Note_on_c, 5, 78, 0
11, 205740, Note_on_c, 5, 78, 76
11, 205793, Note_on_c, 5, 78, 0
11, 205800, Note_on_c, 5, 78, 76
11, 205973, Note_on_c, 5, 78, 0
11, 205980, Note_on_c, 5, 75, 76
11, 206033, Note_on_c, 5, 75, 0
11, 206040, Note_on_c, 5, 76, 76
11, 206519, Note_on_c, 5, 76, 0
11, 206700, Note_on_c, 5, 76, 76
11, 206753, Note_on_c, 5, 76, 0
11, 206760, Note_on_c, 5, 76, 76
11, 206933, Note_on_c, 5, 76, 0
11, 206940, Note_on_c, 5, 73, 76
11, 206993, Note_on_c, 5, 73, 0
11, 207000, Note_on_c, 5, 69, 76
11, 207239, Note_on_c, 5, 69, 0
11, 207360, Note_on_c, 5, 74, 76
11, 207469, Note_on_c, 5, 74, 0
11, 207480, Note_on_c, 5, 76, 76
11, 207829, Note_on_c, 5, 76, 0
11, 207840, Note_on_c, 5, 76, 76
11, 207949, Note_on_c, 5, 76, 0
11, 207960, Note_on_c, 5, 76, 76
11, 208189, Note_on_c, 5, 76, 0
11, 208200, Note_on_c, 5, 73, 76
11, 208429, Note_on_c, 5, 73, 0
11, 208440, Note_on_c, 5, 69, 76
11, 208919, Note_on_c, 5, 69, 0
11, 209100, Note_on_c, 5, 71, 76
11, 209153, Note_on_c, 5, 71, 0
11, 209160, Note_on_c, 5, 71, 76
11, 209333, Note_on_c, 5, 71, 0
11, 209340, Note_on_c, 5, 67, 76
11, 209393, Note_on_c, 5, 67, 0
11, 209400, Note_on_c, 5, 64, 76
11, 209749, Note_on_c, 5, 64, 0
11, 209760, Note_on_c, 5, 64, 76
11, 209869, Note_on_c, 5, 64, 0
11, 209880, Note_on_c, 5, 66, 76
11, 210109, Note_on_c, 5, 66, 0
11, 210120, Note_on_c, 5, 70, 76
11, 210349, Note_on_c, 5, 70, 0
11, 210360, Note_on_c, 5, 71, 76
11, 210533, Note_on_c, 5, 71, 0
11, 210540, Note_on_c, 5, 66, 76
11, 210593, Note_on_c, 5, 66, 0
11, 210600, Note_on_c, 5, 66, 76
11, 210773, Note_on_c, 5, 66, 0
11, 210780, Note_on_c, 5, 62, 76
11, 210833, Note_on_c, 5, 62, 0
11, 210840, Note_on_c, 5, 62, 76
11, 211319, Note_on_c, 5, 62, 0
11, 211500, Note_on_c, 5, 67, 76
11, 211553, Note_on_c, 5, 67, 0
11, 211560, Note_on_c, 5, 66, 76
11, 211733, Note_on_c, 5, 66, 0
11, 211740, Note_on_c, 5, 64, 76
11, 211793, Note_on_c, 5, 64, 0
11, 211800, Note_on_c, 5, 62, 76
11, 211973, Note_on_c, 5, 62, 0
11, 211980, Note_on_c, 5, 62, 76
11, 212033, Note_on_c, 5, 62, 0
11, 212040, Note_on_c, 5, 64, 76
11, 212213, Note_on_c, 5, 64, 0
11, 212220, Note_on_c, 5, 66, 76
11, 212273, Note_on_c, 5, 66, 0
11, 212280, Note_on_c, 5, 64, 76
11, 212759, Note_on_c, 5, 64, 0
11, 212940, Note_on_c, 5, 73, 76
11, 212993, Note_on_c, 5, 73, 0
11, 213000, Note_on_c, 5, 73, 76
11, 213173, Note_on_c, 5, 73, 0
11, 213180, Note_on_c, 5, 69, 76
11, 213233, Note_on_c, 5, 69, 0
11, 213240, Note_on_c, 5, 66, 76
11, 213719, Note_on_c, 5, 66, 0
11, 213900, Note_on_c, 5, 74, 76
11, 213953, Note_on_c, 5, 74, 0
11, 213960, Note_on_c, 5, 74, 76
11, 214133, Note_on_c, 5, 74, 0
11, 214140, Note_on_c, 5, 69, 76
11, 214193, Note_on_c, 5, 69, 0
11, 214200, Note_on_c, 5, 70, 76
11, 214679, Note_on_c, 5, 70, 0
11, 214860, Note_on_c, 5, 76, 76
11, 214913, Note_on_c, 5, 76, 0
11, 214920, Note_on_c, 5, 76, 76
11, 215093, Note_on_c, 5, 76, 0
11, 215100, Note_on_c, 5, 73, 76
11, 215153, Note_on_c, 5, 73, 0
11, 215160, Note_on_c, 5, 69, 76
11, 215399, Note_on_c, 5, 69, 0
11, 215580, Note_on_c, 5, 69, 76
11, 215633, Note_on_c, 5, 69, 0
11, 215640, Note_on_c, 5, 67, 76
11, 215879, Note_on_c, 5, 67, 0
11, 216060, Note_on_c, 5, 67, 76
11, 216113, Note_on_c, 5, 67, 0
11, 216120, Note_on_c, 5, 65, 76
11, 216599, Note_on_c, 5, 65, 0
11, 216780, Note_on_c, 5, 69, 76
11, 216833, Note_on_c, 5, 69, 0
11, 216840, Note_on_c, 5, 62, 76
11, 217013, Note_on_c, 5, 62, 0
11, 217020, Note_on_c, 5, 66, 76
11, 217073, Note_on_c, 5, 66, 0
11, 217080, Note_on_c, 5, 66, 76
11, 217253, Note_on_c, 5, 66, 0
11, 217260, Note_on_c, 5, 69, 76
11, 217313, Note_on_c, 5, 69, 0
11, 217320, Note_on_c, 5, 67, 76
11, 217493, Note_on_c, 5, 67, 0
11, 217500, Note_on_c, 5, 64, 76
11, 217553, Note_on_c, 5, 64, 0
11, 217560, Note_on_c, 5, 66, 76
11, 217733, Note_on_c, 5, 66, 0
11, 217740, Note_on_c, 5, 62, 76
11, 217793, Note_on_c, 5, 62, 0
11, 217800, Note_on_c, 5, 64, 76
11, 217973, Note_on_c, 5, 64, 0
11, 217980, Note_on_c, 5, 71, 76
11, 218033, Note_on_c, 5, 71, 0
11, 218040, Note_on_c, 5, 76, 76
11, 218213, Note_on_c, 5, 76, 0
11, 218220, Note_on_c, 5, 73, 76
11, 218273, Note_on_c, 5, 73, 0
11, 218280, Note_on_c, 5, 74, 76
11, 218453, Note_on_c, 5, 74, 0
11, 218460, Note_on_c, 5, 71, 76
11, 218513, Note_on_c, 5, 71, 0
11, 218520, Note_on_c, 5, 69, 76
11, 218749, Note_on_c, 5, 69, 0
11, 218760, Note_on_c, 5, 69, 76
11, 218989, Note_on_c, 5, 69, 0
11, 219000, Note_on_c, 5, 69, 76
11, 219719, Note_on_c, 5, 69, 0
11, 220320, Note_on_c, 5, 76, 76
11, 220419, Note_on_c, 5, 76, 0
11, 220440, Note_on_c, 5, 76, 76
11, 220559, Note_on_c, 5, 76, 0
11, 220560, Note_on_c, 5, 78, 76
11, 220659, Note_on_c, 5, 78, 0
11, 220680, Note_on_c, 5, 74, 76
11, 220779, Note_on_c, 5, 74, 0
11, 220800, Note_on_c, 5, 74, 76
11, 220919, Note_on_c, 5, 74, 0
11, 220920, Note_on_c, 5, 76, 76
11, 221019, Note_on_c, 5, 76, 0
11, 221040, Note_on_c, 5, 73, 76
11, 221139, Note_on_c, 5, 73, 0
11, 221160, Note_on_c, 5, 73, 76
11, 221279, Note_on_c, 5, 73, 0
11, 221280, Note_on_c, 5, 74, 76
11, 221399, Note_on_c, 5, 74, 0
11, 221400, Note_on_c, 5, 76, 76
11, 221499, Note_on_c, 5, 76, 0
11, 221520, Note_on_c, 5, 78, 76
11, 221639, Note_on_c, 5, 78, 0
11, 221640, Note_on_c, 5, 79, 76
11, 221739, Note_on_c, 5, 79, 0
11, 221760, Note_on_c, 5, 76, 76
11, 221859, Note_on_c, 5, 76, 0
11, 221880, Note_on_c, 5, 76, 76
11, 221999, Note_on_c, 5, 76, 0
11, 222000, Note_on_c, 5, 78, 76
11, 222099, Note_on_c, 5, 78, 0
11, 222120, Note_on_c, 5, 74, 76
11, 222219, Note_on_c, 5, 74, 0
11, 222240, Note_on_c, 5, 74, 76
11, 222494, Note_on_c, 5, 74, 0
11, 222510, Note_on_c, 5, 74, 76
11, 222584, Note_on_c, 5, 74, 0
11, 222600, Note_on_c, 5, 74, 76
11, 222854, Note_on_c, 5, 74, 0
11, 222870, Note_on_c, 5, 74, 76
11, 222944, Note_on_c, 5, 74, 0
11, 222960, Note_on_c, 5, 74, 76
11, 223214, Note_on_c, 5, 74, 0
11, 223230, Note_on_c, 5, 74, 76
11, 223304, Note_on_c, 5, 74, 0
11, 223320, Note_on_c, 5, 74, 76
11, 223439, Note_on_c, 5, 74, 0
11, 223440, Note_on_c, 5, 71, 76
11, 223559, Note_on_c, 5, 71, 0
11, 223560, Note_on_c, 5, 73, 76
11, 223659, Note_on_c, 5, 73, 0
11, 223680, Note_on_c, 5, 74, 76
11, 223799, Note_on_c, 5, 74, 0
11, 223800, Note_on_c, 5, 83, 76
11, 223899, Note_on_c, 5, 83, 0
11, 223920, Note_on_c, 5, 73, 76
11, 224019, Note_on_c, 5, 73, 0
11, 224040, Note_on_c, 5, 74, 76
11, 224159, Note_on_c, 5, 74, 0
11, 224160, Note_on_c, 5, 73, 76
11, 224279, Note_on_c, 5, 73, 0
11, 224280, Note_on_c, 5, 71, 76
11, 224379, Note_on_c, 5, 71, 0
11, 224400, Note_on_c, 5, 73, 76
11, 224519, Note_on_c, 5, 73, 0
11, 224520, Note_on_c, 5, 76, 76
11, 224639, Note_on_c, 5, 76, 0
11, 224640, Note_on_c, 5, 74, 76
11, 224739, Note_on_c, 5, 74, 0
11, 224760, Note_on_c, 5, 76, 76
11, 225014, Note_on_c, 5, 76, 0
11, 225030, Note_on_c, 5, 74, 76
11, 225104, Note_on_c, 5, 74, 0
11, 225120, Note_on_c, 5, 76, 76
11, 225374, Note_on_c, 5, 76, 0
11, 225390, Note_on_c, 5, 73, 76
11, 225464, Note_on_c, 5, 73, 0
11, 225480, Note_on_c, 5, 74, 76
11, 225599, Note_on_c, 5, 74, 0
11, 225600, Note_on_c, 5, 73, 76
11, 225719, Note_on_c, 5, 73, 0
11, 225720, Note_on_c, 5, 74, 76
11, 225819, Note_on_c, 5, 74, 0
11, 225840, Note_on_c, 5, 74, 76
11, 226094, Note_on_c, 5, 74, 0
11, 226110, Note_on_c, 5, 66, 76
11, 226184, Note_on_c, 5, 66, 0
11, 226200, Note_on_c, 5, 69, 76
11, 226454, Note_on_c, 5, 69, 0
11, 226470, Note_on_c, 5, 74, 76
11, 226544, Note_on_c, 5, 74, 0
11, 226560, Note_on_c, 5, 74, 76
11, 226679, Note_on_c, 5, 74, 0
11, 226680, Note_on_c, 5, 76, 76
11, 226799, Note_on_c, 5, 76, 0
11, 226800, Note_on_c, 5, 74, 76
11, 226899, Note_on_c, 5, 74, 0
11, 226920, Note_on_c, 5, 73, 76
11, 227039, Note_on_c, 5, 73, 0
11, 227040, Note_on_c, 5, 74, 76
11, 227139, Note_on_c, 5, 74, 0
11, 227160, Note_on_c, 5, 71, 76
11, 227259, Note_on_c, 5, 71, 0
11, 227280, Note_on_c, 5, 71, 76
11, 227399, Note_on_c, 5, 71, 0
11, 227400, Note_on_c, 5, 73, 76
11, 227499, Note_on_c, 5, 73, 0
11, 227520, Note_on_c, 5, 69, 76
11, 227619, Note_on_c, 5, 69, 0
11, 227640, Note_on_c, 5, 69, 76
11, 227894, Note_on_c, 5, 69, 0
11, 227910, Note_on_c, 5, 81, 76
11, 227984, Note_on_c, 5, 81, 0
11, 228000, Note_on_c, 5, 76, 76
11, 228254, Note_on_c, 5, 76, 0
11, 228270, Note_on_c, 5, 73, 76
11, 228344, Note_on_c, 5, 73, 0
11, 228360, Note_on_c, 5, 69, 76
11, 228614, Note_on_c, 5, 69, 0
11, 228630, Note_on_c, 5, 69, 76
11, 228704, Note_on_c, 5, 69, 0
11, 228720, Note_on_c, 5, 69, 76
11, 228839, Note_on_c, 5, 69, 0
11, 228840, Note_on_c, 5, 71, 76
11, 228959, Note_on_c, 5, 71, 0
11, 228960, Note_on_c, 5, 73, 76
11, 229059, Note_on_c, 5, 73, 0
11, 229080, Note_on_c, 5, 74, 76
11, 229334, Note_on_c, 5, 74, 0
11, 229350, Note_on_c, 5, 76, 76
11, 229424, Note_on_c, 5, 76, 0
11, 229440, Note_on_c, 5, 73, 76
11, 229469, Note_on_c, 5, 73, 0
11, 229470, Note_on_c, 5, 74, 76
11, 229499, Note_on_c, 5, 74, 0
11, 229500, Note_on_c, 5, 73, 76
11, 229529, Note_on_c, 5, 73, 0
11, 229530, Note_on_c, 5, 74, 76
11, 229559, Note_on_c, 5, 74, 0
11, 229560, Note_on_c, 5, 73, 76
11, 229589, Note_on_c, 5, 73, 0
11, 229590, Note_on_c, 5, 74, 76
11, 229619, Note_on_c, 5, 74, 0
11, 229620, Note_on_c, 5, 71, 76
11, 229649, Note_on_c, 5, 71, 0
11, 229650, Note_on_c, 5, 73, 76
11, 229679, Note_on_c, 5, 73, 0
11, 229710, Note_on_c, 5, 69, 76
11, 229784, Note_on_c, 5, 69, 0
11, 229800, Note_on_c, 5, 69, 76
11, 229919, Note_on_c, 5, 69, 0
11, 229920, Note_on_c, 5, 71, 76
11, 230039, Note_on_c, 5, 71, 0
11, 230040, Note_on_c, 5, 69, 76
11, 230139, Note_on_c, 5, 69, 0
11, 230160, Note_on_c, 5, 68, 76
11, 230279, Note_on_c, 5, 68, 0
11, 230280, Note_on_c, 5, 69, 76
11, 230379, Note_on_c, 5, 69, 0
11, 230400, Note_on_c, 5, 66, 76
11, 230499, Note_on_c, 5, 66, 0
11, 230520, Note_on_c, 5, 66, 76
11, 230639, Note_on_c, 5, 66, 0
11, 230640, Note_on_c, 5, 68, 76
11, 230739, Note_on_c, 5, 68, 0
11, 230760, Note_on_c, 5, 64, 76
11, 230859, Note_on_c, 5, 64, 0
11, 230880, Note_on_c, 5, 64, 76
11, 231239, Note_on_c, 5, 64, 0
11, 231480, Note_on_c, 5, 76, 76
11, 231579, Note_on_c, 5, 76, 0
11, 231600, Note_on_c, 5, 71, 76
11, 231854, Note_on_c, 5, 71, 0
11, 231870, Note_on_c, 5, 71, 76
11, 231944, Note_on_c, 5, 71, 0
11, 231960, Note_on_c, 5, 69, 76
11, 232319, Note_on_c, 5, 69, 0
11, 232560, Note_on_c, 5, 74, 76
11, 232659, Note_on_c, 5, 74, 0
11, 232680, Note_on_c, 5, 69, 76
11, 232934, Note_on_c, 5, 69, 0
11, 232950, Note_on_c, 5, 69, 76
11, 233024, Note_on_c, 5, 69, 0
11, 233040, Note_on_c, 5, 67, 76
11, 233159, Note_on_c, 5, 67, 0
11, 233400, Note_on_c, 5, 73, 76
11, 233519, Note_on_c, 5, 73, 0
11, 233760, Note_on_c, 5, 75, 76
11, 233879, Note_on_c, 5, 75, 0
11, 234120, Note_on_c, 5, 76, 76
11, 234374, Note_on_c, 5, 76, 0
11, 234390, Note_on_c, 5, 76, 76
11, 234464, Note_on_c, 5, 76, 0
11, 234480, Note_on_c, 5, 76, 76
11, 234599, Note_on_c, 5, 76, 0
11, 234600, Note_on_c, 5, 78, 76
11, 234699, Note_on_c, 5, 78, 0
11, 234720, Note_on_c, 5, 74, 76
11, 234819, Note_on_c, 5, 74, 0
11, 234840, Note_on_c, 5, 74, 76
11, 234959, Note_on_c, 5, 74, 0
11, 234960, Note_on_c, 5, 76, 76
11, 235059, Note_on_c, 5, 76, 0
11, 235080, Note_on_c, 5, 73, 76
11, 235179, Note_on_c, 5, 73, 0
11, 235200, Note_on_c, 5, 73, 76
11, 235319, Note_on_c, 5, 73, 0
11, 235320, Note_on_c, 5, 69, 76
11, 235439, Note_on_c, 5, 69, 0
11, 235440, Note_on_c, 5, 71, 76
11, 235539, Note_on_c, 5, 71, 0
11, 235560, Note_on_c, 5, 73, 76
11, 235679, Note_on_c, 5, 73, 0
11, 235680, Note_on_c, 5, 74, 76
11, 235779, Note_on_c, 5, 74, 0
11, 235800, Note_on_c, 5, 76, 76
11, 235899, Note_on_c, 5, 76, 0
11, 235920, Note_on_c, 5, 69, 76
11, 236174, Note_on_c, 5, 69, 0
11, 236190, Note_on_c, 5, 73, 76
11, 236264, Note_on_c, 5, 73, 0
11, 236280, Note_on_c, 5, 62, 76
11, 236399, Note_on_c, 5, 62, 0
11, 236400, Note_on_c, 5, 66, 76
11, 236519, Note_on_c, 5, 66, 0
11, 236520, Note_on_c, 5, 69, 76
11, 236619, Note_on_c, 5, 69, 0
11, 236640, Note_on_c, 5, 74, 76
11, 236759, Note_on_c, 5, 74, 0
11, 236760, Note_on_c, 5, 76, 76
11, 236859, Note_on_c, 5, 76, 0
11, 236880, Note_on_c, 5, 72, 76
11, 236979, Note_on_c, 5, 72, 0
11, 237000, Note_on_c, 5, 72, 76
11, 237119, Note_on_c, 5, 72, 0
11, 237120, Note_on_c, 5, 74, 76
11, 237219, Note_on_c, 5, 74, 0
11, 237240, Note_on_c, 5, 71, 76
11, 237339, Note_on_c, 5, 71, 0
11, 237360, Note_on_c, 5, 71, 76
11, 237479, Note_on_c, 5, 71, 0
11, 237480, Note_on_c, 5, 67, 76
11, 237599, Note_on_c, 5, 67, 0
11, 237600, Note_on_c, 5, 71, 76
11, 237699, Note_on_c, 5, 71, 0
11, 237720, Note_on_c, 5, 76, 76
11, 237839, Note_on_c, 5, 76, 0
11, 237840, Note_on_c, 5, 78, 76
11, 237939, Note_on_c, 5, 78, 0
11, 237960, Note_on_c, 5, 74, 76
11, 238059, Note_on_c, 5, 74, 0
11, 238080, Note_on_c, 5, 74, 76
11, 238199, Note_on_c, 5, 74, 0
11, 238200, Note_on_c, 5, 76, 76
11, 238299, Note_on_c, 5, 76, 0
11, 238320, Note_on_c, 5, 73, 76
11, 238419, Note_on_c, 5, 73, 0
11, 238440, Note_on_c, 5, 73, 76
11, 238559, Note_on_c, 5, 73, 0
11, 238560, Note_on_c, 5, 74, 76
11, 238679, Note_on_c, 5, 74, 0
11, 238680, Note_on_c, 5, 76, 76
11, 238779, Note_on_c, 5, 76, 0
11, 238800, Note_on_c, 5, 78, 76
11, 238919, Note_on_c, 5, 78, 0
11, 238920, Note_on_c, 5, 79, 76
11, 239019, Note_on_c, 5, 79, 0
11, 239040, Note_on_c, 5, 76, 76
11, 239139, Note_on_c, 5, 76, 0
11, 239160, Note_on_c, 5, 76, 76
11, 239279, Note_on_c, 5, 76, 0
11, 239280, Note_on_c, 5, 78, 76
11, 239379, Note_on_c, 5, 78, 0
11, 239400, Note_on_c, 5, 74, 76
11, 239499, Note_on_c, 5, 74, 0
11, 239520, Note_on_c, 5, 74, 76
11, 239639, Note_on_c, 5, 74, 0
11, 240150, Note_on_c, 5, 73, 76
11, 240224, Note_on_c, 5, 73, 0
11, 240240, Note_on_c, 5, 73, 76
11, 240494, Note_on_c, 5, 73, 0
11, 240510, Note_on_c, 5, 75, 76
11, 240584, Note_on_c, 5, 75, 0
11, 240600, Note_on_c, 5, 76, 76
11, 240854, Note_on_c, 5, 76, 0
11, 240870, Note_on_c, 5, 76, 76
11, 240944, Note_on_c, 5, 76, 0
11, 240960, Note_on_c, 5, 76, 76
11, 241214, Note_on_c, 5, 76, 0
11, 241230, Note_on_c, 5, 76, 76
11, 241304, Note_on_c, 5, 76, 0
11, 241320, Note_on_c, 5, 76, 76
11, 241574, Note_on_c, 5, 76, 0
11, 241590, Note_on_c, 5, 76, 76
11, 241664, Note_on_c, 5, 76, 0
11, 241680, Note_on_c, 5, 76, 76
11, 241799, Note_on_c, 5, 76, 0
11, 241800, Note_on_c, 5, 73, 76
11, 241919, Note_on_c, 5, 73, 0
11, 241920, Note_on_c, 5, 74, 76
11, 242019, Note_on_c, 5, 74, 0
11, 242040, Note_on_c, 5, 76, 76
11, 242159, Note_on_c, 5, 76, 0
11, 242160, Note_on_c, 5, 73, 76
11, 242259, Note_on_c, 5, 73, 0
11, 242280, Note_on_c, 5, 74, 76
11, 242379, Note_on_c, 5, 74, 0
11, 242400, Note_on_c, 5, 76, 76
11, 242519, Note_on_c, 5, 76, 0
11, 242520, Note_on_c, 5, 74, 76
11, 242639, Note_on_c, 5, 74, 0
11, 242640, Note_on_c, 5, 73, 76
11, 242739, Note_on_c, 5, 73, 0
11, 242760, Note_on_c, 5, 74, 76
11, 243014, Note_on_c, 5, 74, 0
11, 243030, Note_on_c, 5, 73, 76
11, 243104, Note_on_c, 5, 73, 0
11, 243120, Note_on_c, 5, 74, 76
11, 243374, Note_on_c, 5, 74, 0
11, 243390, Note_on_c, 5, 71, 76
11, 243464, Note_on_c, 5, 71, 0
11, 243480, Note_on_c, 5, 69, 76
11, 243734, Note_on_c, 5, 69, 0
11, 243750, Note_on_c, 5, 69, 76
11, 243824, Note_on_c, 5, 69, 0
11, 243840, Note_on_c, 5, 69, 76
11, 244094, Note_on_c, 5, 69, 0
11, 244110, Note_on_c, 5, 69, 76
11, 244184, Note_on_c, 5, 69, 0
11, 244200, Note_on_c, 5, 69, 76
11, 244319, Note_on_c, 5, 69, 0
11, 244320, Note_on_c, 5, 71, 76
11, 244419, Note_on_c, 5, 71, 0
11, 244440, Note_on_c, 5, 67, 76
11, 244539, Note_on_c, 5, 67, 0
11, 244560, Note_on_c, 5, 67, 76
11, 244679, Note_on_c, 5, 67, 0
11, 244680, Note_on_c, 5, 69, 76
11, 244779, Note_on_c, 5, 69, 0
11, 244800, Note_on_c, 5, 66, 76
11, 244899, Note_on_c, 5, 66, 0
11, 244920, Note_on_c, 5, 66, 76
11, 245039, Note_on_c, 5, 66, 0
11, 245040, Note_on_c, 5, 67, 76
11, 245159, Note_on_c, 5, 67, 0
11, 245160, Note_on_c, 5, 69, 76
11, 245259, Note_on_c, 5, 69, 0
11, 245280, Note_on_c, 5, 69, 76
11, 245399, Note_on_c, 5, 69, 0
11, 245400, Note_on_c, 5, 71, 76
11, 245499, Note_on_c, 5, 71, 0
11, 245520, Note_on_c, 5, 67, 76
11, 245619, Note_on_c, 5, 67, 0
11, 245640, Note_on_c, 5, 67, 76
11, 245759, Note_on_c, 5, 67, 0
11, 245760, Note_on_c, 5, 69, 76
11, 245859, Note_on_c, 5, 69, 0
11, 245880, Note_on_c, 5, 66, 76
11, 245979, Note_on_c, 5, 66, 0
11, 246000, Note_on_c, 5, 66, 76
11, 246119, Note_on_c, 5, 66, 0
11, 246360, Note_on_c, 5, 67, 76
11, 246479, Note_on_c, 5, 67, 0
11, 246720, Note_on_c, 5, 69, 76
11, 246839, Note_on_c, 5, 69, 0
11, 247080, Note_on_c, 5, 62, 76
11, 247199, Note_on_c, 5, 62, 0
11, 247440, Note_on_c, 5, 69, 76
11, 247559, Note_on_c, 5, 69, 0
11, 247800, Note_on_c, 5, 71, 76
11, 247919, Note_on_c, 5, 71, 0
11, 248160, Note_on_c, 5, 64, 76
11, 248279, Note_on_c, 5, 64, 0
11, 248520, Note_on_c, 5, 71, 76
11, 248639, Note_on_c, 5, 71, 0
11, 248880, Note_on_c, 5, 73, 76
11, 248999, Note_on_c, 5, 73, 0
11, 249240, Note_on_c, 5, 66, 76
11, 249494, Note_on_c, 5, 66, 0
11, 249510, Note_on_c, 5, 74, 76
11, 249584, Note_on_c, 5, 74, 0
11, 249600, Note_on_c, 5, 74, 76
11, 249719, Note_on_c, 5, 74, 0
11, 249720, Note_on_c, 5, 76, 76
11, 249819, Note_on_c, 5, 76, 0
11, 249840, Note_on_c, 5, 73, 76
11, 249939, Note_on_c, 5, 73, 0
11, 249960, Note_on_c, 5, 73, 76
11, 250079, Note_on_c, 5, 73, 0
11, 250080, Note_on_c, 5, 74, 76
11, 250179, Note_on_c, 5, 74, 0
11, 250200, Note_on_c, 5, 71, 76
11, 250299, Note_on_c, 5, 71, 0
11, 250320, Note_on_c, 5, 71, 76
11, 250439, Note_on_c, 5, 71, 0
11, 250440, Note_on_c, 5, 73, 76
11, 250559, Note_on_c, 5, 73, 0
11, 250560, Note_on_c, 5, 74, 76
11, 250659, Note_on_c, 5, 74, 0
11, 250680, Note_on_c, 5, 76, 76
11, 250799, Note_on_c, 5, 76, 0
11, 250800, Note_on_c, 5, 78, 76
11, 250899, Note_on_c, 5, 78, 0
11, 250920, Note_on_c, 5, 74, 76
11, 251019, Note_on_c, 5, 74, 0
11, 251040, Note_on_c, 5, 74, 76
11, 251159, Note_on_c, 5, 74, 0
11, 251160, Note_on_c, 5, 76, 76
11, 251259, Note_on_c, 5, 76, 0
11, 251280, Note_on_c, 5, 73, 76
11, 251379, Note_on_c, 5, 73, 0
11, 251400, Note_on_c, 5, 73, 76
11, 251739, Note_on_c, 5, 73, 0
11, 251760, Note_on_c, 5, 78, 76
11, 252579, Note_on_c, 5, 78, 0
11, 252600, Note_on_c, 5, 71, 76
11, 252719, Note_on_c, 5, 71, 0
11, 252720, Note_on_c, 5, 73, 76
11, 252839, Note_on_c, 5, 73, 0
11, 252840, Note_on_c, 5, 75, 76
11, 252959, Note_on_c, 5, 75, 0
11, 252960, Note_on_c, 5, 83, 76
11, 253059, Note_on_c, 5, 83, 0
11, 253080, Note_on_c, 5, 73, 76
11, 253179, Note_on_c, 5, 73, 0
11, 253200, Note_on_c, 5, 75, 76
11, 253319, Note_on_c, 5, 75, 0
11, 253320, Note_on_c, 5, 73, 76
11, 253439, Note_on_c, 5, 73, 0
11, 253440, Note_on_c, 5, 71, 76
11, 253539, Note_on_c, 5, 71, 0
11, 253560, Note_on_c, 5, 76, 76
11, 254739, Note_on_c, 5, 76, 0
11, 254760, Note_on_c, 5, 69, 76
11, 254879, Note_on_c, 5, 69, 0
11, 254880, Note_on_c, 5, 71, 76
11, 254999, Note_on_c, 5, 71, 0
11, 255000, Note_on_c, 5, 73, 76
11, 255119, Note_on_c, 5, 73, 0
11, 255120, Note_on_c, 5, 81, 76
11, 255219, Note_on_c, 5, 81, 0
11, 255240, Note_on_c, 5, 71, 76
11, 255339, Note_on_c, 5, 71, 0
11, 255360, Note_on_c, 5, 73, 76
11, 255479, Note_on_c, 5, 73, 0
11, 255480, Note_on_c, 5, 71, 76
11, 255599, Note_on_c, 5, 71, 0
11, 255600, Note_on_c, 5, 69, 76
11, 255699, Note_on_c, 5, 69, 0
11, 255720, Note_on_c, 5, 74, 76
11, 256059, Note_on_c, 5, 74, 0
11, 256080, Note_on_c, 5, 81, 76
11, 257859, Note_on_c, 5, 81, 0
11, 257880, Note_on_c, 5, 80, 76
11, 257909, Note_on_c, 5, 80, 0
11, 257910, Note_on_c, 5, 81, 76
11, 257939, Note_on_c, 5, 81, 0
11, 257940, Note_on_c, 5, 80, 76
11, 257969, Note_on_c, 5, 80, 0
11, 257970, Note_on_c, 5, 81, 76
11, 257999, Note_on_c, 5, 81, 0
11, 258000, Note_on_c, 5, 80, 76
11, 258029, Note_on_c, 5, 80, 0
11, 258030, Note_on_c, 5, 81, 76
11, 258059, Note_on_c, 5, 81, 0
11, 258060, Note_on_c, 5, 80, 76
11, 258089, Note_on_c, 5, 80, 0
11, 258090, Note_on_c, 5, 81, 76
11, 258119, Note_on_c, 5, 81, 0
11, 258120, Note_on_c, 5, 80, 76
11, 258149, Note_on_c, 5, 80, 0
11, 258150, Note_on_c, 5, 81, 76
11, 258179, Note_on_c, 5, 81, 0
11, 258180, Note_on_c, 5, 80, 76
11, 258209, Note_on_c, 5, 80, 0
11, 258210, Note_on_c, 5, 81, 76
11, 258239, Note_on_c, 5, 81, 0
11, 258240, Note_on_c, 5, 80, 76
11, 258269, Note_on_c, 5, 80, 0
11, 258270, Note_on_c, 5, 81, 76
11, 258299, Note_on_c, 5, 81, 0
11, 258300, Note_on_c, 5, 80, 76
11, 258329, Note_on_c, 5, 80, 0
11, 258330, Note_on_c, 5, 81, 76
11, 258359, Note_on_c, 5, 81, 0
11, 258360, Note_on_c, 5, 80, 76
11, 258389, Note_on_c, 5, 80, 0
11, 258390, Note_on_c, 5, 81, 76
11, 258419, Note_on_c, 5, 81, 0
11, 258420, Note_on_c, 5, 80, 76
11, 258449, Note_on_c, 5, 80, 0
11, 258450, Note_on_c, 5, 81, 76
11, 258479, Note_on_c, 5, 81, 0
11, 258480, Note_on_c, 5, 80, 76
11, 258509, Note_on_c, 5, 80, 0
11, 258510, Note_on_c, 5, 81, 76
11, 258539, Note_on_c, 5, 81, 0
11, 258540, Note_on_c, 5, 80, 76
11, 258569, Note_on_c, 5, 80, 0
11, 258570, Note_on_c, 5, 81, 76
11, 258599, Note_on_c, 5, 81, 0
11, 258600, Note_on_c, 5, 80, 76
11, 258629, Note_on_c, 5, 80, 0
11, 258630, Note_on_c, 5, 81, 76
11, 258659, Note_on_c, 5, 81, 0
11, 258660, Note_on_c, 5, 80, 76
11, 258689, Note_on_c, 5, 80, 0
11, 258690, Note_on_c, 5, 81, 76
11, 258719, Note_on_c, 5, 81, 0
11, 258720, Note_on_c, 5, 80, 76
11, 258749, Note_on_c, 5, 80, 0
11, 258750, Note_on_c, 5, 81, 76
11, 258779, Note_on_c, 5, 81, 0
11, 258780, Note_on_c, 5, 80, 76
11, 258809, Note_on_c, 5, 80, 0
11, 258810, Note_on_c, 5, 81, 76
11, 258839, Note_on_c, 5, 81, 0
11, 258840, Note_on_c, 5, 80, 76
11, 258869, Note_on_c, 5, 80, 0
11, 258870, Note_on_c, 5, 81, 76
11, 258899, Note_on_c, 5, 81, 0
11, 258900, Note_on_c, 5, 78, 76
11, 258929, Note_on_c, 5, 78, 0
11, 258930, Note_on_c, 5, 80, 76
11, 258959, Note_on_c, 5, 80, 0
11, 258960, Note_on_c, 5, 81, 76
11, 259079, Note_on_c, 5, 81, 0
11, 259080, Note_on_c, 5, 78, 76
11, 259199, Note_on_c, 5, 78, 0
11, 259200, Note_on_c, 5, 80, 76
11, 259319, Note_on_c, 5, 80, 0
11, 259320, Note_on_c, 5, 81, 76
11, 259439, Note_on_c, 5, 81, 0
11, 259440, Note_on_c, 5, 83, 76
11, 259539, Note_on_c, 5, 83, 0
11, 259560, Note_on_c, 5, 80, 76
11, 259659, Note_on_c, 5, 80, 0
11, 259680, Note_on_c, 5, 81, 76
11, 259799, Note_on_c, 5, 81, 0
11, 259800, Note_on_c, 5, 80, 76
11, 259919, Note_on_c, 5, 80, 0
11, 259920, Note_on_c, 5, 78, 76
11, 260019, Note_on_c, 5, 78, 0
11, 260040, Note_on_c, 5, 83, 76
11, 260379, Note_on_c, 5, 83, 0
11, 260400, Note_on_c, 5, 76, 76
11, 261219, Note_on_c, 5, 76, 0
11, 261240, Note_on_c, 5, 69, 76
11, 261359, Note_on_c, 5, 69, 0
11, 261360, Note_on_c, 5, 72, 76
11, 261459, Note_on_c, 5, 72, 0
11, 261480, Note_on_c, 5, 72, 76
11, 261599, Note_on_c, 5, 72, 0
11, 261600, Note_on_c, 5, 74, 76
11, 261699, Note_on_c, 5, 74, 0
11, 261720, Note_on_c, 5, 71, 76
11, 261819, Note_on_c, 5, 71, 0
11, 261840, Note_on_c, 5, 71, 76
11, 261959, Note_on_c, 5, 71, 0
11, 261960, Note_on_c, 5, 72, 76
11, 262059, Note_on_c, 5, 72, 0
11, 262080, Note_on_c, 5, 69, 76
11, 262179, Note_on_c, 5, 69, 0
11, 262200, Note_on_c, 5, 69, 76
11, 262319, Note_on_c, 5, 69, 0
11, 262320, Note_on_c, 5, 71, 76
11, 262439, Note_on_c, 5, 71, 0
11, 262440, Note_on_c, 5, 72, 76
11, 262559, Note_on_c, 5, 72, 0
11, 262560, Note_on_c, 5, 74, 76
11, 262679, Note_on_c, 5, 74, 0
11, 262680, Note_on_c, 5, 76, 76
11, 262779, Note_on_c, 5, 76, 0
11, 262800, Note_on_c, 5, 72, 76
11, 262899, Note_on_c, 5, 72, 0
11, 262920, Note_on_c, 5, 72, 76
11, 263039, Note_on_c, 5, 72, 0
11, 263040, Note_on_c, 5, 74, 76
11, 263139, Note_on_c, 5, 74, 0
11, 263160, Note_on_c, 5, 71, 76
11, 263259, Note_on_c, 5, 71, 0
11, 263280, Note_on_c, 5, 71, 76
11, 263619, Note_on_c, 5, 71, 0
11, 263640, Note_on_c, 5, 78, 76
11, 264614, Note_on_c, 5, 78, 0
11, 264630, Note_on_c, 5, 76, 76
11, 264704, Note_on_c, 5, 76, 0
11, 264720, Note_on_c, 5, 76, 76
11, 264839, Note_on_c, 5, 76, 0
11, 264840, Note_on_c, 5, 78, 76
11, 264939, Note_on_c, 5, 78, 0
11, 264960, Note_on_c, 5, 74, 76
11, 265059, Note_on_c, 5, 74, 0
11, 265080, Note_on_c, 5, 74, 76
11, 265199, Note_on_c, 5, 74, 0
11, 265200, Note_on_c, 5, 76, 76
11, 265299, Note_on_c, 5, 76, 0
11, 265320, Note_on_c, 5, 73, 76
11, 265419, Note_on_c, 5, 73, 0
11, 265440, Note_on_c, 5, 73, 76
11, 265559, Note_on_c, 5, 73, 0
11, 265560, Note_on_c, 5, 76, 76
11, 265659, Note_on_c, 5, 76, 0
11, 265680, Note_on_c, 5, 74, 76
11, 265779, Note_on_c, 5, 74, 0
11, 265800, Note_on_c, 5, 76, 76
11, 266054, Note_on_c, 5, 76, 0
11, 266070, Note_on_c, 5, 78, 76
11, 266144, Note_on_c, 5, 78, 0
11, 266160, Note_on_c, 5, 76, 76
11, 266414, Note_on_c, 5, 76, 0
11, 266430, Note_on_c, 5, 74, 76
11, 266504, Note_on_c, 5, 74, 0
11, 266520, Note_on_c, 5, 73, 76
11, 266639, Note_on_c, 5, 73, 0
11, 266880, Note_on_c, 5, 69, 76
11, 266999, Note_on_c, 5, 69, 0
11, 267240, Note_on_c, 5, 76, 76
11, 267359, Note_on_c, 5, 76, 0
11, 267600, Note_on_c, 5, 76, 76
11, 267719, Note_on_c, 5, 76, 0
11, 267960, Note_on_c, 5, 69, 76
11, 268079, Note_on_c, 5, 69, 0
11, 268320, Note_on_c, 5, 71, 76
11, 268439, Note_on_c, 5, 71, 0
11, 268680, Note_on_c, 5, 73, 76
11, 268799, Note_on_c, 5, 73, 0
11, 268800, Note_on_c, 5, 71, 76
11, 268899, Note_on_c, 5, 71, 0
11, 268920, Note_on_c, 5, 69, 76
11, 269019, Note_on_c, 5, 69, 0
11, 269040, Note_on_c, 5, 71, 76
11, 269294, Note_on_c, 5, 71, 0
11, 269310, Note_on_c, 5, 69, 76
11, 269384, Note_on_c, 5, 69, 0
11, 269400, Note_on_c, 5, 71, 76
11, 269654, Note_on_c, 5, 71, 0
11, 269670, Note_on_c, 5, 68, 76
11, 269744, Note_on_c, 5, 68, 0
11, 269760, Note_on_c, 5, 69, 76
11, 269879, Note_on_c, 5, 69, 0
11, 269880, Note_on_c, 5, 68, 76
11, 269999, Note_on_c, 5, 68, 0
11, 270000, Note_on_c, 5, 69, 76
11, 270099, Note_on_c, 5, 69, 0
11, 270120, Note_on_c, 5, 69, 76
11, 270374, Note_on_c, 5, 69, 0
11, 270390, Note_on_c, 5, 73, 76
11, 270464, Note_on_c, 5, 73, 0
11, 270480, Note_on_c, 5, 76, 76
11, 270734, Note_on_c, 5, 76, 0
11, 270750, Note_on_c, 5, 69, 76
11, 270824, Note_on_c, 5, 69, 0
11, 270840, Note_on_c, 5, 69, 76
11, 270959, Note_on_c, 5, 69, 0
11, 270960, Note_on_c, 5, 71, 76
11, 271079, Note_on_c, 5, 71, 0
11, 271080, Note_on_c, 5, 69, 76
11, 271179, Note_on_c, 5, 69, 0
11, 271200, Note_on_c, 5, 68, 76
11, 271319, Note_on_c, 5, 68, 0
11, 271320, Note_on_c, 5, 69, 76
11, 271419, Note_on_c, 5, 69, 0
11, 271440, Note_on_c, 5, 66, 76
11, 271539, Note_on_c, 5, 66, 0
11, 271560, Note_on_c, 5, 66, 76
11, 271679, Note_on_c, 5, 66, 0
11, 271680, Note_on_c, 5, 68, 76
11, 271779, Note_on_c, 5, 68, 0
11, 271800, Note_on_c, 5, 64, 76
11, 271899, Note_on_c, 5, 64, 0
11, 271920, Note_on_c, 5, 64, 76
11, 272174, Note_on_c, 5, 64, 0
11, 272190, Note_on_c, 5, 76, 76
11, 272264, Note_on_c, 5, 76, 0
11, 272280, Note_on_c, 5, 71, 76
11, 272534, Note_on_c, 5, 71, 0
11, 272550, Note_on_c, 5, 68, 76
11, 272624, Note_on_c, 5, 68, 0
11, 272640, Note_on_c, 5, 64, 76
11, 272894, Note_on_c, 5, 64, 0
11, 272910, Note_on_c, 5, 64, 76
11, 272984, Note_on_c, 5, 64, 0
11, 273000, Note_on_c, 5, 64, 76
11, 273119, Note_on_c, 5, 64, 0
11, 273120, Note_on_c, 5, 69, 76
11, 273239, Note_on_c, 5, 69, 0
11, 273240, Note_on_c, 5, 71, 76
11, 273339, Note_on_c, 5, 71, 0
11, 273360, Note_on_c, 5, 73, 76
11, 273479, Note_on_c, 5, 73, 0
11, 273480, Note_on_c, 5, 74, 76
11, 273579, Note_on_c, 5, 74, 0
11, 273600, Note_on_c, 5, 71, 76
11, 273699, Note_on_c, 5, 71, 0
11, 273720, Note_on_c, 5, 71, 76
11, 273839, Note_on_c, 5, 71, 0
11, 273840, Note_on_c, 5, 73, 76
11, 273939, Note_on_c, 5, 73, 0
11, 273960, Note_on_c, 5, 69, 76
11, 274059, Note_on_c, 5, 69, 0
11, 274080, Note_on_c, 5, 69, 76
11, 274334, Note_on_c, 5, 69, 0
11, 274350, Note_on_c, 5, 69, 76
11, 274424, Note_on_c, 5, 69, 0
11, 274440, Note_on_c, 5, 69, 76
11, 274694, Note_on_c, 5, 69, 0
11, 274710, Note_on_c, 5, 69, 76
11, 274784, Note_on_c, 5, 69, 0
11, 274800, Note_on_c, 5, 69, 76
11, 275054, Note_on_c, 5, 69, 0
11, 275070, Note_on_c, 5, 69, 76
11, 275144, Note_on_c, 5, 69, 0
11, 275160, Note_on_c, 5, 69, 76
11, 275279, Note_on_c, 5, 69, 0
11, 275280, Note_on_c, 5, 66, 76
11, 275399, Note_on_c, 5, 66, 0
11, 275400, Note_on_c, 5, 68, 76
11, 275519, Note_on_c, 5, 68, 0
11, 275520, Note_on_c, 5, 69, 76
11, 275639, Note_on_c, 5, 69, 0
11, 275640, Note_on_c, 5, 78, 76
11, 275739, Note_on_c, 5, 78, 0
11, 275760, Note_on_c, 5, 68, 76
11, 275859, Note_on_c, 5, 68, 0
11, 275880, Note_on_c, 5, 69, 76
11, 275999, Note_on_c, 5, 69, 0
11, 276000, Note_on_c, 5, 68, 76
11, 276119, Note_on_c, 5, 68, 0
11, 276120, Note_on_c, 5, 66, 76
11, 276219, Note_on_c, 5, 66, 0
11, 276240, Note_on_c, 5, 68, 76
11, 276359, Note_on_c, 5, 68, 0
11, 276360, Note_on_c, 5, 64, 76
11, 276479, Note_on_c, 5, 64, 0
11, 276480, Note_on_c, 5, 66, 76
11, 276599, Note_on_c, 5, 66, 0
11, 276600, Note_on_c, 5, 67, 76
11, 276719, Note_on_c, 5, 67, 0
11, 276720, Note_on_c, 5, 76, 76
11, 276819, Note_on_c, 5, 76, 0
11, 276840, Note_on_c, 5, 66, 76
11, 276939, Note_on_c, 5, 66, 0
11, 276960, Note_on_c, 5, 67, 76
11, 277079, Note_on_c, 5, 67, 0
11, 277080, Note_on_c, 5, 66, 76
11, 277199, Note_on_c, 5, 66, 0
11, 277200, Note_on_c, 5, 64, 76
11, 277299, Note_on_c, 5, 64, 0
11, 277320, Note_on_c, 5, 66, 76
11, 277574, Note_on_c, 5, 66, 0
11, 277590, Note_on_c, 5, 78, 76
11, 277664, Note_on_c, 5, 78, 0
11, 277680, Note_on_c, 5, 78, 76
11, 277799, Note_on_c, 5, 78, 0
11, 277800, Note_on_c, 5, 79, 76
11, 277899, Note_on_c, 5, 79, 0
11, 277920, Note_on_c, 5, 76, 76
11, 278019, Note_on_c, 5, 76, 0
11, 278040, Note_on_c, 5, 76, 76
11, 278159, Note_on_c, 5, 76, 0
11, 278160, Note_on_c, 5, 78, 76
11, 278259, Note_on_c, 5, 78, 0
11, 278280, Note_on_c, 5, 75, 76
11, 278379, Note_on_c, 5, 75, 0
11, 278400, Note_on_c, 5, 75, 76
11, 278519, Note_on_c, 5, 75, 0
11, 278520, Note_on_c, 5, 71, 76
11, 278639, Note_on_c, 5, 71, 0
11, 278640, Note_on_c, 5, 73, 76
11, 278759, Note_on_c, 5, 73, 0
11, 278760, Note_on_c, 5, 75, 76
11, 278879, Note_on_c, 5, 75, 0
11, 278880, Note_on_c, 5, 76, 76
11, 278979, Note_on_c, 5, 76, 0
11, 279000, Note_on_c, 5, 78, 76
11, 279099, Note_on_c, 5, 78, 0
11, 279120, Note_on_c, 5, 71, 76
11, 279374, Note_on_c, 5, 71, 0
11, 279390, Note_on_c, 5, 75, 76
11, 279464, Note_on_c, 5, 75, 0
11, 279480, Note_on_c, 5, 64, 76
11, 279599, Note_on_c, 5, 64, 0
11, 279600, Note_on_c, 5, 68, 76
11, 279719, Note_on_c, 5, 68, 0
11, 279720, Note_on_c, 5, 71, 76
11, 279819, Note_on_c, 5, 71, 0
11, 279840, Note_on_c, 5, 76, 76
11, 279959, Note_on_c, 5, 76, 0
11, 279960, Note_on_c, 5, 78, 76
11, 280059, Note_on_c, 5, 78, 0
11, 280080, Note_on_c, 5, 74, 76
11, 280179, Note_on_c, 5, 74, 0
11, 280200, Note_on_c, 5, 74, 76
11, 280319, Note_on_c, 5, 74, 0
11, 280320, Note_on_c, 5, 76, 76
11, 280419, Note_on_c, 5, 76, 0
11, 280440, Note_on_c, 5, 73, 76
11, 280539, Note_on_c, 5, 73, 0
11, 280560, Note_on_c, 5, 73, 76
11, 280679, Note_on_c, 5, 73, 0
11, 280680, Note_on_c, 5, 69, 76
11, 280799, Note_on_c, 5, 69, 0
11, 280800, Note_on_c, 5, 71, 76
11, 280919, Note_on_c, 5, 71, 0
11, 280920, Note_on_c, 5, 73, 76
11, 281039, Note_on_c, 5, 73, 0
11, 281040, Note_on_c, 5, 74, 76
11, 281139, Note_on_c, 5, 74, 0
11, 281160, Note_on_c, 5, 76, 76
11, 281259, Note_on_c, 5, 76, 0
11, 281280, Note_on_c, 5, 69, 76
11, 281534, Note_on_c, 5, 69, 0
11, 281550, Note_on_c, 5, 73, 76
11, 281624, Note_on_c, 5, 73, 0
11, 281640, Note_on_c, 5, 62, 76
11, 281759, Note_on_c, 5, 62, 0
11, 281760, Note_on_c, 5, 66, 76
11, 281879, Note_on_c, 5, 66, 0
11, 281880, Note_on_c, 5, 69, 76
11, 281979, Note_on_c, 5, 69, 0
11, 282000, Note_on_c, 5, 74, 76
11, 282119, Note_on_c, 5, 74, 0
11, 282120, Note_on_c, 5, 76, 76
11, 282219, Note_on_c, 5, 76, 0
11, 282240, Note_on_c, 5, 73, 76
11, 282339, Note_on_c, 5, 73, 0
11, 282360, Note_on_c, 5, 73, 76
11, 282479, Note_on_c, 5, 73, 0
11, 282480, Note_on_c, 5, 74, 76
11, 282579, Note_on_c, 5, 74, 0
11, 282600, Note_on_c, 5, 71, 76
11, 282699, Note_on_c, 5, 71, 0
11, 282720, Note_on_c, 5, 71, 76
11, 282839, Note_on_c, 5, 71, 0
11, 282840, Note_on_c, 5, 73, 76
11, 282959, Note_on_c, 5, 73, 0
11, 282960, Note_on_c, 5, 74, 76
11, 283059, Note_on_c, 5, 74, 0
11, 283080, Note_on_c, 5, 76, 76
11, 283199, Note_on_c, 5, 76, 0
11, 283200, Note_on_c, 5, 78, 76
11, 283299, Note_on_c, 5, 78, 0
11, 283320, Note_on_c, 5, 74, 76
11, 283419, Note_on_c, 5, 74, 0
11, 283440, Note_on_c, 5, 74, 76
11, 283559, Note_on_c, 5, 74, 0
11, 283560, Note_on_c, 5, 76, 76
11, 283659, Note_on_c, 5, 76, 0
11, 283680, Note_on_c, 5, 73, 76
11, 283779, Note_on_c, 5, 73, 0
11, 283800, Note_on_c, 5, 73, 76
11, 283919, Note_on_c, 5, 73, 0
11, 283920, Note_on_c, 5, 74, 76
11, 284039, Note_on_c, 5, 74, 0
11, 284040, Note_on_c, 5, 76, 76
11, 284139, Note_on_c, 5, 76, 0
11, 284160, Note_on_c, 5, 78, 76
11, 284279, Note_on_c, 5, 78, 0
11, 284280, Note_on_c, 5, 79, 76
11, 284379, Note_on_c, 5, 79, 0
11, 284400, Note_on_c, 5, 76, 76
11, 284499, Note_on_c, 5, 76, 0
11, 284520, Note_on_c, 5, 76, 76
11, 284639, Note_on_c, 5, 76, 0
11, 284640, Note_on_c, 5, 78, 76
11, 284739, Note_on_c, 5, 78, 0
11, 284760, Note_on_c, 5, 74, 76
11, 284859, Note_on_c, 5, 74, 0
11, 284880, Note_on_c, 5, 74, 76
11, 285134, Note_on_c, 5, 74, 0
11, 285150, Note_on_c, 5, 74, 76
11, 285224, Note_on_c, 5, 74, 0
11, 285240, Note_on_c, 5, 74, 76
11, 285494, Note_on_c, 5, 74, 0
11, 285510, Note_on_c, 5, 74, 76
11, 285584, Note_on_c, 5, 74, 0
11, 285600, Note_on_c, 5, 74, 76
11, 285854, Note_on_c, 5, 74, 0
11, 285870, Note_on_c, 5, 74, 76
11, 285944, Note_on_c, 5, 74, 0
11, 285960, Note_on_c, 5, 74, 76
11, 286079, Note_on_c, 5, 74, 0
11, 286080, Note_on_c, 5, 71, 76
11, 286199, Note_on_c, 5, 71, 0
11, 286200, Note_on_c, 5, 73, 76
11, 286319, Note_on_c, 5, 73, 0
11, 286320, Note_on_c, 5, 74, 76
11, 286439, Note_on_c, 5, 74, 0
11, 286440, Note_on_c, 5, 76, 76
11, 286539, Note_on_c, 5, 76, 0
11, 286560, Note_on_c, 5, 73, 76
11, 286659, Note_on_c, 5, 73, 0
11, 286680, Note_on_c, 5, 74, 76
11, 286799, Note_on_c, 5, 74, 0
11, 286800, Note_on_c, 5, 73, 76
11, 286919, Note_on_c, 5, 73, 0
11, 286920, Note_on_c, 5, 71, 76
11, 287019, Note_on_c, 5, 71, 0
11, 287040, Note_on_c, 5, 73, 76
11, 287159, Note_on_c, 5, 73, 0
11, 287160, Note_on_c, 5, 76, 76
11, 287259, Note_on_c, 5, 76, 0
11, 287280, Note_on_c, 5, 74, 76
11, 287379, Note_on_c, 5, 74, 0
11, 287400, Note_on_c, 5, 76, 76
11, 287654, Note_on_c, 5, 76, 0
11, 287670, Note_on_c, 5, 69, 76
11, 287744, Note_on_c, 5, 69, 0
11, 287760, Note_on_c, 5, 64, 76
11, 288014, Note_on_c, 5, 64, 0
11, 288030, Note_on_c, 5, 68, 76
11, 288104, Note_on_c, 5, 68, 0
11, 288120, Note_on_c, 5, 69, 76
11, 288479, Note_on_c, 5, 69, 0
11, 289470, Note_on_c, 5, 69, 76
11, 289544, Note_on_c, 5, 69, 0
11, 289560, Note_on_c, 5, 69, 76
11, 289679, Note_on_c, 5, 69, 0
11, 289680, Note_on_c, 5, 73, 76
11, 289779, Note_on_c, 5, 73, 0
11, 289800, Note_on_c, 5, 71, 76
11, 289899, Note_on_c, 5, 71, 0
11, 289920, Note_on_c, 5, 71, 76
11, 290039, Note_on_c, 5, 71, 0
11, 290040, Note_on_c, 5, 74, 76
11, 290139, Note_on_c, 5, 74, 0
11, 290160, Note_on_c, 5, 73, 76
11, 290259, Note_on_c, 5, 73, 0
11, 290280, Note_on_c, 5, 73, 76
11, 290399, Note_on_c, 5, 73, 0
11, 291630, Note_on_c, 5, 73, 76
11, 291704, Note_on_c, 5, 73, 0
11, 291720, Note_on_c, 5, 76, 76
11, 291974, Note_on_c, 5, 76, 0
11, 291990, Note_on_c, 5, 73, 76
11, 292064, Note_on_c, 5, 73, 0
11, 292080, Note_on_c, 5, 69, 76
11, 292334, Note_on_c, 5, 69, 0
11, 292350, Note_on_c, 5, 73, 76
11, 292424, Note_on_c, 5, 73, 0
11, 292440, Note_on_c, 5, 74, 76
11, 292694, Note_on_c, 5, 74, 0
11, 292710, Note_on_c, 5, 69, 76
11, 292784, Note_on_c, 5, 69, 0
11, 292800, Note_on_c, 5, 69, 76
11, 292919, Note_on_c, 5, 69, 0
11, 292920, Note_on_c, 5, 74, 76
11, 293019, Note_on_c, 5, 74, 0
11, 293040, Note_on_c, 5, 73, 76
11, 293139, Note_on_c, 5, 73, 0
11, 293160, Note_on_c, 5, 73, 76
11, 293279, Note_on_c, 5, 73, 0
11, 293280, Note_on_c, 5, 76, 76
11, 293379, Note_on_c, 5, 76, 0
11, 293400, Note_on_c, 5, 74, 76
11, 293499, Note_on_c, 5, 74, 0
11, 293520, Note_on_c, 5, 74, 76
11, 293639, Note_on_c, 5, 74, 0
11, 294870, Note_on_c, 5, 66, 76
11, 294944, Note_on_c, 5, 66, 0
11, 294960, Note_on_c, 5, 66, 76
11, 295079, Note_on_c, 5, 66, 0
11, 295080, Note_on_c, 5, 69, 76
11, 295179, Note_on_c, 5, 69, 0
11, 295200, Note_on_c, 5, 67, 76
11, 295299, Note_on_c, 5, 67, 0
11, 295320, Note_on_c, 5, 67, 76
11, 295439, Note_on_c, 5, 67, 0
11, 295440, Note_on_c, 5, 71, 76
11, 295539, Note_on_c, 5, 71, 0
11, 295560, Note_on_c, 5, 69, 76
11, 295659, Note_on_c, 5, 69, 0
11, 295680, Note_on_c, 5, 69, 76
11, 295934, Note_on_c, 5, 69, 0
11, 295950, Note_on_c, 5, 66, 76
11, 296024, Note_on_c, 5, 66, 0
11, 296040, Note_on_c, 5, 69, 76
11, 296294, Note_on_c, 5, 69, 0
11, 296310, Note_on_c, 5, 66, 76
11, 296384, Note_on_c, 5, 66, 0
11, 296400, Note_on_c, 5, 62, 76
11, 296654, Note_on_c, 5, 62, 0
11, 296670, Note_on_c, 5, 66, 76
11, 296744, Note_on_c, 5, 66, 0
11, 296760, Note_on_c, 5, 67, 76
11, 297014, Note_on_c, 5, 67, 0
11, 297030, Note_on_c, 5, 66, 76
11, 297104, Note_on_c, 5, 66, 0
11, 297120, Note_on_c, 5, 67, 76
11, 297374, Note_on_c, 5, 67, 0
11, 297390, Note_on_c, 5, 69, 76
11, 297464, Note_on_c, 5, 69, 0
11, 297480, Note_on_c, 5, 69, 76
11, 297599, Note_on_c, 5, 69, 0
11, 297600, Note_on_c, 5, 71, 76
11, 297699, Note_on_c, 5, 71, 0
11, 297720, Note_on_c, 5, 68, 76
11, 297819, Note_on_c, 5, 68, 0
11, 297840, Note_on_c, 5, 68, 76
11, 297959, Note_on_c, 5, 68, 0
11, 297960, Note_on_c, 5, 69, 76
11, 298079, Note_on_c, 5, 69, 0
11, 298080, Note_on_c, 5, 71, 76
11, 298179, Note_on_c, 5, 71, 0
11, 298200, Note_on_c, 5, 69, 76
11, 298454, Note_on_c, 5, 69, 0
11, 298470, Note_on_c, 5, 71, 76
11, 298544, Note_on_c, 5, 71, 0
11, 298560, Note_on_c, 5, 71, 76
11, 298679, Note_on_c, 5, 71, 0
11, 298680, Note_on_c, 5, 73, 76
11, 298779, Note_on_c, 5, 73, 0
11, 298800, Note_on_c, 5, 70, 76
11, 298899, Note_on_c, 5, 70, 0
11, 298920, Note_on_c, 5, 70, 76
11, 299039, Note_on_c, 5, 70, 0
11, 299040, Note_on_c, 5, 71, 76
11, 299159, Note_on_c, 5, 71, 0
11, 299160, Note_on_c, 5, 73, 76
11, 299259, Note_on_c, 5, 73, 0
11, 299280, Note_on_c, 5, 71, 76
11, 299534, Note_on_c, 5, 71, 0
11, 299550, Note_on_c, 5, 73, 76
11, 299624, Note_on_c, 5, 73, 0
11, 299640, Note_on_c, 5, 73, 76
11, 299759, Note_on_c, 5, 73, 0
11, 299760, Note_on_c, 5, 74, 76
11, 299859, Note_on_c, 5, 74, 0
11, 299880, Note_on_c, 5, 71, 76
11, 299979, Note_on_c, 5, 71, 0
11, 300000, Note_on_c, 5, 71, 76
11, 300119, Note_on_c, 5, 71, 0
11, 300120, Note_on_c, 5, 73, 76
11, 300239, Note_on_c, 5, 73, 0
11, 300240, Note_on_c, 5, 74, 76
11, 300339, Note_on_c, 5, 74, 0
11, 300360, Note_on_c, 5, 73, 76
11, 300614, Note_on_c, 5, 73, 0
11, 300630, Note_on_c, 5, 74, 76
11, 300704, Note_on_c, 5, 74, 0
11, 300720, Note_on_c, 5, 74, 76
11, 300839, Note_on_c, 5, 74, 0
11, 300840, Note_on_c, 5, 76, 76
11, 300939, Note_on_c, 5, 76, 0
11, 300960, Note_on_c, 5, 73, 76
11, 301059, Note_on_c, 5, 73, 0
11, 301080, Note_on_c, 5, 73, 76
11, 301199, Note_on_c, 5, 73, 0
11, 302430, Note_on_c, 5, 71, 76
11, 302504, Note_on_c, 5, 71, 0
11, 302520, Note_on_c, 5, 71, 76
11, 302639, Note_on_c, 5, 71, 0
11, 302640, Note_on_c, 5, 73, 76
11, 302739, Note_on_c, 5, 73, 0
11, 302760, Note_on_c, 5, 69, 76
11, 302859, Note_on_c, 5, 69, 0
11, 302880, Note_on_c, 5, 69, 76
11, 302999, Note_on_c, 5, 69, 0
11, 303000, Note_on_c, 5, 71, 76
11, 303099, Note_on_c, 5, 71, 0
11, 303120, Note_on_c, 5, 68, 76
11, 303219, Note_on_c, 5, 68, 0
11, 303240, Note_on_c, 5, 68, 76
11, 303359, Note_on_c, 5, 68, 0
11, 303360, Note_on_c, 5, 70, 76
11, 303479, Note_on_c, 5, 70, 0
11, 303480, Note_on_c, 5, 71, 76
11, 303599, Note_on_c, 5, 71, 0
11, 303600, Note_on_c, 5, 73, 76
11, 303719, Note_on_c, 5, 73, 0
11, 303720, Note_on_c, 5, 74, 76
11, 303819, Note_on_c, 5, 74, 0
11, 303840, Note_on_c, 5, 71, 76
11, 303939, Note_on_c, 5, 71, 0
11, 303960, Note_on_c, 5, 71, 76
11, 304079, Note_on_c, 5, 71, 0
11, 304080, Note_on_c, 5, 73, 76
11, 304179, Note_on_c, 5, 73, 0
11, 304200, Note_on_c, 5, 70, 76
11, 304299, Note_on_c, 5, 70, 0
11, 304320, Note_on_c, 5, 70, 76
11, 304439, Note_on_c, 5, 70, 0
11, 304440, Note_on_c, 5, 71, 76
11, 304559, Note_on_c, 5, 71, 0
11, 304560, Note_on_c, 5, 73, 76
11, 304659, Note_on_c, 5, 73, 0
11, 304680, Note_on_c, 5, 73, 76
11, 304949, Note_on_c, 5, 73, 0
11, 304950, Note_on_c, 5, 71, 76
11, 305024, Note_on_c, 5, 71, 0
11, 305040, Note_on_c, 5, 71, 76
11, 305309, Note_on_c, 5, 71, 0
11, 305310, Note_on_c, 5, 70, 76
11, 305384, Note_on_c, 5, 70, 0
11, 305400, Note_on_c, 5, 71, 76
11, 305519, Note_on_c, 5, 71, 0
11, 305760, Note_on_c, 5, 71, 76
11, 305879, Note_on_c, 5, 71, 0
11, 306120, Note_on_c, 5, 75, 76
11, 306239, Note_on_c, 5, 75, 0
11, 306480, Note_on_c, 5, 76, 76
11, 306599, Note_on_c, 5, 76, 0
11, 307110, Note_on_c, 5, 71, 76
11, 307184, Note_on_c, 5, 71, 0
11, 307200, Note_on_c, 5, 73, 76
11, 307454, Note_on_c, 5, 73, 0
11, 307470, Note_on_c, 5, 75, 76
11, 307544, Note_on_c, 5, 75, 0
11, 307560, Note_on_c, 5, 76, 76
11, 307814, Note_on_c, 5, 76, 0
11, 307830, Note_on_c, 5, 71, 76
11, 307904, Note_on_c, 5, 71, 0
11, 307920, Note_on_c, 5, 70, 76
11, 308174, Note_on_c, 5, 70, 0
11, 308190, Note_on_c, 5, 71, 76
11, 308264, Note_on_c, 5, 71, 0
11, 308280, Note_on_c, 5, 73, 76
11, 308534, Note_on_c, 5, 73, 0
11, 308550, Note_on_c, 5, 76, 76
11, 308624, Note_on_c, 5, 76, 0
11, 308640, Note_on_c, 5, 70, 76
11, 308759, Note_on_c, 5, 70, 0
11, 308760, Note_on_c, 5, 71, 76
11, 308879, Note_on_c, 5, 71, 0
11, 308880, Note_on_c, 5, 73, 76
11, 308979, Note_on_c, 5, 73, 0
11, 309000, Note_on_c, 5, 73, 76
11, 309119, Note_on_c, 5, 73, 0
11, 309120, Note_on_c, 5, 74, 76
11, 309219, Note_on_c, 5, 74, 0
11, 309240, Note_on_c, 5, 71, 76
11, 309339, Note_on_c, 5, 71, 0
11, 309360, Note_on_c, 5, 71, 76
11, 309479, Note_on_c, 5, 71, 0
11, 309480, Note_on_c, 5, 73, 76
11, 309579, Note_on_c, 5, 73, 0
11, 309600, Note_on_c, 5, 70, 76
11, 309699, Note_on_c, 5, 70, 0
11, 309720, Note_on_c, 5, 71, 76
11, 309974, Note_on_c, 5, 71, 0
11, 309990, Note_on_c, 5, 71, 76
11, 310064, Note_on_c, 5, 71, 0
11, 310080, Note_on_c, 5, 67, 76
11, 310199, Note_on_c, 5, 67, 0
11, 310200, Note_on_c, 5, 66, 76
11, 310319, Note_on_c, 5, 66, 0
11, 310320, Note_on_c, 5, 64, 76
11, 310419, Note_on_c, 5, 64, 0
11, 310440, Note_on_c, 5, 66, 76
11, 310694, Note_on_c, 5, 66, 0
11, 310710, Note_on_c, 5, 66, 76
11, 310784, Note_on_c, 5, 66, 0
11, 310800, Note_on_c, 5, 66, 76
11, 310919, Note_on_c, 5, 66, 0
11, 313320, Note_on_c, 5, 71, 76
11, 313439, Note_on_c, 5, 71, 0
11, 313680, Note_on_c, 5, 75, 76
11, 313799, Note_on_c, 5, 75, 0
11, 314310, Note_on_c, 5, 76, 76
11, 314384, Note_on_c, 5, 76, 0
11, 314400, Note_on_c, 5, 76, 76
11, 314519, Note_on_c, 5, 76, 0
11, 314520, Note_on_c, 5, 78, 76
11, 314619, Note_on_c, 5, 78, 0
11, 314640, Note_on_c, 5, 74, 76
11, 314739, Note_on_c, 5, 74, 0
11, 314760, Note_on_c, 5, 74, 76
11, 314879, Note_on_c, 5, 74, 0
11, 314880, Note_on_c, 5, 76, 76
11, 314979, Note_on_c, 5, 76, 0
11, 315000, Note_on_c, 5, 72, 76
11, 315099, Note_on_c, 5, 72, 0
11, 315120, Note_on_c, 5, 72, 76
11, 315374, Note_on_c, 5, 72, 0
11, 315390, Note_on_c, 5, 72, 76
11, 315464, Note_on_c, 5, 72, 0
11, 315480, Note_on_c, 5, 72, 76
11, 315734, Note_on_c, 5, 72, 0
11, 315750, Note_on_c, 5, 72, 76
11, 315824, Note_on_c, 5, 72, 0
11, 315840, Note_on_c, 5, 72, 76
11, 316094, Note_on_c, 5, 72, 0
11, 316110, Note_on_c, 5, 72, 76
11, 316184, Note_on_c, 5, 72, 0
11, 316200, Note_on_c, 5, 71, 76
11, 316559, Note_on_c, 5, 71, 0
11, 316920, Note_on_c, 5, 66, 76
11, 317399, Note_on_c, 5, 66, 0
11, 317400, Note_on_c, 5, 67, 76
11, 317519, Note_on_c, 5, 67, 0
11, 317520, Note_on_c, 5, 69, 76
11, 317619, Note_on_c, 5, 69, 0
11, 317640, Note_on_c, 5, 71, 76
11, 317759, Note_on_c, 5, 71, 0
11, 317760, Note_on_c, 5, 72, 76
11, 317859, Note_on_c, 5, 72, 0
11, 317880, Note_on_c, 5, 70, 76
11, 317979, Note_on_c, 5, 70, 0
11, 318000, Note_on_c, 5, 71, 76
11, 318119, Note_on_c, 5, 71, 0
11, 318120, Note_on_c, 5, 69, 76
11, 318239, Note_on_c, 5, 69, 0
11, 318240, Note_on_c, 5, 67, 76
11, 318339, Note_on_c, 5, 67, 0
11, 318360, Note_on_c, 5, 69, 76
11, 318719, Note_on_c, 5, 69, 0
11, 319080, Note_on_c, 5, 62, 76
11, 319559, Note_on_c, 5, 62, 0
11, 319560, Note_on_c, 5, 64, 76
11, 319679, Note_on_c, 5, 64, 0
11, 319680, Note_on_c, 5, 66, 76
11, 319799, Note_on_c, 5, 66, 0
11, 319800, Note_on_c, 5, 67, 76
11, 319919, Note_on_c, 5, 67, 0
11, 319920, Note_on_c, 5, 69, 76
11, 320019, Note_on_c, 5, 69, 0
11, 320040, Note_on_c, 5, 66, 76
11, 320139, Note_on_c, 5, 66, 0
11, 320160, Note_on_c, 5, 67, 76
11, 320279, Note_on_c, 5, 67, 0
11, 320280, Note_on_c, 5, 66, 76
11, 320399, Note_on_c, 5, 66, 0
11, 320400, Note_on_c, 5, 64, 76
11, 320499, Note_on_c, 5, 64, 0
11, 320520, Note_on_c, 5, 66, 76
11, 320774, Note_on_c, 5, 66, 0
11, 320790, Note_on_c, 5, 62, 76
11, 320864, Note_on_c, 5, 62, 0
11, 320880, Note_on_c, 5, 62, 76
11, 321134, Note_on_c, 5, 62, 0
11, 321150, Note_on_c, 5, 62, 76
11, 321224, Note_on_c, 5, 62, 0
11, 321240, Note_on_c, 5, 62, 76
11, 321494, Note_on_c, 5, 62, 0
11, 321510, Note_on_c, 5, 62, 76
11, 321584, Note_on_c, 5, 62, 0
11, 321600, Note_on_c, 5, 62, 76
11, 321719, Note_on_c, 5, 62, 0
11, 321960, Note_on_c, 5, 71, 76
11, 322079, Note_on_c, 5, 71, 0
11, 322320, Note_on_c, 5, 67, 76
11, 322439, Note_on_c, 5, 67, 0
11, 322680, Note_on_c, 5, 67, 76
11, 322799, Note_on_c, 5, 67, 0
11, 323040, Note_on_c, 5, 66, 76
11, 323159, Note_on_c, 5, 66, 0
11, 323400, Note_on_c, 5, 67, 76
11, 323519, Note_on_c, 5, 67, 0
11, 323760, Note_on_c, 5, 69, 76
11, 323879, Note_on_c, 5, 69, 0
11, 323880, Note_on_c, 5, 67, 76
11, 323999, Note_on_c, 5, 67, 0
11, 324000, Note_on_c, 5, 69, 76
11, 324099, Note_on_c, 5, 69, 0
11, 324120, Note_on_c, 5, 69, 76
11, 324374, Note_on_c, 5, 69, 0
11, 324390, Note_on_c, 5, 67, 76
11, 324464, Note_on_c, 5, 67, 0
11, 324480, Note_on_c, 5, 67, 76
11, 324734, Note_on_c, 5, 67, 0
11, 324750, Note_on_c, 5, 66, 76
11, 324824, Note_on_c, 5, 66, 0
11, 324840, Note_on_c, 5, 67, 76
11, 324959, Note_on_c, 5, 67, 0
11, 325200, Note_on_c, 5, 74, 76
11, 325319, Note_on_c, 5, 74, 0
11, 325560, Note_on_c, 5, 74, 76
11, 325679, Note_on_c, 5, 74, 0
11, 325920, Note_on_c, 5, 74, 76
11, 326039, Note_on_c, 5, 74, 0
11, 326550, Note_on_c, 5, 67, 76
11, 326624, Note_on_c, 5, 67, 0
11, 326640, Note_on_c, 5, 69, 76
11, 326894, Note_on_c, 5, 69, 0
11, 326910, Note_on_c, 5, 71, 76
11, 326984, Note_on_c, 5, 71, 0
11, 327000, Note_on_c, 5, 72, 76
11, 327254, Note_on_c, 5, 72, 0
11, 327270, Note_on_c, 5, 67, 76
11, 327344, Note_on_c, 5, 67, 0
11, 327360, Note_on_c, 5, 66, 76
11, 327389, Note_on_c, 5, 66, 0
11, 327390, Note_on_c, 5, 67, 76
11, 327419, Note_on_c, 5, 67, 0
11, 327420, Note_on_c, 5, 66, 76
11, 327449, Note_on_c, 5, 66, 0
11, 327450, Note_on_c, 5, 67, 76
11, 327479, Note_on_c, 5, 67, 0
11, 327480, Note_on_c, 5, 66, 76
11, 327509, Note_on_c, 5, 66, 0
11, 327510, Note_on_c, 5, 67, 76
11, 327539, Note_on_c, 5, 67, 0
11, 327540, Note_on_c, 5, 64, 76
11, 327569, Note_on_c, 5, 64, 0
11, 327570, Note_on_c, 5, 66, 76
11, 327599, Note_on_c, 5, 66, 0
11, 327630, Note_on_c, 5, 67, 76
11, 327704, Note_on_c, 5, 67, 0
11, 327720, Note_on_c, 5, 69, 76
11, 327974, Note_on_c, 5, 69, 0
11, 327990, Note_on_c, 5, 72, 76
11, 328064, Note_on_c, 5, 72, 0
11, 328080, Note_on_c, 5, 66, 76
11, 328199, Note_on_c, 5, 66, 0
11, 328200, Note_on_c, 5, 67, 76
11, 328319, Note_on_c, 5, 67, 0
11, 328320, Note_on_c, 5, 69, 76
11, 328419, Note_on_c, 5, 69, 0
11, 328440, Note_on_c, 5, 69, 76
11, 328559, Note_on_c, 5, 69, 0
11, 328560, Note_on_c, 5, 71, 76
11, 328659, Note_on_c, 5, 71, 0
11, 328680, Note_on_c, 5, 67, 76
11, 328779, Note_on_c, 5, 67, 0
11, 328800, Note_on_c, 5, 67, 76
11, 328919, Note_on_c, 5, 67, 0
11, 328920, Note_on_c, 5, 69, 76
11, 329019, Note_on_c, 5, 69, 0
11, 329040, Note_on_c, 5, 66, 76
11, 329139, Note_on_c, 5, 66, 0
11, 329160, Note_on_c, 5, 67, 76
11, 329414, Note_on_c, 5, 67, 0
11, 329430, Note_on_c, 5, 72, 76
11, 329504, Note_on_c, 5, 72, 0
11, 329520, Note_on_c, 5, 71, 76
11, 329639, Note_on_c, 5, 71, 0
11, 329640, Note_on_c, 5, 72, 76
11, 329739, Note_on_c, 5, 72, 0
11, 329760, Note_on_c, 5, 69, 76
11, 329859, Note_on_c, 5, 69, 0
11, 329880, Note_on_c, 5, 69, 76
11, 329909, Note_on_c, 5, 69, 0
11, 329910, Note_on_c, 5, 71, 76
11, 329939, Note_on_c, 5, 71, 0
11, 329940, Note_on_c, 5, 69, 76
11, 329969, Note_on_c, 5, 69, 0
11, 329970, Note_on_c, 5, 71, 76
11, 329999, Note_on_c, 5, 71, 0
11, 330000, Note_on_c, 5, 69, 76
11, 330029, Note_on_c, 5, 69, 0
11, 330030, Note_on_c, 5, 71, 76
11, 330059, Note_on_c, 5, 71, 0
11, 330060, Note_on_c, 5, 67, 76
11, 330089, Note_on_c, 5, 67, 0
11, 330090, Note_on_c, 5, 69, 76
11, 330119, Note_on_c, 5, 69, 0
11, 330150, Note_on_c, 5, 71, 76
11, 330224, Note_on_c, 5, 71, 0
11, 330240, Note_on_c, 5, 71, 76
11, 330359, Note_on_c, 5, 71, 0
11, 330600, Note_on_c, 5, 67, 76
11, 330719, Note_on_c, 5, 67, 0
11, 330960, Note_on_c, 5, 74, 76
11, 331079, Note_on_c, 5, 74, 0
11, 331320, Note_on_c, 5, 74, 76
11, 331439, Note_on_c, 5, 74, 0
11, 331680, Note_on_c, 5, 67, 76
11, 331799, Note_on_c, 5, 67, 0
11, 332040, Note_on_c, 5, 69, 76
11, 332159, Note_on_c, 5, 69, 0
11, 332400, Note_on_c, 5, 71, 76
11, 332519, Note_on_c, 5, 71, 0
11, 354270, Note_on_c, 5, 74, 76
11, 354344, Note_on_c, 5, 74, 0
11, 354360, Note_on_c, 5, 74, 76
11, 354614, Note_on_c, 5, 74, 0
11, 354630, Note_on_c, 5, 66, 76
11, 354704, Note_on_c, 5, 66, 0
11, 354720, Note_on_c, 5, 69, 76
11, 354974, Note_on_c, 5, 69, 0
11, 354990, Note_on_c, 5, 74, 76
11, 355064, Note_on_c, 5, 74, 0
11, 355080, Note_on_c, 5, 74, 76
11, 355199, Note_on_c, 5, 74, 0
11, 355200, Note_on_c, 5, 76, 76
11, 355319, Note_on_c, 5, 76, 0
11, 355320, Note_on_c, 5, 74, 76
11, 355419, Note_on_c, 5, 74, 0
11, 355440, Note_on_c, 5, 73, 76
11, 355559, Note_on_c, 5, 73, 0
11, 355560, Note_on_c, 5, 74, 76
11, 355659, Note_on_c, 5, 74, 0
11, 355680, Note_on_c, 5, 71, 76
11, 355779, Note_on_c, 5, 71, 0
11, 355800, Note_on_c, 5, 71, 76
11, 355919, Note_on_c, 5, 71, 0
11, 355920, Note_on_c, 5, 73, 76
11, 356019, Note_on_c, 5, 73, 0
11, 356040, Note_on_c, 5, 69, 76
11, 356139, Note_on_c, 5, 69, 0
11, 356160, Note_on_c, 5, 69, 76
11, 356414, Note_on_c, 5, 69, 0
11, 356430, Note_on_c, 5, 81, 76
11, 356504, Note_on_c, 5, 81, 0
11, 356520, Note_on_c, 5, 76, 76
11, 356774, Note_on_c, 5, 76, 0
11, 356790, Note_on_c, 5, 73, 76
11, 356864, Note_on_c, 5, 73, 0
11, 356880, Note_on_c, 5, 69, 76
11, 357134, Note_on_c, 5, 69, 0
11, 357150, Note_on_c, 5, 69, 76
11, 357224, Note_on_c, 5, 69, 0
11, 357240, Note_on_c, 5, 69, 76
11, 357359, Note_on_c, 5, 69, 0
11, 357360, Note_on_c, 5, 71, 76
11, 357479, Note_on_c, 5, 71, 0
11, 357480, Note_on_c, 5, 73, 76
11, 357579, Note_on_c, 5, 73, 0
11, 357600, Note_on_c, 5, 74, 76
11, 357854, Note_on_c, 5, 74, 0
11, 357870, Note_on_c, 5, 76, 76
11, 357944, Note_on_c, 5, 76, 0
11, 357960, Note_on_c, 5, 73, 76
11, 358214, Note_on_c, 5, 73, 0
11, 358230, Note_on_c, 5, 69, 76
11, 358304, Note_on_c, 5, 69, 0
11, 358320, Note_on_c, 5, 69, 76
11, 358439, Note_on_c, 5, 69, 0
11, 358440, Note_on_c, 5, 71, 76
11, 358559, Note_on_c, 5, 71, 0
11, 358560, Note_on_c, 5, 69, 76
11, 358659, Note_on_c, 5, 69, 0
11, 358680, Note_on_c, 5, 68, 76
11, 358799, Note_on_c, 5, 68, 0
11, 358800, Note_on_c, 5, 69, 76
11, 358899, Note_on_c, 5, 69, 0
11, 358920, Note_on_c, 5, 66, 76
11, 359019, Note_on_c, 5, 66, 0
11, 359040, Note_on_c, 5, 66, 76
11, 359159, Note_on_c, 5, 66, 0
11, 359160, Note_on_c, 5, 68, 76
11, 359259, Note_on_c, 5, 68, 0
11, 359280, Note_on_c, 5, 64, 76
11, 359379, Note_on_c, 5, 64, 0
11, 359400, Note_on_c, 5, 64, 76
11, 359759, Note_on_c, 5, 64, 0
11, 360030, Note_on_c, 5, 76, 76
11, 360104, Note_on_c, 5, 76, 0
11, 360120, Note_on_c, 5, 71, 76
11, 360374, Note_on_c, 5, 71, 0
11, 360390, Note_on_c, 5, 71, 76
11, 360464, Note_on_c, 5, 71, 0
11, 360480, Note_on_c, 5, 69, 76
11, 360839, Note_on_c, 5, 69, 0
11, 361110, Note_on_c, 5, 74, 76
11, 361184, Note_on_c, 5, 74, 0
11, 361200, Note_on_c, 5, 69, 76
11, 361454, Note_on_c, 5, 69, 0
11, 361470, Note_on_c, 5, 69, 76
11, 361544, Note_on_c, 5, 69, 0
11, 361560, Note_on_c, 5, 67, 76
11, 361679, Note_on_c, 5, 67, 0
11, 361920, Note_on_c, 5, 73, 76
11, 362039, Note_on_c, 5, 73, 0
11, 362280, Note_on_c, 5, 75, 76
11, 362399, Note_on_c, 5, 75, 0
11, 362640, Note_on_c, 5, 76, 76
11, 362894, Note_on_c, 5, 76, 0
11, 362910, Note_on_c, 5, 76, 76
11, 362984, Note_on_c, 5, 76, 0
11, 363000, Note_on_c, 5, 76, 76
11, 363119, Note_on_c, 5, 76, 0
11, 363120, Note_on_c, 5, 78, 76
11, 363219, Note_on_c, 5, 78, 0
11, 363240, Note_on_c, 5, 74, 76
11, 363339, Note_on_c, 5, 74, 0
11, 363360, Note_on_c, 5, 74, 76
11, 363479, Note_on_c, 5, 74, 0
11, 363480, Note_on_c, 5, 76, 76
11, 363579, Note_on_c, 5, 76, 0
11, 363600, Note_on_c, 5, 73, 76
11, 363699, Note_on_c, 5, 73, 0
11, 363720, Note_on_c, 5, 73, 76
11, 363839, Note_on_c, 5, 73, 0
11, 363840, Note_on_c, 5, 69, 76
11, 363959, Note_on_c, 5, 69, 0
11, 363960, Note_on_c, 5, 71, 76
11, 364079, Note_on_c, 5, 71, 0
11, 364080, Note_on_c, 5, 73, 76
11, 364199, Note_on_c, 5, 73, 0
11, 364200, Note_on_c, 5, 74, 76
11, 364299, Note_on_c, 5, 74, 0
11, 364320, Note_on_c, 5, 76, 76
11, 364419, Note_on_c, 5, 76, 0
11, 364440, Note_on_c, 5, 69, 76
11, 364694, Note_on_c, 5, 69, 0
11, 364710, Note_on_c, 5, 73, 76
11, 364784, Note_on_c, 5, 73, 0
11, 364800, Note_on_c, 5, 62, 76
11, 364919, Note_on_c, 5, 62, 0
11, 364920, Note_on_c, 5, 66, 76
11, 365039, Note_on_c, 5, 66, 0
11, 365040, Note_on_c, 5, 69, 76
11, 365139, Note_on_c, 5, 69, 0
11, 365160, Note_on_c, 5, 74, 76
11, 365279, Note_on_c, 5, 74, 0
11, 365280, Note_on_c, 5, 76, 76
11, 365379, Note_on_c, 5, 76, 0
11, 365400, Note_on_c, 5, 72, 76
11, 365499, Note_on_c, 5, 72, 0
11, 365520, Note_on_c, 5, 72, 76
11, 365639, Note_on_c, 5, 72, 0
11, 365640, Note_on_c, 5, 74, 76
11, 365739, Note_on_c, 5, 74, 0
11, 365760, Note_on_c, 5, 71, 76
11, 365859, Note_on_c, 5, 71, 0
11, 365880, Note_on_c, 5, 71, 76
11, 365999, Note_on_c, 5, 71, 0
11, 366000, Note_on_c, 5, 67, 76
11, 366119, Note_on_c, 5, 67, 0
11, 366120, Note_on_c, 5, 71, 76
11, 366219, Note_on_c, 5, 71, 0
11, 366240, Note_on_c, 5, 76, 76
11, 366359, Note_on_c, 5, 76, 0
11, 366360, Note_on_c, 5, 78, 76
11, 366459, Note_on_c, 5, 78, 0
11, 366480, Note_on_c, 5, 74, 76
11, 366579, Note_on_c, 5, 74, 0
11, 366600, Note_on_c, 5, 74, 76
11, 366719, Note_on_c, 5, 74, 0
11, 366720, Note_on_c, 5, 76, 76
11, 366819, Note_on_c, 5, 76, 0
11, 366840, Note_on_c, 5, 73, 76
11, 366939, Note_on_c, 5, 73, 0
11, 366960, Note_on_c, 5, 73, 76
11, 367079, Note_on_c, 5, 73, 0
11, 367080, Note_on_c, 5, 74, 76
11, 367199, Note_on_c, 5, 74, 0
11, 367200, Note_on_c, 5, 76, 76
11, 367299, Note_on_c, 5, 76, 0
11, 367320, Note_on_c, 5, 78, 76
11, 367439, Note_on_c, 5, 78, 0
11, 367440, Note_on_c, 5, 79, 76
11, 367539, Note_on_c, 5, 79, 0
11, 367560, Note_on_c, 5, 76, 76
11, 367659, Note_on_c, 5, 76, 0
11, 367680, Note_on_c, 5, 76, 76
11, 367799, Note_on_c, 5, 76, 0
11, 367800, Note_on_c, 5, 78, 76
11, 367899, Note_on_c, 5, 78, 0
11, 367920, Note_on_c, 5, 74, 76
11, 368019, Note_on_c, 5, 74, 0
11, 368040, Note_on_c, 5, 74, 76
11, 368159, Note_on_c, 5, 74, 0
11, 368670, Note_on_c, 5, 73, 76
11, 368744, Note_on_c, 5, 73, 0
11, 368760, Note_on_c, 5, 73, 76
11, 369014, Note_on_c, 5, 73, 0
11, 369030, Note_on_c, 5, 75, 76
11, 369104, Note_on_c, 5, 75, 0
11, 369120, Note_on_c, 5, 76, 76
11, 369374, Note_on_c, 5, 76, 0
11, 369390, Note_on_c, 5, 76, 76
11, 369464, Note_on_c, 5, 76, 0
11, 369480, Note_on_c, 5, 76, 76
11, 369734, Note_on_c, 5, 76, 0
11, 369750, Note_on_c, 5, 76, 76
11, 369824, Note_on_c, 5, 76, 0
11, 369840, Note_on_c, 5, 76, 76
11, 370094, Note_on_c, 5, 76, 0
11, 370110, Note_on_c, 5, 76, 76
11, 370184, Note_on_c, 5, 76, 0
11, 370200, Note_on_c, 5, 76, 76
11, 370319, Note_on_c, 5, 76, 0
11, 370320, Note_on_c, 5, 73, 76
11, 370419, Note_on_c, 5, 73, 0
11, 370440, Note_on_c, 5, 74, 76
11, 370539, Note_on_c, 5, 74, 0
11, 370560, Note_on_c, 5, 76, 76
11, 370679, Note_on_c, 5, 76, 0
11, 370680, Note_on_c, 5, 73, 76
11, 370779, Note_on_c, 5, 73, 0
11, 370800, Note_on_c, 5, 74, 76
11, 370899, Note_on_c, 5, 74, 0
11, 370920, Note_on_c, 5, 76, 76
11, 371039, Note_on_c, 5, 76, 0
11, 371040, Note_on_c, 5, 74, 76
11, 371139, Note_on_c, 5, 74, 0
11, 371160, Note_on_c, 5, 73, 76
11, 371259, Note_on_c, 5, 73, 0
11, 371280, Note_on_c, 5, 74, 76
11, 371534, Note_on_c, 5, 74, 0
11, 371550, Note_on_c, 5, 73, 76
11, 371624, Note_on_c, 5, 73, 0
11, 371640, Note_on_c, 5, 74, 76
11, 371894, Note_on_c, 5, 74, 0
11, 371910, Note_on_c, 5, 71, 76
11, 371984, Note_on_c, 5, 71, 0
11, 372000, Note_on_c, 5, 69, 76
11, 372254, Note_on_c, 5, 69, 0
11, 372270, Note_on_c, 5, 69, 76
11, 372344, Note_on_c, 5, 69, 0
11, 372360, Note_on_c, 5, 69, 76
11, 372479, Note_on_c, 5, 69, 0
11, 372720, Note_on_c, 5, 74, 76
11, 372839, Note_on_c, 5, 74, 0
11, 373080, Note_on_c, 5, 76, 76
11, 373199, Note_on_c, 5, 76, 0
11, 373440, Note_on_c, 5, 81, 76
11, 373559, Note_on_c, 5, 81, 0
11, 373800, Note_on_c, 5, 74, 76
11, 373919, Note_on_c, 5, 74, 0
11, 374160, Note_on_c, 5, 76, 76
11, 374279, Note_on_c, 5, 76, 0
11, 374520, Note_on_c, 5, 69, 76
11, 374693, Note_on_c, 5, 69, 0
11, 374700, Note_on_c, 5, 78, 76
11, 374753, Note_on_c, 5, 78, 0
11, 374760, Note_on_c, 5, 78, 76
11, 374933, Note_on_c, 5, 78, 0
11, 374940, Note_on_c, 5, 74, 76
11, 374993, Note_on_c, 5, 74, 0
11, 375000, Note_on_c, 5, 69, 76
11, 375479, Note_on_c, 5, 69, 0
11, 375660, Note_on_c, 5, 81, 76
11, 375713, Note_on_c, 5, 81, 0
11, 375720, Note_on_c, 5, 81, 76
11, 375893, Note_on_c, 5, 81, 0
11, 375900, Note_on_c, 5, 78, 76
11, 375953, Note_on_c, 5, 78, 0
11, 375960, Note_on_c, 5, 74, 76
11, 376439, Note_on_c, 5, 74, 0
11, 376620, Note_on_c, 5, 72, 76
11, 376673, Note_on_c, 5, 72, 0
11, 376680, Note_on_c, 5, 72, 76
11, 376853, Note_on_c, 5, 72, 0
11, 376860, Note_on_c, 5, 69, 76
11, 376913, Note_on_c, 5, 69, 0
11, 376920, Note_on_c, 5, 78, 76
11, 377159, Note_on_c, 5, 78, 0
11, 377280, Note_on_c, 5, 78, 76
11, 377389, Note_on_c, 5, 78, 0
11, 377400, Note_on_c, 5, 76, 76
11, 377509, Note_on_c, 5, 76, 0
11, 377520, Note_on_c, 5, 64, 76
11, 377573, Note_on_c, 5, 64, 0
11, 377580, Note_on_c, 5, 66, 76
11, 377633, Note_on_c, 5, 66, 0
11, 377640, Note_on_c, 5, 67, 76
11, 377693, Note_on_c, 5, 67, 0
11, 377700, Note_on_c, 5, 69, 76
11, 377753, Note_on_c, 5, 69, 0
11, 377760, Note_on_c, 5, 71, 76
11, 377813, Note_on_c, 5, 71, 0
11, 377820, Note_on_c, 5, 73, 76
11, 377873, Note_on_c, 5, 73, 0
11, 377880, Note_on_c, 5, 74, 76
11, 377933, Note_on_c, 5, 74, 0
11, 377940, Note_on_c, 5, 73, 76
11, 377993, Note_on_c, 5, 73, 0
11, 378000, Note_on_c, 5, 71, 76
11, 378053, Note_on_c, 5, 71, 0
11, 378060, Note_on_c, 5, 73, 76
11, 378113, Note_on_c, 5, 73, 0
11, 378120, Note_on_c, 5, 74, 76
11, 378173, Note_on_c, 5, 74, 0
11, 378180, Note_on_c, 5, 71, 76
11, 378233, Note_on_c, 5, 71, 0
11, 378240, Note_on_c, 5, 76, 76
11, 378293, Note_on_c, 5, 76, 0
11, 378300, Note_on_c, 5, 71, 76
11, 378353, Note_on_c, 5, 71, 0
11, 378360, Note_on_c, 5, 73, 76
11, 379319, Note_on_c, 5, 73, 0
11, 379500, Note_on_c, 5, 69, 76
11, 379553, Note_on_c, 5, 69, 0
11, 379560, Note_on_c, 5, 69, 76
11, 379733, Note_on_c, 5, 69, 0
11, 379740, Note_on_c, 5, 74, 76
11, 379793, Note_on_c, 5, 74, 0
11, 379800, Note_on_c, 5, 78, 76
11, 380279, Note_on_c, 5, 78, 0
11, 380460, Note_on_c, 5, 78, 76
11, 380513, Note_on_c, 5, 78, 0
11, 380520, Note_on_c, 5, 78, 76
11, 380693, Note_on_c, 5, 78, 0
11, 380700, Note_on_c, 5, 75, 76
11, 380753, Note_on_c, 5, 75, 0
11, 380760, Note_on_c, 5, 76, 76
11, 381239, Note_on_c, 5, 76, 0
11, 381420, Note_on_c, 5, 76, 76
11, 381473, Note_on_c, 5, 76, 0
11, 381480, Note_on_c, 5, 76, 76
11, 381653, Note_on_c, 5, 76, 0
11, 381660, Note_on_c, 5, 73, 76
11, 381713, Note_on_c, 5, 73, 0
11, 381720, Note_on_c, 5, 69, 76
11, 381959, Note_on_c, 5, 69, 0
11, 382080, Note_on_c, 5, 74, 76
11, 382189, Note_on_c, 5, 74, 0
11, 382200, Note_on_c, 5, 76, 76
11, 382549, Note_on_c, 5, 76, 0
11, 382560, Note_on_c, 5, 76, 76
11, 382669, Note_on_c, 5, 76, 0
11, 382680, Note_on_c, 5, 76, 76
11, 382909, Note_on_c, 5, 76, 0
11, 382920, Note_on_c, 5, 73, 76
11, 383149, Note_on_c, 5, 73, 0
11, 383160, Note_on_c, 5, 69, 76
11, 383639, Note_on_c, 5, 69, 0
11, 383820, Note_on_c, 5, 71, 76
11, 383873, Note_on_c, 5, 71, 0
11, 383880, Note_on_c, 5, 71, 76
11, 384053, Note_on_c, 5, 71, 0
11, 384060, Note_on_c, 5, 67, 76
11, 384113, Note_on_c, 5, 67, 0
11, 384120, Note_on_c, 5, 64, 76
11, 384469, Note_on_c, 5, 64, 0
11, 384480, Note_on_c, 5, 64, 76
11, 384589, Note_on_c, 5, 64, 0
11, 384600, Note_on_c, 5, 66, 76
11, 384829, Note_on_c, 5, 66, 0
11, 384840, Note_on_c, 5, 70, 76
11, 385069, Note_on_c, 5, 70, 0
11, 385080, Note_on_c, 5, 71, 76
11, 385253, Note_on_c, 5, 71, 0
11, 385260, Note_on_c, 5, 66, 76
11, 385313, Note_on_c, 5, 66, 0
11, 385320, Note_on_c, 5, 66, 76
11, 385493, Note_on_c, 5, 66, 0
11, 385500, Note_on_c, 5, 62, 76
11, 385553, Note_on_c, 5, 62, 0
11, 385560, Note_on_c, 5, 62, 76
11, 386039, Note_on_c, 5, 62, 0
11, 386220, Note_on_c, 5, 67, 76
11, 386273, Note_on_c, 5, 67, 0
11, 386280, Note_on_c, 5, 66, 76
11, 386453, Note_on_c, 5, 66, 0
11, 386460, Note_on_c, 5, 64, 76
11, 386513, Note_on_c, 5, 64, 0
11, 386520, Note_on_c, 5, 62, 76
11, 386693, Note_on_c, 5, 62, 0
11, 386700, Note_on_c, 5, 62, 76
11, 386753, Note_on_c, 5, 62, 0
11, 386760, Note_on_c, 5, 64, 76
11, 386933, Note_on_c, 5, 64, 0
11, 386940, Note_on_c, 5, 66, 76
11, 386993, Note_on_c, 5, 66, 0
11, 387000, Note_on_c, 5, 64, 76
11, 387479, Note_on_c, 5, 64, 0
11, 387660, Note_on_c, 5, 73, 76
11, 387713, Note_on_c, 5, 73, 0
11, 387720, Note_on_c, 5, 73, 76
11, 387893, Note_on_c, 5, 73, 0
11, 387900, Note_on_c, 5, 69, 76
11, 387953, Note_on_c, 5, 69, 0
11, 387960, Note_on_c, 5, 66, 76
11, 388439, Note_on_c, 5, 66, 0
11, 388620, Note_on_c, 5, 74, 76
11, 388673, Note_on_c, 5, 74, 0
11, 388680, Note_on_c, 5, 74, 76
11, 388853, Note_on_c, 5, 74, 0
11, 388860, Note_on_c, 5, 69, 76
11, 388913, Note_on_c, 5, 69, 0
11, 388920, Note_on_c, 5, 70, 76
11, 389399, Note_on_c, 5, 70, 0
11, 389580, Note_on_c, 5, 76, 76
11, 389633, Note_on_c, 5, 76, 0
11, 389640, Note_on_c, 5, 76, 76
11, 389813, Note_on_c, 5, 76, 0
11, 389820, Note_on_c, 5, 73, 76
11, 389873, Note_on_c, 5, 73, 0
11, 389880, Note_on_c, 5, 69, 76
11, 390119, Note_on_c, 5, 69, 0
11, 390300, Note_on_c, 5, 69, 76
11, 390353, Note_on_c, 5, 69, 0
11, 390360, Note_on_c, 5, 67, 76
11, 390599, Note_on_c, 5, 67, 0
11, 390780, Note_on_c, 5, 67, 76
11, 390833, Note_on_c, 5, 67, 0
11, 390840, Note_on_c, 5, 65, 76
11, 391319, Note_on_c, 5, 65, 0
11, 391500, Note_on_c, 5, 69, 76
11, 391553, Note_on_c, 5, 69, 0
11, 391560, Note_on_c, 5, 62, 76
11, 391733, Note_on_c, 5, 62, 0
11, 391740, Note_on_c, 5, 66, 76
11, 391793, Note_on_c, 5, 66, 0
11, 391800, Note_on_c, 5, 66, 76
11, 391973, Note_on_c, 5, 66, 0
11, 391980, Note_on_c, 5, 69, 76
11, 392033, Note_on_c, 5, 69, 0
11, 392040, Note_on_c, 5, 67, 76
11, 392213, Note_on_c, 5, 67, 0
11, 392220, Note_on_c, 5, 64, 76
11, 392273, Note_on_c, 5, 64, 0
11, 392280, Note_on_c, 5, 66, 76
11, 392453, Note_on_c, 5, 66, 0
11, 392460, Note_on_c, 5, 62, 76
11, 392513, Note_on_c, 5, 62, 0
11, 392520, Note_on_c, 5, 64, 76
11, 392693, Note_on_c, 5, 64, 0
11, 392700, Note_on_c, 5, 71, 76
11, 392753, Note_on_c, 5, 71, 0
11, 392760, Note_on_c, 5, 76, 76
11, 392933, Note_on_c, 5, 76, 0
11, 392940, Note_on_c, 5, 73, 76
11, 392993, Note_on_c, 5, 73, 0
11, 393000, Note_on_c, 5, 74, 76
11, 393173, Note_on_c, 5, 74, 0
11, 393180, Note_on_c, 5, 71, 76
11, 393233, Note_on_c, 5, 71, 0
11, 393240, Note_on_c, 5, 69, 76
11, 393469, Note_on_c, 5, 69, 0
11, 393480, Note_on_c, 5, 69, 76
11, 393709, Note_on_c, 5, 69, 0
11, 393720, Note_on_c, 5, 69, 76
11, 394679, Note_on_c, 5, 69, 0
11, 394679, End_track
12, 0, Start_track
12, 0, Title_t, "Oboe III"
12, 0, MIDI_port, 0
12, 0, Program_c, 6, 68
12, 0, Control_c, 6, 10, 69
12, 0, Control_c, 6, 11, 127
12, 0, Control_c, 6, 7, 80
12, 420, Note_on_c, 6, 69, 76
12, 473, Note_on_c, 6, 69, 0
12, 480, Note_on_c, 6, 69, 76
12, 653, Note_on_c, 6, 69, 0
12, 660, Note_on_c, 6, 66, 76
12, 713, Note_on_c, 6, 66, 0
12, 720, Note_on_c, 6, 62, 76
12, 1199, Note_on_c, 6, 62, 0
12, 1380, Note_on_c, 6, 66, 76
12, 1433, Note_on_c, 6, 66, 0
12, 1440, Note_on_c, 6, 66, 76
12, 1613, Note_on_c, 6, 66, 0
12, 1620, Note_on_c, 6, 62, 76
12, 1673, Note_on_c, 6, 62, 0
12, 1680, Note_on_c, 6, 62, 76
12, 2159, Note_on_c, 6, 62, 0
12, 2340, Note_on_c, 6, 69, 76
12, 2393, Note_on_c, 6, 69, 0
12, 2400, Note_on_c, 6, 69, 76
12, 2573, Note_on_c, 6, 69, 0
12, 2580, Note_on_c, 6, 73, 76
12, 2633, Note_on_c, 6, 73, 0
12, 2640, Note_on_c, 6, 74, 76
12, 2879, Note_on_c, 6, 74, 0
12, 3060, Note_on_c, 6, 69, 76
12, 3113, Note_on_c, 6, 69, 0
12, 3120, Note_on_c, 6, 71, 76
12, 3469, Note_on_c, 6, 71, 0
12, 3480, Note_on_c, 6, 71, 76
12, 3589, Note_on_c, 6, 71, 0
12, 3600, Note_on_c, 6, 69, 76
12, 3829, Note_on_c, 6, 69, 0
12, 3840, Note_on_c, 6, 69, 76
12, 4069, Note_on_c, 6, 69, 0
12, 4080, Note_on_c, 6, 69, 76
12, 4309, Note_on_c, 6, 69, 0
12, 4320, Note_on_c, 6, 66, 76
12, 4559, Note_on_c, 6, 66, 0
12, 4740, Note_on_c, 6, 74, 76
12, 4793, Note_on_c, 6, 74, 0
12, 4800, Note_on_c, 6, 74, 76
12, 4973, Note_on_c, 6, 74, 0
12, 4980, Note_on_c, 6, 66, 76
12, 5033, Note_on_c, 6, 66, 0
12, 5040, Note_on_c, 6, 66, 76
12, 5389, Note_on_c, 6, 66, 0
12, 5400, Note_on_c, 6, 66, 76
12, 5509, Note_on_c, 6, 66, 0
12, 5520, Note_on_c, 6, 71, 76
12, 5693, Note_on_c, 6, 71, 0
12, 5700, Note_on_c, 6, 66, 76
12, 5753, Note_on_c, 6, 66, 0
12, 5760, Note_on_c, 6, 63, 76
12, 5933, Note_on_c, 6, 63, 0
12, 5940, Note_on_c, 6, 71, 76
12, 5993, Note_on_c, 6, 71, 0
12, 6000, Note_on_c, 6, 71, 76
12, 6173, Note_on_c, 6, 71, 0
12, 6180, Note_on_c, 6, 71, 76
12, 6233, Note_on_c, 6, 71, 0
12, 6240, Note_on_c, 6, 71, 76
12, 6413, Note_on_c, 6, 71, 0
12, 6420, Note_on_c, 6, 67, 76
12, 6473, Note_on_c, 6, 67, 0
12, 6480, Note_on_c, 6, 64, 76
12, 6719, Note_on_c, 6, 64, 0
12, 6900, Note_on_c, 6, 69, 76
12, 6953, Note_on_c, 6, 69, 0
12, 6960, Note_on_c, 6, 62, 76
12, 7309, Note_on_c, 6, 62, 0
12, 7320, Note_on_c, 6, 64, 76
12, 7429, Note_on_c, 6, 64, 0
12, 7440, Note_on_c, 6, 62, 76
12, 7613, Note_on_c, 6, 62, 0
12, 7620, Note_on_c, 6, 67, 76
12, 7673, Note_on_c, 6, 67, 0
12, 7680, Note_on_c, 6, 66, 76
12, 7853, Note_on_c, 6, 66, 0
12, 7860, Note_on_c, 6, 64, 76
12, 7913, Note_on_c, 6, 64, 0
12, 7920, Note_on_c, 6, 64, 76
12, 8093, Note_on_c, 6, 64, 0
12, 8100, Note_on_c, 6, 69, 76
12, 8153, Note_on_c, 6, 69, 0
12, 8160, Note_on_c, 6, 69, 76
12, 8333, Note_on_c, 6, 69, 0
12, 8340, Note_on_c, 6, 73, 76
12, 8393, Note_on_c, 6, 73, 0
12, 8400, Note_on_c, 6, 73, 76
12, 8573, Note_on_c, 6, 73, 0
12, 8580, Note_on_c, 6, 71, 76
12, 8633, Note_on_c, 6, 71, 0
12, 8640, Note_on_c, 6, 73, 76
12, 8813, Note_on_c, 6, 73, 0
12, 8820, Note_on_c, 6, 76, 76
12, 8873, Note_on_c, 6, 76, 0
12, 8880, Note_on_c, 6, 73, 76
12, 9359, Note_on_c, 6, 73, 0
12, 9540, Note_on_c, 6, 69, 76
12, 9593, Note_on_c, 6, 69, 0
12, 9600, Note_on_c, 6, 69, 76
12, 9773, Note_on_c, 6, 69, 0
12, 9780, Note_on_c, 6, 66, 76
12, 9833, Note_on_c, 6, 66, 0
12, 9840, Note_on_c, 6, 64, 76
12, 10319, Note_on_c, 6, 64, 0
12, 10500, Note_on_c, 6, 64, 76
12, 10553, Note_on_c, 6, 64, 0
12, 10560, Note_on_c, 6, 69, 76
12, 10733, Note_on_c, 6, 69, 0
12, 10740, Note_on_c, 6, 66, 76
12, 10793, Note_on_c, 6, 66, 0
12, 10800, Note_on_c, 6, 66, 76
12, 11149, Note_on_c, 6, 66, 0
12, 11160, Note_on_c, 6, 66, 76
12, 11269, Note_on_c, 6, 66, 0
12, 11280, Note_on_c, 6, 64, 76
12, 11509, Note_on_c, 6, 64, 0
12, 11520, Note_on_c, 6, 64, 76
12, 11749, Note_on_c, 6, 64, 0
12, 11760, Note_on_c, 6, 64, 76
12, 11933, Note_on_c, 6, 64, 0
12, 11940, Note_on_c, 6, 73, 76
12, 11993, Note_on_c, 6, 73, 0
12, 12000, Note_on_c, 6, 73, 76
12, 12173, Note_on_c, 6, 73, 0
12, 12180, Note_on_c, 6, 69, 76
12, 12233, Note_on_c, 6, 69, 0
12, 12240, Note_on_c, 6, 66, 76
12, 12719, Note_on_c, 6, 66, 0
12, 12900, Note_on_c, 6, 71, 76
12, 12953, Note_on_c, 6, 71, 0
12, 12960, Note_on_c, 6, 71, 76
12, 13133, Note_on_c, 6, 71, 0
12, 13140, Note_on_c, 6, 74, 76
12, 13193, Note_on_c, 6, 74, 0
12, 13200, Note_on_c, 6, 68, 76
12, 13429, Note_on_c, 6, 68, 0
12, 13440, Note_on_c, 6, 73, 76
12, 13669, Note_on_c, 6, 73, 0
12, 13680, Note_on_c, 6, 73, 76
12, 14159, Note_on_c, 6, 73, 0
12, 14340, Note_on_c, 6, 69, 76
12, 14393, Note_on_c, 6, 69, 0
12, 14400, Note_on_c, 6, 66, 76
12, 14573, Note_on_c, 6, 66, 0
12, 14580, Note_on_c, 6, 66, 76
12, 14633, Note_on_c, 6, 66, 0
12, 14640, Note_on_c, 6, 64, 76
12, 14989, Note_on_c, 6, 64, 0
12, 15000, Note_on_c, 6, 62, 76
12, 15109, Note_on_c, 6, 62, 0
12, 15120, Note_on_c, 6, 69, 76
12, 15293, Note_on_c, 6, 69, 0
12, 15300, Note_on_c, 6, 62, 76
12, 15353, Note_on_c, 6, 62, 0
12, 15360, Note_on_c, 6, 62, 76
12, 15533, Note_on_c, 6, 62, 0
12, 15540, Note_on_c, 6, 64, 76
12, 15593, Note_on_c, 6, 64, 0
12, 15600, Note_on_c, 6, 64, 76
12, 15773, Note_on_c, 6, 64, 0
12, 15780, Note_on_c, 6, 68, 76
12, 15833, Note_on_c, 6, 68, 0
12, 15840, Note_on_c, 6, 68, 76
12, 16013, Note_on_c, 6, 68, 0
12, 16020, Note_on_c, 6, 64, 76
12, 16073, Note_on_c, 6, 64, 0
12, 16080, Note_on_c, 6, 64, 76
12, 16559, Note_on_c, 6, 64, 0
12, 16740, Note_on_c, 6, 64, 76
12, 16793, Note_on_c, 6, 64, 0
12, 16800, Note_on_c, 6, 69, 76
12, 16973, Note_on_c, 6, 69, 0
12, 16980, Note_on_c, 6, 64, 76
12, 17033, Note_on_c, 6, 64, 0
12, 17040, Note_on_c, 6, 73, 76
12, 17519, Note_on_c, 6, 73, 0
12, 17700, Note_on_c, 6, 74, 76
12, 17753, Note_on_c, 6, 74, 0
12, 17760, Note_on_c, 6, 68, 76
12, 17933, Note_on_c, 6, 68, 0
12, 17940, Note_on_c, 6, 71, 76
12, 17993, Note_on_c, 6, 71, 0
12, 18000, Note_on_c, 6, 74, 76
12, 18479, Note_on_c, 6, 74, 0
12, 18660, Note_on_c, 6, 68, 76
12, 18713, Note_on_c, 6, 68, 0
12, 18720, Note_on_c, 6, 69, 76
12, 18959, Note_on_c, 6, 69, 0
12, 19140, Note_on_c, 6, 66, 76
12, 19193, Note_on_c, 6, 66, 0
12, 19200, Note_on_c, 6, 68, 76
12, 19439, Note_on_c, 6, 68, 0
12, 19620, Note_on_c, 6, 64, 76
12, 19673, Note_on_c, 6, 64, 0
12, 19680, Note_on_c, 6, 64, 76
12, 19853, Note_on_c, 6, 64, 0
12, 19860, Note_on_c, 6, 69, 76
12, 19913, Note_on_c, 6, 69, 0
12, 19920, Note_on_c, 6, 73, 76
12, 20573, Note_on_c, 6, 73, 0
12, 20580, Note_on_c, 6, 69, 76
12, 20633, Note_on_c, 6, 69, 0
12, 20640, Note_on_c, 6, 69, 76
12, 20813, Note_on_c, 6, 69, 0
12, 20820, Note_on_c, 6, 68, 76
12, 20873, Note_on_c, 6, 68, 0
12, 20880, Note_on_c, 6, 66, 76
12, 21229, Note_on_c, 6, 66, 0
12, 21240, Note_on_c, 6, 62, 76
12, 21349, Note_on_c, 6, 62, 0
12, 21360, Note_on_c, 6, 64, 76
12, 21533, Note_on_c, 6, 64, 0
12, 21540, Note_on_c, 6, 64, 76
12, 21593, Note_on_c, 6, 64, 0
12, 21600, Note_on_c, 6, 64, 76
12, 21773, Note_on_c, 6, 64, 0
12, 21780, Note_on_c, 6, 66, 76
12, 21833, Note_on_c, 6, 66, 0
12, 21840, Note_on_c, 6, 64, 76
12, 22069, Note_on_c, 6, 64, 0
12, 22080, Note_on_c, 6, 64, 76
12, 22309, Note_on_c, 6, 64, 0
12, 22320, Note_on_c, 6, 64, 76
12, 23039, Note_on_c, 6, 64, 0
12, 23460, Note_on_c, 6, 69, 76
12, 23513, Note_on_c, 6, 69, 0
12, 23520, Note_on_c, 6, 69, 76
12, 23693, Note_on_c, 6, 69, 0
12, 23700, Note_on_c, 6, 66, 76
12, 23753, Note_on_c, 6, 66, 0
12, 23760, Note_on_c, 6, 62, 76
12, 24239, Note_on_c, 6, 62, 0
12, 24420, Note_on_c, 6, 66, 76
12, 24473, Note_on_c, 6, 66, 0
12, 24480, Note_on_c, 6, 66, 76
12, 24653, Note_on_c, 6, 66, 0
12, 24660, Note_on_c, 6, 62, 76
12, 24713, Note_on_c, 6, 62, 0
12, 24720, Note_on_c, 6, 62, 76
12, 25199, Note_on_c, 6, 62, 0
12, 25380, Note_on_c, 6, 69, 76
12, 25433, Note_on_c, 6, 69, 0
12, 25440, Note_on_c, 6, 69, 76
12, 25613, Note_on_c, 6, 69, 0
12, 25620, Note_on_c, 6, 73, 76
12, 25673, Note_on_c, 6, 73, 0
12, 25680, Note_on_c, 6, 74, 76
12, 25919, Note_on_c, 6, 74, 0
12, 26100, Note_on_c, 6, 69, 76
12, 26153, Note_on_c, 6, 69, 0
12, 26160, Note_on_c, 6, 71, 76
12, 26509, Note_on_c, 6, 71, 0
12, 26520, Note_on_c, 6, 71, 76
12, 26629, Note_on_c, 6, 71, 0
12, 26640, Note_on_c, 6, 69, 76
12, 26869, Note_on_c, 6, 69, 0
12, 26880, Note_on_c, 6, 69, 76
12, 27109, Note_on_c, 6, 69, 0
12, 27120, Note_on_c, 6, 69, 76
12, 27349, Note_on_c, 6, 69, 0
12, 27360, Note_on_c, 6, 66, 76
12, 27599, Note_on_c, 6, 66, 0
12, 27780, Note_on_c, 6, 74, 76
12, 27833, Note_on_c, 6, 74, 0
12, 27840, Note_on_c, 6, 74, 76
12, 28013, Note_on_c, 6, 74, 0
12, 28020, Note_on_c, 6, 66, 76
12, 28073, Note_on_c, 6, 66, 0
12, 28080, Note_on_c, 6, 66, 76
12, 28429, Note_on_c, 6, 66, 0
12, 28440, Note_on_c, 6, 66, 76
12, 28549, Note_on_c, 6, 66, 0
12, 28560, Note_on_c, 6, 71, 76
12, 28733, Note_on_c, 6, 71, 0
12, 28740, Note_on_c, 6, 66, 76
12, 28793, Note_on_c, 6, 66, 0
12, 28800, Note_on_c, 6, 63, 76
12, 28973, Note_on_c, 6, 63, 0
12, 28980, Note_on_c, 6, 71, 76
12, 29033, Note_on_c, 6, 71, 0
12, 29040, Note_on_c, 6, 71, 76
12, 29213, Note_on_c, 6, 71, 0
12, 29220, Note_on_c, 6, 71, 76
12, 29273, Note_on_c, 6, 71, 0
12, 29280, Note_on_c, 6, 71, 76
12, 29453, Note_on_c, 6, 71, 0
12, 29460, Note_on_c, 6, 67, 76
12, 29513, Note_on_c, 6, 67, 0
12, 29520, Note_on_c, 6, 64, 76
12, 29759, Note_on_c, 6, 64, 0
12, 29940, Note_on_c, 6, 69, 76
12, 29993, Note_on_c, 6, 69, 0
12, 30000, Note_on_c, 6, 62, 76
12, 30349, Note_on_c, 6, 62, 0
12, 30360, Note_on_c, 6, 64, 76
12, 30469, Note_on_c, 6, 64, 0
12, 30480, Note_on_c, 6, 62, 76
12, 30653, Note_on_c, 6, 62, 0
12, 30660, Note_on_c, 6, 67, 76
12, 30713, Note_on_c, 6, 67, 0
12, 30720, Note_on_c, 6, 66, 76
12, 30893, Note_on_c, 6, 66, 0
12, 30900, Note_on_c, 6, 64, 76
12, 30953, Note_on_c, 6, 64, 0
12, 30960, Note_on_c, 6, 64, 76
12, 31133, Note_on_c, 6, 64, 0
12, 31140, Note_on_c, 6, 69, 76
12, 31193, Note_on_c, 6, 69, 0
12, 31200, Note_on_c, 6, 69, 76
12, 31373, Note_on_c, 6, 69, 0
12, 31380, Note_on_c, 6, 73, 76
12, 31433, Note_on_c, 6, 73, 0
12, 31440, Note_on_c, 6, 73, 76
12, 31613, Note_on_c, 6, 73, 0
12, 31620, Note_on_c, 6, 71, 76
12, 31673, Note_on_c, 6, 71, 0
12, 31680, Note_on_c, 6, 73, 76
12, 31853, Note_on_c, 6, 73, 0
12, 31860, Note_on_c, 6, 76, 76
12, 31913, Note_on_c, 6, 76, 0
12, 31920, Note_on_c, 6, 73, 76
12, 32399, Note_on_c, 6, 73, 0
12, 32580, Note_on_c, 6, 69, 76
12, 32633, Note_on_c, 6, 69, 0
12, 32640, Note_on_c, 6, 69, 76
12, 32813, Note_on_c, 6, 69, 0
12, 32820, Note_on_c, 6, 66, 76
12, 32873, Note_on_c, 6, 66, 0
12, 32880, Note_on_c, 6, 64, 76
12, 33359, Note_on_c, 6, 64, 0
12, 33540, Note_on_c, 6, 64, 76
12, 33593, Note_on_c, 6, 64, 0
12, 33600, Note_on_c, 6, 69, 76
12, 33773, Note_on_c, 6, 69, 0
12, 33780, Note_on_c, 6, 66, 76
12, 33833, Note_on_c, 6, 66, 0
12, 33840, Note_on_c, 6, 66, 76
12, 34189, Note_on_c, 6, 66, 0
12, 34200, Note_on_c, 6, 66, 76
12, 34309, Note_on_c, 6, 66, 0
12, 34320, Note_on_c, 6, 64, 76
12, 34549, Note_on_c, 6, 64, 0
12, 34560, Note_on_c, 6, 64, 76
12, 34789, Note_on_c, 6, 64, 0
12, 34800, Note_on_c, 6, 64, 76
12, 34973, Note_on_c, 6, 64, 0
12, 34980, Note_on_c, 6, 73, 76
12, 35033, Note_on_c, 6, 73, 0
12, 35040, Note_on_c, 6, 73, 76
12, 35213, Note_on_c, 6, 73, 0
12, 35220, Note_on_c, 6, 69, 76
12, 35273, Note_on_c, 6, 69, 0
12, 35280, Note_on_c, 6, 66, 76
12, 35759, Note_on_c, 6, 66, 0
12, 35940, Note_on_c, 6, 71, 76
12, 35993, Note_on_c, 6, 71, 0
12, 36000, Note_on_c, 6, 71, 76
12, 36173, Note_on_c, 6, 71, 0
12, 36180, Note_on_c, 6, 74, 76
12, 36233, Note_on_c, 6, 74, 0
12, 36240, Note_on_c, 6, 68, 76
12, 36469, Note_on_c, 6, 68, 0
12, 36480, Note_on_c, 6, 73, 76
12, 36709, Note_on_c, 6, 73, 0
12, 36720, Note_on_c, 6, 73, 76
12, 37199, Note_on_c, 6, 73, 0
12, 37380, Note_on_c, 6, 69, 76
12, 37433, Note_on_c, 6, 69, 0
12, 37440, Note_on_c, 6, 66, 76
12, 37613, Note_on_c, 6, 66, 0
12, 37620, Note_on_c, 6, 66, 76
12, 37673, Note_on_c, 6, 66, 0
12, 37680, Note_on_c, 6, 64, 76
12, 38029, Note_on_c, 6, 64, 0
12, 38040, Note_on_c, 6, 62, 76
12, 38149, Note_on_c, 6, 62, 0
12, 38160, Note_on_c, 6, 69, 76
12, 38333, Note_on_c, 6, 69, 0
12, 38340, Note_on_c, 6, 62, 76
12, 38393, Note_on_c, 6, 62, 0
12, 38400, Note_on_c, 6, 62, 76
12, 38573, Note_on_c, 6, 62, 0
12, 38580, Note_on_c, 6, 64, 76
12, 38633, Note_on_c, 6, 64, 0
12, 38640, Note_on_c, 6, 64, 76
12, 38813, Note_on_c, 6, 64, 0
12, 38820, Note_on_c, 6, 68, 76
12, 38873, Note_on_c, 6, 68, 0
12, 38880, Note_on_c, 6, 68, 76
12, 39053, Note_on_c, 6, 68, 0
12, 39060, Note_on_c, 6, 64, 76
12, 39113, Note_on_c, 6, 64, 0
12, 39120, Note_on_c, 6, 64, 76
12, 39599, Note_on_c, 6, 64, 0
12, 39780, Note_on_c, 6, 64, 76
12, 39833, Note_on_c, 6, 64, 0
12, 39840, Note_on_c, 6, 69, 76
12, 40013, Note_on_c, 6, 69, 0
12, 40020, Note_on_c, 6, 64, 76
12, 40073, Note_on_c, 6, 64, 0
12, 40080, Note_on_c, 6, 73, 76
12, 40559, Note_on_c, 6, 73, 0
12, 40740, Note_on_c, 6, 74, 76
12, 40793, Note_on_c, 6, 74, 0
12, 40800, Note_on_c, 6, 68, 76
12, 40973, Note_on_c, 6, 68, 0
12, 40980, Note_on_c, 6, 71, 76
12, 41033, Note_on_c, 6, 71, 0
12, 41040, Note_on_c, 6, 74, 76
12, 41519, Note_on_c, 6, 74, 0
12, 41700, Note_on_c, 6, 68, 76
12, 41753, Note_on_c, 6, 68, 0
12, 41760, Note_on_c, 6, 69, 76
12, 41999, Note_on_c, 6, 69, 0
12, 42180, Note_on_c, 6, 66, 76
12, 42233, Note_on_c, 6, 66, 0
12, 42240, Note_on_c, 6, 68, 76
12, 42479, Note_on_c, 6, 68, 0
12, 42660, Note_on_c, 6, 64, 76
12, 42713, Note_on_c, 6, 64, 0
12, 42720, Note_on_c, 6, 64, 76
12, 42893, Note_on_c, 6, 64, 0
12, 42900, Note_on_c, 6, 69, 76
12, 42953, Note_on_c, 6, 69, 0
12, 42960, Note_on_c, 6, 73, 76
12, 43613, Note_on_c, 6, 73, 0
12, 43620, Note_on_c, 6, 69, 76
12, 43673, Note_on_c, 6, 69, 0
12, 43680, Note_on_c, 6, 69, 76
12, 43853, Note_on_c, 6, 69, 0
12, 43860, Note_on_c, 6, 68, 76
12, 43913, Note_on_c, 6, 68, 0
12, 43920, Note_on_c, 6, 66, 76
12, 44269, Note_on_c, 6, 66, 0
12, 44280, Note_on_c, 6, 62, 76
12, 44389, Note_on_c, 6, 62, 0
12, 44400, Note_on_c, 6, 64, 76
12, 44573, Note_on_c, 6, 64, 0
12, 44580, Note_on_c, 6, 64, 76
12, 44633, Note_on_c, 6, 64, 0
12, 44640, Note_on_c, 6, 64, 76
12, 44813, Note_on_c, 6, 64, 0
12, 44820, Note_on_c, 6, 66, 76
12, 44873, Note_on_c, 6, 66, 0
12, 44880, Note_on_c, 6, 64, 76
12, 45109, Note_on_c, 6, 64, 0
12, 45120, Note_on_c, 6, 64, 76
12, 45349, Note_on_c, 6, 64, 0
12, 45360, Note_on_c, 6, 64, 76
12, 45599, Note_on_c, 6, 64, 0
12, 46680, Note_on_c, 6, 69, 76
12, 46779, Note_on_c, 6, 69, 0
12, 46800, Note_on_c, 6, 69, 76
12, 46919, Note_on_c, 6, 69, 0
12, 46920, Note_on_c, 6, 71, 76
12, 47019, Note_on_c, 6, 71, 0
12, 47040, Note_on_c, 6, 67, 76
12, 47139, Note_on_c, 6, 67, 0
12, 47160, Note_on_c, 6, 67, 76
12, 47279, Note_on_c, 6, 67, 0
12, 47280, Note_on_c, 6, 69, 76
12, 47379, Note_on_c, 6, 69, 0
12, 47400, Note_on_c, 6, 66, 76
12, 47499, Note_on_c, 6, 66, 0
12, 47520, Note_on_c, 6, 66, 76
12, 47639, Note_on_c, 6, 66, 0
12, 47640, Note_on_c, 6, 67, 76
12, 47759, Note_on_c, 6, 67, 0
12, 47760, Note_on_c, 6, 69, 76
12, 47859, Note_on_c, 6, 69, 0
12, 47880, Note_on_c, 6, 71, 76
12, 47999, Note_on_c, 6, 71, 0
12, 48000, Note_on_c, 6, 73, 76
12, 48099, Note_on_c, 6, 73, 0
12, 48120, Note_on_c, 6, 69, 76
12, 48219, Note_on_c, 6, 69, 0
12, 48240, Note_on_c, 6, 69, 76
12, 48359, Note_on_c, 6, 69, 0
12, 48360, Note_on_c, 6, 71, 76
12, 48459, Note_on_c, 6, 71, 0
12, 48480, Note_on_c, 6, 68, 76
12, 48579, Note_on_c, 6, 68, 0
12, 48600, Note_on_c, 6, 68, 76
12, 48854, Note_on_c, 6, 68, 0
12, 48870, Note_on_c, 6, 68, 76
12, 48944, Note_on_c, 6, 68, 0
12, 48960, Note_on_c, 6, 68, 76
12, 49214, Note_on_c, 6, 68, 0
12, 49230, Note_on_c, 6, 68, 76
12, 49304, Note_on_c, 6, 68, 0
12, 49320, Note_on_c, 6, 68, 76
12, 49574, Note_on_c, 6, 68, 0
12, 49590, Note_on_c, 6, 68, 76
12, 49664, Note_on_c, 6, 68, 0
12, 49680, Note_on_c, 6, 69, 76
12, 49799, Note_on_c, 6, 69, 0
12, 49800, Note_on_c, 6, 73, 76
12, 49919, Note_on_c, 6, 73, 0
12, 49920, Note_on_c, 6, 71, 76
12, 50019, Note_on_c, 6, 71, 0
12, 50040, Note_on_c, 6, 73, 76
12, 50294, Note_on_c, 6, 73, 0
12, 50310, Note_on_c, 6, 71, 76
12, 50384, Note_on_c, 6, 71, 0
12, 50400, Note_on_c, 6, 73, 76
12, 50654, Note_on_c, 6, 73, 0
12, 50670, Note_on_c, 6, 69, 76
12, 50744, Note_on_c, 6, 69, 0
12, 50760, Note_on_c, 6, 62, 76
12, 50879, Note_on_c, 6, 62, 0
12, 50880, Note_on_c, 6, 64, 76
12, 50999, Note_on_c, 6, 64, 0
12, 51000, Note_on_c, 6, 66, 76
12, 51099, Note_on_c, 6, 66, 0
12, 51120, Note_on_c, 6, 66, 76
12, 51374, Note_on_c, 6, 66, 0
12, 51390, Note_on_c, 6, 69, 76
12, 51464, Note_on_c, 6, 69, 0
12, 51480, Note_on_c, 6, 66, 76
12, 51734, Note_on_c, 6, 66, 0
12, 51750, Note_on_c, 6, 62, 76
12, 51824, Note_on_c, 6, 62, 0
12, 51840, Note_on_c, 6, 67, 76
12, 52094, Note_on_c, 6, 67, 0
12, 52110, Note_on_c, 6, 71, 76
12, 52184, Note_on_c, 6, 71, 0
12, 52200, Note_on_c, 6, 67, 76
12, 52319, Note_on_c, 6, 67, 0
12, 52320, Note_on_c, 6, 69, 76
12, 52439, Note_on_c, 6, 69, 0
12, 52440, Note_on_c, 6, 71, 76
12, 52539, Note_on_c, 6, 71, 0
12, 52560, Note_on_c, 6, 64, 76
12, 52814, Note_on_c, 6, 64, 0
12, 52830, Note_on_c, 6, 64, 76
12, 52904, Note_on_c, 6, 64, 0
12, 52920, Note_on_c, 6, 64, 76
12, 53279, Note_on_c, 6, 64, 0
12, 53550, Note_on_c, 6, 69, 76
12, 53624, Note_on_c, 6, 69, 0
12, 53640, Note_on_c, 6, 64, 76
12, 53894, Note_on_c, 6, 64, 0
12, 53910, Note_on_c, 6, 69, 76
12, 53984, Note_on_c, 6, 69, 0
12, 54000, Note_on_c, 6, 62, 76
12, 54119, Note_on_c, 6, 62, 0
12, 54120, Note_on_c, 6, 66, 76
12, 54239, Note_on_c, 6, 66, 0
12, 54240, Note_on_c, 6, 67, 76
12, 54339, Note_on_c, 6, 67, 0
12, 54360, Note_on_c, 6, 69, 76
12, 54614, Note_on_c, 6, 69, 0
12, 54630, Note_on_c, 6, 73, 76
12, 54704, Note_on_c, 6, 73, 0
12, 54720, Note_on_c, 6, 64, 76
12, 54974, Note_on_c, 6, 64, 0
12, 54990, Note_on_c, 6, 66, 76
12, 55064, Note_on_c, 6, 66, 0
12, 55080, Note_on_c, 6, 66, 76
12, 55334, Note_on_c, 6, 66, 0
12, 55350, Note_on_c, 6, 66, 76
12, 55424, Note_on_c, 6, 66, 0
12, 55440, Note_on_c, 6, 62, 76
12, 55559, Note_on_c, 6, 62, 0
12, 55560, Note_on_c, 6, 64, 76
12, 55679, Note_on_c, 6, 64, 0
12, 55680, Note_on_c, 6, 66, 76
12, 55779, Note_on_c, 6, 66, 0
12, 55800, Note_on_c, 6, 66, 76
12, 56054, Note_on_c, 6, 66, 0
12, 56070, Note_on_c, 6, 71, 76
12, 56144, Note_on_c, 6, 71, 0
12, 56160, Note_on_c, 6, 71, 76
12, 56519, Note_on_c, 6, 71, 0
12, 56760, Note_on_c, 6, 64, 76
12, 56859, Note_on_c, 6, 64, 0
12, 56880, Note_on_c, 6, 64, 76
12, 57134, Note_on_c, 6, 64, 0
12, 57150, Note_on_c, 6, 64, 76
12, 57224, Note_on_c, 6, 64, 0
12, 57240, Note_on_c, 6, 64, 76
12, 57599, Note_on_c, 6, 64, 0
12, 57840, Note_on_c, 6, 62, 76
12, 57939, Note_on_c, 6, 62, 0
12, 57960, Note_on_c, 6, 62, 76
12, 58214, Note_on_c, 6, 62, 0
12, 58230, Note_on_c, 6, 62, 76
12, 58304, Note_on_c, 6, 62, 0
12, 58320, Note_on_c, 6, 62, 76
12, 58439, Note_on_c, 6, 62, 0
12, 58680, Note_on_c, 6, 64, 76
12, 58799, Note_on_c, 6, 64, 0
12, 59040, Note_on_c, 6, 66, 76
12, 59159, Note_on_c, 6, 66, 0
12, 59400, Note_on_c, 6, 71, 76
12, 59519, Note_on_c, 6, 71, 0
12, 59760, Note_on_c, 6, 71, 76
12, 59879, Note_on_c, 6, 71, 0
12, 60120, Note_on_c, 6, 68, 76
12, 60239, Note_on_c, 6, 68, 0
12, 60480, Note_on_c, 6, 64, 76
12, 60599, Note_on_c, 6, 64, 0
12, 60840, Note_on_c, 6, 76, 76
12, 60959, Note_on_c, 6, 76, 0
12, 61200, Note_on_c, 6, 73, 76
12, 61319, Note_on_c, 6, 73, 0
12, 61560, Note_on_c, 6, 69, 76
12, 61679, Note_on_c, 6, 69, 0
12, 61920, Note_on_c, 6, 69, 76
12, 62039, Note_on_c, 6, 69, 0
12, 62280, Note_on_c, 6, 66, 76
12, 62399, Note_on_c, 6, 66, 0
12, 62640, Note_on_c, 6, 62, 76
12, 62759, Note_on_c, 6, 62, 0
12, 63270, Note_on_c, 6, 67, 76
12, 63344, Note_on_c, 6, 67, 0
12, 63360, Note_on_c, 6, 69, 76
12, 63614, Note_on_c, 6, 69, 0
12, 63630, Note_on_c, 6, 64, 76
12, 63704, Note_on_c, 6, 64, 0
12, 63720, Note_on_c, 6, 69, 76
12, 63839, Note_on_c, 6, 69, 0
12, 64350, Note_on_c, 6, 69, 76
12, 64424, Note_on_c, 6, 69, 0
12, 64440, Note_on_c, 6, 71, 76
12, 64694, Note_on_c, 6, 71, 0
12, 64710, Note_on_c, 6, 66, 76
12, 64784, Note_on_c, 6, 66, 0
12, 64800, Note_on_c, 6, 71, 76
12, 64919, Note_on_c, 6, 71, 0
12, 65430, Note_on_c, 6, 64, 76
12, 65504, Note_on_c, 6, 64, 0
12, 65520, Note_on_c, 6, 69, 76
12, 65774, Note_on_c, 6, 69, 0
12, 65790, Note_on_c, 6, 71, 76
12, 65864, Note_on_c, 6, 71, 0
12, 65880, Note_on_c, 6, 71, 76
12, 66134, Note_on_c, 6, 71, 0
12, 66150, Note_on_c, 6, 71, 76
12, 66224, Note_on_c, 6, 71, 0
12, 66240, Note_on_c, 6, 71, 76
12, 66494, Note_on_c, 6, 71, 0
12, 66510, Note_on_c, 6, 71, 76
12, 66584, Note_on_c, 6, 71, 0
12, 66600, Note_on_c, 6, 71, 76
12, 66854, Note_on_c, 6, 71, 0
12, 66870, Note_on_c, 6, 71, 76
12, 66944, Note_on_c, 6, 71, 0
12, 66960, Note_on_c, 6, 69, 76
12, 67214, Note_on_c, 6, 69, 0
12, 67230, Note_on_c, 6, 69, 76
12, 67304, Note_on_c, 6, 69, 0
12, 67320, Note_on_c, 6, 69, 76
12, 67574, Note_on_c, 6, 69, 0
12, 67590, Note_on_c, 6, 69, 76
12, 67664, Note_on_c, 6, 69, 0
12, 67680, Note_on_c, 6, 69, 76
12, 67934, Note_on_c, 6, 69, 0
12, 67950, Note_on_c, 6, 69, 76
12, 68024, Note_on_c, 6, 69, 0
12, 68040, Note_on_c, 6, 69, 76
12, 68294, Note_on_c, 6, 69, 0
12, 68310, Note_on_c, 6, 69, 76
12, 68384, Note_on_c, 6, 69, 0
12, 68400, Note_on_c, 6, 69, 76
12, 68654, Note_on_c, 6, 69, 0
12, 68670, Note_on_c, 6, 67, 76
12, 68744, Note_on_c, 6, 67, 0
12, 68760, Note_on_c, 6, 64, 76
12, 69014, Note_on_c, 6, 64, 0
12, 69030, Note_on_c, 6, 64, 76
12, 69104, Note_on_c, 6, 64, 0
12, 69120, Note_on_c, 6, 66, 76
12, 69374, Note_on_c, 6, 66, 0
12, 69390, Note_on_c, 6, 66, 76
12, 69464, Note_on_c, 6, 66, 0
12, 69480, Note_on_c, 6, 66, 76
12, 69599, Note_on_c, 6, 66, 0
12, 69600, Note_on_c, 6, 67, 76
12, 69699, Note_on_c, 6, 67, 0
12, 69720, Note_on_c, 6, 64, 76
12, 69819, Note_on_c, 6, 64, 0
12, 69840, Note_on_c, 6, 64, 76
12, 69959, Note_on_c, 6, 64, 0
12, 69960, Note_on_c, 6, 66, 76
12, 70059, Note_on_c, 6, 66, 0
12, 70080, Note_on_c, 6, 62, 76
12, 70179, Note_on_c, 6, 62, 0
12, 70200, Note_on_c, 6, 62, 76
12, 70319, Note_on_c, 6, 62, 0
12, 70320, Note_on_c, 6, 64, 76
12, 70439, Note_on_c, 6, 64, 0
12, 70440, Note_on_c, 6, 66, 76
12, 70539, Note_on_c, 6, 66, 0
12, 70560, Note_on_c, 6, 66, 76
12, 70679, Note_on_c, 6, 66, 0
12, 70680, Note_on_c, 6, 67, 76
12, 70779, Note_on_c, 6, 67, 0
12, 70800, Note_on_c, 6, 64, 76
12, 70899, Note_on_c, 6, 64, 0
12, 70920, Note_on_c, 6, 64, 76
12, 71039, Note_on_c, 6, 64, 0
12, 71040, Note_on_c, 6, 66, 76
12, 71139, Note_on_c, 6, 66, 0
12, 71160, Note_on_c, 6, 62, 76
12, 71259, Note_on_c, 6, 62, 0
12, 71280, Note_on_c, 6, 62, 76
12, 71399, Note_on_c, 6, 62, 0
12, 71640, Note_on_c, 6, 64, 76
12, 71759, Note_on_c, 6, 64, 0
12, 72000, Note_on_c, 6, 66, 76
12, 72119, Note_on_c, 6, 66, 0
12, 72360, Note_on_c, 6, 67, 76
12, 72479, Note_on_c, 6, 67, 0
12, 72720, Note_on_c, 6, 66, 76
12, 72839, Note_on_c, 6, 66, 0
12, 73080, Note_on_c, 6, 68, 76
12, 73199, Note_on_c, 6, 68, 0
12, 73440, Note_on_c, 6, 69, 76
12, 73559, Note_on_c, 6, 69, 0
12, 73800, Note_on_c, 6, 68, 76
12, 73919, Note_on_c, 6, 68, 0
12, 74160, Note_on_c, 6, 70, 76
12, 74279, Note_on_c, 6, 70, 0
12, 74520, Note_on_c, 6, 71, 76
12, 74774, Note_on_c, 6, 71, 0
12, 74790, Note_on_c, 6, 71, 76
12, 74864, Note_on_c, 6, 71, 0
12, 74880, Note_on_c, 6, 71, 76
12, 74999, Note_on_c, 6, 71, 0
12, 75000, Note_on_c, 6, 73, 76
12, 75099, Note_on_c, 6, 73, 0
12, 75120, Note_on_c, 6, 69, 76
12, 75219, Note_on_c, 6, 69, 0
12, 75240, Note_on_c, 6, 69, 76
12, 75359, Note_on_c, 6, 69, 0
12, 75360, Note_on_c, 6, 71, 76
12, 75459, Note_on_c, 6, 71, 0
12, 75480, Note_on_c, 6, 68, 76
12, 75579, Note_on_c, 6, 68, 0
12, 75600, Note_on_c, 6, 68, 76
12, 75719, Note_on_c, 6, 68, 0
12, 75720, Note_on_c, 6, 69, 76
12, 75839, Note_on_c, 6, 69, 0
12, 75840, Note_on_c, 6, 71, 76
12, 75939, Note_on_c, 6, 71, 0
12, 75960, Note_on_c, 6, 73, 76
12, 76079, Note_on_c, 6, 73, 0
12, 76080, Note_on_c, 6, 74, 76
12, 76179, Note_on_c, 6, 74, 0
12, 76200, Note_on_c, 6, 71, 76
12, 76299, Note_on_c, 6, 71, 0
12, 76320, Note_on_c, 6, 71, 76
12, 76439, Note_on_c, 6, 71, 0
12, 76440, Note_on_c, 6, 73, 76
12, 76539, Note_on_c, 6, 73, 0
12, 76560, Note_on_c, 6, 70, 76
12, 76659, Note_on_c, 6, 70, 0
12, 76680, Note_on_c, 6, 70, 76
12, 76934, Note_on_c, 6, 70, 0
12, 76950, Note_on_c, 6, 70, 76
12, 77024, Note_on_c, 6, 70, 0
12, 77040, Note_on_c, 6, 70, 76
12, 77294, Note_on_c, 6, 70, 0
12, 77310, Note_on_c, 6, 70, 76
12, 77384, Note_on_c, 6, 70, 0
12, 77400, Note_on_c, 6, 70, 76
12, 77654, Note_on_c, 6, 70, 0
12, 77670, Note_on_c, 6, 70, 76
12, 77744, Note_on_c, 6, 70, 0
12, 77760, Note_on_c, 6, 69, 76
12, 78014, Note_on_c, 6, 69, 0
12, 78030, Note_on_c, 6, 69, 76
12, 78104, Note_on_c, 6, 69, 0
12, 78120, Note_on_c, 6, 69, 76
12, 78374, Note_on_c, 6, 69, 0
12, 78390, Note_on_c, 6, 69, 76
12, 78464, Note_on_c, 6, 69, 0
12, 78480, Note_on_c, 6, 69, 76
12, 78734, Note_on_c, 6, 69, 0
12, 78750, Note_on_c, 6, 69, 76
12, 78824, Note_on_c, 6, 69, 0
12, 78840, Note_on_c, 6, 68, 76
12, 79094, Note_on_c, 6, 68, 0
12, 79110, Note_on_c, 6, 68, 76
12, 79184, Note_on_c, 6, 68, 0
12, 79200, Note_on_c, 6, 68, 76
12, 79454, Note_on_c, 6, 68, 0
12, 79470, Note_on_c, 6, 68, 76
12, 79544, Note_on_c, 6, 68, 0
12, 79560, Note_on_c, 6, 68, 76
12, 79814, Note_on_c, 6, 68, 0
12, 79830, Note_on_c, 6, 68, 76
12, 79904, Note_on_c, 6, 68, 0
12, 79920, Note_on_c, 6, 67, 76
12, 80174, Note_on_c, 6, 67, 0
12, 80190, Note_on_c, 6, 67, 76
12, 80264, Note_on_c, 6, 67, 0
12, 80280, Note_on_c, 6, 67, 76
12, 80534, Note_on_c, 6, 67, 0
12, 80550, Note_on_c, 6, 67, 76
12, 80624, Note_on_c, 6, 67, 0
12, 80640, Note_on_c, 6, 67, 76
12, 80894, Note_on_c, 6, 67, 0
12, 80910, Note_on_c, 6, 67, 76
12, 80984, Note_on_c, 6, 67, 0
12, 81000, Note_on_c, 6, 66, 76
12, 81254, Note_on_c, 6, 66, 0
12, 81270, Note_on_c, 6, 66, 76
12, 81344, Note_on_c, 6, 66, 0
12, 81360, Note_on_c, 6, 66, 76
12, 81614, Note_on_c, 6, 66, 0
12, 81630, Note_on_c, 6, 66, 76
12, 81704, Note_on_c, 6, 66, 0
12, 81720, Note_on_c, 6, 66, 76
12, 81974, Note_on_c, 6, 66, 0
12, 81990, Note_on_c, 6, 66, 76
12, 82064, Note_on_c, 6, 66, 0
12, 82080, Note_on_c, 6, 65, 76
12, 82334, Note_on_c, 6, 65, 0
12, 82350, Note_on_c, 6, 65, 76
12, 82424, Note_on_c, 6, 65, 0
12, 82440, Note_on_c, 6, 65, 76
12, 82694, Note_on_c, 6, 65, 0
12, 82710, Note_on_c, 6, 65, 76
12, 82784, Note_on_c, 6, 65, 0
12, 82800, Note_on_c, 6, 65, 76
12, 83054, Note_on_c, 6, 65, 0
12, 83070, Note_on_c, 6, 65, 76
12, 83144, Note_on_c, 6, 65, 0
12, 83160, Note_on_c, 6, 64, 76
12, 83414, Note_on_c, 6, 64, 0
12, 83430, Note_on_c, 6, 64, 76
12, 83504, Note_on_c, 6, 64, 0
12, 83520, Note_on_c, 6, 64, 76
12, 83774, Note_on_c, 6, 64, 0
12, 83790, Note_on_c, 6, 64, 76
12, 83864, Note_on_c, 6, 64, 0
12, 83880, Note_on_c, 6, 64, 76
12, 84134, Note_on_c, 6, 64, 0
12, 84150, Note_on_c, 6, 64, 76
12, 84224, Note_on_c, 6, 64, 0
12, 84240, Note_on_c, 6, 63, 76
12, 84494, Note_on_c, 6, 63, 0
12, 84510, Note_on_c, 6, 63, 76
12, 84584, Note_on_c, 6, 63, 0
12, 84600, Note_on_c, 6, 63, 76
12, 84854, Note_on_c, 6, 63, 0
12, 84870, Note_on_c, 6, 63, 76
12, 84944, Note_on_c, 6, 63, 0
12, 84960, Note_on_c, 6, 63, 76
12, 85214, Note_on_c, 6, 63, 0
12, 85230, Note_on_c, 6, 63, 76
12, 85304, Note_on_c, 6, 63, 0
12, 85320, Note_on_c, 6, 62, 76
12, 85574, Note_on_c, 6, 62, 0
12, 85590, Note_on_c, 6, 62, 76
12, 85664, Note_on_c, 6, 62, 0
12, 85680, Note_on_c, 6, 62, 76
12, 85934, Note_on_c, 6, 62, 0
12, 85950, Note_on_c, 6, 62, 76
12, 86024, Note_on_c, 6, 62, 0
12, 86040, Note_on_c, 6, 62, 76
12, 86294, Note_on_c, 6, 62, 0
12, 86310, Note_on_c, 6, 62, 76
12, 86384, Note_on_c, 6, 62, 0
12, 86400, Note_on_c, 6, 60, 76
12, 86519, Note_on_c, 6, 60, 0
12, 86520, Note_on_c, 6, 65, 76
12, 86619, Note_on_c, 6, 65, 0
12, 86640, Note_on_c, 6, 64, 76
12, 86739, Note_on_c, 6, 64, 0
12, 86760, Note_on_c, 6, 64, 76
12, 86879, Note_on_c, 6, 64, 0
12, 86880, Note_on_c, 6, 65, 76
12, 86979, Note_on_c, 6, 65, 0
12, 87000, Note_on_c, 6, 62, 76
12, 87099, Note_on_c, 6, 62, 0
12, 87120, Note_on_c, 6, 62, 76
12, 87239, Note_on_c, 6, 62, 0
12, 87240, Note_on_c, 6, 64, 76
12, 87339, Note_on_c, 6, 64, 0
12, 87360, Note_on_c, 6, 60, 76
12, 87459, Note_on_c, 6, 60, 0
12, 87480, Note_on_c, 6, 60, 76
12, 87599, Note_on_c, 6, 60, 0
12, 87600, Note_on_c, 6, 62, 76
12, 87719, Note_on_c, 6, 62, 0
12, 87720, Note_on_c, 6, 64, 76
12, 87839, Note_on_c, 6, 64, 0
12, 87840, Note_on_c, 6, 65, 76
12, 87959, Note_on_c, 6, 65, 0
12, 87960, Note_on_c, 6, 67, 76
12, 88059, Note_on_c, 6, 67, 0
12, 88080, Note_on_c, 6, 64, 76
12, 88179, Note_on_c, 6, 64, 0
12, 88200, Note_on_c, 6, 64, 76
12, 88319, Note_on_c, 6, 64, 0
12, 88320, Note_on_c, 6, 65, 76
12, 88419, Note_on_c, 6, 65, 0
12, 88440, Note_on_c, 6, 63, 76
12, 88539, Note_on_c, 6, 63, 0
12, 88560, Note_on_c, 6, 63, 76
12, 88679, Note_on_c, 6, 63, 0
12, 89910, Note_on_c, 6, 68, 76
12, 89984, Note_on_c, 6, 68, 0
12, 90000, Note_on_c, 6, 68, 76
12, 90254, Note_on_c, 6, 68, 0
12, 90270, Note_on_c, 6, 68, 76
12, 90344, Note_on_c, 6, 68, 0
12, 90360, Note_on_c, 6, 68, 76
12, 90614, Note_on_c, 6, 68, 0
12, 90630, Note_on_c, 6, 68, 76
12, 90704, Note_on_c, 6, 68, 0
12, 90720, Note_on_c, 6, 69, 76
12, 90839, Note_on_c, 6, 69, 0
12, 90840, Note_on_c, 6, 73, 76
12, 90939, Note_on_c, 6, 73, 0
12, 90960, Note_on_c, 6, 71, 76
12, 91059, Note_on_c, 6, 71, 0
12, 91080, Note_on_c, 6, 69, 76
12, 91334, Note_on_c, 6, 69, 0
12, 91350, Note_on_c, 6, 69, 76
12, 91424, Note_on_c, 6, 69, 0
12, 91440, Note_on_c, 6, 64, 76
12, 91694, Note_on_c, 6, 64, 0
12, 91710, Note_on_c, 6, 64, 76
12, 91784, Note_on_c, 6, 64, 0
12, 91800, Note_on_c, 6, 64, 76
12, 91919, Note_on_c, 6, 64, 0
12, 92160, Note_on_c, 6, 64, 76
12, 92279, Note_on_c, 6, 64, 0
12, 92520, Note_on_c, 6, 71, 76
12, 92639, Note_on_c, 6, 71, 0
12, 92880, Note_on_c, 6, 73, 76
12, 92999, Note_on_c, 6, 73, 0
12, 93240, Note_on_c, 6, 76, 76
12, 93359, Note_on_c, 6, 76, 0
12, 93600, Note_on_c, 6, 64, 76
12, 93719, Note_on_c, 6, 64, 0
12, 93960, Note_on_c, 6, 64, 76
12, 94079, Note_on_c, 6, 64, 0
12, 94080, Note_on_c, 6, 68, 76
12, 94179, Note_on_c, 6, 68, 0
12, 94200, Note_on_c, 6, 66, 76
12, 94299, Note_on_c, 6, 66, 0
12, 94320, Note_on_c, 6, 68, 76
12, 94574, Note_on_c, 6, 68, 0
12, 94590, Note_on_c, 6, 66, 76
12, 94664, Note_on_c, 6, 66, 0
12, 94680, Note_on_c, 6, 68, 76
12, 94934, Note_on_c, 6, 68, 0
12, 94950, Note_on_c, 6, 64, 76
12, 95024, Note_on_c, 6, 64, 0
12, 95040, Note_on_c, 6, 69, 76
12, 95294, Note_on_c, 6, 69, 0
12, 95310, Note_on_c, 6, 76, 76
12, 95384, Note_on_c, 6, 76, 0
12, 95400, Note_on_c, 6, 73, 76
12, 95654, Note_on_c, 6, 73, 0
12, 95670, Note_on_c, 6, 73, 76
12, 95744, Note_on_c, 6, 73, 0
12, 95760, Note_on_c, 6, 71, 76
12, 96014, Note_on_c, 6, 71, 0
12, 96030, Note_on_c, 6, 66, 76
12, 96104, Note_on_c, 6, 66, 0
12, 96120, Note_on_c, 6, 66, 76
12, 96374, Note_on_c, 6, 66, 0
12, 96390, Note_on_c, 6, 66, 76
12, 96464, Note_on_c, 6, 66, 0
12, 96480, Note_on_c, 6, 62, 76
12, 96599, Note_on_c, 6, 62, 0
12, 96600, Note_on_c, 6, 64, 76
12, 96719, Note_on_c, 6, 64, 0
12, 96720, Note_on_c, 6, 66, 76
12, 96819, Note_on_c, 6, 66, 0
12, 96840, Note_on_c, 6, 71, 76
12, 97094, Note_on_c, 6, 71, 0
12, 97110, Note_on_c, 6, 71, 76
12, 97184, Note_on_c, 6, 71, 0
12, 97200, Note_on_c, 6, 71, 76
12, 97559, Note_on_c, 6, 71, 0
12, 97740, Note_on_c, 6, 64, 76
12, 97899, Note_on_c, 6, 64, 0
12, 97920, Note_on_c, 6, 71, 76
12, 98174, Note_on_c, 6, 71, 0
12, 98190, Note_on_c, 6, 71, 76
12, 98264, Note_on_c, 6, 71, 0
12, 98280, Note_on_c, 6, 69, 76
12, 98399, Note_on_c, 6, 69, 0
12, 98400, Note_on_c, 6, 73, 76
12, 98519, Note_on_c, 6, 73, 0
12, 98520, Note_on_c, 6, 71, 76
12, 98619, Note_on_c, 6, 71, 0
12, 98640, Note_on_c, 6, 69, 76
12, 98759, Note_on_c, 6, 69, 0
12, 98760, Note_on_c, 6, 71, 76
12, 98859, Note_on_c, 6, 71, 0
12, 98880, Note_on_c, 6, 68, 76
12, 98979, Note_on_c, 6, 68, 0
12, 99000, Note_on_c, 6, 68, 76
12, 99119, Note_on_c, 6, 68, 0
12, 99120, Note_on_c, 6, 69, 76
12, 99219, Note_on_c, 6, 69, 0
12, 99240, Note_on_c, 6, 64, 76
12, 99339, Note_on_c, 6, 64, 0
12, 99360, Note_on_c, 6, 64, 76
12, 99614, Note_on_c, 6, 64, 0
12, 99630, Note_on_c, 6, 73, 76
12, 99704, Note_on_c, 6, 73, 0
12, 99720, Note_on_c, 6, 74, 76
12, 99974, Note_on_c, 6, 74, 0
12, 99990, Note_on_c, 6, 64, 76
12, 100064, Note_on_c, 6, 64, 0
12, 100080, Note_on_c, 6, 64, 76
12, 100334, Note_on_c, 6, 64, 0
12, 100350, Note_on_c, 6, 66, 76
12, 100424, Note_on_c, 6, 66, 0
12, 100440, Note_on_c, 6, 66, 76
12, 100799, Note_on_c, 6, 66, 0
12, 100980, Note_on_c, 6, 71, 76
12, 101139, Note_on_c, 6, 71, 0
12, 101160, Note_on_c, 6, 66, 76
12, 101414, Note_on_c, 6, 66, 0
12, 101430, Note_on_c, 6, 71, 76
12, 101504, Note_on_c, 6, 71, 0
12, 101520, Note_on_c, 6, 64, 76
12, 101879, Note_on_c, 6, 64, 0
12, 102060, Note_on_c, 6, 69, 76
12, 102219, Note_on_c, 6, 69, 0
12, 102240, Note_on_c, 6, 64, 76
12, 102494, Note_on_c, 6, 64, 0
12, 102510, Note_on_c, 6, 69, 76
12, 102584, Note_on_c, 6, 69, 0
12, 102600, Note_on_c, 6, 62, 76
12, 102854, Note_on_c, 6, 62, 0
12, 102870, Note_on_c, 6, 69, 76
12, 102944, Note_on_c, 6, 69, 0
12, 102960, Note_on_c, 6, 74, 76
12, 103214, Note_on_c, 6, 74, 0
12, 103230, Note_on_c, 6, 69, 76
12, 103304, Note_on_c, 6, 69, 0
12, 103320, Note_on_c, 6, 69, 76
12, 103574, Note_on_c, 6, 69, 0
12, 103590, Note_on_c, 6, 71, 76
12, 103664, Note_on_c, 6, 71, 0
12, 103680, Note_on_c, 6, 71, 76
12, 103799, Note_on_c, 6, 71, 0
12, 104040, Note_on_c, 6, 66, 76
12, 104159, Note_on_c, 6, 66, 0
12, 104400, Note_on_c, 6, 63, 76
12, 104519, Note_on_c, 6, 63, 0
12, 104760, Note_on_c, 6, 71, 76
12, 104879, Note_on_c, 6, 71, 0
12, 105120, Note_on_c, 6, 71, 76
12, 105239, Note_on_c, 6, 71, 0
12, 105480, Note_on_c, 6, 68, 76
12, 105599, Note_on_c, 6, 68, 0
12, 105840, Note_on_c, 6, 64, 76
12, 105959, Note_on_c, 6, 64, 0
12, 106200, Note_on_c, 6, 64, 76
12, 106319, Note_on_c, 6, 64, 0
12, 106560, Note_on_c, 6, 64, 76
12, 106679, Note_on_c, 6, 64, 0
12, 106920, Note_on_c, 6, 69, 76
12, 107039, Note_on_c, 6, 69, 0
12, 107550, Note_on_c, 6, 62, 76
12, 107624, Note_on_c, 6, 62, 0
12, 107640, Note_on_c, 6, 64, 76
12, 107894, Note_on_c, 6, 64, 0
12, 107910, Note_on_c, 6, 71, 76
12, 107984, Note_on_c, 6, 71, 0
12, 108000, Note_on_c, 6, 64, 76
12, 108119, Note_on_c, 6, 64, 0
12, 108630, Note_on_c, 6, 64, 76
12, 108704, Note_on_c, 6, 64, 0
12, 108720, Note_on_c, 6, 66, 76
12, 108974, Note_on_c, 6, 66, 0
12, 108990, Note_on_c, 6, 73, 76
12, 109064, Note_on_c, 6, 73, 0
12, 109080, Note_on_c, 6, 66, 76
12, 109199, Note_on_c, 6, 66, 0
12, 109710, Note_on_c, 6, 69, 76
12, 109784, Note_on_c, 6, 69, 0
12, 109800, Note_on_c, 6, 73, 76
12, 110054, Note_on_c, 6, 73, 0
12, 110070, Note_on_c, 6, 66, 76
12, 110144, Note_on_c, 6, 66, 0
12, 110160, Note_on_c, 6, 66, 76
12, 110414, Note_on_c, 6, 66, 0
12, 110430, Note_on_c, 6, 71, 76
12, 110504, Note_on_c, 6, 71, 0
12, 110520, Note_on_c, 6, 71, 76
12, 110774, Note_on_c, 6, 71, 0
12, 110790, Note_on_c, 6, 71, 76
12, 110864, Note_on_c, 6, 71, 0
12, 110880, Note_on_c, 6, 71, 76
12, 111134, Note_on_c, 6, 71, 0
12, 111150, Note_on_c, 6, 71, 76
12, 111224, Note_on_c, 6, 71, 0
12, 111240, Note_on_c, 6, 71, 76
12, 111359, Note_on_c, 6, 71, 0
12, 111360, Note_on_c, 6, 68, 76
12, 111479, Note_on_c, 6, 68, 0
12, 111480, Note_on_c, 6, 69, 76
12, 111599, Note_on_c, 6, 69, 0
12, 111600, Note_on_c, 6, 71, 76
12, 111719, Note_on_c, 6, 71, 0
12, 111720, Note_on_c, 6, 73, 76
12, 111819, Note_on_c, 6, 73, 0
12, 111840, Note_on_c, 6, 69, 76
12, 111939, Note_on_c, 6, 69, 0
12, 111960, Note_on_c, 6, 71, 76
12, 112079, Note_on_c, 6, 71, 0
12, 112080, Note_on_c, 6, 69, 76
12, 112199, Note_on_c, 6, 69, 0
12, 112200, Note_on_c, 6, 68, 76
12, 112299, Note_on_c, 6, 68, 0
12, 112320, Note_on_c, 6, 69, 76
12, 112574, Note_on_c, 6, 69, 0
12, 112590, Note_on_c, 6, 64, 76
12, 112664, Note_on_c, 6, 64, 0
12, 112680, Note_on_c, 6, 64, 76
12, 112934, Note_on_c, 6, 64, 0
12, 112950, Note_on_c, 6, 69, 76
12, 113024, Note_on_c, 6, 69, 0
12, 113040, Note_on_c, 6, 69, 76
12, 113294, Note_on_c, 6, 69, 0
12, 113310, Note_on_c, 6, 64, 76
12, 113384, Note_on_c, 6, 64, 0
12, 113400, Note_on_c, 6, 64, 76
12, 113759, Note_on_c, 6, 64, 0
12, 114750, Note_on_c, 6, 64, 76
12, 114824, Note_on_c, 6, 64, 0
12, 114840, Note_on_c, 6, 64, 76
12, 115094, Note_on_c, 6, 64, 0
12, 115110, Note_on_c, 6, 68, 76
12, 115184, Note_on_c, 6, 68, 0
12, 115200, Note_on_c, 6, 68, 76
12, 115454, Note_on_c, 6, 68, 0
12, 115470, Note_on_c, 6, 69, 76
12, 115544, Note_on_c, 6, 69, 0
12, 115560, Note_on_c, 6, 69, 76
12, 115679, Note_on_c, 6, 69, 0
12, 116910, Note_on_c, 6, 69, 76
12, 116984, Note_on_c, 6, 69, 0
12, 117000, Note_on_c, 6, 69, 76
12, 117254, Note_on_c, 6, 69, 0
12, 117270, Note_on_c, 6, 69, 76
12, 117344, Note_on_c, 6, 69, 0
12, 117360, Note_on_c, 6, 69, 76
12, 117614, Note_on_c, 6, 69, 0
12, 117630, Note_on_c, 6, 69, 76
12, 117704, Note_on_c, 6, 69, 0
12, 117720, Note_on_c, 6, 69, 76
12, 117974, Note_on_c, 6, 69, 0
12, 117990, Note_on_c, 6, 66, 76
12, 118064, Note_on_c, 6, 66, 0
12, 118080, Note_on_c, 6, 66, 76
12, 118199, Note_on_c, 6, 66, 0
12, 118200, Note_on_c, 6, 69, 76
12, 118299, Note_on_c, 6, 69, 0
12, 118320, Note_on_c, 6, 67, 76
12, 118419, Note_on_c, 6, 67, 0
12, 118440, Note_on_c, 6, 67, 76
12, 118559, Note_on_c, 6, 67, 0
12, 118560, Note_on_c, 6, 71, 76
12, 118659, Note_on_c, 6, 71, 0
12, 118680, Note_on_c, 6, 69, 76
12, 118779, Note_on_c, 6, 69, 0
12, 118800, Note_on_c, 6, 69, 76
12, 118919, Note_on_c, 6, 69, 0
12, 120150, Note_on_c, 6, 62, 76
12, 120224, Note_on_c, 6, 62, 0
12, 120240, Note_on_c, 6, 62, 76
12, 120494, Note_on_c, 6, 62, 0
12, 120510, Note_on_c, 6, 62, 76
12, 120584, Note_on_c, 6, 62, 0
12, 120600, Note_on_c, 6, 62, 76
12, 120854, Note_on_c, 6, 62, 0
12, 120870, Note_on_c, 6, 62, 76
12, 120944, Note_on_c, 6, 62, 0
12, 120960, Note_on_c, 6, 62, 76
12, 121214, Note_on_c, 6, 62, 0
12, 121230, Note_on_c, 6, 62, 76
12, 121304, Note_on_c, 6, 62, 0
12, 121320, Note_on_c, 6, 62, 76
12, 121574, Note_on_c, 6, 62, 0
12, 121590, Note_on_c, 6, 62, 76
12, 121664, Note_on_c, 6, 62, 0
12, 121680, Note_on_c, 6, 62, 76
12, 121934, Note_on_c, 6, 62, 0
12, 121950, Note_on_c, 6, 62, 76
12, 122024, Note_on_c, 6, 62, 0
12, 122040, Note_on_c, 6, 62, 76
12, 122294, Note_on_c, 6, 62, 0
12, 122310, Note_on_c, 6, 60, 76
12, 122384, Note_on_c, 6, 60, 0
12, 122400, Note_on_c, 6, 62, 76
12, 122654, Note_on_c, 6, 62, 0
12, 122670, Note_on_c, 6, 66, 76
12, 122744, Note_on_c, 6, 66, 0
12, 122760, Note_on_c, 6, 66, 76
12, 123014, Note_on_c, 6, 66, 0
12, 123030, Note_on_c, 6, 71, 76
12, 123104, Note_on_c, 6, 71, 0
12, 123120, Note_on_c, 6, 71, 76
12, 123374, Note_on_c, 6, 71, 0
12, 123390, Note_on_c, 6, 64, 76
12, 123464, Note_on_c, 6, 64, 0
12, 123480, Note_on_c, 6, 64, 76
12, 123734, Note_on_c, 6, 64, 0
12, 123750, Note_on_c, 6, 67, 76
12, 123824, Note_on_c, 6, 67, 0
12, 123840, Note_on_c, 6, 67, 76
12, 124094, Note_on_c, 6, 67, 0
12, 124110, Note_on_c, 6, 73, 76
12, 124184, Note_on_c, 6, 73, 0
12, 124200, Note_on_c, 6, 73, 76
12, 124454, Note_on_c, 6, 73, 0
12, 124470, Note_on_c, 6, 66, 76
12, 124544, Note_on_c, 6, 66, 0
12, 124560, Note_on_c, 6, 66, 76
12, 124814, Note_on_c, 6, 66, 0
12, 124830, Note_on_c, 6, 69, 76
12, 124904, Note_on_c, 6, 69, 0
12, 124920, Note_on_c, 6, 69, 76
12, 125174, Note_on_c, 6, 69, 0
12, 125190, Note_on_c, 6, 74, 76
12, 125264, Note_on_c, 6, 74, 0
12, 125280, Note_on_c, 6, 74, 76
12, 125534, Note_on_c, 6, 74, 0
12, 125550, Note_on_c, 6, 68, 76
12, 125624, Note_on_c, 6, 68, 0
12, 125640, Note_on_c, 6, 68, 76
12, 125894, Note_on_c, 6, 68, 0
12, 125910, Note_on_c, 6, 71, 76
12, 125984, Note_on_c, 6, 71, 0
12, 126000, Note_on_c, 6, 71, 76
12, 126254, Note_on_c, 6, 71, 0
12, 126270, Note_on_c, 6, 76, 76
12, 126344, Note_on_c, 6, 76, 0
12, 126360, Note_on_c, 6, 76, 76
12, 126614, Note_on_c, 6, 76, 0
12, 126630, Note_on_c, 6, 66, 76
12, 126704, Note_on_c, 6, 66, 0
12, 126720, Note_on_c, 6, 66, 76
12, 126974, Note_on_c, 6, 66, 0
12, 126990, Note_on_c, 6, 66, 76
12, 127064, Note_on_c, 6, 66, 0
12, 127080, Note_on_c, 6, 66, 76
12, 127334, Note_on_c, 6, 66, 0
12, 127350, Note_on_c, 6, 66, 76
12, 127424, Note_on_c, 6, 66, 0
12, 127440, Note_on_c, 6, 66, 76
12, 127559, Note_on_c, 6, 66, 0
12, 128790, Note_on_c, 6, 66, 76
12, 128864, Note_on_c, 6, 66, 0
12, 128880, Note_on_c, 6, 70, 76
12, 129134, Note_on_c, 6, 70, 0
12, 129150, Note_on_c, 6, 66, 76
12, 129224, Note_on_c, 6, 66, 0
12, 129240, Note_on_c, 6, 66, 76
12, 129494, Note_on_c, 6, 66, 0
12, 129510, Note_on_c, 6, 66, 76
12, 129584, Note_on_c, 6, 66, 0
12, 129600, Note_on_c, 6, 66, 76
12, 129854, Note_on_c, 6, 66, 0
12, 129870, Note_on_c, 6, 70, 76
12, 129944, Note_on_c, 6, 70, 0
12, 129960, Note_on_c, 6, 70, 76
12, 130214, Note_on_c, 6, 70, 0
12, 130230, Note_on_c, 6, 71, 76
12, 130304, Note_on_c, 6, 71, 0
12, 130320, Note_on_c, 6, 64, 76
12, 130574, Note_on_c, 6, 64, 0
12, 130590, Note_on_c, 6, 66, 76
12, 130664, Note_on_c, 6, 66, 0
12, 130680, Note_on_c, 6, 66, 76
12, 130799, Note_on_c, 6, 66, 0
12, 131040, Note_on_c, 6, 66, 76
12, 131159, Note_on_c, 6, 66, 0
12, 131400, Note_on_c, 6, 66, 76
12, 131519, Note_on_c, 6, 66, 0
12, 131760, Note_on_c, 6, 67, 76
12, 131879, Note_on_c, 6, 67, 0
12, 131880, Note_on_c, 6, 71, 76
12, 131999, Note_on_c, 6, 71, 0
12, 132000, Note_on_c, 6, 69, 76
12, 132119, Note_on_c, 6, 69, 0
12, 132120, Note_on_c, 6, 71, 76
12, 132239, Note_on_c, 6, 71, 0
12, 132240, Note_on_c, 6, 72, 76
12, 132339, Note_on_c, 6, 72, 0
12, 132360, Note_on_c, 6, 69, 76
12, 132459, Note_on_c, 6, 69, 0
12, 132480, Note_on_c, 6, 69, 76
12, 132599, Note_on_c, 6, 69, 0
12, 132600, Note_on_c, 6, 71, 76
12, 132699, Note_on_c, 6, 71, 0
12, 132720, Note_on_c, 6, 67, 76
12, 132819, Note_on_c, 6, 67, 0
12, 132840, Note_on_c, 6, 67, 76
12, 133094, Note_on_c, 6, 67, 0
12, 133110, Note_on_c, 6, 71, 76
12, 133184, Note_on_c, 6, 71, 0
12, 133200, Note_on_c, 6, 73, 76
12, 133454, Note_on_c, 6, 73, 0
12, 133470, Note_on_c, 6, 67, 76
12, 133544, Note_on_c, 6, 67, 0
12, 133560, Note_on_c, 6, 67, 76
12, 133814, Note_on_c, 6, 67, 0
12, 133830, Note_on_c, 6, 67, 76
12, 133904, Note_on_c, 6, 67, 0
12, 133920, Note_on_c, 6, 66, 76
12, 134039, Note_on_c, 6, 66, 0
12, 134040, Note_on_c, 6, 68, 76
12, 134159, Note_on_c, 6, 68, 0
12, 134160, Note_on_c, 6, 70, 76
12, 134259, Note_on_c, 6, 70, 0
12, 134280, Note_on_c, 6, 70, 76
12, 134534, Note_on_c, 6, 70, 0
12, 134550, Note_on_c, 6, 64, 76
12, 134624, Note_on_c, 6, 64, 0
12, 134640, Note_on_c, 6, 66, 76
12, 134894, Note_on_c, 6, 66, 0
12, 134910, Note_on_c, 6, 73, 76
12, 134984, Note_on_c, 6, 73, 0
12, 135000, Note_on_c, 6, 66, 76
12, 135254, Note_on_c, 6, 66, 0
12, 135270, Note_on_c, 6, 66, 76
12, 135344, Note_on_c, 6, 66, 0
12, 135360, Note_on_c, 6, 64, 76
12, 135614, Note_on_c, 6, 64, 0
12, 135630, Note_on_c, 6, 64, 76
12, 135704, Note_on_c, 6, 64, 0
12, 135720, Note_on_c, 6, 64, 76
12, 135974, Note_on_c, 6, 64, 0
12, 135990, Note_on_c, 6, 64, 76
12, 136064, Note_on_c, 6, 64, 0
12, 136080, Note_on_c, 6, 62, 76
12, 136199, Note_on_c, 6, 62, 0
12, 138960, Note_on_c, 6, 71, 76
12, 139079, Note_on_c, 6, 71, 0
12, 140040, Note_on_c, 6, 67, 76
12, 140159, Note_on_c, 6, 67, 0
12, 140670, Note_on_c, 6, 69, 76
12, 140744, Note_on_c, 6, 69, 0
12, 140760, Note_on_c, 6, 69, 76
12, 140879, Note_on_c, 6, 69, 0
12, 140880, Note_on_c, 6, 71, 76
12, 140979, Note_on_c, 6, 71, 0
12, 141000, Note_on_c, 6, 67, 76
12, 141099, Note_on_c, 6, 67, 0
12, 141120, Note_on_c, 6, 67, 76
12, 141239, Note_on_c, 6, 67, 0
12, 141240, Note_on_c, 6, 69, 76
12, 141339, Note_on_c, 6, 69, 0
12, 141360, Note_on_c, 6, 66, 76
12, 141459, Note_on_c, 6, 66, 0
12, 141480, Note_on_c, 6, 66, 76
12, 141719, Note_on_c, 6, 66, 0
12, 142110, Note_on_c, 6, 71, 76
12, 142184, Note_on_c, 6, 71, 0
12, 142200, Note_on_c, 6, 71, 76
12, 142454, Note_on_c, 6, 71, 0
12, 142470, Note_on_c, 6, 71, 76
12, 142544, Note_on_c, 6, 71, 0
12, 142560, Note_on_c, 6, 71, 76
12, 142919, Note_on_c, 6, 71, 0
12, 143190, Note_on_c, 6, 72, 76
12, 143264, Note_on_c, 6, 72, 0
12, 143280, Note_on_c, 6, 71, 76
12, 143534, Note_on_c, 6, 71, 0
12, 143550, Note_on_c, 6, 72, 76
12, 143624, Note_on_c, 6, 72, 0
12, 143640, Note_on_c, 6, 66, 76
12, 143999, Note_on_c, 6, 66, 0
12, 144270, Note_on_c, 6, 67, 76
12, 144344, Note_on_c, 6, 67, 0
12, 144360, Note_on_c, 6, 66, 76
12, 144614, Note_on_c, 6, 66, 0
12, 144630, Note_on_c, 6, 71, 76
12, 144704, Note_on_c, 6, 71, 0
12, 144720, Note_on_c, 6, 71, 76
12, 145079, Note_on_c, 6, 71, 0
12, 145350, Note_on_c, 6, 66, 76
12, 145424, Note_on_c, 6, 66, 0
12, 145440, Note_on_c, 6, 64, 76
12, 145694, Note_on_c, 6, 64, 0
12, 145710, Note_on_c, 6, 69, 76
12, 145784, Note_on_c, 6, 69, 0
12, 145800, Note_on_c, 6, 62, 76
12, 146054, Note_on_c, 6, 62, 0
12, 146070, Note_on_c, 6, 62, 76
12, 146144, Note_on_c, 6, 62, 0
12, 146160, Note_on_c, 6, 62, 76
12, 146414, Note_on_c, 6, 62, 0
12, 146430, Note_on_c, 6, 62, 76
12, 146504, Note_on_c, 6, 62, 0
12, 146520, Note_on_c, 6, 62, 76
12, 146774, Note_on_c, 6, 62, 0
12, 146790, Note_on_c, 6, 62, 76
12, 146864, Note_on_c, 6, 62, 0
12, 146880, Note_on_c, 6, 62, 76
12, 146999, Note_on_c, 6, 62, 0
12, 148320, Note_on_c, 6, 62, 76
12, 148439, Note_on_c, 6, 62, 0
12, 148680, Note_on_c, 6, 62, 76
12, 148799, Note_on_c, 6, 62, 0
12, 149040, Note_on_c, 6, 66, 76
12, 149294, Note_on_c, 6, 66, 0
12, 149310, Note_on_c, 6, 66, 76
12, 149384, Note_on_c, 6, 66, 0
12, 149400, Note_on_c, 6, 66, 76
12, 149654, Note_on_c, 6, 66, 0
12, 149670, Note_on_c, 6, 67, 76
12, 149744, Note_on_c, 6, 67, 0
12, 149760, Note_on_c, 6, 60, 76
12, 150014, Note_on_c, 6, 60, 0
12, 150030, Note_on_c, 6, 62, 76
12, 150104, Note_on_c, 6, 62, 0
12, 150120, Note_on_c, 6, 62, 76
12, 150239, Note_on_c, 6, 62, 0
12, 150480, Note_on_c, 6, 62, 76
12, 150599, Note_on_c, 6, 62, 0
12, 150840, Note_on_c, 6, 66, 76
12, 150959, Note_on_c, 6, 66, 0
12, 151200, Note_on_c, 6, 71, 76
12, 151319, Note_on_c, 6, 71, 0
12, 151320, Note_on_c, 6, 64, 76
12, 151439, Note_on_c, 6, 64, 0
12, 151440, Note_on_c, 6, 65, 76
12, 151559, Note_on_c, 6, 65, 0
12, 151560, Note_on_c, 6, 67, 76
12, 151679, Note_on_c, 6, 67, 0
12, 151680, Note_on_c, 6, 69, 76
12, 151779, Note_on_c, 6, 69, 0
12, 151800, Note_on_c, 6, 65, 76
12, 151899, Note_on_c, 6, 65, 0
12, 151920, Note_on_c, 6, 65, 76
12, 152039, Note_on_c, 6, 65, 0
12, 152040, Note_on_c, 6, 67, 76
12, 152139, Note_on_c, 6, 67, 0
12, 152160, Note_on_c, 6, 64, 76
12, 152259, Note_on_c, 6, 64, 0
12, 152280, Note_on_c, 6, 64, 76
12, 152534, Note_on_c, 6, 64, 0
12, 152550, Note_on_c, 6, 67, 76
12, 152624, Note_on_c, 6, 67, 0
12, 152640, Note_on_c, 6, 69, 76
12, 152894, Note_on_c, 6, 69, 0
12, 152910, Note_on_c, 6, 64, 76
12, 152984, Note_on_c, 6, 64, 0
12, 153000, Note_on_c, 6, 64, 76
12, 153254, Note_on_c, 6, 64, 0
12, 153270, Note_on_c, 6, 64, 76
12, 153344, Note_on_c, 6, 64, 0
12, 153360, Note_on_c, 6, 62, 76
12, 153479, Note_on_c, 6, 62, 0
12, 153480, Note_on_c, 6, 64, 76
12, 153599, Note_on_c, 6, 64, 0
12, 153600, Note_on_c, 6, 66, 76
12, 153699, Note_on_c, 6, 66, 0
12, 153720, Note_on_c, 6, 66, 76
12, 153839, Note_on_c, 6, 66, 0
12, 153840, Note_on_c, 6, 67, 76
12, 153959, Note_on_c, 6, 67, 0
12, 153960, Note_on_c, 6, 69, 76
12, 154059, Note_on_c, 6, 69, 0
12, 154080, Note_on_c, 6, 62, 76
12, 154334, Note_on_c, 6, 62, 0
12, 154350, Note_on_c, 6, 69, 76
12, 154424, Note_on_c, 6, 69, 0
12, 154440, Note_on_c, 6, 71, 76
12, 154694, Note_on_c, 6, 71, 0
12, 154710, Note_on_c, 6, 69, 76
12, 154784, Note_on_c, 6, 69, 0
12, 154800, Note_on_c, 6, 67, 76
12, 155054, Note_on_c, 6, 67, 0
12, 155070, Note_on_c, 6, 69, 76
12, 155144, Note_on_c, 6, 69, 0
12, 155160, Note_on_c, 6, 62, 76
12, 155414, Note_on_c, 6, 62, 0
12, 155430, Note_on_c, 6, 62, 76
12, 155504, Note_on_c, 6, 62, 0
12, 155520, Note_on_c, 6, 62, 76
12, 155639, Note_on_c, 6, 62, 0
12, 155880, Note_on_c, 6, 62, 76
12, 155999, Note_on_c, 6, 62, 0
12, 156240, Note_on_c, 6, 69, 76
12, 156359, Note_on_c, 6, 69, 0
12, 156600, Note_on_c, 6, 71, 76
12, 156719, Note_on_c, 6, 71, 0
12, 156960, Note_on_c, 6, 74, 76
12, 157079, Note_on_c, 6, 74, 0
12, 157320, Note_on_c, 6, 62, 76
12, 157439, Note_on_c, 6, 62, 0
12, 157680, Note_on_c, 6, 62, 76
12, 157799, Note_on_c, 6, 62, 0
12, 179550, Note_on_c, 6, 66, 76
12, 179624, Note_on_c, 6, 66, 0
12, 179640, Note_on_c, 6, 66, 76
12, 179894, Note_on_c, 6, 66, 0
12, 179910, Note_on_c, 6, 69, 76
12, 179984, Note_on_c, 6, 69, 0
12, 180000, Note_on_c, 6, 66, 76
12, 180254, Note_on_c, 6, 66, 0
12, 180270, Note_on_c, 6, 62, 76
12, 180344, Note_on_c, 6, 62, 0
12, 180360, Note_on_c, 6, 67, 76
12, 180614, Note_on_c, 6, 67, 0
12, 180630, Note_on_c, 6, 71, 76
12, 180704, Note_on_c, 6, 71, 0
12, 180720, Note_on_c, 6, 67, 76
12, 180839, Note_on_c, 6, 67, 0
12, 180840, Note_on_c, 6, 69, 76
12, 180959, Note_on_c, 6, 69, 0
12, 180960, Note_on_c, 6, 71, 76
12, 181059, Note_on_c, 6, 71, 0
12, 181080, Note_on_c, 6, 64, 76
12, 181334, Note_on_c, 6, 64, 0
12, 181350, Note_on_c, 6, 64, 76
12, 181424, Note_on_c, 6, 64, 0
12, 181440, Note_on_c, 6, 64, 76
12, 181799, Note_on_c, 6, 64, 0
12, 182070, Note_on_c, 6, 69, 76
12, 182144, Note_on_c, 6, 69, 0
12, 182160, Note_on_c, 6, 64, 76
12, 182414, Note_on_c, 6, 64, 0
12, 182430, Note_on_c, 6, 69, 76
12, 182504, Note_on_c, 6, 69, 0
12, 182520, Note_on_c, 6, 62, 76
12, 182639, Note_on_c, 6, 62, 0
12, 182640, Note_on_c, 6, 66, 76
12, 182759, Note_on_c, 6, 66, 0
12, 182760, Note_on_c, 6, 67, 76
12, 182859, Note_on_c, 6, 67, 0
12, 182880, Note_on_c, 6, 69, 76
12, 183134, Note_on_c, 6, 69, 0
12, 183150, Note_on_c, 6, 73, 76
12, 183224, Note_on_c, 6, 73, 0
12, 183240, Note_on_c, 6, 64, 76
12, 183494, Note_on_c, 6, 64, 0
12, 183510, Note_on_c, 6, 66, 76
12, 183584, Note_on_c, 6, 66, 0
12, 183600, Note_on_c, 6, 66, 76
12, 183854, Note_on_c, 6, 66, 0
12, 183870, Note_on_c, 6, 66, 76
12, 183944, Note_on_c, 6, 66, 0
12, 183960, Note_on_c, 6, 62, 76
12, 184079, Note_on_c, 6, 62, 0
12, 184080, Note_on_c, 6, 64, 76
12, 184199, Note_on_c, 6, 64, 0
12, 184200, Note_on_c, 6, 66, 76
12, 184299, Note_on_c, 6, 66, 0
12, 184320, Note_on_c, 6, 71, 76
12, 184574, Note_on_c, 6, 71, 0
12, 184590, Note_on_c, 6, 71, 76
12, 184664, Note_on_c, 6, 71, 0
12, 184680, Note_on_c, 6, 71, 76
12, 185039, Note_on_c, 6, 71, 0
12, 185310, Note_on_c, 6, 64, 76
12, 185384, Note_on_c, 6, 64, 0
12, 185400, Note_on_c, 6, 64, 76
12, 185654, Note_on_c, 6, 64, 0
12, 185670, Note_on_c, 6, 64, 76
12, 185744, Note_on_c, 6, 64, 0
12, 185760, Note_on_c, 6, 64, 76
12, 186119, Note_on_c, 6, 64, 0
12, 186390, Note_on_c, 6, 62, 76
12, 186464, Note_on_c, 6, 62, 0
12, 186480, Note_on_c, 6, 62, 76
12, 186734, Note_on_c, 6, 62, 0
12, 186750, Note_on_c, 6, 62, 76
12, 186824, Note_on_c, 6, 62, 0
12, 186840, Note_on_c, 6, 62, 76
12, 186959, Note_on_c, 6, 62, 0
12, 187200, Note_on_c, 6, 64, 76
12, 187319, Note_on_c, 6, 64, 0
12, 187560, Note_on_c, 6, 66, 76
12, 187679, Note_on_c, 6, 66, 0
12, 187920, Note_on_c, 6, 71, 76
12, 188039, Note_on_c, 6, 71, 0
12, 188280, Note_on_c, 6, 71, 76
12, 188399, Note_on_c, 6, 71, 0
12, 188640, Note_on_c, 6, 68, 76
12, 188759, Note_on_c, 6, 68, 0
12, 189000, Note_on_c, 6, 64, 76
12, 189119, Note_on_c, 6, 64, 0
12, 189360, Note_on_c, 6, 76, 76
12, 189479, Note_on_c, 6, 76, 0
12, 189720, Note_on_c, 6, 73, 76
12, 189839, Note_on_c, 6, 73, 0
12, 190080, Note_on_c, 6, 69, 76
12, 190199, Note_on_c, 6, 69, 0
12, 190440, Note_on_c, 6, 69, 76
12, 190559, Note_on_c, 6, 69, 0
12, 190800, Note_on_c, 6, 66, 76
12, 190919, Note_on_c, 6, 66, 0
12, 191160, Note_on_c, 6, 62, 76
12, 191279, Note_on_c, 6, 62, 0
12, 191790, Note_on_c, 6, 67, 76
12, 191864, Note_on_c, 6, 67, 0
12, 191880, Note_on_c, 6, 69, 76
12, 192134, Note_on_c, 6, 69, 0
12, 192150, Note_on_c, 6, 64, 76
12, 192224, Note_on_c, 6, 64, 0
12, 192240, Note_on_c, 6, 69, 76
12, 192359, Note_on_c, 6, 69, 0
12, 192870, Note_on_c, 6, 69, 76
12, 192944, Note_on_c, 6, 69, 0
12, 192960, Note_on_c, 6, 71, 76
12, 193214, Note_on_c, 6, 71, 0
12, 193230, Note_on_c, 6, 66, 76
12, 193304, Note_on_c, 6, 66, 0
12, 193320, Note_on_c, 6, 71, 76
12, 193439, Note_on_c, 6, 71, 0
12, 193950, Note_on_c, 6, 64, 76
12, 194024, Note_on_c, 6, 64, 0
12, 194040, Note_on_c, 6, 69, 76
12, 194294, Note_on_c, 6, 69, 0
12, 194310, Note_on_c, 6, 71, 76
12, 194384, Note_on_c, 6, 71, 0
12, 194400, Note_on_c, 6, 71, 76
12, 194654, Note_on_c, 6, 71, 0
12, 194670, Note_on_c, 6, 71, 76
12, 194744, Note_on_c, 6, 71, 0
12, 194760, Note_on_c, 6, 71, 76
12, 195014, Note_on_c, 6, 71, 0
12, 195030, Note_on_c, 6, 71, 76
12, 195104, Note_on_c, 6, 71, 0
12, 195120, Note_on_c, 6, 71, 76
12, 195374, Note_on_c, 6, 71, 0
12, 195390, Note_on_c, 6, 71, 76
12, 195464, Note_on_c, 6, 71, 0
12, 195480, Note_on_c, 6, 69, 76
12, 195734, Note_on_c, 6, 69, 0
12, 195750, Note_on_c, 6, 69, 76
12, 195824, Note_on_c, 6, 69, 0
12, 195840, Note_on_c, 6, 69, 76
12, 196094, Note_on_c, 6, 69, 0
12, 196110, Note_on_c, 6, 69, 76
12, 196184, Note_on_c, 6, 69, 0
12, 196200, Note_on_c, 6, 69, 76
12, 196454, Note_on_c, 6, 69, 0
12, 196470, Note_on_c, 6, 69, 76
12, 196544, Note_on_c, 6, 69, 0
12, 196560, Note_on_c, 6, 69, 76
12, 196814, Note_on_c, 6, 69, 0
12, 196830, Note_on_c, 6, 69, 76
12, 196904, Note_on_c, 6, 69, 0
12, 196920, Note_on_c, 6, 69, 76
12, 197174, Note_on_c, 6, 69, 0
12, 197190, Note_on_c, 6, 67, 76
12, 197264, Note_on_c, 6, 67, 0
12, 197280, Note_on_c, 6, 64, 76
12, 197534, Note_on_c, 6, 64, 0
12, 197550, Note_on_c, 6, 64, 76
12, 197624, Note_on_c, 6, 64, 0
12, 197640, Note_on_c, 6, 66, 76
12, 197759, Note_on_c, 6, 66, 0
12, 198000, Note_on_c, 6, 69, 76
12, 198119, Note_on_c, 6, 69, 0
12, 198360, Note_on_c, 6, 73, 76
12, 198479, Note_on_c, 6, 73, 0
12, 198720, Note_on_c, 6, 78, 76
12, 198839, Note_on_c, 6, 78, 0
12, 199080, Note_on_c, 6, 69, 76
12, 199199, Note_on_c, 6, 69, 0
12, 199440, Note_on_c, 6, 73, 76
12, 199559, Note_on_c, 6, 73, 0
12, 199800, Note_on_c, 6, 66, 76
12, 199973, Note_on_c, 6, 66, 0
12, 199980, Note_on_c, 6, 69, 76
12, 200033, Note_on_c, 6, 69, 0
12, 200040, Note_on_c, 6, 69, 76
12, 200213, Note_on_c, 6, 69, 0
12, 200220, Note_on_c, 6, 66, 76
12, 200273, Note_on_c, 6, 66, 0
12, 200280, Note_on_c, 6, 62, 76
12, 200759, Note_on_c, 6, 62, 0
12, 200940, Note_on_c, 6, 74, 76
12, 200993, Note_on_c, 6, 74, 0
12, 201000, Note_on_c, 6, 74, 76
12, 201173, Note_on_c, 6, 74, 0
12, 201180, Note_on_c, 6, 69, 76
12, 201233, Note_on_c, 6, 69, 0
12, 201240, Note_on_c, 6, 66, 76
12, 201719, Note_on_c, 6, 66, 0
12, 201900, Note_on_c, 6, 66, 76
12, 201953, Note_on_c, 6, 66, 0
12, 201960, Note_on_c, 6, 66, 76
12, 202133, Note_on_c, 6, 66, 0
12, 202140, Note_on_c, 6, 72, 76
12, 202193, Note_on_c, 6, 72, 0
12, 202200, Note_on_c, 6, 71, 76
12, 202439, Note_on_c, 6, 71, 0
12, 202560, Note_on_c, 6, 71, 76
12, 202669, Note_on_c, 6, 71, 0
12, 202680, Note_on_c, 6, 71, 76
12, 203639, Note_on_c, 6, 71, 0
12, 203760, Note_on_c, 6, 79, 76
12, 203819, Note_on_c, 6, 79, 0
12, 203820, Note_on_c, 6, 78, 76
12, 203879, Note_on_c, 6, 78, 0
12, 203880, Note_on_c, 6, 76, 76
12, 203939, Note_on_c, 6, 76, 0
12, 203940, Note_on_c, 6, 74, 76
12, 203999, Note_on_c, 6, 74, 0
12, 204000, Note_on_c, 6, 73, 76
12, 204059, Note_on_c, 6, 73, 0
12, 204060, Note_on_c, 6, 71, 76
12, 204119, Note_on_c, 6, 71, 0
12, 204120, Note_on_c, 6, 69, 76
12, 204179, Note_on_c, 6, 69, 0
12, 204180, Note_on_c, 6, 71, 76
12, 204239, Note_on_c, 6, 71, 0
12, 204240, Note_on_c, 6, 73, 76
12, 204299, Note_on_c, 6, 73, 0
12, 204300, Note_on_c, 6, 74, 76
12, 204359, Note_on_c, 6, 74, 0
12, 204360, Note_on_c, 6, 76, 76
12, 204419, Note_on_c, 6, 76, 0
12, 204420, Note_on_c, 6, 74, 76
12, 204479, Note_on_c, 6, 74, 0
12, 204480, Note_on_c, 6, 76, 76
12, 204539, Note_on_c, 6, 76, 0
12, 204540, Note_on_c, 6, 73, 76
12, 204593, Note_on_c, 6, 73, 0
12, 204600, Note_on_c, 6, 74, 76
12, 204773, Note_on_c, 6, 74, 0
12, 204780, Note_on_c, 6, 66, 76
12, 204833, Note_on_c, 6, 66, 0
12, 204840, Note_on_c, 6, 66, 76
12, 205013, Note_on_c, 6, 66, 0
12, 205020, Note_on_c, 6, 69, 76
12, 205073, Note_on_c, 6, 69, 0
12, 205080, Note_on_c, 6, 74, 76
12, 205559, Note_on_c, 6, 74, 0
12, 205740, Note_on_c, 6, 74, 76
12, 205793, Note_on_c, 6, 74, 0
12, 205800, Note_on_c, 6, 74, 76
12, 205973, Note_on_c, 6, 74, 0
12, 205980, Note_on_c, 6, 72, 76
12, 206033, Note_on_c, 6, 72, 0
12, 206040, Note_on_c, 6, 71, 76
12, 206519, Note_on_c, 6, 71, 0
12, 206700, Note_on_c, 6, 73, 76
12, 206753, Note_on_c, 6, 73, 0
12, 206760, Note_on_c, 6, 73, 76
12, 206933, Note_on_c, 6, 73, 0
12, 206940, Note_on_c, 6, 69, 76
12, 206993, Note_on_c, 6, 69, 0
12, 207000, Note_on_c, 6, 62, 76
12, 207239, Note_on_c, 6, 62, 0
12, 207360, Note_on_c, 6, 69, 76
12, 207469, Note_on_c, 6, 69, 0
12, 207480, Note_on_c, 6, 71, 76
12, 207829, Note_on_c, 6, 71, 0
12, 207840, Note_on_c, 6, 71, 76
12, 207949, Note_on_c, 6, 71, 0
12, 207960, Note_on_c, 6, 69, 76
12, 208189, Note_on_c, 6, 69, 0
12, 208200, Note_on_c, 6, 64, 76
12, 208429, Note_on_c, 6, 64, 0
12, 208440, Note_on_c, 6, 62, 76
12, 208919, Note_on_c, 6, 62, 0
12, 209100, Note_on_c, 6, 62, 76
12, 209153, Note_on_c, 6, 62, 0
12, 209160, Note_on_c, 6, 62, 76
12, 209333, Note_on_c, 6, 62, 0
12, 209340, Note_on_c, 6, 64, 76
12, 209393, Note_on_c, 6, 64, 0
12, 209400, Note_on_c, 6, 64, 76
12, 209749, Note_on_c, 6, 64, 0
12, 209760, Note_on_c, 6, 67, 76
12, 209869, Note_on_c, 6, 67, 0
12, 209880, Note_on_c, 6, 66, 76
12, 210109, Note_on_c, 6, 66, 0
12, 210120, Note_on_c, 6, 66, 76
12, 210349, Note_on_c, 6, 66, 0
12, 210360, Note_on_c, 6, 66, 76
12, 210533, Note_on_c, 6, 66, 0
12, 210540, Note_on_c, 6, 71, 76
12, 210593, Note_on_c, 6, 71, 0
12, 210600, Note_on_c, 6, 71, 76
12, 210773, Note_on_c, 6, 71, 0
12, 210780, Note_on_c, 6, 66, 76
12, 210833, Note_on_c, 6, 66, 0
12, 210840, Note_on_c, 6, 62, 76
12, 211319, Note_on_c, 6, 62, 0
12, 211500, Note_on_c, 6, 64, 76
12, 211553, Note_on_c, 6, 64, 0
12, 211560, Note_on_c, 6, 62, 76
12, 211733, Note_on_c, 6, 62, 0
12, 211740, Note_on_c, 6, 67, 76
12, 211793, Note_on_c, 6, 67, 0
12, 211800, Note_on_c, 6, 66, 76
12, 211973, Note_on_c, 6, 66, 0
12, 211980, Note_on_c, 6, 62, 76
12, 212033, Note_on_c, 6, 62, 0
12, 212040, Note_on_c, 6, 67, 76
12, 212213, Note_on_c, 6, 67, 0
12, 212220, Note_on_c, 6, 69, 76
12, 212273, Note_on_c, 6, 69, 0
12, 212280, Note_on_c, 6, 69, 76
12, 212759, Note_on_c, 6, 69, 0
12, 212940, Note_on_c, 6, 64, 76
12, 212993, Note_on_c, 6, 64, 0
12, 213000, Note_on_c, 6, 67, 76
12, 213173, Note_on_c, 6, 67, 0
12, 213180, Note_on_c, 6, 73, 76
12, 213233, Note_on_c, 6, 73, 0
12, 213240, Note_on_c, 6, 69, 76
12, 213719, Note_on_c, 6, 69, 0
12, 213900, Note_on_c, 6, 66, 76
12, 213953, Note_on_c, 6, 66, 0
12, 213960, Note_on_c, 6, 69, 76
12, 214133, Note_on_c, 6, 69, 0
12, 214140, Note_on_c, 6, 74, 76
12, 214193, Note_on_c, 6, 74, 0
12, 214200, Note_on_c, 6, 73, 76
12, 214679, Note_on_c, 6, 73, 0
12, 214860, Note_on_c, 6, 67, 76
12, 214913, Note_on_c, 6, 67, 0
12, 214920, Note_on_c, 6, 73, 76
12, 215093, Note_on_c, 6, 73, 0
12, 215100, Note_on_c, 6, 76, 76
12, 215153, Note_on_c, 6, 76, 0
12, 215160, Note_on_c, 6, 74, 76
12, 215399, Note_on_c, 6, 74, 0
12, 215580, Note_on_c, 6, 74, 76
12, 215633, Note_on_c, 6, 74, 0
12, 215640, Note_on_c, 6, 71, 76
12, 215879, Note_on_c, 6, 71, 0
12, 216060, Note_on_c, 6, 73, 76
12, 216113, Note_on_c, 6, 73, 0
12, 216120, Note_on_c, 6, 69, 76
12, 216599, Note_on_c, 6, 69, 0
12, 216780, Note_on_c, 6, 62, 76
12, 216833, Note_on_c, 6, 62, 0
12, 216840, Note_on_c, 6, 69, 76
12, 217013, Note_on_c, 6, 69, 0
12, 217020, Note_on_c, 6, 74, 76
12, 217073, Note_on_c, 6, 74, 0
12, 217080, Note_on_c, 6, 74, 76
12, 217253, Note_on_c, 6, 74, 0
12, 217260, Note_on_c, 6, 72, 76
12, 217313, Note_on_c, 6, 72, 0
12, 217320, Note_on_c, 6, 71, 76
12, 217493, Note_on_c, 6, 71, 0
12, 217500, Note_on_c, 6, 67, 76
12, 217553, Note_on_c, 6, 67, 0
12, 217560, Note_on_c, 6, 66, 76
12, 217733, Note_on_c, 6, 66, 0
12, 217740, Note_on_c, 6, 66, 76
12, 217793, Note_on_c, 6, 66, 0
12, 217800, Note_on_c, 6, 71, 76
12, 217973, Note_on_c, 6, 71, 0
12, 217980, Note_on_c, 6, 67, 76
12, 218033, Note_on_c, 6, 67, 0
12, 218040, Note_on_c, 6, 69, 76
12, 218213, Note_on_c, 6, 69, 0
12, 218220, Note_on_c, 6, 69, 76
12, 218273, Note_on_c, 6, 69, 0
12, 218280, Note_on_c, 6, 69, 76
12, 218453, Note_on_c, 6, 69, 0
12, 218460, Note_on_c, 6, 67, 76
12, 218513, Note_on_c, 6, 67, 0
12, 218520, Note_on_c, 6, 64, 76
12, 218534, Note_on_c, 6, 64, 0
12, 218535, Note_on_c, 6, 66, 76
12, 218549, Note_on_c, 6, 66, 0
12, 218550, Note_on_c, 6, 64, 76
12, 218564, Note_on_c, 6, 64, 0
12, 218565, Note_on_c, 6, 66, 76
12, 218579, Note_on_c, 6, 66, 0
12, 218580, Note_on_c, 6, 64, 76
12, 218594, Note_on_c, 6, 64, 0
12, 218595, Note_on_c, 6, 66, 76
12, 218609, Note_on_c, 6, 66, 0
12, 218610, Note_on_c, 6, 64, 76
12, 218624, Note_on_c, 6, 64, 0
12, 218625, Note_on_c, 6, 66, 76
12, 218639, Note_on_c, 6, 66, 0
12, 218640, Note_on_c, 6, 64, 76
12, 218654, Note_on_c, 6, 64, 0
12, 218655, Note_on_c, 6, 66, 76
12, 218669, Note_on_c, 6, 66, 0
12, 218670, Note_on_c, 6, 64, 76
12, 218684, Note_on_c, 6, 64, 0
12, 218685, Note_on_c, 6, 66, 76
12, 218699, Note_on_c, 6, 66, 0
12, 218700, Note_on_c, 6, 64, 76
12, 218714, Note_on_c, 6, 64, 0
12, 218715, Note_on_c, 6, 66, 76
12, 218729, Note_on_c, 6, 66, 0
12, 218730, Note_on_c, 6, 64, 76
12, 218744, Note_on_c, 6, 64, 0
12, 218745, Note_on_c, 6, 66, 76
12, 218759, Note_on_c, 6, 66, 0
12, 218760, Note_on_c, 6, 64, 76
12, 218774, Note_on_c, 6, 64, 0
12, 218775, Note_on_c, 6, 66, 76
12, 218789, Note_on_c, 6, 66, 0
12, 218790, Note_on_c, 6, 64, 76
12, 218804, Note_on_c, 6, 64, 0
12, 218805, Note_on_c, 6, 66, 76
12, 218819, Note_on_c, 6, 66, 0
12, 218820, Note_on_c, 6, 64, 76
12, 218834, Note_on_c, 6, 64, 0
12, 218835, Note_on_c, 6, 66, 76
12, 218849, Note_on_c, 6, 66, 0
12, 218850, Note_on_c, 6, 62, 76
12, 218864, Note_on_c, 6, 62, 0
12, 218865, Note_on_c, 6, 64, 76
12, 218879, Note_on_c, 6, 64, 0
12, 218880, Note_on_c, 6, 66, 76
12, 218989, Note_on_c, 6, 66, 0
12, 219000, Note_on_c, 6, 66, 76
12, 219719, Note_on_c, 6, 66, 0
12, 221400, Note_on_c, 6, 69, 76
12, 221499, Note_on_c, 6, 69, 0
12, 221520, Note_on_c, 6, 69, 76
12, 221639, Note_on_c, 6, 69, 0
12, 221640, Note_on_c, 6, 71, 76
12, 221739, Note_on_c, 6, 71, 0
12, 221760, Note_on_c, 6, 67, 76
12, 221859, Note_on_c, 6, 67, 0
12, 221880, Note_on_c, 6, 67, 76
12, 221999, Note_on_c, 6, 67, 0
12, 222000, Note_on_c, 6, 69, 76
12, 222099, Note_on_c, 6, 69, 0
12, 222120, Note_on_c, 6, 66, 76
12, 222219, Note_on_c, 6, 66, 0
12, 222240, Note_on_c, 6, 66, 76
12, 222359, Note_on_c, 6, 66, 0
12, 222360, Note_on_c, 6, 67, 76
12, 222479, Note_on_c, 6, 67, 0
12, 222480, Note_on_c, 6, 69, 76
12, 222579, Note_on_c, 6, 69, 0
12, 222600, Note_on_c, 6, 71, 76
12, 222719, Note_on_c, 6, 71, 0
12, 222720, Note_on_c, 6, 73, 76
12, 222819, Note_on_c, 6, 73, 0
12, 222840, Note_on_c, 6, 69, 76
12, 222939, Note_on_c, 6, 69, 0
12, 222960, Note_on_c, 6, 69, 76
12, 223079, Note_on_c, 6, 69, 0
12, 223080, Note_on_c, 6, 71, 76
12, 223179, Note_on_c, 6, 71, 0
12, 223200, Note_on_c, 6, 68, 76
12, 223299, Note_on_c, 6, 68, 0
12, 223320, Note_on_c, 6, 68, 76
12, 223574, Note_on_c, 6, 68, 0
12, 223590, Note_on_c, 6, 68, 76
12, 223664, Note_on_c, 6, 68, 0
12, 223680, Note_on_c, 6, 68, 76
12, 223934, Note_on_c, 6, 68, 0
12, 223950, Note_on_c, 6, 68, 76
12, 224024, Note_on_c, 6, 68, 0
12, 224040, Note_on_c, 6, 68, 76
12, 224294, Note_on_c, 6, 68, 0
12, 224310, Note_on_c, 6, 68, 76
12, 224384, Note_on_c, 6, 68, 0
12, 224400, Note_on_c, 6, 69, 76
12, 224519, Note_on_c, 6, 69, 0
12, 224520, Note_on_c, 6, 73, 76
12, 224639, Note_on_c, 6, 73, 0
12, 224640, Note_on_c, 6, 71, 76
12, 224739, Note_on_c, 6, 71, 0
12, 224760, Note_on_c, 6, 73, 76
12, 225014, Note_on_c, 6, 73, 0
12, 225030, Note_on_c, 6, 71, 76
12, 225104, Note_on_c, 6, 71, 0
12, 225120, Note_on_c, 6, 73, 76
12, 225374, Note_on_c, 6, 73, 0
12, 225390, Note_on_c, 6, 69, 76
12, 225464, Note_on_c, 6, 69, 0
12, 225480, Note_on_c, 6, 62, 76
12, 225599, Note_on_c, 6, 62, 0
12, 225600, Note_on_c, 6, 64, 76
12, 225719, Note_on_c, 6, 64, 0
12, 225720, Note_on_c, 6, 66, 76
12, 225819, Note_on_c, 6, 66, 0
12, 225840, Note_on_c, 6, 66, 76
12, 226094, Note_on_c, 6, 66, 0
12, 226110, Note_on_c, 6, 69, 76
12, 226184, Note_on_c, 6, 69, 0
12, 226200, Note_on_c, 6, 66, 76
12, 226454, Note_on_c, 6, 66, 0
12, 226470, Note_on_c, 6, 62, 76
12, 226544, Note_on_c, 6, 62, 0
12, 226560, Note_on_c, 6, 67, 76
12, 226814, Note_on_c, 6, 67, 0
12, 226830, Note_on_c, 6, 71, 76
12, 226904, Note_on_c, 6, 71, 0
12, 226920, Note_on_c, 6, 67, 76
12, 227039, Note_on_c, 6, 67, 0
12, 227040, Note_on_c, 6, 69, 76
12, 227159, Note_on_c, 6, 69, 0
12, 227160, Note_on_c, 6, 71, 76
12, 227259, Note_on_c, 6, 71, 0
12, 227280, Note_on_c, 6, 64, 76
12, 227534, Note_on_c, 6, 64, 0
12, 227550, Note_on_c, 6, 64, 76
12, 227624, Note_on_c, 6, 64, 0
12, 227640, Note_on_c, 6, 64, 76
12, 227999, Note_on_c, 6, 64, 0
12, 228270, Note_on_c, 6, 69, 76
12, 228344, Note_on_c, 6, 69, 0
12, 228360, Note_on_c, 6, 64, 76
12, 228614, Note_on_c, 6, 64, 0
12, 228630, Note_on_c, 6, 69, 76
12, 228704, Note_on_c, 6, 69, 0
12, 228720, Note_on_c, 6, 62, 76
12, 228839, Note_on_c, 6, 62, 0
12, 228840, Note_on_c, 6, 66, 76
12, 228959, Note_on_c, 6, 66, 0
12, 228960, Note_on_c, 6, 67, 76
12, 229059, Note_on_c, 6, 67, 0
12, 229080, Note_on_c, 6, 69, 76
12, 229334, Note_on_c, 6, 69, 0
12, 229350, Note_on_c, 6, 73, 76
12, 229424, Note_on_c, 6, 73, 0
12, 229440, Note_on_c, 6, 64, 76
12, 229694, Note_on_c, 6, 64, 0
12, 229710, Note_on_c, 6, 66, 76
12, 229784, Note_on_c, 6, 66, 0
12, 229800, Note_on_c, 6, 66, 76
12, 230054, Note_on_c, 6, 66, 0
12, 230070, Note_on_c, 6, 66, 76
12, 230144, Note_on_c, 6, 66, 0
12, 230160, Note_on_c, 6, 62, 76
12, 230279, Note_on_c, 6, 62, 0
12, 230280, Note_on_c, 6, 64, 76
12, 230399, Note_on_c, 6, 64, 0
12, 230400, Note_on_c, 6, 66, 76
12, 230499, Note_on_c, 6, 66, 0
12, 230520, Note_on_c, 6, 66, 76
12, 230774, Note_on_c, 6, 66, 0
12, 230790, Note_on_c, 6, 71, 76
12, 230864, Note_on_c, 6, 71, 0
12, 230880, Note_on_c, 6, 71, 76
12, 231239, Note_on_c, 6, 71, 0
12, 231480, Note_on_c, 6, 64, 76
12, 231579, Note_on_c, 6, 64, 0
12, 231600, Note_on_c, 6, 64, 76
12, 231854, Note_on_c, 6, 64, 0
12, 231870, Note_on_c, 6, 64, 76
12, 231944, Note_on_c, 6, 64, 0
12, 231960, Note_on_c, 6, 64, 76
12, 232319, Note_on_c, 6, 64, 0
12, 232560, Note_on_c, 6, 62, 76
12, 232659, Note_on_c, 6, 62, 0
12, 232680, Note_on_c, 6, 62, 76
12, 232934, Note_on_c, 6, 62, 0
12, 232950, Note_on_c, 6, 62, 76
12, 233024, Note_on_c, 6, 62, 0
12, 233040, Note_on_c, 6, 62, 76
12, 233159, Note_on_c, 6, 62, 0
12, 233400, Note_on_c, 6, 64, 76
12, 233519, Note_on_c, 6, 64, 0
12, 233760, Note_on_c, 6, 66, 76
12, 233879, Note_on_c, 6, 66, 0
12, 234120, Note_on_c, 6, 71, 76
12, 234239, Note_on_c, 6, 71, 0
12, 234480, Note_on_c, 6, 71, 76
12, 234599, Note_on_c, 6, 71, 0
12, 234840, Note_on_c, 6, 68, 76
12, 234959, Note_on_c, 6, 68, 0
12, 235200, Note_on_c, 6, 64, 76
12, 235319, Note_on_c, 6, 64, 0
12, 235560, Note_on_c, 6, 76, 76
12, 235679, Note_on_c, 6, 76, 0
12, 235920, Note_on_c, 6, 73, 76
12, 236039, Note_on_c, 6, 73, 0
12, 236280, Note_on_c, 6, 69, 76
12, 236399, Note_on_c, 6, 69, 0
12, 236640, Note_on_c, 6, 69, 76
12, 236759, Note_on_c, 6, 69, 0
12, 237000, Note_on_c, 6, 66, 76
12, 237119, Note_on_c, 6, 66, 0
12, 237360, Note_on_c, 6, 62, 76
12, 237479, Note_on_c, 6, 62, 0
12, 237990, Note_on_c, 6, 67, 76
12, 238064, Note_on_c, 6, 67, 0
12, 238080, Note_on_c, 6, 69, 76
12, 238334, Note_on_c, 6, 69, 0
12, 238350, Note_on_c, 6, 64, 76
12, 238424, Note_on_c, 6, 64, 0
12, 238440, Note_on_c, 6, 69, 76
12, 238559, Note_on_c, 6, 69, 0
12, 239070, Note_on_c, 6, 69, 76
12, 239144, Note_on_c, 6, 69, 0
12, 239160, Note_on_c, 6, 71, 76
12, 239414, Note_on_c, 6, 71, 0
12, 239430, Note_on_c, 6, 66, 76
12, 239504, Note_on_c, 6, 66, 0
12, 239520, Note_on_c, 6, 71, 76
12, 239639, Note_on_c, 6, 71, 0
12, 240150, Note_on_c, 6, 64, 76
12, 240224, Note_on_c, 6, 64, 0
12, 240240, Note_on_c, 6, 69, 76
12, 240494, Note_on_c, 6, 69, 0
12, 240510, Note_on_c, 6, 71, 76
12, 240584, Note_on_c, 6, 71, 0
12, 240600, Note_on_c, 6, 71, 76
12, 240854, Note_on_c, 6, 71, 0
12, 240870, Note_on_c, 6, 71, 76
12, 240944, Note_on_c, 6, 71, 0
12, 240960, Note_on_c, 6, 71, 76
12, 241214, Note_on_c, 6, 71, 0
12, 241230, Note_on_c, 6, 71, 76
12, 241304, Note_on_c, 6, 71, 0
12, 241320, Note_on_c, 6, 71, 76
12, 241574, Note_on_c, 6, 71, 0
12, 241590, Note_on_c, 6, 71, 76
12, 241664, Note_on_c, 6, 71, 0
12, 241680, Note_on_c, 6, 69, 76
12, 241934, Note_on_c, 6, 69, 0
12, 241950, Note_on_c, 6, 69, 76
12, 242024, Note_on_c, 6, 69, 0
12, 242040, Note_on_c, 6, 69, 76
12, 242294, Note_on_c, 6, 69, 0
12, 242310, Note_on_c, 6, 69, 76
12, 242384, Note_on_c, 6, 69, 0
12, 242400, Note_on_c, 6, 69, 76
12, 242654, Note_on_c, 6, 69, 0
12, 242670, Note_on_c, 6, 69, 76
12, 242744, Note_on_c, 6, 69, 0
12, 242760, Note_on_c, 6, 69, 76
12, 243014, Note_on_c, 6, 69, 0
12, 243030, Note_on_c, 6, 69, 76
12, 243104, Note_on_c, 6, 69, 0
12, 243120, Note_on_c, 6, 69, 76
12, 243374, Note_on_c, 6, 69, 0
12, 243390, Note_on_c, 6, 67, 76
12, 243464, Note_on_c, 6, 67, 0
12, 243480, Note_on_c, 6, 64, 76
12, 243734, Note_on_c, 6, 64, 0
12, 243750, Note_on_c, 6, 64, 76
12, 243824, Note_on_c, 6, 64, 0
12, 243840, Note_on_c, 6, 66, 76
12, 244094, Note_on_c, 6, 66, 0
12, 244110, Note_on_c, 6, 66, 76
12, 244184, Note_on_c, 6, 66, 0
12, 244200, Note_on_c, 6, 66, 76
12, 244319, Note_on_c, 6, 66, 0
12, 244320, Note_on_c, 6, 67, 76
12, 244419, Note_on_c, 6, 67, 0
12, 244440, Note_on_c, 6, 64, 76
12, 244539, Note_on_c, 6, 64, 0
12, 244560, Note_on_c, 6, 64, 76
12, 244679, Note_on_c, 6, 64, 0
12, 244680, Note_on_c, 6, 66, 76
12, 244779, Note_on_c, 6, 66, 0
12, 244800, Note_on_c, 6, 62, 76
12, 244899, Note_on_c, 6, 62, 0
12, 244920, Note_on_c, 6, 62, 76
12, 245039, Note_on_c, 6, 62, 0
12, 245040, Note_on_c, 6, 64, 76
12, 245159, Note_on_c, 6, 64, 0
12, 245160, Note_on_c, 6, 66, 76
12, 245259, Note_on_c, 6, 66, 0
12, 245280, Note_on_c, 6, 66, 76
12, 245399, Note_on_c, 6, 66, 0
12, 245400, Note_on_c, 6, 67, 76
12, 245499, Note_on_c, 6, 67, 0
12, 245520, Note_on_c, 6, 64, 76
12, 245619, Note_on_c, 6, 64, 0
12, 245640, Note_on_c, 6, 64, 76
12, 245759, Note_on_c, 6, 64, 0
12, 245760, Note_on_c, 6, 66, 76
12, 245859, Note_on_c, 6, 66, 0
12, 245880, Note_on_c, 6, 62, 76
12, 245979, Note_on_c, 6, 62, 0
12, 246000, Note_on_c, 6, 62, 76
12, 246119, Note_on_c, 6, 62, 0
12, 246360, Note_on_c, 6, 64, 76
12, 246479, Note_on_c, 6, 64, 0
12, 246720, Note_on_c, 6, 66, 76
12, 246839, Note_on_c, 6, 66, 0
12, 247080, Note_on_c, 6, 67, 76
12, 247199, Note_on_c, 6, 67, 0
12, 247440, Note_on_c, 6, 66, 76
12, 247559, Note_on_c, 6, 66, 0
12, 247800, Note_on_c, 6, 68, 76
12, 247919, Note_on_c, 6, 68, 0
12, 248160, Note_on_c, 6, 69, 76
12, 248279, Note_on_c, 6, 69, 0
12, 248520, Note_on_c, 6, 68, 76
12, 248639, Note_on_c, 6, 68, 0
12, 248880, Note_on_c, 6, 70, 76
12, 248999, Note_on_c, 6, 70, 0
12, 249240, Note_on_c, 6, 71, 76
12, 249494, Note_on_c, 6, 71, 0
12, 249510, Note_on_c, 6, 71, 76
12, 249584, Note_on_c, 6, 71, 0
12, 249600, Note_on_c, 6, 71, 76
12, 249719, Note_on_c, 6, 71, 0
12, 249720, Note_on_c, 6, 73, 76
12, 249819, Note_on_c, 6, 73, 0
12, 249840, Note_on_c, 6, 69, 76
12, 249939, Note_on_c, 6, 69, 0
12, 249960, Note_on_c, 6, 69, 76
12, 250079, Note_on_c, 6, 69, 0
12, 250080, Note_on_c, 6, 71, 76
12, 250179, Note_on_c, 6, 71, 0
12, 250200, Note_on_c, 6, 68, 76
12, 250299, Note_on_c, 6, 68, 0
12, 250320, Note_on_c, 6, 68, 76
12, 250439, Note_on_c, 6, 68, 0
12, 250440, Note_on_c, 6, 69, 76
12, 250559, Note_on_c, 6, 69, 0
12, 250560, Note_on_c, 6, 71, 76
12, 250659, Note_on_c, 6, 71, 0
12, 250680, Note_on_c, 6, 73, 76
12, 250799, Note_on_c, 6, 73, 0
12, 250800, Note_on_c, 6, 74, 76
12, 250899, Note_on_c, 6, 74, 0
12, 250920, Note_on_c, 6, 71, 76
12, 251019, Note_on_c, 6, 71, 0
12, 251040, Note_on_c, 6, 71, 76
12, 251159, Note_on_c, 6, 71, 0
12, 251160, Note_on_c, 6, 73, 76
12, 251259, Note_on_c, 6, 73, 0
12, 251280, Note_on_c, 6, 70, 76
12, 251379, Note_on_c, 6, 70, 0
12, 251400, Note_on_c, 6, 70, 76
12, 251654, Note_on_c, 6, 70, 0
12, 251670, Note_on_c, 6, 70, 76
12, 251744, Note_on_c, 6, 70, 0
12, 251760, Note_on_c, 6, 70, 76
12, 252014, Note_on_c, 6, 70, 0
12, 252030, Note_on_c, 6, 70, 76
12, 252104, Note_on_c, 6, 70, 0
12, 252120, Note_on_c, 6, 70, 76
12, 252374, Note_on_c, 6, 70, 0
12, 252390, Note_on_c, 6, 70, 76
12, 252464, Note_on_c, 6, 70, 0
12, 252480, Note_on_c, 6, 69, 76
12, 252734, Note_on_c, 6, 69, 0
12, 252750, Note_on_c, 6, 69, 76
12, 252824, Note_on_c, 6, 69, 0
12, 252840, Note_on_c, 6, 69, 76
12, 253094, Note_on_c, 6, 69, 0
12, 253110, Note_on_c, 6, 69, 76
12, 253184, Note_on_c, 6, 69, 0
12, 253200, Note_on_c, 6, 69, 76
12, 253454, Note_on_c, 6, 69, 0
12, 253470, Note_on_c, 6, 69, 76
12, 253544, Note_on_c, 6, 69, 0
12, 253560, Note_on_c, 6, 68, 76
12, 253814, Note_on_c, 6, 68, 0
12, 253830, Note_on_c, 6, 68, 76
12, 253904, Note_on_c, 6, 68, 0
12, 253920, Note_on_c, 6, 68, 76
12, 254174, Note_on_c, 6, 68, 0
12, 254190, Note_on_c, 6, 68, 76
12, 254264, Note_on_c, 6, 68, 0
12, 254280, Note_on_c, 6, 68, 76
12, 254534, Note_on_c, 6, 68, 0
12, 254550, Note_on_c, 6, 68, 76
12, 254624, Note_on_c, 6, 68, 0
12, 254640, Note_on_c, 6, 67, 76
12, 254894, Note_on_c, 6, 67, 0
12, 254910, Note_on_c, 6, 67, 76
12, 254984, Note_on_c, 6, 67, 0
12, 255000, Note_on_c, 6, 67, 76
12, 255254, Note_on_c, 6, 67, 0
12, 255270, Note_on_c, 6, 67, 76
12, 255344, Note_on_c, 6, 67, 0
12, 255360, Note_on_c, 6, 67, 76
12, 255614, Note_on_c, 6, 67, 0
12, 255630, Note_on_c, 6, 67, 76
12, 255704, Note_on_c, 6, 67, 0
12, 255720, Note_on_c, 6, 66, 76
12, 255974, Note_on_c, 6, 66, 0
12, 255990, Note_on_c, 6, 66, 76
12, 256064, Note_on_c, 6, 66, 0
12, 256080, Note_on_c, 6, 66, 76
12, 256334, Note_on_c, 6, 66, 0
12, 256350, Note_on_c, 6, 66, 76
12, 256424, Note_on_c, 6, 66, 0
12, 256440, Note_on_c, 6, 66, 76
12, 256694, Note_on_c, 6, 66, 0
12, 256710, Note_on_c, 6, 66, 76
12, 256784, Note_on_c, 6, 66, 0
12, 256800, Note_on_c, 6, 65, 76
12, 257054, Note_on_c, 6, 65, 0
12, 257070, Note_on_c, 6, 65, 76
12, 257144, Note_on_c, 6, 65, 0
12, 257160, Note_on_c, 6, 65, 76
12, 257414, Note_on_c, 6, 65, 0
12, 257430, Note_on_c, 6, 65, 76
12, 257504, Note_on_c, 6, 65, 0
12, 257520, Note_on_c, 6, 65, 76
12, 257774, Note_on_c, 6, 65, 0
12, 257790, Note_on_c, 6, 65, 76
12, 257864, Note_on_c, 6, 65, 0
12, 257880, Note_on_c, 6, 64, 76
12, 258134, Note_on_c, 6, 64, 0
12, 258150, Note_on_c, 6, 64, 76
12, 258224, Note_on_c, 6, 64, 0
12, 258240, Note_on_c, 6, 64, 76
12, 258494, Note_on_c, 6, 64, 0
12, 258510, Note_on_c, 6, 64, 76
12, 258584, Note_on_c, 6, 64, 0
12, 258600, Note_on_c, 6, 64, 76
12, 258854, Note_on_c, 6, 64, 0
12, 258870, Note_on_c, 6, 64, 76
12, 258944, Note_on_c, 6, 64, 0
12, 258960, Note_on_c, 6, 63, 76
12, 259214, Note_on_c, 6, 63, 0
12, 259230, Note_on_c, 6, 63, 76
12, 259304, Note_on_c, 6, 63, 0
12, 259320, Note_on_c, 6, 63, 76
12, 259574, Note_on_c, 6, 63, 0
12, 259590, Note_on_c, 6, 63, 76
12, 259664, Note_on_c, 6, 63, 0
12, 259680, Note_on_c, 6, 63, 76
12, 259934, Note_on_c, 6, 63, 0
12, 259950, Note_on_c, 6, 63, 76
12, 260024, Note_on_c, 6, 63, 0
12, 260040, Note_on_c, 6, 62, 76
12, 260294, Note_on_c, 6, 62, 0
12, 260310, Note_on_c, 6, 62, 76
12, 260384, Note_on_c, 6, 62, 0
12, 260400, Note_on_c, 6, 62, 76
12, 260654, Note_on_c, 6, 62, 0
12, 260670, Note_on_c, 6, 62, 76
12, 260744, Note_on_c, 6, 62, 0
12, 260760, Note_on_c, 6, 62, 76
12, 261014, Note_on_c, 6, 62, 0
12, 261030, Note_on_c, 6, 62, 76
12, 261104, Note_on_c, 6, 62, 0
12, 261120, Note_on_c, 6, 60, 76
12, 261239, Note_on_c, 6, 60, 0
12, 261240, Note_on_c, 6, 65, 76
12, 261339, Note_on_c, 6, 65, 0
12, 261360, Note_on_c, 6, 64, 76
12, 261459, Note_on_c, 6, 64, 0
12, 261480, Note_on_c, 6, 64, 76
12, 261599, Note_on_c, 6, 64, 0
12, 261600, Note_on_c, 6, 65, 76
12, 261699, Note_on_c, 6, 65, 0
12, 261720, Note_on_c, 6, 62, 76
12, 261819, Note_on_c, 6, 62, 0
12, 261840, Note_on_c, 6, 62, 76
12, 261959, Note_on_c, 6, 62, 0
12, 261960, Note_on_c, 6, 64, 76
12, 262059, Note_on_c, 6, 64, 0
12, 262080, Note_on_c, 6, 60, 76
12, 262179, Note_on_c, 6, 60, 0
12, 262200, Note_on_c, 6, 60, 76
12, 262319, Note_on_c, 6, 60, 0
12, 262320, Note_on_c, 6, 62, 76
12, 262439, Note_on_c, 6, 62, 0
12, 262440, Note_on_c, 6, 64, 76
12, 262559, Note_on_c, 6, 64, 0
12, 262560, Note_on_c, 6, 65, 76
12, 262679, Note_on_c, 6, 65, 0
12, 262680, Note_on_c, 6, 67, 76
12, 262779, Note_on_c, 6, 67, 0
12, 262800, Note_on_c, 6, 64, 76
12, 262899, Note_on_c, 6, 64, 0
12, 262920, Note_on_c, 6, 64, 76
12, 263039, Note_on_c, 6, 64, 0
12, 263040, Note_on_c, 6, 65, 76
12, 263139, Note_on_c, 6, 65, 0
12, 263160, Note_on_c, 6, 63, 76
12, 263259, Note_on_c, 6, 63, 0
12, 263280, Note_on_c, 6, 63, 76
12, 263399, Note_on_c, 6, 63, 0
12, 264630, Note_on_c, 6, 68, 76
12, 264704, Note_on_c, 6, 68, 0
12, 264720, Note_on_c, 6, 68, 76
12, 264974, Note_on_c, 6, 68, 0
12, 264990, Note_on_c, 6, 68, 76
12, 265064, Note_on_c, 6, 68, 0
12, 265080, Note_on_c, 6, 68, 76
12, 265334, Note_on_c, 6, 68, 0
12, 265350, Note_on_c, 6, 68, 76
12, 265424, Note_on_c, 6, 68, 0
12, 265440, Note_on_c, 6, 69, 76
12, 265559, Note_on_c, 6, 69, 0
12, 265560, Note_on_c, 6, 73, 76
12, 265659, Note_on_c, 6, 73, 0
12, 265680, Note_on_c, 6, 71, 76
12, 265779, Note_on_c, 6, 71, 0
12, 265800, Note_on_c, 6, 69, 76
12, 266054, Note_on_c, 6, 69, 0
12, 266070, Note_on_c, 6, 69, 76
12, 266144, Note_on_c, 6, 69, 0
12, 266160, Note_on_c, 6, 64, 76
12, 266414, Note_on_c, 6, 64, 0
12, 266430, Note_on_c, 6, 64, 76
12, 266504, Note_on_c, 6, 64, 0
12, 266520, Note_on_c, 6, 64, 76
12, 266639, Note_on_c, 6, 64, 0
12, 266880, Note_on_c, 6, 64, 76
12, 266999, Note_on_c, 6, 64, 0
12, 267240, Note_on_c, 6, 71, 76
12, 267359, Note_on_c, 6, 71, 0
12, 267600, Note_on_c, 6, 73, 76
12, 267719, Note_on_c, 6, 73, 0
12, 267960, Note_on_c, 6, 76, 76
12, 268079, Note_on_c, 6, 76, 0
12, 268320, Note_on_c, 6, 64, 76
12, 268439, Note_on_c, 6, 64, 0
12, 268680, Note_on_c, 6, 64, 76
12, 268799, Note_on_c, 6, 64, 0
12, 268800, Note_on_c, 6, 68, 76
12, 268899, Note_on_c, 6, 68, 0
12, 268920, Note_on_c, 6, 66, 76
12, 269019, Note_on_c, 6, 66, 0
12, 269040, Note_on_c, 6, 68, 76
12, 269294, Note_on_c, 6, 68, 0
12, 269310, Note_on_c, 6, 66, 76
12, 269384, Note_on_c, 6, 66, 0
12, 269400, Note_on_c, 6, 68, 76
12, 269654, Note_on_c, 6, 68, 0
12, 269670, Note_on_c, 6, 64, 76
12, 269744, Note_on_c, 6, 64, 0
12, 269760, Note_on_c, 6, 69, 76
12, 270014, Note_on_c, 6, 69, 0
12, 270030, Note_on_c, 6, 76, 76
12, 270104, Note_on_c, 6, 76, 0
12, 270120, Note_on_c, 6, 73, 76
12, 270374, Note_on_c, 6, 73, 0
12, 270390, Note_on_c, 6, 73, 76
12, 270464, Note_on_c, 6, 73, 0
12, 270480, Note_on_c, 6, 71, 76
12, 270734, Note_on_c, 6, 71, 0
12, 270750, Note_on_c, 6, 66, 76
12, 270824, Note_on_c, 6, 66, 0
12, 270840, Note_on_c, 6, 66, 76
12, 271094, Note_on_c, 6, 66, 0
12, 271110, Note_on_c, 6, 66, 76
12, 271184, Note_on_c, 6, 66, 0
12, 271200, Note_on_c, 6, 62, 76
12, 271319, Note_on_c, 6, 62, 0
12, 271320, Note_on_c, 6, 64, 76
12, 271439, Note_on_c, 6, 64, 0
12, 271440, Note_on_c, 6, 66, 76
12, 271539, Note_on_c, 6, 66, 0
12, 271560, Note_on_c, 6, 71, 76
12, 271814, Note_on_c, 6, 71, 0
12, 271830, Note_on_c, 6, 71, 76
12, 271904, Note_on_c, 6, 71, 0
12, 271920, Note_on_c, 6, 71, 76
12, 272279, Note_on_c, 6, 71, 0
12, 272460, Note_on_c, 6, 64, 76
12, 272619, Note_on_c, 6, 64, 0
12, 272640, Note_on_c, 6, 71, 76
12, 272894, Note_on_c, 6, 71, 0
12, 272910, Note_on_c, 6, 71, 76
12, 272984, Note_on_c, 6, 71, 0
12, 273000, Note_on_c, 6, 69, 76
12, 273119, Note_on_c, 6, 69, 0
12, 273120, Note_on_c, 6, 73, 76
12, 273239, Note_on_c, 6, 73, 0
12, 273240, Note_on_c, 6, 71, 76
12, 273339, Note_on_c, 6, 71, 0
12, 273360, Note_on_c, 6, 69, 76
12, 273479, Note_on_c, 6, 69, 0
12, 273480, Note_on_c, 6, 71, 76
12, 273579, Note_on_c, 6, 71, 0
12, 273600, Note_on_c, 6, 68, 76
12, 273699, Note_on_c, 6, 68, 0
12, 273720, Note_on_c, 6, 68, 76
12, 273839, Note_on_c, 6, 68, 0
12, 273840, Note_on_c, 6, 69, 76
12, 273939, Note_on_c, 6, 69, 0
12, 273960, Note_on_c, 6, 64, 76
12, 274059, Note_on_c, 6, 64, 0
12, 274080, Note_on_c, 6, 64, 76
12, 274334, Note_on_c, 6, 64, 0
12, 274350, Note_on_c, 6, 73, 76
12, 274424, Note_on_c, 6, 73, 0
12, 274440, Note_on_c, 6, 74, 76
12, 274694, Note_on_c, 6, 74, 0
12, 274710, Note_on_c, 6, 64, 76
12, 274784, Note_on_c, 6, 64, 0
12, 274800, Note_on_c, 6, 64, 76
12, 275054, Note_on_c, 6, 64, 0
12, 275070, Note_on_c, 6, 66, 76
12, 275144, Note_on_c, 6, 66, 0
12, 275160, Note_on_c, 6, 66, 76
12, 275519, Note_on_c, 6, 66, 0
12, 275700, Note_on_c, 6, 71, 76
12, 275859, Note_on_c, 6, 71, 0
12, 275880, Note_on_c, 6, 66, 76
12, 276134, Note_on_c, 6, 66, 0
12, 276150, Note_on_c, 6, 71, 76
12, 276224, Note_on_c, 6, 71, 0
12, 276240, Note_on_c, 6, 64, 76
12, 276599, Note_on_c, 6, 64, 0
12, 276780, Note_on_c, 6, 69, 76
12, 276939, Note_on_c, 6, 69, 0
12, 276960, Note_on_c, 6, 64, 76
12, 277214, Note_on_c, 6, 64, 0
12, 277230, Note_on_c, 6, 69, 76
12, 277304, Note_on_c, 6, 69, 0
12, 277320, Note_on_c, 6, 62, 76
12, 277574, Note_on_c, 6, 62, 0
12, 277590, Note_on_c, 6, 69, 76
12, 277664, Note_on_c, 6, 69, 0
12, 277680, Note_on_c, 6, 74, 76
12, 277934, Note_on_c, 6, 74, 0
12, 277950, Note_on_c, 6, 69, 76
12, 278024, Note_on_c, 6, 69, 0
12, 278040, Note_on_c, 6, 69, 76
12, 278294, Note_on_c, 6, 69, 0
12, 278310, Note_on_c, 6, 71, 76
12, 278384, Note_on_c, 6, 71, 0
12, 278400, Note_on_c, 6, 71, 76
12, 278519, Note_on_c, 6, 71, 0
12, 278760, Note_on_c, 6, 66, 76
12, 278879, Note_on_c, 6, 66, 0
12, 279120, Note_on_c, 6, 63, 76
12, 279239, Note_on_c, 6, 63, 0
12, 279480, Note_on_c, 6, 71, 76
12, 279599, Note_on_c, 6, 71, 0
12, 279840, Note_on_c, 6, 71, 76
12, 279959, Note_on_c, 6, 71, 0
12, 280200, Note_on_c, 6, 68, 76
12, 280319, Note_on_c, 6, 68, 0
12, 280560, Note_on_c, 6, 64, 76
12, 280679, Note_on_c, 6, 64, 0
12, 280920, Note_on_c, 6, 64, 76
12, 281039, Note_on_c, 6, 64, 0
12, 281280, Note_on_c, 6, 64, 76
12, 281399, Note_on_c, 6, 64, 0
12, 281640, Note_on_c, 6, 69, 76
12, 281759, Note_on_c, 6, 69, 0
12, 282270, Note_on_c, 6, 62, 76
12, 282344, Note_on_c, 6, 62, 0
12, 282360, Note_on_c, 6, 64, 76
12, 282614, Note_on_c, 6, 64, 0
12, 282630, Note_on_c, 6, 71, 76
12, 282704, Note_on_c, 6, 71, 0
12, 282720, Note_on_c, 6, 64, 76
12, 282839, Note_on_c, 6, 64, 0
12, 283350, Note_on_c, 6, 64, 76
12, 283424, Note_on_c, 6, 64, 0
12, 283440, Note_on_c, 6, 66, 76
12, 283694, Note_on_c, 6, 66, 0
12, 283710, Note_on_c, 6, 73, 76
12, 283784, Note_on_c, 6, 73, 0
12, 283800, Note_on_c, 6, 66, 76
12, 283919, Note_on_c, 6, 66, 0
12, 284430, Note_on_c, 6, 69, 76
12, 284504, Note_on_c, 6, 69, 0
12, 284520, Note_on_c, 6, 73, 76
12, 284774, Note_on_c, 6, 73, 0
12, 284790, Note_on_c, 6, 66, 76
12, 284864, Note_on_c, 6, 66, 0
12, 284880, Note_on_c, 6, 66, 76
12, 285134, Note_on_c, 6, 66, 0
12, 285150, Note_on_c, 6, 71, 76
12, 285224, Note_on_c, 6, 71, 0
12, 285240, Note_on_c, 6, 71, 76
12, 285494, Note_on_c, 6, 71, 0
12, 285510, Note_on_c, 6, 71, 76
12, 285584, Note_on_c, 6, 71, 0
12, 285600, Note_on_c, 6, 71, 76
12, 285854, Note_on_c, 6, 71, 0
12, 285870, Note_on_c, 6, 71, 76
12, 285944, Note_on_c, 6, 71, 0
12, 285960, Note_on_c, 6, 71, 76
12, 286079, Note_on_c, 6, 71, 0
12, 286080, Note_on_c, 6, 68, 76
12, 286199, Note_on_c, 6, 68, 0
12, 286200, Note_on_c, 6, 69, 76
12, 286319, Note_on_c, 6, 69, 0
12, 286320, Note_on_c, 6, 71, 76
12, 286439, Note_on_c, 6, 71, 0
12, 286440, Note_on_c, 6, 73, 76
12, 286539, Note_on_c, 6, 73, 0
12, 286560, Note_on_c, 6, 69, 76
12, 286659, Note_on_c, 6, 69, 0
12, 286680, Note_on_c, 6, 71, 76
12, 286799, Note_on_c, 6, 71, 0
12, 286800, Note_on_c, 6, 69, 76
12, 286919, Note_on_c, 6, 69, 0
12, 286920, Note_on_c, 6, 68, 76
12, 287019, Note_on_c, 6, 68, 0
12, 287040, Note_on_c, 6, 69, 76
12, 287294, Note_on_c, 6, 69, 0
12, 287310, Note_on_c, 6, 64, 76
12, 287384, Note_on_c, 6, 64, 0
12, 287400, Note_on_c, 6, 64, 76
12, 287654, Note_on_c, 6, 64, 0
12, 287670, Note_on_c, 6, 69, 76
12, 287744, Note_on_c, 6, 69, 0
12, 287760, Note_on_c, 6, 69, 76
12, 288014, Note_on_c, 6, 69, 0
12, 288030, Note_on_c, 6, 64, 76
12, 288104, Note_on_c, 6, 64, 0
12, 288120, Note_on_c, 6, 64, 76
12, 288479, Note_on_c, 6, 64, 0
12, 289470, Note_on_c, 6, 64, 76
12, 289544, Note_on_c, 6, 64, 0
12, 289560, Note_on_c, 6, 64, 76
12, 289814, Note_on_c, 6, 64, 0
12, 289830, Note_on_c, 6, 68, 76
12, 289904, Note_on_c, 6, 68, 0
12, 289920, Note_on_c, 6, 68, 76
12, 290174, Note_on_c, 6, 68, 0
12, 290190, Note_on_c, 6, 69, 76
12, 290264, Note_on_c, 6, 69, 0
12, 290280, Note_on_c, 6, 69, 76
12, 290399, Note_on_c, 6, 69, 0
12, 291630, Note_on_c, 6, 69, 76
12, 291704, Note_on_c, 6, 69, 0
12, 291720, Note_on_c, 6, 69, 76
12, 291974, Note_on_c, 6, 69, 0
12, 291990, Note_on_c, 6, 69, 76
12, 292064, Note_on_c, 6, 69, 0
12, 292080, Note_on_c, 6, 69, 76
12, 292334, Note_on_c, 6, 69, 0
12, 292350, Note_on_c, 6, 69, 76
12, 292424, Note_on_c, 6, 69, 0
12, 292440, Note_on_c, 6, 69, 76
12, 292694, Note_on_c, 6, 69, 0
12, 292710, Note_on_c, 6, 66, 76
12, 292784, Note_on_c, 6, 66, 0
12, 292800, Note_on_c, 6, 66, 76
12, 292919, Note_on_c, 6, 66, 0
12, 292920, Note_on_c, 6, 69, 76
12, 293019, Note_on_c, 6, 69, 0
12, 293040, Note_on_c, 6, 67, 76
12, 293139, Note_on_c, 6, 67, 0
12, 293160, Note_on_c, 6, 67, 76
12, 293279, Note_on_c, 6, 67, 0
12, 293280, Note_on_c, 6, 71, 76
12, 293379, Note_on_c, 6, 71, 0
12, 293400, Note_on_c, 6, 69, 76
12, 293499, Note_on_c, 6, 69, 0
12, 293520, Note_on_c, 6, 69, 76
12, 293639, Note_on_c, 6, 69, 0
12, 294870, Note_on_c, 6, 62, 76
12, 294944, Note_on_c, 6, 62, 0
12, 294960, Note_on_c, 6, 62, 76
12, 295214, Note_on_c, 6, 62, 0
12, 295230, Note_on_c, 6, 62, 76
12, 295304, Note_on_c, 6, 62, 0
12, 295320, Note_on_c, 6, 62, 76
12, 295574, Note_on_c, 6, 62, 0
12, 295590, Note_on_c, 6, 62, 76
12, 295664, Note_on_c, 6, 62, 0
12, 295680, Note_on_c, 6, 62, 76
12, 295934, Note_on_c, 6, 62, 0
12, 295950, Note_on_c, 6, 62, 76
12, 296024, Note_on_c, 6, 62, 0
12, 296040, Note_on_c, 6, 62, 76
12, 296294, Note_on_c, 6, 62, 0
12, 296310, Note_on_c, 6, 62, 76
12, 296384, Note_on_c, 6, 62, 0
12, 296400, Note_on_c, 6, 62, 76
12, 296654, Note_on_c, 6, 62, 0
12, 296670, Note_on_c, 6, 62, 76
12, 296744, Note_on_c, 6, 62, 0
12, 296760, Note_on_c, 6, 62, 76
12, 297014, Note_on_c, 6, 62, 0
12, 297030, Note_on_c, 6, 60, 76
12, 297104, Note_on_c, 6, 60, 0
12, 297120, Note_on_c, 6, 62, 76
12, 297374, Note_on_c, 6, 62, 0
12, 297390, Note_on_c, 6, 66, 76
12, 297464, Note_on_c, 6, 66, 0
12, 297480, Note_on_c, 6, 66, 76
12, 297734, Note_on_c, 6, 66, 0
12, 297750, Note_on_c, 6, 71, 76
12, 297824, Note_on_c, 6, 71, 0
12, 297840, Note_on_c, 6, 71, 76
12, 298094, Note_on_c, 6, 71, 0
12, 298110, Note_on_c, 6, 64, 76
12, 298184, Note_on_c, 6, 64, 0
12, 298200, Note_on_c, 6, 64, 76
12, 298454, Note_on_c, 6, 64, 0
12, 298470, Note_on_c, 6, 67, 76
12, 298544, Note_on_c, 6, 67, 0
12, 298560, Note_on_c, 6, 67, 76
12, 298814, Note_on_c, 6, 67, 0
12, 298830, Note_on_c, 6, 73, 76
12, 298904, Note_on_c, 6, 73, 0
12, 298920, Note_on_c, 6, 73, 76
12, 299174, Note_on_c, 6, 73, 0
12, 299190, Note_on_c, 6, 66, 76
12, 299264, Note_on_c, 6, 66, 0
12, 299280, Note_on_c, 6, 66, 76
12, 299534, Note_on_c, 6, 66, 0
12, 299550, Note_on_c, 6, 69, 76
12, 299624, Note_on_c, 6, 69, 0
12, 299640, Note_on_c, 6, 69, 76
12, 299894, Note_on_c, 6, 69, 0
12, 299910, Note_on_c, 6, 74, 76
12, 299984, Note_on_c, 6, 74, 0
12, 300000, Note_on_c, 6, 74, 76
12, 300254, Note_on_c, 6, 74, 0
12, 300270, Note_on_c, 6, 68, 76
12, 300344, Note_on_c, 6, 68, 0
12, 300360, Note_on_c, 6, 68, 76
12, 300614, Note_on_c, 6, 68, 0
12, 300630, Note_on_c, 6, 71, 76
12, 300704, Note_on_c, 6, 71, 0
12, 300720, Note_on_c, 6, 71, 76
12, 300974, Note_on_c, 6, 71, 0
12, 300990, Note_on_c, 6, 76, 76
12, 301064, Note_on_c, 6, 76, 0
12, 301080, Note_on_c, 6, 76, 76
12, 301334, Note_on_c, 6, 76, 0
12, 301350, Note_on_c, 6, 66, 76
12, 301424, Note_on_c, 6, 66, 0
12, 301440, Note_on_c, 6, 66, 76
12, 301694, Note_on_c, 6, 66, 0
12, 301710, Note_on_c, 6, 66, 76
12, 301784, Note_on_c, 6, 66, 0
12, 301800, Note_on_c, 6, 66, 76
12, 302054, Note_on_c, 6, 66, 0
12, 302070, Note_on_c, 6, 66, 76
12, 302144, Note_on_c, 6, 66, 0
12, 302160, Note_on_c, 6, 66, 76
12, 302279, Note_on_c, 6, 66, 0
12, 303510, Note_on_c, 6, 66, 76
12, 303584, Note_on_c, 6, 66, 0
12, 303600, Note_on_c, 6, 70, 76
12, 303854, Note_on_c, 6, 70, 0
12, 303870, Note_on_c, 6, 66, 76
12, 303944, Note_on_c, 6, 66, 0
12, 303960, Note_on_c, 6, 66, 76
12, 304214, Note_on_c, 6, 66, 0
12, 304230, Note_on_c, 6, 66, 76
12, 304304, Note_on_c, 6, 66, 0
12, 304320, Note_on_c, 6, 66, 76
12, 304574, Note_on_c, 6, 66, 0
12, 304590, Note_on_c, 6, 70, 76
12, 304664, Note_on_c, 6, 70, 0
12, 304680, Note_on_c, 6, 70, 76
12, 304934, Note_on_c, 6, 70, 0
12, 304950, Note_on_c, 6, 71, 76
12, 305024, Note_on_c, 6, 71, 0
12, 305040, Note_on_c, 6, 64, 76
12, 305294, Note_on_c, 6, 64, 0
12, 305310, Note_on_c, 6, 66, 76
12, 305384, Note_on_c, 6, 66, 0
12, 305400, Note_on_c, 6, 66, 76
12, 305519, Note_on_c, 6, 66, 0
12, 305760, Note_on_c, 6, 66, 76
12, 305879, Note_on_c, 6, 66, 0
12, 306120, Note_on_c, 6, 66, 76
12, 306239, Note_on_c, 6, 66, 0
12, 306480, Note_on_c, 6, 67, 76
12, 306599, Note_on_c, 6, 67, 0
12, 306600, Note_on_c, 6, 71, 76
12, 306719, Note_on_c, 6, 71, 0
12, 306720, Note_on_c, 6, 69, 76
12, 306839, Note_on_c, 6, 69, 0
12, 306840, Note_on_c, 6, 71, 76
12, 306959, Note_on_c, 6, 71, 0
12, 306960, Note_on_c, 6, 72, 76
12, 307059, Note_on_c, 6, 72, 0
12, 307080, Note_on_c, 6, 69, 76
12, 307179, Note_on_c, 6, 69, 0
12, 307200, Note_on_c, 6, 69, 76
12, 307319, Note_on_c, 6, 69, 0
12, 307320, Note_on_c, 6, 71, 76
12, 307419, Note_on_c, 6, 71, 0
12, 307440, Note_on_c, 6, 67, 76
12, 307539, Note_on_c, 6, 67, 0
12, 307560, Note_on_c, 6, 67, 76
12, 307814, Note_on_c, 6, 67, 0
12, 307830, Note_on_c, 6, 71, 76
12, 307904, Note_on_c, 6, 71, 0
12, 307920, Note_on_c, 6, 73, 76
12, 308174, Note_on_c, 6, 73, 0
12, 308190, Note_on_c, 6, 67, 76
12, 308264, Note_on_c, 6, 67, 0
12, 308280, Note_on_c, 6, 67, 76
12, 308534, Note_on_c, 6, 67, 0
12, 308550, Note_on_c, 6, 67, 76
12, 308624, Note_on_c, 6, 67, 0
12, 308640, Note_on_c, 6, 66, 76
12, 308759, Note_on_c, 6, 66, 0
12, 308760, Note_on_c, 6, 68, 76
12, 308879, Note_on_c, 6, 68, 0
12, 308880, Note_on_c, 6, 70, 76
12, 308979, Note_on_c, 6, 70, 0
12, 309000, Note_on_c, 6, 70, 76
12, 309254, Note_on_c, 6, 70, 0
12, 309270, Note_on_c, 6, 64, 76
12, 309344, Note_on_c, 6, 64, 0
12, 309360, Note_on_c, 6, 66, 76
12, 309614, Note_on_c, 6, 66, 0
12, 309630, Note_on_c, 6, 73, 76
12, 309704, Note_on_c, 6, 73, 0
12, 309720, Note_on_c, 6, 66, 76
12, 309974, Note_on_c, 6, 66, 0
12, 309990, Note_on_c, 6, 66, 76
12, 310064, Note_on_c, 6, 66, 0
12, 310080, Note_on_c, 6, 64, 76
12, 310334, Note_on_c, 6, 64, 0
12, 310350, Note_on_c, 6, 64, 76
12, 310424, Note_on_c, 6, 64, 0
12, 310440, Note_on_c, 6, 64, 76
12, 310694, Note_on_c, 6, 64, 0
12, 310710, Note_on_c, 6, 64, 76
12, 310784, Note_on_c, 6, 64, 0
12, 310800, Note_on_c, 6, 62, 76
12, 310919, Note_on_c, 6, 62, 0
12, 313680, Note_on_c, 6, 71, 76
12, 313799, Note_on_c, 6, 71, 0
12, 314760, Note_on_c, 6, 67, 76
12, 314879, Note_on_c, 6, 67, 0
12, 315390, Note_on_c, 6, 69, 76
12, 315464, Note_on_c, 6, 69, 0
12, 315480, Note_on_c, 6, 69, 76
12, 315599, Note_on_c, 6, 69, 0
12, 315600, Note_on_c, 6, 71, 76
12, 315699, Note_on_c, 6, 71, 0
12, 315720, Note_on_c, 6, 67, 76
12, 315819, Note_on_c, 6, 67, 0
12, 315840, Note_on_c, 6, 67, 76
12, 315959, Note_on_c, 6, 67, 0
12, 315960, Note_on_c, 6, 69, 76
12, 316059, Note_on_c, 6, 69, 0
12, 316080, Note_on_c, 6, 66, 76
12, 316179, Note_on_c, 6, 66, 0
12, 316200, Note_on_c, 6, 66, 76
12, 316439, Note_on_c, 6, 66, 0
12, 316830, Note_on_c, 6, 71, 76
12, 316904, Note_on_c, 6, 71, 0
12, 316920, Note_on_c, 6, 71, 76
12, 317174, Note_on_c, 6, 71, 0
12, 317190, Note_on_c, 6, 71, 76
12, 317264, Note_on_c, 6, 71, 0
12, 317280, Note_on_c, 6, 71, 76
12, 317639, Note_on_c, 6, 71, 0
12, 317910, Note_on_c, 6, 72, 76
12, 317984, Note_on_c, 6, 72, 0
12, 318000, Note_on_c, 6, 71, 76
12, 318254, Note_on_c, 6, 71, 0
12, 318270, Note_on_c, 6, 72, 76
12, 318344, Note_on_c, 6, 72, 0
12, 318360, Note_on_c, 6, 66, 76
12, 318719, Note_on_c, 6, 66, 0
12, 318990, Note_on_c, 6, 67, 76
12, 319064, Note_on_c, 6, 67, 0
12, 319080, Note_on_c, 6, 66, 76
12, 319334, Note_on_c, 6, 66, 0
12, 319350, Note_on_c, 6, 71, 76
12, 319424, Note_on_c, 6, 71, 0
12, 319440, Note_on_c, 6, 71, 76
12, 319799, Note_on_c, 6, 71, 0
12, 320070, Note_on_c, 6, 66, 76
12, 320144, Note_on_c, 6, 66, 0
12, 320160, Note_on_c, 6, 64, 76
12, 320414, Note_on_c, 6, 64, 0
12, 320430, Note_on_c, 6, 69, 76
12, 320504, Note_on_c, 6, 69, 0
12, 320520, Note_on_c, 6, 62, 76
12, 320774, Note_on_c, 6, 62, 0
12, 320790, Note_on_c, 6, 62, 76
12, 320864, Note_on_c, 6, 62, 0
12, 320880, Note_on_c, 6, 62, 76
12, 321134, Note_on_c, 6, 62, 0
12, 321150, Note_on_c, 6, 62, 76
12, 321224, Note_on_c, 6, 62, 0
12, 321240, Note_on_c, 6, 62, 76
12, 321494, Note_on_c, 6, 62, 0
12, 321510, Note_on_c, 6, 62, 76
12, 321584, Note_on_c, 6, 62, 0
12, 321600, Note_on_c, 6, 62, 76
12, 321719, Note_on_c, 6, 62, 0
12, 323040, Note_on_c, 6, 62, 76
12, 323159, Note_on_c, 6, 62, 0
12, 323400, Note_on_c, 6, 62, 76
12, 323519, Note_on_c, 6, 62, 0
12, 323760, Note_on_c, 6, 66, 76
12, 324014, Note_on_c, 6, 66, 0
12, 324030, Note_on_c, 6, 66, 76
12, 324104, Note_on_c, 6, 66, 0
12, 324120, Note_on_c, 6, 66, 76
12, 324374, Note_on_c, 6, 66, 0
12, 324390, Note_on_c, 6, 67, 76
12, 324464, Note_on_c, 6, 67, 0
12, 324480, Note_on_c, 6, 60, 76
12, 324734, Note_on_c, 6, 60, 0
12, 324750, Note_on_c, 6, 62, 76
12, 324824, Note_on_c, 6, 62, 0
12, 324840, Note_on_c, 6, 62, 76
12, 324959, Note_on_c, 6, 62, 0
12, 325200, Note_on_c, 6, 62, 76
12, 325319, Note_on_c, 6, 62, 0
12, 325560, Note_on_c, 6, 66, 76
12, 325679, Note_on_c, 6, 66, 0
12, 325920, Note_on_c, 6, 71, 76
12, 326039, Note_on_c, 6, 71, 0
12, 326040, Note_on_c, 6, 64, 76
12, 326159, Note_on_c, 6, 64, 0
12, 326160, Note_on_c, 6, 65, 76
12, 326279, Note_on_c, 6, 65, 0
12, 326280, Note_on_c, 6, 67, 76
12, 326399, Note_on_c, 6, 67, 0
12, 326400, Note_on_c, 6, 69, 76
12, 326499, Note_on_c, 6, 69, 0
12, 326520, Note_on_c, 6, 65, 76
12, 326619, Note_on_c, 6, 65, 0
12, 326640, Note_on_c, 6, 65, 76
12, 326759, Note_on_c, 6, 65, 0
12, 326760, Note_on_c, 6, 67, 76
12, 326859, Note_on_c, 6, 67, 0
12, 326880, Note_on_c, 6, 64, 76
12, 326979, Note_on_c, 6, 64, 0
12, 327000, Note_on_c, 6, 64, 76
12, 327254, Note_on_c, 6, 64, 0
12, 327270, Note_on_c, 6, 67, 76
12, 327344, Note_on_c, 6, 67, 0
12, 327360, Note_on_c, 6, 69, 76
12, 327614, Note_on_c, 6, 69, 0
12, 327630, Note_on_c, 6, 64, 76
12, 327704, Note_on_c, 6, 64, 0
12, 327720, Note_on_c, 6, 64, 76
12, 327974, Note_on_c, 6, 64, 0
12, 327990, Note_on_c, 6, 64, 76
12, 328064, Note_on_c, 6, 64, 0
12, 328080, Note_on_c, 6, 62, 76
12, 328199, Note_on_c, 6, 62, 0
12, 328200, Note_on_c, 6, 64, 76
12, 328319, Note_on_c, 6, 64, 0
12, 328320, Note_on_c, 6, 66, 76
12, 328419, Note_on_c, 6, 66, 0
12, 328440, Note_on_c, 6, 66, 76
12, 328559, Note_on_c, 6, 66, 0
12, 328560, Note_on_c, 6, 67, 76
12, 328679, Note_on_c, 6, 67, 0
12, 328680, Note_on_c, 6, 69, 76
12, 328779, Note_on_c, 6, 69, 0
12, 328800, Note_on_c, 6, 62, 76
12, 329054, Note_on_c, 6, 62, 0
12, 329070, Note_on_c, 6, 69, 76
12, 329144, Note_on_c, 6, 69, 0
12, 329160, Note_on_c, 6, 71, 76
12, 329414, Note_on_c, 6, 71, 0
12, 329430, Note_on_c, 6, 69, 76
12, 329504, Note_on_c, 6, 69, 0
12, 329520, Note_on_c, 6, 67, 76
12, 329774, Note_on_c, 6, 67, 0
12, 329790, Note_on_c, 6, 69, 76
12, 329864, Note_on_c, 6, 69, 0
12, 329880, Note_on_c, 6, 62, 76
12, 330134, Note_on_c, 6, 62, 0
12, 330150, Note_on_c, 6, 62, 76
12, 330224, Note_on_c, 6, 62, 0
12, 330240, Note_on_c, 6, 62, 76
12, 330359, Note_on_c, 6, 62, 0
12, 330600, Note_on_c, 6, 62, 76
12, 330719, Note_on_c, 6, 62, 0
12, 330960, Note_on_c, 6, 69, 76
12, 331079, Note_on_c, 6, 69, 0
12, 331320, Note_on_c, 6, 71, 76
12, 331439, Note_on_c, 6, 71, 0
12, 331680, Note_on_c, 6, 74, 76
12, 331799, Note_on_c, 6, 74, 0
12, 332040, Note_on_c, 6, 62, 76
12, 332159, Note_on_c, 6, 62, 0
12, 332400, Note_on_c, 6, 62, 76
12, 332519, Note_on_c, 6, 62, 0
12, 354270, Note_on_c, 6, 66, 76
12, 354344, Note_on_c, 6, 66, 0
12, 354360, Note_on_c, 6, 66, 76
12, 354614, Note_on_c, 6, 66, 0
12, 354630, Note_on_c, 6, 69, 76
12, 354704, Note_on_c, 6, 69, 0
12, 354720, Note_on_c, 6, 66, 76
12, 354974, Note_on_c, 6, 66, 0
12, 354990, Note_on_c, 6, 62, 76
12, 355064, Note_on_c, 6, 62, 0
12, 355080, Note_on_c, 6, 67, 76
12, 355334, Note_on_c, 6, 67, 0
12, 355350, Note_on_c, 6, 71, 76
12, 355424, Note_on_c, 6, 71, 0
12, 355440, Note_on_c, 6, 67, 76
12, 355559, Note_on_c, 6, 67, 0
12, 355560, Note_on_c, 6, 69, 76
12, 355679, Note_on_c, 6, 69, 0
12, 355680, Note_on_c, 6, 71, 76
12, 355779, Note_on_c, 6, 71, 0
12, 355800, Note_on_c, 6, 64, 76
12, 356054, Note_on_c, 6, 64, 0
12, 356070, Note_on_c, 6, 64, 76
12, 356144, Note_on_c, 6, 64, 0
12, 356160, Note_on_c, 6, 64, 76
12, 356519, Note_on_c, 6, 64, 0
12, 356790, Note_on_c, 6, 69, 76
12, 356864, Note_on_c, 6, 69, 0
12, 356880, Note_on_c, 6, 64, 76
12, 357134, Note_on_c, 6, 64, 0
12, 357150, Note_on_c, 6, 69, 76
12, 357224, Note_on_c, 6, 69, 0
12, 357240, Note_on_c, 6, 62, 76
12, 357359, Note_on_c, 6, 62, 0
12, 357360, Note_on_c, 6, 66, 76
12, 357479, Note_on_c, 6, 66, 0
12, 357480, Note_on_c, 6, 67, 76
12, 357579, Note_on_c, 6, 67, 0
12, 357600, Note_on_c, 6, 69, 76
12, 357854, Note_on_c, 6, 69, 0
12, 357870, Note_on_c, 6, 73, 76
12, 357944, Note_on_c, 6, 73, 0
12, 357960, Note_on_c, 6, 64, 76
12, 358214, Note_on_c, 6, 64, 0
12, 358230, Note_on_c, 6, 66, 76
12, 358304, Note_on_c, 6, 66, 0
12, 358320, Note_on_c, 6, 66, 76
12, 358574, Note_on_c, 6, 66, 0
12, 358590, Note_on_c, 6, 66, 76
12, 358664, Note_on_c, 6, 66, 0
12, 358680, Note_on_c, 6, 62, 76
12, 358799, Note_on_c, 6, 62, 0
12, 358800, Note_on_c, 6, 64, 76
12, 358919, Note_on_c, 6, 64, 0
12, 358920, Note_on_c, 6, 66, 76
12, 359019, Note_on_c, 6, 66, 0
12, 359040, Note_on_c, 6, 71, 76
12, 359294, Note_on_c, 6, 71, 0
12, 359310, Note_on_c, 6, 71, 76
12, 359384, Note_on_c, 6, 71, 0
12, 359400, Note_on_c, 6, 71, 76
12, 359759, Note_on_c, 6, 71, 0
12, 360030, Note_on_c, 6, 64, 76
12, 360104, Note_on_c, 6, 64, 0
12, 360120, Note_on_c, 6, 64, 76
12, 360374, Note_on_c, 6, 64, 0
12, 360390, Note_on_c, 6, 64, 76
12, 360464, Note_on_c, 6, 64, 0
12, 360480, Note_on_c, 6, 64, 76
12, 360839, Note_on_c, 6, 64, 0
12, 361110, Note_on_c, 6, 62, 76
12, 361184, Note_on_c, 6, 62, 0
12, 361200, Note_on_c, 6, 62, 76
12, 361454, Note_on_c, 6, 62, 0
12, 361470, Note_on_c, 6, 62, 76
12, 361544, Note_on_c, 6, 62, 0
12, 361560, Note_on_c, 6, 62, 76
12, 361679, Note_on_c, 6, 62, 0
12, 361920, Note_on_c, 6, 64, 76
12, 362039, Note_on_c, 6, 64, 0
12, 362280, Note_on_c, 6, 66, 76
12, 362399, Note_on_c, 6, 66, 0
12, 362640, Note_on_c, 6, 71, 76
12, 362759, Note_on_c, 6, 71, 0
12, 363000, Note_on_c, 6, 71, 76
12, 363119, Note_on_c, 6, 71, 0
12, 363360, Note_on_c, 6, 68, 76
12, 363479, Note_on_c, 6, 68, 0
12, 363720, Note_on_c, 6, 64, 76
12, 363839, Note_on_c, 6, 64, 0
12, 364080, Note_on_c, 6, 76, 76
12, 364199, Note_on_c, 6, 76, 0
12, 364440, Note_on_c, 6, 73, 76
12, 364559, Note_on_c, 6, 73, 0
12, 364800, Note_on_c, 6, 69, 76
12, 364919, Note_on_c, 6, 69, 0
12, 365160, Note_on_c, 6, 69, 76
12, 365279, Note_on_c, 6, 69, 0
12, 365520, Note_on_c, 6, 66, 76
12, 365639, Note_on_c, 6, 66, 0
12, 365880, Note_on_c, 6, 62, 76
12, 365999, Note_on_c, 6, 62, 0
12, 366510, Note_on_c, 6, 67, 76
12, 366584, Note_on_c, 6, 67, 0
12, 366600, Note_on_c, 6, 69, 76
12, 366854, Note_on_c, 6, 69, 0
12, 366870, Note_on_c, 6, 64, 76
12, 366944, Note_on_c, 6, 64, 0
12, 366960, Note_on_c, 6, 69, 76
12, 367079, Note_on_c, 6, 69, 0
12, 367590, Note_on_c, 6, 69, 76
12, 367664, Note_on_c, 6, 69, 0
12, 367680, Note_on_c, 6, 71, 76
12, 367934, Note_on_c, 6, 71, 0
12, 367950, Note_on_c, 6, 66, 76
12, 368024, Note_on_c, 6, 66, 0
12, 368040, Note_on_c, 6, 71, 76
12, 368159, Note_on_c, 6, 71, 0
12, 368670, Note_on_c, 6, 64, 76
12, 368744, Note_on_c, 6, 64, 0
12, 368760, Note_on_c, 6, 69, 76
12, 369014, Note_on_c, 6, 69, 0
12, 369030, Note_on_c, 6, 71, 76
12, 369104, Note_on_c, 6, 71, 0
12, 369120, Note_on_c, 6, 71, 76
12, 369374, Note_on_c, 6, 71, 0
12, 369390, Note_on_c, 6, 71, 76
12, 369464, Note_on_c, 6, 71, 0
12, 369480, Note_on_c, 6, 71, 76
12, 369734, Note_on_c, 6, 71, 0
12, 369750, Note_on_c, 6, 71, 76
12, 369824, Note_on_c, 6, 71, 0
12, 369840, Note_on_c, 6, 71, 76
12, 370094, Note_on_c, 6, 71, 0
12, 370110, Note_on_c, 6, 71, 76
12, 370184, Note_on_c, 6, 71, 0
12, 370200, Note_on_c, 6, 69, 76
12, 370454, Note_on_c, 6, 69, 0
12, 370470, Note_on_c, 6, 69, 76
12, 370544, Note_on_c, 6, 69, 0
12, 370560, Note_on_c, 6, 69, 76
12, 370814, Note_on_c, 6, 69, 0
12, 370830, Note_on_c, 6, 69, 76
12, 370904, Note_on_c, 6, 69, 0
12, 370920, Note_on_c, 6, 69, 76
12, 371174, Note_on_c, 6, 69, 0
12, 371190, Note_on_c, 6, 69, 76
12, 371264, Note_on_c, 6, 69, 0
12, 371280, Note_on_c, 6, 69, 76
12, 371534, Note_on_c, 6, 69, 0
12, 371550, Note_on_c, 6, 69, 76
12, 371624, Note_on_c, 6, 69, 0
12, 371640, Note_on_c, 6, 69, 76
12, 371894, Note_on_c, 6, 69, 0
12, 371910, Note_on_c, 6, 67, 76
12, 371984, Note_on_c, 6, 67, 0
12, 372000, Note_on_c, 6, 64, 76
12, 372254, Note_on_c, 6, 64, 0
12, 372270, Note_on_c, 6, 64, 76
12, 372344, Note_on_c, 6, 64, 0
12, 372360, Note_on_c, 6, 66, 76
12, 372479, Note_on_c, 6, 66, 0
12, 372720, Note_on_c, 6, 69, 76
12, 372839, Note_on_c, 6, 69, 0
12, 373080, Note_on_c, 6, 73, 76
12, 373199, Note_on_c, 6, 73, 0
12, 373440, Note_on_c, 6, 78, 76
12, 373559, Note_on_c, 6, 78, 0
12, 373800, Note_on_c, 6, 69, 76
12, 373919, Note_on_c, 6, 69, 0
12, 374160, Note_on_c, 6, 73, 76
12, 374279, Note_on_c, 6, 73, 0
12, 374520, Note_on_c, 6, 66, 76
12, 374693, Note_on_c, 6, 66, 0
12, 374700, Note_on_c, 6, 69, 76
12, 374753, Note_on_c, 6, 69, 0
12, 374760, Note_on_c, 6, 69, 76
12, 374933, Note_on_c, 6, 69, 0
12, 374940, Note_on_c, 6, 66, 76
12, 374993, Note_on_c, 6, 66, 0
12, 375000, Note_on_c, 6, 62, 76
12, 375479, Note_on_c, 6, 62, 0
12, 375660, Note_on_c, 6, 74, 76
12, 375713, Note_on_c, 6, 74, 0
12, 375720, Note_on_c, 6, 74, 76
12, 375893, Note_on_c, 6, 74, 0
12, 375900, Note_on_c, 6, 69, 76
12, 375953, Note_on_c, 6, 69, 0
12, 375960, Note_on_c, 6, 66, 76
12, 376439, Note_on_c, 6, 66, 0
12, 376620, Note_on_c, 6, 66, 76
12, 376673, Note_on_c, 6, 66, 0
12, 376680, Note_on_c, 6, 66, 76
12, 376853, Note_on_c, 6, 66, 0
12, 376860, Note_on_c, 6, 72, 76
12, 376913, Note_on_c, 6, 72, 0
12, 376920, Note_on_c, 6, 71, 76
12, 377159, Note_on_c, 6, 71, 0
12, 377280, Note_on_c, 6, 71, 76
12, 377389, Note_on_c, 6, 71, 0
12, 377400, Note_on_c, 6, 71, 76
12, 378359, Note_on_c, 6, 71, 0
12, 378480, Note_on_c, 6, 79, 76
12, 378539, Note_on_c, 6, 79, 0
12, 378540, Note_on_c, 6, 78, 76
12, 378599, Note_on_c, 6, 78, 0
12, 378600, Note_on_c, 6, 76, 76
12, 378659, Note_on_c, 6, 76, 0
12, 378660, Note_on_c, 6, 74, 76
12, 378719, Note_on_c, 6, 74, 0
12, 378720, Note_on_c, 6, 73, 76
12, 378779, Note_on_c, 6, 73, 0
12, 378780, Note_on_c, 6, 71, 76
12, 378839, Note_on_c, 6, 71, 0
12, 378840, Note_on_c, 6, 69, 76
12, 378899, Note_on_c, 6, 69, 0
12, 378900, Note_on_c, 6, 71, 76
12, 378959, Note_on_c, 6, 71, 0
12, 378960, Note_on_c, 6, 73, 76
12, 379019, Note_on_c, 6, 73, 0
12, 379020, Note_on_c, 6, 74, 76
12, 379079, Note_on_c, 6, 74, 0
12, 379080, Note_on_c, 6, 76, 76
12, 379139, Note_on_c, 6, 76, 0
12, 379140, Note_on_c, 6, 74, 76
12, 379199, Note_on_c, 6, 74, 0
12, 379200, Note_on_c, 6, 76, 76
12, 379259, Note_on_c, 6, 76, 0
12, 379260, Note_on_c, 6, 73, 76
12, 379313, Note_on_c, 6, 73, 0
12, 379320, Note_on_c, 6, 74, 76
12, 379493, Note_on_c, 6, 74, 0
12, 379500, Note_on_c, 6, 66, 76
12, 379553, Note_on_c, 6, 66, 0
12, 379560, Note_on_c, 6, 66, 76
12, 379733, Note_on_c, 6, 66, 0
12, 379740, Note_on_c, 6, 69, 76
12, 379793, Note_on_c, 6, 69, 0
12, 379800, Note_on_c, 6, 74, 76
12, 380279, Note_on_c, 6, 74, 0
12, 380460, Note_on_c, 6, 74, 76
12, 380513, Note_on_c, 6, 74, 0
12, 380520, Note_on_c, 6, 74, 76
12, 380693, Note_on_c, 6, 74, 0
12, 380700, Note_on_c, 6, 72, 76
12, 380753, Note_on_c, 6, 72, 0
12, 380760, Note_on_c, 6, 71, 76
12, 381239, Note_on_c, 6, 71, 0
12, 381420, Note_on_c, 6, 73, 76
12, 381473, Note_on_c, 6, 73, 0
12, 381480, Note_on_c, 6, 73, 76
12, 381653, Note_on_c, 6, 73, 0
12, 381660, Note_on_c, 6, 69, 76
12, 381713, Note_on_c, 6, 69, 0
12, 381720, Note_on_c, 6, 62, 76
12, 381959, Note_on_c, 6, 62, 0
12, 382080, Note_on_c, 6, 69, 76
12, 382189, Note_on_c, 6, 69, 0
12, 382200, Note_on_c, 6, 71, 76
12, 382549, Note_on_c, 6, 71, 0
12, 382560, Note_on_c, 6, 71, 76
12, 382669, Note_on_c, 6, 71, 0
12, 382680, Note_on_c, 6, 69, 76
12, 382909, Note_on_c, 6, 69, 0
12, 382920, Note_on_c, 6, 64, 76
12, 383149, Note_on_c, 6, 64, 0
12, 383160, Note_on_c, 6, 62, 76
12, 383639, Note_on_c, 6, 62, 0
12, 383820, Note_on_c, 6, 62, 76
12, 383873, Note_on_c, 6, 62, 0
12, 383880, Note_on_c, 6, 62, 76
12, 384053, Note_on_c, 6, 62, 0
12, 384060, Note_on_c, 6, 64, 76
12, 384113, Note_on_c, 6, 64, 0
12, 384120, Note_on_c, 6, 64, 76
12, 384469, Note_on_c, 6, 64, 0
12, 384480, Note_on_c, 6, 67, 76
12, 384589, Note_on_c, 6, 67, 0
12, 384600, Note_on_c, 6, 66, 76
12, 384829, Note_on_c, 6, 66, 0
12, 384840, Note_on_c, 6, 66, 76
12, 385069, Note_on_c, 6, 66, 0
12, 385080, Note_on_c, 6, 66, 76
12, 385253, Note_on_c, 6, 66, 0
12, 385260, Note_on_c, 6, 71, 76
12, 385313, Note_on_c, 6, 71, 0
12, 385320, Note_on_c, 6, 71, 76
12, 385493, Note_on_c, 6, 71, 0
12, 385500, Note_on_c, 6, 66, 76
12, 385553, Note_on_c, 6, 66, 0
12, 385560, Note_on_c, 6, 62, 76
12, 386039, Note_on_c, 6, 62, 0
12, 386220, Note_on_c, 6, 64, 76
12, 386273, Note_on_c, 6, 64, 0
12, 386280, Note_on_c, 6, 62, 76
12, 386453, Note_on_c, 6, 62, 0
12, 386460, Note_on_c, 6, 67, 76
12, 386513, Note_on_c, 6, 67, 0
12, 386520, Note_on_c, 6, 66, 76
12, 386693, Note_on_c, 6, 66, 0
12, 386700, Note_on_c, 6, 62, 76
12, 386753, Note_on_c, 6, 62, 0
12, 386760, Note_on_c, 6, 67, 76
12, 386933, Note_on_c, 6, 67, 0
12, 386940, Note_on_c, 6, 69, 76
12, 386993, Note_on_c, 6, 69, 0
12, 387000, Note_on_c, 6, 69, 76
12, 387479, Note_on_c, 6, 69, 0
12, 387660, Note_on_c, 6, 64, 76
12, 387713, Note_on_c, 6, 64, 0
12, 387720, Note_on_c, 6, 67, 76
12, 387893, Note_on_c, 6, 67, 0
12, 387900, Note_on_c, 6, 73, 76
12, 387953, Note_on_c, 6, 73, 0
12, 387960, Note_on_c, 6, 69, 76
12, 388439, Note_on_c, 6, 69, 0
12, 388620, Note_on_c, 6, 66, 76
12, 388673, Note_on_c, 6, 66, 0
12, 388680, Note_on_c, 6, 69, 76
12, 388853, Note_on_c, 6, 69, 0
12, 388860, Note_on_c, 6, 74, 76
12, 388913, Note_on_c, 6, 74, 0
12, 388920, Note_on_c, 6, 73, 76
12, 389399, Note_on_c, 6, 73, 0
12, 389580, Note_on_c, 6, 67, 76
12, 389633, Note_on_c, 6, 67, 0
12, 389640, Note_on_c, 6, 73, 76
12, 389813, Note_on_c, 6, 73, 0
12, 389820, Note_on_c, 6, 76, 76
12, 389873, Note_on_c, 6, 76, 0
12, 389880, Note_on_c, 6, 74, 76
12, 390119, Note_on_c, 6, 74, 0
12, 390300, Note_on_c, 6, 74, 76
12, 390353, Note_on_c, 6, 74, 0
12, 390360, Note_on_c, 6, 71, 76
12, 390599, Note_on_c, 6, 71, 0
12, 390780, Note_on_c, 6, 73, 76
12, 390833, Note_on_c, 6, 73, 0
12, 390840, Note_on_c, 6, 69, 76
12, 391319, Note_on_c, 6, 69, 0
12, 391500, Note_on_c, 6, 62, 76
12, 391553, Note_on_c, 6, 62, 0
12, 391560, Note_on_c, 6, 69, 76
12, 391733, Note_on_c, 6, 69, 0
12, 391740, Note_on_c, 6, 74, 76
12, 391793, Note_on_c, 6, 74, 0
12, 391800, Note_on_c, 6, 74, 76
12, 391973, Note_on_c, 6, 74, 0
12, 391980, Note_on_c, 6, 72, 76
12, 392033, Note_on_c, 6, 72, 0
12, 392040, Note_on_c, 6, 71, 76
12, 392213, Note_on_c, 6, 71, 0
12, 392220, Note_on_c, 6, 67, 76
12, 392273, Note_on_c, 6, 67, 0
12, 392280, Note_on_c, 6, 66, 76
12, 392453, Note_on_c, 6, 66, 0
12, 392460, Note_on_c, 6, 66, 76
12, 392513, Note_on_c, 6, 66, 0
12, 392520, Note_on_c, 6, 71, 76
12, 392693, Note_on_c, 6, 71, 0
12, 392700, Note_on_c, 6, 67, 76
12, 392753, Note_on_c, 6, 67, 0
12, 392760, Note_on_c, 6, 69, 76
12, 392933, Note_on_c, 6, 69, 0
12, 392940, Note_on_c, 6, 69, 76
12, 392993, Note_on_c, 6, 69, 0
12, 393000, Note_on_c, 6, 69, 76
12, 393173, Note_on_c, 6, 69, 0
12, 393180, Note_on_c, 6, 67, 76
12, 393233, Note_on_c, 6, 67, 0
12, 393240, Note_on_c, 6, 64, 76
12, 393254, Note_on_c, 6, 64, 0
12, 393255, Note_on_c, 6, 66, 76
12, 393269, Note_on_c, 6, 66, 0
12, 393270, Note_on_c, 6, 64, 76
12, 393284, Note_on_c, 6, 64, 0
12, 393285, Note_on_c, 6, 66, 76
12, 393299, Note_on_c, 6, 66, 0
12, 393300, Note_on_c, 6, 64, 76
12, 393314, Note_on_c, 6, 64, 0
12, 393315, Note_on_c, 6, 66, 76
12, 393329, Note_on_c, 6, 66, 0
12, 393330, Note_on_c, 6, 64, 76
12, 393344, Note_on_c, 6, 64, 0
12, 393345, Note_on_c, 6, 66, 76
12, 393359, Note_on_c, 6, 66, 0
12, 393360, Note_on_c, 6, 64, 76
12, 393374, Note_on_c, 6, 64, 0
12, 393375, Note_on_c, 6, 66, 76
12, 393389, Note_on_c, 6, 66, 0
12, 393390, Note_on_c, 6, 64, 76
12, 393404, Note_on_c, 6, 64, 0
12, 393405, Note_on_c, 6, 66, 76
12, 393419, Note_on_c, 6, 66, 0
12, 393420, Note_on_c, 6, 64, 76
12, 393434, Note_on_c, 6, 64, 0
12, 393435, Note_on_c, 6, 66, 76
12, 393449, Note_on_c, 6, 66, 0
12, 393450, Note_on_c, 6, 64, 76
12, 393464, Note_on_c, 6, 64, 0
12, 393465, Note_on_c, 6, 66, 76
12, 393479, Note_on_c, 6, 66, 0
12, 393480, Note_on_c, 6, 64, 76
12, 393494, Note_on_c, 6, 64, 0
12, 393495, Note_on_c, 6, 66, 76
12, 393509, Note_on_c, 6, 66, 0
12, 393510, Note_on_c, 6, 64, 76
12, 393524, Note_on_c, 6, 64, 0
12, 393525, Note_on_c, 6, 66, 76
12, 393539, Note_on_c, 6, 66, 0
12, 393540, Note_on_c, 6, 64, 76
12, 393554, Note_on_c, 6, 64, 0
12, 393555, Note_on_c, 6, 66, 76
12, 393569, Note_on_c, 6, 66, 0
12, 393570, Note_on_c, 6, 62, 76
12, 393584, Note_on_c, 6, 62, 0
12, 393585, Note_on_c, 6, 64, 76
12, 393599, Note_on_c, 6, 64, 0
12, 393600, Note_on_c, 6, 66, 76
12, 393709, Note_on_c, 6, 66, 0
12, 393720, Note_on_c, 6, 66, 76
12, 394679, Note_on_c, 6, 66, 0
12, 394679, End_track
13, 0, Start_track
13, 0, Title_t, "Bassoon"
13, 0, MIDI_port, 0
13, 0, Program_c, 7, 70
13, 0, Control_c, 7, 10, 74
13, 0, Control_c, 7, 11, 127
13, 0, Control_c, 7, 7, 88
13, 180, Note_on_c, 7, 50, 76
13, 233, Note_on_c, 7, 50, 0
13, 240, Note_on_c, 7, 50, 76
13, 1133, Note_on_c, 7, 50, 0
13, 1140, Note_on_c, 7, 50, 76
13, 1193, Note_on_c, 7, 50, 0
13, 1200, Note_on_c, 7, 50, 76
13, 2093, Note_on_c, 7, 50, 0
13, 2100, Note_on_c, 7, 50, 76
13, 2153, Note_on_c, 7, 50, 0
13, 2160, Note_on_c, 7, 50, 76
13, 3053, Note_on_c, 7, 50, 0
13, 3060, Note_on_c, 7, 50, 76
13, 3113, Note_on_c, 7, 50, 0
13, 3120, Note_on_c, 7, 50, 76
13, 3413, Note_on_c, 7, 50, 0
13, 3420, Note_on_c, 7, 49, 76
13, 3473, Note_on_c, 7, 49, 0
13, 3480, Note_on_c, 7, 50, 76
13, 3533, Note_on_c, 7, 50, 0
13, 3540, Note_on_c, 7, 47, 76
13, 3593, Note_on_c, 7, 47, 0
13, 3600, Note_on_c, 7, 49, 76
13, 3829, Note_on_c, 7, 49, 0
13, 3840, Note_on_c, 7, 45, 76
13, 4069, Note_on_c, 7, 45, 0
13, 4080, Note_on_c, 7, 50, 76
13, 4373, Note_on_c, 7, 50, 0
13, 4380, Note_on_c, 7, 49, 76
13, 4433, Note_on_c, 7, 49, 0
13, 4440, Note_on_c, 7, 50, 76
13, 4493, Note_on_c, 7, 50, 0
13, 4500, Note_on_c, 7, 52, 76
13, 4553, Note_on_c, 7, 52, 0
13, 4560, Note_on_c, 7, 54, 76
13, 4613, Note_on_c, 7, 54, 0
13, 4620, Note_on_c, 7, 55, 76
13, 4673, Note_on_c, 7, 55, 0
13, 4680, Note_on_c, 7, 57, 76
13, 4733, Note_on_c, 7, 57, 0
13, 4740, Note_on_c, 7, 59, 76
13, 4793, Note_on_c, 7, 59, 0
13, 4800, Note_on_c, 7, 60, 76
13, 4853, Note_on_c, 7, 60, 0
13, 4860, Note_on_c, 7, 59, 76
13, 4913, Note_on_c, 7, 59, 0
13, 4920, Note_on_c, 7, 60, 76
13, 4973, Note_on_c, 7, 60, 0
13, 4980, Note_on_c, 7, 57, 76
13, 5033, Note_on_c, 7, 57, 0
13, 5040, Note_on_c, 7, 51, 76
13, 5333, Note_on_c, 7, 51, 0
13, 5340, Note_on_c, 7, 49, 76
13, 5393, Note_on_c, 7, 49, 0
13, 5400, Note_on_c, 7, 51, 76
13, 5453, Note_on_c, 7, 51, 0
13, 5460, Note_on_c, 7, 47, 76
13, 5513, Note_on_c, 7, 47, 0
13, 5520, Note_on_c, 7, 59, 76
13, 5749, Note_on_c, 7, 59, 0
13, 5760, Note_on_c, 7, 47, 76
13, 5989, Note_on_c, 7, 47, 0
13, 6000, Note_on_c, 7, 52, 76
13, 6653, Note_on_c, 7, 52, 0
13, 6660, Note_on_c, 7, 52, 76
13, 6713, Note_on_c, 7, 52, 0
13, 6720, Note_on_c, 7, 54, 76
13, 6893, Note_on_c, 7, 54, 0
13, 6900, Note_on_c, 7, 50, 76
13, 6953, Note_on_c, 7, 50, 0
13, 6960, Note_on_c, 7, 55, 76
13, 7133, Note_on_c, 7, 55, 0
13, 7140, Note_on_c, 7, 54, 76
13, 7193, Note_on_c, 7, 54, 0
13, 7200, Note_on_c, 7, 55, 76
13, 7373, Note_on_c, 7, 55, 0
13, 7380, Note_on_c, 7, 52, 76
13, 7433, Note_on_c, 7, 52, 0
13, 7440, Note_on_c, 7, 54, 76
13, 7613, Note_on_c, 7, 54, 0
13, 7620, Note_on_c, 7, 52, 76
13, 7673, Note_on_c, 7, 52, 0
13, 7680, Note_on_c, 7, 54, 76
13, 7853, Note_on_c, 7, 54, 0
13, 7860, Note_on_c, 7, 55, 76
13, 7913, Note_on_c, 7, 55, 0
13, 7920, Note_on_c, 7, 57, 76
13, 8813, Note_on_c, 7, 57, 0
13, 8820, Note_on_c, 7, 57, 76
13, 8873, Note_on_c, 7, 57, 0
13, 8880, Note_on_c, 7, 57, 76
13, 9773, Note_on_c, 7, 57, 0
13, 9780, Note_on_c, 7, 57, 76
13, 9833, Note_on_c, 7, 57, 0
13, 9840, Note_on_c, 7, 57, 76
13, 10733, Note_on_c, 7, 57, 0
13, 10740, Note_on_c, 7, 57, 76
13, 10793, Note_on_c, 7, 57, 0
13, 10800, Note_on_c, 7, 57, 76
13, 11093, Note_on_c, 7, 57, 0
13, 11100, Note_on_c, 7, 56, 76
13, 11153, Note_on_c, 7, 56, 0
13, 11160, Note_on_c, 7, 57, 76
13, 11213, Note_on_c, 7, 57, 0
13, 11220, Note_on_c, 7, 54, 76
13, 11273, Note_on_c, 7, 54, 0
13, 11280, Note_on_c, 7, 56, 76
13, 11509, Note_on_c, 7, 56, 0
13, 11520, Note_on_c, 7, 52, 76
13, 11749, Note_on_c, 7, 52, 0
13, 11760, Note_on_c, 7, 57, 76
13, 12293, Note_on_c, 7, 57, 0
13, 12300, Note_on_c, 7, 57, 76
13, 12353, Note_on_c, 7, 57, 0
13, 12360, Note_on_c, 7, 59, 76
13, 12413, Note_on_c, 7, 59, 0
13, 12420, Note_on_c, 7, 61, 76
13, 12473, Note_on_c, 7, 61, 0
13, 12480, Note_on_c, 7, 62, 76
13, 12533, Note_on_c, 7, 62, 0
13, 12540, Note_on_c, 7, 61, 76
13, 12593, Note_on_c, 7, 61, 0
13, 12600, Note_on_c, 7, 62, 76
13, 12653, Note_on_c, 7, 62, 0
13, 12660, Note_on_c, 7, 59, 76
13, 12691, Note_on_c, 7, 59, 0
13, 12700, Note_on_c, 7, 57, 76
13, 12719, Note_on_c, 7, 57, 0
13, 12720, Note_on_c, 7, 56, 76
13, 13069, Note_on_c, 7, 56, 0
13, 13080, Note_on_c, 7, 54, 76
13, 13189, Note_on_c, 7, 54, 0
13, 13200, Note_on_c, 7, 53, 76
13, 13429, Note_on_c, 7, 53, 0
13, 13440, Note_on_c, 7, 49, 76
13, 13669, Note_on_c, 7, 49, 0
13, 13680, Note_on_c, 7, 54, 76
13, 14213, Note_on_c, 7, 54, 0
13, 14220, Note_on_c, 7, 52, 76
13, 14273, Note_on_c, 7, 52, 0
13, 14280, Note_on_c, 7, 54, 76
13, 14333, Note_on_c, 7, 54, 0
13, 14340, Note_on_c, 7, 56, 76
13, 14393, Note_on_c, 7, 56, 0
13, 14400, Note_on_c, 7, 57, 76
13, 14453, Note_on_c, 7, 57, 0
13, 14460, Note_on_c, 7, 56, 76
13, 14513, Note_on_c, 7, 56, 0
13, 14520, Note_on_c, 7, 57, 76
13, 14573, Note_on_c, 7, 57, 0
13, 14580, Note_on_c, 7, 54, 76
13, 14633, Note_on_c, 7, 54, 0
13, 14640, Note_on_c, 7, 56, 76
13, 14813, Note_on_c, 7, 56, 0
13, 14820, Note_on_c, 7, 52, 76
13, 14873, Note_on_c, 7, 52, 0
13, 14880, Note_on_c, 7, 57, 76
13, 15053, Note_on_c, 7, 57, 0
13, 15060, Note_on_c, 7, 59, 76
13, 15113, Note_on_c, 7, 59, 0
13, 15120, Note_on_c, 7, 61, 76
13, 15293, Note_on_c, 7, 61, 0
13, 15300, Note_on_c, 7, 62, 76
13, 15353, Note_on_c, 7, 62, 0
13, 15360, Note_on_c, 7, 59, 76
13, 15374, Note_on_c, 7, 59, 0
13, 15375, Note_on_c, 7, 61, 76
13, 15389, Note_on_c, 7, 61, 0
13, 15390, Note_on_c, 7, 59, 76
13, 15404, Note_on_c, 7, 59, 0
13, 15405, Note_on_c, 7, 61, 76
13, 15419, Note_on_c, 7, 61, 0
13, 15420, Note_on_c, 7, 59, 76
13, 15434, Note_on_c, 7, 59, 0
13, 15435, Note_on_c, 7, 61, 76
13, 15449, Note_on_c, 7, 61, 0
13, 15450, Note_on_c, 7, 59, 76
13, 15464, Note_on_c, 7, 59, 0
13, 15465, Note_on_c, 7, 61, 76
13, 15479, Note_on_c, 7, 61, 0
13, 15480, Note_on_c, 7, 59, 76
13, 15494, Note_on_c, 7, 59, 0
13, 15495, Note_on_c, 7, 61, 76
13, 15509, Note_on_c, 7, 61, 0
13, 15510, Note_on_c, 7, 57, 76
13, 15524, Note_on_c, 7, 57, 0
13, 15525, Note_on_c, 7, 59, 76
13, 15539, Note_on_c, 7, 59, 0
13, 15540, Note_on_c, 7, 57, 76
13, 15593, Note_on_c, 7, 57, 0
13, 15600, Note_on_c, 7, 52, 76
13, 16493, Note_on_c, 7, 52, 0
13, 16500, Note_on_c, 7, 52, 76
13, 16553, Note_on_c, 7, 52, 0
13, 16560, Note_on_c, 7, 52, 76
13, 17453, Note_on_c, 7, 52, 0
13, 17460, Note_on_c, 7, 52, 76
13, 17513, Note_on_c, 7, 52, 0
13, 17520, Note_on_c, 7, 52, 76
13, 18413, Note_on_c, 7, 52, 0
13, 18420, Note_on_c, 7, 52, 76
13, 18473, Note_on_c, 7, 52, 0
13, 18480, Note_on_c, 7, 52, 76
13, 19373, Note_on_c, 7, 52, 0
13, 19380, Note_on_c, 7, 52, 76
13, 19433, Note_on_c, 7, 52, 0
13, 19440, Note_on_c, 7, 52, 76
13, 19973, Note_on_c, 7, 52, 0
13, 19980, Note_on_c, 7, 54, 76
13, 20033, Note_on_c, 7, 54, 0
13, 20040, Note_on_c, 7, 52, 76
13, 20093, Note_on_c, 7, 52, 0
13, 20100, Note_on_c, 7, 50, 76
13, 20153, Note_on_c, 7, 50, 0
13, 20160, Note_on_c, 7, 49, 76
13, 20213, Note_on_c, 7, 49, 0
13, 20220, Note_on_c, 7, 47, 76
13, 20273, Note_on_c, 7, 47, 0
13, 20280, Note_on_c, 7, 49, 76
13, 20333, Note_on_c, 7, 49, 0
13, 20340, Note_on_c, 7, 45, 76
13, 20393, Note_on_c, 7, 45, 0
13, 20400, Note_on_c, 7, 54, 76
13, 20933, Note_on_c, 7, 54, 0
13, 20940, Note_on_c, 7, 55, 76
13, 20993, Note_on_c, 7, 55, 0
13, 21000, Note_on_c, 7, 54, 76
13, 21053, Note_on_c, 7, 54, 0
13, 21060, Note_on_c, 7, 52, 76
13, 21113, Note_on_c, 7, 52, 0
13, 21120, Note_on_c, 7, 50, 76
13, 21173, Note_on_c, 7, 50, 0
13, 21180, Note_on_c, 7, 49, 76
13, 21233, Note_on_c, 7, 49, 0
13, 21240, Note_on_c, 7, 50, 76
13, 21293, Note_on_c, 7, 50, 0
13, 21300, Note_on_c, 7, 47, 76
13, 21353, Note_on_c, 7, 47, 0
13, 21360, Note_on_c, 7, 56, 76
13, 21533, Note_on_c, 7, 56, 0
13, 21540, Note_on_c, 7, 52, 76
13, 21593, Note_on_c, 7, 52, 0
13, 21600, Note_on_c, 7, 57, 76
13, 21773, Note_on_c, 7, 57, 0
13, 21780, Note_on_c, 7, 50, 76
13, 21833, Note_on_c, 7, 50, 0
13, 21840, Note_on_c, 7, 52, 76
13, 22069, Note_on_c, 7, 52, 0
13, 22080, Note_on_c, 7, 40, 76
13, 22309, Note_on_c, 7, 40, 0
13, 22320, Note_on_c, 7, 45, 76
13, 22613, Note_on_c, 7, 45, 0
13, 22620, Note_on_c, 7, 52, 76
13, 22673, Note_on_c, 7, 52, 0
13, 22680, Note_on_c, 7, 54, 76
13, 22733, Note_on_c, 7, 54, 0
13, 22740, Note_on_c, 7, 55, 76
13, 22793, Note_on_c, 7, 55, 0
13, 22800, Note_on_c, 7, 57, 76
13, 22853, Note_on_c, 7, 57, 0
13, 22860, Note_on_c, 7, 59, 76
13, 22913, Note_on_c, 7, 59, 0
13, 22920, Note_on_c, 7, 61, 76
13, 22973, Note_on_c, 7, 61, 0
13, 22980, Note_on_c, 7, 62, 76
13, 23033, Note_on_c, 7, 62, 0
13, 23040, Note_on_c, 7, 61, 76
13, 23093, Note_on_c, 7, 61, 0
13, 23100, Note_on_c, 7, 59, 76
13, 23153, Note_on_c, 7, 59, 0
13, 23160, Note_on_c, 7, 61, 76
13, 23213, Note_on_c, 7, 61, 0
13, 23220, Note_on_c, 7, 57, 76
13, 23273, Note_on_c, 7, 57, 0
13, 23280, Note_on_c, 7, 50, 76
13, 24173, Note_on_c, 7, 50, 0
13, 24180, Note_on_c, 7, 50, 76
13, 24233, Note_on_c, 7, 50, 0
13, 24240, Note_on_c, 7, 50, 76
13, 25133, Note_on_c, 7, 50, 0
13, 25140, Note_on_c, 7, 50, 76
13, 25193, Note_on_c, 7, 50, 0
13, 25200, Note_on_c, 7, 50, 76
13, 26093, Note_on_c, 7, 50, 0
13, 26100, Note_on_c, 7, 50, 76
13, 26153, Note_on_c, 7, 50, 0
13, 26160, Note_on_c, 7, 50, 76
13, 26453, Note_on_c, 7, 50, 0
13, 26460, Note_on_c, 7, 49, 76
13, 26513, Note_on_c, 7, 49, 0
13, 26520, Note_on_c, 7, 50, 76
13, 26573, Note_on_c, 7, 50, 0
13, 26580, Note_on_c, 7, 47, 76
13, 26633, Note_on_c, 7, 47, 0
13, 26640, Note_on_c, 7, 49, 76
13, 26869, Note_on_c, 7, 49, 0
13, 26880, Note_on_c, 7, 45, 76
13, 27109, Note_on_c, 7, 45, 0
13, 27120, Note_on_c, 7, 50, 76
13, 27413, Note_on_c, 7, 50, 0
13, 27420, Note_on_c, 7, 49, 76
13, 27473, Note_on_c, 7, 49, 0
13, 27480, Note_on_c, 7, 50, 76
13, 27533, Note_on_c, 7, 50, 0
13, 27540, Note_on_c, 7, 52, 76
13, 27593, Note_on_c, 7, 52, 0
13, 27600, Note_on_c, 7, 54, 76
13, 27653, Note_on_c, 7, 54, 0
13, 27660, Note_on_c, 7, 55, 76
13, 27713, Note_on_c, 7, 55, 0
13, 27720, Note_on_c, 7, 57, 76
13, 27773, Note_on_c, 7, 57, 0
13, 27780, Note_on_c, 7, 59, 76
13, 27833, Note_on_c, 7, 59, 0
13, 27840, Note_on_c, 7, 60, 76
13, 27893, Note_on_c, 7, 60, 0
13, 27900, Note_on_c, 7, 59, 76
13, 27953, Note_on_c, 7, 59, 0
13, 27960, Note_on_c, 7, 60, 76
13, 28013, Note_on_c, 7, 60, 0
13, 28020, Note_on_c, 7, 57, 76
13, 28073, Note_on_c, 7, 57, 0
13, 28080, Note_on_c, 7, 51, 76
13, 28373, Note_on_c, 7, 51, 0
13, 28380, Note_on_c, 7, 49, 76
13, 28433, Note_on_c, 7, 49, 0
13, 28440, Note_on_c, 7, 51, 76
13, 28493, Note_on_c, 7, 51, 0
13, 28500, Note_on_c, 7, 47, 76
13, 28553, Note_on_c, 7, 47, 0
13, 28560, Note_on_c, 7, 59, 76
13, 28789, Note_on_c, 7, 59, 0
13, 28800, Note_on_c, 7, 47, 76
13, 29029, Note_on_c, 7, 47, 0
13, 29040, Note_on_c, 7, 52, 76
13, 29693, Note_on_c, 7, 52, 0
13, 29700, Note_on_c, 7, 52, 76
13, 29753, Note_on_c, 7, 52, 0
13, 29760, Note_on_c, 7, 54, 76
13, 29933, Note_on_c, 7, 54, 0
13, 29940, Note_on_c, 7, 50, 76
13, 29993, Note_on_c, 7, 50, 0
13, 30000, Note_on_c, 7, 55, 76
13, 30173, Note_on_c, 7, 55, 0
13, 30180, Note_on_c, 7, 54, 76
13, 30233, Note_on_c, 7, 54, 0
13, 30240, Note_on_c, 7, 55, 76
13, 30413, Note_on_c, 7, 55, 0
13, 30420, Note_on_c, 7, 52, 76
13, 30473, Note_on_c, 7, 52, 0
13, 30480, Note_on_c, 7, 54, 76
13, 30653, Note_on_c, 7, 54, 0
13, 30660, Note_on_c, 7, 52, 76
13, 30713, Note_on_c, 7, 52, 0
13, 30720, Note_on_c, 7, 54, 76
13, 30893, Note_on_c, 7, 54, 0
13, 30900, Note_on_c, 7, 55, 76
13, 30953, Note_on_c, 7, 55, 0
13, 30960, Note_on_c, 7, 57, 76
13, 31853, Note_on_c, 7, 57, 0
13, 31860, Note_on_c, 7, 57, 76
13, 31913, Note_on_c, 7, 57, 0
13, 31920, Note_on_c, 7, 57, 76
13, 32813, Note_on_c, 7, 57, 0
13, 32820, Note_on_c, 7, 57, 76
13, 32873, Note_on_c, 7, 57, 0
13, 32880, Note_on_c, 7, 57, 76
13, 33773, Note_on_c, 7, 57, 0
13, 33780, Note_on_c, 7, 57, 76
13, 33833, Note_on_c, 7, 57, 0
13, 33840, Note_on_c, 7, 57, 76
13, 34133, Note_on_c, 7, 57, 0
13, 34140, Note_on_c, 7, 56, 76
13, 34193, Note_on_c, 7, 56, 0
13, 34200, Note_on_c, 7, 57, 76
13, 34253, Note_on_c, 7, 57, 0
13, 34260, Note_on_c, 7, 54, 76
13, 34313, Note_on_c, 7, 54, 0
13, 34320, Note_on_c, 7, 56, 76
13, 34549, Note_on_c, 7, 56, 0
13, 34560, Note_on_c, 7, 52, 76
13, 34789, Note_on_c, 7, 52, 0
13, 34800, Note_on_c, 7, 57, 76
13, 35333, Note_on_c, 7, 57, 0
13, 35340, Note_on_c, 7, 57, 76
13, 35393, Note_on_c, 7, 57, 0
13, 35400, Note_on_c, 7, 59, 76
13, 35453, Note_on_c, 7, 59, 0
13, 35460, Note_on_c, 7, 61, 76
13, 35513, Note_on_c, 7, 61, 0
13, 35520, Note_on_c, 7, 62, 76
13, 35573, Note_on_c, 7, 62, 0
13, 35580, Note_on_c, 7, 61, 76
13, 35633, Note_on_c, 7, 61, 0
13, 35640, Note_on_c, 7, 62, 76
13, 35693, Note_on_c, 7, 62, 0
13, 35700, Note_on_c, 7, 59, 76
13, 35731, Note_on_c, 7, 59, 0
13, 35740, Note_on_c, 7, 57, 76
13, 35759, Note_on_c, 7, 57, 0
13, 35760, Note_on_c, 7, 56, 76
13, 36109, Note_on_c, 7, 56, 0
13, 36120, Note_on_c, 7, 54, 76
13, 36229, Note_on_c, 7, 54, 0
13, 36240, Note_on_c, 7, 53, 76
13, 36469, Note_on_c, 7, 53, 0
13, 36480, Note_on_c, 7, 49, 76
13, 36709, Note_on_c, 7, 49, 0
13, 36720, Note_on_c, 7, 54, 76
13, 37253, Note_on_c, 7, 54, 0
13, 37260, Note_on_c, 7, 52, 76
13, 37313, Note_on_c, 7, 52, 0
13, 37320, Note_on_c, 7, 54, 76
13, 37373, Note_on_c, 7, 54, 0
13, 37380, Note_on_c, 7, 56, 76
13, 37433, Note_on_c, 7, 56, 0
13, 37440, Note_on_c, 7, 57, 76
13, 37493, Note_on_c, 7, 57, 0
13, 37500, Note_on_c, 7, 56, 76
13, 37553, Note_on_c, 7, 56, 0
13, 37560, Note_on_c, 7, 57, 76
13, 37613, Note_on_c, 7, 57, 0
13, 37620, Note_on_c, 7, 54, 76
13, 37673, Note_on_c, 7, 54, 0
13, 37680, Note_on_c, 7, 56, 76
13, 37853, Note_on_c, 7, 56, 0
13, 37860, Note_on_c, 7, 52, 76
13, 37913, Note_on_c, 7, 52, 0
13, 37920, Note_on_c, 7, 57, 76
13, 38093, Note_on_c, 7, 57, 0
13, 38100, Note_on_c, 7, 59, 76
13, 38153, Note_on_c, 7, 59, 0
13, 38160, Note_on_c, 7, 61, 76
13, 38333, Note_on_c, 7, 61, 0
13, 38340, Note_on_c, 7, 62, 76
13, 38393, Note_on_c, 7, 62, 0
13, 38400, Note_on_c, 7, 59, 76
13, 38414, Note_on_c, 7, 59, 0
13, 38415, Note_on_c, 7, 61, 76
13, 38429, Note_on_c, 7, 61, 0
13, 38430, Note_on_c, 7, 59, 76
13, 38444, Note_on_c, 7, 59, 0
13, 38445, Note_on_c, 7, 61, 76
13, 38459, Note_on_c, 7, 61, 0
13, 38460, Note_on_c, 7, 59, 76
13, 38474, Note_on_c, 7, 59, 0
13, 38475, Note_on_c, 7, 61, 76
13, 38489, Note_on_c, 7, 61, 0
13, 38490, Note_on_c, 7, 59, 76
13, 38504, Note_on_c, 7, 59, 0
13, 38505, Note_on_c, 7, 61, 76
13, 38519, Note_on_c, 7, 61, 0
13, 38520, Note_on_c, 7, 59, 76
13, 38534, Note_on_c, 7, 59, 0
13, 38535, Note_on_c, 7, 61, 76
13, 38549, Note_on_c, 7, 61, 0
13, 38550, Note_on_c, 7, 57, 76
13, 38564, Note_on_c, 7, 57, 0
13, 38565, Note_on_c, 7, 59, 76
13, 38579, Note_on_c, 7, 59, 0
13, 38580, Note_on_c, 7, 57, 76
13, 38633, Note_on_c, 7, 57, 0
13, 38640, Note_on_c, 7, 52, 76
13, 39533, Note_on_c, 7, 52, 0
13, 39540, Note_on_c, 7, 52, 76
13, 39593, Note_on_c, 7, 52, 0
13, 39600, Note_on_c, 7, 52, 76
13, 40493, Note_on_c, 7, 52, 0
13, 40500, Note_on_c, 7, 52, 76
13, 40553, Note_on_c, 7, 52, 0
13, 40560, Note_on_c, 7, 52, 76
13, 41453, Note_on_c, 7, 52, 0
13, 41460, Note_on_c, 7, 52, 76
13, 41513, Note_on_c, 7, 52, 0
13, 41520, Note_on_c, 7, 52, 76
13, 42413, Note_on_c, 7, 52, 0
13, 42420, Note_on_c, 7, 52, 76
13, 42473, Note_on_c, 7, 52, 0
13, 42480, Note_on_c, 7, 52, 76
13, 43013, Note_on_c, 7, 52, 0
13, 43020, Note_on_c, 7, 54, 76
13, 43073, Note_on_c, 7, 54, 0
13, 43080, Note_on_c, 7, 52, 76
13, 43133, Note_on_c, 7, 52, 0
13, 43140, Note_on_c, 7, 50, 76
13, 43193, Note_on_c, 7, 50, 0
13, 43200, Note_on_c, 7, 49, 76
13, 43253, Note_on_c, 7, 49, 0
13, 43260, Note_on_c, 7, 47, 76
13, 43313, Note_on_c, 7, 47, 0
13, 43320, Note_on_c, 7, 49, 76
13, 43373, Note_on_c, 7, 49, 0
13, 43380, Note_on_c, 7, 45, 76
13, 43433, Note_on_c, 7, 45, 0
13, 43440, Note_on_c, 7, 54, 76
13, 43973, Note_on_c, 7, 54, 0
13, 43980, Note_on_c, 7, 55, 76
13, 44033, Note_on_c, 7, 55, 0
13, 44040, Note_on_c, 7, 54, 76
13, 44093, Note_on_c, 7, 54, 0
13, 44100, Note_on_c, 7, 52, 76
13, 44153, Note_on_c, 7, 52, 0
13, 44160, Note_on_c, 7, 50, 76
13, 44213, Note_on_c, 7, 50, 0
13, 44220, Note_on_c, 7, 49, 76
13, 44273, Note_on_c, 7, 49, 0
13, 44280, Note_on_c, 7, 50, 76
13, 44333, Note_on_c, 7, 50, 0
13, 44340, Note_on_c, 7, 47, 76
13, 44393, Note_on_c, 7, 47, 0
13, 44400, Note_on_c, 7, 56, 76
13, 44573, Note_on_c, 7, 56, 0
13, 44580, Note_on_c, 7, 52, 76
13, 44633, Note_on_c, 7, 52, 0
13, 44640, Note_on_c, 7, 57, 76
13, 44813, Note_on_c, 7, 57, 0
13, 44820, Note_on_c, 7, 50, 76
13, 44873, Note_on_c, 7, 50, 0
13, 44880, Note_on_c, 7, 52, 76
13, 45109, Note_on_c, 7, 52, 0
13, 45120, Note_on_c, 7, 40, 76
13, 45349, Note_on_c, 7, 40, 0
13, 45360, Note_on_c, 7, 45, 76
13, 45599, Note_on_c, 7, 45, 0
13, 51000, Note_on_c, 7, 62, 76
13, 51099, Note_on_c, 7, 62, 0
13, 51120, Note_on_c, 7, 62, 76
13, 51239, Note_on_c, 7, 62, 0
13, 51240, Note_on_c, 7, 64, 76
13, 51339, Note_on_c, 7, 64, 0
13, 51360, Note_on_c, 7, 60, 76
13, 51459, Note_on_c, 7, 60, 0
13, 51480, Note_on_c, 7, 60, 76
13, 51599, Note_on_c, 7, 60, 0
13, 51600, Note_on_c, 7, 62, 76
13, 51699, Note_on_c, 7, 62, 0
13, 51720, Note_on_c, 7, 59, 76
13, 51819, Note_on_c, 7, 59, 0
13, 51840, Note_on_c, 7, 59, 76
13, 51959, Note_on_c, 7, 59, 0
13, 51960, Note_on_c, 7, 61, 76
13, 52079, Note_on_c, 7, 61, 0
13, 52080, Note_on_c, 7, 62, 76
13, 52179, Note_on_c, 7, 62, 0
13, 52200, Note_on_c, 7, 64, 76
13, 52319, Note_on_c, 7, 64, 0
13, 52320, Note_on_c, 7, 66, 76
13, 52419, Note_on_c, 7, 66, 0
13, 52440, Note_on_c, 7, 62, 76
13, 52539, Note_on_c, 7, 62, 0
13, 52560, Note_on_c, 7, 62, 76
13, 52679, Note_on_c, 7, 62, 0
13, 52680, Note_on_c, 7, 64, 76
13, 52779, Note_on_c, 7, 64, 0
13, 52800, Note_on_c, 7, 61, 76
13, 52899, Note_on_c, 7, 61, 0
13, 52920, Note_on_c, 7, 61, 76
13, 53174, Note_on_c, 7, 61, 0
13, 53190, Note_on_c, 7, 61, 76
13, 53264, Note_on_c, 7, 61, 0
13, 53280, Note_on_c, 7, 61, 76
13, 53534, Note_on_c, 7, 61, 0
13, 53550, Note_on_c, 7, 61, 76
13, 53624, Note_on_c, 7, 61, 0
13, 53640, Note_on_c, 7, 61, 76
13, 53894, Note_on_c, 7, 61, 0
13, 53910, Note_on_c, 7, 61, 76
13, 53984, Note_on_c, 7, 61, 0
13, 54000, Note_on_c, 7, 62, 76
13, 54254, Note_on_c, 7, 62, 0
13, 54270, Note_on_c, 7, 57, 76
13, 54344, Note_on_c, 7, 57, 0
13, 54360, Note_on_c, 7, 57, 76
13, 54479, Note_on_c, 7, 57, 0
13, 54480, Note_on_c, 7, 59, 76
13, 54579, Note_on_c, 7, 59, 0
13, 54600, Note_on_c, 7, 55, 76
13, 54699, Note_on_c, 7, 55, 0
13, 54720, Note_on_c, 7, 55, 76
13, 54839, Note_on_c, 7, 55, 0
13, 54840, Note_on_c, 7, 57, 76
13, 54939, Note_on_c, 7, 57, 0
13, 54960, Note_on_c, 7, 54, 76
13, 55059, Note_on_c, 7, 54, 0
13, 55080, Note_on_c, 7, 54, 76
13, 55199, Note_on_c, 7, 54, 0
13, 55200, Note_on_c, 7, 56, 76
13, 55319, Note_on_c, 7, 56, 0
13, 55320, Note_on_c, 7, 57, 76
13, 55419, Note_on_c, 7, 57, 0
13, 55440, Note_on_c, 7, 59, 76
13, 55559, Note_on_c, 7, 59, 0
13, 55560, Note_on_c, 7, 61, 76
13, 55659, Note_on_c, 7, 61, 0
13, 55680, Note_on_c, 7, 57, 76
13, 55779, Note_on_c, 7, 57, 0
13, 55800, Note_on_c, 7, 57, 76
13, 55919, Note_on_c, 7, 57, 0
13, 55920, Note_on_c, 7, 59, 76
13, 56019, Note_on_c, 7, 59, 0
13, 56040, Note_on_c, 7, 56, 76
13, 56139, Note_on_c, 7, 56, 0
13, 56160, Note_on_c, 7, 56, 76
13, 56414, Note_on_c, 7, 56, 0
13, 56430, Note_on_c, 7, 56, 76
13, 56504, Note_on_c, 7, 56, 0
13, 56520, Note_on_c, 7, 56, 76
13, 56774, Note_on_c, 7, 56, 0
13, 56790, Note_on_c, 7, 56, 76
13, 56864, Note_on_c, 7, 56, 0
13, 56880, Note_on_c, 7, 56, 76
13, 57134, Note_on_c, 7, 56, 0
13, 57150, Note_on_c, 7, 56, 76
13, 57224, Note_on_c, 7, 56, 0
13, 57240, Note_on_c, 7, 57, 76
13, 57494, Note_on_c, 7, 57, 0
13, 57510, Note_on_c, 7, 55, 76
13, 57584, Note_on_c, 7, 55, 0
13, 57600, Note_on_c, 7, 54, 76
13, 57854, Note_on_c, 7, 54, 0
13, 57870, Note_on_c, 7, 54, 76
13, 57944, Note_on_c, 7, 54, 0
13, 57960, Note_on_c, 7, 54, 76
13, 58214, Note_on_c, 7, 54, 0
13, 58230, Note_on_c, 7, 54, 76
13, 58304, Note_on_c, 7, 54, 0
13, 58320, Note_on_c, 7, 55, 76
13, 58439, Note_on_c, 7, 55, 0
13, 58440, Note_on_c, 7, 52, 76
13, 58559, Note_on_c, 7, 52, 0
13, 58560, Note_on_c, 7, 54, 76
13, 58659, Note_on_c, 7, 54, 0
13, 58680, Note_on_c, 7, 55, 76
13, 58799, Note_on_c, 7, 55, 0
13, 58800, Note_on_c, 7, 57, 76
13, 58899, Note_on_c, 7, 57, 0
13, 58920, Note_on_c, 7, 54, 76
13, 59019, Note_on_c, 7, 54, 0
13, 59040, Note_on_c, 7, 54, 76
13, 59159, Note_on_c, 7, 54, 0
13, 59160, Note_on_c, 7, 55, 76
13, 59259, Note_on_c, 7, 55, 0
13, 59280, Note_on_c, 7, 52, 76
13, 59379, Note_on_c, 7, 52, 0
13, 59400, Note_on_c, 7, 52, 76
13, 59654, Note_on_c, 7, 52, 0
13, 59670, Note_on_c, 7, 52, 76
13, 59744, Note_on_c, 7, 52, 0
13, 59760, Note_on_c, 7, 52, 76
13, 60014, Note_on_c, 7, 52, 0
13, 60030, Note_on_c, 7, 52, 76
13, 60104, Note_on_c, 7, 52, 0
13, 60120, Note_on_c, 7, 52, 76
13, 60239, Note_on_c, 7, 52, 0
13, 60750, Note_on_c, 7, 45, 76
13, 60824, Note_on_c, 7, 45, 0
13, 60840, Note_on_c, 7, 45, 76
13, 61094, Note_on_c, 7, 45, 0
13, 61110, Note_on_c, 7, 45, 76
13, 61184, Note_on_c, 7, 45, 0
13, 61200, Note_on_c, 7, 45, 76
13, 61319, Note_on_c, 7, 45, 0
13, 61830, Note_on_c, 7, 50, 76
13, 61904, Note_on_c, 7, 50, 0
13, 61920, Note_on_c, 7, 50, 76
13, 62174, Note_on_c, 7, 50, 0
13, 62190, Note_on_c, 7, 50, 76
13, 62264, Note_on_c, 7, 50, 0
13, 62280, Note_on_c, 7, 50, 76
13, 62399, Note_on_c, 7, 50, 0
13, 62910, Note_on_c, 7, 55, 76
13, 62984, Note_on_c, 7, 55, 0
13, 63000, Note_on_c, 7, 52, 76
13, 63254, Note_on_c, 7, 52, 0
13, 63270, Note_on_c, 7, 52, 76
13, 63344, Note_on_c, 7, 52, 0
13, 63360, Note_on_c, 7, 54, 76
13, 63614, Note_on_c, 7, 54, 0
13, 63630, Note_on_c, 7, 55, 76
13, 63704, Note_on_c, 7, 55, 0
13, 63720, Note_on_c, 7, 57, 76
13, 63974, Note_on_c, 7, 57, 0
13, 63990, Note_on_c, 7, 55, 76
13, 64064, Note_on_c, 7, 55, 0
13, 64080, Note_on_c, 7, 54, 76
13, 64334, Note_on_c, 7, 54, 0
13, 64350, Note_on_c, 7, 54, 76
13, 64424, Note_on_c, 7, 54, 0
13, 64440, Note_on_c, 7, 55, 76
13, 64694, Note_on_c, 7, 55, 0
13, 64710, Note_on_c, 7, 57, 76
13, 64784, Note_on_c, 7, 57, 0
13, 64800, Note_on_c, 7, 59, 76
13, 64919, Note_on_c, 7, 59, 0
13, 65160, Note_on_c, 7, 55, 76
13, 65279, Note_on_c, 7, 55, 0
13, 65520, Note_on_c, 7, 54, 76
13, 65639, Note_on_c, 7, 54, 0
13, 65880, Note_on_c, 7, 52, 76
13, 65999, Note_on_c, 7, 52, 0
13, 66000, Note_on_c, 7, 55, 76
13, 66119, Note_on_c, 7, 55, 0
13, 66120, Note_on_c, 7, 59, 76
13, 66219, Note_on_c, 7, 59, 0
13, 66240, Note_on_c, 7, 64, 76
13, 66359, Note_on_c, 7, 64, 0
13, 66360, Note_on_c, 7, 66, 76
13, 66459, Note_on_c, 7, 66, 0
13, 66480, Note_on_c, 7, 62, 76
13, 66579, Note_on_c, 7, 62, 0
13, 66600, Note_on_c, 7, 62, 76
13, 66719, Note_on_c, 7, 62, 0
13, 66720, Note_on_c, 7, 64, 76
13, 66819, Note_on_c, 7, 64, 0
13, 66840, Note_on_c, 7, 61, 76
13, 66939, Note_on_c, 7, 61, 0
13, 66960, Note_on_c, 7, 61, 76
13, 67079, Note_on_c, 7, 61, 0
13, 67590, Note_on_c, 7, 57, 76
13, 67664, Note_on_c, 7, 57, 0
13, 67680, Note_on_c, 7, 54, 76
13, 67934, Note_on_c, 7, 54, 0
13, 67950, Note_on_c, 7, 57, 76
13, 68024, Note_on_c, 7, 57, 0
13, 68040, Note_on_c, 7, 50, 76
13, 68294, Note_on_c, 7, 50, 0
13, 68310, Note_on_c, 7, 52, 76
13, 68384, Note_on_c, 7, 52, 0
13, 68400, Note_on_c, 7, 54, 76
13, 68654, Note_on_c, 7, 54, 0
13, 68670, Note_on_c, 7, 55, 76
13, 68744, Note_on_c, 7, 55, 0
13, 68760, Note_on_c, 7, 57, 76
13, 69014, Note_on_c, 7, 57, 0
13, 69030, Note_on_c, 7, 45, 76
13, 69104, Note_on_c, 7, 45, 0
13, 69120, Note_on_c, 7, 50, 76
13, 69239, Note_on_c, 7, 50, 0
13, 70200, Note_on_c, 7, 38, 76
13, 70319, Note_on_c, 7, 38, 0
13, 71280, Note_on_c, 7, 50, 76
13, 71399, Note_on_c, 7, 50, 0
13, 71910, Note_on_c, 7, 50, 76
13, 71984, Note_on_c, 7, 50, 0
13, 72000, Note_on_c, 7, 50, 76
13, 72254, Note_on_c, 7, 50, 0
13, 72270, Note_on_c, 7, 50, 76
13, 72344, Note_on_c, 7, 50, 0
13, 72360, Note_on_c, 7, 55, 76
13, 72479, Note_on_c, 7, 55, 0
13, 72990, Note_on_c, 7, 52, 76
13, 73064, Note_on_c, 7, 52, 0
13, 73080, Note_on_c, 7, 52, 76
13, 73334, Note_on_c, 7, 52, 0
13, 73350, Note_on_c, 7, 52, 76
13, 73424, Note_on_c, 7, 52, 0
13, 73440, Note_on_c, 7, 57, 76
13, 73559, Note_on_c, 7, 57, 0
13, 74070, Note_on_c, 7, 54, 76
13, 74144, Note_on_c, 7, 54, 0
13, 74160, Note_on_c, 7, 54, 76
13, 74414, Note_on_c, 7, 54, 0
13, 74430, Note_on_c, 7, 54, 76
13, 74504, Note_on_c, 7, 54, 0
13, 74520, Note_on_c, 7, 59, 76
13, 74639, Note_on_c, 7, 59, 0
13, 77040, Note_on_c, 7, 54, 76
13, 77159, Note_on_c, 7, 54, 0
13, 77400, Note_on_c, 7, 42, 76
13, 77519, Note_on_c, 7, 42, 0
13, 78120, Note_on_c, 7, 59, 76
13, 78239, Note_on_c, 7, 59, 0
13, 78480, Note_on_c, 7, 47, 76
13, 78599, Note_on_c, 7, 47, 0
13, 79200, Note_on_c, 7, 52, 76
13, 79319, Note_on_c, 7, 52, 0
13, 79560, Note_on_c, 7, 40, 76
13, 79679, Note_on_c, 7, 40, 0
13, 80280, Note_on_c, 7, 57, 76
13, 80399, Note_on_c, 7, 57, 0
13, 80640, Note_on_c, 7, 45, 76
13, 80759, Note_on_c, 7, 45, 0
13, 81360, Note_on_c, 7, 50, 76
13, 81479, Note_on_c, 7, 50, 0
13, 81720, Note_on_c, 7, 38, 76
13, 81839, Note_on_c, 7, 38, 0
13, 82440, Note_on_c, 7, 50, 76
13, 82559, Note_on_c, 7, 50, 0
13, 82800, Note_on_c, 7, 38, 76
13, 82919, Note_on_c, 7, 38, 0
13, 83160, Note_on_c, 7, 40, 76
13, 86399, Note_on_c, 7, 40, 0
13, 86400, Note_on_c, 7, 41, 76
13, 86519, Note_on_c, 7, 41, 0
13, 87480, Note_on_c, 7, 40, 76
13, 87599, Note_on_c, 7, 40, 0
13, 88830, Note_on_c, 7, 51, 76
13, 88904, Note_on_c, 7, 51, 0
13, 88920, Note_on_c, 7, 51, 76
13, 89174, Note_on_c, 7, 51, 0
13, 89190, Note_on_c, 7, 51, 76
13, 89264, Note_on_c, 7, 51, 0
13, 89280, Note_on_c, 7, 51, 76
13, 89534, Note_on_c, 7, 51, 0
13, 89550, Note_on_c, 7, 51, 76
13, 89624, Note_on_c, 7, 51, 0
13, 89640, Note_on_c, 7, 52, 76
13, 89894, Note_on_c, 7, 52, 0
13, 89910, Note_on_c, 7, 52, 76
13, 89984, Note_on_c, 7, 52, 0
13, 90000, Note_on_c, 7, 52, 76
13, 90254, Note_on_c, 7, 52, 0
13, 90270, Note_on_c, 7, 52, 76
13, 90344, Note_on_c, 7, 52, 0
13, 90360, Note_on_c, 7, 52, 76
13, 90614, Note_on_c, 7, 52, 0
13, 90630, Note_on_c, 7, 52, 76
13, 90704, Note_on_c, 7, 52, 0
13, 90720, Note_on_c, 7, 54, 76
13, 90974, Note_on_c, 7, 54, 0
13, 90990, Note_on_c, 7, 47, 76
13, 91064, Note_on_c, 7, 47, 0
13, 91080, Note_on_c, 7, 49, 76
13, 91334, Note_on_c, 7, 49, 0
13, 91350, Note_on_c, 7, 50, 76
13, 91424, Note_on_c, 7, 50, 0
13, 91440, Note_on_c, 7, 52, 76
13, 91694, Note_on_c, 7, 52, 0
13, 91710, Note_on_c, 7, 52, 76
13, 91784, Note_on_c, 7, 52, 0
13, 91800, Note_on_c, 7, 45, 76
13, 92054, Note_on_c, 7, 45, 0
13, 92070, Note_on_c, 7, 64, 76
13, 92144, Note_on_c, 7, 64, 0
13, 92160, Note_on_c, 7, 64, 76
13, 92279, Note_on_c, 7, 64, 0
13, 92280, Note_on_c, 7, 66, 76
13, 92379, Note_on_c, 7, 66, 0
13, 92400, Note_on_c, 7, 62, 76
13, 92499, Note_on_c, 7, 62, 0
13, 92520, Note_on_c, 7, 62, 76
13, 92639, Note_on_c, 7, 62, 0
13, 92640, Note_on_c, 7, 64, 76
13, 92739, Note_on_c, 7, 64, 0
13, 92760, Note_on_c, 7, 61, 76
13, 92859, Note_on_c, 7, 61, 0
13, 92880, Note_on_c, 7, 61, 76
13, 92999, Note_on_c, 7, 61, 0
13, 93000, Note_on_c, 7, 62, 76
13, 93119, Note_on_c, 7, 62, 0
13, 93120, Note_on_c, 7, 64, 76
13, 93219, Note_on_c, 7, 64, 0
13, 93240, Note_on_c, 7, 64, 76
13, 93359, Note_on_c, 7, 64, 0
13, 93360, Note_on_c, 7, 66, 76
13, 93459, Note_on_c, 7, 66, 0
13, 93480, Note_on_c, 7, 62, 76
13, 93579, Note_on_c, 7, 62, 0
13, 93600, Note_on_c, 7, 62, 76
13, 93719, Note_on_c, 7, 62, 0
13, 93720, Note_on_c, 7, 64, 76
13, 93819, Note_on_c, 7, 64, 0
13, 93840, Note_on_c, 7, 61, 76
13, 93939, Note_on_c, 7, 61, 0
13, 93960, Note_on_c, 7, 61, 76
13, 94079, Note_on_c, 7, 61, 0
13, 95310, Note_on_c, 7, 57, 76
13, 95384, Note_on_c, 7, 57, 0
13, 95400, Note_on_c, 7, 57, 76
13, 95519, Note_on_c, 7, 57, 0
13, 95520, Note_on_c, 7, 59, 76
13, 95619, Note_on_c, 7, 59, 0
13, 95640, Note_on_c, 7, 56, 76
13, 95739, Note_on_c, 7, 56, 0
13, 95760, Note_on_c, 7, 56, 76
13, 95879, Note_on_c, 7, 56, 0
13, 95880, Note_on_c, 7, 57, 76
13, 95979, Note_on_c, 7, 57, 0
13, 96000, Note_on_c, 7, 54, 76
13, 96099, Note_on_c, 7, 54, 0
13, 96120, Note_on_c, 7, 54, 76
13, 96239, Note_on_c, 7, 54, 0
13, 96240, Note_on_c, 7, 56, 76
13, 96359, Note_on_c, 7, 56, 0
13, 96360, Note_on_c, 7, 57, 76
13, 96479, Note_on_c, 7, 57, 0
13, 96480, Note_on_c, 7, 59, 76
13, 96599, Note_on_c, 7, 59, 0
13, 96600, Note_on_c, 7, 61, 76
13, 96699, Note_on_c, 7, 61, 0
13, 96720, Note_on_c, 7, 57, 76
13, 96819, Note_on_c, 7, 57, 0
13, 96840, Note_on_c, 7, 57, 76
13, 96959, Note_on_c, 7, 57, 0
13, 96960, Note_on_c, 7, 59, 76
13, 97059, Note_on_c, 7, 59, 0
13, 97080, Note_on_c, 7, 56, 76
13, 97179, Note_on_c, 7, 56, 0
13, 97200, Note_on_c, 7, 56, 76
13, 97454, Note_on_c, 7, 56, 0
13, 97470, Note_on_c, 7, 56, 76
13, 97544, Note_on_c, 7, 56, 0
13, 97560, Note_on_c, 7, 56, 76
13, 97814, Note_on_c, 7, 56, 0
13, 97830, Note_on_c, 7, 56, 76
13, 97904, Note_on_c, 7, 56, 0
13, 97920, Note_on_c, 7, 56, 76
13, 98174, Note_on_c, 7, 56, 0
13, 98190, Note_on_c, 7, 56, 76
13, 98264, Note_on_c, 7, 56, 0
13, 98280, Note_on_c, 7, 57, 76
13, 98534, Note_on_c, 7, 57, 0
13, 98550, Note_on_c, 7, 52, 76
13, 98624, Note_on_c, 7, 52, 0
13, 98640, Note_on_c, 7, 52, 76
13, 98759, Note_on_c, 7, 52, 0
13, 98760, Note_on_c, 7, 54, 76
13, 98859, Note_on_c, 7, 54, 0
13, 98880, Note_on_c, 7, 50, 76
13, 98979, Note_on_c, 7, 50, 0
13, 99000, Note_on_c, 7, 50, 76
13, 99119, Note_on_c, 7, 50, 0
13, 99120, Note_on_c, 7, 52, 76
13, 99219, Note_on_c, 7, 52, 0
13, 99240, Note_on_c, 7, 49, 76
13, 99339, Note_on_c, 7, 49, 0
13, 99360, Note_on_c, 7, 49, 76
13, 99479, Note_on_c, 7, 49, 0
13, 99480, Note_on_c, 7, 50, 76
13, 99599, Note_on_c, 7, 50, 0
13, 99600, Note_on_c, 7, 52, 76
13, 99719, Note_on_c, 7, 52, 0
13, 99720, Note_on_c, 7, 54, 76
13, 99839, Note_on_c, 7, 54, 0
13, 99840, Note_on_c, 7, 55, 76
13, 99939, Note_on_c, 7, 55, 0
13, 99960, Note_on_c, 7, 52, 76
13, 100059, Note_on_c, 7, 52, 0
13, 100080, Note_on_c, 7, 52, 76
13, 100199, Note_on_c, 7, 52, 0
13, 100200, Note_on_c, 7, 54, 76
13, 100299, Note_on_c, 7, 54, 0
13, 100320, Note_on_c, 7, 51, 76
13, 100419, Note_on_c, 7, 51, 0
13, 100440, Note_on_c, 7, 51, 76
13, 100694, Note_on_c, 7, 51, 0
13, 100710, Note_on_c, 7, 51, 76
13, 100784, Note_on_c, 7, 51, 0
13, 100800, Note_on_c, 7, 51, 76
13, 101054, Note_on_c, 7, 51, 0
13, 101070, Note_on_c, 7, 51, 76
13, 101144, Note_on_c, 7, 51, 0
13, 101160, Note_on_c, 7, 51, 76
13, 101414, Note_on_c, 7, 51, 0
13, 101430, Note_on_c, 7, 51, 76
13, 101504, Note_on_c, 7, 51, 0
13, 101520, Note_on_c, 7, 52, 76
13, 101789, Note_on_c, 7, 52, 0
13, 101790, Note_on_c, 7, 50, 76
13, 101879, Note_on_c, 7, 50, 0
13, 101880, Note_on_c, 7, 49, 76
13, 102134, Note_on_c, 7, 49, 0
13, 102150, Note_on_c, 7, 49, 76
13, 102224, Note_on_c, 7, 49, 0
13, 102240, Note_on_c, 7, 49, 76
13, 102494, Note_on_c, 7, 49, 0
13, 102510, Note_on_c, 7, 49, 76
13, 102584, Note_on_c, 7, 49, 0
13, 102600, Note_on_c, 7, 50, 76
13, 102719, Note_on_c, 7, 50, 0
13, 102720, Note_on_c, 7, 47, 76
13, 102839, Note_on_c, 7, 47, 0
13, 102840, Note_on_c, 7, 49, 76
13, 102959, Note_on_c, 7, 49, 0
13, 102960, Note_on_c, 7, 50, 76
13, 103079, Note_on_c, 7, 50, 0
13, 103080, Note_on_c, 7, 52, 76
13, 103179, Note_on_c, 7, 52, 0
13, 103200, Note_on_c, 7, 49, 76
13, 103299, Note_on_c, 7, 49, 0
13, 103320, Note_on_c, 7, 49, 76
13, 103439, Note_on_c, 7, 49, 0
13, 103440, Note_on_c, 7, 50, 76
13, 103539, Note_on_c, 7, 50, 0
13, 103560, Note_on_c, 7, 47, 76
13, 103659, Note_on_c, 7, 47, 0
13, 103680, Note_on_c, 7, 47, 76
13, 103934, Note_on_c, 7, 47, 0
13, 103950, Note_on_c, 7, 59, 76
13, 104024, Note_on_c, 7, 59, 0
13, 104040, Note_on_c, 7, 59, 76
13, 104294, Note_on_c, 7, 59, 0
13, 104310, Note_on_c, 7, 59, 76
13, 104384, Note_on_c, 7, 59, 0
13, 104400, Note_on_c, 7, 59, 76
13, 104519, Note_on_c, 7, 59, 0
13, 105030, Note_on_c, 7, 52, 76
13, 105104, Note_on_c, 7, 52, 0
13, 105120, Note_on_c, 7, 52, 76
13, 105374, Note_on_c, 7, 52, 0
13, 105390, Note_on_c, 7, 52, 76
13, 105464, Note_on_c, 7, 52, 0
13, 106110, Note_on_c, 7, 57, 76
13, 106184, Note_on_c, 7, 57, 0
13, 106200, Note_on_c, 7, 57, 76
13, 106454, Note_on_c, 7, 57, 0
13, 106470, Note_on_c, 7, 57, 76
13, 106544, Note_on_c, 7, 57, 0
13, 106560, Note_on_c, 7, 57, 76
13, 106679, Note_on_c, 7, 57, 0
13, 107190, Note_on_c, 7, 50, 76
13, 107264, Note_on_c, 7, 50, 0
13, 107280, Note_on_c, 7, 47, 76
13, 107534, Note_on_c, 7, 47, 0
13, 107550, Note_on_c, 7, 47, 76
13, 107624, Note_on_c, 7, 47, 0
13, 107640, Note_on_c, 7, 49, 76
13, 107894, Note_on_c, 7, 49, 0
13, 107910, Note_on_c, 7, 50, 76
13, 107984, Note_on_c, 7, 50, 0
13, 108000, Note_on_c, 7, 52, 76
13, 108254, Note_on_c, 7, 52, 0
13, 108270, Note_on_c, 7, 50, 76
13, 108344, Note_on_c, 7, 50, 0
13, 108360, Note_on_c, 7, 49, 76
13, 108614, Note_on_c, 7, 49, 0
13, 108630, Note_on_c, 7, 49, 76
13, 108704, Note_on_c, 7, 49, 0
13, 108720, Note_on_c, 7, 50, 76
13, 108974, Note_on_c, 7, 50, 0
13, 108990, Note_on_c, 7, 52, 76
13, 109064, Note_on_c, 7, 52, 0
13, 109080, Note_on_c, 7, 54, 76
13, 109199, Note_on_c, 7, 54, 0
13, 109440, Note_on_c, 7, 50, 76
13, 109559, Note_on_c, 7, 50, 0
13, 109800, Note_on_c, 7, 49, 76
13, 109919, Note_on_c, 7, 49, 0
13, 110160, Note_on_c, 7, 47, 76
13, 110279, Note_on_c, 7, 47, 0
13, 110280, Note_on_c, 7, 50, 76
13, 110399, Note_on_c, 7, 50, 0
13, 110400, Note_on_c, 7, 54, 76
13, 110519, Note_on_c, 7, 54, 0
13, 110520, Note_on_c, 7, 59, 76
13, 110639, Note_on_c, 7, 59, 0
13, 110640, Note_on_c, 7, 61, 76
13, 110759, Note_on_c, 7, 61, 0
13, 110760, Note_on_c, 7, 57, 76
13, 110879, Note_on_c, 7, 57, 0
13, 110880, Note_on_c, 7, 57, 76
13, 110999, Note_on_c, 7, 57, 0
13, 111000, Note_on_c, 7, 59, 76
13, 111119, Note_on_c, 7, 59, 0
13, 111120, Note_on_c, 7, 56, 76
13, 111239, Note_on_c, 7, 56, 0
13, 111240, Note_on_c, 7, 56, 76
13, 111359, Note_on_c, 7, 56, 0
13, 111870, Note_on_c, 7, 52, 76
13, 111944, Note_on_c, 7, 52, 0
13, 111960, Note_on_c, 7, 49, 76
13, 112214, Note_on_c, 7, 49, 0
13, 112230, Note_on_c, 7, 52, 76
13, 112304, Note_on_c, 7, 52, 0
13, 112320, Note_on_c, 7, 45, 76
13, 112574, Note_on_c, 7, 45, 0
13, 112590, Note_on_c, 7, 47, 76
13, 112664, Note_on_c, 7, 47, 0
13, 112680, Note_on_c, 7, 49, 76
13, 112934, Note_on_c, 7, 49, 0
13, 112950, Note_on_c, 7, 50, 76
13, 113024, Note_on_c, 7, 50, 0
13, 113040, Note_on_c, 7, 52, 76
13, 113294, Note_on_c, 7, 52, 0
13, 113310, Note_on_c, 7, 40, 76
13, 113384, Note_on_c, 7, 40, 0
13, 113400, Note_on_c, 7, 45, 76
13, 113759, Note_on_c, 7, 45, 0
13, 114480, Note_on_c, 7, 45, 76
13, 114839, Note_on_c, 7, 45, 0
13, 115560, Note_on_c, 7, 45, 76
13, 115919, Note_on_c, 7, 45, 0
13, 116910, Note_on_c, 7, 45, 76
13, 116984, Note_on_c, 7, 45, 0
13, 117000, Note_on_c, 7, 49, 76
13, 117254, Note_on_c, 7, 49, 0
13, 117270, Note_on_c, 7, 52, 76
13, 117344, Note_on_c, 7, 52, 0
13, 117360, Note_on_c, 7, 49, 76
13, 117614, Note_on_c, 7, 49, 0
13, 117630, Note_on_c, 7, 45, 76
13, 117704, Note_on_c, 7, 45, 0
13, 117720, Note_on_c, 7, 50, 76
13, 118079, Note_on_c, 7, 50, 0
13, 118800, Note_on_c, 7, 50, 76
13, 119159, Note_on_c, 7, 50, 0
13, 119880, Note_on_c, 7, 50, 76
13, 120239, Note_on_c, 7, 50, 0
13, 121230, Note_on_c, 7, 50, 76
13, 121304, Note_on_c, 7, 50, 0
13, 121320, Note_on_c, 7, 54, 76
13, 121574, Note_on_c, 7, 54, 0
13, 121590, Note_on_c, 7, 57, 76
13, 121664, Note_on_c, 7, 57, 0
13, 121680, Note_on_c, 7, 54, 76
13, 121934, Note_on_c, 7, 54, 0
13, 121950, Note_on_c, 7, 50, 76
13, 122024, Note_on_c, 7, 50, 0
13, 122040, Note_on_c, 7, 43, 76
13, 122294, Note_on_c, 7, 43, 0
13, 122310, Note_on_c, 7, 55, 76
13, 122384, Note_on_c, 7, 55, 0
13, 122400, Note_on_c, 7, 55, 76
13, 122519, Note_on_c, 7, 55, 0
13, 122520, Note_on_c, 7, 57, 76
13, 122619, Note_on_c, 7, 57, 0
13, 122640, Note_on_c, 7, 54, 76
13, 122739, Note_on_c, 7, 54, 0
13, 122760, Note_on_c, 7, 54, 76
13, 122879, Note_on_c, 7, 54, 0
13, 122880, Note_on_c, 7, 55, 76
13, 122979, Note_on_c, 7, 55, 0
13, 123000, Note_on_c, 7, 52, 76
13, 123099, Note_on_c, 7, 52, 0
13, 123120, Note_on_c, 7, 52, 76
13, 123239, Note_on_c, 7, 52, 0
13, 123240, Note_on_c, 7, 54, 76
13, 123359, Note_on_c, 7, 54, 0
13, 123360, Note_on_c, 7, 56, 76
13, 123479, Note_on_c, 7, 56, 0
13, 123480, Note_on_c, 7, 57, 76
13, 123599, Note_on_c, 7, 57, 0
13, 123600, Note_on_c, 7, 59, 76
13, 123699, Note_on_c, 7, 59, 0
13, 123720, Note_on_c, 7, 55, 76
13, 123819, Note_on_c, 7, 55, 0
13, 123840, Note_on_c, 7, 55, 76
13, 123959, Note_on_c, 7, 55, 0
13, 123960, Note_on_c, 7, 57, 76
13, 124059, Note_on_c, 7, 57, 0
13, 124080, Note_on_c, 7, 54, 76
13, 124179, Note_on_c, 7, 54, 0
13, 124200, Note_on_c, 7, 54, 76
13, 124319, Note_on_c, 7, 54, 0
13, 124320, Note_on_c, 7, 56, 76
13, 124439, Note_on_c, 7, 56, 0
13, 124440, Note_on_c, 7, 58, 76
13, 124559, Note_on_c, 7, 58, 0
13, 124560, Note_on_c, 7, 59, 76
13, 124679, Note_on_c, 7, 59, 0
13, 124680, Note_on_c, 7, 61, 76
13, 124779, Note_on_c, 7, 61, 0
13, 124800, Note_on_c, 7, 57, 76
13, 124899, Note_on_c, 7, 57, 0
13, 124920, Note_on_c, 7, 57, 76
13, 125039, Note_on_c, 7, 57, 0
13, 125040, Note_on_c, 7, 59, 76
13, 125139, Note_on_c, 7, 59, 0
13, 125160, Note_on_c, 7, 56, 76
13, 125259, Note_on_c, 7, 56, 0
13, 125280, Note_on_c, 7, 56, 76
13, 125399, Note_on_c, 7, 56, 0
13, 125400, Note_on_c, 7, 58, 76
13, 125519, Note_on_c, 7, 58, 0
13, 125520, Note_on_c, 7, 59, 76
13, 125639, Note_on_c, 7, 59, 0
13, 125640, Note_on_c, 7, 61, 76
13, 125759, Note_on_c, 7, 61, 0
13, 125760, Note_on_c, 7, 62, 76
13, 125859, Note_on_c, 7, 62, 0
13, 125880, Note_on_c, 7, 59, 76
13, 125979, Note_on_c, 7, 59, 0
13, 126000, Note_on_c, 7, 59, 76
13, 126119, Note_on_c, 7, 59, 0
13, 126120, Note_on_c, 7, 61, 76
13, 126219, Note_on_c, 7, 61, 0
13, 126240, Note_on_c, 7, 58, 76
13, 126339, Note_on_c, 7, 58, 0
13, 126360, Note_on_c, 7, 58, 76
13, 126479, Note_on_c, 7, 58, 0
13, 127710, Note_on_c, 7, 54, 76
13, 127784, Note_on_c, 7, 54, 0
13, 127800, Note_on_c, 7, 54, 76
13, 128054, Note_on_c, 7, 54, 0
13, 128070, Note_on_c, 7, 54, 76
13, 128144, Note_on_c, 7, 54, 0
13, 128160, Note_on_c, 7, 54, 76
13, 128414, Note_on_c, 7, 54, 0
13, 128430, Note_on_c, 7, 54, 76
13, 128504, Note_on_c, 7, 54, 0
13, 128520, Note_on_c, 7, 54, 76
13, 128774, Note_on_c, 7, 54, 0
13, 128790, Note_on_c, 7, 42, 76
13, 128864, Note_on_c, 7, 42, 0
13, 128880, Note_on_c, 7, 42, 76
13, 129134, Note_on_c, 7, 42, 0
13, 129150, Note_on_c, 7, 42, 76
13, 129224, Note_on_c, 7, 42, 0
13, 129240, Note_on_c, 7, 42, 76
13, 129494, Note_on_c, 7, 42, 0
13, 129510, Note_on_c, 7, 42, 76
13, 129584, Note_on_c, 7, 42, 0
13, 129600, Note_on_c, 7, 42, 76
13, 129854, Note_on_c, 7, 42, 0
13, 129870, Note_on_c, 7, 52, 76
13, 129944, Note_on_c, 7, 52, 0
13, 129960, Note_on_c, 7, 50, 76
13, 130214, Note_on_c, 7, 50, 0
13, 130230, Note_on_c, 7, 55, 76
13, 130304, Note_on_c, 7, 55, 0
13, 130320, Note_on_c, 7, 49, 76
13, 130574, Note_on_c, 7, 49, 0
13, 130590, Note_on_c, 7, 54, 76
13, 130664, Note_on_c, 7, 54, 0
13, 130680, Note_on_c, 7, 47, 76
13, 130934, Note_on_c, 7, 47, 0
13, 130950, Note_on_c, 7, 54, 76
13, 131024, Note_on_c, 7, 54, 0
13, 131040, Note_on_c, 7, 59, 76
13, 131159, Note_on_c, 7, 59, 0
13, 131160, Note_on_c, 7, 61, 76
13, 131259, Note_on_c, 7, 61, 0
13, 131280, Note_on_c, 7, 57, 76
13, 131379, Note_on_c, 7, 57, 0
13, 131400, Note_on_c, 7, 57, 76
13, 131519, Note_on_c, 7, 57, 0
13, 131520, Note_on_c, 7, 59, 76
13, 131619, Note_on_c, 7, 59, 0
13, 131640, Note_on_c, 7, 55, 76
13, 131739, Note_on_c, 7, 55, 0
13, 131760, Note_on_c, 7, 55, 76
13, 131859, Note_on_c, 7, 55, 0
13, 131880, Note_on_c, 7, 52, 76
13, 131999, Note_on_c, 7, 52, 0
13, 132000, Note_on_c, 7, 54, 76
13, 132119, Note_on_c, 7, 54, 0
13, 132120, Note_on_c, 7, 55, 76
13, 132239, Note_on_c, 7, 55, 0
13, 132240, Note_on_c, 7, 57, 76
13, 132339, Note_on_c, 7, 57, 0
13, 132360, Note_on_c, 7, 54, 76
13, 132459, Note_on_c, 7, 54, 0
13, 132480, Note_on_c, 7, 54, 76
13, 132599, Note_on_c, 7, 54, 0
13, 132600, Note_on_c, 7, 55, 76
13, 132699, Note_on_c, 7, 55, 0
13, 132720, Note_on_c, 7, 52, 76
13, 132819, Note_on_c, 7, 52, 0
13, 132840, Note_on_c, 7, 52, 76
13, 133094, Note_on_c, 7, 52, 0
13, 133110, Note_on_c, 7, 50, 76
13, 133184, Note_on_c, 7, 50, 0
13, 133200, Note_on_c, 7, 49, 76
13, 133454, Note_on_c, 7, 49, 0
13, 133470, Note_on_c, 7, 52, 76
13, 133544, Note_on_c, 7, 52, 0
13, 133560, Note_on_c, 7, 46, 76
13, 133814, Note_on_c, 7, 46, 0
13, 133830, Note_on_c, 7, 49, 76
13, 133904, Note_on_c, 7, 49, 0
13, 133920, Note_on_c, 7, 42, 76
13, 134279, Note_on_c, 7, 42, 0
13, 134550, Note_on_c, 7, 55, 76
13, 134624, Note_on_c, 7, 55, 0
13, 134640, Note_on_c, 7, 54, 76
13, 134894, Note_on_c, 7, 54, 0
13, 134910, Note_on_c, 7, 52, 76
13, 134984, Note_on_c, 7, 52, 0
13, 135000, Note_on_c, 7, 50, 76
13, 135254, Note_on_c, 7, 50, 0
13, 135270, Note_on_c, 7, 47, 76
13, 135344, Note_on_c, 7, 47, 0
13, 135360, Note_on_c, 7, 52, 76
13, 135479, Note_on_c, 7, 52, 0
13, 135480, Note_on_c, 7, 54, 76
13, 135599, Note_on_c, 7, 54, 0
13, 135600, Note_on_c, 7, 55, 76
13, 135699, Note_on_c, 7, 55, 0
13, 135720, Note_on_c, 7, 54, 76
13, 135974, Note_on_c, 7, 54, 0
13, 135990, Note_on_c, 7, 42, 76
13, 136064, Note_on_c, 7, 42, 0
13, 136080, Note_on_c, 7, 47, 76
13, 136199, Note_on_c, 7, 47, 0
13, 138510, Note_on_c, 7, 59, 76
13, 138584, Note_on_c, 7, 59, 0
13, 138600, Note_on_c, 7, 59, 76
13, 138719, Note_on_c, 7, 59, 0
13, 138720, Note_on_c, 7, 60, 76
13, 138839, Note_on_c, 7, 60, 0
13, 138840, Note_on_c, 7, 57, 76
13, 138959, Note_on_c, 7, 57, 0
13, 138960, Note_on_c, 7, 57, 76
13, 139079, Note_on_c, 7, 57, 0
13, 139080, Note_on_c, 7, 59, 76
13, 139199, Note_on_c, 7, 59, 0
13, 139200, Note_on_c, 7, 55, 76
13, 139319, Note_on_c, 7, 55, 0
13, 139320, Note_on_c, 7, 55, 76
13, 139439, Note_on_c, 7, 55, 0
13, 139440, Note_on_c, 7, 57, 76
13, 139559, Note_on_c, 7, 57, 0
13, 139560, Note_on_c, 7, 59, 76
13, 139679, Note_on_c, 7, 59, 0
13, 139680, Note_on_c, 7, 60, 76
13, 139799, Note_on_c, 7, 60, 0
13, 139800, Note_on_c, 7, 62, 76
13, 139899, Note_on_c, 7, 62, 0
13, 139920, Note_on_c, 7, 59, 76
13, 140019, Note_on_c, 7, 59, 0
13, 140040, Note_on_c, 7, 59, 76
13, 140159, Note_on_c, 7, 59, 0
13, 140160, Note_on_c, 7, 60, 76
13, 140259, Note_on_c, 7, 60, 0
13, 140280, Note_on_c, 7, 57, 76
13, 140379, Note_on_c, 7, 57, 0
13, 140400, Note_on_c, 7, 57, 76
13, 140654, Note_on_c, 7, 57, 0
13, 140670, Note_on_c, 7, 57, 76
13, 140744, Note_on_c, 7, 57, 0
13, 140760, Note_on_c, 7, 57, 76
13, 141014, Note_on_c, 7, 57, 0
13, 141030, Note_on_c, 7, 57, 76
13, 141104, Note_on_c, 7, 57, 0
13, 141120, Note_on_c, 7, 57, 76
13, 141374, Note_on_c, 7, 57, 0
13, 141390, Note_on_c, 7, 57, 76
13, 141464, Note_on_c, 7, 57, 0
13, 141480, Note_on_c, 7, 57, 76
13, 141599, Note_on_c, 7, 57, 0
13, 141600, Note_on_c, 7, 54, 76
13, 141719, Note_on_c, 7, 54, 0
13, 141720, Note_on_c, 7, 55, 76
13, 141839, Note_on_c, 7, 55, 0
13, 141840, Note_on_c, 7, 57, 76
13, 141959, Note_on_c, 7, 57, 0
13, 141960, Note_on_c, 7, 66, 76
13, 142059, Note_on_c, 7, 66, 0
13, 142080, Note_on_c, 7, 55, 76
13, 142179, Note_on_c, 7, 55, 0
13, 142200, Note_on_c, 7, 57, 76
13, 142319, Note_on_c, 7, 57, 0
13, 142320, Note_on_c, 7, 55, 76
13, 142439, Note_on_c, 7, 55, 0
13, 142440, Note_on_c, 7, 54, 76
13, 142539, Note_on_c, 7, 54, 0
13, 142560, Note_on_c, 7, 55, 76
13, 142679, Note_on_c, 7, 55, 0
13, 142680, Note_on_c, 7, 52, 76
13, 142799, Note_on_c, 7, 52, 0
13, 142800, Note_on_c, 7, 54, 76
13, 142919, Note_on_c, 7, 54, 0
13, 142920, Note_on_c, 7, 55, 76
13, 143039, Note_on_c, 7, 55, 0
13, 143040, Note_on_c, 7, 64, 76
13, 143139, Note_on_c, 7, 64, 0
13, 143160, Note_on_c, 7, 54, 76
13, 143259, Note_on_c, 7, 54, 0
13, 143280, Note_on_c, 7, 55, 76
13, 143399, Note_on_c, 7, 55, 0
13, 143400, Note_on_c, 7, 54, 76
13, 143519, Note_on_c, 7, 54, 0
13, 143520, Note_on_c, 7, 52, 76
13, 143619, Note_on_c, 7, 52, 0
13, 143640, Note_on_c, 7, 54, 76
13, 143759, Note_on_c, 7, 54, 0
13, 143760, Note_on_c, 7, 50, 76
13, 143879, Note_on_c, 7, 50, 0
13, 143880, Note_on_c, 7, 52, 76
13, 143999, Note_on_c, 7, 52, 0
13, 144000, Note_on_c, 7, 54, 76
13, 144119, Note_on_c, 7, 54, 0
13, 144120, Note_on_c, 7, 62, 76
13, 144219, Note_on_c, 7, 62, 0
13, 144240, Note_on_c, 7, 52, 76
13, 144339, Note_on_c, 7, 52, 0
13, 144360, Note_on_c, 7, 54, 76
13, 144479, Note_on_c, 7, 54, 0
13, 144480, Note_on_c, 7, 52, 76
13, 144599, Note_on_c, 7, 52, 0
13, 144600, Note_on_c, 7, 50, 76
13, 144699, Note_on_c, 7, 50, 0
13, 144720, Note_on_c, 7, 52, 76
13, 144839, Note_on_c, 7, 52, 0
13, 144840, Note_on_c, 7, 48, 76
13, 144959, Note_on_c, 7, 48, 0
13, 144960, Note_on_c, 7, 50, 76
13, 145079, Note_on_c, 7, 50, 0
13, 145080, Note_on_c, 7, 52, 76
13, 145199, Note_on_c, 7, 52, 0
13, 145200, Note_on_c, 7, 60, 76
13, 145299, Note_on_c, 7, 60, 0
13, 145320, Note_on_c, 7, 50, 76
13, 145419, Note_on_c, 7, 50, 0
13, 145440, Note_on_c, 7, 52, 76
13, 145559, Note_on_c, 7, 52, 0
13, 145560, Note_on_c, 7, 50, 76
13, 145679, Note_on_c, 7, 50, 0
13, 145680, Note_on_c, 7, 48, 76
13, 145779, Note_on_c, 7, 48, 0
13, 145800, Note_on_c, 7, 50, 76
13, 145919, Note_on_c, 7, 50, 0
13, 147150, Note_on_c, 7, 50, 76
13, 147224, Note_on_c, 7, 50, 0
13, 147240, Note_on_c, 7, 50, 76
13, 147494, Note_on_c, 7, 50, 0
13, 147510, Note_on_c, 7, 50, 76
13, 147584, Note_on_c, 7, 50, 0
13, 147600, Note_on_c, 7, 50, 76
13, 147854, Note_on_c, 7, 50, 0
13, 147870, Note_on_c, 7, 50, 76
13, 147944, Note_on_c, 7, 50, 0
13, 147960, Note_on_c, 7, 50, 76
13, 148214, Note_on_c, 7, 50, 0
13, 148230, Note_on_c, 7, 38, 76
13, 148304, Note_on_c, 7, 38, 0
13, 148320, Note_on_c, 7, 38, 76
13, 148574, Note_on_c, 7, 38, 0
13, 148590, Note_on_c, 7, 38, 76
13, 148664, Note_on_c, 7, 38, 0
13, 148680, Note_on_c, 7, 38, 76
13, 148934, Note_on_c, 7, 38, 0
13, 148950, Note_on_c, 7, 38, 76
13, 149024, Note_on_c, 7, 38, 0
13, 149040, Note_on_c, 7, 38, 76
13, 149294, Note_on_c, 7, 38, 0
13, 149310, Note_on_c, 7, 48, 76
13, 149384, Note_on_c, 7, 48, 0
13, 149400, Note_on_c, 7, 47, 76
13, 149654, Note_on_c, 7, 47, 0
13, 149670, Note_on_c, 7, 52, 76
13, 149744, Note_on_c, 7, 52, 0
13, 149760, Note_on_c, 7, 45, 76
13, 150014, Note_on_c, 7, 45, 0
13, 150030, Note_on_c, 7, 50, 76
13, 150104, Note_on_c, 7, 50, 0
13, 150120, Note_on_c, 7, 43, 76
13, 150374, Note_on_c, 7, 43, 0
13, 150390, Note_on_c, 7, 50, 76
13, 150464, Note_on_c, 7, 50, 0
13, 150480, Note_on_c, 7, 55, 76
13, 150599, Note_on_c, 7, 55, 0
13, 150600, Note_on_c, 7, 57, 76
13, 150699, Note_on_c, 7, 57, 0
13, 150720, Note_on_c, 7, 54, 76
13, 150819, Note_on_c, 7, 54, 0
13, 150840, Note_on_c, 7, 54, 76
13, 150959, Note_on_c, 7, 54, 0
13, 150960, Note_on_c, 7, 55, 76
13, 151059, Note_on_c, 7, 55, 0
13, 151080, Note_on_c, 7, 52, 76
13, 151179, Note_on_c, 7, 52, 0
13, 151200, Note_on_c, 7, 52, 76
13, 151319, Note_on_c, 7, 52, 0
13, 151320, Note_on_c, 7, 48, 76
13, 151439, Note_on_c, 7, 48, 0
13, 151440, Note_on_c, 7, 50, 76
13, 151559, Note_on_c, 7, 50, 0
13, 151560, Note_on_c, 7, 52, 76
13, 151679, Note_on_c, 7, 52, 0
13, 151680, Note_on_c, 7, 53, 76
13, 151779, Note_on_c, 7, 53, 0
13, 151800, Note_on_c, 7, 50, 76
13, 151899, Note_on_c, 7, 50, 0
13, 151920, Note_on_c, 7, 50, 76
13, 152039, Note_on_c, 7, 50, 0
13, 152040, Note_on_c, 7, 52, 76
13, 152139, Note_on_c, 7, 52, 0
13, 152160, Note_on_c, 7, 48, 76
13, 152259, Note_on_c, 7, 48, 0
13, 152280, Note_on_c, 7, 48, 76
13, 152534, Note_on_c, 7, 48, 0
13, 152550, Note_on_c, 7, 47, 76
13, 152624, Note_on_c, 7, 47, 0
13, 152640, Note_on_c, 7, 45, 76
13, 152894, Note_on_c, 7, 45, 0
13, 152910, Note_on_c, 7, 48, 76
13, 152984, Note_on_c, 7, 48, 0
13, 153000, Note_on_c, 7, 42, 76
13, 153254, Note_on_c, 7, 42, 0
13, 153270, Note_on_c, 7, 45, 76
13, 153344, Note_on_c, 7, 45, 0
13, 153360, Note_on_c, 7, 36, 76
13, 153479, Note_on_c, 7, 36, 0
13, 153990, Note_on_c, 7, 52, 76
13, 154064, Note_on_c, 7, 52, 0
13, 154080, Note_on_c, 7, 50, 76
13, 154334, Note_on_c, 7, 50, 0
13, 154350, Note_on_c, 7, 48, 76
13, 154424, Note_on_c, 7, 48, 0
13, 154440, Note_on_c, 7, 47, 76
13, 154559, Note_on_c, 7, 47, 0
13, 154560, Note_on_c, 7, 48, 76
13, 154679, Note_on_c, 7, 48, 0
13, 154680, Note_on_c, 7, 50, 76
13, 154779, Note_on_c, 7, 50, 0
13, 154800, Note_on_c, 7, 52, 76
13, 155054, Note_on_c, 7, 52, 0
13, 155070, Note_on_c, 7, 48, 76
13, 155144, Note_on_c, 7, 48, 0
13, 155160, Note_on_c, 7, 50, 76
13, 155414, Note_on_c, 7, 50, 0
13, 155430, Note_on_c, 7, 38, 76
13, 155504, Note_on_c, 7, 38, 0
13, 155520, Note_on_c, 7, 43, 76
13, 155774, Note_on_c, 7, 43, 0
13, 155790, Note_on_c, 7, 62, 76
13, 155864, Note_on_c, 7, 62, 0
13, 155880, Note_on_c, 7, 62, 76
13, 155999, Note_on_c, 7, 62, 0
13, 156000, Note_on_c, 7, 64, 76
13, 156099, Note_on_c, 7, 64, 0
13, 156120, Note_on_c, 7, 60, 76
13, 156219, Note_on_c, 7, 60, 0
13, 156240, Note_on_c, 7, 60, 76
13, 156359, Note_on_c, 7, 60, 0
13, 156360, Note_on_c, 7, 62, 76
13, 156459, Note_on_c, 7, 62, 0
13, 156480, Note_on_c, 7, 59, 76
13, 156579, Note_on_c, 7, 59, 0
13, 156600, Note_on_c, 7, 59, 76
13, 156719, Note_on_c, 7, 59, 0
13, 156720, Note_on_c, 7, 60, 76
13, 156839, Note_on_c, 7, 60, 0
13, 156840, Note_on_c, 7, 62, 76
13, 156939, Note_on_c, 7, 62, 0
13, 156960, Note_on_c, 7, 62, 76
13, 157079, Note_on_c, 7, 62, 0
13, 157080, Note_on_c, 7, 64, 76
13, 157179, Note_on_c, 7, 64, 0
13, 157200, Note_on_c, 7, 60, 76
13, 157299, Note_on_c, 7, 60, 0
13, 157320, Note_on_c, 7, 60, 76
13, 157439, Note_on_c, 7, 60, 0
13, 157440, Note_on_c, 7, 62, 76
13, 157539, Note_on_c, 7, 62, 0
13, 157560, Note_on_c, 7, 59, 76
13, 157659, Note_on_c, 7, 59, 0
13, 157680, Note_on_c, 7, 59, 76
13, 157799, Note_on_c, 7, 59, 0
13, 179550, Note_on_c, 7, 62, 76
13, 179624, Note_on_c, 7, 62, 0
13, 179640, Note_on_c, 7, 62, 76
13, 179759, Note_on_c, 7, 62, 0
13, 179760, Note_on_c, 7, 64, 76
13, 179859, Note_on_c, 7, 64, 0
13, 179880, Note_on_c, 7, 60, 76
13, 179979, Note_on_c, 7, 60, 0
13, 180000, Note_on_c, 7, 60, 76
13, 180119, Note_on_c, 7, 60, 0
13, 180120, Note_on_c, 7, 62, 76
13, 180219, Note_on_c, 7, 62, 0
13, 180240, Note_on_c, 7, 59, 76
13, 180339, Note_on_c, 7, 59, 0
13, 180360, Note_on_c, 7, 59, 76
13, 180479, Note_on_c, 7, 59, 0
13, 180480, Note_on_c, 7, 61, 76
13, 180599, Note_on_c, 7, 61, 0
13, 180600, Note_on_c, 7, 62, 76
13, 180719, Note_on_c, 7, 62, 0
13, 180720, Note_on_c, 7, 64, 76
13, 180839, Note_on_c, 7, 64, 0
13, 180840, Note_on_c, 7, 66, 76
13, 180939, Note_on_c, 7, 66, 0
13, 180960, Note_on_c, 7, 62, 76
13, 181059, Note_on_c, 7, 62, 0
13, 181080, Note_on_c, 7, 62, 76
13, 181199, Note_on_c, 7, 62, 0
13, 181200, Note_on_c, 7, 64, 76
13, 181299, Note_on_c, 7, 64, 0
13, 181320, Note_on_c, 7, 61, 76
13, 181419, Note_on_c, 7, 61, 0
13, 181440, Note_on_c, 7, 61, 76
13, 181694, Note_on_c, 7, 61, 0
13, 181710, Note_on_c, 7, 61, 76
13, 181784, Note_on_c, 7, 61, 0
13, 181800, Note_on_c, 7, 61, 76
13, 182054, Note_on_c, 7, 61, 0
13, 182070, Note_on_c, 7, 61, 76
13, 182144, Note_on_c, 7, 61, 0
13, 182160, Note_on_c, 7, 61, 76
13, 182414, Note_on_c, 7, 61, 0
13, 182430, Note_on_c, 7, 61, 76
13, 182504, Note_on_c, 7, 61, 0
13, 182520, Note_on_c, 7, 62, 76
13, 182774, Note_on_c, 7, 62, 0
13, 182790, Note_on_c, 7, 57, 76
13, 182864, Note_on_c, 7, 57, 0
13, 182880, Note_on_c, 7, 57, 76
13, 182999, Note_on_c, 7, 57, 0
13, 183000, Note_on_c, 7, 59, 76
13, 183099, Note_on_c, 7, 59, 0
13, 183120, Note_on_c, 7, 55, 76
13, 183219, Note_on_c, 7, 55, 0
13, 183240, Note_on_c, 7, 55, 76
13, 183359, Note_on_c, 7, 55, 0
13, 183360, Note_on_c, 7, 57, 76
13, 183459, Note_on_c, 7, 57, 0
13, 183480, Note_on_c, 7, 54, 76
13, 183579, Note_on_c, 7, 54, 0
13, 183600, Note_on_c, 7, 54, 76
13, 183719, Note_on_c, 7, 54, 0
13, 183720, Note_on_c, 7, 56, 76
13, 183839, Note_on_c, 7, 56, 0
13, 183840, Note_on_c, 7, 57, 76
13, 183959, Note_on_c, 7, 57, 0
13, 183960, Note_on_c, 7, 59, 76
13, 184079, Note_on_c, 7, 59, 0
13, 184080, Note_on_c, 7, 61, 76
13, 184179, Note_on_c, 7, 61, 0
13, 184200, Note_on_c, 7, 57, 76
13, 184299, Note_on_c, 7, 57, 0
13, 184320, Note_on_c, 7, 57, 76
13, 184439, Note_on_c, 7, 57, 0
13, 184440, Note_on_c, 7, 59, 76
13, 184539, Note_on_c, 7, 59, 0
13, 184560, Note_on_c, 7, 56, 76
13, 184659, Note_on_c, 7, 56, 0
13, 184680, Note_on_c, 7, 56, 76
13, 184934, Note_on_c, 7, 56, 0
13, 184950, Note_on_c, 7, 56, 76
13, 185024, Note_on_c, 7, 56, 0
13, 185040, Note_on_c, 7, 56, 76
13, 185294, Note_on_c, 7, 56, 0
13, 185310, Note_on_c, 7, 56, 76
13, 185384, Note_on_c, 7, 56, 0
13, 185400, Note_on_c, 7, 56, 76
13, 185654, Note_on_c, 7, 56, 0
13, 185670, Note_on_c, 7, 56, 76
13, 185744, Note_on_c, 7, 56, 0
13, 185760, Note_on_c, 7, 57, 76
13, 186014, Note_on_c, 7, 57, 0
13, 186030, Note_on_c, 7, 55, 76
13, 186104, Note_on_c, 7, 55, 0
13, 186120, Note_on_c, 7, 54, 76
13, 186374, Note_on_c, 7, 54, 0
13, 186390, Note_on_c, 7, 54, 76
13, 186464, Note_on_c, 7, 54, 0
13, 186480, Note_on_c, 7, 54, 76
13, 186734, Note_on_c, 7, 54, 0
13, 186750, Note_on_c, 7, 54, 76
13, 186824, Note_on_c, 7, 54, 0
13, 186840, Note_on_c, 7, 55, 76
13, 186959, Note_on_c, 7, 55, 0
13, 186960, Note_on_c, 7, 52, 76
13, 187079, Note_on_c, 7, 52, 0
13, 187080, Note_on_c, 7, 54, 76
13, 187179, Note_on_c, 7, 54, 0
13, 187200, Note_on_c, 7, 55, 76
13, 187319, Note_on_c, 7, 55, 0
13, 187320, Note_on_c, 7, 57, 76
13, 187419, Note_on_c, 7, 57, 0
13, 187440, Note_on_c, 7, 54, 76
13, 187539, Note_on_c, 7, 54, 0
13, 187560, Note_on_c, 7, 54, 76
13, 187679, Note_on_c, 7, 54, 0
13, 187680, Note_on_c, 7, 55, 76
13, 187779, Note_on_c, 7, 55, 0
13, 187800, Note_on_c, 7, 52, 76
13, 187899, Note_on_c, 7, 52, 0
13, 187920, Note_on_c, 7, 52, 76
13, 188174, Note_on_c, 7, 52, 0
13, 188190, Note_on_c, 7, 64, 76
13, 188264, Note_on_c, 7, 64, 0
13, 188280, Note_on_c, 7, 64, 76
13, 188534, Note_on_c, 7, 64, 0
13, 188550, Note_on_c, 7, 64, 76
13, 188624, Note_on_c, 7, 64, 0
13, 188640, Note_on_c, 7, 64, 76
13, 188759, Note_on_c, 7, 64, 0
13, 189270, Note_on_c, 7, 57, 76
13, 189344, Note_on_c, 7, 57, 0
13, 189360, Note_on_c, 7, 57, 76
13, 189614, Note_on_c, 7, 57, 0
13, 189630, Note_on_c, 7, 57, 76
13, 189704, Note_on_c, 7, 57, 0
13, 189720, Note_on_c, 7, 57, 76
13, 189839, Note_on_c, 7, 57, 0
13, 190350, Note_on_c, 7, 62, 76
13, 190424, Note_on_c, 7, 62, 0
13, 190440, Note_on_c, 7, 62, 76
13, 190694, Note_on_c, 7, 62, 0
13, 190710, Note_on_c, 7, 62, 76
13, 190784, Note_on_c, 7, 62, 0
13, 190800, Note_on_c, 7, 62, 76
13, 190919, Note_on_c, 7, 62, 0
13, 191430, Note_on_c, 7, 55, 76
13, 191504, Note_on_c, 7, 55, 0
13, 191520, Note_on_c, 7, 52, 76
13, 191774, Note_on_c, 7, 52, 0
13, 191790, Note_on_c, 7, 52, 76
13, 191864, Note_on_c, 7, 52, 0
13, 191880, Note_on_c, 7, 54, 76
13, 192134, Note_on_c, 7, 54, 0
13, 192150, Note_on_c, 7, 55, 76
13, 192224, Note_on_c, 7, 55, 0
13, 192240, Note_on_c, 7, 57, 76
13, 192494, Note_on_c, 7, 57, 0
13, 192510, Note_on_c, 7, 55, 76
13, 192584, Note_on_c, 7, 55, 0
13, 192600, Note_on_c, 7, 54, 76
13, 192854, Note_on_c, 7, 54, 0
13, 192870, Note_on_c, 7, 54, 76
13, 192944, Note_on_c, 7, 54, 0
13, 192960, Note_on_c, 7, 55, 76
13, 193214, Note_on_c, 7, 55, 0
13, 193230, Note_on_c, 7, 57, 76
13, 193304, Note_on_c, 7, 57, 0
13, 193320, Note_on_c, 7, 59, 76
13, 193439, Note_on_c, 7, 59, 0
13, 193680, Note_on_c, 7, 55, 76
13, 193799, Note_on_c, 7, 55, 0
13, 194040, Note_on_c, 7, 54, 76
13, 194159, Note_on_c, 7, 54, 0
13, 194400, Note_on_c, 7, 52, 76
13, 194519, Note_on_c, 7, 52, 0
13, 194520, Note_on_c, 7, 55, 76
13, 194639, Note_on_c, 7, 55, 0
13, 194640, Note_on_c, 7, 59, 76
13, 194739, Note_on_c, 7, 59, 0
13, 194760, Note_on_c, 7, 64, 76
13, 194879, Note_on_c, 7, 64, 0
13, 194880, Note_on_c, 7, 66, 76
13, 194979, Note_on_c, 7, 66, 0
13, 195000, Note_on_c, 7, 62, 76
13, 195099, Note_on_c, 7, 62, 0
13, 195120, Note_on_c, 7, 62, 76
13, 195239, Note_on_c, 7, 62, 0
13, 195240, Note_on_c, 7, 64, 76
13, 195339, Note_on_c, 7, 64, 0
13, 195360, Note_on_c, 7, 61, 76
13, 195459, Note_on_c, 7, 61, 0
13, 195480, Note_on_c, 7, 61, 76
13, 195599, Note_on_c, 7, 61, 0
13, 196110, Note_on_c, 7, 57, 76
13, 196184, Note_on_c, 7, 57, 0
13, 196200, Note_on_c, 7, 54, 76
13, 196454, Note_on_c, 7, 54, 0
13, 196470, Note_on_c, 7, 57, 76
13, 196544, Note_on_c, 7, 57, 0
13, 196560, Note_on_c, 7, 50, 76
13, 196814, Note_on_c, 7, 50, 0
13, 196830, Note_on_c, 7, 52, 76
13, 196904, Note_on_c, 7, 52, 0
13, 196920, Note_on_c, 7, 54, 76
13, 197174, Note_on_c, 7, 54, 0
13, 197190, Note_on_c, 7, 55, 76
13, 197264, Note_on_c, 7, 55, 0
13, 197280, Note_on_c, 7, 57, 76
13, 197534, Note_on_c, 7, 57, 0
13, 197550, Note_on_c, 7, 45, 76
13, 197624, Note_on_c, 7, 45, 0
13, 197640, Note_on_c, 7, 50, 76
13, 197894, Note_on_c, 7, 50, 0
13, 197910, Note_on_c, 7, 57, 76
13, 197984, Note_on_c, 7, 57, 0
13, 198000, Note_on_c, 7, 57, 76
13, 198119, Note_on_c, 7, 57, 0
13, 198120, Note_on_c, 7, 59, 76
13, 198219, Note_on_c, 7, 59, 0
13, 198240, Note_on_c, 7, 55, 76
13, 198339, Note_on_c, 7, 55, 0
13, 198360, Note_on_c, 7, 55, 76
13, 198479, Note_on_c, 7, 55, 0
13, 198480, Note_on_c, 7, 57, 76
13, 198579, Note_on_c, 7, 57, 0
13, 198600, Note_on_c, 7, 54, 76
13, 198699, Note_on_c, 7, 54, 0
13, 198720, Note_on_c, 7, 54, 76
13, 198839, Note_on_c, 7, 54, 0
13, 198840, Note_on_c, 7, 55, 76
13, 198959, Note_on_c, 7, 55, 0
13, 198960, Note_on_c, 7, 57, 76
13, 199059, Note_on_c, 7, 57, 0
13, 199080, Note_on_c, 7, 57, 76
13, 199199, Note_on_c, 7, 57, 0
13, 199200, Note_on_c, 7, 59, 76
13, 199299, Note_on_c, 7, 59, 0
13, 199320, Note_on_c, 7, 55, 76
13, 199419, Note_on_c, 7, 55, 0
13, 199440, Note_on_c, 7, 55, 76
13, 199559, Note_on_c, 7, 55, 0
13, 199560, Note_on_c, 7, 57, 76
13, 199659, Note_on_c, 7, 57, 0
13, 199680, Note_on_c, 7, 54, 76
13, 199779, Note_on_c, 7, 54, 0
13, 199800, Note_on_c, 7, 54, 76
13, 200039, Note_on_c, 7, 54, 0
13, 200280, Note_on_c, 7, 50, 76
13, 200573, Note_on_c, 7, 50, 0
13, 200580, Note_on_c, 7, 52, 76
13, 200633, Note_on_c, 7, 52, 0
13, 200640, Note_on_c, 7, 54, 76
13, 200693, Note_on_c, 7, 54, 0
13, 200700, Note_on_c, 7, 50, 76
13, 200753, Note_on_c, 7, 50, 0
13, 200760, Note_on_c, 7, 60, 76
13, 201533, Note_on_c, 7, 60, 0
13, 201540, Note_on_c, 7, 59, 76
13, 201593, Note_on_c, 7, 59, 0
13, 201600, Note_on_c, 7, 60, 76
13, 201653, Note_on_c, 7, 60, 0
13, 201660, Note_on_c, 7, 57, 76
13, 201713, Note_on_c, 7, 57, 0
13, 201720, Note_on_c, 7, 63, 76
13, 202253, Note_on_c, 7, 63, 0
13, 202260, Note_on_c, 7, 61, 76
13, 202313, Note_on_c, 7, 61, 0
13, 202320, Note_on_c, 7, 59, 76
13, 202373, Note_on_c, 7, 59, 0
13, 202380, Note_on_c, 7, 61, 76
13, 202433, Note_on_c, 7, 61, 0
13, 202440, Note_on_c, 7, 63, 76
13, 202493, Note_on_c, 7, 63, 0
13, 202500, Note_on_c, 7, 61, 76
13, 202553, Note_on_c, 7, 61, 0
13, 202560, Note_on_c, 7, 63, 76
13, 202613, Note_on_c, 7, 63, 0
13, 202620, Note_on_c, 7, 59, 76
13, 202673, Note_on_c, 7, 59, 0
13, 202680, Note_on_c, 7, 64, 76
13, 202853, Note_on_c, 7, 64, 0
13, 202860, Note_on_c, 7, 59, 76
13, 202913, Note_on_c, 7, 59, 0
13, 202920, Note_on_c, 7, 59, 76
13, 203093, Note_on_c, 7, 59, 0
13, 203100, Note_on_c, 7, 55, 76
13, 203153, Note_on_c, 7, 55, 0
13, 203160, Note_on_c, 7, 55, 76
13, 203333, Note_on_c, 7, 55, 0
13, 203340, Note_on_c, 7, 52, 76
13, 203393, Note_on_c, 7, 52, 0
13, 203400, Note_on_c, 7, 52, 76
13, 203573, Note_on_c, 7, 52, 0
13, 203580, Note_on_c, 7, 45, 76
13, 203633, Note_on_c, 7, 45, 0
13, 203640, Note_on_c, 7, 45, 76
13, 203813, Note_on_c, 7, 45, 0
13, 203820, Note_on_c, 7, 57, 76
13, 203873, Note_on_c, 7, 57, 0
13, 203880, Note_on_c, 7, 57, 76
13, 204053, Note_on_c, 7, 57, 0
13, 204060, Note_on_c, 7, 52, 76
13, 204113, Note_on_c, 7, 52, 0
13, 204120, Note_on_c, 7, 52, 76
13, 204293, Note_on_c, 7, 52, 0
13, 204300, Note_on_c, 7, 49, 76
13, 204353, Note_on_c, 7, 49, 0
13, 204360, Note_on_c, 7, 49, 76
13, 204533, Note_on_c, 7, 49, 0
13, 204540, Note_on_c, 7, 45, 76
13, 204593, Note_on_c, 7, 45, 0
13, 204600, Note_on_c, 7, 50, 76
13, 204773, Note_on_c, 7, 50, 0
13, 204780, Note_on_c, 7, 45, 76
13, 204833, Note_on_c, 7, 45, 0
13, 204840, Note_on_c, 7, 45, 76
13, 205013, Note_on_c, 7, 45, 0
13, 205020, Note_on_c, 7, 42, 76
13, 205073, Note_on_c, 7, 42, 0
13, 205080, Note_on_c, 7, 42, 76
13, 205253, Note_on_c, 7, 42, 0
13, 205260, Note_on_c, 7, 38, 76
13, 205313, Note_on_c, 7, 38, 0
13, 205320, Note_on_c, 7, 38, 76
13, 205493, Note_on_c, 7, 38, 0
13, 205500, Note_on_c, 7, 42, 76
13, 205553, Note_on_c, 7, 42, 0
13, 205560, Note_on_c, 7, 43, 76
13, 205733, Note_on_c, 7, 43, 0
13, 205740, Note_on_c, 7, 47, 76
13, 205793, Note_on_c, 7, 47, 0
13, 205800, Note_on_c, 7, 47, 76
13, 205973, Note_on_c, 7, 47, 0
13, 205980, Note_on_c, 7, 52, 76
13, 206033, Note_on_c, 7, 52, 0
13, 206040, Note_on_c, 7, 52, 76
13, 206213, Note_on_c, 7, 52, 0
13, 206220, Note_on_c, 7, 55, 76
13, 206273, Note_on_c, 7, 55, 0
13, 206280, Note_on_c, 7, 55, 76
13, 206453, Note_on_c, 7, 55, 0
13, 206460, Note_on_c, 7, 52, 76
13, 206513, Note_on_c, 7, 52, 0
13, 206520, Note_on_c, 7, 49, 76
13, 206693, Note_on_c, 7, 49, 0
13, 206700, Note_on_c, 7, 45, 76
13, 206753, Note_on_c, 7, 45, 0
13, 206760, Note_on_c, 7, 45, 76
13, 206933, Note_on_c, 7, 45, 0
13, 206940, Note_on_c, 7, 49, 76
13, 206993, Note_on_c, 7, 49, 0
13, 207000, Note_on_c, 7, 50, 76
13, 207773, Note_on_c, 7, 50, 0
13, 207780, Note_on_c, 7, 49, 76
13, 207833, Note_on_c, 7, 49, 0
13, 207840, Note_on_c, 7, 50, 76
13, 207893, Note_on_c, 7, 50, 0
13, 207900, Note_on_c, 7, 47, 76
13, 207953, Note_on_c, 7, 47, 0
13, 207960, Note_on_c, 7, 49, 76
13, 208189, Note_on_c, 7, 49, 0
13, 208200, Note_on_c, 7, 45, 76
13, 208429, Note_on_c, 7, 45, 0
13, 208440, Note_on_c, 7, 50, 76
13, 208973, Note_on_c, 7, 50, 0
13, 208980, Note_on_c, 7, 50, 76
13, 209033, Note_on_c, 7, 50, 0
13, 209040, Note_on_c, 7, 52, 76
13, 209093, Note_on_c, 7, 52, 0
13, 209100, Note_on_c, 7, 54, 76
13, 209153, Note_on_c, 7, 54, 0
13, 209160, Note_on_c, 7, 55, 76
13, 209213, Note_on_c, 7, 55, 0
13, 209220, Note_on_c, 7, 54, 76
13, 209273, Note_on_c, 7, 54, 0
13, 209280, Note_on_c, 7, 55, 76
13, 209333, Note_on_c, 7, 55, 0
13, 209340, Note_on_c, 7, 52, 76
13, 209371, Note_on_c, 7, 52, 0
13, 209380, Note_on_c, 7, 50, 76
13, 209399, Note_on_c, 7, 50, 0
13, 209400, Note_on_c, 7, 49, 76
13, 209749, Note_on_c, 7, 49, 0
13, 209760, Note_on_c, 7, 47, 76
13, 209869, Note_on_c, 7, 47, 0
13, 209880, Note_on_c, 7, 46, 76
13, 210109, Note_on_c, 7, 46, 0
13, 210120, Note_on_c, 7, 42, 76
13, 210349, Note_on_c, 7, 42, 0
13, 210360, Note_on_c, 7, 47, 76
13, 210893, Note_on_c, 7, 47, 0
13, 210900, Note_on_c, 7, 45, 76
13, 210953, Note_on_c, 7, 45, 0
13, 210960, Note_on_c, 7, 47, 76
13, 211013, Note_on_c, 7, 47, 0
13, 211020, Note_on_c, 7, 49, 76
13, 211073, Note_on_c, 7, 49, 0
13, 211080, Note_on_c, 7, 50, 76
13, 211133, Note_on_c, 7, 50, 0
13, 211140, Note_on_c, 7, 49, 76
13, 211193, Note_on_c, 7, 49, 0
13, 211200, Note_on_c, 7, 50, 76
13, 211253, Note_on_c, 7, 50, 0
13, 211260, Note_on_c, 7, 47, 76
13, 211313, Note_on_c, 7, 47, 0
13, 211320, Note_on_c, 7, 49, 76
13, 211493, Note_on_c, 7, 49, 0
13, 211500, Note_on_c, 7, 45, 76
13, 211553, Note_on_c, 7, 45, 0
13, 211560, Note_on_c, 7, 50, 76
13, 211733, Note_on_c, 7, 50, 0
13, 211740, Note_on_c, 7, 52, 76
13, 211793, Note_on_c, 7, 52, 0
13, 211800, Note_on_c, 7, 54, 76
13, 211973, Note_on_c, 7, 54, 0
13, 211980, Note_on_c, 7, 55, 76
13, 212033, Note_on_c, 7, 55, 0
13, 212040, Note_on_c, 7, 52, 76
13, 212213, Note_on_c, 7, 52, 0
13, 212220, Note_on_c, 7, 50, 76
13, 212273, Note_on_c, 7, 50, 0
13, 212280, Note_on_c, 7, 45, 76
13, 213173, Note_on_c, 7, 45, 0
13, 213180, Note_on_c, 7, 45, 76
13, 213233, Note_on_c, 7, 45, 0
13, 213240, Note_on_c, 7, 45, 76
13, 214133, Note_on_c, 7, 45, 0
13, 214140, Note_on_c, 7, 45, 76
13, 214193, Note_on_c, 7, 45, 0
13, 214200, Note_on_c, 7, 45, 76
13, 215093, Note_on_c, 7, 45, 0
13, 215100, Note_on_c, 7, 45, 76
13, 215153, Note_on_c, 7, 45, 0
13, 215160, Note_on_c, 7, 45, 76
13, 216053, Note_on_c, 7, 45, 0
13, 216060, Note_on_c, 7, 45, 76
13, 216113, Note_on_c, 7, 45, 0
13, 216120, Note_on_c, 7, 45, 76
13, 216653, Note_on_c, 7, 45, 0
13, 216660, Note_on_c, 7, 47, 76
13, 216713, Note_on_c, 7, 47, 0
13, 216720, Note_on_c, 7, 45, 76
13, 216773, Note_on_c, 7, 45, 0
13, 216780, Note_on_c, 7, 43, 76
13, 216833, Note_on_c, 7, 43, 0
13, 216840, Note_on_c, 7, 42, 76
13, 216893, Note_on_c, 7, 42, 0
13, 216900, Note_on_c, 7, 40, 76
13, 216953, Note_on_c, 7, 40, 0
13, 216960, Note_on_c, 7, 42, 76
13, 217013, Note_on_c, 7, 42, 0
13, 217020, Note_on_c, 7, 38, 76
13, 217073, Note_on_c, 7, 38, 0
13, 217080, Note_on_c, 7, 47, 76
13, 217613, Note_on_c, 7, 47, 0
13, 217620, Note_on_c, 7, 48, 76
13, 217673, Note_on_c, 7, 48, 0
13, 217680, Note_on_c, 7, 47, 76
13, 217733, Note_on_c, 7, 47, 0
13, 217740, Note_on_c, 7, 45, 76
13, 217793, Note_on_c, 7, 45, 0
13, 217800, Note_on_c, 7, 43, 76
13, 217853, Note_on_c, 7, 43, 0
13, 217860, Note_on_c, 7, 42, 76
13, 217913, Note_on_c, 7, 42, 0
13, 217920, Note_on_c, 7, 43, 76
13, 217973, Note_on_c, 7, 43, 0
13, 217980, Note_on_c, 7, 40, 76
13, 218033, Note_on_c, 7, 40, 0
13, 218040, Note_on_c, 7, 49, 76
13, 218213, Note_on_c, 7, 49, 0
13, 218220, Note_on_c, 7, 45, 76
13, 218273, Note_on_c, 7, 45, 0
13, 218280, Note_on_c, 7, 50, 76
13, 218453, Note_on_c, 7, 50, 0
13, 218460, Note_on_c, 7, 43, 76
13, 218513, Note_on_c, 7, 43, 0
13, 218520, Note_on_c, 7, 45, 76
13, 218749, Note_on_c, 7, 45, 0
13, 218760, Note_on_c, 7, 45, 76
13, 218989, Note_on_c, 7, 45, 0
13, 219000, Note_on_c, 7, 50, 76
13, 219219, Note_on_c, 7, 50, 0
13, 219240, Note_on_c, 7, 52, 76
13, 219339, Note_on_c, 7, 52, 0
13, 219360, Note_on_c, 7, 54, 76
13, 219479, Note_on_c, 7, 54, 0
13, 219480, Note_on_c, 7, 57, 76
13, 219579, Note_on_c, 7, 57, 0
13, 219600, Note_on_c, 7, 56, 76
13, 219699, Note_on_c, 7, 56, 0
13, 219720, Note_on_c, 7, 56, 76
13, 219839, Note_on_c, 7, 56, 0
13, 219840, Note_on_c, 7, 59, 76
13, 219939, Note_on_c, 7, 59, 0
13, 219960, Note_on_c, 7, 57, 76
13, 220059, Note_on_c, 7, 57, 0
13, 220080, Note_on_c, 7, 57, 76
13, 220439, Note_on_c, 7, 57, 0
13, 225720, Note_on_c, 7, 62, 76
13, 225819, Note_on_c, 7, 62, 0
13, 225840, Note_on_c, 7, 62, 76
13, 225959, Note_on_c, 7, 62, 0
13, 225960, Note_on_c, 7, 64, 76
13, 226059, Note_on_c, 7, 64, 0
13, 226080, Note_on_c, 7, 60, 76
13, 226179, Note_on_c, 7, 60, 0
13, 226200, Note_on_c, 7, 60, 76
13, 226319, Note_on_c, 7, 60, 0
13, 226320, Note_on_c, 7, 62, 76
13, 226419, Note_on_c, 7, 62, 0
13, 226440, Note_on_c, 7, 59, 76
13, 226539, Note_on_c, 7, 59, 0
13, 226560, Note_on_c, 7, 59, 76
13, 226679, Note_on_c, 7, 59, 0
13, 226680, Note_on_c, 7, 61, 76
13, 226799, Note_on_c, 7, 61, 0
13, 226800, Note_on_c, 7, 62, 76
13, 226899, Note_on_c, 7, 62, 0
13, 226920, Note_on_c, 7, 64, 76
13, 227039, Note_on_c, 7, 64, 0
13, 227040, Note_on_c, 7, 66, 76
13, 227139, Note_on_c, 7, 66, 0
13, 227160, Note_on_c, 7, 62, 76
13, 227259, Note_on_c, 7, 62, 0
13, 227280, Note_on_c, 7, 62, 76
13, 227399, Note_on_c, 7, 62, 0
13, 227400, Note_on_c, 7, 64, 76
13, 227499, Note_on_c, 7, 64, 0
13, 227520, Note_on_c, 7, 61, 76
13, 227619, Note_on_c, 7, 61, 0
13, 227640, Note_on_c, 7, 61, 76
13, 227894, Note_on_c, 7, 61, 0
13, 227910, Note_on_c, 7, 61, 76
13, 227984, Note_on_c, 7, 61, 0
13, 228000, Note_on_c, 7, 61, 76
13, 228254, Note_on_c, 7, 61, 0
13, 228270, Note_on_c, 7, 61, 76
13, 228344, Note_on_c, 7, 61, 0
13, 228360, Note_on_c, 7, 61, 76
13, 228614, Note_on_c, 7, 61, 0
13, 228630, Note_on_c, 7, 61, 76
13, 228704, Note_on_c, 7, 61, 0
13, 228720, Note_on_c, 7, 62, 76
13, 228974, Note_on_c, 7, 62, 0
13, 228990, Note_on_c, 7, 57, 76
13, 229064, Note_on_c, 7, 57, 0
13, 229080, Note_on_c, 7, 57, 76
13, 229199, Note_on_c, 7, 57, 0
13, 229200, Note_on_c, 7, 59, 76
13, 229299, Note_on_c, 7, 59, 0
13, 229320, Note_on_c, 7, 55, 76
13, 229419, Note_on_c, 7, 55, 0
13, 229440, Note_on_c, 7, 55, 76
13, 229559, Note_on_c, 7, 55, 0
13, 229560, Note_on_c, 7, 57, 76
13, 229659, Note_on_c, 7, 57, 0
13, 229680, Note_on_c, 7, 54, 76
13, 229779, Note_on_c, 7, 54, 0
13, 229800, Note_on_c, 7, 54, 76
13, 229919, Note_on_c, 7, 54, 0
13, 229920, Note_on_c, 7, 56, 76
13, 230039, Note_on_c, 7, 56, 0
13, 230040, Note_on_c, 7, 57, 76
13, 230139, Note_on_c, 7, 57, 0
13, 230160, Note_on_c, 7, 59, 76
13, 230279, Note_on_c, 7, 59, 0
13, 230280, Note_on_c, 7, 61, 76
13, 230379, Note_on_c, 7, 61, 0
13, 230400, Note_on_c, 7, 57, 76
13, 230499, Note_on_c, 7, 57, 0
13, 230520, Note_on_c, 7, 57, 76
13, 230639, Note_on_c, 7, 57, 0
13, 230640, Note_on_c, 7, 59, 76
13, 230739, Note_on_c, 7, 59, 0
13, 230760, Note_on_c, 7, 56, 76
13, 230859, Note_on_c, 7, 56, 0
13, 230880, Note_on_c, 7, 56, 76
13, 231134, Note_on_c, 7, 56, 0
13, 231150, Note_on_c, 7, 56, 76
13, 231224, Note_on_c, 7, 56, 0
13, 231240, Note_on_c, 7, 56, 76
13, 231494, Note_on_c, 7, 56, 0
13, 231510, Note_on_c, 7, 56, 76
13, 231584, Note_on_c, 7, 56, 0
13, 231600, Note_on_c, 7, 56, 76
13, 231854, Note_on_c, 7, 56, 0
13, 231870, Note_on_c, 7, 56, 76
13, 231944, Note_on_c, 7, 56, 0
13, 231960, Note_on_c, 7, 57, 76
13, 232214, Note_on_c, 7, 57, 0
13, 232230, Note_on_c, 7, 55, 76
13, 232304, Note_on_c, 7, 55, 0
13, 232320, Note_on_c, 7, 54, 76
13, 232574, Note_on_c, 7, 54, 0
13, 232590, Note_on_c, 7, 54, 76
13, 232664, Note_on_c, 7, 54, 0
13, 232680, Note_on_c, 7, 54, 76
13, 232934, Note_on_c, 7, 54, 0
13, 232950, Note_on_c, 7, 54, 76
13, 233024, Note_on_c, 7, 54, 0
13, 233040, Note_on_c, 7, 55, 76
13, 233159, Note_on_c, 7, 55, 0
13, 233160, Note_on_c, 7, 52, 76
13, 233279, Note_on_c, 7, 52, 0
13, 233280, Note_on_c, 7, 54, 76
13, 233379, Note_on_c, 7, 54, 0
13, 233400, Note_on_c, 7, 55, 76
13, 233519, Note_on_c, 7, 55, 0
13, 233520, Note_on_c, 7, 57, 76
13, 233619, Note_on_c, 7, 57, 0
13, 233640, Note_on_c, 7, 54, 76
13, 233739, Note_on_c, 7, 54, 0
13, 233760, Note_on_c, 7, 54, 76
13, 233879, Note_on_c, 7, 54, 0
13, 233880, Note_on_c, 7, 55, 76
13, 233979, Note_on_c, 7, 55, 0
13, 234000, Note_on_c, 7, 52, 76
13, 234099, Note_on_c, 7, 52, 0
13, 234120, Note_on_c, 7, 52, 76
13, 234374, Note_on_c, 7, 52, 0
13, 234390, Note_on_c, 7, 52, 76
13, 234464, Note_on_c, 7, 52, 0
13, 234480, Note_on_c, 7, 52, 76
13, 234734, Note_on_c, 7, 52, 0
13, 234750, Note_on_c, 7, 52, 76
13, 234824, Note_on_c, 7, 52, 0
13, 234840, Note_on_c, 7, 52, 76
13, 234959, Note_on_c, 7, 52, 0
13, 235470, Note_on_c, 7, 45, 76
13, 235544, Note_on_c, 7, 45, 0
13, 235560, Note_on_c, 7, 45, 76
13, 235814, Note_on_c, 7, 45, 0
13, 235830, Note_on_c, 7, 45, 76
13, 235904, Note_on_c, 7, 45, 0
13, 235920, Note_on_c, 7, 45, 76
13, 236039, Note_on_c, 7, 45, 0
13, 236550, Note_on_c, 7, 50, 76
13, 236624, Note_on_c, 7, 50, 0
13, 236640, Note_on_c, 7, 50, 76
13, 236894, Note_on_c, 7, 50, 0
13, 236910, Note_on_c, 7, 50, 76
13, 236984, Note_on_c, 7, 50, 0
13, 237000, Note_on_c, 7, 50, 76
13, 237119, Note_on_c, 7, 50, 0
13, 237630, Note_on_c, 7, 55, 76
13, 237704, Note_on_c, 7, 55, 0
13, 237720, Note_on_c, 7, 52, 76
13, 237974, Note_on_c, 7, 52, 0
13, 237990, Note_on_c, 7, 52, 76
13, 238064, Note_on_c, 7, 52, 0
13, 238080, Note_on_c, 7, 54, 76
13, 238334, Note_on_c, 7, 54, 0
13, 238350, Note_on_c, 7, 55, 76
13, 238424, Note_on_c, 7, 55, 0
13, 238440, Note_on_c, 7, 57, 76
13, 238694, Note_on_c, 7, 57, 0
13, 238710, Note_on_c, 7, 55, 76
13, 238784, Note_on_c, 7, 55, 0
13, 238800, Note_on_c, 7, 54, 76
13, 239054, Note_on_c, 7, 54, 0
13, 239070, Note_on_c, 7, 54, 76
13, 239144, Note_on_c, 7, 54, 0
13, 239160, Note_on_c, 7, 55, 76
13, 239414, Note_on_c, 7, 55, 0
13, 239430, Note_on_c, 7, 57, 76
13, 239504, Note_on_c, 7, 57, 0
13, 239520, Note_on_c, 7, 59, 76
13, 239639, Note_on_c, 7, 59, 0
13, 239880, Note_on_c, 7, 55, 76
13, 239999, Note_on_c, 7, 55, 0
13, 240240, Note_on_c, 7, 54, 76
13, 240359, Note_on_c, 7, 54, 0
13, 240600, Note_on_c, 7, 52, 76
13, 240719, Note_on_c, 7, 52, 0
13, 240720, Note_on_c, 7, 55, 76
13, 240839, Note_on_c, 7, 55, 0
13, 240840, Note_on_c, 7, 59, 76
13, 240939, Note_on_c, 7, 59, 0
13, 240960, Note_on_c, 7, 64, 76
13, 241079, Note_on_c, 7, 64, 0
13, 241080, Note_on_c, 7, 66, 76
13, 241179, Note_on_c, 7, 66, 0
13, 241200, Note_on_c, 7, 62, 76
13, 241299, Note_on_c, 7, 62, 0
13, 241320, Note_on_c, 7, 62, 76
13, 241439, Note_on_c, 7, 62, 0
13, 241440, Note_on_c, 7, 64, 76
13, 241539, Note_on_c, 7, 64, 0
13, 241560, Note_on_c, 7, 61, 76
13, 241659, Note_on_c, 7, 61, 0
13, 241680, Note_on_c, 7, 61, 76
13, 241799, Note_on_c, 7, 61, 0
13, 242310, Note_on_c, 7, 57, 76
13, 242384, Note_on_c, 7, 57, 0
13, 242400, Note_on_c, 7, 54, 76
13, 242654, Note_on_c, 7, 54, 0
13, 242670, Note_on_c, 7, 57, 76
13, 242744, Note_on_c, 7, 57, 0
13, 242760, Note_on_c, 7, 50, 76
13, 243014, Note_on_c, 7, 50, 0
13, 243030, Note_on_c, 7, 52, 76
13, 243104, Note_on_c, 7, 52, 0
13, 243120, Note_on_c, 7, 54, 76
13, 243374, Note_on_c, 7, 54, 0
13, 243390, Note_on_c, 7, 55, 76
13, 243464, Note_on_c, 7, 55, 0
13, 243480, Note_on_c, 7, 57, 76
13, 243734, Note_on_c, 7, 57, 0
13, 243750, Note_on_c, 7, 45, 76
13, 243824, Note_on_c, 7, 45, 0
13, 243840, Note_on_c, 7, 50, 76
13, 243959, Note_on_c, 7, 50, 0
13, 244920, Note_on_c, 7, 38, 76
13, 245039, Note_on_c, 7, 38, 0
13, 246000, Note_on_c, 7, 50, 76
13, 246119, Note_on_c, 7, 50, 0
13, 246630, Note_on_c, 7, 50, 76
13, 246704, Note_on_c, 7, 50, 0
13, 246720, Note_on_c, 7, 50, 76
13, 246974, Note_on_c, 7, 50, 0
13, 246990, Note_on_c, 7, 50, 76
13, 247064, Note_on_c, 7, 50, 0
13, 247080, Note_on_c, 7, 55, 76
13, 247199, Note_on_c, 7, 55, 0
13, 247710, Note_on_c, 7, 52, 76
13, 247784, Note_on_c, 7, 52, 0
13, 247800, Note_on_c, 7, 52, 76
13, 248054, Note_on_c, 7, 52, 0
13, 248070, Note_on_c, 7, 52, 76
13, 248144, Note_on_c, 7, 52, 0
13, 248160, Note_on_c, 7, 57, 76
13, 248279, Note_on_c, 7, 57, 0
13, 248790, Note_on_c, 7, 54, 76
13, 248864, Note_on_c, 7, 54, 0
13, 248880, Note_on_c, 7, 54, 76
13, 249134, Note_on_c, 7, 54, 0
13, 249150, Note_on_c, 7, 54, 76
13, 249224, Note_on_c, 7, 54, 0
13, 249240, Note_on_c, 7, 59, 76
13, 249359, Note_on_c, 7, 59, 0
13, 251760, Note_on_c, 7, 54, 76
13, 251879, Note_on_c, 7, 54, 0
13, 252120, Note_on_c, 7, 42, 76
13, 252239, Note_on_c, 7, 42, 0
13, 252840, Note_on_c, 7, 59, 76
13, 252959, Note_on_c, 7, 59, 0
13, 253200, Note_on_c, 7, 47, 76
13, 253319, Note_on_c, 7, 47, 0
13, 253920, Note_on_c, 7, 52, 76
13, 254039, Note_on_c, 7, 52, 0
13, 254280, Note_on_c, 7, 40, 76
13, 254399, Note_on_c, 7, 40, 0
13, 255000, Note_on_c, 7, 57, 76
13, 255119, Note_on_c, 7, 57, 0
13, 255360, Note_on_c, 7, 45, 76
13, 255479, Note_on_c, 7, 45, 0
13, 256080, Note_on_c, 7, 50, 76
13, 256199, Note_on_c, 7, 50, 0
13, 256440, Note_on_c, 7, 38, 76
13, 256559, Note_on_c, 7, 38, 0
13, 257160, Note_on_c, 7, 50, 76
13, 257279, Note_on_c, 7, 50, 0
13, 257520, Note_on_c, 7, 38, 76
13, 257639, Note_on_c, 7, 38, 0
13, 257880, Note_on_c, 7, 40, 76
13, 261119, Note_on_c, 7, 40, 0
13, 261120, Note_on_c, 7, 41, 76
13, 261239, Note_on_c, 7, 41, 0
13, 262200, Note_on_c, 7, 40, 76
13, 262319, Note_on_c, 7, 40, 0
13, 263550, Note_on_c, 7, 51, 76
13, 263624, Note_on_c, 7, 51, 0
13, 263640, Note_on_c, 7, 51, 76
13, 263894, Note_on_c, 7, 51, 0
13, 263910, Note_on_c, 7, 51, 76
13, 263984, Note_on_c, 7, 51, 0
13, 264000, Note_on_c, 7, 51, 76
13, 264254, Note_on_c, 7, 51, 0
13, 264270, Note_on_c, 7, 51, 76
13, 264344, Note_on_c, 7, 51, 0
13, 264360, Note_on_c, 7, 52, 76
13, 264614, Note_on_c, 7, 52, 0
13, 264630, Note_on_c, 7, 52, 76
13, 264704, Note_on_c, 7, 52, 0
13, 264720, Note_on_c, 7, 52, 76
13, 264974, Note_on_c, 7, 52, 0
13, 264990, Note_on_c, 7, 52, 76
13, 265064, Note_on_c, 7, 52, 0
13, 265080, Note_on_c, 7, 52, 76
13, 265334, Note_on_c, 7, 52, 0
13, 265350, Note_on_c, 7, 52, 76
13, 265424, Note_on_c, 7, 52, 0
13, 265440, Note_on_c, 7, 54, 76
13, 265694, Note_on_c, 7, 54, 0
13, 265710, Note_on_c, 7, 47, 76
13, 265784, Note_on_c, 7, 47, 0
13, 265800, Note_on_c, 7, 49, 76
13, 266054, Note_on_c, 7, 49, 0
13, 266070, Note_on_c, 7, 50, 76
13, 266144, Note_on_c, 7, 50, 0
13, 266160, Note_on_c, 7, 52, 76
13, 266414, Note_on_c, 7, 52, 0
13, 266430, Note_on_c, 7, 52, 76
13, 266504, Note_on_c, 7, 52, 0
13, 266520, Note_on_c, 7, 45, 76
13, 266774, Note_on_c, 7, 45, 0
13, 266790, Note_on_c, 7, 64, 76
13, 266864, Note_on_c, 7, 64, 0
13, 266880, Note_on_c, 7, 64, 76
13, 266999, Note_on_c, 7, 64, 0
13, 267000, Note_on_c, 7, 66, 76
13, 267099, Note_on_c, 7, 66, 0
13, 267120, Note_on_c, 7, 62, 76
13, 267219, Note_on_c, 7, 62, 0
13, 267240, Note_on_c, 7, 62, 76
13, 267359, Note_on_c, 7, 62, 0
13, 267360, Note_on_c, 7, 64, 76
13, 267459, Note_on_c, 7, 64, 0
13, 267480, Note_on_c, 7, 61, 76
13, 267579, Note_on_c, 7, 61, 0
13, 267600, Note_on_c, 7, 61, 76
13, 267719, Note_on_c, 7, 61, 0
13, 267720, Note_on_c, 7, 62, 76
13, 267839, Note_on_c, 7, 62, 0
13, 267840, Note_on_c, 7, 64, 76
13, 267939, Note_on_c, 7, 64, 0
13, 267960, Note_on_c, 7, 64, 76
13, 268079, Note_on_c, 7, 64, 0
13, 268080, Note_on_c, 7, 66, 76
13, 268179, Note_on_c, 7, 66, 0
13, 268200, Note_on_c, 7, 62, 76
13, 268299, Note_on_c, 7, 62, 0
13, 268320, Note_on_c, 7, 62, 76
13, 268439, Note_on_c, 7, 62, 0
13, 268440, Note_on_c, 7, 64, 76
13, 268539, Note_on_c, 7, 64, 0
13, 268560, Note_on_c, 7, 61, 76
13, 268659, Note_on_c, 7, 61, 0
13, 268680, Note_on_c, 7, 61, 76
13, 268799, Note_on_c, 7, 61, 0
13, 270030, Note_on_c, 7, 57, 76
13, 270104, Note_on_c, 7, 57, 0
13, 270120, Note_on_c, 7, 57, 76
13, 270239, Note_on_c, 7, 57, 0
13, 270240, Note_on_c, 7, 59, 76
13, 270339, Note_on_c, 7, 59, 0
13, 270360, Note_on_c, 7, 56, 76
13, 270459, Note_on_c, 7, 56, 0
13, 270480, Note_on_c, 7, 56, 76
13, 270599, Note_on_c, 7, 56, 0
13, 270600, Note_on_c, 7, 57, 76
13, 270699, Note_on_c, 7, 57, 0
13, 270720, Note_on_c, 7, 54, 76
13, 270819, Note_on_c, 7, 54, 0
13, 270840, Note_on_c, 7, 54, 76
13, 270959, Note_on_c, 7, 54, 0
13, 270960, Note_on_c, 7, 56, 76
13, 271079, Note_on_c, 7, 56, 0
13, 271080, Note_on_c, 7, 57, 76
13, 271199, Note_on_c, 7, 57, 0
13, 271200, Note_on_c, 7, 59, 76
13, 271319, Note_on_c, 7, 59, 0
13, 271320, Note_on_c, 7, 61, 76
13, 271419, Note_on_c, 7, 61, 0
13, 271440, Note_on_c, 7, 57, 76
13, 271539, Note_on_c, 7, 57, 0
13, 271560, Note_on_c, 7, 57, 76
13, 271679, Note_on_c, 7, 57, 0
13, 271680, Note_on_c, 7, 59, 76
13, 271779, Note_on_c, 7, 59, 0
13, 271800, Note_on_c, 7, 56, 76
13, 271899, Note_on_c, 7, 56, 0
13, 271920, Note_on_c, 7, 56, 76
13, 272174, Note_on_c, 7, 56, 0
13, 272190, Note_on_c, 7, 56, 76
13, 272264, Note_on_c, 7, 56, 0
13, 272280, Note_on_c, 7, 56, 76
13, 272534, Note_on_c, 7, 56, 0
13, 272550, Note_on_c, 7, 56, 76
13, 272624, Note_on_c, 7, 56, 0
13, 272640, Note_on_c, 7, 56, 76
13, 272894, Note_on_c, 7, 56, 0
13, 272910, Note_on_c, 7, 56, 76
13, 272984, Note_on_c, 7, 56, 0
13, 273000, Note_on_c, 7, 57, 76
13, 273254, Note_on_c, 7, 57, 0
13, 273270, Note_on_c, 7, 52, 76
13, 273344, Note_on_c, 7, 52, 0
13, 273360, Note_on_c, 7, 52, 76
13, 273479, Note_on_c, 7, 52, 0
13, 273480, Note_on_c, 7, 54, 76
13, 273579, Note_on_c, 7, 54, 0
13, 273600, Note_on_c, 7, 50, 76
13, 273699, Note_on_c, 7, 50, 0
13, 273720, Note_on_c, 7, 50, 76
13, 273839, Note_on_c, 7, 50, 0
13, 273840, Note_on_c, 7, 52, 76
13, 273939, Note_on_c, 7, 52, 0
13, 273960, Note_on_c, 7, 49, 76
13, 274059, Note_on_c, 7, 49, 0
13, 274080, Note_on_c, 7, 49, 76
13, 274199, Note_on_c, 7, 49, 0
13, 274200, Note_on_c, 7, 50, 76
13, 274319, Note_on_c, 7, 50, 0
13, 274320, Note_on_c, 7, 52, 76
13, 274439, Note_on_c, 7, 52, 0
13, 274440, Note_on_c, 7, 54, 76
13, 274559, Note_on_c, 7, 54, 0
13, 274560, Note_on_c, 7, 55, 76
13, 274659, Note_on_c, 7, 55, 0
13, 274680, Note_on_c, 7, 52, 76
13, 274779, Note_on_c, 7, 52, 0
13, 274800, Note_on_c, 7, 52, 76
13, 274919, Note_on_c, 7, 52, 0
13, 274920, Note_on_c, 7, 54, 76
13, 275019, Note_on_c, 7, 54, 0
13, 275040, Note_on_c, 7, 51, 76
13, 275139, Note_on_c, 7, 51, 0
13, 275160, Note_on_c, 7, 51, 76
13, 275414, Note_on_c, 7, 51, 0
13, 275430, Note_on_c, 7, 51, 76
13, 275504, Note_on_c, 7, 51, 0
13, 275520, Note_on_c, 7, 51, 76
13, 275774, Note_on_c, 7, 51, 0
13, 275790, Note_on_c, 7, 51, 76
13, 275864, Note_on_c, 7, 51, 0
13, 275880, Note_on_c, 7, 51, 76
13, 276134, Note_on_c, 7, 51, 0
13, 276150, Note_on_c, 7, 51, 76
13, 276224, Note_on_c, 7, 51, 0
13, 276240, Note_on_c, 7, 52, 76
13, 276509, Note_on_c, 7, 52, 0
13, 276510, Note_on_c, 7, 50, 76
13, 276599, Note_on_c, 7, 50, 0
13, 276600, Note_on_c, 7, 49, 76
13, 276854, Note_on_c, 7, 49, 0
13, 276870, Note_on_c, 7, 49, 76
13, 276944, Note_on_c, 7, 49, 0
13, 276960, Note_on_c, 7, 49, 76
13, 277214, Note_on_c, 7, 49, 0
13, 277230, Note_on_c, 7, 49, 76
13, 277304, Note_on_c, 7, 49, 0
13, 277320, Note_on_c, 7, 50, 76
13, 277439, Note_on_c, 7, 50, 0
13, 277440, Note_on_c, 7, 47, 76
13, 277559, Note_on_c, 7, 47, 0
13, 277560, Note_on_c, 7, 49, 76
13, 277679, Note_on_c, 7, 49, 0
13, 277680, Note_on_c, 7, 50, 76
13, 277799, Note_on_c, 7, 50, 0
13, 277800, Note_on_c, 7, 52, 76
13, 277899, Note_on_c, 7, 52, 0
13, 277920, Note_on_c, 7, 49, 76
13, 278019, Note_on_c, 7, 49, 0
13, 278040, Note_on_c, 7, 49, 76
13, 278159, Note_on_c, 7, 49, 0
13, 278160, Note_on_c, 7, 50, 76
13, 278259, Note_on_c, 7, 50, 0
13, 278280, Note_on_c, 7, 47, 76
13, 278379, Note_on_c, 7, 47, 0
13, 278400, Note_on_c, 7, 47, 76
13, 278654, Note_on_c, 7, 47, 0
13, 278670, Note_on_c, 7, 59, 76
13, 278744, Note_on_c, 7, 59, 0
13, 278760, Note_on_c, 7, 59, 76
13, 279014, Note_on_c, 7, 59, 0
13, 279030, Note_on_c, 7, 59, 76
13, 279104, Note_on_c, 7, 59, 0
13, 279120, Note_on_c, 7, 59, 76
13, 279239, Note_on_c, 7, 59, 0
13, 279750, Note_on_c, 7, 52, 76
13, 279824, Note_on_c, 7, 52, 0
13, 279840, Note_on_c, 7, 52, 76
13, 280094, Note_on_c, 7, 52, 0
13, 280110, Note_on_c, 7, 52, 76
13, 280184, Note_on_c, 7, 52, 0
13, 280830, Note_on_c, 7, 57, 76
13, 280904, Note_on_c, 7, 57, 0
13, 280920, Note_on_c, 7, 57, 76
13, 281174, Note_on_c, 7, 57, 0
13, 281190, Note_on_c, 7, 57, 76
13, 281264, Note_on_c, 7, 57, 0
13, 281280, Note_on_c, 7, 57, 76
13, 281399, Note_on_c, 7, 57, 0
13, 281910, Note_on_c, 7, 50, 76
13, 281984, Note_on_c, 7, 50, 0
13, 282000, Note_on_c, 7, 47, 76
13, 282254, Note_on_c, 7, 47, 0
13, 282270, Note_on_c, 7, 47, 76
13, 282344, Note_on_c, 7, 47, 0
13, 282360, Note_on_c, 7, 49, 76
13, 282614, Note_on_c, 7, 49, 0
13, 282630, Note_on_c, 7, 50, 76
13, 282704, Note_on_c, 7, 50, 0
13, 282720, Note_on_c, 7, 52, 76
13, 282974, Note_on_c, 7, 52, 0
13, 282990, Note_on_c, 7, 50, 76
13, 283064, Note_on_c, 7, 50, 0
13, 283080, Note_on_c, 7, 49, 76
13, 283334, Note_on_c, 7, 49, 0
13, 283350, Note_on_c, 7, 49, 76
13, 283424, Note_on_c, 7, 49, 0
13, 283440, Note_on_c, 7, 50, 76
13, 283694, Note_on_c, 7, 50, 0
13, 283710, Note_on_c, 7, 52, 76
13, 283784, Note_on_c, 7, 52, 0
13, 283800, Note_on_c, 7, 54, 76
13, 283919, Note_on_c, 7, 54, 0
13, 284160, Note_on_c, 7, 50, 76
13, 284279, Note_on_c, 7, 50, 0
13, 284520, Note_on_c, 7, 49, 76
13, 284639, Note_on_c, 7, 49, 0
13, 284880, Note_on_c, 7, 47, 76
13, 284999, Note_on_c, 7, 47, 0
13, 285000, Note_on_c, 7, 50, 76
13, 285119, Note_on_c, 7, 50, 0
13, 285120, Note_on_c, 7, 54, 76
13, 285239, Note_on_c, 7, 54, 0
13, 285240, Note_on_c, 7, 59, 76
13, 285359, Note_on_c, 7, 59, 0
13, 285360, Note_on_c, 7, 61, 76
13, 285479, Note_on_c, 7, 61, 0
13, 285480, Note_on_c, 7, 57, 76
13, 285599, Note_on_c, 7, 57, 0
13, 285600, Note_on_c, 7, 57, 76
13, 285719, Note_on_c, 7, 57, 0
13, 285720, Note_on_c, 7, 59, 76
13, 285839, Note_on_c, 7, 59, 0
13, 285840, Note_on_c, 7, 56, 76
13, 285959, Note_on_c, 7, 56, 0
13, 285960, Note_on_c, 7, 56, 76
13, 286079, Note_on_c, 7, 56, 0
13, 286590, Note_on_c, 7, 52, 76
13, 286664, Note_on_c, 7, 52, 0
13, 286680, Note_on_c, 7, 49, 76
13, 286934, Note_on_c, 7, 49, 0
13, 286950, Note_on_c, 7, 52, 76
13, 287024, Note_on_c, 7, 52, 0
13, 287040, Note_on_c, 7, 45, 76
13, 287294, Note_on_c, 7, 45, 0
13, 287310, Note_on_c, 7, 47, 76
13, 287384, Note_on_c, 7, 47, 0
13, 287400, Note_on_c, 7, 49, 76
13, 287654, Note_on_c, 7, 49, 0
13, 287670, Note_on_c, 7, 50, 76
13, 287744, Note_on_c, 7, 50, 0
13, 287760, Note_on_c, 7, 52, 76
13, 288014, Note_on_c, 7, 52, 0
13, 288030, Note_on_c, 7, 40, 76
13, 288104, Note_on_c, 7, 40, 0
13, 288120, Note_on_c, 7, 45, 76
13, 288479, Note_on_c, 7, 45, 0
13, 289200, Note_on_c, 7, 45, 76
13, 289559, Note_on_c, 7, 45, 0
13, 290280, Note_on_c, 7, 45, 76
13, 290639, Note_on_c, 7, 45, 0
13, 291630, Note_on_c, 7, 45, 76
13, 291704, Note_on_c, 7, 45, 0
13, 291720, Note_on_c, 7, 49, 76
13, 291974, Note_on_c, 7, 49, 0
13, 291990, Note_on_c, 7, 52, 76
13, 292064, Note_on_c, 7, 52, 0
13, 292080, Note_on_c, 7, 49, 76
13, 292334, Note_on_c, 7, 49, 0
13, 292350, Note_on_c, 7, 45, 76
13, 292424, Note_on_c, 7, 45, 0
13, 292440, Note_on_c, 7, 50, 76
13, 292799, Note_on_c, 7, 50, 0
13, 293520, Note_on_c, 7, 50, 76
13, 293879, Note_on_c, 7, 50, 0
13, 294600, Note_on_c, 7, 50, 76
13, 294959, Note_on_c, 7, 50, 0
13, 295950, Note_on_c, 7, 50, 76
13, 296024, Note_on_c, 7, 50, 0
13, 296040, Note_on_c, 7, 54, 76
13, 296294, Note_on_c, 7, 54, 0
13, 296310, Note_on_c, 7, 57, 76
13, 296384, Note_on_c, 7, 57, 0
13, 296400, Note_on_c, 7, 54, 76
13, 296654, Note_on_c, 7, 54, 0
13, 296670, Note_on_c, 7, 50, 76
13, 296744, Note_on_c, 7, 50, 0
13, 296760, Note_on_c, 7, 43, 76
13, 297014, Note_on_c, 7, 43, 0
13, 297030, Note_on_c, 7, 55, 76
13, 297104, Note_on_c, 7, 55, 0
13, 297120, Note_on_c, 7, 55, 76
13, 297239, Note_on_c, 7, 55, 0
13, 297240, Note_on_c, 7, 57, 76
13, 297339, Note_on_c, 7, 57, 0
13, 297360, Note_on_c, 7, 54, 76
13, 297459, Note_on_c, 7, 54, 0
13, 297480, Note_on_c, 7, 54, 76
13, 297599, Note_on_c, 7, 54, 0
13, 297600, Note_on_c, 7, 55, 76
13, 297699, Note_on_c, 7, 55, 0
13, 297720, Note_on_c, 7, 52, 76
13, 297819, Note_on_c, 7, 52, 0
13, 297840, Note_on_c, 7, 52, 76
13, 297959, Note_on_c, 7, 52, 0
13, 297960, Note_on_c, 7, 54, 76
13, 298079, Note_on_c, 7, 54, 0
13, 298080, Note_on_c, 7, 56, 76
13, 298199, Note_on_c, 7, 56, 0
13, 298200, Note_on_c, 7, 57, 76
13, 298319, Note_on_c, 7, 57, 0
13, 298320, Note_on_c, 7, 59, 76
13, 298419, Note_on_c, 7, 59, 0
13, 298440, Note_on_c, 7, 55, 76
13, 298539, Note_on_c, 7, 55, 0
13, 298560, Note_on_c, 7, 55, 76
13, 298679, Note_on_c, 7, 55, 0
13, 298680, Note_on_c, 7, 57, 76
13, 298779, Note_on_c, 7, 57, 0
13, 298800, Note_on_c, 7, 54, 76
13, 298899, Note_on_c, 7, 54, 0
13, 298920, Note_on_c, 7, 54, 76
13, 299039, Note_on_c, 7, 54, 0
13, 299040, Note_on_c, 7, 56, 76
13, 299159, Note_on_c, 7, 56, 0
13, 299160, Note_on_c, 7, 58, 76
13, 299279, Note_on_c, 7, 58, 0
13, 299280, Note_on_c, 7, 59, 76
13, 299399, Note_on_c, 7, 59, 0
13, 299400, Note_on_c, 7, 61, 76
13, 299499, Note_on_c, 7, 61, 0
13, 299520, Note_on_c, 7, 57, 76
13, 299619, Note_on_c, 7, 57, 0
13, 299640, Note_on_c, 7, 57, 76
13, 299759, Note_on_c, 7, 57, 0
13, 299760, Note_on_c, 7, 59, 76
13, 299859, Note_on_c, 7, 59, 0
13, 299880, Note_on_c, 7, 56, 76
13, 299979, Note_on_c, 7, 56, 0
13, 300000, Note_on_c, 7, 56, 76
13, 300119, Note_on_c, 7, 56, 0
13, 300120, Note_on_c, 7, 58, 76
13, 300239, Note_on_c, 7, 58, 0
13, 300240, Note_on_c, 7, 59, 76
13, 300359, Note_on_c, 7, 59, 0
13, 300360, Note_on_c, 7, 61, 76
13, 300479, Note_on_c, 7, 61, 0
13, 300480, Note_on_c, 7, 62, 76
13, 300579, Note_on_c, 7, 62, 0
13, 300600, Note_on_c, 7, 59, 76
13, 300699, Note_on_c, 7, 59, 0
13, 300720, Note_on_c, 7, 59, 76
13, 300839, Note_on_c, 7, 59, 0
13, 300840, Note_on_c, 7, 61, 76
13, 300939, Note_on_c, 7, 61, 0
13, 300960, Note_on_c, 7, 58, 76
13, 301059, Note_on_c, 7, 58, 0
13, 301080, Note_on_c, 7, 58, 76
13, 301199, Note_on_c, 7, 58, 0
13, 302430, Note_on_c, 7, 54, 76
13, 302504, Note_on_c, 7, 54, 0
13, 302520, Note_on_c, 7, 54, 76
13, 302774, Note_on_c, 7, 54, 0
13, 302790, Note_on_c, 7, 54, 76
13, 302864, Note_on_c, 7, 54, 0
13, 302880, Note_on_c, 7, 54, 76
13, 303134, Note_on_c, 7, 54, 0
13, 303150, Note_on_c, 7, 54, 76
13, 303224, Note_on_c, 7, 54, 0
13, 303240, Note_on_c, 7, 54, 76
13, 303494, Note_on_c, 7, 54, 0
13, 303510, Note_on_c, 7, 42, 76
13, 303584, Note_on_c, 7, 42, 0
13, 303600, Note_on_c, 7, 42, 76
13, 303854, Note_on_c, 7, 42, 0
13, 303870, Note_on_c, 7, 42, 76
13, 303944, Note_on_c, 7, 42, 0
13, 303960, Note_on_c, 7, 42, 76
13, 304214, Note_on_c, 7, 42, 0
13, 304230, Note_on_c, 7, 42, 76
13, 304304, Note_on_c, 7, 42, 0
13, 304320, Note_on_c, 7, 42, 76
13, 304574, Note_on_c, 7, 42, 0
13, 304590, Note_on_c, 7, 52, 76
13, 304664, Note_on_c, 7, 52, 0
13, 304680, Note_on_c, 7, 50, 76
13, 304934, Note_on_c, 7, 50, 0
13, 304950, Note_on_c, 7, 55, 76
13, 305024, Note_on_c, 7, 55, 0
13, 305040, Note_on_c, 7, 49, 76
13, 305294, Note_on_c, 7, 49, 0
13, 305310, Note_on_c, 7, 54, 76
13, 305384, Note_on_c, 7, 54, 0
13, 305400, Note_on_c, 7, 47, 76
13, 305654, Note_on_c, 7, 47, 0
13, 305670, Note_on_c, 7, 54, 76
13, 305744, Note_on_c, 7, 54, 0
13, 305760, Note_on_c, 7, 59, 76
13, 305879, Note_on_c, 7, 59, 0
13, 305880, Note_on_c, 7, 61, 76
13, 305979, Note_on_c, 7, 61, 0
13, 306000, Note_on_c, 7, 57, 76
13, 306099, Note_on_c, 7, 57, 0
13, 306120, Note_on_c, 7, 57, 76
13, 306239, Note_on_c, 7, 57, 0
13, 306240, Note_on_c, 7, 59, 76
13, 306339, Note_on_c, 7, 59, 0
13, 306360, Note_on_c, 7, 55, 76
13, 306459, Note_on_c, 7, 55, 0
13, 306480, Note_on_c, 7, 55, 76
13, 306579, Note_on_c, 7, 55, 0
13, 306600, Note_on_c, 7, 52, 76
13, 306719, Note_on_c, 7, 52, 0
13, 306720, Note_on_c, 7, 54, 76
13, 306839, Note_on_c, 7, 54, 0
13, 306840, Note_on_c, 7, 55, 76
13, 306959, Note_on_c, 7, 55, 0
13, 306960, Note_on_c, 7, 57, 76
13, 307059, Note_on_c, 7, 57, 0
13, 307080, Note_on_c, 7, 54, 76
13, 307179, Note_on_c, 7, 54, 0
13, 307200, Note_on_c, 7, 54, 76
13, 307319, Note_on_c, 7, 54, 0
13, 307320, Note_on_c, 7, 55, 76
13, 307419, Note_on_c, 7, 55, 0
13, 307440, Note_on_c, 7, 52, 76
13, 307539, Note_on_c, 7, 52, 0
13, 307560, Note_on_c, 7, 52, 76
13, 307814, Note_on_c, 7, 52, 0
13, 307830, Note_on_c, 7, 50, 76
13, 307904, Note_on_c, 7, 50, 0
13, 307920, Note_on_c, 7, 49, 76
13, 308174, Note_on_c, 7, 49, 0
13, 308190, Note_on_c, 7, 52, 76
13, 308264, Note_on_c, 7, 52, 0
13, 308280, Note_on_c, 7, 46, 76
13, 308534, Note_on_c, 7, 46, 0
13, 308550, Note_on_c, 7, 49, 76
13, 308624, Note_on_c, 7, 49, 0
13, 308640, Note_on_c, 7, 42, 76
13, 308999, Note_on_c, 7, 42, 0
13, 309270, Note_on_c, 7, 55, 76
13, 309344, Note_on_c, 7, 55, 0
13, 309360, Note_on_c, 7, 54, 76
13, 309614, Note_on_c, 7, 54, 0
13, 309630, Note_on_c, 7, 52, 76
13, 309704, Note_on_c, 7, 52, 0
13, 309720, Note_on_c, 7, 50, 76
13, 309974, Note_on_c, 7, 50, 0
13, 309990, Note_on_c, 7, 47, 76
13, 310064, Note_on_c, 7, 47, 0
13, 310080, Note_on_c, 7, 52, 76
13, 310199, Note_on_c, 7, 52, 0
13, 310200, Note_on_c, 7, 54, 76
13, 310319, Note_on_c, 7, 54, 0
13, 310320, Note_on_c, 7, 55, 76
13, 310419, Note_on_c, 7, 55, 0
13, 310440, Note_on_c, 7, 54, 76
13, 310694, Note_on_c, 7, 54, 0
13, 310710, Note_on_c, 7, 42, 76
13, 310784, Note_on_c, 7, 42, 0
13, 310800, Note_on_c, 7, 47, 76
13, 310919, Note_on_c, 7, 47, 0
13, 313230, Note_on_c, 7, 59, 76
13, 313304, Note_on_c, 7, 59, 0
13, 313320, Note_on_c, 7, 59, 76
13, 313439, Note_on_c, 7, 59, 0
13, 313440, Note_on_c, 7, 60, 76
13, 313559, Note_on_c, 7, 60, 0
13, 313560, Note_on_c, 7, 57, 76
13, 313679, Note_on_c, 7, 57, 0
13, 313680, Note_on_c, 7, 57, 76
13, 313799, Note_on_c, 7, 57, 0
13, 313800, Note_on_c, 7, 59, 76
13, 313919, Note_on_c, 7, 59, 0
13, 313920, Note_on_c, 7, 55, 76
13, 314039, Note_on_c, 7, 55, 0
13, 314040, Note_on_c, 7, 55, 76
13, 314159, Note_on_c, 7, 55, 0
13, 314160, Note_on_c, 7, 57, 76
13, 314279, Note_on_c, 7, 57, 0
13, 314280, Note_on_c, 7, 59, 76
13, 314399, Note_on_c, 7, 59, 0
13, 314400, Note_on_c, 7, 60, 76
13, 314519, Note_on_c, 7, 60, 0
13, 314520, Note_on_c, 7, 62, 76
13, 314619, Note_on_c, 7, 62, 0
13, 314640, Note_on_c, 7, 59, 76
13, 314739, Note_on_c, 7, 59, 0
13, 314760, Note_on_c, 7, 59, 76
13, 314879, Note_on_c, 7, 59, 0
13, 314880, Note_on_c, 7, 60, 76
13, 314979, Note_on_c, 7, 60, 0
13, 315000, Note_on_c, 7, 57, 76
13, 315099, Note_on_c, 7, 57, 0
13, 315120, Note_on_c, 7, 57, 76
13, 315374, Note_on_c, 7, 57, 0
13, 315390, Note_on_c, 7, 57, 76
13, 315464, Note_on_c, 7, 57, 0
13, 315480, Note_on_c, 7, 57, 76
13, 315734, Note_on_c, 7, 57, 0
13, 315750, Note_on_c, 7, 57, 76
13, 315824, Note_on_c, 7, 57, 0
13, 315840, Note_on_c, 7, 57, 76
13, 316094, Note_on_c, 7, 57, 0
13, 316110, Note_on_c, 7, 57, 76
13, 316184, Note_on_c, 7, 57, 0
13, 316200, Note_on_c, 7, 57, 76
13, 316319, Note_on_c, 7, 57, 0
13, 316320, Note_on_c, 7, 54, 76
13, 316439, Note_on_c, 7, 54, 0
13, 316440, Note_on_c, 7, 55, 76
13, 316559, Note_on_c, 7, 55, 0
13, 316560, Note_on_c, 7, 57, 76
13, 316679, Note_on_c, 7, 57, 0
13, 316680, Note_on_c, 7, 66, 76
13, 316779, Note_on_c, 7, 66, 0
13, 316800, Note_on_c, 7, 55, 76
13, 316899, Note_on_c, 7, 55, 0
13, 316920, Note_on_c, 7, 57, 76
13, 317039, Note_on_c, 7, 57, 0
13, 317040, Note_on_c, 7, 55, 76
13, 317159, Note_on_c, 7, 55, 0
13, 317160, Note_on_c, 7, 54, 76
13, 317259, Note_on_c, 7, 54, 0
13, 317280, Note_on_c, 7, 55, 76
13, 317399, Note_on_c, 7, 55, 0
13, 317400, Note_on_c, 7, 52, 76
13, 317519, Note_on_c, 7, 52, 0
13, 317520, Note_on_c, 7, 54, 76
13, 317639, Note_on_c, 7, 54, 0
13, 317640, Note_on_c, 7, 55, 76
13, 317759, Note_on_c, 7, 55, 0
13, 317760, Note_on_c, 7, 64, 76
13, 317859, Note_on_c, 7, 64, 0
13, 317880, Note_on_c, 7, 54, 76
13, 317979, Note_on_c, 7, 54, 0
13, 318000, Note_on_c, 7, 55, 76
13, 318119, Note_on_c, 7, 55, 0
13, 318120, Note_on_c, 7, 54, 76
13, 318239, Note_on_c, 7, 54, 0
13, 318240, Note_on_c, 7, 52, 76
13, 318339, Note_on_c, 7, 52, 0
13, 318360, Note_on_c, 7, 54, 76
13, 318479, Note_on_c, 7, 54, 0
13, 318480, Note_on_c, 7, 50, 76
13, 318599, Note_on_c, 7, 50, 0
13, 318600, Note_on_c, 7, 52, 76
13, 318719, Note_on_c, 7, 52, 0
13, 318720, Note_on_c, 7, 54, 76
13, 318839, Note_on_c, 7, 54, 0
13, 318840, Note_on_c, 7, 62, 76
13, 318939, Note_on_c, 7, 62, 0
13, 318960, Note_on_c, 7, 52, 76
13, 319059, Note_on_c, 7, 52, 0
13, 319080, Note_on_c, 7, 54, 76
13, 319199, Note_on_c, 7, 54, 0
13, 319200, Note_on_c, 7, 52, 76
13, 319319, Note_on_c, 7, 52, 0
13, 319320, Note_on_c, 7, 50, 76
13, 319419, Note_on_c, 7, 50, 0
13, 319440, Note_on_c, 7, 52, 76
13, 319559, Note_on_c, 7, 52, 0
13, 319560, Note_on_c, 7, 48, 76
13, 319679, Note_on_c, 7, 48, 0
13, 319680, Note_on_c, 7, 50, 76
13, 319799, Note_on_c, 7, 50, 0
13, 319800, Note_on_c, 7, 52, 76
13, 319919, Note_on_c, 7, 52, 0
13, 319920, Note_on_c, 7, 60, 76
13, 320019, Note_on_c, 7, 60, 0
13, 320040, Note_on_c, 7, 50, 76
13, 320139, Note_on_c, 7, 50, 0
13, 320160, Note_on_c, 7, 52, 76
13, 320279, Note_on_c, 7, 52, 0
13, 320280, Note_on_c, 7, 50, 76
13, 320399, Note_on_c, 7, 50, 0
13, 320400, Note_on_c, 7, 48, 76
13, 320499, Note_on_c, 7, 48, 0
13, 320520, Note_on_c, 7, 50, 76
13, 320639, Note_on_c, 7, 50, 0
13, 321870, Note_on_c, 7, 50, 76
13, 321944, Note_on_c, 7, 50, 0
13, 321960, Note_on_c, 7, 50, 76
13, 322214, Note_on_c, 7, 50, 0
13, 322230, Note_on_c, 7, 50, 76
13, 322304, Note_on_c, 7, 50, 0
13, 322320, Note_on_c, 7, 50, 76
13, 322574, Note_on_c, 7, 50, 0
13, 322590, Note_on_c, 7, 50, 76
13, 322664, Note_on_c, 7, 50, 0
13, 322680, Note_on_c, 7, 50, 76
13, 322934, Note_on_c, 7, 50, 0
13, 322950, Note_on_c, 7, 38, 76
13, 323024, Note_on_c, 7, 38, 0
13, 323040, Note_on_c, 7, 38, 76
13, 323294, Note_on_c, 7, 38, 0
13, 323310, Note_on_c, 7, 38, 76
13, 323384, Note_on_c, 7, 38, 0
13, 323400, Note_on_c, 7, 38, 76
13, 323654, Note_on_c, 7, 38, 0
13, 323670, Note_on_c, 7, 38, 76
13, 323744, Note_on_c, 7, 38, 0
13, 323760, Note_on_c, 7, 38, 76
13, 324014, Note_on_c, 7, 38, 0
13, 324030, Note_on_c, 7, 48, 76
13, 324104, Note_on_c, 7, 48, 0
13, 324120, Note_on_c, 7, 47, 76
13, 324374, Note_on_c, 7, 47, 0
13, 324390, Note_on_c, 7, 52, 76
13, 324464, Note_on_c, 7, 52, 0
13, 324480, Note_on_c, 7, 45, 76
13, 324734, Note_on_c, 7, 45, 0
13, 324750, Note_on_c, 7, 50, 76
13, 324824, Note_on_c, 7, 50, 0
13, 324840, Note_on_c, 7, 43, 76
13, 325094, Note_on_c, 7, 43, 0
13, 325110, Note_on_c, 7, 50, 76
13, 325184, Note_on_c, 7, 50, 0
13, 325200, Note_on_c, 7, 55, 76
13, 325319, Note_on_c, 7, 55, 0
13, 325320, Note_on_c, 7, 57, 76
13, 325419, Note_on_c, 7, 57, 0
13, 325440, Note_on_c, 7, 54, 76
13, 325539, Note_on_c, 7, 54, 0
13, 325560, Note_on_c, 7, 54, 76
13, 325679, Note_on_c, 7, 54, 0
13, 325680, Note_on_c, 7, 55, 76
13, 325779, Note_on_c, 7, 55, 0
13, 325800, Note_on_c, 7, 52, 76
13, 325899, Note_on_c, 7, 52, 0
13, 325920, Note_on_c, 7, 52, 76
13, 326039, Note_on_c, 7, 52, 0
13, 326040, Note_on_c, 7, 48, 76
13, 326159, Note_on_c, 7, 48, 0
13, 326160, Note_on_c, 7, 50, 76
13, 326279, Note_on_c, 7, 50, 0
13, 326280, Note_on_c, 7, 52, 76
13, 326399, Note_on_c, 7, 52, 0
13, 326400, Note_on_c, 7, 53, 76
13, 326499, Note_on_c, 7, 53, 0
13, 326520, Note_on_c, 7, 50, 76
13, 326619, Note_on_c, 7, 50, 0
13, 326640, Note_on_c, 7, 50, 76
13, 326759, Note_on_c, 7, 50, 0
13, 326760, Note_on_c, 7, 52, 76
13, 326859, Note_on_c, 7, 52, 0
13, 326880, Note_on_c, 7, 48, 76
13, 326979, Note_on_c, 7, 48, 0
13, 327000, Note_on_c, 7, 48, 76
13, 327254, Note_on_c, 7, 48, 0
13, 327270, Note_on_c, 7, 47, 76
13, 327344, Note_on_c, 7, 47, 0
13, 327360, Note_on_c, 7, 45, 76
13, 327614, Note_on_c, 7, 45, 0
13, 327630, Note_on_c, 7, 48, 76
13, 327704, Note_on_c, 7, 48, 0
13, 327720, Note_on_c, 7, 42, 76
13, 327974, Note_on_c, 7, 42, 0
13, 327990, Note_on_c, 7, 45, 76
13, 328064, Note_on_c, 7, 45, 0
13, 328080, Note_on_c, 7, 36, 76
13, 328199, Note_on_c, 7, 36, 0
13, 328710, Note_on_c, 7, 52, 76
13, 328784, Note_on_c, 7, 52, 0
13, 328800, Note_on_c, 7, 50, 76
13, 329054, Note_on_c, 7, 50, 0
13, 329070, Note_on_c, 7, 48, 76
13, 329144, Note_on_c, 7, 48, 0
13, 329160, Note_on_c, 7, 47, 76
13, 329279, Note_on_c, 7, 47, 0
13, 329280, Note_on_c, 7, 48, 76
13, 329399, Note_on_c, 7, 48, 0
13, 329400, Note_on_c, 7, 50, 76
13, 329499, Note_on_c, 7, 50, 0
13, 329520, Note_on_c, 7, 52, 76
13, 329774, Note_on_c, 7, 52, 0
13, 329790, Note_on_c, 7, 48, 76
13, 329864, Note_on_c, 7, 48, 0
13, 329880, Note_on_c, 7, 50, 76
13, 330134, Note_on_c, 7, 50, 0
13, 330150, Note_on_c, 7, 38, 76
13, 330224, Note_on_c, 7, 38, 0
13, 330240, Note_on_c, 7, 43, 76
13, 330494, Note_on_c, 7, 43, 0
13, 330510, Note_on_c, 7, 62, 76
13, 330584, Note_on_c, 7, 62, 0
13, 330600, Note_on_c, 7, 62, 76
13, 330719, Note_on_c, 7, 62, 0
13, 330720, Note_on_c, 7, 64, 76
13, 330819, Note_on_c, 7, 64, 0
13, 330840, Note_on_c, 7, 60, 76
13, 330939, Note_on_c, 7, 60, 0
13, 330960, Note_on_c, 7, 60, 76
13, 331079, Note_on_c, 7, 60, 0
13, 331080, Note_on_c, 7, 62, 76
13, 331179, Note_on_c, 7, 62, 0
13, 331200, Note_on_c, 7, 59, 76
13, 331299, Note_on_c, 7, 59, 0
13, 331320, Note_on_c, 7, 59, 76
13, 331439, Note_on_c, 7, 59, 0
13, 331440, Note_on_c, 7, 60, 76
13, 331559, Note_on_c, 7, 60, 0
13, 331560, Note_on_c, 7, 62, 76
13, 331659, Note_on_c, 7, 62, 0
13, 331680, Note_on_c, 7, 62, 76
13, 331799, Note_on_c, 7, 62, 0
13, 331800, Note_on_c, 7, 64, 76
13, 331899, Note_on_c, 7, 64, 0
13, 331920, Note_on_c, 7, 60, 76
13, 332019, Note_on_c, 7, 60, 0
13, 332040, Note_on_c, 7, 60, 76
13, 332159, Note_on_c, 7, 60, 0
13, 332160, Note_on_c, 7, 62, 76
13, 332259, Note_on_c, 7, 62, 0
13, 332280, Note_on_c, 7, 59, 76
13, 332379, Note_on_c, 7, 59, 0
13, 332400, Note_on_c, 7, 59, 76
13, 332519, Note_on_c, 7, 59, 0
13, 354270, Note_on_c, 7, 62, 76
13, 354344, Note_on_c, 7, 62, 0
13, 354360, Note_on_c, 7, 62, 76
13, 354479, Note_on_c, 7, 62, 0
13, 354480, Note_on_c, 7, 64, 76
13, 354579, Note_on_c, 7, 64, 0
13, 354600, Note_on_c, 7, 60, 76
13, 354699, Note_on_c, 7, 60, 0
13, 354720, Note_on_c, 7, 60, 76
13, 354839, Note_on_c, 7, 60, 0
13, 354840, Note_on_c, 7, 62, 76
13, 354939, Note_on_c, 7, 62, 0
13, 354960, Note_on_c, 7, 59, 76
13, 355059, Note_on_c, 7, 59, 0
13, 355080, Note_on_c, 7, 59, 76
13, 355199, Note_on_c, 7, 59, 0
13, 355200, Note_on_c, 7, 61, 76
13, 355319, Note_on_c, 7, 61, 0
13, 355320, Note_on_c, 7, 62, 76
13, 355439, Note_on_c, 7, 62, 0
13, 355440, Note_on_c, 7, 64, 76
13, 355559, Note_on_c, 7, 64, 0
13, 355560, Note_on_c, 7, 66, 76
13, 355659, Note_on_c, 7, 66, 0
13, 355680, Note_on_c, 7, 62, 76
13, 355779, Note_on_c, 7, 62, 0
13, 355800, Note_on_c, 7, 62, 76
13, 355919, Note_on_c, 7, 62, 0
13, 355920, Note_on_c, 7, 64, 76
13, 356019, Note_on_c, 7, 64, 0
13, 356040, Note_on_c, 7, 61, 76
13, 356139, Note_on_c, 7, 61, 0
13, 356160, Note_on_c, 7, 61, 76
13, 356414, Note_on_c, 7, 61, 0
13, 356430, Note_on_c, 7, 61, 76
13, 356504, Note_on_c, 7, 61, 0
13, 356520, Note_on_c, 7, 61, 76
13, 356774, Note_on_c, 7, 61, 0
13, 356790, Note_on_c, 7, 61, 76
13, 356864, Note_on_c, 7, 61, 0
13, 356880, Note_on_c, 7, 61, 76
13, 357134, Note_on_c, 7, 61, 0
13, 357150, Note_on_c, 7, 61, 76
13, 357224, Note_on_c, 7, 61, 0
13, 357240, Note_on_c, 7, 62, 76
13, 357494, Note_on_c, 7, 62, 0
13, 357510, Note_on_c, 7, 57, 76
13, 357584, Note_on_c, 7, 57, 0
13, 357600, Note_on_c, 7, 57, 76
13, 357719, Note_on_c, 7, 57, 0
13, 357720, Note_on_c, 7, 59, 76
13, 357819, Note_on_c, 7, 59, 0
13, 357840, Note_on_c, 7, 55, 76
13, 357939, Note_on_c, 7, 55, 0
13, 357960, Note_on_c, 7, 55, 76
13, 358079, Note_on_c, 7, 55, 0
13, 358080, Note_on_c, 7, 57, 76
13, 358179, Note_on_c, 7, 57, 0
13, 358200, Note_on_c, 7, 54, 76
13, 358299, Note_on_c, 7, 54, 0
13, 358320, Note_on_c, 7, 54, 76
13, 358439, Note_on_c, 7, 54, 0
13, 358440, Note_on_c, 7, 56, 76
13, 358559, Note_on_c, 7, 56, 0
13, 358560, Note_on_c, 7, 57, 76
13, 358679, Note_on_c, 7, 57, 0
13, 358680, Note_on_c, 7, 59, 76
13, 358799, Note_on_c, 7, 59, 0
13, 358800, Note_on_c, 7, 61, 76
13, 358899, Note_on_c, 7, 61, 0
13, 358920, Note_on_c, 7, 57, 76
13, 359019, Note_on_c, 7, 57, 0
13, 359040, Note_on_c, 7, 57, 76
13, 359159, Note_on_c, 7, 57, 0
13, 359160, Note_on_c, 7, 59, 76
13, 359259, Note_on_c, 7, 59, 0
13, 359280, Note_on_c, 7, 56, 76
13, 359379, Note_on_c, 7, 56, 0
13, 359400, Note_on_c, 7, 56, 76
13, 359654, Note_on_c, 7, 56, 0
13, 359670, Note_on_c, 7, 56, 76
13, 359744, Note_on_c, 7, 56, 0
13, 359760, Note_on_c, 7, 56, 76
13, 360014, Note_on_c, 7, 56, 0
13, 360030, Note_on_c, 7, 56, 76
13, 360104, Note_on_c, 7, 56, 0
13, 360120, Note_on_c, 7, 56, 76
13, 360374, Note_on_c, 7, 56, 0
13, 360390, Note_on_c, 7, 56, 76
13, 360464, Note_on_c, 7, 56, 0
13, 360480, Note_on_c, 7, 57, 76
13, 360734, Note_on_c, 7, 57, 0
13, 360750, Note_on_c, 7, 55, 76
13, 360824, Note_on_c, 7, 55, 0
13, 360840, Note_on_c, 7, 54, 76
13, 361094, Note_on_c, 7, 54, 0
13, 361110, Note_on_c, 7, 54, 76
13, 361184, Note_on_c, 7, 54, 0
13, 361200, Note_on_c, 7, 54, 76
13, 361454, Note_on_c, 7, 54, 0
13, 361470, Note_on_c, 7, 54, 76
13, 361544, Note_on_c, 7, 54, 0
13, 361560, Note_on_c, 7, 55, 76
13, 361679, Note_on_c, 7, 55, 0
13, 361680, Note_on_c, 7, 52, 76
13, 361799, Note_on_c, 7, 52, 0
13, 361800, Note_on_c, 7, 54, 76
13, 361899, Note_on_c, 7, 54, 0
13, 361920, Note_on_c, 7, 55, 76
13, 362039, Note_on_c, 7, 55, 0
13, 362040, Note_on_c, 7, 57, 76
13, 362139, Note_on_c, 7, 57, 0
13, 362160, Note_on_c, 7, 54, 76
13, 362259, Note_on_c, 7, 54, 0
13, 362280, Note_on_c, 7, 54, 76
13, 362399, Note_on_c, 7, 54, 0
13, 362400, Note_on_c, 7, 55, 76
13, 362499, Note_on_c, 7, 55, 0
13, 362520, Note_on_c, 7, 52, 76
13, 362619, Note_on_c, 7, 52, 0
13, 362640, Note_on_c, 7, 52, 76
13, 362894, Note_on_c, 7, 52, 0
13, 362910, Note_on_c, 7, 64, 76
13, 362984, Note_on_c, 7, 64, 0
13, 363000, Note_on_c, 7, 64, 76
13, 363254, Note_on_c, 7, 64, 0
13, 363270, Note_on_c, 7, 64, 76
13, 363344, Note_on_c, 7, 64, 0
13, 363360, Note_on_c, 7, 64, 76
13, 363479, Note_on_c, 7, 64, 0
13, 363990, Note_on_c, 7, 57, 76
13, 364064, Note_on_c, 7, 57, 0
13, 364080, Note_on_c, 7, 57, 76
13, 364334, Note_on_c, 7, 57, 0
13, 364350, Note_on_c, 7, 57, 76
13, 364424, Note_on_c, 7, 57, 0
13, 364440, Note_on_c, 7, 57, 76
13, 364559, Note_on_c, 7, 57, 0
13, 365070, Note_on_c, 7, 62, 76
13, 365144, Note_on_c, 7, 62, 0
13, 365160, Note_on_c, 7, 62, 76
13, 365414, Note_on_c, 7, 62, 0
13, 365430, Note_on_c, 7, 62, 76
13, 365504, Note_on_c, 7, 62, 0
13, 365520, Note_on_c, 7, 62, 76
13, 365639, Note_on_c, 7, 62, 0
13, 366150, Note_on_c, 7, 55, 76
13, 366224, Note_on_c, 7, 55, 0
13, 366240, Note_on_c, 7, 52, 76
13, 366494, Note_on_c, 7, 52, 0
13, 366510, Note_on_c, 7, 52, 76
13, 366584, Note_on_c, 7, 52, 0
13, 366600, Note_on_c, 7, 54, 76
13, 366854, Note_on_c, 7, 54, 0
13, 366870, Note_on_c, 7, 55, 76
13, 366944, Note_on_c, 7, 55, 0
13, 366960, Note_on_c, 7, 57, 76
13, 367214, Note_on_c, 7, 57, 0
13, 367230, Note_on_c, 7, 55, 76
13, 367304, Note_on_c, 7, 55, 0
13, 367320, Note_on_c, 7, 54, 76
13, 367574, Note_on_c, 7, 54, 0
13, 367590, Note_on_c, 7, 54, 76
13, 367664, Note_on_c, 7, 54, 0
13, 367680, Note_on_c, 7, 55, 76
13, 367934, Note_on_c, 7, 55, 0
13, 367950, Note_on_c, 7, 57, 76
13, 368024, Note_on_c, 7, 57, 0
13, 368040, Note_on_c, 7, 59, 76
13, 368159, Note_on_c, 7, 59, 0
13, 368400, Note_on_c, 7, 55, 76
13, 368519, Note_on_c, 7, 55, 0
13, 368760, Note_on_c, 7, 54, 76
13, 368879, Note_on_c, 7, 54, 0
13, 369120, Note_on_c, 7, 52, 76
13, 369239, Note_on_c, 7, 52, 0
13, 369240, Note_on_c, 7, 55, 76
13, 369359, Note_on_c, 7, 55, 0
13, 369360, Note_on_c, 7, 59, 76
13, 369459, Note_on_c, 7, 59, 0
13, 369480, Note_on_c, 7, 64, 76
13, 369599, Note_on_c, 7, 64, 0
13, 369600, Note_on_c, 7, 66, 76
13, 369699, Note_on_c, 7, 66, 0
13, 369720, Note_on_c, 7, 62, 76
13, 369819, Note_on_c, 7, 62, 0
13, 369840, Note_on_c, 7, 62, 76
13, 369959, Note_on_c, 7, 62, 0
13, 369960, Note_on_c, 7, 64, 76
13, 370059, Note_on_c, 7, 64, 0
13, 370080, Note_on_c, 7, 61, 76
13, 370179, Note_on_c, 7, 61, 0
13, 370200, Note_on_c, 7, 61, 76
13, 370319, Note_on_c, 7, 61, 0
13, 370830, Note_on_c, 7, 57, 76
13, 370904, Note_on_c, 7, 57, 0
13, 370920, Note_on_c, 7, 54, 76
13, 371174, Note_on_c, 7, 54, 0
13, 371190, Note_on_c, 7, 57, 76
13, 371264, Note_on_c, 7, 57, 0
13, 371280, Note_on_c, 7, 50, 76
13, 371534, Note_on_c, 7, 50, 0
13, 371550, Note_on_c, 7, 52, 76
13, 371624, Note_on_c, 7, 52, 0
13, 371640, Note_on_c, 7, 54, 76
13, 371894, Note_on_c, 7, 54, 0
13, 371910, Note_on_c, 7, 55, 76
13, 371984, Note_on_c, 7, 55, 0
13, 372000, Note_on_c, 7, 57, 76
13, 372254, Note_on_c, 7, 57, 0
13, 372270, Note_on_c, 7, 45, 76
13, 372344, Note_on_c, 7, 45, 0
13, 372360, Note_on_c, 7, 50, 76
13, 372614, Note_on_c, 7, 50, 0
13, 372630, Note_on_c, 7, 57, 76
13, 372704, Note_on_c, 7, 57, 0
13, 372720, Note_on_c, 7, 57, 76
13, 372839, Note_on_c, 7, 57, 0
13, 372840, Note_on_c, 7, 59, 76
13, 372939, Note_on_c, 7, 59, 0
13, 372960, Note_on_c, 7, 55, 76
13, 373059, Note_on_c, 7, 55, 0
13, 373080, Note_on_c, 7, 55, 76
13, 373199, Note_on_c, 7, 55, 0
13, 373200, Note_on_c, 7, 57, 76
13, 373299, Note_on_c, 7, 57, 0
13, 373320, Note_on_c, 7, 54, 76
13, 373419, Note_on_c, 7, 54, 0
13, 373440, Note_on_c, 7, 54, 76
13, 373559, Note_on_c, 7, 54, 0
13, 373560, Note_on_c, 7, 55, 76
13, 373679, Note_on_c, 7, 55, 0
13, 373680, Note_on_c, 7, 57, 76
13, 373779, Note_on_c, 7, 57, 0
13, 373800, Note_on_c, 7, 57, 76
13, 373919, Note_on_c, 7, 57, 0
13, 373920, Note_on_c, 7, 59, 76
13, 374019, Note_on_c, 7, 59, 0
13, 374040, Note_on_c, 7, 55, 76
13, 374139, Note_on_c, 7, 55, 0
13, 374160, Note_on_c, 7, 55, 76
13, 374279, Note_on_c, 7, 55, 0
13, 374280, Note_on_c, 7, 57, 76
13, 374379, Note_on_c, 7, 57, 0
13, 374400, Note_on_c, 7, 54, 76
13, 374499, Note_on_c, 7, 54, 0
13, 374520, Note_on_c, 7, 54, 76
13, 374759, Note_on_c, 7, 54, 0
13, 375000, Note_on_c, 7, 50, 76
13, 375293, Note_on_c, 7, 50, 0
13, 375300, Note_on_c, 7, 52, 76
13, 375353, Note_on_c, 7, 52, 0
13, 375360, Note_on_c, 7, 54, 76
13, 375413, Note_on_c, 7, 54, 0
13, 375420, Note_on_c, 7, 50, 76
13, 375473, Note_on_c, 7, 50, 0
13, 375480, Note_on_c, 7, 60, 76
13, 376253, Note_on_c, 7, 60, 0
13, 376260, Note_on_c, 7, 59, 76
13, 376313, Note_on_c, 7, 59, 0
13, 376320, Note_on_c, 7, 60, 76
13, 376373, Note_on_c, 7, 60, 0
13, 376380, Note_on_c, 7, 57, 76
13, 376433, Note_on_c, 7, 57, 0
13, 376440, Note_on_c, 7, 63, 76
13, 376973, Note_on_c, 7, 63, 0
13, 376980, Note_on_c, 7, 61, 76
13, 377033, Note_on_c, 7, 61, 0
13, 377040, Note_on_c, 7, 59, 76
13, 377093, Note_on_c, 7, 59, 0
13, 377100, Note_on_c, 7, 61, 76
13, 377153, Note_on_c, 7, 61, 0
13, 377160, Note_on_c, 7, 63, 76
13, 377213, Note_on_c, 7, 63, 0
13, 377220, Note_on_c, 7, 61, 76
13, 377273, Note_on_c, 7, 61, 0
13, 377280, Note_on_c, 7, 63, 76
13, 377333, Note_on_c, 7, 63, 0
13, 377340, Note_on_c, 7, 59, 76
13, 377393, Note_on_c, 7, 59, 0
13, 377400, Note_on_c, 7, 64, 76
13, 377573, Note_on_c, 7, 64, 0
13, 377580, Note_on_c, 7, 59, 76
13, 377633, Note_on_c, 7, 59, 0
13, 377640, Note_on_c, 7, 59, 76
13, 377813, Note_on_c, 7, 59, 0
13, 377820, Note_on_c, 7, 55, 76
13, 377873, Note_on_c, 7, 55, 0
13, 377880, Note_on_c, 7, 55, 76
13, 378053, Note_on_c, 7, 55, 0
13, 378060, Note_on_c, 7, 52, 76
13, 378113, Note_on_c, 7, 52, 0
13, 378120, Note_on_c, 7, 52, 76
13, 378293, Note_on_c, 7, 52, 0
13, 378300, Note_on_c, 7, 45, 76
13, 378353, Note_on_c, 7, 45, 0
13, 378360, Note_on_c, 7, 45, 76
13, 378533, Note_on_c, 7, 45, 0
13, 378540, Note_on_c, 7, 57, 76
13, 378593, Note_on_c, 7, 57, 0
13, 378600, Note_on_c, 7, 57, 76
13, 378773, Note_on_c, 7, 57, 0
13, 378780, Note_on_c, 7, 52, 76
13, 378833, Note_on_c, 7, 52, 0
13, 378840, Note_on_c, 7, 52, 76
13, 379013, Note_on_c, 7, 52, 0
13, 379020, Note_on_c, 7, 49, 76
13, 379073, Note_on_c, 7, 49, 0
13, 379080, Note_on_c, 7, 49, 76
13, 379253, Note_on_c, 7, 49, 0
13, 379260, Note_on_c, 7, 45, 76
13, 379313, Note_on_c, 7, 45, 0
13, 379320, Note_on_c, 7, 50, 76
13, 379493, Note_on_c, 7, 50, 0
13, 379500, Note_on_c, 7, 45, 76
13, 379553, Note_on_c, 7, 45, 0
13, 379560, Note_on_c, 7, 45, 76
13, 379733, Note_on_c, 7, 45, 0
13, 379740, Note_on_c, 7, 42, 76
13, 379793, Note_on_c, 7, 42, 0
13, 379800, Note_on_c, 7, 42, 76
13, 379973, Note_on_c, 7, 42, 0
13, 379980, Note_on_c, 7, 38, 76
13, 380033, Note_on_c, 7, 38, 0
13, 380040, Note_on_c, 7, 38, 76
13, 380213, Note_on_c, 7, 38, 0
13, 380220, Note_on_c, 7, 42, 76
13, 380273, Note_on_c, 7, 42, 0
13, 380280, Note_on_c, 7, 43, 76
13, 380453, Note_on_c, 7, 43, 0
13, 380460, Note_on_c, 7, 47, 76
13, 380513, Note_on_c, 7, 47, 0
13, 380520, Note_on_c, 7, 47, 76
13, 380693, Note_on_c, 7, 47, 0
13, 380700, Note_on_c, 7, 52, 76
13, 380753, Note_on_c, 7, 52, 0
13, 380760, Note_on_c, 7, 52, 76
13, 380933, Note_on_c, 7, 52, 0
13, 380940, Note_on_c, 7, 55, 76
13, 380993, Note_on_c, 7, 55, 0
13, 381000, Note_on_c, 7, 55, 76
13, 381173, Note_on_c, 7, 55, 0
13, 381180, Note_on_c, 7, 52, 76
13, 381233, Note_on_c, 7, 52, 0
13, 381240, Note_on_c, 7, 49, 76
13, 381413, Note_on_c, 7, 49, 0
13, 381420, Note_on_c, 7, 45, 76
13, 381473, Note_on_c, 7, 45, 0
13, 381480, Note_on_c, 7, 45, 76
13, 381653, Note_on_c, 7, 45, 0
13, 381660, Note_on_c, 7, 49, 76
13, 381713, Note_on_c, 7, 49, 0
13, 381720, Note_on_c, 7, 50, 76
13, 382493, Note_on_c, 7, 50, 0
13, 382500, Note_on_c, 7, 49, 76
13, 382553, Note_on_c, 7, 49, 0
13, 382560, Note_on_c, 7, 50, 76
13, 382613, Note_on_c, 7, 50, 0
13, 382620, Note_on_c, 7, 47, 76
13, 382673, Note_on_c, 7, 47, 0
13, 382680, Note_on_c, 7, 49, 76
13, 382909, Note_on_c, 7, 49, 0
13, 382920, Note_on_c, 7, 45, 76
13, 383149, Note_on_c, 7, 45, 0
13, 383160, Note_on_c, 7, 50, 76
13, 383693, Note_on_c, 7, 50, 0
13, 383700, Note_on_c, 7, 50, 76
13, 383753, Note_on_c, 7, 50, 0
13, 383760, Note_on_c, 7, 52, 76
13, 383813, Note_on_c, 7, 52, 0
13, 383820, Note_on_c, 7, 54, 76
13, 383873, Note_on_c, 7, 54, 0
13, 383880, Note_on_c, 7, 55, 76
13, 383933, Note_on_c, 7, 55, 0
13, 383940, Note_on_c, 7, 54, 76
13, 383993, Note_on_c, 7, 54, 0
13, 384000, Note_on_c, 7, 55, 76
13, 384053, Note_on_c, 7, 55, 0
13, 384060, Note_on_c, 7, 52, 76
13, 384091, Note_on_c, 7, 52, 0
13, 384100, Note_on_c, 7, 50, 76
13, 384119, Note_on_c, 7, 50, 0
13, 384120, Note_on_c, 7, 49, 76
13, 384469, Note_on_c, 7, 49, 0
13, 384480, Note_on_c, 7, 47, 76
13, 384589, Note_on_c, 7, 47, 0
13, 384600, Note_on_c, 7, 46, 76
13, 384829, Note_on_c, 7, 46, 0
13, 384840, Note_on_c, 7, 42, 76
13, 385069, Note_on_c, 7, 42, 0
13, 385080, Note_on_c, 7, 47, 76
13, 385613, Note_on_c, 7, 47, 0
13, 385620, Note_on_c, 7, 45, 76
13, 385673, Note_on_c, 7, 45, 0
13, 385680, Note_on_c, 7, 47, 76
13, 385733, Note_on_c, 7, 47, 0
13, 385740, Note_on_c, 7, 49, 76
13, 385793, Note_on_c, 7, 49, 0
13, 385800, Note_on_c, 7, 50, 76
13, 385853, Note_on_c, 7, 50, 0
13, 385860, Note_on_c, 7, 49, 76
13, 385913, Note_on_c, 7, 49, 0
13, 385920, Note_on_c, 7, 50, 76
13, 385973, Note_on_c, 7, 50, 0
13, 385980, Note_on_c, 7, 47, 76
13, 386033, Note_on_c, 7, 47, 0
13, 386040, Note_on_c, 7, 49, 76
13, 386213, Note_on_c, 7, 49, 0
13, 386220, Note_on_c, 7, 45, 76
13, 386273, Note_on_c, 7, 45, 0
13, 386280, Note_on_c, 7, 50, 76
13, 386453, Note_on_c, 7, 50, 0
13, 386460, Note_on_c, 7, 52, 76
13, 386513, Note_on_c, 7, 52, 0
13, 386520, Note_on_c, 7, 54, 76
13, 386693, Note_on_c, 7, 54, 0
13, 386700, Note_on_c, 7, 55, 76
13, 386753, Note_on_c, 7, 55, 0
13, 386760, Note_on_c, 7, 52, 76
13, 386933, Note_on_c, 7, 52, 0
13, 386940, Note_on_c, 7, 50, 76
13, 386993, Note_on_c, 7, 50, 0
13, 387000, Note_on_c, 7, 45, 76
13, 387893, Note_on_c, 7, 45, 0
13, 387900, Note_on_c, 7, 45, 76
13, 387953, Note_on_c, 7, 45, 0
13, 387960, Note_on_c, 7, 45, 76
13, 388853, Note_on_c, 7, 45, 0
13, 388860, Note_on_c, 7, 45, 76
13, 388913, Note_on_c, 7, 45, 0
13, 388920, Note_on_c, 7, 45, 76
13, 389813, Note_on_c, 7, 45, 0
13, 389820, Note_on_c, 7, 45, 76
13, 389873, Note_on_c, 7, 45, 0
13, 389880, Note_on_c, 7, 45, 76
13, 390773, Note_on_c, 7, 45, 0
13, 390780, Note_on_c, 7, 45, 76
13, 390833, Note_on_c, 7, 45, 0
13, 390840, Note_on_c, 7, 45, 76
13, 391373, Note_on_c, 7, 45, 0
13, 391380, Note_on_c, 7, 47, 76
13, 391433, Note_on_c, 7, 47, 0
13, 391440, Note_on_c, 7, 45, 76
13, 391493, Note_on_c, 7, 45, 0
13, 391500, Note_on_c, 7, 43, 76
13, 391553, Note_on_c, 7, 43, 0
13, 391560, Note_on_c, 7, 42, 76
13, 391613, Note_on_c, 7, 42, 0
13, 391620, Note_on_c, 7, 40, 76
13, 391673, Note_on_c, 7, 40, 0
13, 391680, Note_on_c, 7, 42, 76
13, 391733, Note_on_c, 7, 42, 0
13, 391740, Note_on_c, 7, 38, 76
13, 391793, Note_on_c, 7, 38, 0
13, 391800, Note_on_c, 7, 47, 76
13, 392333, Note_on_c, 7, 47, 0
13, 392340, Note_on_c, 7, 48, 76
13, 392393, Note_on_c, 7, 48, 0
13, 392400, Note_on_c, 7, 47, 76
13, 392453, Note_on_c, 7, 47, 0
13, 392460, Note_on_c, 7, 45, 76
13, 392513, Note_on_c, 7, 45, 0
13, 392520, Note_on_c, 7, 43, 76
13, 392573, Note_on_c, 7, 43, 0
13, 392580, Note_on_c, 7, 42, 76
13, 392633, Note_on_c, 7, 42, 0
13, 392640, Note_on_c, 7, 43, 76
13, 392693, Note_on_c, 7, 43, 0
13, 392700, Note_on_c, 7, 40, 76
13, 392753, Note_on_c, 7, 40, 0
13, 392760, Note_on_c, 7, 49, 76
13, 392933, Note_on_c, 7, 49, 0
13, 392940, Note_on_c, 7, 45, 76
13, 392993, Note_on_c, 7, 45, 0
13, 393000, Note_on_c, 7, 50, 76
13, 393173, Note_on_c, 7, 50, 0
13, 393180, Note_on_c, 7, 43, 76
13, 393233, Note_on_c, 7, 43, 0
13, 393240, Note_on_c, 7, 45, 76
13, 393469, Note_on_c, 7, 45, 0
13, 393480, Note_on_c, 7, 45, 76
13, 393709, Note_on_c, 7, 45, 0
13, 393720, Note_on_c, 7, 38, 76
13, 394679, Note_on_c, 7, 38, 0
13, 394679, End_track
14, 0, Start_track
14, 0, Title_t, "Violin I"
14, 0, MIDI_port, 0
14, 0, Program_c, 10, 48
14, 0, Control_c, 10, 10, 48
14, 0, Control_c, 10, 11, 127
14, 0, Control_c, 10, 7, 96
14, 1020, Note_on_c, 10, 64, 76
14, 1073, Note_on_c, 10, 64, 0
14, 1080, Note_on_c, 10, 66, 76
14, 1133, Note_on_c, 10, 66, 0
14, 1140, Note_on_c, 10, 62, 76
14, 1193, Note_on_c, 10, 62, 0
14, 1200, Note_on_c, 10, 71, 76
14, 1973, Note_on_c, 10, 71, 0
14, 1980, Note_on_c, 10, 69, 76
14, 2033, Note_on_c, 10, 69, 0
14, 2040, Note_on_c, 10, 71, 76
14, 2093, Note_on_c, 10, 71, 0
14, 2100, Note_on_c, 10, 67, 76
14, 2153, Note_on_c, 10, 67, 0
14, 2160, Note_on_c, 10, 69, 76
14, 2693, Note_on_c, 10, 69, 0
14, 2700, Note_on_c, 10, 67, 76
14, 2753, Note_on_c, 10, 67, 0
14, 2760, Note_on_c, 10, 69, 76
14, 2813, Note_on_c, 10, 69, 0
14, 2820, Note_on_c, 10, 71, 76
14, 2873, Note_on_c, 10, 71, 0
14, 2880, Note_on_c, 10, 73, 76
14, 2933, Note_on_c, 10, 73, 0
14, 2940, Note_on_c, 10, 74, 76
14, 2993, Note_on_c, 10, 74, 0
14, 3000, Note_on_c, 10, 76, 76
14, 3053, Note_on_c, 10, 76, 0
14, 3060, Note_on_c, 10, 78, 76
14, 3113, Note_on_c, 10, 78, 0
14, 3120, Note_on_c, 10, 79, 76
14, 3469, Note_on_c, 10, 79, 0
14, 3480, Note_on_c, 10, 79, 76
14, 3589, Note_on_c, 10, 79, 0
14, 3600, Note_on_c, 10, 79, 76
14, 3773, Note_on_c, 10, 79, 0
14, 3780, Note_on_c, 10, 76, 76
14, 3833, Note_on_c, 10, 76, 0
14, 3840, Note_on_c, 10, 81, 76
14, 4013, Note_on_c, 10, 81, 0
14, 4020, Note_on_c, 10, 76, 76
14, 4073, Note_on_c, 10, 76, 0
14, 4080, Note_on_c, 10, 78, 76
14, 4309, Note_on_c, 10, 78, 0
14, 4320, Note_on_c, 10, 74, 76
14, 4549, Note_on_c, 10, 74, 0
14, 4560, Note_on_c, 10, 81, 76
14, 5093, Note_on_c, 10, 81, 0
14, 5100, Note_on_c, 10, 79, 76
14, 5153, Note_on_c, 10, 79, 0
14, 5160, Note_on_c, 10, 81, 76
14, 5213, Note_on_c, 10, 81, 0
14, 5220, Note_on_c, 10, 78, 76
14, 5273, Note_on_c, 10, 78, 0
14, 5280, Note_on_c, 10, 83, 76
14, 5453, Note_on_c, 10, 83, 0
14, 5460, Note_on_c, 10, 81, 76
14, 5513, Note_on_c, 10, 81, 0
14, 5520, Note_on_c, 10, 79, 76
14, 5869, Note_on_c, 10, 79, 0
14, 5880, Note_on_c, 10, 78, 76
14, 5989, Note_on_c, 10, 78, 0
14, 6000, Note_on_c, 10, 79, 76
14, 6293, Note_on_c, 10, 79, 0
14, 6300, Note_on_c, 10, 78, 76
14, 6353, Note_on_c, 10, 78, 0
14, 6360, Note_on_c, 10, 79, 76
14, 6413, Note_on_c, 10, 79, 0
14, 6420, Note_on_c, 10, 76, 76
14, 6473, Note_on_c, 10, 76, 0
14, 6480, Note_on_c, 10, 72, 76
14, 7013, Note_on_c, 10, 72, 0
14, 7020, Note_on_c, 10, 71, 76
14, 7073, Note_on_c, 10, 71, 0
14, 7080, Note_on_c, 10, 72, 76
14, 7133, Note_on_c, 10, 72, 0
14, 7140, Note_on_c, 10, 69, 76
14, 7193, Note_on_c, 10, 69, 0
14, 7200, Note_on_c, 10, 71, 76
14, 7373, Note_on_c, 10, 71, 0
14, 7380, Note_on_c, 10, 73, 76
14, 7433, Note_on_c, 10, 73, 0
14, 7440, Note_on_c, 10, 74, 76
14, 7789, Note_on_c, 10, 74, 0
14, 7800, Note_on_c, 10, 76, 76
14, 7909, Note_on_c, 10, 76, 0
14, 7920, Note_on_c, 10, 73, 76
14, 8213, Note_on_c, 10, 73, 0
14, 8220, Note_on_c, 10, 71, 76
14, 8273, Note_on_c, 10, 71, 0
14, 8280, Note_on_c, 10, 73, 76
14, 8333, Note_on_c, 10, 73, 0
14, 8340, Note_on_c, 10, 69, 76
14, 8393, Note_on_c, 10, 69, 0
14, 8400, Note_on_c, 10, 76, 76
14, 8879, Note_on_c, 10, 76, 0
14, 8880, Note_on_c, 10, 76, 76
14, 9173, Note_on_c, 10, 76, 0
14, 9180, Note_on_c, 10, 74, 76
14, 9233, Note_on_c, 10, 74, 0
14, 9240, Note_on_c, 10, 76, 76
14, 9293, Note_on_c, 10, 76, 0
14, 9300, Note_on_c, 10, 73, 76
14, 9353, Note_on_c, 10, 73, 0
14, 9360, Note_on_c, 10, 74, 76
14, 9839, Note_on_c, 10, 74, 0
14, 9840, Note_on_c, 10, 74, 76
14, 10133, Note_on_c, 10, 74, 0
14, 10140, Note_on_c, 10, 73, 76
14, 10193, Note_on_c, 10, 73, 0
14, 10200, Note_on_c, 10, 74, 76
14, 10253, Note_on_c, 10, 74, 0
14, 10260, Note_on_c, 10, 71, 76
14, 10313, Note_on_c, 10, 71, 0
14, 10320, Note_on_c, 10, 73, 76
14, 10373, Note_on_c, 10, 73, 0
14, 10380, Note_on_c, 10, 76, 76
14, 10433, Note_on_c, 10, 76, 0
14, 10440, Note_on_c, 10, 81, 76
14, 10493, Note_on_c, 10, 81, 0
14, 10500, Note_on_c, 10, 80, 76
14, 10553, Note_on_c, 10, 80, 0
14, 10560, Note_on_c, 10, 78, 76
14, 10613, Note_on_c, 10, 78, 0
14, 10620, Note_on_c, 10, 76, 76
14, 10673, Note_on_c, 10, 76, 0
14, 10680, Note_on_c, 10, 74, 76
14, 10733, Note_on_c, 10, 74, 0
14, 10740, Note_on_c, 10, 73, 76
14, 10793, Note_on_c, 10, 73, 0
14, 10800, Note_on_c, 10, 74, 76
14, 11149, Note_on_c, 10, 74, 0
14, 11160, Note_on_c, 10, 74, 76
14, 11269, Note_on_c, 10, 74, 0
14, 11280, Note_on_c, 10, 74, 76
14, 11453, Note_on_c, 10, 74, 0
14, 11460, Note_on_c, 10, 71, 76
14, 11513, Note_on_c, 10, 71, 0
14, 11520, Note_on_c, 10, 76, 76
14, 11693, Note_on_c, 10, 76, 0
14, 11700, Note_on_c, 10, 74, 76
14, 11753, Note_on_c, 10, 74, 0
14, 11760, Note_on_c, 10, 73, 76
14, 11989, Note_on_c, 10, 73, 0
14, 12000, Note_on_c, 10, 69, 76
14, 12229, Note_on_c, 10, 69, 0
14, 12240, Note_on_c, 10, 78, 76
14, 12773, Note_on_c, 10, 78, 0
14, 12780, Note_on_c, 10, 78, 76
14, 12833, Note_on_c, 10, 78, 0
14, 12840, Note_on_c, 10, 80, 76
14, 12893, Note_on_c, 10, 80, 0
14, 12900, Note_on_c, 10, 81, 76
14, 12953, Note_on_c, 10, 81, 0
14, 12960, Note_on_c, 10, 83, 76
14, 13013, Note_on_c, 10, 83, 0
14, 13020, Note_on_c, 10, 81, 76
14, 13073, Note_on_c, 10, 81, 0
14, 13080, Note_on_c, 10, 83, 76
14, 13133, Note_on_c, 10, 83, 0
14, 13140, Note_on_c, 10, 80, 76
14, 13193, Note_on_c, 10, 80, 0
14, 13200, Note_on_c, 10, 73, 76
14, 13373, Note_on_c, 10, 73, 0
14, 13380, Note_on_c, 10, 83, 76
14, 13433, Note_on_c, 10, 83, 0
14, 13440, Note_on_c, 10, 81, 76
14, 13613, Note_on_c, 10, 81, 0
14, 13620, Note_on_c, 10, 80, 76
14, 13673, Note_on_c, 10, 80, 0
14, 13680, Note_on_c, 10, 81, 76
14, 13973, Note_on_c, 10, 81, 0
14, 13980, Note_on_c, 10, 80, 76
14, 14033, Note_on_c, 10, 80, 0
14, 14040, Note_on_c, 10, 81, 76
14, 14093, Note_on_c, 10, 81, 0
14, 14100, Note_on_c, 10, 78, 76
14, 14153, Note_on_c, 10, 78, 0
14, 14160, Note_on_c, 10, 74, 76
14, 14693, Note_on_c, 10, 74, 0
14, 14700, Note_on_c, 10, 73, 76
14, 14753, Note_on_c, 10, 73, 0
14, 14760, Note_on_c, 10, 74, 76
14, 14813, Note_on_c, 10, 74, 0
14, 14820, Note_on_c, 10, 71, 76
14, 14873, Note_on_c, 10, 71, 0
14, 14880, Note_on_c, 10, 73, 76
14, 15053, Note_on_c, 10, 73, 0
14, 15060, Note_on_c, 10, 74, 76
14, 15113, Note_on_c, 10, 74, 0
14, 15120, Note_on_c, 10, 76, 76
14, 15293, Note_on_c, 10, 76, 0
14, 15300, Note_on_c, 10, 78, 76
14, 15353, Note_on_c, 10, 78, 0
14, 15360, Note_on_c, 10, 80, 76
14, 15533, Note_on_c, 10, 80, 0
14, 15540, Note_on_c, 10, 81, 76
14, 15593, Note_on_c, 10, 81, 0
14, 15600, Note_on_c, 10, 80, 76
14, 15653, Note_on_c, 10, 80, 0
14, 15660, Note_on_c, 10, 81, 76
14, 15713, Note_on_c, 10, 81, 0
14, 15720, Note_on_c, 10, 83, 76
14, 15773, Note_on_c, 10, 83, 0
14, 15780, Note_on_c, 10, 80, 76
14, 15833, Note_on_c, 10, 80, 0
14, 15840, Note_on_c, 10, 76, 76
14, 16133, Note_on_c, 10, 76, 0
14, 16140, Note_on_c, 10, 78, 76
14, 16193, Note_on_c, 10, 78, 0
14, 16200, Note_on_c, 10, 80, 76
14, 16253, Note_on_c, 10, 80, 0
14, 16260, Note_on_c, 10, 76, 76
14, 16313, Note_on_c, 10, 76, 0
14, 16320, Note_on_c, 10, 83, 76
14, 16613, Note_on_c, 10, 83, 0
14, 16620, Note_on_c, 10, 81, 76
14, 16673, Note_on_c, 10, 81, 0
14, 16680, Note_on_c, 10, 83, 76
14, 16733, Note_on_c, 10, 83, 0
14, 16740, Note_on_c, 10, 80, 76
14, 16793, Note_on_c, 10, 80, 0
14, 16800, Note_on_c, 10, 81, 76
14, 17093, Note_on_c, 10, 81, 0
14, 17100, Note_on_c, 10, 80, 76
14, 17153, Note_on_c, 10, 80, 0
14, 17160, Note_on_c, 10, 81, 76
14, 17213, Note_on_c, 10, 81, 0
14, 17220, Note_on_c, 10, 76, 76
14, 17273, Note_on_c, 10, 76, 0
14, 17280, Note_on_c, 10, 85, 76
14, 17573, Note_on_c, 10, 85, 0
14, 17580, Note_on_c, 10, 83, 76
14, 17633, Note_on_c, 10, 83, 0
14, 17640, Note_on_c, 10, 85, 76
14, 17693, Note_on_c, 10, 85, 0
14, 17700, Note_on_c, 10, 81, 76
14, 17753, Note_on_c, 10, 81, 0
14, 17760, Note_on_c, 10, 83, 76
14, 18053, Note_on_c, 10, 83, 0
14, 18060, Note_on_c, 10, 81, 76
14, 18113, Note_on_c, 10, 81, 0
14, 18120, Note_on_c, 10, 83, 76
14, 18173, Note_on_c, 10, 83, 0
14, 18180, Note_on_c, 10, 80, 76
14, 18233, Note_on_c, 10, 80, 0
14, 18240, Note_on_c, 10, 86, 76
14, 18533, Note_on_c, 10, 86, 0
14, 18540, Note_on_c, 10, 84, 76
14, 18593, Note_on_c, 10, 84, 0
14, 18600, Note_on_c, 10, 86, 76
14, 18653, Note_on_c, 10, 86, 0
14, 18660, Note_on_c, 10, 83, 76
14, 18713, Note_on_c, 10, 83, 0
14, 18720, Note_on_c, 10, 84, 76
14, 19013, Note_on_c, 10, 84, 0
14, 19020, Note_on_c, 10, 83, 76
14, 19073, Note_on_c, 10, 83, 0
14, 19080, Note_on_c, 10, 84, 76
14, 19133, Note_on_c, 10, 84, 0
14, 19140, Note_on_c, 10, 81, 76
14, 19193, Note_on_c, 10, 81, 0
14, 19200, Note_on_c, 10, 83, 76
14, 19493, Note_on_c, 10, 83, 0
14, 19500, Note_on_c, 10, 81, 76
14, 19553, Note_on_c, 10, 81, 0
14, 19560, Note_on_c, 10, 83, 76
14, 19613, Note_on_c, 10, 83, 0
14, 19620, Note_on_c, 10, 80, 76
14, 19673, Note_on_c, 10, 80, 0
14, 19680, Note_on_c, 10, 81, 76
14, 19733, Note_on_c, 10, 81, 0
14, 19740, Note_on_c, 10, 80, 76
14, 19793, Note_on_c, 10, 80, 0
14, 19800, Note_on_c, 10, 81, 76
14, 19853, Note_on_c, 10, 81, 0
14, 19860, Note_on_c, 10, 78, 76
14, 19913, Note_on_c, 10, 78, 0
14, 19920, Note_on_c, 10, 79, 76
14, 20453, Note_on_c, 10, 79, 0
14, 20460, Note_on_c, 10, 78, 76
14, 20513, Note_on_c, 10, 78, 0
14, 20520, Note_on_c, 10, 79, 76
14, 20573, Note_on_c, 10, 79, 0
14, 20580, Note_on_c, 10, 76, 76
14, 20633, Note_on_c, 10, 76, 0
14, 20640, Note_on_c, 10, 78, 76
14, 20813, Note_on_c, 10, 78, 0
14, 20820, Note_on_c, 10, 80, 76
14, 20873, Note_on_c, 10, 80, 0
14, 20880, Note_on_c, 10, 81, 76
14, 21229, Note_on_c, 10, 81, 0
14, 21240, Note_on_c, 10, 83, 76
14, 21349, Note_on_c, 10, 83, 0
14, 21360, Note_on_c, 10, 74, 76
14, 21589, Note_on_c, 10, 74, 0
14, 21600, Note_on_c, 10, 73, 76
14, 21773, Note_on_c, 10, 73, 0
14, 21780, Note_on_c, 10, 71, 76
14, 21833, Note_on_c, 10, 71, 0
14, 21840, Note_on_c, 10, 71, 76
14, 21854, Note_on_c, 10, 71, 0
14, 21855, Note_on_c, 10, 73, 76
14, 21869, Note_on_c, 10, 73, 0
14, 21870, Note_on_c, 10, 71, 76
14, 21884, Note_on_c, 10, 71, 0
14, 21885, Note_on_c, 10, 73, 76
14, 21899, Note_on_c, 10, 73, 0
14, 21900, Note_on_c, 10, 71, 76
14, 21914, Note_on_c, 10, 71, 0
14, 21915, Note_on_c, 10, 73, 76
14, 21929, Note_on_c, 10, 73, 0
14, 21930, Note_on_c, 10, 71, 76
14, 21944, Note_on_c, 10, 71, 0
14, 21945, Note_on_c, 10, 73, 76
14, 21959, Note_on_c, 10, 73, 0
14, 21960, Note_on_c, 10, 71, 76
14, 21974, Note_on_c, 10, 71, 0
14, 21975, Note_on_c, 10, 73, 76
14, 21989, Note_on_c, 10, 73, 0
14, 21990, Note_on_c, 10, 71, 76
14, 22004, Note_on_c, 10, 71, 0
14, 22005, Note_on_c, 10, 73, 76
14, 22019, Note_on_c, 10, 73, 0
14, 22020, Note_on_c, 10, 71, 76
14, 22034, Note_on_c, 10, 71, 0
14, 22035, Note_on_c, 10, 73, 76
14, 22049, Note_on_c, 10, 73, 0
14, 22050, Note_on_c, 10, 71, 76
14, 22064, Note_on_c, 10, 71, 0
14, 22065, Note_on_c, 10, 73, 76
14, 22079, Note_on_c, 10, 73, 0
14, 22080, Note_on_c, 10, 71, 76
14, 22094, Note_on_c, 10, 71, 0
14, 22095, Note_on_c, 10, 73, 76
14, 22109, Note_on_c, 10, 73, 0
14, 22110, Note_on_c, 10, 71, 76
14, 22124, Note_on_c, 10, 71, 0
14, 22125, Note_on_c, 10, 73, 76
14, 22139, Note_on_c, 10, 73, 0
14, 22140, Note_on_c, 10, 71, 76
14, 22154, Note_on_c, 10, 71, 0
14, 22155, Note_on_c, 10, 73, 76
14, 22169, Note_on_c, 10, 73, 0
14, 22170, Note_on_c, 10, 69, 76
14, 22184, Note_on_c, 10, 69, 0
14, 22185, Note_on_c, 10, 71, 76
14, 22199, Note_on_c, 10, 71, 0
14, 22200, Note_on_c, 10, 69, 76
14, 22309, Note_on_c, 10, 69, 0
14, 22320, Note_on_c, 10, 69, 76
14, 23039, Note_on_c, 10, 69, 0
14, 24060, Note_on_c, 10, 64, 76
14, 24113, Note_on_c, 10, 64, 0
14, 24120, Note_on_c, 10, 66, 76
14, 24173, Note_on_c, 10, 66, 0
14, 24180, Note_on_c, 10, 62, 76
14, 24233, Note_on_c, 10, 62, 0
14, 24240, Note_on_c, 10, 71, 76
14, 25013, Note_on_c, 10, 71, 0
14, 25020, Note_on_c, 10, 69, 76
14, 25073, Note_on_c, 10, 69, 0
14, 25080, Note_on_c, 10, 71, 76
14, 25133, Note_on_c, 10, 71, 0
14, 25140, Note_on_c, 10, 67, 76
14, 25193, Note_on_c, 10, 67, 0
14, 25200, Note_on_c, 10, 69, 76
14, 25733, Note_on_c, 10, 69, 0
14, 25740, Note_on_c, 10, 67, 76
14, 25793, Note_on_c, 10, 67, 0
14, 25800, Note_on_c, 10, 69, 76
14, 25853, Note_on_c, 10, 69, 0
14, 25860, Note_on_c, 10, 71, 76
14, 25913, Note_on_c, 10, 71, 0
14, 25920, Note_on_c, 10, 73, 76
14, 25973, Note_on_c, 10, 73, 0
14, 25980, Note_on_c, 10, 74, 76
14, 26033, Note_on_c, 10, 74, 0
14, 26040, Note_on_c, 10, 76, 76
14, 26093, Note_on_c, 10, 76, 0
14, 26100, Note_on_c, 10, 78, 76
14, 26153, Note_on_c, 10, 78, 0
14, 26160, Note_on_c, 10, 79, 76
14, 26509, Note_on_c, 10, 79, 0
14, 26520, Note_on_c, 10, 79, 76
14, 26629, Note_on_c, 10, 79, 0
14, 26640, Note_on_c, 10, 79, 76
14, 26813, Note_on_c, 10, 79, 0
14, 26820, Note_on_c, 10, 76, 76
14, 26873, Note_on_c, 10, 76, 0
14, 26880, Note_on_c, 10, 81, 76
14, 27053, Note_on_c, 10, 81, 0
14, 27060, Note_on_c, 10, 76, 76
14, 27113, Note_on_c, 10, 76, 0
14, 27120, Note_on_c, 10, 78, 76
14, 27349, Note_on_c, 10, 78, 0
14, 27360, Note_on_c, 10, 74, 76
14, 27589, Note_on_c, 10, 74, 0
14, 27600, Note_on_c, 10, 81, 76
14, 28133, Note_on_c, 10, 81, 0
14, 28140, Note_on_c, 10, 79, 76
14, 28193, Note_on_c, 10, 79, 0
14, 28200, Note_on_c, 10, 81, 76
14, 28253, Note_on_c, 10, 81, 0
14, 28260, Note_on_c, 10, 78, 76
14, 28313, Note_on_c, 10, 78, 0
14, 28320, Note_on_c, 10, 83, 76
14, 28493, Note_on_c, 10, 83, 0
14, 28500, Note_on_c, 10, 81, 76
14, 28553, Note_on_c, 10, 81, 0
14, 28560, Note_on_c, 10, 79, 76
14, 28909, Note_on_c, 10, 79, 0
14, 28920, Note_on_c, 10, 78, 76
14, 29029, Note_on_c, 10, 78, 0
14, 29040, Note_on_c, 10, 79, 76
14, 29333, Note_on_c, 10, 79, 0
14, 29340, Note_on_c, 10, 78, 76
14, 29393, Note_on_c, 10, 78, 0
14, 29400, Note_on_c, 10, 79, 76
14, 29453, Note_on_c, 10, 79, 0
14, 29460, Note_on_c, 10, 76, 76
14, 29513, Note_on_c, 10, 76, 0
14, 29520, Note_on_c, 10, 72, 76
14, 30053, Note_on_c, 10, 72, 0
14, 30060, Note_on_c, 10, 71, 76
14, 30113, Note_on_c, 10, 71, 0
14, 30120, Note_on_c, 10, 72, 76
14, 30173, Note_on_c, 10, 72, 0
14, 30180, Note_on_c, 10, 69, 76
14, 30233, Note_on_c, 10, 69, 0
14, 30240, Note_on_c, 10, 71, 76
14, 30413, Note_on_c, 10, 71, 0
14, 30420, Note_on_c, 10, 73, 76
14, 30473, Note_on_c, 10, 73, 0
14, 30480, Note_on_c, 10, 74, 76
14, 30829, Note_on_c, 10, 74, 0
14, 30840, Note_on_c, 10, 76, 76
14, 30949, Note_on_c, 10, 76, 0
14, 30960, Note_on_c, 10, 73, 76
14, 31253, Note_on_c, 10, 73, 0
14, 31260, Note_on_c, 10, 71, 76
14, 31313, Note_on_c, 10, 71, 0
14, 31320, Note_on_c, 10, 73, 76
14, 31373, Note_on_c, 10, 73, 0
14, 31380, Note_on_c, 10, 69, 76
14, 31433, Note_on_c, 10, 69, 0
14, 31440, Note_on_c, 10, 76, 76
14, 31919, Note_on_c, 10, 76, 0
14, 31920, Note_on_c, 10, 76, 76
14, 32213, Note_on_c, 10, 76, 0
14, 32220, Note_on_c, 10, 74, 76
14, 32273, Note_on_c, 10, 74, 0
14, 32280, Note_on_c, 10, 76, 76
14, 32333, Note_on_c, 10, 76, 0
14, 32340, Note_on_c, 10, 73, 76
14, 32393, Note_on_c, 10, 73, 0
14, 32400, Note_on_c, 10, 74, 76
14, 32879, Note_on_c, 10, 74, 0
14, 32880, Note_on_c, 10, 74, 76
14, 33173, Note_on_c, 10, 74, 0
14, 33180, Note_on_c, 10, 73, 76
14, 33233, Note_on_c, 10, 73, 0
14, 33240, Note_on_c, 10, 74, 76
14, 33293, Note_on_c, 10, 74, 0
14, 33300, Note_on_c, 10, 71, 76
14, 33353, Note_on_c, 10, 71, 0
14, 33360, Note_on_c, 10, 73, 76
14, 33413, Note_on_c, 10, 73, 0
14, 33420, Note_on_c, 10, 76, 76
14, 33473, Note_on_c, 10, 76, 0
14, 33480, Note_on_c, 10, 81, 76
14, 33533, Note_on_c, 10, 81, 0
14, 33540, Note_on_c, 10, 80, 76
14, 33593, Note_on_c, 10, 80, 0
14, 33600, Note_on_c, 10, 78, 76
14, 33653, Note_on_c, 10, 78, 0
14, 33660, Note_on_c, 10, 76, 76
14, 33713, Note_on_c, 10, 76, 0
14, 33720, Note_on_c, 10, 74, 76
14, 33773, Note_on_c, 10, 74, 0
14, 33780, Note_on_c, 10, 73, 76
14, 33833, Note_on_c, 10, 73, 0
14, 33840, Note_on_c, 10, 74, 76
14, 34189, Note_on_c, 10, 74, 0
14, 34200, Note_on_c, 10, 74, 76
14, 34309, Note_on_c, 10, 74, 0
14, 34320, Note_on_c, 10, 74, 76
14, 34493, Note_on_c, 10, 74, 0
14, 34500, Note_on_c, 10, 71, 76
14, 34553, Note_on_c, 10, 71, 0
14, 34560, Note_on_c, 10, 76, 76
14, 34733, Note_on_c, 10, 76, 0
14, 34740, Note_on_c, 10, 74, 76
14, 34793, Note_on_c, 10, 74, 0
14, 34800, Note_on_c, 10, 73, 76
14, 35029, Note_on_c, 10, 73, 0
14, 35040, Note_on_c, 10, 69, 76
14, 35269, Note_on_c, 10, 69, 0
14, 35280, Note_on_c, 10, 78, 76
14, 35813, Note_on_c, 10, 78, 0
14, 35820, Note_on_c, 10, 78, 76
14, 35873, Note_on_c, 10, 78, 0
14, 35880, Note_on_c, 10, 80, 76
14, 35933, Note_on_c, 10, 80, 0
14, 35940, Note_on_c, 10, 81, 76
14, 35993, Note_on_c, 10, 81, 0
14, 36000, Note_on_c, 10, 83, 76
14, 36053, Note_on_c, 10, 83, 0
14, 36060, Note_on_c, 10, 81, 76
14, 36113, Note_on_c, 10, 81, 0
14, 36120, Note_on_c, 10, 83, 76
14, 36173, Note_on_c, 10, 83, 0
14, 36180, Note_on_c, 10, 80, 76
14, 36233, Note_on_c, 10, 80, 0
14, 36240, Note_on_c, 10, 73, 76
14, 36413, Note_on_c, 10, 73, 0
14, 36420, Note_on_c, 10, 83, 76
14, 36473, Note_on_c, 10, 83, 0
14, 36480, Note_on_c, 10, 81, 76
14, 36653, Note_on_c, 10, 81, 0
14, 36660, Note_on_c, 10, 80, 76
14, 36713, Note_on_c, 10, 80, 0
14, 36720, Note_on_c, 10, 81, 76
14, 37013, Note_on_c, 10, 81, 0
14, 37020, Note_on_c, 10, 80, 76
14, 37073, Note_on_c, 10, 80, 0
14, 37080, Note_on_c, 10, 81, 76
14, 37133, Note_on_c, 10, 81, 0
14, 37140, Note_on_c, 10, 78, 76
14, 37193, Note_on_c, 10, 78, 0
14, 37200, Note_on_c, 10, 74, 76
14, 37733, Note_on_c, 10, 74, 0
14, 37740, Note_on_c, 10, 73, 76
14, 37793, Note_on_c, 10, 73, 0
14, 37800, Note_on_c, 10, 74, 76
14, 37853, Note_on_c, 10, 74, 0
14, 37860, Note_on_c, 10, 71, 76
14, 37913, Note_on_c, 10, 71, 0
14, 37920, Note_on_c, 10, 73, 76
14, 38093, Note_on_c, 10, 73, 0
14, 38100, Note_on_c, 10, 74, 76
14, 38153, Note_on_c, 10, 74, 0
14, 38160, Note_on_c, 10, 76, 76
14, 38333, Note_on_c, 10, 76, 0
14, 38340, Note_on_c, 10, 78, 76
14, 38393, Note_on_c, 10, 78, 0
14, 38400, Note_on_c, 10, 80, 76
14, 38573, Note_on_c, 10, 80, 0
14, 38580, Note_on_c, 10, 81, 76
14, 38633, Note_on_c, 10, 81, 0
14, 38640, Note_on_c, 10, 80, 76
14, 38693, Note_on_c, 10, 80, 0
14, 38700, Note_on_c, 10, 81, 76
14, 38753, Note_on_c, 10, 81, 0
14, 38760, Note_on_c, 10, 83, 76
14, 38813, Note_on_c, 10, 83, 0
14, 38820, Note_on_c, 10, 80, 76
14, 38873, Note_on_c, 10, 80, 0
14, 38880, Note_on_c, 10, 76, 76
14, 39173, Note_on_c, 10, 76, 0
14, 39180, Note_on_c, 10, 78, 76
14, 39233, Note_on_c, 10, 78, 0
14, 39240, Note_on_c, 10, 80, 76
14, 39293, Note_on_c, 10, 80, 0
14, 39300, Note_on_c, 10, 76, 76
14, 39353, Note_on_c, 10, 76, 0
14, 39360, Note_on_c, 10, 83, 76
14, 39653, Note_on_c, 10, 83, 0
14, 39660, Note_on_c, 10, 81, 76
14, 39713, Note_on_c, 10, 81, 0
14, 39720, Note_on_c, 10, 83, 76
14, 39773, Note_on_c, 10, 83, 0
14, 39780, Note_on_c, 10, 80, 76
14, 39833, Note_on_c, 10, 80, 0
14, 39840, Note_on_c, 10, 81, 76
14, 40133, Note_on_c, 10, 81, 0
14, 40140, Note_on_c, 10, 80, 76
14, 40193, Note_on_c, 10, 80, 0
14, 40200, Note_on_c, 10, 81, 76
14, 40253, Note_on_c, 10, 81, 0
14, 40260, Note_on_c, 10, 76, 76
14, 40313, Note_on_c, 10, 76, 0
14, 40320, Note_on_c, 10, 85, 76
14, 40613, Note_on_c, 10, 85, 0
14, 40620, Note_on_c, 10, 83, 76
14, 40673, Note_on_c, 10, 83, 0
14, 40680, Note_on_c, 10, 85, 76
14, 40733, Note_on_c, 10, 85, 0
14, 40740, Note_on_c, 10, 81, 76
14, 40793, Note_on_c, 10, 81, 0
14, 40800, Note_on_c, 10, 83, 76
14, 41093, Note_on_c, 10, 83, 0
14, 41100, Note_on_c, 10, 81, 76
14, 41153, Note_on_c, 10, 81, 0
14, 41160, Note_on_c, 10, 83, 76
14, 41213, Note_on_c, 10, 83, 0
14, 41220, Note_on_c, 10, 80, 76
14, 41273, Note_on_c, 10, 80, 0
14, 41280, Note_on_c, 10, 86, 76
14, 41573, Note_on_c, 10, 86, 0
14, 41580, Note_on_c, 10, 84, 76
14, 41633, Note_on_c, 10, 84, 0
14, 41640, Note_on_c, 10, 86, 76
14, 41693, Note_on_c, 10, 86, 0
14, 41700, Note_on_c, 10, 83, 76
14, 41753, Note_on_c, 10, 83, 0
14, 41760, Note_on_c, 10, 84, 76
14, 42053, Note_on_c, 10, 84, 0
14, 42060, Note_on_c, 10, 83, 76
14, 42113, Note_on_c, 10, 83, 0
14, 42120, Note_on_c, 10, 84, 76
14, 42173, Note_on_c, 10, 84, 0
14, 42180, Note_on_c, 10, 81, 76
14, 42233, Note_on_c, 10, 81, 0
14, 42240, Note_on_c, 10, 83, 76
14, 42533, Note_on_c, 10, 83, 0
14, 42540, Note_on_c, 10, 81, 76
14, 42593, Note_on_c, 10, 81, 0
14, 42600, Note_on_c, 10, 83, 76
14, 42653, Note_on_c, 10, 83, 0
14, 42660, Note_on_c, 10, 80, 76
14, 42713, Note_on_c, 10, 80, 0
14, 42720, Note_on_c, 10, 81, 76
14, 42773, Note_on_c, 10, 81, 0
14, 42780, Note_on_c, 10, 80, 76
14, 42833, Note_on_c, 10, 80, 0
14, 42840, Note_on_c, 10, 81, 76
14, 42893, Note_on_c, 10, 81, 0
14, 42900, Note_on_c, 10, 78, 76
14, 42953, Note_on_c, 10, 78, 0
14, 42960, Note_on_c, 10, 79, 76
14, 43493, Note_on_c, 10, 79, 0
14, 43500, Note_on_c, 10, 78, 76
14, 43553, Note_on_c, 10, 78, 0
14, 43560, Note_on_c, 10, 79, 76
14, 43613, Note_on_c, 10, 79, 0
14, 43620, Note_on_c, 10, 76, 76
14, 43673, Note_on_c, 10, 76, 0
14, 43680, Note_on_c, 10, 78, 76
14, 43853, Note_on_c, 10, 78, 0
14, 43860, Note_on_c, 10, 80, 76
14, 43913, Note_on_c, 10, 80, 0
14, 43920, Note_on_c, 10, 81, 76
14, 44269, Note_on_c, 10, 81, 0
14, 44280, Note_on_c, 10, 83, 76
14, 44389, Note_on_c, 10, 83, 0
14, 44400, Note_on_c, 10, 74, 76
14, 44629, Note_on_c, 10, 74, 0
14, 44640, Note_on_c, 10, 73, 76
14, 44813, Note_on_c, 10, 73, 0
14, 44820, Note_on_c, 10, 71, 76
14, 44873, Note_on_c, 10, 71, 0
14, 44880, Note_on_c, 10, 71, 76
14, 44894, Note_on_c, 10, 71, 0
14, 44895, Note_on_c, 10, 73, 76
14, 44909, Note_on_c, 10, 73, 0
14, 44910, Note_on_c, 10, 71, 76
14, 44924, Note_on_c, 10, 71, 0
14, 44925, Note_on_c, 10, 73, 76
14, 44939, Note_on_c, 10, 73, 0
14, 44940, Note_on_c, 10, 71, 76
14, 44954, Note_on_c, 10, 71, 0
14, 44955, Note_on_c, 10, 73, 76
14, 44969, Note_on_c, 10, 73, 0
14, 44970, Note_on_c, 10, 71, 76
14, 44984, Note_on_c, 10, 71, 0
14, 44985, Note_on_c, 10, 73, 76
14, 44999, Note_on_c, 10, 73, 0
14, 45000, Note_on_c, 10, 71, 76
14, 45014, Note_on_c, 10, 71, 0
14, 45015, Note_on_c, 10, 73, 76
14, 45029, Note_on_c, 10, 73, 0
14, 45030, Note_on_c, 10, 71, 76
14, 45044, Note_on_c, 10, 71, 0
14, 45045, Note_on_c, 10, 73, 76
14, 45059, Note_on_c, 10, 73, 0
14, 45060, Note_on_c, 10, 71, 76
14, 45074, Note_on_c, 10, 71, 0
14, 45075, Note_on_c, 10, 73, 76
14, 45089, Note_on_c, 10, 73, 0
14, 45090, Note_on_c, 10, 71, 76
14, 45104, Note_on_c, 10, 71, 0
14, 45105, Note_on_c, 10, 73, 76
14, 45119, Note_on_c, 10, 73, 0
14, 45120, Note_on_c, 10, 71, 76
14, 45134, Note_on_c, 10, 71, 0
14, 45135, Note_on_c, 10, 73, 76
14, 45149, Note_on_c, 10, 73, 0
14, 45150, Note_on_c, 10, 71, 76
14, 45164, Note_on_c, 10, 71, 0
14, 45165, Note_on_c, 10, 73, 76
14, 45179, Note_on_c, 10, 73, 0
14, 45180, Note_on_c, 10, 71, 76
14, 45194, Note_on_c, 10, 71, 0
14, 45195, Note_on_c, 10, 73, 76
14, 45209, Note_on_c, 10, 73, 0
14, 45210, Note_on_c, 10, 69, 76
14, 45224, Note_on_c, 10, 69, 0
14, 45225, Note_on_c, 10, 71, 76
14, 45239, Note_on_c, 10, 71, 0
14, 45240, Note_on_c, 10, 69, 76
14, 45349, Note_on_c, 10, 69, 0
14, 45360, Note_on_c, 10, 69, 76
14, 45599, Note_on_c, 10, 69, 0
14, 49920, Note_on_c, 10, 81, 76
14, 50019, Note_on_c, 10, 81, 0
14, 50040, Note_on_c, 10, 81, 76
14, 50159, Note_on_c, 10, 81, 0
14, 50160, Note_on_c, 10, 83, 76
14, 50259, Note_on_c, 10, 83, 0
14, 50280, Note_on_c, 10, 79, 76
14, 50379, Note_on_c, 10, 79, 0
14, 50400, Note_on_c, 10, 79, 76
14, 50519, Note_on_c, 10, 79, 0
14, 50520, Note_on_c, 10, 81, 76
14, 50619, Note_on_c, 10, 81, 0
14, 50640, Note_on_c, 10, 78, 76
14, 50739, Note_on_c, 10, 78, 0
14, 50760, Note_on_c, 10, 78, 76
14, 50879, Note_on_c, 10, 78, 0
14, 50880, Note_on_c, 10, 79, 76
14, 50999, Note_on_c, 10, 79, 0
14, 51000, Note_on_c, 10, 81, 76
14, 51099, Note_on_c, 10, 81, 0
14, 51120, Note_on_c, 10, 83, 76
14, 51239, Note_on_c, 10, 83, 0
14, 51240, Note_on_c, 10, 84, 76
14, 51339, Note_on_c, 10, 84, 0
14, 51360, Note_on_c, 10, 81, 76
14, 51459, Note_on_c, 10, 81, 0
14, 51480, Note_on_c, 10, 81, 76
14, 51599, Note_on_c, 10, 81, 0
14, 51600, Note_on_c, 10, 83, 76
14, 51699, Note_on_c, 10, 83, 0
14, 51720, Note_on_c, 10, 79, 76
14, 51819, Note_on_c, 10, 79, 0
14, 51840, Note_on_c, 10, 79, 76
14, 52094, Note_on_c, 10, 79, 0
14, 52110, Note_on_c, 10, 79, 76
14, 52184, Note_on_c, 10, 79, 0
14, 52200, Note_on_c, 10, 79, 76
14, 52454, Note_on_c, 10, 79, 0
14, 52470, Note_on_c, 10, 79, 76
14, 52544, Note_on_c, 10, 79, 0
14, 52560, Note_on_c, 10, 79, 76
14, 52814, Note_on_c, 10, 79, 0
14, 52830, Note_on_c, 10, 79, 76
14, 52904, Note_on_c, 10, 79, 0
14, 52920, Note_on_c, 10, 79, 76
14, 53039, Note_on_c, 10, 79, 0
14, 53040, Note_on_c, 10, 76, 76
14, 53159, Note_on_c, 10, 76, 0
14, 53160, Note_on_c, 10, 78, 76
14, 53259, Note_on_c, 10, 78, 0
14, 53280, Note_on_c, 10, 79, 76
14, 53399, Note_on_c, 10, 79, 0
14, 53400, Note_on_c, 10, 88, 76
14, 53499, Note_on_c, 10, 88, 0
14, 53520, Note_on_c, 10, 78, 76
14, 53619, Note_on_c, 10, 78, 0
14, 53640, Note_on_c, 10, 79, 76
14, 53759, Note_on_c, 10, 79, 0
14, 53760, Note_on_c, 10, 78, 76
14, 53879, Note_on_c, 10, 78, 0
14, 53880, Note_on_c, 10, 76, 76
14, 53979, Note_on_c, 10, 76, 0
14, 54000, Note_on_c, 10, 78, 76
14, 54119, Note_on_c, 10, 78, 0
14, 54120, Note_on_c, 10, 74, 76
14, 54239, Note_on_c, 10, 74, 0
14, 54240, Note_on_c, 10, 76, 76
14, 54339, Note_on_c, 10, 76, 0
14, 54360, Note_on_c, 10, 78, 76
14, 54479, Note_on_c, 10, 78, 0
14, 54480, Note_on_c, 10, 79, 76
14, 54579, Note_on_c, 10, 79, 0
14, 54600, Note_on_c, 10, 76, 76
14, 54699, Note_on_c, 10, 76, 0
14, 54720, Note_on_c, 10, 76, 76
14, 54839, Note_on_c, 10, 76, 0
14, 54840, Note_on_c, 10, 78, 76
14, 54939, Note_on_c, 10, 78, 0
14, 54960, Note_on_c, 10, 74, 76
14, 55059, Note_on_c, 10, 74, 0
14, 55080, Note_on_c, 10, 74, 76
14, 55334, Note_on_c, 10, 74, 0
14, 55350, Note_on_c, 10, 74, 76
14, 55424, Note_on_c, 10, 74, 0
14, 55440, Note_on_c, 10, 74, 76
14, 55694, Note_on_c, 10, 74, 0
14, 55710, Note_on_c, 10, 74, 76
14, 55784, Note_on_c, 10, 74, 0
14, 55800, Note_on_c, 10, 74, 76
14, 56054, Note_on_c, 10, 74, 0
14, 56070, Note_on_c, 10, 74, 76
14, 56144, Note_on_c, 10, 74, 0
14, 56160, Note_on_c, 10, 74, 76
14, 56279, Note_on_c, 10, 74, 0
14, 56280, Note_on_c, 10, 71, 76
14, 56399, Note_on_c, 10, 71, 0
14, 56400, Note_on_c, 10, 73, 76
14, 56499, Note_on_c, 10, 73, 0
14, 56520, Note_on_c, 10, 74, 76
14, 56639, Note_on_c, 10, 74, 0
14, 56640, Note_on_c, 10, 83, 76
14, 56739, Note_on_c, 10, 83, 0
14, 56760, Note_on_c, 10, 73, 76
14, 56859, Note_on_c, 10, 73, 0
14, 56880, Note_on_c, 10, 74, 76
14, 56999, Note_on_c, 10, 74, 0
14, 57000, Note_on_c, 10, 73, 76
14, 57119, Note_on_c, 10, 73, 0
14, 57120, Note_on_c, 10, 71, 76
14, 57219, Note_on_c, 10, 71, 0
14, 57240, Note_on_c, 10, 73, 76
14, 57359, Note_on_c, 10, 73, 0
14, 57360, Note_on_c, 10, 69, 76
14, 57479, Note_on_c, 10, 69, 0
14, 57480, Note_on_c, 10, 71, 76
14, 57579, Note_on_c, 10, 71, 0
14, 57600, Note_on_c, 10, 72, 76
14, 57719, Note_on_c, 10, 72, 0
14, 57720, Note_on_c, 10, 81, 76
14, 57819, Note_on_c, 10, 81, 0
14, 57840, Note_on_c, 10, 71, 76
14, 57939, Note_on_c, 10, 71, 0
14, 57960, Note_on_c, 10, 72, 76
14, 58079, Note_on_c, 10, 72, 0
14, 58080, Note_on_c, 10, 71, 76
14, 58199, Note_on_c, 10, 71, 0
14, 58200, Note_on_c, 10, 69, 76
14, 58299, Note_on_c, 10, 69, 0
14, 58320, Note_on_c, 10, 71, 76
14, 58574, Note_on_c, 10, 71, 0
14, 58590, Note_on_c, 10, 83, 76
14, 58664, Note_on_c, 10, 83, 0
14, 58680, Note_on_c, 10, 83, 76
14, 58799, Note_on_c, 10, 83, 0
14, 58800, Note_on_c, 10, 84, 76
14, 58899, Note_on_c, 10, 84, 0
14, 58920, Note_on_c, 10, 81, 76
14, 59019, Note_on_c, 10, 81, 0
14, 59040, Note_on_c, 10, 81, 76
14, 59159, Note_on_c, 10, 81, 0
14, 59160, Note_on_c, 10, 83, 76
14, 59259, Note_on_c, 10, 83, 0
14, 59280, Note_on_c, 10, 79, 76
14, 59379, Note_on_c, 10, 79, 0
14, 59400, Note_on_c, 10, 79, 76
14, 59519, Note_on_c, 10, 79, 0
14, 59520, Note_on_c, 10, 76, 76
14, 59639, Note_on_c, 10, 76, 0
14, 59640, Note_on_c, 10, 78, 76
14, 59739, Note_on_c, 10, 78, 0
14, 59760, Note_on_c, 10, 80, 76
14, 59879, Note_on_c, 10, 80, 0
14, 59880, Note_on_c, 10, 81, 76
14, 59979, Note_on_c, 10, 81, 0
14, 60000, Note_on_c, 10, 83, 76
14, 60099, Note_on_c, 10, 83, 0
14, 60120, Note_on_c, 10, 76, 76
14, 60374, Note_on_c, 10, 76, 0
14, 60390, Note_on_c, 10, 80, 76
14, 60464, Note_on_c, 10, 80, 0
14, 60480, Note_on_c, 10, 69, 76
14, 60599, Note_on_c, 10, 69, 0
14, 60600, Note_on_c, 10, 73, 76
14, 60719, Note_on_c, 10, 73, 0
14, 60720, Note_on_c, 10, 76, 76
14, 60819, Note_on_c, 10, 76, 0
14, 60840, Note_on_c, 10, 81, 76
14, 60959, Note_on_c, 10, 81, 0
14, 60960, Note_on_c, 10, 83, 76
14, 61059, Note_on_c, 10, 83, 0
14, 61080, Note_on_c, 10, 79, 76
14, 61179, Note_on_c, 10, 79, 0
14, 61200, Note_on_c, 10, 79, 76
14, 61319, Note_on_c, 10, 79, 0
14, 61320, Note_on_c, 10, 81, 76
14, 61419, Note_on_c, 10, 81, 0
14, 61440, Note_on_c, 10, 78, 76
14, 61539, Note_on_c, 10, 78, 0
14, 61560, Note_on_c, 10, 78, 76
14, 61679, Note_on_c, 10, 78, 0
14, 61680, Note_on_c, 10, 74, 76
14, 61799, Note_on_c, 10, 74, 0
14, 61800, Note_on_c, 10, 76, 76
14, 61899, Note_on_c, 10, 76, 0
14, 61920, Note_on_c, 10, 78, 76
14, 62039, Note_on_c, 10, 78, 0
14, 62040, Note_on_c, 10, 79, 76
14, 62139, Note_on_c, 10, 79, 0
14, 62160, Note_on_c, 10, 81, 76
14, 62259, Note_on_c, 10, 81, 0
14, 62280, Note_on_c, 10, 74, 76
14, 62534, Note_on_c, 10, 74, 0
14, 62550, Note_on_c, 10, 78, 76
14, 62624, Note_on_c, 10, 78, 0
14, 62640, Note_on_c, 10, 67, 76
14, 62759, Note_on_c, 10, 67, 0
14, 62760, Note_on_c, 10, 71, 76
14, 62879, Note_on_c, 10, 71, 0
14, 62880, Note_on_c, 10, 74, 76
14, 62979, Note_on_c, 10, 74, 0
14, 63000, Note_on_c, 10, 79, 76
14, 63119, Note_on_c, 10, 79, 0
14, 63120, Note_on_c, 10, 81, 76
14, 63219, Note_on_c, 10, 81, 0
14, 63240, Note_on_c, 10, 78, 76
14, 63339, Note_on_c, 10, 78, 0
14, 63360, Note_on_c, 10, 78, 76
14, 63479, Note_on_c, 10, 78, 0
14, 63480, Note_on_c, 10, 79, 76
14, 63579, Note_on_c, 10, 79, 0
14, 63600, Note_on_c, 10, 76, 76
14, 63699, Note_on_c, 10, 76, 0
14, 63720, Note_on_c, 10, 76, 76
14, 63839, Note_on_c, 10, 76, 0
14, 63840, Note_on_c, 10, 78, 76
14, 63959, Note_on_c, 10, 78, 0
14, 63960, Note_on_c, 10, 79, 76
14, 64059, Note_on_c, 10, 79, 0
14, 64080, Note_on_c, 10, 81, 76
14, 64199, Note_on_c, 10, 81, 0
14, 64200, Note_on_c, 10, 83, 76
14, 64299, Note_on_c, 10, 83, 0
14, 64320, Note_on_c, 10, 79, 76
14, 64419, Note_on_c, 10, 79, 0
14, 64440, Note_on_c, 10, 79, 76
14, 64559, Note_on_c, 10, 79, 0
14, 64560, Note_on_c, 10, 81, 76
14, 64659, Note_on_c, 10, 81, 0
14, 64680, Note_on_c, 10, 78, 76
14, 64779, Note_on_c, 10, 78, 0
14, 64800, Note_on_c, 10, 78, 76
14, 64919, Note_on_c, 10, 78, 0
14, 64920, Note_on_c, 10, 79, 76
14, 65039, Note_on_c, 10, 79, 0
14, 65040, Note_on_c, 10, 81, 76
14, 65139, Note_on_c, 10, 81, 0
14, 65160, Note_on_c, 10, 83, 76
14, 65279, Note_on_c, 10, 83, 0
14, 65280, Note_on_c, 10, 84, 76
14, 65379, Note_on_c, 10, 84, 0
14, 65400, Note_on_c, 10, 81, 76
14, 65499, Note_on_c, 10, 81, 0
14, 65520, Note_on_c, 10, 81, 76
14, 65639, Note_on_c, 10, 81, 0
14, 65640, Note_on_c, 10, 83, 76
14, 65739, Note_on_c, 10, 83, 0
14, 65760, Note_on_c, 10, 79, 76
14, 65859, Note_on_c, 10, 79, 0
14, 65880, Note_on_c, 10, 79, 76
14, 66134, Note_on_c, 10, 79, 0
14, 66150, Note_on_c, 10, 79, 76
14, 66224, Note_on_c, 10, 79, 0
14, 66240, Note_on_c, 10, 79, 76
14, 66494, Note_on_c, 10, 79, 0
14, 66510, Note_on_c, 10, 79, 76
14, 66584, Note_on_c, 10, 79, 0
14, 66600, Note_on_c, 10, 79, 76
14, 66854, Note_on_c, 10, 79, 0
14, 66870, Note_on_c, 10, 79, 76
14, 66944, Note_on_c, 10, 79, 0
14, 66960, Note_on_c, 10, 79, 76
14, 67079, Note_on_c, 10, 79, 0
14, 67080, Note_on_c, 10, 76, 76
14, 67199, Note_on_c, 10, 76, 0
14, 67200, Note_on_c, 10, 78, 76
14, 67299, Note_on_c, 10, 78, 0
14, 67320, Note_on_c, 10, 79, 76
14, 67439, Note_on_c, 10, 79, 0
14, 67440, Note_on_c, 10, 88, 76
14, 67539, Note_on_c, 10, 88, 0
14, 67560, Note_on_c, 10, 78, 76
14, 67659, Note_on_c, 10, 78, 0
14, 67680, Note_on_c, 10, 79, 76
14, 67799, Note_on_c, 10, 79, 0
14, 67800, Note_on_c, 10, 78, 76
14, 67919, Note_on_c, 10, 78, 0
14, 67920, Note_on_c, 10, 76, 76
14, 68019, Note_on_c, 10, 76, 0
14, 68040, Note_on_c, 10, 78, 76
14, 68159, Note_on_c, 10, 78, 0
14, 68160, Note_on_c, 10, 81, 76
14, 68279, Note_on_c, 10, 81, 0
14, 68280, Note_on_c, 10, 79, 76
14, 68379, Note_on_c, 10, 79, 0
14, 68400, Note_on_c, 10, 81, 76
14, 68654, Note_on_c, 10, 81, 0
14, 68670, Note_on_c, 10, 74, 76
14, 68744, Note_on_c, 10, 74, 0
14, 68760, Note_on_c, 10, 69, 76
14, 69014, Note_on_c, 10, 69, 0
14, 69030, Note_on_c, 10, 73, 76
14, 69104, Note_on_c, 10, 73, 0
14, 69120, Note_on_c, 10, 74, 76
14, 69374, Note_on_c, 10, 74, 0
14, 69390, Note_on_c, 10, 69, 76
14, 69464, Note_on_c, 10, 69, 0
14, 69480, Note_on_c, 10, 69, 76
14, 69734, Note_on_c, 10, 69, 0
14, 69750, Note_on_c, 10, 69, 76
14, 69824, Note_on_c, 10, 69, 0
14, 69840, Note_on_c, 10, 69, 76
14, 69959, Note_on_c, 10, 69, 0
14, 70470, Note_on_c, 10, 57, 76
14, 70544, Note_on_c, 10, 57, 0
14, 70560, Note_on_c, 10, 57, 76
14, 70814, Note_on_c, 10, 57, 0
14, 70830, Note_on_c, 10, 57, 76
14, 70904, Note_on_c, 10, 57, 0
14, 70920, Note_on_c, 10, 57, 76
14, 71039, Note_on_c, 10, 57, 0
14, 92070, Note_on_c, 10, 64, 76
14, 92144, Note_on_c, 10, 64, 0
14, 92160, Note_on_c, 10, 64, 76
14, 92414, Note_on_c, 10, 64, 0
14, 92430, Note_on_c, 10, 64, 76
14, 92504, Note_on_c, 10, 64, 0
14, 92520, Note_on_c, 10, 64, 76
14, 92774, Note_on_c, 10, 64, 0
14, 92790, Note_on_c, 10, 64, 76
14, 92864, Note_on_c, 10, 64, 0
14, 92880, Note_on_c, 10, 64, 76
14, 93134, Note_on_c, 10, 64, 0
14, 93150, Note_on_c, 10, 64, 76
14, 93224, Note_on_c, 10, 64, 0
14, 93240, Note_on_c, 10, 64, 76
14, 93494, Note_on_c, 10, 64, 0
14, 93510, Note_on_c, 10, 64, 76
14, 93584, Note_on_c, 10, 64, 0
14, 93600, Note_on_c, 10, 64, 76
14, 93854, Note_on_c, 10, 64, 0
14, 93870, Note_on_c, 10, 64, 76
14, 93944, Note_on_c, 10, 64, 0
14, 93960, Note_on_c, 10, 64, 76
14, 94214, Note_on_c, 10, 64, 0
14, 94230, Note_on_c, 10, 76, 76
14, 94304, Note_on_c, 10, 76, 0
14, 94320, Note_on_c, 10, 76, 76
14, 94439, Note_on_c, 10, 76, 0
14, 94440, Note_on_c, 10, 78, 76
14, 94539, Note_on_c, 10, 78, 0
14, 94560, Note_on_c, 10, 74, 76
14, 94659, Note_on_c, 10, 74, 0
14, 94680, Note_on_c, 10, 74, 76
14, 94799, Note_on_c, 10, 74, 0
14, 94800, Note_on_c, 10, 76, 76
14, 94899, Note_on_c, 10, 76, 0
14, 94920, Note_on_c, 10, 73, 76
14, 95019, Note_on_c, 10, 73, 0
14, 95040, Note_on_c, 10, 73, 76
14, 95159, Note_on_c, 10, 73, 0
14, 95160, Note_on_c, 10, 74, 76
14, 95279, Note_on_c, 10, 74, 0
14, 95280, Note_on_c, 10, 76, 76
14, 95399, Note_on_c, 10, 76, 0
14, 95400, Note_on_c, 10, 78, 76
14, 95519, Note_on_c, 10, 78, 0
14, 95520, Note_on_c, 10, 79, 76
14, 95619, Note_on_c, 10, 79, 0
14, 95640, Note_on_c, 10, 76, 76
14, 95739, Note_on_c, 10, 76, 0
14, 95760, Note_on_c, 10, 76, 76
14, 95879, Note_on_c, 10, 76, 0
14, 95880, Note_on_c, 10, 78, 76
14, 95979, Note_on_c, 10, 78, 0
14, 96000, Note_on_c, 10, 74, 76
14, 96099, Note_on_c, 10, 74, 0
14, 96120, Note_on_c, 10, 74, 76
14, 96374, Note_on_c, 10, 74, 0
14, 96390, Note_on_c, 10, 74, 76
14, 96464, Note_on_c, 10, 74, 0
14, 96480, Note_on_c, 10, 74, 76
14, 96734, Note_on_c, 10, 74, 0
14, 96750, Note_on_c, 10, 74, 76
14, 96824, Note_on_c, 10, 74, 0
14, 96840, Note_on_c, 10, 74, 76
14, 97094, Note_on_c, 10, 74, 0
14, 97110, Note_on_c, 10, 74, 76
14, 97184, Note_on_c, 10, 74, 0
14, 97200, Note_on_c, 10, 74, 76
14, 97319, Note_on_c, 10, 74, 0
14, 97320, Note_on_c, 10, 71, 76
14, 97439, Note_on_c, 10, 71, 0
14, 97440, Note_on_c, 10, 73, 76
14, 97559, Note_on_c, 10, 73, 0
14, 97560, Note_on_c, 10, 74, 76
14, 97679, Note_on_c, 10, 74, 0
14, 97680, Note_on_c, 10, 83, 76
14, 97779, Note_on_c, 10, 83, 0
14, 97800, Note_on_c, 10, 73, 76
14, 97899, Note_on_c, 10, 73, 0
14, 97920, Note_on_c, 10, 74, 76
14, 98039, Note_on_c, 10, 74, 0
14, 98040, Note_on_c, 10, 73, 76
14, 98159, Note_on_c, 10, 73, 0
14, 98160, Note_on_c, 10, 71, 76
14, 98259, Note_on_c, 10, 71, 0
14, 98280, Note_on_c, 10, 73, 76
14, 98399, Note_on_c, 10, 73, 0
14, 98400, Note_on_c, 10, 76, 76
14, 98499, Note_on_c, 10, 76, 0
14, 98520, Note_on_c, 10, 74, 76
14, 98619, Note_on_c, 10, 74, 0
14, 98640, Note_on_c, 10, 76, 76
14, 99479, Note_on_c, 10, 76, 0
14, 99480, Note_on_c, 10, 78, 76
14, 99599, Note_on_c, 10, 78, 0
14, 99600, Note_on_c, 10, 76, 76
14, 99699, Note_on_c, 10, 76, 0
14, 99720, Note_on_c, 10, 74, 76
14, 99839, Note_on_c, 10, 74, 0
14, 99840, Note_on_c, 10, 76, 76
14, 99939, Note_on_c, 10, 76, 0
14, 99960, Note_on_c, 10, 73, 76
14, 100059, Note_on_c, 10, 73, 0
14, 100080, Note_on_c, 10, 73, 76
14, 100199, Note_on_c, 10, 73, 0
14, 100200, Note_on_c, 10, 74, 76
14, 100299, Note_on_c, 10, 74, 0
14, 100320, Note_on_c, 10, 71, 76
14, 100419, Note_on_c, 10, 71, 0
14, 100440, Note_on_c, 10, 71, 76
14, 101639, Note_on_c, 10, 71, 0
14, 101640, Note_on_c, 10, 73, 76
14, 101759, Note_on_c, 10, 73, 0
14, 101760, Note_on_c, 10, 74, 76
14, 101859, Note_on_c, 10, 74, 0
14, 101880, Note_on_c, 10, 76, 76
14, 101999, Note_on_c, 10, 76, 0
14, 102000, Note_on_c, 10, 73, 76
14, 102119, Note_on_c, 10, 73, 0
14, 102120, Note_on_c, 10, 69, 76
14, 102219, Note_on_c, 10, 69, 0
14, 102240, Note_on_c, 10, 81, 76
14, 103779, Note_on_c, 10, 81, 0
14, 103800, Note_on_c, 10, 80, 76
14, 103919, Note_on_c, 10, 80, 0
14, 103920, Note_on_c, 10, 81, 76
14, 104039, Note_on_c, 10, 81, 0
14, 104040, Note_on_c, 10, 83, 76
14, 104159, Note_on_c, 10, 83, 0
14, 104160, Note_on_c, 10, 85, 76
14, 104259, Note_on_c, 10, 85, 0
14, 104280, Note_on_c, 10, 81, 76
14, 104379, Note_on_c, 10, 81, 0
14, 104400, Note_on_c, 10, 81, 76
14, 104519, Note_on_c, 10, 81, 0
14, 104520, Note_on_c, 10, 83, 76
14, 104619, Note_on_c, 10, 83, 0
14, 104640, Note_on_c, 10, 80, 76
14, 104739, Note_on_c, 10, 80, 0
14, 104760, Note_on_c, 10, 80, 76
14, 104879, Note_on_c, 10, 80, 0
14, 104880, Note_on_c, 10, 76, 76
14, 104999, Note_on_c, 10, 76, 0
14, 105000, Note_on_c, 10, 78, 76
14, 105119, Note_on_c, 10, 78, 0
14, 105120, Note_on_c, 10, 80, 76
14, 105239, Note_on_c, 10, 80, 0
14, 105240, Note_on_c, 10, 81, 76
14, 105339, Note_on_c, 10, 81, 0
14, 105360, Note_on_c, 10, 83, 76
14, 105459, Note_on_c, 10, 83, 0
14, 105480, Note_on_c, 10, 76, 76
14, 105734, Note_on_c, 10, 76, 0
14, 105750, Note_on_c, 10, 80, 76
14, 105824, Note_on_c, 10, 80, 0
14, 105840, Note_on_c, 10, 69, 76
14, 105959, Note_on_c, 10, 69, 0
14, 105960, Note_on_c, 10, 73, 76
14, 106079, Note_on_c, 10, 73, 0
14, 106080, Note_on_c, 10, 76, 76
14, 106179, Note_on_c, 10, 76, 0
14, 106200, Note_on_c, 10, 81, 76
14, 106319, Note_on_c, 10, 81, 0
14, 106320, Note_on_c, 10, 83, 76
14, 106419, Note_on_c, 10, 83, 0
14, 106440, Note_on_c, 10, 79, 76
14, 106539, Note_on_c, 10, 79, 0
14, 106560, Note_on_c, 10, 79, 76
14, 106679, Note_on_c, 10, 79, 0
14, 106680, Note_on_c, 10, 81, 76
14, 106779, Note_on_c, 10, 81, 0
14, 106800, Note_on_c, 10, 78, 76
14, 106899, Note_on_c, 10, 78, 0
14, 106920, Note_on_c, 10, 78, 76
14, 107039, Note_on_c, 10, 78, 0
14, 107040, Note_on_c, 10, 74, 76
14, 107159, Note_on_c, 10, 74, 0
14, 107160, Note_on_c, 10, 78, 76
14, 107259, Note_on_c, 10, 78, 0
14, 107280, Note_on_c, 10, 83, 76
14, 107399, Note_on_c, 10, 83, 0
14, 107400, Note_on_c, 10, 85, 76
14, 107499, Note_on_c, 10, 85, 0
14, 107520, Note_on_c, 10, 81, 76
14, 107619, Note_on_c, 10, 81, 0
14, 107640, Note_on_c, 10, 81, 76
14, 107759, Note_on_c, 10, 81, 0
14, 107760, Note_on_c, 10, 83, 76
14, 107859, Note_on_c, 10, 83, 0
14, 107880, Note_on_c, 10, 80, 76
14, 107979, Note_on_c, 10, 80, 0
14, 108000, Note_on_c, 10, 80, 76
14, 108119, Note_on_c, 10, 80, 0
14, 108120, Note_on_c, 10, 81, 76
14, 108239, Note_on_c, 10, 81, 0
14, 108240, Note_on_c, 10, 83, 76
14, 108339, Note_on_c, 10, 83, 0
14, 108360, Note_on_c, 10, 85, 76
14, 108479, Note_on_c, 10, 85, 0
14, 108480, Note_on_c, 10, 86, 76
14, 108579, Note_on_c, 10, 86, 0
14, 108600, Note_on_c, 10, 83, 76
14, 108699, Note_on_c, 10, 83, 0
14, 108720, Note_on_c, 10, 83, 76
14, 108839, Note_on_c, 10, 83, 0
14, 108840, Note_on_c, 10, 85, 76
14, 108939, Note_on_c, 10, 85, 0
14, 108960, Note_on_c, 10, 81, 76
14, 109059, Note_on_c, 10, 81, 0
14, 109080, Note_on_c, 10, 81, 76
14, 109334, Note_on_c, 10, 81, 0
14, 109350, Note_on_c, 10, 81, 76
14, 109424, Note_on_c, 10, 81, 0
14, 109440, Note_on_c, 10, 81, 76
14, 109694, Note_on_c, 10, 81, 0
14, 109710, Note_on_c, 10, 81, 76
14, 109784, Note_on_c, 10, 81, 0
14, 109800, Note_on_c, 10, 81, 76
14, 110054, Note_on_c, 10, 81, 0
14, 110070, Note_on_c, 10, 81, 76
14, 110144, Note_on_c, 10, 81, 0
14, 110160, Note_on_c, 10, 81, 76
14, 110279, Note_on_c, 10, 81, 0
14, 110280, Note_on_c, 10, 83, 76
14, 110399, Note_on_c, 10, 83, 0
14, 110400, Note_on_c, 10, 81, 76
14, 110499, Note_on_c, 10, 81, 0
14, 110520, Note_on_c, 10, 80, 76
14, 110639, Note_on_c, 10, 80, 0
14, 110640, Note_on_c, 10, 81, 76
14, 110739, Note_on_c, 10, 81, 0
14, 110760, Note_on_c, 10, 78, 76
14, 110859, Note_on_c, 10, 78, 0
14, 110880, Note_on_c, 10, 78, 76
14, 110999, Note_on_c, 10, 78, 0
14, 111000, Note_on_c, 10, 80, 76
14, 111099, Note_on_c, 10, 80, 0
14, 111120, Note_on_c, 10, 76, 76
14, 111219, Note_on_c, 10, 76, 0
14, 111240, Note_on_c, 10, 76, 76
14, 111494, Note_on_c, 10, 76, 0
14, 111510, Note_on_c, 10, 76, 76
14, 111584, Note_on_c, 10, 76, 0
14, 111600, Note_on_c, 10, 76, 76
14, 111854, Note_on_c, 10, 76, 0
14, 111870, Note_on_c, 10, 76, 76
14, 111944, Note_on_c, 10, 76, 0
14, 111960, Note_on_c, 10, 76, 76
14, 112214, Note_on_c, 10, 76, 0
14, 112230, Note_on_c, 10, 76, 76
14, 112304, Note_on_c, 10, 76, 0
14, 112320, Note_on_c, 10, 76, 76
14, 112439, Note_on_c, 10, 76, 0
14, 112440, Note_on_c, 10, 81, 76
14, 112539, Note_on_c, 10, 81, 0
14, 112560, Note_on_c, 10, 80, 76
14, 112659, Note_on_c, 10, 80, 0
14, 112680, Note_on_c, 10, 81, 76
14, 112799, Note_on_c, 10, 81, 0
14, 112800, Note_on_c, 10, 76, 76
14, 112919, Note_on_c, 10, 76, 0
14, 112920, Note_on_c, 10, 78, 76
14, 113019, Note_on_c, 10, 78, 0
14, 113040, Note_on_c, 10, 73, 76
14, 113159, Note_on_c, 10, 73, 0
14, 113160, Note_on_c, 10, 71, 76
14, 113279, Note_on_c, 10, 71, 0
14, 113280, Note_on_c, 10, 69, 76
14, 113379, Note_on_c, 10, 69, 0
14, 113400, Note_on_c, 10, 69, 76
14, 113654, Note_on_c, 10, 69, 0
14, 113670, Note_on_c, 10, 69, 76
14, 113744, Note_on_c, 10, 69, 0
14, 113760, Note_on_c, 10, 69, 76
14, 113879, Note_on_c, 10, 69, 0
14, 113880, Note_on_c, 10, 73, 76
14, 113979, Note_on_c, 10, 73, 0
14, 114000, Note_on_c, 10, 71, 76
14, 114099, Note_on_c, 10, 71, 0
14, 114120, Note_on_c, 10, 71, 76
14, 114239, Note_on_c, 10, 71, 0
14, 114240, Note_on_c, 10, 74, 76
14, 114339, Note_on_c, 10, 74, 0
14, 114360, Note_on_c, 10, 73, 76
14, 114459, Note_on_c, 10, 73, 0
14, 114480, Note_on_c, 10, 73, 76
14, 114599, Note_on_c, 10, 73, 0
14, 115830, Note_on_c, 10, 76, 76
14, 115904, Note_on_c, 10, 76, 0
14, 115920, Note_on_c, 10, 76, 76
14, 116039, Note_on_c, 10, 76, 0
14, 116040, Note_on_c, 10, 79, 76
14, 116139, Note_on_c, 10, 79, 0
14, 116160, Note_on_c, 10, 78, 76
14, 116259, Note_on_c, 10, 78, 0
14, 116280, Note_on_c, 10, 78, 76
14, 116399, Note_on_c, 10, 78, 0
14, 116400, Note_on_c, 10, 81, 76
14, 116499, Note_on_c, 10, 81, 0
14, 116520, Note_on_c, 10, 79, 76
14, 116619, Note_on_c, 10, 79, 0
14, 116640, Note_on_c, 10, 79, 76
14, 116759, Note_on_c, 10, 79, 0
14, 116760, Note_on_c, 10, 83, 76
14, 116859, Note_on_c, 10, 83, 0
14, 116880, Note_on_c, 10, 81, 76
14, 116979, Note_on_c, 10, 81, 0
14, 117000, Note_on_c, 10, 81, 76
14, 117119, Note_on_c, 10, 81, 0
14, 117120, Note_on_c, 10, 83, 76
14, 117219, Note_on_c, 10, 83, 0
14, 117240, Note_on_c, 10, 79, 76
14, 117339, Note_on_c, 10, 79, 0
14, 117360, Note_on_c, 10, 79, 76
14, 117479, Note_on_c, 10, 79, 0
14, 117480, Note_on_c, 10, 81, 76
14, 117579, Note_on_c, 10, 81, 0
14, 117600, Note_on_c, 10, 78, 76
14, 117699, Note_on_c, 10, 78, 0
14, 117720, Note_on_c, 10, 78, 76
14, 117839, Note_on_c, 10, 78, 0
14, 119070, Note_on_c, 10, 78, 76
14, 119144, Note_on_c, 10, 78, 0
14, 119160, Note_on_c, 10, 78, 76
14, 119279, Note_on_c, 10, 78, 0
14, 119280, Note_on_c, 10, 81, 76
14, 119379, Note_on_c, 10, 81, 0
14, 119400, Note_on_c, 10, 79, 76
14, 119499, Note_on_c, 10, 79, 0
14, 119520, Note_on_c, 10, 79, 76
14, 119639, Note_on_c, 10, 79, 0
14, 119640, Note_on_c, 10, 83, 76
14, 119739, Note_on_c, 10, 83, 0
14, 119760, Note_on_c, 10, 81, 76
14, 119859, Note_on_c, 10, 81, 0
14, 119880, Note_on_c, 10, 81, 76
14, 119999, Note_on_c, 10, 81, 0
14, 121230, Note_on_c, 10, 74, 76
14, 121304, Note_on_c, 10, 74, 0
14, 121320, Note_on_c, 10, 74, 76
14, 121439, Note_on_c, 10, 74, 0
14, 121440, Note_on_c, 10, 76, 76
14, 121539, Note_on_c, 10, 76, 0
14, 121560, Note_on_c, 10, 72, 76
14, 121659, Note_on_c, 10, 72, 0
14, 121680, Note_on_c, 10, 72, 76
14, 121799, Note_on_c, 10, 72, 0
14, 121800, Note_on_c, 10, 74, 76
14, 121899, Note_on_c, 10, 74, 0
14, 121920, Note_on_c, 10, 71, 76
14, 122019, Note_on_c, 10, 71, 0
14, 122040, Note_on_c, 10, 71, 76
14, 122159, Note_on_c, 10, 71, 0
14, 122160, Note_on_c, 10, 67, 76
14, 122279, Note_on_c, 10, 67, 0
14, 122280, Note_on_c, 10, 69, 76
14, 122399, Note_on_c, 10, 69, 0
14, 122400, Note_on_c, 10, 71, 76
14, 122519, Note_on_c, 10, 71, 0
14, 122520, Note_on_c, 10, 73, 76
14, 122619, Note_on_c, 10, 73, 0
14, 122640, Note_on_c, 10, 74, 76
14, 122739, Note_on_c, 10, 74, 0
14, 122760, Note_on_c, 10, 74, 76
14, 123239, Note_on_c, 10, 74, 0
14, 123240, Note_on_c, 10, 73, 76
14, 123359, Note_on_c, 10, 73, 0
14, 123360, Note_on_c, 10, 71, 76
14, 123479, Note_on_c, 10, 71, 0
14, 123480, Note_on_c, 10, 73, 76
14, 123599, Note_on_c, 10, 73, 0
14, 123600, Note_on_c, 10, 74, 76
14, 123699, Note_on_c, 10, 74, 0
14, 123720, Note_on_c, 10, 76, 76
14, 123819, Note_on_c, 10, 76, 0
14, 123840, Note_on_c, 10, 76, 76
14, 124319, Note_on_c, 10, 76, 0
14, 124320, Note_on_c, 10, 74, 76
14, 124439, Note_on_c, 10, 74, 0
14, 124440, Note_on_c, 10, 73, 76
14, 124559, Note_on_c, 10, 73, 0
14, 124560, Note_on_c, 10, 74, 76
14, 124679, Note_on_c, 10, 74, 0
14, 124680, Note_on_c, 10, 76, 76
14, 124779, Note_on_c, 10, 76, 0
14, 124800, Note_on_c, 10, 78, 76
14, 124899, Note_on_c, 10, 78, 0
14, 124920, Note_on_c, 10, 78, 76
14, 125399, Note_on_c, 10, 78, 0
14, 125400, Note_on_c, 10, 76, 76
14, 125519, Note_on_c, 10, 76, 0
14, 125520, Note_on_c, 10, 74, 76
14, 125639, Note_on_c, 10, 74, 0
14, 125640, Note_on_c, 10, 76, 76
14, 125759, Note_on_c, 10, 76, 0
14, 125760, Note_on_c, 10, 78, 76
14, 125859, Note_on_c, 10, 78, 0
14, 125880, Note_on_c, 10, 79, 76
14, 125979, Note_on_c, 10, 79, 0
14, 126000, Note_on_c, 10, 79, 76
14, 126614, Note_on_c, 10, 79, 0
14, 126630, Note_on_c, 10, 66, 76
14, 126704, Note_on_c, 10, 66, 0
14, 126720, Note_on_c, 10, 66, 76
14, 126974, Note_on_c, 10, 66, 0
14, 126990, Note_on_c, 10, 66, 76
14, 127064, Note_on_c, 10, 66, 0
14, 127080, Note_on_c, 10, 66, 76
14, 127334, Note_on_c, 10, 66, 0
14, 127350, Note_on_c, 10, 66, 76
14, 127424, Note_on_c, 10, 66, 0
14, 127440, Note_on_c, 10, 66, 76
14, 127559, Note_on_c, 10, 66, 0
14, 127800, Note_on_c, 10, 71, 76
14, 127919, Note_on_c, 10, 71, 0
14, 128160, Note_on_c, 10, 74, 76
14, 128279, Note_on_c, 10, 74, 0
14, 128520, Note_on_c, 10, 74, 76
14, 128639, Note_on_c, 10, 74, 0
14, 128880, Note_on_c, 10, 73, 76
14, 128999, Note_on_c, 10, 73, 0
14, 129240, Note_on_c, 10, 74, 76
14, 129359, Note_on_c, 10, 74, 0
14, 129600, Note_on_c, 10, 76, 76
14, 129719, Note_on_c, 10, 76, 0
14, 129720, Note_on_c, 10, 74, 76
14, 129839, Note_on_c, 10, 74, 0
14, 129840, Note_on_c, 10, 73, 76
14, 129939, Note_on_c, 10, 73, 0
14, 129960, Note_on_c, 10, 78, 76
14, 130079, Note_on_c, 10, 78, 0
14, 130080, Note_on_c, 10, 79, 76
14, 130179, Note_on_c, 10, 79, 0
14, 130200, Note_on_c, 10, 76, 76
14, 130299, Note_on_c, 10, 76, 0
14, 130320, Note_on_c, 10, 76, 76
14, 130439, Note_on_c, 10, 76, 0
14, 130440, Note_on_c, 10, 78, 76
14, 130539, Note_on_c, 10, 78, 0
14, 130560, Note_on_c, 10, 74, 76
14, 130659, Note_on_c, 10, 74, 0
14, 130680, Note_on_c, 10, 74, 76
14, 130799, Note_on_c, 10, 74, 0
14, 130800, Note_on_c, 10, 71, 76
14, 130919, Note_on_c, 10, 71, 0
14, 130920, Note_on_c, 10, 73, 76
14, 131039, Note_on_c, 10, 73, 0
14, 131040, Note_on_c, 10, 74, 76
14, 131159, Note_on_c, 10, 74, 0
14, 131160, Note_on_c, 10, 76, 76
14, 131259, Note_on_c, 10, 76, 0
14, 131280, Note_on_c, 10, 72, 76
14, 131379, Note_on_c, 10, 72, 0
14, 131400, Note_on_c, 10, 72, 76
14, 131519, Note_on_c, 10, 72, 0
14, 131520, Note_on_c, 10, 74, 76
14, 131619, Note_on_c, 10, 74, 0
14, 131640, Note_on_c, 10, 71, 76
14, 131739, Note_on_c, 10, 71, 0
14, 131760, Note_on_c, 10, 71, 76
14, 132014, Note_on_c, 10, 71, 0
14, 132030, Note_on_c, 10, 71, 76
14, 132104, Note_on_c, 10, 71, 0
14, 132120, Note_on_c, 10, 76, 76
14, 132374, Note_on_c, 10, 76, 0
14, 132390, Note_on_c, 10, 75, 76
14, 132464, Note_on_c, 10, 75, 0
14, 132480, Note_on_c, 10, 76, 76
14, 132734, Note_on_c, 10, 76, 0
14, 132750, Note_on_c, 10, 78, 76
14, 132824, Note_on_c, 10, 78, 0
14, 132840, Note_on_c, 10, 79, 76
14, 132959, Note_on_c, 10, 79, 0
14, 132960, Note_on_c, 10, 81, 76
14, 133059, Note_on_c, 10, 81, 0
14, 133080, Note_on_c, 10, 78, 76
14, 133179, Note_on_c, 10, 78, 0
14, 133200, Note_on_c, 10, 76, 76
14, 133319, Note_on_c, 10, 76, 0
14, 133320, Note_on_c, 10, 78, 76
14, 133419, Note_on_c, 10, 78, 0
14, 133440, Note_on_c, 10, 74, 76
14, 133539, Note_on_c, 10, 74, 0
14, 133560, Note_on_c, 10, 73, 76
14, 133679, Note_on_c, 10, 73, 0
14, 133680, Note_on_c, 10, 74, 76
14, 133779, Note_on_c, 10, 74, 0
14, 133800, Note_on_c, 10, 71, 76
14, 133899, Note_on_c, 10, 71, 0
14, 133920, Note_on_c, 10, 76, 76
14, 134174, Note_on_c, 10, 76, 0
14, 134190, Note_on_c, 10, 73, 76
14, 134264, Note_on_c, 10, 73, 0
14, 134280, Note_on_c, 10, 66, 76
14, 134534, Note_on_c, 10, 66, 0
14, 134550, Note_on_c, 10, 76, 76
14, 134624, Note_on_c, 10, 76, 0
14, 134640, Note_on_c, 10, 74, 76
14, 134894, Note_on_c, 10, 74, 0
14, 134910, Note_on_c, 10, 79, 76
14, 134984, Note_on_c, 10, 79, 0
14, 135000, Note_on_c, 10, 78, 76
14, 135119, Note_on_c, 10, 78, 0
14, 135120, Note_on_c, 10, 76, 76
14, 135239, Note_on_c, 10, 76, 0
14, 135240, Note_on_c, 10, 74, 76
14, 135359, Note_on_c, 10, 74, 0
14, 135360, Note_on_c, 10, 73, 76
14, 135479, Note_on_c, 10, 73, 0
14, 135480, Note_on_c, 10, 74, 76
14, 135579, Note_on_c, 10, 74, 0
14, 135600, Note_on_c, 10, 71, 76
14, 135699, Note_on_c, 10, 71, 0
14, 135720, Note_on_c, 10, 66, 76
14, 135839, Note_on_c, 10, 66, 0
14, 135840, Note_on_c, 10, 71, 76
14, 135939, Note_on_c, 10, 71, 0
14, 135960, Note_on_c, 10, 70, 76
14, 136059, Note_on_c, 10, 70, 0
14, 136080, Note_on_c, 10, 71, 76
14, 137159, Note_on_c, 10, 71, 0
14, 137160, Note_on_c, 10, 71, 76
14, 138494, Note_on_c, 10, 71, 0
14, 138510, Note_on_c, 10, 74, 76
14, 138584, Note_on_c, 10, 74, 0
14, 138600, Note_on_c, 10, 78, 76
14, 139439, Note_on_c, 10, 78, 0
14, 139440, Note_on_c, 10, 76, 76
14, 139559, Note_on_c, 10, 76, 0
14, 139560, Note_on_c, 10, 75, 76
14, 139659, Note_on_c, 10, 75, 0
14, 139680, Note_on_c, 10, 76, 76
14, 139799, Note_on_c, 10, 76, 0
14, 139800, Note_on_c, 10, 78, 76
14, 139919, Note_on_c, 10, 78, 0
14, 139920, Note_on_c, 10, 79, 76
14, 140019, Note_on_c, 10, 79, 0
14, 140040, Note_on_c, 10, 79, 76
14, 140519, Note_on_c, 10, 79, 0
14, 140520, Note_on_c, 10, 81, 76
14, 140619, Note_on_c, 10, 81, 0
14, 140640, Note_on_c, 10, 78, 76
14, 140739, Note_on_c, 10, 78, 0
14, 140760, Note_on_c, 10, 78, 76
14, 140879, Note_on_c, 10, 78, 0
14, 140880, Note_on_c, 10, 79, 76
14, 140979, Note_on_c, 10, 79, 0
14, 141000, Note_on_c, 10, 76, 76
14, 141099, Note_on_c, 10, 76, 0
14, 141120, Note_on_c, 10, 76, 76
14, 141239, Note_on_c, 10, 76, 0
14, 141240, Note_on_c, 10, 78, 76
14, 141339, Note_on_c, 10, 78, 0
14, 141360, Note_on_c, 10, 75, 76
14, 141459, Note_on_c, 10, 75, 0
14, 141480, Note_on_c, 10, 75, 76
14, 141599, Note_on_c, 10, 75, 0
14, 141840, Note_on_c, 10, 78, 76
14, 141959, Note_on_c, 10, 78, 0
14, 142200, Note_on_c, 10, 83, 76
14, 142319, Note_on_c, 10, 83, 0
14, 142920, Note_on_c, 10, 71, 76
14, 143039, Note_on_c, 10, 71, 0
14, 143280, Note_on_c, 10, 76, 76
14, 143399, Note_on_c, 10, 76, 0
14, 144000, Note_on_c, 10, 81, 76
14, 144119, Note_on_c, 10, 81, 0
14, 144360, Note_on_c, 10, 74, 76
14, 144479, Note_on_c, 10, 74, 0
14, 145080, Note_on_c, 10, 79, 76
14, 145199, Note_on_c, 10, 79, 0
14, 145440, Note_on_c, 10, 72, 76
14, 145559, Note_on_c, 10, 72, 0
14, 145800, Note_on_c, 10, 81, 76
14, 146054, Note_on_c, 10, 81, 0
14, 146070, Note_on_c, 10, 74, 76
14, 146144, Note_on_c, 10, 74, 0
14, 146160, Note_on_c, 10, 74, 76
14, 146279, Note_on_c, 10, 74, 0
14, 146280, Note_on_c, 10, 76, 76
14, 146379, Note_on_c, 10, 76, 0
14, 146400, Note_on_c, 10, 72, 76
14, 146499, Note_on_c, 10, 72, 0
14, 146520, Note_on_c, 10, 72, 76
14, 146639, Note_on_c, 10, 72, 0
14, 146640, Note_on_c, 10, 74, 76
14, 146739, Note_on_c, 10, 74, 0
14, 146760, Note_on_c, 10, 71, 76
14, 146859, Note_on_c, 10, 71, 0
14, 146880, Note_on_c, 10, 71, 76
14, 146999, Note_on_c, 10, 71, 0
14, 147000, Note_on_c, 10, 72, 76
14, 147119, Note_on_c, 10, 72, 0
14, 147120, Note_on_c, 10, 74, 76
14, 147239, Note_on_c, 10, 74, 0
14, 147240, Note_on_c, 10, 76, 76
14, 147359, Note_on_c, 10, 76, 0
14, 147360, Note_on_c, 10, 78, 76
14, 147459, Note_on_c, 10, 78, 0
14, 147480, Note_on_c, 10, 74, 76
14, 147579, Note_on_c, 10, 74, 0
14, 147600, Note_on_c, 10, 74, 76
14, 147719, Note_on_c, 10, 74, 0
14, 147720, Note_on_c, 10, 76, 76
14, 147819, Note_on_c, 10, 76, 0
14, 147840, Note_on_c, 10, 72, 76
14, 147939, Note_on_c, 10, 72, 0
14, 147960, Note_on_c, 10, 72, 76
14, 148214, Note_on_c, 10, 72, 0
14, 148230, Note_on_c, 10, 72, 76
14, 148304, Note_on_c, 10, 72, 0
14, 148320, Note_on_c, 10, 72, 76
14, 148439, Note_on_c, 10, 72, 0
14, 148440, Note_on_c, 10, 74, 76
14, 148539, Note_on_c, 10, 74, 0
14, 148560, Note_on_c, 10, 71, 76
14, 148659, Note_on_c, 10, 71, 0
14, 148680, Note_on_c, 10, 71, 76
14, 148799, Note_on_c, 10, 71, 0
14, 148800, Note_on_c, 10, 72, 76
14, 148899, Note_on_c, 10, 72, 0
14, 148920, Note_on_c, 10, 69, 76
14, 149019, Note_on_c, 10, 69, 0
14, 149040, Note_on_c, 10, 69, 76
14, 149159, Note_on_c, 10, 69, 0
14, 149160, Note_on_c, 10, 71, 76
14, 149279, Note_on_c, 10, 71, 0
14, 149280, Note_on_c, 10, 72, 76
14, 149399, Note_on_c, 10, 72, 0
14, 149400, Note_on_c, 10, 74, 76
14, 149519, Note_on_c, 10, 74, 0
14, 149520, Note_on_c, 10, 76, 76
14, 149619, Note_on_c, 10, 76, 0
14, 149640, Note_on_c, 10, 72, 76
14, 149739, Note_on_c, 10, 72, 0
14, 149760, Note_on_c, 10, 72, 76
14, 149879, Note_on_c, 10, 72, 0
14, 149880, Note_on_c, 10, 74, 76
14, 149979, Note_on_c, 10, 74, 0
14, 150000, Note_on_c, 10, 71, 76
14, 150099, Note_on_c, 10, 71, 0
14, 150120, Note_on_c, 10, 71, 76
14, 150239, Note_on_c, 10, 71, 0
14, 150240, Note_on_c, 10, 67, 76
14, 150359, Note_on_c, 10, 67, 0
14, 150360, Note_on_c, 10, 69, 76
14, 150479, Note_on_c, 10, 69, 0
14, 150480, Note_on_c, 10, 71, 76
14, 150599, Note_on_c, 10, 71, 0
14, 150600, Note_on_c, 10, 72, 76
14, 150719, Note_on_c, 10, 72, 0
14, 150720, Note_on_c, 10, 69, 76
14, 150839, Note_on_c, 10, 69, 0
14, 150840, Note_on_c, 10, 69, 76
14, 150959, Note_on_c, 10, 69, 0
14, 150960, Note_on_c, 10, 71, 76
14, 151079, Note_on_c, 10, 71, 0
14, 151080, Note_on_c, 10, 67, 76
14, 151199, Note_on_c, 10, 67, 0
14, 151200, Note_on_c, 10, 67, 76
14, 151454, Note_on_c, 10, 67, 0
14, 151470, Note_on_c, 10, 67, 76
14, 151544, Note_on_c, 10, 67, 0
14, 151560, Note_on_c, 10, 72, 76
14, 151814, Note_on_c, 10, 72, 0
14, 151830, Note_on_c, 10, 71, 76
14, 151904, Note_on_c, 10, 71, 0
14, 151920, Note_on_c, 10, 72, 76
14, 152174, Note_on_c, 10, 72, 0
14, 152190, Note_on_c, 10, 74, 76
14, 152264, Note_on_c, 10, 74, 0
14, 152280, Note_on_c, 10, 76, 76
14, 152399, Note_on_c, 10, 76, 0
14, 152400, Note_on_c, 10, 77, 76
14, 152499, Note_on_c, 10, 77, 0
14, 152520, Note_on_c, 10, 74, 76
14, 152619, Note_on_c, 10, 74, 0
14, 152640, Note_on_c, 10, 72, 76
14, 152759, Note_on_c, 10, 72, 0
14, 152760, Note_on_c, 10, 74, 76
14, 152859, Note_on_c, 10, 74, 0
14, 152880, Note_on_c, 10, 71, 76
14, 152979, Note_on_c, 10, 71, 0
14, 153000, Note_on_c, 10, 69, 76
14, 153119, Note_on_c, 10, 69, 0
14, 153120, Note_on_c, 10, 71, 76
14, 153219, Note_on_c, 10, 71, 0
14, 153240, Note_on_c, 10, 67, 76
14, 153339, Note_on_c, 10, 67, 0
14, 153360, Note_on_c, 10, 74, 76
14, 153614, Note_on_c, 10, 74, 0
14, 153630, Note_on_c, 10, 69, 76
14, 153704, Note_on_c, 10, 69, 0
14, 153720, Note_on_c, 10, 62, 76
14, 153974, Note_on_c, 10, 62, 0
14, 153990, Note_on_c, 10, 72, 76
14, 154064, Note_on_c, 10, 72, 0
14, 154080, Note_on_c, 10, 71, 76
14, 154334, Note_on_c, 10, 71, 0
14, 154350, Note_on_c, 10, 76, 76
14, 154424, Note_on_c, 10, 76, 0
14, 154440, Note_on_c, 10, 74, 76
14, 154559, Note_on_c, 10, 74, 0
14, 154560, Note_on_c, 10, 76, 76
14, 154679, Note_on_c, 10, 76, 0
14, 154680, Note_on_c, 10, 78, 76
14, 154799, Note_on_c, 10, 78, 0
14, 154800, Note_on_c, 10, 79, 76
14, 154919, Note_on_c, 10, 79, 0
14, 154920, Note_on_c, 10, 81, 76
14, 155019, Note_on_c, 10, 81, 0
14, 155040, Note_on_c, 10, 78, 76
14, 155139, Note_on_c, 10, 78, 0
14, 155160, Note_on_c, 10, 78, 76
14, 155414, Note_on_c, 10, 78, 0
14, 155430, Note_on_c, 10, 79, 76
14, 155504, Note_on_c, 10, 79, 0
14, 155520, Note_on_c, 10, 79, 76
14, 155774, Note_on_c, 10, 79, 0
14, 155790, Note_on_c, 10, 62, 76
14, 155864, Note_on_c, 10, 62, 0
14, 155880, Note_on_c, 10, 62, 76
14, 156134, Note_on_c, 10, 62, 0
14, 156150, Note_on_c, 10, 62, 76
14, 156224, Note_on_c, 10, 62, 0
14, 156240, Note_on_c, 10, 62, 76
14, 156494, Note_on_c, 10, 62, 0
14, 156510, Note_on_c, 10, 62, 76
14, 156584, Note_on_c, 10, 62, 0
14, 156600, Note_on_c, 10, 62, 76
14, 156854, Note_on_c, 10, 62, 0
14, 156870, Note_on_c, 10, 62, 76
14, 156944, Note_on_c, 10, 62, 0
14, 156960, Note_on_c, 10, 62, 76
14, 157214, Note_on_c, 10, 62, 0
14, 157230, Note_on_c, 10, 62, 76
14, 157304, Note_on_c, 10, 62, 0
14, 157320, Note_on_c, 10, 62, 76
14, 157574, Note_on_c, 10, 62, 0
14, 157590, Note_on_c, 10, 62, 76
14, 157664, Note_on_c, 10, 62, 0
14, 157680, Note_on_c, 10, 62, 76
14, 157799, Note_on_c, 10, 62, 0
14, 157800, Note_on_c, 10, 66, 76
14, 157919, Note_on_c, 10, 66, 0
14, 157920, Note_on_c, 10, 67, 76
14, 158019, Note_on_c, 10, 67, 0
14, 158040, Note_on_c, 10, 67, 76
14, 158159, Note_on_c, 10, 67, 0
14, 158160, Note_on_c, 10, 69, 76
14, 158259, Note_on_c, 10, 69, 0
14, 158280, Note_on_c, 10, 65, 76
14, 158379, Note_on_c, 10, 65, 0
14, 158400, Note_on_c, 10, 65, 76
14, 158519, Note_on_c, 10, 65, 0
14, 158520, Note_on_c, 10, 67, 76
14, 158619, Note_on_c, 10, 67, 0
14, 158640, Note_on_c, 10, 64, 76
14, 158739, Note_on_c, 10, 64, 0
14, 158760, Note_on_c, 10, 64, 76
14, 158879, Note_on_c, 10, 64, 0
14, 158880, Note_on_c, 10, 67, 76
14, 158999, Note_on_c, 10, 67, 0
14, 159000, Note_on_c, 10, 69, 76
14, 159099, Note_on_c, 10, 69, 0
14, 159120, Note_on_c, 10, 69, 76
14, 159239, Note_on_c, 10, 69, 0
14, 159240, Note_on_c, 10, 71, 76
14, 159339, Note_on_c, 10, 71, 0
14, 159360, Note_on_c, 10, 67, 76
14, 159459, Note_on_c, 10, 67, 0
14, 159480, Note_on_c, 10, 67, 76
14, 159599, Note_on_c, 10, 67, 0
14, 159600, Note_on_c, 10, 69, 76
14, 159699, Note_on_c, 10, 69, 0
14, 159720, Note_on_c, 10, 66, 76
14, 159819, Note_on_c, 10, 66, 0
14, 159840, Note_on_c, 10, 66, 76
14, 159959, Note_on_c, 10, 66, 0
14, 159960, Note_on_c, 10, 69, 76
14, 160079, Note_on_c, 10, 69, 0
14, 160080, Note_on_c, 10, 71, 76
14, 160179, Note_on_c, 10, 71, 0
14, 160200, Note_on_c, 10, 71, 76
14, 160319, Note_on_c, 10, 71, 0
14, 160320, Note_on_c, 10, 72, 76
14, 160419, Note_on_c, 10, 72, 0
14, 160440, Note_on_c, 10, 69, 76
14, 160539, Note_on_c, 10, 69, 0
14, 160560, Note_on_c, 10, 69, 76
14, 160679, Note_on_c, 10, 69, 0
14, 160680, Note_on_c, 10, 71, 76
14, 160779, Note_on_c, 10, 71, 0
14, 160800, Note_on_c, 10, 67, 76
14, 160899, Note_on_c, 10, 67, 0
14, 160920, Note_on_c, 10, 67, 76
14, 161039, Note_on_c, 10, 67, 0
14, 161040, Note_on_c, 10, 69, 76
14, 161159, Note_on_c, 10, 69, 0
14, 161160, Note_on_c, 10, 71, 76
14, 161259, Note_on_c, 10, 71, 0
14, 161280, Note_on_c, 10, 71, 76
14, 162339, Note_on_c, 10, 71, 0
14, 162360, Note_on_c, 10, 69, 76
14, 162699, Note_on_c, 10, 69, 0
14, 162720, Note_on_c, 10, 72, 76
14, 163179, Note_on_c, 10, 72, 0
14, 163200, Note_on_c, 10, 66, 76
14, 163319, Note_on_c, 10, 66, 0
14, 163320, Note_on_c, 10, 67, 76
14, 163439, Note_on_c, 10, 67, 0
14, 163440, Note_on_c, 10, 69, 76
14, 163559, Note_on_c, 10, 69, 0
14, 163560, Note_on_c, 10, 78, 76
14, 163659, Note_on_c, 10, 78, 0
14, 163680, Note_on_c, 10, 67, 76
14, 163779, Note_on_c, 10, 67, 0
14, 163800, Note_on_c, 10, 69, 76
14, 163919, Note_on_c, 10, 69, 0
14, 163920, Note_on_c, 10, 67, 76
14, 164039, Note_on_c, 10, 67, 0
14, 164040, Note_on_c, 10, 66, 76
14, 164139, Note_on_c, 10, 66, 0
14, 164160, Note_on_c, 10, 68, 76
14, 164499, Note_on_c, 10, 68, 0
14, 164520, Note_on_c, 10, 71, 76
14, 164859, Note_on_c, 10, 71, 0
14, 164880, Note_on_c, 10, 76, 76
14, 165339, Note_on_c, 10, 76, 0
14, 165360, Note_on_c, 10, 64, 76
14, 165479, Note_on_c, 10, 64, 0
14, 165480, Note_on_c, 10, 66, 76
14, 165599, Note_on_c, 10, 66, 0
14, 165600, Note_on_c, 10, 67, 76
14, 165719, Note_on_c, 10, 67, 0
14, 165720, Note_on_c, 10, 76, 76
14, 165819, Note_on_c, 10, 76, 0
14, 165840, Note_on_c, 10, 66, 76
14, 165939, Note_on_c, 10, 66, 0
14, 165960, Note_on_c, 10, 67, 76
14, 166079, Note_on_c, 10, 67, 0
14, 166080, Note_on_c, 10, 66, 76
14, 166199, Note_on_c, 10, 66, 0
14, 166200, Note_on_c, 10, 64, 76
14, 166299, Note_on_c, 10, 64, 0
14, 166320, Note_on_c, 10, 66, 76
14, 166659, Note_on_c, 10, 66, 0
14, 166680, Note_on_c, 10, 69, 76
14, 167019, Note_on_c, 10, 69, 0
14, 167040, Note_on_c, 10, 74, 76
14, 167499, Note_on_c, 10, 74, 0
14, 167520, Note_on_c, 10, 66, 76
14, 167639, Note_on_c, 10, 66, 0
14, 167640, Note_on_c, 10, 67, 76
14, 167759, Note_on_c, 10, 67, 0
14, 167760, Note_on_c, 10, 69, 76
14, 167879, Note_on_c, 10, 69, 0
14, 167880, Note_on_c, 10, 66, 76
14, 167979, Note_on_c, 10, 66, 0
14, 168000, Note_on_c, 10, 67, 76
14, 168099, Note_on_c, 10, 67, 0
14, 168120, Note_on_c, 10, 62, 76
14, 168239, Note_on_c, 10, 62, 0
14, 168240, Note_on_c, 10, 66, 76
14, 168339, Note_on_c, 10, 66, 0
14, 168360, Note_on_c, 10, 67, 76
14, 168459, Note_on_c, 10, 67, 0
14, 168480, Note_on_c, 10, 76, 76
14, 168599, Note_on_c, 10, 76, 0
14, 168600, Note_on_c, 10, 66, 76
14, 168719, Note_on_c, 10, 66, 0
14, 168720, Note_on_c, 10, 67, 76
14, 168839, Note_on_c, 10, 67, 0
14, 168840, Note_on_c, 10, 69, 76
14, 168959, Note_on_c, 10, 69, 0
14, 168960, Note_on_c, 10, 66, 76
14, 169059, Note_on_c, 10, 66, 0
14, 169080, Note_on_c, 10, 67, 76
14, 169179, Note_on_c, 10, 67, 0
14, 169200, Note_on_c, 10, 64, 76
14, 169319, Note_on_c, 10, 64, 0
14, 169320, Note_on_c, 10, 66, 76
14, 169419, Note_on_c, 10, 66, 0
14, 169440, Note_on_c, 10, 67, 76
14, 169539, Note_on_c, 10, 67, 0
14, 169560, Note_on_c, 10, 70, 76
14, 169679, Note_on_c, 10, 70, 0
14, 169680, Note_on_c, 10, 69, 76
14, 169779, Note_on_c, 10, 69, 0
14, 169800, Note_on_c, 10, 67, 76
14, 169899, Note_on_c, 10, 67, 0
14, 169920, Note_on_c, 10, 67, 76
14, 170039, Note_on_c, 10, 67, 0
14, 170040, Note_on_c, 10, 65, 76
14, 170139, Note_on_c, 10, 65, 0
14, 170160, Note_on_c, 10, 64, 76
14, 170259, Note_on_c, 10, 64, 0
14, 170280, Note_on_c, 10, 64, 76
14, 170399, Note_on_c, 10, 64, 0
14, 170400, Note_on_c, 10, 65, 76
14, 170499, Note_on_c, 10, 65, 0
14, 170520, Note_on_c, 10, 67, 76
14, 170619, Note_on_c, 10, 67, 0
14, 170640, Note_on_c, 10, 65, 76
14, 170759, Note_on_c, 10, 65, 0
14, 170760, Note_on_c, 10, 62, 76
14, 170879, Note_on_c, 10, 62, 0
14, 170880, Note_on_c, 10, 64, 76
14, 170999, Note_on_c, 10, 64, 0
14, 171000, Note_on_c, 10, 65, 76
14, 171119, Note_on_c, 10, 65, 0
14, 171120, Note_on_c, 10, 67, 76
14, 171219, Note_on_c, 10, 67, 0
14, 171240, Note_on_c, 10, 64, 76
14, 171339, Note_on_c, 10, 64, 0
14, 171360, Note_on_c, 10, 65, 76
14, 171479, Note_on_c, 10, 65, 0
14, 171480, Note_on_c, 10, 64, 76
14, 171579, Note_on_c, 10, 64, 0
14, 171600, Note_on_c, 10, 62, 76
14, 171699, Note_on_c, 10, 62, 0
14, 171720, Note_on_c, 10, 61, 76
14, 171839, Note_on_c, 10, 61, 0
14, 171840, Note_on_c, 10, 64, 76
14, 171959, Note_on_c, 10, 64, 0
14, 171960, Note_on_c, 10, 69, 76
14, 172079, Note_on_c, 10, 69, 0
14, 172080, Note_on_c, 10, 73, 76
14, 172199, Note_on_c, 10, 73, 0
14, 172200, Note_on_c, 10, 74, 76
14, 172299, Note_on_c, 10, 74, 0
14, 172320, Note_on_c, 10, 76, 76
14, 172419, Note_on_c, 10, 76, 0
14, 172440, Note_on_c, 10, 69, 76
14, 172559, Note_on_c, 10, 69, 0
14, 172560, Note_on_c, 10, 74, 76
14, 172659, Note_on_c, 10, 74, 0
14, 172680, Note_on_c, 10, 73, 76
14, 172779, Note_on_c, 10, 73, 0
14, 172800, Note_on_c, 10, 74, 76
14, 173879, Note_on_c, 10, 74, 0
14, 173880, Note_on_c, 10, 74, 76
14, 175059, Note_on_c, 10, 74, 0
14, 175080, Note_on_c, 10, 71, 76
14, 175199, Note_on_c, 10, 71, 0
14, 175200, Note_on_c, 10, 73, 76
14, 175319, Note_on_c, 10, 73, 0
14, 175320, Note_on_c, 10, 74, 76
14, 175439, Note_on_c, 10, 74, 0
14, 175440, Note_on_c, 10, 76, 76
14, 175539, Note_on_c, 10, 76, 0
14, 175560, Note_on_c, 10, 73, 76
14, 175659, Note_on_c, 10, 73, 0
14, 175680, Note_on_c, 10, 74, 76
14, 175799, Note_on_c, 10, 74, 0
14, 175800, Note_on_c, 10, 73, 76
14, 175919, Note_on_c, 10, 73, 0
14, 175920, Note_on_c, 10, 71, 76
14, 176019, Note_on_c, 10, 71, 0
14, 176040, Note_on_c, 10, 73, 76
14, 176159, Note_on_c, 10, 73, 0
14, 176160, Note_on_c, 10, 74, 76
14, 176279, Note_on_c, 10, 74, 0
14, 176280, Note_on_c, 10, 76, 76
14, 176399, Note_on_c, 10, 76, 0
14, 176400, Note_on_c, 10, 78, 76
14, 176519, Note_on_c, 10, 78, 0
14, 176520, Note_on_c, 10, 79, 76
14, 176619, Note_on_c, 10, 79, 0
14, 176640, Note_on_c, 10, 76, 76
14, 176739, Note_on_c, 10, 76, 0
14, 176760, Note_on_c, 10, 76, 76
14, 176879, Note_on_c, 10, 76, 0
14, 176880, Note_on_c, 10, 78, 76
14, 176979, Note_on_c, 10, 78, 0
14, 177000, Note_on_c, 10, 74, 76
14, 177099, Note_on_c, 10, 74, 0
14, 177120, Note_on_c, 10, 74, 76
14, 177579, Note_on_c, 10, 74, 0
14, 177600, Note_on_c, 10, 67, 76
14, 177719, Note_on_c, 10, 67, 0
14, 177720, Note_on_c, 10, 66, 76
14, 177819, Note_on_c, 10, 66, 0
14, 177840, Note_on_c, 10, 64, 76
14, 177959, Note_on_c, 10, 64, 0
14, 177960, Note_on_c, 10, 74, 76
14, 178059, Note_on_c, 10, 74, 0
14, 178080, Note_on_c, 10, 73, 76
14, 178179, Note_on_c, 10, 73, 0
14, 178200, Note_on_c, 10, 74, 76
14, 178319, Note_on_c, 10, 74, 0
14, 178320, Note_on_c, 10, 78, 76
14, 178439, Note_on_c, 10, 78, 0
14, 178440, Note_on_c, 10, 81, 76
14, 178539, Note_on_c, 10, 81, 0
14, 178560, Note_on_c, 10, 81, 76
14, 178679, Note_on_c, 10, 81, 0
14, 178680, Note_on_c, 10, 83, 76
14, 178779, Note_on_c, 10, 83, 0
14, 178800, Note_on_c, 10, 79, 76
14, 178899, Note_on_c, 10, 79, 0
14, 178920, Note_on_c, 10, 79, 76
14, 179039, Note_on_c, 10, 79, 0
14, 179040, Note_on_c, 10, 81, 76
14, 179139, Note_on_c, 10, 81, 0
14, 179160, Note_on_c, 10, 78, 76
14, 179259, Note_on_c, 10, 78, 0
14, 179280, Note_on_c, 10, 78, 76
14, 179399, Note_on_c, 10, 78, 0
14, 179400, Note_on_c, 10, 79, 76
14, 179519, Note_on_c, 10, 79, 0
14, 179520, Note_on_c, 10, 81, 76
14, 179639, Note_on_c, 10, 81, 0
14, 179640, Note_on_c, 10, 83, 76
14, 179759, Note_on_c, 10, 83, 0
14, 179760, Note_on_c, 10, 84, 76
14, 179859, Note_on_c, 10, 84, 0
14, 179880, Note_on_c, 10, 81, 76
14, 179979, Note_on_c, 10, 81, 0
14, 180000, Note_on_c, 10, 81, 76
14, 180119, Note_on_c, 10, 81, 0
14, 180120, Note_on_c, 10, 83, 76
14, 180219, Note_on_c, 10, 83, 0
14, 180240, Note_on_c, 10, 79, 76
14, 180339, Note_on_c, 10, 79, 0
14, 180360, Note_on_c, 10, 79, 76
14, 180614, Note_on_c, 10, 79, 0
14, 180630, Note_on_c, 10, 79, 76
14, 180704, Note_on_c, 10, 79, 0
14, 180720, Note_on_c, 10, 79, 76
14, 180974, Note_on_c, 10, 79, 0
14, 180990, Note_on_c, 10, 79, 76
14, 181064, Note_on_c, 10, 79, 0
14, 181080, Note_on_c, 10, 79, 76
14, 181334, Note_on_c, 10, 79, 0
14, 181350, Note_on_c, 10, 79, 76
14, 181424, Note_on_c, 10, 79, 0
14, 181440, Note_on_c, 10, 79, 76
14, 181559, Note_on_c, 10, 79, 0
14, 181560, Note_on_c, 10, 76, 76
14, 181679, Note_on_c, 10, 76, 0
14, 181680, Note_on_c, 10, 78, 76
14, 181799, Note_on_c, 10, 78, 0
14, 181800, Note_on_c, 10, 79, 76
14, 181919, Note_on_c, 10, 79, 0
14, 181920, Note_on_c, 10, 81, 76
14, 182019, Note_on_c, 10, 81, 0
14, 182040, Note_on_c, 10, 78, 76
14, 182139, Note_on_c, 10, 78, 0
14, 182160, Note_on_c, 10, 79, 76
14, 182279, Note_on_c, 10, 79, 0
14, 182280, Note_on_c, 10, 78, 76
14, 182399, Note_on_c, 10, 78, 0
14, 182400, Note_on_c, 10, 76, 76
14, 182499, Note_on_c, 10, 76, 0
14, 182520, Note_on_c, 10, 78, 76
14, 182639, Note_on_c, 10, 78, 0
14, 182640, Note_on_c, 10, 74, 76
14, 182759, Note_on_c, 10, 74, 0
14, 182760, Note_on_c, 10, 76, 76
14, 182859, Note_on_c, 10, 76, 0
14, 182880, Note_on_c, 10, 78, 76
14, 182999, Note_on_c, 10, 78, 0
14, 183000, Note_on_c, 10, 79, 76
14, 183099, Note_on_c, 10, 79, 0
14, 183120, Note_on_c, 10, 76, 76
14, 183219, Note_on_c, 10, 76, 0
14, 183240, Note_on_c, 10, 76, 76
14, 183359, Note_on_c, 10, 76, 0
14, 183360, Note_on_c, 10, 78, 76
14, 183459, Note_on_c, 10, 78, 0
14, 183480, Note_on_c, 10, 74, 76
14, 183579, Note_on_c, 10, 74, 0
14, 183600, Note_on_c, 10, 74, 76
14, 183854, Note_on_c, 10, 74, 0
14, 183870, Note_on_c, 10, 74, 76
14, 183944, Note_on_c, 10, 74, 0
14, 183960, Note_on_c, 10, 74, 76
14, 184214, Note_on_c, 10, 74, 0
14, 184230, Note_on_c, 10, 74, 76
14, 184304, Note_on_c, 10, 74, 0
14, 184320, Note_on_c, 10, 74, 76
14, 184574, Note_on_c, 10, 74, 0
14, 184590, Note_on_c, 10, 74, 76
14, 184664, Note_on_c, 10, 74, 0
14, 184680, Note_on_c, 10, 74, 76
14, 184799, Note_on_c, 10, 74, 0
14, 184800, Note_on_c, 10, 71, 76
14, 184919, Note_on_c, 10, 71, 0
14, 184920, Note_on_c, 10, 73, 76
14, 185039, Note_on_c, 10, 73, 0
14, 185040, Note_on_c, 10, 74, 76
14, 185159, Note_on_c, 10, 74, 0
14, 185160, Note_on_c, 10, 83, 76
14, 185259, Note_on_c, 10, 83, 0
14, 185280, Note_on_c, 10, 73, 76
14, 185379, Note_on_c, 10, 73, 0
14, 185400, Note_on_c, 10, 74, 76
14, 185519, Note_on_c, 10, 74, 0
14, 185520, Note_on_c, 10, 73, 76
14, 185639, Note_on_c, 10, 73, 0
14, 185640, Note_on_c, 10, 71, 76
14, 185739, Note_on_c, 10, 71, 0
14, 185760, Note_on_c, 10, 73, 76
14, 185879, Note_on_c, 10, 73, 0
14, 185880, Note_on_c, 10, 69, 76
14, 185999, Note_on_c, 10, 69, 0
14, 186000, Note_on_c, 10, 71, 76
14, 186119, Note_on_c, 10, 71, 0
14, 186120, Note_on_c, 10, 72, 76
14, 186239, Note_on_c, 10, 72, 0
14, 186240, Note_on_c, 10, 81, 76
14, 186339, Note_on_c, 10, 81, 0
14, 186360, Note_on_c, 10, 71, 76
14, 186459, Note_on_c, 10, 71, 0
14, 186480, Note_on_c, 10, 72, 76
14, 186599, Note_on_c, 10, 72, 0
14, 186600, Note_on_c, 10, 71, 76
14, 186719, Note_on_c, 10, 71, 0
14, 186720, Note_on_c, 10, 69, 76
14, 186819, Note_on_c, 10, 69, 0
14, 186840, Note_on_c, 10, 71, 76
14, 187094, Note_on_c, 10, 71, 0
14, 187110, Note_on_c, 10, 83, 76
14, 187184, Note_on_c, 10, 83, 0
14, 187200, Note_on_c, 10, 83, 76
14, 187319, Note_on_c, 10, 83, 0
14, 187320, Note_on_c, 10, 84, 76
14, 187419, Note_on_c, 10, 84, 0
14, 187440, Note_on_c, 10, 81, 76
14, 187539, Note_on_c, 10, 81, 0
14, 187560, Note_on_c, 10, 81, 76
14, 187679, Note_on_c, 10, 81, 0
14, 187680, Note_on_c, 10, 83, 76
14, 187779, Note_on_c, 10, 83, 0
14, 187800, Note_on_c, 10, 79, 76
14, 187899, Note_on_c, 10, 79, 0
14, 187920, Note_on_c, 10, 79, 76
14, 188019, Note_on_c, 10, 79, 0
14, 188040, Note_on_c, 10, 76, 76
14, 188159, Note_on_c, 10, 76, 0
14, 188160, Note_on_c, 10, 78, 76
14, 188279, Note_on_c, 10, 78, 0
14, 188280, Note_on_c, 10, 80, 76
14, 188399, Note_on_c, 10, 80, 0
14, 188400, Note_on_c, 10, 81, 76
14, 188499, Note_on_c, 10, 81, 0
14, 188520, Note_on_c, 10, 83, 76
14, 188619, Note_on_c, 10, 83, 0
14, 188640, Note_on_c, 10, 76, 76
14, 188894, Note_on_c, 10, 76, 0
14, 188910, Note_on_c, 10, 80, 76
14, 188984, Note_on_c, 10, 80, 0
14, 189000, Note_on_c, 10, 69, 76
14, 189119, Note_on_c, 10, 69, 0
14, 189120, Note_on_c, 10, 73, 76
14, 189239, Note_on_c, 10, 73, 0
14, 189240, Note_on_c, 10, 76, 76
14, 189339, Note_on_c, 10, 76, 0
14, 189360, Note_on_c, 10, 81, 76
14, 189479, Note_on_c, 10, 81, 0
14, 189480, Note_on_c, 10, 83, 76
14, 189579, Note_on_c, 10, 83, 0
14, 189600, Note_on_c, 10, 79, 76
14, 189699, Note_on_c, 10, 79, 0
14, 189720, Note_on_c, 10, 79, 76
14, 189839, Note_on_c, 10, 79, 0
14, 189840, Note_on_c, 10, 81, 76
14, 189939, Note_on_c, 10, 81, 0
14, 189960, Note_on_c, 10, 78, 76
14, 190059, Note_on_c, 10, 78, 0
14, 190080, Note_on_c, 10, 78, 76
14, 190199, Note_on_c, 10, 78, 0
14, 190200, Note_on_c, 10, 74, 76
14, 190319, Note_on_c, 10, 74, 0
14, 190320, Note_on_c, 10, 76, 76
14, 190439, Note_on_c, 10, 76, 0
14, 190440, Note_on_c, 10, 78, 76
14, 190559, Note_on_c, 10, 78, 0
14, 190560, Note_on_c, 10, 79, 76
14, 190659, Note_on_c, 10, 79, 0
14, 190680, Note_on_c, 10, 81, 76
14, 190779, Note_on_c, 10, 81, 0
14, 190800, Note_on_c, 10, 74, 76
14, 191054, Note_on_c, 10, 74, 0
14, 191070, Note_on_c, 10, 78, 76
14, 191144, Note_on_c, 10, 78, 0
14, 191160, Note_on_c, 10, 67, 76
14, 191279, Note_on_c, 10, 67, 0
14, 191280, Note_on_c, 10, 71, 76
14, 191399, Note_on_c, 10, 71, 0
14, 191400, Note_on_c, 10, 74, 76
14, 191499, Note_on_c, 10, 74, 0
14, 191520, Note_on_c, 10, 79, 76
14, 191639, Note_on_c, 10, 79, 0
14, 191640, Note_on_c, 10, 81, 76
14, 191739, Note_on_c, 10, 81, 0
14, 191760, Note_on_c, 10, 78, 76
14, 191859, Note_on_c, 10, 78, 0
14, 191880, Note_on_c, 10, 78, 76
14, 191999, Note_on_c, 10, 78, 0
14, 192000, Note_on_c, 10, 79, 76
14, 192099, Note_on_c, 10, 79, 0
14, 192120, Note_on_c, 10, 76, 76
14, 192219, Note_on_c, 10, 76, 0
14, 192240, Note_on_c, 10, 76, 76
14, 192359, Note_on_c, 10, 76, 0
14, 192360, Note_on_c, 10, 78, 76
14, 192479, Note_on_c, 10, 78, 0
14, 192480, Note_on_c, 10, 79, 76
14, 192599, Note_on_c, 10, 79, 0
14, 192600, Note_on_c, 10, 81, 76
14, 192719, Note_on_c, 10, 81, 0
14, 192720, Note_on_c, 10, 83, 76
14, 192819, Note_on_c, 10, 83, 0
14, 192840, Note_on_c, 10, 79, 76
14, 192939, Note_on_c, 10, 79, 0
14, 192960, Note_on_c, 10, 79, 76
14, 193079, Note_on_c, 10, 79, 0
14, 193080, Note_on_c, 10, 81, 76
14, 193179, Note_on_c, 10, 81, 0
14, 193200, Note_on_c, 10, 78, 76
14, 193299, Note_on_c, 10, 78, 0
14, 193320, Note_on_c, 10, 78, 76
14, 193439, Note_on_c, 10, 78, 0
14, 193440, Note_on_c, 10, 79, 76
14, 193559, Note_on_c, 10, 79, 0
14, 193560, Note_on_c, 10, 81, 76
14, 193679, Note_on_c, 10, 81, 0
14, 193680, Note_on_c, 10, 83, 76
14, 193799, Note_on_c, 10, 83, 0
14, 193800, Note_on_c, 10, 84, 76
14, 193899, Note_on_c, 10, 84, 0
14, 193920, Note_on_c, 10, 81, 76
14, 194019, Note_on_c, 10, 81, 0
14, 194040, Note_on_c, 10, 81, 76
14, 194159, Note_on_c, 10, 81, 0
14, 194160, Note_on_c, 10, 83, 76
14, 194259, Note_on_c, 10, 83, 0
14, 194280, Note_on_c, 10, 79, 76
14, 194379, Note_on_c, 10, 79, 0
14, 194400, Note_on_c, 10, 79, 76
14, 194654, Note_on_c, 10, 79, 0
14, 194670, Note_on_c, 10, 79, 76
14, 194744, Note_on_c, 10, 79, 0
14, 194760, Note_on_c, 10, 79, 76
14, 195014, Note_on_c, 10, 79, 0
14, 195030, Note_on_c, 10, 79, 76
14, 195104, Note_on_c, 10, 79, 0
14, 195120, Note_on_c, 10, 79, 76
14, 195374, Note_on_c, 10, 79, 0
14, 195390, Note_on_c, 10, 79, 76
14, 195464, Note_on_c, 10, 79, 0
14, 195480, Note_on_c, 10, 79, 76
14, 195599, Note_on_c, 10, 79, 0
14, 195600, Note_on_c, 10, 76, 76
14, 195699, Note_on_c, 10, 76, 0
14, 195720, Note_on_c, 10, 78, 76
14, 195819, Note_on_c, 10, 78, 0
14, 195840, Note_on_c, 10, 79, 76
14, 195959, Note_on_c, 10, 79, 0
14, 195960, Note_on_c, 10, 88, 76
14, 196059, Note_on_c, 10, 88, 0
14, 196080, Note_on_c, 10, 78, 76
14, 196179, Note_on_c, 10, 78, 0
14, 196200, Note_on_c, 10, 79, 76
14, 196319, Note_on_c, 10, 79, 0
14, 196320, Note_on_c, 10, 78, 76
14, 196419, Note_on_c, 10, 78, 0
14, 196440, Note_on_c, 10, 76, 76
14, 196539, Note_on_c, 10, 76, 0
14, 196560, Note_on_c, 10, 78, 76
14, 196679, Note_on_c, 10, 78, 0
14, 196680, Note_on_c, 10, 81, 76
14, 196779, Note_on_c, 10, 81, 0
14, 196800, Note_on_c, 10, 79, 76
14, 196899, Note_on_c, 10, 79, 0
14, 196920, Note_on_c, 10, 81, 76
14, 197174, Note_on_c, 10, 81, 0
14, 197190, Note_on_c, 10, 74, 76
14, 197264, Note_on_c, 10, 74, 0
14, 197280, Note_on_c, 10, 69, 76
14, 197534, Note_on_c, 10, 69, 0
14, 197550, Note_on_c, 10, 73, 76
14, 197624, Note_on_c, 10, 73, 0
14, 197640, Note_on_c, 10, 74, 76
14, 197759, Note_on_c, 10, 74, 0
14, 198000, Note_on_c, 10, 78, 76
14, 198119, Note_on_c, 10, 78, 0
14, 198360, Note_on_c, 10, 81, 76
14, 198479, Note_on_c, 10, 81, 0
14, 198720, Note_on_c, 10, 86, 76
14, 198839, Note_on_c, 10, 86, 0
14, 199080, Note_on_c, 10, 78, 76
14, 199199, Note_on_c, 10, 78, 0
14, 199440, Note_on_c, 10, 81, 76
14, 199559, Note_on_c, 10, 81, 0
14, 199800, Note_on_c, 10, 74, 76
14, 200093, Note_on_c, 10, 74, 0
14, 200100, Note_on_c, 10, 73, 76
14, 200153, Note_on_c, 10, 73, 0
14, 200160, Note_on_c, 10, 74, 76
14, 200213, Note_on_c, 10, 74, 0
14, 200220, Note_on_c, 10, 69, 76
14, 200273, Note_on_c, 10, 69, 0
14, 200280, Note_on_c, 10, 78, 76
14, 200813, Note_on_c, 10, 78, 0
14, 200820, Note_on_c, 10, 76, 76
14, 200873, Note_on_c, 10, 76, 0
14, 200880, Note_on_c, 10, 74, 76
14, 200933, Note_on_c, 10, 74, 0
14, 200940, Note_on_c, 10, 76, 76
14, 200993, Note_on_c, 10, 76, 0
14, 201000, Note_on_c, 10, 78, 76
14, 201053, Note_on_c, 10, 78, 0
14, 201060, Note_on_c, 10, 76, 76
14, 201113, Note_on_c, 10, 76, 0
14, 201120, Note_on_c, 10, 78, 76
14, 201173, Note_on_c, 10, 78, 0
14, 201180, Note_on_c, 10, 74, 76
14, 201233, Note_on_c, 10, 74, 0
14, 201240, Note_on_c, 10, 81, 76
14, 201773, Note_on_c, 10, 81, 0
14, 201780, Note_on_c, 10, 79, 76
14, 201833, Note_on_c, 10, 79, 0
14, 201840, Note_on_c, 10, 78, 76
14, 201893, Note_on_c, 10, 78, 0
14, 201900, Note_on_c, 10, 79, 76
14, 201953, Note_on_c, 10, 79, 0
14, 201960, Note_on_c, 10, 81, 76
14, 202013, Note_on_c, 10, 81, 0
14, 202020, Note_on_c, 10, 79, 76
14, 202073, Note_on_c, 10, 79, 0
14, 202080, Note_on_c, 10, 81, 76
14, 202133, Note_on_c, 10, 81, 0
14, 202140, Note_on_c, 10, 78, 76
14, 202193, Note_on_c, 10, 78, 0
14, 202200, Note_on_c, 10, 71, 76
14, 202373, Note_on_c, 10, 71, 0
14, 202380, Note_on_c, 10, 81, 76
14, 202433, Note_on_c, 10, 81, 0
14, 202440, Note_on_c, 10, 83, 76
14, 202613, Note_on_c, 10, 83, 0
14, 202620, Note_on_c, 10, 78, 76
14, 202673, Note_on_c, 10, 78, 0
14, 202680, Note_on_c, 10, 79, 76
14, 203749, Note_on_c, 10, 79, 0
14, 203760, Note_on_c, 10, 69, 76
14, 203813, Note_on_c, 10, 69, 0
14, 203820, Note_on_c, 10, 71, 76
14, 203873, Note_on_c, 10, 71, 0
14, 203880, Note_on_c, 10, 73, 76
14, 203933, Note_on_c, 10, 73, 0
14, 203940, Note_on_c, 10, 74, 76
14, 203993, Note_on_c, 10, 74, 0
14, 204000, Note_on_c, 10, 76, 76
14, 204053, Note_on_c, 10, 76, 0
14, 204060, Note_on_c, 10, 78, 76
14, 204113, Note_on_c, 10, 78, 0
14, 204120, Note_on_c, 10, 79, 76
14, 204173, Note_on_c, 10, 79, 0
14, 204180, Note_on_c, 10, 78, 76
14, 204233, Note_on_c, 10, 78, 0
14, 204240, Note_on_c, 10, 76, 76
14, 204293, Note_on_c, 10, 76, 0
14, 204300, Note_on_c, 10, 78, 76
14, 204353, Note_on_c, 10, 78, 0
14, 204360, Note_on_c, 10, 79, 76
14, 204413, Note_on_c, 10, 79, 0
14, 204420, Note_on_c, 10, 76, 76
14, 204473, Note_on_c, 10, 76, 0
14, 204480, Note_on_c, 10, 81, 76
14, 204533, Note_on_c, 10, 81, 0
14, 204540, Note_on_c, 10, 76, 76
14, 204593, Note_on_c, 10, 76, 0
14, 204600, Note_on_c, 10, 78, 76
14, 204653, Note_on_c, 10, 78, 0
14, 204660, Note_on_c, 10, 81, 76
14, 204713, Note_on_c, 10, 81, 0
14, 204720, Note_on_c, 10, 74, 76
14, 204773, Note_on_c, 10, 74, 0
14, 204780, Note_on_c, 10, 76, 76
14, 204833, Note_on_c, 10, 76, 0
14, 204840, Note_on_c, 10, 78, 76
14, 204893, Note_on_c, 10, 78, 0
14, 204900, Note_on_c, 10, 79, 76
14, 204953, Note_on_c, 10, 79, 0
14, 204960, Note_on_c, 10, 81, 76
14, 205013, Note_on_c, 10, 81, 0
14, 205020, Note_on_c, 10, 83, 76
14, 205073, Note_on_c, 10, 83, 0
14, 205080, Note_on_c, 10, 84, 76
14, 205133, Note_on_c, 10, 84, 0
14, 205140, Note_on_c, 10, 83, 76
14, 205193, Note_on_c, 10, 83, 0
14, 205200, Note_on_c, 10, 81, 76
14, 205253, Note_on_c, 10, 81, 0
14, 205260, Note_on_c, 10, 83, 76
14, 205313, Note_on_c, 10, 83, 0
14, 205320, Note_on_c, 10, 84, 76
14, 205373, Note_on_c, 10, 84, 0
14, 205380, Note_on_c, 10, 81, 76
14, 205433, Note_on_c, 10, 81, 0
14, 205440, Note_on_c, 10, 86, 76
14, 205493, Note_on_c, 10, 86, 0
14, 205500, Note_on_c, 10, 81, 76
14, 205553, Note_on_c, 10, 81, 0
14, 205560, Note_on_c, 10, 83, 76
14, 206039, Note_on_c, 10, 83, 0
14, 206040, Note_on_c, 10, 83, 76
14, 206333, Note_on_c, 10, 83, 0
14, 206340, Note_on_c, 10, 81, 76
14, 206393, Note_on_c, 10, 81, 0
14, 206400, Note_on_c, 10, 83, 76
14, 206453, Note_on_c, 10, 83, 0
14, 206460, Note_on_c, 10, 79, 76
14, 206513, Note_on_c, 10, 79, 0
14, 206520, Note_on_c, 10, 81, 76
14, 207109, Note_on_c, 10, 81, 0
14, 207120, Note_on_c, 10, 86, 76
14, 207173, Note_on_c, 10, 86, 0
14, 207180, Note_on_c, 10, 85, 76
14, 207233, Note_on_c, 10, 85, 0
14, 207240, Note_on_c, 10, 83, 76
14, 207293, Note_on_c, 10, 83, 0
14, 207300, Note_on_c, 10, 81, 76
14, 207353, Note_on_c, 10, 81, 0
14, 207360, Note_on_c, 10, 79, 76
14, 207413, Note_on_c, 10, 79, 0
14, 207420, Note_on_c, 10, 78, 76
14, 207473, Note_on_c, 10, 78, 0
14, 207480, Note_on_c, 10, 79, 76
14, 207829, Note_on_c, 10, 79, 0
14, 207840, Note_on_c, 10, 79, 76
14, 207949, Note_on_c, 10, 79, 0
14, 207960, Note_on_c, 10, 79, 76
14, 208133, Note_on_c, 10, 79, 0
14, 208140, Note_on_c, 10, 76, 76
14, 208193, Note_on_c, 10, 76, 0
14, 208200, Note_on_c, 10, 81, 76
14, 208373, Note_on_c, 10, 81, 0
14, 208380, Note_on_c, 10, 76, 76
14, 208433, Note_on_c, 10, 76, 0
14, 208440, Note_on_c, 10, 78, 76
14, 208669, Note_on_c, 10, 78, 0
14, 208680, Note_on_c, 10, 74, 76
14, 208909, Note_on_c, 10, 74, 0
14, 208920, Note_on_c, 10, 71, 76
14, 209453, Note_on_c, 10, 71, 0
14, 209460, Note_on_c, 10, 71, 76
14, 209513, Note_on_c, 10, 71, 0
14, 209520, Note_on_c, 10, 73, 76
14, 209573, Note_on_c, 10, 73, 0
14, 209580, Note_on_c, 10, 74, 76
14, 209633, Note_on_c, 10, 74, 0
14, 209640, Note_on_c, 10, 76, 76
14, 209693, Note_on_c, 10, 76, 0
14, 209700, Note_on_c, 10, 74, 76
14, 209753, Note_on_c, 10, 74, 0
14, 209760, Note_on_c, 10, 76, 76
14, 209813, Note_on_c, 10, 76, 0
14, 209820, Note_on_c, 10, 73, 76
14, 209873, Note_on_c, 10, 73, 0
14, 209880, Note_on_c, 10, 66, 76
14, 210053, Note_on_c, 10, 66, 0
14, 210060, Note_on_c, 10, 76, 76
14, 210113, Note_on_c, 10, 76, 0
14, 210120, Note_on_c, 10, 74, 76
14, 210293, Note_on_c, 10, 74, 0
14, 210300, Note_on_c, 10, 73, 76
14, 210353, Note_on_c, 10, 73, 0
14, 210360, Note_on_c, 10, 74, 76
14, 210653, Note_on_c, 10, 74, 0
14, 210660, Note_on_c, 10, 73, 76
14, 210713, Note_on_c, 10, 73, 0
14, 210720, Note_on_c, 10, 74, 76
14, 210773, Note_on_c, 10, 74, 0
14, 210780, Note_on_c, 10, 71, 76
14, 210833, Note_on_c, 10, 71, 0
14, 210840, Note_on_c, 10, 67, 76
14, 211373, Note_on_c, 10, 67, 0
14, 211380, Note_on_c, 10, 66, 76
14, 211433, Note_on_c, 10, 66, 0
14, 211440, Note_on_c, 10, 67, 76
14, 211493, Note_on_c, 10, 67, 0
14, 211500, Note_on_c, 10, 64, 76
14, 211553, Note_on_c, 10, 64, 0
14, 211560, Note_on_c, 10, 66, 76
14, 211733, Note_on_c, 10, 66, 0
14, 211740, Note_on_c, 10, 67, 76
14, 211793, Note_on_c, 10, 67, 0
14, 211800, Note_on_c, 10, 69, 76
14, 211973, Note_on_c, 10, 69, 0
14, 211980, Note_on_c, 10, 71, 76
14, 212033, Note_on_c, 10, 71, 0
14, 212040, Note_on_c, 10, 73, 76
14, 212213, Note_on_c, 10, 73, 0
14, 212220, Note_on_c, 10, 74, 76
14, 212273, Note_on_c, 10, 74, 0
14, 212280, Note_on_c, 10, 64, 76
14, 212573, Note_on_c, 10, 64, 0
14, 212580, Note_on_c, 10, 62, 76
14, 212633, Note_on_c, 10, 62, 0
14, 212640, Note_on_c, 10, 64, 76
14, 212693, Note_on_c, 10, 64, 0
14, 212700, Note_on_c, 10, 61, 76
14, 212753, Note_on_c, 10, 61, 0
14, 212760, Note_on_c, 10, 67, 76
14, 213053, Note_on_c, 10, 67, 0
14, 213060, Note_on_c, 10, 66, 76
14, 213113, Note_on_c, 10, 66, 0
14, 213120, Note_on_c, 10, 67, 76
14, 213173, Note_on_c, 10, 67, 0
14, 213180, Note_on_c, 10, 64, 76
14, 213233, Note_on_c, 10, 64, 0
14, 213240, Note_on_c, 10, 66, 76
14, 213533, Note_on_c, 10, 66, 0
14, 213540, Note_on_c, 10, 64, 76
14, 213593, Note_on_c, 10, 64, 0
14, 213600, Note_on_c, 10, 66, 76
14, 213653, Note_on_c, 10, 66, 0
14, 213660, Note_on_c, 10, 62, 76
14, 213713, Note_on_c, 10, 62, 0
14, 213720, Note_on_c, 10, 69, 76
14, 214013, Note_on_c, 10, 69, 0
14, 214020, Note_on_c, 10, 67, 76
14, 214073, Note_on_c, 10, 67, 0
14, 214080, Note_on_c, 10, 69, 76
14, 214133, Note_on_c, 10, 69, 0
14, 214140, Note_on_c, 10, 66, 76
14, 214193, Note_on_c, 10, 66, 0
14, 214200, Note_on_c, 10, 67, 76
14, 214493, Note_on_c, 10, 67, 0
14, 214500, Note_on_c, 10, 66, 76
14, 214553, Note_on_c, 10, 66, 0
14, 214560, Note_on_c, 10, 67, 76
14, 214613, Note_on_c, 10, 67, 0
14, 214620, Note_on_c, 10, 64, 76
14, 214673, Note_on_c, 10, 64, 0
14, 214680, Note_on_c, 10, 70, 76
14, 214973, Note_on_c, 10, 70, 0
14, 214980, Note_on_c, 10, 69, 76
14, 215033, Note_on_c, 10, 69, 0
14, 215040, Note_on_c, 10, 70, 76
14, 215093, Note_on_c, 10, 70, 0
14, 215100, Note_on_c, 10, 67, 76
14, 215153, Note_on_c, 10, 67, 0
14, 215160, Note_on_c, 10, 69, 76
14, 215453, Note_on_c, 10, 69, 0
14, 215460, Note_on_c, 10, 67, 76
14, 215513, Note_on_c, 10, 67, 0
14, 215520, Note_on_c, 10, 69, 76
14, 215573, Note_on_c, 10, 69, 0
14, 215580, Note_on_c, 10, 65, 76
14, 215633, Note_on_c, 10, 65, 0
14, 215640, Note_on_c, 10, 67, 76
14, 215933, Note_on_c, 10, 67, 0
14, 215940, Note_on_c, 10, 65, 76
14, 215993, Note_on_c, 10, 65, 0
14, 216000, Note_on_c, 10, 67, 76
14, 216053, Note_on_c, 10, 67, 0
14, 216060, Note_on_c, 10, 64, 76
14, 216113, Note_on_c, 10, 64, 0
14, 216120, Note_on_c, 10, 65, 76
14, 216413, Note_on_c, 10, 65, 0
14, 216420, Note_on_c, 10, 64, 76
14, 216473, Note_on_c, 10, 64, 0
14, 216480, Note_on_c, 10, 65, 76
14, 216533, Note_on_c, 10, 65, 0
14, 216540, Note_on_c, 10, 62, 76
14, 216593, Note_on_c, 10, 62, 0
14, 216600, Note_on_c, 10, 72, 76
14, 217133, Note_on_c, 10, 72, 0
14, 217140, Note_on_c, 10, 71, 76
14, 217193, Note_on_c, 10, 71, 0
14, 217200, Note_on_c, 10, 72, 76
14, 217253, Note_on_c, 10, 72, 0
14, 217260, Note_on_c, 10, 69, 76
14, 217313, Note_on_c, 10, 69, 0
14, 217320, Note_on_c, 10, 71, 76
14, 217493, Note_on_c, 10, 71, 0
14, 217500, Note_on_c, 10, 73, 76
14, 217553, Note_on_c, 10, 73, 0
14, 217560, Note_on_c, 10, 74, 76
14, 217909, Note_on_c, 10, 74, 0
14, 217920, Note_on_c, 10, 76, 76
14, 218029, Note_on_c, 10, 76, 0
14, 218040, Note_on_c, 10, 69, 76
14, 218213, Note_on_c, 10, 69, 0
14, 218220, Note_on_c, 10, 79, 76
14, 218273, Note_on_c, 10, 79, 0
14, 218280, Note_on_c, 10, 78, 76
14, 218453, Note_on_c, 10, 78, 0
14, 218460, Note_on_c, 10, 76, 76
14, 218513, Note_on_c, 10, 76, 0
14, 218520, Note_on_c, 10, 73, 76
14, 218534, Note_on_c, 10, 73, 0
14, 218535, Note_on_c, 10, 74, 76
14, 218549, Note_on_c, 10, 74, 0
14, 218550, Note_on_c, 10, 73, 76
14, 218564, Note_on_c, 10, 73, 0
14, 218565, Note_on_c, 10, 74, 76
14, 218579, Note_on_c, 10, 74, 0
14, 218580, Note_on_c, 10, 73, 76
14, 218594, Note_on_c, 10, 73, 0
14, 218595, Note_on_c, 10, 74, 76
14, 218609, Note_on_c, 10, 74, 0
14, 218610, Note_on_c, 10, 73, 76
14, 218624, Note_on_c, 10, 73, 0
14, 218625, Note_on_c, 10, 74, 76
14, 218639, Note_on_c, 10, 74, 0
14, 218640, Note_on_c, 10, 73, 76
14, 218654, Note_on_c, 10, 73, 0
14, 218655, Note_on_c, 10, 74, 76
14, 218669, Note_on_c, 10, 74, 0
14, 218670, Note_on_c, 10, 73, 76
14, 218684, Note_on_c, 10, 73, 0
14, 218685, Note_on_c, 10, 74, 76
14, 218699, Note_on_c, 10, 74, 0
14, 218700, Note_on_c, 10, 73, 76
14, 218714, Note_on_c, 10, 73, 0
14, 218715, Note_on_c, 10, 74, 76
14, 218729, Note_on_c, 10, 74, 0
14, 218730, Note_on_c, 10, 73, 76
14, 218744, Note_on_c, 10, 73, 0
14, 218745, Note_on_c, 10, 74, 76
14, 218759, Note_on_c, 10, 74, 0
14, 218760, Note_on_c, 10, 73, 76
14, 218774, Note_on_c, 10, 73, 0
14, 218775, Note_on_c, 10, 74, 76
14, 218789, Note_on_c, 10, 74, 0
14, 218790, Note_on_c, 10, 73, 76
14, 218804, Note_on_c, 10, 73, 0
14, 218805, Note_on_c, 10, 74, 76
14, 218819, Note_on_c, 10, 74, 0
14, 218820, Note_on_c, 10, 73, 76
14, 218834, Note_on_c, 10, 73, 0
14, 218835, Note_on_c, 10, 74, 76
14, 218849, Note_on_c, 10, 74, 0
14, 218850, Note_on_c, 10, 71, 76
14, 218864, Note_on_c, 10, 71, 0
14, 218865, Note_on_c, 10, 73, 76
14, 218879, Note_on_c, 10, 73, 0
14, 218880, Note_on_c, 10, 74, 76
14, 218989, Note_on_c, 10, 74, 0
14, 219000, Note_on_c, 10, 74, 76
14, 219719, Note_on_c, 10, 74, 0
14, 224640, Note_on_c, 10, 81, 76
14, 224739, Note_on_c, 10, 81, 0
14, 224760, Note_on_c, 10, 81, 76
14, 224879, Note_on_c, 10, 81, 0
14, 224880, Note_on_c, 10, 83, 76
14, 224979, Note_on_c, 10, 83, 0
14, 225000, Note_on_c, 10, 79, 76
14, 225099, Note_on_c, 10, 79, 0
14, 225120, Note_on_c, 10, 79, 76
14, 225239, Note_on_c, 10, 79, 0
14, 225240, Note_on_c, 10, 81, 76
14, 225339, Note_on_c, 10, 81, 0
14, 225360, Note_on_c, 10, 78, 76
14, 225459, Note_on_c, 10, 78, 0
14, 225480, Note_on_c, 10, 78, 76
14, 225599, Note_on_c, 10, 78, 0
14, 225600, Note_on_c, 10, 79, 76
14, 225719, Note_on_c, 10, 79, 0
14, 225720, Note_on_c, 10, 81, 76
14, 225819, Note_on_c, 10, 81, 0
14, 225840, Note_on_c, 10, 83, 76
14, 225959, Note_on_c, 10, 83, 0
14, 225960, Note_on_c, 10, 84, 76
14, 226059, Note_on_c, 10, 84, 0
14, 226080, Note_on_c, 10, 81, 76
14, 226179, Note_on_c, 10, 81, 0
14, 226200, Note_on_c, 10, 81, 76
14, 226319, Note_on_c, 10, 81, 0
14, 226320, Note_on_c, 10, 83, 76
14, 226419, Note_on_c, 10, 83, 0
14, 226440, Note_on_c, 10, 79, 76
14, 226539, Note_on_c, 10, 79, 0
14, 226560, Note_on_c, 10, 79, 76
14, 226814, Note_on_c, 10, 79, 0
14, 226830, Note_on_c, 10, 79, 76
14, 226904, Note_on_c, 10, 79, 0
14, 226920, Note_on_c, 10, 79, 76
14, 227174, Note_on_c, 10, 79, 0
14, 227190, Note_on_c, 10, 79, 76
14, 227264, Note_on_c, 10, 79, 0
14, 227280, Note_on_c, 10, 79, 76
14, 227534, Note_on_c, 10, 79, 0
14, 227550, Note_on_c, 10, 79, 76
14, 227624, Note_on_c, 10, 79, 0
14, 227640, Note_on_c, 10, 79, 76
14, 227759, Note_on_c, 10, 79, 0
14, 227760, Note_on_c, 10, 76, 76
14, 227879, Note_on_c, 10, 76, 0
14, 227880, Note_on_c, 10, 78, 76
14, 227979, Note_on_c, 10, 78, 0
14, 228000, Note_on_c, 10, 79, 76
14, 228119, Note_on_c, 10, 79, 0
14, 228120, Note_on_c, 10, 88, 76
14, 228219, Note_on_c, 10, 88, 0
14, 228240, Note_on_c, 10, 78, 76
14, 228339, Note_on_c, 10, 78, 0
14, 228360, Note_on_c, 10, 79, 76
14, 228479, Note_on_c, 10, 79, 0
14, 228480, Note_on_c, 10, 78, 76
14, 228599, Note_on_c, 10, 78, 0
14, 228600, Note_on_c, 10, 76, 76
14, 228699, Note_on_c, 10, 76, 0
14, 228720, Note_on_c, 10, 78, 76
14, 228839, Note_on_c, 10, 78, 0
14, 228840, Note_on_c, 10, 74, 76
14, 228959, Note_on_c, 10, 74, 0
14, 228960, Note_on_c, 10, 76, 76
14, 229059, Note_on_c, 10, 76, 0
14, 229080, Note_on_c, 10, 78, 76
14, 229199, Note_on_c, 10, 78, 0
14, 229200, Note_on_c, 10, 79, 76
14, 229299, Note_on_c, 10, 79, 0
14, 229320, Note_on_c, 10, 76, 76
14, 229419, Note_on_c, 10, 76, 0
14, 229440, Note_on_c, 10, 76, 76
14, 229559, Note_on_c, 10, 76, 0
14, 229560, Note_on_c, 10, 78, 76
14, 229659, Note_on_c, 10, 78, 0
14, 229680, Note_on_c, 10, 74, 76
14, 229779, Note_on_c, 10, 74, 0
14, 229800, Note_on_c, 10, 74, 76
14, 230054, Note_on_c, 10, 74, 0
14, 230070, Note_on_c, 10, 74, 76
14, 230144, Note_on_c, 10, 74, 0
14, 230160, Note_on_c, 10, 74, 76
14, 230414, Note_on_c, 10, 74, 0
14, 230430, Note_on_c, 10, 74, 76
14, 230504, Note_on_c, 10, 74, 0
14, 230520, Note_on_c, 10, 74, 76
14, 230774, Note_on_c, 10, 74, 0
14, 230790, Note_on_c, 10, 74, 76
14, 230864, Note_on_c, 10, 74, 0
14, 230880, Note_on_c, 10, 74, 76
14, 230999, Note_on_c, 10, 74, 0
14, 231000, Note_on_c, 10, 71, 76
14, 231119, Note_on_c, 10, 71, 0
14, 231120, Note_on_c, 10, 73, 76
14, 231219, Note_on_c, 10, 73, 0
14, 231240, Note_on_c, 10, 74, 76
14, 231359, Note_on_c, 10, 74, 0
14, 231360, Note_on_c, 10, 83, 76
14, 231459, Note_on_c, 10, 83, 0
14, 231480, Note_on_c, 10, 73, 76
14, 231579, Note_on_c, 10, 73, 0
14, 231600, Note_on_c, 10, 74, 76
14, 231719, Note_on_c, 10, 74, 0
14, 231720, Note_on_c, 10, 73, 76
14, 231839, Note_on_c, 10, 73, 0
14, 231840, Note_on_c, 10, 71, 76
14, 231939, Note_on_c, 10, 71, 0
14, 231960, Note_on_c, 10, 73, 76
14, 232079, Note_on_c, 10, 73, 0
14, 232080, Note_on_c, 10, 69, 76
14, 232199, Note_on_c, 10, 69, 0
14, 232200, Note_on_c, 10, 71, 76
14, 232299, Note_on_c, 10, 71, 0
14, 232320, Note_on_c, 10, 72, 76
14, 232439, Note_on_c, 10, 72, 0
14, 232440, Note_on_c, 10, 81, 76
14, 232539, Note_on_c, 10, 81, 0
14, 232560, Note_on_c, 10, 71, 76
14, 232659, Note_on_c, 10, 71, 0
14, 232680, Note_on_c, 10, 72, 76
14, 232799, Note_on_c, 10, 72, 0
14, 232800, Note_on_c, 10, 71, 76
14, 232919, Note_on_c, 10, 71, 0
14, 232920, Note_on_c, 10, 69, 76
14, 233019, Note_on_c, 10, 69, 0
14, 233040, Note_on_c, 10, 71, 76
14, 233294, Note_on_c, 10, 71, 0
14, 233310, Note_on_c, 10, 83, 76
14, 233384, Note_on_c, 10, 83, 0
14, 233400, Note_on_c, 10, 83, 76
14, 233519, Note_on_c, 10, 83, 0
14, 233520, Note_on_c, 10, 84, 76
14, 233619, Note_on_c, 10, 84, 0
14, 233640, Note_on_c, 10, 81, 76
14, 233739, Note_on_c, 10, 81, 0
14, 233760, Note_on_c, 10, 81, 76
14, 233879, Note_on_c, 10, 81, 0
14, 233880, Note_on_c, 10, 83, 76
14, 233979, Note_on_c, 10, 83, 0
14, 234000, Note_on_c, 10, 79, 76
14, 234099, Note_on_c, 10, 79, 0
14, 234120, Note_on_c, 10, 79, 76
14, 234239, Note_on_c, 10, 79, 0
14, 234240, Note_on_c, 10, 76, 76
14, 234359, Note_on_c, 10, 76, 0
14, 234360, Note_on_c, 10, 78, 76
14, 234459, Note_on_c, 10, 78, 0
14, 234480, Note_on_c, 10, 80, 76
14, 234599, Note_on_c, 10, 80, 0
14, 234600, Note_on_c, 10, 81, 76
14, 234699, Note_on_c, 10, 81, 0
14, 234720, Note_on_c, 10, 83, 76
14, 234819, Note_on_c, 10, 83, 0
14, 234840, Note_on_c, 10, 76, 76
14, 235094, Note_on_c, 10, 76, 0
14, 235110, Note_on_c, 10, 80, 76
14, 235184, Note_on_c, 10, 80, 0
14, 235200, Note_on_c, 10, 69, 76
14, 235319, Note_on_c, 10, 69, 0
14, 235320, Note_on_c, 10, 73, 76
14, 235439, Note_on_c, 10, 73, 0
14, 235440, Note_on_c, 10, 76, 76
14, 235539, Note_on_c, 10, 76, 0
14, 235560, Note_on_c, 10, 81, 76
14, 235679, Note_on_c, 10, 81, 0
14, 235680, Note_on_c, 10, 83, 76
14, 235779, Note_on_c, 10, 83, 0
14, 235800, Note_on_c, 10, 79, 76
14, 235899, Note_on_c, 10, 79, 0
14, 235920, Note_on_c, 10, 79, 76
14, 236039, Note_on_c, 10, 79, 0
14, 236040, Note_on_c, 10, 81, 76
14, 236139, Note_on_c, 10, 81, 0
14, 236160, Note_on_c, 10, 78, 76
14, 236259, Note_on_c, 10, 78, 0
14, 236280, Note_on_c, 10, 78, 76
14, 236399, Note_on_c, 10, 78, 0
14, 236400, Note_on_c, 10, 74, 76
14, 236519, Note_on_c, 10, 74, 0
14, 236520, Note_on_c, 10, 76, 76
14, 236619, Note_on_c, 10, 76, 0
14, 236640, Note_on_c, 10, 78, 76
14, 236759, Note_on_c, 10, 78, 0
14, 236760, Note_on_c, 10, 79, 76
14, 236859, Note_on_c, 10, 79, 0
14, 236880, Note_on_c, 10, 81, 76
14, 236979, Note_on_c, 10, 81, 0
14, 237000, Note_on_c, 10, 74, 76
14, 237254, Note_on_c, 10, 74, 0
14, 237270, Note_on_c, 10, 78, 76
14, 237344, Note_on_c, 10, 78, 0
14, 237360, Note_on_c, 10, 67, 76
14, 237479, Note_on_c, 10, 67, 0
14, 237480, Note_on_c, 10, 71, 76
14, 237599, Note_on_c, 10, 71, 0
14, 237600, Note_on_c, 10, 74, 76
14, 237699, Note_on_c, 10, 74, 0
14, 237720, Note_on_c, 10, 79, 76
14, 237839, Note_on_c, 10, 79, 0
14, 237840, Note_on_c, 10, 81, 76
14, 237939, Note_on_c, 10, 81, 0
14, 237960, Note_on_c, 10, 78, 76
14, 238059, Note_on_c, 10, 78, 0
14, 238080, Note_on_c, 10, 78, 76
14, 238199, Note_on_c, 10, 78, 0
14, 238200, Note_on_c, 10, 79, 76
14, 238299, Note_on_c, 10, 79, 0
14, 238320, Note_on_c, 10, 76, 76
14, 238419, Note_on_c, 10, 76, 0
14, 238440, Note_on_c, 10, 76, 76
14, 238559, Note_on_c, 10, 76, 0
14, 238560, Note_on_c, 10, 78, 76
14, 238679, Note_on_c, 10, 78, 0
14, 238680, Note_on_c, 10, 79, 76
14, 238779, Note_on_c, 10, 79, 0
14, 238800, Note_on_c, 10, 81, 76
14, 238919, Note_on_c, 10, 81, 0
14, 238920, Note_on_c, 10, 83, 76
14, 239019, Note_on_c, 10, 83, 0
14, 239040, Note_on_c, 10, 79, 76
14, 239139, Note_on_c, 10, 79, 0
14, 239160, Note_on_c, 10, 79, 76
14, 239279, Note_on_c, 10, 79, 0
14, 239280, Note_on_c, 10, 81, 76
14, 239379, Note_on_c, 10, 81, 0
14, 239400, Note_on_c, 10, 78, 76
14, 239499, Note_on_c, 10, 78, 0
14, 239520, Note_on_c, 10, 78, 76
14, 239639, Note_on_c, 10, 78, 0
14, 239640, Note_on_c, 10, 79, 76
14, 239759, Note_on_c, 10, 79, 0
14, 239760, Note_on_c, 10, 81, 76
14, 239859, Note_on_c, 10, 81, 0
14, 239880, Note_on_c, 10, 83, 76
14, 239999, Note_on_c, 10, 83, 0
14, 240000, Note_on_c, 10, 84, 76
14, 240099, Note_on_c, 10, 84, 0
14, 240120, Note_on_c, 10, 81, 76
14, 240219, Note_on_c, 10, 81, 0
14, 240240, Note_on_c, 10, 81, 76
14, 240359, Note_on_c, 10, 81, 0
14, 240360, Note_on_c, 10, 83, 76
14, 240459, Note_on_c, 10, 83, 0
14, 240480, Note_on_c, 10, 79, 76
14, 240579, Note_on_c, 10, 79, 0
14, 240600, Note_on_c, 10, 79, 76
14, 240854, Note_on_c, 10, 79, 0
14, 240870, Note_on_c, 10, 79, 76
14, 240944, Note_on_c, 10, 79, 0
14, 240960, Note_on_c, 10, 79, 76
14, 241214, Note_on_c, 10, 79, 0
14, 241230, Note_on_c, 10, 79, 76
14, 241304, Note_on_c, 10, 79, 0
14, 241320, Note_on_c, 10, 79, 76
14, 241574, Note_on_c, 10, 79, 0
14, 241590, Note_on_c, 10, 79, 76
14, 241664, Note_on_c, 10, 79, 0
14, 241680, Note_on_c, 10, 79, 76
14, 241799, Note_on_c, 10, 79, 0
14, 241800, Note_on_c, 10, 76, 76
14, 241919, Note_on_c, 10, 76, 0
14, 241920, Note_on_c, 10, 78, 76
14, 242019, Note_on_c, 10, 78, 0
14, 242040, Note_on_c, 10, 79, 76
14, 242159, Note_on_c, 10, 79, 0
14, 242160, Note_on_c, 10, 88, 76
14, 242259, Note_on_c, 10, 88, 0
14, 242280, Note_on_c, 10, 78, 76
14, 242379, Note_on_c, 10, 78, 0
14, 242400, Note_on_c, 10, 79, 76
14, 242519, Note_on_c, 10, 79, 0
14, 242520, Note_on_c, 10, 78, 76
14, 242639, Note_on_c, 10, 78, 0
14, 242640, Note_on_c, 10, 76, 76
14, 242739, Note_on_c, 10, 76, 0
14, 242760, Note_on_c, 10, 78, 76
14, 242879, Note_on_c, 10, 78, 0
14, 242880, Note_on_c, 10, 81, 76
14, 242999, Note_on_c, 10, 81, 0
14, 243000, Note_on_c, 10, 79, 76
14, 243099, Note_on_c, 10, 79, 0
14, 243120, Note_on_c, 10, 81, 76
14, 243374, Note_on_c, 10, 81, 0
14, 243390, Note_on_c, 10, 74, 76
14, 243464, Note_on_c, 10, 74, 0
14, 243480, Note_on_c, 10, 69, 76
14, 243734, Note_on_c, 10, 69, 0
14, 243750, Note_on_c, 10, 73, 76
14, 243824, Note_on_c, 10, 73, 0
14, 243840, Note_on_c, 10, 74, 76
14, 244094, Note_on_c, 10, 74, 0
14, 244110, Note_on_c, 10, 69, 76
14, 244184, Note_on_c, 10, 69, 0
14, 244200, Note_on_c, 10, 69, 76
14, 244454, Note_on_c, 10, 69, 0
14, 244470, Note_on_c, 10, 69, 76
14, 244544, Note_on_c, 10, 69, 0
14, 244560, Note_on_c, 10, 69, 76
14, 244679, Note_on_c, 10, 69, 0
14, 245190, Note_on_c, 10, 57, 76
14, 245264, Note_on_c, 10, 57, 0
14, 245280, Note_on_c, 10, 57, 76
14, 245534, Note_on_c, 10, 57, 0
14, 245550, Note_on_c, 10, 57, 76
14, 245624, Note_on_c, 10, 57, 0
14, 245640, Note_on_c, 10, 57, 76
14, 245759, Note_on_c, 10, 57, 0
14, 266790, Note_on_c, 10, 64, 76
14, 266864, Note_on_c, 10, 64, 0
14, 266880, Note_on_c, 10, 64, 76
14, 267134, Note_on_c, 10, 64, 0
14, 267150, Note_on_c, 10, 64, 76
14, 267224, Note_on_c, 10, 64, 0
14, 267240, Note_on_c, 10, 64, 76
14, 267494, Note_on_c, 10, 64, 0
14, 267510, Note_on_c, 10, 64, 76
14, 267584, Note_on_c, 10, 64, 0
14, 267600, Note_on_c, 10, 64, 76
14, 267854, Note_on_c, 10, 64, 0
14, 267870, Note_on_c, 10, 64, 76
14, 267944, Note_on_c, 10, 64, 0
14, 267960, Note_on_c, 10, 64, 76
14, 268214, Note_on_c, 10, 64, 0
14, 268230, Note_on_c, 10, 64, 76
14, 268304, Note_on_c, 10, 64, 0
14, 268320, Note_on_c, 10, 64, 76
14, 268574, Note_on_c, 10, 64, 0
14, 268590, Note_on_c, 10, 64, 76
14, 268664, Note_on_c, 10, 64, 0
14, 268680, Note_on_c, 10, 64, 76
14, 268934, Note_on_c, 10, 64, 0
14, 268950, Note_on_c, 10, 76, 76
14, 269024, Note_on_c, 10, 76, 0
14, 269040, Note_on_c, 10, 76, 76
14, 269159, Note_on_c, 10, 76, 0
14, 269160, Note_on_c, 10, 78, 76
14, 269259, Note_on_c, 10, 78, 0
14, 269280, Note_on_c, 10, 74, 76
14, 269379, Note_on_c, 10, 74, 0
14, 269400, Note_on_c, 10, 74, 76
14, 269519, Note_on_c, 10, 74, 0
14, 269520, Note_on_c, 10, 76, 76
14, 269619, Note_on_c, 10, 76, 0
14, 269640, Note_on_c, 10, 73, 76
14, 269739, Note_on_c, 10, 73, 0
14, 269760, Note_on_c, 10, 73, 76
14, 269879, Note_on_c, 10, 73, 0
14, 269880, Note_on_c, 10, 74, 76
14, 269999, Note_on_c, 10, 74, 0
14, 270000, Note_on_c, 10, 76, 76
14, 270119, Note_on_c, 10, 76, 0
14, 270120, Note_on_c, 10, 78, 76
14, 270239, Note_on_c, 10, 78, 0
14, 270240, Note_on_c, 10, 79, 76
14, 270339, Note_on_c, 10, 79, 0
14, 270360, Note_on_c, 10, 76, 76
14, 270459, Note_on_c, 10, 76, 0
14, 270480, Note_on_c, 10, 76, 76
14, 270599, Note_on_c, 10, 76, 0
14, 270600, Note_on_c, 10, 78, 76
14, 270699, Note_on_c, 10, 78, 0
14, 270720, Note_on_c, 10, 74, 76
14, 270819, Note_on_c, 10, 74, 0
14, 270840, Note_on_c, 10, 74, 76
14, 271094, Note_on_c, 10, 74, 0
14, 271110, Note_on_c, 10, 74, 76
14, 271184, Note_on_c, 10, 74, 0
14, 271200, Note_on_c, 10, 74, 76
14, 271454, Note_on_c, 10, 74, 0
14, 271470, Note_on_c, 10, 74, 76
14, 271544, Note_on_c, 10, 74, 0
14, 271560, Note_on_c, 10, 74, 76
14, 271814, Note_on_c, 10, 74, 0
14, 271830, Note_on_c, 10, 74, 76
14, 271904, Note_on_c, 10, 74, 0
14, 271920, Note_on_c, 10, 74, 76
14, 272039, Note_on_c, 10, 74, 0
14, 272040, Note_on_c, 10, 71, 76
14, 272159, Note_on_c, 10, 71, 0
14, 272160, Note_on_c, 10, 73, 76
14, 272279, Note_on_c, 10, 73, 0
14, 272280, Note_on_c, 10, 74, 76
14, 272399, Note_on_c, 10, 74, 0
14, 272400, Note_on_c, 10, 83, 76
14, 272499, Note_on_c, 10, 83, 0
14, 272520, Note_on_c, 10, 73, 76
14, 272619, Note_on_c, 10, 73, 0
14, 272640, Note_on_c, 10, 74, 76
14, 272759, Note_on_c, 10, 74, 0
14, 272760, Note_on_c, 10, 73, 76
14, 272879, Note_on_c, 10, 73, 0
14, 272880, Note_on_c, 10, 71, 76
14, 272979, Note_on_c, 10, 71, 0
14, 273000, Note_on_c, 10, 73, 76
14, 273119, Note_on_c, 10, 73, 0
14, 273120, Note_on_c, 10, 76, 76
14, 273219, Note_on_c, 10, 76, 0
14, 273240, Note_on_c, 10, 74, 76
14, 273339, Note_on_c, 10, 74, 0
14, 273360, Note_on_c, 10, 76, 76
14, 274199, Note_on_c, 10, 76, 0
14, 274200, Note_on_c, 10, 78, 76
14, 274319, Note_on_c, 10, 78, 0
14, 274320, Note_on_c, 10, 76, 76
14, 274419, Note_on_c, 10, 76, 0
14, 274440, Note_on_c, 10, 74, 76
14, 274559, Note_on_c, 10, 74, 0
14, 274560, Note_on_c, 10, 76, 76
14, 274659, Note_on_c, 10, 76, 0
14, 274680, Note_on_c, 10, 73, 76
14, 274779, Note_on_c, 10, 73, 0
14, 274800, Note_on_c, 10, 73, 76
14, 274919, Note_on_c, 10, 73, 0
14, 274920, Note_on_c, 10, 74, 76
14, 275019, Note_on_c, 10, 74, 0
14, 275040, Note_on_c, 10, 71, 76
14, 275139, Note_on_c, 10, 71, 0
14, 275160, Note_on_c, 10, 71, 76
14, 276359, Note_on_c, 10, 71, 0
14, 276360, Note_on_c, 10, 73, 76
14, 276479, Note_on_c, 10, 73, 0
14, 276480, Note_on_c, 10, 74, 76
14, 276579, Note_on_c, 10, 74, 0
14, 276600, Note_on_c, 10, 76, 76
14, 276719, Note_on_c, 10, 76, 0
14, 276720, Note_on_c, 10, 73, 76
14, 276839, Note_on_c, 10, 73, 0
14, 276840, Note_on_c, 10, 69, 76
14, 276939, Note_on_c, 10, 69, 0
14, 276960, Note_on_c, 10, 81, 76
14, 278499, Note_on_c, 10, 81, 0
14, 278520, Note_on_c, 10, 80, 76
14, 278639, Note_on_c, 10, 80, 0
14, 278640, Note_on_c, 10, 81, 76
14, 278759, Note_on_c, 10, 81, 0
14, 278760, Note_on_c, 10, 83, 76
14, 278879, Note_on_c, 10, 83, 0
14, 278880, Note_on_c, 10, 85, 76
14, 278979, Note_on_c, 10, 85, 0
14, 279000, Note_on_c, 10, 81, 76
14, 279099, Note_on_c, 10, 81, 0
14, 279120, Note_on_c, 10, 81, 76
14, 279239, Note_on_c, 10, 81, 0
14, 279240, Note_on_c, 10, 83, 76
14, 279339, Note_on_c, 10, 83, 0
14, 279360, Note_on_c, 10, 80, 76
14, 279459, Note_on_c, 10, 80, 0
14, 279480, Note_on_c, 10, 80, 76
14, 279599, Note_on_c, 10, 80, 0
14, 279600, Note_on_c, 10, 76, 76
14, 279719, Note_on_c, 10, 76, 0
14, 279720, Note_on_c, 10, 78, 76
14, 279839, Note_on_c, 10, 78, 0
14, 279840, Note_on_c, 10, 80, 76
14, 279959, Note_on_c, 10, 80, 0
14, 279960, Note_on_c, 10, 81, 76
14, 280059, Note_on_c, 10, 81, 0
14, 280080, Note_on_c, 10, 83, 76
14, 280179, Note_on_c, 10, 83, 0
14, 280200, Note_on_c, 10, 76, 76
14, 280454, Note_on_c, 10, 76, 0
14, 280470, Note_on_c, 10, 80, 76
14, 280544, Note_on_c, 10, 80, 0
14, 280560, Note_on_c, 10, 69, 76
14, 280679, Note_on_c, 10, 69, 0
14, 280680, Note_on_c, 10, 73, 76
14, 280799, Note_on_c, 10, 73, 0
14, 280800, Note_on_c, 10, 76, 76
14, 280899, Note_on_c, 10, 76, 0
14, 280920, Note_on_c, 10, 81, 76
14, 281039, Note_on_c, 10, 81, 0
14, 281040, Note_on_c, 10, 83, 76
14, 281139, Note_on_c, 10, 83, 0
14, 281160, Note_on_c, 10, 79, 76
14, 281259, Note_on_c, 10, 79, 0
14, 281280, Note_on_c, 10, 79, 76
14, 281399, Note_on_c, 10, 79, 0
14, 281400, Note_on_c, 10, 81, 76
14, 281499, Note_on_c, 10, 81, 0
14, 281520, Note_on_c, 10, 78, 76
14, 281619, Note_on_c, 10, 78, 0
14, 281640, Note_on_c, 10, 78, 76
14, 281759, Note_on_c, 10, 78, 0
14, 281760, Note_on_c, 10, 74, 76
14, 281879, Note_on_c, 10, 74, 0
14, 281880, Note_on_c, 10, 78, 76
14, 281979, Note_on_c, 10, 78, 0
14, 282000, Note_on_c, 10, 83, 76
14, 282119, Note_on_c, 10, 83, 0
14, 282120, Note_on_c, 10, 85, 76
14, 282219, Note_on_c, 10, 85, 0
14, 282240, Note_on_c, 10, 81, 76
14, 282339, Note_on_c, 10, 81, 0
14, 282360, Note_on_c, 10, 81, 76
14, 282479, Note_on_c, 10, 81, 0
14, 282480, Note_on_c, 10, 83, 76
14, 282579, Note_on_c, 10, 83, 0
14, 282600, Note_on_c, 10, 80, 76
14, 282699, Note_on_c, 10, 80, 0
14, 282720, Note_on_c, 10, 80, 76
14, 282839, Note_on_c, 10, 80, 0
14, 282840, Note_on_c, 10, 81, 76
14, 282959, Note_on_c, 10, 81, 0
14, 282960, Note_on_c, 10, 83, 76
14, 283059, Note_on_c, 10, 83, 0
14, 283080, Note_on_c, 10, 85, 76
14, 283199, Note_on_c, 10, 85, 0
14, 283200, Note_on_c, 10, 86, 76
14, 283299, Note_on_c, 10, 86, 0
14, 283320, Note_on_c, 10, 83, 76
14, 283419, Note_on_c, 10, 83, 0
14, 283440, Note_on_c, 10, 83, 76
14, 283559, Note_on_c, 10, 83, 0
14, 283560, Note_on_c, 10, 85, 76
14, 283659, Note_on_c, 10, 85, 0
14, 283680, Note_on_c, 10, 81, 76
14, 283779, Note_on_c, 10, 81, 0
14, 283800, Note_on_c, 10, 81, 76
14, 284054, Note_on_c, 10, 81, 0
14, 284070, Note_on_c, 10, 81, 76
14, 284144, Note_on_c, 10, 81, 0
14, 284160, Note_on_c, 10, 81, 76
14, 284414, Note_on_c, 10, 81, 0
14, 284430, Note_on_c, 10, 81, 76
14, 284504, Note_on_c, 10, 81, 0
14, 284520, Note_on_c, 10, 81, 76
14, 284774, Note_on_c, 10, 81, 0
14, 284790, Note_on_c, 10, 81, 76
14, 284864, Note_on_c, 10, 81, 0
14, 284880, Note_on_c, 10, 81, 76
14, 284999, Note_on_c, 10, 81, 0
14, 285000, Note_on_c, 10, 83, 76
14, 285119, Note_on_c, 10, 83, 0
14, 285120, Note_on_c, 10, 81, 76
14, 285219, Note_on_c, 10, 81, 0
14, 285240, Note_on_c, 10, 80, 76
14, 285359, Note_on_c, 10, 80, 0
14, 285360, Note_on_c, 10, 81, 76
14, 285459, Note_on_c, 10, 81, 0
14, 285480, Note_on_c, 10, 78, 76
14, 285579, Note_on_c, 10, 78, 0
14, 285600, Note_on_c, 10, 78, 76
14, 285719, Note_on_c, 10, 78, 0
14, 285720, Note_on_c, 10, 80, 76
14, 285819, Note_on_c, 10, 80, 0
14, 285840, Note_on_c, 10, 76, 76
14, 285939, Note_on_c, 10, 76, 0
14, 285960, Note_on_c, 10, 76, 76
14, 286214, Note_on_c, 10, 76, 0
14, 286230, Note_on_c, 10, 76, 76
14, 286304, Note_on_c, 10, 76, 0
14, 286320, Note_on_c, 10, 76, 76
14, 286574, Note_on_c, 10, 76, 0
14, 286590, Note_on_c, 10, 76, 76
14, 286664, Note_on_c, 10, 76, 0
14, 286680, Note_on_c, 10, 76, 76
14, 286934, Note_on_c, 10, 76, 0
14, 286950, Note_on_c, 10, 76, 76
14, 287024, Note_on_c, 10, 76, 0
14, 287040, Note_on_c, 10, 76, 76
14, 287159, Note_on_c, 10, 76, 0
14, 287160, Note_on_c, 10, 81, 76
14, 287259, Note_on_c, 10, 81, 0
14, 287280, Note_on_c, 10, 80, 76
14, 287379, Note_on_c, 10, 80, 0
14, 287400, Note_on_c, 10, 81, 76
14, 287519, Note_on_c, 10, 81, 0
14, 287520, Note_on_c, 10, 76, 76
14, 287639, Note_on_c, 10, 76, 0
14, 287640, Note_on_c, 10, 78, 76
14, 287739, Note_on_c, 10, 78, 0
14, 287760, Note_on_c, 10, 73, 76
14, 287879, Note_on_c, 10, 73, 0
14, 287880, Note_on_c, 10, 71, 76
14, 287999, Note_on_c, 10, 71, 0
14, 288000, Note_on_c, 10, 69, 76
14, 288099, Note_on_c, 10, 69, 0
14, 288120, Note_on_c, 10, 69, 76
14, 288374, Note_on_c, 10, 69, 0
14, 288390, Note_on_c, 10, 69, 76
14, 288464, Note_on_c, 10, 69, 0
14, 288480, Note_on_c, 10, 69, 76
14, 288599, Note_on_c, 10, 69, 0
14, 288600, Note_on_c, 10, 73, 76
14, 288699, Note_on_c, 10, 73, 0
14, 288720, Note_on_c, 10, 71, 76
14, 288819, Note_on_c, 10, 71, 0
14, 288840, Note_on_c, 10, 71, 76
14, 288959, Note_on_c, 10, 71, 0
14, 288960, Note_on_c, 10, 74, 76
14, 289059, Note_on_c, 10, 74, 0
14, 289080, Note_on_c, 10, 73, 76
14, 289179, Note_on_c, 10, 73, 0
14, 289200, Note_on_c, 10, 73, 76
14, 289319, Note_on_c, 10, 73, 0
14, 290550, Note_on_c, 10, 76, 76
14, 290624, Note_on_c, 10, 76, 0
14, 290640, Note_on_c, 10, 76, 76
14, 290759, Note_on_c, 10, 76, 0
14, 290760, Note_on_c, 10, 79, 76
14, 290859, Note_on_c, 10, 79, 0
14, 290880, Note_on_c, 10, 78, 76
14, 290979, Note_on_c, 10, 78, 0
14, 291000, Note_on_c, 10, 78, 76
14, 291119, Note_on_c, 10, 78, 0
14, 291120, Note_on_c, 10, 81, 76
14, 291219, Note_on_c, 10, 81, 0
14, 291240, Note_on_c, 10, 79, 76
14, 291339, Note_on_c, 10, 79, 0
14, 291360, Note_on_c, 10, 79, 76
14, 291479, Note_on_c, 10, 79, 0
14, 291480, Note_on_c, 10, 83, 76
14, 291579, Note_on_c, 10, 83, 0
14, 291600, Note_on_c, 10, 81, 76
14, 291699, Note_on_c, 10, 81, 0
14, 291720, Note_on_c, 10, 81, 76
14, 291839, Note_on_c, 10, 81, 0
14, 291840, Note_on_c, 10, 83, 76
14, 291939, Note_on_c, 10, 83, 0
14, 291960, Note_on_c, 10, 79, 76
14, 292059, Note_on_c, 10, 79, 0
14, 292080, Note_on_c, 10, 79, 76
14, 292199, Note_on_c, 10, 79, 0
14, 292200, Note_on_c, 10, 81, 76
14, 292299, Note_on_c, 10, 81, 0
14, 292320, Note_on_c, 10, 78, 76
14, 292419, Note_on_c, 10, 78, 0
14, 292440, Note_on_c, 10, 78, 76
14, 292559, Note_on_c, 10, 78, 0
14, 293790, Note_on_c, 10, 78, 76
14, 293864, Note_on_c, 10, 78, 0
14, 293880, Note_on_c, 10, 78, 76
14, 293999, Note_on_c, 10, 78, 0
14, 294000, Note_on_c, 10, 81, 76
14, 294099, Note_on_c, 10, 81, 0
14, 294120, Note_on_c, 10, 79, 76
14, 294219, Note_on_c, 10, 79, 0
14, 294240, Note_on_c, 10, 79, 76
14, 294359, Note_on_c, 10, 79, 0
14, 294360, Note_on_c, 10, 83, 76
14, 294459, Note_on_c, 10, 83, 0
14, 294480, Note_on_c, 10, 81, 76
14, 294579, Note_on_c, 10, 81, 0
14, 294600, Note_on_c, 10, 81, 76
14, 294719, Note_on_c, 10, 81, 0
14, 295950, Note_on_c, 10, 74, 76
14, 296024, Note_on_c, 10, 74, 0
14, 296040, Note_on_c, 10, 74, 76
14, 296159, Note_on_c, 10, 74, 0
14, 296160, Note_on_c, 10, 76, 76
14, 296259, Note_on_c, 10, 76, 0
14, 296280, Note_on_c, 10, 72, 76
14, 296379, Note_on_c, 10, 72, 0
14, 296400, Note_on_c, 10, 72, 76
14, 296519, Note_on_c, 10, 72, 0
14, 296520, Note_on_c, 10, 74, 76
14, 296619, Note_on_c, 10, 74, 0
14, 296640, Note_on_c, 10, 71, 76
14, 296739, Note_on_c, 10, 71, 0
14, 296760, Note_on_c, 10, 71, 76
14, 296879, Note_on_c, 10, 71, 0
14, 296880, Note_on_c, 10, 67, 76
14, 296999, Note_on_c, 10, 67, 0
14, 297000, Note_on_c, 10, 69, 76
14, 297119, Note_on_c, 10, 69, 0
14, 297120, Note_on_c, 10, 71, 76
14, 297239, Note_on_c, 10, 71, 0
14, 297240, Note_on_c, 10, 73, 76
14, 297339, Note_on_c, 10, 73, 0
14, 297360, Note_on_c, 10, 74, 76
14, 297459, Note_on_c, 10, 74, 0
14, 297480, Note_on_c, 10, 74, 76
14, 297959, Note_on_c, 10, 74, 0
14, 297960, Note_on_c, 10, 73, 76
14, 298079, Note_on_c, 10, 73, 0
14, 298080, Note_on_c, 10, 71, 76
14, 298199, Note_on_c, 10, 71, 0
14, 298200, Note_on_c, 10, 73, 76
14, 298319, Note_on_c, 10, 73, 0
14, 298320, Note_on_c, 10, 74, 76
14, 298419, Note_on_c, 10, 74, 0
14, 298440, Note_on_c, 10, 76, 76
14, 298539, Note_on_c, 10, 76, 0
14, 298560, Note_on_c, 10, 76, 76
14, 299039, Note_on_c, 10, 76, 0
14, 299040, Note_on_c, 10, 74, 76
14, 299159, Note_on_c, 10, 74, 0
14, 299160, Note_on_c, 10, 73, 76
14, 299279, Note_on_c, 10, 73, 0
14, 299280, Note_on_c, 10, 74, 76
14, 299399, Note_on_c, 10, 74, 0
14, 299400, Note_on_c, 10, 76, 76
14, 299499, Note_on_c, 10, 76, 0
14, 299520, Note_on_c, 10, 78, 76
14, 299619, Note_on_c, 10, 78, 0
14, 299640, Note_on_c, 10, 78, 76
14, 300119, Note_on_c, 10, 78, 0
14, 300120, Note_on_c, 10, 76, 76
14, 300239, Note_on_c, 10, 76, 0
14, 300240, Note_on_c, 10, 74, 76
14, 300359, Note_on_c, 10, 74, 0
14, 300360, Note_on_c, 10, 76, 76
14, 300479, Note_on_c, 10, 76, 0
14, 300480, Note_on_c, 10, 78, 76
14, 300579, Note_on_c, 10, 78, 0
14, 300600, Note_on_c, 10, 79, 76
14, 300699, Note_on_c, 10, 79, 0
14, 300720, Note_on_c, 10, 79, 76
14, 301334, Note_on_c, 10, 79, 0
14, 301350, Note_on_c, 10, 66, 76
14, 301424, Note_on_c, 10, 66, 0
14, 301440, Note_on_c, 10, 66, 76
14, 301694, Note_on_c, 10, 66, 0
14, 301710, Note_on_c, 10, 66, 76
14, 301784, Note_on_c, 10, 66, 0
14, 301800, Note_on_c, 10, 66, 76
14, 302054, Note_on_c, 10, 66, 0
14, 302070, Note_on_c, 10, 66, 76
14, 302144, Note_on_c, 10, 66, 0
14, 302160, Note_on_c, 10, 66, 76
14, 302279, Note_on_c, 10, 66, 0
14, 302520, Note_on_c, 10, 71, 76
14, 302639, Note_on_c, 10, 71, 0
14, 302880, Note_on_c, 10, 74, 76
14, 302999, Note_on_c, 10, 74, 0
14, 303240, Note_on_c, 10, 74, 76
14, 303359, Note_on_c, 10, 74, 0
14, 303600, Note_on_c, 10, 73, 76
14, 303719, Note_on_c, 10, 73, 0
14, 303960, Note_on_c, 10, 74, 76
14, 304079, Note_on_c, 10, 74, 0
14, 304320, Note_on_c, 10, 76, 76
14, 304439, Note_on_c, 10, 76, 0
14, 304440, Note_on_c, 10, 74, 76
14, 304559, Note_on_c, 10, 74, 0
14, 304560, Note_on_c, 10, 73, 76
14, 304659, Note_on_c, 10, 73, 0
14, 304680, Note_on_c, 10, 78, 76
14, 304799, Note_on_c, 10, 78, 0
14, 304800, Note_on_c, 10, 79, 76
14, 304899, Note_on_c, 10, 79, 0
14, 304920, Note_on_c, 10, 76, 76
14, 305019, Note_on_c, 10, 76, 0
14, 305040, Note_on_c, 10, 76, 76
14, 305159, Note_on_c, 10, 76, 0
14, 305160, Note_on_c, 10, 78, 76
14, 305259, Note_on_c, 10, 78, 0
14, 305280, Note_on_c, 10, 74, 76
14, 305379, Note_on_c, 10, 74, 0
14, 305400, Note_on_c, 10, 74, 76
14, 305519, Note_on_c, 10, 74, 0
14, 305520, Note_on_c, 10, 71, 76
14, 305639, Note_on_c, 10, 71, 0
14, 305640, Note_on_c, 10, 73, 76
14, 305759, Note_on_c, 10, 73, 0
14, 305760, Note_on_c, 10, 74, 76
14, 305879, Note_on_c, 10, 74, 0
14, 305880, Note_on_c, 10, 76, 76
14, 305979, Note_on_c, 10, 76, 0
14, 306000, Note_on_c, 10, 72, 76
14, 306099, Note_on_c, 10, 72, 0
14, 306120, Note_on_c, 10, 72, 76
14, 306239, Note_on_c, 10, 72, 0
14, 306240, Note_on_c, 10, 74, 76
14, 306339, Note_on_c, 10, 74, 0
14, 306360, Note_on_c, 10, 71, 76
14, 306459, Note_on_c, 10, 71, 0
14, 306480, Note_on_c, 10, 71, 76
14, 306734, Note_on_c, 10, 71, 0
14, 306750, Note_on_c, 10, 71, 76
14, 306824, Note_on_c, 10, 71, 0
14, 306840, Note_on_c, 10, 76, 76
14, 307094, Note_on_c, 10, 76, 0
14, 307110, Note_on_c, 10, 75, 76
14, 307184, Note_on_c, 10, 75, 0
14, 307200, Note_on_c, 10, 76, 76
14, 307454, Note_on_c, 10, 76, 0
14, 307470, Note_on_c, 10, 78, 76
14, 307544, Note_on_c, 10, 78, 0
14, 307560, Note_on_c, 10, 79, 76
14, 307679, Note_on_c, 10, 79, 0
14, 307680, Note_on_c, 10, 81, 76
14, 307779, Note_on_c, 10, 81, 0
14, 307800, Note_on_c, 10, 78, 76
14, 307899, Note_on_c, 10, 78, 0
14, 307920, Note_on_c, 10, 76, 76
14, 308039, Note_on_c, 10, 76, 0
14, 308040, Note_on_c, 10, 78, 76
14, 308139, Note_on_c, 10, 78, 0
14, 308160, Note_on_c, 10, 74, 76
14, 308259, Note_on_c, 10, 74, 0
14, 308280, Note_on_c, 10, 73, 76
14, 308399, Note_on_c, 10, 73, 0
14, 308400, Note_on_c, 10, 74, 76
14, 308499, Note_on_c, 10, 74, 0
14, 308520, Note_on_c, 10, 71, 76
14, 308619, Note_on_c, 10, 71, 0
14, 308640, Note_on_c, 10, 76, 76
14, 308894, Note_on_c, 10, 76, 0
14, 308910, Note_on_c, 10, 73, 76
14, 308984, Note_on_c, 10, 73, 0
14, 309000, Note_on_c, 10, 66, 76
14, 309254, Note_on_c, 10, 66, 0
14, 309270, Note_on_c, 10, 76, 76
14, 309344, Note_on_c, 10, 76, 0
14, 309360, Note_on_c, 10, 74, 76
14, 309614, Note_on_c, 10, 74, 0
14, 309630, Note_on_c, 10, 79, 76
14, 309704, Note_on_c, 10, 79, 0
14, 309720, Note_on_c, 10, 78, 76
14, 309839, Note_on_c, 10, 78, 0
14, 309840, Note_on_c, 10, 76, 76
14, 309959, Note_on_c, 10, 76, 0
14, 309960, Note_on_c, 10, 74, 76
14, 310079, Note_on_c, 10, 74, 0
14, 310080, Note_on_c, 10, 73, 76
14, 310199, Note_on_c, 10, 73, 0
14, 310200, Note_on_c, 10, 74, 76
14, 310299, Note_on_c, 10, 74, 0
14, 310320, Note_on_c, 10, 71, 76
14, 310419, Note_on_c, 10, 71, 0
14, 310440, Note_on_c, 10, 66, 76
14, 310559, Note_on_c, 10, 66, 0
14, 310560, Note_on_c, 10, 71, 76
14, 310659, Note_on_c, 10, 71, 0
14, 310680, Note_on_c, 10, 70, 76
14, 310779, Note_on_c, 10, 70, 0
14, 310800, Note_on_c, 10, 71, 76
14, 311879, Note_on_c, 10, 71, 0
14, 311880, Note_on_c, 10, 71, 76
14, 313214, Note_on_c, 10, 71, 0
14, 313230, Note_on_c, 10, 74, 76
14, 313304, Note_on_c, 10, 74, 0
14, 313320, Note_on_c, 10, 78, 76
14, 314159, Note_on_c, 10, 78, 0
14, 314160, Note_on_c, 10, 76, 76
14, 314279, Note_on_c, 10, 76, 0
14, 314280, Note_on_c, 10, 75, 76
14, 314379, Note_on_c, 10, 75, 0
14, 314400, Note_on_c, 10, 76, 76
14, 314519, Note_on_c, 10, 76, 0
14, 314520, Note_on_c, 10, 78, 76
14, 314639, Note_on_c, 10, 78, 0
14, 314640, Note_on_c, 10, 79, 76
14, 314739, Note_on_c, 10, 79, 0
14, 314760, Note_on_c, 10, 79, 76
14, 315239, Note_on_c, 10, 79, 0
14, 315240, Note_on_c, 10, 81, 76
14, 315339, Note_on_c, 10, 81, 0
14, 315360, Note_on_c, 10, 78, 76
14, 315459, Note_on_c, 10, 78, 0
14, 315480, Note_on_c, 10, 78, 76
14, 315599, Note_on_c, 10, 78, 0
14, 315600, Note_on_c, 10, 79, 76
14, 315699, Note_on_c, 10, 79, 0
14, 315720, Note_on_c, 10, 76, 76
14, 315819, Note_on_c, 10, 76, 0
14, 315840, Note_on_c, 10, 76, 76
14, 315959, Note_on_c, 10, 76, 0
14, 315960, Note_on_c, 10, 78, 76
14, 316059, Note_on_c, 10, 78, 0
14, 316080, Note_on_c, 10, 75, 76
14, 316179, Note_on_c, 10, 75, 0
14, 316200, Note_on_c, 10, 75, 76
14, 316319, Note_on_c, 10, 75, 0
14, 316560, Note_on_c, 10, 78, 76
14, 316679, Note_on_c, 10, 78, 0
14, 316920, Note_on_c, 10, 83, 76
14, 317039, Note_on_c, 10, 83, 0
14, 317640, Note_on_c, 10, 71, 76
14, 317759, Note_on_c, 10, 71, 0
14, 318000, Note_on_c, 10, 76, 76
14, 318119, Note_on_c, 10, 76, 0
14, 318720, Note_on_c, 10, 81, 76
14, 318839, Note_on_c, 10, 81, 0
14, 319080, Note_on_c, 10, 74, 76
14, 319199, Note_on_c, 10, 74, 0
14, 319800, Note_on_c, 10, 79, 76
14, 319919, Note_on_c, 10, 79, 0
14, 320160, Note_on_c, 10, 72, 76
14, 320279, Note_on_c, 10, 72, 0
14, 320520, Note_on_c, 10, 81, 76
14, 320774, Note_on_c, 10, 81, 0
14, 320790, Note_on_c, 10, 74, 76
14, 320864, Note_on_c, 10, 74, 0
14, 320880, Note_on_c, 10, 74, 76
14, 320999, Note_on_c, 10, 74, 0
14, 321000, Note_on_c, 10, 76, 76
14, 321099, Note_on_c, 10, 76, 0
14, 321120, Note_on_c, 10, 72, 76
14, 321219, Note_on_c, 10, 72, 0
14, 321240, Note_on_c, 10, 72, 76
14, 321359, Note_on_c, 10, 72, 0
14, 321360, Note_on_c, 10, 74, 76
14, 321459, Note_on_c, 10, 74, 0
14, 321480, Note_on_c, 10, 71, 76
14, 321579, Note_on_c, 10, 71, 0
14, 321600, Note_on_c, 10, 71, 76
14, 321719, Note_on_c, 10, 71, 0
14, 321720, Note_on_c, 10, 72, 76
14, 321839, Note_on_c, 10, 72, 0
14, 321840, Note_on_c, 10, 74, 76
14, 321959, Note_on_c, 10, 74, 0
14, 321960, Note_on_c, 10, 76, 76
14, 322079, Note_on_c, 10, 76, 0
14, 322080, Note_on_c, 10, 78, 76
14, 322179, Note_on_c, 10, 78, 0
14, 322200, Note_on_c, 10, 74, 76
14, 322299, Note_on_c, 10, 74, 0
14, 322320, Note_on_c, 10, 74, 76
14, 322439, Note_on_c, 10, 74, 0
14, 322440, Note_on_c, 10, 76, 76
14, 322539, Note_on_c, 10, 76, 0
14, 322560, Note_on_c, 10, 72, 76
14, 322659, Note_on_c, 10, 72, 0
14, 322680, Note_on_c, 10, 72, 76
14, 322934, Note_on_c, 10, 72, 0
14, 322950, Note_on_c, 10, 72, 76
14, 323024, Note_on_c, 10, 72, 0
14, 323040, Note_on_c, 10, 72, 76
14, 323159, Note_on_c, 10, 72, 0
14, 323160, Note_on_c, 10, 74, 76
14, 323259, Note_on_c, 10, 74, 0
14, 323280, Note_on_c, 10, 71, 76
14, 323379, Note_on_c, 10, 71, 0
14, 323400, Note_on_c, 10, 71, 76
14, 323519, Note_on_c, 10, 71, 0
14, 323520, Note_on_c, 10, 72, 76
14, 323619, Note_on_c, 10, 72, 0
14, 323640, Note_on_c, 10, 69, 76
14, 323739, Note_on_c, 10, 69, 0
14, 323760, Note_on_c, 10, 69, 76
14, 323879, Note_on_c, 10, 69, 0
14, 323880, Note_on_c, 10, 71, 76
14, 323999, Note_on_c, 10, 71, 0
14, 324000, Note_on_c, 10, 72, 76
14, 324119, Note_on_c, 10, 72, 0
14, 324120, Note_on_c, 10, 74, 76
14, 324239, Note_on_c, 10, 74, 0
14, 324240, Note_on_c, 10, 76, 76
14, 324339, Note_on_c, 10, 76, 0
14, 324360, Note_on_c, 10, 72, 76
14, 324459, Note_on_c, 10, 72, 0
14, 324480, Note_on_c, 10, 72, 76
14, 324599, Note_on_c, 10, 72, 0
14, 324600, Note_on_c, 10, 74, 76
14, 324699, Note_on_c, 10, 74, 0
14, 324720, Note_on_c, 10, 71, 76
14, 324819, Note_on_c, 10, 71, 0
14, 324840, Note_on_c, 10, 71, 76
14, 324959, Note_on_c, 10, 71, 0
14, 324960, Note_on_c, 10, 67, 76
14, 325079, Note_on_c, 10, 67, 0
14, 325080, Note_on_c, 10, 69, 76
14, 325199, Note_on_c, 10, 69, 0
14, 325200, Note_on_c, 10, 71, 76
14, 325319, Note_on_c, 10, 71, 0
14, 325320, Note_on_c, 10, 72, 76
14, 325439, Note_on_c, 10, 72, 0
14, 325440, Note_on_c, 10, 69, 76
14, 325559, Note_on_c, 10, 69, 0
14, 325560, Note_on_c, 10, 69, 76
14, 325679, Note_on_c, 10, 69, 0
14, 325680, Note_on_c, 10, 71, 76
14, 325799, Note_on_c, 10, 71, 0
14, 325800, Note_on_c, 10, 67, 76
14, 325919, Note_on_c, 10, 67, 0
14, 325920, Note_on_c, 10, 67, 76
14, 326174, Note_on_c, 10, 67, 0
14, 326190, Note_on_c, 10, 67, 76
14, 326264, Note_on_c, 10, 67, 0
14, 326280, Note_on_c, 10, 72, 76
14, 326534, Note_on_c, 10, 72, 0
14, 326550, Note_on_c, 10, 71, 76
14, 326624, Note_on_c, 10, 71, 0
14, 326640, Note_on_c, 10, 72, 76
14, 326894, Note_on_c, 10, 72, 0
14, 326910, Note_on_c, 10, 74, 76
14, 326984, Note_on_c, 10, 74, 0
14, 327000, Note_on_c, 10, 76, 76
14, 327119, Note_on_c, 10, 76, 0
14, 327120, Note_on_c, 10, 77, 76
14, 327219, Note_on_c, 10, 77, 0
14, 327240, Note_on_c, 10, 74, 76
14, 327339, Note_on_c, 10, 74, 0
14, 327360, Note_on_c, 10, 72, 76
14, 327479, Note_on_c, 10, 72, 0
14, 327480, Note_on_c, 10, 74, 76
14, 327579, Note_on_c, 10, 74, 0
14, 327600, Note_on_c, 10, 71, 76
14, 327699, Note_on_c, 10, 71, 0
14, 327720, Note_on_c, 10, 69, 76
14, 327839, Note_on_c, 10, 69, 0
14, 327840, Note_on_c, 10, 71, 76
14, 327939, Note_on_c, 10, 71, 0
14, 327960, Note_on_c, 10, 67, 76
14, 328059, Note_on_c, 10, 67, 0
14, 328080, Note_on_c, 10, 74, 76
14, 328334, Note_on_c, 10, 74, 0
14, 328350, Note_on_c, 10, 69, 76
14, 328424, Note_on_c, 10, 69, 0
14, 328440, Note_on_c, 10, 62, 76
14, 328694, Note_on_c, 10, 62, 0
14, 328710, Note_on_c, 10, 72, 76
14, 328784, Note_on_c, 10, 72, 0
14, 328800, Note_on_c, 10, 71, 76
14, 329054, Note_on_c, 10, 71, 0
14, 329070, Note_on_c, 10, 76, 76
14, 329144, Note_on_c, 10, 76, 0
14, 329160, Note_on_c, 10, 74, 76
14, 329279, Note_on_c, 10, 74, 0
14, 329280, Note_on_c, 10, 76, 76
14, 329399, Note_on_c, 10, 76, 0
14, 329400, Note_on_c, 10, 78, 76
14, 329519, Note_on_c, 10, 78, 0
14, 329520, Note_on_c, 10, 79, 76
14, 329639, Note_on_c, 10, 79, 0
14, 329640, Note_on_c, 10, 81, 76
14, 329739, Note_on_c, 10, 81, 0
14, 329760, Note_on_c, 10, 78, 76
14, 329859, Note_on_c, 10, 78, 0
14, 329880, Note_on_c, 10, 78, 76
14, 330134, Note_on_c, 10, 78, 0
14, 330150, Note_on_c, 10, 79, 76
14, 330224, Note_on_c, 10, 79, 0
14, 330240, Note_on_c, 10, 79, 76
14, 330494, Note_on_c, 10, 79, 0
14, 330510, Note_on_c, 10, 62, 76
14, 330584, Note_on_c, 10, 62, 0
14, 330600, Note_on_c, 10, 62, 76
14, 330854, Note_on_c, 10, 62, 0
14, 330870, Note_on_c, 10, 62, 76
14, 330944, Note_on_c, 10, 62, 0
14, 330960, Note_on_c, 10, 62, 76
14, 331214, Note_on_c, 10, 62, 0
14, 331230, Note_on_c, 10, 62, 76
14, 331304, Note_on_c, 10, 62, 0
14, 331320, Note_on_c, 10, 62, 76
14, 331574, Note_on_c, 10, 62, 0
14, 331590, Note_on_c, 10, 62, 76
14, 331664, Note_on_c, 10, 62, 0
14, 331680, Note_on_c, 10, 62, 76
14, 331934, Note_on_c, 10, 62, 0
14, 331950, Note_on_c, 10, 62, 76
14, 332024, Note_on_c, 10, 62, 0
14, 332040, Note_on_c, 10, 62, 76
14, 332294, Note_on_c, 10, 62, 0
14, 332310, Note_on_c, 10, 62, 76
14, 332384, Note_on_c, 10, 62, 0
14, 332400, Note_on_c, 10, 62, 76
14, 332519, Note_on_c, 10, 62, 0
14, 332520, Note_on_c, 10, 66, 76
14, 332639, Note_on_c, 10, 66, 0
14, 332640, Note_on_c, 10, 67, 76
14, 332739, Note_on_c, 10, 67, 0
14, 332760, Note_on_c, 10, 67, 76
14, 332879, Note_on_c, 10, 67, 0
14, 332880, Note_on_c, 10, 69, 76
14, 332979, Note_on_c, 10, 69, 0
14, 333000, Note_on_c, 10, 65, 76
14, 333099, Note_on_c, 10, 65, 0
14, 333120, Note_on_c, 10, 65, 76
14, 333239, Note_on_c, 10, 65, 0
14, 333240, Note_on_c, 10, 67, 76
14, 333339, Note_on_c, 10, 67, 0
14, 333360, Note_on_c, 10, 64, 76
14, 333459, Note_on_c, 10, 64, 0
14, 333480, Note_on_c, 10, 64, 76
14, 333599, Note_on_c, 10, 64, 0
14, 333600, Note_on_c, 10, 67, 76
14, 333719, Note_on_c, 10, 67, 0
14, 333720, Note_on_c, 10, 69, 76
14, 333819, Note_on_c, 10, 69, 0
14, 333840, Note_on_c, 10, 69, 76
14, 333959, Note_on_c, 10, 69, 0
14, 333960, Note_on_c, 10, 71, 76
14, 334059, Note_on_c, 10, 71, 0
14, 334080, Note_on_c, 10, 67, 76
14, 334179, Note_on_c, 10, 67, 0
14, 334200, Note_on_c, 10, 67, 76
14, 334319, Note_on_c, 10, 67, 0
14, 334320, Note_on_c, 10, 69, 76
14, 334419, Note_on_c, 10, 69, 0
14, 334440, Note_on_c, 10, 66, 76
14, 334539, Note_on_c, 10, 66, 0
14, 334560, Note_on_c, 10, 66, 76
14, 334679, Note_on_c, 10, 66, 0
14, 334680, Note_on_c, 10, 69, 76
14, 334799, Note_on_c, 10, 69, 0
14, 334800, Note_on_c, 10, 71, 76
14, 334899, Note_on_c, 10, 71, 0
14, 334920, Note_on_c, 10, 71, 76
14, 335039, Note_on_c, 10, 71, 0
14, 335040, Note_on_c, 10, 72, 76
14, 335139, Note_on_c, 10, 72, 0
14, 335160, Note_on_c, 10, 69, 76
14, 335259, Note_on_c, 10, 69, 0
14, 335280, Note_on_c, 10, 69, 76
14, 335399, Note_on_c, 10, 69, 0
14, 335400, Note_on_c, 10, 71, 76
14, 335499, Note_on_c, 10, 71, 0
14, 335520, Note_on_c, 10, 67, 76
14, 335619, Note_on_c, 10, 67, 0
14, 335640, Note_on_c, 10, 67, 76
14, 335759, Note_on_c, 10, 67, 0
14, 335760, Note_on_c, 10, 69, 76
14, 335879, Note_on_c, 10, 69, 0
14, 335880, Note_on_c, 10, 71, 76
14, 335979, Note_on_c, 10, 71, 0
14, 336000, Note_on_c, 10, 71, 76
14, 337059, Note_on_c, 10, 71, 0
14, 337080, Note_on_c, 10, 69, 76
14, 337419, Note_on_c, 10, 69, 0
14, 337440, Note_on_c, 10, 72, 76
14, 337899, Note_on_c, 10, 72, 0
14, 337920, Note_on_c, 10, 66, 76
14, 338039, Note_on_c, 10, 66, 0
14, 338040, Note_on_c, 10, 67, 76
14, 338159, Note_on_c, 10, 67, 0
14, 338160, Note_on_c, 10, 69, 76
14, 338279, Note_on_c, 10, 69, 0
14, 338280, Note_on_c, 10, 78, 76
14, 338379, Note_on_c, 10, 78, 0
14, 338400, Note_on_c, 10, 67, 76
14, 338499, Note_on_c, 10, 67, 0
14, 338520, Note_on_c, 10, 69, 76
14, 338639, Note_on_c, 10, 69, 0
14, 338640, Note_on_c, 10, 67, 76
14, 338759, Note_on_c, 10, 67, 0
14, 338760, Note_on_c, 10, 66, 76
14, 338859, Note_on_c, 10, 66, 0
14, 338880, Note_on_c, 10, 68, 76
14, 339219, Note_on_c, 10, 68, 0
14, 339240, Note_on_c, 10, 71, 76
14, 339579, Note_on_c, 10, 71, 0
14, 339600, Note_on_c, 10, 76, 76
14, 340059, Note_on_c, 10, 76, 0
14, 340080, Note_on_c, 10, 64, 76
14, 340199, Note_on_c, 10, 64, 0
14, 340200, Note_on_c, 10, 66, 76
14, 340319, Note_on_c, 10, 66, 0
14, 340320, Note_on_c, 10, 67, 76
14, 340439, Note_on_c, 10, 67, 0
14, 340440, Note_on_c, 10, 76, 76
14, 340539, Note_on_c, 10, 76, 0
14, 340560, Note_on_c, 10, 66, 76
14, 340659, Note_on_c, 10, 66, 0
14, 340680, Note_on_c, 10, 67, 76
14, 340799, Note_on_c, 10, 67, 0
14, 340800, Note_on_c, 10, 66, 76
14, 340919, Note_on_c, 10, 66, 0
14, 340920, Note_on_c, 10, 64, 76
14, 341019, Note_on_c, 10, 64, 0
14, 341040, Note_on_c, 10, 66, 76
14, 341379, Note_on_c, 10, 66, 0
14, 341400, Note_on_c, 10, 69, 76
14, 341739, Note_on_c, 10, 69, 0
14, 341760, Note_on_c, 10, 74, 76
14, 342219, Note_on_c, 10, 74, 0
14, 342240, Note_on_c, 10, 66, 76
14, 342359, Note_on_c, 10, 66, 0
14, 342360, Note_on_c, 10, 67, 76
14, 342479, Note_on_c, 10, 67, 0
14, 342480, Note_on_c, 10, 69, 76
14, 342599, Note_on_c, 10, 69, 0
14, 342600, Note_on_c, 10, 66, 76
14, 342699, Note_on_c, 10, 66, 0
14, 342720, Note_on_c, 10, 67, 76
14, 342819, Note_on_c, 10, 67, 0
14, 342840, Note_on_c, 10, 62, 76
14, 342959, Note_on_c, 10, 62, 0
14, 342960, Note_on_c, 10, 66, 76
14, 343059, Note_on_c, 10, 66, 0
14, 343080, Note_on_c, 10, 67, 76
14, 343179, Note_on_c, 10, 67, 0
14, 343200, Note_on_c, 10, 76, 76
14, 343319, Note_on_c, 10, 76, 0
14, 343320, Note_on_c, 10, 66, 76
14, 343439, Note_on_c, 10, 66, 0
14, 343440, Note_on_c, 10, 67, 76
14, 343559, Note_on_c, 10, 67, 0
14, 343560, Note_on_c, 10, 69, 76
14, 343679, Note_on_c, 10, 69, 0
14, 343680, Note_on_c, 10, 66, 76
14, 343779, Note_on_c, 10, 66, 0
14, 343800, Note_on_c, 10, 67, 76
14, 343899, Note_on_c, 10, 67, 0
14, 343920, Note_on_c, 10, 64, 76
14, 344039, Note_on_c, 10, 64, 0
14, 344040, Note_on_c, 10, 66, 76
14, 344139, Note_on_c, 10, 66, 0
14, 344160, Note_on_c, 10, 67, 76
14, 344259, Note_on_c, 10, 67, 0
14, 344280, Note_on_c, 10, 70, 76
14, 344399, Note_on_c, 10, 70, 0
14, 344400, Note_on_c, 10, 69, 76
14, 344499, Note_on_c, 10, 69, 0
14, 344520, Note_on_c, 10, 67, 76
14, 344619, Note_on_c, 10, 67, 0
14, 344640, Note_on_c, 10, 67, 76
14, 344759, Note_on_c, 10, 67, 0
14, 344760, Note_on_c, 10, 65, 76
14, 344859, Note_on_c, 10, 65, 0
14, 344880, Note_on_c, 10, 64, 76
14, 344979, Note_on_c, 10, 64, 0
14, 345000, Note_on_c, 10, 64, 76
14, 345119, Note_on_c, 10, 64, 0
14, 345120, Note_on_c, 10, 65, 76
14, 345219, Note_on_c, 10, 65, 0
14, 345240, Note_on_c, 10, 67, 76
14, 345339, Note_on_c, 10, 67, 0
14, 345360, Note_on_c, 10, 65, 76
14, 345479, Note_on_c, 10, 65, 0
14, 345480, Note_on_c, 10, 62, 76
14, 345599, Note_on_c, 10, 62, 0
14, 345600, Note_on_c, 10, 64, 76
14, 345719, Note_on_c, 10, 64, 0
14, 345720, Note_on_c, 10, 65, 76
14, 345839, Note_on_c, 10, 65, 0
14, 345840, Note_on_c, 10, 67, 76
14, 345939, Note_on_c, 10, 67, 0
14, 345960, Note_on_c, 10, 64, 76
14, 346059, Note_on_c, 10, 64, 0
14, 346080, Note_on_c, 10, 65, 76
14, 346199, Note_on_c, 10, 65, 0
14, 346200, Note_on_c, 10, 64, 76
14, 346299, Note_on_c, 10, 64, 0
14, 346320, Note_on_c, 10, 62, 76
14, 346419, Note_on_c, 10, 62, 0
14, 346440, Note_on_c, 10, 61, 76
14, 346559, Note_on_c, 10, 61, 0
14, 346560, Note_on_c, 10, 64, 76
14, 346679, Note_on_c, 10, 64, 0
14, 346680, Note_on_c, 10, 69, 76
14, 346799, Note_on_c, 10, 69, 0
14, 346800, Note_on_c, 10, 73, 76
14, 346919, Note_on_c, 10, 73, 0
14, 346920, Note_on_c, 10, 74, 76
14, 347019, Note_on_c, 10, 74, 0
14, 347040, Note_on_c, 10, 76, 76
14, 347139, Note_on_c, 10, 76, 0
14, 347160, Note_on_c, 10, 69, 76
14, 347279, Note_on_c, 10, 69, 0
14, 347280, Note_on_c, 10, 74, 76
14, 347379, Note_on_c, 10, 74, 0
14, 347400, Note_on_c, 10, 73, 76
14, 347499, Note_on_c, 10, 73, 0
14, 347520, Note_on_c, 10, 74, 76
14, 348599, Note_on_c, 10, 74, 0
14, 348600, Note_on_c, 10, 74, 76
14, 349779, Note_on_c, 10, 74, 0
14, 349800, Note_on_c, 10, 71, 76
14, 349919, Note_on_c, 10, 71, 0
14, 349920, Note_on_c, 10, 73, 76
14, 350039, Note_on_c, 10, 73, 0
14, 350040, Note_on_c, 10, 74, 76
14, 350159, Note_on_c, 10, 74, 0
14, 350160, Note_on_c, 10, 76, 76
14, 350259, Note_on_c, 10, 76, 0
14, 350280, Note_on_c, 10, 73, 76
14, 350379, Note_on_c, 10, 73, 0
14, 350400, Note_on_c, 10, 74, 76
14, 350519, Note_on_c, 10, 74, 0
14, 350520, Note_on_c, 10, 73, 76
14, 350639, Note_on_c, 10, 73, 0
14, 350640, Note_on_c, 10, 71, 76
14, 350739, Note_on_c, 10, 71, 0
14, 350760, Note_on_c, 10, 73, 76
14, 350879, Note_on_c, 10, 73, 0
14, 350880, Note_on_c, 10, 74, 76
14, 350999, Note_on_c, 10, 74, 0
14, 351000, Note_on_c, 10, 76, 76
14, 351119, Note_on_c, 10, 76, 0
14, 351120, Note_on_c, 10, 78, 76
14, 351239, Note_on_c, 10, 78, 0
14, 351240, Note_on_c, 10, 79, 76
14, 351339, Note_on_c, 10, 79, 0
14, 351360, Note_on_c, 10, 76, 76
14, 351459, Note_on_c, 10, 76, 0
14, 351480, Note_on_c, 10, 76, 76
14, 351599, Note_on_c, 10, 76, 0
14, 351600, Note_on_c, 10, 78, 76
14, 351699, Note_on_c, 10, 78, 0
14, 351720, Note_on_c, 10, 74, 76
14, 351819, Note_on_c, 10, 74, 0
14, 351840, Note_on_c, 10, 74, 76
14, 352299, Note_on_c, 10, 74, 0
14, 352320, Note_on_c, 10, 67, 76
14, 352439, Note_on_c, 10, 67, 0
14, 352440, Note_on_c, 10, 66, 76
14, 352539, Note_on_c, 10, 66, 0
14, 352560, Note_on_c, 10, 64, 76
14, 352679, Note_on_c, 10, 64, 0
14, 352680, Note_on_c, 10, 74, 76
14, 352779, Note_on_c, 10, 74, 0
14, 352800, Note_on_c, 10, 73, 76
14, 352899, Note_on_c, 10, 73, 0
14, 352920, Note_on_c, 10, 74, 76
14, 353039, Note_on_c, 10, 74, 0
14, 353040, Note_on_c, 10, 78, 76
14, 353159, Note_on_c, 10, 78, 0
14, 353160, Note_on_c, 10, 81, 76
14, 353259, Note_on_c, 10, 81, 0
14, 353280, Note_on_c, 10, 81, 76
14, 353399, Note_on_c, 10, 81, 0
14, 353400, Note_on_c, 10, 83, 76
14, 353499, Note_on_c, 10, 83, 0
14, 353520, Note_on_c, 10, 79, 76
14, 353619, Note_on_c, 10, 79, 0
14, 353640, Note_on_c, 10, 79, 76
14, 353759, Note_on_c, 10, 79, 0
14, 353760, Note_on_c, 10, 81, 76
14, 353859, Note_on_c, 10, 81, 0
14, 353880, Note_on_c, 10, 78, 76
14, 353979, Note_on_c, 10, 78, 0
14, 354000, Note_on_c, 10, 78, 76
14, 354119, Note_on_c, 10, 78, 0
14, 354120, Note_on_c, 10, 79, 76
14, 354239, Note_on_c, 10, 79, 0
14, 354240, Note_on_c, 10, 81, 76
14, 354359, Note_on_c, 10, 81, 0
14, 354360, Note_on_c, 10, 83, 76
14, 354479, Note_on_c, 10, 83, 0
14, 354480, Note_on_c, 10, 84, 76
14, 354579, Note_on_c, 10, 84, 0
14, 354600, Note_on_c, 10, 81, 76
14, 354699, Note_on_c, 10, 81, 0
14, 354720, Note_on_c, 10, 81, 76
14, 354839, Note_on_c, 10, 81, 0
14, 354840, Note_on_c, 10, 83, 76
14, 354939, Note_on_c, 10, 83, 0
14, 354960, Note_on_c, 10, 79, 76
14, 355059, Note_on_c, 10, 79, 0
14, 355080, Note_on_c, 10, 79, 76
14, 355334, Note_on_c, 10, 79, 0
14, 355350, Note_on_c, 10, 79, 76
14, 355424, Note_on_c, 10, 79, 0
14, 355440, Note_on_c, 10, 79, 76
14, 355694, Note_on_c, 10, 79, 0
14, 355710, Note_on_c, 10, 79, 76
14, 355784, Note_on_c, 10, 79, 0
14, 355800, Note_on_c, 10, 79, 76
14, 356054, Note_on_c, 10, 79, 0
14, 356070, Note_on_c, 10, 79, 76
14, 356144, Note_on_c, 10, 79, 0
14, 356160, Note_on_c, 10, 79, 76
14, 356279, Note_on_c, 10, 79, 0
14, 356280, Note_on_c, 10, 76, 76
14, 356399, Note_on_c, 10, 76, 0
14, 356400, Note_on_c, 10, 78, 76
14, 356519, Note_on_c, 10, 78, 0
14, 356520, Note_on_c, 10, 79, 76
14, 356639, Note_on_c, 10, 79, 0
14, 356640, Note_on_c, 10, 81, 76
14, 356739, Note_on_c, 10, 81, 0
14, 356760, Note_on_c, 10, 78, 76
14, 356859, Note_on_c, 10, 78, 0
14, 356880, Note_on_c, 10, 79, 76
14, 356999, Note_on_c, 10, 79, 0
14, 357000, Note_on_c, 10, 78, 76
14, 357119, Note_on_c, 10, 78, 0
14, 357120, Note_on_c, 10, 76, 76
14, 357219, Note_on_c, 10, 76, 0
14, 357240, Note_on_c, 10, 78, 76
14, 357359, Note_on_c, 10, 78, 0
14, 357360, Note_on_c, 10, 74, 76
14, 357479, Note_on_c, 10, 74, 0
14, 357480, Note_on_c, 10, 76, 76
14, 357579, Note_on_c, 10, 76, 0
14, 357600, Note_on_c, 10, 78, 76
14, 357719, Note_on_c, 10, 78, 0
14, 357720, Note_on_c, 10, 79, 76
14, 357819, Note_on_c, 10, 79, 0
14, 357840, Note_on_c, 10, 76, 76
14, 357939, Note_on_c, 10, 76, 0
14, 357960, Note_on_c, 10, 76, 76
14, 358079, Note_on_c, 10, 76, 0
14, 358080, Note_on_c, 10, 78, 76
14, 358179, Note_on_c, 10, 78, 0
14, 358200, Note_on_c, 10, 74, 76
14, 358299, Note_on_c, 10, 74, 0
14, 358320, Note_on_c, 10, 74, 76
14, 358574, Note_on_c, 10, 74, 0
14, 358590, Note_on_c, 10, 74, 76
14, 358664, Note_on_c, 10, 74, 0
14, 358680, Note_on_c, 10, 74, 76
14, 358934, Note_on_c, 10, 74, 0
14, 358950, Note_on_c, 10, 74, 76
14, 359024, Note_on_c, 10, 74, 0
14, 359040, Note_on_c, 10, 74, 76
14, 359294, Note_on_c, 10, 74, 0
14, 359310, Note_on_c, 10, 74, 76
14, 359384, Note_on_c, 10, 74, 0
14, 359400, Note_on_c, 10, 74, 76
14, 359519, Note_on_c, 10, 74, 0
14, 359520, Note_on_c, 10, 71, 76
14, 359639, Note_on_c, 10, 71, 0
14, 359640, Note_on_c, 10, 73, 76
14, 359759, Note_on_c, 10, 73, 0
14, 359760, Note_on_c, 10, 74, 76
14, 359879, Note_on_c, 10, 74, 0
14, 359880, Note_on_c, 10, 83, 76
14, 359979, Note_on_c, 10, 83, 0
14, 360000, Note_on_c, 10, 73, 76
14, 360099, Note_on_c, 10, 73, 0
14, 360120, Note_on_c, 10, 74, 76
14, 360239, Note_on_c, 10, 74, 0
14, 360240, Note_on_c, 10, 73, 76
14, 360359, Note_on_c, 10, 73, 0
14, 360360, Note_on_c, 10, 71, 76
14, 360459, Note_on_c, 10, 71, 0
14, 360480, Note_on_c, 10, 73, 76
14, 360599, Note_on_c, 10, 73, 0
14, 360600, Note_on_c, 10, 69, 76
14, 360719, Note_on_c, 10, 69, 0
14, 360720, Note_on_c, 10, 71, 76
14, 360839, Note_on_c, 10, 71, 0
14, 360840, Note_on_c, 10, 72, 76
14, 360959, Note_on_c, 10, 72, 0
14, 360960, Note_on_c, 10, 81, 76
14, 361059, Note_on_c, 10, 81, 0
14, 361080, Note_on_c, 10, 71, 76
14, 361179, Note_on_c, 10, 71, 0
14, 361200, Note_on_c, 10, 72, 76
14, 361319, Note_on_c, 10, 72, 0
14, 361320, Note_on_c, 10, 71, 76
14, 361439, Note_on_c, 10, 71, 0
14, 361440, Note_on_c, 10, 69, 76
14, 361539, Note_on_c, 10, 69, 0
14, 361560, Note_on_c, 10, 71, 76
14, 361814, Note_on_c, 10, 71, 0
14, 361830, Note_on_c, 10, 83, 76
14, 361904, Note_on_c, 10, 83, 0
14, 361920, Note_on_c, 10, 83, 76
14, 362039, Note_on_c, 10, 83, 0
14, 362040, Note_on_c, 10, 84, 76
14, 362139, Note_on_c, 10, 84, 0
14, 362160, Note_on_c, 10, 81, 76
14, 362259, Note_on_c, 10, 81, 0
14, 362280, Note_on_c, 10, 81, 76
14, 362399, Note_on_c, 10, 81, 0
14, 362400, Note_on_c, 10, 83, 76
14, 362499, Note_on_c, 10, 83, 0
14, 362520, Note_on_c, 10, 79, 76
14, 362619, Note_on_c, 10, 79, 0
14, 362640, Note_on_c, 10, 79, 76
14, 362739, Note_on_c, 10, 79, 0
14, 362760, Note_on_c, 10, 76, 76
14, 362879, Note_on_c, 10, 76, 0
14, 362880, Note_on_c, 10, 78, 76
14, 362999, Note_on_c, 10, 78, 0
14, 363000, Note_on_c, 10, 80, 76
14, 363119, Note_on_c, 10, 80, 0
14, 363120, Note_on_c, 10, 81, 76
14, 363219, Note_on_c, 10, 81, 0
14, 363240, Note_on_c, 10, 83, 76
14, 363339, Note_on_c, 10, 83, 0
14, 363360, Note_on_c, 10, 76, 76
14, 363614, Note_on_c, 10, 76, 0
14, 363630, Note_on_c, 10, 80, 76
14, 363704, Note_on_c, 10, 80, 0
14, 363720, Note_on_c, 10, 69, 76
14, 363839, Note_on_c, 10, 69, 0
14, 363840, Note_on_c, 10, 73, 76
14, 363959, Note_on_c, 10, 73, 0
14, 363960, Note_on_c, 10, 76, 76
14, 364059, Note_on_c, 10, 76, 0
14, 364080, Note_on_c, 10, 81, 76
14, 364199, Note_on_c, 10, 81, 0
14, 364200, Note_on_c, 10, 83, 76
14, 364299, Note_on_c, 10, 83, 0
14, 364320, Note_on_c, 10, 79, 76
14, 364419, Note_on_c, 10, 79, 0
14, 364440, Note_on_c, 10, 79, 76
14, 364559, Note_on_c, 10, 79, 0
14, 364560, Note_on_c, 10, 81, 76
14, 364659, Note_on_c, 10, 81, 0
14, 364680, Note_on_c, 10, 78, 76
14, 364779, Note_on_c, 10, 78, 0
14, 364800, Note_on_c, 10, 78, 76
14, 364919, Note_on_c, 10, 78, 0
14, 364920, Note_on_c, 10, 74, 76
14, 365039, Note_on_c, 10, 74, 0
14, 365040, Note_on_c, 10, 76, 76
14, 365159, Note_on_c, 10, 76, 0
14, 365160, Note_on_c, 10, 78, 76
14, 365279, Note_on_c, 10, 78, 0
14, 365280, Note_on_c, 10, 79, 76
14, 365379, Note_on_c, 10, 79, 0
14, 365400, Note_on_c, 10, 81, 76
14, 365499, Note_on_c, 10, 81, 0
14, 365520, Note_on_c, 10, 74, 76
14, 365774, Note_on_c, 10, 74, 0
14, 365790, Note_on_c, 10, 78, 76
14, 365864, Note_on_c, 10, 78, 0
14, 365880, Note_on_c, 10, 67, 76
14, 365999, Note_on_c, 10, 67, 0
14, 366000, Note_on_c, 10, 71, 76
14, 366119, Note_on_c, 10, 71, 0
14, 366120, Note_on_c, 10, 74, 76
14, 366219, Note_on_c, 10, 74, 0
14, 366240, Note_on_c, 10, 79, 76
14, 366359, Note_on_c, 10, 79, 0
14, 366360, Note_on_c, 10, 81, 76
14, 366459, Note_on_c, 10, 81, 0
14, 366480, Note_on_c, 10, 78, 76
14, 366579, Note_on_c, 10, 78, 0
14, 366600, Note_on_c, 10, 78, 76
14, 366719, Note_on_c, 10, 78, 0
14, 366720, Note_on_c, 10, 79, 76
14, 366819, Note_on_c, 10, 79, 0
14, 366840, Note_on_c, 10, 76, 76
14, 366939, Note_on_c, 10, 76, 0
14, 366960, Note_on_c, 10, 76, 76
14, 367079, Note_on_c, 10, 76, 0
14, 367080, Note_on_c, 10, 78, 76
14, 367199, Note_on_c, 10, 78, 0
14, 367200, Note_on_c, 10, 79, 76
14, 367319, Note_on_c, 10, 79, 0
14, 367320, Note_on_c, 10, 81, 76
14, 367439, Note_on_c, 10, 81, 0
14, 367440, Note_on_c, 10, 83, 76
14, 367539, Note_on_c, 10, 83, 0
14, 367560, Note_on_c, 10, 79, 76
14, 367659, Note_on_c, 10, 79, 0
14, 367680, Note_on_c, 10, 79, 76
14, 367799, Note_on_c, 10, 79, 0
14, 367800, Note_on_c, 10, 81, 76
14, 367899, Note_on_c, 10, 81, 0
14, 367920, Note_on_c, 10, 78, 76
14, 368019, Note_on_c, 10, 78, 0
14, 368040, Note_on_c, 10, 78, 76
14, 368159, Note_on_c, 10, 78, 0
14, 368160, Note_on_c, 10, 79, 76
14, 368279, Note_on_c, 10, 79, 0
14, 368280, Note_on_c, 10, 81, 76
14, 368399, Note_on_c, 10, 81, 0
14, 368400, Note_on_c, 10, 83, 76
14, 368519, Note_on_c, 10, 83, 0
14, 368520, Note_on_c, 10, 84, 76
14, 368619, Note_on_c, 10, 84, 0
14, 368640, Note_on_c, 10, 81, 76
14, 368739, Note_on_c, 10, 81, 0
14, 368760, Note_on_c, 10, 81, 76
14, 368879, Note_on_c, 10, 81, 0
14, 368880, Note_on_c, 10, 83, 76
14, 368979, Note_on_c, 10, 83, 0
14, 369000, Note_on_c, 10, 79, 76
14, 369099, Note_on_c, 10, 79, 0
14, 369120, Note_on_c, 10, 79, 76
14, 369374, Note_on_c, 10, 79, 0
14, 369390, Note_on_c, 10, 79, 76
14, 369464, Note_on_c, 10, 79, 0
14, 369480, Note_on_c, 10, 79, 76
14, 369734, Note_on_c, 10, 79, 0
14, 369750, Note_on_c, 10, 79, 76
14, 369824, Note_on_c, 10, 79, 0
14, 369840, Note_on_c, 10, 79, 76
14, 370094, Note_on_c, 10, 79, 0
14, 370110, Note_on_c, 10, 79, 76
14, 370184, Note_on_c, 10, 79, 0
14, 370200, Note_on_c, 10, 79, 76
14, 370319, Note_on_c, 10, 79, 0
14, 370320, Note_on_c, 10, 76, 76
14, 370419, Note_on_c, 10, 76, 0
14, 370440, Note_on_c, 10, 78, 76
14, 370539, Note_on_c, 10, 78, 0
14, 370560, Note_on_c, 10, 79, 76
14, 370679, Note_on_c, 10, 79, 0
14, 370680, Note_on_c, 10, 88, 76
14, 370779, Note_on_c, 10, 88, 0
14, 370800, Note_on_c, 10, 78, 76
14, 370899, Note_on_c, 10, 78, 0
14, 370920, Note_on_c, 10, 79, 76
14, 371039, Note_on_c, 10, 79, 0
14, 371040, Note_on_c, 10, 78, 76
14, 371139, Note_on_c, 10, 78, 0
14, 371160, Note_on_c, 10, 76, 76
14, 371259, Note_on_c, 10, 76, 0
14, 371280, Note_on_c, 10, 78, 76
14, 371399, Note_on_c, 10, 78, 0
14, 371400, Note_on_c, 10, 81, 76
14, 371499, Note_on_c, 10, 81, 0
14, 371520, Note_on_c, 10, 79, 76
14, 371619, Note_on_c, 10, 79, 0
14, 371640, Note_on_c, 10, 81, 76
14, 371894, Note_on_c, 10, 81, 0
14, 371910, Note_on_c, 10, 74, 76
14, 371984, Note_on_c, 10, 74, 0
14, 372000, Note_on_c, 10, 69, 76
14, 372254, Note_on_c, 10, 69, 0
14, 372270, Note_on_c, 10, 73, 76
14, 372344, Note_on_c, 10, 73, 0
14, 372360, Note_on_c, 10, 74, 76
14, 372479, Note_on_c, 10, 74, 0
14, 372720, Note_on_c, 10, 78, 76
14, 372839, Note_on_c, 10, 78, 0
14, 373080, Note_on_c, 10, 81, 76
14, 373199, Note_on_c, 10, 81, 0
14, 373440, Note_on_c, 10, 86, 76
14, 373559, Note_on_c, 10, 86, 0
14, 373800, Note_on_c, 10, 78, 76
14, 373919, Note_on_c, 10, 78, 0
14, 374160, Note_on_c, 10, 81, 76
14, 374279, Note_on_c, 10, 81, 0
14, 374520, Note_on_c, 10, 74, 76
14, 374813, Note_on_c, 10, 74, 0
14, 374820, Note_on_c, 10, 73, 76
14, 374873, Note_on_c, 10, 73, 0
14, 374880, Note_on_c, 10, 74, 76
14, 374933, Note_on_c, 10, 74, 0
14, 374940, Note_on_c, 10, 69, 76
14, 374993, Note_on_c, 10, 69, 0
14, 375000, Note_on_c, 10, 78, 76
14, 375533, Note_on_c, 10, 78, 0
14, 375540, Note_on_c, 10, 76, 76
14, 375593, Note_on_c, 10, 76, 0
14, 375600, Note_on_c, 10, 74, 76
14, 375653, Note_on_c, 10, 74, 0
14, 375660, Note_on_c, 10, 76, 76
14, 375713, Note_on_c, 10, 76, 0
14, 375720, Note_on_c, 10, 78, 76
14, 375773, Note_on_c, 10, 78, 0
14, 375780, Note_on_c, 10, 76, 76
14, 375833, Note_on_c, 10, 76, 0
14, 375840, Note_on_c, 10, 78, 76
14, 375893, Note_on_c, 10, 78, 0
14, 375900, Note_on_c, 10, 74, 76
14, 375953, Note_on_c, 10, 74, 0
14, 375960, Note_on_c, 10, 81, 76
14, 376493, Note_on_c, 10, 81, 0
14, 376500, Note_on_c, 10, 79, 76
14, 376553, Note_on_c, 10, 79, 0
14, 376560, Note_on_c, 10, 78, 76
14, 376613, Note_on_c, 10, 78, 0
14, 376620, Note_on_c, 10, 79, 76
14, 376673, Note_on_c, 10, 79, 0
14, 376680, Note_on_c, 10, 81, 76
14, 376733, Note_on_c, 10, 81, 0
14, 376740, Note_on_c, 10, 79, 76
14, 376793, Note_on_c, 10, 79, 0
14, 376800, Note_on_c, 10, 81, 76
14, 376853, Note_on_c, 10, 81, 0
14, 376860, Note_on_c, 10, 78, 76
14, 376913, Note_on_c, 10, 78, 0
14, 376920, Note_on_c, 10, 71, 76
14, 377093, Note_on_c, 10, 71, 0
14, 377100, Note_on_c, 10, 81, 76
14, 377153, Note_on_c, 10, 81, 0
14, 377160, Note_on_c, 10, 83, 76
14, 377333, Note_on_c, 10, 83, 0
14, 377340, Note_on_c, 10, 78, 76
14, 377393, Note_on_c, 10, 78, 0
14, 377400, Note_on_c, 10, 79, 76
14, 378469, Note_on_c, 10, 79, 0
14, 378480, Note_on_c, 10, 69, 76
14, 378533, Note_on_c, 10, 69, 0
14, 378540, Note_on_c, 10, 71, 76
14, 378593, Note_on_c, 10, 71, 0
14, 378600, Note_on_c, 10, 73, 76
14, 378653, Note_on_c, 10, 73, 0
14, 378660, Note_on_c, 10, 74, 76
14, 378713, Note_on_c, 10, 74, 0
14, 378720, Note_on_c, 10, 76, 76
14, 378773, Note_on_c, 10, 76, 0
14, 378780, Note_on_c, 10, 78, 76
14, 378833, Note_on_c, 10, 78, 0
14, 378840, Note_on_c, 10, 79, 76
14, 378893, Note_on_c, 10, 79, 0
14, 378900, Note_on_c, 10, 78, 76
14, 378953, Note_on_c, 10, 78, 0
14, 378960, Note_on_c, 10, 76, 76
14, 379013, Note_on_c, 10, 76, 0
14, 379020, Note_on_c, 10, 78, 76
14, 379073, Note_on_c, 10, 78, 0
14, 379080, Note_on_c, 10, 79, 76
14, 379133, Note_on_c, 10, 79, 0
14, 379140, Note_on_c, 10, 76, 76
14, 379193, Note_on_c, 10, 76, 0
14, 379200, Note_on_c, 10, 81, 76
14, 379253, Note_on_c, 10, 81, 0
14, 379260, Note_on_c, 10, 76, 76
14, 379313, Note_on_c, 10, 76, 0
14, 379320, Note_on_c, 10, 78, 76
14, 379373, Note_on_c, 10, 78, 0
14, 379380, Note_on_c, 10, 81, 76
14, 379433, Note_on_c, 10, 81, 0
14, 379440, Note_on_c, 10, 74, 76
14, 379493, Note_on_c, 10, 74, 0
14, 379500, Note_on_c, 10, 76, 76
14, 379553, Note_on_c, 10, 76, 0
14, 379560, Note_on_c, 10, 78, 76
14, 379613, Note_on_c, 10, 78, 0
14, 379620, Note_on_c, 10, 79, 76
14, 379673, Note_on_c, 10, 79, 0
14, 379680, Note_on_c, 10, 81, 76
14, 379733, Note_on_c, 10, 81, 0
14, 379740, Note_on_c, 10, 83, 76
14, 379793, Note_on_c, 10, 83, 0
14, 379800, Note_on_c, 10, 84, 76
14, 379853, Note_on_c, 10, 84, 0
14, 379860, Note_on_c, 10, 83, 76
14, 379913, Note_on_c, 10, 83, 0
14, 379920, Note_on_c, 10, 81, 76
14, 379973, Note_on_c, 10, 81, 0
14, 379980, Note_on_c, 10, 83, 76
14, 380033, Note_on_c, 10, 83, 0
14, 380040, Note_on_c, 10, 84, 76
14, 380093, Note_on_c, 10, 84, 0
14, 380100, Note_on_c, 10, 81, 76
14, 380153, Note_on_c, 10, 81, 0
14, 380160, Note_on_c, 10, 86, 76
14, 380213, Note_on_c, 10, 86, 0
14, 380220, Note_on_c, 10, 81, 76
14, 380273, Note_on_c, 10, 81, 0
14, 380280, Note_on_c, 10, 83, 76
14, 380759, Note_on_c, 10, 83, 0
14, 380760, Note_on_c, 10, 83, 76
14, 381053, Note_on_c, 10, 83, 0
14, 381060, Note_on_c, 10, 81, 76
14, 381113, Note_on_c, 10, 81, 0
14, 381120, Note_on_c, 10, 83, 76
14, 381173, Note_on_c, 10, 83, 0
14, 381180, Note_on_c, 10, 79, 76
14, 381233, Note_on_c, 10, 79, 0
14, 381240, Note_on_c, 10, 81, 76
14, 381829, Note_on_c, 10, 81, 0
14, 381840, Note_on_c, 10, 86, 76
14, 381893, Note_on_c, 10, 86, 0
14, 381900, Note_on_c, 10, 85, 76
14, 381953, Note_on_c, 10, 85, 0
14, 381960, Note_on_c, 10, 83, 76
14, 382013, Note_on_c, 10, 83, 0
14, 382020, Note_on_c, 10, 81, 76
14, 382073, Note_on_c, 10, 81, 0
14, 382080, Note_on_c, 10, 79, 76
14, 382133, Note_on_c, 10, 79, 0
14, 382140, Note_on_c, 10, 78, 76
14, 382193, Note_on_c, 10, 78, 0
14, 382200, Note_on_c, 10, 79, 76
14, 382549, Note_on_c, 10, 79, 0
14, 382560, Note_on_c, 10, 79, 76
14, 382669, Note_on_c, 10, 79, 0
14, 382680, Note_on_c, 10, 79, 76
14, 382853, Note_on_c, 10, 79, 0
14, 382860, Note_on_c, 10, 76, 76
14, 382913, Note_on_c, 10, 76, 0
14, 382920, Note_on_c, 10, 81, 76
14, 383093, Note_on_c, 10, 81, 0
14, 383100, Note_on_c, 10, 76, 76
14, 383153, Note_on_c, 10, 76, 0
14, 383160, Note_on_c, 10, 78, 76
14, 383389, Note_on_c, 10, 78, 0
14, 383400, Note_on_c, 10, 74, 76
14, 383629, Note_on_c, 10, 74, 0
14, 383640, Note_on_c, 10, 71, 76
14, 384173, Note_on_c, 10, 71, 0
14, 384180, Note_on_c, 10, 71, 76
14, 384233, Note_on_c, 10, 71, 0
14, 384240, Note_on_c, 10, 73, 76
14, 384293, Note_on_c, 10, 73, 0
14, 384300, Note_on_c, 10, 74, 76
14, 384353, Note_on_c, 10, 74, 0
14, 384360, Note_on_c, 10, 76, 76
14, 384413, Note_on_c, 10, 76, 0
14, 384420, Note_on_c, 10, 74, 76
14, 384473, Note_on_c, 10, 74, 0
14, 384480, Note_on_c, 10, 76, 76
14, 384533, Note_on_c, 10, 76, 0
14, 384540, Note_on_c, 10, 73, 76
14, 384593, Note_on_c, 10, 73, 0
14, 384600, Note_on_c, 10, 66, 76
14, 384773, Note_on_c, 10, 66, 0
14, 384780, Note_on_c, 10, 76, 76
14, 384833, Note_on_c, 10, 76, 0
14, 384840, Note_on_c, 10, 74, 76
14, 385013, Note_on_c, 10, 74, 0
14, 385020, Note_on_c, 10, 73, 76
14, 385073, Note_on_c, 10, 73, 0
14, 385080, Note_on_c, 10, 74, 76
14, 385373, Note_on_c, 10, 74, 0
14, 385380, Note_on_c, 10, 73, 76
14, 385433, Note_on_c, 10, 73, 0
14, 385440, Note_on_c, 10, 74, 76
14, 385493, Note_on_c, 10, 74, 0
14, 385500, Note_on_c, 10, 71, 76
14, 385553, Note_on_c, 10, 71, 0
14, 385560, Note_on_c, 10, 67, 76
14, 386093, Note_on_c, 10, 67, 0
14, 386100, Note_on_c, 10, 66, 76
14, 386153, Note_on_c, 10, 66, 0
14, 386160, Note_on_c, 10, 67, 76
14, 386213, Note_on_c, 10, 67, 0
14, 386220, Note_on_c, 10, 64, 76
14, 386273, Note_on_c, 10, 64, 0
14, 386280, Note_on_c, 10, 66, 76
14, 386453, Note_on_c, 10, 66, 0
14, 386460, Note_on_c, 10, 67, 76
14, 386513, Note_on_c, 10, 67, 0
14, 386520, Note_on_c, 10, 69, 76
14, 386693, Note_on_c, 10, 69, 0
14, 386700, Note_on_c, 10, 71, 76
14, 386753, Note_on_c, 10, 71, 0
14, 386760, Note_on_c, 10, 73, 76
14, 386933, Note_on_c, 10, 73, 0
14, 386940, Note_on_c, 10, 74, 76
14, 386993, Note_on_c, 10, 74, 0
14, 387000, Note_on_c, 10, 64, 76
14, 387293, Note_on_c, 10, 64, 0
14, 387300, Note_on_c, 10, 62, 76
14, 387353, Note_on_c, 10, 62, 0
14, 387360, Note_on_c, 10, 64, 76
14, 387413, Note_on_c, 10, 64, 0
14, 387420, Note_on_c, 10, 61, 76
14, 387473, Note_on_c, 10, 61, 0
14, 387480, Note_on_c, 10, 67, 76
14, 387773, Note_on_c, 10, 67, 0
14, 387780, Note_on_c, 10, 66, 76
14, 387833, Note_on_c, 10, 66, 0
14, 387840, Note_on_c, 10, 67, 76
14, 387893, Note_on_c, 10, 67, 0
14, 387900, Note_on_c, 10, 64, 76
14, 387953, Note_on_c, 10, 64, 0
14, 387960, Note_on_c, 10, 66, 76
14, 388253, Note_on_c, 10, 66, 0
14, 388260, Note_on_c, 10, 64, 76
14, 388313, Note_on_c, 10, 64, 0
14, 388320, Note_on_c, 10, 66, 76
14, 388373, Note_on_c, 10, 66, 0
14, 388380, Note_on_c, 10, 62, 76
14, 388433, Note_on_c, 10, 62, 0
14, 388440, Note_on_c, 10, 69, 76
14, 388733, Note_on_c, 10, 69, 0
14, 388740, Note_on_c, 10, 67, 76
14, 388793, Note_on_c, 10, 67, 0
14, 388800, Note_on_c, 10, 69, 76
14, 388853, Note_on_c, 10, 69, 0
14, 388860, Note_on_c, 10, 66, 76
14, 388913, Note_on_c, 10, 66, 0
14, 388920, Note_on_c, 10, 67, 76
14, 389213, Note_on_c, 10, 67, 0
14, 389220, Note_on_c, 10, 66, 76
14, 389273, Note_on_c, 10, 66, 0
14, 389280, Note_on_c, 10, 67, 76
14, 389333, Note_on_c, 10, 67, 0
14, 389340, Note_on_c, 10, 64, 76
14, 389393, Note_on_c, 10, 64, 0
14, 389400, Note_on_c, 10, 70, 76
14, 389693, Note_on_c, 10, 70, 0
14, 389700, Note_on_c, 10, 69, 76
14, 389753, Note_on_c, 10, 69, 0
14, 389760, Note_on_c, 10, 70, 76
14, 389813, Note_on_c, 10, 70, 0
14, 389820, Note_on_c, 10, 67, 76
14, 389873, Note_on_c, 10, 67, 0
14, 389880, Note_on_c, 10, 69, 76
14, 390173, Note_on_c, 10, 69, 0
14, 390180, Note_on_c, 10, 67, 76
14, 390233, Note_on_c, 10, 67, 0
14, 390240, Note_on_c, 10, 69, 76
14, 390293, Note_on_c, 10, 69, 0
14, 390300, Note_on_c, 10, 65, 76
14, 390353, Note_on_c, 10, 65, 0
14, 390360, Note_on_c, 10, 67, 76
14, 390653, Note_on_c, 10, 67, 0
14, 390660, Note_on_c, 10, 65, 76
14, 390713, Note_on_c, 10, 65, 0
14, 390720, Note_on_c, 10, 67, 76
14, 390773, Note_on_c, 10, 67, 0
14, 390780, Note_on_c, 10, 64, 76
14, 390833, Note_on_c, 10, 64, 0
14, 390840, Note_on_c, 10, 65, 76
14, 391133, Note_on_c, 10, 65, 0
14, 391140, Note_on_c, 10, 64, 76
14, 391193, Note_on_c, 10, 64, 0
14, 391200, Note_on_c, 10, 65, 76
14, 391253, Note_on_c, 10, 65, 0
14, 391260, Note_on_c, 10, 62, 76
14, 391313, Note_on_c, 10, 62, 0
14, 391320, Note_on_c, 10, 72, 76
14, 391853, Note_on_c, 10, 72, 0
14, 391860, Note_on_c, 10, 71, 76
14, 391913, Note_on_c, 10, 71, 0
14, 391920, Note_on_c, 10, 72, 76
14, 391973, Note_on_c, 10, 72, 0
14, 391980, Note_on_c, 10, 69, 76
14, 392033, Note_on_c, 10, 69, 0
14, 392040, Note_on_c, 10, 71, 76
14, 392213, Note_on_c, 10, 71, 0
14, 392220, Note_on_c, 10, 73, 76
14, 392273, Note_on_c, 10, 73, 0
14, 392280, Note_on_c, 10, 74, 76
14, 392629, Note_on_c, 10, 74, 0
14, 392640, Note_on_c, 10, 76, 76
14, 392749, Note_on_c, 10, 76, 0
14, 392760, Note_on_c, 10, 69, 76
14, 392933, Note_on_c, 10, 69, 0
14, 392940, Note_on_c, 10, 79, 76
14, 392993, Note_on_c, 10, 79, 0
14, 393000, Note_on_c, 10, 78, 76
14, 393173, Note_on_c, 10, 78, 0
14, 393180, Note_on_c, 10, 76, 76
14, 393233, Note_on_c, 10, 76, 0
14, 393240, Note_on_c, 10, 73, 76
14, 393254, Note_on_c, 10, 73, 0
14, 393255, Note_on_c, 10, 74, 76
14, 393269, Note_on_c, 10, 74, 0
14, 393270, Note_on_c, 10, 73, 76
14, 393284, Note_on_c, 10, 73, 0
14, 393285, Note_on_c, 10, 74, 76
14, 393299, Note_on_c, 10, 74, 0
14, 393300, Note_on_c, 10, 73, 76
14, 393314, Note_on_c, 10, 73, 0
14, 393315, Note_on_c, 10, 74, 76
14, 393329, Note_on_c, 10, 74, 0
14, 393330, Note_on_c, 10, 73, 76
14, 393344, Note_on_c, 10, 73, 0
14, 393345, Note_on_c, 10, 74, 76
14, 393359, Note_on_c, 10, 74, 0
14, 393360, Note_on_c, 10, 73, 76
14, 393374, Note_on_c, 10, 73, 0
14, 393375, Note_on_c, 10, 74, 76
14, 393389, Note_on_c, 10, 74, 0
14, 393390, Note_on_c, 10, 73, 76
14, 393404, Note_on_c, 10, 73, 0
14, 393405, Note_on_c, 10, 74, 76
14, 393419, Note_on_c, 10, 74, 0
14, 393420, Note_on_c, 10, 73, 76
14, 393434, Note_on_c, 10, 73, 0
14, 393435, Note_on_c, 10, 74, 76
14, 393449, Note_on_c, 10, 74, 0
14, 393450, Note_on_c, 10, 73, 76
14, 393464, Note_on_c, 10, 73, 0
14, 393465, Note_on_c, 10, 74, 76
14, 393479, Note_on_c, 10, 74, 0
14, 393480, Note_on_c, 10, 73, 76
14, 393494, Note_on_c, 10, 73, 0
14, 393495, Note_on_c, 10, 74, 76
14, 393509, Note_on_c, 10, 74, 0
14, 393510, Note_on_c, 10, 73, 76
14, 393524, Note_on_c, 10, 73, 0
14, 393525, Note_on_c, 10, 74, 76
14, 393539, Note_on_c, 10, 74, 0
14, 393540, Note_on_c, 10, 73, 76
14, 393554, Note_on_c, 10, 73, 0
14, 393555, Note_on_c, 10, 74, 76
14, 393569, Note_on_c, 10, 74, 0
14, 393570, Note_on_c, 10, 71, 76
14, 393584, Note_on_c, 10, 71, 0
14, 393585, Note_on_c, 10, 73, 76
14, 393599, Note_on_c, 10, 73, 0
14, 393600, Note_on_c, 10, 74, 76
14, 393709, Note_on_c, 10, 74, 0
14, 393720, Note_on_c, 10, 74, 76
14, 394679, Note_on_c, 10, 74, 0
14, 394679, End_track
15, 0, Start_track
15, 0, Title_t, "Violin II"
15, 0, MIDI_port, 0
15, 0, Program_c, 11, 48
15, 0, Control_c, 11, 10, 24
15, 0, Control_c, 11, 11, 127
15, 0, Control_c, 11, 7, 96
15, 900, Note_on_c, 11, 74, 76
15, 953, Note_on_c, 11, 74, 0
15, 960, Note_on_c, 11, 74, 76
15, 1133, Note_on_c, 11, 74, 0
15, 1140, Note_on_c, 11, 69, 76
15, 1193, Note_on_c, 11, 69, 0
15, 1200, Note_on_c, 11, 66, 76
15, 1679, Note_on_c, 11, 66, 0
15, 1860, Note_on_c, 11, 74, 76
15, 1913, Note_on_c, 11, 74, 0
15, 1920, Note_on_c, 11, 74, 76
15, 2093, Note_on_c, 11, 74, 0
15, 2100, Note_on_c, 11, 71, 76
15, 2153, Note_on_c, 11, 71, 0
15, 2160, Note_on_c, 11, 69, 76
15, 2639, Note_on_c, 11, 69, 0
15, 2820, Note_on_c, 11, 78, 76
15, 2873, Note_on_c, 11, 78, 0
15, 2880, Note_on_c, 11, 78, 76
15, 3053, Note_on_c, 11, 78, 0
15, 3060, Note_on_c, 11, 74, 76
15, 3113, Note_on_c, 11, 74, 0
15, 3120, Note_on_c, 11, 76, 76
15, 3469, Note_on_c, 11, 76, 0
15, 3480, Note_on_c, 11, 76, 76
15, 3589, Note_on_c, 11, 76, 0
15, 3600, Note_on_c, 11, 76, 76
15, 3829, Note_on_c, 11, 76, 0
15, 3840, Note_on_c, 11, 73, 76
15, 4069, Note_on_c, 11, 73, 0
15, 4080, Note_on_c, 11, 74, 76
15, 4253, Note_on_c, 11, 74, 0
15, 4260, Note_on_c, 11, 69, 76
15, 4313, Note_on_c, 11, 69, 0
15, 4320, Note_on_c, 11, 69, 76
15, 4493, Note_on_c, 11, 69, 0
15, 4500, Note_on_c, 11, 66, 76
15, 4553, Note_on_c, 11, 66, 0
15, 4560, Note_on_c, 11, 62, 76
15, 5039, Note_on_c, 11, 62, 0
15, 5220, Note_on_c, 11, 81, 76
15, 5273, Note_on_c, 11, 81, 0
15, 5280, Note_on_c, 11, 81, 76
15, 5453, Note_on_c, 11, 81, 0
15, 5460, Note_on_c, 11, 78, 76
15, 5513, Note_on_c, 11, 78, 0
15, 5520, Note_on_c, 11, 75, 76
15, 5693, Note_on_c, 11, 75, 0
15, 5700, Note_on_c, 11, 78, 76
15, 5753, Note_on_c, 11, 78, 0
15, 5760, Note_on_c, 11, 71, 76
15, 5933, Note_on_c, 11, 71, 0
15, 5940, Note_on_c, 11, 75, 76
15, 5993, Note_on_c, 11, 75, 0
15, 6000, Note_on_c, 11, 76, 76
15, 6479, Note_on_c, 11, 76, 0
15, 6660, Note_on_c, 11, 67, 76
15, 6713, Note_on_c, 11, 67, 0
15, 6720, Note_on_c, 11, 69, 76
15, 6893, Note_on_c, 11, 69, 0
15, 6900, Note_on_c, 11, 66, 76
15, 6953, Note_on_c, 11, 66, 0
15, 6960, Note_on_c, 11, 67, 76
15, 7309, Note_on_c, 11, 67, 0
15, 7320, Note_on_c, 11, 67, 76
15, 7429, Note_on_c, 11, 67, 0
15, 7440, Note_on_c, 11, 69, 76
15, 7613, Note_on_c, 11, 69, 0
15, 7620, Note_on_c, 11, 67, 76
15, 7673, Note_on_c, 11, 67, 0
15, 7680, Note_on_c, 11, 69, 76
15, 7853, Note_on_c, 11, 69, 0
15, 7860, Note_on_c, 11, 71, 76
15, 7913, Note_on_c, 11, 71, 0
15, 7920, Note_on_c, 11, 64, 76
15, 8093, Note_on_c, 11, 64, 0
15, 8100, Note_on_c, 11, 76, 76
15, 8153, Note_on_c, 11, 76, 0
15, 8160, Note_on_c, 11, 76, 76
15, 8333, Note_on_c, 11, 76, 0
15, 8340, Note_on_c, 11, 73, 76
15, 8393, Note_on_c, 11, 73, 0
15, 8400, Note_on_c, 11, 69, 76
15, 8879, Note_on_c, 11, 69, 0
15, 9060, Note_on_c, 11, 73, 76
15, 9113, Note_on_c, 11, 73, 0
15, 9120, Note_on_c, 11, 73, 76
15, 9293, Note_on_c, 11, 73, 0
15, 9300, Note_on_c, 11, 69, 76
15, 9353, Note_on_c, 11, 69, 0
15, 9360, Note_on_c, 11, 69, 76
15, 9839, Note_on_c, 11, 69, 0
15, 10020, Note_on_c, 11, 76, 76
15, 10073, Note_on_c, 11, 76, 0
15, 10080, Note_on_c, 11, 76, 76
15, 10253, Note_on_c, 11, 76, 0
15, 10260, Note_on_c, 11, 68, 76
15, 10313, Note_on_c, 11, 68, 0
15, 10320, Note_on_c, 11, 69, 76
15, 10559, Note_on_c, 11, 69, 0
15, 10740, Note_on_c, 11, 69, 76
15, 10793, Note_on_c, 11, 69, 0
15, 10800, Note_on_c, 11, 71, 76
15, 11149, Note_on_c, 11, 71, 0
15, 11160, Note_on_c, 11, 71, 76
15, 11269, Note_on_c, 11, 71, 0
15, 11280, Note_on_c, 11, 71, 76
15, 11509, Note_on_c, 11, 71, 0
15, 11520, Note_on_c, 11, 68, 76
15, 11749, Note_on_c, 11, 68, 0
15, 11760, Note_on_c, 11, 64, 76
15, 12239, Note_on_c, 11, 64, 0
15, 12420, Note_on_c, 11, 78, 76
15, 12473, Note_on_c, 11, 78, 0
15, 12480, Note_on_c, 11, 78, 76
15, 12653, Note_on_c, 11, 78, 0
15, 12660, Note_on_c, 11, 74, 76
15, 12713, Note_on_c, 11, 74, 0
15, 12720, Note_on_c, 11, 71, 76
15, 13069, Note_on_c, 11, 71, 0
15, 13080, Note_on_c, 11, 71, 76
15, 13189, Note_on_c, 11, 71, 0
15, 13200, Note_on_c, 11, 73, 76
15, 13429, Note_on_c, 11, 73, 0
15, 13440, Note_on_c, 11, 77, 76
15, 13669, Note_on_c, 11, 77, 0
15, 13680, Note_on_c, 11, 78, 76
15, 13853, Note_on_c, 11, 78, 0
15, 13860, Note_on_c, 11, 73, 76
15, 13913, Note_on_c, 11, 73, 0
15, 13920, Note_on_c, 11, 73, 76
15, 14093, Note_on_c, 11, 73, 0
15, 14100, Note_on_c, 11, 69, 76
15, 14153, Note_on_c, 11, 69, 0
15, 14160, Note_on_c, 11, 69, 76
15, 14639, Note_on_c, 11, 69, 0
15, 14820, Note_on_c, 11, 68, 76
15, 14873, Note_on_c, 11, 68, 0
15, 14880, Note_on_c, 11, 64, 76
15, 15053, Note_on_c, 11, 64, 0
15, 15060, Note_on_c, 11, 68, 76
15, 15113, Note_on_c, 11, 68, 0
15, 15120, Note_on_c, 11, 69, 76
15, 15293, Note_on_c, 11, 69, 0
15, 15300, Note_on_c, 11, 69, 76
15, 15353, Note_on_c, 11, 69, 0
15, 15360, Note_on_c, 11, 71, 76
15, 15533, Note_on_c, 11, 71, 0
15, 15540, Note_on_c, 11, 73, 76
15, 15593, Note_on_c, 11, 73, 0
15, 15600, Note_on_c, 11, 71, 76
15, 16079, Note_on_c, 11, 71, 0
15, 16260, Note_on_c, 11, 80, 76
15, 16313, Note_on_c, 11, 80, 0
15, 16320, Note_on_c, 11, 80, 76
15, 16493, Note_on_c, 11, 80, 0
15, 16500, Note_on_c, 11, 76, 76
15, 16553, Note_on_c, 11, 76, 0
15, 16560, Note_on_c, 11, 73, 76
15, 17039, Note_on_c, 11, 73, 0
15, 17220, Note_on_c, 11, 81, 76
15, 17273, Note_on_c, 11, 81, 0
15, 17280, Note_on_c, 11, 81, 76
15, 17453, Note_on_c, 11, 81, 0
15, 17460, Note_on_c, 11, 76, 76
15, 17513, Note_on_c, 11, 76, 0
15, 17520, Note_on_c, 11, 77, 76
15, 17999, Note_on_c, 11, 77, 0
15, 18180, Note_on_c, 11, 83, 76
15, 18233, Note_on_c, 11, 83, 0
15, 18240, Note_on_c, 11, 83, 76
15, 18413, Note_on_c, 11, 83, 0
15, 18420, Note_on_c, 11, 80, 76
15, 18473, Note_on_c, 11, 80, 0
15, 18480, Note_on_c, 11, 76, 76
15, 18719, Note_on_c, 11, 76, 0
15, 18900, Note_on_c, 11, 76, 76
15, 18953, Note_on_c, 11, 76, 0
15, 18960, Note_on_c, 11, 74, 76
15, 19199, Note_on_c, 11, 74, 0
15, 19380, Note_on_c, 11, 74, 76
15, 19433, Note_on_c, 11, 74, 0
15, 19440, Note_on_c, 11, 72, 76
15, 19919, Note_on_c, 11, 72, 0
15, 20100, Note_on_c, 11, 64, 76
15, 20153, Note_on_c, 11, 64, 0
15, 20160, Note_on_c, 11, 69, 76
15, 20333, Note_on_c, 11, 69, 0
15, 20340, Note_on_c, 11, 73, 76
15, 20393, Note_on_c, 11, 73, 0
15, 20400, Note_on_c, 11, 73, 76
15, 20573, Note_on_c, 11, 73, 0
15, 20580, Note_on_c, 11, 76, 76
15, 20633, Note_on_c, 11, 76, 0
15, 20640, Note_on_c, 11, 74, 76
15, 20813, Note_on_c, 11, 74, 0
15, 20820, Note_on_c, 11, 71, 76
15, 20873, Note_on_c, 11, 71, 0
15, 20880, Note_on_c, 11, 73, 76
15, 21053, Note_on_c, 11, 73, 0
15, 21060, Note_on_c, 11, 69, 76
15, 21113, Note_on_c, 11, 69, 0
15, 21120, Note_on_c, 11, 71, 76
15, 21293, Note_on_c, 11, 71, 0
15, 21300, Note_on_c, 11, 66, 76
15, 21353, Note_on_c, 11, 66, 0
15, 21360, Note_on_c, 11, 71, 76
15, 21533, Note_on_c, 11, 71, 0
15, 21540, Note_on_c, 11, 68, 76
15, 21593, Note_on_c, 11, 68, 0
15, 21600, Note_on_c, 11, 69, 76
15, 21773, Note_on_c, 11, 69, 0
15, 21780, Note_on_c, 11, 71, 76
15, 21833, Note_on_c, 11, 71, 0
15, 21840, Note_on_c, 11, 68, 76
15, 21854, Note_on_c, 11, 68, 0
15, 21855, Note_on_c, 11, 69, 76
15, 21869, Note_on_c, 11, 69, 0
15, 21870, Note_on_c, 11, 68, 76
15, 21884, Note_on_c, 11, 68, 0
15, 21885, Note_on_c, 11, 69, 76
15, 21899, Note_on_c, 11, 69, 0
15, 21900, Note_on_c, 11, 68, 76
15, 21914, Note_on_c, 11, 68, 0
15, 21915, Note_on_c, 11, 69, 76
15, 21929, Note_on_c, 11, 69, 0
15, 21930, Note_on_c, 11, 68, 76
15, 21944, Note_on_c, 11, 68, 0
15, 21945, Note_on_c, 11, 69, 76
15, 21959, Note_on_c, 11, 69, 0
15, 21960, Note_on_c, 11, 68, 76
15, 21974, Note_on_c, 11, 68, 0
15, 21975, Note_on_c, 11, 69, 76
15, 21989, Note_on_c, 11, 69, 0
15, 21990, Note_on_c, 11, 68, 76
15, 22004, Note_on_c, 11, 68, 0
15, 22005, Note_on_c, 11, 69, 76
15, 22019, Note_on_c, 11, 69, 0
15, 22020, Note_on_c, 11, 68, 76
15, 22034, Note_on_c, 11, 68, 0
15, 22035, Note_on_c, 11, 69, 76
15, 22049, Note_on_c, 11, 69, 0
15, 22050, Note_on_c, 11, 68, 76
15, 22064, Note_on_c, 11, 68, 0
15, 22065, Note_on_c, 11, 69, 76
15, 22079, Note_on_c, 11, 69, 0
15, 22080, Note_on_c, 11, 68, 76
15, 22094, Note_on_c, 11, 68, 0
15, 22095, Note_on_c, 11, 69, 76
15, 22109, Note_on_c, 11, 69, 0
15, 22110, Note_on_c, 11, 68, 76
15, 22124, Note_on_c, 11, 68, 0
15, 22125, Note_on_c, 11, 69, 76
15, 22139, Note_on_c, 11, 69, 0
15, 22140, Note_on_c, 11, 68, 76
15, 22154, Note_on_c, 11, 68, 0
15, 22155, Note_on_c, 11, 69, 76
15, 22169, Note_on_c, 11, 69, 0
15, 22170, Note_on_c, 11, 66, 76
15, 22184, Note_on_c, 11, 66, 0
15, 22185, Note_on_c, 11, 68, 76
15, 22199, Note_on_c, 11, 68, 0
15, 22200, Note_on_c, 11, 64, 76
15, 22309, Note_on_c, 11, 64, 0
15, 22320, Note_on_c, 11, 64, 76
15, 23039, Note_on_c, 11, 64, 0
15, 23940, Note_on_c, 11, 74, 76
15, 23993, Note_on_c, 11, 74, 0
15, 24000, Note_on_c, 11, 74, 76
15, 24173, Note_on_c, 11, 74, 0
15, 24180, Note_on_c, 11, 69, 76
15, 24233, Note_on_c, 11, 69, 0
15, 24240, Note_on_c, 11, 66, 76
15, 24719, Note_on_c, 11, 66, 0
15, 24900, Note_on_c, 11, 74, 76
15, 24953, Note_on_c, 11, 74, 0
15, 24960, Note_on_c, 11, 74, 76
15, 25133, Note_on_c, 11, 74, 0
15, 25140, Note_on_c, 11, 71, 76
15, 25193, Note_on_c, 11, 71, 0
15, 25200, Note_on_c, 11, 69, 76
15, 25679, Note_on_c, 11, 69, 0
15, 25860, Note_on_c, 11, 78, 76
15, 25913, Note_on_c, 11, 78, 0
15, 25920, Note_on_c, 11, 78, 76
15, 26093, Note_on_c, 11, 78, 0
15, 26100, Note_on_c, 11, 74, 76
15, 26153, Note_on_c, 11, 74, 0
15, 26160, Note_on_c, 11, 76, 76
15, 26509, Note_on_c, 11, 76, 0
15, 26520, Note_on_c, 11, 76, 76
15, 26629, Note_on_c, 11, 76, 0
15, 26640, Note_on_c, 11, 76, 76
15, 26869, Note_on_c, 11, 76, 0
15, 26880, Note_on_c, 11, 73, 76
15, 27109, Note_on_c, 11, 73, 0
15, 27120, Note_on_c, 11, 74, 76
15, 27293, Note_on_c, 11, 74, 0
15, 27300, Note_on_c, 11, 69, 76
15, 27353, Note_on_c, 11, 69, 0
15, 27360, Note_on_c, 11, 69, 76
15, 27533, Note_on_c, 11, 69, 0
15, 27540, Note_on_c, 11, 66, 76
15, 27593, Note_on_c, 11, 66, 0
15, 27600, Note_on_c, 11, 62, 76
15, 28079, Note_on_c, 11, 62, 0
15, 28260, Note_on_c, 11, 81, 76
15, 28313, Note_on_c, 11, 81, 0
15, 28320, Note_on_c, 11, 81, 76
15, 28493, Note_on_c, 11, 81, 0
15, 28500, Note_on_c, 11, 78, 76
15, 28553, Note_on_c, 11, 78, 0
15, 28560, Note_on_c, 11, 75, 76
15, 28733, Note_on_c, 11, 75, 0
15, 28740, Note_on_c, 11, 78, 76
15, 28793, Note_on_c, 11, 78, 0
15, 28800, Note_on_c, 11, 71, 76
15, 28973, Note_on_c, 11, 71, 0
15, 28980, Note_on_c, 11, 75, 76
15, 29033, Note_on_c, 11, 75, 0
15, 29040, Note_on_c, 11, 76, 76
15, 29519, Note_on_c, 11, 76, 0
15, 29700, Note_on_c, 11, 67, 76
15, 29753, Note_on_c, 11, 67, 0
15, 29760, Note_on_c, 11, 69, 76
15, 29933, Note_on_c, 11, 69, 0
15, 29940, Note_on_c, 11, 66, 76
15, 29993, Note_on_c, 11, 66, 0
15, 30000, Note_on_c, 11, 67, 76
15, 30349, Note_on_c, 11, 67, 0
15, 30360, Note_on_c, 11, 67, 76
15, 30469, Note_on_c, 11, 67, 0
15, 30480, Note_on_c, 11, 69, 76
15, 30653, Note_on_c, 11, 69, 0
15, 30660, Note_on_c, 11, 67, 76
15, 30713, Note_on_c, 11, 67, 0
15, 30720, Note_on_c, 11, 69, 76
15, 30893, Note_on_c, 11, 69, 0
15, 30900, Note_on_c, 11, 71, 76
15, 30953, Note_on_c, 11, 71, 0
15, 30960, Note_on_c, 11, 64, 76
15, 31133, Note_on_c, 11, 64, 0
15, 31140, Note_on_c, 11, 76, 76
15, 31193, Note_on_c, 11, 76, 0
15, 31200, Note_on_c, 11, 76, 76
15, 31373, Note_on_c, 11, 76, 0
15, 31380, Note_on_c, 11, 73, 76
15, 31433, Note_on_c, 11, 73, 0
15, 31440, Note_on_c, 11, 69, 76
15, 31919, Note_on_c, 11, 69, 0
15, 32100, Note_on_c, 11, 73, 76
15, 32153, Note_on_c, 11, 73, 0
15, 32160, Note_on_c, 11, 73, 76
15, 32333, Note_on_c, 11, 73, 0
15, 32340, Note_on_c, 11, 69, 76
15, 32393, Note_on_c, 11, 69, 0
15, 32400, Note_on_c, 11, 69, 76
15, 32879, Note_on_c, 11, 69, 0
15, 33060, Note_on_c, 11, 76, 76
15, 33113, Note_on_c, 11, 76, 0
15, 33120, Note_on_c, 11, 76, 76
15, 33293, Note_on_c, 11, 76, 0
15, 33300, Note_on_c, 11, 68, 76
15, 33353, Note_on_c, 11, 68, 0
15, 33360, Note_on_c, 11, 69, 76
15, 33599, Note_on_c, 11, 69, 0
15, 33780, Note_on_c, 11, 69, 76
15, 33833, Note_on_c, 11, 69, 0
15, 33840, Note_on_c, 11, 71, 76
15, 34189, Note_on_c, 11, 71, 0
15, 34200, Note_on_c, 11, 71, 76
15, 34309, Note_on_c, 11, 71, 0
15, 34320, Note_on_c, 11, 71, 76
15, 34549, Note_on_c, 11, 71, 0
15, 34560, Note_on_c, 11, 68, 76
15, 34789, Note_on_c, 11, 68, 0
15, 34800, Note_on_c, 11, 64, 76
15, 35279, Note_on_c, 11, 64, 0
15, 35460, Note_on_c, 11, 78, 76
15, 35513, Note_on_c, 11, 78, 0
15, 35520, Note_on_c, 11, 78, 76
15, 35693, Note_on_c, 11, 78, 0
15, 35700, Note_on_c, 11, 74, 76
15, 35753, Note_on_c, 11, 74, 0
15, 35760, Note_on_c, 11, 71, 76
15, 36109, Note_on_c, 11, 71, 0
15, 36120, Note_on_c, 11, 71, 76
15, 36229, Note_on_c, 11, 71, 0
15, 36240, Note_on_c, 11, 73, 76
15, 36469, Note_on_c, 11, 73, 0
15, 36480, Note_on_c, 11, 77, 76
15, 36709, Note_on_c, 11, 77, 0
15, 36720, Note_on_c, 11, 78, 76
15, 36893, Note_on_c, 11, 78, 0
15, 36900, Note_on_c, 11, 73, 76
15, 36953, Note_on_c, 11, 73, 0
15, 36960, Note_on_c, 11, 73, 76
15, 37133, Note_on_c, 11, 73, 0
15, 37140, Note_on_c, 11, 69, 76
15, 37193, Note_on_c, 11, 69, 0
15, 37200, Note_on_c, 11, 69, 76
15, 37679, Note_on_c, 11, 69, 0
15, 37860, Note_on_c, 11, 68, 76
15, 37913, Note_on_c, 11, 68, 0
15, 37920, Note_on_c, 11, 64, 76
15, 38093, Note_on_c, 11, 64, 0
15, 38100, Note_on_c, 11, 68, 76
15, 38153, Note_on_c, 11, 68, 0
15, 38160, Note_on_c, 11, 69, 76
15, 38333, Note_on_c, 11, 69, 0
15, 38340, Note_on_c, 11, 69, 76
15, 38393, Note_on_c, 11, 69, 0
15, 38400, Note_on_c, 11, 71, 76
15, 38573, Note_on_c, 11, 71, 0
15, 38580, Note_on_c, 11, 73, 76
15, 38633, Note_on_c, 11, 73, 0
15, 38640, Note_on_c, 11, 71, 76
15, 39119, Note_on_c, 11, 71, 0
15, 39300, Note_on_c, 11, 80, 76
15, 39353, Note_on_c, 11, 80, 0
15, 39360, Note_on_c, 11, 80, 76
15, 39533, Note_on_c, 11, 80, 0
15, 39540, Note_on_c, 11, 76, 76
15, 39593, Note_on_c, 11, 76, 0
15, 39600, Note_on_c, 11, 73, 76
15, 40079, Note_on_c, 11, 73, 0
15, 40260, Note_on_c, 11, 81, 76
15, 40313, Note_on_c, 11, 81, 0
15, 40320, Note_on_c, 11, 81, 76
15, 40493, Note_on_c, 11, 81, 0
15, 40500, Note_on_c, 11, 76, 76
15, 40553, Note_on_c, 11, 76, 0
15, 40560, Note_on_c, 11, 77, 76
15, 41039, Note_on_c, 11, 77, 0
15, 41220, Note_on_c, 11, 83, 76
15, 41273, Note_on_c, 11, 83, 0
15, 41280, Note_on_c, 11, 83, 76
15, 41453, Note_on_c, 11, 83, 0
15, 41460, Note_on_c, 11, 80, 76
15, 41513, Note_on_c, 11, 80, 0
15, 41520, Note_on_c, 11, 76, 76
15, 41759, Note_on_c, 11, 76, 0
15, 41940, Note_on_c, 11, 76, 76
15, 41993, Note_on_c, 11, 76, 0
15, 42000, Note_on_c, 11, 74, 76
15, 42239, Note_on_c, 11, 74, 0
15, 42420, Note_on_c, 11, 74, 76
15, 42473, Note_on_c, 11, 74, 0
15, 42480, Note_on_c, 11, 72, 76
15, 42959, Note_on_c, 11, 72, 0
15, 43140, Note_on_c, 11, 64, 76
15, 43193, Note_on_c, 11, 64, 0
15, 43200, Note_on_c, 11, 69, 76
15, 43373, Note_on_c, 11, 69, 0
15, 43380, Note_on_c, 11, 73, 76
15, 43433, Note_on_c, 11, 73, 0
15, 43440, Note_on_c, 11, 73, 76
15, 43613, Note_on_c, 11, 73, 0
15, 43620, Note_on_c, 11, 76, 76
15, 43673, Note_on_c, 11, 76, 0
15, 43680, Note_on_c, 11, 74, 76
15, 43853, Note_on_c, 11, 74, 0
15, 43860, Note_on_c, 11, 71, 76
15, 43913, Note_on_c, 11, 71, 0
15, 43920, Note_on_c, 11, 73, 76
15, 44093, Note_on_c, 11, 73, 0
15, 44100, Note_on_c, 11, 69, 76
15, 44153, Note_on_c, 11, 69, 0
15, 44160, Note_on_c, 11, 71, 76
15, 44333, Note_on_c, 11, 71, 0
15, 44340, Note_on_c, 11, 66, 76
15, 44393, Note_on_c, 11, 66, 0
15, 44400, Note_on_c, 11, 71, 76
15, 44573, Note_on_c, 11, 71, 0
15, 44580, Note_on_c, 11, 68, 76
15, 44633, Note_on_c, 11, 68, 0
15, 44640, Note_on_c, 11, 69, 76
15, 44813, Note_on_c, 11, 69, 0
15, 44820, Note_on_c, 11, 71, 76
15, 44873, Note_on_c, 11, 71, 0
15, 44880, Note_on_c, 11, 68, 76
15, 44894, Note_on_c, 11, 68, 0
15, 44895, Note_on_c, 11, 69, 76
15, 44909, Note_on_c, 11, 69, 0
15, 44910, Note_on_c, 11, 68, 76
15, 44924, Note_on_c, 11, 68, 0
15, 44925, Note_on_c, 11, 69, 76
15, 44939, Note_on_c, 11, 69, 0
15, 44940, Note_on_c, 11, 68, 76
15, 44954, Note_on_c, 11, 68, 0
15, 44955, Note_on_c, 11, 69, 76
15, 44969, Note_on_c, 11, 69, 0
15, 44970, Note_on_c, 11, 68, 76
15, 44984, Note_on_c, 11, 68, 0
15, 44985, Note_on_c, 11, 69, 76
15, 44999, Note_on_c, 11, 69, 0
15, 45000, Note_on_c, 11, 68, 76
15, 45014, Note_on_c, 11, 68, 0
15, 45015, Note_on_c, 11, 69, 76
15, 45029, Note_on_c, 11, 69, 0
15, 45030, Note_on_c, 11, 68, 76
15, 45044, Note_on_c, 11, 68, 0
15, 45045, Note_on_c, 11, 69, 76
15, 45059, Note_on_c, 11, 69, 0
15, 45060, Note_on_c, 11, 68, 76
15, 45074, Note_on_c, 11, 68, 0
15, 45075, Note_on_c, 11, 69, 76
15, 45089, Note_on_c, 11, 69, 0
15, 45090, Note_on_c, 11, 68, 76
15, 45104, Note_on_c, 11, 68, 0
15, 45105, Note_on_c, 11, 69, 76
15, 45119, Note_on_c, 11, 69, 0
15, 45120, Note_on_c, 11, 68, 76
15, 45134, Note_on_c, 11, 68, 0
15, 45135, Note_on_c, 11, 69, 76
15, 45149, Note_on_c, 11, 69, 0
15, 45150, Note_on_c, 11, 68, 76
15, 45164, Note_on_c, 11, 68, 0
15, 45165, Note_on_c, 11, 69, 76
15, 45179, Note_on_c, 11, 69, 0
15, 45180, Note_on_c, 11, 68, 76
15, 45194, Note_on_c, 11, 68, 0
15, 45195, Note_on_c, 11, 69, 76
15, 45209, Note_on_c, 11, 69, 0
15, 45210, Note_on_c, 11, 66, 76
15, 45224, Note_on_c, 11, 66, 0
15, 45225, Note_on_c, 11, 68, 76
15, 45239, Note_on_c, 11, 68, 0
15, 45240, Note_on_c, 11, 64, 76
15, 45349, Note_on_c, 11, 64, 0
15, 45360, Note_on_c, 11, 69, 76
15, 45584, Note_on_c, 11, 69, 0
15, 45600, Note_on_c, 11, 76, 76
15, 45704, Note_on_c, 11, 76, 0
15, 45720, Note_on_c, 11, 76, 76
15, 45839, Note_on_c, 11, 76, 0
15, 45840, Note_on_c, 11, 78, 76
15, 45944, Note_on_c, 11, 78, 0
15, 45960, Note_on_c, 11, 74, 76
15, 46064, Note_on_c, 11, 74, 0
15, 46080, Note_on_c, 11, 74, 76
15, 46199, Note_on_c, 11, 74, 0
15, 46200, Note_on_c, 11, 76, 76
15, 46319, Note_on_c, 11, 76, 0
15, 46320, Note_on_c, 11, 73, 76
15, 46424, Note_on_c, 11, 73, 0
15, 46440, Note_on_c, 11, 73, 76
15, 46559, Note_on_c, 11, 73, 0
15, 46560, Note_on_c, 11, 74, 76
15, 46679, Note_on_c, 11, 74, 0
15, 46680, Note_on_c, 11, 76, 76
15, 46779, Note_on_c, 11, 76, 0
15, 46800, Note_on_c, 11, 78, 76
15, 46919, Note_on_c, 11, 78, 0
15, 46920, Note_on_c, 11, 79, 76
15, 47019, Note_on_c, 11, 79, 0
15, 47040, Note_on_c, 11, 76, 76
15, 47139, Note_on_c, 11, 76, 0
15, 47160, Note_on_c, 11, 76, 76
15, 47279, Note_on_c, 11, 76, 0
15, 47280, Note_on_c, 11, 78, 76
15, 47379, Note_on_c, 11, 78, 0
15, 47400, Note_on_c, 11, 74, 76
15, 47499, Note_on_c, 11, 74, 0
15, 47520, Note_on_c, 11, 74, 76
15, 47774, Note_on_c, 11, 74, 0
15, 47790, Note_on_c, 11, 74, 76
15, 47864, Note_on_c, 11, 74, 0
15, 47880, Note_on_c, 11, 74, 76
15, 48134, Note_on_c, 11, 74, 0
15, 48150, Note_on_c, 11, 74, 76
15, 48224, Note_on_c, 11, 74, 0
15, 48240, Note_on_c, 11, 74, 76
15, 48494, Note_on_c, 11, 74, 0
15, 48510, Note_on_c, 11, 74, 76
15, 48584, Note_on_c, 11, 74, 0
15, 48600, Note_on_c, 11, 74, 76
15, 48719, Note_on_c, 11, 74, 0
15, 48720, Note_on_c, 11, 71, 76
15, 48839, Note_on_c, 11, 71, 0
15, 48840, Note_on_c, 11, 73, 76
15, 48939, Note_on_c, 11, 73, 0
15, 48960, Note_on_c, 11, 74, 76
15, 49079, Note_on_c, 11, 74, 0
15, 49080, Note_on_c, 11, 83, 76
15, 49179, Note_on_c, 11, 83, 0
15, 49200, Note_on_c, 11, 73, 76
15, 49299, Note_on_c, 11, 73, 0
15, 49320, Note_on_c, 11, 74, 76
15, 49439, Note_on_c, 11, 74, 0
15, 49440, Note_on_c, 11, 73, 76
15, 49559, Note_on_c, 11, 73, 0
15, 49560, Note_on_c, 11, 71, 76
15, 49659, Note_on_c, 11, 71, 0
15, 49680, Note_on_c, 11, 73, 76
15, 49799, Note_on_c, 11, 73, 0
15, 49800, Note_on_c, 11, 76, 76
15, 49919, Note_on_c, 11, 76, 0
15, 49920, Note_on_c, 11, 74, 76
15, 50019, Note_on_c, 11, 74, 0
15, 50040, Note_on_c, 11, 76, 76
15, 50294, Note_on_c, 11, 76, 0
15, 50310, Note_on_c, 11, 74, 76
15, 50384, Note_on_c, 11, 74, 0
15, 50400, Note_on_c, 11, 76, 76
15, 50654, Note_on_c, 11, 76, 0
15, 50670, Note_on_c, 11, 73, 76
15, 50744, Note_on_c, 11, 73, 0
15, 50760, Note_on_c, 11, 74, 76
15, 50879, Note_on_c, 11, 74, 0
15, 50880, Note_on_c, 11, 73, 76
15, 50999, Note_on_c, 11, 73, 0
15, 51000, Note_on_c, 11, 74, 76
15, 51099, Note_on_c, 11, 74, 0
15, 51120, Note_on_c, 11, 74, 76
15, 51374, Note_on_c, 11, 74, 0
15, 51390, Note_on_c, 11, 66, 76
15, 51464, Note_on_c, 11, 66, 0
15, 51480, Note_on_c, 11, 69, 76
15, 51734, Note_on_c, 11, 69, 0
15, 51750, Note_on_c, 11, 74, 76
15, 51824, Note_on_c, 11, 74, 0
15, 51840, Note_on_c, 11, 74, 76
15, 51959, Note_on_c, 11, 74, 0
15, 51960, Note_on_c, 11, 76, 76
15, 52079, Note_on_c, 11, 76, 0
15, 52080, Note_on_c, 11, 74, 76
15, 52179, Note_on_c, 11, 74, 0
15, 52200, Note_on_c, 11, 73, 76
15, 52319, Note_on_c, 11, 73, 0
15, 52320, Note_on_c, 11, 74, 76
15, 52419, Note_on_c, 11, 74, 0
15, 52440, Note_on_c, 11, 71, 76
15, 52539, Note_on_c, 11, 71, 0
15, 52560, Note_on_c, 11, 71, 76
15, 52679, Note_on_c, 11, 71, 0
15, 52680, Note_on_c, 11, 73, 76
15, 52779, Note_on_c, 11, 73, 0
15, 52800, Note_on_c, 11, 69, 76
15, 52899, Note_on_c, 11, 69, 0
15, 52920, Note_on_c, 11, 69, 76
15, 53174, Note_on_c, 11, 69, 0
15, 53190, Note_on_c, 11, 81, 76
15, 53264, Note_on_c, 11, 81, 0
15, 53280, Note_on_c, 11, 76, 76
15, 53534, Note_on_c, 11, 76, 0
15, 53550, Note_on_c, 11, 73, 76
15, 53624, Note_on_c, 11, 73, 0
15, 53640, Note_on_c, 11, 69, 76
15, 53894, Note_on_c, 11, 69, 0
15, 53910, Note_on_c, 11, 69, 76
15, 53984, Note_on_c, 11, 69, 0
15, 54000, Note_on_c, 11, 69, 76
15, 54119, Note_on_c, 11, 69, 0
15, 54120, Note_on_c, 11, 71, 76
15, 54239, Note_on_c, 11, 71, 0
15, 54240, Note_on_c, 11, 73, 76
15, 54339, Note_on_c, 11, 73, 0
15, 54360, Note_on_c, 11, 74, 76
15, 54614, Note_on_c, 11, 74, 0
15, 54630, Note_on_c, 11, 76, 76
15, 54704, Note_on_c, 11, 76, 0
15, 54720, Note_on_c, 11, 73, 76
15, 54749, Note_on_c, 11, 73, 0
15, 54750, Note_on_c, 11, 74, 76
15, 54779, Note_on_c, 11, 74, 0
15, 54780, Note_on_c, 11, 73, 76
15, 54809, Note_on_c, 11, 73, 0
15, 54810, Note_on_c, 11, 74, 76
15, 54839, Note_on_c, 11, 74, 0
15, 54840, Note_on_c, 11, 73, 76
15, 54869, Note_on_c, 11, 73, 0
15, 54870, Note_on_c, 11, 74, 76
15, 54899, Note_on_c, 11, 74, 0
15, 54900, Note_on_c, 11, 71, 76
15, 54929, Note_on_c, 11, 71, 0
15, 54930, Note_on_c, 11, 73, 76
15, 54959, Note_on_c, 11, 73, 0
15, 54990, Note_on_c, 11, 69, 76
15, 55064, Note_on_c, 11, 69, 0
15, 55080, Note_on_c, 11, 69, 76
15, 55199, Note_on_c, 11, 69, 0
15, 55200, Note_on_c, 11, 71, 76
15, 55319, Note_on_c, 11, 71, 0
15, 55320, Note_on_c, 11, 69, 76
15, 55419, Note_on_c, 11, 69, 0
15, 55440, Note_on_c, 11, 68, 76
15, 55559, Note_on_c, 11, 68, 0
15, 55560, Note_on_c, 11, 69, 76
15, 55659, Note_on_c, 11, 69, 0
15, 55680, Note_on_c, 11, 66, 76
15, 55779, Note_on_c, 11, 66, 0
15, 55800, Note_on_c, 11, 66, 76
15, 55919, Note_on_c, 11, 66, 0
15, 55920, Note_on_c, 11, 68, 76
15, 56019, Note_on_c, 11, 68, 0
15, 56040, Note_on_c, 11, 64, 76
15, 56139, Note_on_c, 11, 64, 0
15, 56160, Note_on_c, 11, 64, 76
15, 56519, Note_on_c, 11, 64, 0
15, 56760, Note_on_c, 11, 76, 76
15, 56859, Note_on_c, 11, 76, 0
15, 56880, Note_on_c, 11, 71, 76
15, 57134, Note_on_c, 11, 71, 0
15, 57150, Note_on_c, 11, 71, 76
15, 57224, Note_on_c, 11, 71, 0
15, 57240, Note_on_c, 11, 69, 76
15, 57599, Note_on_c, 11, 69, 0
15, 57840, Note_on_c, 11, 74, 76
15, 57939, Note_on_c, 11, 74, 0
15, 57960, Note_on_c, 11, 69, 76
15, 58214, Note_on_c, 11, 69, 0
15, 58230, Note_on_c, 11, 69, 76
15, 58304, Note_on_c, 11, 69, 0
15, 58320, Note_on_c, 11, 67, 76
15, 58439, Note_on_c, 11, 67, 0
15, 58680, Note_on_c, 11, 73, 76
15, 58799, Note_on_c, 11, 73, 0
15, 59040, Note_on_c, 11, 75, 76
15, 59159, Note_on_c, 11, 75, 0
15, 59400, Note_on_c, 11, 76, 76
15, 59654, Note_on_c, 11, 76, 0
15, 59670, Note_on_c, 11, 76, 76
15, 59744, Note_on_c, 11, 76, 0
15, 59760, Note_on_c, 11, 76, 76
15, 59879, Note_on_c, 11, 76, 0
15, 59880, Note_on_c, 11, 78, 76
15, 59979, Note_on_c, 11, 78, 0
15, 60000, Note_on_c, 11, 74, 76
15, 60099, Note_on_c, 11, 74, 0
15, 60120, Note_on_c, 11, 74, 76
15, 60239, Note_on_c, 11, 74, 0
15, 60240, Note_on_c, 11, 76, 76
15, 60339, Note_on_c, 11, 76, 0
15, 60360, Note_on_c, 11, 73, 76
15, 60459, Note_on_c, 11, 73, 0
15, 60480, Note_on_c, 11, 73, 76
15, 60599, Note_on_c, 11, 73, 0
15, 60600, Note_on_c, 11, 69, 76
15, 60719, Note_on_c, 11, 69, 0
15, 60720, Note_on_c, 11, 71, 76
15, 60819, Note_on_c, 11, 71, 0
15, 60840, Note_on_c, 11, 73, 76
15, 60959, Note_on_c, 11, 73, 0
15, 60960, Note_on_c, 11, 74, 76
15, 61059, Note_on_c, 11, 74, 0
15, 61080, Note_on_c, 11, 76, 76
15, 61179, Note_on_c, 11, 76, 0
15, 61200, Note_on_c, 11, 69, 76
15, 61454, Note_on_c, 11, 69, 0
15, 61470, Note_on_c, 11, 73, 76
15, 61544, Note_on_c, 11, 73, 0
15, 61560, Note_on_c, 11, 62, 76
15, 61679, Note_on_c, 11, 62, 0
15, 61680, Note_on_c, 11, 66, 76
15, 61799, Note_on_c, 11, 66, 0
15, 61800, Note_on_c, 11, 69, 76
15, 61899, Note_on_c, 11, 69, 0
15, 61920, Note_on_c, 11, 74, 76
15, 62039, Note_on_c, 11, 74, 0
15, 62040, Note_on_c, 11, 76, 76
15, 62139, Note_on_c, 11, 76, 0
15, 62160, Note_on_c, 11, 72, 76
15, 62259, Note_on_c, 11, 72, 0
15, 62280, Note_on_c, 11, 72, 76
15, 62399, Note_on_c, 11, 72, 0
15, 62400, Note_on_c, 11, 74, 76
15, 62499, Note_on_c, 11, 74, 0
15, 62520, Note_on_c, 11, 71, 76
15, 62619, Note_on_c, 11, 71, 0
15, 62640, Note_on_c, 11, 71, 76
15, 62759, Note_on_c, 11, 71, 0
15, 62760, Note_on_c, 11, 67, 76
15, 62879, Note_on_c, 11, 67, 0
15, 62880, Note_on_c, 11, 71, 76
15, 62979, Note_on_c, 11, 71, 0
15, 63000, Note_on_c, 11, 76, 76
15, 63119, Note_on_c, 11, 76, 0
15, 63120, Note_on_c, 11, 78, 76
15, 63219, Note_on_c, 11, 78, 0
15, 63240, Note_on_c, 11, 74, 76
15, 63339, Note_on_c, 11, 74, 0
15, 63360, Note_on_c, 11, 74, 76
15, 63479, Note_on_c, 11, 74, 0
15, 63480, Note_on_c, 11, 76, 76
15, 63579, Note_on_c, 11, 76, 0
15, 63600, Note_on_c, 11, 73, 76
15, 63699, Note_on_c, 11, 73, 0
15, 63720, Note_on_c, 11, 73, 76
15, 63839, Note_on_c, 11, 73, 0
15, 63840, Note_on_c, 11, 74, 76
15, 63959, Note_on_c, 11, 74, 0
15, 63960, Note_on_c, 11, 76, 76
15, 64059, Note_on_c, 11, 76, 0
15, 64080, Note_on_c, 11, 78, 76
15, 64199, Note_on_c, 11, 78, 0
15, 64200, Note_on_c, 11, 79, 76
15, 64299, Note_on_c, 11, 79, 0
15, 64320, Note_on_c, 11, 76, 76
15, 64419, Note_on_c, 11, 76, 0
15, 64440, Note_on_c, 11, 76, 76
15, 64559, Note_on_c, 11, 76, 0
15, 64560, Note_on_c, 11, 78, 76
15, 64659, Note_on_c, 11, 78, 0
15, 64680, Note_on_c, 11, 74, 76
15, 64779, Note_on_c, 11, 74, 0
15, 64800, Note_on_c, 11, 74, 76
15, 64919, Note_on_c, 11, 74, 0
15, 65430, Note_on_c, 11, 73, 76
15, 65504, Note_on_c, 11, 73, 0
15, 65520, Note_on_c, 11, 73, 76
15, 65774, Note_on_c, 11, 73, 0
15, 65790, Note_on_c, 11, 75, 76
15, 65864, Note_on_c, 11, 75, 0
15, 65880, Note_on_c, 11, 76, 76
15, 66134, Note_on_c, 11, 76, 0
15, 66150, Note_on_c, 11, 76, 76
15, 66224, Note_on_c, 11, 76, 0
15, 66240, Note_on_c, 11, 76, 76
15, 66494, Note_on_c, 11, 76, 0
15, 66510, Note_on_c, 11, 76, 76
15, 66584, Note_on_c, 11, 76, 0
15, 66600, Note_on_c, 11, 76, 76
15, 66854, Note_on_c, 11, 76, 0
15, 66870, Note_on_c, 11, 76, 76
15, 66944, Note_on_c, 11, 76, 0
15, 66960, Note_on_c, 11, 76, 76
15, 67079, Note_on_c, 11, 76, 0
15, 67080, Note_on_c, 11, 73, 76
15, 67199, Note_on_c, 11, 73, 0
15, 67200, Note_on_c, 11, 74, 76
15, 67299, Note_on_c, 11, 74, 0
15, 67320, Note_on_c, 11, 76, 76
15, 67439, Note_on_c, 11, 76, 0
15, 67440, Note_on_c, 11, 73, 76
15, 67539, Note_on_c, 11, 73, 0
15, 67560, Note_on_c, 11, 74, 76
15, 67659, Note_on_c, 11, 74, 0
15, 67680, Note_on_c, 11, 76, 76
15, 67799, Note_on_c, 11, 76, 0
15, 67800, Note_on_c, 11, 74, 76
15, 67919, Note_on_c, 11, 74, 0
15, 67920, Note_on_c, 11, 73, 76
15, 68019, Note_on_c, 11, 73, 0
15, 68040, Note_on_c, 11, 74, 76
15, 68294, Note_on_c, 11, 74, 0
15, 68310, Note_on_c, 11, 73, 76
15, 68384, Note_on_c, 11, 73, 0
15, 68400, Note_on_c, 11, 74, 76
15, 68654, Note_on_c, 11, 74, 0
15, 68670, Note_on_c, 11, 71, 76
15, 68744, Note_on_c, 11, 71, 0
15, 68760, Note_on_c, 11, 69, 76
15, 69014, Note_on_c, 11, 69, 0
15, 69030, Note_on_c, 11, 69, 76
15, 69104, Note_on_c, 11, 69, 0
15, 69120, Note_on_c, 11, 69, 76
15, 69374, Note_on_c, 11, 69, 0
15, 69390, Note_on_c, 11, 69, 76
15, 69464, Note_on_c, 11, 69, 0
15, 69480, Note_on_c, 11, 69, 76
15, 69734, Note_on_c, 11, 69, 0
15, 69750, Note_on_c, 11, 69, 76
15, 69824, Note_on_c, 11, 69, 0
15, 69840, Note_on_c, 11, 69, 76
15, 69959, Note_on_c, 11, 69, 0
15, 70470, Note_on_c, 11, 57, 76
15, 70544, Note_on_c, 11, 57, 0
15, 70560, Note_on_c, 11, 57, 76
15, 70814, Note_on_c, 11, 57, 0
15, 70830, Note_on_c, 11, 57, 76
15, 70904, Note_on_c, 11, 57, 0
15, 70920, Note_on_c, 11, 57, 76
15, 71039, Note_on_c, 11, 57, 0
15, 92070, Note_on_c, 11, 64, 76
15, 92144, Note_on_c, 11, 64, 0
15, 92160, Note_on_c, 11, 64, 76
15, 92414, Note_on_c, 11, 64, 0
15, 92430, Note_on_c, 11, 64, 76
15, 92504, Note_on_c, 11, 64, 0
15, 92520, Note_on_c, 11, 64, 76
15, 92774, Note_on_c, 11, 64, 0
15, 92790, Note_on_c, 11, 64, 76
15, 92864, Note_on_c, 11, 64, 0
15, 92880, Note_on_c, 11, 64, 76
15, 93134, Note_on_c, 11, 64, 0
15, 93150, Note_on_c, 11, 64, 76
15, 93224, Note_on_c, 11, 64, 0
15, 93240, Note_on_c, 11, 64, 76
15, 93494, Note_on_c, 11, 64, 0
15, 93510, Note_on_c, 11, 64, 76
15, 93584, Note_on_c, 11, 64, 0
15, 93600, Note_on_c, 11, 64, 76
15, 93854, Note_on_c, 11, 64, 0
15, 93870, Note_on_c, 11, 64, 76
15, 93944, Note_on_c, 11, 64, 0
15, 93960, Note_on_c, 11, 64, 76
15, 94079, Note_on_c, 11, 64, 0
15, 94080, Note_on_c, 11, 71, 76
15, 94179, Note_on_c, 11, 71, 0
15, 94200, Note_on_c, 11, 69, 76
15, 94299, Note_on_c, 11, 69, 0
15, 94320, Note_on_c, 11, 71, 76
15, 94574, Note_on_c, 11, 71, 0
15, 94590, Note_on_c, 11, 69, 76
15, 94664, Note_on_c, 11, 69, 0
15, 94680, Note_on_c, 11, 71, 76
15, 94934, Note_on_c, 11, 71, 0
15, 94950, Note_on_c, 11, 68, 76
15, 95024, Note_on_c, 11, 68, 0
15, 95040, Note_on_c, 11, 69, 76
15, 95159, Note_on_c, 11, 69, 0
15, 95160, Note_on_c, 11, 68, 76
15, 95279, Note_on_c, 11, 68, 0
15, 95280, Note_on_c, 11, 69, 76
15, 95379, Note_on_c, 11, 69, 0
15, 95400, Note_on_c, 11, 69, 76
15, 95654, Note_on_c, 11, 69, 0
15, 95670, Note_on_c, 11, 73, 76
15, 95744, Note_on_c, 11, 73, 0
15, 95760, Note_on_c, 11, 71, 76
15, 96014, Note_on_c, 11, 71, 0
15, 96030, Note_on_c, 11, 69, 76
15, 96104, Note_on_c, 11, 69, 0
15, 96120, Note_on_c, 11, 69, 76
15, 96239, Note_on_c, 11, 69, 0
15, 96240, Note_on_c, 11, 71, 76
15, 96359, Note_on_c, 11, 71, 0
15, 96360, Note_on_c, 11, 69, 76
15, 96459, Note_on_c, 11, 69, 0
15, 96480, Note_on_c, 11, 68, 76
15, 96599, Note_on_c, 11, 68, 0
15, 96600, Note_on_c, 11, 69, 76
15, 96699, Note_on_c, 11, 69, 0
15, 96720, Note_on_c, 11, 66, 76
15, 96819, Note_on_c, 11, 66, 0
15, 96840, Note_on_c, 11, 66, 76
15, 96959, Note_on_c, 11, 66, 0
15, 96960, Note_on_c, 11, 68, 76
15, 97059, Note_on_c, 11, 68, 0
15, 97080, Note_on_c, 11, 64, 76
15, 97179, Note_on_c, 11, 64, 0
15, 97200, Note_on_c, 11, 64, 76
15, 97454, Note_on_c, 11, 64, 0
15, 97470, Note_on_c, 11, 76, 76
15, 97544, Note_on_c, 11, 76, 0
15, 97560, Note_on_c, 11, 71, 76
15, 97814, Note_on_c, 11, 71, 0
15, 97830, Note_on_c, 11, 68, 76
15, 97904, Note_on_c, 11, 68, 0
15, 97920, Note_on_c, 11, 64, 76
15, 98174, Note_on_c, 11, 64, 0
15, 98190, Note_on_c, 11, 64, 76
15, 98264, Note_on_c, 11, 64, 0
15, 98280, Note_on_c, 11, 64, 76
15, 98399, Note_on_c, 11, 64, 0
15, 98400, Note_on_c, 11, 69, 76
15, 98519, Note_on_c, 11, 69, 0
15, 98520, Note_on_c, 11, 71, 76
15, 98619, Note_on_c, 11, 71, 0
15, 98640, Note_on_c, 11, 73, 76
15, 98759, Note_on_c, 11, 73, 0
15, 98760, Note_on_c, 11, 74, 76
15, 98859, Note_on_c, 11, 74, 0
15, 98880, Note_on_c, 11, 71, 76
15, 98979, Note_on_c, 11, 71, 0
15, 99000, Note_on_c, 11, 71, 76
15, 99119, Note_on_c, 11, 71, 0
15, 99120, Note_on_c, 11, 73, 76
15, 99219, Note_on_c, 11, 73, 0
15, 99240, Note_on_c, 11, 69, 76
15, 99339, Note_on_c, 11, 69, 0
15, 99360, Note_on_c, 11, 69, 76
15, 99614, Note_on_c, 11, 69, 0
15, 99630, Note_on_c, 11, 69, 76
15, 99704, Note_on_c, 11, 69, 0
15, 99720, Note_on_c, 11, 69, 76
15, 99974, Note_on_c, 11, 69, 0
15, 99990, Note_on_c, 11, 69, 76
15, 100064, Note_on_c, 11, 69, 0
15, 100080, Note_on_c, 11, 69, 76
15, 100334, Note_on_c, 11, 69, 0
15, 100350, Note_on_c, 11, 69, 76
15, 100424, Note_on_c, 11, 69, 0
15, 100440, Note_on_c, 11, 69, 76
15, 100559, Note_on_c, 11, 69, 0
15, 100560, Note_on_c, 11, 66, 76
15, 100679, Note_on_c, 11, 66, 0
15, 100680, Note_on_c, 11, 68, 76
15, 100799, Note_on_c, 11, 68, 0
15, 100800, Note_on_c, 11, 69, 76
15, 100919, Note_on_c, 11, 69, 0
15, 100920, Note_on_c, 11, 78, 76
15, 101019, Note_on_c, 11, 78, 0
15, 101040, Note_on_c, 11, 68, 76
15, 101139, Note_on_c, 11, 68, 0
15, 101160, Note_on_c, 11, 69, 76
15, 101279, Note_on_c, 11, 69, 0
15, 101280, Note_on_c, 11, 68, 76
15, 101399, Note_on_c, 11, 68, 0
15, 101400, Note_on_c, 11, 66, 76
15, 101499, Note_on_c, 11, 66, 0
15, 101520, Note_on_c, 11, 68, 76
15, 101639, Note_on_c, 11, 68, 0
15, 101640, Note_on_c, 11, 64, 76
15, 101759, Note_on_c, 11, 64, 0
15, 101760, Note_on_c, 11, 66, 76
15, 101879, Note_on_c, 11, 66, 0
15, 101880, Note_on_c, 11, 67, 76
15, 101999, Note_on_c, 11, 67, 0
15, 102000, Note_on_c, 11, 76, 76
15, 102099, Note_on_c, 11, 76, 0
15, 102120, Note_on_c, 11, 66, 76
15, 102219, Note_on_c, 11, 66, 0
15, 102240, Note_on_c, 11, 67, 76
15, 102359, Note_on_c, 11, 67, 0
15, 102360, Note_on_c, 11, 66, 76
15, 102479, Note_on_c, 11, 66, 0
15, 102480, Note_on_c, 11, 64, 76
15, 102579, Note_on_c, 11, 64, 0
15, 102600, Note_on_c, 11, 66, 76
15, 102854, Note_on_c, 11, 66, 0
15, 102870, Note_on_c, 11, 78, 76
15, 102944, Note_on_c, 11, 78, 0
15, 102960, Note_on_c, 11, 78, 76
15, 103079, Note_on_c, 11, 78, 0
15, 103080, Note_on_c, 11, 79, 76
15, 103179, Note_on_c, 11, 79, 0
15, 103200, Note_on_c, 11, 76, 76
15, 103299, Note_on_c, 11, 76, 0
15, 103320, Note_on_c, 11, 76, 76
15, 103439, Note_on_c, 11, 76, 0
15, 103440, Note_on_c, 11, 78, 76
15, 103539, Note_on_c, 11, 78, 0
15, 103560, Note_on_c, 11, 75, 76
15, 103659, Note_on_c, 11, 75, 0
15, 103680, Note_on_c, 11, 75, 76
15, 103799, Note_on_c, 11, 75, 0
15, 103800, Note_on_c, 11, 71, 76
15, 103919, Note_on_c, 11, 71, 0
15, 103920, Note_on_c, 11, 73, 76
15, 104039, Note_on_c, 11, 73, 0
15, 104040, Note_on_c, 11, 75, 76
15, 104159, Note_on_c, 11, 75, 0
15, 104160, Note_on_c, 11, 76, 76
15, 104259, Note_on_c, 11, 76, 0
15, 104280, Note_on_c, 11, 78, 76
15, 104379, Note_on_c, 11, 78, 0
15, 104400, Note_on_c, 11, 71, 76
15, 104654, Note_on_c, 11, 71, 0
15, 104670, Note_on_c, 11, 75, 76
15, 104744, Note_on_c, 11, 75, 0
15, 104760, Note_on_c, 11, 64, 76
15, 104879, Note_on_c, 11, 64, 0
15, 104880, Note_on_c, 11, 68, 76
15, 104999, Note_on_c, 11, 68, 0
15, 105000, Note_on_c, 11, 71, 76
15, 105099, Note_on_c, 11, 71, 0
15, 105120, Note_on_c, 11, 76, 76
15, 105239, Note_on_c, 11, 76, 0
15, 105240, Note_on_c, 11, 78, 76
15, 105339, Note_on_c, 11, 78, 0
15, 105360, Note_on_c, 11, 74, 76
15, 105459, Note_on_c, 11, 74, 0
15, 105480, Note_on_c, 11, 74, 76
15, 105599, Note_on_c, 11, 74, 0
15, 105600, Note_on_c, 11, 76, 76
15, 105699, Note_on_c, 11, 76, 0
15, 105720, Note_on_c, 11, 73, 76
15, 105819, Note_on_c, 11, 73, 0
15, 105840, Note_on_c, 11, 73, 76
15, 105959, Note_on_c, 11, 73, 0
15, 105960, Note_on_c, 11, 69, 76
15, 106079, Note_on_c, 11, 69, 0
15, 106080, Note_on_c, 11, 71, 76
15, 106199, Note_on_c, 11, 71, 0
15, 106200, Note_on_c, 11, 73, 76
15, 106319, Note_on_c, 11, 73, 0
15, 106320, Note_on_c, 11, 74, 76
15, 106419, Note_on_c, 11, 74, 0
15, 106440, Note_on_c, 11, 76, 76
15, 106539, Note_on_c, 11, 76, 0
15, 106560, Note_on_c, 11, 69, 76
15, 106814, Note_on_c, 11, 69, 0
15, 106830, Note_on_c, 11, 73, 76
15, 106904, Note_on_c, 11, 73, 0
15, 106920, Note_on_c, 11, 62, 76
15, 107039, Note_on_c, 11, 62, 0
15, 107040, Note_on_c, 11, 66, 76
15, 107159, Note_on_c, 11, 66, 0
15, 107160, Note_on_c, 11, 69, 76
15, 107259, Note_on_c, 11, 69, 0
15, 107280, Note_on_c, 11, 74, 76
15, 107399, Note_on_c, 11, 74, 0
15, 107400, Note_on_c, 11, 76, 76
15, 107499, Note_on_c, 11, 76, 0
15, 107520, Note_on_c, 11, 73, 76
15, 107619, Note_on_c, 11, 73, 0
15, 107640, Note_on_c, 11, 73, 76
15, 107759, Note_on_c, 11, 73, 0
15, 107760, Note_on_c, 11, 74, 76
15, 107859, Note_on_c, 11, 74, 0
15, 107880, Note_on_c, 11, 71, 76
15, 107979, Note_on_c, 11, 71, 0
15, 108000, Note_on_c, 11, 71, 76
15, 108119, Note_on_c, 11, 71, 0
15, 108120, Note_on_c, 11, 73, 76
15, 108239, Note_on_c, 11, 73, 0
15, 108240, Note_on_c, 11, 74, 76
15, 108339, Note_on_c, 11, 74, 0
15, 108360, Note_on_c, 11, 76, 76
15, 108479, Note_on_c, 11, 76, 0
15, 108480, Note_on_c, 11, 78, 76
15, 108579, Note_on_c, 11, 78, 0
15, 108600, Note_on_c, 11, 74, 76
15, 108699, Note_on_c, 11, 74, 0
15, 108720, Note_on_c, 11, 74, 76
15, 108839, Note_on_c, 11, 74, 0
15, 108840, Note_on_c, 11, 76, 76
15, 108939, Note_on_c, 11, 76, 0
15, 108960, Note_on_c, 11, 73, 76
15, 109059, Note_on_c, 11, 73, 0
15, 109080, Note_on_c, 11, 73, 76
15, 109199, Note_on_c, 11, 73, 0
15, 109200, Note_on_c, 11, 74, 76
15, 109319, Note_on_c, 11, 74, 0
15, 109320, Note_on_c, 11, 76, 76
15, 109419, Note_on_c, 11, 76, 0
15, 109440, Note_on_c, 11, 78, 76
15, 109559, Note_on_c, 11, 78, 0
15, 109560, Note_on_c, 11, 79, 76
15, 109659, Note_on_c, 11, 79, 0
15, 109680, Note_on_c, 11, 76, 76
15, 109779, Note_on_c, 11, 76, 0
15, 109800, Note_on_c, 11, 76, 76
15, 109919, Note_on_c, 11, 76, 0
15, 109920, Note_on_c, 11, 78, 76
15, 110019, Note_on_c, 11, 78, 0
15, 110040, Note_on_c, 11, 74, 76
15, 110139, Note_on_c, 11, 74, 0
15, 110160, Note_on_c, 11, 74, 76
15, 110414, Note_on_c, 11, 74, 0
15, 110430, Note_on_c, 11, 74, 76
15, 110504, Note_on_c, 11, 74, 0
15, 110520, Note_on_c, 11, 74, 76
15, 110774, Note_on_c, 11, 74, 0
15, 110790, Note_on_c, 11, 74, 76
15, 110864, Note_on_c, 11, 74, 0
15, 110880, Note_on_c, 11, 74, 76
15, 111134, Note_on_c, 11, 74, 0
15, 111150, Note_on_c, 11, 74, 76
15, 111224, Note_on_c, 11, 74, 0
15, 111240, Note_on_c, 11, 74, 76
15, 111359, Note_on_c, 11, 74, 0
15, 111360, Note_on_c, 11, 71, 76
15, 111479, Note_on_c, 11, 71, 0
15, 111480, Note_on_c, 11, 73, 76
15, 111599, Note_on_c, 11, 73, 0
15, 111600, Note_on_c, 11, 74, 76
15, 111719, Note_on_c, 11, 74, 0
15, 111720, Note_on_c, 11, 76, 76
15, 111819, Note_on_c, 11, 76, 0
15, 111840, Note_on_c, 11, 73, 76
15, 111939, Note_on_c, 11, 73, 0
15, 111960, Note_on_c, 11, 74, 76
15, 112079, Note_on_c, 11, 74, 0
15, 112080, Note_on_c, 11, 73, 76
15, 112199, Note_on_c, 11, 73, 0
15, 112200, Note_on_c, 11, 71, 76
15, 112299, Note_on_c, 11, 71, 0
15, 112320, Note_on_c, 11, 73, 76
15, 112439, Note_on_c, 11, 73, 0
15, 112440, Note_on_c, 11, 76, 76
15, 112539, Note_on_c, 11, 76, 0
15, 112560, Note_on_c, 11, 74, 76
15, 112659, Note_on_c, 11, 74, 0
15, 112680, Note_on_c, 11, 76, 76
15, 112934, Note_on_c, 11, 76, 0
15, 112950, Note_on_c, 11, 69, 76
15, 113024, Note_on_c, 11, 69, 0
15, 113040, Note_on_c, 11, 64, 76
15, 113294, Note_on_c, 11, 64, 0
15, 113310, Note_on_c, 11, 68, 76
15, 113384, Note_on_c, 11, 68, 0
15, 113400, Note_on_c, 11, 64, 76
15, 113654, Note_on_c, 11, 64, 0
15, 113670, Note_on_c, 11, 64, 76
15, 113744, Note_on_c, 11, 64, 0
15, 113760, Note_on_c, 11, 64, 76
15, 113879, Note_on_c, 11, 64, 0
15, 113880, Note_on_c, 11, 69, 76
15, 113979, Note_on_c, 11, 69, 0
15, 114000, Note_on_c, 11, 68, 76
15, 114099, Note_on_c, 11, 68, 0
15, 114120, Note_on_c, 11, 68, 76
15, 114239, Note_on_c, 11, 68, 0
15, 114240, Note_on_c, 11, 71, 76
15, 114339, Note_on_c, 11, 71, 0
15, 114360, Note_on_c, 11, 69, 76
15, 114459, Note_on_c, 11, 69, 0
15, 114480, Note_on_c, 11, 69, 76
15, 114599, Note_on_c, 11, 69, 0
15, 115830, Note_on_c, 11, 73, 76
15, 115904, Note_on_c, 11, 73, 0
15, 115920, Note_on_c, 11, 73, 76
15, 116039, Note_on_c, 11, 73, 0
15, 116040, Note_on_c, 11, 76, 76
15, 116139, Note_on_c, 11, 76, 0
15, 116160, Note_on_c, 11, 74, 76
15, 116259, Note_on_c, 11, 74, 0
15, 116280, Note_on_c, 11, 74, 76
15, 116399, Note_on_c, 11, 74, 0
15, 116400, Note_on_c, 11, 78, 76
15, 116499, Note_on_c, 11, 78, 0
15, 116520, Note_on_c, 11, 76, 76
15, 116619, Note_on_c, 11, 76, 0
15, 116640, Note_on_c, 11, 76, 76
15, 116894, Note_on_c, 11, 76, 0
15, 116910, Note_on_c, 11, 73, 76
15, 116984, Note_on_c, 11, 73, 0
15, 117000, Note_on_c, 11, 76, 76
15, 117254, Note_on_c, 11, 76, 0
15, 117270, Note_on_c, 11, 73, 76
15, 117344, Note_on_c, 11, 73, 0
15, 117360, Note_on_c, 11, 69, 76
15, 117614, Note_on_c, 11, 69, 0
15, 117630, Note_on_c, 11, 73, 76
15, 117704, Note_on_c, 11, 73, 0
15, 117720, Note_on_c, 11, 74, 76
15, 117839, Note_on_c, 11, 74, 0
15, 119070, Note_on_c, 11, 74, 76
15, 119144, Note_on_c, 11, 74, 0
15, 119160, Note_on_c, 11, 74, 76
15, 119279, Note_on_c, 11, 74, 0
15, 119280, Note_on_c, 11, 78, 76
15, 119379, Note_on_c, 11, 78, 0
15, 119400, Note_on_c, 11, 76, 76
15, 119499, Note_on_c, 11, 76, 0
15, 119520, Note_on_c, 11, 76, 76
15, 119639, Note_on_c, 11, 76, 0
15, 119640, Note_on_c, 11, 79, 76
15, 119739, Note_on_c, 11, 79, 0
15, 119760, Note_on_c, 11, 78, 76
15, 119859, Note_on_c, 11, 78, 0
15, 119880, Note_on_c, 11, 78, 76
15, 119999, Note_on_c, 11, 78, 0
15, 121230, Note_on_c, 11, 66, 76
15, 121304, Note_on_c, 11, 66, 0
15, 121320, Note_on_c, 11, 69, 76
15, 121574, Note_on_c, 11, 69, 0
15, 121590, Note_on_c, 11, 66, 76
15, 121664, Note_on_c, 11, 66, 0
15, 121680, Note_on_c, 11, 62, 76
15, 121934, Note_on_c, 11, 62, 0
15, 121950, Note_on_c, 11, 66, 76
15, 122024, Note_on_c, 11, 66, 0
15, 122040, Note_on_c, 11, 67, 76
15, 122294, Note_on_c, 11, 67, 0
15, 122310, Note_on_c, 11, 66, 76
15, 122384, Note_on_c, 11, 66, 0
15, 122400, Note_on_c, 11, 67, 76
15, 122654, Note_on_c, 11, 67, 0
15, 122670, Note_on_c, 11, 69, 76
15, 122744, Note_on_c, 11, 69, 0
15, 122760, Note_on_c, 11, 69, 76
15, 122879, Note_on_c, 11, 69, 0
15, 122880, Note_on_c, 11, 71, 76
15, 122979, Note_on_c, 11, 71, 0
15, 123000, Note_on_c, 11, 68, 76
15, 123099, Note_on_c, 11, 68, 0
15, 123120, Note_on_c, 11, 68, 76
15, 123239, Note_on_c, 11, 68, 0
15, 123240, Note_on_c, 11, 69, 76
15, 123359, Note_on_c, 11, 69, 0
15, 123360, Note_on_c, 11, 71, 76
15, 123459, Note_on_c, 11, 71, 0
15, 123480, Note_on_c, 11, 69, 76
15, 123734, Note_on_c, 11, 69, 0
15, 123750, Note_on_c, 11, 71, 76
15, 123824, Note_on_c, 11, 71, 0
15, 123840, Note_on_c, 11, 71, 76
15, 123959, Note_on_c, 11, 71, 0
15, 123960, Note_on_c, 11, 73, 76
15, 124059, Note_on_c, 11, 73, 0
15, 124080, Note_on_c, 11, 70, 76
15, 124179, Note_on_c, 11, 70, 0
15, 124200, Note_on_c, 11, 70, 76
15, 124319, Note_on_c, 11, 70, 0
15, 124320, Note_on_c, 11, 71, 76
15, 124439, Note_on_c, 11, 71, 0
15, 124440, Note_on_c, 11, 73, 76
15, 124539, Note_on_c, 11, 73, 0
15, 124560, Note_on_c, 11, 71, 76
15, 124814, Note_on_c, 11, 71, 0
15, 124830, Note_on_c, 11, 73, 76
15, 124904, Note_on_c, 11, 73, 0
15, 124920, Note_on_c, 11, 73, 76
15, 125039, Note_on_c, 11, 73, 0
15, 125040, Note_on_c, 11, 74, 76
15, 125139, Note_on_c, 11, 74, 0
15, 125160, Note_on_c, 11, 71, 76
15, 125259, Note_on_c, 11, 71, 0
15, 125280, Note_on_c, 11, 71, 76
15, 125399, Note_on_c, 11, 71, 0
15, 125400, Note_on_c, 11, 73, 76
15, 125519, Note_on_c, 11, 73, 0
15, 125520, Note_on_c, 11, 74, 76
15, 125619, Note_on_c, 11, 74, 0
15, 125640, Note_on_c, 11, 73, 76
15, 125894, Note_on_c, 11, 73, 0
15, 125910, Note_on_c, 11, 74, 76
15, 125984, Note_on_c, 11, 74, 0
15, 126000, Note_on_c, 11, 74, 76
15, 126119, Note_on_c, 11, 74, 0
15, 126120, Note_on_c, 11, 76, 76
15, 126219, Note_on_c, 11, 76, 0
15, 126240, Note_on_c, 11, 73, 76
15, 126339, Note_on_c, 11, 73, 0
15, 126360, Note_on_c, 11, 73, 76
15, 126614, Note_on_c, 11, 73, 0
15, 126630, Note_on_c, 11, 66, 76
15, 126704, Note_on_c, 11, 66, 0
15, 126720, Note_on_c, 11, 66, 76
15, 126974, Note_on_c, 11, 66, 0
15, 126990, Note_on_c, 11, 66, 76
15, 127064, Note_on_c, 11, 66, 0
15, 127080, Note_on_c, 11, 66, 76
15, 127334, Note_on_c, 11, 66, 0
15, 127350, Note_on_c, 11, 66, 76
15, 127424, Note_on_c, 11, 66, 0
15, 127440, Note_on_c, 11, 66, 76
15, 127559, Note_on_c, 11, 66, 0
15, 127800, Note_on_c, 11, 62, 76
15, 127919, Note_on_c, 11, 62, 0
15, 128160, Note_on_c, 11, 66, 76
15, 128279, Note_on_c, 11, 66, 0
15, 128520, Note_on_c, 11, 71, 76
15, 128639, Note_on_c, 11, 71, 0
15, 128880, Note_on_c, 11, 70, 76
15, 128999, Note_on_c, 11, 70, 0
15, 129240, Note_on_c, 11, 71, 76
15, 129359, Note_on_c, 11, 71, 0
15, 129600, Note_on_c, 11, 73, 76
15, 129719, Note_on_c, 11, 73, 0
15, 129720, Note_on_c, 11, 71, 76
15, 129839, Note_on_c, 11, 71, 0
15, 129840, Note_on_c, 11, 73, 76
15, 129939, Note_on_c, 11, 73, 0
15, 129960, Note_on_c, 11, 73, 76
15, 130229, Note_on_c, 11, 73, 0
15, 130230, Note_on_c, 11, 71, 76
15, 130304, Note_on_c, 11, 71, 0
15, 130320, Note_on_c, 11, 71, 76
15, 130589, Note_on_c, 11, 71, 0
15, 130590, Note_on_c, 11, 70, 76
15, 130664, Note_on_c, 11, 70, 0
15, 130680, Note_on_c, 11, 71, 76
15, 130799, Note_on_c, 11, 71, 0
15, 131040, Note_on_c, 11, 71, 76
15, 131159, Note_on_c, 11, 71, 0
15, 131400, Note_on_c, 11, 75, 76
15, 131519, Note_on_c, 11, 75, 0
15, 131760, Note_on_c, 11, 76, 76
15, 131879, Note_on_c, 11, 76, 0
15, 132390, Note_on_c, 11, 71, 76
15, 132464, Note_on_c, 11, 71, 0
15, 132480, Note_on_c, 11, 73, 76
15, 132734, Note_on_c, 11, 73, 0
15, 132750, Note_on_c, 11, 75, 76
15, 132824, Note_on_c, 11, 75, 0
15, 132840, Note_on_c, 11, 76, 76
15, 133094, Note_on_c, 11, 76, 0
15, 133110, Note_on_c, 11, 71, 76
15, 133184, Note_on_c, 11, 71, 0
15, 133200, Note_on_c, 11, 70, 76
15, 133454, Note_on_c, 11, 70, 0
15, 133470, Note_on_c, 11, 71, 76
15, 133544, Note_on_c, 11, 71, 0
15, 133560, Note_on_c, 11, 73, 76
15, 133814, Note_on_c, 11, 73, 0
15, 133830, Note_on_c, 11, 76, 76
15, 133904, Note_on_c, 11, 76, 0
15, 133920, Note_on_c, 11, 70, 76
15, 134039, Note_on_c, 11, 70, 0
15, 134040, Note_on_c, 11, 71, 76
15, 134159, Note_on_c, 11, 71, 0
15, 134160, Note_on_c, 11, 73, 76
15, 134259, Note_on_c, 11, 73, 0
15, 134280, Note_on_c, 11, 73, 76
15, 134399, Note_on_c, 11, 73, 0
15, 134400, Note_on_c, 11, 74, 76
15, 134499, Note_on_c, 11, 74, 0
15, 134520, Note_on_c, 11, 71, 76
15, 134619, Note_on_c, 11, 71, 0
15, 134640, Note_on_c, 11, 71, 76
15, 134759, Note_on_c, 11, 71, 0
15, 134760, Note_on_c, 11, 73, 76
15, 134859, Note_on_c, 11, 73, 0
15, 134880, Note_on_c, 11, 70, 76
15, 134979, Note_on_c, 11, 70, 0
15, 135000, Note_on_c, 11, 71, 76
15, 135254, Note_on_c, 11, 71, 0
15, 135270, Note_on_c, 11, 71, 76
15, 135344, Note_on_c, 11, 71, 0
15, 135360, Note_on_c, 11, 67, 76
15, 135479, Note_on_c, 11, 67, 0
15, 135480, Note_on_c, 11, 66, 76
15, 135599, Note_on_c, 11, 66, 0
15, 135600, Note_on_c, 11, 64, 76
15, 135699, Note_on_c, 11, 64, 0
15, 135720, Note_on_c, 11, 64, 76
15, 135839, Note_on_c, 11, 64, 0
15, 135840, Note_on_c, 11, 62, 76
15, 135959, Note_on_c, 11, 62, 0
15, 135960, Note_on_c, 11, 61, 76
15, 136059, Note_on_c, 11, 61, 0
15, 136080, Note_on_c, 11, 62, 76
15, 136199, Note_on_c, 11, 62, 0
15, 136200, Note_on_c, 11, 64, 76
15, 136319, Note_on_c, 11, 64, 0
15, 136320, Note_on_c, 11, 66, 76
15, 136419, Note_on_c, 11, 66, 0
15, 136440, Note_on_c, 11, 66, 76
15, 136559, Note_on_c, 11, 66, 0
15, 136560, Note_on_c, 11, 67, 76
15, 136659, Note_on_c, 11, 67, 0
15, 136680, Note_on_c, 11, 64, 76
15, 136779, Note_on_c, 11, 64, 0
15, 136800, Note_on_c, 11, 64, 76
15, 136919, Note_on_c, 11, 64, 0
15, 136920, Note_on_c, 11, 66, 76
15, 137019, Note_on_c, 11, 66, 0
15, 137040, Note_on_c, 11, 62, 76
15, 137139, Note_on_c, 11, 62, 0
15, 137160, Note_on_c, 11, 62, 76
15, 137279, Note_on_c, 11, 62, 0
15, 137280, Note_on_c, 11, 64, 76
15, 137399, Note_on_c, 11, 64, 0
15, 137400, Note_on_c, 11, 66, 76
15, 137519, Note_on_c, 11, 66, 0
15, 137520, Note_on_c, 11, 66, 76
15, 137639, Note_on_c, 11, 66, 0
15, 137640, Note_on_c, 11, 67, 76
15, 137759, Note_on_c, 11, 67, 0
15, 137760, Note_on_c, 11, 64, 76
15, 137879, Note_on_c, 11, 64, 0
15, 137880, Note_on_c, 11, 64, 76
15, 137999, Note_on_c, 11, 64, 0
15, 138000, Note_on_c, 11, 66, 76
15, 138119, Note_on_c, 11, 66, 0
15, 138120, Note_on_c, 11, 62, 76
15, 138219, Note_on_c, 11, 62, 0
15, 138240, Note_on_c, 11, 62, 76
15, 138599, Note_on_c, 11, 62, 0
15, 138870, Note_on_c, 11, 78, 76
15, 138944, Note_on_c, 11, 78, 0
15, 138960, Note_on_c, 11, 75, 76
15, 139214, Note_on_c, 11, 75, 0
15, 139230, Note_on_c, 11, 71, 76
15, 139304, Note_on_c, 11, 71, 0
15, 139320, Note_on_c, 11, 83, 76
15, 139679, Note_on_c, 11, 83, 0
15, 139950, Note_on_c, 11, 79, 76
15, 140024, Note_on_c, 11, 79, 0
15, 140040, Note_on_c, 11, 76, 76
15, 140294, Note_on_c, 11, 76, 0
15, 140310, Note_on_c, 11, 72, 76
15, 140384, Note_on_c, 11, 72, 0
15, 140400, Note_on_c, 11, 84, 76
15, 140654, Note_on_c, 11, 84, 0
15, 140670, Note_on_c, 11, 72, 76
15, 140744, Note_on_c, 11, 72, 0
15, 140760, Note_on_c, 11, 72, 76
15, 141014, Note_on_c, 11, 72, 0
15, 141030, Note_on_c, 11, 72, 76
15, 141104, Note_on_c, 11, 72, 0
15, 141120, Note_on_c, 11, 72, 76
15, 141374, Note_on_c, 11, 72, 0
15, 141390, Note_on_c, 11, 72, 76
15, 141464, Note_on_c, 11, 72, 0
15, 141480, Note_on_c, 11, 71, 76
15, 141599, Note_on_c, 11, 71, 0
15, 141840, Note_on_c, 11, 75, 76
15, 141959, Note_on_c, 11, 75, 0
15, 142200, Note_on_c, 11, 78, 76
15, 142319, Note_on_c, 11, 78, 0
15, 142920, Note_on_c, 11, 67, 76
15, 143039, Note_on_c, 11, 67, 0
15, 143280, Note_on_c, 11, 71, 76
15, 143399, Note_on_c, 11, 71, 0
15, 144000, Note_on_c, 11, 74, 76
15, 144119, Note_on_c, 11, 74, 0
15, 144360, Note_on_c, 11, 69, 76
15, 144479, Note_on_c, 11, 69, 0
15, 145080, Note_on_c, 11, 72, 76
15, 145199, Note_on_c, 11, 72, 0
15, 145440, Note_on_c, 11, 67, 76
15, 145559, Note_on_c, 11, 67, 0
15, 145800, Note_on_c, 11, 74, 76
15, 145919, Note_on_c, 11, 74, 0
15, 147150, Note_on_c, 11, 67, 76
15, 147224, Note_on_c, 11, 67, 0
15, 147240, Note_on_c, 11, 67, 76
15, 147359, Note_on_c, 11, 67, 0
15, 147360, Note_on_c, 11, 69, 76
15, 147459, Note_on_c, 11, 69, 0
15, 147480, Note_on_c, 11, 66, 76
15, 147579, Note_on_c, 11, 66, 0
15, 147600, Note_on_c, 11, 66, 76
15, 147719, Note_on_c, 11, 66, 0
15, 147720, Note_on_c, 11, 67, 76
15, 147819, Note_on_c, 11, 67, 0
15, 147840, Note_on_c, 11, 64, 76
15, 147939, Note_on_c, 11, 64, 0
15, 147960, Note_on_c, 11, 64, 76
15, 148079, Note_on_c, 11, 64, 0
15, 148080, Note_on_c, 11, 66, 76
15, 148199, Note_on_c, 11, 66, 0
15, 148200, Note_on_c, 11, 67, 76
15, 148319, Note_on_c, 11, 67, 0
15, 148320, Note_on_c, 11, 69, 76
15, 148439, Note_on_c, 11, 69, 0
15, 148440, Note_on_c, 11, 71, 76
15, 148539, Note_on_c, 11, 71, 0
15, 148560, Note_on_c, 11, 67, 76
15, 148659, Note_on_c, 11, 67, 0
15, 148680, Note_on_c, 11, 67, 76
15, 148799, Note_on_c, 11, 67, 0
15, 148800, Note_on_c, 11, 69, 76
15, 148899, Note_on_c, 11, 69, 0
15, 148920, Note_on_c, 11, 66, 76
15, 149019, Note_on_c, 11, 66, 0
15, 149040, Note_on_c, 11, 66, 76
15, 149159, Note_on_c, 11, 66, 0
15, 149160, Note_on_c, 11, 67, 76
15, 149279, Note_on_c, 11, 67, 0
15, 149280, Note_on_c, 11, 69, 76
15, 149379, Note_on_c, 11, 69, 0
15, 149400, Note_on_c, 11, 69, 76
15, 149654, Note_on_c, 11, 69, 0
15, 149670, Note_on_c, 11, 67, 76
15, 149744, Note_on_c, 11, 67, 0
15, 149760, Note_on_c, 11, 67, 76
15, 150014, Note_on_c, 11, 67, 0
15, 150030, Note_on_c, 11, 66, 76
15, 150104, Note_on_c, 11, 66, 0
15, 150120, Note_on_c, 11, 67, 76
15, 150239, Note_on_c, 11, 67, 0
15, 150480, Note_on_c, 11, 74, 76
15, 150599, Note_on_c, 11, 74, 0
15, 150840, Note_on_c, 11, 74, 76
15, 150959, Note_on_c, 11, 74, 0
15, 151200, Note_on_c, 11, 74, 76
15, 151319, Note_on_c, 11, 74, 0
15, 151830, Note_on_c, 11, 67, 76
15, 151904, Note_on_c, 11, 67, 0
15, 151920, Note_on_c, 11, 69, 76
15, 152174, Note_on_c, 11, 69, 0
15, 152190, Note_on_c, 11, 71, 76
15, 152264, Note_on_c, 11, 71, 0
15, 152280, Note_on_c, 11, 72, 76
15, 152534, Note_on_c, 11, 72, 0
15, 152550, Note_on_c, 11, 67, 76
15, 152624, Note_on_c, 11, 67, 0
15, 152640, Note_on_c, 11, 66, 76
15, 152894, Note_on_c, 11, 66, 0
15, 152910, Note_on_c, 11, 67, 76
15, 152984, Note_on_c, 11, 67, 0
15, 153000, Note_on_c, 11, 69, 76
15, 153254, Note_on_c, 11, 69, 0
15, 153270, Note_on_c, 11, 72, 76
15, 153344, Note_on_c, 11, 72, 0
15, 153360, Note_on_c, 11, 66, 76
15, 153479, Note_on_c, 11, 66, 0
15, 153480, Note_on_c, 11, 67, 76
15, 153599, Note_on_c, 11, 67, 0
15, 153600, Note_on_c, 11, 69, 76
15, 153699, Note_on_c, 11, 69, 0
15, 153720, Note_on_c, 11, 69, 76
15, 153839, Note_on_c, 11, 69, 0
15, 153840, Note_on_c, 11, 71, 76
15, 153939, Note_on_c, 11, 71, 0
15, 153960, Note_on_c, 11, 67, 76
15, 154059, Note_on_c, 11, 67, 0
15, 154080, Note_on_c, 11, 67, 76
15, 154199, Note_on_c, 11, 67, 0
15, 154200, Note_on_c, 11, 69, 76
15, 154299, Note_on_c, 11, 69, 0
15, 154320, Note_on_c, 11, 66, 76
15, 154419, Note_on_c, 11, 66, 0
15, 154440, Note_on_c, 11, 67, 76
15, 154694, Note_on_c, 11, 67, 0
15, 154710, Note_on_c, 11, 72, 76
15, 154784, Note_on_c, 11, 72, 0
15, 154800, Note_on_c, 11, 71, 76
15, 154919, Note_on_c, 11, 71, 0
15, 154920, Note_on_c, 11, 72, 76
15, 155019, Note_on_c, 11, 72, 0
15, 155040, Note_on_c, 11, 69, 76
15, 155139, Note_on_c, 11, 69, 0
15, 155160, Note_on_c, 11, 69, 76
15, 155414, Note_on_c, 11, 69, 0
15, 155430, Note_on_c, 11, 71, 76
15, 155504, Note_on_c, 11, 71, 0
15, 155520, Note_on_c, 11, 71, 76
15, 155774, Note_on_c, 11, 71, 0
15, 155790, Note_on_c, 11, 62, 76
15, 155864, Note_on_c, 11, 62, 0
15, 155880, Note_on_c, 11, 62, 76
15, 156134, Note_on_c, 11, 62, 0
15, 156150, Note_on_c, 11, 62, 76
15, 156224, Note_on_c, 11, 62, 0
15, 156240, Note_on_c, 11, 62, 76
15, 156494, Note_on_c, 11, 62, 0
15, 156510, Note_on_c, 11, 62, 76
15, 156584, Note_on_c, 11, 62, 0
15, 156600, Note_on_c, 11, 62, 76
15, 156854, Note_on_c, 11, 62, 0
15, 156870, Note_on_c, 11, 62, 76
15, 156944, Note_on_c, 11, 62, 0
15, 156960, Note_on_c, 11, 62, 76
15, 157214, Note_on_c, 11, 62, 0
15, 157230, Note_on_c, 11, 62, 76
15, 157304, Note_on_c, 11, 62, 0
15, 157320, Note_on_c, 11, 62, 76
15, 157574, Note_on_c, 11, 62, 0
15, 157590, Note_on_c, 11, 62, 76
15, 157664, Note_on_c, 11, 62, 0
15, 157680, Note_on_c, 11, 62, 76
15, 157799, Note_on_c, 11, 62, 0
15, 158040, Note_on_c, 11, 60, 76
15, 158159, Note_on_c, 11, 60, 0
15, 158400, Note_on_c, 11, 62, 76
15, 158519, Note_on_c, 11, 62, 0
15, 158760, Note_on_c, 11, 55, 76
15, 158879, Note_on_c, 11, 55, 0
15, 159120, Note_on_c, 11, 62, 76
15, 159239, Note_on_c, 11, 62, 0
15, 159480, Note_on_c, 11, 64, 76
15, 159599, Note_on_c, 11, 64, 0
15, 159840, Note_on_c, 11, 57, 76
15, 159959, Note_on_c, 11, 57, 0
15, 160200, Note_on_c, 11, 64, 76
15, 160319, Note_on_c, 11, 64, 0
15, 160560, Note_on_c, 11, 66, 76
15, 160679, Note_on_c, 11, 66, 0
15, 160920, Note_on_c, 11, 59, 76
15, 161174, Note_on_c, 11, 59, 0
15, 161190, Note_on_c, 11, 67, 76
15, 161264, Note_on_c, 11, 67, 0
15, 161280, Note_on_c, 11, 67, 76
15, 161399, Note_on_c, 11, 67, 0
15, 161400, Note_on_c, 11, 69, 76
15, 161499, Note_on_c, 11, 69, 0
15, 161520, Note_on_c, 11, 66, 76
15, 161619, Note_on_c, 11, 66, 0
15, 161640, Note_on_c, 11, 66, 76
15, 161759, Note_on_c, 11, 66, 0
15, 161760, Note_on_c, 11, 67, 76
15, 161859, Note_on_c, 11, 67, 0
15, 161880, Note_on_c, 11, 64, 76
15, 161979, Note_on_c, 11, 64, 0
15, 162000, Note_on_c, 11, 64, 76
15, 162119, Note_on_c, 11, 64, 0
15, 162120, Note_on_c, 11, 66, 76
15, 162239, Note_on_c, 11, 66, 0
15, 162240, Note_on_c, 11, 67, 76
15, 162359, Note_on_c, 11, 67, 0
15, 162360, Note_on_c, 11, 69, 76
15, 162479, Note_on_c, 11, 69, 0
15, 162480, Note_on_c, 11, 71, 76
15, 162579, Note_on_c, 11, 71, 0
15, 162600, Note_on_c, 11, 67, 76
15, 162699, Note_on_c, 11, 67, 0
15, 162720, Note_on_c, 11, 67, 76
15, 162839, Note_on_c, 11, 67, 0
15, 162840, Note_on_c, 11, 69, 76
15, 162939, Note_on_c, 11, 69, 0
15, 162960, Note_on_c, 11, 66, 76
15, 163059, Note_on_c, 11, 66, 0
15, 163080, Note_on_c, 11, 66, 76
15, 163419, Note_on_c, 11, 66, 0
15, 163440, Note_on_c, 11, 71, 76
15, 164259, Note_on_c, 11, 71, 0
15, 164280, Note_on_c, 11, 64, 76
15, 164399, Note_on_c, 11, 64, 0
15, 164400, Note_on_c, 11, 66, 76
15, 164519, Note_on_c, 11, 66, 0
15, 164520, Note_on_c, 11, 68, 76
15, 164639, Note_on_c, 11, 68, 0
15, 164640, Note_on_c, 11, 76, 76
15, 164739, Note_on_c, 11, 76, 0
15, 164760, Note_on_c, 11, 66, 76
15, 164859, Note_on_c, 11, 66, 0
15, 164880, Note_on_c, 11, 68, 76
15, 164999, Note_on_c, 11, 68, 0
15, 165000, Note_on_c, 11, 66, 76
15, 165119, Note_on_c, 11, 66, 0
15, 165120, Note_on_c, 11, 64, 76
15, 165219, Note_on_c, 11, 64, 0
15, 165240, Note_on_c, 11, 69, 76
15, 166419, Note_on_c, 11, 69, 0
15, 166440, Note_on_c, 11, 62, 76
15, 166559, Note_on_c, 11, 62, 0
15, 166560, Note_on_c, 11, 64, 76
15, 166679, Note_on_c, 11, 64, 0
15, 166680, Note_on_c, 11, 66, 76
15, 166799, Note_on_c, 11, 66, 0
15, 166800, Note_on_c, 11, 74, 76
15, 166899, Note_on_c, 11, 74, 0
15, 166920, Note_on_c, 11, 64, 76
15, 167019, Note_on_c, 11, 64, 0
15, 167040, Note_on_c, 11, 66, 76
15, 167159, Note_on_c, 11, 66, 0
15, 167160, Note_on_c, 11, 64, 76
15, 167279, Note_on_c, 11, 64, 0
15, 167280, Note_on_c, 11, 62, 76
15, 167379, Note_on_c, 11, 62, 0
15, 167400, Note_on_c, 11, 67, 76
15, 167739, Note_on_c, 11, 67, 0
15, 167760, Note_on_c, 11, 74, 76
15, 168479, Note_on_c, 11, 74, 0
15, 168480, Note_on_c, 11, 74, 76
15, 169539, Note_on_c, 11, 74, 0
15, 169560, Note_on_c, 11, 73, 76
15, 169589, Note_on_c, 11, 73, 0
15, 169590, Note_on_c, 11, 74, 76
15, 169619, Note_on_c, 11, 74, 0
15, 169620, Note_on_c, 11, 73, 76
15, 169649, Note_on_c, 11, 73, 0
15, 169650, Note_on_c, 11, 74, 76
15, 169679, Note_on_c, 11, 74, 0
15, 169680, Note_on_c, 11, 73, 76
15, 169709, Note_on_c, 11, 73, 0
15, 169710, Note_on_c, 11, 74, 76
15, 169739, Note_on_c, 11, 74, 0
15, 169740, Note_on_c, 11, 73, 76
15, 169769, Note_on_c, 11, 73, 0
15, 169770, Note_on_c, 11, 74, 76
15, 169799, Note_on_c, 11, 74, 0
15, 169800, Note_on_c, 11, 73, 76
15, 169829, Note_on_c, 11, 73, 0
15, 169830, Note_on_c, 11, 74, 76
15, 169859, Note_on_c, 11, 74, 0
15, 169860, Note_on_c, 11, 73, 76
15, 169889, Note_on_c, 11, 73, 0
15, 169890, Note_on_c, 11, 74, 76
15, 169919, Note_on_c, 11, 74, 0
15, 169920, Note_on_c, 11, 73, 76
15, 169949, Note_on_c, 11, 73, 0
15, 169950, Note_on_c, 11, 74, 76
15, 169979, Note_on_c, 11, 74, 0
15, 169980, Note_on_c, 11, 73, 76
15, 170009, Note_on_c, 11, 73, 0
15, 170010, Note_on_c, 11, 74, 76
15, 170039, Note_on_c, 11, 74, 0
15, 170040, Note_on_c, 11, 73, 76
15, 170069, Note_on_c, 11, 73, 0
15, 170070, Note_on_c, 11, 74, 76
15, 170099, Note_on_c, 11, 74, 0
15, 170100, Note_on_c, 11, 73, 76
15, 170129, Note_on_c, 11, 73, 0
15, 170130, Note_on_c, 11, 74, 76
15, 170159, Note_on_c, 11, 74, 0
15, 170160, Note_on_c, 11, 73, 76
15, 170189, Note_on_c, 11, 73, 0
15, 170190, Note_on_c, 11, 74, 76
15, 170219, Note_on_c, 11, 74, 0
15, 170220, Note_on_c, 11, 73, 76
15, 170249, Note_on_c, 11, 73, 0
15, 170250, Note_on_c, 11, 74, 76
15, 170279, Note_on_c, 11, 74, 0
15, 170280, Note_on_c, 11, 73, 76
15, 170309, Note_on_c, 11, 73, 0
15, 170310, Note_on_c, 11, 74, 76
15, 170339, Note_on_c, 11, 74, 0
15, 170340, Note_on_c, 11, 73, 76
15, 170369, Note_on_c, 11, 73, 0
15, 170370, Note_on_c, 11, 74, 76
15, 170399, Note_on_c, 11, 74, 0
15, 170400, Note_on_c, 11, 73, 76
15, 170429, Note_on_c, 11, 73, 0
15, 170430, Note_on_c, 11, 74, 76
15, 170459, Note_on_c, 11, 74, 0
15, 170460, Note_on_c, 11, 73, 76
15, 170489, Note_on_c, 11, 73, 0
15, 170490, Note_on_c, 11, 74, 76
15, 170519, Note_on_c, 11, 74, 0
15, 170520, Note_on_c, 11, 73, 76
15, 170549, Note_on_c, 11, 73, 0
15, 170550, Note_on_c, 11, 74, 76
15, 170579, Note_on_c, 11, 74, 0
15, 170580, Note_on_c, 11, 71, 76
15, 170609, Note_on_c, 11, 71, 0
15, 170610, Note_on_c, 11, 73, 76
15, 170631, Note_on_c, 11, 73, 0
15, 170640, Note_on_c, 11, 74, 76
15, 170739, Note_on_c, 11, 74, 0
15, 170760, Note_on_c, 11, 71, 76
15, 170879, Note_on_c, 11, 71, 0
15, 170880, Note_on_c, 11, 73, 76
15, 170999, Note_on_c, 11, 73, 0
15, 171000, Note_on_c, 11, 74, 76
15, 171119, Note_on_c, 11, 74, 0
15, 171120, Note_on_c, 11, 76, 76
15, 171219, Note_on_c, 11, 76, 0
15, 171240, Note_on_c, 11, 73, 76
15, 171339, Note_on_c, 11, 73, 0
15, 171360, Note_on_c, 11, 74, 76
15, 171479, Note_on_c, 11, 74, 0
15, 171480, Note_on_c, 11, 73, 76
15, 171579, Note_on_c, 11, 73, 0
15, 171600, Note_on_c, 11, 71, 76
15, 171699, Note_on_c, 11, 71, 0
15, 171720, Note_on_c, 11, 76, 76
15, 172059, Note_on_c, 11, 76, 0
15, 172080, Note_on_c, 11, 69, 76
15, 172899, Note_on_c, 11, 69, 0
15, 172920, Note_on_c, 11, 62, 76
15, 173019, Note_on_c, 11, 62, 0
15, 173040, Note_on_c, 11, 65, 76
15, 173139, Note_on_c, 11, 65, 0
15, 173160, Note_on_c, 11, 65, 76
15, 173279, Note_on_c, 11, 65, 0
15, 173280, Note_on_c, 11, 67, 76
15, 173379, Note_on_c, 11, 67, 0
15, 173400, Note_on_c, 11, 64, 76
15, 173499, Note_on_c, 11, 64, 0
15, 173520, Note_on_c, 11, 64, 76
15, 173639, Note_on_c, 11, 64, 0
15, 173640, Note_on_c, 11, 65, 76
15, 173739, Note_on_c, 11, 65, 0
15, 173760, Note_on_c, 11, 62, 76
15, 173859, Note_on_c, 11, 62, 0
15, 173880, Note_on_c, 11, 62, 76
15, 173999, Note_on_c, 11, 62, 0
15, 174000, Note_on_c, 11, 64, 76
15, 174119, Note_on_c, 11, 64, 0
15, 174120, Note_on_c, 11, 65, 76
15, 174239, Note_on_c, 11, 65, 0
15, 174240, Note_on_c, 11, 67, 76
15, 174359, Note_on_c, 11, 67, 0
15, 174360, Note_on_c, 11, 69, 76
15, 174459, Note_on_c, 11, 69, 0
15, 174480, Note_on_c, 11, 65, 76
15, 174579, Note_on_c, 11, 65, 0
15, 174600, Note_on_c, 11, 65, 76
15, 174719, Note_on_c, 11, 65, 0
15, 174720, Note_on_c, 11, 67, 76
15, 174819, Note_on_c, 11, 67, 0
15, 174840, Note_on_c, 11, 64, 76
15, 174939, Note_on_c, 11, 64, 0
15, 174960, Note_on_c, 11, 64, 76
15, 175299, Note_on_c, 11, 64, 0
15, 175320, Note_on_c, 11, 71, 76
15, 176294, Note_on_c, 11, 71, 0
15, 176310, Note_on_c, 11, 69, 76
15, 176384, Note_on_c, 11, 69, 0
15, 176400, Note_on_c, 11, 69, 76
15, 176519, Note_on_c, 11, 69, 0
15, 176520, Note_on_c, 11, 71, 76
15, 176619, Note_on_c, 11, 71, 0
15, 176640, Note_on_c, 11, 67, 76
15, 176739, Note_on_c, 11, 67, 0
15, 176760, Note_on_c, 11, 67, 76
15, 176879, Note_on_c, 11, 67, 0
15, 176880, Note_on_c, 11, 69, 76
15, 176979, Note_on_c, 11, 69, 0
15, 177000, Note_on_c, 11, 66, 76
15, 177099, Note_on_c, 11, 66, 0
15, 177120, Note_on_c, 11, 66, 76
15, 177239, Note_on_c, 11, 66, 0
15, 177240, Note_on_c, 11, 69, 76
15, 177339, Note_on_c, 11, 69, 0
15, 177360, Note_on_c, 11, 67, 76
15, 177459, Note_on_c, 11, 67, 0
15, 177480, Note_on_c, 11, 69, 76
15, 177734, Note_on_c, 11, 69, 0
15, 177750, Note_on_c, 11, 71, 76
15, 177824, Note_on_c, 11, 71, 0
15, 177840, Note_on_c, 11, 69, 76
15, 178094, Note_on_c, 11, 69, 0
15, 178110, Note_on_c, 11, 67, 76
15, 178184, Note_on_c, 11, 67, 0
15, 178200, Note_on_c, 11, 66, 76
15, 178319, Note_on_c, 11, 66, 0
15, 178560, Note_on_c, 11, 74, 76
15, 178679, Note_on_c, 11, 74, 0
15, 178920, Note_on_c, 11, 73, 76
15, 179039, Note_on_c, 11, 73, 0
15, 179280, Note_on_c, 11, 74, 76
15, 179399, Note_on_c, 11, 74, 0
15, 179400, Note_on_c, 11, 73, 76
15, 179499, Note_on_c, 11, 73, 0
15, 179520, Note_on_c, 11, 74, 76
15, 179619, Note_on_c, 11, 74, 0
15, 179640, Note_on_c, 11, 74, 76
15, 179894, Note_on_c, 11, 74, 0
15, 179910, Note_on_c, 11, 66, 76
15, 179984, Note_on_c, 11, 66, 0
15, 180000, Note_on_c, 11, 69, 76
15, 180254, Note_on_c, 11, 69, 0
15, 180270, Note_on_c, 11, 74, 76
15, 180344, Note_on_c, 11, 74, 0
15, 180360, Note_on_c, 11, 74, 76
15, 180479, Note_on_c, 11, 74, 0
15, 180480, Note_on_c, 11, 76, 76
15, 180599, Note_on_c, 11, 76, 0
15, 180600, Note_on_c, 11, 74, 76
15, 180699, Note_on_c, 11, 74, 0
15, 180720, Note_on_c, 11, 73, 76
15, 180839, Note_on_c, 11, 73, 0
15, 180840, Note_on_c, 11, 74, 76
15, 180939, Note_on_c, 11, 74, 0
15, 180960, Note_on_c, 11, 71, 76
15, 181059, Note_on_c, 11, 71, 0
15, 181080, Note_on_c, 11, 71, 76
15, 181199, Note_on_c, 11, 71, 0
15, 181200, Note_on_c, 11, 73, 76
15, 181299, Note_on_c, 11, 73, 0
15, 181320, Note_on_c, 11, 69, 76
15, 181419, Note_on_c, 11, 69, 0
15, 181440, Note_on_c, 11, 69, 76
15, 181694, Note_on_c, 11, 69, 0
15, 181710, Note_on_c, 11, 81, 76
15, 181784, Note_on_c, 11, 81, 0
15, 181800, Note_on_c, 11, 76, 76
15, 182054, Note_on_c, 11, 76, 0
15, 182070, Note_on_c, 11, 73, 76
15, 182144, Note_on_c, 11, 73, 0
15, 182160, Note_on_c, 11, 69, 76
15, 182414, Note_on_c, 11, 69, 0
15, 182430, Note_on_c, 11, 69, 76
15, 182504, Note_on_c, 11, 69, 0
15, 182520, Note_on_c, 11, 69, 76
15, 182639, Note_on_c, 11, 69, 0
15, 182640, Note_on_c, 11, 71, 76
15, 182759, Note_on_c, 11, 71, 0
15, 182760, Note_on_c, 11, 73, 76
15, 182859, Note_on_c, 11, 73, 0
15, 182880, Note_on_c, 11, 74, 76
15, 183134, Note_on_c, 11, 74, 0
15, 183150, Note_on_c, 11, 76, 76
15, 183224, Note_on_c, 11, 76, 0
15, 183240, Note_on_c, 11, 73, 76
15, 183494, Note_on_c, 11, 73, 0
15, 183510, Note_on_c, 11, 69, 76
15, 183584, Note_on_c, 11, 69, 0
15, 183600, Note_on_c, 11, 69, 76
15, 183719, Note_on_c, 11, 69, 0
15, 183720, Note_on_c, 11, 71, 76
15, 183839, Note_on_c, 11, 71, 0
15, 183840, Note_on_c, 11, 69, 76
15, 183939, Note_on_c, 11, 69, 0
15, 183960, Note_on_c, 11, 68, 76
15, 184079, Note_on_c, 11, 68, 0
15, 184080, Note_on_c, 11, 69, 76
15, 184179, Note_on_c, 11, 69, 0
15, 184200, Note_on_c, 11, 66, 76
15, 184299, Note_on_c, 11, 66, 0
15, 184320, Note_on_c, 11, 66, 76
15, 184439, Note_on_c, 11, 66, 0
15, 184440, Note_on_c, 11, 68, 76
15, 184539, Note_on_c, 11, 68, 0
15, 184560, Note_on_c, 11, 64, 76
15, 184659, Note_on_c, 11, 64, 0
15, 184680, Note_on_c, 11, 64, 76
15, 185039, Note_on_c, 11, 64, 0
15, 185310, Note_on_c, 11, 76, 76
15, 185384, Note_on_c, 11, 76, 0
15, 185400, Note_on_c, 11, 71, 76
15, 185654, Note_on_c, 11, 71, 0
15, 185670, Note_on_c, 11, 71, 76
15, 185744, Note_on_c, 11, 71, 0
15, 185760, Note_on_c, 11, 69, 76
15, 186119, Note_on_c, 11, 69, 0
15, 186390, Note_on_c, 11, 74, 76
15, 186464, Note_on_c, 11, 74, 0
15, 186480, Note_on_c, 11, 69, 76
15, 186734, Note_on_c, 11, 69, 0
15, 186750, Note_on_c, 11, 69, 76
15, 186824, Note_on_c, 11, 69, 0
15, 186840, Note_on_c, 11, 67, 76
15, 186959, Note_on_c, 11, 67, 0
15, 187200, Note_on_c, 11, 73, 76
15, 187319, Note_on_c, 11, 73, 0
15, 187560, Note_on_c, 11, 75, 76
15, 187679, Note_on_c, 11, 75, 0
15, 187920, Note_on_c, 11, 76, 76
15, 188174, Note_on_c, 11, 76, 0
15, 188190, Note_on_c, 11, 76, 76
15, 188264, Note_on_c, 11, 76, 0
15, 188280, Note_on_c, 11, 76, 76
15, 188399, Note_on_c, 11, 76, 0
15, 188400, Note_on_c, 11, 78, 76
15, 188499, Note_on_c, 11, 78, 0
15, 188520, Note_on_c, 11, 74, 76
15, 188619, Note_on_c, 11, 74, 0
15, 188640, Note_on_c, 11, 74, 76
15, 188759, Note_on_c, 11, 74, 0
15, 188760, Note_on_c, 11, 76, 76
15, 188859, Note_on_c, 11, 76, 0
15, 188880, Note_on_c, 11, 73, 76
15, 188979, Note_on_c, 11, 73, 0
15, 189000, Note_on_c, 11, 73, 76
15, 189119, Note_on_c, 11, 73, 0
15, 189120, Note_on_c, 11, 69, 76
15, 189239, Note_on_c, 11, 69, 0
15, 189240, Note_on_c, 11, 71, 76
15, 189359, Note_on_c, 11, 71, 0
15, 189360, Note_on_c, 11, 73, 76
15, 189479, Note_on_c, 11, 73, 0
15, 189480, Note_on_c, 11, 74, 76
15, 189579, Note_on_c, 11, 74, 0
15, 189600, Note_on_c, 11, 76, 76
15, 189699, Note_on_c, 11, 76, 0
15, 189720, Note_on_c, 11, 69, 76
15, 189974, Note_on_c, 11, 69, 0
15, 189990, Note_on_c, 11, 73, 76
15, 190064, Note_on_c, 11, 73, 0
15, 190080, Note_on_c, 11, 62, 76
15, 190199, Note_on_c, 11, 62, 0
15, 190200, Note_on_c, 11, 66, 76
15, 190319, Note_on_c, 11, 66, 0
15, 190320, Note_on_c, 11, 69, 76
15, 190419, Note_on_c, 11, 69, 0
15, 190440, Note_on_c, 11, 74, 76
15, 190559, Note_on_c, 11, 74, 0
15, 190560, Note_on_c, 11, 76, 76
15, 190659, Note_on_c, 11, 76, 0
15, 190680, Note_on_c, 11, 72, 76
15, 190779, Note_on_c, 11, 72, 0
15, 190800, Note_on_c, 11, 72, 76
15, 190919, Note_on_c, 11, 72, 0
15, 190920, Note_on_c, 11, 74, 76
15, 191019, Note_on_c, 11, 74, 0
15, 191040, Note_on_c, 11, 71, 76
15, 191139, Note_on_c, 11, 71, 0
15, 191160, Note_on_c, 11, 71, 76
15, 191279, Note_on_c, 11, 71, 0
15, 191280, Note_on_c, 11, 67, 76
15, 191399, Note_on_c, 11, 67, 0
15, 191400, Note_on_c, 11, 71, 76
15, 191499, Note_on_c, 11, 71, 0
15, 191520, Note_on_c, 11, 76, 76
15, 191639, Note_on_c, 11, 76, 0
15, 191640, Note_on_c, 11, 78, 76
15, 191739, Note_on_c, 11, 78, 0
15, 191760, Note_on_c, 11, 74, 76
15, 191859, Note_on_c, 11, 74, 0
15, 191880, Note_on_c, 11, 74, 76
15, 191999, Note_on_c, 11, 74, 0
15, 192000, Note_on_c, 11, 76, 76
15, 192099, Note_on_c, 11, 76, 0
15, 192120, Note_on_c, 11, 73, 76
15, 192219, Note_on_c, 11, 73, 0
15, 192240, Note_on_c, 11, 73, 76
15, 192359, Note_on_c, 11, 73, 0
15, 192360, Note_on_c, 11, 74, 76
15, 192479, Note_on_c, 11, 74, 0
15, 192480, Note_on_c, 11, 76, 76
15, 192579, Note_on_c, 11, 76, 0
15, 192600, Note_on_c, 11, 78, 76
15, 192719, Note_on_c, 11, 78, 0
15, 192720, Note_on_c, 11, 79, 76
15, 192819, Note_on_c, 11, 79, 0
15, 192840, Note_on_c, 11, 76, 76
15, 192939, Note_on_c, 11, 76, 0
15, 192960, Note_on_c, 11, 76, 76
15, 193079, Note_on_c, 11, 76, 0
15, 193080, Note_on_c, 11, 78, 76
15, 193179, Note_on_c, 11, 78, 0
15, 193200, Note_on_c, 11, 74, 76
15, 193299, Note_on_c, 11, 74, 0
15, 193320, Note_on_c, 11, 74, 76
15, 193439, Note_on_c, 11, 74, 0
15, 193950, Note_on_c, 11, 73, 76
15, 194024, Note_on_c, 11, 73, 0
15, 194040, Note_on_c, 11, 73, 76
15, 194294, Note_on_c, 11, 73, 0
15, 194310, Note_on_c, 11, 75, 76
15, 194384, Note_on_c, 11, 75, 0
15, 194400, Note_on_c, 11, 76, 76
15, 194654, Note_on_c, 11, 76, 0
15, 194670, Note_on_c, 11, 76, 76
15, 194744, Note_on_c, 11, 76, 0
15, 194760, Note_on_c, 11, 76, 76
15, 195014, Note_on_c, 11, 76, 0
15, 195030, Note_on_c, 11, 76, 76
15, 195104, Note_on_c, 11, 76, 0
15, 195120, Note_on_c, 11, 76, 76
15, 195374, Note_on_c, 11, 76, 0
15, 195390, Note_on_c, 11, 76, 76
15, 195464, Note_on_c, 11, 76, 0
15, 195480, Note_on_c, 11, 76, 76
15, 195599, Note_on_c, 11, 76, 0
15, 195600, Note_on_c, 11, 73, 76
15, 195699, Note_on_c, 11, 73, 0
15, 195720, Note_on_c, 11, 74, 76
15, 195819, Note_on_c, 11, 74, 0
15, 195840, Note_on_c, 11, 76, 76
15, 195959, Note_on_c, 11, 76, 0
15, 195960, Note_on_c, 11, 73, 76
15, 196059, Note_on_c, 11, 73, 0
15, 196080, Note_on_c, 11, 74, 76
15, 196179, Note_on_c, 11, 74, 0
15, 196200, Note_on_c, 11, 76, 76
15, 196319, Note_on_c, 11, 76, 0
15, 196320, Note_on_c, 11, 74, 76
15, 196419, Note_on_c, 11, 74, 0
15, 196440, Note_on_c, 11, 73, 76
15, 196539, Note_on_c, 11, 73, 0
15, 196560, Note_on_c, 11, 74, 76
15, 196814, Note_on_c, 11, 74, 0
15, 196830, Note_on_c, 11, 73, 76
15, 196904, Note_on_c, 11, 73, 0
15, 196920, Note_on_c, 11, 74, 76
15, 197174, Note_on_c, 11, 74, 0
15, 197190, Note_on_c, 11, 71, 76
15, 197264, Note_on_c, 11, 71, 0
15, 197280, Note_on_c, 11, 69, 76
15, 197534, Note_on_c, 11, 69, 0
15, 197550, Note_on_c, 11, 69, 76
15, 197624, Note_on_c, 11, 69, 0
15, 197640, Note_on_c, 11, 69, 76
15, 197759, Note_on_c, 11, 69, 0
15, 198000, Note_on_c, 11, 74, 76
15, 198119, Note_on_c, 11, 74, 0
15, 198360, Note_on_c, 11, 76, 76
15, 198479, Note_on_c, 11, 76, 0
15, 198720, Note_on_c, 11, 81, 76
15, 198839, Note_on_c, 11, 81, 0
15, 199080, Note_on_c, 11, 74, 76
15, 199199, Note_on_c, 11, 74, 0
15, 199440, Note_on_c, 11, 76, 76
15, 199559, Note_on_c, 11, 76, 0
15, 199800, Note_on_c, 11, 69, 76
15, 200039, Note_on_c, 11, 69, 0
15, 200460, Note_on_c, 11, 74, 76
15, 200513, Note_on_c, 11, 74, 0
15, 200520, Note_on_c, 11, 74, 76
15, 200693, Note_on_c, 11, 74, 0
15, 200700, Note_on_c, 11, 69, 76
15, 200753, Note_on_c, 11, 69, 0
15, 200760, Note_on_c, 11, 69, 76
15, 201239, Note_on_c, 11, 69, 0
15, 201420, Note_on_c, 11, 78, 76
15, 201473, Note_on_c, 11, 78, 0
15, 201480, Note_on_c, 11, 78, 76
15, 201653, Note_on_c, 11, 78, 0
15, 201660, Note_on_c, 11, 72, 76
15, 201713, Note_on_c, 11, 72, 0
15, 201720, Note_on_c, 11, 72, 76
15, 202199, Note_on_c, 11, 72, 0
15, 202380, Note_on_c, 11, 78, 76
15, 202433, Note_on_c, 11, 78, 0
15, 202440, Note_on_c, 11, 78, 76
15, 202613, Note_on_c, 11, 78, 0
15, 202620, Note_on_c, 11, 75, 76
15, 202673, Note_on_c, 11, 75, 0
15, 202680, Note_on_c, 11, 76, 76
15, 202789, Note_on_c, 11, 76, 0
15, 202800, Note_on_c, 11, 64, 76
15, 202853, Note_on_c, 11, 64, 0
15, 202860, Note_on_c, 11, 66, 76
15, 202913, Note_on_c, 11, 66, 0
15, 202920, Note_on_c, 11, 67, 76
15, 202973, Note_on_c, 11, 67, 0
15, 202980, Note_on_c, 11, 69, 76
15, 203033, Note_on_c, 11, 69, 0
15, 203040, Note_on_c, 11, 71, 76
15, 203093, Note_on_c, 11, 71, 0
15, 203100, Note_on_c, 11, 73, 76
15, 203153, Note_on_c, 11, 73, 0
15, 203160, Note_on_c, 11, 74, 76
15, 203213, Note_on_c, 11, 74, 0
15, 203220, Note_on_c, 11, 73, 76
15, 203273, Note_on_c, 11, 73, 0
15, 203280, Note_on_c, 11, 71, 76
15, 203333, Note_on_c, 11, 71, 0
15, 203340, Note_on_c, 11, 73, 76
15, 203393, Note_on_c, 11, 73, 0
15, 203400, Note_on_c, 11, 74, 76
15, 203453, Note_on_c, 11, 74, 0
15, 203460, Note_on_c, 11, 71, 76
15, 203513, Note_on_c, 11, 71, 0
15, 203520, Note_on_c, 11, 76, 76
15, 203573, Note_on_c, 11, 76, 0
15, 203580, Note_on_c, 11, 71, 76
15, 203633, Note_on_c, 11, 71, 0
15, 203640, Note_on_c, 11, 73, 76
15, 204293, Note_on_c, 11, 73, 0
15, 204300, Note_on_c, 11, 69, 76
15, 204353, Note_on_c, 11, 69, 0
15, 204360, Note_on_c, 11, 69, 76
15, 204533, Note_on_c, 11, 69, 0
15, 204540, Note_on_c, 11, 73, 76
15, 204593, Note_on_c, 11, 73, 0
15, 204600, Note_on_c, 11, 74, 76
15, 205079, Note_on_c, 11, 74, 0
15, 205260, Note_on_c, 11, 81, 76
15, 205313, Note_on_c, 11, 81, 0
15, 205320, Note_on_c, 11, 81, 76
15, 205493, Note_on_c, 11, 81, 0
15, 205500, Note_on_c, 11, 78, 76
15, 205553, Note_on_c, 11, 78, 0
15, 205560, Note_on_c, 11, 74, 76
15, 206039, Note_on_c, 11, 74, 0
15, 206220, Note_on_c, 11, 76, 76
15, 206273, Note_on_c, 11, 76, 0
15, 206280, Note_on_c, 11, 76, 76
15, 206453, Note_on_c, 11, 76, 0
15, 206460, Note_on_c, 11, 71, 76
15, 206513, Note_on_c, 11, 71, 0
15, 206520, Note_on_c, 11, 76, 76
15, 206999, Note_on_c, 11, 76, 0
15, 207180, Note_on_c, 11, 78, 76
15, 207233, Note_on_c, 11, 78, 0
15, 207240, Note_on_c, 11, 78, 76
15, 207413, Note_on_c, 11, 78, 0
15, 207420, Note_on_c, 11, 74, 76
15, 207473, Note_on_c, 11, 74, 0
15, 207480, Note_on_c, 11, 76, 76
15, 207829, Note_on_c, 11, 76, 0
15, 207840, Note_on_c, 11, 76, 76
15, 207949, Note_on_c, 11, 76, 0
15, 207960, Note_on_c, 11, 76, 76
15, 208189, Note_on_c, 11, 76, 0
15, 208200, Note_on_c, 11, 73, 76
15, 208429, Note_on_c, 11, 73, 0
15, 208440, Note_on_c, 11, 74, 76
15, 208613, Note_on_c, 11, 74, 0
15, 208620, Note_on_c, 11, 69, 76
15, 208673, Note_on_c, 11, 69, 0
15, 208680, Note_on_c, 11, 69, 76
15, 208853, Note_on_c, 11, 69, 0
15, 208860, Note_on_c, 11, 66, 76
15, 208913, Note_on_c, 11, 66, 0
15, 208920, Note_on_c, 11, 66, 76
15, 209399, Note_on_c, 11, 66, 0
15, 209580, Note_on_c, 11, 67, 76
15, 209633, Note_on_c, 11, 67, 0
15, 209640, Note_on_c, 11, 67, 76
15, 209813, Note_on_c, 11, 67, 0
15, 209820, Note_on_c, 11, 64, 76
15, 209873, Note_on_c, 11, 64, 0
15, 209880, Note_on_c, 11, 66, 76
15, 210109, Note_on_c, 11, 66, 0
15, 210120, Note_on_c, 11, 70, 76
15, 210349, Note_on_c, 11, 70, 0
15, 210360, Note_on_c, 11, 71, 76
15, 210839, Note_on_c, 11, 71, 0
15, 211020, Note_on_c, 11, 66, 76
15, 211073, Note_on_c, 11, 66, 0
15, 211080, Note_on_c, 11, 66, 76
15, 211253, Note_on_c, 11, 66, 0
15, 211260, Note_on_c, 11, 62, 76
15, 211313, Note_on_c, 11, 62, 0
15, 211320, Note_on_c, 11, 64, 76
15, 211669, Note_on_c, 11, 64, 0
15, 211680, Note_on_c, 11, 62, 76
15, 211733, Note_on_c, 11, 62, 0
15, 211740, Note_on_c, 11, 61, 76
15, 211793, Note_on_c, 11, 61, 0
15, 211800, Note_on_c, 11, 62, 76
15, 211973, Note_on_c, 11, 62, 0
15, 211980, Note_on_c, 11, 62, 76
15, 212033, Note_on_c, 11, 62, 0
15, 212040, Note_on_c, 11, 64, 76
15, 212213, Note_on_c, 11, 64, 0
15, 212220, Note_on_c, 11, 66, 76
15, 212273, Note_on_c, 11, 66, 0
15, 212280, Note_on_c, 11, 61, 76
15, 212453, Note_on_c, 11, 61, 0
15, 212460, Note_on_c, 11, 67, 76
15, 212513, Note_on_c, 11, 67, 0
15, 212520, Note_on_c, 11, 67, 76
15, 212693, Note_on_c, 11, 67, 0
15, 212700, Note_on_c, 11, 64, 76
15, 212753, Note_on_c, 11, 64, 0
15, 212760, Note_on_c, 11, 61, 76
15, 213239, Note_on_c, 11, 61, 0
15, 213420, Note_on_c, 11, 69, 76
15, 213473, Note_on_c, 11, 69, 0
15, 213480, Note_on_c, 11, 69, 76
15, 213653, Note_on_c, 11, 69, 0
15, 213660, Note_on_c, 11, 66, 76
15, 213713, Note_on_c, 11, 66, 0
15, 213720, Note_on_c, 11, 62, 76
15, 214199, Note_on_c, 11, 62, 0
15, 214380, Note_on_c, 11, 70, 76
15, 214433, Note_on_c, 11, 70, 0
15, 214440, Note_on_c, 11, 70, 76
15, 214613, Note_on_c, 11, 70, 0
15, 214620, Note_on_c, 11, 67, 76
15, 214673, Note_on_c, 11, 67, 0
15, 214680, Note_on_c, 11, 64, 76
15, 215159, Note_on_c, 11, 64, 0
15, 215340, Note_on_c, 11, 67, 76
15, 215393, Note_on_c, 11, 67, 0
15, 215400, Note_on_c, 11, 65, 76
15, 215639, Note_on_c, 11, 65, 0
15, 215820, Note_on_c, 11, 65, 76
15, 215873, Note_on_c, 11, 65, 0
15, 215880, Note_on_c, 11, 64, 76
15, 216119, Note_on_c, 11, 64, 0
15, 216300, Note_on_c, 11, 64, 76
15, 216353, Note_on_c, 11, 64, 0
15, 216360, Note_on_c, 11, 62, 76
15, 216533, Note_on_c, 11, 62, 0
15, 216540, Note_on_c, 11, 65, 76
15, 216593, Note_on_c, 11, 65, 0
15, 216600, Note_on_c, 11, 69, 76
15, 217253, Note_on_c, 11, 69, 0
15, 217260, Note_on_c, 11, 66, 76
15, 217313, Note_on_c, 11, 66, 0
15, 217320, Note_on_c, 11, 67, 76
15, 217493, Note_on_c, 11, 67, 0
15, 217500, Note_on_c, 11, 64, 76
15, 217553, Note_on_c, 11, 64, 0
15, 217560, Note_on_c, 11, 66, 76
15, 217733, Note_on_c, 11, 66, 0
15, 217740, Note_on_c, 11, 62, 76
15, 217793, Note_on_c, 11, 62, 0
15, 217800, Note_on_c, 11, 64, 76
15, 217973, Note_on_c, 11, 64, 0
15, 217980, Note_on_c, 11, 71, 76
15, 218033, Note_on_c, 11, 71, 0
15, 218040, Note_on_c, 11, 76, 76
15, 218213, Note_on_c, 11, 76, 0
15, 218220, Note_on_c, 11, 73, 76
15, 218273, Note_on_c, 11, 73, 0
15, 218280, Note_on_c, 11, 74, 76
15, 218453, Note_on_c, 11, 74, 0
15, 218460, Note_on_c, 11, 71, 76
15, 218513, Note_on_c, 11, 71, 0
15, 218520, Note_on_c, 11, 69, 76
15, 218869, Note_on_c, 11, 69, 0
15, 218880, Note_on_c, 11, 69, 76
15, 218989, Note_on_c, 11, 69, 0
15, 219000, Note_on_c, 11, 69, 76
15, 219719, Note_on_c, 11, 69, 0
15, 220320, Note_on_c, 11, 76, 76
15, 220419, Note_on_c, 11, 76, 0
15, 220440, Note_on_c, 11, 76, 76
15, 220559, Note_on_c, 11, 76, 0
15, 220560, Note_on_c, 11, 78, 76
15, 220659, Note_on_c, 11, 78, 0
15, 220680, Note_on_c, 11, 74, 76
15, 220779, Note_on_c, 11, 74, 0
15, 220800, Note_on_c, 11, 74, 76
15, 220919, Note_on_c, 11, 74, 0
15, 220920, Note_on_c, 11, 76, 76
15, 221019, Note_on_c, 11, 76, 0
15, 221040, Note_on_c, 11, 73, 76
15, 221139, Note_on_c, 11, 73, 0
15, 221160, Note_on_c, 11, 73, 76
15, 221279, Note_on_c, 11, 73, 0
15, 221280, Note_on_c, 11, 74, 76
15, 221399, Note_on_c, 11, 74, 0
15, 221400, Note_on_c, 11, 76, 76
15, 221499, Note_on_c, 11, 76, 0
15, 221520, Note_on_c, 11, 78, 76
15, 221639, Note_on_c, 11, 78, 0
15, 221640, Note_on_c, 11, 79, 76
15, 221739, Note_on_c, 11, 79, 0
15, 221760, Note_on_c, 11, 76, 76
15, 221859, Note_on_c, 11, 76, 0
15, 221880, Note_on_c, 11, 76, 76
15, 221999, Note_on_c, 11, 76, 0
15, 222000, Note_on_c, 11, 78, 76
15, 222099, Note_on_c, 11, 78, 0
15, 222120, Note_on_c, 11, 74, 76
15, 222219, Note_on_c, 11, 74, 0
15, 222240, Note_on_c, 11, 74, 76
15, 222494, Note_on_c, 11, 74, 0
15, 222510, Note_on_c, 11, 74, 76
15, 222584, Note_on_c, 11, 74, 0
15, 222600, Note_on_c, 11, 74, 76
15, 222854, Note_on_c, 11, 74, 0
15, 222870, Note_on_c, 11, 74, 76
15, 222944, Note_on_c, 11, 74, 0
15, 222960, Note_on_c, 11, 74, 76
15, 223214, Note_on_c, 11, 74, 0
15, 223230, Note_on_c, 11, 74, 76
15, 223304, Note_on_c, 11, 74, 0
15, 223320, Note_on_c, 11, 74, 76
15, 223439, Note_on_c, 11, 74, 0
15, 223440, Note_on_c, 11, 71, 76
15, 223559, Note_on_c, 11, 71, 0
15, 223560, Note_on_c, 11, 73, 76
15, 223659, Note_on_c, 11, 73, 0
15, 223680, Note_on_c, 11, 74, 76
15, 223799, Note_on_c, 11, 74, 0
15, 223800, Note_on_c, 11, 83, 76
15, 223899, Note_on_c, 11, 83, 0
15, 223920, Note_on_c, 11, 73, 76
15, 224019, Note_on_c, 11, 73, 0
15, 224040, Note_on_c, 11, 74, 76
15, 224159, Note_on_c, 11, 74, 0
15, 224160, Note_on_c, 11, 73, 76
15, 224279, Note_on_c, 11, 73, 0
15, 224280, Note_on_c, 11, 71, 76
15, 224379, Note_on_c, 11, 71, 0
15, 224400, Note_on_c, 11, 73, 76
15, 224519, Note_on_c, 11, 73, 0
15, 224520, Note_on_c, 11, 76, 76
15, 224639, Note_on_c, 11, 76, 0
15, 224640, Note_on_c, 11, 74, 76
15, 224739, Note_on_c, 11, 74, 0
15, 224760, Note_on_c, 11, 76, 76
15, 225014, Note_on_c, 11, 76, 0
15, 225030, Note_on_c, 11, 74, 76
15, 225104, Note_on_c, 11, 74, 0
15, 225120, Note_on_c, 11, 76, 76
15, 225374, Note_on_c, 11, 76, 0
15, 225390, Note_on_c, 11, 73, 76
15, 225464, Note_on_c, 11, 73, 0
15, 225480, Note_on_c, 11, 74, 76
15, 225599, Note_on_c, 11, 74, 0
15, 225600, Note_on_c, 11, 73, 76
15, 225719, Note_on_c, 11, 73, 0
15, 225720, Note_on_c, 11, 74, 76
15, 225819, Note_on_c, 11, 74, 0
15, 225840, Note_on_c, 11, 74, 76
15, 226094, Note_on_c, 11, 74, 0
15, 226110, Note_on_c, 11, 66, 76
15, 226184, Note_on_c, 11, 66, 0
15, 226200, Note_on_c, 11, 69, 76
15, 226454, Note_on_c, 11, 69, 0
15, 226470, Note_on_c, 11, 74, 76
15, 226544, Note_on_c, 11, 74, 0
15, 226560, Note_on_c, 11, 74, 76
15, 226679, Note_on_c, 11, 74, 0
15, 226680, Note_on_c, 11, 76, 76
15, 226799, Note_on_c, 11, 76, 0
15, 226800, Note_on_c, 11, 74, 76
15, 226899, Note_on_c, 11, 74, 0
15, 226920, Note_on_c, 11, 73, 76
15, 227039, Note_on_c, 11, 73, 0
15, 227040, Note_on_c, 11, 74, 76
15, 227139, Note_on_c, 11, 74, 0
15, 227160, Note_on_c, 11, 71, 76
15, 227259, Note_on_c, 11, 71, 0
15, 227280, Note_on_c, 11, 71, 76
15, 227399, Note_on_c, 11, 71, 0
15, 227400, Note_on_c, 11, 73, 76
15, 227499, Note_on_c, 11, 73, 0
15, 227520, Note_on_c, 11, 69, 76
15, 227619, Note_on_c, 11, 69, 0
15, 227640, Note_on_c, 11, 69, 76
15, 227894, Note_on_c, 11, 69, 0
15, 227910, Note_on_c, 11, 81, 76
15, 227984, Note_on_c, 11, 81, 0
15, 228000, Note_on_c, 11, 76, 76
15, 228254, Note_on_c, 11, 76, 0
15, 228270, Note_on_c, 11, 73, 76
15, 228344, Note_on_c, 11, 73, 0
15, 228360, Note_on_c, 11, 69, 76
15, 228614, Note_on_c, 11, 69, 0
15, 228630, Note_on_c, 11, 69, 76
15, 228704, Note_on_c, 11, 69, 0
15, 228720, Note_on_c, 11, 69, 76
15, 228839, Note_on_c, 11, 69, 0
15, 228840, Note_on_c, 11, 71, 76
15, 228959, Note_on_c, 11, 71, 0
15, 228960, Note_on_c, 11, 73, 76
15, 229059, Note_on_c, 11, 73, 0
15, 229080, Note_on_c, 11, 74, 76
15, 229334, Note_on_c, 11, 74, 0
15, 229350, Note_on_c, 11, 76, 76
15, 229424, Note_on_c, 11, 76, 0
15, 229440, Note_on_c, 11, 73, 76
15, 229469, Note_on_c, 11, 73, 0
15, 229470, Note_on_c, 11, 74, 76
15, 229499, Note_on_c, 11, 74, 0
15, 229500, Note_on_c, 11, 73, 76
15, 229529, Note_on_c, 11, 73, 0
15, 229530, Note_on_c, 11, 74, 76
15, 229559, Note_on_c, 11, 74, 0
15, 229560, Note_on_c, 11, 73, 76
15, 229589, Note_on_c, 11, 73, 0
15, 229590, Note_on_c, 11, 74, 76
15, 229619, Note_on_c, 11, 74, 0
15, 229620, Note_on_c, 11, 71, 76
15, 229649, Note_on_c, 11, 71, 0
15, 229650, Note_on_c, 11, 73, 76
15, 229679, Note_on_c, 11, 73, 0
15, 229710, Note_on_c, 11, 69, 76
15, 229784, Note_on_c, 11, 69, 0
15, 229800, Note_on_c, 11, 69, 76
15, 229919, Note_on_c, 11, 69, 0
15, 229920, Note_on_c, 11, 71, 76
15, 230039, Note_on_c, 11, 71, 0
15, 230040, Note_on_c, 11, 69, 76
15, 230139, Note_on_c, 11, 69, 0
15, 230160, Note_on_c, 11, 68, 76
15, 230279, Note_on_c, 11, 68, 0
15, 230280, Note_on_c, 11, 69, 76
15, 230379, Note_on_c, 11, 69, 0
15, 230400, Note_on_c, 11, 66, 76
15, 230499, Note_on_c, 11, 66, 0
15, 230520, Note_on_c, 11, 66, 76
15, 230639, Note_on_c, 11, 66, 0
15, 230640, Note_on_c, 11, 68, 76
15, 230739, Note_on_c, 11, 68, 0
15, 230760, Note_on_c, 11, 64, 76
15, 230859, Note_on_c, 11, 64, 0
15, 230880, Note_on_c, 11, 64, 76
15, 231239, Note_on_c, 11, 64, 0
15, 231480, Note_on_c, 11, 76, 76
15, 231579, Note_on_c, 11, 76, 0
15, 231600, Note_on_c, 11, 71, 76
15, 231854, Note_on_c, 11, 71, 0
15, 231870, Note_on_c, 11, 71, 76
15, 231944, Note_on_c, 11, 71, 0
15, 231960, Note_on_c, 11, 69, 76
15, 232319, Note_on_c, 11, 69, 0
15, 232560, Note_on_c, 11, 74, 76
15, 232659, Note_on_c, 11, 74, 0
15, 232680, Note_on_c, 11, 69, 76
15, 232934, Note_on_c, 11, 69, 0
15, 232950, Note_on_c, 11, 69, 76
15, 233024, Note_on_c, 11, 69, 0
15, 233040, Note_on_c, 11, 67, 76
15, 233159, Note_on_c, 11, 67, 0
15, 233400, Note_on_c, 11, 73, 76
15, 233519, Note_on_c, 11, 73, 0
15, 233760, Note_on_c, 11, 75, 76
15, 233879, Note_on_c, 11, 75, 0
15, 234120, Note_on_c, 11, 76, 76
15, 234374, Note_on_c, 11, 76, 0
15, 234390, Note_on_c, 11, 76, 76
15, 234464, Note_on_c, 11, 76, 0
15, 234480, Note_on_c, 11, 76, 76
15, 234599, Note_on_c, 11, 76, 0
15, 234600, Note_on_c, 11, 78, 76
15, 234699, Note_on_c, 11, 78, 0
15, 234720, Note_on_c, 11, 74, 76
15, 234819, Note_on_c, 11, 74, 0
15, 234840, Note_on_c, 11, 74, 76
15, 234959, Note_on_c, 11, 74, 0
15, 234960, Note_on_c, 11, 76, 76
15, 235059, Note_on_c, 11, 76, 0
15, 235080, Note_on_c, 11, 73, 76
15, 235179, Note_on_c, 11, 73, 0
15, 235200, Note_on_c, 11, 73, 76
15, 235319, Note_on_c, 11, 73, 0
15, 235320, Note_on_c, 11, 69, 76
15, 235439, Note_on_c, 11, 69, 0
15, 235440, Note_on_c, 11, 71, 76
15, 235539, Note_on_c, 11, 71, 0
15, 235560, Note_on_c, 11, 73, 76
15, 235679, Note_on_c, 11, 73, 0
15, 235680, Note_on_c, 11, 74, 76
15, 235779, Note_on_c, 11, 74, 0
15, 235800, Note_on_c, 11, 76, 76
15, 235899, Note_on_c, 11, 76, 0
15, 235920, Note_on_c, 11, 69, 76
15, 236174, Note_on_c, 11, 69, 0
15, 236190, Note_on_c, 11, 73, 76
15, 236264, Note_on_c, 11, 73, 0
15, 236280, Note_on_c, 11, 62, 76
15, 236399, Note_on_c, 11, 62, 0
15, 236400, Note_on_c, 11, 66, 76
15, 236519, Note_on_c, 11, 66, 0
15, 236520, Note_on_c, 11, 69, 76
15, 236619, Note_on_c, 11, 69, 0
15, 236640, Note_on_c, 11, 74, 76
15, 236759, Note_on_c, 11, 74, 0
15, 236760, Note_on_c, 11, 76, 76
15, 236859, Note_on_c, 11, 76, 0
15, 236880, Note_on_c, 11, 72, 76
15, 236979, Note_on_c, 11, 72, 0
15, 237000, Note_on_c, 11, 72, 76
15, 237119, Note_on_c, 11, 72, 0
15, 237120, Note_on_c, 11, 74, 76
15, 237219, Note_on_c, 11, 74, 0
15, 237240, Note_on_c, 11, 71, 76
15, 237339, Note_on_c, 11, 71, 0
15, 237360, Note_on_c, 11, 71, 76
15, 237479, Note_on_c, 11, 71, 0
15, 237480, Note_on_c, 11, 67, 76
15, 237599, Note_on_c, 11, 67, 0
15, 237600, Note_on_c, 11, 71, 76
15, 237699, Note_on_c, 11, 71, 0
15, 237720, Note_on_c, 11, 76, 76
15, 237839, Note_on_c, 11, 76, 0
15, 237840, Note_on_c, 11, 78, 76
15, 237939, Note_on_c, 11, 78, 0
15, 237960, Note_on_c, 11, 74, 76
15, 238059, Note_on_c, 11, 74, 0
15, 238080, Note_on_c, 11, 74, 76
15, 238199, Note_on_c, 11, 74, 0
15, 238200, Note_on_c, 11, 76, 76
15, 238299, Note_on_c, 11, 76, 0
15, 238320, Note_on_c, 11, 73, 76
15, 238419, Note_on_c, 11, 73, 0
15, 238440, Note_on_c, 11, 73, 76
15, 238559, Note_on_c, 11, 73, 0
15, 238560, Note_on_c, 11, 74, 76
15, 238679, Note_on_c, 11, 74, 0
15, 238680, Note_on_c, 11, 76, 76
15, 238779, Note_on_c, 11, 76, 0
15, 238800, Note_on_c, 11, 78, 76
15, 238919, Note_on_c, 11, 78, 0
15, 238920, Note_on_c, 11, 79, 76
15, 239019, Note_on_c, 11, 79, 0
15, 239040, Note_on_c, 11, 76, 76
15, 239139, Note_on_c, 11, 76, 0
15, 239160, Note_on_c, 11, 76, 76
15, 239279, Note_on_c, 11, 76, 0
15, 239280, Note_on_c, 11, 78, 76
15, 239379, Note_on_c, 11, 78, 0
15, 239400, Note_on_c, 11, 74, 76
15, 239499, Note_on_c, 11, 74, 0
15, 239520, Note_on_c, 11, 74, 76
15, 239639, Note_on_c, 11, 74, 0
15, 240150, Note_on_c, 11, 73, 76
15, 240224, Note_on_c, 11, 73, 0
15, 240240, Note_on_c, 11, 73, 76
15, 240494, Note_on_c, 11, 73, 0
15, 240510, Note_on_c, 11, 75, 76
15, 240584, Note_on_c, 11, 75, 0
15, 240600, Note_on_c, 11, 76, 76
15, 240854, Note_on_c, 11, 76, 0
15, 240870, Note_on_c, 11, 76, 76
15, 240944, Note_on_c, 11, 76, 0
15, 240960, Note_on_c, 11, 76, 76
15, 241214, Note_on_c, 11, 76, 0
15, 241230, Note_on_c, 11, 76, 76
15, 241304, Note_on_c, 11, 76, 0
15, 241320, Note_on_c, 11, 76, 76
15, 241574, Note_on_c, 11, 76, 0
15, 241590, Note_on_c, 11, 76, 76
15, 241664, Note_on_c, 11, 76, 0
15, 241680, Note_on_c, 11, 76, 76
15, 241799, Note_on_c, 11, 76, 0
15, 241800, Note_on_c, 11, 73, 76
15, 241919, Note_on_c, 11, 73, 0
15, 241920, Note_on_c, 11, 74, 76
15, 242019, Note_on_c, 11, 74, 0
15, 242040, Note_on_c, 11, 76, 76
15, 242159, Note_on_c, 11, 76, 0
15, 242160, Note_on_c, 11, 73, 76
15, 242259, Note_on_c, 11, 73, 0
15, 242280, Note_on_c, 11, 74, 76
15, 242379, Note_on_c, 11, 74, 0
15, 242400, Note_on_c, 11, 76, 76
15, 242519, Note_on_c, 11, 76, 0
15, 242520, Note_on_c, 11, 74, 76
15, 242639, Note_on_c, 11, 74, 0
15, 242640, Note_on_c, 11, 73, 76
15, 242739, Note_on_c, 11, 73, 0
15, 242760, Note_on_c, 11, 74, 76
15, 243014, Note_on_c, 11, 74, 0
15, 243030, Note_on_c, 11, 73, 76
15, 243104, Note_on_c, 11, 73, 0
15, 243120, Note_on_c, 11, 74, 76
15, 243374, Note_on_c, 11, 74, 0
15, 243390, Note_on_c, 11, 71, 76
15, 243464, Note_on_c, 11, 71, 0
15, 243480, Note_on_c, 11, 69, 76
15, 243734, Note_on_c, 11, 69, 0
15, 243750, Note_on_c, 11, 69, 76
15, 243824, Note_on_c, 11, 69, 0
15, 243840, Note_on_c, 11, 69, 76
15, 244094, Note_on_c, 11, 69, 0
15, 244110, Note_on_c, 11, 69, 76
15, 244184, Note_on_c, 11, 69, 0
15, 244200, Note_on_c, 11, 69, 76
15, 244454, Note_on_c, 11, 69, 0
15, 244470, Note_on_c, 11, 69, 76
15, 244544, Note_on_c, 11, 69, 0
15, 244560, Note_on_c, 11, 69, 76
15, 244679, Note_on_c, 11, 69, 0
15, 245190, Note_on_c, 11, 57, 76
15, 245264, Note_on_c, 11, 57, 0
15, 245280, Note_on_c, 11, 57, 76
15, 245534, Note_on_c, 11, 57, 0
15, 245550, Note_on_c, 11, 57, 76
15, 245624, Note_on_c, 11, 57, 0
15, 245640, Note_on_c, 11, 57, 76
15, 245759, Note_on_c, 11, 57, 0
15, 266790, Note_on_c, 11, 64, 76
15, 266864, Note_on_c, 11, 64, 0
15, 266880, Note_on_c, 11, 64, 76
15, 267134, Note_on_c, 11, 64, 0
15, 267150, Note_on_c, 11, 64, 76
15, 267224, Note_on_c, 11, 64, 0
15, 267240, Note_on_c, 11, 64, 76
15, 267494, Note_on_c, 11, 64, 0
15, 267510, Note_on_c, 11, 64, 76
15, 267584, Note_on_c, 11, 64, 0
15, 267600, Note_on_c, 11, 64, 76
15, 267854, Note_on_c, 11, 64, 0
15, 267870, Note_on_c, 11, 64, 76
15, 267944, Note_on_c, 11, 64, 0
15, 267960, Note_on_c, 11, 64, 76
15, 268214, Note_on_c, 11, 64, 0
15, 268230, Note_on_c, 11, 64, 76
15, 268304, Note_on_c, 11, 64, 0
15, 268320, Note_on_c, 11, 64, 76
15, 268574, Note_on_c, 11, 64, 0
15, 268590, Note_on_c, 11, 64, 76
15, 268664, Note_on_c, 11, 64, 0
15, 268680, Note_on_c, 11, 64, 76
15, 268799, Note_on_c, 11, 64, 0
15, 268800, Note_on_c, 11, 71, 76
15, 268899, Note_on_c, 11, 71, 0
15, 268920, Note_on_c, 11, 69, 76
15, 269019, Note_on_c, 11, 69, 0
15, 269040, Note_on_c, 11, 71, 76
15, 269294, Note_on_c, 11, 71, 0
15, 269310, Note_on_c, 11, 69, 76
15, 269384, Note_on_c, 11, 69, 0
15, 269400, Note_on_c, 11, 71, 76
15, 269654, Note_on_c, 11, 71, 0
15, 269670, Note_on_c, 11, 68, 76
15, 269744, Note_on_c, 11, 68, 0
15, 269760, Note_on_c, 11, 69, 76
15, 269879, Note_on_c, 11, 69, 0
15, 269880, Note_on_c, 11, 68, 76
15, 269999, Note_on_c, 11, 68, 0
15, 270000, Note_on_c, 11, 69, 76
15, 270099, Note_on_c, 11, 69, 0
15, 270120, Note_on_c, 11, 69, 76
15, 270374, Note_on_c, 11, 69, 0
15, 270390, Note_on_c, 11, 73, 76
15, 270464, Note_on_c, 11, 73, 0
15, 270480, Note_on_c, 11, 71, 76
15, 270734, Note_on_c, 11, 71, 0
15, 270750, Note_on_c, 11, 69, 76
15, 270824, Note_on_c, 11, 69, 0
15, 270840, Note_on_c, 11, 69, 76
15, 270959, Note_on_c, 11, 69, 0
15, 270960, Note_on_c, 11, 71, 76
15, 271079, Note_on_c, 11, 71, 0
15, 271080, Note_on_c, 11, 69, 76
15, 271179, Note_on_c, 11, 69, 0
15, 271200, Note_on_c, 11, 68, 76
15, 271319, Note_on_c, 11, 68, 0
15, 271320, Note_on_c, 11, 69, 76
15, 271419, Note_on_c, 11, 69, 0
15, 271440, Note_on_c, 11, 66, 76
15, 271539, Note_on_c, 11, 66, 0
15, 271560, Note_on_c, 11, 66, 76
15, 271679, Note_on_c, 11, 66, 0
15, 271680, Note_on_c, 11, 68, 76
15, 271779, Note_on_c, 11, 68, 0
15, 271800, Note_on_c, 11, 64, 76
15, 271899, Note_on_c, 11, 64, 0
15, 271920, Note_on_c, 11, 64, 76
15, 272174, Note_on_c, 11, 64, 0
15, 272190, Note_on_c, 11, 76, 76
15, 272264, Note_on_c, 11, 76, 0
15, 272280, Note_on_c, 11, 71, 76
15, 272534, Note_on_c, 11, 71, 0
15, 272550, Note_on_c, 11, 68, 76
15, 272624, Note_on_c, 11, 68, 0
15, 272640, Note_on_c, 11, 64, 76
15, 272894, Note_on_c, 11, 64, 0
15, 272910, Note_on_c, 11, 64, 76
15, 272984, Note_on_c, 11, 64, 0
15, 273000, Note_on_c, 11, 64, 76
15, 273119, Note_on_c, 11, 64, 0
15, 273120, Note_on_c, 11, 69, 76
15, 273239, Note_on_c, 11, 69, 0
15, 273240, Note_on_c, 11, 71, 76
15, 273339, Note_on_c, 11, 71, 0
15, 273360, Note_on_c, 11, 73, 76
15, 273479, Note_on_c, 11, 73, 0
15, 273480, Note_on_c, 11, 74, 76
15, 273579, Note_on_c, 11, 74, 0
15, 273600, Note_on_c, 11, 71, 76
15, 273699, Note_on_c, 11, 71, 0
15, 273720, Note_on_c, 11, 71, 76
15, 273839, Note_on_c, 11, 71, 0
15, 273840, Note_on_c, 11, 73, 76
15, 273939, Note_on_c, 11, 73, 0
15, 273960, Note_on_c, 11, 69, 76
15, 274059, Note_on_c, 11, 69, 0
15, 274080, Note_on_c, 11, 69, 76
15, 274334, Note_on_c, 11, 69, 0
15, 274350, Note_on_c, 11, 69, 76
15, 274424, Note_on_c, 11, 69, 0
15, 274440, Note_on_c, 11, 69, 76
15, 274694, Note_on_c, 11, 69, 0
15, 274710, Note_on_c, 11, 69, 76
15, 274784, Note_on_c, 11, 69, 0
15, 274800, Note_on_c, 11, 69, 76
15, 275054, Note_on_c, 11, 69, 0
15, 275070, Note_on_c, 11, 69, 76
15, 275144, Note_on_c, 11, 69, 0
15, 275160, Note_on_c, 11, 69, 76
15, 275279, Note_on_c, 11, 69, 0
15, 275280, Note_on_c, 11, 66, 76
15, 275399, Note_on_c, 11, 66, 0
15, 275400, Note_on_c, 11, 68, 76
15, 275519, Note_on_c, 11, 68, 0
15, 275520, Note_on_c, 11, 69, 76
15, 275639, Note_on_c, 11, 69, 0
15, 275640, Note_on_c, 11, 78, 76
15, 275739, Note_on_c, 11, 78, 0
15, 275760, Note_on_c, 11, 68, 76
15, 275859, Note_on_c, 11, 68, 0
15, 275880, Note_on_c, 11, 69, 76
15, 275999, Note_on_c, 11, 69, 0
15, 276000, Note_on_c, 11, 68, 76
15, 276119, Note_on_c, 11, 68, 0
15, 276120, Note_on_c, 11, 66, 76
15, 276219, Note_on_c, 11, 66, 0
15, 276240, Note_on_c, 11, 68, 76
15, 276359, Note_on_c, 11, 68, 0
15, 276360, Note_on_c, 11, 64, 76
15, 276479, Note_on_c, 11, 64, 0
15, 276480, Note_on_c, 11, 66, 76
15, 276599, Note_on_c, 11, 66, 0
15, 276600, Note_on_c, 11, 67, 76
15, 276719, Note_on_c, 11, 67, 0
15, 276720, Note_on_c, 11, 76, 76
15, 276819, Note_on_c, 11, 76, 0
15, 276840, Note_on_c, 11, 66, 76
15, 276939, Note_on_c, 11, 66, 0
15, 276960, Note_on_c, 11, 67, 76
15, 277079, Note_on_c, 11, 67, 0
15, 277080, Note_on_c, 11, 66, 76
15, 277199, Note_on_c, 11, 66, 0
15, 277200, Note_on_c, 11, 64, 76
15, 277299, Note_on_c, 11, 64, 0
15, 277320, Note_on_c, 11, 66, 76
15, 277574, Note_on_c, 11, 66, 0
15, 277590, Note_on_c, 11, 78, 76
15, 277664, Note_on_c, 11, 78, 0
15, 277680, Note_on_c, 11, 78, 76
15, 277799, Note_on_c, 11, 78, 0
15, 277800, Note_on_c, 11, 79, 76
15, 277899, Note_on_c, 11, 79, 0
15, 277920, Note_on_c, 11, 76, 76
15, 278019, Note_on_c, 11, 76, 0
15, 278040, Note_on_c, 11, 76, 76
15, 278159, Note_on_c, 11, 76, 0
15, 278160, Note_on_c, 11, 78, 76
15, 278259, Note_on_c, 11, 78, 0
15, 278280, Note_on_c, 11, 75, 76
15, 278379, Note_on_c, 11, 75, 0
15, 278400, Note_on_c, 11, 75, 76
15, 278519, Note_on_c, 11, 75, 0
15, 278520, Note_on_c, 11, 71, 76
15, 278639, Note_on_c, 11, 71, 0
15, 278640, Note_on_c, 11, 73, 76
15, 278759, Note_on_c, 11, 73, 0
15, 278760, Note_on_c, 11, 75, 76
15, 278879, Note_on_c, 11, 75, 0
15, 278880, Note_on_c, 11, 76, 76
15, 278979, Note_on_c, 11, 76, 0
15, 279000, Note_on_c, 11, 78, 76
15, 279099, Note_on_c, 11, 78, 0
15, 279120, Note_on_c, 11, 71, 76
15, 279374, Note_on_c, 11, 71, 0
15, 279390, Note_on_c, 11, 75, 76
15, 279464, Note_on_c, 11, 75, 0
15, 279480, Note_on_c, 11, 64, 76
15, 279599, Note_on_c, 11, 64, 0
15, 279600, Note_on_c, 11, 68, 76
15, 279719, Note_on_c, 11, 68, 0
15, 279720, Note_on_c, 11, 71, 76
15, 279819, Note_on_c, 11, 71, 0
15, 279840, Note_on_c, 11, 76, 76
15, 279959, Note_on_c, 11, 76, 0
15, 279960, Note_on_c, 11, 78, 76
15, 280059, Note_on_c, 11, 78, 0
15, 280080, Note_on_c, 11, 74, 76
15, 280179, Note_on_c, 11, 74, 0
15, 280200, Note_on_c, 11, 74, 76
15, 280319, Note_on_c, 11, 74, 0
15, 280320, Note_on_c, 11, 76, 76
15, 280419, Note_on_c, 11, 76, 0
15, 280440, Note_on_c, 11, 73, 76
15, 280539, Note_on_c, 11, 73, 0
15, 280560, Note_on_c, 11, 73, 76
15, 280679, Note_on_c, 11, 73, 0
15, 280680, Note_on_c, 11, 69, 76
15, 280799, Note_on_c, 11, 69, 0
15, 280800, Note_on_c, 11, 71, 76
15, 280919, Note_on_c, 11, 71, 0
15, 280920, Note_on_c, 11, 73, 76
15, 281039, Note_on_c, 11, 73, 0
15, 281040, Note_on_c, 11, 74, 76
15, 281139, Note_on_c, 11, 74, 0
15, 281160, Note_on_c, 11, 76, 76
15, 281259, Note_on_c, 11, 76, 0
15, 281280, Note_on_c, 11, 69, 76
15, 281534, Note_on_c, 11, 69, 0
15, 281550, Note_on_c, 11, 73, 76
15, 281624, Note_on_c, 11, 73, 0
15, 281640, Note_on_c, 11, 62, 76
15, 281759, Note_on_c, 11, 62, 0
15, 281760, Note_on_c, 11, 66, 76
15, 281879, Note_on_c, 11, 66, 0
15, 281880, Note_on_c, 11, 69, 76
15, 281979, Note_on_c, 11, 69, 0
15, 282000, Note_on_c, 11, 74, 76
15, 282119, Note_on_c, 11, 74, 0
15, 282120, Note_on_c, 11, 76, 76
15, 282219, Note_on_c, 11, 76, 0
15, 282240, Note_on_c, 11, 73, 76
15, 282339, Note_on_c, 11, 73, 0
15, 282360, Note_on_c, 11, 73, 76
15, 282479, Note_on_c, 11, 73, 0
15, 282480, Note_on_c, 11, 74, 76
15, 282579, Note_on_c, 11, 74, 0
15, 282600, Note_on_c, 11, 71, 76
15, 282699, Note_on_c, 11, 71, 0
15, 282720, Note_on_c, 11, 71, 76
15, 282839, Note_on_c, 11, 71, 0
15, 282840, Note_on_c, 11, 73, 76
15, 282959, Note_on_c, 11, 73, 0
15, 282960, Note_on_c, 11, 74, 76
15, 283059, Note_on_c, 11, 74, 0
15, 283080, Note_on_c, 11, 76, 76
15, 283199, Note_on_c, 11, 76, 0
15, 283200, Note_on_c, 11, 78, 76
15, 283299, Note_on_c, 11, 78, 0
15, 283320, Note_on_c, 11, 74, 76
15, 283419, Note_on_c, 11, 74, 0
15, 283440, Note_on_c, 11, 74, 76
15, 283559, Note_on_c, 11, 74, 0
15, 283560, Note_on_c, 11, 76, 76
15, 283659, Note_on_c, 11, 76, 0
15, 283680, Note_on_c, 11, 73, 76
15, 283779, Note_on_c, 11, 73, 0
15, 283800, Note_on_c, 11, 73, 76
15, 283919, Note_on_c, 11, 73, 0
15, 283920, Note_on_c, 11, 74, 76
15, 284039, Note_on_c, 11, 74, 0
15, 284040, Note_on_c, 11, 76, 76
15, 284139, Note_on_c, 11, 76, 0
15, 284160, Note_on_c, 11, 78, 76
15, 284279, Note_on_c, 11, 78, 0
15, 284280, Note_on_c, 11, 79, 76
15, 284379, Note_on_c, 11, 79, 0
15, 284400, Note_on_c, 11, 76, 76
15, 284499, Note_on_c, 11, 76, 0
15, 284520, Note_on_c, 11, 76, 76
15, 284639, Note_on_c, 11, 76, 0
15, 284640, Note_on_c, 11, 78, 76
15, 284739, Note_on_c, 11, 78, 0
15, 284760, Note_on_c, 11, 74, 76
15, 284859, Note_on_c, 11, 74, 0
15, 284880, Note_on_c, 11, 74, 76
15, 285134, Note_on_c, 11, 74, 0
15, 285150, Note_on_c, 11, 74, 76
15, 285224, Note_on_c, 11, 74, 0
15, 285240, Note_on_c, 11, 74, 76
15, 285494, Note_on_c, 11, 74, 0
15, 285510, Note_on_c, 11, 74, 76
15, 285584, Note_on_c, 11, 74, 0
15, 285600, Note_on_c, 11, 74, 76
15, 285854, Note_on_c, 11, 74, 0
15, 285870, Note_on_c, 11, 74, 76
15, 285944, Note_on_c, 11, 74, 0
15, 285960, Note_on_c, 11, 74, 76
15, 286079, Note_on_c, 11, 74, 0
15, 286080, Note_on_c, 11, 71, 76
15, 286199, Note_on_c, 11, 71, 0
15, 286200, Note_on_c, 11, 73, 76
15, 286319, Note_on_c, 11, 73, 0
15, 286320, Note_on_c, 11, 74, 76
15, 286439, Note_on_c, 11, 74, 0
15, 286440, Note_on_c, 11, 76, 76
15, 286539, Note_on_c, 11, 76, 0
15, 286560, Note_on_c, 11, 73, 76
15, 286659, Note_on_c, 11, 73, 0
15, 286680, Note_on_c, 11, 74, 76
15, 286799, Note_on_c, 11, 74, 0
15, 286800, Note_on_c, 11, 73, 76
15, 286919, Note_on_c, 11, 73, 0
15, 286920, Note_on_c, 11, 71, 76
15, 287019, Note_on_c, 11, 71, 0
15, 287040, Note_on_c, 11, 73, 76
15, 287159, Note_on_c, 11, 73, 0
15, 287160, Note_on_c, 11, 76, 76
15, 287259, Note_on_c, 11, 76, 0
15, 287280, Note_on_c, 11, 74, 76
15, 287379, Note_on_c, 11, 74, 0
15, 287400, Note_on_c, 11, 76, 76
15, 287654, Note_on_c, 11, 76, 0
15, 287670, Note_on_c, 11, 69, 76
15, 287744, Note_on_c, 11, 69, 0
15, 287760, Note_on_c, 11, 64, 76
15, 288014, Note_on_c, 11, 64, 0
15, 288030, Note_on_c, 11, 68, 76
15, 288104, Note_on_c, 11, 68, 0
15, 288120, Note_on_c, 11, 64, 76
15, 288374, Note_on_c, 11, 64, 0
15, 288390, Note_on_c, 11, 64, 76
15, 288464, Note_on_c, 11, 64, 0
15, 288480, Note_on_c, 11, 64, 76
15, 288599, Note_on_c, 11, 64, 0
15, 288600, Note_on_c, 11, 69, 76
15, 288699, Note_on_c, 11, 69, 0
15, 288720, Note_on_c, 11, 68, 76
15, 288819, Note_on_c, 11, 68, 0
15, 288840, Note_on_c, 11, 68, 76
15, 288959, Note_on_c, 11, 68, 0
15, 288960, Note_on_c, 11, 71, 76
15, 289059, Note_on_c, 11, 71, 0
15, 289080, Note_on_c, 11, 69, 76
15, 289179, Note_on_c, 11, 69, 0
15, 289200, Note_on_c, 11, 69, 76
15, 289319, Note_on_c, 11, 69, 0
15, 290550, Note_on_c, 11, 73, 76
15, 290624, Note_on_c, 11, 73, 0
15, 290640, Note_on_c, 11, 73, 76
15, 290759, Note_on_c, 11, 73, 0
15, 290760, Note_on_c, 11, 76, 76
15, 290859, Note_on_c, 11, 76, 0
15, 290880, Note_on_c, 11, 74, 76
15, 290979, Note_on_c, 11, 74, 0
15, 291000, Note_on_c, 11, 74, 76
15, 291119, Note_on_c, 11, 74, 0
15, 291120, Note_on_c, 11, 78, 76
15, 291219, Note_on_c, 11, 78, 0
15, 291240, Note_on_c, 11, 76, 76
15, 291339, Note_on_c, 11, 76, 0
15, 291360, Note_on_c, 11, 76, 76
15, 291614, Note_on_c, 11, 76, 0
15, 291630, Note_on_c, 11, 73, 76
15, 291704, Note_on_c, 11, 73, 0
15, 291720, Note_on_c, 11, 76, 76
15, 291974, Note_on_c, 11, 76, 0
15, 291990, Note_on_c, 11, 73, 76
15, 292064, Note_on_c, 11, 73, 0
15, 292080, Note_on_c, 11, 69, 76
15, 292334, Note_on_c, 11, 69, 0
15, 292350, Note_on_c, 11, 73, 76
15, 292424, Note_on_c, 11, 73, 0
15, 292440, Note_on_c, 11, 74, 76
15, 292559, Note_on_c, 11, 74, 0
15, 293790, Note_on_c, 11, 74, 76
15, 293864, Note_on_c, 11, 74, 0
15, 293880, Note_on_c, 11, 74, 76
15, 293999, Note_on_c, 11, 74, 0
15, 294000, Note_on_c, 11, 78, 76
15, 294099, Note_on_c, 11, 78, 0
15, 294120, Note_on_c, 11, 76, 76
15, 294219, Note_on_c, 11, 76, 0
15, 294240, Note_on_c, 11, 76, 76
15, 294359, Note_on_c, 11, 76, 0
15, 294360, Note_on_c, 11, 79, 76
15, 294459, Note_on_c, 11, 79, 0
15, 294480, Note_on_c, 11, 78, 76
15, 294579, Note_on_c, 11, 78, 0
15, 294600, Note_on_c, 11, 78, 76
15, 294719, Note_on_c, 11, 78, 0
15, 295950, Note_on_c, 11, 66, 76
15, 296024, Note_on_c, 11, 66, 0
15, 296040, Note_on_c, 11, 69, 76
15, 296294, Note_on_c, 11, 69, 0
15, 296310, Note_on_c, 11, 66, 76
15, 296384, Note_on_c, 11, 66, 0
15, 296400, Note_on_c, 11, 62, 76
15, 296654, Note_on_c, 11, 62, 0
15, 296670, Note_on_c, 11, 66, 76
15, 296744, Note_on_c, 11, 66, 0
15, 296760, Note_on_c, 11, 67, 76
15, 297014, Note_on_c, 11, 67, 0
15, 297030, Note_on_c, 11, 66, 76
15, 297104, Note_on_c, 11, 66, 0
15, 297120, Note_on_c, 11, 67, 76
15, 297374, Note_on_c, 11, 67, 0
15, 297390, Note_on_c, 11, 69, 76
15, 297464, Note_on_c, 11, 69, 0
15, 297480, Note_on_c, 11, 69, 76
15, 297599, Note_on_c, 11, 69, 0
15, 297600, Note_on_c, 11, 71, 76
15, 297699, Note_on_c, 11, 71, 0
15, 297720, Note_on_c, 11, 68, 76
15, 297819, Note_on_c, 11, 68, 0
15, 297840, Note_on_c, 11, 68, 76
15, 297959, Note_on_c, 11, 68, 0
15, 297960, Note_on_c, 11, 69, 76
15, 298079, Note_on_c, 11, 69, 0
15, 298080, Note_on_c, 11, 71, 76
15, 298179, Note_on_c, 11, 71, 0
15, 298200, Note_on_c, 11, 69, 76
15, 298454, Note_on_c, 11, 69, 0
15, 298470, Note_on_c, 11, 71, 76
15, 298544, Note_on_c, 11, 71, 0
15, 298560, Note_on_c, 11, 71, 76
15, 298679, Note_on_c, 11, 71, 0
15, 298680, Note_on_c, 11, 73, 76
15, 298779, Note_on_c, 11, 73, 0
15, 298800, Note_on_c, 11, 70, 76
15, 298899, Note_on_c, 11, 70, 0
15, 298920, Note_on_c, 11, 70, 76
15, 299039, Note_on_c, 11, 70, 0
15, 299040, Note_on_c, 11, 71, 76
15, 299159, Note_on_c, 11, 71, 0
15, 299160, Note_on_c, 11, 73, 76
15, 299259, Note_on_c, 11, 73, 0
15, 299280, Note_on_c, 11, 71, 76
15, 299534, Note_on_c, 11, 71, 0
15, 299550, Note_on_c, 11, 73, 76
15, 299624, Note_on_c, 11, 73, 0
15, 299640, Note_on_c, 11, 73, 76
15, 299759, Note_on_c, 11, 73, 0
15, 299760, Note_on_c, 11, 74, 76
15, 299859, Note_on_c, 11, 74, 0
15, 299880, Note_on_c, 11, 71, 76
15, 299979, Note_on_c, 11, 71, 0
15, 300000, Note_on_c, 11, 71, 76
15, 300119, Note_on_c, 11, 71, 0
15, 300120, Note_on_c, 11, 73, 76
15, 300239, Note_on_c, 11, 73, 0
15, 300240, Note_on_c, 11, 74, 76
15, 300339, Note_on_c, 11, 74, 0
15, 300360, Note_on_c, 11, 73, 76
15, 300614, Note_on_c, 11, 73, 0
15, 300630, Note_on_c, 11, 74, 76
15, 300704, Note_on_c, 11, 74, 0
15, 300720, Note_on_c, 11, 74, 76
15, 300839, Note_on_c, 11, 74, 0
15, 300840, Note_on_c, 11, 76, 76
15, 300939, Note_on_c, 11, 76, 0
15, 300960, Note_on_c, 11, 73, 76
15, 301059, Note_on_c, 11, 73, 0
15, 301080, Note_on_c, 11, 73, 76
15, 301334, Note_on_c, 11, 73, 0
15, 301350, Note_on_c, 11, 66, 76
15, 301424, Note_on_c, 11, 66, 0
15, 301440, Note_on_c, 11, 66, 76
15, 301694, Note_on_c, 11, 66, 0
15, 301710, Note_on_c, 11, 66, 76
15, 301784, Note_on_c, 11, 66, 0
15, 301800, Note_on_c, 11, 66, 76
15, 302054, Note_on_c, 11, 66, 0
15, 302070, Note_on_c, 11, 66, 76
15, 302144, Note_on_c, 11, 66, 0
15, 302160, Note_on_c, 11, 66, 76
15, 302279, Note_on_c, 11, 66, 0
15, 302520, Note_on_c, 11, 62, 76
15, 302639, Note_on_c, 11, 62, 0
15, 302880, Note_on_c, 11, 66, 76
15, 302999, Note_on_c, 11, 66, 0
15, 303240, Note_on_c, 11, 71, 76
15, 303359, Note_on_c, 11, 71, 0
15, 303600, Note_on_c, 11, 70, 76
15, 303719, Note_on_c, 11, 70, 0
15, 303960, Note_on_c, 11, 71, 76
15, 304079, Note_on_c, 11, 71, 0
15, 304320, Note_on_c, 11, 73, 76
15, 304439, Note_on_c, 11, 73, 0
15, 304440, Note_on_c, 11, 71, 76
15, 304559, Note_on_c, 11, 71, 0
15, 304560, Note_on_c, 11, 73, 76
15, 304659, Note_on_c, 11, 73, 0
15, 304680, Note_on_c, 11, 73, 76
15, 304949, Note_on_c, 11, 73, 0
15, 304950, Note_on_c, 11, 71, 76
15, 305024, Note_on_c, 11, 71, 0
15, 305040, Note_on_c, 11, 71, 76
15, 305309, Note_on_c, 11, 71, 0
15, 305310, Note_on_c, 11, 70, 76
15, 305384, Note_on_c, 11, 70, 0
15, 305400, Note_on_c, 11, 71, 76
15, 305519, Note_on_c, 11, 71, 0
15, 305760, Note_on_c, 11, 71, 76
15, 305879, Note_on_c, 11, 71, 0
15, 306120, Note_on_c, 11, 75, 76
15, 306239, Note_on_c, 11, 75, 0
15, 306480, Note_on_c, 11, 76, 76
15, 306599, Note_on_c, 11, 76, 0
15, 307110, Note_on_c, 11, 71, 76
15, 307184, Note_on_c, 11, 71, 0
15, 307200, Note_on_c, 11, 73, 76
15, 307454, Note_on_c, 11, 73, 0
15, 307470, Note_on_c, 11, 75, 76
15, 307544, Note_on_c, 11, 75, 0
15, 307560, Note_on_c, 11, 76, 76
15, 307814, Note_on_c, 11, 76, 0
15, 307830, Note_on_c, 11, 71, 76
15, 307904, Note_on_c, 11, 71, 0
15, 307920, Note_on_c, 11, 70, 76
15, 308174, Note_on_c, 11, 70, 0
15, 308190, Note_on_c, 11, 71, 76
15, 308264, Note_on_c, 11, 71, 0
15, 308280, Note_on_c, 11, 73, 76
15, 308534, Note_on_c, 11, 73, 0
15, 308550, Note_on_c, 11, 76, 76
15, 308624, Note_on_c, 11, 76, 0
15, 308640, Note_on_c, 11, 70, 76
15, 308759, Note_on_c, 11, 70, 0
15, 308760, Note_on_c, 11, 71, 76
15, 308879, Note_on_c, 11, 71, 0
15, 308880, Note_on_c, 11, 73, 76
15, 308979, Note_on_c, 11, 73, 0
15, 309000, Note_on_c, 11, 73, 76
15, 309119, Note_on_c, 11, 73, 0
15, 309120, Note_on_c, 11, 74, 76
15, 309219, Note_on_c, 11, 74, 0
15, 309240, Note_on_c, 11, 71, 76
15, 309339, Note_on_c, 11, 71, 0
15, 309360, Note_on_c, 11, 71, 76
15, 309479, Note_on_c, 11, 71, 0
15, 309480, Note_on_c, 11, 73, 76
15, 309579, Note_on_c, 11, 73, 0
15, 309600, Note_on_c, 11, 70, 76
15, 309699, Note_on_c, 11, 70, 0
15, 309720, Note_on_c, 11, 71, 76
15, 309974, Note_on_c, 11, 71, 0
15, 309990, Note_on_c, 11, 71, 76
15, 310064, Note_on_c, 11, 71, 0
15, 310080, Note_on_c, 11, 67, 76
15, 310199, Note_on_c, 11, 67, 0
15, 310200, Note_on_c, 11, 66, 76
15, 310319, Note_on_c, 11, 66, 0
15, 310320, Note_on_c, 11, 64, 76
15, 310419, Note_on_c, 11, 64, 0
15, 310440, Note_on_c, 11, 64, 76
15, 310559, Note_on_c, 11, 64, 0
15, 310560, Note_on_c, 11, 62, 76
15, 310679, Note_on_c, 11, 62, 0
15, 310680, Note_on_c, 11, 61, 76
15, 310779, Note_on_c, 11, 61, 0
15, 310800, Note_on_c, 11, 62, 76
15, 310919, Note_on_c, 11, 62, 0
15, 310920, Note_on_c, 11, 64, 76
15, 311039, Note_on_c, 11, 64, 0
15, 311040, Note_on_c, 11, 66, 76
15, 311139, Note_on_c, 11, 66, 0
15, 311160, Note_on_c, 11, 66, 76
15, 311279, Note_on_c, 11, 66, 0
15, 311280, Note_on_c, 11, 67, 76
15, 311379, Note_on_c, 11, 67, 0
15, 311400, Note_on_c, 11, 64, 76
15, 311499, Note_on_c, 11, 64, 0
15, 311520, Note_on_c, 11, 64, 76
15, 311639, Note_on_c, 11, 64, 0
15, 311640, Note_on_c, 11, 66, 76
15, 311739, Note_on_c, 11, 66, 0
15, 311760, Note_on_c, 11, 62, 76
15, 311859, Note_on_c, 11, 62, 0
15, 311880, Note_on_c, 11, 62, 76
15, 311999, Note_on_c, 11, 62, 0
15, 312000, Note_on_c, 11, 64, 76
15, 312119, Note_on_c, 11, 64, 0
15, 312120, Note_on_c, 11, 66, 76
15, 312239, Note_on_c, 11, 66, 0
15, 312240, Note_on_c, 11, 66, 76
15, 312359, Note_on_c, 11, 66, 0
15, 312360, Note_on_c, 11, 67, 76
15, 312479, Note_on_c, 11, 67, 0
15, 312480, Note_on_c, 11, 64, 76
15, 312599, Note_on_c, 11, 64, 0
15, 312600, Note_on_c, 11, 64, 76
15, 312719, Note_on_c, 11, 64, 0
15, 312720, Note_on_c, 11, 66, 76
15, 312839, Note_on_c, 11, 66, 0
15, 312840, Note_on_c, 11, 62, 76
15, 312939, Note_on_c, 11, 62, 0
15, 312960, Note_on_c, 11, 62, 76
15, 313319, Note_on_c, 11, 62, 0
15, 313590, Note_on_c, 11, 78, 76
15, 313664, Note_on_c, 11, 78, 0
15, 313680, Note_on_c, 11, 75, 76
15, 313934, Note_on_c, 11, 75, 0
15, 313950, Note_on_c, 11, 71, 76
15, 314024, Note_on_c, 11, 71, 0
15, 314040, Note_on_c, 11, 83, 76
15, 314399, Note_on_c, 11, 83, 0
15, 314670, Note_on_c, 11, 79, 76
15, 314744, Note_on_c, 11, 79, 0
15, 314760, Note_on_c, 11, 76, 76
15, 315014, Note_on_c, 11, 76, 0
15, 315030, Note_on_c, 11, 72, 76
15, 315104, Note_on_c, 11, 72, 0
15, 315120, Note_on_c, 11, 84, 76
15, 315374, Note_on_c, 11, 84, 0
15, 315390, Note_on_c, 11, 72, 76
15, 315464, Note_on_c, 11, 72, 0
15, 315480, Note_on_c, 11, 72, 76
15, 315734, Note_on_c, 11, 72, 0
15, 315750, Note_on_c, 11, 72, 76
15, 315824, Note_on_c, 11, 72, 0
15, 315840, Note_on_c, 11, 72, 76
15, 316094, Note_on_c, 11, 72, 0
15, 316110, Note_on_c, 11, 72, 76
15, 316184, Note_on_c, 11, 72, 0
15, 316200, Note_on_c, 11, 71, 76
15, 316319, Note_on_c, 11, 71, 0
15, 316560, Note_on_c, 11, 75, 76
15, 316679, Note_on_c, 11, 75, 0
15, 316920, Note_on_c, 11, 78, 76
15, 317039, Note_on_c, 11, 78, 0
15, 317640, Note_on_c, 11, 67, 76
15, 317759, Note_on_c, 11, 67, 0
15, 318000, Note_on_c, 11, 71, 76
15, 318119, Note_on_c, 11, 71, 0
15, 318720, Note_on_c, 11, 74, 76
15, 318839, Note_on_c, 11, 74, 0
15, 319080, Note_on_c, 11, 69, 76
15, 319199, Note_on_c, 11, 69, 0
15, 319800, Note_on_c, 11, 72, 76
15, 319919, Note_on_c, 11, 72, 0
15, 320160, Note_on_c, 11, 67, 76
15, 320279, Note_on_c, 11, 67, 0
15, 320520, Note_on_c, 11, 74, 76
15, 320639, Note_on_c, 11, 74, 0
15, 321870, Note_on_c, 11, 67, 76
15, 321944, Note_on_c, 11, 67, 0
15, 321960, Note_on_c, 11, 67, 76
15, 322079, Note_on_c, 11, 67, 0
15, 322080, Note_on_c, 11, 69, 76
15, 322179, Note_on_c, 11, 69, 0
15, 322200, Note_on_c, 11, 66, 76
15, 322299, Note_on_c, 11, 66, 0
15, 322320, Note_on_c, 11, 66, 76
15, 322439, Note_on_c, 11, 66, 0
15, 322440, Note_on_c, 11, 67, 76
15, 322539, Note_on_c, 11, 67, 0
15, 322560, Note_on_c, 11, 64, 76
15, 322659, Note_on_c, 11, 64, 0
15, 322680, Note_on_c, 11, 64, 76
15, 322799, Note_on_c, 11, 64, 0
15, 322800, Note_on_c, 11, 66, 76
15, 322919, Note_on_c, 11, 66, 0
15, 322920, Note_on_c, 11, 67, 76
15, 323039, Note_on_c, 11, 67, 0
15, 323040, Note_on_c, 11, 69, 76
15, 323159, Note_on_c, 11, 69, 0
15, 323160, Note_on_c, 11, 71, 76
15, 323259, Note_on_c, 11, 71, 0
15, 323280, Note_on_c, 11, 67, 76
15, 323379, Note_on_c, 11, 67, 0
15, 323400, Note_on_c, 11, 67, 76
15, 323519, Note_on_c, 11, 67, 0
15, 323520, Note_on_c, 11, 69, 76
15, 323619, Note_on_c, 11, 69, 0
15, 323640, Note_on_c, 11, 66, 76
15, 323739, Note_on_c, 11, 66, 0
15, 323760, Note_on_c, 11, 66, 76
15, 323879, Note_on_c, 11, 66, 0
15, 323880, Note_on_c, 11, 67, 76
15, 323999, Note_on_c, 11, 67, 0
15, 324000, Note_on_c, 11, 69, 76
15, 324099, Note_on_c, 11, 69, 0
15, 324120, Note_on_c, 11, 69, 76
15, 324374, Note_on_c, 11, 69, 0
15, 324390, Note_on_c, 11, 67, 76
15, 324464, Note_on_c, 11, 67, 0
15, 324480, Note_on_c, 11, 67, 76
15, 324734, Note_on_c, 11, 67, 0
15, 324750, Note_on_c, 11, 66, 76
15, 324824, Note_on_c, 11, 66, 0
15, 324840, Note_on_c, 11, 67, 76
15, 324959, Note_on_c, 11, 67, 0
15, 325200, Note_on_c, 11, 74, 76
15, 325319, Note_on_c, 11, 74, 0
15, 325560, Note_on_c, 11, 74, 76
15, 325679, Note_on_c, 11, 74, 0
15, 325920, Note_on_c, 11, 74, 76
15, 326039, Note_on_c, 11, 74, 0
15, 326550, Note_on_c, 11, 67, 76
15, 326624, Note_on_c, 11, 67, 0
15, 326640, Note_on_c, 11, 69, 76
15, 326894, Note_on_c, 11, 69, 0
15, 326910, Note_on_c, 11, 71, 76
15, 326984, Note_on_c, 11, 71, 0
15, 327000, Note_on_c, 11, 72, 76
15, 327254, Note_on_c, 11, 72, 0
15, 327270, Note_on_c, 11, 67, 76
15, 327344, Note_on_c, 11, 67, 0
15, 327360, Note_on_c, 11, 66, 76
15, 327614, Note_on_c, 11, 66, 0
15, 327630, Note_on_c, 11, 67, 76
15, 327704, Note_on_c, 11, 67, 0
15, 327720, Note_on_c, 11, 69, 76
15, 327974, Note_on_c, 11, 69, 0
15, 327990, Note_on_c, 11, 72, 76
15, 328064, Note_on_c, 11, 72, 0
15, 328080, Note_on_c, 11, 66, 76
15, 328199, Note_on_c, 11, 66, 0
15, 328200, Note_on_c, 11, 67, 76
15, 328319, Note_on_c, 11, 67, 0
15, 328320, Note_on_c, 11, 69, 76
15, 328419, Note_on_c, 11, 69, 0
15, 328440, Note_on_c, 11, 69, 76
15, 328559, Note_on_c, 11, 69, 0
15, 328560, Note_on_c, 11, 71, 76
15, 328659, Note_on_c, 11, 71, 0
15, 328680, Note_on_c, 11, 67, 76
15, 328779, Note_on_c, 11, 67, 0
15, 328800, Note_on_c, 11, 67, 76
15, 328919, Note_on_c, 11, 67, 0
15, 328920, Note_on_c, 11, 69, 76
15, 329019, Note_on_c, 11, 69, 0
15, 329040, Note_on_c, 11, 66, 76
15, 329139, Note_on_c, 11, 66, 0
15, 329160, Note_on_c, 11, 67, 76
15, 329414, Note_on_c, 11, 67, 0
15, 329430, Note_on_c, 11, 72, 76
15, 329504, Note_on_c, 11, 72, 0
15, 329520, Note_on_c, 11, 71, 76
15, 329639, Note_on_c, 11, 71, 0
15, 329640, Note_on_c, 11, 72, 76
15, 329739, Note_on_c, 11, 72, 0
15, 329760, Note_on_c, 11, 69, 76
15, 329859, Note_on_c, 11, 69, 0
15, 329880, Note_on_c, 11, 69, 76
15, 330134, Note_on_c, 11, 69, 0
15, 330150, Note_on_c, 11, 71, 76
15, 330224, Note_on_c, 11, 71, 0
15, 330240, Note_on_c, 11, 71, 76
15, 330494, Note_on_c, 11, 71, 0
15, 330510, Note_on_c, 11, 62, 76
15, 330584, Note_on_c, 11, 62, 0
15, 330600, Note_on_c, 11, 62, 76
15, 330854, Note_on_c, 11, 62, 0
15, 330870, Note_on_c, 11, 62, 76
15, 330944, Note_on_c, 11, 62, 0
15, 330960, Note_on_c, 11, 62, 76
15, 331214, Note_on_c, 11, 62, 0
15, 331230, Note_on_c, 11, 62, 76
15, 331304, Note_on_c, 11, 62, 0
15, 331320, Note_on_c, 11, 62, 76
15, 331574, Note_on_c, 11, 62, 0
15, 331590, Note_on_c, 11, 62, 76
15, 331664, Note_on_c, 11, 62, 0
15, 331680, Note_on_c, 11, 62, 76
15, 331934, Note_on_c, 11, 62, 0
15, 331950, Note_on_c, 11, 62, 76
15, 332024, Note_on_c, 11, 62, 0
15, 332040, Note_on_c, 11, 62, 76
15, 332294, Note_on_c, 11, 62, 0
15, 332310, Note_on_c, 11, 62, 76
15, 332384, Note_on_c, 11, 62, 0
15, 332400, Note_on_c, 11, 62, 76
15, 332519, Note_on_c, 11, 62, 0
15, 332760, Note_on_c, 11, 60, 76
15, 332879, Note_on_c, 11, 60, 0
15, 333120, Note_on_c, 11, 62, 76
15, 333239, Note_on_c, 11, 62, 0
15, 333480, Note_on_c, 11, 55, 76
15, 333599, Note_on_c, 11, 55, 0
15, 333840, Note_on_c, 11, 62, 76
15, 333959, Note_on_c, 11, 62, 0
15, 334200, Note_on_c, 11, 64, 76
15, 334319, Note_on_c, 11, 64, 0
15, 334560, Note_on_c, 11, 57, 76
15, 334679, Note_on_c, 11, 57, 0
15, 334920, Note_on_c, 11, 64, 76
15, 335039, Note_on_c, 11, 64, 0
15, 335280, Note_on_c, 11, 66, 76
15, 335399, Note_on_c, 11, 66, 0
15, 335640, Note_on_c, 11, 59, 76
15, 335894, Note_on_c, 11, 59, 0
15, 335910, Note_on_c, 11, 67, 76
15, 335984, Note_on_c, 11, 67, 0
15, 336000, Note_on_c, 11, 67, 76
15, 336119, Note_on_c, 11, 67, 0
15, 336120, Note_on_c, 11, 69, 76
15, 336219, Note_on_c, 11, 69, 0
15, 336240, Note_on_c, 11, 66, 76
15, 336339, Note_on_c, 11, 66, 0
15, 336360, Note_on_c, 11, 66, 76
15, 336479, Note_on_c, 11, 66, 0
15, 336480, Note_on_c, 11, 67, 76
15, 336579, Note_on_c, 11, 67, 0
15, 336600, Note_on_c, 11, 64, 76
15, 336699, Note_on_c, 11, 64, 0
15, 336720, Note_on_c, 11, 64, 76
15, 336839, Note_on_c, 11, 64, 0
15, 336840, Note_on_c, 11, 66, 76
15, 336959, Note_on_c, 11, 66, 0
15, 336960, Note_on_c, 11, 67, 76
15, 337079, Note_on_c, 11, 67, 0
15, 337080, Note_on_c, 11, 69, 76
15, 337199, Note_on_c, 11, 69, 0
15, 337200, Note_on_c, 11, 71, 76
15, 337299, Note_on_c, 11, 71, 0
15, 337320, Note_on_c, 11, 67, 76
15, 337419, Note_on_c, 11, 67, 0
15, 337440, Note_on_c, 11, 67, 76
15, 337559, Note_on_c, 11, 67, 0
15, 337560, Note_on_c, 11, 69, 76
15, 337659, Note_on_c, 11, 69, 0
15, 337680, Note_on_c, 11, 66, 76
15, 337779, Note_on_c, 11, 66, 0
15, 337800, Note_on_c, 11, 66, 76
15, 338139, Note_on_c, 11, 66, 0
15, 338160, Note_on_c, 11, 71, 76
15, 338979, Note_on_c, 11, 71, 0
15, 339000, Note_on_c, 11, 64, 76
15, 339119, Note_on_c, 11, 64, 0
15, 339120, Note_on_c, 11, 66, 76
15, 339239, Note_on_c, 11, 66, 0
15, 339240, Note_on_c, 11, 68, 76
15, 339359, Note_on_c, 11, 68, 0
15, 339360, Note_on_c, 11, 76, 76
15, 339459, Note_on_c, 11, 76, 0
15, 339480, Note_on_c, 11, 66, 76
15, 339579, Note_on_c, 11, 66, 0
15, 339600, Note_on_c, 11, 68, 76
15, 339719, Note_on_c, 11, 68, 0
15, 339720, Note_on_c, 11, 66, 76
15, 339839, Note_on_c, 11, 66, 0
15, 339840, Note_on_c, 11, 64, 76
15, 339939, Note_on_c, 11, 64, 0
15, 339960, Note_on_c, 11, 69, 76
15, 341139, Note_on_c, 11, 69, 0
15, 341160, Note_on_c, 11, 62, 76
15, 341279, Note_on_c, 11, 62, 0
15, 341280, Note_on_c, 11, 64, 76
15, 341399, Note_on_c, 11, 64, 0
15, 341400, Note_on_c, 11, 66, 76
15, 341519, Note_on_c, 11, 66, 0
15, 341520, Note_on_c, 11, 74, 76
15, 341619, Note_on_c, 11, 74, 0
15, 341640, Note_on_c, 11, 64, 76
15, 341739, Note_on_c, 11, 64, 0
15, 341760, Note_on_c, 11, 66, 76
15, 341879, Note_on_c, 11, 66, 0
15, 341880, Note_on_c, 11, 64, 76
15, 341999, Note_on_c, 11, 64, 0
15, 342000, Note_on_c, 11, 62, 76
15, 342099, Note_on_c, 11, 62, 0
15, 342120, Note_on_c, 11, 67, 76
15, 342459, Note_on_c, 11, 67, 0
15, 342480, Note_on_c, 11, 74, 76
15, 343199, Note_on_c, 11, 74, 0
15, 343200, Note_on_c, 11, 74, 76
15, 344259, Note_on_c, 11, 74, 0
15, 344280, Note_on_c, 11, 73, 76
15, 344309, Note_on_c, 11, 73, 0
15, 344310, Note_on_c, 11, 74, 76
15, 344339, Note_on_c, 11, 74, 0
15, 344340, Note_on_c, 11, 73, 76
15, 344369, Note_on_c, 11, 73, 0
15, 344370, Note_on_c, 11, 74, 76
15, 344399, Note_on_c, 11, 74, 0
15, 344400, Note_on_c, 11, 73, 76
15, 344429, Note_on_c, 11, 73, 0
15, 344430, Note_on_c, 11, 74, 76
15, 344459, Note_on_c, 11, 74, 0
15, 344460, Note_on_c, 11, 73, 76
15, 344489, Note_on_c, 11, 73, 0
15, 344490, Note_on_c, 11, 74, 76
15, 344519, Note_on_c, 11, 74, 0
15, 344520, Note_on_c, 11, 73, 76
15, 344549, Note_on_c, 11, 73, 0
15, 344550, Note_on_c, 11, 74, 76
15, 344579, Note_on_c, 11, 74, 0
15, 344580, Note_on_c, 11, 73, 76
15, 344609, Note_on_c, 11, 73, 0
15, 344610, Note_on_c, 11, 74, 76
15, 344639, Note_on_c, 11, 74, 0
15, 344640, Note_on_c, 11, 73, 76
15, 344669, Note_on_c, 11, 73, 0
15, 344670, Note_on_c, 11, 74, 76
15, 344699, Note_on_c, 11, 74, 0
15, 344700, Note_on_c, 11, 73, 76
15, 344729, Note_on_c, 11, 73, 0
15, 344730, Note_on_c, 11, 74, 76
15, 344759, Note_on_c, 11, 74, 0
15, 344760, Note_on_c, 11, 73, 76
15, 344789, Note_on_c, 11, 73, 0
15, 344790, Note_on_c, 11, 74, 76
15, 344819, Note_on_c, 11, 74, 0
15, 344820, Note_on_c, 11, 73, 76
15, 344849, Note_on_c, 11, 73, 0
15, 344850, Note_on_c, 11, 74, 76
15, 344879, Note_on_c, 11, 74, 0
15, 344880, Note_on_c, 11, 73, 76
15, 344909, Note_on_c, 11, 73, 0
15, 344910, Note_on_c, 11, 74, 76
15, 344939, Note_on_c, 11, 74, 0
15, 344940, Note_on_c, 11, 73, 76
15, 344969, Note_on_c, 11, 73, 0
15, 344970, Note_on_c, 11, 74, 76
15, 344999, Note_on_c, 11, 74, 0
15, 345000, Note_on_c, 11, 73, 76
15, 345029, Note_on_c, 11, 73, 0
15, 345030, Note_on_c, 11, 74, 76
15, 345059, Note_on_c, 11, 74, 0
15, 345060, Note_on_c, 11, 73, 76
15, 345089, Note_on_c, 11, 73, 0
15, 345090, Note_on_c, 11, 74, 76
15, 345119, Note_on_c, 11, 74, 0
15, 345120, Note_on_c, 11, 73, 76
15, 345149, Note_on_c, 11, 73, 0
15, 345150, Note_on_c, 11, 74, 76
15, 345179, Note_on_c, 11, 74, 0
15, 345180, Note_on_c, 11, 73, 76
15, 345209, Note_on_c, 11, 73, 0
15, 345210, Note_on_c, 11, 74, 76
15, 345239, Note_on_c, 11, 74, 0
15, 345240, Note_on_c, 11, 73, 76
15, 345269, Note_on_c, 11, 73, 0
15, 345270, Note_on_c, 11, 74, 76
15, 345299, Note_on_c, 11, 74, 0
15, 345300, Note_on_c, 11, 71, 76
15, 345329, Note_on_c, 11, 71, 0
15, 345330, Note_on_c, 11, 73, 76
15, 345351, Note_on_c, 11, 73, 0
15, 345360, Note_on_c, 11, 74, 76
15, 345459, Note_on_c, 11, 74, 0
15, 345480, Note_on_c, 11, 71, 76
15, 345599, Note_on_c, 11, 71, 0
15, 345600, Note_on_c, 11, 73, 76
15, 345719, Note_on_c, 11, 73, 0
15, 345720, Note_on_c, 11, 74, 76
15, 345839, Note_on_c, 11, 74, 0
15, 345840, Note_on_c, 11, 76, 76
15, 345939, Note_on_c, 11, 76, 0
15, 345960, Note_on_c, 11, 73, 76
15, 346059, Note_on_c, 11, 73, 0
15, 346080, Note_on_c, 11, 74, 76
15, 346199, Note_on_c, 11, 74, 0
15, 346200, Note_on_c, 11, 73, 76
15, 346299, Note_on_c, 11, 73, 0
15, 346320, Note_on_c, 11, 71, 76
15, 346419, Note_on_c, 11, 71, 0
15, 346440, Note_on_c, 11, 76, 76
15, 346779, Note_on_c, 11, 76, 0
15, 346800, Note_on_c, 11, 69, 76
15, 347619, Note_on_c, 11, 69, 0
15, 347640, Note_on_c, 11, 62, 76
15, 347739, Note_on_c, 11, 62, 0
15, 347760, Note_on_c, 11, 65, 76
15, 347859, Note_on_c, 11, 65, 0
15, 347880, Note_on_c, 11, 65, 76
15, 347999, Note_on_c, 11, 65, 0
15, 348000, Note_on_c, 11, 67, 76
15, 348099, Note_on_c, 11, 67, 0
15, 348120, Note_on_c, 11, 64, 76
15, 348219, Note_on_c, 11, 64, 0
15, 348240, Note_on_c, 11, 64, 76
15, 348359, Note_on_c, 11, 64, 0
15, 348360, Note_on_c, 11, 65, 76
15, 348459, Note_on_c, 11, 65, 0
15, 348480, Note_on_c, 11, 62, 76
15, 348579, Note_on_c, 11, 62, 0
15, 348600, Note_on_c, 11, 62, 76
15, 348719, Note_on_c, 11, 62, 0
15, 348720, Note_on_c, 11, 64, 76
15, 348839, Note_on_c, 11, 64, 0
15, 348840, Note_on_c, 11, 65, 76
15, 348959, Note_on_c, 11, 65, 0
15, 348960, Note_on_c, 11, 67, 76
15, 349079, Note_on_c, 11, 67, 0
15, 349080, Note_on_c, 11, 69, 76
15, 349179, Note_on_c, 11, 69, 0
15, 349200, Note_on_c, 11, 65, 76
15, 349299, Note_on_c, 11, 65, 0
15, 349320, Note_on_c, 11, 65, 76
15, 349439, Note_on_c, 11, 65, 0
15, 349440, Note_on_c, 11, 67, 76
15, 349539, Note_on_c, 11, 67, 0
15, 349560, Note_on_c, 11, 64, 76
15, 349659, Note_on_c, 11, 64, 0
15, 349680, Note_on_c, 11, 64, 76
15, 350019, Note_on_c, 11, 64, 0
15, 350040, Note_on_c, 11, 71, 76
15, 351014, Note_on_c, 11, 71, 0
15, 351030, Note_on_c, 11, 69, 76
15, 351104, Note_on_c, 11, 69, 0
15, 351120, Note_on_c, 11, 69, 76
15, 351239, Note_on_c, 11, 69, 0
15, 351240, Note_on_c, 11, 71, 76
15, 351339, Note_on_c, 11, 71, 0
15, 351360, Note_on_c, 11, 67, 76
15, 351459, Note_on_c, 11, 67, 0
15, 351480, Note_on_c, 11, 67, 76
15, 351599, Note_on_c, 11, 67, 0
15, 351600, Note_on_c, 11, 69, 76
15, 351699, Note_on_c, 11, 69, 0
15, 351720, Note_on_c, 11, 66, 76
15, 351819, Note_on_c, 11, 66, 0
15, 351840, Note_on_c, 11, 66, 76
15, 351959, Note_on_c, 11, 66, 0
15, 351960, Note_on_c, 11, 69, 76
15, 352059, Note_on_c, 11, 69, 0
15, 352080, Note_on_c, 11, 67, 76
15, 352179, Note_on_c, 11, 67, 0
15, 352200, Note_on_c, 11, 69, 76
15, 352454, Note_on_c, 11, 69, 0
15, 352470, Note_on_c, 11, 71, 76
15, 352544, Note_on_c, 11, 71, 0
15, 352560, Note_on_c, 11, 69, 76
15, 352814, Note_on_c, 11, 69, 0
15, 352830, Note_on_c, 11, 67, 76
15, 352904, Note_on_c, 11, 67, 0
15, 352920, Note_on_c, 11, 66, 76
15, 353039, Note_on_c, 11, 66, 0
15, 353280, Note_on_c, 11, 74, 76
15, 353399, Note_on_c, 11, 74, 0
15, 353640, Note_on_c, 11, 73, 76
15, 353759, Note_on_c, 11, 73, 0
15, 354000, Note_on_c, 11, 74, 76
15, 354119, Note_on_c, 11, 74, 0
15, 354120, Note_on_c, 11, 73, 76
15, 354219, Note_on_c, 11, 73, 0
15, 354240, Note_on_c, 11, 74, 76
15, 354339, Note_on_c, 11, 74, 0
15, 354360, Note_on_c, 11, 74, 76
15, 354614, Note_on_c, 11, 74, 0
15, 354630, Note_on_c, 11, 66, 76
15, 354704, Note_on_c, 11, 66, 0
15, 354720, Note_on_c, 11, 69, 76
15, 354974, Note_on_c, 11, 69, 0
15, 354990, Note_on_c, 11, 74, 76
15, 355064, Note_on_c, 11, 74, 0
15, 355080, Note_on_c, 11, 74, 76
15, 355199, Note_on_c, 11, 74, 0
15, 355200, Note_on_c, 11, 76, 76
15, 355319, Note_on_c, 11, 76, 0
15, 355320, Note_on_c, 11, 74, 76
15, 355419, Note_on_c, 11, 74, 0
15, 355440, Note_on_c, 11, 73, 76
15, 355559, Note_on_c, 11, 73, 0
15, 355560, Note_on_c, 11, 74, 76
15, 355659, Note_on_c, 11, 74, 0
15, 355680, Note_on_c, 11, 71, 76
15, 355779, Note_on_c, 11, 71, 0
15, 355800, Note_on_c, 11, 71, 76
15, 355919, Note_on_c, 11, 71, 0
15, 355920, Note_on_c, 11, 73, 76
15, 356019, Note_on_c, 11, 73, 0
15, 356040, Note_on_c, 11, 69, 76
15, 356139, Note_on_c, 11, 69, 0
15, 356160, Note_on_c, 11, 69, 76
15, 356414, Note_on_c, 11, 69, 0
15, 356430, Note_on_c, 11, 81, 76
15, 356504, Note_on_c, 11, 81, 0
15, 356520, Note_on_c, 11, 76, 76
15, 356774, Note_on_c, 11, 76, 0
15, 356790, Note_on_c, 11, 73, 76
15, 356864, Note_on_c, 11, 73, 0
15, 356880, Note_on_c, 11, 69, 76
15, 357134, Note_on_c, 11, 69, 0
15, 357150, Note_on_c, 11, 69, 76
15, 357224, Note_on_c, 11, 69, 0
15, 357240, Note_on_c, 11, 69, 76
15, 357359, Note_on_c, 11, 69, 0
15, 357360, Note_on_c, 11, 71, 76
15, 357479, Note_on_c, 11, 71, 0
15, 357480, Note_on_c, 11, 73, 76
15, 357579, Note_on_c, 11, 73, 0
15, 357600, Note_on_c, 11, 74, 76
15, 357854, Note_on_c, 11, 74, 0
15, 357870, Note_on_c, 11, 76, 76
15, 357944, Note_on_c, 11, 76, 0
15, 357960, Note_on_c, 11, 73, 76
15, 358214, Note_on_c, 11, 73, 0
15, 358230, Note_on_c, 11, 69, 76
15, 358304, Note_on_c, 11, 69, 0
15, 358320, Note_on_c, 11, 69, 76
15, 358439, Note_on_c, 11, 69, 0
15, 358440, Note_on_c, 11, 71, 76
15, 358559, Note_on_c, 11, 71, 0
15, 358560, Note_on_c, 11, 69, 76
15, 358659, Note_on_c, 11, 69, 0
15, 358680, Note_on_c, 11, 68, 76
15, 358799, Note_on_c, 11, 68, 0
15, 358800, Note_on_c, 11, 69, 76
15, 358899, Note_on_c, 11, 69, 0
15, 358920, Note_on_c, 11, 66, 76
15, 359019, Note_on_c, 11, 66, 0
15, 359040, Note_on_c, 11, 66, 76
15, 359159, Note_on_c, 11, 66, 0
15, 359160, Note_on_c, 11, 68, 76
15, 359259, Note_on_c, 11, 68, 0
15, 359280, Note_on_c, 11, 64, 76
15, 359379, Note_on_c, 11, 64, 0
15, 359400, Note_on_c, 11, 64, 76
15, 359759, Note_on_c, 11, 64, 0
15, 360030, Note_on_c, 11, 76, 76
15, 360104, Note_on_c, 11, 76, 0
15, 360120, Note_on_c, 11, 71, 76
15, 360374, Note_on_c, 11, 71, 0
15, 360390, Note_on_c, 11, 71, 76
15, 360464, Note_on_c, 11, 71, 0
15, 360480, Note_on_c, 11, 69, 76
15, 360839, Note_on_c, 11, 69, 0
15, 361110, Note_on_c, 11, 74, 76
15, 361184, Note_on_c, 11, 74, 0
15, 361200, Note_on_c, 11, 69, 76
15, 361454, Note_on_c, 11, 69, 0
15, 361470, Note_on_c, 11, 69, 76
15, 361544, Note_on_c, 11, 69, 0
15, 361560, Note_on_c, 11, 67, 76
15, 361679, Note_on_c, 11, 67, 0
15, 361920, Note_on_c, 11, 73, 76
15, 362039, Note_on_c, 11, 73, 0
15, 362280, Note_on_c, 11, 75, 76
15, 362399, Note_on_c, 11, 75, 0
15, 362640, Note_on_c, 11, 76, 76
15, 362894, Note_on_c, 11, 76, 0
15, 362910, Note_on_c, 11, 76, 76
15, 362984, Note_on_c, 11, 76, 0
15, 363000, Note_on_c, 11, 76, 76
15, 363119, Note_on_c, 11, 76, 0
15, 363120, Note_on_c, 11, 78, 76
15, 363219, Note_on_c, 11, 78, 0
15, 363240, Note_on_c, 11, 74, 76
15, 363339, Note_on_c, 11, 74, 0
15, 363360, Note_on_c, 11, 74, 76
15, 363479, Note_on_c, 11, 74, 0
15, 363480, Note_on_c, 11, 76, 76
15, 363579, Note_on_c, 11, 76, 0
15, 363600, Note_on_c, 11, 73, 76
15, 363699, Note_on_c, 11, 73, 0
15, 363720, Note_on_c, 11, 73, 76
15, 363839, Note_on_c, 11, 73, 0
15, 363840, Note_on_c, 11, 69, 76
15, 363959, Note_on_c, 11, 69, 0
15, 363960, Note_on_c, 11, 71, 76
15, 364079, Note_on_c, 11, 71, 0
15, 364080, Note_on_c, 11, 73, 76
15, 364199, Note_on_c, 11, 73, 0
15, 364200, Note_on_c, 11, 74, 76
15, 364299, Note_on_c, 11, 74, 0
15, 364320, Note_on_c, 11, 76, 76
15, 364419, Note_on_c, 11, 76, 0
15, 364440, Note_on_c, 11, 69, 76
15, 364694, Note_on_c, 11, 69, 0
15, 364710, Note_on_c, 11, 73, 76
15, 364784, Note_on_c, 11, 73, 0
15, 364800, Note_on_c, 11, 62, 76
15, 364919, Note_on_c, 11, 62, 0
15, 364920, Note_on_c, 11, 66, 76
15, 365039, Note_on_c, 11, 66, 0
15, 365040, Note_on_c, 11, 69, 76
15, 365139, Note_on_c, 11, 69, 0
15, 365160, Note_on_c, 11, 74, 76
15, 365279, Note_on_c, 11, 74, 0
15, 365280, Note_on_c, 11, 76, 76
15, 365379, Note_on_c, 11, 76, 0
15, 365400, Note_on_c, 11, 72, 76
15, 365499, Note_on_c, 11, 72, 0
15, 365520, Note_on_c, 11, 72, 76
15, 365639, Note_on_c, 11, 72, 0
15, 365640, Note_on_c, 11, 74, 76
15, 365739, Note_on_c, 11, 74, 0
15, 365760, Note_on_c, 11, 71, 76
15, 365859, Note_on_c, 11, 71, 0
15, 365880, Note_on_c, 11, 71, 76
15, 365999, Note_on_c, 11, 71, 0
15, 366000, Note_on_c, 11, 67, 76
15, 366119, Note_on_c, 11, 67, 0
15, 366120, Note_on_c, 11, 71, 76
15, 366219, Note_on_c, 11, 71, 0
15, 366240, Note_on_c, 11, 76, 76
15, 366359, Note_on_c, 11, 76, 0
15, 366360, Note_on_c, 11, 78, 76
15, 366459, Note_on_c, 11, 78, 0
15, 366480, Note_on_c, 11, 74, 76
15, 366579, Note_on_c, 11, 74, 0
15, 366600, Note_on_c, 11, 74, 76
15, 366719, Note_on_c, 11, 74, 0
15, 366720, Note_on_c, 11, 76, 76
15, 366819, Note_on_c, 11, 76, 0
15, 366840, Note_on_c, 11, 73, 76
15, 366939, Note_on_c, 11, 73, 0
15, 366960, Note_on_c, 11, 73, 76
15, 367079, Note_on_c, 11, 73, 0
15, 367080, Note_on_c, 11, 74, 76
15, 367199, Note_on_c, 11, 74, 0
15, 367200, Note_on_c, 11, 76, 76
15, 367299, Note_on_c, 11, 76, 0
15, 367320, Note_on_c, 11, 78, 76
15, 367439, Note_on_c, 11, 78, 0
15, 367440, Note_on_c, 11, 79, 76
15, 367539, Note_on_c, 11, 79, 0
15, 367560, Note_on_c, 11, 76, 76
15, 367659, Note_on_c, 11, 76, 0
15, 367680, Note_on_c, 11, 76, 76
15, 367799, Note_on_c, 11, 76, 0
15, 367800, Note_on_c, 11, 78, 76
15, 367899, Note_on_c, 11, 78, 0
15, 367920, Note_on_c, 11, 74, 76
15, 368019, Note_on_c, 11, 74, 0
15, 368040, Note_on_c, 11, 74, 76
15, 368159, Note_on_c, 11, 74, 0
15, 368670, Note_on_c, 11, 73, 76
15, 368744, Note_on_c, 11, 73, 0
15, 368760, Note_on_c, 11, 73, 76
15, 369014, Note_on_c, 11, 73, 0
15, 369030, Note_on_c, 11, 75, 76
15, 369104, Note_on_c, 11, 75, 0
15, 369120, Note_on_c, 11, 76, 76
15, 369374, Note_on_c, 11, 76, 0
15, 369390, Note_on_c, 11, 76, 76
15, 369464, Note_on_c, 11, 76, 0
15, 369480, Note_on_c, 11, 76, 76
15, 369734, Note_on_c, 11, 76, 0
15, 369750, Note_on_c, 11, 76, 76
15, 369824, Note_on_c, 11, 76, 0
15, 369840, Note_on_c, 11, 76, 76
15, 370094, Note_on_c, 11, 76, 0
15, 370110, Note_on_c, 11, 76, 76
15, 370184, Note_on_c, 11, 76, 0
15, 370200, Note_on_c, 11, 76, 76
15, 370319, Note_on_c, 11, 76, 0
15, 370320, Note_on_c, 11, 73, 76
15, 370419, Note_on_c, 11, 73, 0
15, 370440, Note_on_c, 11, 74, 76
15, 370539, Note_on_c, 11, 74, 0
15, 370560, Note_on_c, 11, 76, 76
15, 370679, Note_on_c, 11, 76, 0
15, 370680, Note_on_c, 11, 73, 76
15, 370779, Note_on_c, 11, 73, 0
15, 370800, Note_on_c, 11, 74, 76
15, 370899, Note_on_c, 11, 74, 0
15, 370920, Note_on_c, 11, 76, 76
15, 371039, Note_on_c, 11, 76, 0
15, 371040, Note_on_c, 11, 74, 76
15, 371139, Note_on_c, 11, 74, 0
15, 371160, Note_on_c, 11, 73, 76
15, 371259, Note_on_c, 11, 73, 0
15, 371280, Note_on_c, 11, 74, 76
15, 371534, Note_on_c, 11, 74, 0
15, 371550, Note_on_c, 11, 73, 76
15, 371624, Note_on_c, 11, 73, 0
15, 371640, Note_on_c, 11, 74, 76
15, 371894, Note_on_c, 11, 74, 0
15, 371910, Note_on_c, 11, 71, 76
15, 371984, Note_on_c, 11, 71, 0
15, 372000, Note_on_c, 11, 69, 76
15, 372254, Note_on_c, 11, 69, 0
15, 372270, Note_on_c, 11, 69, 76
15, 372344, Note_on_c, 11, 69, 0
15, 372360, Note_on_c, 11, 69, 76
15, 372479, Note_on_c, 11, 69, 0
15, 372720, Note_on_c, 11, 74, 76
15, 372839, Note_on_c, 11, 74, 0
15, 373080, Note_on_c, 11, 76, 76
15, 373199, Note_on_c, 11, 76, 0
15, 373440, Note_on_c, 11, 81, 76
15, 373559, Note_on_c, 11, 81, 0
15, 373800, Note_on_c, 11, 74, 76
15, 373919, Note_on_c, 11, 74, 0
15, 374160, Note_on_c, 11, 76, 76
15, 374279, Note_on_c, 11, 76, 0
15, 374520, Note_on_c, 11, 69, 76
15, 374759, Note_on_c, 11, 69, 0
15, 375180, Note_on_c, 11, 74, 76
15, 375233, Note_on_c, 11, 74, 0
15, 375240, Note_on_c, 11, 74, 76
15, 375413, Note_on_c, 11, 74, 0
15, 375420, Note_on_c, 11, 69, 76
15, 375473, Note_on_c, 11, 69, 0
15, 375480, Note_on_c, 11, 69, 76
15, 375959, Note_on_c, 11, 69, 0
15, 376140, Note_on_c, 11, 78, 76
15, 376193, Note_on_c, 11, 78, 0
15, 376200, Note_on_c, 11, 78, 76
15, 376373, Note_on_c, 11, 78, 0
15, 376380, Note_on_c, 11, 72, 76
15, 376433, Note_on_c, 11, 72, 0
15, 376440, Note_on_c, 11, 72, 76
15, 376919, Note_on_c, 11, 72, 0
15, 377100, Note_on_c, 11, 78, 76
15, 377153, Note_on_c, 11, 78, 0
15, 377160, Note_on_c, 11, 78, 76
15, 377333, Note_on_c, 11, 78, 0
15, 377340, Note_on_c, 11, 75, 76
15, 377393, Note_on_c, 11, 75, 0
15, 377400, Note_on_c, 11, 76, 76
15, 377509, Note_on_c, 11, 76, 0
15, 377520, Note_on_c, 11, 64, 76
15, 377573, Note_on_c, 11, 64, 0
15, 377580, Note_on_c, 11, 66, 76
15, 377633, Note_on_c, 11, 66, 0
15, 377640, Note_on_c, 11, 67, 76
15, 377693, Note_on_c, 11, 67, 0
15, 377700, Note_on_c, 11, 69, 76
15, 377753, Note_on_c, 11, 69, 0
15, 377760, Note_on_c, 11, 71, 76
15, 377813, Note_on_c, 11, 71, 0
15, 377820, Note_on_c, 11, 73, 76
15, 377873, Note_on_c, 11, 73, 0
15, 377880, Note_on_c, 11, 74, 76
15, 377933, Note_on_c, 11, 74, 0
15, 377940, Note_on_c, 11, 73, 76
15, 377993, Note_on_c, 11, 73, 0
15, 378000, Note_on_c, 11, 71, 76
15, 378053, Note_on_c, 11, 71, 0
15, 378060, Note_on_c, 11, 73, 76
15, 378113, Note_on_c, 11, 73, 0
15, 378120, Note_on_c, 11, 74, 76
15, 378173, Note_on_c, 11, 74, 0
15, 378180, Note_on_c, 11, 71, 76
15, 378233, Note_on_c, 11, 71, 0
15, 378240, Note_on_c, 11, 76, 76
15, 378293, Note_on_c, 11, 76, 0
15, 378300, Note_on_c, 11, 71, 76
15, 378353, Note_on_c, 11, 71, 0
15, 378360, Note_on_c, 11, 73, 76
15, 379013, Note_on_c, 11, 73, 0
15, 379020, Note_on_c, 11, 69, 76
15, 379073, Note_on_c, 11, 69, 0
15, 379080, Note_on_c, 11, 69, 76
15, 379253, Note_on_c, 11, 69, 0
15, 379260, Note_on_c, 11, 73, 76
15, 379313, Note_on_c, 11, 73, 0
15, 379320, Note_on_c, 11, 74, 76
15, 379799, Note_on_c, 11, 74, 0
15, 379980, Note_on_c, 11, 81, 76
15, 380033, Note_on_c, 11, 81, 0
15, 380040, Note_on_c, 11, 81, 76
15, 380213, Note_on_c, 11, 81, 0
15, 380220, Note_on_c, 11, 78, 76
15, 380273, Note_on_c, 11, 78, 0
15, 380280, Note_on_c, 11, 74, 76
15, 380759, Note_on_c, 11, 74, 0
15, 380940, Note_on_c, 11, 76, 76
15, 380993, Note_on_c, 11, 76, 0
15, 381000, Note_on_c, 11, 76, 76
15, 381173, Note_on_c, 11, 76, 0
15, 381180, Note_on_c, 11, 71, 76
15, 381233, Note_on_c, 11, 71, 0
15, 381240, Note_on_c, 11, 76, 76
15, 381719, Note_on_c, 11, 76, 0
15, 381900, Note_on_c, 11, 78, 76
15, 381953, Note_on_c, 11, 78, 0
15, 381960, Note_on_c, 11, 78, 76
15, 382133, Note_on_c, 11, 78, 0
15, 382140, Note_on_c, 11, 74, 76
15, 382193, Note_on_c, 11, 74, 0
15, 382200, Note_on_c, 11, 76, 76
15, 382549, Note_on_c, 11, 76, 0
15, 382560, Note_on_c, 11, 76, 76
15, 382669, Note_on_c, 11, 76, 0
15, 382680, Note_on_c, 11, 76, 76
15, 382909, Note_on_c, 11, 76, 0
15, 382920, Note_on_c, 11, 73, 76
15, 383149, Note_on_c, 11, 73, 0
15, 383160, Note_on_c, 11, 74, 76
15, 383333, Note_on_c, 11, 74, 0
15, 383340, Note_on_c, 11, 69, 76
15, 383393, Note_on_c, 11, 69, 0
15, 383400, Note_on_c, 11, 69, 76
15, 383573, Note_on_c, 11, 69, 0
15, 383580, Note_on_c, 11, 66, 76
15, 383633, Note_on_c, 11, 66, 0
15, 383640, Note_on_c, 11, 66, 76
15, 384119, Note_on_c, 11, 66, 0
15, 384300, Note_on_c, 11, 67, 76
15, 384353, Note_on_c, 11, 67, 0
15, 384360, Note_on_c, 11, 67, 76
15, 384533, Note_on_c, 11, 67, 0
15, 384540, Note_on_c, 11, 64, 76
15, 384593, Note_on_c, 11, 64, 0
15, 384600, Note_on_c, 11, 66, 76
15, 384829, Note_on_c, 11, 66, 0
15, 384840, Note_on_c, 11, 70, 76
15, 385069, Note_on_c, 11, 70, 0
15, 385080, Note_on_c, 11, 71, 76
15, 385559, Note_on_c, 11, 71, 0
15, 385740, Note_on_c, 11, 66, 76
15, 385793, Note_on_c, 11, 66, 0
15, 385800, Note_on_c, 11, 66, 76
15, 385973, Note_on_c, 11, 66, 0
15, 385980, Note_on_c, 11, 62, 76
15, 386033, Note_on_c, 11, 62, 0
15, 386040, Note_on_c, 11, 64, 76
15, 386389, Note_on_c, 11, 64, 0
15, 386400, Note_on_c, 11, 62, 76
15, 386453, Note_on_c, 11, 62, 0
15, 386460, Note_on_c, 11, 61, 76
15, 386513, Note_on_c, 11, 61, 0
15, 386520, Note_on_c, 11, 62, 76
15, 386693, Note_on_c, 11, 62, 0
15, 386700, Note_on_c, 11, 62, 76
15, 386753, Note_on_c, 11, 62, 0
15, 386760, Note_on_c, 11, 64, 76
15, 386933, Note_on_c, 11, 64, 0
15, 386940, Note_on_c, 11, 66, 76
15, 386993, Note_on_c, 11, 66, 0
15, 387000, Note_on_c, 11, 61, 76
15, 387173, Note_on_c, 11, 61, 0
15, 387180, Note_on_c, 11, 67, 76
15, 387233, Note_on_c, 11, 67, 0
15, 387240, Note_on_c, 11, 67, 76
15, 387413, Note_on_c, 11, 67, 0
15, 387420, Note_on_c, 11, 64, 76
15, 387473, Note_on_c, 11, 64, 0
15, 387480, Note_on_c, 11, 61, 76
15, 387959, Note_on_c, 11, 61, 0
15, 388140, Note_on_c, 11, 69, 76
15, 388193, Note_on_c, 11, 69, 0
15, 388200, Note_on_c, 11, 69, 76
15, 388373, Note_on_c, 11, 69, 0
15, 388380, Note_on_c, 11, 66, 76
15, 388433, Note_on_c, 11, 66, 0
15, 388440, Note_on_c, 11, 62, 76
15, 388919, Note_on_c, 11, 62, 0
15, 389100, Note_on_c, 11, 70, 76
15, 389153, Note_on_c, 11, 70, 0
15, 389160, Note_on_c, 11, 70, 76
15, 389333, Note_on_c, 11, 70, 0
15, 389340, Note_on_c, 11, 67, 76
15, 389393, Note_on_c, 11, 67, 0
15, 389400, Note_on_c, 11, 64, 76
15, 389879, Note_on_c, 11, 64, 0
15, 390060, Note_on_c, 11, 67, 76
15, 390113, Note_on_c, 11, 67, 0
15, 390120, Note_on_c, 11, 65, 76
15, 390359, Note_on_c, 11, 65, 0
15, 390540, Note_on_c, 11, 65, 76
15, 390593, Note_on_c, 11, 65, 0
15, 390600, Note_on_c, 11, 64, 76
15, 390839, Note_on_c, 11, 64, 0
15, 391020, Note_on_c, 11, 64, 76
15, 391073, Note_on_c, 11, 64, 0
15, 391080, Note_on_c, 11, 62, 76
15, 391253, Note_on_c, 11, 62, 0
15, 391260, Note_on_c, 11, 65, 76
15, 391313, Note_on_c, 11, 65, 0
15, 391320, Note_on_c, 11, 69, 76
15, 391973, Note_on_c, 11, 69, 0
15, 391980, Note_on_c, 11, 66, 76
15, 392033, Note_on_c, 11, 66, 0
15, 392040, Note_on_c, 11, 67, 76
15, 392213, Note_on_c, 11, 67, 0
15, 392220, Note_on_c, 11, 64, 76
15, 392273, Note_on_c, 11, 64, 0
15, 392280, Note_on_c, 11, 66, 76
15, 392453, Note_on_c, 11, 66, 0
15, 392460, Note_on_c, 11, 62, 76
15, 392513, Note_on_c, 11, 62, 0
15, 392520, Note_on_c, 11, 64, 76
15, 392693, Note_on_c, 11, 64, 0
15, 392700, Note_on_c, 11, 71, 76
15, 392753, Note_on_c, 11, 71, 0
15, 392760, Note_on_c, 11, 76, 76
15, 392933, Note_on_c, 11, 76, 0
15, 392940, Note_on_c, 11, 73, 76
15, 392993, Note_on_c, 11, 73, 0
15, 393000, Note_on_c, 11, 74, 76
15, 393173, Note_on_c, 11, 74, 0
15, 393180, Note_on_c, 11, 71, 76
15, 393233, Note_on_c, 11, 71, 0
15, 393240, Note_on_c, 11, 69, 76
15, 393589, Note_on_c, 11, 69, 0
15, 393600, Note_on_c, 11, 69, 76
15, 393709, Note_on_c, 11, 69, 0
15, 393720, Note_on_c, 11, 69, 76
15, 394679, Note_on_c, 11, 69, 0
15, 394679, End_track
16, 0, Start_track
16, 0, Title_t, "Viola"
16, 0, MIDI_port, 0
16, 0, Program_c, 12, 48
16, 0, Control_c, 12, 10, 70
16, 0, Control_c, 12, 11, 127
16, 0, Control_c, 12, 7, 96
16, 900, Note_on_c, 12, 69, 76
16, 953, Note_on_c, 12, 69, 0
16, 960, Note_on_c, 12, 69, 76
16, 1133, Note_on_c, 12, 69, 0
16, 1140, Note_on_c, 12, 66, 76
16, 1193, Note_on_c, 12, 66, 0
16, 1200, Note_on_c, 12, 62, 76
16, 1679, Note_on_c, 12, 62, 0
16, 1860, Note_on_c, 12, 67, 76
16, 1913, Note_on_c, 12, 67, 0
16, 1920, Note_on_c, 12, 67, 76
16, 2093, Note_on_c, 12, 67, 0
16, 2100, Note_on_c, 12, 62, 76
16, 2153, Note_on_c, 12, 62, 0
16, 2160, Note_on_c, 12, 62, 76
16, 2639, Note_on_c, 12, 62, 0
16, 2820, Note_on_c, 12, 74, 76
16, 2873, Note_on_c, 12, 74, 0
16, 2880, Note_on_c, 12, 69, 76
16, 3053, Note_on_c, 12, 69, 0
16, 3060, Note_on_c, 12, 69, 76
16, 3113, Note_on_c, 12, 69, 0
16, 3120, Note_on_c, 12, 71, 76
16, 3469, Note_on_c, 12, 71, 0
16, 3480, Note_on_c, 12, 71, 76
16, 3589, Note_on_c, 12, 71, 0
16, 3600, Note_on_c, 12, 69, 76
16, 3829, Note_on_c, 12, 69, 0
16, 3840, Note_on_c, 12, 64, 76
16, 4069, Note_on_c, 12, 64, 0
16, 4080, Note_on_c, 12, 62, 76
16, 4253, Note_on_c, 12, 62, 0
16, 4260, Note_on_c, 12, 66, 76
16, 4313, Note_on_c, 12, 66, 0
16, 4320, Note_on_c, 12, 66, 76
16, 4493, Note_on_c, 12, 66, 0
16, 4500, Note_on_c, 12, 62, 76
16, 4553, Note_on_c, 12, 62, 0
16, 4560, Note_on_c, 12, 57, 76
16, 5039, Note_on_c, 12, 57, 0
16, 5220, Note_on_c, 12, 66, 76
16, 5273, Note_on_c, 12, 66, 0
16, 5280, Note_on_c, 12, 66, 76
16, 5453, Note_on_c, 12, 66, 0
16, 5460, Note_on_c, 12, 63, 76
16, 5513, Note_on_c, 12, 63, 0
16, 5520, Note_on_c, 12, 59, 76
16, 5693, Note_on_c, 12, 59, 0
16, 5700, Note_on_c, 12, 61, 76
16, 5753, Note_on_c, 12, 61, 0
16, 5760, Note_on_c, 12, 63, 76
16, 5933, Note_on_c, 12, 63, 0
16, 5940, Note_on_c, 12, 59, 76
16, 5993, Note_on_c, 12, 59, 0
16, 6000, Note_on_c, 12, 71, 76
16, 6479, Note_on_c, 12, 71, 0
16, 6660, Note_on_c, 12, 64, 76
16, 6713, Note_on_c, 12, 64, 0
16, 6720, Note_on_c, 12, 62, 76
16, 6893, Note_on_c, 12, 62, 0
16, 6900, Note_on_c, 12, 62, 76
16, 6953, Note_on_c, 12, 62, 0
16, 6960, Note_on_c, 12, 62, 76
16, 7309, Note_on_c, 12, 62, 0
16, 7320, Note_on_c, 12, 64, 76
16, 7429, Note_on_c, 12, 64, 0
16, 7440, Note_on_c, 12, 62, 76
16, 7613, Note_on_c, 12, 62, 0
16, 7620, Note_on_c, 12, 64, 76
16, 7673, Note_on_c, 12, 64, 0
16, 7680, Note_on_c, 12, 62, 76
16, 7853, Note_on_c, 12, 62, 0
16, 7860, Note_on_c, 12, 59, 76
16, 7913, Note_on_c, 12, 59, 0
16, 7920, Note_on_c, 12, 57, 76
16, 8093, Note_on_c, 12, 57, 0
16, 8100, Note_on_c, 12, 69, 76
16, 8153, Note_on_c, 12, 69, 0
16, 8160, Note_on_c, 12, 69, 76
16, 8333, Note_on_c, 12, 69, 0
16, 8340, Note_on_c, 12, 64, 76
16, 8393, Note_on_c, 12, 64, 0
16, 8400, Note_on_c, 12, 61, 76
16, 8879, Note_on_c, 12, 61, 0
16, 9060, Note_on_c, 12, 69, 76
16, 9113, Note_on_c, 12, 69, 0
16, 9120, Note_on_c, 12, 69, 76
16, 9293, Note_on_c, 12, 69, 0
16, 9300, Note_on_c, 12, 64, 76
16, 9353, Note_on_c, 12, 64, 0
16, 9360, Note_on_c, 12, 66, 76
16, 9839, Note_on_c, 12, 66, 0
16, 10020, Note_on_c, 12, 69, 76
16, 10073, Note_on_c, 12, 69, 0
16, 10080, Note_on_c, 12, 69, 76
16, 10253, Note_on_c, 12, 69, 0
16, 10260, Note_on_c, 12, 62, 76
16, 10313, Note_on_c, 12, 62, 0
16, 10320, Note_on_c, 12, 64, 76
16, 10559, Note_on_c, 12, 64, 0
16, 10740, Note_on_c, 12, 66, 76
16, 10793, Note_on_c, 12, 66, 0
16, 10800, Note_on_c, 12, 66, 76
16, 11149, Note_on_c, 12, 66, 0
16, 11160, Note_on_c, 12, 66, 76
16, 11269, Note_on_c, 12, 66, 0
16, 11280, Note_on_c, 12, 64, 76
16, 11509, Note_on_c, 12, 64, 0
16, 11520, Note_on_c, 12, 59, 76
16, 11749, Note_on_c, 12, 59, 0
16, 11760, Note_on_c, 12, 57, 76
16, 12239, Note_on_c, 12, 57, 0
16, 12420, Note_on_c, 12, 69, 76
16, 12473, Note_on_c, 12, 69, 0
16, 12480, Note_on_c, 12, 69, 76
16, 12653, Note_on_c, 12, 69, 0
16, 12660, Note_on_c, 12, 71, 76
16, 12713, Note_on_c, 12, 71, 0
16, 12720, Note_on_c, 12, 71, 76
16, 13069, Note_on_c, 12, 71, 0
16, 13080, Note_on_c, 12, 74, 76
16, 13189, Note_on_c, 12, 74, 0
16, 13200, Note_on_c, 12, 68, 76
16, 13429, Note_on_c, 12, 68, 0
16, 13440, Note_on_c, 12, 73, 76
16, 13669, Note_on_c, 12, 73, 0
16, 13680, Note_on_c, 12, 73, 76
16, 13853, Note_on_c, 12, 73, 0
16, 13860, Note_on_c, 12, 66, 76
16, 13913, Note_on_c, 12, 66, 0
16, 13920, Note_on_c, 12, 66, 76
16, 14093, Note_on_c, 12, 66, 0
16, 14100, Note_on_c, 12, 61, 76
16, 14153, Note_on_c, 12, 61, 0
16, 14160, Note_on_c, 12, 66, 76
16, 14639, Note_on_c, 12, 66, 0
16, 14820, Note_on_c, 12, 64, 76
16, 14873, Note_on_c, 12, 64, 0
16, 14880, Note_on_c, 12, 61, 76
16, 15053, Note_on_c, 12, 61, 0
16, 15060, Note_on_c, 12, 59, 76
16, 15113, Note_on_c, 12, 59, 0
16, 15120, Note_on_c, 12, 57, 76
16, 15293, Note_on_c, 12, 57, 0
16, 15300, Note_on_c, 12, 62, 76
16, 15353, Note_on_c, 12, 62, 0
16, 15360, Note_on_c, 12, 62, 76
16, 15533, Note_on_c, 12, 62, 0
16, 15540, Note_on_c, 12, 64, 76
16, 15593, Note_on_c, 12, 64, 0
16, 15600, Note_on_c, 12, 64, 76
16, 16079, Note_on_c, 12, 64, 0
16, 16260, Note_on_c, 12, 76, 76
16, 16313, Note_on_c, 12, 76, 0
16, 16320, Note_on_c, 12, 71, 76
16, 16493, Note_on_c, 12, 71, 0
16, 16500, Note_on_c, 12, 68, 76
16, 16553, Note_on_c, 12, 68, 0
16, 16560, Note_on_c, 12, 64, 76
16, 17039, Note_on_c, 12, 64, 0
16, 17220, Note_on_c, 12, 73, 76
16, 17273, Note_on_c, 12, 73, 0
16, 17280, Note_on_c, 12, 76, 76
16, 17453, Note_on_c, 12, 76, 0
16, 17460, Note_on_c, 12, 69, 76
16, 17513, Note_on_c, 12, 69, 0
16, 17520, Note_on_c, 12, 68, 76
16, 17999, Note_on_c, 12, 68, 0
16, 18180, Note_on_c, 12, 74, 76
16, 18233, Note_on_c, 12, 74, 0
16, 18240, Note_on_c, 12, 68, 76
16, 18413, Note_on_c, 12, 68, 0
16, 18420, Note_on_c, 12, 71, 76
16, 18473, Note_on_c, 12, 71, 0
16, 18480, Note_on_c, 12, 69, 76
16, 18719, Note_on_c, 12, 69, 0
16, 18900, Note_on_c, 12, 69, 76
16, 18953, Note_on_c, 12, 69, 0
16, 18960, Note_on_c, 12, 66, 76
16, 19199, Note_on_c, 12, 66, 0
16, 19380, Note_on_c, 12, 68, 76
16, 19433, Note_on_c, 12, 68, 0
16, 19440, Note_on_c, 12, 64, 76
16, 19919, Note_on_c, 12, 64, 0
16, 20100, Note_on_c, 12, 57, 76
16, 20153, Note_on_c, 12, 57, 0
16, 20160, Note_on_c, 12, 64, 76
16, 20333, Note_on_c, 12, 64, 0
16, 20340, Note_on_c, 12, 69, 76
16, 20393, Note_on_c, 12, 69, 0
16, 20400, Note_on_c, 12, 69, 76
16, 20573, Note_on_c, 12, 69, 0
16, 20580, Note_on_c, 12, 67, 76
16, 20633, Note_on_c, 12, 67, 0
16, 20640, Note_on_c, 12, 66, 76
16, 20813, Note_on_c, 12, 66, 0
16, 20820, Note_on_c, 12, 62, 76
16, 20873, Note_on_c, 12, 62, 0
16, 20880, Note_on_c, 12, 61, 76
16, 21053, Note_on_c, 12, 61, 0
16, 21060, Note_on_c, 12, 61, 76
16, 21113, Note_on_c, 12, 61, 0
16, 21120, Note_on_c, 12, 66, 76
16, 21293, Note_on_c, 12, 66, 0
16, 21300, Note_on_c, 12, 62, 76
16, 21353, Note_on_c, 12, 62, 0
16, 21360, Note_on_c, 12, 64, 76
16, 21533, Note_on_c, 12, 64, 0
16, 21540, Note_on_c, 12, 64, 76
16, 21593, Note_on_c, 12, 64, 0
16, 21600, Note_on_c, 12, 64, 76
16, 21773, Note_on_c, 12, 64, 0
16, 21780, Note_on_c, 12, 66, 76
16, 21833, Note_on_c, 12, 66, 0
16, 21840, Note_on_c, 12, 64, 76
16, 22069, Note_on_c, 12, 64, 0
16, 22080, Note_on_c, 12, 62, 76
16, 22309, Note_on_c, 12, 62, 0
16, 22320, Note_on_c, 12, 61, 76
16, 23039, Note_on_c, 12, 61, 0
16, 23940, Note_on_c, 12, 69, 76
16, 23993, Note_on_c, 12, 69, 0
16, 24000, Note_on_c, 12, 69, 76
16, 24173, Note_on_c, 12, 69, 0
16, 24180, Note_on_c, 12, 66, 76
16, 24233, Note_on_c, 12, 66, 0
16, 24240, Note_on_c, 12, 62, 76
16, 24719, Note_on_c, 12, 62, 0
16, 24900, Note_on_c, 12, 67, 76
16, 24953, Note_on_c, 12, 67, 0
16, 24960, Note_on_c, 12, 67, 76
16, 25133, Note_on_c, 12, 67, 0
16, 25140, Note_on_c, 12, 62, 76
16, 25193, Note_on_c, 12, 62, 0
16, 25200, Note_on_c, 12, 62, 76
16, 25679, Note_on_c, 12, 62, 0
16, 25860, Note_on_c, 12, 74, 76
16, 25913, Note_on_c, 12, 74, 0
16, 25920, Note_on_c, 12, 69, 76
16, 26093, Note_on_c, 12, 69, 0
16, 26100, Note_on_c, 12, 69, 76
16, 26153, Note_on_c, 12, 69, 0
16, 26160, Note_on_c, 12, 71, 76
16, 26509, Note_on_c, 12, 71, 0
16, 26520, Note_on_c, 12, 71, 76
16, 26629, Note_on_c, 12, 71, 0
16, 26640, Note_on_c, 12, 69, 76
16, 26869, Note_on_c, 12, 69, 0
16, 26880, Note_on_c, 12, 64, 76
16, 27109, Note_on_c, 12, 64, 0
16, 27120, Note_on_c, 12, 62, 76
16, 27293, Note_on_c, 12, 62, 0
16, 27300, Note_on_c, 12, 66, 76
16, 27353, Note_on_c, 12, 66, 0
16, 27360, Note_on_c, 12, 66, 76
16, 27533, Note_on_c, 12, 66, 0
16, 27540, Note_on_c, 12, 62, 76
16, 27593, Note_on_c, 12, 62, 0
16, 27600, Note_on_c, 12, 57, 76
16, 28079, Note_on_c, 12, 57, 0
16, 28260, Note_on_c, 12, 66, 76
16, 28313, Note_on_c, 12, 66, 0
16, 28320, Note_on_c, 12, 66, 76
16, 28493, Note_on_c, 12, 66, 0
16, 28500, Note_on_c, 12, 63, 76
16, 28553, Note_on_c, 12, 63, 0
16, 28560, Note_on_c, 12, 59, 76
16, 28733, Note_on_c, 12, 59, 0
16, 28740, Note_on_c, 12, 61, 76
16, 28793, Note_on_c, 12, 61, 0
16, 28800, Note_on_c, 12, 63, 76
16, 28973, Note_on_c, 12, 63, 0
16, 28980, Note_on_c, 12, 59, 76
16, 29033, Note_on_c, 12, 59, 0
16, 29040, Note_on_c, 12, 71, 76
16, 29519, Note_on_c, 12, 71, 0
16, 29700, Note_on_c, 12, 64, 76
16, 29753, Note_on_c, 12, 64, 0
16, 29760, Note_on_c, 12, 62, 76
16, 29933, Note_on_c, 12, 62, 0
16, 29940, Note_on_c, 12, 62, 76
16, 29993, Note_on_c, 12, 62, 0
16, 30000, Note_on_c, 12, 62, 76
16, 30349, Note_on_c, 12, 62, 0
16, 30360, Note_on_c, 12, 64, 76
16, 30469, Note_on_c, 12, 64, 0
16, 30480, Note_on_c, 12, 62, 76
16, 30653, Note_on_c, 12, 62, 0
16, 30660, Note_on_c, 12, 64, 76
16, 30713, Note_on_c, 12, 64, 0
16, 30720, Note_on_c, 12, 62, 76
16, 30893, Note_on_c, 12, 62, 0
16, 30900, Note_on_c, 12, 59, 76
16, 30953, Note_on_c, 12, 59, 0
16, 30960, Note_on_c, 12, 57, 76
16, 31133, Note_on_c, 12, 57, 0
16, 31140, Note_on_c, 12, 69, 76
16, 31193, Note_on_c, 12, 69, 0
16, 31200, Note_on_c, 12, 69, 76
16, 31373, Note_on_c, 12, 69, 0
16, 31380, Note_on_c, 12, 64, 76
16, 31433, Note_on_c, 12, 64, 0
16, 31440, Note_on_c, 12, 61, 76
16, 31919, Note_on_c, 12, 61, 0
16, 32100, Note_on_c, 12, 69, 76
16, 32153, Note_on_c, 12, 69, 0
16, 32160, Note_on_c, 12, 69, 76
16, 32333, Note_on_c, 12, 69, 0
16, 32340, Note_on_c, 12, 64, 76
16, 32393, Note_on_c, 12, 64, 0
16, 32400, Note_on_c, 12, 66, 76
16, 32879, Note_on_c, 12, 66, 0
16, 33060, Note_on_c, 12, 69, 76
16, 33113, Note_on_c, 12, 69, 0
16, 33120, Note_on_c, 12, 69, 76
16, 33293, Note_on_c, 12, 69, 0
16, 33300, Note_on_c, 12, 62, 76
16, 33353, Note_on_c, 12, 62, 0
16, 33360, Note_on_c, 12, 64, 76
16, 33599, Note_on_c, 12, 64, 0
16, 33780, Note_on_c, 12, 66, 76
16, 33833, Note_on_c, 12, 66, 0
16, 33840, Note_on_c, 12, 66, 76
16, 34189, Note_on_c, 12, 66, 0
16, 34200, Note_on_c, 12, 66, 76
16, 34309, Note_on_c, 12, 66, 0
16, 34320, Note_on_c, 12, 64, 76
16, 34549, Note_on_c, 12, 64, 0
16, 34560, Note_on_c, 12, 59, 76
16, 34789, Note_on_c, 12, 59, 0
16, 34800, Note_on_c, 12, 57, 76
16, 35279, Note_on_c, 12, 57, 0
16, 35460, Note_on_c, 12, 69, 76
16, 35513, Note_on_c, 12, 69, 0
16, 35520, Note_on_c, 12, 69, 76
16, 35693, Note_on_c, 12, 69, 0
16, 35700, Note_on_c, 12, 71, 76
16, 35753, Note_on_c, 12, 71, 0
16, 35760, Note_on_c, 12, 71, 76
16, 36109, Note_on_c, 12, 71, 0
16, 36120, Note_on_c, 12, 74, 76
16, 36229, Note_on_c, 12, 74, 0
16, 36240, Note_on_c, 12, 68, 76
16, 36469, Note_on_c, 12, 68, 0
16, 36480, Note_on_c, 12, 73, 76
16, 36709, Note_on_c, 12, 73, 0
16, 36720, Note_on_c, 12, 73, 76
16, 36893, Note_on_c, 12, 73, 0
16, 36900, Note_on_c, 12, 66, 76
16, 36953, Note_on_c, 12, 66, 0
16, 36960, Note_on_c, 12, 66, 76
16, 37133, Note_on_c, 12, 66, 0
16, 37140, Note_on_c, 12, 61, 76
16, 37193, Note_on_c, 12, 61, 0
16, 37200, Note_on_c, 12, 66, 76
16, 37679, Note_on_c, 12, 66, 0
16, 37860, Note_on_c, 12, 64, 76
16, 37913, Note_on_c, 12, 64, 0
16, 37920, Note_on_c, 12, 61, 76
16, 38093, Note_on_c, 12, 61, 0
16, 38100, Note_on_c, 12, 59, 76
16, 38153, Note_on_c, 12, 59, 0
16, 38160, Note_on_c, 12, 57, 76
16, 38333, Note_on_c, 12, 57, 0
16, 38340, Note_on_c, 12, 62, 76
16, 38393, Note_on_c, 12, 62, 0
16, 38400, Note_on_c, 12, 62, 76
16, 38573, Note_on_c, 12, 62, 0
16, 38580, Note_on_c, 12, 64, 76
16, 38633, Note_on_c, 12, 64, 0
16, 38640, Note_on_c, 12, 64, 76
16, 39119, Note_on_c, 12, 64, 0
16, 39300, Note_on_c, 12, 76, 76
16, 39353, Note_on_c, 12, 76, 0
16, 39360, Note_on_c, 12, 71, 76
16, 39533, Note_on_c, 12, 71, 0
16, 39540, Note_on_c, 12, 68, 76
16, 39593, Note_on_c, 12, 68, 0
16, 39600, Note_on_c, 12, 64, 76
16, 40079, Note_on_c, 12, 64, 0
16, 40260, Note_on_c, 12, 73, 76
16, 40313, Note_on_c, 12, 73, 0
16, 40320, Note_on_c, 12, 76, 76
16, 40493, Note_on_c, 12, 76, 0
16, 40500, Note_on_c, 12, 69, 76
16, 40553, Note_on_c, 12, 69, 0
16, 40560, Note_on_c, 12, 68, 76
16, 41039, Note_on_c, 12, 68, 0
16, 41220, Note_on_c, 12, 74, 76
16, 41273, Note_on_c, 12, 74, 0
16, 41280, Note_on_c, 12, 68, 76
16, 41453, Note_on_c, 12, 68, 0
16, 41460, Note_on_c, 12, 71, 76
16, 41513, Note_on_c, 12, 71, 0
16, 41520, Note_on_c, 12, 69, 76
16, 41759, Note_on_c, 12, 69, 0
16, 41940, Note_on_c, 12, 69, 76
16, 41993, Note_on_c, 12, 69, 0
16, 42000, Note_on_c, 12, 66, 76
16, 42239, Note_on_c, 12, 66, 0
16, 42420, Note_on_c, 12, 68, 76
16, 42473, Note_on_c, 12, 68, 0
16, 42480, Note_on_c, 12, 64, 76
16, 42959, Note_on_c, 12, 64, 0
16, 43140, Note_on_c, 12, 57, 76
16, 43193, Note_on_c, 12, 57, 0
16, 43200, Note_on_c, 12, 64, 76
16, 43373, Note_on_c, 12, 64, 0
16, 43380, Note_on_c, 12, 69, 76
16, 43433, Note_on_c, 12, 69, 0
16, 43440, Note_on_c, 12, 69, 76
16, 43613, Note_on_c, 12, 69, 0
16, 43620, Note_on_c, 12, 67, 76
16, 43673, Note_on_c, 12, 67, 0
16, 43680, Note_on_c, 12, 66, 76
16, 43853, Note_on_c, 12, 66, 0
16, 43860, Note_on_c, 12, 62, 76
16, 43913, Note_on_c, 12, 62, 0
16, 43920, Note_on_c, 12, 61, 76
16, 44093, Note_on_c, 12, 61, 0
16, 44100, Note_on_c, 12, 61, 76
16, 44153, Note_on_c, 12, 61, 0
16, 44160, Note_on_c, 12, 66, 76
16, 44333, Note_on_c, 12, 66, 0
16, 44340, Note_on_c, 12, 62, 76
16, 44393, Note_on_c, 12, 62, 0
16, 44400, Note_on_c, 12, 64, 76
16, 44573, Note_on_c, 12, 64, 0
16, 44580, Note_on_c, 12, 64, 76
16, 44633, Note_on_c, 12, 64, 0
16, 44640, Note_on_c, 12, 64, 76
16, 44813, Note_on_c, 12, 64, 0
16, 44820, Note_on_c, 12, 66, 76
16, 44873, Note_on_c, 12, 66, 0
16, 44880, Note_on_c, 12, 64, 76
16, 45109, Note_on_c, 12, 64, 0
16, 45120, Note_on_c, 12, 62, 76
16, 45349, Note_on_c, 12, 62, 0
16, 45360, Note_on_c, 12, 61, 76
16, 45599, Note_on_c, 12, 61, 0
16, 46680, Note_on_c, 12, 69, 76
16, 46779, Note_on_c, 12, 69, 0
16, 46800, Note_on_c, 12, 69, 76
16, 46919, Note_on_c, 12, 69, 0
16, 46920, Note_on_c, 12, 71, 76
16, 47019, Note_on_c, 12, 71, 0
16, 47040, Note_on_c, 12, 67, 76
16, 47139, Note_on_c, 12, 67, 0
16, 47160, Note_on_c, 12, 67, 76
16, 47279, Note_on_c, 12, 67, 0
16, 47280, Note_on_c, 12, 69, 76
16, 47379, Note_on_c, 12, 69, 0
16, 47400, Note_on_c, 12, 66, 76
16, 47499, Note_on_c, 12, 66, 0
16, 47520, Note_on_c, 12, 66, 76
16, 47639, Note_on_c, 12, 66, 0
16, 47640, Note_on_c, 12, 67, 76
16, 47759, Note_on_c, 12, 67, 0
16, 47760, Note_on_c, 12, 69, 76
16, 47859, Note_on_c, 12, 69, 0
16, 47880, Note_on_c, 12, 71, 76
16, 47999, Note_on_c, 12, 71, 0
16, 48000, Note_on_c, 12, 73, 76
16, 48099, Note_on_c, 12, 73, 0
16, 48120, Note_on_c, 12, 69, 76
16, 48219, Note_on_c, 12, 69, 0
16, 48240, Note_on_c, 12, 69, 76
16, 48359, Note_on_c, 12, 69, 0
16, 48360, Note_on_c, 12, 71, 76
16, 48459, Note_on_c, 12, 71, 0
16, 48480, Note_on_c, 12, 68, 76
16, 48579, Note_on_c, 12, 68, 0
16, 48600, Note_on_c, 12, 68, 76
16, 48854, Note_on_c, 12, 68, 0
16, 48870, Note_on_c, 12, 68, 76
16, 48944, Note_on_c, 12, 68, 0
16, 48960, Note_on_c, 12, 68, 76
16, 49214, Note_on_c, 12, 68, 0
16, 49230, Note_on_c, 12, 68, 76
16, 49304, Note_on_c, 12, 68, 0
16, 49320, Note_on_c, 12, 68, 76
16, 49574, Note_on_c, 12, 68, 0
16, 49590, Note_on_c, 12, 68, 76
16, 49664, Note_on_c, 12, 68, 0
16, 49680, Note_on_c, 12, 69, 76
16, 49799, Note_on_c, 12, 69, 0
16, 49800, Note_on_c, 12, 73, 76
16, 49919, Note_on_c, 12, 73, 0
16, 49920, Note_on_c, 12, 71, 76
16, 50019, Note_on_c, 12, 71, 0
16, 50040, Note_on_c, 12, 73, 76
16, 50294, Note_on_c, 12, 73, 0
16, 50310, Note_on_c, 12, 71, 76
16, 50384, Note_on_c, 12, 71, 0
16, 50400, Note_on_c, 12, 73, 76
16, 50654, Note_on_c, 12, 73, 0
16, 50670, Note_on_c, 12, 69, 76
16, 50744, Note_on_c, 12, 69, 0
16, 50760, Note_on_c, 12, 62, 76
16, 50879, Note_on_c, 12, 62, 0
16, 50880, Note_on_c, 12, 64, 76
16, 50999, Note_on_c, 12, 64, 0
16, 51000, Note_on_c, 12, 66, 76
16, 51099, Note_on_c, 12, 66, 0
16, 51120, Note_on_c, 12, 66, 76
16, 51374, Note_on_c, 12, 66, 0
16, 51390, Note_on_c, 12, 69, 76
16, 51464, Note_on_c, 12, 69, 0
16, 51480, Note_on_c, 12, 66, 76
16, 51734, Note_on_c, 12, 66, 0
16, 51750, Note_on_c, 12, 62, 76
16, 51824, Note_on_c, 12, 62, 0
16, 51840, Note_on_c, 12, 67, 76
16, 52094, Note_on_c, 12, 67, 0
16, 52110, Note_on_c, 12, 71, 76
16, 52184, Note_on_c, 12, 71, 0
16, 52200, Note_on_c, 12, 67, 76
16, 52319, Note_on_c, 12, 67, 0
16, 52320, Note_on_c, 12, 69, 76
16, 52439, Note_on_c, 12, 69, 0
16, 52440, Note_on_c, 12, 71, 76
16, 52539, Note_on_c, 12, 71, 0
16, 52560, Note_on_c, 12, 64, 76
16, 52814, Note_on_c, 12, 64, 0
16, 52830, Note_on_c, 12, 64, 76
16, 52904, Note_on_c, 12, 64, 0
16, 52920, Note_on_c, 12, 64, 76
16, 53279, Note_on_c, 12, 64, 0
16, 53550, Note_on_c, 12, 69, 76
16, 53624, Note_on_c, 12, 69, 0
16, 53640, Note_on_c, 12, 64, 76
16, 53894, Note_on_c, 12, 64, 0
16, 53910, Note_on_c, 12, 69, 76
16, 53984, Note_on_c, 12, 69, 0
16, 54000, Note_on_c, 12, 62, 76
16, 54119, Note_on_c, 12, 62, 0
16, 54120, Note_on_c, 12, 66, 76
16, 54239, Note_on_c, 12, 66, 0
16, 54240, Note_on_c, 12, 67, 76
16, 54339, Note_on_c, 12, 67, 0
16, 54360, Note_on_c, 12, 69, 76
16, 54614, Note_on_c, 12, 69, 0
16, 54630, Note_on_c, 12, 73, 76
16, 54704, Note_on_c, 12, 73, 0
16, 54720, Note_on_c, 12, 64, 76
16, 54974, Note_on_c, 12, 64, 0
16, 54990, Note_on_c, 12, 66, 76
16, 55064, Note_on_c, 12, 66, 0
16, 55080, Note_on_c, 12, 66, 76
16, 55334, Note_on_c, 12, 66, 0
16, 55350, Note_on_c, 12, 66, 76
16, 55424, Note_on_c, 12, 66, 0
16, 55440, Note_on_c, 12, 62, 76
16, 55559, Note_on_c, 12, 62, 0
16, 55560, Note_on_c, 12, 64, 76
16, 55679, Note_on_c, 12, 64, 0
16, 55680, Note_on_c, 12, 66, 76
16, 55779, Note_on_c, 12, 66, 0
16, 55800, Note_on_c, 12, 66, 76
16, 56054, Note_on_c, 12, 66, 0
16, 56070, Note_on_c, 12, 71, 76
16, 56144, Note_on_c, 12, 71, 0
16, 56160, Note_on_c, 12, 71, 76
16, 56519, Note_on_c, 12, 71, 0
16, 56760, Note_on_c, 12, 64, 76
16, 56859, Note_on_c, 12, 64, 0
16, 56880, Note_on_c, 12, 64, 76
16, 57134, Note_on_c, 12, 64, 0
16, 57150, Note_on_c, 12, 64, 76
16, 57224, Note_on_c, 12, 64, 0
16, 57240, Note_on_c, 12, 64, 76
16, 57599, Note_on_c, 12, 64, 0
16, 57840, Note_on_c, 12, 62, 76
16, 57939, Note_on_c, 12, 62, 0
16, 57960, Note_on_c, 12, 62, 76
16, 58214, Note_on_c, 12, 62, 0
16, 58230, Note_on_c, 12, 62, 76
16, 58304, Note_on_c, 12, 62, 0
16, 58320, Note_on_c, 12, 62, 76
16, 58439, Note_on_c, 12, 62, 0
16, 58680, Note_on_c, 12, 64, 76
16, 58799, Note_on_c, 12, 64, 0
16, 59040, Note_on_c, 12, 66, 76
16, 59159, Note_on_c, 12, 66, 0
16, 59400, Note_on_c, 12, 59, 76
16, 59519, Note_on_c, 12, 59, 0
16, 59760, Note_on_c, 12, 71, 76
16, 59879, Note_on_c, 12, 71, 0
16, 60120, Note_on_c, 12, 68, 76
16, 60239, Note_on_c, 12, 68, 0
16, 60480, Note_on_c, 12, 64, 76
16, 60599, Note_on_c, 12, 64, 0
16, 60840, Note_on_c, 12, 64, 76
16, 60959, Note_on_c, 12, 64, 0
16, 61200, Note_on_c, 12, 64, 76
16, 61319, Note_on_c, 12, 64, 0
16, 61560, Note_on_c, 12, 62, 76
16, 61679, Note_on_c, 12, 62, 0
16, 61920, Note_on_c, 12, 69, 76
16, 62039, Note_on_c, 12, 69, 0
16, 62280, Note_on_c, 12, 66, 76
16, 62399, Note_on_c, 12, 66, 0
16, 62640, Note_on_c, 12, 62, 76
16, 62759, Note_on_c, 12, 62, 0
16, 63270, Note_on_c, 12, 67, 76
16, 63344, Note_on_c, 12, 67, 0
16, 63360, Note_on_c, 12, 69, 76
16, 63614, Note_on_c, 12, 69, 0
16, 63630, Note_on_c, 12, 64, 76
16, 63704, Note_on_c, 12, 64, 0
16, 63720, Note_on_c, 12, 69, 76
16, 63839, Note_on_c, 12, 69, 0
16, 64350, Note_on_c, 12, 69, 76
16, 64424, Note_on_c, 12, 69, 0
16, 64440, Note_on_c, 12, 71, 76
16, 64694, Note_on_c, 12, 71, 0
16, 64710, Note_on_c, 12, 66, 76
16, 64784, Note_on_c, 12, 66, 0
16, 64800, Note_on_c, 12, 71, 76
16, 64919, Note_on_c, 12, 71, 0
16, 65430, Note_on_c, 12, 64, 76
16, 65504, Note_on_c, 12, 64, 0
16, 65520, Note_on_c, 12, 66, 76
16, 65774, Note_on_c, 12, 66, 0
16, 65790, Note_on_c, 12, 66, 76
16, 65864, Note_on_c, 12, 66, 0
16, 65880, Note_on_c, 12, 59, 76
16, 66134, Note_on_c, 12, 59, 0
16, 66150, Note_on_c, 12, 71, 76
16, 66224, Note_on_c, 12, 71, 0
16, 66240, Note_on_c, 12, 71, 76
16, 66494, Note_on_c, 12, 71, 0
16, 66510, Note_on_c, 12, 71, 76
16, 66584, Note_on_c, 12, 71, 0
16, 66600, Note_on_c, 12, 71, 76
16, 66854, Note_on_c, 12, 71, 0
16, 66870, Note_on_c, 12, 71, 76
16, 66944, Note_on_c, 12, 71, 0
16, 66960, Note_on_c, 12, 69, 76
16, 67214, Note_on_c, 12, 69, 0
16, 67230, Note_on_c, 12, 69, 76
16, 67304, Note_on_c, 12, 69, 0
16, 67320, Note_on_c, 12, 69, 76
16, 67574, Note_on_c, 12, 69, 0
16, 67590, Note_on_c, 12, 69, 76
16, 67664, Note_on_c, 12, 69, 0
16, 67680, Note_on_c, 12, 69, 76
16, 67934, Note_on_c, 12, 69, 0
16, 67950, Note_on_c, 12, 69, 76
16, 68024, Note_on_c, 12, 69, 0
16, 68040, Note_on_c, 12, 69, 76
16, 68294, Note_on_c, 12, 69, 0
16, 68310, Note_on_c, 12, 69, 76
16, 68384, Note_on_c, 12, 69, 0
16, 68400, Note_on_c, 12, 69, 76
16, 68654, Note_on_c, 12, 69, 0
16, 68670, Note_on_c, 12, 67, 76
16, 68744, Note_on_c, 12, 67, 0
16, 68760, Note_on_c, 12, 64, 76
16, 69014, Note_on_c, 12, 64, 0
16, 69030, Note_on_c, 12, 64, 76
16, 69104, Note_on_c, 12, 64, 0
16, 69120, Note_on_c, 12, 66, 76
16, 69374, Note_on_c, 12, 66, 0
16, 69390, Note_on_c, 12, 69, 76
16, 69464, Note_on_c, 12, 69, 0
16, 69480, Note_on_c, 12, 69, 76
16, 69734, Note_on_c, 12, 69, 0
16, 69750, Note_on_c, 12, 69, 76
16, 69824, Note_on_c, 12, 69, 0
16, 69840, Note_on_c, 12, 69, 76
16, 69959, Note_on_c, 12, 69, 0
16, 70470, Note_on_c, 12, 57, 76
16, 70544, Note_on_c, 12, 57, 0
16, 70560, Note_on_c, 12, 57, 76
16, 70814, Note_on_c, 12, 57, 0
16, 70830, Note_on_c, 12, 57, 76
16, 70904, Note_on_c, 12, 57, 0
16, 70920, Note_on_c, 12, 57, 76
16, 71039, Note_on_c, 12, 57, 0
16, 92070, Note_on_c, 12, 64, 76
16, 92144, Note_on_c, 12, 64, 0
16, 92160, Note_on_c, 12, 64, 76
16, 92414, Note_on_c, 12, 64, 0
16, 92430, Note_on_c, 12, 64, 76
16, 92504, Note_on_c, 12, 64, 0
16, 92520, Note_on_c, 12, 64, 76
16, 92774, Note_on_c, 12, 64, 0
16, 92790, Note_on_c, 12, 64, 76
16, 92864, Note_on_c, 12, 64, 0
16, 92880, Note_on_c, 12, 64, 76
16, 93134, Note_on_c, 12, 64, 0
16, 93150, Note_on_c, 12, 64, 76
16, 93224, Note_on_c, 12, 64, 0
16, 93240, Note_on_c, 12, 64, 76
16, 93494, Note_on_c, 12, 64, 0
16, 93510, Note_on_c, 12, 64, 76
16, 93584, Note_on_c, 12, 64, 0
16, 93600, Note_on_c, 12, 64, 76
16, 93854, Note_on_c, 12, 64, 0
16, 93870, Note_on_c, 12, 64, 76
16, 93944, Note_on_c, 12, 64, 0
16, 93960, Note_on_c, 12, 64, 76
16, 94079, Note_on_c, 12, 64, 0
16, 94080, Note_on_c, 12, 68, 76
16, 94179, Note_on_c, 12, 68, 0
16, 94200, Note_on_c, 12, 66, 76
16, 94299, Note_on_c, 12, 66, 0
16, 94320, Note_on_c, 12, 68, 76
16, 94574, Note_on_c, 12, 68, 0
16, 94590, Note_on_c, 12, 66, 76
16, 94664, Note_on_c, 12, 66, 0
16, 94680, Note_on_c, 12, 68, 76
16, 94934, Note_on_c, 12, 68, 0
16, 94950, Note_on_c, 12, 64, 76
16, 95024, Note_on_c, 12, 64, 0
16, 95040, Note_on_c, 12, 57, 76
16, 95159, Note_on_c, 12, 57, 0
16, 95160, Note_on_c, 12, 59, 76
16, 95279, Note_on_c, 12, 59, 0
16, 95280, Note_on_c, 12, 61, 76
16, 95379, Note_on_c, 12, 61, 0
16, 95400, Note_on_c, 12, 61, 76
16, 95654, Note_on_c, 12, 61, 0
16, 95670, Note_on_c, 12, 64, 76
16, 95744, Note_on_c, 12, 64, 0
16, 95760, Note_on_c, 12, 64, 76
16, 96014, Note_on_c, 12, 64, 0
16, 96030, Note_on_c, 12, 66, 76
16, 96104, Note_on_c, 12, 66, 0
16, 96120, Note_on_c, 12, 66, 76
16, 96374, Note_on_c, 12, 66, 0
16, 96390, Note_on_c, 12, 66, 76
16, 96464, Note_on_c, 12, 66, 0
16, 96480, Note_on_c, 12, 62, 76
16, 96599, Note_on_c, 12, 62, 0
16, 96600, Note_on_c, 12, 64, 76
16, 96719, Note_on_c, 12, 64, 0
16, 96720, Note_on_c, 12, 66, 76
16, 96819, Note_on_c, 12, 66, 0
16, 96840, Note_on_c, 12, 59, 76
16, 97094, Note_on_c, 12, 59, 0
16, 97110, Note_on_c, 12, 59, 76
16, 97184, Note_on_c, 12, 59, 0
16, 97200, Note_on_c, 12, 59, 76
16, 97559, Note_on_c, 12, 59, 0
16, 97740, Note_on_c, 12, 64, 76
16, 97899, Note_on_c, 12, 64, 0
16, 97920, Note_on_c, 12, 71, 76
16, 98174, Note_on_c, 12, 71, 0
16, 98190, Note_on_c, 12, 71, 76
16, 98264, Note_on_c, 12, 71, 0
16, 98280, Note_on_c, 12, 69, 76
16, 98399, Note_on_c, 12, 69, 0
16, 98400, Note_on_c, 12, 73, 76
16, 98519, Note_on_c, 12, 73, 0
16, 98520, Note_on_c, 12, 71, 76
16, 98619, Note_on_c, 12, 71, 0
16, 98640, Note_on_c, 12, 69, 76
16, 98759, Note_on_c, 12, 69, 0
16, 98760, Note_on_c, 12, 71, 76
16, 98859, Note_on_c, 12, 71, 0
16, 98880, Note_on_c, 12, 68, 76
16, 98979, Note_on_c, 12, 68, 0
16, 99000, Note_on_c, 12, 68, 76
16, 99119, Note_on_c, 12, 68, 0
16, 99120, Note_on_c, 12, 69, 76
16, 99219, Note_on_c, 12, 69, 0
16, 99240, Note_on_c, 12, 64, 76
16, 99339, Note_on_c, 12, 64, 0
16, 99360, Note_on_c, 12, 64, 76
16, 99614, Note_on_c, 12, 64, 0
16, 99630, Note_on_c, 12, 61, 76
16, 99704, Note_on_c, 12, 61, 0
16, 99720, Note_on_c, 12, 57, 76
16, 99974, Note_on_c, 12, 57, 0
16, 99990, Note_on_c, 12, 61, 76
16, 100064, Note_on_c, 12, 61, 0
16, 100080, Note_on_c, 12, 64, 76
16, 100334, Note_on_c, 12, 64, 0
16, 100350, Note_on_c, 12, 66, 76
16, 100424, Note_on_c, 12, 66, 0
16, 100440, Note_on_c, 12, 66, 76
16, 100799, Note_on_c, 12, 66, 0
16, 100980, Note_on_c, 12, 71, 76
16, 101139, Note_on_c, 12, 71, 0
16, 101160, Note_on_c, 12, 66, 76
16, 101414, Note_on_c, 12, 66, 0
16, 101430, Note_on_c, 12, 59, 76
16, 101504, Note_on_c, 12, 59, 0
16, 101520, Note_on_c, 12, 64, 76
16, 101879, Note_on_c, 12, 64, 0
16, 102060, Note_on_c, 12, 69, 76
16, 102219, Note_on_c, 12, 69, 0
16, 102240, Note_on_c, 12, 64, 76
16, 102494, Note_on_c, 12, 64, 0
16, 102510, Note_on_c, 12, 57, 76
16, 102584, Note_on_c, 12, 57, 0
16, 102600, Note_on_c, 12, 62, 76
16, 102854, Note_on_c, 12, 62, 0
16, 102870, Note_on_c, 12, 69, 76
16, 102944, Note_on_c, 12, 69, 0
16, 102960, Note_on_c, 12, 74, 76
16, 103214, Note_on_c, 12, 74, 0
16, 103230, Note_on_c, 12, 69, 76
16, 103304, Note_on_c, 12, 69, 0
16, 103320, Note_on_c, 12, 69, 76
16, 103574, Note_on_c, 12, 69, 0
16, 103590, Note_on_c, 12, 71, 76
16, 103664, Note_on_c, 12, 71, 0
16, 103680, Note_on_c, 12, 71, 76
16, 103799, Note_on_c, 12, 71, 0
16, 104040, Note_on_c, 12, 66, 76
16, 104159, Note_on_c, 12, 66, 0
16, 104400, Note_on_c, 12, 63, 76
16, 104519, Note_on_c, 12, 63, 0
16, 104760, Note_on_c, 12, 59, 76
16, 104879, Note_on_c, 12, 59, 0
16, 105120, Note_on_c, 12, 71, 76
16, 105239, Note_on_c, 12, 71, 0
16, 105480, Note_on_c, 12, 68, 76
16, 105599, Note_on_c, 12, 68, 0
16, 105840, Note_on_c, 12, 64, 76
16, 105959, Note_on_c, 12, 64, 0
16, 106200, Note_on_c, 12, 64, 76
16, 106319, Note_on_c, 12, 64, 0
16, 106560, Note_on_c, 12, 61, 76
16, 106679, Note_on_c, 12, 61, 0
16, 106920, Note_on_c, 12, 57, 76
16, 107039, Note_on_c, 12, 57, 0
16, 107550, Note_on_c, 12, 62, 76
16, 107624, Note_on_c, 12, 62, 0
16, 107640, Note_on_c, 12, 64, 76
16, 107894, Note_on_c, 12, 64, 0
16, 107910, Note_on_c, 12, 59, 76
16, 107984, Note_on_c, 12, 59, 0
16, 108000, Note_on_c, 12, 64, 76
16, 108119, Note_on_c, 12, 64, 0
16, 108630, Note_on_c, 12, 64, 76
16, 108704, Note_on_c, 12, 64, 0
16, 108720, Note_on_c, 12, 66, 76
16, 108974, Note_on_c, 12, 66, 0
16, 108990, Note_on_c, 12, 61, 76
16, 109064, Note_on_c, 12, 61, 0
16, 109080, Note_on_c, 12, 66, 76
16, 109199, Note_on_c, 12, 66, 0
16, 109710, Note_on_c, 12, 69, 76
16, 109784, Note_on_c, 12, 69, 0
16, 109800, Note_on_c, 12, 73, 76
16, 110054, Note_on_c, 12, 73, 0
16, 110070, Note_on_c, 12, 66, 76
16, 110144, Note_on_c, 12, 66, 0
16, 110160, Note_on_c, 12, 66, 76
16, 110414, Note_on_c, 12, 66, 0
16, 110430, Note_on_c, 12, 71, 76
16, 110504, Note_on_c, 12, 71, 0
16, 110520, Note_on_c, 12, 71, 76
16, 110774, Note_on_c, 12, 71, 0
16, 110790, Note_on_c, 12, 71, 76
16, 110864, Note_on_c, 12, 71, 0
16, 110880, Note_on_c, 12, 71, 76
16, 111134, Note_on_c, 12, 71, 0
16, 111150, Note_on_c, 12, 71, 76
16, 111224, Note_on_c, 12, 71, 0
16, 111240, Note_on_c, 12, 71, 76
16, 111359, Note_on_c, 12, 71, 0
16, 111360, Note_on_c, 12, 68, 76
16, 111479, Note_on_c, 12, 68, 0
16, 111480, Note_on_c, 12, 69, 76
16, 111599, Note_on_c, 12, 69, 0
16, 111600, Note_on_c, 12, 71, 76
16, 111719, Note_on_c, 12, 71, 0
16, 111720, Note_on_c, 12, 73, 76
16, 111819, Note_on_c, 12, 73, 0
16, 111840, Note_on_c, 12, 69, 76
16, 111939, Note_on_c, 12, 69, 0
16, 111960, Note_on_c, 12, 71, 76
16, 112079, Note_on_c, 12, 71, 0
16, 112080, Note_on_c, 12, 69, 76
16, 112199, Note_on_c, 12, 69, 0
16, 112200, Note_on_c, 12, 68, 76
16, 112299, Note_on_c, 12, 68, 0
16, 112320, Note_on_c, 12, 69, 76
16, 112574, Note_on_c, 12, 69, 0
16, 112590, Note_on_c, 12, 64, 76
16, 112664, Note_on_c, 12, 64, 0
16, 112680, Note_on_c, 12, 64, 76
16, 112934, Note_on_c, 12, 64, 0
16, 112950, Note_on_c, 12, 69, 76
16, 113024, Note_on_c, 12, 69, 0
16, 113040, Note_on_c, 12, 69, 76
16, 113294, Note_on_c, 12, 69, 0
16, 113310, Note_on_c, 12, 64, 76
16, 113384, Note_on_c, 12, 64, 0
16, 113400, Note_on_c, 12, 61, 76
16, 113654, Note_on_c, 12, 61, 0
16, 113670, Note_on_c, 12, 61, 76
16, 113744, Note_on_c, 12, 61, 0
16, 113760, Note_on_c, 12, 61, 76
16, 113879, Note_on_c, 12, 61, 0
16, 113880, Note_on_c, 12, 64, 76
16, 113979, Note_on_c, 12, 64, 0
16, 114000, Note_on_c, 12, 62, 76
16, 114099, Note_on_c, 12, 62, 0
16, 114120, Note_on_c, 12, 62, 76
16, 114239, Note_on_c, 12, 62, 0
16, 114240, Note_on_c, 12, 66, 76
16, 114339, Note_on_c, 12, 66, 0
16, 114360, Note_on_c, 12, 64, 76
16, 114459, Note_on_c, 12, 64, 0
16, 114480, Note_on_c, 12, 64, 76
16, 114599, Note_on_c, 12, 64, 0
16, 115830, Note_on_c, 12, 69, 76
16, 115904, Note_on_c, 12, 69, 0
16, 115920, Note_on_c, 12, 69, 76
16, 116174, Note_on_c, 12, 69, 0
16, 116190, Note_on_c, 12, 69, 76
16, 116264, Note_on_c, 12, 69, 0
16, 116280, Note_on_c, 12, 69, 76
16, 116534, Note_on_c, 12, 69, 0
16, 116550, Note_on_c, 12, 69, 76
16, 116624, Note_on_c, 12, 69, 0
16, 116640, Note_on_c, 12, 69, 76
16, 116894, Note_on_c, 12, 69, 0
16, 116910, Note_on_c, 12, 69, 76
16, 116984, Note_on_c, 12, 69, 0
16, 117000, Note_on_c, 12, 69, 76
16, 117254, Note_on_c, 12, 69, 0
16, 117270, Note_on_c, 12, 69, 76
16, 117344, Note_on_c, 12, 69, 0
16, 117360, Note_on_c, 12, 69, 76
16, 117614, Note_on_c, 12, 69, 0
16, 117630, Note_on_c, 12, 69, 76
16, 117704, Note_on_c, 12, 69, 0
16, 117720, Note_on_c, 12, 69, 76
16, 117839, Note_on_c, 12, 69, 0
16, 119070, Note_on_c, 12, 69, 76
16, 119144, Note_on_c, 12, 69, 0
16, 119160, Note_on_c, 12, 69, 76
16, 119414, Note_on_c, 12, 69, 0
16, 119430, Note_on_c, 12, 73, 76
16, 119504, Note_on_c, 12, 73, 0
16, 119520, Note_on_c, 12, 73, 76
16, 119774, Note_on_c, 12, 73, 0
16, 119790, Note_on_c, 12, 74, 76
16, 119864, Note_on_c, 12, 74, 0
16, 119880, Note_on_c, 12, 74, 76
16, 119999, Note_on_c, 12, 74, 0
16, 121230, Note_on_c, 12, 62, 76
16, 121304, Note_on_c, 12, 62, 0
16, 121320, Note_on_c, 12, 62, 76
16, 121574, Note_on_c, 12, 62, 0
16, 121590, Note_on_c, 12, 62, 76
16, 121664, Note_on_c, 12, 62, 0
16, 121680, Note_on_c, 12, 62, 76
16, 121934, Note_on_c, 12, 62, 0
16, 121950, Note_on_c, 12, 62, 76
16, 122024, Note_on_c, 12, 62, 0
16, 122040, Note_on_c, 12, 62, 76
16, 122294, Note_on_c, 12, 62, 0
16, 122310, Note_on_c, 12, 60, 76
16, 122384, Note_on_c, 12, 60, 0
16, 122400, Note_on_c, 12, 62, 76
16, 122654, Note_on_c, 12, 62, 0
16, 122670, Note_on_c, 12, 66, 76
16, 122744, Note_on_c, 12, 66, 0
16, 122760, Note_on_c, 12, 66, 76
16, 123014, Note_on_c, 12, 66, 0
16, 123030, Note_on_c, 12, 59, 76
16, 123104, Note_on_c, 12, 59, 0
16, 123120, Note_on_c, 12, 59, 76
16, 123374, Note_on_c, 12, 59, 0
16, 123390, Note_on_c, 12, 64, 76
16, 123464, Note_on_c, 12, 64, 0
16, 123480, Note_on_c, 12, 64, 76
16, 123734, Note_on_c, 12, 64, 0
16, 123750, Note_on_c, 12, 67, 76
16, 123824, Note_on_c, 12, 67, 0
16, 123840, Note_on_c, 12, 67, 76
16, 124094, Note_on_c, 12, 67, 0
16, 124110, Note_on_c, 12, 61, 76
16, 124184, Note_on_c, 12, 61, 0
16, 124200, Note_on_c, 12, 61, 76
16, 124454, Note_on_c, 12, 61, 0
16, 124470, Note_on_c, 12, 66, 76
16, 124544, Note_on_c, 12, 66, 0
16, 124560, Note_on_c, 12, 66, 76
16, 124814, Note_on_c, 12, 66, 0
16, 124830, Note_on_c, 12, 69, 76
16, 124904, Note_on_c, 12, 69, 0
16, 124920, Note_on_c, 12, 69, 76
16, 125174, Note_on_c, 12, 69, 0
16, 125190, Note_on_c, 12, 62, 76
16, 125264, Note_on_c, 12, 62, 0
16, 125280, Note_on_c, 12, 62, 76
16, 125534, Note_on_c, 12, 62, 0
16, 125550, Note_on_c, 12, 68, 76
16, 125624, Note_on_c, 12, 68, 0
16, 125640, Note_on_c, 12, 68, 76
16, 125894, Note_on_c, 12, 68, 0
16, 125910, Note_on_c, 12, 71, 76
16, 125984, Note_on_c, 12, 71, 0
16, 126000, Note_on_c, 12, 71, 76
16, 126254, Note_on_c, 12, 71, 0
16, 126270, Note_on_c, 12, 64, 76
16, 126344, Note_on_c, 12, 64, 0
16, 126360, Note_on_c, 12, 64, 76
16, 126479, Note_on_c, 12, 64, 0
16, 127710, Note_on_c, 12, 54, 76
16, 127784, Note_on_c, 12, 54, 0
16, 127800, Note_on_c, 12, 54, 76
16, 128054, Note_on_c, 12, 54, 0
16, 128070, Note_on_c, 12, 54, 76
16, 128144, Note_on_c, 12, 54, 0
16, 128160, Note_on_c, 12, 54, 76
16, 128414, Note_on_c, 12, 54, 0
16, 128430, Note_on_c, 12, 54, 76
16, 128504, Note_on_c, 12, 54, 0
16, 128520, Note_on_c, 12, 54, 76
16, 128639, Note_on_c, 12, 54, 0
16, 128880, Note_on_c, 12, 66, 76
16, 128999, Note_on_c, 12, 66, 0
16, 129240, Note_on_c, 12, 66, 76
16, 129359, Note_on_c, 12, 66, 0
16, 129600, Note_on_c, 12, 70, 76
16, 129854, Note_on_c, 12, 70, 0
16, 129870, Note_on_c, 12, 70, 76
16, 129944, Note_on_c, 12, 70, 0
16, 129960, Note_on_c, 12, 70, 76
16, 130214, Note_on_c, 12, 70, 0
16, 130230, Note_on_c, 12, 71, 76
16, 130304, Note_on_c, 12, 71, 0
16, 130320, Note_on_c, 12, 64, 76
16, 130574, Note_on_c, 12, 64, 0
16, 130590, Note_on_c, 12, 66, 76
16, 130664, Note_on_c, 12, 66, 0
16, 130680, Note_on_c, 12, 66, 76
16, 130799, Note_on_c, 12, 66, 0
16, 131040, Note_on_c, 12, 66, 76
16, 131159, Note_on_c, 12, 66, 0
16, 131400, Note_on_c, 12, 66, 76
16, 131519, Note_on_c, 12, 66, 0
16, 131760, Note_on_c, 12, 67, 76
16, 131879, Note_on_c, 12, 67, 0
16, 131880, Note_on_c, 12, 71, 76
16, 131999, Note_on_c, 12, 71, 0
16, 132000, Note_on_c, 12, 69, 76
16, 132119, Note_on_c, 12, 69, 0
16, 132120, Note_on_c, 12, 71, 76
16, 132239, Note_on_c, 12, 71, 0
16, 132240, Note_on_c, 12, 72, 76
16, 132339, Note_on_c, 12, 72, 0
16, 132360, Note_on_c, 12, 69, 76
16, 132459, Note_on_c, 12, 69, 0
16, 132480, Note_on_c, 12, 69, 76
16, 132599, Note_on_c, 12, 69, 0
16, 132600, Note_on_c, 12, 71, 76
16, 132699, Note_on_c, 12, 71, 0
16, 132720, Note_on_c, 12, 67, 76
16, 132819, Note_on_c, 12, 67, 0
16, 132840, Note_on_c, 12, 67, 76
16, 133094, Note_on_c, 12, 67, 0
16, 133110, Note_on_c, 12, 71, 76
16, 133184, Note_on_c, 12, 71, 0
16, 133200, Note_on_c, 12, 73, 76
16, 133454, Note_on_c, 12, 73, 0
16, 133470, Note_on_c, 12, 67, 76
16, 133544, Note_on_c, 12, 67, 0
16, 133560, Note_on_c, 12, 67, 76
16, 133814, Note_on_c, 12, 67, 0
16, 133830, Note_on_c, 12, 67, 76
16, 133904, Note_on_c, 12, 67, 0
16, 133920, Note_on_c, 12, 66, 76
16, 134039, Note_on_c, 12, 66, 0
16, 134040, Note_on_c, 12, 68, 76
16, 134159, Note_on_c, 12, 68, 0
16, 134160, Note_on_c, 12, 70, 76
16, 134259, Note_on_c, 12, 70, 0
16, 134280, Note_on_c, 12, 70, 76
16, 134534, Note_on_c, 12, 70, 0
16, 134550, Note_on_c, 12, 64, 76
16, 134624, Note_on_c, 12, 64, 0
16, 134640, Note_on_c, 12, 66, 76
16, 134894, Note_on_c, 12, 66, 0
16, 134910, Note_on_c, 12, 61, 76
16, 134984, Note_on_c, 12, 61, 0
16, 135000, Note_on_c, 12, 62, 76
16, 135254, Note_on_c, 12, 62, 0
16, 135270, Note_on_c, 12, 66, 76
16, 135344, Note_on_c, 12, 66, 0
16, 135360, Note_on_c, 12, 64, 76
16, 135614, Note_on_c, 12, 64, 0
16, 135630, Note_on_c, 12, 64, 76
16, 135704, Note_on_c, 12, 64, 0
16, 135720, Note_on_c, 12, 61, 76
16, 135839, Note_on_c, 12, 61, 0
16, 135840, Note_on_c, 12, 59, 76
16, 135959, Note_on_c, 12, 59, 0
16, 135960, Note_on_c, 12, 61, 76
16, 136059, Note_on_c, 12, 61, 0
16, 136080, Note_on_c, 12, 59, 76
16, 136199, Note_on_c, 12, 59, 0
16, 136200, Note_on_c, 12, 61, 76
16, 136319, Note_on_c, 12, 61, 0
16, 136320, Note_on_c, 12, 62, 76
16, 136419, Note_on_c, 12, 62, 0
16, 136440, Note_on_c, 12, 62, 76
16, 136559, Note_on_c, 12, 62, 0
16, 136560, Note_on_c, 12, 64, 76
16, 136659, Note_on_c, 12, 64, 0
16, 136680, Note_on_c, 12, 61, 76
16, 136779, Note_on_c, 12, 61, 0
16, 136800, Note_on_c, 12, 61, 76
16, 136919, Note_on_c, 12, 61, 0
16, 136920, Note_on_c, 12, 62, 76
16, 137019, Note_on_c, 12, 62, 0
16, 137040, Note_on_c, 12, 59, 76
16, 137139, Note_on_c, 12, 59, 0
16, 137160, Note_on_c, 12, 59, 76
16, 137279, Note_on_c, 12, 59, 0
16, 137280, Note_on_c, 12, 61, 76
16, 137399, Note_on_c, 12, 61, 0
16, 137400, Note_on_c, 12, 62, 76
16, 137499, Note_on_c, 12, 62, 0
16, 137520, Note_on_c, 12, 62, 76
16, 137639, Note_on_c, 12, 62, 0
16, 137640, Note_on_c, 12, 64, 76
16, 137739, Note_on_c, 12, 64, 0
16, 137760, Note_on_c, 12, 61, 76
16, 137859, Note_on_c, 12, 61, 0
16, 137880, Note_on_c, 12, 61, 76
16, 137999, Note_on_c, 12, 61, 0
16, 138000, Note_on_c, 12, 62, 76
16, 138099, Note_on_c, 12, 62, 0
16, 138120, Note_on_c, 12, 59, 76
16, 138219, Note_on_c, 12, 59, 0
16, 138240, Note_on_c, 12, 59, 76
16, 138599, Note_on_c, 12, 59, 0
16, 138870, Note_on_c, 12, 71, 76
16, 138944, Note_on_c, 12, 71, 0
16, 138960, Note_on_c, 12, 71, 76
16, 139214, Note_on_c, 12, 71, 0
16, 139230, Note_on_c, 12, 71, 76
16, 139304, Note_on_c, 12, 71, 0
16, 139320, Note_on_c, 12, 71, 76
16, 139679, Note_on_c, 12, 71, 0
16, 139950, Note_on_c, 12, 64, 76
16, 140024, Note_on_c, 12, 64, 0
16, 140040, Note_on_c, 12, 64, 76
16, 140294, Note_on_c, 12, 64, 0
16, 140310, Note_on_c, 12, 64, 76
16, 140384, Note_on_c, 12, 64, 0
16, 140400, Note_on_c, 12, 64, 76
16, 140654, Note_on_c, 12, 64, 0
16, 140670, Note_on_c, 12, 69, 76
16, 140744, Note_on_c, 12, 69, 0
16, 140760, Note_on_c, 12, 69, 76
16, 140879, Note_on_c, 12, 69, 0
16, 140880, Note_on_c, 12, 71, 76
16, 140979, Note_on_c, 12, 71, 0
16, 141000, Note_on_c, 12, 67, 76
16, 141099, Note_on_c, 12, 67, 0
16, 141120, Note_on_c, 12, 67, 76
16, 141239, Note_on_c, 12, 67, 0
16, 141240, Note_on_c, 12, 69, 76
16, 141339, Note_on_c, 12, 69, 0
16, 141360, Note_on_c, 12, 66, 76
16, 141459, Note_on_c, 12, 66, 0
16, 141480, Note_on_c, 12, 66, 76
16, 141599, Note_on_c, 12, 66, 0
16, 141840, Note_on_c, 12, 71, 76
16, 141959, Note_on_c, 12, 71, 0
16, 142200, Note_on_c, 12, 75, 76
16, 142319, Note_on_c, 12, 75, 0
16, 142920, Note_on_c, 12, 64, 76
16, 143039, Note_on_c, 12, 64, 0
16, 143280, Note_on_c, 12, 67, 76
16, 143399, Note_on_c, 12, 67, 0
16, 144000, Note_on_c, 12, 69, 76
16, 144119, Note_on_c, 12, 69, 0
16, 144360, Note_on_c, 12, 66, 76
16, 144479, Note_on_c, 12, 66, 0
16, 145080, Note_on_c, 12, 67, 76
16, 145199, Note_on_c, 12, 67, 0
16, 145440, Note_on_c, 12, 64, 76
16, 145559, Note_on_c, 12, 64, 0
16, 145800, Note_on_c, 12, 66, 76
16, 145919, Note_on_c, 12, 66, 0
16, 147150, Note_on_c, 12, 50, 76
16, 147224, Note_on_c, 12, 50, 0
16, 147240, Note_on_c, 12, 50, 76
16, 147494, Note_on_c, 12, 50, 0
16, 147510, Note_on_c, 12, 50, 76
16, 147584, Note_on_c, 12, 50, 0
16, 147600, Note_on_c, 12, 50, 76
16, 147854, Note_on_c, 12, 50, 0
16, 147870, Note_on_c, 12, 50, 76
16, 147944, Note_on_c, 12, 50, 0
16, 147960, Note_on_c, 12, 50, 76
16, 148079, Note_on_c, 12, 50, 0
16, 148320, Note_on_c, 12, 66, 76
16, 148439, Note_on_c, 12, 66, 0
16, 148680, Note_on_c, 12, 62, 76
16, 148799, Note_on_c, 12, 62, 0
16, 149040, Note_on_c, 12, 62, 76
16, 149294, Note_on_c, 12, 62, 0
16, 149310, Note_on_c, 12, 62, 76
16, 149384, Note_on_c, 12, 62, 0
16, 149400, Note_on_c, 12, 62, 76
16, 149654, Note_on_c, 12, 62, 0
16, 149670, Note_on_c, 12, 64, 76
16, 149744, Note_on_c, 12, 64, 0
16, 149760, Note_on_c, 12, 64, 76
16, 150014, Note_on_c, 12, 64, 0
16, 150030, Note_on_c, 12, 62, 76
16, 150104, Note_on_c, 12, 62, 0
16, 150120, Note_on_c, 12, 62, 76
16, 150239, Note_on_c, 12, 62, 0
16, 150480, Note_on_c, 12, 62, 76
16, 150599, Note_on_c, 12, 62, 0
16, 150840, Note_on_c, 12, 66, 76
16, 150959, Note_on_c, 12, 66, 0
16, 151200, Note_on_c, 12, 59, 76
16, 151319, Note_on_c, 12, 59, 0
16, 151320, Note_on_c, 12, 64, 76
16, 151439, Note_on_c, 12, 64, 0
16, 151440, Note_on_c, 12, 65, 76
16, 151559, Note_on_c, 12, 65, 0
16, 151560, Note_on_c, 12, 67, 76
16, 151679, Note_on_c, 12, 67, 0
16, 151680, Note_on_c, 12, 69, 76
16, 151779, Note_on_c, 12, 69, 0
16, 151800, Note_on_c, 12, 65, 76
16, 151899, Note_on_c, 12, 65, 0
16, 151920, Note_on_c, 12, 65, 76
16, 152039, Note_on_c, 12, 65, 0
16, 152040, Note_on_c, 12, 67, 76
16, 152139, Note_on_c, 12, 67, 0
16, 152160, Note_on_c, 12, 64, 76
16, 152259, Note_on_c, 12, 64, 0
16, 152280, Note_on_c, 12, 64, 76
16, 152534, Note_on_c, 12, 64, 0
16, 152550, Note_on_c, 12, 59, 76
16, 152624, Note_on_c, 12, 59, 0
16, 152640, Note_on_c, 12, 60, 76
16, 152894, Note_on_c, 12, 60, 0
16, 152910, Note_on_c, 12, 64, 76
16, 152984, Note_on_c, 12, 64, 0
16, 153000, Note_on_c, 12, 64, 76
16, 153254, Note_on_c, 12, 64, 0
16, 153270, Note_on_c, 12, 64, 76
16, 153344, Note_on_c, 12, 64, 0
16, 153360, Note_on_c, 12, 57, 76
16, 153479, Note_on_c, 12, 57, 0
16, 153480, Note_on_c, 12, 59, 76
16, 153599, Note_on_c, 12, 59, 0
16, 153600, Note_on_c, 12, 60, 76
16, 153699, Note_on_c, 12, 60, 0
16, 153720, Note_on_c, 12, 62, 76
16, 153974, Note_on_c, 12, 62, 0
16, 153990, Note_on_c, 12, 55, 76
16, 154064, Note_on_c, 12, 55, 0
16, 154080, Note_on_c, 12, 62, 76
16, 154334, Note_on_c, 12, 62, 0
16, 154350, Note_on_c, 12, 57, 76
16, 154424, Note_on_c, 12, 57, 0
16, 154440, Note_on_c, 12, 62, 76
16, 154694, Note_on_c, 12, 62, 0
16, 154710, Note_on_c, 12, 69, 76
16, 154784, Note_on_c, 12, 69, 0
16, 154800, Note_on_c, 12, 67, 76
16, 155054, Note_on_c, 12, 67, 0
16, 155070, Note_on_c, 12, 69, 76
16, 155144, Note_on_c, 12, 69, 0
16, 155160, Note_on_c, 12, 62, 76
16, 155414, Note_on_c, 12, 62, 0
16, 155430, Note_on_c, 12, 62, 76
16, 155504, Note_on_c, 12, 62, 0
16, 155520, Note_on_c, 12, 62, 76
16, 155774, Note_on_c, 12, 62, 0
16, 155790, Note_on_c, 12, 62, 76
16, 155864, Note_on_c, 12, 62, 0
16, 155880, Note_on_c, 12, 62, 76
16, 156134, Note_on_c, 12, 62, 0
16, 156150, Note_on_c, 12, 62, 76
16, 156224, Note_on_c, 12, 62, 0
16, 156240, Note_on_c, 12, 62, 76
16, 156494, Note_on_c, 12, 62, 0
16, 156510, Note_on_c, 12, 62, 76
16, 156584, Note_on_c, 12, 62, 0
16, 156600, Note_on_c, 12, 62, 76
16, 156854, Note_on_c, 12, 62, 0
16, 156870, Note_on_c, 12, 62, 76
16, 156944, Note_on_c, 12, 62, 0
16, 156960, Note_on_c, 12, 62, 76
16, 157214, Note_on_c, 12, 62, 0
16, 157230, Note_on_c, 12, 62, 76
16, 157304, Note_on_c, 12, 62, 0
16, 157320, Note_on_c, 12, 62, 76
16, 157574, Note_on_c, 12, 62, 0
16, 157590, Note_on_c, 12, 62, 76
16, 157664, Note_on_c, 12, 62, 0
16, 157680, Note_on_c, 12, 62, 76
16, 157799, Note_on_c, 12, 62, 0
16, 158040, Note_on_c, 12, 57, 76
16, 158159, Note_on_c, 12, 57, 0
16, 158400, Note_on_c, 12, 59, 76
16, 158519, Note_on_c, 12, 59, 0
16, 158760, Note_on_c, 12, 60, 76
16, 158879, Note_on_c, 12, 60, 0
16, 159120, Note_on_c, 12, 59, 76
16, 159239, Note_on_c, 12, 59, 0
16, 159480, Note_on_c, 12, 61, 76
16, 159599, Note_on_c, 12, 61, 0
16, 159840, Note_on_c, 12, 62, 76
16, 159959, Note_on_c, 12, 62, 0
16, 160200, Note_on_c, 12, 61, 76
16, 160319, Note_on_c, 12, 61, 0
16, 160560, Note_on_c, 12, 63, 76
16, 160679, Note_on_c, 12, 63, 0
16, 160920, Note_on_c, 12, 64, 76
16, 161174, Note_on_c, 12, 64, 0
16, 161190, Note_on_c, 12, 64, 76
16, 161264, Note_on_c, 12, 64, 0
16, 161280, Note_on_c, 12, 64, 76
16, 161399, Note_on_c, 12, 64, 0
16, 161400, Note_on_c, 12, 66, 76
16, 161499, Note_on_c, 12, 66, 0
16, 161520, Note_on_c, 12, 62, 76
16, 161619, Note_on_c, 12, 62, 0
16, 161640, Note_on_c, 12, 62, 76
16, 161759, Note_on_c, 12, 62, 0
16, 161760, Note_on_c, 12, 64, 76
16, 161859, Note_on_c, 12, 64, 0
16, 161880, Note_on_c, 12, 61, 76
16, 161979, Note_on_c, 12, 61, 0
16, 162000, Note_on_c, 12, 61, 76
16, 162119, Note_on_c, 12, 61, 0
16, 162120, Note_on_c, 12, 63, 76
16, 162239, Note_on_c, 12, 63, 0
16, 162240, Note_on_c, 12, 64, 76
16, 162359, Note_on_c, 12, 64, 0
16, 162360, Note_on_c, 12, 66, 76
16, 162479, Note_on_c, 12, 66, 0
16, 162480, Note_on_c, 12, 67, 76
16, 162579, Note_on_c, 12, 67, 0
16, 162600, Note_on_c, 12, 64, 76
16, 162699, Note_on_c, 12, 64, 0
16, 162720, Note_on_c, 12, 64, 76
16, 162839, Note_on_c, 12, 64, 0
16, 162840, Note_on_c, 12, 66, 76
16, 162939, Note_on_c, 12, 66, 0
16, 162960, Note_on_c, 12, 63, 76
16, 163059, Note_on_c, 12, 63, 0
16, 163080, Note_on_c, 12, 63, 76
16, 163334, Note_on_c, 12, 63, 0
16, 163350, Note_on_c, 12, 63, 76
16, 163424, Note_on_c, 12, 63, 0
16, 163440, Note_on_c, 12, 63, 76
16, 163694, Note_on_c, 12, 63, 0
16, 163710, Note_on_c, 12, 63, 76
16, 163784, Note_on_c, 12, 63, 0
16, 163800, Note_on_c, 12, 63, 76
16, 164054, Note_on_c, 12, 63, 0
16, 164070, Note_on_c, 12, 63, 76
16, 164144, Note_on_c, 12, 63, 0
16, 164160, Note_on_c, 12, 62, 76
16, 164414, Note_on_c, 12, 62, 0
16, 164430, Note_on_c, 12, 62, 76
16, 164504, Note_on_c, 12, 62, 0
16, 164520, Note_on_c, 12, 62, 76
16, 164774, Note_on_c, 12, 62, 0
16, 164790, Note_on_c, 12, 62, 76
16, 164864, Note_on_c, 12, 62, 0
16, 164880, Note_on_c, 12, 62, 76
16, 165134, Note_on_c, 12, 62, 0
16, 165150, Note_on_c, 12, 62, 76
16, 165224, Note_on_c, 12, 62, 0
16, 165240, Note_on_c, 12, 61, 76
16, 165494, Note_on_c, 12, 61, 0
16, 165510, Note_on_c, 12, 61, 76
16, 165584, Note_on_c, 12, 61, 0
16, 165600, Note_on_c, 12, 61, 76
16, 165854, Note_on_c, 12, 61, 0
16, 165870, Note_on_c, 12, 61, 76
16, 165944, Note_on_c, 12, 61, 0
16, 165960, Note_on_c, 12, 61, 76
16, 166214, Note_on_c, 12, 61, 0
16, 166230, Note_on_c, 12, 61, 76
16, 166304, Note_on_c, 12, 61, 0
16, 166320, Note_on_c, 12, 60, 76
16, 166574, Note_on_c, 12, 60, 0
16, 166590, Note_on_c, 12, 60, 76
16, 166664, Note_on_c, 12, 60, 0
16, 166680, Note_on_c, 12, 60, 76
16, 166934, Note_on_c, 12, 60, 0
16, 166950, Note_on_c, 12, 60, 76
16, 167024, Note_on_c, 12, 60, 0
16, 167040, Note_on_c, 12, 60, 76
16, 167294, Note_on_c, 12, 60, 0
16, 167310, Note_on_c, 12, 60, 76
16, 167384, Note_on_c, 12, 60, 0
16, 167400, Note_on_c, 12, 59, 76
16, 167654, Note_on_c, 12, 59, 0
16, 167670, Note_on_c, 12, 59, 76
16, 167744, Note_on_c, 12, 59, 0
16, 167760, Note_on_c, 12, 59, 76
16, 168014, Note_on_c, 12, 59, 0
16, 168030, Note_on_c, 12, 59, 76
16, 168104, Note_on_c, 12, 59, 0
16, 168120, Note_on_c, 12, 59, 76
16, 168374, Note_on_c, 12, 59, 0
16, 168390, Note_on_c, 12, 59, 76
16, 168464, Note_on_c, 12, 59, 0
16, 168480, Note_on_c, 12, 58, 76
16, 168734, Note_on_c, 12, 58, 0
16, 168750, Note_on_c, 12, 58, 76
16, 168824, Note_on_c, 12, 58, 0
16, 168840, Note_on_c, 12, 58, 76
16, 169094, Note_on_c, 12, 58, 0
16, 169110, Note_on_c, 12, 58, 76
16, 169184, Note_on_c, 12, 58, 0
16, 169200, Note_on_c, 12, 58, 76
16, 169454, Note_on_c, 12, 58, 0
16, 169470, Note_on_c, 12, 58, 76
16, 169544, Note_on_c, 12, 58, 0
16, 169560, Note_on_c, 12, 57, 76
16, 169814, Note_on_c, 12, 57, 0
16, 169830, Note_on_c, 12, 57, 76
16, 169904, Note_on_c, 12, 57, 0
16, 169920, Note_on_c, 12, 57, 76
16, 170174, Note_on_c, 12, 57, 0
16, 170190, Note_on_c, 12, 57, 76
16, 170264, Note_on_c, 12, 57, 0
16, 170280, Note_on_c, 12, 57, 76
16, 170534, Note_on_c, 12, 57, 0
16, 170550, Note_on_c, 12, 57, 76
16, 170624, Note_on_c, 12, 57, 0
16, 170640, Note_on_c, 12, 56, 76
16, 170894, Note_on_c, 12, 56, 0
16, 170910, Note_on_c, 12, 56, 76
16, 170984, Note_on_c, 12, 56, 0
16, 171000, Note_on_c, 12, 56, 76
16, 171254, Note_on_c, 12, 56, 0
16, 171270, Note_on_c, 12, 56, 76
16, 171344, Note_on_c, 12, 56, 0
16, 171360, Note_on_c, 12, 56, 76
16, 171614, Note_on_c, 12, 56, 0
16, 171630, Note_on_c, 12, 56, 76
16, 171704, Note_on_c, 12, 56, 0
16, 171720, Note_on_c, 12, 55, 76
16, 171974, Note_on_c, 12, 55, 0
16, 171990, Note_on_c, 12, 55, 76
16, 172064, Note_on_c, 12, 55, 0
16, 172080, Note_on_c, 12, 55, 76
16, 172334, Note_on_c, 12, 55, 0
16, 172350, Note_on_c, 12, 55, 76
16, 172424, Note_on_c, 12, 55, 0
16, 172440, Note_on_c, 12, 55, 76
16, 172694, Note_on_c, 12, 55, 0
16, 172710, Note_on_c, 12, 55, 76
16, 172784, Note_on_c, 12, 55, 0
16, 172800, Note_on_c, 12, 53, 76
16, 173054, Note_on_c, 12, 53, 0
16, 173070, Note_on_c, 12, 57, 76
16, 173144, Note_on_c, 12, 57, 0
16, 173160, Note_on_c, 12, 57, 76
16, 173279, Note_on_c, 12, 57, 0
16, 173280, Note_on_c, 12, 58, 76
16, 173379, Note_on_c, 12, 58, 0
16, 173400, Note_on_c, 12, 55, 76
16, 173499, Note_on_c, 12, 55, 0
16, 173520, Note_on_c, 12, 55, 76
16, 173639, Note_on_c, 12, 55, 0
16, 173640, Note_on_c, 12, 57, 76
16, 173739, Note_on_c, 12, 57, 0
16, 173760, Note_on_c, 12, 53, 76
16, 173859, Note_on_c, 12, 53, 0
16, 173880, Note_on_c, 12, 53, 76
16, 173999, Note_on_c, 12, 53, 0
16, 174000, Note_on_c, 12, 55, 76
16, 174119, Note_on_c, 12, 55, 0
16, 174120, Note_on_c, 12, 57, 76
16, 174239, Note_on_c, 12, 57, 0
16, 174240, Note_on_c, 12, 58, 76
16, 174359, Note_on_c, 12, 58, 0
16, 174360, Note_on_c, 12, 60, 76
16, 174459, Note_on_c, 12, 60, 0
16, 174480, Note_on_c, 12, 57, 76
16, 174579, Note_on_c, 12, 57, 0
16, 174600, Note_on_c, 12, 57, 76
16, 174719, Note_on_c, 12, 57, 0
16, 174720, Note_on_c, 12, 58, 76
16, 174819, Note_on_c, 12, 58, 0
16, 174840, Note_on_c, 12, 56, 76
16, 174939, Note_on_c, 12, 56, 0
16, 174960, Note_on_c, 12, 56, 76
16, 175079, Note_on_c, 12, 56, 0
16, 176310, Note_on_c, 12, 61, 76
16, 176384, Note_on_c, 12, 61, 0
16, 176400, Note_on_c, 12, 61, 76
16, 176654, Note_on_c, 12, 61, 0
16, 176670, Note_on_c, 12, 61, 76
16, 176744, Note_on_c, 12, 61, 0
16, 176760, Note_on_c, 12, 61, 76
16, 177014, Note_on_c, 12, 61, 0
16, 177030, Note_on_c, 12, 61, 76
16, 177104, Note_on_c, 12, 61, 0
16, 177120, Note_on_c, 12, 62, 76
16, 177239, Note_on_c, 12, 62, 0
16, 177240, Note_on_c, 12, 66, 76
16, 177339, Note_on_c, 12, 66, 0
16, 177360, Note_on_c, 12, 64, 76
16, 177459, Note_on_c, 12, 64, 0
16, 177480, Note_on_c, 12, 62, 76
16, 177734, Note_on_c, 12, 62, 0
16, 177750, Note_on_c, 12, 62, 76
16, 177824, Note_on_c, 12, 62, 0
16, 177840, Note_on_c, 12, 57, 76
16, 178094, Note_on_c, 12, 57, 0
16, 178110, Note_on_c, 12, 57, 76
16, 178184, Note_on_c, 12, 57, 0
16, 178200, Note_on_c, 12, 57, 76
16, 178319, Note_on_c, 12, 57, 0
16, 178560, Note_on_c, 12, 66, 76
16, 178679, Note_on_c, 12, 66, 0
16, 178920, Note_on_c, 12, 69, 76
16, 179039, Note_on_c, 12, 69, 0
16, 179280, Note_on_c, 12, 62, 76
16, 179399, Note_on_c, 12, 62, 0
16, 179400, Note_on_c, 12, 64, 76
16, 179519, Note_on_c, 12, 64, 0
16, 179520, Note_on_c, 12, 66, 76
16, 179619, Note_on_c, 12, 66, 0
16, 179640, Note_on_c, 12, 66, 76
16, 179894, Note_on_c, 12, 66, 0
16, 179910, Note_on_c, 12, 69, 76
16, 179984, Note_on_c, 12, 69, 0
16, 180000, Note_on_c, 12, 66, 76
16, 180254, Note_on_c, 12, 66, 0
16, 180270, Note_on_c, 12, 62, 76
16, 180344, Note_on_c, 12, 62, 0
16, 180360, Note_on_c, 12, 67, 76
16, 180614, Note_on_c, 12, 67, 0
16, 180630, Note_on_c, 12, 71, 76
16, 180704, Note_on_c, 12, 71, 0
16, 180720, Note_on_c, 12, 67, 76
16, 180839, Note_on_c, 12, 67, 0
16, 180840, Note_on_c, 12, 69, 76
16, 180959, Note_on_c, 12, 69, 0
16, 180960, Note_on_c, 12, 71, 76
16, 181059, Note_on_c, 12, 71, 0
16, 181080, Note_on_c, 12, 64, 76
16, 181334, Note_on_c, 12, 64, 0
16, 181350, Note_on_c, 12, 64, 76
16, 181424, Note_on_c, 12, 64, 0
16, 181440, Note_on_c, 12, 64, 76
16, 181799, Note_on_c, 12, 64, 0
16, 182070, Note_on_c, 12, 69, 76
16, 182144, Note_on_c, 12, 69, 0
16, 182160, Note_on_c, 12, 64, 76
16, 182414, Note_on_c, 12, 64, 0
16, 182430, Note_on_c, 12, 69, 76
16, 182504, Note_on_c, 12, 69, 0
16, 182520, Note_on_c, 12, 62, 76
16, 182639, Note_on_c, 12, 62, 0
16, 182640, Note_on_c, 12, 66, 76
16, 182759, Note_on_c, 12, 66, 0
16, 182760, Note_on_c, 12, 67, 76
16, 182859, Note_on_c, 12, 67, 0
16, 182880, Note_on_c, 12, 69, 76
16, 183134, Note_on_c, 12, 69, 0
16, 183150, Note_on_c, 12, 73, 76
16, 183224, Note_on_c, 12, 73, 0
16, 183240, Note_on_c, 12, 64, 76
16, 183494, Note_on_c, 12, 64, 0
16, 183510, Note_on_c, 12, 66, 76
16, 183584, Note_on_c, 12, 66, 0
16, 183600, Note_on_c, 12, 66, 76
16, 183854, Note_on_c, 12, 66, 0
16, 183870, Note_on_c, 12, 66, 76
16, 183944, Note_on_c, 12, 66, 0
16, 183960, Note_on_c, 12, 62, 76
16, 184079, Note_on_c, 12, 62, 0
16, 184080, Note_on_c, 12, 64, 76
16, 184199, Note_on_c, 12, 64, 0
16, 184200, Note_on_c, 12, 66, 76
16, 184299, Note_on_c, 12, 66, 0
16, 184320, Note_on_c, 12, 59, 76
16, 184574, Note_on_c, 12, 59, 0
16, 184590, Note_on_c, 12, 71, 76
16, 184664, Note_on_c, 12, 71, 0
16, 184680, Note_on_c, 12, 71, 76
16, 185039, Note_on_c, 12, 71, 0
16, 185310, Note_on_c, 12, 64, 76
16, 185384, Note_on_c, 12, 64, 0
16, 185400, Note_on_c, 12, 64, 76
16, 185654, Note_on_c, 12, 64, 0
16, 185670, Note_on_c, 12, 64, 76
16, 185744, Note_on_c, 12, 64, 0
16, 185760, Note_on_c, 12, 64, 76
16, 186119, Note_on_c, 12, 64, 0
16, 186390, Note_on_c, 12, 62, 76
16, 186464, Note_on_c, 12, 62, 0
16, 186480, Note_on_c, 12, 62, 76
16, 186734, Note_on_c, 12, 62, 0
16, 186750, Note_on_c, 12, 62, 76
16, 186824, Note_on_c, 12, 62, 0
16, 186840, Note_on_c, 12, 62, 76
16, 186959, Note_on_c, 12, 62, 0
16, 187200, Note_on_c, 12, 64, 76
16, 187319, Note_on_c, 12, 64, 0
16, 187560, Note_on_c, 12, 66, 76
16, 187679, Note_on_c, 12, 66, 0
16, 187920, Note_on_c, 12, 59, 76
16, 188039, Note_on_c, 12, 59, 0
16, 188280, Note_on_c, 12, 71, 76
16, 188399, Note_on_c, 12, 71, 0
16, 188640, Note_on_c, 12, 68, 76
16, 188759, Note_on_c, 12, 68, 0
16, 189000, Note_on_c, 12, 64, 76
16, 189119, Note_on_c, 12, 64, 0
16, 189360, Note_on_c, 12, 64, 76
16, 189479, Note_on_c, 12, 64, 0
16, 189720, Note_on_c, 12, 64, 76
16, 189839, Note_on_c, 12, 64, 0
16, 190080, Note_on_c, 12, 62, 76
16, 190199, Note_on_c, 12, 62, 0
16, 190440, Note_on_c, 12, 69, 76
16, 190559, Note_on_c, 12, 69, 0
16, 190800, Note_on_c, 12, 66, 76
16, 190919, Note_on_c, 12, 66, 0
16, 191160, Note_on_c, 12, 62, 76
16, 191279, Note_on_c, 12, 62, 0
16, 191790, Note_on_c, 12, 67, 76
16, 191864, Note_on_c, 12, 67, 0
16, 191880, Note_on_c, 12, 69, 76
16, 192134, Note_on_c, 12, 69, 0
16, 192150, Note_on_c, 12, 64, 76
16, 192224, Note_on_c, 12, 64, 0
16, 192240, Note_on_c, 12, 69, 76
16, 192359, Note_on_c, 12, 69, 0
16, 192870, Note_on_c, 12, 69, 76
16, 192944, Note_on_c, 12, 69, 0
16, 192960, Note_on_c, 12, 71, 76
16, 193214, Note_on_c, 12, 71, 0
16, 193230, Note_on_c, 12, 66, 76
16, 193304, Note_on_c, 12, 66, 0
16, 193320, Note_on_c, 12, 71, 76
16, 193439, Note_on_c, 12, 71, 0
16, 193950, Note_on_c, 12, 64, 76
16, 194024, Note_on_c, 12, 64, 0
16, 194040, Note_on_c, 12, 66, 76
16, 194294, Note_on_c, 12, 66, 0
16, 194310, Note_on_c, 12, 66, 76
16, 194384, Note_on_c, 12, 66, 0
16, 194400, Note_on_c, 12, 59, 76
16, 194654, Note_on_c, 12, 59, 0
16, 194670, Note_on_c, 12, 71, 76
16, 194744, Note_on_c, 12, 71, 0
16, 194760, Note_on_c, 12, 71, 76
16, 195014, Note_on_c, 12, 71, 0
16, 195030, Note_on_c, 12, 71, 76
16, 195104, Note_on_c, 12, 71, 0
16, 195120, Note_on_c, 12, 71, 76
16, 195374, Note_on_c, 12, 71, 0
16, 195390, Note_on_c, 12, 71, 76
16, 195464, Note_on_c, 12, 71, 0
16, 195480, Note_on_c, 12, 69, 76
16, 195734, Note_on_c, 12, 69, 0
16, 195750, Note_on_c, 12, 69, 76
16, 195824, Note_on_c, 12, 69, 0
16, 195840, Note_on_c, 12, 69, 76
16, 196094, Note_on_c, 12, 69, 0
16, 196110, Note_on_c, 12, 69, 76
16, 196184, Note_on_c, 12, 69, 0
16, 196200, Note_on_c, 12, 69, 76
16, 196454, Note_on_c, 12, 69, 0
16, 196470, Note_on_c, 12, 69, 76
16, 196544, Note_on_c, 12, 69, 0
16, 196560, Note_on_c, 12, 69, 76
16, 196814, Note_on_c, 12, 69, 0
16, 196830, Note_on_c, 12, 69, 76
16, 196904, Note_on_c, 12, 69, 0
16, 196920, Note_on_c, 12, 69, 76
16, 197174, Note_on_c, 12, 69, 0
16, 197190, Note_on_c, 12, 67, 76
16, 197264, Note_on_c, 12, 67, 0
16, 197280, Note_on_c, 12, 64, 76
16, 197534, Note_on_c, 12, 64, 0
16, 197550, Note_on_c, 12, 64, 76
16, 197624, Note_on_c, 12, 64, 0
16, 197640, Note_on_c, 12, 66, 76
16, 197759, Note_on_c, 12, 66, 0
16, 198000, Note_on_c, 12, 69, 76
16, 198119, Note_on_c, 12, 69, 0
16, 198360, Note_on_c, 12, 73, 76
16, 198479, Note_on_c, 12, 73, 0
16, 198720, Note_on_c, 12, 69, 76
16, 198839, Note_on_c, 12, 69, 0
16, 199080, Note_on_c, 12, 69, 76
16, 199199, Note_on_c, 12, 69, 0
16, 199440, Note_on_c, 12, 73, 76
16, 199559, Note_on_c, 12, 73, 0
16, 199800, Note_on_c, 12, 66, 76
16, 200039, Note_on_c, 12, 66, 0
16, 200460, Note_on_c, 12, 69, 76
16, 200513, Note_on_c, 12, 69, 0
16, 200520, Note_on_c, 12, 69, 76
16, 200693, Note_on_c, 12, 69, 0
16, 200700, Note_on_c, 12, 66, 76
16, 200753, Note_on_c, 12, 66, 0
16, 200760, Note_on_c, 12, 62, 76
16, 201239, Note_on_c, 12, 62, 0
16, 201420, Note_on_c, 12, 74, 76
16, 201473, Note_on_c, 12, 74, 0
16, 201480, Note_on_c, 12, 74, 76
16, 201653, Note_on_c, 12, 74, 0
16, 201660, Note_on_c, 12, 69, 76
16, 201713, Note_on_c, 12, 69, 0
16, 201720, Note_on_c, 12, 66, 76
16, 202199, Note_on_c, 12, 66, 0
16, 202380, Note_on_c, 12, 66, 76
16, 202433, Note_on_c, 12, 66, 0
16, 202440, Note_on_c, 12, 63, 76
16, 202613, Note_on_c, 12, 63, 0
16, 202620, Note_on_c, 12, 71, 76
16, 202673, Note_on_c, 12, 71, 0
16, 202680, Note_on_c, 12, 71, 76
16, 203639, Note_on_c, 12, 71, 0
16, 203760, Note_on_c, 12, 61, 76
16, 203813, Note_on_c, 12, 61, 0
16, 203820, Note_on_c, 12, 62, 76
16, 203873, Note_on_c, 12, 62, 0
16, 203880, Note_on_c, 12, 64, 76
16, 203933, Note_on_c, 12, 64, 0
16, 203940, Note_on_c, 12, 66, 76
16, 203993, Note_on_c, 12, 66, 0
16, 204000, Note_on_c, 12, 67, 76
16, 204053, Note_on_c, 12, 67, 0
16, 204060, Note_on_c, 12, 64, 76
16, 204113, Note_on_c, 12, 64, 0
16, 204120, Note_on_c, 12, 69, 76
16, 204173, Note_on_c, 12, 69, 0
16, 204180, Note_on_c, 12, 71, 76
16, 204233, Note_on_c, 12, 71, 0
16, 204240, Note_on_c, 12, 73, 76
16, 204293, Note_on_c, 12, 73, 0
16, 204300, Note_on_c, 12, 74, 76
16, 204353, Note_on_c, 12, 74, 0
16, 204360, Note_on_c, 12, 76, 76
16, 204413, Note_on_c, 12, 76, 0
16, 204420, Note_on_c, 12, 74, 76
16, 204473, Note_on_c, 12, 74, 0
16, 204480, Note_on_c, 12, 76, 76
16, 204533, Note_on_c, 12, 76, 0
16, 204540, Note_on_c, 12, 73, 76
16, 204593, Note_on_c, 12, 73, 0
16, 204600, Note_on_c, 12, 69, 76
16, 205079, Note_on_c, 12, 69, 0
16, 205260, Note_on_c, 12, 66, 76
16, 205313, Note_on_c, 12, 66, 0
16, 205320, Note_on_c, 12, 66, 76
16, 205493, Note_on_c, 12, 66, 0
16, 205500, Note_on_c, 12, 62, 76
16, 205553, Note_on_c, 12, 62, 0
16, 205560, Note_on_c, 12, 67, 76
16, 206039, Note_on_c, 12, 67, 0
16, 206220, Note_on_c, 12, 67, 76
16, 206273, Note_on_c, 12, 67, 0
16, 206280, Note_on_c, 12, 67, 76
16, 206453, Note_on_c, 12, 67, 0
16, 206460, Note_on_c, 12, 71, 76
16, 206513, Note_on_c, 12, 71, 0
16, 206520, Note_on_c, 12, 64, 76
16, 206999, Note_on_c, 12, 64, 0
16, 207180, Note_on_c, 12, 69, 76
16, 207233, Note_on_c, 12, 69, 0
16, 207240, Note_on_c, 12, 74, 76
16, 207413, Note_on_c, 12, 74, 0
16, 207420, Note_on_c, 12, 69, 76
16, 207473, Note_on_c, 12, 69, 0
16, 207480, Note_on_c, 12, 71, 76
16, 207829, Note_on_c, 12, 71, 0
16, 207840, Note_on_c, 12, 71, 76
16, 207949, Note_on_c, 12, 71, 0
16, 207960, Note_on_c, 12, 69, 76
16, 208189, Note_on_c, 12, 69, 0
16, 208200, Note_on_c, 12, 69, 76
16, 208429, Note_on_c, 12, 69, 0
16, 208440, Note_on_c, 12, 69, 76
16, 208613, Note_on_c, 12, 69, 0
16, 208620, Note_on_c, 12, 66, 76
16, 208673, Note_on_c, 12, 66, 0
16, 208680, Note_on_c, 12, 66, 76
16, 208853, Note_on_c, 12, 66, 0
16, 208860, Note_on_c, 12, 62, 76
16, 208913, Note_on_c, 12, 62, 0
16, 208920, Note_on_c, 12, 62, 76
16, 209399, Note_on_c, 12, 62, 0
16, 209580, Note_on_c, 12, 64, 76
16, 209633, Note_on_c, 12, 64, 0
16, 209640, Note_on_c, 12, 64, 76
16, 209813, Note_on_c, 12, 64, 0
16, 209820, Note_on_c, 12, 67, 76
16, 209873, Note_on_c, 12, 67, 0
16, 209880, Note_on_c, 12, 61, 76
16, 210109, Note_on_c, 12, 61, 0
16, 210120, Note_on_c, 12, 66, 76
16, 210349, Note_on_c, 12, 66, 0
16, 210360, Note_on_c, 12, 66, 76
16, 210839, Note_on_c, 12, 66, 0
16, 211020, Note_on_c, 12, 62, 76
16, 211073, Note_on_c, 12, 62, 0
16, 211080, Note_on_c, 12, 59, 76
16, 211253, Note_on_c, 12, 59, 0
16, 211260, Note_on_c, 12, 59, 76
16, 211313, Note_on_c, 12, 59, 0
16, 211320, Note_on_c, 12, 57, 76
16, 211669, Note_on_c, 12, 57, 0
16, 211680, Note_on_c, 12, 57, 76
16, 211789, Note_on_c, 12, 57, 0
16, 211800, Note_on_c, 12, 62, 76
16, 211973, Note_on_c, 12, 62, 0
16, 211980, Note_on_c, 12, 67, 76
16, 212033, Note_on_c, 12, 67, 0
16, 212040, Note_on_c, 12, 67, 76
16, 212213, Note_on_c, 12, 67, 0
16, 212220, Note_on_c, 12, 69, 76
16, 212273, Note_on_c, 12, 69, 0
16, 212280, Note_on_c, 12, 69, 76
16, 212453, Note_on_c, 12, 69, 0
16, 212460, Note_on_c, 12, 61, 76
16, 212513, Note_on_c, 12, 61, 0
16, 212520, Note_on_c, 12, 61, 76
16, 212693, Note_on_c, 12, 61, 0
16, 212700, Note_on_c, 12, 57, 76
16, 212753, Note_on_c, 12, 57, 0
16, 212760, Note_on_c, 12, 57, 76
16, 213239, Note_on_c, 12, 57, 0
16, 213420, Note_on_c, 12, 57, 76
16, 213473, Note_on_c, 12, 57, 0
16, 213480, Note_on_c, 12, 62, 76
16, 213653, Note_on_c, 12, 62, 0
16, 213660, Note_on_c, 12, 57, 76
16, 213713, Note_on_c, 12, 57, 0
16, 213720, Note_on_c, 12, 66, 76
16, 214199, Note_on_c, 12, 66, 0
16, 214380, Note_on_c, 12, 67, 76
16, 214433, Note_on_c, 12, 67, 0
16, 214440, Note_on_c, 12, 61, 76
16, 214613, Note_on_c, 12, 61, 0
16, 214620, Note_on_c, 12, 64, 76
16, 214673, Note_on_c, 12, 64, 0
16, 214680, Note_on_c, 12, 67, 76
16, 215159, Note_on_c, 12, 67, 0
16, 215340, Note_on_c, 12, 61, 76
16, 215393, Note_on_c, 12, 61, 0
16, 215400, Note_on_c, 12, 62, 76
16, 215639, Note_on_c, 12, 62, 0
16, 215820, Note_on_c, 12, 62, 76
16, 215873, Note_on_c, 12, 62, 0
16, 215880, Note_on_c, 12, 61, 76
16, 216119, Note_on_c, 12, 61, 0
16, 216300, Note_on_c, 12, 57, 76
16, 216353, Note_on_c, 12, 57, 0
16, 216360, Note_on_c, 12, 57, 76
16, 216533, Note_on_c, 12, 57, 0
16, 216540, Note_on_c, 12, 62, 76
16, 216593, Note_on_c, 12, 62, 0
16, 216600, Note_on_c, 12, 66, 76
16, 217253, Note_on_c, 12, 66, 0
16, 217260, Note_on_c, 12, 62, 76
16, 217313, Note_on_c, 12, 62, 0
16, 217320, Note_on_c, 12, 62, 76
16, 217493, Note_on_c, 12, 62, 0
16, 217500, Note_on_c, 12, 61, 76
16, 217553, Note_on_c, 12, 61, 0
16, 217560, Note_on_c, 12, 59, 76
16, 217909, Note_on_c, 12, 59, 0
16, 217920, Note_on_c, 12, 67, 76
16, 218029, Note_on_c, 12, 67, 0
16, 218040, Note_on_c, 12, 69, 76
16, 218213, Note_on_c, 12, 69, 0
16, 218220, Note_on_c, 12, 69, 76
16, 218273, Note_on_c, 12, 69, 0
16, 218280, Note_on_c, 12, 69, 76
16, 218453, Note_on_c, 12, 69, 0
16, 218460, Note_on_c, 12, 67, 76
16, 218513, Note_on_c, 12, 67, 0
16, 218520, Note_on_c, 12, 64, 76
16, 218869, Note_on_c, 12, 64, 0
16, 218880, Note_on_c, 12, 66, 76
16, 218989, Note_on_c, 12, 66, 0
16, 219000, Note_on_c, 12, 66, 76
16, 219719, Note_on_c, 12, 66, 0
16, 221400, Note_on_c, 12, 69, 76
16, 221499, Note_on_c, 12, 69, 0
16, 221520, Note_on_c, 12, 69, 76
16, 221639, Note_on_c, 12, 69, 0
16, 221640, Note_on_c, 12, 71, 76
16, 221739, Note_on_c, 12, 71, 0
16, 221760, Note_on_c, 12, 67, 76
16, 221859, Note_on_c, 12, 67, 0
16, 221880, Note_on_c, 12, 67, 76
16, 221999, Note_on_c, 12, 67, 0
16, 222000, Note_on_c, 12, 69, 76
16, 222099, Note_on_c, 12, 69, 0
16, 222120, Note_on_c, 12, 66, 76
16, 222219, Note_on_c, 12, 66, 0
16, 222240, Note_on_c, 12, 66, 76
16, 222359, Note_on_c, 12, 66, 0
16, 222360, Note_on_c, 12, 67, 76
16, 222479, Note_on_c, 12, 67, 0
16, 222480, Note_on_c, 12, 69, 76
16, 222579, Note_on_c, 12, 69, 0
16, 222600, Note_on_c, 12, 71, 76
16, 222719, Note_on_c, 12, 71, 0
16, 222720, Note_on_c, 12, 73, 76
16, 222819, Note_on_c, 12, 73, 0
16, 222840, Note_on_c, 12, 69, 76
16, 222939, Note_on_c, 12, 69, 0
16, 222960, Note_on_c, 12, 69, 76
16, 223079, Note_on_c, 12, 69, 0
16, 223080, Note_on_c, 12, 71, 76
16, 223179, Note_on_c, 12, 71, 0
16, 223200, Note_on_c, 12, 68, 76
16, 223299, Note_on_c, 12, 68, 0
16, 223320, Note_on_c, 12, 68, 76
16, 223574, Note_on_c, 12, 68, 0
16, 223590, Note_on_c, 12, 68, 76
16, 223664, Note_on_c, 12, 68, 0
16, 223680, Note_on_c, 12, 68, 76
16, 223934, Note_on_c, 12, 68, 0
16, 223950, Note_on_c, 12, 68, 76
16, 224024, Note_on_c, 12, 68, 0
16, 224040, Note_on_c, 12, 68, 76
16, 224294, Note_on_c, 12, 68, 0
16, 224310, Note_on_c, 12, 68, 76
16, 224384, Note_on_c, 12, 68, 0
16, 224400, Note_on_c, 12, 69, 76
16, 224519, Note_on_c, 12, 69, 0
16, 224520, Note_on_c, 12, 73, 76
16, 224639, Note_on_c, 12, 73, 0
16, 224640, Note_on_c, 12, 71, 76
16, 224739, Note_on_c, 12, 71, 0
16, 224760, Note_on_c, 12, 73, 76
16, 225014, Note_on_c, 12, 73, 0
16, 225030, Note_on_c, 12, 71, 76
16, 225104, Note_on_c, 12, 71, 0
16, 225120, Note_on_c, 12, 73, 76
16, 225374, Note_on_c, 12, 73, 0
16, 225390, Note_on_c, 12, 69, 76
16, 225464, Note_on_c, 12, 69, 0
16, 225480, Note_on_c, 12, 62, 76
16, 225599, Note_on_c, 12, 62, 0
16, 225600, Note_on_c, 12, 64, 76
16, 225719, Note_on_c, 12, 64, 0
16, 225720, Note_on_c, 12, 66, 76
16, 225819, Note_on_c, 12, 66, 0
16, 225840, Note_on_c, 12, 66, 76
16, 226094, Note_on_c, 12, 66, 0
16, 226110, Note_on_c, 12, 69, 76
16, 226184, Note_on_c, 12, 69, 0
16, 226200, Note_on_c, 12, 66, 76
16, 226454, Note_on_c, 12, 66, 0
16, 226470, Note_on_c, 12, 62, 76
16, 226544, Note_on_c, 12, 62, 0
16, 226560, Note_on_c, 12, 67, 76
16, 226814, Note_on_c, 12, 67, 0
16, 226830, Note_on_c, 12, 71, 76
16, 226904, Note_on_c, 12, 71, 0
16, 226920, Note_on_c, 12, 67, 76
16, 227039, Note_on_c, 12, 67, 0
16, 227040, Note_on_c, 12, 69, 76
16, 227159, Note_on_c, 12, 69, 0
16, 227160, Note_on_c, 12, 71, 76
16, 227259, Note_on_c, 12, 71, 0
16, 227280, Note_on_c, 12, 64, 76
16, 227534, Note_on_c, 12, 64, 0
16, 227550, Note_on_c, 12, 64, 76
16, 227624, Note_on_c, 12, 64, 0
16, 227640, Note_on_c, 12, 64, 76
16, 227999, Note_on_c, 12, 64, 0
16, 228270, Note_on_c, 12, 69, 76
16, 228344, Note_on_c, 12, 69, 0
16, 228360, Note_on_c, 12, 64, 76
16, 228614, Note_on_c, 12, 64, 0
16, 228630, Note_on_c, 12, 69, 76
16, 228704, Note_on_c, 12, 69, 0
16, 228720, Note_on_c, 12, 62, 76
16, 228839, Note_on_c, 12, 62, 0
16, 228840, Note_on_c, 12, 66, 76
16, 228959, Note_on_c, 12, 66, 0
16, 228960, Note_on_c, 12, 67, 76
16, 229059, Note_on_c, 12, 67, 0
16, 229080, Note_on_c, 12, 69, 76
16, 229334, Note_on_c, 12, 69, 0
16, 229350, Note_on_c, 12, 73, 76
16, 229424, Note_on_c, 12, 73, 0
16, 229440, Note_on_c, 12, 64, 76
16, 229694, Note_on_c, 12, 64, 0
16, 229710, Note_on_c, 12, 66, 76
16, 229784, Note_on_c, 12, 66, 0
16, 229800, Note_on_c, 12, 66, 76
16, 230054, Note_on_c, 12, 66, 0
16, 230070, Note_on_c, 12, 66, 76
16, 230144, Note_on_c, 12, 66, 0
16, 230160, Note_on_c, 12, 62, 76
16, 230279, Note_on_c, 12, 62, 0
16, 230280, Note_on_c, 12, 64, 76
16, 230399, Note_on_c, 12, 64, 0
16, 230400, Note_on_c, 12, 66, 76
16, 230499, Note_on_c, 12, 66, 0
16, 230520, Note_on_c, 12, 66, 76
16, 230774, Note_on_c, 12, 66, 0
16, 230790, Note_on_c, 12, 71, 76
16, 230864, Note_on_c, 12, 71, 0
16, 230880, Note_on_c, 12, 71, 76
16, 231239, Note_on_c, 12, 71, 0
16, 231480, Note_on_c, 12, 64, 76
16, 231579, Note_on_c, 12, 64, 0
16, 231600, Note_on_c, 12, 64, 76
16, 231854, Note_on_c, 12, 64, 0
16, 231870, Note_on_c, 12, 64, 76
16, 231944, Note_on_c, 12, 64, 0
16, 231960, Note_on_c, 12, 64, 76
16, 232319, Note_on_c, 12, 64, 0
16, 232560, Note_on_c, 12, 62, 76
16, 232659, Note_on_c, 12, 62, 0
16, 232680, Note_on_c, 12, 62, 76
16, 232934, Note_on_c, 12, 62, 0
16, 232950, Note_on_c, 12, 62, 76
16, 233024, Note_on_c, 12, 62, 0
16, 233040, Note_on_c, 12, 62, 76
16, 233159, Note_on_c, 12, 62, 0
16, 233400, Note_on_c, 12, 64, 76
16, 233519, Note_on_c, 12, 64, 0
16, 233760, Note_on_c, 12, 66, 76
16, 233879, Note_on_c, 12, 66, 0
16, 234120, Note_on_c, 12, 59, 76
16, 234239, Note_on_c, 12, 59, 0
16, 234480, Note_on_c, 12, 71, 76
16, 234599, Note_on_c, 12, 71, 0
16, 234840, Note_on_c, 12, 68, 76
16, 234959, Note_on_c, 12, 68, 0
16, 235200, Note_on_c, 12, 64, 76
16, 235319, Note_on_c, 12, 64, 0
16, 235560, Note_on_c, 12, 64, 76
16, 235679, Note_on_c, 12, 64, 0
16, 235920, Note_on_c, 12, 64, 76
16, 236039, Note_on_c, 12, 64, 0
16, 236280, Note_on_c, 12, 62, 76
16, 236399, Note_on_c, 12, 62, 0
16, 236640, Note_on_c, 12, 69, 76
16, 236759, Note_on_c, 12, 69, 0
16, 237000, Note_on_c, 12, 66, 76
16, 237119, Note_on_c, 12, 66, 0
16, 237360, Note_on_c, 12, 62, 76
16, 237479, Note_on_c, 12, 62, 0
16, 237990, Note_on_c, 12, 67, 76
16, 238064, Note_on_c, 12, 67, 0
16, 238080, Note_on_c, 12, 69, 76
16, 238334, Note_on_c, 12, 69, 0
16, 238350, Note_on_c, 12, 64, 76
16, 238424, Note_on_c, 12, 64, 0
16, 238440, Note_on_c, 12, 69, 76
16, 238559, Note_on_c, 12, 69, 0
16, 239070, Note_on_c, 12, 69, 76
16, 239144, Note_on_c, 12, 69, 0
16, 239160, Note_on_c, 12, 71, 76
16, 239414, Note_on_c, 12, 71, 0
16, 239430, Note_on_c, 12, 66, 76
16, 239504, Note_on_c, 12, 66, 0
16, 239520, Note_on_c, 12, 71, 76
16, 239639, Note_on_c, 12, 71, 0
16, 240150, Note_on_c, 12, 64, 76
16, 240224, Note_on_c, 12, 64, 0
16, 240240, Note_on_c, 12, 66, 76
16, 240494, Note_on_c, 12, 66, 0
16, 240510, Note_on_c, 12, 66, 76
16, 240584, Note_on_c, 12, 66, 0
16, 240600, Note_on_c, 12, 59, 76
16, 240854, Note_on_c, 12, 59, 0
16, 240870, Note_on_c, 12, 71, 76
16, 240944, Note_on_c, 12, 71, 0
16, 240960, Note_on_c, 12, 71, 76
16, 241214, Note_on_c, 12, 71, 0
16, 241230, Note_on_c, 12, 71, 76
16, 241304, Note_on_c, 12, 71, 0
16, 241320, Note_on_c, 12, 71, 76
16, 241574, Note_on_c, 12, 71, 0
16, 241590, Note_on_c, 12, 71, 76
16, 241664, Note_on_c, 12, 71, 0
16, 241680, Note_on_c, 12, 69, 76
16, 241934, Note_on_c, 12, 69, 0
16, 241950, Note_on_c, 12, 69, 76
16, 242024, Note_on_c, 12, 69, 0
16, 242040, Note_on_c, 12, 69, 76
16, 242294, Note_on_c, 12, 69, 0
16, 242310, Note_on_c, 12, 69, 76
16, 242384, Note_on_c, 12, 69, 0
16, 242400, Note_on_c, 12, 69, 76
16, 242654, Note_on_c, 12, 69, 0
16, 242670, Note_on_c, 12, 69, 76
16, 242744, Note_on_c, 12, 69, 0
16, 242760, Note_on_c, 12, 69, 76
16, 243014, Note_on_c, 12, 69, 0
16, 243030, Note_on_c, 12, 69, 76
16, 243104, Note_on_c, 12, 69, 0
16, 243120, Note_on_c, 12, 69, 76
16, 243374, Note_on_c, 12, 69, 0
16, 243390, Note_on_c, 12, 67, 76
16, 243464, Note_on_c, 12, 67, 0
16, 243480, Note_on_c, 12, 64, 76
16, 243734, Note_on_c, 12, 64, 0
16, 243750, Note_on_c, 12, 64, 76
16, 243824, Note_on_c, 12, 64, 0
16, 243840, Note_on_c, 12, 66, 76
16, 244094, Note_on_c, 12, 66, 0
16, 244110, Note_on_c, 12, 69, 76
16, 244184, Note_on_c, 12, 69, 0
16, 244200, Note_on_c, 12, 69, 76
16, 244454, Note_on_c, 12, 69, 0
16, 244470, Note_on_c, 12, 69, 76
16, 244544, Note_on_c, 12, 69, 0
16, 244560, Note_on_c, 12, 69, 76
16, 244679, Note_on_c, 12, 69, 0
16, 245190, Note_on_c, 12, 57, 76
16, 245264, Note_on_c, 12, 57, 0
16, 245280, Note_on_c, 12, 57, 76
16, 245534, Note_on_c, 12, 57, 0
16, 245550, Note_on_c, 12, 57, 76
16, 245624, Note_on_c, 12, 57, 0
16, 245640, Note_on_c, 12, 57, 76
16, 245759, Note_on_c, 12, 57, 0
16, 266790, Note_on_c, 12, 64, 76
16, 266864, Note_on_c, 12, 64, 0
16, 266880, Note_on_c, 12, 64, 76
16, 267134, Note_on_c, 12, 64, 0
16, 267150, Note_on_c, 12, 64, 76
16, 267224, Note_on_c, 12, 64, 0
16, 267240, Note_on_c, 12, 64, 76
16, 267494, Note_on_c, 12, 64, 0
16, 267510, Note_on_c, 12, 64, 76
16, 267584, Note_on_c, 12, 64, 0
16, 267600, Note_on_c, 12, 64, 76
16, 267854, Note_on_c, 12, 64, 0
16, 267870, Note_on_c, 12, 64, 76
16, 267944, Note_on_c, 12, 64, 0
16, 267960, Note_on_c, 12, 64, 76
16, 268214, Note_on_c, 12, 64, 0
16, 268230, Note_on_c, 12, 64, 76
16, 268304, Note_on_c, 12, 64, 0
16, 268320, Note_on_c, 12, 64, 76
16, 268574, Note_on_c, 12, 64, 0
16, 268590, Note_on_c, 12, 64, 76
16, 268664, Note_on_c, 12, 64, 0
16, 268680, Note_on_c, 12, 64, 76
16, 268799, Note_on_c, 12, 64, 0
16, 268800, Note_on_c, 12, 68, 76
16, 268899, Note_on_c, 12, 68, 0
16, 268920, Note_on_c, 12, 66, 76
16, 269019, Note_on_c, 12, 66, 0
16, 269040, Note_on_c, 12, 68, 76
16, 269294, Note_on_c, 12, 68, 0
16, 269310, Note_on_c, 12, 66, 76
16, 269384, Note_on_c, 12, 66, 0
16, 269400, Note_on_c, 12, 68, 76
16, 269654, Note_on_c, 12, 68, 0
16, 269670, Note_on_c, 12, 64, 76
16, 269744, Note_on_c, 12, 64, 0
16, 269760, Note_on_c, 12, 57, 76
16, 269879, Note_on_c, 12, 57, 0
16, 269880, Note_on_c, 12, 59, 76
16, 269999, Note_on_c, 12, 59, 0
16, 270000, Note_on_c, 12, 61, 76
16, 270099, Note_on_c, 12, 61, 0
16, 270120, Note_on_c, 12, 61, 76
16, 270374, Note_on_c, 12, 61, 0
16, 270390, Note_on_c, 12, 64, 76
16, 270464, Note_on_c, 12, 64, 0
16, 270480, Note_on_c, 12, 64, 76
16, 270734, Note_on_c, 12, 64, 0
16, 270750, Note_on_c, 12, 66, 76
16, 270824, Note_on_c, 12, 66, 0
16, 270840, Note_on_c, 12, 66, 76
16, 271094, Note_on_c, 12, 66, 0
16, 271110, Note_on_c, 12, 66, 76
16, 271184, Note_on_c, 12, 66, 0
16, 271200, Note_on_c, 12, 62, 76
16, 271319, Note_on_c, 12, 62, 0
16, 271320, Note_on_c, 12, 64, 76
16, 271439, Note_on_c, 12, 64, 0
16, 271440, Note_on_c, 12, 66, 76
16, 271539, Note_on_c, 12, 66, 0
16, 271560, Note_on_c, 12, 59, 76
16, 271814, Note_on_c, 12, 59, 0
16, 271830, Note_on_c, 12, 59, 76
16, 271904, Note_on_c, 12, 59, 0
16, 271920, Note_on_c, 12, 59, 76
16, 272279, Note_on_c, 12, 59, 0
16, 272460, Note_on_c, 12, 64, 76
16, 272619, Note_on_c, 12, 64, 0
16, 272640, Note_on_c, 12, 71, 76
16, 272894, Note_on_c, 12, 71, 0
16, 272910, Note_on_c, 12, 71, 76
16, 272984, Note_on_c, 12, 71, 0
16, 273000, Note_on_c, 12, 69, 76
16, 273119, Note_on_c, 12, 69, 0
16, 273120, Note_on_c, 12, 73, 76
16, 273239, Note_on_c, 12, 73, 0
16, 273240, Note_on_c, 12, 71, 76
16, 273339, Note_on_c, 12, 71, 0
16, 273360, Note_on_c, 12, 69, 76
16, 273479, Note_on_c, 12, 69, 0
16, 273480, Note_on_c, 12, 71, 76
16, 273579, Note_on_c, 12, 71, 0
16, 273600, Note_on_c, 12, 68, 76
16, 273699, Note_on_c, 12, 68, 0
16, 273720, Note_on_c, 12, 68, 76
16, 273839, Note_on_c, 12, 68, 0
16, 273840, Note_on_c, 12, 69, 76
16, 273939, Note_on_c, 12, 69, 0
16, 273960, Note_on_c, 12, 64, 76
16, 274059, Note_on_c, 12, 64, 0
16, 274080, Note_on_c, 12, 64, 76
16, 274334, Note_on_c, 12, 64, 0
16, 274350, Note_on_c, 12, 61, 76
16, 274424, Note_on_c, 12, 61, 0
16, 274440, Note_on_c, 12, 57, 76
16, 274694, Note_on_c, 12, 57, 0
16, 274710, Note_on_c, 12, 61, 76
16, 274784, Note_on_c, 12, 61, 0
16, 274800, Note_on_c, 12, 64, 76
16, 275054, Note_on_c, 12, 64, 0
16, 275070, Note_on_c, 12, 66, 76
16, 275144, Note_on_c, 12, 66, 0
16, 275160, Note_on_c, 12, 66, 76
16, 275519, Note_on_c, 12, 66, 0
16, 275700, Note_on_c, 12, 71, 76
16, 275859, Note_on_c, 12, 71, 0
16, 275880, Note_on_c, 12, 66, 76
16, 276134, Note_on_c, 12, 66, 0
16, 276150, Note_on_c, 12, 59, 76
16, 276224, Note_on_c, 12, 59, 0
16, 276240, Note_on_c, 12, 64, 76
16, 276599, Note_on_c, 12, 64, 0
16, 276780, Note_on_c, 12, 69, 76
16, 276939, Note_on_c, 12, 69, 0
16, 276960, Note_on_c, 12, 64, 76
16, 277214, Note_on_c, 12, 64, 0
16, 277230, Note_on_c, 12, 57, 76
16, 277304, Note_on_c, 12, 57, 0
16, 277320, Note_on_c, 12, 62, 76
16, 277574, Note_on_c, 12, 62, 0
16, 277590, Note_on_c, 12, 69, 76
16, 277664, Note_on_c, 12, 69, 0
16, 277680, Note_on_c, 12, 74, 76
16, 277934, Note_on_c, 12, 74, 0
16, 277950, Note_on_c, 12, 69, 76
16, 278024, Note_on_c, 12, 69, 0
16, 278040, Note_on_c, 12, 69, 76
16, 278294, Note_on_c, 12, 69, 0
16, 278310, Note_on_c, 12, 71, 76
16, 278384, Note_on_c, 12, 71, 0
16, 278400, Note_on_c, 12, 71, 76
16, 278519, Note_on_c, 12, 71, 0
16, 278760, Note_on_c, 12, 66, 76
16, 278879, Note_on_c, 12, 66, 0
16, 279120, Note_on_c, 12, 63, 76
16, 279239, Note_on_c, 12, 63, 0
16, 279480, Note_on_c, 12, 59, 76
16, 279599, Note_on_c, 12, 59, 0
16, 279840, Note_on_c, 12, 71, 76
16, 279959, Note_on_c, 12, 71, 0
16, 280200, Note_on_c, 12, 68, 76
16, 280319, Note_on_c, 12, 68, 0
16, 280560, Note_on_c, 12, 64, 76
16, 280679, Note_on_c, 12, 64, 0
16, 280920, Note_on_c, 12, 64, 76
16, 281039, Note_on_c, 12, 64, 0
16, 281280, Note_on_c, 12, 61, 76
16, 281399, Note_on_c, 12, 61, 0
16, 281640, Note_on_c, 12, 57, 76
16, 281759, Note_on_c, 12, 57, 0
16, 282270, Note_on_c, 12, 62, 76
16, 282344, Note_on_c, 12, 62, 0
16, 282360, Note_on_c, 12, 64, 76
16, 282614, Note_on_c, 12, 64, 0
16, 282630, Note_on_c, 12, 59, 76
16, 282704, Note_on_c, 12, 59, 0
16, 282720, Note_on_c, 12, 64, 76
16, 282839, Note_on_c, 12, 64, 0
16, 283350, Note_on_c, 12, 64, 76
16, 283424, Note_on_c, 12, 64, 0
16, 283440, Note_on_c, 12, 66, 76
16, 283694, Note_on_c, 12, 66, 0
16, 283710, Note_on_c, 12, 61, 76
16, 283784, Note_on_c, 12, 61, 0
16, 283800, Note_on_c, 12, 66, 76
16, 283919, Note_on_c, 12, 66, 0
16, 284430, Note_on_c, 12, 69, 76
16, 284504, Note_on_c, 12, 69, 0
16, 284520, Note_on_c, 12, 73, 76
16, 284774, Note_on_c, 12, 73, 0
16, 284790, Note_on_c, 12, 66, 76
16, 284864, Note_on_c, 12, 66, 0
16, 284880, Note_on_c, 12, 66, 76
16, 285134, Note_on_c, 12, 66, 0
16, 285150, Note_on_c, 12, 71, 76
16, 285224, Note_on_c, 12, 71, 0
16, 285240, Note_on_c, 12, 71, 76
16, 285494, Note_on_c, 12, 71, 0
16, 285510, Note_on_c, 12, 71, 76
16, 285584, Note_on_c, 12, 71, 0
16, 285600, Note_on_c, 12, 71, 76
16, 285854, Note_on_c, 12, 71, 0
16, 285870, Note_on_c, 12, 71, 76
16, 285944, Note_on_c, 12, 71, 0
16, 285960, Note_on_c, 12, 71, 76
16, 286079, Note_on_c, 12, 71, 0
16, 286080, Note_on_c, 12, 68, 76
16, 286199, Note_on_c, 12, 68, 0
16, 286200, Note_on_c, 12, 69, 76
16, 286319, Note_on_c, 12, 69, 0
16, 286320, Note_on_c, 12, 71, 76
16, 286439, Note_on_c, 12, 71, 0
16, 286440, Note_on_c, 12, 73, 76
16, 286539, Note_on_c, 12, 73, 0
16, 286560, Note_on_c, 12, 69, 76
16, 286659, Note_on_c, 12, 69, 0
16, 286680, Note_on_c, 12, 71, 76
16, 286799, Note_on_c, 12, 71, 0
16, 286800, Note_on_c, 12, 69, 76
16, 286919, Note_on_c, 12, 69, 0
16, 286920, Note_on_c, 12, 68, 76
16, 287019, Note_on_c, 12, 68, 0
16, 287040, Note_on_c, 12, 69, 76
16, 287294, Note_on_c, 12, 69, 0
16, 287310, Note_on_c, 12, 64, 76
16, 287384, Note_on_c, 12, 64, 0
16, 287400, Note_on_c, 12, 64, 76
16, 287654, Note_on_c, 12, 64, 0
16, 287670, Note_on_c, 12, 69, 76
16, 287744, Note_on_c, 12, 69, 0
16, 287760, Note_on_c, 12, 69, 76
16, 288014, Note_on_c, 12, 69, 0
16, 288030, Note_on_c, 12, 64, 76
16, 288104, Note_on_c, 12, 64, 0
16, 288120, Note_on_c, 12, 61, 76
16, 288374, Note_on_c, 12, 61, 0
16, 288390, Note_on_c, 12, 61, 76
16, 288464, Note_on_c, 12, 61, 0
16, 288480, Note_on_c, 12, 61, 76
16, 288599, Note_on_c, 12, 61, 0
16, 288600, Note_on_c, 12, 64, 76
16, 288699, Note_on_c, 12, 64, 0
16, 288720, Note_on_c, 12, 62, 76
16, 288819, Note_on_c, 12, 62, 0
16, 288840, Note_on_c, 12, 62, 76
16, 288959, Note_on_c, 12, 62, 0
16, 288960, Note_on_c, 12, 66, 76
16, 289059, Note_on_c, 12, 66, 0
16, 289080, Note_on_c, 12, 64, 76
16, 289179, Note_on_c, 12, 64, 0
16, 289200, Note_on_c, 12, 64, 76
16, 289319, Note_on_c, 12, 64, 0
16, 290550, Note_on_c, 12, 69, 76
16, 290624, Note_on_c, 12, 69, 0
16, 290640, Note_on_c, 12, 69, 76
16, 290894, Note_on_c, 12, 69, 0
16, 290910, Note_on_c, 12, 69, 76
16, 290984, Note_on_c, 12, 69, 0
16, 291000, Note_on_c, 12, 69, 76
16, 291254, Note_on_c, 12, 69, 0
16, 291270, Note_on_c, 12, 69, 76
16, 291344, Note_on_c, 12, 69, 0
16, 291360, Note_on_c, 12, 69, 76
16, 291614, Note_on_c, 12, 69, 0
16, 291630, Note_on_c, 12, 69, 76
16, 291704, Note_on_c, 12, 69, 0
16, 291720, Note_on_c, 12, 69, 76
16, 291974, Note_on_c, 12, 69, 0
16, 291990, Note_on_c, 12, 69, 76
16, 292064, Note_on_c, 12, 69, 0
16, 292080, Note_on_c, 12, 69, 76
16, 292334, Note_on_c, 12, 69, 0
16, 292350, Note_on_c, 12, 69, 76
16, 292424, Note_on_c, 12, 69, 0
16, 292440, Note_on_c, 12, 69, 76
16, 292559, Note_on_c, 12, 69, 0
16, 293790, Note_on_c, 12, 69, 76
16, 293864, Note_on_c, 12, 69, 0
16, 293880, Note_on_c, 12, 69, 76
16, 294134, Note_on_c, 12, 69, 0
16, 294150, Note_on_c, 12, 73, 76
16, 294224, Note_on_c, 12, 73, 0
16, 294240, Note_on_c, 12, 73, 76
16, 294494, Note_on_c, 12, 73, 0
16, 294510, Note_on_c, 12, 74, 76
16, 294584, Note_on_c, 12, 74, 0
16, 294600, Note_on_c, 12, 74, 76
16, 294719, Note_on_c, 12, 74, 0
16, 295950, Note_on_c, 12, 62, 76
16, 296024, Note_on_c, 12, 62, 0
16, 296040, Note_on_c, 12, 62, 76
16, 296294, Note_on_c, 12, 62, 0
16, 296310, Note_on_c, 12, 62, 76
16, 296384, Note_on_c, 12, 62, 0
16, 296400, Note_on_c, 12, 62, 76
16, 296654, Note_on_c, 12, 62, 0
16, 296670, Note_on_c, 12, 62, 76
16, 296744, Note_on_c, 12, 62, 0
16, 296760, Note_on_c, 12, 62, 76
16, 297014, Note_on_c, 12, 62, 0
16, 297030, Note_on_c, 12, 60, 76
16, 297104, Note_on_c, 12, 60, 0
16, 297120, Note_on_c, 12, 62, 76
16, 297374, Note_on_c, 12, 62, 0
16, 297390, Note_on_c, 12, 66, 76
16, 297464, Note_on_c, 12, 66, 0
16, 297480, Note_on_c, 12, 66, 76
16, 297734, Note_on_c, 12, 66, 0
16, 297750, Note_on_c, 12, 59, 76
16, 297824, Note_on_c, 12, 59, 0
16, 297840, Note_on_c, 12, 59, 76
16, 298094, Note_on_c, 12, 59, 0
16, 298110, Note_on_c, 12, 64, 76
16, 298184, Note_on_c, 12, 64, 0
16, 298200, Note_on_c, 12, 64, 76
16, 298454, Note_on_c, 12, 64, 0
16, 298470, Note_on_c, 12, 67, 76
16, 298544, Note_on_c, 12, 67, 0
16, 298560, Note_on_c, 12, 67, 76
16, 298814, Note_on_c, 12, 67, 0
16, 298830, Note_on_c, 12, 61, 76
16, 298904, Note_on_c, 12, 61, 0
16, 298920, Note_on_c, 12, 61, 76
16, 299174, Note_on_c, 12, 61, 0
16, 299190, Note_on_c, 12, 66, 76
16, 299264, Note_on_c, 12, 66, 0
16, 299280, Note_on_c, 12, 66, 76
16, 299534, Note_on_c, 12, 66, 0
16, 299550, Note_on_c, 12, 69, 76
16, 299624, Note_on_c, 12, 69, 0
16, 299640, Note_on_c, 12, 69, 76
16, 299894, Note_on_c, 12, 69, 0
16, 299910, Note_on_c, 12, 62, 76
16, 299984, Note_on_c, 12, 62, 0
16, 300000, Note_on_c, 12, 62, 76
16, 300254, Note_on_c, 12, 62, 0
16, 300270, Note_on_c, 12, 68, 76
16, 300344, Note_on_c, 12, 68, 0
16, 300360, Note_on_c, 12, 68, 76
16, 300614, Note_on_c, 12, 68, 0
16, 300630, Note_on_c, 12, 71, 76
16, 300704, Note_on_c, 12, 71, 0
16, 300720, Note_on_c, 12, 71, 76
16, 300974, Note_on_c, 12, 71, 0
16, 300990, Note_on_c, 12, 64, 76
16, 301064, Note_on_c, 12, 64, 0
16, 301080, Note_on_c, 12, 64, 76
16, 301199, Note_on_c, 12, 64, 0
16, 302430, Note_on_c, 12, 54, 76
16, 302504, Note_on_c, 12, 54, 0
16, 302520, Note_on_c, 12, 54, 76
16, 302774, Note_on_c, 12, 54, 0
16, 302790, Note_on_c, 12, 54, 76
16, 302864, Note_on_c, 12, 54, 0
16, 302880, Note_on_c, 12, 54, 76
16, 303134, Note_on_c, 12, 54, 0
16, 303150, Note_on_c, 12, 54, 76
16, 303224, Note_on_c, 12, 54, 0
16, 303240, Note_on_c, 12, 54, 76
16, 303359, Note_on_c, 12, 54, 0
16, 303600, Note_on_c, 12, 66, 76
16, 303719, Note_on_c, 12, 66, 0
16, 303960, Note_on_c, 12, 66, 76
16, 304079, Note_on_c, 12, 66, 0
16, 304320, Note_on_c, 12, 70, 76
16, 304574, Note_on_c, 12, 70, 0
16, 304590, Note_on_c, 12, 70, 76
16, 304664, Note_on_c, 12, 70, 0
16, 304680, Note_on_c, 12, 70, 76
16, 304934, Note_on_c, 12, 70, 0
16, 304950, Note_on_c, 12, 71, 76
16, 305024, Note_on_c, 12, 71, 0
16, 305040, Note_on_c, 12, 64, 76
16, 305294, Note_on_c, 12, 64, 0
16, 305310, Note_on_c, 12, 66, 76
16, 305384, Note_on_c, 12, 66, 0
16, 305400, Note_on_c, 12, 66, 76
16, 305519, Note_on_c, 12, 66, 0
16, 305760, Note_on_c, 12, 66, 76
16, 305879, Note_on_c, 12, 66, 0
16, 306120, Note_on_c, 12, 66, 76
16, 306239, Note_on_c, 12, 66, 0
16, 306480, Note_on_c, 12, 67, 76
16, 306599, Note_on_c, 12, 67, 0
16, 306600, Note_on_c, 12, 71, 76
16, 306719, Note_on_c, 12, 71, 0
16, 306720, Note_on_c, 12, 69, 76
16, 306839, Note_on_c, 12, 69, 0
16, 306840, Note_on_c, 12, 71, 76
16, 306959, Note_on_c, 12, 71, 0
16, 306960, Note_on_c, 12, 72, 76
16, 307059, Note_on_c, 12, 72, 0
16, 307080, Note_on_c, 12, 69, 76
16, 307179, Note_on_c, 12, 69, 0
16, 307200, Note_on_c, 12, 69, 76
16, 307319, Note_on_c, 12, 69, 0
16, 307320, Note_on_c, 12, 71, 76
16, 307419, Note_on_c, 12, 71, 0
16, 307440, Note_on_c, 12, 67, 76
16, 307539, Note_on_c, 12, 67, 0
16, 307560, Note_on_c, 12, 67, 76
16, 307814, Note_on_c, 12, 67, 0
16, 307830, Note_on_c, 12, 71, 76
16, 307904, Note_on_c, 12, 71, 0
16, 307920, Note_on_c, 12, 73, 76
16, 308174, Note_on_c, 12, 73, 0
16, 308190, Note_on_c, 12, 67, 76
16, 308264, Note_on_c, 12, 67, 0
16, 308280, Note_on_c, 12, 67, 76
16, 308534, Note_on_c, 12, 67, 0
16, 308550, Note_on_c, 12, 67, 76
16, 308624, Note_on_c, 12, 67, 0
16, 308640, Note_on_c, 12, 66, 76
16, 308759, Note_on_c, 12, 66, 0
16, 308760, Note_on_c, 12, 68, 76
16, 308879, Note_on_c, 12, 68, 0
16, 308880, Note_on_c, 12, 70, 76
16, 308979, Note_on_c, 12, 70, 0
16, 309000, Note_on_c, 12, 70, 76
16, 309254, Note_on_c, 12, 70, 0
16, 309270, Note_on_c, 12, 64, 76
16, 309344, Note_on_c, 12, 64, 0
16, 309360, Note_on_c, 12, 66, 76
16, 309614, Note_on_c, 12, 66, 0
16, 309630, Note_on_c, 12, 61, 76
16, 309704, Note_on_c, 12, 61, 0
16, 309720, Note_on_c, 12, 62, 76
16, 309974, Note_on_c, 12, 62, 0
16, 309990, Note_on_c, 12, 66, 76
16, 310064, Note_on_c, 12, 66, 0
16, 310080, Note_on_c, 12, 64, 76
16, 310334, Note_on_c, 12, 64, 0
16, 310350, Note_on_c, 12, 64, 76
16, 310424, Note_on_c, 12, 64, 0
16, 310440, Note_on_c, 12, 61, 76
16, 310559, Note_on_c, 12, 61, 0
16, 310560, Note_on_c, 12, 59, 76
16, 310679, Note_on_c, 12, 59, 0
16, 310680, Note_on_c, 12, 61, 76
16, 310779, Note_on_c, 12, 61, 0
16, 310800, Note_on_c, 12, 59, 76
16, 310919, Note_on_c, 12, 59, 0
16, 310920, Note_on_c, 12, 61, 76
16, 311039, Note_on_c, 12, 61, 0
16, 311040, Note_on_c, 12, 62, 76
16, 311139, Note_on_c, 12, 62, 0
16, 311160, Note_on_c, 12, 62, 76
16, 311279, Note_on_c, 12, 62, 0
16, 311280, Note_on_c, 12, 64, 76
16, 311379, Note_on_c, 12, 64, 0
16, 311400, Note_on_c, 12, 61, 76
16, 311499, Note_on_c, 12, 61, 0
16, 311520, Note_on_c, 12, 61, 76
16, 311639, Note_on_c, 12, 61, 0
16, 311640, Note_on_c, 12, 62, 76
16, 311739, Note_on_c, 12, 62, 0
16, 311760, Note_on_c, 12, 59, 76
16, 311859, Note_on_c, 12, 59, 0
16, 311880, Note_on_c, 12, 59, 76
16, 311999, Note_on_c, 12, 59, 0
16, 312000, Note_on_c, 12, 61, 76
16, 312119, Note_on_c, 12, 61, 0
16, 312120, Note_on_c, 12, 62, 76
16, 312219, Note_on_c, 12, 62, 0
16, 312240, Note_on_c, 12, 62, 76
16, 312359, Note_on_c, 12, 62, 0
16, 312360, Note_on_c, 12, 64, 76
16, 312459, Note_on_c, 12, 64, 0
16, 312480, Note_on_c, 12, 61, 76
16, 312579, Note_on_c, 12, 61, 0
16, 312600, Note_on_c, 12, 61, 76
16, 312719, Note_on_c, 12, 61, 0
16, 312720, Note_on_c, 12, 62, 76
16, 312819, Note_on_c, 12, 62, 0
16, 312840, Note_on_c, 12, 59, 76
16, 312939, Note_on_c, 12, 59, 0
16, 312960, Note_on_c, 12, 59, 76
16, 313319, Note_on_c, 12, 59, 0
16, 313590, Note_on_c, 12, 71, 76
16, 313664, Note_on_c, 12, 71, 0
16, 313680, Note_on_c, 12, 71, 76
16, 313934, Note_on_c, 12, 71, 0
16, 313950, Note_on_c, 12, 71, 76
16, 314024, Note_on_c, 12, 71, 0
16, 314040, Note_on_c, 12, 71, 76
16, 314399, Note_on_c, 12, 71, 0
16, 314670, Note_on_c, 12, 64, 76
16, 314744, Note_on_c, 12, 64, 0
16, 314760, Note_on_c, 12, 64, 76
16, 315014, Note_on_c, 12, 64, 0
16, 315030, Note_on_c, 12, 64, 76
16, 315104, Note_on_c, 12, 64, 0
16, 315120, Note_on_c, 12, 64, 76
16, 315374, Note_on_c, 12, 64, 0
16, 315390, Note_on_c, 12, 69, 76
16, 315464, Note_on_c, 12, 69, 0
16, 315480, Note_on_c, 12, 69, 76
16, 315599, Note_on_c, 12, 69, 0
16, 315600, Note_on_c, 12, 71, 76
16, 315699, Note_on_c, 12, 71, 0
16, 315720, Note_on_c, 12, 67, 76
16, 315819, Note_on_c, 12, 67, 0
16, 315840, Note_on_c, 12, 67, 76
16, 315959, Note_on_c, 12, 67, 0
16, 315960, Note_on_c, 12, 69, 76
16, 316059, Note_on_c, 12, 69, 0
16, 316080, Note_on_c, 12, 66, 76
16, 316179, Note_on_c, 12, 66, 0
16, 316200, Note_on_c, 12, 66, 76
16, 316319, Note_on_c, 12, 66, 0
16, 316560, Note_on_c, 12, 71, 76
16, 316679, Note_on_c, 12, 71, 0
16, 316920, Note_on_c, 12, 75, 76
16, 317039, Note_on_c, 12, 75, 0
16, 317640, Note_on_c, 12, 64, 76
16, 317759, Note_on_c, 12, 64, 0
16, 318000, Note_on_c, 12, 67, 76
16, 318119, Note_on_c, 12, 67, 0
16, 318720, Note_on_c, 12, 69, 76
16, 318839, Note_on_c, 12, 69, 0
16, 319080, Note_on_c, 12, 66, 76
16, 319199, Note_on_c, 12, 66, 0
16, 319800, Note_on_c, 12, 67, 76
16, 319919, Note_on_c, 12, 67, 0
16, 320160, Note_on_c, 12, 64, 76
16, 320279, Note_on_c, 12, 64, 0
16, 320520, Note_on_c, 12, 66, 76
16, 320639, Note_on_c, 12, 66, 0
16, 321870, Note_on_c, 12, 50, 76
16, 321944, Note_on_c, 12, 50, 0
16, 321960, Note_on_c, 12, 50, 76
16, 322214, Note_on_c, 12, 50, 0
16, 322230, Note_on_c, 12, 50, 76
16, 322304, Note_on_c, 12, 50, 0
16, 322320, Note_on_c, 12, 50, 76
16, 322574, Note_on_c, 12, 50, 0
16, 322590, Note_on_c, 12, 50, 76
16, 322664, Note_on_c, 12, 50, 0
16, 322680, Note_on_c, 12, 50, 76
16, 322799, Note_on_c, 12, 50, 0
16, 323040, Note_on_c, 12, 66, 76
16, 323159, Note_on_c, 12, 66, 0
16, 323400, Note_on_c, 12, 62, 76
16, 323519, Note_on_c, 12, 62, 0
16, 323760, Note_on_c, 12, 62, 76
16, 324014, Note_on_c, 12, 62, 0
16, 324030, Note_on_c, 12, 62, 76
16, 324104, Note_on_c, 12, 62, 0
16, 324120, Note_on_c, 12, 62, 76
16, 324374, Note_on_c, 12, 62, 0
16, 324390, Note_on_c, 12, 64, 76
16, 324464, Note_on_c, 12, 64, 0
16, 324480, Note_on_c, 12, 64, 76
16, 324734, Note_on_c, 12, 64, 0
16, 324750, Note_on_c, 12, 62, 76
16, 324824, Note_on_c, 12, 62, 0
16, 324840, Note_on_c, 12, 62, 76
16, 324959, Note_on_c, 12, 62, 0
16, 325200, Note_on_c, 12, 62, 76
16, 325319, Note_on_c, 12, 62, 0
16, 325560, Note_on_c, 12, 66, 76
16, 325679, Note_on_c, 12, 66, 0
16, 325920, Note_on_c, 12, 59, 76
16, 326039, Note_on_c, 12, 59, 0
16, 326040, Note_on_c, 12, 64, 76
16, 326159, Note_on_c, 12, 64, 0
16, 326160, Note_on_c, 12, 65, 76
16, 326279, Note_on_c, 12, 65, 0
16, 326280, Note_on_c, 12, 67, 76
16, 326399, Note_on_c, 12, 67, 0
16, 326400, Note_on_c, 12, 69, 76
16, 326499, Note_on_c, 12, 69, 0
16, 326520, Note_on_c, 12, 65, 76
16, 326619, Note_on_c, 12, 65, 0
16, 326640, Note_on_c, 12, 65, 76
16, 326759, Note_on_c, 12, 65, 0
16, 326760, Note_on_c, 12, 67, 76
16, 326859, Note_on_c, 12, 67, 0
16, 326880, Note_on_c, 12, 64, 76
16, 326979, Note_on_c, 12, 64, 0
16, 327000, Note_on_c, 12, 64, 76
16, 327254, Note_on_c, 12, 64, 0
16, 327270, Note_on_c, 12, 59, 76
16, 327344, Note_on_c, 12, 59, 0
16, 327360, Note_on_c, 12, 60, 76
16, 327614, Note_on_c, 12, 60, 0
16, 327630, Note_on_c, 12, 64, 76
16, 327704, Note_on_c, 12, 64, 0
16, 327720, Note_on_c, 12, 64, 76
16, 327974, Note_on_c, 12, 64, 0
16, 327990, Note_on_c, 12, 64, 76
16, 328064, Note_on_c, 12, 64, 0
16, 328080, Note_on_c, 12, 57, 76
16, 328199, Note_on_c, 12, 57, 0
16, 328200, Note_on_c, 12, 59, 76
16, 328319, Note_on_c, 12, 59, 0
16, 328320, Note_on_c, 12, 60, 76
16, 328419, Note_on_c, 12, 60, 0
16, 328440, Note_on_c, 12, 62, 76
16, 328694, Note_on_c, 12, 62, 0
16, 328710, Note_on_c, 12, 55, 76
16, 328784, Note_on_c, 12, 55, 0
16, 328800, Note_on_c, 12, 62, 76
16, 329054, Note_on_c, 12, 62, 0
16, 329070, Note_on_c, 12, 57, 76
16, 329144, Note_on_c, 12, 57, 0
16, 329160, Note_on_c, 12, 62, 76
16, 329414, Note_on_c, 12, 62, 0
16, 329430, Note_on_c, 12, 69, 76
16, 329504, Note_on_c, 12, 69, 0
16, 329520, Note_on_c, 12, 67, 76
16, 329774, Note_on_c, 12, 67, 0
16, 329790, Note_on_c, 12, 69, 76
16, 329864, Note_on_c, 12, 69, 0
16, 329880, Note_on_c, 12, 62, 76
16, 330134, Note_on_c, 12, 62, 0
16, 330150, Note_on_c, 12, 62, 76
16, 330224, Note_on_c, 12, 62, 0
16, 330240, Note_on_c, 12, 62, 76
16, 330494, Note_on_c, 12, 62, 0
16, 330510, Note_on_c, 12, 62, 76
16, 330584, Note_on_c, 12, 62, 0
16, 330600, Note_on_c, 12, 62, 76
16, 330854, Note_on_c, 12, 62, 0
16, 330870, Note_on_c, 12, 62, 76
16, 330944, Note_on_c, 12, 62, 0
16, 330960, Note_on_c, 12, 62, 76
16, 331214, Note_on_c, 12, 62, 0
16, 331230, Note_on_c, 12, 62, 76
16, 331304, Note_on_c, 12, 62, 0
16, 331320, Note_on_c, 12, 62, 76
16, 331574, Note_on_c, 12, 62, 0
16, 331590, Note_on_c, 12, 62, 76
16, 331664, Note_on_c, 12, 62, 0
16, 331680, Note_on_c, 12, 62, 76
16, 331934, Note_on_c, 12, 62, 0
16, 331950, Note_on_c, 12, 62, 76
16, 332024, Note_on_c, 12, 62, 0
16, 332040, Note_on_c, 12, 62, 76
16, 332294, Note_on_c, 12, 62, 0
16, 332310, Note_on_c, 12, 62, 76
16, 332384, Note_on_c, 12, 62, 0
16, 332400, Note_on_c, 12, 62, 76
16, 332519, Note_on_c, 12, 62, 0
16, 332760, Note_on_c, 12, 57, 76
16, 332879, Note_on_c, 12, 57, 0
16, 333120, Note_on_c, 12, 59, 76
16, 333239, Note_on_c, 12, 59, 0
16, 333480, Note_on_c, 12, 60, 76
16, 333599, Note_on_c, 12, 60, 0
16, 333840, Note_on_c, 12, 59, 76
16, 333959, Note_on_c, 12, 59, 0
16, 334200, Note_on_c, 12, 61, 76
16, 334319, Note_on_c, 12, 61, 0
16, 334560, Note_on_c, 12, 62, 76
16, 334679, Note_on_c, 12, 62, 0
16, 334920, Note_on_c, 12, 61, 76
16, 335039, Note_on_c, 12, 61, 0
16, 335280, Note_on_c, 12, 63, 76
16, 335399, Note_on_c, 12, 63, 0
16, 335640, Note_on_c, 12, 64, 76
16, 335894, Note_on_c, 12, 64, 0
16, 335910, Note_on_c, 12, 64, 76
16, 335984, Note_on_c, 12, 64, 0
16, 336000, Note_on_c, 12, 64, 76
16, 336119, Note_on_c, 12, 64, 0
16, 336120, Note_on_c, 12, 66, 76
16, 336219, Note_on_c, 12, 66, 0
16, 336240, Note_on_c, 12, 62, 76
16, 336339, Note_on_c, 12, 62, 0
16, 336360, Note_on_c, 12, 62, 76
16, 336479, Note_on_c, 12, 62, 0
16, 336480, Note_on_c, 12, 64, 76
16, 336579, Note_on_c, 12, 64, 0
16, 336600, Note_on_c, 12, 61, 76
16, 336699, Note_on_c, 12, 61, 0
16, 336720, Note_on_c, 12, 61, 76
16, 336839, Note_on_c, 12, 61, 0
16, 336840, Note_on_c, 12, 63, 76
16, 336959, Note_on_c, 12, 63, 0
16, 336960, Note_on_c, 12, 64, 76
16, 337079, Note_on_c, 12, 64, 0
16, 337080, Note_on_c, 12, 66, 76
16, 337199, Note_on_c, 12, 66, 0
16, 337200, Note_on_c, 12, 67, 76
16, 337299, Note_on_c, 12, 67, 0
16, 337320, Note_on_c, 12, 64, 76
16, 337419, Note_on_c, 12, 64, 0
16, 337440, Note_on_c, 12, 64, 76
16, 337559, Note_on_c, 12, 64, 0
16, 337560, Note_on_c, 12, 66, 76
16, 337659, Note_on_c, 12, 66, 0
16, 337680, Note_on_c, 12, 63, 76
16, 337779, Note_on_c, 12, 63, 0
16, 337800, Note_on_c, 12, 63, 76
16, 338054, Note_on_c, 12, 63, 0
16, 338070, Note_on_c, 12, 63, 76
16, 338144, Note_on_c, 12, 63, 0
16, 338160, Note_on_c, 12, 63, 76
16, 338414, Note_on_c, 12, 63, 0
16, 338430, Note_on_c, 12, 63, 76
16, 338504, Note_on_c, 12, 63, 0
16, 338520, Note_on_c, 12, 63, 76
16, 338774, Note_on_c, 12, 63, 0
16, 338790, Note_on_c, 12, 63, 76
16, 338864, Note_on_c, 12, 63, 0
16, 338880, Note_on_c, 12, 62, 76
16, 339134, Note_on_c, 12, 62, 0
16, 339150, Note_on_c, 12, 62, 76
16, 339224, Note_on_c, 12, 62, 0
16, 339240, Note_on_c, 12, 62, 76
16, 339494, Note_on_c, 12, 62, 0
16, 339510, Note_on_c, 12, 62, 76
16, 339584, Note_on_c, 12, 62, 0
16, 339600, Note_on_c, 12, 62, 76
16, 339854, Note_on_c, 12, 62, 0
16, 339870, Note_on_c, 12, 62, 76
16, 339944, Note_on_c, 12, 62, 0
16, 339960, Note_on_c, 12, 61, 76
16, 340214, Note_on_c, 12, 61, 0
16, 340230, Note_on_c, 12, 61, 76
16, 340304, Note_on_c, 12, 61, 0
16, 340320, Note_on_c, 12, 61, 76
16, 340574, Note_on_c, 12, 61, 0
16, 340590, Note_on_c, 12, 61, 76
16, 340664, Note_on_c, 12, 61, 0
16, 340680, Note_on_c, 12, 61, 76
16, 340934, Note_on_c, 12, 61, 0
16, 340950, Note_on_c, 12, 61, 76
16, 341024, Note_on_c, 12, 61, 0
16, 341040, Note_on_c, 12, 60, 76
16, 341294, Note_on_c, 12, 60, 0
16, 341310, Note_on_c, 12, 60, 76
16, 341384, Note_on_c, 12, 60, 0
16, 341400, Note_on_c, 12, 60, 76
16, 341654, Note_on_c, 12, 60, 0
16, 341670, Note_on_c, 12, 60, 76
16, 341744, Note_on_c, 12, 60, 0
16, 341760, Note_on_c, 12, 60, 76
16, 342014, Note_on_c, 12, 60, 0
16, 342030, Note_on_c, 12, 60, 76
16, 342104, Note_on_c, 12, 60, 0
16, 342120, Note_on_c, 12, 59, 76
16, 342374, Note_on_c, 12, 59, 0
16, 342390, Note_on_c, 12, 59, 76
16, 342464, Note_on_c, 12, 59, 0
16, 342480, Note_on_c, 12, 59, 76
16, 342734, Note_on_c, 12, 59, 0
16, 342750, Note_on_c, 12, 59, 76
16, 342824, Note_on_c, 12, 59, 0
16, 342840, Note_on_c, 12, 59, 76
16, 343094, Note_on_c, 12, 59, 0
16, 343110, Note_on_c, 12, 59, 76
16, 343184, Note_on_c, 12, 59, 0
16, 343200, Note_on_c, 12, 58, 76
16, 343454, Note_on_c, 12, 58, 0
16, 343470, Note_on_c, 12, 58, 76
16, 343544, Note_on_c, 12, 58, 0
16, 343560, Note_on_c, 12, 58, 76
16, 343814, Note_on_c, 12, 58, 0
16, 343830, Note_on_c, 12, 58, 76
16, 343904, Note_on_c, 12, 58, 0
16, 343920, Note_on_c, 12, 58, 76
16, 344174, Note_on_c, 12, 58, 0
16, 344190, Note_on_c, 12, 58, 76
16, 344264, Note_on_c, 12, 58, 0
16, 344280, Note_on_c, 12, 57, 76
16, 344534, Note_on_c, 12, 57, 0
16, 344550, Note_on_c, 12, 57, 76
16, 344624, Note_on_c, 12, 57, 0
16, 344640, Note_on_c, 12, 57, 76
16, 344894, Note_on_c, 12, 57, 0
16, 344910, Note_on_c, 12, 57, 76
16, 344984, Note_on_c, 12, 57, 0
16, 345000, Note_on_c, 12, 57, 76
16, 345254, Note_on_c, 12, 57, 0
16, 345270, Note_on_c, 12, 57, 76
16, 345344, Note_on_c, 12, 57, 0
16, 345360, Note_on_c, 12, 56, 76
16, 345614, Note_on_c, 12, 56, 0
16, 345630, Note_on_c, 12, 56, 76
16, 345704, Note_on_c, 12, 56, 0
16, 345720, Note_on_c, 12, 56, 76
16, 345974, Note_on_c, 12, 56, 0
16, 345990, Note_on_c, 12, 56, 76
16, 346064, Note_on_c, 12, 56, 0
16, 346080, Note_on_c, 12, 56, 76
16, 346334, Note_on_c, 12, 56, 0
16, 346350, Note_on_c, 12, 56, 76
16, 346424, Note_on_c, 12, 56, 0
16, 346440, Note_on_c, 12, 55, 76
16, 346694, Note_on_c, 12, 55, 0
16, 346710, Note_on_c, 12, 55, 76
16, 346784, Note_on_c, 12, 55, 0
16, 346800, Note_on_c, 12, 55, 76
16, 347054, Note_on_c, 12, 55, 0
16, 347070, Note_on_c, 12, 55, 76
16, 347144, Note_on_c, 12, 55, 0
16, 347160, Note_on_c, 12, 55, 76
16, 347414, Note_on_c, 12, 55, 0
16, 347430, Note_on_c, 12, 55, 76
16, 347504, Note_on_c, 12, 55, 0
16, 347520, Note_on_c, 12, 53, 76
16, 347774, Note_on_c, 12, 53, 0
16, 347790, Note_on_c, 12, 57, 76
16, 347864, Note_on_c, 12, 57, 0
16, 347880, Note_on_c, 12, 57, 76
16, 347999, Note_on_c, 12, 57, 0
16, 348000, Note_on_c, 12, 58, 76
16, 348099, Note_on_c, 12, 58, 0
16, 348120, Note_on_c, 12, 55, 76
16, 348219, Note_on_c, 12, 55, 0
16, 348240, Note_on_c, 12, 55, 76
16, 348359, Note_on_c, 12, 55, 0
16, 348360, Note_on_c, 12, 57, 76
16, 348459, Note_on_c, 12, 57, 0
16, 348480, Note_on_c, 12, 53, 76
16, 348579, Note_on_c, 12, 53, 0
16, 348600, Note_on_c, 12, 53, 76
16, 348719, Note_on_c, 12, 53, 0
16, 348720, Note_on_c, 12, 55, 76
16, 348839, Note_on_c, 12, 55, 0
16, 348840, Note_on_c, 12, 57, 76
16, 348959, Note_on_c, 12, 57, 0
16, 348960, Note_on_c, 12, 58, 76
16, 349079, Note_on_c, 12, 58, 0
16, 349080, Note_on_c, 12, 60, 76
16, 349179, Note_on_c, 12, 60, 0
16, 349200, Note_on_c, 12, 57, 76
16, 349299, Note_on_c, 12, 57, 0
16, 349320, Note_on_c, 12, 57, 76
16, 349439, Note_on_c, 12, 57, 0
16, 349440, Note_on_c, 12, 58, 76
16, 349539, Note_on_c, 12, 58, 0
16, 349560, Note_on_c, 12, 56, 76
16, 349659, Note_on_c, 12, 56, 0
16, 349680, Note_on_c, 12, 56, 76
16, 349799, Note_on_c, 12, 56, 0
16, 351030, Note_on_c, 12, 61, 76
16, 351104, Note_on_c, 12, 61, 0
16, 351120, Note_on_c, 12, 61, 76
16, 351374, Note_on_c, 12, 61, 0
16, 351390, Note_on_c, 12, 61, 76
16, 351464, Note_on_c, 12, 61, 0
16, 351480, Note_on_c, 12, 61, 76
16, 351734, Note_on_c, 12, 61, 0
16, 351750, Note_on_c, 12, 61, 76
16, 351824, Note_on_c, 12, 61, 0
16, 351840, Note_on_c, 12, 62, 76
16, 351959, Note_on_c, 12, 62, 0
16, 351960, Note_on_c, 12, 66, 76
16, 352059, Note_on_c, 12, 66, 0
16, 352080, Note_on_c, 12, 64, 76
16, 352179, Note_on_c, 12, 64, 0
16, 352200, Note_on_c, 12, 62, 76
16, 352454, Note_on_c, 12, 62, 0
16, 352470, Note_on_c, 12, 62, 76
16, 352544, Note_on_c, 12, 62, 0
16, 352560, Note_on_c, 12, 57, 76
16, 352814, Note_on_c, 12, 57, 0
16, 352830, Note_on_c, 12, 57, 76
16, 352904, Note_on_c, 12, 57, 0
16, 352920, Note_on_c, 12, 57, 76
16, 353039, Note_on_c, 12, 57, 0
16, 353280, Note_on_c, 12, 66, 76
16, 353399, Note_on_c, 12, 66, 0
16, 353640, Note_on_c, 12, 69, 76
16, 353759, Note_on_c, 12, 69, 0
16, 354000, Note_on_c, 12, 62, 76
16, 354119, Note_on_c, 12, 62, 0
16, 354120, Note_on_c, 12, 64, 76
16, 354239, Note_on_c, 12, 64, 0
16, 354240, Note_on_c, 12, 66, 76
16, 354339, Note_on_c, 12, 66, 0
16, 354360, Note_on_c, 12, 66, 76
16, 354614, Note_on_c, 12, 66, 0
16, 354630, Note_on_c, 12, 69, 76
16, 354704, Note_on_c, 12, 69, 0
16, 354720, Note_on_c, 12, 66, 76
16, 354974, Note_on_c, 12, 66, 0
16, 354990, Note_on_c, 12, 62, 76
16, 355064, Note_on_c, 12, 62, 0
16, 355080, Note_on_c, 12, 67, 76
16, 355334, Note_on_c, 12, 67, 0
16, 355350, Note_on_c, 12, 71, 76
16, 355424, Note_on_c, 12, 71, 0
16, 355440, Note_on_c, 12, 67, 76
16, 355559, Note_on_c, 12, 67, 0
16, 355560, Note_on_c, 12, 69, 76
16, 355679, Note_on_c, 12, 69, 0
16, 355680, Note_on_c, 12, 71, 76
16, 355779, Note_on_c, 12, 71, 0
16, 355800, Note_on_c, 12, 64, 76
16, 356054, Note_on_c, 12, 64, 0
16, 356070, Note_on_c, 12, 64, 76
16, 356144, Note_on_c, 12, 64, 0
16, 356160, Note_on_c, 12, 64, 76
16, 356519, Note_on_c, 12, 64, 0
16, 356790, Note_on_c, 12, 69, 76
16, 356864, Note_on_c, 12, 69, 0
16, 356880, Note_on_c, 12, 64, 76
16, 357134, Note_on_c, 12, 64, 0
16, 357150, Note_on_c, 12, 69, 76
16, 357224, Note_on_c, 12, 69, 0
16, 357240, Note_on_c, 12, 62, 76
16, 357359, Note_on_c, 12, 62, 0
16, 357360, Note_on_c, 12, 66, 76
16, 357479, Note_on_c, 12, 66, 0
16, 357480, Note_on_c, 12, 67, 76
16, 357579, Note_on_c, 12, 67, 0
16, 357600, Note_on_c, 12, 69, 76
16, 357854, Note_on_c, 12, 69, 0
16, 357870, Note_on_c, 12, 73, 76
16, 357944, Note_on_c, 12, 73, 0
16, 357960, Note_on_c, 12, 64, 76
16, 358214, Note_on_c, 12, 64, 0
16, 358230, Note_on_c, 12, 66, 76
16, 358304, Note_on_c, 12, 66, 0
16, 358320, Note_on_c, 12, 66, 76
16, 358574, Note_on_c, 12, 66, 0
16, 358590, Note_on_c, 12, 66, 76
16, 358664, Note_on_c, 12, 66, 0
16, 358680, Note_on_c, 12, 62, 76
16, 358799, Note_on_c, 12, 62, 0
16, 358800, Note_on_c, 12, 64, 76
16, 358919, Note_on_c, 12, 64, 0
16, 358920, Note_on_c, 12, 66, 76
16, 359019, Note_on_c, 12, 66, 0
16, 359040, Note_on_c, 12, 59, 76
16, 359294, Note_on_c, 12, 59, 0
16, 359310, Note_on_c, 12, 71, 76
16, 359384, Note_on_c, 12, 71, 0
16, 359400, Note_on_c, 12, 71, 76
16, 359759, Note_on_c, 12, 71, 0
16, 360030, Note_on_c, 12, 64, 76
16, 360104, Note_on_c, 12, 64, 0
16, 360120, Note_on_c, 12, 64, 76
16, 360374, Note_on_c, 12, 64, 0
16, 360390, Note_on_c, 12, 64, 76
16, 360464, Note_on_c, 12, 64, 0
16, 360480, Note_on_c, 12, 64, 76
16, 360839, Note_on_c, 12, 64, 0
16, 361110, Note_on_c, 12, 62, 76
16, 361184, Note_on_c, 12, 62, 0
16, 361200, Note_on_c, 12, 62, 76
16, 361454, Note_on_c, 12, 62, 0
16, 361470, Note_on_c, 12, 62, 76
16, 361544, Note_on_c, 12, 62, 0
16, 361560, Note_on_c, 12, 62, 76
16, 361679, Note_on_c, 12, 62, 0
16, 361920, Note_on_c, 12, 64, 76
16, 362039, Note_on_c, 12, 64, 0
16, 362280, Note_on_c, 12, 66, 76
16, 362399, Note_on_c, 12, 66, 0
16, 362640, Note_on_c, 12, 59, 76
16, 362759, Note_on_c, 12, 59, 0
16, 363000, Note_on_c, 12, 71, 76
16, 363119, Note_on_c, 12, 71, 0
16, 363360, Note_on_c, 12, 68, 76
16, 363479, Note_on_c, 12, 68, 0
16, 363720, Note_on_c, 12, 64, 76
16, 363839, Note_on_c, 12, 64, 0
16, 364080, Note_on_c, 12, 64, 76
16, 364199, Note_on_c, 12, 64, 0
16, 364440, Note_on_c, 12, 64, 76
16, 364559, Note_on_c, 12, 64, 0
16, 364800, Note_on_c, 12, 62, 76
16, 364919, Note_on_c, 12, 62, 0
16, 365160, Note_on_c, 12, 69, 76
16, 365279, Note_on_c, 12, 69, 0
16, 365520, Note_on_c, 12, 66, 76
16, 365639, Note_on_c, 12, 66, 0
16, 365880, Note_on_c, 12, 62, 76
16, 365999, Note_on_c, 12, 62, 0
16, 366510, Note_on_c, 12, 67, 76
16, 366584, Note_on_c, 12, 67, 0
16, 366600, Note_on_c, 12, 69, 76
16, 366854, Note_on_c, 12, 69, 0
16, 366870, Note_on_c, 12, 64, 76
16, 366944, Note_on_c, 12, 64, 0
16, 366960, Note_on_c, 12, 69, 76
16, 367079, Note_on_c, 12, 69, 0
16, 367590, Note_on_c, 12, 69, 76
16, 367664, Note_on_c, 12, 69, 0
16, 367680, Note_on_c, 12, 71, 76
16, 367934, Note_on_c, 12, 71, 0
16, 367950, Note_on_c, 12, 66, 76
16, 368024, Note_on_c, 12, 66, 0
16, 368040, Note_on_c, 12, 71, 76
16, 368159, Note_on_c, 12, 71, 0
16, 368670, Note_on_c, 12, 64, 76
16, 368744, Note_on_c, 12, 64, 0
16, 368760, Note_on_c, 12, 66, 76
16, 369014, Note_on_c, 12, 66, 0
16, 369030, Note_on_c, 12, 66, 76
16, 369104, Note_on_c, 12, 66, 0
16, 369120, Note_on_c, 12, 59, 76
16, 369374, Note_on_c, 12, 59, 0
16, 369390, Note_on_c, 12, 71, 76
16, 369464, Note_on_c, 12, 71, 0
16, 369480, Note_on_c, 12, 71, 76
16, 369734, Note_on_c, 12, 71, 0
16, 369750, Note_on_c, 12, 71, 76
16, 369824, Note_on_c, 12, 71, 0
16, 369840, Note_on_c, 12, 71, 76
16, 370094, Note_on_c, 12, 71, 0
16, 370110, Note_on_c, 12, 71, 76
16, 370184, Note_on_c, 12, 71, 0
16, 370200, Note_on_c, 12, 69, 76
16, 370454, Note_on_c, 12, 69, 0
16, 370470, Note_on_c, 12, 69, 76
16, 370544, Note_on_c, 12, 69, 0
16, 370560, Note_on_c, 12, 69, 76
16, 370814, Note_on_c, 12, 69, 0
16, 370830, Note_on_c, 12, 69, 76
16, 370904, Note_on_c, 12, 69, 0
16, 370920, Note_on_c, 12, 69, 76
16, 371174, Note_on_c, 12, 69, 0
16, 371190, Note_on_c, 12, 69, 76
16, 371264, Note_on_c, 12, 69, 0
16, 371280, Note_on_c, 12, 69, 76
16, 371534, Note_on_c, 12, 69, 0
16, 371550, Note_on_c, 12, 69, 76
16, 371624, Note_on_c, 12, 69, 0
16, 371640, Note_on_c, 12, 69, 76
16, 371894, Note_on_c, 12, 69, 0
16, 371910, Note_on_c, 12, 67, 76
16, 371984, Note_on_c, 12, 67, 0
16, 372000, Note_on_c, 12, 64, 76
16, 372254, Note_on_c, 12, 64, 0
16, 372270, Note_on_c, 12, 64, 76
16, 372344, Note_on_c, 12, 64, 0
16, 372360, Note_on_c, 12, 66, 76
16, 372479, Note_on_c, 12, 66, 0
16, 372720, Note_on_c, 12, 69, 76
16, 372839, Note_on_c, 12, 69, 0
16, 373080, Note_on_c, 12, 73, 76
16, 373199, Note_on_c, 12, 73, 0
16, 373440, Note_on_c, 12, 69, 76
16, 373559, Note_on_c, 12, 69, 0
16, 373800, Note_on_c, 12, 69, 76
16, 373919, Note_on_c, 12, 69, 0
16, 374160, Note_on_c, 12, 73, 76
16, 374279, Note_on_c, 12, 73, 0
16, 374520, Note_on_c, 12, 66, 76
16, 374759, Note_on_c, 12, 66, 0
16, 375180, Note_on_c, 12, 69, 76
16, 375233, Note_on_c, 12, 69, 0
16, 375240, Note_on_c, 12, 69, 76
16, 375413, Note_on_c, 12, 69, 0
16, 375420, Note_on_c, 12, 66, 76
16, 375473, Note_on_c, 12, 66, 0
16, 375480, Note_on_c, 12, 62, 76
16, 375959, Note_on_c, 12, 62, 0
16, 376140, Note_on_c, 12, 74, 76
16, 376193, Note_on_c, 12, 74, 0
16, 376200, Note_on_c, 12, 74, 76
16, 376373, Note_on_c, 12, 74, 0
16, 376380, Note_on_c, 12, 69, 76
16, 376433, Note_on_c, 12, 69, 0
16, 376440, Note_on_c, 12, 66, 76
16, 376919, Note_on_c, 12, 66, 0
16, 377100, Note_on_c, 12, 66, 76
16, 377153, Note_on_c, 12, 66, 0
16, 377160, Note_on_c, 12, 63, 76
16, 377333, Note_on_c, 12, 63, 0
16, 377340, Note_on_c, 12, 71, 76
16, 377393, Note_on_c, 12, 71, 0
16, 377400, Note_on_c, 12, 71, 76
16, 378359, Note_on_c, 12, 71, 0
16, 378480, Note_on_c, 12, 61, 76
16, 378533, Note_on_c, 12, 61, 0
16, 378540, Note_on_c, 12, 62, 76
16, 378593, Note_on_c, 12, 62, 0
16, 378600, Note_on_c, 12, 64, 76
16, 378653, Note_on_c, 12, 64, 0
16, 378660, Note_on_c, 12, 66, 76
16, 378713, Note_on_c, 12, 66, 0
16, 378720, Note_on_c, 12, 67, 76
16, 378773, Note_on_c, 12, 67, 0
16, 378780, Note_on_c, 12, 64, 76
16, 378833, Note_on_c, 12, 64, 0
16, 378840, Note_on_c, 12, 69, 76
16, 378893, Note_on_c, 12, 69, 0
16, 378900, Note_on_c, 12, 71, 76
16, 378953, Note_on_c, 12, 71, 0
16, 378960, Note_on_c, 12, 73, 76
16, 379013, Note_on_c, 12, 73, 0
16, 379020, Note_on_c, 12, 74, 76
16, 379073, Note_on_c, 12, 74, 0
16, 379080, Note_on_c, 12, 76, 76
16, 379133, Note_on_c, 12, 76, 0
16, 379140, Note_on_c, 12, 74, 76
16, 379193, Note_on_c, 12, 74, 0
16, 379200, Note_on_c, 12, 76, 76
16, 379253, Note_on_c, 12, 76, 0
16, 379260, Note_on_c, 12, 73, 76
16, 379313, Note_on_c, 12, 73, 0
16, 379320, Note_on_c, 12, 69, 76
16, 379799, Note_on_c, 12, 69, 0
16, 379980, Note_on_c, 12, 66, 76
16, 380033, Note_on_c, 12, 66, 0
16, 380040, Note_on_c, 12, 66, 76
16, 380213, Note_on_c, 12, 66, 0
16, 380220, Note_on_c, 12, 62, 76
16, 380273, Note_on_c, 12, 62, 0
16, 380280, Note_on_c, 12, 67, 76
16, 380759, Note_on_c, 12, 67, 0
16, 380940, Note_on_c, 12, 67, 76
16, 380993, Note_on_c, 12, 67, 0
16, 381000, Note_on_c, 12, 67, 76
16, 381173, Note_on_c, 12, 67, 0
16, 381180, Note_on_c, 12, 71, 76
16, 381233, Note_on_c, 12, 71, 0
16, 381240, Note_on_c, 12, 64, 76
16, 381719, Note_on_c, 12, 64, 0
16, 381900, Note_on_c, 12, 69, 76
16, 381953, Note_on_c, 12, 69, 0
16, 381960, Note_on_c, 12, 74, 76
16, 382133, Note_on_c, 12, 74, 0
16, 382140, Note_on_c, 12, 69, 76
16, 382193, Note_on_c, 12, 69, 0
16, 382200, Note_on_c, 12, 71, 76
16, 382549, Note_on_c, 12, 71, 0
16, 382560, Note_on_c, 12, 71, 76
16, 382669, Note_on_c, 12, 71, 0
16, 382680, Note_on_c, 12, 69, 76
16, 382909, Note_on_c, 12, 69, 0
16, 382920, Note_on_c, 12, 69, 76
16, 383149, Note_on_c, 12, 69, 0
16, 383160, Note_on_c, 12, 69, 76
16, 383333, Note_on_c, 12, 69, 0
16, 383340, Note_on_c, 12, 66, 76
16, 383393, Note_on_c, 12, 66, 0
16, 383400, Note_on_c, 12, 66, 76
16, 383573, Note_on_c, 12, 66, 0
16, 383580, Note_on_c, 12, 62, 76
16, 383633, Note_on_c, 12, 62, 0
16, 383640, Note_on_c, 12, 62, 76
16, 384119, Note_on_c, 12, 62, 0
16, 384300, Note_on_c, 12, 64, 76
16, 384353, Note_on_c, 12, 64, 0
16, 384360, Note_on_c, 12, 64, 76
16, 384533, Note_on_c, 12, 64, 0
16, 384540, Note_on_c, 12, 67, 76
16, 384593, Note_on_c, 12, 67, 0
16, 384600, Note_on_c, 12, 61, 76
16, 384829, Note_on_c, 12, 61, 0
16, 384840, Note_on_c, 12, 66, 76
16, 385069, Note_on_c, 12, 66, 0
16, 385080, Note_on_c, 12, 66, 76
16, 385559, Note_on_c, 12, 66, 0
16, 385740, Note_on_c, 12, 62, 76
16, 385793, Note_on_c, 12, 62, 0
16, 385800, Note_on_c, 12, 59, 76
16, 385973, Note_on_c, 12, 59, 0
16, 385980, Note_on_c, 12, 59, 76
16, 386033, Note_on_c, 12, 59, 0
16, 386040, Note_on_c, 12, 57, 76
16, 386389, Note_on_c, 12, 57, 0
16, 386400, Note_on_c, 12, 57, 76
16, 386509, Note_on_c, 12, 57, 0
16, 386520, Note_on_c, 12, 62, 76
16, 386693, Note_on_c, 12, 62, 0
16, 386700, Note_on_c, 12, 67, 76
16, 386753, Note_on_c, 12, 67, 0
16, 386760, Note_on_c, 12, 67, 76
16, 386933, Note_on_c, 12, 67, 0
16, 386940, Note_on_c, 12, 69, 76
16, 386993, Note_on_c, 12, 69, 0
16, 387000, Note_on_c, 12, 69, 76
16, 387173, Note_on_c, 12, 69, 0
16, 387180, Note_on_c, 12, 61, 76
16, 387233, Note_on_c, 12, 61, 0
16, 387240, Note_on_c, 12, 61, 76
16, 387413, Note_on_c, 12, 61, 0
16, 387420, Note_on_c, 12, 57, 76
16, 387473, Note_on_c, 12, 57, 0
16, 387480, Note_on_c, 12, 57, 76
16, 387959, Note_on_c, 12, 57, 0
16, 388140, Note_on_c, 12, 57, 76
16, 388193, Note_on_c, 12, 57, 0
16, 388200, Note_on_c, 12, 62, 76
16, 388373, Note_on_c, 12, 62, 0
16, 388380, Note_on_c, 12, 57, 76
16, 388433, Note_on_c, 12, 57, 0
16, 388440, Note_on_c, 12, 66, 76
16, 388919, Note_on_c, 12, 66, 0
16, 389100, Note_on_c, 12, 67, 76
16, 389153, Note_on_c, 12, 67, 0
16, 389160, Note_on_c, 12, 61, 76
16, 389333, Note_on_c, 12, 61, 0
16, 389340, Note_on_c, 12, 64, 76
16, 389393, Note_on_c, 12, 64, 0
16, 389400, Note_on_c, 12, 67, 76
16, 389879, Note_on_c, 12, 67, 0
16, 390060, Note_on_c, 12, 61, 76
16, 390113, Note_on_c, 12, 61, 0
16, 390120, Note_on_c, 12, 62, 76
16, 390359, Note_on_c, 12, 62, 0
16, 390540, Note_on_c, 12, 62, 76
16, 390593, Note_on_c, 12, 62, 0
16, 390600, Note_on_c, 12, 61, 76
16, 390839, Note_on_c, 12, 61, 0
16, 391020, Note_on_c, 12, 57, 76
16, 391073, Note_on_c, 12, 57, 0
16, 391080, Note_on_c, 12, 57, 76
16, 391253, Note_on_c, 12, 57, 0
16, 391260, Note_on_c, 12, 62, 76
16, 391313, Note_on_c, 12, 62, 0
16, 391320, Note_on_c, 12, 66, 76
16, 391973, Note_on_c, 12, 66, 0
16, 391980, Note_on_c, 12, 62, 76
16, 392033, Note_on_c, 12, 62, 0
16, 392040, Note_on_c, 12, 62, 76
16, 392213, Note_on_c, 12, 62, 0
16, 392220, Note_on_c, 12, 61, 76
16, 392273, Note_on_c, 12, 61, 0
16, 392280, Note_on_c, 12, 59, 76
16, 392629, Note_on_c, 12, 59, 0
16, 392640, Note_on_c, 12, 67, 76
16, 392749, Note_on_c, 12, 67, 0
16, 392760, Note_on_c, 12, 69, 76
16, 392933, Note_on_c, 12, 69, 0
16, 392940, Note_on_c, 12, 69, 76
16, 392993, Note_on_c, 12, 69, 0
16, 393000, Note_on_c, 12, 69, 76
16, 393173, Note_on_c, 12, 69, 0
16, 393180, Note_on_c, 12, 67, 76
16, 393233, Note_on_c, 12, 67, 0
16, 393240, Note_on_c, 12, 64, 76
16, 393589, Note_on_c, 12, 64, 0
16, 393600, Note_on_c, 12, 66, 76
16, 393709, Note_on_c, 12, 66, 0
16, 393720, Note_on_c, 12, 66, 76
16, 394439, Note_on_c, 12, 66, 0
16, 394439, End_track
17, 0, Start_track
17, 0, Title_t, "Cello"
17, 0, MIDI_port, 0
17, 0, Program_c, 13, 48
17, 0, Control_c, 13, 10, 90
17, 0, Control_c, 13, 11, 127
17, 0, Control_c, 13, 7, 96
17, 180, Note_on_c, 13, 50, 76
17, 233, Note_on_c, 13, 50, 0
17, 240, Note_on_c, 13, 50, 76
17, 719, Note_on_c, 13, 50, 0
17, 720, Note_on_c, 13, 50, 76
17, 1133, Note_on_c, 13, 50, 0
17, 1140, Note_on_c, 13, 50, 76
17, 1193, Note_on_c, 13, 50, 0
17, 1200, Note_on_c, 13, 50, 76
17, 1679, Note_on_c, 13, 50, 0
17, 1680, Note_on_c, 13, 50, 76
17, 2093, Note_on_c, 13, 50, 0
17, 2100, Note_on_c, 13, 50, 76
17, 2153, Note_on_c, 13, 50, 0
17, 2160, Note_on_c, 13, 50, 76
17, 2639, Note_on_c, 13, 50, 0
17, 2640, Note_on_c, 13, 50, 76
17, 3053, Note_on_c, 13, 50, 0
17, 3060, Note_on_c, 13, 50, 76
17, 3113, Note_on_c, 13, 50, 0
17, 3120, Note_on_c, 13, 50, 76
17, 3413, Note_on_c, 13, 50, 0
17, 3420, Note_on_c, 13, 49, 76
17, 3473, Note_on_c, 13, 49, 0
17, 3480, Note_on_c, 13, 50, 76
17, 3533, Note_on_c, 13, 50, 0
17, 3540, Note_on_c, 13, 47, 76
17, 3593, Note_on_c, 13, 47, 0
17, 3600, Note_on_c, 13, 49, 76
17, 3829, Note_on_c, 13, 49, 0
17, 3840, Note_on_c, 13, 45, 76
17, 4069, Note_on_c, 13, 45, 0
17, 4080, Note_on_c, 13, 50, 76
17, 4373, Note_on_c, 13, 50, 0
17, 4380, Note_on_c, 13, 49, 76
17, 4433, Note_on_c, 13, 49, 0
17, 4440, Note_on_c, 13, 50, 76
17, 4493, Note_on_c, 13, 50, 0
17, 4500, Note_on_c, 13, 52, 76
17, 4553, Note_on_c, 13, 52, 0
17, 4560, Note_on_c, 13, 54, 76
17, 4613, Note_on_c, 13, 54, 0
17, 4620, Note_on_c, 13, 55, 76
17, 4673, Note_on_c, 13, 55, 0
17, 4680, Note_on_c, 13, 57, 76
17, 4733, Note_on_c, 13, 57, 0
17, 4740, Note_on_c, 13, 59, 76
17, 4793, Note_on_c, 13, 59, 0
17, 4800, Note_on_c, 13, 60, 76
17, 4853, Note_on_c, 13, 60, 0
17, 4860, Note_on_c, 13, 59, 76
17, 4913, Note_on_c, 13, 59, 0
17, 4920, Note_on_c, 13, 60, 76
17, 4973, Note_on_c, 13, 60, 0
17, 4980, Note_on_c, 13, 57, 76
17, 5033, Note_on_c, 13, 57, 0
17, 5040, Note_on_c, 13, 51, 76
17, 5333, Note_on_c, 13, 51, 0
17, 5340, Note_on_c, 13, 49, 76
17, 5393, Note_on_c, 13, 49, 0
17, 5400, Note_on_c, 13, 51, 76
17, 5453, Note_on_c, 13, 51, 0
17, 5460, Note_on_c, 13, 47, 76
17, 5513, Note_on_c, 13, 47, 0
17, 5520, Note_on_c, 13, 59, 76
17, 5749, Note_on_c, 13, 59, 0
17, 5760, Note_on_c, 13, 47, 76
17, 5989, Note_on_c, 13, 47, 0
17, 6000, Note_on_c, 13, 52, 76
17, 6479, Note_on_c, 13, 52, 0
17, 6480, Note_on_c, 13, 52, 76
17, 6653, Note_on_c, 13, 52, 0
17, 6660, Note_on_c, 13, 52, 76
17, 6713, Note_on_c, 13, 52, 0
17, 6720, Note_on_c, 13, 54, 76
17, 6893, Note_on_c, 13, 54, 0
17, 6900, Note_on_c, 13, 50, 76
17, 6953, Note_on_c, 13, 50, 0
17, 6960, Note_on_c, 13, 55, 76
17, 7133, Note_on_c, 13, 55, 0
17, 7140, Note_on_c, 13, 54, 76
17, 7193, Note_on_c, 13, 54, 0
17, 7200, Note_on_c, 13, 55, 76
17, 7373, Note_on_c, 13, 55, 0
17, 7380, Note_on_c, 13, 52, 76
17, 7433, Note_on_c, 13, 52, 0
17, 7440, Note_on_c, 13, 54, 76
17, 7613, Note_on_c, 13, 54, 0
17, 7620, Note_on_c, 13, 52, 76
17, 7673, Note_on_c, 13, 52, 0
17, 7680, Note_on_c, 13, 54, 76
17, 7853, Note_on_c, 13, 54, 0
17, 7860, Note_on_c, 13, 55, 76
17, 7913, Note_on_c, 13, 55, 0
17, 7920, Note_on_c, 13, 57, 76
17, 8399, Note_on_c, 13, 57, 0
17, 8400, Note_on_c, 13, 57, 76
17, 8813, Note_on_c, 13, 57, 0
17, 8820, Note_on_c, 13, 57, 76
17, 8873, Note_on_c, 13, 57, 0
17, 8880, Note_on_c, 13, 57, 76
17, 9359, Note_on_c, 13, 57, 0
17, 9360, Note_on_c, 13, 57, 76
17, 9773, Note_on_c, 13, 57, 0
17, 9780, Note_on_c, 13, 57, 76
17, 9833, Note_on_c, 13, 57, 0
17, 9840, Note_on_c, 13, 57, 76
17, 10319, Note_on_c, 13, 57, 0
17, 10320, Note_on_c, 13, 57, 76
17, 10733, Note_on_c, 13, 57, 0
17, 10740, Note_on_c, 13, 57, 76
17, 10793, Note_on_c, 13, 57, 0
17, 10800, Note_on_c, 13, 57, 76
17, 11093, Note_on_c, 13, 57, 0
17, 11100, Note_on_c, 13, 56, 76
17, 11153, Note_on_c, 13, 56, 0
17, 11160, Note_on_c, 13, 57, 76
17, 11213, Note_on_c, 13, 57, 0
17, 11220, Note_on_c, 13, 54, 76
17, 11273, Note_on_c, 13, 54, 0
17, 11280, Note_on_c, 13, 56, 76
17, 11509, Note_on_c, 13, 56, 0
17, 11520, Note_on_c, 13, 52, 76
17, 11749, Note_on_c, 13, 52, 0
17, 11760, Note_on_c, 13, 57, 76
17, 12293, Note_on_c, 13, 57, 0
17, 12300, Note_on_c, 13, 57, 76
17, 12353, Note_on_c, 13, 57, 0
17, 12360, Note_on_c, 13, 59, 76
17, 12413, Note_on_c, 13, 59, 0
17, 12420, Note_on_c, 13, 61, 76
17, 12473, Note_on_c, 13, 61, 0
17, 12480, Note_on_c, 13, 62, 76
17, 12533, Note_on_c, 13, 62, 0
17, 12540, Note_on_c, 13, 61, 76
17, 12593, Note_on_c, 13, 61, 0
17, 12600, Note_on_c, 13, 62, 76
17, 12653, Note_on_c, 13, 62, 0
17, 12660, Note_on_c, 13, 59, 76
17, 12691, Note_on_c, 13, 59, 0
17, 12700, Note_on_c, 13, 57, 76
17, 12719, Note_on_c, 13, 57, 0
17, 12720, Note_on_c, 13, 56, 76
17, 13069, Note_on_c, 13, 56, 0
17, 13080, Note_on_c, 13, 54, 76
17, 13189, Note_on_c, 13, 54, 0
17, 13200, Note_on_c, 13, 53, 76
17, 13429, Note_on_c, 13, 53, 0
17, 13440, Note_on_c, 13, 49, 76
17, 13669, Note_on_c, 13, 49, 0
17, 13680, Note_on_c, 13, 54, 76
17, 14213, Note_on_c, 13, 54, 0
17, 14220, Note_on_c, 13, 52, 76
17, 14273, Note_on_c, 13, 52, 0
17, 14280, Note_on_c, 13, 54, 76
17, 14333, Note_on_c, 13, 54, 0
17, 14340, Note_on_c, 13, 56, 76
17, 14393, Note_on_c, 13, 56, 0
17, 14400, Note_on_c, 13, 57, 76
17, 14453, Note_on_c, 13, 57, 0
17, 14460, Note_on_c, 13, 56, 76
17, 14513, Note_on_c, 13, 56, 0
17, 14520, Note_on_c, 13, 57, 76
17, 14573, Note_on_c, 13, 57, 0
17, 14580, Note_on_c, 13, 54, 76
17, 14633, Note_on_c, 13, 54, 0
17, 14640, Note_on_c, 13, 56, 76
17, 14813, Note_on_c, 13, 56, 0
17, 14820, Note_on_c, 13, 52, 76
17, 14873, Note_on_c, 13, 52, 0
17, 14880, Note_on_c, 13, 57, 76
17, 15053, Note_on_c, 13, 57, 0
17, 15060, Note_on_c, 13, 59, 76
17, 15113, Note_on_c, 13, 59, 0
17, 15120, Note_on_c, 13, 61, 76
17, 15293, Note_on_c, 13, 61, 0
17, 15300, Note_on_c, 13, 62, 76
17, 15353, Note_on_c, 13, 62, 0
17, 15360, Note_on_c, 13, 59, 76
17, 15374, Note_on_c, 13, 59, 0
17, 15375, Note_on_c, 13, 61, 76
17, 15389, Note_on_c, 13, 61, 0
17, 15390, Note_on_c, 13, 59, 76
17, 15404, Note_on_c, 13, 59, 0
17, 15405, Note_on_c, 13, 61, 76
17, 15419, Note_on_c, 13, 61, 0
17, 15420, Note_on_c, 13, 59, 76
17, 15434, Note_on_c, 13, 59, 0
17, 15435, Note_on_c, 13, 61, 76
17, 15449, Note_on_c, 13, 61, 0
17, 15450, Note_on_c, 13, 59, 76
17, 15464, Note_on_c, 13, 59, 0
17, 15465, Note_on_c, 13, 61, 76
17, 15479, Note_on_c, 13, 61, 0
17, 15480, Note_on_c, 13, 59, 76
17, 15494, Note_on_c, 13, 59, 0
17, 15495, Note_on_c, 13, 61, 76
17, 15509, Note_on_c, 13, 61, 0
17, 15510, Note_on_c, 13, 57, 76
17, 15524, Note_on_c, 13, 57, 0
17, 15525, Note_on_c, 13, 59, 76
17, 15539, Note_on_c, 13, 59, 0
17, 15540, Note_on_c, 13, 57, 76
17, 15593, Note_on_c, 13, 57, 0
17, 15600, Note_on_c, 13, 52, 76
17, 16079, Note_on_c, 13, 52, 0
17, 16080, Note_on_c, 13, 52, 76
17, 16493, Note_on_c, 13, 52, 0
17, 16500, Note_on_c, 13, 52, 76
17, 16553, Note_on_c, 13, 52, 0
17, 16560, Note_on_c, 13, 52, 76
17, 17039, Note_on_c, 13, 52, 0
17, 17040, Note_on_c, 13, 52, 76
17, 17453, Note_on_c, 13, 52, 0
17, 17460, Note_on_c, 13, 52, 76
17, 17513, Note_on_c, 13, 52, 0
17, 17520, Note_on_c, 13, 52, 76
17, 17999, Note_on_c, 13, 52, 0
17, 18000, Note_on_c, 13, 52, 76
17, 18413, Note_on_c, 13, 52, 0
17, 18420, Note_on_c, 13, 52, 76
17, 18473, Note_on_c, 13, 52, 0
17, 18480, Note_on_c, 13, 52, 76
17, 18959, Note_on_c, 13, 52, 0
17, 18960, Note_on_c, 13, 52, 76
17, 19373, Note_on_c, 13, 52, 0
17, 19380, Note_on_c, 13, 52, 76
17, 19433, Note_on_c, 13, 52, 0
17, 19440, Note_on_c, 13, 52, 76
17, 19973, Note_on_c, 13, 52, 0
17, 19980, Note_on_c, 13, 54, 76
17, 20033, Note_on_c, 13, 54, 0
17, 20040, Note_on_c, 13, 52, 76
17, 20093, Note_on_c, 13, 52, 0
17, 20100, Note_on_c, 13, 50, 76
17, 20153, Note_on_c, 13, 50, 0
17, 20160, Note_on_c, 13, 49, 76
17, 20213, Note_on_c, 13, 49, 0
17, 20220, Note_on_c, 13, 47, 76
17, 20273, Note_on_c, 13, 47, 0
17, 20280, Note_on_c, 13, 49, 76
17, 20333, Note_on_c, 13, 49, 0
17, 20340, Note_on_c, 13, 45, 76
17, 20393, Note_on_c, 13, 45, 0
17, 20400, Note_on_c, 13, 54, 76
17, 20933, Note_on_c, 13, 54, 0
17, 20940, Note_on_c, 13, 55, 76
17, 20993, Note_on_c, 13, 55, 0
17, 21000, Note_on_c, 13, 54, 76
17, 21053, Note_on_c, 13, 54, 0
17, 21060, Note_on_c, 13, 52, 76
17, 21113, Note_on_c, 13, 52, 0
17, 21120, Note_on_c, 13, 50, 76
17, 21173, Note_on_c, 13, 50, 0
17, 21180, Note_on_c, 13, 49, 76
17, 21233, Note_on_c, 13, 49, 0
17, 21240, Note_on_c, 13, 50, 76
17, 21293, Note_on_c, 13, 50, 0
17, 21300, Note_on_c, 13, 47, 76
17, 21353, Note_on_c, 13, 47, 0
17, 21360, Note_on_c, 13, 56, 76
17, 21533, Note_on_c, 13, 56, 0
17, 21540, Note_on_c, 13, 52, 76
17, 21593, Note_on_c, 13, 52, 0
17, 21600, Note_on_c, 13, 57, 76
17, 21773, Note_on_c, 13, 57, 0
17, 21780, Note_on_c, 13, 50, 76
17, 21833, Note_on_c, 13, 50, 0
17, 21840, Note_on_c, 13, 52, 76
17, 22069, Note_on_c, 13, 52, 0
17, 22080, Note_on_c, 13, 40, 76
17, 22309, Note_on_c, 13, 40, 0
17, 22320, Note_on_c, 13, 45, 76
17, 22613, Note_on_c, 13, 45, 0
17, 22620, Note_on_c, 13, 52, 76
17, 22673, Note_on_c, 13, 52, 0
17, 22680, Note_on_c, 13, 54, 76
17, 22733, Note_on_c, 13, 54, 0
17, 22740, Note_on_c, 13, 55, 76
17, 22793, Note_on_c, 13, 55, 0
17, 22800, Note_on_c, 13, 57, 76
17, 22853, Note_on_c, 13, 57, 0
17, 22860, Note_on_c, 13, 59, 76
17, 22913, Note_on_c, 13, 59, 0
17, 22920, Note_on_c, 13, 61, 76
17, 22973, Note_on_c, 13, 61, 0
17, 22980, Note_on_c, 13, 62, 76
17, 23033, Note_on_c, 13, 62, 0
17, 23040, Note_on_c, 13, 61, 76
17, 23093, Note_on_c, 13, 61, 0
17, 23100, Note_on_c, 13, 59, 76
17, 23153, Note_on_c, 13, 59, 0
17, 23160, Note_on_c, 13, 61, 76
17, 23213, Note_on_c, 13, 61, 0
17, 23220, Note_on_c, 13, 57, 76
17, 23273, Note_on_c, 13, 57, 0
17, 23280, Note_on_c, 13, 50, 76
17, 23759, Note_on_c, 13, 50, 0
17, 23760, Note_on_c, 13, 50, 76
17, 24173, Note_on_c, 13, 50, 0
17, 24180, Note_on_c, 13, 50, 76
17, 24233, Note_on_c, 13, 50, 0
17, 24240, Note_on_c, 13, 50, 76
17, 24719, Note_on_c, 13, 50, 0
17, 24720, Note_on_c, 13, 50, 76
17, 25133, Note_on_c, 13, 50, 0
17, 25140, Note_on_c, 13, 50, 76
17, 25193, Note_on_c, 13, 50, 0
17, 25200, Note_on_c, 13, 50, 76
17, 25679, Note_on_c, 13, 50, 0
17, 25680, Note_on_c, 13, 50, 76
17, 26093, Note_on_c, 13, 50, 0
17, 26100, Note_on_c, 13, 50, 76
17, 26153, Note_on_c, 13, 50, 0
17, 26160, Note_on_c, 13, 50, 76
17, 26453, Note_on_c, 13, 50, 0
17, 26460, Note_on_c, 13, 49, 76
17, 26513, Note_on_c, 13, 49, 0
17, 26520, Note_on_c, 13, 50, 76
17, 26573, Note_on_c, 13, 50, 0
17, 26580, Note_on_c, 13, 47, 76
17, 26633, Note_on_c, 13, 47, 0
17, 26640, Note_on_c, 13, 49, 76
17, 26869, Note_on_c, 13, 49, 0
17, 26880, Note_on_c, 13, 45, 76
17, 27109, Note_on_c, 13, 45, 0
17, 27120, Note_on_c, 13, 50, 76
17, 27413, Note_on_c, 13, 50, 0
17, 27420, Note_on_c, 13, 49, 76
17, 27473, Note_on_c, 13, 49, 0
17, 27480, Note_on_c, 13, 50, 76
17, 27533, Note_on_c, 13, 50, 0
17, 27540, Note_on_c, 13, 52, 76
17, 27593, Note_on_c, 13, 52, 0
17, 27600, Note_on_c, 13, 54, 76
17, 27653, Note_on_c, 13, 54, 0
17, 27660, Note_on_c, 13, 55, 76
17, 27713, Note_on_c, 13, 55, 0
17, 27720, Note_on_c, 13, 57, 76
17, 27773, Note_on_c, 13, 57, 0
17, 27780, Note_on_c, 13, 59, 76
17, 27833, Note_on_c, 13, 59, 0
17, 27840, Note_on_c, 13, 60, 76
17, 27893, Note_on_c, 13, 60, 0
17, 27900, Note_on_c, 13, 59, 76
17, 27953, Note_on_c, 13, 59, 0
17, 27960, Note_on_c, 13, 60, 76
17, 28013, Note_on_c, 13, 60, 0
17, 28020, Note_on_c, 13, 57, 76
17, 28073, Note_on_c, 13, 57, 0
17, 28080, Note_on_c, 13, 51, 76
17, 28373, Note_on_c, 13, 51, 0
17, 28380, Note_on_c, 13, 49, 76
17, 28433, Note_on_c, 13, 49, 0
17, 28440, Note_on_c, 13, 51, 76
17, 28493, Note_on_c, 13, 51, 0
17, 28500, Note_on_c, 13, 47, 76
17, 28553, Note_on_c, 13, 47, 0
17, 28560, Note_on_c, 13, 59, 76
17, 28789, Note_on_c, 13, 59, 0
17, 28800, Note_on_c, 13, 47, 76
17, 29029, Note_on_c, 13, 47, 0
17, 29040, Note_on_c, 13, 52, 76
17, 29519, Note_on_c, 13, 52, 0
17, 29520, Note_on_c, 13, 52, 76
17, 29693, Note_on_c, 13, 52, 0
17, 29700, Note_on_c, 13, 52, 76
17, 29753, Note_on_c, 13, 52, 0
17, 29760, Note_on_c, 13, 54, 76
17, 29933, Note_on_c, 13, 54, 0
17, 29940, Note_on_c, 13, 50, 76
17, 29993, Note_on_c, 13, 50, 0
17, 30000, Note_on_c, 13, 55, 76
17, 30173, Note_on_c, 13, 55, 0
17, 30180, Note_on_c, 13, 54, 76
17, 30233, Note_on_c, 13, 54, 0
17, 30240, Note_on_c, 13, 55, 76
17, 30413, Note_on_c, 13, 55, 0
17, 30420, Note_on_c, 13, 52, 76
17, 30473, Note_on_c, 13, 52, 0
17, 30480, Note_on_c, 13, 54, 76
17, 30653, Note_on_c, 13, 54, 0
17, 30660, Note_on_c, 13, 52, 76
17, 30713, Note_on_c, 13, 52, 0
17, 30720, Note_on_c, 13, 54, 76
17, 30893, Note_on_c, 13, 54, 0
17, 30900, Note_on_c, 13, 55, 76
17, 30953, Note_on_c, 13, 55, 0
17, 30960, Note_on_c, 13, 57, 76
17, 31439, Note_on_c, 13, 57, 0
17, 31440, Note_on_c, 13, 57, 76
17, 31853, Note_on_c, 13, 57, 0
17, 31860, Note_on_c, 13, 57, 76
17, 31913, Note_on_c, 13, 57, 0
17, 31920, Note_on_c, 13, 57, 76
17, 32399, Note_on_c, 13, 57, 0
17, 32400, Note_on_c, 13, 57, 76
17, 32813, Note_on_c, 13, 57, 0
17, 32820, Note_on_c, 13, 57, 76
17, 32873, Note_on_c, 13, 57, 0
17, 32880, Note_on_c, 13, 57, 76
17, 33359, Note_on_c, 13, 57, 0
17, 33360, Note_on_c, 13, 57, 76
17, 33773, Note_on_c, 13, 57, 0
17, 33780, Note_on_c, 13, 57, 76
17, 33833, Note_on_c, 13, 57, 0
17, 33840, Note_on_c, 13, 57, 76
17, 34133, Note_on_c, 13, 57, 0
17, 34140, Note_on_c, 13, 56, 76
17, 34193, Note_on_c, 13, 56, 0
17, 34200, Note_on_c, 13, 57, 76
17, 34253, Note_on_c, 13, 57, 0
17, 34260, Note_on_c, 13, 54, 76
17, 34313, Note_on_c, 13, 54, 0
17, 34320, Note_on_c, 13, 56, 76
17, 34549, Note_on_c, 13, 56, 0
17, 34560, Note_on_c, 13, 52, 76
17, 34789, Note_on_c, 13, 52, 0
17, 34800, Note_on_c, 13, 57, 76
17, 35333, Note_on_c, 13, 57, 0
17, 35340, Note_on_c, 13, 57, 76
17, 35393, Note_on_c, 13, 57, 0
17, 35400, Note_on_c, 13, 59, 76
17, 35453, Note_on_c, 13, 59, 0
17, 35460, Note_on_c, 13, 61, 76
17, 35513, Note_on_c, 13, 61, 0
17, 35520, Note_on_c, 13, 62, 76
17, 35573, Note_on_c, 13, 62, 0
17, 35580, Note_on_c, 13, 61, 76
17, 35633, Note_on_c, 13, 61, 0
17, 35640, Note_on_c, 13, 62, 76
17, 35693, Note_on_c, 13, 62, 0
17, 35700, Note_on_c, 13, 59, 76
17, 35731, Note_on_c, 13, 59, 0
17, 35740, Note_on_c, 13, 57, 76
17, 35759, Note_on_c, 13, 57, 0
17, 35760, Note_on_c, 13, 56, 76
17, 36109, Note_on_c, 13, 56, 0
17, 36120, Note_on_c, 13, 54, 76
17, 36229, Note_on_c, 13, 54, 0
17, 36240, Note_on_c, 13, 53, 76
17, 36469, Note_on_c, 13, 53, 0
17, 36480, Note_on_c, 13, 49, 76
17, 36709, Note_on_c, 13, 49, 0
17, 36720, Note_on_c, 13, 54, 76
17, 37253, Note_on_c, 13, 54, 0
17, 37260, Note_on_c, 13, 52, 76
17, 37313, Note_on_c, 13, 52, 0
17, 37320, Note_on_c, 13, 54, 76
17, 37373, Note_on_c, 13, 54, 0
17, 37380, Note_on_c, 13, 56, 76
17, 37433, Note_on_c, 13, 56, 0
17, 37440, Note_on_c, 13, 57, 76
17, 37493, Note_on_c, 13, 57, 0
17, 37500, Note_on_c, 13, 56, 76
17, 37553, Note_on_c, 13, 56, 0
17, 37560, Note_on_c, 13, 57, 76
17, 37613, Note_on_c, 13, 57, 0
17, 37620, Note_on_c, 13, 54, 76
17, 37673, Note_on_c, 13, 54, 0
17, 37680, Note_on_c, 13, 56, 76
17, 37853, Note_on_c, 13, 56, 0
17, 37860, Note_on_c, 13, 52, 76
17, 37913, Note_on_c, 13, 52, 0
17, 37920, Note_on_c, 13, 57, 76
17, 38093, Note_on_c, 13, 57, 0
17, 38100, Note_on_c, 13, 59, 76
17, 38153, Note_on_c, 13, 59, 0
17, 38160, Note_on_c, 13, 61, 76
17, 38333, Note_on_c, 13, 61, 0
17, 38340, Note_on_c, 13, 62, 76
17, 38393, Note_on_c, 13, 62, 0
17, 38400, Note_on_c, 13, 59, 76
17, 38414, Note_on_c, 13, 59, 0
17, 38415, Note_on_c, 13, 61, 76
17, 38429, Note_on_c, 13, 61, 0
17, 38430, Note_on_c, 13, 59, 76
17, 38444, Note_on_c, 13, 59, 0
17, 38445, Note_on_c, 13, 61, 76
17, 38459, Note_on_c, 13, 61, 0
17, 38460, Note_on_c, 13, 59, 76
17, 38474, Note_on_c, 13, 59, 0
17, 38475, Note_on_c, 13, 61, 76
17, 38489, Note_on_c, 13, 61, 0
17, 38490, Note_on_c, 13, 59, 76
17, 38504, Note_on_c, 13, 59, 0
17, 38505, Note_on_c, 13, 61, 76
17, 38519, Note_on_c, 13, 61, 0
17, 38520, Note_on_c, 13, 59, 76
17, 38534, Note_on_c, 13, 59, 0
17, 38535, Note_on_c, 13, 61, 76
17, 38549, Note_on_c, 13, 61, 0
17, 38550, Note_on_c, 13, 57, 76
17, 38564, Note_on_c, 13, 57, 0
17, 38565, Note_on_c, 13, 59, 76
17, 38579, Note_on_c, 13, 59, 0
17, 38580, Note_on_c, 13, 57, 76
17, 38633, Note_on_c, 13, 57, 0
17, 38640, Note_on_c, 13, 52, 76
17, 39119, Note_on_c, 13, 52, 0
17, 39120, Note_on_c, 13, 52, 76
17, 39533, Note_on_c, 13, 52, 0
17, 39540, Note_on_c, 13, 52, 76
17, 39593, Note_on_c, 13, 52, 0
17, 39600, Note_on_c, 13, 52, 76
17, 40079, Note_on_c, 13, 52, 0
17, 40080, Note_on_c, 13, 52, 76
17, 40493, Note_on_c, 13, 52, 0
17, 40500, Note_on_c, 13, 52, 76
17, 40553, Note_on_c, 13, 52, 0
17, 40560, Note_on_c, 13, 52, 76
17, 41039, Note_on_c, 13, 52, 0
17, 41040, Note_on_c, 13, 52, 76
17, 41453, Note_on_c, 13, 52, 0
17, 41460, Note_on_c, 13, 52, 76
17, 41513, Note_on_c, 13, 52, 0
17, 41520, Note_on_c, 13, 52, 76
17, 41999, Note_on_c, 13, 52, 0
17, 42000, Note_on_c, 13, 52, 76
17, 42413, Note_on_c, 13, 52, 0
17, 42420, Note_on_c, 13, 52, 76
17, 42473, Note_on_c, 13, 52, 0
17, 42480, Note_on_c, 13, 52, 76
17, 43013, Note_on_c, 13, 52, 0
17, 43020, Note_on_c, 13, 54, 76
17, 43073, Note_on_c, 13, 54, 0
17, 43080, Note_on_c, 13, 52, 76
17, 43133, Note_on_c, 13, 52, 0
17, 43140, Note_on_c, 13, 50, 76
17, 43193, Note_on_c, 13, 50, 0
17, 43200, Note_on_c, 13, 49, 76
17, 43253, Note_on_c, 13, 49, 0
17, 43260, Note_on_c, 13, 47, 76
17, 43313, Note_on_c, 13, 47, 0
17, 43320, Note_on_c, 13, 49, 76
17, 43373, Note_on_c, 13, 49, 0
17, 43380, Note_on_c, 13, 45, 76
17, 43433, Note_on_c, 13, 45, 0
17, 43440, Note_on_c, 13, 54, 76
17, 43973, Note_on_c, 13, 54, 0
17, 43980, Note_on_c, 13, 55, 76
17, 44033, Note_on_c, 13, 55, 0
17, 44040, Note_on_c, 13, 54, 76
17, 44093, Note_on_c, 13, 54, 0
17, 44100, Note_on_c, 13, 52, 76
17, 44153, Note_on_c, 13, 52, 0
17, 44160, Note_on_c, 13, 50, 76
17, 44213, Note_on_c, 13, 50, 0
17, 44220, Note_on_c, 13, 49, 76
17, 44273, Note_on_c, 13, 49, 0
17, 44280, Note_on_c, 13, 50, 76
17, 44333, Note_on_c, 13, 50, 0
17, 44340, Note_on_c, 13, 47, 76
17, 44393, Note_on_c, 13, 47, 0
17, 44400, Note_on_c, 13, 56, 76
17, 44573, Note_on_c, 13, 56, 0
17, 44580, Note_on_c, 13, 52, 76
17, 44633, Note_on_c, 13, 52, 0
17, 44640, Note_on_c, 13, 57, 76
17, 44813, Note_on_c, 13, 57, 0
17, 44820, Note_on_c, 13, 50, 76
17, 44873, Note_on_c, 13, 50, 0
17, 44880, Note_on_c, 13, 52, 76
17, 45109, Note_on_c, 13, 52, 0
17, 45120, Note_on_c, 13, 40, 76
17, 45349, Note_on_c, 13, 40, 0
17, 45360, Note_on_c, 13, 45, 76
17, 45599, Note_on_c, 13, 45, 0
17, 51000, Note_on_c, 13, 62, 76
17, 51099, Note_on_c, 13, 62, 0
17, 51120, Note_on_c, 13, 62, 76
17, 51239, Note_on_c, 13, 62, 0
17, 51240, Note_on_c, 13, 64, 76
17, 51339, Note_on_c, 13, 64, 0
17, 51360, Note_on_c, 13, 60, 76
17, 51459, Note_on_c, 13, 60, 0
17, 51480, Note_on_c, 13, 60, 76
17, 51599, Note_on_c, 13, 60, 0
17, 51600, Note_on_c, 13, 62, 76
17, 51699, Note_on_c, 13, 62, 0
17, 51720, Note_on_c, 13, 59, 76
17, 51819, Note_on_c, 13, 59, 0
17, 51840, Note_on_c, 13, 59, 76
17, 51959, Note_on_c, 13, 59, 0
17, 51960, Note_on_c, 13, 61, 76
17, 52079, Note_on_c, 13, 61, 0
17, 52080, Note_on_c, 13, 62, 76
17, 52179, Note_on_c, 13, 62, 0
17, 52200, Note_on_c, 13, 64, 76
17, 52319, Note_on_c, 13, 64, 0
17, 52320, Note_on_c, 13, 66, 76
17, 52419, Note_on_c, 13, 66, 0
17, 52440, Note_on_c, 13, 62, 76
17, 52539, Note_on_c, 13, 62, 0
17, 52560, Note_on_c, 13, 62, 76
17, 52679, Note_on_c, 13, 62, 0
17, 52680, Note_on_c, 13, 64, 76
17, 52779, Note_on_c, 13, 64, 0
17, 52800, Note_on_c, 13, 61, 76
17, 52899, Note_on_c, 13, 61, 0
17, 52920, Note_on_c, 13, 61, 76
17, 53174, Note_on_c, 13, 61, 0
17, 53190, Note_on_c, 13, 61, 76
17, 53264, Note_on_c, 13, 61, 0
17, 53280, Note_on_c, 13, 61, 76
17, 53534, Note_on_c, 13, 61, 0
17, 53550, Note_on_c, 13, 61, 76
17, 53624, Note_on_c, 13, 61, 0
17, 53640, Note_on_c, 13, 61, 76
17, 53894, Note_on_c, 13, 61, 0
17, 53910, Note_on_c, 13, 61, 76
17, 53984, Note_on_c, 13, 61, 0
17, 54000, Note_on_c, 13, 62, 76
17, 54254, Note_on_c, 13, 62, 0
17, 54270, Note_on_c, 13, 57, 76
17, 54344, Note_on_c, 13, 57, 0
17, 54360, Note_on_c, 13, 57, 76
17, 54479, Note_on_c, 13, 57, 0
17, 54480, Note_on_c, 13, 59, 76
17, 54579, Note_on_c, 13, 59, 0
17, 54600, Note_on_c, 13, 55, 76
17, 54699, Note_on_c, 13, 55, 0
17, 54720, Note_on_c, 13, 55, 76
17, 54839, Note_on_c, 13, 55, 0
17, 54840, Note_on_c, 13, 57, 76
17, 54939, Note_on_c, 13, 57, 0
17, 54960, Note_on_c, 13, 54, 76
17, 55059, Note_on_c, 13, 54, 0
17, 55080, Note_on_c, 13, 54, 76
17, 55199, Note_on_c, 13, 54, 0
17, 55200, Note_on_c, 13, 56, 76
17, 55319, Note_on_c, 13, 56, 0
17, 55320, Note_on_c, 13, 57, 76
17, 55419, Note_on_c, 13, 57, 0
17, 55440, Note_on_c, 13, 59, 76
17, 55559, Note_on_c, 13, 59, 0
17, 55560, Note_on_c, 13, 61, 76
17, 55659, Note_on_c, 13, 61, 0
17, 55680, Note_on_c, 13, 57, 76
17, 55779, Note_on_c, 13, 57, 0
17, 55800, Note_on_c, 13, 57, 76
17, 55919, Note_on_c, 13, 57, 0
17, 55920, Note_on_c, 13, 59, 76
17, 56019, Note_on_c, 13, 59, 0
17, 56040, Note_on_c, 13, 56, 76
17, 56139, Note_on_c, 13, 56, 0
17, 56160, Note_on_c, 13, 56, 76
17, 56414, Note_on_c, 13, 56, 0
17, 56430, Note_on_c, 13, 56, 76
17, 56504, Note_on_c, 13, 56, 0
17, 56520, Note_on_c, 13, 56, 76
17, 56774, Note_on_c, 13, 56, 0
17, 56790, Note_on_c, 13, 56, 76
17, 56864, Note_on_c, 13, 56, 0
17, 56880, Note_on_c, 13, 56, 76
17, 57134, Note_on_c, 13, 56, 0
17, 57150, Note_on_c, 13, 56, 76
17, 57224, Note_on_c, 13, 56, 0
17, 57240, Note_on_c, 13, 57, 76
17, 57494, Note_on_c, 13, 57, 0
17, 57510, Note_on_c, 13, 55, 76
17, 57584, Note_on_c, 13, 55, 0
17, 57600, Note_on_c, 13, 54, 76
17, 57854, Note_on_c, 13, 54, 0
17, 57870, Note_on_c, 13, 54, 76
17, 57944, Note_on_c, 13, 54, 0
17, 57960, Note_on_c, 13, 54, 76
17, 58214, Note_on_c, 13, 54, 0
17, 58230, Note_on_c, 13, 54, 76
17, 58304, Note_on_c, 13, 54, 0
17, 58320, Note_on_c, 13, 55, 76
17, 58439, Note_on_c, 13, 55, 0
17, 58440, Note_on_c, 13, 52, 76
17, 58559, Note_on_c, 13, 52, 0
17, 58560, Note_on_c, 13, 54, 76
17, 58659, Note_on_c, 13, 54, 0
17, 58680, Note_on_c, 13, 55, 76
17, 58799, Note_on_c, 13, 55, 0
17, 58800, Note_on_c, 13, 57, 76
17, 58899, Note_on_c, 13, 57, 0
17, 58920, Note_on_c, 13, 54, 76
17, 59019, Note_on_c, 13, 54, 0
17, 59040, Note_on_c, 13, 54, 76
17, 59159, Note_on_c, 13, 54, 0
17, 59160, Note_on_c, 13, 55, 76
17, 59259, Note_on_c, 13, 55, 0
17, 59280, Note_on_c, 13, 52, 76
17, 59379, Note_on_c, 13, 52, 0
17, 59400, Note_on_c, 13, 52, 76
17, 59519, Note_on_c, 13, 52, 0
17, 59760, Note_on_c, 13, 40, 76
17, 59879, Note_on_c, 13, 40, 0
17, 60120, Note_on_c, 13, 52, 76
17, 60239, Note_on_c, 13, 52, 0
17, 60480, Note_on_c, 13, 57, 76
17, 60599, Note_on_c, 13, 57, 0
17, 60840, Note_on_c, 13, 45, 76
17, 60959, Note_on_c, 13, 45, 0
17, 61200, Note_on_c, 13, 57, 76
17, 61319, Note_on_c, 13, 57, 0
17, 61560, Note_on_c, 13, 62, 76
17, 61679, Note_on_c, 13, 62, 0
17, 61920, Note_on_c, 13, 38, 76
17, 62039, Note_on_c, 13, 38, 0
17, 62280, Note_on_c, 13, 50, 76
17, 62399, Note_on_c, 13, 50, 0
17, 62640, Note_on_c, 13, 55, 76
17, 62759, Note_on_c, 13, 55, 0
17, 63270, Note_on_c, 13, 52, 76
17, 63344, Note_on_c, 13, 52, 0
17, 63360, Note_on_c, 13, 54, 76
17, 63614, Note_on_c, 13, 54, 0
17, 63630, Note_on_c, 13, 55, 76
17, 63704, Note_on_c, 13, 55, 0
17, 63720, Note_on_c, 13, 57, 76
17, 63839, Note_on_c, 13, 57, 0
17, 64350, Note_on_c, 13, 54, 76
17, 64424, Note_on_c, 13, 54, 0
17, 64440, Note_on_c, 13, 55, 76
17, 64694, Note_on_c, 13, 55, 0
17, 64710, Note_on_c, 13, 57, 76
17, 64784, Note_on_c, 13, 57, 0
17, 64800, Note_on_c, 13, 59, 76
17, 64919, Note_on_c, 13, 59, 0
17, 65160, Note_on_c, 13, 55, 76
17, 65279, Note_on_c, 13, 55, 0
17, 65520, Note_on_c, 13, 54, 76
17, 65639, Note_on_c, 13, 54, 0
17, 65880, Note_on_c, 13, 52, 76
17, 65999, Note_on_c, 13, 52, 0
17, 66000, Note_on_c, 13, 55, 76
17, 66119, Note_on_c, 13, 55, 0
17, 66120, Note_on_c, 13, 59, 76
17, 66219, Note_on_c, 13, 59, 0
17, 66240, Note_on_c, 13, 64, 76
17, 66359, Note_on_c, 13, 64, 0
17, 66360, Note_on_c, 13, 66, 76
17, 66459, Note_on_c, 13, 66, 0
17, 66480, Note_on_c, 13, 62, 76
17, 66579, Note_on_c, 13, 62, 0
17, 66600, Note_on_c, 13, 62, 76
17, 66719, Note_on_c, 13, 62, 0
17, 66720, Note_on_c, 13, 64, 76
17, 66819, Note_on_c, 13, 64, 0
17, 66840, Note_on_c, 13, 61, 76
17, 66939, Note_on_c, 13, 61, 0
17, 66960, Note_on_c, 13, 61, 76
17, 67079, Note_on_c, 13, 61, 0
17, 67590, Note_on_c, 13, 57, 76
17, 67664, Note_on_c, 13, 57, 0
17, 67680, Note_on_c, 13, 54, 76
17, 67934, Note_on_c, 13, 54, 0
17, 67950, Note_on_c, 13, 57, 76
17, 68024, Note_on_c, 13, 57, 0
17, 68040, Note_on_c, 13, 50, 76
17, 68294, Note_on_c, 13, 50, 0
17, 68310, Note_on_c, 13, 52, 76
17, 68384, Note_on_c, 13, 52, 0
17, 68400, Note_on_c, 13, 54, 76
17, 68654, Note_on_c, 13, 54, 0
17, 68670, Note_on_c, 13, 55, 76
17, 68744, Note_on_c, 13, 55, 0
17, 68760, Note_on_c, 13, 57, 76
17, 69014, Note_on_c, 13, 57, 0
17, 69030, Note_on_c, 13, 45, 76
17, 69104, Note_on_c, 13, 45, 0
17, 69120, Note_on_c, 13, 50, 76
17, 69239, Note_on_c, 13, 50, 0
17, 70200, Note_on_c, 13, 38, 76
17, 70319, Note_on_c, 13, 38, 0
17, 71280, Note_on_c, 13, 50, 76
17, 71399, Note_on_c, 13, 50, 0
17, 91800, Note_on_c, 13, 45, 76
17, 91919, Note_on_c, 13, 45, 0
17, 92070, Note_on_c, 13, 61, 76
17, 92144, Note_on_c, 13, 61, 0
17, 92160, Note_on_c, 13, 49, 76
17, 92160, Note_on_c, 13, 61, 76
17, 92279, Note_on_c, 13, 49, 0
17, 92279, Note_on_c, 13, 61, 0
17, 92280, Note_on_c, 13, 62, 76
17, 92379, Note_on_c, 13, 62, 0
17, 92400, Note_on_c, 13, 59, 76
17, 92499, Note_on_c, 13, 59, 0
17, 92520, Note_on_c, 13, 59, 76
17, 92520, Note_on_c, 13, 52, 76
17, 92639, Note_on_c, 13, 59, 0
17, 92639, Note_on_c, 13, 52, 0
17, 92640, Note_on_c, 13, 61, 76
17, 92739, Note_on_c, 13, 61, 0
17, 92760, Note_on_c, 13, 57, 76
17, 92859, Note_on_c, 13, 57, 0
17, 92880, Note_on_c, 13, 57, 76
17, 92999, Note_on_c, 13, 57, 0
17, 93000, Note_on_c, 13, 59, 76
17, 93119, Note_on_c, 13, 59, 0
17, 93120, Note_on_c, 13, 61, 76
17, 93219, Note_on_c, 13, 61, 0
17, 93240, Note_on_c, 13, 49, 76
17, 93240, Note_on_c, 13, 61, 76
17, 93359, Note_on_c, 13, 49, 0
17, 93359, Note_on_c, 13, 61, 0
17, 93360, Note_on_c, 13, 62, 76
17, 93459, Note_on_c, 13, 62, 0
17, 93480, Note_on_c, 13, 59, 76
17, 93579, Note_on_c, 13, 59, 0
17, 93600, Note_on_c, 13, 52, 76
17, 93600, Note_on_c, 13, 59, 76
17, 93719, Note_on_c, 13, 52, 0
17, 93719, Note_on_c, 13, 59, 0
17, 93720, Note_on_c, 13, 61, 76
17, 93819, Note_on_c, 13, 61, 0
17, 93840, Note_on_c, 13, 57, 76
17, 93939, Note_on_c, 13, 57, 0
17, 93960, Note_on_c, 13, 45, 76
17, 93960, Note_on_c, 13, 57, 76
17, 94079, Note_on_c, 13, 45, 0
17, 94079, Note_on_c, 13, 57, 0
17, 95310, Note_on_c, 13, 57, 76
17, 95384, Note_on_c, 13, 57, 0
17, 95400, Note_on_c, 13, 57, 76
17, 95519, Note_on_c, 13, 57, 0
17, 95520, Note_on_c, 13, 59, 76
17, 95619, Note_on_c, 13, 59, 0
17, 95640, Note_on_c, 13, 56, 76
17, 95739, Note_on_c, 13, 56, 0
17, 95760, Note_on_c, 13, 56, 76
17, 95879, Note_on_c, 13, 56, 0
17, 95880, Note_on_c, 13, 57, 76
17, 95979, Note_on_c, 13, 57, 0
17, 96000, Note_on_c, 13, 54, 76
17, 96099, Note_on_c, 13, 54, 0
17, 96120, Note_on_c, 13, 54, 76
17, 96239, Note_on_c, 13, 54, 0
17, 96240, Note_on_c, 13, 56, 76
17, 96359, Note_on_c, 13, 56, 0
17, 96360, Note_on_c, 13, 57, 76
17, 96479, Note_on_c, 13, 57, 0
17, 96480, Note_on_c, 13, 59, 76
17, 96599, Note_on_c, 13, 59, 0
17, 96600, Note_on_c, 13, 61, 76
17, 96699, Note_on_c, 13, 61, 0
17, 96720, Note_on_c, 13, 57, 76
17, 96819, Note_on_c, 13, 57, 0
17, 96840, Note_on_c, 13, 57, 76
17, 96959, Note_on_c, 13, 57, 0
17, 96960, Note_on_c, 13, 59, 76
17, 97059, Note_on_c, 13, 59, 0
17, 97080, Note_on_c, 13, 56, 76
17, 97179, Note_on_c, 13, 56, 0
17, 97200, Note_on_c, 13, 56, 76
17, 97454, Note_on_c, 13, 56, 0
17, 97470, Note_on_c, 13, 56, 76
17, 97544, Note_on_c, 13, 56, 0
17, 97560, Note_on_c, 13, 56, 76
17, 97814, Note_on_c, 13, 56, 0
17, 97830, Note_on_c, 13, 56, 76
17, 97904, Note_on_c, 13, 56, 0
17, 97920, Note_on_c, 13, 56, 76
17, 98174, Note_on_c, 13, 56, 0
17, 98190, Note_on_c, 13, 56, 76
17, 98264, Note_on_c, 13, 56, 0
17, 98280, Note_on_c, 13, 57, 76
17, 98534, Note_on_c, 13, 57, 0
17, 98550, Note_on_c, 13, 52, 76
17, 98624, Note_on_c, 13, 52, 0
17, 98640, Note_on_c, 13, 52, 76
17, 98759, Note_on_c, 13, 52, 0
17, 98760, Note_on_c, 13, 54, 76
17, 98859, Note_on_c, 13, 54, 0
17, 98880, Note_on_c, 13, 50, 76
17, 98979, Note_on_c, 13, 50, 0
17, 99000, Note_on_c, 13, 50, 76
17, 99119, Note_on_c, 13, 50, 0
17, 99120, Note_on_c, 13, 52, 76
17, 99219, Note_on_c, 13, 52, 0
17, 99240, Note_on_c, 13, 49, 76
17, 99339, Note_on_c, 13, 49, 0
17, 99360, Note_on_c, 13, 49, 76
17, 99479, Note_on_c, 13, 49, 0
17, 99480, Note_on_c, 13, 50, 76
17, 99599, Note_on_c, 13, 50, 0
17, 99600, Note_on_c, 13, 52, 76
17, 99719, Note_on_c, 13, 52, 0
17, 99720, Note_on_c, 13, 54, 76
17, 99839, Note_on_c, 13, 54, 0
17, 99840, Note_on_c, 13, 55, 76
17, 99939, Note_on_c, 13, 55, 0
17, 99960, Note_on_c, 13, 52, 76
17, 100059, Note_on_c, 13, 52, 0
17, 100080, Note_on_c, 13, 52, 76
17, 100199, Note_on_c, 13, 52, 0
17, 100200, Note_on_c, 13, 54, 76
17, 100299, Note_on_c, 13, 54, 0
17, 100320, Note_on_c, 13, 51, 76
17, 100419, Note_on_c, 13, 51, 0
17, 100440, Note_on_c, 13, 51, 76
17, 100694, Note_on_c, 13, 51, 0
17, 100710, Note_on_c, 13, 51, 76
17, 100784, Note_on_c, 13, 51, 0
17, 100800, Note_on_c, 13, 51, 76
17, 101054, Note_on_c, 13, 51, 0
17, 101070, Note_on_c, 13, 51, 76
17, 101144, Note_on_c, 13, 51, 0
17, 101160, Note_on_c, 13, 51, 76
17, 101414, Note_on_c, 13, 51, 0
17, 101430, Note_on_c, 13, 51, 76
17, 101504, Note_on_c, 13, 51, 0
17, 101520, Note_on_c, 13, 52, 76
17, 101774, Note_on_c, 13, 52, 0
17, 101790, Note_on_c, 13, 50, 76
17, 101864, Note_on_c, 13, 50, 0
17, 101880, Note_on_c, 13, 49, 76
17, 102134, Note_on_c, 13, 49, 0
17, 102150, Note_on_c, 13, 49, 76
17, 102224, Note_on_c, 13, 49, 0
17, 102240, Note_on_c, 13, 49, 76
17, 102494, Note_on_c, 13, 49, 0
17, 102510, Note_on_c, 13, 49, 76
17, 102584, Note_on_c, 13, 49, 0
17, 102600, Note_on_c, 13, 50, 76
17, 102719, Note_on_c, 13, 50, 0
17, 102720, Note_on_c, 13, 47, 76
17, 102839, Note_on_c, 13, 47, 0
17, 102840, Note_on_c, 13, 49, 76
17, 102959, Note_on_c, 13, 49, 0
17, 102960, Note_on_c, 13, 50, 76
17, 103079, Note_on_c, 13, 50, 0
17, 103080, Note_on_c, 13, 52, 76
17, 103179, Note_on_c, 13, 52, 0
17, 103200, Note_on_c, 13, 49, 76
17, 103299, Note_on_c, 13, 49, 0
17, 103320, Note_on_c, 13, 49, 76
17, 103439, Note_on_c, 13, 49, 0
17, 103440, Note_on_c, 13, 50, 76
17, 103539, Note_on_c, 13, 50, 0
17, 103560, Note_on_c, 13, 47, 76
17, 103659, Note_on_c, 13, 47, 0
17, 103680, Note_on_c, 13, 47, 76
17, 103799, Note_on_c, 13, 47, 0
17, 104040, Note_on_c, 13, 59, 76
17, 104159, Note_on_c, 13, 59, 0
17, 104400, Note_on_c, 13, 47, 76
17, 104519, Note_on_c, 13, 47, 0
17, 104760, Note_on_c, 13, 52, 76
17, 104879, Note_on_c, 13, 52, 0
17, 105120, Note_on_c, 13, 40, 76
17, 105239, Note_on_c, 13, 40, 0
17, 105480, Note_on_c, 13, 52, 76
17, 105599, Note_on_c, 13, 52, 0
17, 105840, Note_on_c, 13, 57, 76
17, 105959, Note_on_c, 13, 57, 0
17, 106200, Note_on_c, 13, 45, 76
17, 106319, Note_on_c, 13, 45, 0
17, 106560, Note_on_c, 13, 57, 76
17, 106679, Note_on_c, 13, 57, 0
17, 106920, Note_on_c, 13, 50, 76
17, 107039, Note_on_c, 13, 50, 0
17, 107550, Note_on_c, 13, 47, 76
17, 107624, Note_on_c, 13, 47, 0
17, 107640, Note_on_c, 13, 49, 76
17, 107894, Note_on_c, 13, 49, 0
17, 107910, Note_on_c, 13, 50, 76
17, 107984, Note_on_c, 13, 50, 0
17, 108000, Note_on_c, 13, 52, 76
17, 108119, Note_on_c, 13, 52, 0
17, 108630, Note_on_c, 13, 49, 76
17, 108704, Note_on_c, 13, 49, 0
17, 108720, Note_on_c, 13, 50, 76
17, 108974, Note_on_c, 13, 50, 0
17, 108990, Note_on_c, 13, 52, 76
17, 109064, Note_on_c, 13, 52, 0
17, 109080, Note_on_c, 13, 54, 76
17, 109199, Note_on_c, 13, 54, 0
17, 109440, Note_on_c, 13, 50, 76
17, 109559, Note_on_c, 13, 50, 0
17, 109800, Note_on_c, 13, 49, 76
17, 109919, Note_on_c, 13, 49, 0
17, 110160, Note_on_c, 13, 47, 76
17, 110279, Note_on_c, 13, 47, 0
17, 110280, Note_on_c, 13, 50, 76
17, 110399, Note_on_c, 13, 50, 0
17, 110400, Note_on_c, 13, 54, 76
17, 110519, Note_on_c, 13, 54, 0
17, 110520, Note_on_c, 13, 59, 76
17, 110639, Note_on_c, 13, 59, 0
17, 110640, Note_on_c, 13, 61, 76
17, 110759, Note_on_c, 13, 61, 0
17, 110760, Note_on_c, 13, 57, 76
17, 110879, Note_on_c, 13, 57, 0
17, 110880, Note_on_c, 13, 57, 76
17, 110999, Note_on_c, 13, 57, 0
17, 111000, Note_on_c, 13, 59, 76
17, 111119, Note_on_c, 13, 59, 0
17, 111120, Note_on_c, 13, 56, 76
17, 111239, Note_on_c, 13, 56, 0
17, 111240, Note_on_c, 13, 56, 76
17, 111359, Note_on_c, 13, 56, 0
17, 111870, Note_on_c, 13, 52, 76
17, 111944, Note_on_c, 13, 52, 0
17, 111960, Note_on_c, 13, 49, 76
17, 112214, Note_on_c, 13, 49, 0
17, 112230, Note_on_c, 13, 52, 76
17, 112304, Note_on_c, 13, 52, 0
17, 112320, Note_on_c, 13, 45, 76
17, 112574, Note_on_c, 13, 45, 0
17, 112590, Note_on_c, 13, 47, 76
17, 112664, Note_on_c, 13, 47, 0
17, 112680, Note_on_c, 13, 49, 76
17, 112934, Note_on_c, 13, 49, 0
17, 112950, Note_on_c, 13, 50, 76
17, 113024, Note_on_c, 13, 50, 0
17, 113040, Note_on_c, 13, 52, 76
17, 113294, Note_on_c, 13, 52, 0
17, 113310, Note_on_c, 13, 40, 76
17, 113384, Note_on_c, 13, 40, 0
17, 113400, Note_on_c, 13, 45, 76
17, 113759, Note_on_c, 13, 45, 0
17, 114480, Note_on_c, 13, 45, 76
17, 114839, Note_on_c, 13, 45, 0
17, 115560, Note_on_c, 13, 45, 76
17, 115919, Note_on_c, 13, 45, 0
17, 116910, Note_on_c, 13, 45, 76
17, 116984, Note_on_c, 13, 45, 0
17, 117000, Note_on_c, 13, 49, 76
17, 117254, Note_on_c, 13, 49, 0
17, 117270, Note_on_c, 13, 52, 76
17, 117344, Note_on_c, 13, 52, 0
17, 117360, Note_on_c, 13, 49, 76
17, 117614, Note_on_c, 13, 49, 0
17, 117630, Note_on_c, 13, 45, 76
17, 117704, Note_on_c, 13, 45, 0
17, 117720, Note_on_c, 13, 50, 76
17, 118079, Note_on_c, 13, 50, 0
17, 118800, Note_on_c, 13, 50, 76
17, 119159, Note_on_c, 13, 50, 0
17, 119880, Note_on_c, 13, 50, 76
17, 120239, Note_on_c, 13, 50, 0
17, 121230, Note_on_c, 13, 50, 76
17, 121304, Note_on_c, 13, 50, 0
17, 121320, Note_on_c, 13, 54, 76
17, 121574, Note_on_c, 13, 54, 0
17, 121590, Note_on_c, 13, 57, 76
17, 121664, Note_on_c, 13, 57, 0
17, 121680, Note_on_c, 13, 54, 76
17, 121934, Note_on_c, 13, 54, 0
17, 121950, Note_on_c, 13, 50, 76
17, 122024, Note_on_c, 13, 50, 0
17, 122040, Note_on_c, 13, 43, 76
17, 122294, Note_on_c, 13, 43, 0
17, 122310, Note_on_c, 13, 55, 76
17, 122384, Note_on_c, 13, 55, 0
17, 122400, Note_on_c, 13, 55, 76
17, 122519, Note_on_c, 13, 55, 0
17, 122520, Note_on_c, 13, 57, 76
17, 122619, Note_on_c, 13, 57, 0
17, 122640, Note_on_c, 13, 54, 76
17, 122739, Note_on_c, 13, 54, 0
17, 122760, Note_on_c, 13, 54, 76
17, 122879, Note_on_c, 13, 54, 0
17, 122880, Note_on_c, 13, 55, 76
17, 122979, Note_on_c, 13, 55, 0
17, 123000, Note_on_c, 13, 52, 76
17, 123099, Note_on_c, 13, 52, 0
17, 123120, Note_on_c, 13, 52, 76
17, 123239, Note_on_c, 13, 52, 0
17, 123240, Note_on_c, 13, 54, 76
17, 123359, Note_on_c, 13, 54, 0
17, 123360, Note_on_c, 13, 56, 76
17, 123479, Note_on_c, 13, 56, 0
17, 123480, Note_on_c, 13, 57, 76
17, 123599, Note_on_c, 13, 57, 0
17, 123600, Note_on_c, 13, 59, 76
17, 123699, Note_on_c, 13, 59, 0
17, 123720, Note_on_c, 13, 55, 76
17, 123819, Note_on_c, 13, 55, 0
17, 123840, Note_on_c, 13, 55, 76
17, 123959, Note_on_c, 13, 55, 0
17, 123960, Note_on_c, 13, 57, 76
17, 124059, Note_on_c, 13, 57, 0
17, 124080, Note_on_c, 13, 54, 76
17, 124179, Note_on_c, 13, 54, 0
17, 124200, Note_on_c, 13, 54, 76
17, 124319, Note_on_c, 13, 54, 0
17, 124320, Note_on_c, 13, 56, 76
17, 124439, Note_on_c, 13, 56, 0
17, 124440, Note_on_c, 13, 58, 76
17, 124559, Note_on_c, 13, 58, 0
17, 124560, Note_on_c, 13, 59, 76
17, 124679, Note_on_c, 13, 59, 0
17, 124680, Note_on_c, 13, 61, 76
17, 124779, Note_on_c, 13, 61, 0
17, 124800, Note_on_c, 13, 57, 76
17, 124899, Note_on_c, 13, 57, 0
17, 124920, Note_on_c, 13, 57, 76
17, 125039, Note_on_c, 13, 57, 0
17, 125040, Note_on_c, 13, 59, 76
17, 125139, Note_on_c, 13, 59, 0
17, 125160, Note_on_c, 13, 56, 76
17, 125259, Note_on_c, 13, 56, 0
17, 125280, Note_on_c, 13, 56, 76
17, 125399, Note_on_c, 13, 56, 0
17, 125400, Note_on_c, 13, 58, 76
17, 125519, Note_on_c, 13, 58, 0
17, 125520, Note_on_c, 13, 59, 76
17, 125639, Note_on_c, 13, 59, 0
17, 125640, Note_on_c, 13, 61, 76
17, 125759, Note_on_c, 13, 61, 0
17, 125760, Note_on_c, 13, 62, 76
17, 125859, Note_on_c, 13, 62, 0
17, 125880, Note_on_c, 13, 59, 76
17, 125979, Note_on_c, 13, 59, 0
17, 126000, Note_on_c, 13, 59, 76
17, 126119, Note_on_c, 13, 59, 0
17, 126120, Note_on_c, 13, 61, 76
17, 126219, Note_on_c, 13, 61, 0
17, 126240, Note_on_c, 13, 58, 76
17, 126339, Note_on_c, 13, 58, 0
17, 126360, Note_on_c, 13, 58, 76
17, 126479, Note_on_c, 13, 58, 0
17, 127440, Note_on_c, 13, 59, 76
17, 127559, Note_on_c, 13, 59, 0
17, 128520, Note_on_c, 13, 54, 76
17, 128774, Note_on_c, 13, 54, 0
17, 128790, Note_on_c, 13, 42, 76
17, 128864, Note_on_c, 13, 42, 0
17, 128880, Note_on_c, 13, 42, 76
17, 129134, Note_on_c, 13, 42, 0
17, 129150, Note_on_c, 13, 42, 76
17, 129224, Note_on_c, 13, 42, 0
17, 129240, Note_on_c, 13, 42, 76
17, 129494, Note_on_c, 13, 42, 0
17, 129510, Note_on_c, 13, 42, 76
17, 129584, Note_on_c, 13, 42, 0
17, 129600, Note_on_c, 13, 42, 76
17, 129854, Note_on_c, 13, 42, 0
17, 129870, Note_on_c, 13, 52, 76
17, 129944, Note_on_c, 13, 52, 0
17, 129960, Note_on_c, 13, 50, 76
17, 130214, Note_on_c, 13, 50, 0
17, 130230, Note_on_c, 13, 55, 76
17, 130304, Note_on_c, 13, 55, 0
17, 130320, Note_on_c, 13, 49, 76
17, 130574, Note_on_c, 13, 49, 0
17, 130590, Note_on_c, 13, 54, 76
17, 130664, Note_on_c, 13, 54, 0
17, 130680, Note_on_c, 13, 47, 76
17, 130799, Note_on_c, 13, 47, 0
17, 130800, Note_on_c, 13, 50, 76
17, 130919, Note_on_c, 13, 50, 0
17, 130920, Note_on_c, 13, 54, 76
17, 131019, Note_on_c, 13, 54, 0
17, 131040, Note_on_c, 13, 59, 76
17, 131159, Note_on_c, 13, 59, 0
17, 131160, Note_on_c, 13, 61, 76
17, 131259, Note_on_c, 13, 61, 0
17, 131280, Note_on_c, 13, 57, 76
17, 131379, Note_on_c, 13, 57, 0
17, 131400, Note_on_c, 13, 57, 76
17, 131519, Note_on_c, 13, 57, 0
17, 131520, Note_on_c, 13, 59, 76
17, 131619, Note_on_c, 13, 59, 0
17, 131640, Note_on_c, 13, 55, 76
17, 131739, Note_on_c, 13, 55, 0
17, 131760, Note_on_c, 13, 55, 76
17, 131859, Note_on_c, 13, 55, 0
17, 131880, Note_on_c, 13, 52, 76
17, 131999, Note_on_c, 13, 52, 0
17, 132000, Note_on_c, 13, 54, 76
17, 132119, Note_on_c, 13, 54, 0
17, 132120, Note_on_c, 13, 55, 76
17, 132239, Note_on_c, 13, 55, 0
17, 132240, Note_on_c, 13, 57, 76
17, 132339, Note_on_c, 13, 57, 0
17, 132360, Note_on_c, 13, 54, 76
17, 132459, Note_on_c, 13, 54, 0
17, 132480, Note_on_c, 13, 54, 76
17, 132599, Note_on_c, 13, 54, 0
17, 132600, Note_on_c, 13, 55, 76
17, 132699, Note_on_c, 13, 55, 0
17, 132720, Note_on_c, 13, 52, 76
17, 132819, Note_on_c, 13, 52, 0
17, 132840, Note_on_c, 13, 52, 76
17, 133094, Note_on_c, 13, 52, 0
17, 133110, Note_on_c, 13, 50, 76
17, 133184, Note_on_c, 13, 50, 0
17, 133200, Note_on_c, 13, 49, 76
17, 133454, Note_on_c, 13, 49, 0
17, 133470, Note_on_c, 13, 52, 76
17, 133544, Note_on_c, 13, 52, 0
17, 133560, Note_on_c, 13, 46, 76
17, 133814, Note_on_c, 13, 46, 0
17, 133830, Note_on_c, 13, 49, 76
17, 133904, Note_on_c, 13, 49, 0
17, 133920, Note_on_c, 13, 42, 76
17, 134279, Note_on_c, 13, 42, 0
17, 134550, Note_on_c, 13, 55, 76
17, 134624, Note_on_c, 13, 55, 0
17, 134640, Note_on_c, 13, 54, 76
17, 134894, Note_on_c, 13, 54, 0
17, 134910, Note_on_c, 13, 52, 76
17, 134984, Note_on_c, 13, 52, 0
17, 135000, Note_on_c, 13, 50, 76
17, 135254, Note_on_c, 13, 50, 0
17, 135270, Note_on_c, 13, 47, 76
17, 135344, Note_on_c, 13, 47, 0
17, 135360, Note_on_c, 13, 52, 76
17, 135479, Note_on_c, 13, 52, 0
17, 135480, Note_on_c, 13, 54, 76
17, 135599, Note_on_c, 13, 54, 0
17, 135600, Note_on_c, 13, 55, 76
17, 135699, Note_on_c, 13, 55, 0
17, 135720, Note_on_c, 13, 54, 76
17, 135974, Note_on_c, 13, 54, 0
17, 135990, Note_on_c, 13, 42, 76
17, 136064, Note_on_c, 13, 42, 0
17, 136080, Note_on_c, 13, 47, 76
17, 136199, Note_on_c, 13, 47, 0
17, 138510, Note_on_c, 13, 59, 76
17, 138584, Note_on_c, 13, 59, 0
17, 138600, Note_on_c, 13, 59, 76
17, 138719, Note_on_c, 13, 59, 0
17, 138720, Note_on_c, 13, 60, 76
17, 138839, Note_on_c, 13, 60, 0
17, 138840, Note_on_c, 13, 57, 76
17, 138959, Note_on_c, 13, 57, 0
17, 138960, Note_on_c, 13, 57, 76
17, 139079, Note_on_c, 13, 57, 0
17, 139080, Note_on_c, 13, 59, 76
17, 139199, Note_on_c, 13, 59, 0
17, 139200, Note_on_c, 13, 55, 76
17, 139319, Note_on_c, 13, 55, 0
17, 139320, Note_on_c, 13, 55, 76
17, 139439, Note_on_c, 13, 55, 0
17, 139440, Note_on_c, 13, 57, 76
17, 139559, Note_on_c, 13, 57, 0
17, 139560, Note_on_c, 13, 59, 76
17, 139679, Note_on_c, 13, 59, 0
17, 139680, Note_on_c, 13, 60, 76
17, 139799, Note_on_c, 13, 60, 0
17, 139800, Note_on_c, 13, 62, 76
17, 139899, Note_on_c, 13, 62, 0
17, 139920, Note_on_c, 13, 59, 76
17, 140019, Note_on_c, 13, 59, 0
17, 140040, Note_on_c, 13, 59, 76
17, 140159, Note_on_c, 13, 59, 0
17, 140160, Note_on_c, 13, 60, 76
17, 140259, Note_on_c, 13, 60, 0
17, 140280, Note_on_c, 13, 57, 76
17, 140379, Note_on_c, 13, 57, 0
17, 140400, Note_on_c, 13, 57, 76
17, 140654, Note_on_c, 13, 57, 0
17, 140670, Note_on_c, 13, 57, 76
17, 140744, Note_on_c, 13, 57, 0
17, 140760, Note_on_c, 13, 57, 76
17, 141014, Note_on_c, 13, 57, 0
17, 141030, Note_on_c, 13, 57, 76
17, 141104, Note_on_c, 13, 57, 0
17, 141120, Note_on_c, 13, 57, 76
17, 141374, Note_on_c, 13, 57, 0
17, 141390, Note_on_c, 13, 57, 76
17, 141464, Note_on_c, 13, 57, 0
17, 141480, Note_on_c, 13, 57, 76
17, 141599, Note_on_c, 13, 57, 0
17, 141600, Note_on_c, 13, 54, 76
17, 141719, Note_on_c, 13, 54, 0
17, 141720, Note_on_c, 13, 55, 76
17, 141839, Note_on_c, 13, 55, 0
17, 141840, Note_on_c, 13, 57, 76
17, 141959, Note_on_c, 13, 57, 0
17, 141960, Note_on_c, 13, 66, 76
17, 142059, Note_on_c, 13, 66, 0
17, 142080, Note_on_c, 13, 55, 76
17, 142179, Note_on_c, 13, 55, 0
17, 142200, Note_on_c, 13, 57, 76
17, 142319, Note_on_c, 13, 57, 0
17, 142320, Note_on_c, 13, 55, 76
17, 142439, Note_on_c, 13, 55, 0
17, 142440, Note_on_c, 13, 54, 76
17, 142539, Note_on_c, 13, 54, 0
17, 142560, Note_on_c, 13, 55, 76
17, 142679, Note_on_c, 13, 55, 0
17, 142680, Note_on_c, 13, 52, 76
17, 142799, Note_on_c, 13, 52, 0
17, 142800, Note_on_c, 13, 54, 76
17, 142919, Note_on_c, 13, 54, 0
17, 142920, Note_on_c, 13, 55, 76
17, 143039, Note_on_c, 13, 55, 0
17, 143040, Note_on_c, 13, 64, 76
17, 143139, Note_on_c, 13, 64, 0
17, 143160, Note_on_c, 13, 54, 76
17, 143259, Note_on_c, 13, 54, 0
17, 143280, Note_on_c, 13, 55, 76
17, 143399, Note_on_c, 13, 55, 0
17, 143400, Note_on_c, 13, 54, 76
17, 143519, Note_on_c, 13, 54, 0
17, 143520, Note_on_c, 13, 52, 76
17, 143619, Note_on_c, 13, 52, 0
17, 143640, Note_on_c, 13, 54, 76
17, 143759, Note_on_c, 13, 54, 0
17, 143760, Note_on_c, 13, 50, 76
17, 143879, Note_on_c, 13, 50, 0
17, 143880, Note_on_c, 13, 52, 76
17, 143999, Note_on_c, 13, 52, 0
17, 144000, Note_on_c, 13, 54, 76
17, 144119, Note_on_c, 13, 54, 0
17, 144120, Note_on_c, 13, 62, 76
17, 144219, Note_on_c, 13, 62, 0
17, 144240, Note_on_c, 13, 52, 76
17, 144339, Note_on_c, 13, 52, 0
17, 144360, Note_on_c, 13, 54, 76
17, 144479, Note_on_c, 13, 54, 0
17, 144480, Note_on_c, 13, 52, 76
17, 144599, Note_on_c, 13, 52, 0
17, 144600, Note_on_c, 13, 50, 76
17, 144699, Note_on_c, 13, 50, 0
17, 144720, Note_on_c, 13, 52, 76
17, 144839, Note_on_c, 13, 52, 0
17, 144840, Note_on_c, 13, 48, 76
17, 144959, Note_on_c, 13, 48, 0
17, 144960, Note_on_c, 13, 50, 76
17, 145079, Note_on_c, 13, 50, 0
17, 145080, Note_on_c, 13, 52, 76
17, 145199, Note_on_c, 13, 52, 0
17, 145200, Note_on_c, 13, 60, 76
17, 145299, Note_on_c, 13, 60, 0
17, 145320, Note_on_c, 13, 50, 76
17, 145419, Note_on_c, 13, 50, 0
17, 145440, Note_on_c, 13, 52, 76
17, 145559, Note_on_c, 13, 52, 0
17, 145560, Note_on_c, 13, 50, 76
17, 145679, Note_on_c, 13, 50, 0
17, 145680, Note_on_c, 13, 48, 76
17, 145779, Note_on_c, 13, 48, 0
17, 145800, Note_on_c, 13, 50, 76
17, 145919, Note_on_c, 13, 50, 0
17, 146880, Note_on_c, 13, 50, 76
17, 146999, Note_on_c, 13, 50, 0
17, 148230, Note_on_c, 13, 38, 76
17, 148304, Note_on_c, 13, 38, 0
17, 148320, Note_on_c, 13, 38, 76
17, 148574, Note_on_c, 13, 38, 0
17, 148590, Note_on_c, 13, 38, 76
17, 148664, Note_on_c, 13, 38, 0
17, 148680, Note_on_c, 13, 38, 76
17, 148934, Note_on_c, 13, 38, 0
17, 148950, Note_on_c, 13, 38, 76
17, 149024, Note_on_c, 13, 38, 0
17, 149040, Note_on_c, 13, 38, 76
17, 149294, Note_on_c, 13, 38, 0
17, 149310, Note_on_c, 13, 48, 76
17, 149384, Note_on_c, 13, 48, 0
17, 149400, Note_on_c, 13, 47, 76
17, 149654, Note_on_c, 13, 47, 0
17, 149670, Note_on_c, 13, 52, 76
17, 149744, Note_on_c, 13, 52, 0
17, 149760, Note_on_c, 13, 45, 76
17, 150014, Note_on_c, 13, 45, 0
17, 150030, Note_on_c, 13, 50, 76
17, 150104, Note_on_c, 13, 50, 0
17, 150120, Note_on_c, 13, 43, 76
17, 150374, Note_on_c, 13, 43, 0
17, 150390, Note_on_c, 13, 50, 76
17, 150464, Note_on_c, 13, 50, 0
17, 150480, Note_on_c, 13, 55, 76
17, 150599, Note_on_c, 13, 55, 0
17, 150600, Note_on_c, 13, 57, 76
17, 150719, Note_on_c, 13, 57, 0
17, 150720, Note_on_c, 13, 54, 76
17, 150839, Note_on_c, 13, 54, 0
17, 150840, Note_on_c, 13, 54, 76
17, 150959, Note_on_c, 13, 54, 0
17, 150960, Note_on_c, 13, 55, 76
17, 151079, Note_on_c, 13, 55, 0
17, 151080, Note_on_c, 13, 52, 76
17, 151199, Note_on_c, 13, 52, 0
17, 151200, Note_on_c, 13, 52, 76
17, 151319, Note_on_c, 13, 52, 0
17, 151320, Note_on_c, 13, 48, 76
17, 151439, Note_on_c, 13, 48, 0
17, 151440, Note_on_c, 13, 50, 76
17, 151559, Note_on_c, 13, 50, 0
17, 151560, Note_on_c, 13, 52, 76
17, 151679, Note_on_c, 13, 52, 0
17, 151680, Note_on_c, 13, 53, 76
17, 151779, Note_on_c, 13, 53, 0
17, 151800, Note_on_c, 13, 50, 76
17, 151899, Note_on_c, 13, 50, 0
17, 151920, Note_on_c, 13, 50, 76
17, 152039, Note_on_c, 13, 50, 0
17, 152040, Note_on_c, 13, 52, 76
17, 152139, Note_on_c, 13, 52, 0
17, 152160, Note_on_c, 13, 48, 76
17, 152259, Note_on_c, 13, 48, 0
17, 152280, Note_on_c, 13, 48, 76
17, 152534, Note_on_c, 13, 48, 0
17, 152550, Note_on_c, 13, 47, 76
17, 152624, Note_on_c, 13, 47, 0
17, 152640, Note_on_c, 13, 45, 76
17, 152894, Note_on_c, 13, 45, 0
17, 152910, Note_on_c, 13, 48, 76
17, 152984, Note_on_c, 13, 48, 0
17, 153000, Note_on_c, 13, 42, 76
17, 153254, Note_on_c, 13, 42, 0
17, 153270, Note_on_c, 13, 45, 76
17, 153344, Note_on_c, 13, 45, 0
17, 153360, Note_on_c, 13, 36, 76
17, 153479, Note_on_c, 13, 36, 0
17, 153990, Note_on_c, 13, 52, 76
17, 154064, Note_on_c, 13, 52, 0
17, 154080, Note_on_c, 13, 50, 76
17, 154334, Note_on_c, 13, 50, 0
17, 154350, Note_on_c, 13, 48, 76
17, 154424, Note_on_c, 13, 48, 0
17, 154440, Note_on_c, 13, 47, 76
17, 154559, Note_on_c, 13, 47, 0
17, 154560, Note_on_c, 13, 48, 76
17, 154679, Note_on_c, 13, 48, 0
17, 154680, Note_on_c, 13, 50, 76
17, 154779, Note_on_c, 13, 50, 0
17, 154800, Note_on_c, 13, 52, 76
17, 155054, Note_on_c, 13, 52, 0
17, 155070, Note_on_c, 13, 48, 76
17, 155144, Note_on_c, 13, 48, 0
17, 155160, Note_on_c, 13, 50, 76
17, 155414, Note_on_c, 13, 50, 0
17, 155430, Note_on_c, 13, 38, 76
17, 155504, Note_on_c, 13, 38, 0
17, 155520, Note_on_c, 13, 43, 76
17, 155774, Note_on_c, 13, 43, 0
17, 155790, Note_on_c, 13, 59, 76
17, 155864, Note_on_c, 13, 59, 0
17, 155880, Note_on_c, 13, 59, 76
17, 155880, Note_on_c, 13, 47, 76
17, 155999, Note_on_c, 13, 59, 0
17, 155999, Note_on_c, 13, 47, 0
17, 156000, Note_on_c, 13, 60, 76
17, 156099, Note_on_c, 13, 60, 0
17, 156120, Note_on_c, 13, 57, 76
17, 156219, Note_on_c, 13, 57, 0
17, 156240, Note_on_c, 13, 50, 76
17, 156240, Note_on_c, 13, 57, 76
17, 156359, Note_on_c, 13, 50, 0
17, 156359, Note_on_c, 13, 57, 0
17, 156360, Note_on_c, 13, 59, 76
17, 156459, Note_on_c, 13, 59, 0
17, 156480, Note_on_c, 13, 55, 76
17, 156579, Note_on_c, 13, 55, 0
17, 156600, Note_on_c, 13, 55, 76
17, 156719, Note_on_c, 13, 55, 0
17, 156720, Note_on_c, 13, 57, 76
17, 156839, Note_on_c, 13, 57, 0
17, 156840, Note_on_c, 13, 59, 76
17, 156939, Note_on_c, 13, 59, 0
17, 156960, Note_on_c, 13, 47, 76
17, 156960, Note_on_c, 13, 59, 76
17, 157079, Note_on_c, 13, 47, 0
17, 157079, Note_on_c, 13, 59, 0
17, 157080, Note_on_c, 13, 60, 76
17, 157179, Note_on_c, 13, 60, 0
17, 157200, Note_on_c, 13, 57, 76
17, 157299, Note_on_c, 13, 57, 0
17, 157320, Note_on_c, 13, 57, 76
17, 157320, Note_on_c, 13, 50, 76
17, 157439, Note_on_c, 13, 57, 0
17, 157439, Note_on_c, 13, 50, 0
17, 157440, Note_on_c, 13, 59, 76
17, 157539, Note_on_c, 13, 59, 0
17, 157560, Note_on_c, 13, 55, 76
17, 157659, Note_on_c, 13, 55, 0
17, 157680, Note_on_c, 13, 55, 76
17, 157680, Note_on_c, 13, 43, 76
17, 157799, Note_on_c, 13, 55, 0
17, 157799, Note_on_c, 13, 43, 0
17, 158310, Note_on_c, 13, 43, 76
17, 158384, Note_on_c, 13, 43, 0
17, 158400, Note_on_c, 13, 43, 76
17, 158654, Note_on_c, 13, 43, 0
17, 158670, Note_on_c, 13, 43, 76
17, 158744, Note_on_c, 13, 43, 0
17, 158760, Note_on_c, 13, 48, 76
17, 158879, Note_on_c, 13, 48, 0
17, 159390, Note_on_c, 13, 45, 76
17, 159464, Note_on_c, 13, 45, 0
17, 159480, Note_on_c, 13, 45, 76
17, 159734, Note_on_c, 13, 45, 0
17, 159750, Note_on_c, 13, 45, 76
17, 159824, Note_on_c, 13, 45, 0
17, 159840, Note_on_c, 13, 50, 76
17, 159959, Note_on_c, 13, 50, 0
17, 160470, Note_on_c, 13, 47, 76
17, 160544, Note_on_c, 13, 47, 0
17, 160560, Note_on_c, 13, 47, 76
17, 160814, Note_on_c, 13, 47, 0
17, 160830, Note_on_c, 13, 47, 76
17, 160904, Note_on_c, 13, 47, 0
17, 160920, Note_on_c, 13, 52, 76
17, 161039, Note_on_c, 13, 52, 0
17, 163440, Note_on_c, 13, 59, 76
17, 163559, Note_on_c, 13, 59, 0
17, 163800, Note_on_c, 13, 47, 76
17, 163919, Note_on_c, 13, 47, 0
17, 164520, Note_on_c, 13, 52, 76
17, 164639, Note_on_c, 13, 52, 0
17, 164880, Note_on_c, 13, 40, 76
17, 164999, Note_on_c, 13, 40, 0
17, 165600, Note_on_c, 13, 57, 76
17, 165719, Note_on_c, 13, 57, 0
17, 165960, Note_on_c, 13, 45, 76
17, 166079, Note_on_c, 13, 45, 0
17, 166680, Note_on_c, 13, 50, 76
17, 166799, Note_on_c, 13, 50, 0
17, 167040, Note_on_c, 13, 38, 76
17, 167159, Note_on_c, 13, 38, 0
17, 167760, Note_on_c, 13, 55, 76
17, 167879, Note_on_c, 13, 55, 0
17, 168120, Note_on_c, 13, 43, 76
17, 168239, Note_on_c, 13, 43, 0
17, 168840, Note_on_c, 13, 55, 76
17, 168959, Note_on_c, 13, 55, 0
17, 169200, Note_on_c, 13, 43, 76
17, 169319, Note_on_c, 13, 43, 0
17, 169560, Note_on_c, 13, 45, 76
17, 170639, Note_on_c, 13, 45, 0
17, 170640, Note_on_c, 13, 45, 76
17, 171719, Note_on_c, 13, 45, 0
17, 171720, Note_on_c, 13, 45, 76
17, 172779, Note_on_c, 13, 45, 0
17, 172800, Note_on_c, 13, 46, 76
17, 172919, Note_on_c, 13, 46, 0
17, 173880, Note_on_c, 13, 45, 76
17, 173999, Note_on_c, 13, 45, 0
17, 175230, Note_on_c, 13, 44, 76
17, 175304, Note_on_c, 13, 44, 0
17, 175320, Note_on_c, 13, 44, 76
17, 175574, Note_on_c, 13, 44, 0
17, 175590, Note_on_c, 13, 44, 76
17, 175664, Note_on_c, 13, 44, 0
17, 175680, Note_on_c, 13, 44, 76
17, 175934, Note_on_c, 13, 44, 0
17, 175950, Note_on_c, 13, 44, 76
17, 176024, Note_on_c, 13, 44, 0
17, 176040, Note_on_c, 13, 45, 76
17, 176294, Note_on_c, 13, 45, 0
17, 176310, Note_on_c, 13, 45, 76
17, 176384, Note_on_c, 13, 45, 0
17, 176400, Note_on_c, 13, 45, 76
17, 176654, Note_on_c, 13, 45, 0
17, 176670, Note_on_c, 13, 45, 76
17, 176744, Note_on_c, 13, 45, 0
17, 176760, Note_on_c, 13, 45, 76
17, 177014, Note_on_c, 13, 45, 0
17, 177030, Note_on_c, 13, 45, 76
17, 177104, Note_on_c, 13, 45, 0
17, 177120, Note_on_c, 13, 47, 76
17, 177374, Note_on_c, 13, 47, 0
17, 177390, Note_on_c, 13, 40, 76
17, 177464, Note_on_c, 13, 40, 0
17, 177480, Note_on_c, 13, 42, 76
17, 177734, Note_on_c, 13, 42, 0
17, 177750, Note_on_c, 13, 43, 76
17, 177824, Note_on_c, 13, 43, 0
17, 177840, Note_on_c, 13, 45, 76
17, 178094, Note_on_c, 13, 45, 0
17, 178110, Note_on_c, 13, 45, 76
17, 178184, Note_on_c, 13, 45, 0
17, 178200, Note_on_c, 13, 38, 76
17, 178319, Note_on_c, 13, 38, 0
17, 179550, Note_on_c, 13, 62, 76
17, 179624, Note_on_c, 13, 62, 0
17, 179640, Note_on_c, 13, 62, 76
17, 179759, Note_on_c, 13, 62, 0
17, 179760, Note_on_c, 13, 64, 76
17, 179859, Note_on_c, 13, 64, 0
17, 179880, Note_on_c, 13, 60, 76
17, 179979, Note_on_c, 13, 60, 0
17, 180000, Note_on_c, 13, 60, 76
17, 180119, Note_on_c, 13, 60, 0
17, 180120, Note_on_c, 13, 62, 76
17, 180219, Note_on_c, 13, 62, 0
17, 180240, Note_on_c, 13, 59, 76
17, 180339, Note_on_c, 13, 59, 0
17, 180360, Note_on_c, 13, 59, 76
17, 180479, Note_on_c, 13, 59, 0
17, 180480, Note_on_c, 13, 61, 76
17, 180599, Note_on_c, 13, 61, 0
17, 180600, Note_on_c, 13, 62, 76
17, 180719, Note_on_c, 13, 62, 0
17, 180720, Note_on_c, 13, 64, 76
17, 180839, Note_on_c, 13, 64, 0
17, 180840, Note_on_c, 13, 66, 76
17, 180939, Note_on_c, 13, 66, 0
17, 180960, Note_on_c, 13, 62, 76
17, 181059, Note_on_c, 13, 62, 0
17, 181080, Note_on_c, 13, 62, 76
17, 181199, Note_on_c, 13, 62, 0
17, 181200, Note_on_c, 13, 64, 76
17, 181299, Note_on_c, 13, 64, 0
17, 181320, Note_on_c, 13, 61, 76
17, 181419, Note_on_c, 13, 61, 0
17, 181440, Note_on_c, 13, 61, 76
17, 181694, Note_on_c, 13, 61, 0
17, 181710, Note_on_c, 13, 61, 76
17, 181784, Note_on_c, 13, 61, 0
17, 181800, Note_on_c, 13, 61, 76
17, 182054, Note_on_c, 13, 61, 0
17, 182070, Note_on_c, 13, 61, 76
17, 182144, Note_on_c, 13, 61, 0
17, 182160, Note_on_c, 13, 61, 76
17, 182414, Note_on_c, 13, 61, 0
17, 182430, Note_on_c, 13, 61, 76
17, 182504, Note_on_c, 13, 61, 0
17, 182520, Note_on_c, 13, 62, 76
17, 182774, Note_on_c, 13, 62, 0
17, 182790, Note_on_c, 13, 57, 76
17, 182864, Note_on_c, 13, 57, 0
17, 182880, Note_on_c, 13, 57, 76
17, 182999, Note_on_c, 13, 57, 0
17, 183000, Note_on_c, 13, 59, 76
17, 183099, Note_on_c, 13, 59, 0
17, 183120, Note_on_c, 13, 55, 76
17, 183219, Note_on_c, 13, 55, 0
17, 183240, Note_on_c, 13, 55, 76
17, 183359, Note_on_c, 13, 55, 0
17, 183360, Note_on_c, 13, 57, 76
17, 183459, Note_on_c, 13, 57, 0
17, 183480, Note_on_c, 13, 54, 76
17, 183579, Note_on_c, 13, 54, 0
17, 183600, Note_on_c, 13, 54, 76
17, 183719, Note_on_c, 13, 54, 0
17, 183720, Note_on_c, 13, 56, 76
17, 183839, Note_on_c, 13, 56, 0
17, 183840, Note_on_c, 13, 57, 76
17, 183959, Note_on_c, 13, 57, 0
17, 183960, Note_on_c, 13, 59, 76
17, 184079, Note_on_c, 13, 59, 0
17, 184080, Note_on_c, 13, 61, 76
17, 184179, Note_on_c, 13, 61, 0
17, 184200, Note_on_c, 13, 57, 76
17, 184299, Note_on_c, 13, 57, 0
17, 184320, Note_on_c, 13, 57, 76
17, 184439, Note_on_c, 13, 57, 0
17, 184440, Note_on_c, 13, 59, 76
17, 184539, Note_on_c, 13, 59, 0
17, 184560, Note_on_c, 13, 56, 76
17, 184659, Note_on_c, 13, 56, 0
17, 184680, Note_on_c, 13, 56, 76
17, 184934, Note_on_c, 13, 56, 0
17, 184950, Note_on_c, 13, 56, 76
17, 185024, Note_on_c, 13, 56, 0
17, 185040, Note_on_c, 13, 56, 76
17, 185294, Note_on_c, 13, 56, 0
17, 185310, Note_on_c, 13, 56, 76
17, 185384, Note_on_c, 13, 56, 0
17, 185400, Note_on_c, 13, 56, 76
17, 185654, Note_on_c, 13, 56, 0
17, 185670, Note_on_c, 13, 56, 76
17, 185744, Note_on_c, 13, 56, 0
17, 185760, Note_on_c, 13, 57, 76
17, 186014, Note_on_c, 13, 57, 0
17, 186030, Note_on_c, 13, 55, 76
17, 186104, Note_on_c, 13, 55, 0
17, 186120, Note_on_c, 13, 54, 76
17, 186374, Note_on_c, 13, 54, 0
17, 186390, Note_on_c, 13, 54, 76
17, 186464, Note_on_c, 13, 54, 0
17, 186480, Note_on_c, 13, 54, 76
17, 186734, Note_on_c, 13, 54, 0
17, 186750, Note_on_c, 13, 54, 76
17, 186824, Note_on_c, 13, 54, 0
17, 186840, Note_on_c, 13, 55, 76
17, 186959, Note_on_c, 13, 55, 0
17, 186960, Note_on_c, 13, 52, 76
17, 187079, Note_on_c, 13, 52, 0
17, 187080, Note_on_c, 13, 54, 76
17, 187179, Note_on_c, 13, 54, 0
17, 187200, Note_on_c, 13, 55, 76
17, 187319, Note_on_c, 13, 55, 0
17, 187320, Note_on_c, 13, 57, 76
17, 187419, Note_on_c, 13, 57, 0
17, 187440, Note_on_c, 13, 54, 76
17, 187539, Note_on_c, 13, 54, 0
17, 187560, Note_on_c, 13, 54, 76
17, 187679, Note_on_c, 13, 54, 0
17, 187680, Note_on_c, 13, 55, 76
17, 187779, Note_on_c, 13, 55, 0
17, 187800, Note_on_c, 13, 52, 76
17, 187899, Note_on_c, 13, 52, 0
17, 187920, Note_on_c, 13, 52, 76
17, 188039, Note_on_c, 13, 52, 0
17, 188280, Note_on_c, 13, 40, 76
17, 188399, Note_on_c, 13, 40, 0
17, 188640, Note_on_c, 13, 52, 76
17, 188759, Note_on_c, 13, 52, 0
17, 189000, Note_on_c, 13, 57, 76
17, 189119, Note_on_c, 13, 57, 0
17, 189360, Note_on_c, 13, 45, 76
17, 189479, Note_on_c, 13, 45, 0
17, 189720, Note_on_c, 13, 57, 76
17, 189839, Note_on_c, 13, 57, 0
17, 190080, Note_on_c, 13, 62, 76
17, 190199, Note_on_c, 13, 62, 0
17, 190440, Note_on_c, 13, 38, 76
17, 190559, Note_on_c, 13, 38, 0
17, 190800, Note_on_c, 13, 50, 76
17, 190919, Note_on_c, 13, 50, 0
17, 191160, Note_on_c, 13, 55, 76
17, 191279, Note_on_c, 13, 55, 0
17, 191790, Note_on_c, 13, 52, 76
17, 191864, Note_on_c, 13, 52, 0
17, 191880, Note_on_c, 13, 54, 76
17, 192134, Note_on_c, 13, 54, 0
17, 192150, Note_on_c, 13, 55, 76
17, 192224, Note_on_c, 13, 55, 0
17, 192240, Note_on_c, 13, 57, 76
17, 192359, Note_on_c, 13, 57, 0
17, 192870, Note_on_c, 13, 54, 76
17, 192944, Note_on_c, 13, 54, 0
17, 192960, Note_on_c, 13, 55, 76
17, 193214, Note_on_c, 13, 55, 0
17, 193230, Note_on_c, 13, 57, 76
17, 193304, Note_on_c, 13, 57, 0
17, 193320, Note_on_c, 13, 59, 76
17, 193439, Note_on_c, 13, 59, 0
17, 193680, Note_on_c, 13, 55, 76
17, 193799, Note_on_c, 13, 55, 0
17, 194040, Note_on_c, 13, 54, 76
17, 194159, Note_on_c, 13, 54, 0
17, 194400, Note_on_c, 13, 52, 76
17, 194519, Note_on_c, 13, 52, 0
17, 194520, Note_on_c, 13, 55, 76
17, 194639, Note_on_c, 13, 55, 0
17, 194640, Note_on_c, 13, 59, 76
17, 194739, Note_on_c, 13, 59, 0
17, 194760, Note_on_c, 13, 64, 76
17, 194879, Note_on_c, 13, 64, 0
17, 194880, Note_on_c, 13, 66, 76
17, 194979, Note_on_c, 13, 66, 0
17, 195000, Note_on_c, 13, 62, 76
17, 195099, Note_on_c, 13, 62, 0
17, 195120, Note_on_c, 13, 62, 76
17, 195239, Note_on_c, 13, 62, 0
17, 195240, Note_on_c, 13, 64, 76
17, 195339, Note_on_c, 13, 64, 0
17, 195360, Note_on_c, 13, 61, 76
17, 195459, Note_on_c, 13, 61, 0
17, 195480, Note_on_c, 13, 61, 76
17, 195599, Note_on_c, 13, 61, 0
17, 196110, Note_on_c, 13, 57, 76
17, 196184, Note_on_c, 13, 57, 0
17, 196200, Note_on_c, 13, 54, 76
17, 196454, Note_on_c, 13, 54, 0
17, 196470, Note_on_c, 13, 57, 76
17, 196544, Note_on_c, 13, 57, 0
17, 196560, Note_on_c, 13, 50, 76
17, 196814, Note_on_c, 13, 50, 0
17, 196830, Note_on_c, 13, 52, 76
17, 196904, Note_on_c, 13, 52, 0
17, 196920, Note_on_c, 13, 54, 76
17, 197174, Note_on_c, 13, 54, 0
17, 197190, Note_on_c, 13, 55, 76
17, 197264, Note_on_c, 13, 55, 0
17, 197280, Note_on_c, 13, 57, 76
17, 197534, Note_on_c, 13, 57, 0
17, 197550, Note_on_c, 13, 45, 76
17, 197624, Note_on_c, 13, 45, 0
17, 197640, Note_on_c, 13, 50, 76
17, 197894, Note_on_c, 13, 50, 0
17, 197910, Note_on_c, 13, 54, 76
17, 197984, Note_on_c, 13, 54, 0
17, 198000, Note_on_c, 13, 54, 76
17, 198119, Note_on_c, 13, 54, 0
17, 198120, Note_on_c, 13, 55, 76
17, 198219, Note_on_c, 13, 55, 0
17, 198240, Note_on_c, 13, 52, 76
17, 198339, Note_on_c, 13, 52, 0
17, 198360, Note_on_c, 13, 52, 76
17, 198479, Note_on_c, 13, 52, 0
17, 198480, Note_on_c, 13, 54, 76
17, 198579, Note_on_c, 13, 54, 0
17, 198600, Note_on_c, 13, 50, 76
17, 198699, Note_on_c, 13, 50, 0
17, 198720, Note_on_c, 13, 50, 76
17, 198839, Note_on_c, 13, 50, 0
17, 198840, Note_on_c, 13, 52, 76
17, 198959, Note_on_c, 13, 52, 0
17, 198960, Note_on_c, 13, 54, 76
17, 199059, Note_on_c, 13, 54, 0
17, 199080, Note_on_c, 13, 54, 76
17, 199199, Note_on_c, 13, 54, 0
17, 199200, Note_on_c, 13, 55, 76
17, 199299, Note_on_c, 13, 55, 0
17, 199320, Note_on_c, 13, 52, 76
17, 199419, Note_on_c, 13, 52, 0
17, 199440, Note_on_c, 13, 52, 76
17, 199559, Note_on_c, 13, 52, 0
17, 199560, Note_on_c, 13, 54, 76
17, 199659, Note_on_c, 13, 54, 0
17, 199680, Note_on_c, 13, 50, 76
17, 199779, Note_on_c, 13, 50, 0
17, 199800, Note_on_c, 13, 50, 76
17, 200279, Note_on_c, 13, 50, 0
17, 200280, Note_on_c, 13, 50, 76
17, 200573, Note_on_c, 13, 50, 0
17, 200580, Note_on_c, 13, 52, 76
17, 200633, Note_on_c, 13, 52, 0
17, 200640, Note_on_c, 13, 54, 76
17, 200693, Note_on_c, 13, 54, 0
17, 200700, Note_on_c, 13, 50, 76
17, 200753, Note_on_c, 13, 50, 0
17, 200760, Note_on_c, 13, 60, 76
17, 201239, Note_on_c, 13, 60, 0
17, 201240, Note_on_c, 13, 60, 76
17, 201533, Note_on_c, 13, 60, 0
17, 201540, Note_on_c, 13, 59, 76
17, 201593, Note_on_c, 13, 59, 0
17, 201600, Note_on_c, 13, 60, 76
17, 201653, Note_on_c, 13, 60, 0
17, 201660, Note_on_c, 13, 57, 76
17, 201713, Note_on_c, 13, 57, 0
17, 201720, Note_on_c, 13, 63, 76
17, 202253, Note_on_c, 13, 63, 0
17, 202260, Note_on_c, 13, 61, 76
17, 202313, Note_on_c, 13, 61, 0
17, 202320, Note_on_c, 13, 59, 76
17, 202373, Note_on_c, 13, 59, 0
17, 202380, Note_on_c, 13, 61, 76
17, 202433, Note_on_c, 13, 61, 0
17, 202440, Note_on_c, 13, 63, 76
17, 202493, Note_on_c, 13, 63, 0
17, 202500, Note_on_c, 13, 61, 76
17, 202553, Note_on_c, 13, 61, 0
17, 202560, Note_on_c, 13, 63, 76
17, 202613, Note_on_c, 13, 63, 0
17, 202620, Note_on_c, 13, 59, 76
17, 202673, Note_on_c, 13, 59, 0
17, 202680, Note_on_c, 13, 64, 76
17, 202853, Note_on_c, 13, 64, 0
17, 202860, Note_on_c, 13, 59, 76
17, 202913, Note_on_c, 13, 59, 0
17, 202920, Note_on_c, 13, 59, 76
17, 203093, Note_on_c, 13, 59, 0
17, 203100, Note_on_c, 13, 55, 76
17, 203153, Note_on_c, 13, 55, 0
17, 203160, Note_on_c, 13, 55, 76
17, 203333, Note_on_c, 13, 55, 0
17, 203340, Note_on_c, 13, 52, 76
17, 203393, Note_on_c, 13, 52, 0
17, 203400, Note_on_c, 13, 52, 76
17, 203573, Note_on_c, 13, 52, 0
17, 203580, Note_on_c, 13, 45, 76
17, 203633, Note_on_c, 13, 45, 0
17, 203640, Note_on_c, 13, 45, 76
17, 203813, Note_on_c, 13, 45, 0
17, 203820, Note_on_c, 13, 57, 76
17, 203873, Note_on_c, 13, 57, 0
17, 203880, Note_on_c, 13, 57, 76
17, 204053, Note_on_c, 13, 57, 0
17, 204060, Note_on_c, 13, 52, 76
17, 204113, Note_on_c, 13, 52, 0
17, 204120, Note_on_c, 13, 52, 76
17, 204293, Note_on_c, 13, 52, 0
17, 204300, Note_on_c, 13, 49, 76
17, 204353, Note_on_c, 13, 49, 0
17, 204360, Note_on_c, 13, 49, 76
17, 204533, Note_on_c, 13, 49, 0
17, 204540, Note_on_c, 13, 45, 76
17, 204593, Note_on_c, 13, 45, 0
17, 204600, Note_on_c, 13, 50, 76
17, 204773, Note_on_c, 13, 50, 0
17, 204780, Note_on_c, 13, 45, 76
17, 204833, Note_on_c, 13, 45, 0
17, 204840, Note_on_c, 13, 45, 76
17, 205013, Note_on_c, 13, 45, 0
17, 205020, Note_on_c, 13, 42, 76
17, 205073, Note_on_c, 13, 42, 0
17, 205080, Note_on_c, 13, 42, 76
17, 205253, Note_on_c, 13, 42, 0
17, 205260, Note_on_c, 13, 38, 76
17, 205313, Note_on_c, 13, 38, 0
17, 205320, Note_on_c, 13, 38, 76
17, 205493, Note_on_c, 13, 38, 0
17, 205500, Note_on_c, 13, 42, 76
17, 205553, Note_on_c, 13, 42, 0
17, 205560, Note_on_c, 13, 43, 76
17, 205733, Note_on_c, 13, 43, 0
17, 205740, Note_on_c, 13, 47, 76
17, 205793, Note_on_c, 13, 47, 0
17, 205800, Note_on_c, 13, 47, 76
17, 205973, Note_on_c, 13, 47, 0
17, 205980, Note_on_c, 13, 52, 76
17, 206033, Note_on_c, 13, 52, 0
17, 206040, Note_on_c, 13, 52, 76
17, 206213, Note_on_c, 13, 52, 0
17, 206220, Note_on_c, 13, 55, 76
17, 206273, Note_on_c, 13, 55, 0
17, 206280, Note_on_c, 13, 55, 76
17, 206453, Note_on_c, 13, 55, 0
17, 206460, Note_on_c, 13, 52, 76
17, 206513, Note_on_c, 13, 52, 0
17, 206520, Note_on_c, 13, 49, 76
17, 206693, Note_on_c, 13, 49, 0
17, 206700, Note_on_c, 13, 45, 76
17, 206753, Note_on_c, 13, 45, 0
17, 206760, Note_on_c, 13, 45, 76
17, 206933, Note_on_c, 13, 45, 0
17, 206940, Note_on_c, 13, 49, 76
17, 206993, Note_on_c, 13, 49, 0
17, 207000, Note_on_c, 13, 50, 76
17, 207479, Note_on_c, 13, 50, 0
17, 207480, Note_on_c, 13, 50, 76
17, 207773, Note_on_c, 13, 50, 0
17, 207780, Note_on_c, 13, 49, 76
17, 207833, Note_on_c, 13, 49, 0
17, 207840, Note_on_c, 13, 50, 76
17, 207893, Note_on_c, 13, 50, 0
17, 207900, Note_on_c, 13, 47, 76
17, 207953, Note_on_c, 13, 47, 0
17, 207960, Note_on_c, 13, 49, 76
17, 208189, Note_on_c, 13, 49, 0
17, 208200, Note_on_c, 13, 45, 76
17, 208429, Note_on_c, 13, 45, 0
17, 208440, Note_on_c, 13, 50, 76
17, 208973, Note_on_c, 13, 50, 0
17, 208980, Note_on_c, 13, 50, 76
17, 209033, Note_on_c, 13, 50, 0
17, 209040, Note_on_c, 13, 52, 76
17, 209093, Note_on_c, 13, 52, 0
17, 209100, Note_on_c, 13, 54, 76
17, 209153, Note_on_c, 13, 54, 0
17, 209160, Note_on_c, 13, 55, 76
17, 209213, Note_on_c, 13, 55, 0
17, 209220, Note_on_c, 13, 54, 76
17, 209273, Note_on_c, 13, 54, 0
17, 209280, Note_on_c, 13, 55, 76
17, 209333, Note_on_c, 13, 55, 0
17, 209340, Note_on_c, 13, 52, 76
17, 209371, Note_on_c, 13, 52, 0
17, 209380, Note_on_c, 13, 50, 76
17, 209399, Note_on_c, 13, 50, 0
17, 209400, Note_on_c, 13, 49, 76
17, 209749, Note_on_c, 13, 49, 0
17, 209760, Note_on_c, 13, 47, 76
17, 209869, Note_on_c, 13, 47, 0
17, 209880, Note_on_c, 13, 46, 76
17, 210109, Note_on_c, 13, 46, 0
17, 210120, Note_on_c, 13, 42, 76
17, 210349, Note_on_c, 13, 42, 0
17, 210360, Note_on_c, 13, 47, 76
17, 210893, Note_on_c, 13, 47, 0
17, 210900, Note_on_c, 13, 45, 76
17, 210953, Note_on_c, 13, 45, 0
17, 210960, Note_on_c, 13, 47, 76
17, 211013, Note_on_c, 13, 47, 0
17, 211020, Note_on_c, 13, 49, 76
17, 211073, Note_on_c, 13, 49, 0
17, 211080, Note_on_c, 13, 50, 76
17, 211133, Note_on_c, 13, 50, 0
17, 211140, Note_on_c, 13, 49, 76
17, 211193, Note_on_c, 13, 49, 0
17, 211200, Note_on_c, 13, 50, 76
17, 211253, Note_on_c, 13, 50, 0
17, 211260, Note_on_c, 13, 47, 76
17, 211313, Note_on_c, 13, 47, 0
17, 211320, Note_on_c, 13, 49, 76
17, 211493, Note_on_c, 13, 49, 0
17, 211500, Note_on_c, 13, 45, 76
17, 211553, Note_on_c, 13, 45, 0
17, 211560, Note_on_c, 13, 50, 76
17, 211733, Note_on_c, 13, 50, 0
17, 211740, Note_on_c, 13, 52, 76
17, 211793, Note_on_c, 13, 52, 0
17, 211800, Note_on_c, 13, 54, 76
17, 211973, Note_on_c, 13, 54, 0
17, 211980, Note_on_c, 13, 55, 76
17, 212033, Note_on_c, 13, 55, 0
17, 212040, Note_on_c, 13, 52, 76
17, 212213, Note_on_c, 13, 52, 0
17, 212220, Note_on_c, 13, 50, 76
17, 212273, Note_on_c, 13, 50, 0
17, 212280, Note_on_c, 13, 45, 76
17, 212759, Note_on_c, 13, 45, 0
17, 212760, Note_on_c, 13, 45, 76
17, 213173, Note_on_c, 13, 45, 0
17, 213180, Note_on_c, 13, 45, 76
17, 213233, Note_on_c, 13, 45, 0
17, 213240, Note_on_c, 13, 45, 76
17, 213719, Note_on_c, 13, 45, 0
17, 213720, Note_on_c, 13, 45, 76
17, 214133, Note_on_c, 13, 45, 0
17, 214140, Note_on_c, 13, 45, 76
17, 214193, Note_on_c, 13, 45, 0
17, 214200, Note_on_c, 13, 45, 76
17, 214679, Note_on_c, 13, 45, 0
17, 214680, Note_on_c, 13, 45, 76
17, 215093, Note_on_c, 13, 45, 0
17, 215100, Note_on_c, 13, 45, 76
17, 215153, Note_on_c, 13, 45, 0
17, 215160, Note_on_c, 13, 45, 76
17, 215639, Note_on_c, 13, 45, 0
17, 215640, Note_on_c, 13, 45, 76
17, 216053, Note_on_c, 13, 45, 0
17, 216060, Note_on_c, 13, 45, 76
17, 216113, Note_on_c, 13, 45, 0
17, 216120, Note_on_c, 13, 45, 76
17, 216653, Note_on_c, 13, 45, 0
17, 216660, Note_on_c, 13, 47, 76
17, 216713, Note_on_c, 13, 47, 0
17, 216720, Note_on_c, 13, 45, 76
17, 216773, Note_on_c, 13, 45, 0
17, 216780, Note_on_c, 13, 43, 76
17, 216833, Note_on_c, 13, 43, 0
17, 216840, Note_on_c, 13, 42, 76
17, 216893, Note_on_c, 13, 42, 0
17, 216900, Note_on_c, 13, 40, 76
17, 216953, Note_on_c, 13, 40, 0
17, 216960, Note_on_c, 13, 42, 76
17, 217013, Note_on_c, 13, 42, 0
17, 217020, Note_on_c, 13, 38, 76
17, 217073, Note_on_c, 13, 38, 0
17, 217080, Note_on_c, 13, 47, 76
17, 217613, Note_on_c, 13, 47, 0
17, 217620, Note_on_c, 13, 48, 76
17, 217673, Note_on_c, 13, 48, 0
17, 217680, Note_on_c, 13, 47, 76
17, 217733, Note_on_c, 13, 47, 0
17, 217740, Note_on_c, 13, 45, 76
17, 217793, Note_on_c, 13, 45, 0
17, 217800, Note_on_c, 13, 43, 76
17, 217853, Note_on_c, 13, 43, 0
17, 217860, Note_on_c, 13, 42, 76
17, 217913, Note_on_c, 13, 42, 0
17, 217920, Note_on_c, 13, 43, 76
17, 217973, Note_on_c, 13, 43, 0
17, 217980, Note_on_c, 13, 40, 76
17, 218033, Note_on_c, 13, 40, 0
17, 218040, Note_on_c, 13, 49, 76
17, 218213, Note_on_c, 13, 49, 0
17, 218220, Note_on_c, 13, 45, 76
17, 218273, Note_on_c, 13, 45, 0
17, 218280, Note_on_c, 13, 50, 76
17, 218453, Note_on_c, 13, 50, 0
17, 218460, Note_on_c, 13, 43, 76
17, 218513, Note_on_c, 13, 43, 0
17, 218520, Note_on_c, 13, 45, 76
17, 218749, Note_on_c, 13, 45, 0
17, 218760, Note_on_c, 13, 45, 76
17, 218989, Note_on_c, 13, 45, 0
17, 219000, Note_on_c, 13, 50, 76
17, 219000, Note_on_c, 13, 38, 76
17, 219219, Note_on_c, 13, 50, 0
17, 219239, Note_on_c, 13, 38, 0
17, 219240, Note_on_c, 13, 52, 76
17, 219339, Note_on_c, 13, 52, 0
17, 219360, Note_on_c, 13, 54, 76
17, 219479, Note_on_c, 13, 54, 0
17, 219480, Note_on_c, 13, 57, 76
17, 219579, Note_on_c, 13, 57, 0
17, 219600, Note_on_c, 13, 56, 76
17, 219699, Note_on_c, 13, 56, 0
17, 219720, Note_on_c, 13, 56, 76
17, 219839, Note_on_c, 13, 56, 0
17, 219840, Note_on_c, 13, 59, 76
17, 219939, Note_on_c, 13, 59, 0
17, 219960, Note_on_c, 13, 57, 76
17, 220059, Note_on_c, 13, 57, 0
17, 220080, Note_on_c, 13, 57, 76
17, 220439, Note_on_c, 13, 57, 0
17, 225720, Note_on_c, 13, 62, 76
17, 225819, Note_on_c, 13, 62, 0
17, 225840, Note_on_c, 13, 62, 76
17, 225959, Note_on_c, 13, 62, 0
17, 225960, Note_on_c, 13, 64, 76
17, 226059, Note_on_c, 13, 64, 0
17, 226080, Note_on_c, 13, 60, 76
17, 226179, Note_on_c, 13, 60, 0
17, 226200, Note_on_c, 13, 60, 76
17, 226319, Note_on_c, 13, 60, 0
17, 226320, Note_on_c, 13, 62, 76
17, 226419, Note_on_c, 13, 62, 0
17, 226440, Note_on_c, 13, 59, 76
17, 226539, Note_on_c, 13, 59, 0
17, 226560, Note_on_c, 13, 59, 76
17, 226679, Note_on_c, 13, 59, 0
17, 226680, Note_on_c, 13, 61, 76
17, 226799, Note_on_c, 13, 61, 0
17, 226800, Note_on_c, 13, 62, 76
17, 226899, Note_on_c, 13, 62, 0
17, 226920, Note_on_c, 13, 64, 76
17, 227039, Note_on_c, 13, 64, 0
17, 227040, Note_on_c, 13, 66, 76
17, 227139, Note_on_c, 13, 66, 0
17, 227160, Note_on_c, 13, 62, 76
17, 227259, Note_on_c, 13, 62, 0
17, 227280, Note_on_c, 13, 62, 76
17, 227399, Note_on_c, 13, 62, 0
17, 227400, Note_on_c, 13, 64, 76
17, 227499, Note_on_c, 13, 64, 0
17, 227520, Note_on_c, 13, 61, 76
17, 227619, Note_on_c, 13, 61, 0
17, 227640, Note_on_c, 13, 61, 76
17, 227894, Note_on_c, 13, 61, 0
17, 227910, Note_on_c, 13, 61, 76
17, 227984, Note_on_c, 13, 61, 0
17, 228000, Note_on_c, 13, 61, 76
17, 228254, Note_on_c, 13, 61, 0
17, 228270, Note_on_c, 13, 61, 76
17, 228344, Note_on_c, 13, 61, 0
17, 228360, Note_on_c, 13, 61, 76
17, 228614, Note_on_c, 13, 61, 0
17, 228630, Note_on_c, 13, 61, 76
17, 228704, Note_on_c, 13, 61, 0
17, 228720, Note_on_c, 13, 62, 76
17, 228974, Note_on_c, 13, 62, 0
17, 228990, Note_on_c, 13, 57, 76
17, 229064, Note_on_c, 13, 57, 0
17, 229080, Note_on_c, 13, 57, 76
17, 229199, Note_on_c, 13, 57, 0
17, 229200, Note_on_c, 13, 59, 76
17, 229299, Note_on_c, 13, 59, 0
17, 229320, Note_on_c, 13, 55, 76
17, 229419, Note_on_c, 13, 55, 0
17, 229440, Note_on_c, 13, 55, 76
17, 229559, Note_on_c, 13, 55, 0
17, 229560, Note_on_c, 13, 57, 76
17, 229659, Note_on_c, 13, 57, 0
17, 229680, Note_on_c, 13, 54, 76
17, 229779, Note_on_c, 13, 54, 0
17, 229800, Note_on_c, 13, 54, 76
17, 229919, Note_on_c, 13, 54, 0
17, 229920, Note_on_c, 13, 56, 76
17, 230039, Note_on_c, 13, 56, 0
17, 230040, Note_on_c, 13, 57, 76
17, 230139, Note_on_c, 13, 57, 0
17, 230160, Note_on_c, 13, 59, 76
17, 230279, Note_on_c, 13, 59, 0
17, 230280, Note_on_c, 13, 61, 76
17, 230379, Note_on_c, 13, 61, 0
17, 230400, Note_on_c, 13, 57, 76
17, 230499, Note_on_c, 13, 57, 0
17, 230520, Note_on_c, 13, 57, 76
17, 230639, Note_on_c, 13, 57, 0
17, 230640, Note_on_c, 13, 59, 76
17, 230739, Note_on_c, 13, 59, 0
17, 230760, Note_on_c, 13, 56, 76
17, 230859, Note_on_c, 13, 56, 0
17, 230880, Note_on_c, 13, 56, 76
17, 231134, Note_on_c, 13, 56, 0
17, 231150, Note_on_c, 13, 56, 76
17, 231224, Note_on_c, 13, 56, 0
17, 231240, Note_on_c, 13, 56, 76
17, 231494, Note_on_c, 13, 56, 0
17, 231510, Note_on_c, 13, 56, 76
17, 231584, Note_on_c, 13, 56, 0
17, 231600, Note_on_c, 13, 56, 76
17, 231854, Note_on_c, 13, 56, 0
17, 231870, Note_on_c, 13, 56, 76
17, 231944, Note_on_c, 13, 56, 0
17, 231960, Note_on_c, 13, 57, 76
17, 232214, Note_on_c, 13, 57, 0
17, 232230, Note_on_c, 13, 55, 76
17, 232304, Note_on_c, 13, 55, 0
17, 232320, Note_on_c, 13, 54, 76
17, 232574, Note_on_c, 13, 54, 0
17, 232590, Note_on_c, 13, 54, 76
17, 232664, Note_on_c, 13, 54, 0
17, 232680, Note_on_c, 13, 54, 76
17, 232934, Note_on_c, 13, 54, 0
17, 232950, Note_on_c, 13, 54, 76
17, 233024, Note_on_c, 13, 54, 0
17, 233040, Note_on_c, 13, 55, 76
17, 233159, Note_on_c, 13, 55, 0
17, 233160, Note_on_c, 13, 52, 76
17, 233279, Note_on_c, 13, 52, 0
17, 233280, Note_on_c, 13, 54, 76
17, 233379, Note_on_c, 13, 54, 0
17, 233400, Note_on_c, 13, 55, 76
17, 233519, Note_on_c, 13, 55, 0
17, 233520, Note_on_c, 13, 57, 76
17, 233619, Note_on_c, 13, 57, 0
17, 233640, Note_on_c, 13, 54, 76
17, 233739, Note_on_c, 13, 54, 0
17, 233760, Note_on_c, 13, 54, 76
17, 233879, Note_on_c, 13, 54, 0
17, 233880, Note_on_c, 13, 55, 76
17, 233979, Note_on_c, 13, 55, 0
17, 234000, Note_on_c, 13, 52, 76
17, 234099, Note_on_c, 13, 52, 0
17, 234120, Note_on_c, 13, 52, 76
17, 234239, Note_on_c, 13, 52, 0
17, 234480, Note_on_c, 13, 40, 76
17, 234599, Note_on_c, 13, 40, 0
17, 234840, Note_on_c, 13, 52, 76
17, 234959, Note_on_c, 13, 52, 0
17, 235200, Note_on_c, 13, 57, 76
17, 235319, Note_on_c, 13, 57, 0
17, 235560, Note_on_c, 13, 45, 76
17, 235679, Note_on_c, 13, 45, 0
17, 235920, Note_on_c, 13, 57, 76
17, 236039, Note_on_c, 13, 57, 0
17, 236280, Note_on_c, 13, 62, 76
17, 236399, Note_on_c, 13, 62, 0
17, 236640, Note_on_c, 13, 38, 76
17, 236759, Note_on_c, 13, 38, 0
17, 237000, Note_on_c, 13, 50, 76
17, 237119, Note_on_c, 13, 50, 0
17, 237360, Note_on_c, 13, 55, 76
17, 237479, Note_on_c, 13, 55, 0
17, 237990, Note_on_c, 13, 52, 76
17, 238064, Note_on_c, 13, 52, 0
17, 238080, Note_on_c, 13, 54, 76
17, 238334, Note_on_c, 13, 54, 0
17, 238350, Note_on_c, 13, 55, 76
17, 238424, Note_on_c, 13, 55, 0
17, 238440, Note_on_c, 13, 57, 76
17, 238559, Note_on_c, 13, 57, 0
17, 239070, Note_on_c, 13, 54, 76
17, 239144, Note_on_c, 13, 54, 0
17, 239160, Note_on_c, 13, 55, 76
17, 239414, Note_on_c, 13, 55, 0
17, 239430, Note_on_c, 13, 57, 76
17, 239504, Note_on_c, 13, 57, 0
17, 239520, Note_on_c, 13, 59, 76
17, 239639, Note_on_c, 13, 59, 0
17, 239880, Note_on_c, 13, 55, 76
17, 239999, Note_on_c, 13, 55, 0
17, 240240, Note_on_c, 13, 54, 76
17, 240359, Note_on_c, 13, 54, 0
17, 240600, Note_on_c, 13, 52, 76
17, 240719, Note_on_c, 13, 52, 0
17, 240720, Note_on_c, 13, 55, 76
17, 240839, Note_on_c, 13, 55, 0
17, 240840, Note_on_c, 13, 59, 76
17, 240939, Note_on_c, 13, 59, 0
17, 240960, Note_on_c, 13, 64, 76
17, 241079, Note_on_c, 13, 64, 0
17, 241080, Note_on_c, 13, 66, 76
17, 241179, Note_on_c, 13, 66, 0
17, 241200, Note_on_c, 13, 62, 76
17, 241299, Note_on_c, 13, 62, 0
17, 241320, Note_on_c, 13, 62, 76
17, 241439, Note_on_c, 13, 62, 0
17, 241440, Note_on_c, 13, 64, 76
17, 241539, Note_on_c, 13, 64, 0
17, 241560, Note_on_c, 13, 61, 76
17, 241659, Note_on_c, 13, 61, 0
17, 241680, Note_on_c, 13, 61, 76
17, 241799, Note_on_c, 13, 61, 0
17, 242310, Note_on_c, 13, 57, 76
17, 242384, Note_on_c, 13, 57, 0
17, 242400, Note_on_c, 13, 54, 76
17, 242654, Note_on_c, 13, 54, 0
17, 242670, Note_on_c, 13, 57, 76
17, 242744, Note_on_c, 13, 57, 0
17, 242760, Note_on_c, 13, 50, 76
17, 243014, Note_on_c, 13, 50, 0
17, 243030, Note_on_c, 13, 52, 76
17, 243104, Note_on_c, 13, 52, 0
17, 243120, Note_on_c, 13, 54, 76
17, 243374, Note_on_c, 13, 54, 0
17, 243390, Note_on_c, 13, 55, 76
17, 243464, Note_on_c, 13, 55, 0
17, 243480, Note_on_c, 13, 57, 76
17, 243734, Note_on_c, 13, 57, 0
17, 243750, Note_on_c, 13, 45, 76
17, 243824, Note_on_c, 13, 45, 0
17, 243840, Note_on_c, 13, 50, 76
17, 243959, Note_on_c, 13, 50, 0
17, 244920, Note_on_c, 13, 38, 76
17, 245039, Note_on_c, 13, 38, 0
17, 246000, Note_on_c, 13, 50, 76
17, 246119, Note_on_c, 13, 50, 0
17, 266520, Note_on_c, 13, 45, 76
17, 266639, Note_on_c, 13, 45, 0
17, 266790, Note_on_c, 13, 61, 76
17, 266864, Note_on_c, 13, 61, 0
17, 266880, Note_on_c, 13, 49, 76
17, 266880, Note_on_c, 13, 61, 76
17, 266999, Note_on_c, 13, 49, 0
17, 266999, Note_on_c, 13, 61, 0
17, 267000, Note_on_c, 13, 62, 76
17, 267099, Note_on_c, 13, 62, 0
17, 267120, Note_on_c, 13, 59, 76
17, 267219, Note_on_c, 13, 59, 0
17, 267240, Note_on_c, 13, 52, 76
17, 267240, Note_on_c, 13, 59, 76
17, 267359, Note_on_c, 13, 52, 0
17, 267359, Note_on_c, 13, 59, 0
17, 267360, Note_on_c, 13, 61, 76
17, 267459, Note_on_c, 13, 61, 0
17, 267480, Note_on_c, 13, 57, 76
17, 267579, Note_on_c, 13, 57, 0
17, 267600, Note_on_c, 13, 57, 76
17, 267719, Note_on_c, 13, 57, 0
17, 267720, Note_on_c, 13, 59, 76
17, 267839, Note_on_c, 13, 59, 0
17, 267840, Note_on_c, 13, 61, 76
17, 267939, Note_on_c, 13, 61, 0
17, 267960, Note_on_c, 13, 61, 76
17, 267960, Note_on_c, 13, 49, 76
17, 268079, Note_on_c, 13, 61, 0
17, 268079, Note_on_c, 13, 49, 0
17, 268080, Note_on_c, 13, 62, 76
17, 268179, Note_on_c, 13, 62, 0
17, 268200, Note_on_c, 13, 59, 76
17, 268299, Note_on_c, 13, 59, 0
17, 268320, Note_on_c, 13, 52, 76
17, 268320, Note_on_c, 13, 59, 76
17, 268439, Note_on_c, 13, 52, 0
17, 268439, Note_on_c, 13, 59, 0
17, 268440, Note_on_c, 13, 61, 76
17, 268539, Note_on_c, 13, 61, 0
17, 268560, Note_on_c, 13, 57, 76
17, 268659, Note_on_c, 13, 57, 0
17, 268680, Note_on_c, 13, 57, 76
17, 268680, Note_on_c, 13, 45, 76
17, 268799, Note_on_c, 13, 57, 0
17, 268799, Note_on_c, 13, 45, 0
17, 270030, Note_on_c, 13, 57, 76
17, 270104, Note_on_c, 13, 57, 0
17, 270120, Note_on_c, 13, 57, 76
17, 270239, Note_on_c, 13, 57, 0
17, 270240, Note_on_c, 13, 59, 76
17, 270339, Note_on_c, 13, 59, 0
17, 270360, Note_on_c, 13, 56, 76
17, 270459, Note_on_c, 13, 56, 0
17, 270480, Note_on_c, 13, 56, 76
17, 270599, Note_on_c, 13, 56, 0
17, 270600, Note_on_c, 13, 57, 76
17, 270699, Note_on_c, 13, 57, 0
17, 270720, Note_on_c, 13, 54, 76
17, 270819, Note_on_c, 13, 54, 0
17, 270840, Note_on_c, 13, 54, 76
17, 270959, Note_on_c, 13, 54, 0
17, 270960, Note_on_c, 13, 56, 76
17, 271079, Note_on_c, 13, 56, 0
17, 271080, Note_on_c, 13, 57, 76
17, 271199, Note_on_c, 13, 57, 0
17, 271200, Note_on_c, 13, 59, 76
17, 271319, Note_on_c, 13, 59, 0
17, 271320, Note_on_c, 13, 61, 76
17, 271419, Note_on_c, 13, 61, 0
17, 271440, Note_on_c, 13, 57, 76
17, 271539, Note_on_c, 13, 57, 0
17, 271560, Note_on_c, 13, 57, 76
17, 271679, Note_on_c, 13, 57, 0
17, 271680, Note_on_c, 13, 59, 76
17, 271779, Note_on_c, 13, 59, 0
17, 271800, Note_on_c, 13, 56, 76
17, 271899, Note_on_c, 13, 56, 0
17, 271920, Note_on_c, 13, 56, 76
17, 272174, Note_on_c, 13, 56, 0
17, 272190, Note_on_c, 13, 56, 76
17, 272264, Note_on_c, 13, 56, 0
17, 272280, Note_on_c, 13, 56, 76
17, 272534, Note_on_c, 13, 56, 0
17, 272550, Note_on_c, 13, 56, 76
17, 272624, Note_on_c, 13, 56, 0
17, 272640, Note_on_c, 13, 56, 76
17, 272894, Note_on_c, 13, 56, 0
17, 272910, Note_on_c, 13, 56, 76
17, 272984, Note_on_c, 13, 56, 0
17, 273000, Note_on_c, 13, 57, 76
17, 273254, Note_on_c, 13, 57, 0
17, 273270, Note_on_c, 13, 52, 76
17, 273344, Note_on_c, 13, 52, 0
17, 273360, Note_on_c, 13, 52, 76
17, 273479, Note_on_c, 13, 52, 0
17, 273480, Note_on_c, 13, 54, 76
17, 273579, Note_on_c, 13, 54, 0
17, 273600, Note_on_c, 13, 50, 76
17, 273699, Note_on_c, 13, 50, 0
17, 273720, Note_on_c, 13, 50, 76
17, 273839, Note_on_c, 13, 50, 0
17, 273840, Note_on_c, 13, 52, 76
17, 273939, Note_on_c, 13, 52, 0
17, 273960, Note_on_c, 13, 49, 76
17, 274059, Note_on_c, 13, 49, 0
17, 274080, Note_on_c, 13, 49, 76
17, 274199, Note_on_c, 13, 49, 0
17, 274200, Note_on_c, 13, 50, 76
17, 274319, Note_on_c, 13, 50, 0
17, 274320, Note_on_c, 13, 52, 76
17, 274439, Note_on_c, 13, 52, 0
17, 274440, Note_on_c, 13, 54, 76
17, 274559, Note_on_c, 13, 54, 0
17, 274560, Note_on_c, 13, 55, 76
17, 274659, Note_on_c, 13, 55, 0
17, 274680, Note_on_c, 13, 52, 76
17, 274779, Note_on_c, 13, 52, 0
17, 274800, Note_on_c, 13, 52, 76
17, 274919, Note_on_c, 13, 52, 0
17, 274920, Note_on_c, 13, 54, 76
17, 275019, Note_on_c, 13, 54, 0
17, 275040, Note_on_c, 13, 51, 76
17, 275139, Note_on_c, 13, 51, 0
17, 275160, Note_on_c, 13, 51, 76
17, 275414, Note_on_c, 13, 51, 0
17, 275430, Note_on_c, 13, 51, 76
17, 275504, Note_on_c, 13, 51, 0
17, 275520, Note_on_c, 13, 51, 76
17, 275774, Note_on_c, 13, 51, 0
17, 275790, Note_on_c, 13, 51, 76
17, 275864, Note_on_c, 13, 51, 0
17, 275880, Note_on_c, 13, 51, 76
17, 276134, Note_on_c, 13, 51, 0
17, 276150, Note_on_c, 13, 51, 76
17, 276224, Note_on_c, 13, 51, 0
17, 276240, Note_on_c, 13, 52, 76
17, 276494, Note_on_c, 13, 52, 0
17, 276510, Note_on_c, 13, 50, 76
17, 276584, Note_on_c, 13, 50, 0
17, 276600, Note_on_c, 13, 49, 76
17, 276854, Note_on_c, 13, 49, 0
17, 276870, Note_on_c, 13, 49, 76
17, 276944, Note_on_c, 13, 49, 0
17, 276960, Note_on_c, 13, 49, 76
17, 277214, Note_on_c, 13, 49, 0
17, 277230, Note_on_c, 13, 49, 76
17, 277304, Note_on_c, 13, 49, 0
17, 277320, Note_on_c, 13, 50, 76
17, 277439, Note_on_c, 13, 50, 0
17, 277440, Note_on_c, 13, 47, 76
17, 277559, Note_on_c, 13, 47, 0
17, 277560, Note_on_c, 13, 49, 76
17, 277679, Note_on_c, 13, 49, 0
17, 277680, Note_on_c, 13, 50, 76
17, 277799, Note_on_c, 13, 50, 0
17, 277800, Note_on_c, 13, 52, 76
17, 277899, Note_on_c, 13, 52, 0
17, 277920, Note_on_c, 13, 49, 76
17, 278019, Note_on_c, 13, 49, 0
17, 278040, Note_on_c, 13, 49, 76
17, 278159, Note_on_c, 13, 49, 0
17, 278160, Note_on_c, 13, 50, 76
17, 278259, Note_on_c, 13, 50, 0
17, 278280, Note_on_c, 13, 47, 76
17, 278379, Note_on_c, 13, 47, 0
17, 278400, Note_on_c, 13, 47, 76
17, 278519, Note_on_c, 13, 47, 0
17, 278760, Note_on_c, 13, 59, 76
17, 278879, Note_on_c, 13, 59, 0
17, 279120, Note_on_c, 13, 47, 76
17, 279239, Note_on_c, 13, 47, 0
17, 279480, Note_on_c, 13, 52, 76
17, 279599, Note_on_c, 13, 52, 0
17, 279840, Note_on_c, 13, 40, 76
17, 279959, Note_on_c, 13, 40, 0
17, 280200, Note_on_c, 13, 52, 76
17, 280319, Note_on_c, 13, 52, 0
17, 280560, Note_on_c, 13, 57, 76
17, 280679, Note_on_c, 13, 57, 0
17, 280920, Note_on_c, 13, 45, 76
17, 281039, Note_on_c, 13, 45, 0
17, 281280, Note_on_c, 13, 57, 76
17, 281399, Note_on_c, 13, 57, 0
17, 281640, Note_on_c, 13, 50, 76
17, 281759, Note_on_c, 13, 50, 0
17, 282270, Note_on_c, 13, 47, 76
17, 282344, Note_on_c, 13, 47, 0
17, 282360, Note_on_c, 13, 49, 76
17, 282614, Note_on_c, 13, 49, 0
17, 282630, Note_on_c, 13, 50, 76
17, 282704, Note_on_c, 13, 50, 0
17, 282720, Note_on_c, 13, 52, 76
17, 282839, Note_on_c, 13, 52, 0
17, 283350, Note_on_c, 13, 49, 76
17, 283424, Note_on_c, 13, 49, 0
17, 283440, Note_on_c, 13, 50, 76
17, 283694, Note_on_c, 13, 50, 0
17, 283710, Note_on_c, 13, 52, 76
17, 283784, Note_on_c, 13, 52, 0
17, 283800, Note_on_c, 13, 54, 76
17, 283919, Note_on_c, 13, 54, 0
17, 284160, Note_on_c, 13, 50, 76
17, 284279, Note_on_c, 13, 50, 0
17, 284520, Note_on_c, 13, 49, 76
17, 284639, Note_on_c, 13, 49, 0
17, 284880, Note_on_c, 13, 47, 76
17, 284999, Note_on_c, 13, 47, 0
17, 285000, Note_on_c, 13, 50, 76
17, 285119, Note_on_c, 13, 50, 0
17, 285120, Note_on_c, 13, 54, 76
17, 285239, Note_on_c, 13, 54, 0
17, 285240, Note_on_c, 13, 59, 76
17, 285359, Note_on_c, 13, 59, 0
17, 285360, Note_on_c, 13, 61, 76
17, 285479, Note_on_c, 13, 61, 0
17, 285480, Note_on_c, 13, 57, 76
17, 285599, Note_on_c, 13, 57, 0
17, 285600, Note_on_c, 13, 57, 76
17, 285719, Note_on_c, 13, 57, 0
17, 285720, Note_on_c, 13, 59, 76
17, 285839, Note_on_c, 13, 59, 0
17, 285840, Note_on_c, 13, 56, 76
17, 285959, Note_on_c, 13, 56, 0
17, 285960, Note_on_c, 13, 56, 76
17, 286079, Note_on_c, 13, 56, 0
17, 286590, Note_on_c, 13, 52, 76
17, 286664, Note_on_c, 13, 52, 0
17, 286680, Note_on_c, 13, 49, 76
17, 286934, Note_on_c, 13, 49, 0
17, 286950, Note_on_c, 13, 52, 76
17, 287024, Note_on_c, 13, 52, 0
17, 287040, Note_on_c, 13, 45, 76
17, 287294, Note_on_c, 13, 45, 0
17, 287310, Note_on_c, 13, 47, 76
17, 287384, Note_on_c, 13, 47, 0
17, 287400, Note_on_c, 13, 49, 76
17, 287654, Note_on_c, 13, 49, 0
17, 287670, Note_on_c, 13, 50, 76
17, 287744, Note_on_c, 13, 50, 0
17, 287760, Note_on_c, 13, 52, 76
17, 288014, Note_on_c, 13, 52, 0
17, 288030, Note_on_c, 13, 40, 76
17, 288104, Note_on_c, 13, 40, 0
17, 288120, Note_on_c, 13, 45, 76
17, 288479, Note_on_c, 13, 45, 0
17, 289200, Note_on_c, 13, 45, 76
17, 289559, Note_on_c, 13, 45, 0
17, 290280, Note_on_c, 13, 45, 76
17, 290639, Note_on_c, 13, 45, 0
17, 291630, Note_on_c, 13, 45, 76
17, 291704, Note_on_c, 13, 45, 0
17, 291720, Note_on_c, 13, 49, 76
17, 291974, Note_on_c, 13, 49, 0
17, 291990, Note_on_c, 13, 52, 76
17, 292064, Note_on_c, 13, 52, 0
17, 292080, Note_on_c, 13, 49, 76
17, 292334, Note_on_c, 13, 49, 0
17, 292350, Note_on_c, 13, 45, 76
17, 292424, Note_on_c, 13, 45, 0
17, 292440, Note_on_c, 13, 50, 76
17, 292799, Note_on_c, 13, 50, 0
17, 293520, Note_on_c, 13, 50, 76
17, 293879, Note_on_c, 13, 50, 0
17, 294600, Note_on_c, 13, 50, 76
17, 294959, Note_on_c, 13, 50, 0
17, 295950, Note_on_c, 13, 50, 76
17, 296024, Note_on_c, 13, 50, 0
17, 296040, Note_on_c, 13, 54, 76
17, 296294, Note_on_c, 13, 54, 0
17, 296310, Note_on_c, 13, 57, 76
17, 296384, Note_on_c, 13, 57, 0
17, 296400, Note_on_c, 13, 54, 76
17, 296654, Note_on_c, 13, 54, 0
17, 296670, Note_on_c, 13, 50, 76
17, 296744, Note_on_c, 13, 50, 0
17, 296760, Note_on_c, 13, 43, 76
17, 297014, Note_on_c, 13, 43, 0
17, 297030, Note_on_c, 13, 55, 76
17, 297104, Note_on_c, 13, 55, 0
17, 297120, Note_on_c, 13, 55, 76
17, 297239, Note_on_c, 13, 55, 0
17, 297240, Note_on_c, 13, 57, 76
17, 297339, Note_on_c, 13, 57, 0
17, 297360, Note_on_c, 13, 54, 76
17, 297459, Note_on_c, 13, 54, 0
17, 297480, Note_on_c, 13, 54, 76
17, 297599, Note_on_c, 13, 54, 0
17, 297600, Note_on_c, 13, 55, 76
17, 297699, Note_on_c, 13, 55, 0
17, 297720, Note_on_c, 13, 52, 76
17, 297819, Note_on_c, 13, 52, 0
17, 297840, Note_on_c, 13, 52, 76
17, 297959, Note_on_c, 13, 52, 0
17, 297960, Note_on_c, 13, 54, 76
17, 298079, Note_on_c, 13, 54, 0
17, 298080, Note_on_c, 13, 56, 76
17, 298199, Note_on_c, 13, 56, 0
17, 298200, Note_on_c, 13, 57, 76
17, 298319, Note_on_c, 13, 57, 0
17, 298320, Note_on_c, 13, 59, 76
17, 298419, Note_on_c, 13, 59, 0
17, 298440, Note_on_c, 13, 55, 76
17, 298539, Note_on_c, 13, 55, 0
17, 298560, Note_on_c, 13, 55, 76
17, 298679, Note_on_c, 13, 55, 0
17, 298680, Note_on_c, 13, 57, 76
17, 298779, Note_on_c, 13, 57, 0
17, 298800, Note_on_c, 13, 54, 76
17, 298899, Note_on_c, 13, 54, 0
17, 298920, Note_on_c, 13, 54, 76
17, 299039, Note_on_c, 13, 54, 0
17, 299040, Note_on_c, 13, 56, 76
17, 299159, Note_on_c, 13, 56, 0
17, 299160, Note_on_c, 13, 58, 76
17, 299279, Note_on_c, 13, 58, 0
17, 299280, Note_on_c, 13, 59, 76
17, 299399, Note_on_c, 13, 59, 0
17, 299400, Note_on_c, 13, 61, 76
17, 299499, Note_on_c, 13, 61, 0
17, 299520, Note_on_c, 13, 57, 76
17, 299619, Note_on_c, 13, 57, 0
17, 299640, Note_on_c, 13, 57, 76
17, 299759, Note_on_c, 13, 57, 0
17, 299760, Note_on_c, 13, 59, 76
17, 299859, Note_on_c, 13, 59, 0
17, 299880, Note_on_c, 13, 56, 76
17, 299979, Note_on_c, 13, 56, 0
17, 300000, Note_on_c, 13, 56, 76
17, 300119, Note_on_c, 13, 56, 0
17, 300120, Note_on_c, 13, 58, 76
17, 300239, Note_on_c, 13, 58, 0
17, 300240, Note_on_c, 13, 59, 76
17, 300359, Note_on_c, 13, 59, 0
17, 300360, Note_on_c, 13, 61, 76
17, 300479, Note_on_c, 13, 61, 0
17, 300480, Note_on_c, 13, 62, 76
17, 300579, Note_on_c, 13, 62, 0
17, 300600, Note_on_c, 13, 59, 76
17, 300699, Note_on_c, 13, 59, 0
17, 300720, Note_on_c, 13, 59, 76
17, 300839, Note_on_c, 13, 59, 0
17, 300840, Note_on_c, 13, 61, 76
17, 300939, Note_on_c, 13, 61, 0
17, 300960, Note_on_c, 13, 58, 76
17, 301059, Note_on_c, 13, 58, 0
17, 301080, Note_on_c, 13, 58, 76
17, 301199, Note_on_c, 13, 58, 0
17, 302160, Note_on_c, 13, 59, 76
17, 302279, Note_on_c, 13, 59, 0
17, 303240, Note_on_c, 13, 54, 76
17, 303494, Note_on_c, 13, 54, 0
17, 303510, Note_on_c, 13, 42, 76
17, 303584, Note_on_c, 13, 42, 0
17, 303600, Note_on_c, 13, 42, 76
17, 303854, Note_on_c, 13, 42, 0
17, 303870, Note_on_c, 13, 42, 76
17, 303944, Note_on_c, 13, 42, 0
17, 303960, Note_on_c, 13, 42, 76
17, 304214, Note_on_c, 13, 42, 0
17, 304230, Note_on_c, 13, 42, 76
17, 304304, Note_on_c, 13, 42, 0
17, 304320, Note_on_c, 13, 42, 76
17, 304574, Note_on_c, 13, 42, 0
17, 304590, Note_on_c, 13, 52, 76
17, 304664, Note_on_c, 13, 52, 0
17, 304680, Note_on_c, 13, 50, 76
17, 304934, Note_on_c, 13, 50, 0
17, 304950, Note_on_c, 13, 55, 76
17, 305024, Note_on_c, 13, 55, 0
17, 305040, Note_on_c, 13, 49, 76
17, 305294, Note_on_c, 13, 49, 0
17, 305310, Note_on_c, 13, 54, 76
17, 305384, Note_on_c, 13, 54, 0
17, 305400, Note_on_c, 13, 47, 76
17, 305519, Note_on_c, 13, 47, 0
17, 305520, Note_on_c, 13, 50, 76
17, 305639, Note_on_c, 13, 50, 0
17, 305640, Note_on_c, 13, 54, 76
17, 305739, Note_on_c, 13, 54, 0
17, 305760, Note_on_c, 13, 59, 76
17, 305879, Note_on_c, 13, 59, 0
17, 305880, Note_on_c, 13, 61, 76
17, 305979, Note_on_c, 13, 61, 0
17, 306000, Note_on_c, 13, 57, 76
17, 306099, Note_on_c, 13, 57, 0
17, 306120, Note_on_c, 13, 57, 76
17, 306239, Note_on_c, 13, 57, 0
17, 306240, Note_on_c, 13, 59, 76
17, 306339, Note_on_c, 13, 59, 0
17, 306360, Note_on_c, 13, 55, 76
17, 306459, Note_on_c, 13, 55, 0
17, 306480, Note_on_c, 13, 55, 76
17, 306579, Note_on_c, 13, 55, 0
17, 306600, Note_on_c, 13, 52, 76
17, 306719, Note_on_c, 13, 52, 0
17, 306720, Note_on_c, 13, 54, 76
17, 306839, Note_on_c, 13, 54, 0
17, 306840, Note_on_c, 13, 55, 76
17, 306959, Note_on_c, 13, 55, 0
17, 306960, Note_on_c, 13, 57, 76
17, 307059, Note_on_c, 13, 57, 0
17, 307080, Note_on_c, 13, 54, 76
17, 307179, Note_on_c, 13, 54, 0
17, 307200, Note_on_c, 13, 54, 76
17, 307319, Note_on_c, 13, 54, 0
17, 307320, Note_on_c, 13, 55, 76
17, 307419, Note_on_c, 13, 55, 0
17, 307440, Note_on_c, 13, 52, 76
17, 307539, Note_on_c, 13, 52, 0
17, 307560, Note_on_c, 13, 52, 76
17, 307814, Note_on_c, 13, 52, 0
17, 307830, Note_on_c, 13, 50, 76
17, 307904, Note_on_c, 13, 50, 0
17, 307920, Note_on_c, 13, 49, 76
17, 308174, Note_on_c, 13, 49, 0
17, 308190, Note_on_c, 13, 52, 76
17, 308264, Note_on_c, 13, 52, 0
17, 308280, Note_on_c, 13, 46, 76
17, 308534, Note_on_c, 13, 46, 0
17, 308550, Note_on_c, 13, 49, 76
17, 308624, Note_on_c, 13, 49, 0
17, 308640, Note_on_c, 13, 42, 76
17, 308999, Note_on_c, 13, 42, 0
17, 309270, Note_on_c, 13, 55, 76
17, 309344, Note_on_c, 13, 55, 0
17, 309360, Note_on_c, 13, 54, 76
17, 309614, Note_on_c, 13, 54, 0
17, 309630, Note_on_c, 13, 52, 76
17, 309704, Note_on_c, 13, 52, 0
17, 309720, Note_on_c, 13, 50, 76
17, 309974, Note_on_c, 13, 50, 0
17, 309990, Note_on_c, 13, 47, 76
17, 310064, Note_on_c, 13, 47, 0
17, 310080, Note_on_c, 13, 52, 76
17, 310199, Note_on_c, 13, 52, 0
17, 310200, Note_on_c, 13, 54, 76
17, 310319, Note_on_c, 13, 54, 0
17, 310320, Note_on_c, 13, 55, 76
17, 310419, Note_on_c, 13, 55, 0
17, 310440, Note_on_c, 13, 54, 76
17, 310694, Note_on_c, 13, 54, 0
17, 310710, Note_on_c, 13, 42, 76
17, 310784, Note_on_c, 13, 42, 0
17, 310800, Note_on_c, 13, 47, 76
17, 310919, Note_on_c, 13, 47, 0
17, 313230, Note_on_c, 13, 59, 76
17, 313304, Note_on_c, 13, 59, 0
17, 313320, Note_on_c, 13, 59, 76
17, 313439, Note_on_c, 13, 59, 0
17, 313440, Note_on_c, 13, 60, 76
17, 313559, Note_on_c, 13, 60, 0
17, 313560, Note_on_c, 13, 57, 76
17, 313679, Note_on_c, 13, 57, 0
17, 313680, Note_on_c, 13, 57, 76
17, 313799, Note_on_c, 13, 57, 0
17, 313800, Note_on_c, 13, 59, 76
17, 313919, Note_on_c, 13, 59, 0
17, 313920, Note_on_c, 13, 55, 76
17, 314039, Note_on_c, 13, 55, 0
17, 314040, Note_on_c, 13, 55, 76
17, 314159, Note_on_c, 13, 55, 0
17, 314160, Note_on_c, 13, 57, 76
17, 314279, Note_on_c, 13, 57, 0
17, 314280, Note_on_c, 13, 59, 76
17, 314399, Note_on_c, 13, 59, 0
17, 314400, Note_on_c, 13, 60, 76
17, 314519, Note_on_c, 13, 60, 0
17, 314520, Note_on_c, 13, 62, 76
17, 314619, Note_on_c, 13, 62, 0
17, 314640, Note_on_c, 13, 59, 76
17, 314739, Note_on_c, 13, 59, 0
17, 314760, Note_on_c, 13, 59, 76
17, 314879, Note_on_c, 13, 59, 0
17, 314880, Note_on_c, 13, 60, 76
17, 314979, Note_on_c, 13, 60, 0
17, 315000, Note_on_c, 13, 57, 76
17, 315099, Note_on_c, 13, 57, 0
17, 315120, Note_on_c, 13, 57, 76
17, 315374, Note_on_c, 13, 57, 0
17, 315390, Note_on_c, 13, 57, 76
17, 315464, Note_on_c, 13, 57, 0
17, 315480, Note_on_c, 13, 57, 76
17, 315734, Note_on_c, 13, 57, 0
17, 315750, Note_on_c, 13, 57, 76
17, 315824, Note_on_c, 13, 57, 0
17, 315840, Note_on_c, 13, 57, 76
17, 316094, Note_on_c, 13, 57, 0
17, 316110, Note_on_c, 13, 57, 76
17, 316184, Note_on_c, 13, 57, 0
17, 316200, Note_on_c, 13, 57, 76
17, 316319, Note_on_c, 13, 57, 0
17, 316320, Note_on_c, 13, 54, 76
17, 316439, Note_on_c, 13, 54, 0
17, 316440, Note_on_c, 13, 55, 76
17, 316559, Note_on_c, 13, 55, 0
17, 316560, Note_on_c, 13, 57, 76
17, 316679, Note_on_c, 13, 57, 0
17, 316680, Note_on_c, 13, 66, 76
17, 316779, Note_on_c, 13, 66, 0
17, 316800, Note_on_c, 13, 55, 76
17, 316899, Note_on_c, 13, 55, 0
17, 316920, Note_on_c, 13, 57, 76
17, 317039, Note_on_c, 13, 57, 0
17, 317040, Note_on_c, 13, 55, 76
17, 317159, Note_on_c, 13, 55, 0
17, 317160, Note_on_c, 13, 54, 76
17, 317259, Note_on_c, 13, 54, 0
17, 317280, Note_on_c, 13, 55, 76
17, 317399, Note_on_c, 13, 55, 0
17, 317400, Note_on_c, 13, 52, 76
17, 317519, Note_on_c, 13, 52, 0
17, 317520, Note_on_c, 13, 54, 76
17, 317639, Note_on_c, 13, 54, 0
17, 317640, Note_on_c, 13, 55, 76
17, 317759, Note_on_c, 13, 55, 0
17, 317760, Note_on_c, 13, 64, 76
17, 317859, Note_on_c, 13, 64, 0
17, 317880, Note_on_c, 13, 54, 76
17, 317979, Note_on_c, 13, 54, 0
17, 318000, Note_on_c, 13, 55, 76
17, 318119, Note_on_c, 13, 55, 0
17, 318120, Note_on_c, 13, 54, 76
17, 318239, Note_on_c, 13, 54, 0
17, 318240, Note_on_c, 13, 52, 76
17, 318339, Note_on_c, 13, 52, 0
17, 318360, Note_on_c, 13, 54, 76
17, 318479, Note_on_c, 13, 54, 0
17, 318480, Note_on_c, 13, 50, 76
17, 318599, Note_on_c, 13, 50, 0
17, 318600, Note_on_c, 13, 52, 76
17, 318719, Note_on_c, 13, 52, 0
17, 318720, Note_on_c, 13, 54, 76
17, 318839, Note_on_c, 13, 54, 0
17, 318840, Note_on_c, 13, 62, 76
17, 318939, Note_on_c, 13, 62, 0
17, 318960, Note_on_c, 13, 52, 76
17, 319059, Note_on_c, 13, 52, 0
17, 319080, Note_on_c, 13, 54, 76
17, 319199, Note_on_c, 13, 54, 0
17, 319200, Note_on_c, 13, 52, 76
17, 319319, Note_on_c, 13, 52, 0
17, 319320, Note_on_c, 13, 50, 76
17, 319419, Note_on_c, 13, 50, 0
17, 319440, Note_on_c, 13, 52, 76
17, 319559, Note_on_c, 13, 52, 0
17, 319560, Note_on_c, 13, 48, 76
17, 319679, Note_on_c, 13, 48, 0
17, 319680, Note_on_c, 13, 50, 76
17, 319799, Note_on_c, 13, 50, 0
17, 319800, Note_on_c, 13, 52, 76
17, 319919, Note_on_c, 13, 52, 0
17, 319920, Note_on_c, 13, 60, 76
17, 320019, Note_on_c, 13, 60, 0
17, 320040, Note_on_c, 13, 50, 76
17, 320139, Note_on_c, 13, 50, 0
17, 320160, Note_on_c, 13, 52, 76
17, 320279, Note_on_c, 13, 52, 0
17, 320280, Note_on_c, 13, 50, 76
17, 320399, Note_on_c, 13, 50, 0
17, 320400, Note_on_c, 13, 48, 76
17, 320499, Note_on_c, 13, 48, 0
17, 320520, Note_on_c, 13, 50, 76
17, 320639, Note_on_c, 13, 50, 0
17, 321600, Note_on_c, 13, 50, 76
17, 321719, Note_on_c, 13, 50, 0
17, 322950, Note_on_c, 13, 38, 76
17, 323024, Note_on_c, 13, 38, 0
17, 323040, Note_on_c, 13, 38, 76
17, 323294, Note_on_c, 13, 38, 0
17, 323310, Note_on_c, 13, 38, 76
17, 323384, Note_on_c, 13, 38, 0
17, 323400, Note_on_c, 13, 38, 76
17, 323654, Note_on_c, 13, 38, 0
17, 323670, Note_on_c, 13, 38, 76
17, 323744, Note_on_c, 13, 38, 0
17, 323760, Note_on_c, 13, 38, 76
17, 324014, Note_on_c, 13, 38, 0
17, 324030, Note_on_c, 13, 48, 76
17, 324104, Note_on_c, 13, 48, 0
17, 324120, Note_on_c, 13, 47, 76
17, 324374, Note_on_c, 13, 47, 0
17, 324390, Note_on_c, 13, 52, 76
17, 324464, Note_on_c, 13, 52, 0
17, 324480, Note_on_c, 13, 45, 76
17, 324734, Note_on_c, 13, 45, 0
17, 324750, Note_on_c, 13, 50, 76
17, 324824, Note_on_c, 13, 50, 0
17, 324840, Note_on_c, 13, 43, 76
17, 325094, Note_on_c, 13, 43, 0
17, 325110, Note_on_c, 13, 50, 76
17, 325184, Note_on_c, 13, 50, 0
17, 325200, Note_on_c, 13, 55, 76
17, 325319, Note_on_c, 13, 55, 0
17, 325320, Note_on_c, 13, 57, 76
17, 325439, Note_on_c, 13, 57, 0
17, 325440, Note_on_c, 13, 54, 76
17, 325559, Note_on_c, 13, 54, 0
17, 325560, Note_on_c, 13, 54, 76
17, 325679, Note_on_c, 13, 54, 0
17, 325680, Note_on_c, 13, 55, 76
17, 325799, Note_on_c, 13, 55, 0
17, 325800, Note_on_c, 13, 52, 76
17, 325919, Note_on_c, 13, 52, 0
17, 325920, Note_on_c, 13, 52, 76
17, 326039, Note_on_c, 13, 52, 0
17, 326040, Note_on_c, 13, 48, 76
17, 326159, Note_on_c, 13, 48, 0
17, 326160, Note_on_c, 13, 50, 76
17, 326279, Note_on_c, 13, 50, 0
17, 326280, Note_on_c, 13, 52, 76
17, 326399, Note_on_c, 13, 52, 0
17, 326400, Note_on_c, 13, 53, 76
17, 326499, Note_on_c, 13, 53, 0
17, 326520, Note_on_c, 13, 50, 76
17, 326619, Note_on_c, 13, 50, 0
17, 326640, Note_on_c, 13, 50, 76
17, 326759, Note_on_c, 13, 50, 0
17, 326760, Note_on_c, 13, 52, 76
17, 326859, Note_on_c, 13, 52, 0
17, 326880, Note_on_c, 13, 48, 76
17, 326979, Note_on_c, 13, 48, 0
17, 327000, Note_on_c, 13, 48, 76
17, 327254, Note_on_c, 13, 48, 0
17, 327270, Note_on_c, 13, 47, 76
17, 327344, Note_on_c, 13, 47, 0
17, 327360, Note_on_c, 13, 45, 76
17, 327614, Note_on_c, 13, 45, 0
17, 327630, Note_on_c, 13, 48, 76
17, 327704, Note_on_c, 13, 48, 0
17, 327720, Note_on_c, 13, 42, 76
17, 327974, Note_on_c, 13, 42, 0
17, 327990, Note_on_c, 13, 45, 76
17, 328064, Note_on_c, 13, 45, 0
17, 328080, Note_on_c, 13, 36, 76
17, 328199, Note_on_c, 13, 36, 0
17, 328710, Note_on_c, 13, 52, 76
17, 328784, Note_on_c, 13, 52, 0
17, 328800, Note_on_c, 13, 50, 76
17, 329054, Note_on_c, 13, 50, 0
17, 329070, Note_on_c, 13, 48, 76
17, 329144, Note_on_c, 13, 48, 0
17, 329160, Note_on_c, 13, 47, 76
17, 329279, Note_on_c, 13, 47, 0
17, 329280, Note_on_c, 13, 48, 76
17, 329399, Note_on_c, 13, 48, 0
17, 329400, Note_on_c, 13, 50, 76
17, 329499, Note_on_c, 13, 50, 0
17, 329520, Note_on_c, 13, 52, 76
17, 329774, Note_on_c, 13, 52, 0
17, 329790, Note_on_c, 13, 48, 76
17, 329864, Note_on_c, 13, 48, 0
17, 329880, Note_on_c, 13, 50, 76
17, 330134, Note_on_c, 13, 50, 0
17, 330150, Note_on_c, 13, 38, 76
17, 330224, Note_on_c, 13, 38, 0
17, 330240, Note_on_c, 13, 43, 76
17, 330494, Note_on_c, 13, 43, 0
17, 330510, Note_on_c, 13, 59, 76
17, 330584, Note_on_c, 13, 59, 0
17, 330600, Note_on_c, 13, 59, 76
17, 330600, Note_on_c, 13, 47, 76
17, 330719, Note_on_c, 13, 59, 0
17, 330719, Note_on_c, 13, 47, 0
17, 330720, Note_on_c, 13, 60, 76
17, 330819, Note_on_c, 13, 60, 0
17, 330840, Note_on_c, 13, 57, 76
17, 330939, Note_on_c, 13, 57, 0
17, 330960, Note_on_c, 13, 50, 76
17, 330960, Note_on_c, 13, 57, 76
17, 331079, Note_on_c, 13, 50, 0
17, 331079, Note_on_c, 13, 57, 0
17, 331080, Note_on_c, 13, 59, 76
17, 331179, Note_on_c, 13, 59, 0
17, 331200, Note_on_c, 13, 55, 76
17, 331299, Note_on_c, 13, 55, 0
17, 331320, Note_on_c, 13, 55, 76
17, 331439, Note_on_c, 13, 55, 0
17, 331440, Note_on_c, 13, 57, 76
17, 331559, Note_on_c, 13, 57, 0
17, 331560, Note_on_c, 13, 59, 76
17, 331659, Note_on_c, 13, 59, 0
17, 331680, Note_on_c, 13, 59, 76
17, 331680, Note_on_c, 13, 47, 76
17, 331799, Note_on_c, 13, 59, 0
17, 331799, Note_on_c, 13, 47, 0
17, 331800, Note_on_c, 13, 60, 76
17, 331899, Note_on_c, 13, 60, 0
17, 331920, Note_on_c, 13, 57, 76
17, 332019, Note_on_c, 13, 57, 0
17, 332040, Note_on_c, 13, 57, 76
17, 332040, Note_on_c, 13, 50, 76
17, 332159, Note_on_c, 13, 57, 0
17, 332159, Note_on_c, 13, 50, 0
17, 332160, Note_on_c, 13, 59, 76
17, 332259, Note_on_c, 13, 59, 0
17, 332280, Note_on_c, 13, 55, 76
17, 332379, Note_on_c, 13, 55, 0
17, 332400, Note_on_c, 13, 43, 76
17, 332400, Note_on_c, 13, 55, 76
17, 332519, Note_on_c, 13, 43, 0
17, 332519, Note_on_c, 13, 55, 0
17, 333030, Note_on_c, 13, 43, 76
17, 333104, Note_on_c, 13, 43, 0
17, 333120, Note_on_c, 13, 43, 76
17, 333374, Note_on_c, 13, 43, 0
17, 333390, Note_on_c, 13, 43, 76
17, 333464, Note_on_c, 13, 43, 0
17, 333480, Note_on_c, 13, 48, 76
17, 333599, Note_on_c, 13, 48, 0
17, 334110, Note_on_c, 13, 45, 76
17, 334184, Note_on_c, 13, 45, 0
17, 334200, Note_on_c, 13, 45, 76
17, 334454, Note_on_c, 13, 45, 0
17, 334470, Note_on_c, 13, 45, 76
17, 334544, Note_on_c, 13, 45, 0
17, 334560, Note_on_c, 13, 50, 76
17, 334679, Note_on_c, 13, 50, 0
17, 335190, Note_on_c, 13, 47, 76
17, 335264, Note_on_c, 13, 47, 0
17, 335280, Note_on_c, 13, 47, 76
17, 335534, Note_on_c, 13, 47, 0
17, 335550, Note_on_c, 13, 47, 76
17, 335624, Note_on_c, 13, 47, 0
17, 335640, Note_on_c, 13, 52, 76
17, 335759, Note_on_c, 13, 52, 0
17, 338160, Note_on_c, 13, 59, 76
17, 338279, Note_on_c, 13, 59, 0
17, 338520, Note_on_c, 13, 47, 76
17, 338639, Note_on_c, 13, 47, 0
17, 339240, Note_on_c, 13, 52, 76
17, 339359, Note_on_c, 13, 52, 0
17, 339600, Note_on_c, 13, 40, 76
17, 339719, Note_on_c, 13, 40, 0
17, 340320, Note_on_c, 13, 57, 76
17, 340439, Note_on_c, 13, 57, 0
17, 340680, Note_on_c, 13, 45, 76
17, 340799, Note_on_c, 13, 45, 0
17, 341400, Note_on_c, 13, 50, 76
17, 341519, Note_on_c, 13, 50, 0
17, 341760, Note_on_c, 13, 38, 76
17, 341879, Note_on_c, 13, 38, 0
17, 342480, Note_on_c, 13, 55, 76
17, 342599, Note_on_c, 13, 55, 0
17, 342840, Note_on_c, 13, 43, 76
17, 342959, Note_on_c, 13, 43, 0
17, 343560, Note_on_c, 13, 55, 76
17, 343679, Note_on_c, 13, 55, 0
17, 343920, Note_on_c, 13, 43, 76
17, 344039, Note_on_c, 13, 43, 0
17, 344280, Note_on_c, 13, 45, 76
17, 345359, Note_on_c, 13, 45, 0
17, 345360, Note_on_c, 13, 45, 76
17, 346439, Note_on_c, 13, 45, 0
17, 346440, Note_on_c, 13, 45, 76
17, 347499, Note_on_c, 13, 45, 0
17, 347520, Note_on_c, 13, 46, 76
17, 347639, Note_on_c, 13, 46, 0
17, 348600, Note_on_c, 13, 45, 76
17, 348719, Note_on_c, 13, 45, 0
17, 349950, Note_on_c, 13, 44, 76
17, 350024, Note_on_c, 13, 44, 0
17, 350040, Note_on_c, 13, 44, 76
17, 350294, Note_on_c, 13, 44, 0
17, 350310, Note_on_c, 13, 44, 76
17, 350384, Note_on_c, 13, 44, 0
17, 350400, Note_on_c, 13, 44, 76
17, 350654, Note_on_c, 13, 44, 0
17, 350670, Note_on_c, 13, 44, 76
17, 350744, Note_on_c, 13, 44, 0
17, 350760, Note_on_c, 13, 45, 76
17, 351014, Note_on_c, 13, 45, 0
17, 351030, Note_on_c, 13, 45, 76
17, 351104, Note_on_c, 13, 45, 0
17, 351120, Note_on_c, 13, 45, 76
17, 351374, Note_on_c, 13, 45, 0
17, 351390, Note_on_c, 13, 45, 76
17, 351464, Note_on_c, 13, 45, 0
17, 351480, Note_on_c, 13, 45, 76
17, 351734, Note_on_c, 13, 45, 0
17, 351750, Note_on_c, 13, 45, 76
17, 351824, Note_on_c, 13, 45, 0
17, 351840, Note_on_c, 13, 47, 76
17, 352094, Note_on_c, 13, 47, 0
17, 352110, Note_on_c, 13, 40, 76
17, 352184, Note_on_c, 13, 40, 0
17, 352200, Note_on_c, 13, 42, 76
17, 352454, Note_on_c, 13, 42, 0
17, 352470, Note_on_c, 13, 43, 76
17, 352544, Note_on_c, 13, 43, 0
17, 352560, Note_on_c, 13, 45, 76
17, 352814, Note_on_c, 13, 45, 0
17, 352830, Note_on_c, 13, 45, 76
17, 352904, Note_on_c, 13, 45, 0
17, 352920, Note_on_c, 13, 38, 76
17, 353039, Note_on_c, 13, 38, 0
17, 354270, Note_on_c, 13, 62, 76
17, 354344, Note_on_c, 13, 62, 0
17, 354360, Note_on_c, 13, 62, 76
17, 354479, Note_on_c, 13, 62, 0
17, 354480, Note_on_c, 13, 64, 76
17, 354579, Note_on_c, 13, 64, 0
17, 354600, Note_on_c, 13, 60, 76
17, 354699, Note_on_c, 13, 60, 0
17, 354720, Note_on_c, 13, 60, 76
17, 354839, Note_on_c, 13, 60, 0
17, 354840, Note_on_c, 13, 62, 76
17, 354939, Note_on_c, 13, 62, 0
17, 354960, Note_on_c, 13, 59, 76
17, 355059, Note_on_c, 13, 59, 0
17, 355080, Note_on_c, 13, 59, 76
17, 355199, Note_on_c, 13, 59, 0
17, 355200, Note_on_c, 13, 61, 76
17, 355319, Note_on_c, 13, 61, 0
17, 355320, Note_on_c, 13, 62, 76
17, 355439, Note_on_c, 13, 62, 0
17, 355440, Note_on_c, 13, 64, 76
17, 355559, Note_on_c, 13, 64, 0
17, 355560, Note_on_c, 13, 66, 76
17, 355659, Note_on_c, 13, 66, 0
17, 355680, Note_on_c, 13, 62, 76
17, 355779, Note_on_c, 13, 62, 0
17, 355800, Note_on_c, 13, 62, 76
17, 355919, Note_on_c, 13, 62, 0
17, 355920, Note_on_c, 13, 64, 76
17, 356019, Note_on_c, 13, 64, 0
17, 356040, Note_on_c, 13, 61, 76
17, 356139, Note_on_c, 13, 61, 0
17, 356160, Note_on_c, 13, 61, 76
17, 356414, Note_on_c, 13, 61, 0
17, 356430, Note_on_c, 13, 61, 76
17, 356504, Note_on_c, 13, 61, 0
17, 356520, Note_on_c, 13, 61, 76
17, 356774, Note_on_c, 13, 61, 0
17, 356790, Note_on_c, 13, 61, 76
17, 356864, Note_on_c, 13, 61, 0
17, 356880, Note_on_c, 13, 61, 76
17, 357134, Note_on_c, 13, 61, 0
17, 357150, Note_on_c, 13, 61, 76
17, 357224, Note_on_c, 13, 61, 0
17, 357240, Note_on_c, 13, 62, 76
17, 357494, Note_on_c, 13, 62, 0
17, 357510, Note_on_c, 13, 57, 76
17, 357584, Note_on_c, 13, 57, 0
17, 357600, Note_on_c, 13, 57, 76
17, 357719, Note_on_c, 13, 57, 0
17, 357720, Note_on_c, 13, 59, 76
17, 357819, Note_on_c, 13, 59, 0
17, 357840, Note_on_c, 13, 55, 76
17, 357939, Note_on_c, 13, 55, 0
17, 357960, Note_on_c, 13, 55, 76
17, 358079, Note_on_c, 13, 55, 0
17, 358080, Note_on_c, 13, 57, 76
17, 358179, Note_on_c, 13, 57, 0
17, 358200, Note_on_c, 13, 54, 76
17, 358299, Note_on_c, 13, 54, 0
17, 358320, Note_on_c, 13, 54, 76
17, 358439, Note_on_c, 13, 54, 0
17, 358440, Note_on_c, 13, 56, 76
17, 358559, Note_on_c, 13, 56, 0
17, 358560, Note_on_c, 13, 57, 76
17, 358679, Note_on_c, 13, 57, 0
17, 358680, Note_on_c, 13, 59, 76
17, 358799, Note_on_c, 13, 59, 0
17, 358800, Note_on_c, 13, 61, 76
17, 358899, Note_on_c, 13, 61, 0
17, 358920, Note_on_c, 13, 57, 76
17, 359019, Note_on_c, 13, 57, 0
17, 359040, Note_on_c, 13, 57, 76
17, 359159, Note_on_c, 13, 57, 0
17, 359160, Note_on_c, 13, 59, 76
17, 359259, Note_on_c, 13, 59, 0
17, 359280, Note_on_c, 13, 56, 76
17, 359379, Note_on_c, 13, 56, 0
17, 359400, Note_on_c, 13, 56, 76
17, 359654, Note_on_c, 13, 56, 0
17, 359670, Note_on_c, 13, 56, 76
17, 359744, Note_on_c, 13, 56, 0
17, 359760, Note_on_c, 13, 56, 76
17, 360014, Note_on_c, 13, 56, 0
17, 360030, Note_on_c, 13, 56, 76
17, 360104, Note_on_c, 13, 56, 0
17, 360120, Note_on_c, 13, 56, 76
17, 360374, Note_on_c, 13, 56, 0
17, 360390, Note_on_c, 13, 56, 76
17, 360464, Note_on_c, 13, 56, 0
17, 360480, Note_on_c, 13, 57, 76
17, 360734, Note_on_c, 13, 57, 0
17, 360750, Note_on_c, 13, 55, 76
17, 360824, Note_on_c, 13, 55, 0
17, 360840, Note_on_c, 13, 54, 76
17, 361094, Note_on_c, 13, 54, 0
17, 361110, Note_on_c, 13, 54, 76
17, 361184, Note_on_c, 13, 54, 0
17, 361200, Note_on_c, 13, 54, 76
17, 361454, Note_on_c, 13, 54, 0
17, 361470, Note_on_c, 13, 54, 76
17, 361544, Note_on_c, 13, 54, 0
17, 361560, Note_on_c, 13, 55, 76
17, 361679, Note_on_c, 13, 55, 0
17, 361680, Note_on_c, 13, 52, 76
17, 361799, Note_on_c, 13, 52, 0
17, 361800, Note_on_c, 13, 54, 76
17, 361899, Note_on_c, 13, 54, 0
17, 361920, Note_on_c, 13, 55, 76
17, 362039, Note_on_c, 13, 55, 0
17, 362040, Note_on_c, 13, 57, 76
17, 362139, Note_on_c, 13, 57, 0
17, 362160, Note_on_c, 13, 54, 76
17, 362259, Note_on_c, 13, 54, 0
17, 362280, Note_on_c, 13, 54, 76
17, 362399, Note_on_c, 13, 54, 0
17, 362400, Note_on_c, 13, 55, 76
17, 362499, Note_on_c, 13, 55, 0
17, 362520, Note_on_c, 13, 52, 76
17, 362619, Note_on_c, 13, 52, 0
17, 362640, Note_on_c, 13, 52, 76
17, 362759, Note_on_c, 13, 52, 0
17, 363000, Note_on_c, 13, 40, 76
17, 363119, Note_on_c, 13, 40, 0
17, 363360, Note_on_c, 13, 52, 76
17, 363479, Note_on_c, 13, 52, 0
17, 363720, Note_on_c, 13, 57, 76
17, 363839, Note_on_c, 13, 57, 0
17, 364080, Note_on_c, 13, 45, 76
17, 364199, Note_on_c, 13, 45, 0
17, 364440, Note_on_c, 13, 57, 76
17, 364559, Note_on_c, 13, 57, 0
17, 364800, Note_on_c, 13, 62, 76
17, 364919, Note_on_c, 13, 62, 0
17, 365160, Note_on_c, 13, 38, 76
17, 365279, Note_on_c, 13, 38, 0
17, 365520, Note_on_c, 13, 50, 76
17, 365639, Note_on_c, 13, 50, 0
17, 365880, Note_on_c, 13, 55, 76
17, 365999, Note_on_c, 13, 55, 0
17, 366510, Note_on_c, 13, 52, 76
17, 366584, Note_on_c, 13, 52, 0
17, 366600, Note_on_c, 13, 54, 76
17, 366854, Note_on_c, 13, 54, 0
17, 366870, Note_on_c, 13, 55, 76
17, 366944, Note_on_c, 13, 55, 0
17, 366960, Note_on_c, 13, 57, 76
17, 367079, Note_on_c, 13, 57, 0
17, 367590, Note_on_c, 13, 54, 76
17, 367664, Note_on_c, 13, 54, 0
17, 367680, Note_on_c, 13, 55, 76
17, 367934, Note_on_c, 13, 55, 0
17, 367950, Note_on_c, 13, 57, 76
17, 368024, Note_on_c, 13, 57, 0
17, 368040, Note_on_c, 13, 59, 76
17, 368159, Note_on_c, 13, 59, 0
17, 368400, Note_on_c, 13, 55, 76
17, 368519, Note_on_c, 13, 55, 0
17, 368760, Note_on_c, 13, 54, 76
17, 368879, Note_on_c, 13, 54, 0
17, 369120, Note_on_c, 13, 52, 76
17, 369239, Note_on_c, 13, 52, 0
17, 369240, Note_on_c, 13, 55, 76
17, 369359, Note_on_c, 13, 55, 0
17, 369360, Note_on_c, 13, 59, 76
17, 369459, Note_on_c, 13, 59, 0
17, 369480, Note_on_c, 13, 64, 76
17, 369599, Note_on_c, 13, 64, 0
17, 369600, Note_on_c, 13, 66, 76
17, 369699, Note_on_c, 13, 66, 0
17, 369720, Note_on_c, 13, 62, 76
17, 369819, Note_on_c, 13, 62, 0
17, 369840, Note_on_c, 13, 62, 76
17, 369959, Note_on_c, 13, 62, 0
17, 369960, Note_on_c, 13, 64, 76
17, 370059, Note_on_c, 13, 64, 0
17, 370080, Note_on_c, 13, 61, 76
17, 370179, Note_on_c, 13, 61, 0
17, 370200, Note_on_c, 13, 61, 76
17, 370319, Note_on_c, 13, 61, 0
17, 370830, Note_on_c, 13, 57, 76
17, 370904, Note_on_c, 13, 57, 0
17, 370920, Note_on_c, 13, 54, 76
17, 371174, Note_on_c, 13, 54, 0
17, 371190, Note_on_c, 13, 57, 76
17, 371264, Note_on_c, 13, 57, 0
17, 371280, Note_on_c, 13, 50, 76
17, 371534, Note_on_c, 13, 50, 0
17, 371550, Note_on_c, 13, 52, 76
17, 371624, Note_on_c, 13, 52, 0
17, 371640, Note_on_c, 13, 54, 76
17, 371894, Note_on_c, 13, 54, 0
17, 371910, Note_on_c, 13, 55, 76
17, 371984, Note_on_c, 13, 55, 0
17, 372000, Note_on_c, 13, 57, 76
17, 372254, Note_on_c, 13, 57, 0
17, 372270, Note_on_c, 13, 45, 76
17, 372344, Note_on_c, 13, 45, 0
17, 372360, Note_on_c, 13, 50, 76
17, 372614, Note_on_c, 13, 50, 0
17, 372630, Note_on_c, 13, 54, 76
17, 372704, Note_on_c, 13, 54, 0
17, 372720, Note_on_c, 13, 54, 76
17, 372839, Note_on_c, 13, 54, 0
17, 372840, Note_on_c, 13, 55, 76
17, 372939, Note_on_c, 13, 55, 0
17, 372960, Note_on_c, 13, 52, 76
17, 373059, Note_on_c, 13, 52, 0
17, 373080, Note_on_c, 13, 52, 76
17, 373199, Note_on_c, 13, 52, 0
17, 373200, Note_on_c, 13, 54, 76
17, 373299, Note_on_c, 13, 54, 0
17, 373320, Note_on_c, 13, 50, 76
17, 373419, Note_on_c, 13, 50, 0
17, 373440, Note_on_c, 13, 50, 76
17, 373559, Note_on_c, 13, 50, 0
17, 373560, Note_on_c, 13, 52, 76
17, 373679, Note_on_c, 13, 52, 0
17, 373680, Note_on_c, 13, 54, 76
17, 373779, Note_on_c, 13, 54, 0
17, 373800, Note_on_c, 13, 54, 76
17, 373919, Note_on_c, 13, 54, 0
17, 373920, Note_on_c, 13, 55, 76
17, 374019, Note_on_c, 13, 55, 0
17, 374040, Note_on_c, 13, 52, 76
17, 374139, Note_on_c, 13, 52, 0
17, 374160, Note_on_c, 13, 52, 76
17, 374279, Note_on_c, 13, 52, 0
17, 374280, Note_on_c, 13, 54, 76
17, 374379, Note_on_c, 13, 54, 0
17, 374400, Note_on_c, 13, 50, 76
17, 374499, Note_on_c, 13, 50, 0
17, 374520, Note_on_c, 13, 50, 76
17, 374999, Note_on_c, 13, 50, 0
17, 375000, Note_on_c, 13, 50, 76
17, 375293, Note_on_c, 13, 50, 0
17, 375300, Note_on_c, 13, 52, 76
17, 375353, Note_on_c, 13, 52, 0
17, 375360, Note_on_c, 13, 54, 76
17, 375413, Note_on_c, 13, 54, 0
17, 375420, Note_on_c, 13, 50, 76
17, 375473, Note_on_c, 13, 50, 0
17, 375480, Note_on_c, 13, 60, 76
17, 375959, Note_on_c, 13, 60, 0
17, 375960, Note_on_c, 13, 60, 76
17, 376253, Note_on_c, 13, 60, 0
17, 376260, Note_on_c, 13, 59, 76
17, 376313, Note_on_c, 13, 59, 0
17, 376320, Note_on_c, 13, 60, 76
17, 376373, Note_on_c, 13, 60, 0
17, 376380, Note_on_c, 13, 57, 76
17, 376433, Note_on_c, 13, 57, 0
17, 376440, Note_on_c, 13, 63, 76
17, 376973, Note_on_c, 13, 63, 0
17, 376980, Note_on_c, 13, 61, 76
17, 377033, Note_on_c, 13, 61, 0
17, 377040, Note_on_c, 13, 59, 76
17, 377093, Note_on_c, 13, 59, 0
17, 377100, Note_on_c, 13, 61, 76
17, 377153, Note_on_c, 13, 61, 0
17, 377160, Note_on_c, 13, 63, 76
17, 377213, Note_on_c, 13, 63, 0
17, 377220, Note_on_c, 13, 61, 76
17, 377273, Note_on_c, 13, 61, 0
17, 377280, Note_on_c, 13, 63, 76
17, 377333, Note_on_c, 13, 63, 0
17, 377340, Note_on_c, 13, 59, 76
17, 377393, Note_on_c, 13, 59, 0
17, 377400, Note_on_c, 13, 64, 76
17, 377573, Note_on_c, 13, 64, 0
17, 377580, Note_on_c, 13, 59, 76
17, 377633, Note_on_c, 13, 59, 0
17, 377640, Note_on_c, 13, 59, 76
17, 377813, Note_on_c, 13, 59, 0
17, 377820, Note_on_c, 13, 55, 76
17, 377873, Note_on_c, 13, 55, 0
17, 377880, Note_on_c, 13, 55, 76
17, 378053, Note_on_c, 13, 55, 0
17, 378060, Note_on_c, 13, 52, 76
17, 378113, Note_on_c, 13, 52, 0
17, 378120, Note_on_c, 13, 52, 76
17, 378293, Note_on_c, 13, 52, 0
17, 378300, Note_on_c, 13, 45, 76
17, 378353, Note_on_c, 13, 45, 0
17, 378360, Note_on_c, 13, 45, 76
17, 378533, Note_on_c, 13, 45, 0
17, 378540, Note_on_c, 13, 57, 76
17, 378593, Note_on_c, 13, 57, 0
17, 378600, Note_on_c, 13, 57, 76
17, 378773, Note_on_c, 13, 57, 0
17, 378780, Note_on_c, 13, 52, 76
17, 378833, Note_on_c, 13, 52, 0
17, 378840, Note_on_c, 13, 52, 76
17, 379013, Note_on_c, 13, 52, 0
17, 379020, Note_on_c, 13, 49, 76
17, 379073, Note_on_c, 13, 49, 0
17, 379080, Note_on_c, 13, 49, 76
17, 379253, Note_on_c, 13, 49, 0
17, 379260, Note_on_c, 13, 45, 76
17, 379313, Note_on_c, 13, 45, 0
17, 379320, Note_on_c, 13, 50, 76
17, 379493, Note_on_c, 13, 50, 0
17, 379500, Note_on_c, 13, 45, 76
17, 379553, Note_on_c, 13, 45, 0
17, 379560, Note_on_c, 13, 45, 76
17, 379733, Note_on_c, 13, 45, 0
17, 379740, Note_on_c, 13, 42, 76
17, 379793, Note_on_c, 13, 42, 0
17, 379800, Note_on_c, 13, 42, 76
17, 379973, Note_on_c, 13, 42, 0
17, 379980, Note_on_c, 13, 38, 76
17, 380033, Note_on_c, 13, 38, 0
17, 380040, Note_on_c, 13, 38, 76
17, 380213, Note_on_c, 13, 38, 0
17, 380220, Note_on_c, 13, 42, 76
17, 380273, Note_on_c, 13, 42, 0
17, 380280, Note_on_c, 13, 43, 76
17, 380453, Note_on_c, 13, 43, 0
17, 380460, Note_on_c, 13, 47, 76
17, 380513, Note_on_c, 13, 47, 0
17, 380520, Note_on_c, 13, 47, 76
17, 380693, Note_on_c, 13, 47, 0
17, 380700, Note_on_c, 13, 52, 76
17, 380753, Note_on_c, 13, 52, 0
17, 380760, Note_on_c, 13, 52, 76
17, 380933, Note_on_c, 13, 52, 0
17, 380940, Note_on_c, 13, 55, 76
17, 380993, Note_on_c, 13, 55, 0
17, 381000, Note_on_c, 13, 55, 76
17, 381173, Note_on_c, 13, 55, 0
17, 381180, Note_on_c, 13, 52, 76
17, 381233, Note_on_c, 13, 52, 0
17, 381240, Note_on_c, 13, 49, 76
17, 381413, Note_on_c, 13, 49, 0
17, 381420, Note_on_c, 13, 45, 76
17, 381473, Note_on_c, 13, 45, 0
17, 381480, Note_on_c, 13, 45, 76
17, 381653, Note_on_c, 13, 45, 0
17, 381660, Note_on_c, 13, 49, 76
17, 381713, Note_on_c, 13, 49, 0
17, 381720, Note_on_c, 13, 50, 76
17, 382199, Note_on_c, 13, 50, 0
17, 382200, Note_on_c, 13, 50, 76
17, 382493, Note_on_c, 13, 50, 0
17, 382500, Note_on_c, 13, 49, 76
17, 382553, Note_on_c, 13, 49, 0
17, 382560, Note_on_c, 13, 50, 76
17, 382613, Note_on_c, 13, 50, 0
17, 382620, Note_on_c, 13, 47, 76
17, 382673, Note_on_c, 13, 47, 0
17, 382680, Note_on_c, 13, 49, 76
17, 382909, Note_on_c, 13, 49, 0
17, 382920, Note_on_c, 13, 45, 76
17, 383149, Note_on_c, 13, 45, 0
17, 383160, Note_on_c, 13, 50, 76
17, 383693, Note_on_c, 13, 50, 0
17, 383700, Note_on_c, 13, 50, 76
17, 383753, Note_on_c, 13, 50, 0
17, 383760, Note_on_c, 13, 52, 76
17, 383813, Note_on_c, 13, 52, 0
17, 383820, Note_on_c, 13, 54, 76
17, 383873, Note_on_c, 13, 54, 0
17, 383880, Note_on_c, 13, 55, 76
17, 383933, Note_on_c, 13, 55, 0
17, 383940, Note_on_c, 13, 54, 76
17, 383993, Note_on_c, 13, 54, 0
17, 384000, Note_on_c, 13, 55, 76
17, 384053, Note_on_c, 13, 55, 0
17, 384060, Note_on_c, 13, 52, 76
17, 384091, Note_on_c, 13, 52, 0
17, 384100, Note_on_c, 13, 50, 76
17, 384119, Note_on_c, 13, 50, 0
17, 384120, Note_on_c, 13, 49, 76
17, 384469, Note_on_c, 13, 49, 0
17, 384480, Note_on_c, 13, 47, 76
17, 384589, Note_on_c, 13, 47, 0
17, 384600, Note_on_c, 13, 46, 76
17, 384829, Note_on_c, 13, 46, 0
17, 384840, Note_on_c, 13, 42, 76
17, 385069, Note_on_c, 13, 42, 0
17, 385080, Note_on_c, 13, 47, 76
17, 385613, Note_on_c, 13, 47, 0
17, 385620, Note_on_c, 13, 45, 76
17, 385673, Note_on_c, 13, 45, 0
17, 385680, Note_on_c, 13, 47, 76
17, 385733, Note_on_c, 13, 47, 0
17, 385740, Note_on_c, 13, 49, 76
17, 385793, Note_on_c, 13, 49, 0
17, 385800, Note_on_c, 13, 50, 76
17, 385853, Note_on_c, 13, 50, 0
17, 385860, Note_on_c, 13, 49, 76
17, 385913, Note_on_c, 13, 49, 0
17, 385920, Note_on_c, 13, 50, 76
17, 385973, Note_on_c, 13, 50, 0
17, 385980, Note_on_c, 13, 47, 76
17, 386033, Note_on_c, 13, 47, 0
17, 386040, Note_on_c, 13, 49, 76
17, 386213, Note_on_c, 13, 49, 0
17, 386220, Note_on_c, 13, 45, 76
17, 386273, Note_on_c, 13, 45, 0
17, 386280, Note_on_c, 13, 50, 76
17, 386453, Note_on_c, 13, 50, 0
17, 386460, Note_on_c, 13, 52, 76
17, 386513, Note_on_c, 13, 52, 0
17, 386520, Note_on_c, 13, 54, 76
17, 386693, Note_on_c, 13, 54, 0
17, 386700, Note_on_c, 13, 55, 76
17, 386753, Note_on_c, 13, 55, 0
17, 386760, Note_on_c, 13, 52, 76
17, 386933, Note_on_c, 13, 52, 0
17, 386940, Note_on_c, 13, 50, 76
17, 386993, Note_on_c, 13, 50, 0
17, 387000, Note_on_c, 13, 45, 76
17, 387479, Note_on_c, 13, 45, 0
17, 387480, Note_on_c, 13, 45, 76
17, 387893, Note_on_c, 13, 45, 0
17, 387900, Note_on_c, 13, 45, 76
17, 387953, Note_on_c, 13, 45, 0
17, 387960, Note_on_c, 13, 45, 76
17, 388439, Note_on_c, 13, 45, 0
17, 388440, Note_on_c, 13, 45, 76
17, 388853, Note_on_c, 13, 45, 0
17, 388860, Note_on_c, 13, 45, 76
17, 388913, Note_on_c, 13, 45, 0
17, 388920, Note_on_c, 13, 45, 76
17, 389399, Note_on_c, 13, 45, 0
17, 389400, Note_on_c, 13, 45, 76
17, 389813, Note_on_c, 13, 45, 0
17, 389820, Note_on_c, 13, 45, 76
17, 389873, Note_on_c, 13, 45, 0
17, 389880, Note_on_c, 13, 45, 76
17, 390359, Note_on_c, 13, 45, 0
17, 390360, Note_on_c, 13, 45, 76
17, 390773, Note_on_c, 13, 45, 0
17, 390780, Note_on_c, 13, 45, 76
17, 390833, Note_on_c, 13, 45, 0
17, 390840, Note_on_c, 13, 45, 76
17, 391373, Note_on_c, 13, 45, 0
17, 391380, Note_on_c, 13, 47, 76
17, 391433, Note_on_c, 13, 47, 0
17, 391440, Note_on_c, 13, 45, 76
17, 391493, Note_on_c, 13, 45, 0
17, 391500, Note_on_c, 13, 43, 76
17, 391553, Note_on_c, 13, 43, 0
17, 391560, Note_on_c, 13, 42, 76
17, 391613, Note_on_c, 13, 42, 0
17, 391620, Note_on_c, 13, 40, 76
17, 391673, Note_on_c, 13, 40, 0
17, 391680, Note_on_c, 13, 42, 76
17, 391733, Note_on_c, 13, 42, 0
17, 391740, Note_on_c, 13, 38, 76
17, 391793, Note_on_c, 13, 38, 0
17, 391800, Note_on_c, 13, 47, 76
17, 392333, Note_on_c, 13, 47, 0
17, 392340, Note_on_c, 13, 48, 76
17, 392393, Note_on_c, 13, 48, 0
17, 392400, Note_on_c, 13, 47, 76
17, 392453, Note_on_c, 13, 47, 0
17, 392460, Note_on_c, 13, 45, 76
17, 392513, Note_on_c, 13, 45, 0
17, 392520, Note_on_c, 13, 43, 76
17, 392573, Note_on_c, 13, 43, 0
17, 392580, Note_on_c, 13, 42, 76
17, 392633, Note_on_c, 13, 42, 0
17, 392640, Note_on_c, 13, 43, 76
17, 392693, Note_on_c, 13, 43, 0
17, 392700, Note_on_c, 13, 40, 76
17, 392753, Note_on_c, 13, 40, 0
17, 392760, Note_on_c, 13, 49, 76
17, 392933, Note_on_c, 13, 49, 0
17, 392940, Note_on_c, 13, 45, 76
17, 392993, Note_on_c, 13, 45, 0
17, 393000, Note_on_c, 13, 50, 76
17, 393173, Note_on_c, 13, 50, 0
17, 393180, Note_on_c, 13, 43, 76
17, 393233, Note_on_c, 13, 43, 0
17, 393240, Note_on_c, 13, 45, 76
17, 393469, Note_on_c, 13, 45, 0
17, 393480, Note_on_c, 13, 45, 76
17, 393709, Note_on_c, 13, 45, 0
17, 393720, Note_on_c, 13, 38, 76
17, 394679, Note_on_c, 13, 38, 0
17, 394679, End_track
18, 0, Start_track
18, 0, Title_t, "Harpsichord "
18, 0, MIDI_port, 0
18, 0, Control_c, 14, 10, 64
18, 0, Control_c, 14, 11, 127
18, 0, Control_c, 14, 7, 72
18, 0, Program_c, 14, 6
18, 180, Note_on_c, 14, 50, 76
18, 233, Note_on_c, 14, 50, 0
18, 240, Note_on_c, 14, 50, 76
18, 719, Note_on_c, 14, 50, 0
18, 720, Note_on_c, 14, 50, 76
18, 1133, Note_on_c, 14, 50, 0
18, 1140, Note_on_c, 14, 50, 76
18, 1193, Note_on_c, 14, 50, 0
18, 1200, Note_on_c, 14, 50, 76
18, 1679, Note_on_c, 14, 50, 0
18, 1680, Note_on_c, 14, 50, 76
18, 2093, Note_on_c, 14, 50, 0
18, 2100, Note_on_c, 14, 50, 76
18, 2153, Note_on_c, 14, 50, 0
18, 2160, Note_on_c, 14, 50, 76
18, 2639, Note_on_c, 14, 50, 0
18, 2640, Note_on_c, 14, 50, 76
18, 3053, Note_on_c, 14, 50, 0
18, 3060, Note_on_c, 14, 50, 76
18, 3113, Note_on_c, 14, 50, 0
18, 3120, Note_on_c, 14, 50, 76
18, 3413, Note_on_c, 14, 50, 0
18, 3420, Note_on_c, 14, 49, 76
18, 3473, Note_on_c, 14, 49, 0
18, 3480, Note_on_c, 14, 50, 76
18, 3533, Note_on_c, 14, 50, 0
18, 3540, Note_on_c, 14, 47, 76
18, 3593, Note_on_c, 14, 47, 0
18, 3600, Note_on_c, 14, 49, 76
18, 3829, Note_on_c, 14, 49, 0
18, 3840, Note_on_c, 14, 45, 76
18, 4069, Note_on_c, 14, 45, 0
18, 4080, Note_on_c, 14, 50, 76
18, 4373, Note_on_c, 14, 50, 0
18, 4380, Note_on_c, 14, 49, 76
18, 4433, Note_on_c, 14, 49, 0
18, 4440, Note_on_c, 14, 50, 76
18, 4493, Note_on_c, 14, 50, 0
18, 4500, Note_on_c, 14, 52, 76
18, 4553, Note_on_c, 14, 52, 0
18, 4560, Note_on_c, 14, 54, 76
18, 4613, Note_on_c, 14, 54, 0
18, 4620, Note_on_c, 14, 55, 76
18, 4673, Note_on_c, 14, 55, 0
18, 4680, Note_on_c, 14, 57, 76
18, 4733, Note_on_c, 14, 57, 0
18, 4740, Note_on_c, 14, 59, 76
18, 4793, Note_on_c, 14, 59, 0
18, 4800, Note_on_c, 14, 60, 76
18, 4853, Note_on_c, 14, 60, 0
18, 4860, Note_on_c, 14, 59, 76
18, 4913, Note_on_c, 14, 59, 0
18, 4920, Note_on_c, 14, 60, 76
18, 4973, Note_on_c, 14, 60, 0
18, 4980, Note_on_c, 14, 57, 76
18, 5033, Note_on_c, 14, 57, 0
18, 5040, Note_on_c, 14, 51, 76
18, 5333, Note_on_c, 14, 51, 0
18, 5340, Note_on_c, 14, 49, 76
18, 5393, Note_on_c, 14, 49, 0
18, 5400, Note_on_c, 14, 51, 76
18, 5453, Note_on_c, 14, 51, 0
18, 5460, Note_on_c, 14, 47, 76
18, 5513, Note_on_c, 14, 47, 0
18, 5520, Note_on_c, 14, 59, 76
18, 5749, Note_on_c, 14, 59, 0
18, 5760, Note_on_c, 14, 47, 76
18, 5989, Note_on_c, 14, 47, 0
18, 6000, Note_on_c, 14, 52, 76
18, 6479, Note_on_c, 14, 52, 0
18, 6480, Note_on_c, 14, 52, 76
18, 6653, Note_on_c, 14, 52, 0
18, 6660, Note_on_c, 14, 52, 76
18, 6713, Note_on_c, 14, 52, 0
18, 6720, Note_on_c, 14, 54, 76
18, 6893, Note_on_c, 14, 54, 0
18, 6900, Note_on_c, 14, 50, 76
18, 6953, Note_on_c, 14, 50, 0
18, 6960, Note_on_c, 14, 55, 76
18, 7133, Note_on_c, 14, 55, 0
18, 7140, Note_on_c, 14, 54, 76
18, 7193, Note_on_c, 14, 54, 0
18, 7200, Note_on_c, 14, 55, 76
18, 7373, Note_on_c, 14, 55, 0
18, 7380, Note_on_c, 14, 52, 76
18, 7433, Note_on_c, 14, 52, 0
18, 7440, Note_on_c, 14, 54, 76
18, 7613, Note_on_c, 14, 54, 0
18, 7620, Note_on_c, 14, 52, 76
18, 7673, Note_on_c, 14, 52, 0
18, 7680, Note_on_c, 14, 54, 76
18, 7853, Note_on_c, 14, 54, 0
18, 7860, Note_on_c, 14, 55, 76
18, 7913, Note_on_c, 14, 55, 0
18, 7920, Note_on_c, 14, 57, 76
18, 8399, Note_on_c, 14, 57, 0
18, 8400, Note_on_c, 14, 57, 76
18, 8813, Note_on_c, 14, 57, 0
18, 8820, Note_on_c, 14, 57, 76
18, 8873, Note_on_c, 14, 57, 0
18, 8880, Note_on_c, 14, 57, 76
18, 9359, Note_on_c, 14, 57, 0
18, 9360, Note_on_c, 14, 57, 76
18, 9773, Note_on_c, 14, 57, 0
18, 9780, Note_on_c, 14, 57, 76
18, 9833, Note_on_c, 14, 57, 0
18, 9840, Note_on_c, 14, 57, 76
18, 10319, Note_on_c, 14, 57, 0
18, 10320, Note_on_c, 14, 57, 76
18, 10733, Note_on_c, 14, 57, 0
18, 10740, Note_on_c, 14, 57, 76
18, 10793, Note_on_c, 14, 57, 0
18, 10800, Note_on_c, 14, 57, 76
18, 11093, Note_on_c, 14, 57, 0
18, 11100, Note_on_c, 14, 56, 76
18, 11153, Note_on_c, 14, 56, 0
18, 11160, Note_on_c, 14, 57, 76
18, 11213, Note_on_c, 14, 57, 0
18, 11220, Note_on_c, 14, 54, 76
18, 11273, Note_on_c, 14, 54, 0
18, 11280, Note_on_c, 14, 56, 76
18, 11509, Note_on_c, 14, 56, 0
18, 11520, Note_on_c, 14, 52, 76
18, 11749, Note_on_c, 14, 52, 0
18, 11760, Note_on_c, 14, 57, 76
18, 12293, Note_on_c, 14, 57, 0
18, 12300, Note_on_c, 14, 57, 76
18, 12353, Note_on_c, 14, 57, 0
18, 12360, Note_on_c, 14, 59, 76
18, 12413, Note_on_c, 14, 59, 0
18, 12420, Note_on_c, 14, 61, 76
18, 12473, Note_on_c, 14, 61, 0
18, 12480, Note_on_c, 14, 62, 76
18, 12533, Note_on_c, 14, 62, 0
18, 12540, Note_on_c, 14, 61, 76
18, 12593, Note_on_c, 14, 61, 0
18, 12600, Note_on_c, 14, 62, 76
18, 12653, Note_on_c, 14, 62, 0
18, 12660, Note_on_c, 14, 59, 76
18, 12691, Note_on_c, 14, 59, 0
18, 12700, Note_on_c, 14, 57, 76
18, 12719, Note_on_c, 14, 57, 0
18, 12720, Note_on_c, 14, 56, 76
18, 13069, Note_on_c, 14, 56, 0
18, 13080, Note_on_c, 14, 54, 76
18, 13189, Note_on_c, 14, 54, 0
18, 13200, Note_on_c, 14, 53, 76
18, 13429, Note_on_c, 14, 53, 0
18, 13440, Note_on_c, 14, 49, 76
18, 13669, Note_on_c, 14, 49, 0
18, 13680, Note_on_c, 14, 54, 76
18, 14213, Note_on_c, 14, 54, 0
18, 14220, Note_on_c, 14, 52, 76
18, 14273, Note_on_c, 14, 52, 0
18, 14280, Note_on_c, 14, 54, 76
18, 14333, Note_on_c, 14, 54, 0
18, 14340, Note_on_c, 14, 56, 76
18, 14393, Note_on_c, 14, 56, 0
18, 14400, Note_on_c, 14, 57, 76
18, 14453, Note_on_c, 14, 57, 0
18, 14460, Note_on_c, 14, 56, 76
18, 14513, Note_on_c, 14, 56, 0
18, 14520, Note_on_c, 14, 57, 76
18, 14573, Note_on_c, 14, 57, 0
18, 14580, Note_on_c, 14, 54, 76
18, 14633, Note_on_c, 14, 54, 0
18, 14640, Note_on_c, 14, 56, 76
18, 14813, Note_on_c, 14, 56, 0
18, 14820, Note_on_c, 14, 52, 76
18, 14873, Note_on_c, 14, 52, 0
18, 14880, Note_on_c, 14, 57, 76
18, 15053, Note_on_c, 14, 57, 0
18, 15060, Note_on_c, 14, 59, 76
18, 15113, Note_on_c, 14, 59, 0
18, 15120, Note_on_c, 14, 61, 76
18, 15293, Note_on_c, 14, 61, 0
18, 15300, Note_on_c, 14, 62, 76
18, 15353, Note_on_c, 14, 62, 0
18, 15360, Note_on_c, 14, 59, 76
18, 15374, Note_on_c, 14, 59, 0
18, 15375, Note_on_c, 14, 61, 76
18, 15389, Note_on_c, 14, 61, 0
18, 15390, Note_on_c, 14, 59, 76
18, 15404, Note_on_c, 14, 59, 0
18, 15405, Note_on_c, 14, 61, 76
18, 15419, Note_on_c, 14, 61, 0
18, 15420, Note_on_c, 14, 59, 76
18, 15434, Note_on_c, 14, 59, 0
18, 15435, Note_on_c, 14, 61, 76
18, 15449, Note_on_c, 14, 61, 0
18, 15450, Note_on_c, 14, 59, 76
18, 15464, Note_on_c, 14, 59, 0
18, 15465, Note_on_c, 14, 61, 76
18, 15479, Note_on_c, 14, 61, 0
18, 15480, Note_on_c, 14, 59, 76
18, 15494, Note_on_c, 14, 59, 0
18, 15495, Note_on_c, 14, 61, 76
18, 15509, Note_on_c, 14, 61, 0
18, 15510, Note_on_c, 14, 57, 76
18, 15524, Note_on_c, 14, 57, 0
18, 15525, Note_on_c, 14, 59, 76
18, 15539, Note_on_c, 14, 59, 0
18, 15540, Note_on_c, 14, 57, 76
18, 15593, Note_on_c, 14, 57, 0
18, 15600, Note_on_c, 14, 52, 76
18, 16079, Note_on_c, 14, 52, 0
18, 16080, Note_on_c, 14, 52, 76
18, 16493, Note_on_c, 14, 52, 0
18, 16500, Note_on_c, 14, 52, 76
18, 16553, Note_on_c, 14, 52, 0
18, 16560, Note_on_c, 14, 52, 76
18, 17039, Note_on_c, 14, 52, 0
18, 17040, Note_on_c, 14, 52, 76
18, 17453, Note_on_c, 14, 52, 0
18, 17460, Note_on_c, 14, 52, 76
18, 17513, Note_on_c, 14, 52, 0
18, 17520, Note_on_c, 14, 52, 76
18, 17999, Note_on_c, 14, 52, 0
18, 18000, Note_on_c, 14, 52, 76
18, 18413, Note_on_c, 14, 52, 0
18, 18420, Note_on_c, 14, 52, 76
18, 18473, Note_on_c, 14, 52, 0
18, 18480, Note_on_c, 14, 52, 76
18, 18959, Note_on_c, 14, 52, 0
18, 18960, Note_on_c, 14, 52, 76
18, 19373, Note_on_c, 14, 52, 0
18, 19380, Note_on_c, 14, 52, 76
18, 19433, Note_on_c, 14, 52, 0
18, 19440, Note_on_c, 14, 52, 76
18, 19973, Note_on_c, 14, 52, 0
18, 19980, Note_on_c, 14, 54, 76
18, 20033, Note_on_c, 14, 54, 0
18, 20040, Note_on_c, 14, 52, 76
18, 20093, Note_on_c, 14, 52, 0
18, 20100, Note_on_c, 14, 50, 76
18, 20153, Note_on_c, 14, 50, 0
18, 20160, Note_on_c, 14, 49, 76
18, 20213, Note_on_c, 14, 49, 0
18, 20220, Note_on_c, 14, 47, 76
18, 20273, Note_on_c, 14, 47, 0
18, 20280, Note_on_c, 14, 49, 76
18, 20333, Note_on_c, 14, 49, 0
18, 20340, Note_on_c, 14, 45, 76
18, 20393, Note_on_c, 14, 45, 0
18, 20400, Note_on_c, 14, 54, 76
18, 20933, Note_on_c, 14, 54, 0
18, 20940, Note_on_c, 14, 55, 76
18, 20993, Note_on_c, 14, 55, 0
18, 21000, Note_on_c, 14, 54, 76
18, 21053, Note_on_c, 14, 54, 0
18, 21060, Note_on_c, 14, 52, 76
18, 21113, Note_on_c, 14, 52, 0
18, 21120, Note_on_c, 14, 50, 76
18, 21173, Note_on_c, 14, 50, 0
18, 21180, Note_on_c, 14, 49, 76
18, 21233, Note_on_c, 14, 49, 0
18, 21240, Note_on_c, 14, 50, 76
18, 21293, Note_on_c, 14, 50, 0
18, 21300, Note_on_c, 14, 47, 76
18, 21353, Note_on_c, 14, 47, 0
18, 21360, Note_on_c, 14, 56, 76
18, 21533, Note_on_c, 14, 56, 0
18, 21540, Note_on_c, 14, 52, 76
18, 21593, Note_on_c, 14, 52, 0
18, 21600, Note_on_c, 14, 57, 76
18, 21773, Note_on_c, 14, 57, 0
18, 21780, Note_on_c, 14, 50, 76
18, 21833, Note_on_c, 14, 50, 0
18, 21840, Note_on_c, 14, 52, 76
18, 22069, Note_on_c, 14, 52, 0
18, 22080, Note_on_c, 14, 40, 76
18, 22309, Note_on_c, 14, 40, 0
18, 22320, Note_on_c, 14, 45, 76
18, 22613, Note_on_c, 14, 45, 0
18, 22620, Note_on_c, 14, 52, 76
18, 22673, Note_on_c, 14, 52, 0
18, 22680, Note_on_c, 14, 54, 76
18, 22733, Note_on_c, 14, 54, 0
18, 22740, Note_on_c, 14, 55, 76
18, 22793, Note_on_c, 14, 55, 0
18, 22800, Note_on_c, 14, 57, 76
18, 22853, Note_on_c, 14, 57, 0
18, 22860, Note_on_c, 14, 59, 76
18, 22913, Note_on_c, 14, 59, 0
18, 22920, Note_on_c, 14, 61, 76
18, 22973, Note_on_c, 14, 61, 0
18, 22980, Note_on_c, 14, 62, 76
18, 23033, Note_on_c, 14, 62, 0
18, 23040, Note_on_c, 14, 61, 76
18, 23093, Note_on_c, 14, 61, 0
18, 23100, Note_on_c, 14, 59, 76
18, 23153, Note_on_c, 14, 59, 0
18, 23160, Note_on_c, 14, 61, 76
18, 23213, Note_on_c, 14, 61, 0
18, 23220, Note_on_c, 14, 57, 76
18, 23273, Note_on_c, 14, 57, 0
18, 23280, Note_on_c, 14, 50, 76
18, 23759, Note_on_c, 14, 50, 0
18, 23760, Note_on_c, 14, 50, 76
18, 24173, Note_on_c, 14, 50, 0
18, 24180, Note_on_c, 14, 50, 76
18, 24233, Note_on_c, 14, 50, 0
18, 24240, Note_on_c, 14, 50, 76
18, 24719, Note_on_c, 14, 50, 0
18, 24720, Note_on_c, 14, 50, 76
18, 25133, Note_on_c, 14, 50, 0
18, 25140, Note_on_c, 14, 50, 76
18, 25193, Note_on_c, 14, 50, 0
18, 25200, Note_on_c, 14, 50, 76
18, 25679, Note_on_c, 14, 50, 0
18, 25680, Note_on_c, 14, 50, 76
18, 26093, Note_on_c, 14, 50, 0
18, 26100, Note_on_c, 14, 50, 76
18, 26153, Note_on_c, 14, 50, 0
18, 26160, Note_on_c, 14, 50, 76
18, 26453, Note_on_c, 14, 50, 0
18, 26460, Note_on_c, 14, 49, 76
18, 26513, Note_on_c, 14, 49, 0
18, 26520, Note_on_c, 14, 50, 76
18, 26573, Note_on_c, 14, 50, 0
18, 26580, Note_on_c, 14, 47, 76
18, 26633, Note_on_c, 14, 47, 0
18, 26640, Note_on_c, 14, 49, 76
18, 26869, Note_on_c, 14, 49, 0
18, 26880, Note_on_c, 14, 45, 76
18, 27109, Note_on_c, 14, 45, 0
18, 27120, Note_on_c, 14, 50, 76
18, 27413, Note_on_c, 14, 50, 0
18, 27420, Note_on_c, 14, 49, 76
18, 27473, Note_on_c, 14, 49, 0
18, 27480, Note_on_c, 14, 50, 76
18, 27533, Note_on_c, 14, 50, 0
18, 27540, Note_on_c, 14, 52, 76
18, 27593, Note_on_c, 14, 52, 0
18, 27600, Note_on_c, 14, 54, 76
18, 27653, Note_on_c, 14, 54, 0
18, 27660, Note_on_c, 14, 55, 76
18, 27713, Note_on_c, 14, 55, 0
18, 27720, Note_on_c, 14, 57, 76
18, 27773, Note_on_c, 14, 57, 0
18, 27780, Note_on_c, 14, 59, 76
18, 27833, Note_on_c, 14, 59, 0
18, 27840, Note_on_c, 14, 60, 76
18, 27893, Note_on_c, 14, 60, 0
18, 27900, Note_on_c, 14, 59, 76
18, 27953, Note_on_c, 14, 59, 0
18, 27960, Note_on_c, 14, 60, 76
18, 28013, Note_on_c, 14, 60, 0
18, 28020, Note_on_c, 14, 57, 76
18, 28073, Note_on_c, 14, 57, 0
18, 28080, Note_on_c, 14, 51, 76
18, 28373, Note_on_c, 14, 51, 0
18, 28380, Note_on_c, 14, 49, 76
18, 28433, Note_on_c, 14, 49, 0
18, 28440, Note_on_c, 14, 51, 76
18, 28493, Note_on_c, 14, 51, 0
18, 28500, Note_on_c, 14, 47, 76
18, 28553, Note_on_c, 14, 47, 0
18, 28560, Note_on_c, 14, 59, 76
18, 28789, Note_on_c, 14, 59, 0
18, 28800, Note_on_c, 14, 47, 76
18, 29029, Note_on_c, 14, 47, 0
18, 29040, Note_on_c, 14, 52, 76
18, 29519, Note_on_c, 14, 52, 0
18, 29520, Note_on_c, 14, 52, 76
18, 29693, Note_on_c, 14, 52, 0
18, 29700, Note_on_c, 14, 52, 76
18, 29753, Note_on_c, 14, 52, 0
18, 29760, Note_on_c, 14, 54, 76
18, 29933, Note_on_c, 14, 54, 0
18, 29940, Note_on_c, 14, 50, 76
18, 29993, Note_on_c, 14, 50, 0
18, 30000, Note_on_c, 14, 55, 76
18, 30173, Note_on_c, 14, 55, 0
18, 30180, Note_on_c, 14, 54, 76
18, 30233, Note_on_c, 14, 54, 0
18, 30240, Note_on_c, 14, 55, 76
18, 30413, Note_on_c, 14, 55, 0
18, 30420, Note_on_c, 14, 52, 76
18, 30473, Note_on_c, 14, 52, 0
18, 30480, Note_on_c, 14, 54, 76
18, 30653, Note_on_c, 14, 54, 0
18, 30660, Note_on_c, 14, 52, 76
18, 30713, Note_on_c, 14, 52, 0
18, 30720, Note_on_c, 14, 54, 76
18, 30893, Note_on_c, 14, 54, 0
18, 30900, Note_on_c, 14, 55, 76
18, 30953, Note_on_c, 14, 55, 0
18, 30960, Note_on_c, 14, 57, 76
18, 31439, Note_on_c, 14, 57, 0
18, 31440, Note_on_c, 14, 57, 76
18, 31853, Note_on_c, 14, 57, 0
18, 31860, Note_on_c, 14, 57, 76
18, 31913, Note_on_c, 14, 57, 0
18, 31920, Note_on_c, 14, 57, 76
18, 32399, Note_on_c, 14, 57, 0
18, 32400, Note_on_c, 14, 57, 76
18, 32813, Note_on_c, 14, 57, 0
18, 32820, Note_on_c, 14, 57, 76
18, 32873, Note_on_c, 14, 57, 0
18, 32880, Note_on_c, 14, 57, 76
18, 33359, Note_on_c, 14, 57, 0
18, 33360, Note_on_c, 14, 57, 76
18, 33773, Note_on_c, 14, 57, 0
18, 33780, Note_on_c, 14, 57, 76
18, 33833, Note_on_c, 14, 57, 0
18, 33840, Note_on_c, 14, 57, 76
18, 34133, Note_on_c, 14, 57, 0
18, 34140, Note_on_c, 14, 56, 76
18, 34193, Note_on_c, 14, 56, 0
18, 34200, Note_on_c, 14, 57, 76
18, 34253, Note_on_c, 14, 57, 0
18, 34260, Note_on_c, 14, 54, 76
18, 34313, Note_on_c, 14, 54, 0
18, 34320, Note_on_c, 14, 56, 76
18, 34549, Note_on_c, 14, 56, 0
18, 34560, Note_on_c, 14, 52, 76
18, 34789, Note_on_c, 14, 52, 0
18, 34800, Note_on_c, 14, 57, 76
18, 35333, Note_on_c, 14, 57, 0
18, 35340, Note_on_c, 14, 57, 76
18, 35393, Note_on_c, 14, 57, 0
18, 35400, Note_on_c, 14, 59, 76
18, 35453, Note_on_c, 14, 59, 0
18, 35460, Note_on_c, 14, 61, 76
18, 35513, Note_on_c, 14, 61, 0
18, 35520, Note_on_c, 14, 62, 76
18, 35573, Note_on_c, 14, 62, 0
18, 35580, Note_on_c, 14, 61, 76
18, 35633, Note_on_c, 14, 61, 0
18, 35640, Note_on_c, 14, 62, 76
18, 35693, Note_on_c, 14, 62, 0
18, 35700, Note_on_c, 14, 59, 76
18, 35731, Note_on_c, 14, 59, 0
18, 35740, Note_on_c, 14, 57, 76
18, 35759, Note_on_c, 14, 57, 0
18, 35760, Note_on_c, 14, 56, 76
18, 36109, Note_on_c, 14, 56, 0
18, 36120, Note_on_c, 14, 54, 76
18, 36229, Note_on_c, 14, 54, 0
18, 36240, Note_on_c, 14, 53, 76
18, 36469, Note_on_c, 14, 53, 0
18, 36480, Note_on_c, 14, 49, 76
18, 36709, Note_on_c, 14, 49, 0
18, 36720, Note_on_c, 14, 54, 76
18, 37253, Note_on_c, 14, 54, 0
18, 37260, Note_on_c, 14, 52, 76
18, 37313, Note_on_c, 14, 52, 0
18, 37320, Note_on_c, 14, 54, 76
18, 37373, Note_on_c, 14, 54, 0
18, 37380, Note_on_c, 14, 56, 76
18, 37433, Note_on_c, 14, 56, 0
18, 37440, Note_on_c, 14, 57, 76
18, 37493, Note_on_c, 14, 57, 0
18, 37500, Note_on_c, 14, 56, 76
18, 37553, Note_on_c, 14, 56, 0
18, 37560, Note_on_c, 14, 57, 76
18, 37613, Note_on_c, 14, 57, 0
18, 37620, Note_on_c, 14, 54, 76
18, 37673, Note_on_c, 14, 54, 0
18, 37680, Note_on_c, 14, 56, 76
18, 37853, Note_on_c, 14, 56, 0
18, 37860, Note_on_c, 14, 52, 76
18, 37913, Note_on_c, 14, 52, 0
18, 37920, Note_on_c, 14, 57, 76
18, 38093, Note_on_c, 14, 57, 0
18, 38100, Note_on_c, 14, 59, 76
18, 38153, Note_on_c, 14, 59, 0
18, 38160, Note_on_c, 14, 61, 76
18, 38333, Note_on_c, 14, 61, 0
18, 38340, Note_on_c, 14, 62, 76
18, 38393, Note_on_c, 14, 62, 0
18, 38400, Note_on_c, 14, 59, 76
18, 38414, Note_on_c, 14, 59, 0
18, 38415, Note_on_c, 14, 61, 76
18, 38429, Note_on_c, 14, 61, 0
18, 38430, Note_on_c, 14, 59, 76
18, 38444, Note_on_c, 14, 59, 0
18, 38445, Note_on_c, 14, 61, 76
18, 38459, Note_on_c, 14, 61, 0
18, 38460, Note_on_c, 14, 59, 76
18, 38474, Note_on_c, 14, 59, 0
18, 38475, Note_on_c, 14, 61, 76
18, 38489, Note_on_c, 14, 61, 0
18, 38490, Note_on_c, 14, 59, 76
18, 38504, Note_on_c, 14, 59, 0
18, 38505, Note_on_c, 14, 61, 76
18, 38519, Note_on_c, 14, 61, 0
18, 38520, Note_on_c, 14, 59, 76
18, 38534, Note_on_c, 14, 59, 0
18, 38535, Note_on_c, 14, 61, 76
18, 38549, Note_on_c, 14, 61, 0
18, 38550, Note_on_c, 14, 57, 76
18, 38564, Note_on_c, 14, 57, 0
18, 38565, Note_on_c, 14, 59, 76
18, 38579, Note_on_c, 14, 59, 0
18, 38580, Note_on_c, 14, 57, 76
18, 38633, Note_on_c, 14, 57, 0
18, 38640, Note_on_c, 14, 52, 76
18, 39119, Note_on_c, 14, 52, 0
18, 39120, Note_on_c, 14, 52, 76
18, 39533, Note_on_c, 14, 52, 0
18, 39540, Note_on_c, 14, 52, 76
18, 39593, Note_on_c, 14, 52, 0
18, 39600, Note_on_c, 14, 52, 76
18, 40079, Note_on_c, 14, 52, 0
18, 40080, Note_on_c, 14, 52, 76
18, 40493, Note_on_c, 14, 52, 0
18, 40500, Note_on_c, 14, 52, 76
18, 40553, Note_on_c, 14, 52, 0
18, 40560, Note_on_c, 14, 52, 76
18, 41039, Note_on_c, 14, 52, 0
18, 41040, Note_on_c, 14, 52, 76
18, 41453, Note_on_c, 14, 52, 0
18, 41460, Note_on_c, 14, 52, 76
18, 41513, Note_on_c, 14, 52, 0
18, 41520, Note_on_c, 14, 52, 76
18, 41999, Note_on_c, 14, 52, 0
18, 42000, Note_on_c, 14, 52, 76
18, 42413, Note_on_c, 14, 52, 0
18, 42420, Note_on_c, 14, 52, 76
18, 42473, Note_on_c, 14, 52, 0
18, 42480, Note_on_c, 14, 52, 76
18, 43013, Note_on_c, 14, 52, 0
18, 43020, Note_on_c, 14, 54, 76
18, 43073, Note_on_c, 14, 54, 0
18, 43080, Note_on_c, 14, 52, 76
18, 43133, Note_on_c, 14, 52, 0
18, 43140, Note_on_c, 14, 50, 76
18, 43193, Note_on_c, 14, 50, 0
18, 43200, Note_on_c, 14, 49, 76
18, 43253, Note_on_c, 14, 49, 0
18, 43260, Note_on_c, 14, 47, 76
18, 43313, Note_on_c, 14, 47, 0
18, 43320, Note_on_c, 14, 49, 76
18, 43373, Note_on_c, 14, 49, 0
18, 43380, Note_on_c, 14, 45, 76
18, 43433, Note_on_c, 14, 45, 0
18, 43440, Note_on_c, 14, 54, 76
18, 43973, Note_on_c, 14, 54, 0
18, 43980, Note_on_c, 14, 55, 76
18, 44033, Note_on_c, 14, 55, 0
18, 44040, Note_on_c, 14, 54, 76
18, 44093, Note_on_c, 14, 54, 0
18, 44100, Note_on_c, 14, 52, 76
18, 44153, Note_on_c, 14, 52, 0
18, 44160, Note_on_c, 14, 50, 76
18, 44213, Note_on_c, 14, 50, 0
18, 44220, Note_on_c, 14, 49, 76
18, 44273, Note_on_c, 14, 49, 0
18, 44280, Note_on_c, 14, 50, 76
18, 44333, Note_on_c, 14, 50, 0
18, 44340, Note_on_c, 14, 47, 76
18, 44393, Note_on_c, 14, 47, 0
18, 44400, Note_on_c, 14, 56, 76
18, 44573, Note_on_c, 14, 56, 0
18, 44580, Note_on_c, 14, 52, 76
18, 44633, Note_on_c, 14, 52, 0
18, 44640, Note_on_c, 14, 57, 76
18, 44813, Note_on_c, 14, 57, 0
18, 44820, Note_on_c, 14, 50, 76
18, 44873, Note_on_c, 14, 50, 0
18, 44880, Note_on_c, 14, 52, 76
18, 45109, Note_on_c, 14, 52, 0
18, 45120, Note_on_c, 14, 40, 76
18, 45349, Note_on_c, 14, 40, 0
18, 45360, Note_on_c, 14, 45, 76
18, 45599, Note_on_c, 14, 45, 0
18, 51000, Note_on_c, 14, 62, 76
18, 51099, Note_on_c, 14, 62, 0
18, 51120, Note_on_c, 14, 62, 76
18, 51239, Note_on_c, 14, 62, 0
18, 51240, Note_on_c, 14, 64, 76
18, 51339, Note_on_c, 14, 64, 0
18, 51360, Note_on_c, 14, 60, 76
18, 51459, Note_on_c, 14, 60, 0
18, 51480, Note_on_c, 14, 60, 76
18, 51599, Note_on_c, 14, 60, 0
18, 51600, Note_on_c, 14, 62, 76
18, 51699, Note_on_c, 14, 62, 0
18, 51720, Note_on_c, 14, 59, 76
18, 51819, Note_on_c, 14, 59, 0
18, 51840, Note_on_c, 14, 59, 76
18, 51959, Note_on_c, 14, 59, 0
18, 51960, Note_on_c, 14, 61, 76
18, 52079, Note_on_c, 14, 61, 0
18, 52080, Note_on_c, 14, 62, 76
18, 52179, Note_on_c, 14, 62, 0
18, 52200, Note_on_c, 14, 64, 76
18, 52319, Note_on_c, 14, 64, 0
18, 52320, Note_on_c, 14, 66, 76
18, 52419, Note_on_c, 14, 66, 0
18, 52440, Note_on_c, 14, 62, 76
18, 52539, Note_on_c, 14, 62, 0
18, 52560, Note_on_c, 14, 62, 76
18, 52679, Note_on_c, 14, 62, 0
18, 52680, Note_on_c, 14, 64, 76
18, 52779, Note_on_c, 14, 64, 0
18, 52800, Note_on_c, 14, 61, 76
18, 52899, Note_on_c, 14, 61, 0
18, 52920, Note_on_c, 14, 61, 76
18, 53174, Note_on_c, 14, 61, 0
18, 53190, Note_on_c, 14, 61, 76
18, 53264, Note_on_c, 14, 61, 0
18, 53280, Note_on_c, 14, 61, 76
18, 53534, Note_on_c, 14, 61, 0
18, 53550, Note_on_c, 14, 61, 76
18, 53624, Note_on_c, 14, 61, 0
18, 53640, Note_on_c, 14, 61, 76
18, 53894, Note_on_c, 14, 61, 0
18, 53910, Note_on_c, 14, 61, 76
18, 53984, Note_on_c, 14, 61, 0
18, 54000, Note_on_c, 14, 62, 76
18, 54254, Note_on_c, 14, 62, 0
18, 54270, Note_on_c, 14, 57, 76
18, 54344, Note_on_c, 14, 57, 0
18, 54360, Note_on_c, 14, 57, 76
18, 54479, Note_on_c, 14, 57, 0
18, 54480, Note_on_c, 14, 59, 76
18, 54579, Note_on_c, 14, 59, 0
18, 54600, Note_on_c, 14, 55, 76
18, 54699, Note_on_c, 14, 55, 0
18, 54720, Note_on_c, 14, 55, 76
18, 54839, Note_on_c, 14, 55, 0
18, 54840, Note_on_c, 14, 57, 76
18, 54939, Note_on_c, 14, 57, 0
18, 54960, Note_on_c, 14, 54, 76
18, 55059, Note_on_c, 14, 54, 0
18, 55080, Note_on_c, 14, 54, 76
18, 55199, Note_on_c, 14, 54, 0
18, 55200, Note_on_c, 14, 56, 76
18, 55319, Note_on_c, 14, 56, 0
18, 55320, Note_on_c, 14, 57, 76
18, 55419, Note_on_c, 14, 57, 0
18, 55440, Note_on_c, 14, 59, 76
18, 55559, Note_on_c, 14, 59, 0
18, 55560, Note_on_c, 14, 61, 76
18, 55659, Note_on_c, 14, 61, 0
18, 55680, Note_on_c, 14, 57, 76
18, 55779, Note_on_c, 14, 57, 0
18, 55800, Note_on_c, 14, 57, 76
18, 55919, Note_on_c, 14, 57, 0
18, 55920, Note_on_c, 14, 59, 76
18, 56019, Note_on_c, 14, 59, 0
18, 56040, Note_on_c, 14, 56, 76
18, 56139, Note_on_c, 14, 56, 0
18, 56160, Note_on_c, 14, 56, 76
18, 56414, Note_on_c, 14, 56, 0
18, 56430, Note_on_c, 14, 56, 76
18, 56504, Note_on_c, 14, 56, 0
18, 56520, Note_on_c, 14, 56, 76
18, 56774, Note_on_c, 14, 56, 0
18, 56790, Note_on_c, 14, 56, 76
18, 56864, Note_on_c, 14, 56, 0
18, 56880, Note_on_c, 14, 56, 76
18, 57134, Note_on_c, 14, 56, 0
18, 57150, Note_on_c, 14, 56, 76
18, 57224, Note_on_c, 14, 56, 0
18, 57240, Note_on_c, 14, 57, 76
18, 57494, Note_on_c, 14, 57, 0
18, 57510, Note_on_c, 14, 55, 76
18, 57584, Note_on_c, 14, 55, 0
18, 57600, Note_on_c, 14, 54, 76
18, 57854, Note_on_c, 14, 54, 0
18, 57870, Note_on_c, 14, 54, 76
18, 57944, Note_on_c, 14, 54, 0
18, 57960, Note_on_c, 14, 54, 76
18, 58214, Note_on_c, 14, 54, 0
18, 58230, Note_on_c, 14, 54, 76
18, 58304, Note_on_c, 14, 54, 0
18, 58320, Note_on_c, 14, 55, 76
18, 58439, Note_on_c, 14, 55, 0
18, 58440, Note_on_c, 14, 52, 76
18, 58559, Note_on_c, 14, 52, 0
18, 58560, Note_on_c, 14, 54, 76
18, 58659, Note_on_c, 14, 54, 0
18, 58680, Note_on_c, 14, 55, 76
18, 58799, Note_on_c, 14, 55, 0
18, 58800, Note_on_c, 14, 57, 76
18, 58899, Note_on_c, 14, 57, 0
18, 58920, Note_on_c, 14, 54, 76
18, 59019, Note_on_c, 14, 54, 0
18, 59040, Note_on_c, 14, 54, 76
18, 59159, Note_on_c, 14, 54, 0
18, 59160, Note_on_c, 14, 55, 76
18, 59259, Note_on_c, 14, 55, 0
18, 59280, Note_on_c, 14, 52, 76
18, 59379, Note_on_c, 14, 52, 0
18, 59400, Note_on_c, 14, 52, 76
18, 59519, Note_on_c, 14, 52, 0
18, 59760, Note_on_c, 14, 40, 76
18, 59879, Note_on_c, 14, 40, 0
18, 60120, Note_on_c, 14, 52, 76
18, 60239, Note_on_c, 14, 52, 0
18, 60480, Note_on_c, 14, 57, 76
18, 60599, Note_on_c, 14, 57, 0
18, 60840, Note_on_c, 14, 45, 76
18, 60959, Note_on_c, 14, 45, 0
18, 61200, Note_on_c, 14, 57, 76
18, 61319, Note_on_c, 14, 57, 0
18, 61560, Note_on_c, 14, 62, 76
18, 61679, Note_on_c, 14, 62, 0
18, 61920, Note_on_c, 14, 38, 76
18, 62039, Note_on_c, 14, 38, 0
18, 62280, Note_on_c, 14, 50, 76
18, 62399, Note_on_c, 14, 50, 0
18, 62640, Note_on_c, 14, 55, 76
18, 62759, Note_on_c, 14, 55, 0
18, 63270, Note_on_c, 14, 52, 76
18, 63344, Note_on_c, 14, 52, 0
18, 63360, Note_on_c, 14, 54, 76
18, 63614, Note_on_c, 14, 54, 0
18, 63630, Note_on_c, 14, 55, 76
18, 63704, Note_on_c, 14, 55, 0
18, 63720, Note_on_c, 14, 57, 76
18, 63839, Note_on_c, 14, 57, 0
18, 64350, Note_on_c, 14, 54, 76
18, 64424, Note_on_c, 14, 54, 0
18, 64440, Note_on_c, 14, 55, 76
18, 64694, Note_on_c, 14, 55, 0
18, 64710, Note_on_c, 14, 57, 76
18, 64784, Note_on_c, 14, 57, 0
18, 64800, Note_on_c, 14, 59, 76
18, 64919, Note_on_c, 14, 59, 0
18, 65160, Note_on_c, 14, 55, 76
18, 65279, Note_on_c, 14, 55, 0
18, 65520, Note_on_c, 14, 54, 76
18, 65639, Note_on_c, 14, 54, 0
18, 65880, Note_on_c, 14, 52, 76
18, 65999, Note_on_c, 14, 52, 0
18, 66000, Note_on_c, 14, 55, 76
18, 66119, Note_on_c, 14, 55, 0
18, 66120, Note_on_c, 14, 59, 76
18, 66219, Note_on_c, 14, 59, 0
18, 66240, Note_on_c, 14, 64, 76
18, 66359, Note_on_c, 14, 64, 0
18, 66360, Note_on_c, 14, 66, 76
18, 66459, Note_on_c, 14, 66, 0
18, 66480, Note_on_c, 14, 62, 76
18, 66579, Note_on_c, 14, 62, 0
18, 66600, Note_on_c, 14, 62, 76
18, 66719, Note_on_c, 14, 62, 0
18, 66720, Note_on_c, 14, 64, 76
18, 66819, Note_on_c, 14, 64, 0
18, 66840, Note_on_c, 14, 61, 76
18, 66939, Note_on_c, 14, 61, 0
18, 66960, Note_on_c, 14, 61, 76
18, 67079, Note_on_c, 14, 61, 0
18, 67590, Note_on_c, 14, 57, 76
18, 67664, Note_on_c, 14, 57, 0
18, 67680, Note_on_c, 14, 54, 76
18, 67934, Note_on_c, 14, 54, 0
18, 67950, Note_on_c, 14, 57, 76
18, 68024, Note_on_c, 14, 57, 0
18, 68040, Note_on_c, 14, 50, 76
18, 68294, Note_on_c, 14, 50, 0
18, 68310, Note_on_c, 14, 52, 76
18, 68384, Note_on_c, 14, 52, 0
18, 68400, Note_on_c, 14, 54, 76
18, 68654, Note_on_c, 14, 54, 0
18, 68670, Note_on_c, 14, 55, 76
18, 68744, Note_on_c, 14, 55, 0
18, 68760, Note_on_c, 14, 57, 76
18, 69014, Note_on_c, 14, 57, 0
18, 69030, Note_on_c, 14, 45, 76
18, 69104, Note_on_c, 14, 45, 0
18, 69120, Note_on_c, 14, 50, 76
18, 69239, Note_on_c, 14, 50, 0
18, 70200, Note_on_c, 14, 38, 76
18, 70319, Note_on_c, 14, 38, 0
18, 71280, Note_on_c, 14, 50, 76
18, 71399, Note_on_c, 14, 50, 0
18, 91800, Note_on_c, 14, 45, 76
18, 91919, Note_on_c, 14, 45, 0
18, 92070, Note_on_c, 14, 61, 76
18, 92144, Note_on_c, 14, 61, 0
18, 92160, Note_on_c, 14, 49, 76
18, 92160, Note_on_c, 14, 61, 76
18, 92279, Note_on_c, 14, 49, 0
18, 92279, Note_on_c, 14, 61, 0
18, 92280, Note_on_c, 14, 62, 76
18, 92379, Note_on_c, 14, 62, 0
18, 92400, Note_on_c, 14, 59, 76
18, 92499, Note_on_c, 14, 59, 0
18, 92520, Note_on_c, 14, 59, 76
18, 92520, Note_on_c, 14, 52, 76
18, 92639, Note_on_c, 14, 59, 0
18, 92639, Note_on_c, 14, 52, 0
18, 92640, Note_on_c, 14, 61, 76
18, 92739, Note_on_c, 14, 61, 0
18, 92760, Note_on_c, 14, 57, 76
18, 92859, Note_on_c, 14, 57, 0
18, 92880, Note_on_c, 14, 57, 76
18, 92999, Note_on_c, 14, 57, 0
18, 93000, Note_on_c, 14, 59, 76
18, 93119, Note_on_c, 14, 59, 0
18, 93120, Note_on_c, 14, 61, 76
18, 93219, Note_on_c, 14, 61, 0
18, 93240, Note_on_c, 14, 49, 76
18, 93240, Note_on_c, 14, 61, 76
18, 93359, Note_on_c, 14, 49, 0
18, 93359, Note_on_c, 14, 61, 0
18, 93360, Note_on_c, 14, 62, 76
18, 93459, Note_on_c, 14, 62, 0
18, 93480, Note_on_c, 14, 59, 76
18, 93579, Note_on_c, 14, 59, 0
18, 93600, Note_on_c, 14, 59, 76
18, 93600, Note_on_c, 14, 52, 76
18, 93719, Note_on_c, 14, 59, 0
18, 93719, Note_on_c, 14, 52, 0
18, 93720, Note_on_c, 14, 61, 76
18, 93819, Note_on_c, 14, 61, 0
18, 93840, Note_on_c, 14, 57, 76
18, 93939, Note_on_c, 14, 57, 0
18, 93960, Note_on_c, 14, 45, 76
18, 93960, Note_on_c, 14, 57, 76
18, 94079, Note_on_c, 14, 45, 0
18, 94079, Note_on_c, 14, 57, 0
18, 95310, Note_on_c, 14, 57, 76
18, 95384, Note_on_c, 14, 57, 0
18, 95400, Note_on_c, 14, 57, 76
18, 95519, Note_on_c, 14, 57, 0
18, 95520, Note_on_c, 14, 59, 76
18, 95619, Note_on_c, 14, 59, 0
18, 95640, Note_on_c, 14, 56, 76
18, 95739, Note_on_c, 14, 56, 0
18, 95760, Note_on_c, 14, 56, 76
18, 95879, Note_on_c, 14, 56, 0
18, 95880, Note_on_c, 14, 57, 76
18, 95979, Note_on_c, 14, 57, 0
18, 96000, Note_on_c, 14, 54, 76
18, 96099, Note_on_c, 14, 54, 0
18, 96120, Note_on_c, 14, 54, 76
18, 96239, Note_on_c, 14, 54, 0
18, 96240, Note_on_c, 14, 56, 76
18, 96359, Note_on_c, 14, 56, 0
18, 96360, Note_on_c, 14, 57, 76
18, 96479, Note_on_c, 14, 57, 0
18, 96480, Note_on_c, 14, 59, 76
18, 96599, Note_on_c, 14, 59, 0
18, 96600, Note_on_c, 14, 61, 76
18, 96699, Note_on_c, 14, 61, 0
18, 96720, Note_on_c, 14, 57, 76
18, 96819, Note_on_c, 14, 57, 0
18, 96840, Note_on_c, 14, 57, 76
18, 96959, Note_on_c, 14, 57, 0
18, 96960, Note_on_c, 14, 59, 76
18, 97059, Note_on_c, 14, 59, 0
18, 97080, Note_on_c, 14, 56, 76
18, 97179, Note_on_c, 14, 56, 0
18, 97200, Note_on_c, 14, 56, 76
18, 97454, Note_on_c, 14, 56, 0
18, 97470, Note_on_c, 14, 56, 76
18, 97544, Note_on_c, 14, 56, 0
18, 97560, Note_on_c, 14, 56, 76
18, 97814, Note_on_c, 14, 56, 0
18, 97830, Note_on_c, 14, 56, 76
18, 97904, Note_on_c, 14, 56, 0
18, 97920, Note_on_c, 14, 56, 76
18, 98174, Note_on_c, 14, 56, 0
18, 98190, Note_on_c, 14, 56, 76
18, 98264, Note_on_c, 14, 56, 0
18, 98280, Note_on_c, 14, 57, 76
18, 98534, Note_on_c, 14, 57, 0
18, 98550, Note_on_c, 14, 52, 76
18, 98624, Note_on_c, 14, 52, 0
18, 98640, Note_on_c, 14, 52, 76
18, 98759, Note_on_c, 14, 52, 0
18, 98760, Note_on_c, 14, 54, 76
18, 98859, Note_on_c, 14, 54, 0
18, 98880, Note_on_c, 14, 50, 76
18, 98979, Note_on_c, 14, 50, 0
18, 99000, Note_on_c, 14, 50, 76
18, 99119, Note_on_c, 14, 50, 0
18, 99120, Note_on_c, 14, 52, 76
18, 99219, Note_on_c, 14, 52, 0
18, 99240, Note_on_c, 14, 49, 76
18, 99339, Note_on_c, 14, 49, 0
18, 99360, Note_on_c, 14, 49, 76
18, 99479, Note_on_c, 14, 49, 0
18, 99480, Note_on_c, 14, 50, 76
18, 99599, Note_on_c, 14, 50, 0
18, 99600, Note_on_c, 14, 52, 76
18, 99719, Note_on_c, 14, 52, 0
18, 99720, Note_on_c, 14, 54, 76
18, 99839, Note_on_c, 14, 54, 0
18, 99840, Note_on_c, 14, 55, 76
18, 99939, Note_on_c, 14, 55, 0
18, 99960, Note_on_c, 14, 52, 76
18, 100059, Note_on_c, 14, 52, 0
18, 100080, Note_on_c, 14, 52, 76
18, 100199, Note_on_c, 14, 52, 0
18, 100200, Note_on_c, 14, 54, 76
18, 100299, Note_on_c, 14, 54, 0
18, 100320, Note_on_c, 14, 51, 76
18, 100419, Note_on_c, 14, 51, 0
18, 100440, Note_on_c, 14, 51, 76
18, 100694, Note_on_c, 14, 51, 0
18, 100710, Note_on_c, 14, 51, 76
18, 100784, Note_on_c, 14, 51, 0
18, 100800, Note_on_c, 14, 51, 76
18, 101054, Note_on_c, 14, 51, 0
18, 101070, Note_on_c, 14, 51, 76
18, 101144, Note_on_c, 14, 51, 0
18, 101160, Note_on_c, 14, 51, 76
18, 101414, Note_on_c, 14, 51, 0
18, 101430, Note_on_c, 14, 51, 76
18, 101504, Note_on_c, 14, 51, 0
18, 101520, Note_on_c, 14, 52, 76
18, 101774, Note_on_c, 14, 52, 0
18, 101790, Note_on_c, 14, 50, 76
18, 101864, Note_on_c, 14, 50, 0
18, 101880, Note_on_c, 14, 49, 76
18, 102134, Note_on_c, 14, 49, 0
18, 102150, Note_on_c, 14, 49, 76
18, 102224, Note_on_c, 14, 49, 0
18, 102240, Note_on_c, 14, 49, 76
18, 102494, Note_on_c, 14, 49, 0
18, 102510, Note_on_c, 14, 49, 76
18, 102584, Note_on_c, 14, 49, 0
18, 102600, Note_on_c, 14, 50, 76
18, 102719, Note_on_c, 14, 50, 0
18, 102720, Note_on_c, 14, 47, 76
18, 102839, Note_on_c, 14, 47, 0
18, 102840, Note_on_c, 14, 49, 76
18, 102959, Note_on_c, 14, 49, 0
18, 102960, Note_on_c, 14, 50, 76
18, 103079, Note_on_c, 14, 50, 0
18, 103080, Note_on_c, 14, 52, 76
18, 103179, Note_on_c, 14, 52, 0
18, 103200, Note_on_c, 14, 49, 76
18, 103299, Note_on_c, 14, 49, 0
18, 103320, Note_on_c, 14, 49, 76
18, 103439, Note_on_c, 14, 49, 0
18, 103440, Note_on_c, 14, 50, 76
18, 103539, Note_on_c, 14, 50, 0
18, 103560, Note_on_c, 14, 47, 76
18, 103659, Note_on_c, 14, 47, 0
18, 103680, Note_on_c, 14, 47, 76
18, 103799, Note_on_c, 14, 47, 0
18, 104040, Note_on_c, 14, 59, 76
18, 104159, Note_on_c, 14, 59, 0
18, 104400, Note_on_c, 14, 47, 76
18, 104519, Note_on_c, 14, 47, 0
18, 104760, Note_on_c, 14, 52, 76
18, 104879, Note_on_c, 14, 52, 0
18, 105120, Note_on_c, 14, 40, 76
18, 105239, Note_on_c, 14, 40, 0
18, 105480, Note_on_c, 14, 52, 76
18, 105599, Note_on_c, 14, 52, 0
18, 105840, Note_on_c, 14, 57, 76
18, 105959, Note_on_c, 14, 57, 0
18, 106200, Note_on_c, 14, 45, 76
18, 106319, Note_on_c, 14, 45, 0
18, 106560, Note_on_c, 14, 57, 76
18, 106679, Note_on_c, 14, 57, 0
18, 106920, Note_on_c, 14, 50, 76
18, 107039, Note_on_c, 14, 50, 0
18, 107550, Note_on_c, 14, 47, 76
18, 107624, Note_on_c, 14, 47, 0
18, 107640, Note_on_c, 14, 49, 76
18, 107894, Note_on_c, 14, 49, 0
18, 107910, Note_on_c, 14, 50, 76
18, 107984, Note_on_c, 14, 50, 0
18, 108000, Note_on_c, 14, 52, 76
18, 108119, Note_on_c, 14, 52, 0
18, 108630, Note_on_c, 14, 49, 76
18, 108704, Note_on_c, 14, 49, 0
18, 108720, Note_on_c, 14, 50, 76
18, 108974, Note_on_c, 14, 50, 0
18, 108990, Note_on_c, 14, 52, 76
18, 109064, Note_on_c, 14, 52, 0
18, 109080, Note_on_c, 14, 54, 76
18, 109199, Note_on_c, 14, 54, 0
18, 109440, Note_on_c, 14, 50, 76
18, 109559, Note_on_c, 14, 50, 0
18, 109800, Note_on_c, 14, 49, 76
18, 109919, Note_on_c, 14, 49, 0
18, 110160, Note_on_c, 14, 47, 76
18, 110279, Note_on_c, 14, 47, 0
18, 110280, Note_on_c, 14, 50, 76
18, 110399, Note_on_c, 14, 50, 0
18, 110400, Note_on_c, 14, 54, 76
18, 110519, Note_on_c, 14, 54, 0
18, 110520, Note_on_c, 14, 59, 76
18, 110639, Note_on_c, 14, 59, 0
18, 110640, Note_on_c, 14, 61, 76
18, 110759, Note_on_c, 14, 61, 0
18, 110760, Note_on_c, 14, 57, 76
18, 110879, Note_on_c, 14, 57, 0
18, 110880, Note_on_c, 14, 57, 76
18, 110999, Note_on_c, 14, 57, 0
18, 111000, Note_on_c, 14, 59, 76
18, 111119, Note_on_c, 14, 59, 0
18, 111120, Note_on_c, 14, 56, 76
18, 111239, Note_on_c, 14, 56, 0
18, 111240, Note_on_c, 14, 56, 76
18, 111359, Note_on_c, 14, 56, 0
18, 111870, Note_on_c, 14, 52, 76
18, 111944, Note_on_c, 14, 52, 0
18, 111960, Note_on_c, 14, 49, 76
18, 112214, Note_on_c, 14, 49, 0
18, 112230, Note_on_c, 14, 52, 76
18, 112304, Note_on_c, 14, 52, 0
18, 112320, Note_on_c, 14, 45, 76
18, 112574, Note_on_c, 14, 45, 0
18, 112590, Note_on_c, 14, 47, 76
18, 112664, Note_on_c, 14, 47, 0
18, 112680, Note_on_c, 14, 49, 76
18, 112934, Note_on_c, 14, 49, 0
18, 112950, Note_on_c, 14, 50, 76
18, 113024, Note_on_c, 14, 50, 0
18, 113040, Note_on_c, 14, 52, 76
18, 113294, Note_on_c, 14, 52, 0
18, 113310, Note_on_c, 14, 40, 76
18, 113384, Note_on_c, 14, 40, 0
18, 113400, Note_on_c, 14, 45, 76
18, 113759, Note_on_c, 14, 45, 0
18, 114480, Note_on_c, 14, 45, 76
18, 114839, Note_on_c, 14, 45, 0
18, 115560, Note_on_c, 14, 45, 76
18, 115919, Note_on_c, 14, 45, 0
18, 116910, Note_on_c, 14, 45, 76
18, 116984, Note_on_c, 14, 45, 0
18, 117000, Note_on_c, 14, 49, 76
18, 117254, Note_on_c, 14, 49, 0
18, 117270, Note_on_c, 14, 52, 76
18, 117344, Note_on_c, 14, 52, 0
18, 117360, Note_on_c, 14, 49, 76
18, 117614, Note_on_c, 14, 49, 0
18, 117630, Note_on_c, 14, 45, 76
18, 117704, Note_on_c, 14, 45, 0
18, 117720, Note_on_c, 14, 50, 76
18, 118079, Note_on_c, 14, 50, 0
18, 118800, Note_on_c, 14, 50, 76
18, 119159, Note_on_c, 14, 50, 0
18, 119880, Note_on_c, 14, 50, 76
18, 120239, Note_on_c, 14, 50, 0
18, 121230, Note_on_c, 14, 50, 76
18, 121304, Note_on_c, 14, 50, 0
18, 121320, Note_on_c, 14, 54, 76
18, 121574, Note_on_c, 14, 54, 0
18, 121590, Note_on_c, 14, 57, 76
18, 121664, Note_on_c, 14, 57, 0
18, 121680, Note_on_c, 14, 54, 76
18, 121934, Note_on_c, 14, 54, 0
18, 121950, Note_on_c, 14, 50, 76
18, 122024, Note_on_c, 14, 50, 0
18, 122040, Note_on_c, 14, 43, 76
18, 122294, Note_on_c, 14, 43, 0
18, 122310, Note_on_c, 14, 55, 76
18, 122384, Note_on_c, 14, 55, 0
18, 122400, Note_on_c, 14, 55, 76
18, 122519, Note_on_c, 14, 55, 0
18, 122520, Note_on_c, 14, 57, 76
18, 122619, Note_on_c, 14, 57, 0
18, 122640, Note_on_c, 14, 54, 76
18, 122739, Note_on_c, 14, 54, 0
18, 122760, Note_on_c, 14, 54, 76
18, 122879, Note_on_c, 14, 54, 0
18, 122880, Note_on_c, 14, 55, 76
18, 122979, Note_on_c, 14, 55, 0
18, 123000, Note_on_c, 14, 52, 76
18, 123099, Note_on_c, 14, 52, 0
18, 123120, Note_on_c, 14, 52, 76
18, 123239, Note_on_c, 14, 52, 0
18, 123240, Note_on_c, 14, 54, 76
18, 123359, Note_on_c, 14, 54, 0
18, 123360, Note_on_c, 14, 56, 76
18, 123479, Note_on_c, 14, 56, 0
18, 123480, Note_on_c, 14, 57, 76
18, 123599, Note_on_c, 14, 57, 0
18, 123600, Note_on_c, 14, 59, 76
18, 123699, Note_on_c, 14, 59, 0
18, 123720, Note_on_c, 14, 55, 76
18, 123819, Note_on_c, 14, 55, 0
18, 123840, Note_on_c, 14, 55, 76
18, 123959, Note_on_c, 14, 55, 0
18, 123960, Note_on_c, 14, 57, 76
18, 124059, Note_on_c, 14, 57, 0
18, 124080, Note_on_c, 14, 54, 76
18, 124179, Note_on_c, 14, 54, 0
18, 124200, Note_on_c, 14, 54, 76
18, 124319, Note_on_c, 14, 54, 0
18, 124320, Note_on_c, 14, 56, 76
18, 124439, Note_on_c, 14, 56, 0
18, 124440, Note_on_c, 14, 58, 76
18, 124559, Note_on_c, 14, 58, 0
18, 124560, Note_on_c, 14, 59, 76
18, 124679, Note_on_c, 14, 59, 0
18, 124680, Note_on_c, 14, 61, 76
18, 124779, Note_on_c, 14, 61, 0
18, 124800, Note_on_c, 14, 57, 76
18, 124899, Note_on_c, 14, 57, 0
18, 124920, Note_on_c, 14, 57, 76
18, 125039, Note_on_c, 14, 57, 0
18, 125040, Note_on_c, 14, 59, 76
18, 125139, Note_on_c, 14, 59, 0
18, 125160, Note_on_c, 14, 56, 76
18, 125259, Note_on_c, 14, 56, 0
18, 125280, Note_on_c, 14, 56, 76
18, 125399, Note_on_c, 14, 56, 0
18, 125400, Note_on_c, 14, 58, 76
18, 125519, Note_on_c, 14, 58, 0
18, 125520, Note_on_c, 14, 59, 76
18, 125639, Note_on_c, 14, 59, 0
18, 125640, Note_on_c, 14, 61, 76
18, 125759, Note_on_c, 14, 61, 0
18, 125760, Note_on_c, 14, 62, 76
18, 125859, Note_on_c, 14, 62, 0
18, 125880, Note_on_c, 14, 59, 76
18, 125979, Note_on_c, 14, 59, 0
18, 126000, Note_on_c, 14, 59, 76
18, 126119, Note_on_c, 14, 59, 0
18, 126120, Note_on_c, 14, 61, 76
18, 126219, Note_on_c, 14, 61, 0
18, 126240, Note_on_c, 14, 58, 76
18, 126339, Note_on_c, 14, 58, 0
18, 126360, Note_on_c, 14, 58, 76
18, 126479, Note_on_c, 14, 58, 0
18, 127440, Note_on_c, 14, 59, 76
18, 127559, Note_on_c, 14, 59, 0
18, 128520, Note_on_c, 14, 54, 76
18, 128774, Note_on_c, 14, 54, 0
18, 128790, Note_on_c, 14, 42, 76
18, 128864, Note_on_c, 14, 42, 0
18, 128880, Note_on_c, 14, 42, 76
18, 129134, Note_on_c, 14, 42, 0
18, 129150, Note_on_c, 14, 42, 76
18, 129224, Note_on_c, 14, 42, 0
18, 129240, Note_on_c, 14, 42, 76
18, 129494, Note_on_c, 14, 42, 0
18, 129510, Note_on_c, 14, 42, 76
18, 129584, Note_on_c, 14, 42, 0
18, 129600, Note_on_c, 14, 42, 76
18, 129854, Note_on_c, 14, 42, 0
18, 129870, Note_on_c, 14, 52, 76
18, 129944, Note_on_c, 14, 52, 0
18, 129960, Note_on_c, 14, 50, 76
18, 130214, Note_on_c, 14, 50, 0
18, 130230, Note_on_c, 14, 55, 76
18, 130304, Note_on_c, 14, 55, 0
18, 130320, Note_on_c, 14, 49, 76
18, 130574, Note_on_c, 14, 49, 0
18, 130590, Note_on_c, 14, 54, 76
18, 130664, Note_on_c, 14, 54, 0
18, 130680, Note_on_c, 14, 47, 76
18, 130799, Note_on_c, 14, 47, 0
18, 130800, Note_on_c, 14, 50, 76
18, 130919, Note_on_c, 14, 50, 0
18, 130920, Note_on_c, 14, 54, 76
18, 131019, Note_on_c, 14, 54, 0
18, 131040, Note_on_c, 14, 59, 76
18, 131159, Note_on_c, 14, 59, 0
18, 131160, Note_on_c, 14, 61, 76
18, 131259, Note_on_c, 14, 61, 0
18, 131280, Note_on_c, 14, 57, 76
18, 131379, Note_on_c, 14, 57, 0
18, 131400, Note_on_c, 14, 57, 76
18, 131519, Note_on_c, 14, 57, 0
18, 131520, Note_on_c, 14, 59, 76
18, 131619, Note_on_c, 14, 59, 0
18, 131640, Note_on_c, 14, 55, 76
18, 131739, Note_on_c, 14, 55, 0
18, 131760, Note_on_c, 14, 55, 76
18, 131859, Note_on_c, 14, 55, 0
18, 131880, Note_on_c, 14, 52, 76
18, 131999, Note_on_c, 14, 52, 0
18, 132000, Note_on_c, 14, 54, 76
18, 132119, Note_on_c, 14, 54, 0
18, 132120, Note_on_c, 14, 55, 76
18, 132239, Note_on_c, 14, 55, 0
18, 132240, Note_on_c, 14, 57, 76
18, 132339, Note_on_c, 14, 57, 0
18, 132360, Note_on_c, 14, 54, 76
18, 132459, Note_on_c, 14, 54, 0
18, 132480, Note_on_c, 14, 54, 76
18, 132599, Note_on_c, 14, 54, 0
18, 132600, Note_on_c, 14, 55, 76
18, 132699, Note_on_c, 14, 55, 0
18, 132720, Note_on_c, 14, 52, 76
18, 132819, Note_on_c, 14, 52, 0
18, 132840, Note_on_c, 14, 52, 76
18, 133094, Note_on_c, 14, 52, 0
18, 133110, Note_on_c, 14, 50, 76
18, 133184, Note_on_c, 14, 50, 0
18, 133200, Note_on_c, 14, 49, 76
18, 133454, Note_on_c, 14, 49, 0
18, 133470, Note_on_c, 14, 52, 76
18, 133544, Note_on_c, 14, 52, 0
18, 133560, Note_on_c, 14, 46, 76
18, 133814, Note_on_c, 14, 46, 0
18, 133830, Note_on_c, 14, 49, 76
18, 133904, Note_on_c, 14, 49, 0
18, 133920, Note_on_c, 14, 42, 76
18, 134279, Note_on_c, 14, 42, 0
18, 134550, Note_on_c, 14, 55, 76
18, 134624, Note_on_c, 14, 55, 0
18, 134640, Note_on_c, 14, 54, 76
18, 134894, Note_on_c, 14, 54, 0
18, 134910, Note_on_c, 14, 52, 76
18, 134984, Note_on_c, 14, 52, 0
18, 135000, Note_on_c, 14, 50, 76
18, 135254, Note_on_c, 14, 50, 0
18, 135270, Note_on_c, 14, 47, 76
18, 135344, Note_on_c, 14, 47, 0
18, 135360, Note_on_c, 14, 52, 76
18, 135479, Note_on_c, 14, 52, 0
18, 135480, Note_on_c, 14, 54, 76
18, 135599, Note_on_c, 14, 54, 0
18, 135600, Note_on_c, 14, 55, 76
18, 135699, Note_on_c, 14, 55, 0
18, 135720, Note_on_c, 14, 54, 76
18, 135974, Note_on_c, 14, 54, 0
18, 135990, Note_on_c, 14, 42, 76
18, 136064, Note_on_c, 14, 42, 0
18, 136080, Note_on_c, 14, 47, 76
18, 136199, Note_on_c, 14, 47, 0
18, 138510, Note_on_c, 14, 59, 76
18, 138584, Note_on_c, 14, 59, 0
18, 138600, Note_on_c, 14, 59, 76
18, 138719, Note_on_c, 14, 59, 0
18, 138720, Note_on_c, 14, 60, 76
18, 138839, Note_on_c, 14, 60, 0
18, 138840, Note_on_c, 14, 57, 76
18, 138959, Note_on_c, 14, 57, 0
18, 138960, Note_on_c, 14, 57, 76
18, 139079, Note_on_c, 14, 57, 0
18, 139080, Note_on_c, 14, 59, 76
18, 139199, Note_on_c, 14, 59, 0
18, 139200, Note_on_c, 14, 55, 76
18, 139319, Note_on_c, 14, 55, 0
18, 139320, Note_on_c, 14, 55, 76
18, 139439, Note_on_c, 14, 55, 0
18, 139440, Note_on_c, 14, 57, 76
18, 139559, Note_on_c, 14, 57, 0
18, 139560, Note_on_c, 14, 59, 76
18, 139679, Note_on_c, 14, 59, 0
18, 139680, Note_on_c, 14, 60, 76
18, 139799, Note_on_c, 14, 60, 0
18, 139800, Note_on_c, 14, 62, 76
18, 139899, Note_on_c, 14, 62, 0
18, 139920, Note_on_c, 14, 59, 76
18, 140019, Note_on_c, 14, 59, 0
18, 140040, Note_on_c, 14, 59, 76
18, 140159, Note_on_c, 14, 59, 0
18, 140160, Note_on_c, 14, 60, 76
18, 140259, Note_on_c, 14, 60, 0
18, 140280, Note_on_c, 14, 57, 76
18, 140379, Note_on_c, 14, 57, 0
18, 140400, Note_on_c, 14, 57, 76
18, 140654, Note_on_c, 14, 57, 0
18, 140670, Note_on_c, 14, 57, 76
18, 140744, Note_on_c, 14, 57, 0
18, 140760, Note_on_c, 14, 57, 76
18, 141014, Note_on_c, 14, 57, 0
18, 141030, Note_on_c, 14, 57, 76
18, 141104, Note_on_c, 14, 57, 0
18, 141120, Note_on_c, 14, 57, 76
18, 141374, Note_on_c, 14, 57, 0
18, 141390, Note_on_c, 14, 57, 76
18, 141464, Note_on_c, 14, 57, 0
18, 141480, Note_on_c, 14, 57, 76
18, 141599, Note_on_c, 14, 57, 0
18, 141600, Note_on_c, 14, 54, 76
18, 141719, Note_on_c, 14, 54, 0
18, 141720, Note_on_c, 14, 55, 76
18, 141839, Note_on_c, 14, 55, 0
18, 141840, Note_on_c, 14, 57, 76
18, 141959, Note_on_c, 14, 57, 0
18, 141960, Note_on_c, 14, 66, 76
18, 142059, Note_on_c, 14, 66, 0
18, 142080, Note_on_c, 14, 55, 76
18, 142179, Note_on_c, 14, 55, 0
18, 142200, Note_on_c, 14, 57, 76
18, 142319, Note_on_c, 14, 57, 0
18, 142320, Note_on_c, 14, 55, 76
18, 142439, Note_on_c, 14, 55, 0
18, 142440, Note_on_c, 14, 54, 76
18, 142539, Note_on_c, 14, 54, 0
18, 142560, Note_on_c, 14, 55, 76
18, 142679, Note_on_c, 14, 55, 0
18, 142680, Note_on_c, 14, 52, 76
18, 142799, Note_on_c, 14, 52, 0
18, 142800, Note_on_c, 14, 54, 76
18, 142919, Note_on_c, 14, 54, 0
18, 142920, Note_on_c, 14, 55, 76
18, 143039, Note_on_c, 14, 55, 0
18, 143040, Note_on_c, 14, 64, 76
18, 143139, Note_on_c, 14, 64, 0
18, 143160, Note_on_c, 14, 54, 76
18, 143259, Note_on_c, 14, 54, 0
18, 143280, Note_on_c, 14, 55, 76
18, 143399, Note_on_c, 14, 55, 0
18, 143400, Note_on_c, 14, 54, 76
18, 143519, Note_on_c, 14, 54, 0
18, 143520, Note_on_c, 14, 52, 76
18, 143619, Note_on_c, 14, 52, 0
18, 143640, Note_on_c, 14, 54, 76
18, 143759, Note_on_c, 14, 54, 0
18, 143760, Note_on_c, 14, 50, 76
18, 143879, Note_on_c, 14, 50, 0
18, 143880, Note_on_c, 14, 52, 76
18, 143999, Note_on_c, 14, 52, 0
18, 144000, Note_on_c, 14, 54, 76
18, 144119, Note_on_c, 14, 54, 0
18, 144120, Note_on_c, 14, 62, 76
18, 144219, Note_on_c, 14, 62, 0
18, 144240, Note_on_c, 14, 52, 76
18, 144339, Note_on_c, 14, 52, 0
18, 144360, Note_on_c, 14, 54, 76
18, 144479, Note_on_c, 14, 54, 0
18, 144480, Note_on_c, 14, 52, 76
18, 144599, Note_on_c, 14, 52, 0
18, 144600, Note_on_c, 14, 50, 76
18, 144699, Note_on_c, 14, 50, 0
18, 144720, Note_on_c, 14, 52, 76
18, 144839, Note_on_c, 14, 52, 0
18, 144840, Note_on_c, 14, 48, 76
18, 144959, Note_on_c, 14, 48, 0
18, 144960, Note_on_c, 14, 50, 76
18, 145079, Note_on_c, 14, 50, 0
18, 145080, Note_on_c, 14, 52, 76
18, 145199, Note_on_c, 14, 52, 0
18, 145200, Note_on_c, 14, 60, 76
18, 145299, Note_on_c, 14, 60, 0
18, 145320, Note_on_c, 14, 50, 76
18, 145419, Note_on_c, 14, 50, 0
18, 145440, Note_on_c, 14, 52, 76
18, 145559, Note_on_c, 14, 52, 0
18, 145560, Note_on_c, 14, 50, 76
18, 145679, Note_on_c, 14, 50, 0
18, 145680, Note_on_c, 14, 48, 76
18, 145779, Note_on_c, 14, 48, 0
18, 145800, Note_on_c, 14, 50, 76
18, 145919, Note_on_c, 14, 50, 0
18, 146880, Note_on_c, 14, 50, 76
18, 146999, Note_on_c, 14, 50, 0
18, 148230, Note_on_c, 14, 38, 76
18, 148304, Note_on_c, 14, 38, 0
18, 148320, Note_on_c, 14, 38, 76
18, 148574, Note_on_c, 14, 38, 0
18, 148590, Note_on_c, 14, 38, 76
18, 148664, Note_on_c, 14, 38, 0
18, 148680, Note_on_c, 14, 38, 76
18, 148934, Note_on_c, 14, 38, 0
18, 148950, Note_on_c, 14, 38, 76
18, 149024, Note_on_c, 14, 38, 0
18, 149040, Note_on_c, 14, 38, 76
18, 149294, Note_on_c, 14, 38, 0
18, 149310, Note_on_c, 14, 48, 76
18, 149384, Note_on_c, 14, 48, 0
18, 149400, Note_on_c, 14, 47, 76
18, 149654, Note_on_c, 14, 47, 0
18, 149670, Note_on_c, 14, 52, 76
18, 149744, Note_on_c, 14, 52, 0
18, 149760, Note_on_c, 14, 45, 76
18, 150014, Note_on_c, 14, 45, 0
18, 150030, Note_on_c, 14, 50, 76
18, 150104, Note_on_c, 14, 50, 0
18, 150120, Note_on_c, 14, 43, 76
18, 150374, Note_on_c, 14, 43, 0
18, 150390, Note_on_c, 14, 50, 76
18, 150464, Note_on_c, 14, 50, 0
18, 150480, Note_on_c, 14, 55, 76
18, 150599, Note_on_c, 14, 55, 0
18, 150600, Note_on_c, 14, 57, 76
18, 150719, Note_on_c, 14, 57, 0
18, 150720, Note_on_c, 14, 54, 76
18, 150839, Note_on_c, 14, 54, 0
18, 150840, Note_on_c, 14, 54, 76
18, 150959, Note_on_c, 14, 54, 0
18, 150960, Note_on_c, 14, 55, 76
18, 151079, Note_on_c, 14, 55, 0
18, 151080, Note_on_c, 14, 52, 76
18, 151199, Note_on_c, 14, 52, 0
18, 151200, Note_on_c, 14, 52, 76
18, 151319, Note_on_c, 14, 52, 0
18, 151320, Note_on_c, 14, 48, 76
18, 151439, Note_on_c, 14, 48, 0
18, 151440, Note_on_c, 14, 50, 76
18, 151559, Note_on_c, 14, 50, 0
18, 151560, Note_on_c, 14, 52, 76
18, 151679, Note_on_c, 14, 52, 0
18, 151680, Note_on_c, 14, 53, 76
18, 151779, Note_on_c, 14, 53, 0
18, 151800, Note_on_c, 14, 50, 76
18, 151899, Note_on_c, 14, 50, 0
18, 151920, Note_on_c, 14, 50, 76
18, 152039, Note_on_c, 14, 50, 0
18, 152040, Note_on_c, 14, 52, 76
18, 152139, Note_on_c, 14, 52, 0
18, 152160, Note_on_c, 14, 48, 76
18, 152259, Note_on_c, 14, 48, 0
18, 152280, Note_on_c, 14, 48, 76
18, 152534, Note_on_c, 14, 48, 0
18, 152550, Note_on_c, 14, 47, 76
18, 152624, Note_on_c, 14, 47, 0
18, 152640, Note_on_c, 14, 45, 76
18, 152894, Note_on_c, 14, 45, 0
18, 152910, Note_on_c, 14, 48, 76
18, 152984, Note_on_c, 14, 48, 0
18, 153000, Note_on_c, 14, 42, 76
18, 153254, Note_on_c, 14, 42, 0
18, 153270, Note_on_c, 14, 45, 76
18, 153344, Note_on_c, 14, 45, 0
18, 153360, Note_on_c, 14, 36, 76
18, 153479, Note_on_c, 14, 36, 0
18, 153990, Note_on_c, 14, 52, 76
18, 154064, Note_on_c, 14, 52, 0
18, 154080, Note_on_c, 14, 50, 76
18, 154334, Note_on_c, 14, 50, 0
18, 154350, Note_on_c, 14, 48, 76
18, 154424, Note_on_c, 14, 48, 0
18, 154440, Note_on_c, 14, 47, 76
18, 154559, Note_on_c, 14, 47, 0
18, 154560, Note_on_c, 14, 48, 76
18, 154679, Note_on_c, 14, 48, 0
18, 154680, Note_on_c, 14, 50, 76
18, 154779, Note_on_c, 14, 50, 0
18, 154800, Note_on_c, 14, 52, 76
18, 155054, Note_on_c, 14, 52, 0
18, 155070, Note_on_c, 14, 48, 76
18, 155144, Note_on_c, 14, 48, 0
18, 155160, Note_on_c, 14, 50, 76
18, 155414, Note_on_c, 14, 50, 0
18, 155430, Note_on_c, 14, 38, 76
18, 155504, Note_on_c, 14, 38, 0
18, 155520, Note_on_c, 14, 43, 76
18, 155774, Note_on_c, 14, 43, 0
18, 155790, Note_on_c, 14, 59, 76
18, 155864, Note_on_c, 14, 59, 0
18, 155880, Note_on_c, 14, 47, 76
18, 155880, Note_on_c, 14, 59, 76
18, 155999, Note_on_c, 14, 47, 0
18, 155999, Note_on_c, 14, 59, 0
18, 156000, Note_on_c, 14, 60, 76
18, 156099, Note_on_c, 14, 60, 0
18, 156120, Note_on_c, 14, 57, 76
18, 156219, Note_on_c, 14, 57, 0
18, 156240, Note_on_c, 14, 50, 76
18, 156240, Note_on_c, 14, 57, 76
18, 156359, Note_on_c, 14, 50, 0
18, 156359, Note_on_c, 14, 57, 0
18, 156360, Note_on_c, 14, 59, 76
18, 156459, Note_on_c, 14, 59, 0
18, 156480, Note_on_c, 14, 55, 76
18, 156579, Note_on_c, 14, 55, 0
18, 156600, Note_on_c, 14, 55, 76
18, 156719, Note_on_c, 14, 55, 0
18, 156720, Note_on_c, 14, 57, 76
18, 156839, Note_on_c, 14, 57, 0
18, 156840, Note_on_c, 14, 59, 76
18, 156939, Note_on_c, 14, 59, 0
18, 156960, Note_on_c, 14, 59, 76
18, 156960, Note_on_c, 14, 47, 76
18, 157079, Note_on_c, 14, 59, 0
18, 157079, Note_on_c, 14, 47, 0
18, 157080, Note_on_c, 14, 60, 76
18, 157179, Note_on_c, 14, 60, 0
18, 157200, Note_on_c, 14, 57, 76
18, 157299, Note_on_c, 14, 57, 0
18, 157320, Note_on_c, 14, 57, 76
18, 157320, Note_on_c, 14, 50, 76
18, 157439, Note_on_c, 14, 57, 0
18, 157439, Note_on_c, 14, 50, 0
18, 157440, Note_on_c, 14, 59, 76
18, 157539, Note_on_c, 14, 59, 0
18, 157560, Note_on_c, 14, 55, 76
18, 157659, Note_on_c, 14, 55, 0
18, 157680, Note_on_c, 14, 43, 76
18, 157680, Note_on_c, 14, 55, 76
18, 157799, Note_on_c, 14, 43, 0
18, 157799, Note_on_c, 14, 55, 0
18, 158310, Note_on_c, 14, 43, 76
18, 158384, Note_on_c, 14, 43, 0
18, 158400, Note_on_c, 14, 43, 76
18, 158654, Note_on_c, 14, 43, 0
18, 158670, Note_on_c, 14, 43, 76
18, 158744, Note_on_c, 14, 43, 0
18, 158760, Note_on_c, 14, 48, 76
18, 158879, Note_on_c, 14, 48, 0
18, 159390, Note_on_c, 14, 45, 76
18, 159464, Note_on_c, 14, 45, 0
18, 159480, Note_on_c, 14, 45, 76
18, 159734, Note_on_c, 14, 45, 0
18, 159750, Note_on_c, 14, 45, 76
18, 159824, Note_on_c, 14, 45, 0
18, 159840, Note_on_c, 14, 50, 76
18, 159959, Note_on_c, 14, 50, 0
18, 160470, Note_on_c, 14, 47, 76
18, 160544, Note_on_c, 14, 47, 0
18, 160560, Note_on_c, 14, 47, 76
18, 160814, Note_on_c, 14, 47, 0
18, 160830, Note_on_c, 14, 47, 76
18, 160904, Note_on_c, 14, 47, 0
18, 160920, Note_on_c, 14, 52, 76
18, 161039, Note_on_c, 14, 52, 0
18, 163440, Note_on_c, 14, 59, 76
18, 163559, Note_on_c, 14, 59, 0
18, 163800, Note_on_c, 14, 47, 76
18, 163919, Note_on_c, 14, 47, 0
18, 164520, Note_on_c, 14, 52, 76
18, 164639, Note_on_c, 14, 52, 0
18, 164880, Note_on_c, 14, 40, 76
18, 164999, Note_on_c, 14, 40, 0
18, 165600, Note_on_c, 14, 57, 76
18, 165719, Note_on_c, 14, 57, 0
18, 165960, Note_on_c, 14, 45, 76
18, 166079, Note_on_c, 14, 45, 0
18, 166680, Note_on_c, 14, 50, 76
18, 166799, Note_on_c, 14, 50, 0
18, 167040, Note_on_c, 14, 38, 76
18, 167159, Note_on_c, 14, 38, 0
18, 167760, Note_on_c, 14, 55, 76
18, 167879, Note_on_c, 14, 55, 0
18, 168120, Note_on_c, 14, 43, 76
18, 168239, Note_on_c, 14, 43, 0
18, 168840, Note_on_c, 14, 55, 76
18, 168959, Note_on_c, 14, 55, 0
18, 169200, Note_on_c, 14, 43, 76
18, 169319, Note_on_c, 14, 43, 0
18, 169560, Note_on_c, 14, 45, 76
18, 170639, Note_on_c, 14, 45, 0
18, 170640, Note_on_c, 14, 45, 76
18, 171719, Note_on_c, 14, 45, 0
18, 171720, Note_on_c, 14, 45, 76
18, 172779, Note_on_c, 14, 45, 0
18, 172800, Note_on_c, 14, 46, 76
18, 172919, Note_on_c, 14, 46, 0
18, 173880, Note_on_c, 14, 45, 76
18, 173999, Note_on_c, 14, 45, 0
18, 175230, Note_on_c, 14, 44, 76
18, 175304, Note_on_c, 14, 44, 0
18, 175320, Note_on_c, 14, 44, 76
18, 175574, Note_on_c, 14, 44, 0
18, 175590, Note_on_c, 14, 44, 76
18, 175664, Note_on_c, 14, 44, 0
18, 175680, Note_on_c, 14, 44, 76
18, 175934, Note_on_c, 14, 44, 0
18, 175950, Note_on_c, 14, 44, 76
18, 176024, Note_on_c, 14, 44, 0
18, 176040, Note_on_c, 14, 45, 76
18, 176294, Note_on_c, 14, 45, 0
18, 176310, Note_on_c, 14, 45, 76
18, 176384, Note_on_c, 14, 45, 0
18, 176400, Note_on_c, 14, 45, 76
18, 176654, Note_on_c, 14, 45, 0
18, 176670, Note_on_c, 14, 45, 76
18, 176744, Note_on_c, 14, 45, 0
18, 176760, Note_on_c, 14, 45, 76
18, 177014, Note_on_c, 14, 45, 0
18, 177030, Note_on_c, 14, 45, 76
18, 177104, Note_on_c, 14, 45, 0
18, 177120, Note_on_c, 14, 47, 76
18, 177374, Note_on_c, 14, 47, 0
18, 177390, Note_on_c, 14, 40, 76
18, 177464, Note_on_c, 14, 40, 0
18, 177480, Note_on_c, 14, 42, 76
18, 177734, Note_on_c, 14, 42, 0
18, 177750, Note_on_c, 14, 43, 76
18, 177824, Note_on_c, 14, 43, 0
18, 177840, Note_on_c, 14, 45, 76
18, 178094, Note_on_c, 14, 45, 0
18, 178110, Note_on_c, 14, 45, 76
18, 178184, Note_on_c, 14, 45, 0
18, 178200, Note_on_c, 14, 38, 76
18, 178319, Note_on_c, 14, 38, 0
18, 179550, Note_on_c, 14, 62, 76
18, 179624, Note_on_c, 14, 62, 0
18, 179640, Note_on_c, 14, 62, 76
18, 179759, Note_on_c, 14, 62, 0
18, 179760, Note_on_c, 14, 64, 76
18, 179859, Note_on_c, 14, 64, 0
18, 179880, Note_on_c, 14, 60, 76
18, 179979, Note_on_c, 14, 60, 0
18, 180000, Note_on_c, 14, 60, 76
18, 180119, Note_on_c, 14, 60, 0
18, 180120, Note_on_c, 14, 62, 76
18, 180219, Note_on_c, 14, 62, 0
18, 180240, Note_on_c, 14, 59, 76
18, 180339, Note_on_c, 14, 59, 0
18, 180360, Note_on_c, 14, 59, 76
18, 180479, Note_on_c, 14, 59, 0
18, 180480, Note_on_c, 14, 61, 76
18, 180599, Note_on_c, 14, 61, 0
18, 180600, Note_on_c, 14, 62, 76
18, 180719, Note_on_c, 14, 62, 0
18, 180720, Note_on_c, 14, 64, 76
18, 180839, Note_on_c, 14, 64, 0
18, 180840, Note_on_c, 14, 66, 76
18, 180939, Note_on_c, 14, 66, 0
18, 180960, Note_on_c, 14, 62, 76
18, 181059, Note_on_c, 14, 62, 0
18, 181080, Note_on_c, 14, 62, 76
18, 181199, Note_on_c, 14, 62, 0
18, 181200, Note_on_c, 14, 64, 76
18, 181299, Note_on_c, 14, 64, 0
18, 181320, Note_on_c, 14, 61, 76
18, 181419, Note_on_c, 14, 61, 0
18, 181440, Note_on_c, 14, 61, 76
18, 181694, Note_on_c, 14, 61, 0
18, 181710, Note_on_c, 14, 61, 76
18, 181784, Note_on_c, 14, 61, 0
18, 181800, Note_on_c, 14, 61, 76
18, 182054, Note_on_c, 14, 61, 0
18, 182070, Note_on_c, 14, 61, 76
18, 182144, Note_on_c, 14, 61, 0
18, 182160, Note_on_c, 14, 61, 76
18, 182414, Note_on_c, 14, 61, 0
18, 182430, Note_on_c, 14, 61, 76
18, 182504, Note_on_c, 14, 61, 0
18, 182520, Note_on_c, 14, 62, 76
18, 182774, Note_on_c, 14, 62, 0
18, 182790, Note_on_c, 14, 57, 76
18, 182864, Note_on_c, 14, 57, 0
18, 182880, Note_on_c, 14, 57, 76
18, 182999, Note_on_c, 14, 57, 0
18, 183000, Note_on_c, 14, 59, 76
18, 183099, Note_on_c, 14, 59, 0
18, 183120, Note_on_c, 14, 55, 76
18, 183219, Note_on_c, 14, 55, 0
18, 183240, Note_on_c, 14, 55, 76
18, 183359, Note_on_c, 14, 55, 0
18, 183360, Note_on_c, 14, 57, 76
18, 183459, Note_on_c, 14, 57, 0
18, 183480, Note_on_c, 14, 54, 76
18, 183579, Note_on_c, 14, 54, 0
18, 183600, Note_on_c, 14, 54, 76
18, 183719, Note_on_c, 14, 54, 0
18, 183720, Note_on_c, 14, 56, 76
18, 183839, Note_on_c, 14, 56, 0
18, 183840, Note_on_c, 14, 57, 76
18, 183959, Note_on_c, 14, 57, 0
18, 183960, Note_on_c, 14, 59, 76
18, 184079, Note_on_c, 14, 59, 0
18, 184080, Note_on_c, 14, 61, 76
18, 184179, Note_on_c, 14, 61, 0
18, 184200, Note_on_c, 14, 57, 76
18, 184299, Note_on_c, 14, 57, 0
18, 184320, Note_on_c, 14, 57, 76
18, 184439, Note_on_c, 14, 57, 0
18, 184440, Note_on_c, 14, 59, 76
18, 184539, Note_on_c, 14, 59, 0
18, 184560, Note_on_c, 14, 56, 76
18, 184659, Note_on_c, 14, 56, 0
18, 184680, Note_on_c, 14, 56, 76
18, 184934, Note_on_c, 14, 56, 0
18, 184950, Note_on_c, 14, 56, 76
18, 185024, Note_on_c, 14, 56, 0
18, 185040, Note_on_c, 14, 56, 76
18, 185294, Note_on_c, 14, 56, 0
18, 185310, Note_on_c, 14, 56, 76
18, 185384, Note_on_c, 14, 56, 0
18, 185400, Note_on_c, 14, 56, 76
18, 185654, Note_on_c, 14, 56, 0
18, 185670, Note_on_c, 14, 56, 76
18, 185744, Note_on_c, 14, 56, 0
18, 185760, Note_on_c, 14, 57, 76
18, 186014, Note_on_c, 14, 57, 0
18, 186030, Note_on_c, 14, 55, 76
18, 186104, Note_on_c, 14, 55, 0
18, 186120, Note_on_c, 14, 54, 76
18, 186374, Note_on_c, 14, 54, 0
18, 186390, Note_on_c, 14, 54, 76
18, 186464, Note_on_c, 14, 54, 0
18, 186480, Note_on_c, 14, 54, 76
18, 186734, Note_on_c, 14, 54, 0
18, 186750, Note_on_c, 14, 54, 76
18, 186824, Note_on_c, 14, 54, 0
18, 186840, Note_on_c, 14, 55, 76
18, 186959, Note_on_c, 14, 55, 0
18, 186960, Note_on_c, 14, 52, 76
18, 187079, Note_on_c, 14, 52, 0
18, 187080, Note_on_c, 14, 54, 76
18, 187179, Note_on_c, 14, 54, 0
18, 187200, Note_on_c, 14, 55, 76
18, 187319, Note_on_c, 14, 55, 0
18, 187320, Note_on_c, 14, 57, 76
18, 187419, Note_on_c, 14, 57, 0
18, 187440, Note_on_c, 14, 54, 76
18, 187539, Note_on_c, 14, 54, 0
18, 187560, Note_on_c, 14, 54, 76
18, 187679, Note_on_c, 14, 54, 0
18, 187680, Note_on_c, 14, 55, 76
18, 187779, Note_on_c, 14, 55, 0
18, 187800, Note_on_c, 14, 52, 76
18, 187899, Note_on_c, 14, 52, 0
18, 187920, Note_on_c, 14, 52, 76
18, 188039, Note_on_c, 14, 52, 0
18, 188280, Note_on_c, 14, 40, 76
18, 188399, Note_on_c, 14, 40, 0
18, 188640, Note_on_c, 14, 52, 76
18, 188759, Note_on_c, 14, 52, 0
18, 189000, Note_on_c, 14, 57, 76
18, 189119, Note_on_c, 14, 57, 0
18, 189360, Note_on_c, 14, 45, 76
18, 189479, Note_on_c, 14, 45, 0
18, 189720, Note_on_c, 14, 57, 76
18, 189839, Note_on_c, 14, 57, 0
18, 190080, Note_on_c, 14, 62, 76
18, 190199, Note_on_c, 14, 62, 0
18, 190440, Note_on_c, 14, 38, 76
18, 190559, Note_on_c, 14, 38, 0
18, 190800, Note_on_c, 14, 50, 76
18, 190919, Note_on_c, 14, 50, 0
18, 191160, Note_on_c, 14, 55, 76
18, 191279, Note_on_c, 14, 55, 0
18, 191790, Note_on_c, 14, 52, 76
18, 191864, Note_on_c, 14, 52, 0
18, 191880, Note_on_c, 14, 54, 76
18, 192134, Note_on_c, 14, 54, 0
18, 192150, Note_on_c, 14, 55, 76
18, 192224, Note_on_c, 14, 55, 0
18, 192240, Note_on_c, 14, 57, 76
18, 192359, Note_on_c, 14, 57, 0
18, 192870, Note_on_c, 14, 54, 76
18, 192944, Note_on_c, 14, 54, 0
18, 192960, Note_on_c, 14, 55, 76
18, 193214, Note_on_c, 14, 55, 0
18, 193230, Note_on_c, 14, 57, 76
18, 193304, Note_on_c, 14, 57, 0
18, 193320, Note_on_c, 14, 59, 76
18, 193439, Note_on_c, 14, 59, 0
18, 193680, Note_on_c, 14, 55, 76
18, 193799, Note_on_c, 14, 55, 0
18, 194040, Note_on_c, 14, 54, 76
18, 194159, Note_on_c, 14, 54, 0
18, 194400, Note_on_c, 14, 52, 76
18, 194519, Note_on_c, 14, 52, 0
18, 194520, Note_on_c, 14, 55, 76
18, 194639, Note_on_c, 14, 55, 0
18, 194640, Note_on_c, 14, 59, 76
18, 194739, Note_on_c, 14, 59, 0
18, 194760, Note_on_c, 14, 64, 76
18, 194879, Note_on_c, 14, 64, 0
18, 194880, Note_on_c, 14, 66, 76
18, 194979, Note_on_c, 14, 66, 0
18, 195000, Note_on_c, 14, 62, 76
18, 195099, Note_on_c, 14, 62, 0
18, 195120, Note_on_c, 14, 62, 76
18, 195239, Note_on_c, 14, 62, 0
18, 195240, Note_on_c, 14, 64, 76
18, 195339, Note_on_c, 14, 64, 0
18, 195360, Note_on_c, 14, 61, 76
18, 195459, Note_on_c, 14, 61, 0
18, 195480, Note_on_c, 14, 61, 76
18, 195599, Note_on_c, 14, 61, 0
18, 196110, Note_on_c, 14, 57, 76
18, 196184, Note_on_c, 14, 57, 0
18, 196200, Note_on_c, 14, 54, 76
18, 196454, Note_on_c, 14, 54, 0
18, 196470, Note_on_c, 14, 57, 76
18, 196544, Note_on_c, 14, 57, 0
18, 196560, Note_on_c, 14, 50, 76
18, 196814, Note_on_c, 14, 50, 0
18, 196830, Note_on_c, 14, 52, 76
18, 196904, Note_on_c, 14, 52, 0
18, 196920, Note_on_c, 14, 54, 76
18, 197174, Note_on_c, 14, 54, 0
18, 197190, Note_on_c, 14, 55, 76
18, 197264, Note_on_c, 14, 55, 0
18, 197280, Note_on_c, 14, 57, 76
18, 197534, Note_on_c, 14, 57, 0
18, 197550, Note_on_c, 14, 45, 76
18, 197624, Note_on_c, 14, 45, 0
18, 197640, Note_on_c, 14, 50, 76
18, 197894, Note_on_c, 14, 50, 0
18, 197910, Note_on_c, 14, 54, 76
18, 197984, Note_on_c, 14, 54, 0
18, 198000, Note_on_c, 14, 54, 76
18, 198119, Note_on_c, 14, 54, 0
18, 198120, Note_on_c, 14, 55, 76
18, 198219, Note_on_c, 14, 55, 0
18, 198240, Note_on_c, 14, 52, 76
18, 198339, Note_on_c, 14, 52, 0
18, 198360, Note_on_c, 14, 52, 76
18, 198479, Note_on_c, 14, 52, 0
18, 198480, Note_on_c, 14, 54, 76
18, 198579, Note_on_c, 14, 54, 0
18, 198600, Note_on_c, 14, 50, 76
18, 198699, Note_on_c, 14, 50, 0
18, 198720, Note_on_c, 14, 50, 76
18, 198839, Note_on_c, 14, 50, 0
18, 198840, Note_on_c, 14, 52, 76
18, 198959, Note_on_c, 14, 52, 0
18, 198960, Note_on_c, 14, 54, 76
18, 199059, Note_on_c, 14, 54, 0
18, 199080, Note_on_c, 14, 54, 76
18, 199199, Note_on_c, 14, 54, 0
18, 199200, Note_on_c, 14, 55, 76
18, 199299, Note_on_c, 14, 55, 0
18, 199320, Note_on_c, 14, 52, 76
18, 199419, Note_on_c, 14, 52, 0
18, 199440, Note_on_c, 14, 52, 76
18, 199559, Note_on_c, 14, 52, 0
18, 199560, Note_on_c, 14, 54, 76
18, 199659, Note_on_c, 14, 54, 0
18, 199680, Note_on_c, 14, 50, 76
18, 199779, Note_on_c, 14, 50, 0
18, 199800, Note_on_c, 14, 50, 76
18, 200279, Note_on_c, 14, 50, 0
18, 200280, Note_on_c, 14, 50, 76
18, 200573, Note_on_c, 14, 50, 0
18, 200580, Note_on_c, 14, 52, 76
18, 200633, Note_on_c, 14, 52, 0
18, 200640, Note_on_c, 14, 54, 76
18, 200693, Note_on_c, 14, 54, 0
18, 200700, Note_on_c, 14, 50, 76
18, 200753, Note_on_c, 14, 50, 0
18, 200760, Note_on_c, 14, 60, 76
18, 201239, Note_on_c, 14, 60, 0
18, 201240, Note_on_c, 14, 60, 76
18, 201533, Note_on_c, 14, 60, 0
18, 201540, Note_on_c, 14, 59, 76
18, 201593, Note_on_c, 14, 59, 0
18, 201600, Note_on_c, 14, 60, 76
18, 201653, Note_on_c, 14, 60, 0
18, 201660, Note_on_c, 14, 57, 76
18, 201713, Note_on_c, 14, 57, 0
18, 201720, Note_on_c, 14, 63, 76
18, 202253, Note_on_c, 14, 63, 0
18, 202260, Note_on_c, 14, 61, 76
18, 202313, Note_on_c, 14, 61, 0
18, 202320, Note_on_c, 14, 59, 76
18, 202373, Note_on_c, 14, 59, 0
18, 202380, Note_on_c, 14, 61, 76
18, 202433, Note_on_c, 14, 61, 0
18, 202440, Note_on_c, 14, 63, 76
18, 202493, Note_on_c, 14, 63, 0
18, 202500, Note_on_c, 14, 61, 76
18, 202553, Note_on_c, 14, 61, 0
18, 202560, Note_on_c, 14, 63, 76
18, 202613, Note_on_c, 14, 63, 0
18, 202620, Note_on_c, 14, 59, 76
18, 202673, Note_on_c, 14, 59, 0
18, 202680, Note_on_c, 14, 64, 76
18, 202853, Note_on_c, 14, 64, 0
18, 202860, Note_on_c, 14, 59, 76
18, 202913, Note_on_c, 14, 59, 0
18, 202920, Note_on_c, 14, 59, 76
18, 203093, Note_on_c, 14, 59, 0
18, 203100, Note_on_c, 14, 55, 76
18, 203153, Note_on_c, 14, 55, 0
18, 203160, Note_on_c, 14, 55, 76
18, 203333, Note_on_c, 14, 55, 0
18, 203340, Note_on_c, 14, 52, 76
18, 203393, Note_on_c, 14, 52, 0
18, 203400, Note_on_c, 14, 52, 76
18, 203573, Note_on_c, 14, 52, 0
18, 203580, Note_on_c, 14, 45, 76
18, 203633, Note_on_c, 14, 45, 0
18, 203640, Note_on_c, 14, 45, 76
18, 203813, Note_on_c, 14, 45, 0
18, 203820, Note_on_c, 14, 57, 76
18, 203873, Note_on_c, 14, 57, 0
18, 203880, Note_on_c, 14, 57, 76
18, 204053, Note_on_c, 14, 57, 0
18, 204060, Note_on_c, 14, 52, 76
18, 204113, Note_on_c, 14, 52, 0
18, 204120, Note_on_c, 14, 52, 76
18, 204293, Note_on_c, 14, 52, 0
18, 204300, Note_on_c, 14, 49, 76
18, 204353, Note_on_c, 14, 49, 0
18, 204360, Note_on_c, 14, 49, 76
18, 204533, Note_on_c, 14, 49, 0
18, 204540, Note_on_c, 14, 45, 76
18, 204593, Note_on_c, 14, 45, 0
18, 204600, Note_on_c, 14, 50, 76
18, 204773, Note_on_c, 14, 50, 0
18, 204780, Note_on_c, 14, 45, 76
18, 204833, Note_on_c, 14, 45, 0
18, 204840, Note_on_c, 14, 45, 76
18, 205013, Note_on_c, 14, 45, 0
18, 205020, Note_on_c, 14, 42, 76
18, 205073, Note_on_c, 14, 42, 0
18, 205080, Note_on_c, 14, 42, 76
18, 205253, Note_on_c, 14, 42, 0
18, 205260, Note_on_c, 14, 38, 76
18, 205313, Note_on_c, 14, 38, 0
18, 205320, Note_on_c, 14, 38, 76
18, 205493, Note_on_c, 14, 38, 0
18, 205500, Note_on_c, 14, 42, 76
18, 205553, Note_on_c, 14, 42, 0
18, 205560, Note_on_c, 14, 43, 76
18, 205733, Note_on_c, 14, 43, 0
18, 205740, Note_on_c, 14, 47, 76
18, 205793, Note_on_c, 14, 47, 0
18, 205800, Note_on_c, 14, 47, 76
18, 205973, Note_on_c, 14, 47, 0
18, 205980, Note_on_c, 14, 52, 76
18, 206033, Note_on_c, 14, 52, 0
18, 206040, Note_on_c, 14, 52, 76
18, 206213, Note_on_c, 14, 52, 0
18, 206220, Note_on_c, 14, 55, 76
18, 206273, Note_on_c, 14, 55, 0
18, 206280, Note_on_c, 14, 55, 76
18, 206453, Note_on_c, 14, 55, 0
18, 206460, Note_on_c, 14, 52, 76
18, 206513, Note_on_c, 14, 52, 0
18, 206520, Note_on_c, 14, 49, 76
18, 206693, Note_on_c, 14, 49, 0
18, 206700, Note_on_c, 14, 45, 76
18, 206753, Note_on_c, 14, 45, 0
18, 206760, Note_on_c, 14, 45, 76
18, 206933, Note_on_c, 14, 45, 0
18, 206940, Note_on_c, 14, 49, 76
18, 206993, Note_on_c, 14, 49, 0
18, 207000, Note_on_c, 14, 50, 76
18, 207479, Note_on_c, 14, 50, 0
18, 207480, Note_on_c, 14, 50, 76
18, 207773, Note_on_c, 14, 50, 0
18, 207780, Note_on_c, 14, 49, 76
18, 207833, Note_on_c, 14, 49, 0
18, 207840, Note_on_c, 14, 50, 76
18, 207893, Note_on_c, 14, 50, 0
18, 207900, Note_on_c, 14, 47, 76
18, 207953, Note_on_c, 14, 47, 0
18, 207960, Note_on_c, 14, 49, 76
18, 208189, Note_on_c, 14, 49, 0
18, 208200, Note_on_c, 14, 45, 76
18, 208429, Note_on_c, 14, 45, 0
18, 208440, Note_on_c, 14, 50, 76
18, 208973, Note_on_c, 14, 50, 0
18, 208980, Note_on_c, 14, 50, 76
18, 209033, Note_on_c, 14, 50, 0
18, 209040, Note_on_c, 14, 52, 76
18, 209093, Note_on_c, 14, 52, 0
18, 209100, Note_on_c, 14, 54, 76
18, 209153, Note_on_c, 14, 54, 0
18, 209160, Note_on_c, 14, 55, 76
18, 209213, Note_on_c, 14, 55, 0
18, 209220, Note_on_c, 14, 54, 76
18, 209273, Note_on_c, 14, 54, 0
18, 209280, Note_on_c, 14, 55, 76
18, 209333, Note_on_c, 14, 55, 0
18, 209340, Note_on_c, 14, 52, 76
18, 209371, Note_on_c, 14, 52, 0
18, 209380, Note_on_c, 14, 50, 76
18, 209399, Note_on_c, 14, 50, 0
18, 209400, Note_on_c, 14, 49, 76
18, 209749, Note_on_c, 14, 49, 0
18, 209760, Note_on_c, 14, 47, 76
18, 209869, Note_on_c, 14, 47, 0
18, 209880, Note_on_c, 14, 46, 76
18, 210109, Note_on_c, 14, 46, 0
18, 210120, Note_on_c, 14, 42, 76
18, 210349, Note_on_c, 14, 42, 0
18, 210360, Note_on_c, 14, 47, 76
18, 210893, Note_on_c, 14, 47, 0
18, 210900, Note_on_c, 14, 45, 76
18, 210953, Note_on_c, 14, 45, 0
18, 210960, Note_on_c, 14, 47, 76
18, 211013, Note_on_c, 14, 47, 0
18, 211020, Note_on_c, 14, 49, 76
18, 211073, Note_on_c, 14, 49, 0
18, 211080, Note_on_c, 14, 50, 76
18, 211133, Note_on_c, 14, 50, 0
18, 211140, Note_on_c, 14, 49, 76
18, 211193, Note_on_c, 14, 49, 0
18, 211200, Note_on_c, 14, 50, 76
18, 211253, Note_on_c, 14, 50, 0
18, 211260, Note_on_c, 14, 47, 76
18, 211313, Note_on_c, 14, 47, 0
18, 211320, Note_on_c, 14, 49, 76
18, 211493, Note_on_c, 14, 49, 0
18, 211500, Note_on_c, 14, 45, 76
18, 211553, Note_on_c, 14, 45, 0
18, 211560, Note_on_c, 14, 50, 76
18, 211733, Note_on_c, 14, 50, 0
18, 211740, Note_on_c, 14, 52, 76
18, 211793, Note_on_c, 14, 52, 0
18, 211800, Note_on_c, 14, 54, 76
18, 211973, Note_on_c, 14, 54, 0
18, 211980, Note_on_c, 14, 55, 76
18, 212033, Note_on_c, 14, 55, 0
18, 212040, Note_on_c, 14, 52, 76
18, 212213, Note_on_c, 14, 52, 0
18, 212220, Note_on_c, 14, 50, 76
18, 212273, Note_on_c, 14, 50, 0
18, 212280, Note_on_c, 14, 45, 76
18, 212759, Note_on_c, 14, 45, 0
18, 212760, Note_on_c, 14, 45, 76
18, 213173, Note_on_c, 14, 45, 0
18, 213180, Note_on_c, 14, 45, 76
18, 213233, Note_on_c, 14, 45, 0
18, 213240, Note_on_c, 14, 45, 76
18, 213719, Note_on_c, 14, 45, 0
18, 213720, Note_on_c, 14, 45, 76
18, 214133, Note_on_c, 14, 45, 0
18, 214140, Note_on_c, 14, 45, 76
18, 214193, Note_on_c, 14, 45, 0
18, 214200, Note_on_c, 14, 45, 76
18, 214679, Note_on_c, 14, 45, 0
18, 214680, Note_on_c, 14, 45, 76
18, 215093, Note_on_c, 14, 45, 0
18, 215100, Note_on_c, 14, 45, 76
18, 215153, Note_on_c, 14, 45, 0
18, 215160, Note_on_c, 14, 45, 76
18, 215639, Note_on_c, 14, 45, 0
18, 215640, Note_on_c, 14, 45, 76
18, 216053, Note_on_c, 14, 45, 0
18, 216060, Note_on_c, 14, 45, 76
18, 216113, Note_on_c, 14, 45, 0
18, 216120, Note_on_c, 14, 45, 76
18, 216653, Note_on_c, 14, 45, 0
18, 216660, Note_on_c, 14, 47, 76
18, 216713, Note_on_c, 14, 47, 0
18, 216720, Note_on_c, 14, 45, 76
18, 216773, Note_on_c, 14, 45, 0
18, 216780, Note_on_c, 14, 43, 76
18, 216833, Note_on_c, 14, 43, 0
18, 216840, Note_on_c, 14, 42, 76
18, 216893, Note_on_c, 14, 42, 0
18, 216900, Note_on_c, 14, 40, 76
18, 216953, Note_on_c, 14, 40, 0
18, 216960, Note_on_c, 14, 42, 76
18, 217013, Note_on_c, 14, 42, 0
18, 217020, Note_on_c, 14, 38, 76
18, 217073, Note_on_c, 14, 38, 0
18, 217080, Note_on_c, 14, 47, 76
18, 217613, Note_on_c, 14, 47, 0
18, 217620, Note_on_c, 14, 48, 76
18, 217673, Note_on_c, 14, 48, 0
18, 217680, Note_on_c, 14, 47, 76
18, 217733, Note_on_c, 14, 47, 0
18, 217740, Note_on_c, 14, 45, 76
18, 217793, Note_on_c, 14, 45, 0
18, 217800, Note_on_c, 14, 43, 76
18, 217853, Note_on_c, 14, 43, 0
18, 217860, Note_on_c, 14, 42, 76
18, 217913, Note_on_c, 14, 42, 0
18, 217920, Note_on_c, 14, 43, 76
18, 217973, Note_on_c, 14, 43, 0
18, 217980, Note_on_c, 14, 40, 76
18, 218033, Note_on_c, 14, 40, 0
18, 218040, Note_on_c, 14, 49, 76
18, 218213, Note_on_c, 14, 49, 0
18, 218220, Note_on_c, 14, 45, 76
18, 218273, Note_on_c, 14, 45, 0
18, 218280, Note_on_c, 14, 50, 76
18, 218453, Note_on_c, 14, 50, 0
18, 218460, Note_on_c, 14, 43, 76
18, 218513, Note_on_c, 14, 43, 0
18, 218520, Note_on_c, 14, 45, 76
18, 218749, Note_on_c, 14, 45, 0
18, 218760, Note_on_c, 14, 45, 76
18, 218989, Note_on_c, 14, 45, 0
18, 219000, Note_on_c, 14, 38, 76
18, 219000, Note_on_c, 14, 50, 76
18, 219219, Note_on_c, 14, 50, 0
18, 219239, Note_on_c, 14, 38, 0
18, 219240, Note_on_c, 14, 52, 76
18, 219339, Note_on_c, 14, 52, 0
18, 219360, Note_on_c, 14, 54, 76
18, 219479, Note_on_c, 14, 54, 0
18, 219480, Note_on_c, 14, 57, 76
18, 219579, Note_on_c, 14, 57, 0
18, 219600, Note_on_c, 14, 56, 76
18, 219699, Note_on_c, 14, 56, 0
18, 219720, Note_on_c, 14, 56, 76
18, 219839, Note_on_c, 14, 56, 0
18, 219840, Note_on_c, 14, 59, 76
18, 219939, Note_on_c, 14, 59, 0
18, 219960, Note_on_c, 14, 57, 76
18, 220059, Note_on_c, 14, 57, 0
18, 220080, Note_on_c, 14, 57, 76
18, 220439, Note_on_c, 14, 57, 0
18, 225720, Note_on_c, 14, 62, 76
18, 225819, Note_on_c, 14, 62, 0
18, 225840, Note_on_c, 14, 62, 76
18, 225959, Note_on_c, 14, 62, 0
18, 225960, Note_on_c, 14, 64, 76
18, 226059, Note_on_c, 14, 64, 0
18, 226080, Note_on_c, 14, 60, 76
18, 226179, Note_on_c, 14, 60, 0
18, 226200, Note_on_c, 14, 60, 76
18, 226319, Note_on_c, 14, 60, 0
18, 226320, Note_on_c, 14, 62, 76
18, 226419, Note_on_c, 14, 62, 0
18, 226440, Note_on_c, 14, 59, 76
18, 226539, Note_on_c, 14, 59, 0
18, 226560, Note_on_c, 14, 59, 76
18, 226679, Note_on_c, 14, 59, 0
18, 226680, Note_on_c, 14, 61, 76
18, 226799, Note_on_c, 14, 61, 0
18, 226800, Note_on_c, 14, 62, 76
18, 226899, Note_on_c, 14, 62, 0
18, 226920, Note_on_c, 14, 64, 76
18, 227039, Note_on_c, 14, 64, 0
18, 227040, Note_on_c, 14, 66, 76
18, 227139, Note_on_c, 14, 66, 0
18, 227160, Note_on_c, 14, 62, 76
18, 227259, Note_on_c, 14, 62, 0
18, 227280, Note_on_c, 14, 62, 76
18, 227399, Note_on_c, 14, 62, 0
18, 227400, Note_on_c, 14, 64, 76
18, 227499, Note_on_c, 14, 64, 0
18, 227520, Note_on_c, 14, 61, 76
18, 227619, Note_on_c, 14, 61, 0
18, 227640, Note_on_c, 14, 61, 76
18, 227894, Note_on_c, 14, 61, 0
18, 227910, Note_on_c, 14, 61, 76
18, 227984, Note_on_c, 14, 61, 0
18, 228000, Note_on_c, 14, 61, 76
18, 228254, Note_on_c, 14, 61, 0
18, 228270, Note_on_c, 14, 61, 76
18, 228344, Note_on_c, 14, 61, 0
18, 228360, Note_on_c, 14, 61, 76
18, 228614, Note_on_c, 14, 61, 0
18, 228630, Note_on_c, 14, 61, 76
18, 228704, Note_on_c, 14, 61, 0
18, 228720, Note_on_c, 14, 62, 76
18, 228974, Note_on_c, 14, 62, 0
18, 228990, Note_on_c, 14, 57, 76
18, 229064, Note_on_c, 14, 57, 0
18, 229080, Note_on_c, 14, 57, 76
18, 229199, Note_on_c, 14, 57, 0
18, 229200, Note_on_c, 14, 59, 76
18, 229299, Note_on_c, 14, 59, 0
18, 229320, Note_on_c, 14, 55, 76
18, 229419, Note_on_c, 14, 55, 0
18, 229440, Note_on_c, 14, 55, 76
18, 229559, Note_on_c, 14, 55, 0
18, 229560, Note_on_c, 14, 57, 76
18, 229659, Note_on_c, 14, 57, 0
18, 229680, Note_on_c, 14, 54, 76
18, 229779, Note_on_c, 14, 54, 0
18, 229800, Note_on_c, 14, 54, 76
18, 229919, Note_on_c, 14, 54, 0
18, 229920, Note_on_c, 14, 56, 76
18, 230039, Note_on_c, 14, 56, 0
18, 230040, Note_on_c, 14, 57, 76
18, 230139, Note_on_c, 14, 57, 0
18, 230160, Note_on_c, 14, 59, 76
18, 230279, Note_on_c, 14, 59, 0
18, 230280, Note_on_c, 14, 61, 76
18, 230379, Note_on_c, 14, 61, 0
18, 230400, Note_on_c, 14, 57, 76
18, 230499, Note_on_c, 14, 57, 0
18, 230520, Note_on_c, 14, 57, 76
18, 230639, Note_on_c, 14, 57, 0
18, 230640, Note_on_c, 14, 59, 76
18, 230739, Note_on_c, 14, 59, 0
18, 230760, Note_on_c, 14, 56, 76
18, 230859, Note_on_c, 14, 56, 0
18, 230880, Note_on_c, 14, 56, 76
18, 231134, Note_on_c, 14, 56, 0
18, 231150, Note_on_c, 14, 56, 76
18, 231224, Note_on_c, 14, 56, 0
18, 231240, Note_on_c, 14, 56, 76
18, 231494, Note_on_c, 14, 56, 0
18, 231510, Note_on_c, 14, 56, 76
18, 231584, Note_on_c, 14, 56, 0
18, 231600, Note_on_c, 14, 56, 76
18, 231854, Note_on_c, 14, 56, 0
18, 231870, Note_on_c, 14, 56, 76
18, 231944, Note_on_c, 14, 56, 0
18, 231960, Note_on_c, 14, 57, 76
18, 232214, Note_on_c, 14, 57, 0
18, 232230, Note_on_c, 14, 55, 76
18, 232304, Note_on_c, 14, 55, 0
18, 232320, Note_on_c, 14, 54, 76
18, 232574, Note_on_c, 14, 54, 0
18, 232590, Note_on_c, 14, 54, 76
18, 232664, Note_on_c, 14, 54, 0
18, 232680, Note_on_c, 14, 54, 76
18, 232934, Note_on_c, 14, 54, 0
18, 232950, Note_on_c, 14, 54, 76
18, 233024, Note_on_c, 14, 54, 0
18, 233040, Note_on_c, 14, 55, 76
18, 233159, Note_on_c, 14, 55, 0
18, 233160, Note_on_c, 14, 52, 76
18, 233279, Note_on_c, 14, 52, 0
18, 233280, Note_on_c, 14, 54, 76
18, 233379, Note_on_c, 14, 54, 0
18, 233400, Note_on_c, 14, 55, 76
18, 233519, Note_on_c, 14, 55, 0
18, 233520, Note_on_c, 14, 57, 76
18, 233619, Note_on_c, 14, 57, 0
18, 233640, Note_on_c, 14, 54, 76
18, 233739, Note_on_c, 14, 54, 0
18, 233760, Note_on_c, 14, 54, 76
18, 233879, Note_on_c, 14, 54, 0
18, 233880, Note_on_c, 14, 55, 76
18, 233979, Note_on_c, 14, 55, 0
18, 234000, Note_on_c, 14, 52, 76
18, 234099, Note_on_c, 14, 52, 0
18, 234120, Note_on_c, 14, 52, 76
18, 234239, Note_on_c, 14, 52, 0
18, 234480, Note_on_c, 14, 40, 76
18, 234599, Note_on_c, 14, 40, 0
18, 234840, Note_on_c, 14, 52, 76
18, 234959, Note_on_c, 14, 52, 0
18, 235200, Note_on_c, 14, 57, 76
18, 235319, Note_on_c, 14, 57, 0
18, 235560, Note_on_c, 14, 45, 76
18, 235679, Note_on_c, 14, 45, 0
18, 235920, Note_on_c, 14, 57, 76
18, 236039, Note_on_c, 14, 57, 0
18, 236280, Note_on_c, 14, 62, 76
18, 236399, Note_on_c, 14, 62, 0
18, 236640, Note_on_c, 14, 38, 76
18, 236759, Note_on_c, 14, 38, 0
18, 237000, Note_on_c, 14, 50, 76
18, 237119, Note_on_c, 14, 50, 0
18, 237360, Note_on_c, 14, 55, 76
18, 237479, Note_on_c, 14, 55, 0
18, 237990, Note_on_c, 14, 52, 76
18, 238064, Note_on_c, 14, 52, 0
18, 238080, Note_on_c, 14, 54, 76
18, 238334, Note_on_c, 14, 54, 0
18, 238350, Note_on_c, 14, 55, 76
18, 238424, Note_on_c, 14, 55, 0
18, 238440, Note_on_c, 14, 57, 76
18, 238559, Note_on_c, 14, 57, 0
18, 239070, Note_on_c, 14, 54, 76
18, 239144, Note_on_c, 14, 54, 0
18, 239160, Note_on_c, 14, 55, 76
18, 239414, Note_on_c, 14, 55, 0
18, 239430, Note_on_c, 14, 57, 76
18, 239504, Note_on_c, 14, 57, 0
18, 239520, Note_on_c, 14, 59, 76
18, 239639, Note_on_c, 14, 59, 0
18, 239880, Note_on_c, 14, 55, 76
18, 239999, Note_on_c, 14, 55, 0
18, 240240, Note_on_c, 14, 54, 76
18, 240359, Note_on_c, 14, 54, 0
18, 240600, Note_on_c, 14, 52, 76
18, 240719, Note_on_c, 14, 52, 0
18, 240720, Note_on_c, 14, 55, 76
18, 240839, Note_on_c, 14, 55, 0
18, 240840, Note_on_c, 14, 59, 76
18, 240939, Note_on_c, 14, 59, 0
18, 240960, Note_on_c, 14, 64, 76
18, 241079, Note_on_c, 14, 64, 0
18, 241080, Note_on_c, 14, 66, 76
18, 241179, Note_on_c, 14, 66, 0
18, 241200, Note_on_c, 14, 62, 76
18, 241299, Note_on_c, 14, 62, 0
18, 241320, Note_on_c, 14, 62, 76
18, 241439, Note_on_c, 14, 62, 0
18, 241440, Note_on_c, 14, 64, 76
18, 241539, Note_on_c, 14, 64, 0
18, 241560, Note_on_c, 14, 61, 76
18, 241659, Note_on_c, 14, 61, 0
18, 241680, Note_on_c, 14, 61, 76
18, 241799, Note_on_c, 14, 61, 0
18, 242310, Note_on_c, 14, 57, 76
18, 242384, Note_on_c, 14, 57, 0
18, 242400, Note_on_c, 14, 54, 76
18, 242654, Note_on_c, 14, 54, 0
18, 242670, Note_on_c, 14, 57, 76
18, 242744, Note_on_c, 14, 57, 0
18, 242760, Note_on_c, 14, 50, 76
18, 243014, Note_on_c, 14, 50, 0
18, 243030, Note_on_c, 14, 52, 76
18, 243104, Note_on_c, 14, 52, 0
18, 243120, Note_on_c, 14, 54, 76
18, 243374, Note_on_c, 14, 54, 0
18, 243390, Note_on_c, 14, 55, 76
18, 243464, Note_on_c, 14, 55, 0
18, 243480, Note_on_c, 14, 57, 76
18, 243734, Note_on_c, 14, 57, 0
18, 243750, Note_on_c, 14, 45, 76
18, 243824, Note_on_c, 14, 45, 0
18, 243840, Note_on_c, 14, 50, 76
18, 243959, Note_on_c, 14, 50, 0
18, 244920, Note_on_c, 14, 38, 76
18, 245039, Note_on_c, 14, 38, 0
18, 246000, Note_on_c, 14, 50, 76
18, 246119, Note_on_c, 14, 50, 0
18, 266520, Note_on_c, 14, 45, 76
18, 266639, Note_on_c, 14, 45, 0
18, 266790, Note_on_c, 14, 61, 76
18, 266864, Note_on_c, 14, 61, 0
18, 266880, Note_on_c, 14, 49, 76
18, 266880, Note_on_c, 14, 61, 76
18, 266999, Note_on_c, 14, 49, 0
18, 266999, Note_on_c, 14, 61, 0
18, 267000, Note_on_c, 14, 62, 76
18, 267099, Note_on_c, 14, 62, 0
18, 267120, Note_on_c, 14, 59, 76
18, 267219, Note_on_c, 14, 59, 0
18, 267240, Note_on_c, 14, 52, 76
18, 267240, Note_on_c, 14, 59, 76
18, 267359, Note_on_c, 14, 52, 0
18, 267359, Note_on_c, 14, 59, 0
18, 267360, Note_on_c, 14, 61, 76
18, 267459, Note_on_c, 14, 61, 0
18, 267480, Note_on_c, 14, 57, 76
18, 267579, Note_on_c, 14, 57, 0
18, 267600, Note_on_c, 14, 57, 76
18, 267719, Note_on_c, 14, 57, 0
18, 267720, Note_on_c, 14, 59, 76
18, 267839, Note_on_c, 14, 59, 0
18, 267840, Note_on_c, 14, 61, 76
18, 267939, Note_on_c, 14, 61, 0
18, 267960, Note_on_c, 14, 61, 76
18, 267960, Note_on_c, 14, 49, 76
18, 268079, Note_on_c, 14, 61, 0
18, 268079, Note_on_c, 14, 49, 0
18, 268080, Note_on_c, 14, 62, 76
18, 268179, Note_on_c, 14, 62, 0
18, 268200, Note_on_c, 14, 59, 76
18, 268299, Note_on_c, 14, 59, 0
18, 268320, Note_on_c, 14, 59, 76
18, 268320, Note_on_c, 14, 52, 76
18, 268439, Note_on_c, 14, 59, 0
18, 268439, Note_on_c, 14, 52, 0
18, 268440, Note_on_c, 14, 61, 76
18, 268539, Note_on_c, 14, 61, 0
18, 268560, Note_on_c, 14, 57, 76
18, 268659, Note_on_c, 14, 57, 0
18, 268680, Note_on_c, 14, 57, 76
18, 268680, Note_on_c, 14, 45, 76
18, 268799, Note_on_c, 14, 57, 0
18, 268799, Note_on_c, 14, 45, 0
18, 270030, Note_on_c, 14, 57, 76
18, 270104, Note_on_c, 14, 57, 0
18, 270120, Note_on_c, 14, 57, 76
18, 270239, Note_on_c, 14, 57, 0
18, 270240, Note_on_c, 14, 59, 76
18, 270339, Note_on_c, 14, 59, 0
18, 270360, Note_on_c, 14, 56, 76
18, 270459, Note_on_c, 14, 56, 0
18, 270480, Note_on_c, 14, 56, 76
18, 270599, Note_on_c, 14, 56, 0
18, 270600, Note_on_c, 14, 57, 76
18, 270699, Note_on_c, 14, 57, 0
18, 270720, Note_on_c, 14, 54, 76
18, 270819, Note_on_c, 14, 54, 0
18, 270840, Note_on_c, 14, 54, 76
18, 270959, Note_on_c, 14, 54, 0
18, 270960, Note_on_c, 14, 56, 76
18, 271079, Note_on_c, 14, 56, 0
18, 271080, Note_on_c, 14, 57, 76
18, 271199, Note_on_c, 14, 57, 0
18, 271200, Note_on_c, 14, 59, 76
18, 271319, Note_on_c, 14, 59, 0
18, 271320, Note_on_c, 14, 61, 76
18, 271419, Note_on_c, 14, 61, 0
18, 271440, Note_on_c, 14, 57, 76
18, 271539, Note_on_c, 14, 57, 0
18, 271560, Note_on_c, 14, 57, 76
18, 271679, Note_on_c, 14, 57, 0
18, 271680, Note_on_c, 14, 59, 76
18, 271779, Note_on_c, 14, 59, 0
18, 271800, Note_on_c, 14, 56, 76
18, 271899, Note_on_c, 14, 56, 0
18, 271920, Note_on_c, 14, 56, 76
18, 272174, Note_on_c, 14, 56, 0
18, 272190, Note_on_c, 14, 56, 76
18, 272264, Note_on_c, 14, 56, 0
18, 272280, Note_on_c, 14, 56, 76
18, 272534, Note_on_c, 14, 56, 0
18, 272550, Note_on_c, 14, 56, 76
18, 272624, Note_on_c, 14, 56, 0
18, 272640, Note_on_c, 14, 56, 76
18, 272894, Note_on_c, 14, 56, 0
18, 272910, Note_on_c, 14, 56, 76
18, 272984, Note_on_c, 14, 56, 0
18, 273000, Note_on_c, 14, 57, 76
18, 273254, Note_on_c, 14, 57, 0
18, 273270, Note_on_c, 14, 52, 76
18, 273344, Note_on_c, 14, 52, 0
18, 273360, Note_on_c, 14, 52, 76
18, 273479, Note_on_c, 14, 52, 0
18, 273480, Note_on_c, 14, 54, 76
18, 273579, Note_on_c, 14, 54, 0
18, 273600, Note_on_c, 14, 50, 76
18, 273699, Note_on_c, 14, 50, 0
18, 273720, Note_on_c, 14, 50, 76
18, 273839, Note_on_c, 14, 50, 0
18, 273840, Note_on_c, 14, 52, 76
18, 273939, Note_on_c, 14, 52, 0
18, 273960, Note_on_c, 14, 49, 76
18, 274059, Note_on_c, 14, 49, 0
18, 274080, Note_on_c, 14, 49, 76
18, 274199, Note_on_c, 14, 49, 0
18, 274200, Note_on_c, 14, 50, 76
18, 274319, Note_on_c, 14, 50, 0
18, 274320, Note_on_c, 14, 52, 76
18, 274439, Note_on_c, 14, 52, 0
18, 274440, Note_on_c, 14, 54, 76
18, 274559, Note_on_c, 14, 54, 0
18, 274560, Note_on_c, 14, 55, 76
18, 274659, Note_on_c, 14, 55, 0
18, 274680, Note_on_c, 14, 52, 76
18, 274779, Note_on_c, 14, 52, 0
18, 274800, Note_on_c, 14, 52, 76
18, 274919, Note_on_c, 14, 52, 0
18, 274920, Note_on_c, 14, 54, 76
18, 275019, Note_on_c, 14, 54, 0
18, 275040, Note_on_c, 14, 51, 76
18, 275139, Note_on_c, 14, 51, 0
18, 275160, Note_on_c, 14, 51, 76
18, 275414, Note_on_c, 14, 51, 0
18, 275430, Note_on_c, 14, 51, 76
18, 275504, Note_on_c, 14, 51, 0
18, 275520, Note_on_c, 14, 51, 76
18, 275774, Note_on_c, 14, 51, 0
18, 275790, Note_on_c, 14, 51, 76
18, 275864, Note_on_c, 14, 51, 0
18, 275880, Note_on_c, 14, 51, 76
18, 276134, Note_on_c, 14, 51, 0
18, 276150, Note_on_c, 14, 51, 76
18, 276224, Note_on_c, 14, 51, 0
18, 276240, Note_on_c, 14, 52, 76
18, 276494, Note_on_c, 14, 52, 0
18, 276510, Note_on_c, 14, 50, 76
18, 276584, Note_on_c, 14, 50, 0
18, 276600, Note_on_c, 14, 49, 76
18, 276854, Note_on_c, 14, 49, 0
18, 276870, Note_on_c, 14, 49, 76
18, 276944, Note_on_c, 14, 49, 0
18, 276960, Note_on_c, 14, 49, 76
18, 277214, Note_on_c, 14, 49, 0
18, 277230, Note_on_c, 14, 49, 76
18, 277304, Note_on_c, 14, 49, 0
18, 277320, Note_on_c, 14, 50, 76
18, 277439, Note_on_c, 14, 50, 0
18, 277440, Note_on_c, 14, 47, 76
18, 277559, Note_on_c, 14, 47, 0
18, 277560, Note_on_c, 14, 49, 76
18, 277679, Note_on_c, 14, 49, 0
18, 277680, Note_on_c, 14, 50, 76
18, 277799, Note_on_c, 14, 50, 0
18, 277800, Note_on_c, 14, 52, 76
18, 277899, Note_on_c, 14, 52, 0
18, 277920, Note_on_c, 14, 49, 76
18, 278019, Note_on_c, 14, 49, 0
18, 278040, Note_on_c, 14, 49, 76
18, 278159, Note_on_c, 14, 49, 0
18, 278160, Note_on_c, 14, 50, 76
18, 278259, Note_on_c, 14, 50, 0
18, 278280, Note_on_c, 14, 47, 76
18, 278379, Note_on_c, 14, 47, 0
18, 278400, Note_on_c, 14, 47, 76
18, 278519, Note_on_c, 14, 47, 0
18, 278760, Note_on_c, 14, 59, 76
18, 278879, Note_on_c, 14, 59, 0
18, 279120, Note_on_c, 14, 47, 76
18, 279239, Note_on_c, 14, 47, 0
18, 279480, Note_on_c, 14, 52, 76
18, 279599, Note_on_c, 14, 52, 0
18, 279840, Note_on_c, 14, 40, 76
18, 279959, Note_on_c, 14, 40, 0
18, 280200, Note_on_c, 14, 52, 76
18, 280319, Note_on_c, 14, 52, 0
18, 280560, Note_on_c, 14, 57, 76
18, 280679, Note_on_c, 14, 57, 0
18, 280920, Note_on_c, 14, 45, 76
18, 281039, Note_on_c, 14, 45, 0
18, 281280, Note_on_c, 14, 57, 76
18, 281399, Note_on_c, 14, 57, 0
18, 281640, Note_on_c, 14, 50, 76
18, 281759, Note_on_c, 14, 50, 0
18, 282270, Note_on_c, 14, 47, 76
18, 282344, Note_on_c, 14, 47, 0
18, 282360, Note_on_c, 14, 49, 76
18, 282614, Note_on_c, 14, 49, 0
18, 282630, Note_on_c, 14, 50, 76
18, 282704, Note_on_c, 14, 50, 0
18, 282720, Note_on_c, 14, 52, 76
18, 282839, Note_on_c, 14, 52, 0
18, 283350, Note_on_c, 14, 49, 76
18, 283424, Note_on_c, 14, 49, 0
18, 283440, Note_on_c, 14, 50, 76
18, 283694, Note_on_c, 14, 50, 0
18, 283710, Note_on_c, 14, 52, 76
18, 283784, Note_on_c, 14, 52, 0
18, 283800, Note_on_c, 14, 54, 76
18, 283919, Note_on_c, 14, 54, 0
18, 284160, Note_on_c, 14, 50, 76
18, 284279, Note_on_c, 14, 50, 0
18, 284520, Note_on_c, 14, 49, 76
18, 284639, Note_on_c, 14, 49, 0
18, 284880, Note_on_c, 14, 47, 76
18, 284999, Note_on_c, 14, 47, 0
18, 285000, Note_on_c, 14, 50, 76
18, 285119, Note_on_c, 14, 50, 0
18, 285120, Note_on_c, 14, 54, 76
18, 285239, Note_on_c, 14, 54, 0
18, 285240, Note_on_c, 14, 59, 76
18, 285359, Note_on_c, 14, 59, 0
18, 285360, Note_on_c, 14, 61, 76
18, 285479, Note_on_c, 14, 61, 0
18, 285480, Note_on_c, 14, 57, 76
18, 285599, Note_on_c, 14, 57, 0
18, 285600, Note_on_c, 14, 57, 76
18, 285719, Note_on_c, 14, 57, 0
18, 285720, Note_on_c, 14, 59, 76
18, 285839, Note_on_c, 14, 59, 0
18, 285840, Note_on_c, 14, 56, 76
18, 285959, Note_on_c, 14, 56, 0
18, 285960, Note_on_c, 14, 56, 76
18, 286079, Note_on_c, 14, 56, 0
18, 286590, Note_on_c, 14, 52, 76
18, 286664, Note_on_c, 14, 52, 0
18, 286680, Note_on_c, 14, 49, 76
18, 286934, Note_on_c, 14, 49, 0
18, 286950, Note_on_c, 14, 52, 76
18, 287024, Note_on_c, 14, 52, 0
18, 287040, Note_on_c, 14, 45, 76
18, 287294, Note_on_c, 14, 45, 0
18, 287310, Note_on_c, 14, 47, 76
18, 287384, Note_on_c, 14, 47, 0
18, 287400, Note_on_c, 14, 49, 76
18, 287654, Note_on_c, 14, 49, 0
18, 287670, Note_on_c, 14, 50, 76
18, 287744, Note_on_c, 14, 50, 0
18, 287760, Note_on_c, 14, 52, 76
18, 288014, Note_on_c, 14, 52, 0
18, 288030, Note_on_c, 14, 40, 76
18, 288104, Note_on_c, 14, 40, 0
18, 288120, Note_on_c, 14, 45, 76
18, 288479, Note_on_c, 14, 45, 0
18, 289200, Note_on_c, 14, 45, 76
18, 289559, Note_on_c, 14, 45, 0
18, 290280, Note_on_c, 14, 45, 76
18, 290639, Note_on_c, 14, 45, 0
18, 291630, Note_on_c, 14, 45, 76
18, 291704, Note_on_c, 14, 45, 0
18, 291720, Note_on_c, 14, 49, 76
18, 291974, Note_on_c, 14, 49, 0
18, 291990, Note_on_c, 14, 52, 76
18, 292064, Note_on_c, 14, 52, 0
18, 292080, Note_on_c, 14, 49, 76
18, 292334, Note_on_c, 14, 49, 0
18, 292350, Note_on_c, 14, 45, 76
18, 292424, Note_on_c, 14, 45, 0
18, 292440, Note_on_c, 14, 50, 76
18, 292799, Note_on_c, 14, 50, 0
18, 293520, Note_on_c, 14, 50, 76
18, 293879, Note_on_c, 14, 50, 0
18, 294600, Note_on_c, 14, 50, 76
18, 294959, Note_on_c, 14, 50, 0
18, 295950, Note_on_c, 14, 50, 76
18, 296024, Note_on_c, 14, 50, 0
18, 296040, Note_on_c, 14, 54, 76
18, 296294, Note_on_c, 14, 54, 0
18, 296310, Note_on_c, 14, 57, 76
18, 296384, Note_on_c, 14, 57, 0
18, 296400, Note_on_c, 14, 54, 76
18, 296654, Note_on_c, 14, 54, 0
18, 296670, Note_on_c, 14, 50, 76
18, 296744, Note_on_c, 14, 50, 0
18, 296760, Note_on_c, 14, 43, 76
18, 297014, Note_on_c, 14, 43, 0
18, 297030, Note_on_c, 14, 55, 76
18, 297104, Note_on_c, 14, 55, 0
18, 297120, Note_on_c, 14, 55, 76
18, 297239, Note_on_c, 14, 55, 0
18, 297240, Note_on_c, 14, 57, 76
18, 297339, Note_on_c, 14, 57, 0
18, 297360, Note_on_c, 14, 54, 76
18, 297459, Note_on_c, 14, 54, 0
18, 297480, Note_on_c, 14, 54, 76
18, 297599, Note_on_c, 14, 54, 0
18, 297600, Note_on_c, 14, 55, 76
18, 297699, Note_on_c, 14, 55, 0
18, 297720, Note_on_c, 14, 52, 76
18, 297819, Note_on_c, 14, 52, 0
18, 297840, Note_on_c, 14, 52, 76
18, 297959, Note_on_c, 14, 52, 0
18, 297960, Note_on_c, 14, 54, 76
18, 298079, Note_on_c, 14, 54, 0
18, 298080, Note_on_c, 14, 56, 76
18, 298199, Note_on_c, 14, 56, 0
18, 298200, Note_on_c, 14, 57, 76
18, 298319, Note_on_c, 14, 57, 0
18, 298320, Note_on_c, 14, 59, 76
18, 298419, Note_on_c, 14, 59, 0
18, 298440, Note_on_c, 14, 55, 76
18, 298539, Note_on_c, 14, 55, 0
18, 298560, Note_on_c, 14, 55, 76
18, 298679, Note_on_c, 14, 55, 0
18, 298680, Note_on_c, 14, 57, 76
18, 298779, Note_on_c, 14, 57, 0
18, 298800, Note_on_c, 14, 54, 76
18, 298899, Note_on_c, 14, 54, 0
18, 298920, Note_on_c, 14, 54, 76
18, 299039, Note_on_c, 14, 54, 0
18, 299040, Note_on_c, 14, 56, 76
18, 299159, Note_on_c, 14, 56, 0
18, 299160, Note_on_c, 14, 58, 76
18, 299279, Note_on_c, 14, 58, 0
18, 299280, Note_on_c, 14, 59, 76
18, 299399, Note_on_c, 14, 59, 0
18, 299400, Note_on_c, 14, 61, 76
18, 299499, Note_on_c, 14, 61, 0
18, 299520, Note_on_c, 14, 57, 76
18, 299619, Note_on_c, 14, 57, 0
18, 299640, Note_on_c, 14, 57, 76
18, 299759, Note_on_c, 14, 57, 0
18, 299760, Note_on_c, 14, 59, 76
18, 299859, Note_on_c, 14, 59, 0
18, 299880, Note_on_c, 14, 56, 76
18, 299979, Note_on_c, 14, 56, 0
18, 300000, Note_on_c, 14, 56, 76
18, 300119, Note_on_c, 14, 56, 0
18, 300120, Note_on_c, 14, 58, 76
18, 300239, Note_on_c, 14, 58, 0
18, 300240, Note_on_c, 14, 59, 76
18, 300359, Note_on_c, 14, 59, 0
18, 300360, Note_on_c, 14, 61, 76
18, 300479, Note_on_c, 14, 61, 0
18, 300480, Note_on_c, 14, 62, 76
18, 300579, Note_on_c, 14, 62, 0
18, 300600, Note_on_c, 14, 59, 76
18, 300699, Note_on_c, 14, 59, 0
18, 300720, Note_on_c, 14, 59, 76
18, 300839, Note_on_c, 14, 59, 0
18, 300840, Note_on_c, 14, 61, 76
18, 300939, Note_on_c, 14, 61, 0
18, 300960, Note_on_c, 14, 58, 76
18, 301059, Note_on_c, 14, 58, 0
18, 301080, Note_on_c, 14, 58, 76
18, 301199, Note_on_c, 14, 58, 0
18, 302160, Note_on_c, 14, 59, 76
18, 302279, Note_on_c, 14, 59, 0
18, 303240, Note_on_c, 14, 54, 76
18, 303494, Note_on_c, 14, 54, 0
18, 303510, Note_on_c, 14, 42, 76
18, 303584, Note_on_c, 14, 42, 0
18, 303600, Note_on_c, 14, 42, 76
18, 303854, Note_on_c, 14, 42, 0
18, 303870, Note_on_c, 14, 42, 76
18, 303944, Note_on_c, 14, 42, 0
18, 303960, Note_on_c, 14, 42, 76
18, 304214, Note_on_c, 14, 42, 0
18, 304230, Note_on_c, 14, 42, 76
18, 304304, Note_on_c, 14, 42, 0
18, 304320, Note_on_c, 14, 42, 76
18, 304574, Note_on_c, 14, 42, 0
18, 304590, Note_on_c, 14, 52, 76
18, 304664, Note_on_c, 14, 52, 0
18, 304680, Note_on_c, 14, 50, 76
18, 304934, Note_on_c, 14, 50, 0
18, 304950, Note_on_c, 14, 55, 76
18, 305024, Note_on_c, 14, 55, 0
18, 305040, Note_on_c, 14, 49, 76
18, 305294, Note_on_c, 14, 49, 0
18, 305310, Note_on_c, 14, 54, 76
18, 305384, Note_on_c, 14, 54, 0
18, 305400, Note_on_c, 14, 47, 76
18, 305519, Note_on_c, 14, 47, 0
18, 305520, Note_on_c, 14, 50, 76
18, 305639, Note_on_c, 14, 50, 0
18, 305640, Note_on_c, 14, 54, 76
18, 305739, Note_on_c, 14, 54, 0
18, 305760, Note_on_c, 14, 59, 76
18, 305879, Note_on_c, 14, 59, 0
18, 305880, Note_on_c, 14, 61, 76
18, 305979, Note_on_c, 14, 61, 0
18, 306000, Note_on_c, 14, 57, 76
18, 306099, Note_on_c, 14, 57, 0
18, 306120, Note_on_c, 14, 57, 76
18, 306239, Note_on_c, 14, 57, 0
18, 306240, Note_on_c, 14, 59, 76
18, 306339, Note_on_c, 14, 59, 0
18, 306360, Note_on_c, 14, 55, 76
18, 306459, Note_on_c, 14, 55, 0
18, 306480, Note_on_c, 14, 55, 76
18, 306579, Note_on_c, 14, 55, 0
18, 306600, Note_on_c, 14, 52, 76
18, 306719, Note_on_c, 14, 52, 0
18, 306720, Note_on_c, 14, 54, 76
18, 306839, Note_on_c, 14, 54, 0
18, 306840, Note_on_c, 14, 55, 76
18, 306959, Note_on_c, 14, 55, 0
18, 306960, Note_on_c, 14, 57, 76
18, 307059, Note_on_c, 14, 57, 0
18, 307080, Note_on_c, 14, 54, 76
18, 307179, Note_on_c, 14, 54, 0
18, 307200, Note_on_c, 14, 54, 76
18, 307319, Note_on_c, 14, 54, 0
18, 307320, Note_on_c, 14, 55, 76
18, 307419, Note_on_c, 14, 55, 0
18, 307440, Note_on_c, 14, 52, 76
18, 307539, Note_on_c, 14, 52, 0
18, 307560, Note_on_c, 14, 52, 76
18, 307814, Note_on_c, 14, 52, 0
18, 307830, Note_on_c, 14, 50, 76
18, 307904, Note_on_c, 14, 50, 0
18, 307920, Note_on_c, 14, 49, 76
18, 308174, Note_on_c, 14, 49, 0
18, 308190, Note_on_c, 14, 52, 76
18, 308264, Note_on_c, 14, 52, 0
18, 308280, Note_on_c, 14, 46, 76
18, 308534, Note_on_c, 14, 46, 0
18, 308550, Note_on_c, 14, 49, 76
18, 308624, Note_on_c, 14, 49, 0
18, 308640, Note_on_c, 14, 42, 76
18, 308999, Note_on_c, 14, 42, 0
18, 309270, Note_on_c, 14, 55, 76
18, 309344, Note_on_c, 14, 55, 0
18, 309360, Note_on_c, 14, 54, 76
18, 309614, Note_on_c, 14, 54, 0
18, 309630, Note_on_c, 14, 52, 76
18, 309704, Note_on_c, 14, 52, 0
18, 309720, Note_on_c, 14, 50, 76
18, 309974, Note_on_c, 14, 50, 0
18, 309990, Note_on_c, 14, 47, 76
18, 310064, Note_on_c, 14, 47, 0
18, 310080, Note_on_c, 14, 52, 76
18, 310199, Note_on_c, 14, 52, 0
18, 310200, Note_on_c, 14, 54, 76
18, 310319, Note_on_c, 14, 54, 0
18, 310320, Note_on_c, 14, 55, 76
18, 310419, Note_on_c, 14, 55, 0
18, 310440, Note_on_c, 14, 54, 76
18, 310694, Note_on_c, 14, 54, 0
18, 310710, Note_on_c, 14, 42, 76
18, 310784, Note_on_c, 14, 42, 0
18, 310800, Note_on_c, 14, 47, 76
18, 310919, Note_on_c, 14, 47, 0
18, 313230, Note_on_c, 14, 59, 76
18, 313304, Note_on_c, 14, 59, 0
18, 313320, Note_on_c, 14, 59, 76
18, 313439, Note_on_c, 14, 59, 0
18, 313440, Note_on_c, 14, 60, 76
18, 313559, Note_on_c, 14, 60, 0
18, 313560, Note_on_c, 14, 57, 76
18, 313679, Note_on_c, 14, 57, 0
18, 313680, Note_on_c, 14, 57, 76
18, 313799, Note_on_c, 14, 57, 0
18, 313800, Note_on_c, 14, 59, 76
18, 313919, Note_on_c, 14, 59, 0
18, 313920, Note_on_c, 14, 55, 76
18, 314039, Note_on_c, 14, 55, 0
18, 314040, Note_on_c, 14, 55, 76
18, 314159, Note_on_c, 14, 55, 0
18, 314160, Note_on_c, 14, 57, 76
18, 314279, Note_on_c, 14, 57, 0
18, 314280, Note_on_c, 14, 59, 76
18, 314399, Note_on_c, 14, 59, 0
18, 314400, Note_on_c, 14, 60, 76
18, 314519, Note_on_c, 14, 60, 0
18, 314520, Note_on_c, 14, 62, 76
18, 314619, Note_on_c, 14, 62, 0
18, 314640, Note_on_c, 14, 59, 76
18, 314739, Note_on_c, 14, 59, 0
18, 314760, Note_on_c, 14, 59, 76
18, 314879, Note_on_c, 14, 59, 0
18, 314880, Note_on_c, 14, 60, 76
18, 314979, Note_on_c, 14, 60, 0
18, 315000, Note_on_c, 14, 57, 76
18, 315099, Note_on_c, 14, 57, 0
18, 315120, Note_on_c, 14, 57, 76
18, 315374, Note_on_c, 14, 57, 0
18, 315390, Note_on_c, 14, 57, 76
18, 315464, Note_on_c, 14, 57, 0
18, 315480, Note_on_c, 14, 57, 76
18, 315734, Note_on_c, 14, 57, 0
18, 315750, Note_on_c, 14, 57, 76
18, 315824, Note_on_c, 14, 57, 0
18, 315840, Note_on_c, 14, 57, 76
18, 316094, Note_on_c, 14, 57, 0
18, 316110, Note_on_c, 14, 57, 76
18, 316184, Note_on_c, 14, 57, 0
18, 316200, Note_on_c, 14, 57, 76
18, 316319, Note_on_c, 14, 57, 0
18, 316320, Note_on_c, 14, 54, 76
18, 316439, Note_on_c, 14, 54, 0
18, 316440, Note_on_c, 14, 55, 76
18, 316559, Note_on_c, 14, 55, 0
18, 316560, Note_on_c, 14, 57, 76
18, 316679, Note_on_c, 14, 57, 0
18, 316680, Note_on_c, 14, 66, 76
18, 316779, Note_on_c, 14, 66, 0
18, 316800, Note_on_c, 14, 55, 76
18, 316899, Note_on_c, 14, 55, 0
18, 316920, Note_on_c, 14, 57, 76
18, 317039, Note_on_c, 14, 57, 0
18, 317040, Note_on_c, 14, 55, 76
18, 317159, Note_on_c, 14, 55, 0
18, 317160, Note_on_c, 14, 54, 76
18, 317259, Note_on_c, 14, 54, 0
18, 317280, Note_on_c, 14, 55, 76
18, 317399, Note_on_c, 14, 55, 0
18, 317400, Note_on_c, 14, 52, 76
18, 317519, Note_on_c, 14, 52, 0
18, 317520, Note_on_c, 14, 54, 76
18, 317639, Note_on_c, 14, 54, 0
18, 317640, Note_on_c, 14, 55, 76
18, 317759, Note_on_c, 14, 55, 0
18, 317760, Note_on_c, 14, 64, 76
18, 317859, Note_on_c, 14, 64, 0
18, 317880, Note_on_c, 14, 54, 76
18, 317979, Note_on_c, 14, 54, 0
18, 318000, Note_on_c, 14, 55, 76
18, 318119, Note_on_c, 14, 55, 0
18, 318120, Note_on_c, 14, 54, 76
18, 318239, Note_on_c, 14, 54, 0
18, 318240, Note_on_c, 14, 52, 76
18, 318339, Note_on_c, 14, 52, 0
18, 318360, Note_on_c, 14, 54, 76
18, 318479, Note_on_c, 14, 54, 0
18, 318480, Note_on_c, 14, 50, 76
18, 318599, Note_on_c, 14, 50, 0
18, 318600, Note_on_c, 14, 52, 76
18, 318719, Note_on_c, 14, 52, 0
18, 318720, Note_on_c, 14, 54, 76
18, 318839, Note_on_c, 14, 54, 0
18, 318840, Note_on_c, 14, 62, 76
18, 318939, Note_on_c, 14, 62, 0
18, 318960, Note_on_c, 14, 52, 76
18, 319059, Note_on_c, 14, 52, 0
18, 319080, Note_on_c, 14, 54, 76
18, 319199, Note_on_c, 14, 54, 0
18, 319200, Note_on_c, 14, 52, 76
18, 319319, Note_on_c, 14, 52, 0
18, 319320, Note_on_c, 14, 50, 76
18, 319419, Note_on_c, 14, 50, 0
18, 319440, Note_on_c, 14, 52, 76
18, 319559, Note_on_c, 14, 52, 0
18, 319560, Note_on_c, 14, 48, 76
18, 319679, Note_on_c, 14, 48, 0
18, 319680, Note_on_c, 14, 50, 76
18, 319799, Note_on_c, 14, 50, 0
18, 319800, Note_on_c, 14, 52, 76
18, 319919, Note_on_c, 14, 52, 0
18, 319920, Note_on_c, 14, 60, 76
18, 320019, Note_on_c, 14, 60, 0
18, 320040, Note_on_c, 14, 50, 76
18, 320139, Note_on_c, 14, 50, 0
18, 320160, Note_on_c, 14, 52, 76
18, 320279, Note_on_c, 14, 52, 0
18, 320280, Note_on_c, 14, 50, 76
18, 320399, Note_on_c, 14, 50, 0
18, 320400, Note_on_c, 14, 48, 76
18, 320499, Note_on_c, 14, 48, 0
18, 320520, Note_on_c, 14, 50, 76
18, 320639, Note_on_c, 14, 50, 0
18, 321600, Note_on_c, 14, 50, 76
18, 321719, Note_on_c, 14, 50, 0
18, 322950, Note_on_c, 14, 38, 76
18, 323024, Note_on_c, 14, 38, 0
18, 323040, Note_on_c, 14, 38, 76
18, 323294, Note_on_c, 14, 38, 0
18, 323310, Note_on_c, 14, 38, 76
18, 323384, Note_on_c, 14, 38, 0
18, 323400, Note_on_c, 14, 38, 76
18, 323654, Note_on_c, 14, 38, 0
18, 323670, Note_on_c, 14, 38, 76
18, 323744, Note_on_c, 14, 38, 0
18, 323760, Note_on_c, 14, 38, 76
18, 324014, Note_on_c, 14, 38, 0
18, 324030, Note_on_c, 14, 48, 76
18, 324104, Note_on_c, 14, 48, 0
18, 324120, Note_on_c, 14, 47, 76
18, 324374, Note_on_c, 14, 47, 0
18, 324390, Note_on_c, 14, 52, 76
18, 324464, Note_on_c, 14, 52, 0
18, 324480, Note_on_c, 14, 45, 76
18, 324734, Note_on_c, 14, 45, 0
18, 324750, Note_on_c, 14, 50, 76
18, 324824, Note_on_c, 14, 50, 0
18, 324840, Note_on_c, 14, 43, 76
18, 325094, Note_on_c, 14, 43, 0
18, 325110, Note_on_c, 14, 50, 76
18, 325184, Note_on_c, 14, 50, 0
18, 325200, Note_on_c, 14, 55, 76
18, 325319, Note_on_c, 14, 55, 0
18, 325320, Note_on_c, 14, 57, 76
18, 325439, Note_on_c, 14, 57, 0
18, 325440, Note_on_c, 14, 54, 76
18, 325559, Note_on_c, 14, 54, 0
18, 325560, Note_on_c, 14, 54, 76
18, 325679, Note_on_c, 14, 54, 0
18, 325680, Note_on_c, 14, 55, 76
18, 325799, Note_on_c, 14, 55, 0
18, 325800, Note_on_c, 14, 52, 76
18, 325919, Note_on_c, 14, 52, 0
18, 325920, Note_on_c, 14, 52, 76
18, 326039, Note_on_c, 14, 52, 0
18, 326040, Note_on_c, 14, 48, 76
18, 326159, Note_on_c, 14, 48, 0
18, 326160, Note_on_c, 14, 50, 76
18, 326279, Note_on_c, 14, 50, 0
18, 326280, Note_on_c, 14, 52, 76
18, 326399, Note_on_c, 14, 52, 0
18, 326400, Note_on_c, 14, 53, 76
18, 326499, Note_on_c, 14, 53, 0
18, 326520, Note_on_c, 14, 50, 76
18, 326619, Note_on_c, 14, 50, 0
18, 326640, Note_on_c, 14, 50, 76
18, 326759, Note_on_c, 14, 50, 0
18, 326760, Note_on_c, 14, 52, 76
18, 326859, Note_on_c, 14, 52, 0
18, 326880, Note_on_c, 14, 48, 76
18, 326979, Note_on_c, 14, 48, 0
18, 327000, Note_on_c, 14, 48, 76
18, 327254, Note_on_c, 14, 48, 0
18, 327270, Note_on_c, 14, 47, 76
18, 327344, Note_on_c, 14, 47, 0
18, 327360, Note_on_c, 14, 45, 76
18, 327614, Note_on_c, 14, 45, 0
18, 327630, Note_on_c, 14, 48, 76
18, 327704, Note_on_c, 14, 48, 0
18, 327720, Note_on_c, 14, 42, 76
18, 327974, Note_on_c, 14, 42, 0
18, 327990, Note_on_c, 14, 45, 76
18, 328064, Note_on_c, 14, 45, 0
18, 328080, Note_on_c, 14, 36, 76
18, 328199, Note_on_c, 14, 36, 0
18, 328710, Note_on_c, 14, 52, 76
18, 328784, Note_on_c, 14, 52, 0
18, 328800, Note_on_c, 14, 50, 76
18, 329054, Note_on_c, 14, 50, 0
18, 329070, Note_on_c, 14, 48, 76
18, 329144, Note_on_c, 14, 48, 0
18, 329160, Note_on_c, 14, 47, 76
18, 329279, Note_on_c, 14, 47, 0
18, 329280, Note_on_c, 14, 48, 76
18, 329399, Note_on_c, 14, 48, 0
18, 329400, Note_on_c, 14, 50, 76
18, 329499, Note_on_c, 14, 50, 0
18, 329520, Note_on_c, 14, 52, 76
18, 329774, Note_on_c, 14, 52, 0
18, 329790, Note_on_c, 14, 48, 76
18, 329864, Note_on_c, 14, 48, 0
18, 329880, Note_on_c, 14, 50, 76
18, 330134, Note_on_c, 14, 50, 0
18, 330150, Note_on_c, 14, 38, 76
18, 330224, Note_on_c, 14, 38, 0
18, 330240, Note_on_c, 14, 43, 76
18, 330494, Note_on_c, 14, 43, 0
18, 330510, Note_on_c, 14, 59, 76
18, 330584, Note_on_c, 14, 59, 0
18, 330600, Note_on_c, 14, 47, 76
18, 330600, Note_on_c, 14, 59, 76
18, 330719, Note_on_c, 14, 47, 0
18, 330719, Note_on_c, 14, 59, 0
18, 330720, Note_on_c, 14, 60, 76
18, 330819, Note_on_c, 14, 60, 0
18, 330840, Note_on_c, 14, 57, 76
18, 330939, Note_on_c, 14, 57, 0
18, 330960, Note_on_c, 14, 50, 76
18, 330960, Note_on_c, 14, 57, 76
18, 331079, Note_on_c, 14, 50, 0
18, 331079, Note_on_c, 14, 57, 0
18, 331080, Note_on_c, 14, 59, 76
18, 331179, Note_on_c, 14, 59, 0
18, 331200, Note_on_c, 14, 55, 76
18, 331299, Note_on_c, 14, 55, 0
18, 331320, Note_on_c, 14, 55, 76
18, 331439, Note_on_c, 14, 55, 0
18, 331440, Note_on_c, 14, 57, 76
18, 331559, Note_on_c, 14, 57, 0
18, 331560, Note_on_c, 14, 59, 76
18, 331659, Note_on_c, 14, 59, 0
18, 331680, Note_on_c, 14, 47, 76
18, 331680, Note_on_c, 14, 59, 76
18, 331799, Note_on_c, 14, 47, 0
18, 331799, Note_on_c, 14, 59, 0
18, 331800, Note_on_c, 14, 60, 76
18, 331899, Note_on_c, 14, 60, 0
18, 331920, Note_on_c, 14, 57, 76
18, 332019, Note_on_c, 14, 57, 0
18, 332040, Note_on_c, 14, 57, 76
18, 332040, Note_on_c, 14, 50, 76
18, 332159, Note_on_c, 14, 57, 0
18, 332159, Note_on_c, 14, 50, 0
18, 332160, Note_on_c, 14, 59, 76
18, 332259, Note_on_c, 14, 59, 0
18, 332280, Note_on_c, 14, 55, 76
18, 332379, Note_on_c, 14, 55, 0
18, 332400, Note_on_c, 14, 55, 76
18, 332400, Note_on_c, 14, 43, 76
18, 332519, Note_on_c, 14, 55, 0
18, 332519, Note_on_c, 14, 43, 0
18, 333030, Note_on_c, 14, 43, 76
18, 333104, Note_on_c, 14, 43, 0
18, 333120, Note_on_c, 14, 43, 76
18, 333374, Note_on_c, 14, 43, 0
18, 333390, Note_on_c, 14, 43, 76
18, 333464, Note_on_c, 14, 43, 0
18, 333480, Note_on_c, 14, 48, 76
18, 333599, Note_on_c, 14, 48, 0
18, 334110, Note_on_c, 14, 45, 76
18, 334184, Note_on_c, 14, 45, 0
18, 334200, Note_on_c, 14, 45, 76
18, 334454, Note_on_c, 14, 45, 0
18, 334470, Note_on_c, 14, 45, 76
18, 334544, Note_on_c, 14, 45, 0
18, 334560, Note_on_c, 14, 50, 76
18, 334679, Note_on_c, 14, 50, 0
18, 335190, Note_on_c, 14, 47, 76
18, 335264, Note_on_c, 14, 47, 0
18, 335280, Note_on_c, 14, 47, 76
18, 335534, Note_on_c, 14, 47, 0
18, 335550, Note_on_c, 14, 47, 76
18, 335624, Note_on_c, 14, 47, 0
18, 335640, Note_on_c, 14, 52, 76
18, 335759, Note_on_c, 14, 52, 0
18, 338160, Note_on_c, 14, 59, 76
18, 338279, Note_on_c, 14, 59, 0
18, 338520, Note_on_c, 14, 47, 76
18, 338639, Note_on_c, 14, 47, 0
18, 339240, Note_on_c, 14, 52, 76
18, 339359, Note_on_c, 14, 52, 0
18, 339600, Note_on_c, 14, 40, 76
18, 339719, Note_on_c, 14, 40, 0
18, 340320, Note_on_c, 14, 57, 76
18, 340439, Note_on_c, 14, 57, 0
18, 340680, Note_on_c, 14, 45, 76
18, 340799, Note_on_c, 14, 45, 0
18, 341400, Note_on_c, 14, 50, 76
18, 341519, Note_on_c, 14, 50, 0
18, 341760, Note_on_c, 14, 38, 76
18, 341879, Note_on_c, 14, 38, 0
18, 342480, Note_on_c, 14, 55, 76
18, 342599, Note_on_c, 14, 55, 0
18, 342840, Note_on_c, 14, 43, 76
18, 342959, Note_on_c, 14, 43, 0
18, 343560, Note_on_c, 14, 55, 76
18, 343679, Note_on_c, 14, 55, 0
18, 343920, Note_on_c, 14, 43, 76
18, 344039, Note_on_c, 14, 43, 0
18, 344280, Note_on_c, 14, 45, 76
18, 345359, Note_on_c, 14, 45, 0
18, 345360, Note_on_c, 14, 45, 76
18, 346439, Note_on_c, 14, 45, 0
18, 346440, Note_on_c, 14, 45, 76
18, 347499, Note_on_c, 14, 45, 0
18, 347520, Note_on_c, 14, 46, 76
18, 347639, Note_on_c, 14, 46, 0
18, 348600, Note_on_c, 14, 45, 76
18, 348719, Note_on_c, 14, 45, 0
18, 349950, Note_on_c, 14, 44, 76
18, 350024, Note_on_c, 14, 44, 0
18, 350040, Note_on_c, 14, 44, 76
18, 350294, Note_on_c, 14, 44, 0
18, 350310, Note_on_c, 14, 44, 76
18, 350384, Note_on_c, 14, 44, 0
18, 350400, Note_on_c, 14, 44, 76
18, 350654, Note_on_c, 14, 44, 0
18, 350670, Note_on_c, 14, 44, 76
18, 350744, Note_on_c, 14, 44, 0
18, 350760, Note_on_c, 14, 45, 76
18, 351014, Note_on_c, 14, 45, 0
18, 351030, Note_on_c, 14, 45, 76
18, 351104, Note_on_c, 14, 45, 0
18, 351120, Note_on_c, 14, 45, 76
18, 351374, Note_on_c, 14, 45, 0
18, 351390, Note_on_c, 14, 45, 76
18, 351464, Note_on_c, 14, 45, 0
18, 351480, Note_on_c, 14, 45, 76
18, 351734, Note_on_c, 14, 45, 0
18, 351750, Note_on_c, 14, 45, 76
18, 351824, Note_on_c, 14, 45, 0
18, 351840, Note_on_c, 14, 47, 76
18, 352094, Note_on_c, 14, 47, 0
18, 352110, Note_on_c, 14, 40, 76
18, 352184, Note_on_c, 14, 40, 0
18, 352200, Note_on_c, 14, 42, 76
18, 352454, Note_on_c, 14, 42, 0
18, 352470, Note_on_c, 14, 43, 76
18, 352544, Note_on_c, 14, 43, 0
18, 352560, Note_on_c, 14, 45, 76
18, 352814, Note_on_c, 14, 45, 0
18, 352830, Note_on_c, 14, 45, 76
18, 352904, Note_on_c, 14, 45, 0
18, 352920, Note_on_c, 14, 38, 76
18, 353039, Note_on_c, 14, 38, 0
18, 354270, Note_on_c, 14, 62, 76
18, 354344, Note_on_c, 14, 62, 0
18, 354360, Note_on_c, 14, 62, 76
18, 354479, Note_on_c, 14, 62, 0
18, 354480, Note_on_c, 14, 64, 76
18, 354579, Note_on_c, 14, 64, 0
18, 354600, Note_on_c, 14, 60, 76
18, 354699, Note_on_c, 14, 60, 0
18, 354720, Note_on_c, 14, 60, 76
18, 354839, Note_on_c, 14, 60, 0
18, 354840, Note_on_c, 14, 62, 76
18, 354939, Note_on_c, 14, 62, 0
18, 354960, Note_on_c, 14, 59, 76
18, 355059, Note_on_c, 14, 59, 0
18, 355080, Note_on_c, 14, 59, 76
18, 355199, Note_on_c, 14, 59, 0
18, 355200, Note_on_c, 14, 61, 76
18, 355319, Note_on_c, 14, 61, 0
18, 355320, Note_on_c, 14, 62, 76
18, 355439, Note_on_c, 14, 62, 0
18, 355440, Note_on_c, 14, 64, 76
18, 355559, Note_on_c, 14, 64, 0
18, 355560, Note_on_c, 14, 66, 76
18, 355659, Note_on_c, 14, 66, 0
18, 355680, Note_on_c, 14, 62, 76
18, 355779, Note_on_c, 14, 62, 0
18, 355800, Note_on_c, 14, 62, 76
18, 355919, Note_on_c, 14, 62, 0
18, 355920, Note_on_c, 14, 64, 76
18, 356019, Note_on_c, 14, 64, 0
18, 356040, Note_on_c, 14, 61, 76
18, 356139, Note_on_c, 14, 61, 0
18, 356160, Note_on_c, 14, 61, 76
18, 356414, Note_on_c, 14, 61, 0
18, 356430, Note_on_c, 14, 61, 76
18, 356504, Note_on_c, 14, 61, 0
18, 356520, Note_on_c, 14, 61, 76
18, 356774, Note_on_c, 14, 61, 0
18, 356790, Note_on_c, 14, 61, 76
18, 356864, Note_on_c, 14, 61, 0
18, 356880, Note_on_c, 14, 61, 76
18, 357134, Note_on_c, 14, 61, 0
18, 357150, Note_on_c, 14, 61, 76
18, 357224, Note_on_c, 14, 61, 0
18, 357240, Note_on_c, 14, 62, 76
18, 357494, Note_on_c, 14, 62, 0
18, 357510, Note_on_c, 14, 57, 76
18, 357584, Note_on_c, 14, 57, 0
18, 357600, Note_on_c, 14, 57, 76
18, 357719, Note_on_c, 14, 57, 0
18, 357720, Note_on_c, 14, 59, 76
18, 357819, Note_on_c, 14, 59, 0
18, 357840, Note_on_c, 14, 55, 76
18, 357939, Note_on_c, 14, 55, 0
18, 357960, Note_on_c, 14, 55, 76
18, 358079, Note_on_c, 14, 55, 0
18, 358080, Note_on_c, 14, 57, 76
18, 358179, Note_on_c, 14, 57, 0
18, 358200, Note_on_c, 14, 54, 76
18, 358299, Note_on_c, 14, 54, 0
18, 358320, Note_on_c, 14, 54, 76
18, 358439, Note_on_c, 14, 54, 0
18, 358440, Note_on_c, 14, 56, 76
18, 358559, Note_on_c, 14, 56, 0
18, 358560, Note_on_c, 14, 57, 76
18, 358679, Note_on_c, 14, 57, 0
18, 358680, Note_on_c, 14, 59, 76
18, 358799, Note_on_c, 14, 59, 0
18, 358800, Note_on_c, 14, 61, 76
18, 358899, Note_on_c, 14, 61, 0
18, 358920, Note_on_c, 14, 57, 76
18, 359019, Note_on_c, 14, 57, 0
18, 359040, Note_on_c, 14, 57, 76
18, 359159, Note_on_c, 14, 57, 0
18, 359160, Note_on_c, 14, 59, 76
18, 359259, Note_on_c, 14, 59, 0
18, 359280, Note_on_c, 14, 56, 76
18, 359379, Note_on_c, 14, 56, 0
18, 359400, Note_on_c, 14, 56, 76
18, 359654, Note_on_c, 14, 56, 0
18, 359670, Note_on_c, 14, 56, 76
18, 359744, Note_on_c, 14, 56, 0
18, 359760, Note_on_c, 14, 56, 76
18, 360014, Note_on_c, 14, 56, 0
18, 360030, Note_on_c, 14, 56, 76
18, 360104, Note_on_c, 14, 56, 0
18, 360120, Note_on_c, 14, 56, 76
18, 360374, Note_on_c, 14, 56, 0
18, 360390, Note_on_c, 14, 56, 76
18, 360464, Note_on_c, 14, 56, 0
18, 360480, Note_on_c, 14, 57, 76
18, 360734, Note_on_c, 14, 57, 0
18, 360750, Note_on_c, 14, 55, 76
18, 360824, Note_on_c, 14, 55, 0
18, 360840, Note_on_c, 14, 54, 76
18, 361094, Note_on_c, 14, 54, 0
18, 361110, Note_on_c, 14, 54, 76
18, 361184, Note_on_c, 14, 54, 0
18, 361200, Note_on_c, 14, 54, 76
18, 361454, Note_on_c, 14, 54, 0
18, 361470, Note_on_c, 14, 54, 76
18, 361544, Note_on_c, 14, 54, 0
18, 361560, Note_on_c, 14, 55, 76
18, 361679, Note_on_c, 14, 55, 0
18, 361680, Note_on_c, 14, 52, 76
18, 361799, Note_on_c, 14, 52, 0
18, 361800, Note_on_c, 14, 54, 76
18, 361899, Note_on_c, 14, 54, 0
18, 361920, Note_on_c, 14, 55, 76
18, 362039, Note_on_c, 14, 55, 0
18, 362040, Note_on_c, 14, 57, 76
18, 362139, Note_on_c, 14, 57, 0
18, 362160, Note_on_c, 14, 54, 76
18, 362259, Note_on_c, 14, 54, 0
18, 362280, Note_on_c, 14, 54, 76
18, 362399, Note_on_c, 14, 54, 0
18, 362400, Note_on_c, 14, 55, 76
18, 362499, Note_on_c, 14, 55, 0
18, 362520, Note_on_c, 14, 52, 76
18, 362619, Note_on_c, 14, 52, 0
18, 362640, Note_on_c, 14, 52, 76
18, 362759, Note_on_c, 14, 52, 0
18, 363000, Note_on_c, 14, 40, 76
18, 363119, Note_on_c, 14, 40, 0
18, 363360, Note_on_c, 14, 52, 76
18, 363479, Note_on_c, 14, 52, 0
18, 363720, Note_on_c, 14, 57, 76
18, 363839, Note_on_c, 14, 57, 0
18, 364080, Note_on_c, 14, 45, 76
18, 364199, Note_on_c, 14, 45, 0
18, 364440, Note_on_c, 14, 57, 76
18, 364559, Note_on_c, 14, 57, 0
18, 364800, Note_on_c, 14, 62, 76
18, 364919, Note_on_c, 14, 62, 0
18, 365160, Note_on_c, 14, 38, 76
18, 365279, Note_on_c, 14, 38, 0
18, 365520, Note_on_c, 14, 50, 76
18, 365639, Note_on_c, 14, 50, 0
18, 365880, Note_on_c, 14, 55, 76
18, 365999, Note_on_c, 14, 55, 0
18, 366510, Note_on_c, 14, 52, 76
18, 366584, Note_on_c, 14, 52, 0
18, 366600, Note_on_c, 14, 54, 76
18, 366854, Note_on_c, 14, 54, 0
18, 366870, Note_on_c, 14, 55, 76
18, 366944, Note_on_c, 14, 55, 0
18, 366960, Note_on_c, 14, 57, 76
18, 367079, Note_on_c, 14, 57, 0
18, 367590, Note_on_c, 14, 54, 76
18, 367664, Note_on_c, 14, 54, 0
18, 367680, Note_on_c, 14, 55, 76
18, 367934, Note_on_c, 14, 55, 0
18, 367950, Note_on_c, 14, 57, 76
18, 368024, Note_on_c, 14, 57, 0
18, 368040, Note_on_c, 14, 59, 76
18, 368159, Note_on_c, 14, 59, 0
18, 368400, Note_on_c, 14, 55, 76
18, 368519, Note_on_c, 14, 55, 0
18, 368760, Note_on_c, 14, 54, 76
18, 368879, Note_on_c, 14, 54, 0
18, 369120, Note_on_c, 14, 52, 76
18, 369239, Note_on_c, 14, 52, 0
18, 369240, Note_on_c, 14, 55, 76
18, 369359, Note_on_c, 14, 55, 0
18, 369360, Note_on_c, 14, 59, 76
18, 369459, Note_on_c, 14, 59, 0
18, 369480, Note_on_c, 14, 64, 76
18, 369599, Note_on_c, 14, 64, 0
18, 369600, Note_on_c, 14, 66, 76
18, 369699, Note_on_c, 14, 66, 0
18, 369720, Note_on_c, 14, 62, 76
18, 369819, Note_on_c, 14, 62, 0
18, 369840, Note_on_c, 14, 62, 76
18, 369959, Note_on_c, 14, 62, 0
18, 369960, Note_on_c, 14, 64, 76
18, 370059, Note_on_c, 14, 64, 0
18, 370080, Note_on_c, 14, 61, 76
18, 370179, Note_on_c, 14, 61, 0
18, 370200, Note_on_c, 14, 61, 76
18, 370319, Note_on_c, 14, 61, 0
18, 370830, Note_on_c, 14, 57, 76
18, 370904, Note_on_c, 14, 57, 0
18, 370920, Note_on_c, 14, 54, 76
18, 371174, Note_on_c, 14, 54, 0
18, 371190, Note_on_c, 14, 57, 76
18, 371264, Note_on_c, 14, 57, 0
18, 371280, Note_on_c, 14, 50, 76
18, 371534, Note_on_c, 14, 50, 0
18, 371550, Note_on_c, 14, 52, 76
18, 371624, Note_on_c, 14, 52, 0
18, 371640, Note_on_c, 14, 54, 76
18, 371894, Note_on_c, 14, 54, 0
18, 371910, Note_on_c, 14, 55, 76
18, 371984, Note_on_c, 14, 55, 0
18, 372000, Note_on_c, 14, 57, 76
18, 372254, Note_on_c, 14, 57, 0
18, 372270, Note_on_c, 14, 45, 76
18, 372344, Note_on_c, 14, 45, 0
18, 372360, Note_on_c, 14, 50, 76
18, 372614, Note_on_c, 14, 50, 0
18, 372630, Note_on_c, 14, 54, 76
18, 372704, Note_on_c, 14, 54, 0
18, 372720, Note_on_c, 14, 54, 76
18, 372839, Note_on_c, 14, 54, 0
18, 372840, Note_on_c, 14, 55, 76
18, 372939, Note_on_c, 14, 55, 0
18, 372960, Note_on_c, 14, 52, 76
18, 373059, Note_on_c, 14, 52, 0
18, 373080, Note_on_c, 14, 52, 76
18, 373199, Note_on_c, 14, 52, 0
18, 373200, Note_on_c, 14, 54, 76
18, 373299, Note_on_c, 14, 54, 0
18, 373320, Note_on_c, 14, 50, 76
18, 373419, Note_on_c, 14, 50, 0
18, 373440, Note_on_c, 14, 50, 76
18, 373559, Note_on_c, 14, 50, 0
18, 373560, Note_on_c, 14, 52, 76
18, 373679, Note_on_c, 14, 52, 0
18, 373680, Note_on_c, 14, 54, 76
18, 373779, Note_on_c, 14, 54, 0
18, 373800, Note_on_c, 14, 54, 76
18, 373919, Note_on_c, 14, 54, 0
18, 373920, Note_on_c, 14, 55, 76
18, 374019, Note_on_c, 14, 55, 0
18, 374040, Note_on_c, 14, 52, 76
18, 374139, Note_on_c, 14, 52, 0
18, 374160, Note_on_c, 14, 52, 76
18, 374279, Note_on_c, 14, 52, 0
18, 374280, Note_on_c, 14, 54, 76
18, 374379, Note_on_c, 14, 54, 0
18, 374400, Note_on_c, 14, 50, 76
18, 374499, Note_on_c, 14, 50, 0
18, 374520, Note_on_c, 14, 50, 76
18, 374999, Note_on_c, 14, 50, 0
18, 375000, Note_on_c, 14, 50, 76
18, 375293, Note_on_c, 14, 50, 0
18, 375300, Note_on_c, 14, 52, 76
18, 375353, Note_on_c, 14, 52, 0
18, 375360, Note_on_c, 14, 54, 76
18, 375413, Note_on_c, 14, 54, 0
18, 375420, Note_on_c, 14, 50, 76
18, 375473, Note_on_c, 14, 50, 0
18, 375480, Note_on_c, 14, 60, 76
18, 375959, Note_on_c, 14, 60, 0
18, 375960, Note_on_c, 14, 60, 76
18, 376253, Note_on_c, 14, 60, 0
18, 376260, Note_on_c, 14, 59, 76
18, 376313, Note_on_c, 14, 59, 0
18, 376320, Note_on_c, 14, 60, 76
18, 376373, Note_on_c, 14, 60, 0
18, 376380, Note_on_c, 14, 57, 76
18, 376433, Note_on_c, 14, 57, 0
18, 376440, Note_on_c, 14, 63, 76
18, 376973, Note_on_c, 14, 63, 0
18, 376980, Note_on_c, 14, 61, 76
18, 377033, Note_on_c, 14, 61, 0
18, 377040, Note_on_c, 14, 59, 76
18, 377093, Note_on_c, 14, 59, 0
18, 377100, Note_on_c, 14, 61, 76
18, 377153, Note_on_c, 14, 61, 0
18, 377160, Note_on_c, 14, 63, 76
18, 377213, Note_on_c, 14, 63, 0
18, 377220, Note_on_c, 14, 61, 76
18, 377273, Note_on_c, 14, 61, 0
18, 377280, Note_on_c, 14, 63, 76
18, 377333, Note_on_c, 14, 63, 0
18, 377340, Note_on_c, 14, 59, 76
18, 377393, Note_on_c, 14, 59, 0
18, 377400, Note_on_c, 14, 64, 76
18, 377573, Note_on_c, 14, 64, 0
18, 377580, Note_on_c, 14, 59, 76
18, 377633, Note_on_c, 14, 59, 0
18, 377640, Note_on_c, 14, 59, 76
18, 377813, Note_on_c, 14, 59, 0
18, 377820, Note_on_c, 14, 55, 76
18, 377873, Note_on_c, 14, 55, 0
18, 377880, Note_on_c, 14, 55, 76
18, 378053, Note_on_c, 14, 55, 0
18, 378060, Note_on_c, 14, 52, 76
18, 378113, Note_on_c, 14, 52, 0
18, 378120, Note_on_c, 14, 52, 76
18, 378293, Note_on_c, 14, 52, 0
18, 378300, Note_on_c, 14, 45, 76
18, 378353, Note_on_c, 14, 45, 0
18, 378360, Note_on_c, 14, 45, 76
18, 378533, Note_on_c, 14, 45, 0
18, 378540, Note_on_c, 14, 57, 76
18, 378593, Note_on_c, 14, 57, 0
18, 378600, Note_on_c, 14, 57, 76
18, 378773, Note_on_c, 14, 57, 0
18, 378780, Note_on_c, 14, 52, 76
18, 378833, Note_on_c, 14, 52, 0
18, 378840, Note_on_c, 14, 52, 76
18, 379013, Note_on_c, 14, 52, 0
18, 379020, Note_on_c, 14, 49, 76
18, 379073, Note_on_c, 14, 49, 0
18, 379080, Note_on_c, 14, 49, 76
18, 379253, Note_on_c, 14, 49, 0
18, 379260, Note_on_c, 14, 45, 76
18, 379313, Note_on_c, 14, 45, 0
18, 379320, Note_on_c, 14, 50, 76
18, 379493, Note_on_c, 14, 50, 0
18, 379500, Note_on_c, 14, 45, 76
18, 379553, Note_on_c, 14, 45, 0
18, 379560, Note_on_c, 14, 45, 76
18, 379733, Note_on_c, 14, 45, 0
18, 379740, Note_on_c, 14, 42, 76
18, 379793, Note_on_c, 14, 42, 0
18, 379800, Note_on_c, 14, 42, 76
18, 379973, Note_on_c, 14, 42, 0
18, 379980, Note_on_c, 14, 38, 76
18, 380033, Note_on_c, 14, 38, 0
18, 380040, Note_on_c, 14, 38, 76
18, 380213, Note_on_c, 14, 38, 0
18, 380220, Note_on_c, 14, 42, 76
18, 380273, Note_on_c, 14, 42, 0
18, 380280, Note_on_c, 14, 43, 76
18, 380453, Note_on_c, 14, 43, 0
18, 380460, Note_on_c, 14, 47, 76
18, 380513, Note_on_c, 14, 47, 0
18, 380520, Note_on_c, 14, 47, 76
18, 380693, Note_on_c, 14, 47, 0
18, 380700, Note_on_c, 14, 52, 76
18, 380753, Note_on_c, 14, 52, 0
18, 380760, Note_on_c, 14, 52, 76
18, 380933, Note_on_c, 14, 52, 0
18, 380940, Note_on_c, 14, 55, 76
18, 380993, Note_on_c, 14, 55, 0
18, 381000, Note_on_c, 14, 55, 76
18, 381173, Note_on_c, 14, 55, 0
18, 381180, Note_on_c, 14, 52, 76
18, 381233, Note_on_c, 14, 52, 0
18, 381240, Note_on_c, 14, 49, 76
18, 381413, Note_on_c, 14, 49, 0
18, 381420, Note_on_c, 14, 45, 76
18, 381473, Note_on_c, 14, 45, 0
18, 381480, Note_on_c, 14, 45, 76
18, 381653, Note_on_c, 14, 45, 0
18, 381660, Note_on_c, 14, 49, 76
18, 381713, Note_on_c, 14, 49, 0
18, 381720, Note_on_c, 14, 50, 76
18, 382199, Note_on_c, 14, 50, 0
18, 382200, Note_on_c, 14, 50, 76
18, 382493, Note_on_c, 14, 50, 0
18, 382500, Note_on_c, 14, 49, 76
18, 382553, Note_on_c, 14, 49, 0
18, 382560, Note_on_c, 14, 50, 76
18, 382613, Note_on_c, 14, 50, 0
18, 382620, Note_on_c, 14, 47, 76
18, 382673, Note_on_c, 14, 47, 0
18, 382680, Note_on_c, 14, 49, 76
18, 382909, Note_on_c, 14, 49, 0
18, 382920, Note_on_c, 14, 45, 76
18, 383149, Note_on_c, 14, 45, 0
18, 383160, Note_on_c, 14, 50, 76
18, 383693, Note_on_c, 14, 50, 0
18, 383700, Note_on_c, 14, 50, 76
18, 383753, Note_on_c, 14, 50, 0
18, 383760, Note_on_c, 14, 52, 76
18, 383813, Note_on_c, 14, 52, 0
18, 383820, Note_on_c, 14, 54, 76
18, 383873, Note_on_c, 14, 54, 0
18, 383880, Note_on_c, 14, 55, 76
18, 383933, Note_on_c, 14, 55, 0
18, 383940, Note_on_c, 14, 54, 76
18, 383993, Note_on_c, 14, 54, 0
18, 384000, Note_on_c, 14, 55, 76
18, 384053, Note_on_c, 14, 55, 0
18, 384060, Note_on_c, 14, 52, 76
18, 384091, Note_on_c, 14, 52, 0
18, 384100, Note_on_c, 14, 50, 76
18, 384119, Note_on_c, 14, 50, 0
18, 384120, Note_on_c, 14, 49, 76
18, 384469, Note_on_c, 14, 49, 0
18, 384480, Note_on_c, 14, 47, 76
18, 384589, Note_on_c, 14, 47, 0
18, 384600, Note_on_c, 14, 46, 76
18, 384829, Note_on_c, 14, 46, 0
18, 384840, Note_on_c, 14, 42, 76
18, 385069, Note_on_c, 14, 42, 0
18, 385080, Note_on_c, 14, 47, 76
18, 385613, Note_on_c, 14, 47, 0
18, 385620, Note_on_c, 14, 45, 76
18, 385673, Note_on_c, 14, 45, 0
18, 385680, Note_on_c, 14, 47, 76
18, 385733, Note_on_c, 14, 47, 0
18, 385740, Note_on_c, 14, 49, 76
18, 385793, Note_on_c, 14, 49, 0
18, 385800, Note_on_c, 14, 50, 76
18, 385853, Note_on_c, 14, 50, 0
18, 385860, Note_on_c, 14, 49, 76
18, 385913, Note_on_c, 14, 49, 0
18, 385920, Note_on_c, 14, 50, 76
18, 385973, Note_on_c, 14, 50, 0
18, 385980, Note_on_c, 14, 47, 76
18, 386033, Note_on_c, 14, 47, 0
18, 386040, Note_on_c, 14, 49, 76
18, 386213, Note_on_c, 14, 49, 0
18, 386220, Note_on_c, 14, 45, 76
18, 386273, Note_on_c, 14, 45, 0
18, 386280, Note_on_c, 14, 50, 76
18, 386453, Note_on_c, 14, 50, 0
18, 386460, Note_on_c, 14, 52, 76
18, 386513, Note_on_c, 14, 52, 0
18, 386520, Note_on_c, 14, 54, 76
18, 386693, Note_on_c, 14, 54, 0
18, 386700, Note_on_c, 14, 55, 76
18, 386753, Note_on_c, 14, 55, 0
18, 386760, Note_on_c, 14, 52, 76
18, 386933, Note_on_c, 14, 52, 0
18, 386940, Note_on_c, 14, 50, 76
18, 386993, Note_on_c, 14, 50, 0
18, 387000, Note_on_c, 14, 45, 76
18, 387479, Note_on_c, 14, 45, 0
18, 387480, Note_on_c, 14, 45, 76
18, 387893, Note_on_c, 14, 45, 0
18, 387900, Note_on_c, 14, 45, 76
18, 387953, Note_on_c, 14, 45, 0
18, 387960, Note_on_c, 14, 45, 76
18, 388439, Note_on_c, 14, 45, 0
18, 388440, Note_on_c, 14, 45, 76
18, 388853, Note_on_c, 14, 45, 0
18, 388860, Note_on_c, 14, 45, 76
18, 388913, Note_on_c, 14, 45, 0
18, 388920, Note_on_c, 14, 45, 76
18, 389399, Note_on_c, 14, 45, 0
18, 389400, Note_on_c, 14, 45, 76
18, 389813, Note_on_c, 14, 45, 0
18, 389820, Note_on_c, 14, 45, 76
18, 389873, Note_on_c, 14, 45, 0
18, 389880, Note_on_c, 14, 45, 76
18, 390359, Note_on_c, 14, 45, 0
18, 390360, Note_on_c, 14, 45, 76
18, 390773, Note_on_c, 14, 45, 0
18, 390780, Note_on_c, 14, 45, 76
18, 390833, Note_on_c, 14, 45, 0
18, 390840, Note_on_c, 14, 45, 76
18, 391373, Note_on_c, 14, 45, 0
18, 391380, Note_on_c, 14, 47, 76
18, 391433, Note_on_c, 14, 47, 0
18, 391440, Note_on_c, 14, 45, 76
18, 391493, Note_on_c, 14, 45, 0
18, 391500, Note_on_c, 14, 43, 76
18, 391553, Note_on_c, 14, 43, 0
18, 391560, Note_on_c, 14, 42, 76
18, 391613, Note_on_c, 14, 42, 0
18, 391620, Note_on_c, 14, 40, 76
18, 391673, Note_on_c, 14, 40, 0
18, 391680, Note_on_c, 14, 42, 76
18, 391733, Note_on_c, 14, 42, 0
18, 391740, Note_on_c, 14, 38, 76
18, 391793, Note_on_c, 14, 38, 0
18, 391800, Note_on_c, 14, 47, 76
18, 392333, Note_on_c, 14, 47, 0
18, 392340, Note_on_c, 14, 48, 76
18, 392393, Note_on_c, 14, 48, 0
18, 392400, Note_on_c, 14, 47, 76
18, 392453, Note_on_c, 14, 47, 0
18, 392460, Note_on_c, 14, 45, 76
18, 392513, Note_on_c, 14, 45, 0
18, 392520, Note_on_c, 14, 43, 76
18, 392573, Note_on_c, 14, 43, 0
18, 392580, Note_on_c, 14, 42, 76
18, 392633, Note_on_c, 14, 42, 0
18, 392640, Note_on_c, 14, 43, 76
18, 392693, Note_on_c, 14, 43, 0
18, 392700, Note_on_c, 14, 40, 76
18, 392753, Note_on_c, 14, 40, 0
18, 392760, Note_on_c, 14, 49, 76
18, 392933, Note_on_c, 14, 49, 0
18, 392940, Note_on_c, 14, 45, 76
18, 392993, Note_on_c, 14, 45, 0
18, 393000, Note_on_c, 14, 50, 76
18, 393173, Note_on_c, 14, 50, 0
18, 393180, Note_on_c, 14, 43, 76
18, 393233, Note_on_c, 14, 43, 0
18, 393240, Note_on_c, 14, 45, 76
18, 393469, Note_on_c, 14, 45, 0
18, 393480, Note_on_c, 14, 45, 76
18, 393709, Note_on_c, 14, 45, 0
18, 393720, Note_on_c, 14, 38, 76
18, 394679, Note_on_c, 14, 38, 0
18, 394679, End_track
19, 0, Start_track
19, 0, Title_t, "Johann Sebastian Bach - Orchestral Suite No. 4 in D Major, BWV1069 - No. 1 Overture"
19, 0, MIDI_port, 0
19, 0, End_track
0, 0, End_of_file
