0, 0, Header, 0, 1, 48
1, 0, Start_track
1, 0, Title_t, "J.S.Bach Concert for Harpsichord and Orchestra D minor BWV1052 3. Allegro"
1, 0, Time_signature, 3, 2, 24, 8
1, 0, Channel_prefix, 0
1, 0, Copyright_t, "Copyright 2001 by KCN"
1, 0, Channel_prefix, 0
1, 0, Title_t, "Violino I"
1, 0, Channel_prefix, 0
1, 0, Instrument_name_t, "Strings1"
1, 0, System_exclusive, 5, 126, 127, 9, 1, 247
1, 0, MIDI_port, 0
1, 0, Tempo, 625000
1, 0, Program_c, 0, 48
1, 0, Control_c, 0, 7, 110
1, 0, Note_on_c, 0, 74, 96
1, 0, Channel_prefix, 1
1, 0, Title_t, "Violino II"
1, 0, Channel_prefix, 1
1, 0, Instrument_name_t, "Strings1"
1, 0, MIDI_port, 0
1, 0, Program_c, 1, 48
1, 0, Control_c, 1, 7, 110
1, 0, Note_on_c, 1, 74, 96
1, 0, Channel_prefix, 2
1, 0, Title_t, "Viola"
1, 0, Channel_prefix, 2
1, 0, Instrument_name_t, "Strings1"
1, 0, MIDI_port, 0
1, 0, Program_c, 2, 48
1, 0, Control_c, 2, 7, 110
1, 0, Channel_prefix, 3
1, 0, Title_t, "Continuo"
1, 0, Channel_prefix, 3
1, 0, Instrument_name_t, "Cello"
1, 0, MIDI_port, 0
1, 0, Program_c, 3, 42
1, 0, Channel_prefix, 4
1, 0, Title_t, "Continuo"
1, 0, Channel_prefix, 4
1, 0, Instrument_name_t, "Contrabass"
1, 0, MIDI_port, 0
1, 0, Program_c, 4, 43
1, 0, Channel_prefix, 5
1, 0, Title_t, "Cembalo"
1, 0, Channel_prefix, 5
1, 0, Instrument_name_t, "Harpsichord"
1, 0, MIDI_port, 0
1, 0, Program_c, 5, 6
1, 0, Note_on_c, 5, 74, 96
1, 0, Channel_prefix, 6
1, 0, Title_t, "Cembalo"
1, 0, Channel_prefix, 6
1, 0, Instrument_name_t, "Harpsichord"
1, 0, MIDI_port, 0
1, 0, Program_c, 5, 6
1, 0, MIDI_port, 0
1, 0, Program_c, 6, 6
1, 0, MIDI_port, 0
1, 0, Program_c, 6, 6
1, 21, Note_off_c, 0, 74, 0
1, 21, Note_off_c, 1, 74, 0
1, 21, Note_off_c, 5, 74, 0
1, 24, Note_on_c, 0, 72, 96
1, 24, Note_on_c, 1, 72, 96
1, 24, Note_on_c, 5, 72, 96
1, 34, Note_off_c, 0, 72, 0
1, 34, Note_off_c, 1, 72, 0
1, 34, Note_off_c, 5, 72, 0
1, 36, Note_on_c, 0, 70, 96
1, 36, Note_on_c, 1, 70, 96
1, 36, Note_on_c, 5, 70, 96
1, 46, Note_off_c, 0, 70, 0
1, 46, Note_off_c, 1, 70, 0
1, 46, Note_off_c, 5, 70, 0
1, 48, Note_on_c, 0, 69, 96
1, 48, Note_on_c, 1, 69, 96
1, 48, Note_on_c, 5, 69, 96
1, 69, Note_off_c, 0, 69, 0
1, 69, Note_off_c, 1, 69, 0
1, 69, Note_off_c, 5, 69, 0
1, 72, Note_on_c, 0, 67, 96
1, 72, Note_on_c, 1, 67, 96
1, 72, Note_on_c, 5, 67, 96
1, 93, Note_off_c, 0, 67, 0
1, 93, Note_off_c, 1, 67, 0
1, 93, Note_off_c, 5, 67, 0
1, 96, Note_on_c, 0, 65, 96
1, 96, Note_on_c, 1, 65, 96
1, 96, Note_on_c, 5, 65, 96
1, 117, Note_off_c, 0, 65, 0
1, 117, Note_off_c, 1, 65, 0
1, 117, Note_off_c, 5, 65, 0
1, 120, Note_on_c, 0, 64, 96
1, 120, Note_on_c, 1, 64, 96
1, 120, Note_on_c, 5, 64, 96
1, 141, Note_off_c, 0, 64, 0
1, 141, Note_off_c, 1, 64, 0
1, 141, Note_off_c, 5, 64, 0
1, 144, Note_on_c, 0, 65, 96
1, 144, Note_on_c, 1, 65, 96
1, 144, Note_on_c, 5, 65, 96
1, 165, Note_off_c, 0, 65, 0
1, 165, Note_off_c, 1, 65, 0
1, 165, Note_off_c, 5, 65, 0
1, 168, Note_on_c, 0, 62, 96
1, 168, Note_on_c, 1, 62, 96
1, 168, Note_on_c, 2, 65, 96
1, 168, Note_on_c, 3, 50, 96
1, 168, Note_on_c, 4, 38, 96
1, 168, Note_on_c, 5, 62, 96
1, 168, Note_on_c, 6, 50, 96
1, 178, Note_off_c, 2, 65, 0
1, 178, Note_off_c, 3, 50, 0
1, 178, Note_off_c, 4, 38, 0
1, 178, Note_off_c, 6, 50, 0
1, 180, Note_on_c, 2, 67, 96
1, 180, Note_on_c, 3, 52, 96
1, 180, Note_on_c, 4, 40, 96
1, 180, Note_on_c, 6, 52, 96
1, 189, Note_off_c, 0, 62, 0
1, 189, Note_off_c, 1, 62, 0
1, 189, Note_off_c, 5, 62, 0
1, 190, Note_off_c, 2, 67, 0
1, 190, Note_off_c, 3, 52, 0
1, 190, Note_off_c, 4, 40, 0
1, 190, Note_off_c, 6, 52, 0
1, 192, Note_on_c, 0, 74, 96
1, 192, Note_on_c, 1, 74, 96
1, 192, Note_on_c, 2, 69, 96
1, 192, Note_on_c, 3, 53, 96
1, 192, Note_on_c, 4, 41, 96
1, 192, Note_on_c, 5, 74, 96
1, 192, Note_on_c, 6, 53, 96
1, 213, Note_off_c, 0, 74, 0
1, 213, Note_off_c, 1, 74, 0
1, 213, Note_off_c, 2, 69, 0
1, 213, Note_off_c, 3, 53, 0
1, 213, Note_off_c, 4, 41, 0
1, 213, Note_off_c, 5, 74, 0
1, 213, Note_off_c, 6, 53, 0
1, 216, Note_on_c, 0, 74, 96
1, 216, Note_on_c, 1, 74, 96
1, 216, Note_on_c, 2, 67, 96
1, 216, Note_on_c, 3, 52, 96
1, 216, Note_on_c, 4, 40, 96
1, 216, Note_on_c, 5, 74, 96
1, 216, Note_on_c, 6, 52, 96
1, 226, Note_off_c, 2, 67, 0
1, 226, Note_off_c, 3, 52, 0
1, 226, Note_off_c, 4, 40, 0
1, 226, Note_off_c, 6, 52, 0
1, 228, Note_on_c, 2, 69, 96
1, 228, Note_on_c, 3, 53, 96
1, 228, Note_on_c, 4, 41, 96
1, 228, Note_on_c, 6, 53, 96
1, 237, Note_off_c, 0, 74, 0
1, 237, Note_off_c, 1, 74, 0
1, 237, Note_off_c, 5, 74, 0
1, 238, Note_off_c, 2, 69, 0
1, 238, Note_off_c, 3, 53, 0
1, 238, Note_off_c, 4, 41, 0
1, 238, Note_off_c, 6, 53, 0
1, 240, Note_on_c, 0, 74, 96
1, 240, Note_on_c, 1, 74, 96
1, 240, Note_on_c, 2, 70, 96
1, 240, Note_on_c, 3, 55, 96
1, 240, Note_on_c, 4, 43, 96
1, 240, Note_on_c, 5, 74, 96
1, 240, Note_on_c, 6, 55, 96
1, 261, Note_off_c, 0, 74, 0
1, 261, Note_off_c, 1, 74, 0
1, 261, Note_off_c, 2, 70, 0
1, 261, Note_off_c, 3, 55, 0
1, 261, Note_off_c, 4, 43, 0
1, 261, Note_off_c, 5, 74, 0
1, 261, Note_off_c, 6, 55, 0
1, 264, Note_on_c, 0, 74, 96
1, 264, Note_on_c, 1, 74, 96
1, 264, Note_on_c, 2, 69, 96
1, 264, Note_on_c, 3, 53, 96
1, 264, Note_on_c, 4, 41, 96
1, 264, Note_on_c, 5, 74, 96
1, 264, Note_on_c, 6, 53, 96
1, 274, Note_off_c, 2, 69, 0
1, 274, Note_off_c, 3, 53, 0
1, 274, Note_off_c, 4, 41, 0
1, 274, Note_off_c, 6, 53, 0
1, 276, Note_on_c, 2, 70, 96
1, 276, Note_on_c, 3, 55, 96
1, 276, Note_on_c, 4, 43, 96
1, 276, Note_on_c, 6, 55, 96
1, 285, Note_off_c, 0, 74, 0
1, 285, Note_off_c, 1, 74, 0
1, 285, Note_off_c, 5, 74, 0
1, 286, Note_off_c, 2, 70, 0
1, 286, Note_off_c, 3, 55, 0
1, 286, Note_off_c, 4, 43, 0
1, 286, Note_off_c, 6, 55, 0
1, 288, Note_on_c, 0, 74, 96
1, 288, Note_on_c, 1, 74, 96
1, 288, Note_on_c, 2, 64, 96
1, 288, Note_on_c, 3, 57, 96
1, 288, Note_on_c, 4, 45, 96
1, 288, Note_on_c, 5, 74, 96
1, 288, Note_on_c, 6, 57, 96
1, 298, Note_off_c, 0, 74, 0
1, 298, Note_off_c, 1, 74, 0
1, 298, Note_off_c, 5, 74, 0
1, 300, Note_on_c, 0, 72, 96
1, 300, Note_on_c, 1, 72, 96
1, 300, Note_on_c, 5, 72, 96
1, 309, Note_off_c, 2, 64, 0
1, 309, Note_off_c, 3, 57, 0
1, 309, Note_off_c, 4, 45, 0
1, 309, Note_off_c, 6, 57, 0
1, 310, Note_off_c, 0, 72, 0
1, 310, Note_off_c, 1, 72, 0
1, 310, Note_off_c, 5, 72, 0
1, 312, Note_on_c, 0, 74, 96
1, 312, Note_on_c, 1, 74, 96
1, 312, Note_on_c, 2, 69, 96
1, 312, Note_on_c, 3, 53, 96
1, 312, Note_on_c, 4, 41, 96
1, 312, Note_on_c, 5, 74, 96
1, 312, Note_on_c, 6, 53, 96
1, 322, Note_off_c, 0, 74, 0
1, 322, Note_off_c, 1, 74, 0
1, 322, Note_off_c, 2, 69, 0
1, 322, Note_off_c, 3, 53, 0
1, 322, Note_off_c, 4, 41, 0
1, 322, Note_off_c, 5, 74, 0
1, 322, Note_off_c, 6, 53, 0
1, 324, Note_on_c, 0, 76, 96
1, 324, Note_on_c, 1, 76, 96
1, 324, Note_on_c, 2, 70, 96
1, 324, Note_on_c, 3, 55, 96
1, 324, Note_on_c, 4, 43, 96
1, 324, Note_on_c, 5, 76, 96
1, 324, Note_on_c, 6, 55, 96
1, 334, Note_off_c, 0, 76, 0
1, 334, Note_off_c, 1, 76, 0
1, 334, Note_off_c, 2, 70, 0
1, 334, Note_off_c, 3, 55, 0
1, 334, Note_off_c, 4, 43, 0
1, 334, Note_off_c, 5, 76, 0
1, 334, Note_off_c, 6, 55, 0
1, 336, Note_on_c, 0, 77, 96
1, 336, Note_on_c, 1, 77, 96
1, 336, Note_on_c, 2, 72, 96
1, 336, Note_on_c, 3, 57, 96
1, 336, Note_on_c, 4, 45, 96
1, 336, Note_on_c, 5, 77, 96
1, 336, Note_on_c, 6, 57, 96
1, 357, Note_off_c, 0, 77, 0
1, 357, Note_off_c, 1, 77, 0
1, 357, Note_off_c, 2, 72, 0
1, 357, Note_off_c, 3, 57, 0
1, 357, Note_off_c, 4, 45, 0
1, 357, Note_off_c, 5, 77, 0
1, 357, Note_off_c, 6, 57, 0
1, 360, Note_on_c, 0, 77, 96
1, 360, Note_on_c, 1, 77, 96
1, 360, Note_on_c, 2, 70, 96
1, 360, Note_on_c, 3, 55, 96
1, 360, Note_on_c, 4, 43, 96
1, 360, Note_on_c, 5, 77, 96
1, 360, Note_on_c, 6, 55, 96
1, 370, Note_off_c, 2, 70, 0
1, 370, Note_off_c, 3, 55, 0
1, 370, Note_off_c, 4, 43, 0
1, 370, Note_off_c, 6, 55, 0
1, 372, Note_on_c, 2, 72, 96
1, 372, Note_on_c, 3, 57, 96
1, 372, Note_on_c, 4, 45, 96
1, 372, Note_on_c, 6, 57, 96
1, 381, Note_off_c, 0, 77, 0
1, 381, Note_off_c, 1, 77, 0
1, 381, Note_off_c, 5, 77, 0
1, 382, Note_off_c, 2, 72, 0
1, 382, Note_off_c, 3, 57, 0
1, 382, Note_off_c, 4, 45, 0
1, 382, Note_off_c, 6, 57, 0
1, 384, Note_on_c, 0, 77, 96
1, 384, Note_on_c, 1, 77, 96
1, 384, Note_on_c, 2, 74, 96
1, 384, Note_on_c, 3, 58, 96
1, 384, Note_on_c, 4, 46, 96
1, 384, Note_on_c, 5, 77, 96
1, 384, Note_on_c, 6, 58, 96
1, 405, Note_off_c, 0, 77, 0
1, 405, Note_off_c, 1, 77, 0
1, 405, Note_off_c, 2, 74, 0
1, 405, Note_off_c, 3, 58, 0
1, 405, Note_off_c, 4, 46, 0
1, 405, Note_off_c, 5, 77, 0
1, 405, Note_off_c, 6, 58, 0
1, 408, Note_on_c, 0, 77, 96
1, 408, Note_on_c, 1, 77, 96
1, 408, Note_on_c, 2, 72, 96
1, 408, Note_on_c, 3, 57, 96
1, 408, Note_on_c, 4, 45, 96
1, 408, Note_on_c, 5, 77, 96
1, 408, Note_on_c, 6, 57, 96
1, 418, Note_off_c, 2, 72, 0
1, 418, Note_off_c, 3, 57, 0
1, 418, Note_off_c, 4, 45, 0
1, 418, Note_off_c, 6, 57, 0
1, 420, Note_on_c, 2, 74, 96
1, 420, Note_on_c, 3, 58, 96
1, 420, Note_on_c, 4, 46, 96
1, 420, Note_on_c, 6, 58, 96
1, 429, Note_off_c, 0, 77, 0
1, 429, Note_off_c, 1, 77, 0
1, 429, Note_off_c, 5, 77, 0
1, 430, Note_off_c, 2, 74, 0
1, 430, Note_off_c, 3, 58, 0
1, 430, Note_off_c, 4, 46, 0
1, 430, Note_off_c, 6, 58, 0
1, 432, Note_on_c, 0, 77, 96
1, 432, Note_on_c, 1, 77, 96
1, 432, Note_on_c, 2, 67, 96
1, 432, Note_on_c, 3, 60, 96
1, 432, Note_on_c, 4, 48, 96
1, 432, Note_on_c, 5, 77, 96
1, 432, Note_on_c, 6, 60, 96
1, 442, Note_off_c, 0, 77, 0
1, 442, Note_off_c, 1, 77, 0
1, 442, Note_off_c, 5, 77, 0
1, 444, Note_on_c, 0, 76, 96
1, 444, Note_on_c, 1, 76, 96
1, 444, Note_on_c, 5, 76, 96
1, 453, Note_off_c, 2, 67, 0
1, 453, Note_off_c, 3, 60, 0
1, 453, Note_off_c, 4, 48, 0
1, 453, Note_off_c, 6, 60, 0
1, 454, Note_off_c, 0, 76, 0
1, 454, Note_off_c, 1, 76, 0
1, 454, Note_off_c, 5, 76, 0
1, 456, Note_on_c, 0, 77, 96
1, 456, Note_on_c, 1, 77, 96
1, 456, Note_on_c, 2, 60, 96
1, 456, Note_on_c, 3, 57, 96
1, 456, Note_on_c, 4, 45, 96
1, 456, Note_on_c, 5, 77, 96
1, 456, Note_on_c, 6, 57, 96
1, 466, Note_off_c, 0, 77, 0
1, 466, Note_off_c, 1, 77, 0
1, 466, Note_off_c, 2, 60, 0
1, 466, Note_off_c, 3, 57, 0
1, 466, Note_off_c, 4, 45, 0
1, 466, Note_off_c, 5, 77, 0
1, 466, Note_off_c, 6, 57, 0
1, 468, Note_on_c, 0, 79, 96
1, 468, Note_on_c, 1, 79, 96
1, 468, Note_on_c, 2, 62, 96
1, 468, Note_on_c, 3, 59, 96
1, 468, Note_on_c, 4, 47, 96
1, 468, Note_on_c, 5, 79, 96
1, 468, Note_on_c, 6, 59, 96
1, 478, Note_off_c, 0, 79, 0
1, 478, Note_off_c, 1, 79, 0
1, 478, Note_off_c, 2, 62, 0
1, 478, Note_off_c, 3, 59, 0
1, 478, Note_off_c, 4, 47, 0
1, 478, Note_off_c, 5, 79, 0
1, 478, Note_off_c, 6, 59, 0
1, 480, Note_on_c, 0, 81, 96
1, 480, Note_on_c, 1, 81, 96
1, 480, Note_on_c, 2, 64, 96
1, 480, Note_on_c, 3, 60, 96
1, 480, Note_on_c, 4, 48, 96
1, 480, Note_on_c, 5, 81, 96
1, 480, Note_on_c, 6, 60, 96
1, 501, Note_off_c, 0, 81, 0
1, 501, Note_off_c, 1, 81, 0
1, 501, Note_off_c, 2, 64, 0
1, 501, Note_off_c, 3, 60, 0
1, 501, Note_off_c, 4, 48, 0
1, 501, Note_off_c, 5, 81, 0
1, 501, Note_off_c, 6, 60, 0
1, 504, Note_on_c, 0, 81, 96
1, 504, Note_on_c, 1, 81, 96
1, 504, Note_on_c, 2, 62, 96
1, 504, Note_on_c, 3, 59, 96
1, 504, Note_on_c, 4, 47, 96
1, 504, Note_on_c, 5, 81, 96
1, 504, Note_on_c, 6, 59, 96
1, 514, Note_off_c, 2, 62, 0
1, 514, Note_off_c, 3, 59, 0
1, 514, Note_off_c, 4, 47, 0
1, 514, Note_off_c, 6, 59, 0
1, 516, Note_on_c, 2, 64, 96
1, 516, Note_on_c, 3, 60, 96
1, 516, Note_on_c, 4, 48, 96
1, 516, Note_on_c, 6, 60, 96
1, 525, Note_off_c, 0, 81, 0
1, 525, Note_off_c, 1, 81, 0
1, 525, Note_off_c, 5, 81, 0
1, 526, Note_off_c, 2, 64, 0
1, 526, Note_off_c, 3, 60, 0
1, 526, Note_off_c, 4, 48, 0
1, 526, Note_off_c, 6, 60, 0
1, 528, Note_on_c, 0, 81, 96
1, 528, Note_on_c, 1, 81, 96
1, 528, Note_on_c, 2, 65, 96
1, 528, Note_on_c, 3, 62, 96
1, 528, Note_on_c, 4, 50, 96
1, 528, Note_on_c, 5, 81, 96
1, 528, Note_on_c, 6, 62, 96
1, 549, Note_off_c, 0, 81, 0
1, 549, Note_off_c, 1, 81, 0
1, 549, Note_off_c, 2, 65, 0
1, 549, Note_off_c, 3, 62, 0
1, 549, Note_off_c, 4, 50, 0
1, 549, Note_off_c, 5, 81, 0
1, 549, Note_off_c, 6, 62, 0
1, 552, Note_on_c, 0, 81, 96
1, 552, Note_on_c, 1, 81, 96
1, 552, Note_on_c, 2, 64, 96
1, 552, Note_on_c, 3, 60, 96
1, 552, Note_on_c, 4, 48, 96
1, 552, Note_on_c, 5, 81, 96
1, 552, Note_on_c, 6, 60, 96
1, 562, Note_off_c, 2, 64, 0
1, 562, Note_off_c, 3, 60, 0
1, 562, Note_off_c, 4, 48, 0
1, 562, Note_off_c, 6, 60, 0
1, 564, Note_on_c, 2, 65, 96
1, 564, Note_on_c, 3, 62, 96
1, 564, Note_on_c, 4, 50, 96
1, 564, Note_on_c, 6, 62, 96
1, 573, Note_off_c, 0, 81, 0
1, 573, Note_off_c, 1, 81, 0
1, 573, Note_off_c, 5, 81, 0
1, 574, Note_off_c, 2, 65, 0
1, 574, Note_off_c, 3, 62, 0
1, 574, Note_off_c, 4, 50, 0
1, 574, Note_off_c, 6, 62, 0
1, 576, Note_on_c, 0, 81, 96
1, 576, Note_on_c, 1, 81, 96
1, 576, Note_on_c, 2, 59, 96
1, 576, Note_on_c, 3, 64, 96
1, 576, Note_on_c, 4, 52, 96
1, 576, Note_on_c, 5, 81, 96
1, 576, Note_on_c, 6, 64, 96
1, 597, Note_off_c, 0, 81, 0
1, 597, Note_off_c, 1, 81, 0
1, 597, Note_off_c, 3, 64, 0
1, 597, Note_off_c, 4, 52, 0
1, 597, Note_off_c, 5, 81, 0
1, 597, Note_off_c, 6, 64, 0
1, 600, Note_on_c, 0, 79, 96
1, 600, Note_on_c, 1, 79, 96
1, 600, Note_on_c, 3, 52, 96
1, 600, Note_on_c, 4, 40, 96
1, 600, Note_on_c, 5, 79, 96
1, 600, Note_on_c, 6, 52, 96
1, 610, Note_off_c, 0, 79, 0
1, 610, Note_off_c, 1, 79, 0
1, 610, Note_off_c, 5, 79, 0
1, 612, Note_on_c, 0, 77, 96
1, 612, Note_on_c, 1, 77, 96
1, 612, Note_on_c, 5, 77, 96
1, 618, Note_off_c, 2, 59, 0
1, 621, Note_off_c, 3, 52, 0
1, 621, Note_off_c, 4, 40, 0
1, 621, Note_off_c, 6, 52, 0
1, 622, Note_off_c, 0, 77, 0
1, 622, Note_off_c, 1, 77, 0
1, 622, Note_off_c, 5, 77, 0
1, 624, Note_on_c, 0, 79, 96
1, 624, Note_on_c, 1, 79, 96
1, 624, Note_on_c, 3, 64, 96
1, 624, Note_on_c, 4, 52, 96
1, 624, Note_on_c, 5, 79, 96
1, 624, Note_on_c, 6, 64, 96
1, 636, Note_on_c, 2, 59, 96
1, 645, Note_off_c, 0, 79, 0
1, 645, Note_off_c, 1, 79, 0
1, 645, Note_off_c, 3, 64, 0
1, 645, Note_off_c, 4, 52, 0
1, 645, Note_off_c, 5, 79, 0
1, 645, Note_off_c, 6, 64, 0
1, 646, Note_off_c, 2, 59, 0
1, 648, Note_on_c, 0, 76, 96
1, 648, Note_on_c, 1, 76, 96
1, 648, Note_on_c, 2, 61, 96
1, 648, Note_on_c, 3, 62, 96
1, 648, Note_on_c, 4, 50, 96
1, 648, Note_on_c, 5, 76, 96
1, 648, Note_on_c, 6, 62, 96
1, 658, Note_off_c, 0, 76, 0
1, 658, Note_off_c, 1, 76, 0
1, 658, Note_off_c, 2, 61, 0
1, 658, Note_off_c, 5, 76, 0
1, 660, Note_on_c, 0, 77, 96
1, 660, Note_on_c, 1, 77, 96
1, 660, Note_on_c, 2, 62, 96
1, 660, Note_on_c, 5, 77, 96
1, 669, Note_off_c, 3, 62, 0
1, 669, Note_off_c, 4, 50, 0
1, 669, Note_off_c, 6, 62, 0
1, 670, Note_off_c, 0, 77, 0
1, 670, Note_off_c, 1, 77, 0
1, 670, Note_off_c, 2, 62, 0
1, 670, Note_off_c, 5, 77, 0
1, 672, Note_on_c, 0, 79, 96
1, 672, Note_on_c, 1, 79, 96
1, 672, Note_on_c, 2, 64, 96
1, 672, Note_on_c, 3, 61, 96
1, 672, Note_on_c, 4, 49, 96
1, 672, Note_on_c, 5, 79, 96
1, 672, Note_on_c, 6, 61, 96
1, 682, Note_off_c, 2, 64, 0
1, 684, Note_on_c, 2, 62, 96
1, 693, Note_off_c, 0, 79, 0
1, 693, Note_off_c, 1, 79, 0
1, 693, Note_off_c, 3, 61, 0
1, 693, Note_off_c, 4, 49, 0
1, 693, Note_off_c, 5, 79, 0
1, 693, Note_off_c, 6, 61, 0
1, 694, Note_off_c, 2, 62, 0
1, 696, Note_on_c, 0, 79, 96
1, 696, Note_on_c, 1, 79, 96
1, 696, Note_on_c, 2, 61, 96
1, 696, Note_on_c, 3, 57, 96
1, 696, Note_on_c, 4, 45, 96
1, 696, Note_on_c, 5, 79, 96
1, 696, Note_on_c, 6, 57, 96
1, 706, Note_off_c, 2, 61, 0
1, 708, Note_on_c, 2, 59, 96
1, 717, Note_off_c, 0, 79, 0
1, 717, Note_off_c, 1, 79, 0
1, 717, Note_off_c, 3, 57, 0
1, 717, Note_off_c, 4, 45, 0
1, 717, Note_off_c, 5, 79, 0
1, 717, Note_off_c, 6, 57, 0
1, 718, Note_off_c, 2, 59, 0
1, 720, Note_on_c, 0, 79, 96
1, 720, Note_on_c, 1, 79, 96
1, 720, Note_on_c, 2, 57, 96
1, 720, Note_on_c, 3, 62, 96
1, 720, Note_on_c, 4, 50, 96
1, 720, Note_on_c, 5, 79, 96
1, 720, Note_on_c, 6, 62, 96
1, 741, Note_off_c, 0, 79, 0
1, 741, Note_off_c, 1, 79, 0
1, 741, Note_off_c, 3, 62, 0
1, 741, Note_off_c, 4, 50, 0
1, 741, Note_off_c, 5, 79, 0
1, 741, Note_off_c, 6, 62, 0
1, 744, Note_on_c, 0, 77, 96
1, 744, Note_on_c, 1, 77, 96
1, 744, Note_on_c, 3, 50, 96
1, 744, Note_on_c, 4, 38, 96
1, 744, Note_on_c, 5, 77, 96
1, 744, Note_on_c, 6, 50, 96
1, 754, Note_off_c, 0, 77, 0
1, 754, Note_off_c, 1, 77, 0
1, 754, Note_off_c, 5, 77, 0
1, 756, Note_on_c, 0, 76, 96
1, 756, Note_on_c, 1, 76, 96
1, 756, Note_on_c, 5, 76, 96
1, 762, Note_off_c, 2, 57, 0
1, 765, Note_off_c, 3, 50, 0
1, 765, Note_off_c, 4, 38, 0
1, 765, Note_off_c, 6, 50, 0
1, 766, Note_off_c, 0, 76, 0
1, 766, Note_off_c, 1, 76, 0
1, 766, Note_off_c, 5, 76, 0
1, 768, Note_on_c, 0, 77, 96
1, 768, Note_on_c, 1, 77, 96
1, 768, Note_on_c, 3, 62, 96
1, 768, Note_on_c, 4, 50, 96
1, 768, Note_on_c, 5, 77, 96
1, 768, Note_on_c, 6, 62, 96
1, 789, Note_off_c, 0, 77, 0
1, 789, Note_off_c, 1, 77, 0
1, 789, Note_off_c, 3, 62, 0
1, 789, Note_off_c, 4, 50, 0
1, 789, Note_off_c, 5, 77, 0
1, 789, Note_off_c, 6, 62, 0
1, 792, Note_on_c, 0, 74, 96
1, 792, Note_on_c, 1, 74, 96
1, 792, Note_on_c, 2, 65, 96
1, 792, Note_on_c, 3, 60, 96
1, 792, Note_on_c, 4, 48, 96
1, 792, Note_on_c, 5, 74, 96
1, 792, Note_on_c, 6, 60, 96
1, 802, Note_off_c, 0, 74, 0
1, 802, Note_off_c, 1, 74, 0
1, 802, Note_off_c, 2, 65, 0
1, 802, Note_off_c, 5, 74, 0
1, 804, Note_on_c, 0, 76, 96
1, 804, Note_on_c, 1, 76, 96
1, 804, Note_on_c, 2, 67, 96
1, 804, Note_on_c, 5, 76, 96
1, 813, Note_off_c, 3, 60, 0
1, 813, Note_off_c, 4, 48, 0
1, 813, Note_off_c, 6, 60, 0
1, 814, Note_off_c, 0, 76, 0
1, 814, Note_off_c, 1, 76, 0
1, 814, Note_off_c, 2, 67, 0
1, 814, Note_off_c, 5, 76, 0
1, 816, Note_on_c, 0, 77, 96
1, 816, Note_on_c, 1, 77, 96
1, 816, Note_on_c, 2, 69, 96
1, 816, Note_on_c, 3, 58, 96
1, 816, Note_on_c, 4, 46, 96
1, 816, Note_on_c, 5, 77, 96
1, 816, Note_on_c, 6, 58, 96
1, 837, Note_off_c, 0, 77, 0
1, 837, Note_off_c, 1, 77, 0
1, 837, Note_off_c, 2, 69, 0
1, 837, Note_off_c, 3, 58, 0
1, 837, Note_off_c, 4, 46, 0
1, 837, Note_off_c, 5, 77, 0
1, 837, Note_off_c, 6, 58, 0
1, 840, Note_on_c, 0, 79, 96
1, 840, Note_on_c, 1, 79, 96
1, 840, Note_on_c, 2, 62, 96
1, 840, Note_on_c, 3, 57, 96
1, 840, Note_on_c, 4, 45, 96
1, 840, Note_on_c, 5, 79, 96
1, 840, Note_on_c, 6, 57, 96
1, 850, Note_off_c, 0, 79, 0
1, 850, Note_off_c, 1, 79, 0
1, 850, Note_off_c, 5, 79, 0
1, 852, Note_on_c, 0, 81, 96
1, 852, Note_on_c, 1, 81, 96
1, 852, Note_on_c, 5, 81, 96
1, 861, Note_off_c, 2, 62, 0
1, 861, Note_off_c, 3, 57, 0
1, 861, Note_off_c, 4, 45, 0
1, 861, Note_off_c, 6, 57, 0
1, 862, Note_off_c, 0, 81, 0
1, 862, Note_off_c, 1, 81, 0
1, 862, Note_off_c, 5, 81, 0
1, 864, Note_on_c, 0, 82, 96
1, 864, Note_on_c, 1, 82, 96
1, 864, Note_on_c, 2, 74, 96
1, 864, Note_on_c, 3, 55, 96
1, 864, Note_on_c, 4, 43, 96
1, 864, Note_on_c, 5, 82, 96
1, 864, Note_on_c, 6, 55, 96
1, 885, Note_off_c, 0, 82, 0
1, 885, Note_off_c, 1, 82, 0
1, 885, Note_off_c, 2, 74, 0
1, 885, Note_off_c, 3, 55, 0
1, 885, Note_off_c, 4, 43, 0
1, 885, Note_off_c, 5, 82, 0
1, 885, Note_off_c, 6, 55, 0
1, 888, Note_on_c, 0, 79, 96
1, 888, Note_on_c, 1, 79, 96
1, 888, Note_on_c, 2, 70, 96
1, 888, Note_on_c, 3, 57, 96
1, 888, Note_on_c, 4, 45, 96
1, 888, Note_on_c, 5, 79, 96
1, 888, Note_on_c, 6, 57, 96
1, 898, Note_off_c, 0, 79, 0
1, 898, Note_off_c, 1, 79, 0
1, 898, Note_off_c, 2, 70, 0
1, 898, Note_off_c, 3, 57, 0
1, 898, Note_off_c, 4, 45, 0
1, 898, Note_off_c, 5, 79, 0
1, 898, Note_off_c, 6, 57, 0
1, 900, Note_on_c, 0, 77, 96
1, 900, Note_on_c, 1, 77, 96
1, 900, Note_on_c, 2, 69, 96
1, 900, Note_on_c, 3, 58, 96
1, 900, Note_on_c, 4, 46, 96
1, 900, Note_on_c, 5, 77, 96
1, 900, Note_on_c, 6, 58, 96
1, 910, Note_off_c, 0, 77, 0
1, 910, Note_off_c, 1, 77, 0
1, 910, Note_off_c, 2, 69, 0
1, 910, Note_off_c, 3, 58, 0
1, 910, Note_off_c, 4, 46, 0
1, 910, Note_off_c, 5, 77, 0
1, 910, Note_off_c, 6, 58, 0
1, 912, Note_on_c, 0, 76, 96
1, 912, Note_on_c, 1, 76, 96
1, 912, Note_on_c, 2, 67, 96
1, 912, Note_on_c, 3, 60, 96
1, 912, Note_on_c, 4, 48, 96
1, 912, Note_on_c, 5, 76, 96
1, 912, Note_on_c, 6, 60, 96
1, 933, Note_off_c, 0, 76, 0
1, 933, Note_off_c, 1, 76, 0
1, 933, Note_off_c, 2, 67, 0
1, 933, Note_off_c, 3, 60, 0
1, 933, Note_off_c, 4, 48, 0
1, 933, Note_off_c, 5, 76, 0
1, 933, Note_off_c, 6, 60, 0
1, 936, Note_on_c, 0, 72, 96
1, 936, Note_on_c, 1, 72, 96
1, 936, Note_on_c, 2, 64, 96
1, 936, Note_on_c, 3, 58, 96
1, 936, Note_on_c, 4, 46, 96
1, 936, Note_on_c, 5, 72, 96
1, 936, Note_on_c, 6, 58, 96
1, 946, Note_off_c, 0, 72, 0
1, 946, Note_off_c, 1, 72, 0
1, 946, Note_off_c, 2, 64, 0
1, 946, Note_off_c, 5, 72, 0
1, 948, Note_on_c, 0, 74, 96
1, 948, Note_on_c, 1, 74, 96
1, 948, Note_on_c, 2, 65, 96
1, 948, Note_on_c, 5, 74, 96
1, 957, Note_off_c, 3, 58, 0
1, 957, Note_off_c, 4, 46, 0
1, 957, Note_off_c, 6, 58, 0
1, 958, Note_off_c, 0, 74, 0
1, 958, Note_off_c, 1, 74, 0
1, 958, Note_off_c, 2, 65, 0
1, 958, Note_off_c, 5, 74, 0
1, 960, Note_on_c, 0, 76, 96
1, 960, Note_on_c, 1, 76, 96
1, 960, Note_on_c, 2, 67, 96
1, 960, Note_on_c, 3, 57, 96
1, 960, Note_on_c, 4, 45, 96
1, 960, Note_on_c, 5, 76, 96
1, 960, Note_on_c, 6, 57, 96
1, 981, Note_off_c, 0, 76, 0
1, 981, Note_off_c, 1, 76, 0
1, 981, Note_off_c, 2, 67, 0
1, 981, Note_off_c, 3, 57, 0
1, 981, Note_off_c, 4, 45, 0
1, 981, Note_off_c, 5, 76, 0
1, 981, Note_off_c, 6, 57, 0
1, 984, Note_on_c, 0, 77, 96
1, 984, Note_on_c, 1, 77, 96
1, 984, Note_on_c, 2, 60, 96
1, 984, Note_on_c, 3, 55, 96
1, 984, Note_on_c, 4, 43, 96
1, 984, Note_on_c, 5, 77, 96
1, 984, Note_on_c, 6, 55, 96
1, 994, Note_off_c, 0, 77, 0
1, 994, Note_off_c, 1, 77, 0
1, 994, Note_off_c, 5, 77, 0
1, 996, Note_on_c, 0, 79, 96
1, 996, Note_on_c, 1, 79, 96
1, 996, Note_on_c, 5, 79, 96
1, 1005, Note_off_c, 2, 60, 0
1, 1005, Note_off_c, 3, 55, 0
1, 1005, Note_off_c, 4, 43, 0
1, 1005, Note_off_c, 6, 55, 0
1, 1006, Note_off_c, 0, 79, 0
1, 1006, Note_off_c, 1, 79, 0
1, 1006, Note_off_c, 5, 79, 0
1, 1008, Note_on_c, 0, 81, 96
1, 1008, Note_on_c, 1, 81, 96
1, 1008, Note_on_c, 2, 72, 96
1, 1008, Note_on_c, 3, 53, 96
1, 1008, Note_on_c, 4, 41, 96
1, 1008, Note_on_c, 5, 81, 96
1, 1008, Note_on_c, 6, 53, 96
1, 1029, Note_off_c, 0, 81, 0
1, 1029, Note_off_c, 1, 81, 0
1, 1029, Note_off_c, 2, 72, 0
1, 1029, Note_off_c, 3, 53, 0
1, 1029, Note_off_c, 4, 41, 0
1, 1029, Note_off_c, 5, 81, 0
1, 1029, Note_off_c, 6, 53, 0
1, 1032, Note_on_c, 0, 77, 96
1, 1032, Note_on_c, 1, 77, 96
1, 1032, Note_on_c, 2, 69, 96
1, 1032, Note_on_c, 3, 55, 96
1, 1032, Note_on_c, 4, 43, 96
1, 1032, Note_on_c, 5, 77, 96
1, 1032, Note_on_c, 6, 55, 96
1, 1042, Note_off_c, 0, 77, 0
1, 1042, Note_off_c, 1, 77, 0
1, 1042, Note_off_c, 2, 69, 0
1, 1042, Note_off_c, 3, 55, 0
1, 1042, Note_off_c, 4, 43, 0
1, 1042, Note_off_c, 5, 77, 0
1, 1042, Note_off_c, 6, 55, 0
1, 1044, Note_on_c, 0, 76, 96
1, 1044, Note_on_c, 1, 76, 96
1, 1044, Note_on_c, 2, 67, 96
1, 1044, Note_on_c, 3, 57, 96
1, 1044, Note_on_c, 4, 45, 96
1, 1044, Note_on_c, 5, 76, 96
1, 1044, Note_on_c, 6, 57, 96
1, 1054, Note_off_c, 0, 76, 0
1, 1054, Note_off_c, 1, 76, 0
1, 1054, Note_off_c, 2, 67, 0
1, 1054, Note_off_c, 3, 57, 0
1, 1054, Note_off_c, 4, 45, 0
1, 1054, Note_off_c, 5, 76, 0
1, 1054, Note_off_c, 6, 57, 0
1, 1056, Note_on_c, 0, 74, 96
1, 1056, Note_on_c, 1, 74, 96
1, 1056, Note_on_c, 2, 65, 96
1, 1056, Note_on_c, 3, 58, 96
1, 1056, Note_on_c, 4, 46, 96
1, 1056, Note_on_c, 5, 74, 96
1, 1056, Note_on_c, 6, 58, 96
1, 1077, Note_off_c, 0, 74, 0
1, 1077, Note_off_c, 1, 74, 0
1, 1077, Note_off_c, 2, 65, 0
1, 1077, Note_off_c, 3, 58, 0
1, 1077, Note_off_c, 4, 46, 0
1, 1077, Note_off_c, 5, 74, 0
1, 1077, Note_off_c, 6, 58, 0
1, 1080, Note_on_c, 0, 86, 96
1, 1080, Note_on_c, 1, 86, 96
1, 1080, Note_on_c, 2, 65, 96
1, 1080, Note_on_c, 3, 57, 96
1, 1080, Note_on_c, 4, 45, 96
1, 1080, Note_on_c, 5, 86, 96
1, 1080, Note_on_c, 6, 57, 96
1, 1090, Note_off_c, 0, 86, 0
1, 1090, Note_off_c, 1, 86, 0
1, 1090, Note_off_c, 5, 86, 0
1, 1092, Note_on_c, 0, 85, 96
1, 1092, Note_on_c, 1, 85, 96
1, 1092, Note_on_c, 5, 85, 96
1, 1101, Note_off_c, 2, 65, 0
1, 1101, Note_off_c, 3, 57, 0
1, 1101, Note_off_c, 4, 45, 0
1, 1101, Note_off_c, 6, 57, 0
1, 1102, Note_off_c, 0, 85, 0
1, 1102, Note_off_c, 1, 85, 0
1, 1102, Note_off_c, 5, 85, 0
1, 1104, Note_on_c, 0, 86, 96
1, 1104, Note_on_c, 1, 86, 96
1, 1104, Note_on_c, 2, 70, 96
1, 1104, Note_on_c, 3, 55, 96
1, 1104, Note_on_c, 4, 43, 96
1, 1104, Note_on_c, 5, 86, 96
1, 1104, Note_on_c, 6, 55, 96
1, 1125, Note_off_c, 0, 86, 0
1, 1125, Note_off_c, 1, 86, 0
1, 1125, Note_off_c, 2, 70, 0
1, 1125, Note_off_c, 3, 55, 0
1, 1125, Note_off_c, 4, 43, 0
1, 1125, Note_off_c, 5, 86, 0
1, 1125, Note_off_c, 6, 55, 0
1, 1128, Note_on_c, 0, 82, 96
1, 1128, Note_on_c, 1, 82, 96
1, 1128, Note_on_c, 2, 74, 96
1, 1128, Note_on_c, 3, 53, 96
1, 1128, Note_on_c, 4, 41, 96
1, 1128, Note_on_c, 5, 82, 96
1, 1128, Note_on_c, 6, 53, 96
1, 1149, Note_off_c, 0, 82, 0
1, 1149, Note_off_c, 1, 82, 0
1, 1149, Note_off_c, 2, 74, 0
1, 1149, Note_off_c, 3, 53, 0
1, 1149, Note_off_c, 4, 41, 0
1, 1149, Note_off_c, 5, 82, 0
1, 1149, Note_off_c, 6, 53, 0
1, 1152, Note_on_c, 0, 79, 96
1, 1152, Note_on_c, 1, 79, 96
1, 1152, Note_on_c, 2, 70, 96
1, 1152, Note_on_c, 3, 52, 96
1, 1152, Note_on_c, 4, 40, 96
1, 1152, Note_on_c, 5, 79, 96
1, 1152, Note_on_c, 6, 52, 96
1, 1173, Note_off_c, 3, 52, 0
1, 1173, Note_off_c, 4, 40, 0
1, 1173, Note_off_c, 6, 52, 0
1, 1176, Note_off_c, 0, 79, 0
1, 1176, Note_on_c, 0, 78, 96
1, 1176, Note_off_c, 1, 79, 0
1, 1176, Note_on_c, 1, 78, 96
1, 1176, Note_on_c, 3, 50, 96
1, 1176, Note_on_c, 4, 38, 96
1, 1176, Note_off_c, 5, 79, 0
1, 1176, Note_on_c, 5, 78, 96
1, 1176, Note_on_c, 6, 50, 96
1, 1194, Note_off_c, 2, 70, 0
1, 1197, Note_off_c, 3, 50, 0
1, 1197, Note_off_c, 4, 38, 0
1, 1197, Note_off_c, 6, 50, 0
1, 1200, Note_off_c, 0, 78, 0
1, 1200, Note_on_c, 0, 79, 96
1, 1200, Note_off_c, 1, 78, 0
1, 1200, Note_on_c, 1, 79, 96
1, 1200, Note_on_c, 3, 49, 96
1, 1200, Note_on_c, 4, 37, 96
1, 1200, Note_off_c, 5, 78, 0
1, 1200, Note_on_c, 5, 79, 96
1, 1200, Note_on_c, 6, 49, 96
1, 1221, Note_off_c, 0, 79, 0
1, 1221, Note_off_c, 1, 79, 0
1, 1221, Note_off_c, 3, 49, 0
1, 1221, Note_off_c, 4, 37, 0
1, 1221, Note_off_c, 5, 79, 0
1, 1221, Note_off_c, 6, 49, 0
1, 1224, Note_on_c, 0, 82, 96
1, 1224, Note_on_c, 1, 82, 96
1, 1224, Note_on_c, 2, 67, 96
1, 1224, Note_on_c, 3, 50, 96
1, 1224, Note_on_c, 4, 38, 96
1, 1224, Note_on_c, 5, 82, 96
1, 1224, Note_on_c, 6, 50, 96
1, 1234, Note_off_c, 0, 82, 0
1, 1234, Note_off_c, 1, 82, 0
1, 1234, Note_off_c, 5, 82, 0
1, 1236, Note_on_c, 0, 81, 96
1, 1236, Note_on_c, 1, 81, 96
1, 1236, Note_off_c, 2, 67, 0
1, 1236, Note_on_c, 2, 65, 96
1, 1236, Note_on_c, 5, 81, 96
1, 1245, Note_off_c, 3, 50, 0
1, 1245, Note_off_c, 4, 38, 0
1, 1245, Note_off_c, 6, 50, 0
1, 1246, Note_off_c, 0, 81, 0
1, 1246, Note_off_c, 1, 81, 0
1, 1246, Note_off_c, 5, 81, 0
1, 1248, Note_on_c, 0, 82, 96
1, 1248, Note_on_c, 1, 82, 96
1, 1248, Note_off_c, 2, 65, 0
1, 1248, Note_on_c, 2, 67, 96
1, 1248, Note_on_c, 3, 52, 96
1, 1248, Note_on_c, 4, 40, 96
1, 1248, Note_on_c, 5, 82, 96
1, 1248, Note_on_c, 6, 52, 96
1, 1269, Note_off_c, 0, 82, 0
1, 1269, Note_off_c, 1, 82, 0
1, 1269, Note_off_c, 2, 67, 0
1, 1269, Note_off_c, 3, 52, 0
1, 1269, Note_off_c, 4, 40, 0
1, 1269, Note_off_c, 5, 82, 0
1, 1269, Note_off_c, 6, 52, 0
1, 1272, Note_on_c, 0, 79, 96
1, 1272, Note_on_c, 1, 79, 96
1, 1272, Note_on_c, 2, 70, 96
1, 1272, Note_on_c, 3, 53, 96
1, 1272, Note_on_c, 4, 41, 96
1, 1272, Note_on_c, 5, 79, 96
1, 1272, Note_on_c, 6, 53, 96
1, 1284, Note_off_c, 2, 70, 0
1, 1284, Note_on_c, 2, 69, 96
1, 1293, Note_off_c, 0, 79, 0
1, 1293, Note_off_c, 1, 79, 0
1, 1293, Note_off_c, 3, 53, 0
1, 1293, Note_off_c, 4, 41, 0
1, 1293, Note_off_c, 5, 79, 0
1, 1293, Note_off_c, 6, 53, 0
1, 1296, Note_on_c, 0, 75, 96
1, 1296, Note_on_c, 1, 75, 96
1, 1296, Note_off_c, 2, 69, 0
1, 1296, Note_on_c, 2, 70, 96
1, 1296, Note_on_c, 3, 55, 96
1, 1296, Note_on_c, 4, 43, 96
1, 1296, Note_on_c, 5, 75, 96
1, 1296, Note_on_c, 6, 55, 96
1, 1317, Note_off_c, 2, 70, 0
1, 1317, Note_off_c, 3, 55, 0
1, 1317, Note_off_c, 4, 43, 0
1, 1317, Note_off_c, 6, 55, 0
1, 1320, Note_off_c, 0, 75, 0
1, 1320, Note_on_c, 0, 74, 96
1, 1320, Note_off_c, 1, 75, 0
1, 1320, Note_on_c, 1, 74, 96
1, 1320, Note_on_c, 2, 69, 96
1, 1320, Note_on_c, 3, 53, 96
1, 1320, Note_on_c, 4, 41, 96
1, 1320, Note_off_c, 5, 75, 0
1, 1320, Note_on_c, 5, 74, 96
1, 1320, Note_on_c, 6, 53, 96
1, 1341, Note_off_c, 2, 69, 0
1, 1341, Note_off_c, 3, 53, 0
1, 1341, Note_off_c, 4, 41, 0
1, 1341, Note_off_c, 6, 53, 0
1, 1344, Note_off_c, 0, 74, 0
1, 1344, Note_on_c, 0, 75, 96
1, 1344, Note_off_c, 1, 74, 0
1, 1344, Note_on_c, 1, 75, 96
1, 1344, Note_on_c, 2, 70, 96
1, 1344, Note_on_c, 3, 55, 96
1, 1344, Note_on_c, 4, 43, 96
1, 1344, Note_off_c, 5, 74, 0
1, 1344, Note_on_c, 5, 75, 96
1, 1344, Note_on_c, 6, 55, 96
1, 1365, Note_off_c, 0, 75, 0
1, 1365, Note_off_c, 1, 75, 0
1, 1365, Note_off_c, 2, 70, 0
1, 1365, Note_off_c, 3, 55, 0
1, 1365, Note_off_c, 4, 43, 0
1, 1365, Note_off_c, 5, 75, 0
1, 1365, Note_off_c, 6, 55, 0
1, 1368, Note_on_c, 0, 79, 96
1, 1368, Note_on_c, 1, 79, 96
1, 1368, Note_on_c, 2, 72, 96
1, 1368, Note_on_c, 3, 57, 96
1, 1368, Note_on_c, 4, 45, 96
1, 1368, Note_on_c, 5, 79, 96
1, 1368, Note_on_c, 6, 57, 96
1, 1378, Note_off_c, 0, 79, 0
1, 1378, Note_off_c, 1, 79, 0
1, 1378, Note_off_c, 5, 79, 0
1, 1380, Note_on_c, 0, 78, 96
1, 1380, Note_on_c, 1, 78, 96
1, 1380, Note_on_c, 5, 78, 96
1, 1389, Note_off_c, 2, 72, 0
1, 1389, Note_off_c, 3, 57, 0
1, 1389, Note_off_c, 4, 45, 0
1, 1389, Note_off_c, 6, 57, 0
1, 1390, Note_off_c, 0, 78, 0
1, 1390, Note_off_c, 1, 78, 0
1, 1390, Note_off_c, 5, 78, 0
1, 1392, Note_on_c, 0, 79, 96
1, 1392, Note_on_c, 1, 79, 96
1, 1392, Note_on_c, 2, 74, 96
1, 1392, Note_on_c, 3, 58, 96
1, 1392, Note_on_c, 4, 46, 96
1, 1392, Note_on_c, 5, 79, 96
1, 1392, Note_on_c, 6, 58, 96
1, 1413, Note_off_c, 0, 79, 0
1, 1413, Note_off_c, 1, 79, 0
1, 1413, Note_off_c, 2, 74, 0
1, 1413, Note_off_c, 3, 58, 0
1, 1413, Note_off_c, 4, 46, 0
1, 1413, Note_off_c, 5, 79, 0
1, 1413, Note_off_c, 6, 58, 0
1, 1416, Note_on_c, 0, 75, 96
1, 1416, Note_on_c, 1, 75, 96
1, 1416, Note_on_c, 2, 70, 96
1, 1416, Note_on_c, 3, 55, 96
1, 1416, Note_on_c, 4, 43, 96
1, 1416, Note_on_c, 5, 75, 96
1, 1416, Note_on_c, 6, 55, 96
1, 1437, Note_off_c, 0, 75, 0
1, 1437, Note_off_c, 1, 75, 0
1, 1437, Note_off_c, 2, 70, 0
1, 1437, Note_off_c, 3, 55, 0
1, 1437, Note_off_c, 4, 43, 0
1, 1437, Note_off_c, 5, 75, 0
1, 1437, Note_off_c, 6, 55, 0
1, 1440, Note_on_c, 0, 73, 96
1, 1440, Note_on_c, 1, 73, 96
1, 1440, Note_on_c, 2, 64, 96
1, 1440, Note_on_c, 3, 57, 96
1, 1440, Note_on_c, 4, 45, 96
1, 1440, Note_on_c, 5, 73, 96
1, 1440, Note_on_c, 6, 57, 96
1, 1461, Note_off_c, 0, 73, 0
1, 1461, Note_off_c, 1, 73, 0
1, 1461, Note_off_c, 2, 64, 0
1, 1461, Note_off_c, 5, 73, 0
1, 1464, Note_on_c, 0, 82, 96
1, 1464, Note_on_c, 1, 82, 96
1, 1464, Note_on_c, 2, 73, 96
1, 1464, Note_on_c, 5, 82, 96
1, 1476, Note_off_c, 0, 82, 0
1, 1476, Note_on_c, 0, 81, 96
1, 1476, Note_off_c, 1, 82, 0
1, 1476, Note_on_c, 1, 81, 96
1, 1476, Note_off_c, 5, 82, 0
1, 1476, Note_on_c, 5, 81, 96
1, 1482, Note_off_c, 3, 57, 0
1, 1482, Note_off_c, 4, 45, 0
1, 1482, Note_off_c, 6, 57, 0
1, 1485, Note_off_c, 2, 73, 0
1, 1488, Note_off_c, 0, 81, 0
1, 1488, Note_on_c, 0, 82, 96
1, 1488, Note_off_c, 1, 81, 0
1, 1488, Note_on_c, 1, 82, 96
1, 1488, Note_on_c, 2, 73, 96
1, 1488, Note_off_c, 5, 81, 0
1, 1488, Note_on_c, 5, 82, 96
1, 1509, Note_off_c, 0, 82, 0
1, 1509, Note_off_c, 1, 82, 0
1, 1509, Note_off_c, 2, 73, 0
1, 1509, Note_off_c, 5, 82, 0
1, 1512, Note_on_c, 0, 79, 96
1, 1512, Note_on_c, 1, 79, 96
1, 1512, Note_on_c, 2, 73, 96
1, 1512, Note_on_c, 5, 79, 96
1, 1524, Note_off_c, 0, 79, 0
1, 1524, Note_on_c, 0, 78, 96
1, 1524, Note_off_c, 1, 79, 0
1, 1524, Note_on_c, 1, 78, 96
1, 1524, Note_off_c, 5, 79, 0
1, 1524, Note_on_c, 5, 78, 96
1, 1533, Note_off_c, 2, 73, 0
1, 1536, Note_off_c, 0, 78, 0
1, 1536, Note_on_c, 0, 79, 96
1, 1536, Note_off_c, 1, 78, 0
1, 1536, Note_on_c, 1, 79, 96
1, 1536, Note_on_c, 2, 73, 96
1, 1536, Note_off_c, 5, 78, 0
1, 1536, Note_on_c, 5, 79, 96
1, 1557, Note_off_c, 0, 79, 0
1, 1557, Note_off_c, 1, 79, 0
1, 1557, Note_off_c, 2, 73, 0
1, 1557, Note_off_c, 5, 79, 0
1, 1560, Note_on_c, 0, 73, 96
1, 1560, Note_on_c, 1, 73, 96
1, 1560, Note_on_c, 2, 64, 96
1, 1560, Note_on_c, 3, 55, 96
1, 1560, Note_on_c, 4, 43, 96
1, 1560, Note_on_c, 5, 73, 96
1, 1560, Note_on_c, 6, 55, 96
1, 1581, Note_off_c, 0, 73, 0
1, 1581, Note_off_c, 1, 73, 0
1, 1581, Note_off_c, 2, 64, 0
1, 1581, Note_off_c, 3, 55, 0
1, 1581, Note_off_c, 4, 43, 0
1, 1581, Note_off_c, 5, 73, 0
1, 1581, Note_off_c, 6, 55, 0
1, 1584, Note_on_c, 0, 74, 96
1, 1584, Note_on_c, 1, 74, 96
1, 1584, Note_on_c, 2, 69, 96
1, 1584, Note_on_c, 3, 53, 96
1, 1584, Note_on_c, 4, 41, 96
1, 1584, Note_on_c, 5, 74, 96
1, 1584, Note_on_c, 6, 53, 96
1, 1605, Note_off_c, 0, 74, 0
1, 1605, Note_off_c, 1, 74, 0
1, 1605, Note_off_c, 2, 69, 0
1, 1605, Note_off_c, 3, 53, 0
1, 1605, Note_off_c, 4, 41, 0
1, 1605, Note_off_c, 5, 74, 0
1, 1605, Note_off_c, 6, 53, 0
1, 1608, Note_on_c, 0, 65, 96
1, 1608, Note_on_c, 1, 65, 96
1, 1608, Note_on_c, 2, 65, 96
1, 1608, Note_on_c, 3, 52, 96
1, 1608, Note_on_c, 4, 40, 96
1, 1608, Note_on_c, 5, 65, 96
1, 1608, Note_on_c, 6, 52, 96
1, 1618, Note_off_c, 3, 52, 0
1, 1618, Note_off_c, 4, 40, 0
1, 1618, Note_off_c, 6, 52, 0
1, 1620, Note_on_c, 3, 50, 96
1, 1620, Note_on_c, 4, 38, 96
1, 1620, Note_on_c, 6, 50, 96
1, 1629, Note_off_c, 0, 65, 0
1, 1629, Note_off_c, 1, 65, 0
1, 1629, Note_off_c, 2, 65, 0
1, 1629, Note_off_c, 5, 65, 0
1, 1630, Note_off_c, 3, 50, 0
1, 1630, Note_off_c, 4, 38, 0
1, 1630, Note_off_c, 6, 50, 0
1, 1632, Note_on_c, 0, 67, 96
1, 1632, Note_on_c, 1, 67, 96
1, 1632, Note_on_c, 2, 62, 96
1, 1632, Note_on_c, 3, 58, 96
1, 1632, Note_on_c, 4, 46, 96
1, 1632, Note_on_c, 5, 67, 96
1, 1632, Note_on_c, 6, 58, 96
1, 1653, Note_off_c, 0, 67, 0
1, 1653, Note_off_c, 1, 67, 0
1, 1653, Note_off_c, 2, 62, 0
1, 1653, Note_off_c, 3, 58, 0
1, 1653, Note_off_c, 4, 46, 0
1, 1653, Note_off_c, 5, 67, 0
1, 1653, Note_off_c, 6, 58, 0
1, 1656, Note_on_c, 0, 74, 96
1, 1656, Note_on_c, 1, 74, 96
1, 1656, Note_on_c, 2, 67, 96
1, 1656, Note_on_c, 3, 57, 96
1, 1656, Note_on_c, 4, 45, 96
1, 1656, Note_on_c, 5, 74, 96
1, 1656, Note_on_c, 6, 57, 96
1, 1666, Note_off_c, 3, 57, 0
1, 1666, Note_off_c, 4, 45, 0
1, 1666, Note_off_c, 6, 57, 0
1, 1668, Note_on_c, 3, 55, 96
1, 1668, Note_on_c, 4, 43, 96
1, 1668, Note_on_c, 6, 55, 96
1, 1677, Note_off_c, 0, 74, 0
1, 1677, Note_off_c, 1, 74, 0
1, 1677, Note_off_c, 2, 67, 0
1, 1677, Note_off_c, 5, 74, 0
1, 1678, Note_off_c, 3, 55, 0
1, 1678, Note_off_c, 4, 43, 0
1, 1678, Note_off_c, 6, 55, 0
1, 1680, Note_on_c, 0, 69, 96
1, 1680, Note_on_c, 1, 69, 96
1, 1680, Note_on_c, 2, 64, 96
1, 1680, Note_on_c, 3, 57, 96
1, 1680, Note_on_c, 4, 45, 96
1, 1680, Note_on_c, 5, 69, 96
1, 1680, Note_on_c, 6, 57, 96
1, 1701, Note_off_c, 0, 69, 0
1, 1701, Note_off_c, 1, 69, 0
1, 1701, Note_off_c, 2, 64, 0
1, 1701, Note_off_c, 3, 57, 0
1, 1701, Note_off_c, 4, 45, 0
1, 1701, Note_off_c, 5, 69, 0
1, 1701, Note_off_c, 6, 57, 0
1, 1704, Note_on_c, 0, 73, 96
1, 1704, Note_on_c, 1, 73, 96
1, 1704, Note_on_c, 2, 69, 96
1, 1704, Note_on_c, 3, 45, 96
1, 1704, Note_on_c, 4, 33, 96
1, 1704, Note_on_c, 5, 73, 96
1, 1704, Note_on_c, 6, 45, 96
1, 1725, Note_off_c, 0, 73, 0
1, 1725, Note_off_c, 1, 73, 0
1, 1725, Note_off_c, 2, 69, 0
1, 1725, Note_off_c, 3, 45, 0
1, 1725, Note_off_c, 4, 33, 0
1, 1725, Note_off_c, 5, 73, 0
1, 1725, Note_off_c, 6, 45, 0
1, 1728, Note_on_c, 0, 74, 96
1, 1728, Note_on_c, 1, 74, 96
1, 1728, Note_on_c, 2, 65, 96
1, 1728, Note_on_c, 3, 50, 96
1, 1728, Note_on_c, 4, 38, 96
1, 1728, Note_on_c, 5, 74, 96
1, 1728, Note_on_c, 6, 50, 96
1, 1749, Note_off_c, 0, 74, 0
1, 1749, Note_off_c, 1, 74, 0
1, 1749, Note_off_c, 2, 65, 0
1, 1749, Note_off_c, 5, 74, 0
1, 1749, Note_off_c, 6, 50, 0
1, 1752, Note_on_c, 5, 86, 96
1, 1752, Note_on_c, 5, 81, 96
1, 1752, Note_on_c, 6, 77, 96
1, 1762, Note_off_c, 5, 86, 0
1, 1762, Note_off_c, 6, 77, 0
1, 1764, Note_on_c, 5, 85, 96
1, 1764, Note_on_c, 6, 76, 96
1, 1770, Note_off_c, 3, 50, 0
1, 1770, Note_off_c, 4, 38, 0
1, 1773, Note_off_c, 5, 81, 0
1, 1774, Note_off_c, 5, 85, 0
1, 1774, Note_off_c, 6, 76, 0
1, 1776, Note_on_c, 5, 86, 96
1, 1776, Note_on_c, 5, 81, 96
1, 1776, Note_on_c, 6, 77, 96
1, 1797, Note_off_c, 5, 86, 0
1, 1797, Note_off_c, 5, 81, 0
1, 1797, Note_off_c, 6, 77, 0
1, 1800, Note_on_c, 5, 81, 96
1, 1800, Note_on_c, 5, 77, 96
1, 1800, Note_on_c, 6, 74, 96
1, 1810, Note_off_c, 5, 81, 0
1, 1810, Note_off_c, 5, 77, 0
1, 1812, Note_on_c, 5, 79, 96
1, 1812, Note_on_c, 5, 76, 96
1, 1821, Note_off_c, 6, 74, 0
1, 1822, Note_off_c, 5, 79, 0
1, 1822, Note_off_c, 5, 76, 0
1, 1824, Note_on_c, 5, 81, 96
1, 1824, Note_on_c, 5, 77, 96
1, 1824, Note_on_c, 6, 74, 96
1, 1845, Note_off_c, 5, 81, 0
1, 1845, Note_off_c, 5, 77, 0
1, 1845, Note_off_c, 6, 74, 0
1, 1848, Note_on_c, 5, 77, 96
1, 1848, Note_on_c, 5, 74, 96
1, 1848, Note_on_c, 6, 69, 96
1, 1858, Note_off_c, 5, 77, 0
1, 1858, Note_off_c, 5, 74, 0
1, 1858, Note_off_c, 6, 69, 0
1, 1860, Note_on_c, 5, 76, 96
1, 1860, Note_on_c, 5, 73, 96
1, 1860, Note_on_c, 6, 67, 96
1, 1870, Note_off_c, 5, 76, 0
1, 1870, Note_off_c, 5, 73, 0
1, 1870, Note_off_c, 6, 67, 0
1, 1872, Note_on_c, 5, 77, 96
1, 1872, Note_on_c, 5, 74, 96
1, 1872, Note_on_c, 6, 69, 96
1, 1893, Note_off_c, 5, 77, 0
1, 1893, Note_off_c, 5, 74, 0
1, 1893, Note_off_c, 6, 69, 0
1, 1896, Note_on_c, 0, 62, 96
1, 1896, Note_on_c, 1, 62, 96
1, 1896, Note_on_c, 2, 65, 96
1, 1896, Note_on_c, 3, 50, 96
1, 1896, Note_on_c, 4, 38, 96
1, 1896, Note_on_c, 5, 74, 96
1, 1896, Note_on_c, 6, 50, 96
1, 1906, Note_off_c, 2, 65, 0
1, 1906, Note_off_c, 3, 50, 0
1, 1906, Note_off_c, 4, 38, 0
1, 1906, Note_off_c, 5, 74, 0
1, 1906, Note_off_c, 6, 50, 0
1, 1908, Note_on_c, 2, 67, 96
1, 1908, Note_on_c, 3, 52, 96
1, 1908, Note_on_c, 4, 40, 96
1, 1908, Note_on_c, 5, 73, 96
1, 1908, Note_on_c, 6, 52, 96
1, 1917, Note_off_c, 0, 62, 0
1, 1917, Note_off_c, 1, 62, 0
1, 1918, Note_off_c, 2, 67, 0
1, 1918, Note_off_c, 3, 52, 0
1, 1918, Note_off_c, 4, 40, 0
1, 1918, Note_off_c, 5, 73, 0
1, 1918, Note_off_c, 6, 52, 0
1, 1920, Note_on_c, 0, 74, 96
1, 1920, Note_on_c, 1, 74, 96
1, 1920, Note_on_c, 2, 69, 96
1, 1920, Note_on_c, 3, 53, 96
1, 1920, Note_on_c, 4, 41, 96
1, 1920, Note_on_c, 5, 74, 96
1, 1920, Note_on_c, 6, 53, 96
1, 1941, Note_off_c, 0, 74, 0
1, 1941, Note_off_c, 1, 74, 0
1, 1941, Note_off_c, 2, 69, 0
1, 1941, Note_off_c, 3, 53, 0
1, 1941, Note_off_c, 4, 41, 0
1, 1941, Note_off_c, 5, 74, 0
1, 1941, Note_off_c, 6, 53, 0
1, 1944, Note_on_c, 0, 74, 96
1, 1944, Note_on_c, 1, 74, 96
1, 1944, Note_on_c, 2, 67, 96
1, 1944, Note_on_c, 3, 52, 96
1, 1944, Note_on_c, 4, 40, 96
1, 1944, Note_on_c, 6, 52, 96
1, 1954, Note_off_c, 2, 67, 0
1, 1954, Note_off_c, 3, 52, 0
1, 1954, Note_off_c, 4, 40, 0
1, 1954, Note_off_c, 6, 52, 0
1, 1956, Note_on_c, 2, 69, 96
1, 1956, Note_on_c, 3, 53, 96
1, 1956, Note_on_c, 4, 41, 96
1, 1956, Note_on_c, 6, 53, 96
1, 1965, Note_off_c, 0, 74, 0
1, 1965, Note_off_c, 1, 74, 0
1, 1966, Note_off_c, 2, 69, 0
1, 1966, Note_off_c, 3, 53, 0
1, 1966, Note_off_c, 4, 41, 0
1, 1966, Note_off_c, 6, 53, 0
1, 1968, Note_on_c, 0, 74, 96
1, 1968, Note_on_c, 1, 74, 96
1, 1968, Note_on_c, 2, 70, 96
1, 1968, Note_on_c, 3, 55, 96
1, 1968, Note_on_c, 4, 43, 96
1, 1968, Note_on_c, 6, 55, 96
1, 1989, Note_off_c, 0, 74, 0
1, 1989, Note_off_c, 1, 74, 0
1, 1989, Note_off_c, 2, 70, 0
1, 1989, Note_off_c, 3, 55, 0
1, 1989, Note_off_c, 4, 43, 0
1, 1989, Note_off_c, 6, 55, 0
1, 1992, Note_on_c, 0, 74, 96
1, 1992, Note_on_c, 1, 74, 96
1, 1992, Note_on_c, 2, 69, 96
1, 1992, Note_on_c, 3, 53, 96
1, 1992, Note_on_c, 4, 41, 96
1, 1992, Note_on_c, 6, 53, 96
1, 2002, Note_off_c, 2, 69, 0
1, 2002, Note_off_c, 3, 53, 0
1, 2002, Note_off_c, 4, 41, 0
1, 2002, Note_off_c, 6, 53, 0
1, 2004, Note_on_c, 2, 70, 96
1, 2004, Note_on_c, 3, 55, 96
1, 2004, Note_on_c, 4, 43, 96
1, 2004, Note_on_c, 6, 55, 96
1, 2013, Note_off_c, 0, 74, 0
1, 2013, Note_off_c, 1, 74, 0
1, 2014, Note_off_c, 2, 70, 0
1, 2014, Note_off_c, 3, 55, 0
1, 2014, Note_off_c, 4, 43, 0
1, 2014, Note_off_c, 6, 55, 0
1, 2016, Note_on_c, 0, 74, 96
1, 2016, Note_on_c, 1, 74, 96
1, 2016, Note_on_c, 2, 64, 96
1, 2016, Note_on_c, 3, 57, 96
1, 2016, Note_on_c, 4, 45, 96
1, 2016, Note_on_c, 6, 57, 96
1, 2037, Note_off_c, 0, 74, 0
1, 2037, Note_off_c, 1, 74, 0
1, 2037, Note_off_c, 6, 57, 0
1, 2040, Note_on_c, 0, 72, 96
1, 2040, Note_on_c, 1, 72, 96
1, 2040, Note_on_c, 5, 81, 96
1, 2040, Note_on_c, 5, 76, 96
1, 2040, Note_on_c, 6, 72, 96
1, 2050, Note_off_c, 0, 72, 0
1, 2050, Note_off_c, 1, 72, 0
1, 2050, Note_off_c, 5, 81, 0
1, 2050, Note_off_c, 6, 72, 0
1, 2052, Note_on_c, 0, 71, 96
1, 2052, Note_on_c, 1, 71, 96
1, 2052, Note_on_c, 5, 80, 96
1, 2052, Note_on_c, 6, 71, 96
1, 2058, Note_off_c, 2, 64, 0
1, 2058, Note_off_c, 3, 57, 0
1, 2058, Note_off_c, 4, 45, 0
1, 2061, Note_off_c, 5, 76, 0
1, 2062, Note_off_c, 0, 71, 0
1, 2062, Note_off_c, 1, 71, 0
1, 2062, Note_off_c, 5, 80, 0
1, 2062, Note_off_c, 6, 71, 0
1, 2064, Note_on_c, 0, 72, 96
1, 2064, Note_on_c, 1, 72, 96
1, 2064, Note_on_c, 5, 81, 96
1, 2064, Note_on_c, 5, 76, 96
1, 2064, Note_on_c, 6, 72, 96
1, 2085, Note_off_c, 0, 72, 0
1, 2085, Note_off_c, 1, 72, 0
1, 2085, Note_off_c, 5, 81, 0
1, 2085, Note_off_c, 5, 76, 0
1, 2085, Note_off_c, 6, 72, 0
1, 2088, Note_on_c, 5, 76, 96
1, 2088, Note_on_c, 5, 72, 96
1, 2088, Note_on_c, 6, 69, 96
1, 2098, Note_off_c, 5, 76, 0
1, 2098, Note_off_c, 5, 72, 0
1, 2100, Note_on_c, 5, 74, 96
1, 2100, Note_on_c, 5, 71, 96
1, 2109, Note_off_c, 6, 69, 0
1, 2110, Note_off_c, 5, 74, 0
1, 2110, Note_off_c, 5, 71, 0
1, 2112, Note_on_c, 5, 76, 96
1, 2112, Note_on_c, 5, 72, 96
1, 2112, Note_on_c, 6, 69, 96
1, 2133, Note_off_c, 5, 76, 0
1, 2133, Note_off_c, 5, 72, 0
1, 2133, Note_off_c, 6, 69, 0
1, 2136, Note_on_c, 5, 72, 96
1, 2136, Note_on_c, 5, 69, 96
1, 2136, Note_on_c, 6, 64, 96
1, 2146, Note_off_c, 5, 72, 0
1, 2146, Note_off_c, 5, 69, 0
1, 2146, Note_off_c, 6, 64, 0
1, 2148, Note_on_c, 5, 71, 96
1, 2148, Note_on_c, 5, 68, 96
1, 2148, Note_on_c, 6, 62, 96
1, 2158, Note_off_c, 5, 71, 0
1, 2158, Note_off_c, 5, 68, 0
1, 2158, Note_off_c, 6, 62, 0
1, 2160, Note_on_c, 5, 72, 96
1, 2160, Note_on_c, 5, 69, 96
1, 2160, Note_on_c, 6, 64, 96
1, 2181, Note_off_c, 5, 72, 0
1, 2181, Note_off_c, 5, 69, 0
1, 2181, Note_off_c, 6, 64, 0
1, 2184, Note_on_c, 0, 69, 96
1, 2184, Note_on_c, 1, 69, 96
1, 2184, Note_on_c, 2, 60, 96
1, 2184, Note_on_c, 3, 57, 96
1, 2184, Note_on_c, 4, 45, 96
1, 2184, Note_on_c, 5, 69, 96
1, 2184, Note_on_c, 6, 57, 96
1, 2194, Note_off_c, 2, 60, 0
1, 2194, Note_off_c, 3, 57, 0
1, 2194, Note_off_c, 4, 45, 0
1, 2194, Note_off_c, 5, 69, 0
1, 2194, Note_off_c, 6, 57, 0
1, 2196, Note_on_c, 2, 62, 96
1, 2196, Note_on_c, 3, 59, 96
1, 2196, Note_on_c, 4, 47, 96
1, 2196, Note_on_c, 5, 68, 96
1, 2196, Note_on_c, 6, 59, 96
1, 2205, Note_off_c, 0, 69, 0
1, 2205, Note_off_c, 1, 69, 0
1, 2206, Note_off_c, 2, 62, 0
1, 2206, Note_off_c, 3, 59, 0
1, 2206, Note_off_c, 4, 47, 0
1, 2206, Note_off_c, 5, 68, 0
1, 2206, Note_off_c, 6, 59, 0
1, 2208, Note_on_c, 0, 81, 96
1, 2208, Note_on_c, 1, 81, 96
1, 2208, Note_on_c, 2, 64, 96
1, 2208, Note_on_c, 3, 60, 96
1, 2208, Note_on_c, 4, 48, 96
1, 2208, Note_on_c, 5, 69, 96
1, 2208, Note_on_c, 6, 60, 96
1, 2229, Note_off_c, 0, 81, 0
1, 2229, Note_off_c, 1, 81, 0
1, 2229, Note_off_c, 2, 64, 0
1, 2229, Note_off_c, 3, 60, 0
1, 2229, Note_off_c, 4, 48, 0
1, 2229, Note_off_c, 5, 69, 0
1, 2229, Note_off_c, 6, 60, 0
1, 2232, Note_on_c, 0, 81, 96
1, 2232, Note_on_c, 1, 81, 96
1, 2232, Note_on_c, 2, 62, 96
1, 2232, Note_on_c, 3, 59, 96
1, 2232, Note_on_c, 4, 47, 96
1, 2232, Note_on_c, 6, 59, 96
1, 2242, Note_off_c, 2, 62, 0
1, 2242, Note_off_c, 3, 59, 0
1, 2242, Note_off_c, 4, 47, 0
1, 2242, Note_off_c, 6, 59, 0
1, 2244, Note_on_c, 2, 64, 96
1, 2244, Note_on_c, 3, 60, 96
1, 2244, Note_on_c, 4, 48, 96
1, 2244, Note_on_c, 6, 60, 96
1, 2253, Note_off_c, 0, 81, 0
1, 2253, Note_off_c, 1, 81, 0
1, 2254, Note_off_c, 2, 64, 0
1, 2254, Note_off_c, 3, 60, 0
1, 2254, Note_off_c, 4, 48, 0
1, 2254, Note_off_c, 6, 60, 0
1, 2256, Note_on_c, 0, 81, 96
1, 2256, Note_on_c, 1, 81, 96
1, 2256, Note_on_c, 2, 65, 96
1, 2256, Note_on_c, 3, 62, 96
1, 2256, Note_on_c, 4, 50, 96
1, 2256, Note_on_c, 6, 62, 96
1, 2277, Note_off_c, 0, 81, 0
1, 2277, Note_off_c, 1, 81, 0
1, 2277, Note_off_c, 2, 65, 0
1, 2277, Note_off_c, 3, 62, 0
1, 2277, Note_off_c, 4, 50, 0
1, 2277, Note_off_c, 6, 62, 0
1, 2280, Note_on_c, 0, 81, 96
1, 2280, Note_on_c, 1, 81, 96
1, 2280, Note_on_c, 2, 64, 96
1, 2280, Note_on_c, 3, 60, 96
1, 2280, Note_on_c, 4, 48, 96
1, 2280, Note_on_c, 6, 60, 96
1, 2290, Note_off_c, 2, 64, 0
1, 2290, Note_off_c, 3, 60, 0
1, 2290, Note_off_c, 4, 48, 0
1, 2290, Note_off_c, 6, 60, 0
1, 2292, Note_on_c, 2, 65, 96
1, 2292, Note_on_c, 3, 62, 96
1, 2292, Note_on_c, 4, 50, 96
1, 2292, Note_on_c, 6, 62, 96
1, 2301, Note_off_c, 0, 81, 0
1, 2301, Note_off_c, 1, 81, 0
1, 2302, Note_off_c, 2, 65, 0
1, 2302, Note_off_c, 3, 62, 0
1, 2302, Note_off_c, 4, 50, 0
1, 2302, Note_off_c, 6, 62, 0
1, 2304, Note_on_c, 0, 81, 96
1, 2304, Note_on_c, 1, 81, 96
1, 2304, Note_on_c, 2, 59, 96
1, 2304, Note_on_c, 3, 64, 96
1, 2304, Note_on_c, 4, 52, 96
1, 2304, Note_on_c, 6, 64, 96
1, 2325, Note_off_c, 0, 81, 0
1, 2325, Note_off_c, 1, 81, 0
1, 2325, Note_off_c, 2, 59, 0
1, 2325, Note_off_c, 3, 64, 0
1, 2325, Note_off_c, 4, 52, 0
1, 2325, Note_off_c, 6, 64, 0
1, 2328, Note_on_c, 0, 79, 96
1, 2328, Note_on_c, 1, 79, 96
1, 2328, Note_on_c, 2, 61, 96
1, 2328, Note_on_c, 3, 52, 96
1, 2328, Note_on_c, 4, 40, 96
1, 2328, Note_on_c, 6, 52, 96
1, 2338, Note_off_c, 0, 79, 0
1, 2338, Note_off_c, 1, 79, 0
1, 2338, Note_off_c, 2, 61, 0
1, 2340, Note_on_c, 0, 77, 96
1, 2340, Note_on_c, 1, 77, 96
1, 2340, Note_on_c, 2, 62, 96
1, 2349, Note_off_c, 3, 52, 0
1, 2349, Note_off_c, 4, 40, 0
1, 2349, Note_off_c, 6, 52, 0
1, 2350, Note_off_c, 0, 77, 0
1, 2350, Note_off_c, 1, 77, 0
1, 2350, Note_off_c, 2, 62, 0
1, 2352, Note_on_c, 0, 79, 96
1, 2352, Note_on_c, 1, 79, 96
1, 2352, Note_on_c, 2, 64, 96
1, 2352, Note_on_c, 3, 64, 96
1, 2352, Note_on_c, 4, 52, 96
1, 2352, Note_on_c, 6, 64, 96
1, 2362, Note_off_c, 2, 64, 0
1, 2364, Note_on_c, 2, 62, 96
1, 2373, Note_off_c, 0, 79, 0
1, 2373, Note_off_c, 1, 79, 0
1, 2373, Note_off_c, 3, 64, 0
1, 2373, Note_off_c, 4, 52, 0
1, 2373, Note_off_c, 6, 64, 0
1, 2374, Note_off_c, 2, 62, 0
1, 2376, Note_on_c, 0, 76, 96
1, 2376, Note_on_c, 1, 76, 96
1, 2376, Note_on_c, 2, 61, 96
1, 2376, Note_on_c, 3, 62, 96
1, 2376, Note_on_c, 4, 50, 96
1, 2376, Note_on_c, 6, 62, 96
1, 2386, Note_off_c, 0, 76, 0
1, 2386, Note_off_c, 1, 76, 0
1, 2386, Note_off_c, 2, 61, 0
1, 2388, Note_on_c, 0, 77, 96
1, 2388, Note_on_c, 1, 77, 96
1, 2388, Note_on_c, 2, 62, 96
1, 2397, Note_off_c, 3, 62, 0
1, 2397, Note_off_c, 4, 50, 0
1, 2397, Note_off_c, 6, 62, 0
1, 2398, Note_off_c, 0, 77, 0
1, 2398, Note_off_c, 1, 77, 0
1, 2398, Note_off_c, 2, 62, 0
1, 2400, Note_on_c, 0, 79, 96
1, 2400, Note_on_c, 1, 79, 96
1, 2400, Note_on_c, 2, 64, 96
1, 2400, Note_on_c, 3, 61, 96
1, 2400, Note_on_c, 4, 49, 96
1, 2400, Note_on_c, 6, 61, 96
1, 2410, Note_off_c, 2, 64, 0
1, 2412, Note_on_c, 2, 62, 96
1, 2421, Note_off_c, 0, 79, 0
1, 2421, Note_off_c, 1, 79, 0
1, 2421, Note_off_c, 3, 61, 0
1, 2421, Note_off_c, 4, 49, 0
1, 2421, Note_off_c, 6, 61, 0
1, 2422, Note_off_c, 2, 62, 0
1, 2424, Note_on_c, 0, 79, 96
1, 2424, Note_on_c, 1, 79, 96
1, 2424, Note_on_c, 2, 61, 96
1, 2424, Note_on_c, 3, 57, 96
1, 2424, Note_on_c, 4, 45, 96
1, 2424, Note_on_c, 6, 57, 96
1, 2434, Note_off_c, 2, 61, 0
1, 2436, Note_on_c, 2, 59, 96
1, 2445, Note_off_c, 0, 79, 0
1, 2445, Note_off_c, 1, 79, 0
1, 2445, Note_off_c, 3, 57, 0
1, 2445, Note_off_c, 4, 45, 0
1, 2445, Note_off_c, 6, 57, 0
1, 2446, Note_off_c, 2, 59, 0
1, 2448, Note_on_c, 0, 79, 96
1, 2448, Note_on_c, 1, 79, 96
1, 2448, Note_on_c, 2, 57, 96
1, 2448, Note_on_c, 3, 62, 96
1, 2448, Note_on_c, 4, 50, 96
1, 2448, Note_on_c, 6, 62, 96
1, 2469, Note_off_c, 0, 79, 0
1, 2469, Note_off_c, 1, 79, 0
1, 2469, Note_off_c, 3, 62, 0
1, 2469, Note_off_c, 4, 50, 0
1, 2469, Note_off_c, 6, 62, 0
1, 2472, Note_on_c, 0, 77, 96
1, 2472, Note_on_c, 1, 77, 96
1, 2472, Note_on_c, 5, 74, 96
1, 2472, Note_on_c, 6, 69, 96
1, 2472, Note_on_c, 6, 65, 96
1, 2482, Note_off_c, 0, 77, 0
1, 2482, Note_off_c, 1, 77, 0
1, 2482, Note_off_c, 5, 74, 0
1, 2482, Note_off_c, 6, 65, 0
1, 2484, Note_on_c, 0, 76, 96
1, 2484, Note_on_c, 1, 76, 96
1, 2484, Note_on_c, 5, 73, 96
1, 2484, Note_on_c, 6, 64, 96
1, 2490, Note_off_c, 2, 57, 0
1, 2493, Note_off_c, 6, 69, 0
1, 2494, Note_off_c, 0, 76, 0
1, 2494, Note_off_c, 1, 76, 0
1, 2494, Note_off_c, 5, 73, 0
1, 2494, Note_off_c, 6, 64, 0
1, 2496, Note_on_c, 0, 77, 96
1, 2496, Note_on_c, 1, 77, 96
1, 2496, Note_on_c, 5, 74, 96
1, 2496, Note_on_c, 6, 69, 96
1, 2496, Note_on_c, 6, 65, 96
1, 2517, Note_off_c, 0, 77, 0
1, 2517, Note_off_c, 1, 77, 0
1, 2517, Note_off_c, 5, 74, 0
1, 2517, Note_off_c, 6, 69, 0
1, 2517, Note_off_c, 6, 65, 0
1, 2520, Note_on_c, 5, 69, 96
1, 2520, Note_on_c, 6, 65, 96
1, 2520, Note_on_c, 6, 62, 96
1, 2530, Note_off_c, 5, 69, 0
1, 2530, Note_off_c, 6, 65, 0
1, 2532, Note_on_c, 5, 67, 96
1, 2532, Note_on_c, 6, 64, 96
1, 2541, Note_off_c, 6, 62, 0
1, 2542, Note_off_c, 5, 67, 0
1, 2542, Note_off_c, 6, 64, 0
1, 2544, Note_on_c, 5, 69, 96
1, 2544, Note_on_c, 6, 65, 96
1, 2544, Note_on_c, 6, 62, 96
1, 2565, Note_off_c, 5, 69, 0
1, 2565, Note_off_c, 6, 65, 0
1, 2565, Note_off_c, 6, 62, 0
1, 2568, Note_on_c, 5, 65, 96
1, 2568, Note_on_c, 6, 62, 96
1, 2568, Note_on_c, 6, 57, 96
1, 2578, Note_off_c, 5, 65, 0
1, 2578, Note_off_c, 6, 62, 0
1, 2578, Note_off_c, 6, 57, 0
1, 2580, Note_on_c, 5, 64, 96
1, 2580, Note_on_c, 6, 61, 96
1, 2580, Note_on_c, 6, 55, 96
1, 2590, Note_off_c, 5, 64, 0
1, 2590, Note_off_c, 6, 61, 0
1, 2590, Note_off_c, 6, 55, 0
1, 2592, Note_on_c, 5, 65, 96
1, 2592, Note_on_c, 6, 62, 96
1, 2592, Note_on_c, 6, 57, 96
1, 2613, Note_off_c, 5, 65, 0
1, 2613, Note_off_c, 6, 62, 0
1, 2613, Note_off_c, 6, 57, 0
1, 2616, Note_on_c, 5, 62, 96
1, 2616, Note_on_c, 6, 57, 96
1, 2616, Note_on_c, 6, 53, 96
1, 2626, Note_off_c, 5, 62, 0
1, 2626, Note_off_c, 6, 57, 0
1, 2626, Note_off_c, 6, 53, 0
1, 2628, Note_on_c, 5, 61, 96
1, 2628, Note_on_c, 6, 55, 96
1, 2628, Note_on_c, 6, 52, 96
1, 2638, Note_off_c, 5, 61, 0
1, 2638, Note_off_c, 6, 55, 0
1, 2638, Note_off_c, 6, 52, 0
1, 2640, Note_on_c, 5, 62, 96
1, 2640, Note_on_c, 6, 57, 96
1, 2640, Note_on_c, 6, 53, 96
1, 2661, Note_off_c, 5, 62, 0
1, 2661, Note_off_c, 6, 57, 0
1, 2661, Note_off_c, 6, 53, 0
1, 2664, Note_on_c, 3, 62, 80
1, 2664, Note_on_c, 4, 50, 80
1, 2664, Note_on_c, 5, 65, 96
1, 2664, Note_on_c, 6, 57, 96
1, 2664, Note_on_c, 6, 50, 96
1, 2674, Note_off_c, 5, 65, 0
1, 2676, Note_on_c, 5, 64, 96
1, 2685, Note_off_c, 3, 62, 0
1, 2685, Note_off_c, 4, 50, 0
1, 2685, Note_off_c, 6, 57, 0
1, 2685, Note_off_c, 6, 50, 0
1, 2686, Note_off_c, 5, 64, 0
1, 2688, Note_on_c, 3, 58, 80
1, 2688, Note_on_c, 4, 46, 80
1, 2688, Note_on_c, 5, 65, 96
1, 2688, Note_on_c, 6, 50, 96
1, 2688, Note_on_c, 6, 46, 96
1, 2709, Note_off_c, 3, 58, 0
1, 2709, Note_off_c, 4, 46, 0
1, 2709, Note_off_c, 5, 65, 0
1, 2709, Note_off_c, 6, 50, 0
1, 2709, Note_off_c, 6, 46, 0
1, 2712, Note_on_c, 3, 55, 80
1, 2712, Note_on_c, 4, 43, 80
1, 2712, Note_on_c, 5, 70, 96
1, 2712, Note_on_c, 6, 55, 96
1, 2712, Note_on_c, 6, 43, 96
1, 2722, Note_off_c, 5, 70, 0
1, 2724, Note_on_c, 5, 69, 96
1, 2733, Note_off_c, 3, 55, 0
1, 2733, Note_off_c, 4, 43, 0
1, 2733, Note_off_c, 6, 55, 0
1, 2733, Note_off_c, 6, 43, 0
1, 2734, Note_off_c, 5, 69, 0
1, 2736, Note_on_c, 3, 60, 80
1, 2736, Note_on_c, 4, 48, 80
1, 2736, Note_on_c, 5, 70, 96
1, 2736, Note_on_c, 6, 52, 96
1, 2736, Note_on_c, 6, 48, 96
1, 2757, Note_off_c, 5, 70, 0
1, 2757, Note_off_c, 6, 52, 0
1, 2757, Note_off_c, 6, 48, 0
1, 2760, Note_on_c, 5, 60, 96
1, 2760, Note_on_c, 6, 55, 96
1, 2760, Note_on_c, 6, 52, 96
1, 2770, Note_off_c, 5, 60, 0
1, 2770, Note_off_c, 6, 52, 0
1, 2772, Note_on_c, 5, 58, 96
1, 2772, Note_on_c, 6, 50, 96
1, 2778, Note_off_c, 3, 60, 0
1, 2778, Note_off_c, 4, 48, 0
1, 2781, Note_off_c, 6, 55, 0
1, 2782, Note_off_c, 5, 58, 0
1, 2782, Note_off_c, 6, 50, 0
1, 2784, Note_on_c, 5, 60, 96
1, 2784, Note_on_c, 6, 55, 96
1, 2784, Note_on_c, 6, 52, 96
1, 2805, Note_off_c, 5, 60, 0
1, 2805, Note_off_c, 6, 55, 0
1, 2805, Note_off_c, 6, 52, 0
1, 2808, Note_on_c, 3, 60, 80
1, 2808, Note_on_c, 4, 48, 80
1, 2808, Note_on_c, 5, 64, 96
1, 2808, Note_on_c, 6, 55, 96
1, 2808, Note_on_c, 6, 48, 96
1, 2818, Note_off_c, 5, 64, 0
1, 2820, Note_on_c, 5, 62, 96
1, 2829, Note_off_c, 3, 60, 0
1, 2829, Note_off_c, 4, 48, 0
1, 2829, Note_off_c, 6, 55, 0
1, 2829, Note_off_c, 6, 48, 0
1, 2830, Note_off_c, 5, 62, 0
1, 2832, Note_on_c, 3, 57, 80
1, 2832, Note_on_c, 4, 45, 80
1, 2832, Note_on_c, 5, 64, 96
1, 2832, Note_on_c, 6, 48, 96
1, 2832, Note_on_c, 6, 45, 96
1, 2853, Note_off_c, 3, 57, 0
1, 2853, Note_off_c, 4, 45, 0
1, 2853, Note_off_c, 5, 64, 0
1, 2853, Note_off_c, 6, 48, 0
1, 2853, Note_off_c, 6, 45, 0
1, 2856, Note_on_c, 3, 53, 80
1, 2856, Note_on_c, 4, 41, 80
1, 2856, Note_on_c, 5, 69, 96
1, 2856, Note_on_c, 6, 53, 96
1, 2856, Note_on_c, 6, 41, 96
1, 2866, Note_off_c, 5, 69, 0
1, 2868, Note_on_c, 5, 67, 96
1, 2877, Note_off_c, 3, 53, 0
1, 2877, Note_off_c, 4, 41, 0
1, 2877, Note_off_c, 6, 53, 0
1, 2877, Note_off_c, 6, 41, 0
1, 2878, Note_off_c, 5, 67, 0
1, 2880, Note_on_c, 3, 58, 80
1, 2880, Note_on_c, 4, 46, 80
1, 2880, Note_on_c, 5, 69, 96
1, 2880, Note_on_c, 6, 53, 96
1, 2880, Note_on_c, 6, 46, 96
1, 2901, Note_off_c, 5, 69, 0
1, 2901, Note_off_c, 6, 53, 0
1, 2901, Note_off_c, 6, 46, 0
1, 2904, Note_on_c, 5, 58, 96
1, 2904, Note_on_c, 6, 53, 96
1, 2904, Note_on_c, 6, 50, 96
1, 2914, Note_off_c, 5, 58, 0
1, 2914, Note_off_c, 6, 50, 0
1, 2916, Note_on_c, 5, 57, 96
1, 2916, Note_on_c, 6, 49, 96
1, 2922, Note_off_c, 3, 58, 0
1, 2922, Note_off_c, 4, 46, 0
1, 2925, Note_off_c, 6, 53, 0
1, 2926, Note_off_c, 5, 57, 0
1, 2926, Note_off_c, 6, 49, 0
1, 2928, Note_on_c, 5, 58, 96
1, 2928, Note_on_c, 6, 53, 96
1, 2928, Note_on_c, 6, 50, 96
1, 2949, Note_off_c, 5, 58, 0
1, 2949, Note_off_c, 6, 53, 0
1, 2949, Note_off_c, 6, 50, 0
1, 2952, Note_on_c, 3, 58, 80
1, 2952, Note_on_c, 4, 46, 80
1, 2952, Note_on_c, 5, 62, 96
1, 2952, Note_on_c, 6, 53, 96
1, 2952, Note_on_c, 6, 46, 96
1, 2962, Note_off_c, 5, 62, 0
1, 2964, Note_on_c, 5, 61, 96
1, 2973, Note_off_c, 3, 58, 0
1, 2973, Note_off_c, 4, 46, 0
1, 2973, Note_off_c, 6, 53, 0
1, 2973, Note_off_c, 6, 46, 0
1, 2974, Note_off_c, 5, 61, 0
1, 2976, Note_on_c, 3, 55, 80
1, 2976, Note_on_c, 4, 43, 80
1, 2976, Note_on_c, 5, 62, 96
1, 2976, Note_on_c, 6, 46, 96
1, 2976, Note_on_c, 6, 43, 96
1, 2997, Note_off_c, 3, 55, 0
1, 2997, Note_off_c, 4, 43, 0
1, 2997, Note_off_c, 5, 62, 0
1, 2997, Note_off_c, 6, 46, 0
1, 2997, Note_off_c, 6, 43, 0
1, 3000, Note_on_c, 3, 52, 80
1, 3000, Note_on_c, 4, 40, 80
1, 3000, Note_on_c, 5, 67, 96
1, 3000, Note_on_c, 6, 50, 96
1, 3000, Note_on_c, 6, 40, 96
1, 3010, Note_off_c, 5, 67, 0
1, 3012, Note_on_c, 5, 65, 96
1, 3021, Note_off_c, 3, 52, 0
1, 3021, Note_off_c, 4, 40, 0
1, 3021, Note_off_c, 6, 50, 0
1, 3021, Note_off_c, 6, 40, 0
1, 3022, Note_off_c, 5, 65, 0
1, 3024, Note_on_c, 0, 57, 80
1, 3024, Note_on_c, 2, 61, 80
1, 3024, Note_on_c, 3, 57, 80
1, 3024, Note_on_c, 4, 45, 80
1, 3024, Note_on_c, 5, 67, 96
1, 3024, Note_on_c, 6, 49, 96
1, 3024, Note_on_c, 6, 45, 96
1, 3045, Note_off_c, 0, 57, 0
1, 3045, Note_off_c, 5, 67, 0
1, 3048, Note_on_c, 0, 61, 80
1, 3048, Note_on_c, 5, 57, 96
1, 3060, Note_off_c, 0, 61, 0
1, 3060, Note_on_c, 0, 59, 80
1, 3066, Note_off_c, 2, 61, 0
1, 3066, Note_off_c, 3, 57, 0
1, 3066, Note_off_c, 4, 45, 0
1, 3066, Note_off_c, 6, 49, 0
1, 3066, Note_off_c, 6, 45, 0
1, 3069, Note_off_c, 5, 57, 0
1, 3072, Note_off_c, 0, 59, 0
1, 3072, Note_on_c, 0, 61, 80
1, 3072, Note_on_c, 1, 57, 80
1, 3072, Note_on_c, 5, 57, 96
1, 3093, Note_off_c, 0, 61, 0
1, 3093, Note_off_c, 1, 57, 0
1, 3093, Note_off_c, 5, 57, 0
1, 3096, Note_on_c, 0, 64, 80
1, 3096, Note_on_c, 1, 61, 80
1, 3096, Note_on_c, 5, 67, 96
1, 3108, Note_off_c, 0, 64, 0
1, 3108, Note_on_c, 0, 62, 80
1, 3108, Note_off_c, 1, 61, 0
1, 3108, Note_on_c, 1, 59, 80
1, 3117, Note_off_c, 5, 67, 0
1, 3120, Note_off_c, 0, 62, 0
1, 3120, Note_on_c, 0, 64, 80
1, 3120, Note_off_c, 1, 59, 0
1, 3120, Note_on_c, 1, 61, 80
1, 3120, Note_on_c, 5, 67, 96
1, 3130, Note_off_c, 5, 67, 0
1, 3132, Note_on_c, 5, 69, 96
1, 3141, Note_off_c, 0, 64, 0
1, 3141, Note_off_c, 1, 61, 0
1, 3142, Note_off_c, 5, 69, 0
1, 3144, Note_on_c, 1, 64, 80
1, 3144, Note_on_c, 5, 70, 96
1, 3154, Note_off_c, 5, 70, 0
1, 3156, Note_off_c, 1, 64, 0
1, 3156, Note_on_c, 1, 62, 80
1, 3156, Note_on_c, 5, 67, 96
1, 3166, Note_off_c, 5, 67, 0
1, 3168, Note_on_c, 0, 57, 80
1, 3168, Note_off_c, 1, 62, 0
1, 3168, Note_on_c, 1, 64, 80
1, 3168, Note_on_c, 2, 57, 80
1, 3168, Note_on_c, 3, 55, 80
1, 3168, Note_on_c, 4, 43, 80
1, 3168, Note_on_c, 5, 73, 96
1, 3168, Note_on_c, 6, 52, 96
1, 3168, Note_on_c, 6, 43, 96
1, 3189, Note_off_c, 0, 57, 0
1, 3189, Note_off_c, 1, 64, 0
1, 3189, Note_off_c, 5, 73, 0
1, 3192, Note_on_c, 0, 61, 80
1, 3192, Note_on_c, 1, 64, 80
1, 3192, Note_on_c, 5, 57, 96
1, 3204, Note_off_c, 0, 61, 0
1, 3204, Note_on_c, 0, 59, 80
1, 3204, Note_off_c, 1, 64, 0
1, 3204, Note_on_c, 1, 62, 80
1, 3210, Note_off_c, 2, 57, 0
1, 3210, Note_off_c, 3, 55, 0
1, 3210, Note_off_c, 4, 43, 0
1, 3210, Note_off_c, 6, 52, 0
1, 3210, Note_off_c, 6, 43, 0
1, 3213, Note_off_c, 5, 57, 0
1, 3216, Note_off_c, 0, 59, 0
1, 3216, Note_on_c, 0, 61, 80
1, 3216, Note_off_c, 1, 62, 0
1, 3216, Note_on_c, 1, 64, 80
1, 3216, Note_on_c, 5, 57, 96
1, 3237, Note_off_c, 0, 61, 0
1, 3237, Note_off_c, 1, 64, 0
1, 3237, Note_off_c, 5, 57, 0
1, 3240, Note_on_c, 0, 64, 80
1, 3240, Note_on_c, 1, 69, 80
1, 3240, Note_on_c, 5, 73, 96
1, 3252, Note_off_c, 0, 64, 0
1, 3252, Note_on_c, 0, 62, 80
1, 3252, Note_off_c, 1, 69, 0
1, 3252, Note_on_c, 1, 67, 80
1, 3261, Note_off_c, 5, 73, 0
1, 3264, Note_off_c, 0, 62, 0
1, 3264, Note_on_c, 0, 64, 80
1, 3264, Note_off_c, 1, 67, 0
1, 3264, Note_on_c, 1, 69, 80
1, 3264, Note_on_c, 5, 73, 96
1, 3274, Note_off_c, 5, 73, 0
1, 3276, Note_on_c, 5, 74, 96
1, 3285, Note_off_c, 0, 64, 0
1, 3285, Note_off_c, 1, 69, 0
1, 3286, Note_off_c, 5, 74, 0
1, 3288, Note_on_c, 5, 76, 96
1, 3298, Note_off_c, 5, 76, 0
1, 3300, Note_on_c, 5, 73, 96
1, 3310, Note_off_c, 5, 73, 0
1, 3312, Note_on_c, 3, 54, 80
1, 3312, Note_on_c, 4, 42, 80
1, 3312, Note_on_c, 5, 81, 96
1, 3312, Note_on_c, 6, 51, 96
1, 3312, Note_on_c, 6, 42, 96
1, 3333, Note_off_c, 5, 81, 0
1, 3336, Note_on_c, 5, 75, 96
1, 3348, Note_off_c, 5, 75, 0
1, 3348, Note_on_c, 5, 74, 96
1, 3354, Note_off_c, 3, 54, 0
1, 3354, Note_off_c, 4, 42, 0
1, 3354, Note_off_c, 6, 51, 0
1, 3354, Note_off_c, 6, 42, 0
1, 3360, Note_off_c, 5, 74, 0
1, 3360, Note_on_c, 5, 75, 96
1, 3381, Note_off_c, 5, 75, 0
1, 3384, Note_on_c, 5, 72, 96
1, 3384, Note_on_c, 6, 63, 96
1, 3394, Note_off_c, 6, 63, 0
1, 3396, Note_off_c, 5, 72, 0
1, 3396, Note_on_c, 5, 71, 96
1, 3396, Note_on_c, 6, 62, 96
1, 3406, Note_off_c, 6, 62, 0
1, 3408, Note_off_c, 5, 71, 0
1, 3408, Note_on_c, 5, 72, 96
1, 3408, Note_on_c, 6, 63, 96
1, 3429, Note_off_c, 5, 72, 0
1, 3429, Note_off_c, 6, 63, 0
1, 3432, Note_on_c, 5, 79, 96
1, 3444, Note_off_c, 5, 79, 0
1, 3444, Note_on_c, 5, 78, 96
1, 3456, Note_on_c, 3, 53, 80
1, 3456, Note_on_c, 4, 41, 80
1, 3456, Note_off_c, 5, 78, 0
1, 3456, Note_on_c, 5, 79, 96
1, 3456, Note_on_c, 6, 62, 96
1, 3456, Note_on_c, 6, 59, 96
1, 3456, Note_on_c, 6, 53, 96
1, 3477, Note_off_c, 5, 79, 0
1, 3480, Note_on_c, 5, 74, 96
1, 3490, Note_off_c, 5, 74, 0
1, 3492, Note_on_c, 5, 72, 96
1, 3498, Note_off_c, 3, 53, 0
1, 3498, Note_off_c, 4, 41, 0
1, 3498, Note_off_c, 6, 62, 0
1, 3498, Note_off_c, 6, 59, 0
1, 3498, Note_off_c, 6, 53, 0
1, 3502, Note_off_c, 5, 72, 0
1, 3504, Note_on_c, 5, 74, 96
1, 3525, Note_off_c, 5, 74, 0
1, 3528, Note_on_c, 5, 71, 96
1, 3528, Note_on_c, 6, 62, 96
1, 3538, Note_off_c, 5, 71, 0
1, 3538, Note_off_c, 6, 62, 0
1, 3540, Note_on_c, 5, 69, 96
1, 3540, Note_on_c, 6, 60, 96
1, 3550, Note_off_c, 5, 69, 0
1, 3550, Note_off_c, 6, 60, 0
1, 3552, Note_on_c, 5, 71, 96
1, 3552, Note_on_c, 6, 62, 96
1, 3573, Note_off_c, 5, 71, 0
1, 3573, Note_off_c, 6, 62, 0
1, 3576, Note_on_c, 5, 82, 96
1, 3588, Note_off_c, 5, 82, 0
1, 3588, Note_on_c, 5, 81, 96
1, 3600, Note_on_c, 3, 52, 80
1, 3600, Note_on_c, 4, 40, 80
1, 3600, Note_off_c, 5, 81, 0
1, 3600, Note_on_c, 5, 82, 96
1, 3600, Note_on_c, 6, 61, 96
1, 3600, Note_on_c, 6, 55, 96
1, 3600, Note_on_c, 6, 52, 96
1, 3621, Note_off_c, 5, 82, 0
1, 3624, Note_on_c, 5, 79, 96
1, 3636, Note_off_c, 5, 79, 0
1, 3636, Note_on_c, 5, 77, 96
1, 3642, Note_off_c, 3, 52, 0
1, 3642, Note_off_c, 4, 40, 0
1, 3642, Note_off_c, 6, 61, 0
1, 3642, Note_off_c, 6, 55, 0
1, 3642, Note_off_c, 6, 52, 0
1, 3648, Note_off_c, 5, 77, 0
1, 3648, Note_on_c, 5, 79, 96
1, 3669, Note_off_c, 5, 79, 0
1, 3672, Note_on_c, 5, 76, 96
1, 3672, Note_on_c, 6, 67, 96
1, 3682, Note_off_c, 6, 67, 0
1, 3684, Note_off_c, 5, 76, 0
1, 3684, Note_on_c, 5, 74, 96
1, 3684, Note_on_c, 6, 65, 96
1, 3694, Note_off_c, 6, 65, 0
1, 3696, Note_off_c, 5, 74, 0
1, 3696, Note_on_c, 5, 76, 96
1, 3696, Note_on_c, 6, 67, 96
1, 3717, Note_off_c, 5, 76, 0
1, 3717, Note_off_c, 6, 67, 0
1, 3720, Note_on_c, 5, 73, 96
1, 3720, Note_on_c, 6, 64, 96
1, 3730, Note_off_c, 5, 73, 0
1, 3730, Note_off_c, 6, 64, 0
1, 3732, Note_on_c, 5, 71, 96
1, 3732, Note_on_c, 6, 62, 96
1, 3742, Note_off_c, 5, 71, 0
1, 3742, Note_off_c, 6, 62, 0
1, 3744, Note_on_c, 3, 55, 80
1, 3744, Note_on_c, 4, 43, 80
1, 3744, Note_on_c, 5, 73, 96
1, 3744, Note_on_c, 6, 64, 96
1, 3744, Note_on_c, 6, 55, 96
1, 3765, Note_off_c, 5, 73, 0
1, 3765, Note_off_c, 6, 64, 0
1, 3768, Note_on_c, 5, 69, 96
1, 3768, Note_on_c, 6, 61, 96
1, 3778, Note_off_c, 6, 61, 0
1, 3780, Note_off_c, 5, 69, 0
1, 3780, Note_on_c, 5, 67, 96
1, 3780, Note_on_c, 6, 59, 96
1, 3786, Note_off_c, 3, 55, 0
1, 3786, Note_off_c, 4, 43, 0
1, 3786, Note_off_c, 6, 55, 0
1, 3790, Note_off_c, 6, 59, 0
1, 3792, Note_off_c, 5, 67, 0
1, 3792, Note_on_c, 5, 69, 96
1, 3792, Note_on_c, 6, 61, 96
1, 3813, Note_off_c, 5, 69, 0
1, 3813, Note_off_c, 6, 61, 0
1, 3816, Note_on_c, 3, 52, 80
1, 3816, Note_on_c, 4, 40, 80
1, 3816, Note_on_c, 5, 79, 96
1, 3816, Note_on_c, 6, 64, 96
1, 3837, Note_off_c, 3, 52, 0
1, 3837, Note_off_c, 4, 40, 0
1, 3837, Note_off_c, 5, 79, 0
1, 3837, Note_off_c, 6, 64, 0
1, 3840, Note_on_c, 3, 49, 80
1, 3840, Note_on_c, 4, 37, 80
1, 3840, Note_on_c, 5, 79, 96
1, 3840, Note_on_c, 6, 57, 96
1, 3850, Note_off_c, 5, 79, 0
1, 3852, Note_on_c, 5, 77, 96
1, 3861, Note_off_c, 3, 49, 0
1, 3861, Note_off_c, 4, 37, 0
1, 3861, Note_off_c, 6, 57, 0
1, 3862, Note_off_c, 5, 77, 0
1, 3864, Note_on_c, 3, 45, 80
1, 3864, Note_on_c, 4, 33, 80
1, 3864, Note_on_c, 5, 79, 96
1, 3864, Note_on_c, 6, 61, 96
1, 3874, Note_off_c, 5, 79, 0
1, 3876, Note_on_c, 5, 76, 96
1, 3885, Note_off_c, 3, 45, 0
1, 3885, Note_off_c, 4, 33, 0
1, 3885, Note_off_c, 6, 61, 0
1, 3886, Note_off_c, 5, 76, 0
1, 3888, Note_on_c, 3, 50, 80
1, 3888, Note_on_c, 4, 38, 80
1, 3888, Note_on_c, 5, 77, 96
1, 3888, Note_on_c, 6, 62, 96
1, 3898, Note_off_c, 5, 77, 0
1, 3900, Note_on_c, 5, 79, 96
1, 3909, Note_off_c, 3, 50, 0
1, 3909, Note_off_c, 4, 38, 0
1, 3909, Note_off_c, 6, 62, 0
1, 3910, Note_off_c, 5, 79, 0
1, 3912, Note_on_c, 3, 48, 80
1, 3912, Note_on_c, 4, 36, 80
1, 3912, Note_on_c, 5, 77, 96
1, 3912, Note_on_c, 6, 60, 96
1, 3922, Note_off_c, 5, 77, 0
1, 3924, Note_on_c, 5, 79, 96
1, 3933, Note_off_c, 3, 48, 0
1, 3933, Note_off_c, 4, 36, 0
1, 3933, Note_off_c, 6, 60, 0
1, 3934, Note_off_c, 5, 79, 0
1, 3936, Note_on_c, 3, 46, 80
1, 3936, Note_on_c, 4, 34, 80
1, 3936, Note_on_c, 5, 81, 96
1, 3936, Note_on_c, 6, 58, 96
1, 3942, Note_off_c, 5, 81, 0
1, 3942, Note_on_c, 5, 79, 96
1, 3948, Note_off_c, 5, 79, 0
1, 3948, Note_on_c, 5, 81, 96
1, 3954, Note_off_c, 5, 81, 0
1, 3954, Note_on_c, 5, 79, 96
1, 3957, Note_off_c, 6, 58, 0
1, 3960, Note_off_c, 5, 79, 0
1, 3960, Note_on_c, 5, 81, 96
1, 3960, Note_on_c, 6, 57, 96
1, 3966, Note_off_c, 5, 81, 0
1, 3966, Note_on_c, 5, 79, 96
1, 3972, Note_off_c, 5, 79, 0
1, 3972, Note_on_c, 5, 81, 96
1, 3978, Note_off_c, 3, 46, 0
1, 3978, Note_off_c, 4, 34, 0
1, 3978, Note_off_c, 5, 81, 0
1, 3978, Note_on_c, 5, 79, 96
1, 3981, Note_off_c, 6, 57, 0
1, 3984, Note_on_c, 3, 58, 80
1, 3984, Note_on_c, 4, 46, 80
1, 3984, Note_off_c, 5, 79, 0
1, 3984, Note_on_c, 5, 81, 96
1, 3984, Note_on_c, 6, 58, 96
1, 3990, Note_off_c, 5, 81, 0
1, 3990, Note_on_c, 5, 79, 96
1, 4008, Note_off_c, 5, 79, 0
1, 4008, Note_on_c, 5, 77, 96
1, 4020, Note_off_c, 5, 77, 0
1, 4020, Note_on_c, 5, 79, 96
1, 4026, Note_off_c, 3, 58, 0
1, 4026, Note_off_c, 4, 46, 0
1, 4026, Note_off_c, 6, 58, 0
1, 4030, Note_off_c, 5, 79, 0
1, 4032, Note_on_c, 0, 69, 96
1, 4032, Note_on_c, 1, 69, 96
1, 4032, Note_on_c, 3, 57, 80
1, 4032, Note_on_c, 4, 45, 80
1, 4032, Note_on_c, 5, 81, 96
1, 4032, Note_on_c, 6, 57, 96
1, 4053, Note_off_c, 0, 69, 0
1, 4053, Note_off_c, 1, 69, 0
1, 4053, Note_off_c, 5, 81, 0
1, 4056, Note_on_c, 0, 67, 96
1, 4056, Note_on_c, 1, 67, 96
1, 4056, Note_on_c, 5, 76, 96
1, 4066, Note_off_c, 0, 67, 0
1, 4066, Note_off_c, 1, 67, 0
1, 4066, Note_off_c, 5, 76, 0
1, 4068, Note_on_c, 0, 65, 96
1, 4068, Note_on_c, 1, 65, 96
1, 4068, Note_on_c, 5, 72, 96
1, 4074, Note_off_c, 3, 57, 0
1, 4074, Note_off_c, 4, 45, 0
1, 4078, Note_off_c, 0, 65, 0
1, 4078, Note_off_c, 1, 65, 0
1, 4078, Note_off_c, 5, 72, 0
1, 4080, Note_on_c, 0, 64, 96
1, 4080, Note_on_c, 1, 64, 96
1, 4080, Note_on_c, 5, 69, 96
1, 4095, Note_off_c, 6, 57, 0
1, 4101, Note_off_c, 0, 64, 0
1, 4101, Note_off_c, 1, 64, 0
1, 4101, Note_off_c, 5, 69, 0
1, 4104, Note_on_c, 0, 62, 96
1, 4104, Note_on_c, 1, 62, 96
1, 4104, Note_on_c, 6, 59, 96
1, 4114, Note_off_c, 6, 59, 0
1, 4116, Note_on_c, 6, 60, 96
1, 4125, Note_off_c, 0, 62, 0
1, 4125, Note_off_c, 1, 62, 0
1, 4126, Note_off_c, 6, 60, 0
1, 4128, Note_on_c, 0, 60, 96
1, 4128, Note_on_c, 1, 60, 96
1, 4128, Note_on_c, 6, 62, 96
1, 4138, Note_off_c, 6, 62, 0
1, 4140, Note_on_c, 6, 64, 96
1, 4149, Note_off_c, 0, 60, 0
1, 4149, Note_off_c, 1, 60, 0
1, 4150, Note_off_c, 6, 64, 0
1, 4152, Note_on_c, 0, 59, 96
1, 4152, Note_on_c, 1, 59, 96
1, 4152, Note_on_c, 6, 66, 96
1, 4162, Note_off_c, 6, 66, 0
1, 4164, Note_on_c, 6, 68, 96
1, 4173, Note_off_c, 0, 59, 0
1, 4173, Note_off_c, 1, 59, 0
1, 4174, Note_off_c, 6, 68, 0
1, 4176, Note_on_c, 0, 60, 96
1, 4176, Note_on_c, 1, 60, 96
1, 4176, Note_on_c, 6, 69, 96
1, 4197, Note_off_c, 0, 60, 0
1, 4197, Note_off_c, 1, 60, 0
1, 4197, Note_off_c, 6, 69, 0
1, 4200, Note_on_c, 0, 57, 96
1, 4200, Note_on_c, 1, 57, 96
1, 4200, Note_on_c, 2, 64, 96
1, 4200, Note_on_c, 3, 45, 96
1, 4200, Note_on_c, 4, 33, 96
1, 4200, Note_on_c, 5, 72, 96
1, 4200, Note_on_c, 6, 45, 96
1, 4210, Note_off_c, 2, 64, 0
1, 4210, Note_off_c, 3, 45, 0
1, 4210, Note_off_c, 4, 33, 0
1, 4210, Note_off_c, 5, 72, 0
1, 4210, Note_off_c, 6, 45, 0
1, 4212, Note_on_c, 2, 62, 96
1, 4212, Note_on_c, 3, 47, 96
1, 4212, Note_on_c, 4, 35, 96
1, 4212, Note_on_c, 5, 74, 96
1, 4212, Note_on_c, 6, 47, 96
1, 4221, Note_off_c, 0, 57, 0
1, 4221, Note_off_c, 1, 57, 0
1, 4222, Note_off_c, 2, 62, 0
1, 4222, Note_off_c, 3, 47, 0
1, 4222, Note_off_c, 4, 35, 0
1, 4222, Note_off_c, 5, 74, 0
1, 4222, Note_off_c, 6, 47, 0
1, 4224, Note_on_c, 0, 69, 96
1, 4224, Note_on_c, 1, 69, 96
1, 4224, Note_on_c, 2, 60, 96
1, 4224, Note_on_c, 3, 48, 96
1, 4224, Note_on_c, 4, 36, 96
1, 4224, Note_on_c, 5, 76, 96
1, 4224, Note_on_c, 6, 48, 96
1, 4245, Note_off_c, 0, 69, 0
1, 4245, Note_off_c, 1, 69, 0
1, 4245, Note_off_c, 2, 60, 0
1, 4245, Note_off_c, 3, 48, 0
1, 4245, Note_off_c, 4, 36, 0
1, 4245, Note_off_c, 5, 76, 0
1, 4245, Note_off_c, 6, 48, 0
1, 4248, Note_on_c, 0, 69, 96
1, 4248, Note_on_c, 1, 69, 96
1, 4248, Note_on_c, 2, 64, 96
1, 4248, Note_on_c, 3, 47, 96
1, 4248, Note_on_c, 4, 35, 96
1, 4248, Note_on_c, 5, 74, 96
1, 4248, Note_on_c, 6, 47, 96
1, 4258, Note_off_c, 3, 47, 0
1, 4258, Note_off_c, 4, 35, 0
1, 4258, Note_off_c, 5, 74, 0
1, 4258, Note_off_c, 6, 47, 0
1, 4260, Note_on_c, 3, 48, 96
1, 4260, Note_on_c, 4, 36, 96
1, 4260, Note_on_c, 5, 76, 96
1, 4260, Note_on_c, 6, 48, 96
1, 4269, Note_off_c, 0, 69, 0
1, 4269, Note_off_c, 1, 69, 0
1, 4269, Note_off_c, 2, 64, 0
1, 4270, Note_off_c, 3, 48, 0
1, 4270, Note_off_c, 4, 36, 0
1, 4270, Note_off_c, 5, 76, 0
1, 4270, Note_off_c, 6, 48, 0
1, 4272, Note_on_c, 0, 69, 96
1, 4272, Note_on_c, 1, 69, 96
1, 4272, Note_on_c, 2, 60, 96
1, 4272, Note_on_c, 3, 50, 96
1, 4272, Note_on_c, 4, 38, 96
1, 4272, Note_on_c, 5, 77, 96
1, 4272, Note_on_c, 6, 50, 96
1, 4293, Note_off_c, 0, 69, 0
1, 4293, Note_off_c, 1, 69, 0
1, 4293, Note_off_c, 2, 60, 0
1, 4293, Note_off_c, 3, 50, 0
1, 4293, Note_off_c, 4, 38, 0
1, 4293, Note_off_c, 5, 77, 0
1, 4293, Note_off_c, 6, 50, 0
1, 4296, Note_on_c, 0, 69, 96
1, 4296, Note_on_c, 1, 69, 96
1, 4296, Note_on_c, 2, 57, 96
1, 4296, Note_on_c, 3, 48, 96
1, 4296, Note_on_c, 4, 36, 96
1, 4296, Note_on_c, 5, 76, 96
1, 4296, Note_on_c, 6, 48, 96
1, 4306, Note_off_c, 3, 48, 0
1, 4306, Note_off_c, 4, 36, 0
1, 4306, Note_off_c, 5, 76, 0
1, 4306, Note_off_c, 6, 48, 0
1, 4308, Note_on_c, 3, 50, 96
1, 4308, Note_on_c, 4, 38, 96
1, 4308, Note_on_c, 5, 77, 96
1, 4308, Note_on_c, 6, 50, 96
1, 4317, Note_off_c, 0, 69, 0
1, 4317, Note_off_c, 1, 69, 0
1, 4317, Note_off_c, 2, 57, 0
1, 4318, Note_off_c, 3, 50, 0
1, 4318, Note_off_c, 4, 38, 0
1, 4318, Note_off_c, 5, 77, 0
1, 4318, Note_off_c, 6, 50, 0
1, 4320, Note_on_c, 0, 69, 96
1, 4320, Note_on_c, 1, 69, 96
1, 4320, Note_on_c, 2, 64, 96
1, 4320, Note_on_c, 3, 52, 96
1, 4320, Note_on_c, 4, 40, 96
1, 4320, Note_on_c, 5, 71, 96
1, 4320, Note_on_c, 6, 52, 96
1, 4330, Note_off_c, 0, 69, 0
1, 4330, Note_off_c, 1, 69, 0
1, 4332, Note_on_c, 0, 67, 96
1, 4332, Note_on_c, 1, 67, 96
1, 4341, Note_off_c, 2, 64, 0
1, 4341, Note_off_c, 3, 52, 0
1, 4341, Note_off_c, 4, 40, 0
1, 4341, Note_off_c, 5, 71, 0
1, 4341, Note_off_c, 6, 52, 0
1, 4342, Note_off_c, 0, 67, 0
1, 4342, Note_off_c, 1, 67, 0
1, 4344, Note_on_c, 0, 69, 96
1, 4344, Note_on_c, 1, 69, 96
1, 4344, Note_on_c, 2, 67, 96
1, 4344, Note_on_c, 3, 48, 96
1, 4344, Note_on_c, 4, 36, 96
1, 4344, Note_on_c, 6, 48, 96
1, 4354, Note_off_c, 0, 69, 0
1, 4354, Note_off_c, 1, 69, 0
1, 4354, Note_off_c, 2, 67, 0
1, 4354, Note_off_c, 3, 48, 0
1, 4354, Note_off_c, 4, 36, 0
1, 4354, Note_off_c, 6, 48, 0
1, 4356, Note_on_c, 0, 71, 96
1, 4356, Note_on_c, 1, 71, 96
1, 4356, Note_on_c, 2, 65, 96
1, 4356, Note_on_c, 3, 50, 96
1, 4356, Note_on_c, 4, 38, 96
1, 4356, Note_on_c, 6, 50, 96
1, 4366, Note_off_c, 0, 71, 0
1, 4366, Note_off_c, 1, 71, 0
1, 4366, Note_off_c, 2, 65, 0
1, 4366, Note_off_c, 3, 50, 0
1, 4366, Note_off_c, 4, 38, 0
1, 4366, Note_off_c, 6, 50, 0
1, 4368, Note_on_c, 0, 72, 96
1, 4368, Note_on_c, 1, 72, 96
1, 4368, Note_on_c, 2, 64, 96
1, 4368, Note_on_c, 3, 52, 96
1, 4368, Note_on_c, 4, 40, 96
1, 4368, Note_on_c, 5, 79, 96
1, 4368, Note_on_c, 6, 52, 96
1, 4389, Note_off_c, 0, 72, 0
1, 4389, Note_off_c, 1, 72, 0
1, 4389, Note_off_c, 2, 64, 0
1, 4389, Note_off_c, 3, 52, 0
1, 4389, Note_off_c, 4, 40, 0
1, 4389, Note_off_c, 5, 79, 0
1, 4389, Note_off_c, 6, 52, 0
1, 4392, Note_on_c, 0, 72, 96
1, 4392, Note_on_c, 1, 72, 96
1, 4392, Note_on_c, 2, 67, 96
1, 4392, Note_on_c, 3, 50, 96
1, 4392, Note_on_c, 4, 38, 96
1, 4392, Note_on_c, 5, 77, 96
1, 4392, Note_on_c, 6, 50, 96
1, 4402, Note_off_c, 3, 50, 0
1, 4402, Note_off_c, 4, 38, 0
1, 4402, Note_off_c, 5, 77, 0
1, 4402, Note_off_c, 6, 50, 0
1, 4404, Note_on_c, 3, 52, 96
1, 4404, Note_on_c, 4, 40, 96
1, 4404, Note_on_c, 5, 79, 96
1, 4404, Note_on_c, 6, 52, 96
1, 4413, Note_off_c, 0, 72, 0
1, 4413, Note_off_c, 1, 72, 0
1, 4413, Note_off_c, 2, 67, 0
1, 4414, Note_off_c, 3, 52, 0
1, 4414, Note_off_c, 4, 40, 0
1, 4414, Note_off_c, 5, 79, 0
1, 4414, Note_off_c, 6, 52, 0
1, 4416, Note_on_c, 0, 72, 96
1, 4416, Note_on_c, 1, 72, 96
1, 4416, Note_on_c, 2, 64, 96
1, 4416, Note_on_c, 3, 53, 96
1, 4416, Note_on_c, 4, 41, 96
1, 4416, Note_on_c, 5, 81, 96
1, 4416, Note_on_c, 6, 53, 96
1, 4437, Note_off_c, 0, 72, 0
1, 4437, Note_off_c, 1, 72, 0
1, 4437, Note_off_c, 2, 64, 0
1, 4437, Note_off_c, 3, 53, 0
1, 4437, Note_off_c, 4, 41, 0
1, 4437, Note_off_c, 5, 81, 0
1, 4437, Note_off_c, 6, 53, 0
1, 4440, Note_on_c, 0, 72, 96
1, 4440, Note_on_c, 1, 72, 96
1, 4440, Note_on_c, 2, 60, 96
1, 4440, Note_on_c, 3, 52, 96
1, 4440, Note_on_c, 4, 40, 96
1, 4440, Note_on_c, 5, 79, 96
1, 4440, Note_on_c, 6, 52, 96
1, 4450, Note_off_c, 3, 52, 0
1, 4450, Note_off_c, 4, 40, 0
1, 4450, Note_off_c, 5, 79, 0
1, 4450, Note_off_c, 6, 52, 0
1, 4452, Note_on_c, 3, 53, 96
1, 4452, Note_on_c, 4, 41, 96
1, 4452, Note_on_c, 5, 81, 96
1, 4452, Note_on_c, 6, 53, 96
1, 4461, Note_off_c, 0, 72, 0
1, 4461, Note_off_c, 1, 72, 0
1, 4461, Note_off_c, 2, 60, 0
1, 4462, Note_off_c, 3, 53, 0
1, 4462, Note_off_c, 4, 41, 0
1, 4462, Note_off_c, 5, 81, 0
1, 4462, Note_off_c, 6, 53, 0
1, 4464, Note_on_c, 0, 72, 96
1, 4464, Note_on_c, 1, 72, 96
1, 4464, Note_on_c, 2, 67, 96
1, 4464, Note_on_c, 3, 55, 96
1, 4464, Note_on_c, 4, 43, 96
1, 4464, Note_on_c, 5, 74, 96
1, 4464, Note_on_c, 6, 55, 96
1, 4474, Note_off_c, 0, 72, 0
1, 4474, Note_off_c, 1, 72, 0
1, 4476, Note_on_c, 0, 71, 96
1, 4476, Note_on_c, 1, 71, 96
1, 4485, Note_off_c, 2, 67, 0
1, 4485, Note_off_c, 3, 55, 0
1, 4485, Note_off_c, 4, 43, 0
1, 4485, Note_off_c, 5, 74, 0
1, 4485, Note_off_c, 6, 55, 0
1, 4486, Note_off_c, 0, 71, 0
1, 4486, Note_off_c, 1, 71, 0
1, 4488, Note_on_c, 0, 72, 96
1, 4488, Note_on_c, 1, 72, 96
1, 4488, Note_on_c, 2, 71, 96
1, 4488, Note_on_c, 3, 52, 96
1, 4488, Note_on_c, 4, 40, 96
1, 4488, Note_on_c, 6, 52, 96
1, 4498, Note_off_c, 0, 72, 0
1, 4498, Note_off_c, 1, 72, 0
1, 4498, Note_off_c, 2, 71, 0
1, 4498, Note_off_c, 3, 52, 0
1, 4498, Note_off_c, 4, 40, 0
1, 4498, Note_off_c, 6, 52, 0
1, 4500, Note_on_c, 0, 74, 96
1, 4500, Note_on_c, 1, 74, 96
1, 4500, Note_on_c, 2, 69, 96
1, 4500, Note_on_c, 3, 54, 96
1, 4500, Note_on_c, 4, 42, 96
1, 4500, Note_on_c, 6, 54, 96
1, 4510, Note_off_c, 0, 74, 0
1, 4510, Note_off_c, 1, 74, 0
1, 4510, Note_off_c, 2, 69, 0
1, 4510, Note_off_c, 3, 54, 0
1, 4510, Note_off_c, 4, 42, 0
1, 4510, Note_off_c, 6, 54, 0
1, 4512, Note_on_c, 0, 76, 96
1, 4512, Note_on_c, 1, 76, 96
1, 4512, Note_on_c, 2, 67, 96
1, 4512, Note_on_c, 3, 55, 96
1, 4512, Note_on_c, 4, 43, 96
1, 4512, Note_on_c, 5, 83, 96
1, 4512, Note_on_c, 6, 55, 96
1, 4533, Note_off_c, 0, 76, 0
1, 4533, Note_off_c, 1, 76, 0
1, 4533, Note_off_c, 2, 67, 0
1, 4533, Note_off_c, 3, 55, 0
1, 4533, Note_off_c, 4, 43, 0
1, 4533, Note_off_c, 5, 83, 0
1, 4533, Note_off_c, 6, 55, 0
1, 4536, Note_on_c, 0, 76, 96
1, 4536, Note_on_c, 1, 76, 96
1, 4536, Note_on_c, 2, 71, 96
1, 4536, Note_on_c, 3, 54, 96
1, 4536, Note_on_c, 4, 42, 96
1, 4536, Note_on_c, 5, 81, 96
1, 4536, Note_on_c, 6, 54, 96
1, 4546, Note_off_c, 3, 54, 0
1, 4546, Note_off_c, 4, 42, 0
1, 4546, Note_off_c, 5, 81, 0
1, 4546, Note_off_c, 6, 54, 0
1, 4548, Note_on_c, 3, 55, 96
1, 4548, Note_on_c, 4, 43, 96
1, 4548, Note_on_c, 5, 83, 96
1, 4548, Note_on_c, 6, 55, 96
1, 4557, Note_off_c, 0, 76, 0
1, 4557, Note_off_c, 1, 76, 0
1, 4557, Note_off_c, 2, 71, 0
1, 4558, Note_off_c, 3, 55, 0
1, 4558, Note_off_c, 4, 43, 0
1, 4558, Note_off_c, 5, 83, 0
1, 4558, Note_off_c, 6, 55, 0
1, 4560, Note_on_c, 0, 76, 96
1, 4560, Note_on_c, 1, 76, 96
1, 4560, Note_on_c, 2, 67, 96
1, 4560, Note_on_c, 3, 57, 96
1, 4560, Note_on_c, 4, 45, 96
1, 4560, Note_on_c, 5, 84, 96
1, 4560, Note_on_c, 6, 57, 96
1, 4581, Note_off_c, 0, 76, 0
1, 4581, Note_off_c, 1, 76, 0
1, 4581, Note_off_c, 2, 67, 0
1, 4581, Note_off_c, 3, 57, 0
1, 4581, Note_off_c, 4, 45, 0
1, 4581, Note_off_c, 5, 84, 0
1, 4581, Note_off_c, 6, 57, 0
1, 4584, Note_on_c, 0, 76, 96
1, 4584, Note_on_c, 1, 76, 96
1, 4584, Note_on_c, 2, 64, 96
1, 4584, Note_on_c, 3, 55, 96
1, 4584, Note_on_c, 4, 43, 96
1, 4584, Note_on_c, 5, 83, 96
1, 4584, Note_on_c, 6, 55, 96
1, 4594, Note_off_c, 3, 55, 0
1, 4594, Note_off_c, 4, 43, 0
1, 4594, Note_off_c, 5, 83, 0
1, 4594, Note_off_c, 6, 55, 0
1, 4596, Note_on_c, 3, 57, 96
1, 4596, Note_on_c, 4, 45, 96
1, 4596, Note_on_c, 5, 84, 96
1, 4596, Note_on_c, 6, 57, 96
1, 4605, Note_off_c, 0, 76, 0
1, 4605, Note_off_c, 1, 76, 0
1, 4605, Note_off_c, 2, 64, 0
1, 4606, Note_off_c, 3, 57, 0
1, 4606, Note_off_c, 4, 45, 0
1, 4606, Note_off_c, 5, 84, 0
1, 4606, Note_off_c, 6, 57, 0
1, 4608, Note_on_c, 0, 76, 96
1, 4608, Note_on_c, 1, 76, 96
1, 4608, Note_on_c, 2, 71, 96
1, 4608, Note_on_c, 3, 59, 96
1, 4608, Note_on_c, 4, 47, 96
1, 4608, Note_on_c, 5, 78, 96
1, 4608, Note_on_c, 6, 59, 96
1, 4618, Note_off_c, 6, 59, 0
1, 4620, Note_on_c, 6, 60, 96
1, 4629, Note_off_c, 0, 76, 0
1, 4629, Note_off_c, 1, 76, 0
1, 4629, Note_off_c, 3, 59, 0
1, 4629, Note_off_c, 4, 47, 0
1, 4629, Note_off_c, 5, 78, 0
1, 4630, Note_off_c, 6, 60, 0
1, 4632, Note_on_c, 0, 74, 96
1, 4632, Note_on_c, 1, 74, 96
1, 4632, Note_on_c, 3, 47, 96
1, 4632, Note_on_c, 4, 35, 96
1, 4632, Note_on_c, 5, 80, 96
1, 4632, Note_on_c, 6, 59, 96
1, 4642, Note_off_c, 0, 74, 0
1, 4642, Note_off_c, 1, 74, 0
1, 4642, Note_off_c, 5, 80, 0
1, 4642, Note_off_c, 6, 59, 0
1, 4644, Note_on_c, 0, 72, 96
1, 4644, Note_on_c, 1, 72, 96
1, 4644, Note_on_c, 5, 81, 96
1, 4644, Note_on_c, 6, 57, 96
1, 4650, Note_off_c, 2, 71, 0
1, 4653, Note_off_c, 3, 47, 0
1, 4653, Note_off_c, 4, 35, 0
1, 4654, Note_off_c, 0, 72, 0
1, 4654, Note_off_c, 1, 72, 0
1, 4654, Note_off_c, 5, 81, 0
1, 4654, Note_off_c, 6, 57, 0
1, 4656, Note_on_c, 0, 74, 96
1, 4656, Note_on_c, 1, 74, 96
1, 4656, Note_on_c, 3, 59, 96
1, 4656, Note_on_c, 4, 47, 96
1, 4656, Note_on_c, 5, 83, 96
1, 4656, Note_on_c, 6, 56, 96
1, 4666, Note_off_c, 5, 83, 0
1, 4666, Note_off_c, 6, 56, 0
1, 4668, Note_on_c, 5, 81, 96
1, 4668, Note_on_c, 6, 57, 96
1, 4677, Note_off_c, 0, 74, 0
1, 4677, Note_off_c, 1, 74, 0
1, 4677, Note_off_c, 3, 59, 0
1, 4677, Note_off_c, 4, 47, 0
1, 4678, Note_off_c, 5, 81, 0
1, 4678, Note_off_c, 6, 57, 0
1, 4680, Note_on_c, 0, 71, 96
1, 4680, Note_on_c, 1, 71, 96
1, 4680, Note_on_c, 2, 71, 96
1, 4680, Note_on_c, 3, 57, 96
1, 4680, Note_on_c, 4, 45, 96
1, 4680, Note_on_c, 5, 80, 96
1, 4680, Note_on_c, 6, 59, 96
1, 4690, Note_off_c, 0, 71, 0
1, 4690, Note_off_c, 1, 71, 0
1, 4690, Note_off_c, 5, 80, 0
1, 4690, Note_off_c, 6, 59, 0
1, 4692, Note_on_c, 0, 72, 96
1, 4692, Note_on_c, 1, 72, 96
1, 4692, Note_on_c, 5, 81, 96
1, 4692, Note_on_c, 6, 57, 96
1, 4701, Note_off_c, 2, 71, 0
1, 4701, Note_off_c, 3, 57, 0
1, 4701, Note_off_c, 4, 45, 0
1, 4702, Note_off_c, 0, 72, 0
1, 4702, Note_off_c, 1, 72, 0
1, 4702, Note_off_c, 5, 81, 0
1, 4702, Note_off_c, 6, 57, 0
1, 4704, Note_on_c, 0, 74, 96
1, 4704, Note_on_c, 1, 74, 96
1, 4704, Note_on_c, 2, 64, 96
1, 4704, Note_on_c, 3, 56, 96
1, 4704, Note_on_c, 4, 44, 96
1, 4704, Note_on_c, 5, 83, 96
1, 4704, Note_on_c, 6, 56, 96
1, 4714, Note_off_c, 5, 83, 0
1, 4716, Note_on_c, 5, 81, 96
1, 4725, Note_off_c, 0, 74, 0
1, 4725, Note_off_c, 1, 74, 0
1, 4725, Note_off_c, 2, 64, 0
1, 4725, Note_off_c, 3, 56, 0
1, 4725, Note_off_c, 4, 44, 0
1, 4725, Note_off_c, 6, 56, 0
1, 4726, Note_off_c, 5, 81, 0
1, 4728, Note_on_c, 0, 74, 96
1, 4728, Note_on_c, 1, 74, 96
1, 4728, Note_on_c, 2, 68, 96
1, 4728, Note_on_c, 3, 52, 96
1, 4728, Note_on_c, 4, 40, 96
1, 4728, Note_on_c, 5, 80, 96
1, 4728, Note_on_c, 6, 52, 96
1, 4738, Note_off_c, 5, 80, 0
1, 4740, Note_on_c, 5, 78, 96
1, 4749, Note_off_c, 0, 74, 0
1, 4749, Note_off_c, 1, 74, 0
1, 4749, Note_off_c, 2, 68, 0
1, 4749, Note_off_c, 3, 52, 0
1, 4749, Note_off_c, 4, 40, 0
1, 4749, Note_off_c, 6, 52, 0
1, 4750, Note_off_c, 5, 78, 0
1, 4752, Note_on_c, 0, 74, 96
1, 4752, Note_on_c, 1, 74, 96
1, 4752, Note_on_c, 2, 69, 96
1, 4752, Note_on_c, 3, 57, 96
1, 4752, Note_on_c, 4, 45, 96
1, 4752, Note_on_c, 5, 76, 96
1, 4752, Note_on_c, 6, 57, 96
1, 4762, Note_off_c, 5, 76, 0
1, 4764, Note_on_c, 5, 81, 96
1, 4773, Note_off_c, 0, 74, 0
1, 4773, Note_off_c, 1, 74, 0
1, 4773, Note_off_c, 3, 57, 0
1, 4773, Note_off_c, 4, 45, 0
1, 4773, Note_off_c, 6, 57, 0
1, 4774, Note_off_c, 5, 81, 0
1, 4776, Note_on_c, 0, 72, 96
1, 4776, Note_on_c, 1, 72, 96
1, 4776, Note_on_c, 3, 45, 96
1, 4776, Note_on_c, 4, 33, 96
1, 4776, Note_on_c, 5, 80, 96
1, 4776, Note_on_c, 6, 45, 96
1, 4786, Note_off_c, 0, 72, 0
1, 4786, Note_off_c, 1, 72, 0
1, 4786, Note_off_c, 5, 80, 0
1, 4788, Note_on_c, 0, 71, 96
1, 4788, Note_on_c, 1, 71, 96
1, 4788, Note_on_c, 5, 78, 96
1, 4794, Note_off_c, 2, 69, 0
1, 4797, Note_off_c, 3, 45, 0
1, 4797, Note_off_c, 4, 33, 0
1, 4797, Note_off_c, 6, 45, 0
1, 4798, Note_off_c, 0, 71, 0
1, 4798, Note_off_c, 1, 71, 0
1, 4798, Note_off_c, 5, 78, 0
1, 4800, Note_on_c, 0, 72, 96
1, 4800, Note_on_c, 1, 72, 96
1, 4800, Note_on_c, 3, 57, 96
1, 4800, Note_on_c, 4, 45, 96
1, 4800, Note_on_c, 5, 76, 96
1, 4800, Note_on_c, 6, 57, 96
1, 4810, Note_off_c, 5, 76, 0
1, 4812, Note_on_c, 5, 74, 96
1, 4821, Note_off_c, 0, 72, 0
1, 4821, Note_off_c, 1, 72, 0
1, 4821, Note_off_c, 3, 57, 0
1, 4821, Note_off_c, 4, 45, 0
1, 4821, Note_off_c, 6, 57, 0
1, 4822, Note_off_c, 5, 74, 0
1, 4824, Note_on_c, 0, 69, 96
1, 4824, Note_on_c, 1, 69, 96
1, 4824, Note_on_c, 2, 64, 96
1, 4824, Note_on_c, 3, 55, 96
1, 4824, Note_on_c, 4, 43, 96
1, 4824, Note_on_c, 5, 72, 96
1, 4824, Note_on_c, 6, 55, 96
1, 4834, Note_off_c, 0, 69, 0
1, 4834, Note_off_c, 1, 69, 0
1, 4834, Note_off_c, 5, 72, 0
1, 4836, Note_on_c, 0, 71, 96
1, 4836, Note_on_c, 1, 71, 96
1, 4836, Note_on_c, 5, 74, 96
1, 4845, Note_off_c, 2, 64, 0
1, 4845, Note_off_c, 3, 55, 0
1, 4845, Note_off_c, 4, 43, 0
1, 4845, Note_off_c, 6, 55, 0
1, 4846, Note_off_c, 0, 71, 0
1, 4846, Note_off_c, 1, 71, 0
1, 4846, Note_off_c, 5, 74, 0
1, 4848, Note_on_c, 0, 72, 96
1, 4848, Note_on_c, 1, 72, 96
1, 4848, Note_on_c, 2, 69, 96
1, 4848, Note_on_c, 3, 53, 96
1, 4848, Note_on_c, 4, 41, 96
1, 4848, Note_on_c, 5, 74, 96
1, 4848, Note_on_c, 6, 53, 96
1, 4869, Note_off_c, 0, 72, 0
1, 4869, Note_off_c, 1, 72, 0
1, 4869, Note_off_c, 2, 69, 0
1, 4869, Note_off_c, 3, 53, 0
1, 4869, Note_off_c, 4, 41, 0
1, 4869, Note_off_c, 6, 53, 0
1, 4872, Note_on_c, 0, 74, 96
1, 4872, Note_on_c, 1, 74, 96
1, 4872, Note_on_c, 2, 67, 96
1, 4872, Note_on_c, 3, 52, 96
1, 4872, Note_on_c, 4, 40, 96
1, 4872, Note_off_c, 5, 74, 0
1, 4872, Note_on_c, 5, 76, 96
1, 4872, Note_on_c, 6, 52, 96
1, 4878, Note_off_c, 5, 76, 0
1, 4878, Note_on_c, 5, 74, 96
1, 4882, Note_off_c, 0, 74, 0
1, 4882, Note_off_c, 1, 74, 0
1, 4884, Note_on_c, 0, 76, 96
1, 4884, Note_on_c, 1, 76, 96
1, 4884, Note_off_c, 5, 74, 0
1, 4884, Note_on_c, 5, 76, 96
1, 4893, Note_off_c, 2, 67, 0
1, 4893, Note_off_c, 3, 52, 0
1, 4893, Note_off_c, 4, 40, 0
1, 4893, Note_off_c, 6, 52, 0
1, 4894, Note_off_c, 0, 76, 0
1, 4894, Note_off_c, 1, 76, 0
1, 4896, Note_on_c, 0, 77, 96
1, 4896, Note_on_c, 1, 77, 96
1, 4896, Note_on_c, 2, 69, 96
1, 4896, Note_on_c, 3, 50, 96
1, 4896, Note_on_c, 4, 38, 96
1, 4896, Note_on_c, 6, 50, 96
1, 4905, Note_off_c, 5, 76, 0
1, 4908, Note_on_c, 5, 79, 96
1, 4917, Note_off_c, 0, 77, 0
1, 4917, Note_off_c, 1, 77, 0
1, 4917, Note_off_c, 3, 50, 0
1, 4917, Note_off_c, 4, 38, 0
1, 4917, Note_off_c, 6, 50, 0
1, 4918, Note_off_c, 5, 79, 0
1, 4920, Note_on_c, 0, 74, 96
1, 4920, Note_on_c, 1, 74, 96
1, 4920, Note_on_c, 3, 52, 96
1, 4920, Note_on_c, 4, 40, 96
1, 4920, Note_on_c, 5, 77, 96
1, 4920, Note_on_c, 6, 52, 96
1, 4930, Note_off_c, 0, 74, 0
1, 4930, Note_off_c, 1, 74, 0
1, 4930, Note_off_c, 3, 52, 0
1, 4930, Note_off_c, 4, 40, 0
1, 4930, Note_off_c, 5, 77, 0
1, 4930, Note_off_c, 6, 52, 0
1, 4932, Note_on_c, 0, 72, 96
1, 4932, Note_on_c, 1, 72, 96
1, 4932, Note_on_c, 3, 53, 96
1, 4932, Note_on_c, 4, 41, 96
1, 4932, Note_on_c, 5, 76, 96
1, 4932, Note_on_c, 6, 53, 96
1, 4938, Note_off_c, 2, 69, 0
1, 4942, Note_off_c, 0, 72, 0
1, 4942, Note_off_c, 1, 72, 0
1, 4942, Note_off_c, 3, 53, 0
1, 4942, Note_off_c, 4, 41, 0
1, 4942, Note_off_c, 5, 76, 0
1, 4942, Note_off_c, 6, 53, 0
1, 4944, Note_on_c, 0, 71, 96
1, 4944, Note_on_c, 1, 71, 96
1, 4944, Note_on_c, 3, 55, 96
1, 4944, Note_on_c, 4, 43, 96
1, 4944, Note_on_c, 5, 74, 96
1, 4944, Note_on_c, 6, 55, 96
1, 4954, Note_off_c, 5, 74, 0
1, 4956, Note_on_c, 5, 72, 96
1, 4965, Note_off_c, 0, 71, 0
1, 4965, Note_off_c, 1, 71, 0
1, 4965, Note_off_c, 3, 55, 0
1, 4965, Note_off_c, 4, 43, 0
1, 4965, Note_off_c, 6, 55, 0
1, 4966, Note_off_c, 5, 72, 0
1, 4968, Note_on_c, 0, 67, 96
1, 4968, Note_on_c, 1, 67, 96
1, 4968, Note_on_c, 2, 62, 96
1, 4968, Note_on_c, 3, 53, 96
1, 4968, Note_on_c, 4, 41, 96
1, 4968, Note_on_c, 5, 71, 96
1, 4968, Note_on_c, 6, 53, 96
1, 4978, Note_off_c, 0, 67, 0
1, 4978, Note_off_c, 1, 67, 0
1, 4978, Note_off_c, 5, 71, 0
1, 4980, Note_on_c, 0, 69, 96
1, 4980, Note_on_c, 1, 69, 96
1, 4980, Note_on_c, 5, 72, 96
1, 4989, Note_off_c, 2, 62, 0
1, 4989, Note_off_c, 3, 53, 0
1, 4989, Note_off_c, 4, 41, 0
1, 4989, Note_off_c, 6, 53, 0
1, 4990, Note_off_c, 0, 69, 0
1, 4990, Note_off_c, 1, 69, 0
1, 4990, Note_off_c, 5, 72, 0
1, 4992, Note_on_c, 0, 71, 96
1, 4992, Note_on_c, 1, 71, 96
1, 4992, Note_on_c, 2, 67, 96
1, 4992, Note_on_c, 3, 52, 96
1, 4992, Note_on_c, 4, 40, 96
1, 4992, Note_on_c, 5, 72, 96
1, 4992, Note_on_c, 6, 52, 96
1, 5013, Note_off_c, 0, 71, 0
1, 5013, Note_off_c, 1, 71, 0
1, 5013, Note_off_c, 2, 67, 0
1, 5013, Note_off_c, 3, 52, 0
1, 5013, Note_off_c, 4, 40, 0
1, 5013, Note_off_c, 6, 52, 0
1, 5016, Note_on_c, 0, 72, 96
1, 5016, Note_on_c, 1, 72, 96
1, 5016, Note_on_c, 2, 65, 96
1, 5016, Note_on_c, 3, 50, 96
1, 5016, Note_on_c, 4, 38, 96
1, 5016, Note_off_c, 5, 72, 0
1, 5016, Note_on_c, 5, 74, 96
1, 5016, Note_on_c, 6, 50, 96
1, 5022, Note_off_c, 5, 74, 0
1, 5022, Note_on_c, 5, 72, 96
1, 5026, Note_off_c, 0, 72, 0
1, 5026, Note_off_c, 1, 72, 0
1, 5028, Note_on_c, 0, 74, 96
1, 5028, Note_on_c, 1, 74, 96
1, 5028, Note_off_c, 5, 72, 0
1, 5028, Note_on_c, 5, 74, 96
1, 5037, Note_off_c, 2, 65, 0
1, 5037, Note_off_c, 3, 50, 0
1, 5037, Note_off_c, 4, 38, 0
1, 5037, Note_off_c, 6, 50, 0
1, 5038, Note_off_c, 0, 74, 0
1, 5038, Note_off_c, 1, 74, 0
1, 5040, Note_on_c, 0, 76, 96
1, 5040, Note_on_c, 1, 76, 96
1, 5040, Note_on_c, 2, 67, 96
1, 5040, Note_on_c, 3, 48, 96
1, 5040, Note_on_c, 4, 36, 96
1, 5040, Note_on_c, 6, 48, 96
1, 5049, Note_off_c, 5, 74, 0
1, 5052, Note_on_c, 5, 77, 96
1, 5061, Note_off_c, 0, 76, 0
1, 5061, Note_off_c, 1, 76, 0
1, 5061, Note_off_c, 3, 48, 0
1, 5061, Note_off_c, 4, 36, 0
1, 5061, Note_off_c, 6, 48, 0
1, 5062, Note_off_c, 5, 77, 0
1, 5064, Note_on_c, 0, 72, 96
1, 5064, Note_on_c, 1, 72, 96
1, 5064, Note_on_c, 3, 50, 96
1, 5064, Note_on_c, 4, 38, 96
1, 5064, Note_on_c, 5, 76, 96
1, 5064, Note_on_c, 6, 50, 96
1, 5074, Note_off_c, 0, 72, 0
1, 5074, Note_off_c, 1, 72, 0
1, 5074, Note_off_c, 3, 50, 0
1, 5074, Note_off_c, 4, 38, 0
1, 5074, Note_off_c, 5, 76, 0
1, 5074, Note_off_c, 6, 50, 0
1, 5076, Note_on_c, 0, 71, 96
1, 5076, Note_on_c, 1, 71, 96
1, 5076, Note_on_c, 3, 52, 96
1, 5076, Note_on_c, 4, 40, 96
1, 5076, Note_on_c, 5, 74, 96
1, 5076, Note_on_c, 6, 52, 96
1, 5082, Note_off_c, 2, 67, 0
1, 5086, Note_off_c, 0, 71, 0
1, 5086, Note_off_c, 1, 71, 0
1, 5086, Note_off_c, 3, 52, 0
1, 5086, Note_off_c, 4, 40, 0
1, 5086, Note_off_c, 5, 74, 0
1, 5086, Note_off_c, 6, 52, 0
1, 5088, Note_on_c, 0, 69, 96
1, 5088, Note_on_c, 1, 69, 96
1, 5088, Note_on_c, 3, 53, 96
1, 5088, Note_on_c, 4, 41, 96
1, 5088, Note_on_c, 5, 72, 96
1, 5088, Note_on_c, 6, 53, 96
1, 5098, Note_off_c, 5, 72, 0
1, 5100, Note_on_c, 5, 69, 96
1, 5109, Note_off_c, 0, 69, 0
1, 5109, Note_off_c, 1, 69, 0
1, 5109, Note_off_c, 3, 53, 0
1, 5109, Note_off_c, 4, 41, 0
1, 5109, Note_off_c, 6, 53, 0
1, 5110, Note_off_c, 5, 69, 0
1, 5112, Note_on_c, 0, 81, 96
1, 5112, Note_on_c, 1, 81, 96
1, 5112, Note_on_c, 2, 60, 96
1, 5112, Note_on_c, 3, 52, 96
1, 5112, Note_on_c, 4, 40, 96
1, 5112, Note_on_c, 5, 72, 96
1, 5112, Note_on_c, 6, 52, 96
1, 5122, Note_off_c, 0, 81, 0
1, 5122, Note_off_c, 1, 81, 0
1, 5122, Note_off_c, 5, 72, 0
1, 5124, Note_on_c, 0, 80, 96
1, 5124, Note_on_c, 1, 80, 96
1, 5124, Note_on_c, 5, 76, 96
1, 5133, Note_off_c, 2, 60, 0
1, 5133, Note_off_c, 3, 52, 0
1, 5133, Note_off_c, 4, 40, 0
1, 5133, Note_off_c, 6, 52, 0
1, 5134, Note_off_c, 0, 80, 0
1, 5134, Note_off_c, 1, 80, 0
1, 5134, Note_off_c, 5, 76, 0
1, 5136, Note_on_c, 0, 81, 96
1, 5136, Note_on_c, 1, 81, 96
1, 5136, Note_on_c, 2, 65, 96
1, 5136, Note_on_c, 3, 50, 96
1, 5136, Note_on_c, 4, 38, 96
1, 5136, Note_on_c, 5, 81, 96
1, 5136, Note_on_c, 6, 50, 96
1, 5157, Note_off_c, 0, 81, 0
1, 5157, Note_off_c, 1, 81, 0
1, 5157, Note_off_c, 2, 65, 0
1, 5157, Note_off_c, 3, 50, 0
1, 5157, Note_off_c, 4, 38, 0
1, 5157, Note_off_c, 6, 50, 0
1, 5160, Note_on_c, 0, 77, 96
1, 5160, Note_on_c, 1, 77, 96
1, 5160, Note_on_c, 2, 69, 96
1, 5160, Note_on_c, 3, 48, 96
1, 5160, Note_on_c, 4, 36, 96
1, 5160, Note_on_c, 6, 48, 96
1, 5181, Note_off_c, 0, 77, 0
1, 5181, Note_off_c, 1, 77, 0
1, 5181, Note_off_c, 2, 69, 0
1, 5181, Note_off_c, 3, 48, 0
1, 5181, Note_off_c, 4, 36, 0
1, 5181, Note_off_c, 6, 48, 0
1, 5184, Note_on_c, 0, 74, 96
1, 5184, Note_on_c, 1, 74, 96
1, 5184, Note_on_c, 2, 65, 96
1, 5184, Note_on_c, 3, 47, 96
1, 5184, Note_on_c, 4, 35, 96
1, 5184, Note_on_c, 6, 47, 96
1, 5188, Note_off_c, 5, 81, 0
1, 5196, Note_on_c, 5, 74, 96
1, 5205, Note_off_c, 3, 47, 0
1, 5205, Note_off_c, 4, 35, 0
1, 5205, Note_off_c, 6, 47, 0
1, 5206, Note_off_c, 5, 74, 0
1, 5208, Note_off_c, 0, 74, 0
1, 5208, Note_on_c, 0, 73, 96
1, 5208, Note_off_c, 1, 74, 0
1, 5208, Note_on_c, 1, 73, 96
1, 5208, Note_on_c, 3, 45, 96
1, 5208, Note_on_c, 4, 33, 96
1, 5208, Note_on_c, 5, 77, 96
1, 5208, Note_on_c, 6, 45, 96
1, 5218, Note_off_c, 5, 77, 0
1, 5220, Note_on_c, 5, 81, 96
1, 5226, Note_off_c, 2, 65, 0
1, 5229, Note_off_c, 3, 45, 0
1, 5229, Note_off_c, 4, 33, 0
1, 5229, Note_off_c, 6, 45, 0
1, 5230, Note_off_c, 5, 81, 0
1, 5232, Note_off_c, 0, 73, 0
1, 5232, Note_on_c, 0, 74, 96
1, 5232, Note_off_c, 1, 73, 0
1, 5232, Note_on_c, 1, 74, 96
1, 5232, Note_on_c, 3, 44, 96
1, 5232, Note_on_c, 4, 32, 96
1, 5232, Note_on_c, 5, 86, 96
1, 5232, Note_on_c, 6, 44, 96
1, 5253, Note_off_c, 0, 74, 0
1, 5253, Note_off_c, 1, 74, 0
1, 5253, Note_off_c, 3, 44, 0
1, 5253, Note_off_c, 4, 32, 0
1, 5253, Note_off_c, 5, 86, 0
1, 5253, Note_off_c, 6, 44, 0
1, 5256, Note_on_c, 0, 77, 96
1, 5256, Note_on_c, 1, 77, 96
1, 5256, Note_on_c, 2, 62, 96
1, 5256, Note_on_c, 3, 45, 96
1, 5256, Note_on_c, 4, 33, 96
1, 5256, Note_on_c, 5, 86, 96
1, 5256, Note_on_c, 6, 45, 96
1, 5266, Note_off_c, 0, 77, 0
1, 5266, Note_off_c, 1, 77, 0
1, 5268, Note_on_c, 0, 76, 96
1, 5268, Note_on_c, 1, 76, 96
1, 5268, Note_off_c, 2, 62, 0
1, 5268, Note_on_c, 2, 60, 96
1, 5277, Note_off_c, 3, 45, 0
1, 5277, Note_off_c, 4, 33, 0
1, 5277, Note_off_c, 5, 86, 0
1, 5277, Note_off_c, 6, 45, 0
1, 5278, Note_off_c, 0, 76, 0
1, 5278, Note_off_c, 1, 76, 0
1, 5280, Note_on_c, 0, 77, 96
1, 5280, Note_on_c, 1, 77, 96
1, 5280, Note_off_c, 2, 60, 0
1, 5280, Note_on_c, 2, 62, 96
1, 5280, Note_on_c, 3, 47, 96
1, 5280, Note_on_c, 4, 35, 96
1, 5280, Note_on_c, 5, 86, 96
1, 5280, Note_on_c, 6, 47, 96
1, 5301, Note_off_c, 0, 77, 0
1, 5301, Note_off_c, 1, 77, 0
1, 5301, Note_off_c, 2, 62, 0
1, 5301, Note_off_c, 3, 47, 0
1, 5301, Note_off_c, 4, 35, 0
1, 5301, Note_off_c, 5, 86, 0
1, 5301, Note_off_c, 6, 47, 0
1, 5304, Note_on_c, 0, 74, 96
1, 5304, Note_on_c, 1, 74, 96
1, 5304, Note_on_c, 2, 65, 96
1, 5304, Note_on_c, 3, 48, 96
1, 5304, Note_on_c, 4, 36, 96
1, 5304, Note_on_c, 5, 86, 96
1, 5304, Note_on_c, 6, 48, 96
1, 5316, Note_off_c, 2, 65, 0
1, 5316, Note_on_c, 2, 64, 96
1, 5325, Note_off_c, 0, 74, 0
1, 5325, Note_off_c, 1, 74, 0
1, 5325, Note_off_c, 3, 48, 0
1, 5325, Note_off_c, 4, 36, 0
1, 5325, Note_off_c, 5, 86, 0
1, 5325, Note_off_c, 6, 48, 0
1, 5328, Note_on_c, 0, 70, 96
1, 5328, Note_on_c, 1, 70, 96
1, 5328, Note_off_c, 2, 64, 0
1, 5328, Note_on_c, 2, 65, 96
1, 5328, Note_on_c, 3, 50, 96
1, 5328, Note_on_c, 4, 38, 96
1, 5328, Note_on_c, 5, 86, 96
1, 5328, Note_on_c, 6, 50, 96
1, 5349, Note_off_c, 2, 65, 0
1, 5349, Note_off_c, 3, 50, 0
1, 5349, Note_off_c, 4, 38, 0
1, 5349, Note_off_c, 5, 86, 0
1, 5349, Note_off_c, 6, 50, 0
1, 5352, Note_off_c, 0, 70, 0
1, 5352, Note_on_c, 0, 69, 96
1, 5352, Note_off_c, 1, 70, 0
1, 5352, Note_on_c, 1, 69, 96
1, 5352, Note_on_c, 2, 64, 96
1, 5352, Note_on_c, 3, 48, 96
1, 5352, Note_on_c, 4, 36, 96
1, 5352, Note_on_c, 5, 86, 96
1, 5352, Note_on_c, 6, 48, 96
1, 5373, Note_off_c, 2, 64, 0
1, 5373, Note_off_c, 3, 48, 0
1, 5373, Note_off_c, 4, 36, 0
1, 5373, Note_off_c, 5, 86, 0
1, 5373, Note_off_c, 6, 48, 0
1, 5376, Note_off_c, 0, 69, 0
1, 5376, Note_on_c, 0, 70, 96
1, 5376, Note_off_c, 1, 69, 0
1, 5376, Note_on_c, 1, 70, 96
1, 5376, Note_on_c, 2, 65, 96
1, 5376, Note_on_c, 3, 50, 96
1, 5376, Note_on_c, 4, 38, 96
1, 5376, Note_on_c, 5, 86, 96
1, 5376, Note_on_c, 6, 50, 96
1, 5397, Note_off_c, 0, 70, 0
1, 5397, Note_off_c, 1, 70, 0
1, 5397, Note_off_c, 2, 65, 0
1, 5397, Note_off_c, 3, 50, 0
1, 5397, Note_off_c, 4, 38, 0
1, 5397, Note_off_c, 5, 86, 0
1, 5397, Note_off_c, 6, 50, 0
1, 5400, Note_on_c, 0, 74, 96
1, 5400, Note_on_c, 1, 74, 96
1, 5400, Note_on_c, 2, 67, 96
1, 5400, Note_on_c, 3, 52, 96
1, 5400, Note_on_c, 4, 40, 96
1, 5400, Note_on_c, 5, 86, 96
1, 5400, Note_on_c, 6, 52, 96
1, 5410, Note_off_c, 0, 74, 0
1, 5410, Note_off_c, 1, 74, 0
1, 5412, Note_on_c, 0, 73, 96
1, 5412, Note_on_c, 1, 73, 96
1, 5421, Note_off_c, 2, 67, 0
1, 5421, Note_off_c, 3, 52, 0
1, 5421, Note_off_c, 4, 40, 0
1, 5421, Note_off_c, 5, 86, 0
1, 5421, Note_off_c, 6, 52, 0
1, 5422, Note_off_c, 0, 73, 0
1, 5422, Note_off_c, 1, 73, 0
1, 5424, Note_on_c, 0, 74, 96
1, 5424, Note_on_c, 1, 74, 96
1, 5424, Note_on_c, 2, 69, 96
1, 5424, Note_on_c, 3, 53, 96
1, 5424, Note_on_c, 4, 41, 96
1, 5424, Note_on_c, 5, 86, 96
1, 5424, Note_on_c, 6, 53, 96
1, 5445, Note_off_c, 0, 74, 0
1, 5445, Note_off_c, 1, 74, 0
1, 5445, Note_off_c, 2, 69, 0
1, 5445, Note_off_c, 3, 53, 0
1, 5445, Note_off_c, 4, 41, 0
1, 5445, Note_off_c, 5, 86, 0
1, 5445, Note_off_c, 6, 53, 0
1, 5448, Note_on_c, 0, 70, 96
1, 5448, Note_on_c, 1, 70, 96
1, 5448, Note_on_c, 2, 65, 96
1, 5448, Note_on_c, 3, 50, 96
1, 5448, Note_on_c, 4, 38, 96
1, 5448, Note_on_c, 5, 86, 96
1, 5448, Note_on_c, 6, 50, 96
1, 5469, Note_off_c, 0, 70, 0
1, 5469, Note_off_c, 1, 70, 0
1, 5469, Note_off_c, 2, 65, 0
1, 5469, Note_off_c, 3, 50, 0
1, 5469, Note_off_c, 4, 38, 0
1, 5469, Note_off_c, 5, 86, 0
1, 5469, Note_off_c, 6, 50, 0
1, 5472, Note_on_c, 0, 68, 96
1, 5472, Note_on_c, 1, 68, 96
1, 5472, Note_on_c, 2, 59, 96
1, 5472, Note_on_c, 3, 52, 96
1, 5472, Note_on_c, 4, 40, 96
1, 5472, Note_on_c, 5, 86, 96
1, 5472, Note_on_c, 6, 52, 96
1, 5493, Note_off_c, 0, 68, 0
1, 5493, Note_off_c, 1, 68, 0
1, 5493, Note_off_c, 2, 59, 0
1, 5493, Note_off_c, 5, 86, 0
1, 5496, Note_on_c, 0, 77, 96
1, 5496, Note_on_c, 1, 74, 96
1, 5496, Note_on_c, 2, 68, 96
1, 5496, Note_on_c, 5, 83, 96
1, 5499, Note_off_c, 5, 83, 0
1, 5500, Note_on_c, 5, 84, 96
1, 5503, Note_off_c, 5, 84, 0
1, 5504, Note_on_c, 5, 83, 96
1, 5507, Note_off_c, 5, 83, 0
1, 5508, Note_off_c, 0, 77, 0
1, 5508, Note_on_c, 0, 76, 96
1, 5508, Note_off_c, 1, 74, 0
1, 5508, Note_on_c, 1, 72, 96
1, 5508, Note_on_c, 5, 81, 96
1, 5514, Note_off_c, 3, 52, 0
1, 5514, Note_off_c, 4, 40, 0
1, 5514, Note_off_c, 6, 52, 0
1, 5517, Note_off_c, 2, 68, 0
1, 5518, Note_off_c, 5, 81, 0
1, 5520, Note_off_c, 0, 76, 0
1, 5520, Note_on_c, 0, 77, 96
1, 5520, Note_off_c, 1, 72, 0
1, 5520, Note_on_c, 1, 74, 96
1, 5520, Note_on_c, 2, 68, 96
1, 5520, Note_on_c, 5, 82, 96
1, 5520, Note_on_c, 6, 40, 96
1, 5532, Note_off_c, 5, 82, 0
1, 5532, Note_on_c, 5, 80, 96
1, 5538, Note_off_c, 5, 80, 0
1, 5538, Note_on_c, 5, 81, 96
1, 5541, Note_off_c, 0, 77, 0
1, 5541, Note_off_c, 1, 74, 0
1, 5541, Note_off_c, 2, 68, 0
1, 5544, Note_on_c, 0, 74, 96
1, 5544, Note_on_c, 1, 71, 96
1, 5544, Note_on_c, 2, 68, 96
1, 5544, Note_off_c, 5, 81, 0
1, 5544, Note_on_c, 5, 83, 96
1, 5550, Note_off_c, 5, 83, 0
1, 5550, Note_on_c, 5, 84, 96
1, 5556, Note_off_c, 0, 74, 0
1, 5556, Note_on_c, 0, 73, 96
1, 5556, Note_off_c, 1, 71, 0
1, 5556, Note_on_c, 1, 69, 96
1, 5556, Note_off_c, 5, 84, 0
1, 5556, Note_on_c, 5, 86, 96
1, 5562, Note_off_c, 6, 40, 0
1, 5565, Note_off_c, 2, 68, 0
1, 5568, Note_off_c, 0, 73, 0
1, 5568, Note_on_c, 0, 74, 96
1, 5568, Note_off_c, 1, 69, 0
1, 5568, Note_on_c, 1, 71, 96
1, 5568, Note_on_c, 2, 68, 96
1, 5568, Note_off_c, 5, 86, 0
1, 5568, Note_on_c, 5, 77, 96
1, 5580, Note_off_c, 5, 77, 0
1, 5580, Note_on_c, 5, 76, 96
1, 5586, Note_off_c, 5, 76, 0
1, 5586, Note_on_c, 5, 74, 96
1, 5589, Note_off_c, 0, 74, 0
1, 5589, Note_off_c, 1, 71, 0
1, 5589, Note_off_c, 2, 68, 0
1, 5592, Note_on_c, 0, 68, 96
1, 5592, Note_on_c, 1, 68, 96
1, 5592, Note_on_c, 2, 71, 96
1, 5592, Note_on_c, 3, 50, 96
1, 5592, Note_on_c, 4, 38, 96
1, 5592, Note_off_c, 5, 74, 0
1, 5592, Note_on_c, 5, 76, 96
1, 5592, Note_on_c, 6, 50, 96
1, 5610, Note_off_c, 5, 76, 0
1, 5610, Note_on_c, 5, 77, 96
1, 5613, Note_off_c, 0, 68, 0
1, 5613, Note_off_c, 1, 68, 0
1, 5613, Note_off_c, 2, 71, 0
1, 5613, Note_off_c, 3, 50, 0
1, 5613, Note_off_c, 4, 38, 0
1, 5613, Note_off_c, 6, 50, 0
1, 5615, Note_off_c, 5, 77, 0
1, 5616, Note_on_c, 0, 69, 96
1, 5616, Note_on_c, 1, 69, 96
1, 5616, Note_on_c, 2, 64, 96
1, 5616, Note_on_c, 3, 48, 96
1, 5616, Note_on_c, 4, 36, 96
1, 5616, Note_on_c, 5, 76, 96
1, 5616, Note_on_c, 6, 48, 96
1, 5637, Note_off_c, 0, 69, 0
1, 5637, Note_off_c, 1, 69, 0
1, 5637, Note_off_c, 2, 64, 0
1, 5637, Note_off_c, 3, 48, 0
1, 5637, Note_off_c, 4, 36, 0
1, 5637, Note_off_c, 5, 76, 0
1, 5637, Note_off_c, 6, 48, 0
1, 5640, Note_on_c, 0, 60, 96
1, 5640, Note_on_c, 1, 60, 96
1, 5640, Note_on_c, 2, 64, 96
1, 5640, Note_on_c, 3, 47, 96
1, 5640, Note_on_c, 4, 35, 96
1, 5640, Note_on_c, 5, 84, 96
1, 5640, Note_on_c, 6, 47, 96
1, 5650, Note_off_c, 3, 47, 0
1, 5650, Note_off_c, 4, 35, 0
1, 5650, Note_off_c, 6, 47, 0
1, 5652, Note_on_c, 3, 45, 96
1, 5652, Note_on_c, 4, 33, 96
1, 5652, Note_on_c, 6, 45, 96
1, 5661, Note_off_c, 0, 60, 0
1, 5661, Note_off_c, 1, 60, 0
1, 5661, Note_off_c, 2, 64, 0
1, 5661, Note_off_c, 5, 84, 0
1, 5662, Note_off_c, 3, 45, 0
1, 5662, Note_off_c, 4, 33, 0
1, 5662, Note_off_c, 6, 45, 0
1, 5664, Note_on_c, 0, 62, 96
1, 5664, Note_on_c, 1, 62, 96
1, 5664, Note_on_c, 2, 69, 96
1, 5664, Note_on_c, 3, 53, 96
1, 5664, Note_on_c, 4, 41, 96
1, 5664, Note_on_c, 5, 83, 96
1, 5664, Note_on_c, 6, 53, 96
1, 5676, Note_off_c, 5, 83, 0
1, 5676, Note_on_c, 5, 81, 96
1, 5685, Note_off_c, 0, 62, 0
1, 5685, Note_off_c, 1, 62, 0
1, 5685, Note_off_c, 2, 69, 0
1, 5685, Note_off_c, 3, 53, 0
1, 5685, Note_off_c, 4, 41, 0
1, 5685, Note_off_c, 6, 53, 0
1, 5688, Note_on_c, 0, 69, 96
1, 5688, Note_on_c, 1, 69, 96
1, 5688, Note_on_c, 2, 65, 96
1, 5688, Note_on_c, 3, 52, 96
1, 5688, Note_on_c, 4, 40, 96
1, 5688, Note_on_c, 6, 52, 96
1, 5697, Note_off_c, 5, 81, 0
1, 5698, Note_off_c, 3, 52, 0
1, 5698, Note_off_c, 4, 40, 0
1, 5698, Note_off_c, 6, 52, 0
1, 5700, Note_on_c, 3, 50, 96
1, 5700, Note_on_c, 4, 38, 96
1, 5700, Note_on_c, 5, 83, 96
1, 5700, Note_on_c, 6, 50, 96
1, 5709, Note_off_c, 0, 69, 0
1, 5709, Note_off_c, 1, 69, 0
1, 5709, Note_off_c, 2, 65, 0
1, 5710, Note_off_c, 3, 50, 0
1, 5710, Note_off_c, 4, 38, 0
1, 5710, Note_off_c, 5, 83, 0
1, 5710, Note_off_c, 6, 50, 0
1, 5712, Note_on_c, 0, 64, 96
1, 5712, Note_on_c, 1, 64, 96
1, 5712, Note_on_c, 2, 59, 96
1, 5712, Note_on_c, 3, 52, 96
1, 5712, Note_on_c, 4, 40, 96
1, 5712, Note_on_c, 5, 84, 96
1, 5712, Note_on_c, 6, 52, 96
1, 5718, Note_off_c, 5, 84, 0
1, 5718, Note_on_c, 5, 83, 96
1, 5724, Note_off_c, 5, 83, 0
1, 5724, Note_on_c, 5, 84, 96
1, 5730, Note_off_c, 5, 84, 0
1, 5730, Note_on_c, 5, 83, 96
1, 5733, Note_off_c, 0, 64, 0
1, 5733, Note_off_c, 1, 64, 0
1, 5733, Note_off_c, 2, 59, 0
1, 5733, Note_off_c, 3, 52, 0
1, 5733, Note_off_c, 4, 40, 0
1, 5733, Note_off_c, 6, 52, 0
1, 5736, Note_on_c, 0, 68, 96
1, 5736, Note_on_c, 1, 68, 96
1, 5736, Note_on_c, 2, 64, 96
1, 5736, Note_on_c, 3, 40, 96
1, 5736, Note_on_c, 4, 28, 96
1, 5736, Note_off_c, 5, 83, 0
1, 5736, Note_on_c, 5, 84, 96
1, 5736, Note_on_c, 6, 40, 96
1, 5742, Note_off_c, 5, 84, 0
1, 5742, Note_on_c, 5, 83, 96
1, 5747, Note_off_c, 5, 83, 0
1, 5748, Note_on_c, 5, 81, 96
1, 5757, Note_off_c, 0, 68, 0
1, 5757, Note_off_c, 1, 68, 0
1, 5757, Note_off_c, 2, 64, 0
1, 5757, Note_off_c, 3, 40, 0
1, 5757, Note_off_c, 4, 28, 0
1, 5757, Note_off_c, 6, 40, 0
1, 5758, Note_off_c, 5, 81, 0
1, 5760, Note_on_c, 0, 69, 96
1, 5760, Note_on_c, 1, 69, 96
1, 5760, Note_on_c, 2, 60, 96
1, 5760, Note_on_c, 3, 45, 96
1, 5760, Note_on_c, 4, 33, 96
1, 5760, Note_on_c, 5, 81, 96
1, 5760, Note_on_c, 6, 45, 96
1, 5781, Note_off_c, 5, 81, 0
1, 5781, Note_off_c, 6, 45, 0
1, 5784, Note_on_c, 5, 57, 96
1, 5784, Note_on_c, 5, 52, 96
1, 5784, Note_on_c, 6, 48, 96
1, 5794, Note_off_c, 5, 57, 0
1, 5794, Note_off_c, 6, 48, 0
1, 5796, Note_on_c, 5, 56, 96
1, 5796, Note_on_c, 6, 47, 96
1, 5802, Note_off_c, 0, 69, 0
1, 5802, Note_off_c, 1, 69, 0
1, 5802, Note_off_c, 2, 60, 0
1, 5802, Note_off_c, 3, 45, 0
1, 5802, Note_off_c, 4, 33, 0
1, 5805, Note_off_c, 5, 52, 0
1, 5806, Note_off_c, 5, 56, 0
1, 5806, Note_off_c, 6, 47, 0
1, 5808, Note_on_c, 5, 57, 96
1, 5808, Note_on_c, 5, 52, 96
1, 5808, Note_on_c, 6, 48, 96
1, 5829, Note_off_c, 5, 57, 0
1, 5829, Note_off_c, 5, 52, 0
1, 5829, Note_off_c, 6, 48, 0
1, 5832, Note_on_c, 5, 60, 96
1, 5832, Note_on_c, 5, 57, 96
1, 5832, Note_on_c, 6, 52, 96
1, 5842, Note_off_c, 5, 60, 0
1, 5842, Note_off_c, 5, 57, 0
1, 5842, Note_off_c, 6, 52, 0
1, 5844, Note_on_c, 5, 59, 96
1, 5844, Note_on_c, 5, 56, 96
1, 5844, Note_on_c, 6, 50, 96
1, 5854, Note_off_c, 5, 59, 0
1, 5854, Note_off_c, 5, 56, 0
1, 5854, Note_off_c, 6, 50, 0
1, 5856, Note_on_c, 5, 60, 96
1, 5856, Note_on_c, 5, 57, 96
1, 5856, Note_on_c, 6, 52, 96
1, 5877, Note_off_c, 5, 60, 0
1, 5877, Note_off_c, 5, 57, 0
1, 5877, Note_off_c, 6, 52, 0
1, 5880, Note_on_c, 5, 64, 96
1, 5880, Note_on_c, 5, 60, 96
1, 5880, Note_on_c, 6, 57, 96
1, 5890, Note_off_c, 5, 64, 0
1, 5890, Note_off_c, 5, 60, 0
1, 5892, Note_on_c, 5, 62, 96
1, 5892, Note_on_c, 5, 59, 96
1, 5901, Note_off_c, 6, 57, 0
1, 5902, Note_off_c, 5, 62, 0
1, 5902, Note_off_c, 5, 59, 0
1, 5904, Note_on_c, 5, 64, 96
1, 5904, Note_on_c, 5, 60, 96
1, 5904, Note_on_c, 6, 57, 96
1, 5925, Note_off_c, 5, 64, 0
1, 5925, Note_off_c, 5, 60, 0
1, 5925, Note_off_c, 6, 57, 0
1, 5928, Note_on_c, 0, 69, 96
1, 5928, Note_on_c, 1, 69, 96
1, 5928, Note_on_c, 2, 60, 96
1, 5928, Note_on_c, 3, 57, 96
1, 5928, Note_on_c, 4, 45, 96
1, 5928, Note_on_c, 5, 69, 96
1, 5928, Note_on_c, 5, 64, 96
1, 5928, Note_on_c, 6, 60, 96
1, 5938, Note_off_c, 2, 60, 0
1, 5938, Note_off_c, 3, 57, 0
1, 5938, Note_off_c, 4, 45, 0
1, 5938, Note_off_c, 5, 69, 0
1, 5938, Note_off_c, 6, 60, 0
1, 5940, Note_on_c, 2, 62, 96
1, 5940, Note_on_c, 3, 59, 96
1, 5940, Note_on_c, 4, 47, 96
1, 5940, Note_on_c, 5, 68, 96
1, 5940, Note_on_c, 6, 59, 96
1, 5949, Note_off_c, 0, 69, 0
1, 5949, Note_off_c, 1, 69, 0
1, 5949, Note_off_c, 5, 64, 0
1, 5950, Note_off_c, 2, 62, 0
1, 5950, Note_off_c, 3, 59, 0
1, 5950, Note_off_c, 4, 47, 0
1, 5950, Note_off_c, 5, 68, 0
1, 5950, Note_off_c, 6, 59, 0
1, 5952, Note_on_c, 0, 81, 96
1, 5952, Note_on_c, 1, 81, 96
1, 5952, Note_on_c, 2, 64, 96
1, 5952, Note_on_c, 3, 60, 96
1, 5952, Note_on_c, 4, 48, 96
1, 5952, Note_on_c, 5, 69, 96
1, 5952, Note_on_c, 5, 64, 96
1, 5952, Note_on_c, 6, 60, 96
1, 5973, Note_off_c, 0, 81, 0
1, 5973, Note_off_c, 1, 81, 0
1, 5973, Note_off_c, 2, 64, 0
1, 5973, Note_off_c, 3, 60, 0
1, 5973, Note_off_c, 4, 48, 0
1, 5973, Note_off_c, 5, 69, 0
1, 5973, Note_off_c, 5, 64, 0
1, 5973, Note_off_c, 6, 60, 0
1, 5976, Note_on_c, 0, 81, 96
1, 5976, Note_on_c, 1, 81, 96
1, 5976, Note_on_c, 2, 62, 96
1, 5976, Note_on_c, 3, 59, 96
1, 5976, Note_on_c, 4, 47, 96
1, 5976, Note_on_c, 6, 59, 96
1, 5986, Note_off_c, 2, 62, 0
1, 5986, Note_off_c, 3, 59, 0
1, 5986, Note_off_c, 4, 47, 0
1, 5986, Note_off_c, 6, 59, 0
1, 5988, Note_on_c, 2, 64, 96
1, 5988, Note_on_c, 3, 60, 96
1, 5988, Note_on_c, 4, 48, 96
1, 5988, Note_on_c, 6, 60, 96
1, 5997, Note_off_c, 0, 81, 0
1, 5997, Note_off_c, 1, 81, 0
1, 5998, Note_off_c, 2, 64, 0
1, 5998, Note_off_c, 3, 60, 0
1, 5998, Note_off_c, 4, 48, 0
1, 5998, Note_off_c, 6, 60, 0
1, 6000, Note_on_c, 0, 81, 96
1, 6000, Note_on_c, 1, 81, 96
1, 6000, Note_on_c, 2, 65, 96
1, 6000, Note_on_c, 3, 62, 96
1, 6000, Note_on_c, 4, 50, 96
1, 6000, Note_on_c, 6, 62, 96
1, 6021, Note_off_c, 0, 81, 0
1, 6021, Note_off_c, 1, 81, 0
1, 6021, Note_off_c, 2, 65, 0
1, 6021, Note_off_c, 3, 62, 0
1, 6021, Note_off_c, 4, 50, 0
1, 6021, Note_off_c, 6, 62, 0
1, 6024, Note_on_c, 0, 81, 96
1, 6024, Note_on_c, 1, 81, 96
1, 6024, Note_on_c, 2, 64, 96
1, 6024, Note_on_c, 3, 60, 96
1, 6024, Note_on_c, 4, 48, 96
1, 6024, Note_on_c, 6, 60, 96
1, 6034, Note_off_c, 2, 64, 0
1, 6034, Note_off_c, 3, 60, 0
1, 6034, Note_off_c, 4, 48, 0
1, 6034, Note_off_c, 6, 60, 0
1, 6036, Note_on_c, 2, 65, 96
1, 6036, Note_on_c, 3, 62, 96
1, 6036, Note_on_c, 4, 50, 96
1, 6036, Note_on_c, 6, 62, 96
1, 6045, Note_off_c, 0, 81, 0
1, 6045, Note_off_c, 1, 81, 0
1, 6046, Note_off_c, 2, 65, 0
1, 6046, Note_off_c, 3, 62, 0
1, 6046, Note_off_c, 4, 50, 0
1, 6046, Note_off_c, 6, 62, 0
1, 6048, Note_on_c, 0, 81, 96
1, 6048, Note_on_c, 1, 81, 96
1, 6048, Note_on_c, 2, 59, 96
1, 6048, Note_on_c, 3, 64, 96
1, 6048, Note_on_c, 4, 52, 96
1, 6048, Note_on_c, 6, 64, 96
1, 6069, Note_off_c, 0, 81, 0
1, 6069, Note_off_c, 1, 81, 0
1, 6069, Note_off_c, 6, 64, 0
1, 6072, Note_on_c, 0, 79, 96
1, 6072, Note_on_c, 1, 79, 96
1, 6072, Note_on_c, 5, 64, 96
1, 6072, Note_on_c, 5, 61, 96
1, 6072, Note_on_c, 6, 52, 96
1, 6082, Note_off_c, 0, 79, 0
1, 6082, Note_off_c, 1, 79, 0
1, 6082, Note_off_c, 5, 64, 0
1, 6082, Note_off_c, 5, 61, 0
1, 6084, Note_on_c, 0, 77, 96
1, 6084, Note_on_c, 1, 77, 96
1, 6084, Note_on_c, 5, 65, 96
1, 6084, Note_on_c, 5, 62, 96
1, 6090, Note_off_c, 2, 59, 0
1, 6090, Note_off_c, 3, 64, 0
1, 6090, Note_off_c, 4, 52, 0
1, 6093, Note_off_c, 6, 52, 0
1, 6094, Note_off_c, 0, 77, 0
1, 6094, Note_off_c, 1, 77, 0
1, 6094, Note_off_c, 5, 65, 0
1, 6094, Note_off_c, 5, 62, 0
1, 6096, Note_on_c, 0, 79, 96
1, 6096, Note_on_c, 1, 79, 96
1, 6096, Note_on_c, 5, 64, 96
1, 6096, Note_on_c, 5, 61, 96
1, 6117, Note_off_c, 0, 79, 0
1, 6117, Note_off_c, 1, 79, 0
1, 6117, Note_off_c, 5, 64, 0
1, 6117, Note_off_c, 5, 61, 0
1, 6120, Note_on_c, 5, 67, 96
1, 6120, Note_on_c, 5, 64, 96
1, 6120, Note_on_c, 5, 61, 96
1, 6120, Note_on_c, 6, 58, 96
1, 6130, Note_off_c, 5, 67, 0
1, 6130, Note_off_c, 6, 58, 0
1, 6132, Note_on_c, 5, 65, 96
1, 6132, Note_on_c, 6, 57, 96
1, 6141, Note_off_c, 5, 64, 0
1, 6141, Note_off_c, 5, 61, 0
1, 6142, Note_off_c, 5, 65, 0
1, 6142, Note_off_c, 6, 57, 0
1, 6144, Note_on_c, 5, 67, 96
1, 6144, Note_on_c, 5, 64, 96
1, 6144, Note_on_c, 5, 61, 96
1, 6144, Note_on_c, 6, 58, 96
1, 6165, Note_off_c, 5, 67, 0
1, 6165, Note_off_c, 6, 58, 0
1, 6168, Note_on_c, 5, 70, 96
1, 6168, Note_on_c, 6, 55, 96
1, 6178, Note_off_c, 5, 70, 0
1, 6178, Note_off_c, 6, 55, 0
1, 6180, Note_on_c, 5, 69, 96
1, 6180, Note_on_c, 6, 53, 96
1, 6186, Note_off_c, 5, 64, 0
1, 6186, Note_off_c, 5, 61, 0
1, 6190, Note_off_c, 5, 69, 0
1, 6190, Note_off_c, 6, 53, 0
1, 6192, Note_on_c, 5, 70, 96
1, 6192, Note_on_c, 5, 64, 96
1, 6192, Note_on_c, 5, 61, 96
1, 6192, Note_on_c, 6, 55, 96
1, 6213, Note_off_c, 5, 70, 0
1, 6213, Note_off_c, 5, 64, 0
1, 6213, Note_off_c, 5, 61, 0
1, 6213, Note_off_c, 6, 55, 0
1, 6216, Note_on_c, 0, 76, 96
1, 6216, Note_on_c, 1, 76, 96
1, 6216, Note_on_c, 2, 61, 96
1, 6216, Note_on_c, 3, 52, 96
1, 6216, Note_on_c, 4, 40, 96
1, 6216, Note_on_c, 5, 73, 96
1, 6216, Note_on_c, 5, 67, 96
1, 6216, Note_on_c, 6, 52, 96
1, 6226, Note_off_c, 0, 76, 0
1, 6226, Note_off_c, 1, 76, 0
1, 6226, Note_off_c, 2, 61, 0
1, 6226, Note_off_c, 5, 73, 0
1, 6228, Note_on_c, 0, 77, 96
1, 6228, Note_on_c, 1, 77, 96
1, 6228, Note_on_c, 2, 62, 96
1, 6228, Note_on_c, 5, 71, 96
1, 6237, Note_off_c, 3, 52, 0
1, 6237, Note_off_c, 4, 40, 0
1, 6237, Note_off_c, 5, 67, 0
1, 6237, Note_off_c, 6, 52, 0
1, 6238, Note_off_c, 0, 77, 0
1, 6238, Note_off_c, 1, 77, 0
1, 6238, Note_off_c, 2, 62, 0
1, 6238, Note_off_c, 5, 71, 0
1, 6240, Note_on_c, 0, 79, 96
1, 6240, Note_on_c, 1, 79, 96
1, 6240, Note_on_c, 2, 64, 96
1, 6240, Note_on_c, 3, 64, 96
1, 6240, Note_on_c, 4, 52, 96
1, 6240, Note_on_c, 5, 73, 96
1, 6240, Note_on_c, 6, 64, 96
1, 6250, Note_off_c, 2, 64, 0
1, 6252, Note_on_c, 2, 62, 96
1, 6261, Note_off_c, 0, 79, 0
1, 6261, Note_off_c, 1, 79, 0
1, 6261, Note_off_c, 3, 64, 0
1, 6261, Note_off_c, 4, 52, 0
1, 6261, Note_off_c, 5, 73, 0
1, 6261, Note_off_c, 6, 64, 0
1, 6262, Note_off_c, 2, 62, 0
1, 6264, Note_on_c, 0, 76, 96
1, 6264, Note_on_c, 1, 76, 96
1, 6264, Note_on_c, 2, 61, 96
1, 6264, Note_on_c, 3, 62, 96
1, 6264, Note_on_c, 4, 50, 96
1, 6264, Note_on_c, 6, 62, 96
1, 6274, Note_off_c, 0, 76, 0
1, 6274, Note_off_c, 1, 76, 0
1, 6274, Note_off_c, 2, 61, 0
1, 6276, Note_on_c, 0, 77, 96
1, 6276, Note_on_c, 1, 77, 96
1, 6276, Note_on_c, 2, 62, 96
1, 6285, Note_off_c, 3, 62, 0
1, 6285, Note_off_c, 4, 50, 0
1, 6285, Note_off_c, 6, 62, 0
1, 6286, Note_off_c, 0, 77, 0
1, 6286, Note_off_c, 1, 77, 0
1, 6286, Note_off_c, 2, 62, 0
1, 6288, Note_on_c, 0, 79, 96
1, 6288, Note_on_c, 1, 79, 96
1, 6288, Note_on_c, 2, 64, 96
1, 6288, Note_on_c, 3, 61, 96
1, 6288, Note_on_c, 4, 49, 96
1, 6288, Note_on_c, 6, 61, 96
1, 6298, Note_off_c, 2, 64, 0
1, 6300, Note_on_c, 2, 62, 96
1, 6309, Note_off_c, 0, 79, 0
1, 6309, Note_off_c, 1, 79, 0
1, 6309, Note_off_c, 3, 61, 0
1, 6309, Note_off_c, 4, 49, 0
1, 6309, Note_off_c, 6, 61, 0
1, 6310, Note_off_c, 2, 62, 0
1, 6312, Note_on_c, 0, 79, 96
1, 6312, Note_on_c, 1, 79, 96
1, 6312, Note_on_c, 2, 61, 96
1, 6312, Note_on_c, 3, 57, 96
1, 6312, Note_on_c, 4, 45, 96
1, 6312, Note_on_c, 6, 57, 96
1, 6322, Note_off_c, 2, 61, 0
1, 6324, Note_on_c, 2, 59, 96
1, 6333, Note_off_c, 0, 79, 0
1, 6333, Note_off_c, 1, 79, 0
1, 6333, Note_off_c, 3, 57, 0
1, 6333, Note_off_c, 4, 45, 0
1, 6333, Note_off_c, 6, 57, 0
1, 6334, Note_off_c, 2, 59, 0
1, 6336, Note_on_c, 0, 79, 96
1, 6336, Note_on_c, 1, 79, 96
1, 6336, Note_on_c, 2, 57, 96
1, 6336, Note_on_c, 3, 62, 96
1, 6336, Note_on_c, 4, 50, 96
1, 6336, Note_on_c, 6, 62, 96
1, 6357, Note_off_c, 0, 79, 0
1, 6357, Note_off_c, 1, 79, 0
1, 6357, Note_off_c, 3, 62, 0
1, 6357, Note_off_c, 4, 50, 0
1, 6357, Note_off_c, 6, 62, 0
1, 6360, Note_on_c, 0, 77, 96
1, 6360, Note_on_c, 1, 77, 96
1, 6360, Note_on_c, 3, 50, 96
1, 6360, Note_on_c, 4, 38, 96
1, 6360, Note_on_c, 5, 74, 96
1, 6360, Note_on_c, 6, 50, 96
1, 6370, Note_off_c, 0, 77, 0
1, 6370, Note_off_c, 1, 77, 0
1, 6370, Note_off_c, 5, 74, 0
1, 6372, Note_on_c, 0, 76, 96
1, 6372, Note_on_c, 1, 76, 96
1, 6372, Note_on_c, 5, 76, 96
1, 6378, Note_off_c, 2, 57, 0
1, 6381, Note_off_c, 3, 50, 0
1, 6381, Note_off_c, 4, 38, 0
1, 6381, Note_off_c, 6, 50, 0
1, 6382, Note_off_c, 0, 76, 0
1, 6382, Note_off_c, 1, 76, 0
1, 6382, Note_off_c, 5, 76, 0
1, 6384, Note_on_c, 0, 77, 96
1, 6384, Note_on_c, 1, 77, 96
1, 6384, Note_on_c, 3, 62, 96
1, 6384, Note_on_c, 4, 50, 96
1, 6384, Note_on_c, 5, 77, 96
1, 6384, Note_on_c, 5, 62, 96
1, 6405, Note_off_c, 0, 77, 0
1, 6405, Note_off_c, 1, 77, 0
1, 6405, Note_off_c, 3, 62, 0
1, 6405, Note_off_c, 4, 50, 0
1, 6405, Note_off_c, 5, 77, 0
1, 6408, Note_on_c, 0, 74, 96
1, 6408, Note_on_c, 1, 74, 96
1, 6408, Note_on_c, 2, 69, 96
1, 6408, Note_on_c, 3, 60, 96
1, 6408, Note_on_c, 4, 48, 96
1, 6408, Note_on_c, 5, 74, 96
1, 6408, Note_on_c, 6, 60, 96
1, 6418, Note_off_c, 0, 74, 0
1, 6418, Note_off_c, 1, 74, 0
1, 6418, Note_off_c, 5, 74, 0
1, 6420, Note_on_c, 0, 76, 96
1, 6420, Note_on_c, 1, 76, 96
1, 6420, Note_on_c, 5, 76, 96
1, 6429, Note_off_c, 2, 69, 0
1, 6429, Note_off_c, 3, 60, 0
1, 6429, Note_off_c, 4, 48, 0
1, 6429, Note_off_c, 6, 60, 0
1, 6430, Note_off_c, 0, 76, 0
1, 6430, Note_off_c, 1, 76, 0
1, 6430, Note_off_c, 5, 76, 0
1, 6432, Note_on_c, 0, 77, 96
1, 6432, Note_on_c, 1, 77, 96
1, 6432, Note_on_c, 2, 62, 96
1, 6432, Note_on_c, 3, 58, 96
1, 6432, Note_on_c, 4, 46, 96
1, 6432, Note_on_c, 5, 77, 96
1, 6432, Note_on_c, 6, 58, 96
1, 6447, Note_off_c, 5, 62, 0
1, 6453, Note_off_c, 0, 77, 0
1, 6453, Note_off_c, 1, 77, 0
1, 6453, Note_off_c, 2, 62, 0
1, 6453, Note_off_c, 3, 58, 0
1, 6453, Note_off_c, 4, 46, 0
1, 6453, Note_off_c, 5, 77, 0
1, 6453, Note_off_c, 6, 58, 0
1, 6456, Note_on_c, 0, 79, 96
1, 6456, Note_on_c, 1, 79, 96
1, 6456, Note_on_c, 2, 64, 96
1, 6456, Note_on_c, 3, 57, 96
1, 6456, Note_on_c, 4, 45, 96
1, 6456, Note_on_c, 5, 79, 96
1, 6456, Note_on_c, 5, 60, 96
1, 6456, Note_on_c, 6, 57, 96
1, 6466, Note_off_c, 0, 79, 0
1, 6466, Note_off_c, 1, 79, 0
1, 6466, Note_off_c, 2, 64, 0
1, 6466, Note_off_c, 5, 79, 0
1, 6468, Note_on_c, 0, 81, 96
1, 6468, Note_on_c, 1, 81, 96
1, 6468, Note_on_c, 2, 65, 96
1, 6468, Note_on_c, 5, 81, 96
1, 6477, Note_off_c, 3, 57, 0
1, 6477, Note_off_c, 4, 45, 0
1, 6477, Note_off_c, 5, 60, 0
1, 6477, Note_off_c, 6, 57, 0
1, 6478, Note_off_c, 0, 81, 0
1, 6478, Note_off_c, 1, 81, 0
1, 6478, Note_off_c, 2, 65, 0
1, 6478, Note_off_c, 5, 81, 0
1, 6480, Note_on_c, 0, 82, 96
1, 6480, Note_on_c, 1, 82, 96
1, 6480, Note_on_c, 2, 67, 96
1, 6480, Note_on_c, 3, 55, 96
1, 6480, Note_on_c, 4, 43, 96
1, 6480, Note_on_c, 5, 82, 96
1, 6480, Note_on_c, 5, 62, 96
1, 6480, Note_on_c, 6, 55, 96
1, 6501, Note_off_c, 0, 82, 0
1, 6501, Note_off_c, 1, 82, 0
1, 6501, Note_off_c, 2, 67, 0
1, 6501, Note_off_c, 3, 55, 0
1, 6501, Note_off_c, 4, 43, 0
1, 6501, Note_off_c, 5, 82, 0
1, 6501, Note_off_c, 5, 62, 0
1, 6501, Note_off_c, 6, 55, 0
1, 6504, Note_on_c, 5, 67, 96
1, 6504, Note_on_c, 6, 58, 96
1, 6514, Note_off_c, 5, 67, 0
1, 6514, Note_off_c, 6, 58, 0
1, 6516, Note_on_c, 5, 69, 96
1, 6516, Note_on_c, 6, 60, 96
1, 6526, Note_off_c, 5, 69, 0
1, 6526, Note_off_c, 6, 60, 0
1, 6528, Note_on_c, 5, 70, 96
1, 6528, Note_on_c, 6, 62, 96
1, 6538, Note_off_c, 5, 70, 0
1, 6540, Note_on_c, 5, 72, 96
1, 6549, Note_off_c, 6, 62, 0
1, 6550, Note_off_c, 5, 72, 0
1, 6552, Note_on_c, 5, 74, 96
1, 6552, Note_on_c, 6, 58, 96
1, 6562, Note_off_c, 5, 74, 0
1, 6564, Note_on_c, 5, 69, 96
1, 6573, Note_off_c, 6, 58, 0
1, 6574, Note_off_c, 5, 69, 0
1, 6576, Note_on_c, 5, 70, 96
1, 6576, Note_on_c, 6, 55, 96
1, 6586, Note_off_c, 5, 70, 0
1, 6588, Note_on_c, 5, 67, 96
1, 6597, Note_off_c, 6, 55, 0
1, 6598, Note_off_c, 5, 67, 0
1, 6600, Note_on_c, 5, 74, 96
1, 6600, Note_on_c, 6, 58, 96
1, 6610, Note_off_c, 5, 74, 0
1, 6612, Note_on_c, 5, 70, 96
1, 6621, Note_off_c, 6, 58, 0
1, 6622, Note_off_c, 5, 70, 0
1, 6624, Note_on_c, 5, 76, 96
1, 6624, Note_on_c, 6, 60, 96
1, 6645, Note_off_c, 5, 76, 0
1, 6645, Note_off_c, 6, 60, 0
1, 6648, Note_on_c, 0, 76, 96
1, 6648, Note_on_c, 1, 76, 96
1, 6648, Note_on_c, 3, 48, 96
1, 6648, Note_on_c, 4, 36, 96
1, 6648, Note_on_c, 5, 72, 96
1, 6648, Note_on_c, 6, 48, 96
1, 6658, Note_off_c, 0, 76, 0
1, 6658, Note_off_c, 1, 76, 0
1, 6658, Note_off_c, 5, 72, 0
1, 6660, Note_on_c, 0, 74, 96
1, 6660, Note_on_c, 1, 74, 96
1, 6660, Note_on_c, 5, 74, 96
1, 6669, Note_off_c, 3, 48, 0
1, 6669, Note_off_c, 4, 36, 0
1, 6669, Note_off_c, 6, 48, 0
1, 6670, Note_off_c, 0, 74, 0
1, 6670, Note_off_c, 1, 74, 0
1, 6670, Note_off_c, 5, 74, 0
1, 6672, Note_on_c, 0, 76, 96
1, 6672, Note_on_c, 1, 76, 96
1, 6672, Note_on_c, 3, 60, 96
1, 6672, Note_on_c, 4, 48, 96
1, 6672, Note_on_c, 5, 76, 96
1, 6672, Note_on_c, 5, 60, 96
1, 6693, Note_off_c, 0, 76, 0
1, 6693, Note_off_c, 1, 76, 0
1, 6693, Note_off_c, 3, 60, 0
1, 6693, Note_off_c, 4, 48, 0
1, 6693, Note_off_c, 5, 76, 0
1, 6696, Note_on_c, 0, 72, 96
1, 6696, Note_on_c, 1, 72, 96
1, 6696, Note_on_c, 2, 67, 96
1, 6696, Note_on_c, 3, 58, 96
1, 6696, Note_on_c, 4, 46, 96
1, 6696, Note_on_c, 5, 72, 96
1, 6696, Note_on_c, 6, 58, 96
1, 6706, Note_off_c, 0, 72, 0
1, 6706, Note_off_c, 1, 72, 0
1, 6706, Note_off_c, 5, 72, 0
1, 6708, Note_on_c, 0, 74, 96
1, 6708, Note_on_c, 1, 74, 96
1, 6708, Note_on_c, 5, 74, 96
1, 6717, Note_off_c, 2, 67, 0
1, 6717, Note_off_c, 3, 58, 0
1, 6717, Note_off_c, 4, 46, 0
1, 6717, Note_off_c, 6, 58, 0
1, 6718, Note_off_c, 0, 74, 0
1, 6718, Note_off_c, 1, 74, 0
1, 6718, Note_off_c, 5, 74, 0
1, 6720, Note_on_c, 0, 76, 96
1, 6720, Note_on_c, 1, 76, 96
1, 6720, Note_on_c, 2, 60, 96
1, 6720, Note_on_c, 3, 57, 96
1, 6720, Note_on_c, 4, 45, 96
1, 6720, Note_on_c, 5, 76, 96
1, 6720, Note_on_c, 6, 57, 96
1, 6735, Note_off_c, 5, 60, 0
1, 6741, Note_off_c, 0, 76, 0
1, 6741, Note_off_c, 1, 76, 0
1, 6741, Note_off_c, 2, 60, 0
1, 6741, Note_off_c, 3, 57, 0
1, 6741, Note_off_c, 4, 45, 0
1, 6741, Note_off_c, 5, 76, 0
1, 6741, Note_off_c, 6, 57, 0
1, 6744, Note_on_c, 0, 77, 96
1, 6744, Note_on_c, 1, 77, 96
1, 6744, Note_on_c, 2, 62, 96
1, 6744, Note_on_c, 3, 55, 96
1, 6744, Note_on_c, 4, 43, 96
1, 6744, Note_on_c, 5, 77, 96
1, 6744, Note_on_c, 5, 58, 96
1, 6744, Note_on_c, 6, 55, 96
1, 6754, Note_off_c, 0, 77, 0
1, 6754, Note_off_c, 1, 77, 0
1, 6754, Note_off_c, 2, 62, 0
1, 6754, Note_off_c, 5, 77, 0
1, 6756, Note_on_c, 0, 79, 96
1, 6756, Note_on_c, 1, 79, 96
1, 6756, Note_on_c, 2, 64, 96
1, 6756, Note_on_c, 5, 79, 96
1, 6765, Note_off_c, 3, 55, 0
1, 6765, Note_off_c, 4, 43, 0
1, 6765, Note_off_c, 5, 58, 0
1, 6765, Note_off_c, 6, 55, 0
1, 6766, Note_off_c, 0, 79, 0
1, 6766, Note_off_c, 1, 79, 0
1, 6766, Note_off_c, 2, 64, 0
1, 6766, Note_off_c, 5, 79, 0
1, 6768, Note_on_c, 0, 81, 96
1, 6768, Note_on_c, 1, 81, 96
1, 6768, Note_on_c, 2, 65, 96
1, 6768, Note_on_c, 3, 53, 96
1, 6768, Note_on_c, 4, 41, 96
1, 6768, Note_on_c, 5, 81, 96
1, 6768, Note_on_c, 5, 60, 96
1, 6768, Note_on_c, 6, 53, 96
1, 6789, Note_off_c, 0, 81, 0
1, 6789, Note_off_c, 1, 81, 0
1, 6789, Note_off_c, 2, 65, 0
1, 6789, Note_off_c, 3, 53, 0
1, 6789, Note_off_c, 4, 41, 0
1, 6789, Note_off_c, 5, 81, 0
1, 6789, Note_off_c, 5, 60, 0
1, 6789, Note_off_c, 6, 53, 0
1, 6792, Note_on_c, 5, 65, 96
1, 6792, Note_on_c, 6, 57, 96
1, 6802, Note_off_c, 5, 65, 0
1, 6802, Note_off_c, 6, 57, 0
1, 6804, Note_on_c, 5, 67, 96
1, 6804, Note_on_c, 6, 58, 96
1, 6814, Note_off_c, 5, 67, 0
1, 6814, Note_off_c, 6, 58, 0
1, 6816, Note_on_c, 5, 69, 96
1, 6816, Note_on_c, 6, 60, 96
1, 6826, Note_off_c, 5, 69, 0
1, 6828, Note_on_c, 5, 70, 96
1, 6837, Note_off_c, 6, 60, 0
1, 6838, Note_off_c, 5, 70, 0
1, 6840, Note_on_c, 5, 72, 96
1, 6840, Note_on_c, 6, 57, 96
1, 6850, Note_off_c, 5, 72, 0
1, 6852, Note_on_c, 5, 67, 96
1, 6861, Note_off_c, 6, 57, 0
1, 6862, Note_off_c, 5, 67, 0
1, 6864, Note_on_c, 5, 69, 96
1, 6864, Note_on_c, 6, 53, 96
1, 6874, Note_off_c, 5, 69, 0
1, 6876, Note_on_c, 5, 65, 96
1, 6885, Note_off_c, 6, 53, 0
1, 6886, Note_off_c, 5, 65, 0
1, 6888, Note_on_c, 5, 72, 96
1, 6888, Note_on_c, 6, 57, 96
1, 6898, Note_off_c, 5, 72, 0
1, 6900, Note_on_c, 5, 69, 96
1, 6909, Note_off_c, 6, 57, 0
1, 6910, Note_off_c, 5, 69, 0
1, 6912, Note_on_c, 5, 74, 96
1, 6912, Note_on_c, 6, 58, 96
1, 6933, Note_off_c, 5, 74, 0
1, 6933, Note_off_c, 6, 58, 0
1, 6936, Note_on_c, 0, 74, 96
1, 6936, Note_on_c, 1, 74, 96
1, 6936, Note_on_c, 3, 46, 96
1, 6936, Note_on_c, 4, 34, 96
1, 6936, Note_on_c, 5, 70, 96
1, 6936, Note_on_c, 6, 46, 96
1, 6946, Note_off_c, 0, 74, 0
1, 6946, Note_off_c, 1, 74, 0
1, 6946, Note_off_c, 5, 70, 0
1, 6948, Note_on_c, 0, 72, 96
1, 6948, Note_on_c, 1, 72, 96
1, 6948, Note_on_c, 5, 72, 96
1, 6957, Note_off_c, 3, 46, 0
1, 6957, Note_off_c, 4, 34, 0
1, 6957, Note_off_c, 6, 46, 0
1, 6958, Note_off_c, 0, 72, 0
1, 6958, Note_off_c, 1, 72, 0
1, 6958, Note_off_c, 5, 72, 0
1, 6960, Note_on_c, 0, 74, 96
1, 6960, Note_on_c, 1, 74, 96
1, 6960, Note_on_c, 3, 58, 96
1, 6960, Note_on_c, 4, 46, 96
1, 6960, Note_on_c, 5, 74, 96
1, 6960, Note_on_c, 5, 58, 96
1, 6981, Note_off_c, 0, 74, 0
1, 6981, Note_off_c, 1, 74, 0
1, 6981, Note_off_c, 3, 58, 0
1, 6981, Note_off_c, 4, 46, 0
1, 6981, Note_off_c, 5, 74, 0
1, 6984, Note_on_c, 0, 70, 96
1, 6984, Note_on_c, 1, 70, 96
1, 6984, Note_on_c, 2, 65, 96
1, 6984, Note_on_c, 3, 57, 96
1, 6984, Note_on_c, 4, 45, 96
1, 6984, Note_on_c, 5, 70, 96
1, 6984, Note_on_c, 6, 57, 96
1, 6994, Note_off_c, 0, 70, 0
1, 6994, Note_off_c, 1, 70, 0
1, 6994, Note_off_c, 5, 70, 0
1, 6996, Note_on_c, 0, 72, 96
1, 6996, Note_on_c, 1, 72, 96
1, 6996, Note_on_c, 5, 72, 96
1, 7005, Note_off_c, 2, 65, 0
1, 7005, Note_off_c, 3, 57, 0
1, 7005, Note_off_c, 4, 45, 0
1, 7005, Note_off_c, 6, 57, 0
1, 7006, Note_off_c, 0, 72, 0
1, 7006, Note_off_c, 1, 72, 0
1, 7006, Note_off_c, 5, 72, 0
1, 7008, Note_on_c, 0, 74, 96
1, 7008, Note_on_c, 1, 74, 96
1, 7008, Note_on_c, 2, 58, 96
1, 7008, Note_on_c, 3, 55, 96
1, 7008, Note_on_c, 4, 43, 96
1, 7008, Note_on_c, 5, 74, 96
1, 7008, Note_on_c, 6, 55, 96
1, 7023, Note_off_c, 5, 58, 0
1, 7029, Note_off_c, 0, 74, 0
1, 7029, Note_off_c, 1, 74, 0
1, 7029, Note_off_c, 2, 58, 0
1, 7029, Note_off_c, 3, 55, 0
1, 7029, Note_off_c, 4, 43, 0
1, 7029, Note_off_c, 5, 74, 0
1, 7029, Note_off_c, 6, 55, 0
1, 7032, Note_on_c, 0, 76, 96
1, 7032, Note_on_c, 1, 76, 96
1, 7032, Note_on_c, 2, 60, 96
1, 7032, Note_on_c, 3, 53, 96
1, 7032, Note_on_c, 4, 41, 96
1, 7032, Note_on_c, 5, 76, 96
1, 7032, Note_on_c, 5, 60, 96
1, 7032, Note_on_c, 5, 57, 96
1, 7032, Note_on_c, 6, 53, 96
1, 7042, Note_off_c, 0, 76, 0
1, 7042, Note_off_c, 1, 76, 0
1, 7042, Note_off_c, 2, 60, 0
1, 7042, Note_off_c, 5, 76, 0
1, 7044, Note_on_c, 0, 77, 96
1, 7044, Note_on_c, 1, 77, 96
1, 7044, Note_on_c, 2, 62, 96
1, 7044, Note_on_c, 5, 77, 96
1, 7053, Note_off_c, 3, 53, 0
1, 7053, Note_off_c, 4, 41, 0
1, 7053, Note_off_c, 5, 60, 0
1, 7053, Note_off_c, 5, 57, 0
1, 7053, Note_off_c, 6, 53, 0
1, 7054, Note_off_c, 0, 77, 0
1, 7054, Note_off_c, 1, 77, 0
1, 7054, Note_off_c, 2, 62, 0
1, 7054, Note_off_c, 5, 77, 0
1, 7056, Note_on_c, 0, 79, 80
1, 7056, Note_on_c, 1, 70, 80
1, 7056, Note_on_c, 2, 60, 80
1, 7056, Note_on_c, 3, 52, 80
1, 7056, Note_on_c, 4, 40, 80
1, 7056, Note_on_c, 5, 79, 96
1, 7056, Note_on_c, 5, 60, 96
1, 7056, Note_on_c, 5, 55, 96
1, 7056, Note_on_c, 6, 52, 96
1, 7077, Note_off_c, 5, 79, 0
1, 7077, Note_off_c, 5, 60, 0
1, 7077, Note_off_c, 5, 55, 0
1, 7077, Note_off_c, 6, 52, 0
1, 7080, Note_off_c, 3, 52, 0
1, 7080, Note_on_c, 3, 52, 80
1, 7080, Note_off_c, 4, 40, 0
1, 7080, Note_on_c, 4, 40, 80
1, 7080, Note_on_c, 5, 60, 96
1, 7080, Note_on_c, 6, 58, 96
1, 7090, Note_off_c, 5, 60, 0
1, 7092, Note_on_c, 5, 62, 96
1, 7101, Note_off_c, 6, 58, 0
1, 7102, Note_off_c, 5, 62, 0
1, 7104, Note_off_c, 3, 52, 0
1, 7104, Note_on_c, 3, 52, 80
1, 7104, Note_off_c, 4, 40, 0
1, 7104, Note_on_c, 4, 40, 80
1, 7104, Note_on_c, 5, 64, 96
1, 7104, Note_on_c, 6, 55, 96
1, 7114, Note_off_c, 5, 64, 0
1, 7116, Note_on_c, 5, 65, 96
1, 7125, Note_off_c, 6, 55, 0
1, 7126, Note_off_c, 5, 65, 0
1, 7128, Note_off_c, 3, 52, 0
1, 7128, Note_on_c, 3, 52, 80
1, 7128, Note_off_c, 4, 40, 0
1, 7128, Note_on_c, 4, 40, 80
1, 7128, Note_on_c, 5, 67, 96
1, 7128, Note_on_c, 6, 52, 96
1, 7138, Note_off_c, 5, 67, 0
1, 7140, Note_on_c, 5, 62, 96
1, 7149, Note_off_c, 6, 52, 0
1, 7150, Note_off_c, 5, 62, 0
1, 7152, Note_off_c, 3, 52, 0
1, 7152, Note_on_c, 3, 52, 80
1, 7152, Note_off_c, 4, 40, 0
1, 7152, Note_on_c, 4, 40, 80
1, 7152, Note_on_c, 5, 64, 96
1, 7152, Note_on_c, 6, 48, 96
1, 7162, Note_off_c, 5, 64, 0
1, 7164, Note_on_c, 5, 60, 96
1, 7173, Note_off_c, 6, 48, 0
1, 7174, Note_off_c, 5, 60, 0
1, 7176, Note_off_c, 3, 52, 0
1, 7176, Note_on_c, 3, 52, 80
1, 7176, Note_off_c, 4, 40, 0
1, 7176, Note_on_c, 4, 40, 80
1, 7176, Note_on_c, 5, 67, 96
1, 7176, Note_on_c, 6, 52, 96
1, 7186, Note_off_c, 5, 67, 0
1, 7188, Note_on_c, 5, 64, 96
1, 7197, Note_off_c, 3, 52, 0
1, 7197, Note_off_c, 4, 40, 0
1, 7197, Note_off_c, 6, 52, 0
1, 7198, Note_off_c, 5, 64, 0
1, 7200, Note_on_c, 3, 52, 80
1, 7200, Note_on_c, 4, 40, 80
1, 7200, Note_on_c, 5, 70, 96
1, 7200, Note_on_c, 6, 55, 96
1, 7210, Note_off_c, 5, 70, 0
1, 7212, Note_on_c, 5, 69, 96
1, 7221, Note_off_c, 6, 55, 0
1, 7222, Note_off_c, 5, 69, 0
1, 7224, Note_off_c, 3, 52, 0
1, 7224, Note_on_c, 3, 52, 80
1, 7224, Note_off_c, 4, 40, 0
1, 7224, Note_on_c, 4, 40, 80
1, 7224, Note_on_c, 5, 67, 96
1, 7224, Note_on_c, 6, 58, 96
1, 7234, Note_off_c, 5, 67, 0
1, 7236, Note_on_c, 5, 65, 96
1, 7245, Note_off_c, 6, 58, 0
1, 7246, Note_off_c, 5, 65, 0
1, 7248, Note_off_c, 3, 52, 0
1, 7248, Note_on_c, 3, 52, 80
1, 7248, Note_off_c, 4, 40, 0
1, 7248, Note_on_c, 4, 40, 80
1, 7248, Note_on_c, 5, 67, 96
1, 7248, Note_on_c, 6, 52, 96
1, 7258, Note_off_c, 5, 67, 0
1, 7260, Note_on_c, 5, 69, 96
1, 7269, Note_off_c, 6, 52, 0
1, 7270, Note_off_c, 5, 69, 0
1, 7272, Note_off_c, 3, 52, 0
1, 7272, Note_on_c, 3, 52, 80
1, 7272, Note_off_c, 4, 40, 0
1, 7272, Note_on_c, 4, 40, 80
1, 7272, Note_on_c, 5, 70, 96
1, 7272, Note_on_c, 6, 55, 96
1, 7282, Note_off_c, 5, 70, 0
1, 7284, Note_on_c, 5, 65, 96
1, 7293, Note_off_c, 6, 55, 0
1, 7294, Note_off_c, 5, 65, 0
1, 7296, Note_off_c, 3, 52, 0
1, 7296, Note_on_c, 3, 52, 80
1, 7296, Note_off_c, 4, 40, 0
1, 7296, Note_on_c, 4, 40, 80
1, 7296, Note_on_c, 5, 67, 96
1, 7296, Note_on_c, 6, 58, 96
1, 7306, Note_off_c, 5, 67, 0
1, 7308, Note_on_c, 5, 64, 96
1, 7317, Note_off_c, 6, 58, 0
1, 7318, Note_off_c, 5, 64, 0
1, 7320, Note_off_c, 3, 52, 0
1, 7320, Note_on_c, 3, 52, 80
1, 7320, Note_off_c, 4, 40, 0
1, 7320, Note_on_c, 4, 40, 80
1, 7320, Note_on_c, 5, 70, 96
1, 7320, Note_on_c, 6, 55, 96
1, 7330, Note_off_c, 5, 70, 0
1, 7332, Note_on_c, 5, 67, 96
1, 7341, Note_off_c, 3, 52, 0
1, 7341, Note_off_c, 4, 40, 0
1, 7341, Note_off_c, 6, 55, 0
1, 7342, Note_off_c, 5, 67, 0
1, 7344, Note_on_c, 3, 52, 80
1, 7344, Note_on_c, 4, 40, 80
1, 7344, Note_on_c, 5, 76, 96
1, 7344, Note_on_c, 6, 60, 96
1, 7354, Note_off_c, 5, 76, 0
1, 7356, Note_on_c, 5, 74, 96
1, 7365, Note_off_c, 6, 60, 0
1, 7366, Note_off_c, 5, 74, 0
1, 7368, Note_off_c, 3, 52, 0
1, 7368, Note_on_c, 3, 52, 80
1, 7368, Note_off_c, 4, 40, 0
1, 7368, Note_on_c, 4, 40, 80
1, 7368, Note_on_c, 5, 72, 96
1, 7368, Note_on_c, 6, 55, 96
1, 7378, Note_off_c, 5, 72, 0
1, 7380, Note_on_c, 5, 74, 96
1, 7389, Note_off_c, 6, 55, 0
1, 7390, Note_off_c, 5, 74, 0
1, 7392, Note_off_c, 3, 52, 0
1, 7392, Note_on_c, 3, 52, 80
1, 7392, Note_off_c, 4, 40, 0
1, 7392, Note_on_c, 4, 40, 80
1, 7392, Note_on_c, 5, 76, 96
1, 7392, Note_on_c, 6, 60, 96
1, 7402, Note_off_c, 5, 76, 0
1, 7404, Note_on_c, 5, 77, 96
1, 7413, Note_off_c, 6, 60, 0
1, 7414, Note_off_c, 5, 77, 0
1, 7416, Note_off_c, 3, 52, 0
1, 7416, Note_on_c, 3, 52, 80
1, 7416, Note_off_c, 4, 40, 0
1, 7416, Note_on_c, 4, 40, 80
1, 7416, Note_on_c, 5, 79, 96
1, 7416, Note_on_c, 6, 64, 96
1, 7426, Note_off_c, 5, 79, 0
1, 7428, Note_on_c, 5, 74, 96
1, 7437, Note_off_c, 6, 64, 0
1, 7438, Note_off_c, 5, 74, 0
1, 7440, Note_off_c, 3, 52, 0
1, 7440, Note_on_c, 3, 52, 80
1, 7440, Note_off_c, 4, 40, 0
1, 7440, Note_on_c, 4, 40, 80
1, 7440, Note_on_c, 5, 76, 96
1, 7440, Note_on_c, 6, 67, 96
1, 7450, Note_off_c, 5, 76, 0
1, 7452, Note_on_c, 5, 72, 96
1, 7461, Note_off_c, 6, 67, 0
1, 7462, Note_off_c, 5, 72, 0
1, 7464, Note_off_c, 3, 52, 0
1, 7464, Note_on_c, 3, 52, 80
1, 7464, Note_off_c, 4, 40, 0
1, 7464, Note_on_c, 4, 40, 80
1, 7464, Note_on_c, 5, 79, 96
1, 7464, Note_on_c, 6, 64, 96
1, 7474, Note_off_c, 5, 79, 0
1, 7476, Note_on_c, 5, 76, 96
1, 7485, Note_off_c, 3, 52, 0
1, 7485, Note_off_c, 4, 40, 0
1, 7485, Note_off_c, 6, 64, 0
1, 7486, Note_off_c, 5, 76, 0
1, 7488, Note_on_c, 3, 52, 80
1, 7488, Note_on_c, 4, 40, 80
1, 7488, Note_on_c, 5, 82, 96
1, 7488, Note_on_c, 6, 60, 96
1, 7498, Note_off_c, 5, 82, 0
1, 7498, Note_off_c, 6, 60, 0
1, 7500, Note_on_c, 5, 81, 96
1, 7500, Note_on_c, 6, 62, 96
1, 7510, Note_off_c, 5, 81, 0
1, 7510, Note_off_c, 6, 62, 0
1, 7512, Note_on_c, 5, 79, 96
1, 7512, Note_on_c, 6, 64, 96
1, 7522, Note_off_c, 5, 79, 0
1, 7522, Note_off_c, 6, 64, 0
1, 7524, Note_on_c, 5, 81, 96
1, 7524, Note_on_c, 6, 65, 96
1, 7534, Note_off_c, 5, 81, 0
1, 7534, Note_off_c, 6, 65, 0
1, 7536, Note_on_c, 5, 82, 96
1, 7536, Note_on_c, 6, 67, 96
1, 7546, Note_off_c, 5, 82, 0
1, 7546, Note_off_c, 6, 67, 0
1, 7548, Note_on_c, 5, 84, 96
1, 7548, Note_on_c, 6, 69, 96
1, 7558, Note_off_c, 5, 84, 0
1, 7558, Note_off_c, 6, 69, 0
1, 7560, Note_on_c, 5, 86, 96
1, 7560, Note_on_c, 6, 70, 96
1, 7570, Note_off_c, 5, 86, 0
1, 7570, Note_off_c, 6, 70, 0
1, 7572, Note_off_c, 0, 79, 0
1, 7572, Note_off_c, 1, 70, 0
1, 7572, Note_off_c, 2, 60, 0
1, 7572, Note_off_c, 3, 52, 0
1, 7572, Note_off_c, 4, 40, 0
1, 7572, Note_on_c, 5, 81, 96
1, 7572, Note_on_c, 6, 72, 96
1, 7582, Note_off_c, 5, 81, 0
1, 7582, Note_off_c, 6, 72, 0
1, 7584, Note_on_c, 5, 82, 96
1, 7584, Note_on_c, 6, 74, 96
1, 7594, Note_off_c, 5, 82, 0
1, 7594, Note_off_c, 6, 74, 0
1, 7596, Note_on_c, 5, 79, 96
1, 7596, Note_on_c, 6, 77, 96
1, 7606, Note_off_c, 5, 79, 0
1, 7606, Note_off_c, 6, 77, 0
1, 7608, Note_on_c, 0, 76, 80
1, 7608, Note_on_c, 1, 76, 80
1, 7608, Note_on_c, 2, 60, 80
1, 7608, Note_on_c, 3, 48, 80
1, 7608, Note_on_c, 4, 36, 80
1, 7608, Note_on_c, 5, 84, 96
1, 7608, Note_on_c, 6, 76, 96
1, 7618, Note_off_c, 5, 84, 0
1, 7618, Note_off_c, 6, 76, 0
1, 7620, Note_on_c, 5, 79, 96
1, 7620, Note_on_c, 6, 72, 96
1, 7629, Note_off_c, 0, 76, 0
1, 7629, Note_off_c, 1, 76, 0
1, 7629, Note_off_c, 2, 60, 0
1, 7629, Note_off_c, 3, 48, 0
1, 7629, Note_off_c, 4, 36, 0
1, 7630, Note_off_c, 5, 79, 0
1, 7630, Note_off_c, 6, 72, 0
1, 7632, Note_on_c, 0, 77, 80
1, 7632, Note_on_c, 1, 77, 80
1, 7632, Note_on_c, 2, 60, 80
1, 7632, Note_on_c, 3, 53, 80
1, 7632, Note_on_c, 4, 41, 80
1, 7632, Note_on_c, 5, 81, 96
1, 7632, Note_on_c, 6, 77, 96
1, 7642, Note_off_c, 5, 81, 0
1, 7644, Note_on_c, 5, 76, 96
1, 7653, Note_off_c, 0, 77, 0
1, 7653, Note_off_c, 1, 77, 0
1, 7653, Note_off_c, 2, 60, 0
1, 7653, Note_off_c, 3, 53, 0
1, 7653, Note_off_c, 4, 41, 0
1, 7653, Note_off_c, 6, 77, 0
1, 7654, Note_off_c, 5, 76, 0
1, 7656, Note_on_c, 0, 69, 80
1, 7656, Note_on_c, 1, 69, 80
1, 7656, Note_on_c, 2, 60, 80
1, 7656, Note_on_c, 3, 52, 80
1, 7656, Note_on_c, 4, 40, 80
1, 7656, Note_on_c, 5, 77, 96
1, 7656, Note_on_c, 6, 69, 96
1, 7666, Note_off_c, 5, 77, 0
1, 7668, Note_on_c, 5, 72, 96
1, 7677, Note_off_c, 0, 69, 0
1, 7677, Note_off_c, 1, 69, 0
1, 7677, Note_off_c, 2, 60, 0
1, 7677, Note_off_c, 3, 52, 0
1, 7677, Note_off_c, 4, 40, 0
1, 7677, Note_off_c, 6, 69, 0
1, 7678, Note_off_c, 5, 72, 0
1, 7680, Note_on_c, 0, 70, 80
1, 7680, Note_on_c, 1, 70, 80
1, 7680, Note_on_c, 2, 65, 80
1, 7680, Note_on_c, 3, 50, 80
1, 7680, Note_on_c, 4, 38, 80
1, 7680, Note_on_c, 5, 74, 96
1, 7680, Note_on_c, 6, 70, 96
1, 7690, Note_off_c, 5, 74, 0
1, 7692, Note_on_c, 5, 77, 96
1, 7701, Note_off_c, 0, 70, 0
1, 7701, Note_off_c, 1, 70, 0
1, 7701, Note_off_c, 2, 65, 0
1, 7701, Note_off_c, 3, 50, 0
1, 7701, Note_off_c, 4, 38, 0
1, 7701, Note_off_c, 6, 70, 0
1, 7702, Note_off_c, 5, 77, 0
1, 7704, Note_on_c, 0, 77, 80
1, 7704, Note_on_c, 1, 77, 80
1, 7704, Note_on_c, 2, 62, 80
1, 7704, Note_on_c, 3, 48, 80
1, 7704, Note_on_c, 4, 36, 80
1, 7704, Note_on_c, 5, 82, 96
1, 7704, Note_on_c, 6, 67, 96
1, 7714, Note_off_c, 3, 48, 0
1, 7714, Note_off_c, 4, 36, 0
1, 7714, Note_off_c, 5, 82, 0
1, 7716, Note_on_c, 3, 46, 80
1, 7716, Note_on_c, 4, 34, 80
1, 7716, Note_on_c, 5, 79, 96
1, 7725, Note_off_c, 0, 77, 0
1, 7725, Note_off_c, 1, 77, 0
1, 7725, Note_off_c, 2, 62, 0
1, 7725, Note_off_c, 6, 67, 0
1, 7726, Note_off_c, 3, 46, 0
1, 7726, Note_off_c, 4, 34, 0
1, 7726, Note_off_c, 5, 79, 0
1, 7728, Note_on_c, 0, 72, 80
1, 7728, Note_on_c, 1, 72, 80
1, 7728, Note_on_c, 2, 60, 80
1, 7728, Note_on_c, 3, 48, 80
1, 7728, Note_on_c, 4, 36, 80
1, 7728, Note_on_c, 5, 81, 96
1, 7728, Note_on_c, 6, 72, 96
1, 7738, Note_off_c, 5, 81, 0
1, 7740, Note_on_c, 5, 77, 96
1, 7749, Note_off_c, 0, 72, 0
1, 7749, Note_off_c, 1, 72, 0
1, 7749, Note_off_c, 2, 60, 0
1, 7749, Note_off_c, 3, 48, 0
1, 7749, Note_off_c, 4, 36, 0
1, 7749, Note_off_c, 6, 72, 0
1, 7750, Note_off_c, 5, 77, 0
1, 7752, Note_on_c, 0, 76, 80
1, 7752, Note_on_c, 1, 76, 80
1, 7752, Note_on_c, 2, 67, 80
1, 7752, Note_on_c, 3, 36, 80
1, 7752, Note_on_c, 4, 24, 80
1, 7752, Note_on_c, 5, 72, 96
1, 7752, Note_on_c, 5, 70, 96
1, 7752, Note_on_c, 6, 60, 96
1, 7762, Note_off_c, 5, 72, 0
1, 7764, Note_on_c, 5, 76, 96
1, 7773, Note_off_c, 0, 76, 0
1, 7773, Note_off_c, 1, 76, 0
1, 7773, Note_off_c, 2, 67, 0
1, 7773, Note_off_c, 3, 36, 0
1, 7773, Note_off_c, 4, 24, 0
1, 7773, Note_off_c, 5, 70, 0
1, 7773, Note_off_c, 6, 60, 0
1, 7774, Note_off_c, 5, 76, 0
1, 7776, Note_on_c, 0, 77, 96
1, 7776, Note_on_c, 1, 77, 96
1, 7776, Note_on_c, 2, 69, 96
1, 7776, Note_on_c, 3, 41, 96
1, 7776, Note_on_c, 4, 29, 96
1, 7776, Note_on_c, 5, 77, 96
1, 7776, Note_on_c, 5, 69, 96
1, 7776, Note_on_c, 6, 65, 96
1, 7797, Note_off_c, 0, 77, 0
1, 7797, Note_off_c, 5, 77, 0
1, 7800, Note_on_c, 0, 76, 96
1, 7800, Note_on_c, 5, 76, 96
1, 7810, Note_off_c, 0, 76, 0
1, 7810, Note_off_c, 5, 76, 0
1, 7812, Note_on_c, 0, 74, 96
1, 7812, Note_on_c, 5, 74, 96
1, 7818, Note_off_c, 1, 77, 0
1, 7818, Note_off_c, 2, 69, 0
1, 7818, Note_off_c, 3, 41, 0
1, 7818, Note_off_c, 4, 29, 0
1, 7818, Note_off_c, 5, 69, 0
1, 7818, Note_off_c, 6, 65, 0
1, 7822, Note_off_c, 0, 74, 0
1, 7822, Note_off_c, 5, 74, 0
1, 7824, Note_on_c, 0, 72, 96
1, 7824, Note_on_c, 5, 72, 96
1, 7836, Note_on_c, 6, 69, 96
1, 7845, Note_off_c, 0, 72, 0
1, 7845, Note_off_c, 5, 72, 0
1, 7846, Note_off_c, 6, 69, 0
1, 7848, Note_on_c, 0, 70, 96
1, 7848, Note_on_c, 5, 70, 96
1, 7860, Note_on_c, 6, 67, 96
1, 7869, Note_off_c, 0, 70, 0
1, 7869, Note_off_c, 5, 70, 0
1, 7870, Note_off_c, 6, 67, 0
1, 7872, Note_on_c, 0, 69, 96
1, 7872, Note_on_c, 5, 69, 96
1, 7884, Note_on_c, 6, 65, 96
1, 7893, Note_off_c, 0, 69, 0
1, 7893, Note_off_c, 5, 69, 0
1, 7894, Note_off_c, 6, 65, 0
1, 7896, Note_on_c, 0, 67, 96
1, 7896, Note_on_c, 5, 67, 96
1, 7908, Note_on_c, 6, 64, 96
1, 7917, Note_off_c, 0, 67, 0
1, 7917, Note_off_c, 5, 67, 0
1, 7918, Note_off_c, 6, 64, 0
1, 7920, Note_on_c, 0, 69, 96
1, 7920, Note_on_c, 5, 69, 96
1, 7920, Note_on_c, 6, 65, 96
1, 7941, Note_off_c, 0, 69, 0
1, 7941, Note_off_c, 5, 69, 0
1, 7941, Note_off_c, 6, 65, 0
1, 7944, Note_on_c, 0, 65, 96
1, 7944, Note_on_c, 1, 72, 96
1, 7944, Note_on_c, 2, 57, 96
1, 7944, Note_on_c, 3, 53, 96
1, 7944, Note_on_c, 4, 41, 96
1, 7944, Note_on_c, 5, 65, 96
1, 7944, Note_on_c, 6, 53, 96
1, 7954, Note_off_c, 1, 72, 0
1, 7954, Note_off_c, 2, 57, 0
1, 7954, Note_off_c, 3, 53, 0
1, 7954, Note_off_c, 4, 41, 0
1, 7954, Note_off_c, 6, 53, 0
1, 7956, Note_on_c, 1, 70, 96
1, 7956, Note_on_c, 2, 58, 96
1, 7956, Note_on_c, 3, 55, 96
1, 7956, Note_on_c, 4, 43, 96
1, 7956, Note_on_c, 6, 55, 96
1, 7965, Note_off_c, 0, 65, 0
1, 7965, Note_off_c, 5, 65, 0
1, 7966, Note_off_c, 1, 70, 0
1, 7966, Note_off_c, 2, 58, 0
1, 7966, Note_off_c, 3, 55, 0
1, 7966, Note_off_c, 4, 43, 0
1, 7966, Note_off_c, 6, 55, 0
1, 7968, Note_on_c, 0, 77, 96
1, 7968, Note_on_c, 1, 69, 96
1, 7968, Note_on_c, 2, 60, 96
1, 7968, Note_on_c, 3, 57, 96
1, 7968, Note_on_c, 4, 45, 96
1, 7968, Note_on_c, 5, 77, 96
1, 7968, Note_on_c, 6, 57, 96
1, 7989, Note_off_c, 0, 77, 0
1, 7989, Note_off_c, 1, 69, 0
1, 7989, Note_off_c, 2, 60, 0
1, 7989, Note_off_c, 3, 57, 0
1, 7989, Note_off_c, 4, 45, 0
1, 7989, Note_off_c, 5, 77, 0
1, 7989, Note_off_c, 6, 57, 0
1, 7992, Note_on_c, 0, 77, 96
1, 7992, Note_on_c, 1, 72, 96
1, 7992, Note_on_c, 2, 58, 96
1, 7992, Note_on_c, 3, 55, 96
1, 7992, Note_on_c, 4, 43, 96
1, 7992, Note_on_c, 5, 77, 96
1, 7992, Note_on_c, 6, 55, 96
1, 8002, Note_off_c, 2, 58, 0
1, 8002, Note_off_c, 3, 55, 0
1, 8002, Note_off_c, 4, 43, 0
1, 8002, Note_off_c, 6, 55, 0
1, 8004, Note_on_c, 2, 60, 96
1, 8004, Note_on_c, 3, 57, 96
1, 8004, Note_on_c, 4, 45, 96
1, 8004, Note_on_c, 6, 57, 96
1, 8013, Note_off_c, 0, 77, 0
1, 8013, Note_off_c, 1, 72, 0
1, 8013, Note_off_c, 5, 77, 0
1, 8014, Note_off_c, 2, 60, 0
1, 8014, Note_off_c, 3, 57, 0
1, 8014, Note_off_c, 4, 45, 0
1, 8014, Note_off_c, 6, 57, 0
1, 8016, Note_on_c, 0, 77, 96
1, 8016, Note_on_c, 1, 69, 96
1, 8016, Note_on_c, 2, 62, 96
1, 8016, Note_on_c, 3, 59, 96
1, 8016, Note_on_c, 4, 47, 96
1, 8016, Note_on_c, 5, 77, 96
1, 8016, Note_on_c, 6, 59, 96
1, 8037, Note_off_c, 0, 77, 0
1, 8037, Note_off_c, 1, 69, 0
1, 8037, Note_off_c, 2, 62, 0
1, 8037, Note_off_c, 3, 59, 0
1, 8037, Note_off_c, 4, 47, 0
1, 8037, Note_off_c, 5, 77, 0
1, 8037, Note_off_c, 6, 59, 0
1, 8040, Note_on_c, 0, 77, 96
1, 8040, Note_on_c, 1, 65, 96
1, 8040, Note_on_c, 2, 60, 96
1, 8040, Note_on_c, 3, 57, 96
1, 8040, Note_on_c, 4, 45, 96
1, 8040, Note_on_c, 5, 77, 96
1, 8040, Note_on_c, 6, 57, 96
1, 8050, Note_off_c, 2, 60, 0
1, 8050, Note_off_c, 3, 57, 0
1, 8050, Note_off_c, 4, 45, 0
1, 8050, Note_off_c, 6, 57, 0
1, 8052, Note_on_c, 2, 62, 96
1, 8052, Note_on_c, 3, 59, 96
1, 8052, Note_on_c, 4, 47, 96
1, 8052, Note_on_c, 6, 59, 96
1, 8061, Note_off_c, 0, 77, 0
1, 8061, Note_off_c, 1, 65, 0
1, 8061, Note_off_c, 5, 77, 0
1, 8062, Note_off_c, 2, 62, 0
1, 8062, Note_off_c, 3, 59, 0
1, 8062, Note_off_c, 4, 47, 0
1, 8062, Note_off_c, 6, 59, 0
1, 8064, Note_on_c, 0, 72, 96
1, 8064, Note_on_c, 1, 72, 96
1, 8064, Note_on_c, 2, 55, 96
1, 8064, Note_on_c, 3, 60, 96
1, 8064, Note_on_c, 4, 48, 96
1, 8064, Note_on_c, 5, 77, 96
1, 8064, Note_on_c, 6, 60, 96
1, 8074, Note_off_c, 5, 77, 0
1, 8076, Note_on_c, 5, 81, 96
1, 8085, Note_off_c, 0, 72, 0
1, 8085, Note_off_c, 1, 72, 0
1, 8086, Note_off_c, 5, 81, 0
1, 8088, Note_on_c, 0, 70, 96
1, 8088, Note_on_c, 1, 70, 96
1, 8088, Note_on_c, 5, 79, 96
1, 8098, Note_off_c, 0, 70, 0
1, 8098, Note_off_c, 1, 70, 0
1, 8098, Note_off_c, 5, 79, 0
1, 8100, Note_on_c, 0, 69, 96
1, 8100, Note_on_c, 1, 69, 96
1, 8100, Note_on_c, 5, 77, 96
1, 8106, Note_off_c, 2, 55, 0
1, 8106, Note_off_c, 3, 60, 0
1, 8106, Note_off_c, 4, 48, 0
1, 8106, Note_off_c, 6, 60, 0
1, 8110, Note_off_c, 0, 69, 0
1, 8110, Note_off_c, 1, 69, 0
1, 8110, Note_off_c, 5, 77, 0
1, 8112, Note_on_c, 0, 67, 96
1, 8112, Note_on_c, 1, 67, 96
1, 8112, Note_on_c, 5, 76, 96
1, 8124, Note_on_c, 6, 67, 96
1, 8133, Note_off_c, 0, 67, 0
1, 8133, Note_off_c, 1, 67, 0
1, 8133, Note_off_c, 5, 76, 0
1, 8134, Note_off_c, 6, 67, 0
1, 8136, Note_on_c, 0, 65, 96
1, 8136, Note_on_c, 1, 65, 96
1, 8136, Note_on_c, 5, 74, 96
1, 8148, Note_on_c, 6, 65, 96
1, 8157, Note_off_c, 0, 65, 0
1, 8157, Note_off_c, 1, 65, 0
1, 8157, Note_off_c, 5, 74, 0
1, 8158, Note_off_c, 6, 65, 0
1, 8160, Note_on_c, 0, 64, 96
1, 8160, Note_on_c, 1, 64, 96
1, 8160, Note_on_c, 5, 72, 96
1, 8172, Note_on_c, 6, 64, 96
1, 8181, Note_off_c, 0, 64, 0
1, 8181, Note_off_c, 1, 64, 0
1, 8181, Note_off_c, 5, 72, 0
1, 8182, Note_off_c, 6, 64, 0
1, 8184, Note_on_c, 0, 62, 96
1, 8184, Note_on_c, 1, 62, 96
1, 8184, Note_on_c, 5, 71, 96
1, 8196, Note_on_c, 6, 62, 96
1, 8205, Note_off_c, 0, 62, 0
1, 8205, Note_off_c, 1, 62, 0
1, 8205, Note_off_c, 5, 71, 0
1, 8206, Note_off_c, 6, 62, 0
1, 8208, Note_on_c, 0, 64, 96
1, 8208, Note_on_c, 1, 64, 96
1, 8208, Note_on_c, 5, 72, 96
1, 8208, Note_on_c, 6, 64, 96
1, 8218, Note_off_c, 5, 72, 0
1, 8220, Note_on_c, 5, 74, 96
1, 8229, Note_off_c, 0, 64, 0
1, 8229, Note_off_c, 1, 64, 0
1, 8229, Note_off_c, 6, 64, 0
1, 8230, Note_off_c, 5, 74, 0
1, 8232, Note_on_c, 0, 60, 96
1, 8232, Note_on_c, 1, 60, 96
1, 8232, Note_on_c, 2, 67, 96
1, 8232, Note_on_c, 3, 48, 96
1, 8232, Note_on_c, 4, 36, 96
1, 8232, Note_on_c, 5, 76, 96
1, 8232, Note_on_c, 6, 48, 96
1, 8242, Note_off_c, 2, 67, 0
1, 8242, Note_off_c, 3, 48, 0
1, 8242, Note_off_c, 4, 36, 0
1, 8242, Note_off_c, 5, 76, 0
1, 8242, Note_off_c, 6, 48, 0
1, 8244, Note_on_c, 2, 65, 96
1, 8244, Note_on_c, 3, 50, 96
1, 8244, Note_on_c, 4, 38, 96
1, 8244, Note_on_c, 5, 77, 96
1, 8244, Note_on_c, 6, 50, 96
1, 8253, Note_off_c, 0, 60, 0
1, 8253, Note_off_c, 1, 60, 0
1, 8254, Note_off_c, 2, 65, 0
1, 8254, Note_off_c, 3, 50, 0
1, 8254, Note_off_c, 4, 38, 0
1, 8254, Note_off_c, 5, 77, 0
1, 8254, Note_off_c, 6, 50, 0
1, 8256, Note_on_c, 0, 72, 96
1, 8256, Note_on_c, 1, 72, 96
1, 8256, Note_on_c, 2, 64, 96
1, 8256, Note_on_c, 3, 52, 96
1, 8256, Note_on_c, 4, 40, 96
1, 8256, Note_on_c, 5, 79, 96
1, 8256, Note_on_c, 6, 52, 96
1, 8277, Note_off_c, 0, 72, 0
1, 8277, Note_off_c, 1, 72, 0
1, 8277, Note_off_c, 2, 64, 0
1, 8277, Note_off_c, 3, 52, 0
1, 8277, Note_off_c, 4, 40, 0
1, 8277, Note_off_c, 5, 79, 0
1, 8277, Note_off_c, 6, 52, 0
1, 8280, Note_on_c, 0, 72, 96
1, 8280, Note_on_c, 1, 72, 96
1, 8280, Note_on_c, 2, 67, 96
1, 8280, Note_on_c, 3, 50, 96
1, 8280, Note_on_c, 4, 38, 96
1, 8280, Note_on_c, 5, 78, 96
1, 8280, Note_on_c, 6, 50, 96
1, 8290, Note_off_c, 3, 50, 0
1, 8290, Note_off_c, 4, 38, 0
1, 8290, Note_off_c, 5, 78, 0
1, 8290, Note_off_c, 6, 50, 0
1, 8292, Note_on_c, 3, 52, 96
1, 8292, Note_on_c, 4, 40, 96
1, 8292, Note_on_c, 5, 79, 96
1, 8292, Note_on_c, 6, 52, 96
1, 8301, Note_off_c, 0, 72, 0
1, 8301, Note_off_c, 1, 72, 0
1, 8301, Note_off_c, 2, 67, 0
1, 8302, Note_off_c, 3, 52, 0
1, 8302, Note_off_c, 4, 40, 0
1, 8302, Note_off_c, 5, 79, 0
1, 8302, Note_off_c, 6, 52, 0
1, 8304, Note_on_c, 0, 72, 96
1, 8304, Note_on_c, 1, 72, 96
1, 8304, Note_on_c, 2, 63, 96
1, 8304, Note_on_c, 3, 54, 96
1, 8304, Note_on_c, 4, 42, 96
1, 8304, Note_on_c, 5, 81, 96
1, 8304, Note_on_c, 6, 54, 96
1, 8325, Note_off_c, 0, 72, 0
1, 8325, Note_off_c, 1, 72, 0
1, 8325, Note_off_c, 2, 63, 0
1, 8325, Note_off_c, 3, 54, 0
1, 8325, Note_off_c, 4, 42, 0
1, 8325, Note_off_c, 5, 81, 0
1, 8325, Note_off_c, 6, 54, 0
1, 8328, Note_on_c, 0, 72, 96
1, 8328, Note_on_c, 1, 72, 96
1, 8328, Note_on_c, 2, 60, 96
1, 8328, Note_on_c, 3, 52, 96
1, 8328, Note_on_c, 4, 40, 96
1, 8328, Note_on_c, 5, 79, 96
1, 8328, Note_on_c, 6, 52, 96
1, 8338, Note_off_c, 3, 52, 0
1, 8338, Note_off_c, 4, 40, 0
1, 8338, Note_off_c, 5, 79, 0
1, 8338, Note_off_c, 6, 52, 0
1, 8340, Note_on_c, 3, 54, 96
1, 8340, Note_on_c, 4, 42, 96
1, 8340, Note_on_c, 5, 81, 96
1, 8340, Note_on_c, 6, 54, 96
1, 8349, Note_off_c, 0, 72, 0
1, 8349, Note_off_c, 1, 72, 0
1, 8349, Note_off_c, 2, 60, 0
1, 8350, Note_off_c, 3, 54, 0
1, 8350, Note_off_c, 4, 42, 0
1, 8350, Note_off_c, 5, 81, 0
1, 8350, Note_off_c, 6, 54, 0
1, 8352, Note_on_c, 0, 72, 96
1, 8352, Note_on_c, 1, 67, 96
1, 8352, Note_on_c, 2, 67, 96
1, 8352, Note_on_c, 3, 55, 96
1, 8352, Note_on_c, 4, 43, 96
1, 8352, Note_on_c, 5, 74, 96
1, 8352, Note_on_c, 6, 55, 96
1, 8362, Note_off_c, 5, 74, 0
1, 8362, Note_off_c, 6, 55, 0
1, 8364, Note_off_c, 0, 72, 0
1, 8364, Note_on_c, 0, 75, 96
1, 8364, Note_on_c, 5, 75, 96
1, 8364, Note_on_c, 6, 67, 96
1, 8373, Note_off_c, 1, 67, 0
1, 8373, Note_off_c, 2, 67, 0
1, 8374, Note_off_c, 5, 75, 0
1, 8374, Note_off_c, 6, 67, 0
1, 8376, Note_off_c, 0, 75, 0
1, 8376, Note_on_c, 0, 74, 96
1, 8376, Note_on_c, 1, 65, 96
1, 8376, Note_on_c, 2, 65, 96
1, 8376, Note_on_c, 5, 74, 96
1, 8376, Note_on_c, 6, 65, 96
1, 8386, Note_off_c, 1, 65, 0
1, 8386, Note_off_c, 2, 65, 0
1, 8386, Note_off_c, 5, 74, 0
1, 8386, Note_off_c, 6, 65, 0
1, 8388, Note_off_c, 0, 74, 0
1, 8388, Note_on_c, 0, 72, 96
1, 8388, Note_on_c, 1, 63, 96
1, 8388, Note_on_c, 2, 63, 96
1, 8388, Note_on_c, 5, 72, 96
1, 8388, Note_on_c, 6, 63, 96
1, 8394, Note_off_c, 3, 55, 0
1, 8394, Note_off_c, 4, 43, 0
1, 8398, Note_off_c, 0, 72, 0
1, 8398, Note_off_c, 1, 63, 0
1, 8398, Note_off_c, 2, 63, 0
1, 8398, Note_off_c, 5, 72, 0
1, 8398, Note_off_c, 6, 63, 0
1, 8400, Note_on_c, 0, 70, 96
1, 8400, Note_on_c, 1, 62, 96
1, 8400, Note_on_c, 2, 62, 96
1, 8400, Note_on_c, 5, 70, 96
1, 8400, Note_on_c, 6, 62, 96
1, 8410, Note_off_c, 5, 70, 0
1, 8412, Note_on_c, 5, 67, 96
1, 8421, Note_off_c, 1, 62, 0
1, 8421, Note_off_c, 2, 62, 0
1, 8421, Note_off_c, 6, 62, 0
1, 8422, Note_off_c, 5, 67, 0
1, 8424, Note_on_c, 1, 60, 96
1, 8424, Note_on_c, 2, 60, 96
1, 8424, Note_on_c, 5, 75, 96
1, 8424, Note_on_c, 6, 60, 96
1, 8434, Note_off_c, 5, 75, 0
1, 8436, Note_on_c, 5, 67, 96
1, 8442, Note_off_c, 0, 70, 0
1, 8445, Note_off_c, 1, 60, 0
1, 8445, Note_off_c, 2, 60, 0
1, 8445, Note_off_c, 6, 60, 0
1, 8446, Note_off_c, 5, 67, 0
1, 8448, Note_on_c, 1, 58, 96
1, 8448, Note_on_c, 2, 58, 96
1, 8448, Note_on_c, 5, 74, 96
1, 8448, Note_on_c, 6, 58, 96
1, 8458, Note_off_c, 5, 74, 0
1, 8460, Note_on_c, 5, 67, 96
1, 8469, Note_off_c, 1, 58, 0
1, 8469, Note_off_c, 2, 58, 0
1, 8469, Note_off_c, 6, 58, 0
1, 8470, Note_off_c, 5, 67, 0
1, 8472, Note_on_c, 1, 57, 96
1, 8472, Note_on_c, 2, 57, 96
1, 8472, Note_on_c, 5, 72, 96
1, 8472, Note_on_c, 6, 57, 96
1, 8482, Note_off_c, 5, 72, 0
1, 8484, Note_on_c, 5, 66, 96
1, 8493, Note_off_c, 1, 57, 0
1, 8493, Note_off_c, 2, 57, 0
1, 8493, Note_off_c, 6, 57, 0
1, 8494, Note_off_c, 5, 66, 0
1, 8496, Note_on_c, 1, 58, 96
1, 8496, Note_on_c, 2, 58, 96
1, 8496, Note_on_c, 5, 70, 96
1, 8496, Note_on_c, 6, 55, 96
1, 8506, Note_off_c, 5, 70, 0
1, 8508, Note_on_c, 5, 67, 96
1, 8517, Note_off_c, 1, 58, 0
1, 8517, Note_off_c, 2, 58, 0
1, 8517, Note_off_c, 6, 55, 0
1, 8518, Note_off_c, 5, 67, 0
1, 8520, Note_on_c, 0, 70, 96
1, 8520, Note_on_c, 1, 55, 96
1, 8520, Note_on_c, 2, 55, 96
1, 8520, Note_on_c, 3, 43, 96
1, 8520, Note_on_c, 4, 31, 96
1, 8520, Note_on_c, 5, 79, 96
1, 8520, Note_on_c, 6, 43, 96
1, 8530, Note_off_c, 0, 70, 0
1, 8530, Note_off_c, 3, 43, 0
1, 8530, Note_off_c, 4, 31, 0
1, 8530, Note_off_c, 6, 43, 0
1, 8532, Note_on_c, 0, 72, 96
1, 8532, Note_on_c, 3, 45, 96
1, 8532, Note_on_c, 4, 33, 96
1, 8532, Note_on_c, 6, 45, 96
1, 8541, Note_off_c, 1, 55, 0
1, 8541, Note_off_c, 2, 55, 0
1, 8541, Note_off_c, 5, 79, 0
1, 8542, Note_off_c, 0, 72, 0
1, 8542, Note_off_c, 3, 45, 0
1, 8542, Note_off_c, 4, 33, 0
1, 8542, Note_off_c, 6, 45, 0
1, 8544, Note_on_c, 0, 74, 96
1, 8544, Note_on_c, 1, 67, 96
1, 8544, Note_on_c, 2, 67, 96
1, 8544, Note_on_c, 3, 47, 96
1, 8544, Note_on_c, 4, 35, 96
1, 8544, Note_on_c, 5, 77, 96
1, 8544, Note_on_c, 5, 74, 96
1, 8544, Note_on_c, 6, 47, 96
1, 8554, Note_off_c, 5, 77, 0
1, 8556, Note_on_c, 5, 81, 96
1, 8565, Note_off_c, 0, 74, 0
1, 8565, Note_off_c, 1, 67, 0
1, 8565, Note_off_c, 2, 67, 0
1, 8565, Note_off_c, 3, 47, 0
1, 8565, Note_off_c, 4, 35, 0
1, 8565, Note_off_c, 5, 74, 0
1, 8565, Note_off_c, 6, 47, 0
1, 8566, Note_off_c, 5, 81, 0
1, 8568, Note_on_c, 0, 73, 96
1, 8568, Note_on_c, 1, 67, 96
1, 8568, Note_on_c, 2, 67, 96
1, 8568, Note_on_c, 3, 45, 96
1, 8568, Note_on_c, 4, 33, 96
1, 8568, Note_on_c, 5, 79, 96
1, 8568, Note_on_c, 6, 45, 96
1, 8578, Note_off_c, 0, 73, 0
1, 8578, Note_off_c, 3, 45, 0
1, 8578, Note_off_c, 4, 33, 0
1, 8578, Note_off_c, 5, 79, 0
1, 8578, Note_off_c, 6, 45, 0
1, 8580, Note_on_c, 0, 74, 96
1, 8580, Note_on_c, 3, 47, 96
1, 8580, Note_on_c, 4, 35, 96
1, 8580, Note_on_c, 5, 77, 96
1, 8580, Note_on_c, 6, 47, 96
1, 8589, Note_off_c, 1, 67, 0
1, 8589, Note_off_c, 2, 67, 0
1, 8590, Note_off_c, 0, 74, 0
1, 8590, Note_off_c, 3, 47, 0
1, 8590, Note_off_c, 4, 35, 0
1, 8590, Note_off_c, 5, 77, 0
1, 8590, Note_off_c, 6, 47, 0
1, 8592, Note_on_c, 0, 76, 96
1, 8592, Note_on_c, 1, 67, 96
1, 8592, Note_on_c, 2, 67, 96
1, 8592, Note_on_c, 3, 49, 96
1, 8592, Note_on_c, 4, 37, 96
1, 8592, Note_on_c, 5, 76, 96
1, 8592, Note_on_c, 5, 69, 96
1, 8592, Note_on_c, 6, 49, 96
1, 8602, Note_off_c, 5, 76, 0
1, 8604, Note_on_c, 5, 79, 96
1, 8613, Note_off_c, 0, 76, 0
1, 8613, Note_off_c, 1, 67, 0
1, 8613, Note_off_c, 2, 67, 0
1, 8613, Note_off_c, 3, 49, 0
1, 8613, Note_off_c, 4, 37, 0
1, 8613, Note_off_c, 5, 69, 0
1, 8613, Note_off_c, 6, 49, 0
1, 8614, Note_off_c, 5, 79, 0
1, 8616, Note_on_c, 0, 74, 96
1, 8616, Note_on_c, 1, 67, 96
1, 8616, Note_on_c, 2, 67, 96
1, 8616, Note_on_c, 3, 47, 96
1, 8616, Note_on_c, 4, 35, 96
1, 8616, Note_on_c, 5, 77, 96
1, 8616, Note_on_c, 6, 47, 96
1, 8626, Note_off_c, 0, 74, 0
1, 8626, Note_off_c, 3, 47, 0
1, 8626, Note_off_c, 4, 35, 0
1, 8626, Note_off_c, 5, 77, 0
1, 8626, Note_off_c, 6, 47, 0
1, 8628, Note_on_c, 0, 76, 96
1, 8628, Note_on_c, 3, 49, 96
1, 8628, Note_on_c, 4, 37, 96
1, 8628, Note_on_c, 5, 76, 96
1, 8628, Note_on_c, 6, 49, 96
1, 8637, Note_off_c, 1, 67, 0
1, 8637, Note_off_c, 2, 67, 0
1, 8638, Note_off_c, 0, 76, 0
1, 8638, Note_off_c, 3, 49, 0
1, 8638, Note_off_c, 4, 37, 0
1, 8638, Note_off_c, 5, 76, 0
1, 8638, Note_off_c, 6, 49, 0
1, 8640, Note_on_c, 0, 69, 96
1, 8640, Note_on_c, 1, 67, 96
1, 8640, Note_on_c, 2, 67, 96
1, 8640, Note_on_c, 3, 50, 96
1, 8640, Note_on_c, 4, 38, 96
1, 8640, Note_on_c, 5, 74, 96
1, 8640, Note_on_c, 5, 65, 96
1, 8640, Note_on_c, 6, 50, 96
1, 8652, Note_off_c, 1, 67, 0
1, 8652, Note_on_c, 1, 70, 96
1, 8652, Note_off_c, 2, 67, 0
1, 8652, Note_on_c, 2, 70, 96
1, 8661, Note_off_c, 3, 50, 0
1, 8661, Note_off_c, 4, 38, 0
1, 8661, Note_off_c, 5, 74, 0
1, 8661, Note_off_c, 5, 65, 0
1, 8661, Note_off_c, 6, 50, 0
1, 8664, Note_off_c, 1, 70, 0
1, 8664, Note_on_c, 1, 69, 96
1, 8664, Note_off_c, 2, 70, 0
1, 8664, Note_on_c, 2, 69, 96
1, 8664, Note_on_c, 3, 48, 96
1, 8664, Note_on_c, 4, 36, 96
1, 8664, Note_on_c, 5, 62, 96
1, 8664, Note_on_c, 6, 48, 96
1, 8674, Note_off_c, 3, 48, 0
1, 8674, Note_off_c, 4, 36, 0
1, 8674, Note_off_c, 6, 48, 0
1, 8676, Note_off_c, 1, 69, 0
1, 8676, Note_on_c, 1, 67, 96
1, 8676, Note_off_c, 2, 69, 0
1, 8676, Note_on_c, 2, 67, 96
1, 8676, Note_on_c, 3, 46, 96
1, 8676, Note_on_c, 4, 34, 96
1, 8676, Note_on_c, 6, 46, 96
1, 8682, Note_off_c, 0, 69, 0
1, 8685, Note_off_c, 5, 62, 0
1, 8686, Note_off_c, 1, 67, 0
1, 8686, Note_off_c, 2, 67, 0
1, 8686, Note_off_c, 3, 46, 0
1, 8686, Note_off_c, 4, 34, 0
1, 8686, Note_off_c, 6, 46, 0
1, 8688, Note_on_c, 1, 65, 96
1, 8688, Note_on_c, 2, 65, 96
1, 8688, Note_on_c, 3, 45, 96
1, 8688, Note_on_c, 4, 33, 96
1, 8688, Note_on_c, 5, 65, 96
1, 8688, Note_on_c, 6, 45, 96
1, 8698, Note_off_c, 6, 45, 0
1, 8700, Note_on_c, 6, 57, 96
1, 8709, Note_off_c, 3, 45, 0
1, 8709, Note_off_c, 4, 33, 0
1, 8709, Note_off_c, 5, 65, 0
1, 8710, Note_off_c, 6, 57, 0
1, 8712, Note_on_c, 3, 43, 96
1, 8712, Note_on_c, 4, 31, 96
1, 8712, Note_on_c, 5, 69, 96
1, 8712, Note_on_c, 5, 64, 96
1, 8712, Note_on_c, 5, 61, 96
1, 8712, Note_on_c, 6, 43, 96
1, 8722, Note_off_c, 6, 43, 0
1, 8724, Note_on_c, 6, 55, 96
1, 8730, Note_off_c, 1, 65, 0
1, 8730, Note_off_c, 2, 65, 0
1, 8733, Note_off_c, 3, 43, 0
1, 8733, Note_off_c, 4, 31, 0
1, 8733, Note_off_c, 5, 69, 0
1, 8733, Note_off_c, 5, 64, 0
1, 8733, Note_off_c, 5, 61, 0
1, 8734, Note_off_c, 6, 55, 0
1, 8736, Note_on_c, 3, 41, 96
1, 8736, Note_on_c, 4, 29, 96
1, 8736, Note_on_c, 5, 74, 96
1, 8736, Note_on_c, 5, 69, 96
1, 8736, Note_on_c, 5, 62, 96
1, 8736, Note_on_c, 6, 41, 96
1, 8746, Note_off_c, 6, 41, 0
1, 8748, Note_on_c, 6, 53, 96
1, 8757, Note_off_c, 3, 41, 0
1, 8757, Note_off_c, 4, 29, 0
1, 8757, Note_off_c, 5, 74, 0
1, 8757, Note_off_c, 5, 69, 0
1, 8757, Note_off_c, 5, 62, 0
1, 8758, Note_off_c, 6, 53, 0
1, 8760, Note_on_c, 3, 40, 96
1, 8760, Note_on_c, 4, 28, 96
1, 8760, Note_on_c, 5, 73, 96
1, 8760, Note_on_c, 5, 67, 96
1, 8760, Note_on_c, 5, 64, 96
1, 8760, Note_on_c, 6, 40, 96
1, 8770, Note_off_c, 6, 40, 0
1, 8772, Note_on_c, 6, 52, 96
1, 8781, Note_off_c, 3, 40, 0
1, 8781, Note_off_c, 4, 28, 0
1, 8781, Note_off_c, 5, 73, 0
1, 8781, Note_off_c, 5, 67, 0
1, 8781, Note_off_c, 5, 64, 0
1, 8782, Note_off_c, 6, 52, 0
1, 8784, Note_on_c, 3, 41, 96
1, 8784, Note_on_c, 4, 29, 96
1, 8784, Note_on_c, 5, 74, 96
1, 8784, Note_on_c, 5, 69, 96
1, 8784, Note_on_c, 5, 62, 96
1, 8784, Note_on_c, 6, 41, 96
1, 8805, Note_off_c, 3, 41, 0
1, 8805, Note_off_c, 4, 29, 0
1, 8805, Note_off_c, 5, 74, 0
1, 8805, Note_off_c, 5, 69, 0
1, 8805, Note_off_c, 5, 62, 0
1, 8805, Note_off_c, 6, 41, 0
1, 8808, Note_on_c, 0, 62, 96
1, 8808, Note_on_c, 1, 62, 96
1, 8808, Note_on_c, 2, 65, 96
1, 8808, Note_on_c, 3, 38, 96
1, 8808, Note_on_c, 4, 26, 96
1, 8808, Note_on_c, 5, 62, 96
1, 8808, Note_on_c, 6, 38, 96
1, 8818, Note_off_c, 0, 62, 0
1, 8818, Note_off_c, 1, 62, 0
1, 8818, Note_off_c, 2, 65, 0
1, 8818, Note_off_c, 5, 62, 0
1, 8820, Note_on_c, 0, 64, 96
1, 8820, Note_on_c, 1, 64, 96
1, 8820, Note_on_c, 2, 67, 96
1, 8820, Note_on_c, 5, 64, 96
1, 8829, Note_off_c, 3, 38, 0
1, 8829, Note_off_c, 4, 26, 0
1, 8829, Note_off_c, 6, 38, 0
1, 8830, Note_off_c, 0, 64, 0
1, 8830, Note_off_c, 1, 64, 0
1, 8830, Note_off_c, 2, 67, 0
1, 8830, Note_off_c, 5, 64, 0
1, 8832, Note_on_c, 0, 65, 96
1, 8832, Note_on_c, 1, 65, 96
1, 8832, Note_on_c, 2, 69, 96
1, 8832, Note_on_c, 3, 50, 96
1, 8832, Note_on_c, 4, 38, 96
1, 8832, Note_on_c, 5, 65, 96
1, 8832, Note_on_c, 6, 50, 96
1, 8853, Note_off_c, 0, 65, 0
1, 8853, Note_off_c, 1, 65, 0
1, 8853, Note_off_c, 2, 69, 0
1, 8853, Note_off_c, 3, 50, 0
1, 8853, Note_off_c, 4, 38, 0
1, 8853, Note_off_c, 5, 65, 0
1, 8853, Note_off_c, 6, 50, 0
1, 8856, Note_on_c, 0, 64, 96
1, 8856, Note_on_c, 1, 64, 96
1, 8856, Note_on_c, 2, 67, 96
1, 8856, Note_on_c, 3, 50, 96
1, 8856, Note_on_c, 4, 38, 96
1, 8856, Note_on_c, 5, 64, 96
1, 8856, Note_on_c, 6, 50, 96
1, 8866, Note_off_c, 0, 64, 0
1, 8866, Note_off_c, 1, 64, 0
1, 8866, Note_off_c, 2, 67, 0
1, 8866, Note_off_c, 5, 64, 0
1, 8868, Note_on_c, 0, 65, 96
1, 8868, Note_on_c, 1, 65, 96
1, 8868, Note_on_c, 2, 69, 96
1, 8868, Note_on_c, 5, 65, 96
1, 8877, Note_off_c, 3, 50, 0
1, 8877, Note_off_c, 4, 38, 0
1, 8877, Note_off_c, 6, 50, 0
1, 8878, Note_off_c, 0, 65, 0
1, 8878, Note_off_c, 1, 65, 0
1, 8878, Note_off_c, 2, 69, 0
1, 8878, Note_off_c, 5, 65, 0
1, 8880, Note_on_c, 0, 67, 96
1, 8880, Note_on_c, 1, 67, 96
1, 8880, Note_on_c, 2, 70, 96
1, 8880, Note_on_c, 3, 50, 96
1, 8880, Note_on_c, 4, 38, 96
1, 8880, Note_on_c, 5, 67, 96
1, 8880, Note_on_c, 6, 50, 96
1, 8901, Note_off_c, 0, 67, 0
1, 8901, Note_off_c, 1, 67, 0
1, 8901, Note_off_c, 2, 70, 0
1, 8901, Note_off_c, 3, 50, 0
1, 8901, Note_off_c, 4, 38, 0
1, 8901, Note_off_c, 5, 67, 0
1, 8901, Note_off_c, 6, 50, 0
1, 8904, Note_on_c, 0, 65, 96
1, 8904, Note_on_c, 1, 65, 96
1, 8904, Note_on_c, 2, 69, 96
1, 8904, Note_on_c, 3, 50, 96
1, 8904, Note_on_c, 4, 38, 96
1, 8904, Note_on_c, 5, 65, 96
1, 8904, Note_on_c, 6, 50, 96
1, 8914, Note_off_c, 0, 65, 0
1, 8914, Note_off_c, 1, 65, 0
1, 8914, Note_off_c, 2, 69, 0
1, 8914, Note_off_c, 5, 65, 0
1, 8916, Note_on_c, 0, 67, 96
1, 8916, Note_on_c, 1, 67, 96
1, 8916, Note_on_c, 2, 70, 96
1, 8916, Note_on_c, 5, 67, 96
1, 8925, Note_off_c, 3, 50, 0
1, 8925, Note_off_c, 4, 38, 0
1, 8925, Note_off_c, 6, 50, 0
1, 8926, Note_off_c, 0, 67, 0
1, 8926, Note_off_c, 1, 67, 0
1, 8926, Note_off_c, 2, 70, 0
1, 8926, Note_off_c, 5, 67, 0
1, 8928, Note_on_c, 0, 69, 96
1, 8928, Note_on_c, 1, 69, 96
1, 8928, Note_on_c, 2, 64, 96
1, 8928, Note_on_c, 3, 50, 96
1, 8928, Note_on_c, 4, 38, 96
1, 8928, Note_on_c, 5, 69, 96
1, 8928, Note_on_c, 5, 64, 96
1, 8928, Note_on_c, 6, 50, 96
1, 8938, Note_off_c, 3, 50, 0
1, 8938, Note_off_c, 4, 38, 0
1, 8938, Note_off_c, 6, 50, 0
1, 8940, Note_on_c, 3, 48, 96
1, 8940, Note_on_c, 4, 36, 96
1, 8940, Note_on_c, 6, 48, 96
1, 8949, Note_off_c, 0, 69, 0
1, 8949, Note_off_c, 1, 69, 0
1, 8949, Note_off_c, 2, 64, 0
1, 8949, Note_off_c, 5, 69, 0
1, 8949, Note_off_c, 5, 64, 0
1, 8950, Note_off_c, 3, 48, 0
1, 8950, Note_off_c, 4, 36, 0
1, 8950, Note_off_c, 6, 48, 0
1, 8952, Note_on_c, 0, 65, 96
1, 8952, Note_on_c, 1, 65, 96
1, 8952, Note_on_c, 2, 65, 96
1, 8952, Note_on_c, 3, 50, 96
1, 8952, Note_on_c, 4, 38, 96
1, 8952, Note_on_c, 5, 65, 96
1, 8952, Note_on_c, 6, 50, 96
1, 8962, Note_off_c, 0, 65, 0
1, 8962, Note_off_c, 1, 65, 0
1, 8962, Note_off_c, 3, 50, 0
1, 8962, Note_off_c, 4, 38, 0
1, 8962, Note_off_c, 5, 65, 0
1, 8962, Note_off_c, 6, 50, 0
1, 8964, Note_on_c, 0, 67, 96
1, 8964, Note_on_c, 1, 67, 96
1, 8964, Note_on_c, 3, 52, 96
1, 8964, Note_on_c, 4, 40, 96
1, 8964, Note_on_c, 5, 67, 96
1, 8964, Note_on_c, 6, 52, 96
1, 8973, Note_off_c, 2, 65, 0
1, 8974, Note_off_c, 0, 67, 0
1, 8974, Note_off_c, 1, 67, 0
1, 8974, Note_off_c, 3, 52, 0
1, 8974, Note_off_c, 4, 40, 0
1, 8974, Note_off_c, 5, 67, 0
1, 8974, Note_off_c, 6, 52, 0
1, 8976, Note_on_c, 0, 69, 96
1, 8976, Note_on_c, 1, 69, 96
1, 8976, Note_on_c, 2, 60, 96
1, 8976, Note_on_c, 3, 53, 96
1, 8976, Note_on_c, 4, 41, 96
1, 8976, Note_on_c, 5, 69, 96
1, 8976, Note_on_c, 6, 53, 96
1, 8997, Note_off_c, 0, 69, 0
1, 8997, Note_off_c, 1, 69, 0
1, 8997, Note_off_c, 2, 60, 0
1, 8997, Note_off_c, 3, 53, 0
1, 8997, Note_off_c, 4, 41, 0
1, 8997, Note_off_c, 5, 69, 0
1, 8997, Note_off_c, 6, 53, 0
1, 9000, Note_on_c, 0, 67, 96
1, 9000, Note_on_c, 1, 67, 96
1, 9000, Note_on_c, 2, 58, 96
1, 9000, Note_on_c, 3, 53, 96
1, 9000, Note_on_c, 4, 41, 96
1, 9000, Note_on_c, 5, 67, 96
1, 9000, Note_on_c, 6, 53, 96
1, 9010, Note_off_c, 0, 67, 0
1, 9010, Note_off_c, 1, 67, 0
1, 9010, Note_off_c, 2, 58, 0
1, 9010, Note_off_c, 5, 67, 0
1, 9012, Note_on_c, 0, 69, 96
1, 9012, Note_on_c, 1, 69, 96
1, 9012, Note_on_c, 2, 60, 96
1, 9012, Note_on_c, 5, 69, 96
1, 9021, Note_off_c, 3, 53, 0
1, 9021, Note_off_c, 4, 41, 0
1, 9021, Note_off_c, 6, 53, 0
1, 9022, Note_off_c, 0, 69, 0
1, 9022, Note_off_c, 1, 69, 0
1, 9022, Note_off_c, 2, 60, 0
1, 9022, Note_off_c, 5, 69, 0
1, 9024, Note_on_c, 0, 71, 96
1, 9024, Note_on_c, 1, 71, 96
1, 9024, Note_on_c, 2, 62, 96
1, 9024, Note_on_c, 3, 53, 96
1, 9024, Note_on_c, 4, 41, 96
1, 9024, Note_on_c, 5, 71, 96
1, 9024, Note_on_c, 6, 53, 96
1, 9045, Note_off_c, 0, 71, 0
1, 9045, Note_off_c, 1, 71, 0
1, 9045, Note_off_c, 2, 62, 0
1, 9045, Note_off_c, 3, 53, 0
1, 9045, Note_off_c, 4, 41, 0
1, 9045, Note_off_c, 5, 71, 0
1, 9045, Note_off_c, 6, 53, 0
1, 9048, Note_on_c, 0, 69, 96
1, 9048, Note_on_c, 1, 69, 96
1, 9048, Note_on_c, 2, 60, 96
1, 9048, Note_on_c, 3, 53, 96
1, 9048, Note_on_c, 4, 41, 96
1, 9048, Note_on_c, 5, 69, 96
1, 9048, Note_on_c, 6, 53, 96
1, 9058, Note_off_c, 0, 69, 0
1, 9058, Note_off_c, 1, 69, 0
1, 9058, Note_off_c, 2, 60, 0
1, 9058, Note_off_c, 5, 69, 0
1, 9060, Note_on_c, 0, 71, 96
1, 9060, Note_on_c, 1, 71, 96
1, 9060, Note_on_c, 2, 62, 96
1, 9060, Note_on_c, 5, 71, 96
1, 9069, Note_off_c, 3, 53, 0
1, 9069, Note_off_c, 4, 41, 0
1, 9069, Note_off_c, 6, 53, 0
1, 9070, Note_off_c, 0, 71, 0
1, 9070, Note_off_c, 1, 71, 0
1, 9070, Note_off_c, 2, 62, 0
1, 9070, Note_off_c, 5, 71, 0
1, 9072, Note_on_c, 0, 72, 96
1, 9072, Note_on_c, 1, 72, 96
1, 9072, Note_on_c, 2, 55, 96
1, 9072, Note_on_c, 3, 53, 96
1, 9072, Note_on_c, 4, 41, 96
1, 9072, Note_on_c, 5, 72, 96
1, 9072, Note_on_c, 5, 67, 96
1, 9072, Note_on_c, 6, 53, 96
1, 9082, Note_off_c, 3, 53, 0
1, 9082, Note_off_c, 4, 41, 0
1, 9082, Note_off_c, 6, 53, 0
1, 9084, Note_on_c, 3, 52, 96
1, 9084, Note_on_c, 4, 40, 96
1, 9084, Note_on_c, 6, 52, 96
1, 9093, Note_off_c, 0, 72, 0
1, 9093, Note_off_c, 1, 72, 0
1, 9093, Note_off_c, 2, 55, 0
1, 9093, Note_off_c, 5, 72, 0
1, 9093, Note_off_c, 5, 67, 0
1, 9094, Note_off_c, 3, 52, 0
1, 9094, Note_off_c, 4, 40, 0
1, 9094, Note_off_c, 6, 52, 0
1, 9096, Note_on_c, 0, 69, 96
1, 9096, Note_on_c, 1, 69, 96
1, 9096, Note_on_c, 2, 69, 96
1, 9096, Note_on_c, 3, 53, 96
1, 9096, Note_on_c, 4, 41, 96
1, 9096, Note_on_c, 5, 69, 96
1, 9096, Note_on_c, 6, 53, 96
1, 9106, Note_off_c, 0, 69, 0
1, 9106, Note_off_c, 1, 69, 0
1, 9106, Note_off_c, 3, 53, 0
1, 9106, Note_off_c, 4, 41, 0
1, 9106, Note_off_c, 5, 69, 0
1, 9106, Note_off_c, 6, 53, 0
1, 9108, Note_on_c, 0, 71, 96
1, 9108, Note_on_c, 1, 71, 96
1, 9108, Note_on_c, 3, 55, 96
1, 9108, Note_on_c, 4, 43, 96
1, 9108, Note_on_c, 5, 71, 96
1, 9108, Note_on_c, 6, 55, 96
1, 9117, Note_off_c, 2, 69, 0
1, 9118, Note_off_c, 0, 71, 0
1, 9118, Note_off_c, 1, 71, 0
1, 9118, Note_off_c, 3, 55, 0
1, 9118, Note_off_c, 4, 43, 0
1, 9118, Note_off_c, 5, 71, 0
1, 9118, Note_off_c, 6, 55, 0
1, 9120, Note_on_c, 0, 72, 96
1, 9120, Note_on_c, 1, 72, 96
1, 9120, Note_on_c, 2, 64, 96
1, 9120, Note_on_c, 3, 57, 96
1, 9120, Note_on_c, 4, 45, 96
1, 9120, Note_on_c, 5, 72, 96
1, 9120, Note_on_c, 6, 57, 96
1, 9141, Note_off_c, 0, 72, 0
1, 9141, Note_off_c, 1, 72, 0
1, 9141, Note_off_c, 2, 64, 0
1, 9141, Note_off_c, 3, 57, 0
1, 9141, Note_off_c, 4, 45, 0
1, 9141, Note_off_c, 5, 72, 0
1, 9141, Note_off_c, 6, 57, 0
1, 9144, Note_on_c, 0, 71, 96
1, 9144, Note_on_c, 1, 71, 96
1, 9144, Note_on_c, 2, 62, 96
1, 9144, Note_on_c, 3, 57, 96
1, 9144, Note_on_c, 4, 45, 96
1, 9144, Note_on_c, 5, 71, 96
1, 9144, Note_on_c, 6, 57, 96
1, 9154, Note_off_c, 0, 71, 0
1, 9154, Note_off_c, 1, 71, 0
1, 9154, Note_off_c, 2, 62, 0
1, 9154, Note_off_c, 5, 71, 0
1, 9156, Note_on_c, 0, 72, 96
1, 9156, Note_on_c, 1, 72, 96
1, 9156, Note_on_c, 2, 64, 96
1, 9156, Note_on_c, 5, 72, 96
1, 9165, Note_off_c, 3, 57, 0
1, 9165, Note_off_c, 4, 45, 0
1, 9165, Note_off_c, 6, 57, 0
1, 9166, Note_off_c, 0, 72, 0
1, 9166, Note_off_c, 1, 72, 0
1, 9166, Note_off_c, 2, 64, 0
1, 9166, Note_off_c, 5, 72, 0
1, 9168, Note_on_c, 0, 74, 96
1, 9168, Note_on_c, 1, 74, 96
1, 9168, Note_on_c, 2, 65, 96
1, 9168, Note_on_c, 3, 57, 96
1, 9168, Note_on_c, 4, 45, 96
1, 9168, Note_on_c, 5, 74, 96
1, 9168, Note_on_c, 6, 57, 96
1, 9189, Note_off_c, 0, 74, 0
1, 9189, Note_off_c, 1, 74, 0
1, 9189, Note_off_c, 2, 65, 0
1, 9189, Note_off_c, 3, 57, 0
1, 9189, Note_off_c, 4, 45, 0
1, 9189, Note_off_c, 5, 74, 0
1, 9189, Note_off_c, 6, 57, 0
1, 9192, Note_on_c, 0, 72, 96
1, 9192, Note_on_c, 1, 72, 96
1, 9192, Note_on_c, 2, 64, 96
1, 9192, Note_on_c, 3, 57, 96
1, 9192, Note_on_c, 4, 45, 96
1, 9192, Note_on_c, 5, 72, 96
1, 9192, Note_on_c, 6, 57, 96
1, 9202, Note_off_c, 0, 72, 0
1, 9202, Note_off_c, 1, 72, 0
1, 9202, Note_off_c, 2, 64, 0
1, 9202, Note_off_c, 5, 72, 0
1, 9204, Note_on_c, 0, 74, 96
1, 9204, Note_on_c, 1, 74, 96
1, 9204, Note_on_c, 2, 65, 96
1, 9204, Note_on_c, 5, 74, 96
1, 9213, Note_off_c, 3, 57, 0
1, 9213, Note_off_c, 4, 45, 0
1, 9213, Note_off_c, 6, 57, 0
1, 9214, Note_off_c, 0, 74, 0
1, 9214, Note_off_c, 1, 74, 0
1, 9214, Note_off_c, 2, 65, 0
1, 9214, Note_off_c, 5, 74, 0
1, 9216, Note_on_c, 0, 76, 96
1, 9216, Note_on_c, 1, 76, 96
1, 9216, Note_on_c, 2, 59, 96
1, 9216, Note_on_c, 3, 57, 96
1, 9216, Note_on_c, 4, 45, 96
1, 9216, Note_on_c, 5, 76, 96
1, 9216, Note_on_c, 6, 57, 96
1, 9237, Note_off_c, 0, 76, 0
1, 9237, Note_off_c, 1, 76, 0
1, 9237, Note_off_c, 3, 57, 0
1, 9237, Note_off_c, 4, 45, 0
1, 9237, Note_off_c, 5, 76, 0
1, 9237, Note_off_c, 6, 57, 0
1, 9240, Note_on_c, 0, 64, 96
1, 9240, Note_on_c, 1, 64, 96
1, 9240, Note_on_c, 3, 55, 96
1, 9240, Note_on_c, 4, 43, 96
1, 9240, Note_on_c, 5, 64, 96
1, 9240, Note_on_c, 6, 55, 96
1, 9250, Note_off_c, 3, 55, 0
1, 9250, Note_off_c, 4, 43, 0
1, 9250, Note_off_c, 6, 55, 0
1, 9252, Note_on_c, 3, 53, 96
1, 9252, Note_on_c, 4, 41, 96
1, 9252, Note_on_c, 6, 53, 96
1, 9258, Note_off_c, 2, 59, 0
1, 9261, Note_off_c, 0, 64, 0
1, 9261, Note_off_c, 1, 64, 0
1, 9261, Note_off_c, 5, 64, 0
1, 9262, Note_off_c, 3, 53, 0
1, 9262, Note_off_c, 4, 41, 0
1, 9262, Note_off_c, 6, 53, 0
1, 9264, Note_on_c, 0, 76, 96
1, 9264, Note_on_c, 1, 76, 96
1, 9264, Note_on_c, 3, 55, 96
1, 9264, Note_on_c, 4, 43, 96
1, 9264, Note_on_c, 5, 76, 96
1, 9264, Note_on_c, 6, 55, 96
1, 9285, Note_off_c, 0, 76, 0
1, 9285, Note_off_c, 1, 76, 0
1, 9285, Note_off_c, 3, 55, 0
1, 9285, Note_off_c, 4, 43, 0
1, 9285, Note_off_c, 5, 76, 0
1, 9285, Note_off_c, 6, 55, 0
1, 9288, Note_on_c, 0, 74, 96
1, 9288, Note_on_c, 1, 74, 96
1, 9288, Note_on_c, 2, 67, 96
1, 9288, Note_on_c, 3, 52, 96
1, 9288, Note_on_c, 4, 40, 96
1, 9288, Note_on_c, 5, 74, 96
1, 9288, Note_on_c, 6, 52, 96
1, 9298, Note_off_c, 2, 67, 0
1, 9298, Note_off_c, 3, 52, 0
1, 9298, Note_off_c, 4, 40, 0
1, 9298, Note_off_c, 6, 52, 0
1, 9300, Note_on_c, 2, 65, 96
1, 9300, Note_on_c, 3, 53, 96
1, 9300, Note_on_c, 4, 41, 96
1, 9300, Note_on_c, 6, 53, 96
1, 9309, Note_off_c, 0, 74, 0
1, 9309, Note_off_c, 1, 74, 0
1, 9309, Note_off_c, 5, 74, 0
1, 9310, Note_off_c, 2, 65, 0
1, 9310, Note_off_c, 3, 53, 0
1, 9310, Note_off_c, 4, 41, 0
1, 9310, Note_off_c, 6, 53, 0
1, 9312, Note_on_c, 0, 73, 96
1, 9312, Note_on_c, 1, 73, 96
1, 9312, Note_on_c, 2, 64, 96
1, 9312, Note_on_c, 3, 55, 96
1, 9312, Note_on_c, 4, 43, 96
1, 9312, Note_on_c, 5, 73, 96
1, 9312, Note_on_c, 6, 55, 96
1, 9322, Note_off_c, 2, 64, 0
1, 9324, Note_on_c, 2, 62, 96
1, 9333, Note_off_c, 0, 73, 0
1, 9333, Note_off_c, 1, 73, 0
1, 9333, Note_off_c, 3, 55, 0
1, 9333, Note_off_c, 4, 43, 0
1, 9333, Note_off_c, 5, 73, 0
1, 9333, Note_off_c, 6, 55, 0
1, 9334, Note_off_c, 2, 62, 0
1, 9336, Note_on_c, 0, 69, 96
1, 9336, Note_on_c, 1, 69, 96
1, 9336, Note_on_c, 2, 61, 96
1, 9336, Note_on_c, 3, 55, 96
1, 9336, Note_on_c, 4, 43, 96
1, 9336, Note_on_c, 5, 69, 96
1, 9336, Note_on_c, 6, 55, 96
1, 9346, Note_off_c, 2, 61, 0
1, 9348, Note_on_c, 2, 59, 96
1, 9357, Note_off_c, 0, 69, 0
1, 9357, Note_off_c, 1, 69, 0
1, 9357, Note_off_c, 3, 55, 0
1, 9357, Note_off_c, 4, 43, 0
1, 9357, Note_off_c, 6, 55, 0
1, 9358, Note_off_c, 2, 59, 0
1, 9360, Note_on_c, 0, 74, 96
1, 9360, Note_on_c, 1, 74, 96
1, 9360, Note_on_c, 2, 57, 96
1, 9360, Note_on_c, 3, 55, 96
1, 9360, Note_on_c, 4, 43, 96
1, 9360, Note_on_c, 5, 74, 96
1, 9360, Note_on_c, 6, 55, 96
1, 9360, Note_on_c, 6, 62, 96
1, 9378, Note_off_c, 5, 69, 0
1, 9381, Note_off_c, 0, 74, 0
1, 9381, Note_off_c, 1, 74, 0
1, 9381, Note_off_c, 2, 57, 0
1, 9381, Note_off_c, 3, 55, 0
1, 9381, Note_off_c, 4, 43, 0
1, 9381, Note_off_c, 5, 74, 0
1, 9381, Note_off_c, 6, 55, 0
1, 9384, Note_on_c, 0, 62, 96
1, 9384, Note_on_c, 1, 62, 96
1, 9384, Note_on_c, 2, 59, 96
1, 9384, Note_on_c, 3, 53, 96
1, 9384, Note_on_c, 4, 41, 96
1, 9384, Note_on_c, 6, 53, 96
1, 9384, Note_off_c, 6, 62, 0
1, 9384, Note_on_c, 6, 62, 96
1, 9394, Note_off_c, 2, 59, 0
1, 9394, Note_off_c, 3, 53, 0
1, 9394, Note_off_c, 4, 41, 0
1, 9394, Note_off_c, 6, 53, 0
1, 9396, Note_on_c, 2, 61, 96
1, 9396, Note_on_c, 3, 52, 96
1, 9396, Note_on_c, 4, 40, 96
1, 9396, Note_on_c, 6, 52, 96
1, 9405, Note_off_c, 0, 62, 0
1, 9405, Note_off_c, 1, 62, 0
1, 9405, Note_off_c, 6, 62, 0
1, 9406, Note_off_c, 2, 61, 0
1, 9406, Note_off_c, 3, 52, 0
1, 9406, Note_off_c, 4, 40, 0
1, 9406, Note_off_c, 6, 52, 0
1, 9408, Note_on_c, 0, 74, 96
1, 9408, Note_on_c, 1, 74, 96
1, 9408, Note_on_c, 2, 62, 96
1, 9408, Note_on_c, 3, 53, 96
1, 9408, Note_on_c, 4, 41, 96
1, 9408, Note_on_c, 5, 74, 96
1, 9408, Note_on_c, 6, 53, 96
1, 9418, Note_off_c, 2, 62, 0
1, 9420, Note_on_c, 2, 64, 96
1, 9429, Note_off_c, 0, 74, 0
1, 9429, Note_off_c, 1, 74, 0
1, 9429, Note_off_c, 3, 53, 0
1, 9429, Note_off_c, 4, 41, 0
1, 9429, Note_off_c, 5, 74, 0
1, 9429, Note_off_c, 6, 53, 0
1, 9430, Note_off_c, 2, 64, 0
1, 9432, Note_on_c, 0, 74, 96
1, 9432, Note_on_c, 1, 74, 96
1, 9432, Note_on_c, 2, 65, 96
1, 9432, Note_on_c, 3, 62, 96
1, 9432, Note_on_c, 4, 50, 96
1, 9432, Note_on_c, 5, 74, 96
1, 9432, Note_on_c, 6, 62, 96
1, 9442, Note_off_c, 0, 74, 0
1, 9442, Note_off_c, 1, 74, 0
1, 9442, Note_off_c, 2, 65, 0
1, 9442, Note_off_c, 5, 74, 0
1, 9444, Note_on_c, 0, 76, 96
1, 9444, Note_on_c, 1, 76, 96
1, 9444, Note_on_c, 2, 67, 96
1, 9444, Note_on_c, 5, 76, 96
1, 9453, Note_off_c, 3, 62, 0
1, 9453, Note_off_c, 4, 50, 0
1, 9453, Note_off_c, 6, 62, 0
1, 9454, Note_off_c, 0, 76, 0
1, 9454, Note_off_c, 1, 76, 0
1, 9454, Note_off_c, 2, 67, 0
1, 9454, Note_off_c, 5, 76, 0
1, 9456, Note_on_c, 0, 77, 96
1, 9456, Note_on_c, 1, 77, 96
1, 9456, Note_on_c, 2, 69, 96
1, 9456, Note_on_c, 3, 50, 96
1, 9456, Note_on_c, 4, 38, 96
1, 9456, Note_on_c, 5, 77, 96
1, 9456, Note_on_c, 6, 50, 96
1, 9477, Note_off_c, 0, 77, 0
1, 9477, Note_off_c, 1, 77, 0
1, 9477, Note_off_c, 2, 69, 0
1, 9477, Note_off_c, 3, 50, 0
1, 9477, Note_off_c, 4, 38, 0
1, 9477, Note_off_c, 5, 77, 0
1, 9477, Note_off_c, 6, 50, 0
1, 9480, Note_on_c, 0, 79, 96
1, 9480, Note_on_c, 1, 79, 96
1, 9480, Note_on_c, 2, 62, 96
1, 9480, Note_on_c, 3, 52, 96
1, 9480, Note_on_c, 4, 40, 96
1, 9480, Note_on_c, 5, 79, 96
1, 9480, Note_on_c, 6, 52, 96
1, 9490, Note_off_c, 0, 79, 0
1, 9490, Note_off_c, 1, 79, 0
1, 9490, Note_off_c, 3, 52, 0
1, 9490, Note_off_c, 4, 40, 0
1, 9490, Note_off_c, 5, 79, 0
1, 9490, Note_off_c, 6, 52, 0
1, 9492, Note_on_c, 0, 81, 96
1, 9492, Note_on_c, 1, 81, 96
1, 9492, Note_on_c, 3, 53, 96
1, 9492, Note_on_c, 4, 41, 96
1, 9492, Note_on_c, 5, 81, 96
1, 9492, Note_on_c, 6, 53, 96
1, 9501, Note_off_c, 2, 62, 0
1, 9502, Note_off_c, 0, 81, 0
1, 9502, Note_off_c, 1, 81, 0
1, 9502, Note_off_c, 3, 53, 0
1, 9502, Note_off_c, 4, 41, 0
1, 9502, Note_off_c, 5, 81, 0
1, 9502, Note_off_c, 6, 53, 0
1, 9504, Note_on_c, 0, 82, 96
1, 9504, Note_on_c, 1, 82, 96
1, 9504, Note_on_c, 2, 74, 96
1, 9504, Note_on_c, 3, 55, 96
1, 9504, Note_on_c, 4, 43, 96
1, 9504, Note_on_c, 5, 82, 96
1, 9504, Note_on_c, 6, 55, 96
1, 9525, Note_off_c, 0, 82, 0
1, 9525, Note_off_c, 1, 82, 0
1, 9525, Note_off_c, 2, 74, 0
1, 9525, Note_off_c, 3, 55, 0
1, 9525, Note_off_c, 4, 43, 0
1, 9525, Note_off_c, 5, 82, 0
1, 9525, Note_off_c, 6, 55, 0
1, 9528, Note_on_c, 0, 79, 96
1, 9528, Note_on_c, 1, 79, 96
1, 9528, Note_on_c, 2, 70, 96
1, 9528, Note_on_c, 3, 57, 96
1, 9528, Note_on_c, 4, 45, 96
1, 9528, Note_on_c, 5, 79, 96
1, 9528, Note_on_c, 6, 57, 96
1, 9538, Note_off_c, 0, 79, 0
1, 9538, Note_off_c, 1, 79, 0
1, 9538, Note_off_c, 2, 70, 0
1, 9538, Note_off_c, 3, 57, 0
1, 9538, Note_off_c, 4, 45, 0
1, 9538, Note_off_c, 5, 79, 0
1, 9538, Note_off_c, 6, 57, 0
1, 9540, Note_on_c, 0, 77, 96
1, 9540, Note_on_c, 1, 77, 96
1, 9540, Note_on_c, 2, 69, 96
1, 9540, Note_on_c, 3, 58, 96
1, 9540, Note_on_c, 4, 46, 96
1, 9540, Note_on_c, 5, 77, 96
1, 9540, Note_on_c, 6, 58, 96
1, 9550, Note_off_c, 0, 77, 0
1, 9550, Note_off_c, 1, 77, 0
1, 9550, Note_off_c, 2, 69, 0
1, 9550, Note_off_c, 3, 58, 0
1, 9550, Note_off_c, 4, 46, 0
1, 9550, Note_off_c, 5, 77, 0
1, 9550, Note_off_c, 6, 58, 0
1, 9552, Note_on_c, 0, 76, 96
1, 9552, Note_on_c, 1, 76, 96
1, 9552, Note_on_c, 2, 67, 96
1, 9552, Note_on_c, 3, 60, 96
1, 9552, Note_on_c, 4, 48, 96
1, 9552, Note_on_c, 5, 76, 96
1, 9552, Note_on_c, 6, 60, 96
1, 9573, Note_off_c, 0, 76, 0
1, 9573, Note_off_c, 1, 76, 0
1, 9573, Note_off_c, 2, 67, 0
1, 9573, Note_off_c, 3, 60, 0
1, 9573, Note_off_c, 4, 48, 0
1, 9573, Note_off_c, 5, 76, 0
1, 9573, Note_off_c, 6, 60, 0
1, 9576, Note_on_c, 0, 72, 96
1, 9576, Note_on_c, 1, 72, 96
1, 9576, Note_on_c, 2, 64, 96
1, 9576, Note_on_c, 3, 58, 96
1, 9576, Note_on_c, 4, 46, 96
1, 9576, Note_on_c, 5, 72, 96
1, 9576, Note_on_c, 6, 58, 96
1, 9586, Note_off_c, 0, 72, 0
1, 9586, Note_off_c, 1, 72, 0
1, 9586, Note_off_c, 2, 64, 0
1, 9586, Note_off_c, 5, 72, 0
1, 9588, Note_on_c, 0, 74, 96
1, 9588, Note_on_c, 1, 74, 96
1, 9588, Note_on_c, 2, 65, 96
1, 9588, Note_on_c, 5, 74, 96
1, 9597, Note_off_c, 3, 58, 0
1, 9597, Note_off_c, 4, 46, 0
1, 9597, Note_off_c, 6, 58, 0
1, 9598, Note_off_c, 0, 74, 0
1, 9598, Note_off_c, 1, 74, 0
1, 9598, Note_off_c, 2, 65, 0
1, 9598, Note_off_c, 5, 74, 0
1, 9600, Note_on_c, 0, 76, 96
1, 9600, Note_on_c, 1, 76, 96
1, 9600, Note_on_c, 2, 67, 96
1, 9600, Note_on_c, 3, 57, 96
1, 9600, Note_on_c, 4, 45, 96
1, 9600, Note_on_c, 5, 76, 96
1, 9600, Note_on_c, 6, 57, 96
1, 9621, Note_off_c, 0, 76, 0
1, 9621, Note_off_c, 1, 76, 0
1, 9621, Note_off_c, 2, 67, 0
1, 9621, Note_off_c, 3, 57, 0
1, 9621, Note_off_c, 4, 45, 0
1, 9621, Note_off_c, 5, 76, 0
1, 9621, Note_off_c, 6, 57, 0
1, 9624, Note_on_c, 0, 77, 96
1, 9624, Note_on_c, 1, 77, 96
1, 9624, Note_on_c, 2, 60, 96
1, 9624, Note_on_c, 3, 55, 96
1, 9624, Note_on_c, 4, 43, 96
1, 9624, Note_on_c, 5, 77, 96
1, 9624, Note_on_c, 6, 55, 96
1, 9634, Note_off_c, 0, 77, 0
1, 9634, Note_off_c, 1, 77, 0
1, 9634, Note_off_c, 5, 77, 0
1, 9636, Note_on_c, 0, 79, 96
1, 9636, Note_on_c, 1, 79, 96
1, 9636, Note_on_c, 5, 79, 96
1, 9645, Note_off_c, 2, 60, 0
1, 9645, Note_off_c, 3, 55, 0
1, 9645, Note_off_c, 4, 43, 0
1, 9645, Note_off_c, 6, 55, 0
1, 9646, Note_off_c, 0, 79, 0
1, 9646, Note_off_c, 1, 79, 0
1, 9646, Note_off_c, 5, 79, 0
1, 9648, Note_on_c, 0, 81, 96
1, 9648, Note_on_c, 1, 81, 96
1, 9648, Note_on_c, 2, 72, 96
1, 9648, Note_on_c, 3, 53, 96
1, 9648, Note_on_c, 4, 41, 96
1, 9648, Note_on_c, 5, 81, 96
1, 9648, Note_on_c, 6, 53, 96
1, 9669, Note_off_c, 0, 81, 0
1, 9669, Note_off_c, 1, 81, 0
1, 9669, Note_off_c, 2, 72, 0
1, 9669, Note_off_c, 3, 53, 0
1, 9669, Note_off_c, 4, 41, 0
1, 9669, Note_off_c, 5, 81, 0
1, 9669, Note_off_c, 6, 53, 0
1, 9672, Note_on_c, 0, 77, 96
1, 9672, Note_on_c, 1, 77, 96
1, 9672, Note_on_c, 2, 69, 96
1, 9672, Note_on_c, 3, 55, 96
1, 9672, Note_on_c, 4, 43, 96
1, 9672, Note_on_c, 5, 77, 96
1, 9672, Note_on_c, 6, 55, 96
1, 9682, Note_off_c, 0, 77, 0
1, 9682, Note_off_c, 1, 77, 0
1, 9682, Note_off_c, 2, 69, 0
1, 9682, Note_off_c, 3, 55, 0
1, 9682, Note_off_c, 4, 43, 0
1, 9682, Note_off_c, 5, 77, 0
1, 9682, Note_off_c, 6, 55, 0
1, 9684, Note_on_c, 0, 76, 96
1, 9684, Note_on_c, 1, 76, 96
1, 9684, Note_on_c, 2, 67, 96
1, 9684, Note_on_c, 3, 57, 96
1, 9684, Note_on_c, 4, 45, 96
1, 9684, Note_on_c, 5, 76, 96
1, 9684, Note_on_c, 6, 57, 96
1, 9694, Note_off_c, 0, 76, 0
1, 9694, Note_off_c, 1, 76, 0
1, 9694, Note_off_c, 2, 67, 0
1, 9694, Note_off_c, 3, 57, 0
1, 9694, Note_off_c, 4, 45, 0
1, 9694, Note_off_c, 5, 76, 0
1, 9694, Note_off_c, 6, 57, 0
1, 9696, Note_on_c, 0, 74, 96
1, 9696, Note_on_c, 1, 74, 96
1, 9696, Note_on_c, 2, 65, 96
1, 9696, Note_on_c, 3, 58, 96
1, 9696, Note_on_c, 4, 46, 96
1, 9696, Note_on_c, 5, 74, 96
1, 9696, Note_on_c, 6, 58, 96
1, 9717, Note_off_c, 0, 74, 0
1, 9717, Note_off_c, 1, 74, 0
1, 9717, Note_off_c, 2, 65, 0
1, 9717, Note_off_c, 3, 58, 0
1, 9717, Note_off_c, 4, 46, 0
1, 9717, Note_off_c, 5, 74, 0
1, 9717, Note_off_c, 6, 58, 0
1, 9720, Note_on_c, 0, 86, 96
1, 9720, Note_on_c, 1, 86, 96
1, 9720, Note_on_c, 2, 65, 96
1, 9720, Note_on_c, 3, 57, 96
1, 9720, Note_on_c, 4, 45, 96
1, 9720, Note_on_c, 5, 86, 96
1, 9720, Note_on_c, 6, 57, 96
1, 9730, Note_off_c, 0, 86, 0
1, 9730, Note_off_c, 1, 86, 0
1, 9730, Note_off_c, 5, 86, 0
1, 9732, Note_on_c, 0, 85, 96
1, 9732, Note_on_c, 1, 85, 96
1, 9732, Note_on_c, 5, 85, 96
1, 9741, Note_off_c, 2, 65, 0
1, 9741, Note_off_c, 3, 57, 0
1, 9741, Note_off_c, 4, 45, 0
1, 9741, Note_off_c, 6, 57, 0
1, 9742, Note_off_c, 0, 85, 0
1, 9742, Note_off_c, 1, 85, 0
1, 9742, Note_off_c, 5, 85, 0
1, 9744, Note_on_c, 0, 86, 96
1, 9744, Note_on_c, 1, 86, 96
1, 9744, Note_on_c, 2, 70, 96
1, 9744, Note_on_c, 3, 55, 96
1, 9744, Note_on_c, 4, 43, 96
1, 9744, Note_on_c, 5, 86, 96
1, 9744, Note_on_c, 6, 55, 96
1, 9765, Note_off_c, 0, 86, 0
1, 9765, Note_off_c, 1, 86, 0
1, 9765, Note_off_c, 2, 70, 0
1, 9765, Note_off_c, 3, 55, 0
1, 9765, Note_off_c, 4, 43, 0
1, 9765, Note_off_c, 5, 86, 0
1, 9765, Note_off_c, 6, 55, 0
1, 9768, Note_on_c, 0, 82, 96
1, 9768, Note_on_c, 1, 82, 96
1, 9768, Note_on_c, 2, 74, 96
1, 9768, Note_on_c, 3, 53, 96
1, 9768, Note_on_c, 4, 41, 96
1, 9768, Note_on_c, 5, 82, 96
1, 9768, Note_on_c, 6, 53, 96
1, 9789, Note_off_c, 0, 82, 0
1, 9789, Note_off_c, 1, 82, 0
1, 9789, Note_off_c, 2, 74, 0
1, 9789, Note_off_c, 3, 53, 0
1, 9789, Note_off_c, 4, 41, 0
1, 9789, Note_off_c, 5, 82, 0
1, 9789, Note_off_c, 6, 53, 0
1, 9792, Note_on_c, 0, 79, 96
1, 9792, Note_on_c, 1, 79, 96
1, 9792, Note_on_c, 2, 70, 96
1, 9792, Note_on_c, 3, 52, 96
1, 9792, Note_on_c, 4, 40, 96
1, 9792, Note_on_c, 5, 79, 96
1, 9792, Note_on_c, 6, 52, 96
1, 9813, Note_off_c, 3, 52, 0
1, 9813, Note_off_c, 4, 40, 0
1, 9813, Note_off_c, 6, 52, 0
1, 9816, Note_off_c, 0, 79, 0
1, 9816, Note_on_c, 0, 78, 96
1, 9816, Note_off_c, 1, 79, 0
1, 9816, Note_on_c, 1, 78, 96
1, 9816, Note_on_c, 3, 50, 96
1, 9816, Note_on_c, 4, 38, 96
1, 9816, Note_off_c, 5, 79, 0
1, 9816, Note_on_c, 5, 78, 96
1, 9816, Note_on_c, 6, 50, 96
1, 9834, Note_off_c, 2, 70, 0
1, 9837, Note_off_c, 3, 50, 0
1, 9837, Note_off_c, 4, 38, 0
1, 9837, Note_off_c, 6, 50, 0
1, 9840, Note_off_c, 0, 78, 0
1, 9840, Note_on_c, 0, 79, 96
1, 9840, Note_off_c, 1, 78, 0
1, 9840, Note_on_c, 1, 79, 96
1, 9840, Note_on_c, 3, 49, 96
1, 9840, Note_on_c, 4, 37, 96
1, 9840, Note_off_c, 5, 78, 0
1, 9840, Note_on_c, 5, 79, 96
1, 9840, Note_on_c, 6, 49, 96
1, 9861, Note_off_c, 0, 79, 0
1, 9861, Note_off_c, 1, 79, 0
1, 9861, Note_off_c, 3, 49, 0
1, 9861, Note_off_c, 4, 37, 0
1, 9861, Note_off_c, 5, 79, 0
1, 9861, Note_off_c, 6, 49, 0
1, 9864, Note_on_c, 0, 82, 96
1, 9864, Note_on_c, 1, 82, 96
1, 9864, Note_on_c, 2, 67, 96
1, 9864, Note_on_c, 3, 50, 96
1, 9864, Note_on_c, 4, 38, 96
1, 9864, Note_on_c, 5, 82, 96
1, 9864, Note_on_c, 6, 50, 96
1, 9874, Note_off_c, 0, 82, 0
1, 9874, Note_off_c, 1, 82, 0
1, 9874, Note_off_c, 5, 82, 0
1, 9876, Note_on_c, 0, 81, 96
1, 9876, Note_on_c, 1, 81, 96
1, 9876, Note_off_c, 2, 67, 0
1, 9876, Note_on_c, 2, 65, 96
1, 9876, Note_on_c, 5, 81, 96
1, 9885, Note_off_c, 3, 50, 0
1, 9885, Note_off_c, 4, 38, 0
1, 9885, Note_off_c, 6, 50, 0
1, 9886, Note_off_c, 0, 81, 0
1, 9886, Note_off_c, 1, 81, 0
1, 9886, Note_off_c, 5, 81, 0
1, 9888, Note_on_c, 0, 82, 96
1, 9888, Note_on_c, 1, 82, 96
1, 9888, Note_off_c, 2, 65, 0
1, 9888, Note_on_c, 2, 67, 96
1, 9888, Note_on_c, 3, 52, 96
1, 9888, Note_on_c, 4, 40, 96
1, 9888, Note_on_c, 5, 82, 96
1, 9888, Note_on_c, 6, 52, 96
1, 9909, Note_off_c, 0, 82, 0
1, 9909, Note_off_c, 1, 82, 0
1, 9909, Note_off_c, 2, 67, 0
1, 9909, Note_off_c, 3, 52, 0
1, 9909, Note_off_c, 4, 40, 0
1, 9909, Note_off_c, 5, 82, 0
1, 9909, Note_off_c, 6, 52, 0
1, 9912, Note_on_c, 0, 79, 96
1, 9912, Note_on_c, 1, 79, 96
1, 9912, Note_on_c, 2, 70, 96
1, 9912, Note_on_c, 3, 53, 96
1, 9912, Note_on_c, 4, 41, 96
1, 9912, Note_on_c, 5, 79, 96
1, 9912, Note_on_c, 6, 53, 96
1, 9924, Note_off_c, 2, 70, 0
1, 9924, Note_on_c, 2, 69, 96
1, 9933, Note_off_c, 0, 79, 0
1, 9933, Note_off_c, 1, 79, 0
1, 9933, Note_off_c, 3, 53, 0
1, 9933, Note_off_c, 4, 41, 0
1, 9933, Note_off_c, 5, 79, 0
1, 9933, Note_off_c, 6, 53, 0
1, 9936, Note_on_c, 0, 75, 96
1, 9936, Note_on_c, 1, 75, 96
1, 9936, Note_off_c, 2, 69, 0
1, 9936, Note_on_c, 2, 70, 96
1, 9936, Note_on_c, 3, 55, 96
1, 9936, Note_on_c, 4, 43, 96
1, 9936, Note_on_c, 5, 75, 96
1, 9936, Note_on_c, 6, 55, 96
1, 9957, Note_off_c, 2, 70, 0
1, 9957, Note_off_c, 3, 55, 0
1, 9957, Note_off_c, 4, 43, 0
1, 9957, Note_off_c, 6, 55, 0
1, 9960, Note_off_c, 0, 75, 0
1, 9960, Note_on_c, 0, 74, 96
1, 9960, Note_off_c, 1, 75, 0
1, 9960, Note_on_c, 1, 74, 96
1, 9960, Note_on_c, 2, 69, 96
1, 9960, Note_on_c, 3, 53, 96
1, 9960, Note_on_c, 4, 41, 96
1, 9960, Note_off_c, 5, 75, 0
1, 9960, Note_on_c, 5, 74, 96
1, 9960, Note_on_c, 6, 53, 96
1, 9981, Note_off_c, 2, 69, 0
1, 9981, Note_off_c, 3, 53, 0
1, 9981, Note_off_c, 4, 41, 0
1, 9981, Note_off_c, 6, 53, 0
1, 9984, Note_off_c, 0, 74, 0
1, 9984, Note_on_c, 0, 75, 96
1, 9984, Note_off_c, 1, 74, 0
1, 9984, Note_on_c, 1, 75, 96
1, 9984, Note_on_c, 2, 70, 96
1, 9984, Note_on_c, 3, 55, 96
1, 9984, Note_on_c, 4, 43, 96
1, 9984, Note_off_c, 5, 74, 0
1, 9984, Note_on_c, 5, 75, 96
1, 9984, Note_on_c, 6, 55, 96
1, 10005, Note_off_c, 0, 75, 0
1, 10005, Note_off_c, 1, 75, 0
1, 10005, Note_off_c, 2, 70, 0
1, 10005, Note_off_c, 3, 55, 0
1, 10005, Note_off_c, 4, 43, 0
1, 10005, Note_off_c, 5, 75, 0
1, 10005, Note_off_c, 6, 55, 0
1, 10008, Note_on_c, 0, 79, 96
1, 10008, Note_on_c, 1, 79, 96
1, 10008, Note_on_c, 2, 72, 96
1, 10008, Note_on_c, 3, 57, 96
1, 10008, Note_on_c, 4, 45, 96
1, 10008, Note_on_c, 5, 79, 96
1, 10008, Note_on_c, 6, 57, 96
1, 10018, Note_off_c, 0, 79, 0
1, 10018, Note_off_c, 1, 79, 0
1, 10018, Note_off_c, 5, 79, 0
1, 10020, Note_on_c, 0, 78, 96
1, 10020, Note_on_c, 1, 78, 96
1, 10020, Note_on_c, 5, 78, 96
1, 10029, Note_off_c, 2, 72, 0
1, 10029, Note_off_c, 3, 57, 0
1, 10029, Note_off_c, 4, 45, 0
1, 10029, Note_off_c, 6, 57, 0
1, 10030, Note_off_c, 0, 78, 0
1, 10030, Note_off_c, 1, 78, 0
1, 10030, Note_off_c, 5, 78, 0
1, 10032, Note_on_c, 0, 79, 96
1, 10032, Note_on_c, 1, 79, 96
1, 10032, Note_on_c, 2, 74, 96
1, 10032, Note_on_c, 3, 58, 96
1, 10032, Note_on_c, 4, 46, 96
1, 10032, Note_on_c, 5, 79, 96
1, 10032, Note_on_c, 6, 58, 96
1, 10053, Note_off_c, 0, 79, 0
1, 10053, Note_off_c, 1, 79, 0
1, 10053, Note_off_c, 2, 74, 0
1, 10053, Note_off_c, 3, 58, 0
1, 10053, Note_off_c, 4, 46, 0
1, 10053, Note_off_c, 5, 79, 0
1, 10053, Note_off_c, 6, 58, 0
1, 10056, Note_on_c, 0, 75, 96
1, 10056, Note_on_c, 1, 75, 96
1, 10056, Note_on_c, 2, 70, 96
1, 10056, Note_on_c, 3, 55, 96
1, 10056, Note_on_c, 4, 43, 96
1, 10056, Note_on_c, 5, 75, 96
1, 10056, Note_on_c, 6, 55, 96
1, 10077, Note_off_c, 0, 75, 0
1, 10077, Note_off_c, 1, 75, 0
1, 10077, Note_off_c, 2, 70, 0
1, 10077, Note_off_c, 3, 55, 0
1, 10077, Note_off_c, 4, 43, 0
1, 10077, Note_off_c, 5, 75, 0
1, 10077, Note_off_c, 6, 55, 0
1, 10080, Note_on_c, 0, 73, 96
1, 10080, Note_on_c, 1, 73, 96
1, 10080, Note_on_c, 2, 64, 96
1, 10080, Note_on_c, 3, 57, 96
1, 10080, Note_on_c, 4, 45, 96
1, 10080, Note_on_c, 5, 73, 96
1, 10080, Note_on_c, 6, 57, 96
1, 10101, Note_off_c, 5, 73, 0
1, 10101, Note_off_c, 6, 57, 0
1, 10104, Note_on_c, 5, 82, 96
1, 10104, Note_on_c, 6, 67, 96
1, 10114, Note_off_c, 6, 67, 0
1, 10116, Note_off_c, 5, 82, 0
1, 10116, Note_on_c, 5, 81, 96
1, 10116, Note_on_c, 6, 65, 96
1, 10122, Note_off_c, 0, 73, 0
1, 10122, Note_off_c, 1, 73, 0
1, 10122, Note_off_c, 2, 64, 0
1, 10122, Note_off_c, 3, 57, 0
1, 10122, Note_off_c, 4, 45, 0
1, 10126, Note_off_c, 6, 65, 0
1, 10128, Note_off_c, 5, 81, 0
1, 10128, Note_on_c, 5, 82, 96
1, 10128, Note_on_c, 6, 67, 96
1, 10149, Note_off_c, 5, 82, 0
1, 10149, Note_off_c, 6, 67, 0
1, 10152, Note_on_c, 0, 82, 96
1, 10152, Note_on_c, 1, 82, 96
1, 10152, Note_on_c, 5, 79, 96
1, 10152, Note_on_c, 6, 64, 96
1, 10162, Note_off_c, 0, 82, 0
1, 10162, Note_off_c, 1, 82, 0
1, 10162, Note_off_c, 6, 64, 0
1, 10164, Note_on_c, 0, 81, 96
1, 10164, Note_on_c, 1, 81, 96
1, 10164, Note_off_c, 5, 79, 0
1, 10164, Note_on_c, 5, 77, 96
1, 10164, Note_on_c, 6, 62, 96
1, 10174, Note_off_c, 0, 81, 0
1, 10174, Note_off_c, 1, 81, 0
1, 10174, Note_off_c, 6, 62, 0
1, 10176, Note_on_c, 0, 82, 96
1, 10176, Note_on_c, 1, 82, 96
1, 10176, Note_off_c, 5, 77, 0
1, 10176, Note_on_c, 5, 79, 96
1, 10176, Note_on_c, 6, 64, 96
1, 10197, Note_off_c, 0, 82, 0
1, 10197, Note_off_c, 1, 82, 0
1, 10197, Note_off_c, 5, 79, 0
1, 10197, Note_off_c, 6, 64, 0
1, 10200, Note_on_c, 0, 73, 96
1, 10200, Note_on_c, 1, 73, 96
1, 10200, Note_on_c, 2, 64, 96
1, 10200, Note_on_c, 3, 55, 96
1, 10200, Note_on_c, 4, 43, 96
1, 10200, Note_on_c, 5, 73, 96
1, 10200, Note_on_c, 6, 55, 96
1, 10221, Note_off_c, 0, 73, 0
1, 10221, Note_off_c, 1, 73, 0
1, 10221, Note_off_c, 2, 64, 0
1, 10221, Note_off_c, 3, 55, 0
1, 10221, Note_off_c, 4, 43, 0
1, 10221, Note_off_c, 5, 73, 0
1, 10221, Note_off_c, 6, 55, 0
1, 10224, Note_on_c, 0, 74, 96
1, 10224, Note_on_c, 1, 74, 96
1, 10224, Note_on_c, 2, 69, 96
1, 10224, Note_on_c, 3, 53, 96
1, 10224, Note_on_c, 4, 41, 96
1, 10224, Note_on_c, 5, 74, 96
1, 10224, Note_on_c, 6, 53, 96
1, 10245, Note_off_c, 0, 74, 0
1, 10245, Note_off_c, 1, 74, 0
1, 10245, Note_off_c, 2, 69, 0
1, 10245, Note_off_c, 3, 53, 0
1, 10245, Note_off_c, 4, 41, 0
1, 10245, Note_off_c, 5, 74, 0
1, 10245, Note_off_c, 6, 53, 0
1, 10248, Note_on_c, 0, 65, 96
1, 10248, Note_on_c, 1, 65, 96
1, 10248, Note_on_c, 2, 65, 96
1, 10248, Note_on_c, 3, 52, 96
1, 10248, Note_on_c, 4, 40, 96
1, 10248, Note_on_c, 5, 65, 96
1, 10248, Note_on_c, 6, 52, 96
1, 10258, Note_off_c, 3, 52, 0
1, 10258, Note_off_c, 4, 40, 0
1, 10258, Note_off_c, 6, 52, 0
1, 10260, Note_on_c, 3, 50, 96
1, 10260, Note_on_c, 4, 38, 96
1, 10260, Note_on_c, 6, 50, 96
1, 10269, Note_off_c, 0, 65, 0
1, 10269, Note_off_c, 1, 65, 0
1, 10269, Note_off_c, 2, 65, 0
1, 10269, Note_off_c, 5, 65, 0
1, 10270, Note_off_c, 3, 50, 0
1, 10270, Note_off_c, 4, 38, 0
1, 10270, Note_off_c, 6, 50, 0
1, 10272, Note_on_c, 0, 67, 96
1, 10272, Note_on_c, 1, 67, 96
1, 10272, Note_on_c, 2, 62, 96
1, 10272, Note_on_c, 3, 58, 96
1, 10272, Note_on_c, 4, 46, 96
1, 10272, Note_on_c, 5, 67, 96
1, 10272, Note_on_c, 6, 58, 96
1, 10293, Note_off_c, 0, 67, 0
1, 10293, Note_off_c, 1, 67, 0
1, 10293, Note_off_c, 2, 62, 0
1, 10293, Note_off_c, 3, 58, 0
1, 10293, Note_off_c, 4, 46, 0
1, 10293, Note_off_c, 5, 67, 0
1, 10293, Note_off_c, 6, 58, 0
1, 10296, Note_on_c, 0, 74, 96
1, 10296, Note_on_c, 1, 74, 96
1, 10296, Note_on_c, 2, 67, 96
1, 10296, Note_on_c, 3, 57, 96
1, 10296, Note_on_c, 4, 45, 96
1, 10296, Note_on_c, 5, 74, 96
1, 10296, Note_on_c, 6, 57, 96
1, 10306, Note_off_c, 3, 57, 0
1, 10306, Note_off_c, 4, 45, 0
1, 10306, Note_off_c, 6, 57, 0
1, 10308, Note_on_c, 3, 55, 96
1, 10308, Note_on_c, 4, 43, 96
1, 10308, Note_on_c, 6, 55, 96
1, 10317, Note_off_c, 0, 74, 0
1, 10317, Note_off_c, 1, 74, 0
1, 10317, Note_off_c, 2, 67, 0
1, 10317, Note_off_c, 5, 74, 0
1, 10318, Note_off_c, 3, 55, 0
1, 10318, Note_off_c, 4, 43, 0
1, 10318, Note_off_c, 6, 55, 0
1, 10320, Note_on_c, 0, 69, 96
1, 10320, Note_on_c, 1, 69, 96
1, 10320, Note_on_c, 2, 64, 96
1, 10320, Note_on_c, 3, 57, 96
1, 10320, Note_on_c, 4, 45, 96
1, 10320, Note_on_c, 5, 69, 96
1, 10320, Note_on_c, 6, 57, 96
1, 10341, Note_off_c, 0, 69, 0
1, 10341, Note_off_c, 1, 69, 0
1, 10341, Note_off_c, 2, 64, 0
1, 10341, Note_off_c, 3, 57, 0
1, 10341, Note_off_c, 4, 45, 0
1, 10341, Note_off_c, 5, 69, 0
1, 10341, Note_off_c, 6, 57, 0
1, 10344, Note_on_c, 0, 73, 96
1, 10344, Note_on_c, 1, 73, 96
1, 10344, Note_on_c, 2, 69, 96
1, 10344, Note_on_c, 3, 45, 96
1, 10344, Note_on_c, 4, 33, 96
1, 10344, Note_on_c, 5, 73, 96
1, 10344, Note_on_c, 6, 45, 96
1, 10365, Note_off_c, 0, 73, 0
1, 10365, Note_off_c, 1, 73, 0
1, 10365, Note_off_c, 2, 69, 0
1, 10365, Note_off_c, 3, 45, 0
1, 10365, Note_off_c, 4, 33, 0
1, 10365, Note_off_c, 5, 73, 0
1, 10365, Note_off_c, 6, 45, 0
1, 10368, Note_on_c, 0, 62, 80
1, 10368, Note_on_c, 1, 62, 80
1, 10368, Note_on_c, 2, 62, 80
1, 10368, Note_on_c, 3, 46, 80
1, 10368, Note_on_c, 4, 34, 80
1, 10368, Note_on_c, 5, 62, 96
1, 10368, Note_on_c, 6, 46, 96
1, 10389, Note_off_c, 2, 62, 0
1, 10389, Note_off_c, 5, 62, 0
1, 10392, Note_on_c, 2, 60, 80
1, 10392, Note_on_c, 5, 60, 96
1, 10402, Note_off_c, 2, 60, 0
1, 10402, Note_off_c, 5, 60, 0
1, 10404, Note_on_c, 2, 58, 80
1, 10404, Note_on_c, 5, 58, 96
1, 10410, Note_off_c, 3, 46, 0
1, 10410, Note_off_c, 4, 34, 0
1, 10410, Note_off_c, 6, 46, 0
1, 10414, Note_off_c, 2, 58, 0
1, 10414, Note_off_c, 5, 58, 0
1, 10416, Note_on_c, 2, 57, 80
1, 10416, Note_on_c, 5, 57, 96
1, 10426, Note_off_c, 5, 57, 0
1, 10428, Note_on_c, 5, 62, 96
1, 10437, Note_off_c, 2, 57, 0
1, 10438, Note_off_c, 5, 62, 0
1, 10440, Note_on_c, 2, 55, 80
1, 10440, Note_on_c, 3, 46, 80
1, 10440, Note_on_c, 4, 34, 80
1, 10440, Note_on_c, 5, 55, 96
1, 10440, Note_on_c, 6, 46, 96
1, 10450, Note_off_c, 5, 55, 0
1, 10452, Note_on_c, 5, 62, 96
1, 10461, Note_off_c, 2, 55, 0
1, 10461, Note_off_c, 3, 46, 0
1, 10461, Note_off_c, 4, 34, 0
1, 10461, Note_off_c, 6, 46, 0
1, 10462, Note_off_c, 5, 62, 0
1, 10464, Note_on_c, 2, 53, 80
1, 10464, Note_on_c, 3, 45, 80
1, 10464, Note_on_c, 4, 33, 80
1, 10464, Note_on_c, 5, 53, 96
1, 10464, Note_on_c, 6, 45, 96
1, 10474, Note_off_c, 5, 53, 0
1, 10476, Note_on_c, 5, 62, 96
1, 10485, Note_off_c, 2, 53, 0
1, 10485, Note_off_c, 3, 45, 0
1, 10485, Note_off_c, 4, 33, 0
1, 10485, Note_off_c, 6, 45, 0
1, 10486, Note_off_c, 5, 62, 0
1, 10488, Note_on_c, 2, 52, 80
1, 10488, Note_on_c, 3, 43, 80
1, 10488, Note_on_c, 4, 31, 80
1, 10488, Note_on_c, 5, 52, 96
1, 10488, Note_on_c, 6, 43, 96
1, 10498, Note_off_c, 5, 52, 0
1, 10500, Note_on_c, 5, 62, 96
1, 10509, Note_off_c, 2, 52, 0
1, 10509, Note_off_c, 3, 43, 0
1, 10509, Note_off_c, 4, 31, 0
1, 10509, Note_off_c, 6, 43, 0
1, 10510, Note_off_c, 5, 62, 0
1, 10512, Note_on_c, 2, 57, 80
1, 10512, Note_on_c, 3, 41, 80
1, 10512, Note_on_c, 4, 29, 80
1, 10512, Note_on_c, 5, 50, 96
1, 10512, Note_on_c, 6, 41, 96
1, 10522, Note_off_c, 5, 50, 0
1, 10524, Note_on_c, 5, 53, 96
1, 10533, Note_off_c, 2, 57, 0
1, 10534, Note_off_c, 5, 53, 0
1, 10536, Note_on_c, 2, 50, 80
1, 10536, Note_on_c, 5, 57, 96
1, 10546, Note_off_c, 5, 57, 0
1, 10548, Note_on_c, 5, 61, 96
1, 10554, Note_off_c, 3, 41, 0
1, 10554, Note_off_c, 4, 29, 0
1, 10554, Note_off_c, 6, 41, 0
1, 10557, Note_off_c, 2, 50, 0
1, 10558, Note_off_c, 5, 61, 0
1, 10560, Note_on_c, 2, 62, 80
1, 10560, Note_on_c, 5, 62, 96
1, 10570, Note_off_c, 5, 62, 0
1, 10572, Note_on_c, 5, 58, 96
1, 10581, Note_off_c, 2, 62, 0
1, 10582, Note_off_c, 5, 58, 0
1, 10584, Note_on_c, 2, 62, 80
1, 10584, Note_on_c, 3, 38, 80
1, 10584, Note_on_c, 4, 26, 80
1, 10584, Note_on_c, 5, 57, 96
1, 10584, Note_on_c, 6, 38, 96
1, 10594, Note_off_c, 3, 38, 0
1, 10594, Note_off_c, 4, 26, 0
1, 10594, Note_off_c, 5, 57, 0
1, 10594, Note_off_c, 6, 38, 0
1, 10596, Note_on_c, 3, 40, 80
1, 10596, Note_on_c, 4, 28, 80
1, 10596, Note_on_c, 5, 55, 96
1, 10596, Note_on_c, 6, 40, 96
1, 10605, Note_off_c, 2, 62, 0
1, 10606, Note_off_c, 3, 40, 0
1, 10606, Note_off_c, 4, 28, 0
1, 10606, Note_off_c, 5, 55, 0
1, 10606, Note_off_c, 6, 40, 0
1, 10608, Note_on_c, 2, 62, 80
1, 10608, Note_on_c, 3, 41, 80
1, 10608, Note_on_c, 4, 29, 80
1, 10608, Note_on_c, 5, 62, 96
1, 10608, Note_on_c, 6, 41, 96
1, 10618, Note_off_c, 5, 62, 0
1, 10620, Note_on_c, 5, 57, 96
1, 10629, Note_off_c, 2, 62, 0
1, 10629, Note_off_c, 3, 41, 0
1, 10629, Note_off_c, 4, 29, 0
1, 10629, Note_off_c, 6, 41, 0
1, 10630, Note_off_c, 5, 57, 0
1, 10632, Note_on_c, 2, 62, 80
1, 10632, Note_on_c, 3, 41, 80
1, 10632, Note_on_c, 4, 29, 80
1, 10632, Note_on_c, 5, 55, 96
1, 10632, Note_on_c, 6, 41, 96
1, 10642, Note_off_c, 3, 41, 0
1, 10642, Note_off_c, 4, 29, 0
1, 10642, Note_off_c, 5, 55, 0
1, 10642, Note_off_c, 6, 41, 0
1, 10644, Note_on_c, 3, 43, 80
1, 10644, Note_on_c, 4, 31, 80
1, 10644, Note_on_c, 5, 53, 96
1, 10644, Note_on_c, 6, 43, 96
1, 10653, Note_off_c, 2, 62, 0
1, 10654, Note_off_c, 3, 43, 0
1, 10654, Note_off_c, 4, 31, 0
1, 10654, Note_off_c, 5, 53, 0
1, 10654, Note_off_c, 6, 43, 0
1, 10656, Note_on_c, 2, 62, 80
1, 10656, Note_on_c, 3, 45, 80
1, 10656, Note_on_c, 4, 33, 80
1, 10656, Note_on_c, 5, 52, 96
1, 10656, Note_on_c, 6, 45, 96
1, 10666, Note_off_c, 5, 52, 0
1, 10668, Note_on_c, 5, 62, 96
1, 10677, Note_off_c, 2, 62, 0
1, 10678, Note_off_c, 5, 62, 0
1, 10680, Note_on_c, 2, 60, 80
1, 10680, Note_on_c, 5, 60, 96
1, 10690, Note_off_c, 2, 60, 0
1, 10690, Note_off_c, 5, 60, 0
1, 10692, Note_on_c, 2, 58, 80
1, 10692, Note_on_c, 5, 58, 96
1, 10698, Note_off_c, 3, 45, 0
1, 10698, Note_off_c, 4, 33, 0
1, 10698, Note_off_c, 6, 45, 0
1, 10702, Note_off_c, 2, 58, 0
1, 10702, Note_off_c, 5, 58, 0
1, 10704, Note_on_c, 2, 60, 80
1, 10704, Note_on_c, 5, 60, 96
1, 10714, Note_off_c, 5, 60, 0
1, 10716, Note_on_c, 5, 54, 96
1, 10725, Note_off_c, 2, 60, 0
1, 10726, Note_off_c, 5, 54, 0
1, 10728, Note_on_c, 2, 57, 80
1, 10728, Note_on_c, 3, 45, 80
1, 10728, Note_on_c, 4, 33, 80
1, 10728, Note_on_c, 5, 57, 96
1, 10728, Note_on_c, 6, 45, 96
1, 10738, Note_off_c, 2, 57, 0
1, 10738, Note_off_c, 3, 45, 0
1, 10738, Note_off_c, 4, 33, 0
1, 10738, Note_off_c, 5, 57, 0
1, 10738, Note_off_c, 6, 45, 0
1, 10740, Note_on_c, 2, 58, 80
1, 10740, Note_on_c, 3, 43, 80
1, 10740, Note_on_c, 4, 31, 80
1, 10740, Note_on_c, 5, 58, 96
1, 10740, Note_on_c, 6, 43, 96
1, 10750, Note_off_c, 2, 58, 0
1, 10750, Note_off_c, 3, 43, 0
1, 10750, Note_off_c, 4, 31, 0
1, 10750, Note_off_c, 5, 58, 0
1, 10750, Note_off_c, 6, 43, 0
1, 10752, Note_on_c, 2, 60, 80
1, 10752, Note_on_c, 3, 42, 80
1, 10752, Note_on_c, 4, 30, 80
1, 10752, Note_on_c, 5, 60, 96
1, 10752, Note_on_c, 6, 42, 96
1, 10762, Note_off_c, 5, 60, 0
1, 10764, Note_on_c, 5, 57, 96
1, 10773, Note_off_c, 2, 60, 0
1, 10773, Note_off_c, 3, 42, 0
1, 10773, Note_off_c, 4, 30, 0
1, 10773, Note_off_c, 6, 42, 0
1, 10774, Note_off_c, 5, 57, 0
1, 10776, Note_on_c, 2, 60, 80
1, 10776, Note_on_c, 3, 40, 80
1, 10776, Note_on_c, 4, 28, 80
1, 10776, Note_on_c, 5, 55, 96
1, 10776, Note_on_c, 6, 40, 96
1, 10786, Note_off_c, 3, 40, 0
1, 10786, Note_off_c, 4, 28, 0
1, 10786, Note_off_c, 5, 55, 0
1, 10786, Note_off_c, 6, 40, 0
1, 10788, Note_on_c, 3, 38, 80
1, 10788, Note_on_c, 4, 26, 80
1, 10788, Note_on_c, 5, 54, 96
1, 10788, Note_on_c, 6, 38, 96
1, 10797, Note_off_c, 2, 60, 0
1, 10798, Note_off_c, 3, 38, 0
1, 10798, Note_off_c, 4, 26, 0
1, 10798, Note_off_c, 5, 54, 0
1, 10798, Note_off_c, 6, 38, 0
1, 10800, Note_on_c, 2, 60, 80
1, 10800, Note_on_c, 3, 43, 80
1, 10800, Note_on_c, 4, 31, 80
1, 10800, Note_on_c, 5, 55, 96
1, 10800, Note_on_c, 6, 43, 96
1, 10810, Note_off_c, 5, 55, 0
1, 10812, Note_on_c, 5, 60, 96
1, 10821, Note_off_c, 2, 60, 0
1, 10821, Note_off_c, 3, 43, 0
1, 10821, Note_off_c, 4, 31, 0
1, 10821, Note_off_c, 6, 43, 0
1, 10822, Note_off_c, 5, 60, 0
1, 10824, Note_on_c, 2, 58, 80
1, 10824, Note_on_c, 3, 50, 80
1, 10824, Note_on_c, 4, 38, 80
1, 10824, Note_on_c, 5, 58, 96
1, 10824, Note_on_c, 6, 50, 96
1, 10834, Note_off_c, 2, 58, 0
1, 10834, Note_off_c, 5, 58, 0
1, 10836, Note_on_c, 2, 57, 80
1, 10836, Note_on_c, 5, 57, 96
1, 10845, Note_off_c, 3, 50, 0
1, 10845, Note_off_c, 4, 38, 0
1, 10845, Note_off_c, 6, 50, 0
1, 10846, Note_off_c, 2, 57, 0
1, 10846, Note_off_c, 5, 57, 0
1, 10848, Note_on_c, 2, 58, 80
1, 10848, Note_on_c, 3, 55, 80
1, 10848, Note_on_c, 4, 43, 80
1, 10848, Note_on_c, 5, 58, 96
1, 10848, Note_on_c, 6, 55, 96
1, 10858, Note_off_c, 5, 58, 0
1, 10860, Note_on_c, 5, 62, 96
1, 10869, Note_off_c, 2, 58, 0
1, 10869, Note_off_c, 3, 55, 0
1, 10869, Note_off_c, 4, 43, 0
1, 10869, Note_off_c, 6, 55, 0
1, 10870, Note_off_c, 5, 62, 0
1, 10872, Note_on_c, 2, 55, 80
1, 10872, Note_on_c, 3, 55, 80
1, 10872, Note_on_c, 4, 43, 80
1, 10872, Note_on_c, 5, 58, 96
1, 10872, Note_on_c, 6, 55, 96
1, 10882, Note_off_c, 2, 55, 0
1, 10882, Note_off_c, 5, 58, 0
1, 10884, Note_on_c, 2, 57, 80
1, 10884, Note_on_c, 5, 57, 96
1, 10893, Note_off_c, 3, 55, 0
1, 10893, Note_off_c, 4, 43, 0
1, 10893, Note_off_c, 6, 55, 0
1, 10894, Note_off_c, 2, 57, 0
1, 10894, Note_off_c, 5, 57, 0
1, 10896, Note_on_c, 2, 58, 80
1, 10896, Note_on_c, 3, 55, 80
1, 10896, Note_on_c, 4, 43, 80
1, 10896, Note_on_c, 5, 58, 96
1, 10896, Note_on_c, 6, 55, 96
1, 10906, Note_off_c, 5, 58, 0
1, 10908, Note_on_c, 5, 62, 96
1, 10917, Note_off_c, 2, 58, 0
1, 10917, Note_off_c, 3, 55, 0
1, 10917, Note_off_c, 4, 43, 0
1, 10917, Note_off_c, 6, 55, 0
1, 10918, Note_off_c, 5, 62, 0
1, 10920, Note_on_c, 2, 58, 80
1, 10920, Note_on_c, 3, 53, 80
1, 10920, Note_on_c, 4, 41, 80
1, 10920, Note_on_c, 5, 67, 96
1, 10920, Note_on_c, 6, 53, 96
1, 10930, Note_off_c, 3, 53, 0
1, 10930, Note_off_c, 4, 41, 0
1, 10930, Note_off_c, 5, 67, 0
1, 10930, Note_off_c, 6, 53, 0
1, 10932, Note_on_c, 3, 52, 80
1, 10932, Note_on_c, 4, 40, 80
1, 10932, Note_on_c, 5, 61, 96
1, 10932, Note_on_c, 6, 52, 96
1, 10941, Note_off_c, 2, 58, 0
1, 10942, Note_off_c, 3, 52, 0
1, 10942, Note_off_c, 4, 40, 0
1, 10942, Note_off_c, 5, 61, 0
1, 10942, Note_off_c, 6, 52, 0
1, 10944, Note_on_c, 2, 58, 80
1, 10944, Note_on_c, 3, 53, 80
1, 10944, Note_on_c, 4, 41, 80
1, 10944, Note_on_c, 5, 62, 96
1, 10944, Note_on_c, 6, 53, 96
1, 10954, Note_off_c, 5, 62, 0
1, 10956, Note_on_c, 5, 58, 96
1, 10965, Note_off_c, 2, 58, 0
1, 10965, Note_off_c, 3, 53, 0
1, 10965, Note_off_c, 4, 41, 0
1, 10965, Note_off_c, 6, 53, 0
1, 10966, Note_off_c, 5, 58, 0
1, 10968, Note_on_c, 2, 57, 80
1, 10968, Note_on_c, 3, 53, 80
1, 10968, Note_on_c, 4, 41, 80
1, 10968, Note_on_c, 5, 57, 96
1, 10968, Note_on_c, 6, 53, 96
1, 10978, Note_off_c, 2, 57, 0
1, 10978, Note_off_c, 3, 53, 0
1, 10978, Note_off_c, 4, 41, 0
1, 10978, Note_off_c, 5, 57, 0
1, 10978, Note_off_c, 6, 53, 0
1, 10980, Note_on_c, 2, 55, 80
1, 10980, Note_on_c, 3, 52, 80
1, 10980, Note_on_c, 4, 40, 80
1, 10980, Note_on_c, 5, 55, 96
1, 10980, Note_on_c, 6, 52, 96
1, 10990, Note_off_c, 2, 55, 0
1, 10990, Note_off_c, 3, 52, 0
1, 10990, Note_off_c, 4, 40, 0
1, 10990, Note_off_c, 5, 55, 0
1, 10990, Note_off_c, 6, 52, 0
1, 10992, Note_on_c, 2, 57, 80
1, 10992, Note_on_c, 3, 53, 80
1, 10992, Note_on_c, 4, 41, 80
1, 10992, Note_on_c, 5, 57, 96
1, 10992, Note_on_c, 6, 53, 96
1, 11004, Note_off_c, 0, 62, 0
1, 11004, Note_off_c, 1, 62, 0
1, 11013, Note_off_c, 2, 57, 0
1, 11013, Note_off_c, 3, 53, 0
1, 11013, Note_off_c, 4, 41, 0
1, 11013, Note_off_c, 5, 57, 0
1, 11013, Note_off_c, 6, 53, 0
1, 11016, Note_on_c, 0, 74, 96
1, 11016, Note_on_c, 1, 74, 96
1, 11016, Note_on_c, 2, 65, 96
1, 11016, Note_on_c, 3, 50, 96
1, 11016, Note_on_c, 4, 38, 96
1, 11016, Note_on_c, 5, 74, 96
1, 11016, Note_on_c, 6, 50, 96
1, 11026, Note_off_c, 0, 74, 0
1, 11026, Note_off_c, 1, 74, 0
1, 11026, Note_off_c, 2, 65, 0
1, 11026, Note_off_c, 3, 50, 0
1, 11026, Note_off_c, 4, 38, 0
1, 11026, Note_off_c, 5, 74, 0
1, 11026, Note_off_c, 6, 50, 0
1, 11028, Note_on_c, 0, 76, 96
1, 11028, Note_on_c, 1, 76, 96
1, 11028, Note_on_c, 2, 64, 96
1, 11028, Note_on_c, 3, 49, 96
1, 11028, Note_on_c, 4, 37, 96
1, 11028, Note_on_c, 5, 76, 96
1, 11028, Note_on_c, 6, 49, 96
1, 11038, Note_off_c, 0, 76, 0
1, 11038, Note_off_c, 1, 76, 0
1, 11038, Note_off_c, 2, 64, 0
1, 11038, Note_off_c, 3, 49, 0
1, 11038, Note_off_c, 4, 37, 0
1, 11038, Note_off_c, 5, 76, 0
1, 11038, Note_off_c, 6, 49, 0
1, 11040, Note_on_c, 0, 77, 96
1, 11040, Note_on_c, 1, 77, 96
1, 11040, Note_on_c, 2, 62, 96
1, 11040, Note_on_c, 3, 50, 96
1, 11040, Note_on_c, 4, 38, 96
1, 11040, Note_on_c, 5, 77, 96
1, 11040, Note_on_c, 6, 50, 96
1, 11050, Note_off_c, 2, 62, 0
1, 11050, Note_off_c, 5, 77, 0
1, 11052, Note_on_c, 2, 60, 96
1, 11052, Note_on_c, 5, 74, 96
1, 11061, Note_off_c, 0, 77, 0
1, 11061, Note_off_c, 1, 77, 0
1, 11061, Note_off_c, 3, 50, 0
1, 11061, Note_off_c, 4, 38, 0
1, 11061, Note_off_c, 6, 50, 0
1, 11062, Note_off_c, 2, 60, 0
1, 11062, Note_off_c, 5, 74, 0
1, 11064, Note_on_c, 0, 79, 96
1, 11064, Note_on_c, 1, 79, 96
1, 11064, Note_on_c, 2, 58, 96
1, 11064, Note_on_c, 3, 52, 96
1, 11064, Note_on_c, 4, 40, 96
1, 11064, Note_on_c, 5, 79, 96
1, 11064, Note_on_c, 6, 52, 96
1, 11074, Note_off_c, 0, 79, 0
1, 11074, Note_off_c, 1, 79, 0
1, 11074, Note_off_c, 2, 58, 0
1, 11074, Note_off_c, 3, 52, 0
1, 11074, Note_off_c, 4, 40, 0
1, 11074, Note_off_c, 5, 79, 0
1, 11074, Note_off_c, 6, 52, 0
1, 11076, Note_on_c, 0, 81, 96
1, 11076, Note_on_c, 1, 81, 96
1, 11076, Note_on_c, 2, 57, 96
1, 11076, Note_on_c, 3, 53, 96
1, 11076, Note_on_c, 4, 41, 96
1, 11076, Note_on_c, 5, 81, 96
1, 11076, Note_on_c, 6, 53, 96
1, 11086, Note_off_c, 0, 81, 0
1, 11086, Note_off_c, 1, 81, 0
1, 11086, Note_off_c, 2, 57, 0
1, 11086, Note_off_c, 3, 53, 0
1, 11086, Note_off_c, 4, 41, 0
1, 11086, Note_off_c, 5, 81, 0
1, 11086, Note_off_c, 6, 53, 0
1, 11088, Note_on_c, 0, 82, 96
1, 11088, Note_on_c, 1, 82, 96
1, 11088, Note_on_c, 2, 55, 96
1, 11088, Note_on_c, 3, 55, 96
1, 11088, Note_on_c, 4, 43, 96
1, 11088, Note_on_c, 5, 82, 96
1, 11088, Note_on_c, 6, 55, 96
1, 11098, Note_off_c, 5, 82, 0
1, 11100, Note_on_c, 5, 81, 96
1, 11109, Note_off_c, 0, 82, 0
1, 11109, Note_off_c, 1, 82, 0
1, 11109, Note_off_c, 2, 55, 0
1, 11109, Note_off_c, 3, 55, 0
1, 11109, Note_off_c, 4, 43, 0
1, 11109, Note_off_c, 6, 55, 0
1, 11110, Note_off_c, 5, 81, 0
1, 11112, Note_on_c, 0, 79, 96
1, 11112, Note_on_c, 1, 79, 96
1, 11112, Note_on_c, 2, 70, 96
1, 11112, Note_on_c, 3, 57, 96
1, 11112, Note_on_c, 4, 45, 96
1, 11112, Note_on_c, 5, 79, 96
1, 11112, Note_on_c, 6, 57, 96
1, 11122, Note_off_c, 0, 79, 0
1, 11122, Note_off_c, 1, 79, 0
1, 11122, Note_off_c, 2, 70, 0
1, 11122, Note_off_c, 3, 57, 0
1, 11122, Note_off_c, 4, 45, 0
1, 11122, Note_off_c, 5, 79, 0
1, 11122, Note_off_c, 6, 57, 0
1, 11124, Note_on_c, 0, 77, 96
1, 11124, Note_on_c, 1, 77, 96
1, 11124, Note_on_c, 2, 69, 96
1, 11124, Note_on_c, 3, 58, 96
1, 11124, Note_on_c, 4, 46, 96
1, 11124, Note_on_c, 5, 77, 96
1, 11124, Note_on_c, 6, 58, 96
1, 11134, Note_off_c, 0, 77, 0
1, 11134, Note_off_c, 1, 77, 0
1, 11134, Note_off_c, 2, 69, 0
1, 11134, Note_off_c, 3, 58, 0
1, 11134, Note_off_c, 4, 46, 0
1, 11134, Note_off_c, 5, 77, 0
1, 11134, Note_off_c, 6, 58, 0
1, 11136, Note_on_c, 0, 76, 96
1, 11136, Note_on_c, 1, 76, 96
1, 11136, Note_on_c, 2, 67, 96
1, 11136, Note_on_c, 3, 60, 96
1, 11136, Note_on_c, 4, 48, 96
1, 11136, Note_on_c, 5, 76, 96
1, 11136, Note_on_c, 6, 60, 96
1, 11146, Note_off_c, 2, 67, 0
1, 11146, Note_off_c, 5, 76, 0
1, 11148, Note_on_c, 2, 65, 96
1, 11148, Note_on_c, 5, 74, 96
1, 11157, Note_off_c, 0, 76, 0
1, 11157, Note_off_c, 1, 76, 0
1, 11157, Note_off_c, 3, 60, 0
1, 11157, Note_off_c, 4, 48, 0
1, 11157, Note_off_c, 6, 60, 0
1, 11158, Note_off_c, 2, 65, 0
1, 11158, Note_off_c, 5, 74, 0
1, 11160, Note_on_c, 0, 72, 96
1, 11160, Note_on_c, 1, 72, 96
1, 11160, Note_on_c, 2, 64, 96
1, 11160, Note_on_c, 3, 58, 96
1, 11160, Note_on_c, 4, 46, 96
1, 11160, Note_on_c, 5, 72, 96
1, 11160, Note_on_c, 6, 58, 96
1, 11170, Note_off_c, 0, 72, 0
1, 11170, Note_off_c, 1, 72, 0
1, 11170, Note_off_c, 2, 64, 0
1, 11170, Note_off_c, 5, 72, 0
1, 11172, Note_on_c, 0, 74, 96
1, 11172, Note_on_c, 1, 74, 96
1, 11172, Note_on_c, 2, 62, 96
1, 11172, Note_on_c, 5, 74, 96
1, 11181, Note_off_c, 3, 58, 0
1, 11181, Note_off_c, 4, 46, 0
1, 11181, Note_off_c, 6, 58, 0
1, 11182, Note_off_c, 0, 74, 0
1, 11182, Note_off_c, 1, 74, 0
1, 11182, Note_off_c, 2, 62, 0
1, 11182, Note_off_c, 5, 74, 0
1, 11184, Note_on_c, 0, 76, 96
1, 11184, Note_on_c, 1, 76, 96
1, 11184, Note_on_c, 2, 60, 96
1, 11184, Note_on_c, 3, 57, 96
1, 11184, Note_on_c, 4, 45, 96
1, 11184, Note_on_c, 5, 76, 96
1, 11184, Note_on_c, 6, 57, 96
1, 11194, Note_off_c, 5, 76, 0
1, 11196, Note_on_c, 5, 72, 96
1, 11205, Note_off_c, 0, 76, 0
1, 11205, Note_off_c, 1, 76, 0
1, 11205, Note_off_c, 2, 60, 0
1, 11205, Note_off_c, 3, 57, 0
1, 11205, Note_off_c, 4, 45, 0
1, 11205, Note_off_c, 6, 57, 0
1, 11206, Note_off_c, 5, 72, 0
1, 11208, Note_on_c, 0, 77, 96
1, 11208, Note_on_c, 1, 77, 96
1, 11208, Note_on_c, 2, 58, 96
1, 11208, Note_on_c, 3, 55, 96
1, 11208, Note_on_c, 4, 43, 96
1, 11208, Note_on_c, 5, 77, 96
1, 11208, Note_on_c, 6, 55, 96
1, 11218, Note_off_c, 0, 77, 0
1, 11218, Note_off_c, 1, 77, 0
1, 11218, Note_off_c, 5, 77, 0
1, 11220, Note_on_c, 0, 79, 96
1, 11220, Note_on_c, 1, 79, 96
1, 11220, Note_on_c, 5, 79, 96
1, 11229, Note_off_c, 2, 58, 0
1, 11229, Note_off_c, 3, 55, 0
1, 11229, Note_off_c, 4, 43, 0
1, 11229, Note_off_c, 6, 55, 0
1, 11230, Note_off_c, 0, 79, 0
1, 11230, Note_off_c, 1, 79, 0
1, 11230, Note_off_c, 5, 79, 0
1, 11232, Note_on_c, 0, 81, 96
1, 11232, Note_on_c, 1, 81, 96
1, 11232, Note_on_c, 2, 57, 96
1, 11232, Note_on_c, 3, 53, 96
1, 11232, Note_on_c, 4, 41, 96
1, 11232, Note_on_c, 5, 81, 96
1, 11232, Note_on_c, 6, 53, 96
1, 11242, Note_off_c, 5, 81, 0
1, 11244, Note_on_c, 5, 79, 96
1, 11253, Note_off_c, 0, 81, 0
1, 11253, Note_off_c, 1, 81, 0
1, 11253, Note_off_c, 2, 57, 0
1, 11253, Note_off_c, 3, 53, 0
1, 11253, Note_off_c, 4, 41, 0
1, 11253, Note_off_c, 6, 53, 0
1, 11254, Note_off_c, 5, 79, 0
1, 11256, Note_on_c, 0, 77, 96
1, 11256, Note_on_c, 1, 77, 96
1, 11256, Note_on_c, 2, 59, 96
1, 11256, Note_on_c, 3, 55, 96
1, 11256, Note_on_c, 4, 43, 96
1, 11256, Note_on_c, 5, 77, 96
1, 11256, Note_on_c, 6, 55, 96
1, 11266, Note_off_c, 0, 77, 0
1, 11266, Note_off_c, 1, 77, 0
1, 11266, Note_off_c, 2, 59, 0
1, 11266, Note_off_c, 3, 55, 0
1, 11266, Note_off_c, 4, 43, 0
1, 11266, Note_off_c, 5, 77, 0
1, 11266, Note_off_c, 6, 55, 0
1, 11268, Note_on_c, 0, 76, 96
1, 11268, Note_on_c, 1, 76, 96
1, 11268, Note_on_c, 2, 61, 96
1, 11268, Note_on_c, 3, 57, 96
1, 11268, Note_on_c, 4, 45, 96
1, 11268, Note_on_c, 5, 76, 96
1, 11268, Note_on_c, 6, 57, 96
1, 11278, Note_off_c, 0, 76, 0
1, 11278, Note_off_c, 1, 76, 0
1, 11278, Note_off_c, 2, 61, 0
1, 11278, Note_off_c, 3, 57, 0
1, 11278, Note_off_c, 4, 45, 0
1, 11278, Note_off_c, 5, 76, 0
1, 11278, Note_off_c, 6, 57, 0
1, 11280, Note_on_c, 0, 74, 96
1, 11280, Note_on_c, 1, 74, 96
1, 11280, Note_on_c, 2, 62, 96
1, 11280, Note_on_c, 3, 58, 96
1, 11280, Note_on_c, 4, 46, 96
1, 11280, Note_on_c, 5, 74, 96
1, 11280, Note_on_c, 6, 58, 96
1, 11290, Note_off_c, 5, 74, 0
1, 11292, Note_on_c, 5, 72, 96
1, 11301, Note_off_c, 0, 74, 0
1, 11301, Note_off_c, 1, 74, 0
1, 11301, Note_off_c, 2, 62, 0
1, 11301, Note_off_c, 3, 58, 0
1, 11301, Note_off_c, 4, 46, 0
1, 11301, Note_off_c, 6, 58, 0
1, 11302, Note_off_c, 5, 72, 0
1, 11304, Note_on_c, 3, 62, 80
1, 11304, Note_on_c, 4, 50, 80
1, 11304, Note_on_c, 5, 70, 96
1, 11304, Note_on_c, 6, 62, 96
1, 11314, Note_off_c, 3, 62, 0
1, 11314, Note_off_c, 4, 50, 0
1, 11314, Note_off_c, 5, 70, 0
1, 11314, Note_off_c, 6, 62, 0
1, 11316, Note_on_c, 3, 61, 80
1, 11316, Note_on_c, 4, 49, 80
1, 11316, Note_on_c, 5, 69, 96
1, 11316, Note_on_c, 6, 61, 96
1, 11326, Note_off_c, 3, 61, 0
1, 11326, Note_off_c, 4, 49, 0
1, 11326, Note_off_c, 5, 69, 0
1, 11326, Note_off_c, 6, 61, 0
1, 11328, Note_on_c, 3, 62, 80
1, 11328, Note_on_c, 4, 50, 80
1, 11328, Note_on_c, 5, 70, 96
1, 11328, Note_on_c, 6, 62, 96
1, 11338, Note_off_c, 5, 70, 0
1, 11340, Note_on_c, 5, 74, 96
1, 11349, Note_off_c, 3, 62, 0
1, 11349, Note_off_c, 4, 50, 0
1, 11349, Note_off_c, 6, 62, 0
1, 11350, Note_off_c, 5, 74, 0
1, 11352, Note_on_c, 3, 58, 80
1, 11352, Note_on_c, 4, 46, 80
1, 11352, Note_on_c, 5, 67, 96
1, 11352, Note_on_c, 6, 58, 96
1, 11362, Note_off_c, 5, 67, 0
1, 11364, Note_on_c, 5, 70, 96
1, 11373, Note_off_c, 3, 58, 0
1, 11373, Note_off_c, 4, 46, 0
1, 11373, Note_off_c, 6, 58, 0
1, 11374, Note_off_c, 5, 70, 0
1, 11376, Note_on_c, 0, 70, 80
1, 11376, Note_on_c, 1, 70, 80
1, 11376, Note_on_c, 2, 67, 80
1, 11376, Note_on_c, 3, 55, 80
1, 11376, Note_on_c, 4, 43, 80
1, 11376, Note_on_c, 5, 63, 96
1, 11376, Note_on_c, 6, 55, 96
1, 11386, Note_off_c, 5, 63, 0
1, 11388, Note_on_c, 5, 75, 96
1, 11397, Note_off_c, 6, 55, 0
1, 11398, Note_off_c, 5, 75, 0
1, 11400, Note_off_c, 3, 55, 0
1, 11400, Note_on_c, 3, 54, 80
1, 11400, Note_off_c, 4, 43, 0
1, 11400, Note_on_c, 4, 42, 80
1, 11400, Note_on_c, 5, 74, 96
1, 11400, Note_on_c, 6, 54, 96
1, 11410, Note_off_c, 5, 74, 0
1, 11412, Note_on_c, 5, 75, 96
1, 11418, Note_off_c, 0, 70, 0
1, 11418, Note_off_c, 1, 70, 0
1, 11418, Note_off_c, 2, 67, 0
1, 11421, Note_off_c, 6, 54, 0
1, 11422, Note_off_c, 5, 75, 0
1, 11424, Note_off_c, 3, 54, 0
1, 11424, Note_on_c, 3, 55, 80
1, 11424, Note_off_c, 4, 42, 0
1, 11424, Note_on_c, 4, 43, 80
1, 11424, Note_on_c, 5, 70, 96
1, 11424, Note_on_c, 6, 55, 96
1, 11434, Note_off_c, 5, 70, 0
1, 11436, Note_on_c, 5, 75, 96
1, 11445, Note_off_c, 3, 55, 0
1, 11445, Note_off_c, 4, 43, 0
1, 11445, Note_off_c, 6, 55, 0
1, 11446, Note_off_c, 5, 75, 0
1, 11448, Note_on_c, 3, 58, 80
1, 11448, Note_on_c, 4, 46, 80
1, 11448, Note_on_c, 5, 74, 96
1, 11448, Note_on_c, 6, 58, 96
1, 11458, Note_off_c, 3, 58, 0
1, 11458, Note_off_c, 4, 46, 0
1, 11458, Note_off_c, 5, 74, 0
1, 11458, Note_off_c, 6, 58, 0
1, 11460, Note_on_c, 3, 57, 80
1, 11460, Note_on_c, 4, 45, 80
1, 11460, Note_on_c, 5, 75, 96
1, 11460, Note_on_c, 6, 57, 96
1, 11470, Note_off_c, 3, 57, 0
1, 11470, Note_off_c, 4, 45, 0
1, 11470, Note_off_c, 5, 75, 0
1, 11470, Note_off_c, 6, 57, 0
1, 11472, Note_on_c, 3, 58, 80
1, 11472, Note_on_c, 4, 46, 80
1, 11472, Note_on_c, 5, 67, 96
1, 11472, Note_on_c, 6, 58, 96
1, 11482, Note_off_c, 5, 67, 0
1, 11484, Note_on_c, 5, 70, 96
1, 11493, Note_off_c, 3, 58, 0
1, 11493, Note_off_c, 4, 46, 0
1, 11493, Note_off_c, 6, 58, 0
1, 11494, Note_off_c, 5, 70, 0
1, 11496, Note_on_c, 3, 55, 80
1, 11496, Note_on_c, 4, 43, 80
1, 11496, Note_on_c, 5, 75, 96
1, 11496, Note_on_c, 6, 55, 96
1, 11506, Note_off_c, 5, 75, 0
1, 11508, Note_on_c, 5, 70, 96
1, 11517, Note_off_c, 3, 55, 0
1, 11517, Note_off_c, 4, 43, 0
1, 11517, Note_off_c, 6, 55, 0
1, 11518, Note_off_c, 5, 70, 0
1, 11520, Note_on_c, 0, 75, 80
1, 11520, Note_on_c, 1, 70, 80
1, 11520, Note_on_c, 2, 58, 80
1, 11520, Note_on_c, 3, 51, 80
1, 11520, Note_on_c, 4, 39, 80
1, 11520, Note_on_c, 5, 79, 96
1, 11520, Note_on_c, 6, 51, 96
1, 11530, Note_off_c, 5, 79, 0
1, 11532, Note_on_c, 5, 70, 96
1, 11541, Note_off_c, 6, 51, 0
1, 11542, Note_off_c, 5, 70, 0
1, 11544, Note_off_c, 3, 51, 0
1, 11544, Note_on_c, 3, 50, 80
1, 11544, Note_off_c, 4, 39, 0
1, 11544, Note_on_c, 4, 38, 80
1, 11544, Note_on_c, 5, 78, 96
1, 11544, Note_on_c, 6, 50, 96
1, 11554, Note_off_c, 5, 78, 0
1, 11556, Note_on_c, 5, 70, 96
1, 11562, Note_off_c, 0, 75, 0
1, 11562, Note_off_c, 1, 70, 0
1, 11562, Note_off_c, 2, 58, 0
1, 11565, Note_off_c, 6, 50, 0
1, 11566, Note_off_c, 5, 70, 0
1, 11568, Note_off_c, 3, 50, 0
1, 11568, Note_on_c, 3, 51, 80
1, 11568, Note_off_c, 4, 38, 0
1, 11568, Note_on_c, 4, 39, 80
1, 11568, Note_on_c, 5, 79, 96
1, 11568, Note_on_c, 6, 51, 96
1, 11578, Note_off_c, 5, 79, 0
1, 11580, Note_on_c, 5, 75, 96
1, 11589, Note_off_c, 3, 51, 0
1, 11589, Note_off_c, 4, 39, 0
1, 11589, Note_off_c, 6, 51, 0
1, 11590, Note_off_c, 5, 75, 0
1, 11592, Note_on_c, 3, 55, 80
1, 11592, Note_on_c, 4, 43, 80
1, 11592, Note_on_c, 5, 70, 96
1, 11592, Note_on_c, 6, 55, 96
1, 11602, Note_off_c, 3, 55, 0
1, 11602, Note_off_c, 4, 43, 0
1, 11602, Note_off_c, 5, 70, 0
1, 11602, Note_off_c, 6, 55, 0
1, 11604, Note_on_c, 3, 54, 80
1, 11604, Note_on_c, 4, 42, 80
1, 11604, Note_on_c, 5, 69, 96
1, 11604, Note_on_c, 6, 54, 96
1, 11614, Note_off_c, 3, 54, 0
1, 11614, Note_off_c, 4, 42, 0
1, 11614, Note_off_c, 5, 69, 0
1, 11614, Note_off_c, 6, 54, 0
1, 11616, Note_on_c, 3, 55, 80
1, 11616, Note_on_c, 4, 43, 80
1, 11616, Note_on_c, 5, 70, 96
1, 11616, Note_on_c, 6, 55, 96
1, 11626, Note_off_c, 5, 70, 0
1, 11628, Note_on_c, 5, 75, 96
1, 11637, Note_off_c, 3, 55, 0
1, 11637, Note_off_c, 4, 43, 0
1, 11637, Note_off_c, 6, 55, 0
1, 11638, Note_off_c, 5, 75, 0
1, 11640, Note_on_c, 3, 51, 80
1, 11640, Note_on_c, 4, 39, 80
1, 11640, Note_on_c, 5, 79, 96
1, 11640, Note_on_c, 6, 51, 96
1, 11650, Note_off_c, 5, 79, 0
1, 11652, Note_on_c, 5, 75, 96
1, 11661, Note_off_c, 3, 51, 0
1, 11661, Note_off_c, 4, 39, 0
1, 11661, Note_off_c, 6, 51, 0
1, 11662, Note_off_c, 5, 75, 0
1, 11664, Note_on_c, 3, 49, 80
1, 11664, Note_on_c, 4, 37, 80
1, 11664, Note_on_c, 5, 82, 96
1, 11664, Note_on_c, 6, 49, 96
1, 11685, Note_off_c, 3, 49, 0
1, 11685, Note_off_c, 4, 37, 0
1, 11685, Note_off_c, 5, 82, 0
1, 11685, Note_off_c, 6, 49, 0
1, 11688, Note_on_c, 0, 82, 96
1, 11688, Note_on_c, 1, 82, 96
1, 11688, Note_on_c, 2, 70, 96
1, 11688, Note_on_c, 3, 58, 96
1, 11688, Note_on_c, 4, 46, 96
1, 11688, Note_on_c, 5, 82, 96
1, 11688, Note_on_c, 6, 58, 96
1, 11698, Note_off_c, 5, 82, 0
1, 11698, Note_off_c, 6, 58, 0
1, 11700, Note_off_c, 0, 82, 0
1, 11700, Note_on_c, 0, 81, 96
1, 11700, Note_off_c, 1, 82, 0
1, 11700, Note_on_c, 1, 81, 96
1, 11700, Note_off_c, 2, 70, 0
1, 11700, Note_on_c, 2, 69, 96
1, 11700, Note_off_c, 3, 58, 0
1, 11700, Note_on_c, 3, 57, 96
1, 11700, Note_off_c, 4, 46, 0
1, 11700, Note_on_c, 4, 45, 96
1, 11700, Note_on_c, 5, 81, 96
1, 11700, Note_on_c, 6, 57, 96
1, 11710, Note_off_c, 5, 81, 0
1, 11710, Note_off_c, 6, 57, 0
1, 11712, Note_off_c, 0, 81, 0
1, 11712, Note_on_c, 0, 82, 96
1, 11712, Note_off_c, 1, 81, 0
1, 11712, Note_on_c, 1, 82, 96
1, 11712, Note_off_c, 2, 69, 0
1, 11712, Note_on_c, 2, 70, 96
1, 11712, Note_off_c, 3, 57, 0
1, 11712, Note_on_c, 3, 58, 96
1, 11712, Note_off_c, 4, 45, 0
1, 11712, Note_on_c, 4, 46, 96
1, 11712, Note_on_c, 5, 82, 96
1, 11712, Note_on_c, 6, 58, 96
1, 11733, Note_off_c, 0, 82, 0
1, 11733, Note_off_c, 1, 82, 0
1, 11733, Note_off_c, 2, 70, 0
1, 11733, Note_off_c, 3, 58, 0
1, 11733, Note_off_c, 4, 46, 0
1, 11733, Note_off_c, 5, 82, 0
1, 11733, Note_off_c, 6, 58, 0
1, 11736, Note_on_c, 0, 79, 96
1, 11736, Note_on_c, 1, 79, 96
1, 11736, Note_on_c, 2, 67, 96
1, 11736, Note_on_c, 3, 55, 96
1, 11736, Note_on_c, 4, 43, 96
1, 11736, Note_on_c, 5, 79, 96
1, 11736, Note_on_c, 6, 55, 96
1, 11746, Note_off_c, 5, 79, 0
1, 11746, Note_off_c, 6, 55, 0
1, 11748, Note_off_c, 0, 79, 0
1, 11748, Note_on_c, 0, 78, 96
1, 11748, Note_off_c, 1, 79, 0
1, 11748, Note_on_c, 1, 78, 96
1, 11748, Note_off_c, 2, 67, 0
1, 11748, Note_on_c, 2, 66, 96
1, 11748, Note_off_c, 3, 55, 0
1, 11748, Note_on_c, 3, 54, 96
1, 11748, Note_off_c, 4, 43, 0
1, 11748, Note_on_c, 4, 42, 96
1, 11748, Note_on_c, 5, 78, 96
1, 11748, Note_on_c, 6, 54, 96
1, 11758, Note_off_c, 5, 78, 0
1, 11758, Note_off_c, 6, 54, 0
1, 11760, Note_off_c, 0, 78, 0
1, 11760, Note_on_c, 0, 79, 96
1, 11760, Note_off_c, 1, 78, 0
1, 11760, Note_on_c, 1, 79, 96
1, 11760, Note_off_c, 2, 66, 0
1, 11760, Note_on_c, 2, 67, 96
1, 11760, Note_off_c, 3, 54, 0
1, 11760, Note_on_c, 3, 55, 96
1, 11760, Note_off_c, 4, 42, 0
1, 11760, Note_on_c, 4, 43, 96
1, 11760, Note_on_c, 5, 79, 96
1, 11760, Note_on_c, 6, 55, 96
1, 11781, Note_off_c, 0, 79, 0
1, 11781, Note_off_c, 1, 79, 0
1, 11781, Note_off_c, 2, 67, 0
1, 11781, Note_off_c, 3, 55, 0
1, 11781, Note_off_c, 4, 43, 0
1, 11781, Note_off_c, 5, 79, 0
1, 11781, Note_off_c, 6, 55, 0
1, 11784, Note_on_c, 0, 73, 96
1, 11784, Note_on_c, 1, 73, 96
1, 11784, Note_on_c, 2, 64, 96
1, 11784, Note_on_c, 3, 43, 96
1, 11784, Note_on_c, 4, 31, 96
1, 11784, Note_on_c, 5, 73, 96
1, 11784, Note_on_c, 6, 43, 96
1, 11805, Note_off_c, 0, 73, 0
1, 11805, Note_off_c, 1, 73, 0
1, 11805, Note_off_c, 2, 64, 0
1, 11805, Note_off_c, 3, 43, 0
1, 11805, Note_off_c, 4, 31, 0
1, 11805, Note_off_c, 5, 73, 0
1, 11805, Note_off_c, 6, 43, 0
1, 11808, Note_on_c, 0, 74, 96
1, 11808, Note_on_c, 1, 74, 96
1, 11808, Note_on_c, 2, 69, 96
1, 11808, Note_on_c, 3, 41, 96
1, 11808, Note_on_c, 4, 29, 96
1, 11808, Note_on_c, 5, 74, 96
1, 11808, Note_on_c, 6, 41, 96
1, 11829, Note_off_c, 0, 74, 0
1, 11829, Note_off_c, 1, 74, 0
1, 11829, Note_off_c, 2, 69, 0
1, 11829, Note_off_c, 3, 41, 0
1, 11829, Note_off_c, 4, 29, 0
1, 11829, Note_off_c, 5, 74, 0
1, 11829, Note_off_c, 6, 41, 0
1, 11832, Note_on_c, 0, 65, 96
1, 11832, Note_on_c, 1, 65, 96
1, 11832, Note_on_c, 2, 65, 96
1, 11832, Note_on_c, 3, 40, 96
1, 11832, Note_on_c, 4, 28, 96
1, 11832, Note_on_c, 5, 65, 96
1, 11832, Note_on_c, 6, 40, 96
1, 11842, Note_off_c, 3, 40, 0
1, 11842, Note_off_c, 4, 28, 0
1, 11842, Note_off_c, 6, 40, 0
1, 11844, Note_on_c, 3, 38, 96
1, 11844, Note_on_c, 4, 26, 96
1, 11844, Note_on_c, 6, 38, 96
1, 11853, Note_off_c, 0, 65, 0
1, 11853, Note_off_c, 1, 65, 0
1, 11853, Note_off_c, 2, 65, 0
1, 11853, Note_off_c, 5, 65, 0
1, 11854, Note_off_c, 3, 38, 0
1, 11854, Note_off_c, 4, 26, 0
1, 11854, Note_off_c, 6, 38, 0
1, 11856, Note_on_c, 0, 67, 96
1, 11856, Note_on_c, 1, 67, 96
1, 11856, Note_on_c, 2, 62, 96
1, 11856, Note_on_c, 3, 46, 96
1, 11856, Note_on_c, 4, 34, 96
1, 11856, Note_on_c, 5, 67, 96
1, 11856, Note_on_c, 6, 46, 96
1, 11877, Note_off_c, 0, 67, 0
1, 11877, Note_off_c, 1, 67, 0
1, 11877, Note_off_c, 2, 62, 0
1, 11877, Note_off_c, 3, 46, 0
1, 11877, Note_off_c, 4, 34, 0
1, 11877, Note_off_c, 5, 67, 0
1, 11877, Note_off_c, 6, 46, 0
1, 11880, Note_on_c, 0, 74, 96
1, 11880, Note_on_c, 1, 74, 96
1, 11880, Note_on_c, 2, 67, 96
1, 11880, Note_on_c, 3, 45, 96
1, 11880, Note_on_c, 4, 33, 96
1, 11880, Note_on_c, 5, 74, 96
1, 11880, Note_on_c, 6, 45, 96
1, 11890, Note_off_c, 3, 45, 0
1, 11890, Note_off_c, 4, 33, 0
1, 11890, Note_off_c, 6, 45, 0
1, 11892, Note_on_c, 3, 43, 96
1, 11892, Note_on_c, 4, 31, 96
1, 11892, Note_on_c, 6, 43, 96
1, 11901, Note_off_c, 0, 74, 0
1, 11901, Note_off_c, 1, 74, 0
1, 11901, Note_off_c, 2, 67, 0
1, 11901, Note_off_c, 5, 74, 0
1, 11902, Note_off_c, 3, 43, 0
1, 11902, Note_off_c, 4, 31, 0
1, 11902, Note_off_c, 6, 43, 0
1, 11904, Note_on_c, 0, 69, 96
1, 11904, Note_on_c, 1, 69, 96
1, 11904, Note_on_c, 2, 64, 96
1, 11904, Note_on_c, 3, 45, 96
1, 11904, Note_on_c, 4, 33, 96
1, 11904, Note_on_c, 5, 69, 96
1, 11904, Note_on_c, 6, 45, 96
1, 11925, Note_off_c, 0, 69, 0
1, 11925, Note_off_c, 1, 69, 0
1, 11925, Note_off_c, 2, 64, 0
1, 11925, Note_off_c, 3, 45, 0
1, 11925, Note_off_c, 4, 33, 0
1, 11925, Note_off_c, 5, 69, 0
1, 11925, Note_off_c, 6, 45, 0
1, 11928, Note_on_c, 0, 73, 96
1, 11928, Note_on_c, 1, 73, 96
1, 11928, Note_on_c, 2, 69, 96
1, 11928, Note_on_c, 3, 45, 96
1, 11928, Note_on_c, 4, 33, 96
1, 11928, Note_on_c, 5, 73, 96
1, 11928, Note_on_c, 6, 33, 96
1, 11949, Note_off_c, 0, 73, 0
1, 11949, Note_off_c, 1, 73, 0
1, 11949, Note_off_c, 2, 69, 0
1, 11949, Note_off_c, 3, 45, 0
1, 11949, Note_off_c, 4, 33, 0
1, 11949, Note_off_c, 5, 73, 0
1, 11949, Note_off_c, 6, 33, 0
1, 11952, Note_on_c, 0, 74, 96
1, 11952, Note_on_c, 1, 74, 96
1, 11952, Note_on_c, 2, 65, 96
1, 11952, Note_on_c, 3, 38, 96
1, 11952, Note_on_c, 4, 26, 96
1, 11952, Note_on_c, 5, 62, 96
1, 11952, Note_on_c, 6, 38, 96
1, 11962, Note_off_c, 5, 62, 0
1, 11964, Note_on_c, 5, 64, 96
1, 11974, Note_off_c, 5, 64, 0
1, 11976, Note_on_c, 5, 65, 96
1, 11986, Note_off_c, 5, 65, 0
1, 11988, Note_on_c, 5, 67, 96
1, 11994, Note_off_c, 0, 74, 0
1, 11994, Note_off_c, 1, 74, 0
1, 11994, Note_off_c, 2, 65, 0
1, 11994, Note_off_c, 3, 38, 0
1, 11994, Note_off_c, 4, 26, 0
1, 11994, Note_off_c, 6, 38, 0
1, 11998, Note_off_c, 5, 67, 0
1, 12000, Note_on_c, 5, 69, 96
1, 12010, Note_off_c, 5, 69, 0
1, 12012, Note_on_c, 5, 71, 96
1, 12022, Note_off_c, 5, 71, 0
1, 12024, Note_on_c, 5, 73, 96
1, 12034, Note_off_c, 5, 73, 0
1, 12036, Note_on_c, 5, 74, 96
1, 12046, Note_off_c, 5, 74, 0
1, 12048, Note_on_c, 5, 69, 96
1, 12058, Note_off_c, 5, 69, 0
1, 12060, Note_on_c, 5, 74, 96
1, 12070, Note_off_c, 5, 74, 0
1, 12072, Note_on_c, 5, 65, 96
1, 12082, Note_off_c, 5, 65, 0
1, 12084, Note_on_c, 5, 69, 96
1, 12094, Note_off_c, 5, 69, 0
1, 12096, Note_on_c, 3, 38, 80
1, 12096, Note_on_c, 4, 26, 80
1, 12096, Note_on_c, 5, 62, 96
1, 12096, Note_on_c, 6, 50, 96
1, 12108, Note_on_c, 5, 86, 96
1, 12118, Note_off_c, 5, 86, 0
1, 12120, Note_on_c, 5, 81, 96
1, 12130, Note_off_c, 5, 81, 0
1, 12132, Note_on_c, 5, 86, 96
1, 12138, Note_off_c, 3, 38, 0
1, 12138, Note_off_c, 4, 26, 0
1, 12138, Note_off_c, 5, 62, 0
1, 12138, Note_off_c, 6, 50, 0
1, 12142, Note_off_c, 5, 86, 0
1, 12144, Note_on_c, 5, 77, 96
1, 12154, Note_off_c, 5, 77, 0
1, 12156, Note_on_c, 5, 81, 96
1, 12166, Note_off_c, 5, 81, 0
1, 12168, Note_on_c, 5, 74, 96
1, 12178, Note_off_c, 5, 74, 0
1, 12180, Note_on_c, 5, 77, 96
1, 12190, Note_off_c, 5, 77, 0
1, 12192, Note_on_c, 5, 69, 96
1, 12202, Note_off_c, 5, 69, 0
1, 12204, Note_on_c, 5, 74, 96
1, 12214, Note_off_c, 5, 74, 0
1, 12216, Note_on_c, 5, 65, 96
1, 12226, Note_off_c, 5, 65, 0
1, 12228, Note_on_c, 5, 69, 96
1, 12238, Note_off_c, 5, 69, 0
1, 12240, Note_on_c, 3, 38, 80
1, 12240, Note_on_c, 4, 26, 80
1, 12240, Note_on_c, 6, 62, 96
1, 12250, Note_off_c, 6, 62, 0
1, 12252, Note_on_c, 5, 62, 96
1, 12262, Note_off_c, 5, 62, 0
1, 12264, Note_on_c, 5, 69, 96
1, 12274, Note_off_c, 5, 69, 0
1, 12276, Note_on_c, 5, 62, 96
1, 12282, Note_off_c, 3, 38, 0
1, 12282, Note_off_c, 4, 26, 0
1, 12286, Note_off_c, 5, 62, 0
1, 12288, Note_on_c, 6, 64, 96
1, 12298, Note_off_c, 6, 64, 0
1, 12300, Note_on_c, 5, 62, 96
1, 12310, Note_off_c, 5, 62, 0
1, 12312, Note_on_c, 5, 69, 96
1, 12322, Note_off_c, 5, 69, 0
1, 12324, Note_on_c, 5, 62, 96
1, 12334, Note_off_c, 5, 62, 0
1, 12336, Note_on_c, 6, 65, 96
1, 12346, Note_off_c, 6, 65, 0
1, 12348, Note_on_c, 5, 62, 96
1, 12358, Note_off_c, 5, 62, 0
1, 12360, Note_on_c, 5, 69, 96
1, 12370, Note_off_c, 5, 69, 0
1, 12372, Note_on_c, 5, 62, 96
1, 12382, Note_off_c, 5, 62, 0
1, 12384, Note_on_c, 6, 67, 96
1, 12394, Note_off_c, 6, 67, 0
1, 12396, Note_on_c, 5, 62, 96
1, 12406, Note_off_c, 5, 62, 0
1, 12408, Note_on_c, 5, 69, 96
1, 12418, Note_off_c, 5, 69, 0
1, 12420, Note_on_c, 5, 62, 96
1, 12430, Note_off_c, 5, 62, 0
1, 12432, Note_on_c, 6, 65, 96
1, 12442, Note_off_c, 6, 65, 0
1, 12444, Note_on_c, 5, 62, 96
1, 12454, Note_off_c, 5, 62, 0
1, 12456, Note_on_c, 5, 69, 96
1, 12466, Note_off_c, 5, 69, 0
1, 12468, Note_on_c, 5, 62, 96
1, 12478, Note_off_c, 5, 62, 0
1, 12480, Note_on_c, 6, 64, 96
1, 12490, Note_off_c, 6, 64, 0
1, 12492, Note_on_c, 5, 62, 96
1, 12502, Note_off_c, 5, 62, 0
1, 12504, Note_on_c, 5, 69, 96
1, 12514, Note_off_c, 5, 69, 0
1, 12516, Note_on_c, 5, 62, 96
1, 12526, Note_off_c, 5, 62, 0
1, 12528, Note_on_c, 3, 38, 80
1, 12528, Note_on_c, 4, 26, 80
1, 12528, Note_on_c, 6, 62, 96
1, 12538, Note_off_c, 6, 62, 0
1, 12540, Note_on_c, 5, 62, 96
1, 12550, Note_off_c, 5, 62, 0
1, 12552, Note_on_c, 5, 69, 96
1, 12562, Note_off_c, 5, 69, 0
1, 12564, Note_on_c, 5, 62, 96
1, 12570, Note_off_c, 3, 38, 0
1, 12570, Note_off_c, 4, 26, 0
1, 12574, Note_off_c, 5, 62, 0
1, 12576, Note_on_c, 6, 64, 96
1, 12586, Note_off_c, 6, 64, 0
1, 12588, Note_on_c, 5, 62, 96
1, 12598, Note_off_c, 5, 62, 0
1, 12600, Note_on_c, 5, 69, 96
1, 12610, Note_off_c, 5, 69, 0
1, 12612, Note_on_c, 5, 62, 96
1, 12622, Note_off_c, 5, 62, 0
1, 12624, Note_on_c, 6, 65, 96
1, 12634, Note_off_c, 6, 65, 0
1, 12636, Note_on_c, 5, 62, 96
1, 12646, Note_off_c, 5, 62, 0
1, 12648, Note_on_c, 5, 69, 96
1, 12658, Note_off_c, 5, 69, 0
1, 12660, Note_on_c, 5, 62, 96
1, 12670, Note_off_c, 5, 62, 0
1, 12672, Note_on_c, 6, 67, 96
1, 12682, Note_off_c, 6, 67, 0
1, 12684, Note_on_c, 5, 62, 96
1, 12694, Note_off_c, 5, 62, 0
1, 12696, Note_on_c, 5, 69, 96
1, 12706, Note_off_c, 5, 69, 0
1, 12708, Note_on_c, 5, 62, 96
1, 12718, Note_off_c, 5, 62, 0
1, 12720, Note_on_c, 6, 65, 96
1, 12730, Note_off_c, 6, 65, 0
1, 12732, Note_on_c, 5, 62, 96
1, 12742, Note_off_c, 5, 62, 0
1, 12744, Note_on_c, 5, 69, 96
1, 12754, Note_off_c, 5, 69, 0
1, 12756, Note_on_c, 5, 62, 96
1, 12766, Note_off_c, 5, 62, 0
1, 12768, Note_on_c, 6, 64, 96
1, 12778, Note_off_c, 6, 64, 0
1, 12780, Note_on_c, 5, 62, 96
1, 12790, Note_off_c, 5, 62, 0
1, 12792, Note_on_c, 5, 69, 96
1, 12802, Note_off_c, 5, 69, 0
1, 12804, Note_on_c, 5, 62, 96
1, 12814, Note_off_c, 5, 62, 0
1, 12816, Note_on_c, 3, 38, 80
1, 12816, Note_on_c, 4, 26, 80
1, 12816, Note_on_c, 6, 62, 96
1, 12828, Note_on_c, 5, 74, 96
1, 12837, Note_off_c, 6, 62, 0
1, 12838, Note_off_c, 5, 74, 0
1, 12840, Note_on_c, 2, 74, 80
1, 12840, Note_on_c, 5, 69, 96
1, 12840, Note_on_c, 6, 65, 96
1, 12850, Note_off_c, 5, 69, 0
1, 12852, Note_on_c, 5, 74, 96
1, 12858, Note_off_c, 3, 38, 0
1, 12858, Note_off_c, 4, 26, 0
1, 12861, Note_off_c, 2, 74, 0
1, 12861, Note_off_c, 6, 65, 0
1, 12862, Note_off_c, 5, 74, 0
1, 12864, Note_on_c, 2, 73, 80
1, 12864, Note_on_c, 5, 67, 96
1, 12864, Note_on_c, 6, 64, 96
1, 12874, Note_off_c, 5, 67, 0
1, 12876, Note_on_c, 5, 73, 96
1, 12885, Note_off_c, 2, 73, 0
1, 12885, Note_off_c, 6, 64, 0
1, 12886, Note_off_c, 5, 73, 0
1, 12888, Note_on_c, 2, 74, 80
1, 12888, Note_on_c, 5, 69, 96
1, 12888, Note_on_c, 6, 65, 96
1, 12898, Note_off_c, 5, 69, 0
1, 12900, Note_on_c, 5, 74, 96
1, 12909, Note_off_c, 2, 74, 0
1, 12909, Note_off_c, 6, 65, 0
1, 12910, Note_off_c, 5, 74, 0
1, 12912, Note_on_c, 2, 76, 80
1, 12912, Note_on_c, 5, 70, 96
1, 12912, Note_on_c, 6, 67, 96
1, 12922, Note_off_c, 5, 70, 0
1, 12924, Note_on_c, 5, 76, 96
1, 12933, Note_off_c, 2, 76, 0
1, 12933, Note_off_c, 6, 67, 0
1, 12934, Note_off_c, 5, 76, 0
1, 12936, Note_on_c, 2, 73, 80
1, 12936, Note_on_c, 5, 67, 96
1, 12936, Note_on_c, 6, 64, 96
1, 12946, Note_off_c, 5, 67, 0
1, 12948, Note_on_c, 5, 73, 96
1, 12957, Note_off_c, 2, 73, 0
1, 12957, Note_off_c, 6, 64, 0
1, 12958, Note_off_c, 5, 73, 0
1, 12960, Note_on_c, 2, 74, 80
1, 12960, Note_on_c, 5, 69, 96
1, 12960, Note_on_c, 6, 65, 96
1, 12970, Note_off_c, 5, 69, 0
1, 12972, Note_on_c, 5, 74, 96
1, 12981, Note_off_c, 2, 74, 0
1, 12981, Note_off_c, 6, 65, 0
1, 12982, Note_off_c, 5, 74, 0
1, 12984, Note_on_c, 1, 74, 80
1, 12984, Note_on_c, 2, 65, 80
1, 12984, Note_on_c, 5, 74, 96
1, 12984, Note_on_c, 5, 69, 96
1, 12984, Note_on_c, 6, 65, 96
1, 12984, Note_on_c, 6, 62, 96
1, 12996, Note_on_c, 5, 77, 96
1, 13005, Note_off_c, 1, 74, 0
1, 13005, Note_off_c, 2, 65, 0
1, 13005, Note_off_c, 5, 74, 0
1, 13005, Note_off_c, 5, 69, 0
1, 13005, Note_off_c, 6, 65, 0
1, 13005, Note_off_c, 6, 62, 0
1, 13006, Note_off_c, 5, 77, 0
1, 13008, Note_on_c, 1, 73, 80
1, 13008, Note_on_c, 2, 67, 80
1, 13008, Note_on_c, 5, 73, 96
1, 13008, Note_on_c, 5, 69, 96
1, 13008, Note_on_c, 6, 67, 96
1, 13008, Note_on_c, 6, 64, 96
1, 13020, Note_on_c, 5, 76, 96
1, 13029, Note_off_c, 1, 73, 0
1, 13029, Note_off_c, 2, 67, 0
1, 13029, Note_off_c, 5, 73, 0
1, 13029, Note_off_c, 5, 69, 0
1, 13029, Note_off_c, 6, 67, 0
1, 13029, Note_off_c, 6, 64, 0
1, 13030, Note_off_c, 5, 76, 0
1, 13032, Note_on_c, 1, 74, 80
1, 13032, Note_on_c, 2, 65, 80
1, 13032, Note_on_c, 5, 74, 96
1, 13032, Note_on_c, 5, 69, 96
1, 13032, Note_on_c, 6, 65, 96
1, 13032, Note_on_c, 6, 62, 96
1, 13044, Note_on_c, 5, 77, 96
1, 13053, Note_off_c, 1, 74, 0
1, 13053, Note_off_c, 2, 65, 0
1, 13053, Note_off_c, 5, 74, 0
1, 13053, Note_off_c, 5, 69, 0
1, 13053, Note_off_c, 6, 65, 0
1, 13053, Note_off_c, 6, 62, 0
1, 13054, Note_off_c, 5, 77, 0
1, 13056, Note_on_c, 1, 76, 80
1, 13056, Note_on_c, 2, 64, 80
1, 13056, Note_on_c, 5, 76, 96
1, 13056, Note_on_c, 5, 69, 96
1, 13056, Note_on_c, 6, 64, 96
1, 13056, Note_on_c, 6, 61, 96
1, 13068, Note_on_c, 5, 79, 96
1, 13077, Note_off_c, 1, 76, 0
1, 13077, Note_off_c, 2, 64, 0
1, 13077, Note_off_c, 5, 76, 0
1, 13077, Note_off_c, 5, 69, 0
1, 13077, Note_off_c, 6, 64, 0
1, 13077, Note_off_c, 6, 61, 0
1, 13078, Note_off_c, 5, 79, 0
1, 13080, Note_on_c, 1, 73, 80
1, 13080, Note_on_c, 2, 67, 80
1, 13080, Note_on_c, 5, 73, 96
1, 13080, Note_on_c, 5, 69, 96
1, 13080, Note_on_c, 6, 67, 96
1, 13080, Note_on_c, 6, 64, 96
1, 13092, Note_on_c, 5, 76, 96
1, 13101, Note_off_c, 1, 73, 0
1, 13101, Note_off_c, 2, 67, 0
1, 13101, Note_off_c, 5, 73, 0
1, 13101, Note_off_c, 5, 69, 0
1, 13101, Note_off_c, 6, 67, 0
1, 13101, Note_off_c, 6, 64, 0
1, 13102, Note_off_c, 5, 76, 0
1, 13104, Note_on_c, 1, 74, 80
1, 13104, Note_on_c, 2, 65, 80
1, 13104, Note_on_c, 5, 74, 96
1, 13104, Note_on_c, 5, 69, 96
1, 13104, Note_on_c, 5, 77, 96
1, 13104, Note_on_c, 6, 50, 96
1, 13104, Note_on_c, 6, 57, 96
1, 13114, Note_off_c, 5, 74, 0
1, 13114, Note_off_c, 5, 69, 0
1, 13114, Note_off_c, 5, 77, 0
1, 13114, Note_off_c, 6, 50, 0
1, 13114, Note_off_c, 6, 57, 0
1, 13116, Note_on_c, 6, 62, 96
1, 13125, Note_off_c, 1, 74, 0
1, 13125, Note_off_c, 2, 65, 0
1, 13126, Note_off_c, 6, 62, 0
1, 13128, Note_on_c, 3, 50, 80
1, 13128, Note_on_c, 4, 38, 80
1, 13128, Note_on_c, 5, 65, 96
1, 13138, Note_off_c, 3, 50, 0
1, 13138, Note_off_c, 4, 38, 0
1, 13138, Note_off_c, 5, 65, 0
1, 13140, Note_on_c, 3, 52, 80
1, 13140, Note_on_c, 4, 40, 80
1, 13140, Note_on_c, 5, 69, 96
1, 13150, Note_off_c, 3, 52, 0
1, 13150, Note_off_c, 4, 40, 0
1, 13150, Note_off_c, 5, 69, 0
1, 13152, Note_on_c, 3, 53, 80
1, 13152, Note_on_c, 4, 41, 80
1, 13152, Note_on_c, 5, 74, 96
1, 13162, Note_off_c, 5, 74, 0
1, 13164, Note_on_c, 5, 69, 96
1, 13173, Note_off_c, 3, 53, 0
1, 13173, Note_off_c, 4, 41, 0
1, 13174, Note_off_c, 5, 69, 0
1, 13176, Note_on_c, 3, 52, 80
1, 13176, Note_on_c, 4, 40, 80
1, 13176, Note_on_c, 5, 74, 96
1, 13186, Note_off_c, 5, 74, 0
1, 13188, Note_on_c, 5, 77, 96
1, 13197, Note_off_c, 3, 52, 0
1, 13197, Note_off_c, 4, 40, 0
1, 13198, Note_off_c, 5, 77, 0
1, 13200, Note_on_c, 3, 50, 80
1, 13200, Note_on_c, 4, 38, 80
1, 13200, Note_on_c, 5, 81, 96
1, 13210, Note_off_c, 5, 81, 0
1, 13212, Note_on_c, 5, 79, 96
1, 13221, Note_off_c, 3, 50, 0
1, 13221, Note_off_c, 4, 38, 0
1, 13222, Note_off_c, 5, 79, 0
1, 13224, Note_on_c, 3, 48, 80
1, 13224, Note_on_c, 4, 36, 80
1, 13224, Note_on_c, 5, 77, 96
1, 13234, Note_off_c, 5, 77, 0
1, 13236, Note_on_c, 5, 76, 96
1, 13245, Note_off_c, 3, 48, 0
1, 13245, Note_off_c, 4, 36, 0
1, 13246, Note_off_c, 5, 76, 0
1, 13248, Note_on_c, 3, 47, 80
1, 13248, Note_on_c, 4, 35, 80
1, 13248, Note_on_c, 5, 74, 96
1, 13258, Note_off_c, 5, 74, 0
1, 13260, Note_on_c, 5, 72, 96
1, 13260, Note_on_c, 6, 47, 96
1, 13270, Note_off_c, 5, 72, 0
1, 13270, Note_off_c, 6, 47, 0
1, 13272, Note_on_c, 5, 71, 96
1, 13272, Note_on_c, 6, 48, 96
1, 13282, Note_off_c, 5, 71, 0
1, 13282, Note_off_c, 6, 48, 0
1, 13284, Note_on_c, 5, 69, 96
1, 13284, Note_on_c, 6, 50, 96
1, 13290, Note_off_c, 3, 47, 0
1, 13290, Note_off_c, 4, 35, 0
1, 13294, Note_off_c, 5, 69, 0
1, 13294, Note_off_c, 6, 50, 0
1, 13296, Note_on_c, 3, 56, 80
1, 13296, Note_on_c, 4, 44, 80
1, 13296, Note_on_c, 5, 68, 96
1, 13296, Note_on_c, 6, 52, 96
1, 13306, Note_off_c, 5, 68, 0
1, 13308, Note_on_c, 5, 66, 96
1, 13318, Note_off_c, 5, 66, 0
1, 13320, Note_on_c, 5, 64, 96
1, 13320, Note_on_c, 6, 47, 96
1, 13330, Note_off_c, 5, 64, 0
1, 13332, Note_on_c, 5, 62, 96
1, 13338, Note_off_c, 3, 56, 0
1, 13338, Note_off_c, 4, 44, 0
1, 13338, Note_off_c, 6, 52, 0
1, 13341, Note_off_c, 6, 47, 0
1, 13342, Note_off_c, 5, 62, 0
1, 13344, Note_on_c, 5, 60, 96
1, 13344, Note_on_c, 6, 40, 96
1, 13354, Note_off_c, 5, 60, 0
1, 13356, Note_on_c, 5, 59, 96
1, 13366, Note_off_c, 5, 59, 0
1, 13368, Note_on_c, 5, 57, 96
1, 13368, Note_on_c, 6, 50, 96
1, 13378, Note_off_c, 5, 57, 0
1, 13380, Note_on_c, 5, 56, 96
1, 13386, Note_off_c, 6, 40, 0
1, 13389, Note_off_c, 6, 50, 0
1, 13390, Note_off_c, 5, 56, 0
1, 13392, Note_on_c, 3, 45, 80
1, 13392, Note_on_c, 4, 33, 80
1, 13392, Note_on_c, 5, 57, 96
1, 13392, Note_on_c, 6, 48, 96
1, 13392, Note_on_c, 6, 45, 96
1, 13402, Note_off_c, 5, 57, 0
1, 13404, Note_on_c, 5, 59, 96
1, 13414, Note_off_c, 5, 59, 0
1, 13416, Note_on_c, 5, 60, 96
1, 13426, Note_off_c, 5, 60, 0
1, 13428, Note_on_c, 5, 62, 96
1, 13434, Note_off_c, 3, 45, 0
1, 13434, Note_off_c, 4, 33, 0
1, 13434, Note_off_c, 6, 48, 0
1, 13434, Note_off_c, 6, 45, 0
1, 13438, Note_off_c, 5, 62, 0
1, 13440, Note_on_c, 5, 64, 96
1, 13450, Note_off_c, 5, 64, 0
1, 13452, Note_on_c, 5, 66, 96
1, 13462, Note_off_c, 5, 66, 0
1, 13464, Note_on_c, 5, 68, 96
1, 13474, Note_off_c, 5, 68, 0
1, 13476, Note_on_c, 5, 69, 96
1, 13486, Note_off_c, 5, 69, 0
1, 13488, Note_on_c, 5, 64, 96
1, 13498, Note_off_c, 5, 64, 0
1, 13500, Note_on_c, 5, 69, 96
1, 13510, Note_off_c, 5, 69, 0
1, 13512, Note_on_c, 5, 60, 96
1, 13522, Note_off_c, 5, 60, 0
1, 13524, Note_on_c, 5, 64, 96
1, 13534, Note_off_c, 5, 64, 0
1, 13536, Note_on_c, 3, 45, 80
1, 13536, Note_on_c, 4, 33, 80
1, 13536, Note_on_c, 6, 45, 96
1, 13536, Note_on_c, 6, 33, 96
1, 13548, Note_on_c, 5, 81, 96
1, 13558, Note_off_c, 5, 81, 0
1, 13560, Note_on_c, 5, 76, 96
1, 13570, Note_off_c, 5, 76, 0
1, 13572, Note_on_c, 5, 81, 96
1, 13578, Note_off_c, 3, 45, 0
1, 13578, Note_off_c, 4, 33, 0
1, 13578, Note_off_c, 6, 45, 0
1, 13578, Note_off_c, 6, 33, 0
1, 13582, Note_off_c, 5, 81, 0
1, 13584, Note_on_c, 5, 72, 96
1, 13594, Note_off_c, 5, 72, 0
1, 13596, Note_on_c, 5, 76, 96
1, 13606, Note_off_c, 5, 76, 0
1, 13608, Note_on_c, 5, 69, 96
1, 13618, Note_off_c, 5, 69, 0
1, 13620, Note_on_c, 5, 72, 96
1, 13630, Note_off_c, 5, 72, 0
1, 13632, Note_on_c, 5, 64, 96
1, 13642, Note_off_c, 5, 64, 0
1, 13644, Note_on_c, 5, 69, 96
1, 13654, Note_off_c, 5, 69, 0
1, 13656, Note_on_c, 5, 60, 96
1, 13666, Note_off_c, 5, 60, 0
1, 13668, Note_on_c, 5, 64, 96
1, 13678, Note_off_c, 5, 64, 0
1, 13680, Note_on_c, 3, 45, 80
1, 13680, Note_on_c, 4, 33, 80
1, 13680, Note_on_c, 6, 57, 96
1, 13690, Note_off_c, 6, 57, 0
1, 13692, Note_on_c, 5, 57, 96
1, 13702, Note_off_c, 5, 57, 0
1, 13704, Note_on_c, 5, 64, 96
1, 13714, Note_off_c, 5, 64, 0
1, 13716, Note_on_c, 5, 57, 96
1, 13722, Note_off_c, 3, 45, 0
1, 13722, Note_off_c, 4, 33, 0
1, 13726, Note_off_c, 5, 57, 0
1, 13728, Note_on_c, 6, 59, 96
1, 13738, Note_off_c, 6, 59, 0
1, 13740, Note_on_c, 5, 57, 96
1, 13750, Note_off_c, 5, 57, 0
1, 13752, Note_on_c, 5, 64, 96
1, 13762, Note_off_c, 5, 64, 0
1, 13764, Note_on_c, 5, 57, 96
1, 13774, Note_off_c, 5, 57, 0
1, 13776, Note_on_c, 6, 60, 96
1, 13786, Note_off_c, 6, 60, 0
1, 13788, Note_on_c, 5, 57, 96
1, 13798, Note_off_c, 5, 57, 0
1, 13800, Note_on_c, 5, 64, 96
1, 13810, Note_off_c, 5, 64, 0
1, 13812, Note_on_c, 5, 57, 96
1, 13822, Note_off_c, 5, 57, 0
1, 13824, Note_on_c, 6, 62, 96
1, 13834, Note_off_c, 6, 62, 0
1, 13836, Note_on_c, 5, 57, 96
1, 13846, Note_off_c, 5, 57, 0
1, 13848, Note_on_c, 5, 64, 96
1, 13858, Note_off_c, 5, 64, 0
1, 13860, Note_on_c, 5, 57, 96
1, 13870, Note_off_c, 5, 57, 0
1, 13872, Note_on_c, 6, 60, 96
1, 13882, Note_off_c, 6, 60, 0
1, 13884, Note_on_c, 5, 57, 96
1, 13894, Note_off_c, 5, 57, 0
1, 13896, Note_on_c, 5, 64, 96
1, 13906, Note_off_c, 5, 64, 0
1, 13908, Note_on_c, 5, 57, 96
1, 13918, Note_off_c, 5, 57, 0
1, 13920, Note_on_c, 6, 59, 96
1, 13930, Note_off_c, 6, 59, 0
1, 13932, Note_on_c, 5, 57, 96
1, 13942, Note_off_c, 5, 57, 0
1, 13944, Note_on_c, 5, 64, 96
1, 13954, Note_off_c, 5, 64, 0
1, 13956, Note_on_c, 5, 57, 96
1, 13966, Note_off_c, 5, 57, 0
1, 13968, Note_on_c, 3, 45, 80
1, 13968, Note_on_c, 4, 33, 80
1, 13968, Note_on_c, 6, 57, 96
1, 13978, Note_off_c, 6, 57, 0
1, 13980, Note_on_c, 5, 57, 96
1, 13990, Note_off_c, 5, 57, 0
1, 13992, Note_on_c, 5, 64, 96
1, 14002, Note_off_c, 5, 64, 0
1, 14004, Note_on_c, 5, 57, 96
1, 14010, Note_off_c, 3, 45, 0
1, 14010, Note_off_c, 4, 33, 0
1, 14014, Note_off_c, 5, 57, 0
1, 14016, Note_on_c, 6, 59, 96
1, 14026, Note_off_c, 6, 59, 0
1, 14028, Note_on_c, 5, 57, 96
1, 14038, Note_off_c, 5, 57, 0
1, 14040, Note_on_c, 5, 64, 96
1, 14050, Note_off_c, 5, 64, 0
1, 14052, Note_on_c, 5, 57, 96
1, 14062, Note_off_c, 5, 57, 0
1, 14064, Note_on_c, 6, 60, 96
1, 14074, Note_off_c, 6, 60, 0
1, 14076, Note_on_c, 5, 57, 96
1, 14086, Note_off_c, 5, 57, 0
1, 14088, Note_on_c, 5, 64, 96
1, 14098, Note_off_c, 5, 64, 0
1, 14100, Note_on_c, 5, 57, 96
1, 14110, Note_off_c, 5, 57, 0
1, 14112, Note_on_c, 6, 62, 96
1, 14122, Note_off_c, 6, 62, 0
1, 14124, Note_on_c, 5, 57, 96
1, 14134, Note_off_c, 5, 57, 0
1, 14136, Note_on_c, 5, 64, 96
1, 14146, Note_off_c, 5, 64, 0
1, 14148, Note_on_c, 5, 57, 96
1, 14158, Note_off_c, 5, 57, 0
1, 14160, Note_on_c, 6, 60, 96
1, 14170, Note_off_c, 6, 60, 0
1, 14172, Note_on_c, 5, 57, 96
1, 14182, Note_off_c, 5, 57, 0
1, 14184, Note_on_c, 5, 64, 96
1, 14194, Note_off_c, 5, 64, 0
1, 14196, Note_on_c, 5, 57, 96
1, 14206, Note_off_c, 5, 57, 0
1, 14208, Note_on_c, 6, 59, 96
1, 14218, Note_off_c, 6, 59, 0
1, 14220, Note_on_c, 5, 57, 96
1, 14230, Note_off_c, 5, 57, 0
1, 14232, Note_on_c, 5, 64, 96
1, 14242, Note_off_c, 5, 64, 0
1, 14244, Note_on_c, 5, 57, 96
1, 14254, Note_off_c, 5, 57, 0
1, 14256, Note_on_c, 3, 45, 80
1, 14256, Note_on_c, 4, 33, 80
1, 14256, Note_on_c, 6, 57, 96
1, 14268, Note_on_c, 5, 81, 96
1, 14277, Note_off_c, 6, 57, 0
1, 14278, Note_off_c, 5, 81, 0
1, 14280, Note_on_c, 0, 81, 80
1, 14280, Note_on_c, 5, 76, 96
1, 14280, Note_on_c, 6, 72, 96
1, 14290, Note_off_c, 5, 76, 0
1, 14292, Note_on_c, 5, 81, 96
1, 14298, Note_off_c, 3, 45, 0
1, 14298, Note_off_c, 4, 33, 0
1, 14301, Note_off_c, 0, 81, 0
1, 14301, Note_off_c, 6, 72, 0
1, 14302, Note_off_c, 5, 81, 0
1, 14304, Note_on_c, 0, 80, 80
1, 14304, Note_on_c, 5, 74, 96
1, 14304, Note_on_c, 6, 71, 96
1, 14314, Note_off_c, 5, 74, 0
1, 14316, Note_on_c, 5, 80, 96
1, 14325, Note_off_c, 0, 80, 0
1, 14325, Note_off_c, 6, 71, 0
1, 14326, Note_off_c, 5, 80, 0
1, 14328, Note_on_c, 0, 81, 80
1, 14328, Note_on_c, 5, 76, 96
1, 14328, Note_on_c, 6, 72, 96
1, 14338, Note_off_c, 5, 76, 0
1, 14340, Note_on_c, 5, 81, 96
1, 14349, Note_off_c, 0, 81, 0
1, 14349, Note_off_c, 6, 72, 0
1, 14350, Note_off_c, 5, 81, 0
1, 14352, Note_on_c, 0, 83, 80
1, 14352, Note_on_c, 5, 77, 96
1, 14352, Note_on_c, 6, 74, 96
1, 14362, Note_off_c, 5, 77, 0
1, 14364, Note_on_c, 5, 83, 96
1, 14373, Note_off_c, 0, 83, 0
1, 14373, Note_off_c, 6, 74, 0
1, 14374, Note_off_c, 5, 83, 0
1, 14376, Note_on_c, 0, 80, 80
1, 14376, Note_on_c, 5, 74, 96
1, 14376, Note_on_c, 6, 71, 96
1, 14386, Note_off_c, 5, 74, 0
1, 14388, Note_on_c, 5, 80, 96
1, 14397, Note_off_c, 0, 80, 0
1, 14397, Note_off_c, 6, 71, 0
1, 14398, Note_off_c, 5, 80, 0
1, 14400, Note_on_c, 0, 81, 80
1, 14400, Note_on_c, 5, 76, 96
1, 14400, Note_on_c, 6, 72, 96
1, 14410, Note_off_c, 5, 76, 0
1, 14412, Note_on_c, 5, 81, 96
1, 14421, Note_off_c, 0, 81, 0
1, 14421, Note_off_c, 6, 72, 0
1, 14422, Note_off_c, 5, 81, 0
1, 14424, Note_on_c, 0, 72, 80
1, 14424, Note_on_c, 1, 69, 80
1, 14424, Note_on_c, 5, 81, 96
1, 14424, Note_on_c, 5, 76, 96
1, 14424, Note_on_c, 6, 72, 96
1, 14424, Note_on_c, 6, 69, 96
1, 14436, Note_on_c, 5, 84, 96
1, 14445, Note_off_c, 0, 72, 0
1, 14445, Note_off_c, 1, 69, 0
1, 14445, Note_off_c, 5, 81, 0
1, 14445, Note_off_c, 5, 76, 0
1, 14445, Note_off_c, 6, 72, 0
1, 14445, Note_off_c, 6, 69, 0
1, 14446, Note_off_c, 5, 84, 0
1, 14448, Note_on_c, 0, 74, 80
1, 14448, Note_on_c, 1, 68, 80
1, 14448, Note_on_c, 5, 80, 96
1, 14448, Note_on_c, 5, 76, 96
1, 14448, Note_on_c, 6, 74, 96
1, 14448, Note_on_c, 6, 71, 96
1, 14460, Note_on_c, 5, 83, 96
1, 14469, Note_off_c, 0, 74, 0
1, 14469, Note_off_c, 1, 68, 0
1, 14469, Note_off_c, 5, 80, 0
1, 14469, Note_off_c, 5, 76, 0
1, 14469, Note_off_c, 6, 74, 0
1, 14469, Note_off_c, 6, 71, 0
1, 14470, Note_off_c, 5, 83, 0
1, 14472, Note_on_c, 0, 72, 80
1, 14472, Note_on_c, 1, 69, 80
1, 14472, Note_on_c, 5, 81, 96
1, 14472, Note_on_c, 5, 76, 96
1, 14472, Note_on_c, 6, 72, 96
1, 14472, Note_on_c, 6, 69, 96
1, 14484, Note_on_c, 5, 84, 96
1, 14493, Note_off_c, 0, 72, 0
1, 14493, Note_off_c, 1, 69, 0
1, 14493, Note_off_c, 5, 81, 0
1, 14493, Note_off_c, 5, 76, 0
1, 14493, Note_off_c, 6, 72, 0
1, 14493, Note_off_c, 6, 69, 0
1, 14494, Note_off_c, 5, 84, 0
1, 14496, Note_on_c, 0, 71, 80
1, 14496, Note_on_c, 1, 71, 80
1, 14496, Note_on_c, 5, 83, 96
1, 14496, Note_on_c, 5, 76, 96
1, 14496, Note_on_c, 6, 71, 96
1, 14496, Note_on_c, 6, 68, 96
1, 14508, Note_on_c, 5, 86, 96
1, 14517, Note_off_c, 0, 71, 0
1, 14517, Note_off_c, 1, 71, 0
1, 14517, Note_off_c, 5, 83, 0
1, 14517, Note_off_c, 5, 76, 0
1, 14517, Note_off_c, 6, 71, 0
1, 14517, Note_off_c, 6, 68, 0
1, 14518, Note_off_c, 5, 86, 0
1, 14520, Note_on_c, 0, 74, 80
1, 14520, Note_on_c, 1, 68, 80
1, 14520, Note_on_c, 5, 80, 96
1, 14520, Note_on_c, 5, 76, 96
1, 14520, Note_on_c, 6, 74, 96
1, 14520, Note_on_c, 6, 71, 96
1, 14532, Note_on_c, 5, 83, 96
1, 14541, Note_off_c, 0, 74, 0
1, 14541, Note_off_c, 1, 68, 0
1, 14541, Note_off_c, 5, 80, 0
1, 14541, Note_off_c, 5, 76, 0
1, 14541, Note_off_c, 6, 74, 0
1, 14541, Note_off_c, 6, 71, 0
1, 14542, Note_off_c, 5, 83, 0
1, 14544, Note_on_c, 0, 72, 80
1, 14544, Note_on_c, 1, 69, 80
1, 14544, Note_on_c, 5, 81, 96
1, 14544, Note_on_c, 5, 76, 96
1, 14544, Note_on_c, 5, 84, 96
1, 14544, Note_on_c, 6, 72, 96
1, 14544, Note_on_c, 6, 69, 96
1, 14554, Note_off_c, 5, 81, 0
1, 14554, Note_off_c, 5, 76, 0
1, 14554, Note_off_c, 5, 84, 0
1, 14554, Note_off_c, 6, 72, 0
1, 14554, Note_off_c, 6, 69, 0
1, 14556, Note_on_c, 6, 57, 96
1, 14566, Note_off_c, 6, 57, 0
1, 14568, Note_on_c, 3, 57, 80
1, 14568, Note_on_c, 4, 45, 80
1, 14568, Note_on_c, 6, 60, 96
1, 14578, Note_off_c, 3, 57, 0
1, 14578, Note_off_c, 4, 45, 0
1, 14578, Note_off_c, 6, 60, 0
1, 14580, Note_on_c, 3, 59, 80
1, 14580, Note_on_c, 4, 47, 80
1, 14580, Note_on_c, 6, 64, 96
1, 14586, Note_off_c, 0, 72, 0
1, 14586, Note_off_c, 1, 69, 0
1, 14590, Note_off_c, 3, 59, 0
1, 14590, Note_off_c, 4, 47, 0
1, 14590, Note_off_c, 6, 64, 0
1, 14592, Note_on_c, 3, 60, 80
1, 14592, Note_on_c, 4, 48, 80
1, 14592, Note_on_c, 6, 69, 96
1, 14602, Note_off_c, 6, 69, 0
1, 14604, Note_on_c, 6, 64, 96
1, 14613, Note_off_c, 3, 60, 0
1, 14613, Note_off_c, 4, 48, 0
1, 14614, Note_off_c, 6, 64, 0
1, 14616, Note_on_c, 3, 59, 80
1, 14616, Note_on_c, 4, 47, 80
1, 14616, Note_on_c, 6, 69, 96
1, 14626, Note_off_c, 6, 69, 0
1, 14628, Note_on_c, 5, 72, 96
1, 14637, Note_off_c, 3, 59, 0
1, 14637, Note_off_c, 4, 47, 0
1, 14638, Note_off_c, 5, 72, 0
1, 14640, Note_on_c, 3, 57, 80
1, 14640, Note_on_c, 4, 45, 80
1, 14640, Note_on_c, 5, 76, 96
1, 14650, Note_off_c, 5, 76, 0
1, 14652, Note_on_c, 5, 74, 96
1, 14661, Note_off_c, 3, 57, 0
1, 14661, Note_off_c, 4, 45, 0
1, 14662, Note_off_c, 5, 74, 0
1, 14664, Note_on_c, 3, 55, 80
1, 14664, Note_on_c, 4, 43, 80
1, 14664, Note_on_c, 5, 72, 96
1, 14674, Note_off_c, 5, 72, 0
1, 14676, Note_on_c, 5, 71, 96
1, 14685, Note_off_c, 3, 55, 0
1, 14685, Note_off_c, 4, 43, 0
1, 14686, Note_off_c, 5, 71, 0
1, 14688, Note_on_c, 3, 54, 80
1, 14688, Note_on_c, 4, 42, 80
1, 14688, Note_on_c, 5, 69, 96
1, 14698, Note_off_c, 5, 69, 0
1, 14700, Note_on_c, 5, 67, 96
1, 14700, Note_on_c, 6, 42, 96
1, 14710, Note_off_c, 5, 67, 0
1, 14710, Note_off_c, 6, 42, 0
1, 14712, Note_on_c, 5, 66, 96
1, 14712, Note_on_c, 6, 43, 96
1, 14722, Note_off_c, 5, 66, 0
1, 14722, Note_off_c, 6, 43, 0
1, 14724, Note_on_c, 5, 64, 96
1, 14724, Note_on_c, 6, 45, 96
1, 14730, Note_off_c, 3, 54, 0
1, 14730, Note_off_c, 4, 42, 0
1, 14734, Note_off_c, 5, 64, 0
1, 14734, Note_off_c, 6, 45, 0
1, 14736, Note_on_c, 3, 63, 80
1, 14736, Note_on_c, 4, 51, 80
1, 14736, Note_on_c, 5, 63, 96
1, 14736, Note_on_c, 6, 47, 96
1, 14746, Note_off_c, 5, 63, 0
1, 14748, Note_on_c, 5, 61, 96
1, 14758, Note_off_c, 5, 61, 0
1, 14760, Note_on_c, 5, 59, 96
1, 14760, Note_on_c, 6, 42, 96
1, 14770, Note_off_c, 5, 59, 0
1, 14772, Note_on_c, 5, 57, 96
1, 14778, Note_off_c, 3, 63, 0
1, 14778, Note_off_c, 4, 51, 0
1, 14778, Note_off_c, 6, 47, 0
1, 14781, Note_off_c, 6, 42, 0
1, 14782, Note_off_c, 5, 57, 0
1, 14784, Note_on_c, 5, 55, 96
1, 14784, Note_on_c, 6, 35, 96
1, 14794, Note_off_c, 5, 55, 0
1, 14796, Note_on_c, 5, 54, 96
1, 14806, Note_off_c, 5, 54, 0
1, 14808, Note_on_c, 5, 52, 96
1, 14808, Note_on_c, 6, 45, 96
1, 14818, Note_off_c, 5, 52, 0
1, 14820, Note_on_c, 5, 51, 96
1, 14826, Note_off_c, 6, 35, 0
1, 14829, Note_off_c, 6, 45, 0
1, 14830, Note_off_c, 5, 51, 0
1, 14832, Note_on_c, 3, 52, 80
1, 14832, Note_on_c, 4, 40, 80
1, 14832, Note_on_c, 5, 52, 96
1, 14832, Note_on_c, 6, 47, 96
1, 14832, Note_on_c, 6, 43, 96
1, 14832, Note_on_c, 6, 40, 96
1, 14842, Note_off_c, 5, 52, 0
1, 14844, Note_on_c, 5, 54, 96
1, 14854, Note_off_c, 5, 54, 0
1, 14856, Note_on_c, 5, 55, 96
1, 14866, Note_off_c, 5, 55, 0
1, 14868, Note_on_c, 5, 57, 96
1, 14874, Note_off_c, 3, 52, 0
1, 14874, Note_off_c, 4, 40, 0
1, 14874, Note_off_c, 6, 47, 0
1, 14874, Note_off_c, 6, 43, 0
1, 14874, Note_off_c, 6, 40, 0
1, 14878, Note_off_c, 5, 57, 0
1, 14880, Note_on_c, 5, 59, 96
1, 14890, Note_off_c, 5, 59, 0
1, 14892, Note_on_c, 5, 61, 96
1, 14902, Note_off_c, 5, 61, 0
1, 14904, Note_on_c, 5, 63, 96
1, 14914, Note_off_c, 5, 63, 0
1, 14916, Note_on_c, 5, 64, 96
1, 14926, Note_off_c, 5, 64, 0
1, 14928, Note_on_c, 5, 59, 96
1, 14938, Note_off_c, 5, 59, 0
1, 14940, Note_on_c, 5, 64, 96
1, 14950, Note_off_c, 5, 64, 0
1, 14952, Note_on_c, 5, 55, 96
1, 14962, Note_off_c, 5, 55, 0
1, 14964, Note_on_c, 5, 59, 96
1, 14974, Note_off_c, 5, 59, 0
1, 14976, Note_on_c, 6, 52, 96
1, 14976, Note_on_c, 6, 47, 96
1, 14976, Note_on_c, 6, 43, 96
1, 14976, Note_on_c, 6, 40, 96
1, 14988, Note_on_c, 5, 76, 96
1, 14998, Note_off_c, 5, 76, 0
1, 15000, Note_on_c, 5, 71, 96
1, 15010, Note_off_c, 5, 71, 0
1, 15012, Note_on_c, 5, 76, 96
1, 15018, Note_off_c, 6, 52, 0
1, 15018, Note_off_c, 6, 47, 0
1, 15018, Note_off_c, 6, 43, 0
1, 15018, Note_off_c, 6, 40, 0
1, 15022, Note_off_c, 5, 76, 0
1, 15024, Note_on_c, 5, 67, 96
1, 15034, Note_off_c, 5, 67, 0
1, 15036, Note_on_c, 5, 71, 96
1, 15046, Note_off_c, 5, 71, 0
1, 15048, Note_on_c, 5, 64, 96
1, 15058, Note_off_c, 5, 64, 0
1, 15060, Note_on_c, 5, 67, 96
1, 15070, Note_off_c, 5, 67, 0
1, 15072, Note_on_c, 5, 59, 96
1, 15082, Note_off_c, 5, 59, 0
1, 15084, Note_on_c, 5, 64, 96
1, 15094, Note_off_c, 5, 64, 0
1, 15096, Note_on_c, 5, 55, 96
1, 15106, Note_off_c, 5, 55, 0
1, 15108, Note_on_c, 5, 59, 96
1, 15118, Note_off_c, 5, 59, 0
1, 15120, Note_on_c, 6, 52, 96
1, 15132, Note_on_c, 6, 64, 96
1, 15141, Note_off_c, 6, 52, 0
1, 15142, Note_off_c, 6, 64, 0
1, 15144, Note_on_c, 3, 52, 80
1, 15144, Note_on_c, 4, 40, 80
1, 15144, Note_on_c, 5, 67, 96
1, 15154, Note_off_c, 3, 52, 0
1, 15154, Note_off_c, 4, 40, 0
1, 15154, Note_off_c, 5, 67, 0
1, 15156, Note_on_c, 3, 53, 80
1, 15156, Note_on_c, 4, 41, 80
1, 15156, Note_on_c, 5, 71, 96
1, 15166, Note_off_c, 3, 53, 0
1, 15166, Note_off_c, 4, 41, 0
1, 15166, Note_off_c, 5, 71, 0
1, 15168, Note_on_c, 3, 55, 80
1, 15168, Note_on_c, 4, 43, 80
1, 15168, Note_on_c, 5, 76, 96
1, 15178, Note_off_c, 5, 76, 0
1, 15180, Note_on_c, 5, 71, 96
1, 15189, Note_off_c, 3, 55, 0
1, 15189, Note_off_c, 4, 43, 0
1, 15190, Note_off_c, 5, 71, 0
1, 15192, Note_on_c, 3, 53, 80
1, 15192, Note_on_c, 4, 41, 80
1, 15192, Note_on_c, 5, 76, 96
1, 15202, Note_off_c, 5, 76, 0
1, 15204, Note_on_c, 5, 79, 96
1, 15213, Note_off_c, 3, 53, 0
1, 15213, Note_off_c, 4, 41, 0
1, 15214, Note_off_c, 5, 79, 0
1, 15216, Note_on_c, 3, 52, 80
1, 15216, Note_on_c, 4, 40, 80
1, 15216, Note_on_c, 5, 82, 96
1, 15226, Note_off_c, 5, 82, 0
1, 15228, Note_on_c, 5, 81, 96
1, 15237, Note_off_c, 3, 52, 0
1, 15237, Note_off_c, 4, 40, 0
1, 15238, Note_off_c, 5, 81, 0
1, 15240, Note_on_c, 3, 50, 80
1, 15240, Note_on_c, 4, 38, 80
1, 15240, Note_on_c, 5, 79, 96
1, 15250, Note_off_c, 5, 79, 0
1, 15252, Note_on_c, 5, 77, 96
1, 15261, Note_off_c, 3, 50, 0
1, 15261, Note_off_c, 4, 38, 0
1, 15262, Note_off_c, 5, 77, 0
1, 15264, Note_on_c, 3, 49, 80
1, 15264, Note_on_c, 4, 37, 80
1, 15264, Note_on_c, 5, 76, 96
1, 15274, Note_off_c, 5, 76, 0
1, 15276, Note_on_c, 5, 77, 96
1, 15286, Note_off_c, 5, 77, 0
1, 15288, Note_on_c, 5, 79, 96
1, 15288, Note_on_c, 6, 52, 96
1, 15298, Note_off_c, 5, 79, 0
1, 15300, Note_on_c, 5, 77, 96
1, 15306, Note_off_c, 3, 49, 0
1, 15306, Note_off_c, 4, 37, 0
1, 15309, Note_off_c, 6, 52, 0
1, 15310, Note_off_c, 5, 77, 0
1, 15312, Note_on_c, 3, 57, 80
1, 15312, Note_on_c, 4, 45, 80
1, 15312, Note_on_c, 5, 76, 96
1, 15312, Note_on_c, 6, 57, 96
1, 15322, Note_off_c, 5, 76, 0
1, 15324, Note_on_c, 5, 74, 96
1, 15333, Note_off_c, 6, 57, 0
1, 15334, Note_off_c, 5, 74, 0
1, 15336, Note_on_c, 5, 73, 96
1, 15336, Note_on_c, 6, 52, 96
1, 15346, Note_off_c, 5, 73, 0
1, 15348, Note_on_c, 5, 71, 96
1, 15354, Note_off_c, 3, 57, 0
1, 15354, Note_off_c, 4, 45, 0
1, 15357, Note_off_c, 6, 52, 0
1, 15358, Note_off_c, 5, 71, 0
1, 15360, Note_on_c, 5, 69, 96
1, 15360, Note_on_c, 6, 49, 96
1, 15370, Note_off_c, 5, 69, 0
1, 15372, Note_on_c, 5, 67, 96
1, 15381, Note_off_c, 6, 49, 0
1, 15382, Note_off_c, 5, 67, 0
1, 15384, Note_on_c, 5, 65, 96
1, 15384, Note_on_c, 6, 55, 96
1, 15384, Note_on_c, 6, 49, 96
1, 15384, Note_on_c, 6, 45, 96
1, 15394, Note_off_c, 5, 65, 0
1, 15396, Note_on_c, 5, 64, 96
1, 15405, Note_off_c, 6, 55, 0
1, 15405, Note_off_c, 6, 49, 0
1, 15405, Note_off_c, 6, 45, 0
1, 15406, Note_off_c, 5, 64, 0
1, 15408, Note_on_c, 3, 50, 80
1, 15408, Note_on_c, 4, 38, 80
1, 15408, Note_on_c, 5, 62, 96
1, 15408, Note_on_c, 6, 53, 96
1, 15408, Note_on_c, 6, 50, 96
1, 15418, Note_off_c, 5, 62, 0
1, 15420, Note_on_c, 5, 64, 96
1, 15430, Note_off_c, 5, 64, 0
1, 15432, Note_on_c, 5, 65, 96
1, 15442, Note_off_c, 5, 65, 0
1, 15444, Note_on_c, 5, 67, 96
1, 15450, Note_off_c, 3, 50, 0
1, 15450, Note_off_c, 4, 38, 0
1, 15450, Note_off_c, 6, 53, 0
1, 15450, Note_off_c, 6, 50, 0
1, 15454, Note_off_c, 5, 67, 0
1, 15456, Note_on_c, 5, 69, 96
1, 15466, Note_off_c, 5, 69, 0
1, 15468, Note_on_c, 5, 71, 96
1, 15478, Note_off_c, 5, 71, 0
1, 15480, Note_on_c, 5, 73, 96
1, 15490, Note_off_c, 5, 73, 0
1, 15492, Note_on_c, 5, 74, 96
1, 15502, Note_off_c, 5, 74, 0
1, 15504, Note_on_c, 5, 69, 96
1, 15514, Note_off_c, 5, 69, 0
1, 15516, Note_on_c, 5, 74, 96
1, 15526, Note_off_c, 5, 74, 0
1, 15528, Note_on_c, 5, 65, 96
1, 15538, Note_off_c, 5, 65, 0
1, 15540, Note_on_c, 5, 69, 96
1, 15550, Note_off_c, 5, 69, 0
1, 15552, Note_on_c, 6, 62, 96
1, 15552, Note_on_c, 6, 57, 96
1, 15552, Note_on_c, 6, 53, 96
1, 15552, Note_on_c, 6, 50, 96
1, 15564, Note_on_c, 5, 86, 96
1, 15574, Note_off_c, 5, 86, 0
1, 15576, Note_on_c, 3, 50, 80
1, 15576, Note_on_c, 4, 38, 80
1, 15576, Note_on_c, 5, 81, 96
1, 15586, Note_off_c, 3, 50, 0
1, 15586, Note_off_c, 4, 38, 0
1, 15586, Note_off_c, 5, 81, 0
1, 15588, Note_on_c, 3, 52, 80
1, 15588, Note_on_c, 4, 40, 80
1, 15588, Note_on_c, 5, 86, 96
1, 15594, Note_off_c, 6, 62, 0
1, 15594, Note_off_c, 6, 57, 0
1, 15594, Note_off_c, 6, 53, 0
1, 15594, Note_off_c, 6, 50, 0
1, 15598, Note_off_c, 3, 52, 0
1, 15598, Note_off_c, 4, 40, 0
1, 15598, Note_off_c, 5, 86, 0
1, 15600, Note_on_c, 3, 53, 80
1, 15600, Note_on_c, 4, 41, 80
1, 15600, Note_on_c, 5, 77, 96
1, 15610, Note_off_c, 5, 77, 0
1, 15612, Note_on_c, 5, 81, 96
1, 15621, Note_off_c, 3, 53, 0
1, 15621, Note_off_c, 4, 41, 0
1, 15622, Note_off_c, 5, 81, 0
1, 15624, Note_on_c, 3, 52, 80
1, 15624, Note_on_c, 4, 40, 80
1, 15624, Note_on_c, 5, 74, 96
1, 15634, Note_off_c, 5, 74, 0
1, 15636, Note_on_c, 5, 77, 96
1, 15645, Note_off_c, 3, 52, 0
1, 15645, Note_off_c, 4, 40, 0
1, 15646, Note_off_c, 5, 77, 0
1, 15648, Note_on_c, 3, 50, 80
1, 15648, Note_on_c, 4, 38, 80
1, 15648, Note_on_c, 5, 69, 96
1, 15658, Note_off_c, 5, 69, 0
1, 15660, Note_on_c, 5, 74, 96
1, 15669, Note_off_c, 3, 50, 0
1, 15669, Note_off_c, 4, 38, 0
1, 15670, Note_off_c, 5, 74, 0
1, 15672, Note_on_c, 3, 48, 80
1, 15672, Note_on_c, 4, 36, 80
1, 15672, Note_on_c, 5, 65, 96
1, 15682, Note_off_c, 5, 65, 0
1, 15684, Note_on_c, 5, 69, 96
1, 15693, Note_off_c, 3, 48, 0
1, 15693, Note_off_c, 4, 36, 0
1, 15694, Note_off_c, 5, 69, 0
1, 15696, Note_on_c, 6, 58, 96
1, 15696, Note_on_c, 6, 53, 96
1, 15696, Note_on_c, 6, 50, 96
1, 15708, Note_on_c, 5, 60, 96
1, 15718, Note_off_c, 5, 60, 0
1, 15720, Note_on_c, 3, 46, 80
1, 15720, Note_on_c, 4, 34, 80
1, 15720, Note_on_c, 5, 62, 96
1, 15730, Note_off_c, 3, 46, 0
1, 15730, Note_off_c, 4, 34, 0
1, 15730, Note_off_c, 5, 62, 0
1, 15732, Note_on_c, 3, 48, 80
1, 15732, Note_on_c, 4, 36, 80
1, 15732, Note_on_c, 5, 63, 96
1, 15738, Note_off_c, 6, 58, 0
1, 15738, Note_off_c, 6, 53, 0
1, 15738, Note_off_c, 6, 50, 0
1, 15742, Note_off_c, 3, 48, 0
1, 15742, Note_off_c, 4, 36, 0
1, 15742, Note_off_c, 5, 63, 0
1, 15744, Note_on_c, 3, 50, 80
1, 15744, Note_on_c, 4, 38, 80
1, 15744, Note_on_c, 5, 65, 96
1, 15754, Note_off_c, 5, 65, 0
1, 15756, Note_on_c, 5, 67, 96
1, 15765, Note_off_c, 3, 50, 0
1, 15765, Note_off_c, 4, 38, 0
1, 15766, Note_off_c, 5, 67, 0
1, 15768, Note_on_c, 3, 48, 80
1, 15768, Note_on_c, 4, 36, 80
1, 15768, Note_on_c, 5, 69, 96
1, 15778, Note_off_c, 5, 69, 0
1, 15780, Note_on_c, 5, 70, 96
1, 15789, Note_off_c, 3, 48, 0
1, 15789, Note_off_c, 4, 36, 0
1, 15790, Note_off_c, 5, 70, 0
1, 15792, Note_on_c, 3, 46, 80
1, 15792, Note_on_c, 4, 34, 80
1, 15792, Note_on_c, 5, 65, 96
1, 15802, Note_off_c, 5, 65, 0
1, 15804, Note_on_c, 5, 70, 96
1, 15813, Note_off_c, 3, 46, 0
1, 15813, Note_off_c, 4, 34, 0
1, 15814, Note_off_c, 5, 70, 0
1, 15816, Note_on_c, 3, 45, 80
1, 15816, Note_on_c, 4, 33, 80
1, 15816, Note_on_c, 5, 62, 96
1, 15826, Note_off_c, 5, 62, 0
1, 15828, Note_on_c, 5, 65, 96
1, 15837, Note_off_c, 3, 45, 0
1, 15837, Note_off_c, 4, 33, 0
1, 15838, Note_off_c, 5, 65, 0
1, 15840, Note_on_c, 6, 55, 96
1, 15840, Note_on_c, 6, 50, 96
1, 15840, Note_on_c, 6, 46, 96
1, 15852, Note_on_c, 5, 57, 96
1, 15862, Note_off_c, 5, 57, 0
1, 15864, Note_on_c, 3, 43, 80
1, 15864, Note_on_c, 4, 31, 80
1, 15864, Note_on_c, 5, 58, 96
1, 15874, Note_off_c, 3, 43, 0
1, 15874, Note_off_c, 4, 31, 0
1, 15874, Note_off_c, 5, 58, 0
1, 15876, Note_on_c, 3, 45, 80
1, 15876, Note_on_c, 4, 33, 80
1, 15876, Note_on_c, 5, 60, 96
1, 15882, Note_off_c, 6, 55, 0
1, 15882, Note_off_c, 6, 50, 0
1, 15882, Note_off_c, 6, 46, 0
1, 15886, Note_off_c, 3, 45, 0
1, 15886, Note_off_c, 4, 33, 0
1, 15886, Note_off_c, 5, 60, 0
1, 15888, Note_on_c, 3, 46, 80
1, 15888, Note_on_c, 4, 34, 80
1, 15888, Note_on_c, 5, 62, 96
1, 15898, Note_off_c, 5, 62, 0
1, 15900, Note_on_c, 5, 64, 96
1, 15909, Note_off_c, 3, 46, 0
1, 15909, Note_off_c, 4, 34, 0
1, 15910, Note_off_c, 5, 64, 0
1, 15912, Note_on_c, 3, 45, 80
1, 15912, Note_on_c, 4, 33, 80
1, 15912, Note_on_c, 5, 65, 96
1, 15922, Note_off_c, 5, 65, 0
1, 15924, Note_on_c, 5, 67, 96
1, 15933, Note_off_c, 3, 45, 0
1, 15933, Note_off_c, 4, 33, 0
1, 15934, Note_off_c, 5, 67, 0
1, 15936, Note_on_c, 3, 43, 80
1, 15936, Note_on_c, 4, 31, 80
1, 15936, Note_on_c, 5, 69, 96
1, 15946, Note_off_c, 5, 69, 0
1, 15948, Note_on_c, 5, 70, 96
1, 15957, Note_off_c, 3, 43, 0
1, 15957, Note_off_c, 4, 31, 0
1, 15958, Note_off_c, 5, 70, 0
1, 15960, Note_on_c, 3, 41, 80
1, 15960, Note_on_c, 4, 29, 80
1, 15960, Note_on_c, 5, 72, 96
1, 15970, Note_off_c, 5, 72, 0
1, 15972, Note_on_c, 5, 74, 96
1, 15981, Note_off_c, 3, 41, 0
1, 15981, Note_off_c, 4, 29, 0
1, 15982, Note_off_c, 5, 74, 0
1, 15984, Note_on_c, 3, 48, 80
1, 15984, Note_on_c, 4, 36, 80
1, 15984, Note_on_c, 5, 76, 96
1, 15984, Note_on_c, 6, 55, 96
1, 15984, Note_on_c, 6, 48, 96
1, 15984, Note_on_c, 6, 46, 96
1, 15994, Note_off_c, 5, 76, 0
1, 15996, Note_on_c, 5, 77, 96
1, 16006, Note_off_c, 5, 77, 0
1, 16008, Note_on_c, 5, 79, 96
1, 16018, Note_off_c, 5, 79, 0
1, 16020, Note_on_c, 5, 81, 96
1, 16026, Note_off_c, 3, 48, 0
1, 16026, Note_off_c, 4, 36, 0
1, 16026, Note_off_c, 6, 55, 0
1, 16026, Note_off_c, 6, 48, 0
1, 16026, Note_off_c, 6, 46, 0
1, 16030, Note_off_c, 5, 81, 0
1, 16032, Note_on_c, 5, 82, 96
1, 16042, Note_off_c, 5, 82, 0
1, 16044, Note_on_c, 5, 81, 96
1, 16054, Note_off_c, 5, 81, 0
1, 16056, Note_on_c, 5, 79, 96
1, 16066, Note_off_c, 5, 79, 0
1, 16068, Note_on_c, 5, 77, 96
1, 16078, Note_off_c, 5, 77, 0
1, 16080, Note_on_c, 5, 76, 96
1, 16090, Note_off_c, 5, 76, 0
1, 16092, Note_on_c, 5, 74, 96
1, 16102, Note_off_c, 5, 74, 0
1, 16104, Note_on_c, 5, 72, 96
1, 16114, Note_off_c, 5, 72, 0
1, 16116, Note_on_c, 5, 70, 96
1, 16126, Note_off_c, 5, 70, 0
1, 16128, Note_on_c, 3, 53, 80
1, 16128, Note_on_c, 4, 41, 80
1, 16128, Note_on_c, 5, 69, 96
1, 16138, Note_off_c, 5, 69, 0
1, 16140, Note_on_c, 5, 67, 96
1, 16149, Note_off_c, 3, 53, 0
1, 16149, Note_off_c, 4, 41, 0
1, 16150, Note_off_c, 5, 67, 0
1, 16152, Note_on_c, 3, 45, 80
1, 16152, Note_on_c, 4, 33, 80
1, 16152, Note_on_c, 5, 65, 96
1, 16152, Note_on_c, 6, 45, 96
1, 16162, Note_off_c, 5, 65, 0
1, 16164, Note_on_c, 5, 64, 96
1, 16173, Note_off_c, 3, 45, 0
1, 16173, Note_off_c, 4, 33, 0
1, 16173, Note_off_c, 6, 45, 0
1, 16174, Note_off_c, 5, 64, 0
1, 16176, Note_on_c, 3, 46, 80
1, 16176, Note_on_c, 4, 34, 80
1, 16176, Note_on_c, 5, 62, 96
1, 16176, Note_on_c, 6, 46, 96
1, 16186, Note_off_c, 5, 62, 0
1, 16188, Note_on_c, 5, 60, 96
1, 16197, Note_off_c, 3, 46, 0
1, 16197, Note_off_c, 4, 34, 0
1, 16197, Note_off_c, 6, 46, 0
1, 16198, Note_off_c, 5, 60, 0
1, 16200, Note_on_c, 3, 53, 80
1, 16200, Note_on_c, 4, 41, 80
1, 16200, Note_on_c, 5, 58, 96
1, 16200, Note_on_c, 6, 43, 96
1, 16210, Note_off_c, 5, 58, 0
1, 16212, Note_on_c, 5, 57, 96
1, 16221, Note_off_c, 3, 53, 0
1, 16221, Note_off_c, 4, 41, 0
1, 16221, Note_off_c, 6, 43, 0
1, 16222, Note_off_c, 5, 57, 0
1, 16224, Note_on_c, 3, 48, 80
1, 16224, Note_on_c, 4, 36, 80
1, 16224, Note_on_c, 5, 55, 96
1, 16224, Note_on_c, 6, 48, 96
1, 16234, Note_off_c, 5, 55, 0
1, 16236, Note_on_c, 5, 65, 96
1, 16245, Note_off_c, 3, 48, 0
1, 16245, Note_off_c, 4, 36, 0
1, 16245, Note_off_c, 6, 48, 0
1, 16246, Note_off_c, 5, 65, 0
1, 16248, Note_on_c, 3, 52, 80
1, 16248, Note_on_c, 4, 40, 80
1, 16248, Note_on_c, 5, 55, 96
1, 16248, Note_on_c, 6, 36, 96
1, 16248, Note_on_c, 6, 48, 96
1, 16258, Note_off_c, 5, 55, 0
1, 16260, Note_on_c, 5, 64, 96
1, 16269, Note_off_c, 3, 52, 0
1, 16269, Note_off_c, 4, 40, 0
1, 16269, Note_off_c, 6, 36, 0
1, 16269, Note_off_c, 6, 48, 0
1, 16270, Note_off_c, 5, 64, 0
1, 16272, Note_on_c, 0, 65, 96
1, 16272, Note_on_c, 1, 65, 96
1, 16272, Note_on_c, 3, 41, 80
1, 16272, Note_on_c, 4, 29, 80
1, 16272, Note_on_c, 5, 53, 96
1, 16272, Note_on_c, 6, 48, 96
1, 16272, Note_on_c, 6, 45, 96
1, 16272, Note_on_c, 6, 41, 96
1, 16282, Note_off_c, 5, 53, 0
1, 16284, Note_on_c, 5, 65, 96
1, 16293, Note_off_c, 0, 65, 0
1, 16293, Note_off_c, 1, 65, 0
1, 16294, Note_off_c, 5, 65, 0
1, 16296, Note_on_c, 0, 64, 96
1, 16296, Note_on_c, 1, 64, 96
1, 16296, Note_on_c, 5, 64, 96
1, 16306, Note_off_c, 0, 64, 0
1, 16306, Note_off_c, 1, 64, 0
1, 16306, Note_off_c, 5, 64, 0
1, 16308, Note_on_c, 0, 62, 96
1, 16308, Note_on_c, 1, 62, 96
1, 16308, Note_on_c, 5, 62, 96
1, 16314, Note_off_c, 3, 41, 0
1, 16314, Note_off_c, 4, 29, 0
1, 16314, Note_off_c, 6, 48, 0
1, 16314, Note_off_c, 6, 45, 0
1, 16314, Note_off_c, 6, 41, 0
1, 16318, Note_off_c, 0, 62, 0
1, 16318, Note_off_c, 1, 62, 0
1, 16318, Note_off_c, 5, 62, 0
1, 16320, Note_on_c, 0, 60, 96
1, 16320, Note_on_c, 1, 60, 96
1, 16320, Note_on_c, 5, 60, 96
1, 16332, Note_on_c, 6, 57, 96
1, 16341, Note_off_c, 0, 60, 0
1, 16341, Note_off_c, 1, 60, 0
1, 16341, Note_off_c, 5, 60, 0
1, 16342, Note_off_c, 6, 57, 0
1, 16344, Note_on_c, 0, 58, 96
1, 16344, Note_on_c, 1, 58, 96
1, 16344, Note_on_c, 5, 58, 96
1, 16356, Note_on_c, 6, 55, 96
1, 16365, Note_off_c, 0, 58, 0
1, 16365, Note_off_c, 1, 58, 0
1, 16365, Note_off_c, 5, 58, 0
1, 16366, Note_off_c, 6, 55, 0
1, 16368, Note_on_c, 0, 57, 96
1, 16368, Note_on_c, 1, 57, 96
1, 16368, Note_on_c, 5, 57, 96
1, 16380, Note_on_c, 6, 53, 96
1, 16389, Note_off_c, 0, 57, 0
1, 16389, Note_off_c, 1, 57, 0
1, 16389, Note_off_c, 5, 57, 0
1, 16390, Note_off_c, 6, 53, 0
1, 16392, Note_on_c, 0, 55, 96
1, 16392, Note_on_c, 1, 55, 96
1, 16392, Note_on_c, 5, 55, 96
1, 16404, Note_on_c, 6, 52, 96
1, 16413, Note_off_c, 0, 55, 0
1, 16413, Note_off_c, 1, 55, 0
1, 16413, Note_off_c, 5, 55, 0
1, 16414, Note_off_c, 6, 52, 0
1, 16416, Note_on_c, 0, 57, 96
1, 16416, Note_on_c, 1, 57, 96
1, 16416, Note_on_c, 5, 57, 96
1, 16416, Note_on_c, 6, 53, 96
1, 16437, Note_off_c, 0, 57, 0
1, 16437, Note_off_c, 1, 57, 0
1, 16437, Note_off_c, 5, 57, 0
1, 16437, Note_off_c, 6, 53, 0
1, 16440, Note_on_c, 0, 60, 96
1, 16440, Note_on_c, 1, 60, 96
1, 16440, Note_on_c, 2, 57, 96
1, 16440, Note_on_c, 3, 41, 96
1, 16440, Note_on_c, 4, 29, 96
1, 16440, Note_on_c, 5, 60, 96
1, 16440, Note_on_c, 6, 41, 96
1, 16440, Note_on_c, 6, 57, 96
1, 16450, Note_off_c, 2, 57, 0
1, 16450, Note_off_c, 3, 41, 0
1, 16450, Note_off_c, 4, 29, 0
1, 16450, Note_off_c, 6, 41, 0
1, 16452, Note_on_c, 2, 58, 96
1, 16452, Note_on_c, 3, 43, 96
1, 16452, Note_on_c, 4, 31, 96
1, 16452, Note_on_c, 6, 43, 96
1, 16461, Note_off_c, 0, 60, 0
1, 16461, Note_off_c, 1, 60, 0
1, 16461, Note_off_c, 5, 60, 0
1, 16461, Note_off_c, 6, 57, 0
1, 16462, Note_off_c, 2, 58, 0
1, 16462, Note_off_c, 3, 43, 0
1, 16462, Note_off_c, 4, 31, 0
1, 16462, Note_off_c, 6, 43, 0
1, 16464, Note_on_c, 0, 65, 96
1, 16464, Note_on_c, 1, 65, 96
1, 16464, Note_on_c, 2, 60, 96
1, 16464, Note_on_c, 3, 45, 96
1, 16464, Note_on_c, 4, 33, 96
1, 16464, Note_on_c, 5, 65, 96
1, 16464, Note_on_c, 5, 60, 96
1, 16464, Note_on_c, 6, 45, 96
1, 16464, Note_on_c, 6, 57, 96
1, 16485, Note_off_c, 0, 65, 0
1, 16485, Note_off_c, 1, 65, 0
1, 16485, Note_off_c, 2, 60, 0
1, 16485, Note_off_c, 3, 45, 0
1, 16485, Note_off_c, 4, 33, 0
1, 16485, Note_off_c, 5, 65, 0
1, 16485, Note_off_c, 5, 60, 0
1, 16485, Note_off_c, 6, 45, 0
1, 16485, Note_off_c, 6, 57, 0
1, 16488, Note_on_c, 0, 65, 96
1, 16488, Note_on_c, 1, 65, 96
1, 16488, Note_on_c, 2, 58, 96
1, 16488, Note_on_c, 3, 43, 96
1, 16488, Note_on_c, 4, 31, 96
1, 16488, Note_on_c, 5, 65, 96
1, 16488, Note_on_c, 5, 60, 96
1, 16488, Note_on_c, 6, 43, 96
1, 16488, Note_on_c, 6, 57, 96
1, 16498, Note_off_c, 2, 58, 0
1, 16498, Note_off_c, 3, 43, 0
1, 16498, Note_off_c, 4, 31, 0
1, 16498, Note_off_c, 6, 43, 0
1, 16500, Note_on_c, 2, 60, 96
1, 16500, Note_on_c, 3, 45, 96
1, 16500, Note_on_c, 4, 33, 96
1, 16500, Note_on_c, 6, 45, 96
1, 16509, Note_off_c, 0, 65, 0
1, 16509, Note_off_c, 1, 65, 0
1, 16509, Note_off_c, 5, 65, 0
1, 16509, Note_off_c, 5, 60, 0
1, 16509, Note_off_c, 6, 57, 0
1, 16510, Note_off_c, 2, 60, 0
1, 16510, Note_off_c, 3, 45, 0
1, 16510, Note_off_c, 4, 33, 0
1, 16510, Note_off_c, 6, 45, 0
1, 16512, Note_on_c, 0, 65, 96
1, 16512, Note_on_c, 1, 65, 96
1, 16512, Note_on_c, 2, 62, 96
1, 16512, Note_on_c, 3, 47, 96
1, 16512, Note_on_c, 4, 35, 96
1, 16512, Note_on_c, 5, 65, 96
1, 16512, Note_on_c, 5, 62, 96
1, 16512, Note_on_c, 6, 47, 96
1, 16512, Note_on_c, 6, 55, 96
1, 16533, Note_off_c, 0, 65, 0
1, 16533, Note_off_c, 1, 65, 0
1, 16533, Note_off_c, 2, 62, 0
1, 16533, Note_off_c, 3, 47, 0
1, 16533, Note_off_c, 4, 35, 0
1, 16533, Note_off_c, 5, 65, 0
1, 16533, Note_off_c, 5, 62, 0
1, 16533, Note_off_c, 6, 47, 0
1, 16533, Note_off_c, 6, 55, 0
1, 16536, Note_on_c, 0, 65, 96
1, 16536, Note_on_c, 1, 65, 96
1, 16536, Note_on_c, 2, 60, 96
1, 16536, Note_on_c, 3, 45, 96
1, 16536, Note_on_c, 4, 33, 96
1, 16536, Note_on_c, 5, 65, 96
1, 16536, Note_on_c, 5, 62, 96
1, 16536, Note_on_c, 6, 45, 96
1, 16536, Note_on_c, 6, 55, 96
1, 16546, Note_off_c, 2, 60, 0
1, 16546, Note_off_c, 3, 45, 0
1, 16546, Note_off_c, 4, 33, 0
1, 16546, Note_off_c, 6, 45, 0
1, 16548, Note_on_c, 2, 62, 96
1, 16548, Note_on_c, 3, 47, 96
1, 16548, Note_on_c, 4, 35, 96
1, 16548, Note_on_c, 6, 47, 96
1, 16557, Note_off_c, 0, 65, 0
1, 16557, Note_off_c, 1, 65, 0
1, 16557, Note_off_c, 5, 65, 0
1, 16557, Note_off_c, 5, 62, 0
1, 16557, Note_off_c, 6, 55, 0
1, 16558, Note_off_c, 2, 62, 0
1, 16558, Note_off_c, 3, 47, 0
1, 16558, Note_off_c, 4, 35, 0
1, 16558, Note_off_c, 6, 47, 0
1, 16560, Note_on_c, 0, 64, 96
1, 16560, Note_on_c, 1, 64, 96
1, 16560, Note_on_c, 2, 55, 96
1, 16560, Note_on_c, 3, 48, 96
1, 16560, Note_on_c, 4, 36, 96
1, 16560, Note_on_c, 5, 64, 96
1, 16560, Note_on_c, 5, 60, 96
1, 16560, Note_on_c, 6, 48, 96
1, 16560, Note_on_c, 6, 55, 96
1, 16581, Note_off_c, 0, 64, 0
1, 16581, Note_off_c, 1, 64, 0
1, 16581, Note_off_c, 2, 55, 0
1, 16581, Note_off_c, 3, 48, 0
1, 16581, Note_off_c, 4, 36, 0
1, 16581, Note_off_c, 5, 64, 0
1, 16581, Note_off_c, 5, 60, 0
1, 16581, Note_off_c, 6, 48, 0
1, 16581, Note_off_c, 6, 55, 0
1, 16584, Note_on_c, 5, 60, 96
1, 16584, Note_on_c, 6, 52, 96
1, 16594, Note_off_c, 5, 60, 0
1, 16596, Note_on_c, 5, 62, 96
1, 16605, Note_off_c, 6, 52, 0
1, 16606, Note_off_c, 5, 62, 0
1, 16608, Note_on_c, 5, 64, 96
1, 16608, Note_on_c, 6, 55, 96
1, 16618, Note_off_c, 5, 64, 0
1, 16620, Note_on_c, 5, 65, 96
1, 16629, Note_off_c, 6, 55, 0
1, 16630, Note_off_c, 5, 65, 0
1, 16632, Note_on_c, 5, 67, 96
1, 16632, Note_on_c, 6, 60, 96
1, 16642, Note_off_c, 5, 67, 0
1, 16644, Note_on_c, 5, 62, 96
1, 16653, Note_off_c, 6, 60, 0
1, 16654, Note_off_c, 5, 62, 0
1, 16656, Note_on_c, 5, 64, 96
1, 16656, Note_on_c, 6, 55, 96
1, 16666, Note_off_c, 5, 64, 0
1, 16668, Note_on_c, 5, 60, 96
1, 16677, Note_off_c, 6, 55, 0
1, 16678, Note_off_c, 5, 60, 0
1, 16680, Note_on_c, 5, 67, 96
1, 16680, Note_on_c, 6, 59, 96
1, 16690, Note_off_c, 5, 67, 0
1, 16692, Note_on_c, 5, 62, 96
1, 16701, Note_off_c, 6, 59, 0
1, 16702, Note_off_c, 5, 62, 0
1, 16704, Note_on_c, 5, 64, 96
1, 16704, Note_on_c, 6, 60, 96
1, 16725, Note_off_c, 5, 64, 0
1, 16725, Note_off_c, 6, 60, 0
1, 16728, Note_on_c, 0, 67, 96
1, 16728, Note_on_c, 1, 67, 96
1, 16728, Note_on_c, 2, 64, 96
1, 16728, Note_on_c, 3, 48, 96
1, 16728, Note_on_c, 4, 36, 96
1, 16728, Note_on_c, 5, 67, 96
1, 16728, Note_on_c, 5, 64, 96
1, 16728, Note_on_c, 6, 48, 96
1, 16738, Note_off_c, 2, 64, 0
1, 16738, Note_off_c, 3, 48, 0
1, 16738, Note_off_c, 4, 36, 0
1, 16738, Note_off_c, 6, 48, 0
1, 16740, Note_on_c, 2, 65, 96
1, 16740, Note_on_c, 3, 50, 96
1, 16740, Note_on_c, 4, 38, 96
1, 16740, Note_on_c, 6, 50, 96
1, 16749, Note_off_c, 0, 67, 0
1, 16749, Note_off_c, 1, 67, 0
1, 16749, Note_off_c, 5, 67, 0
1, 16749, Note_off_c, 5, 64, 0
1, 16750, Note_off_c, 2, 65, 0
1, 16750, Note_off_c, 3, 50, 0
1, 16750, Note_off_c, 4, 38, 0
1, 16750, Note_off_c, 6, 50, 0
1, 16752, Note_on_c, 0, 72, 96
1, 16752, Note_on_c, 1, 72, 96
1, 16752, Note_on_c, 2, 67, 96
1, 16752, Note_on_c, 3, 52, 96
1, 16752, Note_on_c, 4, 40, 96
1, 16752, Note_on_c, 5, 72, 96
1, 16752, Note_on_c, 5, 67, 96
1, 16752, Note_on_c, 5, 64, 96
1, 16752, Note_on_c, 6, 52, 96
1, 16773, Note_off_c, 0, 72, 0
1, 16773, Note_off_c, 1, 72, 0
1, 16773, Note_off_c, 2, 67, 0
1, 16773, Note_off_c, 3, 52, 0
1, 16773, Note_off_c, 4, 40, 0
1, 16773, Note_off_c, 5, 72, 0
1, 16773, Note_off_c, 5, 67, 0
1, 16773, Note_off_c, 5, 64, 0
1, 16773, Note_off_c, 6, 52, 0
1, 16776, Note_on_c, 0, 72, 96
1, 16776, Note_on_c, 1, 72, 96
1, 16776, Note_on_c, 2, 66, 96
1, 16776, Note_on_c, 3, 50, 96
1, 16776, Note_on_c, 4, 38, 96
1, 16776, Note_on_c, 5, 72, 96
1, 16776, Note_on_c, 5, 67, 96
1, 16776, Note_on_c, 5, 64, 96
1, 16776, Note_on_c, 6, 50, 96
1, 16786, Note_off_c, 2, 66, 0
1, 16786, Note_off_c, 3, 50, 0
1, 16786, Note_off_c, 4, 38, 0
1, 16786, Note_off_c, 6, 50, 0
1, 16788, Note_on_c, 2, 67, 96
1, 16788, Note_on_c, 3, 52, 96
1, 16788, Note_on_c, 4, 40, 96
1, 16788, Note_on_c, 6, 52, 96
1, 16797, Note_off_c, 0, 72, 0
1, 16797, Note_off_c, 1, 72, 0
1, 16797, Note_off_c, 5, 72, 0
1, 16797, Note_off_c, 5, 67, 0
1, 16797, Note_off_c, 5, 64, 0
1, 16798, Note_off_c, 2, 67, 0
1, 16798, Note_off_c, 3, 52, 0
1, 16798, Note_off_c, 4, 40, 0
1, 16798, Note_off_c, 6, 52, 0
1, 16800, Note_on_c, 0, 72, 96
1, 16800, Note_on_c, 1, 72, 96
1, 16800, Note_on_c, 2, 69, 96
1, 16800, Note_on_c, 3, 54, 96
1, 16800, Note_on_c, 4, 42, 96
1, 16800, Note_on_c, 5, 72, 96
1, 16800, Note_on_c, 5, 69, 96
1, 16800, Note_on_c, 5, 62, 96
1, 16800, Note_on_c, 6, 54, 96
1, 16821, Note_off_c, 0, 72, 0
1, 16821, Note_off_c, 1, 72, 0
1, 16821, Note_off_c, 2, 69, 0
1, 16821, Note_off_c, 3, 54, 0
1, 16821, Note_off_c, 4, 42, 0
1, 16821, Note_off_c, 5, 72, 0
1, 16821, Note_off_c, 5, 69, 0
1, 16821, Note_off_c, 5, 62, 0
1, 16821, Note_off_c, 6, 54, 0
1, 16824, Note_on_c, 0, 72, 96
1, 16824, Note_on_c, 1, 72, 96
1, 16824, Note_on_c, 2, 67, 96
1, 16824, Note_on_c, 3, 52, 96
1, 16824, Note_on_c, 4, 40, 96
1, 16824, Note_on_c, 5, 72, 96
1, 16824, Note_on_c, 5, 69, 96
1, 16824, Note_on_c, 5, 62, 96
1, 16824, Note_on_c, 6, 52, 96
1, 16834, Note_off_c, 2, 67, 0
1, 16834, Note_off_c, 3, 52, 0
1, 16834, Note_off_c, 4, 40, 0
1, 16834, Note_off_c, 6, 52, 0
1, 16836, Note_on_c, 2, 69, 96
1, 16836, Note_on_c, 3, 54, 96
1, 16836, Note_on_c, 4, 42, 96
1, 16836, Note_on_c, 6, 54, 96
1, 16845, Note_off_c, 0, 72, 0
1, 16845, Note_off_c, 1, 72, 0
1, 16845, Note_off_c, 5, 72, 0
1, 16845, Note_off_c, 5, 69, 0
1, 16845, Note_off_c, 5, 62, 0
1, 16846, Note_off_c, 2, 69, 0
1, 16846, Note_off_c, 3, 54, 0
1, 16846, Note_off_c, 4, 42, 0
1, 16846, Note_off_c, 6, 54, 0
1, 16848, Note_on_c, 0, 70, 96
1, 16848, Note_on_c, 1, 70, 96
1, 16848, Note_on_c, 2, 62, 96
1, 16848, Note_on_c, 3, 55, 96
1, 16848, Note_on_c, 4, 43, 96
1, 16848, Note_on_c, 5, 70, 96
1, 16848, Note_on_c, 5, 67, 96
1, 16848, Note_on_c, 5, 62, 96
1, 16848, Note_on_c, 6, 55, 96
1, 16869, Note_off_c, 0, 70, 0
1, 16869, Note_off_c, 1, 70, 0
1, 16869, Note_off_c, 2, 62, 0
1, 16869, Note_off_c, 5, 70, 0
1, 16869, Note_off_c, 5, 67, 0
1, 16869, Note_off_c, 5, 62, 0
1, 16869, Note_off_c, 6, 55, 0
1, 16872, Note_on_c, 5, 55, 96
1, 16872, Note_on_c, 6, 47, 96
1, 16882, Note_off_c, 5, 55, 0
1, 16884, Note_on_c, 5, 57, 96
1, 16890, Note_off_c, 3, 55, 0
1, 16890, Note_off_c, 4, 43, 0
1, 16893, Note_off_c, 6, 47, 0
1, 16894, Note_off_c, 5, 57, 0
1, 16896, Note_on_c, 5, 58, 96
1, 16896, Note_on_c, 6, 50, 96
1, 16906, Note_off_c, 5, 58, 0
1, 16908, Note_on_c, 5, 60, 96
1, 16917, Note_off_c, 6, 50, 0
1, 16918, Note_off_c, 5, 60, 0
1, 16920, Note_on_c, 5, 62, 96
1, 16920, Note_on_c, 6, 55, 96
1, 16930, Note_off_c, 5, 62, 0
1, 16932, Note_on_c, 5, 57, 96
1, 16941, Note_off_c, 6, 55, 0
1, 16942, Note_off_c, 5, 57, 0
1, 16944, Note_on_c, 5, 58, 96
1, 16944, Note_on_c, 6, 50, 96
1, 16954, Note_off_c, 5, 58, 0
1, 16956, Note_on_c, 5, 55, 96
1, 16965, Note_off_c, 6, 50, 0
1, 16966, Note_off_c, 5, 55, 0
1, 16968, Note_on_c, 5, 62, 96
1, 16968, Note_on_c, 6, 54, 96
1, 16978, Note_off_c, 5, 62, 0
1, 16980, Note_on_c, 5, 57, 96
1, 16989, Note_off_c, 6, 54, 0
1, 16990, Note_off_c, 5, 57, 0
1, 16992, Note_on_c, 5, 58, 96
1, 16992, Note_on_c, 6, 55, 96
1, 17013, Note_off_c, 5, 58, 0
1, 17013, Note_off_c, 6, 55, 0
1, 17016, Note_on_c, 0, 62, 96
1, 17016, Note_on_c, 1, 62, 96
1, 17016, Note_on_c, 2, 58, 96
1, 17016, Note_on_c, 3, 43, 96
1, 17016, Note_on_c, 4, 31, 96
1, 17016, Note_on_c, 5, 62, 96
1, 17016, Note_on_c, 5, 58, 96
1, 17016, Note_on_c, 6, 43, 96
1, 17026, Note_off_c, 2, 58, 0
1, 17026, Note_off_c, 3, 43, 0
1, 17026, Note_off_c, 4, 31, 0
1, 17026, Note_off_c, 6, 43, 0
1, 17028, Note_on_c, 2, 60, 96
1, 17028, Note_on_c, 3, 45, 96
1, 17028, Note_on_c, 4, 33, 96
1, 17028, Note_on_c, 6, 45, 96
1, 17037, Note_off_c, 0, 62, 0
1, 17037, Note_off_c, 1, 62, 0
1, 17037, Note_off_c, 5, 62, 0
1, 17037, Note_off_c, 5, 58, 0
1, 17038, Note_off_c, 2, 60, 0
1, 17038, Note_off_c, 3, 45, 0
1, 17038, Note_off_c, 4, 33, 0
1, 17038, Note_off_c, 6, 45, 0
1, 17040, Note_on_c, 0, 67, 96
1, 17040, Note_on_c, 1, 67, 96
1, 17040, Note_on_c, 2, 62, 96
1, 17040, Note_on_c, 3, 46, 96
1, 17040, Note_on_c, 4, 34, 96
1, 17040, Note_on_c, 5, 67, 96
1, 17040, Note_on_c, 5, 62, 96
1, 17040, Note_on_c, 5, 58, 96
1, 17040, Note_on_c, 6, 46, 96
1, 17061, Note_off_c, 0, 67, 0
1, 17061, Note_off_c, 1, 67, 0
1, 17061, Note_off_c, 2, 62, 0
1, 17061, Note_off_c, 3, 46, 0
1, 17061, Note_off_c, 4, 34, 0
1, 17061, Note_off_c, 5, 67, 0
1, 17061, Note_off_c, 5, 62, 0
1, 17061, Note_off_c, 5, 58, 0
1, 17061, Note_off_c, 6, 46, 0
1, 17064, Note_on_c, 0, 67, 96
1, 17064, Note_on_c, 1, 67, 96
1, 17064, Note_on_c, 2, 60, 96
1, 17064, Note_on_c, 3, 45, 96
1, 17064, Note_on_c, 4, 33, 96
1, 17064, Note_on_c, 5, 67, 96
1, 17064, Note_on_c, 5, 62, 96
1, 17064, Note_on_c, 5, 58, 96
1, 17064, Note_on_c, 6, 45, 96
1, 17074, Note_off_c, 2, 60, 0
1, 17074, Note_off_c, 3, 45, 0
1, 17074, Note_off_c, 4, 33, 0
1, 17074, Note_off_c, 6, 45, 0
1, 17076, Note_on_c, 2, 62, 96
1, 17076, Note_on_c, 3, 46, 96
1, 17076, Note_on_c, 4, 34, 96
1, 17076, Note_on_c, 6, 46, 96
1, 17085, Note_off_c, 0, 67, 0
1, 17085, Note_off_c, 1, 67, 0
1, 17085, Note_off_c, 5, 67, 0
1, 17085, Note_off_c, 5, 62, 0
1, 17085, Note_off_c, 5, 58, 0
1, 17086, Note_off_c, 2, 62, 0
1, 17086, Note_off_c, 3, 46, 0
1, 17086, Note_off_c, 4, 34, 0
1, 17086, Note_off_c, 6, 46, 0
1, 17088, Note_on_c, 0, 67, 96
1, 17088, Note_on_c, 1, 67, 96
1, 17088, Note_on_c, 2, 63, 96
1, 17088, Note_on_c, 3, 48, 96
1, 17088, Note_on_c, 4, 36, 96
1, 17088, Note_on_c, 5, 67, 96
1, 17088, Note_on_c, 5, 63, 96
1, 17088, Note_on_c, 5, 57, 96
1, 17088, Note_on_c, 6, 48, 96
1, 17109, Note_off_c, 0, 67, 0
1, 17109, Note_off_c, 1, 67, 0
1, 17109, Note_off_c, 2, 63, 0
1, 17109, Note_off_c, 3, 48, 0
1, 17109, Note_off_c, 4, 36, 0
1, 17109, Note_off_c, 5, 67, 0
1, 17109, Note_off_c, 5, 63, 0
1, 17109, Note_off_c, 5, 57, 0
1, 17109, Note_off_c, 6, 48, 0
1, 17112, Note_on_c, 0, 67, 96
1, 17112, Note_on_c, 1, 67, 96
1, 17112, Note_on_c, 2, 62, 96
1, 17112, Note_on_c, 3, 46, 96
1, 17112, Note_on_c, 4, 34, 96
1, 17112, Note_on_c, 5, 67, 96
1, 17112, Note_on_c, 5, 63, 96
1, 17112, Note_on_c, 5, 57, 96
1, 17112, Note_on_c, 6, 46, 96
1, 17122, Note_off_c, 2, 62, 0
1, 17122, Note_off_c, 3, 46, 0
1, 17122, Note_off_c, 4, 34, 0
1, 17122, Note_off_c, 6, 46, 0
1, 17124, Note_on_c, 2, 63, 96
1, 17124, Note_on_c, 3, 48, 96
1, 17124, Note_on_c, 4, 36, 96
1, 17124, Note_on_c, 6, 48, 96
1, 17133, Note_off_c, 0, 67, 0
1, 17133, Note_off_c, 1, 67, 0
1, 17133, Note_off_c, 5, 67, 0
1, 17133, Note_off_c, 5, 63, 0
1, 17133, Note_off_c, 5, 57, 0
1, 17134, Note_off_c, 2, 63, 0
1, 17134, Note_off_c, 3, 48, 0
1, 17134, Note_off_c, 4, 36, 0
1, 17134, Note_off_c, 6, 48, 0
1, 17136, Note_on_c, 0, 67, 96
1, 17136, Note_on_c, 1, 67, 96
1, 17136, Note_on_c, 2, 57, 96
1, 17136, Note_on_c, 3, 50, 96
1, 17136, Note_on_c, 4, 38, 96
1, 17136, Note_on_c, 5, 67, 96
1, 17136, Note_on_c, 5, 57, 96
1, 17136, Note_on_c, 6, 50, 96
1, 17146, Note_off_c, 0, 67, 0
1, 17146, Note_off_c, 1, 67, 0
1, 17146, Note_off_c, 5, 67, 0
1, 17148, Note_on_c, 0, 65, 96
1, 17148, Note_on_c, 1, 65, 96
1, 17148, Note_on_c, 5, 65, 96
1, 17157, Note_off_c, 2, 57, 0
1, 17157, Note_off_c, 3, 50, 0
1, 17157, Note_off_c, 4, 38, 0
1, 17157, Note_off_c, 5, 57, 0
1, 17157, Note_off_c, 6, 50, 0
1, 17158, Note_off_c, 0, 65, 0
1, 17158, Note_off_c, 1, 65, 0
1, 17158, Note_off_c, 5, 65, 0
1, 17160, Note_on_c, 0, 67, 96
1, 17160, Note_on_c, 1, 67, 96
1, 17160, Note_on_c, 2, 62, 96
1, 17160, Note_on_c, 3, 46, 96
1, 17160, Note_on_c, 4, 34, 96
1, 17160, Note_on_c, 5, 67, 96
1, 17160, Note_on_c, 6, 46, 96
1, 17170, Note_off_c, 0, 67, 0
1, 17170, Note_off_c, 1, 67, 0
1, 17170, Note_off_c, 2, 62, 0
1, 17170, Note_off_c, 3, 46, 0
1, 17170, Note_off_c, 4, 34, 0
1, 17170, Note_off_c, 5, 67, 0
1, 17170, Note_off_c, 6, 46, 0
1, 17172, Note_on_c, 0, 69, 96
1, 17172, Note_on_c, 1, 69, 96
1, 17172, Note_on_c, 2, 64, 96
1, 17172, Note_on_c, 3, 48, 96
1, 17172, Note_on_c, 4, 36, 96
1, 17172, Note_on_c, 5, 69, 96
1, 17172, Note_on_c, 6, 48, 96
1, 17182, Note_off_c, 0, 69, 0
1, 17182, Note_off_c, 1, 69, 0
1, 17182, Note_off_c, 2, 64, 0
1, 17182, Note_off_c, 3, 48, 0
1, 17182, Note_off_c, 4, 36, 0
1, 17182, Note_off_c, 5, 69, 0
1, 17182, Note_off_c, 6, 48, 0
1, 17184, Note_on_c, 0, 70, 96
1, 17184, Note_on_c, 1, 70, 96
1, 17184, Note_on_c, 2, 65, 96
1, 17184, Note_on_c, 3, 50, 96
1, 17184, Note_on_c, 4, 38, 96
1, 17184, Note_on_c, 5, 70, 96
1, 17184, Note_on_c, 6, 50, 96
1, 17205, Note_off_c, 0, 70, 0
1, 17205, Note_off_c, 1, 70, 0
1, 17205, Note_off_c, 2, 65, 0
1, 17205, Note_off_c, 3, 50, 0
1, 17205, Note_off_c, 4, 38, 0
1, 17205, Note_off_c, 5, 70, 0
1, 17205, Note_off_c, 6, 50, 0
1, 17208, Note_on_c, 0, 70, 96
1, 17208, Note_on_c, 1, 70, 96
1, 17208, Note_on_c, 2, 64, 96
1, 17208, Note_on_c, 3, 48, 96
1, 17208, Note_on_c, 4, 36, 96
1, 17208, Note_on_c, 5, 70, 96
1, 17208, Note_on_c, 5, 65, 96
1, 17208, Note_on_c, 5, 62, 96
1, 17208, Note_on_c, 6, 48, 96
1, 17218, Note_off_c, 2, 64, 0
1, 17218, Note_off_c, 3, 48, 0
1, 17218, Note_off_c, 4, 36, 0
1, 17218, Note_off_c, 6, 48, 0
1, 17220, Note_on_c, 2, 65, 96
1, 17220, Note_on_c, 3, 50, 96
1, 17220, Note_on_c, 4, 38, 96
1, 17220, Note_on_c, 6, 50, 96
1, 17229, Note_off_c, 0, 70, 0
1, 17229, Note_off_c, 1, 70, 0
1, 17229, Note_off_c, 5, 70, 0
1, 17229, Note_off_c, 5, 65, 0
1, 17229, Note_off_c, 5, 62, 0
1, 17230, Note_off_c, 2, 65, 0
1, 17230, Note_off_c, 3, 50, 0
1, 17230, Note_off_c, 4, 38, 0
1, 17230, Note_off_c, 6, 50, 0
1, 17232, Note_on_c, 0, 70, 96
1, 17232, Note_on_c, 1, 70, 96
1, 17232, Note_on_c, 2, 67, 96
1, 17232, Note_on_c, 3, 52, 96
1, 17232, Note_on_c, 4, 40, 96
1, 17232, Note_on_c, 5, 70, 96
1, 17232, Note_on_c, 5, 67, 96
1, 17232, Note_on_c, 5, 60, 96
1, 17232, Note_on_c, 6, 52, 96
1, 17253, Note_off_c, 0, 70, 0
1, 17253, Note_off_c, 1, 70, 0
1, 17253, Note_off_c, 2, 67, 0
1, 17253, Note_off_c, 3, 52, 0
1, 17253, Note_off_c, 4, 40, 0
1, 17253, Note_off_c, 5, 70, 0
1, 17253, Note_off_c, 5, 67, 0
1, 17253, Note_off_c, 5, 60, 0
1, 17253, Note_off_c, 6, 52, 0
1, 17256, Note_on_c, 0, 70, 96
1, 17256, Note_on_c, 1, 70, 96
1, 17256, Note_on_c, 2, 65, 96
1, 17256, Note_on_c, 3, 50, 96
1, 17256, Note_on_c, 4, 38, 96
1, 17256, Note_on_c, 5, 70, 96
1, 17256, Note_on_c, 5, 67, 96
1, 17256, Note_on_c, 5, 60, 96
1, 17256, Note_on_c, 6, 50, 96
1, 17266, Note_off_c, 2, 65, 0
1, 17266, Note_off_c, 3, 50, 0
1, 17266, Note_off_c, 4, 38, 0
1, 17266, Note_off_c, 6, 50, 0
1, 17268, Note_on_c, 2, 67, 96
1, 17268, Note_on_c, 3, 52, 96
1, 17268, Note_on_c, 4, 40, 96
1, 17268, Note_on_c, 6, 52, 96
1, 17277, Note_off_c, 0, 70, 0
1, 17277, Note_off_c, 1, 70, 0
1, 17277, Note_off_c, 5, 70, 0
1, 17277, Note_off_c, 5, 67, 0
1, 17277, Note_off_c, 5, 60, 0
1, 17278, Note_off_c, 2, 67, 0
1, 17278, Note_off_c, 3, 52, 0
1, 17278, Note_off_c, 4, 40, 0
1, 17278, Note_off_c, 6, 52, 0
1, 17280, Note_on_c, 0, 70, 96
1, 17280, Note_on_c, 1, 70, 96
1, 17280, Note_on_c, 2, 60, 96
1, 17280, Note_on_c, 3, 53, 96
1, 17280, Note_on_c, 4, 41, 96
1, 17280, Note_on_c, 5, 70, 96
1, 17280, Note_on_c, 5, 60, 96
1, 17280, Note_on_c, 6, 53, 96
1, 17290, Note_off_c, 0, 70, 0
1, 17290, Note_off_c, 1, 70, 0
1, 17290, Note_off_c, 5, 70, 0
1, 17292, Note_on_c, 0, 69, 96
1, 17292, Note_on_c, 1, 69, 96
1, 17292, Note_on_c, 5, 69, 96
1, 17301, Note_off_c, 2, 60, 0
1, 17301, Note_off_c, 3, 53, 0
1, 17301, Note_off_c, 4, 41, 0
1, 17301, Note_off_c, 5, 60, 0
1, 17301, Note_off_c, 6, 53, 0
1, 17302, Note_off_c, 0, 69, 0
1, 17302, Note_off_c, 1, 69, 0
1, 17302, Note_off_c, 5, 69, 0
1, 17304, Note_on_c, 0, 70, 96
1, 17304, Note_on_c, 1, 70, 96
1, 17304, Note_on_c, 2, 65, 96
1, 17304, Note_on_c, 3, 50, 96
1, 17304, Note_on_c, 4, 38, 96
1, 17304, Note_on_c, 5, 70, 96
1, 17304, Note_on_c, 6, 50, 96
1, 17314, Note_off_c, 0, 70, 0
1, 17314, Note_off_c, 1, 70, 0
1, 17314, Note_off_c, 2, 65, 0
1, 17314, Note_off_c, 3, 50, 0
1, 17314, Note_off_c, 4, 38, 0
1, 17314, Note_off_c, 5, 70, 0
1, 17314, Note_off_c, 6, 50, 0
1, 17316, Note_on_c, 0, 72, 96
1, 17316, Note_on_c, 1, 72, 96
1, 17316, Note_on_c, 2, 67, 96
1, 17316, Note_on_c, 3, 52, 96
1, 17316, Note_on_c, 4, 40, 96
1, 17316, Note_on_c, 5, 72, 96
1, 17316, Note_on_c, 6, 52, 96
1, 17326, Note_off_c, 0, 72, 0
1, 17326, Note_off_c, 1, 72, 0
1, 17326, Note_off_c, 2, 67, 0
1, 17326, Note_off_c, 3, 52, 0
1, 17326, Note_off_c, 4, 40, 0
1, 17326, Note_off_c, 5, 72, 0
1, 17326, Note_off_c, 6, 52, 0
1, 17328, Note_on_c, 0, 74, 96
1, 17328, Note_on_c, 1, 74, 96
1, 17328, Note_on_c, 2, 69, 96
1, 17328, Note_on_c, 3, 53, 96
1, 17328, Note_on_c, 4, 41, 96
1, 17328, Note_on_c, 5, 74, 96
1, 17328, Note_on_c, 6, 53, 96
1, 17349, Note_off_c, 0, 74, 0
1, 17349, Note_off_c, 1, 74, 0
1, 17349, Note_off_c, 2, 69, 0
1, 17349, Note_off_c, 3, 53, 0
1, 17349, Note_off_c, 4, 41, 0
1, 17349, Note_off_c, 5, 74, 0
1, 17349, Note_off_c, 6, 53, 0
1, 17352, Note_on_c, 0, 74, 96
1, 17352, Note_on_c, 1, 74, 96
1, 17352, Note_on_c, 2, 67, 96
1, 17352, Note_on_c, 3, 52, 96
1, 17352, Note_on_c, 4, 40, 96
1, 17352, Note_on_c, 5, 74, 96
1, 17352, Note_on_c, 5, 69, 96
1, 17352, Note_on_c, 5, 65, 96
1, 17352, Note_on_c, 6, 52, 96
1, 17362, Note_off_c, 2, 67, 0
1, 17362, Note_off_c, 3, 52, 0
1, 17362, Note_off_c, 4, 40, 0
1, 17362, Note_off_c, 6, 52, 0
1, 17364, Note_on_c, 2, 69, 96
1, 17364, Note_on_c, 3, 53, 96
1, 17364, Note_on_c, 4, 41, 96
1, 17364, Note_on_c, 6, 53, 96
1, 17373, Note_off_c, 0, 74, 0
1, 17373, Note_off_c, 1, 74, 0
1, 17373, Note_off_c, 5, 74, 0
1, 17373, Note_off_c, 5, 69, 0
1, 17373, Note_off_c, 5, 65, 0
1, 17374, Note_off_c, 2, 69, 0
1, 17374, Note_off_c, 3, 53, 0
1, 17374, Note_off_c, 4, 41, 0
1, 17374, Note_off_c, 6, 53, 0
1, 17376, Note_on_c, 0, 74, 96
1, 17376, Note_on_c, 1, 74, 96
1, 17376, Note_on_c, 2, 70, 96
1, 17376, Note_on_c, 3, 55, 96
1, 17376, Note_on_c, 4, 43, 96
1, 17376, Note_on_c, 5, 74, 96
1, 17376, Note_on_c, 5, 70, 96
1, 17376, Note_on_c, 5, 64, 96
1, 17376, Note_on_c, 6, 55, 96
1, 17397, Note_off_c, 0, 74, 0
1, 17397, Note_off_c, 1, 74, 0
1, 17397, Note_off_c, 2, 70, 0
1, 17397, Note_off_c, 3, 55, 0
1, 17397, Note_off_c, 4, 43, 0
1, 17397, Note_off_c, 5, 74, 0
1, 17397, Note_off_c, 5, 70, 0
1, 17397, Note_off_c, 5, 64, 0
1, 17397, Note_off_c, 6, 55, 0
1, 17400, Note_on_c, 0, 74, 96
1, 17400, Note_on_c, 1, 74, 96
1, 17400, Note_on_c, 2, 69, 96
1, 17400, Note_on_c, 3, 53, 96
1, 17400, Note_on_c, 4, 41, 96
1, 17400, Note_on_c, 5, 74, 96
1, 17400, Note_on_c, 5, 70, 96
1, 17400, Note_on_c, 5, 64, 96
1, 17400, Note_on_c, 6, 53, 96
1, 17410, Note_off_c, 2, 69, 0
1, 17410, Note_off_c, 3, 53, 0
1, 17410, Note_off_c, 4, 41, 0
1, 17410, Note_off_c, 6, 53, 0
1, 17412, Note_on_c, 2, 70, 96
1, 17412, Note_on_c, 3, 55, 96
1, 17412, Note_on_c, 4, 43, 96
1, 17412, Note_on_c, 6, 55, 96
1, 17421, Note_off_c, 0, 74, 0
1, 17421, Note_off_c, 1, 74, 0
1, 17421, Note_off_c, 5, 74, 0
1, 17421, Note_off_c, 5, 70, 0
1, 17421, Note_off_c, 5, 64, 0
1, 17422, Note_off_c, 2, 70, 0
1, 17422, Note_off_c, 3, 55, 0
1, 17422, Note_off_c, 4, 43, 0
1, 17422, Note_off_c, 6, 55, 0
1, 17424, Note_on_c, 0, 74, 96
1, 17424, Note_on_c, 1, 74, 96
1, 17424, Note_on_c, 2, 64, 96
1, 17424, Note_on_c, 3, 57, 96
1, 17424, Note_on_c, 4, 45, 96
1, 17424, Note_on_c, 5, 74, 96
1, 17424, Note_on_c, 5, 64, 96
1, 17424, Note_on_c, 6, 57, 96
1, 17445, Note_off_c, 0, 74, 0
1, 17445, Note_off_c, 1, 74, 0
1, 17445, Note_off_c, 3, 57, 0
1, 17445, Note_off_c, 4, 45, 0
1, 17445, Note_off_c, 5, 74, 0
1, 17445, Note_off_c, 5, 64, 0
1, 17445, Note_off_c, 6, 57, 0
1, 17448, Note_on_c, 0, 72, 96
1, 17448, Note_on_c, 1, 72, 96
1, 17448, Note_on_c, 3, 45, 96
1, 17448, Note_on_c, 4, 33, 96
1, 17448, Note_on_c, 5, 72, 96
1, 17448, Note_on_c, 6, 45, 96
1, 17458, Note_off_c, 0, 72, 0
1, 17458, Note_off_c, 1, 72, 0
1, 17458, Note_off_c, 5, 72, 0
1, 17460, Note_on_c, 0, 70, 96
1, 17460, Note_on_c, 1, 70, 96
1, 17460, Note_on_c, 5, 70, 96
1, 17466, Note_off_c, 2, 64, 0
1, 17469, Note_off_c, 3, 45, 0
1, 17469, Note_off_c, 4, 33, 0
1, 17469, Note_off_c, 6, 45, 0
1, 17470, Note_off_c, 0, 70, 0
1, 17470, Note_off_c, 1, 70, 0
1, 17470, Note_off_c, 5, 70, 0
1, 17472, Note_on_c, 0, 72, 96
1, 17472, Note_on_c, 1, 72, 96
1, 17472, Note_on_c, 3, 57, 96
1, 17472, Note_on_c, 4, 45, 96
1, 17472, Note_on_c, 5, 72, 96
1, 17472, Note_on_c, 6, 57, 96
1, 17484, Note_on_c, 2, 64, 96
1, 17493, Note_off_c, 0, 72, 0
1, 17493, Note_off_c, 1, 72, 0
1, 17493, Note_off_c, 3, 57, 0
1, 17493, Note_off_c, 4, 45, 0
1, 17493, Note_off_c, 5, 72, 0
1, 17493, Note_off_c, 6, 57, 0
1, 17494, Note_off_c, 2, 64, 0
1, 17496, Note_on_c, 0, 69, 96
1, 17496, Note_on_c, 1, 69, 96
1, 17496, Note_on_c, 2, 66, 96
1, 17496, Note_on_c, 3, 55, 96
1, 17496, Note_on_c, 4, 43, 96
1, 17496, Note_on_c, 5, 69, 96
1, 17496, Note_on_c, 6, 55, 96
1, 17506, Note_off_c, 0, 69, 0
1, 17506, Note_off_c, 1, 69, 0
1, 17506, Note_off_c, 2, 66, 0
1, 17506, Note_off_c, 5, 69, 0
1, 17508, Note_on_c, 0, 70, 96
1, 17508, Note_on_c, 1, 70, 96
1, 17508, Note_on_c, 2, 67, 96
1, 17508, Note_on_c, 5, 70, 96
1, 17517, Note_off_c, 3, 55, 0
1, 17517, Note_off_c, 4, 43, 0
1, 17517, Note_off_c, 6, 55, 0
1, 17518, Note_off_c, 0, 70, 0
1, 17518, Note_off_c, 1, 70, 0
1, 17518, Note_off_c, 2, 67, 0
1, 17518, Note_off_c, 5, 70, 0
1, 17520, Note_on_c, 0, 72, 96
1, 17520, Note_on_c, 1, 72, 96
1, 17520, Note_on_c, 2, 69, 96
1, 17520, Note_on_c, 3, 54, 96
1, 17520, Note_on_c, 4, 42, 96
1, 17520, Note_on_c, 5, 72, 96
1, 17520, Note_on_c, 6, 54, 96
1, 17530, Note_off_c, 2, 69, 0
1, 17532, Note_on_c, 2, 67, 96
1, 17541, Note_off_c, 0, 72, 0
1, 17541, Note_off_c, 1, 72, 0
1, 17541, Note_off_c, 3, 54, 0
1, 17541, Note_off_c, 4, 42, 0
1, 17541, Note_off_c, 5, 72, 0
1, 17541, Note_off_c, 6, 54, 0
1, 17542, Note_off_c, 2, 67, 0
1, 17544, Note_on_c, 0, 72, 96
1, 17544, Note_on_c, 1, 72, 96
1, 17544, Note_on_c, 2, 66, 96
1, 17544, Note_on_c, 3, 50, 96
1, 17544, Note_on_c, 4, 38, 96
1, 17544, Note_on_c, 5, 72, 96
1, 17544, Note_on_c, 6, 50, 96
1, 17554, Note_off_c, 2, 66, 0
1, 17556, Note_on_c, 2, 64, 96
1, 17565, Note_off_c, 0, 72, 0
1, 17565, Note_off_c, 1, 72, 0
1, 17565, Note_off_c, 3, 50, 0
1, 17565, Note_off_c, 4, 38, 0
1, 17565, Note_off_c, 5, 72, 0
1, 17565, Note_off_c, 6, 50, 0
1, 17566, Note_off_c, 2, 64, 0
1, 17568, Note_on_c, 0, 72, 96
1, 17568, Note_on_c, 1, 72, 96
1, 17568, Note_on_c, 2, 62, 96
1, 17568, Note_on_c, 3, 55, 96
1, 17568, Note_on_c, 4, 43, 96
1, 17568, Note_on_c, 5, 72, 96
1, 17568, Note_on_c, 6, 55, 96
1, 17589, Note_off_c, 0, 72, 0
1, 17589, Note_off_c, 1, 72, 0
1, 17589, Note_off_c, 3, 55, 0
1, 17589, Note_off_c, 4, 43, 0
1, 17589, Note_off_c, 5, 72, 0
1, 17589, Note_off_c, 6, 55, 0
1, 17592, Note_on_c, 0, 70, 96
1, 17592, Note_on_c, 1, 70, 96
1, 17592, Note_on_c, 3, 43, 96
1, 17592, Note_on_c, 4, 31, 96
1, 17592, Note_on_c, 5, 70, 96
1, 17592, Note_on_c, 6, 43, 96
1, 17602, Note_off_c, 0, 70, 0
1, 17602, Note_off_c, 1, 70, 0
1, 17602, Note_off_c, 5, 70, 0
1, 17604, Note_on_c, 0, 69, 96
1, 17604, Note_on_c, 1, 69, 96
1, 17604, Note_on_c, 5, 69, 96
1, 17610, Note_off_c, 2, 62, 0
1, 17613, Note_off_c, 3, 43, 0
1, 17613, Note_off_c, 4, 31, 0
1, 17613, Note_off_c, 6, 43, 0
1, 17614, Note_off_c, 0, 69, 0
1, 17614, Note_off_c, 1, 69, 0
1, 17614, Note_off_c, 5, 69, 0
1, 17616, Note_on_c, 0, 70, 96
1, 17616, Note_on_c, 1, 70, 96
1, 17616, Note_on_c, 3, 55, 96
1, 17616, Note_on_c, 4, 43, 96
1, 17616, Note_on_c, 5, 70, 96
1, 17616, Note_on_c, 6, 55, 96
1, 17637, Note_off_c, 0, 70, 0
1, 17637, Note_off_c, 1, 70, 0
1, 17637, Note_off_c, 3, 55, 0
1, 17637, Note_off_c, 4, 43, 0
1, 17637, Note_off_c, 5, 70, 0
1, 17637, Note_off_c, 6, 55, 0
1, 17640, Note_on_c, 0, 67, 96
1, 17640, Note_on_c, 1, 67, 96
1, 17640, Note_on_c, 2, 58, 96
1, 17640, Note_on_c, 3, 53, 96
1, 17640, Note_on_c, 4, 41, 96
1, 17640, Note_on_c, 5, 67, 96
1, 17640, Note_on_c, 6, 53, 96
1, 17650, Note_off_c, 0, 67, 0
1, 17650, Note_off_c, 1, 67, 0
1, 17650, Note_off_c, 2, 58, 0
1, 17650, Note_off_c, 5, 67, 0
1, 17652, Note_on_c, 0, 69, 96
1, 17652, Note_on_c, 1, 69, 96
1, 17652, Note_on_c, 2, 60, 96
1, 17652, Note_on_c, 5, 69, 96
1, 17661, Note_off_c, 3, 53, 0
1, 17661, Note_off_c, 4, 41, 0
1, 17661, Note_off_c, 6, 53, 0
1, 17662, Note_off_c, 0, 69, 0
1, 17662, Note_off_c, 1, 69, 0
1, 17662, Note_off_c, 2, 60, 0
1, 17662, Note_off_c, 5, 69, 0
1, 17664, Note_on_c, 0, 70, 96
1, 17664, Note_on_c, 1, 70, 96
1, 17664, Note_on_c, 2, 62, 96
1, 17664, Note_on_c, 3, 51, 96
1, 17664, Note_on_c, 4, 39, 96
1, 17664, Note_on_c, 5, 70, 96
1, 17664, Note_on_c, 6, 51, 96
1, 17674, Note_off_c, 5, 70, 0
1, 17676, Note_on_c, 5, 67, 96
1, 17685, Note_off_c, 0, 70, 0
1, 17685, Note_off_c, 1, 70, 0
1, 17685, Note_off_c, 2, 62, 0
1, 17685, Note_off_c, 3, 51, 0
1, 17685, Note_off_c, 4, 39, 0
1, 17685, Note_off_c, 6, 51, 0
1, 17686, Note_off_c, 5, 67, 0
1, 17688, Note_on_c, 0, 72, 96
1, 17688, Note_on_c, 1, 72, 96
1, 17688, Note_on_c, 2, 55, 96
1, 17688, Note_on_c, 3, 50, 96
1, 17688, Note_on_c, 4, 38, 96
1, 17688, Note_on_c, 5, 72, 96
1, 17688, Note_on_c, 6, 50, 96
1, 17698, Note_off_c, 0, 72, 0
1, 17698, Note_off_c, 1, 72, 0
1, 17698, Note_off_c, 5, 72, 0
1, 17700, Note_on_c, 0, 74, 96
1, 17700, Note_on_c, 1, 74, 96
1, 17700, Note_on_c, 5, 74, 96
1, 17709, Note_off_c, 2, 55, 0
1, 17709, Note_off_c, 3, 50, 0
1, 17709, Note_off_c, 4, 38, 0
1, 17709, Note_off_c, 6, 50, 0
1, 17710, Note_off_c, 0, 74, 0
1, 17710, Note_off_c, 1, 74, 0
1, 17710, Note_off_c, 5, 74, 0
1, 17712, Note_on_c, 0, 75, 96
1, 17712, Note_on_c, 1, 75, 96
1, 17712, Note_on_c, 2, 67, 96
1, 17712, Note_on_c, 3, 48, 96
1, 17712, Note_on_c, 4, 36, 96
1, 17712, Note_on_c, 5, 75, 96
1, 17712, Note_on_c, 6, 48, 96
1, 17722, Note_off_c, 5, 75, 0
1, 17724, Note_on_c, 5, 74, 96
1, 17733, Note_off_c, 0, 75, 0
1, 17733, Note_off_c, 1, 75, 0
1, 17733, Note_off_c, 2, 67, 0
1, 17733, Note_off_c, 3, 48, 0
1, 17733, Note_off_c, 4, 36, 0
1, 17733, Note_off_c, 6, 48, 0
1, 17734, Note_off_c, 5, 74, 0
1, 17736, Note_on_c, 0, 72, 96
1, 17736, Note_on_c, 1, 72, 96
1, 17736, Note_on_c, 2, 63, 96
1, 17736, Note_on_c, 3, 50, 96
1, 17736, Note_on_c, 4, 38, 96
1, 17736, Note_on_c, 5, 72, 96
1, 17736, Note_on_c, 6, 50, 96
1, 17746, Note_off_c, 0, 72, 0
1, 17746, Note_off_c, 1, 72, 0
1, 17746, Note_off_c, 2, 63, 0
1, 17746, Note_off_c, 3, 50, 0
1, 17746, Note_off_c, 4, 38, 0
1, 17746, Note_off_c, 5, 72, 0
1, 17746, Note_off_c, 6, 50, 0
1, 17748, Note_on_c, 0, 70, 96
1, 17748, Note_on_c, 1, 70, 96
1, 17748, Note_on_c, 2, 62, 96
1, 17748, Note_on_c, 3, 51, 96
1, 17748, Note_on_c, 4, 39, 96
1, 17748, Note_on_c, 5, 70, 96
1, 17748, Note_on_c, 6, 51, 96
1, 17758, Note_off_c, 0, 70, 0
1, 17758, Note_off_c, 1, 70, 0
1, 17758, Note_off_c, 2, 62, 0
1, 17758, Note_off_c, 3, 51, 0
1, 17758, Note_off_c, 4, 39, 0
1, 17758, Note_off_c, 5, 70, 0
1, 17758, Note_off_c, 6, 51, 0
1, 17760, Note_on_c, 0, 69, 96
1, 17760, Note_on_c, 1, 69, 96
1, 17760, Note_on_c, 2, 60, 96
1, 17760, Note_on_c, 3, 53, 96
1, 17760, Note_on_c, 4, 41, 96
1, 17760, Note_on_c, 5, 69, 96
1, 17760, Note_on_c, 6, 53, 96
1, 17770, Note_off_c, 5, 69, 0
1, 17772, Note_on_c, 5, 67, 96
1, 17781, Note_off_c, 0, 69, 0
1, 17781, Note_off_c, 1, 69, 0
1, 17781, Note_off_c, 2, 60, 0
1, 17781, Note_off_c, 3, 53, 0
1, 17781, Note_off_c, 4, 41, 0
1, 17781, Note_off_c, 6, 53, 0
1, 17782, Note_off_c, 5, 67, 0
1, 17784, Note_on_c, 0, 65, 96
1, 17784, Note_on_c, 1, 65, 96
1, 17784, Note_on_c, 2, 57, 96
1, 17784, Note_on_c, 3, 51, 96
1, 17784, Note_on_c, 4, 39, 96
1, 17784, Note_on_c, 5, 65, 96
1, 17784, Note_on_c, 6, 51, 96
1, 17794, Note_off_c, 0, 65, 0
1, 17794, Note_off_c, 1, 65, 0
1, 17794, Note_off_c, 2, 57, 0
1, 17794, Note_off_c, 5, 65, 0
1, 17796, Note_on_c, 0, 67, 96
1, 17796, Note_on_c, 1, 67, 96
1, 17796, Note_on_c, 2, 58, 96
1, 17796, Note_on_c, 5, 67, 96
1, 17805, Note_off_c, 3, 51, 0
1, 17805, Note_off_c, 4, 39, 0
1, 17805, Note_off_c, 6, 51, 0
1, 17806, Note_off_c, 0, 67, 0
1, 17806, Note_off_c, 1, 67, 0
1, 17806, Note_off_c, 2, 58, 0
1, 17806, Note_off_c, 5, 67, 0
1, 17808, Note_on_c, 0, 69, 96
1, 17808, Note_on_c, 1, 69, 96
1, 17808, Note_on_c, 2, 60, 96
1, 17808, Note_on_c, 3, 50, 96
1, 17808, Note_on_c, 4, 38, 96
1, 17808, Note_on_c, 5, 69, 96
1, 17808, Note_on_c, 6, 50, 96
1, 17818, Note_off_c, 5, 69, 0
1, 17820, Note_on_c, 5, 65, 96
1, 17829, Note_off_c, 0, 69, 0
1, 17829, Note_off_c, 1, 69, 0
1, 17829, Note_off_c, 2, 60, 0
1, 17829, Note_off_c, 3, 50, 0
1, 17829, Note_off_c, 4, 38, 0
1, 17829, Note_off_c, 6, 50, 0
1, 17830, Note_off_c, 5, 65, 0
1, 17832, Note_on_c, 0, 70, 96
1, 17832, Note_on_c, 1, 70, 96
1, 17832, Note_on_c, 2, 53, 96
1, 17832, Note_on_c, 3, 48, 96
1, 17832, Note_on_c, 4, 36, 96
1, 17832, Note_on_c, 5, 70, 96
1, 17832, Note_on_c, 6, 48, 96
1, 17842, Note_off_c, 0, 70, 0
1, 17842, Note_off_c, 1, 70, 0
1, 17842, Note_off_c, 5, 70, 0
1, 17844, Note_on_c, 0, 72, 96
1, 17844, Note_on_c, 1, 72, 96
1, 17844, Note_on_c, 5, 72, 96
1, 17853, Note_off_c, 2, 53, 0
1, 17853, Note_off_c, 3, 48, 0
1, 17853, Note_off_c, 4, 36, 0
1, 17853, Note_off_c, 6, 48, 0
1, 17854, Note_off_c, 0, 72, 0
1, 17854, Note_off_c, 1, 72, 0
1, 17854, Note_off_c, 5, 72, 0
1, 17856, Note_on_c, 0, 74, 96
1, 17856, Note_on_c, 1, 74, 96
1, 17856, Note_on_c, 2, 65, 96
1, 17856, Note_on_c, 3, 46, 96
1, 17856, Note_on_c, 4, 34, 96
1, 17856, Note_on_c, 5, 74, 96
1, 17856, Note_on_c, 6, 46, 96
1, 17866, Note_off_c, 5, 74, 0
1, 17868, Note_on_c, 5, 72, 96
1, 17877, Note_off_c, 0, 74, 0
1, 17877, Note_off_c, 1, 74, 0
1, 17877, Note_off_c, 2, 65, 0
1, 17877, Note_off_c, 3, 46, 0
1, 17877, Note_off_c, 4, 34, 0
1, 17877, Note_off_c, 6, 46, 0
1, 17878, Note_off_c, 5, 72, 0
1, 17880, Note_on_c, 0, 70, 96
1, 17880, Note_on_c, 1, 70, 96
1, 17880, Note_on_c, 2, 62, 96
1, 17880, Note_on_c, 3, 48, 96
1, 17880, Note_on_c, 4, 36, 96
1, 17880, Note_on_c, 5, 70, 96
1, 17880, Note_on_c, 6, 48, 96
1, 17890, Note_off_c, 0, 70, 0
1, 17890, Note_off_c, 1, 70, 0
1, 17890, Note_off_c, 2, 62, 0
1, 17890, Note_off_c, 3, 48, 0
1, 17890, Note_off_c, 4, 36, 0
1, 17890, Note_off_c, 5, 70, 0
1, 17890, Note_off_c, 6, 48, 0
1, 17892, Note_on_c, 0, 69, 96
1, 17892, Note_on_c, 1, 69, 96
1, 17892, Note_on_c, 2, 60, 96
1, 17892, Note_on_c, 3, 50, 96
1, 17892, Note_on_c, 4, 38, 96
1, 17892, Note_on_c, 5, 69, 96
1, 17892, Note_on_c, 6, 50, 96
1, 17902, Note_off_c, 0, 69, 0
1, 17902, Note_off_c, 1, 69, 0
1, 17902, Note_off_c, 2, 60, 0
1, 17902, Note_off_c, 3, 50, 0
1, 17902, Note_off_c, 4, 38, 0
1, 17902, Note_off_c, 5, 69, 0
1, 17902, Note_off_c, 6, 50, 0
1, 17904, Note_on_c, 0, 67, 96
1, 17904, Note_on_c, 1, 67, 96
1, 17904, Note_on_c, 2, 58, 96
1, 17904, Note_on_c, 3, 51, 96
1, 17904, Note_on_c, 4, 39, 96
1, 17904, Note_on_c, 5, 67, 96
1, 17904, Note_on_c, 6, 51, 96
1, 17925, Note_off_c, 0, 67, 0
1, 17925, Note_off_c, 1, 67, 0
1, 17925, Note_off_c, 2, 58, 0
1, 17925, Note_off_c, 3, 51, 0
1, 17925, Note_off_c, 4, 39, 0
1, 17925, Note_off_c, 5, 67, 0
1, 17925, Note_off_c, 6, 51, 0
1, 17928, Note_on_c, 0, 79, 96
1, 17928, Note_on_c, 1, 79, 96
1, 17928, Note_on_c, 2, 58, 96
1, 17928, Note_on_c, 3, 50, 96
1, 17928, Note_on_c, 4, 38, 96
1, 17928, Note_on_c, 5, 79, 96
1, 17928, Note_on_c, 6, 50, 96
1, 17938, Note_off_c, 0, 79, 0
1, 17938, Note_off_c, 1, 79, 0
1, 17938, Note_off_c, 5, 79, 0
1, 17940, Note_on_c, 0, 78, 96
1, 17940, Note_on_c, 1, 78, 96
1, 17940, Note_on_c, 5, 78, 96
1, 17949, Note_off_c, 2, 58, 0
1, 17949, Note_off_c, 3, 50, 0
1, 17949, Note_off_c, 4, 38, 0
1, 17949, Note_off_c, 6, 50, 0
1, 17950, Note_off_c, 0, 78, 0
1, 17950, Note_off_c, 1, 78, 0
1, 17950, Note_off_c, 5, 78, 0
1, 17952, Note_on_c, 0, 79, 96
1, 17952, Note_on_c, 1, 79, 96
1, 17952, Note_on_c, 2, 63, 96
1, 17952, Note_on_c, 3, 48, 96
1, 17952, Note_on_c, 4, 36, 96
1, 17952, Note_on_c, 5, 79, 96
1, 17952, Note_on_c, 6, 48, 96
1, 17973, Note_off_c, 0, 79, 0
1, 17973, Note_off_c, 1, 79, 0
1, 17973, Note_off_c, 2, 63, 0
1, 17973, Note_off_c, 3, 48, 0
1, 17973, Note_off_c, 4, 36, 0
1, 17973, Note_off_c, 5, 79, 0
1, 17973, Note_off_c, 6, 48, 0
1, 17976, Note_on_c, 0, 75, 96
1, 17976, Note_on_c, 1, 75, 96
1, 17976, Note_on_c, 2, 67, 96
1, 17976, Note_on_c, 3, 46, 96
1, 17976, Note_on_c, 4, 34, 96
1, 17976, Note_on_c, 5, 75, 96
1, 17976, Note_on_c, 6, 46, 96
1, 17997, Note_off_c, 0, 75, 0
1, 17997, Note_off_c, 1, 75, 0
1, 17997, Note_off_c, 2, 67, 0
1, 17997, Note_off_c, 3, 46, 0
1, 17997, Note_off_c, 4, 34, 0
1, 17997, Note_off_c, 5, 75, 0
1, 17997, Note_off_c, 6, 46, 0
1, 18000, Note_on_c, 0, 72, 96
1, 18000, Note_on_c, 1, 72, 96
1, 18000, Note_on_c, 2, 63, 96
1, 18000, Note_on_c, 3, 45, 96
1, 18000, Note_on_c, 4, 33, 96
1, 18000, Note_on_c, 5, 74, 96
1, 18000, Note_on_c, 6, 45, 96
1, 18006, Note_off_c, 5, 74, 0
1, 18006, Note_on_c, 5, 72, 96
1, 18012, Note_off_c, 5, 72, 0
1, 18012, Note_on_c, 5, 74, 96
1, 18018, Note_off_c, 5, 74, 0
1, 18018, Note_on_c, 5, 72, 96
1, 18021, Note_off_c, 3, 45, 0
1, 18021, Note_off_c, 4, 33, 0
1, 18021, Note_off_c, 6, 45, 0
1, 18024, Note_off_c, 0, 72, 0
1, 18024, Note_on_c, 0, 71, 96
1, 18024, Note_off_c, 1, 72, 0
1, 18024, Note_on_c, 1, 71, 96
1, 18024, Note_on_c, 3, 43, 96
1, 18024, Note_on_c, 4, 31, 96
1, 18024, Note_off_c, 5, 72, 0
1, 18024, Note_on_c, 5, 71, 96
1, 18024, Note_on_c, 6, 43, 96
1, 18042, Note_off_c, 2, 63, 0
1, 18045, Note_off_c, 3, 43, 0
1, 18045, Note_off_c, 4, 31, 0
1, 18045, Note_off_c, 6, 43, 0
1, 18048, Note_off_c, 0, 71, 0
1, 18048, Note_on_c, 0, 72, 96
1, 18048, Note_off_c, 1, 71, 0
1, 18048, Note_on_c, 1, 72, 96
1, 18048, Note_on_c, 3, 42, 96
1, 18048, Note_on_c, 4, 30, 96
1, 18048, Note_off_c, 5, 71, 0
1, 18048, Note_on_c, 5, 72, 96
1, 18048, Note_on_c, 6, 42, 96
1, 18069, Note_off_c, 0, 72, 0
1, 18069, Note_off_c, 1, 72, 0
1, 18069, Note_off_c, 3, 42, 0
1, 18069, Note_off_c, 4, 30, 0
1, 18069, Note_off_c, 5, 72, 0
1, 18069, Note_off_c, 6, 42, 0
1, 18072, Note_on_c, 0, 75, 96
1, 18072, Note_on_c, 1, 75, 96
1, 18072, Note_on_c, 2, 60, 96
1, 18072, Note_on_c, 3, 43, 96
1, 18072, Note_on_c, 4, 31, 96
1, 18072, Note_on_c, 5, 75, 96
1, 18072, Note_on_c, 6, 43, 96
1, 18082, Note_off_c, 0, 75, 0
1, 18082, Note_off_c, 1, 75, 0
1, 18082, Note_off_c, 2, 60, 0
1, 18082, Note_off_c, 5, 75, 0
1, 18084, Note_on_c, 0, 74, 96
1, 18084, Note_on_c, 1, 74, 96
1, 18084, Note_on_c, 2, 59, 96
1, 18084, Note_on_c, 5, 74, 96
1, 18093, Note_off_c, 3, 43, 0
1, 18093, Note_off_c, 4, 31, 0
1, 18093, Note_off_c, 6, 43, 0
1, 18094, Note_off_c, 0, 74, 0
1, 18094, Note_off_c, 1, 74, 0
1, 18094, Note_off_c, 2, 59, 0
1, 18094, Note_off_c, 5, 74, 0
1, 18096, Note_on_c, 0, 75, 96
1, 18096, Note_on_c, 1, 75, 96
1, 18096, Note_on_c, 2, 60, 96
1, 18096, Note_on_c, 3, 45, 96
1, 18096, Note_on_c, 4, 33, 96
1, 18096, Note_on_c, 5, 75, 96
1, 18096, Note_on_c, 6, 45, 96
1, 18117, Note_off_c, 0, 75, 0
1, 18117, Note_off_c, 1, 75, 0
1, 18117, Note_off_c, 2, 60, 0
1, 18117, Note_off_c, 3, 45, 0
1, 18117, Note_off_c, 4, 33, 0
1, 18117, Note_off_c, 5, 75, 0
1, 18117, Note_off_c, 6, 45, 0
1, 18120, Note_on_c, 0, 72, 96
1, 18120, Note_on_c, 1, 72, 96
1, 18120, Note_on_c, 2, 63, 96
1, 18120, Note_on_c, 3, 46, 96
1, 18120, Note_on_c, 4, 34, 96
1, 18120, Note_on_c, 5, 72, 96
1, 18120, Note_on_c, 6, 46, 96
1, 18130, Note_off_c, 2, 63, 0
1, 18132, Note_on_c, 2, 62, 96
1, 18141, Note_off_c, 0, 72, 0
1, 18141, Note_off_c, 1, 72, 0
1, 18141, Note_off_c, 3, 46, 0
1, 18141, Note_off_c, 4, 34, 0
1, 18141, Note_off_c, 5, 72, 0
1, 18141, Note_off_c, 6, 46, 0
1, 18142, Note_off_c, 2, 62, 0
1, 18144, Note_on_c, 0, 68, 96
1, 18144, Note_on_c, 1, 68, 96
1, 18144, Note_on_c, 2, 63, 96
1, 18144, Note_on_c, 3, 48, 96
1, 18144, Note_on_c, 4, 36, 96
1, 18144, Note_on_c, 5, 68, 96
1, 18144, Note_on_c, 6, 48, 96
1, 18165, Note_off_c, 2, 63, 0
1, 18165, Note_off_c, 3, 48, 0
1, 18165, Note_off_c, 4, 36, 0
1, 18165, Note_off_c, 6, 48, 0
1, 18168, Note_off_c, 0, 68, 0
1, 18168, Note_on_c, 0, 67, 96
1, 18168, Note_off_c, 1, 68, 0
1, 18168, Note_on_c, 1, 67, 96
1, 18168, Note_on_c, 2, 62, 96
1, 18168, Note_on_c, 3, 46, 96
1, 18168, Note_on_c, 4, 34, 96
1, 18168, Note_off_c, 5, 68, 0
1, 18168, Note_on_c, 5, 67, 96
1, 18168, Note_on_c, 6, 46, 96
1, 18189, Note_off_c, 2, 62, 0
1, 18189, Note_off_c, 3, 46, 0
1, 18189, Note_off_c, 4, 34, 0
1, 18189, Note_off_c, 6, 46, 0
1, 18192, Note_off_c, 0, 67, 0
1, 18192, Note_on_c, 0, 68, 96
1, 18192, Note_off_c, 1, 67, 0
1, 18192, Note_on_c, 1, 68, 96
1, 18192, Note_on_c, 2, 63, 96
1, 18192, Note_on_c, 3, 48, 96
1, 18192, Note_on_c, 4, 36, 96
1, 18192, Note_off_c, 5, 67, 0
1, 18192, Note_on_c, 5, 68, 96
1, 18192, Note_on_c, 6, 48, 96
1, 18213, Note_off_c, 0, 68, 0
1, 18213, Note_off_c, 1, 68, 0
1, 18213, Note_off_c, 2, 63, 0
1, 18213, Note_off_c, 3, 48, 0
1, 18213, Note_off_c, 4, 36, 0
1, 18213, Note_off_c, 5, 68, 0
1, 18213, Note_off_c, 6, 48, 0
1, 18216, Note_on_c, 0, 72, 96
1, 18216, Note_on_c, 1, 72, 96
1, 18216, Note_on_c, 2, 65, 96
1, 18216, Note_on_c, 3, 50, 96
1, 18216, Note_on_c, 4, 38, 96
1, 18216, Note_on_c, 5, 72, 96
1, 18216, Note_on_c, 6, 50, 96
1, 18226, Note_off_c, 0, 72, 0
1, 18226, Note_off_c, 1, 72, 0
1, 18226, Note_off_c, 5, 72, 0
1, 18228, Note_on_c, 0, 71, 96
1, 18228, Note_on_c, 1, 71, 96
1, 18228, Note_on_c, 5, 71, 96
1, 18237, Note_off_c, 2, 65, 0
1, 18237, Note_off_c, 3, 50, 0
1, 18237, Note_off_c, 4, 38, 0
1, 18237, Note_off_c, 6, 50, 0
1, 18238, Note_off_c, 0, 71, 0
1, 18238, Note_off_c, 1, 71, 0
1, 18238, Note_off_c, 5, 71, 0
1, 18240, Note_on_c, 0, 72, 96
1, 18240, Note_on_c, 1, 72, 96
1, 18240, Note_on_c, 2, 67, 96
1, 18240, Note_on_c, 3, 51, 96
1, 18240, Note_on_c, 4, 39, 96
1, 18240, Note_on_c, 5, 72, 96
1, 18240, Note_on_c, 6, 51, 96
1, 18261, Note_off_c, 0, 72, 0
1, 18261, Note_off_c, 1, 72, 0
1, 18261, Note_off_c, 2, 67, 0
1, 18261, Note_off_c, 3, 51, 0
1, 18261, Note_off_c, 4, 39, 0
1, 18261, Note_off_c, 5, 72, 0
1, 18261, Note_off_c, 6, 51, 0
1, 18264, Note_on_c, 0, 68, 96
1, 18264, Note_on_c, 1, 68, 96
1, 18264, Note_on_c, 2, 63, 96
1, 18264, Note_on_c, 3, 48, 96
1, 18264, Note_on_c, 4, 36, 96
1, 18264, Note_on_c, 5, 68, 96
1, 18264, Note_on_c, 6, 48, 96
1, 18285, Note_off_c, 0, 68, 0
1, 18285, Note_off_c, 1, 68, 0
1, 18285, Note_off_c, 2, 63, 0
1, 18285, Note_off_c, 3, 48, 0
1, 18285, Note_off_c, 4, 36, 0
1, 18285, Note_off_c, 5, 68, 0
1, 18285, Note_off_c, 6, 48, 0
1, 18288, Note_on_c, 0, 66, 96
1, 18288, Note_on_c, 1, 66, 96
1, 18288, Note_on_c, 2, 57, 96
1, 18288, Note_on_c, 3, 50, 96
1, 18288, Note_on_c, 4, 38, 96
1, 18288, Note_on_c, 5, 66, 96
1, 18288, Note_on_c, 6, 50, 96
1, 18309, Note_off_c, 0, 66, 0
1, 18309, Note_off_c, 1, 66, 0
1, 18309, Note_off_c, 2, 57, 0
1, 18309, Note_off_c, 5, 66, 0
1, 18309, Note_off_c, 6, 50, 0
1, 18312, Note_on_c, 0, 75, 96
1, 18312, Note_on_c, 1, 75, 96
1, 18312, Note_on_c, 2, 66, 96
1, 18312, Note_on_c, 5, 75, 96
1, 18312, Note_on_c, 6, 60, 96
1, 18322, Note_off_c, 5, 75, 0
1, 18322, Note_off_c, 6, 60, 0
1, 18324, Note_off_c, 0, 75, 0
1, 18324, Note_on_c, 0, 74, 96
1, 18324, Note_off_c, 1, 75, 0
1, 18324, Note_on_c, 1, 74, 96
1, 18324, Note_on_c, 5, 74, 96
1, 18324, Note_on_c, 6, 58, 96
1, 18330, Note_off_c, 3, 50, 0
1, 18330, Note_off_c, 4, 38, 0
1, 18333, Note_off_c, 2, 66, 0
1, 18334, Note_off_c, 5, 74, 0
1, 18334, Note_off_c, 6, 58, 0
1, 18336, Note_off_c, 0, 74, 0
1, 18336, Note_on_c, 0, 75, 96
1, 18336, Note_off_c, 1, 74, 0
1, 18336, Note_on_c, 1, 75, 96
1, 18336, Note_on_c, 2, 66, 96
1, 18336, Note_on_c, 5, 75, 96
1, 18336, Note_on_c, 6, 60, 96
1, 18357, Note_off_c, 0, 75, 0
1, 18357, Note_off_c, 1, 75, 0
1, 18357, Note_off_c, 2, 66, 0
1, 18357, Note_off_c, 5, 75, 0
1, 18357, Note_off_c, 6, 60, 0
1, 18360, Note_on_c, 0, 72, 96
1, 18360, Note_on_c, 1, 72, 96
1, 18360, Note_on_c, 2, 66, 96
1, 18360, Note_on_c, 5, 72, 96
1, 18360, Note_on_c, 6, 57, 96
1, 18370, Note_off_c, 5, 72, 0
1, 18370, Note_off_c, 6, 57, 0
1, 18372, Note_off_c, 0, 72, 0
1, 18372, Note_on_c, 0, 70, 96
1, 18372, Note_off_c, 1, 72, 0
1, 18372, Note_on_c, 1, 70, 96
1, 18372, Note_on_c, 5, 70, 96
1, 18372, Note_on_c, 6, 55, 96
1, 18381, Note_off_c, 2, 66, 0
1, 18382, Note_off_c, 5, 70, 0
1, 18382, Note_off_c, 6, 55, 0
1, 18384, Note_off_c, 0, 70, 0
1, 18384, Note_on_c, 0, 72, 96
1, 18384, Note_off_c, 1, 70, 0
1, 18384, Note_on_c, 1, 72, 96
1, 18384, Note_on_c, 2, 66, 96
1, 18384, Note_on_c, 5, 72, 96
1, 18384, Note_on_c, 6, 57, 96
1, 18405, Note_off_c, 0, 72, 0
1, 18405, Note_off_c, 1, 72, 0
1, 18405, Note_off_c, 2, 66, 0
1, 18405, Note_off_c, 5, 72, 0
1, 18405, Note_off_c, 6, 57, 0
1, 18408, Note_on_c, 0, 66, 96
1, 18408, Note_on_c, 1, 66, 96
1, 18408, Note_on_c, 2, 57, 96
1, 18408, Note_on_c, 3, 48, 96
1, 18408, Note_on_c, 4, 36, 96
1, 18408, Note_on_c, 5, 66, 96
1, 18408, Note_on_c, 6, 48, 96
1, 18429, Note_off_c, 0, 66, 0
1, 18429, Note_off_c, 1, 66, 0
1, 18429, Note_off_c, 2, 57, 0
1, 18429, Note_off_c, 3, 48, 0
1, 18429, Note_off_c, 4, 36, 0
1, 18429, Note_off_c, 5, 66, 0
1, 18429, Note_off_c, 6, 48, 0
1, 18432, Note_on_c, 0, 67, 96
1, 18432, Note_on_c, 1, 67, 96
1, 18432, Note_on_c, 2, 62, 96
1, 18432, Note_on_c, 3, 46, 96
1, 18432, Note_on_c, 4, 34, 96
1, 18432, Note_on_c, 5, 67, 96
1, 18432, Note_on_c, 6, 46, 96
1, 18453, Note_off_c, 0, 67, 0
1, 18453, Note_off_c, 1, 67, 0
1, 18453, Note_off_c, 2, 62, 0
1, 18453, Note_off_c, 3, 46, 0
1, 18453, Note_off_c, 4, 34, 0
1, 18453, Note_off_c, 5, 67, 0
1, 18453, Note_off_c, 6, 46, 0
1, 18456, Note_on_c, 0, 58, 96
1, 18456, Note_on_c, 1, 58, 96
1, 18456, Note_on_c, 2, 58, 96
1, 18456, Note_on_c, 3, 45, 96
1, 18456, Note_on_c, 4, 33, 96
1, 18456, Note_on_c, 5, 58, 96
1, 18456, Note_on_c, 6, 45, 96
1, 18466, Note_off_c, 3, 45, 0
1, 18466, Note_off_c, 4, 33, 0
1, 18466, Note_off_c, 6, 45, 0
1, 18468, Note_on_c, 3, 43, 96
1, 18468, Note_on_c, 4, 31, 96
1, 18468, Note_on_c, 6, 43, 96
1, 18477, Note_off_c, 0, 58, 0
1, 18477, Note_off_c, 1, 58, 0
1, 18477, Note_off_c, 2, 58, 0
1, 18477, Note_off_c, 5, 58, 0
1, 18478, Note_off_c, 3, 43, 0
1, 18478, Note_off_c, 4, 31, 0
1, 18478, Note_off_c, 6, 43, 0
1, 18480, Note_on_c, 0, 60, 96
1, 18480, Note_on_c, 1, 60, 96
1, 18480, Note_on_c, 2, 55, 96
1, 18480, Note_on_c, 3, 51, 96
1, 18480, Note_on_c, 4, 39, 96
1, 18480, Note_on_c, 5, 60, 96
1, 18480, Note_on_c, 6, 51, 96
1, 18501, Note_off_c, 0, 60, 0
1, 18501, Note_off_c, 1, 60, 0
1, 18501, Note_off_c, 2, 55, 0
1, 18501, Note_off_c, 3, 51, 0
1, 18501, Note_off_c, 4, 39, 0
1, 18501, Note_off_c, 5, 60, 0
1, 18501, Note_off_c, 6, 51, 0
1, 18504, Note_on_c, 0, 67, 96
1, 18504, Note_on_c, 1, 67, 96
1, 18504, Note_on_c, 2, 60, 96
1, 18504, Note_on_c, 3, 50, 96
1, 18504, Note_on_c, 4, 38, 96
1, 18504, Note_on_c, 5, 67, 96
1, 18504, Note_on_c, 6, 50, 96
1, 18514, Note_off_c, 3, 50, 0
1, 18514, Note_off_c, 4, 38, 0
1, 18514, Note_off_c, 6, 50, 0
1, 18516, Note_on_c, 3, 48, 96
1, 18516, Note_on_c, 4, 36, 96
1, 18516, Note_on_c, 6, 48, 96
1, 18525, Note_off_c, 0, 67, 0
1, 18525, Note_off_c, 1, 67, 0
1, 18525, Note_off_c, 2, 60, 0
1, 18525, Note_off_c, 5, 67, 0
1, 18526, Note_off_c, 3, 48, 0
1, 18526, Note_off_c, 4, 36, 0
1, 18526, Note_off_c, 6, 48, 0
1, 18528, Note_on_c, 0, 62, 96
1, 18528, Note_on_c, 1, 62, 96
1, 18528, Note_on_c, 2, 57, 96
1, 18528, Note_on_c, 3, 50, 96
1, 18528, Note_on_c, 4, 38, 96
1, 18528, Note_on_c, 5, 62, 96
1, 18528, Note_on_c, 6, 50, 96
1, 18549, Note_off_c, 0, 62, 0
1, 18549, Note_off_c, 1, 62, 0
1, 18549, Note_off_c, 2, 57, 0
1, 18549, Note_off_c, 3, 50, 0
1, 18549, Note_off_c, 4, 38, 0
1, 18549, Note_off_c, 5, 62, 0
1, 18549, Note_off_c, 6, 50, 0
1, 18552, Note_on_c, 0, 66, 96
1, 18552, Note_on_c, 1, 66, 96
1, 18552, Note_on_c, 2, 62, 96
1, 18552, Note_on_c, 3, 38, 96
1, 18552, Note_on_c, 4, 26, 96
1, 18552, Note_on_c, 5, 66, 96
1, 18552, Note_on_c, 6, 38, 96
1, 18573, Note_off_c, 0, 66, 0
1, 18573, Note_off_c, 1, 66, 0
1, 18573, Note_off_c, 2, 62, 0
1, 18573, Note_off_c, 3, 38, 0
1, 18573, Note_off_c, 4, 26, 0
1, 18573, Note_off_c, 5, 66, 0
1, 18573, Note_off_c, 6, 38, 0
1, 18576, Note_on_c, 0, 67, 96
1, 18576, Note_on_c, 1, 67, 96
1, 18576, Note_on_c, 2, 58, 96
1, 18576, Note_on_c, 3, 43, 80
1, 18576, Note_on_c, 4, 31, 80
1, 18576, Note_on_c, 6, 55, 96
1, 18576, Note_on_c, 6, 43, 96
1, 18588, Note_on_c, 5, 67, 96
1, 18597, Note_off_c, 0, 67, 0
1, 18597, Note_off_c, 1, 67, 0
1, 18597, Note_off_c, 2, 58, 0
1, 18598, Note_off_c, 5, 67, 0
1, 18600, Note_on_c, 0, 58, 80
1, 18600, Note_on_c, 1, 58, 80
1, 18600, Note_on_c, 2, 58, 80
1, 18600, Note_on_c, 5, 66, 96
1, 18610, Note_off_c, 0, 58, 0
1, 18610, Note_off_c, 1, 58, 0
1, 18610, Note_off_c, 2, 58, 0
1, 18610, Note_off_c, 5, 66, 0
1, 18612, Note_on_c, 0, 60, 80
1, 18612, Note_on_c, 1, 60, 80
1, 18612, Note_on_c, 2, 60, 80
1, 18612, Note_on_c, 5, 67, 96
1, 18618, Note_off_c, 3, 43, 0
1, 18618, Note_off_c, 4, 31, 0
1, 18618, Note_off_c, 6, 55, 0
1, 18618, Note_off_c, 6, 43, 0
1, 18622, Note_off_c, 0, 60, 0
1, 18622, Note_off_c, 1, 60, 0
1, 18622, Note_off_c, 2, 60, 0
1, 18622, Note_off_c, 5, 67, 0
1, 18624, Note_on_c, 0, 62, 80
1, 18624, Note_on_c, 1, 62, 80
1, 18624, Note_on_c, 2, 62, 80
1, 18624, Note_on_c, 3, 55, 80
1, 18624, Note_on_c, 4, 43, 80
1, 18624, Note_on_c, 5, 70, 96
1, 18634, Note_off_c, 5, 70, 0
1, 18636, Note_on_c, 5, 67, 96
1, 18645, Note_off_c, 0, 62, 0
1, 18645, Note_off_c, 1, 62, 0
1, 18645, Note_off_c, 2, 62, 0
1, 18646, Note_off_c, 5, 67, 0
1, 18648, Note_on_c, 0, 60, 80
1, 18648, Note_on_c, 1, 60, 80
1, 18648, Note_on_c, 2, 60, 80
1, 18648, Note_on_c, 5, 66, 96
1, 18658, Note_off_c, 5, 66, 0
1, 18660, Note_on_c, 5, 67, 96
1, 18666, Note_off_c, 3, 55, 0
1, 18666, Note_off_c, 4, 43, 0
1, 18669, Note_off_c, 0, 60, 0
1, 18669, Note_off_c, 1, 60, 0
1, 18669, Note_off_c, 2, 60, 0
1, 18670, Note_off_c, 5, 67, 0
1, 18672, Note_on_c, 0, 58, 80
1, 18672, Note_on_c, 1, 58, 80
1, 18672, Note_on_c, 2, 58, 80
1, 18672, Note_on_c, 6, 62, 96
1, 18682, Note_off_c, 6, 62, 0
1, 18684, Note_on_c, 5, 67, 96
1, 18693, Note_off_c, 0, 58, 0
1, 18693, Note_off_c, 1, 58, 0
1, 18693, Note_off_c, 2, 58, 0
1, 18694, Note_off_c, 5, 67, 0
1, 18696, Note_on_c, 0, 57, 80
1, 18696, Note_on_c, 1, 57, 80
1, 18696, Note_on_c, 2, 57, 80
1, 18696, Note_on_c, 5, 66, 96
1, 18706, Note_off_c, 5, 66, 0
1, 18708, Note_on_c, 5, 67, 96
1, 18717, Note_off_c, 0, 57, 0
1, 18717, Note_off_c, 1, 57, 0
1, 18717, Note_off_c, 2, 57, 0
1, 18718, Note_off_c, 5, 67, 0
1, 18720, Note_on_c, 0, 55, 80
1, 18720, Note_on_c, 1, 55, 80
1, 18720, Note_on_c, 2, 55, 80
1, 18720, Note_on_c, 6, 55, 96
1, 18730, Note_off_c, 6, 55, 0
1, 18732, Note_on_c, 5, 67, 96
1, 18742, Note_off_c, 5, 67, 0
1, 18744, Note_on_c, 3, 55, 80
1, 18744, Note_on_c, 4, 43, 80
1, 18744, Note_on_c, 5, 66, 96
1, 18754, Note_off_c, 3, 55, 0
1, 18754, Note_off_c, 4, 43, 0
1, 18754, Note_off_c, 5, 66, 0
1, 18756, Note_on_c, 3, 53, 80
1, 18756, Note_on_c, 4, 41, 80
1, 18756, Note_on_c, 5, 67, 96
1, 18762, Note_off_c, 0, 55, 0
1, 18762, Note_off_c, 1, 55, 0
1, 18762, Note_off_c, 2, 55, 0
1, 18766, Note_off_c, 3, 53, 0
1, 18766, Note_off_c, 4, 41, 0
1, 18766, Note_off_c, 5, 67, 0
1, 18768, Note_on_c, 0, 67, 80
1, 18768, Note_on_c, 1, 67, 80
1, 18768, Note_on_c, 2, 67, 80
1, 18768, Note_on_c, 3, 51, 80
1, 18768, Note_on_c, 4, 39, 80
1, 18768, Note_on_c, 5, 70, 96
1, 18778, Note_off_c, 5, 70, 0
1, 18780, Note_on_c, 5, 67, 96
1, 18789, Note_off_c, 3, 51, 0
1, 18789, Note_off_c, 4, 39, 0
1, 18790, Note_off_c, 5, 67, 0
1, 18792, Note_on_c, 3, 50, 80
1, 18792, Note_on_c, 4, 38, 80
1, 18792, Note_on_c, 5, 66, 96
1, 18802, Note_off_c, 5, 66, 0
1, 18804, Note_on_c, 5, 67, 96
1, 18810, Note_off_c, 0, 67, 0
1, 18810, Note_off_c, 1, 67, 0
1, 18810, Note_off_c, 2, 67, 0
1, 18813, Note_off_c, 3, 50, 0
1, 18813, Note_off_c, 4, 38, 0
1, 18814, Note_off_c, 5, 67, 0
1, 18816, Note_on_c, 3, 48, 80
1, 18816, Note_on_c, 4, 36, 80
1, 18816, Note_on_c, 6, 62, 96
1, 18826, Note_off_c, 6, 62, 0
1, 18828, Note_on_c, 5, 67, 96
1, 18837, Note_off_c, 3, 48, 0
1, 18837, Note_off_c, 4, 36, 0
1, 18838, Note_off_c, 5, 67, 0
1, 18840, Note_on_c, 3, 46, 80
1, 18840, Note_on_c, 4, 34, 80
1, 18840, Note_on_c, 5, 66, 96
1, 18850, Note_off_c, 5, 66, 0
1, 18852, Note_on_c, 5, 67, 96
1, 18861, Note_off_c, 3, 46, 0
1, 18861, Note_off_c, 4, 34, 0
1, 18862, Note_off_c, 5, 67, 0
1, 18864, Note_on_c, 3, 45, 80
1, 18864, Note_on_c, 4, 33, 80
1, 18864, Note_on_c, 6, 57, 96
1, 18874, Note_off_c, 6, 57, 0
1, 18876, Note_on_c, 5, 67, 96
1, 18886, Note_off_c, 5, 67, 0
1, 18888, Note_on_c, 0, 60, 80
1, 18888, Note_on_c, 1, 60, 80
1, 18888, Note_on_c, 2, 60, 80
1, 18888, Note_on_c, 5, 66, 96
1, 18898, Note_off_c, 0, 60, 0
1, 18898, Note_off_c, 1, 60, 0
1, 18898, Note_off_c, 2, 60, 0
1, 18898, Note_off_c, 5, 66, 0
1, 18900, Note_on_c, 0, 62, 80
1, 18900, Note_on_c, 1, 62, 80
1, 18900, Note_on_c, 2, 62, 80
1, 18900, Note_on_c, 5, 67, 96
1, 18906, Note_off_c, 3, 45, 0
1, 18906, Note_off_c, 4, 33, 0
1, 18910, Note_off_c, 0, 62, 0
1, 18910, Note_off_c, 1, 62, 0
1, 18910, Note_off_c, 2, 62, 0
1, 18910, Note_off_c, 5, 67, 0
1, 18912, Note_on_c, 0, 63, 80
1, 18912, Note_on_c, 1, 63, 80
1, 18912, Note_on_c, 2, 63, 80
1, 18912, Note_on_c, 3, 57, 80
1, 18912, Note_on_c, 4, 45, 80
1, 18912, Note_on_c, 5, 72, 96
1, 18924, Note_off_c, 5, 72, 0
1, 18924, Note_on_c, 5, 67, 96
1, 18933, Note_off_c, 0, 63, 0
1, 18933, Note_off_c, 1, 63, 0
1, 18933, Note_off_c, 2, 63, 0
1, 18936, Note_on_c, 0, 62, 80
1, 18936, Note_on_c, 1, 62, 80
1, 18936, Note_on_c, 2, 62, 80
1, 18936, Note_off_c, 5, 67, 0
1, 18936, Note_on_c, 5, 66, 96
1, 18948, Note_off_c, 5, 66, 0
1, 18948, Note_on_c, 5, 67, 96
1, 18954, Note_off_c, 3, 57, 0
1, 18954, Note_off_c, 4, 45, 0
1, 18957, Note_off_c, 0, 62, 0
1, 18957, Note_off_c, 1, 62, 0
1, 18957, Note_off_c, 2, 62, 0
1, 18958, Note_off_c, 5, 67, 0
1, 18960, Note_on_c, 0, 60, 80
1, 18960, Note_on_c, 1, 60, 80
1, 18960, Note_on_c, 2, 60, 80
1, 18960, Note_on_c, 6, 62, 96
1, 18970, Note_off_c, 6, 62, 0
1, 18972, Note_on_c, 5, 67, 96
1, 18981, Note_off_c, 0, 60, 0
1, 18981, Note_off_c, 1, 60, 0
1, 18981, Note_off_c, 2, 60, 0
1, 18984, Note_on_c, 0, 58, 80
1, 18984, Note_on_c, 1, 58, 80
1, 18984, Note_on_c, 2, 58, 80
1, 18984, Note_off_c, 5, 67, 0
1, 18984, Note_on_c, 5, 66, 96
1, 18996, Note_off_c, 5, 66, 0
1, 18996, Note_on_c, 5, 67, 96
1, 19005, Note_off_c, 0, 58, 0
1, 19005, Note_off_c, 1, 58, 0
1, 19005, Note_off_c, 2, 58, 0
1, 19006, Note_off_c, 5, 67, 0
1, 19008, Note_on_c, 0, 57, 80
1, 19008, Note_on_c, 1, 57, 80
1, 19008, Note_on_c, 2, 57, 80
1, 19008, Note_on_c, 6, 57, 96
1, 19018, Note_off_c, 6, 57, 0
1, 19020, Note_on_c, 5, 67, 96
1, 19030, Note_off_c, 5, 67, 0
1, 19032, Note_on_c, 3, 57, 80
1, 19032, Note_on_c, 4, 45, 80
1, 19032, Note_on_c, 5, 66, 96
1, 19042, Note_off_c, 3, 57, 0
1, 19042, Note_off_c, 4, 45, 0
1, 19042, Note_off_c, 5, 66, 0
1, 19044, Note_on_c, 3, 55, 80
1, 19044, Note_on_c, 4, 43, 80
1, 19044, Note_on_c, 5, 67, 96
1, 19050, Note_off_c, 0, 57, 0
1, 19050, Note_off_c, 1, 57, 0
1, 19050, Note_off_c, 2, 57, 0
1, 19054, Note_off_c, 3, 55, 0
1, 19054, Note_off_c, 4, 43, 0
1, 19054, Note_off_c, 5, 67, 0
1, 19056, Note_on_c, 0, 69, 80
1, 19056, Note_on_c, 1, 69, 80
1, 19056, Note_on_c, 2, 69, 80
1, 19056, Note_on_c, 3, 54, 80
1, 19056, Note_on_c, 4, 42, 80
1, 19056, Note_on_c, 5, 72, 96
1, 19066, Note_off_c, 5, 72, 0
1, 19068, Note_on_c, 5, 67, 96
1, 19077, Note_off_c, 3, 54, 0
1, 19077, Note_off_c, 4, 42, 0
1, 19078, Note_off_c, 5, 67, 0
1, 19080, Note_on_c, 3, 52, 80
1, 19080, Note_on_c, 4, 40, 80
1, 19080, Note_on_c, 5, 66, 96
1, 19090, Note_off_c, 5, 66, 0
1, 19092, Note_on_c, 5, 67, 96
1, 19098, Note_off_c, 0, 69, 0
1, 19098, Note_off_c, 1, 69, 0
1, 19098, Note_off_c, 2, 69, 0
1, 19101, Note_off_c, 3, 52, 0
1, 19101, Note_off_c, 4, 40, 0
1, 19102, Note_off_c, 5, 67, 0
1, 19104, Note_on_c, 3, 50, 80
1, 19104, Note_on_c, 4, 38, 80
1, 19104, Note_on_c, 6, 62, 96
1, 19114, Note_off_c, 6, 62, 0
1, 19116, Note_on_c, 5, 67, 96
1, 19125, Note_off_c, 3, 50, 0
1, 19125, Note_off_c, 4, 38, 0
1, 19126, Note_off_c, 5, 67, 0
1, 19128, Note_on_c, 3, 48, 80
1, 19128, Note_on_c, 4, 36, 80
1, 19128, Note_on_c, 5, 66, 96
1, 19138, Note_off_c, 5, 66, 0
1, 19140, Note_on_c, 5, 67, 96
1, 19149, Note_off_c, 3, 48, 0
1, 19149, Note_off_c, 4, 36, 0
1, 19150, Note_off_c, 5, 67, 0
1, 19152, Note_on_c, 3, 46, 80
1, 19152, Note_on_c, 4, 34, 80
1, 19152, Note_on_c, 6, 58, 96
1, 19162, Note_off_c, 6, 58, 0
1, 19164, Note_on_c, 5, 67, 96
1, 19176, Note_on_c, 0, 70, 80
1, 19176, Note_on_c, 1, 70, 80
1, 19176, Note_off_c, 5, 67, 0
1, 19176, Note_on_c, 5, 66, 96
1, 19186, Note_off_c, 0, 70, 0
1, 19186, Note_off_c, 1, 70, 0
1, 19188, Note_on_c, 0, 72, 80
1, 19188, Note_on_c, 1, 72, 80
1, 19188, Note_off_c, 5, 66, 0
1, 19188, Note_on_c, 5, 67, 96
1, 19194, Note_off_c, 3, 46, 0
1, 19194, Note_off_c, 4, 34, 0
1, 19198, Note_off_c, 0, 72, 0
1, 19198, Note_off_c, 1, 72, 0
1, 19198, Note_off_c, 5, 67, 0
1, 19200, Note_on_c, 0, 74, 80
1, 19200, Note_on_c, 1, 74, 80
1, 19200, Note_on_c, 3, 58, 80
1, 19200, Note_on_c, 4, 46, 80
1, 19200, Note_on_c, 5, 74, 96
1, 19212, Note_off_c, 5, 74, 0
1, 19212, Note_on_c, 5, 67, 96
1, 19221, Note_off_c, 0, 74, 0
1, 19221, Note_off_c, 1, 74, 0
1, 19224, Note_on_c, 0, 72, 80
1, 19224, Note_on_c, 1, 72, 80
1, 19224, Note_off_c, 5, 67, 0
1, 19224, Note_on_c, 5, 66, 96
1, 19236, Note_off_c, 5, 66, 0
1, 19236, Note_on_c, 5, 67, 96
1, 19242, Note_off_c, 3, 58, 0
1, 19242, Note_off_c, 4, 46, 0
1, 19245, Note_off_c, 0, 72, 0
1, 19245, Note_off_c, 1, 72, 0
1, 19246, Note_off_c, 5, 67, 0
1, 19248, Note_on_c, 0, 70, 80
1, 19248, Note_on_c, 1, 70, 80
1, 19248, Note_on_c, 6, 62, 96
1, 19258, Note_off_c, 6, 62, 0
1, 19260, Note_on_c, 5, 67, 96
1, 19269, Note_off_c, 0, 70, 0
1, 19269, Note_off_c, 1, 70, 0
1, 19272, Note_on_c, 0, 69, 80
1, 19272, Note_on_c, 1, 69, 80
1, 19272, Note_off_c, 5, 67, 0
1, 19272, Note_on_c, 5, 66, 96
1, 19284, Note_off_c, 5, 66, 0
1, 19284, Note_on_c, 5, 67, 96
1, 19293, Note_off_c, 0, 69, 0
1, 19293, Note_off_c, 1, 69, 0
1, 19294, Note_off_c, 5, 67, 0
1, 19296, Note_on_c, 0, 67, 80
1, 19296, Note_on_c, 1, 67, 80
1, 19296, Note_on_c, 6, 58, 96
1, 19306, Note_off_c, 6, 58, 0
1, 19308, Note_on_c, 5, 67, 96
1, 19317, Note_off_c, 0, 67, 0
1, 19317, Note_off_c, 1, 67, 0
1, 19318, Note_off_c, 5, 67, 0
1, 19320, Note_on_c, 0, 62, 80
1, 19320, Note_on_c, 1, 62, 80
1, 19320, Note_on_c, 2, 62, 80
1, 19320, Note_on_c, 3, 58, 80
1, 19320, Note_on_c, 4, 46, 80
1, 19320, Note_on_c, 5, 66, 96
1, 19330, Note_off_c, 0, 62, 0
1, 19330, Note_off_c, 1, 62, 0
1, 19330, Note_off_c, 2, 62, 0
1, 19330, Note_off_c, 3, 58, 0
1, 19330, Note_off_c, 4, 46, 0
1, 19330, Note_off_c, 5, 66, 0
1, 19332, Note_on_c, 0, 60, 80
1, 19332, Note_on_c, 1, 60, 80
1, 19332, Note_on_c, 2, 60, 80
1, 19332, Note_on_c, 3, 57, 80
1, 19332, Note_on_c, 4, 45, 80
1, 19332, Note_on_c, 5, 67, 96
1, 19342, Note_off_c, 0, 60, 0
1, 19342, Note_off_c, 1, 60, 0
1, 19342, Note_off_c, 2, 60, 0
1, 19342, Note_off_c, 3, 57, 0
1, 19342, Note_off_c, 4, 45, 0
1, 19342, Note_off_c, 5, 67, 0
1, 19344, Note_on_c, 0, 58, 80
1, 19344, Note_on_c, 1, 58, 80
1, 19344, Note_on_c, 2, 58, 80
1, 19344, Note_on_c, 3, 55, 80
1, 19344, Note_on_c, 4, 43, 80
1, 19344, Note_on_c, 5, 74, 96
1, 19354, Note_off_c, 5, 74, 0
1, 19356, Note_on_c, 5, 67, 96
1, 19365, Note_off_c, 0, 58, 0
1, 19365, Note_off_c, 1, 58, 0
1, 19365, Note_off_c, 2, 58, 0
1, 19365, Note_off_c, 3, 55, 0
1, 19365, Note_off_c, 4, 43, 0
1, 19366, Note_off_c, 5, 67, 0
1, 19368, Note_on_c, 0, 57, 80
1, 19368, Note_on_c, 1, 57, 80
1, 19368, Note_on_c, 2, 57, 80
1, 19368, Note_on_c, 3, 53, 80
1, 19368, Note_on_c, 4, 41, 80
1, 19368, Note_on_c, 5, 66, 96
1, 19378, Note_off_c, 5, 66, 0
1, 19380, Note_on_c, 5, 67, 96
1, 19389, Note_off_c, 0, 57, 0
1, 19389, Note_off_c, 1, 57, 0
1, 19389, Note_off_c, 2, 57, 0
1, 19389, Note_off_c, 3, 53, 0
1, 19389, Note_off_c, 4, 41, 0
1, 19390, Note_off_c, 5, 67, 0
1, 19392, Note_on_c, 0, 55, 80
1, 19392, Note_on_c, 1, 55, 80
1, 19392, Note_on_c, 2, 55, 80
1, 19392, Note_on_c, 3, 52, 80
1, 19392, Note_on_c, 4, 40, 80
1, 19392, Note_on_c, 6, 62, 96
1, 19402, Note_off_c, 6, 62, 0
1, 19404, Note_on_c, 5, 67, 96
1, 19413, Note_off_c, 0, 55, 0
1, 19413, Note_off_c, 1, 55, 0
1, 19413, Note_off_c, 2, 55, 0
1, 19413, Note_off_c, 3, 52, 0
1, 19413, Note_off_c, 4, 40, 0
1, 19414, Note_off_c, 5, 67, 0
1, 19416, Note_on_c, 0, 74, 80
1, 19416, Note_on_c, 1, 74, 80
1, 19416, Note_on_c, 2, 59, 80
1, 19416, Note_on_c, 3, 50, 80
1, 19416, Note_on_c, 4, 38, 80
1, 19416, Note_on_c, 5, 66, 96
1, 19426, Note_off_c, 5, 66, 0
1, 19428, Note_on_c, 5, 67, 96
1, 19437, Note_off_c, 0, 74, 0
1, 19437, Note_off_c, 1, 74, 0
1, 19437, Note_off_c, 2, 59, 0
1, 19437, Note_off_c, 3, 50, 0
1, 19437, Note_off_c, 4, 38, 0
1, 19438, Note_off_c, 5, 67, 0
1, 19440, Note_on_c, 0, 75, 80
1, 19440, Note_on_c, 1, 75, 80
1, 19440, Note_on_c, 2, 60, 80
1, 19440, Note_on_c, 3, 48, 80
1, 19440, Note_on_c, 4, 36, 80
1, 19440, Note_on_c, 6, 60, 96
1, 19450, Note_off_c, 6, 60, 0
1, 19452, Note_on_c, 5, 67, 96
1, 19461, Note_off_c, 0, 75, 0
1, 19461, Note_off_c, 1, 75, 0
1, 19462, Note_off_c, 5, 67, 0
1, 19464, Note_on_c, 0, 72, 80
1, 19464, Note_on_c, 1, 72, 80
1, 19464, Note_on_c, 5, 66, 96
1, 19474, Note_off_c, 0, 72, 0
1, 19474, Note_off_c, 1, 72, 0
1, 19474, Note_off_c, 5, 66, 0
1, 19476, Note_on_c, 0, 74, 80
1, 19476, Note_on_c, 1, 74, 80
1, 19476, Note_on_c, 5, 67, 96
1, 19482, Note_off_c, 2, 60, 0
1, 19482, Note_off_c, 3, 48, 0
1, 19482, Note_off_c, 4, 36, 0
1, 19486, Note_off_c, 0, 74, 0
1, 19486, Note_off_c, 1, 74, 0
1, 19486, Note_off_c, 5, 67, 0
1, 19488, Note_on_c, 0, 75, 80
1, 19488, Note_on_c, 1, 75, 80
1, 19488, Note_on_c, 3, 60, 80
1, 19488, Note_on_c, 4, 48, 80
1, 19488, Note_on_c, 5, 75, 96
1, 19498, Note_off_c, 5, 75, 0
1, 19500, Note_on_c, 5, 67, 96
1, 19509, Note_off_c, 0, 75, 0
1, 19509, Note_off_c, 1, 75, 0
1, 19510, Note_off_c, 5, 67, 0
1, 19512, Note_on_c, 0, 74, 80
1, 19512, Note_on_c, 1, 74, 80
1, 19512, Note_on_c, 5, 66, 96
1, 19522, Note_off_c, 5, 66, 0
1, 19524, Note_on_c, 5, 67, 96
1, 19530, Note_off_c, 3, 60, 0
1, 19530, Note_off_c, 4, 48, 0
1, 19533, Note_off_c, 0, 74, 0
1, 19533, Note_off_c, 1, 74, 0
1, 19534, Note_off_c, 5, 67, 0
1, 19536, Note_on_c, 0, 72, 80
1, 19536, Note_on_c, 1, 72, 80
1, 19536, Note_on_c, 5, 75, 96
1, 19546, Note_off_c, 5, 75, 0
1, 19548, Note_on_c, 5, 67, 96
1, 19557, Note_off_c, 0, 72, 0
1, 19557, Note_off_c, 1, 72, 0
1, 19558, Note_off_c, 5, 67, 0
1, 19560, Note_on_c, 0, 70, 80
1, 19560, Note_on_c, 1, 70, 80
1, 19560, Note_on_c, 5, 66, 96
1, 19570, Note_off_c, 5, 66, 0
1, 19572, Note_on_c, 5, 67, 96
1, 19581, Note_off_c, 0, 70, 0
1, 19581, Note_off_c, 1, 70, 0
1, 19582, Note_off_c, 5, 67, 0
1, 19584, Note_on_c, 0, 69, 80
1, 19584, Note_on_c, 1, 69, 80
1, 19584, Note_on_c, 6, 60, 96
1, 19594, Note_off_c, 6, 60, 0
1, 19596, Note_on_c, 5, 67, 96
1, 19605, Note_off_c, 0, 69, 0
1, 19605, Note_off_c, 1, 69, 0
1, 19606, Note_off_c, 5, 67, 0
1, 19608, Note_on_c, 0, 63, 80
1, 19608, Note_on_c, 1, 63, 80
1, 19608, Note_on_c, 2, 63, 80
1, 19608, Note_on_c, 3, 60, 80
1, 19608, Note_on_c, 4, 48, 80
1, 19608, Note_on_c, 5, 66, 96
1, 19618, Note_off_c, 0, 63, 0
1, 19618, Note_off_c, 1, 63, 0
1, 19618, Note_off_c, 2, 63, 0
1, 19618, Note_off_c, 3, 60, 0
1, 19618, Note_off_c, 4, 48, 0
1, 19618, Note_off_c, 5, 66, 0
1, 19620, Note_on_c, 0, 62, 80
1, 19620, Note_on_c, 1, 62, 80
1, 19620, Note_on_c, 2, 62, 80
1, 19620, Note_on_c, 3, 58, 80
1, 19620, Note_on_c, 4, 46, 80
1, 19620, Note_on_c, 5, 67, 96
1, 19630, Note_off_c, 0, 62, 0
1, 19630, Note_off_c, 1, 62, 0
1, 19630, Note_off_c, 2, 62, 0
1, 19630, Note_off_c, 3, 58, 0
1, 19630, Note_off_c, 4, 46, 0
1, 19630, Note_off_c, 5, 67, 0
1, 19632, Note_on_c, 0, 60, 80
1, 19632, Note_on_c, 1, 60, 80
1, 19632, Note_on_c, 2, 60, 80
1, 19632, Note_on_c, 3, 57, 80
1, 19632, Note_on_c, 4, 45, 80
1, 19632, Note_on_c, 5, 75, 96
1, 19642, Note_off_c, 5, 75, 0
1, 19644, Note_on_c, 5, 67, 96
1, 19653, Note_off_c, 0, 60, 0
1, 19653, Note_off_c, 1, 60, 0
1, 19653, Note_off_c, 2, 60, 0
1, 19653, Note_off_c, 3, 57, 0
1, 19653, Note_off_c, 4, 45, 0
1, 19654, Note_off_c, 5, 67, 0
1, 19656, Note_on_c, 0, 58, 80
1, 19656, Note_on_c, 1, 58, 80
1, 19656, Note_on_c, 2, 58, 80
1, 19656, Note_on_c, 3, 55, 80
1, 19656, Note_on_c, 4, 43, 80
1, 19656, Note_on_c, 5, 66, 96
1, 19666, Note_off_c, 5, 66, 0
1, 19668, Note_on_c, 5, 67, 96
1, 19677, Note_off_c, 0, 58, 0
1, 19677, Note_off_c, 1, 58, 0
1, 19677, Note_off_c, 2, 58, 0
1, 19677, Note_off_c, 3, 55, 0
1, 19677, Note_off_c, 4, 43, 0
1, 19678, Note_off_c, 5, 67, 0
1, 19680, Note_on_c, 0, 57, 80
1, 19680, Note_on_c, 1, 57, 80
1, 19680, Note_on_c, 2, 57, 80
1, 19680, Note_on_c, 3, 54, 80
1, 19680, Note_on_c, 4, 42, 80
1, 19680, Note_on_c, 5, 75, 96
1, 19690, Note_off_c, 5, 75, 0
1, 19692, Note_on_c, 5, 67, 96
1, 19701, Note_off_c, 0, 57, 0
1, 19701, Note_off_c, 1, 57, 0
1, 19701, Note_off_c, 2, 57, 0
1, 19701, Note_off_c, 3, 54, 0
1, 19701, Note_off_c, 4, 42, 0
1, 19702, Note_off_c, 5, 67, 0
1, 19704, Note_on_c, 0, 79, 80
1, 19704, Note_on_c, 1, 79, 80
1, 19704, Note_on_c, 2, 60, 80
1, 19704, Note_on_c, 3, 52, 80
1, 19704, Note_on_c, 4, 40, 80
1, 19704, Note_on_c, 5, 66, 96
1, 19714, Note_off_c, 5, 66, 0
1, 19716, Note_on_c, 5, 67, 96
1, 19725, Note_off_c, 0, 79, 0
1, 19725, Note_off_c, 1, 79, 0
1, 19725, Note_off_c, 2, 60, 0
1, 19725, Note_off_c, 3, 52, 0
1, 19725, Note_off_c, 4, 40, 0
1, 19726, Note_off_c, 5, 67, 0
1, 19728, Note_on_c, 0, 78, 80
1, 19728, Note_on_c, 1, 78, 80
1, 19728, Note_on_c, 2, 62, 80
1, 19728, Note_on_c, 3, 50, 80
1, 19728, Note_on_c, 4, 38, 80
1, 19728, Note_on_c, 6, 60, 96
1, 19738, Note_off_c, 6, 60, 0
1, 19740, Note_on_c, 5, 69, 96
1, 19749, Note_off_c, 0, 78, 0
1, 19749, Note_off_c, 1, 78, 0
1, 19752, Note_on_c, 0, 72, 80
1, 19752, Note_on_c, 1, 69, 80
1, 19752, Note_off_c, 5, 69, 0
1, 19752, Note_on_c, 5, 78, 96
1, 19764, Note_off_c, 0, 72, 0
1, 19764, Note_on_c, 0, 70, 80
1, 19764, Note_off_c, 1, 69, 0
1, 19764, Note_on_c, 1, 67, 80
1, 19764, Note_off_c, 5, 78, 0
1, 19764, Note_on_c, 5, 79, 96
1, 19770, Note_off_c, 2, 62, 0
1, 19770, Note_off_c, 3, 50, 0
1, 19770, Note_off_c, 4, 38, 0
1, 19776, Note_off_c, 0, 70, 0
1, 19776, Note_on_c, 0, 72, 80
1, 19776, Note_off_c, 1, 67, 0
1, 19776, Note_on_c, 1, 69, 80
1, 19776, Note_off_c, 5, 79, 0
1, 19776, Note_on_c, 5, 78, 96
1, 19788, Note_off_c, 5, 78, 0
1, 19788, Note_on_c, 5, 69, 96
1, 19797, Note_off_c, 0, 72, 0
1, 19797, Note_off_c, 1, 69, 0
1, 19798, Note_off_c, 5, 69, 0
1, 19800, Note_on_c, 0, 69, 80
1, 19800, Note_on_c, 1, 66, 80
1, 19800, Note_on_c, 6, 60, 96
1, 19812, Note_off_c, 0, 69, 0
1, 19812, Note_on_c, 0, 67, 80
1, 19812, Note_off_c, 1, 66, 0
1, 19812, Note_on_c, 1, 64, 80
1, 19812, Note_off_c, 6, 60, 0
1, 19812, Note_on_c, 6, 62, 96
1, 19824, Note_off_c, 0, 67, 0
1, 19824, Note_on_c, 0, 69, 80
1, 19824, Note_off_c, 1, 64, 0
1, 19824, Note_on_c, 1, 66, 80
1, 19824, Note_off_c, 6, 62, 0
1, 19824, Note_on_c, 6, 60, 96
1, 19834, Note_off_c, 6, 60, 0
1, 19836, Note_on_c, 5, 69, 96
1, 19845, Note_off_c, 0, 69, 0
1, 19845, Note_off_c, 1, 66, 0
1, 19848, Note_on_c, 0, 78, 80
1, 19848, Note_on_c, 1, 72, 80
1, 19848, Note_on_c, 2, 69, 80
1, 19848, Note_off_c, 5, 69, 0
1, 19848, Note_on_c, 5, 78, 96
1, 19860, Note_off_c, 5, 78, 0
1, 19860, Note_on_c, 5, 69, 96
1, 19869, Note_off_c, 0, 78, 0
1, 19869, Note_off_c, 1, 72, 0
1, 19869, Note_off_c, 2, 69, 0
1, 19870, Note_off_c, 5, 69, 0
1, 19872, Note_on_c, 0, 79, 80
1, 19872, Note_on_c, 1, 70, 80
1, 19872, Note_on_c, 2, 67, 80
1, 19872, Note_on_c, 3, 50, 80
1, 19872, Note_on_c, 4, 38, 80
1, 19872, Note_on_c, 6, 61, 96
1, 19882, Note_off_c, 6, 61, 0
1, 19884, Note_on_c, 5, 70, 96
1, 19893, Note_off_c, 0, 79, 0
1, 19893, Note_off_c, 1, 70, 0
1, 19896, Note_on_c, 0, 70, 80
1, 19896, Note_on_c, 1, 67, 80
1, 19896, Note_off_c, 5, 70, 0
1, 19896, Note_on_c, 5, 79, 96
1, 19908, Note_off_c, 0, 70, 0
1, 19908, Note_on_c, 0, 69, 80
1, 19908, Note_off_c, 1, 67, 0
1, 19908, Note_on_c, 1, 66, 80
1, 19908, Note_off_c, 5, 79, 0
1, 19908, Note_on_c, 5, 81, 96
1, 19914, Note_off_c, 2, 67, 0
1, 19914, Note_off_c, 3, 50, 0
1, 19914, Note_off_c, 4, 38, 0
1, 19920, Note_off_c, 0, 69, 0
1, 19920, Note_on_c, 0, 70, 80
1, 19920, Note_off_c, 1, 66, 0
1, 19920, Note_on_c, 1, 67, 80
1, 19920, Note_off_c, 5, 81, 0
1, 19920, Note_on_c, 5, 79, 96
1, 19932, Note_off_c, 5, 79, 0
1, 19932, Note_on_c, 5, 70, 96
1, 19941, Note_off_c, 0, 70, 0
1, 19941, Note_off_c, 1, 67, 0
1, 19942, Note_off_c, 5, 70, 0
1, 19944, Note_on_c, 0, 67, 80
1, 19944, Note_on_c, 1, 64, 80
1, 19944, Note_on_c, 6, 61, 96
1, 19956, Note_off_c, 0, 67, 0
1, 19956, Note_on_c, 0, 66, 80
1, 19956, Note_off_c, 1, 64, 0
1, 19956, Note_on_c, 1, 62, 80
1, 19956, Note_off_c, 6, 61, 0
1, 19956, Note_on_c, 6, 62, 96
1, 19968, Note_off_c, 0, 66, 0
1, 19968, Note_on_c, 0, 67, 80
1, 19968, Note_off_c, 1, 62, 0
1, 19968, Note_on_c, 1, 64, 80
1, 19968, Note_off_c, 6, 62, 0
1, 19968, Note_on_c, 6, 61, 96
1, 19978, Note_off_c, 6, 61, 0
1, 19980, Note_on_c, 5, 70, 96
1, 19989, Note_off_c, 0, 67, 0
1, 19989, Note_off_c, 1, 64, 0
1, 19992, Note_on_c, 0, 79, 80
1, 19992, Note_on_c, 1, 70, 80
1, 19992, Note_on_c, 2, 64, 80
1, 19992, Note_off_c, 5, 70, 0
1, 19992, Note_on_c, 5, 79, 96
1, 20004, Note_off_c, 5, 79, 0
1, 20004, Note_on_c, 5, 70, 96
1, 20013, Note_off_c, 0, 79, 0
1, 20013, Note_off_c, 1, 70, 0
1, 20013, Note_off_c, 2, 64, 0
1, 20014, Note_off_c, 5, 70, 0
1, 20016, Note_on_c, 0, 72, 80
1, 20016, Note_on_c, 1, 69, 80
1, 20016, Note_on_c, 2, 66, 80
1, 20016, Note_on_c, 3, 50, 80
1, 20016, Note_on_c, 4, 38, 80
1, 20016, Note_on_c, 6, 62, 96
1, 20026, Note_off_c, 6, 62, 0
1, 20028, Note_on_c, 5, 78, 96
1, 20037, Note_off_c, 0, 72, 0
1, 20037, Note_off_c, 1, 69, 0
1, 20040, Note_on_c, 0, 69, 80
1, 20040, Note_on_c, 1, 66, 80
1, 20040, Note_off_c, 5, 78, 0
1, 20040, Note_on_c, 5, 84, 96
1, 20052, Note_off_c, 0, 69, 0
1, 20052, Note_on_c, 0, 67, 80
1, 20052, Note_off_c, 1, 66, 0
1, 20052, Note_on_c, 1, 64, 80
1, 20052, Note_off_c, 5, 84, 0
1, 20052, Note_on_c, 5, 86, 96
1, 20058, Note_off_c, 2, 66, 0
1, 20058, Note_off_c, 3, 50, 0
1, 20058, Note_off_c, 4, 38, 0
1, 20064, Note_off_c, 0, 67, 0
1, 20064, Note_on_c, 0, 69, 80
1, 20064, Note_off_c, 1, 64, 0
1, 20064, Note_on_c, 1, 66, 80
1, 20064, Note_off_c, 5, 86, 0
1, 20064, Note_on_c, 5, 84, 96
1, 20076, Note_off_c, 5, 84, 0
1, 20076, Note_on_c, 5, 78, 96
1, 20085, Note_off_c, 0, 69, 0
1, 20085, Note_off_c, 1, 66, 0
1, 20086, Note_off_c, 5, 78, 0
1, 20088, Note_on_c, 0, 66, 80
1, 20088, Note_on_c, 1, 62, 80
1, 20088, Note_on_c, 6, 69, 96
1, 20100, Note_off_c, 0, 66, 0
1, 20100, Note_on_c, 0, 64, 80
1, 20100, Note_off_c, 1, 62, 0
1, 20100, Note_on_c, 1, 60, 80
1, 20100, Note_off_c, 6, 69, 0
1, 20100, Note_on_c, 6, 70, 96
1, 20112, Note_off_c, 0, 64, 0
1, 20112, Note_on_c, 0, 66, 80
1, 20112, Note_off_c, 1, 60, 0
1, 20112, Note_on_c, 1, 62, 80
1, 20112, Note_off_c, 6, 70, 0
1, 20112, Note_on_c, 6, 69, 96
1, 20122, Note_off_c, 6, 69, 0
1, 20124, Note_on_c, 5, 78, 96
1, 20133, Note_off_c, 0, 66, 0
1, 20133, Note_off_c, 1, 62, 0
1, 20136, Note_on_c, 0, 72, 80
1, 20136, Note_on_c, 1, 69, 80
1, 20136, Note_on_c, 2, 66, 80
1, 20136, Note_off_c, 5, 78, 0
1, 20136, Note_on_c, 5, 84, 96
1, 20148, Note_off_c, 5, 84, 0
1, 20148, Note_on_c, 5, 78, 96
1, 20157, Note_off_c, 0, 72, 0
1, 20157, Note_off_c, 1, 69, 0
1, 20157, Note_off_c, 2, 66, 0
1, 20158, Note_off_c, 5, 78, 0
1, 20160, Note_on_c, 0, 70, 80
1, 20160, Note_on_c, 1, 67, 80
1, 20160, Note_on_c, 2, 62, 80
1, 20160, Note_on_c, 3, 50, 80
1, 20160, Note_on_c, 4, 38, 80
1, 20160, Note_on_c, 6, 67, 96
1, 20170, Note_off_c, 6, 67, 0
1, 20172, Note_on_c, 5, 74, 96
1, 20181, Note_off_c, 0, 70, 0
1, 20181, Note_off_c, 1, 67, 0
1, 20184, Note_on_c, 0, 67, 80
1, 20184, Note_on_c, 1, 64, 80
1, 20184, Note_off_c, 5, 74, 0
1, 20184, Note_on_c, 5, 82, 96
1, 20196, Note_off_c, 0, 67, 0
1, 20196, Note_on_c, 0, 66, 80
1, 20196, Note_off_c, 1, 64, 0
1, 20196, Note_on_c, 1, 62, 80
1, 20196, Note_off_c, 5, 82, 0
1, 20196, Note_on_c, 5, 84, 96
1, 20202, Note_off_c, 2, 62, 0
1, 20202, Note_off_c, 3, 50, 0
1, 20202, Note_off_c, 4, 38, 0
1, 20208, Note_off_c, 0, 66, 0
1, 20208, Note_on_c, 0, 67, 80
1, 20208, Note_off_c, 1, 62, 0
1, 20208, Note_on_c, 1, 64, 80
1, 20208, Note_off_c, 5, 84, 0
1, 20208, Note_on_c, 5, 82, 96
1, 20220, Note_off_c, 5, 82, 0
1, 20220, Note_on_c, 5, 73, 96
1, 20229, Note_off_c, 0, 67, 0
1, 20229, Note_off_c, 1, 64, 0
1, 20230, Note_off_c, 5, 73, 0
1, 20232, Note_on_c, 0, 64, 80
1, 20232, Note_on_c, 1, 61, 80
1, 20232, Note_on_c, 6, 67, 96
1, 20244, Note_off_c, 0, 64, 0
1, 20244, Note_on_c, 0, 62, 80
1, 20244, Note_off_c, 1, 61, 0
1, 20244, Note_on_c, 1, 59, 80
1, 20244, Note_off_c, 6, 67, 0
1, 20244, Note_on_c, 6, 69, 96
1, 20256, Note_off_c, 0, 62, 0
1, 20256, Note_on_c, 0, 64, 80
1, 20256, Note_off_c, 1, 59, 0
1, 20256, Note_on_c, 1, 61, 80
1, 20256, Note_off_c, 6, 69, 0
1, 20256, Note_on_c, 6, 67, 96
1, 20266, Note_off_c, 6, 67, 0
1, 20268, Note_on_c, 5, 73, 96
1, 20277, Note_off_c, 0, 64, 0
1, 20277, Note_off_c, 1, 61, 0
1, 20280, Note_on_c, 0, 70, 80
1, 20280, Note_on_c, 1, 67, 80
1, 20280, Note_on_c, 2, 62, 80
1, 20280, Note_off_c, 5, 73, 0
1, 20280, Note_on_c, 5, 82, 96
1, 20292, Note_off_c, 5, 82, 0
1, 20292, Note_on_c, 5, 73, 96
1, 20301, Note_off_c, 0, 70, 0
1, 20301, Note_off_c, 1, 67, 0
1, 20301, Note_off_c, 2, 62, 0
1, 20302, Note_off_c, 5, 73, 0
1, 20304, Note_on_c, 0, 69, 80
1, 20304, Note_on_c, 1, 66, 80
1, 20304, Note_on_c, 2, 62, 80
1, 20304, Note_on_c, 3, 50, 80
1, 20304, Note_on_c, 4, 38, 80
1, 20304, Note_on_c, 6, 66, 96
1, 20314, Note_off_c, 6, 66, 0
1, 20316, Note_on_c, 5, 72, 96
1, 20325, Note_off_c, 0, 69, 0
1, 20325, Note_off_c, 1, 66, 0
1, 20325, Note_off_c, 2, 62, 0
1, 20328, Note_on_c, 0, 66, 80
1, 20328, Note_on_c, 1, 62, 80
1, 20328, Note_on_c, 2, 57, 80
1, 20328, Note_off_c, 5, 72, 0
1, 20328, Note_on_c, 5, 81, 96
1, 20340, Note_off_c, 0, 66, 0
1, 20340, Note_on_c, 0, 64, 80
1, 20340, Note_off_c, 1, 62, 0
1, 20340, Note_on_c, 1, 60, 80
1, 20340, Note_off_c, 2, 57, 0
1, 20340, Note_on_c, 2, 55, 80
1, 20340, Note_off_c, 5, 81, 0
1, 20340, Note_on_c, 5, 82, 96
1, 20346, Note_off_c, 3, 50, 0
1, 20346, Note_off_c, 4, 38, 0
1, 20352, Note_off_c, 0, 64, 0
1, 20352, Note_on_c, 0, 66, 80
1, 20352, Note_off_c, 1, 60, 0
1, 20352, Note_on_c, 1, 62, 80
1, 20352, Note_off_c, 2, 55, 0
1, 20352, Note_on_c, 2, 57, 80
1, 20352, Note_off_c, 5, 82, 0
1, 20352, Note_on_c, 5, 81, 96
1, 20364, Note_off_c, 5, 81, 0
1, 20364, Note_on_c, 5, 72, 96
1, 20373, Note_off_c, 0, 66, 0
1, 20373, Note_off_c, 1, 62, 0
1, 20373, Note_off_c, 2, 57, 0
1, 20374, Note_off_c, 5, 72, 0
1, 20376, Note_on_c, 0, 62, 80
1, 20376, Note_on_c, 1, 57, 80
1, 20376, Note_on_c, 2, 54, 80
1, 20376, Note_on_c, 6, 66, 96
1, 20388, Note_off_c, 0, 62, 0
1, 20388, Note_on_c, 0, 60, 80
1, 20388, Note_off_c, 1, 57, 0
1, 20388, Note_on_c, 1, 55, 80
1, 20388, Note_off_c, 2, 54, 0
1, 20388, Note_on_c, 2, 52, 80
1, 20388, Note_off_c, 6, 66, 0
1, 20388, Note_on_c, 6, 67, 96
1, 20400, Note_off_c, 0, 60, 0
1, 20400, Note_on_c, 0, 62, 80
1, 20400, Note_off_c, 1, 55, 0
1, 20400, Note_on_c, 1, 57, 80
1, 20400, Note_off_c, 2, 52, 0
1, 20400, Note_on_c, 2, 54, 80
1, 20400, Note_off_c, 6, 67, 0
1, 20400, Note_on_c, 6, 66, 96
1, 20410, Note_off_c, 6, 66, 0
1, 20412, Note_on_c, 5, 72, 96
1, 20421, Note_off_c, 0, 62, 0
1, 20421, Note_off_c, 1, 57, 0
1, 20421, Note_off_c, 2, 54, 0
1, 20424, Note_on_c, 3, 50, 80
1, 20424, Note_on_c, 4, 38, 80
1, 20424, Note_off_c, 5, 72, 0
1, 20424, Note_on_c, 5, 81, 96
1, 20436, Note_off_c, 5, 81, 0
1, 20436, Note_on_c, 5, 72, 96
1, 20445, Note_off_c, 3, 50, 0
1, 20445, Note_off_c, 4, 38, 0
1, 20446, Note_off_c, 5, 72, 0
1, 20448, Note_on_c, 3, 55, 80
1, 20448, Note_on_c, 4, 43, 80
1, 20448, Note_on_c, 6, 67, 96
1, 20460, Note_off_c, 6, 67, 0
1, 20460, Note_on_c, 6, 70, 96
1, 20469, Note_off_c, 3, 55, 0
1, 20469, Note_off_c, 4, 43, 0
1, 20472, Note_on_c, 3, 54, 80
1, 20472, Note_on_c, 4, 42, 80
1, 20472, Note_on_c, 5, 74, 96
1, 20472, Note_off_c, 6, 70, 0
1, 20482, Note_off_c, 5, 74, 0
1, 20484, Note_on_c, 5, 79, 96
1, 20493, Note_off_c, 3, 54, 0
1, 20493, Note_off_c, 4, 42, 0
1, 20494, Note_off_c, 5, 79, 0
1, 20496, Note_on_c, 3, 55, 80
1, 20496, Note_on_c, 4, 43, 80
1, 20496, Note_on_c, 5, 82, 96
1, 20506, Note_off_c, 5, 82, 0
1, 20508, Note_on_c, 5, 79, 96
1, 20517, Note_off_c, 3, 55, 0
1, 20517, Note_off_c, 4, 43, 0
1, 20518, Note_off_c, 5, 79, 0
1, 20520, Note_on_c, 3, 57, 80
1, 20520, Note_on_c, 4, 45, 80
1, 20520, Note_on_c, 5, 74, 96
1, 20530, Note_off_c, 5, 74, 0
1, 20532, Note_on_c, 6, 70, 96
1, 20541, Note_off_c, 3, 57, 0
1, 20541, Note_off_c, 4, 45, 0
1, 20542, Note_off_c, 6, 70, 0
1, 20544, Note_on_c, 3, 58, 80
1, 20544, Note_on_c, 4, 46, 80
1, 20544, Note_on_c, 6, 67, 96
1, 20550, Note_off_c, 6, 67, 0
1, 20550, Note_on_c, 6, 69, 96
1, 20556, Note_off_c, 6, 69, 0
1, 20556, Note_on_c, 6, 70, 96
1, 20562, Note_off_c, 6, 70, 0
1, 20562, Note_on_c, 6, 72, 96
1, 20565, Note_off_c, 3, 58, 0
1, 20565, Note_off_c, 4, 46, 0
1, 20568, Note_on_c, 3, 60, 80
1, 20568, Note_on_c, 4, 48, 80
1, 20568, Note_on_c, 5, 74, 96
1, 20568, Note_off_c, 6, 72, 0
1, 20574, Note_off_c, 5, 74, 0
1, 20574, Note_on_c, 5, 76, 96
1, 20580, Note_off_c, 5, 76, 0
1, 20580, Note_on_c, 5, 78, 96
1, 20586, Note_off_c, 5, 78, 0
1, 20586, Note_on_c, 5, 79, 96
1, 20589, Note_off_c, 3, 60, 0
1, 20589, Note_off_c, 4, 48, 0
1, 20591, Note_off_c, 5, 79, 0
1, 20592, Note_on_c, 3, 62, 80
1, 20592, Note_on_c, 4, 50, 80
1, 20592, Note_on_c, 6, 62, 96
1, 20604, Note_off_c, 6, 62, 0
1, 20604, Note_on_c, 6, 69, 96
1, 20616, Note_on_c, 0, 69, 80
1, 20616, Note_on_c, 1, 69, 80
1, 20616, Note_on_c, 2, 69, 80
1, 20616, Note_on_c, 5, 74, 96
1, 20616, Note_off_c, 6, 69, 0
1, 20626, Note_off_c, 0, 69, 0
1, 20626, Note_off_c, 1, 69, 0
1, 20626, Note_off_c, 2, 69, 0
1, 20628, Note_on_c, 0, 70, 80
1, 20628, Note_on_c, 1, 70, 80
1, 20628, Note_on_c, 2, 70, 80
1, 20628, Note_off_c, 5, 74, 0
1, 20628, Note_on_c, 5, 82, 96
1, 20634, Note_off_c, 3, 62, 0
1, 20634, Note_off_c, 4, 50, 0
1, 20638, Note_off_c, 0, 70, 0
1, 20638, Note_off_c, 1, 70, 0
1, 20638, Note_off_c, 2, 70, 0
1, 20640, Note_on_c, 0, 72, 80
1, 20640, Note_on_c, 1, 72, 80
1, 20640, Note_on_c, 2, 72, 80
1, 20640, Note_on_c, 3, 50, 80
1, 20640, Note_on_c, 4, 38, 80
1, 20640, Note_off_c, 5, 82, 0
1, 20640, Note_on_c, 5, 81, 96
1, 20652, Note_off_c, 5, 81, 0
1, 20652, Note_on_c, 5, 79, 96
1, 20661, Note_off_c, 0, 72, 0
1, 20661, Note_off_c, 1, 72, 0
1, 20661, Note_off_c, 2, 72, 0
1, 20664, Note_on_c, 0, 70, 80
1, 20664, Note_on_c, 1, 70, 80
1, 20664, Note_on_c, 2, 70, 80
1, 20664, Note_off_c, 5, 79, 0
1, 20664, Note_on_c, 5, 74, 96
1, 20676, Note_off_c, 5, 74, 0
1, 20676, Note_on_c, 5, 79, 96
1, 20682, Note_off_c, 3, 50, 0
1, 20682, Note_off_c, 4, 38, 0
1, 20685, Note_off_c, 0, 70, 0
1, 20685, Note_off_c, 1, 70, 0
1, 20685, Note_off_c, 2, 70, 0
1, 20688, Note_on_c, 0, 69, 80
1, 20688, Note_on_c, 1, 69, 80
1, 20688, Note_on_c, 2, 69, 80
1, 20688, Note_off_c, 5, 79, 0
1, 20688, Note_on_c, 5, 86, 96
1, 20700, Note_off_c, 5, 86, 0
1, 20700, Note_on_c, 5, 79, 96
1, 20709, Note_off_c, 0, 69, 0
1, 20709, Note_off_c, 1, 69, 0
1, 20709, Note_off_c, 2, 69, 0
1, 20712, Note_on_c, 0, 67, 80
1, 20712, Note_on_c, 1, 67, 80
1, 20712, Note_on_c, 2, 67, 80
1, 20712, Note_off_c, 5, 79, 0
1, 20712, Note_on_c, 5, 74, 96
1, 20724, Note_off_c, 5, 74, 0
1, 20724, Note_on_c, 5, 79, 96
1, 20733, Note_off_c, 0, 67, 0
1, 20733, Note_off_c, 1, 67, 0
1, 20733, Note_off_c, 2, 67, 0
1, 20734, Note_off_c, 5, 79, 0
1, 20736, Note_on_c, 0, 65, 80
1, 20736, Note_on_c, 1, 65, 80
1, 20736, Note_on_c, 2, 65, 80
1, 20736, Note_on_c, 6, 62, 96
1, 20748, Note_off_c, 6, 62, 0
1, 20748, Note_on_c, 6, 69, 96
1, 20760, Note_on_c, 3, 57, 80
1, 20760, Note_on_c, 4, 45, 80
1, 20760, Note_on_c, 5, 74, 96
1, 20760, Note_off_c, 6, 69, 0
1, 20770, Note_off_c, 3, 57, 0
1, 20770, Note_off_c, 4, 45, 0
1, 20772, Note_on_c, 3, 55, 80
1, 20772, Note_on_c, 4, 43, 80
1, 20772, Note_off_c, 5, 74, 0
1, 20772, Note_on_c, 5, 77, 96
1, 20778, Note_off_c, 0, 65, 0
1, 20778, Note_off_c, 1, 65, 0
1, 20778, Note_off_c, 2, 65, 0
1, 20782, Note_off_c, 3, 55, 0
1, 20782, Note_off_c, 4, 43, 0
1, 20784, Note_on_c, 0, 74, 80
1, 20784, Note_on_c, 1, 74, 80
1, 20784, Note_on_c, 2, 74, 80
1, 20784, Note_on_c, 3, 53, 80
1, 20784, Note_on_c, 4, 41, 80
1, 20784, Note_off_c, 5, 77, 0
1, 20784, Note_on_c, 5, 81, 96
1, 20796, Note_off_c, 5, 81, 0
1, 20796, Note_on_c, 5, 77, 96
1, 20805, Note_off_c, 3, 53, 0
1, 20805, Note_off_c, 4, 41, 0
1, 20808, Note_on_c, 3, 51, 80
1, 20808, Note_on_c, 4, 39, 80
1, 20808, Note_off_c, 5, 77, 0
1, 20808, Note_on_c, 5, 74, 96
1, 20818, Note_off_c, 5, 74, 0
1, 20820, Note_on_c, 6, 69, 96
1, 20826, Note_off_c, 0, 74, 0
1, 20826, Note_off_c, 1, 74, 0
1, 20826, Note_off_c, 2, 74, 0
1, 20829, Note_off_c, 3, 51, 0
1, 20829, Note_off_c, 4, 39, 0
1, 20830, Note_off_c, 6, 69, 0
1, 20832, Note_on_c, 3, 50, 80
1, 20832, Note_on_c, 4, 38, 80
1, 20832, Note_on_c, 6, 62, 96
1, 20838, Note_off_c, 6, 62, 0
1, 20838, Note_on_c, 6, 64, 96
1, 20844, Note_off_c, 6, 64, 0
1, 20844, Note_on_c, 6, 65, 96
1, 20850, Note_off_c, 6, 65, 0
1, 20850, Note_on_c, 6, 67, 96
1, 20853, Note_off_c, 3, 50, 0
1, 20853, Note_off_c, 4, 38, 0
1, 20856, Note_on_c, 3, 48, 80
1, 20856, Note_on_c, 4, 36, 80
1, 20856, Note_on_c, 5, 69, 96
1, 20856, Note_off_c, 6, 67, 0
1, 20862, Note_off_c, 5, 69, 0
1, 20862, Note_on_c, 5, 71, 96
1, 20868, Note_off_c, 5, 71, 0
1, 20868, Note_on_c, 5, 72, 96
1, 20874, Note_off_c, 5, 72, 0
1, 20874, Note_on_c, 5, 74, 96
1, 20877, Note_off_c, 3, 48, 0
1, 20877, Note_off_c, 4, 36, 0
1, 20879, Note_off_c, 5, 74, 0
1, 20880, Note_on_c, 3, 47, 80
1, 20880, Note_on_c, 4, 35, 80
1, 20880, Note_on_c, 6, 59, 96
1, 20892, Note_off_c, 6, 59, 0
1, 20892, Note_on_c, 6, 67, 96
1, 20904, Note_on_c, 0, 67, 80
1, 20904, Note_on_c, 1, 67, 80
1, 20904, Note_on_c, 2, 67, 80
1, 20904, Note_on_c, 5, 74, 96
1, 20904, Note_off_c, 6, 67, 0
1, 20914, Note_off_c, 0, 67, 0
1, 20914, Note_off_c, 1, 67, 0
1, 20914, Note_off_c, 2, 67, 0
1, 20916, Note_on_c, 0, 69, 80
1, 20916, Note_on_c, 1, 69, 80
1, 20916, Note_on_c, 2, 69, 80
1, 20916, Note_off_c, 5, 74, 0
1, 20916, Note_on_c, 5, 77, 96
1, 20922, Note_off_c, 3, 47, 0
1, 20922, Note_off_c, 4, 35, 0
1, 20926, Note_off_c, 0, 69, 0
1, 20926, Note_off_c, 1, 69, 0
1, 20926, Note_off_c, 2, 69, 0
1, 20928, Note_on_c, 0, 71, 80
1, 20928, Note_on_c, 1, 71, 80
1, 20928, Note_on_c, 2, 71, 80
1, 20928, Note_on_c, 3, 55, 80
1, 20928, Note_on_c, 4, 43, 80
1, 20928, Note_off_c, 5, 77, 0
1, 20928, Note_on_c, 5, 79, 96
1, 20940, Note_off_c, 5, 79, 0
1, 20940, Note_on_c, 5, 77, 96
1, 20949, Note_off_c, 0, 71, 0
1, 20949, Note_off_c, 1, 71, 0
1, 20949, Note_off_c, 2, 71, 0
1, 20952, Note_on_c, 0, 69, 80
1, 20952, Note_on_c, 1, 69, 80
1, 20952, Note_on_c, 2, 69, 80
1, 20952, Note_off_c, 5, 77, 0
1, 20952, Note_on_c, 5, 74, 96
1, 20964, Note_off_c, 5, 74, 0
1, 20964, Note_on_c, 5, 77, 96
1, 20970, Note_off_c, 3, 55, 0
1, 20970, Note_off_c, 4, 43, 0
1, 20973, Note_off_c, 0, 69, 0
1, 20973, Note_off_c, 1, 69, 0
1, 20973, Note_off_c, 2, 69, 0
1, 20976, Note_on_c, 0, 67, 80
1, 20976, Note_on_c, 1, 67, 80
1, 20976, Note_on_c, 2, 67, 80
1, 20976, Note_off_c, 5, 77, 0
1, 20976, Note_on_c, 5, 86, 96
1, 20988, Note_off_c, 5, 86, 0
1, 20988, Note_on_c, 5, 77, 96
1, 20997, Note_off_c, 0, 67, 0
1, 20997, Note_off_c, 1, 67, 0
1, 20997, Note_off_c, 2, 67, 0
1, 21000, Note_on_c, 0, 65, 80
1, 21000, Note_on_c, 1, 65, 80
1, 21000, Note_on_c, 2, 65, 80
1, 21000, Note_off_c, 5, 77, 0
1, 21000, Note_on_c, 5, 74, 96
1, 21012, Note_off_c, 5, 74, 0
1, 21012, Note_on_c, 5, 77, 96
1, 21021, Note_off_c, 0, 65, 0
1, 21021, Note_off_c, 1, 65, 0
1, 21021, Note_off_c, 2, 65, 0
1, 21022, Note_off_c, 5, 77, 0
1, 21024, Note_on_c, 0, 63, 80
1, 21024, Note_on_c, 1, 63, 80
1, 21024, Note_on_c, 2, 63, 80
1, 21024, Note_on_c, 6, 60, 96
1, 21036, Note_off_c, 6, 60, 0
1, 21036, Note_on_c, 6, 67, 96
1, 21048, Note_on_c, 3, 55, 80
1, 21048, Note_on_c, 4, 43, 80
1, 21048, Note_on_c, 5, 72, 96
1, 21048, Note_off_c, 6, 67, 0
1, 21058, Note_off_c, 3, 55, 0
1, 21058, Note_off_c, 4, 43, 0
1, 21060, Note_on_c, 3, 53, 80
1, 21060, Note_on_c, 4, 41, 80
1, 21060, Note_off_c, 5, 72, 0
1, 21060, Note_on_c, 5, 75, 96
1, 21066, Note_off_c, 0, 63, 0
1, 21066, Note_off_c, 1, 63, 0
1, 21066, Note_off_c, 2, 63, 0
1, 21070, Note_off_c, 3, 53, 0
1, 21070, Note_off_c, 4, 41, 0
1, 21072, Note_on_c, 0, 72, 80
1, 21072, Note_on_c, 1, 72, 80
1, 21072, Note_on_c, 2, 72, 80
1, 21072, Note_on_c, 3, 51, 80
1, 21072, Note_on_c, 4, 39, 80
1, 21072, Note_off_c, 5, 75, 0
1, 21072, Note_on_c, 5, 79, 96
1, 21084, Note_off_c, 5, 79, 0
1, 21084, Note_on_c, 5, 75, 96
1, 21093, Note_off_c, 3, 51, 0
1, 21093, Note_off_c, 4, 39, 0
1, 21096, Note_on_c, 3, 50, 80
1, 21096, Note_on_c, 4, 38, 80
1, 21096, Note_off_c, 5, 75, 0
1, 21096, Note_on_c, 5, 72, 96
1, 21106, Note_off_c, 5, 72, 0
1, 21108, Note_on_c, 6, 67, 96
1, 21114, Note_off_c, 0, 72, 0
1, 21114, Note_off_c, 1, 72, 0
1, 21114, Note_off_c, 2, 72, 0
1, 21117, Note_off_c, 3, 50, 0
1, 21117, Note_off_c, 4, 38, 0
1, 21118, Note_off_c, 6, 67, 0
1, 21120, Note_on_c, 3, 48, 80
1, 21120, Note_on_c, 4, 36, 80
1, 21120, Note_on_c, 6, 60, 96
1, 21126, Note_off_c, 6, 60, 0
1, 21126, Note_on_c, 6, 62, 96
1, 21132, Note_off_c, 6, 62, 0
1, 21132, Note_on_c, 6, 63, 96
1, 21138, Note_off_c, 6, 63, 0
1, 21138, Note_on_c, 6, 65, 96
1, 21141, Note_off_c, 3, 48, 0
1, 21141, Note_off_c, 4, 36, 0
1, 21144, Note_on_c, 3, 46, 80
1, 21144, Note_on_c, 4, 34, 80
1, 21144, Note_on_c, 5, 67, 96
1, 21144, Note_off_c, 6, 65, 0
1, 21150, Note_off_c, 5, 67, 0
1, 21150, Note_on_c, 5, 69, 96
1, 21156, Note_off_c, 5, 69, 0
1, 21156, Note_on_c, 5, 70, 96
1, 21162, Note_off_c, 5, 70, 0
1, 21162, Note_on_c, 5, 72, 96
1, 21165, Note_off_c, 3, 46, 0
1, 21165, Note_off_c, 4, 34, 0
1, 21167, Note_off_c, 5, 72, 0
1, 21168, Note_on_c, 3, 45, 80
1, 21168, Note_on_c, 4, 33, 80
1, 21168, Note_on_c, 6, 57, 96
1, 21180, Note_off_c, 6, 57, 0
1, 21180, Note_on_c, 6, 65, 96
1, 21192, Note_on_c, 0, 65, 80
1, 21192, Note_on_c, 1, 65, 80
1, 21192, Note_on_c, 2, 65, 80
1, 21192, Note_on_c, 5, 72, 96
1, 21192, Note_off_c, 6, 65, 0
1, 21202, Note_off_c, 0, 65, 0
1, 21202, Note_off_c, 1, 65, 0
1, 21202, Note_off_c, 2, 65, 0
1, 21204, Note_on_c, 0, 67, 80
1, 21204, Note_on_c, 1, 67, 80
1, 21204, Note_on_c, 2, 67, 80
1, 21204, Note_off_c, 5, 72, 0
1, 21204, Note_on_c, 5, 75, 96
1, 21210, Note_off_c, 3, 45, 0
1, 21210, Note_off_c, 4, 33, 0
1, 21214, Note_off_c, 0, 67, 0
1, 21214, Note_off_c, 1, 67, 0
1, 21214, Note_off_c, 2, 67, 0
1, 21216, Note_on_c, 0, 69, 80
1, 21216, Note_on_c, 1, 69, 80
1, 21216, Note_on_c, 2, 69, 80
1, 21216, Note_on_c, 3, 53, 80
1, 21216, Note_on_c, 4, 41, 80
1, 21216, Note_off_c, 5, 75, 0
1, 21216, Note_on_c, 5, 77, 96
1, 21228, Note_off_c, 5, 77, 0
1, 21228, Note_on_c, 5, 75, 96
1, 21237, Note_off_c, 0, 69, 0
1, 21237, Note_off_c, 1, 69, 0
1, 21237, Note_off_c, 2, 69, 0
1, 21240, Note_on_c, 0, 67, 80
1, 21240, Note_on_c, 1, 67, 80
1, 21240, Note_on_c, 2, 67, 80
1, 21240, Note_off_c, 5, 75, 0
1, 21240, Note_on_c, 5, 72, 96
1, 21252, Note_off_c, 5, 72, 0
1, 21252, Note_on_c, 5, 75, 96
1, 21258, Note_off_c, 3, 53, 0
1, 21258, Note_off_c, 4, 41, 0
1, 21261, Note_off_c, 0, 67, 0
1, 21261, Note_off_c, 1, 67, 0
1, 21261, Note_off_c, 2, 67, 0
1, 21264, Note_on_c, 0, 65, 80
1, 21264, Note_on_c, 1, 65, 80
1, 21264, Note_on_c, 2, 65, 80
1, 21264, Note_off_c, 5, 75, 0
1, 21264, Note_on_c, 5, 84, 96
1, 21276, Note_off_c, 5, 84, 0
1, 21276, Note_on_c, 5, 75, 96
1, 21285, Note_off_c, 0, 65, 0
1, 21285, Note_off_c, 1, 65, 0
1, 21285, Note_off_c, 2, 65, 0
1, 21288, Note_on_c, 0, 63, 80
1, 21288, Note_on_c, 1, 63, 80
1, 21288, Note_on_c, 2, 63, 80
1, 21288, Note_off_c, 5, 75, 0
1, 21288, Note_on_c, 5, 72, 96
1, 21300, Note_off_c, 5, 72, 0
1, 21300, Note_on_c, 5, 75, 96
1, 21309, Note_off_c, 0, 63, 0
1, 21309, Note_off_c, 1, 63, 0
1, 21309, Note_off_c, 2, 63, 0
1, 21310, Note_off_c, 5, 75, 0
1, 21312, Note_on_c, 0, 62, 80
1, 21312, Note_on_c, 1, 62, 80
1, 21312, Note_on_c, 2, 62, 80
1, 21312, Note_on_c, 6, 58, 96
1, 21324, Note_off_c, 6, 58, 0
1, 21324, Note_on_c, 6, 65, 96
1, 21336, Note_on_c, 3, 53, 80
1, 21336, Note_on_c, 4, 41, 80
1, 21336, Note_on_c, 5, 70, 96
1, 21336, Note_off_c, 6, 65, 0
1, 21346, Note_off_c, 3, 53, 0
1, 21346, Note_off_c, 4, 41, 0
1, 21348, Note_on_c, 3, 51, 80
1, 21348, Note_on_c, 4, 39, 80
1, 21348, Note_off_c, 5, 70, 0
1, 21348, Note_on_c, 5, 74, 96
1, 21354, Note_off_c, 0, 62, 0
1, 21354, Note_off_c, 1, 62, 0
1, 21354, Note_off_c, 2, 62, 0
1, 21358, Note_off_c, 3, 51, 0
1, 21358, Note_off_c, 4, 39, 0
1, 21360, Note_on_c, 0, 70, 80
1, 21360, Note_on_c, 1, 70, 80
1, 21360, Note_on_c, 2, 70, 80
1, 21360, Note_on_c, 3, 50, 80
1, 21360, Note_on_c, 4, 38, 80
1, 21360, Note_off_c, 5, 74, 0
1, 21360, Note_on_c, 5, 77, 96
1, 21372, Note_off_c, 5, 77, 0
1, 21372, Note_on_c, 5, 74, 96
1, 21381, Note_off_c, 3, 50, 0
1, 21381, Note_off_c, 4, 38, 0
1, 21384, Note_on_c, 3, 48, 80
1, 21384, Note_on_c, 4, 36, 80
1, 21384, Note_off_c, 5, 74, 0
1, 21384, Note_on_c, 5, 70, 96
1, 21394, Note_off_c, 5, 70, 0
1, 21396, Note_on_c, 6, 65, 96
1, 21402, Note_off_c, 0, 70, 0
1, 21402, Note_off_c, 1, 70, 0
1, 21402, Note_off_c, 2, 70, 0
1, 21405, Note_off_c, 3, 48, 0
1, 21405, Note_off_c, 4, 36, 0
1, 21406, Note_off_c, 6, 65, 0
1, 21408, Note_on_c, 3, 46, 80
1, 21408, Note_on_c, 4, 34, 80
1, 21408, Note_on_c, 6, 58, 96
1, 21414, Note_off_c, 6, 58, 0
1, 21414, Note_on_c, 6, 60, 96
1, 21420, Note_off_c, 6, 60, 0
1, 21420, Note_on_c, 6, 62, 96
1, 21426, Note_off_c, 6, 62, 0
1, 21426, Note_on_c, 6, 63, 96
1, 21429, Note_off_c, 3, 46, 0
1, 21429, Note_off_c, 4, 34, 0
1, 21432, Note_on_c, 3, 45, 80
1, 21432, Note_on_c, 4, 33, 80
1, 21432, Note_on_c, 5, 65, 96
1, 21432, Note_off_c, 6, 63, 0
1, 21438, Note_off_c, 5, 65, 0
1, 21438, Note_on_c, 5, 67, 96
1, 21444, Note_off_c, 5, 67, 0
1, 21444, Note_on_c, 5, 69, 96
1, 21450, Note_off_c, 5, 69, 0
1, 21450, Note_on_c, 5, 70, 96
1, 21453, Note_off_c, 3, 45, 0
1, 21453, Note_off_c, 4, 33, 0
1, 21455, Note_off_c, 5, 70, 0
1, 21456, Note_on_c, 3, 43, 80
1, 21456, Note_on_c, 4, 31, 80
1, 21456, Note_on_c, 6, 67, 96
1, 21456, Note_on_c, 6, 58, 96
1, 21466, Note_off_c, 6, 67, 0
1, 21466, Note_off_c, 6, 58, 0
1, 21468, Note_on_c, 5, 77, 96
1, 21478, Note_off_c, 5, 77, 0
1, 21480, Note_on_c, 5, 68, 96
1, 21490, Note_off_c, 5, 68, 0
1, 21492, Note_on_c, 5, 77, 96
1, 21498, Note_off_c, 3, 43, 0
1, 21498, Note_off_c, 4, 31, 0
1, 21502, Note_off_c, 5, 77, 0
1, 21504, Note_on_c, 3, 48, 80
1, 21504, Note_on_c, 4, 36, 80
1, 21504, Note_on_c, 5, 67, 96
1, 21514, Note_off_c, 5, 67, 0
1, 21516, Note_on_c, 5, 75, 96
1, 21526, Note_off_c, 5, 75, 0
1, 21528, Note_on_c, 5, 72, 96
1, 21538, Note_off_c, 5, 72, 0
1, 21540, Note_on_c, 5, 75, 96
1, 21546, Note_off_c, 3, 48, 0
1, 21546, Note_off_c, 4, 36, 0
1, 21550, Note_off_c, 5, 75, 0
1, 21552, Note_on_c, 5, 70, 96
1, 21552, Note_on_c, 6, 67, 96
1, 21552, Note_on_c, 6, 60, 96
1, 21562, Note_off_c, 5, 70, 0
1, 21562, Note_off_c, 6, 67, 0
1, 21562, Note_off_c, 6, 60, 0
1, 21564, Note_on_c, 5, 75, 96
1, 21574, Note_off_c, 5, 75, 0
1, 21576, Note_on_c, 5, 72, 96
1, 21586, Note_off_c, 5, 72, 0
1, 21588, Note_on_c, 5, 75, 96
1, 21598, Note_off_c, 5, 75, 0
1, 21600, Note_on_c, 3, 45, 80
1, 21600, Note_on_c, 4, 33, 80
1, 21600, Note_on_c, 6, 65, 96
1, 21600, Note_on_c, 6, 57, 96
1, 21610, Note_off_c, 6, 65, 0
1, 21610, Note_off_c, 6, 57, 0
1, 21612, Note_on_c, 5, 75, 96
1, 21622, Note_off_c, 5, 75, 0
1, 21624, Note_on_c, 5, 67, 96
1, 21634, Note_off_c, 5, 67, 0
1, 21636, Note_on_c, 5, 75, 96
1, 21642, Note_off_c, 3, 45, 0
1, 21642, Note_off_c, 4, 33, 0
1, 21646, Note_off_c, 5, 75, 0
1, 21648, Note_on_c, 3, 46, 80
1, 21648, Note_on_c, 4, 34, 80
1, 21648, Note_on_c, 5, 65, 96
1, 21658, Note_off_c, 5, 65, 0
1, 21660, Note_on_c, 5, 74, 96
1, 21670, Note_off_c, 5, 74, 0
1, 21672, Note_on_c, 5, 70, 96
1, 21682, Note_off_c, 5, 70, 0
1, 21684, Note_on_c, 5, 74, 96
1, 21690, Note_off_c, 3, 46, 0
1, 21690, Note_off_c, 4, 34, 0
1, 21694, Note_off_c, 5, 74, 0
1, 21696, Note_on_c, 5, 68, 96
1, 21696, Note_on_c, 6, 65, 96
1, 21696, Note_on_c, 6, 58, 96
1, 21706, Note_off_c, 5, 68, 0
1, 21706, Note_off_c, 6, 65, 0
1, 21706, Note_off_c, 6, 58, 0
1, 21708, Note_on_c, 5, 74, 96
1, 21718, Note_off_c, 5, 74, 0
1, 21720, Note_on_c, 5, 70, 96
1, 21730, Note_off_c, 5, 70, 0
1, 21732, Note_on_c, 5, 74, 96
1, 21742, Note_off_c, 5, 74, 0
1, 21744, Note_on_c, 3, 43, 80
1, 21744, Note_on_c, 4, 31, 80
1, 21744, Note_on_c, 6, 63, 96
1, 21744, Note_on_c, 6, 55, 96
1, 21754, Note_off_c, 6, 63, 0
1, 21754, Note_off_c, 6, 55, 0
1, 21756, Note_on_c, 5, 74, 96
1, 21766, Note_off_c, 5, 74, 0
1, 21768, Note_on_c, 5, 65, 96
1, 21778, Note_off_c, 5, 65, 0
1, 21780, Note_on_c, 5, 74, 96
1, 21786, Note_off_c, 3, 43, 0
1, 21786, Note_off_c, 4, 31, 0
1, 21790, Note_off_c, 5, 74, 0
1, 21792, Note_on_c, 3, 45, 80
1, 21792, Note_on_c, 4, 33, 80
1, 21792, Note_on_c, 5, 63, 96
1, 21792, Note_on_c, 6, 57, 96
1, 21802, Note_off_c, 5, 63, 0
1, 21804, Note_on_c, 5, 72, 96
1, 21813, Note_off_c, 6, 57, 0
1, 21814, Note_off_c, 5, 72, 0
1, 21816, Note_on_c, 5, 69, 96
1, 21816, Note_on_c, 6, 60, 96
1, 21826, Note_off_c, 5, 69, 0
1, 21828, Note_on_c, 5, 72, 96
1, 21834, Note_off_c, 3, 45, 0
1, 21834, Note_off_c, 4, 33, 0
1, 21837, Note_off_c, 6, 60, 0
1, 21838, Note_off_c, 5, 72, 0
1, 21840, Note_on_c, 5, 67, 96
1, 21840, Note_on_c, 6, 58, 96
1, 21850, Note_off_c, 5, 67, 0
1, 21852, Note_on_c, 5, 72, 96
1, 21861, Note_off_c, 6, 58, 0
1, 21862, Note_off_c, 5, 72, 0
1, 21864, Note_on_c, 5, 69, 96
1, 21864, Note_on_c, 6, 60, 96
1, 21874, Note_off_c, 5, 69, 0
1, 21876, Note_on_c, 5, 72, 96
1, 21885, Note_off_c, 6, 60, 0
1, 21886, Note_off_c, 5, 72, 0
1, 21888, Note_on_c, 3, 41, 80
1, 21888, Note_on_c, 4, 29, 80
1, 21888, Note_on_c, 6, 62, 96
1, 21888, Note_on_c, 6, 53, 96
1, 21898, Note_off_c, 6, 62, 0
1, 21898, Note_off_c, 6, 53, 0
1, 21900, Note_on_c, 5, 72, 96
1, 21910, Note_off_c, 5, 72, 0
1, 21912, Note_on_c, 5, 63, 96
1, 21922, Note_off_c, 5, 63, 0
1, 21924, Note_on_c, 5, 72, 96
1, 21930, Note_off_c, 3, 41, 0
1, 21930, Note_off_c, 4, 29, 0
1, 21934, Note_off_c, 5, 72, 0
1, 21936, Note_on_c, 3, 43, 80
1, 21936, Note_on_c, 4, 31, 80
1, 21936, Note_on_c, 5, 62, 96
1, 21936, Note_on_c, 6, 55, 96
1, 21946, Note_off_c, 5, 62, 0
1, 21948, Note_on_c, 5, 70, 96
1, 21957, Note_off_c, 6, 55, 0
1, 21958, Note_off_c, 5, 70, 0
1, 21960, Note_on_c, 5, 67, 96
1, 21960, Note_on_c, 6, 58, 96
1, 21970, Note_off_c, 5, 67, 0
1, 21972, Note_on_c, 5, 70, 96
1, 21978, Note_off_c, 3, 43, 0
1, 21978, Note_off_c, 4, 31, 0
1, 21981, Note_off_c, 6, 58, 0
1, 21982, Note_off_c, 5, 70, 0
1, 21984, Note_on_c, 5, 65, 96
1, 21984, Note_on_c, 6, 57, 96
1, 21994, Note_off_c, 5, 65, 0
1, 21996, Note_on_c, 5, 70, 96
1, 22005, Note_off_c, 6, 57, 0
1, 22006, Note_off_c, 5, 70, 0
1, 22008, Note_on_c, 5, 67, 96
1, 22008, Note_on_c, 6, 58, 96
1, 22018, Note_off_c, 5, 67, 0
1, 22020, Note_on_c, 5, 70, 96
1, 22029, Note_off_c, 6, 58, 0
1, 22030, Note_off_c, 5, 70, 0
1, 22032, Note_on_c, 3, 48, 80
1, 22032, Note_on_c, 4, 36, 80
1, 22032, Note_on_c, 5, 63, 96
1, 22032, Note_on_c, 6, 48, 96
1, 22042, Note_off_c, 5, 63, 0
1, 22044, Note_on_c, 5, 70, 96
1, 22053, Note_off_c, 3, 48, 0
1, 22053, Note_off_c, 4, 36, 0
1, 22053, Note_off_c, 6, 48, 0
1, 22054, Note_off_c, 5, 70, 0
1, 22056, Note_on_c, 3, 50, 80
1, 22056, Note_on_c, 4, 38, 80
1, 22056, Note_on_c, 5, 65, 96
1, 22056, Note_on_c, 6, 50, 96
1, 22066, Note_off_c, 5, 65, 0
1, 22068, Note_on_c, 5, 70, 96
1, 22077, Note_off_c, 3, 50, 0
1, 22077, Note_off_c, 4, 38, 0
1, 22077, Note_off_c, 6, 50, 0
1, 22078, Note_off_c, 5, 70, 0
1, 22080, Note_on_c, 3, 51, 80
1, 22080, Note_on_c, 4, 39, 80
1, 22080, Note_on_c, 5, 67, 96
1, 22080, Note_on_c, 6, 51, 96
1, 22090, Note_off_c, 5, 67, 0
1, 22092, Note_on_c, 5, 70, 96
1, 22101, Note_off_c, 3, 51, 0
1, 22101, Note_off_c, 4, 39, 0
1, 22101, Note_off_c, 6, 51, 0
1, 22102, Note_off_c, 5, 70, 0
1, 22104, Note_on_c, 3, 53, 80
1, 22104, Note_on_c, 4, 41, 80
1, 22104, Note_on_c, 5, 65, 96
1, 22104, Note_on_c, 6, 53, 96
1, 22114, Note_off_c, 5, 65, 0
1, 22116, Note_on_c, 5, 70, 96
1, 22125, Note_off_c, 3, 53, 0
1, 22125, Note_off_c, 4, 41, 0
1, 22125, Note_off_c, 6, 53, 0
1, 22126, Note_off_c, 5, 70, 0
1, 22128, Note_on_c, 3, 55, 80
1, 22128, Note_on_c, 4, 43, 80
1, 22128, Note_on_c, 5, 63, 96
1, 22128, Note_on_c, 6, 55, 96
1, 22138, Note_off_c, 5, 63, 0
1, 22140, Note_on_c, 5, 70, 96
1, 22149, Note_off_c, 3, 55, 0
1, 22149, Note_off_c, 4, 43, 0
1, 22149, Note_off_c, 6, 55, 0
1, 22150, Note_off_c, 5, 70, 0
1, 22152, Note_on_c, 3, 51, 80
1, 22152, Note_on_c, 4, 39, 80
1, 22152, Note_on_c, 5, 62, 96
1, 22152, Note_on_c, 6, 51, 96
1, 22162, Note_off_c, 5, 62, 0
1, 22164, Note_on_c, 5, 70, 96
1, 22173, Note_off_c, 3, 51, 0
1, 22173, Note_off_c, 4, 39, 0
1, 22173, Note_off_c, 6, 51, 0
1, 22174, Note_off_c, 5, 70, 0
1, 22176, Note_on_c, 3, 53, 80
1, 22176, Note_on_c, 4, 41, 80
1, 22176, Note_on_c, 5, 60, 96
1, 22176, Note_on_c, 6, 53, 96
1, 22186, Note_off_c, 5, 60, 0
1, 22188, Note_on_c, 5, 69, 96
1, 22197, Note_off_c, 6, 53, 0
1, 22198, Note_off_c, 5, 69, 0
1, 22200, Note_on_c, 5, 67, 96
1, 22200, Note_on_c, 6, 55, 96
1, 22210, Note_off_c, 5, 67, 0
1, 22212, Note_on_c, 5, 69, 96
1, 22218, Note_off_c, 3, 53, 0
1, 22218, Note_off_c, 4, 41, 0
1, 22221, Note_off_c, 6, 55, 0
1, 22222, Note_off_c, 5, 69, 0
1, 22224, Note_on_c, 3, 41, 80
1, 22224, Note_on_c, 4, 29, 80
1, 22224, Note_on_c, 5, 65, 96
1, 22224, Note_on_c, 6, 57, 96
1, 22234, Note_off_c, 5, 65, 0
1, 22236, Note_on_c, 5, 69, 96
1, 22245, Note_off_c, 6, 57, 0
1, 22246, Note_off_c, 5, 69, 0
1, 22248, Note_on_c, 5, 63, 96
1, 22248, Note_on_c, 6, 60, 96
1, 22258, Note_off_c, 5, 63, 0
1, 22260, Note_on_c, 5, 69, 96
1, 22266, Note_off_c, 3, 41, 0
1, 22266, Note_off_c, 4, 29, 0
1, 22269, Note_off_c, 6, 60, 0
1, 22270, Note_off_c, 5, 69, 0
1, 22272, Note_on_c, 3, 53, 80
1, 22272, Note_on_c, 4, 41, 80
1, 22272, Note_on_c, 5, 62, 96
1, 22272, Note_on_c, 6, 53, 96
1, 22282, Note_off_c, 5, 62, 0
1, 22284, Note_on_c, 5, 69, 96
1, 22293, Note_off_c, 6, 53, 0
1, 22294, Note_off_c, 5, 69, 0
1, 22296, Note_on_c, 5, 60, 96
1, 22296, Note_on_c, 6, 57, 96
1, 22306, Note_off_c, 5, 60, 0
1, 22308, Note_on_c, 5, 69, 96
1, 22314, Note_off_c, 3, 53, 0
1, 22314, Note_off_c, 4, 41, 0
1, 22317, Note_off_c, 6, 57, 0
1, 22318, Note_off_c, 5, 69, 0
1, 22320, Note_on_c, 3, 46, 80
1, 22320, Note_on_c, 4, 34, 80
1, 22320, Note_on_c, 5, 62, 96
1, 22320, Note_on_c, 6, 46, 96
1, 22330, Note_off_c, 5, 62, 0
1, 22332, Note_on_c, 5, 70, 96
1, 22342, Note_off_c, 5, 70, 0
1, 22344, Note_on_c, 5, 63, 96
1, 22354, Note_off_c, 5, 63, 0
1, 22356, Note_on_c, 5, 72, 96
1, 22362, Note_off_c, 3, 46, 0
1, 22362, Note_off_c, 4, 34, 0
1, 22362, Note_off_c, 6, 46, 0
1, 22366, Note_off_c, 5, 72, 0
1, 22368, Note_on_c, 5, 65, 96
1, 22378, Note_off_c, 5, 65, 0
1, 22380, Note_on_c, 5, 74, 96
1, 22390, Note_off_c, 5, 74, 0
1, 22392, Note_on_c, 3, 58, 80
1, 22392, Note_on_c, 4, 46, 80
1, 22392, Note_on_c, 5, 67, 96
1, 22392, Note_on_c, 6, 58, 96
1, 22402, Note_off_c, 5, 67, 0
1, 22404, Note_on_c, 5, 75, 96
1, 22413, Note_off_c, 3, 58, 0
1, 22413, Note_off_c, 4, 46, 0
1, 22413, Note_off_c, 6, 58, 0
1, 22414, Note_off_c, 5, 75, 0
1, 22416, Note_on_c, 3, 57, 80
1, 22416, Note_on_c, 4, 45, 80
1, 22416, Note_on_c, 5, 69, 96
1, 22416, Note_on_c, 6, 57, 96
1, 22426, Note_off_c, 5, 69, 0
1, 22428, Note_on_c, 5, 77, 96
1, 22437, Note_off_c, 3, 57, 0
1, 22437, Note_off_c, 4, 45, 0
1, 22437, Note_off_c, 6, 57, 0
1, 22438, Note_off_c, 5, 77, 0
1, 22440, Note_on_c, 3, 55, 80
1, 22440, Note_on_c, 4, 43, 80
1, 22440, Note_on_c, 5, 70, 96
1, 22440, Note_on_c, 6, 55, 96
1, 22450, Note_off_c, 5, 70, 0
1, 22452, Note_on_c, 5, 79, 96
1, 22461, Note_off_c, 3, 55, 0
1, 22461, Note_off_c, 4, 43, 0
1, 22461, Note_off_c, 6, 55, 0
1, 22462, Note_off_c, 5, 79, 0
1, 22464, Note_on_c, 3, 53, 80
1, 22464, Note_on_c, 4, 41, 80
1, 22464, Note_on_c, 5, 72, 96
1, 22464, Note_on_c, 6, 53, 96
1, 22474, Note_off_c, 5, 72, 0
1, 22476, Note_on_c, 5, 81, 96
1, 22485, Note_off_c, 3, 53, 0
1, 22485, Note_off_c, 4, 41, 0
1, 22485, Note_off_c, 6, 53, 0
1, 22486, Note_off_c, 5, 81, 0
1, 22488, Note_on_c, 3, 48, 80
1, 22488, Note_on_c, 4, 36, 80
1, 22488, Note_on_c, 5, 75, 96
1, 22488, Note_on_c, 6, 48, 96
1, 22498, Note_off_c, 3, 48, 0
1, 22498, Note_off_c, 4, 36, 0
1, 22498, Note_off_c, 5, 75, 0
1, 22498, Note_off_c, 6, 48, 0
1, 22500, Note_on_c, 3, 46, 80
1, 22500, Note_on_c, 4, 34, 80
1, 22500, Note_on_c, 5, 74, 96
1, 22500, Note_on_c, 6, 46, 96
1, 22510, Note_off_c, 3, 46, 0
1, 22510, Note_off_c, 4, 34, 0
1, 22510, Note_off_c, 5, 74, 0
1, 22510, Note_off_c, 6, 46, 0
1, 22512, Note_on_c, 3, 48, 80
1, 22512, Note_on_c, 4, 36, 80
1, 22512, Note_on_c, 5, 75, 96
1, 22512, Note_on_c, 6, 48, 96
1, 22522, Note_off_c, 5, 75, 0
1, 22524, Note_on_c, 5, 81, 96
1, 22533, Note_off_c, 3, 48, 0
1, 22533, Note_off_c, 4, 36, 0
1, 22533, Note_off_c, 6, 48, 0
1, 22534, Note_off_c, 5, 81, 0
1, 22536, Note_on_c, 3, 45, 80
1, 22536, Note_on_c, 4, 33, 80
1, 22536, Note_on_c, 5, 72, 96
1, 22536, Note_on_c, 6, 45, 96
1, 22546, Note_off_c, 3, 45, 0
1, 22546, Note_off_c, 4, 33, 0
1, 22546, Note_off_c, 5, 72, 0
1, 22546, Note_off_c, 6, 45, 0
1, 22548, Note_on_c, 3, 43, 80
1, 22548, Note_on_c, 4, 31, 80
1, 22548, Note_on_c, 5, 81, 96
1, 22548, Note_on_c, 6, 43, 96
1, 22558, Note_off_c, 3, 43, 0
1, 22558, Note_off_c, 4, 31, 0
1, 22558, Note_off_c, 5, 81, 0
1, 22558, Note_off_c, 6, 43, 0
1, 22560, Note_on_c, 3, 45, 80
1, 22560, Note_on_c, 4, 33, 80
1, 22560, Note_on_c, 5, 77, 96
1, 22560, Note_on_c, 6, 45, 96
1, 22570, Note_off_c, 5, 77, 0
1, 22572, Note_on_c, 5, 81, 96
1, 22581, Note_off_c, 3, 45, 0
1, 22581, Note_off_c, 4, 33, 0
1, 22581, Note_off_c, 6, 45, 0
1, 22582, Note_off_c, 5, 81, 0
1, 22584, Note_on_c, 3, 41, 80
1, 22584, Note_on_c, 4, 29, 80
1, 22584, Note_on_c, 5, 75, 96
1, 22584, Note_on_c, 6, 41, 96
1, 22594, Note_off_c, 5, 75, 0
1, 22596, Note_on_c, 5, 81, 96
1, 22605, Note_off_c, 3, 41, 0
1, 22605, Note_off_c, 4, 29, 0
1, 22605, Note_off_c, 6, 41, 0
1, 22606, Note_off_c, 5, 81, 0
1, 22608, Note_on_c, 3, 46, 80
1, 22608, Note_on_c, 4, 34, 80
1, 22608, Note_on_c, 5, 74, 96
1, 22608, Note_on_c, 6, 46, 96
1, 22618, Note_off_c, 5, 74, 0
1, 22620, Note_on_c, 5, 82, 96
1, 22629, Note_off_c, 3, 46, 0
1, 22629, Note_off_c, 4, 34, 0
1, 22629, Note_off_c, 6, 46, 0
1, 22630, Note_off_c, 5, 82, 0
1, 22632, Note_on_c, 3, 55, 80
1, 22632, Note_on_c, 4, 43, 80
1, 22632, Note_on_c, 5, 70, 96
1, 22632, Note_on_c, 6, 55, 96
1, 22642, Note_off_c, 5, 70, 0
1, 22644, Note_on_c, 5, 82, 96
1, 22653, Note_off_c, 3, 55, 0
1, 22653, Note_off_c, 4, 43, 0
1, 22653, Note_off_c, 6, 55, 0
1, 22654, Note_off_c, 5, 82, 0
1, 22656, Note_on_c, 3, 51, 80
1, 22656, Note_on_c, 4, 39, 80
1, 22656, Note_on_c, 5, 72, 96
1, 22656, Note_on_c, 6, 51, 96
1, 22666, Note_off_c, 5, 72, 0
1, 22668, Note_on_c, 5, 82, 96
1, 22677, Note_off_c, 3, 51, 0
1, 22677, Note_off_c, 4, 39, 0
1, 22677, Note_off_c, 6, 51, 0
1, 22678, Note_off_c, 5, 82, 0
1, 22680, Note_on_c, 3, 48, 80
1, 22680, Note_on_c, 4, 36, 80
1, 22680, Note_on_c, 5, 75, 96
1, 22680, Note_on_c, 6, 48, 96
1, 22690, Note_off_c, 5, 75, 0
1, 22692, Note_on_c, 5, 74, 96
1, 22701, Note_off_c, 3, 48, 0
1, 22701, Note_off_c, 4, 36, 0
1, 22701, Note_off_c, 6, 48, 0
1, 22702, Note_off_c, 5, 74, 0
1, 22704, Note_on_c, 3, 53, 80
1, 22704, Note_on_c, 4, 41, 80
1, 22704, Note_on_c, 5, 75, 96
1, 22704, Note_on_c, 6, 53, 96
1, 22714, Note_off_c, 5, 75, 0
1, 22716, Note_on_c, 5, 81, 96
1, 22725, Note_off_c, 3, 53, 0
1, 22725, Note_off_c, 4, 41, 0
1, 22725, Note_off_c, 6, 53, 0
1, 22726, Note_off_c, 5, 81, 0
1, 22728, Note_on_c, 3, 41, 80
1, 22728, Note_on_c, 4, 29, 80
1, 22728, Note_on_c, 5, 75, 96
1, 22728, Note_on_c, 6, 41, 96
1, 22738, Note_off_c, 5, 75, 0
1, 22740, Note_on_c, 5, 81, 96
1, 22749, Note_off_c, 3, 41, 0
1, 22749, Note_off_c, 4, 29, 0
1, 22749, Note_off_c, 6, 41, 0
1, 22750, Note_off_c, 5, 81, 0
1, 22752, Note_on_c, 0, 82, 96
1, 22752, Note_on_c, 1, 82, 96
1, 22752, Note_on_c, 3, 46, 80
1, 22752, Note_on_c, 4, 34, 80
1, 22752, Note_on_c, 5, 82, 96
1, 22752, Note_on_c, 6, 46, 96
1, 22773, Note_off_c, 0, 82, 0
1, 22773, Note_off_c, 1, 82, 0
1, 22773, Note_off_c, 5, 82, 0
1, 22776, Note_on_c, 0, 81, 96
1, 22776, Note_on_c, 1, 81, 96
1, 22776, Note_on_c, 5, 81, 96
1, 22786, Note_off_c, 0, 81, 0
1, 22786, Note_off_c, 1, 81, 0
1, 22786, Note_off_c, 5, 81, 0
1, 22788, Note_on_c, 0, 79, 96
1, 22788, Note_on_c, 1, 79, 96
1, 22788, Note_on_c, 5, 79, 96
1, 22794, Note_off_c, 3, 46, 0
1, 22794, Note_off_c, 4, 34, 0
1, 22794, Note_off_c, 6, 46, 0
1, 22798, Note_off_c, 0, 79, 0
1, 22798, Note_off_c, 1, 79, 0
1, 22798, Note_off_c, 5, 79, 0
1, 22800, Note_on_c, 0, 77, 96
1, 22800, Note_on_c, 1, 77, 96
1, 22800, Note_on_c, 5, 77, 96
1, 22810, Note_off_c, 5, 77, 0
1, 22812, Note_on_c, 5, 86, 96
1, 22821, Note_off_c, 0, 77, 0
1, 22821, Note_off_c, 1, 77, 0
1, 22822, Note_off_c, 5, 86, 0
1, 22824, Note_on_c, 0, 75, 96
1, 22824, Note_on_c, 1, 75, 96
1, 22824, Note_on_c, 5, 75, 96
1, 22834, Note_off_c, 5, 75, 0
1, 22836, Note_on_c, 5, 84, 96
1, 22845, Note_off_c, 0, 75, 0
1, 22845, Note_off_c, 1, 75, 0
1, 22846, Note_off_c, 5, 84, 0
1, 22848, Note_on_c, 0, 74, 96
1, 22848, Note_on_c, 1, 74, 96
1, 22848, Note_on_c, 5, 74, 96
1, 22858, Note_off_c, 5, 74, 0
1, 22860, Note_on_c, 5, 82, 96
1, 22869, Note_off_c, 0, 74, 0
1, 22869, Note_off_c, 1, 74, 0
1, 22870, Note_off_c, 5, 82, 0
1, 22872, Note_on_c, 0, 72, 96
1, 22872, Note_on_c, 1, 72, 96
1, 22872, Note_on_c, 5, 72, 96
1, 22882, Note_off_c, 5, 72, 0
1, 22884, Note_on_c, 5, 81, 96
1, 22893, Note_off_c, 0, 72, 0
1, 22893, Note_off_c, 1, 72, 0
1, 22894, Note_off_c, 5, 81, 0
1, 22896, Note_on_c, 0, 74, 96
1, 22896, Note_on_c, 1, 74, 96
1, 22896, Note_on_c, 5, 74, 96
1, 22896, Note_on_c, 5, 82, 96
1, 22917, Note_off_c, 0, 74, 0
1, 22917, Note_off_c, 1, 74, 0
1, 22917, Note_off_c, 5, 74, 0
1, 22917, Note_off_c, 5, 82, 0
1, 22920, Note_on_c, 0, 70, 96
1, 22920, Note_on_c, 1, 77, 96
1, 22920, Note_on_c, 2, 62, 96
1, 22920, Note_on_c, 3, 46, 96
1, 22920, Note_on_c, 4, 34, 96
1, 22920, Note_on_c, 5, 70, 96
1, 22920, Note_on_c, 6, 46, 96
1, 22930, Note_off_c, 1, 77, 0
1, 22930, Note_off_c, 2, 62, 0
1, 22930, Note_off_c, 3, 46, 0
1, 22930, Note_off_c, 4, 34, 0
1, 22930, Note_off_c, 6, 46, 0
1, 22932, Note_on_c, 1, 75, 96
1, 22932, Note_on_c, 2, 63, 96
1, 22932, Note_on_c, 3, 48, 96
1, 22932, Note_on_c, 4, 36, 96
1, 22932, Note_on_c, 6, 48, 96
1, 22941, Note_off_c, 0, 70, 0
1, 22941, Note_off_c, 5, 70, 0
1, 22942, Note_off_c, 1, 75, 0
1, 22942, Note_off_c, 2, 63, 0
1, 22942, Note_off_c, 3, 48, 0
1, 22942, Note_off_c, 4, 36, 0
1, 22942, Note_off_c, 6, 48, 0
1, 22944, Note_on_c, 0, 82, 96
1, 22944, Note_on_c, 1, 74, 96
1, 22944, Note_on_c, 2, 65, 96
1, 22944, Note_on_c, 3, 50, 96
1, 22944, Note_on_c, 4, 38, 96
1, 22944, Note_on_c, 5, 82, 96
1, 22944, Note_on_c, 6, 50, 96
1, 22965, Note_off_c, 0, 82, 0
1, 22965, Note_off_c, 1, 74, 0
1, 22965, Note_off_c, 2, 65, 0
1, 22965, Note_off_c, 3, 50, 0
1, 22965, Note_off_c, 4, 38, 0
1, 22965, Note_off_c, 5, 82, 0
1, 22965, Note_off_c, 6, 50, 0
1, 22968, Note_on_c, 0, 82, 96
1, 22968, Note_on_c, 1, 77, 96
1, 22968, Note_on_c, 2, 63, 96
1, 22968, Note_on_c, 3, 48, 96
1, 22968, Note_on_c, 4, 36, 96
1, 22968, Note_on_c, 5, 82, 96
1, 22968, Note_on_c, 6, 48, 96
1, 22978, Note_off_c, 2, 63, 0
1, 22978, Note_off_c, 3, 48, 0
1, 22978, Note_off_c, 4, 36, 0
1, 22978, Note_off_c, 6, 48, 0
1, 22980, Note_on_c, 2, 65, 96
1, 22980, Note_on_c, 3, 50, 96
1, 22980, Note_on_c, 4, 38, 96
1, 22980, Note_on_c, 6, 50, 96
1, 22989, Note_off_c, 0, 82, 0
1, 22989, Note_off_c, 1, 77, 0
1, 22989, Note_off_c, 5, 82, 0
1, 22990, Note_off_c, 2, 65, 0
1, 22990, Note_off_c, 3, 50, 0
1, 22990, Note_off_c, 4, 38, 0
1, 22990, Note_off_c, 6, 50, 0
1, 22992, Note_on_c, 0, 82, 96
1, 22992, Note_on_c, 1, 74, 96
1, 22992, Note_on_c, 2, 67, 96
1, 22992, Note_on_c, 3, 52, 96
1, 22992, Note_on_c, 4, 40, 96
1, 22992, Note_on_c, 5, 82, 96
1, 22992, Note_on_c, 6, 52, 96
1, 23013, Note_off_c, 0, 82, 0
1, 23013, Note_off_c, 1, 74, 0
1, 23013, Note_off_c, 2, 67, 0
1, 23013, Note_off_c, 3, 52, 0
1, 23013, Note_off_c, 4, 40, 0
1, 23013, Note_off_c, 5, 82, 0
1, 23013, Note_off_c, 6, 52, 0
1, 23016, Note_on_c, 0, 82, 96
1, 23016, Note_on_c, 1, 70, 96
1, 23016, Note_on_c, 2, 65, 96
1, 23016, Note_on_c, 3, 50, 96
1, 23016, Note_on_c, 4, 38, 96
1, 23016, Note_on_c, 5, 82, 96
1, 23016, Note_on_c, 6, 50, 96
1, 23026, Note_off_c, 2, 65, 0
1, 23026, Note_off_c, 3, 50, 0
1, 23026, Note_off_c, 4, 38, 0
1, 23026, Note_off_c, 6, 50, 0
1, 23028, Note_on_c, 2, 67, 96
1, 23028, Note_on_c, 3, 52, 96
1, 23028, Note_on_c, 4, 40, 96
1, 23028, Note_on_c, 6, 52, 96
1, 23037, Note_off_c, 0, 82, 0
1, 23037, Note_off_c, 1, 70, 0
1, 23037, Note_off_c, 5, 82, 0
1, 23038, Note_off_c, 2, 67, 0
1, 23038, Note_off_c, 3, 52, 0
1, 23038, Note_off_c, 4, 40, 0
1, 23038, Note_off_c, 6, 52, 0
1, 23040, Note_on_c, 0, 77, 96
1, 23040, Note_on_c, 1, 77, 96
1, 23040, Note_on_c, 2, 60, 96
1, 23040, Note_on_c, 3, 53, 96
1, 23040, Note_on_c, 4, 41, 96
1, 23040, Note_on_c, 5, 82, 96
1, 23040, Note_on_c, 6, 53, 96
1, 23050, Note_off_c, 5, 82, 0
1, 23052, Note_on_c, 5, 86, 96
1, 23061, Note_off_c, 0, 77, 0
1, 23061, Note_off_c, 1, 77, 0
1, 23061, Note_off_c, 6, 53, 0
1, 23062, Note_off_c, 5, 86, 0
1, 23064, Note_on_c, 0, 76, 96
1, 23064, Note_on_c, 1, 76, 96
1, 23064, Note_on_c, 5, 84, 96
1, 23064, Note_on_c, 6, 41, 96
1, 23074, Note_off_c, 0, 76, 0
1, 23074, Note_off_c, 1, 76, 0
1, 23074, Note_off_c, 5, 84, 0
1, 23076, Note_on_c, 0, 74, 96
1, 23076, Note_on_c, 1, 74, 96
1, 23076, Note_on_c, 5, 82, 96
1, 23082, Note_off_c, 2, 60, 0
1, 23082, Note_off_c, 3, 53, 0
1, 23082, Note_off_c, 4, 41, 0
1, 23085, Note_off_c, 6, 41, 0
1, 23086, Note_off_c, 0, 74, 0
1, 23086, Note_off_c, 1, 74, 0
1, 23086, Note_off_c, 5, 82, 0
1, 23088, Note_on_c, 0, 72, 96
1, 23088, Note_on_c, 1, 72, 96
1, 23088, Note_on_c, 5, 81, 96
1, 23088, Note_on_c, 6, 53, 96
1, 23098, Note_off_c, 5, 81, 0
1, 23100, Note_on_c, 5, 82, 96
1, 23109, Note_off_c, 0, 72, 0
1, 23109, Note_off_c, 1, 72, 0
1, 23109, Note_off_c, 6, 53, 0
1, 23110, Note_off_c, 5, 82, 0
1, 23112, Note_on_c, 0, 70, 96
1, 23112, Note_on_c, 1, 70, 96
1, 23112, Note_on_c, 5, 81, 96
1, 23112, Note_on_c, 6, 62, 96
1, 23122, Note_off_c, 5, 81, 0
1, 23124, Note_on_c, 5, 82, 96
1, 23133, Note_off_c, 0, 70, 0
1, 23133, Note_off_c, 1, 70, 0
1, 23133, Note_off_c, 6, 62, 0
1, 23134, Note_off_c, 5, 82, 0
1, 23136, Note_on_c, 0, 69, 96
1, 23136, Note_on_c, 1, 69, 96
1, 23136, Note_on_c, 5, 84, 96
1, 23136, Note_on_c, 6, 60, 96
1, 23142, Note_off_c, 5, 84, 0
1, 23142, Note_on_c, 5, 82, 96
1, 23148, Note_off_c, 5, 82, 0
1, 23148, Note_on_c, 5, 84, 96
1, 23154, Note_off_c, 5, 84, 0
1, 23154, Note_on_c, 5, 82, 96
1, 23157, Note_off_c, 0, 69, 0
1, 23157, Note_off_c, 1, 69, 0
1, 23157, Note_off_c, 6, 60, 0
1, 23160, Note_on_c, 0, 67, 96
1, 23160, Note_on_c, 1, 67, 96
1, 23160, Note_off_c, 5, 82, 0
1, 23160, Note_on_c, 5, 84, 96
1, 23160, Note_on_c, 6, 58, 96
1, 23166, Note_off_c, 5, 84, 0
1, 23166, Note_on_c, 5, 82, 96
1, 23171, Note_off_c, 5, 82, 0
1, 23172, Note_on_c, 5, 81, 96
1, 23177, Note_off_c, 5, 81, 0
1, 23178, Note_on_c, 5, 82, 96
1, 23181, Note_off_c, 0, 67, 0
1, 23181, Note_off_c, 1, 67, 0
1, 23181, Note_off_c, 6, 58, 0
1, 23183, Note_off_c, 5, 82, 0
1, 23184, Note_on_c, 0, 69, 96
1, 23184, Note_on_c, 1, 69, 96
1, 23184, Note_on_c, 5, 84, 96
1, 23184, Note_on_c, 6, 57, 96
1, 23205, Note_off_c, 0, 69, 0
1, 23205, Note_off_c, 1, 69, 0
1, 23205, Note_off_c, 5, 84, 0
1, 23205, Note_off_c, 6, 57, 0
1, 23208, Note_on_c, 0, 65, 96
1, 23208, Note_on_c, 1, 65, 96
1, 23208, Note_on_c, 2, 72, 96
1, 23208, Note_on_c, 3, 53, 96
1, 23208, Note_on_c, 4, 41, 96
1, 23208, Note_on_c, 5, 81, 96
1, 23208, Note_on_c, 6, 53, 96
1, 23218, Note_off_c, 2, 72, 0
1, 23218, Note_off_c, 3, 53, 0
1, 23218, Note_off_c, 4, 41, 0
1, 23218, Note_off_c, 5, 81, 0
1, 23218, Note_off_c, 6, 53, 0
1, 23220, Note_on_c, 2, 70, 96
1, 23220, Note_on_c, 3, 55, 96
1, 23220, Note_on_c, 4, 43, 96
1, 23220, Note_on_c, 5, 82, 96
1, 23220, Note_on_c, 6, 55, 96
1, 23229, Note_off_c, 0, 65, 0
1, 23229, Note_off_c, 1, 65, 0
1, 23230, Note_off_c, 2, 70, 0
1, 23230, Note_off_c, 3, 55, 0
1, 23230, Note_off_c, 4, 43, 0
1, 23230, Note_off_c, 5, 82, 0
1, 23230, Note_off_c, 6, 55, 0
1, 23232, Note_on_c, 0, 77, 96
1, 23232, Note_on_c, 1, 77, 96
1, 23232, Note_on_c, 2, 69, 96
1, 23232, Note_on_c, 3, 57, 96
1, 23232, Note_on_c, 4, 45, 96
1, 23232, Note_on_c, 5, 84, 96
1, 23232, Note_on_c, 6, 57, 96
1, 23253, Note_off_c, 0, 77, 0
1, 23253, Note_off_c, 1, 77, 0
1, 23253, Note_off_c, 2, 69, 0
1, 23253, Note_off_c, 3, 57, 0
1, 23253, Note_off_c, 4, 45, 0
1, 23253, Note_off_c, 5, 84, 0
1, 23253, Note_off_c, 6, 57, 0
1, 23256, Note_on_c, 0, 77, 96
1, 23256, Note_on_c, 1, 77, 96
1, 23256, Note_on_c, 2, 72, 96
1, 23256, Note_on_c, 3, 55, 96
1, 23256, Note_on_c, 4, 43, 96
1, 23256, Note_on_c, 5, 83, 96
1, 23256, Note_on_c, 6, 55, 96
1, 23266, Note_off_c, 3, 55, 0
1, 23266, Note_off_c, 4, 43, 0
1, 23266, Note_off_c, 5, 83, 0
1, 23266, Note_off_c, 6, 55, 0
1, 23268, Note_on_c, 3, 57, 96
1, 23268, Note_on_c, 4, 45, 96
1, 23268, Note_on_c, 5, 84, 96
1, 23268, Note_on_c, 6, 57, 96
1, 23277, Note_off_c, 0, 77, 0
1, 23277, Note_off_c, 1, 77, 0
1, 23277, Note_off_c, 2, 72, 0
1, 23278, Note_off_c, 3, 57, 0
1, 23278, Note_off_c, 4, 45, 0
1, 23278, Note_off_c, 5, 84, 0
1, 23278, Note_off_c, 6, 57, 0
1, 23280, Note_on_c, 0, 77, 96
1, 23280, Note_on_c, 1, 77, 96
1, 23280, Note_on_c, 2, 68, 96
1, 23280, Note_on_c, 3, 59, 96
1, 23280, Note_on_c, 4, 47, 96
1, 23280, Note_on_c, 5, 86, 96
1, 23280, Note_on_c, 6, 59, 96
1, 23301, Note_off_c, 0, 77, 0
1, 23301, Note_off_c, 1, 77, 0
1, 23301, Note_off_c, 2, 68, 0
1, 23301, Note_off_c, 3, 59, 0
1, 23301, Note_off_c, 4, 47, 0
1, 23301, Note_off_c, 5, 86, 0
1, 23301, Note_off_c, 6, 59, 0
1, 23304, Note_on_c, 0, 77, 96
1, 23304, Note_on_c, 1, 77, 96
1, 23304, Note_on_c, 2, 65, 96
1, 23304, Note_on_c, 3, 57, 96
1, 23304, Note_on_c, 4, 45, 96
1, 23304, Note_on_c, 5, 84, 96
1, 23304, Note_on_c, 6, 57, 96
1, 23314, Note_off_c, 3, 57, 0
1, 23314, Note_off_c, 4, 45, 0
1, 23314, Note_off_c, 5, 84, 0
1, 23314, Note_off_c, 6, 57, 0
1, 23316, Note_on_c, 3, 59, 96
1, 23316, Note_on_c, 4, 47, 96
1, 23316, Note_on_c, 5, 86, 96
1, 23316, Note_on_c, 6, 59, 96
1, 23325, Note_off_c, 0, 77, 0
1, 23325, Note_off_c, 1, 77, 0
1, 23325, Note_off_c, 2, 65, 0
1, 23326, Note_off_c, 3, 59, 0
1, 23326, Note_off_c, 4, 47, 0
1, 23326, Note_off_c, 5, 86, 0
1, 23326, Note_off_c, 6, 59, 0
1, 23328, Note_on_c, 0, 77, 96
1, 23328, Note_on_c, 1, 72, 96
1, 23328, Note_on_c, 2, 72, 96
1, 23328, Note_on_c, 3, 60, 96
1, 23328, Note_on_c, 4, 48, 96
1, 23328, Note_on_c, 5, 79, 96
1, 23328, Note_on_c, 6, 60, 96
1, 23338, Note_off_c, 6, 60, 0
1, 23340, Note_off_c, 0, 77, 0
1, 23340, Note_on_c, 0, 80, 96
1, 23340, Note_on_c, 6, 59, 96
1, 23349, Note_off_c, 1, 72, 0
1, 23349, Note_off_c, 2, 72, 0
1, 23349, Note_off_c, 5, 79, 0
1, 23350, Note_off_c, 6, 59, 0
1, 23352, Note_off_c, 0, 80, 0
1, 23352, Note_on_c, 0, 79, 96
1, 23352, Note_on_c, 1, 70, 96
1, 23352, Note_on_c, 2, 70, 96
1, 23352, Note_on_c, 5, 72, 96
1, 23352, Note_on_c, 6, 60, 96
1, 23362, Note_off_c, 1, 70, 0
1, 23362, Note_off_c, 2, 70, 0
1, 23362, Note_off_c, 6, 60, 0
1, 23364, Note_off_c, 0, 79, 0
1, 23364, Note_on_c, 0, 77, 96
1, 23364, Note_on_c, 1, 68, 96
1, 23364, Note_on_c, 2, 68, 96
1, 23364, Note_on_c, 6, 62, 96
1, 23370, Note_off_c, 3, 60, 0
1, 23370, Note_off_c, 4, 48, 0
1, 23373, Note_off_c, 5, 72, 0
1, 23374, Note_off_c, 1, 68, 0
1, 23374, Note_off_c, 2, 68, 0
1, 23374, Note_off_c, 6, 62, 0
1, 23376, Note_off_c, 0, 77, 0
1, 23376, Note_on_c, 0, 75, 96
1, 23376, Note_on_c, 1, 67, 96
1, 23376, Note_on_c, 2, 67, 96
1, 23376, Note_on_c, 5, 84, 96
1, 23376, Note_on_c, 6, 63, 96
1, 23386, Note_off_c, 0, 75, 0
1, 23386, Note_off_c, 6, 63, 0
1, 23388, Note_on_c, 0, 77, 96
1, 23388, Note_on_c, 6, 60, 96
1, 23397, Note_off_c, 1, 67, 0
1, 23397, Note_off_c, 2, 67, 0
1, 23397, Note_off_c, 5, 84, 0
1, 23398, Note_off_c, 0, 77, 0
1, 23398, Note_off_c, 6, 60, 0
1, 23400, Note_on_c, 0, 75, 96
1, 23400, Note_on_c, 1, 65, 96
1, 23400, Note_on_c, 2, 65, 96
1, 23400, Note_on_c, 5, 84, 96
1, 23400, Note_on_c, 6, 68, 96
1, 23410, Note_off_c, 0, 75, 0
1, 23412, Note_on_c, 0, 77, 96
1, 23421, Note_off_c, 1, 65, 0
1, 23421, Note_off_c, 2, 65, 0
1, 23421, Note_off_c, 6, 68, 0
1, 23422, Note_off_c, 0, 77, 0
1, 23424, Note_on_c, 0, 79, 96
1, 23424, Note_on_c, 1, 63, 96
1, 23424, Note_on_c, 2, 63, 96
1, 23424, Note_on_c, 6, 67, 96
1, 23430, Note_off_c, 0, 79, 0
1, 23430, Note_on_c, 0, 77, 96
1, 23431, Note_off_c, 5, 84, 0
1, 23436, Note_off_c, 0, 77, 0
1, 23436, Note_on_c, 0, 79, 96
1, 23436, Note_on_c, 5, 83, 96
1, 23442, Note_off_c, 0, 79, 0
1, 23442, Note_on_c, 0, 77, 96
1, 23445, Note_off_c, 1, 63, 0
1, 23445, Note_off_c, 2, 63, 0
1, 23445, Note_off_c, 6, 67, 0
1, 23446, Note_off_c, 5, 83, 0
1, 23448, Note_off_c, 0, 77, 0
1, 23448, Note_on_c, 0, 79, 96
1, 23448, Note_on_c, 1, 62, 96
1, 23448, Note_on_c, 2, 62, 96
1, 23448, Note_on_c, 5, 84, 96
1, 23448, Note_on_c, 6, 65, 96
1, 23454, Note_off_c, 0, 79, 0
1, 23454, Note_on_c, 0, 77, 96
1, 23458, Note_off_c, 5, 84, 0
1, 23459, Note_off_c, 0, 77, 0
1, 23460, Note_on_c, 0, 75, 96
1, 23460, Note_on_c, 5, 83, 96
1, 23465, Note_off_c, 0, 75, 0
1, 23466, Note_on_c, 0, 77, 96
1, 23469, Note_off_c, 1, 62, 0
1, 23469, Note_off_c, 2, 62, 0
1, 23469, Note_off_c, 6, 65, 0
1, 23470, Note_off_c, 5, 83, 0
1, 23471, Note_off_c, 0, 77, 0
1, 23472, Note_on_c, 0, 79, 96
1, 23472, Note_on_c, 1, 63, 96
1, 23472, Note_on_c, 2, 63, 96
1, 23472, Note_on_c, 5, 84, 96
1, 23472, Note_on_c, 6, 63, 96
1, 23482, Note_off_c, 5, 84, 0
1, 23484, Note_on_c, 5, 79, 96
1, 23493, Note_off_c, 0, 79, 0
1, 23493, Note_off_c, 1, 63, 0
1, 23493, Note_off_c, 2, 63, 0
1, 23493, Note_off_c, 6, 63, 0
1, 23494, Note_off_c, 5, 79, 0
1, 23496, Note_on_c, 0, 75, 96
1, 23496, Note_on_c, 1, 60, 96
1, 23496, Note_on_c, 2, 60, 96
1, 23496, Note_on_c, 3, 48, 96
1, 23496, Note_on_c, 4, 36, 96
1, 23496, Note_on_c, 5, 84, 96
1, 23496, Note_on_c, 6, 48, 96
1, 23506, Note_off_c, 0, 75, 0
1, 23506, Note_off_c, 3, 48, 0
1, 23506, Note_off_c, 4, 36, 0
1, 23506, Note_off_c, 6, 48, 0
1, 23508, Note_on_c, 0, 77, 96
1, 23508, Note_on_c, 3, 50, 96
1, 23508, Note_on_c, 4, 38, 96
1, 23508, Note_on_c, 6, 50, 96
1, 23517, Note_off_c, 1, 60, 0
1, 23517, Note_off_c, 2, 60, 0
1, 23518, Note_off_c, 0, 77, 0
1, 23518, Note_off_c, 3, 50, 0
1, 23518, Note_off_c, 4, 38, 0
1, 23518, Note_off_c, 6, 50, 0
1, 23520, Note_on_c, 0, 79, 96
1, 23520, Note_on_c, 1, 72, 96
1, 23520, Note_on_c, 2, 72, 96
1, 23520, Note_on_c, 3, 52, 96
1, 23520, Note_on_c, 4, 40, 96
1, 23520, Note_on_c, 6, 52, 96
1, 23527, Note_off_c, 5, 84, 0
1, 23532, Note_on_c, 5, 86, 96
1, 23541, Note_off_c, 0, 79, 0
1, 23541, Note_off_c, 1, 72, 0
1, 23541, Note_off_c, 2, 72, 0
1, 23541, Note_off_c, 3, 52, 0
1, 23541, Note_off_c, 4, 40, 0
1, 23541, Note_off_c, 6, 52, 0
1, 23542, Note_off_c, 5, 86, 0
1, 23544, Note_on_c, 0, 78, 96
1, 23544, Note_on_c, 1, 72, 96
1, 23544, Note_on_c, 2, 72, 96
1, 23544, Note_on_c, 3, 50, 96
1, 23544, Note_on_c, 4, 38, 96
1, 23544, Note_on_c, 5, 84, 96
1, 23544, Note_on_c, 6, 50, 96
1, 23554, Note_off_c, 0, 78, 0
1, 23554, Note_off_c, 3, 50, 0
1, 23554, Note_off_c, 4, 38, 0
1, 23554, Note_off_c, 5, 84, 0
1, 23554, Note_off_c, 6, 50, 0
1, 23556, Note_on_c, 0, 79, 96
1, 23556, Note_on_c, 3, 52, 96
1, 23556, Note_on_c, 4, 40, 96
1, 23556, Note_on_c, 5, 82, 96
1, 23556, Note_on_c, 6, 52, 96
1, 23565, Note_off_c, 1, 72, 0
1, 23565, Note_off_c, 2, 72, 0
1, 23566, Note_off_c, 0, 79, 0
1, 23566, Note_off_c, 3, 52, 0
1, 23566, Note_off_c, 4, 40, 0
1, 23566, Note_off_c, 5, 82, 0
1, 23566, Note_off_c, 6, 52, 0
1, 23568, Note_on_c, 0, 81, 96
1, 23568, Note_on_c, 1, 72, 96
1, 23568, Note_on_c, 2, 72, 96
1, 23568, Note_on_c, 3, 54, 96
1, 23568, Note_on_c, 4, 42, 96
1, 23568, Note_on_c, 5, 81, 96
1, 23568, Note_on_c, 6, 54, 96
1, 23578, Note_off_c, 5, 81, 0
1, 23580, Note_on_c, 5, 84, 96
1, 23589, Note_off_c, 0, 81, 0
1, 23589, Note_off_c, 1, 72, 0
1, 23589, Note_off_c, 2, 72, 0
1, 23589, Note_off_c, 3, 54, 0
1, 23589, Note_off_c, 4, 42, 0
1, 23589, Note_off_c, 6, 54, 0
1, 23590, Note_off_c, 5, 84, 0
1, 23592, Note_on_c, 0, 79, 96
1, 23592, Note_on_c, 1, 72, 96
1, 23592, Note_on_c, 2, 72, 96
1, 23592, Note_on_c, 3, 52, 96
1, 23592, Note_on_c, 4, 40, 96
1, 23592, Note_on_c, 5, 82, 96
1, 23592, Note_on_c, 6, 52, 96
1, 23602, Note_off_c, 0, 79, 0
1, 23602, Note_off_c, 3, 52, 0
1, 23602, Note_off_c, 4, 40, 0
1, 23602, Note_off_c, 5, 82, 0
1, 23602, Note_off_c, 6, 52, 0
1, 23604, Note_on_c, 0, 81, 96
1, 23604, Note_on_c, 3, 54, 96
1, 23604, Note_on_c, 4, 42, 96
1, 23604, Note_on_c, 5, 81, 96
1, 23604, Note_on_c, 6, 54, 96
1, 23613, Note_off_c, 1, 72, 0
1, 23613, Note_off_c, 2, 72, 0
1, 23614, Note_off_c, 0, 81, 0
1, 23614, Note_off_c, 3, 54, 0
1, 23614, Note_off_c, 4, 42, 0
1, 23614, Note_off_c, 5, 81, 0
1, 23614, Note_off_c, 6, 54, 0
1, 23616, Note_on_c, 0, 74, 96
1, 23616, Note_on_c, 1, 72, 96
1, 23616, Note_on_c, 2, 72, 96
1, 23616, Note_on_c, 3, 55, 96
1, 23616, Note_on_c, 4, 43, 96
1, 23616, Note_on_c, 5, 79, 96
1, 23616, Note_on_c, 6, 55, 96
1, 23626, Note_off_c, 2, 72, 0
1, 23628, Note_off_c, 1, 72, 0
1, 23628, Note_on_c, 1, 75, 96
1, 23628, Note_on_c, 2, 75, 96
1, 23637, Note_off_c, 3, 55, 0
1, 23637, Note_off_c, 4, 43, 0
1, 23637, Note_off_c, 5, 79, 0
1, 23637, Note_off_c, 6, 55, 0
1, 23638, Note_off_c, 2, 75, 0
1, 23640, Note_off_c, 1, 75, 0
1, 23640, Note_on_c, 1, 74, 96
1, 23640, Note_on_c, 2, 74, 96
1, 23640, Note_on_c, 3, 53, 96
1, 23640, Note_on_c, 4, 41, 96
1, 23640, Note_on_c, 5, 67, 96
1, 23640, Note_on_c, 6, 53, 96
1, 23650, Note_off_c, 2, 74, 0
1, 23650, Note_off_c, 3, 53, 0
1, 23650, Note_off_c, 4, 41, 0
1, 23650, Note_off_c, 5, 67, 0
1, 23650, Note_off_c, 6, 53, 0
1, 23652, Note_off_c, 1, 74, 0
1, 23652, Note_on_c, 1, 72, 96
1, 23652, Note_on_c, 2, 72, 96
1, 23652, Note_on_c, 3, 51, 96
1, 23652, Note_on_c, 4, 39, 96
1, 23652, Note_on_c, 5, 69, 96
1, 23652, Note_on_c, 6, 51, 96
1, 23658, Note_off_c, 0, 74, 0
1, 23662, Note_off_c, 2, 72, 0
1, 23662, Note_off_c, 3, 51, 0
1, 23662, Note_off_c, 4, 39, 0
1, 23662, Note_off_c, 5, 69, 0
1, 23662, Note_off_c, 6, 51, 0
1, 23664, Note_off_c, 1, 72, 0
1, 23664, Note_on_c, 1, 70, 96
1, 23664, Note_on_c, 2, 70, 96
1, 23664, Note_on_c, 3, 50, 96
1, 23664, Note_on_c, 4, 38, 96
1, 23664, Note_on_c, 5, 70, 96
1, 23664, Note_on_c, 6, 50, 96
1, 23674, Note_off_c, 1, 70, 0
1, 23674, Note_off_c, 2, 70, 0
1, 23674, Note_off_c, 5, 70, 0
1, 23676, Note_on_c, 1, 72, 96
1, 23676, Note_on_c, 2, 72, 96
1, 23676, Note_on_c, 5, 67, 96
1, 23685, Note_off_c, 3, 50, 0
1, 23685, Note_off_c, 4, 38, 0
1, 23685, Note_off_c, 6, 50, 0
1, 23686, Note_off_c, 1, 72, 0
1, 23686, Note_off_c, 2, 72, 0
1, 23686, Note_off_c, 5, 67, 0
1, 23688, Note_on_c, 1, 70, 96
1, 23688, Note_on_c, 2, 70, 96
1, 23688, Note_on_c, 3, 48, 96
1, 23688, Note_on_c, 4, 36, 96
1, 23688, Note_on_c, 5, 70, 96
1, 23688, Note_on_c, 6, 48, 96
1, 23698, Note_off_c, 1, 70, 0
1, 23698, Note_off_c, 2, 70, 0
1, 23698, Note_off_c, 5, 70, 0
1, 23700, Note_on_c, 1, 72, 96
1, 23700, Note_on_c, 2, 72, 96
1, 23700, Note_on_c, 5, 74, 96
1, 23709, Note_off_c, 3, 48, 0
1, 23709, Note_off_c, 4, 36, 0
1, 23709, Note_off_c, 6, 48, 0
1, 23710, Note_off_c, 1, 72, 0
1, 23710, Note_off_c, 2, 72, 0
1, 23710, Note_off_c, 5, 74, 0
1, 23712, Note_on_c, 1, 74, 96
1, 23712, Note_on_c, 2, 74, 96
1, 23712, Note_on_c, 3, 46, 96
1, 23712, Note_on_c, 4, 34, 96
1, 23712, Note_on_c, 5, 79, 96
1, 23712, Note_on_c, 6, 46, 96
1, 23718, Note_off_c, 1, 74, 0
1, 23718, Note_on_c, 1, 72, 96
1, 23718, Note_off_c, 2, 74, 0
1, 23718, Note_on_c, 2, 72, 96
1, 23722, Note_off_c, 5, 79, 0
1, 23724, Note_off_c, 1, 72, 0
1, 23724, Note_on_c, 1, 74, 96
1, 23724, Note_off_c, 2, 72, 0
1, 23724, Note_on_c, 2, 74, 96
1, 23724, Note_on_c, 5, 78, 96
1, 23730, Note_off_c, 1, 74, 0
1, 23730, Note_on_c, 1, 72, 96
1, 23730, Note_off_c, 2, 74, 0
1, 23730, Note_on_c, 2, 72, 96
1, 23733, Note_off_c, 3, 46, 0
1, 23733, Note_off_c, 4, 34, 0
1, 23733, Note_off_c, 6, 46, 0
1, 23734, Note_off_c, 5, 78, 0
1, 23736, Note_off_c, 1, 72, 0
1, 23736, Note_on_c, 1, 74, 96
1, 23736, Note_off_c, 2, 72, 0
1, 23736, Note_on_c, 2, 74, 96
1, 23736, Note_on_c, 3, 45, 96
1, 23736, Note_on_c, 4, 33, 96
1, 23736, Note_on_c, 5, 79, 96
1, 23736, Note_on_c, 6, 45, 96
1, 23742, Note_off_c, 1, 74, 0
1, 23742, Note_on_c, 1, 72, 96
1, 23742, Note_off_c, 2, 74, 0
1, 23742, Note_on_c, 2, 72, 96
1, 23746, Note_off_c, 5, 79, 0
1, 23747, Note_off_c, 1, 72, 0
1, 23747, Note_off_c, 2, 72, 0
1, 23748, Note_on_c, 1, 70, 96
1, 23748, Note_on_c, 2, 70, 96
1, 23748, Note_on_c, 5, 78, 96
1, 23753, Note_off_c, 1, 70, 0
1, 23753, Note_off_c, 2, 70, 0
1, 23754, Note_on_c, 1, 72, 96
1, 23754, Note_on_c, 2, 72, 96
1, 23757, Note_off_c, 3, 45, 0
1, 23757, Note_off_c, 4, 33, 0
1, 23757, Note_off_c, 6, 45, 0
1, 23758, Note_off_c, 5, 78, 0
1, 23759, Note_off_c, 1, 72, 0
1, 23759, Note_off_c, 2, 72, 0
1, 23760, Note_on_c, 1, 74, 96
1, 23760, Note_on_c, 2, 74, 96
1, 23760, Note_on_c, 3, 46, 96
1, 23760, Note_on_c, 4, 34, 96
1, 23760, Note_on_c, 5, 79, 96
1, 23760, Note_on_c, 6, 46, 96
1, 23781, Note_off_c, 1, 74, 0
1, 23781, Note_off_c, 2, 74, 0
1, 23781, Note_off_c, 3, 46, 0
1, 23781, Note_off_c, 4, 34, 0
1, 23781, Note_off_c, 5, 79, 0
1, 23781, Note_off_c, 6, 46, 0
1, 23784, Note_on_c, 0, 67, 96
1, 23784, Note_on_c, 1, 67, 96
1, 23784, Note_on_c, 2, 58, 96
1, 23784, Note_on_c, 3, 43, 96
1, 23784, Note_on_c, 4, 31, 96
1, 23784, Note_on_c, 5, 67, 96
1, 23784, Note_on_c, 6, 43, 96
1, 23794, Note_off_c, 0, 67, 0
1, 23794, Note_off_c, 1, 67, 0
1, 23794, Note_off_c, 2, 58, 0
1, 23794, Note_off_c, 5, 67, 0
1, 23796, Note_on_c, 0, 69, 96
1, 23796, Note_on_c, 1, 69, 96
1, 23796, Note_on_c, 2, 60, 96
1, 23796, Note_on_c, 5, 69, 96
1, 23805, Note_off_c, 3, 43, 0
1, 23805, Note_off_c, 4, 31, 0
1, 23805, Note_off_c, 6, 43, 0
1, 23806, Note_off_c, 0, 69, 0
1, 23806, Note_off_c, 1, 69, 0
1, 23806, Note_off_c, 2, 60, 0
1, 23806, Note_off_c, 5, 69, 0
1, 23808, Note_on_c, 0, 70, 96
1, 23808, Note_on_c, 1, 70, 96
1, 23808, Note_on_c, 2, 62, 96
1, 23808, Note_on_c, 3, 55, 96
1, 23808, Note_on_c, 4, 43, 96
1, 23808, Note_on_c, 5, 70, 96
1, 23808, Note_on_c, 6, 55, 96
1, 23829, Note_off_c, 0, 70, 0
1, 23829, Note_off_c, 1, 70, 0
1, 23829, Note_off_c, 2, 62, 0
1, 23829, Note_off_c, 3, 55, 0
1, 23829, Note_off_c, 4, 43, 0
1, 23829, Note_off_c, 5, 70, 0
1, 23829, Note_off_c, 6, 55, 0
1, 23832, Note_on_c, 0, 69, 96
1, 23832, Note_on_c, 1, 69, 96
1, 23832, Note_on_c, 2, 60, 96
1, 23832, Note_on_c, 3, 55, 96
1, 23832, Note_on_c, 4, 43, 96
1, 23832, Note_on_c, 5, 69, 96
1, 23832, Note_on_c, 6, 55, 96
1, 23842, Note_off_c, 0, 69, 0
1, 23842, Note_off_c, 1, 69, 0
1, 23842, Note_off_c, 2, 60, 0
1, 23842, Note_off_c, 5, 69, 0
1, 23844, Note_on_c, 0, 70, 96
1, 23844, Note_on_c, 1, 70, 96
1, 23844, Note_on_c, 2, 62, 96
1, 23844, Note_on_c, 5, 70, 96
1, 23853, Note_off_c, 3, 55, 0
1, 23853, Note_off_c, 4, 43, 0
1, 23853, Note_off_c, 6, 55, 0
1, 23854, Note_off_c, 0, 70, 0
1, 23854, Note_off_c, 1, 70, 0
1, 23854, Note_off_c, 2, 62, 0
1, 23854, Note_off_c, 5, 70, 0
1, 23856, Note_on_c, 0, 72, 96
1, 23856, Note_on_c, 1, 72, 96
1, 23856, Note_on_c, 2, 63, 96
1, 23856, Note_on_c, 3, 55, 96
1, 23856, Note_on_c, 4, 43, 96
1, 23856, Note_on_c, 5, 72, 96
1, 23856, Note_on_c, 6, 55, 96
1, 23877, Note_off_c, 0, 72, 0
1, 23877, Note_off_c, 1, 72, 0
1, 23877, Note_off_c, 2, 63, 0
1, 23877, Note_off_c, 3, 55, 0
1, 23877, Note_off_c, 4, 43, 0
1, 23877, Note_off_c, 5, 72, 0
1, 23877, Note_off_c, 6, 55, 0
1, 23880, Note_on_c, 0, 70, 96
1, 23880, Note_on_c, 1, 70, 96
1, 23880, Note_on_c, 2, 62, 96
1, 23880, Note_on_c, 3, 55, 96
1, 23880, Note_on_c, 4, 43, 96
1, 23880, Note_on_c, 5, 70, 96
1, 23880, Note_on_c, 6, 55, 96
1, 23890, Note_off_c, 0, 70, 0
1, 23890, Note_off_c, 1, 70, 0
1, 23890, Note_off_c, 2, 62, 0
1, 23890, Note_off_c, 5, 70, 0
1, 23892, Note_on_c, 0, 72, 96
1, 23892, Note_on_c, 1, 72, 96
1, 23892, Note_on_c, 2, 63, 96
1, 23892, Note_on_c, 5, 72, 96
1, 23901, Note_off_c, 3, 55, 0
1, 23901, Note_off_c, 4, 43, 0
1, 23901, Note_off_c, 6, 55, 0
1, 23902, Note_off_c, 0, 72, 0
1, 23902, Note_off_c, 1, 72, 0
1, 23902, Note_off_c, 2, 63, 0
1, 23902, Note_off_c, 5, 72, 0
1, 23904, Note_on_c, 0, 74, 96
1, 23904, Note_on_c, 1, 74, 96
1, 23904, Note_on_c, 2, 57, 96
1, 23904, Note_on_c, 3, 55, 96
1, 23904, Note_on_c, 4, 43, 96
1, 23904, Note_on_c, 5, 74, 96
1, 23904, Note_on_c, 6, 55, 96
1, 23914, Note_off_c, 3, 55, 0
1, 23914, Note_off_c, 4, 43, 0
1, 23914, Note_off_c, 6, 55, 0
1, 23916, Note_on_c, 3, 53, 96
1, 23916, Note_on_c, 4, 41, 96
1, 23916, Note_on_c, 6, 53, 96
1, 23925, Note_off_c, 0, 74, 0
1, 23925, Note_off_c, 1, 74, 0
1, 23925, Note_off_c, 2, 57, 0
1, 23925, Note_off_c, 5, 74, 0
1, 23926, Note_off_c, 3, 53, 0
1, 23926, Note_off_c, 4, 41, 0
1, 23926, Note_off_c, 6, 53, 0
1, 23928, Note_on_c, 0, 70, 96
1, 23928, Note_on_c, 1, 70, 96
1, 23928, Note_on_c, 2, 70, 96
1, 23928, Note_on_c, 3, 55, 96
1, 23928, Note_on_c, 4, 43, 96
1, 23928, Note_on_c, 5, 70, 96
1, 23928, Note_on_c, 6, 55, 96
1, 23938, Note_off_c, 0, 70, 0
1, 23938, Note_off_c, 1, 70, 0
1, 23938, Note_off_c, 3, 55, 0
1, 23938, Note_off_c, 4, 43, 0
1, 23938, Note_off_c, 5, 70, 0
1, 23938, Note_off_c, 6, 55, 0
1, 23940, Note_on_c, 0, 72, 96
1, 23940, Note_on_c, 1, 72, 96
1, 23940, Note_on_c, 3, 57, 96
1, 23940, Note_on_c, 4, 45, 96
1, 23940, Note_on_c, 5, 72, 96
1, 23940, Note_on_c, 6, 57, 96
1, 23949, Note_off_c, 2, 70, 0
1, 23950, Note_off_c, 0, 72, 0
1, 23950, Note_off_c, 1, 72, 0
1, 23950, Note_off_c, 3, 57, 0
1, 23950, Note_off_c, 4, 45, 0
1, 23950, Note_off_c, 5, 72, 0
1, 23950, Note_off_c, 6, 57, 0
1, 23952, Note_on_c, 0, 74, 96
1, 23952, Note_on_c, 1, 74, 96
1, 23952, Note_on_c, 2, 65, 96
1, 23952, Note_on_c, 3, 58, 96
1, 23952, Note_on_c, 4, 46, 96
1, 23952, Note_on_c, 5, 74, 96
1, 23952, Note_on_c, 6, 58, 96
1, 23973, Note_off_c, 0, 74, 0
1, 23973, Note_off_c, 1, 74, 0
1, 23973, Note_off_c, 2, 65, 0
1, 23973, Note_off_c, 3, 58, 0
1, 23973, Note_off_c, 4, 46, 0
1, 23973, Note_off_c, 5, 74, 0
1, 23973, Note_off_c, 6, 58, 0
1, 23976, Note_on_c, 0, 72, 96
1, 23976, Note_on_c, 1, 72, 96
1, 23976, Note_on_c, 2, 64, 96
1, 23976, Note_on_c, 3, 58, 96
1, 23976, Note_on_c, 4, 46, 96
1, 23976, Note_on_c, 5, 72, 96
1, 23976, Note_on_c, 6, 58, 96
1, 23986, Note_off_c, 0, 72, 0
1, 23986, Note_off_c, 1, 72, 0
1, 23986, Note_off_c, 2, 64, 0
1, 23986, Note_off_c, 5, 72, 0
1, 23988, Note_on_c, 0, 74, 96
1, 23988, Note_on_c, 1, 74, 96
1, 23988, Note_on_c, 2, 65, 96
1, 23988, Note_on_c, 5, 74, 96
1, 23997, Note_off_c, 3, 58, 0
1, 23997, Note_off_c, 4, 46, 0
1, 23997, Note_off_c, 6, 58, 0
1, 23998, Note_off_c, 0, 74, 0
1, 23998, Note_off_c, 1, 74, 0
1, 23998, Note_off_c, 2, 65, 0
1, 23998, Note_off_c, 5, 74, 0
1, 24000, Note_on_c, 0, 76, 96
1, 24000, Note_on_c, 1, 76, 96
1, 24000, Note_on_c, 2, 67, 96
1, 24000, Note_on_c, 3, 58, 96
1, 24000, Note_on_c, 4, 46, 96
1, 24000, Note_on_c, 5, 76, 96
1, 24000, Note_on_c, 6, 58, 96
1, 24021, Note_off_c, 0, 76, 0
1, 24021, Note_off_c, 1, 76, 0
1, 24021, Note_off_c, 2, 67, 0
1, 24021, Note_off_c, 3, 58, 0
1, 24021, Note_off_c, 4, 46, 0
1, 24021, Note_off_c, 5, 76, 0
1, 24021, Note_off_c, 6, 58, 0
1, 24024, Note_on_c, 0, 74, 96
1, 24024, Note_on_c, 1, 74, 96
1, 24024, Note_on_c, 2, 65, 96
1, 24024, Note_on_c, 3, 58, 96
1, 24024, Note_on_c, 4, 46, 96
1, 24024, Note_on_c, 5, 74, 96
1, 24024, Note_on_c, 6, 58, 96
1, 24034, Note_off_c, 0, 74, 0
1, 24034, Note_off_c, 1, 74, 0
1, 24034, Note_off_c, 2, 65, 0
1, 24034, Note_off_c, 5, 74, 0
1, 24036, Note_on_c, 0, 76, 96
1, 24036, Note_on_c, 1, 76, 96
1, 24036, Note_on_c, 2, 67, 96
1, 24036, Note_on_c, 5, 76, 96
1, 24045, Note_off_c, 3, 58, 0
1, 24045, Note_off_c, 4, 46, 0
1, 24045, Note_off_c, 6, 58, 0
1, 24046, Note_off_c, 0, 76, 0
1, 24046, Note_off_c, 1, 76, 0
1, 24046, Note_off_c, 2, 67, 0
1, 24046, Note_off_c, 5, 76, 0
1, 24048, Note_on_c, 0, 77, 96
1, 24048, Note_on_c, 1, 77, 96
1, 24048, Note_on_c, 2, 60, 96
1, 24048, Note_on_c, 3, 58, 96
1, 24048, Note_on_c, 4, 46, 96
1, 24048, Note_on_c, 5, 77, 96
1, 24048, Note_on_c, 6, 58, 96
1, 24058, Note_off_c, 3, 58, 0
1, 24058, Note_off_c, 4, 46, 0
1, 24058, Note_off_c, 6, 58, 0
1, 24060, Note_on_c, 3, 57, 96
1, 24060, Note_on_c, 4, 45, 96
1, 24060, Note_on_c, 6, 57, 96
1, 24069, Note_off_c, 0, 77, 0
1, 24069, Note_off_c, 1, 77, 0
1, 24069, Note_off_c, 2, 60, 0
1, 24069, Note_off_c, 5, 77, 0
1, 24070, Note_off_c, 3, 57, 0
1, 24070, Note_off_c, 4, 45, 0
1, 24070, Note_off_c, 6, 57, 0
1, 24072, Note_on_c, 0, 74, 96
1, 24072, Note_on_c, 1, 74, 96
1, 24072, Note_on_c, 2, 74, 96
1, 24072, Note_on_c, 3, 58, 96
1, 24072, Note_on_c, 4, 46, 96
1, 24072, Note_on_c, 5, 74, 96
1, 24072, Note_on_c, 6, 58, 96
1, 24082, Note_off_c, 0, 74, 0
1, 24082, Note_off_c, 1, 74, 0
1, 24082, Note_off_c, 3, 58, 0
1, 24082, Note_off_c, 4, 46, 0
1, 24082, Note_off_c, 5, 74, 0
1, 24082, Note_off_c, 6, 58, 0
1, 24084, Note_on_c, 0, 76, 96
1, 24084, Note_on_c, 1, 76, 96
1, 24084, Note_on_c, 3, 60, 96
1, 24084, Note_on_c, 4, 48, 96
1, 24084, Note_on_c, 5, 76, 96
1, 24084, Note_on_c, 6, 60, 96
1, 24093, Note_off_c, 2, 74, 0
1, 24094, Note_off_c, 0, 76, 0
1, 24094, Note_off_c, 1, 76, 0
1, 24094, Note_off_c, 3, 60, 0
1, 24094, Note_off_c, 4, 48, 0
1, 24094, Note_off_c, 5, 76, 0
1, 24094, Note_off_c, 6, 60, 0
1, 24096, Note_on_c, 0, 77, 96
1, 24096, Note_on_c, 1, 77, 96
1, 24096, Note_on_c, 2, 69, 96
1, 24096, Note_on_c, 3, 62, 96
1, 24096, Note_on_c, 4, 50, 96
1, 24096, Note_on_c, 5, 77, 96
1, 24096, Note_on_c, 6, 62, 96
1, 24117, Note_off_c, 0, 77, 0
1, 24117, Note_off_c, 1, 77, 0
1, 24117, Note_off_c, 2, 69, 0
1, 24117, Note_off_c, 3, 62, 0
1, 24117, Note_off_c, 4, 50, 0
1, 24117, Note_off_c, 5, 77, 0
1, 24117, Note_off_c, 6, 62, 0
1, 24120, Note_on_c, 0, 76, 96
1, 24120, Note_on_c, 1, 76, 96
1, 24120, Note_on_c, 2, 67, 96
1, 24120, Note_on_c, 3, 62, 96
1, 24120, Note_on_c, 4, 50, 96
1, 24120, Note_on_c, 5, 76, 96
1, 24120, Note_on_c, 6, 62, 96
1, 24130, Note_off_c, 0, 76, 0
1, 24130, Note_off_c, 1, 76, 0
1, 24130, Note_off_c, 2, 67, 0
1, 24130, Note_off_c, 5, 76, 0
1, 24132, Note_on_c, 0, 77, 96
1, 24132, Note_on_c, 1, 77, 96
1, 24132, Note_on_c, 2, 69, 96
1, 24132, Note_on_c, 5, 77, 96
1, 24141, Note_off_c, 3, 62, 0
1, 24141, Note_off_c, 4, 50, 0
1, 24141, Note_off_c, 6, 62, 0
1, 24142, Note_off_c, 0, 77, 0
1, 24142, Note_off_c, 1, 77, 0
1, 24142, Note_off_c, 2, 69, 0
1, 24142, Note_off_c, 5, 77, 0
1, 24144, Note_on_c, 0, 79, 96
1, 24144, Note_on_c, 1, 79, 96
1, 24144, Note_on_c, 2, 70, 96
1, 24144, Note_on_c, 3, 62, 96
1, 24144, Note_on_c, 4, 50, 96
1, 24144, Note_on_c, 5, 79, 96
1, 24144, Note_on_c, 6, 62, 96
1, 24165, Note_off_c, 0, 79, 0
1, 24165, Note_off_c, 1, 79, 0
1, 24165, Note_off_c, 2, 70, 0
1, 24165, Note_off_c, 3, 62, 0
1, 24165, Note_off_c, 4, 50, 0
1, 24165, Note_off_c, 5, 79, 0
1, 24165, Note_off_c, 6, 62, 0
1, 24168, Note_on_c, 0, 77, 96
1, 24168, Note_on_c, 1, 77, 96
1, 24168, Note_on_c, 2, 69, 96
1, 24168, Note_on_c, 3, 62, 96
1, 24168, Note_on_c, 4, 50, 96
1, 24168, Note_on_c, 5, 77, 96
1, 24168, Note_on_c, 6, 62, 96
1, 24178, Note_off_c, 0, 77, 0
1, 24178, Note_off_c, 1, 77, 0
1, 24178, Note_off_c, 2, 69, 0
1, 24178, Note_off_c, 5, 77, 0
1, 24180, Note_on_c, 0, 79, 96
1, 24180, Note_on_c, 1, 79, 96
1, 24180, Note_on_c, 2, 70, 96
1, 24180, Note_on_c, 5, 79, 96
1, 24189, Note_off_c, 3, 62, 0
1, 24189, Note_off_c, 4, 50, 0
1, 24189, Note_off_c, 6, 62, 0
1, 24190, Note_off_c, 0, 79, 0
1, 24190, Note_off_c, 1, 79, 0
1, 24190, Note_off_c, 2, 70, 0
1, 24190, Note_off_c, 5, 79, 0
1, 24192, Note_on_c, 0, 81, 96
1, 24192, Note_on_c, 1, 81, 96
1, 24192, Note_on_c, 2, 64, 96
1, 24192, Note_on_c, 3, 62, 96
1, 24192, Note_on_c, 4, 50, 96
1, 24192, Note_on_c, 5, 81, 96
1, 24192, Note_on_c, 6, 62, 96
1, 24213, Note_off_c, 0, 81, 0
1, 24213, Note_off_c, 1, 81, 0
1, 24213, Note_off_c, 3, 62, 0
1, 24213, Note_off_c, 4, 50, 0
1, 24213, Note_off_c, 5, 81, 0
1, 24213, Note_off_c, 6, 62, 0
1, 24216, Note_on_c, 0, 69, 96
1, 24216, Note_on_c, 1, 69, 96
1, 24216, Note_on_c, 3, 60, 96
1, 24216, Note_on_c, 4, 48, 96
1, 24216, Note_on_c, 5, 69, 96
1, 24216, Note_on_c, 6, 60, 96
1, 24226, Note_off_c, 3, 60, 0
1, 24226, Note_off_c, 4, 48, 0
1, 24226, Note_off_c, 6, 60, 0
1, 24228, Note_on_c, 3, 58, 96
1, 24228, Note_on_c, 4, 46, 96
1, 24228, Note_on_c, 6, 58, 96
1, 24234, Note_off_c, 2, 64, 0
1, 24237, Note_off_c, 0, 69, 0
1, 24237, Note_off_c, 1, 69, 0
1, 24237, Note_off_c, 5, 69, 0
1, 24238, Note_off_c, 3, 58, 0
1, 24238, Note_off_c, 4, 46, 0
1, 24238, Note_off_c, 6, 58, 0
1, 24240, Note_on_c, 0, 81, 96
1, 24240, Note_on_c, 1, 81, 96
1, 24240, Note_on_c, 3, 60, 96
1, 24240, Note_on_c, 4, 48, 96
1, 24240, Note_on_c, 5, 81, 96
1, 24240, Note_on_c, 6, 60, 96
1, 24261, Note_off_c, 0, 81, 0
1, 24261, Note_off_c, 1, 81, 0
1, 24261, Note_off_c, 3, 60, 0
1, 24261, Note_off_c, 4, 48, 0
1, 24261, Note_off_c, 5, 81, 0
1, 24261, Note_off_c, 6, 60, 0
1, 24264, Note_on_c, 0, 79, 96
1, 24264, Note_on_c, 1, 79, 96
1, 24264, Note_on_c, 2, 72, 96
1, 24264, Note_on_c, 3, 57, 96
1, 24264, Note_on_c, 4, 45, 96
1, 24264, Note_on_c, 5, 79, 96
1, 24264, Note_on_c, 6, 57, 96
1, 24274, Note_off_c, 2, 72, 0
1, 24274, Note_off_c, 3, 57, 0
1, 24274, Note_off_c, 4, 45, 0
1, 24274, Note_off_c, 6, 57, 0
1, 24276, Note_on_c, 2, 70, 96
1, 24276, Note_on_c, 3, 58, 96
1, 24276, Note_on_c, 4, 46, 96
1, 24276, Note_on_c, 6, 58, 96
1, 24285, Note_off_c, 0, 79, 0
1, 24285, Note_off_c, 1, 79, 0
1, 24285, Note_off_c, 5, 79, 0
1, 24286, Note_off_c, 2, 70, 0
1, 24286, Note_off_c, 3, 58, 0
1, 24286, Note_off_c, 4, 46, 0
1, 24286, Note_off_c, 6, 58, 0
1, 24288, Note_on_c, 0, 78, 96
1, 24288, Note_on_c, 1, 78, 96
1, 24288, Note_on_c, 2, 69, 96
1, 24288, Note_on_c, 3, 60, 96
1, 24288, Note_on_c, 4, 48, 96
1, 24288, Note_on_c, 5, 78, 96
1, 24288, Note_on_c, 6, 60, 96
1, 24298, Note_off_c, 2, 69, 0
1, 24300, Note_on_c, 2, 67, 96
1, 24309, Note_off_c, 0, 78, 0
1, 24309, Note_off_c, 1, 78, 0
1, 24309, Note_off_c, 3, 60, 0
1, 24309, Note_off_c, 4, 48, 0
1, 24309, Note_off_c, 5, 78, 0
1, 24309, Note_off_c, 6, 60, 0
1, 24310, Note_off_c, 2, 67, 0
1, 24312, Note_on_c, 0, 74, 96
1, 24312, Note_on_c, 1, 74, 96
1, 24312, Note_on_c, 2, 66, 96
1, 24312, Note_on_c, 3, 60, 96
1, 24312, Note_on_c, 4, 48, 96
1, 24312, Note_on_c, 5, 74, 96
1, 24312, Note_on_c, 6, 60, 96
1, 24322, Note_off_c, 2, 66, 0
1, 24324, Note_on_c, 2, 64, 96
1, 24333, Note_off_c, 0, 74, 0
1, 24333, Note_off_c, 1, 74, 0
1, 24333, Note_off_c, 3, 60, 0
1, 24333, Note_off_c, 4, 48, 0
1, 24333, Note_off_c, 5, 74, 0
1, 24333, Note_off_c, 6, 60, 0
1, 24334, Note_off_c, 2, 64, 0
1, 24336, Note_on_c, 0, 79, 96
1, 24336, Note_on_c, 1, 79, 96
1, 24336, Note_on_c, 2, 62, 96
1, 24336, Note_on_c, 3, 60, 96
1, 24336, Note_on_c, 4, 48, 96
1, 24336, Note_on_c, 5, 79, 96
1, 24336, Note_on_c, 6, 60, 96
1, 24357, Note_off_c, 0, 79, 0
1, 24357, Note_off_c, 1, 79, 0
1, 24357, Note_off_c, 2, 62, 0
1, 24357, Note_off_c, 3, 60, 0
1, 24357, Note_off_c, 4, 48, 0
1, 24357, Note_off_c, 5, 79, 0
1, 24357, Note_off_c, 6, 60, 0
1, 24360, Note_on_c, 0, 67, 96
1, 24360, Note_on_c, 1, 67, 96
1, 24360, Note_on_c, 2, 64, 96
1, 24360, Note_on_c, 3, 58, 96
1, 24360, Note_on_c, 4, 46, 96
1, 24360, Note_on_c, 5, 67, 96
1, 24360, Note_on_c, 6, 58, 96
1, 24370, Note_off_c, 0, 67, 0
1, 24370, Note_off_c, 1, 67, 0
1, 24370, Note_off_c, 2, 64, 0
1, 24370, Note_off_c, 3, 58, 0
1, 24370, Note_off_c, 4, 46, 0
1, 24370, Note_off_c, 5, 67, 0
1, 24370, Note_off_c, 6, 58, 0
1, 24372, Note_on_c, 0, 66, 96
1, 24372, Note_on_c, 1, 66, 96
1, 24372, Note_on_c, 2, 66, 96
1, 24372, Note_on_c, 3, 57, 96
1, 24372, Note_on_c, 4, 45, 96
1, 24372, Note_on_c, 5, 66, 96
1, 24372, Note_on_c, 6, 57, 96
1, 24382, Note_off_c, 0, 66, 0
1, 24382, Note_off_c, 1, 66, 0
1, 24382, Note_off_c, 2, 66, 0
1, 24382, Note_off_c, 3, 57, 0
1, 24382, Note_off_c, 4, 45, 0
1, 24382, Note_off_c, 5, 66, 0
1, 24382, Note_off_c, 6, 57, 0
1, 24384, Note_on_c, 0, 67, 96
1, 24384, Note_on_c, 1, 67, 96
1, 24384, Note_on_c, 2, 67, 96
1, 24384, Note_on_c, 3, 58, 96
1, 24384, Note_on_c, 4, 46, 96
1, 24384, Note_on_c, 5, 67, 96
1, 24384, Note_on_c, 6, 58, 96
1, 24394, Note_off_c, 2, 67, 0
1, 24396, Note_on_c, 2, 69, 96
1, 24405, Note_off_c, 0, 67, 0
1, 24405, Note_off_c, 1, 67, 0
1, 24405, Note_off_c, 3, 58, 0
1, 24405, Note_off_c, 4, 46, 0
1, 24405, Note_off_c, 5, 67, 0
1, 24405, Note_off_c, 6, 58, 0
1, 24406, Note_off_c, 2, 69, 0
1, 24408, Note_on_c, 0, 67, 96
1, 24408, Note_on_c, 1, 67, 96
1, 24408, Note_on_c, 2, 70, 96
1, 24408, Note_on_c, 3, 43, 96
1, 24408, Note_on_c, 4, 31, 96
1, 24408, Note_on_c, 5, 67, 96
1, 24408, Note_on_c, 6, 43, 96
1, 24418, Note_off_c, 0, 67, 0
1, 24418, Note_off_c, 1, 67, 0
1, 24418, Note_off_c, 2, 70, 0
1, 24418, Note_off_c, 5, 67, 0
1, 24420, Note_on_c, 0, 69, 96
1, 24420, Note_on_c, 1, 69, 96
1, 24420, Note_on_c, 2, 72, 96
1, 24420, Note_on_c, 5, 69, 96
1, 24429, Note_off_c, 3, 43, 0
1, 24429, Note_off_c, 4, 31, 0
1, 24429, Note_off_c, 6, 43, 0
1, 24430, Note_off_c, 0, 69, 0
1, 24430, Note_off_c, 1, 69, 0
1, 24430, Note_off_c, 2, 72, 0
1, 24430, Note_off_c, 5, 69, 0
1, 24432, Note_on_c, 0, 70, 96
1, 24432, Note_on_c, 1, 70, 96
1, 24432, Note_on_c, 2, 74, 96
1, 24432, Note_on_c, 3, 43, 96
1, 24432, Note_on_c, 4, 31, 96
1, 24432, Note_on_c, 5, 70, 96
1, 24432, Note_on_c, 6, 43, 96
1, 24453, Note_off_c, 0, 70, 0
1, 24453, Note_off_c, 1, 70, 0
1, 24453, Note_off_c, 2, 74, 0
1, 24453, Note_off_c, 3, 43, 0
1, 24453, Note_off_c, 4, 31, 0
1, 24453, Note_off_c, 5, 70, 0
1, 24453, Note_off_c, 6, 43, 0
1, 24456, Note_on_c, 0, 72, 96
1, 24456, Note_on_c, 1, 72, 96
1, 24456, Note_on_c, 2, 67, 96
1, 24456, Note_on_c, 3, 45, 96
1, 24456, Note_on_c, 4, 33, 96
1, 24456, Note_on_c, 5, 72, 96
1, 24456, Note_on_c, 6, 45, 96
1, 24466, Note_off_c, 0, 72, 0
1, 24466, Note_off_c, 1, 72, 0
1, 24466, Note_off_c, 3, 45, 0
1, 24466, Note_off_c, 4, 33, 0
1, 24466, Note_off_c, 5, 72, 0
1, 24466, Note_off_c, 6, 45, 0
1, 24468, Note_on_c, 0, 74, 96
1, 24468, Note_on_c, 1, 74, 96
1, 24468, Note_on_c, 3, 46, 96
1, 24468, Note_on_c, 4, 34, 96
1, 24468, Note_on_c, 5, 74, 96
1, 24468, Note_on_c, 6, 46, 96
1, 24477, Note_off_c, 2, 67, 0
1, 24478, Note_off_c, 0, 74, 0
1, 24478, Note_off_c, 1, 74, 0
1, 24478, Note_off_c, 3, 46, 0
1, 24478, Note_off_c, 4, 34, 0
1, 24478, Note_off_c, 5, 74, 0
1, 24478, Note_off_c, 6, 46, 0
1, 24480, Note_on_c, 0, 75, 96
1, 24480, Note_on_c, 1, 75, 96
1, 24480, Note_on_c, 2, 67, 96
1, 24480, Note_on_c, 3, 48, 96
1, 24480, Note_on_c, 4, 36, 96
1, 24480, Note_on_c, 5, 75, 96
1, 24480, Note_on_c, 6, 48, 96
1, 24501, Note_off_c, 0, 75, 0
1, 24501, Note_off_c, 1, 75, 0
1, 24501, Note_off_c, 2, 67, 0
1, 24501, Note_off_c, 3, 48, 0
1, 24501, Note_off_c, 4, 36, 0
1, 24501, Note_off_c, 5, 75, 0
1, 24501, Note_off_c, 6, 48, 0
1, 24504, Note_on_c, 0, 72, 96
1, 24504, Note_on_c, 1, 72, 96
1, 24504, Note_on_c, 2, 63, 96
1, 24504, Note_on_c, 3, 50, 96
1, 24504, Note_on_c, 4, 38, 96
1, 24504, Note_on_c, 5, 72, 96
1, 24504, Note_on_c, 6, 50, 96
1, 24514, Note_off_c, 0, 72, 0
1, 24514, Note_off_c, 1, 72, 0
1, 24514, Note_off_c, 2, 63, 0
1, 24514, Note_off_c, 3, 50, 0
1, 24514, Note_off_c, 4, 38, 0
1, 24514, Note_off_c, 5, 72, 0
1, 24514, Note_off_c, 6, 50, 0
1, 24516, Note_on_c, 0, 70, 96
1, 24516, Note_on_c, 1, 70, 96
1, 24516, Note_on_c, 2, 62, 96
1, 24516, Note_on_c, 3, 51, 96
1, 24516, Note_on_c, 4, 39, 96
1, 24516, Note_on_c, 5, 70, 96
1, 24516, Note_on_c, 6, 51, 96
1, 24526, Note_off_c, 0, 70, 0
1, 24526, Note_off_c, 1, 70, 0
1, 24526, Note_off_c, 2, 62, 0
1, 24526, Note_off_c, 3, 51, 0
1, 24526, Note_off_c, 4, 39, 0
1, 24526, Note_off_c, 5, 70, 0
1, 24526, Note_off_c, 6, 51, 0
1, 24528, Note_on_c, 0, 69, 96
1, 24528, Note_on_c, 1, 69, 96
1, 24528, Note_on_c, 2, 60, 96
1, 24528, Note_on_c, 3, 53, 96
1, 24528, Note_on_c, 4, 41, 96
1, 24528, Note_on_c, 5, 69, 96
1, 24528, Note_on_c, 6, 53, 96
1, 24549, Note_off_c, 0, 69, 0
1, 24549, Note_off_c, 1, 69, 0
1, 24549, Note_off_c, 2, 60, 0
1, 24549, Note_off_c, 3, 53, 0
1, 24549, Note_off_c, 4, 41, 0
1, 24549, Note_off_c, 5, 69, 0
1, 24549, Note_off_c, 6, 53, 0
1, 24552, Note_on_c, 0, 65, 96
1, 24552, Note_on_c, 1, 65, 96
1, 24552, Note_on_c, 2, 57, 96
1, 24552, Note_on_c, 3, 51, 96
1, 24552, Note_on_c, 4, 39, 96
1, 24552, Note_on_c, 5, 65, 96
1, 24552, Note_on_c, 6, 51, 96
1, 24562, Note_off_c, 0, 65, 0
1, 24562, Note_off_c, 1, 65, 0
1, 24562, Note_off_c, 2, 57, 0
1, 24562, Note_off_c, 5, 65, 0
1, 24564, Note_on_c, 0, 67, 96
1, 24564, Note_on_c, 1, 67, 96
1, 24564, Note_on_c, 2, 58, 96
1, 24564, Note_on_c, 5, 67, 96
1, 24573, Note_off_c, 3, 51, 0
1, 24573, Note_off_c, 4, 39, 0
1, 24573, Note_off_c, 6, 51, 0
1, 24574, Note_off_c, 0, 67, 0
1, 24574, Note_off_c, 1, 67, 0
1, 24574, Note_off_c, 2, 58, 0
1, 24574, Note_off_c, 5, 67, 0
1, 24576, Note_on_c, 0, 69, 96
1, 24576, Note_on_c, 1, 69, 96
1, 24576, Note_on_c, 2, 60, 96
1, 24576, Note_on_c, 3, 50, 96
1, 24576, Note_on_c, 4, 38, 96
1, 24576, Note_on_c, 5, 69, 96
1, 24576, Note_on_c, 6, 50, 96
1, 24597, Note_off_c, 0, 69, 0
1, 24597, Note_off_c, 1, 69, 0
1, 24597, Note_off_c, 2, 60, 0
1, 24597, Note_off_c, 3, 50, 0
1, 24597, Note_off_c, 4, 38, 0
1, 24597, Note_off_c, 5, 69, 0
1, 24597, Note_off_c, 6, 50, 0
1, 24600, Note_on_c, 0, 70, 96
1, 24600, Note_on_c, 1, 70, 96
1, 24600, Note_on_c, 2, 53, 96
1, 24600, Note_on_c, 3, 48, 96
1, 24600, Note_on_c, 4, 36, 96
1, 24600, Note_on_c, 5, 70, 96
1, 24600, Note_on_c, 6, 48, 96
1, 24610, Note_off_c, 0, 70, 0
1, 24610, Note_off_c, 1, 70, 0
1, 24610, Note_off_c, 5, 70, 0
1, 24612, Note_on_c, 0, 72, 96
1, 24612, Note_on_c, 1, 72, 96
1, 24612, Note_on_c, 5, 72, 96
1, 24621, Note_off_c, 2, 53, 0
1, 24621, Note_off_c, 3, 48, 0
1, 24621, Note_off_c, 4, 36, 0
1, 24621, Note_off_c, 6, 48, 0
1, 24622, Note_off_c, 0, 72, 0
1, 24622, Note_off_c, 1, 72, 0
1, 24622, Note_off_c, 5, 72, 0
1, 24624, Note_on_c, 0, 74, 96
1, 24624, Note_on_c, 1, 74, 96
1, 24624, Note_on_c, 2, 65, 96
1, 24624, Note_on_c, 3, 46, 96
1, 24624, Note_on_c, 4, 34, 96
1, 24624, Note_on_c, 5, 74, 96
1, 24624, Note_on_c, 6, 46, 96
1, 24645, Note_off_c, 0, 74, 0
1, 24645, Note_off_c, 1, 74, 0
1, 24645, Note_off_c, 2, 65, 0
1, 24645, Note_off_c, 3, 46, 0
1, 24645, Note_off_c, 4, 34, 0
1, 24645, Note_off_c, 5, 74, 0
1, 24645, Note_off_c, 6, 46, 0
1, 24648, Note_on_c, 0, 70, 96
1, 24648, Note_on_c, 1, 70, 96
1, 24648, Note_on_c, 2, 62, 96
1, 24648, Note_on_c, 3, 48, 96
1, 24648, Note_on_c, 4, 36, 96
1, 24648, Note_on_c, 5, 70, 96
1, 24648, Note_on_c, 6, 48, 96
1, 24658, Note_off_c, 0, 70, 0
1, 24658, Note_off_c, 1, 70, 0
1, 24658, Note_off_c, 2, 62, 0
1, 24658, Note_off_c, 3, 48, 0
1, 24658, Note_off_c, 4, 36, 0
1, 24658, Note_off_c, 5, 70, 0
1, 24658, Note_off_c, 6, 48, 0
1, 24660, Note_on_c, 0, 69, 96
1, 24660, Note_on_c, 1, 69, 96
1, 24660, Note_on_c, 2, 60, 96
1, 24660, Note_on_c, 3, 50, 96
1, 24660, Note_on_c, 4, 38, 96
1, 24660, Note_on_c, 5, 69, 96
1, 24660, Note_on_c, 6, 50, 96
1, 24670, Note_off_c, 0, 69, 0
1, 24670, Note_off_c, 1, 69, 0
1, 24670, Note_off_c, 2, 60, 0
1, 24670, Note_off_c, 3, 50, 0
1, 24670, Note_off_c, 4, 38, 0
1, 24670, Note_off_c, 5, 69, 0
1, 24670, Note_off_c, 6, 50, 0
1, 24672, Note_on_c, 0, 67, 96
1, 24672, Note_on_c, 1, 67, 96
1, 24672, Note_on_c, 2, 58, 96
1, 24672, Note_on_c, 3, 51, 96
1, 24672, Note_on_c, 4, 39, 96
1, 24672, Note_on_c, 5, 67, 96
1, 24672, Note_on_c, 6, 51, 96
1, 24693, Note_off_c, 0, 67, 0
1, 24693, Note_off_c, 1, 67, 0
1, 24693, Note_off_c, 2, 58, 0
1, 24693, Note_off_c, 3, 51, 0
1, 24693, Note_off_c, 4, 39, 0
1, 24693, Note_off_c, 5, 67, 0
1, 24693, Note_off_c, 6, 51, 0
1, 24696, Note_on_c, 0, 79, 96
1, 24696, Note_on_c, 1, 79, 96
1, 24696, Note_on_c, 2, 58, 96
1, 24696, Note_on_c, 3, 50, 96
1, 24696, Note_on_c, 4, 38, 96
1, 24696, Note_on_c, 5, 79, 96
1, 24696, Note_on_c, 6, 50, 96
1, 24706, Note_off_c, 0, 79, 0
1, 24706, Note_off_c, 1, 79, 0
1, 24706, Note_off_c, 5, 79, 0
1, 24708, Note_on_c, 0, 78, 96
1, 24708, Note_on_c, 1, 78, 96
1, 24708, Note_on_c, 5, 78, 96
1, 24717, Note_off_c, 2, 58, 0
1, 24717, Note_off_c, 3, 50, 0
1, 24717, Note_off_c, 4, 38, 0
1, 24717, Note_off_c, 6, 50, 0
1, 24718, Note_off_c, 0, 78, 0
1, 24718, Note_off_c, 1, 78, 0
1, 24718, Note_off_c, 5, 78, 0
1, 24720, Note_on_c, 0, 79, 96
1, 24720, Note_on_c, 1, 79, 96
1, 24720, Note_on_c, 2, 63, 96
1, 24720, Note_on_c, 3, 48, 96
1, 24720, Note_on_c, 4, 36, 96
1, 24720, Note_on_c, 5, 79, 96
1, 24720, Note_on_c, 6, 48, 96
1, 24741, Note_off_c, 0, 79, 0
1, 24741, Note_off_c, 1, 79, 0
1, 24741, Note_off_c, 2, 63, 0
1, 24741, Note_off_c, 3, 48, 0
1, 24741, Note_off_c, 4, 36, 0
1, 24741, Note_off_c, 5, 79, 0
1, 24741, Note_off_c, 6, 48, 0
1, 24744, Note_on_c, 0, 75, 96
1, 24744, Note_on_c, 1, 75, 96
1, 24744, Note_on_c, 2, 67, 96
1, 24744, Note_on_c, 3, 46, 96
1, 24744, Note_on_c, 4, 34, 96
1, 24744, Note_on_c, 5, 75, 96
1, 24744, Note_on_c, 6, 46, 96
1, 24765, Note_off_c, 0, 75, 0
1, 24765, Note_off_c, 1, 75, 0
1, 24765, Note_off_c, 2, 67, 0
1, 24765, Note_off_c, 3, 46, 0
1, 24765, Note_off_c, 4, 34, 0
1, 24765, Note_off_c, 5, 75, 0
1, 24765, Note_off_c, 6, 46, 0
1, 24768, Note_on_c, 0, 72, 96
1, 24768, Note_on_c, 1, 72, 96
1, 24768, Note_on_c, 2, 63, 96
1, 24768, Note_on_c, 3, 45, 96
1, 24768, Note_on_c, 4, 33, 96
1, 24768, Note_on_c, 5, 72, 96
1, 24768, Note_on_c, 6, 45, 96
1, 24789, Note_off_c, 3, 45, 0
1, 24789, Note_off_c, 4, 33, 0
1, 24789, Note_off_c, 6, 45, 0
1, 24792, Note_off_c, 0, 72, 0
1, 24792, Note_on_c, 0, 71, 96
1, 24792, Note_off_c, 1, 72, 0
1, 24792, Note_on_c, 1, 71, 96
1, 24792, Note_on_c, 3, 43, 96
1, 24792, Note_on_c, 4, 31, 96
1, 24792, Note_off_c, 5, 72, 0
1, 24792, Note_on_c, 5, 71, 96
1, 24792, Note_on_c, 6, 43, 96
1, 24810, Note_off_c, 2, 63, 0
1, 24813, Note_off_c, 3, 43, 0
1, 24813, Note_off_c, 4, 31, 0
1, 24813, Note_off_c, 6, 43, 0
1, 24816, Note_off_c, 0, 71, 0
1, 24816, Note_on_c, 0, 72, 96
1, 24816, Note_off_c, 1, 71, 0
1, 24816, Note_on_c, 1, 72, 96
1, 24816, Note_on_c, 3, 42, 96
1, 24816, Note_on_c, 4, 30, 96
1, 24816, Note_off_c, 5, 71, 0
1, 24816, Note_on_c, 5, 72, 96
1, 24816, Note_on_c, 6, 42, 96
1, 24837, Note_off_c, 0, 72, 0
1, 24837, Note_off_c, 1, 72, 0
1, 24837, Note_off_c, 3, 42, 0
1, 24837, Note_off_c, 4, 30, 0
1, 24837, Note_off_c, 5, 72, 0
1, 24837, Note_off_c, 6, 42, 0
1, 24840, Note_on_c, 0, 75, 96
1, 24840, Note_on_c, 1, 75, 96
1, 24840, Note_on_c, 2, 60, 96
1, 24840, Note_on_c, 3, 43, 96
1, 24840, Note_on_c, 4, 31, 96
1, 24840, Note_on_c, 5, 75, 96
1, 24840, Note_on_c, 6, 43, 96
1, 24850, Note_off_c, 0, 75, 0
1, 24850, Note_off_c, 1, 75, 0
1, 24850, Note_off_c, 2, 60, 0
1, 24850, Note_off_c, 5, 75, 0
1, 24852, Note_on_c, 0, 74, 96
1, 24852, Note_on_c, 1, 74, 96
1, 24852, Note_on_c, 2, 58, 96
1, 24852, Note_on_c, 5, 74, 96
1, 24861, Note_off_c, 3, 43, 0
1, 24861, Note_off_c, 4, 31, 0
1, 24861, Note_off_c, 6, 43, 0
1, 24862, Note_off_c, 0, 74, 0
1, 24862, Note_off_c, 1, 74, 0
1, 24862, Note_off_c, 2, 58, 0
1, 24862, Note_off_c, 5, 74, 0
1, 24864, Note_on_c, 0, 75, 96
1, 24864, Note_on_c, 1, 75, 96
1, 24864, Note_on_c, 2, 60, 96
1, 24864, Note_on_c, 3, 45, 96
1, 24864, Note_on_c, 4, 33, 96
1, 24864, Note_on_c, 5, 75, 96
1, 24864, Note_on_c, 6, 45, 96
1, 24885, Note_off_c, 0, 75, 0
1, 24885, Note_off_c, 1, 75, 0
1, 24885, Note_off_c, 2, 60, 0
1, 24885, Note_off_c, 3, 45, 0
1, 24885, Note_off_c, 4, 33, 0
1, 24885, Note_off_c, 5, 75, 0
1, 24885, Note_off_c, 6, 45, 0
1, 24888, Note_on_c, 0, 72, 96
1, 24888, Note_on_c, 1, 72, 96
1, 24888, Note_on_c, 2, 63, 96
1, 24888, Note_on_c, 3, 46, 96
1, 24888, Note_on_c, 4, 34, 96
1, 24888, Note_on_c, 5, 72, 96
1, 24888, Note_on_c, 6, 46, 96
1, 24898, Note_off_c, 2, 63, 0
1, 24900, Note_on_c, 2, 62, 96
1, 24909, Note_off_c, 0, 72, 0
1, 24909, Note_off_c, 1, 72, 0
1, 24909, Note_off_c, 3, 46, 0
1, 24909, Note_off_c, 4, 34, 0
1, 24909, Note_off_c, 5, 72, 0
1, 24909, Note_off_c, 6, 46, 0
1, 24910, Note_off_c, 2, 62, 0
1, 24912, Note_on_c, 0, 68, 96
1, 24912, Note_on_c, 1, 68, 96
1, 24912, Note_on_c, 2, 63, 96
1, 24912, Note_on_c, 3, 48, 96
1, 24912, Note_on_c, 4, 36, 96
1, 24912, Note_on_c, 5, 68, 96
1, 24912, Note_on_c, 6, 48, 96
1, 24933, Note_off_c, 2, 63, 0
1, 24933, Note_off_c, 3, 48, 0
1, 24933, Note_off_c, 4, 36, 0
1, 24933, Note_off_c, 6, 48, 0
1, 24936, Note_off_c, 0, 68, 0
1, 24936, Note_on_c, 0, 67, 96
1, 24936, Note_off_c, 1, 68, 0
1, 24936, Note_on_c, 1, 67, 96
1, 24936, Note_on_c, 2, 62, 96
1, 24936, Note_on_c, 3, 46, 96
1, 24936, Note_on_c, 4, 34, 96
1, 24936, Note_off_c, 5, 68, 0
1, 24936, Note_on_c, 5, 67, 96
1, 24936, Note_on_c, 6, 46, 96
1, 24957, Note_off_c, 2, 62, 0
1, 24957, Note_off_c, 3, 46, 0
1, 24957, Note_off_c, 4, 34, 0
1, 24957, Note_off_c, 6, 46, 0
1, 24960, Note_off_c, 0, 67, 0
1, 24960, Note_on_c, 0, 68, 96
1, 24960, Note_off_c, 1, 67, 0
1, 24960, Note_on_c, 1, 68, 96
1, 24960, Note_on_c, 2, 63, 96
1, 24960, Note_on_c, 3, 48, 96
1, 24960, Note_on_c, 4, 36, 96
1, 24960, Note_off_c, 5, 67, 0
1, 24960, Note_on_c, 5, 68, 96
1, 24960, Note_on_c, 6, 48, 96
1, 24981, Note_off_c, 0, 68, 0
1, 24981, Note_off_c, 1, 68, 0
1, 24981, Note_off_c, 2, 63, 0
1, 24981, Note_off_c, 3, 48, 0
1, 24981, Note_off_c, 4, 36, 0
1, 24981, Note_off_c, 5, 68, 0
1, 24981, Note_off_c, 6, 48, 0
1, 24984, Note_on_c, 0, 72, 96
1, 24984, Note_on_c, 1, 72, 96
1, 24984, Note_on_c, 2, 65, 96
1, 24984, Note_on_c, 3, 50, 96
1, 24984, Note_on_c, 4, 38, 96
1, 24984, Note_on_c, 5, 72, 96
1, 24984, Note_on_c, 6, 50, 96
1, 24994, Note_off_c, 0, 72, 0
1, 24994, Note_off_c, 1, 72, 0
1, 24994, Note_off_c, 5, 72, 0
1, 24996, Note_on_c, 0, 71, 96
1, 24996, Note_on_c, 1, 71, 96
1, 24996, Note_on_c, 5, 71, 96
1, 25005, Note_off_c, 2, 65, 0
1, 25005, Note_off_c, 3, 50, 0
1, 25005, Note_off_c, 4, 38, 0
1, 25005, Note_off_c, 6, 50, 0
1, 25006, Note_off_c, 0, 71, 0
1, 25006, Note_off_c, 1, 71, 0
1, 25006, Note_off_c, 5, 71, 0
1, 25008, Note_on_c, 0, 72, 96
1, 25008, Note_on_c, 1, 72, 96
1, 25008, Note_on_c, 2, 67, 96
1, 25008, Note_on_c, 3, 51, 96
1, 25008, Note_on_c, 4, 39, 96
1, 25008, Note_on_c, 5, 72, 96
1, 25008, Note_on_c, 6, 51, 96
1, 25029, Note_off_c, 0, 72, 0
1, 25029, Note_off_c, 1, 72, 0
1, 25029, Note_off_c, 2, 67, 0
1, 25029, Note_off_c, 3, 51, 0
1, 25029, Note_off_c, 4, 39, 0
1, 25029, Note_off_c, 5, 72, 0
1, 25029, Note_off_c, 6, 51, 0
1, 25032, Note_on_c, 0, 68, 96
1, 25032, Note_on_c, 1, 68, 96
1, 25032, Note_on_c, 2, 63, 96
1, 25032, Note_on_c, 3, 48, 96
1, 25032, Note_on_c, 4, 36, 96
1, 25032, Note_on_c, 5, 68, 96
1, 25032, Note_on_c, 6, 48, 96
1, 25053, Note_off_c, 0, 68, 0
1, 25053, Note_off_c, 1, 68, 0
1, 25053, Note_off_c, 2, 63, 0
1, 25053, Note_off_c, 3, 48, 0
1, 25053, Note_off_c, 4, 36, 0
1, 25053, Note_off_c, 5, 68, 0
1, 25053, Note_off_c, 6, 48, 0
1, 25056, Note_on_c, 0, 66, 96
1, 25056, Note_on_c, 1, 66, 96
1, 25056, Note_on_c, 2, 57, 96
1, 25056, Note_on_c, 3, 50, 96
1, 25056, Note_on_c, 4, 38, 96
1, 25056, Note_on_c, 5, 66, 96
1, 25056, Note_on_c, 6, 50, 96
1, 25077, Note_off_c, 0, 66, 0
1, 25077, Note_off_c, 1, 66, 0
1, 25077, Note_off_c, 5, 66, 0
1, 25077, Note_off_c, 6, 50, 0
1, 25080, Note_on_c, 0, 63, 96
1, 25080, Note_on_c, 1, 63, 96
1, 25080, Note_on_c, 5, 63, 96
1, 25080, Note_on_c, 6, 60, 96
1, 25090, Note_off_c, 0, 63, 0
1, 25090, Note_off_c, 1, 63, 0
1, 25090, Note_off_c, 5, 63, 0
1, 25090, Note_off_c, 6, 60, 0
1, 25092, Note_on_c, 0, 62, 96
1, 25092, Note_on_c, 1, 62, 96
1, 25092, Note_on_c, 5, 62, 96
1, 25092, Note_on_c, 6, 58, 96
1, 25098, Note_off_c, 2, 57, 0
1, 25098, Note_off_c, 3, 50, 0
1, 25098, Note_off_c, 4, 38, 0
1, 25102, Note_off_c, 0, 62, 0
1, 25102, Note_off_c, 1, 62, 0
1, 25102, Note_off_c, 5, 62, 0
1, 25102, Note_off_c, 6, 58, 0
1, 25104, Note_on_c, 0, 63, 96
1, 25104, Note_on_c, 1, 63, 96
1, 25104, Note_on_c, 5, 63, 96
1, 25104, Note_on_c, 6, 60, 96
1, 25125, Note_off_c, 0, 63, 0
1, 25125, Note_off_c, 1, 63, 0
1, 25125, Note_off_c, 5, 63, 0
1, 25125, Note_off_c, 6, 60, 0
1, 25128, Note_on_c, 0, 60, 96
1, 25128, Note_on_c, 1, 60, 96
1, 25128, Note_on_c, 5, 60, 96
1, 25128, Note_on_c, 6, 57, 96
1, 25138, Note_off_c, 0, 60, 0
1, 25138, Note_off_c, 1, 60, 0
1, 25138, Note_off_c, 5, 60, 0
1, 25138, Note_off_c, 6, 57, 0
1, 25140, Note_on_c, 0, 58, 96
1, 25140, Note_on_c, 1, 58, 96
1, 25140, Note_on_c, 5, 58, 96
1, 25140, Note_on_c, 6, 55, 96
1, 25150, Note_off_c, 0, 58, 0
1, 25150, Note_off_c, 1, 58, 0
1, 25150, Note_off_c, 5, 58, 0
1, 25150, Note_off_c, 6, 55, 0
1, 25152, Note_on_c, 0, 60, 96
1, 25152, Note_on_c, 1, 60, 96
1, 25152, Note_on_c, 5, 60, 96
1, 25152, Note_on_c, 6, 57, 96
1, 25173, Note_off_c, 0, 60, 0
1, 25173, Note_off_c, 1, 60, 0
1, 25173, Note_off_c, 5, 60, 0
1, 25173, Note_off_c, 6, 57, 0
1, 25176, Note_on_c, 0, 66, 96
1, 25176, Note_on_c, 1, 66, 96
1, 25176, Note_on_c, 2, 57, 96
1, 25176, Note_on_c, 3, 48, 96
1, 25176, Note_on_c, 4, 36, 96
1, 25176, Note_on_c, 5, 66, 96
1, 25176, Note_on_c, 6, 48, 96
1, 25197, Note_off_c, 0, 66, 0
1, 25197, Note_off_c, 1, 66, 0
1, 25197, Note_off_c, 2, 57, 0
1, 25197, Note_off_c, 3, 48, 0
1, 25197, Note_off_c, 4, 36, 0
1, 25197, Note_off_c, 5, 66, 0
1, 25197, Note_off_c, 6, 48, 0
1, 25200, Note_on_c, 0, 67, 96
1, 25200, Note_on_c, 1, 67, 96
1, 25200, Note_on_c, 2, 62, 96
1, 25200, Note_on_c, 3, 46, 96
1, 25200, Note_on_c, 4, 34, 96
1, 25200, Note_on_c, 5, 67, 96
1, 25200, Note_on_c, 6, 46, 96
1, 25221, Note_off_c, 0, 67, 0
1, 25221, Note_off_c, 1, 67, 0
1, 25221, Note_off_c, 2, 62, 0
1, 25221, Note_off_c, 3, 46, 0
1, 25221, Note_off_c, 4, 34, 0
1, 25221, Note_off_c, 5, 67, 0
1, 25221, Note_off_c, 6, 46, 0
1, 25224, Note_on_c, 0, 58, 96
1, 25224, Note_on_c, 1, 58, 96
1, 25224, Note_on_c, 2, 58, 96
1, 25224, Note_on_c, 3, 45, 96
1, 25224, Note_on_c, 4, 33, 96
1, 25224, Note_on_c, 5, 58, 96
1, 25224, Note_on_c, 6, 45, 96
1, 25234, Note_off_c, 3, 45, 0
1, 25234, Note_off_c, 4, 33, 0
1, 25234, Note_off_c, 6, 45, 0
1, 25236, Note_on_c, 3, 43, 96
1, 25236, Note_on_c, 4, 31, 96
1, 25236, Note_on_c, 6, 43, 96
1, 25245, Note_off_c, 0, 58, 0
1, 25245, Note_off_c, 1, 58, 0
1, 25245, Note_off_c, 2, 58, 0
1, 25245, Note_off_c, 5, 58, 0
1, 25246, Note_off_c, 3, 43, 0
1, 25246, Note_off_c, 4, 31, 0
1, 25246, Note_off_c, 6, 43, 0
1, 25248, Note_on_c, 0, 60, 96
1, 25248, Note_on_c, 1, 60, 96
1, 25248, Note_on_c, 2, 55, 96
1, 25248, Note_on_c, 3, 51, 96
1, 25248, Note_on_c, 4, 39, 96
1, 25248, Note_on_c, 5, 60, 96
1, 25248, Note_on_c, 6, 51, 96
1, 25269, Note_off_c, 0, 60, 0
1, 25269, Note_off_c, 1, 60, 0
1, 25269, Note_off_c, 2, 55, 0
1, 25269, Note_off_c, 3, 51, 0
1, 25269, Note_off_c, 4, 39, 0
1, 25269, Note_off_c, 5, 60, 0
1, 25269, Note_off_c, 6, 51, 0
1, 25272, Note_on_c, 0, 67, 96
1, 25272, Note_on_c, 1, 67, 96
1, 25272, Note_on_c, 2, 60, 96
1, 25272, Note_on_c, 3, 50, 96
1, 25272, Note_on_c, 4, 38, 96
1, 25272, Note_on_c, 5, 67, 96
1, 25272, Note_on_c, 6, 50, 96
1, 25282, Note_off_c, 3, 50, 0
1, 25282, Note_off_c, 4, 38, 0
1, 25282, Note_off_c, 6, 50, 0
1, 25284, Note_on_c, 3, 48, 96
1, 25284, Note_on_c, 4, 36, 96
1, 25284, Note_on_c, 6, 48, 96
1, 25293, Note_off_c, 0, 67, 0
1, 25293, Note_off_c, 1, 67, 0
1, 25293, Note_off_c, 2, 60, 0
1, 25293, Note_off_c, 5, 67, 0
1, 25294, Note_off_c, 3, 48, 0
1, 25294, Note_off_c, 4, 36, 0
1, 25294, Note_off_c, 6, 48, 0
1, 25296, Note_on_c, 0, 62, 96
1, 25296, Note_on_c, 1, 62, 96
1, 25296, Note_on_c, 2, 57, 96
1, 25296, Note_on_c, 3, 50, 96
1, 25296, Note_on_c, 4, 38, 96
1, 25296, Note_on_c, 5, 62, 96
1, 25296, Note_on_c, 6, 50, 96
1, 25306, Note_off_c, 6, 50, 0
1, 25308, Note_on_c, 6, 51, 96
1, 25317, Note_off_c, 0, 62, 0
1, 25317, Note_off_c, 1, 62, 0
1, 25317, Note_off_c, 2, 57, 0
1, 25317, Note_off_c, 3, 50, 0
1, 25317, Note_off_c, 4, 38, 0
1, 25317, Note_off_c, 5, 62, 0
1, 25318, Note_off_c, 6, 51, 0
1, 25320, Note_on_c, 0, 66, 96
1, 25320, Note_on_c, 1, 66, 96
1, 25320, Note_on_c, 2, 62, 96
1, 25320, Note_on_c, 3, 48, 96
1, 25320, Note_on_c, 4, 36, 96
1, 25320, Note_on_c, 5, 66, 96
1, 25320, Note_on_c, 6, 48, 96
1, 25330, Note_off_c, 6, 48, 0
1, 25332, Note_on_c, 6, 50, 96
1, 25341, Note_off_c, 0, 66, 0
1, 25341, Note_off_c, 1, 66, 0
1, 25341, Note_off_c, 2, 62, 0
1, 25341, Note_off_c, 3, 48, 0
1, 25341, Note_off_c, 4, 36, 0
1, 25341, Note_off_c, 5, 66, 0
1, 25342, Note_off_c, 6, 50, 0
1, 25344, Note_on_c, 0, 55, 80
1, 25344, Note_on_c, 1, 55, 80
1, 25344, Note_on_c, 2, 67, 80
1, 25344, Note_on_c, 3, 47, 80
1, 25344, Note_on_c, 4, 35, 80
1, 25344, Note_on_c, 5, 67, 96
1, 25344, Note_on_c, 6, 47, 96
1, 25365, Note_off_c, 2, 67, 0
1, 25365, Note_off_c, 5, 67, 0
1, 25368, Note_on_c, 2, 65, 80
1, 25368, Note_on_c, 5, 65, 96
1, 25378, Note_off_c, 2, 65, 0
1, 25378, Note_off_c, 5, 65, 0
1, 25380, Note_on_c, 2, 63, 80
1, 25380, Note_on_c, 5, 63, 96
1, 25386, Note_off_c, 3, 47, 0
1, 25386, Note_off_c, 4, 35, 0
1, 25386, Note_off_c, 6, 47, 0
1, 25390, Note_off_c, 2, 63, 0
1, 25390, Note_off_c, 5, 63, 0
1, 25392, Note_on_c, 2, 62, 80
1, 25392, Note_on_c, 5, 62, 96
1, 25402, Note_off_c, 5, 62, 0
1, 25404, Note_on_c, 5, 67, 96
1, 25413, Note_off_c, 2, 62, 0
1, 25414, Note_off_c, 5, 67, 0
1, 25416, Note_on_c, 2, 60, 80
1, 25416, Note_on_c, 3, 50, 80
1, 25416, Note_on_c, 4, 38, 80
1, 25416, Note_on_c, 5, 60, 96
1, 25416, Note_on_c, 6, 50, 96
1, 25426, Note_off_c, 5, 60, 0
1, 25428, Note_on_c, 5, 67, 96
1, 25437, Note_off_c, 2, 60, 0
1, 25437, Note_off_c, 3, 50, 0
1, 25437, Note_off_c, 4, 38, 0
1, 25437, Note_off_c, 6, 50, 0
1, 25438, Note_off_c, 5, 67, 0
1, 25440, Note_on_c, 2, 59, 80
1, 25440, Note_on_c, 3, 55, 80
1, 25440, Note_on_c, 4, 43, 80
1, 25440, Note_on_c, 5, 59, 96
1, 25440, Note_on_c, 6, 55, 96
1, 25450, Note_off_c, 5, 59, 0
1, 25452, Note_on_c, 5, 67, 96
1, 25461, Note_off_c, 2, 59, 0
1, 25461, Note_off_c, 3, 55, 0
1, 25461, Note_off_c, 4, 43, 0
1, 25461, Note_off_c, 6, 55, 0
1, 25462, Note_off_c, 5, 67, 0
1, 25464, Note_on_c, 2, 57, 80
1, 25464, Note_on_c, 3, 53, 80
1, 25464, Note_on_c, 4, 41, 80
1, 25464, Note_on_c, 5, 57, 96
1, 25464, Note_on_c, 6, 53, 96
1, 25474, Note_off_c, 5, 57, 0
1, 25476, Note_on_c, 5, 67, 96
1, 25485, Note_off_c, 2, 57, 0
1, 25485, Note_off_c, 3, 53, 0
1, 25485, Note_off_c, 4, 41, 0
1, 25485, Note_off_c, 6, 53, 0
1, 25486, Note_off_c, 5, 67, 0
1, 25488, Note_on_c, 2, 55, 80
1, 25488, Note_on_c, 3, 51, 80
1, 25488, Note_on_c, 4, 39, 80
1, 25488, Note_on_c, 5, 55, 96
1, 25488, Note_on_c, 6, 51, 96
1, 25498, Note_off_c, 2, 55, 0
1, 25498, Note_off_c, 5, 55, 0
1, 25500, Note_on_c, 2, 60, 80
1, 25500, Note_on_c, 5, 60, 96
1, 25509, Note_off_c, 3, 51, 0
1, 25509, Note_off_c, 4, 39, 0
1, 25509, Note_off_c, 6, 51, 0
1, 25510, Note_off_c, 2, 60, 0
1, 25510, Note_off_c, 5, 60, 0
1, 25512, Note_on_c, 2, 62, 80
1, 25512, Note_on_c, 3, 50, 80
1, 25512, Note_on_c, 4, 38, 80
1, 25512, Note_on_c, 5, 62, 96
1, 25512, Note_on_c, 6, 50, 96
1, 25522, Note_off_c, 2, 62, 0
1, 25522, Note_off_c, 3, 50, 0
1, 25522, Note_off_c, 4, 38, 0
1, 25522, Note_off_c, 5, 62, 0
1, 25522, Note_off_c, 6, 50, 0
1, 25524, Note_on_c, 2, 63, 80
1, 25524, Note_on_c, 3, 48, 80
1, 25524, Note_on_c, 4, 36, 80
1, 25524, Note_on_c, 5, 63, 96
1, 25524, Note_on_c, 6, 48, 96
1, 25534, Note_off_c, 2, 63, 0
1, 25534, Note_off_c, 3, 48, 0
1, 25534, Note_off_c, 4, 36, 0
1, 25534, Note_off_c, 5, 63, 0
1, 25534, Note_off_c, 6, 48, 0
1, 25536, Note_on_c, 2, 65, 80
1, 25536, Note_on_c, 3, 47, 80
1, 25536, Note_on_c, 4, 35, 80
1, 25536, Note_on_c, 5, 65, 96
1, 25536, Note_on_c, 6, 47, 96
1, 25546, Note_off_c, 5, 65, 0
1, 25548, Note_on_c, 5, 63, 96
1, 25557, Note_off_c, 2, 65, 0
1, 25557, Note_off_c, 3, 47, 0
1, 25557, Note_off_c, 4, 35, 0
1, 25557, Note_off_c, 6, 47, 0
1, 25558, Note_off_c, 5, 63, 0
1, 25560, Note_on_c, 2, 65, 80
1, 25560, Note_on_c, 3, 50, 80
1, 25560, Note_on_c, 4, 38, 80
1, 25560, Note_on_c, 5, 62, 96
1, 25560, Note_on_c, 6, 50, 96
1, 25570, Note_off_c, 5, 62, 0
1, 25572, Note_on_c, 5, 60, 96
1, 25581, Note_off_c, 2, 65, 0
1, 25581, Note_off_c, 3, 50, 0
1, 25581, Note_off_c, 4, 38, 0
1, 25581, Note_off_c, 6, 50, 0
1, 25582, Note_off_c, 5, 60, 0
1, 25584, Note_on_c, 2, 65, 80
1, 25584, Note_on_c, 3, 47, 80
1, 25584, Note_on_c, 4, 35, 80
1, 25584, Note_on_c, 5, 65, 96
1, 25584, Note_on_c, 6, 47, 96
1, 25594, Note_off_c, 5, 65, 0
1, 25596, Note_on_c, 5, 62, 96
1, 25605, Note_off_c, 2, 65, 0
1, 25605, Note_off_c, 3, 47, 0
1, 25605, Note_off_c, 4, 35, 0
1, 25605, Note_off_c, 6, 47, 0
1, 25606, Note_off_c, 5, 62, 0
1, 25608, Note_on_c, 2, 65, 80
1, 25608, Note_on_c, 3, 43, 80
1, 25608, Note_on_c, 4, 31, 80
1, 25608, Note_on_c, 5, 60, 96
1, 25608, Note_on_c, 6, 43, 96
1, 25618, Note_off_c, 5, 60, 0
1, 25620, Note_on_c, 5, 59, 96
1, 25629, Note_off_c, 2, 65, 0
1, 25629, Note_off_c, 3, 43, 0
1, 25629, Note_off_c, 4, 31, 0
1, 25629, Note_off_c, 6, 43, 0
1, 25630, Note_off_c, 5, 59, 0
1, 25632, Note_on_c, 2, 65, 80
1, 25632, Note_on_c, 3, 48, 80
1, 25632, Note_on_c, 4, 36, 80
1, 25632, Note_on_c, 5, 60, 96
1, 25632, Note_on_c, 6, 48, 96
1, 25642, Note_off_c, 5, 60, 0
1, 25644, Note_on_c, 5, 65, 96
1, 25653, Note_off_c, 2, 65, 0
1, 25653, Note_off_c, 3, 48, 0
1, 25653, Note_off_c, 4, 36, 0
1, 25653, Note_off_c, 6, 48, 0
1, 25654, Note_off_c, 5, 65, 0
1, 25656, Note_on_c, 2, 63, 80
1, 25656, Note_on_c, 3, 55, 80
1, 25656, Note_on_c, 4, 43, 80
1, 25656, Note_on_c, 5, 63, 96
1, 25656, Note_on_c, 6, 55, 96
1, 25666, Note_off_c, 2, 63, 0
1, 25666, Note_off_c, 5, 63, 0
1, 25668, Note_on_c, 2, 62, 80
1, 25668, Note_on_c, 5, 62, 96
1, 25677, Note_off_c, 3, 55, 0
1, 25677, Note_off_c, 4, 43, 0
1, 25677, Note_off_c, 6, 55, 0
1, 25678, Note_off_c, 2, 62, 0
1, 25678, Note_off_c, 5, 62, 0
1, 25680, Note_on_c, 2, 63, 80
1, 25680, Note_on_c, 3, 60, 80
1, 25680, Note_on_c, 4, 48, 80
1, 25680, Note_on_c, 5, 63, 96
1, 25680, Note_on_c, 6, 60, 96
1, 25690, Note_off_c, 5, 63, 0
1, 25692, Note_on_c, 5, 67, 96
1, 25701, Note_off_c, 2, 63, 0
1, 25701, Note_off_c, 3, 60, 0
1, 25701, Note_off_c, 4, 48, 0
1, 25701, Note_off_c, 6, 60, 0
1, 25702, Note_off_c, 5, 67, 0
1, 25704, Note_on_c, 2, 60, 80
1, 25704, Note_on_c, 3, 60, 80
1, 25704, Note_on_c, 4, 48, 80
1, 25704, Note_on_c, 5, 63, 96
1, 25704, Note_on_c, 6, 60, 96
1, 25714, Note_off_c, 2, 60, 0
1, 25714, Note_off_c, 5, 63, 0
1, 25716, Note_on_c, 2, 62, 80
1, 25716, Note_on_c, 5, 62, 96
1, 25725, Note_off_c, 3, 60, 0
1, 25725, Note_off_c, 4, 48, 0
1, 25725, Note_off_c, 6, 60, 0
1, 25726, Note_off_c, 2, 62, 0
1, 25726, Note_off_c, 5, 62, 0
1, 25728, Note_on_c, 2, 63, 80
1, 25728, Note_on_c, 3, 60, 80
1, 25728, Note_on_c, 4, 48, 80
1, 25728, Note_on_c, 5, 63, 96
1, 25728, Note_on_c, 6, 60, 96
1, 25738, Note_off_c, 5, 63, 0
1, 25740, Note_on_c, 5, 67, 96
1, 25749, Note_off_c, 2, 63, 0
1, 25749, Note_off_c, 3, 60, 0
1, 25749, Note_off_c, 4, 48, 0
1, 25749, Note_off_c, 6, 60, 0
1, 25750, Note_off_c, 5, 67, 0
1, 25752, Note_on_c, 2, 63, 80
1, 25752, Note_on_c, 3, 58, 80
1, 25752, Note_on_c, 4, 46, 80
1, 25752, Note_on_c, 5, 72, 96
1, 25752, Note_on_c, 6, 58, 96
1, 25762, Note_off_c, 3, 58, 0
1, 25762, Note_off_c, 4, 46, 0
1, 25762, Note_off_c, 5, 72, 0
1, 25762, Note_off_c, 6, 58, 0
1, 25764, Note_on_c, 3, 57, 80
1, 25764, Note_on_c, 4, 45, 80
1, 25764, Note_on_c, 5, 66, 96
1, 25764, Note_on_c, 6, 57, 96
1, 25773, Note_off_c, 2, 63, 0
1, 25774, Note_off_c, 3, 57, 0
1, 25774, Note_off_c, 4, 45, 0
1, 25774, Note_off_c, 5, 66, 0
1, 25774, Note_off_c, 6, 57, 0
1, 25776, Note_on_c, 2, 63, 80
1, 25776, Note_on_c, 3, 58, 80
1, 25776, Note_on_c, 4, 46, 80
1, 25776, Note_on_c, 5, 67, 96
1, 25776, Note_on_c, 6, 58, 96
1, 25786, Note_off_c, 5, 67, 0
1, 25788, Note_on_c, 5, 63, 96
1, 25797, Note_off_c, 2, 63, 0
1, 25797, Note_off_c, 3, 58, 0
1, 25797, Note_off_c, 4, 46, 0
1, 25797, Note_off_c, 6, 58, 0
1, 25798, Note_off_c, 5, 63, 0
1, 25800, Note_on_c, 2, 62, 80
1, 25800, Note_on_c, 3, 58, 80
1, 25800, Note_on_c, 4, 46, 80
1, 25800, Note_on_c, 5, 62, 96
1, 25800, Note_on_c, 6, 58, 96
1, 25810, Note_off_c, 2, 62, 0
1, 25810, Note_off_c, 3, 58, 0
1, 25810, Note_off_c, 4, 46, 0
1, 25810, Note_off_c, 5, 62, 0
1, 25810, Note_off_c, 6, 58, 0
1, 25812, Note_on_c, 2, 60, 80
1, 25812, Note_on_c, 3, 57, 80
1, 25812, Note_on_c, 4, 45, 80
1, 25812, Note_on_c, 5, 60, 96
1, 25812, Note_on_c, 6, 57, 96
1, 25822, Note_off_c, 2, 60, 0
1, 25822, Note_off_c, 3, 57, 0
1, 25822, Note_off_c, 4, 45, 0
1, 25822, Note_off_c, 5, 60, 0
1, 25822, Note_off_c, 6, 57, 0
1, 25824, Note_on_c, 2, 62, 80
1, 25824, Note_on_c, 3, 58, 80
1, 25824, Note_on_c, 4, 46, 80
1, 25824, Note_on_c, 5, 62, 96
1, 25824, Note_on_c, 6, 58, 96
1, 25836, Note_off_c, 0, 55, 0
1, 25836, Note_off_c, 1, 55, 0
1, 25845, Note_off_c, 2, 62, 0
1, 25845, Note_off_c, 3, 58, 0
1, 25845, Note_off_c, 4, 46, 0
1, 25845, Note_off_c, 5, 62, 0
1, 25845, Note_off_c, 6, 58, 0
1, 25848, Note_on_c, 0, 67, 96
1, 25848, Note_on_c, 1, 67, 96
1, 25848, Note_on_c, 2, 70, 96
1, 25848, Note_on_c, 3, 43, 96
1, 25848, Note_on_c, 4, 31, 96
1, 25848, Note_on_c, 5, 67, 96
1, 25848, Note_on_c, 6, 43, 96
1, 25858, Note_off_c, 0, 67, 0
1, 25858, Note_off_c, 1, 67, 0
1, 25858, Note_off_c, 2, 70, 0
1, 25858, Note_off_c, 3, 43, 0
1, 25858, Note_off_c, 4, 31, 0
1, 25858, Note_off_c, 5, 67, 0
1, 25858, Note_off_c, 6, 43, 0
1, 25860, Note_on_c, 0, 69, 96
1, 25860, Note_on_c, 1, 69, 96
1, 25860, Note_on_c, 2, 69, 96
1, 25860, Note_on_c, 3, 42, 96
1, 25860, Note_on_c, 4, 30, 96
1, 25860, Note_on_c, 5, 69, 96
1, 25860, Note_on_c, 6, 42, 96
1, 25870, Note_off_c, 0, 69, 0
1, 25870, Note_off_c, 1, 69, 0
1, 25870, Note_off_c, 2, 69, 0
1, 25870, Note_off_c, 3, 42, 0
1, 25870, Note_off_c, 4, 30, 0
1, 25870, Note_off_c, 5, 69, 0
1, 25870, Note_off_c, 6, 42, 0
1, 25872, Note_on_c, 0, 70, 96
1, 25872, Note_on_c, 1, 70, 96
1, 25872, Note_on_c, 2, 67, 96
1, 25872, Note_on_c, 3, 43, 96
1, 25872, Note_on_c, 4, 31, 96
1, 25872, Note_on_c, 5, 70, 96
1, 25872, Note_on_c, 6, 43, 96
1, 25882, Note_off_c, 2, 67, 0
1, 25882, Note_off_c, 5, 70, 0
1, 25884, Note_on_c, 2, 65, 96
1, 25884, Note_on_c, 5, 67, 96
1, 25893, Note_off_c, 0, 70, 0
1, 25893, Note_off_c, 1, 70, 0
1, 25893, Note_off_c, 3, 43, 0
1, 25893, Note_off_c, 4, 31, 0
1, 25893, Note_off_c, 6, 43, 0
1, 25894, Note_off_c, 2, 65, 0
1, 25894, Note_off_c, 5, 67, 0
1, 25896, Note_on_c, 0, 72, 96
1, 25896, Note_on_c, 1, 72, 96
1, 25896, Note_on_c, 2, 63, 96
1, 25896, Note_on_c, 3, 45, 96
1, 25896, Note_on_c, 4, 33, 96
1, 25896, Note_on_c, 5, 72, 96
1, 25896, Note_on_c, 6, 45, 96
1, 25906, Note_off_c, 0, 72, 0
1, 25906, Note_off_c, 1, 72, 0
1, 25906, Note_off_c, 2, 63, 0
1, 25906, Note_off_c, 3, 45, 0
1, 25906, Note_off_c, 4, 33, 0
1, 25906, Note_off_c, 5, 72, 0
1, 25906, Note_off_c, 6, 45, 0
1, 25908, Note_on_c, 0, 74, 96
1, 25908, Note_on_c, 1, 74, 96
1, 25908, Note_on_c, 2, 62, 96
1, 25908, Note_on_c, 3, 46, 96
1, 25908, Note_on_c, 4, 34, 96
1, 25908, Note_on_c, 5, 74, 96
1, 25908, Note_on_c, 6, 46, 96
1, 25918, Note_off_c, 0, 74, 0
1, 25918, Note_off_c, 1, 74, 0
1, 25918, Note_off_c, 2, 62, 0
1, 25918, Note_off_c, 3, 46, 0
1, 25918, Note_off_c, 4, 34, 0
1, 25918, Note_off_c, 5, 74, 0
1, 25918, Note_off_c, 6, 46, 0
1, 25920, Note_on_c, 0, 75, 96
1, 25920, Note_on_c, 1, 75, 96
1, 25920, Note_on_c, 2, 60, 96
1, 25920, Note_on_c, 3, 48, 96
1, 25920, Note_on_c, 4, 36, 96
1, 25920, Note_on_c, 5, 75, 96
1, 25920, Note_on_c, 6, 48, 96
1, 25930, Note_off_c, 5, 75, 0
1, 25932, Note_on_c, 5, 74, 96
1, 25941, Note_off_c, 0, 75, 0
1, 25941, Note_off_c, 1, 75, 0
1, 25941, Note_off_c, 2, 60, 0
1, 25941, Note_off_c, 3, 48, 0
1, 25941, Note_off_c, 4, 36, 0
1, 25941, Note_off_c, 6, 48, 0
1, 25942, Note_off_c, 5, 74, 0
1, 25944, Note_on_c, 0, 72, 96
1, 25944, Note_on_c, 1, 72, 96
1, 25944, Note_on_c, 2, 75, 96
1, 25944, Note_on_c, 3, 50, 96
1, 25944, Note_on_c, 4, 38, 96
1, 25944, Note_on_c, 5, 72, 96
1, 25944, Note_on_c, 6, 50, 96
1, 25954, Note_off_c, 0, 72, 0
1, 25954, Note_off_c, 1, 72, 0
1, 25954, Note_off_c, 2, 75, 0
1, 25954, Note_off_c, 3, 50, 0
1, 25954, Note_off_c, 4, 38, 0
1, 25954, Note_off_c, 5, 72, 0
1, 25954, Note_off_c, 6, 50, 0
1, 25956, Note_on_c, 0, 70, 96
1, 25956, Note_on_c, 1, 70, 96
1, 25956, Note_on_c, 2, 74, 96
1, 25956, Note_on_c, 3, 51, 96
1, 25956, Note_on_c, 4, 39, 96
1, 25956, Note_on_c, 5, 70, 96
1, 25956, Note_on_c, 6, 51, 96
1, 25966, Note_off_c, 0, 70, 0
1, 25966, Note_off_c, 1, 70, 0
1, 25966, Note_off_c, 2, 74, 0
1, 25966, Note_off_c, 3, 51, 0
1, 25966, Note_off_c, 4, 39, 0
1, 25966, Note_off_c, 5, 70, 0
1, 25966, Note_off_c, 6, 51, 0
1, 25968, Note_on_c, 0, 69, 96
1, 25968, Note_on_c, 1, 69, 96
1, 25968, Note_on_c, 2, 72, 96
1, 25968, Note_on_c, 3, 53, 96
1, 25968, Note_on_c, 4, 41, 96
1, 25968, Note_on_c, 5, 69, 96
1, 25968, Note_on_c, 6, 53, 96
1, 25978, Note_off_c, 2, 72, 0
1, 25978, Note_off_c, 5, 69, 0
1, 25980, Note_on_c, 2, 70, 96
1, 25980, Note_on_c, 5, 67, 96
1, 25989, Note_off_c, 0, 69, 0
1, 25989, Note_off_c, 1, 69, 0
1, 25989, Note_off_c, 3, 53, 0
1, 25989, Note_off_c, 4, 41, 0
1, 25989, Note_off_c, 6, 53, 0
1, 25990, Note_off_c, 2, 70, 0
1, 25990, Note_off_c, 5, 67, 0
1, 25992, Note_on_c, 0, 65, 96
1, 25992, Note_on_c, 1, 65, 96
1, 25992, Note_on_c, 2, 69, 96
1, 25992, Note_on_c, 3, 51, 96
1, 25992, Note_on_c, 4, 39, 96
1, 25992, Note_on_c, 5, 65, 96
1, 25992, Note_on_c, 6, 51, 96
1, 26002, Note_off_c, 0, 65, 0
1, 26002, Note_off_c, 1, 65, 0
1, 26002, Note_off_c, 2, 69, 0
1, 26002, Note_off_c, 5, 65, 0
1, 26004, Note_on_c, 0, 67, 96
1, 26004, Note_on_c, 1, 67, 96
1, 26004, Note_on_c, 2, 67, 96
1, 26004, Note_on_c, 5, 67, 96
1, 26013, Note_off_c, 3, 51, 0
1, 26013, Note_off_c, 4, 39, 0
1, 26013, Note_off_c, 6, 51, 0
1, 26014, Note_off_c, 0, 67, 0
1, 26014, Note_off_c, 1, 67, 0
1, 26014, Note_off_c, 2, 67, 0
1, 26014, Note_off_c, 5, 67, 0
1, 26016, Note_on_c, 0, 69, 96
1, 26016, Note_on_c, 1, 69, 96
1, 26016, Note_on_c, 2, 65, 96
1, 26016, Note_on_c, 3, 50, 96
1, 26016, Note_on_c, 4, 38, 96
1, 26016, Note_on_c, 5, 69, 96
1, 26016, Note_on_c, 6, 50, 96
1, 26026, Note_off_c, 5, 69, 0
1, 26028, Note_on_c, 5, 65, 96
1, 26037, Note_off_c, 0, 69, 0
1, 26037, Note_off_c, 1, 69, 0
1, 26037, Note_off_c, 2, 65, 0
1, 26037, Note_off_c, 3, 50, 0
1, 26037, Note_off_c, 4, 38, 0
1, 26037, Note_off_c, 6, 50, 0
1, 26038, Note_off_c, 5, 65, 0
1, 26040, Note_on_c, 0, 70, 96
1, 26040, Note_on_c, 1, 70, 96
1, 26040, Note_on_c, 2, 63, 96
1, 26040, Note_on_c, 3, 48, 96
1, 26040, Note_on_c, 4, 36, 96
1, 26040, Note_on_c, 5, 70, 96
1, 26040, Note_on_c, 6, 48, 96
1, 26050, Note_off_c, 0, 70, 0
1, 26050, Note_off_c, 1, 70, 0
1, 26050, Note_off_c, 5, 70, 0
1, 26052, Note_on_c, 0, 72, 96
1, 26052, Note_on_c, 1, 72, 96
1, 26052, Note_on_c, 5, 72, 96
1, 26061, Note_off_c, 2, 63, 0
1, 26061, Note_off_c, 3, 48, 0
1, 26061, Note_off_c, 4, 36, 0
1, 26061, Note_off_c, 6, 48, 0
1, 26062, Note_off_c, 0, 72, 0
1, 26062, Note_off_c, 1, 72, 0
1, 26062, Note_off_c, 5, 72, 0
1, 26064, Note_on_c, 0, 74, 96
1, 26064, Note_on_c, 1, 74, 96
1, 26064, Note_on_c, 2, 62, 96
1, 26064, Note_on_c, 3, 46, 96
1, 26064, Note_on_c, 4, 34, 96
1, 26064, Note_on_c, 5, 74, 96
1, 26064, Note_on_c, 6, 46, 96
1, 26085, Note_off_c, 0, 74, 0
1, 26085, Note_off_c, 1, 74, 0
1, 26085, Note_off_c, 2, 62, 0
1, 26085, Note_off_c, 3, 46, 0
1, 26085, Note_off_c, 4, 34, 0
1, 26085, Note_off_c, 5, 74, 0
1, 26085, Note_off_c, 6, 46, 0
1, 26088, Note_on_c, 0, 70, 96
1, 26088, Note_on_c, 1, 70, 96
1, 26088, Note_on_c, 2, 64, 96
1, 26088, Note_on_c, 3, 48, 96
1, 26088, Note_on_c, 4, 36, 96
1, 26088, Note_on_c, 5, 70, 96
1, 26088, Note_on_c, 6, 48, 96
1, 26098, Note_off_c, 0, 70, 0
1, 26098, Note_off_c, 1, 70, 0
1, 26098, Note_off_c, 2, 64, 0
1, 26098, Note_off_c, 3, 48, 0
1, 26098, Note_off_c, 4, 36, 0
1, 26098, Note_off_c, 5, 70, 0
1, 26098, Note_off_c, 6, 48, 0
1, 26100, Note_on_c, 0, 69, 96
1, 26100, Note_on_c, 1, 69, 96
1, 26100, Note_on_c, 2, 66, 96
1, 26100, Note_on_c, 3, 50, 96
1, 26100, Note_on_c, 4, 38, 96
1, 26100, Note_on_c, 5, 69, 96
1, 26100, Note_on_c, 6, 50, 96
1, 26110, Note_off_c, 0, 69, 0
1, 26110, Note_off_c, 1, 69, 0
1, 26110, Note_off_c, 2, 66, 0
1, 26110, Note_off_c, 3, 50, 0
1, 26110, Note_off_c, 4, 38, 0
1, 26110, Note_off_c, 5, 69, 0
1, 26110, Note_off_c, 6, 50, 0
1, 26112, Note_on_c, 0, 67, 96
1, 26112, Note_on_c, 1, 67, 96
1, 26112, Note_on_c, 2, 67, 96
1, 26112, Note_on_c, 3, 51, 96
1, 26112, Note_on_c, 4, 39, 96
1, 26112, Note_on_c, 5, 67, 96
1, 26112, Note_on_c, 6, 51, 96
1, 26133, Note_off_c, 0, 67, 0
1, 26133, Note_off_c, 1, 67, 0
1, 26133, Note_off_c, 2, 67, 0
1, 26133, Note_off_c, 3, 51, 0
1, 26133, Note_off_c, 4, 39, 0
1, 26133, Note_off_c, 5, 67, 0
1, 26133, Note_off_c, 6, 51, 0
1, 26136, Note_on_c, 2, 67, 96
1, 26136, Note_on_c, 5, 67, 96
1, 26146, Note_off_c, 5, 67, 0
1, 26148, Note_off_c, 2, 67, 0
1, 26148, Note_on_c, 2, 66, 96
1, 26148, Note_on_c, 5, 66, 96
1, 26158, Note_off_c, 5, 66, 0
1, 26160, Note_off_c, 2, 66, 0
1, 26160, Note_on_c, 2, 67, 96
1, 26160, Note_on_c, 5, 67, 96
1, 26172, Note_on_c, 5, 70, 96
1, 26181, Note_off_c, 2, 67, 0
1, 26181, Note_off_c, 5, 67, 0
1, 26182, Note_off_c, 5, 70, 0
1, 26184, Note_on_c, 2, 63, 96
1, 26184, Note_on_c, 5, 79, 96
1, 26184, Note_on_c, 5, 63, 96
1, 26194, Note_off_c, 5, 79, 0
1, 26196, Note_on_c, 5, 70, 96
1, 26205, Note_off_c, 2, 63, 0
1, 26205, Note_off_c, 5, 63, 0
1, 26206, Note_off_c, 5, 70, 0
1, 26208, Note_on_c, 0, 65, 80
1, 26208, Note_on_c, 1, 60, 80
1, 26208, Note_on_c, 2, 60, 80
1, 26208, Note_on_c, 3, 53, 80
1, 26208, Note_on_c, 4, 41, 80
1, 26208, Note_on_c, 5, 70, 96
1, 26208, Note_on_c, 5, 60, 96
1, 26208, Note_on_c, 6, 53, 96
1, 26218, Note_off_c, 5, 70, 0
1, 26220, Note_on_c, 5, 79, 96
1, 26229, Note_off_c, 5, 60, 0
1, 26229, Note_off_c, 6, 53, 0
1, 26230, Note_off_c, 5, 79, 0
1, 26232, Note_off_c, 2, 60, 0
1, 26232, Note_on_c, 2, 59, 80
1, 26232, Note_on_c, 5, 68, 96
1, 26232, Note_on_c, 5, 59, 96
1, 26242, Note_off_c, 5, 68, 0
1, 26244, Note_on_c, 5, 67, 96
1, 26250, Note_off_c, 0, 65, 0
1, 26250, Note_off_c, 1, 60, 0
1, 26250, Note_off_c, 3, 53, 0
1, 26250, Note_off_c, 4, 41, 0
1, 26253, Note_off_c, 5, 59, 0
1, 26254, Note_off_c, 5, 67, 0
1, 26256, Note_off_c, 2, 59, 0
1, 26256, Note_on_c, 2, 60, 80
1, 26256, Note_on_c, 5, 68, 96
1, 26256, Note_on_c, 5, 60, 96
1, 26266, Note_off_c, 5, 68, 0
1, 26268, Note_on_c, 5, 77, 96
1, 26277, Note_off_c, 2, 60, 0
1, 26277, Note_off_c, 5, 60, 0
1, 26278, Note_off_c, 5, 77, 0
1, 26280, Note_on_c, 2, 63, 80
1, 26280, Note_on_c, 5, 67, 96
1, 26280, Note_on_c, 5, 63, 96
1, 26290, Note_off_c, 2, 63, 0
1, 26290, Note_off_c, 5, 67, 0
1, 26290, Note_off_c, 5, 63, 0
1, 26292, Note_on_c, 2, 62, 80
1, 26292, Note_on_c, 5, 65, 96
1, 26292, Note_on_c, 5, 62, 96
1, 26302, Note_off_c, 2, 62, 0
1, 26302, Note_off_c, 5, 65, 0
1, 26302, Note_off_c, 5, 62, 0
1, 26304, Note_on_c, 2, 63, 80
1, 26304, Note_on_c, 5, 67, 96
1, 26304, Note_on_c, 5, 63, 96
1, 26314, Note_off_c, 5, 67, 0
1, 26316, Note_on_c, 5, 75, 96
1, 26325, Note_off_c, 2, 63, 0
1, 26325, Note_off_c, 5, 63, 0
1, 26326, Note_off_c, 5, 75, 0
1, 26328, Note_on_c, 2, 60, 80
1, 26328, Note_on_c, 5, 65, 96
1, 26328, Note_on_c, 5, 60, 96
1, 26338, Note_off_c, 5, 65, 0
1, 26340, Note_on_c, 5, 63, 96
1, 26349, Note_off_c, 2, 60, 0
1, 26349, Note_off_c, 5, 60, 0
1, 26350, Note_off_c, 5, 63, 0
1, 26352, Note_on_c, 0, 65, 80
1, 26352, Note_on_c, 1, 60, 80
1, 26352, Note_on_c, 2, 56, 80
1, 26352, Note_on_c, 3, 51, 80
1, 26352, Note_on_c, 4, 39, 80
1, 26352, Note_on_c, 5, 65, 96
1, 26352, Note_on_c, 5, 56, 96
1, 26352, Note_on_c, 6, 51, 96
1, 26362, Note_off_c, 5, 65, 0
1, 26364, Note_on_c, 5, 74, 96
1, 26373, Note_off_c, 5, 56, 0
1, 26373, Note_off_c, 6, 51, 0
1, 26374, Note_off_c, 5, 74, 0
1, 26376, Note_off_c, 2, 56, 0
1, 26376, Note_on_c, 2, 55, 80
1, 26376, Note_on_c, 5, 72, 96
1, 26376, Note_on_c, 5, 55, 96
1, 26386, Note_off_c, 5, 72, 0
1, 26388, Note_on_c, 5, 71, 96
1, 26394, Note_off_c, 0, 65, 0
1, 26394, Note_off_c, 1, 60, 0
1, 26394, Note_off_c, 3, 51, 0
1, 26394, Note_off_c, 4, 39, 0
1, 26397, Note_off_c, 5, 55, 0
1, 26398, Note_off_c, 5, 71, 0
1, 26400, Note_off_c, 2, 55, 0
1, 26400, Note_on_c, 2, 56, 80
1, 26400, Note_on_c, 5, 72, 96
1, 26400, Note_on_c, 5, 56, 96
1, 26410, Note_off_c, 5, 72, 0
1, 26412, Note_on_c, 5, 75, 96
1, 26421, Note_off_c, 2, 56, 0
1, 26421, Note_off_c, 5, 56, 0
1, 26422, Note_off_c, 5, 75, 0
1, 26424, Note_on_c, 2, 60, 80
1, 26424, Note_on_c, 5, 68, 96
1, 26424, Note_on_c, 5, 60, 96
1, 26434, Note_off_c, 2, 60, 0
1, 26434, Note_off_c, 5, 68, 0
1, 26434, Note_off_c, 5, 60, 0
1, 26436, Note_on_c, 2, 59, 80
1, 26436, Note_on_c, 5, 67, 96
1, 26436, Note_on_c, 5, 59, 96
1, 26446, Note_off_c, 2, 59, 0
1, 26446, Note_off_c, 5, 67, 0
1, 26446, Note_off_c, 5, 59, 0
1, 26448, Note_on_c, 2, 60, 80
1, 26448, Note_on_c, 5, 68, 96
1, 26448, Note_on_c, 5, 60, 96
1, 26458, Note_off_c, 5, 68, 0
1, 26460, Note_on_c, 5, 72, 96
1, 26469, Note_off_c, 2, 60, 0
1, 26469, Note_off_c, 5, 60, 0
1, 26470, Note_off_c, 5, 72, 0
1, 26472, Note_on_c, 2, 56, 80
1, 26472, Note_on_c, 5, 75, 96
1, 26472, Note_on_c, 5, 56, 96
1, 26482, Note_off_c, 5, 75, 0
1, 26484, Note_on_c, 5, 72, 96
1, 26493, Note_off_c, 2, 56, 0
1, 26493, Note_off_c, 5, 56, 0
1, 26494, Note_off_c, 5, 72, 0
1, 26496, Note_on_c, 2, 54, 80
1, 26496, Note_on_c, 5, 81, 96
1, 26496, Note_on_c, 6, 54, 96
1, 26517, Note_off_c, 2, 54, 0
1, 26517, Note_off_c, 5, 81, 0
1, 26517, Note_off_c, 6, 54, 0
1, 26520, Note_on_c, 0, 75, 96
1, 26520, Note_on_c, 1, 75, 96
1, 26520, Note_on_c, 2, 63, 96
1, 26520, Note_on_c, 3, 63, 96
1, 26520, Note_on_c, 4, 51, 96
1, 26520, Note_on_c, 5, 75, 96
1, 26520, Note_on_c, 6, 63, 96
1, 26530, Note_off_c, 5, 75, 0
1, 26530, Note_off_c, 6, 63, 0
1, 26532, Note_off_c, 0, 75, 0
1, 26532, Note_on_c, 0, 74, 96
1, 26532, Note_off_c, 1, 75, 0
1, 26532, Note_on_c, 1, 74, 96
1, 26532, Note_off_c, 2, 63, 0
1, 26532, Note_on_c, 2, 62, 96
1, 26532, Note_off_c, 3, 63, 0
1, 26532, Note_on_c, 3, 62, 96
1, 26532, Note_off_c, 4, 51, 0
1, 26532, Note_on_c, 4, 50, 96
1, 26532, Note_on_c, 5, 74, 96
1, 26532, Note_on_c, 6, 62, 96
1, 26542, Note_off_c, 5, 74, 0
1, 26542, Note_off_c, 6, 62, 0
1, 26544, Note_off_c, 0, 74, 0
1, 26544, Note_on_c, 0, 75, 96
1, 26544, Note_off_c, 1, 74, 0
1, 26544, Note_on_c, 1, 75, 96
1, 26544, Note_off_c, 2, 62, 0
1, 26544, Note_on_c, 2, 63, 96
1, 26544, Note_off_c, 3, 62, 0
1, 26544, Note_on_c, 3, 63, 96
1, 26544, Note_off_c, 4, 50, 0
1, 26544, Note_on_c, 4, 51, 96
1, 26544, Note_on_c, 5, 75, 96
1, 26544, Note_on_c, 6, 63, 96
1, 26565, Note_off_c, 0, 75, 0
1, 26565, Note_off_c, 1, 75, 0
1, 26565, Note_off_c, 2, 63, 0
1, 26565, Note_off_c, 3, 63, 0
1, 26565, Note_off_c, 4, 51, 0
1, 26565, Note_off_c, 5, 75, 0
1, 26565, Note_off_c, 6, 63, 0
1, 26568, Note_on_c, 0, 72, 96
1, 26568, Note_on_c, 1, 72, 96
1, 26568, Note_on_c, 2, 60, 96
1, 26568, Note_on_c, 3, 60, 96
1, 26568, Note_on_c, 4, 48, 96
1, 26568, Note_on_c, 5, 72, 96
1, 26568, Note_on_c, 6, 60, 96
1, 26578, Note_off_c, 5, 72, 0
1, 26578, Note_off_c, 6, 60, 0
1, 26580, Note_off_c, 0, 72, 0
1, 26580, Note_on_c, 0, 71, 96
1, 26580, Note_off_c, 1, 72, 0
1, 26580, Note_on_c, 1, 71, 96
1, 26580, Note_off_c, 2, 60, 0
1, 26580, Note_on_c, 2, 59, 96
1, 26580, Note_off_c, 3, 60, 0
1, 26580, Note_on_c, 3, 59, 96
1, 26580, Note_off_c, 4, 48, 0
1, 26580, Note_on_c, 4, 47, 96
1, 26580, Note_on_c, 5, 71, 96
1, 26580, Note_on_c, 6, 59, 96
1, 26590, Note_off_c, 5, 71, 0
1, 26590, Note_off_c, 6, 59, 0
1, 26592, Note_off_c, 0, 71, 0
1, 26592, Note_on_c, 0, 72, 96
1, 26592, Note_off_c, 1, 71, 0
1, 26592, Note_on_c, 1, 72, 96
1, 26592, Note_off_c, 2, 59, 0
1, 26592, Note_on_c, 2, 60, 96
1, 26592, Note_off_c, 3, 59, 0
1, 26592, Note_on_c, 3, 60, 96
1, 26592, Note_off_c, 4, 47, 0
1, 26592, Note_on_c, 4, 48, 96
1, 26592, Note_on_c, 5, 72, 96
1, 26592, Note_on_c, 6, 60, 96
1, 26613, Note_off_c, 0, 72, 0
1, 26613, Note_off_c, 1, 72, 0
1, 26613, Note_off_c, 2, 60, 0
1, 26613, Note_off_c, 3, 60, 0
1, 26613, Note_off_c, 4, 48, 0
1, 26613, Note_off_c, 5, 72, 0
1, 26613, Note_off_c, 6, 60, 0
1, 26616, Note_on_c, 0, 78, 96
1, 26616, Note_on_c, 1, 78, 96
1, 26616, Note_on_c, 2, 57, 96
1, 26616, Note_on_c, 3, 48, 96
1, 26616, Note_on_c, 4, 36, 96
1, 26616, Note_on_c, 5, 78, 96
1, 26616, Note_on_c, 6, 48, 96
1, 26637, Note_off_c, 0, 78, 0
1, 26637, Note_off_c, 1, 78, 0
1, 26637, Note_off_c, 2, 57, 0
1, 26637, Note_off_c, 3, 48, 0
1, 26637, Note_off_c, 4, 36, 0
1, 26637, Note_off_c, 5, 78, 0
1, 26637, Note_off_c, 6, 48, 0
1, 26640, Note_on_c, 0, 79, 96
1, 26640, Note_on_c, 1, 79, 96
1, 26640, Note_on_c, 2, 62, 96
1, 26640, Note_on_c, 3, 46, 96
1, 26640, Note_on_c, 4, 34, 96
1, 26640, Note_on_c, 5, 79, 96
1, 26640, Note_on_c, 6, 46, 96
1, 26652, Note_off_c, 5, 79, 0
1, 26652, Note_on_c, 5, 81, 96
1, 26658, Note_off_c, 5, 81, 0
1, 26658, Note_on_c, 5, 79, 96
1, 26661, Note_off_c, 0, 79, 0
1, 26661, Note_off_c, 1, 79, 0
1, 26661, Note_off_c, 2, 62, 0
1, 26661, Note_off_c, 3, 46, 0
1, 26661, Note_off_c, 4, 34, 0
1, 26661, Note_off_c, 6, 46, 0
1, 26664, Note_on_c, 0, 70, 96
1, 26664, Note_on_c, 1, 70, 96
1, 26664, Note_on_c, 2, 67, 96
1, 26664, Note_on_c, 3, 43, 96
1, 26664, Note_on_c, 4, 31, 96
1, 26664, Note_off_c, 5, 79, 0
1, 26664, Note_on_c, 5, 78, 96
1, 26664, Note_on_c, 6, 43, 96
1, 26670, Note_off_c, 5, 78, 0
1, 26670, Note_on_c, 5, 79, 96
1, 26674, Note_off_c, 2, 67, 0
1, 26676, Note_on_c, 2, 65, 96
1, 26676, Note_off_c, 5, 79, 0
1, 26676, Note_on_c, 5, 81, 96
1, 26685, Note_off_c, 0, 70, 0
1, 26685, Note_off_c, 1, 70, 0
1, 26685, Note_off_c, 3, 43, 0
1, 26685, Note_off_c, 4, 31, 0
1, 26685, Note_off_c, 6, 43, 0
1, 26686, Note_off_c, 2, 65, 0
1, 26686, Note_off_c, 5, 81, 0
1, 26688, Note_on_c, 0, 72, 96
1, 26688, Note_on_c, 1, 72, 96
1, 26688, Note_on_c, 2, 63, 96
1, 26688, Note_on_c, 3, 48, 96
1, 26688, Note_on_c, 4, 36, 96
1, 26688, Note_on_c, 5, 82, 96
1, 26688, Note_on_c, 6, 48, 96
1, 26694, Note_off_c, 5, 82, 0
1, 26694, Note_on_c, 5, 81, 96
1, 26700, Note_off_c, 5, 81, 0
1, 26700, Note_on_c, 5, 82, 96
1, 26706, Note_off_c, 5, 82, 0
1, 26706, Note_on_c, 5, 81, 96
1, 26709, Note_off_c, 0, 72, 0
1, 26709, Note_off_c, 1, 72, 0
1, 26709, Note_off_c, 2, 63, 0
1, 26709, Note_off_c, 3, 48, 0
1, 26709, Note_off_c, 4, 36, 0
1, 26709, Note_off_c, 6, 48, 0
1, 26712, Note_on_c, 0, 79, 96
1, 26712, Note_on_c, 1, 79, 96
1, 26712, Note_on_c, 2, 60, 96
1, 26712, Note_on_c, 3, 45, 96
1, 26712, Note_on_c, 4, 33, 96
1, 26712, Note_off_c, 5, 81, 0
1, 26712, Note_on_c, 5, 82, 96
1, 26712, Note_on_c, 6, 45, 96
1, 26718, Note_off_c, 5, 82, 0
1, 26718, Note_on_c, 5, 81, 96
1, 26724, Note_off_c, 5, 81, 0
1, 26724, Note_on_c, 5, 82, 96
1, 26730, Note_off_c, 5, 82, 0
1, 26730, Note_on_c, 5, 81, 96
1, 26733, Note_off_c, 0, 79, 0
1, 26733, Note_off_c, 1, 79, 0
1, 26733, Note_off_c, 2, 60, 0
1, 26733, Note_off_c, 3, 45, 0
1, 26733, Note_off_c, 4, 33, 0
1, 26733, Note_off_c, 6, 45, 0
1, 26736, Note_on_c, 0, 69, 96
1, 26736, Note_on_c, 1, 69, 96
1, 26736, Note_on_c, 2, 57, 96
1, 26736, Note_on_c, 3, 50, 96
1, 26736, Note_on_c, 4, 38, 96
1, 26736, Note_off_c, 5, 81, 0
1, 26736, Note_on_c, 5, 82, 96
1, 26736, Note_on_c, 6, 50, 96
1, 26742, Note_off_c, 5, 82, 0
1, 26742, Note_on_c, 5, 81, 96
1, 26757, Note_off_c, 0, 69, 0
1, 26757, Note_off_c, 1, 69, 0
1, 26757, Note_off_c, 2, 57, 0
1, 26757, Note_off_c, 3, 50, 0
1, 26757, Note_off_c, 4, 38, 0
1, 26757, Note_off_c, 6, 50, 0
1, 26758, Note_off_c, 5, 81, 0
1, 26760, Note_on_c, 0, 78, 96
1, 26760, Note_on_c, 1, 78, 96
1, 26760, Note_on_c, 2, 62, 96
1, 26760, Note_on_c, 3, 38, 96
1, 26760, Note_on_c, 4, 26, 96
1, 26760, Note_on_c, 5, 79, 96
1, 26760, Note_on_c, 6, 38, 96
1, 26781, Note_off_c, 0, 78, 0
1, 26781, Note_off_c, 1, 78, 0
1, 26781, Note_off_c, 2, 62, 0
1, 26781, Note_off_c, 3, 38, 0
1, 26781, Note_off_c, 4, 26, 0
1, 26781, Note_off_c, 5, 79, 0
1, 26781, Note_off_c, 6, 38, 0
1, 26784, Note_on_c, 0, 79, 96
1, 26784, Note_on_c, 1, 79, 80
1, 26784, Note_on_c, 2, 58, 96
1, 26784, Note_on_c, 3, 43, 96
1, 26784, Note_on_c, 4, 31, 96
1, 26784, Note_on_c, 5, 79, 96
1, 26784, Note_on_c, 6, 43, 96
1, 26805, Note_off_c, 3, 43, 0
1, 26805, Note_off_c, 4, 31, 0
1, 26805, Note_off_c, 5, 79, 0
1, 26808, Note_on_c, 3, 50, 80
1, 26808, Note_on_c, 4, 38, 80
1, 26808, Note_on_c, 5, 82, 96
1, 26818, Note_off_c, 3, 50, 0
1, 26818, Note_off_c, 4, 38, 0
1, 26818, Note_off_c, 5, 82, 0
1, 26820, Note_on_c, 3, 48, 80
1, 26820, Note_on_c, 4, 36, 80
1, 26820, Note_on_c, 5, 81, 96
1, 26826, Note_off_c, 0, 79, 0
1, 26826, Note_off_c, 2, 58, 0
1, 26826, Note_off_c, 6, 43, 0
1, 26830, Note_off_c, 3, 48, 0
1, 26830, Note_off_c, 4, 36, 0
1, 26830, Note_off_c, 5, 81, 0
1, 26832, Note_on_c, 0, 82, 80
1, 26832, Note_on_c, 2, 62, 80
1, 26832, Note_on_c, 3, 50, 80
1, 26832, Note_on_c, 4, 38, 80
1, 26832, Note_on_c, 5, 82, 96
1, 26842, Note_off_c, 5, 82, 0
1, 26844, Note_on_c, 5, 84, 96
1, 26853, Note_off_c, 3, 50, 0
1, 26853, Note_off_c, 4, 38, 0
1, 26854, Note_off_c, 5, 84, 0
1, 26856, Note_on_c, 3, 55, 80
1, 26856, Note_on_c, 4, 43, 80
1, 26856, Note_on_c, 5, 82, 96
1, 26856, Note_on_c, 6, 55, 96
1, 26866, Note_off_c, 3, 55, 0
1, 26866, Note_off_c, 4, 43, 0
1, 26866, Note_off_c, 5, 82, 0
1, 26866, Note_off_c, 6, 55, 0
1, 26868, Note_on_c, 3, 54, 80
1, 26868, Note_on_c, 4, 42, 80
1, 26868, Note_on_c, 5, 81, 96
1, 26868, Note_on_c, 6, 57, 96
1, 26878, Note_off_c, 3, 54, 0
1, 26878, Note_off_c, 4, 42, 0
1, 26878, Note_off_c, 5, 81, 0
1, 26878, Note_off_c, 6, 57, 0
1, 26880, Note_on_c, 3, 55, 80
1, 26880, Note_on_c, 4, 43, 80
1, 26880, Note_on_c, 5, 79, 96
1, 26880, Note_on_c, 6, 58, 96
1, 26890, Note_off_c, 5, 79, 0
1, 26892, Note_on_c, 5, 81, 96
1, 26901, Note_off_c, 3, 55, 0
1, 26901, Note_off_c, 4, 43, 0
1, 26901, Note_off_c, 6, 58, 0
1, 26902, Note_off_c, 5, 81, 0
1, 26904, Note_on_c, 3, 43, 80
1, 26904, Note_on_c, 4, 31, 80
1, 26904, Note_on_c, 5, 82, 96
1, 26904, Note_on_c, 6, 55, 96
1, 26914, Note_off_c, 5, 82, 0
1, 26916, Note_off_c, 2, 62, 0
1, 26916, Note_on_c, 5, 79, 96
1, 26925, Note_off_c, 3, 43, 0
1, 26925, Note_off_c, 4, 31, 0
1, 26925, Note_off_c, 6, 55, 0
1, 26926, Note_off_c, 5, 79, 0
1, 26928, Note_on_c, 2, 64, 80
1, 26928, Note_on_c, 3, 48, 80
1, 26928, Note_on_c, 4, 36, 80
1, 26928, Note_on_c, 5, 76, 96
1, 26928, Note_on_c, 6, 60, 96
1, 26938, Note_off_c, 5, 76, 0
1, 26940, Note_on_c, 5, 74, 96
1, 26949, Note_off_c, 3, 48, 0
1, 26949, Note_off_c, 4, 36, 0
1, 26949, Note_off_c, 6, 60, 0
1, 26950, Note_off_c, 5, 74, 0
1, 26952, Note_on_c, 3, 50, 80
1, 26952, Note_on_c, 4, 38, 80
1, 26952, Note_on_c, 5, 72, 96
1, 26952, Note_on_c, 6, 55, 96
1, 26962, Note_off_c, 5, 72, 0
1, 26964, Note_on_c, 5, 71, 96
1, 26973, Note_off_c, 3, 50, 0
1, 26973, Note_off_c, 4, 38, 0
1, 26973, Note_off_c, 6, 55, 0
1, 26974, Note_off_c, 5, 71, 0
1, 26976, Note_on_c, 3, 52, 80
1, 26976, Note_on_c, 4, 40, 80
1, 26976, Note_on_c, 5, 72, 96
1, 26976, Note_on_c, 6, 52, 96
1, 26986, Note_off_c, 5, 72, 0
1, 26988, Note_on_c, 5, 74, 96
1, 26997, Note_off_c, 3, 52, 0
1, 26997, Note_off_c, 4, 40, 0
1, 26997, Note_off_c, 6, 52, 0
1, 26998, Note_off_c, 5, 74, 0
1, 27000, Note_on_c, 3, 48, 80
1, 27000, Note_on_c, 4, 36, 80
1, 27000, Note_on_c, 5, 72, 96
1, 27000, Note_on_c, 6, 48, 96
1, 27010, Note_off_c, 5, 72, 0
1, 27012, Note_on_c, 5, 70, 96
1, 27021, Note_off_c, 3, 48, 0
1, 27021, Note_off_c, 4, 36, 0
1, 27021, Note_off_c, 6, 48, 0
1, 27022, Note_off_c, 5, 70, 0
1, 27024, Note_on_c, 3, 50, 80
1, 27024, Note_on_c, 4, 38, 80
1, 27024, Note_on_c, 5, 69, 96
1, 27024, Note_on_c, 6, 50, 96
1, 27034, Note_off_c, 5, 69, 0
1, 27036, Note_on_c, 5, 70, 96
1, 27045, Note_off_c, 3, 50, 0
1, 27045, Note_off_c, 4, 38, 0
1, 27045, Note_off_c, 6, 50, 0
1, 27046, Note_off_c, 5, 70, 0
1, 27048, Note_on_c, 3, 52, 80
1, 27048, Note_on_c, 4, 40, 80
1, 27048, Note_on_c, 5, 72, 96
1, 27048, Note_on_c, 6, 52, 96
1, 27058, Note_off_c, 5, 72, 0
1, 27060, Note_off_c, 0, 82, 0
1, 27060, Note_off_c, 1, 79, 0
1, 27060, Note_off_c, 2, 64, 0
1, 27060, Note_on_c, 5, 69, 96
1, 27069, Note_off_c, 3, 52, 0
1, 27069, Note_off_c, 4, 40, 0
1, 27069, Note_off_c, 6, 52, 0
1, 27070, Note_off_c, 5, 69, 0
1, 27072, Note_on_c, 0, 81, 80
1, 27072, Note_on_c, 1, 77, 80
1, 27072, Note_on_c, 2, 60, 80
1, 27072, Note_on_c, 3, 41, 80
1, 27072, Note_on_c, 4, 29, 80
1, 27072, Note_on_c, 5, 65, 96
1, 27072, Note_on_c, 6, 53, 96
1, 27093, Note_off_c, 3, 41, 0
1, 27093, Note_off_c, 4, 29, 0
1, 27093, Note_off_c, 5, 65, 0
1, 27093, Note_off_c, 6, 53, 0
1, 27096, Note_on_c, 3, 48, 80
1, 27096, Note_on_c, 4, 36, 80
1, 27096, Note_on_c, 5, 81, 96
1, 27096, Note_on_c, 6, 41, 96
1, 27106, Note_off_c, 3, 48, 0
1, 27106, Note_off_c, 4, 36, 0
1, 27106, Note_off_c, 5, 81, 0
1, 27108, Note_on_c, 3, 46, 80
1, 27108, Note_on_c, 4, 34, 80
1, 27108, Note_on_c, 5, 79, 96
1, 27114, Note_off_c, 2, 60, 0
1, 27117, Note_off_c, 6, 41, 0
1, 27118, Note_off_c, 3, 46, 0
1, 27118, Note_off_c, 4, 34, 0
1, 27118, Note_off_c, 5, 79, 0
1, 27120, Note_on_c, 2, 65, 80
1, 27120, Note_on_c, 3, 48, 80
1, 27120, Note_on_c, 4, 36, 80
1, 27120, Note_on_c, 5, 81, 96
1, 27130, Note_off_c, 5, 81, 0
1, 27132, Note_on_c, 5, 82, 96
1, 27141, Note_off_c, 3, 48, 0
1, 27141, Note_off_c, 4, 36, 0
1, 27142, Note_off_c, 5, 82, 0
1, 27144, Note_on_c, 3, 53, 80
1, 27144, Note_on_c, 4, 41, 80
1, 27144, Note_on_c, 5, 81, 96
1, 27144, Note_on_c, 6, 53, 96
1, 27154, Note_off_c, 3, 53, 0
1, 27154, Note_off_c, 4, 41, 0
1, 27154, Note_off_c, 5, 81, 0
1, 27154, Note_off_c, 6, 53, 0
1, 27156, Note_on_c, 3, 52, 80
1, 27156, Note_on_c, 4, 40, 80
1, 27156, Note_on_c, 5, 79, 96
1, 27156, Note_on_c, 6, 55, 96
1, 27166, Note_off_c, 3, 52, 0
1, 27166, Note_off_c, 4, 40, 0
1, 27166, Note_off_c, 5, 79, 0
1, 27166, Note_off_c, 6, 55, 0
1, 27168, Note_on_c, 3, 53, 80
1, 27168, Note_on_c, 4, 41, 80
1, 27168, Note_on_c, 5, 77, 96
1, 27168, Note_on_c, 6, 57, 96
1, 27178, Note_off_c, 5, 77, 0
1, 27180, Note_on_c, 5, 79, 96
1, 27189, Note_off_c, 3, 53, 0
1, 27189, Note_off_c, 4, 41, 0
1, 27189, Note_off_c, 6, 57, 0
1, 27190, Note_off_c, 5, 79, 0
1, 27192, Note_on_c, 3, 41, 80
1, 27192, Note_on_c, 4, 29, 80
1, 27192, Note_on_c, 5, 81, 96
1, 27192, Note_on_c, 6, 53, 96
1, 27202, Note_off_c, 5, 81, 0
1, 27204, Note_on_c, 5, 77, 96
1, 27213, Note_off_c, 3, 41, 0
1, 27213, Note_off_c, 4, 29, 0
1, 27213, Note_off_c, 6, 53, 0
1, 27214, Note_off_c, 5, 77, 0
1, 27216, Note_on_c, 3, 46, 80
1, 27216, Note_on_c, 4, 34, 80
1, 27216, Note_on_c, 5, 74, 96
1, 27216, Note_on_c, 6, 58, 96
1, 27226, Note_off_c, 5, 74, 0
1, 27228, Note_on_c, 5, 72, 96
1, 27237, Note_off_c, 3, 46, 0
1, 27237, Note_off_c, 4, 34, 0
1, 27237, Note_off_c, 6, 58, 0
1, 27238, Note_off_c, 5, 72, 0
1, 27240, Note_on_c, 3, 48, 80
1, 27240, Note_on_c, 4, 36, 80
1, 27240, Note_on_c, 5, 70, 96
1, 27240, Note_on_c, 6, 53, 96
1, 27250, Note_off_c, 5, 70, 0
1, 27252, Note_on_c, 5, 69, 96
1, 27261, Note_off_c, 3, 48, 0
1, 27261, Note_off_c, 4, 36, 0
1, 27261, Note_off_c, 6, 53, 0
1, 27262, Note_off_c, 5, 69, 0
1, 27264, Note_on_c, 3, 50, 80
1, 27264, Note_on_c, 4, 38, 80
1, 27264, Note_on_c, 5, 70, 96
1, 27264, Note_on_c, 6, 50, 96
1, 27274, Note_off_c, 5, 70, 0
1, 27276, Note_on_c, 5, 72, 96
1, 27285, Note_off_c, 3, 50, 0
1, 27285, Note_off_c, 4, 38, 0
1, 27285, Note_off_c, 6, 50, 0
1, 27286, Note_off_c, 5, 72, 0
1, 27288, Note_on_c, 3, 46, 80
1, 27288, Note_on_c, 4, 34, 80
1, 27288, Note_on_c, 5, 70, 96
1, 27288, Note_on_c, 6, 46, 96
1, 27298, Note_off_c, 5, 70, 0
1, 27300, Note_on_c, 5, 69, 96
1, 27309, Note_off_c, 3, 46, 0
1, 27309, Note_off_c, 4, 34, 0
1, 27309, Note_off_c, 6, 46, 0
1, 27310, Note_off_c, 5, 69, 0
1, 27312, Note_on_c, 3, 48, 80
1, 27312, Note_on_c, 4, 36, 80
1, 27312, Note_on_c, 5, 67, 96
1, 27312, Note_on_c, 6, 48, 96
1, 27322, Note_off_c, 5, 67, 0
1, 27324, Note_on_c, 5, 69, 96
1, 27333, Note_off_c, 3, 48, 0
1, 27333, Note_off_c, 4, 36, 0
1, 27333, Note_off_c, 6, 48, 0
1, 27334, Note_off_c, 5, 69, 0
1, 27336, Note_on_c, 3, 50, 80
1, 27336, Note_on_c, 4, 38, 80
1, 27336, Note_on_c, 5, 70, 96
1, 27336, Note_on_c, 6, 50, 96
1, 27346, Note_off_c, 5, 70, 0
1, 27348, Note_off_c, 0, 81, 0
1, 27348, Note_off_c, 1, 77, 0
1, 27348, Note_off_c, 2, 65, 0
1, 27348, Note_on_c, 5, 67, 96
1, 27357, Note_off_c, 3, 50, 0
1, 27357, Note_off_c, 4, 38, 0
1, 27357, Note_off_c, 6, 50, 0
1, 27358, Note_off_c, 5, 67, 0
1, 27360, Note_on_c, 0, 79, 80
1, 27360, Note_on_c, 1, 76, 80
1, 27360, Note_on_c, 2, 67, 80
1, 27360, Note_on_c, 3, 40, 80
1, 27360, Note_on_c, 4, 28, 80
1, 27360, Note_on_c, 5, 64, 96
1, 27360, Note_on_c, 6, 52, 96
1, 27381, Note_off_c, 3, 40, 0
1, 27381, Note_off_c, 4, 28, 0
1, 27381, Note_off_c, 5, 64, 0
1, 27381, Note_off_c, 6, 52, 0
1, 27384, Note_on_c, 3, 47, 80
1, 27384, Note_on_c, 4, 35, 80
1, 27384, Note_on_c, 5, 79, 96
1, 27384, Note_on_c, 6, 40, 96
1, 27394, Note_off_c, 3, 47, 0
1, 27394, Note_off_c, 4, 35, 0
1, 27394, Note_off_c, 5, 79, 0
1, 27396, Note_on_c, 3, 45, 80
1, 27396, Note_on_c, 4, 33, 80
1, 27396, Note_on_c, 5, 77, 96
1, 27405, Note_off_c, 6, 40, 0
1, 27406, Note_off_c, 3, 45, 0
1, 27406, Note_off_c, 4, 33, 0
1, 27406, Note_off_c, 5, 77, 0
1, 27408, Note_on_c, 3, 47, 80
1, 27408, Note_on_c, 4, 35, 80
1, 27408, Note_on_c, 5, 79, 96
1, 27418, Note_off_c, 5, 79, 0
1, 27420, Note_on_c, 5, 81, 96
1, 27429, Note_off_c, 3, 47, 0
1, 27429, Note_off_c, 4, 35, 0
1, 27430, Note_off_c, 5, 81, 0
1, 27432, Note_on_c, 3, 52, 80
1, 27432, Note_on_c, 4, 40, 80
1, 27432, Note_on_c, 5, 79, 96
1, 27432, Note_on_c, 6, 52, 96
1, 27442, Note_off_c, 3, 52, 0
1, 27442, Note_off_c, 4, 40, 0
1, 27442, Note_off_c, 5, 79, 0
1, 27442, Note_off_c, 6, 52, 0
1, 27444, Note_on_c, 3, 50, 80
1, 27444, Note_on_c, 4, 38, 80
1, 27444, Note_on_c, 5, 77, 96
1, 27444, Note_on_c, 6, 53, 96
1, 27454, Note_off_c, 3, 50, 0
1, 27454, Note_off_c, 4, 38, 0
1, 27454, Note_off_c, 5, 77, 0
1, 27454, Note_off_c, 6, 53, 0
1, 27456, Note_on_c, 3, 52, 80
1, 27456, Note_on_c, 4, 40, 80
1, 27456, Note_on_c, 5, 76, 96
1, 27456, Note_on_c, 6, 55, 96
1, 27466, Note_off_c, 5, 76, 0
1, 27468, Note_on_c, 5, 77, 96
1, 27477, Note_off_c, 3, 52, 0
1, 27477, Note_off_c, 4, 40, 0
1, 27477, Note_off_c, 6, 55, 0
1, 27478, Note_off_c, 5, 77, 0
1, 27480, Note_on_c, 3, 40, 80
1, 27480, Note_on_c, 4, 28, 80
1, 27480, Note_on_c, 5, 79, 96
1, 27480, Note_on_c, 6, 52, 96
1, 27490, Note_off_c, 5, 79, 0
1, 27492, Note_off_c, 2, 67, 0
1, 27492, Note_on_c, 5, 76, 96
1, 27501, Note_off_c, 3, 40, 0
1, 27501, Note_off_c, 4, 28, 0
1, 27501, Note_off_c, 6, 52, 0
1, 27502, Note_off_c, 5, 76, 0
1, 27504, Note_on_c, 2, 69, 80
1, 27504, Note_on_c, 3, 45, 80
1, 27504, Note_on_c, 4, 33, 80
1, 27504, Note_on_c, 5, 73, 96
1, 27504, Note_on_c, 6, 57, 96
1, 27514, Note_off_c, 5, 73, 0
1, 27516, Note_on_c, 5, 71, 96
1, 27525, Note_off_c, 3, 45, 0
1, 27525, Note_off_c, 4, 33, 0
1, 27525, Note_off_c, 6, 57, 0
1, 27526, Note_off_c, 5, 71, 0
1, 27528, Note_on_c, 3, 47, 80
1, 27528, Note_on_c, 4, 35, 80
1, 27528, Note_on_c, 5, 69, 96
1, 27528, Note_on_c, 6, 52, 96
1, 27538, Note_off_c, 5, 69, 0
1, 27540, Note_on_c, 5, 68, 96
1, 27549, Note_off_c, 3, 47, 0
1, 27549, Note_off_c, 4, 35, 0
1, 27549, Note_off_c, 6, 52, 0
1, 27550, Note_off_c, 5, 68, 0
1, 27552, Note_on_c, 3, 49, 80
1, 27552, Note_on_c, 4, 37, 80
1, 27552, Note_on_c, 5, 69, 96
1, 27552, Note_on_c, 6, 61, 96
1, 27562, Note_off_c, 5, 69, 0
1, 27564, Note_on_c, 5, 70, 96
1, 27573, Note_off_c, 3, 49, 0
1, 27573, Note_off_c, 4, 37, 0
1, 27573, Note_off_c, 6, 61, 0
1, 27574, Note_off_c, 5, 70, 0
1, 27576, Note_on_c, 3, 45, 80
1, 27576, Note_on_c, 4, 33, 80
1, 27576, Note_on_c, 5, 69, 96
1, 27576, Note_on_c, 6, 57, 96
1, 27586, Note_off_c, 5, 69, 0
1, 27588, Note_on_c, 5, 67, 96
1, 27597, Note_off_c, 3, 45, 0
1, 27597, Note_off_c, 4, 33, 0
1, 27597, Note_off_c, 6, 57, 0
1, 27598, Note_off_c, 5, 67, 0
1, 27600, Note_on_c, 3, 47, 80
1, 27600, Note_on_c, 4, 35, 80
1, 27600, Note_on_c, 5, 65, 96
1, 27600, Note_on_c, 6, 59, 96
1, 27610, Note_off_c, 5, 65, 0
1, 27612, Note_on_c, 5, 67, 96
1, 27621, Note_off_c, 3, 47, 0
1, 27621, Note_off_c, 4, 35, 0
1, 27621, Note_off_c, 6, 59, 0
1, 27622, Note_off_c, 5, 67, 0
1, 27624, Note_on_c, 3, 49, 80
1, 27624, Note_on_c, 4, 37, 80
1, 27624, Note_on_c, 5, 69, 96
1, 27624, Note_on_c, 6, 61, 96
1, 27634, Note_off_c, 5, 69, 0
1, 27636, Note_off_c, 0, 79, 0
1, 27636, Note_off_c, 1, 76, 0
1, 27636, Note_off_c, 2, 69, 0
1, 27636, Note_on_c, 5, 65, 96
1, 27645, Note_off_c, 3, 49, 0
1, 27645, Note_off_c, 4, 37, 0
1, 27645, Note_off_c, 6, 61, 0
1, 27646, Note_off_c, 5, 65, 0
1, 27648, Note_on_c, 0, 77, 80
1, 27648, Note_on_c, 1, 74, 80
1, 27648, Note_on_c, 2, 69, 80
1, 27648, Note_on_c, 3, 38, 80
1, 27648, Note_on_c, 4, 26, 80
1, 27648, Note_on_c, 5, 77, 96
1, 27648, Note_on_c, 5, 74, 96
1, 27648, Note_on_c, 5, 69, 96
1, 27648, Note_on_c, 6, 62, 96
1, 27658, Note_off_c, 6, 62, 0
1, 27660, Note_on_c, 6, 64, 96
1, 27670, Note_off_c, 6, 64, 0
1, 27672, Note_on_c, 6, 65, 96
1, 27682, Note_off_c, 6, 65, 0
1, 27684, Note_on_c, 6, 67, 96
1, 27690, Note_off_c, 0, 77, 0
1, 27690, Note_off_c, 1, 74, 0
1, 27690, Note_off_c, 2, 69, 0
1, 27690, Note_off_c, 3, 38, 0
1, 27690, Note_off_c, 4, 26, 0
1, 27690, Note_off_c, 5, 77, 0
1, 27690, Note_off_c, 5, 74, 0
1, 27690, Note_off_c, 5, 69, 0
1, 27694, Note_off_c, 6, 67, 0
1, 27696, Note_on_c, 6, 69, 96
1, 27706, Note_off_c, 6, 69, 0
1, 27708, Note_on_c, 5, 71, 96
1, 27720, Note_off_c, 5, 71, 0
1, 27720, Note_on_c, 5, 73, 96
1, 27732, Note_off_c, 5, 73, 0
1, 27732, Note_on_c, 5, 74, 96
1, 27744, Note_off_c, 5, 74, 0
1, 27744, Note_on_c, 5, 73, 96
1, 27756, Note_off_c, 5, 73, 0
1, 27756, Note_on_c, 5, 74, 96
1, 27768, Note_off_c, 5, 74, 0
1, 27768, Note_on_c, 5, 73, 96
1, 27780, Note_off_c, 5, 73, 0
1, 27780, Note_on_c, 5, 74, 96
1, 27790, Note_off_c, 5, 74, 0
1, 27792, Note_on_c, 0, 79, 80
1, 27792, Note_on_c, 1, 73, 80
1, 27792, Note_on_c, 2, 64, 80
1, 27792, Note_on_c, 5, 73, 96
1, 27792, Note_on_c, 6, 64, 96
1, 27804, Note_on_c, 5, 79, 96
1, 27813, Note_off_c, 6, 64, 0
1, 27816, Note_on_c, 6, 65, 96
1, 27826, Note_off_c, 6, 65, 0
1, 27828, Note_on_c, 6, 67, 96
1, 27834, Note_off_c, 0, 79, 0
1, 27834, Note_off_c, 1, 73, 0
1, 27834, Note_off_c, 2, 64, 0
1, 27834, Note_off_c, 5, 73, 0
1, 27835, Note_off_c, 5, 79, 0
1, 27838, Note_off_c, 6, 67, 0
1, 27840, Note_on_c, 6, 69, 96
1, 27850, Note_off_c, 6, 69, 0
1, 27852, Note_on_c, 5, 71, 96
1, 27864, Note_off_c, 5, 71, 0
1, 27864, Note_on_c, 5, 73, 96
1, 27876, Note_off_c, 5, 73, 0
1, 27876, Note_on_c, 5, 74, 96
1, 27888, Note_off_c, 5, 74, 0
1, 27888, Note_on_c, 5, 73, 96
1, 27900, Note_off_c, 5, 73, 0
1, 27900, Note_on_c, 5, 74, 96
1, 27912, Note_off_c, 5, 74, 0
1, 27912, Note_on_c, 5, 73, 96
1, 27924, Note_off_c, 5, 73, 0
1, 27924, Note_on_c, 5, 74, 96
1, 27934, Note_off_c, 5, 74, 0
1, 27936, Note_on_c, 0, 81, 80
1, 27936, Note_on_c, 1, 74, 80
1, 27936, Note_on_c, 2, 65, 80
1, 27936, Note_on_c, 5, 81, 96
1, 27936, Note_on_c, 6, 65, 96
1, 27946, Note_off_c, 6, 65, 0
1, 27948, Note_on_c, 5, 74, 96
1, 27948, Note_on_c, 6, 64, 96
1, 27958, Note_off_c, 6, 64, 0
1, 27960, Note_on_c, 6, 65, 96
1, 27970, Note_off_c, 6, 65, 0
1, 27972, Note_on_c, 6, 67, 96
1, 27978, Note_off_c, 0, 81, 0
1, 27978, Note_off_c, 1, 74, 0
1, 27978, Note_off_c, 2, 65, 0
1, 27978, Note_off_c, 5, 81, 0
1, 27979, Note_off_c, 5, 74, 0
1, 27982, Note_off_c, 6, 67, 0
1, 27984, Note_on_c, 6, 69, 96
1, 27994, Note_off_c, 6, 69, 0
1, 27996, Note_on_c, 5, 71, 96
1, 28008, Note_off_c, 5, 71, 0
1, 28008, Note_on_c, 5, 73, 96
1, 28020, Note_off_c, 5, 73, 0
1, 28020, Note_on_c, 5, 74, 96
1, 28032, Note_off_c, 5, 74, 0
1, 28032, Note_on_c, 5, 73, 96
1, 28044, Note_off_c, 5, 73, 0
1, 28044, Note_on_c, 5, 74, 96
1, 28056, Note_off_c, 5, 74, 0
1, 28056, Note_on_c, 5, 73, 96
1, 28068, Note_off_c, 5, 73, 0
1, 28068, Note_on_c, 5, 74, 96
1, 28080, Note_on_c, 0, 82, 80
1, 28080, Note_on_c, 1, 74, 80
1, 28080, Note_on_c, 2, 67, 80
1, 28080, Note_on_c, 5, 82, 96
1, 28080, Note_on_c, 5, 79, 96
1, 28080, Note_on_c, 6, 67, 96
1, 28090, Note_off_c, 6, 67, 0
1, 28092, Note_on_c, 6, 66, 96
1, 28102, Note_off_c, 6, 66, 0
1, 28104, Note_on_c, 6, 67, 96
1, 28114, Note_off_c, 6, 67, 0
1, 28116, Note_on_c, 6, 69, 96
1, 28120, Note_off_c, 5, 74, 0
1, 28122, Note_off_c, 0, 82, 0
1, 28122, Note_off_c, 1, 74, 0
1, 28122, Note_off_c, 2, 67, 0
1, 28122, Note_off_c, 5, 82, 0
1, 28122, Note_off_c, 5, 79, 0
1, 28126, Note_off_c, 6, 69, 0
1, 28128, Note_on_c, 6, 70, 96
1, 28138, Note_off_c, 6, 70, 0
1, 28140, Note_on_c, 5, 72, 96
1, 28152, Note_off_c, 5, 72, 0
1, 28152, Note_on_c, 5, 74, 96
1, 28164, Note_off_c, 5, 74, 0
1, 28164, Note_on_c, 5, 76, 96
1, 28176, Note_off_c, 5, 76, 0
1, 28176, Note_on_c, 5, 78, 96
1, 28188, Note_off_c, 5, 78, 0
1, 28188, Note_on_c, 5, 79, 96
1, 28200, Note_off_c, 5, 79, 0
1, 28200, Note_on_c, 5, 78, 96
1, 28212, Note_off_c, 5, 78, 0
1, 28212, Note_on_c, 5, 79, 96
1, 28222, Note_off_c, 5, 79, 0
1, 28224, Note_on_c, 0, 78, 80
1, 28224, Note_on_c, 1, 72, 80
1, 28224, Note_on_c, 2, 69, 80
1, 28224, Note_on_c, 5, 78, 96
1, 28224, Note_on_c, 6, 69, 96
1, 28236, Note_on_c, 5, 84, 96
1, 28245, Note_off_c, 6, 69, 0
1, 28248, Note_on_c, 6, 70, 96
1, 28258, Note_off_c, 6, 70, 0
1, 28260, Note_on_c, 6, 72, 96
1, 28266, Note_off_c, 0, 78, 0
1, 28266, Note_off_c, 1, 72, 0
1, 28266, Note_off_c, 2, 69, 0
1, 28266, Note_off_c, 5, 78, 0
1, 28267, Note_off_c, 5, 84, 0
1, 28270, Note_off_c, 6, 72, 0
1, 28272, Note_on_c, 6, 74, 96
1, 28282, Note_off_c, 6, 74, 0
1, 28284, Note_on_c, 5, 76, 96
1, 28296, Note_off_c, 5, 76, 0
1, 28296, Note_on_c, 5, 78, 96
1, 28308, Note_off_c, 5, 78, 0
1, 28308, Note_on_c, 5, 79, 96
1, 28320, Note_off_c, 5, 79, 0
1, 28320, Note_on_c, 5, 78, 96
1, 28332, Note_off_c, 5, 78, 0
1, 28332, Note_on_c, 5, 79, 96
1, 28344, Note_off_c, 5, 79, 0
1, 28344, Note_on_c, 5, 78, 96
1, 28356, Note_off_c, 5, 78, 0
1, 28356, Note_on_c, 5, 79, 96
1, 28366, Note_off_c, 5, 79, 0
1, 28368, Note_on_c, 0, 79, 80
1, 28368, Note_on_c, 1, 74, 80
1, 28368, Note_on_c, 2, 70, 80
1, 28368, Note_on_c, 5, 86, 96
1, 28368, Note_on_c, 6, 70, 96
1, 28378, Note_off_c, 6, 70, 0
1, 28380, Note_on_c, 5, 79, 96
1, 28380, Note_on_c, 6, 69, 96
1, 28390, Note_off_c, 6, 69, 0
1, 28392, Note_on_c, 6, 70, 96
1, 28402, Note_off_c, 6, 70, 0
1, 28404, Note_on_c, 6, 72, 96
1, 28410, Note_off_c, 0, 79, 0
1, 28410, Note_off_c, 1, 74, 0
1, 28410, Note_off_c, 2, 70, 0
1, 28410, Note_off_c, 5, 86, 0
1, 28411, Note_off_c, 5, 79, 0
1, 28414, Note_off_c, 6, 72, 0
1, 28416, Note_on_c, 6, 74, 96
1, 28426, Note_off_c, 6, 74, 0
1, 28428, Note_on_c, 5, 76, 96
1, 28440, Note_off_c, 5, 76, 0
1, 28440, Note_on_c, 5, 78, 96
1, 28452, Note_off_c, 5, 78, 0
1, 28452, Note_on_c, 5, 79, 96
1, 28464, Note_off_c, 5, 79, 0
1, 28464, Note_on_c, 5, 78, 96
1, 28476, Note_off_c, 5, 78, 0
1, 28476, Note_on_c, 5, 79, 96
1, 28488, Note_off_c, 5, 79, 0
1, 28488, Note_on_c, 5, 78, 96
1, 28500, Note_off_c, 5, 78, 0
1, 28500, Note_on_c, 5, 79, 96
1, 28510, Note_off_c, 5, 79, 0
1, 28512, Note_on_c, 0, 80, 80
1, 28512, Note_on_c, 1, 74, 80
1, 28512, Note_on_c, 2, 71, 80
1, 28512, Note_on_c, 5, 86, 96
1, 28512, Note_on_c, 6, 71, 96
1, 28522, Note_off_c, 6, 71, 0
1, 28524, Note_on_c, 5, 80, 96
1, 28524, Note_on_c, 6, 69, 96
1, 28534, Note_off_c, 6, 69, 0
1, 28536, Note_on_c, 6, 71, 96
1, 28546, Note_off_c, 6, 71, 0
1, 28548, Note_on_c, 6, 72, 96
1, 28554, Note_off_c, 0, 80, 0
1, 28554, Note_off_c, 1, 74, 0
1, 28554, Note_off_c, 2, 71, 0
1, 28554, Note_off_c, 5, 86, 0
1, 28555, Note_off_c, 5, 80, 0
1, 28558, Note_off_c, 6, 72, 0
1, 28560, Note_on_c, 6, 74, 96
1, 28570, Note_off_c, 6, 74, 0
1, 28572, Note_on_c, 5, 76, 96
1, 28582, Note_off_c, 5, 76, 0
1, 28584, Note_on_c, 5, 77, 96
1, 28594, Note_off_c, 5, 77, 0
1, 28596, Note_on_c, 5, 81, 96
1, 28606, Note_off_c, 5, 81, 0
1, 28608, Note_on_c, 5, 80, 96
1, 28618, Note_off_c, 5, 80, 0
1, 28620, Note_on_c, 5, 81, 96
1, 28630, Note_off_c, 5, 81, 0
1, 28632, Note_on_c, 5, 80, 96
1, 28642, Note_off_c, 5, 80, 0
1, 28644, Note_on_c, 5, 81, 96
1, 28656, Note_on_c, 0, 81, 80
1, 28656, Note_on_c, 1, 76, 80
1, 28656, Note_on_c, 2, 72, 80
1, 28656, Note_on_c, 5, 76, 96
1, 28656, Note_on_c, 6, 72, 96
1, 28666, Note_off_c, 6, 72, 0
1, 28668, Note_on_c, 6, 71, 96
1, 28678, Note_off_c, 6, 71, 0
1, 28680, Note_on_c, 6, 72, 96
1, 28690, Note_off_c, 6, 72, 0
1, 28692, Note_on_c, 6, 74, 96
1, 28696, Note_off_c, 5, 81, 0
1, 28698, Note_off_c, 0, 81, 0
1, 28698, Note_off_c, 1, 76, 0
1, 28698, Note_off_c, 2, 72, 0
1, 28698, Note_off_c, 5, 76, 0
1, 28702, Note_off_c, 6, 74, 0
1, 28704, Note_on_c, 6, 76, 96
1, 28714, Note_off_c, 6, 76, 0
1, 28716, Note_on_c, 6, 77, 96
1, 28726, Note_off_c, 6, 77, 0
1, 28728, Note_on_c, 6, 79, 96
1, 28738, Note_off_c, 6, 79, 0
1, 28740, Note_on_c, 6, 81, 96
1, 28750, Note_off_c, 6, 81, 0
1, 28752, Note_on_c, 6, 82, 96
1, 28757, Note_off_c, 6, 82, 0
1, 28758, Note_on_c, 6, 81, 96
1, 28763, Note_off_c, 6, 81, 0
1, 28764, Note_on_c, 6, 79, 96
1, 28769, Note_off_c, 6, 79, 0
1, 28770, Note_on_c, 6, 77, 96
1, 28775, Note_off_c, 6, 77, 0
1, 28776, Note_on_c, 6, 76, 96
1, 28781, Note_off_c, 6, 76, 0
1, 28782, Note_on_c, 6, 74, 96
1, 28787, Note_off_c, 6, 74, 0
1, 28788, Note_on_c, 6, 73, 96
1, 28793, Note_off_c, 6, 73, 0
1, 28794, Note_on_c, 6, 71, 96
1, 28799, Note_off_c, 6, 71, 0
1, 28800, Note_on_c, 0, 82, 80
1, 28800, Note_on_c, 1, 76, 80
1, 28800, Note_on_c, 2, 73, 80
1, 28800, Note_on_c, 6, 73, 96
1, 28810, Note_off_c, 6, 73, 0
1, 28812, Note_on_c, 6, 74, 96
1, 28822, Note_off_c, 6, 74, 0
1, 28824, Note_off_c, 0, 82, 0
1, 28824, Note_on_c, 0, 82, 80
1, 28824, Note_off_c, 1, 76, 0
1, 28824, Note_on_c, 1, 76, 80
1, 28824, Note_off_c, 2, 73, 0
1, 28824, Note_on_c, 2, 73, 80
1, 28824, Note_on_c, 5, 76, 96
1, 28834, Note_off_c, 5, 76, 0
1, 28836, Note_on_c, 5, 79, 96
1, 28846, Note_off_c, 5, 79, 0
1, 28848, Note_off_c, 0, 82, 0
1, 28848, Note_on_c, 0, 82, 80
1, 28848, Note_off_c, 1, 76, 0
1, 28848, Note_on_c, 1, 79, 80
1, 28848, Note_off_c, 2, 73, 0
1, 28848, Note_on_c, 2, 73, 80
1, 28848, Note_on_c, 6, 76, 96
1, 28858, Note_off_c, 6, 76, 0
1, 28860, Note_on_c, 6, 77, 96
1, 28870, Note_off_c, 6, 77, 0
1, 28872, Note_off_c, 0, 82, 0
1, 28872, Note_on_c, 0, 82, 80
1, 28872, Note_off_c, 1, 79, 0
1, 28872, Note_on_c, 1, 79, 80
1, 28872, Note_off_c, 2, 73, 0
1, 28872, Note_on_c, 2, 73, 80
1, 28872, Note_on_c, 5, 79, 96
1, 28882, Note_off_c, 5, 79, 0
1, 28884, Note_on_c, 5, 82, 96
1, 28894, Note_off_c, 5, 82, 0
1, 28896, Note_off_c, 0, 82, 0
1, 28896, Note_on_c, 0, 82, 80
1, 28896, Note_off_c, 1, 79, 0
1, 28896, Note_on_c, 1, 76, 80
1, 28896, Note_off_c, 2, 73, 0
1, 28896, Note_on_c, 2, 73, 80
1, 28896, Note_on_c, 6, 79, 96
1, 28906, Note_off_c, 6, 79, 0
1, 28908, Note_on_c, 6, 81, 96
1, 28918, Note_off_c, 6, 81, 0
1, 28920, Note_off_c, 0, 82, 0
1, 28920, Note_on_c, 0, 82, 80
1, 28920, Note_off_c, 1, 76, 0
1, 28920, Note_on_c, 1, 76, 80
1, 28920, Note_off_c, 2, 73, 0
1, 28920, Note_on_c, 2, 73, 80
1, 28920, Note_on_c, 5, 82, 96
1, 28930, Note_off_c, 5, 82, 0
1, 28932, Note_on_c, 5, 85, 96
1, 28941, Note_off_c, 0, 82, 0
1, 28941, Note_off_c, 1, 76, 0
1, 28941, Note_off_c, 2, 73, 0
1, 28942, Note_off_c, 5, 85, 0
1, 28944, Note_on_c, 0, 81, 80
1, 28944, Note_on_c, 1, 78, 80
1, 28944, Note_on_c, 2, 72, 80
1, 28944, Note_on_c, 6, 78, 96
1, 28954, Note_off_c, 6, 78, 0
1, 28956, Note_on_c, 6, 79, 96
1, 28966, Note_off_c, 6, 79, 0
1, 28968, Note_off_c, 0, 81, 0
1, 28968, Note_on_c, 0, 81, 80
1, 28968, Note_off_c, 1, 78, 0
1, 28968, Note_on_c, 1, 78, 80
1, 28968, Note_off_c, 2, 72, 0
1, 28968, Note_on_c, 2, 72, 80
1, 28968, Note_on_c, 5, 81, 96
1, 28978, Note_off_c, 5, 81, 0
1, 28980, Note_on_c, 5, 86, 96
1, 28990, Note_off_c, 5, 86, 0
1, 28992, Note_off_c, 0, 81, 0
1, 28992, Note_on_c, 0, 81, 80
1, 28992, Note_off_c, 1, 78, 0
1, 28992, Note_on_c, 1, 78, 80
1, 28992, Note_off_c, 2, 72, 0
1, 28992, Note_on_c, 2, 72, 80
1, 28992, Note_on_c, 6, 74, 96
1, 29002, Note_off_c, 6, 74, 0
1, 29004, Note_on_c, 6, 76, 96
1, 29014, Note_off_c, 6, 76, 0
1, 29016, Note_off_c, 0, 81, 0
1, 29016, Note_on_c, 0, 81, 80
1, 29016, Note_off_c, 1, 78, 0
1, 29016, Note_on_c, 1, 78, 80
1, 29016, Note_off_c, 2, 72, 0
1, 29016, Note_on_c, 2, 72, 80
1, 29016, Note_on_c, 5, 78, 96
1, 29026, Note_off_c, 5, 78, 0
1, 29028, Note_on_c, 5, 81, 96
1, 29038, Note_off_c, 5, 81, 0
1, 29040, Note_off_c, 0, 81, 0
1, 29040, Note_on_c, 0, 81, 80
1, 29040, Note_off_c, 1, 78, 0
1, 29040, Note_on_c, 1, 78, 80
1, 29040, Note_off_c, 2, 72, 0
1, 29040, Note_on_c, 2, 72, 80
1, 29040, Note_on_c, 6, 72, 96
1, 29050, Note_off_c, 6, 72, 0
1, 29052, Note_on_c, 6, 74, 96
1, 29062, Note_off_c, 6, 74, 0
1, 29064, Note_off_c, 0, 81, 0
1, 29064, Note_on_c, 0, 81, 80
1, 29064, Note_off_c, 1, 78, 0
1, 29064, Note_on_c, 1, 78, 80
1, 29064, Note_off_c, 2, 72, 0
1, 29064, Note_on_c, 2, 72, 80
1, 29064, Note_on_c, 5, 75, 96
1, 29074, Note_off_c, 5, 75, 0
1, 29076, Note_on_c, 5, 78, 96
1, 29085, Note_off_c, 0, 81, 0
1, 29085, Note_off_c, 1, 78, 0
1, 29085, Note_off_c, 2, 72, 0
1, 29086, Note_off_c, 5, 78, 0
1, 29088, Note_on_c, 0, 80, 80
1, 29088, Note_on_c, 1, 77, 80
1, 29088, Note_on_c, 2, 71, 80
1, 29088, Note_on_c, 6, 71, 96
1, 29098, Note_off_c, 6, 71, 0
1, 29100, Note_on_c, 6, 72, 96
1, 29110, Note_off_c, 6, 72, 0
1, 29112, Note_off_c, 0, 80, 0
1, 29112, Note_on_c, 0, 80, 80
1, 29112, Note_off_c, 1, 77, 0
1, 29112, Note_on_c, 1, 77, 80
1, 29112, Note_off_c, 2, 71, 0
1, 29112, Note_on_c, 2, 71, 80
1, 29112, Note_on_c, 5, 74, 96
1, 29122, Note_off_c, 5, 74, 0
1, 29124, Note_on_c, 5, 77, 96
1, 29134, Note_off_c, 5, 77, 0
1, 29136, Note_off_c, 0, 80, 0
1, 29136, Note_on_c, 0, 80, 80
1, 29136, Note_off_c, 1, 77, 0
1, 29136, Note_on_c, 1, 77, 80
1, 29136, Note_off_c, 2, 71, 0
1, 29136, Note_on_c, 2, 71, 80
1, 29136, Note_on_c, 6, 74, 96
1, 29146, Note_off_c, 6, 74, 0
1, 29148, Note_on_c, 6, 76, 96
1, 29158, Note_off_c, 6, 76, 0
1, 29160, Note_off_c, 0, 80, 0
1, 29160, Note_on_c, 0, 80, 80
1, 29160, Note_off_c, 1, 77, 0
1, 29160, Note_on_c, 1, 77, 80
1, 29160, Note_off_c, 2, 71, 0
1, 29160, Note_on_c, 2, 71, 80
1, 29160, Note_on_c, 5, 77, 96
1, 29170, Note_off_c, 5, 77, 0
1, 29172, Note_on_c, 5, 80, 96
1, 29182, Note_off_c, 5, 80, 0
1, 29184, Note_off_c, 0, 80, 0
1, 29184, Note_on_c, 0, 80, 80
1, 29184, Note_off_c, 1, 77, 0
1, 29184, Note_on_c, 1, 74, 80
1, 29184, Note_off_c, 2, 71, 0
1, 29184, Note_on_c, 2, 71, 80
1, 29184, Note_on_c, 6, 77, 96
1, 29194, Note_off_c, 6, 77, 0
1, 29196, Note_on_c, 6, 79, 96
1, 29206, Note_off_c, 6, 79, 0
1, 29208, Note_off_c, 0, 80, 0
1, 29208, Note_on_c, 0, 80, 80
1, 29208, Note_off_c, 1, 74, 0
1, 29208, Note_on_c, 1, 74, 80
1, 29208, Note_off_c, 2, 71, 0
1, 29208, Note_on_c, 2, 71, 80
1, 29208, Note_on_c, 5, 80, 96
1, 29218, Note_off_c, 5, 80, 0
1, 29220, Note_on_c, 5, 83, 96
1, 29229, Note_off_c, 0, 80, 0
1, 29229, Note_off_c, 1, 74, 0
1, 29229, Note_off_c, 2, 71, 0
1, 29230, Note_off_c, 5, 83, 0
1, 29232, Note_on_c, 0, 79, 80
1, 29232, Note_on_c, 1, 76, 80
1, 29232, Note_on_c, 2, 70, 80
1, 29232, Note_on_c, 6, 76, 96
1, 29242, Note_off_c, 6, 76, 0
1, 29244, Note_on_c, 6, 77, 96
1, 29254, Note_off_c, 6, 77, 0
1, 29256, Note_off_c, 0, 79, 0
1, 29256, Note_on_c, 0, 79, 80
1, 29256, Note_off_c, 1, 76, 0
1, 29256, Note_on_c, 1, 76, 80
1, 29256, Note_off_c, 2, 70, 0
1, 29256, Note_on_c, 2, 70, 80
1, 29256, Note_on_c, 5, 79, 96
1, 29266, Note_off_c, 5, 79, 0
1, 29268, Note_on_c, 5, 84, 96
1, 29278, Note_off_c, 5, 84, 0
1, 29280, Note_off_c, 0, 79, 0
1, 29280, Note_on_c, 0, 79, 80
1, 29280, Note_off_c, 1, 76, 0
1, 29280, Note_on_c, 1, 76, 80
1, 29280, Note_off_c, 2, 70, 0
1, 29280, Note_on_c, 2, 70, 80
1, 29280, Note_on_c, 6, 72, 96
1, 29290, Note_off_c, 6, 72, 0
1, 29292, Note_on_c, 6, 74, 96
1, 29302, Note_off_c, 6, 74, 0
1, 29304, Note_off_c, 0, 79, 0
1, 29304, Note_on_c, 0, 79, 80
1, 29304, Note_off_c, 1, 76, 0
1, 29304, Note_on_c, 1, 76, 80
1, 29304, Note_off_c, 2, 70, 0
1, 29304, Note_on_c, 2, 70, 80
1, 29304, Note_on_c, 5, 75, 96
1, 29314, Note_off_c, 5, 75, 0
1, 29316, Note_on_c, 5, 79, 96
1, 29326, Note_off_c, 5, 79, 0
1, 29328, Note_off_c, 0, 79, 0
1, 29328, Note_on_c, 0, 79, 80
1, 29328, Note_off_c, 1, 76, 0
1, 29328, Note_on_c, 1, 76, 80
1, 29328, Note_off_c, 2, 70, 0
1, 29328, Note_on_c, 2, 70, 80
1, 29328, Note_on_c, 6, 70, 96
1, 29338, Note_off_c, 6, 70, 0
1, 29340, Note_on_c, 6, 72, 96
1, 29350, Note_off_c, 6, 72, 0
1, 29352, Note_off_c, 0, 79, 0
1, 29352, Note_on_c, 0, 79, 80
1, 29352, Note_off_c, 1, 76, 0
1, 29352, Note_on_c, 1, 76, 80
1, 29352, Note_off_c, 2, 70, 0
1, 29352, Note_on_c, 2, 70, 80
1, 29352, Note_on_c, 5, 73, 96
1, 29362, Note_off_c, 5, 73, 0
1, 29364, Note_on_c, 5, 76, 96
1, 29373, Note_off_c, 0, 79, 0
1, 29373, Note_off_c, 1, 76, 0
1, 29373, Note_off_c, 2, 70, 0
1, 29374, Note_off_c, 5, 76, 0
1, 29376, Note_on_c, 0, 78, 80
1, 29376, Note_on_c, 1, 75, 80
1, 29376, Note_on_c, 2, 69, 80
1, 29376, Note_on_c, 6, 69, 96
1, 29386, Note_off_c, 6, 69, 0
1, 29388, Note_on_c, 6, 70, 96
1, 29398, Note_off_c, 6, 70, 0
1, 29400, Note_off_c, 0, 78, 0
1, 29400, Note_on_c, 0, 78, 80
1, 29400, Note_off_c, 1, 75, 0
1, 29400, Note_on_c, 1, 75, 80
1, 29400, Note_off_c, 2, 69, 0
1, 29400, Note_on_c, 2, 69, 80
1, 29400, Note_on_c, 5, 72, 96
1, 29410, Note_off_c, 5, 72, 0
1, 29412, Note_on_c, 5, 75, 96
1, 29422, Note_off_c, 5, 75, 0
1, 29424, Note_off_c, 0, 78, 0
1, 29424, Note_on_c, 0, 78, 80
1, 29424, Note_off_c, 1, 75, 0
1, 29424, Note_on_c, 1, 75, 80
1, 29424, Note_off_c, 2, 69, 0
1, 29424, Note_on_c, 2, 69, 80
1, 29424, Note_on_c, 6, 72, 96
1, 29434, Note_off_c, 6, 72, 0
1, 29436, Note_on_c, 6, 74, 96
1, 29446, Note_off_c, 6, 74, 0
1, 29448, Note_off_c, 0, 78, 0
1, 29448, Note_on_c, 0, 78, 80
1, 29448, Note_off_c, 1, 75, 0
1, 29448, Note_on_c, 1, 75, 80
1, 29448, Note_off_c, 2, 69, 0
1, 29448, Note_on_c, 2, 69, 80
1, 29448, Note_on_c, 5, 75, 96
1, 29458, Note_off_c, 5, 75, 0
1, 29460, Note_on_c, 5, 78, 96
1, 29470, Note_off_c, 5, 78, 0
1, 29472, Note_off_c, 0, 78, 0
1, 29472, Note_on_c, 0, 78, 80
1, 29472, Note_off_c, 1, 75, 0
1, 29472, Note_on_c, 1, 72, 80
1, 29472, Note_off_c, 2, 69, 0
1, 29472, Note_on_c, 2, 69, 80
1, 29472, Note_on_c, 6, 75, 96
1, 29482, Note_off_c, 6, 75, 0
1, 29484, Note_on_c, 6, 77, 96
1, 29494, Note_off_c, 6, 77, 0
1, 29496, Note_off_c, 0, 78, 0
1, 29496, Note_on_c, 0, 78, 80
1, 29496, Note_off_c, 1, 72, 0
1, 29496, Note_on_c, 1, 72, 80
1, 29496, Note_off_c, 2, 69, 0
1, 29496, Note_on_c, 2, 69, 80
1, 29496, Note_on_c, 5, 78, 96
1, 29506, Note_off_c, 5, 78, 0
1, 29508, Note_on_c, 5, 81, 96
1, 29517, Note_off_c, 0, 78, 0
1, 29517, Note_off_c, 1, 72, 0
1, 29517, Note_off_c, 2, 69, 0
1, 29518, Note_off_c, 5, 81, 0
1, 29520, Note_on_c, 0, 77, 80
1, 29520, Note_on_c, 1, 74, 80
1, 29520, Note_on_c, 2, 68, 80
1, 29520, Note_on_c, 6, 74, 96
1, 29530, Note_off_c, 6, 74, 0
1, 29532, Note_on_c, 6, 75, 96
1, 29542, Note_off_c, 6, 75, 0
1, 29544, Note_off_c, 0, 77, 0
1, 29544, Note_on_c, 0, 77, 80
1, 29544, Note_off_c, 1, 74, 0
1, 29544, Note_on_c, 1, 74, 80
1, 29544, Note_off_c, 2, 68, 0
1, 29544, Note_on_c, 2, 68, 80
1, 29544, Note_on_c, 5, 77, 96
1, 29554, Note_off_c, 5, 77, 0
1, 29556, Note_on_c, 5, 82, 96
1, 29566, Note_off_c, 5, 82, 0
1, 29568, Note_off_c, 0, 77, 0
1, 29568, Note_on_c, 0, 77, 80
1, 29568, Note_off_c, 1, 74, 0
1, 29568, Note_on_c, 1, 74, 80
1, 29568, Note_off_c, 2, 68, 0
1, 29568, Note_on_c, 2, 68, 80
1, 29568, Note_on_c, 6, 70, 96
1, 29578, Note_off_c, 6, 70, 0
1, 29580, Note_on_c, 6, 72, 96
1, 29590, Note_off_c, 6, 72, 0
1, 29592, Note_off_c, 0, 77, 0
1, 29592, Note_on_c, 0, 77, 80
1, 29592, Note_off_c, 1, 74, 0
1, 29592, Note_on_c, 1, 74, 80
1, 29592, Note_off_c, 2, 68, 0
1, 29592, Note_on_c, 2, 68, 80
1, 29592, Note_on_c, 5, 74, 96
1, 29602, Note_off_c, 5, 74, 0
1, 29604, Note_on_c, 5, 77, 96
1, 29614, Note_off_c, 5, 77, 0
1, 29616, Note_off_c, 0, 77, 0
1, 29616, Note_on_c, 0, 77, 80
1, 29616, Note_off_c, 1, 74, 0
1, 29616, Note_on_c, 1, 74, 80
1, 29616, Note_off_c, 2, 68, 0
1, 29616, Note_on_c, 2, 68, 80
1, 29616, Note_on_c, 6, 65, 96
1, 29626, Note_off_c, 6, 65, 0
1, 29628, Note_on_c, 6, 67, 96
1, 29638, Note_off_c, 6, 67, 0
1, 29640, Note_off_c, 0, 77, 0
1, 29640, Note_on_c, 0, 77, 80
1, 29640, Note_off_c, 1, 74, 0
1, 29640, Note_on_c, 1, 74, 80
1, 29640, Note_off_c, 2, 68, 0
1, 29640, Note_on_c, 2, 68, 80
1, 29640, Note_on_c, 5, 68, 96
1, 29650, Note_off_c, 5, 68, 0
1, 29652, Note_on_c, 5, 74, 96
1, 29661, Note_off_c, 0, 77, 0
1, 29661, Note_off_c, 1, 74, 0
1, 29661, Note_off_c, 2, 68, 0
1, 29662, Note_off_c, 5, 74, 0
1, 29664, Note_on_c, 0, 75, 80
1, 29664, Note_on_c, 1, 70, 80
1, 29664, Note_on_c, 2, 67, 80
1, 29664, Note_on_c, 6, 67, 96
1, 29674, Note_off_c, 6, 67, 0
1, 29676, Note_on_c, 6, 68, 96
1, 29686, Note_off_c, 6, 68, 0
1, 29688, Note_off_c, 0, 75, 0
1, 29688, Note_on_c, 0, 75, 80
1, 29688, Note_off_c, 1, 70, 0
1, 29688, Note_on_c, 1, 70, 80
1, 29688, Note_off_c, 2, 67, 0
1, 29688, Note_on_c, 2, 67, 80
1, 29688, Note_on_c, 5, 70, 96
1, 29698, Note_off_c, 5, 70, 0
1, 29700, Note_on_c, 5, 75, 96
1, 29710, Note_off_c, 5, 75, 0
1, 29712, Note_off_c, 0, 75, 0
1, 29712, Note_on_c, 0, 75, 80
1, 29712, Note_off_c, 1, 70, 0
1, 29712, Note_on_c, 1, 70, 80
1, 29712, Note_off_c, 2, 67, 0
1, 29712, Note_on_c, 2, 67, 80
1, 29712, Note_on_c, 6, 63, 96
1, 29722, Note_off_c, 6, 63, 0
1, 29724, Note_on_c, 6, 65, 96
1, 29734, Note_off_c, 6, 65, 0
1, 29736, Note_off_c, 0, 75, 0
1, 29736, Note_on_c, 0, 75, 80
1, 29736, Note_off_c, 1, 70, 0
1, 29736, Note_on_c, 1, 70, 80
1, 29736, Note_off_c, 2, 67, 0
1, 29736, Note_on_c, 2, 67, 80
1, 29736, Note_on_c, 5, 67, 96
1, 29746, Note_off_c, 5, 67, 0
1, 29748, Note_on_c, 5, 70, 96
1, 29758, Note_off_c, 5, 70, 0
1, 29760, Note_off_c, 0, 75, 0
1, 29760, Note_on_c, 0, 75, 80
1, 29760, Note_off_c, 1, 70, 0
1, 29760, Note_on_c, 1, 70, 80
1, 29760, Note_off_c, 2, 67, 0
1, 29760, Note_on_c, 2, 67, 80
1, 29760, Note_on_c, 6, 75, 96
1, 29770, Note_off_c, 6, 75, 0
1, 29772, Note_on_c, 6, 77, 96
1, 29782, Note_off_c, 6, 77, 0
1, 29784, Note_off_c, 0, 75, 0
1, 29784, Note_on_c, 0, 75, 80
1, 29784, Note_off_c, 1, 70, 0
1, 29784, Note_on_c, 1, 70, 80
1, 29784, Note_off_c, 2, 67, 0
1, 29784, Note_on_c, 2, 67, 80
1, 29784, Note_on_c, 5, 79, 96
1, 29794, Note_off_c, 5, 79, 0
1, 29796, Note_on_c, 5, 82, 96
1, 29805, Note_off_c, 0, 75, 0
1, 29805, Note_off_c, 1, 70, 0
1, 29805, Note_off_c, 2, 67, 0
1, 29806, Note_off_c, 5, 82, 0
1, 29808, Note_on_c, 0, 75, 80
1, 29808, Note_on_c, 1, 72, 80
1, 29808, Note_on_c, 2, 66, 80
1, 29808, Note_on_c, 6, 72, 96
1, 29818, Note_off_c, 6, 72, 0
1, 29820, Note_on_c, 6, 73, 96
1, 29830, Note_off_c, 6, 73, 0
1, 29832, Note_off_c, 0, 75, 0
1, 29832, Note_on_c, 0, 75, 80
1, 29832, Note_off_c, 1, 72, 0
1, 29832, Note_on_c, 1, 72, 80
1, 29832, Note_off_c, 2, 66, 0
1, 29832, Note_on_c, 2, 66, 80
1, 29832, Note_on_c, 5, 75, 96
1, 29842, Note_off_c, 5, 75, 0
1, 29844, Note_on_c, 5, 78, 96
1, 29854, Note_off_c, 5, 78, 0
1, 29856, Note_off_c, 0, 75, 0
1, 29856, Note_on_c, 0, 75, 80
1, 29856, Note_off_c, 1, 72, 0
1, 29856, Note_on_c, 1, 72, 80
1, 29856, Note_off_c, 2, 66, 0
1, 29856, Note_on_c, 2, 66, 80
1, 29856, Note_on_c, 6, 69, 96
1, 29866, Note_off_c, 6, 69, 0
1, 29868, Note_on_c, 6, 70, 96
1, 29878, Note_off_c, 6, 70, 0
1, 29880, Note_off_c, 0, 75, 0
1, 29880, Note_on_c, 0, 75, 80
1, 29880, Note_off_c, 1, 72, 0
1, 29880, Note_on_c, 1, 72, 80
1, 29880, Note_off_c, 2, 66, 0
1, 29880, Note_on_c, 2, 66, 80
1, 29880, Note_on_c, 5, 72, 96
1, 29890, Note_off_c, 5, 72, 0
1, 29892, Note_on_c, 5, 75, 96
1, 29902, Note_off_c, 5, 75, 0
1, 29904, Note_off_c, 0, 75, 0
1, 29904, Note_on_c, 0, 75, 80
1, 29904, Note_off_c, 1, 72, 0
1, 29904, Note_on_c, 1, 70, 80
1, 29904, Note_off_c, 2, 66, 0
1, 29904, Note_on_c, 2, 66, 80
1, 29904, Note_on_c, 6, 63, 96
1, 29914, Note_off_c, 6, 63, 0
1, 29916, Note_on_c, 6, 65, 96
1, 29926, Note_off_c, 6, 65, 0
1, 29928, Note_off_c, 0, 75, 0
1, 29928, Note_on_c, 0, 75, 80
1, 29928, Note_off_c, 1, 70, 0
1, 29928, Note_on_c, 1, 70, 80
1, 29928, Note_off_c, 2, 66, 0
1, 29928, Note_on_c, 2, 66, 80
1, 29928, Note_on_c, 5, 66, 96
1, 29938, Note_off_c, 5, 66, 0
1, 29940, Note_on_c, 5, 72, 96
1, 29949, Note_off_c, 0, 75, 0
1, 29949, Note_off_c, 1, 70, 0
1, 29949, Note_off_c, 2, 66, 0
1, 29950, Note_off_c, 5, 72, 0
1, 29952, Note_on_c, 0, 75, 80
1, 29952, Note_on_c, 1, 72, 80
1, 29952, Note_on_c, 2, 65, 80
1, 29952, Note_on_c, 3, 45, 80
1, 29952, Note_on_c, 4, 33, 80
1, 29952, Note_on_c, 6, 57, 96
1, 29973, Note_off_c, 6, 57, 0
1, 29976, Note_off_c, 3, 45, 0
1, 29976, Note_on_c, 3, 45, 80
1, 29976, Note_off_c, 4, 33, 0
1, 29976, Note_on_c, 4, 33, 80
1, 29976, Note_on_c, 5, 65, 96
1, 29976, Note_on_c, 6, 63, 96
1, 29986, Note_off_c, 5, 65, 0
1, 29988, Note_on_c, 5, 67, 96
1, 29997, Note_off_c, 6, 63, 0
1, 29998, Note_off_c, 5, 67, 0
1, 30000, Note_off_c, 3, 45, 0
1, 30000, Note_on_c, 3, 45, 80
1, 30000, Note_off_c, 4, 33, 0
1, 30000, Note_on_c, 4, 33, 80
1, 30000, Note_on_c, 5, 69, 96
1, 30000, Note_on_c, 6, 60, 96
1, 30010, Note_off_c, 5, 69, 0
1, 30012, Note_on_c, 5, 70, 96
1, 30021, Note_off_c, 6, 60, 0
1, 30022, Note_off_c, 5, 70, 0
1, 30024, Note_off_c, 3, 45, 0
1, 30024, Note_on_c, 3, 45, 80
1, 30024, Note_off_c, 4, 33, 0
1, 30024, Note_on_c, 4, 33, 80
1, 30024, Note_on_c, 5, 72, 96
1, 30024, Note_on_c, 6, 57, 96
1, 30034, Note_off_c, 5, 72, 0
1, 30036, Note_on_c, 5, 67, 96
1, 30045, Note_off_c, 6, 57, 0
1, 30046, Note_off_c, 5, 67, 0
1, 30048, Note_off_c, 3, 45, 0
1, 30048, Note_on_c, 3, 45, 80
1, 30048, Note_off_c, 4, 33, 0
1, 30048, Note_on_c, 4, 33, 80
1, 30048, Note_on_c, 5, 69, 96
1, 30048, Note_on_c, 6, 53, 96
1, 30058, Note_off_c, 5, 69, 0
1, 30060, Note_on_c, 5, 65, 96
1, 30069, Note_off_c, 6, 53, 0
1, 30070, Note_off_c, 5, 65, 0
1, 30072, Note_off_c, 3, 45, 0
1, 30072, Note_on_c, 3, 45, 80
1, 30072, Note_off_c, 4, 33, 0
1, 30072, Note_on_c, 4, 33, 80
1, 30072, Note_on_c, 5, 72, 96
1, 30072, Note_on_c, 6, 57, 96
1, 30082, Note_off_c, 5, 72, 0
1, 30084, Note_on_c, 5, 69, 96
1, 30093, Note_off_c, 3, 45, 0
1, 30093, Note_off_c, 4, 33, 0
1, 30093, Note_off_c, 6, 57, 0
1, 30094, Note_off_c, 5, 69, 0
1, 30096, Note_on_c, 3, 45, 80
1, 30096, Note_on_c, 4, 33, 80
1, 30096, Note_on_c, 5, 75, 96
1, 30096, Note_on_c, 6, 60, 96
1, 30106, Note_off_c, 5, 75, 0
1, 30108, Note_on_c, 5, 74, 96
1, 30117, Note_off_c, 6, 60, 0
1, 30118, Note_off_c, 5, 74, 0
1, 30120, Note_off_c, 3, 45, 0
1, 30120, Note_on_c, 3, 45, 80
1, 30120, Note_off_c, 4, 33, 0
1, 30120, Note_on_c, 4, 33, 80
1, 30120, Note_on_c, 5, 72, 96
1, 30120, Note_on_c, 6, 63, 96
1, 30130, Note_off_c, 5, 72, 0
1, 30132, Note_on_c, 5, 70, 96
1, 30141, Note_off_c, 6, 63, 0
1, 30142, Note_off_c, 5, 70, 0
1, 30144, Note_off_c, 3, 45, 0
1, 30144, Note_on_c, 3, 45, 80
1, 30144, Note_off_c, 4, 33, 0
1, 30144, Note_on_c, 4, 33, 80
1, 30144, Note_on_c, 5, 72, 96
1, 30144, Note_on_c, 6, 57, 96
1, 30154, Note_off_c, 5, 72, 0
1, 30156, Note_on_c, 5, 74, 96
1, 30165, Note_off_c, 6, 57, 0
1, 30166, Note_off_c, 5, 74, 0
1, 30168, Note_off_c, 3, 45, 0
1, 30168, Note_on_c, 3, 45, 80
1, 30168, Note_off_c, 4, 33, 0
1, 30168, Note_on_c, 4, 33, 80
1, 30168, Note_on_c, 5, 75, 96
1, 30168, Note_on_c, 6, 60, 96
1, 30178, Note_off_c, 5, 75, 0
1, 30180, Note_on_c, 5, 70, 96
1, 30189, Note_off_c, 6, 60, 0
1, 30190, Note_off_c, 5, 70, 0
1, 30192, Note_off_c, 3, 45, 0
1, 30192, Note_on_c, 3, 45, 80
1, 30192, Note_off_c, 4, 33, 0
1, 30192, Note_on_c, 4, 33, 80
1, 30192, Note_on_c, 5, 72, 96
1, 30192, Note_on_c, 6, 63, 96
1, 30202, Note_off_c, 5, 72, 0
1, 30204, Note_on_c, 5, 69, 96
1, 30213, Note_off_c, 6, 63, 0
1, 30214, Note_off_c, 5, 69, 0
1, 30216, Note_off_c, 3, 45, 0
1, 30216, Note_on_c, 3, 45, 80
1, 30216, Note_off_c, 4, 33, 0
1, 30216, Note_on_c, 4, 33, 80
1, 30216, Note_on_c, 5, 75, 96
1, 30216, Note_on_c, 6, 60, 96
1, 30226, Note_off_c, 5, 75, 0
1, 30228, Note_off_c, 2, 65, 0
1, 30228, Note_on_c, 5, 72, 96
1, 30237, Note_off_c, 3, 45, 0
1, 30237, Note_off_c, 4, 33, 0
1, 30237, Note_off_c, 6, 60, 0
1, 30238, Note_off_c, 5, 72, 0
1, 30240, Note_on_c, 2, 60, 80
1, 30240, Note_on_c, 3, 45, 80
1, 30240, Note_on_c, 4, 33, 80
1, 30240, Note_on_c, 5, 78, 96
1, 30240, Note_on_c, 6, 63, 96
1, 30250, Note_off_c, 5, 78, 0
1, 30252, Note_on_c, 5, 77, 96
1, 30261, Note_off_c, 6, 63, 0
1, 30262, Note_off_c, 5, 77, 0
1, 30264, Note_off_c, 3, 45, 0
1, 30264, Note_on_c, 3, 45, 80
1, 30264, Note_off_c, 4, 33, 0
1, 30264, Note_on_c, 4, 33, 80
1, 30264, Note_on_c, 5, 75, 96
1, 30264, Note_on_c, 6, 66, 96
1, 30274, Note_off_c, 5, 75, 0
1, 30276, Note_on_c, 5, 74, 96
1, 30285, Note_off_c, 6, 66, 0
1, 30286, Note_off_c, 5, 74, 0
1, 30288, Note_off_c, 3, 45, 0
1, 30288, Note_on_c, 3, 45, 80
1, 30288, Note_off_c, 4, 33, 0
1, 30288, Note_on_c, 4, 33, 80
1, 30288, Note_on_c, 5, 75, 96
1, 30288, Note_on_c, 6, 60, 96
1, 30298, Note_off_c, 5, 75, 0
1, 30300, Note_on_c, 5, 77, 96
1, 30309, Note_off_c, 6, 60, 0
1, 30310, Note_off_c, 5, 77, 0
1, 30312, Note_off_c, 3, 45, 0
1, 30312, Note_on_c, 3, 45, 80
1, 30312, Note_off_c, 4, 33, 0
1, 30312, Note_on_c, 4, 33, 80
1, 30312, Note_on_c, 5, 78, 96
1, 30312, Note_on_c, 6, 63, 96
1, 30322, Note_off_c, 5, 78, 0
1, 30324, Note_on_c, 5, 75, 96
1, 30333, Note_off_c, 6, 63, 0
1, 30334, Note_off_c, 5, 75, 0
1, 30336, Note_off_c, 3, 45, 0
1, 30336, Note_on_c, 3, 45, 80
1, 30336, Note_off_c, 4, 33, 0
1, 30336, Note_on_c, 4, 33, 80
1, 30336, Note_on_c, 5, 81, 96
1, 30336, Note_on_c, 6, 53, 96
1, 30346, Note_off_c, 5, 81, 0
1, 30348, Note_on_c, 5, 77, 96
1, 30357, Note_off_c, 6, 53, 0
1, 30358, Note_off_c, 5, 77, 0
1, 30360, Note_off_c, 3, 45, 0
1, 30360, Note_on_c, 3, 45, 80
1, 30360, Note_off_c, 4, 33, 0
1, 30360, Note_on_c, 4, 33, 80
1, 30360, Note_on_c, 5, 84, 96
1, 30360, Note_on_c, 6, 57, 96
1, 30370, Note_off_c, 5, 84, 0
1, 30372, Note_off_c, 0, 75, 0
1, 30372, Note_off_c, 1, 72, 0
1, 30372, Note_off_c, 2, 60, 0
1, 30372, Note_on_c, 5, 75, 96
1, 30381, Note_off_c, 3, 45, 0
1, 30381, Note_off_c, 4, 33, 0
1, 30381, Note_off_c, 6, 57, 0
1, 30382, Note_off_c, 5, 75, 0
1, 30384, Note_on_c, 0, 74, 80
1, 30384, Note_on_c, 1, 70, 80
1, 30384, Note_on_c, 2, 65, 80
1, 30384, Note_on_c, 3, 46, 80
1, 30384, Note_on_c, 4, 34, 80
1, 30384, Note_on_c, 5, 74, 96
1, 30384, Note_on_c, 6, 58, 96
1, 30405, Note_off_c, 0, 74, 0
1, 30405, Note_off_c, 1, 70, 0
1, 30405, Note_off_c, 2, 65, 0
1, 30405, Note_off_c, 3, 46, 0
1, 30405, Note_off_c, 4, 34, 0
1, 30405, Note_off_c, 5, 74, 0
1, 30405, Note_off_c, 6, 58, 0
1, 30408, Note_on_c, 0, 70, 96
1, 30408, Note_on_c, 1, 70, 96
1, 30408, Note_on_c, 2, 65, 96
1, 30408, Note_on_c, 3, 50, 96
1, 30408, Note_on_c, 4, 38, 96
1, 30408, Note_on_c, 5, 70, 96
1, 30408, Note_on_c, 6, 50, 96
1, 30429, Note_off_c, 0, 70, 0
1, 30429, Note_off_c, 1, 70, 0
1, 30429, Note_off_c, 2, 65, 0
1, 30429, Note_off_c, 3, 50, 0
1, 30429, Note_off_c, 4, 38, 0
1, 30429, Note_off_c, 5, 70, 0
1, 30429, Note_off_c, 6, 50, 0
1, 30432, Note_on_c, 0, 63, 96
1, 30432, Note_on_c, 1, 63, 96
1, 30432, Note_on_c, 2, 67, 96
1, 30432, Note_on_c, 3, 51, 96
1, 30432, Note_on_c, 4, 39, 96
1, 30432, Note_on_c, 5, 67, 96
1, 30432, Note_on_c, 6, 51, 96
1, 30453, Note_off_c, 0, 63, 0
1, 30453, Note_off_c, 1, 63, 0
1, 30453, Note_off_c, 2, 67, 0
1, 30453, Note_off_c, 3, 51, 0
1, 30453, Note_off_c, 4, 39, 0
1, 30453, Note_off_c, 5, 67, 0
1, 30453, Note_off_c, 6, 51, 0
1, 30456, Note_on_c, 0, 70, 96
1, 30456, Note_on_c, 1, 70, 96
1, 30456, Note_on_c, 2, 63, 96
1, 30456, Note_on_c, 3, 48, 96
1, 30456, Note_on_c, 4, 36, 96
1, 30456, Note_on_c, 5, 63, 96
1, 30456, Note_on_c, 6, 48, 96
1, 30477, Note_off_c, 0, 70, 0
1, 30477, Note_off_c, 1, 70, 0
1, 30477, Note_off_c, 2, 63, 0
1, 30477, Note_off_c, 3, 48, 0
1, 30477, Note_off_c, 4, 36, 0
1, 30477, Note_off_c, 5, 63, 0
1, 30477, Note_off_c, 6, 48, 0
1, 30480, Note_on_c, 0, 65, 96
1, 30480, Note_on_c, 1, 65, 96
1, 30480, Note_on_c, 2, 60, 96
1, 30480, Note_on_c, 3, 53, 96
1, 30480, Note_on_c, 4, 41, 96
1, 30480, Note_on_c, 5, 60, 96
1, 30480, Note_on_c, 6, 53, 96
1, 30501, Note_off_c, 0, 65, 0
1, 30501, Note_off_c, 1, 65, 0
1, 30501, Note_off_c, 2, 60, 0
1, 30501, Note_off_c, 3, 53, 0
1, 30501, Note_off_c, 4, 41, 0
1, 30501, Note_off_c, 5, 60, 0
1, 30501, Note_off_c, 6, 53, 0
1, 30504, Note_on_c, 0, 69, 96
1, 30504, Note_on_c, 1, 69, 96
1, 30504, Note_on_c, 2, 65, 96
1, 30504, Note_on_c, 3, 41, 96
1, 30504, Note_on_c, 4, 29, 96
1, 30504, Note_on_c, 5, 69, 96
1, 30504, Note_on_c, 6, 41, 96
1, 30525, Note_off_c, 0, 69, 0
1, 30525, Note_off_c, 1, 69, 0
1, 30525, Note_off_c, 2, 65, 0
1, 30525, Note_off_c, 3, 41, 0
1, 30525, Note_off_c, 4, 29, 0
1, 30525, Note_off_c, 5, 69, 0
1, 30525, Note_off_c, 6, 41, 0
1, 30528, Note_on_c, 0, 70, 96
1, 30528, Note_on_c, 1, 70, 96
1, 30528, Note_on_c, 2, 62, 96
1, 30528, Note_on_c, 3, 46, 96
1, 30528, Note_on_c, 4, 34, 96
1, 30528, Note_on_c, 5, 58, 96
1, 30528, Note_on_c, 6, 46, 96
1, 30549, Note_off_c, 0, 70, 0
1, 30549, Note_off_c, 1, 70, 0
1, 30549, Note_off_c, 2, 62, 0
1, 30549, Note_off_c, 3, 46, 0
1, 30549, Note_off_c, 4, 34, 0
1, 30549, Note_off_c, 5, 58, 0
1, 30549, Note_off_c, 6, 46, 0
1, 30552, Note_on_c, 5, 82, 96
1, 30552, Note_on_c, 5, 77, 96
1, 30552, Note_on_c, 6, 74, 96
1, 30562, Note_off_c, 5, 82, 0
1, 30562, Note_off_c, 6, 74, 0
1, 30564, Note_on_c, 5, 81, 96
1, 30564, Note_on_c, 6, 72, 96
1, 30573, Note_off_c, 5, 77, 0
1, 30574, Note_off_c, 5, 81, 0
1, 30574, Note_off_c, 6, 72, 0
1, 30576, Note_on_c, 5, 82, 96
1, 30576, Note_on_c, 5, 77, 96
1, 30576, Note_on_c, 6, 74, 96
1, 30597, Note_off_c, 5, 82, 0
1, 30597, Note_off_c, 5, 77, 0
1, 30597, Note_off_c, 6, 74, 0
1, 30600, Note_on_c, 5, 77, 96
1, 30600, Note_on_c, 5, 74, 96
1, 30600, Note_on_c, 6, 70, 96
1, 30610, Note_off_c, 5, 77, 0
1, 30610, Note_off_c, 5, 74, 0
1, 30612, Note_on_c, 5, 75, 96
1, 30612, Note_on_c, 5, 72, 96
1, 30621, Note_off_c, 6, 70, 0
1, 30622, Note_off_c, 5, 75, 0
1, 30622, Note_off_c, 5, 72, 0
1, 30624, Note_on_c, 5, 77, 96
1, 30624, Note_on_c, 5, 74, 96
1, 30624, Note_on_c, 6, 70, 96
1, 30645, Note_off_c, 5, 77, 0
1, 30645, Note_off_c, 5, 74, 0
1, 30645, Note_off_c, 6, 70, 0
1, 30648, Note_on_c, 5, 74, 96
1, 30648, Note_on_c, 5, 70, 96
1, 30648, Note_on_c, 6, 65, 96
1, 30658, Note_off_c, 5, 74, 0
1, 30658, Note_off_c, 5, 70, 0
1, 30658, Note_off_c, 6, 65, 0
1, 30660, Note_on_c, 5, 72, 96
1, 30660, Note_on_c, 5, 69, 96
1, 30660, Note_on_c, 6, 63, 96
1, 30670, Note_off_c, 5, 72, 0
1, 30670, Note_off_c, 5, 69, 0
1, 30670, Note_off_c, 6, 63, 0
1, 30672, Note_on_c, 5, 74, 96
1, 30672, Note_on_c, 5, 70, 96
1, 30672, Note_on_c, 6, 65, 96
1, 30693, Note_off_c, 5, 74, 0
1, 30693, Note_off_c, 5, 70, 0
1, 30693, Note_off_c, 6, 65, 0
1, 30696, Note_on_c, 0, 77, 96
1, 30696, Note_on_c, 1, 77, 96
1, 30696, Note_on_c, 2, 62, 96
1, 30696, Note_on_c, 3, 46, 96
1, 30696, Note_on_c, 4, 34, 96
1, 30696, Note_on_c, 5, 70, 96
1, 30696, Note_on_c, 6, 46, 96
1, 30706, Note_off_c, 2, 62, 0
1, 30706, Note_off_c, 3, 46, 0
1, 30706, Note_off_c, 4, 34, 0
1, 30706, Note_off_c, 5, 70, 0
1, 30706, Note_off_c, 6, 46, 0
1, 30708, Note_on_c, 2, 63, 96
1, 30708, Note_on_c, 3, 48, 96
1, 30708, Note_on_c, 4, 36, 96
1, 30708, Note_on_c, 5, 69, 96
1, 30708, Note_on_c, 6, 48, 96
1, 30717, Note_off_c, 0, 77, 0
1, 30717, Note_off_c, 1, 77, 0
1, 30718, Note_off_c, 2, 63, 0
1, 30718, Note_off_c, 3, 48, 0
1, 30718, Note_off_c, 4, 36, 0
1, 30718, Note_off_c, 5, 69, 0
1, 30718, Note_off_c, 6, 48, 0
1, 30720, Note_on_c, 0, 82, 96
1, 30720, Note_on_c, 1, 82, 96
1, 30720, Note_on_c, 2, 65, 96
1, 30720, Note_on_c, 3, 50, 96
1, 30720, Note_on_c, 4, 38, 96
1, 30720, Note_on_c, 5, 70, 96
1, 30720, Note_on_c, 6, 50, 96
1, 30741, Note_off_c, 0, 82, 0
1, 30741, Note_off_c, 1, 82, 0
1, 30741, Note_off_c, 2, 65, 0
1, 30741, Note_off_c, 3, 50, 0
1, 30741, Note_off_c, 4, 38, 0
1, 30741, Note_off_c, 5, 70, 0
1, 30741, Note_off_c, 6, 50, 0
1, 30744, Note_on_c, 0, 82, 96
1, 30744, Note_on_c, 1, 82, 96
1, 30744, Note_on_c, 2, 64, 96
1, 30744, Note_on_c, 3, 48, 96
1, 30744, Note_on_c, 4, 36, 96
1, 30744, Note_on_c, 6, 48, 96
1, 30754, Note_off_c, 2, 64, 0
1, 30754, Note_off_c, 3, 48, 0
1, 30754, Note_off_c, 4, 36, 0
1, 30754, Note_off_c, 6, 48, 0
1, 30756, Note_on_c, 2, 65, 96
1, 30756, Note_on_c, 3, 50, 96
1, 30756, Note_on_c, 4, 38, 96
1, 30756, Note_on_c, 6, 50, 96
1, 30765, Note_off_c, 0, 82, 0
1, 30765, Note_off_c, 1, 82, 0
1, 30766, Note_off_c, 2, 65, 0
1, 30766, Note_off_c, 3, 50, 0
1, 30766, Note_off_c, 4, 38, 0
1, 30766, Note_off_c, 6, 50, 0
1, 30768, Note_on_c, 0, 82, 96
1, 30768, Note_on_c, 1, 82, 96
1, 30768, Note_on_c, 2, 67, 96
1, 30768, Note_on_c, 3, 52, 96
1, 30768, Note_on_c, 4, 40, 96
1, 30768, Note_on_c, 6, 52, 96
1, 30789, Note_off_c, 0, 82, 0
1, 30789, Note_off_c, 1, 82, 0
1, 30789, Note_off_c, 2, 67, 0
1, 30789, Note_off_c, 3, 52, 0
1, 30789, Note_off_c, 4, 40, 0
1, 30789, Note_off_c, 6, 52, 0
1, 30792, Note_on_c, 0, 82, 96
1, 30792, Note_on_c, 1, 82, 96
1, 30792, Note_on_c, 2, 65, 96
1, 30792, Note_on_c, 3, 50, 96
1, 30792, Note_on_c, 4, 38, 96
1, 30792, Note_on_c, 6, 50, 96
1, 30802, Note_off_c, 2, 65, 0
1, 30802, Note_off_c, 3, 50, 0
1, 30802, Note_off_c, 4, 38, 0
1, 30802, Note_off_c, 6, 50, 0
1, 30804, Note_on_c, 2, 67, 96
1, 30804, Note_on_c, 3, 52, 96
1, 30804, Note_on_c, 4, 40, 96
1, 30804, Note_on_c, 6, 52, 96
1, 30813, Note_off_c, 0, 82, 0
1, 30813, Note_off_c, 1, 82, 0
1, 30814, Note_off_c, 2, 67, 0
1, 30814, Note_off_c, 3, 52, 0
1, 30814, Note_off_c, 4, 40, 0
1, 30814, Note_off_c, 6, 52, 0
1, 30816, Note_on_c, 0, 82, 96
1, 30816, Note_on_c, 1, 82, 96
1, 30816, Note_on_c, 2, 60, 96
1, 30816, Note_on_c, 3, 53, 96
1, 30816, Note_on_c, 4, 41, 96
1, 30816, Note_on_c, 6, 53, 96
1, 30837, Note_off_c, 0, 82, 0
1, 30837, Note_off_c, 1, 82, 0
1, 30837, Note_off_c, 2, 60, 0
1, 30837, Note_off_c, 3, 53, 0
1, 30837, Note_off_c, 4, 41, 0
1, 30837, Note_off_c, 6, 53, 0
1, 30840, Note_on_c, 0, 81, 96
1, 30840, Note_on_c, 1, 81, 96
1, 30840, Note_on_c, 5, 65, 96
1, 30840, Note_on_c, 5, 60, 96
1, 30840, Note_on_c, 6, 57, 96
1, 30850, Note_off_c, 0, 81, 0
1, 30850, Note_off_c, 1, 81, 0
1, 30850, Note_off_c, 5, 65, 0
1, 30850, Note_off_c, 5, 60, 0
1, 30850, Note_off_c, 6, 57, 0
1, 30852, Note_on_c, 0, 79, 96
1, 30852, Note_on_c, 1, 79, 96
1, 30852, Note_on_c, 5, 64, 96
1, 30852, Note_on_c, 5, 58, 96
1, 30852, Note_on_c, 6, 55, 96
1, 30862, Note_off_c, 0, 79, 0
1, 30862, Note_off_c, 1, 79, 0
1, 30862, Note_off_c, 5, 64, 0
1, 30862, Note_off_c, 5, 58, 0
1, 30862, Note_off_c, 6, 55, 0
1, 30864, Note_on_c, 0, 81, 96
1, 30864, Note_on_c, 1, 81, 96
1, 30864, Note_on_c, 5, 65, 96
1, 30864, Note_on_c, 5, 60, 96
1, 30864, Note_on_c, 6, 57, 96
1, 30885, Note_off_c, 0, 81, 0
1, 30885, Note_off_c, 1, 81, 0
1, 30885, Note_off_c, 5, 65, 0
1, 30885, Note_off_c, 5, 60, 0
1, 30885, Note_off_c, 6, 57, 0
1, 30888, Note_on_c, 5, 69, 96
1, 30888, Note_on_c, 5, 65, 96
1, 30888, Note_on_c, 6, 60, 96
1, 30898, Note_off_c, 5, 69, 0
1, 30898, Note_off_c, 5, 65, 0
1, 30898, Note_off_c, 6, 60, 0
1, 30900, Note_on_c, 5, 67, 96
1, 30900, Note_on_c, 5, 64, 96
1, 30900, Note_on_c, 6, 58, 96
1, 30910, Note_off_c, 5, 67, 0
1, 30910, Note_off_c, 5, 64, 0
1, 30910, Note_off_c, 6, 58, 0
1, 30912, Note_on_c, 5, 69, 96
1, 30912, Note_on_c, 5, 65, 96
1, 30912, Note_on_c, 6, 60, 96
1, 30933, Note_off_c, 5, 69, 0
1, 30933, Note_off_c, 5, 65, 0
1, 30933, Note_off_c, 6, 60, 0
1, 30936, Note_on_c, 5, 72, 96
1, 30936, Note_on_c, 5, 69, 96
1, 30936, Note_on_c, 6, 63, 96
1, 30946, Note_off_c, 5, 72, 0
1, 30946, Note_off_c, 5, 69, 0
1, 30946, Note_off_c, 6, 63, 0
1, 30948, Note_on_c, 5, 70, 96
1, 30948, Note_on_c, 5, 67, 96
1, 30948, Note_on_c, 6, 62, 96
1, 30958, Note_off_c, 5, 70, 0
1, 30958, Note_off_c, 5, 67, 0
1, 30958, Note_off_c, 6, 62, 0
1, 30960, Note_on_c, 5, 72, 96
1, 30960, Note_on_c, 5, 69, 96
1, 30960, Note_on_c, 6, 63, 96
1, 30981, Note_off_c, 5, 72, 0
1, 30981, Note_off_c, 5, 69, 0
1, 30981, Note_off_c, 6, 63, 0
1, 30984, Note_on_c, 0, 81, 96
1, 30984, Note_on_c, 1, 81, 96
1, 30984, Note_on_c, 2, 66, 96
1, 30984, Note_on_c, 3, 45, 96
1, 30984, Note_on_c, 4, 33, 96
1, 30984, Note_on_c, 5, 75, 96
1, 30984, Note_on_c, 6, 45, 96
1, 30994, Note_off_c, 0, 81, 0
1, 30994, Note_off_c, 1, 81, 0
1, 30994, Note_off_c, 2, 66, 0
1, 30994, Note_off_c, 5, 75, 0
1, 30996, Note_on_c, 0, 82, 96
1, 30996, Note_on_c, 1, 82, 96
1, 30996, Note_on_c, 2, 67, 96
1, 30996, Note_on_c, 5, 74, 96
1, 31005, Note_off_c, 3, 45, 0
1, 31005, Note_off_c, 4, 33, 0
1, 31005, Note_off_c, 6, 45, 0
1, 31006, Note_off_c, 0, 82, 0
1, 31006, Note_off_c, 1, 82, 0
1, 31006, Note_off_c, 2, 67, 0
1, 31006, Note_off_c, 5, 74, 0
1, 31008, Note_on_c, 0, 84, 96
1, 31008, Note_on_c, 1, 84, 96
1, 31008, Note_on_c, 2, 69, 96
1, 31008, Note_on_c, 3, 57, 96
1, 31008, Note_on_c, 4, 45, 96
1, 31008, Note_on_c, 5, 75, 96
1, 31008, Note_on_c, 6, 57, 96
1, 31018, Note_off_c, 2, 69, 0
1, 31020, Note_on_c, 2, 67, 96
1, 31029, Note_off_c, 0, 84, 0
1, 31029, Note_off_c, 1, 84, 0
1, 31029, Note_off_c, 3, 57, 0
1, 31029, Note_off_c, 4, 45, 0
1, 31029, Note_off_c, 5, 75, 0
1, 31029, Note_off_c, 6, 57, 0
1, 31030, Note_off_c, 2, 67, 0
1, 31032, Note_on_c, 0, 81, 96
1, 31032, Note_on_c, 1, 81, 96
1, 31032, Note_on_c, 2, 66, 96
1, 31032, Note_on_c, 3, 55, 96
1, 31032, Note_on_c, 4, 43, 96
1, 31032, Note_on_c, 6, 55, 96
1, 31042, Note_off_c, 0, 81, 0
1, 31042, Note_off_c, 1, 81, 0
1, 31042, Note_off_c, 2, 66, 0
1, 31044, Note_on_c, 0, 82, 96
1, 31044, Note_on_c, 1, 82, 96
1, 31044, Note_on_c, 2, 67, 96
1, 31053, Note_off_c, 3, 55, 0
1, 31053, Note_off_c, 4, 43, 0
1, 31053, Note_off_c, 6, 55, 0
1, 31054, Note_off_c, 0, 82, 0
1, 31054, Note_off_c, 1, 82, 0
1, 31054, Note_off_c, 2, 67, 0
1, 31056, Note_on_c, 0, 84, 96
1, 31056, Note_on_c, 1, 84, 96
1, 31056, Note_on_c, 2, 69, 96
1, 31056, Note_on_c, 3, 54, 96
1, 31056, Note_on_c, 4, 42, 96
1, 31056, Note_on_c, 6, 54, 96
1, 31066, Note_off_c, 2, 69, 0
1, 31068, Note_on_c, 2, 67, 96
1, 31077, Note_off_c, 0, 84, 0
1, 31077, Note_off_c, 1, 84, 0
1, 31077, Note_off_c, 3, 54, 0
1, 31077, Note_off_c, 4, 42, 0
1, 31077, Note_off_c, 6, 54, 0
1, 31078, Note_off_c, 2, 67, 0
1, 31080, Note_on_c, 0, 84, 96
1, 31080, Note_on_c, 1, 84, 96
1, 31080, Note_on_c, 2, 66, 96
1, 31080, Note_on_c, 3, 50, 96
1, 31080, Note_on_c, 4, 38, 96
1, 31080, Note_on_c, 6, 50, 96
1, 31090, Note_off_c, 2, 66, 0
1, 31092, Note_on_c, 2, 64, 96
1, 31101, Note_off_c, 0, 84, 0
1, 31101, Note_off_c, 1, 84, 0
1, 31101, Note_off_c, 3, 50, 0
1, 31101, Note_off_c, 4, 38, 0
1, 31101, Note_off_c, 6, 50, 0
1, 31102, Note_off_c, 2, 64, 0
1, 31104, Note_on_c, 0, 84, 96
1, 31104, Note_on_c, 1, 84, 96
1, 31104, Note_on_c, 2, 62, 96
1, 31104, Note_on_c, 3, 55, 96
1, 31104, Note_on_c, 4, 43, 96
1, 31104, Note_on_c, 6, 55, 96
1, 31125, Note_off_c, 0, 84, 0
1, 31125, Note_off_c, 1, 84, 0
1, 31125, Note_off_c, 2, 62, 0
1, 31125, Note_off_c, 3, 55, 0
1, 31125, Note_off_c, 4, 43, 0
1, 31125, Note_off_c, 6, 55, 0
1, 31128, Note_on_c, 0, 82, 96
1, 31128, Note_on_c, 1, 82, 96
1, 31128, Note_on_c, 5, 79, 96
1, 31128, Note_on_c, 5, 74, 96
1, 31128, Note_on_c, 6, 70, 96
1, 31138, Note_off_c, 0, 82, 0
1, 31138, Note_off_c, 1, 82, 0
1, 31138, Note_off_c, 5, 79, 0
1, 31138, Note_off_c, 5, 74, 0
1, 31138, Note_off_c, 6, 70, 0
1, 31140, Note_on_c, 0, 81, 96
1, 31140, Note_on_c, 1, 81, 96
1, 31140, Note_on_c, 5, 78, 96
1, 31140, Note_on_c, 5, 72, 96
1, 31140, Note_on_c, 6, 69, 96
1, 31150, Note_off_c, 0, 81, 0
1, 31150, Note_off_c, 1, 81, 0
1, 31150, Note_off_c, 5, 78, 0
1, 31150, Note_off_c, 5, 72, 0
1, 31150, Note_off_c, 6, 69, 0
1, 31152, Note_on_c, 0, 82, 96
1, 31152, Note_on_c, 1, 82, 96
1, 31152, Note_on_c, 5, 79, 96
1, 31152, Note_on_c, 5, 74, 96
1, 31152, Note_on_c, 6, 70, 96
1, 31173, Note_off_c, 0, 82, 0
1, 31173, Note_off_c, 1, 82, 0
1, 31173, Note_off_c, 5, 79, 0
1, 31173, Note_off_c, 5, 74, 0
1, 31173, Note_off_c, 6, 70, 0
1, 31176, Note_on_c, 5, 74, 96
1, 31176, Note_on_c, 5, 70, 96
1, 31176, Note_on_c, 6, 67, 96
1, 31186, Note_off_c, 5, 74, 0
1, 31186, Note_off_c, 5, 70, 0
1, 31188, Note_on_c, 5, 72, 96
1, 31188, Note_on_c, 5, 69, 96
1, 31197, Note_off_c, 6, 67, 0
1, 31198, Note_off_c, 5, 72, 0
1, 31198, Note_off_c, 5, 69, 0
1, 31200, Note_on_c, 5, 74, 96
1, 31200, Note_on_c, 5, 70, 96
1, 31200, Note_on_c, 6, 67, 96
1, 31221, Note_off_c, 5, 74, 0
1, 31221, Note_off_c, 5, 70, 0
1, 31221, Note_off_c, 6, 67, 0
1, 31224, Note_on_c, 5, 70, 96
1, 31224, Note_on_c, 5, 67, 96
1, 31224, Note_on_c, 6, 62, 96
1, 31234, Note_off_c, 5, 70, 0
1, 31234, Note_off_c, 5, 67, 0
1, 31234, Note_off_c, 6, 62, 0
1, 31236, Note_on_c, 5, 69, 96
1, 31236, Note_on_c, 5, 66, 96
1, 31236, Note_on_c, 6, 60, 96
1, 31246, Note_off_c, 5, 69, 0
1, 31246, Note_off_c, 5, 66, 0
1, 31246, Note_off_c, 6, 60, 0
1, 31248, Note_on_c, 5, 70, 96
1, 31248, Note_on_c, 5, 67, 96
1, 31248, Note_on_c, 6, 62, 96
1, 31269, Note_off_c, 5, 70, 0
1, 31269, Note_off_c, 5, 67, 0
1, 31269, Note_off_c, 6, 62, 0
1, 31272, Note_on_c, 0, 70, 80
1, 31272, Note_on_c, 1, 62, 80
1, 31272, Note_on_c, 2, 67, 80
1, 31272, Note_on_c, 3, 43, 80
1, 31272, Note_on_c, 4, 31, 80
1, 31272, Note_on_c, 5, 67, 96
1, 31272, Note_on_c, 6, 43, 96
1, 31282, Note_off_c, 5, 67, 0
1, 31284, Note_off_c, 0, 70, 0
1, 31284, Note_on_c, 0, 69, 80
1, 31284, Note_off_c, 1, 62, 0
1, 31284, Note_on_c, 1, 60, 80
1, 31284, Note_on_c, 5, 66, 96
1, 31293, Note_off_c, 2, 67, 0
1, 31293, Note_off_c, 3, 43, 0
1, 31293, Note_off_c, 4, 31, 0
1, 31293, Note_off_c, 6, 43, 0
1, 31294, Note_off_c, 5, 66, 0
1, 31296, Note_off_c, 0, 69, 0
1, 31296, Note_on_c, 0, 70, 80
1, 31296, Note_off_c, 1, 60, 0
1, 31296, Note_on_c, 1, 62, 80
1, 31296, Note_on_c, 2, 67, 80
1, 31296, Note_on_c, 3, 55, 80
1, 31296, Note_on_c, 4, 43, 80
1, 31296, Note_on_c, 5, 67, 96
1, 31296, Note_on_c, 6, 55, 96
1, 31317, Note_off_c, 0, 70, 0
1, 31317, Note_off_c, 1, 62, 0
1, 31317, Note_off_c, 2, 67, 0
1, 31317, Note_off_c, 3, 55, 0
1, 31317, Note_off_c, 4, 43, 0
1, 31317, Note_off_c, 5, 67, 0
1, 31317, Note_off_c, 6, 55, 0
1, 31320, Note_on_c, 0, 74, 80
1, 31320, Note_on_c, 1, 67, 80
1, 31320, Note_on_c, 2, 67, 80
1, 31320, Note_on_c, 3, 53, 80
1, 31320, Note_on_c, 4, 41, 80
1, 31320, Note_on_c, 5, 70, 96
1, 31320, Note_on_c, 6, 53, 96
1, 31330, Note_off_c, 5, 70, 0
1, 31332, Note_off_c, 0, 74, 0
1, 31332, Note_on_c, 0, 72, 80
1, 31332, Note_off_c, 1, 67, 0
1, 31332, Note_on_c, 1, 66, 80
1, 31332, Note_on_c, 5, 69, 96
1, 31341, Note_off_c, 2, 67, 0
1, 31341, Note_off_c, 3, 53, 0
1, 31341, Note_off_c, 4, 41, 0
1, 31341, Note_off_c, 6, 53, 0
1, 31342, Note_off_c, 5, 69, 0
1, 31344, Note_off_c, 0, 72, 0
1, 31344, Note_on_c, 0, 74, 80
1, 31344, Note_off_c, 1, 66, 0
1, 31344, Note_on_c, 1, 67, 80
1, 31344, Note_on_c, 2, 67, 80
1, 31344, Note_on_c, 3, 52, 80
1, 31344, Note_on_c, 4, 40, 80
1, 31344, Note_on_c, 5, 70, 96
1, 31344, Note_on_c, 6, 52, 96
1, 31365, Note_off_c, 0, 74, 0
1, 31365, Note_off_c, 1, 67, 0
1, 31365, Note_off_c, 2, 67, 0
1, 31365, Note_off_c, 3, 52, 0
1, 31365, Note_off_c, 4, 40, 0
1, 31365, Note_off_c, 5, 70, 0
1, 31365, Note_off_c, 6, 52, 0
1, 31368, Note_on_c, 0, 79, 80
1, 31368, Note_on_c, 1, 70, 80
1, 31368, Note_on_c, 2, 67, 80
1, 31368, Note_on_c, 3, 50, 80
1, 31368, Note_on_c, 4, 38, 80
1, 31368, Note_on_c, 5, 76, 96
1, 31368, Note_on_c, 6, 50, 96
1, 31378, Note_off_c, 5, 76, 0
1, 31380, Note_off_c, 0, 79, 0
1, 31380, Note_on_c, 0, 78, 80
1, 31380, Note_off_c, 1, 70, 0
1, 31380, Note_on_c, 1, 69, 80
1, 31380, Note_on_c, 5, 74, 96
1, 31389, Note_off_c, 2, 67, 0
1, 31389, Note_off_c, 3, 50, 0
1, 31389, Note_off_c, 4, 38, 0
1, 31389, Note_off_c, 6, 50, 0
1, 31390, Note_off_c, 5, 74, 0
1, 31392, Note_off_c, 0, 78, 0
1, 31392, Note_on_c, 0, 79, 80
1, 31392, Note_off_c, 1, 69, 0
1, 31392, Note_on_c, 1, 70, 80
1, 31392, Note_on_c, 2, 67, 80
1, 31392, Note_on_c, 3, 49, 80
1, 31392, Note_on_c, 4, 37, 80
1, 31392, Note_on_c, 5, 76, 96
1, 31392, Note_on_c, 6, 49, 96
1, 31413, Note_off_c, 0, 79, 0
1, 31413, Note_off_c, 1, 70, 0
1, 31413, Note_off_c, 2, 67, 0
1, 31413, Note_off_c, 3, 49, 0
1, 31413, Note_off_c, 4, 37, 0
1, 31413, Note_off_c, 5, 76, 0
1, 31413, Note_off_c, 6, 49, 0
1, 31416, Note_on_c, 5, 73, 96
1, 31416, Note_on_c, 5, 67, 96
1, 31416, Note_on_c, 6, 64, 96
1, 31426, Note_off_c, 5, 73, 0
1, 31426, Note_off_c, 6, 64, 0
1, 31428, Note_on_c, 5, 71, 96
1, 31428, Note_on_c, 6, 62, 96
1, 31437, Note_off_c, 5, 67, 0
1, 31438, Note_off_c, 5, 71, 0
1, 31438, Note_off_c, 6, 62, 0
1, 31440, Note_on_c, 5, 73, 96
1, 31440, Note_on_c, 5, 67, 96
1, 31440, Note_on_c, 6, 64, 96
1, 31461, Note_off_c, 5, 73, 0
1, 31461, Note_off_c, 5, 67, 0
1, 31461, Note_off_c, 6, 64, 0
1, 31464, Note_on_c, 5, 69, 96
1, 31464, Note_on_c, 5, 64, 96
1, 31464, Note_on_c, 6, 61, 96
1, 31474, Note_off_c, 5, 69, 0
1, 31474, Note_off_c, 6, 61, 0
1, 31476, Note_on_c, 5, 67, 96
1, 31476, Note_on_c, 6, 59, 96
1, 31485, Note_off_c, 5, 64, 0
1, 31486, Note_off_c, 5, 67, 0
1, 31486, Note_off_c, 6, 59, 0
1, 31488, Note_on_c, 5, 69, 96
1, 31488, Note_on_c, 5, 64, 96
1, 31488, Note_on_c, 6, 61, 96
1, 31509, Note_off_c, 5, 69, 0
1, 31509, Note_off_c, 5, 64, 0
1, 31509, Note_off_c, 6, 61, 0
1, 31512, Note_on_c, 5, 65, 96
1, 31512, Note_on_c, 5, 62, 96
1, 31512, Note_on_c, 6, 57, 96
1, 31522, Note_off_c, 5, 65, 0
1, 31522, Note_off_c, 5, 62, 0
1, 31522, Note_off_c, 6, 57, 0
1, 31524, Note_on_c, 5, 64, 96
1, 31524, Note_on_c, 5, 61, 96
1, 31524, Note_on_c, 6, 55, 96
1, 31534, Note_off_c, 5, 64, 0
1, 31534, Note_off_c, 5, 61, 0
1, 31534, Note_off_c, 6, 55, 0
1, 31536, Note_on_c, 5, 65, 96
1, 31536, Note_on_c, 5, 62, 96
1, 31536, Note_on_c, 6, 57, 96
1, 31557, Note_off_c, 5, 65, 0
1, 31557, Note_off_c, 5, 62, 0
1, 31557, Note_off_c, 6, 57, 0
1, 31560, Note_on_c, 0, 65, 80
1, 31560, Note_on_c, 1, 57, 80
1, 31560, Note_on_c, 2, 65, 80
1, 31560, Note_on_c, 3, 38, 80
1, 31560, Note_on_c, 4, 26, 80
1, 31560, Note_on_c, 5, 62, 96
1, 31560, Note_on_c, 6, 38, 96
1, 31570, Note_off_c, 5, 62, 0
1, 31572, Note_off_c, 0, 65, 0
1, 31572, Note_on_c, 0, 64, 80
1, 31572, Note_off_c, 1, 57, 0
1, 31572, Note_on_c, 1, 55, 80
1, 31572, Note_on_c, 5, 61, 96
1, 31581, Note_off_c, 2, 65, 0
1, 31581, Note_off_c, 3, 38, 0
1, 31581, Note_off_c, 4, 26, 0
1, 31581, Note_off_c, 6, 38, 0
1, 31582, Note_off_c, 5, 61, 0
1, 31584, Note_off_c, 0, 64, 0
1, 31584, Note_on_c, 0, 65, 80
1, 31584, Note_off_c, 1, 55, 0
1, 31584, Note_on_c, 1, 57, 80
1, 31584, Note_on_c, 2, 65, 80
1, 31584, Note_on_c, 3, 50, 80
1, 31584, Note_on_c, 4, 38, 80
1, 31584, Note_on_c, 5, 62, 96
1, 31584, Note_on_c, 6, 50, 96
1, 31605, Note_off_c, 0, 65, 0
1, 31605, Note_off_c, 1, 57, 0
1, 31605, Note_off_c, 2, 65, 0
1, 31605, Note_off_c, 3, 50, 0
1, 31605, Note_off_c, 4, 38, 0
1, 31605, Note_off_c, 5, 62, 0
1, 31605, Note_off_c, 6, 50, 0
1, 31608, Note_on_c, 0, 69, 80
1, 31608, Note_on_c, 1, 62, 80
1, 31608, Note_on_c, 2, 65, 80
1, 31608, Note_on_c, 3, 48, 80
1, 31608, Note_on_c, 4, 36, 80
1, 31608, Note_on_c, 5, 65, 96
1, 31608, Note_on_c, 6, 48, 96
1, 31618, Note_off_c, 5, 65, 0
1, 31620, Note_off_c, 0, 69, 0
1, 31620, Note_on_c, 0, 67, 80
1, 31620, Note_off_c, 1, 62, 0
1, 31620, Note_on_c, 1, 61, 80
1, 31620, Note_on_c, 5, 64, 96
1, 31629, Note_off_c, 2, 65, 0
1, 31629, Note_off_c, 3, 48, 0
1, 31629, Note_off_c, 4, 36, 0
1, 31629, Note_off_c, 6, 48, 0
1, 31630, Note_off_c, 5, 64, 0
1, 31632, Note_off_c, 0, 67, 0
1, 31632, Note_on_c, 0, 69, 80
1, 31632, Note_off_c, 1, 61, 0
1, 31632, Note_on_c, 1, 62, 80
1, 31632, Note_on_c, 2, 65, 80
1, 31632, Note_on_c, 3, 47, 80
1, 31632, Note_on_c, 4, 35, 80
1, 31632, Note_on_c, 5, 65, 96
1, 31632, Note_on_c, 6, 47, 96
1, 31653, Note_off_c, 0, 69, 0
1, 31653, Note_off_c, 1, 62, 0
1, 31653, Note_off_c, 2, 65, 0
1, 31653, Note_off_c, 3, 47, 0
1, 31653, Note_off_c, 4, 35, 0
1, 31653, Note_off_c, 5, 65, 0
1, 31653, Note_off_c, 6, 47, 0
1, 31656, Note_on_c, 0, 74, 80
1, 31656, Note_on_c, 1, 65, 80
1, 31656, Note_on_c, 2, 65, 80
1, 31656, Note_on_c, 3, 45, 80
1, 31656, Note_on_c, 4, 33, 80
1, 31656, Note_on_c, 5, 71, 96
1, 31656, Note_on_c, 6, 45, 96
1, 31666, Note_off_c, 5, 71, 0
1, 31668, Note_off_c, 0, 74, 0
1, 31668, Note_on_c, 0, 73, 80
1, 31668, Note_off_c, 1, 65, 0
1, 31668, Note_on_c, 1, 64, 80
1, 31668, Note_on_c, 5, 69, 96
1, 31677, Note_off_c, 2, 65, 0
1, 31677, Note_off_c, 3, 45, 0
1, 31677, Note_off_c, 4, 33, 0
1, 31677, Note_off_c, 6, 45, 0
1, 31678, Note_off_c, 5, 69, 0
1, 31680, Note_off_c, 0, 73, 0
1, 31680, Note_on_c, 0, 74, 80
1, 31680, Note_off_c, 1, 64, 0
1, 31680, Note_on_c, 1, 65, 80
1, 31680, Note_on_c, 2, 62, 80
1, 31680, Note_on_c, 3, 44, 80
1, 31680, Note_on_c, 4, 32, 80
1, 31680, Note_on_c, 5, 71, 96
1, 31680, Note_on_c, 6, 44, 96
1, 31701, Note_off_c, 0, 74, 0
1, 31701, Note_off_c, 1, 65, 0
1, 31701, Note_off_c, 2, 62, 0
1, 31701, Note_off_c, 3, 44, 0
1, 31701, Note_off_c, 4, 32, 0
1, 31701, Note_off_c, 5, 71, 0
1, 31701, Note_off_c, 6, 44, 0
1, 31704, Note_on_c, 5, 68, 96
1, 31704, Note_on_c, 5, 62, 96
1, 31704, Note_on_c, 6, 59, 96
1, 31714, Note_off_c, 5, 68, 0
1, 31714, Note_off_c, 5, 62, 0
1, 31714, Note_off_c, 6, 59, 0
1, 31716, Note_on_c, 5, 66, 96
1, 31716, Note_on_c, 5, 60, 96
1, 31716, Note_on_c, 6, 57, 96
1, 31726, Note_off_c, 5, 66, 0
1, 31726, Note_off_c, 5, 60, 0
1, 31726, Note_off_c, 6, 57, 0
1, 31728, Note_on_c, 5, 68, 96
1, 31728, Note_on_c, 5, 62, 96
1, 31728, Note_on_c, 6, 59, 96
1, 31749, Note_off_c, 5, 68, 0
1, 31749, Note_off_c, 5, 62, 0
1, 31749, Note_off_c, 6, 59, 0
1, 31752, Note_on_c, 5, 64, 96
1, 31752, Note_on_c, 5, 59, 96
1, 31752, Note_on_c, 6, 56, 96
1, 31762, Note_off_c, 5, 64, 0
1, 31762, Note_off_c, 5, 59, 0
1, 31762, Note_off_c, 6, 56, 0
1, 31764, Note_on_c, 5, 62, 96
1, 31764, Note_on_c, 5, 57, 96
1, 31764, Note_on_c, 6, 54, 96
1, 31774, Note_off_c, 5, 62, 0
1, 31774, Note_off_c, 5, 57, 0
1, 31774, Note_off_c, 6, 54, 0
1, 31776, Note_on_c, 5, 64, 96
1, 31776, Note_on_c, 5, 59, 96
1, 31776, Note_on_c, 6, 56, 96
1, 31797, Note_off_c, 5, 64, 0
1, 31797, Note_off_c, 5, 59, 0
1, 31797, Note_off_c, 6, 56, 0
1, 31800, Note_on_c, 5, 61, 96
1, 31800, Note_on_c, 5, 57, 96
1, 31800, Note_on_c, 6, 52, 96
1, 31810, Note_off_c, 5, 61, 0
1, 31810, Note_off_c, 5, 57, 0
1, 31810, Note_off_c, 6, 52, 0
1, 31812, Note_on_c, 5, 59, 96
1, 31812, Note_on_c, 5, 56, 96
1, 31812, Note_on_c, 6, 50, 96
1, 31822, Note_off_c, 5, 59, 0
1, 31822, Note_off_c, 5, 56, 0
1, 31822, Note_off_c, 6, 50, 0
1, 31824, Note_on_c, 0, 69, 80
1, 31824, Note_on_c, 1, 64, 80
1, 31824, Note_on_c, 2, 61, 80
1, 31824, Note_on_c, 3, 45, 80
1, 31824, Note_on_c, 4, 33, 80
1, 31824, Note_on_c, 5, 61, 96
1, 31824, Note_on_c, 5, 57, 96
1, 31824, Note_on_c, 6, 52, 96
1, 31824, Note_on_c, 6, 45, 96
1, 31845, Note_off_c, 0, 69, 0
1, 31845, Note_off_c, 1, 64, 0
1, 31845, Note_off_c, 2, 61, 0
1, 31845, Note_off_c, 3, 45, 0
1, 31845, Note_off_c, 4, 33, 0
1, 31845, Note_off_c, 5, 61, 0
1, 31845, Note_off_c, 5, 57, 0
1, 31845, Note_off_c, 6, 52, 0
1, 31845, Note_off_c, 6, 45, 0
1, 31848, Note_on_c, 5, 57, 96
1, 31858, Note_off_c, 5, 57, 0
1, 31860, Note_on_c, 5, 56, 96
1, 31870, Note_off_c, 5, 56, 0
1, 31872, Note_on_c, 5, 57, 96
1, 31893, Note_off_c, 5, 57, 0
1, 31896, Note_on_c, 5, 61, 96
1, 31896, Note_on_c, 5, 57, 96
1, 31896, Note_on_c, 6, 52, 96
1, 31906, Note_off_c, 5, 61, 0
1, 31906, Note_off_c, 6, 52, 0
1, 31908, Note_on_c, 5, 59, 96
1, 31908, Note_on_c, 6, 50, 96
1, 31917, Note_off_c, 5, 57, 0
1, 31918, Note_off_c, 5, 59, 0
1, 31918, Note_off_c, 6, 50, 0
1, 31920, Note_on_c, 5, 61, 96
1, 31920, Note_on_c, 5, 57, 96
1, 31920, Note_on_c, 6, 52, 96
1, 31941, Note_off_c, 5, 61, 0
1, 31941, Note_off_c, 5, 57, 0
1, 31941, Note_off_c, 6, 52, 0
1, 31944, Note_on_c, 5, 64, 96
1, 31944, Note_on_c, 5, 61, 96
1, 31944, Note_on_c, 6, 55, 96
1, 31954, Note_off_c, 5, 64, 0
1, 31954, Note_off_c, 6, 55, 0
1, 31956, Note_on_c, 5, 62, 96
1, 31956, Note_on_c, 6, 53, 96
1, 31965, Note_off_c, 5, 61, 0
1, 31966, Note_off_c, 5, 62, 0
1, 31966, Note_off_c, 6, 53, 0
1, 31968, Note_on_c, 5, 64, 96
1, 31968, Note_on_c, 5, 61, 96
1, 31968, Note_on_c, 6, 55, 96
1, 31989, Note_off_c, 5, 64, 0
1, 31989, Note_off_c, 5, 61, 0
1, 31989, Note_off_c, 6, 55, 0
1, 31992, Note_on_c, 5, 67, 96
1, 31992, Note_on_c, 5, 52, 96
1, 31992, Note_on_c, 6, 45, 96
1, 31992, Note_on_c, 6, 49, 96
1, 32002, Note_off_c, 5, 67, 0
1, 32004, Note_on_c, 5, 65, 96
1, 32013, Note_off_c, 5, 52, 0
1, 32013, Note_off_c, 6, 45, 0
1, 32013, Note_off_c, 6, 49, 0
1, 32014, Note_off_c, 5, 65, 0
1, 32016, Note_on_c, 5, 67, 96
1, 32016, Note_on_c, 5, 52, 96
1, 32016, Note_on_c, 6, 45, 96
1, 32016, Note_on_c, 6, 49, 96
1, 32037, Note_off_c, 5, 67, 0
1, 32037, Note_off_c, 5, 52, 0
1, 32037, Note_off_c, 6, 45, 0
1, 32037, Note_off_c, 6, 49, 0
1, 32040, Note_on_c, 5, 70, 96
1, 32040, Note_on_c, 5, 52, 96
1, 32040, Note_on_c, 6, 43, 96
1, 32040, Note_on_c, 6, 49, 96
1, 32050, Note_off_c, 5, 70, 0
1, 32052, Note_on_c, 5, 69, 96
1, 32061, Note_off_c, 5, 52, 0
1, 32061, Note_off_c, 6, 43, 0
1, 32061, Note_off_c, 6, 49, 0
1, 32062, Note_off_c, 5, 69, 0
1, 32064, Note_on_c, 5, 70, 96
1, 32064, Note_on_c, 5, 52, 96
1, 32064, Note_on_c, 6, 43, 96
1, 32064, Note_on_c, 6, 49, 96
1, 32085, Note_off_c, 5, 70, 0
1, 32085, Note_off_c, 5, 52, 0
1, 32085, Note_off_c, 6, 43, 0
1, 32085, Note_off_c, 6, 49, 0
1, 32088, Note_on_c, 5, 74, 96
1, 32088, Note_on_c, 5, 53, 96
1, 32088, Note_on_c, 6, 41, 96
1, 32088, Note_on_c, 6, 45, 96
1, 32098, Note_off_c, 5, 74, 0
1, 32100, Note_on_c, 5, 73, 96
1, 32109, Note_off_c, 5, 53, 0
1, 32109, Note_off_c, 6, 41, 0
1, 32109, Note_off_c, 6, 45, 0
1, 32110, Note_off_c, 5, 73, 0
1, 32112, Note_on_c, 0, 74, 96
1, 32112, Note_on_c, 1, 74, 96
1, 32112, Note_on_c, 5, 74, 96
1, 32112, Note_on_c, 5, 53, 96
1, 32112, Note_on_c, 6, 41, 96
1, 32112, Note_on_c, 6, 45, 96
1, 32133, Note_off_c, 0, 74, 0
1, 32133, Note_off_c, 1, 74, 0
1, 32133, Note_off_c, 5, 74, 0
1, 32133, Note_off_c, 5, 53, 0
1, 32133, Note_off_c, 6, 41, 0
1, 32133, Note_off_c, 6, 45, 0
1, 32136, Note_on_c, 0, 72, 96
1, 32136, Note_on_c, 1, 72, 96
1, 32136, Note_on_c, 5, 72, 96
1, 32136, Note_on_c, 5, 52, 96
1, 32136, Note_on_c, 6, 43, 96
1, 32146, Note_off_c, 0, 72, 0
1, 32146, Note_off_c, 1, 72, 0
1, 32146, Note_off_c, 5, 72, 0
1, 32148, Note_on_c, 0, 70, 96
1, 32148, Note_on_c, 1, 70, 96
1, 32148, Note_on_c, 5, 70, 96
1, 32157, Note_off_c, 5, 52, 0
1, 32157, Note_off_c, 6, 43, 0
1, 32158, Note_off_c, 0, 70, 0
1, 32158, Note_off_c, 1, 70, 0
1, 32158, Note_off_c, 5, 70, 0
1, 32160, Note_on_c, 0, 69, 96
1, 32160, Note_on_c, 1, 69, 96
1, 32160, Note_on_c, 5, 69, 96
1, 32160, Note_on_c, 5, 53, 96
1, 32160, Note_on_c, 6, 45, 96
1, 32170, Note_off_c, 5, 69, 0
1, 32172, Note_on_c, 5, 77, 96
1, 32181, Note_off_c, 0, 69, 0
1, 32181, Note_off_c, 1, 69, 0
1, 32181, Note_off_c, 5, 53, 0
1, 32181, Note_off_c, 6, 45, 0
1, 32182, Note_off_c, 5, 77, 0
1, 32184, Note_on_c, 0, 67, 96
1, 32184, Note_on_c, 1, 67, 96
1, 32184, Note_on_c, 5, 67, 96
1, 32184, Note_on_c, 5, 55, 96
1, 32184, Note_on_c, 6, 46, 96
1, 32194, Note_off_c, 5, 67, 0
1, 32196, Note_on_c, 5, 76, 96
1, 32205, Note_off_c, 0, 67, 0
1, 32205, Note_off_c, 1, 67, 0
1, 32205, Note_off_c, 5, 55, 0
1, 32205, Note_off_c, 6, 46, 0
1, 32206, Note_off_c, 5, 76, 0
1, 32208, Note_on_c, 0, 65, 96
1, 32208, Note_on_c, 1, 65, 96
1, 32208, Note_on_c, 5, 65, 96
1, 32208, Note_on_c, 5, 57, 96
1, 32208, Note_on_c, 6, 45, 96
1, 32218, Note_off_c, 5, 65, 0
1, 32220, Note_on_c, 5, 74, 96
1, 32229, Note_off_c, 0, 65, 0
1, 32229, Note_off_c, 1, 65, 0
1, 32229, Note_off_c, 5, 57, 0
1, 32230, Note_off_c, 5, 74, 0
1, 32232, Note_on_c, 0, 64, 96
1, 32232, Note_on_c, 1, 64, 96
1, 32232, Note_on_c, 5, 64, 96
1, 32232, Note_on_c, 5, 55, 96
1, 32242, Note_off_c, 5, 64, 0
1, 32244, Note_on_c, 5, 73, 96
1, 32250, Note_off_c, 6, 45, 0
1, 32253, Note_off_c, 0, 64, 0
1, 32253, Note_off_c, 1, 64, 0
1, 32253, Note_off_c, 5, 55, 0
1, 32254, Note_off_c, 5, 73, 0
1, 32256, Note_on_c, 0, 65, 96
1, 32256, Note_on_c, 1, 65, 96
1, 32256, Note_on_c, 5, 65, 96
1, 32256, Note_on_c, 5, 74, 96
1, 32256, Note_on_c, 6, 50, 96
1, 32256, Note_on_c, 6, 53, 96
1, 32277, Note_off_c, 0, 65, 0
1, 32277, Note_off_c, 1, 65, 0
1, 32277, Note_off_c, 5, 65, 0
1, 32277, Note_off_c, 5, 74, 0
1, 32277, Note_off_c, 6, 50, 0
1, 32277, Note_off_c, 6, 53, 0
1, 32280, Note_on_c, 0, 62, 96
1, 32280, Note_on_c, 1, 62, 96
1, 32280, Note_on_c, 2, 65, 96
1, 32280, Note_on_c, 3, 50, 96
1, 32280, Note_on_c, 4, 38, 96
1, 32280, Note_on_c, 5, 62, 96
1, 32280, Note_on_c, 6, 50, 96
1, 32290, Note_off_c, 2, 65, 0
1, 32290, Note_off_c, 3, 50, 0
1, 32290, Note_off_c, 4, 38, 0
1, 32290, Note_off_c, 6, 50, 0
1, 32292, Note_on_c, 2, 67, 96
1, 32292, Note_on_c, 3, 52, 96
1, 32292, Note_on_c, 4, 40, 96
1, 32292, Note_on_c, 6, 52, 96
1, 32301, Note_off_c, 0, 62, 0
1, 32301, Note_off_c, 1, 62, 0
1, 32301, Note_off_c, 5, 62, 0
1, 32302, Note_off_c, 2, 67, 0
1, 32302, Note_off_c, 3, 52, 0
1, 32302, Note_off_c, 4, 40, 0
1, 32302, Note_off_c, 6, 52, 0
1, 32304, Note_on_c, 0, 74, 96
1, 32304, Note_on_c, 1, 74, 96
1, 32304, Note_on_c, 2, 69, 96
1, 32304, Note_on_c, 3, 53, 96
1, 32304, Note_on_c, 4, 41, 96
1, 32304, Note_on_c, 5, 74, 96
1, 32304, Note_on_c, 6, 53, 96
1, 32325, Note_off_c, 0, 74, 0
1, 32325, Note_off_c, 1, 74, 0
1, 32325, Note_off_c, 2, 69, 0
1, 32325, Note_off_c, 3, 53, 0
1, 32325, Note_off_c, 4, 41, 0
1, 32325, Note_off_c, 5, 74, 0
1, 32325, Note_off_c, 6, 53, 0
1, 32328, Note_on_c, 0, 74, 96
1, 32328, Note_on_c, 1, 74, 96
1, 32328, Note_on_c, 2, 67, 96
1, 32328, Note_on_c, 3, 52, 96
1, 32328, Note_on_c, 4, 40, 96
1, 32328, Note_on_c, 5, 74, 96
1, 32328, Note_on_c, 6, 52, 96
1, 32338, Note_off_c, 2, 67, 0
1, 32338, Note_off_c, 3, 52, 0
1, 32338, Note_off_c, 4, 40, 0
1, 32338, Note_off_c, 6, 52, 0
1, 32340, Note_on_c, 2, 69, 96
1, 32340, Note_on_c, 3, 53, 96
1, 32340, Note_on_c, 4, 41, 96
1, 32340, Note_on_c, 6, 53, 96
1, 32349, Note_off_c, 0, 74, 0
1, 32349, Note_off_c, 1, 74, 0
1, 32349, Note_off_c, 5, 74, 0
1, 32350, Note_off_c, 2, 69, 0
1, 32350, Note_off_c, 3, 53, 0
1, 32350, Note_off_c, 4, 41, 0
1, 32350, Note_off_c, 6, 53, 0
1, 32352, Note_on_c, 0, 74, 96
1, 32352, Note_on_c, 1, 74, 96
1, 32352, Note_on_c, 2, 70, 96
1, 32352, Note_on_c, 3, 55, 96
1, 32352, Note_on_c, 4, 43, 96
1, 32352, Note_on_c, 5, 74, 96
1, 32352, Note_on_c, 6, 55, 96
1, 32373, Note_off_c, 0, 74, 0
1, 32373, Note_off_c, 1, 74, 0
1, 32373, Note_off_c, 2, 70, 0
1, 32373, Note_off_c, 3, 55, 0
1, 32373, Note_off_c, 4, 43, 0
1, 32373, Note_off_c, 5, 74, 0
1, 32373, Note_off_c, 6, 55, 0
1, 32376, Note_on_c, 0, 74, 96
1, 32376, Note_on_c, 1, 74, 96
1, 32376, Note_on_c, 2, 69, 96
1, 32376, Note_on_c, 3, 53, 96
1, 32376, Note_on_c, 4, 41, 96
1, 32376, Note_on_c, 5, 74, 96
1, 32376, Note_on_c, 6, 53, 96
1, 32386, Note_off_c, 2, 69, 0
1, 32386, Note_off_c, 3, 53, 0
1, 32386, Note_off_c, 4, 41, 0
1, 32386, Note_off_c, 6, 53, 0
1, 32388, Note_on_c, 2, 70, 96
1, 32388, Note_on_c, 3, 55, 96
1, 32388, Note_on_c, 4, 43, 96
1, 32388, Note_on_c, 6, 55, 96
1, 32397, Note_off_c, 0, 74, 0
1, 32397, Note_off_c, 1, 74, 0
1, 32397, Note_off_c, 5, 74, 0
1, 32398, Note_off_c, 2, 70, 0
1, 32398, Note_off_c, 3, 55, 0
1, 32398, Note_off_c, 4, 43, 0
1, 32398, Note_off_c, 6, 55, 0
1, 32400, Note_on_c, 0, 74, 96
1, 32400, Note_on_c, 1, 74, 96
1, 32400, Note_on_c, 2, 64, 96
1, 32400, Note_on_c, 3, 57, 96
1, 32400, Note_on_c, 4, 45, 96
1, 32400, Note_on_c, 5, 74, 96
1, 32400, Note_on_c, 6, 57, 96
1, 32410, Note_off_c, 0, 74, 0
1, 32410, Note_off_c, 1, 74, 0
1, 32410, Note_off_c, 5, 74, 0
1, 32412, Note_on_c, 0, 72, 96
1, 32412, Note_on_c, 1, 72, 96
1, 32412, Note_on_c, 5, 72, 96
1, 32421, Note_off_c, 2, 64, 0
1, 32421, Note_off_c, 3, 57, 0
1, 32421, Note_off_c, 4, 45, 0
1, 32421, Note_off_c, 6, 57, 0
1, 32422, Note_off_c, 0, 72, 0
1, 32422, Note_off_c, 1, 72, 0
1, 32422, Note_off_c, 5, 72, 0
1, 32424, Note_on_c, 0, 74, 96
1, 32424, Note_on_c, 1, 74, 96
1, 32424, Note_on_c, 2, 69, 96
1, 32424, Note_on_c, 3, 53, 96
1, 32424, Note_on_c, 4, 41, 96
1, 32424, Note_on_c, 5, 74, 96
1, 32424, Note_on_c, 6, 53, 96
1, 32434, Note_off_c, 0, 74, 0
1, 32434, Note_off_c, 1, 74, 0
1, 32434, Note_off_c, 2, 69, 0
1, 32434, Note_off_c, 3, 53, 0
1, 32434, Note_off_c, 4, 41, 0
1, 32434, Note_off_c, 5, 74, 0
1, 32434, Note_off_c, 6, 53, 0
1, 32436, Note_on_c, 0, 76, 96
1, 32436, Note_on_c, 1, 76, 96
1, 32436, Note_on_c, 2, 70, 96
1, 32436, Note_on_c, 3, 55, 96
1, 32436, Note_on_c, 4, 43, 96
1, 32436, Note_on_c, 5, 76, 96
1, 32436, Note_on_c, 6, 55, 96
1, 32446, Note_off_c, 0, 76, 0
1, 32446, Note_off_c, 1, 76, 0
1, 32446, Note_off_c, 2, 70, 0
1, 32446, Note_off_c, 3, 55, 0
1, 32446, Note_off_c, 4, 43, 0
1, 32446, Note_off_c, 5, 76, 0
1, 32446, Note_off_c, 6, 55, 0
1, 32448, Note_on_c, 0, 77, 96
1, 32448, Note_on_c, 1, 77, 96
1, 32448, Note_on_c, 2, 72, 96
1, 32448, Note_on_c, 3, 57, 96
1, 32448, Note_on_c, 4, 45, 96
1, 32448, Note_on_c, 5, 77, 96
1, 32448, Note_on_c, 6, 57, 96
1, 32469, Note_off_c, 0, 77, 0
1, 32469, Note_off_c, 1, 77, 0
1, 32469, Note_off_c, 2, 72, 0
1, 32469, Note_off_c, 3, 57, 0
1, 32469, Note_off_c, 4, 45, 0
1, 32469, Note_off_c, 5, 77, 0
1, 32469, Note_off_c, 6, 57, 0
1, 32472, Note_on_c, 0, 77, 96
1, 32472, Note_on_c, 1, 77, 96
1, 32472, Note_on_c, 2, 70, 96
1, 32472, Note_on_c, 3, 55, 96
1, 32472, Note_on_c, 4, 43, 96
1, 32472, Note_on_c, 5, 77, 96
1, 32472, Note_on_c, 6, 55, 96
1, 32482, Note_off_c, 2, 70, 0
1, 32482, Note_off_c, 3, 55, 0
1, 32482, Note_off_c, 4, 43, 0
1, 32482, Note_off_c, 6, 55, 0
1, 32484, Note_on_c, 2, 72, 96
1, 32484, Note_on_c, 3, 57, 96
1, 32484, Note_on_c, 4, 45, 96
1, 32484, Note_on_c, 6, 57, 96
1, 32493, Note_off_c, 0, 77, 0
1, 32493, Note_off_c, 1, 77, 0
1, 32493, Note_off_c, 5, 77, 0
1, 32494, Note_off_c, 2, 72, 0
1, 32494, Note_off_c, 3, 57, 0
1, 32494, Note_off_c, 4, 45, 0
1, 32494, Note_off_c, 6, 57, 0
1, 32496, Note_on_c, 0, 77, 96
1, 32496, Note_on_c, 1, 77, 96
1, 32496, Note_on_c, 2, 74, 96
1, 32496, Note_on_c, 3, 59, 96
1, 32496, Note_on_c, 4, 47, 96
1, 32496, Note_on_c, 5, 77, 96
1, 32496, Note_on_c, 6, 59, 96
1, 32517, Note_off_c, 0, 77, 0
1, 32517, Note_off_c, 1, 77, 0
1, 32517, Note_off_c, 2, 74, 0
1, 32517, Note_off_c, 3, 59, 0
1, 32517, Note_off_c, 4, 47, 0
1, 32517, Note_off_c, 5, 77, 0
1, 32517, Note_off_c, 6, 59, 0
1, 32520, Note_on_c, 0, 77, 96
1, 32520, Note_on_c, 1, 77, 96
1, 32520, Note_on_c, 2, 72, 96
1, 32520, Note_on_c, 3, 57, 96
1, 32520, Note_on_c, 4, 45, 96
1, 32520, Note_on_c, 5, 77, 96
1, 32520, Note_on_c, 6, 57, 96
1, 32530, Note_off_c, 2, 72, 0
1, 32530, Note_off_c, 3, 57, 0
1, 32530, Note_off_c, 4, 45, 0
1, 32530, Note_off_c, 6, 57, 0
1, 32532, Note_on_c, 2, 74, 96
1, 32532, Note_on_c, 3, 59, 96
1, 32532, Note_on_c, 4, 47, 96
1, 32532, Note_on_c, 6, 59, 96
1, 32541, Note_off_c, 0, 77, 0
1, 32541, Note_off_c, 1, 77, 0
1, 32541, Note_off_c, 5, 77, 0
1, 32542, Note_off_c, 2, 74, 0
1, 32542, Note_off_c, 3, 59, 0
1, 32542, Note_off_c, 4, 47, 0
1, 32542, Note_off_c, 6, 59, 0
1, 32544, Note_on_c, 0, 77, 96
1, 32544, Note_on_c, 1, 77, 96
1, 32544, Note_on_c, 2, 67, 96
1, 32544, Note_on_c, 3, 60, 96
1, 32544, Note_on_c, 4, 48, 96
1, 32544, Note_on_c, 5, 77, 96
1, 32544, Note_on_c, 6, 60, 96
1, 32554, Note_off_c, 0, 77, 0
1, 32554, Note_off_c, 1, 77, 0
1, 32554, Note_off_c, 5, 77, 0
1, 32556, Note_on_c, 0, 76, 96
1, 32556, Note_on_c, 1, 76, 96
1, 32556, Note_on_c, 5, 76, 96
1, 32565, Note_off_c, 2, 67, 0
1, 32565, Note_off_c, 3, 60, 0
1, 32565, Note_off_c, 4, 48, 0
1, 32565, Note_off_c, 6, 60, 0
1, 32566, Note_off_c, 0, 76, 0
1, 32566, Note_off_c, 1, 76, 0
1, 32566, Note_off_c, 5, 76, 0
1, 32568, Note_on_c, 0, 77, 96
1, 32568, Note_on_c, 1, 77, 96
1, 32568, Note_on_c, 2, 60, 96
1, 32568, Note_on_c, 3, 57, 96
1, 32568, Note_on_c, 4, 45, 96
1, 32568, Note_on_c, 5, 77, 96
1, 32568, Note_on_c, 6, 57, 96
1, 32578, Note_off_c, 0, 77, 0
1, 32578, Note_off_c, 1, 77, 0
1, 32578, Note_off_c, 2, 60, 0
1, 32578, Note_off_c, 3, 57, 0
1, 32578, Note_off_c, 4, 45, 0
1, 32578, Note_off_c, 5, 77, 0
1, 32578, Note_off_c, 6, 57, 0
1, 32580, Note_on_c, 0, 79, 96
1, 32580, Note_on_c, 1, 79, 96
1, 32580, Note_on_c, 2, 62, 96
1, 32580, Note_on_c, 3, 59, 96
1, 32580, Note_on_c, 4, 47, 96
1, 32580, Note_on_c, 5, 79, 96
1, 32580, Note_on_c, 6, 59, 96
1, 32590, Note_off_c, 0, 79, 0
1, 32590, Note_off_c, 1, 79, 0
1, 32590, Note_off_c, 2, 62, 0
1, 32590, Note_off_c, 3, 59, 0
1, 32590, Note_off_c, 4, 47, 0
1, 32590, Note_off_c, 5, 79, 0
1, 32590, Note_off_c, 6, 59, 0
1, 32592, Note_on_c, 0, 81, 96
1, 32592, Note_on_c, 1, 81, 96
1, 32592, Note_on_c, 2, 64, 96
1, 32592, Note_on_c, 3, 60, 96
1, 32592, Note_on_c, 4, 48, 96
1, 32592, Note_on_c, 5, 81, 96
1, 32592, Note_on_c, 6, 60, 96
1, 32613, Note_off_c, 0, 81, 0
1, 32613, Note_off_c, 1, 81, 0
1, 32613, Note_off_c, 2, 64, 0
1, 32613, Note_off_c, 3, 60, 0
1, 32613, Note_off_c, 4, 48, 0
1, 32613, Note_off_c, 5, 81, 0
1, 32613, Note_off_c, 6, 60, 0
1, 32616, Note_on_c, 0, 81, 96
1, 32616, Note_on_c, 1, 81, 96
1, 32616, Note_on_c, 2, 62, 96
1, 32616, Note_on_c, 3, 59, 96
1, 32616, Note_on_c, 4, 47, 96
1, 32616, Note_on_c, 5, 81, 96
1, 32616, Note_on_c, 6, 59, 96
1, 32626, Note_off_c, 2, 62, 0
1, 32626, Note_off_c, 3, 59, 0
1, 32626, Note_off_c, 4, 47, 0
1, 32626, Note_off_c, 6, 59, 0
1, 32628, Note_on_c, 2, 64, 96
1, 32628, Note_on_c, 3, 60, 96
1, 32628, Note_on_c, 4, 48, 96
1, 32628, Note_on_c, 6, 60, 96
1, 32637, Note_off_c, 0, 81, 0
1, 32637, Note_off_c, 1, 81, 0
1, 32637, Note_off_c, 5, 81, 0
1, 32638, Note_off_c, 2, 64, 0
1, 32638, Note_off_c, 3, 60, 0
1, 32638, Note_off_c, 4, 48, 0
1, 32638, Note_off_c, 6, 60, 0
1, 32640, Note_on_c, 0, 81, 96
1, 32640, Note_on_c, 1, 81, 96
1, 32640, Note_on_c, 2, 65, 96
1, 32640, Note_on_c, 3, 62, 96
1, 32640, Note_on_c, 4, 50, 96
1, 32640, Note_on_c, 5, 81, 96
1, 32640, Note_on_c, 6, 62, 96
1, 32661, Note_off_c, 0, 81, 0
1, 32661, Note_off_c, 1, 81, 0
1, 32661, Note_off_c, 2, 65, 0
1, 32661, Note_off_c, 3, 62, 0
1, 32661, Note_off_c, 4, 50, 0
1, 32661, Note_off_c, 5, 81, 0
1, 32661, Note_off_c, 6, 62, 0
1, 32664, Note_on_c, 0, 81, 96
1, 32664, Note_on_c, 1, 81, 96
1, 32664, Note_on_c, 2, 64, 96
1, 32664, Note_on_c, 3, 60, 96
1, 32664, Note_on_c, 4, 48, 96
1, 32664, Note_on_c, 5, 81, 96
1, 32664, Note_on_c, 6, 60, 96
1, 32674, Note_off_c, 2, 64, 0
1, 32674, Note_off_c, 3, 60, 0
1, 32674, Note_off_c, 4, 48, 0
1, 32674, Note_off_c, 6, 60, 0
1, 32676, Note_on_c, 2, 65, 96
1, 32676, Note_on_c, 3, 62, 96
1, 32676, Note_on_c, 4, 50, 96
1, 32676, Note_on_c, 6, 62, 96
1, 32685, Note_off_c, 0, 81, 0
1, 32685, Note_off_c, 1, 81, 0
1, 32685, Note_off_c, 5, 81, 0
1, 32686, Note_off_c, 2, 65, 0
1, 32686, Note_off_c, 3, 62, 0
1, 32686, Note_off_c, 4, 50, 0
1, 32686, Note_off_c, 6, 62, 0
1, 32688, Note_on_c, 0, 81, 96
1, 32688, Note_on_c, 1, 81, 96
1, 32688, Note_on_c, 2, 59, 96
1, 32688, Note_on_c, 3, 64, 96
1, 32688, Note_on_c, 4, 52, 96
1, 32688, Note_on_c, 5, 81, 96
1, 32688, Note_on_c, 6, 64, 96
1, 32709, Note_off_c, 0, 81, 0
1, 32709, Note_off_c, 1, 81, 0
1, 32709, Note_off_c, 3, 64, 0
1, 32709, Note_off_c, 4, 52, 0
1, 32709, Note_off_c, 5, 81, 0
1, 32709, Note_off_c, 6, 64, 0
1, 32712, Note_on_c, 0, 79, 96
1, 32712, Note_on_c, 1, 79, 96
1, 32712, Note_on_c, 3, 52, 96
1, 32712, Note_on_c, 4, 40, 96
1, 32712, Note_on_c, 5, 79, 96
1, 32712, Note_on_c, 6, 52, 96
1, 32722, Note_off_c, 0, 79, 0
1, 32722, Note_off_c, 1, 79, 0
1, 32722, Note_off_c, 5, 79, 0
1, 32724, Note_on_c, 0, 77, 96
1, 32724, Note_on_c, 1, 77, 96
1, 32724, Note_on_c, 5, 77, 96
1, 32730, Note_off_c, 2, 59, 0
1, 32733, Note_off_c, 3, 52, 0
1, 32733, Note_off_c, 4, 40, 0
1, 32733, Note_off_c, 6, 52, 0
1, 32734, Note_off_c, 0, 77, 0
1, 32734, Note_off_c, 1, 77, 0
1, 32734, Note_off_c, 5, 77, 0
1, 32736, Note_on_c, 0, 79, 96
1, 32736, Note_on_c, 1, 79, 96
1, 32736, Note_on_c, 3, 64, 96
1, 32736, Note_on_c, 4, 52, 96
1, 32736, Note_on_c, 5, 79, 96
1, 32736, Note_on_c, 6, 64, 96
1, 32757, Note_off_c, 0, 79, 0
1, 32757, Note_off_c, 1, 79, 0
1, 32757, Note_off_c, 3, 64, 0
1, 32757, Note_off_c, 4, 52, 0
1, 32757, Note_off_c, 5, 79, 0
1, 32757, Note_off_c, 6, 64, 0
1, 32760, Note_on_c, 0, 76, 96
1, 32760, Note_on_c, 1, 76, 96
1, 32760, Note_on_c, 2, 61, 96
1, 32760, Note_on_c, 3, 62, 96
1, 32760, Note_on_c, 4, 50, 96
1, 32760, Note_on_c, 5, 76, 96
1, 32760, Note_on_c, 6, 62, 96
1, 32770, Note_off_c, 0, 76, 0
1, 32770, Note_off_c, 1, 76, 0
1, 32770, Note_off_c, 2, 61, 0
1, 32770, Note_off_c, 5, 76, 0
1, 32772, Note_on_c, 0, 77, 96
1, 32772, Note_on_c, 1, 77, 96
1, 32772, Note_on_c, 2, 62, 96
1, 32772, Note_on_c, 5, 77, 96
1, 32781, Note_off_c, 3, 62, 0
1, 32781, Note_off_c, 4, 50, 0
1, 32781, Note_off_c, 6, 62, 0
1, 32782, Note_off_c, 0, 77, 0
1, 32782, Note_off_c, 1, 77, 0
1, 32782, Note_off_c, 2, 62, 0
1, 32782, Note_off_c, 5, 77, 0
1, 32784, Note_on_c, 0, 79, 96
1, 32784, Note_on_c, 1, 79, 96
1, 32784, Note_on_c, 2, 64, 96
1, 32784, Note_on_c, 3, 61, 96
1, 32784, Note_on_c, 4, 49, 96
1, 32784, Note_on_c, 5, 79, 96
1, 32784, Note_on_c, 6, 61, 96
1, 32794, Note_off_c, 2, 64, 0
1, 32796, Note_on_c, 2, 62, 96
1, 32805, Note_off_c, 0, 79, 0
1, 32805, Note_off_c, 1, 79, 0
1, 32805, Note_off_c, 3, 61, 0
1, 32805, Note_off_c, 4, 49, 0
1, 32805, Note_off_c, 5, 79, 0
1, 32805, Note_off_c, 6, 61, 0
1, 32806, Note_off_c, 2, 62, 0
1, 32808, Note_on_c, 0, 79, 96
1, 32808, Note_on_c, 1, 79, 96
1, 32808, Note_on_c, 2, 61, 96
1, 32808, Note_on_c, 3, 57, 96
1, 32808, Note_on_c, 4, 45, 96
1, 32808, Note_on_c, 5, 79, 96
1, 32808, Note_on_c, 6, 57, 96
1, 32818, Note_off_c, 2, 61, 0
1, 32820, Note_on_c, 2, 59, 96
1, 32829, Note_off_c, 0, 79, 0
1, 32829, Note_off_c, 1, 79, 0
1, 32829, Note_off_c, 3, 57, 0
1, 32829, Note_off_c, 4, 45, 0
1, 32829, Note_off_c, 5, 79, 0
1, 32829, Note_off_c, 6, 57, 0
1, 32830, Note_off_c, 2, 59, 0
1, 32832, Note_on_c, 0, 79, 96
1, 32832, Note_on_c, 1, 79, 96
1, 32832, Note_on_c, 2, 57, 96
1, 32832, Note_on_c, 3, 62, 96
1, 32832, Note_on_c, 4, 50, 96
1, 32832, Note_on_c, 5, 77, 96
1, 32832, Note_on_c, 6, 62, 96
1, 32853, Note_off_c, 0, 79, 0
1, 32853, Note_off_c, 1, 79, 0
1, 32853, Note_off_c, 2, 57, 0
1, 32853, Note_off_c, 3, 62, 0
1, 32853, Note_off_c, 4, 50, 0
1, 32853, Note_off_c, 5, 77, 0
1, 32853, Note_off_c, 6, 62, 0
1, 32856, Note_on_c, 0, 77, 96
1, 32856, Note_on_c, 1, 77, 96
1, 32856, Note_on_c, 5, 86, 96
1, 32856, Note_on_c, 5, 81, 96
1, 32856, Note_on_c, 6, 77, 96
1, 32866, Note_off_c, 0, 77, 0
1, 32866, Note_off_c, 1, 77, 0
1, 32866, Note_off_c, 5, 86, 0
1, 32866, Note_off_c, 6, 77, 0
1, 32868, Note_on_c, 0, 76, 96
1, 32868, Note_on_c, 1, 76, 96
1, 32868, Note_on_c, 5, 85, 96
1, 32868, Note_on_c, 6, 76, 96
1, 32877, Note_off_c, 5, 81, 0
1, 32878, Note_off_c, 0, 76, 0
1, 32878, Note_off_c, 1, 76, 0
1, 32878, Note_off_c, 5, 85, 0
1, 32878, Note_off_c, 6, 76, 0
1, 32880, Note_on_c, 0, 77, 96
1, 32880, Note_on_c, 1, 77, 96
1, 32880, Note_on_c, 5, 86, 96
1, 32880, Note_on_c, 5, 81, 96
1, 32880, Note_on_c, 6, 77, 96
1, 32901, Note_off_c, 0, 77, 0
1, 32901, Note_off_c, 1, 77, 0
1, 32901, Note_off_c, 5, 86, 0
1, 32901, Note_off_c, 5, 81, 0
1, 32901, Note_off_c, 6, 77, 0
1, 32904, Note_on_c, 5, 81, 96
1, 32904, Note_on_c, 5, 77, 96
1, 32904, Note_on_c, 6, 74, 96
1, 32914, Note_off_c, 5, 81, 0
1, 32914, Note_off_c, 5, 77, 0
1, 32916, Note_on_c, 5, 79, 96
1, 32916, Note_on_c, 5, 76, 96
1, 32925, Note_off_c, 6, 74, 0
1, 32926, Note_off_c, 5, 79, 0
1, 32926, Note_off_c, 5, 76, 0
1, 32928, Note_on_c, 5, 81, 96
1, 32928, Note_on_c, 5, 77, 96
1, 32928, Note_on_c, 6, 74, 96
1, 32949, Note_off_c, 5, 81, 0
1, 32949, Note_off_c, 5, 77, 0
1, 32949, Note_off_c, 6, 74, 0
1, 32952, Note_on_c, 5, 77, 96
1, 32952, Note_on_c, 5, 74, 96
1, 32952, Note_on_c, 6, 69, 96
1, 32962, Note_off_c, 5, 77, 0
1, 32962, Note_off_c, 5, 74, 0
1, 32962, Note_off_c, 6, 69, 0
1, 32964, Note_on_c, 5, 76, 96
1, 32964, Note_on_c, 5, 73, 96
1, 32964, Note_on_c, 6, 67, 96
1, 32974, Note_off_c, 5, 76, 0
1, 32974, Note_off_c, 5, 73, 0
1, 32974, Note_off_c, 6, 67, 0
1, 32976, Note_on_c, 5, 77, 96
1, 32976, Note_on_c, 5, 74, 96
1, 32976, Note_on_c, 6, 69, 96
1, 32997, Note_off_c, 5, 77, 0
1, 32997, Note_off_c, 5, 74, 0
1, 32997, Note_off_c, 6, 69, 0
1, 33000, Note_on_c, 0, 77, 80
1, 33000, Note_on_c, 5, 74, 96
1, 33000, Note_on_c, 5, 69, 96
1, 33000, Note_on_c, 6, 65, 96
1, 33010, Note_off_c, 0, 77, 0
1, 33010, Note_off_c, 5, 74, 0
1, 33010, Note_off_c, 5, 69, 0
1, 33010, Note_off_c, 6, 65, 0
1, 33012, Note_on_c, 0, 76, 80
1, 33012, Note_on_c, 5, 73, 96
1, 33012, Note_on_c, 5, 67, 96
1, 33012, Note_on_c, 6, 64, 96
1, 33022, Note_off_c, 0, 76, 0
1, 33022, Note_off_c, 5, 73, 0
1, 33022, Note_off_c, 5, 67, 0
1, 33022, Note_off_c, 6, 64, 0
1, 33024, Note_on_c, 0, 77, 80
1, 33024, Note_on_c, 5, 74, 96
1, 33024, Note_on_c, 5, 69, 96
1, 33024, Note_on_c, 6, 65, 96
1, 33045, Note_off_c, 0, 77, 0
1, 33045, Note_off_c, 5, 74, 0
1, 33045, Note_off_c, 5, 69, 0
1, 33045, Note_off_c, 6, 65, 0
1, 33048, Note_on_c, 1, 74, 80
1, 33048, Note_on_c, 3, 62, 80
1, 33048, Note_on_c, 4, 50, 80
1, 33048, Note_on_c, 5, 77, 96
1, 33048, Note_on_c, 6, 62, 96
1, 33058, Note_off_c, 1, 74, 0
1, 33058, Note_off_c, 5, 77, 0
1, 33060, Note_on_c, 1, 73, 80
1, 33060, Note_on_c, 5, 76, 96
1, 33069, Note_off_c, 3, 62, 0
1, 33069, Note_off_c, 4, 50, 0
1, 33069, Note_off_c, 6, 62, 0
1, 33070, Note_off_c, 1, 73, 0
1, 33070, Note_off_c, 5, 76, 0
1, 33072, Note_on_c, 1, 74, 80
1, 33072, Note_on_c, 3, 58, 80
1, 33072, Note_on_c, 4, 46, 80
1, 33072, Note_on_c, 5, 77, 96
1, 33072, Note_on_c, 6, 58, 96
1, 33093, Note_off_c, 1, 74, 0
1, 33093, Note_off_c, 3, 58, 0
1, 33093, Note_off_c, 4, 46, 0
1, 33093, Note_off_c, 5, 77, 0
1, 33093, Note_off_c, 6, 58, 0
1, 33096, Note_on_c, 2, 67, 80
1, 33096, Note_on_c, 3, 55, 80
1, 33096, Note_on_c, 4, 43, 80
1, 33096, Note_on_c, 5, 82, 96
1, 33096, Note_on_c, 6, 55, 96
1, 33106, Note_off_c, 2, 67, 0
1, 33106, Note_off_c, 5, 82, 0
1, 33108, Note_on_c, 2, 65, 80
1, 33108, Note_on_c, 5, 81, 96
1, 33117, Note_off_c, 3, 55, 0
1, 33117, Note_off_c, 4, 43, 0
1, 33117, Note_off_c, 6, 55, 0
1, 33118, Note_off_c, 2, 65, 0
1, 33118, Note_off_c, 5, 81, 0
1, 33120, Note_on_c, 2, 64, 80
1, 33120, Note_on_c, 3, 60, 80
1, 33120, Note_on_c, 4, 48, 80
1, 33120, Note_on_c, 5, 82, 96
1, 33120, Note_on_c, 6, 60, 96
1, 33141, Note_off_c, 2, 64, 0
1, 33141, Note_off_c, 5, 82, 0
1, 33141, Note_off_c, 6, 60, 0
1, 33144, Note_on_c, 0, 76, 80
1, 33144, Note_on_c, 5, 72, 96
1, 33144, Note_on_c, 6, 55, 96
1, 33154, Note_off_c, 0, 76, 0
1, 33154, Note_off_c, 5, 72, 0
1, 33156, Note_on_c, 0, 74, 80
1, 33156, Note_on_c, 5, 71, 96
1, 33162, Note_off_c, 3, 60, 0
1, 33162, Note_off_c, 4, 48, 0
1, 33165, Note_off_c, 6, 55, 0
1, 33166, Note_off_c, 0, 74, 0
1, 33166, Note_off_c, 5, 71, 0
1, 33168, Note_on_c, 0, 76, 80
1, 33168, Note_on_c, 5, 72, 96
1, 33168, Note_on_c, 6, 48, 96
1, 33189, Note_off_c, 0, 76, 0
1, 33189, Note_off_c, 5, 72, 0
1, 33189, Note_off_c, 6, 48, 0
1, 33192, Note_on_c, 1, 72, 80
1, 33192, Note_on_c, 3, 60, 80
1, 33192, Note_on_c, 4, 48, 80
1, 33192, Note_on_c, 5, 76, 96
1, 33192, Note_on_c, 6, 60, 96
1, 33202, Note_off_c, 1, 72, 0
1, 33202, Note_off_c, 5, 76, 0
1, 33204, Note_on_c, 1, 71, 80
1, 33204, Note_on_c, 5, 74, 96
1, 33213, Note_off_c, 3, 60, 0
1, 33213, Note_off_c, 4, 48, 0
1, 33213, Note_off_c, 6, 60, 0
1, 33214, Note_off_c, 1, 71, 0
1, 33214, Note_off_c, 5, 74, 0
1, 33216, Note_on_c, 1, 72, 80
1, 33216, Note_on_c, 3, 57, 80
1, 33216, Note_on_c, 4, 45, 80
1, 33216, Note_on_c, 5, 76, 96
1, 33216, Note_on_c, 6, 57, 96
1, 33237, Note_off_c, 1, 72, 0
1, 33237, Note_off_c, 3, 57, 0
1, 33237, Note_off_c, 4, 45, 0
1, 33237, Note_off_c, 5, 76, 0
1, 33237, Note_off_c, 6, 57, 0
1, 33240, Note_on_c, 2, 65, 80
1, 33240, Note_on_c, 3, 53, 80
1, 33240, Note_on_c, 4, 41, 80
1, 33240, Note_on_c, 5, 81, 96
1, 33240, Note_on_c, 6, 53, 96
1, 33250, Note_off_c, 2, 65, 0
1, 33250, Note_off_c, 5, 81, 0
1, 33252, Note_on_c, 2, 64, 80
1, 33252, Note_on_c, 5, 79, 96
1, 33261, Note_off_c, 3, 53, 0
1, 33261, Note_off_c, 4, 41, 0
1, 33261, Note_off_c, 6, 53, 0
1, 33262, Note_off_c, 2, 64, 0
1, 33262, Note_off_c, 5, 79, 0
1, 33264, Note_on_c, 2, 62, 80
1, 33264, Note_on_c, 3, 58, 80
1, 33264, Note_on_c, 4, 46, 80
1, 33264, Note_on_c, 5, 81, 96
1, 33264, Note_on_c, 6, 58, 96
1, 33285, Note_off_c, 2, 62, 0
1, 33285, Note_off_c, 5, 81, 0
1, 33285, Note_off_c, 6, 58, 0
1, 33288, Note_on_c, 0, 74, 80
1, 33288, Note_on_c, 5, 70, 96
1, 33288, Note_on_c, 6, 53, 96
1, 33298, Note_off_c, 0, 74, 0
1, 33298, Note_off_c, 5, 70, 0
1, 33300, Note_on_c, 0, 73, 80
1, 33300, Note_on_c, 5, 69, 96
1, 33306, Note_off_c, 3, 58, 0
1, 33306, Note_off_c, 4, 46, 0
1, 33309, Note_off_c, 6, 53, 0
1, 33310, Note_off_c, 0, 73, 0
1, 33310, Note_off_c, 5, 69, 0
1, 33312, Note_on_c, 0, 74, 80
1, 33312, Note_on_c, 5, 70, 96
1, 33312, Note_on_c, 6, 46, 96
1, 33333, Note_off_c, 0, 74, 0
1, 33333, Note_off_c, 5, 70, 0
1, 33333, Note_off_c, 6, 46, 0
1, 33336, Note_on_c, 1, 70, 80
1, 33336, Note_on_c, 3, 58, 80
1, 33336, Note_on_c, 4, 46, 80
1, 33336, Note_on_c, 5, 74, 96
1, 33336, Note_on_c, 6, 58, 96
1, 33346, Note_off_c, 1, 70, 0
1, 33346, Note_off_c, 5, 74, 0
1, 33348, Note_on_c, 1, 69, 80
1, 33348, Note_on_c, 5, 73, 96
1, 33357, Note_off_c, 3, 58, 0
1, 33357, Note_off_c, 4, 46, 0
1, 33357, Note_off_c, 6, 58, 0
1, 33358, Note_off_c, 1, 69, 0
1, 33358, Note_off_c, 5, 73, 0
1, 33360, Note_on_c, 1, 70, 80
1, 33360, Note_on_c, 3, 55, 80
1, 33360, Note_on_c, 4, 43, 80
1, 33360, Note_on_c, 5, 74, 96
1, 33360, Note_on_c, 6, 55, 96
1, 33381, Note_off_c, 1, 70, 0
1, 33381, Note_off_c, 3, 55, 0
1, 33381, Note_off_c, 4, 43, 0
1, 33381, Note_off_c, 5, 74, 0
1, 33381, Note_off_c, 6, 55, 0
1, 33384, Note_on_c, 2, 64, 80
1, 33384, Note_on_c, 3, 52, 80
1, 33384, Note_on_c, 4, 40, 80
1, 33384, Note_on_c, 5, 79, 96
1, 33384, Note_on_c, 6, 52, 96
1, 33394, Note_off_c, 2, 64, 0
1, 33394, Note_off_c, 5, 79, 0
1, 33396, Note_on_c, 2, 62, 80
1, 33396, Note_on_c, 5, 77, 96
1, 33405, Note_off_c, 3, 52, 0
1, 33405, Note_off_c, 4, 40, 0
1, 33405, Note_off_c, 6, 52, 0
1, 33406, Note_off_c, 2, 62, 0
1, 33406, Note_off_c, 5, 77, 0
1, 33408, Note_on_c, 0, 57, 80
1, 33408, Note_on_c, 2, 61, 80
1, 33408, Note_on_c, 3, 57, 80
1, 33408, Note_on_c, 4, 45, 80
1, 33408, Note_on_c, 5, 79, 96
1, 33408, Note_on_c, 6, 61, 96
1, 33408, Note_on_c, 6, 57, 96
1, 33429, Note_off_c, 0, 57, 0
1, 33429, Note_off_c, 2, 61, 0
1, 33429, Note_off_c, 5, 79, 0
1, 33432, Note_on_c, 0, 61, 80
1, 33432, Note_on_c, 5, 69, 96
1, 33444, Note_off_c, 0, 61, 0
1, 33444, Note_on_c, 0, 59, 80
1, 33450, Note_off_c, 3, 57, 0
1, 33450, Note_off_c, 4, 45, 0
1, 33450, Note_off_c, 6, 61, 0
1, 33450, Note_off_c, 6, 57, 0
1, 33453, Note_off_c, 5, 69, 0
1, 33456, Note_off_c, 0, 59, 0
1, 33456, Note_on_c, 0, 61, 80
1, 33456, Note_on_c, 1, 57, 80
1, 33456, Note_on_c, 5, 69, 96
1, 33477, Note_off_c, 0, 61, 0
1, 33477, Note_off_c, 1, 57, 0
1, 33477, Note_off_c, 5, 69, 0
1, 33480, Note_on_c, 0, 64, 80
1, 33480, Note_on_c, 1, 61, 80
1, 33480, Note_on_c, 5, 79, 96
1, 33492, Note_off_c, 0, 64, 0
1, 33492, Note_on_c, 0, 62, 80
1, 33492, Note_off_c, 1, 61, 0
1, 33492, Note_on_c, 1, 59, 80
1, 33501, Note_off_c, 5, 79, 0
1, 33504, Note_off_c, 0, 62, 0
1, 33504, Note_on_c, 0, 64, 80
1, 33504, Note_off_c, 1, 59, 0
1, 33504, Note_on_c, 1, 61, 80
1, 33504, Note_on_c, 5, 79, 96
1, 33514, Note_off_c, 5, 79, 0
1, 33516, Note_on_c, 5, 81, 96
1, 33525, Note_off_c, 0, 64, 0
1, 33525, Note_off_c, 1, 61, 0
1, 33526, Note_off_c, 5, 81, 0
1, 33528, Note_on_c, 5, 82, 96
1, 33538, Note_off_c, 5, 82, 0
1, 33540, Note_on_c, 5, 79, 96
1, 33550, Note_off_c, 5, 79, 0
1, 33552, Note_on_c, 0, 69, 80
1, 33552, Note_on_c, 2, 64, 80
1, 33552, Note_on_c, 3, 55, 80
1, 33552, Note_on_c, 4, 43, 80
1, 33552, Note_on_c, 5, 85, 96
1, 33552, Note_on_c, 6, 64, 96
1, 33552, Note_on_c, 6, 57, 96
1, 33552, Note_on_c, 6, 55, 96
1, 33573, Note_off_c, 0, 69, 0
1, 33573, Note_off_c, 5, 85, 0
1, 33576, Note_on_c, 0, 73, 80
1, 33576, Note_on_c, 5, 69, 96
1, 33588, Note_off_c, 0, 73, 0
1, 33588, Note_on_c, 0, 71, 80
1, 33594, Note_off_c, 2, 64, 0
1, 33594, Note_off_c, 3, 55, 0
1, 33594, Note_off_c, 4, 43, 0
1, 33594, Note_off_c, 6, 64, 0
1, 33594, Note_off_c, 6, 57, 0
1, 33594, Note_off_c, 6, 55, 0
1, 33597, Note_off_c, 5, 69, 0
1, 33600, Note_off_c, 0, 71, 0
1, 33600, Note_on_c, 0, 73, 80
1, 33600, Note_on_c, 1, 69, 80
1, 33600, Note_on_c, 5, 69, 96
1, 33621, Note_off_c, 0, 73, 0
1, 33621, Note_off_c, 1, 69, 0
1, 33621, Note_off_c, 5, 69, 0
1, 33624, Note_on_c, 0, 76, 80
1, 33624, Note_on_c, 1, 73, 80
1, 33624, Note_on_c, 5, 73, 96
1, 33636, Note_off_c, 0, 76, 0
1, 33636, Note_on_c, 0, 74, 80
1, 33636, Note_off_c, 1, 73, 0
1, 33636, Note_on_c, 1, 71, 80
1, 33645, Note_off_c, 5, 73, 0
1, 33648, Note_off_c, 0, 74, 0
1, 33648, Note_on_c, 0, 76, 80
1, 33648, Note_off_c, 1, 71, 0
1, 33648, Note_on_c, 1, 73, 80
1, 33648, Note_on_c, 5, 73, 96
1, 33658, Note_off_c, 5, 73, 0
1, 33660, Note_on_c, 5, 74, 96
1, 33669, Note_off_c, 0, 76, 0
1, 33669, Note_off_c, 1, 73, 0
1, 33670, Note_off_c, 5, 74, 0
1, 33672, Note_on_c, 5, 76, 96
1, 33682, Note_off_c, 5, 76, 0
1, 33684, Note_on_c, 5, 73, 96
1, 33694, Note_off_c, 5, 73, 0
1, 33696, Note_on_c, 0, 76, 80
1, 33696, Note_on_c, 1, 67, 80
1, 33696, Note_on_c, 2, 69, 80
1, 33696, Note_on_c, 5, 67, 96
1, 33696, Note_on_c, 6, 49, 96
1, 33706, Note_off_c, 5, 67, 0
1, 33706, Note_off_c, 6, 49, 0
1, 33708, Note_on_c, 5, 73, 96
1, 33708, Note_on_c, 6, 52, 96
1, 33717, Note_off_c, 2, 69, 0
1, 33718, Note_off_c, 6, 52, 0
1, 33720, Note_on_c, 2, 69, 80
1, 33720, Note_on_c, 3, 55, 80
1, 33720, Note_on_c, 4, 43, 80
1, 33720, Note_off_c, 5, 73, 0
1, 33720, Note_on_c, 5, 74, 96
1, 33720, Note_on_c, 6, 53, 96
1, 33730, Note_off_c, 6, 53, 0
1, 33732, Note_off_c, 5, 74, 0
1, 33732, Note_on_c, 5, 76, 96
1, 33732, Note_on_c, 6, 55, 96
1, 33738, Note_off_c, 0, 76, 0
1, 33738, Note_off_c, 1, 67, 0
1, 33741, Note_off_c, 2, 69, 0
1, 33741, Note_off_c, 3, 55, 0
1, 33741, Note_off_c, 4, 43, 0
1, 33742, Note_off_c, 5, 76, 0
1, 33742, Note_off_c, 6, 55, 0
1, 33744, Note_on_c, 2, 69, 80
1, 33744, Note_on_c, 3, 52, 80
1, 33744, Note_on_c, 4, 40, 80
1, 33744, Note_on_c, 5, 67, 96
1, 33744, Note_on_c, 6, 45, 96
1, 33754, Note_off_c, 5, 67, 0
1, 33754, Note_off_c, 6, 45, 0
1, 33756, Note_on_c, 5, 73, 96
1, 33756, Note_on_c, 6, 52, 96
1, 33765, Note_off_c, 2, 69, 0
1, 33765, Note_off_c, 3, 52, 0
1, 33765, Note_off_c, 4, 40, 0
1, 33766, Note_off_c, 6, 52, 0
1, 33768, Note_on_c, 2, 69, 80
1, 33768, Note_on_c, 3, 49, 80
1, 33768, Note_on_c, 4, 37, 80
1, 33768, Note_off_c, 5, 73, 0
1, 33768, Note_on_c, 5, 74, 96
1, 33768, Note_on_c, 6, 53, 96
1, 33778, Note_off_c, 6, 53, 0
1, 33780, Note_off_c, 5, 74, 0
1, 33780, Note_on_c, 5, 76, 96
1, 33780, Note_on_c, 6, 55, 96
1, 33789, Note_off_c, 2, 69, 0
1, 33789, Note_off_c, 3, 49, 0
1, 33789, Note_off_c, 4, 37, 0
1, 33790, Note_off_c, 5, 76, 0
1, 33790, Note_off_c, 6, 55, 0
1, 33792, Note_on_c, 2, 69, 80
1, 33792, Note_on_c, 3, 45, 80
1, 33792, Note_on_c, 4, 33, 80
1, 33792, Note_on_c, 5, 67, 96
1, 33792, Note_on_c, 6, 49, 96
1, 33802, Note_off_c, 5, 67, 0
1, 33802, Note_off_c, 6, 49, 0
1, 33804, Note_on_c, 5, 73, 96
1, 33804, Note_on_c, 6, 52, 96
1, 33813, Note_off_c, 2, 69, 0
1, 33813, Note_off_c, 3, 45, 0
1, 33813, Note_off_c, 4, 33, 0
1, 33814, Note_off_c, 6, 52, 0
1, 33816, Note_on_c, 2, 69, 80
1, 33816, Note_on_c, 3, 49, 80
1, 33816, Note_on_c, 4, 37, 80
1, 33816, Note_off_c, 5, 73, 0
1, 33816, Note_on_c, 5, 74, 96
1, 33816, Note_on_c, 6, 53, 96
1, 33826, Note_off_c, 6, 53, 0
1, 33828, Note_off_c, 5, 74, 0
1, 33828, Note_on_c, 5, 76, 96
1, 33828, Note_on_c, 6, 55, 96
1, 33837, Note_off_c, 2, 69, 0
1, 33837, Note_off_c, 3, 49, 0
1, 33837, Note_off_c, 4, 37, 0
1, 33838, Note_off_c, 5, 76, 0
1, 33838, Note_off_c, 6, 55, 0
1, 33840, Note_on_c, 2, 69, 80
1, 33840, Note_on_c, 3, 50, 80
1, 33840, Note_on_c, 4, 38, 80
1, 33840, Note_on_c, 5, 66, 96
1, 33840, Note_on_c, 6, 50, 96
1, 33850, Note_off_c, 5, 66, 0
1, 33852, Note_on_c, 5, 72, 96
1, 33861, Note_off_c, 2, 69, 0
1, 33861, Note_off_c, 6, 50, 0
1, 33864, Note_on_c, 0, 72, 80
1, 33864, Note_on_c, 1, 72, 80
1, 33864, Note_on_c, 2, 69, 80
1, 33864, Note_off_c, 5, 72, 0
1, 33864, Note_on_c, 5, 74, 96
1, 33876, Note_off_c, 5, 74, 0
1, 33876, Note_on_c, 5, 75, 96
1, 33882, Note_off_c, 3, 50, 0
1, 33882, Note_off_c, 4, 38, 0
1, 33885, Note_off_c, 0, 72, 0
1, 33885, Note_off_c, 1, 72, 0
1, 33885, Note_off_c, 2, 69, 0
1, 33886, Note_off_c, 5, 75, 0
1, 33888, Note_on_c, 0, 69, 80
1, 33888, Note_on_c, 1, 69, 80
1, 33888, Note_on_c, 2, 69, 80
1, 33888, Note_on_c, 5, 66, 96
1, 33888, Note_on_c, 6, 62, 96
1, 33898, Note_off_c, 5, 66, 0
1, 33900, Note_on_c, 5, 72, 96
1, 33909, Note_off_c, 0, 69, 0
1, 33909, Note_off_c, 1, 69, 0
1, 33909, Note_off_c, 2, 69, 0
1, 33909, Note_off_c, 6, 62, 0
1, 33912, Note_on_c, 0, 66, 80
1, 33912, Note_on_c, 1, 66, 80
1, 33912, Note_on_c, 2, 69, 80
1, 33912, Note_off_c, 5, 72, 0
1, 33912, Note_on_c, 5, 74, 96
1, 33924, Note_off_c, 5, 74, 0
1, 33924, Note_on_c, 5, 75, 96
1, 33933, Note_off_c, 0, 66, 0
1, 33933, Note_off_c, 1, 66, 0
1, 33933, Note_off_c, 2, 69, 0
1, 33934, Note_off_c, 5, 75, 0
1, 33936, Note_on_c, 0, 62, 80
1, 33936, Note_on_c, 1, 62, 80
1, 33936, Note_on_c, 2, 69, 80
1, 33936, Note_on_c, 5, 66, 96
1, 33936, Note_on_c, 6, 48, 96
1, 33946, Note_off_c, 5, 66, 0
1, 33948, Note_on_c, 5, 72, 96
1, 33957, Note_off_c, 0, 62, 0
1, 33957, Note_off_c, 1, 62, 0
1, 33957, Note_off_c, 2, 69, 0
1, 33957, Note_off_c, 6, 48, 0
1, 33960, Note_on_c, 0, 66, 80
1, 33960, Note_on_c, 1, 66, 80
1, 33960, Note_on_c, 2, 69, 80
1, 33960, Note_off_c, 5, 72, 0
1, 33960, Note_on_c, 5, 74, 96
1, 33972, Note_off_c, 5, 74, 0
1, 33972, Note_on_c, 5, 75, 96
1, 33981, Note_off_c, 0, 66, 0
1, 33981, Note_off_c, 1, 66, 0
1, 33981, Note_off_c, 2, 69, 0
1, 33982, Note_off_c, 5, 75, 0
1, 33984, Note_on_c, 0, 74, 80
1, 33984, Note_on_c, 1, 65, 80
1, 33984, Note_on_c, 2, 67, 80
1, 33984, Note_on_c, 5, 65, 96
1, 33984, Note_on_c, 6, 47, 96
1, 33994, Note_off_c, 5, 65, 0
1, 33994, Note_off_c, 6, 47, 0
1, 33996, Note_on_c, 5, 71, 96
1, 33996, Note_on_c, 6, 50, 96
1, 34005, Note_off_c, 2, 67, 0
1, 34006, Note_off_c, 6, 50, 0
1, 34008, Note_on_c, 2, 67, 80
1, 34008, Note_on_c, 3, 53, 80
1, 34008, Note_on_c, 4, 41, 80
1, 34008, Note_off_c, 5, 71, 0
1, 34008, Note_on_c, 5, 72, 96
1, 34008, Note_on_c, 6, 52, 96
1, 34018, Note_off_c, 6, 52, 0
1, 34020, Note_off_c, 5, 72, 0
1, 34020, Note_on_c, 5, 74, 96
1, 34020, Note_on_c, 6, 53, 96
1, 34026, Note_off_c, 0, 74, 0
1, 34026, Note_off_c, 1, 65, 0
1, 34029, Note_off_c, 2, 67, 0
1, 34029, Note_off_c, 3, 53, 0
1, 34029, Note_off_c, 4, 41, 0
1, 34030, Note_off_c, 5, 74, 0
1, 34030, Note_off_c, 6, 53, 0
1, 34032, Note_on_c, 2, 67, 80
1, 34032, Note_on_c, 3, 50, 80
1, 34032, Note_on_c, 4, 38, 80
1, 34032, Note_on_c, 5, 65, 96
1, 34032, Note_on_c, 6, 43, 96
1, 34042, Note_off_c, 5, 65, 0
1, 34042, Note_off_c, 6, 43, 0
1, 34044, Note_on_c, 5, 71, 96
1, 34044, Note_on_c, 6, 50, 96
1, 34053, Note_off_c, 2, 67, 0
1, 34053, Note_off_c, 3, 50, 0
1, 34053, Note_off_c, 4, 38, 0
1, 34054, Note_off_c, 6, 50, 0
1, 34056, Note_on_c, 2, 67, 80
1, 34056, Note_on_c, 3, 47, 80
1, 34056, Note_on_c, 4, 35, 80
1, 34056, Note_off_c, 5, 71, 0
1, 34056, Note_on_c, 5, 72, 96
1, 34056, Note_on_c, 6, 52, 96
1, 34066, Note_off_c, 6, 52, 0
1, 34068, Note_off_c, 5, 72, 0
1, 34068, Note_on_c, 5, 74, 96
1, 34068, Note_on_c, 6, 53, 96
1, 34077, Note_off_c, 2, 67, 0
1, 34077, Note_off_c, 3, 47, 0
1, 34077, Note_off_c, 4, 35, 0
1, 34078, Note_off_c, 5, 74, 0
1, 34078, Note_off_c, 6, 53, 0
1, 34080, Note_on_c, 2, 67, 80
1, 34080, Note_on_c, 3, 43, 80
1, 34080, Note_on_c, 4, 31, 80
1, 34080, Note_on_c, 5, 65, 96
1, 34080, Note_on_c, 6, 47, 96
1, 34090, Note_off_c, 5, 65, 0
1, 34090, Note_off_c, 6, 47, 0
1, 34092, Note_on_c, 5, 71, 96
1, 34092, Note_on_c, 6, 50, 96
1, 34101, Note_off_c, 2, 67, 0
1, 34101, Note_off_c, 3, 43, 0
1, 34101, Note_off_c, 4, 31, 0
1, 34102, Note_off_c, 6, 50, 0
1, 34104, Note_on_c, 2, 67, 80
1, 34104, Note_on_c, 3, 47, 80
1, 34104, Note_on_c, 4, 35, 80
1, 34104, Note_off_c, 5, 71, 0
1, 34104, Note_on_c, 5, 72, 96
1, 34104, Note_on_c, 6, 52, 96
1, 34114, Note_off_c, 6, 52, 0
1, 34116, Note_off_c, 5, 72, 0
1, 34116, Note_on_c, 5, 74, 96
1, 34116, Note_on_c, 6, 53, 96
1, 34125, Note_off_c, 2, 67, 0
1, 34125, Note_off_c, 3, 47, 0
1, 34125, Note_off_c, 4, 35, 0
1, 34126, Note_off_c, 5, 74, 0
1, 34126, Note_off_c, 6, 53, 0
1, 34128, Note_on_c, 2, 67, 80
1, 34128, Note_on_c, 3, 48, 80
1, 34128, Note_on_c, 4, 36, 80
1, 34128, Note_on_c, 5, 64, 96
1, 34128, Note_on_c, 6, 48, 96
1, 34138, Note_off_c, 5, 64, 0
1, 34140, Note_on_c, 5, 70, 96
1, 34149, Note_off_c, 2, 67, 0
1, 34149, Note_off_c, 6, 48, 0
1, 34152, Note_on_c, 0, 70, 80
1, 34152, Note_on_c, 1, 70, 80
1, 34152, Note_on_c, 2, 67, 80
1, 34152, Note_off_c, 5, 70, 0
1, 34152, Note_on_c, 5, 72, 96
1, 34164, Note_off_c, 5, 72, 0
1, 34164, Note_on_c, 5, 73, 96
1, 34170, Note_off_c, 3, 48, 0
1, 34170, Note_off_c, 4, 36, 0
1, 34173, Note_off_c, 0, 70, 0
1, 34173, Note_off_c, 1, 70, 0
1, 34173, Note_off_c, 2, 67, 0
1, 34174, Note_off_c, 5, 73, 0
1, 34176, Note_on_c, 0, 67, 80
1, 34176, Note_on_c, 1, 67, 80
1, 34176, Note_on_c, 2, 67, 80
1, 34176, Note_on_c, 5, 64, 96
1, 34176, Note_on_c, 6, 60, 96
1, 34186, Note_off_c, 5, 64, 0
1, 34188, Note_on_c, 5, 70, 96
1, 34197, Note_off_c, 0, 67, 0
1, 34197, Note_off_c, 1, 67, 0
1, 34197, Note_off_c, 2, 67, 0
1, 34197, Note_off_c, 6, 60, 0
1, 34200, Note_on_c, 0, 64, 80
1, 34200, Note_on_c, 1, 64, 80
1, 34200, Note_on_c, 2, 67, 80
1, 34200, Note_off_c, 5, 70, 0
1, 34200, Note_on_c, 5, 72, 96
1, 34212, Note_off_c, 5, 72, 0
1, 34212, Note_on_c, 5, 73, 96
1, 34221, Note_off_c, 0, 64, 0
1, 34221, Note_off_c, 1, 64, 0
1, 34221, Note_off_c, 2, 67, 0
1, 34222, Note_off_c, 5, 73, 0
1, 34224, Note_on_c, 0, 60, 80
1, 34224, Note_on_c, 1, 60, 80
1, 34224, Note_on_c, 2, 67, 80
1, 34224, Note_on_c, 5, 64, 96
1, 34224, Note_on_c, 6, 46, 96
1, 34234, Note_off_c, 5, 64, 0
1, 34236, Note_on_c, 5, 70, 96
1, 34245, Note_off_c, 0, 60, 0
1, 34245, Note_off_c, 1, 60, 0
1, 34245, Note_off_c, 2, 67, 0
1, 34245, Note_off_c, 6, 46, 0
1, 34248, Note_on_c, 0, 64, 80
1, 34248, Note_on_c, 1, 64, 80
1, 34248, Note_on_c, 2, 67, 80
1, 34248, Note_off_c, 5, 70, 0
1, 34248, Note_on_c, 5, 72, 96
1, 34260, Note_off_c, 5, 72, 0
1, 34260, Note_on_c, 5, 73, 96
1, 34269, Note_off_c, 0, 64, 0
1, 34269, Note_off_c, 1, 64, 0
1, 34269, Note_off_c, 2, 67, 0
1, 34270, Note_off_c, 5, 73, 0
1, 34272, Note_on_c, 0, 72, 80
1, 34272, Note_on_c, 1, 63, 80
1, 34272, Note_on_c, 2, 65, 80
1, 34272, Note_on_c, 5, 63, 96
1, 34272, Note_on_c, 6, 45, 96
1, 34282, Note_off_c, 5, 63, 0
1, 34282, Note_off_c, 6, 45, 0
1, 34284, Note_on_c, 5, 69, 96
1, 34284, Note_on_c, 6, 48, 96
1, 34293, Note_off_c, 2, 65, 0
1, 34294, Note_off_c, 6, 48, 0
1, 34296, Note_on_c, 2, 65, 80
1, 34296, Note_on_c, 3, 51, 80
1, 34296, Note_on_c, 4, 39, 80
1, 34296, Note_off_c, 5, 69, 0
1, 34296, Note_on_c, 5, 70, 96
1, 34296, Note_on_c, 6, 50, 96
1, 34306, Note_off_c, 6, 50, 0
1, 34308, Note_off_c, 5, 70, 0
1, 34308, Note_on_c, 5, 72, 96
1, 34308, Note_on_c, 6, 51, 96
1, 34314, Note_off_c, 0, 72, 0
1, 34314, Note_off_c, 1, 63, 0
1, 34317, Note_off_c, 2, 65, 0
1, 34317, Note_off_c, 3, 51, 0
1, 34317, Note_off_c, 4, 39, 0
1, 34318, Note_off_c, 5, 72, 0
1, 34318, Note_off_c, 6, 51, 0
1, 34320, Note_on_c, 2, 65, 80
1, 34320, Note_on_c, 3, 48, 80
1, 34320, Note_on_c, 4, 36, 80
1, 34320, Note_on_c, 5, 63, 96
1, 34320, Note_on_c, 6, 41, 96
1, 34330, Note_off_c, 5, 63, 0
1, 34330, Note_off_c, 6, 41, 0
1, 34332, Note_on_c, 5, 69, 96
1, 34332, Note_on_c, 6, 48, 96
1, 34341, Note_off_c, 2, 65, 0
1, 34341, Note_off_c, 3, 48, 0
1, 34341, Note_off_c, 4, 36, 0
1, 34342, Note_off_c, 6, 48, 0
1, 34344, Note_on_c, 2, 65, 80
1, 34344, Note_on_c, 3, 45, 80
1, 34344, Note_on_c, 4, 33, 80
1, 34344, Note_off_c, 5, 69, 0
1, 34344, Note_on_c, 5, 70, 96
1, 34344, Note_on_c, 6, 50, 96
1, 34354, Note_off_c, 6, 50, 0
1, 34356, Note_off_c, 5, 70, 0
1, 34356, Note_on_c, 5, 72, 96
1, 34356, Note_on_c, 6, 51, 96
1, 34365, Note_off_c, 2, 65, 0
1, 34365, Note_off_c, 3, 45, 0
1, 34365, Note_off_c, 4, 33, 0
1, 34366, Note_off_c, 5, 72, 0
1, 34366, Note_off_c, 6, 51, 0
1, 34368, Note_on_c, 2, 65, 80
1, 34368, Note_on_c, 3, 41, 80
1, 34368, Note_on_c, 4, 29, 80
1, 34368, Note_on_c, 5, 63, 96
1, 34368, Note_on_c, 6, 45, 96
1, 34378, Note_off_c, 5, 63, 0
1, 34378, Note_off_c, 6, 45, 0
1, 34380, Note_on_c, 5, 69, 96
1, 34380, Note_on_c, 6, 48, 96
1, 34389, Note_off_c, 2, 65, 0
1, 34389, Note_off_c, 3, 41, 0
1, 34389, Note_off_c, 4, 29, 0
1, 34390, Note_off_c, 6, 48, 0
1, 34392, Note_on_c, 2, 65, 80
1, 34392, Note_on_c, 3, 45, 80
1, 34392, Note_on_c, 4, 33, 80
1, 34392, Note_off_c, 5, 69, 0
1, 34392, Note_on_c, 5, 70, 96
1, 34392, Note_on_c, 6, 50, 96
1, 34402, Note_off_c, 6, 50, 0
1, 34404, Note_off_c, 5, 70, 0
1, 34404, Note_on_c, 5, 72, 96
1, 34404, Note_on_c, 6, 51, 96
1, 34413, Note_off_c, 2, 65, 0
1, 34413, Note_off_c, 3, 45, 0
1, 34413, Note_off_c, 4, 33, 0
1, 34414, Note_off_c, 5, 72, 0
1, 34414, Note_off_c, 6, 51, 0
1, 34416, Note_on_c, 2, 65, 80
1, 34416, Note_on_c, 3, 46, 80
1, 34416, Note_on_c, 4, 34, 80
1, 34416, Note_on_c, 5, 62, 96
1, 34416, Note_on_c, 6, 46, 96
1, 34426, Note_off_c, 5, 62, 0
1, 34428, Note_on_c, 5, 70, 96
1, 34437, Note_off_c, 2, 65, 0
1, 34437, Note_off_c, 3, 46, 0
1, 34437, Note_off_c, 4, 34, 0
1, 34437, Note_off_c, 6, 46, 0
1, 34440, Note_on_c, 0, 74, 80
1, 34440, Note_on_c, 1, 70, 80
1, 34440, Note_on_c, 2, 62, 80
1, 34440, Note_on_c, 3, 50, 80
1, 34440, Note_on_c, 4, 38, 80
1, 34440, Note_off_c, 5, 70, 0
1, 34440, Note_on_c, 5, 66, 96
1, 34440, Note_on_c, 6, 50, 96
1, 34452, Note_off_c, 5, 66, 0
1, 34452, Note_on_c, 5, 67, 96
1, 34461, Note_off_c, 1, 70, 0
1, 34461, Note_off_c, 2, 62, 0
1, 34461, Note_off_c, 3, 50, 0
1, 34461, Note_off_c, 4, 38, 0
1, 34461, Note_off_c, 6, 50, 0
1, 34462, Note_off_c, 5, 67, 0
1, 34464, Note_off_c, 0, 74, 0
1, 34464, Note_on_c, 0, 75, 80
1, 34464, Note_on_c, 1, 70, 80
1, 34464, Note_on_c, 2, 58, 80
1, 34464, Note_on_c, 3, 43, 80
1, 34464, Note_on_c, 4, 31, 80
1, 34464, Note_on_c, 5, 63, 96
1, 34464, Note_on_c, 6, 55, 96
1, 34474, Note_off_c, 5, 63, 0
1, 34476, Note_on_c, 5, 70, 96
1, 34485, Note_off_c, 1, 70, 0
1, 34485, Note_off_c, 2, 58, 0
1, 34485, Note_off_c, 3, 43, 0
1, 34485, Note_off_c, 4, 31, 0
1, 34485, Note_off_c, 6, 55, 0
1, 34488, Note_off_c, 0, 75, 0
1, 34488, Note_on_c, 0, 74, 80
1, 34488, Note_on_c, 1, 70, 80
1, 34488, Note_on_c, 2, 62, 80
1, 34488, Note_on_c, 3, 43, 80
1, 34488, Note_on_c, 4, 31, 80
1, 34488, Note_off_c, 5, 70, 0
1, 34488, Note_on_c, 5, 66, 96
1, 34488, Note_on_c, 6, 43, 96
1, 34500, Note_off_c, 5, 66, 0
1, 34500, Note_on_c, 5, 67, 96
1, 34509, Note_off_c, 1, 70, 0
1, 34509, Note_off_c, 2, 62, 0
1, 34509, Note_off_c, 3, 43, 0
1, 34509, Note_off_c, 4, 31, 0
1, 34509, Note_off_c, 6, 43, 0
1, 34510, Note_off_c, 5, 67, 0
1, 34512, Note_off_c, 0, 74, 0
1, 34512, Note_on_c, 0, 74, 80
1, 34512, Note_on_c, 1, 70, 80
1, 34512, Note_on_c, 2, 67, 80
1, 34512, Note_on_c, 3, 43, 80
1, 34512, Note_on_c, 4, 31, 80
1, 34512, Note_on_c, 5, 62, 96
1, 34512, Note_on_c, 6, 43, 96
1, 34522, Note_off_c, 5, 62, 0
1, 34524, Note_on_c, 5, 70, 96
1, 34533, Note_off_c, 1, 70, 0
1, 34533, Note_off_c, 2, 67, 0
1, 34533, Note_off_c, 3, 43, 0
1, 34533, Note_off_c, 4, 31, 0
1, 34533, Note_off_c, 6, 43, 0
1, 34536, Note_off_c, 0, 74, 0
1, 34536, Note_on_c, 0, 73, 80
1, 34536, Note_on_c, 1, 70, 80
1, 34536, Note_on_c, 2, 70, 80
1, 34536, Note_on_c, 3, 43, 80
1, 34536, Note_on_c, 4, 31, 80
1, 34536, Note_off_c, 5, 70, 0
1, 34536, Note_on_c, 5, 66, 96
1, 34536, Note_on_c, 6, 43, 96
1, 34548, Note_off_c, 5, 66, 0
1, 34548, Note_on_c, 5, 67, 96
1, 34557, Note_off_c, 0, 73, 0
1, 34557, Note_off_c, 1, 70, 0
1, 34557, Note_off_c, 2, 70, 0
1, 34557, Note_off_c, 3, 43, 0
1, 34557, Note_off_c, 4, 31, 0
1, 34557, Note_off_c, 6, 43, 0
1, 34558, Note_off_c, 5, 67, 0
1, 34560, Note_on_c, 0, 73, 80
1, 34560, Note_on_c, 1, 69, 80
1, 34560, Note_on_c, 2, 64, 80
1, 34560, Note_on_c, 3, 43, 80
1, 34560, Note_on_c, 4, 31, 80
1, 34560, Note_on_c, 5, 61, 96
1, 34560, Note_on_c, 6, 52, 96
1, 34560, Note_on_c, 6, 45, 96
1, 34560, Note_on_c, 6, 43, 96
1, 34570, Note_off_c, 5, 61, 0
1, 34572, Note_on_c, 5, 59, 96
1, 34582, Note_off_c, 5, 59, 0
1, 34584, Note_on_c, 5, 57, 96
1, 34594, Note_off_c, 5, 57, 0
1, 34596, Note_on_c, 5, 59, 96
1, 34602, Note_off_c, 0, 73, 0
1, 34602, Note_off_c, 1, 69, 0
1, 34602, Note_off_c, 2, 64, 0
1, 34602, Note_off_c, 3, 43, 0
1, 34602, Note_off_c, 4, 31, 0
1, 34602, Note_off_c, 6, 52, 0
1, 34602, Note_off_c, 6, 45, 0
1, 34602, Note_off_c, 6, 43, 0
1, 34606, Note_off_c, 5, 59, 0
1, 34608, Note_on_c, 5, 61, 96
1, 34618, Note_off_c, 5, 61, 0
1, 34620, Note_on_c, 5, 62, 96
1, 34630, Note_off_c, 5, 62, 0
1, 34632, Note_on_c, 5, 64, 96
1, 34642, Note_off_c, 5, 64, 0
1, 34644, Note_on_c, 5, 65, 96
1, 34654, Note_off_c, 5, 65, 0
1, 34656, Note_on_c, 5, 67, 96
1, 34666, Note_off_c, 5, 67, 0
1, 34668, Note_on_c, 5, 69, 96
1, 34678, Note_off_c, 5, 69, 0
1, 34680, Note_on_c, 5, 70, 96
1, 34690, Note_off_c, 5, 70, 0
1, 34692, Note_on_c, 5, 67, 96
1, 34702, Note_off_c, 5, 67, 0
1, 34704, Note_on_c, 5, 64, 96
1, 34714, Note_off_c, 5, 64, 0
1, 34716, Note_on_c, 5, 62, 96
1, 34726, Note_off_c, 5, 62, 0
1, 34728, Note_on_c, 5, 61, 96
1, 34728, Note_on_c, 6, 45, 96
1, 34738, Note_off_c, 5, 61, 0
1, 34738, Note_off_c, 6, 45, 0
1, 34740, Note_on_c, 5, 62, 96
1, 34740, Note_on_c, 6, 47, 96
1, 34750, Note_off_c, 5, 62, 0
1, 34750, Note_off_c, 6, 47, 0
1, 34752, Note_on_c, 5, 64, 96
1, 34752, Note_on_c, 6, 49, 96
1, 34762, Note_off_c, 5, 64, 0
1, 34762, Note_off_c, 6, 49, 0
1, 34764, Note_on_c, 5, 65, 96
1, 34764, Note_on_c, 6, 50, 96
1, 34774, Note_off_c, 5, 65, 0
1, 34774, Note_off_c, 6, 50, 0
1, 34776, Note_on_c, 5, 67, 96
1, 34776, Note_on_c, 6, 52, 96
1, 34786, Note_off_c, 5, 67, 0
1, 34786, Note_off_c, 6, 52, 0
1, 34788, Note_on_c, 5, 69, 96
1, 34788, Note_on_c, 6, 53, 96
1, 34798, Note_off_c, 5, 69, 0
1, 34798, Note_off_c, 6, 53, 0
1, 34800, Note_on_c, 5, 70, 96
1, 34800, Note_on_c, 6, 55, 96
1, 34810, Note_off_c, 5, 70, 0
1, 34812, Note_on_c, 5, 67, 96
1, 34822, Note_off_c, 5, 67, 0
1, 34824, Note_on_c, 5, 65, 96
1, 34834, Note_off_c, 5, 65, 0
1, 34836, Note_on_c, 5, 64, 96
1, 34846, Note_off_c, 5, 64, 0
1, 34848, Note_on_c, 5, 73, 96
1, 34858, Note_off_c, 5, 73, 0
1, 34860, Note_on_c, 5, 71, 96
1, 34863, Note_off_c, 6, 55, 0
1, 34870, Note_off_c, 5, 71, 0
1, 34872, Note_on_c, 5, 69, 96
1, 34872, Note_on_c, 6, 67, 96
1, 34882, Note_off_c, 5, 69, 0
1, 34882, Note_off_c, 6, 67, 0
1, 34884, Note_on_c, 5, 71, 96
1, 34884, Note_on_c, 6, 65, 96
1, 34894, Note_off_c, 5, 71, 0
1, 34894, Note_off_c, 6, 65, 0
1, 34896, Note_on_c, 5, 73, 96
1, 34896, Note_on_c, 6, 64, 96
1, 34906, Note_off_c, 5, 73, 0
1, 34906, Note_off_c, 6, 64, 0
1, 34908, Note_on_c, 5, 74, 96
1, 34908, Note_on_c, 6, 62, 96
1, 34918, Note_off_c, 5, 74, 0
1, 34918, Note_off_c, 6, 62, 0
1, 34920, Note_on_c, 5, 76, 96
1, 34920, Note_on_c, 6, 61, 96
1, 34930, Note_off_c, 5, 76, 0
1, 34930, Note_off_c, 6, 61, 0
1, 34932, Note_on_c, 5, 77, 96
1, 34932, Note_on_c, 6, 59, 96
1, 34942, Note_off_c, 5, 77, 0
1, 34942, Note_off_c, 6, 59, 0
1, 34944, Note_on_c, 5, 79, 96
1, 34944, Note_on_c, 6, 57, 96
1, 34954, Note_off_c, 5, 79, 0
1, 34954, Note_off_c, 6, 57, 0
1, 34956, Note_on_c, 5, 77, 96
1, 34956, Note_on_c, 6, 58, 96
1, 34966, Note_off_c, 5, 77, 0
1, 34966, Note_off_c, 6, 58, 0
1, 34968, Note_on_c, 5, 79, 96
1, 34968, Note_on_c, 6, 57, 96
1, 34978, Note_off_c, 5, 79, 0
1, 34978, Note_off_c, 6, 57, 0
1, 34980, Note_on_c, 5, 76, 96
1, 34980, Note_on_c, 6, 55, 96
1, 34990, Note_off_c, 5, 76, 0
1, 34990, Note_off_c, 6, 55, 0
1, 34992, Note_on_c, 0, 74, 80
1, 34992, Note_on_c, 1, 69, 80
1, 34992, Note_on_c, 2, 65, 80
1, 34992, Note_on_c, 3, 41, 80
1, 34992, Note_on_c, 4, 29, 80
1, 34992, Note_on_c, 5, 81, 96
1, 34992, Note_on_c, 6, 53, 96
1, 35002, Note_off_c, 5, 81, 0
1, 35004, Note_on_c, 5, 77, 96
1, 35013, Note_off_c, 6, 53, 0
1, 35014, Note_off_c, 5, 77, 0
1, 35016, Note_on_c, 5, 74, 96
1, 35016, Note_on_c, 6, 57, 96
1, 35026, Note_off_c, 5, 74, 0
1, 35028, Note_on_c, 5, 69, 96
1, 35034, Note_off_c, 0, 74, 0
1, 35034, Note_off_c, 1, 69, 0
1, 35034, Note_off_c, 2, 65, 0
1, 35034, Note_off_c, 3, 41, 0
1, 35034, Note_off_c, 4, 29, 0
1, 35037, Note_off_c, 6, 57, 0
1, 35038, Note_off_c, 5, 69, 0
1, 35040, Note_on_c, 5, 81, 96
1, 35040, Note_on_c, 6, 62, 96
1, 35050, Note_off_c, 5, 81, 0
1, 35052, Note_on_c, 5, 76, 96
1, 35061, Note_off_c, 6, 62, 0
1, 35062, Note_off_c, 5, 76, 0
1, 35064, Note_on_c, 5, 77, 96
1, 35064, Note_on_c, 6, 57, 96
1, 35074, Note_off_c, 5, 77, 0
1, 35076, Note_on_c, 5, 74, 96
1, 35085, Note_off_c, 6, 57, 0
1, 35086, Note_off_c, 5, 74, 0
1, 35088, Note_on_c, 5, 69, 96
1, 35088, Note_on_c, 6, 53, 96
1, 35098, Note_off_c, 5, 69, 0
1, 35100, Note_on_c, 5, 74, 96
1, 35109, Note_off_c, 6, 53, 0
1, 35110, Note_off_c, 5, 74, 0
1, 35112, Note_on_c, 5, 77, 96
1, 35112, Note_on_c, 6, 50, 96
1, 35122, Note_off_c, 5, 77, 0
1, 35124, Note_on_c, 5, 81, 96
1, 35133, Note_off_c, 6, 50, 0
1, 35134, Note_off_c, 5, 81, 0
1, 35136, Note_on_c, 0, 76, 80
1, 35136, Note_on_c, 1, 69, 80
1, 35136, Note_on_c, 2, 64, 80
1, 35136, Note_on_c, 3, 49, 80
1, 35136, Note_on_c, 4, 37, 80
1, 35136, Note_on_c, 5, 79, 96
1, 35136, Note_on_c, 6, 49, 96
1, 35146, Note_off_c, 5, 79, 0
1, 35148, Note_on_c, 5, 76, 96
1, 35157, Note_off_c, 6, 49, 0
1, 35158, Note_off_c, 5, 76, 0
1, 35160, Note_on_c, 5, 73, 96
1, 35160, Note_on_c, 6, 52, 96
1, 35170, Note_off_c, 5, 73, 0
1, 35172, Note_on_c, 5, 69, 96
1, 35178, Note_off_c, 0, 76, 0
1, 35178, Note_off_c, 1, 69, 0
1, 35178, Note_off_c, 2, 64, 0
1, 35178, Note_off_c, 3, 49, 0
1, 35178, Note_off_c, 4, 37, 0
1, 35181, Note_off_c, 6, 52, 0
1, 35182, Note_off_c, 5, 69, 0
1, 35184, Note_on_c, 5, 79, 96
1, 35184, Note_on_c, 6, 57, 96
1, 35194, Note_off_c, 5, 79, 0
1, 35196, Note_on_c, 5, 74, 96
1, 35205, Note_off_c, 6, 57, 0
1, 35206, Note_off_c, 5, 74, 0
1, 35208, Note_on_c, 5, 76, 96
1, 35208, Note_on_c, 6, 52, 96
1, 35218, Note_off_c, 5, 76, 0
1, 35220, Note_on_c, 5, 73, 96
1, 35229, Note_off_c, 6, 52, 0
1, 35230, Note_off_c, 5, 73, 0
1, 35232, Note_on_c, 5, 69, 96
1, 35232, Note_on_c, 6, 49, 96
1, 35242, Note_off_c, 5, 69, 0
1, 35244, Note_on_c, 5, 73, 96
1, 35253, Note_off_c, 6, 49, 0
1, 35254, Note_off_c, 5, 73, 0
1, 35256, Note_on_c, 5, 76, 96
1, 35256, Note_on_c, 6, 45, 96
1, 35266, Note_off_c, 5, 76, 0
1, 35268, Note_on_c, 5, 79, 96
1, 35277, Note_off_c, 6, 45, 0
1, 35278, Note_off_c, 5, 79, 0
1, 35280, Note_on_c, 0, 77, 80
1, 35280, Note_on_c, 1, 69, 80
1, 35280, Note_on_c, 2, 62, 80
1, 35280, Note_on_c, 3, 50, 80
1, 35280, Note_on_c, 4, 38, 80
1, 35280, Note_on_c, 5, 77, 96
1, 35280, Note_on_c, 6, 50, 96
1, 35290, Note_off_c, 5, 77, 0
1, 35292, Note_on_c, 5, 74, 96
1, 35301, Note_off_c, 6, 50, 0
1, 35302, Note_off_c, 5, 74, 0
1, 35304, Note_on_c, 5, 70, 96
1, 35304, Note_on_c, 6, 53, 96
1, 35314, Note_off_c, 5, 70, 0
1, 35316, Note_on_c, 5, 69, 96
1, 35322, Note_off_c, 0, 77, 0
1, 35322, Note_off_c, 1, 69, 0
1, 35322, Note_off_c, 2, 62, 0
1, 35322, Note_off_c, 3, 50, 0
1, 35322, Note_off_c, 4, 38, 0
1, 35325, Note_off_c, 6, 53, 0
1, 35326, Note_off_c, 5, 69, 0
1, 35328, Note_on_c, 5, 77, 96
1, 35328, Note_on_c, 6, 57, 96
1, 35338, Note_off_c, 5, 77, 0
1, 35340, Note_on_c, 5, 73, 96
1, 35349, Note_off_c, 6, 57, 0
1, 35350, Note_off_c, 5, 73, 0
1, 35352, Note_on_c, 5, 74, 96
1, 35352, Note_on_c, 6, 53, 96
1, 35362, Note_off_c, 5, 74, 0
1, 35364, Note_on_c, 5, 70, 96
1, 35373, Note_off_c, 6, 53, 0
1, 35374, Note_off_c, 5, 70, 0
1, 35376, Note_on_c, 5, 69, 96
1, 35376, Note_on_c, 6, 50, 96
1, 35386, Note_off_c, 5, 69, 0
1, 35388, Note_on_c, 5, 73, 96
1, 35397, Note_off_c, 6, 50, 0
1, 35398, Note_off_c, 5, 73, 0
1, 35400, Note_on_c, 5, 74, 96
1, 35400, Note_on_c, 6, 45, 96
1, 35410, Note_off_c, 5, 74, 0
1, 35412, Note_on_c, 5, 77, 96
1, 35421, Note_off_c, 6, 45, 0
1, 35422, Note_off_c, 5, 77, 0
1, 35424, Note_on_c, 0, 76, 80
1, 35424, Note_on_c, 1, 69, 80
1, 35424, Note_on_c, 2, 61, 80
1, 35424, Note_on_c, 3, 45, 80
1, 35424, Note_on_c, 4, 33, 80
1, 35424, Note_on_c, 5, 76, 96
1, 35424, Note_on_c, 6, 49, 96
1, 35434, Note_off_c, 5, 76, 0
1, 35436, Note_on_c, 5, 73, 96
1, 35445, Note_off_c, 6, 49, 0
1, 35446, Note_off_c, 5, 73, 0
1, 35448, Note_on_c, 5, 70, 96
1, 35448, Note_on_c, 6, 52, 96
1, 35458, Note_off_c, 5, 70, 0
1, 35460, Note_on_c, 5, 69, 96
1, 35466, Note_off_c, 0, 76, 0
1, 35466, Note_off_c, 1, 69, 0
1, 35466, Note_off_c, 2, 61, 0
1, 35466, Note_off_c, 3, 45, 0
1, 35466, Note_off_c, 4, 33, 0
1, 35469, Note_off_c, 6, 52, 0
1, 35470, Note_off_c, 5, 69, 0
1, 35472, Note_on_c, 5, 76, 96
1, 35472, Note_on_c, 6, 57, 96
1, 35482, Note_off_c, 5, 76, 0
1, 35484, Note_on_c, 5, 73, 96
1, 35493, Note_off_c, 6, 57, 0
1, 35494, Note_off_c, 5, 73, 0
1, 35496, Note_on_c, 5, 74, 96
1, 35496, Note_on_c, 6, 52, 96
1, 35506, Note_off_c, 5, 74, 0
1, 35508, Note_on_c, 5, 70, 96
1, 35517, Note_off_c, 6, 52, 0
1, 35518, Note_off_c, 5, 70, 0
1, 35520, Note_on_c, 5, 69, 96
1, 35520, Note_on_c, 6, 49, 96
1, 35530, Note_off_c, 5, 69, 0
1, 35532, Note_on_c, 5, 70, 96
1, 35541, Note_off_c, 6, 49, 0
1, 35542, Note_off_c, 5, 70, 0
1, 35544, Note_on_c, 5, 73, 96
1, 35544, Note_on_c, 6, 45, 96
1, 35554, Note_off_c, 5, 73, 0
1, 35556, Note_on_c, 5, 76, 96
1, 35565, Note_off_c, 6, 45, 0
1, 35566, Note_off_c, 5, 76, 0
1, 35568, Note_on_c, 0, 74, 80
1, 35568, Note_on_c, 1, 69, 80
1, 35568, Note_on_c, 2, 62, 80
1, 35568, Note_on_c, 3, 45, 80
1, 35568, Note_on_c, 4, 33, 80
1, 35568, Note_on_c, 5, 77, 96
1, 35568, Note_on_c, 6, 50, 96
1, 35578, Note_off_c, 5, 77, 0
1, 35580, Note_on_c, 5, 74, 96
1, 35589, Note_off_c, 6, 50, 0
1, 35590, Note_off_c, 5, 74, 0
1, 35592, Note_on_c, 5, 70, 96
1, 35592, Note_on_c, 6, 53, 96
1, 35602, Note_off_c, 5, 70, 0
1, 35604, Note_on_c, 5, 69, 96
1, 35610, Note_off_c, 0, 74, 0
1, 35610, Note_off_c, 1, 69, 0
1, 35610, Note_off_c, 2, 62, 0
1, 35610, Note_off_c, 3, 45, 0
1, 35610, Note_off_c, 4, 33, 0
1, 35613, Note_off_c, 6, 53, 0
1, 35614, Note_off_c, 5, 69, 0
1, 35616, Note_on_c, 5, 77, 96
1, 35616, Note_on_c, 6, 57, 96
1, 35626, Note_off_c, 5, 77, 0
1, 35628, Note_on_c, 5, 73, 96
1, 35637, Note_off_c, 6, 57, 0
1, 35638, Note_off_c, 5, 73, 0
1, 35640, Note_on_c, 5, 74, 96
1, 35640, Note_on_c, 6, 53, 96
1, 35650, Note_off_c, 5, 74, 0
1, 35652, Note_on_c, 5, 70, 96
1, 35661, Note_off_c, 6, 53, 0
1, 35662, Note_off_c, 5, 70, 0
1, 35664, Note_on_c, 5, 69, 96
1, 35664, Note_on_c, 6, 50, 96
1, 35674, Note_off_c, 5, 69, 0
1, 35676, Note_on_c, 5, 73, 96
1, 35685, Note_off_c, 6, 50, 0
1, 35686, Note_off_c, 5, 73, 0
1, 35688, Note_on_c, 5, 74, 96
1, 35688, Note_on_c, 6, 45, 96
1, 35698, Note_off_c, 5, 74, 0
1, 35700, Note_on_c, 5, 77, 96
1, 35709, Note_off_c, 6, 45, 0
1, 35710, Note_off_c, 5, 77, 0
1, 35712, Note_on_c, 0, 74, 80
1, 35712, Note_on_c, 1, 71, 80
1, 35712, Note_on_c, 2, 65, 80
1, 35712, Note_on_c, 3, 45, 80
1, 35712, Note_on_c, 4, 33, 80
1, 35712, Note_on_c, 5, 80, 96
1, 35712, Note_on_c, 6, 50, 96
1, 35722, Note_off_c, 5, 80, 0
1, 35724, Note_on_c, 5, 77, 96
1, 35733, Note_off_c, 6, 50, 0
1, 35734, Note_off_c, 5, 77, 0
1, 35736, Note_on_c, 5, 74, 96
1, 35736, Note_on_c, 6, 56, 96
1, 35746, Note_off_c, 5, 74, 0
1, 35748, Note_on_c, 5, 71, 96
1, 35754, Note_off_c, 0, 74, 0
1, 35754, Note_off_c, 1, 71, 0
1, 35754, Note_off_c, 2, 65, 0
1, 35754, Note_off_c, 3, 45, 0
1, 35754, Note_off_c, 4, 33, 0
1, 35757, Note_off_c, 6, 56, 0
1, 35758, Note_off_c, 5, 71, 0
1, 35760, Note_on_c, 5, 80, 96
1, 35760, Note_on_c, 6, 59, 96
1, 35770, Note_off_c, 5, 80, 0
1, 35772, Note_on_c, 5, 76, 96
1, 35781, Note_off_c, 6, 59, 0
1, 35782, Note_off_c, 5, 76, 0
1, 35784, Note_on_c, 5, 77, 96
1, 35784, Note_on_c, 6, 56, 96
1, 35794, Note_off_c, 5, 77, 0
1, 35796, Note_on_c, 5, 74, 96
1, 35805, Note_off_c, 6, 56, 0
1, 35806, Note_off_c, 5, 74, 0
1, 35808, Note_on_c, 5, 71, 96
1, 35808, Note_on_c, 6, 50, 96
1, 35818, Note_off_c, 5, 71, 0
1, 35820, Note_on_c, 5, 74, 96
1, 35829, Note_off_c, 6, 50, 0
1, 35830, Note_off_c, 5, 74, 0
1, 35832, Note_on_c, 5, 77, 96
1, 35832, Note_on_c, 6, 45, 96
1, 35842, Note_off_c, 5, 77, 0
1, 35844, Note_on_c, 5, 80, 96
1, 35853, Note_off_c, 6, 45, 0
1, 35854, Note_off_c, 5, 80, 0
1, 35856, Note_on_c, 0, 73, 80
1, 35856, Note_on_c, 1, 69, 80
1, 35856, Note_on_c, 2, 64, 80
1, 35856, Note_on_c, 3, 45, 80
1, 35856, Note_on_c, 4, 33, 80
1, 35856, Note_on_c, 5, 81, 96
1, 35856, Note_on_c, 6, 57, 96
1, 35866, Note_off_c, 5, 81, 0
1, 35866, Note_off_c, 6, 57, 0
1, 35868, Note_on_c, 5, 76, 96
1, 35868, Note_on_c, 6, 67, 96
1, 35878, Note_off_c, 5, 76, 0
1, 35878, Note_off_c, 6, 67, 0
1, 35880, Note_on_c, 5, 77, 96
1, 35880, Note_on_c, 6, 69, 96
1, 35890, Note_off_c, 5, 77, 0
1, 35890, Note_off_c, 6, 69, 0
1, 35892, Note_on_c, 5, 81, 96
1, 35892, Note_on_c, 6, 65, 96
1, 35898, Note_off_c, 0, 73, 0
1, 35898, Note_off_c, 1, 69, 0
1, 35898, Note_off_c, 2, 64, 0
1, 35898, Note_off_c, 3, 45, 0
1, 35898, Note_off_c, 4, 33, 0
1, 35902, Note_off_c, 5, 81, 0
1, 35902, Note_off_c, 6, 65, 0
1, 35904, Note_on_c, 5, 81, 96
1, 35904, Note_on_c, 6, 67, 96
1, 35914, Note_off_c, 5, 81, 0
1, 35914, Note_off_c, 6, 67, 0
1, 35916, Note_on_c, 5, 74, 96
1, 35916, Note_on_c, 6, 65, 96
1, 35926, Note_off_c, 5, 74, 0
1, 35926, Note_off_c, 6, 65, 0
1, 35928, Note_on_c, 5, 76, 96
1, 35928, Note_on_c, 6, 67, 96
1, 35938, Note_off_c, 5, 76, 0
1, 35938, Note_off_c, 6, 67, 0
1, 35940, Note_on_c, 5, 81, 96
1, 35940, Note_on_c, 6, 64, 96
1, 35950, Note_off_c, 5, 81, 0
1, 35950, Note_off_c, 6, 64, 0
1, 35952, Note_on_c, 5, 81, 96
1, 35952, Note_on_c, 6, 65, 96
1, 35962, Note_off_c, 5, 81, 0
1, 35962, Note_off_c, 6, 65, 0
1, 35964, Note_on_c, 5, 73, 96
1, 35964, Note_on_c, 6, 64, 96
1, 35974, Note_off_c, 5, 73, 0
1, 35974, Note_off_c, 6, 64, 0
1, 35976, Note_on_c, 5, 74, 96
1, 35976, Note_on_c, 6, 65, 96
1, 35986, Note_off_c, 5, 74, 0
1, 35986, Note_off_c, 6, 65, 0
1, 35988, Note_on_c, 5, 81, 96
1, 35988, Note_on_c, 6, 62, 96
1, 35998, Note_off_c, 5, 81, 0
1, 35998, Note_off_c, 6, 62, 0
1, 36000, Note_on_c, 5, 81, 96
1, 36000, Note_on_c, 6, 64, 96
1, 36010, Note_off_c, 5, 81, 0
1, 36010, Note_off_c, 6, 64, 0
1, 36012, Note_on_c, 5, 71, 96
1, 36012, Note_on_c, 6, 62, 96
1, 36022, Note_off_c, 5, 71, 0
1, 36022, Note_off_c, 6, 62, 0
1, 36024, Note_on_c, 5, 73, 96
1, 36024, Note_on_c, 6, 64, 96
1, 36034, Note_off_c, 5, 73, 0
1, 36034, Note_off_c, 6, 64, 0
1, 36036, Note_on_c, 5, 76, 96
1, 36036, Note_on_c, 6, 61, 96
1, 36046, Note_off_c, 5, 76, 0
1, 36046, Note_off_c, 6, 61, 0
1, 36048, Note_on_c, 5, 81, 96
1, 36048, Note_on_c, 6, 57, 96
1, 36058, Note_off_c, 5, 81, 0
1, 36060, Note_on_c, 5, 76, 96
1, 36069, Note_off_c, 6, 57, 0
1, 36070, Note_off_c, 5, 76, 0
1, 36072, Note_on_c, 5, 73, 96
1, 36072, Note_on_c, 5, 57, 96
1, 36072, Note_on_c, 5, 52, 96
1, 36072, Note_on_c, 5, 49, 96
1, 36072, Note_on_c, 6, 45, 96
1, 36082, Note_off_c, 5, 73, 0
1, 36084, Note_on_c, 5, 69, 96
1, 36093, Note_off_c, 5, 57, 0
1, 36093, Note_off_c, 5, 52, 0
1, 36093, Note_off_c, 5, 49, 0
1, 36093, Note_off_c, 6, 45, 0
1, 36094, Note_off_c, 5, 69, 0
1, 36096, Note_on_c, 5, 67, 96
1, 36096, Note_on_c, 5, 57, 96
1, 36096, Note_on_c, 5, 52, 96
1, 36096, Note_on_c, 5, 49, 96
1, 36096, Note_on_c, 6, 45, 96
1, 36106, Note_off_c, 5, 67, 0
1, 36108, Note_on_c, 5, 69, 96
1, 36117, Note_off_c, 5, 57, 0
1, 36117, Note_off_c, 5, 52, 0
1, 36117, Note_off_c, 5, 49, 0
1, 36117, Note_off_c, 6, 45, 0
1, 36118, Note_off_c, 5, 69, 0
1, 36120, Note_on_c, 5, 70, 96
1, 36120, Note_on_c, 5, 57, 96
1, 36120, Note_on_c, 5, 52, 96
1, 36120, Note_on_c, 5, 49, 96
1, 36120, Note_on_c, 6, 45, 96
1, 36130, Note_off_c, 5, 70, 0
1, 36132, Note_on_c, 5, 73, 96
1, 36141, Note_off_c, 5, 57, 0
1, 36141, Note_off_c, 5, 52, 0
1, 36141, Note_off_c, 5, 49, 0
1, 36141, Note_off_c, 6, 45, 0
1, 36142, Note_off_c, 5, 73, 0
1, 36144, Note_on_c, 5, 74, 96
1, 36144, Note_on_c, 5, 57, 96
1, 36144, Note_on_c, 5, 53, 96
1, 36144, Note_on_c, 6, 50, 96
1, 36154, Note_off_c, 5, 74, 0
1, 36154, Note_off_c, 5, 57, 0
1, 36154, Note_off_c, 5, 53, 0
1, 36154, Note_off_c, 6, 50, 0
1, 36156, Note_on_c, 5, 69, 96
1, 36156, Note_on_c, 6, 65, 96
1, 36166, Note_off_c, 5, 69, 0
1, 36166, Note_off_c, 6, 65, 0
1, 36168, Note_on_c, 5, 70, 96
1, 36168, Note_on_c, 6, 67, 96
1, 36178, Note_off_c, 5, 70, 0
1, 36178, Note_off_c, 6, 67, 0
1, 36180, Note_on_c, 5, 74, 96
1, 36180, Note_on_c, 6, 64, 96
1, 36190, Note_off_c, 5, 74, 0
1, 36190, Note_off_c, 6, 64, 0
1, 36192, Note_on_c, 5, 74, 96
1, 36192, Note_on_c, 6, 65, 96
1, 36202, Note_off_c, 5, 74, 0
1, 36202, Note_off_c, 6, 65, 0
1, 36204, Note_on_c, 5, 67, 96
1, 36204, Note_on_c, 6, 64, 96
1, 36214, Note_off_c, 5, 67, 0
1, 36214, Note_off_c, 6, 64, 0
1, 36216, Note_on_c, 5, 69, 96
1, 36216, Note_on_c, 6, 65, 96
1, 36226, Note_off_c, 5, 69, 0
1, 36226, Note_off_c, 6, 65, 0
1, 36228, Note_on_c, 5, 74, 96
1, 36228, Note_on_c, 6, 62, 96
1, 36238, Note_off_c, 5, 74, 0
1, 36238, Note_off_c, 6, 62, 0
1, 36240, Note_on_c, 5, 74, 96
1, 36240, Note_on_c, 6, 64, 96
1, 36250, Note_off_c, 5, 74, 0
1, 36250, Note_off_c, 6, 64, 0
1, 36252, Note_on_c, 5, 65, 96
1, 36252, Note_on_c, 6, 62, 96
1, 36262, Note_off_c, 5, 65, 0
1, 36262, Note_off_c, 6, 62, 0
1, 36264, Note_on_c, 5, 67, 96
1, 36264, Note_on_c, 6, 64, 96
1, 36274, Note_off_c, 5, 67, 0
1, 36274, Note_off_c, 6, 64, 0
1, 36276, Note_on_c, 5, 74, 96
1, 36276, Note_on_c, 6, 57, 96
1, 36286, Note_off_c, 5, 74, 0
1, 36286, Note_off_c, 6, 57, 0
1, 36288, Note_on_c, 5, 74, 96
1, 36288, Note_on_c, 6, 62, 96
1, 36298, Note_off_c, 5, 74, 0
1, 36298, Note_off_c, 6, 62, 0
1, 36300, Note_on_c, 5, 64, 96
1, 36300, Note_on_c, 6, 61, 96
1, 36310, Note_off_c, 5, 64, 0
1, 36310, Note_off_c, 6, 61, 0
1, 36312, Note_on_c, 5, 65, 96
1, 36312, Note_on_c, 6, 62, 96
1, 36322, Note_off_c, 5, 65, 0
1, 36322, Note_off_c, 6, 62, 0
1, 36324, Note_on_c, 5, 69, 96
1, 36324, Note_on_c, 6, 57, 96
1, 36334, Note_off_c, 5, 69, 0
1, 36334, Note_off_c, 6, 57, 0
1, 36336, Note_on_c, 5, 74, 96
1, 36336, Note_on_c, 6, 53, 96
1, 36346, Note_off_c, 5, 74, 0
1, 36348, Note_on_c, 5, 69, 96
1, 36357, Note_off_c, 6, 53, 0
1, 36358, Note_off_c, 5, 69, 0
1, 36360, Note_on_c, 5, 65, 96
1, 36360, Note_on_c, 5, 62, 96
1, 36360, Note_on_c, 5, 57, 96
1, 36360, Note_on_c, 5, 53, 96
1, 36360, Note_on_c, 6, 50, 96
1, 36370, Note_off_c, 5, 65, 0
1, 36372, Note_on_c, 5, 69, 96
1, 36381, Note_off_c, 5, 62, 0
1, 36381, Note_off_c, 5, 57, 0
1, 36381, Note_off_c, 5, 53, 0
1, 36381, Note_off_c, 6, 50, 0
1, 36382, Note_off_c, 5, 69, 0
1, 36384, Note_on_c, 5, 72, 96
1, 36384, Note_on_c, 5, 62, 96
1, 36384, Note_on_c, 5, 57, 96
1, 36384, Note_on_c, 5, 54, 96
1, 36384, Note_on_c, 6, 50, 96
1, 36394, Note_off_c, 5, 72, 0
1, 36396, Note_on_c, 5, 74, 96
1, 36405, Note_off_c, 5, 62, 0
1, 36405, Note_off_c, 5, 57, 0
1, 36405, Note_off_c, 5, 54, 0
1, 36405, Note_off_c, 6, 50, 0
1, 36406, Note_off_c, 5, 74, 0
1, 36408, Note_on_c, 5, 75, 96
1, 36408, Note_on_c, 5, 62, 96
1, 36408, Note_on_c, 5, 57, 96
1, 36408, Note_on_c, 5, 54, 96
1, 36408, Note_on_c, 6, 50, 96
1, 36418, Note_off_c, 5, 75, 0
1, 36420, Note_on_c, 5, 78, 96
1, 36429, Note_off_c, 5, 62, 0
1, 36429, Note_off_c, 5, 57, 0
1, 36429, Note_off_c, 5, 54, 0
1, 36429, Note_off_c, 6, 50, 0
1, 36430, Note_off_c, 5, 78, 0
1, 36432, Note_on_c, 5, 79, 96
1, 36432, Note_on_c, 5, 62, 96
1, 36432, Note_on_c, 5, 58, 96
1, 36432, Note_on_c, 6, 55, 96
1, 36442, Note_off_c, 5, 79, 0
1, 36442, Note_off_c, 5, 62, 0
1, 36442, Note_off_c, 5, 58, 0
1, 36442, Note_off_c, 6, 55, 0
1, 36444, Note_on_c, 5, 74, 96
1, 36444, Note_on_c, 6, 66, 96
1, 36454, Note_off_c, 5, 74, 0
1, 36454, Note_off_c, 6, 66, 0
1, 36456, Note_on_c, 5, 75, 96
1, 36456, Note_on_c, 6, 67, 96
1, 36466, Note_off_c, 5, 75, 0
1, 36466, Note_off_c, 6, 67, 0
1, 36468, Note_on_c, 5, 79, 96
1, 36468, Note_on_c, 6, 63, 96
1, 36478, Note_off_c, 5, 79, 0
1, 36478, Note_off_c, 6, 63, 0
1, 36480, Note_on_c, 5, 79, 96
1, 36480, Note_on_c, 6, 65, 96
1, 36490, Note_off_c, 5, 79, 0
1, 36490, Note_off_c, 6, 65, 0
1, 36492, Note_on_c, 5, 72, 96
1, 36492, Note_on_c, 6, 63, 96
1, 36502, Note_off_c, 5, 72, 0
1, 36502, Note_off_c, 6, 63, 0
1, 36504, Note_on_c, 5, 74, 96
1, 36504, Note_on_c, 6, 65, 96
1, 36514, Note_off_c, 5, 74, 0
1, 36514, Note_off_c, 6, 65, 0
1, 36516, Note_on_c, 5, 79, 96
1, 36516, Note_on_c, 6, 62, 96
1, 36526, Note_off_c, 5, 79, 0
1, 36526, Note_off_c, 6, 62, 0
1, 36528, Note_on_c, 5, 79, 96
1, 36528, Note_on_c, 6, 63, 96
1, 36538, Note_off_c, 5, 79, 0
1, 36538, Note_off_c, 6, 63, 0
1, 36540, Note_on_c, 5, 70, 96
1, 36540, Note_on_c, 6, 62, 96
1, 36550, Note_off_c, 5, 70, 0
1, 36550, Note_off_c, 6, 62, 0
1, 36552, Note_on_c, 5, 72, 96
1, 36552, Note_on_c, 6, 63, 96
1, 36562, Note_off_c, 5, 72, 0
1, 36562, Note_off_c, 6, 63, 0
1, 36564, Note_on_c, 5, 79, 96
1, 36564, Note_on_c, 6, 60, 96
1, 36574, Note_off_c, 5, 79, 0
1, 36574, Note_off_c, 6, 60, 0
1, 36576, Note_on_c, 5, 79, 96
1, 36576, Note_on_c, 6, 62, 96
1, 36586, Note_off_c, 5, 79, 0
1, 36586, Note_off_c, 6, 62, 0
1, 36588, Note_on_c, 5, 69, 96
1, 36588, Note_on_c, 6, 60, 96
1, 36598, Note_off_c, 5, 69, 0
1, 36598, Note_off_c, 6, 60, 0
1, 36600, Note_on_c, 5, 70, 96
1, 36600, Note_on_c, 6, 62, 96
1, 36610, Note_off_c, 5, 70, 0
1, 36610, Note_off_c, 6, 62, 0
1, 36612, Note_on_c, 5, 74, 96
1, 36612, Note_on_c, 6, 58, 96
1, 36622, Note_off_c, 5, 74, 0
1, 36622, Note_off_c, 6, 58, 0
1, 36624, Note_on_c, 5, 79, 96
1, 36624, Note_on_c, 6, 55, 96
1, 36634, Note_off_c, 5, 79, 0
1, 36636, Note_on_c, 5, 74, 96
1, 36645, Note_off_c, 6, 55, 0
1, 36646, Note_off_c, 5, 74, 0
1, 36648, Note_on_c, 5, 70, 96
1, 36648, Note_on_c, 5, 55, 96
1, 36648, Note_on_c, 5, 50, 96
1, 36648, Note_on_c, 5, 46, 96
1, 36648, Note_on_c, 6, 43, 96
1, 36658, Note_off_c, 5, 70, 0
1, 36660, Note_on_c, 5, 67, 96
1, 36669, Note_off_c, 5, 55, 0
1, 36669, Note_off_c, 5, 50, 0
1, 36669, Note_off_c, 5, 46, 0
1, 36669, Note_off_c, 6, 43, 0
1, 36670, Note_off_c, 5, 67, 0
1, 36672, Note_on_c, 5, 65, 96
1, 36672, Note_on_c, 5, 55, 96
1, 36672, Note_on_c, 5, 50, 96
1, 36672, Note_on_c, 5, 47, 96
1, 36672, Note_on_c, 6, 43, 96
1, 36682, Note_off_c, 5, 65, 0
1, 36684, Note_on_c, 5, 67, 96
1, 36693, Note_off_c, 5, 55, 0
1, 36693, Note_off_c, 5, 50, 0
1, 36693, Note_off_c, 5, 47, 0
1, 36693, Note_off_c, 6, 43, 0
1, 36694, Note_off_c, 5, 67, 0
1, 36696, Note_on_c, 5, 68, 96
1, 36696, Note_on_c, 5, 55, 96
1, 36696, Note_on_c, 5, 50, 96
1, 36696, Note_on_c, 5, 47, 96
1, 36696, Note_on_c, 6, 43, 96
1, 36706, Note_off_c, 5, 68, 0
1, 36708, Note_on_c, 5, 71, 96
1, 36717, Note_off_c, 5, 55, 0
1, 36717, Note_off_c, 5, 50, 0
1, 36717, Note_off_c, 5, 47, 0
1, 36717, Note_off_c, 6, 43, 0
1, 36718, Note_off_c, 5, 71, 0
1, 36720, Note_on_c, 5, 72, 96
1, 36720, Note_on_c, 5, 55, 96
1, 36720, Note_on_c, 5, 52, 96
1, 36720, Note_on_c, 6, 48, 96
1, 36730, Note_off_c, 5, 72, 0
1, 36730, Note_off_c, 5, 55, 0
1, 36730, Note_off_c, 5, 52, 0
1, 36730, Note_off_c, 6, 48, 0
1, 36732, Note_on_c, 5, 67, 96
1, 36732, Note_on_c, 6, 64, 96
1, 36742, Note_off_c, 5, 67, 0
1, 36742, Note_off_c, 6, 64, 0
1, 36744, Note_on_c, 5, 69, 96
1, 36744, Note_on_c, 6, 65, 96
1, 36754, Note_off_c, 5, 69, 0
1, 36754, Note_off_c, 6, 65, 0
1, 36756, Note_on_c, 5, 72, 96
1, 36756, Note_on_c, 6, 62, 96
1, 36766, Note_off_c, 5, 72, 0
1, 36766, Note_off_c, 6, 62, 0
1, 36768, Note_on_c, 5, 72, 96
1, 36768, Note_on_c, 6, 64, 96
1, 36778, Note_off_c, 5, 72, 0
1, 36778, Note_off_c, 6, 64, 0
1, 36780, Note_on_c, 5, 65, 96
1, 36780, Note_on_c, 6, 62, 96
1, 36790, Note_off_c, 5, 65, 0
1, 36790, Note_off_c, 6, 62, 0
1, 36792, Note_on_c, 5, 67, 96
1, 36792, Note_on_c, 6, 64, 96
1, 36802, Note_off_c, 5, 67, 0
1, 36802, Note_off_c, 6, 64, 0
1, 36804, Note_on_c, 5, 72, 96
1, 36804, Note_on_c, 6, 60, 96
1, 36814, Note_off_c, 5, 72, 0
1, 36814, Note_off_c, 6, 60, 0
1, 36816, Note_on_c, 5, 72, 96
1, 36816, Note_on_c, 6, 62, 96
1, 36826, Note_off_c, 5, 72, 0
1, 36826, Note_off_c, 6, 62, 0
1, 36828, Note_on_c, 5, 64, 96
1, 36828, Note_on_c, 6, 60, 96
1, 36838, Note_off_c, 5, 64, 0
1, 36838, Note_off_c, 6, 60, 0
1, 36840, Note_on_c, 5, 65, 96
1, 36840, Note_on_c, 6, 62, 96
1, 36850, Note_off_c, 5, 65, 0
1, 36850, Note_off_c, 6, 62, 0
1, 36852, Note_on_c, 5, 72, 96
1, 36852, Note_on_c, 6, 55, 96
1, 36862, Note_off_c, 5, 72, 0
1, 36862, Note_off_c, 6, 55, 0
1, 36864, Note_on_c, 5, 72, 96
1, 36864, Note_on_c, 6, 60, 96
1, 36874, Note_off_c, 5, 72, 0
1, 36874, Note_off_c, 6, 60, 0
1, 36876, Note_on_c, 5, 62, 96
1, 36876, Note_on_c, 6, 59, 96
1, 36886, Note_off_c, 5, 62, 0
1, 36886, Note_off_c, 6, 59, 0
1, 36888, Note_on_c, 5, 64, 96
1, 36888, Note_on_c, 6, 60, 96
1, 36898, Note_off_c, 5, 64, 0
1, 36898, Note_off_c, 6, 60, 0
1, 36900, Note_on_c, 5, 67, 96
1, 36900, Note_on_c, 6, 55, 96
1, 36910, Note_off_c, 5, 67, 0
1, 36910, Note_off_c, 6, 55, 0
1, 36912, Note_on_c, 5, 72, 96
1, 36912, Note_on_c, 6, 52, 96
1, 36922, Note_off_c, 5, 72, 0
1, 36924, Note_on_c, 5, 67, 96
1, 36933, Note_off_c, 6, 52, 0
1, 36934, Note_off_c, 5, 67, 0
1, 36936, Note_on_c, 5, 64, 96
1, 36936, Note_on_c, 5, 60, 96
1, 36936, Note_on_c, 5, 55, 96
1, 36936, Note_on_c, 5, 52, 96
1, 36936, Note_on_c, 6, 48, 96
1, 36946, Note_off_c, 5, 64, 0
1, 36948, Note_on_c, 5, 67, 96
1, 36957, Note_off_c, 5, 60, 0
1, 36957, Note_off_c, 5, 55, 0
1, 36957, Note_off_c, 5, 52, 0
1, 36957, Note_off_c, 6, 48, 0
1, 36958, Note_off_c, 5, 67, 0
1, 36960, Note_on_c, 5, 70, 96
1, 36960, Note_on_c, 5, 60, 96
1, 36960, Note_on_c, 5, 55, 96
1, 36960, Note_on_c, 5, 52, 96
1, 36960, Note_on_c, 6, 48, 96
1, 36970, Note_off_c, 5, 70, 0
1, 36972, Note_on_c, 5, 72, 96
1, 36981, Note_off_c, 5, 60, 0
1, 36981, Note_off_c, 5, 55, 0
1, 36981, Note_off_c, 5, 52, 0
1, 36981, Note_off_c, 6, 48, 0
1, 36982, Note_off_c, 5, 72, 0
1, 36984, Note_on_c, 5, 73, 96
1, 36984, Note_on_c, 5, 60, 96
1, 36984, Note_on_c, 5, 55, 96
1, 36984, Note_on_c, 5, 52, 96
1, 36984, Note_on_c, 6, 48, 96
1, 36994, Note_off_c, 5, 73, 0
1, 36996, Note_on_c, 5, 76, 96
1, 37005, Note_off_c, 5, 60, 0
1, 37005, Note_off_c, 5, 55, 0
1, 37005, Note_off_c, 5, 52, 0
1, 37005, Note_off_c, 6, 48, 0
1, 37006, Note_off_c, 5, 76, 0
1, 37008, Note_on_c, 5, 77, 96
1, 37008, Note_on_c, 5, 60, 96
1, 37008, Note_on_c, 5, 57, 96
1, 37008, Note_on_c, 6, 53, 96
1, 37018, Note_off_c, 5, 77, 0
1, 37018, Note_off_c, 5, 60, 0
1, 37018, Note_off_c, 5, 57, 0
1, 37018, Note_off_c, 6, 53, 0
1, 37020, Note_on_c, 5, 72, 96
1, 37020, Note_on_c, 6, 64, 96
1, 37030, Note_off_c, 5, 72, 0
1, 37030, Note_off_c, 6, 64, 0
1, 37032, Note_on_c, 5, 74, 96
1, 37032, Note_on_c, 6, 65, 96
1, 37042, Note_off_c, 5, 74, 0
1, 37042, Note_off_c, 6, 65, 0
1, 37044, Note_on_c, 5, 77, 96
1, 37044, Note_on_c, 6, 62, 96
1, 37054, Note_off_c, 5, 77, 0
1, 37054, Note_off_c, 6, 62, 0
1, 37056, Note_on_c, 5, 77, 96
1, 37056, Note_on_c, 6, 63, 96
1, 37066, Note_off_c, 5, 77, 0
1, 37066, Note_off_c, 6, 63, 0
1, 37068, Note_on_c, 5, 70, 96
1, 37068, Note_on_c, 6, 62, 96
1, 37078, Note_off_c, 5, 70, 0
1, 37078, Note_off_c, 6, 62, 0
1, 37080, Note_on_c, 5, 72, 96
1, 37080, Note_on_c, 6, 63, 96
1, 37090, Note_off_c, 5, 72, 0
1, 37090, Note_off_c, 6, 63, 0
1, 37092, Note_on_c, 5, 77, 96
1, 37092, Note_on_c, 6, 60, 96
1, 37102, Note_off_c, 5, 77, 0
1, 37102, Note_off_c, 6, 60, 0
1, 37104, Note_on_c, 5, 77, 96
1, 37104, Note_on_c, 6, 62, 96
1, 37114, Note_off_c, 5, 77, 0
1, 37114, Note_off_c, 6, 62, 0
1, 37116, Note_on_c, 5, 69, 96
1, 37116, Note_on_c, 6, 60, 96
1, 37126, Note_off_c, 5, 69, 0
1, 37126, Note_off_c, 6, 60, 0
1, 37128, Note_on_c, 5, 70, 96
1, 37128, Note_on_c, 6, 62, 96
1, 37138, Note_off_c, 5, 70, 0
1, 37138, Note_off_c, 6, 62, 0
1, 37140, Note_on_c, 5, 77, 96
1, 37140, Note_on_c, 6, 58, 96
1, 37150, Note_off_c, 5, 77, 0
1, 37150, Note_off_c, 6, 58, 0
1, 37152, Note_on_c, 5, 77, 96
1, 37152, Note_on_c, 6, 60, 96
1, 37162, Note_off_c, 5, 77, 0
1, 37162, Note_off_c, 6, 60, 0
1, 37164, Note_on_c, 5, 67, 96
1, 37164, Note_on_c, 6, 58, 96
1, 37174, Note_off_c, 5, 67, 0
1, 37174, Note_off_c, 6, 58, 0
1, 37176, Note_on_c, 5, 69, 96
1, 37176, Note_on_c, 6, 60, 96
1, 37186, Note_off_c, 5, 69, 0
1, 37186, Note_off_c, 6, 60, 0
1, 37188, Note_on_c, 5, 72, 96
1, 37188, Note_on_c, 6, 57, 96
1, 37198, Note_off_c, 5, 72, 0
1, 37198, Note_off_c, 6, 57, 0
1, 37200, Note_on_c, 5, 77, 96
1, 37200, Note_on_c, 6, 53, 96
1, 37210, Note_off_c, 5, 77, 0
1, 37212, Note_on_c, 5, 72, 96
1, 37221, Note_off_c, 6, 53, 0
1, 37222, Note_off_c, 5, 72, 0
1, 37224, Note_on_c, 5, 69, 96
1, 37224, Note_on_c, 5, 53, 96
1, 37224, Note_on_c, 5, 48, 96
1, 37224, Note_on_c, 5, 45, 96
1, 37224, Note_on_c, 6, 41, 96
1, 37234, Note_off_c, 5, 69, 0
1, 37236, Note_on_c, 5, 65, 96
1, 37245, Note_off_c, 5, 53, 0
1, 37245, Note_off_c, 5, 48, 0
1, 37245, Note_off_c, 5, 45, 0
1, 37245, Note_off_c, 6, 41, 0
1, 37246, Note_off_c, 5, 65, 0
1, 37248, Note_on_c, 5, 63, 96
1, 37248, Note_on_c, 5, 53, 96
1, 37248, Note_on_c, 5, 48, 96
1, 37248, Note_on_c, 5, 45, 96
1, 37248, Note_on_c, 6, 41, 96
1, 37258, Note_off_c, 5, 63, 0
1, 37260, Note_on_c, 5, 65, 96
1, 37269, Note_off_c, 5, 53, 0
1, 37269, Note_off_c, 5, 48, 0
1, 37269, Note_off_c, 5, 45, 0
1, 37269, Note_off_c, 6, 41, 0
1, 37270, Note_off_c, 5, 65, 0
1, 37272, Note_on_c, 5, 66, 96
1, 37272, Note_on_c, 5, 53, 96
1, 37272, Note_on_c, 5, 48, 96
1, 37272, Note_on_c, 5, 45, 96
1, 37272, Note_on_c, 6, 41, 96
1, 37282, Note_off_c, 5, 66, 0
1, 37284, Note_on_c, 5, 69, 96
1, 37293, Note_off_c, 5, 53, 0
1, 37293, Note_off_c, 5, 48, 0
1, 37293, Note_off_c, 5, 45, 0
1, 37293, Note_off_c, 6, 41, 0
1, 37294, Note_off_c, 5, 69, 0
1, 37296, Note_on_c, 5, 70, 96
1, 37296, Note_on_c, 5, 53, 96
1, 37296, Note_on_c, 5, 50, 96
1, 37296, Note_on_c, 6, 46, 96
1, 37306, Note_off_c, 5, 70, 0
1, 37306, Note_off_c, 5, 53, 0
1, 37306, Note_off_c, 5, 50, 0
1, 37306, Note_off_c, 6, 46, 0
1, 37308, Note_on_c, 5, 65, 96
1, 37308, Note_on_c, 6, 62, 96
1, 37318, Note_off_c, 5, 65, 0
1, 37318, Note_off_c, 6, 62, 0
1, 37320, Note_on_c, 5, 67, 96
1, 37320, Note_on_c, 6, 63, 96
1, 37330, Note_off_c, 5, 67, 0
1, 37330, Note_off_c, 6, 63, 0
1, 37332, Note_on_c, 5, 70, 96
1, 37332, Note_on_c, 6, 60, 96
1, 37342, Note_off_c, 5, 70, 0
1, 37342, Note_off_c, 6, 60, 0
1, 37344, Note_on_c, 5, 70, 96
1, 37344, Note_on_c, 6, 62, 96
1, 37354, Note_off_c, 5, 70, 0
1, 37354, Note_off_c, 6, 62, 0
1, 37356, Note_on_c, 5, 63, 96
1, 37356, Note_on_c, 6, 60, 96
1, 37366, Note_off_c, 5, 63, 0
1, 37366, Note_off_c, 6, 60, 0
1, 37368, Note_on_c, 5, 65, 96
1, 37368, Note_on_c, 6, 62, 96
1, 37378, Note_off_c, 5, 65, 0
1, 37378, Note_off_c, 6, 62, 0
1, 37380, Note_on_c, 5, 70, 96
1, 37380, Note_on_c, 6, 58, 96
1, 37390, Note_off_c, 5, 70, 0
1, 37390, Note_off_c, 6, 58, 0
1, 37392, Note_on_c, 5, 70, 96
1, 37392, Note_on_c, 6, 60, 96
1, 37402, Note_off_c, 5, 70, 0
1, 37402, Note_off_c, 6, 60, 0
1, 37404, Note_on_c, 5, 62, 96
1, 37404, Note_on_c, 6, 58, 96
1, 37414, Note_off_c, 5, 62, 0
1, 37414, Note_off_c, 6, 58, 0
1, 37416, Note_on_c, 5, 63, 96
1, 37416, Note_on_c, 6, 60, 96
1, 37426, Note_off_c, 5, 63, 0
1, 37426, Note_off_c, 6, 60, 0
1, 37428, Note_on_c, 5, 70, 96
1, 37428, Note_on_c, 6, 53, 96
1, 37438, Note_off_c, 5, 70, 0
1, 37438, Note_off_c, 6, 53, 0
1, 37440, Note_on_c, 5, 70, 96
1, 37440, Note_on_c, 6, 58, 96
1, 37450, Note_off_c, 5, 70, 0
1, 37450, Note_off_c, 6, 58, 0
1, 37452, Note_on_c, 5, 60, 96
1, 37452, Note_on_c, 6, 57, 96
1, 37462, Note_off_c, 5, 60, 0
1, 37462, Note_off_c, 6, 57, 0
1, 37464, Note_on_c, 5, 62, 96
1, 37464, Note_on_c, 6, 58, 96
1, 37474, Note_off_c, 5, 62, 0
1, 37474, Note_off_c, 6, 58, 0
1, 37476, Note_on_c, 5, 65, 96
1, 37476, Note_on_c, 6, 53, 96
1, 37486, Note_off_c, 5, 65, 0
1, 37486, Note_off_c, 6, 53, 0
1, 37488, Note_on_c, 5, 70, 96
1, 37488, Note_on_c, 6, 50, 96
1, 37498, Note_off_c, 5, 70, 0
1, 37500, Note_on_c, 5, 65, 96
1, 37509, Note_off_c, 6, 50, 0
1, 37510, Note_off_c, 5, 65, 0
1, 37512, Note_on_c, 5, 62, 96
1, 37512, Note_on_c, 5, 58, 96
1, 37512, Note_on_c, 5, 53, 96
1, 37512, Note_on_c, 5, 50, 96
1, 37512, Note_on_c, 6, 46, 96
1, 37522, Note_off_c, 5, 62, 0
1, 37524, Note_on_c, 5, 65, 96
1, 37533, Note_off_c, 5, 58, 0
1, 37533, Note_off_c, 5, 53, 0
1, 37533, Note_off_c, 5, 50, 0
1, 37533, Note_off_c, 6, 46, 0
1, 37534, Note_off_c, 5, 65, 0
1, 37536, Note_on_c, 5, 68, 96
1, 37536, Note_on_c, 5, 58, 96
1, 37536, Note_on_c, 5, 53, 96
1, 37536, Note_on_c, 5, 50, 96
1, 37536, Note_on_c, 6, 46, 96
1, 37546, Note_off_c, 5, 68, 0
1, 37548, Note_on_c, 5, 70, 96
1, 37557, Note_off_c, 5, 58, 0
1, 37557, Note_off_c, 5, 53, 0
1, 37557, Note_off_c, 5, 50, 0
1, 37557, Note_off_c, 6, 46, 0
1, 37558, Note_off_c, 5, 70, 0
1, 37560, Note_on_c, 5, 71, 96
1, 37560, Note_on_c, 5, 58, 96
1, 37560, Note_on_c, 5, 53, 96
1, 37560, Note_on_c, 5, 50, 96
1, 37560, Note_on_c, 6, 46, 96
1, 37570, Note_off_c, 5, 71, 0
1, 37572, Note_on_c, 5, 74, 96
1, 37581, Note_off_c, 5, 58, 0
1, 37581, Note_off_c, 5, 53, 0
1, 37581, Note_off_c, 5, 50, 0
1, 37581, Note_off_c, 6, 46, 0
1, 37582, Note_off_c, 5, 74, 0
1, 37584, Note_on_c, 5, 75, 96
1, 37584, Note_on_c, 5, 58, 96
1, 37584, Note_on_c, 5, 55, 96
1, 37584, Note_on_c, 6, 51, 96
1, 37594, Note_off_c, 5, 75, 0
1, 37594, Note_off_c, 5, 58, 0
1, 37594, Note_off_c, 5, 55, 0
1, 37594, Note_off_c, 6, 51, 0
1, 37596, Note_on_c, 5, 70, 96
1, 37596, Note_on_c, 6, 62, 96
1, 37606, Note_off_c, 5, 70, 0
1, 37606, Note_off_c, 6, 62, 0
1, 37608, Note_on_c, 5, 72, 96
1, 37608, Note_on_c, 6, 63, 96
1, 37618, Note_off_c, 5, 72, 0
1, 37618, Note_off_c, 6, 63, 0
1, 37620, Note_on_c, 5, 75, 96
1, 37620, Note_on_c, 6, 60, 96
1, 37630, Note_off_c, 5, 75, 0
1, 37630, Note_off_c, 6, 60, 0
1, 37632, Note_on_c, 5, 75, 96
1, 37632, Note_on_c, 6, 61, 96
1, 37642, Note_off_c, 5, 75, 0
1, 37642, Note_off_c, 6, 61, 0
1, 37644, Note_on_c, 5, 68, 96
1, 37644, Note_on_c, 6, 60, 96
1, 37654, Note_off_c, 5, 68, 0
1, 37654, Note_off_c, 6, 60, 0
1, 37656, Note_on_c, 5, 70, 96
1, 37656, Note_on_c, 6, 61, 96
1, 37666, Note_off_c, 5, 70, 0
1, 37666, Note_off_c, 6, 61, 0
1, 37668, Note_on_c, 5, 75, 96
1, 37668, Note_on_c, 6, 58, 96
1, 37678, Note_off_c, 5, 75, 0
1, 37678, Note_off_c, 6, 58, 0
1, 37680, Note_on_c, 5, 75, 96
1, 37680, Note_on_c, 6, 60, 96
1, 37690, Note_off_c, 5, 75, 0
1, 37690, Note_off_c, 6, 60, 0
1, 37692, Note_on_c, 5, 67, 96
1, 37692, Note_on_c, 6, 58, 96
1, 37702, Note_off_c, 5, 67, 0
1, 37702, Note_off_c, 6, 58, 0
1, 37704, Note_on_c, 5, 68, 96
1, 37704, Note_on_c, 6, 60, 96
1, 37714, Note_off_c, 5, 68, 0
1, 37714, Note_off_c, 6, 60, 0
1, 37716, Note_on_c, 5, 75, 96
1, 37716, Note_on_c, 6, 56, 96
1, 37726, Note_off_c, 5, 75, 0
1, 37726, Note_off_c, 6, 56, 0
1, 37728, Note_on_c, 5, 75, 96
1, 37728, Note_on_c, 6, 58, 96
1, 37738, Note_off_c, 5, 75, 0
1, 37738, Note_off_c, 6, 58, 0
1, 37740, Note_on_c, 5, 65, 96
1, 37740, Note_on_c, 6, 56, 96
1, 37750, Note_off_c, 5, 65, 0
1, 37750, Note_off_c, 6, 56, 0
1, 37752, Note_on_c, 5, 67, 96
1, 37752, Note_on_c, 6, 58, 96
1, 37762, Note_off_c, 5, 67, 0
1, 37762, Note_off_c, 6, 58, 0
1, 37764, Note_on_c, 5, 70, 96
1, 37764, Note_on_c, 6, 53, 96
1, 37774, Note_off_c, 5, 70, 0
1, 37774, Note_off_c, 6, 53, 0
1, 37776, Note_on_c, 5, 75, 96
1, 37776, Note_on_c, 6, 55, 96
1, 37786, Note_off_c, 5, 75, 0
1, 37786, Note_off_c, 6, 55, 0
1, 37788, Note_on_c, 5, 70, 96
1, 37788, Note_on_c, 6, 51, 96
1, 37798, Note_off_c, 5, 70, 0
1, 37798, Note_off_c, 6, 51, 0
1, 37800, Note_on_c, 5, 67, 96
1, 37800, Note_on_c, 6, 55, 96
1, 37810, Note_off_c, 5, 67, 0
1, 37810, Note_off_c, 6, 55, 0
1, 37812, Note_on_c, 5, 63, 96
1, 37812, Note_on_c, 6, 58, 96
1, 37822, Note_off_c, 5, 63, 0
1, 37822, Note_off_c, 6, 58, 0
1, 37824, Note_on_c, 5, 67, 96
1, 37824, Note_on_c, 6, 63, 96
1, 37834, Note_off_c, 5, 67, 0
1, 37834, Note_off_c, 6, 63, 0
1, 37836, Note_on_c, 5, 70, 96
1, 37836, Note_on_c, 6, 51, 96
1, 37846, Note_off_c, 5, 70, 0
1, 37846, Note_off_c, 6, 51, 0
1, 37848, Note_on_c, 5, 75, 96
1, 37848, Note_on_c, 6, 55, 96
1, 37858, Note_off_c, 5, 75, 0
1, 37858, Note_off_c, 6, 55, 0
1, 37860, Note_on_c, 5, 70, 96
1, 37860, Note_on_c, 6, 58, 96
1, 37870, Note_off_c, 5, 70, 0
1, 37870, Note_off_c, 6, 58, 0
1, 37872, Note_on_c, 5, 79, 96
1, 37872, Note_on_c, 6, 63, 96
1, 37882, Note_off_c, 5, 79, 0
1, 37884, Note_on_c, 5, 75, 96
1, 37893, Note_off_c, 6, 63, 0
1, 37894, Note_off_c, 5, 75, 0
1, 37896, Note_on_c, 3, 43, 80
1, 37896, Note_on_c, 4, 31, 80
1, 37896, Note_on_c, 5, 82, 96
1, 37896, Note_on_c, 6, 55, 96
1, 37896, Note_on_c, 6, 43, 96
1, 37906, Note_off_c, 5, 82, 0
1, 37908, Note_on_c, 5, 79, 96
1, 37917, Note_off_c, 3, 43, 0
1, 37917, Note_off_c, 4, 31, 0
1, 37917, Note_off_c, 6, 55, 0
1, 37917, Note_off_c, 6, 43, 0
1, 37918, Note_off_c, 5, 79, 0
1, 37920, Note_on_c, 3, 43, 80
1, 37920, Note_on_c, 4, 31, 80
1, 37920, Note_on_c, 5, 75, 96
1, 37920, Note_on_c, 6, 55, 96
1, 37920, Note_on_c, 6, 43, 96
1, 37930, Note_off_c, 5, 75, 0
1, 37932, Note_on_c, 5, 79, 96
1, 37941, Note_off_c, 3, 43, 0
1, 37941, Note_off_c, 4, 31, 0
1, 37941, Note_off_c, 6, 55, 0
1, 37941, Note_off_c, 6, 43, 0
1, 37942, Note_off_c, 5, 79, 0
1, 37944, Note_on_c, 3, 43, 80
1, 37944, Note_on_c, 4, 31, 80
1, 37944, Note_on_c, 5, 70, 96
1, 37944, Note_on_c, 6, 55, 96
1, 37944, Note_on_c, 6, 43, 96
1, 37954, Note_off_c, 5, 70, 0
1, 37956, Note_on_c, 5, 75, 96
1, 37965, Note_off_c, 3, 43, 0
1, 37965, Note_off_c, 4, 31, 0
1, 37965, Note_off_c, 6, 55, 0
1, 37965, Note_off_c, 6, 43, 0
1, 37966, Note_off_c, 5, 75, 0
1, 37968, Note_on_c, 3, 43, 80
1, 37968, Note_on_c, 4, 31, 80
1, 37968, Note_on_c, 5, 67, 96
1, 37968, Note_on_c, 6, 55, 96
1, 37968, Note_on_c, 6, 43, 96
1, 37978, Note_off_c, 5, 67, 0
1, 37980, Note_on_c, 5, 70, 96
1, 37989, Note_off_c, 3, 43, 0
1, 37989, Note_off_c, 4, 31, 0
1, 37989, Note_off_c, 6, 55, 0
1, 37989, Note_off_c, 6, 43, 0
1, 37990, Note_off_c, 5, 70, 0
1, 37992, Note_on_c, 0, 82, 80
1, 37992, Note_on_c, 1, 79, 80
1, 37992, Note_on_c, 2, 63, 80
1, 37992, Note_on_c, 3, 43, 80
1, 37992, Note_on_c, 4, 31, 80
1, 37992, Note_on_c, 5, 63, 96
1, 37992, Note_on_c, 6, 55, 96
1, 37992, Note_on_c, 6, 43, 96
1, 38002, Note_off_c, 5, 63, 0
1, 38004, Note_on_c, 5, 67, 96
1, 38013, Note_off_c, 0, 82, 0
1, 38013, Note_off_c, 1, 79, 0
1, 38013, Note_off_c, 2, 63, 0
1, 38013, Note_off_c, 3, 43, 0
1, 38013, Note_off_c, 4, 31, 0
1, 38013, Note_off_c, 6, 55, 0
1, 38013, Note_off_c, 6, 43, 0
1, 38014, Note_off_c, 5, 67, 0
1, 38016, Note_on_c, 0, 82, 80
1, 38016, Note_on_c, 1, 79, 80
1, 38016, Note_on_c, 2, 61, 80
1, 38016, Note_on_c, 3, 45, 80
1, 38016, Note_on_c, 4, 33, 80
1, 38016, Note_on_c, 5, 61, 96
1, 38016, Note_on_c, 6, 55, 96
1, 38016, Note_on_c, 6, 52, 96
1, 38016, Note_on_c, 6, 45, 96
1, 38026, Note_off_c, 5, 61, 0
1, 38028, Note_on_c, 5, 67, 96
1, 38033, Note_off_c, 5, 67, 0
1, 38034, Note_on_c, 5, 65, 96
1, 38039, Note_off_c, 5, 65, 0
1, 38040, Note_off_c, 0, 82, 0
1, 38040, Note_on_c, 0, 81, 80
1, 38040, Note_off_c, 1, 79, 0
1, 38040, Note_on_c, 1, 73, 80
1, 38040, Note_off_c, 2, 61, 0
1, 38040, Note_on_c, 2, 67, 80
1, 38040, Note_on_c, 5, 64, 96
1, 38045, Note_off_c, 5, 64, 0
1, 38046, Note_on_c, 5, 65, 96
1, 38051, Note_off_c, 5, 65, 0
1, 38052, Note_on_c, 5, 67, 96
1, 38058, Note_off_c, 6, 55, 0
1, 38058, Note_off_c, 6, 52, 0
1, 38058, Note_off_c, 6, 45, 0
1, 38061, Note_off_c, 0, 81, 0
1, 38061, Note_off_c, 1, 73, 0
1, 38061, Note_off_c, 2, 67, 0
1, 38062, Note_off_c, 5, 67, 0
1, 38064, Note_on_c, 5, 57, 96
1, 38074, Note_off_c, 5, 57, 0
1, 38076, Note_on_c, 5, 61, 96
1, 38086, Note_off_c, 5, 61, 0
1, 38088, Note_on_c, 5, 64, 96
1, 38088, Note_on_c, 6, 55, 96
1, 38088, Note_on_c, 6, 52, 96
1, 38088, Note_on_c, 6, 45, 96
1, 38098, Note_off_c, 5, 64, 0
1, 38100, Note_on_c, 5, 67, 96
1, 38109, Note_off_c, 6, 55, 0
1, 38109, Note_off_c, 6, 52, 0
1, 38109, Note_off_c, 6, 45, 0
1, 38110, Note_off_c, 5, 67, 0
1, 38112, Note_on_c, 5, 73, 96
1, 38112, Note_on_c, 6, 55, 96
1, 38112, Note_on_c, 6, 52, 96
1, 38112, Note_on_c, 6, 45, 96
1, 38122, Note_off_c, 5, 73, 0
1, 38124, Note_on_c, 5, 67, 96
1, 38133, Note_off_c, 6, 55, 0
1, 38133, Note_off_c, 6, 52, 0
1, 38133, Note_off_c, 6, 45, 0
1, 38134, Note_off_c, 5, 67, 0
1, 38136, Note_on_c, 0, 81, 80
1, 38136, Note_on_c, 1, 73, 80
1, 38136, Note_on_c, 2, 67, 80
1, 38136, Note_on_c, 5, 76, 96
1, 38136, Note_on_c, 6, 52, 96
1, 38136, Note_on_c, 6, 49, 96
1, 38136, Note_on_c, 6, 45, 96
1, 38146, Note_off_c, 5, 76, 0
1, 38148, Note_on_c, 5, 67, 96
1, 38157, Note_off_c, 0, 81, 0
1, 38157, Note_off_c, 1, 73, 0
1, 38157, Note_off_c, 2, 67, 0
1, 38157, Note_off_c, 6, 52, 0
1, 38157, Note_off_c, 6, 49, 0
1, 38157, Note_off_c, 6, 45, 0
1, 38158, Note_off_c, 5, 67, 0
1, 38160, Note_on_c, 0, 81, 80
1, 38160, Note_on_c, 1, 74, 80
1, 38160, Note_on_c, 2, 65, 80
1, 38160, Note_on_c, 5, 65, 96
1, 38160, Note_on_c, 6, 53, 96
1, 38160, Note_on_c, 6, 50, 96
1, 38160, Note_on_c, 6, 45, 96
1, 38170, Note_off_c, 5, 65, 0
1, 38172, Note_on_c, 5, 74, 96
1, 38177, Note_off_c, 5, 74, 0
1, 38178, Note_on_c, 5, 73, 96
1, 38183, Note_off_c, 5, 73, 0
1, 38184, Note_off_c, 0, 81, 0
1, 38184, Note_on_c, 0, 80, 80
1, 38184, Note_off_c, 1, 74, 0
1, 38184, Note_on_c, 1, 71, 80
1, 38184, Note_off_c, 2, 65, 0
1, 38184, Note_on_c, 2, 62, 80
1, 38184, Note_on_c, 5, 71, 96
1, 38189, Note_off_c, 5, 71, 0
1, 38190, Note_on_c, 5, 73, 96
1, 38195, Note_off_c, 5, 73, 0
1, 38196, Note_on_c, 5, 74, 96
1, 38202, Note_off_c, 6, 53, 0
1, 38202, Note_off_c, 6, 50, 0
1, 38202, Note_off_c, 6, 45, 0
1, 38205, Note_off_c, 0, 80, 0
1, 38205, Note_off_c, 1, 71, 0
1, 38205, Note_off_c, 2, 62, 0
1, 38206, Note_off_c, 5, 74, 0
1, 38208, Note_on_c, 5, 68, 96
1, 38218, Note_off_c, 5, 68, 0
1, 38220, Note_on_c, 5, 71, 96
1, 38230, Note_off_c, 5, 71, 0
1, 38232, Note_on_c, 5, 74, 96
1, 38232, Note_on_c, 6, 56, 96
1, 38232, Note_on_c, 6, 50, 96
1, 38232, Note_on_c, 6, 47, 96
1, 38232, Note_on_c, 6, 45, 96
1, 38242, Note_off_c, 5, 74, 0
1, 38244, Note_on_c, 5, 77, 96
1, 38253, Note_off_c, 6, 56, 0
1, 38253, Note_off_c, 6, 50, 0
1, 38253, Note_off_c, 6, 47, 0
1, 38253, Note_off_c, 6, 45, 0
1, 38254, Note_off_c, 5, 77, 0
1, 38256, Note_on_c, 5, 80, 96
1, 38256, Note_on_c, 6, 56, 96
1, 38256, Note_on_c, 6, 50, 96
1, 38256, Note_on_c, 6, 47, 96
1, 38256, Note_on_c, 6, 45, 96
1, 38266, Note_off_c, 5, 80, 0
1, 38268, Note_on_c, 5, 74, 96
1, 38277, Note_off_c, 6, 56, 0
1, 38277, Note_off_c, 6, 50, 0
1, 38277, Note_off_c, 6, 47, 0
1, 38277, Note_off_c, 6, 45, 0
1, 38278, Note_off_c, 5, 74, 0
1, 38280, Note_on_c, 0, 80, 80
1, 38280, Note_on_c, 1, 71, 80
1, 38280, Note_on_c, 2, 62, 80
1, 38280, Note_on_c, 5, 83, 96
1, 38280, Note_on_c, 6, 56, 96
1, 38280, Note_on_c, 6, 50, 96
1, 38280, Note_on_c, 6, 47, 96
1, 38280, Note_on_c, 6, 45, 96
1, 38290, Note_off_c, 5, 83, 0
1, 38292, Note_on_c, 5, 74, 96
1, 38301, Note_off_c, 0, 80, 0
1, 38301, Note_off_c, 1, 71, 0
1, 38301, Note_off_c, 2, 62, 0
1, 38301, Note_off_c, 6, 56, 0
1, 38301, Note_off_c, 6, 50, 0
1, 38301, Note_off_c, 6, 47, 0
1, 38301, Note_off_c, 6, 45, 0
1, 38302, Note_off_c, 5, 74, 0
1, 38304, Note_on_c, 0, 81, 80
1, 38304, Note_on_c, 1, 73, 80
1, 38304, Note_on_c, 2, 64, 80
1, 38304, Note_on_c, 5, 73, 96
1, 38304, Note_on_c, 6, 57, 96
1, 38304, Note_on_c, 6, 52, 96
1, 38304, Note_on_c, 6, 45, 96
1, 38309, Note_off_c, 5, 73, 0
1, 38310, Note_on_c, 5, 69, 96
1, 38315, Note_off_c, 5, 69, 0
1, 38316, Note_off_c, 3, 45, 0
1, 38316, Note_off_c, 4, 33, 0
1, 38316, Note_on_c, 5, 64, 96
1, 38321, Note_off_c, 5, 64, 0
1, 38322, Note_on_c, 5, 61, 96
1, 38325, Note_off_c, 6, 57, 0
1, 38325, Note_off_c, 6, 52, 0
1, 38325, Note_off_c, 6, 45, 0
1, 38327, Note_off_c, 5, 61, 0
1, 38328, Note_on_c, 3, 45, 80
1, 38328, Note_on_c, 4, 33, 80
1, 38328, Note_on_c, 5, 57, 96
1, 38333, Note_off_c, 5, 57, 0
1, 38334, Note_on_c, 6, 55, 96
1, 38339, Note_off_c, 6, 55, 0
1, 38340, Note_on_c, 6, 52, 96
1, 38345, Note_off_c, 6, 52, 0
1, 38346, Note_off_c, 0, 81, 0
1, 38346, Note_off_c, 1, 73, 0
1, 38346, Note_off_c, 2, 64, 0
1, 38346, Note_on_c, 6, 49, 96
1, 38349, Note_off_c, 3, 45, 0
1, 38349, Note_off_c, 4, 33, 0
1, 38351, Note_off_c, 6, 49, 0
1, 38352, Note_on_c, 3, 45, 80
1, 38352, Note_on_c, 4, 33, 80
1, 38352, Note_on_c, 6, 45, 96
1, 38360, Note_on_c, 5, 82, 96
1, 38362, Note_off_c, 6, 45, 0
1, 38367, Note_off_c, 5, 82, 0
1, 38368, Note_on_c, 5, 79, 96
1, 38373, Note_off_c, 3, 45, 0
1, 38373, Note_off_c, 4, 33, 0
1, 38375, Note_off_c, 5, 79, 0
1, 38376, Note_on_c, 3, 45, 80
1, 38376, Note_on_c, 4, 33, 80
1, 38376, Note_on_c, 5, 76, 96
1, 38383, Note_off_c, 5, 76, 0
1, 38384, Note_on_c, 5, 79, 96
1, 38391, Note_off_c, 5, 79, 0
1, 38392, Note_on_c, 5, 76, 96
1, 38397, Note_off_c, 3, 45, 0
1, 38397, Note_off_c, 4, 33, 0
1, 38399, Note_off_c, 5, 76, 0
1, 38400, Note_on_c, 3, 45, 80
1, 38400, Note_on_c, 4, 33, 80
1, 38400, Note_on_c, 5, 73, 96
1, 38407, Note_off_c, 5, 73, 0
1, 38408, Note_on_c, 5, 76, 96
1, 38415, Note_off_c, 5, 76, 0
1, 38416, Note_on_c, 5, 73, 96
1, 38421, Note_off_c, 3, 45, 0
1, 38421, Note_off_c, 4, 33, 0
1, 38423, Note_off_c, 5, 73, 0
1, 38424, Note_on_c, 3, 45, 80
1, 38424, Note_on_c, 4, 33, 80
1, 38424, Note_on_c, 5, 69, 96
1, 38431, Note_off_c, 5, 69, 0
1, 38432, Note_on_c, 5, 73, 96
1, 38439, Note_off_c, 5, 73, 0
1, 38440, Note_on_c, 5, 69, 96
1, 38445, Note_off_c, 3, 45, 0
1, 38445, Note_off_c, 4, 33, 0
1, 38447, Note_off_c, 5, 69, 0
1, 38448, Note_on_c, 0, 69, 80
1, 38448, Note_on_c, 1, 65, 80
1, 38448, Note_on_c, 2, 62, 80
1, 38448, Note_on_c, 5, 65, 96
1, 38448, Note_on_c, 6, 57, 96
1, 38448, Note_on_c, 6, 50, 96
1, 38448, Note_on_c, 6, 45, 96
1, 38453, Note_off_c, 5, 65, 0
1, 38454, Note_on_c, 5, 67, 96
1, 38459, Note_off_c, 5, 67, 0
1, 38460, Note_on_c, 5, 69, 96
1, 38465, Note_off_c, 5, 69, 0
1, 38466, Note_on_c, 5, 65, 96
1, 38469, Note_off_c, 6, 57, 0
1, 38469, Note_off_c, 6, 50, 0
1, 38469, Note_off_c, 6, 45, 0
1, 38471, Note_off_c, 5, 65, 0
1, 38472, Note_on_c, 3, 45, 80
1, 38472, Note_on_c, 4, 33, 80
1, 38472, Note_on_c, 5, 62, 96
1, 38477, Note_off_c, 5, 62, 0
1, 38478, Note_on_c, 6, 57, 96
1, 38483, Note_off_c, 6, 57, 0
1, 38484, Note_on_c, 6, 53, 96
1, 38489, Note_off_c, 6, 53, 0
1, 38490, Note_on_c, 6, 50, 96
1, 38493, Note_off_c, 3, 45, 0
1, 38493, Note_off_c, 4, 33, 0
1, 38495, Note_off_c, 6, 50, 0
1, 38496, Note_on_c, 3, 45, 80
1, 38496, Note_on_c, 4, 33, 80
1, 38496, Note_on_c, 6, 45, 96
1, 38504, Note_on_c, 5, 81, 96
1, 38506, Note_off_c, 6, 45, 0
1, 38511, Note_off_c, 5, 81, 0
1, 38512, Note_on_c, 5, 77, 96
1, 38517, Note_off_c, 3, 45, 0
1, 38517, Note_off_c, 4, 33, 0
1, 38519, Note_off_c, 5, 77, 0
1, 38520, Note_on_c, 3, 45, 80
1, 38520, Note_on_c, 4, 33, 80
1, 38520, Note_on_c, 5, 74, 96
1, 38527, Note_off_c, 5, 74, 0
1, 38528, Note_on_c, 5, 77, 96
1, 38535, Note_off_c, 5, 77, 0
1, 38536, Note_on_c, 5, 74, 96
1, 38541, Note_off_c, 3, 45, 0
1, 38541, Note_off_c, 4, 33, 0
1, 38543, Note_off_c, 5, 74, 0
1, 38544, Note_on_c, 3, 45, 80
1, 38544, Note_on_c, 4, 33, 80
1, 38544, Note_on_c, 5, 70, 96
1, 38551, Note_off_c, 5, 70, 0
1, 38552, Note_on_c, 5, 74, 96
1, 38559, Note_off_c, 5, 74, 0
1, 38560, Note_on_c, 5, 70, 96
1, 38565, Note_off_c, 3, 45, 0
1, 38565, Note_off_c, 4, 33, 0
1, 38567, Note_off_c, 5, 70, 0
1, 38568, Note_on_c, 3, 45, 80
1, 38568, Note_on_c, 4, 33, 80
1, 38568, Note_on_c, 5, 67, 96
1, 38575, Note_off_c, 5, 67, 0
1, 38576, Note_on_c, 5, 70, 96
1, 38580, Note_off_c, 0, 69, 0
1, 38580, Note_off_c, 1, 65, 0
1, 38580, Note_off_c, 2, 62, 0
1, 38583, Note_off_c, 5, 70, 0
1, 38584, Note_on_c, 5, 67, 96
1, 38589, Note_off_c, 3, 45, 0
1, 38589, Note_off_c, 4, 33, 0
1, 38591, Note_off_c, 5, 67, 0
1, 38592, Note_on_c, 0, 67, 80
1, 38592, Note_on_c, 1, 61, 80
1, 38592, Note_on_c, 2, 64, 80
1, 38592, Note_on_c, 5, 64, 96
1, 38592, Note_on_c, 6, 57, 96
1, 38592, Note_on_c, 6, 52, 96
1, 38592, Note_on_c, 6, 49, 96
1, 38592, Note_on_c, 6, 45, 96
1, 38597, Note_off_c, 5, 64, 0
1, 38598, Note_on_c, 5, 65, 96
1, 38603, Note_off_c, 5, 65, 0
1, 38604, Note_on_c, 5, 67, 96
1, 38609, Note_off_c, 5, 67, 0
1, 38610, Note_on_c, 5, 64, 96
1, 38613, Note_off_c, 6, 57, 0
1, 38613, Note_off_c, 6, 52, 0
1, 38613, Note_off_c, 6, 49, 0
1, 38613, Note_off_c, 6, 45, 0
1, 38615, Note_off_c, 5, 64, 0
1, 38616, Note_on_c, 3, 45, 80
1, 38616, Note_on_c, 4, 33, 80
1, 38616, Note_on_c, 5, 61, 96
1, 38621, Note_off_c, 5, 61, 0
1, 38622, Note_on_c, 6, 57, 96
1, 38627, Note_off_c, 6, 57, 0
1, 38628, Note_on_c, 6, 52, 96
1, 38633, Note_off_c, 6, 52, 0
1, 38634, Note_on_c, 6, 49, 96
1, 38637, Note_off_c, 3, 45, 0
1, 38637, Note_off_c, 4, 33, 0
1, 38639, Note_off_c, 6, 49, 0
1, 38640, Note_on_c, 3, 45, 80
1, 38640, Note_on_c, 4, 33, 80
1, 38640, Note_on_c, 6, 45, 96
1, 38648, Note_on_c, 5, 79, 96
1, 38650, Note_off_c, 6, 45, 0
1, 38655, Note_off_c, 5, 79, 0
1, 38656, Note_on_c, 5, 76, 96
1, 38661, Note_off_c, 3, 45, 0
1, 38661, Note_off_c, 4, 33, 0
1, 38663, Note_off_c, 5, 76, 0
1, 38664, Note_on_c, 3, 45, 80
1, 38664, Note_on_c, 4, 33, 80
1, 38664, Note_on_c, 5, 73, 96
1, 38671, Note_off_c, 5, 73, 0
1, 38672, Note_on_c, 5, 76, 96
1, 38679, Note_off_c, 5, 76, 0
1, 38680, Note_on_c, 5, 73, 96
1, 38685, Note_off_c, 3, 45, 0
1, 38685, Note_off_c, 4, 33, 0
1, 38687, Note_off_c, 5, 73, 0
1, 38688, Note_on_c, 3, 45, 80
1, 38688, Note_on_c, 4, 33, 80
1, 38688, Note_on_c, 5, 69, 96
1, 38695, Note_off_c, 5, 69, 0
1, 38696, Note_on_c, 5, 73, 96
1, 38703, Note_off_c, 5, 73, 0
1, 38704, Note_on_c, 5, 69, 96
1, 38709, Note_off_c, 3, 45, 0
1, 38709, Note_off_c, 4, 33, 0
1, 38711, Note_off_c, 5, 69, 0
1, 38712, Note_on_c, 3, 45, 80
1, 38712, Note_on_c, 4, 33, 80
1, 38712, Note_on_c, 5, 65, 96
1, 38719, Note_off_c, 5, 65, 0
1, 38720, Note_on_c, 5, 69, 96
1, 38724, Note_off_c, 0, 67, 0
1, 38724, Note_off_c, 1, 61, 0
1, 38724, Note_off_c, 2, 64, 0
1, 38727, Note_off_c, 5, 69, 0
1, 38728, Note_on_c, 5, 65, 96
1, 38733, Note_off_c, 3, 45, 0
1, 38733, Note_off_c, 4, 33, 0
1, 38735, Note_off_c, 5, 65, 0
1, 38736, Note_on_c, 0, 65, 80
1, 38736, Note_on_c, 1, 62, 80
1, 38736, Note_on_c, 2, 56, 80
1, 38736, Note_on_c, 5, 62, 96
1, 38736, Note_on_c, 6, 56, 96
1, 38736, Note_on_c, 6, 47, 96
1, 38736, Note_on_c, 6, 45, 96
1, 38741, Note_off_c, 5, 62, 0
1, 38742, Note_on_c, 5, 64, 96
1, 38747, Note_off_c, 5, 64, 0
1, 38748, Note_on_c, 5, 65, 96
1, 38753, Note_off_c, 5, 65, 0
1, 38754, Note_on_c, 5, 62, 96
1, 38757, Note_off_c, 6, 56, 0
1, 38757, Note_off_c, 6, 47, 0
1, 38757, Note_off_c, 6, 45, 0
1, 38759, Note_off_c, 5, 62, 0
1, 38760, Note_on_c, 3, 45, 80
1, 38760, Note_on_c, 4, 33, 80
1, 38760, Note_on_c, 5, 58, 96
1, 38765, Note_off_c, 5, 58, 0
1, 38766, Note_on_c, 6, 56, 96
1, 38771, Note_off_c, 6, 56, 0
1, 38772, Note_on_c, 6, 53, 96
1, 38777, Note_off_c, 6, 53, 0
1, 38778, Note_on_c, 6, 50, 96
1, 38781, Note_off_c, 3, 45, 0
1, 38781, Note_off_c, 4, 33, 0
1, 38783, Note_off_c, 6, 50, 0
1, 38784, Note_on_c, 3, 45, 80
1, 38784, Note_on_c, 4, 33, 80
1, 38784, Note_on_c, 6, 45, 96
1, 38792, Note_on_c, 5, 77, 96
1, 38794, Note_off_c, 6, 45, 0
1, 38799, Note_off_c, 5, 77, 0
1, 38800, Note_on_c, 5, 74, 96
1, 38805, Note_off_c, 3, 45, 0
1, 38805, Note_off_c, 4, 33, 0
1, 38807, Note_off_c, 5, 74, 0
1, 38808, Note_on_c, 3, 45, 80
1, 38808, Note_on_c, 4, 33, 80
1, 38808, Note_on_c, 5, 71, 96
1, 38815, Note_off_c, 5, 71, 0
1, 38816, Note_on_c, 5, 74, 96
1, 38823, Note_off_c, 5, 74, 0
1, 38824, Note_on_c, 5, 71, 96
1, 38829, Note_off_c, 3, 45, 0
1, 38829, Note_off_c, 4, 33, 0
1, 38831, Note_off_c, 5, 71, 0
1, 38832, Note_on_c, 3, 45, 80
1, 38832, Note_on_c, 4, 33, 80
1, 38832, Note_on_c, 5, 68, 96
1, 38839, Note_off_c, 5, 68, 0
1, 38840, Note_on_c, 5, 71, 96
1, 38847, Note_off_c, 5, 71, 0
1, 38848, Note_on_c, 5, 68, 96
1, 38853, Note_off_c, 3, 45, 0
1, 38853, Note_off_c, 4, 33, 0
1, 38855, Note_off_c, 5, 68, 0
1, 38856, Note_on_c, 3, 45, 80
1, 38856, Note_on_c, 4, 33, 80
1, 38856, Note_on_c, 5, 64, 96
1, 38863, Note_off_c, 5, 64, 0
1, 38864, Note_on_c, 5, 68, 96
1, 38868, Note_off_c, 0, 65, 0
1, 38868, Note_off_c, 1, 62, 0
1, 38868, Note_off_c, 2, 56, 0
1, 38871, Note_off_c, 5, 68, 0
1, 38872, Note_on_c, 5, 64, 96
1, 38877, Note_off_c, 3, 45, 0
1, 38877, Note_off_c, 4, 33, 0
1, 38879, Note_off_c, 5, 64, 0
1, 38880, Note_on_c, 0, 64, 80
1, 38880, Note_on_c, 1, 61, 80
1, 38880, Note_on_c, 2, 57, 80
1, 38880, Note_on_c, 3, 45, 80
1, 38880, Note_on_c, 4, 33, 80
1, 38880, Note_on_c, 5, 61, 96
1, 38880, Note_on_c, 6, 57, 96
1, 38880, Note_on_c, 6, 52, 96
1, 38880, Note_on_c, 6, 45, 96
1, 38885, Note_off_c, 5, 61, 0
1, 38886, Note_on_c, 5, 64, 96
1, 38891, Note_off_c, 5, 64, 0
1, 38892, Note_on_c, 5, 69, 96
1, 38897, Note_off_c, 5, 69, 0
1, 38898, Note_on_c, 5, 64, 96
1, 38901, Note_off_c, 6, 57, 0
1, 38901, Note_off_c, 6, 52, 0
1, 38901, Note_off_c, 6, 45, 0
1, 38903, Note_off_c, 5, 64, 0
1, 38904, Note_on_c, 5, 61, 96
1, 38909, Note_off_c, 5, 61, 0
1, 38910, Note_on_c, 6, 57, 96
1, 38915, Note_off_c, 6, 57, 0
1, 38916, Note_on_c, 6, 52, 96
1, 38921, Note_off_c, 6, 52, 0
1, 38922, Note_off_c, 0, 64, 0
1, 38922, Note_off_c, 1, 61, 0
1, 38922, Note_off_c, 2, 57, 0
1, 38922, Note_off_c, 3, 45, 0
1, 38922, Note_off_c, 4, 33, 0
1, 38922, Note_on_c, 6, 49, 96
1, 38927, Note_off_c, 6, 49, 0
1, 38928, Note_on_c, 6, 45, 96
1, 38938, Note_off_c, 6, 45, 0
1, 38940, Note_on_c, 5, 71, 96
1, 38940, Note_on_c, 6, 43, 96
1, 38950, Note_off_c, 5, 71, 0
1, 38950, Note_off_c, 6, 43, 0
1, 38952, Note_on_c, 5, 73, 96
1, 38952, Note_on_c, 6, 41, 96
1, 38962, Note_off_c, 5, 73, 0
1, 38962, Note_off_c, 6, 41, 0
1, 38964, Note_on_c, 5, 74, 96
1, 38964, Note_on_c, 6, 40, 96
1, 38974, Note_off_c, 5, 74, 0
1, 38974, Note_off_c, 6, 40, 0
1, 38976, Note_on_c, 5, 76, 96
1, 38976, Note_on_c, 6, 38, 96
1, 38986, Note_off_c, 5, 76, 0
1, 38986, Note_off_c, 6, 38, 0
1, 38988, Note_on_c, 5, 77, 96
1, 38988, Note_on_c, 6, 36, 96
1, 38998, Note_off_c, 5, 77, 0
1, 38998, Note_off_c, 6, 36, 0
1, 39000, Note_on_c, 5, 79, 96
1, 39000, Note_on_c, 6, 34, 96
1, 39010, Note_off_c, 5, 79, 0
1, 39010, Note_off_c, 6, 34, 0
1, 39012, Note_on_c, 5, 81, 96
1, 39012, Note_on_c, 6, 33, 96
1, 39022, Note_off_c, 5, 81, 0
1, 39022, Note_off_c, 6, 33, 0
1, 39024, Note_on_c, 5, 82, 96
1, 39024, Note_on_c, 6, 31, 96
1, 39034, Note_off_c, 5, 82, 0
1, 39034, Note_off_c, 6, 31, 0
1, 39036, Note_on_c, 5, 79, 96
1, 39036, Note_on_c, 6, 33, 96
1, 39046, Note_off_c, 5, 79, 0
1, 39046, Note_off_c, 6, 33, 0
1, 39048, Note_on_c, 5, 76, 96
1, 39048, Note_on_c, 6, 37, 96
1, 39058, Note_off_c, 5, 76, 0
1, 39058, Note_off_c, 6, 37, 0
1, 39060, Note_on_c, 5, 73, 96
1, 39060, Note_on_c, 6, 40, 96
1, 39070, Note_off_c, 5, 73, 0
1, 39070, Note_off_c, 6, 40, 0
1, 39072, Note_on_c, 5, 70, 96
1, 39072, Note_on_c, 6, 43, 96
1, 39120, Note_off_c, 5, 70, 0
1, 39120, Note_on_c, 5, 69, 96
1, 39126, Note_off_c, 5, 69, 0
1, 39126, Note_on_c, 5, 70, 96
1, 39132, Note_off_c, 5, 70, 0
1, 39132, Note_on_c, 5, 69, 96
1, 39138, Note_off_c, 5, 69, 0
1, 39138, Note_on_c, 5, 70, 96
1, 39144, Note_off_c, 5, 70, 0
1, 39144, Note_on_c, 5, 69, 96
1, 39150, Note_off_c, 5, 69, 0
1, 39150, Note_on_c, 5, 70, 96
1, 39156, Note_off_c, 5, 70, 0
1, 39156, Note_on_c, 5, 69, 96
1, 39162, Note_off_c, 5, 69, 0
1, 39162, Note_on_c, 5, 70, 96
1, 39168, Note_off_c, 5, 70, 0
1, 39168, Note_on_c, 5, 69, 96
1, 39174, Note_off_c, 5, 69, 0
1, 39174, Note_on_c, 5, 70, 96
1, 39180, Note_off_c, 5, 70, 0
1, 39180, Note_on_c, 5, 69, 96
1, 39186, Note_off_c, 5, 69, 0
1, 39186, Note_on_c, 5, 70, 96
1, 39192, Note_off_c, 5, 70, 0
1, 39192, Note_on_c, 5, 69, 96
1, 39204, Note_off_c, 6, 43, 0
1, 39213, Note_off_c, 5, 69, 0
1, 39216, Tempo, 1250000
1, 39216, Note_on_c, 5, 73, 96
1, 39216, Note_on_c, 5, 69, 96
1, 39216, Note_on_c, 6, 64, 96
1, 39216, Note_on_c, 6, 55, 96
1, 39237, Note_off_c, 5, 73, 0
1, 39237, Note_off_c, 5, 69, 0
1, 39237, Note_off_c, 6, 64, 0
1, 39237, Note_off_c, 6, 55, 0
1, 39240, Note_on_c, 5, 74, 96
1, 39240, Note_on_c, 5, 69, 96
1, 39240, Note_on_c, 6, 62, 96
1, 39240, Note_on_c, 6, 53, 96
1, 39250, Note_off_c, 6, 53, 0
1, 39252, Note_on_c, 6, 52, 96
1, 39262, Note_off_c, 6, 52, 0
1, 39264, Note_on_c, 6, 53, 96
1, 39271, Note_off_c, 5, 74, 0
1, 39271, Note_off_c, 5, 69, 0
1, 39274, Note_off_c, 6, 53, 0
1, 39276, Note_on_c, 5, 76, 96
1, 39276, Note_on_c, 5, 70, 96
1, 39276, Note_on_c, 6, 55, 96
1, 39286, Note_off_c, 5, 76, 0
1, 39286, Note_off_c, 5, 70, 0
1, 39286, Note_off_c, 6, 55, 0
1, 39288, Note_on_c, 5, 74, 96
1, 39288, Note_on_c, 5, 69, 96
1, 39288, Note_on_c, 6, 57, 96
1, 39291, Note_off_c, 5, 74, 0
1, 39291, Note_on_c, 5, 76, 96
1, 39294, Note_off_c, 5, 76, 0
1, 39294, Note_on_c, 5, 77, 96
1, 39297, Note_off_c, 5, 77, 0
1, 39297, Note_on_c, 5, 76, 96
1, 39300, Note_off_c, 5, 76, 0
1, 39300, Note_on_c, 5, 77, 96
1, 39303, Note_off_c, 5, 77, 0
1, 39303, Note_on_c, 5, 76, 96
1, 39303, Note_off_c, 6, 62, 0
1, 39306, Note_off_c, 5, 76, 0
1, 39306, Note_on_c, 5, 77, 96
1, 39309, Note_off_c, 5, 77, 0
1, 39309, Note_on_c, 5, 76, 96
1, 39312, Note_off_c, 5, 76, 0
1, 39312, Note_on_c, 5, 77, 96
1, 39312, Note_on_c, 6, 61, 96
1, 39315, Note_off_c, 5, 77, 0
1, 39315, Note_on_c, 5, 76, 96
1, 39318, Note_off_c, 5, 76, 0
1, 39318, Note_on_c, 5, 77, 96
1, 39321, Note_off_c, 5, 77, 0
1, 39321, Note_on_c, 5, 76, 96
1, 39322, Note_off_c, 6, 61, 0
1, 39324, Note_off_c, 5, 76, 0
1, 39324, Note_on_c, 5, 77, 96
1, 39324, Note_on_c, 6, 59, 96
1, 39327, Note_off_c, 5, 77, 0
1, 39327, Note_on_c, 5, 76, 96
1, 39330, Note_off_c, 5, 76, 0
1, 39330, Note_on_c, 5, 77, 96
1, 39330, Note_off_c, 5, 69, 0
1, 39333, Note_off_c, 5, 77, 0
1, 39333, Note_on_c, 5, 76, 96
1, 39334, Note_off_c, 6, 59, 0
1, 39336, Note_off_c, 5, 76, 0
1, 39336, Note_on_c, 5, 77, 96
1, 39336, Note_on_c, 5, 67, 96
1, 39336, Note_on_c, 6, 61, 96
1, 39339, Note_off_c, 5, 77, 0
1, 39339, Note_on_c, 5, 76, 96
1, 39357, Note_off_c, 5, 76, 0
1, 39360, Note_on_c, 5, 74, 96
1, 39372, Note_off_c, 6, 57, 0
1, 39378, Note_off_c, 5, 67, 0
1, 39378, Note_off_c, 6, 61, 0
1, 39381, Note_off_c, 5, 74, 0
1, 39384, Tempo, 625000
1, 39384, Note_on_c, 0, 74, 96
1, 39384, Note_on_c, 1, 74, 96
1, 39384, Note_on_c, 5, 74, 96
1, 39384, Note_on_c, 5, 65, 96
1, 39384, Note_on_c, 6, 62, 96
1, 39384, Note_on_c, 6, 57, 96
1, 39384, Note_on_c, 6, 50, 96
1, 39405, Note_off_c, 0, 74, 0
1, 39405, Note_off_c, 1, 74, 0
1, 39405, Note_off_c, 5, 74, 0
1, 39405, Note_off_c, 5, 65, 0
1, 39405, Note_off_c, 6, 62, 0
1, 39405, Note_off_c, 6, 57, 0
1, 39408, Note_on_c, 0, 72, 96
1, 39408, Note_on_c, 1, 72, 96
1, 39408, Note_on_c, 5, 72, 96
1, 39418, Note_off_c, 0, 72, 0
1, 39418, Note_off_c, 1, 72, 0
1, 39418, Note_off_c, 5, 72, 0
1, 39420, Note_on_c, 0, 70, 96
1, 39420, Note_on_c, 1, 70, 96
1, 39420, Note_on_c, 5, 70, 96
1, 39426, Note_off_c, 6, 50, 0
1, 39430, Note_off_c, 0, 70, 0
1, 39430, Note_off_c, 1, 70, 0
1, 39430, Note_off_c, 5, 70, 0
1, 39432, Note_on_c, 0, 69, 96
1, 39432, Note_on_c, 1, 69, 96
1, 39432, Note_on_c, 5, 69, 96
1, 39453, Note_off_c, 0, 69, 0
1, 39453, Note_off_c, 1, 69, 0
1, 39453, Note_off_c, 5, 69, 0
1, 39456, Note_on_c, 0, 67, 96
1, 39456, Note_on_c, 1, 67, 96
1, 39456, Note_on_c, 5, 67, 96
1, 39477, Note_off_c, 0, 67, 0
1, 39477, Note_off_c, 1, 67, 0
1, 39477, Note_off_c, 5, 67, 0
1, 39480, Note_on_c, 0, 65, 96
1, 39480, Note_on_c, 1, 65, 96
1, 39480, Note_on_c, 5, 65, 96
1, 39501, Note_off_c, 0, 65, 0
1, 39501, Note_off_c, 1, 65, 0
1, 39501, Note_off_c, 5, 65, 0
1, 39504, Note_on_c, 0, 64, 96
1, 39504, Note_on_c, 1, 64, 96
1, 39504, Note_on_c, 5, 64, 96
1, 39525, Note_off_c, 0, 64, 0
1, 39525, Note_off_c, 1, 64, 0
1, 39525, Note_off_c, 5, 64, 0
1, 39528, Note_on_c, 0, 65, 96
1, 39528, Note_on_c, 1, 65, 96
1, 39528, Note_on_c, 5, 65, 96
1, 39549, Note_off_c, 0, 65, 0
1, 39549, Note_off_c, 1, 65, 0
1, 39549, Note_off_c, 5, 65, 0
1, 39552, Note_on_c, 0, 62, 96
1, 39552, Note_on_c, 1, 62, 96
1, 39552, Note_on_c, 2, 65, 96
1, 39552, Note_on_c, 3, 50, 96
1, 39552, Note_on_c, 4, 38, 96
1, 39552, Note_on_c, 5, 62, 96
1, 39552, Note_on_c, 6, 50, 96
1, 39562, Note_off_c, 2, 65, 0
1, 39562, Note_off_c, 3, 50, 0
1, 39562, Note_off_c, 4, 38, 0
1, 39562, Note_off_c, 6, 50, 0
1, 39564, Note_on_c, 2, 67, 96
1, 39564, Note_on_c, 3, 52, 96
1, 39564, Note_on_c, 4, 40, 96
1, 39564, Note_on_c, 6, 52, 96
1, 39573, Note_off_c, 0, 62, 0
1, 39573, Note_off_c, 1, 62, 0
1, 39573, Note_off_c, 5, 62, 0
1, 39574, Note_off_c, 2, 67, 0
1, 39574, Note_off_c, 3, 52, 0
1, 39574, Note_off_c, 4, 40, 0
1, 39574, Note_off_c, 6, 52, 0
1, 39576, Note_on_c, 0, 74, 96
1, 39576, Note_on_c, 1, 74, 96
1, 39576, Note_on_c, 2, 69, 96
1, 39576, Note_on_c, 3, 53, 96
1, 39576, Note_on_c, 4, 41, 96
1, 39576, Note_on_c, 5, 74, 96
1, 39576, Note_on_c, 6, 53, 96
1, 39597, Note_off_c, 0, 74, 0
1, 39597, Note_off_c, 1, 74, 0
1, 39597, Note_off_c, 2, 69, 0
1, 39597, Note_off_c, 3, 53, 0
1, 39597, Note_off_c, 4, 41, 0
1, 39597, Note_off_c, 5, 74, 0
1, 39597, Note_off_c, 6, 53, 0
1, 39600, Note_on_c, 0, 74, 96
1, 39600, Note_on_c, 1, 74, 96
1, 39600, Note_on_c, 2, 67, 96
1, 39600, Note_on_c, 3, 52, 96
1, 39600, Note_on_c, 4, 40, 96
1, 39600, Note_on_c, 5, 74, 96
1, 39600, Note_on_c, 6, 52, 96
1, 39610, Note_off_c, 2, 67, 0
1, 39610, Note_off_c, 3, 52, 0
1, 39610, Note_off_c, 4, 40, 0
1, 39610, Note_off_c, 6, 52, 0
1, 39612, Note_on_c, 2, 69, 96
1, 39612, Note_on_c, 3, 53, 96
1, 39612, Note_on_c, 4, 41, 96
1, 39612, Note_on_c, 6, 53, 96
1, 39621, Note_off_c, 0, 74, 0
1, 39621, Note_off_c, 1, 74, 0
1, 39621, Note_off_c, 5, 74, 0
1, 39622, Note_off_c, 2, 69, 0
1, 39622, Note_off_c, 3, 53, 0
1, 39622, Note_off_c, 4, 41, 0
1, 39622, Note_off_c, 6, 53, 0
1, 39624, Note_on_c, 0, 74, 96
1, 39624, Note_on_c, 1, 74, 96
1, 39624, Note_on_c, 2, 70, 96
1, 39624, Note_on_c, 3, 55, 96
1, 39624, Note_on_c, 4, 43, 96
1, 39624, Note_on_c, 5, 74, 96
1, 39624, Note_on_c, 6, 55, 96
1, 39645, Note_off_c, 0, 74, 0
1, 39645, Note_off_c, 1, 74, 0
1, 39645, Note_off_c, 2, 70, 0
1, 39645, Note_off_c, 3, 55, 0
1, 39645, Note_off_c, 4, 43, 0
1, 39645, Note_off_c, 5, 74, 0
1, 39645, Note_off_c, 6, 55, 0
1, 39648, Note_on_c, 0, 74, 96
1, 39648, Note_on_c, 1, 74, 96
1, 39648, Note_on_c, 2, 69, 96
1, 39648, Note_on_c, 3, 53, 96
1, 39648, Note_on_c, 4, 41, 96
1, 39648, Note_on_c, 5, 74, 96
1, 39648, Note_on_c, 6, 53, 96
1, 39658, Note_off_c, 2, 69, 0
1, 39658, Note_off_c, 3, 53, 0
1, 39658, Note_off_c, 4, 41, 0
1, 39658, Note_off_c, 6, 53, 0
1, 39660, Note_on_c, 2, 70, 96
1, 39660, Note_on_c, 3, 55, 96
1, 39660, Note_on_c, 4, 43, 96
1, 39660, Note_on_c, 6, 55, 96
1, 39669, Note_off_c, 0, 74, 0
1, 39669, Note_off_c, 1, 74, 0
1, 39669, Note_off_c, 5, 74, 0
1, 39670, Note_off_c, 2, 70, 0
1, 39670, Note_off_c, 3, 55, 0
1, 39670, Note_off_c, 4, 43, 0
1, 39670, Note_off_c, 6, 55, 0
1, 39672, Note_on_c, 0, 74, 96
1, 39672, Note_on_c, 1, 74, 96
1, 39672, Note_on_c, 2, 64, 96
1, 39672, Note_on_c, 3, 57, 96
1, 39672, Note_on_c, 4, 45, 96
1, 39672, Note_on_c, 5, 74, 96
1, 39672, Note_on_c, 6, 57, 96
1, 39682, Note_off_c, 0, 74, 0
1, 39682, Note_off_c, 1, 74, 0
1, 39682, Note_off_c, 5, 74, 0
1, 39684, Note_on_c, 0, 72, 96
1, 39684, Note_on_c, 1, 72, 96
1, 39684, Note_on_c, 5, 72, 96
1, 39693, Note_off_c, 2, 64, 0
1, 39693, Note_off_c, 3, 57, 0
1, 39693, Note_off_c, 4, 45, 0
1, 39693, Note_off_c, 6, 57, 0
1, 39694, Note_off_c, 0, 72, 0
1, 39694, Note_off_c, 1, 72, 0
1, 39694, Note_off_c, 5, 72, 0
1, 39696, Note_on_c, 0, 74, 96
1, 39696, Note_on_c, 1, 74, 96
1, 39696, Note_on_c, 2, 69, 96
1, 39696, Note_on_c, 3, 53, 96
1, 39696, Note_on_c, 4, 41, 96
1, 39696, Note_on_c, 5, 74, 96
1, 39696, Note_on_c, 6, 53, 96
1, 39706, Note_off_c, 0, 74, 0
1, 39706, Note_off_c, 1, 74, 0
1, 39706, Note_off_c, 2, 69, 0
1, 39706, Note_off_c, 3, 53, 0
1, 39706, Note_off_c, 4, 41, 0
1, 39706, Note_off_c, 5, 74, 0
1, 39706, Note_off_c, 6, 53, 0
1, 39708, Note_on_c, 0, 76, 96
1, 39708, Note_on_c, 1, 76, 96
1, 39708, Note_on_c, 2, 70, 96
1, 39708, Note_on_c, 3, 55, 96
1, 39708, Note_on_c, 4, 43, 96
1, 39708, Note_on_c, 5, 76, 96
1, 39708, Note_on_c, 6, 55, 96
1, 39718, Note_off_c, 0, 76, 0
1, 39718, Note_off_c, 1, 76, 0
1, 39718, Note_off_c, 2, 70, 0
1, 39718, Note_off_c, 3, 55, 0
1, 39718, Note_off_c, 4, 43, 0
1, 39718, Note_off_c, 5, 76, 0
1, 39718, Note_off_c, 6, 55, 0
1, 39720, Note_on_c, 0, 77, 96
1, 39720, Note_on_c, 1, 77, 96
1, 39720, Note_on_c, 2, 72, 96
1, 39720, Note_on_c, 3, 57, 96
1, 39720, Note_on_c, 4, 45, 96
1, 39720, Note_on_c, 5, 77, 96
1, 39720, Note_on_c, 6, 57, 96
1, 39741, Note_off_c, 0, 77, 0
1, 39741, Note_off_c, 1, 77, 0
1, 39741, Note_off_c, 2, 72, 0
1, 39741, Note_off_c, 3, 57, 0
1, 39741, Note_off_c, 4, 45, 0
1, 39741, Note_off_c, 5, 77, 0
1, 39741, Note_off_c, 6, 57, 0
1, 39744, Note_on_c, 0, 77, 96
1, 39744, Note_on_c, 1, 77, 96
1, 39744, Note_on_c, 2, 70, 96
1, 39744, Note_on_c, 3, 55, 96
1, 39744, Note_on_c, 4, 43, 96
1, 39744, Note_on_c, 5, 77, 96
1, 39744, Note_on_c, 6, 55, 96
1, 39754, Note_off_c, 2, 70, 0
1, 39754, Note_off_c, 3, 55, 0
1, 39754, Note_off_c, 4, 43, 0
1, 39754, Note_off_c, 6, 55, 0
1, 39756, Note_on_c, 2, 72, 96
1, 39756, Note_on_c, 3, 57, 96
1, 39756, Note_on_c, 4, 45, 96
1, 39756, Note_on_c, 6, 57, 96
1, 39765, Note_off_c, 0, 77, 0
1, 39765, Note_off_c, 1, 77, 0
1, 39765, Note_off_c, 5, 77, 0
1, 39766, Note_off_c, 2, 72, 0
1, 39766, Note_off_c, 3, 57, 0
1, 39766, Note_off_c, 4, 45, 0
1, 39766, Note_off_c, 6, 57, 0
1, 39768, Note_on_c, 0, 77, 96
1, 39768, Note_on_c, 1, 77, 96
1, 39768, Note_on_c, 2, 74, 96
1, 39768, Note_on_c, 3, 58, 96
1, 39768, Note_on_c, 4, 46, 96
1, 39768, Note_on_c, 5, 77, 96
1, 39768, Note_on_c, 6, 58, 96
1, 39789, Note_off_c, 0, 77, 0
1, 39789, Note_off_c, 1, 77, 0
1, 39789, Note_off_c, 2, 74, 0
1, 39789, Note_off_c, 3, 58, 0
1, 39789, Note_off_c, 4, 46, 0
1, 39789, Note_off_c, 5, 77, 0
1, 39789, Note_off_c, 6, 58, 0
1, 39792, Note_on_c, 0, 77, 96
1, 39792, Note_on_c, 1, 77, 96
1, 39792, Note_on_c, 2, 72, 96
1, 39792, Note_on_c, 3, 57, 96
1, 39792, Note_on_c, 4, 45, 96
1, 39792, Note_on_c, 5, 77, 96
1, 39792, Note_on_c, 6, 57, 96
1, 39802, Note_off_c, 2, 72, 0
1, 39802, Note_off_c, 3, 57, 0
1, 39802, Note_off_c, 4, 45, 0
1, 39802, Note_off_c, 6, 57, 0
1, 39804, Note_on_c, 2, 74, 96
1, 39804, Note_on_c, 3, 58, 96
1, 39804, Note_on_c, 4, 46, 96
1, 39804, Note_on_c, 6, 58, 96
1, 39813, Note_off_c, 0, 77, 0
1, 39813, Note_off_c, 1, 77, 0
1, 39813, Note_off_c, 5, 77, 0
1, 39814, Note_off_c, 2, 74, 0
1, 39814, Note_off_c, 3, 58, 0
1, 39814, Note_off_c, 4, 46, 0
1, 39814, Note_off_c, 6, 58, 0
1, 39816, Note_on_c, 0, 77, 96
1, 39816, Note_on_c, 1, 77, 96
1, 39816, Note_on_c, 2, 67, 96
1, 39816, Note_on_c, 3, 60, 96
1, 39816, Note_on_c, 4, 48, 96
1, 39816, Note_on_c, 5, 77, 96
1, 39816, Note_on_c, 6, 60, 96
1, 39826, Note_off_c, 0, 77, 0
1, 39826, Note_off_c, 1, 77, 0
1, 39826, Note_off_c, 5, 77, 0
1, 39828, Note_on_c, 0, 76, 96
1, 39828, Note_on_c, 1, 76, 96
1, 39828, Note_on_c, 5, 76, 96
1, 39837, Note_off_c, 2, 67, 0
1, 39837, Note_off_c, 3, 60, 0
1, 39837, Note_off_c, 4, 48, 0
1, 39837, Note_off_c, 6, 60, 0
1, 39838, Note_off_c, 0, 76, 0
1, 39838, Note_off_c, 1, 76, 0
1, 39838, Note_off_c, 5, 76, 0
1, 39840, Note_on_c, 0, 77, 96
1, 39840, Note_on_c, 1, 77, 96
1, 39840, Note_on_c, 2, 60, 96
1, 39840, Note_on_c, 3, 57, 96
1, 39840, Note_on_c, 4, 45, 96
1, 39840, Note_on_c, 5, 77, 96
1, 39840, Note_on_c, 6, 57, 96
1, 39850, Note_off_c, 0, 77, 0
1, 39850, Note_off_c, 1, 77, 0
1, 39850, Note_off_c, 2, 60, 0
1, 39850, Note_off_c, 3, 57, 0
1, 39850, Note_off_c, 4, 45, 0
1, 39850, Note_off_c, 5, 77, 0
1, 39850, Note_off_c, 6, 57, 0
1, 39852, Note_on_c, 0, 79, 96
1, 39852, Note_on_c, 1, 79, 96
1, 39852, Note_on_c, 2, 62, 96
1, 39852, Note_on_c, 3, 59, 96
1, 39852, Note_on_c, 4, 47, 96
1, 39852, Note_on_c, 5, 79, 96
1, 39852, Note_on_c, 6, 59, 96
1, 39862, Note_off_c, 0, 79, 0
1, 39862, Note_off_c, 1, 79, 0
1, 39862, Note_off_c, 2, 62, 0
1, 39862, Note_off_c, 3, 59, 0
1, 39862, Note_off_c, 4, 47, 0
1, 39862, Note_off_c, 5, 79, 0
1, 39862, Note_off_c, 6, 59, 0
1, 39864, Note_on_c, 0, 81, 96
1, 39864, Note_on_c, 1, 81, 96
1, 39864, Note_on_c, 2, 64, 96
1, 39864, Note_on_c, 3, 60, 96
1, 39864, Note_on_c, 4, 48, 96
1, 39864, Note_on_c, 5, 81, 96
1, 39864, Note_on_c, 6, 60, 96
1, 39885, Note_off_c, 0, 81, 0
1, 39885, Note_off_c, 1, 81, 0
1, 39885, Note_off_c, 2, 64, 0
1, 39885, Note_off_c, 3, 60, 0
1, 39885, Note_off_c, 4, 48, 0
1, 39885, Note_off_c, 5, 81, 0
1, 39885, Note_off_c, 6, 60, 0
1, 39888, Note_on_c, 0, 81, 96
1, 39888, Note_on_c, 1, 81, 96
1, 39888, Note_on_c, 2, 62, 96
1, 39888, Note_on_c, 3, 59, 96
1, 39888, Note_on_c, 4, 47, 96
1, 39888, Note_on_c, 5, 81, 96
1, 39888, Note_on_c, 6, 59, 96
1, 39898, Note_off_c, 2, 62, 0
1, 39898, Note_off_c, 3, 59, 0
1, 39898, Note_off_c, 4, 47, 0
1, 39898, Note_off_c, 6, 59, 0
1, 39900, Note_on_c, 2, 64, 96
1, 39900, Note_on_c, 3, 60, 96
1, 39900, Note_on_c, 4, 48, 96
1, 39900, Note_on_c, 6, 60, 96
1, 39909, Note_off_c, 0, 81, 0
1, 39909, Note_off_c, 1, 81, 0
1, 39909, Note_off_c, 5, 81, 0
1, 39910, Note_off_c, 2, 64, 0
1, 39910, Note_off_c, 3, 60, 0
1, 39910, Note_off_c, 4, 48, 0
1, 39910, Note_off_c, 6, 60, 0
1, 39912, Note_on_c, 0, 81, 96
1, 39912, Note_on_c, 1, 81, 96
1, 39912, Note_on_c, 2, 65, 96
1, 39912, Note_on_c, 3, 62, 96
1, 39912, Note_on_c, 4, 50, 96
1, 39912, Note_on_c, 5, 81, 96
1, 39912, Note_on_c, 6, 62, 96
1, 39933, Note_off_c, 0, 81, 0
1, 39933, Note_off_c, 1, 81, 0
1, 39933, Note_off_c, 2, 65, 0
1, 39933, Note_off_c, 3, 62, 0
1, 39933, Note_off_c, 4, 50, 0
1, 39933, Note_off_c, 5, 81, 0
1, 39933, Note_off_c, 6, 62, 0
1, 39936, Note_on_c, 0, 81, 96
1, 39936, Note_on_c, 1, 81, 96
1, 39936, Note_on_c, 2, 64, 96
1, 39936, Note_on_c, 3, 60, 96
1, 39936, Note_on_c, 4, 48, 96
1, 39936, Note_on_c, 5, 81, 96
1, 39936, Note_on_c, 6, 60, 96
1, 39946, Note_off_c, 2, 64, 0
1, 39946, Note_off_c, 3, 60, 0
1, 39946, Note_off_c, 4, 48, 0
1, 39946, Note_off_c, 6, 60, 0
1, 39948, Note_on_c, 2, 65, 96
1, 39948, Note_on_c, 3, 62, 96
1, 39948, Note_on_c, 4, 50, 96
1, 39948, Note_on_c, 6, 62, 96
1, 39957, Note_off_c, 0, 81, 0
1, 39957, Note_off_c, 1, 81, 0
1, 39957, Note_off_c, 5, 81, 0
1, 39958, Note_off_c, 2, 65, 0
1, 39958, Note_off_c, 3, 62, 0
1, 39958, Note_off_c, 4, 50, 0
1, 39958, Note_off_c, 6, 62, 0
1, 39960, Note_on_c, 0, 81, 96
1, 39960, Note_on_c, 1, 81, 96
1, 39960, Note_on_c, 2, 59, 96
1, 39960, Note_on_c, 3, 64, 96
1, 39960, Note_on_c, 4, 52, 96
1, 39960, Note_on_c, 5, 81, 96
1, 39960, Note_on_c, 6, 64, 96
1, 39981, Note_off_c, 0, 81, 0
1, 39981, Note_off_c, 1, 81, 0
1, 39981, Note_off_c, 3, 64, 0
1, 39981, Note_off_c, 4, 52, 0
1, 39981, Note_off_c, 5, 81, 0
1, 39981, Note_off_c, 6, 64, 0
1, 39984, Note_on_c, 0, 79, 96
1, 39984, Note_on_c, 1, 79, 96
1, 39984, Note_on_c, 3, 52, 96
1, 39984, Note_on_c, 4, 40, 96
1, 39984, Note_on_c, 5, 79, 96
1, 39984, Note_on_c, 6, 52, 96
1, 39994, Note_off_c, 0, 79, 0
1, 39994, Note_off_c, 1, 79, 0
1, 39994, Note_off_c, 5, 79, 0
1, 39996, Note_on_c, 0, 77, 96
1, 39996, Note_on_c, 1, 77, 96
1, 39996, Note_on_c, 5, 77, 96
1, 40002, Note_off_c, 2, 59, 0
1, 40005, Note_off_c, 3, 52, 0
1, 40005, Note_off_c, 4, 40, 0
1, 40005, Note_off_c, 6, 52, 0
1, 40006, Note_off_c, 0, 77, 0
1, 40006, Note_off_c, 1, 77, 0
1, 40006, Note_off_c, 5, 77, 0
1, 40008, Note_on_c, 0, 79, 96
1, 40008, Note_on_c, 1, 79, 96
1, 40008, Note_on_c, 3, 64, 96
1, 40008, Note_on_c, 4, 52, 96
1, 40008, Note_on_c, 5, 79, 96
1, 40008, Note_on_c, 6, 64, 96
1, 40020, Note_on_c, 2, 59, 96
1, 40029, Note_off_c, 0, 79, 0
1, 40029, Note_off_c, 1, 79, 0
1, 40029, Note_off_c, 3, 64, 0
1, 40029, Note_off_c, 4, 52, 0
1, 40029, Note_off_c, 5, 79, 0
1, 40029, Note_off_c, 6, 64, 0
1, 40030, Note_off_c, 2, 59, 0
1, 40032, Note_on_c, 0, 76, 96
1, 40032, Note_on_c, 1, 76, 96
1, 40032, Note_on_c, 2, 61, 96
1, 40032, Note_on_c, 3, 62, 96
1, 40032, Note_on_c, 4, 50, 96
1, 40032, Note_on_c, 5, 76, 96
1, 40032, Note_on_c, 6, 62, 96
1, 40042, Note_off_c, 0, 76, 0
1, 40042, Note_off_c, 1, 76, 0
1, 40042, Note_off_c, 2, 61, 0
1, 40042, Note_off_c, 5, 76, 0
1, 40044, Note_on_c, 0, 77, 96
1, 40044, Note_on_c, 1, 77, 96
1, 40044, Note_on_c, 2, 62, 96
1, 40044, Note_on_c, 5, 77, 96
1, 40053, Note_off_c, 3, 62, 0
1, 40053, Note_off_c, 4, 50, 0
1, 40053, Note_off_c, 6, 62, 0
1, 40054, Note_off_c, 0, 77, 0
1, 40054, Note_off_c, 1, 77, 0
1, 40054, Note_off_c, 2, 62, 0
1, 40054, Note_off_c, 5, 77, 0
1, 40056, Note_on_c, 0, 79, 96
1, 40056, Note_on_c, 1, 79, 96
1, 40056, Note_on_c, 2, 64, 96
1, 40056, Note_on_c, 3, 61, 96
1, 40056, Note_on_c, 4, 49, 96
1, 40056, Note_on_c, 5, 79, 96
1, 40056, Note_on_c, 6, 61, 96
1, 40066, Note_off_c, 2, 64, 0
1, 40068, Note_on_c, 2, 62, 96
1, 40077, Note_off_c, 0, 79, 0
1, 40077, Note_off_c, 1, 79, 0
1, 40077, Note_off_c, 3, 61, 0
1, 40077, Note_off_c, 4, 49, 0
1, 40077, Note_off_c, 5, 79, 0
1, 40077, Note_off_c, 6, 61, 0
1, 40078, Note_off_c, 2, 62, 0
1, 40080, Note_on_c, 0, 79, 96
1, 40080, Note_on_c, 1, 79, 96
1, 40080, Note_on_c, 2, 61, 96
1, 40080, Note_on_c, 3, 57, 96
1, 40080, Note_on_c, 4, 45, 96
1, 40080, Note_on_c, 5, 79, 96
1, 40080, Note_on_c, 6, 57, 96
1, 40090, Note_off_c, 2, 61, 0
1, 40092, Note_on_c, 2, 59, 96
1, 40101, Note_off_c, 0, 79, 0
1, 40101, Note_off_c, 1, 79, 0
1, 40101, Note_off_c, 3, 57, 0
1, 40101, Note_off_c, 4, 45, 0
1, 40101, Note_off_c, 5, 79, 0
1, 40101, Note_off_c, 6, 57, 0
1, 40102, Note_off_c, 2, 59, 0
1, 40104, Note_on_c, 0, 79, 96
1, 40104, Note_on_c, 1, 79, 96
1, 40104, Note_on_c, 2, 57, 96
1, 40104, Note_on_c, 3, 62, 96
1, 40104, Note_on_c, 4, 50, 96
1, 40104, Note_on_c, 5, 79, 96
1, 40104, Note_on_c, 6, 62, 96
1, 40125, Note_off_c, 0, 79, 0
1, 40125, Note_off_c, 1, 79, 0
1, 40125, Note_off_c, 3, 62, 0
1, 40125, Note_off_c, 4, 50, 0
1, 40125, Note_off_c, 5, 79, 0
1, 40125, Note_off_c, 6, 62, 0
1, 40128, Note_on_c, 0, 77, 96
1, 40128, Note_on_c, 1, 77, 96
1, 40128, Note_on_c, 3, 50, 96
1, 40128, Note_on_c, 4, 38, 96
1, 40128, Note_on_c, 5, 77, 96
1, 40128, Note_on_c, 6, 50, 96
1, 40138, Note_off_c, 0, 77, 0
1, 40138, Note_off_c, 1, 77, 0
1, 40138, Note_off_c, 5, 77, 0
1, 40140, Note_on_c, 0, 76, 96
1, 40140, Note_on_c, 1, 76, 96
1, 40140, Note_on_c, 5, 76, 96
1, 40146, Note_off_c, 2, 57, 0
1, 40149, Note_off_c, 3, 50, 0
1, 40149, Note_off_c, 4, 38, 0
1, 40149, Note_off_c, 6, 50, 0
1, 40150, Note_off_c, 0, 76, 0
1, 40150, Note_off_c, 1, 76, 0
1, 40150, Note_off_c, 5, 76, 0
1, 40152, Note_on_c, 0, 77, 96
1, 40152, Note_on_c, 1, 77, 96
1, 40152, Note_on_c, 3, 62, 96
1, 40152, Note_on_c, 4, 50, 96
1, 40152, Note_on_c, 5, 77, 96
1, 40152, Note_on_c, 6, 62, 96
1, 40173, Note_off_c, 0, 77, 0
1, 40173, Note_off_c, 1, 77, 0
1, 40173, Note_off_c, 3, 62, 0
1, 40173, Note_off_c, 4, 50, 0
1, 40173, Note_off_c, 5, 77, 0
1, 40173, Note_off_c, 6, 62, 0
1, 40176, Note_on_c, 0, 74, 96
1, 40176, Note_on_c, 1, 74, 96
1, 40176, Note_on_c, 2, 65, 96
1, 40176, Note_on_c, 3, 60, 96
1, 40176, Note_on_c, 4, 48, 96
1, 40176, Note_on_c, 5, 74, 96
1, 40176, Note_on_c, 6, 60, 96
1, 40186, Note_off_c, 0, 74, 0
1, 40186, Note_off_c, 1, 74, 0
1, 40186, Note_off_c, 2, 65, 0
1, 40186, Note_off_c, 5, 74, 0
1, 40188, Note_on_c, 0, 76, 96
1, 40188, Note_on_c, 1, 76, 96
1, 40188, Note_on_c, 2, 67, 96
1, 40188, Note_on_c, 5, 76, 96
1, 40197, Note_off_c, 3, 60, 0
1, 40197, Note_off_c, 4, 48, 0
1, 40197, Note_off_c, 6, 60, 0
1, 40198, Note_off_c, 0, 76, 0
1, 40198, Note_off_c, 1, 76, 0
1, 40198, Note_off_c, 2, 67, 0
1, 40198, Note_off_c, 5, 76, 0
1, 40200, Note_on_c, 0, 77, 96
1, 40200, Note_on_c, 1, 77, 96
1, 40200, Note_on_c, 2, 69, 96
1, 40200, Note_on_c, 3, 58, 96
1, 40200, Note_on_c, 4, 46, 96
1, 40200, Note_on_c, 5, 77, 96
1, 40200, Note_on_c, 6, 58, 96
1, 40221, Note_off_c, 0, 77, 0
1, 40221, Note_off_c, 1, 77, 0
1, 40221, Note_off_c, 2, 69, 0
1, 40221, Note_off_c, 3, 58, 0
1, 40221, Note_off_c, 4, 46, 0
1, 40221, Note_off_c, 5, 77, 0
1, 40221, Note_off_c, 6, 58, 0
1, 40224, Note_on_c, 0, 79, 96
1, 40224, Note_on_c, 1, 79, 96
1, 40224, Note_on_c, 2, 62, 96
1, 40224, Note_on_c, 3, 57, 96
1, 40224, Note_on_c, 4, 45, 96
1, 40224, Note_on_c, 5, 79, 96
1, 40224, Note_on_c, 6, 57, 96
1, 40234, Note_off_c, 0, 79, 0
1, 40234, Note_off_c, 1, 79, 0
1, 40234, Note_off_c, 5, 79, 0
1, 40236, Note_on_c, 0, 81, 96
1, 40236, Note_on_c, 1, 81, 96
1, 40236, Note_on_c, 5, 81, 96
1, 40245, Note_off_c, 2, 62, 0
1, 40245, Note_off_c, 3, 57, 0
1, 40245, Note_off_c, 4, 45, 0
1, 40245, Note_off_c, 6, 57, 0
1, 40246, Note_off_c, 0, 81, 0
1, 40246, Note_off_c, 1, 81, 0
1, 40246, Note_off_c, 5, 81, 0
1, 40248, Note_on_c, 0, 82, 96
1, 40248, Note_on_c, 1, 82, 96
1, 40248, Note_on_c, 2, 74, 96
1, 40248, Note_on_c, 3, 55, 96
1, 40248, Note_on_c, 4, 43, 96
1, 40248, Note_on_c, 5, 82, 96
1, 40248, Note_on_c, 6, 55, 96
1, 40269, Note_off_c, 0, 82, 0
1, 40269, Note_off_c, 1, 82, 0
1, 40269, Note_off_c, 2, 74, 0
1, 40269, Note_off_c, 3, 55, 0
1, 40269, Note_off_c, 4, 43, 0
1, 40269, Note_off_c, 5, 82, 0
1, 40269, Note_off_c, 6, 55, 0
1, 40272, Note_on_c, 0, 79, 96
1, 40272, Note_on_c, 1, 79, 96
1, 40272, Note_on_c, 2, 70, 96
1, 40272, Note_on_c, 3, 57, 96
1, 40272, Note_on_c, 4, 45, 96
1, 40272, Note_on_c, 5, 79, 96
1, 40272, Note_on_c, 6, 57, 96
1, 40282, Note_off_c, 0, 79, 0
1, 40282, Note_off_c, 1, 79, 0
1, 40282, Note_off_c, 2, 70, 0
1, 40282, Note_off_c, 3, 57, 0
1, 40282, Note_off_c, 4, 45, 0
1, 40282, Note_off_c, 5, 79, 0
1, 40282, Note_off_c, 6, 57, 0
1, 40284, Note_on_c, 0, 77, 96
1, 40284, Note_on_c, 1, 77, 96
1, 40284, Note_on_c, 2, 69, 96
1, 40284, Note_on_c, 3, 58, 96
1, 40284, Note_on_c, 4, 46, 96
1, 40284, Note_on_c, 5, 77, 96
1, 40284, Note_on_c, 6, 58, 96
1, 40294, Note_off_c, 0, 77, 0
1, 40294, Note_off_c, 1, 77, 0
1, 40294, Note_off_c, 2, 69, 0
1, 40294, Note_off_c, 3, 58, 0
1, 40294, Note_off_c, 4, 46, 0
1, 40294, Note_off_c, 5, 77, 0
1, 40294, Note_off_c, 6, 58, 0
1, 40296, Note_on_c, 0, 76, 96
1, 40296, Note_on_c, 1, 76, 96
1, 40296, Note_on_c, 2, 67, 96
1, 40296, Note_on_c, 3, 60, 96
1, 40296, Note_on_c, 4, 48, 96
1, 40296, Note_on_c, 5, 76, 96
1, 40296, Note_on_c, 6, 60, 96
1, 40317, Note_off_c, 0, 76, 0
1, 40317, Note_off_c, 1, 76, 0
1, 40317, Note_off_c, 2, 67, 0
1, 40317, Note_off_c, 3, 60, 0
1, 40317, Note_off_c, 4, 48, 0
1, 40317, Note_off_c, 5, 76, 0
1, 40317, Note_off_c, 6, 60, 0
1, 40320, Note_on_c, 0, 72, 96
1, 40320, Note_on_c, 1, 72, 96
1, 40320, Note_on_c, 2, 64, 96
1, 40320, Note_on_c, 3, 58, 96
1, 40320, Note_on_c, 4, 46, 96
1, 40320, Note_on_c, 5, 72, 96
1, 40320, Note_on_c, 6, 58, 96
1, 40330, Note_off_c, 0, 72, 0
1, 40330, Note_off_c, 1, 72, 0
1, 40330, Note_off_c, 2, 64, 0
1, 40330, Note_off_c, 5, 72, 0
1, 40332, Note_on_c, 0, 74, 96
1, 40332, Note_on_c, 1, 74, 96
1, 40332, Note_on_c, 2, 65, 96
1, 40332, Note_on_c, 5, 74, 96
1, 40341, Note_off_c, 3, 58, 0
1, 40341, Note_off_c, 4, 46, 0
1, 40341, Note_off_c, 6, 58, 0
1, 40342, Note_off_c, 0, 74, 0
1, 40342, Note_off_c, 1, 74, 0
1, 40342, Note_off_c, 2, 65, 0
1, 40342, Note_off_c, 5, 74, 0
1, 40344, Note_on_c, 0, 76, 96
1, 40344, Note_on_c, 1, 76, 96
1, 40344, Note_on_c, 2, 67, 96
1, 40344, Note_on_c, 3, 57, 96
1, 40344, Note_on_c, 4, 45, 96
1, 40344, Note_on_c, 5, 76, 96
1, 40344, Note_on_c, 6, 57, 96
1, 40365, Note_off_c, 0, 76, 0
1, 40365, Note_off_c, 1, 76, 0
1, 40365, Note_off_c, 2, 67, 0
1, 40365, Note_off_c, 3, 57, 0
1, 40365, Note_off_c, 4, 45, 0
1, 40365, Note_off_c, 5, 76, 0
1, 40365, Note_off_c, 6, 57, 0
1, 40368, Note_on_c, 0, 77, 96
1, 40368, Note_on_c, 1, 77, 96
1, 40368, Note_on_c, 2, 60, 96
1, 40368, Note_on_c, 3, 55, 96
1, 40368, Note_on_c, 4, 43, 96
1, 40368, Note_on_c, 5, 77, 96
1, 40368, Note_on_c, 6, 55, 96
1, 40378, Note_off_c, 0, 77, 0
1, 40378, Note_off_c, 1, 77, 0
1, 40378, Note_off_c, 5, 77, 0
1, 40380, Note_on_c, 0, 79, 96
1, 40380, Note_on_c, 1, 79, 96
1, 40380, Note_on_c, 5, 79, 96
1, 40389, Note_off_c, 2, 60, 0
1, 40389, Note_off_c, 3, 55, 0
1, 40389, Note_off_c, 4, 43, 0
1, 40389, Note_off_c, 6, 55, 0
1, 40390, Note_off_c, 0, 79, 0
1, 40390, Note_off_c, 1, 79, 0
1, 40390, Note_off_c, 5, 79, 0
1, 40392, Note_on_c, 0, 81, 96
1, 40392, Note_on_c, 1, 81, 96
1, 40392, Note_on_c, 2, 72, 96
1, 40392, Note_on_c, 3, 53, 96
1, 40392, Note_on_c, 4, 41, 96
1, 40392, Note_on_c, 5, 81, 96
1, 40392, Note_on_c, 6, 53, 96
1, 40413, Note_off_c, 0, 81, 0
1, 40413, Note_off_c, 1, 81, 0
1, 40413, Note_off_c, 2, 72, 0
1, 40413, Note_off_c, 3, 53, 0
1, 40413, Note_off_c, 4, 41, 0
1, 40413, Note_off_c, 5, 81, 0
1, 40413, Note_off_c, 6, 53, 0
1, 40416, Note_on_c, 0, 77, 96
1, 40416, Note_on_c, 1, 77, 96
1, 40416, Note_on_c, 2, 69, 96
1, 40416, Note_on_c, 3, 55, 96
1, 40416, Note_on_c, 4, 43, 96
1, 40416, Note_on_c, 5, 77, 96
1, 40416, Note_on_c, 6, 55, 96
1, 40426, Note_off_c, 0, 77, 0
1, 40426, Note_off_c, 1, 77, 0
1, 40426, Note_off_c, 2, 69, 0
1, 40426, Note_off_c, 3, 55, 0
1, 40426, Note_off_c, 4, 43, 0
1, 40426, Note_off_c, 5, 77, 0
1, 40426, Note_off_c, 6, 55, 0
1, 40428, Note_on_c, 0, 76, 96
1, 40428, Note_on_c, 1, 76, 96
1, 40428, Note_on_c, 2, 67, 96
1, 40428, Note_on_c, 3, 57, 96
1, 40428, Note_on_c, 4, 45, 96
1, 40428, Note_on_c, 5, 76, 96
1, 40428, Note_on_c, 6, 57, 96
1, 40438, Note_off_c, 0, 76, 0
1, 40438, Note_off_c, 1, 76, 0
1, 40438, Note_off_c, 2, 67, 0
1, 40438, Note_off_c, 3, 57, 0
1, 40438, Note_off_c, 4, 45, 0
1, 40438, Note_off_c, 5, 76, 0
1, 40438, Note_off_c, 6, 57, 0
1, 40440, Note_on_c, 0, 74, 96
1, 40440, Note_on_c, 1, 74, 96
1, 40440, Note_on_c, 2, 65, 96
1, 40440, Note_on_c, 3, 58, 96
1, 40440, Note_on_c, 4, 46, 96
1, 40440, Note_on_c, 5, 74, 96
1, 40440, Note_on_c, 6, 58, 96
1, 40461, Note_off_c, 0, 74, 0
1, 40461, Note_off_c, 1, 74, 0
1, 40461, Note_off_c, 2, 65, 0
1, 40461, Note_off_c, 3, 58, 0
1, 40461, Note_off_c, 4, 46, 0
1, 40461, Note_off_c, 5, 74, 0
1, 40461, Note_off_c, 6, 58, 0
1, 40464, Note_on_c, 0, 86, 96
1, 40464, Note_on_c, 1, 86, 96
1, 40464, Note_on_c, 2, 65, 96
1, 40464, Note_on_c, 3, 57, 96
1, 40464, Note_on_c, 4, 45, 96
1, 40464, Note_on_c, 5, 86, 96
1, 40464, Note_on_c, 6, 57, 96
1, 40474, Note_off_c, 0, 86, 0
1, 40474, Note_off_c, 1, 86, 0
1, 40474, Note_off_c, 5, 86, 0
1, 40476, Note_on_c, 0, 85, 96
1, 40476, Note_on_c, 1, 85, 96
1, 40476, Note_on_c, 5, 85, 96
1, 40485, Note_off_c, 2, 65, 0
1, 40485, Note_off_c, 3, 57, 0
1, 40485, Note_off_c, 4, 45, 0
1, 40485, Note_off_c, 6, 57, 0
1, 40486, Note_off_c, 0, 85, 0
1, 40486, Note_off_c, 1, 85, 0
1, 40486, Note_off_c, 5, 85, 0
1, 40488, Note_on_c, 0, 86, 96
1, 40488, Note_on_c, 1, 86, 96
1, 40488, Note_on_c, 2, 70, 96
1, 40488, Note_on_c, 3, 55, 96
1, 40488, Note_on_c, 4, 43, 96
1, 40488, Note_on_c, 5, 86, 96
1, 40488, Note_on_c, 6, 55, 96
1, 40509, Note_off_c, 0, 86, 0
1, 40509, Note_off_c, 1, 86, 0
1, 40509, Note_off_c, 2, 70, 0
1, 40509, Note_off_c, 3, 55, 0
1, 40509, Note_off_c, 4, 43, 0
1, 40509, Note_off_c, 5, 86, 0
1, 40509, Note_off_c, 6, 55, 0
1, 40512, Note_on_c, 0, 82, 96
1, 40512, Note_on_c, 1, 82, 96
1, 40512, Note_on_c, 2, 74, 96
1, 40512, Note_on_c, 3, 53, 96
1, 40512, Note_on_c, 4, 41, 96
1, 40512, Note_on_c, 5, 82, 96
1, 40512, Note_on_c, 6, 53, 96
1, 40533, Note_off_c, 0, 82, 0
1, 40533, Note_off_c, 1, 82, 0
1, 40533, Note_off_c, 2, 74, 0
1, 40533, Note_off_c, 3, 53, 0
1, 40533, Note_off_c, 4, 41, 0
1, 40533, Note_off_c, 5, 82, 0
1, 40533, Note_off_c, 6, 53, 0
1, 40536, Note_on_c, 0, 79, 96
1, 40536, Note_on_c, 1, 79, 96
1, 40536, Note_on_c, 2, 70, 96
1, 40536, Note_on_c, 3, 52, 96
1, 40536, Note_on_c, 4, 40, 96
1, 40536, Note_on_c, 5, 79, 96
1, 40536, Note_on_c, 6, 52, 96
1, 40557, Note_off_c, 3, 52, 0
1, 40557, Note_off_c, 4, 40, 0
1, 40557, Note_off_c, 6, 52, 0
1, 40560, Note_off_c, 0, 79, 0
1, 40560, Note_on_c, 0, 78, 96
1, 40560, Note_off_c, 1, 79, 0
1, 40560, Note_on_c, 1, 78, 96
1, 40560, Note_on_c, 3, 50, 96
1, 40560, Note_on_c, 4, 38, 96
1, 40560, Note_off_c, 5, 79, 0
1, 40560, Note_on_c, 5, 78, 96
1, 40560, Note_on_c, 6, 50, 96
1, 40578, Note_off_c, 2, 70, 0
1, 40581, Note_off_c, 3, 50, 0
1, 40581, Note_off_c, 4, 38, 0
1, 40581, Note_off_c, 6, 50, 0
1, 40584, Note_off_c, 0, 78, 0
1, 40584, Note_on_c, 0, 79, 96
1, 40584, Note_off_c, 1, 78, 0
1, 40584, Note_on_c, 1, 79, 96
1, 40584, Note_on_c, 3, 49, 96
1, 40584, Note_on_c, 4, 37, 96
1, 40584, Note_off_c, 5, 78, 0
1, 40584, Note_on_c, 5, 79, 96
1, 40584, Note_on_c, 6, 49, 96
1, 40605, Note_off_c, 0, 79, 0
1, 40605, Note_off_c, 1, 79, 0
1, 40605, Note_off_c, 3, 49, 0
1, 40605, Note_off_c, 4, 37, 0
1, 40605, Note_off_c, 5, 79, 0
1, 40605, Note_off_c, 6, 49, 0
1, 40608, Note_on_c, 0, 82, 96
1, 40608, Note_on_c, 1, 82, 96
1, 40608, Note_on_c, 2, 67, 96
1, 40608, Note_on_c, 3, 50, 96
1, 40608, Note_on_c, 4, 38, 96
1, 40608, Note_on_c, 5, 82, 96
1, 40608, Note_on_c, 6, 50, 96
1, 40618, Note_off_c, 0, 82, 0
1, 40618, Note_off_c, 1, 82, 0
1, 40618, Note_off_c, 5, 82, 0
1, 40620, Note_on_c, 0, 81, 96
1, 40620, Note_on_c, 1, 81, 96
1, 40620, Note_off_c, 2, 67, 0
1, 40620, Note_on_c, 2, 65, 96
1, 40620, Note_on_c, 5, 81, 96
1, 40629, Note_off_c, 3, 50, 0
1, 40629, Note_off_c, 4, 38, 0
1, 40629, Note_off_c, 6, 50, 0
1, 40630, Note_off_c, 0, 81, 0
1, 40630, Note_off_c, 1, 81, 0
1, 40630, Note_off_c, 5, 81, 0
1, 40632, Note_on_c, 0, 82, 96
1, 40632, Note_on_c, 1, 82, 96
1, 40632, Note_off_c, 2, 65, 0
1, 40632, Note_on_c, 2, 67, 96
1, 40632, Note_on_c, 3, 52, 96
1, 40632, Note_on_c, 4, 40, 96
1, 40632, Note_on_c, 5, 82, 96
1, 40632, Note_on_c, 6, 52, 96
1, 40653, Note_off_c, 0, 82, 0
1, 40653, Note_off_c, 1, 82, 0
1, 40653, Note_off_c, 2, 67, 0
1, 40653, Note_off_c, 3, 52, 0
1, 40653, Note_off_c, 4, 40, 0
1, 40653, Note_off_c, 5, 82, 0
1, 40653, Note_off_c, 6, 52, 0
1, 40656, Note_on_c, 0, 79, 96
1, 40656, Note_on_c, 1, 79, 96
1, 40656, Note_on_c, 2, 70, 96
1, 40656, Note_on_c, 3, 53, 96
1, 40656, Note_on_c, 4, 41, 96
1, 40656, Note_on_c, 5, 79, 96
1, 40656, Note_on_c, 6, 53, 96
1, 40668, Note_off_c, 2, 70, 0
1, 40668, Note_on_c, 2, 69, 96
1, 40677, Note_off_c, 0, 79, 0
1, 40677, Note_off_c, 1, 79, 0
1, 40677, Note_off_c, 3, 53, 0
1, 40677, Note_off_c, 4, 41, 0
1, 40677, Note_off_c, 5, 79, 0
1, 40677, Note_off_c, 6, 53, 0
1, 40680, Note_on_c, 0, 75, 96
1, 40680, Note_on_c, 1, 75, 96
1, 40680, Note_off_c, 2, 69, 0
1, 40680, Note_on_c, 2, 70, 96
1, 40680, Note_on_c, 3, 55, 96
1, 40680, Note_on_c, 4, 43, 96
1, 40680, Note_on_c, 5, 75, 96
1, 40680, Note_on_c, 6, 55, 96
1, 40701, Note_off_c, 2, 70, 0
1, 40701, Note_off_c, 3, 55, 0
1, 40701, Note_off_c, 4, 43, 0
1, 40701, Note_off_c, 6, 55, 0
1, 40704, Note_off_c, 0, 75, 0
1, 40704, Note_on_c, 0, 74, 96
1, 40704, Note_off_c, 1, 75, 0
1, 40704, Note_on_c, 1, 74, 96
1, 40704, Note_on_c, 2, 69, 96
1, 40704, Note_on_c, 3, 53, 96
1, 40704, Note_on_c, 4, 41, 96
1, 40704, Note_off_c, 5, 75, 0
1, 40704, Note_on_c, 5, 74, 96
1, 40704, Note_on_c, 6, 53, 96
1, 40725, Note_off_c, 2, 69, 0
1, 40725, Note_off_c, 3, 53, 0
1, 40725, Note_off_c, 4, 41, 0
1, 40725, Note_off_c, 6, 53, 0
1, 40728, Note_off_c, 0, 74, 0
1, 40728, Note_on_c, 0, 75, 96
1, 40728, Note_off_c, 1, 74, 0
1, 40728, Note_on_c, 1, 75, 96
1, 40728, Note_on_c, 2, 70, 96
1, 40728, Note_on_c, 3, 55, 96
1, 40728, Note_on_c, 4, 43, 96
1, 40728, Note_off_c, 5, 74, 0
1, 40728, Note_on_c, 5, 75, 96
1, 40728, Note_on_c, 6, 55, 96
1, 40749, Note_off_c, 0, 75, 0
1, 40749, Note_off_c, 1, 75, 0
1, 40749, Note_off_c, 2, 70, 0
1, 40749, Note_off_c, 3, 55, 0
1, 40749, Note_off_c, 4, 43, 0
1, 40749, Note_off_c, 5, 75, 0
1, 40749, Note_off_c, 6, 55, 0
1, 40752, Note_on_c, 0, 79, 96
1, 40752, Note_on_c, 1, 79, 96
1, 40752, Note_on_c, 2, 72, 96
1, 40752, Note_on_c, 3, 57, 96
1, 40752, Note_on_c, 4, 45, 96
1, 40752, Note_on_c, 5, 79, 96
1, 40752, Note_on_c, 6, 57, 96
1, 40762, Note_off_c, 0, 79, 0
1, 40762, Note_off_c, 1, 79, 0
1, 40762, Note_off_c, 5, 79, 0
1, 40764, Note_on_c, 0, 78, 96
1, 40764, Note_on_c, 1, 78, 96
1, 40764, Note_on_c, 5, 78, 96
1, 40773, Note_off_c, 2, 72, 0
1, 40773, Note_off_c, 3, 57, 0
1, 40773, Note_off_c, 4, 45, 0
1, 40773, Note_off_c, 6, 57, 0
1, 40774, Note_off_c, 0, 78, 0
1, 40774, Note_off_c, 1, 78, 0
1, 40774, Note_off_c, 5, 78, 0
1, 40776, Note_on_c, 0, 79, 96
1, 40776, Note_on_c, 1, 79, 96
1, 40776, Note_on_c, 2, 74, 96
1, 40776, Note_on_c, 3, 58, 96
1, 40776, Note_on_c, 4, 46, 96
1, 40776, Note_on_c, 5, 79, 96
1, 40776, Note_on_c, 6, 58, 96
1, 40797, Note_off_c, 0, 79, 0
1, 40797, Note_off_c, 1, 79, 0
1, 40797, Note_off_c, 2, 74, 0
1, 40797, Note_off_c, 3, 58, 0
1, 40797, Note_off_c, 4, 46, 0
1, 40797, Note_off_c, 5, 79, 0
1, 40797, Note_off_c, 6, 58, 0
1, 40800, Note_on_c, 0, 75, 96
1, 40800, Note_on_c, 1, 75, 96
1, 40800, Note_on_c, 2, 70, 96
1, 40800, Note_on_c, 3, 55, 96
1, 40800, Note_on_c, 4, 43, 96
1, 40800, Note_on_c, 5, 75, 96
1, 40800, Note_on_c, 6, 55, 96
1, 40821, Note_off_c, 0, 75, 0
1, 40821, Note_off_c, 1, 75, 0
1, 40821, Note_off_c, 2, 70, 0
1, 40821, Note_off_c, 3, 55, 0
1, 40821, Note_off_c, 4, 43, 0
1, 40821, Note_off_c, 5, 75, 0
1, 40821, Note_off_c, 6, 55, 0
1, 40824, Note_on_c, 0, 73, 96
1, 40824, Note_on_c, 1, 73, 96
1, 40824, Note_on_c, 2, 64, 96
1, 40824, Note_on_c, 3, 57, 96
1, 40824, Note_on_c, 4, 45, 96
1, 40824, Note_on_c, 5, 73, 96
1, 40824, Note_on_c, 6, 57, 96
1, 40845, Note_off_c, 0, 73, 0
1, 40845, Note_off_c, 1, 73, 0
1, 40845, Note_off_c, 2, 64, 0
1, 40845, Note_off_c, 5, 73, 0
1, 40848, Note_on_c, 0, 82, 96
1, 40848, Note_on_c, 1, 82, 96
1, 40848, Note_on_c, 2, 73, 96
1, 40848, Note_on_c, 5, 82, 96
1, 40860, Note_off_c, 0, 82, 0
1, 40860, Note_on_c, 0, 81, 96
1, 40860, Note_off_c, 1, 82, 0
1, 40860, Note_on_c, 1, 81, 96
1, 40860, Note_off_c, 5, 82, 0
1, 40860, Note_on_c, 5, 81, 96
1, 40866, Note_off_c, 3, 57, 0
1, 40866, Note_off_c, 4, 45, 0
1, 40866, Note_off_c, 6, 57, 0
1, 40869, Note_off_c, 2, 73, 0
1, 40872, Note_off_c, 0, 81, 0
1, 40872, Note_on_c, 0, 82, 96
1, 40872, Note_off_c, 1, 81, 0
1, 40872, Note_on_c, 1, 82, 96
1, 40872, Note_on_c, 2, 73, 96
1, 40872, Note_off_c, 5, 81, 0
1, 40872, Note_on_c, 5, 82, 96
1, 40893, Note_off_c, 0, 82, 0
1, 40893, Note_off_c, 1, 82, 0
1, 40893, Note_off_c, 2, 73, 0
1, 40893, Note_off_c, 5, 82, 0
1, 40896, Note_on_c, 0, 79, 96
1, 40896, Note_on_c, 1, 79, 96
1, 40896, Note_on_c, 2, 73, 96
1, 40896, Note_on_c, 5, 79, 96
1, 40908, Note_off_c, 0, 79, 0
1, 40908, Note_on_c, 0, 78, 96
1, 40908, Note_off_c, 1, 79, 0
1, 40908, Note_on_c, 1, 78, 96
1, 40908, Note_off_c, 5, 79, 0
1, 40908, Note_on_c, 5, 78, 96
1, 40917, Note_off_c, 2, 73, 0
1, 40920, Note_off_c, 0, 78, 0
1, 40920, Note_on_c, 0, 79, 96
1, 40920, Note_off_c, 1, 78, 0
1, 40920, Note_on_c, 1, 79, 96
1, 40920, Note_on_c, 2, 73, 96
1, 40920, Note_off_c, 5, 78, 0
1, 40920, Note_on_c, 5, 79, 96
1, 40941, Note_off_c, 0, 79, 0
1, 40941, Note_off_c, 1, 79, 0
1, 40941, Note_off_c, 2, 73, 0
1, 40941, Note_off_c, 5, 79, 0
1, 40944, Note_on_c, 0, 73, 96
1, 40944, Note_on_c, 1, 73, 96
1, 40944, Note_on_c, 2, 64, 96
1, 40944, Note_on_c, 3, 55, 96
1, 40944, Note_on_c, 4, 43, 96
1, 40944, Note_on_c, 5, 73, 96
1, 40944, Note_on_c, 6, 55, 96
1, 40965, Note_off_c, 0, 73, 0
1, 40965, Note_off_c, 1, 73, 0
1, 40965, Note_off_c, 2, 64, 0
1, 40965, Note_off_c, 3, 55, 0
1, 40965, Note_off_c, 4, 43, 0
1, 40965, Note_off_c, 5, 73, 0
1, 40965, Note_off_c, 6, 55, 0
1, 40968, Note_on_c, 0, 74, 96
1, 40968, Note_on_c, 1, 74, 96
1, 40968, Note_on_c, 2, 69, 96
1, 40968, Note_on_c, 3, 53, 96
1, 40968, Note_on_c, 4, 41, 96
1, 40968, Note_on_c, 5, 74, 96
1, 40968, Note_on_c, 6, 53, 96
1, 40989, Note_off_c, 0, 74, 0
1, 40989, Note_off_c, 1, 74, 0
1, 40989, Note_off_c, 2, 69, 0
1, 40989, Note_off_c, 3, 53, 0
1, 40989, Note_off_c, 4, 41, 0
1, 40989, Note_off_c, 5, 74, 0
1, 40989, Note_off_c, 6, 53, 0
1, 40992, Note_on_c, 0, 65, 96
1, 40992, Note_on_c, 1, 65, 96
1, 40992, Note_on_c, 2, 65, 96
1, 40992, Note_on_c, 3, 52, 96
1, 40992, Note_on_c, 4, 40, 96
1, 40992, Note_on_c, 5, 65, 96
1, 40992, Note_on_c, 6, 52, 96
1, 41002, Note_off_c, 3, 52, 0
1, 41002, Note_off_c, 4, 40, 0
1, 41002, Note_off_c, 6, 52, 0
1, 41004, Note_on_c, 3, 50, 96
1, 41004, Note_on_c, 4, 38, 96
1, 41004, Note_on_c, 6, 50, 96
1, 41013, Note_off_c, 0, 65, 0
1, 41013, Note_off_c, 1, 65, 0
1, 41013, Note_off_c, 2, 65, 0
1, 41013, Note_off_c, 5, 65, 0
1, 41014, Note_off_c, 3, 50, 0
1, 41014, Note_off_c, 4, 38, 0
1, 41014, Note_off_c, 6, 50, 0
1, 41016, Note_on_c, 0, 67, 96
1, 41016, Note_on_c, 1, 67, 96
1, 41016, Note_on_c, 2, 62, 96
1, 41016, Note_on_c, 3, 58, 96
1, 41016, Note_on_c, 4, 46, 96
1, 41016, Note_on_c, 5, 67, 96
1, 41016, Note_on_c, 5, 64, 96
1, 41016, Note_on_c, 6, 58, 96
1, 41037, Note_off_c, 0, 67, 0
1, 41037, Note_off_c, 1, 67, 0
1, 41037, Note_off_c, 2, 62, 0
1, 41037, Note_off_c, 3, 58, 0
1, 41037, Note_off_c, 4, 46, 0
1, 41037, Note_off_c, 5, 67, 0
1, 41037, Note_off_c, 5, 64, 0
1, 41037, Note_off_c, 6, 58, 0
1, 41040, Note_on_c, 0, 74, 96
1, 41040, Note_on_c, 1, 74, 96
1, 41040, Note_on_c, 2, 67, 96
1, 41040, Note_on_c, 3, 57, 96
1, 41040, Note_on_c, 4, 45, 96
1, 41040, Note_on_c, 5, 74, 96
1, 41040, Note_on_c, 6, 57, 96
1, 41050, Note_off_c, 3, 57, 0
1, 41050, Note_off_c, 4, 45, 0
1, 41050, Note_off_c, 6, 57, 0
1, 41052, Note_on_c, 3, 55, 96
1, 41052, Note_on_c, 4, 43, 96
1, 41052, Note_on_c, 6, 55, 96
1, 41061, Note_off_c, 0, 74, 0
1, 41061, Note_off_c, 1, 74, 0
1, 41061, Note_off_c, 2, 67, 0
1, 41061, Note_off_c, 5, 74, 0
1, 41062, Note_off_c, 3, 55, 0
1, 41062, Note_off_c, 4, 43, 0
1, 41062, Note_off_c, 6, 55, 0
1, 41064, Note_on_c, 0, 69, 96
1, 41064, Note_on_c, 1, 69, 96
1, 41064, Note_on_c, 2, 64, 96
1, 41064, Note_on_c, 3, 57, 96
1, 41064, Note_on_c, 4, 45, 96
1, 41064, Note_on_c, 5, 69, 96
1, 41064, Note_on_c, 5, 67, 96
1, 41064, Note_on_c, 5, 64, 96
1, 41064, Note_on_c, 6, 57, 96
1, 41085, Note_off_c, 0, 69, 0
1, 41085, Note_off_c, 1, 69, 0
1, 41085, Note_off_c, 2, 64, 0
1, 41085, Note_off_c, 3, 57, 0
1, 41085, Note_off_c, 4, 45, 0
1, 41085, Note_off_c, 5, 69, 0
1, 41085, Note_off_c, 5, 67, 0
1, 41085, Note_off_c, 5, 64, 0
1, 41085, Note_off_c, 6, 57, 0
1, 41088, Note_on_c, 0, 73, 96
1, 41088, Note_on_c, 1, 73, 96
1, 41088, Note_on_c, 2, 69, 96
1, 41088, Note_on_c, 3, 45, 96
1, 41088, Note_on_c, 4, 33, 96
1, 41088, Note_on_c, 5, 73, 96
1, 41088, Note_on_c, 6, 45, 96
1, 41109, Note_off_c, 0, 73, 0
1, 41109, Note_off_c, 1, 73, 0
1, 41109, Note_off_c, 2, 69, 0
1, 41109, Note_off_c, 3, 45, 0
1, 41109, Note_off_c, 4, 33, 0
1, 41109, Note_off_c, 5, 73, 0
1, 41109, Note_off_c, 6, 45, 0
1, 41112, Note_on_c, 0, 74, 96
1, 41112, Note_on_c, 1, 74, 96
1, 41112, Note_on_c, 2, 65, 96
1, 41112, Note_on_c, 3, 50, 96
1, 41112, Note_on_c, 4, 38, 96
1, 41112, Note_on_c, 5, 74, 96
1, 41112, Note_on_c, 5, 69, 96
1, 41112, Note_on_c, 5, 65, 96
1, 41112, Note_on_c, 5, 62, 96
1, 41112, Note_on_c, 6, 50, 96
1, 41112, Note_on_c, 6, 45, 96
1, 41112, Note_on_c, 6, 38, 96
1, 41160, Note_off_c, 0, 74, 0
1, 41160, Note_off_c, 1, 74, 0
1, 41160, Note_off_c, 2, 65, 0
1, 41160, Note_off_c, 3, 50, 0
1, 41160, Note_off_c, 4, 38, 0
1, 41160, Note_off_c, 5, 74, 0
1, 41160, Note_off_c, 5, 69, 0
1, 41160, Note_off_c, 5, 65, 0
1, 41160, Note_off_c, 5, 62, 0
1, 41160, Note_off_c, 6, 50, 0
1, 41160, Note_off_c, 6, 45, 0
1, 41160, Note_off_c, 6, 38, 0
1, 41400, End_track
0, 0, End_of_file
