0, 0, Header, 1, 5, 1024
1, 0, Start_track
1, 0, Time_signature, 4, 2, 24, 8
1, 0, Key_signature, 2, "major"
1, 0, Tempo, 625000
1, 45056, End_track
2, 0, Start_track
2, 0, Title_t, "Instrument 1"
2, 0, Note_on_c, 0, 74, 96
2, 2048, Note_off_c, 0, 74, 0
2, 2048, Note_on_c, 0, 73, 96
2, 3072, Note_off_c, 0, 73, 0
2, 3328, Note_on_c, 0, 71, 96
2, 3584, Note_off_c, 0, 71, 0
2, 3584, Note_on_c, 0, 73, 96
2, 3840, Note_off_c, 0, 73, 0
2, 3840, Note_on_c, 0, 74, 96
2, 4096, Note_off_c, 0, 74, 0
2, 4096, Note_on_c, 0, 73, 96
2, 5120, Note_off_c, 0, 73, 0
2, 5120, Note_on_c, 0, 69, 96
2, 6144, Note_off_c, 0, 69, 0
2, 6144, Note_on_c, 0, 71, 96
2, 7168, Note_off_c, 0, 71, 0
2, 7168, Note_on_c, 0, 73, 96
2, 8192, Note_off_c, 0, 73, 0
2, 8192, Note_on_c, 0, 74, 96
2, 10240, Note_off_c, 0, 74, 0
2, 10240, Note_on_c, 0, 74, 96
2, 12288, Note_off_c, 0, 74, 0
2, 12288, Note_on_c, 0, 74, 96
2, 13312, Note_off_c, 0, 74, 0
2, 13312, Note_on_c, 0, 69, 96
2, 14592, Note_off_c, 0, 69, 0
2, 14592, Note_on_c, 0, 71, 96
2, 14848, Note_off_c, 0, 71, 0
2, 14848, Note_on_c, 0, 69, 96
2, 15104, Note_off_c, 0, 69, 0
2, 15104, Note_on_c, 0, 67, 96
2, 15360, Note_off_c, 0, 67, 0
2, 15360, Note_on_c, 0, 66, 96
2, 16384, Note_off_c, 0, 66, 0
2, 16384, Note_on_c, 0, 69, 96
2, 17408, Note_off_c, 0, 69, 0
2, 17408, Note_on_c, 0, 67, 96
2, 18432, Note_off_c, 0, 67, 0
2, 18432, Note_on_c, 0, 66, 96
2, 20480, Note_off_c, 0, 66, 0
2, 20480, Note_on_c, 0, 66, 96
2, 21760, Note_off_c, 0, 66, 0
2, 21760, Note_on_c, 0, 66, 96
2, 22016, Note_off_c, 0, 66, 0
2, 22016, Note_on_c, 0, 67, 96
2, 22272, Note_off_c, 0, 67, 0
2, 22272, Note_on_c, 0, 69, 96
2, 22528, Note_off_c, 0, 69, 0
2, 22528, Note_on_c, 0, 71, 96
2, 23808, Note_off_c, 0, 71, 0
2, 23808, Note_on_c, 0, 74, 96
2, 24064, Note_off_c, 0, 74, 0
2, 24064, Note_on_c, 0, 73, 96
2, 24320, Note_off_c, 0, 73, 0
2, 24320, Note_on_c, 0, 71, 96
2, 24576, Note_off_c, 0, 71, 0
2, 24576, Note_on_c, 0, 69, 96
2, 25344, Note_off_c, 0, 69, 0
2, 25344, Note_on_c, 0, 71, 96
2, 25600, Note_off_c, 0, 71, 0
2, 25600, Note_on_c, 0, 73, 96
2, 26624, Note_off_c, 0, 73, 0
2, 26624, Note_on_c, 0, 74, 96
2, 27136, Note_off_c, 0, 74, 0
2, 27136, Note_on_c, 0, 73, 96
2, 27648, Note_off_c, 0, 73, 0
2, 27648, Note_on_c, 0, 71, 96
2, 28672, Note_off_c, 0, 71, 0
2, 28672, Note_on_c, 0, 69, 96
2, 30720, Note_off_c, 0, 69, 0
2, 30720, Note_on_c, 0, 74, 96
2, 32768, Note_off_c, 0, 74, 0
2, 32768, Note_on_c, 0, 73, 96
2, 33792, Note_off_c, 0, 73, 0
2, 33792, Note_on_c, 0, 71, 96
2, 34816, Note_off_c, 0, 71, 0
2, 34816, Note_on_c, 0, 69, 96
2, 35840, Note_off_c, 0, 69, 0
2, 35840, Note_on_c, 0, 71, 96
2, 36608, Note_off_c, 0, 71, 0
2, 36608, Note_on_c, 0, 69, 96
2, 36864, Note_off_c, 0, 69, 0
2, 36864, Note_on_c, 0, 67, 96
2, 37120, Note_off_c, 0, 67, 0
2, 37120, Note_on_c, 0, 69, 96
2, 37376, Note_off_c, 0, 69, 0
2, 37376, Note_on_c, 0, 67, 96
2, 37632, Note_off_c, 0, 67, 0
2, 37632, Note_on_c, 0, 66, 96
2, 37888, Note_off_c, 0, 66, 0
2, 37888, Note_on_c, 0, 64, 96
2, 38912, Note_off_c, 0, 64, 0
2, 38912, Note_on_c, 0, 62, 96
2, 45056, Note_off_c, 0, 62, 0
2, 45056, End_track
3, 0, Start_track
3, 0, Title_t, "Instrument 2"
3, 256, Note_on_c, 1, 66, 96
3, 512, Note_off_c, 1, 66, 0
3, 512, Note_on_c, 1, 68, 96
3, 768, Note_off_c, 1, 68, 0
3, 768, Note_on_c, 1, 69, 96
3, 1024, Note_off_c, 1, 69, 0
3, 1024, Note_on_c, 1, 68, 96
3, 2048, Note_off_c, 1, 68, 0
3, 2048, Note_on_c, 1, 69, 96
3, 3584, Note_off_c, 1, 69, 0
3, 3584, Note_on_c, 1, 67, 96
3, 4352, Note_off_c, 1, 67, 0
3, 4352, Note_on_c, 1, 71, 96
3, 4608, Note_off_c, 1, 71, 0
3, 4608, Note_on_c, 1, 69, 96
3, 4864, Note_off_c, 1, 69, 0
3, 4864, Note_on_c, 1, 67, 96
3, 5120, Note_off_c, 1, 67, 0
3, 5120, Note_on_c, 1, 66, 96
3, 6400, Note_off_c, 1, 66, 0
3, 6400, Note_on_c, 1, 69, 96
3, 6656, Note_off_c, 1, 69, 0
3, 6656, Note_on_c, 1, 67, 96
3, 6912, Note_off_c, 1, 67, 0
3, 6912, Note_on_c, 1, 66, 96
3, 7168, Note_off_c, 1, 66, 0
3, 7168, Note_on_c, 1, 64, 96
3, 7424, Note_off_c, 1, 64, 0
3, 7424, Note_on_c, 1, 67, 96
3, 7680, Note_off_c, 1, 67, 0
3, 7680, Note_on_c, 1, 66, 96
3, 7936, Note_off_c, 1, 66, 0
3, 7936, Note_on_c, 1, 64, 96
3, 8192, Note_off_c, 1, 64, 0
3, 8192, Note_on_c, 1, 62, 96
3, 8448, Note_off_c, 1, 62, 0
3, 8448, Note_on_c, 1, 57, 96
3, 8704, Note_off_c, 1, 57, 0
3, 8704, Note_on_c, 1, 59, 96
3, 8960, Note_off_c, 1, 59, 0
3, 8960, Note_on_c, 1, 61, 96
3, 9216, Note_off_c, 1, 61, 0
3, 9216, Note_on_c, 1, 62, 96
3, 9472, Note_off_c, 1, 62, 0
3, 9472, Note_on_c, 1, 61, 96
3, 9728, Note_off_c, 1, 61, 0
3, 9728, Note_on_c, 1, 62, 96
3, 9984, Note_off_c, 1, 62, 0
3, 9984, Note_on_c, 1, 64, 96
3, 10240, Note_off_c, 1, 64, 0
3, 10240, Note_on_c, 1, 66, 96
3, 10496, Note_off_c, 1, 66, 0
3, 10496, Note_on_c, 1, 61, 96
3, 10752, Note_off_c, 1, 61, 0
3, 10752, Note_on_c, 1, 62, 96
3, 11008, Note_off_c, 1, 62, 0
3, 11008, Note_on_c, 1, 64, 96
3, 11264, Note_off_c, 1, 64, 0
3, 11264, Note_on_c, 1, 66, 96
3, 11520, Note_off_c, 1, 66, 0
3, 11520, Note_on_c, 1, 64, 96
3, 11776, Note_off_c, 1, 64, 0
3, 11776, Note_on_c, 1, 66, 96
3, 12032, Note_off_c, 1, 66, 0
3, 12032, Note_on_c, 1, 67, 96
3, 12288, Note_off_c, 1, 67, 0
3, 12288, Note_on_c, 1, 69, 96
3, 12544, Note_off_c, 1, 69, 0
3, 12544, Note_on_c, 1, 71, 96
3, 12800, Note_off_c, 1, 71, 0
3, 12800, Note_on_c, 1, 69, 96
3, 13056, Note_off_c, 1, 69, 0
3, 13056, Note_on_c, 1, 67, 96
3, 13312, Note_off_c, 1, 67, 0
3, 13312, Note_on_c, 1, 66, 96
3, 13568, Note_off_c, 1, 66, 0
3, 13568, Note_on_c, 1, 64, 96
3, 13824, Note_off_c, 1, 64, 0
3, 13824, Note_on_c, 1, 66, 96
3, 14080, Note_off_c, 1, 66, 0
3, 14080, Note_on_c, 1, 67, 96
3, 14336, Note_off_c, 1, 67, 0
3, 14336, Note_on_c, 1, 64, 96
3, 15616, Note_off_c, 1, 64, 0
3, 15616, Note_on_c, 1, 61, 96
3, 15872, Note_off_c, 1, 61, 0
3, 15872, Note_on_c, 1, 62, 96
3, 16128, Note_off_c, 1, 62, 0
3, 16128, Note_on_c, 1, 64, 96
3, 16384, Note_off_c, 1, 64, 0
3, 16384, Note_on_c, 1, 61, 96
3, 16896, Note_off_c, 1, 61, 0
3, 16896, Note_on_c, 1, 63, 96
3, 17408, Note_off_c, 1, 63, 0
3, 17664, Note_on_c, 1, 64, 96
3, 17920, Note_off_c, 1, 64, 0
3, 17920, Note_on_c, 1, 63, 96
3, 18176, Note_off_c, 1, 63, 0
3, 18176, Note_on_c, 1, 61, 96
3, 18432, Note_off_c, 1, 61, 0
3, 18432, Note_on_c, 1, 63, 96
3, 18688, Note_off_c, 1, 63, 0
3, 18688, Note_on_c, 1, 71, 96
3, 18944, Note_off_c, 1, 71, 0
3, 18944, Note_on_c, 1, 69, 96
3, 19200, Note_off_c, 1, 69, 0
3, 19200, Note_on_c, 1, 67, 96
3, 19456, Note_off_c, 1, 67, 0
3, 19456, Note_on_c, 1, 66, 96
3, 19712, Note_off_c, 1, 66, 0
3, 19712, Note_on_c, 1, 64, 96
3, 19968, Note_off_c, 1, 64, 0
3, 19968, Note_on_c, 1, 62, 96
3, 20224, Note_off_c, 1, 62, 0
3, 20224, Note_on_c, 1, 61, 96
3, 20480, Note_off_c, 1, 61, 0
3, 20480, Note_on_c, 1, 59, 96
3, 20736, Note_off_c, 1, 59, 0
3, 20736, Note_on_c, 1, 58, 96
3, 20992, Note_off_c, 1, 58, 0
3, 20992, Note_on_c, 1, 59, 96
3, 21248, Note_off_c, 1, 59, 0
3, 21248, Note_on_c, 1, 61, 96
3, 21504, Note_off_c, 1, 61, 0
3, 21504, Note_on_c, 1, 62, 96
3, 22784, Note_off_c, 1, 62, 0
3, 22784, Note_on_c, 1, 62, 96
3, 23040, Note_off_c, 1, 62, 0
3, 23040, Note_on_c, 1, 64, 96
3, 23296, Note_off_c, 1, 64, 0
3, 23296, Note_on_c, 1, 66, 96
3, 23552, Note_off_c, 1, 66, 0
3, 23552, Note_on_c, 1, 67, 96
3, 25088, Note_off_c, 1, 67, 0
3, 25088, Note_on_c, 1, 66, 96
3, 25600, Note_off_c, 1, 66, 0
3, 25600, Note_on_c, 1, 64, 96
3, 26112, Note_off_c, 1, 64, 0
3, 26112, Note_on_c, 1, 69, 96
3, 26880, Note_off_c, 1, 69, 0
3, 26880, Note_on_c, 1, 68, 96
3, 27392, Note_off_c, 1, 68, 0
3, 27392, Note_on_c, 1, 66, 96
3, 27904, Note_off_c, 1, 66, 0
3, 27904, Note_on_c, 1, 68, 96
3, 28160, Note_off_c, 1, 68, 0
3, 28160, Note_on_c, 1, 66, 96
3, 28416, Note_off_c, 1, 66, 0
3, 28416, Note_on_c, 1, 65, 96
3, 28672, Note_off_c, 1, 65, 0
3, 28672, Note_on_c, 1, 66, 96
3, 28928, Note_off_c, 1, 66, 0
3, 28928, Note_on_c, 1, 61, 96
3, 29184, Note_off_c, 1, 61, 0
3, 29184, Note_on_c, 1, 62, 96
3, 29440, Note_off_c, 1, 62, 0
3, 29440, Note_on_c, 1, 64, 96
3, 29696, Note_off_c, 1, 64, 0
3, 29696, Note_on_c, 1, 66, 96
3, 29952, Note_off_c, 1, 66, 0
3, 29952, Note_on_c, 1, 64, 96
3, 30208, Note_off_c, 1, 64, 0
3, 30208, Note_on_c, 1, 66, 96
3, 30464, Note_off_c, 1, 66, 0
3, 30464, Note_on_c, 1, 67, 96
3, 30720, Note_off_c, 1, 67, 0
3, 30720, Note_on_c, 1, 69, 96
3, 32000, Note_off_c, 1, 69, 0
3, 32000, Note_on_c, 1, 71, 96
3, 32256, Note_off_c, 1, 71, 0
3, 32256, Note_on_c, 1, 69, 96
3, 32512, Note_off_c, 1, 69, 0
3, 32512, Note_on_c, 1, 68, 96
3, 32768, Note_off_c, 1, 68, 0
3, 32768, Note_on_c, 1, 69, 96
3, 33536, Note_off_c, 1, 69, 0
3, 33536, Note_on_c, 1, 67, 96
3, 33792, Note_off_c, 1, 67, 0
3, 33792, Note_on_c, 1, 66, 96
3, 34048, Note_off_c, 1, 66, 0
3, 34048, Note_on_c, 1, 62, 96
3, 34304, Note_off_c, 1, 62, 0
3, 34304, Note_on_c, 1, 67, 96
3, 34560, Note_off_c, 1, 67, 0
3, 34560, Note_on_c, 1, 66, 96
3, 34816, Note_off_c, 1, 66, 0
3, 34816, Note_on_c, 1, 64, 96
3, 35072, Note_off_c, 1, 64, 0
3, 35072, Note_on_c, 1, 61, 96
3, 35328, Note_off_c, 1, 61, 0
3, 35328, Note_on_c, 1, 66, 96
3, 35584, Note_off_c, 1, 66, 0
3, 35584, Note_on_c, 1, 64, 96
3, 35840, Note_off_c, 1, 64, 0
3, 35840, Note_on_c, 1, 62, 96
3, 36096, Note_off_c, 1, 62, 0
3, 36096, Note_on_c, 1, 60, 96
3, 36352, Note_off_c, 1, 60, 0
3, 36352, Note_on_c, 1, 59, 96
3, 37376, Note_off_c, 1, 59, 0
3, 37376, Note_on_c, 1, 60, 96
3, 37888, Note_off_c, 1, 60, 0
3, 38144, Note_on_c, 1, 59, 96
3, 38400, Note_off_c, 1, 59, 0
3, 38400, Note_on_c, 1, 57, 96
3, 38656, Note_off_c, 1, 57, 0
3, 38656, Note_on_c, 1, 55, 96
3, 38912, Note_off_c, 1, 55, 0
3, 38912, Note_on_c, 1, 54, 96
3, 39168, Note_off_c, 1, 54, 0
3, 39168, Note_on_c, 1, 55, 96
3, 39424, Note_off_c, 1, 55, 0
3, 39424, Note_on_c, 1, 54, 96
3, 39680, Note_off_c, 1, 54, 0
3, 39680, Note_on_c, 1, 52, 96
3, 39936, Note_off_c, 1, 52, 0
3, 39936, Note_on_c, 1, 50, 96
3, 45056, Note_off_c, 1, 50, 0
3, 45056, End_track
4, 0, Start_track
4, 0, Title_t, "Instrument 3"
4, 0, Note_on_c, 2, 62, 96
4, 1280, Note_off_c, 2, 62, 0
4, 1280, Note_on_c, 2, 62, 96
4, 1536, Note_off_c, 2, 62, 0
4, 1536, Note_on_c, 2, 61, 96
4, 1792, Note_off_c, 2, 61, 0
4, 1792, Note_on_c, 2, 59, 96
4, 2048, Note_off_c, 2, 59, 0
4, 2048, Note_on_c, 2, 57, 96
4, 2304, Note_off_c, 2, 57, 0
4, 2304, Note_on_c, 2, 61, 96
4, 2560, Note_off_c, 2, 61, 0
4, 2560, Note_on_c, 2, 62, 96
4, 2816, Note_off_c, 2, 62, 0
4, 2816, Note_on_c, 2, 64, 96
4, 3072, Note_off_c, 2, 64, 0
4, 3072, Note_on_c, 2, 66, 96
4, 3584, Note_off_c, 2, 66, 0
4, 3584, Note_on_c, 2, 64, 96
4, 4096, Note_off_c, 2, 64, 0
4, 4096, Note_on_c, 2, 64, 96
4, 5376, Note_off_c, 2, 64, 0
4, 5376, Note_on_c, 2, 64, 96
4, 5632, Note_off_c, 2, 64, 0
4, 5632, Note_on_c, 2, 62, 96
4, 5888, Note_off_c, 2, 62, 0
4, 5888, Note_on_c, 2, 60, 96
4, 6144, Note_off_c, 2, 60, 0
4, 6144, Note_on_c, 2, 59, 96
4, 6912, Note_off_c, 2, 59, 0
4, 6912, Note_on_c, 2, 57, 96
4, 7168, Note_off_c, 2, 57, 0
4, 7168, Note_on_c, 2, 55, 96
4, 7424, Note_off_c, 2, 55, 0
4, 7424, Note_on_c, 2, 59, 96
4, 7680, Note_off_c, 2, 59, 0
4, 7680, Note_on_c, 2, 57, 96
4, 7936, Note_off_c, 2, 57, 0
4, 7936, Note_on_c, 2, 55, 96
4, 8192, Note_off_c, 2, 55, 0
4, 8192, Note_on_c, 2, 54, 96
4, 9216, Note_off_c, 2, 54, 0
4, 9472, Note_on_c, 2, 57, 96
4, 9728, Note_off_c, 2, 57, 0
4, 9728, Note_on_c, 2, 59, 96
4, 9984, Note_off_c, 2, 59, 0
4, 9984, Note_on_c, 2, 61, 96
4, 10240, Note_off_c, 2, 61, 0
4, 10240, Note_on_c, 2, 62, 96
4, 10496, Note_off_c, 2, 62, 0
4, 11520, Note_on_c, 2, 61, 96
4, 11776, Note_off_c, 2, 61, 0
4, 11776, Note_on_c, 2, 62, 96
4, 12032, Note_off_c, 2, 62, 0
4, 12032, Note_on_c, 2, 64, 96
4, 12288, Note_off_c, 2, 64, 0
4, 12288, Note_on_c, 2, 66, 96
4, 12544, Note_off_c, 2, 66, 0
4, 12544, Note_on_c, 2, 67, 96
4, 12800, Note_off_c, 2, 67, 0
4, 12800, Note_on_c, 2, 66, 96
4, 13056, Note_off_c, 2, 66, 0
4, 13056, Note_on_c, 2, 64, 96
4, 13312, Note_off_c, 2, 64, 0
4, 13312, Note_on_c, 2, 62, 96
4, 14592, Note_off_c, 2, 62, 0
4, 14592, Note_on_c, 2, 62, 96
4, 14848, Note_off_c, 2, 62, 0
4, 14848, Note_on_c, 2, 61, 96
4, 15104, Note_off_c, 2, 61, 0
4, 15104, Note_on_c, 2, 59, 96
4, 15360, Note_off_c, 2, 59, 0
4, 15360, Note_on_c, 2, 57, 96
4, 15872, Note_off_c, 2, 57, 0
4, 15872, Note_on_c, 2, 59, 96
4, 16384, Note_off_c, 2, 59, 0
4, 16640, Note_on_c, 2, 57, 96
4, 16896, Note_off_c, 2, 57, 0
4, 16896, Note_on_c, 2, 55, 96
4, 17152, Note_off_c, 2, 55, 0
4, 17152, Note_on_c, 2, 54, 96
4, 17408, Note_off_c, 2, 54, 0
4, 17408, Note_on_c, 2, 55, 96
4, 17920, Note_off_c, 2, 55, 0
4, 17920, Note_on_c, 2, 57, 96
4, 18432, Note_off_c, 2, 57, 0
4, 18432, Note_on_c, 2, 59, 96
4, 19456, Note_off_c, 2, 59, 0
4, 19712, Note_on_c, 2, 55, 96
4, 19968, Note_off_c, 2, 55, 0
4, 19968, Note_on_c, 2, 54, 96
4, 20224, Note_off_c, 2, 54, 0
4, 20224, Note_on_c, 2, 52, 96
4, 20480, Note_off_c, 2, 52, 0
4, 20480, Note_on_c, 2, 50, 96
4, 20736, Note_off_c, 2, 50, 0
4, 20736, Note_on_c, 2, 54, 96
4, 20992, Note_off_c, 2, 54, 0
4, 20992, Note_on_c, 2, 56, 96
4, 21248, Note_off_c, 2, 56, 0
4, 21248, Note_on_c, 2, 58, 96
4, 21504, Note_off_c, 2, 58, 0
4, 21504, Note_on_c, 2, 59, 96
4, 22016, Note_off_c, 2, 59, 0
4, 22016, Note_on_c, 2, 57, 96
4, 22528, Note_off_c, 2, 57, 0
4, 22528, Note_on_c, 2, 55, 96
4, 22784, Note_off_c, 2, 55, 0
4, 22784, Note_on_c, 2, 59, 96
4, 23040, Note_off_c, 2, 59, 0
4, 23040, Note_on_c, 2, 61, 96
4, 23296, Note_off_c, 2, 61, 0
4, 23296, Note_on_c, 2, 62, 96
4, 23552, Note_off_c, 2, 62, 0
4, 23552, Note_on_c, 2, 64, 96
4, 23808, Note_off_c, 2, 64, 0
4, 23808, Note_on_c, 2, 66, 96
4, 24064, Note_off_c, 2, 66, 0
4, 24064, Note_on_c, 2, 64, 96
4, 24320, Note_off_c, 2, 64, 0
4, 24320, Note_on_c, 2, 62, 96
4, 24576, Note_off_c, 2, 62, 0
4, 24576, Note_on_c, 2, 61, 96
4, 24832, Note_off_c, 2, 61, 0
4, 24832, Note_on_c, 2, 57, 96
4, 25088, Note_off_c, 2, 57, 0
4, 25088, Note_on_c, 2, 62, 96
4, 25600, Note_off_c, 2, 62, 0
4, 25856, Note_on_c, 2, 61, 96
4, 26112, Note_off_c, 2, 61, 0
4, 26112, Note_on_c, 2, 59, 96
4, 26368, Note_off_c, 2, 59, 0
4, 26368, Note_on_c, 2, 57, 96
4, 26624, Note_off_c, 2, 57, 0
4, 26624, Note_on_c, 2, 56, 96
4, 27136, Note_off_c, 2, 56, 0
4, 27136, Note_on_c, 2, 57, 96
4, 27648, Note_off_c, 2, 57, 0
4, 27648, Note_on_c, 2, 59, 96
4, 28160, Note_off_c, 2, 59, 0
4, 28160, Note_on_c, 2, 61, 96
4, 28928, Note_off_c, 2, 61, 0
4, 28928, Note_on_c, 2, 57, 96
4, 29184, Note_off_c, 2, 57, 0
4, 29184, Note_on_c, 2, 59, 96
4, 29440, Note_off_c, 2, 59, 0
4, 29440, Note_on_c, 2, 61, 96
4, 29696, Note_off_c, 2, 61, 0
4, 29696, Note_on_c, 2, 62, 96
4, 29952, Note_off_c, 2, 62, 0
4, 29952, Note_on_c, 2, 61, 96
4, 30208, Note_off_c, 2, 61, 0
4, 30208, Note_on_c, 2, 62, 96
4, 30464, Note_off_c, 2, 62, 0
4, 30464, Note_on_c, 2, 64, 96
4, 30720, Note_off_c, 2, 64, 0
4, 30720, Note_on_c, 2, 66, 96
4, 30976, Note_off_c, 2, 66, 0
4, 30976, Note_on_c, 2, 67, 96
4, 31232, Note_off_c, 2, 67, 0
4, 31232, Note_on_c, 2, 66, 96
4, 31488, Note_off_c, 2, 66, 0
4, 31488, Note_on_c, 2, 64, 96
4, 31744, Note_off_c, 2, 64, 0
4, 31744, Note_on_c, 2, 62, 96
4, 32256, Note_off_c, 2, 62, 0
4, 32256, Note_on_c, 2, 64, 96
4, 33024, Note_off_c, 2, 64, 0
4, 33024, Note_on_c, 2, 61, 96
4, 33280, Note_off_c, 2, 61, 0
4, 33280, Note_on_c, 2, 66, 96
4, 33536, Note_off_c, 2, 66, 0
4, 33536, Note_on_c, 2, 64, 96
4, 33792, Note_off_c, 2, 64, 0
4, 33792, Note_on_c, 2, 62, 96
4, 34048, Note_off_c, 2, 62, 0
4, 34048, Note_on_c, 2, 59, 96
4, 34304, Note_off_c, 2, 59, 0
4, 34304, Note_on_c, 2, 64, 96
4, 34560, Note_off_c, 2, 64, 0
4, 34560, Note_on_c, 2, 62, 96
4, 34816, Note_off_c, 2, 62, 0
4, 34816, Note_on_c, 2, 61, 96
4, 35072, Note_off_c, 2, 61, 0
4, 35072, Note_on_c, 2, 57, 96
4, 35328, Note_off_c, 2, 57, 0
4, 35328, Note_on_c, 2, 62, 96
4, 35584, Note_off_c, 2, 62, 0
4, 35584, Note_on_c, 2, 60, 96
4, 35840, Note_off_c, 2, 60, 0
4, 35840, Note_on_c, 2, 59, 96
4, 36096, Note_off_c, 2, 59, 0
4, 36096, Note_on_c, 2, 57, 96
4, 36352, Note_off_c, 2, 57, 0
4, 36352, Note_on_c, 2, 55, 96
4, 36608, Note_off_c, 2, 55, 0
4, 36608, Note_on_c, 2, 54, 96
4, 36864, Note_off_c, 2, 54, 0
4, 36864, Note_on_c, 2, 52, 96
4, 37376, Note_off_c, 2, 52, 0
4, 37376, Note_on_c, 2, 50, 96
4, 38400, Note_off_c, 2, 50, 0
4, 38400, Note_on_c, 2, 49, 96
4, 38912, Note_off_c, 2, 49, 0
4, 38912, Note_on_c, 2, 50, 96
4, 39168, Note_off_c, 2, 50, 0
4, 39168, Note_on_c, 2, 47, 96
4, 39424, Note_off_c, 2, 47, 0
4, 39424, Note_on_c, 2, 45, 96
4, 39680, Note_off_c, 2, 45, 0
4, 39680, Note_on_c, 2, 43, 96
4, 39936, Note_off_c, 2, 43, 0
4, 39936, Note_on_c, 2, 42, 96
4, 40192, Note_off_c, 2, 42, 0
4, 40192, Note_on_c, 2, 45, 96
4, 40448, Note_off_c, 2, 45, 0
4, 40448, Note_on_c, 2, 38, 96
4, 45056, Note_off_c, 2, 38, 0
4, 45056, End_track
5, 0, Start_track
5, 0, Title_t, "Instrument 4"
5, 512, Note_on_c, 3, 50, 96
5, 1024, Note_off_c, 3, 50, 0
5, 1024, Note_on_c, 3, 47, 96
5, 1536, Note_off_c, 3, 47, 0
5, 1536, Note_on_c, 3, 52, 96
5, 2048, Note_off_c, 3, 52, 0
5, 2048, Note_on_c, 3, 45, 96
5, 2560, Note_off_c, 3, 45, 0
5, 2560, Note_on_c, 3, 57, 96
5, 3072, Note_off_c, 3, 57, 0
5, 3072, Note_on_c, 3, 50, 96
5, 3584, Note_off_c, 3, 50, 0
5, 3584, Note_on_c, 3, 52, 96
5, 4096, Note_off_c, 3, 52, 0
5, 4096, Note_on_c, 3, 45, 96
5, 4608, Note_off_c, 3, 45, 0
5, 4608, Note_on_c, 3, 49, 96
5, 5120, Note_off_c, 3, 49, 0
5, 5120, Note_on_c, 3, 38, 96
5, 5632, Note_off_c, 3, 38, 0
5, 5632, Note_on_c, 3, 50, 96
5, 6144, Note_off_c, 3, 50, 0
5, 6144, Note_on_c, 3, 43, 96
5, 6656, Note_off_c, 3, 43, 0
5, 6656, Note_on_c, 3, 47, 96
5, 7168, Note_off_c, 3, 47, 0
5, 7168, Note_on_c, 3, 40, 96
5, 7680, Note_off_c, 3, 40, 0
5, 7680, Note_on_c, 3, 45, 96
5, 8192, Note_off_c, 3, 45, 0
5, 8192, Note_on_c, 3, 38, 96
5, 10240, Note_off_c, 3, 38, 0
5, 12800, Note_on_c, 3, 50, 96
5, 13312, Note_off_c, 3, 50, 0
5, 13312, Note_on_c, 3, 54, 96
5, 13824, Note_off_c, 3, 54, 0
5, 13824, Note_on_c, 3, 50, 96
5, 14336, Note_off_c, 3, 50, 0
5, 14336, Note_on_c, 3, 57, 96
5, 14848, Note_off_c, 3, 57, 0
5, 14848, Note_on_c, 3, 45, 96
5, 15360, Note_off_c, 3, 45, 0
5, 15360, Note_on_c, 3, 50, 96
5, 15872, Note_off_c, 3, 50, 0
5, 15872, Note_on_c, 3, 47, 96
5, 16384, Note_off_c, 3, 47, 0
5, 16384, Note_on_c, 3, 54, 96
5, 16896, Note_off_c, 3, 54, 0
5, 16896, Note_on_c, 3, 47, 96
5, 17408, Note_off_c, 3, 47, 0
5, 17408, Note_on_c, 3, 52, 96
5, 17920, Note_off_c, 3, 52, 0
5, 17920, Note_on_c, 3, 40, 96
5, 18432, Note_off_c, 3, 40, 0
5, 18432, Note_on_c, 3, 47, 96
5, 20480, Note_off_c, 3, 47, 0
5, 20992, Note_on_c, 3, 47, 96
5, 21504, Note_off_c, 3, 47, 0
5, 21504, Note_on_c, 3, 59, 96
5, 22016, Note_off_c, 3, 59, 0
5, 22016, Note_on_c, 3, 54, 96
5, 22528, Note_off_c, 3, 54, 0
5, 22528, Note_on_c, 3, 55, 96
5, 23040, Note_off_c, 3, 55, 0
5, 23040, Note_on_c, 3, 43, 96
5, 23552, Note_off_c, 3, 43, 0
5, 23552, Note_on_c, 3, 55, 96
5, 24064, Note_off_c, 3, 55, 0
5, 24064, Note_on_c, 3, 49, 96
5, 24576, Note_off_c, 3, 49, 0
5, 24576, Note_on_c, 3, 54, 96
5, 25088, Note_off_c, 3, 54, 0
5, 25088, Note_on_c, 3, 50, 96
5, 25600, Note_off_c, 3, 50, 0
5, 25600, Note_on_c, 3, 57, 96
5, 26112, Note_off_c, 3, 57, 0
5, 26112, Note_on_c, 3, 54, 96
5, 26624, Note_off_c, 3, 54, 0
5, 26624, Note_on_c, 3, 59, 96
5, 27136, Note_off_c, 3, 59, 0
5, 27136, Note_on_c, 3, 54, 96
5, 27648, Note_off_c, 3, 54, 0
5, 27648, Note_on_c, 3, 56, 96
5, 28160, Note_off_c, 3, 56, 0
5, 28160, Note_on_c, 3, 49, 96
5, 28672, Note_off_c, 3, 49, 0
5, 28672, Note_on_c, 3, 54, 96
5, 30720, Note_off_c, 3, 54, 0
5, 31232, Note_on_c, 3, 50, 96
5, 31744, Note_off_c, 3, 50, 0
5, 31744, Note_on_c, 3, 47, 96
5, 32256, Note_off_c, 3, 47, 0
5, 32256, Note_on_c, 3, 52, 96
5, 32768, Note_off_c, 3, 52, 0
5, 32768, Note_on_c, 3, 45, 96
5, 33280, Note_off_c, 3, 45, 0
5, 33280, Note_on_c, 3, 57, 96
5, 34304, Note_off_c, 3, 57, 0
5, 34304, Note_on_c, 3, 55, 96
5, 35328, Note_off_c, 3, 55, 0
5, 35328, Note_on_c, 3, 54, 96
5, 35840, Note_off_c, 3, 54, 0
5, 35840, Note_on_c, 3, 55, 96
5, 36352, Note_off_c, 3, 55, 0
5, 36352, Note_on_c, 3, 47, 96
5, 36864, Note_off_c, 3, 47, 0
5, 36864, Note_on_c, 3, 49, 96
5, 37376, Note_off_c, 3, 49, 0
5, 37376, Note_on_c, 3, 50, 96
5, 37888, Note_off_c, 3, 50, 0
5, 37888, Note_on_c, 3, 43, 96
5, 38400, Note_off_c, 3, 43, 0
5, 38400, Note_on_c, 3, 45, 96
5, 38912, Note_off_c, 3, 45, 0
5, 38912, Note_on_c, 3, 38, 96
5, 45056, Note_off_c, 3, 38, 0
5, 45056, End_track
0, 0, End_of_file
