0, 0, Header, 1, 12, 240
1, 0, Start_track
1, 0, Title_t, "(Ohne Titel)"
1, 0, Time_signature, 2, 1, 48, 8
1, 0, Key_signature, 0, "major"
1, 0, Tempo, 375000
1, 0, End_track
2, 0, Start_track
2, 0, Sequence_number, 65535
2, 0, MIDI_port, 0
2, 0, Title_t, "Cembalo I"
2, 0, Control_c, 0, 0, 0
2, 0, Control_c, 0, 32, 0
2, 0, Program_c, 0, 6
2, 0, Control_c, 0, 7, 80
2, 0, Control_c, 0, 10, 49
2, 3360, Note_on_c, 0, 79, 100
2, 3948, Note_on_c, 0, 79, 0
2, 3960, Note_on_c, 0, 72, 100
2, 4068, Note_on_c, 0, 72, 0
2, 4080, Note_on_c, 0, 69, 100
2, 4188, Note_on_c, 0, 69, 0
2, 4200, Note_on_c, 0, 72, 100
2, 4308, Note_on_c, 0, 72, 0
2, 4320, Note_on_c, 0, 77, 100
2, 4908, Note_on_c, 0, 77, 0
2, 4920, Note_on_c, 0, 71, 100
2, 5028, Note_on_c, 0, 71, 0
2, 5040, Note_on_c, 0, 67, 100
2, 5148, Note_on_c, 0, 67, 0
2, 5160, Note_on_c, 0, 71, 100
2, 5268, Note_on_c, 0, 71, 0
2, 5280, Note_on_c, 0, 76, 100
2, 5868, Note_on_c, 0, 76, 0
2, 5880, Note_on_c, 0, 69, 100
2, 5988, Note_on_c, 0, 69, 0
2, 6000, Note_on_c, 0, 65, 100
2, 6108, Note_on_c, 0, 65, 0
2, 6120, Note_on_c, 0, 69, 100
2, 6228, Note_on_c, 0, 69, 0
2, 6240, Note_on_c, 0, 74, 100
2, 6828, Note_on_c, 0, 74, 0
2, 6840, Note_on_c, 0, 67, 100
2, 6948, Note_on_c, 0, 67, 0
2, 6960, Note_on_c, 0, 64, 100
2, 7068, Note_on_c, 0, 64, 0
2, 7080, Note_on_c, 0, 67, 100
2, 7188, Note_on_c, 0, 67, 0
2, 7200, Note_on_c, 0, 72, 100
2, 7788, Note_on_c, 0, 72, 0
2, 7800, Note_on_c, 0, 74, 100
2, 7908, Note_on_c, 0, 74, 0
2, 7920, Note_on_c, 0, 72, 100
2, 8028, Note_on_c, 0, 72, 0
2, 8040, Note_on_c, 0, 74, 100
2, 8148, Note_on_c, 0, 74, 0
2, 8160, Note_on_c, 0, 72, 100
2, 9072, Note_on_c, 0, 72, 0
2, 9360, Note_on_c, 0, 76, 100
2, 9414, Note_on_c, 0, 76, 0
2, 9420, Note_on_c, 0, 74, 100
2, 9474, Note_on_c, 0, 74, 0
2, 9480, Note_on_c, 0, 72, 100
2, 9534, Note_on_c, 0, 72, 0
2, 9540, Note_on_c, 0, 71, 100
2, 9594, Note_on_c, 0, 71, 0
2, 9600, Note_on_c, 0, 69, 100
2, 9654, Note_on_c, 0, 69, 0
2, 9660, Note_on_c, 0, 67, 100
2, 9714, Note_on_c, 0, 67, 0
2, 9720, Note_on_c, 0, 66, 100
2, 9774, Note_on_c, 0, 66, 0
2, 9780, Note_on_c, 0, 64, 100
2, 9834, Note_on_c, 0, 64, 0
2, 9840, Note_on_c, 0, 72, 100
2, 10056, Note_on_c, 0, 72, 0
2, 10320, Note_on_c, 0, 78, 100
2, 10374, Note_on_c, 0, 78, 0
2, 10380, Note_on_c, 0, 76, 100
2, 10434, Note_on_c, 0, 76, 0
2, 10440, Note_on_c, 0, 74, 100
2, 10494, Note_on_c, 0, 74, 0
2, 10500, Note_on_c, 0, 72, 100
2, 10554, Note_on_c, 0, 72, 0
2, 10560, Note_on_c, 0, 71, 100
2, 10614, Note_on_c, 0, 71, 0
2, 10620, Note_on_c, 0, 69, 100
2, 10674, Note_on_c, 0, 69, 0
2, 10680, Note_on_c, 0, 67, 100
2, 10734, Note_on_c, 0, 67, 0
2, 10740, Note_on_c, 0, 66, 100
2, 10794, Note_on_c, 0, 66, 0
2, 10800, Note_on_c, 0, 74, 100
2, 11016, Note_on_c, 0, 74, 0
2, 11280, Note_on_c, 0, 79, 100
2, 11334, Note_on_c, 0, 79, 0
2, 11340, Note_on_c, 0, 78, 100
2, 11394, Note_on_c, 0, 78, 0
2, 11400, Note_on_c, 0, 76, 100
2, 11454, Note_on_c, 0, 76, 0
2, 11460, Note_on_c, 0, 74, 100
2, 11514, Note_on_c, 0, 74, 0
2, 11520, Note_on_c, 0, 72, 100
2, 11574, Note_on_c, 0, 72, 0
2, 11580, Note_on_c, 0, 71, 100
2, 11634, Note_on_c, 0, 71, 0
2, 11640, Note_on_c, 0, 69, 100
2, 11694, Note_on_c, 0, 69, 0
2, 11700, Note_on_c, 0, 67, 100
2, 11754, Note_on_c, 0, 67, 0
2, 11760, Note_on_c, 0, 72, 100
2, 11814, Note_on_c, 0, 72, 0
2, 11820, Note_on_c, 0, 71, 100
2, 11874, Note_on_c, 0, 71, 0
2, 11880, Note_on_c, 0, 69, 100
2, 11934, Note_on_c, 0, 69, 0
2, 11940, Note_on_c, 0, 67, 100
2, 11994, Note_on_c, 0, 67, 0
2, 12000, Note_on_c, 0, 72, 100
2, 12216, Note_on_c, 0, 72, 0
2, 12720, Note_on_c, 0, 67, 100
2, 12828, Note_on_c, 0, 67, 0
2, 12840, Note_on_c, 0, 66, 100
2, 12948, Note_on_c, 0, 66, 0
2, 12960, Note_on_c, 0, 67, 100
2, 13068, Note_on_c, 0, 67, 0
2, 13080, Note_on_c, 0, 69, 100
2, 13188, Note_on_c, 0, 69, 0
2, 13200, Note_on_c, 0, 71, 100
2, 13308, Note_on_c, 0, 71, 0
2, 13320, Note_on_c, 0, 72, 100
2, 13428, Note_on_c, 0, 72, 0
2, 13440, Note_on_c, 0, 74, 100
2, 13548, Note_on_c, 0, 74, 0
2, 13560, Note_on_c, 0, 73, 100
2, 13668, Note_on_c, 0, 73, 0
2, 13680, Note_on_c, 0, 74, 100
2, 13788, Note_on_c, 0, 74, 0
2, 13800, Note_on_c, 0, 76, 100
2, 13908, Note_on_c, 0, 76, 0
2, 13920, Note_on_c, 0, 78, 100
2, 14028, Note_on_c, 0, 78, 0
2, 14040, Note_on_c, 0, 76, 100
2, 14148, Note_on_c, 0, 76, 0
2, 14160, Note_on_c, 0, 78, 100
2, 14268, Note_on_c, 0, 78, 0
2, 14280, Note_on_c, 0, 74, 100
2, 14388, Note_on_c, 0, 74, 0
2, 14400, Note_on_c, 0, 79, 100
2, 14508, Note_on_c, 0, 79, 0
2, 14520, Note_on_c, 0, 78, 100
2, 14628, Note_on_c, 0, 78, 0
2, 14640, Note_on_c, 0, 79, 100
2, 14748, Note_on_c, 0, 79, 0
2, 14760, Note_on_c, 0, 81, 100
2, 14868, Note_on_c, 0, 81, 0
2, 14880, Note_on_c, 0, 79, 100
2, 14988, Note_on_c, 0, 79, 0
2, 15000, Note_on_c, 0, 83, 100
2, 15108, Note_on_c, 0, 83, 0
2, 15120, Note_on_c, 0, 81, 100
2, 15228, Note_on_c, 0, 81, 0
2, 15240, Note_on_c, 0, 79, 100
2, 15348, Note_on_c, 0, 79, 0
2, 15360, Note_on_c, 0, 78, 100
2, 15468, Note_on_c, 0, 78, 0
2, 15480, Note_on_c, 0, 81, 100
2, 15588, Note_on_c, 0, 81, 0
2, 15600, Note_on_c, 0, 74, 100
2, 15708, Note_on_c, 0, 74, 0
2, 15720, Note_on_c, 0, 78, 100
2, 15828, Note_on_c, 0, 78, 0
2, 15840, Note_on_c, 0, 79, 100
2, 15948, Note_on_c, 0, 79, 0
2, 15960, Note_on_c, 0, 83, 100
2, 16068, Note_on_c, 0, 83, 0
2, 16080, Note_on_c, 0, 74, 100
2, 16188, Note_on_c, 0, 74, 0
2, 16200, Note_on_c, 0, 78, 100
2, 16308, Note_on_c, 0, 78, 0
2, 16320, Note_on_c, 0, 76, 100
2, 16428, Note_on_c, 0, 76, 0
2, 16440, Note_on_c, 0, 79, 100
2, 16548, Note_on_c, 0, 79, 0
2, 16560, Note_on_c, 0, 72, 100
2, 16668, Note_on_c, 0, 72, 0
2, 16680, Note_on_c, 0, 76, 100
2, 16788, Note_on_c, 0, 76, 0
2, 16800, Note_on_c, 0, 78, 100
2, 16908, Note_on_c, 0, 78, 0
2, 16920, Note_on_c, 0, 81, 100
2, 17028, Note_on_c, 0, 81, 0
2, 17040, Note_on_c, 0, 72, 100
2, 17148, Note_on_c, 0, 72, 0
2, 17160, Note_on_c, 0, 76, 100
2, 17268, Note_on_c, 0, 76, 0
2, 17280, Note_on_c, 0, 74, 100
2, 17388, Note_on_c, 0, 74, 0
2, 17400, Note_on_c, 0, 78, 100
2, 17508, Note_on_c, 0, 78, 0
2, 17520, Note_on_c, 0, 71, 100
2, 17628, Note_on_c, 0, 71, 0
2, 17640, Note_on_c, 0, 74, 100
2, 17748, Note_on_c, 0, 74, 0
2, 17760, Note_on_c, 0, 76, 100
2, 17868, Note_on_c, 0, 76, 0
2, 17880, Note_on_c, 0, 79, 100
2, 17988, Note_on_c, 0, 79, 0
2, 18000, Note_on_c, 0, 71, 100
2, 18108, Note_on_c, 0, 71, 0
2, 18120, Note_on_c, 0, 74, 100
2, 18228, Note_on_c, 0, 74, 0
2, 18240, Note_on_c, 0, 72, 100
2, 18348, Note_on_c, 0, 72, 0
2, 18360, Note_on_c, 0, 76, 100
2, 18468, Note_on_c, 0, 76, 0
2, 18480, Note_on_c, 0, 69, 100
2, 18588, Note_on_c, 0, 69, 0
2, 18600, Note_on_c, 0, 72, 100
2, 18708, Note_on_c, 0, 72, 0
2, 18720, Note_on_c, 0, 74, 100
2, 18828, Note_on_c, 0, 74, 0
2, 18840, Note_on_c, 0, 78, 100
2, 18948, Note_on_c, 0, 78, 0
2, 18960, Note_on_c, 0, 69, 100
2, 19068, Note_on_c, 0, 69, 0
2, 19080, Note_on_c, 0, 72, 100
2, 19188, Note_on_c, 0, 72, 0
2, 19200, Note_on_c, 0, 71, 100
2, 19308, Note_on_c, 0, 71, 0
2, 19320, Note_on_c, 0, 74, 100
2, 19428, Note_on_c, 0, 74, 0
2, 19440, Note_on_c, 0, 67, 100
2, 19548, Note_on_c, 0, 67, 0
2, 19560, Note_on_c, 0, 71, 100
2, 19668, Note_on_c, 0, 71, 0
2, 19680, Note_on_c, 0, 72, 100
2, 19788, Note_on_c, 0, 72, 0
2, 19800, Note_on_c, 0, 76, 100
2, 19908, Note_on_c, 0, 76, 0
2, 19920, Note_on_c, 0, 67, 100
2, 20028, Note_on_c, 0, 67, 0
2, 20040, Note_on_c, 0, 72, 100
2, 20148, Note_on_c, 0, 72, 0
2, 20160, Note_on_c, 0, 71, 100
2, 20268, Note_on_c, 0, 71, 0
2, 20280, Note_on_c, 0, 74, 100
2, 20388, Note_on_c, 0, 74, 0
2, 20400, Note_on_c, 0, 67, 100
2, 20508, Note_on_c, 0, 67, 0
2, 20520, Note_on_c, 0, 71, 100
2, 20628, Note_on_c, 0, 71, 0
2, 20640, Note_on_c, 0, 72, 100
2, 20748, Note_on_c, 0, 72, 0
2, 20760, Note_on_c, 0, 76, 100
2, 20868, Note_on_c, 0, 76, 0
2, 20880, Note_on_c, 0, 67, 100
2, 20988, Note_on_c, 0, 67, 0
2, 21000, Note_on_c, 0, 72, 100
2, 21108, Note_on_c, 0, 72, 0
2, 21120, Note_on_c, 0, 71, 100
2, 21228, Note_on_c, 0, 71, 0
2, 21240, Note_on_c, 0, 74, 100
2, 21348, Note_on_c, 0, 74, 0
2, 21360, Note_on_c, 0, 76, 100
2, 21468, Note_on_c, 0, 76, 0
2, 21480, Note_on_c, 0, 77, 100
2, 21588, Note_on_c, 0, 77, 0
2, 21600, Note_on_c, 0, 79, 100
2, 22188, Note_on_c, 0, 79, 0
2, 22200, Note_on_c, 0, 81, 100
2, 22308, Note_on_c, 0, 81, 0
2, 22320, Note_on_c, 0, 79, 100
2, 22428, Note_on_c, 0, 79, 0
2, 22440, Note_on_c, 0, 77, 100
2, 22548, Note_on_c, 0, 77, 0
2, 22560, Note_on_c, 0, 76, 100
2, 22668, Note_on_c, 0, 76, 0
2, 22680, Note_on_c, 0, 77, 100
2, 22788, Note_on_c, 0, 77, 0
2, 22800, Note_on_c, 0, 79, 100
2, 22908, Note_on_c, 0, 79, 0
2, 22920, Note_on_c, 0, 76, 100
2, 23028, Note_on_c, 0, 76, 0
2, 23040, Note_on_c, 0, 77, 100
2, 23472, Note_on_c, 0, 77, 0
2, 23640, Note_on_c, 0, 69, 100
2, 23748, Note_on_c, 0, 69, 0
2, 23760, Note_on_c, 0, 71, 100
2, 23868, Note_on_c, 0, 71, 0
2, 23880, Note_on_c, 0, 72, 100
2, 23988, Note_on_c, 0, 72, 0
2, 24000, Note_on_c, 0, 74, 100
2, 24216, Note_on_c, 0, 74, 0
2, 24240, Note_on_c, 0, 72, 100
2, 24672, Note_on_c, 0, 72, 0
2, 24720, Note_on_c, 0, 71, 100
2, 24936, Note_on_c, 0, 71, 0
2, 24960, Note_on_c, 0, 72, 100
2, 25068, Note_on_c, 0, 72, 0
2, 25080, Note_on_c, 0, 71, 100
2, 25188, Note_on_c, 0, 71, 0
2, 25200, Note_on_c, 0, 72, 100
2, 25308, Note_on_c, 0, 72, 0
2, 25320, Note_on_c, 0, 74, 100
2, 25428, Note_on_c, 0, 74, 0
2, 25440, Note_on_c, 0, 76, 100
2, 25548, Note_on_c, 0, 76, 0
2, 25560, Note_on_c, 0, 74, 100
2, 25668, Note_on_c, 0, 74, 0
2, 25680, Note_on_c, 0, 72, 100
2, 25788, Note_on_c, 0, 72, 0
2, 25800, Note_on_c, 0, 71, 100
2, 25908, Note_on_c, 0, 71, 0
2, 25920, Note_on_c, 0, 69, 100
2, 26028, Note_on_c, 0, 69, 0
2, 26040, Note_on_c, 0, 66, 100
2, 26148, Note_on_c, 0, 66, 0
2, 26160, Note_on_c, 0, 74, 100
2, 26508, Note_on_c, 0, 74, 0
2, 26520, Note_on_c, 0, 72, 100
2, 26574, Note_on_c, 0, 72, 0
2, 26580, Note_on_c, 0, 71, 100
2, 26634, Note_on_c, 0, 71, 0
2, 26640, Note_on_c, 0, 69, 100
2, 26694, Note_on_c, 0, 69, 0
2, 26700, Note_on_c, 0, 67, 100
2, 26754, Note_on_c, 0, 67, 0
2, 26760, Note_on_c, 0, 66, 100
2, 26814, Note_on_c, 0, 66, 0
2, 26820, Note_on_c, 0, 64, 100
2, 26874, Note_on_c, 0, 64, 0
2, 26880, Note_on_c, 0, 62, 100
2, 26988, Note_on_c, 0, 62, 0
2, 27000, Note_on_c, 0, 71, 100
2, 27108, Note_on_c, 0, 71, 0
2, 27120, Note_on_c, 0, 72, 100
2, 27228, Note_on_c, 0, 72, 0
2, 27240, Note_on_c, 0, 74, 100
2, 27348, Note_on_c, 0, 74, 0
2, 27360, Note_on_c, 0, 76, 100
2, 27576, Note_on_c, 0, 76, 0
2, 27600, Note_on_c, 0, 76, 100
2, 27816, Note_on_c, 0, 76, 0
2, 27840, Note_on_c, 0, 76, 100
2, 28056, Note_on_c, 0, 76, 0
2, 28080, Note_on_c, 0, 74, 100
2, 28188, Note_on_c, 0, 74, 0
2, 28200, Note_on_c, 0, 72, 100
2, 28308, Note_on_c, 0, 72, 0
2, 28320, Note_on_c, 0, 74, 100
2, 28536, Note_on_c, 0, 74, 0
2, 28560, Note_on_c, 0, 74, 100
2, 28776, Note_on_c, 0, 74, 0
2, 28800, Note_on_c, 0, 74, 100
2, 29016, Note_on_c, 0, 74, 0
2, 29040, Note_on_c, 0, 72, 100
2, 29148, Note_on_c, 0, 72, 0
2, 29160, Note_on_c, 0, 71, 100
2, 29268, Note_on_c, 0, 71, 0
2, 29280, Note_on_c, 0, 72, 100
2, 29976, Note_on_c, 0, 72, 0
2, 30000, Note_on_c, 0, 71, 100
2, 30108, Note_on_c, 0, 71, 0
2, 30120, Note_on_c, 0, 69, 100
2, 30228, Note_on_c, 0, 69, 0
2, 30240, Note_on_c, 0, 71, 100
2, 30348, Note_on_c, 0, 71, 0
2, 30360, Note_on_c, 0, 74, 100
2, 30468, Note_on_c, 0, 74, 0
2, 30480, Note_on_c, 0, 79, 100
2, 30828, Note_on_c, 0, 79, 0
2, 30840, Note_on_c, 0, 76, 100
2, 30948, Note_on_c, 0, 76, 0
2, 30960, Note_on_c, 0, 72, 100
2, 31068, Note_on_c, 0, 72, 0
2, 31080, Note_on_c, 0, 67, 100
2, 31188, Note_on_c, 0, 67, 0
2, 31200, Note_on_c, 0, 69, 100
2, 31308, Note_on_c, 0, 69, 0
2, 31320, Note_on_c, 0, 72, 100
2, 31428, Note_on_c, 0, 72, 0
2, 31440, Note_on_c, 0, 65, 100
2, 31548, Note_on_c, 0, 65, 0
2, 31560, Note_on_c, 0, 69, 100
2, 31668, Note_on_c, 0, 69, 0
2, 31680, Note_on_c, 0, 67, 100
2, 31788, Note_on_c, 0, 67, 0
2, 31800, Note_on_c, 0, 70, 100
2, 31908, Note_on_c, 0, 70, 0
2, 31920, Note_on_c, 0, 64, 100
2, 32028, Note_on_c, 0, 64, 0
2, 32040, Note_on_c, 0, 67, 100
2, 32148, Note_on_c, 0, 67, 0
2, 32160, Note_on_c, 0, 72, 100
2, 32268, Note_on_c, 0, 72, 0
2, 32280, Note_on_c, 0, 60, 100
2, 32388, Note_on_c, 0, 60, 0
2, 32400, Note_on_c, 0, 65, 100
2, 32508, Note_on_c, 0, 65, 0
2, 32520, Note_on_c, 0, 69, 100
2, 32628, Note_on_c, 0, 69, 0
2, 32640, Note_on_c, 0, 67, 100
2, 32748, Note_on_c, 0, 67, 0
2, 32760, Note_on_c, 0, 64, 100
2, 32868, Note_on_c, 0, 64, 0
2, 32880, Note_on_c, 0, 60, 100
2, 32988, Note_on_c, 0, 60, 0
2, 33000, Note_on_c, 0, 59, 100
2, 33108, Note_on_c, 0, 59, 0
2, 33120, Note_on_c, 0, 60, 100
2, 33228, Note_on_c, 0, 60, 0
2, 33240, Note_on_c, 0, 62, 100
2, 33348, Note_on_c, 0, 62, 0
2, 33360, Note_on_c, 0, 64, 100
2, 33468, Note_on_c, 0, 64, 0
2, 33480, Note_on_c, 0, 65, 100
2, 33588, Note_on_c, 0, 65, 0
2, 33600, Note_on_c, 0, 67, 100
2, 33708, Note_on_c, 0, 67, 0
2, 33720, Note_on_c, 0, 66, 100
2, 33828, Note_on_c, 0, 66, 0
2, 33840, Note_on_c, 0, 67, 100
2, 33948, Note_on_c, 0, 67, 0
2, 33960, Note_on_c, 0, 69, 100
2, 34068, Note_on_c, 0, 69, 0
2, 34080, Note_on_c, 0, 71, 100
2, 34188, Note_on_c, 0, 71, 0
2, 34200, Note_on_c, 0, 69, 100
2, 34308, Note_on_c, 0, 69, 0
2, 34320, Note_on_c, 0, 71, 100
2, 34428, Note_on_c, 0, 71, 0
2, 34440, Note_on_c, 0, 67, 100
2, 34548, Note_on_c, 0, 67, 0
2, 34560, Note_on_c, 0, 72, 100
2, 34668, Note_on_c, 0, 72, 0
2, 34680, Note_on_c, 0, 71, 100
2, 34788, Note_on_c, 0, 71, 0
2, 34800, Note_on_c, 0, 72, 100
2, 34908, Note_on_c, 0, 72, 0
2, 34920, Note_on_c, 0, 74, 100
2, 35028, Note_on_c, 0, 74, 0
2, 35040, Note_on_c, 0, 72, 100
2, 35148, Note_on_c, 0, 72, 0
2, 35160, Note_on_c, 0, 76, 100
2, 35268, Note_on_c, 0, 76, 0
2, 35280, Note_on_c, 0, 74, 100
2, 35388, Note_on_c, 0, 74, 0
2, 35400, Note_on_c, 0, 72, 100
2, 35508, Note_on_c, 0, 72, 0
2, 35520, Note_on_c, 0, 71, 100
2, 35628, Note_on_c, 0, 71, 0
2, 35640, Note_on_c, 0, 74, 100
2, 35748, Note_on_c, 0, 74, 0
2, 35760, Note_on_c, 0, 67, 100
2, 35868, Note_on_c, 0, 67, 0
2, 35880, Note_on_c, 0, 71, 100
2, 35988, Note_on_c, 0, 71, 0
2, 36000, Note_on_c, 0, 72, 100
2, 36108, Note_on_c, 0, 72, 0
2, 36120, Note_on_c, 0, 76, 100
2, 36228, Note_on_c, 0, 76, 0
2, 36240, Note_on_c, 0, 67, 100
2, 36348, Note_on_c, 0, 67, 0
2, 36360, Note_on_c, 0, 71, 100
2, 36468, Note_on_c, 0, 71, 0
2, 36480, Note_on_c, 0, 69, 100
2, 36588, Note_on_c, 0, 69, 0
2, 36600, Note_on_c, 0, 72, 100
2, 36708, Note_on_c, 0, 72, 0
2, 36720, Note_on_c, 0, 65, 100
2, 36828, Note_on_c, 0, 65, 0
2, 36840, Note_on_c, 0, 69, 100
2, 36948, Note_on_c, 0, 69, 0
2, 36960, Note_on_c, 0, 71, 100
2, 37068, Note_on_c, 0, 71, 0
2, 37080, Note_on_c, 0, 74, 100
2, 37188, Note_on_c, 0, 74, 0
2, 37200, Note_on_c, 0, 65, 100
2, 37308, Note_on_c, 0, 65, 0
2, 37320, Note_on_c, 0, 69, 100
2, 37428, Note_on_c, 0, 69, 0
2, 37440, Note_on_c, 0, 67, 100
2, 37548, Note_on_c, 0, 67, 0
2, 37560, Note_on_c, 0, 71, 100
2, 37668, Note_on_c, 0, 71, 0
2, 37680, Note_on_c, 0, 64, 100
2, 37788, Note_on_c, 0, 64, 0
2, 37800, Note_on_c, 0, 67, 100
2, 37908, Note_on_c, 0, 67, 0
2, 37920, Note_on_c, 0, 69, 100
2, 38028, Note_on_c, 0, 69, 0
2, 38040, Note_on_c, 0, 72, 100
2, 38148, Note_on_c, 0, 72, 0
2, 38160, Note_on_c, 0, 64, 100
2, 38268, Note_on_c, 0, 64, 0
2, 38280, Note_on_c, 0, 67, 100
2, 38388, Note_on_c, 0, 67, 0
2, 38400, Note_on_c, 0, 65, 100
2, 38508, Note_on_c, 0, 65, 0
2, 38520, Note_on_c, 0, 69, 100
2, 38628, Note_on_c, 0, 69, 0
2, 38640, Note_on_c, 0, 62, 100
2, 38748, Note_on_c, 0, 62, 0
2, 38760, Note_on_c, 0, 65, 100
2, 38868, Note_on_c, 0, 65, 0
2, 38880, Note_on_c, 0, 67, 100
2, 38988, Note_on_c, 0, 67, 0
2, 39000, Note_on_c, 0, 71, 100
2, 39108, Note_on_c, 0, 71, 0
2, 39120, Note_on_c, 0, 62, 100
2, 39228, Note_on_c, 0, 62, 0
2, 39240, Note_on_c, 0, 65, 100
2, 39348, Note_on_c, 0, 65, 0
2, 39360, Note_on_c, 0, 64, 100
2, 39576, Note_on_c, 0, 64, 0
2, 39600, Note_on_c, 0, 67, 100
2, 39672, Note_on_c, 0, 67, 0
2, 39680, Note_on_c, 0, 65, 100
2, 39752, Note_on_c, 0, 65, 0
2, 39760, Note_on_c, 0, 67, 100
2, 39832, Note_on_c, 0, 67, 0
2, 39840, Note_on_c, 0, 69, 100
2, 39912, Note_on_c, 0, 69, 0
2, 39920, Note_on_c, 0, 67, 100
2, 39992, Note_on_c, 0, 67, 0
2, 40000, Note_on_c, 0, 69, 100
2, 40072, Note_on_c, 0, 69, 0
2, 40080, Note_on_c, 0, 71, 100
2, 40152, Note_on_c, 0, 71, 0
2, 40160, Note_on_c, 0, 69, 100
2, 40232, Note_on_c, 0, 69, 0
2, 40240, Note_on_c, 0, 71, 100
2, 40312, Note_on_c, 0, 71, 0
2, 40320, Note_on_c, 0, 72, 100
2, 40872, Note_on_c, 0, 72, 0
2, 40880, Note_on_c, 0, 74, 100
2, 40952, Note_on_c, 0, 74, 0
2, 40960, Note_on_c, 0, 72, 100
2, 41032, Note_on_c, 0, 72, 0
2, 41040, Note_on_c, 0, 70, 100
2, 41112, Note_on_c, 0, 70, 0
2, 41120, Note_on_c, 0, 72, 100
2, 41192, Note_on_c, 0, 72, 0
2, 41200, Note_on_c, 0, 70, 100
2, 41272, Note_on_c, 0, 70, 0
2, 41280, Note_on_c, 0, 69, 100
2, 41496, Note_on_c, 0, 69, 0
2, 42480, Note_on_c, 0, 74, 100
2, 42552, Note_on_c, 0, 74, 0
2, 42560, Note_on_c, 0, 72, 100
2, 42632, Note_on_c, 0, 72, 0
2, 42640, Note_on_c, 0, 74, 100
2, 42712, Note_on_c, 0, 74, 0
2, 42720, Note_on_c, 0, 76, 100
2, 42792, Note_on_c, 0, 76, 0
2, 42800, Note_on_c, 0, 74, 100
2, 42872, Note_on_c, 0, 74, 0
2, 42880, Note_on_c, 0, 76, 100
2, 42952, Note_on_c, 0, 76, 0
2, 42960, Note_on_c, 0, 78, 100
2, 43032, Note_on_c, 0, 78, 0
2, 43040, Note_on_c, 0, 76, 100
2, 43112, Note_on_c, 0, 76, 0
2, 43120, Note_on_c, 0, 78, 100
2, 43192, Note_on_c, 0, 78, 0
2, 43200, Note_on_c, 0, 79, 100
2, 43416, Note_on_c, 0, 79, 0
2, 44400, Note_on_c, 0, 76, 100
2, 44472, Note_on_c, 0, 76, 0
2, 44480, Note_on_c, 0, 74, 100
2, 44552, Note_on_c, 0, 74, 0
2, 44560, Note_on_c, 0, 76, 100
2, 44632, Note_on_c, 0, 76, 0
2, 44640, Note_on_c, 0, 78, 100
2, 44712, Note_on_c, 0, 78, 0
2, 44720, Note_on_c, 0, 76, 100
2, 44792, Note_on_c, 0, 76, 0
2, 44800, Note_on_c, 0, 78, 100
2, 44872, Note_on_c, 0, 78, 0
2, 44880, Note_on_c, 0, 80, 100
2, 44952, Note_on_c, 0, 80, 0
2, 44960, Note_on_c, 0, 78, 100
2, 45032, Note_on_c, 0, 78, 0
2, 45040, Note_on_c, 0, 80, 100
2, 45112, Note_on_c, 0, 80, 0
2, 45120, Note_on_c, 0, 81, 100
2, 45708, Note_on_c, 0, 81, 0
2, 45720, Note_on_c, 0, 84, 100
2, 45828, Note_on_c, 0, 84, 0
2, 45840, Note_on_c, 0, 83, 100
2, 45948, Note_on_c, 0, 83, 0
2, 45960, Note_on_c, 0, 81, 100
2, 46068, Note_on_c, 0, 81, 0
2, 46080, Note_on_c, 0, 80, 100
2, 46296, Note_on_c, 0, 80, 0
2, 46320, Note_on_c, 0, 76, 100
2, 46536, Note_on_c, 0, 76, 0
2, 46560, Note_on_c, 0, 81, 100
2, 46776, Note_on_c, 0, 81, 0
2, 46800, Note_on_c, 0, 76, 100
2, 47016, Note_on_c, 0, 76, 0
2, 47040, Note_on_c, 0, 77, 100
2, 47256, Note_on_c, 0, 77, 0
2, 47280, Note_on_c, 0, 74, 100
2, 47496, Note_on_c, 0, 74, 0
2, 47520, Note_on_c, 0, 79, 100
2, 47628, Note_on_c, 0, 79, 0
2, 47640, Note_on_c, 0, 77, 100
2, 47748, Note_on_c, 0, 77, 0
2, 47760, Note_on_c, 0, 76, 100
2, 47868, Note_on_c, 0, 76, 0
2, 47880, Note_on_c, 0, 74, 100
2, 47988, Note_on_c, 0, 74, 0
2, 48000, Note_on_c, 0, 77, 100
2, 48108, Note_on_c, 0, 77, 0
2, 48120, Note_on_c, 0, 76, 100
2, 48228, Note_on_c, 0, 76, 0
2, 48240, Note_on_c, 0, 74, 100
2, 48348, Note_on_c, 0, 74, 0
2, 48360, Note_on_c, 0, 72, 100
2, 48468, Note_on_c, 0, 72, 0
2, 48480, Note_on_c, 0, 77, 100
2, 48696, Note_on_c, 0, 77, 0
2, 48720, Note_on_c, 0, 72, 100
2, 48936, Note_on_c, 0, 72, 0
2, 48960, Note_on_c, 0, 74, 100
2, 49176, Note_on_c, 0, 74, 0
2, 49200, Note_on_c, 0, 71, 100
2, 49416, Note_on_c, 0, 71, 0
2, 49440, Note_on_c, 0, 76, 100
2, 49548, Note_on_c, 0, 76, 0
2, 49560, Note_on_c, 0, 74, 100
2, 49668, Note_on_c, 0, 74, 0
2, 49680, Note_on_c, 0, 72, 100
2, 49788, Note_on_c, 0, 72, 0
2, 49800, Note_on_c, 0, 71, 100
2, 49908, Note_on_c, 0, 71, 0
2, 49920, Note_on_c, 0, 72, 100
2, 50028, Note_on_c, 0, 72, 0
2, 50040, Note_on_c, 0, 76, 100
2, 50148, Note_on_c, 0, 76, 0
2, 50160, Note_on_c, 0, 69, 100
2, 50268, Note_on_c, 0, 69, 0
2, 50280, Note_on_c, 0, 72, 100
2, 50388, Note_on_c, 0, 72, 0
2, 50400, Note_on_c, 0, 74, 100
2, 50508, Note_on_c, 0, 74, 0
2, 50520, Note_on_c, 0, 77, 100
2, 50628, Note_on_c, 0, 77, 0
2, 50640, Note_on_c, 0, 69, 100
2, 50748, Note_on_c, 0, 69, 0
2, 50760, Note_on_c, 0, 74, 100
2, 50868, Note_on_c, 0, 74, 0
2, 50880, Note_on_c, 0, 72, 100
2, 50988, Note_on_c, 0, 72, 0
2, 51000, Note_on_c, 0, 76, 100
2, 51108, Note_on_c, 0, 76, 0
2, 51120, Note_on_c, 0, 69, 100
2, 51228, Note_on_c, 0, 69, 0
2, 51240, Note_on_c, 0, 72, 100
2, 51348, Note_on_c, 0, 72, 0
2, 51360, Note_on_c, 0, 74, 100
2, 51468, Note_on_c, 0, 74, 0
2, 51480, Note_on_c, 0, 77, 100
2, 51588, Note_on_c, 0, 77, 0
2, 51600, Note_on_c, 0, 69, 100
2, 51708, Note_on_c, 0, 69, 0
2, 51720, Note_on_c, 0, 74, 100
2, 51828, Note_on_c, 0, 74, 0
2, 51840, Note_on_c, 0, 72, 100
2, 51948, Note_on_c, 0, 72, 0
2, 51960, Note_on_c, 0, 71, 100
2, 52068, Note_on_c, 0, 71, 0
2, 52080, Note_on_c, 0, 69, 100
2, 52188, Note_on_c, 0, 69, 0
2, 52200, Note_on_c, 0, 71, 100
2, 52308, Note_on_c, 0, 71, 0
2, 52320, Note_on_c, 0, 72, 100
2, 52428, Note_on_c, 0, 72, 0
2, 52440, Note_on_c, 0, 74, 100
2, 52548, Note_on_c, 0, 74, 0
2, 52560, Note_on_c, 0, 72, 100
2, 52668, Note_on_c, 0, 72, 0
2, 52680, Note_on_c, 0, 74, 100
2, 52788, Note_on_c, 0, 74, 0
2, 52800, Note_on_c, 0, 76, 100
2, 53016, Note_on_c, 0, 76, 0
2, 53040, Note_on_c, 0, 69, 100
2, 53256, Note_on_c, 0, 69, 0
2, 53280, Note_on_c, 0, 64, 100
2, 53496, Note_on_c, 0, 64, 0
2, 53520, Note_on_c, 0, 68, 100
2, 53736, Note_on_c, 0, 68, 0
2, 53760, Note_on_c, 0, 69, 100
2, 54348, Note_on_c, 0, 69, 0
2, 54360, Note_on_c, 0, 71, 100
2, 54468, Note_on_c, 0, 71, 0
2, 54480, Note_on_c, 0, 69, 100
2, 54588, Note_on_c, 0, 69, 0
2, 54600, Note_on_c, 0, 71, 100
2, 54708, Note_on_c, 0, 71, 0
2, 54720, Note_on_c, 0, 69, 100
2, 55308, Note_on_c, 0, 69, 0
2, 55320, Note_on_c, 0, 71, 100
2, 55428, Note_on_c, 0, 71, 0
2, 55440, Note_on_c, 0, 69, 100
2, 55548, Note_on_c, 0, 69, 0
2, 55560, Note_on_c, 0, 71, 100
2, 55668, Note_on_c, 0, 71, 0
2, 55680, Note_on_c, 0, 69, 100
2, 55896, Note_on_c, 0, 69, 0
2, 57360, Note_on_c, 0, 66, 100
2, 57360, Note_on_c, 0, 69, 100
2, 57360, Note_on_c, 0, 71, 100
2, 57360, Note_on_c, 0, 75, 100
2, 57576, Note_on_c, 0, 66, 0
2, 57576, Note_on_c, 0, 69, 0
2, 57576, Note_on_c, 0, 71, 0
2, 57576, Note_on_c, 0, 75, 0
2, 57600, Note_on_c, 0, 67, 100
2, 57600, Note_on_c, 0, 71, 100
2, 57600, Note_on_c, 0, 76, 100
2, 57816, Note_on_c, 0, 67, 0
2, 57816, Note_on_c, 0, 71, 0
2, 57816, Note_on_c, 0, 76, 0
2, 59280, Note_on_c, 0, 67, 100
2, 59280, Note_on_c, 0, 69, 100
2, 59280, Note_on_c, 0, 73, 100
2, 59496, Note_on_c, 0, 67, 0
2, 59496, Note_on_c, 0, 69, 0
2, 59496, Note_on_c, 0, 73, 0
2, 59520, Note_on_c, 0, 65, 100
2, 59520, Note_on_c, 0, 69, 100
2, 59520, Note_on_c, 0, 74, 100
2, 59736, Note_on_c, 0, 65, 0
2, 59736, Note_on_c, 0, 69, 0
2, 59736, Note_on_c, 0, 74, 0
2, 61200, Note_on_c, 0, 65, 100
2, 61200, Note_on_c, 0, 67, 100
2, 61200, Note_on_c, 0, 71, 100
2, 61416, Note_on_c, 0, 65, 0
2, 61416, Note_on_c, 0, 67, 0
2, 61416, Note_on_c, 0, 71, 0
2, 61440, Note_on_c, 0, 64, 100
2, 61440, Note_on_c, 0, 67, 100
2, 61440, Note_on_c, 0, 72, 100
2, 61656, Note_on_c, 0, 64, 0
2, 61656, Note_on_c, 0, 67, 0
2, 61656, Note_on_c, 0, 72, 0
2, 76080, Note_on_c, 0, 71, 100
2, 76296, Note_on_c, 0, 71, 0
2, 76320, Note_on_c, 0, 67, 100
2, 76536, Note_on_c, 0, 67, 0
2, 76560, Note_on_c, 0, 64, 100
2, 76776, Note_on_c, 0, 64, 0
2, 77040, Note_on_c, 0, 78, 100
2, 77256, Note_on_c, 0, 78, 0
2, 77280, Note_on_c, 0, 74, 100
2, 77496, Note_on_c, 0, 74, 0
2, 77520, Note_on_c, 0, 71, 100
2, 77736, Note_on_c, 0, 71, 0
2, 78000, Note_on_c, 0, 76, 100
2, 78108, Note_on_c, 0, 76, 0
2, 78120, Note_on_c, 0, 75, 100
2, 78228, Note_on_c, 0, 75, 0
2, 78240, Note_on_c, 0, 76, 100
2, 78348, Note_on_c, 0, 76, 0
2, 78360, Note_on_c, 0, 78, 100
2, 78468, Note_on_c, 0, 78, 0
2, 78480, Note_on_c, 0, 79, 100
2, 78588, Note_on_c, 0, 79, 0
2, 78600, Note_on_c, 0, 81, 100
2, 78708, Note_on_c, 0, 81, 0
2, 78720, Note_on_c, 0, 83, 100
2, 78828, Note_on_c, 0, 83, 0
2, 78840, Note_on_c, 0, 78, 100
2, 78948, Note_on_c, 0, 78, 0
2, 78960, Note_on_c, 0, 75, 100
2, 79068, Note_on_c, 0, 75, 0
2, 79080, Note_on_c, 0, 78, 100
2, 79188, Note_on_c, 0, 78, 0
2, 79200, Note_on_c, 0, 83, 100
2, 79788, Note_on_c, 0, 83, 0
2, 79800, Note_on_c, 0, 76, 100
2, 79908, Note_on_c, 0, 76, 0
2, 79920, Note_on_c, 0, 72, 100
2, 80028, Note_on_c, 0, 72, 0
2, 80040, Note_on_c, 0, 76, 100
2, 80148, Note_on_c, 0, 76, 0
2, 80160, Note_on_c, 0, 81, 100
2, 80748, Note_on_c, 0, 81, 0
2, 80760, Note_on_c, 0, 74, 100
2, 80868, Note_on_c, 0, 74, 0
2, 80880, Note_on_c, 0, 71, 100
2, 80988, Note_on_c, 0, 71, 0
2, 81000, Note_on_c, 0, 74, 100
2, 81108, Note_on_c, 0, 74, 0
2, 81120, Note_on_c, 0, 79, 100
2, 81708, Note_on_c, 0, 79, 0
2, 81720, Note_on_c, 0, 72, 100
2, 81828, Note_on_c, 0, 72, 0
2, 81840, Note_on_c, 0, 69, 100
2, 81948, Note_on_c, 0, 69, 0
2, 81960, Note_on_c, 0, 72, 100
2, 82068, Note_on_c, 0, 72, 0
2, 82080, Note_on_c, 0, 78, 100
2, 82188, Note_on_c, 0, 78, 0
2, 82200, Note_on_c, 0, 74, 100
2, 82308, Note_on_c, 0, 74, 0
2, 82320, Note_on_c, 0, 71, 100
2, 82428, Note_on_c, 0, 71, 0
2, 82440, Note_on_c, 0, 74, 100
2, 82548, Note_on_c, 0, 74, 0
2, 82560, Note_on_c, 0, 76, 100
2, 82776, Note_on_c, 0, 76, 0
2, 82800, Note_on_c, 0, 64, 100
2, 83016, Note_on_c, 0, 64, 0
2, 83040, Note_on_c, 0, 76, 100
2, 83628, Note_on_c, 0, 76, 0
2, 83640, Note_on_c, 0, 77, 100
2, 83748, Note_on_c, 0, 77, 0
2, 83760, Note_on_c, 0, 76, 100
2, 83868, Note_on_c, 0, 76, 0
2, 83880, Note_on_c, 0, 77, 100
2, 83988, Note_on_c, 0, 77, 0
2, 84000, Note_on_c, 0, 76, 100
2, 84696, Note_on_c, 0, 76, 0
2, 85680, Note_on_c, 0, 76, 100
2, 85752, Note_on_c, 0, 76, 0
2, 85760, Note_on_c, 0, 74, 100
2, 85832, Note_on_c, 0, 74, 0
2, 85840, Note_on_c, 0, 76, 100
2, 85912, Note_on_c, 0, 76, 0
2, 85920, Note_on_c, 0, 78, 100
2, 85992, Note_on_c, 0, 78, 0
2, 86000, Note_on_c, 0, 76, 100
2, 86072, Note_on_c, 0, 76, 0
2, 86080, Note_on_c, 0, 78, 100
2, 86152, Note_on_c, 0, 78, 0
2, 86160, Note_on_c, 0, 80, 100
2, 86232, Note_on_c, 0, 80, 0
2, 86240, Note_on_c, 0, 78, 100
2, 86312, Note_on_c, 0, 78, 0
2, 86320, Note_on_c, 0, 80, 100
2, 86392, Note_on_c, 0, 80, 0
2, 86400, Note_on_c, 0, 81, 100
2, 86616, Note_on_c, 0, 81, 0
2, 87600, Note_on_c, 0, 69, 100
2, 87672, Note_on_c, 0, 69, 0
2, 87680, Note_on_c, 0, 67, 100
2, 87752, Note_on_c, 0, 67, 0
2, 87760, Note_on_c, 0, 69, 100
2, 87832, Note_on_c, 0, 69, 0
2, 87840, Note_on_c, 0, 71, 100
2, 87912, Note_on_c, 0, 71, 0
2, 87920, Note_on_c, 0, 69, 100
2, 87992, Note_on_c, 0, 69, 0
2, 88000, Note_on_c, 0, 71, 100
2, 88072, Note_on_c, 0, 71, 0
2, 88080, Note_on_c, 0, 73, 100
2, 88152, Note_on_c, 0, 73, 0
2, 88160, Note_on_c, 0, 71, 100
2, 88232, Note_on_c, 0, 71, 0
2, 88240, Note_on_c, 0, 73, 100
2, 88312, Note_on_c, 0, 73, 0
2, 88320, Note_on_c, 0, 74, 100
2, 88536, Note_on_c, 0, 74, 0
2, 89520, Note_on_c, 0, 74, 100
2, 89592, Note_on_c, 0, 74, 0
2, 89600, Note_on_c, 0, 72, 100
2, 89672, Note_on_c, 0, 72, 0
2, 89680, Note_on_c, 0, 74, 100
2, 89752, Note_on_c, 0, 74, 0
2, 89760, Note_on_c, 0, 76, 100
2, 89832, Note_on_c, 0, 76, 0
2, 89840, Note_on_c, 0, 74, 100
2, 89912, Note_on_c, 0, 74, 0
2, 89920, Note_on_c, 0, 76, 100
2, 89992, Note_on_c, 0, 76, 0
2, 90000, Note_on_c, 0, 78, 100
2, 90072, Note_on_c, 0, 78, 0
2, 90080, Note_on_c, 0, 76, 100
2, 90152, Note_on_c, 0, 76, 0
2, 90160, Note_on_c, 0, 78, 100
2, 90232, Note_on_c, 0, 78, 0
2, 90240, Note_on_c, 0, 79, 100
2, 90456, Note_on_c, 0, 79, 0
2, 91440, Note_on_c, 0, 79, 100
2, 91512, Note_on_c, 0, 79, 0
2, 91520, Note_on_c, 0, 77, 100
2, 91592, Note_on_c, 0, 77, 0
2, 91600, Note_on_c, 0, 79, 100
2, 91672, Note_on_c, 0, 79, 0
2, 91680, Note_on_c, 0, 81, 100
2, 91752, Note_on_c, 0, 81, 0
2, 91760, Note_on_c, 0, 79, 100
2, 91832, Note_on_c, 0, 79, 0
2, 91840, Note_on_c, 0, 81, 100
2, 91912, Note_on_c, 0, 81, 0
2, 91920, Note_on_c, 0, 83, 100
2, 91992, Note_on_c, 0, 83, 0
2, 92000, Note_on_c, 0, 81, 100
2, 92072, Note_on_c, 0, 81, 0
2, 92080, Note_on_c, 0, 83, 100
2, 92152, Note_on_c, 0, 83, 0
2, 92160, Note_on_c, 0, 84, 100
2, 92232, Note_on_c, 0, 84, 0
2, 92240, Note_on_c, 0, 83, 100
2, 92312, Note_on_c, 0, 83, 0
2, 92320, Note_on_c, 0, 84, 100
2, 92392, Note_on_c, 0, 84, 0
2, 92400, Note_on_c, 0, 79, 100
2, 92472, Note_on_c, 0, 79, 0
2, 92480, Note_on_c, 0, 81, 100
2, 92552, Note_on_c, 0, 81, 0
2, 92560, Note_on_c, 0, 82, 100
2, 92632, Note_on_c, 0, 82, 0
2, 92640, Note_on_c, 0, 81, 100
2, 92712, Note_on_c, 0, 81, 0
2, 92720, Note_on_c, 0, 79, 100
2, 92792, Note_on_c, 0, 79, 0
2, 92800, Note_on_c, 0, 81, 100
2, 92872, Note_on_c, 0, 81, 0
2, 92880, Note_on_c, 0, 77, 100
2, 92952, Note_on_c, 0, 77, 0
2, 92960, Note_on_c, 0, 79, 100
2, 93032, Note_on_c, 0, 79, 0
2, 93040, Note_on_c, 0, 81, 100
2, 93112, Note_on_c, 0, 81, 0
2, 93120, Note_on_c, 0, 79, 100
2, 93192, Note_on_c, 0, 79, 0
2, 93200, Note_on_c, 0, 77, 100
2, 93272, Note_on_c, 0, 77, 0
2, 93280, Note_on_c, 0, 79, 100
2, 93352, Note_on_c, 0, 79, 0
2, 93360, Note_on_c, 0, 76, 100
2, 93432, Note_on_c, 0, 76, 0
2, 93440, Note_on_c, 0, 77, 100
2, 93512, Note_on_c, 0, 77, 0
2, 93520, Note_on_c, 0, 79, 100
2, 93592, Note_on_c, 0, 79, 0
2, 93600, Note_on_c, 0, 77, 100
2, 93672, Note_on_c, 0, 77, 0
2, 93680, Note_on_c, 0, 76, 100
2, 93752, Note_on_c, 0, 76, 0
2, 93760, Note_on_c, 0, 77, 100
2, 93832, Note_on_c, 0, 77, 0
2, 93840, Note_on_c, 0, 74, 100
2, 93912, Note_on_c, 0, 74, 0
2, 93920, Note_on_c, 0, 76, 100
2, 93992, Note_on_c, 0, 76, 0
2, 94000, Note_on_c, 0, 77, 100
2, 94072, Note_on_c, 0, 77, 0
2, 94080, Note_on_c, 0, 76, 100
2, 94152, Note_on_c, 0, 76, 0
2, 94160, Note_on_c, 0, 77, 100
2, 94232, Note_on_c, 0, 77, 0
2, 94240, Note_on_c, 0, 79, 100
2, 94312, Note_on_c, 0, 79, 0
2, 94320, Note_on_c, 0, 72, 100
2, 94392, Note_on_c, 0, 72, 0
2, 94400, Note_on_c, 0, 74, 100
2, 94472, Note_on_c, 0, 74, 0
2, 94480, Note_on_c, 0, 76, 100
2, 94552, Note_on_c, 0, 76, 0
2, 94560, Note_on_c, 0, 69, 100
2, 94632, Note_on_c, 0, 69, 0
2, 94640, Note_on_c, 0, 71, 100
2, 94712, Note_on_c, 0, 71, 0
2, 94720, Note_on_c, 0, 72, 100
2, 94792, Note_on_c, 0, 72, 0
2, 94800, Note_on_c, 0, 74, 100
2, 94872, Note_on_c, 0, 74, 0
2, 94880, Note_on_c, 0, 76, 100
2, 94952, Note_on_c, 0, 76, 0
2, 94960, Note_on_c, 0, 77, 100
2, 95032, Note_on_c, 0, 77, 0
2, 95040, Note_on_c, 0, 71, 100
2, 95148, Note_on_c, 0, 71, 0
2, 95160, Note_on_c, 0, 74, 100
2, 95268, Note_on_c, 0, 74, 0
2, 95280, Note_on_c, 0, 67, 100
2, 95388, Note_on_c, 0, 67, 0
2, 95400, Note_on_c, 0, 71, 100
2, 95508, Note_on_c, 0, 71, 0
2, 95520, Note_on_c, 0, 72, 100
2, 95628, Note_on_c, 0, 72, 0
2, 95640, Note_on_c, 0, 76, 100
2, 95748, Note_on_c, 0, 76, 0
2, 95760, Note_on_c, 0, 67, 100
2, 95868, Note_on_c, 0, 67, 0
2, 95880, Note_on_c, 0, 72, 100
2, 95988, Note_on_c, 0, 72, 0
2, 96000, Note_on_c, 0, 71, 100
2, 96108, Note_on_c, 0, 71, 0
2, 96120, Note_on_c, 0, 74, 100
2, 96228, Note_on_c, 0, 74, 0
2, 96240, Note_on_c, 0, 67, 100
2, 96348, Note_on_c, 0, 67, 0
2, 96360, Note_on_c, 0, 71, 100
2, 96468, Note_on_c, 0, 71, 0
2, 96480, Note_on_c, 0, 72, 100
2, 96588, Note_on_c, 0, 72, 0
2, 96600, Note_on_c, 0, 76, 100
2, 96708, Note_on_c, 0, 76, 0
2, 96720, Note_on_c, 0, 67, 100
2, 96828, Note_on_c, 0, 67, 0
2, 96840, Note_on_c, 0, 72, 100
2, 96948, Note_on_c, 0, 72, 0
2, 96960, Note_on_c, 0, 71, 100
2, 97176, Note_on_c, 0, 71, 0
2, 121080, Note_on_c, 0, 55, 100
2, 121188, Note_on_c, 0, 55, 0
2, 121200, Note_on_c, 0, 57, 100
2, 121308, Note_on_c, 0, 57, 0
2, 121320, Note_on_c, 0, 58, 100
2, 121428, Note_on_c, 0, 58, 0
2, 121440, Note_on_c, 0, 60, 100
2, 121560, Note_on_c, 0, 53, 100
2, 121668, Note_on_c, 0, 53, 0
2, 121680, Note_on_c, 0, 55, 100
2, 121788, Note_on_c, 0, 55, 0
2, 121800, Note_on_c, 0, 52, 100
2, 121872, Note_on_c, 0, 60, 0
2, 121908, Note_on_c, 0, 52, 0
2, 121920, Note_on_c, 0, 48, 100
2, 121974, Note_on_c, 0, 48, 0
2, 121980, Note_on_c, 0, 58, 100
2, 122034, Note_on_c, 0, 58, 0
2, 122040, Note_on_c, 0, 57, 100
2, 122094, Note_on_c, 0, 57, 0
2, 122100, Note_on_c, 0, 55, 100
2, 122154, Note_on_c, 0, 55, 0
2, 122160, Note_on_c, 0, 53, 100
2, 122376, Note_on_c, 0, 53, 0
2, 123000, Note_on_c, 0, 62, 100
2, 123108, Note_on_c, 0, 62, 0
2, 123120, Note_on_c, 0, 64, 100
2, 123228, Note_on_c, 0, 64, 0
2, 123240, Note_on_c, 0, 65, 100
2, 123348, Note_on_c, 0, 65, 0
2, 123360, Note_on_c, 0, 67, 100
2, 123480, Note_on_c, 0, 60, 100
2, 123588, Note_on_c, 0, 60, 0
2, 123600, Note_on_c, 0, 62, 100
2, 123708, Note_on_c, 0, 62, 0
2, 123720, Note_on_c, 0, 59, 100
2, 123828, Note_on_c, 0, 59, 0
2, 123840, Note_on_c, 0, 64, 100
2, 123948, Note_on_c, 0, 67, 0
2, 123948, Note_on_c, 0, 64, 0
2, 123960, Note_on_c, 0, 79, 100
2, 123960, Note_on_c, 0, 64, 100
2, 124068, Note_on_c, 0, 79, 0
2, 124068, Note_on_c, 0, 64, 0
2, 124080, Note_on_c, 0, 81, 100
2, 124080, Note_on_c, 0, 66, 100
2, 124188, Note_on_c, 0, 81, 0
2, 124188, Note_on_c, 0, 66, 0
2, 124200, Note_on_c, 0, 83, 100
2, 124200, Note_on_c, 0, 67, 100
2, 124308, Note_on_c, 0, 83, 0
2, 124308, Note_on_c, 0, 67, 0
2, 124320, Note_on_c, 0, 84, 100
2, 124320, Note_on_c, 0, 69, 100
2, 124908, Note_on_c, 0, 84, 0
2, 124920, Note_on_c, 0, 83, 100
2, 125016, Note_on_c, 0, 69, 0
2, 125028, Note_on_c, 0, 83, 0
2, 125040, Note_on_c, 0, 84, 100
2, 125040, Note_on_c, 0, 62, 100
2, 125148, Note_on_c, 0, 84, 0
2, 125160, Note_on_c, 0, 83, 100
2, 125256, Note_on_c, 0, 62, 0
2, 125268, Note_on_c, 0, 83, 0
2, 125280, Note_on_c, 0, 84, 100
2, 125280, Note_on_c, 0, 74, 100
2, 125388, Note_on_c, 0, 84, 0
2, 125400, Note_on_c, 0, 83, 100
2, 125508, Note_on_c, 0, 83, 0
2, 125520, Note_on_c, 0, 84, 100
2, 125628, Note_on_c, 0, 84, 0
2, 125640, Note_on_c, 0, 81, 100
2, 125748, Note_on_c, 0, 81, 0
2, 125760, Note_on_c, 0, 83, 100
2, 125976, Note_on_c, 0, 74, 0
2, 126624, Note_on_c, 0, 83, 0
2, 126720, Note_on_c, 0, 81, 100
2, 127896, Note_on_c, 0, 81, 0
2, 127920, Note_on_c, 0, 79, 100
2, 128028, Note_on_c, 0, 79, 0
2, 128040, Note_on_c, 0, 78, 100
2, 128148, Note_on_c, 0, 78, 0
2, 128160, Note_on_c, 0, 76, 100
2, 128268, Note_on_c, 0, 76, 0
2, 128280, Note_on_c, 0, 79, 100
2, 128388, Note_on_c, 0, 79, 0
2, 128400, Note_on_c, 0, 78, 100
2, 128508, Note_on_c, 0, 78, 0
2, 128520, Note_on_c, 0, 76, 100
2, 128628, Note_on_c, 0, 76, 0
2, 128640, Note_on_c, 0, 74, 100
2, 129504, Note_on_c, 0, 74, 0
2, 129600, Note_on_c, 0, 72, 100
2, 130464, Note_on_c, 0, 72, 0
2, 130560, Note_on_c, 0, 71, 100
2, 131424, Note_on_c, 0, 71, 0
2, 131520, Note_on_c, 0, 69, 100
2, 132384, Note_on_c, 0, 69, 0
2, 132480, Note_on_c, 0, 67, 100
2, 133068, Note_on_c, 0, 67, 0
2, 133080, Note_on_c, 0, 69, 100
2, 133188, Note_on_c, 0, 69, 0
2, 133200, Note_on_c, 0, 67, 100
2, 133308, Note_on_c, 0, 67, 0
2, 133320, Note_on_c, 0, 69, 100
2, 133428, Note_on_c, 0, 69, 0
2, 133440, Note_on_c, 0, 67, 100
2, 134028, Note_on_c, 0, 67, 0
2, 134040, Note_on_c, 0, 69, 100
2, 134148, Note_on_c, 0, 69, 0
2, 134160, Note_on_c, 0, 67, 100
2, 134268, Note_on_c, 0, 67, 0
2, 134280, Note_on_c, 0, 69, 100
2, 134388, Note_on_c, 0, 69, 0
2, 134400, Note_on_c, 0, 67, 100
2, 134454, Note_on_c, 0, 67, 0
2, 134460, Note_on_c, 0, 62, 100
2, 134514, Note_on_c, 0, 62, 0
2, 134520, Note_on_c, 0, 64, 100
2, 134574, Note_on_c, 0, 64, 0
2, 134580, Note_on_c, 0, 66, 100
2, 134634, Note_on_c, 0, 66, 0
2, 134640, Note_on_c, 0, 67, 100
2, 134694, Note_on_c, 0, 67, 0
2, 134700, Note_on_c, 0, 69, 100
2, 134754, Note_on_c, 0, 69, 0
2, 134760, Note_on_c, 0, 71, 100
2, 134814, Note_on_c, 0, 71, 0
2, 134820, Note_on_c, 0, 72, 100
2, 134874, Note_on_c, 0, 72, 0
2, 134880, Note_on_c, 0, 74, 100
2, 134934, Note_on_c, 0, 74, 0
2, 134940, Note_on_c, 0, 72, 100
2, 134994, Note_on_c, 0, 72, 0
2, 135000, Note_on_c, 0, 71, 100
2, 135054, Note_on_c, 0, 71, 0
2, 135060, Note_on_c, 0, 72, 100
2, 135114, Note_on_c, 0, 72, 0
2, 135120, Note_on_c, 0, 74, 100
2, 135174, Note_on_c, 0, 74, 0
2, 135180, Note_on_c, 0, 76, 100
2, 135234, Note_on_c, 0, 76, 0
2, 135240, Note_on_c, 0, 77, 100
2, 135294, Note_on_c, 0, 77, 0
2, 135300, Note_on_c, 0, 79, 100
2, 135354, Note_on_c, 0, 79, 0
2, 135360, Note_on_c, 0, 80, 100
2, 135414, Note_on_c, 0, 80, 0
2, 135420, Note_on_c, 0, 79, 100
2, 135474, Note_on_c, 0, 79, 0
2, 135480, Note_on_c, 0, 77, 100
2, 135534, Note_on_c, 0, 77, 0
2, 135540, Note_on_c, 0, 76, 100
2, 135594, Note_on_c, 0, 76, 0
2, 135600, Note_on_c, 0, 77, 100
2, 135708, Note_on_c, 0, 77, 0
2, 135720, Note_on_c, 0, 74, 100
2, 135828, Note_on_c, 0, 74, 0
2, 135840, Note_on_c, 0, 83, 100
2, 135948, Note_on_c, 0, 83, 0
2, 135960, Note_on_c, 0, 74, 100
2, 136068, Note_on_c, 0, 74, 0
2, 136080, Note_on_c, 0, 77, 100
2, 136188, Note_on_c, 0, 77, 0
2, 136200, Note_on_c, 0, 71, 100
2, 136308, Note_on_c, 0, 71, 0
2, 136320, Note_on_c, 0, 74, 100
2, 136374, Note_on_c, 0, 74, 0
2, 136380, Note_on_c, 0, 72, 100
2, 136434, Note_on_c, 0, 72, 0
2, 136440, Note_on_c, 0, 71, 100
2, 136494, Note_on_c, 0, 71, 0
2, 136500, Note_on_c, 0, 69, 100
2, 136554, Note_on_c, 0, 69, 0
2, 136560, Note_on_c, 0, 71, 100
2, 136668, Note_on_c, 0, 71, 0
2, 136680, Note_on_c, 0, 65, 100
2, 136788, Note_on_c, 0, 65, 0
2, 136800, Note_on_c, 0, 74, 100
2, 136908, Note_on_c, 0, 74, 0
2, 136920, Note_on_c, 0, 65, 100
2, 137028, Note_on_c, 0, 65, 0
2, 137040, Note_on_c, 0, 68, 100
2, 137148, Note_on_c, 0, 68, 0
2, 137160, Note_on_c, 0, 62, 100
2, 137268, Note_on_c, 0, 62, 0
2, 137280, Note_on_c, 0, 65, 100
2, 137334, Note_on_c, 0, 65, 0
2, 137340, Note_on_c, 0, 63, 100
2, 137394, Note_on_c, 0, 63, 0
2, 137400, Note_on_c, 0, 62, 100
2, 137454, Note_on_c, 0, 62, 0
2, 137460, Note_on_c, 0, 60, 100
2, 137514, Note_on_c, 0, 60, 0
2, 137520, Note_on_c, 0, 62, 100
2, 137628, Note_on_c, 0, 62, 0
2, 137640, Note_on_c, 0, 59, 100
2, 137748, Note_on_c, 0, 59, 0
2, 137760, Note_on_c, 0, 68, 100
2, 137868, Note_on_c, 0, 68, 0
2, 137880, Note_on_c, 0, 62, 100
2, 137988, Note_on_c, 0, 62, 0
2, 138000, Note_on_c, 0, 65, 100
2, 138108, Note_on_c, 0, 65, 0
2, 138120, Note_on_c, 0, 59, 100
2, 138228, Note_on_c, 0, 59, 0
2, 138240, Note_on_c, 0, 63, 100
2, 138294, Note_on_c, 0, 63, 0
2, 138300, Note_on_c, 0, 55, 100
2, 138354, Note_on_c, 0, 55, 0
2, 138360, Note_on_c, 0, 57, 100
2, 138414, Note_on_c, 0, 57, 0
2, 138420, Note_on_c, 0, 59, 100
2, 138474, Note_on_c, 0, 59, 0
2, 138480, Note_on_c, 0, 60, 100
2, 138534, Note_on_c, 0, 60, 0
2, 138540, Note_on_c, 0, 62, 100
2, 138594, Note_on_c, 0, 62, 0
2, 138600, Note_on_c, 0, 63, 100
2, 138654, Note_on_c, 0, 63, 0
2, 138660, Note_on_c, 0, 65, 100
2, 138714, Note_on_c, 0, 65, 0
2, 138720, Note_on_c, 0, 67, 100
2, 138774, Note_on_c, 0, 67, 0
2, 138780, Note_on_c, 0, 65, 100
2, 138834, Note_on_c, 0, 65, 0
2, 138840, Note_on_c, 0, 63, 100
2, 138894, Note_on_c, 0, 63, 0
2, 138900, Note_on_c, 0, 65, 100
2, 138954, Note_on_c, 0, 65, 0
2, 138960, Note_on_c, 0, 67, 100
2, 139014, Note_on_c, 0, 67, 0
2, 139020, Note_on_c, 0, 68, 100
2, 139074, Note_on_c, 0, 68, 0
2, 139080, Note_on_c, 0, 70, 100
2, 139134, Note_on_c, 0, 70, 0
2, 139140, Note_on_c, 0, 72, 100
2, 139194, Note_on_c, 0, 72, 0
2, 139200, Note_on_c, 0, 73, 100
2, 139254, Note_on_c, 0, 73, 0
2, 139260, Note_on_c, 0, 72, 100
2, 139314, Note_on_c, 0, 72, 0
2, 139320, Note_on_c, 0, 70, 100
2, 139374, Note_on_c, 0, 70, 0
2, 139380, Note_on_c, 0, 69, 100
2, 139434, Note_on_c, 0, 69, 0
2, 139440, Note_on_c, 0, 70, 100
2, 139548, Note_on_c, 0, 70, 0
2, 139560, Note_on_c, 0, 67, 100
2, 139668, Note_on_c, 0, 67, 0
2, 139680, Note_on_c, 0, 76, 100
2, 139788, Note_on_c, 0, 76, 0
2, 139800, Note_on_c, 0, 67, 100
2, 139908, Note_on_c, 0, 67, 0
2, 139920, Note_on_c, 0, 70, 100
2, 140028, Note_on_c, 0, 70, 0
2, 140040, Note_on_c, 0, 64, 100
2, 140148, Note_on_c, 0, 64, 0
2, 140160, Note_on_c, 0, 67, 100
2, 140214, Note_on_c, 0, 67, 0
2, 140220, Note_on_c, 0, 65, 100
2, 140274, Note_on_c, 0, 65, 0
2, 140280, Note_on_c, 0, 64, 100
2, 140334, Note_on_c, 0, 64, 0
2, 140340, Note_on_c, 0, 62, 100
2, 140394, Note_on_c, 0, 62, 0
2, 140400, Note_on_c, 0, 64, 100
2, 140508, Note_on_c, 0, 64, 0
2, 140520, Note_on_c, 0, 58, 100
2, 140628, Note_on_c, 0, 58, 0
2, 140640, Note_on_c, 0, 67, 100
2, 140748, Note_on_c, 0, 67, 0
2, 140760, Note_on_c, 0, 58, 100
2, 140868, Note_on_c, 0, 58, 0
2, 140880, Note_on_c, 0, 61, 100
2, 140988, Note_on_c, 0, 61, 0
2, 141000, Note_on_c, 0, 55, 100
2, 141108, Note_on_c, 0, 55, 0
2, 141120, Note_on_c, 0, 58, 100
2, 141174, Note_on_c, 0, 58, 0
2, 141180, Note_on_c, 0, 56, 100
2, 141234, Note_on_c, 0, 56, 0
2, 141240, Note_on_c, 0, 55, 100
2, 141294, Note_on_c, 0, 55, 0
2, 141300, Note_on_c, 0, 53, 100
2, 141354, Note_on_c, 0, 53, 0
2, 141360, Note_on_c, 0, 55, 100
2, 141468, Note_on_c, 0, 55, 0
2, 141480, Note_on_c, 0, 52, 100
2, 141588, Note_on_c, 0, 52, 0
2, 141600, Note_on_c, 0, 61, 100
2, 141708, Note_on_c, 0, 61, 0
2, 141720, Note_on_c, 0, 55, 100
2, 141828, Note_on_c, 0, 55, 0
2, 141840, Note_on_c, 0, 58, 100
2, 141948, Note_on_c, 0, 58, 0
2, 141960, Note_on_c, 0, 52, 100
2, 142068, Note_on_c, 0, 52, 0
2, 142080, Note_on_c, 0, 56, 100
2, 142134, Note_on_c, 0, 56, 0
2, 142140, Note_on_c, 0, 60, 100
2, 142194, Note_on_c, 0, 60, 0
2, 142200, Note_on_c, 0, 62, 100
2, 142254, Note_on_c, 0, 62, 0
2, 142260, Note_on_c, 0, 64, 100
2, 142314, Note_on_c, 0, 64, 0
2, 142320, Note_on_c, 0, 65, 100
2, 142374, Note_on_c, 0, 65, 0
2, 142380, Note_on_c, 0, 64, 100
2, 142434, Note_on_c, 0, 64, 0
2, 142440, Note_on_c, 0, 65, 100
2, 142494, Note_on_c, 0, 65, 0
2, 142500, Note_on_c, 0, 67, 100
2, 142554, Note_on_c, 0, 67, 0
2, 142560, Note_on_c, 0, 68, 100
2, 142614, Note_on_c, 0, 68, 0
2, 142620, Note_on_c, 0, 67, 100
2, 142674, Note_on_c, 0, 67, 0
2, 142680, Note_on_c, 0, 65, 100
2, 142734, Note_on_c, 0, 65, 0
2, 142740, Note_on_c, 0, 67, 100
2, 142794, Note_on_c, 0, 67, 0
2, 142800, Note_on_c, 0, 68, 100
2, 142854, Note_on_c, 0, 68, 0
2, 142860, Note_on_c, 0, 67, 100
2, 142914, Note_on_c, 0, 67, 0
2, 142920, Note_on_c, 0, 68, 100
2, 142974, Note_on_c, 0, 68, 0
2, 142980, Note_on_c, 0, 70, 100
2, 143034, Note_on_c, 0, 70, 0
2, 143040, Note_on_c, 0, 72, 100
2, 143094, Note_on_c, 0, 72, 0
2, 143100, Note_on_c, 0, 70, 100
2, 143154, Note_on_c, 0, 70, 0
2, 143160, Note_on_c, 0, 68, 100
2, 143214, Note_on_c, 0, 68, 0
2, 143220, Note_on_c, 0, 67, 100
2, 143274, Note_on_c, 0, 67, 0
2, 143280, Note_on_c, 0, 68, 100
2, 143388, Note_on_c, 0, 68, 0
2, 143400, Note_on_c, 0, 65, 100
2, 143508, Note_on_c, 0, 65, 0
2, 143520, Note_on_c, 0, 72, 100
2, 143628, Note_on_c, 0, 72, 0
2, 143640, Note_on_c, 0, 68, 100
2, 143748, Note_on_c, 0, 68, 0
2, 143760, Note_on_c, 0, 77, 100
2, 143868, Note_on_c, 0, 77, 0
2, 143880, Note_on_c, 0, 72, 100
2, 143988, Note_on_c, 0, 72, 0
2, 144000, Note_on_c, 0, 80, 100
2, 144054, Note_on_c, 0, 80, 0
2, 144060, Note_on_c, 0, 79, 100
2, 144114, Note_on_c, 0, 79, 0
2, 144120, Note_on_c, 0, 77, 100
2, 144174, Note_on_c, 0, 77, 0
2, 144180, Note_on_c, 0, 76, 100
2, 144234, Note_on_c, 0, 76, 0
2, 144240, Note_on_c, 0, 77, 100
2, 144348, Note_on_c, 0, 77, 0
2, 144360, Note_on_c, 0, 80, 100
2, 144468, Note_on_c, 0, 80, 0
2, 144480, Note_on_c, 0, 72, 100
2, 144588, Note_on_c, 0, 72, 0
2, 144600, Note_on_c, 0, 77, 100
2, 144654, Note_on_c, 0, 77, 0
2, 144660, Note_on_c, 0, 76, 100
2, 144714, Note_on_c, 0, 76, 0
2, 144720, Note_on_c, 0, 77, 100
2, 144828, Note_on_c, 0, 77, 0
2, 144840, Note_on_c, 0, 72, 100
2, 144948, Note_on_c, 0, 72, 0
2, 144960, Note_on_c, 0, 68, 100
2, 145068, Note_on_c, 0, 68, 0
2, 145080, Note_on_c, 0, 73, 100
2, 145134, Note_on_c, 0, 73, 0
2, 145140, Note_on_c, 0, 72, 100
2, 145194, Note_on_c, 0, 72, 0
2, 145200, Note_on_c, 0, 73, 100
2, 145308, Note_on_c, 0, 73, 0
2, 145320, Note_on_c, 0, 68, 100
2, 145428, Note_on_c, 0, 68, 0
2, 145440, Note_on_c, 0, 65, 100
2, 145548, Note_on_c, 0, 65, 0
2, 145560, Note_on_c, 0, 61, 100
2, 145668, Note_on_c, 0, 61, 0
2, 145680, Note_on_c, 0, 68, 100
2, 145788, Note_on_c, 0, 68, 0
2, 145800, Note_on_c, 0, 60, 100
2, 145908, Note_on_c, 0, 60, 0
2, 145920, Note_on_c, 0, 61, 100
2, 146028, Note_on_c, 0, 61, 0
2, 146040, Note_on_c, 0, 65, 100
2, 146094, Note_on_c, 0, 65, 0
2, 146100, Note_on_c, 0, 61, 100
2, 146154, Note_on_c, 0, 61, 0
2, 147360, Note_on_c, 0, 62, 100
2, 147468, Note_on_c, 0, 62, 0
2, 147480, Note_on_c, 0, 65, 100
2, 147588, Note_on_c, 0, 65, 0
2, 147600, Note_on_c, 0, 59, 100
2, 147708, Note_on_c, 0, 59, 0
2, 147720, Note_on_c, 0, 62, 100
2, 147828, Note_on_c, 0, 62, 0
2, 148200, Note_on_c, 0, 65, 100
2, 148308, Note_on_c, 0, 65, 0
2, 148320, Note_on_c, 0, 68, 100
2, 148428, Note_on_c, 0, 68, 0
2, 148440, Note_on_c, 0, 74, 100
2, 148548, Note_on_c, 0, 74, 0
2, 148560, Note_on_c, 0, 65, 100
2, 148668, Note_on_c, 0, 65, 0
2, 148680, Note_on_c, 0, 68, 100
2, 148788, Note_on_c, 0, 68, 0
2, 149160, Note_on_c, 0, 74, 100
2, 149268, Note_on_c, 0, 74, 0
2, 149280, Note_on_c, 0, 77, 100
2, 149388, Note_on_c, 0, 77, 0
2, 149400, Note_on_c, 0, 80, 100
2, 149508, Note_on_c, 0, 80, 0
2, 149520, Note_on_c, 0, 79, 100
2, 149628, Note_on_c, 0, 79, 0
2, 149640, Note_on_c, 0, 77, 100
2, 149748, Note_on_c, 0, 77, 0
2, 149760, Note_on_c, 0, 75, 100
2, 149814, Note_on_c, 0, 75, 0
2, 149820, Note_on_c, 0, 77, 100
2, 149874, Note_on_c, 0, 77, 0
2, 149880, Note_on_c, 0, 79, 100
2, 149934, Note_on_c, 0, 79, 0
2, 149940, Note_on_c, 0, 77, 100
2, 149994, Note_on_c, 0, 77, 0
2, 150000, Note_on_c, 0, 75, 100
2, 150054, Note_on_c, 0, 75, 0
2, 150060, Note_on_c, 0, 74, 100
2, 150114, Note_on_c, 0, 74, 0
2, 150120, Note_on_c, 0, 72, 100
2, 150174, Note_on_c, 0, 72, 0
2, 150180, Note_on_c, 0, 71, 100
2, 150234, Note_on_c, 0, 71, 0
2, 150240, Note_on_c, 0, 72, 100
2, 150294, Note_on_c, 0, 72, 0
2, 150300, Note_on_c, 0, 74, 100
2, 150354, Note_on_c, 0, 74, 0
2, 150360, Note_on_c, 0, 75, 100
2, 150414, Note_on_c, 0, 75, 0
2, 150420, Note_on_c, 0, 74, 100
2, 150474, Note_on_c, 0, 74, 0
2, 150480, Note_on_c, 0, 72, 100
2, 150534, Note_on_c, 0, 72, 0
2, 150540, Note_on_c, 0, 70, 100
2, 150594, Note_on_c, 0, 70, 0
2, 150600, Note_on_c, 0, 68, 100
2, 150654, Note_on_c, 0, 68, 0
2, 150660, Note_on_c, 0, 67, 100
2, 150714, Note_on_c, 0, 67, 0
2, 150720, Note_on_c, 0, 65, 100
2, 151254, Note_on_c, 0, 65, 0
2, 151260, Note_on_c, 0, 64, 100
2, 151314, Note_on_c, 0, 64, 0
2, 151320, Note_on_c, 0, 65, 100
2, 151374, Note_on_c, 0, 65, 0
2, 151380, Note_on_c, 0, 67, 100
2, 151434, Note_on_c, 0, 67, 0
2, 151440, Note_on_c, 0, 68, 100
2, 151494, Note_on_c, 0, 68, 0
2, 151500, Note_on_c, 0, 70, 100
2, 151554, Note_on_c, 0, 70, 0
2, 151560, Note_on_c, 0, 72, 100
2, 151614, Note_on_c, 0, 72, 0
2, 151620, Note_on_c, 0, 74, 100
2, 151674, Note_on_c, 0, 74, 0
2, 151680, Note_on_c, 0, 75, 100
2, 151734, Note_on_c, 0, 75, 0
2, 151740, Note_on_c, 0, 74, 100
2, 151794, Note_on_c, 0, 74, 0
2, 151800, Note_on_c, 0, 72, 100
2, 151854, Note_on_c, 0, 72, 0
2, 151860, Note_on_c, 0, 71, 100
2, 151914, Note_on_c, 0, 71, 0
2, 151920, Note_on_c, 0, 72, 100
2, 152028, Note_on_c, 0, 72, 0
2, 152040, Note_on_c, 0, 69, 100
2, 152148, Note_on_c, 0, 69, 0
2, 152160, Note_on_c, 0, 75, 100
2, 152268, Note_on_c, 0, 75, 0
2, 152280, Note_on_c, 0, 69, 100
2, 152388, Note_on_c, 0, 69, 0
2, 152400, Note_on_c, 0, 72, 100
2, 152508, Note_on_c, 0, 72, 0
2, 152520, Note_on_c, 0, 66, 100
2, 152628, Note_on_c, 0, 66, 0
2, 152640, Note_on_c, 0, 69, 100
2, 152694, Note_on_c, 0, 69, 0
2, 152700, Note_on_c, 0, 67, 100
2, 152754, Note_on_c, 0, 67, 0
2, 152760, Note_on_c, 0, 66, 100
2, 152814, Note_on_c, 0, 66, 0
2, 152820, Note_on_c, 0, 64, 100
2, 152874, Note_on_c, 0, 64, 0
2, 152880, Note_on_c, 0, 66, 100
2, 152988, Note_on_c, 0, 66, 0
2, 153000, Note_on_c, 0, 60, 100
2, 153108, Note_on_c, 0, 60, 0
2, 153120, Note_on_c, 0, 69, 100
2, 153228, Note_on_c, 0, 69, 0
2, 153240, Note_on_c, 0, 60, 100
2, 153348, Note_on_c, 0, 60, 0
2, 153360, Note_on_c, 0, 63, 100
2, 153468, Note_on_c, 0, 63, 0
2, 153480, Note_on_c, 0, 57, 100
2, 153588, Note_on_c, 0, 57, 0
2, 153600, Note_on_c, 0, 60, 100
2, 153654, Note_on_c, 0, 60, 0
2, 153660, Note_on_c, 0, 58, 100
2, 153714, Note_on_c, 0, 58, 0
2, 153720, Note_on_c, 0, 57, 100
2, 153774, Note_on_c, 0, 57, 0
2, 153780, Note_on_c, 0, 55, 100
2, 153834, Note_on_c, 0, 55, 0
2, 153840, Note_on_c, 0, 57, 100
2, 153948, Note_on_c, 0, 57, 0
2, 153960, Note_on_c, 0, 54, 100
2, 154068, Note_on_c, 0, 54, 0
2, 154080, Note_on_c, 0, 63, 100
2, 154188, Note_on_c, 0, 63, 0
2, 154200, Note_on_c, 0, 57, 100
2, 154308, Note_on_c, 0, 57, 0
2, 154320, Note_on_c, 0, 60, 100
2, 154428, Note_on_c, 0, 60, 0
2, 154440, Note_on_c, 0, 54, 100
2, 154548, Note_on_c, 0, 54, 0
2, 155040, Note_on_c, 0, 55, 100
2, 155148, Note_on_c, 0, 55, 0
2, 155160, Note_on_c, 0, 59, 100
2, 155268, Note_on_c, 0, 59, 0
2, 155280, Note_on_c, 0, 55, 100
2, 155388, Note_on_c, 0, 55, 0
2, 155400, Note_on_c, 0, 62, 100
2, 155508, Note_on_c, 0, 62, 0
2, 156000, Note_on_c, 0, 55, 100
2, 156108, Note_on_c, 0, 55, 0
2, 156120, Note_on_c, 0, 60, 100
2, 156228, Note_on_c, 0, 60, 0
2, 156240, Note_on_c, 0, 55, 100
2, 156348, Note_on_c, 0, 55, 0
2, 156360, Note_on_c, 0, 63, 100
2, 156468, Note_on_c, 0, 63, 0
2, 156840, Note_on_c, 0, 55, 100
2, 156948, Note_on_c, 0, 55, 0
2, 156960, Note_on_c, 0, 59, 100
2, 157068, Note_on_c, 0, 59, 0
2, 157080, Note_on_c, 0, 55, 100
2, 157188, Note_on_c, 0, 55, 0
2, 157200, Note_on_c, 0, 59, 100
2, 157308, Note_on_c, 0, 59, 0
2, 157320, Note_on_c, 0, 65, 100
2, 157428, Note_on_c, 0, 65, 0
2, 157800, Note_on_c, 0, 55, 100
2, 157908, Note_on_c, 0, 55, 0
2, 157920, Note_on_c, 0, 60, 100
2, 158028, Note_on_c, 0, 60, 0
2, 158040, Note_on_c, 0, 63, 100
2, 158148, Note_on_c, 0, 63, 0
2, 158160, Note_on_c, 0, 60, 100
2, 158268, Note_on_c, 0, 60, 0
2, 158280, Note_on_c, 0, 67, 100
2, 158388, Note_on_c, 0, 67, 0
2, 158760, Note_on_c, 0, 57, 100
2, 158868, Note_on_c, 0, 57, 0
2, 158880, Note_on_c, 0, 60, 100
2, 158988, Note_on_c, 0, 60, 0
2, 159000, Note_on_c, 0, 63, 100
2, 159108, Note_on_c, 0, 63, 0
2, 159120, Note_on_c, 0, 60, 100
2, 159228, Note_on_c, 0, 60, 0
2, 159240, Note_on_c, 0, 67, 100
2, 159348, Note_on_c, 0, 67, 0
2, 159720, Note_on_c, 0, 57, 100
2, 159828, Note_on_c, 0, 57, 0
2, 159840, Note_on_c, 0, 60, 100
2, 159948, Note_on_c, 0, 60, 0
2, 159960, Note_on_c, 0, 63, 100
2, 160068, Note_on_c, 0, 63, 0
2, 160080, Note_on_c, 0, 60, 100
2, 160188, Note_on_c, 0, 60, 0
2, 160200, Note_on_c, 0, 66, 100
2, 160308, Note_on_c, 0, 66, 0
2, 160800, Note_on_c, 0, 59, 100
2, 160908, Note_on_c, 0, 59, 0
2, 160920, Note_on_c, 0, 62, 100
2, 161028, Note_on_c, 0, 62, 0
2, 161040, Note_on_c, 0, 67, 100
2, 161148, Note_on_c, 0, 67, 0
2, 161640, Note_on_c, 0, 71, 100
2, 161748, Note_on_c, 0, 71, 0
2, 161760, Note_on_c, 0, 74, 100
2, 161868, Note_on_c, 0, 74, 0
2, 161880, Note_on_c, 0, 79, 100
2, 161988, Note_on_c, 0, 79, 0
2, 162000, Note_on_c, 0, 80, 100
2, 162108, Note_on_c, 0, 80, 0
2, 162120, Note_on_c, 0, 78, 100
2, 162228, Note_on_c, 0, 78, 0
2, 162240, Note_on_c, 0, 79, 100
2, 162348, Note_on_c, 0, 79, 0
2, 162360, Note_on_c, 0, 75, 100
2, 162468, Note_on_c, 0, 75, 0
2, 162480, Note_on_c, 0, 77, 100
2, 162588, Note_on_c, 0, 77, 0
2, 162600, Note_on_c, 0, 74, 100
2, 162708, Note_on_c, 0, 74, 0
2, 162720, Note_on_c, 0, 75, 100
2, 162828, Note_on_c, 0, 75, 0
2, 162840, Note_on_c, 0, 72, 100
2, 162948, Note_on_c, 0, 72, 0
2, 162960, Note_on_c, 0, 73, 100
2, 163068, Note_on_c, 0, 73, 0
2, 163080, Note_on_c, 0, 71, 100
2, 163188, Note_on_c, 0, 71, 0
2, 163200, Note_on_c, 0, 72, 100
2, 163308, Note_on_c, 0, 72, 0
2, 163320, Note_on_c, 0, 68, 100
2, 163428, Note_on_c, 0, 68, 0
2, 163440, Note_on_c, 0, 66, 100
2, 163548, Note_on_c, 0, 66, 0
2, 163560, Note_on_c, 0, 67, 100
2, 163668, Note_on_c, 0, 67, 0
2, 163680, Note_on_c, 0, 62, 100
2, 163788, Note_on_c, 0, 62, 0
2, 163800, Note_on_c, 0, 63, 100
2, 163908, Note_on_c, 0, 63, 0
2, 163920, Note_on_c, 0, 59, 100
2, 164028, Note_on_c, 0, 59, 0
2, 164040, Note_on_c, 0, 60, 100
2, 164148, Note_on_c, 0, 60, 0
2, 167280, Note_on_c, 0, 60, 100
2, 167388, Note_on_c, 0, 60, 0
2, 167400, Note_on_c, 0, 59, 100
2, 167508, Note_on_c, 0, 59, 0
2, 167520, Note_on_c, 0, 60, 100
2, 167628, Note_on_c, 0, 60, 0
2, 167640, Note_on_c, 0, 62, 100
2, 167748, Note_on_c, 0, 62, 0
2, 167760, Note_on_c, 0, 64, 100
2, 167868, Note_on_c, 0, 64, 0
2, 167880, Note_on_c, 0, 65, 100
2, 167988, Note_on_c, 0, 65, 0
2, 168000, Note_on_c, 0, 67, 100
2, 168108, Note_on_c, 0, 67, 0
2, 168120, Note_on_c, 0, 66, 100
2, 168228, Note_on_c, 0, 66, 0
2, 168240, Note_on_c, 0, 67, 100
2, 168348, Note_on_c, 0, 67, 0
2, 168360, Note_on_c, 0, 69, 100
2, 168468, Note_on_c, 0, 69, 0
2, 168480, Note_on_c, 0, 71, 100
2, 168588, Note_on_c, 0, 71, 0
2, 168600, Note_on_c, 0, 69, 100
2, 168708, Note_on_c, 0, 69, 0
2, 168720, Note_on_c, 0, 71, 100
2, 168828, Note_on_c, 0, 71, 0
2, 168840, Note_on_c, 0, 67, 100
2, 168948, Note_on_c, 0, 67, 0
2, 168960, Note_on_c, 0, 72, 100
2, 169068, Note_on_c, 0, 72, 0
2, 169080, Note_on_c, 0, 71, 100
2, 169188, Note_on_c, 0, 71, 0
2, 169200, Note_on_c, 0, 72, 100
2, 169308, Note_on_c, 0, 72, 0
2, 169320, Note_on_c, 0, 74, 100
2, 169428, Note_on_c, 0, 74, 0
2, 169440, Note_on_c, 0, 72, 100
2, 169548, Note_on_c, 0, 72, 0
2, 169560, Note_on_c, 0, 76, 100
2, 169668, Note_on_c, 0, 76, 0
2, 169680, Note_on_c, 0, 74, 100
2, 169788, Note_on_c, 0, 74, 0
2, 169800, Note_on_c, 0, 72, 100
2, 169908, Note_on_c, 0, 72, 0
2, 169920, Note_on_c, 0, 71, 100
2, 170028, Note_on_c, 0, 71, 0
2, 170040, Note_on_c, 0, 74, 100
2, 170148, Note_on_c, 0, 74, 0
2, 170160, Note_on_c, 0, 67, 100
2, 170268, Note_on_c, 0, 67, 0
2, 170280, Note_on_c, 0, 71, 100
2, 170388, Note_on_c, 0, 71, 0
2, 170400, Note_on_c, 0, 72, 100
2, 170508, Note_on_c, 0, 72, 0
2, 170520, Note_on_c, 0, 76, 100
2, 170628, Note_on_c, 0, 76, 0
2, 170640, Note_on_c, 0, 67, 100
2, 170748, Note_on_c, 0, 67, 0
2, 170760, Note_on_c, 0, 71, 100
2, 170868, Note_on_c, 0, 71, 0
2, 170880, Note_on_c, 0, 69, 100
2, 170988, Note_on_c, 0, 69, 0
2, 171000, Note_on_c, 0, 72, 100
2, 171108, Note_on_c, 0, 72, 0
2, 171120, Note_on_c, 0, 65, 100
2, 171228, Note_on_c, 0, 65, 0
2, 171240, Note_on_c, 0, 69, 100
2, 171348, Note_on_c, 0, 69, 0
2, 171360, Note_on_c, 0, 71, 100
2, 171468, Note_on_c, 0, 71, 0
2, 171480, Note_on_c, 0, 74, 100
2, 171588, Note_on_c, 0, 74, 0
2, 171600, Note_on_c, 0, 65, 100
2, 171708, Note_on_c, 0, 65, 0
2, 171720, Note_on_c, 0, 69, 100
2, 171828, Note_on_c, 0, 69, 0
2, 171840, Note_on_c, 0, 67, 100
2, 171948, Note_on_c, 0, 67, 0
2, 171960, Note_on_c, 0, 71, 100
2, 172068, Note_on_c, 0, 71, 0
2, 172080, Note_on_c, 0, 64, 100
2, 172188, Note_on_c, 0, 64, 0
2, 172200, Note_on_c, 0, 67, 100
2, 172308, Note_on_c, 0, 67, 0
2, 172320, Note_on_c, 0, 69, 100
2, 172428, Note_on_c, 0, 69, 0
2, 172440, Note_on_c, 0, 72, 100
2, 172548, Note_on_c, 0, 72, 0
2, 172560, Note_on_c, 0, 64, 100
2, 172668, Note_on_c, 0, 64, 0
2, 172680, Note_on_c, 0, 67, 100
2, 172788, Note_on_c, 0, 67, 0
2, 172800, Note_on_c, 0, 65, 100
2, 172908, Note_on_c, 0, 65, 0
2, 172920, Note_on_c, 0, 69, 100
2, 173028, Note_on_c, 0, 69, 0
2, 173040, Note_on_c, 0, 62, 100
2, 173148, Note_on_c, 0, 62, 0
2, 173160, Note_on_c, 0, 65, 100
2, 173268, Note_on_c, 0, 65, 0
2, 173280, Note_on_c, 0, 67, 100
2, 173388, Note_on_c, 0, 67, 0
2, 173400, Note_on_c, 0, 71, 100
2, 173508, Note_on_c, 0, 71, 0
2, 173520, Note_on_c, 0, 62, 100
2, 173628, Note_on_c, 0, 62, 0
2, 173640, Note_on_c, 0, 65, 100
2, 173748, Note_on_c, 0, 65, 0
2, 173760, Note_on_c, 0, 64, 100
2, 173868, Note_on_c, 0, 64, 0
2, 173880, Note_on_c, 0, 67, 100
2, 173988, Note_on_c, 0, 67, 0
2, 174000, Note_on_c, 0, 60, 100
2, 174108, Note_on_c, 0, 60, 0
2, 174120, Note_on_c, 0, 64, 100
2, 174228, Note_on_c, 0, 64, 0
2, 174240, Note_on_c, 0, 65, 100
2, 174348, Note_on_c, 0, 65, 0
2, 174360, Note_on_c, 0, 69, 100
2, 174468, Note_on_c, 0, 69, 0
2, 174480, Note_on_c, 0, 60, 100
2, 174588, Note_on_c, 0, 60, 0
2, 174600, Note_on_c, 0, 65, 100
2, 174708, Note_on_c, 0, 65, 0
2, 174720, Note_on_c, 0, 64, 100
2, 174828, Note_on_c, 0, 64, 0
2, 174840, Note_on_c, 0, 67, 100
2, 174948, Note_on_c, 0, 67, 0
2, 174960, Note_on_c, 0, 60, 100
2, 175068, Note_on_c, 0, 60, 0
2, 175080, Note_on_c, 0, 64, 100
2, 175188, Note_on_c, 0, 64, 0
2, 175200, Note_on_c, 0, 65, 100
2, 175308, Note_on_c, 0, 65, 0
2, 175320, Note_on_c, 0, 69, 100
2, 175428, Note_on_c, 0, 69, 0
2, 175440, Note_on_c, 0, 60, 100
2, 175548, Note_on_c, 0, 60, 0
2, 175560, Note_on_c, 0, 65, 100
2, 175668, Note_on_c, 0, 65, 0
2, 175680, Note_on_c, 0, 64, 100
2, 175788, Note_on_c, 0, 64, 0
2, 175800, Note_on_c, 0, 60, 100
2, 175908, Note_on_c, 0, 60, 0
2, 175920, Note_on_c, 0, 62, 100
2, 176028, Note_on_c, 0, 62, 0
2, 176040, Note_on_c, 0, 64, 100
2, 176148, Note_on_c, 0, 64, 0
2, 176160, Note_on_c, 0, 65, 100
2, 176268, Note_on_c, 0, 65, 0
2, 176280, Note_on_c, 0, 67, 100
2, 176388, Note_on_c, 0, 67, 0
2, 176400, Note_on_c, 0, 69, 100
2, 176508, Note_on_c, 0, 69, 0
2, 176520, Note_on_c, 0, 71, 100
2, 176628, Note_on_c, 0, 71, 0
2, 176640, Note_on_c, 0, 72, 100
2, 176856, Note_on_c, 0, 72, 0
2, 176880, Note_on_c, 0, 65, 100
2, 176880, Note_on_c, 0, 69, 100
2, 176880, Note_on_c, 0, 74, 100
2, 177096, Note_on_c, 0, 65, 0
2, 177096, Note_on_c, 0, 69, 0
2, 177096, Note_on_c, 0, 74, 0
2, 177120, Note_on_c, 0, 64, 100
2, 177120, Note_on_c, 0, 67, 100
2, 177336, Note_on_c, 0, 64, 0
2, 177336, Note_on_c, 0, 67, 0
2, 177360, Note_on_c, 0, 62, 100
2, 177360, Note_on_c, 0, 65, 100
2, 177360, Note_on_c, 0, 71, 100
2, 177576, Note_on_c, 0, 62, 0
2, 177576, Note_on_c, 0, 65, 0
2, 177576, Note_on_c, 0, 71, 0
2, 177600, Note_on_c, 0, 72, 100
2, 177600, Note_on_c, 0, 60, 100
2, 177600, Note_on_c, 0, 64, 100
2, 177600, Note_on_c, 0, 67, 100
2, 177816, Note_on_c, 0, 60, 0
2, 177816, Note_on_c, 0, 64, 0
2, 177816, Note_on_c, 0, 67, 0
2, 178188, Note_on_c, 0, 72, 0
2, 178200, Note_on_c, 0, 74, 100
2, 178308, Note_on_c, 0, 74, 0
2, 178320, Note_on_c, 0, 72, 100
2, 178428, Note_on_c, 0, 72, 0
2, 178440, Note_on_c, 0, 74, 100
2, 178548, Note_on_c, 0, 74, 0
2, 178560, Note_on_c, 0, 72, 100
2, 179148, Note_on_c, 0, 72, 0
2, 179160, Note_on_c, 0, 74, 100
2, 179268, Note_on_c, 0, 74, 0
2, 179280, Note_on_c, 0, 72, 100
2, 179388, Note_on_c, 0, 72, 0
2, 179400, Note_on_c, 0, 74, 100
2, 179508, Note_on_c, 0, 74, 0
2, 179520, Note_on_c, 0, 72, 100
2, 179736, Note_on_c, 0, 72, 0
2, 179760, Note_on_c, 0, 79, 100
2, 179832, Note_on_c, 0, 79, 0
2, 179840, Note_on_c, 0, 77, 100
2, 179912, Note_on_c, 0, 77, 0
2, 179920, Note_on_c, 0, 79, 100
2, 179992, Note_on_c, 0, 79, 0
2, 180000, Note_on_c, 0, 81, 100
2, 180072, Note_on_c, 0, 81, 0
2, 180080, Note_on_c, 0, 79, 100
2, 180152, Note_on_c, 0, 79, 0
2, 180160, Note_on_c, 0, 81, 100
2, 180232, Note_on_c, 0, 81, 0
2, 180240, Note_on_c, 0, 83, 100
2, 180312, Note_on_c, 0, 83, 0
2, 180320, Note_on_c, 0, 81, 100
2, 180392, Note_on_c, 0, 81, 0
2, 180400, Note_on_c, 0, 83, 100
2, 180472, Note_on_c, 0, 83, 0
2, 180480, Note_on_c, 0, 84, 100
2, 180696, Note_on_c, 0, 84, 0
2, 181440, Note_on_c, 0, 72, 100
2, 181440, Note_on_c, 0, 76, 100
2, 181440, Note_on_c, 0, 79, 100
2, 181440, Note_on_c, 0, 84, 100
2, 181656, Note_on_c, 0, 72, 0
2, 181656, Note_on_c, 0, 76, 0
2, 181656, Note_on_c, 0, 79, 0
2, 181656, Note_on_c, 0, 84, 0
2, 182640, Note_on_c, 0, 65, 100
2, 182640, Note_on_c, 0, 69, 100
2, 182640, Note_on_c, 0, 74, 100
2, 182856, Note_on_c, 0, 65, 0
2, 182856, Note_on_c, 0, 69, 0
2, 182856, Note_on_c, 0, 74, 0
2, 182880, Note_on_c, 0, 64, 100
2, 182880, Note_on_c, 0, 67, 100
2, 183096, Note_on_c, 0, 64, 0
2, 183096, Note_on_c, 0, 67, 0
2, 183120, Note_on_c, 0, 62, 100
2, 183120, Note_on_c, 0, 65, 100
2, 183120, Note_on_c, 0, 67, 100
2, 183120, Note_on_c, 0, 71, 100
2, 183336, Note_on_c, 0, 62, 0
2, 183336, Note_on_c, 0, 65, 0
2, 183336, Note_on_c, 0, 67, 0
2, 183336, Note_on_c, 0, 71, 0
2, 183360, Note_on_c, 0, 60, 100
2, 183360, Note_on_c, 0, 64, 100
2, 183360, Note_on_c, 0, 67, 100
2, 183360, Note_on_c, 0, 72, 100
2, 184224, Note_on_c, 0, 60, 0
2, 184224, Note_on_c, 0, 64, 0
2, 184224, Note_on_c, 0, 67, 0
2, 184224, Note_on_c, 0, 72, 0
2, 184224, End_track
3, 0, Start_track
3, 0, Sequence_number, 65535
3, 0, MIDI_port, 0
3, 0, Title_t, "~"
3, 0, Control_c, 1, 0, 0
3, 0, Control_c, 1, 32, 0
3, 0, Program_c, 1, 6
3, 0, Control_c, 1, 7, 80
3, 0, Control_c, 1, 10, 49
3, 0, Note_on_c, 1, 60, 100
3, 864, Note_on_c, 1, 60, 0
3, 960, Note_on_c, 1, 59, 100
3, 1824, Note_on_c, 1, 59, 0
3, 1920, Note_on_c, 1, 57, 100
3, 2784, Note_on_c, 1, 57, 0
3, 2880, Note_on_c, 1, 55, 100
3, 2988, Note_on_c, 1, 55, 0
3, 3000, Note_on_c, 1, 62, 100
3, 3108, Note_on_c, 1, 62, 0
3, 3120, Note_on_c, 1, 64, 100
3, 3228, Note_on_c, 1, 64, 0
3, 3240, Note_on_c, 1, 65, 100
3, 3348, Note_on_c, 1, 65, 0
3, 3360, Note_on_c, 1, 67, 100
3, 3468, Note_on_c, 1, 67, 0
3, 3480, Note_on_c, 1, 72, 100
3, 3588, Note_on_c, 1, 72, 0
3, 3600, Note_on_c, 1, 64, 100
3, 3708, Note_on_c, 1, 64, 0
3, 3720, Note_on_c, 1, 67, 100
3, 3828, Note_on_c, 1, 67, 0
3, 3840, Note_on_c, 1, 65, 100
3, 4428, Note_on_c, 1, 65, 0
3, 4440, Note_on_c, 1, 71, 100
3, 4548, Note_on_c, 1, 71, 0
3, 4560, Note_on_c, 1, 62, 100
3, 4668, Note_on_c, 1, 62, 0
3, 4680, Note_on_c, 1, 65, 100
3, 4788, Note_on_c, 1, 65, 0
3, 4800, Note_on_c, 1, 64, 100
3, 5388, Note_on_c, 1, 64, 0
3, 5400, Note_on_c, 1, 69, 100
3, 5508, Note_on_c, 1, 69, 0
3, 5520, Note_on_c, 1, 60, 100
3, 5628, Note_on_c, 1, 60, 0
3, 5640, Note_on_c, 1, 64, 100
3, 5748, Note_on_c, 1, 64, 0
3, 5760, Note_on_c, 1, 62, 100
3, 6348, Note_on_c, 1, 62, 0
3, 6360, Note_on_c, 1, 67, 100
3, 6468, Note_on_c, 1, 67, 0
3, 6480, Note_on_c, 1, 59, 100
3, 6588, Note_on_c, 1, 59, 0
3, 6600, Note_on_c, 1, 62, 100
3, 6708, Note_on_c, 1, 62, 0
3, 6720, Note_on_c, 1, 60, 100
3, 7308, Note_on_c, 1, 60, 0
3, 7320, Note_on_c, 1, 65, 100
3, 7428, Note_on_c, 1, 65, 0
3, 7440, Note_on_c, 1, 57, 100
3, 7548, Note_on_c, 1, 57, 0
3, 7560, Note_on_c, 1, 60, 100
3, 7668, Note_on_c, 1, 60, 0
3, 7680, Note_on_c, 1, 48, 100
3, 8268, Note_on_c, 1, 48, 0
3, 8280, Note_on_c, 1, 53, 100
3, 8388, Note_on_c, 1, 53, 0
3, 8400, Note_on_c, 1, 45, 100
3, 8508, Note_on_c, 1, 45, 0
3, 8520, Note_on_c, 1, 48, 100
3, 8628, Note_on_c, 1, 48, 0
3, 8640, Note_on_c, 1, 36, 100
3, 8856, Note_on_c, 1, 36, 0
3, 8880, Note_on_c, 1, 55, 100
3, 9096, Note_on_c, 1, 55, 0
3, 9120, Note_on_c, 1, 52, 100
3, 9336, Note_on_c, 1, 52, 0
3, 9360, Note_on_c, 1, 60, 100
3, 9816, Note_on_c, 1, 60, 0
3, 9840, Note_on_c, 1, 57, 100
3, 10056, Note_on_c, 1, 57, 0
3, 10080, Note_on_c, 1, 54, 100
3, 10296, Note_on_c, 1, 54, 0
3, 10320, Note_on_c, 1, 62, 100
3, 10776, Note_on_c, 1, 62, 0
3, 10800, Note_on_c, 1, 59, 100
3, 11016, Note_on_c, 1, 59, 0
3, 11040, Note_on_c, 1, 55, 100
3, 11256, Note_on_c, 1, 55, 0
3, 11280, Note_on_c, 1, 64, 100
3, 11736, Note_on_c, 1, 64, 0
3, 11760, Note_on_c, 1, 60, 100
3, 11976, Note_on_c, 1, 60, 0
3, 12000, Note_on_c, 1, 57, 100
3, 12216, Note_on_c, 1, 57, 0
3, 12240, Note_on_c, 1, 66, 100
3, 12456, Note_on_c, 1, 66, 0
3, 12480, Note_on_c, 1, 67, 100
3, 12696, Note_on_c, 1, 67, 0
3, 12720, Note_on_c, 1, 62, 100
3, 12936, Note_on_c, 1, 62, 0
3, 12960, Note_on_c, 1, 59, 100
3, 13176, Note_on_c, 1, 59, 0
3, 13200, Note_on_c, 1, 55, 100
3, 13416, Note_on_c, 1, 55, 0
3, 13680, Note_on_c, 1, 62, 100
3, 13896, Note_on_c, 1, 62, 0
3, 13920, Note_on_c, 1, 57, 100
3, 14136, Note_on_c, 1, 57, 0
3, 14160, Note_on_c, 1, 54, 100
3, 14376, Note_on_c, 1, 54, 0
3, 14640, Note_on_c, 1, 64, 100
3, 14856, Note_on_c, 1, 64, 0
3, 14880, Note_on_c, 1, 57, 100
3, 14988, Note_on_c, 1, 57, 0
3, 15000, Note_on_c, 1, 55, 100
3, 15108, Note_on_c, 1, 55, 0
3, 15120, Note_on_c, 1, 54, 100
3, 15228, Note_on_c, 1, 54, 0
3, 15240, Note_on_c, 1, 55, 100
3, 15348, Note_on_c, 1, 55, 0
3, 15360, Note_on_c, 1, 57, 100
3, 15576, Note_on_c, 1, 57, 0
3, 15600, Note_on_c, 1, 62, 100
3, 15708, Note_on_c, 1, 62, 0
3, 15720, Note_on_c, 1, 60, 100
3, 15828, Note_on_c, 1, 60, 0
3, 15840, Note_on_c, 1, 59, 100
3, 16056, Note_on_c, 1, 59, 0
3, 16080, Note_on_c, 1, 55, 100
3, 16296, Note_on_c, 1, 55, 0
3, 16320, Note_on_c, 1, 60, 100
3, 16536, Note_on_c, 1, 60, 0
3, 16560, Note_on_c, 1, 59, 100
3, 16776, Note_on_c, 1, 59, 0
3, 16800, Note_on_c, 1, 57, 100
3, 17016, Note_on_c, 1, 57, 0
3, 17040, Note_on_c, 1, 54, 100
3, 17256, Note_on_c, 1, 54, 0
3, 17520, Note_on_c, 1, 59, 100
3, 17628, Note_on_c, 1, 59, 0
3, 17640, Note_on_c, 1, 57, 100
3, 17748, Note_on_c, 1, 57, 0
3, 17760, Note_on_c, 1, 55, 100
3, 17976, Note_on_c, 1, 55, 0
3, 18000, Note_on_c, 1, 52, 100
3, 18216, Note_on_c, 1, 52, 0
3, 18240, Note_on_c, 1, 57, 100
3, 18456, Note_on_c, 1, 57, 0
3, 18480, Note_on_c, 1, 55, 100
3, 18696, Note_on_c, 1, 55, 0
3, 18720, Note_on_c, 1, 54, 100
3, 18936, Note_on_c, 1, 54, 0
3, 18960, Note_on_c, 1, 50, 100
3, 19176, Note_on_c, 1, 50, 0
3, 19200, Note_on_c, 1, 55, 100
3, 19416, Note_on_c, 1, 55, 0
3, 19560, Note_on_c, 1, 65, 100
3, 19668, Note_on_c, 1, 65, 0
3, 19680, Note_on_c, 1, 64, 100
3, 19788, Note_on_c, 1, 64, 0
3, 19800, Note_on_c, 1, 60, 100
3, 19908, Note_on_c, 1, 60, 0
3, 19920, Note_on_c, 1, 64, 100
3, 20028, Note_on_c, 1, 64, 0
3, 20040, Note_on_c, 1, 60, 100
3, 20148, Note_on_c, 1, 60, 0
3, 20160, Note_on_c, 1, 67, 100
3, 20376, Note_on_c, 1, 67, 0
3, 20400, Note_on_c, 1, 55, 100
3, 20508, Note_on_c, 1, 55, 0
3, 20520, Note_on_c, 1, 53, 100
3, 20628, Note_on_c, 1, 53, 0
3, 20640, Note_on_c, 1, 52, 100
3, 20748, Note_on_c, 1, 52, 0
3, 20760, Note_on_c, 1, 48, 100
3, 20868, Note_on_c, 1, 48, 0
3, 20880, Note_on_c, 1, 52, 100
3, 20988, Note_on_c, 1, 52, 0
3, 21000, Note_on_c, 1, 48, 100
3, 21108, Note_on_c, 1, 48, 0
3, 21120, Note_on_c, 1, 55, 100
3, 21228, Note_on_c, 1, 55, 0
3, 21240, Note_on_c, 1, 59, 100
3, 21348, Note_on_c, 1, 59, 0
3, 21360, Note_on_c, 1, 61, 100
3, 21468, Note_on_c, 1, 61, 0
3, 21480, Note_on_c, 1, 62, 100
3, 21588, Note_on_c, 1, 62, 0
3, 21600, Note_on_c, 1, 64, 100
3, 22296, Note_on_c, 1, 64, 0
3, 22320, Note_on_c, 1, 57, 100
3, 22536, Note_on_c, 1, 57, 0
3, 22560, Note_on_c, 1, 69, 100
3, 23148, Note_on_c, 1, 69, 0
3, 23160, Note_on_c, 1, 67, 100
3, 23268, Note_on_c, 1, 67, 0
3, 23280, Note_on_c, 1, 65, 100
3, 23388, Note_on_c, 1, 65, 0
3, 23400, Note_on_c, 1, 64, 100
3, 23508, Note_on_c, 1, 64, 0
3, 23520, Note_on_c, 1, 62, 100
3, 23628, Note_on_c, 1, 62, 0
3, 23640, Note_on_c, 1, 53, 100
3, 23748, Note_on_c, 1, 53, 0
3, 23760, Note_on_c, 1, 55, 100
3, 23868, Note_on_c, 1, 55, 0
3, 23880, Note_on_c, 1, 57, 100
3, 23988, Note_on_c, 1, 57, 0
3, 24000, Note_on_c, 1, 55, 100
3, 24216, Note_on_c, 1, 55, 0
3, 24240, Note_on_c, 1, 60, 100
3, 24456, Note_on_c, 1, 60, 0
3, 24480, Note_on_c, 1, 55, 100
3, 24804, Note_on_c, 1, 55, 0
3, 24840, Note_on_c, 1, 53, 100
3, 24948, Note_on_c, 1, 53, 0
3, 24960, Note_on_c, 1, 52, 100
3, 25068, Note_on_c, 1, 52, 0
3, 25080, Note_on_c, 1, 55, 100
3, 25188, Note_on_c, 1, 55, 0
3, 25200, Note_on_c, 1, 57, 100
3, 25308, Note_on_c, 1, 57, 0
3, 25320, Note_on_c, 1, 59, 100
3, 25428, Note_on_c, 1, 59, 0
3, 25440, Note_on_c, 1, 60, 100
3, 26028, Note_on_c, 1, 60, 0
3, 26040, Note_on_c, 1, 62, 100
3, 26148, Note_on_c, 1, 62, 0
3, 26160, Note_on_c, 1, 59, 100
3, 26268, Note_on_c, 1, 59, 0
3, 26280, Note_on_c, 1, 60, 100
3, 26388, Note_on_c, 1, 60, 0
3, 26400, Note_on_c, 1, 57, 100
3, 26508, Note_on_c, 1, 57, 0
3, 26520, Note_on_c, 1, 59, 100
3, 26628, Note_on_c, 1, 59, 0
3, 26640, Note_on_c, 1, 60, 100
3, 26748, Note_on_c, 1, 60, 0
3, 26760, Note_on_c, 1, 57, 100
3, 26868, Note_on_c, 1, 57, 0
3, 26880, Note_on_c, 1, 59, 100
3, 26988, Note_on_c, 1, 59, 0
3, 27000, Note_on_c, 1, 62, 100
3, 27108, Note_on_c, 1, 62, 0
3, 27120, Note_on_c, 1, 55, 100
3, 27228, Note_on_c, 1, 55, 0
3, 27240, Note_on_c, 1, 59, 100
3, 27348, Note_on_c, 1, 59, 0
3, 27360, Note_on_c, 1, 60, 100
3, 27468, Note_on_c, 1, 60, 0
3, 27480, Note_on_c, 1, 64, 100
3, 27588, Note_on_c, 1, 64, 0
3, 27600, Note_on_c, 1, 55, 100
3, 27708, Note_on_c, 1, 55, 0
3, 27720, Note_on_c, 1, 59, 100
3, 27828, Note_on_c, 1, 59, 0
3, 27840, Note_on_c, 1, 57, 100
3, 27948, Note_on_c, 1, 57, 0
3, 27960, Note_on_c, 1, 60, 100
3, 28068, Note_on_c, 1, 60, 0
3, 28080, Note_on_c, 1, 53, 100
3, 28188, Note_on_c, 1, 53, 0
3, 28200, Note_on_c, 1, 57, 100
3, 28308, Note_on_c, 1, 57, 0
3, 28320, Note_on_c, 1, 59, 100
3, 28428, Note_on_c, 1, 59, 0
3, 28440, Note_on_c, 1, 62, 100
3, 28548, Note_on_c, 1, 62, 0
3, 28560, Note_on_c, 1, 53, 100
3, 28668, Note_on_c, 1, 53, 0
3, 28680, Note_on_c, 1, 57, 100
3, 28788, Note_on_c, 1, 57, 0
3, 28800, Note_on_c, 1, 55, 100
3, 28908, Note_on_c, 1, 55, 0
3, 28920, Note_on_c, 1, 59, 100
3, 29028, Note_on_c, 1, 59, 0
3, 29040, Note_on_c, 1, 52, 100
3, 29148, Note_on_c, 1, 52, 0
3, 29160, Note_on_c, 1, 55, 100
3, 29268, Note_on_c, 1, 55, 0
3, 29280, Note_on_c, 1, 57, 100
3, 29388, Note_on_c, 1, 57, 0
3, 29400, Note_on_c, 1, 60, 100
3, 29508, Note_on_c, 1, 60, 0
3, 29520, Note_on_c, 1, 52, 100
3, 29628, Note_on_c, 1, 52, 0
3, 29640, Note_on_c, 1, 55, 100
3, 29748, Note_on_c, 1, 55, 0
3, 29760, Note_on_c, 1, 53, 100
3, 29868, Note_on_c, 1, 53, 0
3, 29880, Note_on_c, 1, 57, 100
3, 29988, Note_on_c, 1, 57, 0
3, 30000, Note_on_c, 1, 50, 100
3, 30108, Note_on_c, 1, 50, 0
3, 30120, Note_on_c, 1, 53, 100
3, 30228, Note_on_c, 1, 53, 0
3, 30240, Note_on_c, 1, 55, 100
3, 30348, Note_on_c, 1, 55, 0
3, 30360, Note_on_c, 1, 59, 100
3, 30468, Note_on_c, 1, 59, 0
3, 30480, Note_on_c, 1, 50, 100
3, 30588, Note_on_c, 1, 50, 0
3, 30600, Note_on_c, 1, 53, 100
3, 30708, Note_on_c, 1, 53, 0
3, 30720, Note_on_c, 1, 52, 100
3, 30828, Note_on_c, 1, 52, 0
3, 30840, Note_on_c, 1, 55, 100
3, 30948, Note_on_c, 1, 55, 0
3, 30960, Note_on_c, 1, 48, 100
3, 31068, Note_on_c, 1, 48, 0
3, 31080, Note_on_c, 1, 52, 100
3, 31188, Note_on_c, 1, 52, 0
3, 31200, Note_on_c, 1, 53, 100
3, 31308, Note_on_c, 1, 53, 0
3, 31320, Note_on_c, 1, 57, 100
3, 31428, Note_on_c, 1, 57, 0
3, 31440, Note_on_c, 1, 48, 100
3, 31548, Note_on_c, 1, 48, 0
3, 31560, Note_on_c, 1, 53, 100
3, 31668, Note_on_c, 1, 53, 0
3, 31680, Note_on_c, 1, 52, 100
3, 31788, Note_on_c, 1, 52, 0
3, 31800, Note_on_c, 1, 55, 100
3, 31908, Note_on_c, 1, 55, 0
3, 31920, Note_on_c, 1, 48, 100
3, 32028, Note_on_c, 1, 48, 0
3, 32040, Note_on_c, 1, 52, 100
3, 32148, Note_on_c, 1, 52, 0
3, 32160, Note_on_c, 1, 53, 100
3, 32268, Note_on_c, 1, 53, 0
3, 32280, Note_on_c, 1, 57, 100
3, 32388, Note_on_c, 1, 57, 0
3, 32400, Note_on_c, 1, 48, 100
3, 32508, Note_on_c, 1, 48, 0
3, 32520, Note_on_c, 1, 53, 100
3, 32628, Note_on_c, 1, 53, 0
3, 32640, Note_on_c, 1, 52, 100
3, 32748, Note_on_c, 1, 52, 0
3, 32760, Note_on_c, 1, 55, 100
3, 32868, Note_on_c, 1, 55, 0
3, 32880, Note_on_c, 1, 52, 100
3, 32988, Note_on_c, 1, 52, 0
3, 33000, Note_on_c, 1, 55, 100
3, 33108, Note_on_c, 1, 55, 0
3, 33120, Note_on_c, 1, 48, 100
3, 33336, Note_on_c, 1, 48, 0
3, 33840, Note_on_c, 1, 50, 100
3, 34056, Note_on_c, 1, 50, 0
3, 34080, Note_on_c, 1, 55, 100
3, 34296, Note_on_c, 1, 55, 0
3, 34320, Note_on_c, 1, 55, 100
3, 34536, Note_on_c, 1, 55, 0
3, 34560, Note_on_c, 1, 55, 100
3, 34776, Note_on_c, 1, 55, 0
3, 34800, Note_on_c, 1, 54, 100
3, 34908, Note_on_c, 1, 54, 0
3, 34920, Note_on_c, 1, 52, 100
3, 35028, Note_on_c, 1, 52, 0
3, 35040, Note_on_c, 1, 54, 100
3, 35148, Note_on_c, 1, 54, 0
3, 35160, Note_on_c, 1, 55, 100
3, 35268, Note_on_c, 1, 55, 0
3, 35280, Note_on_c, 1, 52, 100
3, 35388, Note_on_c, 1, 52, 0
3, 35400, Note_on_c, 1, 54, 100
3, 35508, Note_on_c, 1, 54, 0
3, 35520, Note_on_c, 1, 55, 100
3, 35628, Note_on_c, 1, 55, 0
3, 35640, Note_on_c, 1, 47, 100
3, 35748, Note_on_c, 1, 47, 0
3, 35760, Note_on_c, 1, 48, 100
3, 35868, Note_on_c, 1, 48, 0
3, 35880, Note_on_c, 1, 50, 100
3, 35988, Note_on_c, 1, 50, 0
3, 36000, Note_on_c, 1, 52, 100
3, 36216, Note_on_c, 1, 52, 0
3, 36240, Note_on_c, 1, 52, 100
3, 36456, Note_on_c, 1, 52, 0
3, 36480, Note_on_c, 1, 52, 100
3, 36696, Note_on_c, 1, 52, 0
3, 36720, Note_on_c, 1, 50, 100
3, 36828, Note_on_c, 1, 50, 0
3, 36840, Note_on_c, 1, 48, 100
3, 36948, Note_on_c, 1, 48, 0
3, 36960, Note_on_c, 1, 50, 100
3, 37176, Note_on_c, 1, 50, 0
3, 37200, Note_on_c, 1, 50, 100
3, 37416, Note_on_c, 1, 50, 0
3, 37440, Note_on_c, 1, 50, 100
3, 37548, Note_on_c, 1, 50, 0
3, 37560, Note_on_c, 1, 43, 100
3, 37668, Note_on_c, 1, 43, 0
3, 37680, Note_on_c, 1, 45, 100
3, 37788, Note_on_c, 1, 45, 0
3, 37800, Note_on_c, 1, 47, 100
3, 37908, Note_on_c, 1, 47, 0
3, 37920, Note_on_c, 1, 48, 100
3, 38616, Note_on_c, 1, 48, 0
3, 38640, Note_on_c, 1, 47, 100
3, 38748, Note_on_c, 1, 47, 0
3, 38760, Note_on_c, 1, 45, 100
3, 38868, Note_on_c, 1, 45, 0
3, 38880, Note_on_c, 1, 47, 100
3, 39096, Note_on_c, 1, 47, 0
3, 39120, Note_on_c, 1, 43, 100
3, 39336, Note_on_c, 1, 43, 0
3, 39360, Note_on_c, 1, 48, 100
3, 39576, Note_on_c, 1, 48, 0
3, 39600, Note_on_c, 1, 52, 100
3, 39672, Note_on_c, 1, 52, 0
3, 39680, Note_on_c, 1, 50, 100
3, 39752, Note_on_c, 1, 50, 0
3, 39760, Note_on_c, 1, 52, 100
3, 39832, Note_on_c, 1, 52, 0
3, 39840, Note_on_c, 1, 54, 100
3, 39912, Note_on_c, 1, 54, 0
3, 39920, Note_on_c, 1, 52, 100
3, 39992, Note_on_c, 1, 52, 0
3, 40000, Note_on_c, 1, 54, 100
3, 40072, Note_on_c, 1, 54, 0
3, 40080, Note_on_c, 1, 56, 100
3, 40152, Note_on_c, 1, 56, 0
3, 40160, Note_on_c, 1, 54, 100
3, 40232, Note_on_c, 1, 54, 0
3, 40240, Note_on_c, 1, 56, 100
3, 40312, Note_on_c, 1, 56, 0
3, 40320, Note_on_c, 1, 57, 100
3, 40872, Note_on_c, 1, 57, 0
3, 40880, Note_on_c, 1, 58, 100
3, 40952, Note_on_c, 1, 58, 0
3, 40960, Note_on_c, 1, 57, 100
3, 41032, Note_on_c, 1, 57, 0
3, 41040, Note_on_c, 1, 55, 100
3, 41112, Note_on_c, 1, 55, 0
3, 41120, Note_on_c, 1, 57, 100
3, 41192, Note_on_c, 1, 57, 0
3, 41200, Note_on_c, 1, 55, 100
3, 41272, Note_on_c, 1, 55, 0
3, 41280, Note_on_c, 1, 53, 100
3, 41496, Note_on_c, 1, 53, 0
3, 42480, Note_on_c, 1, 47, 100
3, 42552, Note_on_c, 1, 47, 0
3, 42560, Note_on_c, 1, 45, 100
3, 42632, Note_on_c, 1, 45, 0
3, 42640, Note_on_c, 1, 47, 100
3, 42712, Note_on_c, 1, 47, 0
3, 42720, Note_on_c, 1, 48, 100
3, 42792, Note_on_c, 1, 48, 0
3, 42800, Note_on_c, 1, 47, 100
3, 42872, Note_on_c, 1, 47, 0
3, 42880, Note_on_c, 1, 48, 100
3, 42952, Note_on_c, 1, 48, 0
3, 42960, Note_on_c, 1, 50, 100
3, 43032, Note_on_c, 1, 50, 0
3, 43040, Note_on_c, 1, 48, 100
3, 43112, Note_on_c, 1, 48, 0
3, 43120, Note_on_c, 1, 50, 100
3, 43192, Note_on_c, 1, 50, 0
3, 43200, Note_on_c, 1, 43, 100
3, 43416, Note_on_c, 1, 43, 0
3, 44400, Note_on_c, 1, 60, 100
3, 44472, Note_on_c, 1, 60, 0
3, 44480, Note_on_c, 1, 59, 100
3, 44552, Note_on_c, 1, 59, 0
3, 44560, Note_on_c, 1, 60, 100
3, 44632, Note_on_c, 1, 60, 0
3, 44640, Note_on_c, 1, 62, 100
3, 44712, Note_on_c, 1, 62, 0
3, 44720, Note_on_c, 1, 60, 100
3, 44792, Note_on_c, 1, 60, 0
3, 44800, Note_on_c, 1, 62, 100
3, 44872, Note_on_c, 1, 62, 0
3, 44880, Note_on_c, 1, 64, 100
3, 44952, Note_on_c, 1, 64, 0
3, 44960, Note_on_c, 1, 62, 100
3, 45032, Note_on_c, 1, 62, 0
3, 45040, Note_on_c, 1, 64, 100
3, 45112, Note_on_c, 1, 64, 0
3, 45120, Note_on_c, 1, 65, 100
3, 45336, Note_on_c, 1, 65, 0
3, 45360, Note_on_c, 1, 53, 100
3, 45468, Note_on_c, 1, 53, 0
3, 45480, Note_on_c, 1, 52, 100
3, 45588, Note_on_c, 1, 52, 0
3, 45600, Note_on_c, 1, 53, 100
3, 45708, Note_on_c, 1, 53, 0
3, 45720, Note_on_c, 1, 57, 100
3, 45828, Note_on_c, 1, 57, 0
3, 45840, Note_on_c, 1, 50, 100
3, 45948, Note_on_c, 1, 50, 0
3, 45960, Note_on_c, 1, 53, 100
3, 46068, Note_on_c, 1, 53, 0
3, 46080, Note_on_c, 1, 52, 100
3, 46188, Note_on_c, 1, 52, 0
3, 46200, Note_on_c, 1, 53, 100
3, 46308, Note_on_c, 1, 53, 0
3, 46320, Note_on_c, 1, 47, 100
3, 46428, Note_on_c, 1, 47, 0
3, 46440, Note_on_c, 1, 50, 100
3, 46548, Note_on_c, 1, 50, 0
3, 46560, Note_on_c, 1, 48, 100
3, 46668, Note_on_c, 1, 48, 0
3, 46680, Note_on_c, 1, 52, 100
3, 46788, Note_on_c, 1, 52, 0
3, 46800, Note_on_c, 1, 45, 100
3, 46908, Note_on_c, 1, 45, 0
3, 46920, Note_on_c, 1, 48, 100
3, 47028, Note_on_c, 1, 48, 0
3, 47040, Note_on_c, 1, 50, 100
3, 47148, Note_on_c, 1, 50, 0
3, 47160, Note_on_c, 1, 53, 100
3, 47268, Note_on_c, 1, 53, 0
3, 47280, Note_on_c, 1, 45, 100
3, 47388, Note_on_c, 1, 45, 0
3, 47400, Note_on_c, 1, 48, 100
3, 47508, Note_on_c, 1, 48, 0
3, 47520, Note_on_c, 1, 47, 100
3, 47628, Note_on_c, 1, 47, 0
3, 47640, Note_on_c, 1, 50, 100
3, 47748, Note_on_c, 1, 50, 0
3, 47760, Note_on_c, 1, 43, 100
3, 47868, Note_on_c, 1, 43, 0
3, 47880, Note_on_c, 1, 47, 100
3, 47988, Note_on_c, 1, 47, 0
3, 48000, Note_on_c, 1, 48, 100
3, 48108, Note_on_c, 1, 48, 0
3, 48120, Note_on_c, 1, 52, 100
3, 48228, Note_on_c, 1, 52, 0
3, 48240, Note_on_c, 1, 43, 100
3, 48348, Note_on_c, 1, 43, 0
3, 48360, Note_on_c, 1, 47, 100
3, 48468, Note_on_c, 1, 47, 0
3, 48480, Note_on_c, 1, 45, 100
3, 48588, Note_on_c, 1, 45, 0
3, 48600, Note_on_c, 1, 48, 100
3, 48708, Note_on_c, 1, 48, 0
3, 48720, Note_on_c, 1, 41, 100
3, 48828, Note_on_c, 1, 41, 0
3, 48840, Note_on_c, 1, 45, 100
3, 48948, Note_on_c, 1, 45, 0
3, 48960, Note_on_c, 1, 47, 100
3, 49068, Note_on_c, 1, 47, 0
3, 49080, Note_on_c, 1, 50, 100
3, 49188, Note_on_c, 1, 50, 0
3, 49200, Note_on_c, 1, 42, 100
3, 49308, Note_on_c, 1, 42, 0
3, 49320, Note_on_c, 1, 45, 100
3, 49428, Note_on_c, 1, 45, 0
3, 49440, Note_on_c, 1, 44, 100
3, 49656, Note_on_c, 1, 44, 0
3, 49680, Note_on_c, 1, 40, 100
3, 49896, Note_on_c, 1, 40, 0
3, 49920, Note_on_c, 1, 45, 100
3, 50136, Note_on_c, 1, 45, 0
3, 50280, Note_on_c, 1, 67, 100
3, 50388, Note_on_c, 1, 67, 0
3, 50400, Note_on_c, 1, 65, 100
3, 50508, Note_on_c, 1, 65, 0
3, 50520, Note_on_c, 1, 62, 100
3, 50628, Note_on_c, 1, 62, 0
3, 50640, Note_on_c, 1, 65, 100
3, 50748, Note_on_c, 1, 65, 0
3, 50760, Note_on_c, 1, 62, 100
3, 50868, Note_on_c, 1, 62, 0
3, 50880, Note_on_c, 1, 69, 100
3, 51096, Note_on_c, 1, 69, 0
3, 51120, Note_on_c, 1, 57, 100
3, 51228, Note_on_c, 1, 57, 0
3, 51240, Note_on_c, 1, 55, 100
3, 51348, Note_on_c, 1, 55, 0
3, 51360, Note_on_c, 1, 53, 100
3, 51468, Note_on_c, 1, 53, 0
3, 51480, Note_on_c, 1, 50, 100
3, 51588, Note_on_c, 1, 50, 0
3, 51600, Note_on_c, 1, 53, 100
3, 51708, Note_on_c, 1, 53, 0
3, 51720, Note_on_c, 1, 50, 100
3, 51828, Note_on_c, 1, 50, 0
3, 51840, Note_on_c, 1, 57, 100
3, 52164, Note_on_c, 1, 57, 0
3, 52200, Note_on_c, 1, 56, 100
3, 52308, Note_on_c, 1, 56, 0
3, 52320, Note_on_c, 1, 57, 100
3, 52428, Note_on_c, 1, 57, 0
3, 52440, Note_on_c, 1, 59, 100
3, 52548, Note_on_c, 1, 59, 0
3, 52560, Note_on_c, 1, 57, 100
3, 52668, Note_on_c, 1, 57, 0
3, 52680, Note_on_c, 1, 59, 100
3, 52788, Note_on_c, 1, 59, 0
3, 52800, Note_on_c, 1, 60, 100
3, 52908, Note_on_c, 1, 60, 0
3, 52920, Note_on_c, 1, 62, 100
3, 53028, Note_on_c, 1, 62, 0
3, 53040, Note_on_c, 1, 60, 100
3, 53148, Note_on_c, 1, 60, 0
3, 53160, Note_on_c, 1, 62, 100
3, 53268, Note_on_c, 1, 62, 0
3, 53280, Note_on_c, 1, 64, 100
3, 53388, Note_on_c, 1, 64, 0
3, 53400, Note_on_c, 1, 65, 100
3, 53508, Note_on_c, 1, 65, 0
3, 53520, Note_on_c, 1, 59, 100
3, 53628, Note_on_c, 1, 59, 0
3, 53640, Note_on_c, 1, 62, 100
3, 53748, Note_on_c, 1, 62, 0
3, 53760, Note_on_c, 1, 60, 100
3, 53868, Note_on_c, 1, 60, 0
3, 53880, Note_on_c, 1, 64, 100
3, 53988, Note_on_c, 1, 64, 0
3, 54000, Note_on_c, 1, 57, 100
3, 54108, Note_on_c, 1, 57, 0
3, 54120, Note_on_c, 1, 60, 100
3, 54228, Note_on_c, 1, 60, 0
3, 54240, Note_on_c, 1, 62, 100
3, 54348, Note_on_c, 1, 62, 0
3, 54360, Note_on_c, 1, 65, 100
3, 54468, Note_on_c, 1, 65, 0
3, 54480, Note_on_c, 1, 57, 100
3, 54588, Note_on_c, 1, 57, 0
3, 54600, Note_on_c, 1, 62, 100
3, 54708, Note_on_c, 1, 62, 0
3, 54720, Note_on_c, 1, 60, 100
3, 54828, Note_on_c, 1, 60, 0
3, 54840, Note_on_c, 1, 64, 100
3, 54948, Note_on_c, 1, 64, 0
3, 54960, Note_on_c, 1, 57, 100
3, 55068, Note_on_c, 1, 57, 0
3, 55080, Note_on_c, 1, 60, 100
3, 55188, Note_on_c, 1, 60, 0
3, 55200, Note_on_c, 1, 62, 100
3, 55308, Note_on_c, 1, 62, 0
3, 55320, Note_on_c, 1, 65, 100
3, 55428, Note_on_c, 1, 65, 0
3, 55440, Note_on_c, 1, 57, 100
3, 55548, Note_on_c, 1, 57, 0
3, 55560, Note_on_c, 1, 62, 100
3, 55668, Note_on_c, 1, 62, 0
3, 55680, Note_on_c, 1, 60, 100
3, 55896, Note_on_c, 1, 60, 0
3, 57360, Note_on_c, 1, 59, 100
3, 57576, Note_on_c, 1, 59, 0
3, 57600, Note_on_c, 1, 64, 100
3, 57816, Note_on_c, 1, 64, 0
3, 59280, Note_on_c, 1, 57, 100
3, 59496, Note_on_c, 1, 57, 0
3, 59520, Note_on_c, 1, 62, 100
3, 59736, Note_on_c, 1, 62, 0
3, 61200, Note_on_c, 1, 55, 100
3, 61416, Note_on_c, 1, 55, 0
3, 61440, Note_on_c, 1, 60, 100
3, 61656, Note_on_c, 1, 60, 0
3, 76080, Note_on_c, 1, 52, 100
3, 76188, Note_on_c, 1, 52, 0
3, 76200, Note_on_c, 1, 51, 100
3, 76308, Note_on_c, 1, 51, 0
3, 76320, Note_on_c, 1, 52, 100
3, 76428, Note_on_c, 1, 52, 0
3, 76440, Note_on_c, 1, 54, 100
3, 76548, Note_on_c, 1, 54, 0
3, 76560, Note_on_c, 1, 55, 100
3, 76668, Note_on_c, 1, 55, 0
3, 76680, Note_on_c, 1, 57, 100
3, 76788, Note_on_c, 1, 57, 0
3, 76800, Note_on_c, 1, 59, 100
3, 76908, Note_on_c, 1, 59, 0
3, 76920, Note_on_c, 1, 57, 100
3, 77028, Note_on_c, 1, 57, 0
3, 77040, Note_on_c, 1, 59, 100
3, 77148, Note_on_c, 1, 59, 0
3, 77160, Note_on_c, 1, 60, 100
3, 77268, Note_on_c, 1, 60, 0
3, 77280, Note_on_c, 1, 62, 100
3, 77388, Note_on_c, 1, 62, 0
3, 77400, Note_on_c, 1, 60, 100
3, 77508, Note_on_c, 1, 60, 0
3, 77520, Note_on_c, 1, 62, 100
3, 77628, Note_on_c, 1, 62, 0
3, 77640, Note_on_c, 1, 59, 100
3, 77748, Note_on_c, 1, 59, 0
3, 77760, Note_on_c, 1, 64, 100
3, 77868, Note_on_c, 1, 64, 0
3, 77880, Note_on_c, 1, 63, 100
3, 77988, Note_on_c, 1, 63, 0
3, 78000, Note_on_c, 1, 64, 100
3, 78108, Note_on_c, 1, 64, 0
3, 78120, Note_on_c, 1, 66, 100
3, 78228, Note_on_c, 1, 66, 0
3, 78240, Note_on_c, 1, 64, 100
3, 78348, Note_on_c, 1, 64, 0
3, 78360, Note_on_c, 1, 67, 100
3, 78468, Note_on_c, 1, 67, 0
3, 78480, Note_on_c, 1, 66, 100
3, 78588, Note_on_c, 1, 66, 0
3, 78600, Note_on_c, 1, 64, 100
3, 78708, Note_on_c, 1, 64, 0
3, 78720, Note_on_c, 1, 63, 100
3, 78828, Note_on_c, 1, 63, 0
3, 78840, Note_on_c, 1, 66, 100
3, 78948, Note_on_c, 1, 66, 0
3, 78960, Note_on_c, 1, 59, 100
3, 79068, Note_on_c, 1, 59, 0
3, 79080, Note_on_c, 1, 63, 100
3, 79188, Note_on_c, 1, 63, 0
3, 79200, Note_on_c, 1, 64, 100
3, 79308, Note_on_c, 1, 64, 0
3, 79320, Note_on_c, 1, 67, 100
3, 79428, Note_on_c, 1, 67, 0
3, 79440, Note_on_c, 1, 59, 100
3, 79548, Note_on_c, 1, 59, 0
3, 79560, Note_on_c, 1, 62, 100
3, 79668, Note_on_c, 1, 62, 0
3, 79680, Note_on_c, 1, 60, 100
3, 79788, Note_on_c, 1, 60, 0
3, 79800, Note_on_c, 1, 64, 100
3, 79908, Note_on_c, 1, 64, 0
3, 79920, Note_on_c, 1, 57, 100
3, 80028, Note_on_c, 1, 57, 0
3, 80040, Note_on_c, 1, 60, 100
3, 80148, Note_on_c, 1, 60, 0
3, 80160, Note_on_c, 1, 62, 100
3, 80268, Note_on_c, 1, 62, 0
3, 80280, Note_on_c, 1, 66, 100
3, 80388, Note_on_c, 1, 66, 0
3, 80400, Note_on_c, 1, 57, 100
3, 80508, Note_on_c, 1, 57, 0
3, 80520, Note_on_c, 1, 60, 100
3, 80628, Note_on_c, 1, 60, 0
3, 80640, Note_on_c, 1, 59, 100
3, 80748, Note_on_c, 1, 59, 0
3, 80760, Note_on_c, 1, 62, 100
3, 80868, Note_on_c, 1, 62, 0
3, 80880, Note_on_c, 1, 55, 100
3, 80988, Note_on_c, 1, 55, 0
3, 81000, Note_on_c, 1, 59, 100
3, 81108, Note_on_c, 1, 59, 0
3, 81120, Note_on_c, 1, 60, 100
3, 81228, Note_on_c, 1, 60, 0
3, 81240, Note_on_c, 1, 64, 100
3, 81348, Note_on_c, 1, 64, 0
3, 81360, Note_on_c, 1, 55, 100
3, 81468, Note_on_c, 1, 55, 0
3, 81480, Note_on_c, 1, 59, 100
3, 81588, Note_on_c, 1, 59, 0
3, 81600, Note_on_c, 1, 57, 100
3, 81708, Note_on_c, 1, 57, 0
3, 81720, Note_on_c, 1, 60, 100
3, 81828, Note_on_c, 1, 60, 0
3, 81840, Note_on_c, 1, 54, 100
3, 81948, Note_on_c, 1, 54, 0
3, 81960, Note_on_c, 1, 57, 100
3, 82068, Note_on_c, 1, 57, 0
3, 82080, Note_on_c, 1, 59, 100
3, 82188, Note_on_c, 1, 59, 0
3, 82200, Note_on_c, 1, 62, 100
3, 82308, Note_on_c, 1, 62, 0
3, 82320, Note_on_c, 1, 54, 100
3, 82428, Note_on_c, 1, 54, 0
3, 82440, Note_on_c, 1, 57, 100
3, 82548, Note_on_c, 1, 57, 0
3, 82560, Note_on_c, 1, 56, 100
3, 82668, Note_on_c, 1, 56, 0
3, 82680, Note_on_c, 1, 59, 100
3, 82788, Note_on_c, 1, 59, 0
3, 82800, Note_on_c, 1, 52, 100
3, 82908, Note_on_c, 1, 52, 0
3, 82920, Note_on_c, 1, 56, 100
3, 83028, Note_on_c, 1, 56, 0
3, 83040, Note_on_c, 1, 57, 100
3, 83148, Note_on_c, 1, 57, 0
3, 83160, Note_on_c, 1, 60, 100
3, 83268, Note_on_c, 1, 60, 0
3, 83280, Note_on_c, 1, 52, 100
3, 83388, Note_on_c, 1, 52, 0
3, 83400, Note_on_c, 1, 57, 100
3, 83508, Note_on_c, 1, 57, 0
3, 83520, Note_on_c, 1, 56, 100
3, 83628, Note_on_c, 1, 56, 0
3, 83640, Note_on_c, 1, 59, 100
3, 83748, Note_on_c, 1, 59, 0
3, 83760, Note_on_c, 1, 52, 100
3, 83868, Note_on_c, 1, 52, 0
3, 83880, Note_on_c, 1, 56, 100
3, 83988, Note_on_c, 1, 56, 0
3, 84000, Note_on_c, 1, 57, 100
3, 84108, Note_on_c, 1, 57, 0
3, 84120, Note_on_c, 1, 60, 100
3, 84228, Note_on_c, 1, 60, 0
3, 84240, Note_on_c, 1, 52, 100
3, 84348, Note_on_c, 1, 52, 0
3, 84360, Note_on_c, 1, 57, 100
3, 84468, Note_on_c, 1, 57, 0
3, 84480, Note_on_c, 1, 56, 100
3, 84696, Note_on_c, 1, 56, 0
3, 85680, Note_on_c, 1, 60, 100
3, 85752, Note_on_c, 1, 60, 0
3, 85760, Note_on_c, 1, 59, 100
3, 85832, Note_on_c, 1, 59, 0
3, 85840, Note_on_c, 1, 60, 100
3, 85912, Note_on_c, 1, 60, 0
3, 85920, Note_on_c, 1, 62, 100
3, 85992, Note_on_c, 1, 62, 0
3, 86000, Note_on_c, 1, 60, 100
3, 86072, Note_on_c, 1, 60, 0
3, 86080, Note_on_c, 1, 62, 100
3, 86152, Note_on_c, 1, 62, 0
3, 86160, Note_on_c, 1, 64, 100
3, 86232, Note_on_c, 1, 64, 0
3, 86240, Note_on_c, 1, 62, 100
3, 86312, Note_on_c, 1, 62, 0
3, 86320, Note_on_c, 1, 64, 100
3, 86392, Note_on_c, 1, 64, 0
3, 86400, Note_on_c, 1, 57, 100
3, 86616, Note_on_c, 1, 57, 0
3, 87600, Note_on_c, 1, 53, 100
3, 87672, Note_on_c, 1, 53, 0
3, 87680, Note_on_c, 1, 52, 100
3, 87752, Note_on_c, 1, 52, 0
3, 87760, Note_on_c, 1, 53, 100
3, 87832, Note_on_c, 1, 53, 0
3, 87840, Note_on_c, 1, 55, 100
3, 87912, Note_on_c, 1, 55, 0
3, 87920, Note_on_c, 1, 53, 100
3, 87992, Note_on_c, 1, 53, 0
3, 88000, Note_on_c, 1, 55, 100
3, 88072, Note_on_c, 1, 55, 0
3, 88080, Note_on_c, 1, 57, 100
3, 88152, Note_on_c, 1, 57, 0
3, 88160, Note_on_c, 1, 55, 100
3, 88232, Note_on_c, 1, 55, 0
3, 88240, Note_on_c, 1, 57, 100
3, 88312, Note_on_c, 1, 57, 0
3, 88320, Note_on_c, 1, 50, 100
3, 88536, Note_on_c, 1, 50, 0
3, 89520, Note_on_c, 1, 59, 100
3, 89592, Note_on_c, 1, 59, 0
3, 89600, Note_on_c, 1, 57, 100
3, 89672, Note_on_c, 1, 57, 0
3, 89680, Note_on_c, 1, 59, 100
3, 89752, Note_on_c, 1, 59, 0
3, 89760, Note_on_c, 1, 60, 100
3, 89832, Note_on_c, 1, 60, 0
3, 89840, Note_on_c, 1, 59, 100
3, 89912, Note_on_c, 1, 59, 0
3, 89920, Note_on_c, 1, 60, 100
3, 89992, Note_on_c, 1, 60, 0
3, 90000, Note_on_c, 1, 62, 100
3, 90072, Note_on_c, 1, 62, 0
3, 90080, Note_on_c, 1, 60, 100
3, 90152, Note_on_c, 1, 60, 0
3, 90160, Note_on_c, 1, 62, 100
3, 90232, Note_on_c, 1, 62, 0
3, 90240, Note_on_c, 1, 55, 100
3, 90456, Note_on_c, 1, 55, 0
3, 90480, Note_on_c, 1, 62, 100
3, 90552, Note_on_c, 1, 62, 0
3, 90560, Note_on_c, 1, 60, 100
3, 90632, Note_on_c, 1, 60, 0
3, 90640, Note_on_c, 1, 62, 100
3, 90712, Note_on_c, 1, 62, 0
3, 90720, Note_on_c, 1, 64, 100
3, 90792, Note_on_c, 1, 64, 0
3, 90800, Note_on_c, 1, 62, 100
3, 90872, Note_on_c, 1, 62, 0
3, 90880, Note_on_c, 1, 64, 100
3, 90952, Note_on_c, 1, 64, 0
3, 90960, Note_on_c, 1, 65, 100
3, 91032, Note_on_c, 1, 65, 0
3, 91040, Note_on_c, 1, 64, 100
3, 91112, Note_on_c, 1, 64, 0
3, 91120, Note_on_c, 1, 65, 100
3, 91192, Note_on_c, 1, 65, 0
3, 91200, Note_on_c, 1, 67, 100
3, 91752, Note_on_c, 1, 67, 0
3, 91760, Note_on_c, 1, 69, 100
3, 91832, Note_on_c, 1, 69, 0
3, 91840, Note_on_c, 1, 67, 100
3, 91912, Note_on_c, 1, 67, 0
3, 91920, Note_on_c, 1, 65, 100
3, 91992, Note_on_c, 1, 65, 0
3, 92000, Note_on_c, 1, 67, 100
3, 92072, Note_on_c, 1, 67, 0
3, 92080, Note_on_c, 1, 65, 100
3, 92152, Note_on_c, 1, 65, 0
3, 92160, Note_on_c, 1, 64, 100
3, 92472, Note_on_c, 1, 64, 0
3, 92480, Note_on_c, 1, 65, 100
3, 92552, Note_on_c, 1, 65, 0
3, 92560, Note_on_c, 1, 67, 100
3, 92632, Note_on_c, 1, 67, 0
3, 92640, Note_on_c, 1, 65, 100
3, 92712, Note_on_c, 1, 65, 0
3, 92720, Note_on_c, 1, 64, 100
3, 92792, Note_on_c, 1, 64, 0
3, 92800, Note_on_c, 1, 65, 100
3, 92872, Note_on_c, 1, 65, 0
3, 92880, Note_on_c, 1, 62, 100
3, 92952, Note_on_c, 1, 62, 0
3, 92960, Note_on_c, 1, 64, 100
3, 93032, Note_on_c, 1, 64, 0
3, 93040, Note_on_c, 1, 65, 100
3, 93112, Note_on_c, 1, 65, 0
3, 93120, Note_on_c, 1, 64, 100
3, 93192, Note_on_c, 1, 64, 0
3, 93200, Note_on_c, 1, 62, 100
3, 93272, Note_on_c, 1, 62, 0
3, 93280, Note_on_c, 1, 64, 100
3, 93352, Note_on_c, 1, 64, 0
3, 93360, Note_on_c, 1, 60, 100
3, 93432, Note_on_c, 1, 60, 0
3, 93440, Note_on_c, 1, 62, 100
3, 93512, Note_on_c, 1, 62, 0
3, 93520, Note_on_c, 1, 64, 100
3, 93592, Note_on_c, 1, 64, 0
3, 93600, Note_on_c, 1, 62, 100
3, 93672, Note_on_c, 1, 62, 0
3, 93680, Note_on_c, 1, 60, 100
3, 93752, Note_on_c, 1, 60, 0
3, 93760, Note_on_c, 1, 62, 100
3, 93832, Note_on_c, 1, 62, 0
3, 93840, Note_on_c, 1, 59, 100
3, 93912, Note_on_c, 1, 59, 0
3, 93920, Note_on_c, 1, 60, 100
3, 93992, Note_on_c, 1, 60, 0
3, 94000, Note_on_c, 1, 62, 100
3, 94072, Note_on_c, 1, 62, 0
3, 94080, Note_on_c, 1, 60, 100
3, 94152, Note_on_c, 1, 60, 0
3, 94160, Note_on_c, 1, 55, 100
3, 94232, Note_on_c, 1, 55, 0
3, 94240, Note_on_c, 1, 53, 100
3, 94312, Note_on_c, 1, 53, 0
3, 94320, Note_on_c, 1, 52, 100
3, 94392, Note_on_c, 1, 52, 0
3, 94400, Note_on_c, 1, 50, 100
3, 94472, Note_on_c, 1, 50, 0
3, 94480, Note_on_c, 1, 48, 100
3, 94552, Note_on_c, 1, 48, 0
3, 94560, Note_on_c, 1, 53, 100
3, 94632, Note_on_c, 1, 53, 0
3, 94640, Note_on_c, 1, 57, 100
3, 94712, Note_on_c, 1, 57, 0
3, 94720, Note_on_c, 1, 55, 100
3, 94792, Note_on_c, 1, 55, 0
3, 94800, Note_on_c, 1, 53, 100
3, 94872, Note_on_c, 1, 53, 0
3, 94880, Note_on_c, 1, 52, 100
3, 94952, Note_on_c, 1, 52, 0
3, 94960, Note_on_c, 1, 50, 100
3, 95032, Note_on_c, 1, 50, 0
3, 95040, Note_on_c, 1, 55, 100
3, 95256, Note_on_c, 1, 55, 0
3, 95400, Note_on_c, 1, 65, 100
3, 95508, Note_on_c, 1, 65, 0
3, 95520, Note_on_c, 1, 64, 100
3, 95628, Note_on_c, 1, 64, 0
3, 95640, Note_on_c, 1, 60, 100
3, 95748, Note_on_c, 1, 60, 0
3, 95760, Note_on_c, 1, 64, 100
3, 95868, Note_on_c, 1, 64, 0
3, 95880, Note_on_c, 1, 60, 100
3, 95988, Note_on_c, 1, 60, 0
3, 96000, Note_on_c, 1, 67, 100
3, 96216, Note_on_c, 1, 67, 0
3, 96240, Note_on_c, 1, 55, 100
3, 96348, Note_on_c, 1, 55, 0
3, 96360, Note_on_c, 1, 53, 100
3, 96468, Note_on_c, 1, 53, 0
3, 96480, Note_on_c, 1, 52, 100
3, 96588, Note_on_c, 1, 52, 0
3, 96600, Note_on_c, 1, 48, 100
3, 96708, Note_on_c, 1, 48, 0
3, 96720, Note_on_c, 1, 52, 100
3, 96828, Note_on_c, 1, 52, 0
3, 96840, Note_on_c, 1, 48, 100
3, 96948, Note_on_c, 1, 48, 0
3, 96960, Note_on_c, 1, 55, 100
3, 97176, Note_on_c, 1, 55, 0
3, 121200, Note_on_c, 1, 41, 100
3, 121416, Note_on_c, 1, 41, 0
3, 121440, Note_on_c, 1, 48, 100
3, 121656, Note_on_c, 1, 48, 0
3, 121680, Note_on_c, 1, 36, 100
3, 121896, Note_on_c, 1, 36, 0
3, 121920, Note_on_c, 1, 41, 100
3, 122136, Note_on_c, 1, 41, 0
3, 123120, Note_on_c, 1, 48, 100
3, 123336, Note_on_c, 1, 48, 0
3, 123360, Note_on_c, 1, 55, 100
3, 123576, Note_on_c, 1, 55, 0
3, 123600, Note_on_c, 1, 43, 100
3, 123816, Note_on_c, 1, 43, 0
3, 123840, Note_on_c, 1, 48, 100
3, 123948, Note_on_c, 1, 48, 0
3, 126000, Note_on_c, 1, 43, 100
3, 126108, Note_on_c, 1, 43, 0
3, 126120, Note_on_c, 1, 42, 100
3, 126228, Note_on_c, 1, 42, 0
3, 126240, Note_on_c, 1, 43, 100
3, 126348, Note_on_c, 1, 43, 0
3, 126360, Note_on_c, 1, 45, 100
3, 126468, Note_on_c, 1, 45, 0
3, 126480, Note_on_c, 1, 47, 100
3, 126588, Note_on_c, 1, 47, 0
3, 126600, Note_on_c, 1, 48, 100
3, 126708, Note_on_c, 1, 48, 0
3, 126720, Note_on_c, 1, 50, 100
3, 126828, Note_on_c, 1, 50, 0
3, 126840, Note_on_c, 1, 49, 100
3, 126948, Note_on_c, 1, 49, 0
3, 126960, Note_on_c, 1, 50, 100
3, 127068, Note_on_c, 1, 50, 0
3, 127080, Note_on_c, 1, 52, 100
3, 127188, Note_on_c, 1, 52, 0
3, 127200, Note_on_c, 1, 54, 100
3, 127308, Note_on_c, 1, 54, 0
3, 127320, Note_on_c, 1, 52, 100
3, 127428, Note_on_c, 1, 52, 0
3, 127440, Note_on_c, 1, 54, 100
3, 127548, Note_on_c, 1, 54, 0
3, 127560, Note_on_c, 1, 50, 100
3, 127668, Note_on_c, 1, 50, 0
3, 127680, Note_on_c, 1, 55, 100
3, 127788, Note_on_c, 1, 55, 0
3, 127800, Note_on_c, 1, 54, 100
3, 127908, Note_on_c, 1, 54, 0
3, 127920, Note_on_c, 1, 55, 100
3, 128028, Note_on_c, 1, 55, 0
3, 128040, Note_on_c, 1, 57, 100
3, 128148, Note_on_c, 1, 57, 0
3, 128160, Note_on_c, 1, 55, 100
3, 128268, Note_on_c, 1, 55, 0
3, 128280, Note_on_c, 1, 59, 100
3, 128388, Note_on_c, 1, 59, 0
3, 128400, Note_on_c, 1, 57, 100
3, 128508, Note_on_c, 1, 57, 0
3, 128520, Note_on_c, 1, 55, 100
3, 128628, Note_on_c, 1, 55, 0
3, 128640, Note_on_c, 1, 54, 100
3, 128748, Note_on_c, 1, 54, 0
3, 128760, Note_on_c, 1, 57, 100
3, 128868, Note_on_c, 1, 57, 0
3, 128880, Note_on_c, 1, 50, 100
3, 128988, Note_on_c, 1, 50, 0
3, 129000, Note_on_c, 1, 54, 100
3, 129108, Note_on_c, 1, 54, 0
3, 129120, Note_on_c, 1, 55, 100
3, 129228, Note_on_c, 1, 55, 0
3, 129240, Note_on_c, 1, 59, 100
3, 129348, Note_on_c, 1, 59, 0
3, 129360, Note_on_c, 1, 50, 100
3, 129468, Note_on_c, 1, 50, 0
3, 129480, Note_on_c, 1, 54, 100
3, 129588, Note_on_c, 1, 54, 0
3, 129600, Note_on_c, 1, 52, 100
3, 129708, Note_on_c, 1, 52, 0
3, 129720, Note_on_c, 1, 55, 100
3, 129828, Note_on_c, 1, 55, 0
3, 129840, Note_on_c, 1, 48, 100
3, 129948, Note_on_c, 1, 48, 0
3, 129960, Note_on_c, 1, 52, 100
3, 130068, Note_on_c, 1, 52, 0
3, 130080, Note_on_c, 1, 54, 100
3, 130188, Note_on_c, 1, 54, 0
3, 130200, Note_on_c, 1, 57, 100
3, 130308, Note_on_c, 1, 57, 0
3, 130320, Note_on_c, 1, 48, 100
3, 130428, Note_on_c, 1, 48, 0
3, 130440, Note_on_c, 1, 52, 100
3, 130548, Note_on_c, 1, 52, 0
3, 130560, Note_on_c, 1, 50, 100
3, 130668, Note_on_c, 1, 50, 0
3, 130680, Note_on_c, 1, 54, 100
3, 130788, Note_on_c, 1, 54, 0
3, 130800, Note_on_c, 1, 47, 100
3, 130908, Note_on_c, 1, 47, 0
3, 130920, Note_on_c, 1, 50, 100
3, 131028, Note_on_c, 1, 50, 0
3, 131040, Note_on_c, 1, 52, 100
3, 131148, Note_on_c, 1, 52, 0
3, 131160, Note_on_c, 1, 55, 100
3, 131268, Note_on_c, 1, 55, 0
3, 131280, Note_on_c, 1, 47, 100
3, 131388, Note_on_c, 1, 47, 0
3, 131400, Note_on_c, 1, 50, 100
3, 131508, Note_on_c, 1, 50, 0
3, 131520, Note_on_c, 1, 48, 100
3, 131628, Note_on_c, 1, 48, 0
3, 131640, Note_on_c, 1, 52, 100
3, 131748, Note_on_c, 1, 52, 0
3, 131760, Note_on_c, 1, 45, 100
3, 131868, Note_on_c, 1, 45, 0
3, 131880, Note_on_c, 1, 48, 100
3, 131988, Note_on_c, 1, 48, 0
3, 132000, Note_on_c, 1, 50, 100
3, 132108, Note_on_c, 1, 50, 0
3, 132120, Note_on_c, 1, 54, 100
3, 132228, Note_on_c, 1, 54, 0
3, 132240, Note_on_c, 1, 45, 100
3, 132348, Note_on_c, 1, 45, 0
3, 132360, Note_on_c, 1, 48, 100
3, 132468, Note_on_c, 1, 48, 0
3, 132480, Note_on_c, 1, 47, 100
3, 132588, Note_on_c, 1, 47, 0
3, 132600, Note_on_c, 1, 50, 100
3, 132708, Note_on_c, 1, 50, 0
3, 132720, Note_on_c, 1, 43, 100
3, 132828, Note_on_c, 1, 43, 0
3, 132840, Note_on_c, 1, 47, 100
3, 132948, Note_on_c, 1, 47, 0
3, 132960, Note_on_c, 1, 48, 100
3, 133068, Note_on_c, 1, 48, 0
3, 133080, Note_on_c, 1, 52, 100
3, 133188, Note_on_c, 1, 52, 0
3, 133200, Note_on_c, 1, 43, 100
3, 133308, Note_on_c, 1, 43, 0
3, 133320, Note_on_c, 1, 48, 100
3, 133428, Note_on_c, 1, 48, 0
3, 133440, Note_on_c, 1, 47, 100
3, 133548, Note_on_c, 1, 47, 0
3, 133560, Note_on_c, 1, 50, 100
3, 133668, Note_on_c, 1, 50, 0
3, 133680, Note_on_c, 1, 43, 100
3, 133788, Note_on_c, 1, 43, 0
3, 133800, Note_on_c, 1, 47, 100
3, 133908, Note_on_c, 1, 47, 0
3, 133920, Note_on_c, 1, 48, 100
3, 134028, Note_on_c, 1, 48, 0
3, 134040, Note_on_c, 1, 52, 100
3, 134148, Note_on_c, 1, 52, 0
3, 134160, Note_on_c, 1, 43, 100
3, 134268, Note_on_c, 1, 43, 0
3, 134280, Note_on_c, 1, 48, 100
3, 134388, Note_on_c, 1, 48, 0
3, 134400, Note_on_c, 1, 47, 100
3, 134616, Note_on_c, 1, 47, 0
3, 135000, Note_on_c, 1, 55, 100
3, 135054, Note_on_c, 1, 55, 0
3, 135060, Note_on_c, 1, 57, 100
3, 135114, Note_on_c, 1, 57, 0
3, 135120, Note_on_c, 1, 59, 100
3, 135174, Note_on_c, 1, 59, 0
3, 135180, Note_on_c, 1, 60, 100
3, 135234, Note_on_c, 1, 60, 0
3, 135240, Note_on_c, 1, 62, 100
3, 135294, Note_on_c, 1, 62, 0
3, 135300, Note_on_c, 1, 64, 100
3, 135354, Note_on_c, 1, 64, 0
3, 135360, Note_on_c, 1, 65, 100
3, 135576, Note_on_c, 1, 65, 0
3, 135600, Note_on_c, 1, 68, 100
3, 135816, Note_on_c, 1, 68, 0
3, 135840, Note_on_c, 1, 65, 100
3, 136056, Note_on_c, 1, 65, 0
3, 136080, Note_on_c, 1, 62, 100
3, 136296, Note_on_c, 1, 62, 0
3, 136320, Note_on_c, 1, 65, 100
3, 136536, Note_on_c, 1, 65, 0
3, 136560, Note_on_c, 1, 62, 100
3, 136776, Note_on_c, 1, 62, 0
3, 136800, Note_on_c, 1, 56, 100
3, 137016, Note_on_c, 1, 56, 0
3, 137040, Note_on_c, 1, 53, 100
3, 137256, Note_on_c, 1, 53, 0
3, 137280, Note_on_c, 1, 59, 100
3, 137496, Note_on_c, 1, 59, 0
3, 137520, Note_on_c, 1, 43, 100
3, 137520, Note_on_c, 1, 47, 100
3, 137520, Note_on_c, 1, 50, 100
3, 137736, Note_on_c, 1, 43, 0
3, 137736, Note_on_c, 1, 47, 0
3, 137736, Note_on_c, 1, 50, 0
3, 137760, Note_on_c, 1, 43, 100
3, 137760, Note_on_c, 1, 47, 100
3, 137760, Note_on_c, 1, 50, 100
3, 137976, Note_on_c, 1, 43, 0
3, 137976, Note_on_c, 1, 47, 0
3, 137976, Note_on_c, 1, 50, 0
3, 138000, Note_on_c, 1, 43, 100
3, 138000, Note_on_c, 1, 47, 100
3, 138000, Note_on_c, 1, 50, 100
3, 138216, Note_on_c, 1, 43, 0
3, 138216, Note_on_c, 1, 47, 0
3, 138216, Note_on_c, 1, 50, 0
3, 138240, Note_on_c, 1, 48, 100
3, 138456, Note_on_c, 1, 48, 0
3, 138840, Note_on_c, 1, 48, 100
3, 138894, Note_on_c, 1, 48, 0
3, 138900, Note_on_c, 1, 50, 100
3, 138954, Note_on_c, 1, 50, 0
3, 138960, Note_on_c, 1, 51, 100
3, 139014, Note_on_c, 1, 51, 0
3, 139020, Note_on_c, 1, 53, 100
3, 139074, Note_on_c, 1, 53, 0
3, 139080, Note_on_c, 1, 55, 100
3, 139134, Note_on_c, 1, 55, 0
3, 139140, Note_on_c, 1, 56, 100
3, 139194, Note_on_c, 1, 56, 0
3, 139200, Note_on_c, 1, 58, 100
3, 139416, Note_on_c, 1, 58, 0
3, 139440, Note_on_c, 1, 61, 100
3, 139656, Note_on_c, 1, 61, 0
3, 139680, Note_on_c, 1, 58, 100
3, 139896, Note_on_c, 1, 58, 0
3, 139920, Note_on_c, 1, 55, 100
3, 140136, Note_on_c, 1, 55, 0
3, 140160, Note_on_c, 1, 58, 100
3, 140376, Note_on_c, 1, 58, 0
3, 140400, Note_on_c, 1, 55, 100
3, 140616, Note_on_c, 1, 55, 0
3, 140640, Note_on_c, 1, 49, 100
3, 140856, Note_on_c, 1, 49, 0
3, 140880, Note_on_c, 1, 46, 100
3, 141096, Note_on_c, 1, 46, 0
3, 141120, Note_on_c, 1, 52, 100
3, 141336, Note_on_c, 1, 52, 0
3, 141360, Note_on_c, 1, 36, 100
3, 141360, Note_on_c, 1, 40, 100
3, 141360, Note_on_c, 1, 43, 100
3, 141360, Note_on_c, 1, 48, 100
3, 141576, Note_on_c, 1, 36, 0
3, 141576, Note_on_c, 1, 40, 0
3, 141576, Note_on_c, 1, 43, 0
3, 141576, Note_on_c, 1, 48, 0
3, 141600, Note_on_c, 1, 36, 100
3, 141600, Note_on_c, 1, 40, 100
3, 141600, Note_on_c, 1, 43, 100
3, 141600, Note_on_c, 1, 48, 100
3, 141816, Note_on_c, 1, 36, 0
3, 141816, Note_on_c, 1, 40, 0
3, 141816, Note_on_c, 1, 43, 0
3, 141816, Note_on_c, 1, 48, 0
3, 141840, Note_on_c, 1, 36, 100
3, 141840, Note_on_c, 1, 40, 100
3, 141840, Note_on_c, 1, 43, 100
3, 141840, Note_on_c, 1, 48, 100
3, 142056, Note_on_c, 1, 36, 0
3, 142056, Note_on_c, 1, 40, 0
3, 142056, Note_on_c, 1, 43, 0
3, 142056, Note_on_c, 1, 48, 0
3, 142080, Note_on_c, 1, 41, 100
3, 142080, Note_on_c, 1, 48, 100
3, 142296, Note_on_c, 1, 41, 0
3, 142296, Note_on_c, 1, 48, 0
3, 142620, Note_on_c, 1, 48, 100
3, 142674, Note_on_c, 1, 48, 0
3, 142680, Note_on_c, 1, 50, 100
3, 142734, Note_on_c, 1, 50, 0
3, 142740, Note_on_c, 1, 52, 100
3, 142794, Note_on_c, 1, 52, 0
3, 142800, Note_on_c, 1, 53, 100
3, 142854, Note_on_c, 1, 53, 0
3, 142860, Note_on_c, 1, 52, 100
3, 142914, Note_on_c, 1, 52, 0
3, 142920, Note_on_c, 1, 53, 100
3, 142974, Note_on_c, 1, 53, 0
3, 142980, Note_on_c, 1, 55, 100
3, 143034, Note_on_c, 1, 55, 0
3, 143040, Note_on_c, 1, 56, 100
3, 143256, Note_on_c, 1, 56, 0
3, 143280, Note_on_c, 1, 53, 100
3, 143496, Note_on_c, 1, 53, 0
3, 143520, Note_on_c, 1, 56, 100
3, 143736, Note_on_c, 1, 56, 0
3, 143760, Note_on_c, 1, 60, 100
3, 143976, Note_on_c, 1, 60, 0
3, 144000, Note_on_c, 1, 65, 100
3, 144216, Note_on_c, 1, 65, 0
3, 144240, Note_on_c, 1, 60, 100
3, 144456, Note_on_c, 1, 60, 0
3, 144480, Note_on_c, 1, 56, 100
3, 144696, Note_on_c, 1, 56, 0
3, 144720, Note_on_c, 1, 53, 100
3, 144936, Note_on_c, 1, 53, 0
3, 145080, Note_on_c, 1, 65, 100
3, 145134, Note_on_c, 1, 65, 0
3, 145140, Note_on_c, 1, 63, 100
3, 145194, Note_on_c, 1, 63, 0
3, 145200, Note_on_c, 1, 65, 100
3, 145308, Note_on_c, 1, 65, 0
3, 145320, Note_on_c, 1, 61, 100
3, 145428, Note_on_c, 1, 61, 0
3, 145440, Note_on_c, 1, 56, 100
3, 145548, Note_on_c, 1, 56, 0
3, 145560, Note_on_c, 1, 53, 100
3, 145668, Note_on_c, 1, 53, 0
3, 145680, Note_on_c, 1, 49, 100
3, 145788, Note_on_c, 1, 49, 0
3, 145800, Note_on_c, 1, 54, 100
3, 145908, Note_on_c, 1, 54, 0
3, 145920, Note_on_c, 1, 53, 100
3, 146136, Note_on_c, 1, 53, 0
3, 146160, Note_on_c, 1, 56, 100
3, 146268, Note_on_c, 1, 56, 0
3, 146280, Note_on_c, 1, 61, 100
3, 146334, Note_on_c, 1, 61, 0
3, 146340, Note_on_c, 1, 56, 100
3, 146394, Note_on_c, 1, 56, 0
3, 146400, Note_on_c, 1, 53, 100
3, 146508, Note_on_c, 1, 53, 0
3, 146520, Note_on_c, 1, 56, 100
3, 146574, Note_on_c, 1, 56, 0
3, 146580, Note_on_c, 1, 53, 100
3, 146634, Note_on_c, 1, 53, 0
3, 146640, Note_on_c, 1, 49, 100
3, 146748, Note_on_c, 1, 49, 0
3, 146760, Note_on_c, 1, 53, 100
3, 146814, Note_on_c, 1, 53, 0
3, 146820, Note_on_c, 1, 49, 100
3, 146874, Note_on_c, 1, 49, 0
3, 146880, Note_on_c, 1, 47, 100
3, 146988, Note_on_c, 1, 47, 0
3, 147000, Note_on_c, 1, 50, 100
3, 147108, Note_on_c, 1, 50, 0
3, 147120, Note_on_c, 1, 53, 100
3, 147228, Note_on_c, 1, 53, 0
3, 147240, Note_on_c, 1, 56, 100
3, 147348, Note_on_c, 1, 56, 0
3, 147840, Note_on_c, 1, 53, 100
3, 147948, Note_on_c, 1, 53, 0
3, 147960, Note_on_c, 1, 59, 100
3, 148068, Note_on_c, 1, 59, 0
3, 148080, Note_on_c, 1, 62, 100
3, 148188, Note_on_c, 1, 62, 0
3, 148800, Note_on_c, 1, 62, 100
3, 148908, Note_on_c, 1, 62, 0
3, 148920, Note_on_c, 1, 65, 100
3, 149028, Note_on_c, 1, 65, 0
3, 149040, Note_on_c, 1, 71, 100
3, 149148, Note_on_c, 1, 71, 0
3, 149400, Note_on_c, 1, 65, 100
3, 149508, Note_on_c, 1, 65, 0
3, 149520, Note_on_c, 1, 63, 100
3, 149628, Note_on_c, 1, 63, 0
3, 149640, Note_on_c, 1, 62, 100
3, 149748, Note_on_c, 1, 62, 0
3, 149760, Note_on_c, 1, 60, 100
3, 149976, Note_on_c, 1, 60, 0
3, 150240, Note_on_c, 1, 63, 100
3, 150294, Note_on_c, 1, 63, 0
3, 150300, Note_on_c, 1, 65, 100
3, 150354, Note_on_c, 1, 65, 0
3, 150360, Note_on_c, 1, 67, 100
3, 150414, Note_on_c, 1, 67, 0
3, 150420, Note_on_c, 1, 65, 100
3, 150474, Note_on_c, 1, 65, 0
3, 150480, Note_on_c, 1, 63, 100
3, 150534, Note_on_c, 1, 63, 0
3, 150540, Note_on_c, 1, 62, 100
3, 150594, Note_on_c, 1, 62, 0
3, 150600, Note_on_c, 1, 60, 100
3, 150654, Note_on_c, 1, 60, 0
3, 150660, Note_on_c, 1, 58, 100
3, 150714, Note_on_c, 1, 58, 0
3, 150720, Note_on_c, 1, 60, 100
3, 150774, Note_on_c, 1, 60, 0
3, 150780, Note_on_c, 1, 48, 100
3, 150834, Note_on_c, 1, 48, 0
3, 150840, Note_on_c, 1, 50, 100
3, 150894, Note_on_c, 1, 50, 0
3, 150900, Note_on_c, 1, 52, 100
3, 150954, Note_on_c, 1, 52, 0
3, 150960, Note_on_c, 1, 53, 100
3, 151014, Note_on_c, 1, 53, 0
3, 151020, Note_on_c, 1, 55, 100
3, 151074, Note_on_c, 1, 55, 0
3, 151080, Note_on_c, 1, 56, 100
3, 151134, Note_on_c, 1, 56, 0
3, 151140, Note_on_c, 1, 58, 100
3, 151194, Note_on_c, 1, 58, 0
3, 151200, Note_on_c, 1, 60, 100
3, 151896, Note_on_c, 1, 60, 0
3, 151920, Note_on_c, 1, 63, 100
3, 152136, Note_on_c, 1, 63, 0
3, 152160, Note_on_c, 1, 60, 100
3, 152376, Note_on_c, 1, 60, 0
3, 152400, Note_on_c, 1, 57, 100
3, 152616, Note_on_c, 1, 57, 0
3, 152640, Note_on_c, 1, 60, 100
3, 152856, Note_on_c, 1, 60, 0
3, 152880, Note_on_c, 1, 57, 100
3, 153096, Note_on_c, 1, 57, 0
3, 153120, Note_on_c, 1, 51, 100
3, 153336, Note_on_c, 1, 51, 0
3, 153360, Note_on_c, 1, 48, 100
3, 153576, Note_on_c, 1, 48, 0
3, 153600, Note_on_c, 1, 54, 100
3, 153816, Note_on_c, 1, 54, 0
3, 153840, Note_on_c, 1, 38, 100
3, 153840, Note_on_c, 1, 42, 100
3, 153840, Note_on_c, 1, 45, 100
3, 154056, Note_on_c, 1, 38, 0
3, 154056, Note_on_c, 1, 42, 0
3, 154056, Note_on_c, 1, 45, 0
3, 154080, Note_on_c, 1, 38, 100
3, 154080, Note_on_c, 1, 42, 100
3, 154080, Note_on_c, 1, 45, 100
3, 154296, Note_on_c, 1, 38, 0
3, 154296, Note_on_c, 1, 42, 0
3, 154296, Note_on_c, 1, 45, 0
3, 154320, Note_on_c, 1, 38, 100
3, 154320, Note_on_c, 1, 42, 100
3, 154320, Note_on_c, 1, 45, 100
3, 154536, Note_on_c, 1, 38, 0
3, 154536, Note_on_c, 1, 42, 0
3, 154536, Note_on_c, 1, 45, 0
3, 154560, Note_on_c, 1, 43, 100
3, 154668, Note_on_c, 1, 43, 0
3, 154680, Note_on_c, 1, 47, 100
3, 154788, Note_on_c, 1, 47, 0
3, 154800, Note_on_c, 1, 50, 100
3, 154908, Note_on_c, 1, 50, 0
3, 154920, Note_on_c, 1, 54, 100
3, 155028, Note_on_c, 1, 54, 0
3, 155520, Note_on_c, 1, 43, 100
3, 155628, Note_on_c, 1, 43, 0
3, 155640, Note_on_c, 1, 48, 100
3, 155748, Note_on_c, 1, 48, 0
3, 155760, Note_on_c, 1, 51, 100
3, 155868, Note_on_c, 1, 51, 0
3, 155880, Note_on_c, 1, 54, 100
3, 155988, Note_on_c, 1, 54, 0
3, 156480, Note_on_c, 1, 43, 100
3, 156588, Note_on_c, 1, 43, 0
3, 156600, Note_on_c, 1, 50, 100
3, 156708, Note_on_c, 1, 50, 0
3, 156720, Note_on_c, 1, 53, 100
3, 156828, Note_on_c, 1, 53, 0
3, 157440, Note_on_c, 1, 43, 100
3, 157548, Note_on_c, 1, 43, 0
3, 157560, Note_on_c, 1, 48, 100
3, 157668, Note_on_c, 1, 48, 0
3, 157680, Note_on_c, 1, 51, 100
3, 157788, Note_on_c, 1, 51, 0
3, 158400, Note_on_c, 1, 43, 100
3, 158508, Note_on_c, 1, 43, 0
3, 158520, Note_on_c, 1, 48, 100
3, 158628, Note_on_c, 1, 48, 0
3, 158640, Note_on_c, 1, 51, 100
3, 158748, Note_on_c, 1, 51, 0
3, 159360, Note_on_c, 1, 43, 100
3, 159468, Note_on_c, 1, 43, 0
3, 159480, Note_on_c, 1, 48, 100
3, 159588, Note_on_c, 1, 48, 0
3, 159600, Note_on_c, 1, 51, 100
3, 159708, Note_on_c, 1, 51, 0
3, 160320, Note_on_c, 1, 43, 100
3, 160428, Note_on_c, 1, 43, 0
3, 160440, Note_on_c, 1, 47, 100
3, 160548, Note_on_c, 1, 47, 0
3, 160560, Note_on_c, 1, 50, 100
3, 160668, Note_on_c, 1, 50, 0
3, 160680, Note_on_c, 1, 55, 100
3, 160788, Note_on_c, 1, 55, 0
3, 161160, Note_on_c, 1, 55, 100
3, 161268, Note_on_c, 1, 55, 0
3, 161280, Note_on_c, 1, 59, 100
3, 161388, Note_on_c, 1, 59, 0
3, 161400, Note_on_c, 1, 62, 100
3, 161508, Note_on_c, 1, 62, 0
3, 161520, Note_on_c, 1, 67, 100
3, 161628, Note_on_c, 1, 67, 0
3, 164160, Note_on_c, 1, 55, 100
3, 164268, Note_on_c, 1, 55, 0
3, 164280, Note_on_c, 1, 63, 100
3, 164388, Note_on_c, 1, 63, 0
3, 164400, Note_on_c, 1, 59, 100
3, 164508, Note_on_c, 1, 59, 0
3, 164520, Note_on_c, 1, 60, 100
3, 164628, Note_on_c, 1, 60, 0
3, 164640, Note_on_c, 1, 55, 100
3, 164748, Note_on_c, 1, 55, 0
3, 164760, Note_on_c, 1, 56, 100
3, 164868, Note_on_c, 1, 56, 0
3, 164880, Note_on_c, 1, 53, 100
3, 164988, Note_on_c, 1, 53, 0
3, 165000, Note_on_c, 1, 55, 100
3, 165108, Note_on_c, 1, 55, 0
3, 165120, Note_on_c, 1, 51, 100
3, 165228, Note_on_c, 1, 51, 0
3, 165240, Note_on_c, 1, 60, 100
3, 165348, Note_on_c, 1, 60, 0
3, 165360, Note_on_c, 1, 54, 100
3, 165468, Note_on_c, 1, 54, 0
3, 165480, Note_on_c, 1, 55, 100
3, 165588, Note_on_c, 1, 55, 0
3, 165600, Note_on_c, 1, 50, 100
3, 165708, Note_on_c, 1, 50, 0
3, 165720, Note_on_c, 1, 51, 100
3, 165828, Note_on_c, 1, 51, 0
3, 165840, Note_on_c, 1, 47, 100
3, 165948, Note_on_c, 1, 47, 0
3, 165960, Note_on_c, 1, 48, 100
3, 166068, Note_on_c, 1, 48, 0
3, 166080, Note_on_c, 1, 43, 100
3, 166188, Note_on_c, 1, 43, 0
3, 166200, Note_on_c, 1, 51, 100
3, 166308, Note_on_c, 1, 51, 0
3, 166320, Note_on_c, 1, 47, 100
3, 166428, Note_on_c, 1, 47, 0
3, 166440, Note_on_c, 1, 48, 100
3, 166548, Note_on_c, 1, 48, 0
3, 166560, Note_on_c, 1, 43, 100
3, 166668, Note_on_c, 1, 43, 0
3, 166680, Note_on_c, 1, 44, 100
3, 166788, Note_on_c, 1, 44, 0
3, 166800, Note_on_c, 1, 42, 100
3, 166908, Note_on_c, 1, 42, 0
3, 166920, Note_on_c, 1, 43, 100
3, 167028, Note_on_c, 1, 43, 0
3, 167040, Note_on_c, 1, 36, 100
3, 167472, Note_on_c, 1, 36, 0
3, 167520, Note_on_c, 1, 48, 100
3, 167952, Note_on_c, 1, 48, 0
3, 168000, Note_on_c, 1, 47, 100
3, 168864, Note_on_c, 1, 47, 0
3, 168960, Note_on_c, 1, 45, 100
3, 169824, Note_on_c, 1, 45, 0
3, 169920, Note_on_c, 1, 43, 100
3, 170136, Note_on_c, 1, 43, 0
3, 170160, Note_on_c, 1, 55, 100
3, 170268, Note_on_c, 1, 55, 0
3, 170280, Note_on_c, 1, 53, 100
3, 170388, Note_on_c, 1, 53, 0
3, 170400, Note_on_c, 1, 52, 100
3, 170508, Note_on_c, 1, 52, 0
3, 170520, Note_on_c, 1, 55, 100
3, 170628, Note_on_c, 1, 55, 0
3, 170640, Note_on_c, 1, 52, 100
3, 170748, Note_on_c, 1, 52, 0
3, 170760, Note_on_c, 1, 48, 100
3, 170868, Note_on_c, 1, 48, 0
3, 170880, Note_on_c, 1, 53, 100
3, 170988, Note_on_c, 1, 53, 0
3, 171000, Note_on_c, 1, 41, 100
3, 171108, Note_on_c, 1, 41, 0
3, 171120, Note_on_c, 1, 53, 100
3, 171228, Note_on_c, 1, 53, 0
3, 171240, Note_on_c, 1, 52, 100
3, 171348, Note_on_c, 1, 52, 0
3, 171360, Note_on_c, 1, 50, 100
3, 171468, Note_on_c, 1, 50, 0
3, 171480, Note_on_c, 1, 53, 100
3, 171588, Note_on_c, 1, 53, 0
3, 171600, Note_on_c, 1, 50, 100
3, 171708, Note_on_c, 1, 50, 0
3, 171720, Note_on_c, 1, 47, 100
3, 171828, Note_on_c, 1, 47, 0
3, 171840, Note_on_c, 1, 52, 100
3, 171948, Note_on_c, 1, 52, 0
3, 171960, Note_on_c, 1, 40, 100
3, 172068, Note_on_c, 1, 40, 0
3, 172080, Note_on_c, 1, 52, 100
3, 172188, Note_on_c, 1, 52, 0
3, 172200, Note_on_c, 1, 50, 100
3, 172308, Note_on_c, 1, 50, 0
3, 172320, Note_on_c, 1, 48, 100
3, 172428, Note_on_c, 1, 48, 0
3, 172440, Note_on_c, 1, 52, 100
3, 172548, Note_on_c, 1, 52, 0
3, 172560, Note_on_c, 1, 48, 100
3, 172668, Note_on_c, 1, 48, 0
3, 172680, Note_on_c, 1, 45, 100
3, 172788, Note_on_c, 1, 45, 0
3, 172800, Note_on_c, 1, 50, 100
3, 172908, Note_on_c, 1, 50, 0
3, 172920, Note_on_c, 1, 38, 100
3, 173028, Note_on_c, 1, 38, 0
3, 173040, Note_on_c, 1, 50, 100
3, 173148, Note_on_c, 1, 50, 0
3, 173160, Note_on_c, 1, 48, 100
3, 173268, Note_on_c, 1, 48, 0
3, 173280, Note_on_c, 1, 47, 100
3, 173388, Note_on_c, 1, 47, 0
3, 173400, Note_on_c, 1, 50, 100
3, 173508, Note_on_c, 1, 50, 0
3, 173520, Note_on_c, 1, 47, 100
3, 173628, Note_on_c, 1, 47, 0
3, 173640, Note_on_c, 1, 43, 100
3, 173748, Note_on_c, 1, 43, 0
3, 173760, Note_on_c, 1, 48, 100
3, 173868, Note_on_c, 1, 48, 0
3, 173880, Note_on_c, 1, 36, 100
3, 173988, Note_on_c, 1, 36, 0
3, 174000, Note_on_c, 1, 48, 100
3, 174108, Note_on_c, 1, 48, 0
3, 174120, Note_on_c, 1, 46, 100
3, 174228, Note_on_c, 1, 46, 0
3, 174240, Note_on_c, 1, 45, 100
3, 174348, Note_on_c, 1, 45, 0
3, 174360, Note_on_c, 1, 48, 100
3, 174468, Note_on_c, 1, 48, 0
3, 174480, Note_on_c, 1, 45, 100
3, 174588, Note_on_c, 1, 45, 0
3, 174600, Note_on_c, 1, 41, 100
3, 174708, Note_on_c, 1, 41, 0
3, 174720, Note_on_c, 1, 48, 100
3, 174828, Note_on_c, 1, 48, 0
3, 174840, Note_on_c, 1, 36, 100
3, 174948, Note_on_c, 1, 36, 0
3, 174960, Note_on_c, 1, 48, 100
3, 175068, Note_on_c, 1, 48, 0
3, 175080, Note_on_c, 1, 46, 100
3, 175188, Note_on_c, 1, 46, 0
3, 175200, Note_on_c, 1, 45, 100
3, 175308, Note_on_c, 1, 45, 0
3, 175320, Note_on_c, 1, 48, 100
3, 175428, Note_on_c, 1, 48, 0
3, 175440, Note_on_c, 1, 45, 100
3, 175548, Note_on_c, 1, 45, 0
3, 175560, Note_on_c, 1, 41, 100
3, 175668, Note_on_c, 1, 41, 0
3, 175680, Note_on_c, 1, 48, 100
3, 175896, Note_on_c, 1, 48, 0
3, 176400, Note_on_c, 1, 50, 100
3, 176616, Note_on_c, 1, 50, 0
3, 176640, Note_on_c, 1, 52, 100
3, 176856, Note_on_c, 1, 52, 0
3, 176880, Note_on_c, 1, 53, 100
3, 177096, Note_on_c, 1, 53, 0
3, 177120, Note_on_c, 1, 55, 100
3, 177336, Note_on_c, 1, 55, 0
3, 177360, Note_on_c, 1, 43, 100
3, 177468, Note_on_c, 1, 43, 0
3, 177480, Note_on_c, 1, 50, 100
3, 177588, Note_on_c, 1, 50, 0
3, 177600, Note_on_c, 1, 52, 100
3, 177708, Note_on_c, 1, 52, 0
3, 177720, Note_on_c, 1, 55, 100
3, 177828, Note_on_c, 1, 55, 0
3, 177840, Note_on_c, 1, 48, 100
3, 177948, Note_on_c, 1, 48, 0
3, 177960, Note_on_c, 1, 52, 100
3, 178068, Note_on_c, 1, 52, 0
3, 178080, Note_on_c, 1, 53, 100
3, 178188, Note_on_c, 1, 53, 0
3, 178200, Note_on_c, 1, 57, 100
3, 178308, Note_on_c, 1, 57, 0
3, 178320, Note_on_c, 1, 48, 100
3, 178428, Note_on_c, 1, 48, 0
3, 178440, Note_on_c, 1, 53, 100
3, 178548, Note_on_c, 1, 53, 0
3, 178560, Note_on_c, 1, 52, 100
3, 178668, Note_on_c, 1, 52, 0
3, 178680, Note_on_c, 1, 55, 100
3, 178788, Note_on_c, 1, 55, 0
3, 178800, Note_on_c, 1, 48, 100
3, 178908, Note_on_c, 1, 48, 0
3, 178920, Note_on_c, 1, 52, 100
3, 179028, Note_on_c, 1, 52, 0
3, 179040, Note_on_c, 1, 53, 100
3, 179148, Note_on_c, 1, 53, 0
3, 179160, Note_on_c, 1, 57, 100
3, 179268, Note_on_c, 1, 57, 0
3, 179280, Note_on_c, 1, 48, 100
3, 179388, Note_on_c, 1, 48, 0
3, 179400, Note_on_c, 1, 53, 100
3, 179508, Note_on_c, 1, 53, 0
3, 179520, Note_on_c, 1, 52, 100
3, 179736, Note_on_c, 1, 52, 0
3, 179760, Note_on_c, 1, 64, 100
3, 179832, Note_on_c, 1, 64, 0
3, 179840, Note_on_c, 1, 62, 100
3, 179912, Note_on_c, 1, 62, 0
3, 179920, Note_on_c, 1, 64, 100
3, 179992, Note_on_c, 1, 64, 0
3, 180000, Note_on_c, 1, 65, 100
3, 180072, Note_on_c, 1, 65, 0
3, 180080, Note_on_c, 1, 64, 100
3, 180152, Note_on_c, 1, 64, 0
3, 180160, Note_on_c, 1, 65, 100
3, 180232, Note_on_c, 1, 65, 0
3, 180240, Note_on_c, 1, 62, 100
3, 180312, Note_on_c, 1, 62, 0
3, 180320, Note_on_c, 1, 60, 100
3, 180392, Note_on_c, 1, 60, 0
3, 180400, Note_on_c, 1, 62, 100
3, 180472, Note_on_c, 1, 62, 0
3, 180480, Note_on_c, 1, 64, 100
3, 180696, Note_on_c, 1, 64, 0
3, 181440, Note_on_c, 1, 60, 100
3, 181440, Note_on_c, 1, 64, 100
3, 181440, Note_on_c, 1, 67, 100
3, 181656, Note_on_c, 1, 60, 0
3, 181656, Note_on_c, 1, 64, 0
3, 181656, Note_on_c, 1, 67, 0
3, 182640, Note_on_c, 1, 53, 100
3, 182856, Note_on_c, 1, 53, 0
3, 182880, Note_on_c, 1, 55, 100
3, 183096, Note_on_c, 1, 55, 0
3, 183120, Note_on_c, 1, 43, 100
3, 183336, Note_on_c, 1, 43, 0
3, 183360, Note_on_c, 1, 36, 100
3, 183360, Note_on_c, 1, 48, 100
3, 184224, Note_on_c, 1, 36, 0
3, 184224, Note_on_c, 1, 48, 0
3, 184224, End_track
4, 0, Start_track
4, 0, Sequence_number, 65535
4, 0, MIDI_port, 0
4, 0, Title_t, "Cembalo II"
4, 0, Control_c, 2, 0, 0
4, 0, Control_c, 2, 32, 0
4, 0, Program_c, 2, 6
4, 0, Control_c, 2, 7, 80
4, 0, Control_c, 2, 10, 64
4, 240, Note_on_c, 2, 60, 100
4, 348, Note_on_c, 2, 60, 0
4, 360, Note_on_c, 2, 59, 100
4, 468, Note_on_c, 2, 59, 0
4, 480, Note_on_c, 2, 60, 100
4, 588, Note_on_c, 2, 60, 0
4, 600, Note_on_c, 2, 62, 100
4, 708, Note_on_c, 2, 62, 0
4, 720, Note_on_c, 2, 64, 100
4, 828, Note_on_c, 2, 64, 0
4, 840, Note_on_c, 2, 65, 100
4, 948, Note_on_c, 2, 65, 0
4, 960, Note_on_c, 2, 67, 100
4, 1068, Note_on_c, 2, 67, 0
4, 1080, Note_on_c, 2, 66, 100
4, 1188, Note_on_c, 2, 66, 0
4, 1200, Note_on_c, 2, 67, 100
4, 1308, Note_on_c, 2, 67, 0
4, 1320, Note_on_c, 2, 69, 100
4, 1428, Note_on_c, 2, 69, 0
4, 1440, Note_on_c, 2, 71, 100
4, 1548, Note_on_c, 2, 71, 0
4, 1560, Note_on_c, 2, 69, 100
4, 1668, Note_on_c, 2, 69, 0
4, 1680, Note_on_c, 2, 71, 100
4, 1788, Note_on_c, 2, 71, 0
4, 1800, Note_on_c, 2, 67, 100
4, 1908, Note_on_c, 2, 67, 0
4, 1920, Note_on_c, 2, 72, 100
4, 2028, Note_on_c, 2, 72, 0
4, 2040, Note_on_c, 2, 71, 100
4, 2148, Note_on_c, 2, 71, 0
4, 2160, Note_on_c, 2, 72, 100
4, 2268, Note_on_c, 2, 72, 0
4, 2280, Note_on_c, 2, 74, 100
4, 2388, Note_on_c, 2, 74, 0
4, 2400, Note_on_c, 2, 72, 100
4, 2508, Note_on_c, 2, 72, 0
4, 2520, Note_on_c, 2, 76, 100
4, 2628, Note_on_c, 2, 76, 0
4, 2640, Note_on_c, 2, 74, 100
4, 2748, Note_on_c, 2, 74, 0
4, 2760, Note_on_c, 2, 72, 100
4, 2868, Note_on_c, 2, 72, 0
4, 2880, Note_on_c, 2, 71, 100
4, 2988, Note_on_c, 2, 71, 0
4, 3000, Note_on_c, 2, 74, 100
4, 3108, Note_on_c, 2, 74, 0
4, 3120, Note_on_c, 2, 67, 100
4, 3228, Note_on_c, 2, 67, 0
4, 3240, Note_on_c, 2, 71, 100
4, 3348, Note_on_c, 2, 71, 0
4, 3360, Note_on_c, 2, 72, 100
4, 3468, Note_on_c, 2, 72, 0
4, 3480, Note_on_c, 2, 76, 100
4, 3588, Note_on_c, 2, 76, 0
4, 3600, Note_on_c, 2, 67, 100
4, 3708, Note_on_c, 2, 67, 0
4, 3720, Note_on_c, 2, 71, 100
4, 3828, Note_on_c, 2, 71, 0
4, 3840, Note_on_c, 2, 69, 100
4, 3948, Note_on_c, 2, 69, 0
4, 3960, Note_on_c, 2, 72, 100
4, 4068, Note_on_c, 2, 72, 0
4, 4080, Note_on_c, 2, 65, 100
4, 4188, Note_on_c, 2, 65, 0
4, 4200, Note_on_c, 2, 69, 100
4, 4308, Note_on_c, 2, 69, 0
4, 4320, Note_on_c, 2, 71, 100
4, 4428, Note_on_c, 2, 71, 0
4, 4440, Note_on_c, 2, 74, 100
4, 4548, Note_on_c, 2, 74, 0
4, 4560, Note_on_c, 2, 65, 100
4, 4668, Note_on_c, 2, 65, 0
4, 4680, Note_on_c, 2, 69, 100
4, 4788, Note_on_c, 2, 69, 0
4, 4800, Note_on_c, 2, 67, 100
4, 4908, Note_on_c, 2, 67, 0
4, 4920, Note_on_c, 2, 71, 100
4, 5028, Note_on_c, 2, 71, 0
4, 5040, Note_on_c, 2, 64, 100
4, 5148, Note_on_c, 2, 64, 0
4, 5160, Note_on_c, 2, 67, 100
4, 5268, Note_on_c, 2, 67, 0
4, 5280, Note_on_c, 2, 69, 100
4, 5388, Note_on_c, 2, 69, 0
4, 5400, Note_on_c, 2, 72, 100
4, 5508, Note_on_c, 2, 72, 0
4, 5520, Note_on_c, 2, 64, 100
4, 5628, Note_on_c, 2, 64, 0
4, 5640, Note_on_c, 2, 67, 100
4, 5748, Note_on_c, 2, 67, 0
4, 5760, Note_on_c, 2, 65, 100
4, 5868, Note_on_c, 2, 65, 0
4, 5880, Note_on_c, 2, 69, 100
4, 5988, Note_on_c, 2, 69, 0
4, 6000, Note_on_c, 2, 62, 100
4, 6108, Note_on_c, 2, 62, 0
4, 6120, Note_on_c, 2, 65, 100
4, 6228, Note_on_c, 2, 65, 0
4, 6240, Note_on_c, 2, 67, 100
4, 6348, Note_on_c, 2, 67, 0
4, 6360, Note_on_c, 2, 71, 100
4, 6468, Note_on_c, 2, 71, 0
4, 6480, Note_on_c, 2, 62, 100
4, 6588, Note_on_c, 2, 62, 0
4, 6600, Note_on_c, 2, 65, 100
4, 6708, Note_on_c, 2, 65, 0
4, 6720, Note_on_c, 2, 64, 100
4, 6828, Note_on_c, 2, 64, 0
4, 6840, Note_on_c, 2, 67, 100
4, 6948, Note_on_c, 2, 67, 0
4, 6960, Note_on_c, 2, 60, 100
4, 7068, Note_on_c, 2, 60, 0
4, 7080, Note_on_c, 2, 64, 100
4, 7188, Note_on_c, 2, 64, 0
4, 7200, Note_on_c, 2, 65, 100
4, 7308, Note_on_c, 2, 65, 0
4, 7320, Note_on_c, 2, 69, 100
4, 7428, Note_on_c, 2, 69, 0
4, 7440, Note_on_c, 2, 60, 100
4, 7548, Note_on_c, 2, 60, 0
4, 7560, Note_on_c, 2, 65, 100
4, 7668, Note_on_c, 2, 65, 0
4, 7680, Note_on_c, 2, 64, 100
4, 7788, Note_on_c, 2, 64, 0
4, 7800, Note_on_c, 2, 67, 100
4, 7908, Note_on_c, 2, 67, 0
4, 7920, Note_on_c, 2, 60, 100
4, 8028, Note_on_c, 2, 60, 0
4, 8040, Note_on_c, 2, 64, 100
4, 8148, Note_on_c, 2, 64, 0
4, 8160, Note_on_c, 2, 65, 100
4, 8268, Note_on_c, 2, 65, 0
4, 8280, Note_on_c, 2, 69, 100
4, 8388, Note_on_c, 2, 69, 0
4, 8400, Note_on_c, 2, 60, 100
4, 8508, Note_on_c, 2, 60, 0
4, 8520, Note_on_c, 2, 65, 100
4, 8628, Note_on_c, 2, 65, 0
4, 8640, Note_on_c, 2, 64, 100
4, 8748, Note_on_c, 2, 64, 0
4, 8760, Note_on_c, 2, 67, 100
4, 8868, Note_on_c, 2, 67, 0
4, 8880, Note_on_c, 2, 60, 100
4, 8988, Note_on_c, 2, 60, 0
4, 9000, Note_on_c, 2, 64, 100
4, 9108, Note_on_c, 2, 64, 0
4, 9120, Note_on_c, 2, 69, 100
4, 9228, Note_on_c, 2, 69, 0
4, 9240, Note_on_c, 2, 72, 100
4, 9348, Note_on_c, 2, 72, 0
4, 9360, Note_on_c, 2, 64, 100
4, 9468, Note_on_c, 2, 64, 0
4, 9480, Note_on_c, 2, 67, 100
4, 9588, Note_on_c, 2, 67, 0
4, 9600, Note_on_c, 2, 66, 100
4, 9708, Note_on_c, 2, 66, 0
4, 9720, Note_on_c, 2, 69, 100
4, 9828, Note_on_c, 2, 69, 0
4, 9840, Note_on_c, 2, 62, 100
4, 9948, Note_on_c, 2, 62, 0
4, 9960, Note_on_c, 2, 66, 100
4, 10068, Note_on_c, 2, 66, 0
4, 10080, Note_on_c, 2, 71, 100
4, 10188, Note_on_c, 2, 71, 0
4, 10200, Note_on_c, 2, 74, 100
4, 10308, Note_on_c, 2, 74, 0
4, 10320, Note_on_c, 2, 66, 100
4, 10428, Note_on_c, 2, 66, 0
4, 10440, Note_on_c, 2, 69, 100
4, 10548, Note_on_c, 2, 69, 0
4, 10560, Note_on_c, 2, 67, 100
4, 10668, Note_on_c, 2, 67, 0
4, 10680, Note_on_c, 2, 71, 100
4, 10788, Note_on_c, 2, 71, 0
4, 10800, Note_on_c, 2, 64, 100
4, 10908, Note_on_c, 2, 64, 0
4, 10920, Note_on_c, 2, 67, 100
4, 11028, Note_on_c, 2, 67, 0
4, 11040, Note_on_c, 2, 72, 100
4, 11148, Note_on_c, 2, 72, 0
4, 11160, Note_on_c, 2, 76, 100
4, 11268, Note_on_c, 2, 76, 0
4, 11280, Note_on_c, 2, 67, 100
4, 11388, Note_on_c, 2, 67, 0
4, 11400, Note_on_c, 2, 71, 100
4, 11508, Note_on_c, 2, 71, 0
4, 11520, Note_on_c, 2, 69, 100
4, 11628, Note_on_c, 2, 69, 0
4, 11640, Note_on_c, 2, 72, 100
4, 11748, Note_on_c, 2, 72, 0
4, 11760, Note_on_c, 2, 66, 100
4, 11868, Note_on_c, 2, 66, 0
4, 11880, Note_on_c, 2, 69, 100
4, 11988, Note_on_c, 2, 69, 0
4, 12000, Note_on_c, 2, 74, 100
4, 12108, Note_on_c, 2, 74, 0
4, 12120, Note_on_c, 2, 78, 100
4, 12228, Note_on_c, 2, 78, 0
4, 12240, Note_on_c, 2, 69, 100
4, 12348, Note_on_c, 2, 69, 0
4, 12360, Note_on_c, 2, 72, 100
4, 12468, Note_on_c, 2, 72, 0
4, 12480, Note_on_c, 2, 71, 100
4, 12696, Note_on_c, 2, 71, 0
4, 13680, Note_on_c, 2, 69, 100
4, 13896, Note_on_c, 2, 69, 0
4, 13920, Note_on_c, 2, 74, 100
4, 14136, Note_on_c, 2, 74, 0
4, 14160, Note_on_c, 2, 74, 100
4, 14376, Note_on_c, 2, 74, 0
4, 14400, Note_on_c, 2, 74, 100
4, 14616, Note_on_c, 2, 74, 0
4, 14640, Note_on_c, 2, 73, 100
4, 14748, Note_on_c, 2, 73, 0
4, 14760, Note_on_c, 2, 71, 100
4, 14868, Note_on_c, 2, 71, 0
4, 14880, Note_on_c, 2, 73, 100
4, 14988, Note_on_c, 2, 73, 0
4, 15000, Note_on_c, 2, 74, 100
4, 15108, Note_on_c, 2, 74, 0
4, 15120, Note_on_c, 2, 71, 100
4, 15228, Note_on_c, 2, 71, 0
4, 15240, Note_on_c, 2, 73, 100
4, 15348, Note_on_c, 2, 73, 0
4, 15360, Note_on_c, 2, 74, 100
4, 15468, Note_on_c, 2, 74, 0
4, 15480, Note_on_c, 2, 78, 100
4, 15588, Note_on_c, 2, 78, 0
4, 15600, Note_on_c, 2, 79, 100
4, 15708, Note_on_c, 2, 79, 0
4, 15720, Note_on_c, 2, 81, 100
4, 15828, Note_on_c, 2, 81, 0
4, 15840, Note_on_c, 2, 83, 100
4, 16056, Note_on_c, 2, 83, 0
4, 16080, Note_on_c, 2, 83, 100
4, 16296, Note_on_c, 2, 83, 0
4, 16320, Note_on_c, 2, 83, 100
4, 16536, Note_on_c, 2, 83, 0
4, 16560, Note_on_c, 2, 81, 100
4, 16668, Note_on_c, 2, 81, 0
4, 16680, Note_on_c, 2, 79, 100
4, 16788, Note_on_c, 2, 79, 0
4, 16800, Note_on_c, 2, 81, 100
4, 17016, Note_on_c, 2, 81, 0
4, 17040, Note_on_c, 2, 81, 100
4, 17256, Note_on_c, 2, 81, 0
4, 17280, Note_on_c, 2, 81, 100
4, 17496, Note_on_c, 2, 81, 0
4, 17520, Note_on_c, 2, 79, 100
4, 17628, Note_on_c, 2, 79, 0
4, 17640, Note_on_c, 2, 78, 100
4, 17748, Note_on_c, 2, 78, 0
4, 17760, Note_on_c, 2, 79, 100
4, 18456, Note_on_c, 2, 79, 0
4, 18480, Note_on_c, 2, 78, 100
4, 18588, Note_on_c, 2, 78, 0
4, 18600, Note_on_c, 2, 76, 100
4, 18708, Note_on_c, 2, 76, 0
4, 18720, Note_on_c, 2, 78, 100
4, 18774, Note_on_c, 2, 78, 0
4, 18780, Note_on_c, 2, 79, 100
4, 18834, Note_on_c, 2, 79, 0
4, 18840, Note_on_c, 2, 81, 100
4, 19056, Note_on_c, 2, 81, 0
4, 19080, Note_on_c, 2, 78, 100
4, 19188, Note_on_c, 2, 78, 0
4, 19200, Note_on_c, 2, 74, 100
4, 19308, Note_on_c, 2, 74, 0
4, 19320, Note_on_c, 2, 71, 100
4, 19428, Note_on_c, 2, 71, 0
4, 19440, Note_on_c, 2, 67, 100
4, 19548, Note_on_c, 2, 67, 0
4, 19560, Note_on_c, 2, 62, 100
4, 19668, Note_on_c, 2, 62, 0
4, 19680, Note_on_c, 2, 64, 100
4, 19788, Note_on_c, 2, 64, 0
4, 19800, Note_on_c, 2, 67, 100
4, 19908, Note_on_c, 2, 67, 0
4, 19920, Note_on_c, 2, 60, 100
4, 20028, Note_on_c, 2, 60, 0
4, 20040, Note_on_c, 2, 64, 100
4, 20148, Note_on_c, 2, 64, 0
4, 20160, Note_on_c, 2, 62, 100
4, 20268, Note_on_c, 2, 62, 0
4, 20280, Note_on_c, 2, 65, 100
4, 20388, Note_on_c, 2, 65, 0
4, 20400, Note_on_c, 2, 59, 100
4, 20508, Note_on_c, 2, 59, 0
4, 20520, Note_on_c, 2, 62, 100
4, 20628, Note_on_c, 2, 62, 0
4, 20640, Note_on_c, 2, 60, 100
4, 20748, Note_on_c, 2, 60, 0
4, 20760, Note_on_c, 2, 55, 100
4, 20868, Note_on_c, 2, 55, 0
4, 20880, Note_on_c, 2, 60, 100
4, 20988, Note_on_c, 2, 60, 0
4, 21000, Note_on_c, 2, 64, 100
4, 21108, Note_on_c, 2, 64, 0
4, 21120, Note_on_c, 2, 62, 100
4, 21336, Note_on_c, 2, 62, 0
4, 21720, Note_on_c, 2, 71, 100
4, 21828, Note_on_c, 2, 71, 0
4, 21840, Note_on_c, 2, 73, 100
4, 21948, Note_on_c, 2, 73, 0
4, 21960, Note_on_c, 2, 74, 100
4, 22068, Note_on_c, 2, 74, 0
4, 22080, Note_on_c, 2, 76, 100
4, 22296, Note_on_c, 2, 76, 0
4, 22320, Note_on_c, 2, 74, 100
4, 22752, Note_on_c, 2, 74, 0
4, 22800, Note_on_c, 2, 73, 100
4, 23016, Note_on_c, 2, 73, 0
4, 23040, Note_on_c, 2, 74, 100
4, 23148, Note_on_c, 2, 74, 0
4, 23160, Note_on_c, 2, 73, 100
4, 23268, Note_on_c, 2, 73, 0
4, 23280, Note_on_c, 2, 74, 100
4, 23388, Note_on_c, 2, 74, 0
4, 23400, Note_on_c, 2, 76, 100
4, 23508, Note_on_c, 2, 76, 0
4, 23520, Note_on_c, 2, 77, 100
4, 24108, Note_on_c, 2, 77, 0
4, 24120, Note_on_c, 2, 79, 100
4, 24228, Note_on_c, 2, 79, 0
4, 24240, Note_on_c, 2, 77, 100
4, 24348, Note_on_c, 2, 77, 0
4, 24360, Note_on_c, 2, 76, 100
4, 24468, Note_on_c, 2, 76, 0
4, 24480, Note_on_c, 2, 74, 100
4, 24588, Note_on_c, 2, 74, 0
4, 24600, Note_on_c, 2, 76, 100
4, 24708, Note_on_c, 2, 76, 0
4, 24720, Note_on_c, 2, 77, 100
4, 24828, Note_on_c, 2, 77, 0
4, 24840, Note_on_c, 2, 74, 100
4, 24948, Note_on_c, 2, 74, 0
4, 24960, Note_on_c, 2, 76, 100
4, 25548, Note_on_c, 2, 76, 0
4, 25560, Note_on_c, 2, 76, 100
4, 25668, Note_on_c, 2, 76, 0
4, 25680, Note_on_c, 2, 78, 100
4, 25788, Note_on_c, 2, 78, 0
4, 25800, Note_on_c, 2, 79, 100
4, 25908, Note_on_c, 2, 79, 0
4, 25920, Note_on_c, 2, 81, 100
4, 26136, Note_on_c, 2, 81, 0
4, 26160, Note_on_c, 2, 79, 100
4, 26592, Note_on_c, 2, 79, 0
4, 26640, Note_on_c, 2, 78, 100
4, 26856, Note_on_c, 2, 78, 0
4, 26880, Note_on_c, 2, 79, 100
4, 27096, Note_on_c, 2, 79, 0
4, 27120, Note_on_c, 2, 67, 100
4, 27336, Note_on_c, 2, 67, 0
4, 27360, Note_on_c, 2, 79, 100
4, 27948, Note_on_c, 2, 79, 0
4, 27960, Note_on_c, 2, 72, 100
4, 28068, Note_on_c, 2, 72, 0
4, 28080, Note_on_c, 2, 69, 100
4, 28188, Note_on_c, 2, 69, 0
4, 28200, Note_on_c, 2, 72, 100
4, 28308, Note_on_c, 2, 72, 0
4, 28320, Note_on_c, 2, 77, 100
4, 28908, Note_on_c, 2, 77, 0
4, 28920, Note_on_c, 2, 71, 100
4, 29028, Note_on_c, 2, 71, 0
4, 29040, Note_on_c, 2, 67, 100
4, 29148, Note_on_c, 2, 67, 0
4, 29160, Note_on_c, 2, 71, 100
4, 29268, Note_on_c, 2, 71, 0
4, 29280, Note_on_c, 2, 76, 100
4, 29868, Note_on_c, 2, 76, 0
4, 29880, Note_on_c, 2, 69, 100
4, 29988, Note_on_c, 2, 69, 0
4, 30000, Note_on_c, 2, 65, 100
4, 30108, Note_on_c, 2, 65, 0
4, 30120, Note_on_c, 2, 69, 100
4, 30228, Note_on_c, 2, 69, 0
4, 30240, Note_on_c, 2, 74, 100
4, 30828, Note_on_c, 2, 74, 0
4, 30840, Note_on_c, 2, 67, 100
4, 30948, Note_on_c, 2, 67, 0
4, 30960, Note_on_c, 2, 64, 100
4, 31068, Note_on_c, 2, 64, 0
4, 31080, Note_on_c, 2, 67, 100
4, 31188, Note_on_c, 2, 67, 0
4, 31200, Note_on_c, 2, 72, 100
4, 31788, Note_on_c, 2, 72, 0
4, 31800, Note_on_c, 2, 74, 100
4, 31908, Note_on_c, 2, 74, 0
4, 31920, Note_on_c, 2, 72, 100
4, 32028, Note_on_c, 2, 72, 0
4, 32040, Note_on_c, 2, 74, 100
4, 32148, Note_on_c, 2, 74, 0
4, 32160, Note_on_c, 2, 72, 100
4, 32856, Note_on_c, 2, 72, 0
4, 32880, Note_on_c, 2, 60, 100
4, 32988, Note_on_c, 2, 60, 0
4, 33000, Note_on_c, 2, 59, 100
4, 33108, Note_on_c, 2, 59, 0
4, 33120, Note_on_c, 2, 60, 100
4, 33228, Note_on_c, 2, 60, 0
4, 33240, Note_on_c, 2, 62, 100
4, 33348, Note_on_c, 2, 62, 0
4, 33360, Note_on_c, 2, 64, 100
4, 33468, Note_on_c, 2, 64, 0
4, 33480, Note_on_c, 2, 65, 100
4, 33588, Note_on_c, 2, 65, 0
4, 33600, Note_on_c, 2, 67, 100
4, 33708, Note_on_c, 2, 67, 0
4, 33720, Note_on_c, 2, 66, 100
4, 33828, Note_on_c, 2, 66, 0
4, 33840, Note_on_c, 2, 67, 100
4, 33948, Note_on_c, 2, 67, 0
4, 33960, Note_on_c, 2, 69, 100
4, 34068, Note_on_c, 2, 69, 0
4, 34080, Note_on_c, 2, 71, 100
4, 34188, Note_on_c, 2, 71, 0
4, 34200, Note_on_c, 2, 69, 100
4, 34308, Note_on_c, 2, 69, 0
4, 34320, Note_on_c, 2, 71, 100
4, 34428, Note_on_c, 2, 71, 0
4, 34440, Note_on_c, 2, 67, 100
4, 34548, Note_on_c, 2, 67, 0
4, 34560, Note_on_c, 2, 72, 100
4, 34668, Note_on_c, 2, 72, 0
4, 34680, Note_on_c, 2, 71, 100
4, 34788, Note_on_c, 2, 71, 0
4, 34800, Note_on_c, 2, 72, 100
4, 34908, Note_on_c, 2, 72, 0
4, 34920, Note_on_c, 2, 74, 100
4, 35028, Note_on_c, 2, 74, 0
4, 35040, Note_on_c, 2, 72, 100
4, 35148, Note_on_c, 2, 72, 0
4, 35160, Note_on_c, 2, 76, 100
4, 35268, Note_on_c, 2, 76, 0
4, 35280, Note_on_c, 2, 74, 100
4, 35388, Note_on_c, 2, 74, 0
4, 35400, Note_on_c, 2, 72, 100
4, 35508, Note_on_c, 2, 72, 0
4, 35520, Note_on_c, 2, 71, 100
4, 35628, Note_on_c, 2, 71, 0
4, 35640, Note_on_c, 2, 74, 100
4, 35748, Note_on_c, 2, 74, 0
4, 35760, Note_on_c, 2, 67, 100
4, 35868, Note_on_c, 2, 67, 0
4, 35880, Note_on_c, 2, 71, 100
4, 35988, Note_on_c, 2, 71, 0
4, 36000, Note_on_c, 2, 72, 100
4, 36108, Note_on_c, 2, 72, 0
4, 36120, Note_on_c, 2, 76, 100
4, 36228, Note_on_c, 2, 76, 0
4, 36240, Note_on_c, 2, 67, 100
4, 36348, Note_on_c, 2, 67, 0
4, 36360, Note_on_c, 2, 71, 100
4, 36468, Note_on_c, 2, 71, 0
4, 36480, Note_on_c, 2, 69, 100
4, 36588, Note_on_c, 2, 69, 0
4, 36600, Note_on_c, 2, 72, 100
4, 36708, Note_on_c, 2, 72, 0
4, 36720, Note_on_c, 2, 65, 100
4, 36828, Note_on_c, 2, 65, 0
4, 36840, Note_on_c, 2, 69, 100
4, 36948, Note_on_c, 2, 69, 0
4, 36960, Note_on_c, 2, 71, 100
4, 37068, Note_on_c, 2, 71, 0
4, 37080, Note_on_c, 2, 74, 100
4, 37188, Note_on_c, 2, 74, 0
4, 37200, Note_on_c, 2, 65, 100
4, 37308, Note_on_c, 2, 65, 0
4, 37320, Note_on_c, 2, 69, 100
4, 37428, Note_on_c, 2, 69, 0
4, 37440, Note_on_c, 2, 67, 100
4, 37548, Note_on_c, 2, 67, 0
4, 37560, Note_on_c, 2, 71, 100
4, 37668, Note_on_c, 2, 71, 0
4, 37680, Note_on_c, 2, 64, 100
4, 37788, Note_on_c, 2, 64, 0
4, 37800, Note_on_c, 2, 67, 100
4, 37908, Note_on_c, 2, 67, 0
4, 37920, Note_on_c, 2, 69, 100
4, 38028, Note_on_c, 2, 69, 0
4, 38040, Note_on_c, 2, 72, 100
4, 38148, Note_on_c, 2, 72, 0
4, 38160, Note_on_c, 2, 64, 100
4, 38268, Note_on_c, 2, 64, 0
4, 38280, Note_on_c, 2, 67, 100
4, 38388, Note_on_c, 2, 67, 0
4, 38400, Note_on_c, 2, 65, 100
4, 38508, Note_on_c, 2, 65, 0
4, 38520, Note_on_c, 2, 69, 100
4, 38628, Note_on_c, 2, 69, 0
4, 38640, Note_on_c, 2, 62, 100
4, 38748, Note_on_c, 2, 62, 0
4, 38760, Note_on_c, 2, 65, 100
4, 38868, Note_on_c, 2, 65, 0
4, 38880, Note_on_c, 2, 67, 100
4, 38988, Note_on_c, 2, 67, 0
4, 39000, Note_on_c, 2, 71, 100
4, 39108, Note_on_c, 2, 71, 0
4, 39120, Note_on_c, 2, 62, 100
4, 39228, Note_on_c, 2, 62, 0
4, 39240, Note_on_c, 2, 65, 100
4, 39348, Note_on_c, 2, 65, 0
4, 39360, Note_on_c, 2, 64, 100
4, 39576, Note_on_c, 2, 64, 0
4, 40560, Note_on_c, 2, 72, 100
4, 40632, Note_on_c, 2, 72, 0
4, 40640, Note_on_c, 2, 70, 100
4, 40712, Note_on_c, 2, 70, 0
4, 40720, Note_on_c, 2, 72, 100
4, 40792, Note_on_c, 2, 72, 0
4, 40800, Note_on_c, 2, 74, 100
4, 40872, Note_on_c, 2, 74, 0
4, 40880, Note_on_c, 2, 72, 100
4, 40952, Note_on_c, 2, 72, 0
4, 40960, Note_on_c, 2, 74, 100
4, 41032, Note_on_c, 2, 74, 0
4, 41040, Note_on_c, 2, 76, 100
4, 41112, Note_on_c, 2, 76, 0
4, 41120, Note_on_c, 2, 74, 100
4, 41192, Note_on_c, 2, 74, 0
4, 41200, Note_on_c, 2, 76, 100
4, 41272, Note_on_c, 2, 76, 0
4, 41280, Note_on_c, 2, 77, 100
4, 41496, Note_on_c, 2, 77, 0
4, 42480, Note_on_c, 2, 74, 100
4, 42552, Note_on_c, 2, 74, 0
4, 42560, Note_on_c, 2, 72, 100
4, 42632, Note_on_c, 2, 72, 0
4, 42640, Note_on_c, 2, 74, 100
4, 42712, Note_on_c, 2, 74, 0
4, 42720, Note_on_c, 2, 76, 100
4, 42792, Note_on_c, 2, 76, 0
4, 42800, Note_on_c, 2, 74, 100
4, 42872, Note_on_c, 2, 74, 0
4, 42880, Note_on_c, 2, 76, 100
4, 42952, Note_on_c, 2, 76, 0
4, 42960, Note_on_c, 2, 78, 100
4, 43032, Note_on_c, 2, 78, 0
4, 43040, Note_on_c, 2, 76, 100
4, 43112, Note_on_c, 2, 76, 0
4, 43120, Note_on_c, 2, 78, 100
4, 43192, Note_on_c, 2, 78, 0
4, 43200, Note_on_c, 2, 79, 100
4, 43416, Note_on_c, 2, 79, 0
4, 43440, Note_on_c, 2, 71, 100
4, 43512, Note_on_c, 2, 71, 0
4, 43520, Note_on_c, 2, 69, 100
4, 43592, Note_on_c, 2, 69, 0
4, 43600, Note_on_c, 2, 71, 100
4, 43672, Note_on_c, 2, 71, 0
4, 43680, Note_on_c, 2, 72, 100
4, 43752, Note_on_c, 2, 72, 0
4, 43760, Note_on_c, 2, 71, 100
4, 43832, Note_on_c, 2, 71, 0
4, 43840, Note_on_c, 2, 72, 100
4, 43912, Note_on_c, 2, 72, 0
4, 43920, Note_on_c, 2, 74, 100
4, 43992, Note_on_c, 2, 74, 0
4, 44000, Note_on_c, 2, 72, 100
4, 44072, Note_on_c, 2, 72, 0
4, 44080, Note_on_c, 2, 74, 100
4, 44152, Note_on_c, 2, 74, 0
4, 44160, Note_on_c, 2, 76, 100
4, 44712, Note_on_c, 2, 76, 0
4, 44720, Note_on_c, 2, 77, 100
4, 44792, Note_on_c, 2, 77, 0
4, 44800, Note_on_c, 2, 76, 100
4, 44872, Note_on_c, 2, 76, 0
4, 44880, Note_on_c, 2, 74, 100
4, 44952, Note_on_c, 2, 74, 0
4, 44960, Note_on_c, 2, 76, 100
4, 45032, Note_on_c, 2, 76, 0
4, 45040, Note_on_c, 2, 74, 100
4, 45112, Note_on_c, 2, 74, 0
4, 45120, Note_on_c, 2, 72, 100
4, 45414, Note_on_c, 2, 72, 0
4, 45420, Note_on_c, 2, 71, 100
4, 45474, Note_on_c, 2, 71, 0
4, 45480, Note_on_c, 2, 72, 100
4, 45534, Note_on_c, 2, 72, 0
4, 45540, Note_on_c, 2, 74, 100
4, 45594, Note_on_c, 2, 74, 0
4, 45600, Note_on_c, 2, 74, 100
4, 45924, Note_on_c, 2, 74, 0
4, 45960, Note_on_c, 2, 76, 100
4, 46068, Note_on_c, 2, 76, 0
4, 46080, Note_on_c, 2, 76, 100
4, 46668, Note_on_c, 2, 76, 0
4, 46680, Note_on_c, 2, 74, 100
4, 46788, Note_on_c, 2, 74, 0
4, 46800, Note_on_c, 2, 72, 100
4, 46908, Note_on_c, 2, 72, 0
4, 46920, Note_on_c, 2, 71, 100
4, 47028, Note_on_c, 2, 71, 0
4, 47040, Note_on_c, 2, 69, 100
4, 47148, Note_on_c, 2, 69, 0
4, 47160, Note_on_c, 2, 74, 100
4, 47268, Note_on_c, 2, 74, 0
4, 47280, Note_on_c, 2, 65, 100
4, 47388, Note_on_c, 2, 65, 0
4, 47400, Note_on_c, 2, 69, 100
4, 47508, Note_on_c, 2, 69, 0
4, 47520, Note_on_c, 2, 62, 100
4, 47736, Note_on_c, 2, 62, 0
4, 47760, Note_on_c, 2, 74, 100
4, 48108, Note_on_c, 2, 74, 0
4, 48120, Note_on_c, 2, 72, 100
4, 48228, Note_on_c, 2, 72, 0
4, 48240, Note_on_c, 2, 74, 100
4, 48348, Note_on_c, 2, 74, 0
4, 48360, Note_on_c, 2, 79, 100
4, 48468, Note_on_c, 2, 79, 0
4, 48480, Note_on_c, 2, 72, 100
4, 48588, Note_on_c, 2, 72, 0
4, 48600, Note_on_c, 2, 71, 100
4, 48708, Note_on_c, 2, 71, 0
4, 48720, Note_on_c, 2, 69, 100
4, 48828, Note_on_c, 2, 69, 0
4, 48840, Note_on_c, 2, 67, 100
4, 48948, Note_on_c, 2, 67, 0
4, 48960, Note_on_c, 2, 65, 100
4, 49068, Note_on_c, 2, 65, 0
4, 49080, Note_on_c, 2, 71, 100
4, 49188, Note_on_c, 2, 71, 0
4, 49200, Note_on_c, 2, 62, 100
4, 49308, Note_on_c, 2, 62, 0
4, 49320, Note_on_c, 2, 65, 100
4, 49428, Note_on_c, 2, 65, 0
4, 49440, Note_on_c, 2, 59, 100
4, 49656, Note_on_c, 2, 59, 0
4, 49680, Note_on_c, 2, 80, 100
4, 49896, Note_on_c, 2, 80, 0
4, 49920, Note_on_c, 2, 81, 100
4, 50508, Note_on_c, 2, 81, 0
4, 50520, Note_on_c, 2, 83, 100
4, 50628, Note_on_c, 2, 83, 0
4, 50640, Note_on_c, 2, 81, 100
4, 50748, Note_on_c, 2, 81, 0
4, 50760, Note_on_c, 2, 83, 100
4, 50868, Note_on_c, 2, 83, 0
4, 50880, Note_on_c, 2, 81, 100
4, 51468, Note_on_c, 2, 81, 0
4, 51480, Note_on_c, 2, 83, 100
4, 51588, Note_on_c, 2, 83, 0
4, 51600, Note_on_c, 2, 81, 100
4, 51708, Note_on_c, 2, 81, 0
4, 51720, Note_on_c, 2, 83, 100
4, 51828, Note_on_c, 2, 83, 0
4, 51840, Note_on_c, 2, 81, 100
4, 52056, Note_on_c, 2, 81, 0
4, 52080, Note_on_c, 2, 69, 100
4, 52188, Note_on_c, 2, 69, 0
4, 52200, Note_on_c, 2, 71, 100
4, 52308, Note_on_c, 2, 71, 0
4, 52320, Note_on_c, 2, 72, 100
4, 52428, Note_on_c, 2, 72, 0
4, 52440, Note_on_c, 2, 74, 100
4, 52548, Note_on_c, 2, 74, 0
4, 52560, Note_on_c, 2, 72, 100
4, 52668, Note_on_c, 2, 72, 0
4, 52680, Note_on_c, 2, 74, 100
4, 52788, Note_on_c, 2, 74, 0
4, 52800, Note_on_c, 2, 76, 100
4, 53016, Note_on_c, 2, 76, 0
4, 53040, Note_on_c, 2, 69, 100
4, 53256, Note_on_c, 2, 69, 0
4, 53280, Note_on_c, 2, 64, 100
4, 53496, Note_on_c, 2, 64, 0
4, 53520, Note_on_c, 2, 68, 100
4, 53736, Note_on_c, 2, 68, 0
4, 53760, Note_on_c, 2, 69, 100
4, 54348, Note_on_c, 2, 69, 0
4, 54360, Note_on_c, 2, 71, 100
4, 54468, Note_on_c, 2, 71, 0
4, 54480, Note_on_c, 2, 69, 100
4, 54588, Note_on_c, 2, 69, 0
4, 54600, Note_on_c, 2, 71, 100
4, 54708, Note_on_c, 2, 71, 0
4, 54720, Note_on_c, 2, 69, 100
4, 55308, Note_on_c, 2, 69, 0
4, 55320, Note_on_c, 2, 71, 100
4, 55428, Note_on_c, 2, 71, 0
4, 55440, Note_on_c, 2, 69, 100
4, 55548, Note_on_c, 2, 69, 0
4, 55560, Note_on_c, 2, 71, 100
4, 55668, Note_on_c, 2, 71, 0
4, 55680, Note_on_c, 2, 69, 100
4, 55896, Note_on_c, 2, 69, 0
4, 57840, Note_on_c, 2, 64, 100
4, 57840, Note_on_c, 2, 67, 100
4, 57840, Note_on_c, 2, 71, 100
4, 58056, Note_on_c, 2, 64, 0
4, 58056, Note_on_c, 2, 67, 0
4, 58056, Note_on_c, 2, 71, 0
4, 58080, Note_on_c, 2, 59, 100
4, 58080, Note_on_c, 2, 64, 100
4, 58080, Note_on_c, 2, 67, 100
4, 58296, Note_on_c, 2, 59, 0
4, 58296, Note_on_c, 2, 64, 0
4, 58296, Note_on_c, 2, 67, 0
4, 59760, Note_on_c, 2, 62, 100
4, 59760, Note_on_c, 2, 65, 100
4, 59760, Note_on_c, 2, 69, 100
4, 59976, Note_on_c, 2, 62, 0
4, 59976, Note_on_c, 2, 65, 0
4, 59976, Note_on_c, 2, 69, 0
4, 60000, Note_on_c, 2, 57, 100
4, 60000, Note_on_c, 2, 62, 100
4, 60000, Note_on_c, 2, 65, 100
4, 60216, Note_on_c, 2, 57, 0
4, 60216, Note_on_c, 2, 62, 0
4, 60216, Note_on_c, 2, 65, 0
4, 61680, Note_on_c, 2, 60, 100
4, 61680, Note_on_c, 2, 64, 100
4, 61680, Note_on_c, 2, 67, 100
4, 61896, Note_on_c, 2, 60, 0
4, 61896, Note_on_c, 2, 64, 0
4, 61896, Note_on_c, 2, 67, 0
4, 61920, Note_on_c, 2, 55, 100
4, 61920, Note_on_c, 2, 60, 100
4, 61920, Note_on_c, 2, 64, 100
4, 62136, Note_on_c, 2, 55, 0
4, 62136, Note_on_c, 2, 60, 0
4, 62136, Note_on_c, 2, 64, 0
4, 76080, Note_on_c, 2, 67, 100
4, 76296, Note_on_c, 2, 67, 0
4, 76320, Note_on_c, 2, 71, 100
4, 76536, Note_on_c, 2, 71, 0
4, 76560, Note_on_c, 2, 67, 100
4, 76776, Note_on_c, 2, 67, 0
4, 76800, Note_on_c, 2, 66, 100
4, 77016, Note_on_c, 2, 66, 0
4, 77040, Note_on_c, 2, 71, 100
4, 77148, Note_on_c, 2, 71, 0
4, 77160, Note_on_c, 2, 69, 100
4, 77268, Note_on_c, 2, 69, 0
4, 77280, Note_on_c, 2, 71, 100
4, 77868, Note_on_c, 2, 71, 0
4, 77880, Note_on_c, 2, 72, 100
4, 77988, Note_on_c, 2, 72, 0
4, 78000, Note_on_c, 2, 71, 100
4, 78108, Note_on_c, 2, 71, 0
4, 78120, Note_on_c, 2, 69, 100
4, 78228, Note_on_c, 2, 69, 0
4, 78240, Note_on_c, 2, 67, 100
4, 78348, Note_on_c, 2, 67, 0
4, 78360, Note_on_c, 2, 71, 100
4, 78468, Note_on_c, 2, 71, 0
4, 78480, Note_on_c, 2, 76, 100
4, 78696, Note_on_c, 2, 76, 0
4, 78720, Note_on_c, 2, 78, 100
4, 78828, Note_on_c, 2, 78, 0
4, 78840, Note_on_c, 2, 75, 100
4, 78948, Note_on_c, 2, 75, 0
4, 78960, Note_on_c, 2, 78, 100
4, 79068, Note_on_c, 2, 78, 0
4, 79080, Note_on_c, 2, 83, 100
4, 79188, Note_on_c, 2, 83, 0
4, 79200, Note_on_c, 2, 71, 100
4, 79416, Note_on_c, 2, 71, 0
4, 79440, Note_on_c, 2, 79, 100
4, 79656, Note_on_c, 2, 79, 0
4, 79680, Note_on_c, 2, 79, 100
4, 79896, Note_on_c, 2, 79, 0
4, 79920, Note_on_c, 2, 78, 100
4, 80028, Note_on_c, 2, 78, 0
4, 80040, Note_on_c, 2, 76, 100
4, 80148, Note_on_c, 2, 76, 0
4, 80160, Note_on_c, 2, 78, 100
4, 80376, Note_on_c, 2, 78, 0
4, 80400, Note_on_c, 2, 78, 100
4, 80616, Note_on_c, 2, 78, 0
4, 80640, Note_on_c, 2, 78, 100
4, 80856, Note_on_c, 2, 78, 0
4, 80880, Note_on_c, 2, 76, 100
4, 80988, Note_on_c, 2, 76, 0
4, 81000, Note_on_c, 2, 75, 100
4, 81108, Note_on_c, 2, 75, 0
4, 81120, Note_on_c, 2, 76, 100
4, 81336, Note_on_c, 2, 76, 0
4, 81360, Note_on_c, 2, 76, 100
4, 81576, Note_on_c, 2, 76, 0
4, 81600, Note_on_c, 2, 76, 100
4, 81816, Note_on_c, 2, 76, 0
4, 81840, Note_on_c, 2, 74, 100
4, 81948, Note_on_c, 2, 74, 0
4, 81960, Note_on_c, 2, 73, 100
4, 82068, Note_on_c, 2, 73, 0
4, 82080, Note_on_c, 2, 74, 100
4, 82188, Note_on_c, 2, 74, 0
4, 82200, Note_on_c, 2, 78, 100
4, 82308, Note_on_c, 2, 78, 0
4, 82320, Note_on_c, 2, 83, 100
4, 82668, Note_on_c, 2, 83, 0
4, 82680, Note_on_c, 2, 80, 100
4, 82788, Note_on_c, 2, 80, 0
4, 82800, Note_on_c, 2, 76, 100
4, 82908, Note_on_c, 2, 76, 0
4, 82920, Note_on_c, 2, 71, 100
4, 83028, Note_on_c, 2, 71, 0
4, 83040, Note_on_c, 2, 72, 100
4, 83148, Note_on_c, 2, 72, 0
4, 83160, Note_on_c, 2, 76, 100
4, 83268, Note_on_c, 2, 76, 0
4, 83280, Note_on_c, 2, 69, 100
4, 83388, Note_on_c, 2, 69, 0
4, 83400, Note_on_c, 2, 72, 100
4, 83508, Note_on_c, 2, 72, 0
4, 83520, Note_on_c, 2, 71, 100
4, 83628, Note_on_c, 2, 71, 0
4, 83640, Note_on_c, 2, 74, 100
4, 83748, Note_on_c, 2, 74, 0
4, 83760, Note_on_c, 2, 68, 100
4, 83868, Note_on_c, 2, 68, 0
4, 83880, Note_on_c, 2, 71, 100
4, 83988, Note_on_c, 2, 71, 0
4, 84000, Note_on_c, 2, 72, 100
4, 84108, Note_on_c, 2, 72, 0
4, 84120, Note_on_c, 2, 76, 100
4, 84228, Note_on_c, 2, 76, 0
4, 84240, Note_on_c, 2, 69, 100
4, 84348, Note_on_c, 2, 69, 0
4, 84360, Note_on_c, 2, 72, 100
4, 84468, Note_on_c, 2, 72, 0
4, 84480, Note_on_c, 2, 71, 100
4, 84696, Note_on_c, 2, 71, 0
4, 85680, Note_on_c, 2, 76, 100
4, 85752, Note_on_c, 2, 76, 0
4, 85760, Note_on_c, 2, 74, 100
4, 85832, Note_on_c, 2, 74, 0
4, 85840, Note_on_c, 2, 76, 100
4, 85912, Note_on_c, 2, 76, 0
4, 85920, Note_on_c, 2, 78, 100
4, 85992, Note_on_c, 2, 78, 0
4, 86000, Note_on_c, 2, 76, 100
4, 86072, Note_on_c, 2, 76, 0
4, 86080, Note_on_c, 2, 78, 100
4, 86152, Note_on_c, 2, 78, 0
4, 86160, Note_on_c, 2, 80, 100
4, 86232, Note_on_c, 2, 80, 0
4, 86240, Note_on_c, 2, 78, 100
4, 86312, Note_on_c, 2, 78, 0
4, 86320, Note_on_c, 2, 80, 100
4, 86392, Note_on_c, 2, 80, 0
4, 86400, Note_on_c, 2, 81, 100
4, 86616, Note_on_c, 2, 81, 0
4, 86640, Note_on_c, 2, 64, 100
4, 86712, Note_on_c, 2, 64, 0
4, 86720, Note_on_c, 2, 62, 100
4, 86792, Note_on_c, 2, 62, 0
4, 86800, Note_on_c, 2, 64, 100
4, 86872, Note_on_c, 2, 64, 0
4, 86880, Note_on_c, 2, 65, 100
4, 86952, Note_on_c, 2, 65, 0
4, 86960, Note_on_c, 2, 64, 100
4, 87032, Note_on_c, 2, 64, 0
4, 87040, Note_on_c, 2, 65, 100
4, 87112, Note_on_c, 2, 65, 0
4, 87120, Note_on_c, 2, 67, 100
4, 87192, Note_on_c, 2, 67, 0
4, 87200, Note_on_c, 2, 65, 100
4, 87272, Note_on_c, 2, 65, 0
4, 87280, Note_on_c, 2, 67, 100
4, 87352, Note_on_c, 2, 67, 0
4, 87360, Note_on_c, 2, 69, 100
4, 87912, Note_on_c, 2, 69, 0
4, 87920, Note_on_c, 2, 70, 100
4, 87992, Note_on_c, 2, 70, 0
4, 88000, Note_on_c, 2, 69, 100
4, 88072, Note_on_c, 2, 69, 0
4, 88080, Note_on_c, 2, 67, 100
4, 88152, Note_on_c, 2, 67, 0
4, 88160, Note_on_c, 2, 69, 100
4, 88232, Note_on_c, 2, 69, 0
4, 88240, Note_on_c, 2, 67, 100
4, 88312, Note_on_c, 2, 67, 0
4, 88320, Note_on_c, 2, 66, 100
4, 88536, Note_on_c, 2, 66, 0
4, 89520, Note_on_c, 2, 74, 100
4, 89592, Note_on_c, 2, 74, 0
4, 89600, Note_on_c, 2, 72, 100
4, 89672, Note_on_c, 2, 72, 0
4, 89680, Note_on_c, 2, 74, 100
4, 89752, Note_on_c, 2, 74, 0
4, 89760, Note_on_c, 2, 76, 100
4, 89832, Note_on_c, 2, 76, 0
4, 89840, Note_on_c, 2, 74, 100
4, 89912, Note_on_c, 2, 74, 0
4, 89920, Note_on_c, 2, 76, 100
4, 89992, Note_on_c, 2, 76, 0
4, 90000, Note_on_c, 2, 78, 100
4, 90072, Note_on_c, 2, 78, 0
4, 90080, Note_on_c, 2, 76, 100
4, 90152, Note_on_c, 2, 76, 0
4, 90160, Note_on_c, 2, 78, 100
4, 90232, Note_on_c, 2, 78, 0
4, 90240, Note_on_c, 2, 79, 100
4, 90456, Note_on_c, 2, 79, 0
4, 90480, Note_on_c, 2, 71, 100
4, 90552, Note_on_c, 2, 71, 0
4, 90560, Note_on_c, 2, 69, 100
4, 90632, Note_on_c, 2, 69, 0
4, 90640, Note_on_c, 2, 71, 100
4, 90712, Note_on_c, 2, 71, 0
4, 90720, Note_on_c, 2, 72, 100
4, 90792, Note_on_c, 2, 72, 0
4, 90800, Note_on_c, 2, 71, 100
4, 90872, Note_on_c, 2, 71, 0
4, 90880, Note_on_c, 2, 72, 100
4, 90952, Note_on_c, 2, 72, 0
4, 90960, Note_on_c, 2, 74, 100
4, 91032, Note_on_c, 2, 74, 0
4, 91040, Note_on_c, 2, 72, 100
4, 91112, Note_on_c, 2, 72, 0
4, 91120, Note_on_c, 2, 74, 100
4, 91192, Note_on_c, 2, 74, 0
4, 91200, Note_on_c, 2, 76, 100
4, 91752, Note_on_c, 2, 76, 0
4, 91760, Note_on_c, 2, 77, 100
4, 91832, Note_on_c, 2, 77, 0
4, 91840, Note_on_c, 2, 76, 100
4, 91912, Note_on_c, 2, 76, 0
4, 91920, Note_on_c, 2, 74, 100
4, 91992, Note_on_c, 2, 74, 0
4, 92000, Note_on_c, 2, 76, 100
4, 92072, Note_on_c, 2, 76, 0
4, 92080, Note_on_c, 2, 74, 100
4, 92152, Note_on_c, 2, 74, 0
4, 92160, Note_on_c, 2, 72, 100
4, 92232, Note_on_c, 2, 72, 0
4, 92240, Note_on_c, 2, 76, 100
4, 92312, Note_on_c, 2, 76, 0
4, 92320, Note_on_c, 2, 74, 100
4, 92392, Note_on_c, 2, 74, 0
4, 92400, Note_on_c, 2, 76, 100
4, 92802, Note_on_c, 2, 76, 0
4, 92820, Note_on_c, 2, 72, 100
4, 92874, Note_on_c, 2, 72, 0
4, 92880, Note_on_c, 2, 74, 100
4, 93282, Note_on_c, 2, 74, 0
4, 93300, Note_on_c, 2, 71, 100
4, 93354, Note_on_c, 2, 71, 0
4, 93360, Note_on_c, 2, 72, 100
4, 93762, Note_on_c, 2, 72, 0
4, 93780, Note_on_c, 2, 69, 100
4, 93834, Note_on_c, 2, 69, 0
4, 93840, Note_on_c, 2, 71, 100
4, 94056, Note_on_c, 2, 71, 0
4, 94080, Note_on_c, 2, 72, 100
4, 94242, Note_on_c, 2, 72, 0
4, 94260, Note_on_c, 2, 67, 100
4, 94314, Note_on_c, 2, 67, 0
4, 94320, Note_on_c, 2, 79, 100
4, 94752, Note_on_c, 2, 79, 0
4, 94800, Note_on_c, 2, 77, 100
4, 94962, Note_on_c, 2, 77, 0
4, 94980, Note_on_c, 2, 76, 100
4, 95034, Note_on_c, 2, 76, 0
4, 95040, Note_on_c, 2, 74, 100
4, 95148, Note_on_c, 2, 74, 0
4, 95160, Note_on_c, 2, 71, 100
4, 95268, Note_on_c, 2, 71, 0
4, 95280, Note_on_c, 2, 67, 100
4, 95388, Note_on_c, 2, 67, 0
4, 95400, Note_on_c, 2, 71, 100
4, 95508, Note_on_c, 2, 71, 0
4, 95520, Note_on_c, 2, 72, 100
4, 95628, Note_on_c, 2, 72, 0
4, 95640, Note_on_c, 2, 76, 100
4, 95748, Note_on_c, 2, 76, 0
4, 95760, Note_on_c, 2, 67, 100
4, 95868, Note_on_c, 2, 67, 0
4, 95880, Note_on_c, 2, 72, 100
4, 95988, Note_on_c, 2, 72, 0
4, 96000, Note_on_c, 2, 71, 100
4, 96108, Note_on_c, 2, 71, 0
4, 96120, Note_on_c, 2, 74, 100
4, 96228, Note_on_c, 2, 74, 0
4, 96240, Note_on_c, 2, 67, 100
4, 96348, Note_on_c, 2, 67, 0
4, 96360, Note_on_c, 2, 71, 100
4, 96468, Note_on_c, 2, 71, 0
4, 96480, Note_on_c, 2, 72, 100
4, 96588, Note_on_c, 2, 72, 0
4, 96600, Note_on_c, 2, 76, 100
4, 96708, Note_on_c, 2, 76, 0
4, 96720, Note_on_c, 2, 67, 100
4, 96828, Note_on_c, 2, 67, 0
4, 96840, Note_on_c, 2, 72, 100
4, 96948, Note_on_c, 2, 72, 0
4, 96960, Note_on_c, 2, 71, 100
4, 97014, Note_on_c, 2, 71, 0
4, 97020, Note_on_c, 2, 74, 100
4, 97074, Note_on_c, 2, 74, 0
4, 97080, Note_on_c, 2, 76, 100
4, 97134, Note_on_c, 2, 76, 0
4, 97140, Note_on_c, 2, 77, 100
4, 97194, Note_on_c, 2, 77, 0
4, 97200, Note_on_c, 2, 79, 100
4, 97254, Note_on_c, 2, 79, 0
4, 97260, Note_on_c, 2, 77, 100
4, 97314, Note_on_c, 2, 77, 0
4, 97320, Note_on_c, 2, 76, 100
4, 97374, Note_on_c, 2, 76, 0
4, 97380, Note_on_c, 2, 74, 100
4, 97434, Note_on_c, 2, 74, 0
4, 97440, Note_on_c, 2, 76, 100
4, 97494, Note_on_c, 2, 76, 0
4, 97500, Note_on_c, 2, 74, 100
4, 97554, Note_on_c, 2, 74, 0
4, 97560, Note_on_c, 2, 72, 100
4, 97614, Note_on_c, 2, 72, 0
4, 97620, Note_on_c, 2, 71, 100
4, 97674, Note_on_c, 2, 71, 0
4, 97680, Note_on_c, 2, 72, 100
4, 97734, Note_on_c, 2, 72, 0
4, 97740, Note_on_c, 2, 71, 100
4, 97794, Note_on_c, 2, 71, 0
4, 97800, Note_on_c, 2, 69, 100
4, 97854, Note_on_c, 2, 69, 0
4, 97860, Note_on_c, 2, 67, 100
4, 97914, Note_on_c, 2, 67, 0
4, 97920, Note_on_c, 2, 66, 100
4, 97974, Note_on_c, 2, 66, 0
4, 97980, Note_on_c, 2, 67, 100
4, 98034, Note_on_c, 2, 67, 0
4, 98040, Note_on_c, 2, 69, 100
4, 98094, Note_on_c, 2, 69, 0
4, 98100, Note_on_c, 2, 71, 100
4, 98154, Note_on_c, 2, 71, 0
4, 98160, Note_on_c, 2, 72, 100
4, 98214, Note_on_c, 2, 72, 0
4, 98220, Note_on_c, 2, 71, 100
4, 98274, Note_on_c, 2, 71, 0
4, 98280, Note_on_c, 2, 69, 100
4, 98334, Note_on_c, 2, 69, 0
4, 98340, Note_on_c, 2, 67, 100
4, 98394, Note_on_c, 2, 67, 0
4, 98400, Note_on_c, 2, 66, 100
4, 98454, Note_on_c, 2, 66, 0
4, 98460, Note_on_c, 2, 64, 100
4, 98514, Note_on_c, 2, 64, 0
4, 98520, Note_on_c, 2, 62, 100
4, 98574, Note_on_c, 2, 62, 0
4, 98580, Note_on_c, 2, 60, 100
4, 98634, Note_on_c, 2, 60, 0
4, 98940, Note_on_c, 2, 59, 100
4, 98994, Note_on_c, 2, 59, 0
4, 99000, Note_on_c, 2, 57, 100
4, 99054, Note_on_c, 2, 57, 0
4, 99060, Note_on_c, 2, 59, 100
4, 99114, Note_on_c, 2, 59, 0
4, 99120, Note_on_c, 2, 60, 100
4, 99174, Note_on_c, 2, 60, 0
4, 99180, Note_on_c, 2, 59, 100
4, 99234, Note_on_c, 2, 59, 0
4, 99240, Note_on_c, 2, 57, 100
4, 99294, Note_on_c, 2, 57, 0
4, 99300, Note_on_c, 2, 59, 100
4, 99354, Note_on_c, 2, 59, 0
4, 99360, Note_on_c, 2, 62, 100
4, 99414, Note_on_c, 2, 62, 0
4, 99420, Note_on_c, 2, 59, 100
4, 99474, Note_on_c, 2, 59, 0
4, 99480, Note_on_c, 2, 57, 100
4, 99534, Note_on_c, 2, 57, 0
4, 99540, Note_on_c, 2, 59, 100
4, 99594, Note_on_c, 2, 59, 0
4, 99600, Note_on_c, 2, 64, 100
4, 99654, Note_on_c, 2, 64, 0
4, 99660, Note_on_c, 2, 59, 100
4, 99714, Note_on_c, 2, 59, 0
4, 99720, Note_on_c, 2, 57, 100
4, 99774, Note_on_c, 2, 57, 0
4, 99780, Note_on_c, 2, 59, 100
4, 99834, Note_on_c, 2, 59, 0
4, 99840, Note_on_c, 2, 65, 100
4, 99894, Note_on_c, 2, 65, 0
4, 99900, Note_on_c, 2, 59, 100
4, 99954, Note_on_c, 2, 59, 0
4, 99960, Note_on_c, 2, 57, 100
4, 100014, Note_on_c, 2, 57, 0
4, 100020, Note_on_c, 2, 59, 100
4, 100074, Note_on_c, 2, 59, 0
4, 100080, Note_on_c, 2, 62, 100
4, 100134, Note_on_c, 2, 62, 0
4, 100140, Note_on_c, 2, 59, 100
4, 100194, Note_on_c, 2, 59, 0
4, 100200, Note_on_c, 2, 57, 100
4, 100254, Note_on_c, 2, 57, 0
4, 100260, Note_on_c, 2, 59, 100
4, 100314, Note_on_c, 2, 59, 0
4, 100320, Note_on_c, 2, 67, 100
4, 100374, Note_on_c, 2, 67, 0
4, 100380, Note_on_c, 2, 59, 100
4, 100434, Note_on_c, 2, 59, 0
4, 100440, Note_on_c, 2, 57, 100
4, 100494, Note_on_c, 2, 57, 0
4, 100500, Note_on_c, 2, 59, 100
4, 100554, Note_on_c, 2, 59, 0
4, 100560, Note_on_c, 2, 65, 100
4, 100614, Note_on_c, 2, 65, 0
4, 100620, Note_on_c, 2, 59, 100
4, 100674, Note_on_c, 2, 59, 0
4, 100680, Note_on_c, 2, 57, 100
4, 100734, Note_on_c, 2, 57, 0
4, 100740, Note_on_c, 2, 59, 100
4, 100794, Note_on_c, 2, 59, 0
4, 100800, Note_on_c, 2, 64, 100
4, 100854, Note_on_c, 2, 64, 0
4, 100860, Note_on_c, 2, 67, 100
4, 100914, Note_on_c, 2, 67, 0
4, 100920, Note_on_c, 2, 69, 100
4, 100974, Note_on_c, 2, 69, 0
4, 100980, Note_on_c, 2, 71, 100
4, 101034, Note_on_c, 2, 71, 0
4, 101040, Note_on_c, 2, 72, 100
4, 101094, Note_on_c, 2, 72, 0
4, 101100, Note_on_c, 2, 71, 100
4, 101154, Note_on_c, 2, 71, 0
4, 101160, Note_on_c, 2, 69, 100
4, 101214, Note_on_c, 2, 69, 0
4, 101220, Note_on_c, 2, 67, 100
4, 101274, Note_on_c, 2, 67, 0
4, 101280, Note_on_c, 2, 69, 100
4, 101334, Note_on_c, 2, 69, 0
4, 101340, Note_on_c, 2, 67, 100
4, 101394, Note_on_c, 2, 67, 0
4, 101400, Note_on_c, 2, 65, 100
4, 101454, Note_on_c, 2, 65, 0
4, 101460, Note_on_c, 2, 64, 100
4, 101514, Note_on_c, 2, 64, 0
4, 101520, Note_on_c, 2, 65, 100
4, 101574, Note_on_c, 2, 65, 0
4, 101580, Note_on_c, 2, 64, 100
4, 101634, Note_on_c, 2, 64, 0
4, 101640, Note_on_c, 2, 62, 100
4, 101694, Note_on_c, 2, 62, 0
4, 101700, Note_on_c, 2, 60, 100
4, 101754, Note_on_c, 2, 60, 0
4, 101760, Note_on_c, 2, 59, 100
4, 101814, Note_on_c, 2, 59, 0
4, 101820, Note_on_c, 2, 60, 100
4, 101874, Note_on_c, 2, 60, 0
4, 101880, Note_on_c, 2, 62, 100
4, 101934, Note_on_c, 2, 62, 0
4, 101940, Note_on_c, 2, 64, 100
4, 101994, Note_on_c, 2, 64, 0
4, 102000, Note_on_c, 2, 65, 100
4, 102054, Note_on_c, 2, 65, 0
4, 102060, Note_on_c, 2, 64, 100
4, 102114, Note_on_c, 2, 64, 0
4, 102120, Note_on_c, 2, 62, 100
4, 102174, Note_on_c, 2, 62, 0
4, 102180, Note_on_c, 2, 60, 100
4, 102234, Note_on_c, 2, 60, 0
4, 102240, Note_on_c, 2, 59, 100
4, 102294, Note_on_c, 2, 59, 0
4, 102300, Note_on_c, 2, 57, 100
4, 102354, Note_on_c, 2, 57, 0
4, 102360, Note_on_c, 2, 55, 100
4, 102414, Note_on_c, 2, 55, 0
4, 102420, Note_on_c, 2, 53, 100
4, 102474, Note_on_c, 2, 53, 0
4, 102480, Note_on_c, 2, 52, 100
4, 102534, Note_on_c, 2, 52, 0
4, 102540, Note_on_c, 2, 50, 100
4, 102594, Note_on_c, 2, 50, 0
4, 102600, Note_on_c, 2, 48, 100
4, 102654, Note_on_c, 2, 48, 0
4, 102660, Note_on_c, 2, 47, 100
4, 102714, Note_on_c, 2, 47, 0
4, 102780, Note_on_c, 2, 52, 100
4, 102834, Note_on_c, 2, 52, 0
4, 102840, Note_on_c, 2, 50, 100
4, 102894, Note_on_c, 2, 50, 0
4, 102900, Note_on_c, 2, 52, 100
4, 102954, Note_on_c, 2, 52, 0
4, 102960, Note_on_c, 2, 53, 100
4, 103014, Note_on_c, 2, 53, 0
4, 103020, Note_on_c, 2, 52, 100
4, 103074, Note_on_c, 2, 52, 0
4, 103080, Note_on_c, 2, 50, 100
4, 103134, Note_on_c, 2, 50, 0
4, 103140, Note_on_c, 2, 52, 100
4, 103194, Note_on_c, 2, 52, 0
4, 103200, Note_on_c, 2, 55, 100
4, 103254, Note_on_c, 2, 55, 0
4, 103260, Note_on_c, 2, 52, 100
4, 103314, Note_on_c, 2, 52, 0
4, 103320, Note_on_c, 2, 50, 100
4, 103374, Note_on_c, 2, 50, 0
4, 103380, Note_on_c, 2, 52, 100
4, 103434, Note_on_c, 2, 52, 0
4, 103440, Note_on_c, 2, 57, 100
4, 103494, Note_on_c, 2, 57, 0
4, 103500, Note_on_c, 2, 52, 100
4, 103554, Note_on_c, 2, 52, 0
4, 103560, Note_on_c, 2, 50, 100
4, 103614, Note_on_c, 2, 50, 0
4, 103620, Note_on_c, 2, 52, 100
4, 103674, Note_on_c, 2, 52, 0
4, 103680, Note_on_c, 2, 58, 100
4, 103734, Note_on_c, 2, 58, 0
4, 103740, Note_on_c, 2, 52, 100
4, 103794, Note_on_c, 2, 52, 0
4, 103800, Note_on_c, 2, 50, 100
4, 103854, Note_on_c, 2, 50, 0
4, 103860, Note_on_c, 2, 52, 100
4, 103914, Note_on_c, 2, 52, 0
4, 103920, Note_on_c, 2, 55, 100
4, 103974, Note_on_c, 2, 55, 0
4, 103980, Note_on_c, 2, 52, 100
4, 104034, Note_on_c, 2, 52, 0
4, 104040, Note_on_c, 2, 50, 100
4, 104094, Note_on_c, 2, 50, 0
4, 104100, Note_on_c, 2, 52, 100
4, 104154, Note_on_c, 2, 52, 0
4, 104160, Note_on_c, 2, 60, 100
4, 104214, Note_on_c, 2, 60, 0
4, 104220, Note_on_c, 2, 52, 100
4, 104274, Note_on_c, 2, 52, 0
4, 104280, Note_on_c, 2, 50, 100
4, 104334, Note_on_c, 2, 50, 0
4, 104340, Note_on_c, 2, 52, 100
4, 104394, Note_on_c, 2, 52, 0
4, 104400, Note_on_c, 2, 58, 100
4, 104454, Note_on_c, 2, 58, 0
4, 104460, Note_on_c, 2, 52, 100
4, 104514, Note_on_c, 2, 52, 0
4, 104520, Note_on_c, 2, 50, 100
4, 104574, Note_on_c, 2, 50, 0
4, 104580, Note_on_c, 2, 52, 100
4, 104634, Note_on_c, 2, 52, 0
4, 104640, Note_on_c, 2, 57, 100
4, 104694, Note_on_c, 2, 57, 0
4, 104700, Note_on_c, 2, 53, 100
4, 104754, Note_on_c, 2, 53, 0
4, 104760, Note_on_c, 2, 48, 100
4, 104814, Note_on_c, 2, 48, 0
4, 104820, Note_on_c, 2, 45, 100
4, 104874, Note_on_c, 2, 45, 0
4, 104880, Note_on_c, 2, 41, 100
4, 104934, Note_on_c, 2, 41, 0
4, 105180, Note_on_c, 2, 72, 100
4, 105234, Note_on_c, 2, 72, 0
4, 105240, Note_on_c, 2, 74, 100
4, 105294, Note_on_c, 2, 74, 0
4, 105300, Note_on_c, 2, 76, 100
4, 105354, Note_on_c, 2, 76, 0
4, 105360, Note_on_c, 2, 77, 100
4, 105414, Note_on_c, 2, 77, 0
4, 105420, Note_on_c, 2, 72, 100
4, 105474, Note_on_c, 2, 72, 0
4, 105480, Note_on_c, 2, 69, 100
4, 105534, Note_on_c, 2, 69, 0
4, 105540, Note_on_c, 2, 65, 100
4, 105594, Note_on_c, 2, 65, 0
4, 105600, Note_on_c, 2, 77, 100
4, 105654, Note_on_c, 2, 77, 0
4, 105660, Note_on_c, 2, 67, 100
4, 105714, Note_on_c, 2, 67, 0
4, 105720, Note_on_c, 2, 77, 100
4, 105774, Note_on_c, 2, 77, 0
4, 105780, Note_on_c, 2, 67, 100
4, 105834, Note_on_c, 2, 67, 0
4, 105840, Note_on_c, 2, 77, 100
4, 105894, Note_on_c, 2, 77, 0
4, 105900, Note_on_c, 2, 67, 100
4, 105954, Note_on_c, 2, 67, 0
4, 105960, Note_on_c, 2, 77, 100
4, 106014, Note_on_c, 2, 77, 0
4, 106020, Note_on_c, 2, 67, 100
4, 106074, Note_on_c, 2, 67, 0
4, 106080, Note_on_c, 2, 76, 100
4, 106134, Note_on_c, 2, 76, 0
4, 106140, Note_on_c, 2, 72, 100
4, 106194, Note_on_c, 2, 72, 0
4, 106200, Note_on_c, 2, 76, 100
4, 106254, Note_on_c, 2, 76, 0
4, 106260, Note_on_c, 2, 72, 100
4, 106314, Note_on_c, 2, 72, 0
4, 106320, Note_on_c, 2, 76, 100
4, 106374, Note_on_c, 2, 76, 0
4, 106380, Note_on_c, 2, 72, 100
4, 106434, Note_on_c, 2, 72, 0
4, 106440, Note_on_c, 2, 76, 100
4, 106494, Note_on_c, 2, 76, 0
4, 106500, Note_on_c, 2, 72, 100
4, 106554, Note_on_c, 2, 72, 0
4, 106560, Note_on_c, 2, 74, 100
4, 106614, Note_on_c, 2, 74, 0
4, 106620, Note_on_c, 2, 72, 100
4, 106674, Note_on_c, 2, 72, 0
4, 106680, Note_on_c, 2, 74, 100
4, 106734, Note_on_c, 2, 74, 0
4, 106740, Note_on_c, 2, 72, 100
4, 106794, Note_on_c, 2, 72, 0
4, 106800, Note_on_c, 2, 74, 100
4, 106854, Note_on_c, 2, 74, 0
4, 106860, Note_on_c, 2, 72, 100
4, 106914, Note_on_c, 2, 72, 0
4, 106920, Note_on_c, 2, 71, 100
4, 106974, Note_on_c, 2, 71, 0
4, 106980, Note_on_c, 2, 69, 100
4, 107034, Note_on_c, 2, 69, 0
4, 107040, Note_on_c, 2, 67, 100
4, 107094, Note_on_c, 2, 67, 0
4, 107100, Note_on_c, 2, 74, 100
4, 107154, Note_on_c, 2, 74, 0
4, 107160, Note_on_c, 2, 76, 100
4, 107214, Note_on_c, 2, 76, 0
4, 107220, Note_on_c, 2, 77, 100
4, 107274, Note_on_c, 2, 77, 0
4, 107280, Note_on_c, 2, 79, 100
4, 107334, Note_on_c, 2, 79, 0
4, 107340, Note_on_c, 2, 74, 100
4, 107394, Note_on_c, 2, 74, 0
4, 107400, Note_on_c, 2, 71, 100
4, 107454, Note_on_c, 2, 71, 0
4, 107460, Note_on_c, 2, 67, 100
4, 107514, Note_on_c, 2, 67, 0
4, 107520, Note_on_c, 2, 79, 100
4, 107574, Note_on_c, 2, 79, 0
4, 107580, Note_on_c, 2, 69, 100
4, 107634, Note_on_c, 2, 69, 0
4, 107640, Note_on_c, 2, 79, 100
4, 107694, Note_on_c, 2, 79, 0
4, 107700, Note_on_c, 2, 69, 100
4, 107754, Note_on_c, 2, 69, 0
4, 107760, Note_on_c, 2, 79, 100
4, 107814, Note_on_c, 2, 79, 0
4, 107820, Note_on_c, 2, 69, 100
4, 107874, Note_on_c, 2, 69, 0
4, 107880, Note_on_c, 2, 79, 100
4, 107934, Note_on_c, 2, 79, 0
4, 107940, Note_on_c, 2, 69, 100
4, 107994, Note_on_c, 2, 69, 0
4, 108000, Note_on_c, 2, 77, 100
4, 108054, Note_on_c, 2, 77, 0
4, 108060, Note_on_c, 2, 74, 100
4, 108114, Note_on_c, 2, 74, 0
4, 108120, Note_on_c, 2, 77, 100
4, 108174, Note_on_c, 2, 77, 0
4, 108180, Note_on_c, 2, 74, 100
4, 108234, Note_on_c, 2, 74, 0
4, 108240, Note_on_c, 2, 77, 100
4, 108294, Note_on_c, 2, 77, 0
4, 108300, Note_on_c, 2, 74, 100
4, 108354, Note_on_c, 2, 74, 0
4, 108360, Note_on_c, 2, 77, 100
4, 108414, Note_on_c, 2, 77, 0
4, 108420, Note_on_c, 2, 74, 100
4, 108474, Note_on_c, 2, 74, 0
4, 108480, Note_on_c, 2, 76, 100
4, 108534, Note_on_c, 2, 76, 0
4, 108540, Note_on_c, 2, 74, 100
4, 108594, Note_on_c, 2, 74, 0
4, 108600, Note_on_c, 2, 76, 100
4, 108654, Note_on_c, 2, 76, 0
4, 108660, Note_on_c, 2, 74, 100
4, 108714, Note_on_c, 2, 74, 0
4, 108720, Note_on_c, 2, 76, 100
4, 108774, Note_on_c, 2, 76, 0
4, 108780, Note_on_c, 2, 74, 100
4, 108834, Note_on_c, 2, 74, 0
4, 108840, Note_on_c, 2, 72, 100
4, 108894, Note_on_c, 2, 72, 0
4, 108900, Note_on_c, 2, 71, 100
4, 108954, Note_on_c, 2, 71, 0
4, 108960, Note_on_c, 2, 69, 100
4, 109014, Note_on_c, 2, 69, 0
4, 109020, Note_on_c, 2, 76, 100
4, 109074, Note_on_c, 2, 76, 0
4, 109080, Note_on_c, 2, 78, 100
4, 109134, Note_on_c, 2, 78, 0
4, 109140, Note_on_c, 2, 80, 100
4, 109194, Note_on_c, 2, 80, 0
4, 109200, Note_on_c, 2, 81, 100
4, 109254, Note_on_c, 2, 81, 0
4, 109260, Note_on_c, 2, 76, 100
4, 109314, Note_on_c, 2, 76, 0
4, 109320, Note_on_c, 2, 72, 100
4, 109374, Note_on_c, 2, 72, 0
4, 109380, Note_on_c, 2, 69, 100
4, 109434, Note_on_c, 2, 69, 0
4, 109440, Note_on_c, 2, 81, 100
4, 109494, Note_on_c, 2, 81, 0
4, 109500, Note_on_c, 2, 70, 100
4, 109554, Note_on_c, 2, 70, 0
4, 109560, Note_on_c, 2, 81, 100
4, 109614, Note_on_c, 2, 81, 0
4, 109620, Note_on_c, 2, 70, 100
4, 109674, Note_on_c, 2, 70, 0
4, 109680, Note_on_c, 2, 81, 100
4, 109734, Note_on_c, 2, 81, 0
4, 109740, Note_on_c, 2, 70, 100
4, 109794, Note_on_c, 2, 70, 0
4, 109800, Note_on_c, 2, 81, 100
4, 109854, Note_on_c, 2, 81, 0
4, 109860, Note_on_c, 2, 70, 100
4, 109914, Note_on_c, 2, 70, 0
4, 109920, Note_on_c, 2, 79, 100
4, 109974, Note_on_c, 2, 79, 0
4, 109980, Note_on_c, 2, 70, 100
4, 110034, Note_on_c, 2, 70, 0
4, 110040, Note_on_c, 2, 79, 100
4, 110094, Note_on_c, 2, 79, 0
4, 110100, Note_on_c, 2, 70, 100
4, 110154, Note_on_c, 2, 70, 0
4, 110160, Note_on_c, 2, 79, 100
4, 110214, Note_on_c, 2, 79, 0
4, 110220, Note_on_c, 2, 70, 100
4, 110274, Note_on_c, 2, 70, 0
4, 110280, Note_on_c, 2, 79, 100
4, 110334, Note_on_c, 2, 79, 0
4, 110340, Note_on_c, 2, 70, 100
4, 110394, Note_on_c, 2, 70, 0
4, 110400, Note_on_c, 2, 79, 100
4, 110454, Note_on_c, 2, 79, 0
4, 110460, Note_on_c, 2, 69, 100
4, 110514, Note_on_c, 2, 69, 0
4, 110520, Note_on_c, 2, 79, 100
4, 110574, Note_on_c, 2, 79, 0
4, 110580, Note_on_c, 2, 69, 100
4, 110634, Note_on_c, 2, 69, 0
4, 110640, Note_on_c, 2, 79, 100
4, 110694, Note_on_c, 2, 79, 0
4, 110700, Note_on_c, 2, 69, 100
4, 110754, Note_on_c, 2, 69, 0
4, 110760, Note_on_c, 2, 79, 100
4, 110814, Note_on_c, 2, 79, 0
4, 110820, Note_on_c, 2, 69, 100
4, 110874, Note_on_c, 2, 69, 0
4, 110880, Note_on_c, 2, 77, 100
4, 110934, Note_on_c, 2, 77, 0
4, 110940, Note_on_c, 2, 69, 100
4, 110994, Note_on_c, 2, 69, 0
4, 111000, Note_on_c, 2, 77, 100
4, 111054, Note_on_c, 2, 77, 0
4, 111060, Note_on_c, 2, 69, 100
4, 111114, Note_on_c, 2, 69, 0
4, 111120, Note_on_c, 2, 77, 100
4, 111174, Note_on_c, 2, 77, 0
4, 111180, Note_on_c, 2, 69, 100
4, 111234, Note_on_c, 2, 69, 0
4, 111240, Note_on_c, 2, 77, 100
4, 111294, Note_on_c, 2, 77, 0
4, 111300, Note_on_c, 2, 69, 100
4, 111354, Note_on_c, 2, 69, 0
4, 111360, Note_on_c, 2, 77, 100
4, 111414, Note_on_c, 2, 77, 0
4, 111420, Note_on_c, 2, 67, 100
4, 111474, Note_on_c, 2, 67, 0
4, 111480, Note_on_c, 2, 77, 100
4, 111534, Note_on_c, 2, 77, 0
4, 111540, Note_on_c, 2, 67, 100
4, 111594, Note_on_c, 2, 67, 0
4, 111600, Note_on_c, 2, 77, 100
4, 111654, Note_on_c, 2, 77, 0
4, 111660, Note_on_c, 2, 67, 100
4, 111714, Note_on_c, 2, 67, 0
4, 111720, Note_on_c, 2, 77, 100
4, 111774, Note_on_c, 2, 77, 0
4, 111780, Note_on_c, 2, 67, 100
4, 111834, Note_on_c, 2, 67, 0
4, 111840, Note_on_c, 2, 76, 100
4, 111894, Note_on_c, 2, 76, 0
4, 111900, Note_on_c, 2, 67, 100
4, 111954, Note_on_c, 2, 67, 0
4, 111960, Note_on_c, 2, 76, 100
4, 112014, Note_on_c, 2, 76, 0
4, 112020, Note_on_c, 2, 67, 100
4, 112074, Note_on_c, 2, 67, 0
4, 112080, Note_on_c, 2, 76, 100
4, 112134, Note_on_c, 2, 76, 0
4, 112140, Note_on_c, 2, 67, 100
4, 112194, Note_on_c, 2, 67, 0
4, 112200, Note_on_c, 2, 76, 100
4, 112254, Note_on_c, 2, 76, 0
4, 112260, Note_on_c, 2, 67, 100
4, 112314, Note_on_c, 2, 67, 0
4, 112320, Note_on_c, 2, 76, 100
4, 112374, Note_on_c, 2, 76, 0
4, 112380, Note_on_c, 2, 65, 100
4, 112434, Note_on_c, 2, 65, 0
4, 112440, Note_on_c, 2, 76, 100
4, 112494, Note_on_c, 2, 76, 0
4, 112500, Note_on_c, 2, 65, 100
4, 112554, Note_on_c, 2, 65, 0
4, 112560, Note_on_c, 2, 76, 100
4, 112614, Note_on_c, 2, 76, 0
4, 112620, Note_on_c, 2, 65, 100
4, 112674, Note_on_c, 2, 65, 0
4, 112680, Note_on_c, 2, 76, 100
4, 112734, Note_on_c, 2, 76, 0
4, 112740, Note_on_c, 2, 65, 100
4, 112794, Note_on_c, 2, 65, 0
4, 112800, Note_on_c, 2, 74, 100
4, 112854, Note_on_c, 2, 74, 0
4, 112860, Note_on_c, 2, 72, 100
4, 112914, Note_on_c, 2, 72, 0
4, 112920, Note_on_c, 2, 71, 100
4, 112974, Note_on_c, 2, 71, 0
4, 112980, Note_on_c, 2, 69, 100
4, 113034, Note_on_c, 2, 69, 0
4, 113040, Note_on_c, 2, 72, 100
4, 113094, Note_on_c, 2, 72, 0
4, 113100, Note_on_c, 2, 71, 100
4, 113154, Note_on_c, 2, 71, 0
4, 113160, Note_on_c, 2, 69, 100
4, 113214, Note_on_c, 2, 69, 0
4, 113220, Note_on_c, 2, 67, 100
4, 113274, Note_on_c, 2, 67, 0
4, 113280, Note_on_c, 2, 79, 100
4, 113334, Note_on_c, 2, 79, 0
4, 113340, Note_on_c, 2, 71, 100
4, 113394, Note_on_c, 2, 71, 0
4, 113400, Note_on_c, 2, 79, 100
4, 113454, Note_on_c, 2, 79, 0
4, 113460, Note_on_c, 2, 71, 100
4, 113514, Note_on_c, 2, 71, 0
4, 113520, Note_on_c, 2, 77, 100
4, 113574, Note_on_c, 2, 77, 0
4, 113580, Note_on_c, 2, 71, 100
4, 113634, Note_on_c, 2, 71, 0
4, 113640, Note_on_c, 2, 77, 100
4, 113694, Note_on_c, 2, 77, 0
4, 113700, Note_on_c, 2, 71, 100
4, 113754, Note_on_c, 2, 71, 0
4, 113760, Note_on_c, 2, 76, 100
4, 113814, Note_on_c, 2, 76, 0
4, 113820, Note_on_c, 2, 74, 100
4, 113874, Note_on_c, 2, 74, 0
4, 113880, Note_on_c, 2, 72, 100
4, 113934, Note_on_c, 2, 72, 0
4, 113940, Note_on_c, 2, 71, 100
4, 113994, Note_on_c, 2, 71, 0
4, 114000, Note_on_c, 2, 74, 100
4, 114054, Note_on_c, 2, 74, 0
4, 114060, Note_on_c, 2, 72, 100
4, 114114, Note_on_c, 2, 72, 0
4, 114120, Note_on_c, 2, 71, 100
4, 114174, Note_on_c, 2, 71, 0
4, 114180, Note_on_c, 2, 69, 100
4, 114234, Note_on_c, 2, 69, 0
4, 114240, Note_on_c, 2, 81, 100
4, 114294, Note_on_c, 2, 81, 0
4, 114300, Note_on_c, 2, 72, 100
4, 114354, Note_on_c, 2, 72, 0
4, 114360, Note_on_c, 2, 81, 100
4, 114414, Note_on_c, 2, 81, 0
4, 114420, Note_on_c, 2, 72, 100
4, 114474, Note_on_c, 2, 72, 0
4, 114480, Note_on_c, 2, 79, 100
4, 114534, Note_on_c, 2, 79, 0
4, 114540, Note_on_c, 2, 72, 100
4, 114594, Note_on_c, 2, 72, 0
4, 114600, Note_on_c, 2, 79, 100
4, 114654, Note_on_c, 2, 79, 0
4, 114660, Note_on_c, 2, 72, 100
4, 114714, Note_on_c, 2, 72, 0
4, 114720, Note_on_c, 2, 77, 100
4, 114774, Note_on_c, 2, 77, 0
4, 114780, Note_on_c, 2, 76, 100
4, 114834, Note_on_c, 2, 76, 0
4, 114840, Note_on_c, 2, 74, 100
4, 114894, Note_on_c, 2, 74, 0
4, 114900, Note_on_c, 2, 72, 100
4, 114954, Note_on_c, 2, 72, 0
4, 114960, Note_on_c, 2, 74, 100
4, 115014, Note_on_c, 2, 74, 0
4, 115020, Note_on_c, 2, 72, 100
4, 115074, Note_on_c, 2, 72, 0
4, 115080, Note_on_c, 2, 71, 100
4, 115134, Note_on_c, 2, 71, 0
4, 115140, Note_on_c, 2, 69, 100
4, 115194, Note_on_c, 2, 69, 0
4, 115200, Note_on_c, 2, 71, 100
4, 115254, Note_on_c, 2, 71, 0
4, 115260, Note_on_c, 2, 74, 100
4, 115314, Note_on_c, 2, 74, 0
4, 115320, Note_on_c, 2, 71, 100
4, 115374, Note_on_c, 2, 71, 0
4, 115380, Note_on_c, 2, 67, 100
4, 115434, Note_on_c, 2, 67, 0
4, 115440, Note_on_c, 2, 74, 100
4, 115494, Note_on_c, 2, 74, 0
4, 115500, Note_on_c, 2, 77, 100
4, 115554, Note_on_c, 2, 77, 0
4, 115560, Note_on_c, 2, 74, 100
4, 115614, Note_on_c, 2, 74, 0
4, 115620, Note_on_c, 2, 67, 100
4, 115674, Note_on_c, 2, 67, 0
4, 115680, Note_on_c, 2, 74, 100
4, 115734, Note_on_c, 2, 74, 0
4, 115740, Note_on_c, 2, 76, 100
4, 115794, Note_on_c, 2, 76, 0
4, 115800, Note_on_c, 2, 74, 100
4, 115854, Note_on_c, 2, 74, 0
4, 115860, Note_on_c, 2, 67, 100
4, 115914, Note_on_c, 2, 67, 0
4, 115920, Note_on_c, 2, 72, 100
4, 115974, Note_on_c, 2, 72, 0
4, 115980, Note_on_c, 2, 76, 100
4, 116034, Note_on_c, 2, 76, 0
4, 116040, Note_on_c, 2, 72, 100
4, 116094, Note_on_c, 2, 72, 0
4, 116100, Note_on_c, 2, 67, 100
4, 116154, Note_on_c, 2, 67, 0
4, 116160, Note_on_c, 2, 72, 100
4, 116214, Note_on_c, 2, 72, 0
4, 116220, Note_on_c, 2, 74, 100
4, 116274, Note_on_c, 2, 74, 0
4, 116280, Note_on_c, 2, 72, 100
4, 116334, Note_on_c, 2, 72, 0
4, 116340, Note_on_c, 2, 67, 100
4, 116394, Note_on_c, 2, 67, 0
4, 116400, Note_on_c, 2, 71, 100
4, 116454, Note_on_c, 2, 71, 0
4, 116460, Note_on_c, 2, 79, 100
4, 116514, Note_on_c, 2, 79, 0
4, 116520, Note_on_c, 2, 71, 100
4, 116574, Note_on_c, 2, 71, 0
4, 116580, Note_on_c, 2, 67, 100
4, 116634, Note_on_c, 2, 67, 0
4, 116640, Note_on_c, 2, 71, 100
4, 116694, Note_on_c, 2, 71, 0
4, 116700, Note_on_c, 2, 72, 100
4, 116754, Note_on_c, 2, 72, 0
4, 116760, Note_on_c, 2, 71, 100
4, 116814, Note_on_c, 2, 71, 0
4, 116820, Note_on_c, 2, 64, 100
4, 116874, Note_on_c, 2, 64, 0
4, 116880, Note_on_c, 2, 69, 100
4, 116934, Note_on_c, 2, 69, 0
4, 116940, Note_on_c, 2, 72, 100
4, 116994, Note_on_c, 2, 72, 0
4, 117000, Note_on_c, 2, 69, 100
4, 117054, Note_on_c, 2, 69, 0
4, 117060, Note_on_c, 2, 66, 100
4, 117114, Note_on_c, 2, 66, 0
4, 117120, Note_on_c, 2, 69, 100
4, 117174, Note_on_c, 2, 69, 0
4, 117180, Note_on_c, 2, 71, 100
4, 117234, Note_on_c, 2, 71, 0
4, 117240, Note_on_c, 2, 69, 100
4, 117294, Note_on_c, 2, 69, 0
4, 117300, Note_on_c, 2, 62, 100
4, 117354, Note_on_c, 2, 62, 0
4, 117360, Note_on_c, 2, 67, 100
4, 117414, Note_on_c, 2, 67, 0
4, 117420, Note_on_c, 2, 76, 100
4, 117474, Note_on_c, 2, 76, 0
4, 117480, Note_on_c, 2, 67, 100
4, 117534, Note_on_c, 2, 67, 0
4, 117540, Note_on_c, 2, 64, 100
4, 117594, Note_on_c, 2, 64, 0
4, 117600, Note_on_c, 2, 67, 100
4, 117654, Note_on_c, 2, 67, 0
4, 117660, Note_on_c, 2, 69, 100
4, 117714, Note_on_c, 2, 69, 0
4, 117720, Note_on_c, 2, 67, 100
4, 117774, Note_on_c, 2, 67, 0
4, 117780, Note_on_c, 2, 60, 100
4, 117834, Note_on_c, 2, 60, 0
4, 117840, Note_on_c, 2, 65, 100
4, 117894, Note_on_c, 2, 65, 0
4, 117900, Note_on_c, 2, 69, 100
4, 117954, Note_on_c, 2, 69, 0
4, 117960, Note_on_c, 2, 65, 100
4, 118014, Note_on_c, 2, 65, 0
4, 118020, Note_on_c, 2, 62, 100
4, 118074, Note_on_c, 2, 62, 0
4, 118080, Note_on_c, 2, 65, 100
4, 118134, Note_on_c, 2, 65, 0
4, 118140, Note_on_c, 2, 67, 100
4, 118194, Note_on_c, 2, 67, 0
4, 118200, Note_on_c, 2, 65, 100
4, 118254, Note_on_c, 2, 65, 0
4, 118260, Note_on_c, 2, 59, 100
4, 118314, Note_on_c, 2, 59, 0
4, 118320, Note_on_c, 2, 64, 100
4, 118374, Note_on_c, 2, 64, 0
4, 118380, Note_on_c, 2, 72, 100
4, 118434, Note_on_c, 2, 72, 0
4, 118440, Note_on_c, 2, 64, 100
4, 118494, Note_on_c, 2, 64, 0
4, 118500, Note_on_c, 2, 60, 100
4, 118554, Note_on_c, 2, 60, 0
4, 118560, Note_on_c, 2, 64, 100
4, 118614, Note_on_c, 2, 64, 0
4, 118620, Note_on_c, 2, 65, 100
4, 118674, Note_on_c, 2, 65, 0
4, 118680, Note_on_c, 2, 64, 100
4, 118734, Note_on_c, 2, 64, 0
4, 118740, Note_on_c, 2, 57, 100
4, 118794, Note_on_c, 2, 57, 0
4, 118800, Note_on_c, 2, 62, 100
4, 118854, Note_on_c, 2, 62, 0
4, 118860, Note_on_c, 2, 65, 100
4, 118914, Note_on_c, 2, 65, 0
4, 118920, Note_on_c, 2, 62, 100
4, 118974, Note_on_c, 2, 62, 0
4, 118980, Note_on_c, 2, 59, 100
4, 119034, Note_on_c, 2, 59, 0
4, 119040, Note_on_c, 2, 62, 100
4, 119094, Note_on_c, 2, 62, 0
4, 119100, Note_on_c, 2, 64, 100
4, 119154, Note_on_c, 2, 64, 0
4, 119160, Note_on_c, 2, 62, 100
4, 119214, Note_on_c, 2, 62, 0
4, 119220, Note_on_c, 2, 59, 100
4, 119274, Note_on_c, 2, 59, 0
4, 119280, Note_on_c, 2, 60, 100
4, 119334, Note_on_c, 2, 60, 0
4, 119340, Note_on_c, 2, 64, 100
4, 119394, Note_on_c, 2, 64, 0
4, 119400, Note_on_c, 2, 62, 100
4, 119454, Note_on_c, 2, 62, 0
4, 119460, Note_on_c, 2, 60, 100
4, 119514, Note_on_c, 2, 60, 0
4, 119520, Note_on_c, 2, 67, 100
4, 119574, Note_on_c, 2, 67, 0
4, 119580, Note_on_c, 2, 71, 100
4, 119634, Note_on_c, 2, 71, 0
4, 119640, Note_on_c, 2, 69, 100
4, 119694, Note_on_c, 2, 69, 0
4, 119700, Note_on_c, 2, 67, 100
4, 119754, Note_on_c, 2, 67, 0
4, 119760, Note_on_c, 2, 72, 100
4, 119814, Note_on_c, 2, 72, 0
4, 119820, Note_on_c, 2, 76, 100
4, 119874, Note_on_c, 2, 76, 0
4, 119880, Note_on_c, 2, 74, 100
4, 119934, Note_on_c, 2, 74, 0
4, 119940, Note_on_c, 2, 72, 100
4, 119994, Note_on_c, 2, 72, 0
4, 120000, Note_on_c, 2, 71, 100
4, 120216, Note_on_c, 2, 71, 0
4, 120600, Note_on_c, 2, 74, 100
4, 120708, Note_on_c, 2, 74, 0
4, 120720, Note_on_c, 2, 76, 100
4, 120828, Note_on_c, 2, 76, 0
4, 120840, Note_on_c, 2, 77, 100
4, 120948, Note_on_c, 2, 77, 0
4, 120960, Note_on_c, 2, 79, 100
4, 121176, Note_on_c, 2, 79, 0
4, 121200, Note_on_c, 2, 77, 100
4, 121632, Note_on_c, 2, 77, 0
4, 121680, Note_on_c, 2, 76, 100
4, 121896, Note_on_c, 2, 76, 0
4, 121920, Note_on_c, 2, 77, 100
4, 122028, Note_on_c, 2, 77, 0
4, 122040, Note_on_c, 2, 72, 100
4, 122148, Note_on_c, 2, 72, 0
4, 122160, Note_on_c, 2, 74, 100
4, 122268, Note_on_c, 2, 74, 0
4, 122280, Note_on_c, 2, 76, 100
4, 122388, Note_on_c, 2, 76, 0
4, 122400, Note_on_c, 2, 77, 100
4, 122988, Note_on_c, 2, 77, 0
4, 123000, Note_on_c, 2, 79, 100
4, 123108, Note_on_c, 2, 79, 0
4, 123120, Note_on_c, 2, 77, 100
4, 123228, Note_on_c, 2, 77, 0
4, 123240, Note_on_c, 2, 76, 100
4, 123348, Note_on_c, 2, 76, 0
4, 123360, Note_on_c, 2, 74, 100
4, 123468, Note_on_c, 2, 74, 0
4, 123480, Note_on_c, 2, 76, 100
4, 123588, Note_on_c, 2, 76, 0
4, 123600, Note_on_c, 2, 77, 100
4, 123708, Note_on_c, 2, 77, 0
4, 123720, Note_on_c, 2, 74, 100
4, 123828, Note_on_c, 2, 74, 0
4, 123840, Note_on_c, 2, 76, 100
4, 124428, Note_on_c, 2, 76, 0
4, 124440, Note_on_c, 2, 76, 100
4, 124548, Note_on_c, 2, 76, 0
4, 124560, Note_on_c, 2, 78, 100
4, 124668, Note_on_c, 2, 78, 0
4, 124680, Note_on_c, 2, 79, 100
4, 124788, Note_on_c, 2, 79, 0
4, 124800, Note_on_c, 2, 81, 100
4, 125016, Note_on_c, 2, 81, 0
4, 125040, Note_on_c, 2, 79, 100
4, 125472, Note_on_c, 2, 79, 0
4, 125520, Note_on_c, 2, 78, 100
4, 125736, Note_on_c, 2, 78, 0
4, 125760, Note_on_c, 2, 79, 100
4, 125976, Note_on_c, 2, 79, 0
4, 126000, Note_on_c, 2, 74, 100
4, 126216, Note_on_c, 2, 74, 0
4, 126240, Note_on_c, 2, 79, 100
4, 126456, Note_on_c, 2, 79, 0
4, 126480, Note_on_c, 2, 79, 100
4, 126696, Note_on_c, 2, 79, 0
4, 126720, Note_on_c, 2, 79, 100
4, 126936, Note_on_c, 2, 79, 0
4, 126960, Note_on_c, 2, 78, 100
4, 127068, Note_on_c, 2, 78, 0
4, 127080, Note_on_c, 2, 76, 100
4, 127188, Note_on_c, 2, 76, 0
4, 127200, Note_on_c, 2, 74, 100
4, 127308, Note_on_c, 2, 74, 0
4, 127320, Note_on_c, 2, 76, 100
4, 127428, Note_on_c, 2, 76, 0
4, 127440, Note_on_c, 2, 72, 100
4, 127548, Note_on_c, 2, 72, 0
4, 127560, Note_on_c, 2, 74, 100
4, 127668, Note_on_c, 2, 74, 0
4, 127680, Note_on_c, 2, 71, 100
4, 127788, Note_on_c, 2, 71, 0
4, 127800, Note_on_c, 2, 69, 100
4, 127908, Note_on_c, 2, 69, 0
4, 127920, Note_on_c, 2, 71, 100
4, 128268, Note_on_c, 2, 71, 0
4, 128280, Note_on_c, 2, 67, 100
4, 128388, Note_on_c, 2, 67, 0
4, 128400, Note_on_c, 2, 69, 100
4, 128508, Note_on_c, 2, 69, 0
4, 128520, Note_on_c, 2, 71, 100
4, 128628, Note_on_c, 2, 71, 0
4, 128640, Note_on_c, 2, 69, 100
4, 128748, Note_on_c, 2, 69, 0
4, 128760, Note_on_c, 2, 78, 100
4, 128868, Note_on_c, 2, 78, 0
4, 128880, Note_on_c, 2, 79, 100
4, 128988, Note_on_c, 2, 79, 0
4, 129000, Note_on_c, 2, 81, 100
4, 129108, Note_on_c, 2, 81, 0
4, 129120, Note_on_c, 2, 83, 100
4, 129336, Note_on_c, 2, 83, 0
4, 129360, Note_on_c, 2, 83, 100
4, 129576, Note_on_c, 2, 83, 0
4, 129600, Note_on_c, 2, 83, 100
4, 129816, Note_on_c, 2, 83, 0
4, 129840, Note_on_c, 2, 81, 100
4, 129948, Note_on_c, 2, 81, 0
4, 129960, Note_on_c, 2, 79, 100
4, 130068, Note_on_c, 2, 79, 0
4, 130080, Note_on_c, 2, 81, 100
4, 130296, Note_on_c, 2, 81, 0
4, 130320, Note_on_c, 2, 81, 100
4, 130536, Note_on_c, 2, 81, 0
4, 130560, Note_on_c, 2, 81, 100
4, 130668, Note_on_c, 2, 81, 0
4, 130680, Note_on_c, 2, 74, 100
4, 130788, Note_on_c, 2, 74, 0
4, 130800, Note_on_c, 2, 76, 100
4, 130908, Note_on_c, 2, 76, 0
4, 130920, Note_on_c, 2, 78, 100
4, 131028, Note_on_c, 2, 78, 0
4, 131040, Note_on_c, 2, 79, 100
4, 131256, Note_on_c, 2, 79, 0
4, 131280, Note_on_c, 2, 79, 100
4, 131496, Note_on_c, 2, 79, 0
4, 131520, Note_on_c, 2, 79, 100
4, 131736, Note_on_c, 2, 79, 0
4, 131760, Note_on_c, 2, 81, 100
4, 131868, Note_on_c, 2, 81, 0
4, 131880, Note_on_c, 2, 79, 100
4, 131988, Note_on_c, 2, 79, 0
4, 132000, Note_on_c, 2, 78, 100
4, 132108, Note_on_c, 2, 78, 0
4, 132120, Note_on_c, 2, 81, 100
4, 132228, Note_on_c, 2, 81, 0
4, 132240, Note_on_c, 2, 79, 100
4, 132348, Note_on_c, 2, 79, 0
4, 132360, Note_on_c, 2, 78, 100
4, 132468, Note_on_c, 2, 78, 0
4, 132480, Note_on_c, 2, 79, 100
4, 132588, Note_on_c, 2, 79, 0
4, 132600, Note_on_c, 2, 74, 100
4, 132708, Note_on_c, 2, 74, 0
4, 132720, Note_on_c, 2, 71, 100
4, 132828, Note_on_c, 2, 71, 0
4, 132840, Note_on_c, 2, 74, 100
4, 132948, Note_on_c, 2, 74, 0
4, 132960, Note_on_c, 2, 76, 100
4, 133068, Note_on_c, 2, 76, 0
4, 133080, Note_on_c, 2, 74, 100
4, 133188, Note_on_c, 2, 74, 0
4, 133200, Note_on_c, 2, 76, 100
4, 133308, Note_on_c, 2, 76, 0
4, 133320, Note_on_c, 2, 72, 100
4, 133428, Note_on_c, 2, 72, 0
4, 133440, Note_on_c, 2, 74, 100
4, 133548, Note_on_c, 2, 74, 0
4, 133560, Note_on_c, 2, 79, 100
4, 133668, Note_on_c, 2, 79, 0
4, 133680, Note_on_c, 2, 74, 100
4, 133788, Note_on_c, 2, 74, 0
4, 133800, Note_on_c, 2, 71, 100
4, 133908, Note_on_c, 2, 71, 0
4, 133920, Note_on_c, 2, 67, 100
4, 134028, Note_on_c, 2, 67, 0
4, 134040, Note_on_c, 2, 72, 100
4, 134148, Note_on_c, 2, 72, 0
4, 134160, Note_on_c, 2, 67, 100
4, 134268, Note_on_c, 2, 67, 0
4, 134280, Note_on_c, 2, 64, 100
4, 134388, Note_on_c, 2, 64, 0
4, 134400, Note_on_c, 2, 62, 100
4, 134616, Note_on_c, 2, 62, 0
4, 168240, Note_on_c, 2, 62, 100
4, 168456, Note_on_c, 2, 62, 0
4, 168480, Note_on_c, 2, 67, 100
4, 168696, Note_on_c, 2, 67, 0
4, 168720, Note_on_c, 2, 67, 100
4, 168936, Note_on_c, 2, 67, 0
4, 168960, Note_on_c, 2, 67, 100
4, 169176, Note_on_c, 2, 67, 0
4, 169200, Note_on_c, 2, 66, 100
4, 169308, Note_on_c, 2, 66, 0
4, 169320, Note_on_c, 2, 64, 100
4, 169428, Note_on_c, 2, 64, 0
4, 169440, Note_on_c, 2, 66, 100
4, 169548, Note_on_c, 2, 66, 0
4, 169560, Note_on_c, 2, 67, 100
4, 169668, Note_on_c, 2, 67, 0
4, 169680, Note_on_c, 2, 64, 100
4, 169788, Note_on_c, 2, 64, 0
4, 169800, Note_on_c, 2, 66, 100
4, 169908, Note_on_c, 2, 66, 0
4, 169920, Note_on_c, 2, 67, 100
4, 170028, Note_on_c, 2, 67, 0
4, 170040, Note_on_c, 2, 71, 100
4, 170148, Note_on_c, 2, 71, 0
4, 170160, Note_on_c, 2, 72, 100
4, 170268, Note_on_c, 2, 72, 0
4, 170280, Note_on_c, 2, 74, 100
4, 170388, Note_on_c, 2, 74, 0
4, 170400, Note_on_c, 2, 76, 100
4, 170616, Note_on_c, 2, 76, 0
4, 170640, Note_on_c, 2, 76, 100
4, 170856, Note_on_c, 2, 76, 0
4, 170880, Note_on_c, 2, 76, 100
4, 171096, Note_on_c, 2, 76, 0
4, 171120, Note_on_c, 2, 74, 100
4, 171228, Note_on_c, 2, 74, 0
4, 171240, Note_on_c, 2, 72, 100
4, 171348, Note_on_c, 2, 72, 0
4, 171360, Note_on_c, 2, 74, 100
4, 171576, Note_on_c, 2, 74, 0
4, 171600, Note_on_c, 2, 74, 100
4, 171816, Note_on_c, 2, 74, 0
4, 171840, Note_on_c, 2, 74, 100
4, 171948, Note_on_c, 2, 74, 0
4, 171960, Note_on_c, 2, 67, 100
4, 172068, Note_on_c, 2, 67, 0
4, 172080, Note_on_c, 2, 69, 100
4, 172188, Note_on_c, 2, 69, 0
4, 172200, Note_on_c, 2, 71, 100
4, 172308, Note_on_c, 2, 71, 0
4, 172320, Note_on_c, 2, 72, 100
4, 172536, Note_on_c, 2, 72, 0
4, 172560, Note_on_c, 2, 72, 100
4, 172776, Note_on_c, 2, 72, 0
4, 172800, Note_on_c, 2, 72, 100
4, 173016, Note_on_c, 2, 72, 0
4, 173040, Note_on_c, 2, 71, 100
4, 173148, Note_on_c, 2, 71, 0
4, 173160, Note_on_c, 2, 69, 100
4, 173268, Note_on_c, 2, 69, 0
4, 173280, Note_on_c, 2, 67, 100
4, 173496, Note_on_c, 2, 67, 0
4, 173520, Note_on_c, 2, 79, 100
4, 173868, Note_on_c, 2, 79, 0
4, 173880, Note_on_c, 2, 76, 100
4, 173988, Note_on_c, 2, 76, 0
4, 174000, Note_on_c, 2, 72, 100
4, 174108, Note_on_c, 2, 72, 0
4, 174120, Note_on_c, 2, 67, 100
4, 174228, Note_on_c, 2, 67, 0
4, 174240, Note_on_c, 2, 69, 100
4, 174348, Note_on_c, 2, 69, 0
4, 174360, Note_on_c, 2, 65, 100
4, 174468, Note_on_c, 2, 65, 0
4, 174480, Note_on_c, 2, 69, 100
4, 174588, Note_on_c, 2, 69, 0
4, 174600, Note_on_c, 2, 72, 100
4, 174708, Note_on_c, 2, 72, 0
4, 174720, Note_on_c, 2, 67, 100
4, 174828, Note_on_c, 2, 67, 0
4, 174840, Note_on_c, 2, 64, 100
4, 174948, Note_on_c, 2, 64, 0
4, 174960, Note_on_c, 2, 67, 100
4, 175068, Note_on_c, 2, 67, 0
4, 175080, Note_on_c, 2, 72, 100
4, 175188, Note_on_c, 2, 72, 0
4, 175200, Note_on_c, 2, 65, 100
4, 175308, Note_on_c, 2, 65, 0
4, 175320, Note_on_c, 2, 60, 100
4, 175428, Note_on_c, 2, 60, 0
4, 175440, Note_on_c, 2, 65, 100
4, 175548, Note_on_c, 2, 65, 0
4, 175560, Note_on_c, 2, 69, 100
4, 175668, Note_on_c, 2, 69, 0
4, 175680, Note_on_c, 2, 64, 100
4, 175788, Note_on_c, 2, 64, 0
4, 175800, Note_on_c, 2, 60, 100
4, 175908, Note_on_c, 2, 60, 0
4, 175920, Note_on_c, 2, 62, 100
4, 176028, Note_on_c, 2, 62, 0
4, 176040, Note_on_c, 2, 64, 100
4, 176148, Note_on_c, 2, 64, 0
4, 176160, Note_on_c, 2, 65, 100
4, 176268, Note_on_c, 2, 65, 0
4, 176280, Note_on_c, 2, 67, 100
4, 176388, Note_on_c, 2, 67, 0
4, 176400, Note_on_c, 2, 69, 100
4, 176508, Note_on_c, 2, 69, 0
4, 176520, Note_on_c, 2, 71, 100
4, 176628, Note_on_c, 2, 71, 0
4, 176640, Note_on_c, 2, 72, 100
4, 176856, Note_on_c, 2, 72, 0
4, 176880, Note_on_c, 2, 65, 100
4, 176880, Note_on_c, 2, 69, 100
4, 176880, Note_on_c, 2, 74, 100
4, 177096, Note_on_c, 2, 65, 0
4, 177096, Note_on_c, 2, 69, 0
4, 177096, Note_on_c, 2, 74, 0
4, 177120, Note_on_c, 2, 64, 100
4, 177120, Note_on_c, 2, 67, 100
4, 177336, Note_on_c, 2, 64, 0
4, 177336, Note_on_c, 2, 67, 0
4, 177360, Note_on_c, 2, 62, 100
4, 177360, Note_on_c, 2, 65, 100
4, 177360, Note_on_c, 2, 71, 100
4, 177576, Note_on_c, 2, 62, 0
4, 177576, Note_on_c, 2, 65, 0
4, 177576, Note_on_c, 2, 71, 0
4, 177600, Note_on_c, 2, 60, 100
4, 177600, Note_on_c, 2, 64, 100
4, 177600, Note_on_c, 2, 67, 100
4, 177600, Note_on_c, 2, 72, 100
4, 177816, Note_on_c, 2, 60, 0
4, 177816, Note_on_c, 2, 64, 0
4, 177816, Note_on_c, 2, 67, 0
4, 177816, Note_on_c, 2, 72, 0
4, 177840, Note_on_c, 2, 70, 100
4, 178056, Note_on_c, 2, 70, 0
4, 178080, Note_on_c, 2, 69, 100
4, 178404, Note_on_c, 2, 69, 0
4, 178440, Note_on_c, 2, 70, 100
4, 178494, Note_on_c, 2, 70, 0
4, 178500, Note_on_c, 2, 69, 100
4, 178554, Note_on_c, 2, 69, 0
4, 178560, Note_on_c, 2, 67, 100
4, 178776, Note_on_c, 2, 67, 0
4, 178800, Note_on_c, 2, 70, 100
4, 179016, Note_on_c, 2, 70, 0
4, 179040, Note_on_c, 2, 69, 100
4, 179364, Note_on_c, 2, 69, 0
4, 179400, Note_on_c, 2, 70, 100
4, 179454, Note_on_c, 2, 70, 0
4, 179460, Note_on_c, 2, 69, 100
4, 179514, Note_on_c, 2, 69, 0
4, 179520, Note_on_c, 2, 67, 100
4, 179736, Note_on_c, 2, 67, 0
4, 180720, Note_on_c, 2, 76, 100
4, 180792, Note_on_c, 2, 76, 0
4, 180800, Note_on_c, 2, 74, 100
4, 180872, Note_on_c, 2, 74, 0
4, 180880, Note_on_c, 2, 76, 100
4, 180952, Note_on_c, 2, 76, 0
4, 180960, Note_on_c, 2, 77, 100
4, 181032, Note_on_c, 2, 77, 0
4, 181040, Note_on_c, 2, 76, 100
4, 181112, Note_on_c, 2, 76, 0
4, 181120, Note_on_c, 2, 77, 100
4, 181192, Note_on_c, 2, 77, 0
4, 181200, Note_on_c, 2, 74, 100
4, 181272, Note_on_c, 2, 74, 0
4, 181280, Note_on_c, 2, 72, 100
4, 181352, Note_on_c, 2, 72, 0
4, 181360, Note_on_c, 2, 74, 100
4, 181432, Note_on_c, 2, 74, 0
4, 181440, Note_on_c, 2, 76, 100
4, 181656, Note_on_c, 2, 76, 0
4, 182640, Note_on_c, 2, 65, 100
4, 182640, Note_on_c, 2, 69, 100
4, 182640, Note_on_c, 2, 74, 100
4, 182856, Note_on_c, 2, 65, 0
4, 182856, Note_on_c, 2, 69, 0
4, 182856, Note_on_c, 2, 74, 0
4, 182880, Note_on_c, 2, 64, 100
4, 182880, Note_on_c, 2, 67, 100
4, 183096, Note_on_c, 2, 64, 0
4, 183096, Note_on_c, 2, 67, 0
4, 183120, Note_on_c, 2, 62, 100
4, 183120, Note_on_c, 2, 65, 100
4, 183120, Note_on_c, 2, 67, 100
4, 183120, Note_on_c, 2, 71, 100
4, 183336, Note_on_c, 2, 62, 0
4, 183336, Note_on_c, 2, 65, 0
4, 183336, Note_on_c, 2, 67, 0
4, 183336, Note_on_c, 2, 71, 0
4, 183360, Note_on_c, 2, 60, 100
4, 183360, Note_on_c, 2, 64, 100
4, 183360, Note_on_c, 2, 67, 100
4, 183360, Note_on_c, 2, 72, 100
4, 184224, Note_on_c, 2, 60, 0
4, 184224, Note_on_c, 2, 64, 0
4, 184224, Note_on_c, 2, 67, 0
4, 184224, Note_on_c, 2, 72, 0
4, 184224, End_track
5, 0, Start_track
5, 0, Sequence_number, 65535
5, 0, MIDI_port, 0
5, 0, Title_t, "~"
5, 0, Control_c, 3, 0, 0
5, 0, Control_c, 3, 32, 0
5, 0, Program_c, 3, 6
5, 0, Control_c, 3, 7, 80
5, 0, Control_c, 3, 10, 64
5, 3120, Note_on_c, 3, 55, 100
5, 3228, Note_on_c, 3, 55, 0
5, 3240, Note_on_c, 3, 53, 100
5, 3348, Note_on_c, 3, 53, 0
5, 3360, Note_on_c, 3, 52, 100
5, 3576, Note_on_c, 3, 52, 0
5, 3600, Note_on_c, 3, 48, 100
5, 3816, Note_on_c, 3, 48, 0
5, 3840, Note_on_c, 3, 53, 100
5, 4056, Note_on_c, 3, 53, 0
5, 4080, Note_on_c, 3, 52, 100
5, 4296, Note_on_c, 3, 52, 0
5, 4320, Note_on_c, 3, 50, 100
5, 4536, Note_on_c, 3, 50, 0
5, 4560, Note_on_c, 3, 47, 100
5, 4776, Note_on_c, 3, 47, 0
5, 5040, Note_on_c, 3, 52, 100
5, 5148, Note_on_c, 3, 52, 0
5, 5160, Note_on_c, 3, 50, 100
5, 5268, Note_on_c, 3, 50, 0
5, 5280, Note_on_c, 3, 48, 100
5, 5496, Note_on_c, 3, 48, 0
5, 5520, Note_on_c, 3, 45, 100
5, 5736, Note_on_c, 3, 45, 0
5, 5760, Note_on_c, 3, 50, 100
5, 5976, Note_on_c, 3, 50, 0
5, 6000, Note_on_c, 3, 48, 100
5, 6216, Note_on_c, 3, 48, 0
5, 6240, Note_on_c, 3, 47, 100
5, 6456, Note_on_c, 3, 47, 0
5, 6480, Note_on_c, 3, 43, 100
5, 6696, Note_on_c, 3, 43, 0
5, 6720, Note_on_c, 3, 48, 100
5, 6936, Note_on_c, 3, 48, 0
5, 7080, Note_on_c, 3, 58, 100
5, 7188, Note_on_c, 3, 58, 0
5, 7200, Note_on_c, 3, 57, 100
5, 7308, Note_on_c, 3, 57, 0
5, 7320, Note_on_c, 3, 53, 100
5, 7428, Note_on_c, 3, 53, 0
5, 7440, Note_on_c, 3, 57, 100
5, 7548, Note_on_c, 3, 57, 0
5, 7560, Note_on_c, 3, 53, 100
5, 7668, Note_on_c, 3, 53, 0
5, 7680, Note_on_c, 3, 60, 100
5, 7896, Note_on_c, 3, 60, 0
5, 7920, Note_on_c, 3, 48, 100
5, 8028, Note_on_c, 3, 48, 0
5, 8040, Note_on_c, 3, 46, 100
5, 8148, Note_on_c, 3, 46, 0
5, 8160, Note_on_c, 3, 45, 100
5, 8268, Note_on_c, 3, 45, 0
5, 8280, Note_on_c, 3, 41, 100
5, 8388, Note_on_c, 3, 41, 0
5, 8400, Note_on_c, 3, 45, 100
5, 8508, Note_on_c, 3, 45, 0
5, 8520, Note_on_c, 3, 41, 100
5, 8628, Note_on_c, 3, 41, 0
5, 8640, Note_on_c, 3, 48, 100
5, 8856, Note_on_c, 3, 48, 0
5, 9360, Note_on_c, 3, 57, 100
5, 9816, Note_on_c, 3, 57, 0
5, 9840, Note_on_c, 3, 54, 100
5, 10056, Note_on_c, 3, 54, 0
5, 10080, Note_on_c, 3, 50, 100
5, 10296, Note_on_c, 3, 50, 0
5, 10320, Note_on_c, 3, 59, 100
5, 10776, Note_on_c, 3, 59, 0
5, 10800, Note_on_c, 3, 55, 100
5, 11016, Note_on_c, 3, 55, 0
5, 11040, Note_on_c, 3, 52, 100
5, 11256, Note_on_c, 3, 52, 0
5, 11280, Note_on_c, 3, 60, 100
5, 11736, Note_on_c, 3, 60, 0
5, 11760, Note_on_c, 3, 57, 100
5, 11976, Note_on_c, 3, 57, 0
5, 12000, Note_on_c, 3, 54, 100
5, 12216, Note_on_c, 3, 54, 0
5, 12240, Note_on_c, 3, 62, 100
5, 12588, Note_on_c, 3, 62, 0
5, 12600, Note_on_c, 3, 60, 100
5, 12708, Note_on_c, 3, 60, 0
5, 12720, Note_on_c, 3, 59, 100
5, 12828, Note_on_c, 3, 59, 0
5, 12840, Note_on_c, 3, 57, 100
5, 12948, Note_on_c, 3, 57, 0
5, 12960, Note_on_c, 3, 55, 100
5, 13176, Note_on_c, 3, 55, 0
5, 13200, Note_on_c, 3, 62, 100
5, 13548, Note_on_c, 3, 62, 0
5, 13560, Note_on_c, 3, 55, 100
5, 13668, Note_on_c, 3, 55, 0
5, 13680, Note_on_c, 3, 54, 100
5, 13788, Note_on_c, 3, 54, 0
5, 13800, Note_on_c, 3, 52, 100
5, 13908, Note_on_c, 3, 52, 0
5, 13920, Note_on_c, 3, 50, 100
5, 14136, Note_on_c, 3, 50, 0
5, 14160, Note_on_c, 3, 62, 100
5, 14376, Note_on_c, 3, 62, 0
5, 14400, Note_on_c, 3, 64, 100
5, 14508, Note_on_c, 3, 64, 0
5, 14520, Note_on_c, 3, 62, 100
5, 14628, Note_on_c, 3, 62, 0
5, 14640, Note_on_c, 3, 64, 100
5, 14748, Note_on_c, 3, 64, 0
5, 14760, Note_on_c, 3, 66, 100
5, 14868, Note_on_c, 3, 66, 0
5, 14880, Note_on_c, 3, 64, 100
5, 14988, Note_on_c, 3, 64, 0
5, 15000, Note_on_c, 3, 66, 100
5, 15108, Note_on_c, 3, 66, 0
5, 15120, Note_on_c, 3, 62, 100
5, 15228, Note_on_c, 3, 62, 0
5, 15240, Note_on_c, 3, 64, 100
5, 15348, Note_on_c, 3, 64, 0
5, 15360, Note_on_c, 3, 66, 100
5, 15468, Note_on_c, 3, 66, 0
5, 15480, Note_on_c, 3, 60, 100
5, 15588, Note_on_c, 3, 60, 0
5, 15600, Note_on_c, 3, 59, 100
5, 15708, Note_on_c, 3, 59, 0
5, 15720, Note_on_c, 3, 57, 100
5, 15828, Note_on_c, 3, 57, 0
5, 15840, Note_on_c, 3, 55, 100
5, 16536, Note_on_c, 3, 55, 0
5, 16560, Note_on_c, 3, 57, 100
5, 16668, Note_on_c, 3, 57, 0
5, 16680, Note_on_c, 3, 59, 100
5, 16788, Note_on_c, 3, 59, 0
5, 16800, Note_on_c, 3, 60, 100
5, 17016, Note_on_c, 3, 60, 0
5, 17040, Note_on_c, 3, 66, 100
5, 17256, Note_on_c, 3, 66, 0
5, 17280, Note_on_c, 3, 54, 100
5, 17496, Note_on_c, 3, 54, 0
5, 17520, Note_on_c, 3, 55, 100
5, 17628, Note_on_c, 3, 55, 0
5, 17640, Note_on_c, 3, 57, 100
5, 17748, Note_on_c, 3, 57, 0
5, 17760, Note_on_c, 3, 59, 100
5, 17976, Note_on_c, 3, 59, 0
5, 18000, Note_on_c, 3, 64, 100
5, 18216, Note_on_c, 3, 64, 0
5, 18240, Note_on_c, 3, 52, 100
5, 18456, Note_on_c, 3, 52, 0
5, 18480, Note_on_c, 3, 54, 100
5, 18588, Note_on_c, 3, 54, 0
5, 18600, Note_on_c, 3, 55, 100
5, 18708, Note_on_c, 3, 55, 0
5, 18720, Note_on_c, 3, 57, 100
5, 18828, Note_on_c, 3, 57, 0
5, 18840, Note_on_c, 3, 50, 100
5, 18948, Note_on_c, 3, 50, 0
5, 18960, Note_on_c, 3, 54, 100
5, 19068, Note_on_c, 3, 54, 0
5, 19080, Note_on_c, 3, 50, 100
5, 19188, Note_on_c, 3, 50, 0
5, 19200, Note_on_c, 3, 55, 100
5, 19416, Note_on_c, 3, 55, 0
5, 19440, Note_on_c, 3, 59, 100
5, 19656, Note_on_c, 3, 59, 0
5, 19680, Note_on_c, 3, 55, 100
5, 19896, Note_on_c, 3, 55, 0
5, 19920, Note_on_c, 3, 52, 100
5, 20136, Note_on_c, 3, 52, 0
5, 20160, Note_on_c, 3, 53, 100
5, 20376, Note_on_c, 3, 53, 0
5, 20400, Note_on_c, 3, 50, 100
5, 20616, Note_on_c, 3, 50, 0
5, 20640, Note_on_c, 3, 52, 100
5, 20856, Note_on_c, 3, 52, 0
5, 20880, Note_on_c, 3, 48, 100
5, 20988, Note_on_c, 3, 48, 0
5, 21000, Note_on_c, 3, 43, 100
5, 21108, Note_on_c, 3, 43, 0
5, 21120, Note_on_c, 3, 55, 100
5, 21336, Note_on_c, 3, 55, 0
5, 21720, Note_on_c, 3, 55, 100
5, 21828, Note_on_c, 3, 55, 0
5, 21840, Note_on_c, 3, 57, 100
5, 21948, Note_on_c, 3, 57, 0
5, 21960, Note_on_c, 3, 58, 100
5, 22068, Note_on_c, 3, 58, 0
5, 22080, Note_on_c, 3, 57, 100
5, 22296, Note_on_c, 3, 57, 0
5, 22320, Note_on_c, 3, 62, 100
5, 22536, Note_on_c, 3, 62, 0
5, 22560, Note_on_c, 3, 57, 100
5, 22884, Note_on_c, 3, 57, 0
5, 22920, Note_on_c, 3, 55, 100
5, 23028, Note_on_c, 3, 55, 0
5, 23040, Note_on_c, 3, 53, 100
5, 23148, Note_on_c, 3, 53, 0
5, 23160, Note_on_c, 3, 57, 100
5, 23268, Note_on_c, 3, 57, 0
5, 23280, Note_on_c, 3, 59, 100
5, 23388, Note_on_c, 3, 59, 0
5, 23400, Note_on_c, 3, 61, 100
5, 23508, Note_on_c, 3, 61, 0
5, 23520, Note_on_c, 3, 62, 100
5, 24216, Note_on_c, 3, 62, 0
5, 24240, Note_on_c, 3, 55, 100
5, 24456, Note_on_c, 3, 55, 0
5, 24480, Note_on_c, 3, 67, 100
5, 25068, Note_on_c, 3, 67, 0
5, 25080, Note_on_c, 3, 55, 100
5, 25188, Note_on_c, 3, 55, 0
5, 25200, Note_on_c, 3, 57, 100
5, 25308, Note_on_c, 3, 57, 0
5, 25320, Note_on_c, 3, 59, 100
5, 25428, Note_on_c, 3, 59, 0
5, 25440, Note_on_c, 3, 60, 100
5, 26028, Note_on_c, 3, 60, 0
5, 26040, Note_on_c, 3, 62, 100
5, 26148, Note_on_c, 3, 62, 0
5, 26160, Note_on_c, 3, 59, 100
5, 26268, Note_on_c, 3, 59, 0
5, 26280, Note_on_c, 3, 60, 100
5, 26388, Note_on_c, 3, 60, 0
5, 26400, Note_on_c, 3, 57, 100
5, 26508, Note_on_c, 3, 57, 0
5, 26520, Note_on_c, 3, 59, 100
5, 26628, Note_on_c, 3, 59, 0
5, 26640, Note_on_c, 3, 60, 100
5, 26748, Note_on_c, 3, 60, 0
5, 26760, Note_on_c, 3, 57, 100
5, 26868, Note_on_c, 3, 57, 0
5, 26880, Note_on_c, 3, 59, 100
5, 26988, Note_on_c, 3, 59, 0
5, 27000, Note_on_c, 3, 62, 100
5, 27108, Note_on_c, 3, 62, 0
5, 27120, Note_on_c, 3, 55, 100
5, 27228, Note_on_c, 3, 55, 0
5, 27240, Note_on_c, 3, 59, 100
5, 27348, Note_on_c, 3, 59, 0
5, 27360, Note_on_c, 3, 60, 100
5, 27468, Note_on_c, 3, 60, 0
5, 27480, Note_on_c, 3, 64, 100
5, 27588, Note_on_c, 3, 64, 0
5, 27600, Note_on_c, 3, 55, 100
5, 27708, Note_on_c, 3, 55, 0
5, 27720, Note_on_c, 3, 59, 100
5, 27828, Note_on_c, 3, 59, 0
5, 27840, Note_on_c, 3, 57, 100
5, 27948, Note_on_c, 3, 57, 0
5, 27960, Note_on_c, 3, 60, 100
5, 28068, Note_on_c, 3, 60, 0
5, 28080, Note_on_c, 3, 53, 100
5, 28188, Note_on_c, 3, 53, 0
5, 28200, Note_on_c, 3, 57, 100
5, 28308, Note_on_c, 3, 57, 0
5, 28320, Note_on_c, 3, 59, 100
5, 28428, Note_on_c, 3, 59, 0
5, 28440, Note_on_c, 3, 62, 100
5, 28548, Note_on_c, 3, 62, 0
5, 28560, Note_on_c, 3, 53, 100
5, 28668, Note_on_c, 3, 53, 0
5, 28680, Note_on_c, 3, 57, 100
5, 28788, Note_on_c, 3, 57, 0
5, 28800, Note_on_c, 3, 55, 100
5, 28908, Note_on_c, 3, 55, 0
5, 28920, Note_on_c, 3, 59, 100
5, 29028, Note_on_c, 3, 59, 0
5, 29040, Note_on_c, 3, 52, 100
5, 29148, Note_on_c, 3, 52, 0
5, 29160, Note_on_c, 3, 55, 100
5, 29268, Note_on_c, 3, 55, 0
5, 29280, Note_on_c, 3, 57, 100
5, 29388, Note_on_c, 3, 57, 0
5, 29400, Note_on_c, 3, 60, 100
5, 29508, Note_on_c, 3, 60, 0
5, 29520, Note_on_c, 3, 52, 100
5, 29628, Note_on_c, 3, 52, 0
5, 29640, Note_on_c, 3, 55, 100
5, 29748, Note_on_c, 3, 55, 0
5, 29760, Note_on_c, 3, 53, 100
5, 29868, Note_on_c, 3, 53, 0
5, 29880, Note_on_c, 3, 57, 100
5, 29988, Note_on_c, 3, 57, 0
5, 30000, Note_on_c, 3, 50, 100
5, 30108, Note_on_c, 3, 50, 0
5, 30120, Note_on_c, 3, 53, 100
5, 30228, Note_on_c, 3, 53, 0
5, 30240, Note_on_c, 3, 55, 100
5, 30348, Note_on_c, 3, 55, 0
5, 30360, Note_on_c, 3, 59, 100
5, 30468, Note_on_c, 3, 59, 0
5, 30480, Note_on_c, 3, 50, 100
5, 30588, Note_on_c, 3, 50, 0
5, 30600, Note_on_c, 3, 53, 100
5, 30708, Note_on_c, 3, 53, 0
5, 30720, Note_on_c, 3, 52, 100
5, 30828, Note_on_c, 3, 52, 0
5, 30840, Note_on_c, 3, 55, 100
5, 30948, Note_on_c, 3, 55, 0
5, 30960, Note_on_c, 3, 48, 100
5, 31068, Note_on_c, 3, 48, 0
5, 31080, Note_on_c, 3, 52, 100
5, 31188, Note_on_c, 3, 52, 0
5, 31200, Note_on_c, 3, 53, 100
5, 31308, Note_on_c, 3, 53, 0
5, 31320, Note_on_c, 3, 57, 100
5, 31428, Note_on_c, 3, 57, 0
5, 31440, Note_on_c, 3, 48, 100
5, 31548, Note_on_c, 3, 48, 0
5, 31560, Note_on_c, 3, 53, 100
5, 31668, Note_on_c, 3, 53, 0
5, 31680, Note_on_c, 3, 52, 100
5, 31788, Note_on_c, 3, 52, 0
5, 31800, Note_on_c, 3, 55, 100
5, 31908, Note_on_c, 3, 55, 0
5, 31920, Note_on_c, 3, 48, 100
5, 32028, Note_on_c, 3, 48, 0
5, 32040, Note_on_c, 3, 52, 100
5, 32148, Note_on_c, 3, 52, 0
5, 32160, Note_on_c, 3, 53, 100
5, 32268, Note_on_c, 3, 53, 0
5, 32280, Note_on_c, 3, 57, 100
5, 32388, Note_on_c, 3, 57, 0
5, 32400, Note_on_c, 3, 48, 100
5, 32508, Note_on_c, 3, 48, 0
5, 32520, Note_on_c, 3, 53, 100
5, 32628, Note_on_c, 3, 53, 0
5, 32640, Note_on_c, 3, 52, 100
5, 32856, Note_on_c, 3, 52, 0
5, 32880, Note_on_c, 3, 55, 100
5, 33096, Note_on_c, 3, 55, 0
5, 33120, Note_on_c, 3, 52, 100
5, 33336, Note_on_c, 3, 52, 0
5, 33360, Note_on_c, 3, 48, 100
5, 33576, Note_on_c, 3, 48, 0
5, 33840, Note_on_c, 3, 50, 100
5, 34056, Note_on_c, 3, 50, 0
5, 34080, Note_on_c, 3, 47, 100
5, 34296, Note_on_c, 3, 47, 0
5, 34320, Note_on_c, 3, 43, 100
5, 34536, Note_on_c, 3, 43, 0
5, 34680, Note_on_c, 3, 55, 100
5, 34788, Note_on_c, 3, 55, 0
5, 34800, Note_on_c, 3, 57, 100
5, 34908, Note_on_c, 3, 57, 0
5, 34920, Note_on_c, 3, 59, 100
5, 35028, Note_on_c, 3, 59, 0
5, 35040, Note_on_c, 3, 57, 100
5, 35148, Note_on_c, 3, 57, 0
5, 35160, Note_on_c, 3, 60, 100
5, 35268, Note_on_c, 3, 60, 0
5, 35280, Note_on_c, 3, 57, 100
5, 35388, Note_on_c, 3, 57, 0
5, 35400, Note_on_c, 3, 54, 100
5, 35508, Note_on_c, 3, 54, 0
5, 35520, Note_on_c, 3, 50, 100
5, 35628, Note_on_c, 3, 50, 0
5, 35640, Note_on_c, 3, 59, 100
5, 35748, Note_on_c, 3, 59, 0
5, 35760, Note_on_c, 3, 60, 100
5, 35868, Note_on_c, 3, 60, 0
5, 35880, Note_on_c, 3, 62, 100
5, 35988, Note_on_c, 3, 62, 0
5, 36000, Note_on_c, 3, 64, 100
5, 36216, Note_on_c, 3, 64, 0
5, 36240, Note_on_c, 3, 64, 100
5, 36456, Note_on_c, 3, 64, 0
5, 36480, Note_on_c, 3, 64, 100
5, 36696, Note_on_c, 3, 64, 0
5, 36720, Note_on_c, 3, 62, 100
5, 36828, Note_on_c, 3, 62, 0
5, 36840, Note_on_c, 3, 60, 100
5, 36948, Note_on_c, 3, 60, 0
5, 36960, Note_on_c, 3, 62, 100
5, 37176, Note_on_c, 3, 62, 0
5, 37200, Note_on_c, 3, 62, 100
5, 37548, Note_on_c, 3, 62, 0
5, 37560, Note_on_c, 3, 55, 100
5, 37668, Note_on_c, 3, 55, 0
5, 37680, Note_on_c, 3, 57, 100
5, 37788, Note_on_c, 3, 57, 0
5, 37800, Note_on_c, 3, 59, 100
5, 37908, Note_on_c, 3, 59, 0
5, 37920, Note_on_c, 3, 60, 100
5, 38616, Note_on_c, 3, 60, 0
5, 38640, Note_on_c, 3, 59, 100
5, 38748, Note_on_c, 3, 59, 0
5, 38760, Note_on_c, 3, 57, 100
5, 38868, Note_on_c, 3, 57, 0
5, 38880, Note_on_c, 3, 59, 100
5, 39096, Note_on_c, 3, 59, 0
5, 39120, Note_on_c, 3, 55, 100
5, 39336, Note_on_c, 3, 55, 0
5, 39360, Note_on_c, 3, 60, 100
5, 39576, Note_on_c, 3, 60, 0
5, 40560, Note_on_c, 3, 45, 100
5, 40632, Note_on_c, 3, 45, 0
5, 40640, Note_on_c, 3, 43, 100
5, 40712, Note_on_c, 3, 43, 0
5, 40720, Note_on_c, 3, 45, 100
5, 40792, Note_on_c, 3, 45, 0
5, 40800, Note_on_c, 3, 46, 100
5, 40872, Note_on_c, 3, 46, 0
5, 40880, Note_on_c, 3, 45, 100
5, 40952, Note_on_c, 3, 45, 0
5, 40960, Note_on_c, 3, 46, 100
5, 41032, Note_on_c, 3, 46, 0
5, 41040, Note_on_c, 3, 48, 100
5, 41112, Note_on_c, 3, 48, 0
5, 41120, Note_on_c, 3, 46, 100
5, 41192, Note_on_c, 3, 46, 0
5, 41200, Note_on_c, 3, 48, 100
5, 41272, Note_on_c, 3, 48, 0
5, 41280, Note_on_c, 3, 41, 100
5, 41496, Note_on_c, 3, 41, 0
5, 42480, Note_on_c, 3, 59, 100
5, 42552, Note_on_c, 3, 59, 0
5, 42560, Note_on_c, 3, 57, 100
5, 42632, Note_on_c, 3, 57, 0
5, 42640, Note_on_c, 3, 59, 100
5, 42712, Note_on_c, 3, 59, 0
5, 42720, Note_on_c, 3, 60, 100
5, 42792, Note_on_c, 3, 60, 0
5, 42800, Note_on_c, 3, 59, 100
5, 42872, Note_on_c, 3, 59, 0
5, 42880, Note_on_c, 3, 60, 100
5, 42952, Note_on_c, 3, 60, 0
5, 42960, Note_on_c, 3, 62, 100
5, 43032, Note_on_c, 3, 62, 0
5, 43040, Note_on_c, 3, 60, 100
5, 43112, Note_on_c, 3, 60, 0
5, 43120, Note_on_c, 3, 62, 100
5, 43192, Note_on_c, 3, 62, 0
5, 43200, Note_on_c, 3, 55, 100
5, 43416, Note_on_c, 3, 55, 0
5, 43440, Note_on_c, 3, 62, 100
5, 43512, Note_on_c, 3, 62, 0
5, 43520, Note_on_c, 3, 60, 100
5, 43592, Note_on_c, 3, 60, 0
5, 43600, Note_on_c, 3, 62, 100
5, 43672, Note_on_c, 3, 62, 0
5, 43680, Note_on_c, 3, 64, 100
5, 43752, Note_on_c, 3, 64, 0
5, 43760, Note_on_c, 3, 62, 100
5, 43832, Note_on_c, 3, 62, 0
5, 43840, Note_on_c, 3, 64, 100
5, 43912, Note_on_c, 3, 64, 0
5, 43920, Note_on_c, 3, 65, 100
5, 43992, Note_on_c, 3, 65, 0
5, 44000, Note_on_c, 3, 64, 100
5, 44072, Note_on_c, 3, 64, 0
5, 44080, Note_on_c, 3, 65, 100
5, 44152, Note_on_c, 3, 65, 0
5, 44160, Note_on_c, 3, 56, 100
5, 44376, Note_on_c, 3, 56, 0
5, 44400, Note_on_c, 3, 60, 100
5, 44712, Note_on_c, 3, 60, 0
5, 44720, Note_on_c, 3, 62, 100
5, 44792, Note_on_c, 3, 62, 0
5, 44800, Note_on_c, 3, 60, 100
5, 44872, Note_on_c, 3, 60, 0
5, 44880, Note_on_c, 3, 59, 100
5, 44952, Note_on_c, 3, 59, 0
5, 44960, Note_on_c, 3, 60, 100
5, 45032, Note_on_c, 3, 60, 0
5, 45040, Note_on_c, 3, 59, 100
5, 45112, Note_on_c, 3, 59, 0
5, 45120, Note_on_c, 3, 57, 100
5, 45228, Note_on_c, 3, 57, 0
5, 45240, Note_on_c, 3, 59, 100
5, 45348, Note_on_c, 3, 59, 0
5, 45360, Note_on_c, 3, 57, 100
5, 45468, Note_on_c, 3, 57, 0
5, 45480, Note_on_c, 3, 55, 100
5, 45588, Note_on_c, 3, 55, 0
5, 45600, Note_on_c, 3, 53, 100
5, 45708, Note_on_c, 3, 53, 0
5, 45720, Note_on_c, 3, 57, 100
5, 45828, Note_on_c, 3, 57, 0
5, 45840, Note_on_c, 3, 50, 100
5, 45948, Note_on_c, 3, 50, 0
5, 45960, Note_on_c, 3, 53, 100
5, 46068, Note_on_c, 3, 53, 0
5, 46080, Note_on_c, 3, 52, 100
5, 46188, Note_on_c, 3, 52, 0
5, 46200, Note_on_c, 3, 53, 100
5, 46308, Note_on_c, 3, 53, 0
5, 46320, Note_on_c, 3, 47, 100
5, 46428, Note_on_c, 3, 47, 0
5, 46440, Note_on_c, 3, 50, 100
5, 46548, Note_on_c, 3, 50, 0
5, 46560, Note_on_c, 3, 48, 100
5, 46668, Note_on_c, 3, 48, 0
5, 46680, Note_on_c, 3, 52, 100
5, 46788, Note_on_c, 3, 52, 0
5, 46800, Note_on_c, 3, 45, 100
5, 46908, Note_on_c, 3, 45, 0
5, 46920, Note_on_c, 3, 48, 100
5, 47028, Note_on_c, 3, 48, 0
5, 47040, Note_on_c, 3, 50, 100
5, 47148, Note_on_c, 3, 50, 0
5, 47160, Note_on_c, 3, 53, 100
5, 47268, Note_on_c, 3, 53, 0
5, 47280, Note_on_c, 3, 45, 100
5, 47388, Note_on_c, 3, 45, 0
5, 47400, Note_on_c, 3, 48, 100
5, 47508, Note_on_c, 3, 48, 0
5, 47520, Note_on_c, 3, 47, 100
5, 47628, Note_on_c, 3, 47, 0
5, 47640, Note_on_c, 3, 50, 100
5, 47748, Note_on_c, 3, 50, 0
5, 47760, Note_on_c, 3, 43, 100
5, 47868, Note_on_c, 3, 43, 0
5, 47880, Note_on_c, 3, 47, 100
5, 47988, Note_on_c, 3, 47, 0
5, 48000, Note_on_c, 3, 48, 100
5, 48108, Note_on_c, 3, 48, 0
5, 48120, Note_on_c, 3, 52, 100
5, 48228, Note_on_c, 3, 52, 0
5, 48240, Note_on_c, 3, 43, 100
5, 48348, Note_on_c, 3, 43, 0
5, 48360, Note_on_c, 3, 47, 100
5, 48468, Note_on_c, 3, 47, 0
5, 48480, Note_on_c, 3, 45, 100
5, 48588, Note_on_c, 3, 45, 0
5, 48600, Note_on_c, 3, 48, 100
5, 48708, Note_on_c, 3, 48, 0
5, 48720, Note_on_c, 3, 41, 100
5, 48828, Note_on_c, 3, 41, 0
5, 48840, Note_on_c, 3, 45, 100
5, 48948, Note_on_c, 3, 45, 0
5, 48960, Note_on_c, 3, 47, 100
5, 49068, Note_on_c, 3, 47, 0
5, 49080, Note_on_c, 3, 50, 100
5, 49188, Note_on_c, 3, 50, 0
5, 49200, Note_on_c, 3, 42, 100
5, 49308, Note_on_c, 3, 42, 0
5, 49320, Note_on_c, 3, 45, 100
5, 49428, Note_on_c, 3, 45, 0
5, 49440, Note_on_c, 3, 44, 100
5, 49656, Note_on_c, 3, 44, 0
5, 49680, Note_on_c, 3, 40, 100
5, 49896, Note_on_c, 3, 40, 0
5, 49920, Note_on_c, 3, 45, 100
5, 50136, Note_on_c, 3, 45, 0
5, 50160, Note_on_c, 3, 57, 100
5, 50376, Note_on_c, 3, 57, 0
5, 50400, Note_on_c, 3, 57, 100
5, 50616, Note_on_c, 3, 57, 0
5, 50640, Note_on_c, 3, 45, 100
5, 50856, Note_on_c, 3, 45, 0
5, 51120, Note_on_c, 3, 57, 100
5, 51336, Note_on_c, 3, 57, 0
5, 51360, Note_on_c, 3, 57, 100
5, 51576, Note_on_c, 3, 57, 0
5, 51600, Note_on_c, 3, 45, 100
5, 51816, Note_on_c, 3, 45, 0
5, 52080, Note_on_c, 3, 57, 100
5, 52188, Note_on_c, 3, 57, 0
5, 52200, Note_on_c, 3, 56, 100
5, 52308, Note_on_c, 3, 56, 0
5, 52320, Note_on_c, 3, 57, 100
5, 52428, Note_on_c, 3, 57, 0
5, 52440, Note_on_c, 3, 59, 100
5, 52548, Note_on_c, 3, 59, 0
5, 52560, Note_on_c, 3, 57, 100
5, 52668, Note_on_c, 3, 57, 0
5, 52680, Note_on_c, 3, 59, 100
5, 52788, Note_on_c, 3, 59, 0
5, 52800, Note_on_c, 3, 60, 100
5, 52908, Note_on_c, 3, 60, 0
5, 52920, Note_on_c, 3, 62, 100
5, 53028, Note_on_c, 3, 62, 0
5, 53040, Note_on_c, 3, 60, 100
5, 53148, Note_on_c, 3, 60, 0
5, 53160, Note_on_c, 3, 62, 100
5, 53268, Note_on_c, 3, 62, 0
5, 53280, Note_on_c, 3, 64, 100
5, 53388, Note_on_c, 3, 64, 0
5, 53400, Note_on_c, 3, 65, 100
5, 53508, Note_on_c, 3, 65, 0
5, 53520, Note_on_c, 3, 59, 100
5, 53628, Note_on_c, 3, 59, 0
5, 53640, Note_on_c, 3, 62, 100
5, 53748, Note_on_c, 3, 62, 0
5, 53760, Note_on_c, 3, 60, 100
5, 53868, Note_on_c, 3, 60, 0
5, 53880, Note_on_c, 3, 64, 100
5, 53988, Note_on_c, 3, 64, 0
5, 54000, Note_on_c, 3, 57, 100
5, 54108, Note_on_c, 3, 57, 0
5, 54120, Note_on_c, 3, 60, 100
5, 54228, Note_on_c, 3, 60, 0
5, 54240, Note_on_c, 3, 62, 100
5, 54348, Note_on_c, 3, 62, 0
5, 54360, Note_on_c, 3, 65, 100
5, 54468, Note_on_c, 3, 65, 0
5, 54480, Note_on_c, 3, 57, 100
5, 54588, Note_on_c, 3, 57, 0
5, 54600, Note_on_c, 3, 62, 100
5, 54708, Note_on_c, 3, 62, 0
5, 54720, Note_on_c, 3, 60, 100
5, 54828, Note_on_c, 3, 60, 0
5, 54840, Note_on_c, 3, 64, 100
5, 54948, Note_on_c, 3, 64, 0
5, 54960, Note_on_c, 3, 57, 100
5, 55068, Note_on_c, 3, 57, 0
5, 55080, Note_on_c, 3, 60, 100
5, 55188, Note_on_c, 3, 60, 0
5, 55200, Note_on_c, 3, 62, 100
5, 55308, Note_on_c, 3, 62, 0
5, 55320, Note_on_c, 3, 65, 100
5, 55428, Note_on_c, 3, 65, 0
5, 55440, Note_on_c, 3, 57, 100
5, 55548, Note_on_c, 3, 57, 0
5, 55560, Note_on_c, 3, 62, 100
5, 55668, Note_on_c, 3, 62, 0
5, 55680, Note_on_c, 3, 60, 100
5, 55896, Note_on_c, 3, 60, 0
5, 57840, Note_on_c, 3, 52, 100
5, 58056, Note_on_c, 3, 52, 0
5, 58080, Note_on_c, 3, 40, 100
5, 58296, Note_on_c, 3, 40, 0
5, 59760, Note_on_c, 3, 50, 100
5, 59976, Note_on_c, 3, 50, 0
5, 60000, Note_on_c, 3, 38, 100
5, 60216, Note_on_c, 3, 38, 0
5, 61680, Note_on_c, 3, 48, 100
5, 61896, Note_on_c, 3, 48, 0
5, 61920, Note_on_c, 3, 36, 100
5, 62136, Note_on_c, 3, 36, 0
5, 76080, Note_on_c, 3, 52, 100
5, 76188, Note_on_c, 3, 52, 0
5, 76200, Note_on_c, 3, 51, 100
5, 76308, Note_on_c, 3, 51, 0
5, 76320, Note_on_c, 3, 52, 100
5, 76428, Note_on_c, 3, 52, 0
5, 76440, Note_on_c, 3, 54, 100
5, 76548, Note_on_c, 3, 54, 0
5, 76560, Note_on_c, 3, 55, 100
5, 76668, Note_on_c, 3, 55, 0
5, 76680, Note_on_c, 3, 57, 100
5, 76788, Note_on_c, 3, 57, 0
5, 76800, Note_on_c, 3, 59, 100
5, 76908, Note_on_c, 3, 59, 0
5, 76920, Note_on_c, 3, 57, 100
5, 77028, Note_on_c, 3, 57, 0
5, 77040, Note_on_c, 3, 59, 100
5, 77148, Note_on_c, 3, 59, 0
5, 77160, Note_on_c, 3, 60, 100
5, 77268, Note_on_c, 3, 60, 0
5, 77280, Note_on_c, 3, 62, 100
5, 77388, Note_on_c, 3, 62, 0
5, 77400, Note_on_c, 3, 60, 100
5, 77508, Note_on_c, 3, 60, 0
5, 77520, Note_on_c, 3, 62, 100
5, 77628, Note_on_c, 3, 62, 0
5, 77640, Note_on_c, 3, 59, 100
5, 77748, Note_on_c, 3, 59, 0
5, 77760, Note_on_c, 3, 64, 100
5, 77868, Note_on_c, 3, 64, 0
5, 77880, Note_on_c, 3, 63, 100
5, 77988, Note_on_c, 3, 63, 0
5, 78000, Note_on_c, 3, 64, 100
5, 78108, Note_on_c, 3, 64, 0
5, 78120, Note_on_c, 3, 66, 100
5, 78228, Note_on_c, 3, 66, 0
5, 78240, Note_on_c, 3, 64, 100
5, 78348, Note_on_c, 3, 64, 0
5, 78360, Note_on_c, 3, 67, 100
5, 78468, Note_on_c, 3, 67, 0
5, 78480, Note_on_c, 3, 66, 100
5, 78588, Note_on_c, 3, 66, 0
5, 78600, Note_on_c, 3, 64, 100
5, 78708, Note_on_c, 3, 64, 0
5, 78720, Note_on_c, 3, 63, 100
5, 78828, Note_on_c, 3, 63, 0
5, 78840, Note_on_c, 3, 66, 100
5, 78948, Note_on_c, 3, 66, 0
5, 78960, Note_on_c, 3, 59, 100
5, 79068, Note_on_c, 3, 59, 0
5, 79080, Note_on_c, 3, 63, 100
5, 79188, Note_on_c, 3, 63, 0
5, 79200, Note_on_c, 3, 64, 100
5, 79308, Note_on_c, 3, 64, 0
5, 79320, Note_on_c, 3, 67, 100
5, 79428, Note_on_c, 3, 67, 0
5, 79440, Note_on_c, 3, 59, 100
5, 79548, Note_on_c, 3, 59, 0
5, 79560, Note_on_c, 3, 62, 100
5, 79668, Note_on_c, 3, 62, 0
5, 79680, Note_on_c, 3, 60, 100
5, 79788, Note_on_c, 3, 60, 0
5, 79800, Note_on_c, 3, 64, 100
5, 79908, Note_on_c, 3, 64, 0
5, 79920, Note_on_c, 3, 57, 100
5, 80028, Note_on_c, 3, 57, 0
5, 80040, Note_on_c, 3, 60, 100
5, 80148, Note_on_c, 3, 60, 0
5, 80160, Note_on_c, 3, 62, 100
5, 80268, Note_on_c, 3, 62, 0
5, 80280, Note_on_c, 3, 66, 100
5, 80388, Note_on_c, 3, 66, 0
5, 80400, Note_on_c, 3, 57, 100
5, 80508, Note_on_c, 3, 57, 0
5, 80520, Note_on_c, 3, 60, 100
5, 80628, Note_on_c, 3, 60, 0
5, 80640, Note_on_c, 3, 59, 100
5, 80748, Note_on_c, 3, 59, 0
5, 80760, Note_on_c, 3, 62, 100
5, 80868, Note_on_c, 3, 62, 0
5, 80880, Note_on_c, 3, 55, 100
5, 80988, Note_on_c, 3, 55, 0
5, 81000, Note_on_c, 3, 59, 100
5, 81108, Note_on_c, 3, 59, 0
5, 81120, Note_on_c, 3, 60, 100
5, 81228, Note_on_c, 3, 60, 0
5, 81240, Note_on_c, 3, 64, 100
5, 81348, Note_on_c, 3, 64, 0
5, 81360, Note_on_c, 3, 55, 100
5, 81468, Note_on_c, 3, 55, 0
5, 81480, Note_on_c, 3, 59, 100
5, 81588, Note_on_c, 3, 59, 0
5, 81600, Note_on_c, 3, 57, 100
5, 81708, Note_on_c, 3, 57, 0
5, 81720, Note_on_c, 3, 60, 100
5, 81828, Note_on_c, 3, 60, 0
5, 81840, Note_on_c, 3, 54, 100
5, 81948, Note_on_c, 3, 54, 0
5, 81960, Note_on_c, 3, 57, 100
5, 82068, Note_on_c, 3, 57, 0
5, 82080, Note_on_c, 3, 59, 100
5, 82188, Note_on_c, 3, 59, 0
5, 82200, Note_on_c, 3, 62, 100
5, 82308, Note_on_c, 3, 62, 0
5, 82320, Note_on_c, 3, 54, 100
5, 82428, Note_on_c, 3, 54, 0
5, 82440, Note_on_c, 3, 57, 100
5, 82548, Note_on_c, 3, 57, 0
5, 82560, Note_on_c, 3, 56, 100
5, 82668, Note_on_c, 3, 56, 0
5, 82680, Note_on_c, 3, 59, 100
5, 82788, Note_on_c, 3, 59, 0
5, 82800, Note_on_c, 3, 52, 100
5, 82908, Note_on_c, 3, 52, 0
5, 82920, Note_on_c, 3, 56, 100
5, 83028, Note_on_c, 3, 56, 0
5, 83040, Note_on_c, 3, 57, 100
5, 83148, Note_on_c, 3, 57, 0
5, 83160, Note_on_c, 3, 60, 100
5, 83268, Note_on_c, 3, 60, 0
5, 83280, Note_on_c, 3, 52, 100
5, 83388, Note_on_c, 3, 52, 0
5, 83400, Note_on_c, 3, 57, 100
5, 83508, Note_on_c, 3, 57, 0
5, 83520, Note_on_c, 3, 56, 100
5, 83628, Note_on_c, 3, 56, 0
5, 83640, Note_on_c, 3, 59, 100
5, 83748, Note_on_c, 3, 59, 0
5, 83760, Note_on_c, 3, 52, 100
5, 83868, Note_on_c, 3, 52, 0
5, 83880, Note_on_c, 3, 56, 100
5, 83988, Note_on_c, 3, 56, 0
5, 84000, Note_on_c, 3, 57, 100
5, 84108, Note_on_c, 3, 57, 0
5, 84120, Note_on_c, 3, 60, 100
5, 84228, Note_on_c, 3, 60, 0
5, 84240, Note_on_c, 3, 52, 100
5, 84348, Note_on_c, 3, 52, 0
5, 84360, Note_on_c, 3, 57, 100
5, 84468, Note_on_c, 3, 57, 0
5, 84480, Note_on_c, 3, 56, 100
5, 84696, Note_on_c, 3, 56, 0
5, 85680, Note_on_c, 3, 48, 100
5, 85752, Note_on_c, 3, 48, 0
5, 85760, Note_on_c, 3, 47, 100
5, 85832, Note_on_c, 3, 47, 0
5, 85840, Note_on_c, 3, 48, 100
5, 85912, Note_on_c, 3, 48, 0
5, 85920, Note_on_c, 3, 50, 100
5, 85992, Note_on_c, 3, 50, 0
5, 86000, Note_on_c, 3, 48, 100
5, 86072, Note_on_c, 3, 48, 0
5, 86080, Note_on_c, 3, 50, 100
5, 86152, Note_on_c, 3, 50, 0
5, 86160, Note_on_c, 3, 52, 100
5, 86232, Note_on_c, 3, 52, 0
5, 86240, Note_on_c, 3, 50, 100
5, 86312, Note_on_c, 3, 50, 0
5, 86320, Note_on_c, 3, 52, 100
5, 86392, Note_on_c, 3, 52, 0
5, 86400, Note_on_c, 3, 45, 100
5, 86616, Note_on_c, 3, 45, 0
5, 86640, Note_on_c, 3, 48, 100
5, 86712, Note_on_c, 3, 48, 0
5, 86720, Note_on_c, 3, 47, 100
5, 86792, Note_on_c, 3, 47, 0
5, 86800, Note_on_c, 3, 48, 100
5, 86872, Note_on_c, 3, 48, 0
5, 86880, Note_on_c, 3, 50, 100
5, 86952, Note_on_c, 3, 50, 0
5, 86960, Note_on_c, 3, 48, 100
5, 87032, Note_on_c, 3, 48, 0
5, 87040, Note_on_c, 3, 50, 100
5, 87112, Note_on_c, 3, 50, 0
5, 87120, Note_on_c, 3, 52, 100
5, 87192, Note_on_c, 3, 52, 0
5, 87200, Note_on_c, 3, 50, 100
5, 87272, Note_on_c, 3, 50, 0
5, 87280, Note_on_c, 3, 52, 100
5, 87352, Note_on_c, 3, 52, 0
5, 87360, Note_on_c, 3, 53, 100
5, 87912, Note_on_c, 3, 53, 0
5, 87920, Note_on_c, 3, 55, 100
5, 87992, Note_on_c, 3, 55, 0
5, 88000, Note_on_c, 3, 53, 100
5, 88072, Note_on_c, 3, 53, 0
5, 88080, Note_on_c, 3, 52, 100
5, 88152, Note_on_c, 3, 52, 0
5, 88160, Note_on_c, 3, 53, 100
5, 88232, Note_on_c, 3, 53, 0
5, 88240, Note_on_c, 3, 52, 100
5, 88312, Note_on_c, 3, 52, 0
5, 88320, Note_on_c, 3, 50, 100
5, 88536, Note_on_c, 3, 50, 0
5, 88560, Note_on_c, 3, 57, 100
5, 88632, Note_on_c, 3, 57, 0
5, 88640, Note_on_c, 3, 55, 100
5, 88712, Note_on_c, 3, 55, 0
5, 88720, Note_on_c, 3, 57, 100
5, 88792, Note_on_c, 3, 57, 0
5, 88800, Note_on_c, 3, 59, 100
5, 88872, Note_on_c, 3, 59, 0
5, 88880, Note_on_c, 3, 57, 100
5, 88952, Note_on_c, 3, 57, 0
5, 88960, Note_on_c, 3, 59, 100
5, 89032, Note_on_c, 3, 59, 0
5, 89040, Note_on_c, 3, 60, 100
5, 89112, Note_on_c, 3, 60, 0
5, 89120, Note_on_c, 3, 59, 100
5, 89192, Note_on_c, 3, 59, 0
5, 89200, Note_on_c, 3, 60, 100
5, 89272, Note_on_c, 3, 60, 0
5, 89280, Note_on_c, 3, 62, 100
5, 89832, Note_on_c, 3, 62, 0
5, 89840, Note_on_c, 3, 64, 100
5, 89912, Note_on_c, 3, 64, 0
5, 89920, Note_on_c, 3, 62, 100
5, 89992, Note_on_c, 3, 62, 0
5, 90000, Note_on_c, 3, 60, 100
5, 90072, Note_on_c, 3, 60, 0
5, 90080, Note_on_c, 3, 62, 100
5, 90152, Note_on_c, 3, 62, 0
5, 90160, Note_on_c, 3, 60, 100
5, 90232, Note_on_c, 3, 60, 0
5, 90240, Note_on_c, 3, 59, 100
5, 90456, Note_on_c, 3, 59, 0
5, 90480, Note_on_c, 3, 67, 100
5, 90552, Note_on_c, 3, 67, 0
5, 90560, Note_on_c, 3, 65, 100
5, 90632, Note_on_c, 3, 65, 0
5, 90640, Note_on_c, 3, 67, 100
5, 90712, Note_on_c, 3, 67, 0
5, 90720, Note_on_c, 3, 69, 100
5, 90792, Note_on_c, 3, 69, 0
5, 90800, Note_on_c, 3, 67, 100
5, 90872, Note_on_c, 3, 67, 0
5, 90880, Note_on_c, 3, 69, 100
5, 90952, Note_on_c, 3, 69, 0
5, 90960, Note_on_c, 3, 71, 100
5, 91032, Note_on_c, 3, 71, 0
5, 91040, Note_on_c, 3, 69, 100
5, 91112, Note_on_c, 3, 69, 0
5, 91120, Note_on_c, 3, 71, 100
5, 91192, Note_on_c, 3, 71, 0
5, 91200, Note_on_c, 3, 72, 100
5, 91416, Note_on_c, 3, 72, 0
5, 91440, Note_on_c, 3, 52, 100
5, 91512, Note_on_c, 3, 52, 0
5, 91520, Note_on_c, 3, 50, 100
5, 91592, Note_on_c, 3, 50, 0
5, 91600, Note_on_c, 3, 52, 100
5, 91672, Note_on_c, 3, 52, 0
5, 91680, Note_on_c, 3, 53, 100
5, 91752, Note_on_c, 3, 53, 0
5, 91760, Note_on_c, 3, 52, 100
5, 91832, Note_on_c, 3, 52, 0
5, 91840, Note_on_c, 3, 53, 100
5, 91912, Note_on_c, 3, 53, 0
5, 91920, Note_on_c, 3, 55, 100
5, 91992, Note_on_c, 3, 55, 0
5, 92000, Note_on_c, 3, 53, 100
5, 92072, Note_on_c, 3, 53, 0
5, 92080, Note_on_c, 3, 55, 100
5, 92152, Note_on_c, 3, 55, 0
5, 92160, Note_on_c, 3, 48, 100
5, 92376, Note_on_c, 3, 48, 0
5, 92580, Note_on_c, 3, 64, 100
5, 92634, Note_on_c, 3, 64, 0
5, 92640, Note_on_c, 3, 65, 100
5, 93042, Note_on_c, 3, 65, 0
5, 93060, Note_on_c, 3, 62, 100
5, 93114, Note_on_c, 3, 62, 0
5, 93120, Note_on_c, 3, 64, 100
5, 93522, Note_on_c, 3, 64, 0
5, 93540, Note_on_c, 3, 60, 100
5, 93594, Note_on_c, 3, 60, 0
5, 93600, Note_on_c, 3, 62, 100
5, 94002, Note_on_c, 3, 62, 0
5, 94020, Note_on_c, 3, 55, 100
5, 94074, Note_on_c, 3, 55, 0
5, 94080, Note_on_c, 3, 60, 100
5, 94482, Note_on_c, 3, 60, 0
5, 94500, Note_on_c, 3, 55, 100
5, 94554, Note_on_c, 3, 55, 0
5, 94560, Note_on_c, 3, 57, 100
5, 94632, Note_on_c, 3, 57, 0
5, 94640, Note_on_c, 3, 53, 100
5, 94712, Note_on_c, 3, 53, 0
5, 94720, Note_on_c, 3, 55, 100
5, 94792, Note_on_c, 3, 55, 0
5, 94800, Note_on_c, 3, 57, 100
5, 94872, Note_on_c, 3, 57, 0
5, 94880, Note_on_c, 3, 59, 100
5, 94952, Note_on_c, 3, 59, 0
5, 94960, Note_on_c, 3, 60, 100
5, 95032, Note_on_c, 3, 60, 0
5, 95040, Note_on_c, 3, 55, 100
5, 95148, Note_on_c, 3, 55, 0
5, 95160, Note_on_c, 3, 67, 100
5, 95268, Note_on_c, 3, 67, 0
5, 95280, Note_on_c, 3, 62, 100
5, 95388, Note_on_c, 3, 62, 0
5, 95400, Note_on_c, 3, 59, 100
5, 95508, Note_on_c, 3, 59, 0
5, 95520, Note_on_c, 3, 55, 100
5, 95628, Note_on_c, 3, 55, 0
5, 95640, Note_on_c, 3, 67, 100
5, 95748, Note_on_c, 3, 67, 0
5, 95760, Note_on_c, 3, 64, 100
5, 95868, Note_on_c, 3, 64, 0
5, 95880, Note_on_c, 3, 67, 100
5, 95988, Note_on_c, 3, 67, 0
5, 96000, Note_on_c, 3, 55, 100
5, 96108, Note_on_c, 3, 55, 0
5, 96120, Note_on_c, 3, 67, 100
5, 96228, Note_on_c, 3, 67, 0
5, 96240, Note_on_c, 3, 62, 100
5, 96348, Note_on_c, 3, 62, 0
5, 96360, Note_on_c, 3, 59, 100
5, 96468, Note_on_c, 3, 59, 0
5, 96480, Note_on_c, 3, 55, 100
5, 96588, Note_on_c, 3, 55, 0
5, 96600, Note_on_c, 3, 67, 100
5, 96708, Note_on_c, 3, 67, 0
5, 96720, Note_on_c, 3, 64, 100
5, 96828, Note_on_c, 3, 64, 0
5, 96840, Note_on_c, 3, 67, 100
5, 96948, Note_on_c, 3, 67, 0
5, 96960, Note_on_c, 3, 55, 100
5, 97176, Note_on_c, 3, 55, 0
5, 97500, Note_on_c, 3, 59, 100
5, 97554, Note_on_c, 3, 59, 0
5, 97560, Note_on_c, 3, 60, 100
5, 97614, Note_on_c, 3, 60, 0
5, 97620, Note_on_c, 3, 62, 100
5, 97674, Note_on_c, 3, 62, 0
5, 97680, Note_on_c, 3, 64, 100
5, 97734, Note_on_c, 3, 64, 0
5, 97740, Note_on_c, 3, 62, 100
5, 97794, Note_on_c, 3, 62, 0
5, 97800, Note_on_c, 3, 60, 100
5, 97854, Note_on_c, 3, 60, 0
5, 97860, Note_on_c, 3, 59, 100
5, 97914, Note_on_c, 3, 59, 0
5, 97920, Note_on_c, 3, 57, 100
5, 98136, Note_on_c, 3, 57, 0
5, 98640, Note_on_c, 3, 59, 100
5, 98694, Note_on_c, 3, 59, 0
5, 98700, Note_on_c, 3, 57, 100
5, 98754, Note_on_c, 3, 57, 0
5, 98760, Note_on_c, 3, 55, 100
5, 98814, Note_on_c, 3, 55, 0
5, 98820, Note_on_c, 3, 54, 100
5, 98874, Note_on_c, 3, 54, 0
5, 98880, Note_on_c, 3, 43, 100
5, 98934, Note_on_c, 3, 43, 0
5, 98940, Note_on_c, 3, 55, 100
5, 98994, Note_on_c, 3, 55, 0
5, 99000, Note_on_c, 3, 54, 100
5, 99054, Note_on_c, 3, 54, 0
5, 99060, Note_on_c, 3, 55, 100
5, 99114, Note_on_c, 3, 55, 0
5, 99120, Note_on_c, 3, 45, 100
5, 99174, Note_on_c, 3, 45, 0
5, 99180, Note_on_c, 3, 55, 100
5, 99234, Note_on_c, 3, 55, 0
5, 99240, Note_on_c, 3, 54, 100
5, 99294, Note_on_c, 3, 54, 0
5, 99300, Note_on_c, 3, 55, 100
5, 99354, Note_on_c, 3, 55, 0
5, 99360, Note_on_c, 3, 47, 100
5, 99414, Note_on_c, 3, 47, 0
5, 99420, Note_on_c, 3, 55, 100
5, 99474, Note_on_c, 3, 55, 0
5, 99480, Note_on_c, 3, 54, 100
5, 99534, Note_on_c, 3, 54, 0
5, 99540, Note_on_c, 3, 55, 100
5, 99594, Note_on_c, 3, 55, 0
5, 99600, Note_on_c, 3, 48, 100
5, 99654, Note_on_c, 3, 48, 0
5, 99660, Note_on_c, 3, 55, 100
5, 99714, Note_on_c, 3, 55, 0
5, 99720, Note_on_c, 3, 54, 100
5, 99774, Note_on_c, 3, 54, 0
5, 99780, Note_on_c, 3, 55, 100
5, 99834, Note_on_c, 3, 55, 0
5, 99840, Note_on_c, 3, 50, 100
5, 99894, Note_on_c, 3, 50, 0
5, 99900, Note_on_c, 3, 55, 100
5, 99954, Note_on_c, 3, 55, 0
5, 99960, Note_on_c, 3, 54, 100
5, 100014, Note_on_c, 3, 54, 0
5, 100020, Note_on_c, 3, 55, 100
5, 100074, Note_on_c, 3, 55, 0
5, 100080, Note_on_c, 3, 47, 100
5, 100134, Note_on_c, 3, 47, 0
5, 100140, Note_on_c, 3, 55, 100
5, 100194, Note_on_c, 3, 55, 0
5, 100200, Note_on_c, 3, 54, 100
5, 100254, Note_on_c, 3, 54, 0
5, 100260, Note_on_c, 3, 55, 100
5, 100314, Note_on_c, 3, 55, 0
5, 100320, Note_on_c, 3, 48, 100
5, 100374, Note_on_c, 3, 48, 0
5, 100380, Note_on_c, 3, 55, 100
5, 100434, Note_on_c, 3, 55, 0
5, 100440, Note_on_c, 3, 54, 100
5, 100494, Note_on_c, 3, 54, 0
5, 100500, Note_on_c, 3, 55, 100
5, 100554, Note_on_c, 3, 55, 0
5, 100560, Note_on_c, 3, 50, 100
5, 100614, Note_on_c, 3, 50, 0
5, 100620, Note_on_c, 3, 55, 100
5, 100674, Note_on_c, 3, 55, 0
5, 100680, Note_on_c, 3, 54, 100
5, 100734, Note_on_c, 3, 54, 0
5, 100740, Note_on_c, 3, 55, 100
5, 100794, Note_on_c, 3, 55, 0
5, 100800, Note_on_c, 3, 48, 100
5, 101016, Note_on_c, 3, 48, 0
5, 101340, Note_on_c, 3, 52, 100
5, 101394, Note_on_c, 3, 52, 0
5, 101400, Note_on_c, 3, 53, 100
5, 101454, Note_on_c, 3, 53, 0
5, 101460, Note_on_c, 3, 55, 100
5, 101514, Note_on_c, 3, 55, 0
5, 101520, Note_on_c, 3, 57, 100
5, 101574, Note_on_c, 3, 57, 0
5, 101580, Note_on_c, 3, 55, 100
5, 101634, Note_on_c, 3, 55, 0
5, 101640, Note_on_c, 3, 53, 100
5, 101694, Note_on_c, 3, 53, 0
5, 101700, Note_on_c, 3, 52, 100
5, 101754, Note_on_c, 3, 52, 0
5, 101760, Note_on_c, 3, 50, 100
5, 101976, Note_on_c, 3, 50, 0
5, 102720, Note_on_c, 3, 36, 100
5, 102774, Note_on_c, 3, 36, 0
5, 102780, Note_on_c, 3, 48, 100
5, 102834, Note_on_c, 3, 48, 0
5, 102840, Note_on_c, 3, 47, 100
5, 102894, Note_on_c, 3, 47, 0
5, 102900, Note_on_c, 3, 48, 100
5, 102954, Note_on_c, 3, 48, 0
5, 102960, Note_on_c, 3, 38, 100
5, 103014, Note_on_c, 3, 38, 0
5, 103020, Note_on_c, 3, 48, 100
5, 103074, Note_on_c, 3, 48, 0
5, 103080, Note_on_c, 3, 47, 100
5, 103134, Note_on_c, 3, 47, 0
5, 103140, Note_on_c, 3, 48, 100
5, 103194, Note_on_c, 3, 48, 0
5, 103200, Note_on_c, 3, 40, 100
5, 103254, Note_on_c, 3, 40, 0
5, 103260, Note_on_c, 3, 48, 100
5, 103314, Note_on_c, 3, 48, 0
5, 103320, Note_on_c, 3, 47, 100
5, 103374, Note_on_c, 3, 47, 0
5, 103380, Note_on_c, 3, 48, 100
5, 103434, Note_on_c, 3, 48, 0
5, 103440, Note_on_c, 3, 41, 100
5, 103494, Note_on_c, 3, 41, 0
5, 103500, Note_on_c, 3, 48, 100
5, 103554, Note_on_c, 3, 48, 0
5, 103560, Note_on_c, 3, 47, 100
5, 103614, Note_on_c, 3, 47, 0
5, 103620, Note_on_c, 3, 48, 100
5, 103674, Note_on_c, 3, 48, 0
5, 103680, Note_on_c, 3, 43, 100
5, 103734, Note_on_c, 3, 43, 0
5, 103740, Note_on_c, 3, 48, 100
5, 103794, Note_on_c, 3, 48, 0
5, 103800, Note_on_c, 3, 47, 100
5, 103854, Note_on_c, 3, 47, 0
5, 103860, Note_on_c, 3, 48, 100
5, 103914, Note_on_c, 3, 48, 0
5, 103920, Note_on_c, 3, 40, 100
5, 103974, Note_on_c, 3, 40, 0
5, 103980, Note_on_c, 3, 48, 100
5, 104034, Note_on_c, 3, 48, 0
5, 104040, Note_on_c, 3, 47, 100
5, 104094, Note_on_c, 3, 47, 0
5, 104100, Note_on_c, 3, 48, 100
5, 104154, Note_on_c, 3, 48, 0
5, 104160, Note_on_c, 3, 45, 100
5, 104214, Note_on_c, 3, 45, 0
5, 104220, Note_on_c, 3, 48, 100
5, 104274, Note_on_c, 3, 48, 0
5, 104280, Note_on_c, 3, 47, 100
5, 104334, Note_on_c, 3, 47, 0
5, 104340, Note_on_c, 3, 48, 100
5, 104394, Note_on_c, 3, 48, 0
5, 104400, Note_on_c, 3, 43, 100
5, 104454, Note_on_c, 3, 43, 0
5, 104460, Note_on_c, 3, 48, 100
5, 104514, Note_on_c, 3, 48, 0
5, 104520, Note_on_c, 3, 47, 100
5, 104574, Note_on_c, 3, 47, 0
5, 104580, Note_on_c, 3, 48, 100
5, 104634, Note_on_c, 3, 48, 0
5, 104640, Note_on_c, 3, 41, 100
5, 104748, Note_on_c, 3, 41, 0
5, 104940, Note_on_c, 3, 52, 100
5, 104994, Note_on_c, 3, 52, 0
5, 105000, Note_on_c, 3, 53, 100
5, 105054, Note_on_c, 3, 53, 0
5, 105060, Note_on_c, 3, 55, 100
5, 105114, Note_on_c, 3, 55, 0
5, 105120, Note_on_c, 3, 57, 100
5, 105228, Note_on_c, 3, 57, 0
5, 105240, Note_on_c, 3, 55, 100
5, 105348, Note_on_c, 3, 55, 0
5, 105360, Note_on_c, 3, 57, 100
5, 105468, Note_on_c, 3, 57, 0
5, 105480, Note_on_c, 3, 59, 100
5, 105588, Note_on_c, 3, 59, 0
5, 105600, Note_on_c, 3, 60, 100
5, 105708, Note_on_c, 3, 60, 0
5, 105720, Note_on_c, 3, 59, 100
5, 105828, Note_on_c, 3, 59, 0
5, 105840, Note_on_c, 3, 60, 100
5, 105948, Note_on_c, 3, 60, 0
5, 105960, Note_on_c, 3, 62, 100
5, 106068, Note_on_c, 3, 62, 0
5, 106080, Note_on_c, 3, 64, 100
5, 106188, Note_on_c, 3, 64, 0
5, 106200, Note_on_c, 3, 62, 100
5, 106308, Note_on_c, 3, 62, 0
5, 106320, Note_on_c, 3, 64, 100
5, 106428, Note_on_c, 3, 64, 0
5, 106440, Note_on_c, 3, 65, 100
5, 106548, Note_on_c, 3, 65, 0
5, 106560, Note_on_c, 3, 55, 100
5, 106668, Note_on_c, 3, 55, 0
5, 106680, Note_on_c, 3, 54, 100
5, 106788, Note_on_c, 3, 54, 0
5, 106800, Note_on_c, 3, 55, 100
5, 106908, Note_on_c, 3, 55, 0
5, 106920, Note_on_c, 3, 57, 100
5, 107028, Note_on_c, 3, 57, 0
5, 107040, Note_on_c, 3, 59, 100
5, 107148, Note_on_c, 3, 59, 0
5, 107160, Note_on_c, 3, 57, 100
5, 107268, Note_on_c, 3, 57, 0
5, 107280, Note_on_c, 3, 59, 100
5, 107388, Note_on_c, 3, 59, 0
5, 107400, Note_on_c, 3, 60, 100
5, 107508, Note_on_c, 3, 60, 0
5, 107520, Note_on_c, 3, 62, 100
5, 107628, Note_on_c, 3, 62, 0
5, 107640, Note_on_c, 3, 61, 100
5, 107748, Note_on_c, 3, 61, 0
5, 107760, Note_on_c, 3, 62, 100
5, 107868, Note_on_c, 3, 62, 0
5, 107880, Note_on_c, 3, 64, 100
5, 107988, Note_on_c, 3, 64, 0
5, 108000, Note_on_c, 3, 65, 100
5, 108108, Note_on_c, 3, 65, 0
5, 108120, Note_on_c, 3, 64, 100
5, 108228, Note_on_c, 3, 64, 0
5, 108240, Note_on_c, 3, 65, 100
5, 108348, Note_on_c, 3, 65, 0
5, 108360, Note_on_c, 3, 67, 100
5, 108468, Note_on_c, 3, 67, 0
5, 108480, Note_on_c, 3, 57, 100
5, 108588, Note_on_c, 3, 57, 0
5, 108600, Note_on_c, 3, 56, 100
5, 108708, Note_on_c, 3, 56, 0
5, 108720, Note_on_c, 3, 57, 100
5, 108828, Note_on_c, 3, 57, 0
5, 108840, Note_on_c, 3, 59, 100
5, 108948, Note_on_c, 3, 59, 0
5, 108960, Note_on_c, 3, 60, 100
5, 109068, Note_on_c, 3, 60, 0
5, 109080, Note_on_c, 3, 59, 100
5, 109188, Note_on_c, 3, 59, 0
5, 109200, Note_on_c, 3, 60, 100
5, 109308, Note_on_c, 3, 60, 0
5, 109320, Note_on_c, 3, 57, 100
5, 109428, Note_on_c, 3, 57, 0
5, 109440, Note_on_c, 3, 62, 100
5, 109548, Note_on_c, 3, 62, 0
5, 109560, Note_on_c, 3, 64, 100
5, 109668, Note_on_c, 3, 64, 0
5, 109680, Note_on_c, 3, 65, 100
5, 109788, Note_on_c, 3, 65, 0
5, 109800, Note_on_c, 3, 62, 100
5, 109908, Note_on_c, 3, 62, 0
5, 109920, Note_on_c, 3, 64, 100
5, 110028, Note_on_c, 3, 64, 0
5, 110040, Note_on_c, 3, 60, 100
5, 110148, Note_on_c, 3, 60, 0
5, 110160, Note_on_c, 3, 62, 100
5, 110268, Note_on_c, 3, 62, 0
5, 110280, Note_on_c, 3, 64, 100
5, 110388, Note_on_c, 3, 64, 0
5, 110400, Note_on_c, 3, 65, 100
5, 110508, Note_on_c, 3, 65, 0
5, 110520, Note_on_c, 3, 67, 100
5, 110628, Note_on_c, 3, 67, 0
5, 110640, Note_on_c, 3, 65, 100
5, 110748, Note_on_c, 3, 65, 0
5, 110760, Note_on_c, 3, 64, 100
5, 110868, Note_on_c, 3, 64, 0
5, 110880, Note_on_c, 3, 62, 100
5, 110988, Note_on_c, 3, 62, 0
5, 111000, Note_on_c, 3, 60, 100
5, 111108, Note_on_c, 3, 60, 0
5, 111120, Note_on_c, 3, 59, 100
5, 111228, Note_on_c, 3, 59, 0
5, 111240, Note_on_c, 3, 57, 100
5, 111348, Note_on_c, 3, 57, 0
5, 111360, Note_on_c, 3, 59, 100
5, 111468, Note_on_c, 3, 59, 0
5, 111480, Note_on_c, 3, 55, 100
5, 111588, Note_on_c, 3, 55, 0
5, 111600, Note_on_c, 3, 57, 100
5, 111708, Note_on_c, 3, 57, 0
5, 111720, Note_on_c, 3, 59, 100
5, 111828, Note_on_c, 3, 59, 0
5, 111840, Note_on_c, 3, 60, 100
5, 111948, Note_on_c, 3, 60, 0
5, 111960, Note_on_c, 3, 57, 100
5, 112068, Note_on_c, 3, 57, 0
5, 112080, Note_on_c, 3, 59, 100
5, 112188, Note_on_c, 3, 59, 0
5, 112200, Note_on_c, 3, 60, 100
5, 112308, Note_on_c, 3, 60, 0
5, 112320, Note_on_c, 3, 62, 100
5, 112428, Note_on_c, 3, 62, 0
5, 112440, Note_on_c, 3, 64, 100
5, 112548, Note_on_c, 3, 64, 0
5, 112560, Note_on_c, 3, 62, 100
5, 112668, Note_on_c, 3, 62, 0
5, 112680, Note_on_c, 3, 60, 100
5, 112788, Note_on_c, 3, 60, 0
5, 112800, Note_on_c, 3, 59, 100
5, 112908, Note_on_c, 3, 59, 0
5, 112920, Note_on_c, 3, 62, 100
5, 113028, Note_on_c, 3, 62, 0
5, 113040, Note_on_c, 3, 67, 100
5, 113148, Note_on_c, 3, 67, 0
5, 113160, Note_on_c, 3, 65, 100
5, 113268, Note_on_c, 3, 65, 0
5, 113280, Note_on_c, 3, 64, 100
5, 113388, Note_on_c, 3, 64, 0
5, 113400, Note_on_c, 3, 65, 100
5, 113508, Note_on_c, 3, 65, 0
5, 113520, Note_on_c, 3, 64, 100
5, 113628, Note_on_c, 3, 64, 0
5, 113640, Note_on_c, 3, 62, 100
5, 113748, Note_on_c, 3, 62, 0
5, 113760, Note_on_c, 3, 60, 100
5, 113868, Note_on_c, 3, 60, 0
5, 113880, Note_on_c, 3, 64, 100
5, 113988, Note_on_c, 3, 64, 0
5, 114000, Note_on_c, 3, 69, 100
5, 114108, Note_on_c, 3, 69, 0
5, 114120, Note_on_c, 3, 67, 100
5, 114228, Note_on_c, 3, 67, 0
5, 114240, Note_on_c, 3, 65, 100
5, 114348, Note_on_c, 3, 65, 0
5, 114360, Note_on_c, 3, 67, 100
5, 114468, Note_on_c, 3, 67, 0
5, 114480, Note_on_c, 3, 65, 100
5, 114588, Note_on_c, 3, 65, 0
5, 114600, Note_on_c, 3, 64, 100
5, 114708, Note_on_c, 3, 64, 0
5, 114720, Note_on_c, 3, 62, 100
5, 114828, Note_on_c, 3, 62, 0
5, 114840, Note_on_c, 3, 64, 100
5, 114948, Note_on_c, 3, 64, 0
5, 114960, Note_on_c, 3, 65, 100
5, 115068, Note_on_c, 3, 65, 0
5, 115080, Note_on_c, 3, 62, 100
5, 115188, Note_on_c, 3, 62, 0
5, 115200, Note_on_c, 3, 67, 100
5, 115308, Note_on_c, 3, 67, 0
5, 115320, Note_on_c, 3, 62, 100
5, 115428, Note_on_c, 3, 62, 0
5, 115440, Note_on_c, 3, 59, 100
5, 115548, Note_on_c, 3, 59, 0
5, 115560, Note_on_c, 3, 55, 100
5, 115668, Note_on_c, 3, 55, 0
5, 115680, Note_on_c, 3, 60, 100
5, 115788, Note_on_c, 3, 60, 0
5, 115800, Note_on_c, 3, 62, 100
5, 115908, Note_on_c, 3, 62, 0
5, 115920, Note_on_c, 3, 64, 100
5, 116028, Note_on_c, 3, 64, 0
5, 116040, Note_on_c, 3, 54, 100
5, 116148, Note_on_c, 3, 54, 0
5, 116160, Note_on_c, 3, 55, 100
5, 116268, Note_on_c, 3, 55, 0
5, 116280, Note_on_c, 3, 57, 100
5, 116388, Note_on_c, 3, 57, 0
5, 116400, Note_on_c, 3, 59, 100
5, 116508, Note_on_c, 3, 59, 0
5, 116520, Note_on_c, 3, 55, 100
5, 116628, Note_on_c, 3, 55, 0
5, 116640, Note_on_c, 3, 52, 100
5, 116748, Note_on_c, 3, 52, 0
5, 116760, Note_on_c, 3, 57, 100
5, 116868, Note_on_c, 3, 57, 0
5, 116880, Note_on_c, 3, 54, 100
5, 116988, Note_on_c, 3, 54, 0
5, 117000, Note_on_c, 3, 50, 100
5, 117108, Note_on_c, 3, 50, 0
5, 117120, Note_on_c, 3, 55, 100
5, 117228, Note_on_c, 3, 55, 0
5, 117240, Note_on_c, 3, 53, 100
5, 117348, Note_on_c, 3, 53, 0
5, 117360, Note_on_c, 3, 52, 100
5, 117468, Note_on_c, 3, 52, 0
5, 117480, Note_on_c, 3, 50, 100
5, 117588, Note_on_c, 3, 50, 0
5, 117600, Note_on_c, 3, 48, 100
5, 117708, Note_on_c, 3, 48, 0
5, 117720, Note_on_c, 3, 52, 100
5, 117828, Note_on_c, 3, 52, 0
5, 117840, Note_on_c, 3, 50, 100
5, 117948, Note_on_c, 3, 50, 0
5, 117960, Note_on_c, 3, 48, 100
5, 118068, Note_on_c, 3, 48, 0
5, 118080, Note_on_c, 3, 47, 100
5, 118188, Note_on_c, 3, 47, 0
5, 118200, Note_on_c, 3, 50, 100
5, 118308, Note_on_c, 3, 50, 0
5, 118320, Note_on_c, 3, 48, 100
5, 118428, Note_on_c, 3, 48, 0
5, 118440, Note_on_c, 3, 47, 100
5, 118548, Note_on_c, 3, 47, 0
5, 118560, Note_on_c, 3, 45, 100
5, 118668, Note_on_c, 3, 45, 0
5, 118680, Note_on_c, 3, 48, 100
5, 118788, Note_on_c, 3, 48, 0
5, 118800, Note_on_c, 3, 47, 100
5, 118908, Note_on_c, 3, 47, 0
5, 118920, Note_on_c, 3, 50, 100
5, 119028, Note_on_c, 3, 50, 0
5, 119040, Note_on_c, 3, 48, 100
5, 119148, Note_on_c, 3, 48, 0
5, 119160, Note_on_c, 3, 50, 100
5, 119268, Note_on_c, 3, 50, 0
5, 119280, Note_on_c, 3, 52, 100
5, 119388, Note_on_c, 3, 52, 0
5, 119400, Note_on_c, 3, 53, 100
5, 119508, Note_on_c, 3, 53, 0
5, 119520, Note_on_c, 3, 52, 100
5, 119574, Note_on_c, 3, 52, 0
5, 119580, Note_on_c, 3, 55, 100
5, 119634, Note_on_c, 3, 55, 0
5, 119640, Note_on_c, 3, 54, 100
5, 119694, Note_on_c, 3, 54, 0
5, 119700, Note_on_c, 3, 52, 100
5, 119754, Note_on_c, 3, 52, 0
5, 119760, Note_on_c, 3, 50, 100
5, 119814, Note_on_c, 3, 50, 0
5, 119820, Note_on_c, 3, 48, 100
5, 119874, Note_on_c, 3, 48, 0
5, 119880, Note_on_c, 3, 47, 100
5, 119934, Note_on_c, 3, 47, 0
5, 119940, Note_on_c, 3, 45, 100
5, 119994, Note_on_c, 3, 45, 0
5, 120000, Note_on_c, 3, 43, 100
5, 120216, Note_on_c, 3, 43, 0
5, 120600, Note_on_c, 3, 58, 100
5, 120708, Note_on_c, 3, 58, 0
5, 120720, Note_on_c, 3, 60, 100
5, 120828, Note_on_c, 3, 60, 0
5, 120840, Note_on_c, 3, 62, 100
5, 120948, Note_on_c, 3, 62, 0
5, 120960, Note_on_c, 3, 60, 100
5, 121176, Note_on_c, 3, 60, 0
5, 121200, Note_on_c, 3, 65, 100
5, 121416, Note_on_c, 3, 65, 0
5, 121440, Note_on_c, 3, 60, 100
5, 121764, Note_on_c, 3, 60, 0
5, 121800, Note_on_c, 3, 58, 100
5, 121908, Note_on_c, 3, 58, 0
5, 121920, Note_on_c, 3, 57, 100
5, 122028, Note_on_c, 3, 57, 0
5, 122040, Note_on_c, 3, 57, 100
5, 122148, Note_on_c, 3, 57, 0
5, 122160, Note_on_c, 3, 59, 100
5, 122268, Note_on_c, 3, 59, 0
5, 122280, Note_on_c, 3, 60, 100
5, 122388, Note_on_c, 3, 60, 0
5, 122400, Note_on_c, 3, 62, 100
5, 123096, Note_on_c, 3, 62, 0
5, 123120, Note_on_c, 3, 55, 100
5, 123336, Note_on_c, 3, 55, 0
5, 123360, Note_on_c, 3, 67, 100
5, 123948, Note_on_c, 3, 67, 0
5, 123960, Note_on_c, 3, 53, 100
5, 124068, Note_on_c, 3, 53, 0
5, 124080, Note_on_c, 3, 52, 100
5, 124188, Note_on_c, 3, 52, 0
5, 124200, Note_on_c, 3, 50, 100
5, 124308, Note_on_c, 3, 50, 0
5, 124320, Note_on_c, 3, 48, 100
5, 124428, Note_on_c, 3, 48, 0
5, 124440, Note_on_c, 3, 60, 100
5, 124548, Note_on_c, 3, 60, 0
5, 124560, Note_on_c, 3, 62, 100
5, 124668, Note_on_c, 3, 62, 0
5, 124680, Note_on_c, 3, 64, 100
5, 124788, Note_on_c, 3, 64, 0
5, 124800, Note_on_c, 3, 66, 100
5, 124908, Note_on_c, 3, 66, 0
5, 124920, Note_on_c, 3, 62, 100
5, 125028, Note_on_c, 3, 62, 0
5, 125040, Note_on_c, 3, 59, 100
5, 125148, Note_on_c, 3, 59, 0
5, 125160, Note_on_c, 3, 55, 100
5, 125268, Note_on_c, 3, 55, 0
5, 125280, Note_on_c, 3, 57, 100
5, 125388, Note_on_c, 3, 57, 0
5, 125400, Note_on_c, 3, 62, 100
5, 125508, Note_on_c, 3, 62, 0
5, 125520, Note_on_c, 3, 60, 100
5, 125628, Note_on_c, 3, 60, 0
5, 125640, Note_on_c, 3, 62, 100
5, 125748, Note_on_c, 3, 62, 0
5, 125760, Note_on_c, 3, 55, 100
5, 125976, Note_on_c, 3, 55, 0
5, 126000, Note_on_c, 3, 43, 100
5, 126108, Note_on_c, 3, 43, 0
5, 126120, Note_on_c, 3, 42, 100
5, 126228, Note_on_c, 3, 42, 0
5, 126240, Note_on_c, 3, 43, 100
5, 126348, Note_on_c, 3, 43, 0
5, 126360, Note_on_c, 3, 45, 100
5, 126468, Note_on_c, 3, 45, 0
5, 126480, Note_on_c, 3, 47, 100
5, 126588, Note_on_c, 3, 47, 0
5, 126600, Note_on_c, 3, 48, 100
5, 126708, Note_on_c, 3, 48, 0
5, 126720, Note_on_c, 3, 50, 100
5, 126828, Note_on_c, 3, 50, 0
5, 126840, Note_on_c, 3, 49, 100
5, 126948, Note_on_c, 3, 49, 0
5, 126960, Note_on_c, 3, 50, 100
5, 127068, Note_on_c, 3, 50, 0
5, 127080, Note_on_c, 3, 52, 100
5, 127188, Note_on_c, 3, 52, 0
5, 127200, Note_on_c, 3, 54, 100
5, 127308, Note_on_c, 3, 54, 0
5, 127320, Note_on_c, 3, 52, 100
5, 127428, Note_on_c, 3, 52, 0
5, 127440, Note_on_c, 3, 54, 100
5, 127548, Note_on_c, 3, 54, 0
5, 127560, Note_on_c, 3, 50, 100
5, 127668, Note_on_c, 3, 50, 0
5, 127680, Note_on_c, 3, 55, 100
5, 127788, Note_on_c, 3, 55, 0
5, 127800, Note_on_c, 3, 54, 100
5, 127908, Note_on_c, 3, 54, 0
5, 127920, Note_on_c, 3, 55, 100
5, 128028, Note_on_c, 3, 55, 0
5, 128040, Note_on_c, 3, 57, 100
5, 128148, Note_on_c, 3, 57, 0
5, 128160, Note_on_c, 3, 55, 100
5, 128268, Note_on_c, 3, 55, 0
5, 128280, Note_on_c, 3, 59, 100
5, 128388, Note_on_c, 3, 59, 0
5, 128400, Note_on_c, 3, 57, 100
5, 128508, Note_on_c, 3, 57, 0
5, 128520, Note_on_c, 3, 55, 100
5, 128628, Note_on_c, 3, 55, 0
5, 128640, Note_on_c, 3, 54, 100
5, 128748, Note_on_c, 3, 54, 0
5, 128760, Note_on_c, 3, 57, 100
5, 128868, Note_on_c, 3, 57, 0
5, 128880, Note_on_c, 3, 50, 100
5, 128988, Note_on_c, 3, 50, 0
5, 129000, Note_on_c, 3, 54, 100
5, 129108, Note_on_c, 3, 54, 0
5, 129120, Note_on_c, 3, 55, 100
5, 129228, Note_on_c, 3, 55, 0
5, 129240, Note_on_c, 3, 59, 100
5, 129348, Note_on_c, 3, 59, 0
5, 129360, Note_on_c, 3, 50, 100
5, 129468, Note_on_c, 3, 50, 0
5, 129480, Note_on_c, 3, 54, 100
5, 129588, Note_on_c, 3, 54, 0
5, 129600, Note_on_c, 3, 52, 100
5, 129708, Note_on_c, 3, 52, 0
5, 129720, Note_on_c, 3, 55, 100
5, 129828, Note_on_c, 3, 55, 0
5, 129840, Note_on_c, 3, 48, 100
5, 129948, Note_on_c, 3, 48, 0
5, 129960, Note_on_c, 3, 52, 100
5, 130068, Note_on_c, 3, 52, 0
5, 130080, Note_on_c, 3, 54, 100
5, 130188, Note_on_c, 3, 54, 0
5, 130200, Note_on_c, 3, 57, 100
5, 130308, Note_on_c, 3, 57, 0
5, 130320, Note_on_c, 3, 48, 100
5, 130428, Note_on_c, 3, 48, 0
5, 130440, Note_on_c, 3, 52, 100
5, 130548, Note_on_c, 3, 52, 0
5, 130560, Note_on_c, 3, 50, 100
5, 130668, Note_on_c, 3, 50, 0
5, 130680, Note_on_c, 3, 54, 100
5, 130788, Note_on_c, 3, 54, 0
5, 130800, Note_on_c, 3, 47, 100
5, 130908, Note_on_c, 3, 47, 0
5, 130920, Note_on_c, 3, 50, 100
5, 131028, Note_on_c, 3, 50, 0
5, 131040, Note_on_c, 3, 52, 100
5, 131148, Note_on_c, 3, 52, 0
5, 131160, Note_on_c, 3, 55, 100
5, 131268, Note_on_c, 3, 55, 0
5, 131280, Note_on_c, 3, 47, 100
5, 131388, Note_on_c, 3, 47, 0
5, 131400, Note_on_c, 3, 50, 100
5, 131508, Note_on_c, 3, 50, 0
5, 131520, Note_on_c, 3, 48, 100
5, 131628, Note_on_c, 3, 48, 0
5, 131640, Note_on_c, 3, 52, 100
5, 131748, Note_on_c, 3, 52, 0
5, 131760, Note_on_c, 3, 45, 100
5, 131868, Note_on_c, 3, 45, 0
5, 131880, Note_on_c, 3, 48, 100
5, 131988, Note_on_c, 3, 48, 0
5, 132000, Note_on_c, 3, 50, 100
5, 132108, Note_on_c, 3, 50, 0
5, 132120, Note_on_c, 3, 54, 100
5, 132228, Note_on_c, 3, 54, 0
5, 132240, Note_on_c, 3, 45, 100
5, 132348, Note_on_c, 3, 45, 0
5, 132360, Note_on_c, 3, 48, 100
5, 132468, Note_on_c, 3, 48, 0
5, 132480, Note_on_c, 3, 47, 100
5, 132588, Note_on_c, 3, 47, 0
5, 132600, Note_on_c, 3, 50, 100
5, 132708, Note_on_c, 3, 50, 0
5, 132720, Note_on_c, 3, 43, 100
5, 132828, Note_on_c, 3, 43, 0
5, 132840, Note_on_c, 3, 47, 100
5, 132948, Note_on_c, 3, 47, 0
5, 132960, Note_on_c, 3, 48, 100
5, 133068, Note_on_c, 3, 48, 0
5, 133080, Note_on_c, 3, 52, 100
5, 133188, Note_on_c, 3, 52, 0
5, 133200, Note_on_c, 3, 43, 100
5, 133308, Note_on_c, 3, 43, 0
5, 133320, Note_on_c, 3, 48, 100
5, 133428, Note_on_c, 3, 48, 0
5, 133440, Note_on_c, 3, 47, 100
5, 133548, Note_on_c, 3, 47, 0
5, 133560, Note_on_c, 3, 50, 100
5, 133668, Note_on_c, 3, 50, 0
5, 133680, Note_on_c, 3, 43, 100
5, 133788, Note_on_c, 3, 43, 0
5, 133800, Note_on_c, 3, 47, 100
5, 133908, Note_on_c, 3, 47, 0
5, 133920, Note_on_c, 3, 48, 100
5, 134028, Note_on_c, 3, 48, 0
5, 134040, Note_on_c, 3, 52, 100
5, 134148, Note_on_c, 3, 52, 0
5, 134160, Note_on_c, 3, 43, 100
5, 134268, Note_on_c, 3, 43, 0
5, 134280, Note_on_c, 3, 48, 100
5, 134388, Note_on_c, 3, 48, 0
5, 134400, Note_on_c, 3, 47, 100
5, 134616, Note_on_c, 3, 47, 0
5, 167040, Note_on_c, 3, 60, 100
5, 167904, Note_on_c, 3, 60, 0
5, 168000, Note_on_c, 3, 59, 100
5, 168864, Note_on_c, 3, 59, 0
5, 168960, Note_on_c, 3, 57, 100
5, 169824, Note_on_c, 3, 57, 0
5, 169920, Note_on_c, 3, 55, 100
5, 170028, Note_on_c, 3, 55, 0
5, 170040, Note_on_c, 3, 50, 100
5, 170148, Note_on_c, 3, 50, 0
5, 170160, Note_on_c, 3, 52, 100
5, 170268, Note_on_c, 3, 52, 0
5, 170280, Note_on_c, 3, 53, 100
5, 170388, Note_on_c, 3, 53, 0
5, 170400, Note_on_c, 3, 55, 100
5, 170508, Note_on_c, 3, 55, 0
5, 170520, Note_on_c, 3, 60, 100
5, 170628, Note_on_c, 3, 60, 0
5, 170640, Note_on_c, 3, 52, 100
5, 170748, Note_on_c, 3, 52, 0
5, 170760, Note_on_c, 3, 55, 100
5, 170868, Note_on_c, 3, 55, 0
5, 170880, Note_on_c, 3, 53, 100
5, 171468, Note_on_c, 3, 53, 0
5, 171480, Note_on_c, 3, 59, 100
5, 171588, Note_on_c, 3, 59, 0
5, 171600, Note_on_c, 3, 50, 100
5, 171708, Note_on_c, 3, 50, 0
5, 171720, Note_on_c, 3, 53, 100
5, 171828, Note_on_c, 3, 53, 0
5, 171840, Note_on_c, 3, 52, 100
5, 172428, Note_on_c, 3, 52, 0
5, 172440, Note_on_c, 3, 57, 100
5, 172548, Note_on_c, 3, 57, 0
5, 172560, Note_on_c, 3, 48, 100
5, 172668, Note_on_c, 3, 48, 0
5, 172680, Note_on_c, 3, 52, 100
5, 172788, Note_on_c, 3, 52, 0
5, 172800, Note_on_c, 3, 50, 100
5, 173388, Note_on_c, 3, 50, 0
5, 173400, Note_on_c, 3, 55, 100
5, 173508, Note_on_c, 3, 55, 0
5, 173520, Note_on_c, 3, 47, 100
5, 173628, Note_on_c, 3, 47, 0
5, 173640, Note_on_c, 3, 50, 100
5, 173748, Note_on_c, 3, 50, 0
5, 173760, Note_on_c, 3, 48, 100
5, 173976, Note_on_c, 3, 48, 0
5, 174000, Note_on_c, 3, 48, 100
5, 174216, Note_on_c, 3, 48, 0
5, 174240, Note_on_c, 3, 48, 100
5, 174456, Note_on_c, 3, 48, 0
5, 174480, Note_on_c, 3, 36, 100
5, 174696, Note_on_c, 3, 36, 0
5, 174960, Note_on_c, 3, 48, 100
5, 175176, Note_on_c, 3, 48, 0
5, 175200, Note_on_c, 3, 48, 100
5, 175416, Note_on_c, 3, 48, 0
5, 175440, Note_on_c, 3, 36, 100
5, 175656, Note_on_c, 3, 36, 0
5, 175680, Note_on_c, 3, 48, 100
5, 175896, Note_on_c, 3, 48, 0
5, 176400, Note_on_c, 3, 50, 100
5, 176616, Note_on_c, 3, 50, 0
5, 176640, Note_on_c, 3, 52, 100
5, 176856, Note_on_c, 3, 52, 0
5, 176880, Note_on_c, 3, 53, 100
5, 177096, Note_on_c, 3, 53, 0
5, 177120, Note_on_c, 3, 55, 100
5, 177336, Note_on_c, 3, 55, 0
5, 177360, Note_on_c, 3, 43, 100
5, 177468, Note_on_c, 3, 43, 0
5, 177480, Note_on_c, 3, 50, 100
5, 177588, Note_on_c, 3, 50, 0
5, 177600, Note_on_c, 3, 52, 100
5, 177708, Note_on_c, 3, 52, 0
5, 177720, Note_on_c, 3, 55, 100
5, 177828, Note_on_c, 3, 55, 0
5, 177840, Note_on_c, 3, 48, 100
5, 177948, Note_on_c, 3, 48, 0
5, 177960, Note_on_c, 3, 52, 100
5, 178068, Note_on_c, 3, 52, 0
5, 178080, Note_on_c, 3, 53, 100
5, 178188, Note_on_c, 3, 53, 0
5, 178200, Note_on_c, 3, 57, 100
5, 178308, Note_on_c, 3, 57, 0
5, 178320, Note_on_c, 3, 48, 100
5, 178428, Note_on_c, 3, 48, 0
5, 178440, Note_on_c, 3, 53, 100
5, 178548, Note_on_c, 3, 53, 0
5, 178560, Note_on_c, 3, 52, 100
5, 178668, Note_on_c, 3, 52, 0
5, 178680, Note_on_c, 3, 55, 100
5, 178788, Note_on_c, 3, 55, 0
5, 178800, Note_on_c, 3, 48, 100
5, 178908, Note_on_c, 3, 48, 0
5, 178920, Note_on_c, 3, 52, 100
5, 179028, Note_on_c, 3, 52, 0
5, 179040, Note_on_c, 3, 53, 100
5, 179148, Note_on_c, 3, 53, 0
5, 179160, Note_on_c, 3, 57, 100
5, 179268, Note_on_c, 3, 57, 0
5, 179280, Note_on_c, 3, 48, 100
5, 179388, Note_on_c, 3, 48, 0
5, 179400, Note_on_c, 3, 53, 100
5, 179508, Note_on_c, 3, 53, 0
5, 179520, Note_on_c, 3, 52, 100
5, 179736, Note_on_c, 3, 52, 0
5, 180720, Note_on_c, 3, 55, 100
5, 180792, Note_on_c, 3, 55, 0
5, 180800, Note_on_c, 3, 53, 100
5, 180872, Note_on_c, 3, 53, 0
5, 180880, Note_on_c, 3, 55, 100
5, 180952, Note_on_c, 3, 55, 0
5, 180960, Note_on_c, 3, 57, 100
5, 181032, Note_on_c, 3, 57, 0
5, 181040, Note_on_c, 3, 55, 100
5, 181112, Note_on_c, 3, 55, 0
5, 181120, Note_on_c, 3, 57, 100
5, 181192, Note_on_c, 3, 57, 0
5, 181200, Note_on_c, 3, 59, 100
5, 181272, Note_on_c, 3, 59, 0
5, 181280, Note_on_c, 3, 57, 100
5, 181352, Note_on_c, 3, 57, 0
5, 181360, Note_on_c, 3, 59, 100
5, 181432, Note_on_c, 3, 59, 0
5, 181440, Note_on_c, 3, 60, 100
5, 181656, Note_on_c, 3, 60, 0
5, 182640, Note_on_c, 3, 53, 100
5, 182856, Note_on_c, 3, 53, 0
5, 182880, Note_on_c, 3, 55, 100
5, 183096, Note_on_c, 3, 55, 0
5, 183120, Note_on_c, 3, 43, 100
5, 183336, Note_on_c, 3, 43, 0
5, 183360, Note_on_c, 3, 36, 100
5, 183360, Note_on_c, 3, 48, 100
5, 184224, Note_on_c, 3, 36, 0
5, 184224, Note_on_c, 3, 48, 0
5, 184224, End_track
6, 0, Start_track
6, 0, Sequence_number, 65535
6, 0, MIDI_port, 0
6, 0, Title_t, "Cembalo III"
6, 0, Control_c, 4, 0, 0
6, 0, Control_c, 4, 32, 0
6, 0, Program_c, 4, 6
6, 0, Control_c, 4, 7, 80
6, 0, Control_c, 4, 10, 79
6, 1200, Note_on_c, 4, 62, 100
6, 1416, Note_on_c, 4, 62, 0
6, 1440, Note_on_c, 4, 67, 100
6, 1656, Note_on_c, 4, 67, 0
6, 1680, Note_on_c, 4, 67, 100
6, 1896, Note_on_c, 4, 67, 0
6, 1920, Note_on_c, 4, 67, 100
6, 2136, Note_on_c, 4, 67, 0
6, 2160, Note_on_c, 4, 66, 100
6, 2268, Note_on_c, 4, 66, 0
6, 2280, Note_on_c, 4, 64, 100
6, 2388, Note_on_c, 4, 64, 0
6, 2400, Note_on_c, 4, 66, 100
6, 2508, Note_on_c, 4, 66, 0
6, 2520, Note_on_c, 4, 67, 100
6, 2628, Note_on_c, 4, 67, 0
6, 2640, Note_on_c, 4, 64, 100
6, 2748, Note_on_c, 4, 64, 0
6, 2760, Note_on_c, 4, 66, 100
6, 2868, Note_on_c, 4, 66, 0
6, 2880, Note_on_c, 4, 67, 100
6, 2988, Note_on_c, 4, 67, 0
6, 3000, Note_on_c, 4, 71, 100
6, 3108, Note_on_c, 4, 71, 0
6, 3120, Note_on_c, 4, 72, 100
6, 3228, Note_on_c, 4, 72, 0
6, 3240, Note_on_c, 4, 74, 100
6, 3348, Note_on_c, 4, 74, 0
6, 3360, Note_on_c, 4, 76, 100
6, 3576, Note_on_c, 4, 76, 0
6, 3600, Note_on_c, 4, 76, 100
6, 3816, Note_on_c, 4, 76, 0
6, 3840, Note_on_c, 4, 76, 100
6, 4056, Note_on_c, 4, 76, 0
6, 4080, Note_on_c, 4, 74, 100
6, 4188, Note_on_c, 4, 74, 0
6, 4200, Note_on_c, 4, 72, 100
6, 4308, Note_on_c, 4, 72, 0
6, 4320, Note_on_c, 4, 74, 100
6, 4536, Note_on_c, 4, 74, 0
6, 4560, Note_on_c, 4, 74, 100
6, 4776, Note_on_c, 4, 74, 0
6, 4800, Note_on_c, 4, 74, 100
6, 5016, Note_on_c, 4, 74, 0
6, 5040, Note_on_c, 4, 72, 100
6, 5148, Note_on_c, 4, 72, 0
6, 5160, Note_on_c, 4, 71, 100
6, 5268, Note_on_c, 4, 71, 0
6, 5280, Note_on_c, 4, 72, 100
6, 5976, Note_on_c, 4, 72, 0
6, 6000, Note_on_c, 4, 71, 100
6, 6108, Note_on_c, 4, 71, 0
6, 6120, Note_on_c, 4, 69, 100
6, 6228, Note_on_c, 4, 69, 0
6, 6240, Note_on_c, 4, 71, 100
6, 6348, Note_on_c, 4, 71, 0
6, 6360, Note_on_c, 4, 74, 100
6, 6468, Note_on_c, 4, 74, 0
6, 6480, Note_on_c, 4, 79, 100
6, 6828, Note_on_c, 4, 79, 0
6, 6840, Note_on_c, 4, 76, 100
6, 6948, Note_on_c, 4, 76, 0
6, 6960, Note_on_c, 4, 72, 100
6, 7068, Note_on_c, 4, 72, 0
6, 7080, Note_on_c, 4, 67, 100
6, 7188, Note_on_c, 4, 67, 0
6, 7200, Note_on_c, 4, 69, 100
6, 7308, Note_on_c, 4, 69, 0
6, 7320, Note_on_c, 4, 72, 100
6, 7428, Note_on_c, 4, 72, 0
6, 7440, Note_on_c, 4, 65, 100
6, 7548, Note_on_c, 4, 65, 0
6, 7560, Note_on_c, 4, 69, 100
6, 7668, Note_on_c, 4, 69, 0
6, 7680, Note_on_c, 4, 67, 100
6, 7788, Note_on_c, 4, 67, 0
6, 7800, Note_on_c, 4, 70, 100
6, 7908, Note_on_c, 4, 70, 0
6, 7920, Note_on_c, 4, 64, 100
6, 8028, Note_on_c, 4, 64, 0
6, 8040, Note_on_c, 4, 67, 100
6, 8148, Note_on_c, 4, 67, 0
6, 8160, Note_on_c, 4, 72, 100
6, 8268, Note_on_c, 4, 72, 0
6, 8280, Note_on_c, 4, 60, 100
6, 8388, Note_on_c, 4, 60, 0
6, 8400, Note_on_c, 4, 65, 100
6, 8508, Note_on_c, 4, 65, 0
6, 8520, Note_on_c, 4, 69, 100
6, 8628, Note_on_c, 4, 69, 0
6, 8640, Note_on_c, 4, 67, 100
6, 8856, Note_on_c, 4, 67, 0
6, 15840, Note_on_c, 4, 74, 100
6, 16428, Note_on_c, 4, 74, 0
6, 16440, Note_on_c, 4, 67, 100
6, 16548, Note_on_c, 4, 67, 0
6, 16560, Note_on_c, 4, 64, 100
6, 16668, Note_on_c, 4, 64, 0
6, 16680, Note_on_c, 4, 67, 100
6, 16788, Note_on_c, 4, 67, 0
6, 16800, Note_on_c, 4, 72, 100
6, 17388, Note_on_c, 4, 72, 0
6, 17400, Note_on_c, 4, 66, 100
6, 17508, Note_on_c, 4, 66, 0
6, 17520, Note_on_c, 4, 62, 100
6, 17628, Note_on_c, 4, 62, 0
6, 17640, Note_on_c, 4, 66, 100
6, 17748, Note_on_c, 4, 66, 0
6, 17760, Note_on_c, 4, 71, 100
6, 18348, Note_on_c, 4, 71, 0
6, 18360, Note_on_c, 4, 64, 100
6, 18468, Note_on_c, 4, 64, 0
6, 18480, Note_on_c, 4, 60, 100
6, 18588, Note_on_c, 4, 60, 0
6, 18600, Note_on_c, 4, 64, 100
6, 18708, Note_on_c, 4, 64, 0
6, 18720, Note_on_c, 4, 69, 100
6, 19308, Note_on_c, 4, 69, 0
6, 19320, Note_on_c, 4, 62, 100
6, 19428, Note_on_c, 4, 62, 0
6, 19440, Note_on_c, 4, 59, 100
6, 19548, Note_on_c, 4, 59, 0
6, 19560, Note_on_c, 4, 62, 100
6, 19668, Note_on_c, 4, 62, 0
6, 19680, Note_on_c, 4, 67, 100
6, 20268, Note_on_c, 4, 67, 0
6, 20280, Note_on_c, 4, 69, 100
6, 20388, Note_on_c, 4, 69, 0
6, 20400, Note_on_c, 4, 67, 100
6, 20508, Note_on_c, 4, 67, 0
6, 20520, Note_on_c, 4, 69, 100
6, 20628, Note_on_c, 4, 69, 0
6, 20640, Note_on_c, 4, 67, 100
6, 21336, Note_on_c, 4, 67, 0
6, 22200, Note_on_c, 4, 64, 100
6, 22308, Note_on_c, 4, 64, 0
6, 22320, Note_on_c, 4, 65, 100
6, 22428, Note_on_c, 4, 65, 0
6, 22440, Note_on_c, 4, 67, 100
6, 22548, Note_on_c, 4, 67, 0
6, 22560, Note_on_c, 4, 69, 100
6, 22680, Note_on_c, 4, 62, 100
6, 22788, Note_on_c, 4, 62, 0
6, 22800, Note_on_c, 4, 64, 100
6, 22908, Note_on_c, 4, 64, 0
6, 22920, Note_on_c, 4, 61, 100
6, 22992, Note_on_c, 4, 69, 0
6, 23028, Note_on_c, 4, 61, 0
6, 23040, Note_on_c, 4, 57, 100
6, 23094, Note_on_c, 4, 57, 0
6, 23100, Note_on_c, 4, 67, 100
6, 23154, Note_on_c, 4, 67, 0
6, 23160, Note_on_c, 4, 65, 100
6, 23214, Note_on_c, 4, 65, 0
6, 23220, Note_on_c, 4, 64, 100
6, 23274, Note_on_c, 4, 64, 0
6, 23280, Note_on_c, 4, 62, 100
6, 23496, Note_on_c, 4, 62, 0
6, 24120, Note_on_c, 4, 62, 100
6, 24228, Note_on_c, 4, 62, 0
6, 24240, Note_on_c, 4, 64, 100
6, 24348, Note_on_c, 4, 64, 0
6, 24360, Note_on_c, 4, 65, 100
6, 24468, Note_on_c, 4, 65, 0
6, 24480, Note_on_c, 4, 67, 100
6, 24600, Note_on_c, 4, 60, 100
6, 24708, Note_on_c, 4, 60, 0
6, 24720, Note_on_c, 4, 62, 100
6, 24828, Note_on_c, 4, 62, 0
6, 24840, Note_on_c, 4, 59, 100
6, 24912, Note_on_c, 4, 67, 0
6, 24948, Note_on_c, 4, 59, 0
6, 24960, Note_on_c, 4, 55, 100
6, 25014, Note_on_c, 4, 55, 0
6, 25020, Note_on_c, 4, 65, 100
6, 25074, Note_on_c, 4, 65, 0
6, 25080, Note_on_c, 4, 64, 100
6, 25134, Note_on_c, 4, 64, 0
6, 25140, Note_on_c, 4, 62, 100
6, 25194, Note_on_c, 4, 62, 0
6, 25200, Note_on_c, 4, 60, 100
6, 25416, Note_on_c, 4, 60, 0
6, 27000, Note_on_c, 4, 77, 100
6, 27108, Note_on_c, 4, 77, 0
6, 27120, Note_on_c, 4, 76, 100
6, 27228, Note_on_c, 4, 76, 0
6, 27240, Note_on_c, 4, 74, 100
6, 27348, Note_on_c, 4, 74, 0
6, 27360, Note_on_c, 4, 72, 100
6, 27468, Note_on_c, 4, 72, 0
6, 27480, Note_on_c, 4, 67, 100
6, 27588, Note_on_c, 4, 67, 0
6, 27600, Note_on_c, 4, 64, 100
6, 27708, Note_on_c, 4, 64, 0
6, 27720, Note_on_c, 4, 67, 100
6, 27828, Note_on_c, 4, 67, 0
6, 27840, Note_on_c, 4, 60, 100
6, 28056, Note_on_c, 4, 60, 0
6, 28080, Note_on_c, 4, 72, 100
6, 28296, Note_on_c, 4, 72, 0
6, 28440, Note_on_c, 4, 65, 100
6, 28548, Note_on_c, 4, 65, 0
6, 28560, Note_on_c, 4, 62, 100
6, 28668, Note_on_c, 4, 62, 0
6, 28680, Note_on_c, 4, 65, 100
6, 28788, Note_on_c, 4, 65, 0
6, 28800, Note_on_c, 4, 59, 100
6, 29016, Note_on_c, 4, 59, 0
6, 29040, Note_on_c, 4, 71, 100
6, 29256, Note_on_c, 4, 71, 0
6, 29400, Note_on_c, 4, 64, 100
6, 29508, Note_on_c, 4, 64, 0
6, 29520, Note_on_c, 4, 60, 100
6, 29628, Note_on_c, 4, 60, 0
6, 29640, Note_on_c, 4, 64, 100
6, 29748, Note_on_c, 4, 64, 0
6, 29760, Note_on_c, 4, 57, 100
6, 29976, Note_on_c, 4, 57, 0
6, 30000, Note_on_c, 4, 69, 100
6, 30216, Note_on_c, 4, 69, 0
6, 30360, Note_on_c, 4, 62, 100
6, 30468, Note_on_c, 4, 62, 0
6, 30480, Note_on_c, 4, 59, 100
6, 30588, Note_on_c, 4, 59, 0
6, 30600, Note_on_c, 4, 62, 100
6, 30708, Note_on_c, 4, 62, 0
6, 30720, Note_on_c, 4, 55, 100
6, 30936, Note_on_c, 4, 55, 0
6, 30960, Note_on_c, 4, 67, 100
6, 31176, Note_on_c, 4, 67, 0
6, 31320, Note_on_c, 4, 72, 100
6, 31428, Note_on_c, 4, 72, 0
6, 31440, Note_on_c, 4, 69, 100
6, 31548, Note_on_c, 4, 69, 0
6, 31560, Note_on_c, 4, 65, 100
6, 31668, Note_on_c, 4, 65, 0
6, 31680, Note_on_c, 4, 67, 100
6, 31896, Note_on_c, 4, 67, 0
6, 31920, Note_on_c, 4, 72, 100
6, 32136, Note_on_c, 4, 72, 0
6, 32280, Note_on_c, 4, 72, 100
6, 32388, Note_on_c, 4, 72, 0
6, 32400, Note_on_c, 4, 69, 100
6, 32508, Note_on_c, 4, 69, 0
6, 32520, Note_on_c, 4, 65, 100
6, 32628, Note_on_c, 4, 65, 0
6, 32640, Note_on_c, 4, 67, 100
6, 32748, Note_on_c, 4, 67, 0
6, 32760, Note_on_c, 4, 64, 100
6, 32868, Note_on_c, 4, 64, 0
6, 32880, Note_on_c, 4, 60, 100
6, 32988, Note_on_c, 4, 60, 0
6, 33000, Note_on_c, 4, 59, 100
6, 33108, Note_on_c, 4, 59, 0
6, 33120, Note_on_c, 4, 60, 100
6, 33228, Note_on_c, 4, 60, 0
6, 33240, Note_on_c, 4, 62, 100
6, 33348, Note_on_c, 4, 62, 0
6, 33360, Note_on_c, 4, 64, 100
6, 33468, Note_on_c, 4, 64, 0
6, 33480, Note_on_c, 4, 65, 100
6, 33588, Note_on_c, 4, 65, 0
6, 33600, Note_on_c, 4, 67, 100
6, 33708, Note_on_c, 4, 67, 0
6, 33720, Note_on_c, 4, 66, 100
6, 33828, Note_on_c, 4, 66, 0
6, 33840, Note_on_c, 4, 67, 100
6, 33948, Note_on_c, 4, 67, 0
6, 33960, Note_on_c, 4, 69, 100
6, 34068, Note_on_c, 4, 69, 0
6, 34080, Note_on_c, 4, 71, 100
6, 34188, Note_on_c, 4, 71, 0
6, 34200, Note_on_c, 4, 69, 100
6, 34308, Note_on_c, 4, 69, 0
6, 34320, Note_on_c, 4, 71, 100
6, 34428, Note_on_c, 4, 71, 0
6, 34440, Note_on_c, 4, 67, 100
6, 34548, Note_on_c, 4, 67, 0
6, 34560, Note_on_c, 4, 72, 100
6, 34668, Note_on_c, 4, 72, 0
6, 34680, Note_on_c, 4, 71, 100
6, 34788, Note_on_c, 4, 71, 0
6, 34800, Note_on_c, 4, 72, 100
6, 34908, Note_on_c, 4, 72, 0
6, 34920, Note_on_c, 4, 74, 100
6, 35028, Note_on_c, 4, 74, 0
6, 35040, Note_on_c, 4, 72, 100
6, 35148, Note_on_c, 4, 72, 0
6, 35160, Note_on_c, 4, 76, 100
6, 35268, Note_on_c, 4, 76, 0
6, 35280, Note_on_c, 4, 74, 100
6, 35388, Note_on_c, 4, 74, 0
6, 35400, Note_on_c, 4, 72, 100
6, 35508, Note_on_c, 4, 72, 0
6, 35520, Note_on_c, 4, 71, 100
6, 35628, Note_on_c, 4, 71, 0
6, 35640, Note_on_c, 4, 74, 100
6, 35748, Note_on_c, 4, 74, 0
6, 35760, Note_on_c, 4, 67, 100
6, 35868, Note_on_c, 4, 67, 0
6, 35880, Note_on_c, 4, 71, 100
6, 35988, Note_on_c, 4, 71, 0
6, 36000, Note_on_c, 4, 72, 100
6, 36108, Note_on_c, 4, 72, 0
6, 36120, Note_on_c, 4, 76, 100
6, 36228, Note_on_c, 4, 76, 0
6, 36240, Note_on_c, 4, 67, 100
6, 36348, Note_on_c, 4, 67, 0
6, 36360, Note_on_c, 4, 71, 100
6, 36468, Note_on_c, 4, 71, 0
6, 36480, Note_on_c, 4, 69, 100
6, 36588, Note_on_c, 4, 69, 0
6, 36600, Note_on_c, 4, 72, 100
6, 36708, Note_on_c, 4, 72, 0
6, 36720, Note_on_c, 4, 65, 100
6, 36828, Note_on_c, 4, 65, 0
6, 36840, Note_on_c, 4, 69, 100
6, 36948, Note_on_c, 4, 69, 0
6, 36960, Note_on_c, 4, 71, 100
6, 37068, Note_on_c, 4, 71, 0
6, 37080, Note_on_c, 4, 74, 100
6, 37188, Note_on_c, 4, 74, 0
6, 37200, Note_on_c, 4, 65, 100
6, 37308, Note_on_c, 4, 65, 0
6, 37320, Note_on_c, 4, 69, 100
6, 37428, Note_on_c, 4, 69, 0
6, 37440, Note_on_c, 4, 67, 100
6, 37548, Note_on_c, 4, 67, 0
6, 37560, Note_on_c, 4, 71, 100
6, 37668, Note_on_c, 4, 71, 0
6, 37680, Note_on_c, 4, 64, 100
6, 37788, Note_on_c, 4, 64, 0
6, 37800, Note_on_c, 4, 67, 100
6, 37908, Note_on_c, 4, 67, 0
6, 37920, Note_on_c, 4, 69, 100
6, 38028, Note_on_c, 4, 69, 0
6, 38040, Note_on_c, 4, 72, 100
6, 38148, Note_on_c, 4, 72, 0
6, 38160, Note_on_c, 4, 64, 100
6, 38268, Note_on_c, 4, 64, 0
6, 38280, Note_on_c, 4, 67, 100
6, 38388, Note_on_c, 4, 67, 0
6, 38400, Note_on_c, 4, 65, 100
6, 38508, Note_on_c, 4, 65, 0
6, 38520, Note_on_c, 4, 69, 100
6, 38628, Note_on_c, 4, 69, 0
6, 38640, Note_on_c, 4, 62, 100
6, 38748, Note_on_c, 4, 62, 0
6, 38760, Note_on_c, 4, 65, 100
6, 38868, Note_on_c, 4, 65, 0
6, 38880, Note_on_c, 4, 67, 100
6, 38988, Note_on_c, 4, 67, 0
6, 39000, Note_on_c, 4, 71, 100
6, 39108, Note_on_c, 4, 71, 0
6, 39120, Note_on_c, 4, 62, 100
6, 39228, Note_on_c, 4, 62, 0
6, 39240, Note_on_c, 4, 65, 100
6, 39348, Note_on_c, 4, 65, 0
6, 39360, Note_on_c, 4, 64, 100
6, 39576, Note_on_c, 4, 64, 0
6, 40560, Note_on_c, 4, 72, 100
6, 40632, Note_on_c, 4, 72, 0
6, 40640, Note_on_c, 4, 70, 100
6, 40712, Note_on_c, 4, 70, 0
6, 40720, Note_on_c, 4, 72, 100
6, 40792, Note_on_c, 4, 72, 0
6, 40800, Note_on_c, 4, 74, 100
6, 40872, Note_on_c, 4, 74, 0
6, 40880, Note_on_c, 4, 72, 100
6, 40952, Note_on_c, 4, 72, 0
6, 40960, Note_on_c, 4, 74, 100
6, 41032, Note_on_c, 4, 74, 0
6, 41040, Note_on_c, 4, 76, 100
6, 41112, Note_on_c, 4, 76, 0
6, 41120, Note_on_c, 4, 74, 100
6, 41192, Note_on_c, 4, 74, 0
6, 41200, Note_on_c, 4, 76, 100
6, 41272, Note_on_c, 4, 76, 0
6, 41280, Note_on_c, 4, 77, 100
6, 41496, Note_on_c, 4, 77, 0
6, 41520, Note_on_c, 4, 69, 100
6, 41592, Note_on_c, 4, 69, 0
6, 41600, Note_on_c, 4, 67, 100
6, 41672, Note_on_c, 4, 67, 0
6, 41680, Note_on_c, 4, 69, 100
6, 41752, Note_on_c, 4, 69, 0
6, 41760, Note_on_c, 4, 71, 100
6, 41832, Note_on_c, 4, 71, 0
6, 41840, Note_on_c, 4, 69, 100
6, 41912, Note_on_c, 4, 69, 0
6, 41920, Note_on_c, 4, 71, 100
6, 41992, Note_on_c, 4, 71, 0
6, 42000, Note_on_c, 4, 73, 100
6, 42072, Note_on_c, 4, 73, 0
6, 42080, Note_on_c, 4, 71, 100
6, 42152, Note_on_c, 4, 71, 0
6, 42160, Note_on_c, 4, 73, 100
6, 42232, Note_on_c, 4, 73, 0
6, 42240, Note_on_c, 4, 74, 100
6, 42792, Note_on_c, 4, 74, 0
6, 42800, Note_on_c, 4, 76, 100
6, 42872, Note_on_c, 4, 76, 0
6, 42880, Note_on_c, 4, 74, 100
6, 42952, Note_on_c, 4, 74, 0
6, 42960, Note_on_c, 4, 72, 100
6, 43032, Note_on_c, 4, 72, 0
6, 43040, Note_on_c, 4, 74, 100
6, 43112, Note_on_c, 4, 74, 0
6, 43120, Note_on_c, 4, 72, 100
6, 43192, Note_on_c, 4, 72, 0
6, 43200, Note_on_c, 4, 71, 100
6, 43416, Note_on_c, 4, 71, 0
6, 44400, Note_on_c, 4, 76, 100
6, 44472, Note_on_c, 4, 76, 0
6, 44480, Note_on_c, 4, 74, 100
6, 44552, Note_on_c, 4, 74, 0
6, 44560, Note_on_c, 4, 76, 100
6, 44632, Note_on_c, 4, 76, 0
6, 44640, Note_on_c, 4, 78, 100
6, 44712, Note_on_c, 4, 78, 0
6, 44720, Note_on_c, 4, 76, 100
6, 44792, Note_on_c, 4, 76, 0
6, 44800, Note_on_c, 4, 78, 100
6, 44872, Note_on_c, 4, 78, 0
6, 44880, Note_on_c, 4, 80, 100
6, 44952, Note_on_c, 4, 80, 0
6, 44960, Note_on_c, 4, 78, 100
6, 45032, Note_on_c, 4, 78, 0
6, 45040, Note_on_c, 4, 80, 100
6, 45112, Note_on_c, 4, 80, 0
6, 45120, Note_on_c, 4, 81, 100
6, 45228, Note_on_c, 4, 81, 0
6, 45240, Note_on_c, 4, 79, 100
6, 45348, Note_on_c, 4, 79, 0
6, 45360, Note_on_c, 4, 77, 100
6, 45468, Note_on_c, 4, 77, 0
6, 45480, Note_on_c, 4, 76, 100
6, 45588, Note_on_c, 4, 76, 0
6, 45600, Note_on_c, 4, 74, 100
6, 45708, Note_on_c, 4, 74, 0
6, 45720, Note_on_c, 4, 69, 100
6, 45828, Note_on_c, 4, 69, 0
6, 45840, Note_on_c, 4, 68, 100
6, 45948, Note_on_c, 4, 68, 0
6, 45960, Note_on_c, 4, 69, 100
6, 46068, Note_on_c, 4, 69, 0
6, 46080, Note_on_c, 4, 71, 100
6, 46296, Note_on_c, 4, 71, 0
6, 46560, Note_on_c, 4, 76, 100
6, 46776, Note_on_c, 4, 76, 0
6, 46800, Note_on_c, 4, 76, 100
6, 47016, Note_on_c, 4, 76, 0
6, 47040, Note_on_c, 4, 76, 100
6, 47256, Note_on_c, 4, 76, 0
6, 47280, Note_on_c, 4, 74, 100
6, 47388, Note_on_c, 4, 74, 0
6, 47400, Note_on_c, 4, 72, 100
6, 47508, Note_on_c, 4, 72, 0
6, 47520, Note_on_c, 4, 74, 100
6, 47736, Note_on_c, 4, 74, 0
6, 47760, Note_on_c, 4, 71, 100
6, 47976, Note_on_c, 4, 71, 0
6, 48000, Note_on_c, 4, 67, 100
6, 48216, Note_on_c, 4, 67, 0
6, 48480, Note_on_c, 4, 72, 100
6, 48696, Note_on_c, 4, 72, 0
6, 48720, Note_on_c, 4, 72, 100
6, 48936, Note_on_c, 4, 72, 0
6, 48960, Note_on_c, 4, 72, 100
6, 49176, Note_on_c, 4, 72, 0
6, 49200, Note_on_c, 4, 71, 100
6, 49308, Note_on_c, 4, 71, 0
6, 49320, Note_on_c, 4, 69, 100
6, 49428, Note_on_c, 4, 69, 0
6, 49440, Note_on_c, 4, 71, 100
6, 49656, Note_on_c, 4, 71, 0
6, 49680, Note_on_c, 4, 68, 100
6, 49896, Note_on_c, 4, 68, 0
6, 49920, Note_on_c, 4, 64, 100
6, 50136, Note_on_c, 4, 64, 0
6, 50160, Note_on_c, 4, 76, 100
6, 50376, Note_on_c, 4, 76, 0
6, 50400, Note_on_c, 4, 77, 100
6, 50616, Note_on_c, 4, 77, 0
6, 50640, Note_on_c, 4, 74, 100
6, 50856, Note_on_c, 4, 74, 0
6, 50880, Note_on_c, 4, 76, 100
6, 51096, Note_on_c, 4, 76, 0
6, 51120, Note_on_c, 4, 81, 100
6, 51228, Note_on_c, 4, 81, 0
6, 51240, Note_on_c, 4, 76, 100
6, 51348, Note_on_c, 4, 76, 0
6, 51360, Note_on_c, 4, 77, 100
6, 51576, Note_on_c, 4, 77, 0
6, 51600, Note_on_c, 4, 74, 100
6, 51816, Note_on_c, 4, 74, 0
6, 51840, Note_on_c, 4, 76, 100
6, 52056, Note_on_c, 4, 76, 0
6, 52080, Note_on_c, 4, 69, 100
6, 52188, Note_on_c, 4, 69, 0
6, 52200, Note_on_c, 4, 71, 100
6, 52308, Note_on_c, 4, 71, 0
6, 52320, Note_on_c, 4, 72, 100
6, 52428, Note_on_c, 4, 72, 0
6, 52440, Note_on_c, 4, 74, 100
6, 52548, Note_on_c, 4, 74, 0
6, 52560, Note_on_c, 4, 72, 100
6, 52668, Note_on_c, 4, 72, 0
6, 52680, Note_on_c, 4, 74, 100
6, 52788, Note_on_c, 4, 74, 0
6, 52800, Note_on_c, 4, 76, 100
6, 53016, Note_on_c, 4, 76, 0
6, 53040, Note_on_c, 4, 69, 100
6, 53256, Note_on_c, 4, 69, 0
6, 53280, Note_on_c, 4, 64, 100
6, 53496, Note_on_c, 4, 64, 0
6, 53520, Note_on_c, 4, 68, 100
6, 53736, Note_on_c, 4, 68, 0
6, 53760, Note_on_c, 4, 69, 100
6, 54348, Note_on_c, 4, 69, 0
6, 54360, Note_on_c, 4, 71, 100
6, 54468, Note_on_c, 4, 71, 0
6, 54480, Note_on_c, 4, 69, 100
6, 54588, Note_on_c, 4, 69, 0
6, 54600, Note_on_c, 4, 71, 100
6, 54708, Note_on_c, 4, 71, 0
6, 54720, Note_on_c, 4, 69, 100
6, 55308, Note_on_c, 4, 69, 0
6, 55320, Note_on_c, 4, 71, 100
6, 55428, Note_on_c, 4, 71, 0
6, 55440, Note_on_c, 4, 69, 100
6, 55548, Note_on_c, 4, 69, 0
6, 55560, Note_on_c, 4, 71, 100
6, 55668, Note_on_c, 4, 71, 0
6, 55680, Note_on_c, 4, 69, 100
6, 55788, Note_on_c, 4, 69, 0
6, 55800, Note_on_c, 4, 71, 100
6, 55908, Note_on_c, 4, 71, 0
6, 55920, Note_on_c, 4, 72, 100
6, 56028, Note_on_c, 4, 72, 0
6, 56040, Note_on_c, 4, 74, 100
6, 56148, Note_on_c, 4, 74, 0
6, 56160, Note_on_c, 4, 76, 100
6, 56268, Note_on_c, 4, 76, 0
6, 56280, Note_on_c, 4, 78, 100
6, 56334, Note_on_c, 4, 78, 0
6, 56340, Note_on_c, 4, 80, 100
6, 56394, Note_on_c, 4, 80, 0
6, 56400, Note_on_c, 4, 81, 100
6, 56454, Note_on_c, 4, 81, 0
6, 56460, Note_on_c, 4, 80, 100
6, 56514, Note_on_c, 4, 80, 0
6, 56520, Note_on_c, 4, 78, 100
6, 56574, Note_on_c, 4, 78, 0
6, 56580, Note_on_c, 4, 80, 100
6, 56634, Note_on_c, 4, 80, 0
6, 56640, Note_on_c, 4, 81, 100
6, 56748, Note_on_c, 4, 81, 0
6, 56760, Note_on_c, 4, 76, 100
6, 56868, Note_on_c, 4, 76, 0
6, 56880, Note_on_c, 4, 78, 100
6, 56988, Note_on_c, 4, 78, 0
6, 57000, Note_on_c, 4, 73, 100
6, 57108, Note_on_c, 4, 73, 0
6, 57120, Note_on_c, 4, 75, 100
6, 57228, Note_on_c, 4, 75, 0
6, 57240, Note_on_c, 4, 69, 100
6, 57348, Note_on_c, 4, 69, 0
6, 57360, Note_on_c, 4, 71, 100
6, 57468, Note_on_c, 4, 71, 0
6, 57480, Note_on_c, 4, 66, 100
6, 57588, Note_on_c, 4, 66, 0
6, 57600, Note_on_c, 4, 67, 100
6, 57708, Note_on_c, 4, 67, 0
6, 57720, Note_on_c, 4, 63, 100
6, 57828, Note_on_c, 4, 63, 0
6, 57840, Note_on_c, 4, 64, 100
6, 57948, Note_on_c, 4, 64, 0
6, 57960, Note_on_c, 4, 67, 100
6, 58068, Note_on_c, 4, 67, 0
6, 58080, Note_on_c, 4, 71, 100
6, 58188, Note_on_c, 4, 71, 0
6, 58200, Note_on_c, 4, 75, 100
6, 58308, Note_on_c, 4, 75, 0
6, 58320, Note_on_c, 4, 76, 100
6, 58428, Note_on_c, 4, 76, 0
6, 58440, Note_on_c, 4, 77, 100
6, 58548, Note_on_c, 4, 77, 0
6, 58560, Note_on_c, 4, 79, 100
6, 58614, Note_on_c, 4, 79, 0
6, 58620, Note_on_c, 4, 77, 100
6, 58674, Note_on_c, 4, 77, 0
6, 58680, Note_on_c, 4, 76, 100
6, 58734, Note_on_c, 4, 76, 0
6, 58740, Note_on_c, 4, 74, 100
6, 58794, Note_on_c, 4, 74, 0
6, 58800, Note_on_c, 4, 76, 100
6, 58908, Note_on_c, 4, 76, 0
6, 58920, Note_on_c, 4, 71, 100
6, 59028, Note_on_c, 4, 71, 0
6, 59040, Note_on_c, 4, 73, 100
6, 59148, Note_on_c, 4, 73, 0
6, 59160, Note_on_c, 4, 67, 100
6, 59268, Note_on_c, 4, 67, 0
6, 59280, Note_on_c, 4, 69, 100
6, 59388, Note_on_c, 4, 69, 0
6, 59400, Note_on_c, 4, 64, 100
6, 59508, Note_on_c, 4, 64, 0
6, 59520, Note_on_c, 4, 65, 100
6, 59628, Note_on_c, 4, 65, 0
6, 59640, Note_on_c, 4, 61, 100
6, 59748, Note_on_c, 4, 61, 0
6, 59760, Note_on_c, 4, 62, 100
6, 59868, Note_on_c, 4, 62, 0
6, 59880, Note_on_c, 4, 65, 100
6, 59988, Note_on_c, 4, 65, 0
6, 60000, Note_on_c, 4, 69, 100
6, 60108, Note_on_c, 4, 69, 0
6, 60120, Note_on_c, 4, 73, 100
6, 60228, Note_on_c, 4, 73, 0
6, 60240, Note_on_c, 4, 74, 100
6, 60348, Note_on_c, 4, 74, 0
6, 60360, Note_on_c, 4, 76, 100
6, 60468, Note_on_c, 4, 76, 0
6, 60480, Note_on_c, 4, 77, 100
6, 60534, Note_on_c, 4, 77, 0
6, 60540, Note_on_c, 4, 76, 100
6, 60594, Note_on_c, 4, 76, 0
6, 60600, Note_on_c, 4, 74, 100
6, 60654, Note_on_c, 4, 74, 0
6, 60660, Note_on_c, 4, 72, 100
6, 60714, Note_on_c, 4, 72, 0
6, 60720, Note_on_c, 4, 74, 100
6, 60828, Note_on_c, 4, 74, 0
6, 60840, Note_on_c, 4, 69, 100
6, 60948, Note_on_c, 4, 69, 0
6, 60960, Note_on_c, 4, 71, 100
6, 61068, Note_on_c, 4, 71, 0
6, 61080, Note_on_c, 4, 65, 100
6, 61188, Note_on_c, 4, 65, 0
6, 61200, Note_on_c, 4, 67, 100
6, 61308, Note_on_c, 4, 67, 0
6, 61320, Note_on_c, 4, 62, 100
6, 61428, Note_on_c, 4, 62, 0
6, 61440, Note_on_c, 4, 64, 100
6, 61548, Note_on_c, 4, 64, 0
6, 61560, Note_on_c, 4, 59, 100
6, 61668, Note_on_c, 4, 59, 0
6, 61680, Note_on_c, 4, 60, 100
6, 61788, Note_on_c, 4, 60, 0
6, 61800, Note_on_c, 4, 64, 100
6, 61908, Note_on_c, 4, 64, 0
6, 61920, Note_on_c, 4, 67, 100
6, 62028, Note_on_c, 4, 67, 0
6, 62040, Note_on_c, 4, 71, 100
6, 62148, Note_on_c, 4, 71, 0
6, 62160, Note_on_c, 4, 72, 100
6, 62268, Note_on_c, 4, 72, 0
6, 62280, Note_on_c, 4, 76, 100
6, 62388, Note_on_c, 4, 76, 0
6, 62400, Note_on_c, 4, 79, 100
6, 62454, Note_on_c, 4, 79, 0
6, 62460, Note_on_c, 4, 81, 100
6, 62514, Note_on_c, 4, 81, 0
6, 62520, Note_on_c, 4, 82, 100
6, 62574, Note_on_c, 4, 82, 0
6, 62580, Note_on_c, 4, 81, 100
6, 62634, Note_on_c, 4, 81, 0
6, 62640, Note_on_c, 4, 79, 100
6, 62694, Note_on_c, 4, 79, 0
6, 62700, Note_on_c, 4, 77, 100
6, 62754, Note_on_c, 4, 77, 0
6, 62760, Note_on_c, 4, 76, 100
6, 62814, Note_on_c, 4, 76, 0
6, 62820, Note_on_c, 4, 74, 100
6, 62874, Note_on_c, 4, 74, 0
6, 62880, Note_on_c, 4, 73, 100
6, 62988, Note_on_c, 4, 73, 0
6, 63000, Note_on_c, 4, 81, 100
6, 63108, Note_on_c, 4, 81, 0
6, 63120, Note_on_c, 4, 76, 100
6, 63228, Note_on_c, 4, 76, 0
6, 63240, Note_on_c, 4, 79, 100
6, 63348, Note_on_c, 4, 79, 0
6, 63360, Note_on_c, 4, 77, 100
6, 63414, Note_on_c, 4, 77, 0
6, 63420, Note_on_c, 4, 79, 100
6, 63474, Note_on_c, 4, 79, 0
6, 63480, Note_on_c, 4, 81, 100
6, 63534, Note_on_c, 4, 81, 0
6, 63540, Note_on_c, 4, 79, 100
6, 63594, Note_on_c, 4, 79, 0
6, 63600, Note_on_c, 4, 77, 100
6, 63654, Note_on_c, 4, 77, 0
6, 63660, Note_on_c, 4, 76, 100
6, 63714, Note_on_c, 4, 76, 0
6, 63720, Note_on_c, 4, 74, 100
6, 63774, Note_on_c, 4, 74, 0
6, 63780, Note_on_c, 4, 72, 100
6, 63834, Note_on_c, 4, 72, 0
6, 63840, Note_on_c, 4, 71, 100
6, 63948, Note_on_c, 4, 71, 0
6, 63960, Note_on_c, 4, 79, 100
6, 64068, Note_on_c, 4, 79, 0
6, 64080, Note_on_c, 4, 74, 100
6, 64188, Note_on_c, 4, 74, 0
6, 64200, Note_on_c, 4, 77, 100
6, 64308, Note_on_c, 4, 77, 0
6, 64320, Note_on_c, 4, 76, 100
6, 64374, Note_on_c, 4, 76, 0
6, 64380, Note_on_c, 4, 77, 100
6, 64434, Note_on_c, 4, 77, 0
6, 64440, Note_on_c, 4, 79, 100
6, 64494, Note_on_c, 4, 79, 0
6, 64500, Note_on_c, 4, 77, 100
6, 64554, Note_on_c, 4, 77, 0
6, 64560, Note_on_c, 4, 76, 100
6, 64614, Note_on_c, 4, 76, 0
6, 64620, Note_on_c, 4, 74, 100
6, 64674, Note_on_c, 4, 74, 0
6, 64680, Note_on_c, 4, 72, 100
6, 64734, Note_on_c, 4, 72, 0
6, 64740, Note_on_c, 4, 71, 100
6, 64794, Note_on_c, 4, 71, 0
6, 64800, Note_on_c, 4, 69, 100
6, 64908, Note_on_c, 4, 69, 0
6, 64920, Note_on_c, 4, 77, 100
6, 65028, Note_on_c, 4, 77, 0
6, 65040, Note_on_c, 4, 72, 100
6, 65148, Note_on_c, 4, 72, 0
6, 65160, Note_on_c, 4, 76, 100
6, 65268, Note_on_c, 4, 76, 0
6, 65280, Note_on_c, 4, 74, 100
6, 65334, Note_on_c, 4, 74, 0
6, 65340, Note_on_c, 4, 76, 100
6, 65394, Note_on_c, 4, 76, 0
6, 65400, Note_on_c, 4, 77, 100
6, 65454, Note_on_c, 4, 77, 0
6, 65460, Note_on_c, 4, 76, 100
6, 65514, Note_on_c, 4, 76, 0
6, 65520, Note_on_c, 4, 74, 100
6, 65574, Note_on_c, 4, 74, 0
6, 65580, Note_on_c, 4, 72, 100
6, 65634, Note_on_c, 4, 72, 0
6, 65640, Note_on_c, 4, 71, 100
6, 65694, Note_on_c, 4, 71, 0
6, 65700, Note_on_c, 4, 69, 100
6, 65754, Note_on_c, 4, 69, 0
6, 65760, Note_on_c, 4, 68, 100
6, 65868, Note_on_c, 4, 68, 0
6, 65880, Note_on_c, 4, 76, 100
6, 65988, Note_on_c, 4, 76, 0
6, 66000, Note_on_c, 4, 71, 100
6, 66108, Note_on_c, 4, 71, 0
6, 66120, Note_on_c, 4, 74, 100
6, 66228, Note_on_c, 4, 74, 0
6, 66300, Note_on_c, 4, 69, 100
6, 66354, Note_on_c, 4, 69, 0
6, 66360, Note_on_c, 4, 71, 100
6, 66414, Note_on_c, 4, 71, 0
6, 66420, Note_on_c, 4, 72, 100
6, 66474, Note_on_c, 4, 72, 0
6, 66480, Note_on_c, 4, 76, 100
6, 66534, Note_on_c, 4, 76, 0
6, 66540, Note_on_c, 4, 72, 100
6, 66594, Note_on_c, 4, 72, 0
6, 66600, Note_on_c, 4, 71, 100
6, 66654, Note_on_c, 4, 71, 0
6, 66660, Note_on_c, 4, 69, 100
6, 66714, Note_on_c, 4, 69, 0
6, 66780, Note_on_c, 4, 69, 100
6, 66834, Note_on_c, 4, 69, 0
6, 66840, Note_on_c, 4, 71, 100
6, 66894, Note_on_c, 4, 71, 0
6, 66900, Note_on_c, 4, 72, 100
6, 66954, Note_on_c, 4, 72, 0
6, 66960, Note_on_c, 4, 76, 100
6, 67014, Note_on_c, 4, 76, 0
6, 67020, Note_on_c, 4, 72, 100
6, 67074, Note_on_c, 4, 72, 0
6, 67080, Note_on_c, 4, 71, 100
6, 67134, Note_on_c, 4, 71, 0
6, 67140, Note_on_c, 4, 69, 100
6, 67194, Note_on_c, 4, 69, 0
6, 67260, Note_on_c, 4, 69, 100
6, 67314, Note_on_c, 4, 69, 0
6, 67320, Note_on_c, 4, 71, 100
6, 67374, Note_on_c, 4, 71, 0
6, 67380, Note_on_c, 4, 75, 100
6, 67434, Note_on_c, 4, 75, 0
6, 67440, Note_on_c, 4, 76, 100
6, 67494, Note_on_c, 4, 76, 0
6, 67500, Note_on_c, 4, 75, 100
6, 67554, Note_on_c, 4, 75, 0
6, 67560, Note_on_c, 4, 71, 100
6, 67614, Note_on_c, 4, 71, 0
6, 67620, Note_on_c, 4, 69, 100
6, 67674, Note_on_c, 4, 69, 0
6, 67740, Note_on_c, 4, 67, 100
6, 67794, Note_on_c, 4, 67, 0
6, 67800, Note_on_c, 4, 69, 100
6, 67854, Note_on_c, 4, 69, 0
6, 67860, Note_on_c, 4, 71, 100
6, 67914, Note_on_c, 4, 71, 0
6, 67920, Note_on_c, 4, 76, 100
6, 67974, Note_on_c, 4, 76, 0
6, 67980, Note_on_c, 4, 71, 100
6, 68034, Note_on_c, 4, 71, 0
6, 68040, Note_on_c, 4, 69, 100
6, 68094, Note_on_c, 4, 69, 0
6, 68100, Note_on_c, 4, 67, 100
6, 68154, Note_on_c, 4, 67, 0
6, 68220, Note_on_c, 4, 66, 100
6, 68274, Note_on_c, 4, 66, 0
6, 68280, Note_on_c, 4, 67, 100
6, 68334, Note_on_c, 4, 67, 0
6, 68340, Note_on_c, 4, 69, 100
6, 68394, Note_on_c, 4, 69, 0
6, 68400, Note_on_c, 4, 76, 100
6, 68454, Note_on_c, 4, 76, 0
6, 68460, Note_on_c, 4, 69, 100
6, 68514, Note_on_c, 4, 69, 0
6, 68520, Note_on_c, 4, 67, 100
6, 68574, Note_on_c, 4, 67, 0
6, 68580, Note_on_c, 4, 66, 100
6, 68634, Note_on_c, 4, 66, 0
6, 68700, Note_on_c, 4, 66, 100
6, 68754, Note_on_c, 4, 66, 0
6, 68760, Note_on_c, 4, 67, 100
6, 68814, Note_on_c, 4, 67, 0
6, 68820, Note_on_c, 4, 69, 100
6, 68874, Note_on_c, 4, 69, 0
6, 68880, Note_on_c, 4, 75, 100
6, 68934, Note_on_c, 4, 75, 0
6, 68940, Note_on_c, 4, 69, 100
6, 68994, Note_on_c, 4, 69, 0
6, 69000, Note_on_c, 4, 67, 100
6, 69054, Note_on_c, 4, 67, 0
6, 69060, Note_on_c, 4, 66, 100
6, 69114, Note_on_c, 4, 66, 0
6, 69180, Note_on_c, 4, 68, 100
6, 69234, Note_on_c, 4, 68, 0
6, 69240, Note_on_c, 4, 69, 100
6, 69294, Note_on_c, 4, 69, 0
6, 69300, Note_on_c, 4, 71, 100
6, 69354, Note_on_c, 4, 71, 0
6, 69360, Note_on_c, 4, 74, 100
6, 69414, Note_on_c, 4, 74, 0
6, 69420, Note_on_c, 4, 71, 100
6, 69474, Note_on_c, 4, 71, 0
6, 69480, Note_on_c, 4, 69, 100
6, 69534, Note_on_c, 4, 69, 0
6, 69540, Note_on_c, 4, 68, 100
6, 69594, Note_on_c, 4, 68, 0
6, 69660, Note_on_c, 4, 68, 100
6, 69714, Note_on_c, 4, 68, 0
6, 69720, Note_on_c, 4, 69, 100
6, 69774, Note_on_c, 4, 69, 0
6, 69780, Note_on_c, 4, 71, 100
6, 69834, Note_on_c, 4, 71, 0
6, 69840, Note_on_c, 4, 74, 100
6, 69894, Note_on_c, 4, 74, 0
6, 69900, Note_on_c, 4, 71, 100
6, 69954, Note_on_c, 4, 71, 0
6, 69960, Note_on_c, 4, 69, 100
6, 70014, Note_on_c, 4, 69, 0
6, 70020, Note_on_c, 4, 68, 100
6, 70074, Note_on_c, 4, 68, 0
6, 70140, Note_on_c, 4, 67, 100
6, 70194, Note_on_c, 4, 67, 0
6, 70200, Note_on_c, 4, 69, 100
6, 70254, Note_on_c, 4, 69, 0
6, 70260, Note_on_c, 4, 70, 100
6, 70314, Note_on_c, 4, 70, 0
6, 70320, Note_on_c, 4, 73, 100
6, 70374, Note_on_c, 4, 73, 0
6, 70380, Note_on_c, 4, 70, 100
6, 70434, Note_on_c, 4, 70, 0
6, 70440, Note_on_c, 4, 69, 100
6, 70494, Note_on_c, 4, 69, 0
6, 70500, Note_on_c, 4, 67, 100
6, 70554, Note_on_c, 4, 67, 0
6, 70620, Note_on_c, 4, 67, 100
6, 70674, Note_on_c, 4, 67, 0
6, 70680, Note_on_c, 4, 69, 100
6, 70734, Note_on_c, 4, 69, 0
6, 70740, Note_on_c, 4, 70, 100
6, 70794, Note_on_c, 4, 70, 0
6, 70800, Note_on_c, 4, 73, 100
6, 70854, Note_on_c, 4, 73, 0
6, 70860, Note_on_c, 4, 70, 100
6, 70914, Note_on_c, 4, 70, 0
6, 70920, Note_on_c, 4, 69, 100
6, 70974, Note_on_c, 4, 69, 0
6, 70980, Note_on_c, 4, 67, 100
6, 71034, Note_on_c, 4, 67, 0
6, 71100, Note_on_c, 4, 66, 100
6, 71154, Note_on_c, 4, 66, 0
6, 71160, Note_on_c, 4, 67, 100
6, 71214, Note_on_c, 4, 67, 0
6, 71220, Note_on_c, 4, 69, 100
6, 71274, Note_on_c, 4, 69, 0
6, 71280, Note_on_c, 4, 72, 100
6, 71334, Note_on_c, 4, 72, 0
6, 71340, Note_on_c, 4, 69, 100
6, 71394, Note_on_c, 4, 69, 0
6, 71400, Note_on_c, 4, 67, 100
6, 71454, Note_on_c, 4, 67, 0
6, 71460, Note_on_c, 4, 66, 100
6, 71514, Note_on_c, 4, 66, 0
6, 71580, Note_on_c, 4, 66, 100
6, 71634, Note_on_c, 4, 66, 0
6, 71640, Note_on_c, 4, 67, 100
6, 71694, Note_on_c, 4, 67, 0
6, 71700, Note_on_c, 4, 69, 100
6, 71754, Note_on_c, 4, 69, 0
6, 71760, Note_on_c, 4, 72, 100
6, 71814, Note_on_c, 4, 72, 0
6, 71820, Note_on_c, 4, 69, 100
6, 71874, Note_on_c, 4, 69, 0
6, 71880, Note_on_c, 4, 67, 100
6, 71934, Note_on_c, 4, 67, 0
6, 71940, Note_on_c, 4, 66, 100
6, 71994, Note_on_c, 4, 66, 0
6, 72060, Note_on_c, 4, 65, 100
6, 72114, Note_on_c, 4, 65, 0
6, 72120, Note_on_c, 4, 67, 100
6, 72174, Note_on_c, 4, 67, 0
6, 72180, Note_on_c, 4, 68, 100
6, 72234, Note_on_c, 4, 68, 0
6, 72240, Note_on_c, 4, 71, 100
6, 72294, Note_on_c, 4, 71, 0
6, 72300, Note_on_c, 4, 68, 100
6, 72354, Note_on_c, 4, 68, 0
6, 72360, Note_on_c, 4, 67, 100
6, 72414, Note_on_c, 4, 67, 0
6, 72420, Note_on_c, 4, 65, 100
6, 72474, Note_on_c, 4, 65, 0
6, 72540, Note_on_c, 4, 65, 100
6, 72594, Note_on_c, 4, 65, 0
6, 72600, Note_on_c, 4, 67, 100
6, 72654, Note_on_c, 4, 67, 0
6, 72660, Note_on_c, 4, 68, 100
6, 72714, Note_on_c, 4, 68, 0
6, 72720, Note_on_c, 4, 71, 100
6, 72774, Note_on_c, 4, 71, 0
6, 72780, Note_on_c, 4, 68, 100
6, 72834, Note_on_c, 4, 68, 0
6, 72840, Note_on_c, 4, 67, 100
6, 72894, Note_on_c, 4, 67, 0
6, 72900, Note_on_c, 4, 65, 100
6, 72954, Note_on_c, 4, 65, 0
6, 73020, Note_on_c, 4, 64, 100
6, 73074, Note_on_c, 4, 64, 0
6, 73080, Note_on_c, 4, 65, 100
6, 73134, Note_on_c, 4, 65, 0
6, 73140, Note_on_c, 4, 67, 100
6, 73194, Note_on_c, 4, 67, 0
6, 73200, Note_on_c, 4, 70, 100
6, 73254, Note_on_c, 4, 70, 0
6, 73260, Note_on_c, 4, 67, 100
6, 73314, Note_on_c, 4, 67, 0
6, 73320, Note_on_c, 4, 65, 100
6, 73374, Note_on_c, 4, 65, 0
6, 73380, Note_on_c, 4, 64, 100
6, 73434, Note_on_c, 4, 64, 0
6, 73500, Note_on_c, 4, 64, 100
6, 73554, Note_on_c, 4, 64, 0
6, 73560, Note_on_c, 4, 65, 100
6, 73614, Note_on_c, 4, 65, 0
6, 73620, Note_on_c, 4, 67, 100
6, 73674, Note_on_c, 4, 67, 0
6, 73680, Note_on_c, 4, 70, 100
6, 73734, Note_on_c, 4, 70, 0
6, 73740, Note_on_c, 4, 67, 100
6, 73794, Note_on_c, 4, 67, 0
6, 73800, Note_on_c, 4, 65, 100
6, 73854, Note_on_c, 4, 65, 0
6, 73860, Note_on_c, 4, 64, 100
6, 73914, Note_on_c, 4, 64, 0
6, 73980, Note_on_c, 4, 64, 100
6, 74034, Note_on_c, 4, 64, 0
6, 74040, Note_on_c, 4, 66, 100
6, 74094, Note_on_c, 4, 66, 0
6, 74100, Note_on_c, 4, 67, 100
6, 74154, Note_on_c, 4, 67, 0
6, 74160, Note_on_c, 4, 69, 100
6, 74214, Note_on_c, 4, 69, 0
6, 74220, Note_on_c, 4, 67, 100
6, 74274, Note_on_c, 4, 67, 0
6, 74280, Note_on_c, 4, 66, 100
6, 74334, Note_on_c, 4, 66, 0
6, 74340, Note_on_c, 4, 64, 100
6, 74394, Note_on_c, 4, 64, 0
6, 74460, Note_on_c, 4, 64, 100
6, 74514, Note_on_c, 4, 64, 0
6, 74520, Note_on_c, 4, 66, 100
6, 74574, Note_on_c, 4, 66, 0
6, 74580, Note_on_c, 4, 67, 100
6, 74634, Note_on_c, 4, 67, 0
6, 74640, Note_on_c, 4, 69, 100
6, 74694, Note_on_c, 4, 69, 0
6, 74700, Note_on_c, 4, 67, 100
6, 74754, Note_on_c, 4, 67, 0
6, 74760, Note_on_c, 4, 66, 100
6, 74814, Note_on_c, 4, 66, 0
6, 74820, Note_on_c, 4, 64, 100
6, 74874, Note_on_c, 4, 64, 0
6, 74940, Note_on_c, 4, 63, 100
6, 74994, Note_on_c, 4, 63, 0
6, 75000, Note_on_c, 4, 64, 100
6, 75054, Note_on_c, 4, 64, 0
6, 75060, Note_on_c, 4, 66, 100
6, 75114, Note_on_c, 4, 66, 0
6, 75120, Note_on_c, 4, 69, 100
6, 75174, Note_on_c, 4, 69, 0
6, 75180, Note_on_c, 4, 66, 100
6, 75234, Note_on_c, 4, 66, 0
6, 75240, Note_on_c, 4, 64, 100
6, 75294, Note_on_c, 4, 64, 0
6, 75300, Note_on_c, 4, 63, 100
6, 75354, Note_on_c, 4, 63, 0
6, 75420, Note_on_c, 4, 63, 100
6, 75474, Note_on_c, 4, 63, 0
6, 75480, Note_on_c, 4, 64, 100
6, 75534, Note_on_c, 4, 64, 0
6, 75540, Note_on_c, 4, 66, 100
6, 75594, Note_on_c, 4, 66, 0
6, 75600, Note_on_c, 4, 69, 100
6, 75654, Note_on_c, 4, 69, 0
6, 75660, Note_on_c, 4, 66, 100
6, 75714, Note_on_c, 4, 66, 0
6, 75720, Note_on_c, 4, 64, 100
6, 75774, Note_on_c, 4, 64, 0
6, 75780, Note_on_c, 4, 63, 100
6, 75834, Note_on_c, 4, 63, 0
6, 75840, Note_on_c, 4, 64, 100
6, 76056, Note_on_c, 4, 64, 0
6, 76080, Note_on_c, 4, 55, 100
6, 76188, Note_on_c, 4, 55, 0
6, 76200, Note_on_c, 4, 54, 100
6, 76308, Note_on_c, 4, 54, 0
6, 76320, Note_on_c, 4, 55, 100
6, 76428, Note_on_c, 4, 55, 0
6, 76440, Note_on_c, 4, 57, 100
6, 76548, Note_on_c, 4, 57, 0
6, 76560, Note_on_c, 4, 59, 100
6, 76668, Note_on_c, 4, 59, 0
6, 76680, Note_on_c, 4, 60, 100
6, 76788, Note_on_c, 4, 60, 0
6, 76800, Note_on_c, 4, 62, 100
6, 76908, Note_on_c, 4, 62, 0
6, 76920, Note_on_c, 4, 60, 100
6, 77028, Note_on_c, 4, 60, 0
6, 77040, Note_on_c, 4, 62, 100
6, 77148, Note_on_c, 4, 62, 0
6, 77160, Note_on_c, 4, 64, 100
6, 77268, Note_on_c, 4, 64, 0
6, 77280, Note_on_c, 4, 66, 100
6, 77388, Note_on_c, 4, 66, 0
6, 77400, Note_on_c, 4, 64, 100
6, 77508, Note_on_c, 4, 64, 0
6, 77520, Note_on_c, 4, 66, 100
6, 77628, Note_on_c, 4, 66, 0
6, 77640, Note_on_c, 4, 64, 100
6, 77748, Note_on_c, 4, 64, 0
6, 77760, Note_on_c, 4, 67, 100
6, 77868, Note_on_c, 4, 67, 0
6, 77880, Note_on_c, 4, 66, 100
6, 77988, Note_on_c, 4, 66, 0
6, 78000, Note_on_c, 4, 67, 100
6, 78108, Note_on_c, 4, 67, 0
6, 78120, Note_on_c, 4, 69, 100
6, 78228, Note_on_c, 4, 69, 0
6, 78240, Note_on_c, 4, 71, 100
6, 78348, Note_on_c, 4, 71, 0
6, 78360, Note_on_c, 4, 69, 100
6, 78468, Note_on_c, 4, 69, 0
6, 78480, Note_on_c, 4, 71, 100
6, 78588, Note_on_c, 4, 71, 0
6, 78600, Note_on_c, 4, 72, 100
6, 78708, Note_on_c, 4, 72, 0
6, 78720, Note_on_c, 4, 66, 100
6, 78828, Note_on_c, 4, 66, 0
6, 78840, Note_on_c, 4, 71, 100
6, 78948, Note_on_c, 4, 71, 0
6, 78960, Note_on_c, 4, 75, 100
6, 79068, Note_on_c, 4, 75, 0
6, 79080, Note_on_c, 4, 71, 100
6, 79188, Note_on_c, 4, 71, 0
6, 79200, Note_on_c, 4, 76, 100
6, 79308, Note_on_c, 4, 76, 0
6, 79320, Note_on_c, 4, 71, 100
6, 79428, Note_on_c, 4, 71, 0
6, 79440, Note_on_c, 4, 67, 100
6, 79548, Note_on_c, 4, 67, 0
6, 79560, Note_on_c, 4, 71, 100
6, 79668, Note_on_c, 4, 71, 0
6, 79680, Note_on_c, 4, 64, 100
6, 79788, Note_on_c, 4, 64, 0
6, 79800, Note_on_c, 4, 67, 100
6, 79908, Note_on_c, 4, 67, 0
6, 79920, Note_on_c, 4, 72, 100
6, 80268, Note_on_c, 4, 72, 0
6, 80280, Note_on_c, 4, 69, 100
6, 80388, Note_on_c, 4, 69, 0
6, 80400, Note_on_c, 4, 66, 100
6, 80508, Note_on_c, 4, 66, 0
6, 80520, Note_on_c, 4, 69, 100
6, 80628, Note_on_c, 4, 69, 0
6, 80640, Note_on_c, 4, 62, 100
6, 80748, Note_on_c, 4, 62, 0
6, 80760, Note_on_c, 4, 66, 100
6, 80868, Note_on_c, 4, 66, 0
6, 80880, Note_on_c, 4, 71, 100
6, 81228, Note_on_c, 4, 71, 0
6, 81240, Note_on_c, 4, 67, 100
6, 81348, Note_on_c, 4, 67, 0
6, 81360, Note_on_c, 4, 64, 100
6, 81468, Note_on_c, 4, 64, 0
6, 81480, Note_on_c, 4, 67, 100
6, 81588, Note_on_c, 4, 67, 0
6, 81600, Note_on_c, 4, 60, 100
6, 81708, Note_on_c, 4, 60, 0
6, 81720, Note_on_c, 4, 64, 100
6, 81828, Note_on_c, 4, 64, 0
6, 81840, Note_on_c, 4, 69, 100
6, 82188, Note_on_c, 4, 69, 0
6, 82200, Note_on_c, 4, 66, 100
6, 82308, Note_on_c, 4, 66, 0
6, 82320, Note_on_c, 4, 62, 100
6, 82428, Note_on_c, 4, 62, 0
6, 82440, Note_on_c, 4, 66, 100
6, 82548, Note_on_c, 4, 66, 0
6, 82560, Note_on_c, 4, 59, 100
6, 82668, Note_on_c, 4, 59, 0
6, 82680, Note_on_c, 4, 64, 100
6, 82788, Note_on_c, 4, 64, 0
6, 82800, Note_on_c, 4, 68, 100
6, 82908, Note_on_c, 4, 68, 0
6, 82920, Note_on_c, 4, 71, 100
6, 83028, Note_on_c, 4, 71, 0
6, 83040, Note_on_c, 4, 64, 100
6, 83148, Note_on_c, 4, 64, 0
6, 83160, Note_on_c, 4, 69, 100
6, 83268, Note_on_c, 4, 69, 0
6, 83280, Note_on_c, 4, 72, 100
6, 83388, Note_on_c, 4, 72, 0
6, 83400, Note_on_c, 4, 76, 100
6, 83508, Note_on_c, 4, 76, 0
6, 83520, Note_on_c, 4, 64, 100
6, 83628, Note_on_c, 4, 64, 0
6, 83640, Note_on_c, 4, 68, 100
6, 83748, Note_on_c, 4, 68, 0
6, 83760, Note_on_c, 4, 71, 100
6, 83868, Note_on_c, 4, 71, 0
6, 83880, Note_on_c, 4, 68, 100
6, 83988, Note_on_c, 4, 68, 0
6, 84000, Note_on_c, 4, 64, 100
6, 84108, Note_on_c, 4, 64, 0
6, 84120, Note_on_c, 4, 69, 100
6, 84228, Note_on_c, 4, 69, 0
6, 84240, Note_on_c, 4, 72, 100
6, 84348, Note_on_c, 4, 72, 0
6, 84360, Note_on_c, 4, 76, 100
6, 84468, Note_on_c, 4, 76, 0
6, 84480, Note_on_c, 4, 64, 100
6, 84696, Note_on_c, 4, 64, 0
6, 84720, Note_on_c, 4, 71, 100
6, 84792, Note_on_c, 4, 71, 0
6, 84800, Note_on_c, 4, 69, 100
6, 84872, Note_on_c, 4, 69, 0
6, 84880, Note_on_c, 4, 71, 100
6, 84952, Note_on_c, 4, 71, 0
6, 84960, Note_on_c, 4, 72, 100
6, 85032, Note_on_c, 4, 72, 0
6, 85040, Note_on_c, 4, 71, 100
6, 85112, Note_on_c, 4, 71, 0
6, 85120, Note_on_c, 4, 72, 100
6, 85192, Note_on_c, 4, 72, 0
6, 85200, Note_on_c, 4, 74, 100
6, 85272, Note_on_c, 4, 74, 0
6, 85280, Note_on_c, 4, 72, 100
6, 85352, Note_on_c, 4, 72, 0
6, 85360, Note_on_c, 4, 74, 100
6, 85432, Note_on_c, 4, 74, 0
6, 85440, Note_on_c, 4, 76, 100
6, 85992, Note_on_c, 4, 76, 0
6, 86000, Note_on_c, 4, 77, 100
6, 86072, Note_on_c, 4, 77, 0
6, 86080, Note_on_c, 4, 76, 100
6, 86152, Note_on_c, 4, 76, 0
6, 86160, Note_on_c, 4, 74, 100
6, 86232, Note_on_c, 4, 74, 0
6, 86240, Note_on_c, 4, 76, 100
6, 86312, Note_on_c, 4, 76, 0
6, 86320, Note_on_c, 4, 74, 100
6, 86392, Note_on_c, 4, 74, 0
6, 86400, Note_on_c, 4, 72, 100
6, 86616, Note_on_c, 4, 72, 0
6, 87600, Note_on_c, 4, 69, 100
6, 87672, Note_on_c, 4, 69, 0
6, 87680, Note_on_c, 4, 67, 100
6, 87752, Note_on_c, 4, 67, 0
6, 87760, Note_on_c, 4, 69, 100
6, 87832, Note_on_c, 4, 69, 0
6, 87840, Note_on_c, 4, 71, 100
6, 87912, Note_on_c, 4, 71, 0
6, 87920, Note_on_c, 4, 69, 100
6, 87992, Note_on_c, 4, 69, 0
6, 88000, Note_on_c, 4, 71, 100
6, 88072, Note_on_c, 4, 71, 0
6, 88080, Note_on_c, 4, 73, 100
6, 88152, Note_on_c, 4, 73, 0
6, 88160, Note_on_c, 4, 71, 100
6, 88232, Note_on_c, 4, 71, 0
6, 88240, Note_on_c, 4, 73, 100
6, 88312, Note_on_c, 4, 73, 0
6, 88320, Note_on_c, 4, 74, 100
6, 88536, Note_on_c, 4, 74, 0
6, 88560, Note_on_c, 4, 66, 100
6, 88632, Note_on_c, 4, 66, 0
6, 88640, Note_on_c, 4, 64, 100
6, 88712, Note_on_c, 4, 64, 0
6, 88720, Note_on_c, 4, 66, 100
6, 88792, Note_on_c, 4, 66, 0
6, 88800, Note_on_c, 4, 67, 100
6, 88872, Note_on_c, 4, 67, 0
6, 88880, Note_on_c, 4, 66, 100
6, 88952, Note_on_c, 4, 66, 0
6, 88960, Note_on_c, 4, 67, 100
6, 89032, Note_on_c, 4, 67, 0
6, 89040, Note_on_c, 4, 69, 100
6, 89112, Note_on_c, 4, 69, 0
6, 89120, Note_on_c, 4, 67, 100
6, 89192, Note_on_c, 4, 67, 0
6, 89200, Note_on_c, 4, 69, 100
6, 89272, Note_on_c, 4, 69, 0
6, 89280, Note_on_c, 4, 71, 100
6, 89832, Note_on_c, 4, 71, 0
6, 89840, Note_on_c, 4, 72, 100
6, 89912, Note_on_c, 4, 72, 0
6, 89920, Note_on_c, 4, 71, 100
6, 89992, Note_on_c, 4, 71, 0
6, 90000, Note_on_c, 4, 69, 100
6, 90072, Note_on_c, 4, 69, 0
6, 90080, Note_on_c, 4, 71, 100
6, 90152, Note_on_c, 4, 71, 0
6, 90160, Note_on_c, 4, 69, 100
6, 90232, Note_on_c, 4, 69, 0
6, 90240, Note_on_c, 4, 67, 100
6, 90456, Note_on_c, 4, 67, 0
6, 91440, Note_on_c, 4, 79, 100
6, 91512, Note_on_c, 4, 79, 0
6, 91520, Note_on_c, 4, 77, 100
6, 91592, Note_on_c, 4, 77, 0
6, 91600, Note_on_c, 4, 79, 100
6, 91672, Note_on_c, 4, 79, 0
6, 91680, Note_on_c, 4, 81, 100
6, 91752, Note_on_c, 4, 81, 0
6, 91760, Note_on_c, 4, 79, 100
6, 91832, Note_on_c, 4, 79, 0
6, 91840, Note_on_c, 4, 81, 100
6, 91912, Note_on_c, 4, 81, 0
6, 91920, Note_on_c, 4, 83, 100
6, 91992, Note_on_c, 4, 83, 0
6, 92000, Note_on_c, 4, 81, 100
6, 92072, Note_on_c, 4, 81, 0
6, 92080, Note_on_c, 4, 83, 100
6, 92152, Note_on_c, 4, 83, 0
6, 92160, Note_on_c, 4, 84, 100
6, 92376, Note_on_c, 4, 84, 0
6, 92580, Note_on_c, 4, 79, 100
6, 92634, Note_on_c, 4, 79, 0
6, 92640, Note_on_c, 4, 81, 100
6, 93042, Note_on_c, 4, 81, 0
6, 93060, Note_on_c, 4, 77, 100
6, 93114, Note_on_c, 4, 77, 0
6, 93120, Note_on_c, 4, 79, 100
6, 93522, Note_on_c, 4, 79, 0
6, 93540, Note_on_c, 4, 76, 100
6, 93594, Note_on_c, 4, 76, 0
6, 93600, Note_on_c, 4, 77, 100
6, 94002, Note_on_c, 4, 77, 0
6, 94020, Note_on_c, 4, 74, 100
6, 94074, Note_on_c, 4, 74, 0
6, 94080, Note_on_c, 4, 76, 100
6, 94728, Note_on_c, 4, 76, 0
6, 94800, Note_on_c, 4, 74, 100
6, 94962, Note_on_c, 4, 74, 0
6, 94980, Note_on_c, 4, 72, 100
6, 95034, Note_on_c, 4, 72, 0
6, 95040, Note_on_c, 4, 71, 100
6, 95148, Note_on_c, 4, 71, 0
6, 95160, Note_on_c, 4, 74, 100
6, 95268, Note_on_c, 4, 74, 0
6, 95280, Note_on_c, 4, 67, 100
6, 95388, Note_on_c, 4, 67, 0
6, 95400, Note_on_c, 4, 71, 100
6, 95508, Note_on_c, 4, 71, 0
6, 95520, Note_on_c, 4, 72, 100
6, 95628, Note_on_c, 4, 72, 0
6, 95640, Note_on_c, 4, 76, 100
6, 95748, Note_on_c, 4, 76, 0
6, 95760, Note_on_c, 4, 67, 100
6, 95868, Note_on_c, 4, 67, 0
6, 95880, Note_on_c, 4, 72, 100
6, 95988, Note_on_c, 4, 72, 0
6, 96000, Note_on_c, 4, 71, 100
6, 96108, Note_on_c, 4, 71, 0
6, 96120, Note_on_c, 4, 74, 100
6, 96228, Note_on_c, 4, 74, 0
6, 96240, Note_on_c, 4, 67, 100
6, 96348, Note_on_c, 4, 67, 0
6, 96360, Note_on_c, 4, 71, 100
6, 96468, Note_on_c, 4, 71, 0
6, 96480, Note_on_c, 4, 72, 100
6, 96588, Note_on_c, 4, 72, 0
6, 96600, Note_on_c, 4, 76, 100
6, 96708, Note_on_c, 4, 76, 0
6, 96720, Note_on_c, 4, 67, 100
6, 96828, Note_on_c, 4, 67, 0
6, 96840, Note_on_c, 4, 72, 100
6, 96948, Note_on_c, 4, 72, 0
6, 96960, Note_on_c, 4, 71, 100
6, 97176, Note_on_c, 4, 71, 0
6, 120120, Note_on_c, 4, 66, 100
6, 120228, Note_on_c, 4, 66, 0
6, 120240, Note_on_c, 4, 67, 100
6, 120348, Note_on_c, 4, 67, 0
6, 120360, Note_on_c, 4, 69, 100
6, 120468, Note_on_c, 4, 69, 0
6, 120480, Note_on_c, 4, 70, 100
6, 121068, Note_on_c, 4, 70, 0
6, 121080, Note_on_c, 4, 72, 100
6, 121188, Note_on_c, 4, 72, 0
6, 121200, Note_on_c, 4, 70, 100
6, 121308, Note_on_c, 4, 70, 0
6, 121320, Note_on_c, 4, 69, 100
6, 121428, Note_on_c, 4, 69, 0
6, 121440, Note_on_c, 4, 67, 100
6, 121548, Note_on_c, 4, 67, 0
6, 121560, Note_on_c, 4, 69, 100
6, 121668, Note_on_c, 4, 69, 0
6, 121680, Note_on_c, 4, 70, 100
6, 121788, Note_on_c, 4, 70, 0
6, 121800, Note_on_c, 4, 67, 100
6, 121908, Note_on_c, 4, 67, 0
6, 121920, Note_on_c, 4, 69, 100
6, 122352, Note_on_c, 4, 69, 0
6, 122520, Note_on_c, 4, 69, 100
6, 122628, Note_on_c, 4, 69, 0
6, 122640, Note_on_c, 4, 71, 100
6, 122748, Note_on_c, 4, 71, 0
6, 122760, Note_on_c, 4, 72, 100
6, 122868, Note_on_c, 4, 72, 0
6, 122880, Note_on_c, 4, 74, 100
6, 123096, Note_on_c, 4, 74, 0
6, 123120, Note_on_c, 4, 72, 100
6, 123552, Note_on_c, 4, 72, 0
6, 123600, Note_on_c, 4, 71, 100
6, 123816, Note_on_c, 4, 71, 0
6, 123840, Note_on_c, 4, 72, 100
6, 124428, Note_on_c, 4, 72, 0
6, 124440, Note_on_c, 4, 74, 100
6, 124548, Note_on_c, 4, 74, 0
6, 124560, Note_on_c, 4, 72, 100
6, 124668, Note_on_c, 4, 72, 0
6, 124680, Note_on_c, 4, 71, 100
6, 124788, Note_on_c, 4, 71, 0
6, 124800, Note_on_c, 4, 69, 100
6, 124908, Note_on_c, 4, 69, 0
6, 124920, Note_on_c, 4, 62, 100
6, 125028, Note_on_c, 4, 62, 0
6, 125040, Note_on_c, 4, 74, 100
6, 125256, Note_on_c, 4, 74, 0
6, 125280, Note_on_c, 4, 74, 100
6, 125400, Note_on_c, 4, 67, 100
6, 125508, Note_on_c, 4, 67, 0
6, 125520, Note_on_c, 4, 69, 100
6, 125628, Note_on_c, 4, 69, 0
6, 125640, Note_on_c, 4, 66, 100
6, 125712, Note_on_c, 4, 74, 0
6, 125748, Note_on_c, 4, 66, 0
6, 125760, Note_on_c, 4, 62, 100
6, 125814, Note_on_c, 4, 62, 0
6, 125820, Note_on_c, 4, 72, 100
6, 125874, Note_on_c, 4, 72, 0
6, 125880, Note_on_c, 4, 71, 100
6, 125934, Note_on_c, 4, 71, 0
6, 125940, Note_on_c, 4, 69, 100
6, 125994, Note_on_c, 4, 69, 0
6, 126000, Note_on_c, 4, 67, 100
6, 126216, Note_on_c, 4, 67, 0
6, 126960, Note_on_c, 4, 69, 100
6, 127176, Note_on_c, 4, 69, 0
6, 127200, Note_on_c, 4, 74, 100
6, 127416, Note_on_c, 4, 74, 0
6, 127440, Note_on_c, 4, 74, 100
6, 127656, Note_on_c, 4, 74, 0
6, 127680, Note_on_c, 4, 74, 100
6, 127896, Note_on_c, 4, 74, 0
6, 127920, Note_on_c, 4, 76, 100
6, 128028, Note_on_c, 4, 76, 0
6, 128040, Note_on_c, 4, 74, 100
6, 128148, Note_on_c, 4, 74, 0
6, 128160, Note_on_c, 4, 72, 100
6, 128268, Note_on_c, 4, 72, 0
6, 128280, Note_on_c, 4, 71, 100
6, 128388, Note_on_c, 4, 71, 0
6, 128400, Note_on_c, 4, 72, 100
6, 128856, Note_on_c, 4, 72, 0
6, 128880, Note_on_c, 4, 71, 100
6, 128988, Note_on_c, 4, 71, 0
6, 129000, Note_on_c, 4, 69, 100
6, 129108, Note_on_c, 4, 69, 0
6, 129120, Note_on_c, 4, 67, 100
6, 129228, Note_on_c, 4, 67, 0
6, 129240, Note_on_c, 4, 66, 100
6, 129348, Note_on_c, 4, 66, 0
6, 129360, Note_on_c, 4, 67, 100
6, 129468, Note_on_c, 4, 67, 0
6, 129480, Note_on_c, 4, 62, 100
6, 129588, Note_on_c, 4, 62, 0
6, 129600, Note_on_c, 4, 67, 100
6, 129708, Note_on_c, 4, 67, 0
6, 129720, Note_on_c, 4, 71, 100
6, 129828, Note_on_c, 4, 71, 0
6, 129840, Note_on_c, 4, 64, 100
6, 129948, Note_on_c, 4, 64, 0
6, 129960, Note_on_c, 4, 67, 100
6, 130068, Note_on_c, 4, 67, 0
6, 130080, Note_on_c, 4, 60, 100
6, 130188, Note_on_c, 4, 60, 0
6, 130200, Note_on_c, 4, 66, 100
6, 130308, Note_on_c, 4, 66, 0
6, 130320, Note_on_c, 4, 69, 100
6, 130428, Note_on_c, 4, 69, 0
6, 130440, Note_on_c, 4, 60, 100
6, 130548, Note_on_c, 4, 60, 0
6, 130560, Note_on_c, 4, 66, 100
6, 130668, Note_on_c, 4, 66, 0
6, 130680, Note_on_c, 4, 69, 100
6, 130788, Note_on_c, 4, 69, 0
6, 130800, Note_on_c, 4, 67, 100
6, 130908, Note_on_c, 4, 67, 0
6, 130920, Note_on_c, 4, 66, 100
6, 131028, Note_on_c, 4, 66, 0
6, 131040, Note_on_c, 4, 64, 100
6, 131148, Note_on_c, 4, 64, 0
6, 131160, Note_on_c, 4, 59, 100
6, 131268, Note_on_c, 4, 59, 0
6, 131280, Note_on_c, 4, 64, 100
6, 131388, Note_on_c, 4, 64, 0
6, 131400, Note_on_c, 4, 62, 100
6, 131508, Note_on_c, 4, 62, 0
6, 131520, Note_on_c, 4, 64, 100
6, 131736, Note_on_c, 4, 64, 0
6, 131760, Note_on_c, 4, 60, 100
6, 131976, Note_on_c, 4, 60, 0
6, 132000, Note_on_c, 4, 57, 100
6, 132216, Note_on_c, 4, 57, 0
6, 132240, Note_on_c, 4, 62, 100
6, 132588, Note_on_c, 4, 62, 0
6, 132600, Note_on_c, 4, 67, 100
6, 132708, Note_on_c, 4, 67, 0
6, 132720, Note_on_c, 4, 62, 100
6, 132828, Note_on_c, 4, 62, 0
6, 132840, Note_on_c, 4, 59, 100
6, 132948, Note_on_c, 4, 59, 0
6, 132960, Note_on_c, 4, 55, 100
6, 133176, Note_on_c, 4, 55, 0
6, 133200, Note_on_c, 4, 67, 100
6, 133548, Note_on_c, 4, 67, 0
6, 133560, Note_on_c, 4, 62, 100
6, 133668, Note_on_c, 4, 62, 0
6, 133680, Note_on_c, 4, 59, 100
6, 133788, Note_on_c, 4, 59, 0
6, 133800, Note_on_c, 4, 62, 100
6, 133908, Note_on_c, 4, 62, 0
6, 133920, Note_on_c, 4, 64, 100
6, 134028, Note_on_c, 4, 64, 0
6, 134040, Note_on_c, 4, 67, 100
6, 134148, Note_on_c, 4, 67, 0
6, 134160, Note_on_c, 4, 64, 100
6, 134268, Note_on_c, 4, 64, 0
6, 134280, Note_on_c, 4, 60, 100
6, 134388, Note_on_c, 4, 60, 0
6, 134400, Note_on_c, 4, 55, 100
6, 134616, Note_on_c, 4, 55, 0
6, 167280, Note_on_c, 4, 55, 100
6, 167388, Note_on_c, 4, 55, 0
6, 167400, Note_on_c, 4, 53, 100
6, 167508, Note_on_c, 4, 53, 0
6, 167520, Note_on_c, 4, 55, 100
6, 167628, Note_on_c, 4, 55, 0
6, 167640, Note_on_c, 4, 57, 100
6, 167748, Note_on_c, 4, 57, 0
6, 167760, Note_on_c, 4, 59, 100
6, 167868, Note_on_c, 4, 59, 0
6, 167880, Note_on_c, 4, 60, 100
6, 167988, Note_on_c, 4, 60, 0
6, 168000, Note_on_c, 4, 62, 100
6, 168216, Note_on_c, 4, 62, 0
6, 168240, Note_on_c, 4, 74, 100
6, 168456, Note_on_c, 4, 74, 0
6, 168480, Note_on_c, 4, 71, 100
6, 168696, Note_on_c, 4, 71, 0
6, 168720, Note_on_c, 4, 67, 100
6, 168936, Note_on_c, 4, 67, 0
6, 168960, Note_on_c, 4, 76, 100
6, 169176, Note_on_c, 4, 76, 0
6, 169200, Note_on_c, 4, 72, 100
6, 169416, Note_on_c, 4, 72, 0
6, 169440, Note_on_c, 4, 69, 100
6, 169764, Note_on_c, 4, 69, 0
6, 169800, Note_on_c, 4, 67, 100
6, 169854, Note_on_c, 4, 67, 0
6, 169860, Note_on_c, 4, 69, 100
6, 169914, Note_on_c, 4, 69, 0
6, 169920, Note_on_c, 4, 71, 100
6, 170136, Note_on_c, 4, 71, 0
6, 170400, Note_on_c, 4, 67, 100
6, 170988, Note_on_c, 4, 67, 0
6, 171000, Note_on_c, 4, 60, 100
6, 171108, Note_on_c, 4, 60, 0
6, 171120, Note_on_c, 4, 57, 100
6, 171228, Note_on_c, 4, 57, 0
6, 171240, Note_on_c, 4, 60, 100
6, 171348, Note_on_c, 4, 60, 0
6, 171360, Note_on_c, 4, 65, 100
6, 171948, Note_on_c, 4, 65, 0
6, 171960, Note_on_c, 4, 59, 100
6, 172068, Note_on_c, 4, 59, 0
6, 172080, Note_on_c, 4, 55, 100
6, 172188, Note_on_c, 4, 55, 0
6, 172200, Note_on_c, 4, 59, 100
6, 172308, Note_on_c, 4, 59, 0
6, 172320, Note_on_c, 4, 64, 100
6, 172908, Note_on_c, 4, 64, 0
6, 172920, Note_on_c, 4, 57, 100
6, 173028, Note_on_c, 4, 57, 0
6, 173040, Note_on_c, 4, 53, 100
6, 173148, Note_on_c, 4, 53, 0
6, 173160, Note_on_c, 4, 57, 100
6, 173268, Note_on_c, 4, 57, 0
6, 173280, Note_on_c, 4, 62, 100
6, 173868, Note_on_c, 4, 62, 0
6, 173880, Note_on_c, 4, 55, 100
6, 173988, Note_on_c, 4, 55, 0
6, 174000, Note_on_c, 4, 52, 100
6, 174108, Note_on_c, 4, 52, 0
6, 174120, Note_on_c, 4, 55, 100
6, 174228, Note_on_c, 4, 55, 0
6, 174240, Note_on_c, 4, 60, 100
6, 174828, Note_on_c, 4, 60, 0
6, 174840, Note_on_c, 4, 55, 100
6, 174948, Note_on_c, 4, 55, 0
6, 174960, Note_on_c, 4, 52, 100
6, 175068, Note_on_c, 4, 52, 0
6, 175080, Note_on_c, 4, 55, 100
6, 175188, Note_on_c, 4, 55, 0
6, 175200, Note_on_c, 4, 60, 100
6, 175788, Note_on_c, 4, 60, 0
6, 175800, Note_on_c, 4, 60, 100
6, 175908, Note_on_c, 4, 60, 0
6, 175920, Note_on_c, 4, 62, 100
6, 176028, Note_on_c, 4, 62, 0
6, 176040, Note_on_c, 4, 64, 100
6, 176148, Note_on_c, 4, 64, 0
6, 176160, Note_on_c, 4, 65, 100
6, 176268, Note_on_c, 4, 65, 0
6, 176280, Note_on_c, 4, 67, 100
6, 176388, Note_on_c, 4, 67, 0
6, 176400, Note_on_c, 4, 69, 100
6, 176508, Note_on_c, 4, 69, 0
6, 176520, Note_on_c, 4, 71, 100
6, 176628, Note_on_c, 4, 71, 0
6, 176640, Note_on_c, 4, 72, 100
6, 176856, Note_on_c, 4, 72, 0
6, 176880, Note_on_c, 4, 65, 100
6, 176880, Note_on_c, 4, 69, 100
6, 176880, Note_on_c, 4, 74, 100
6, 177096, Note_on_c, 4, 65, 0
6, 177096, Note_on_c, 4, 69, 0
6, 177096, Note_on_c, 4, 74, 0
6, 177120, Note_on_c, 4, 64, 100
6, 177120, Note_on_c, 4, 67, 100
6, 177336, Note_on_c, 4, 64, 0
6, 177336, Note_on_c, 4, 67, 0
6, 177360, Note_on_c, 4, 62, 100
6, 177360, Note_on_c, 4, 65, 100
6, 177360, Note_on_c, 4, 71, 100
6, 177576, Note_on_c, 4, 62, 0
6, 177576, Note_on_c, 4, 65, 0
6, 177576, Note_on_c, 4, 71, 0
6, 177600, Note_on_c, 4, 60, 100
6, 177600, Note_on_c, 4, 64, 100
6, 177600, Note_on_c, 4, 67, 100
6, 177600, Note_on_c, 4, 72, 100
6, 177816, Note_on_c, 4, 60, 0
6, 177816, Note_on_c, 4, 64, 0
6, 177816, Note_on_c, 4, 67, 0
6, 177816, Note_on_c, 4, 72, 0
6, 177840, Note_on_c, 4, 67, 100
6, 178056, Note_on_c, 4, 67, 0
6, 178080, Note_on_c, 4, 65, 100
6, 178404, Note_on_c, 4, 65, 0
6, 178440, Note_on_c, 4, 64, 100
6, 178494, Note_on_c, 4, 64, 0
6, 178500, Note_on_c, 4, 65, 100
6, 178554, Note_on_c, 4, 65, 0
6, 178560, Note_on_c, 4, 72, 100
6, 178776, Note_on_c, 4, 72, 0
6, 178800, Note_on_c, 4, 67, 100
6, 179016, Note_on_c, 4, 67, 0
6, 179040, Note_on_c, 4, 65, 100
6, 179364, Note_on_c, 4, 65, 0
6, 179400, Note_on_c, 4, 64, 100
6, 179454, Note_on_c, 4, 64, 0
6, 179460, Note_on_c, 4, 65, 100
6, 179514, Note_on_c, 4, 65, 0
6, 179520, Note_on_c, 4, 60, 100
6, 179520, Note_on_c, 4, 67, 100
6, 179520, Note_on_c, 4, 72, 100
6, 179736, Note_on_c, 4, 60, 0
6, 179736, Note_on_c, 4, 67, 0
6, 179736, Note_on_c, 4, 72, 0
6, 180480, Note_on_c, 4, 60, 100
6, 180480, Note_on_c, 4, 64, 100
6, 180480, Note_on_c, 4, 67, 100
6, 180696, Note_on_c, 4, 60, 0
6, 180696, Note_on_c, 4, 64, 0
6, 180696, Note_on_c, 4, 67, 0
6, 181680, Note_on_c, 4, 67, 100
6, 181752, Note_on_c, 4, 67, 0
6, 181760, Note_on_c, 4, 65, 100
6, 181832, Note_on_c, 4, 65, 0
6, 181840, Note_on_c, 4, 67, 100
6, 181912, Note_on_c, 4, 67, 0
6, 181920, Note_on_c, 4, 69, 100
6, 181992, Note_on_c, 4, 69, 0
6, 182000, Note_on_c, 4, 67, 100
6, 182072, Note_on_c, 4, 67, 0
6, 182080, Note_on_c, 4, 69, 100
6, 182152, Note_on_c, 4, 69, 0
6, 182160, Note_on_c, 4, 71, 100
6, 182232, Note_on_c, 4, 71, 0
6, 182240, Note_on_c, 4, 69, 100
6, 182312, Note_on_c, 4, 69, 0
6, 182320, Note_on_c, 4, 71, 100
6, 182392, Note_on_c, 4, 71, 0
6, 182400, Note_on_c, 4, 72, 100
6, 182616, Note_on_c, 4, 72, 0
6, 182640, Note_on_c, 4, 65, 100
6, 182640, Note_on_c, 4, 69, 100
6, 182640, Note_on_c, 4, 74, 100
6, 182856, Note_on_c, 4, 65, 0
6, 182856, Note_on_c, 4, 69, 0
6, 182856, Note_on_c, 4, 74, 0
6, 182880, Note_on_c, 4, 64, 100
6, 182880, Note_on_c, 4, 67, 100
6, 183096, Note_on_c, 4, 64, 0
6, 183096, Note_on_c, 4, 67, 0
6, 183120, Note_on_c, 4, 62, 100
6, 183120, Note_on_c, 4, 65, 100
6, 183120, Note_on_c, 4, 67, 100
6, 183120, Note_on_c, 4, 71, 100
6, 183336, Note_on_c, 4, 62, 0
6, 183336, Note_on_c, 4, 65, 0
6, 183336, Note_on_c, 4, 67, 0
6, 183336, Note_on_c, 4, 71, 0
6, 183360, Note_on_c, 4, 60, 100
6, 183360, Note_on_c, 4, 64, 100
6, 183360, Note_on_c, 4, 67, 100
6, 183360, Note_on_c, 4, 72, 100
6, 184224, Note_on_c, 4, 60, 0
6, 184224, Note_on_c, 4, 64, 0
6, 184224, Note_on_c, 4, 67, 0
6, 184224, Note_on_c, 4, 72, 0
6, 184224, End_track
7, 0, Start_track
7, 0, Sequence_number, 65535
7, 0, MIDI_port, 0
7, 0, Title_t, "~"
7, 0, Control_c, 5, 0, 0
7, 0, Control_c, 5, 32, 0
7, 0, Program_c, 5, 6
7, 0, Control_c, 5, 7, 80
7, 0, Control_c, 5, 10, 79
7, 0, Note_on_c, 5, 60, 100
7, 864, Note_on_c, 5, 60, 0
7, 960, Note_on_c, 5, 59, 100
7, 1824, Note_on_c, 5, 59, 0
7, 1920, Note_on_c, 5, 57, 100
7, 2784, Note_on_c, 5, 57, 0
7, 2880, Note_on_c, 5, 55, 100
7, 2988, Note_on_c, 5, 55, 0
7, 3000, Note_on_c, 5, 65, 100
7, 3108, Note_on_c, 5, 65, 0
7, 3120, Note_on_c, 5, 64, 100
7, 3228, Note_on_c, 5, 64, 0
7, 3240, Note_on_c, 5, 62, 100
7, 3348, Note_on_c, 5, 62, 0
7, 3360, Note_on_c, 5, 60, 100
7, 4056, Note_on_c, 5, 60, 0
7, 4080, Note_on_c, 5, 62, 100
7, 4188, Note_on_c, 5, 62, 0
7, 4200, Note_on_c, 5, 64, 100
7, 4308, Note_on_c, 5, 64, 0
7, 4320, Note_on_c, 5, 65, 100
7, 4536, Note_on_c, 5, 65, 0
7, 4560, Note_on_c, 5, 67, 100
7, 4776, Note_on_c, 5, 67, 0
7, 4800, Note_on_c, 5, 59, 100
7, 5016, Note_on_c, 5, 59, 0
7, 5040, Note_on_c, 5, 60, 100
7, 5148, Note_on_c, 5, 60, 0
7, 5160, Note_on_c, 5, 62, 100
7, 5268, Note_on_c, 5, 62, 0
7, 5280, Note_on_c, 5, 64, 100
7, 5496, Note_on_c, 5, 64, 0
7, 5520, Note_on_c, 5, 69, 100
7, 5736, Note_on_c, 5, 69, 0
7, 5760, Note_on_c, 5, 57, 100
7, 5976, Note_on_c, 5, 57, 0
7, 6000, Note_on_c, 5, 59, 100
7, 6108, Note_on_c, 5, 59, 0
7, 6120, Note_on_c, 5, 60, 100
7, 6228, Note_on_c, 5, 60, 0
7, 6240, Note_on_c, 5, 62, 100
7, 6348, Note_on_c, 5, 62, 0
7, 6360, Note_on_c, 5, 55, 100
7, 6468, Note_on_c, 5, 55, 0
7, 6480, Note_on_c, 5, 59, 100
7, 6588, Note_on_c, 5, 59, 0
7, 6600, Note_on_c, 5, 55, 100
7, 6708, Note_on_c, 5, 55, 0
7, 6720, Note_on_c, 5, 60, 100
7, 6936, Note_on_c, 5, 60, 0
7, 6960, Note_on_c, 5, 64, 100
7, 7176, Note_on_c, 5, 64, 0
7, 7200, Note_on_c, 5, 60, 100
7, 7416, Note_on_c, 5, 60, 0
7, 7440, Note_on_c, 5, 57, 100
7, 7656, Note_on_c, 5, 57, 0
7, 7680, Note_on_c, 5, 58, 100
7, 7896, Note_on_c, 5, 58, 0
7, 7920, Note_on_c, 5, 55, 100
7, 8136, Note_on_c, 5, 55, 0
7, 8160, Note_on_c, 5, 57, 100
7, 8376, Note_on_c, 5, 57, 0
7, 8400, Note_on_c, 5, 53, 100
7, 8508, Note_on_c, 5, 53, 0
7, 8520, Note_on_c, 5, 48, 100
7, 8628, Note_on_c, 5, 48, 0
7, 8640, Note_on_c, 5, 60, 100
7, 8856, Note_on_c, 5, 60, 0
7, 12480, Note_on_c, 5, 55, 100
7, 13344, Note_on_c, 5, 55, 0
7, 13440, Note_on_c, 5, 54, 100
7, 14304, Note_on_c, 5, 54, 0
7, 14400, Note_on_c, 5, 52, 100
7, 15264, Note_on_c, 5, 52, 0
7, 15360, Note_on_c, 5, 50, 100
7, 15468, Note_on_c, 5, 50, 0
7, 15480, Note_on_c, 5, 57, 100
7, 15588, Note_on_c, 5, 57, 0
7, 15600, Note_on_c, 5, 59, 100
7, 15708, Note_on_c, 5, 59, 0
7, 15720, Note_on_c, 5, 60, 100
7, 15828, Note_on_c, 5, 60, 0
7, 15840, Note_on_c, 5, 62, 100
7, 15948, Note_on_c, 5, 62, 0
7, 15960, Note_on_c, 5, 67, 100
7, 16068, Note_on_c, 5, 67, 0
7, 16080, Note_on_c, 5, 59, 100
7, 16188, Note_on_c, 5, 59, 0
7, 16200, Note_on_c, 5, 62, 100
7, 16308, Note_on_c, 5, 62, 0
7, 16320, Note_on_c, 5, 60, 100
7, 16908, Note_on_c, 5, 60, 0
7, 16920, Note_on_c, 5, 66, 100
7, 17028, Note_on_c, 5, 66, 0
7, 17040, Note_on_c, 5, 57, 100
7, 17148, Note_on_c, 5, 57, 0
7, 17160, Note_on_c, 5, 60, 100
7, 17268, Note_on_c, 5, 60, 0
7, 17280, Note_on_c, 5, 59, 100
7, 17868, Note_on_c, 5, 59, 0
7, 17880, Note_on_c, 5, 64, 100
7, 17988, Note_on_c, 5, 64, 0
7, 18000, Note_on_c, 5, 55, 100
7, 18108, Note_on_c, 5, 55, 0
7, 18120, Note_on_c, 5, 59, 100
7, 18228, Note_on_c, 5, 59, 0
7, 18240, Note_on_c, 5, 57, 100
7, 18828, Note_on_c, 5, 57, 0
7, 18840, Note_on_c, 5, 62, 100
7, 18948, Note_on_c, 5, 62, 0
7, 18960, Note_on_c, 5, 54, 100
7, 19068, Note_on_c, 5, 54, 0
7, 19080, Note_on_c, 5, 57, 100
7, 19188, Note_on_c, 5, 57, 0
7, 19200, Note_on_c, 5, 55, 100
7, 19788, Note_on_c, 5, 55, 0
7, 19800, Note_on_c, 5, 60, 100
7, 19908, Note_on_c, 5, 60, 0
7, 19920, Note_on_c, 5, 52, 100
7, 20028, Note_on_c, 5, 52, 0
7, 20040, Note_on_c, 5, 55, 100
7, 20148, Note_on_c, 5, 55, 0
7, 20160, Note_on_c, 5, 43, 100
7, 20748, Note_on_c, 5, 43, 0
7, 20760, Note_on_c, 5, 48, 100
7, 20868, Note_on_c, 5, 48, 0
7, 20880, Note_on_c, 5, 40, 100
7, 20988, Note_on_c, 5, 40, 0
7, 21000, Note_on_c, 5, 43, 100
7, 21108, Note_on_c, 5, 43, 0
7, 21120, Note_on_c, 5, 31, 100
7, 21336, Note_on_c, 5, 31, 0
7, 22320, Note_on_c, 5, 50, 100
7, 22536, Note_on_c, 5, 50, 0
7, 22560, Note_on_c, 5, 57, 100
7, 22776, Note_on_c, 5, 57, 0
7, 22800, Note_on_c, 5, 45, 100
7, 23016, Note_on_c, 5, 45, 0
7, 23040, Note_on_c, 5, 38, 100
7, 23256, Note_on_c, 5, 38, 0
7, 24240, Note_on_c, 5, 45, 100
7, 24456, Note_on_c, 5, 45, 0
7, 24480, Note_on_c, 5, 55, 100
7, 24696, Note_on_c, 5, 55, 0
7, 24720, Note_on_c, 5, 43, 100
7, 24936, Note_on_c, 5, 43, 0
7, 24960, Note_on_c, 5, 36, 100
7, 25068, Note_on_c, 5, 36, 0
7, 25080, Note_on_c, 5, 55, 100
7, 25188, Note_on_c, 5, 55, 0
7, 25200, Note_on_c, 5, 57, 100
7, 25308, Note_on_c, 5, 57, 0
7, 25320, Note_on_c, 5, 59, 100
7, 25428, Note_on_c, 5, 59, 0
7, 25440, Note_on_c, 5, 60, 100
7, 26028, Note_on_c, 5, 60, 0
7, 26040, Note_on_c, 5, 62, 100
7, 26148, Note_on_c, 5, 62, 0
7, 26160, Note_on_c, 5, 59, 100
7, 26268, Note_on_c, 5, 59, 0
7, 26280, Note_on_c, 5, 60, 100
7, 26388, Note_on_c, 5, 60, 0
7, 26400, Note_on_c, 5, 57, 100
7, 26508, Note_on_c, 5, 57, 0
7, 26520, Note_on_c, 5, 59, 100
7, 26628, Note_on_c, 5, 59, 0
7, 26640, Note_on_c, 5, 60, 100
7, 26748, Note_on_c, 5, 60, 0
7, 26760, Note_on_c, 5, 57, 100
7, 26868, Note_on_c, 5, 57, 0
7, 26880, Note_on_c, 5, 59, 100
7, 26988, Note_on_c, 5, 59, 0
7, 27000, Note_on_c, 5, 62, 100
7, 27108, Note_on_c, 5, 62, 0
7, 27120, Note_on_c, 5, 55, 100
7, 27228, Note_on_c, 5, 55, 0
7, 27240, Note_on_c, 5, 59, 100
7, 27348, Note_on_c, 5, 59, 0
7, 27360, Note_on_c, 5, 60, 100
7, 27468, Note_on_c, 5, 60, 0
7, 27480, Note_on_c, 5, 64, 100
7, 27588, Note_on_c, 5, 64, 0
7, 27600, Note_on_c, 5, 55, 100
7, 27708, Note_on_c, 5, 55, 0
7, 27720, Note_on_c, 5, 59, 100
7, 27828, Note_on_c, 5, 59, 0
7, 27840, Note_on_c, 5, 57, 100
7, 27948, Note_on_c, 5, 57, 0
7, 27960, Note_on_c, 5, 60, 100
7, 28068, Note_on_c, 5, 60, 0
7, 28080, Note_on_c, 5, 53, 100
7, 28188, Note_on_c, 5, 53, 0
7, 28200, Note_on_c, 5, 57, 100
7, 28308, Note_on_c, 5, 57, 0
7, 28320, Note_on_c, 5, 59, 100
7, 28428, Note_on_c, 5, 59, 0
7, 28440, Note_on_c, 5, 62, 100
7, 28548, Note_on_c, 5, 62, 0
7, 28560, Note_on_c, 5, 53, 100
7, 28668, Note_on_c, 5, 53, 0
7, 28680, Note_on_c, 5, 57, 100
7, 28788, Note_on_c, 5, 57, 0
7, 28800, Note_on_c, 5, 55, 100
7, 28908, Note_on_c, 5, 55, 0
7, 28920, Note_on_c, 5, 59, 100
7, 29028, Note_on_c, 5, 59, 0
7, 29040, Note_on_c, 5, 52, 100
7, 29148, Note_on_c, 5, 52, 0
7, 29160, Note_on_c, 5, 55, 100
7, 29268, Note_on_c, 5, 55, 0
7, 29280, Note_on_c, 5, 57, 100
7, 29388, Note_on_c, 5, 57, 0
7, 29400, Note_on_c, 5, 60, 100
7, 29508, Note_on_c, 5, 60, 0
7, 29520, Note_on_c, 5, 52, 100
7, 29628, Note_on_c, 5, 52, 0
7, 29640, Note_on_c, 5, 55, 100
7, 29748, Note_on_c, 5, 55, 0
7, 29760, Note_on_c, 5, 53, 100
7, 29868, Note_on_c, 5, 53, 0
7, 29880, Note_on_c, 5, 57, 100
7, 29988, Note_on_c, 5, 57, 0
7, 30000, Note_on_c, 5, 50, 100
7, 30108, Note_on_c, 5, 50, 0
7, 30120, Note_on_c, 5, 53, 100
7, 30228, Note_on_c, 5, 53, 0
7, 30240, Note_on_c, 5, 55, 100
7, 30348, Note_on_c, 5, 55, 0
7, 30360, Note_on_c, 5, 59, 100
7, 30468, Note_on_c, 5, 59, 0
7, 30480, Note_on_c, 5, 50, 100
7, 30588, Note_on_c, 5, 50, 0
7, 30600, Note_on_c, 5, 53, 100
7, 30708, Note_on_c, 5, 53, 0
7, 30720, Note_on_c, 5, 52, 100
7, 30828, Note_on_c, 5, 52, 0
7, 30840, Note_on_c, 5, 55, 100
7, 30948, Note_on_c, 5, 55, 0
7, 30960, Note_on_c, 5, 48, 100
7, 31068, Note_on_c, 5, 48, 0
7, 31080, Note_on_c, 5, 52, 100
7, 31188, Note_on_c, 5, 52, 0
7, 31200, Note_on_c, 5, 53, 100
7, 31308, Note_on_c, 5, 53, 0
7, 31320, Note_on_c, 5, 57, 100
7, 31428, Note_on_c, 5, 57, 0
7, 31440, Note_on_c, 5, 48, 100
7, 31548, Note_on_c, 5, 48, 0
7, 31560, Note_on_c, 5, 53, 100
7, 31668, Note_on_c, 5, 53, 0
7, 31680, Note_on_c, 5, 52, 100
7, 31788, Note_on_c, 5, 52, 0
7, 31800, Note_on_c, 5, 55, 100
7, 31908, Note_on_c, 5, 55, 0
7, 31920, Note_on_c, 5, 48, 100
7, 32028, Note_on_c, 5, 48, 0
7, 32040, Note_on_c, 5, 52, 100
7, 32148, Note_on_c, 5, 52, 0
7, 32160, Note_on_c, 5, 53, 100
7, 32268, Note_on_c, 5, 53, 0
7, 32280, Note_on_c, 5, 57, 100
7, 32388, Note_on_c, 5, 57, 0
7, 32400, Note_on_c, 5, 48, 100
7, 32508, Note_on_c, 5, 48, 0
7, 32520, Note_on_c, 5, 53, 100
7, 32628, Note_on_c, 5, 53, 0
7, 32640, Note_on_c, 5, 52, 100
7, 32748, Note_on_c, 5, 52, 0
7, 32760, Note_on_c, 5, 48, 100
7, 32868, Note_on_c, 5, 48, 0
7, 32880, Note_on_c, 5, 52, 100
7, 32988, Note_on_c, 5, 52, 0
7, 33000, Note_on_c, 5, 50, 100
7, 33108, Note_on_c, 5, 50, 0
7, 33120, Note_on_c, 5, 52, 100
7, 33228, Note_on_c, 5, 52, 0
7, 33240, Note_on_c, 5, 53, 100
7, 33348, Note_on_c, 5, 53, 0
7, 33360, Note_on_c, 5, 55, 100
7, 33468, Note_on_c, 5, 55, 0
7, 33480, Note_on_c, 5, 57, 100
7, 33588, Note_on_c, 5, 57, 0
7, 33600, Note_on_c, 5, 59, 100
7, 33708, Note_on_c, 5, 59, 0
7, 33720, Note_on_c, 5, 57, 100
7, 33828, Note_on_c, 5, 57, 0
7, 33840, Note_on_c, 5, 59, 100
7, 33948, Note_on_c, 5, 59, 0
7, 33960, Note_on_c, 5, 60, 100
7, 34068, Note_on_c, 5, 60, 0
7, 34080, Note_on_c, 5, 62, 100
7, 34188, Note_on_c, 5, 62, 0
7, 34200, Note_on_c, 5, 60, 100
7, 34308, Note_on_c, 5, 60, 0
7, 34320, Note_on_c, 5, 62, 100
7, 34428, Note_on_c, 5, 62, 0
7, 34440, Note_on_c, 5, 59, 100
7, 34548, Note_on_c, 5, 59, 0
7, 34560, Note_on_c, 5, 64, 100
7, 34776, Note_on_c, 5, 64, 0
7, 34800, Note_on_c, 5, 69, 100
7, 34908, Note_on_c, 5, 69, 0
7, 34920, Note_on_c, 5, 67, 100
7, 35028, Note_on_c, 5, 67, 0
7, 35040, Note_on_c, 5, 69, 100
7, 35256, Note_on_c, 5, 69, 0
7, 35280, Note_on_c, 5, 57, 100
7, 35496, Note_on_c, 5, 57, 0
7, 35520, Note_on_c, 5, 62, 100
7, 35628, Note_on_c, 5, 62, 0
7, 35640, Note_on_c, 5, 59, 100
7, 35748, Note_on_c, 5, 59, 0
7, 35760, Note_on_c, 5, 60, 100
7, 35868, Note_on_c, 5, 60, 0
7, 35880, Note_on_c, 5, 62, 100
7, 35988, Note_on_c, 5, 62, 0
7, 36000, Note_on_c, 5, 64, 100
7, 36216, Note_on_c, 5, 64, 0
7, 36240, Note_on_c, 5, 64, 100
7, 36456, Note_on_c, 5, 64, 0
7, 36480, Note_on_c, 5, 64, 100
7, 36696, Note_on_c, 5, 64, 0
7, 36720, Note_on_c, 5, 62, 100
7, 36828, Note_on_c, 5, 62, 0
7, 36840, Note_on_c, 5, 60, 100
7, 36948, Note_on_c, 5, 60, 0
7, 36960, Note_on_c, 5, 62, 100
7, 37176, Note_on_c, 5, 62, 0
7, 37200, Note_on_c, 5, 62, 100
7, 37548, Note_on_c, 5, 62, 0
7, 37560, Note_on_c, 5, 55, 100
7, 37668, Note_on_c, 5, 55, 0
7, 37680, Note_on_c, 5, 57, 100
7, 37788, Note_on_c, 5, 57, 0
7, 37800, Note_on_c, 5, 59, 100
7, 37908, Note_on_c, 5, 59, 0
7, 37920, Note_on_c, 5, 60, 100
7, 38616, Note_on_c, 5, 60, 0
7, 38640, Note_on_c, 5, 59, 100
7, 38748, Note_on_c, 5, 59, 0
7, 38760, Note_on_c, 5, 57, 100
7, 38868, Note_on_c, 5, 57, 0
7, 38880, Note_on_c, 5, 59, 100
7, 39096, Note_on_c, 5, 59, 0
7, 39120, Note_on_c, 5, 55, 100
7, 39336, Note_on_c, 5, 55, 0
7, 39360, Note_on_c, 5, 60, 100
7, 39576, Note_on_c, 5, 60, 0
7, 40560, Note_on_c, 5, 57, 100
7, 40632, Note_on_c, 5, 57, 0
7, 40640, Note_on_c, 5, 55, 100
7, 40712, Note_on_c, 5, 55, 0
7, 40720, Note_on_c, 5, 57, 100
7, 40792, Note_on_c, 5, 57, 0
7, 40800, Note_on_c, 5, 58, 100
7, 40872, Note_on_c, 5, 58, 0
7, 40880, Note_on_c, 5, 57, 100
7, 40952, Note_on_c, 5, 57, 0
7, 40960, Note_on_c, 5, 58, 100
7, 41032, Note_on_c, 5, 58, 0
7, 41040, Note_on_c, 5, 60, 100
7, 41112, Note_on_c, 5, 60, 0
7, 41120, Note_on_c, 5, 58, 100
7, 41192, Note_on_c, 5, 58, 0
7, 41200, Note_on_c, 5, 60, 100
7, 41272, Note_on_c, 5, 60, 0
7, 41280, Note_on_c, 5, 53, 100
7, 41496, Note_on_c, 5, 53, 0
7, 41520, Note_on_c, 5, 60, 100
7, 41592, Note_on_c, 5, 60, 0
7, 41600, Note_on_c, 5, 59, 100
7, 41672, Note_on_c, 5, 59, 0
7, 41680, Note_on_c, 5, 60, 100
7, 41752, Note_on_c, 5, 60, 0
7, 41760, Note_on_c, 5, 62, 100
7, 41832, Note_on_c, 5, 62, 0
7, 41840, Note_on_c, 5, 60, 100
7, 41912, Note_on_c, 5, 60, 0
7, 41920, Note_on_c, 5, 62, 100
7, 41992, Note_on_c, 5, 62, 0
7, 42000, Note_on_c, 5, 64, 100
7, 42072, Note_on_c, 5, 64, 0
7, 42080, Note_on_c, 5, 62, 100
7, 42152, Note_on_c, 5, 62, 0
7, 42160, Note_on_c, 5, 64, 100
7, 42232, Note_on_c, 5, 64, 0
7, 42240, Note_on_c, 5, 54, 100
7, 42456, Note_on_c, 5, 54, 0
7, 42480, Note_on_c, 5, 59, 100
7, 42792, Note_on_c, 5, 59, 0
7, 42800, Note_on_c, 5, 60, 100
7, 42872, Note_on_c, 5, 60, 0
7, 42880, Note_on_c, 5, 59, 100
7, 42952, Note_on_c, 5, 59, 0
7, 42960, Note_on_c, 5, 57, 100
7, 43032, Note_on_c, 5, 57, 0
7, 43040, Note_on_c, 5, 59, 100
7, 43112, Note_on_c, 5, 59, 0
7, 43120, Note_on_c, 5, 57, 100
7, 43192, Note_on_c, 5, 57, 0
7, 43200, Note_on_c, 5, 55, 100
7, 43416, Note_on_c, 5, 55, 0
7, 44400, Note_on_c, 5, 48, 100
7, 44472, Note_on_c, 5, 48, 0
7, 44480, Note_on_c, 5, 47, 100
7, 44552, Note_on_c, 5, 47, 0
7, 44560, Note_on_c, 5, 48, 100
7, 44632, Note_on_c, 5, 48, 0
7, 44640, Note_on_c, 5, 50, 100
7, 44712, Note_on_c, 5, 50, 0
7, 44720, Note_on_c, 5, 48, 100
7, 44792, Note_on_c, 5, 48, 0
7, 44800, Note_on_c, 5, 50, 100
7, 44872, Note_on_c, 5, 50, 0
7, 44880, Note_on_c, 5, 52, 100
7, 44952, Note_on_c, 5, 52, 0
7, 44960, Note_on_c, 5, 50, 100
7, 45032, Note_on_c, 5, 50, 0
7, 45040, Note_on_c, 5, 52, 100
7, 45112, Note_on_c, 5, 52, 0
7, 45120, Note_on_c, 5, 53, 100
7, 45228, Note_on_c, 5, 53, 0
7, 45240, Note_on_c, 5, 52, 100
7, 45348, Note_on_c, 5, 52, 0
7, 45360, Note_on_c, 5, 53, 100
7, 45468, Note_on_c, 5, 53, 0
7, 45480, Note_on_c, 5, 55, 100
7, 45588, Note_on_c, 5, 55, 0
7, 45600, Note_on_c, 5, 53, 100
7, 45708, Note_on_c, 5, 53, 0
7, 45720, Note_on_c, 5, 57, 100
7, 45828, Note_on_c, 5, 57, 0
7, 45840, Note_on_c, 5, 50, 100
7, 45948, Note_on_c, 5, 50, 0
7, 45960, Note_on_c, 5, 53, 100
7, 46068, Note_on_c, 5, 53, 0
7, 46080, Note_on_c, 5, 52, 100
7, 46188, Note_on_c, 5, 52, 0
7, 46200, Note_on_c, 5, 53, 100
7, 46308, Note_on_c, 5, 53, 0
7, 46320, Note_on_c, 5, 47, 100
7, 46428, Note_on_c, 5, 47, 0
7, 46440, Note_on_c, 5, 50, 100
7, 46548, Note_on_c, 5, 50, 0
7, 46560, Note_on_c, 5, 48, 100
7, 46668, Note_on_c, 5, 48, 0
7, 46680, Note_on_c, 5, 52, 100
7, 46788, Note_on_c, 5, 52, 0
7, 46800, Note_on_c, 5, 45, 100
7, 46908, Note_on_c, 5, 45, 0
7, 46920, Note_on_c, 5, 48, 100
7, 47028, Note_on_c, 5, 48, 0
7, 47040, Note_on_c, 5, 50, 100
7, 47148, Note_on_c, 5, 50, 0
7, 47160, Note_on_c, 5, 53, 100
7, 47268, Note_on_c, 5, 53, 0
7, 47280, Note_on_c, 5, 45, 100
7, 47388, Note_on_c, 5, 45, 0
7, 47400, Note_on_c, 5, 48, 100
7, 47508, Note_on_c, 5, 48, 0
7, 47520, Note_on_c, 5, 47, 100
7, 47628, Note_on_c, 5, 47, 0
7, 47640, Note_on_c, 5, 50, 100
7, 47748, Note_on_c, 5, 50, 0
7, 47760, Note_on_c, 5, 43, 100
7, 47868, Note_on_c, 5, 43, 0
7, 47880, Note_on_c, 5, 47, 100
7, 47988, Note_on_c, 5, 47, 0
7, 48000, Note_on_c, 5, 48, 100
7, 48108, Note_on_c, 5, 48, 0
7, 48120, Note_on_c, 5, 52, 100
7, 48228, Note_on_c, 5, 52, 0
7, 48240, Note_on_c, 5, 43, 100
7, 48348, Note_on_c, 5, 43, 0
7, 48360, Note_on_c, 5, 47, 100
7, 48468, Note_on_c, 5, 47, 0
7, 48480, Note_on_c, 5, 45, 100
7, 48588, Note_on_c, 5, 45, 0
7, 48600, Note_on_c, 5, 48, 100
7, 48708, Note_on_c, 5, 48, 0
7, 48720, Note_on_c, 5, 41, 100
7, 48828, Note_on_c, 5, 41, 0
7, 48840, Note_on_c, 5, 45, 100
7, 48948, Note_on_c, 5, 45, 0
7, 48960, Note_on_c, 5, 47, 100
7, 49068, Note_on_c, 5, 47, 0
7, 49080, Note_on_c, 5, 50, 100
7, 49188, Note_on_c, 5, 50, 0
7, 49200, Note_on_c, 5, 42, 100
7, 49308, Note_on_c, 5, 42, 0
7, 49320, Note_on_c, 5, 45, 100
7, 49428, Note_on_c, 5, 45, 0
7, 49440, Note_on_c, 5, 44, 100
7, 49656, Note_on_c, 5, 44, 0
7, 49680, Note_on_c, 5, 40, 100
7, 49896, Note_on_c, 5, 40, 0
7, 49920, Note_on_c, 5, 45, 100
7, 50136, Note_on_c, 5, 45, 0
7, 50280, Note_on_c, 5, 57, 100
7, 50388, Note_on_c, 5, 57, 0
7, 50520, Note_on_c, 5, 50, 100
7, 50628, Note_on_c, 5, 50, 0
7, 50640, Note_on_c, 5, 62, 100
7, 50748, Note_on_c, 5, 62, 0
7, 50760, Note_on_c, 5, 65, 100
7, 50868, Note_on_c, 5, 65, 0
7, 50880, Note_on_c, 5, 69, 100
7, 50988, Note_on_c, 5, 69, 0
7, 51000, Note_on_c, 5, 72, 100
7, 51108, Note_on_c, 5, 72, 0
7, 51120, Note_on_c, 5, 64, 100
7, 51228, Note_on_c, 5, 64, 0
7, 51240, Note_on_c, 5, 69, 100
7, 51348, Note_on_c, 5, 69, 0
7, 51360, Note_on_c, 5, 62, 100
7, 51468, Note_on_c, 5, 62, 0
7, 51480, Note_on_c, 5, 57, 100
7, 51588, Note_on_c, 5, 57, 0
7, 51600, Note_on_c, 5, 62, 100
7, 51708, Note_on_c, 5, 62, 0
7, 51720, Note_on_c, 5, 65, 100
7, 51828, Note_on_c, 5, 65, 0
7, 51840, Note_on_c, 5, 69, 100
7, 51948, Note_on_c, 5, 69, 0
7, 51960, Note_on_c, 5, 62, 100
7, 52068, Note_on_c, 5, 62, 0
7, 52080, Note_on_c, 5, 60, 100
7, 52188, Note_on_c, 5, 60, 0
7, 52200, Note_on_c, 5, 59, 100
7, 52308, Note_on_c, 5, 59, 0
7, 52320, Note_on_c, 5, 57, 100
7, 52536, Note_on_c, 5, 57, 0
7, 52560, Note_on_c, 5, 45, 100
7, 52668, Note_on_c, 5, 45, 0
7, 52680, Note_on_c, 5, 47, 100
7, 52788, Note_on_c, 5, 47, 0
7, 52800, Note_on_c, 5, 48, 100
7, 52908, Note_on_c, 5, 48, 0
7, 52920, Note_on_c, 5, 50, 100
7, 53028, Note_on_c, 5, 50, 0
7, 53040, Note_on_c, 5, 48, 100
7, 53148, Note_on_c, 5, 48, 0
7, 53160, Note_on_c, 5, 50, 100
7, 53268, Note_on_c, 5, 50, 0
7, 53280, Note_on_c, 5, 52, 100
7, 53496, Note_on_c, 5, 52, 0
7, 53520, Note_on_c, 5, 64, 100
7, 53628, Note_on_c, 5, 64, 0
7, 53640, Note_on_c, 5, 62, 100
7, 53748, Note_on_c, 5, 62, 0
7, 53760, Note_on_c, 5, 60, 100
7, 53868, Note_on_c, 5, 60, 0
7, 53880, Note_on_c, 5, 64, 100
7, 53988, Note_on_c, 5, 64, 0
7, 54000, Note_on_c, 5, 57, 100
7, 54108, Note_on_c, 5, 57, 0
7, 54120, Note_on_c, 5, 60, 100
7, 54228, Note_on_c, 5, 60, 0
7, 54240, Note_on_c, 5, 62, 100
7, 54348, Note_on_c, 5, 62, 0
7, 54360, Note_on_c, 5, 65, 100
7, 54468, Note_on_c, 5, 65, 0
7, 54480, Note_on_c, 5, 57, 100
7, 54588, Note_on_c, 5, 57, 0
7, 54600, Note_on_c, 5, 62, 100
7, 54708, Note_on_c, 5, 62, 0
7, 54720, Note_on_c, 5, 60, 100
7, 54828, Note_on_c, 5, 60, 0
7, 54840, Note_on_c, 5, 64, 100
7, 54948, Note_on_c, 5, 64, 0
7, 54960, Note_on_c, 5, 57, 100
7, 55068, Note_on_c, 5, 57, 0
7, 55080, Note_on_c, 5, 60, 100
7, 55188, Note_on_c, 5, 60, 0
7, 55200, Note_on_c, 5, 62, 100
7, 55308, Note_on_c, 5, 62, 0
7, 55320, Note_on_c, 5, 65, 100
7, 55428, Note_on_c, 5, 65, 0
7, 55440, Note_on_c, 5, 57, 100
7, 55548, Note_on_c, 5, 57, 0
7, 55560, Note_on_c, 5, 62, 100
7, 55668, Note_on_c, 5, 62, 0
7, 55680, Note_on_c, 5, 60, 100
7, 55896, Note_on_c, 5, 60, 0
7, 55920, Note_on_c, 5, 57, 100
7, 56136, Note_on_c, 5, 57, 0
7, 56400, Note_on_c, 5, 57, 100
7, 56508, Note_on_c, 5, 57, 0
7, 56520, Note_on_c, 5, 59, 100
7, 56628, Note_on_c, 5, 59, 0
7, 56640, Note_on_c, 5, 60, 100
7, 56856, Note_on_c, 5, 60, 0
7, 56880, Note_on_c, 5, 57, 100
7, 57096, Note_on_c, 5, 57, 0
7, 57120, Note_on_c, 5, 59, 100
7, 57336, Note_on_c, 5, 59, 0
7, 57360, Note_on_c, 5, 47, 100
7, 57576, Note_on_c, 5, 47, 0
7, 57600, Note_on_c, 5, 52, 100
7, 57816, Note_on_c, 5, 52, 0
7, 58320, Note_on_c, 5, 55, 100
7, 58428, Note_on_c, 5, 55, 0
7, 58440, Note_on_c, 5, 57, 100
7, 58548, Note_on_c, 5, 57, 0
7, 58560, Note_on_c, 5, 58, 100
7, 58776, Note_on_c, 5, 58, 0
7, 58800, Note_on_c, 5, 55, 100
7, 59016, Note_on_c, 5, 55, 0
7, 59040, Note_on_c, 5, 57, 100
7, 59256, Note_on_c, 5, 57, 0
7, 59280, Note_on_c, 5, 45, 100
7, 59496, Note_on_c, 5, 45, 0
7, 59520, Note_on_c, 5, 50, 100
7, 59736, Note_on_c, 5, 50, 0
7, 60240, Note_on_c, 5, 53, 100
7, 60348, Note_on_c, 5, 53, 0
7, 60360, Note_on_c, 5, 55, 100
7, 60468, Note_on_c, 5, 55, 0
7, 60480, Note_on_c, 5, 57, 100
7, 60696, Note_on_c, 5, 57, 0
7, 60720, Note_on_c, 5, 53, 100
7, 60936, Note_on_c, 5, 53, 0
7, 60960, Note_on_c, 5, 55, 100
7, 61176, Note_on_c, 5, 55, 0
7, 61200, Note_on_c, 5, 43, 100
7, 61416, Note_on_c, 5, 43, 0
7, 61440, Note_on_c, 5, 48, 100
7, 61656, Note_on_c, 5, 48, 0
7, 62040, Note_on_c, 5, 64, 100
7, 62148, Note_on_c, 5, 64, 0
7, 62160, Note_on_c, 5, 60, 100
7, 62268, Note_on_c, 5, 60, 0
7, 62280, Note_on_c, 5, 55, 100
7, 62388, Note_on_c, 5, 55, 0
7, 62400, Note_on_c, 5, 52, 100
7, 62616, Note_on_c, 5, 52, 0
7, 62640, Note_on_c, 5, 64, 100
7, 62934, Note_on_c, 5, 64, 0
7, 62940, Note_on_c, 5, 62, 100
7, 62994, Note_on_c, 5, 62, 0
7, 63000, Note_on_c, 5, 61, 100
7, 63054, Note_on_c, 5, 61, 0
7, 63060, Note_on_c, 5, 59, 100
7, 63114, Note_on_c, 5, 59, 0
7, 63120, Note_on_c, 5, 57, 100
7, 63174, Note_on_c, 5, 57, 0
7, 63180, Note_on_c, 5, 55, 100
7, 63234, Note_on_c, 5, 55, 0
7, 63240, Note_on_c, 5, 53, 100
7, 63294, Note_on_c, 5, 53, 0
7, 63300, Note_on_c, 5, 52, 100
7, 63354, Note_on_c, 5, 52, 0
7, 63360, Note_on_c, 5, 50, 100
7, 63576, Note_on_c, 5, 50, 0
7, 63600, Note_on_c, 5, 62, 100
7, 63894, Note_on_c, 5, 62, 0
7, 63900, Note_on_c, 5, 60, 100
7, 63954, Note_on_c, 5, 60, 0
7, 63960, Note_on_c, 5, 59, 100
7, 64014, Note_on_c, 5, 59, 0
7, 64020, Note_on_c, 5, 57, 100
7, 64074, Note_on_c, 5, 57, 0
7, 64080, Note_on_c, 5, 55, 100
7, 64134, Note_on_c, 5, 55, 0
7, 64140, Note_on_c, 5, 53, 100
7, 64194, Note_on_c, 5, 53, 0
7, 64200, Note_on_c, 5, 52, 100
7, 64254, Note_on_c, 5, 52, 0
7, 64260, Note_on_c, 5, 50, 100
7, 64314, Note_on_c, 5, 50, 0
7, 64320, Note_on_c, 5, 48, 100
7, 64536, Note_on_c, 5, 48, 0
7, 64560, Note_on_c, 5, 60, 100
7, 64854, Note_on_c, 5, 60, 0
7, 64860, Note_on_c, 5, 59, 100
7, 64914, Note_on_c, 5, 59, 0
7, 64920, Note_on_c, 5, 57, 100
7, 64974, Note_on_c, 5, 57, 0
7, 64980, Note_on_c, 5, 55, 100
7, 65034, Note_on_c, 5, 55, 0
7, 65040, Note_on_c, 5, 53, 100
7, 65094, Note_on_c, 5, 53, 0
7, 65100, Note_on_c, 5, 52, 100
7, 65154, Note_on_c, 5, 52, 0
7, 65160, Note_on_c, 5, 50, 100
7, 65214, Note_on_c, 5, 50, 0
7, 65220, Note_on_c, 5, 48, 100
7, 65274, Note_on_c, 5, 48, 0
7, 65280, Note_on_c, 5, 47, 100
7, 65496, Note_on_c, 5, 47, 0
7, 65520, Note_on_c, 5, 59, 100
7, 65814, Note_on_c, 5, 59, 0
7, 65820, Note_on_c, 5, 57, 100
7, 65874, Note_on_c, 5, 57, 0
7, 65880, Note_on_c, 5, 56, 100
7, 65934, Note_on_c, 5, 56, 0
7, 65940, Note_on_c, 5, 54, 100
7, 65994, Note_on_c, 5, 54, 0
7, 66000, Note_on_c, 5, 52, 100
7, 66054, Note_on_c, 5, 52, 0
7, 66060, Note_on_c, 5, 50, 100
7, 66114, Note_on_c, 5, 50, 0
7, 66120, Note_on_c, 5, 48, 100
7, 66174, Note_on_c, 5, 48, 0
7, 66180, Note_on_c, 5, 47, 100
7, 66234, Note_on_c, 5, 47, 0
7, 66240, Note_on_c, 5, 45, 100
7, 66456, Note_on_c, 5, 45, 0
7, 66720, Note_on_c, 5, 57, 100
7, 66936, Note_on_c, 5, 57, 0
7, 67200, Note_on_c, 5, 64, 100
7, 67416, Note_on_c, 5, 64, 0
7, 67680, Note_on_c, 5, 52, 100
7, 67896, Note_on_c, 5, 52, 0
7, 68160, Note_on_c, 5, 59, 100
7, 68376, Note_on_c, 5, 59, 0
7, 68640, Note_on_c, 5, 47, 100
7, 68856, Note_on_c, 5, 47, 0
7, 69120, Note_on_c, 5, 52, 100
7, 69336, Note_on_c, 5, 52, 0
7, 69600, Note_on_c, 5, 40, 100
7, 69816, Note_on_c, 5, 40, 0
7, 70080, Note_on_c, 5, 45, 100
7, 70296, Note_on_c, 5, 45, 0
7, 70560, Note_on_c, 5, 57, 100
7, 70776, Note_on_c, 5, 57, 0
7, 71040, Note_on_c, 5, 62, 100
7, 71256, Note_on_c, 5, 62, 0
7, 71520, Note_on_c, 5, 50, 100
7, 71736, Note_on_c, 5, 50, 0
7, 72000, Note_on_c, 5, 43, 100
7, 72216, Note_on_c, 5, 43, 0
7, 72480, Note_on_c, 5, 55, 100
7, 72696, Note_on_c, 5, 55, 0
7, 72960, Note_on_c, 5, 60, 100
7, 73176, Note_on_c, 5, 60, 0
7, 73440, Note_on_c, 5, 48, 100
7, 73656, Note_on_c, 5, 48, 0
7, 73920, Note_on_c, 5, 42, 100
7, 74136, Note_on_c, 5, 42, 0
7, 74400, Note_on_c, 5, 54, 100
7, 74616, Note_on_c, 5, 54, 0
7, 74880, Note_on_c, 5, 59, 100
7, 75096, Note_on_c, 5, 59, 0
7, 75360, Note_on_c, 5, 47, 100
7, 75576, Note_on_c, 5, 47, 0
7, 75840, Note_on_c, 5, 40, 100
7, 76056, Note_on_c, 5, 40, 0
7, 76080, Note_on_c, 5, 52, 100
7, 76188, Note_on_c, 5, 52, 0
7, 76200, Note_on_c, 5, 51, 100
7, 76308, Note_on_c, 5, 51, 0
7, 76320, Note_on_c, 5, 52, 100
7, 76428, Note_on_c, 5, 52, 0
7, 76440, Note_on_c, 5, 54, 100
7, 76548, Note_on_c, 5, 54, 0
7, 76560, Note_on_c, 5, 55, 100
7, 76668, Note_on_c, 5, 55, 0
7, 76680, Note_on_c, 5, 57, 100
7, 76788, Note_on_c, 5, 57, 0
7, 76800, Note_on_c, 5, 59, 100
7, 76908, Note_on_c, 5, 59, 0
7, 76920, Note_on_c, 5, 57, 100
7, 77028, Note_on_c, 5, 57, 0
7, 77040, Note_on_c, 5, 59, 100
7, 77148, Note_on_c, 5, 59, 0
7, 77160, Note_on_c, 5, 60, 100
7, 77268, Note_on_c, 5, 60, 0
7, 77280, Note_on_c, 5, 62, 100
7, 77388, Note_on_c, 5, 62, 0
7, 77400, Note_on_c, 5, 60, 100
7, 77508, Note_on_c, 5, 60, 0
7, 77520, Note_on_c, 5, 62, 100
7, 77628, Note_on_c, 5, 62, 0
7, 77640, Note_on_c, 5, 59, 100
7, 77748, Note_on_c, 5, 59, 0
7, 77760, Note_on_c, 5, 64, 100
7, 77868, Note_on_c, 5, 64, 0
7, 77880, Note_on_c, 5, 63, 100
7, 77988, Note_on_c, 5, 63, 0
7, 78000, Note_on_c, 5, 64, 100
7, 78108, Note_on_c, 5, 64, 0
7, 78120, Note_on_c, 5, 66, 100
7, 78228, Note_on_c, 5, 66, 0
7, 78240, Note_on_c, 5, 64, 100
7, 78348, Note_on_c, 5, 64, 0
7, 78360, Note_on_c, 5, 67, 100
7, 78468, Note_on_c, 5, 67, 0
7, 78480, Note_on_c, 5, 66, 100
7, 78588, Note_on_c, 5, 66, 0
7, 78600, Note_on_c, 5, 64, 100
7, 78708, Note_on_c, 5, 64, 0
7, 78720, Note_on_c, 5, 63, 100
7, 78828, Note_on_c, 5, 63, 0
7, 78840, Note_on_c, 5, 66, 100
7, 78948, Note_on_c, 5, 66, 0
7, 78960, Note_on_c, 5, 59, 100
7, 79068, Note_on_c, 5, 59, 0
7, 79080, Note_on_c, 5, 63, 100
7, 79188, Note_on_c, 5, 63, 0
7, 79200, Note_on_c, 5, 64, 100
7, 79308, Note_on_c, 5, 64, 0
7, 79320, Note_on_c, 5, 67, 100
7, 79428, Note_on_c, 5, 67, 0
7, 79440, Note_on_c, 5, 59, 100
7, 79548, Note_on_c, 5, 59, 0
7, 79560, Note_on_c, 5, 62, 100
7, 79668, Note_on_c, 5, 62, 0
7, 79680, Note_on_c, 5, 60, 100
7, 79788, Note_on_c, 5, 60, 0
7, 79800, Note_on_c, 5, 64, 100
7, 79908, Note_on_c, 5, 64, 0
7, 79920, Note_on_c, 5, 57, 100
7, 80028, Note_on_c, 5, 57, 0
7, 80040, Note_on_c, 5, 60, 100
7, 80148, Note_on_c, 5, 60, 0
7, 80160, Note_on_c, 5, 62, 100
7, 80268, Note_on_c, 5, 62, 0
7, 80280, Note_on_c, 5, 66, 100
7, 80388, Note_on_c, 5, 66, 0
7, 80400, Note_on_c, 5, 57, 100
7, 80508, Note_on_c, 5, 57, 0
7, 80520, Note_on_c, 5, 60, 100
7, 80628, Note_on_c, 5, 60, 0
7, 80640, Note_on_c, 5, 59, 100
7, 80748, Note_on_c, 5, 59, 0
7, 80760, Note_on_c, 5, 62, 100
7, 80868, Note_on_c, 5, 62, 0
7, 80880, Note_on_c, 5, 55, 100
7, 80988, Note_on_c, 5, 55, 0
7, 81000, Note_on_c, 5, 59, 100
7, 81108, Note_on_c, 5, 59, 0
7, 81120, Note_on_c, 5, 60, 100
7, 81228, Note_on_c, 5, 60, 0
7, 81240, Note_on_c, 5, 64, 100
7, 81348, Note_on_c, 5, 64, 0
7, 81360, Note_on_c, 5, 55, 100
7, 81468, Note_on_c, 5, 55, 0
7, 81480, Note_on_c, 5, 59, 100
7, 81588, Note_on_c, 5, 59, 0
7, 81600, Note_on_c, 5, 57, 100
7, 81708, Note_on_c, 5, 57, 0
7, 81720, Note_on_c, 5, 60, 100
7, 81828, Note_on_c, 5, 60, 0
7, 81840, Note_on_c, 5, 54, 100
7, 81948, Note_on_c, 5, 54, 0
7, 81960, Note_on_c, 5, 57, 100
7, 82068, Note_on_c, 5, 57, 0
7, 82080, Note_on_c, 5, 59, 100
7, 82188, Note_on_c, 5, 59, 0
7, 82200, Note_on_c, 5, 62, 100
7, 82308, Note_on_c, 5, 62, 0
7, 82320, Note_on_c, 5, 54, 100
7, 82428, Note_on_c, 5, 54, 0
7, 82440, Note_on_c, 5, 57, 100
7, 82548, Note_on_c, 5, 57, 0
7, 82560, Note_on_c, 5, 56, 100
7, 82668, Note_on_c, 5, 56, 0
7, 82680, Note_on_c, 5, 59, 100
7, 82788, Note_on_c, 5, 59, 0
7, 82800, Note_on_c, 5, 52, 100
7, 82908, Note_on_c, 5, 52, 0
7, 82920, Note_on_c, 5, 56, 100
7, 83028, Note_on_c, 5, 56, 0
7, 83040, Note_on_c, 5, 57, 100
7, 83148, Note_on_c, 5, 57, 0
7, 83160, Note_on_c, 5, 60, 100
7, 83268, Note_on_c, 5, 60, 0
7, 83280, Note_on_c, 5, 52, 100
7, 83388, Note_on_c, 5, 52, 0
7, 83400, Note_on_c, 5, 57, 100
7, 83508, Note_on_c, 5, 57, 0
7, 83520, Note_on_c, 5, 56, 100
7, 83628, Note_on_c, 5, 56, 0
7, 83640, Note_on_c, 5, 59, 100
7, 83748, Note_on_c, 5, 59, 0
7, 83760, Note_on_c, 5, 52, 100
7, 83868, Note_on_c, 5, 52, 0
7, 83880, Note_on_c, 5, 56, 100
7, 83988, Note_on_c, 5, 56, 0
7, 84000, Note_on_c, 5, 57, 100
7, 84108, Note_on_c, 5, 57, 0
7, 84120, Note_on_c, 5, 60, 100
7, 84228, Note_on_c, 5, 60, 0
7, 84240, Note_on_c, 5, 52, 100
7, 84348, Note_on_c, 5, 52, 0
7, 84360, Note_on_c, 5, 57, 100
7, 84468, Note_on_c, 5, 57, 0
7, 84480, Note_on_c, 5, 56, 100
7, 84696, Note_on_c, 5, 56, 0
7, 84720, Note_on_c, 5, 56, 100
7, 84792, Note_on_c, 5, 56, 0
7, 84800, Note_on_c, 5, 54, 100
7, 84872, Note_on_c, 5, 54, 0
7, 84880, Note_on_c, 5, 56, 100
7, 84952, Note_on_c, 5, 56, 0
7, 84960, Note_on_c, 5, 57, 100
7, 85032, Note_on_c, 5, 57, 0
7, 85040, Note_on_c, 5, 56, 100
7, 85112, Note_on_c, 5, 56, 0
7, 85120, Note_on_c, 5, 57, 100
7, 85192, Note_on_c, 5, 57, 0
7, 85200, Note_on_c, 5, 59, 100
7, 85272, Note_on_c, 5, 59, 0
7, 85280, Note_on_c, 5, 57, 100
7, 85352, Note_on_c, 5, 57, 0
7, 85360, Note_on_c, 5, 59, 100
7, 85432, Note_on_c, 5, 59, 0
7, 85440, Note_on_c, 5, 60, 100
7, 85992, Note_on_c, 5, 60, 0
7, 86000, Note_on_c, 5, 62, 100
7, 86072, Note_on_c, 5, 62, 0
7, 86080, Note_on_c, 5, 60, 100
7, 86152, Note_on_c, 5, 60, 0
7, 86160, Note_on_c, 5, 59, 100
7, 86232, Note_on_c, 5, 59, 0
7, 86240, Note_on_c, 5, 60, 100
7, 86312, Note_on_c, 5, 60, 0
7, 86320, Note_on_c, 5, 59, 100
7, 86392, Note_on_c, 5, 59, 0
7, 86400, Note_on_c, 5, 57, 100
7, 86616, Note_on_c, 5, 57, 0
7, 87600, Note_on_c, 5, 41, 100
7, 87672, Note_on_c, 5, 41, 0
7, 87680, Note_on_c, 5, 40, 100
7, 87752, Note_on_c, 5, 40, 0
7, 87760, Note_on_c, 5, 41, 100
7, 87832, Note_on_c, 5, 41, 0
7, 87840, Note_on_c, 5, 43, 100
7, 87912, Note_on_c, 5, 43, 0
7, 87920, Note_on_c, 5, 41, 100
7, 87992, Note_on_c, 5, 41, 0
7, 88000, Note_on_c, 5, 43, 100
7, 88072, Note_on_c, 5, 43, 0
7, 88080, Note_on_c, 5, 45, 100
7, 88152, Note_on_c, 5, 45, 0
7, 88160, Note_on_c, 5, 43, 100
7, 88232, Note_on_c, 5, 43, 0
7, 88240, Note_on_c, 5, 45, 100
7, 88312, Note_on_c, 5, 45, 0
7, 88320, Note_on_c, 5, 38, 100
7, 88536, Note_on_c, 5, 38, 0
7, 88560, Note_on_c, 5, 62, 100
7, 88632, Note_on_c, 5, 62, 0
7, 88640, Note_on_c, 5, 60, 100
7, 88712, Note_on_c, 5, 60, 0
7, 88720, Note_on_c, 5, 62, 100
7, 88792, Note_on_c, 5, 62, 0
7, 88800, Note_on_c, 5, 64, 100
7, 88872, Note_on_c, 5, 64, 0
7, 88880, Note_on_c, 5, 62, 100
7, 88952, Note_on_c, 5, 62, 0
7, 88960, Note_on_c, 5, 64, 100
7, 89032, Note_on_c, 5, 64, 0
7, 89040, Note_on_c, 5, 66, 100
7, 89112, Note_on_c, 5, 66, 0
7, 89120, Note_on_c, 5, 64, 100
7, 89192, Note_on_c, 5, 64, 0
7, 89200, Note_on_c, 5, 66, 100
7, 89272, Note_on_c, 5, 66, 0
7, 89280, Note_on_c, 5, 67, 100
7, 89496, Note_on_c, 5, 67, 0
7, 89520, Note_on_c, 5, 47, 100
7, 89592, Note_on_c, 5, 47, 0
7, 89600, Note_on_c, 5, 45, 100
7, 89672, Note_on_c, 5, 45, 0
7, 89680, Note_on_c, 5, 47, 100
7, 89752, Note_on_c, 5, 47, 0
7, 89760, Note_on_c, 5, 48, 100
7, 89832, Note_on_c, 5, 48, 0
7, 89840, Note_on_c, 5, 47, 100
7, 89912, Note_on_c, 5, 47, 0
7, 89920, Note_on_c, 5, 48, 100
7, 89992, Note_on_c, 5, 48, 0
7, 90000, Note_on_c, 5, 50, 100
7, 90072, Note_on_c, 5, 50, 0
7, 90080, Note_on_c, 5, 48, 100
7, 90152, Note_on_c, 5, 48, 0
7, 90160, Note_on_c, 5, 50, 100
7, 90232, Note_on_c, 5, 50, 0
7, 90240, Note_on_c, 5, 43, 100
7, 90456, Note_on_c, 5, 43, 0
7, 91440, Note_on_c, 5, 40, 100
7, 91512, Note_on_c, 5, 40, 0
7, 91520, Note_on_c, 5, 38, 100
7, 91592, Note_on_c, 5, 38, 0
7, 91600, Note_on_c, 5, 40, 100
7, 91672, Note_on_c, 5, 40, 0
7, 91680, Note_on_c, 5, 41, 100
7, 91752, Note_on_c, 5, 41, 0
7, 91760, Note_on_c, 5, 40, 100
7, 91832, Note_on_c, 5, 40, 0
7, 91840, Note_on_c, 5, 41, 100
7, 91912, Note_on_c, 5, 41, 0
7, 91920, Note_on_c, 5, 43, 100
7, 91992, Note_on_c, 5, 43, 0
7, 92000, Note_on_c, 5, 41, 100
7, 92072, Note_on_c, 5, 41, 0
7, 92080, Note_on_c, 5, 43, 100
7, 92152, Note_on_c, 5, 43, 0
7, 92160, Note_on_c, 5, 36, 100
7, 92322, Note_on_c, 5, 36, 0
7, 92340, Note_on_c, 5, 55, 100
7, 92394, Note_on_c, 5, 55, 0
7, 92400, Note_on_c, 5, 60, 100
7, 92802, Note_on_c, 5, 60, 0
7, 92820, Note_on_c, 5, 57, 100
7, 92874, Note_on_c, 5, 57, 0
7, 92880, Note_on_c, 5, 59, 100
7, 93282, Note_on_c, 5, 59, 0
7, 93300, Note_on_c, 5, 55, 100
7, 93354, Note_on_c, 5, 55, 0
7, 93360, Note_on_c, 5, 57, 100
7, 93762, Note_on_c, 5, 57, 0
7, 93780, Note_on_c, 5, 53, 100
7, 93834, Note_on_c, 5, 53, 0
7, 93840, Note_on_c, 5, 55, 100
7, 94242, Note_on_c, 5, 55, 0
7, 94260, Note_on_c, 5, 59, 100
7, 94314, Note_on_c, 5, 59, 0
7, 94320, Note_on_c, 5, 60, 100
7, 94482, Note_on_c, 5, 60, 0
7, 94500, Note_on_c, 5, 58, 100
7, 94554, Note_on_c, 5, 58, 0
7, 94560, Note_on_c, 5, 57, 100
7, 94632, Note_on_c, 5, 57, 0
7, 94640, Note_on_c, 5, 50, 100
7, 94712, Note_on_c, 5, 50, 0
7, 94720, Note_on_c, 5, 52, 100
7, 94792, Note_on_c, 5, 52, 0
7, 94800, Note_on_c, 5, 53, 100
7, 94872, Note_on_c, 5, 53, 0
7, 94880, Note_on_c, 5, 55, 100
7, 94952, Note_on_c, 5, 55, 0
7, 94960, Note_on_c, 5, 57, 100
7, 95032, Note_on_c, 5, 57, 0
7, 95040, Note_on_c, 5, 50, 100
7, 95256, Note_on_c, 5, 50, 0
7, 95280, Note_on_c, 5, 55, 100
7, 95496, Note_on_c, 5, 55, 0
7, 95520, Note_on_c, 5, 55, 100
7, 95736, Note_on_c, 5, 55, 0
7, 95760, Note_on_c, 5, 43, 100
7, 95976, Note_on_c, 5, 43, 0
7, 96240, Note_on_c, 5, 55, 100
7, 96456, Note_on_c, 5, 55, 0
7, 96480, Note_on_c, 5, 55, 100
7, 96696, Note_on_c, 5, 55, 0
7, 96720, Note_on_c, 5, 43, 100
7, 96936, Note_on_c, 5, 43, 0
7, 96960, Note_on_c, 5, 43, 100
7, 97176, Note_on_c, 5, 43, 0
7, 120120, Note_on_c, 5, 50, 100
7, 120228, Note_on_c, 5, 50, 0
7, 120240, Note_on_c, 5, 52, 100
7, 120348, Note_on_c, 5, 52, 0
7, 120360, Note_on_c, 5, 54, 100
7, 120468, Note_on_c, 5, 54, 0
7, 120480, Note_on_c, 5, 55, 100
7, 121176, Note_on_c, 5, 55, 0
7, 121200, Note_on_c, 5, 48, 100
7, 121416, Note_on_c, 5, 48, 0
7, 121440, Note_on_c, 5, 60, 100
7, 122028, Note_on_c, 5, 60, 0
7, 122040, Note_on_c, 5, 58, 100
7, 122148, Note_on_c, 5, 58, 0
7, 122160, Note_on_c, 5, 57, 100
7, 122268, Note_on_c, 5, 57, 0
7, 122280, Note_on_c, 5, 55, 100
7, 122388, Note_on_c, 5, 55, 0
7, 122400, Note_on_c, 5, 57, 100
7, 122508, Note_on_c, 5, 57, 0
7, 122520, Note_on_c, 5, 53, 100
7, 122628, Note_on_c, 5, 53, 0
7, 122640, Note_on_c, 5, 55, 100
7, 122748, Note_on_c, 5, 55, 0
7, 122760, Note_on_c, 5, 57, 100
7, 122868, Note_on_c, 5, 57, 0
7, 122880, Note_on_c, 5, 55, 100
7, 123096, Note_on_c, 5, 55, 0
7, 123120, Note_on_c, 5, 60, 100
7, 123336, Note_on_c, 5, 60, 0
7, 123360, Note_on_c, 5, 55, 100
7, 123684, Note_on_c, 5, 55, 0
7, 123720, Note_on_c, 5, 53, 100
7, 123828, Note_on_c, 5, 53, 0
7, 123840, Note_on_c, 5, 52, 100
7, 123948, Note_on_c, 5, 52, 0
7, 123960, Note_on_c, 5, 50, 100
7, 124068, Note_on_c, 5, 50, 0
7, 124080, Note_on_c, 5, 48, 100
7, 124188, Note_on_c, 5, 48, 0
7, 124200, Note_on_c, 5, 47, 100
7, 124308, Note_on_c, 5, 47, 0
7, 124320, Note_on_c, 5, 45, 100
7, 124428, Note_on_c, 5, 45, 0
7, 124440, Note_on_c, 5, 47, 100
7, 124548, Note_on_c, 5, 47, 0
7, 124560, Note_on_c, 5, 45, 100
7, 124668, Note_on_c, 5, 45, 0
7, 124680, Note_on_c, 5, 43, 100
7, 124788, Note_on_c, 5, 43, 0
7, 124800, Note_on_c, 5, 42, 100
7, 125016, Note_on_c, 5, 42, 0
7, 125040, Note_on_c, 5, 43, 100
7, 125256, Note_on_c, 5, 43, 0
7, 125280, Note_on_c, 5, 50, 100
7, 125496, Note_on_c, 5, 50, 0
7, 125520, Note_on_c, 5, 38, 100
7, 125736, Note_on_c, 5, 38, 0
7, 125760, Note_on_c, 5, 43, 100
7, 125976, Note_on_c, 5, 43, 0
7, 126000, Note_on_c, 5, 43, 100
7, 126108, Note_on_c, 5, 43, 0
7, 126120, Note_on_c, 5, 42, 100
7, 126228, Note_on_c, 5, 42, 0
7, 126240, Note_on_c, 5, 43, 100
7, 126348, Note_on_c, 5, 43, 0
7, 126360, Note_on_c, 5, 45, 100
7, 126468, Note_on_c, 5, 45, 0
7, 126480, Note_on_c, 5, 47, 100
7, 126588, Note_on_c, 5, 47, 0
7, 126600, Note_on_c, 5, 48, 100
7, 126708, Note_on_c, 5, 48, 0
7, 126720, Note_on_c, 5, 50, 100
7, 126828, Note_on_c, 5, 50, 0
7, 126840, Note_on_c, 5, 49, 100
7, 126948, Note_on_c, 5, 49, 0
7, 126960, Note_on_c, 5, 50, 100
7, 127068, Note_on_c, 5, 50, 0
7, 127080, Note_on_c, 5, 52, 100
7, 127188, Note_on_c, 5, 52, 0
7, 127200, Note_on_c, 5, 54, 100
7, 127308, Note_on_c, 5, 54, 0
7, 127320, Note_on_c, 5, 52, 100
7, 127428, Note_on_c, 5, 52, 0
7, 127440, Note_on_c, 5, 54, 100
7, 127548, Note_on_c, 5, 54, 0
7, 127560, Note_on_c, 5, 50, 100
7, 127668, Note_on_c, 5, 50, 0
7, 127680, Note_on_c, 5, 55, 100
7, 127788, Note_on_c, 5, 55, 0
7, 127800, Note_on_c, 5, 54, 100
7, 127908, Note_on_c, 5, 54, 0
7, 127920, Note_on_c, 5, 55, 100
7, 128028, Note_on_c, 5, 55, 0
7, 128040, Note_on_c, 5, 57, 100
7, 128148, Note_on_c, 5, 57, 0
7, 128160, Note_on_c, 5, 55, 100
7, 128268, Note_on_c, 5, 55, 0
7, 128280, Note_on_c, 5, 59, 100
7, 128388, Note_on_c, 5, 59, 0
7, 128400, Note_on_c, 5, 57, 100
7, 128508, Note_on_c, 5, 57, 0
7, 128520, Note_on_c, 5, 55, 100
7, 128628, Note_on_c, 5, 55, 0
7, 128640, Note_on_c, 5, 54, 100
7, 128748, Note_on_c, 5, 54, 0
7, 128760, Note_on_c, 5, 57, 100
7, 128868, Note_on_c, 5, 57, 0
7, 128880, Note_on_c, 5, 50, 100
7, 128988, Note_on_c, 5, 50, 0
7, 129000, Note_on_c, 5, 54, 100
7, 129108, Note_on_c, 5, 54, 0
7, 129120, Note_on_c, 5, 55, 100
7, 129228, Note_on_c, 5, 55, 0
7, 129240, Note_on_c, 5, 59, 100
7, 129348, Note_on_c, 5, 59, 0
7, 129360, Note_on_c, 5, 50, 100
7, 129468, Note_on_c, 5, 50, 0
7, 129480, Note_on_c, 5, 54, 100
7, 129588, Note_on_c, 5, 54, 0
7, 129600, Note_on_c, 5, 52, 100
7, 129708, Note_on_c, 5, 52, 0
7, 129720, Note_on_c, 5, 55, 100
7, 129828, Note_on_c, 5, 55, 0
7, 129840, Note_on_c, 5, 48, 100
7, 129948, Note_on_c, 5, 48, 0
7, 129960, Note_on_c, 5, 52, 100
7, 130068, Note_on_c, 5, 52, 0
7, 130080, Note_on_c, 5, 54, 100
7, 130188, Note_on_c, 5, 54, 0
7, 130200, Note_on_c, 5, 57, 100
7, 130308, Note_on_c, 5, 57, 0
7, 130320, Note_on_c, 5, 48, 100
7, 130428, Note_on_c, 5, 48, 0
7, 130440, Note_on_c, 5, 52, 100
7, 130548, Note_on_c, 5, 52, 0
7, 130560, Note_on_c, 5, 50, 100
7, 130668, Note_on_c, 5, 50, 0
7, 130680, Note_on_c, 5, 54, 100
7, 130788, Note_on_c, 5, 54, 0
7, 130800, Note_on_c, 5, 47, 100
7, 130908, Note_on_c, 5, 47, 0
7, 130920, Note_on_c, 5, 50, 100
7, 131028, Note_on_c, 5, 50, 0
7, 131040, Note_on_c, 5, 52, 100
7, 131148, Note_on_c, 5, 52, 0
7, 131160, Note_on_c, 5, 55, 100
7, 131268, Note_on_c, 5, 55, 0
7, 131280, Note_on_c, 5, 47, 100
7, 131388, Note_on_c, 5, 47, 0
7, 131400, Note_on_c, 5, 50, 100
7, 131508, Note_on_c, 5, 50, 0
7, 131520, Note_on_c, 5, 48, 100
7, 131628, Note_on_c, 5, 48, 0
7, 131640, Note_on_c, 5, 52, 100
7, 131748, Note_on_c, 5, 52, 0
7, 131760, Note_on_c, 5, 45, 100
7, 131868, Note_on_c, 5, 45, 0
7, 131880, Note_on_c, 5, 48, 100
7, 131988, Note_on_c, 5, 48, 0
7, 132000, Note_on_c, 5, 50, 100
7, 132108, Note_on_c, 5, 50, 0
7, 132120, Note_on_c, 5, 54, 100
7, 132228, Note_on_c, 5, 54, 0
7, 132240, Note_on_c, 5, 45, 100
7, 132348, Note_on_c, 5, 45, 0
7, 132360, Note_on_c, 5, 48, 100
7, 132468, Note_on_c, 5, 48, 0
7, 132480, Note_on_c, 5, 47, 100
7, 132588, Note_on_c, 5, 47, 0
7, 132600, Note_on_c, 5, 50, 100
7, 132708, Note_on_c, 5, 50, 0
7, 132720, Note_on_c, 5, 43, 100
7, 132828, Note_on_c, 5, 43, 0
7, 132840, Note_on_c, 5, 47, 100
7, 132948, Note_on_c, 5, 47, 0
7, 132960, Note_on_c, 5, 48, 100
7, 133068, Note_on_c, 5, 48, 0
7, 133080, Note_on_c, 5, 52, 100
7, 133188, Note_on_c, 5, 52, 0
7, 133200, Note_on_c, 5, 43, 100
7, 133308, Note_on_c, 5, 43, 0
7, 133320, Note_on_c, 5, 48, 100
7, 133428, Note_on_c, 5, 48, 0
7, 133440, Note_on_c, 5, 47, 100
7, 133548, Note_on_c, 5, 47, 0
7, 133560, Note_on_c, 5, 50, 100
7, 133668, Note_on_c, 5, 50, 0
7, 133680, Note_on_c, 5, 43, 100
7, 133788, Note_on_c, 5, 43, 0
7, 133800, Note_on_c, 5, 47, 100
7, 133908, Note_on_c, 5, 47, 0
7, 133920, Note_on_c, 5, 48, 100
7, 134028, Note_on_c, 5, 48, 0
7, 134040, Note_on_c, 5, 52, 100
7, 134148, Note_on_c, 5, 52, 0
7, 134160, Note_on_c, 5, 43, 100
7, 134268, Note_on_c, 5, 43, 0
7, 134280, Note_on_c, 5, 48, 100
7, 134388, Note_on_c, 5, 48, 0
7, 134400, Note_on_c, 5, 47, 100
7, 134616, Note_on_c, 5, 47, 0
7, 167280, Note_on_c, 5, 52, 100
7, 167388, Note_on_c, 5, 52, 0
7, 167400, Note_on_c, 5, 50, 100
7, 167508, Note_on_c, 5, 50, 0
7, 167520, Note_on_c, 5, 52, 100
7, 167628, Note_on_c, 5, 52, 0
7, 167640, Note_on_c, 5, 53, 100
7, 167748, Note_on_c, 5, 53, 0
7, 167760, Note_on_c, 5, 55, 100
7, 167868, Note_on_c, 5, 55, 0
7, 167880, Note_on_c, 5, 57, 100
7, 167988, Note_on_c, 5, 57, 0
7, 168000, Note_on_c, 5, 59, 100
7, 168108, Note_on_c, 5, 59, 0
7, 168120, Note_on_c, 5, 57, 100
7, 168228, Note_on_c, 5, 57, 0
7, 168240, Note_on_c, 5, 59, 100
7, 168348, Note_on_c, 5, 59, 0
7, 168360, Note_on_c, 5, 60, 100
7, 168468, Note_on_c, 5, 60, 0
7, 168480, Note_on_c, 5, 62, 100
7, 168588, Note_on_c, 5, 62, 0
7, 168600, Note_on_c, 5, 60, 100
7, 168708, Note_on_c, 5, 60, 0
7, 168720, Note_on_c, 5, 62, 100
7, 168828, Note_on_c, 5, 62, 0
7, 168840, Note_on_c, 5, 59, 100
7, 168948, Note_on_c, 5, 59, 0
7, 168960, Note_on_c, 5, 60, 100
7, 169068, Note_on_c, 5, 60, 0
7, 169080, Note_on_c, 5, 64, 100
7, 169188, Note_on_c, 5, 64, 0
7, 169200, Note_on_c, 5, 57, 100
7, 169308, Note_on_c, 5, 57, 0
7, 169320, Note_on_c, 5, 59, 100
7, 169428, Note_on_c, 5, 59, 0
7, 169440, Note_on_c, 5, 60, 100
7, 169548, Note_on_c, 5, 60, 0
7, 169560, Note_on_c, 5, 57, 100
7, 169668, Note_on_c, 5, 57, 0
7, 169680, Note_on_c, 5, 59, 100
7, 169788, Note_on_c, 5, 59, 0
7, 169800, Note_on_c, 5, 60, 100
7, 169908, Note_on_c, 5, 60, 0
7, 169920, Note_on_c, 5, 62, 100
7, 170028, Note_on_c, 5, 62, 0
7, 170040, Note_on_c, 5, 65, 100
7, 170148, Note_on_c, 5, 65, 0
7, 170160, Note_on_c, 5, 64, 100
7, 170268, Note_on_c, 5, 64, 0
7, 170280, Note_on_c, 5, 62, 100
7, 170388, Note_on_c, 5, 62, 0
7, 170400, Note_on_c, 5, 60, 100
7, 170508, Note_on_c, 5, 60, 0
7, 170520, Note_on_c, 5, 55, 100
7, 170628, Note_on_c, 5, 55, 0
7, 170640, Note_on_c, 5, 60, 100
7, 170748, Note_on_c, 5, 60, 0
7, 170760, Note_on_c, 5, 52, 100
7, 170868, Note_on_c, 5, 52, 0
7, 170880, Note_on_c, 5, 53, 100
7, 171468, Note_on_c, 5, 53, 0
7, 171480, Note_on_c, 5, 53, 100
7, 171588, Note_on_c, 5, 53, 0
7, 171600, Note_on_c, 5, 59, 100
7, 171708, Note_on_c, 5, 59, 0
7, 171720, Note_on_c, 5, 50, 100
7, 171828, Note_on_c, 5, 50, 0
7, 171840, Note_on_c, 5, 52, 100
7, 172428, Note_on_c, 5, 52, 0
7, 172440, Note_on_c, 5, 52, 100
7, 172548, Note_on_c, 5, 52, 0
7, 172560, Note_on_c, 5, 57, 100
7, 172668, Note_on_c, 5, 57, 0
7, 172680, Note_on_c, 5, 48, 100
7, 172788, Note_on_c, 5, 48, 0
7, 172800, Note_on_c, 5, 50, 100
7, 173388, Note_on_c, 5, 50, 0
7, 173400, Note_on_c, 5, 50, 100
7, 173508, Note_on_c, 5, 50, 0
7, 173520, Note_on_c, 5, 55, 100
7, 173628, Note_on_c, 5, 55, 0
7, 173640, Note_on_c, 5, 47, 100
7, 173748, Note_on_c, 5, 47, 0
7, 173760, Note_on_c, 5, 48, 100
7, 174348, Note_on_c, 5, 48, 0
7, 174360, Note_on_c, 5, 45, 100
7, 174468, Note_on_c, 5, 45, 0
7, 174480, Note_on_c, 5, 41, 100
7, 174588, Note_on_c, 5, 41, 0
7, 174600, Note_on_c, 5, 36, 100
7, 174708, Note_on_c, 5, 36, 0
7, 174720, Note_on_c, 5, 48, 100
7, 175308, Note_on_c, 5, 48, 0
7, 175320, Note_on_c, 5, 45, 100
7, 175428, Note_on_c, 5, 45, 0
7, 175440, Note_on_c, 5, 41, 100
7, 175548, Note_on_c, 5, 41, 0
7, 175560, Note_on_c, 5, 36, 100
7, 175668, Note_on_c, 5, 36, 0
7, 175680, Note_on_c, 5, 48, 100
7, 175896, Note_on_c, 5, 48, 0
7, 176400, Note_on_c, 5, 50, 100
7, 176616, Note_on_c, 5, 50, 0
7, 176640, Note_on_c, 5, 52, 100
7, 176856, Note_on_c, 5, 52, 0
7, 176880, Note_on_c, 5, 53, 100
7, 177096, Note_on_c, 5, 53, 0
7, 177120, Note_on_c, 5, 55, 100
7, 177336, Note_on_c, 5, 55, 0
7, 177360, Note_on_c, 5, 43, 100
7, 177468, Note_on_c, 5, 43, 0
7, 177480, Note_on_c, 5, 50, 100
7, 177588, Note_on_c, 5, 50, 0
7, 177600, Note_on_c, 5, 52, 100
7, 177708, Note_on_c, 5, 52, 0
7, 177720, Note_on_c, 5, 55, 100
7, 177828, Note_on_c, 5, 55, 0
7, 177840, Note_on_c, 5, 48, 100
7, 177948, Note_on_c, 5, 48, 0
7, 177960, Note_on_c, 5, 52, 100
7, 178068, Note_on_c, 5, 52, 0
7, 178080, Note_on_c, 5, 53, 100
7, 178188, Note_on_c, 5, 53, 0
7, 178200, Note_on_c, 5, 57, 100
7, 178308, Note_on_c, 5, 57, 0
7, 178320, Note_on_c, 5, 48, 100
7, 178428, Note_on_c, 5, 48, 0
7, 178440, Note_on_c, 5, 53, 100
7, 178548, Note_on_c, 5, 53, 0
7, 178560, Note_on_c, 5, 52, 100
7, 178668, Note_on_c, 5, 52, 0
7, 178680, Note_on_c, 5, 55, 100
7, 178788, Note_on_c, 5, 55, 0
7, 178800, Note_on_c, 5, 48, 100
7, 178908, Note_on_c, 5, 48, 0
7, 178920, Note_on_c, 5, 52, 100
7, 179028, Note_on_c, 5, 52, 0
7, 179040, Note_on_c, 5, 53, 100
7, 179148, Note_on_c, 5, 53, 0
7, 179160, Note_on_c, 5, 57, 100
7, 179268, Note_on_c, 5, 57, 0
7, 179280, Note_on_c, 5, 48, 100
7, 179388, Note_on_c, 5, 48, 0
7, 179400, Note_on_c, 5, 53, 100
7, 179508, Note_on_c, 5, 53, 0
7, 179520, Note_on_c, 5, 52, 100
7, 179736, Note_on_c, 5, 52, 0
7, 180480, Note_on_c, 5, 48, 100
7, 180480, Note_on_c, 5, 52, 100
7, 180480, Note_on_c, 5, 55, 100
7, 180696, Note_on_c, 5, 48, 0
7, 180696, Note_on_c, 5, 52, 0
7, 180696, Note_on_c, 5, 55, 0
7, 181680, Note_on_c, 5, 52, 100
7, 181752, Note_on_c, 5, 52, 0
7, 181760, Note_on_c, 5, 50, 100
7, 181832, Note_on_c, 5, 50, 0
7, 181840, Note_on_c, 5, 52, 100
7, 181912, Note_on_c, 5, 52, 0
7, 181920, Note_on_c, 5, 53, 100
7, 181992, Note_on_c, 5, 53, 0
7, 182000, Note_on_c, 5, 52, 100
7, 182072, Note_on_c, 5, 52, 0
7, 182080, Note_on_c, 5, 53, 100
7, 182152, Note_on_c, 5, 53, 0
7, 182160, Note_on_c, 5, 50, 100
7, 182232, Note_on_c, 5, 50, 0
7, 182240, Note_on_c, 5, 48, 100
7, 182312, Note_on_c, 5, 48, 0
7, 182320, Note_on_c, 5, 50, 100
7, 182392, Note_on_c, 5, 50, 0
7, 182400, Note_on_c, 5, 52, 100
7, 182616, Note_on_c, 5, 52, 0
7, 182640, Note_on_c, 5, 53, 100
7, 182856, Note_on_c, 5, 53, 0
7, 182880, Note_on_c, 5, 55, 100
7, 183096, Note_on_c, 5, 55, 0
7, 183120, Note_on_c, 5, 43, 100
7, 183336, Note_on_c, 5, 43, 0
7, 183360, Note_on_c, 5, 36, 100
7, 183360, Note_on_c, 5, 48, 100
7, 184224, Note_on_c, 5, 36, 0
7, 184224, Note_on_c, 5, 48, 0
7, 184224, End_track
8, 0, Start_track
8, 0, Sequence_number, 65535
8, 0, MIDI_port, 0
8, 0, Title_t, "I "
8, 0, Control_c, 6, 0, 0
8, 0, Control_c, 6, 32, 0
8, 0, Program_c, 6, 48
8, 0, Control_c, 6, 7, 100
8, 0, Control_c, 6, 10, 14
8, 3360, Note_on_c, 6, 79, 100
8, 3948, Note_on_c, 6, 79, 0
8, 3960, Note_on_c, 6, 72, 100
8, 4068, Note_on_c, 6, 72, 0
8, 4080, Note_on_c, 6, 69, 100
8, 4188, Note_on_c, 6, 69, 0
8, 4200, Note_on_c, 6, 72, 100
8, 4308, Note_on_c, 6, 72, 0
8, 4320, Note_on_c, 6, 77, 100
8, 4908, Note_on_c, 6, 77, 0
8, 4920, Note_on_c, 6, 71, 100
8, 5028, Note_on_c, 6, 71, 0
8, 5040, Note_on_c, 6, 67, 100
8, 5148, Note_on_c, 6, 67, 0
8, 5160, Note_on_c, 6, 71, 100
8, 5268, Note_on_c, 6, 71, 0
8, 5280, Note_on_c, 6, 76, 100
8, 5868, Note_on_c, 6, 76, 0
8, 5880, Note_on_c, 6, 69, 100
8, 5988, Note_on_c, 6, 69, 0
8, 6000, Note_on_c, 6, 65, 100
8, 6108, Note_on_c, 6, 65, 0
8, 6120, Note_on_c, 6, 69, 100
8, 6228, Note_on_c, 6, 69, 0
8, 6240, Note_on_c, 6, 74, 100
8, 6828, Note_on_c, 6, 74, 0
8, 6840, Note_on_c, 6, 67, 100
8, 6948, Note_on_c, 6, 67, 0
8, 6960, Note_on_c, 6, 64, 100
8, 7068, Note_on_c, 6, 64, 0
8, 7080, Note_on_c, 6, 67, 100
8, 7188, Note_on_c, 6, 67, 0
8, 7200, Note_on_c, 6, 72, 100
8, 7788, Note_on_c, 6, 72, 0
8, 7800, Note_on_c, 6, 74, 100
8, 7908, Note_on_c, 6, 74, 0
8, 7920, Note_on_c, 6, 72, 100
8, 8028, Note_on_c, 6, 72, 0
8, 8040, Note_on_c, 6, 74, 100
8, 8148, Note_on_c, 6, 74, 0
8, 8160, Note_on_c, 6, 72, 100
8, 9072, Note_on_c, 6, 72, 0
8, 12720, Note_on_c, 6, 67, 100
8, 12828, Note_on_c, 6, 67, 0
8, 12840, Note_on_c, 6, 66, 100
8, 12948, Note_on_c, 6, 66, 0
8, 12960, Note_on_c, 6, 67, 100
8, 13068, Note_on_c, 6, 67, 0
8, 13080, Note_on_c, 6, 69, 100
8, 13188, Note_on_c, 6, 69, 0
8, 13200, Note_on_c, 6, 71, 100
8, 13308, Note_on_c, 6, 71, 0
8, 13320, Note_on_c, 6, 72, 100
8, 13428, Note_on_c, 6, 72, 0
8, 13440, Note_on_c, 6, 74, 100
8, 13548, Note_on_c, 6, 74, 0
8, 13560, Note_on_c, 6, 73, 100
8, 13668, Note_on_c, 6, 73, 0
8, 13680, Note_on_c, 6, 74, 100
8, 13788, Note_on_c, 6, 74, 0
8, 13800, Note_on_c, 6, 76, 100
8, 13908, Note_on_c, 6, 76, 0
8, 13920, Note_on_c, 6, 78, 100
8, 14028, Note_on_c, 6, 78, 0
8, 14040, Note_on_c, 6, 76, 100
8, 14148, Note_on_c, 6, 76, 0
8, 14160, Note_on_c, 6, 78, 100
8, 14268, Note_on_c, 6, 78, 0
8, 14280, Note_on_c, 6, 74, 100
8, 14388, Note_on_c, 6, 74, 0
8, 14400, Note_on_c, 6, 79, 100
8, 14508, Note_on_c, 6, 79, 0
8, 14520, Note_on_c, 6, 78, 100
8, 14628, Note_on_c, 6, 78, 0
8, 14640, Note_on_c, 6, 79, 100
8, 14748, Note_on_c, 6, 79, 0
8, 14760, Note_on_c, 6, 81, 100
8, 14868, Note_on_c, 6, 81, 0
8, 14880, Note_on_c, 6, 79, 100
8, 14988, Note_on_c, 6, 79, 0
8, 15000, Note_on_c, 6, 83, 100
8, 15108, Note_on_c, 6, 83, 0
8, 15120, Note_on_c, 6, 81, 100
8, 15228, Note_on_c, 6, 81, 0
8, 15240, Note_on_c, 6, 79, 100
8, 15348, Note_on_c, 6, 79, 0
8, 15360, Note_on_c, 6, 78, 100
8, 15468, Note_on_c, 6, 78, 0
8, 15480, Note_on_c, 6, 81, 100
8, 15588, Note_on_c, 6, 81, 0
8, 15600, Note_on_c, 6, 74, 100
8, 15708, Note_on_c, 6, 74, 0
8, 15720, Note_on_c, 6, 78, 100
8, 15828, Note_on_c, 6, 78, 0
8, 15840, Note_on_c, 6, 79, 100
8, 15948, Note_on_c, 6, 79, 0
8, 15960, Note_on_c, 6, 83, 100
8, 16068, Note_on_c, 6, 83, 0
8, 16080, Note_on_c, 6, 74, 100
8, 16188, Note_on_c, 6, 74, 0
8, 16200, Note_on_c, 6, 78, 100
8, 16308, Note_on_c, 6, 78, 0
8, 16320, Note_on_c, 6, 76, 100
8, 16428, Note_on_c, 6, 76, 0
8, 16440, Note_on_c, 6, 79, 100
8, 16548, Note_on_c, 6, 79, 0
8, 16560, Note_on_c, 6, 72, 100
8, 16668, Note_on_c, 6, 72, 0
8, 16680, Note_on_c, 6, 76, 100
8, 16788, Note_on_c, 6, 76, 0
8, 16800, Note_on_c, 6, 78, 100
8, 16908, Note_on_c, 6, 78, 0
8, 16920, Note_on_c, 6, 81, 100
8, 17028, Note_on_c, 6, 81, 0
8, 17040, Note_on_c, 6, 72, 100
8, 17148, Note_on_c, 6, 72, 0
8, 17160, Note_on_c, 6, 76, 100
8, 17268, Note_on_c, 6, 76, 0
8, 17280, Note_on_c, 6, 74, 100
8, 17388, Note_on_c, 6, 74, 0
8, 17400, Note_on_c, 6, 78, 100
8, 17508, Note_on_c, 6, 78, 0
8, 17520, Note_on_c, 6, 71, 100
8, 17628, Note_on_c, 6, 71, 0
8, 17640, Note_on_c, 6, 74, 100
8, 17748, Note_on_c, 6, 74, 0
8, 17760, Note_on_c, 6, 76, 100
8, 17868, Note_on_c, 6, 76, 0
8, 17880, Note_on_c, 6, 79, 100
8, 17988, Note_on_c, 6, 79, 0
8, 18000, Note_on_c, 6, 71, 100
8, 18108, Note_on_c, 6, 71, 0
8, 18120, Note_on_c, 6, 74, 100
8, 18228, Note_on_c, 6, 74, 0
8, 18240, Note_on_c, 6, 72, 100
8, 18348, Note_on_c, 6, 72, 0
8, 18360, Note_on_c, 6, 76, 100
8, 18468, Note_on_c, 6, 76, 0
8, 18480, Note_on_c, 6, 69, 100
8, 18588, Note_on_c, 6, 69, 0
8, 18600, Note_on_c, 6, 72, 100
8, 18708, Note_on_c, 6, 72, 0
8, 18720, Note_on_c, 6, 74, 100
8, 18828, Note_on_c, 6, 74, 0
8, 18840, Note_on_c, 6, 78, 100
8, 18948, Note_on_c, 6, 78, 0
8, 18960, Note_on_c, 6, 69, 100
8, 19068, Note_on_c, 6, 69, 0
8, 19080, Note_on_c, 6, 72, 100
8, 19188, Note_on_c, 6, 72, 0
8, 19200, Note_on_c, 6, 71, 100
8, 19308, Note_on_c, 6, 71, 0
8, 19320, Note_on_c, 6, 74, 100
8, 19428, Note_on_c, 6, 74, 0
8, 19440, Note_on_c, 6, 67, 100
8, 19548, Note_on_c, 6, 67, 0
8, 19560, Note_on_c, 6, 71, 100
8, 19668, Note_on_c, 6, 71, 0
8, 19680, Note_on_c, 6, 72, 100
8, 19788, Note_on_c, 6, 72, 0
8, 19800, Note_on_c, 6, 76, 100
8, 19908, Note_on_c, 6, 76, 0
8, 19920, Note_on_c, 6, 67, 100
8, 20028, Note_on_c, 6, 67, 0
8, 20040, Note_on_c, 6, 72, 100
8, 20148, Note_on_c, 6, 72, 0
8, 20160, Note_on_c, 6, 71, 100
8, 20268, Note_on_c, 6, 71, 0
8, 20280, Note_on_c, 6, 74, 100
8, 20388, Note_on_c, 6, 74, 0
8, 20400, Note_on_c, 6, 67, 100
8, 20508, Note_on_c, 6, 67, 0
8, 20520, Note_on_c, 6, 71, 100
8, 20628, Note_on_c, 6, 71, 0
8, 20640, Note_on_c, 6, 72, 100
8, 20748, Note_on_c, 6, 72, 0
8, 20760, Note_on_c, 6, 76, 100
8, 20868, Note_on_c, 6, 76, 0
8, 20880, Note_on_c, 6, 67, 100
8, 20988, Note_on_c, 6, 67, 0
8, 21000, Note_on_c, 6, 72, 100
8, 21108, Note_on_c, 6, 72, 0
8, 21120, Note_on_c, 6, 71, 100
8, 21336, Note_on_c, 6, 71, 0
8, 22320, Note_on_c, 6, 74, 100
8, 22752, Note_on_c, 6, 74, 0
8, 22800, Note_on_c, 6, 73, 100
8, 23016, Note_on_c, 6, 73, 0
8, 23040, Note_on_c, 6, 74, 100
8, 23256, Note_on_c, 6, 74, 0
8, 24240, Note_on_c, 6, 72, 100
8, 24672, Note_on_c, 6, 72, 0
8, 24720, Note_on_c, 6, 71, 100
8, 24936, Note_on_c, 6, 71, 0
8, 24960, Note_on_c, 6, 72, 100
8, 25176, Note_on_c, 6, 72, 0
8, 26160, Note_on_c, 6, 79, 100
8, 26592, Note_on_c, 6, 79, 0
8, 26640, Note_on_c, 6, 78, 100
8, 26856, Note_on_c, 6, 78, 0
8, 26880, Note_on_c, 6, 79, 100
8, 26988, Note_on_c, 6, 79, 0
8, 27000, Note_on_c, 6, 71, 100
8, 27108, Note_on_c, 6, 71, 0
8, 27120, Note_on_c, 6, 72, 100
8, 27228, Note_on_c, 6, 72, 0
8, 27240, Note_on_c, 6, 74, 100
8, 27348, Note_on_c, 6, 74, 0
8, 27360, Note_on_c, 6, 76, 100
8, 27576, Note_on_c, 6, 76, 0
8, 27600, Note_on_c, 6, 76, 100
8, 27816, Note_on_c, 6, 76, 0
8, 27840, Note_on_c, 6, 76, 100
8, 28056, Note_on_c, 6, 76, 0
8, 28080, Note_on_c, 6, 74, 100
8, 28188, Note_on_c, 6, 74, 0
8, 28200, Note_on_c, 6, 72, 100
8, 28308, Note_on_c, 6, 72, 0
8, 28320, Note_on_c, 6, 74, 100
8, 28536, Note_on_c, 6, 74, 0
8, 28560, Note_on_c, 6, 74, 100
8, 28776, Note_on_c, 6, 74, 0
8, 28800, Note_on_c, 6, 74, 100
8, 29016, Note_on_c, 6, 74, 0
8, 29040, Note_on_c, 6, 72, 100
8, 29148, Note_on_c, 6, 72, 0
8, 29160, Note_on_c, 6, 71, 100
8, 29268, Note_on_c, 6, 71, 0
8, 29280, Note_on_c, 6, 72, 100
8, 29976, Note_on_c, 6, 72, 0
8, 30000, Note_on_c, 6, 71, 100
8, 30108, Note_on_c, 6, 71, 0
8, 30120, Note_on_c, 6, 69, 100
8, 30228, Note_on_c, 6, 69, 0
8, 30240, Note_on_c, 6, 67, 100
8, 30936, Note_on_c, 6, 67, 0
8, 30960, Note_on_c, 6, 72, 100
8, 31068, Note_on_c, 6, 72, 0
8, 31080, Note_on_c, 6, 70, 100
8, 31188, Note_on_c, 6, 70, 0
8, 31200, Note_on_c, 6, 69, 100
8, 31308, Note_on_c, 6, 69, 0
8, 31320, Note_on_c, 6, 72, 100
8, 31428, Note_on_c, 6, 72, 0
8, 31440, Note_on_c, 6, 65, 100
8, 31548, Note_on_c, 6, 65, 0
8, 31560, Note_on_c, 6, 69, 100
8, 31668, Note_on_c, 6, 69, 0
8, 31680, Note_on_c, 6, 67, 100
8, 31788, Note_on_c, 6, 67, 0
8, 31800, Note_on_c, 6, 70, 100
8, 31908, Note_on_c, 6, 70, 0
8, 31920, Note_on_c, 6, 64, 100
8, 32028, Note_on_c, 6, 64, 0
8, 32040, Note_on_c, 6, 67, 100
8, 32148, Note_on_c, 6, 67, 0
8, 32160, Note_on_c, 6, 72, 100
8, 32268, Note_on_c, 6, 72, 0
8, 32280, Note_on_c, 6, 60, 100
8, 32388, Note_on_c, 6, 60, 0
8, 32400, Note_on_c, 6, 65, 100
8, 32508, Note_on_c, 6, 65, 0
8, 32520, Note_on_c, 6, 69, 100
8, 32628, Note_on_c, 6, 69, 0
8, 32640, Note_on_c, 6, 67, 100
8, 32748, Note_on_c, 6, 67, 0
8, 32760, Note_on_c, 6, 64, 100
8, 32868, Note_on_c, 6, 64, 0
8, 32880, Note_on_c, 6, 60, 100
8, 32988, Note_on_c, 6, 60, 0
8, 33000, Note_on_c, 6, 59, 100
8, 33108, Note_on_c, 6, 59, 0
8, 33120, Note_on_c, 6, 60, 100
8, 33228, Note_on_c, 6, 60, 0
8, 33240, Note_on_c, 6, 62, 100
8, 33348, Note_on_c, 6, 62, 0
8, 33360, Note_on_c, 6, 64, 100
8, 33468, Note_on_c, 6, 64, 0
8, 33480, Note_on_c, 6, 65, 100
8, 33588, Note_on_c, 6, 65, 0
8, 33600, Note_on_c, 6, 67, 100
8, 33708, Note_on_c, 6, 67, 0
8, 33720, Note_on_c, 6, 66, 100
8, 33828, Note_on_c, 6, 66, 0
8, 33840, Note_on_c, 6, 67, 100
8, 33948, Note_on_c, 6, 67, 0
8, 33960, Note_on_c, 6, 69, 100
8, 34068, Note_on_c, 6, 69, 0
8, 34080, Note_on_c, 6, 71, 100
8, 34188, Note_on_c, 6, 71, 0
8, 34200, Note_on_c, 6, 69, 100
8, 34308, Note_on_c, 6, 69, 0
8, 34320, Note_on_c, 6, 71, 100
8, 34428, Note_on_c, 6, 71, 0
8, 34440, Note_on_c, 6, 67, 100
8, 34548, Note_on_c, 6, 67, 0
8, 34560, Note_on_c, 6, 72, 100
8, 34668, Note_on_c, 6, 72, 0
8, 34680, Note_on_c, 6, 71, 100
8, 34788, Note_on_c, 6, 71, 0
8, 34800, Note_on_c, 6, 72, 100
8, 34908, Note_on_c, 6, 72, 0
8, 34920, Note_on_c, 6, 74, 100
8, 35028, Note_on_c, 6, 74, 0
8, 35040, Note_on_c, 6, 72, 100
8, 35148, Note_on_c, 6, 72, 0
8, 35160, Note_on_c, 6, 76, 100
8, 35268, Note_on_c, 6, 76, 0
8, 35280, Note_on_c, 6, 74, 100
8, 35388, Note_on_c, 6, 74, 0
8, 35400, Note_on_c, 6, 72, 100
8, 35508, Note_on_c, 6, 72, 0
8, 35520, Note_on_c, 6, 71, 100
8, 35628, Note_on_c, 6, 71, 0
8, 35640, Note_on_c, 6, 74, 100
8, 35748, Note_on_c, 6, 74, 0
8, 35760, Note_on_c, 6, 67, 100
8, 35868, Note_on_c, 6, 67, 0
8, 35880, Note_on_c, 6, 71, 100
8, 35988, Note_on_c, 6, 71, 0
8, 36000, Note_on_c, 6, 72, 100
8, 36108, Note_on_c, 6, 72, 0
8, 36120, Note_on_c, 6, 76, 100
8, 36228, Note_on_c, 6, 76, 0
8, 36240, Note_on_c, 6, 67, 100
8, 36348, Note_on_c, 6, 67, 0
8, 36360, Note_on_c, 6, 71, 100
8, 36468, Note_on_c, 6, 71, 0
8, 36480, Note_on_c, 6, 69, 100
8, 36588, Note_on_c, 6, 69, 0
8, 36600, Note_on_c, 6, 72, 100
8, 36708, Note_on_c, 6, 72, 0
8, 36720, Note_on_c, 6, 65, 100
8, 36828, Note_on_c, 6, 65, 0
8, 36840, Note_on_c, 6, 69, 100
8, 36948, Note_on_c, 6, 69, 0
8, 36960, Note_on_c, 6, 71, 100
8, 37068, Note_on_c, 6, 71, 0
8, 37080, Note_on_c, 6, 74, 100
8, 37188, Note_on_c, 6, 74, 0
8, 37200, Note_on_c, 6, 65, 100
8, 37308, Note_on_c, 6, 65, 0
8, 37320, Note_on_c, 6, 69, 100
8, 37428, Note_on_c, 6, 69, 0
8, 37440, Note_on_c, 6, 67, 100
8, 37548, Note_on_c, 6, 67, 0
8, 37560, Note_on_c, 6, 71, 100
8, 37668, Note_on_c, 6, 71, 0
8, 37680, Note_on_c, 6, 64, 100
8, 37788, Note_on_c, 6, 64, 0
8, 37800, Note_on_c, 6, 67, 100
8, 37908, Note_on_c, 6, 67, 0
8, 37920, Note_on_c, 6, 69, 100
8, 38028, Note_on_c, 6, 69, 0
8, 38040, Note_on_c, 6, 72, 100
8, 38148, Note_on_c, 6, 72, 0
8, 38160, Note_on_c, 6, 64, 100
8, 38268, Note_on_c, 6, 64, 0
8, 38280, Note_on_c, 6, 67, 100
8, 38388, Note_on_c, 6, 67, 0
8, 38400, Note_on_c, 6, 65, 100
8, 38508, Note_on_c, 6, 65, 0
8, 38520, Note_on_c, 6, 69, 100
8, 38628, Note_on_c, 6, 69, 0
8, 38640, Note_on_c, 6, 62, 100
8, 38748, Note_on_c, 6, 62, 0
8, 38760, Note_on_c, 6, 65, 100
8, 38868, Note_on_c, 6, 65, 0
8, 38880, Note_on_c, 6, 67, 100
8, 38988, Note_on_c, 6, 67, 0
8, 39000, Note_on_c, 6, 71, 100
8, 39108, Note_on_c, 6, 71, 0
8, 39120, Note_on_c, 6, 62, 100
8, 39228, Note_on_c, 6, 62, 0
8, 39240, Note_on_c, 6, 65, 100
8, 39348, Note_on_c, 6, 65, 0
8, 39360, Note_on_c, 6, 64, 100
8, 39576, Note_on_c, 6, 64, 0
8, 40560, Note_on_c, 6, 72, 100
8, 40776, Note_on_c, 6, 72, 0
8, 40800, Note_on_c, 6, 74, 100
8, 41016, Note_on_c, 6, 74, 0
8, 41040, Note_on_c, 6, 76, 100
8, 41256, Note_on_c, 6, 76, 0
8, 41280, Note_on_c, 6, 77, 100
8, 41496, Note_on_c, 6, 77, 0
8, 42480, Note_on_c, 6, 74, 100
8, 42696, Note_on_c, 6, 74, 0
8, 42720, Note_on_c, 6, 76, 100
8, 42936, Note_on_c, 6, 76, 0
8, 42960, Note_on_c, 6, 78, 100
8, 43176, Note_on_c, 6, 78, 0
8, 43200, Note_on_c, 6, 79, 100
8, 43416, Note_on_c, 6, 79, 0
8, 44400, Note_on_c, 6, 76, 100
8, 44616, Note_on_c, 6, 76, 0
8, 44640, Note_on_c, 6, 78, 100
8, 44856, Note_on_c, 6, 78, 0
8, 44880, Note_on_c, 6, 80, 100
8, 45096, Note_on_c, 6, 80, 0
8, 45120, Note_on_c, 6, 81, 100
8, 45708, Note_on_c, 6, 81, 0
8, 45720, Note_on_c, 6, 84, 100
8, 45828, Note_on_c, 6, 84, 0
8, 45840, Note_on_c, 6, 83, 100
8, 45948, Note_on_c, 6, 83, 0
8, 45960, Note_on_c, 6, 81, 100
8, 46068, Note_on_c, 6, 81, 0
8, 46080, Note_on_c, 6, 80, 100
8, 46296, Note_on_c, 6, 80, 0
8, 46320, Note_on_c, 6, 76, 100
8, 46536, Note_on_c, 6, 76, 0
8, 46560, Note_on_c, 6, 81, 100
8, 46776, Note_on_c, 6, 81, 0
8, 46800, Note_on_c, 6, 76, 100
8, 47016, Note_on_c, 6, 76, 0
8, 47040, Note_on_c, 6, 77, 100
8, 47256, Note_on_c, 6, 77, 0
8, 47280, Note_on_c, 6, 74, 100
8, 47496, Note_on_c, 6, 74, 0
8, 47520, Note_on_c, 6, 79, 100
8, 47628, Note_on_c, 6, 79, 0
8, 47640, Note_on_c, 6, 77, 100
8, 47748, Note_on_c, 6, 77, 0
8, 47760, Note_on_c, 6, 76, 100
8, 47868, Note_on_c, 6, 76, 0
8, 47880, Note_on_c, 6, 74, 100
8, 47988, Note_on_c, 6, 74, 0
8, 48000, Note_on_c, 6, 77, 100
8, 48108, Note_on_c, 6, 77, 0
8, 48120, Note_on_c, 6, 76, 100
8, 48228, Note_on_c, 6, 76, 0
8, 48240, Note_on_c, 6, 74, 100
8, 48348, Note_on_c, 6, 74, 0
8, 48360, Note_on_c, 6, 72, 100
8, 48468, Note_on_c, 6, 72, 0
8, 48480, Note_on_c, 6, 77, 100
8, 48696, Note_on_c, 6, 77, 0
8, 48720, Note_on_c, 6, 72, 100
8, 48936, Note_on_c, 6, 72, 0
8, 48960, Note_on_c, 6, 74, 100
8, 49176, Note_on_c, 6, 74, 0
8, 49200, Note_on_c, 6, 71, 100
8, 49416, Note_on_c, 6, 71, 0
8, 49440, Note_on_c, 6, 76, 100
8, 49548, Note_on_c, 6, 76, 0
8, 49560, Note_on_c, 6, 74, 100
8, 49668, Note_on_c, 6, 74, 0
8, 49680, Note_on_c, 6, 72, 100
8, 49788, Note_on_c, 6, 72, 0
8, 49800, Note_on_c, 6, 71, 100
8, 49908, Note_on_c, 6, 71, 0
8, 49920, Note_on_c, 6, 72, 100
8, 50028, Note_on_c, 6, 72, 0
8, 50040, Note_on_c, 6, 76, 100
8, 50148, Note_on_c, 6, 76, 0
8, 50160, Note_on_c, 6, 69, 100
8, 50268, Note_on_c, 6, 69, 0
8, 50280, Note_on_c, 6, 72, 100
8, 50388, Note_on_c, 6, 72, 0
8, 50400, Note_on_c, 6, 74, 100
8, 50508, Note_on_c, 6, 74, 0
8, 50520, Note_on_c, 6, 77, 100
8, 50628, Note_on_c, 6, 77, 0
8, 50640, Note_on_c, 6, 69, 100
8, 50748, Note_on_c, 6, 69, 0
8, 50760, Note_on_c, 6, 74, 100
8, 50868, Note_on_c, 6, 74, 0
8, 50880, Note_on_c, 6, 72, 100
8, 50988, Note_on_c, 6, 72, 0
8, 51000, Note_on_c, 6, 76, 100
8, 51108, Note_on_c, 6, 76, 0
8, 51120, Note_on_c, 6, 69, 100
8, 51228, Note_on_c, 6, 69, 0
8, 51240, Note_on_c, 6, 72, 100
8, 51348, Note_on_c, 6, 72, 0
8, 51360, Note_on_c, 6, 74, 100
8, 51468, Note_on_c, 6, 74, 0
8, 51480, Note_on_c, 6, 77, 100
8, 51588, Note_on_c, 6, 77, 0
8, 51600, Note_on_c, 6, 69, 100
8, 51708, Note_on_c, 6, 69, 0
8, 51720, Note_on_c, 6, 74, 100
8, 51828, Note_on_c, 6, 74, 0
8, 51840, Note_on_c, 6, 72, 100
8, 51948, Note_on_c, 6, 72, 0
8, 51960, Note_on_c, 6, 71, 100
8, 52068, Note_on_c, 6, 71, 0
8, 52080, Note_on_c, 6, 69, 100
8, 52188, Note_on_c, 6, 69, 0
8, 52200, Note_on_c, 6, 71, 100
8, 52308, Note_on_c, 6, 71, 0
8, 52320, Note_on_c, 6, 72, 100
8, 52428, Note_on_c, 6, 72, 0
8, 52440, Note_on_c, 6, 74, 100
8, 52548, Note_on_c, 6, 74, 0
8, 52560, Note_on_c, 6, 72, 100
8, 52668, Note_on_c, 6, 72, 0
8, 52680, Note_on_c, 6, 74, 100
8, 52788, Note_on_c, 6, 74, 0
8, 52800, Note_on_c, 6, 76, 100
8, 53016, Note_on_c, 6, 76, 0
8, 53040, Note_on_c, 6, 69, 100
8, 53256, Note_on_c, 6, 69, 0
8, 53280, Note_on_c, 6, 64, 100
8, 53496, Note_on_c, 6, 64, 0
8, 53520, Note_on_c, 6, 68, 100
8, 53736, Note_on_c, 6, 68, 0
8, 53760, Note_on_c, 6, 69, 100
8, 54348, Note_on_c, 6, 69, 0
8, 54360, Note_on_c, 6, 71, 100
8, 54468, Note_on_c, 6, 71, 0
8, 54480, Note_on_c, 6, 69, 100
8, 54588, Note_on_c, 6, 69, 0
8, 54600, Note_on_c, 6, 71, 100
8, 54708, Note_on_c, 6, 71, 0
8, 54720, Note_on_c, 6, 69, 100
8, 55308, Note_on_c, 6, 69, 0
8, 55320, Note_on_c, 6, 71, 100
8, 55428, Note_on_c, 6, 71, 0
8, 55440, Note_on_c, 6, 69, 100
8, 55548, Note_on_c, 6, 69, 0
8, 55560, Note_on_c, 6, 71, 100
8, 55668, Note_on_c, 6, 71, 0
8, 55680, Note_on_c, 6, 69, 100
8, 55896, Note_on_c, 6, 69, 0
8, 62640, Note_on_c, 6, 79, 100
8, 62856, Note_on_c, 6, 79, 0
8, 62880, Note_on_c, 6, 79, 100
8, 63096, Note_on_c, 6, 79, 0
8, 63120, Note_on_c, 6, 79, 100
8, 63336, Note_on_c, 6, 79, 0
8, 63600, Note_on_c, 6, 77, 100
8, 63816, Note_on_c, 6, 77, 0
8, 63840, Note_on_c, 6, 77, 100
8, 64056, Note_on_c, 6, 77, 0
8, 64080, Note_on_c, 6, 77, 100
8, 64296, Note_on_c, 6, 77, 0
8, 64560, Note_on_c, 6, 76, 100
8, 64776, Note_on_c, 6, 76, 0
8, 64800, Note_on_c, 6, 76, 100
8, 65016, Note_on_c, 6, 76, 0
8, 65040, Note_on_c, 6, 76, 100
8, 65256, Note_on_c, 6, 76, 0
8, 65520, Note_on_c, 6, 74, 100
8, 65736, Note_on_c, 6, 74, 0
8, 65760, Note_on_c, 6, 74, 100
8, 65976, Note_on_c, 6, 74, 0
8, 66000, Note_on_c, 6, 74, 100
8, 66216, Note_on_c, 6, 74, 0
8, 66240, Note_on_c, 6, 72, 100
8, 67104, Note_on_c, 6, 72, 0
8, 67200, Note_on_c, 6, 71, 100
8, 67632, Note_on_c, 6, 71, 0
8, 67680, Note_on_c, 6, 76, 100
8, 68592, Note_on_c, 6, 76, 0
8, 68640, Note_on_c, 6, 74, 100
8, 69336, Note_on_c, 6, 74, 0
8, 69360, Note_on_c, 6, 71, 100
8, 69576, Note_on_c, 6, 71, 0
8, 69600, Note_on_c, 6, 76, 100
8, 69816, Note_on_c, 6, 76, 0
8, 69840, Note_on_c, 6, 74, 100
8, 70056, Note_on_c, 6, 74, 0
8, 70080, Note_on_c, 6, 73, 100
8, 70944, Note_on_c, 6, 73, 0
8, 71040, Note_on_c, 6, 72, 100
8, 71256, Note_on_c, 6, 72, 0
8, 71280, Note_on_c, 6, 69, 100
8, 71496, Note_on_c, 6, 69, 0
8, 71520, Note_on_c, 6, 74, 100
8, 71736, Note_on_c, 6, 74, 0
8, 71760, Note_on_c, 6, 72, 100
8, 71976, Note_on_c, 6, 72, 0
8, 72000, Note_on_c, 6, 71, 100
8, 72864, Note_on_c, 6, 71, 0
8, 72960, Note_on_c, 6, 70, 100
8, 73176, Note_on_c, 6, 70, 0
8, 73200, Note_on_c, 6, 67, 100
8, 73416, Note_on_c, 6, 67, 0
8, 73440, Note_on_c, 6, 72, 100
8, 73656, Note_on_c, 6, 72, 0
8, 73680, Note_on_c, 6, 70, 100
8, 73896, Note_on_c, 6, 70, 0
8, 73920, Note_on_c, 6, 69, 100
8, 75096, Note_on_c, 6, 69, 0
8, 75120, Note_on_c, 6, 66, 100
8, 75336, Note_on_c, 6, 66, 0
8, 75360, Note_on_c, 6, 71, 100
8, 75576, Note_on_c, 6, 71, 0
8, 75600, Note_on_c, 6, 69, 100
8, 75816, Note_on_c, 6, 69, 0
8, 75840, Note_on_c, 6, 67, 100
8, 76056, Note_on_c, 6, 67, 0
8, 76080, Note_on_c, 6, 71, 100
8, 76296, Note_on_c, 6, 71, 0
8, 76320, Note_on_c, 6, 67, 100
8, 76536, Note_on_c, 6, 67, 0
8, 76560, Note_on_c, 6, 64, 100
8, 76776, Note_on_c, 6, 64, 0
8, 77040, Note_on_c, 6, 78, 100
8, 77256, Note_on_c, 6, 78, 0
8, 77280, Note_on_c, 6, 74, 100
8, 77496, Note_on_c, 6, 74, 0
8, 77520, Note_on_c, 6, 71, 100
8, 77736, Note_on_c, 6, 71, 0
8, 78000, Note_on_c, 6, 76, 100
8, 78108, Note_on_c, 6, 76, 0
8, 78120, Note_on_c, 6, 75, 100
8, 78228, Note_on_c, 6, 75, 0
8, 78240, Note_on_c, 6, 76, 100
8, 78348, Note_on_c, 6, 76, 0
8, 78360, Note_on_c, 6, 78, 100
8, 78468, Note_on_c, 6, 78, 0
8, 78480, Note_on_c, 6, 79, 100
8, 78588, Note_on_c, 6, 79, 0
8, 78600, Note_on_c, 6, 81, 100
8, 78708, Note_on_c, 6, 81, 0
8, 78720, Note_on_c, 6, 83, 100
8, 78828, Note_on_c, 6, 83, 0
8, 78840, Note_on_c, 6, 78, 100
8, 78948, Note_on_c, 6, 78, 0
8, 78960, Note_on_c, 6, 75, 100
8, 79068, Note_on_c, 6, 75, 0
8, 79080, Note_on_c, 6, 78, 100
8, 79188, Note_on_c, 6, 78, 0
8, 79200, Note_on_c, 6, 83, 100
8, 79788, Note_on_c, 6, 83, 0
8, 79800, Note_on_c, 6, 76, 100
8, 79908, Note_on_c, 6, 76, 0
8, 79920, Note_on_c, 6, 72, 100
8, 80028, Note_on_c, 6, 72, 0
8, 80040, Note_on_c, 6, 76, 100
8, 80148, Note_on_c, 6, 76, 0
8, 80160, Note_on_c, 6, 81, 100
8, 80748, Note_on_c, 6, 81, 0
8, 80760, Note_on_c, 6, 74, 100
8, 80868, Note_on_c, 6, 74, 0
8, 80880, Note_on_c, 6, 71, 100
8, 80988, Note_on_c, 6, 71, 0
8, 81000, Note_on_c, 6, 74, 100
8, 81108, Note_on_c, 6, 74, 0
8, 81120, Note_on_c, 6, 79, 100
8, 81708, Note_on_c, 6, 79, 0
8, 81720, Note_on_c, 6, 72, 100
8, 81828, Note_on_c, 6, 72, 0
8, 81840, Note_on_c, 6, 69, 100
8, 81948, Note_on_c, 6, 69, 0
8, 81960, Note_on_c, 6, 72, 100
8, 82068, Note_on_c, 6, 72, 0
8, 82080, Note_on_c, 6, 78, 100
8, 82188, Note_on_c, 6, 78, 0
8, 82200, Note_on_c, 6, 74, 100
8, 82308, Note_on_c, 6, 74, 0
8, 82320, Note_on_c, 6, 71, 100
8, 82428, Note_on_c, 6, 71, 0
8, 82440, Note_on_c, 6, 74, 100
8, 82548, Note_on_c, 6, 74, 0
8, 82560, Note_on_c, 6, 76, 100
8, 82776, Note_on_c, 6, 76, 0
8, 82800, Note_on_c, 6, 64, 100
8, 83016, Note_on_c, 6, 64, 0
8, 83040, Note_on_c, 6, 76, 100
8, 83628, Note_on_c, 6, 76, 0
8, 83640, Note_on_c, 6, 77, 100
8, 83748, Note_on_c, 6, 77, 0
8, 83760, Note_on_c, 6, 76, 100
8, 83868, Note_on_c, 6, 76, 0
8, 83880, Note_on_c, 6, 77, 100
8, 83988, Note_on_c, 6, 77, 0
8, 84000, Note_on_c, 6, 76, 100
8, 84696, Note_on_c, 6, 76, 0
8, 85680, Note_on_c, 6, 76, 100
8, 85896, Note_on_c, 6, 76, 0
8, 85920, Note_on_c, 6, 78, 100
8, 86136, Note_on_c, 6, 78, 0
8, 86160, Note_on_c, 6, 80, 100
8, 86376, Note_on_c, 6, 80, 0
8, 86400, Note_on_c, 6, 81, 100
8, 86616, Note_on_c, 6, 81, 0
8, 87600, Note_on_c, 6, 69, 100
8, 87816, Note_on_c, 6, 69, 0
8, 87840, Note_on_c, 6, 71, 100
8, 88056, Note_on_c, 6, 71, 0
8, 88080, Note_on_c, 6, 73, 100
8, 88296, Note_on_c, 6, 73, 0
8, 88320, Note_on_c, 6, 74, 100
8, 88536, Note_on_c, 6, 74, 0
8, 89520, Note_on_c, 6, 74, 100
8, 89736, Note_on_c, 6, 74, 0
8, 89760, Note_on_c, 6, 76, 100
8, 89976, Note_on_c, 6, 76, 0
8, 90000, Note_on_c, 6, 78, 100
8, 90216, Note_on_c, 6, 78, 0
8, 90240, Note_on_c, 6, 79, 100
8, 90456, Note_on_c, 6, 79, 0
8, 91440, Note_on_c, 6, 79, 100
8, 91656, Note_on_c, 6, 79, 0
8, 91680, Note_on_c, 6, 81, 100
8, 91896, Note_on_c, 6, 81, 0
8, 91920, Note_on_c, 6, 83, 100
8, 92136, Note_on_c, 6, 83, 0
8, 92160, Note_on_c, 6, 84, 100
8, 92376, Note_on_c, 6, 84, 0
8, 92580, Note_on_c, 6, 79, 100
8, 92634, Note_on_c, 6, 79, 0
8, 92640, Note_on_c, 6, 81, 100
8, 92856, Note_on_c, 6, 81, 0
8, 93060, Note_on_c, 6, 77, 100
8, 93114, Note_on_c, 6, 77, 0
8, 93120, Note_on_c, 6, 79, 100
8, 93336, Note_on_c, 6, 79, 0
8, 93540, Note_on_c, 6, 76, 100
8, 93594, Note_on_c, 6, 76, 0
8, 93600, Note_on_c, 6, 77, 100
8, 93816, Note_on_c, 6, 77, 0
8, 94020, Note_on_c, 6, 74, 100
8, 94074, Note_on_c, 6, 74, 0
8, 94080, Note_on_c, 6, 76, 100
8, 94242, Note_on_c, 6, 76, 0
8, 94260, Note_on_c, 6, 72, 100
8, 94314, Note_on_c, 6, 72, 0
8, 94320, Note_on_c, 6, 79, 100
8, 94752, Note_on_c, 6, 79, 0
8, 94800, Note_on_c, 6, 77, 100
8, 94962, Note_on_c, 6, 77, 0
8, 94980, Note_on_c, 6, 76, 100
8, 95034, Note_on_c, 6, 76, 0
8, 95040, Note_on_c, 6, 74, 100
8, 95256, Note_on_c, 6, 74, 0
8, 95400, Note_on_c, 6, 74, 100
8, 95508, Note_on_c, 6, 74, 0
8, 95520, Note_on_c, 6, 76, 100
8, 95628, Note_on_c, 6, 76, 0
8, 95640, Note_on_c, 6, 79, 100
8, 95748, Note_on_c, 6, 79, 0
8, 95760, Note_on_c, 6, 72, 100
8, 95868, Note_on_c, 6, 72, 0
8, 95880, Note_on_c, 6, 76, 100
8, 95988, Note_on_c, 6, 76, 0
8, 96000, Note_on_c, 6, 74, 100
8, 96108, Note_on_c, 6, 74, 0
8, 96120, Note_on_c, 6, 77, 100
8, 96228, Note_on_c, 6, 77, 0
8, 96240, Note_on_c, 6, 71, 100
8, 96348, Note_on_c, 6, 71, 0
8, 96360, Note_on_c, 6, 74, 100
8, 96468, Note_on_c, 6, 74, 0
8, 96480, Note_on_c, 6, 72, 100
8, 96588, Note_on_c, 6, 72, 0
8, 96600, Note_on_c, 6, 76, 100
8, 96708, Note_on_c, 6, 76, 0
8, 96720, Note_on_c, 6, 67, 100
8, 96828, Note_on_c, 6, 67, 0
8, 96840, Note_on_c, 6, 72, 100
8, 96948, Note_on_c, 6, 72, 0
8, 96960, Note_on_c, 6, 71, 100
8, 97392, Note_on_c, 6, 71, 0
8, 97440, Note_on_c, 6, 72, 100
8, 97872, Note_on_c, 6, 72, 0
8, 97920, Note_on_c, 6, 75, 100
8, 98352, Note_on_c, 6, 75, 0
8, 98400, Note_on_c, 6, 78, 100
8, 98832, Note_on_c, 6, 78, 0
8, 98880, Note_on_c, 6, 79, 100
8, 100056, Note_on_c, 6, 79, 0
8, 100080, Note_on_c, 6, 67, 100
8, 100296, Note_on_c, 6, 67, 0
8, 100320, Note_on_c, 6, 72, 100
8, 100536, Note_on_c, 6, 72, 0
8, 100560, Note_on_c, 6, 74, 100
8, 100776, Note_on_c, 6, 74, 0
8, 100800, Note_on_c, 6, 76, 100
8, 101232, Note_on_c, 6, 76, 0
8, 101280, Note_on_c, 6, 77, 100
8, 101712, Note_on_c, 6, 77, 0
8, 101760, Note_on_c, 6, 80, 100
8, 102192, Note_on_c, 6, 80, 0
8, 102240, Note_on_c, 6, 83, 100
8, 102672, Note_on_c, 6, 83, 0
8, 102720, Note_on_c, 6, 84, 100
8, 103896, Note_on_c, 6, 84, 0
8, 103920, Note_on_c, 6, 72, 100
8, 104136, Note_on_c, 6, 72, 0
8, 104160, Note_on_c, 6, 77, 100
8, 104376, Note_on_c, 6, 77, 0
8, 104400, Note_on_c, 6, 79, 100
8, 104616, Note_on_c, 6, 79, 0
8, 104640, Note_on_c, 6, 81, 100
8, 104856, Note_on_c, 6, 81, 0
8, 104880, Note_on_c, 6, 72, 100
8, 105096, Note_on_c, 6, 72, 0
8, 105120, Note_on_c, 6, 77, 100
8, 106032, Note_on_c, 6, 77, 0
8, 106080, Note_on_c, 6, 76, 100
8, 106512, Note_on_c, 6, 76, 0
8, 106560, Note_on_c, 6, 74, 100
8, 106776, Note_on_c, 6, 74, 0
8, 106800, Note_on_c, 6, 67, 100
8, 107016, Note_on_c, 6, 67, 0
8, 107040, Note_on_c, 6, 79, 100
8, 107952, Note_on_c, 6, 79, 0
8, 108000, Note_on_c, 6, 77, 100
8, 108432, Note_on_c, 6, 77, 0
8, 108480, Note_on_c, 6, 76, 100
8, 108696, Note_on_c, 6, 76, 0
8, 108720, Note_on_c, 6, 69, 100
8, 108936, Note_on_c, 6, 69, 0
8, 108960, Note_on_c, 6, 81, 100
8, 109872, Note_on_c, 6, 81, 0
8, 109920, Note_on_c, 6, 79, 100
8, 110832, Note_on_c, 6, 79, 0
8, 110880, Note_on_c, 6, 77, 100
8, 111792, Note_on_c, 6, 77, 0
8, 111840, Note_on_c, 6, 76, 100
8, 112752, Note_on_c, 6, 76, 0
8, 112800, Note_on_c, 6, 74, 100
8, 113496, Note_on_c, 6, 74, 0
8, 113520, Note_on_c, 6, 71, 100
8, 113736, Note_on_c, 6, 71, 0
8, 113760, Note_on_c, 6, 76, 100
8, 114456, Note_on_c, 6, 76, 0
8, 114480, Note_on_c, 6, 72, 100
8, 114696, Note_on_c, 6, 72, 0
8, 114720, Note_on_c, 6, 77, 100
8, 115632, Note_on_c, 6, 77, 0
8, 115680, Note_on_c, 6, 76, 100
8, 116112, Note_on_c, 6, 76, 0
8, 116160, Note_on_c, 6, 74, 100
8, 116376, Note_on_c, 6, 74, 0
8, 116400, Note_on_c, 6, 79, 100
8, 116616, Note_on_c, 6, 79, 0
8, 116640, Note_on_c, 6, 72, 100
8, 117072, Note_on_c, 6, 72, 0
8, 117120, Note_on_c, 6, 71, 100
8, 117336, Note_on_c, 6, 71, 0
8, 117360, Note_on_c, 6, 76, 100
8, 117576, Note_on_c, 6, 76, 0
8, 117600, Note_on_c, 6, 69, 100
8, 118032, Note_on_c, 6, 69, 0
8, 118080, Note_on_c, 6, 67, 100
8, 118296, Note_on_c, 6, 67, 0
8, 118320, Note_on_c, 6, 72, 100
8, 118536, Note_on_c, 6, 72, 0
8, 118560, Note_on_c, 6, 65, 100
8, 118992, Note_on_c, 6, 65, 0
8, 119040, Note_on_c, 6, 64, 100
8, 119688, Note_on_c, 6, 64, 0
8, 119760, Note_on_c, 6, 66, 100
8, 119976, Note_on_c, 6, 66, 0
8, 120000, Note_on_c, 6, 67, 100
8, 120216, Note_on_c, 6, 67, 0
8, 121200, Note_on_c, 6, 77, 100
8, 121632, Note_on_c, 6, 77, 0
8, 121680, Note_on_c, 6, 76, 100
8, 121896, Note_on_c, 6, 76, 0
8, 121920, Note_on_c, 6, 77, 100
8, 122136, Note_on_c, 6, 77, 0
8, 123120, Note_on_c, 6, 72, 100
8, 123552, Note_on_c, 6, 72, 0
8, 123600, Note_on_c, 6, 71, 100
8, 123816, Note_on_c, 6, 71, 0
8, 123840, Note_on_c, 6, 72, 100
8, 124056, Note_on_c, 6, 72, 0
8, 125040, Note_on_c, 6, 79, 100
8, 125472, Note_on_c, 6, 79, 0
8, 125520, Note_on_c, 6, 78, 100
8, 125736, Note_on_c, 6, 78, 0
8, 125760, Note_on_c, 6, 83, 100
8, 126624, Note_on_c, 6, 83, 0
8, 126720, Note_on_c, 6, 81, 100
8, 127896, Note_on_c, 6, 81, 0
8, 127920, Note_on_c, 6, 79, 100
8, 128028, Note_on_c, 6, 79, 0
8, 128040, Note_on_c, 6, 78, 100
8, 128148, Note_on_c, 6, 78, 0
8, 128160, Note_on_c, 6, 76, 100
8, 128268, Note_on_c, 6, 76, 0
8, 128280, Note_on_c, 6, 79, 100
8, 128388, Note_on_c, 6, 79, 0
8, 128400, Note_on_c, 6, 78, 100
8, 128508, Note_on_c, 6, 78, 0
8, 128520, Note_on_c, 6, 76, 100
8, 128628, Note_on_c, 6, 76, 0
8, 128640, Note_on_c, 6, 74, 100
8, 129504, Note_on_c, 6, 74, 0
8, 129600, Note_on_c, 6, 72, 100
8, 130464, Note_on_c, 6, 72, 0
8, 130560, Note_on_c, 6, 71, 100
8, 131424, Note_on_c, 6, 71, 0
8, 131520, Note_on_c, 6, 69, 100
8, 132384, Note_on_c, 6, 69, 0
8, 132480, Note_on_c, 6, 67, 100
8, 133068, Note_on_c, 6, 67, 0
8, 133080, Note_on_c, 6, 69, 100
8, 133188, Note_on_c, 6, 69, 0
8, 133200, Note_on_c, 6, 67, 100
8, 133308, Note_on_c, 6, 67, 0
8, 133320, Note_on_c, 6, 69, 100
8, 133428, Note_on_c, 6, 69, 0
8, 133440, Note_on_c, 6, 67, 100
8, 134028, Note_on_c, 6, 67, 0
8, 134040, Note_on_c, 6, 69, 100
8, 134148, Note_on_c, 6, 69, 0
8, 134160, Note_on_c, 6, 67, 100
8, 134268, Note_on_c, 6, 67, 0
8, 134280, Note_on_c, 6, 69, 100
8, 134388, Note_on_c, 6, 69, 0
8, 134400, Note_on_c, 6, 67, 100
8, 134616, Note_on_c, 6, 67, 0
8, 135360, Note_on_c, 6, 71, 100
8, 135576, Note_on_c, 6, 71, 0
8, 136320, Note_on_c, 6, 74, 100
8, 136536, Note_on_c, 6, 74, 0
8, 137280, Note_on_c, 6, 77, 100
8, 137496, Note_on_c, 6, 77, 0
8, 137520, Note_on_c, 6, 71, 100
8, 137736, Note_on_c, 6, 71, 0
8, 137760, Note_on_c, 6, 71, 100
8, 137976, Note_on_c, 6, 71, 0
8, 138000, Note_on_c, 6, 71, 100
8, 138216, Note_on_c, 6, 71, 0
8, 138240, Note_on_c, 6, 72, 100
8, 138456, Note_on_c, 6, 72, 0
8, 139200, Note_on_c, 6, 64, 100
8, 139416, Note_on_c, 6, 64, 0
8, 140160, Note_on_c, 6, 67, 100
8, 140376, Note_on_c, 6, 67, 0
8, 141120, Note_on_c, 6, 70, 100
8, 141336, Note_on_c, 6, 70, 0
8, 141360, Note_on_c, 6, 64, 100
8, 141576, Note_on_c, 6, 64, 0
8, 141600, Note_on_c, 6, 64, 100
8, 141816, Note_on_c, 6, 64, 0
8, 141840, Note_on_c, 6, 64, 100
8, 142056, Note_on_c, 6, 64, 0
8, 142080, Note_on_c, 6, 65, 100
8, 142296, Note_on_c, 6, 65, 0
8, 143040, Note_on_c, 6, 68, 100
8, 146568, Note_on_c, 6, 68, 0
8, 146640, Note_on_c, 6, 79, 100
8, 146748, Note_on_c, 6, 79, 0
8, 146760, Note_on_c, 6, 77, 100
8, 146868, Note_on_c, 6, 77, 0
8, 146880, Note_on_c, 6, 74, 100
8, 147096, Note_on_c, 6, 74, 0
8, 147840, Note_on_c, 6, 80, 100
8, 148056, Note_on_c, 6, 80, 0
8, 149040, Note_on_c, 6, 71, 100
8, 149256, Note_on_c, 6, 71, 0
8, 149280, Note_on_c, 6, 71, 100
8, 149496, Note_on_c, 6, 71, 0
8, 149520, Note_on_c, 6, 71, 100
8, 149736, Note_on_c, 6, 71, 0
8, 149760, Note_on_c, 6, 72, 100
8, 151896, Note_on_c, 6, 72, 0
8, 152640, Note_on_c, 6, 75, 100
8, 152856, Note_on_c, 6, 75, 0
8, 153840, Note_on_c, 6, 78, 100
8, 154056, Note_on_c, 6, 78, 0
8, 154080, Note_on_c, 6, 78, 100
8, 154296, Note_on_c, 6, 78, 0
8, 154320, Note_on_c, 6, 78, 100
8, 154536, Note_on_c, 6, 78, 0
8, 154560, Note_on_c, 6, 79, 100
8, 156384, Note_on_c, 6, 79, 0
8, 156480, Note_on_c, 6, 77, 100
8, 157344, Note_on_c, 6, 77, 0
8, 157440, Note_on_c, 6, 75, 100
8, 159792, Note_on_c, 6, 75, 0
8, 159840, Note_on_c, 6, 72, 100
8, 160272, Note_on_c, 6, 72, 0
8, 160320, Note_on_c, 6, 71, 100
8, 160536, Note_on_c, 6, 71, 0
8, 167280, Note_on_c, 6, 60, 100
8, 167388, Note_on_c, 6, 60, 0
8, 167400, Note_on_c, 6, 59, 100
8, 167508, Note_on_c, 6, 59, 0
8, 167520, Note_on_c, 6, 60, 100
8, 167628, Note_on_c, 6, 60, 0
8, 167640, Note_on_c, 6, 62, 100
8, 167748, Note_on_c, 6, 62, 0
8, 167760, Note_on_c, 6, 64, 100
8, 167868, Note_on_c, 6, 64, 0
8, 167880, Note_on_c, 6, 65, 100
8, 167988, Note_on_c, 6, 65, 0
8, 168000, Note_on_c, 6, 67, 100
8, 168108, Note_on_c, 6, 67, 0
8, 168120, Note_on_c, 6, 66, 100
8, 168228, Note_on_c, 6, 66, 0
8, 168240, Note_on_c, 6, 67, 100
8, 168348, Note_on_c, 6, 67, 0
8, 168360, Note_on_c, 6, 69, 100
8, 168468, Note_on_c, 6, 69, 0
8, 168480, Note_on_c, 6, 71, 100
8, 168588, Note_on_c, 6, 71, 0
8, 168600, Note_on_c, 6, 69, 100
8, 168708, Note_on_c, 6, 69, 0
8, 168720, Note_on_c, 6, 71, 100
8, 168828, Note_on_c, 6, 71, 0
8, 168840, Note_on_c, 6, 67, 100
8, 168948, Note_on_c, 6, 67, 0
8, 168960, Note_on_c, 6, 72, 100
8, 169068, Note_on_c, 6, 72, 0
8, 169080, Note_on_c, 6, 71, 100
8, 169188, Note_on_c, 6, 71, 0
8, 169200, Note_on_c, 6, 72, 100
8, 169308, Note_on_c, 6, 72, 0
8, 169320, Note_on_c, 6, 74, 100
8, 169428, Note_on_c, 6, 74, 0
8, 169440, Note_on_c, 6, 72, 100
8, 169548, Note_on_c, 6, 72, 0
8, 169560, Note_on_c, 6, 76, 100
8, 169668, Note_on_c, 6, 76, 0
8, 169680, Note_on_c, 6, 74, 100
8, 169788, Note_on_c, 6, 74, 0
8, 169800, Note_on_c, 6, 72, 100
8, 169908, Note_on_c, 6, 72, 0
8, 169920, Note_on_c, 6, 71, 100
8, 170028, Note_on_c, 6, 71, 0
8, 170040, Note_on_c, 6, 74, 100
8, 170148, Note_on_c, 6, 74, 0
8, 170160, Note_on_c, 6, 67, 100
8, 170268, Note_on_c, 6, 67, 0
8, 170280, Note_on_c, 6, 71, 100
8, 170388, Note_on_c, 6, 71, 0
8, 170400, Note_on_c, 6, 72, 100
8, 170508, Note_on_c, 6, 72, 0
8, 170520, Note_on_c, 6, 76, 100
8, 170628, Note_on_c, 6, 76, 0
8, 170640, Note_on_c, 6, 67, 100
8, 170748, Note_on_c, 6, 67, 0
8, 170760, Note_on_c, 6, 71, 100
8, 170868, Note_on_c, 6, 71, 0
8, 170880, Note_on_c, 6, 69, 100
8, 170988, Note_on_c, 6, 69, 0
8, 171000, Note_on_c, 6, 72, 100
8, 171108, Note_on_c, 6, 72, 0
8, 171120, Note_on_c, 6, 65, 100
8, 171228, Note_on_c, 6, 65, 0
8, 171240, Note_on_c, 6, 69, 100
8, 171348, Note_on_c, 6, 69, 0
8, 171360, Note_on_c, 6, 71, 100
8, 171468, Note_on_c, 6, 71, 0
8, 171480, Note_on_c, 6, 74, 100
8, 171588, Note_on_c, 6, 74, 0
8, 171600, Note_on_c, 6, 65, 100
8, 171708, Note_on_c, 6, 65, 0
8, 171720, Note_on_c, 6, 69, 100
8, 171828, Note_on_c, 6, 69, 0
8, 171840, Note_on_c, 6, 67, 100
8, 171948, Note_on_c, 6, 67, 0
8, 171960, Note_on_c, 6, 71, 100
8, 172068, Note_on_c, 6, 71, 0
8, 172080, Note_on_c, 6, 64, 100
8, 172188, Note_on_c, 6, 64, 0
8, 172200, Note_on_c, 6, 67, 100
8, 172308, Note_on_c, 6, 67, 0
8, 172320, Note_on_c, 6, 69, 100
8, 172428, Note_on_c, 6, 69, 0
8, 172440, Note_on_c, 6, 72, 100
8, 172548, Note_on_c, 6, 72, 0
8, 172560, Note_on_c, 6, 64, 100
8, 172668, Note_on_c, 6, 64, 0
8, 172680, Note_on_c, 6, 67, 100
8, 172788, Note_on_c, 6, 67, 0
8, 172800, Note_on_c, 6, 65, 100
8, 172908, Note_on_c, 6, 65, 0
8, 172920, Note_on_c, 6, 69, 100
8, 173028, Note_on_c, 6, 69, 0
8, 173040, Note_on_c, 6, 62, 100
8, 173148, Note_on_c, 6, 62, 0
8, 173160, Note_on_c, 6, 65, 100
8, 173268, Note_on_c, 6, 65, 0
8, 173280, Note_on_c, 6, 67, 100
8, 173388, Note_on_c, 6, 67, 0
8, 173400, Note_on_c, 6, 71, 100
8, 173508, Note_on_c, 6, 71, 0
8, 173520, Note_on_c, 6, 62, 100
8, 173628, Note_on_c, 6, 62, 0
8, 173640, Note_on_c, 6, 65, 100
8, 173748, Note_on_c, 6, 65, 0
8, 173760, Note_on_c, 6, 64, 100
8, 173868, Note_on_c, 6, 64, 0
8, 173880, Note_on_c, 6, 67, 100
8, 173988, Note_on_c, 6, 67, 0
8, 174000, Note_on_c, 6, 60, 100
8, 174108, Note_on_c, 6, 60, 0
8, 174120, Note_on_c, 6, 64, 100
8, 174228, Note_on_c, 6, 64, 0
8, 174240, Note_on_c, 6, 65, 100
8, 174348, Note_on_c, 6, 65, 0
8, 174360, Note_on_c, 6, 69, 100
8, 174468, Note_on_c, 6, 69, 0
8, 174480, Note_on_c, 6, 60, 100
8, 174588, Note_on_c, 6, 60, 0
8, 174600, Note_on_c, 6, 65, 100
8, 174708, Note_on_c, 6, 65, 0
8, 174720, Note_on_c, 6, 64, 100
8, 174828, Note_on_c, 6, 64, 0
8, 174840, Note_on_c, 6, 67, 100
8, 174948, Note_on_c, 6, 67, 0
8, 174960, Note_on_c, 6, 60, 100
8, 175068, Note_on_c, 6, 60, 0
8, 175080, Note_on_c, 6, 64, 100
8, 175188, Note_on_c, 6, 64, 0
8, 175200, Note_on_c, 6, 65, 100
8, 175308, Note_on_c, 6, 65, 0
8, 175320, Note_on_c, 6, 69, 100
8, 175428, Note_on_c, 6, 69, 0
8, 175440, Note_on_c, 6, 60, 100
8, 175548, Note_on_c, 6, 60, 0
8, 175560, Note_on_c, 6, 65, 100
8, 175668, Note_on_c, 6, 65, 0
8, 175680, Note_on_c, 6, 64, 100
8, 175788, Note_on_c, 6, 64, 0
8, 175800, Note_on_c, 6, 60, 100
8, 175908, Note_on_c, 6, 60, 0
8, 175920, Note_on_c, 6, 62, 100
8, 176028, Note_on_c, 6, 62, 0
8, 176040, Note_on_c, 6, 64, 100
8, 176148, Note_on_c, 6, 64, 0
8, 176160, Note_on_c, 6, 65, 100
8, 176268, Note_on_c, 6, 65, 0
8, 176280, Note_on_c, 6, 67, 100
8, 176388, Note_on_c, 6, 67, 0
8, 176400, Note_on_c, 6, 69, 100
8, 176508, Note_on_c, 6, 69, 0
8, 176520, Note_on_c, 6, 71, 100
8, 176628, Note_on_c, 6, 71, 0
8, 176640, Note_on_c, 6, 72, 100
8, 176856, Note_on_c, 6, 72, 0
8, 176880, Note_on_c, 6, 74, 100
8, 177096, Note_on_c, 6, 74, 0
8, 177120, Note_on_c, 6, 67, 100
8, 177336, Note_on_c, 6, 67, 0
8, 177360, Note_on_c, 6, 71, 100
8, 177576, Note_on_c, 6, 71, 0
8, 177600, Note_on_c, 6, 72, 100
8, 178188, Note_on_c, 6, 72, 0
8, 178200, Note_on_c, 6, 74, 100
8, 178308, Note_on_c, 6, 74, 0
8, 178320, Note_on_c, 6, 72, 100
8, 178428, Note_on_c, 6, 72, 0
8, 178440, Note_on_c, 6, 74, 100
8, 178548, Note_on_c, 6, 74, 0
8, 178560, Note_on_c, 6, 72, 100
8, 179148, Note_on_c, 6, 72, 0
8, 179160, Note_on_c, 6, 74, 100
8, 179268, Note_on_c, 6, 74, 0
8, 179280, Note_on_c, 6, 72, 100
8, 179388, Note_on_c, 6, 72, 0
8, 179400, Note_on_c, 6, 74, 100
8, 179508, Note_on_c, 6, 74, 0
8, 179520, Note_on_c, 6, 72, 100
8, 179736, Note_on_c, 6, 72, 0
8, 180480, Note_on_c, 6, 76, 100
8, 180696, Note_on_c, 6, 76, 0
8, 181440, Note_on_c, 6, 79, 100
8, 181656, Note_on_c, 6, 79, 0
8, 182400, Note_on_c, 6, 76, 100
8, 182616, Note_on_c, 6, 76, 0
8, 182640, Note_on_c, 6, 74, 100
8, 182856, Note_on_c, 6, 74, 0
8, 182880, Note_on_c, 6, 67, 100
8, 183096, Note_on_c, 6, 67, 0
8, 183120, Note_on_c, 6, 71, 100
8, 183336, Note_on_c, 6, 71, 0
8, 183360, Note_on_c, 6, 72, 100
8, 184224, Note_on_c, 6, 72, 0
8, 184224, End_track
9, 0, Start_track
9, 0, Sequence_number, 65535
9, 0, MIDI_port, 0
9, 0, Title_t, "II"
9, 0, Control_c, 7, 0, 0
9, 0, Control_c, 7, 32, 0
9, 0, Program_c, 7, 48
9, 0, Control_c, 7, 7, 100
9, 0, Control_c, 7, 10, 114
9, 240, Note_on_c, 7, 60, 100
9, 348, Note_on_c, 7, 60, 0
9, 360, Note_on_c, 7, 59, 100
9, 468, Note_on_c, 7, 59, 0
9, 480, Note_on_c, 7, 60, 100
9, 588, Note_on_c, 7, 60, 0
9, 600, Note_on_c, 7, 62, 100
9, 708, Note_on_c, 7, 62, 0
9, 720, Note_on_c, 7, 64, 100
9, 828, Note_on_c, 7, 64, 0
9, 840, Note_on_c, 7, 65, 100
9, 948, Note_on_c, 7, 65, 0
9, 960, Note_on_c, 7, 67, 100
9, 1068, Note_on_c, 7, 67, 0
9, 1080, Note_on_c, 7, 66, 100
9, 1188, Note_on_c, 7, 66, 0
9, 1200, Note_on_c, 7, 67, 100
9, 1308, Note_on_c, 7, 67, 0
9, 1320, Note_on_c, 7, 69, 100
9, 1428, Note_on_c, 7, 69, 0
9, 1440, Note_on_c, 7, 71, 100
9, 1548, Note_on_c, 7, 71, 0
9, 1560, Note_on_c, 7, 69, 100
9, 1668, Note_on_c, 7, 69, 0
9, 1680, Note_on_c, 7, 71, 100
9, 1788, Note_on_c, 7, 71, 0
9, 1800, Note_on_c, 7, 67, 100
9, 1908, Note_on_c, 7, 67, 0
9, 1920, Note_on_c, 7, 72, 100
9, 2028, Note_on_c, 7, 72, 0
9, 2040, Note_on_c, 7, 71, 100
9, 2148, Note_on_c, 7, 71, 0
9, 2160, Note_on_c, 7, 72, 100
9, 2268, Note_on_c, 7, 72, 0
9, 2280, Note_on_c, 7, 74, 100
9, 2388, Note_on_c, 7, 74, 0
9, 2400, Note_on_c, 7, 72, 100
9, 2508, Note_on_c, 7, 72, 0
9, 2520, Note_on_c, 7, 76, 100
9, 2628, Note_on_c, 7, 76, 0
9, 2640, Note_on_c, 7, 74, 100
9, 2748, Note_on_c, 7, 74, 0
9, 2760, Note_on_c, 7, 72, 100
9, 2868, Note_on_c, 7, 72, 0
9, 2880, Note_on_c, 7, 71, 100
9, 2988, Note_on_c, 7, 71, 0
9, 3000, Note_on_c, 7, 74, 100
9, 3108, Note_on_c, 7, 74, 0
9, 3120, Note_on_c, 7, 67, 100
9, 3228, Note_on_c, 7, 67, 0
9, 3240, Note_on_c, 7, 71, 100
9, 3348, Note_on_c, 7, 71, 0
9, 3360, Note_on_c, 7, 72, 100
9, 3468, Note_on_c, 7, 72, 0
9, 3480, Note_on_c, 7, 76, 100
9, 3588, Note_on_c, 7, 76, 0
9, 3600, Note_on_c, 7, 67, 100
9, 3708, Note_on_c, 7, 67, 0
9, 3720, Note_on_c, 7, 71, 100
9, 3828, Note_on_c, 7, 71, 0
9, 3840, Note_on_c, 7, 69, 100
9, 3948, Note_on_c, 7, 69, 0
9, 3960, Note_on_c, 7, 72, 100
9, 4068, Note_on_c, 7, 72, 0
9, 4080, Note_on_c, 7, 65, 100
9, 4188, Note_on_c, 7, 65, 0
9, 4200, Note_on_c, 7, 69, 100
9, 4308, Note_on_c, 7, 69, 0
9, 4320, Note_on_c, 7, 71, 100
9, 4428, Note_on_c, 7, 71, 0
9, 4440, Note_on_c, 7, 74, 100
9, 4548, Note_on_c, 7, 74, 0
9, 4560, Note_on_c, 7, 65, 100
9, 4668, Note_on_c, 7, 65, 0
9, 4680, Note_on_c, 7, 69, 100
9, 4788, Note_on_c, 7, 69, 0
9, 4800, Note_on_c, 7, 67, 100
9, 4908, Note_on_c, 7, 67, 0
9, 4920, Note_on_c, 7, 71, 100
9, 5028, Note_on_c, 7, 71, 0
9, 5040, Note_on_c, 7, 64, 100
9, 5148, Note_on_c, 7, 64, 0
9, 5160, Note_on_c, 7, 67, 100
9, 5268, Note_on_c, 7, 67, 0
9, 5280, Note_on_c, 7, 69, 100
9, 5388, Note_on_c, 7, 69, 0
9, 5400, Note_on_c, 7, 72, 100
9, 5508, Note_on_c, 7, 72, 0
9, 5520, Note_on_c, 7, 64, 100
9, 5628, Note_on_c, 7, 64, 0
9, 5640, Note_on_c, 7, 67, 100
9, 5748, Note_on_c, 7, 67, 0
9, 5760, Note_on_c, 7, 65, 100
9, 5868, Note_on_c, 7, 65, 0
9, 5880, Note_on_c, 7, 69, 100
9, 5988, Note_on_c, 7, 69, 0
9, 6000, Note_on_c, 7, 62, 100
9, 6108, Note_on_c, 7, 62, 0
9, 6120, Note_on_c, 7, 65, 100
9, 6228, Note_on_c, 7, 65, 0
9, 6240, Note_on_c, 7, 67, 100
9, 6348, Note_on_c, 7, 67, 0
9, 6360, Note_on_c, 7, 71, 100
9, 6468, Note_on_c, 7, 71, 0
9, 6480, Note_on_c, 7, 62, 100
9, 6588, Note_on_c, 7, 62, 0
9, 6600, Note_on_c, 7, 65, 100
9, 6708, Note_on_c, 7, 65, 0
9, 6720, Note_on_c, 7, 64, 100
9, 6828, Note_on_c, 7, 64, 0
9, 6840, Note_on_c, 7, 67, 100
9, 6948, Note_on_c, 7, 67, 0
9, 6960, Note_on_c, 7, 60, 100
9, 7068, Note_on_c, 7, 60, 0
9, 7080, Note_on_c, 7, 64, 100
9, 7188, Note_on_c, 7, 64, 0
9, 7200, Note_on_c, 7, 65, 100
9, 7308, Note_on_c, 7, 65, 0
9, 7320, Note_on_c, 7, 69, 100
9, 7428, Note_on_c, 7, 69, 0
9, 7440, Note_on_c, 7, 60, 100
9, 7548, Note_on_c, 7, 60, 0
9, 7560, Note_on_c, 7, 65, 100
9, 7668, Note_on_c, 7, 65, 0
9, 7680, Note_on_c, 7, 64, 100
9, 7788, Note_on_c, 7, 64, 0
9, 7800, Note_on_c, 7, 67, 100
9, 7908, Note_on_c, 7, 67, 0
9, 7920, Note_on_c, 7, 60, 100
9, 8028, Note_on_c, 7, 60, 0
9, 8040, Note_on_c, 7, 64, 100
9, 8148, Note_on_c, 7, 64, 0
9, 8160, Note_on_c, 7, 65, 100
9, 8268, Note_on_c, 7, 65, 0
9, 8280, Note_on_c, 7, 69, 100
9, 8388, Note_on_c, 7, 69, 0
9, 8400, Note_on_c, 7, 60, 100
9, 8508, Note_on_c, 7, 60, 0
9, 8520, Note_on_c, 7, 65, 100
9, 8628, Note_on_c, 7, 65, 0
9, 8640, Note_on_c, 7, 64, 100
9, 8748, Note_on_c, 7, 64, 0
9, 8760, Note_on_c, 7, 67, 100
9, 8868, Note_on_c, 7, 67, 0
9, 8880, Note_on_c, 7, 60, 100
9, 9096, Note_on_c, 7, 60, 0
9, 13680, Note_on_c, 7, 69, 100
9, 13896, Note_on_c, 7, 69, 0
9, 13920, Note_on_c, 7, 74, 100
9, 14136, Note_on_c, 7, 74, 0
9, 14160, Note_on_c, 7, 74, 100
9, 14376, Note_on_c, 7, 74, 0
9, 14400, Note_on_c, 7, 74, 100
9, 14616, Note_on_c, 7, 74, 0
9, 14640, Note_on_c, 7, 73, 100
9, 14748, Note_on_c, 7, 73, 0
9, 14760, Note_on_c, 7, 71, 100
9, 14868, Note_on_c, 7, 71, 0
9, 14880, Note_on_c, 7, 73, 100
9, 14988, Note_on_c, 7, 73, 0
9, 15000, Note_on_c, 7, 74, 100
9, 15108, Note_on_c, 7, 74, 0
9, 15120, Note_on_c, 7, 71, 100
9, 15228, Note_on_c, 7, 71, 0
9, 15240, Note_on_c, 7, 73, 100
9, 15348, Note_on_c, 7, 73, 0
9, 15360, Note_on_c, 7, 74, 100
9, 15468, Note_on_c, 7, 74, 0
9, 15480, Note_on_c, 7, 78, 100
9, 15588, Note_on_c, 7, 78, 0
9, 15600, Note_on_c, 7, 79, 100
9, 15708, Note_on_c, 7, 79, 0
9, 15720, Note_on_c, 7, 81, 100
9, 15828, Note_on_c, 7, 81, 0
9, 15840, Note_on_c, 7, 83, 100
9, 16056, Note_on_c, 7, 83, 0
9, 16080, Note_on_c, 7, 83, 100
9, 16296, Note_on_c, 7, 83, 0
9, 16320, Note_on_c, 7, 83, 100
9, 16536, Note_on_c, 7, 83, 0
9, 16560, Note_on_c, 7, 81, 100
9, 16668, Note_on_c, 7, 81, 0
9, 16680, Note_on_c, 7, 79, 100
9, 16788, Note_on_c, 7, 79, 0
9, 16800, Note_on_c, 7, 81, 100
9, 17016, Note_on_c, 7, 81, 0
9, 17040, Note_on_c, 7, 81, 100
9, 17256, Note_on_c, 7, 81, 0
9, 17280, Note_on_c, 7, 81, 100
9, 17496, Note_on_c, 7, 81, 0
9, 17520, Note_on_c, 7, 79, 100
9, 17628, Note_on_c, 7, 79, 0
9, 17640, Note_on_c, 7, 78, 100
9, 17748, Note_on_c, 7, 78, 0
9, 17760, Note_on_c, 7, 79, 100
9, 18456, Note_on_c, 7, 79, 0
9, 18480, Note_on_c, 7, 78, 100
9, 18588, Note_on_c, 7, 78, 0
9, 18600, Note_on_c, 7, 76, 100
9, 18708, Note_on_c, 7, 76, 0
9, 18720, Note_on_c, 7, 74, 100
9, 19416, Note_on_c, 7, 74, 0
9, 19440, Note_on_c, 7, 65, 100
9, 19656, Note_on_c, 7, 65, 0
9, 19680, Note_on_c, 7, 64, 100
9, 19896, Note_on_c, 7, 64, 0
9, 19920, Note_on_c, 7, 76, 100
9, 20136, Note_on_c, 7, 76, 0
9, 20160, Note_on_c, 7, 74, 100
9, 20376, Note_on_c, 7, 74, 0
9, 20400, Note_on_c, 7, 71, 100
9, 20616, Note_on_c, 7, 71, 0
9, 20640, Note_on_c, 7, 67, 100
9, 20856, Note_on_c, 7, 67, 0
9, 20880, Note_on_c, 7, 76, 100
9, 21096, Note_on_c, 7, 76, 0
9, 21120, Note_on_c, 7, 74, 100
9, 21336, Note_on_c, 7, 74, 0
9, 22320, Note_on_c, 7, 69, 100
9, 22536, Note_on_c, 7, 69, 0
9, 22560, Note_on_c, 7, 69, 100
9, 22776, Note_on_c, 7, 69, 0
9, 22800, Note_on_c, 7, 69, 100
9, 23016, Note_on_c, 7, 69, 0
9, 23040, Note_on_c, 7, 69, 100
9, 23256, Note_on_c, 7, 69, 0
9, 24240, Note_on_c, 7, 67, 100
9, 24456, Note_on_c, 7, 67, 0
9, 24480, Note_on_c, 7, 67, 100
9, 24696, Note_on_c, 7, 67, 0
9, 24720, Note_on_c, 7, 67, 100
9, 24936, Note_on_c, 7, 67, 0
9, 24960, Note_on_c, 7, 67, 100
9, 25176, Note_on_c, 7, 67, 0
9, 26160, Note_on_c, 7, 67, 100
9, 26376, Note_on_c, 7, 67, 0
9, 26400, Note_on_c, 7, 69, 100
9, 26616, Note_on_c, 7, 69, 0
9, 26640, Note_on_c, 7, 69, 100
9, 26856, Note_on_c, 7, 69, 0
9, 26880, Note_on_c, 7, 67, 100
9, 27096, Note_on_c, 7, 67, 0
9, 27360, Note_on_c, 7, 79, 100
9, 27948, Note_on_c, 7, 79, 0
9, 27960, Note_on_c, 7, 72, 100
9, 28068, Note_on_c, 7, 72, 0
9, 28080, Note_on_c, 7, 69, 100
9, 28188, Note_on_c, 7, 69, 0
9, 28200, Note_on_c, 7, 72, 100
9, 28308, Note_on_c, 7, 72, 0
9, 28320, Note_on_c, 7, 77, 100
9, 28908, Note_on_c, 7, 77, 0
9, 28920, Note_on_c, 7, 71, 100
9, 29028, Note_on_c, 7, 71, 0
9, 29040, Note_on_c, 7, 67, 100
9, 29148, Note_on_c, 7, 67, 0
9, 29160, Note_on_c, 7, 71, 100
9, 29268, Note_on_c, 7, 71, 0
9, 29280, Note_on_c, 7, 76, 100
9, 29868, Note_on_c, 7, 76, 0
9, 29880, Note_on_c, 7, 69, 100
9, 29988, Note_on_c, 7, 69, 0
9, 30000, Note_on_c, 7, 65, 100
9, 30108, Note_on_c, 7, 65, 0
9, 30120, Note_on_c, 7, 69, 100
9, 30228, Note_on_c, 7, 69, 0
9, 30240, Note_on_c, 7, 74, 100
9, 30828, Note_on_c, 7, 74, 0
9, 30840, Note_on_c, 7, 67, 100
9, 30948, Note_on_c, 7, 67, 0
9, 30960, Note_on_c, 7, 64, 100
9, 31068, Note_on_c, 7, 64, 0
9, 31080, Note_on_c, 7, 67, 100
9, 31188, Note_on_c, 7, 67, 0
9, 31200, Note_on_c, 7, 72, 100
9, 31788, Note_on_c, 7, 72, 0
9, 31800, Note_on_c, 7, 74, 100
9, 31908, Note_on_c, 7, 74, 0
9, 31920, Note_on_c, 7, 72, 100
9, 32028, Note_on_c, 7, 72, 0
9, 32040, Note_on_c, 7, 74, 100
9, 32148, Note_on_c, 7, 74, 0
9, 32160, Note_on_c, 7, 72, 100
9, 32856, Note_on_c, 7, 72, 0
9, 32880, Note_on_c, 7, 64, 100
9, 33096, Note_on_c, 7, 64, 0
9, 33120, Note_on_c, 7, 67, 100
9, 33336, Note_on_c, 7, 67, 0
9, 33360, Note_on_c, 7, 72, 100
9, 33576, Note_on_c, 7, 72, 0
9, 33840, Note_on_c, 7, 67, 100
9, 33948, Note_on_c, 7, 67, 0
9, 33960, Note_on_c, 7, 66, 100
9, 34068, Note_on_c, 7, 66, 0
9, 34080, Note_on_c, 7, 67, 100
9, 34296, Note_on_c, 7, 67, 0
9, 34320, Note_on_c, 7, 62, 100
9, 34536, Note_on_c, 7, 62, 0
9, 34800, Note_on_c, 7, 69, 100
9, 34908, Note_on_c, 7, 69, 0
9, 34920, Note_on_c, 7, 67, 100
9, 35028, Note_on_c, 7, 67, 0
9, 35040, Note_on_c, 7, 69, 100
9, 35256, Note_on_c, 7, 69, 0
9, 35280, Note_on_c, 7, 57, 100
9, 35496, Note_on_c, 7, 57, 0
9, 35520, Note_on_c, 7, 62, 100
9, 35736, Note_on_c, 7, 62, 0
9, 35760, Note_on_c, 7, 64, 100
9, 35868, Note_on_c, 7, 64, 0
9, 35880, Note_on_c, 7, 65, 100
9, 35988, Note_on_c, 7, 65, 0
9, 36000, Note_on_c, 7, 67, 100
9, 36216, Note_on_c, 7, 67, 0
9, 36240, Note_on_c, 7, 72, 100
9, 36456, Note_on_c, 7, 72, 0
9, 36480, Note_on_c, 7, 77, 100
9, 37128, Note_on_c, 7, 77, 0
9, 37200, Note_on_c, 7, 71, 100
9, 37416, Note_on_c, 7, 71, 0
9, 37440, Note_on_c, 7, 76, 100
9, 38088, Note_on_c, 7, 76, 0
9, 38160, Note_on_c, 7, 69, 100
9, 38376, Note_on_c, 7, 69, 0
9, 38400, Note_on_c, 7, 74, 100
9, 39048, Note_on_c, 7, 74, 0
9, 39120, Note_on_c, 7, 72, 100
9, 39228, Note_on_c, 7, 72, 0
9, 39240, Note_on_c, 7, 71, 100
9, 39348, Note_on_c, 7, 71, 0
9, 39360, Note_on_c, 7, 72, 100
9, 39576, Note_on_c, 7, 72, 0
9, 40560, Note_on_c, 7, 72, 100
9, 40992, Note_on_c, 7, 72, 0
9, 41040, Note_on_c, 7, 70, 100
9, 41256, Note_on_c, 7, 70, 0
9, 41280, Note_on_c, 7, 69, 100
9, 41496, Note_on_c, 7, 69, 0
9, 42480, Note_on_c, 7, 74, 100
9, 42912, Note_on_c, 7, 74, 0
9, 42960, Note_on_c, 7, 72, 100
9, 43176, Note_on_c, 7, 72, 0
9, 43200, Note_on_c, 7, 71, 100
9, 43416, Note_on_c, 7, 71, 0
9, 44400, Note_on_c, 7, 76, 100
9, 44832, Note_on_c, 7, 76, 0
9, 44880, Note_on_c, 7, 74, 100
9, 45096, Note_on_c, 7, 74, 0
9, 45120, Note_on_c, 7, 72, 100
9, 45336, Note_on_c, 7, 72, 0
9, 45360, Note_on_c, 7, 69, 100
9, 45576, Note_on_c, 7, 69, 0
9, 45600, Note_on_c, 7, 74, 100
9, 45816, Note_on_c, 7, 74, 0
9, 45840, Note_on_c, 7, 77, 100
9, 46056, Note_on_c, 7, 77, 0
9, 46080, Note_on_c, 7, 71, 100
9, 46512, Note_on_c, 7, 71, 0
9, 46560, Note_on_c, 7, 76, 100
9, 46776, Note_on_c, 7, 76, 0
9, 46800, Note_on_c, 7, 72, 100
9, 47016, Note_on_c, 7, 72, 0
9, 47040, Note_on_c, 7, 69, 100
9, 47472, Note_on_c, 7, 69, 0
9, 47520, Note_on_c, 7, 74, 100
9, 47736, Note_on_c, 7, 74, 0
9, 47760, Note_on_c, 7, 71, 100
9, 47976, Note_on_c, 7, 71, 0
9, 48000, Note_on_c, 7, 67, 100
9, 48432, Note_on_c, 7, 67, 0
9, 48480, Note_on_c, 7, 72, 100
9, 49176, Note_on_c, 7, 72, 0
9, 49200, Note_on_c, 7, 71, 100
9, 49308, Note_on_c, 7, 71, 0
9, 49320, Note_on_c, 7, 69, 100
9, 49428, Note_on_c, 7, 69, 0
9, 49440, Note_on_c, 7, 71, 100
9, 49656, Note_on_c, 7, 71, 0
9, 49680, Note_on_c, 7, 68, 100
9, 49896, Note_on_c, 7, 68, 0
9, 49920, Note_on_c, 7, 64, 100
9, 50136, Note_on_c, 7, 64, 0
9, 50160, Note_on_c, 7, 81, 100
9, 50508, Note_on_c, 7, 81, 0
9, 50520, Note_on_c, 7, 83, 100
9, 50628, Note_on_c, 7, 83, 0
9, 50640, Note_on_c, 7, 81, 100
9, 50748, Note_on_c, 7, 81, 0
9, 50760, Note_on_c, 7, 83, 100
9, 50868, Note_on_c, 7, 83, 0
9, 50880, Note_on_c, 7, 81, 100
9, 51468, Note_on_c, 7, 81, 0
9, 51480, Note_on_c, 7, 83, 100
9, 51588, Note_on_c, 7, 83, 0
9, 51600, Note_on_c, 7, 81, 100
9, 51708, Note_on_c, 7, 81, 0
9, 51720, Note_on_c, 7, 83, 100
9, 51828, Note_on_c, 7, 83, 0
9, 51840, Note_on_c, 7, 81, 100
9, 52056, Note_on_c, 7, 81, 0
9, 52560, Note_on_c, 7, 69, 100
9, 52668, Note_on_c, 7, 69, 0
9, 52680, Note_on_c, 7, 68, 100
9, 52788, Note_on_c, 7, 68, 0
9, 52800, Note_on_c, 7, 69, 100
9, 53016, Note_on_c, 7, 69, 0
9, 53040, Note_on_c, 7, 64, 100
9, 53256, Note_on_c, 7, 64, 0
9, 53280, Note_on_c, 7, 59, 100
9, 53496, Note_on_c, 7, 59, 0
9, 53520, Note_on_c, 7, 64, 100
9, 53736, Note_on_c, 7, 64, 0
9, 53760, Note_on_c, 7, 64, 100
9, 53976, Note_on_c, 7, 64, 0
9, 54240, Note_on_c, 7, 65, 100
9, 54456, Note_on_c, 7, 65, 0
9, 54720, Note_on_c, 7, 64, 100
9, 54936, Note_on_c, 7, 64, 0
9, 55200, Note_on_c, 7, 74, 100
9, 55416, Note_on_c, 7, 74, 0
9, 55680, Note_on_c, 7, 72, 100
9, 55896, Note_on_c, 7, 72, 0
9, 62640, Note_on_c, 7, 76, 100
9, 62856, Note_on_c, 7, 76, 0
9, 62880, Note_on_c, 7, 76, 100
9, 63096, Note_on_c, 7, 76, 0
9, 63120, Note_on_c, 7, 76, 100
9, 63336, Note_on_c, 7, 76, 0
9, 63600, Note_on_c, 7, 74, 100
9, 63816, Note_on_c, 7, 74, 0
9, 63840, Note_on_c, 7, 74, 100
9, 64056, Note_on_c, 7, 74, 0
9, 64080, Note_on_c, 7, 74, 100
9, 64296, Note_on_c, 7, 74, 0
9, 64560, Note_on_c, 7, 72, 100
9, 64776, Note_on_c, 7, 72, 0
9, 64800, Note_on_c, 7, 72, 100
9, 65016, Note_on_c, 7, 72, 0
9, 65040, Note_on_c, 7, 72, 100
9, 65256, Note_on_c, 7, 72, 0
9, 65520, Note_on_c, 7, 71, 100
9, 65736, Note_on_c, 7, 71, 0
9, 65760, Note_on_c, 7, 71, 100
9, 65976, Note_on_c, 7, 71, 0
9, 66000, Note_on_c, 7, 71, 100
9, 66216, Note_on_c, 7, 71, 0
9, 66240, Note_on_c, 7, 69, 100
9, 67632, Note_on_c, 7, 69, 0
9, 67680, Note_on_c, 7, 67, 100
9, 68112, Note_on_c, 7, 67, 0
9, 68160, Note_on_c, 7, 66, 100
9, 69024, Note_on_c, 7, 66, 0
9, 69120, Note_on_c, 7, 68, 100
9, 69984, Note_on_c, 7, 68, 0
9, 70080, Note_on_c, 7, 67, 100
9, 70296, Note_on_c, 7, 67, 0
9, 70320, Note_on_c, 7, 64, 100
9, 70536, Note_on_c, 7, 64, 0
9, 70560, Note_on_c, 7, 69, 100
9, 70776, Note_on_c, 7, 69, 0
9, 70800, Note_on_c, 7, 67, 100
9, 71016, Note_on_c, 7, 67, 0
9, 71040, Note_on_c, 7, 66, 100
9, 71904, Note_on_c, 7, 66, 0
9, 72000, Note_on_c, 7, 65, 100
9, 72216, Note_on_c, 7, 65, 0
9, 72240, Note_on_c, 7, 62, 100
9, 72456, Note_on_c, 7, 62, 0
9, 72480, Note_on_c, 7, 67, 100
9, 72696, Note_on_c, 7, 67, 0
9, 72720, Note_on_c, 7, 65, 100
9, 72936, Note_on_c, 7, 65, 0
9, 72960, Note_on_c, 7, 64, 100
9, 74136, Note_on_c, 7, 64, 0
9, 74160, Note_on_c, 7, 61, 100
9, 74376, Note_on_c, 7, 61, 0
9, 74400, Note_on_c, 7, 66, 100
9, 74616, Note_on_c, 7, 66, 0
9, 74640, Note_on_c, 7, 64, 100
9, 74856, Note_on_c, 7, 64, 0
9, 74880, Note_on_c, 7, 63, 100
9, 75744, Note_on_c, 7, 63, 0
9, 75840, Note_on_c, 7, 64, 100
9, 76056, Note_on_c, 7, 64, 0
9, 76080, Note_on_c, 7, 67, 100
9, 76296, Note_on_c, 7, 67, 0
9, 76320, Note_on_c, 7, 71, 100
9, 76536, Note_on_c, 7, 71, 0
9, 76560, Note_on_c, 7, 67, 100
9, 76776, Note_on_c, 7, 67, 0
9, 76800, Note_on_c, 7, 66, 100
9, 77016, Note_on_c, 7, 66, 0
9, 77040, Note_on_c, 7, 59, 100
9, 77256, Note_on_c, 7, 59, 0
9, 77280, Note_on_c, 7, 71, 100
9, 77976, Note_on_c, 7, 71, 0
9, 78000, Note_on_c, 7, 64, 100
9, 78216, Note_on_c, 7, 64, 0
9, 78240, Note_on_c, 7, 76, 100
9, 78348, Note_on_c, 7, 76, 0
9, 78360, Note_on_c, 7, 75, 100
9, 78468, Note_on_c, 7, 75, 0
9, 78480, Note_on_c, 7, 76, 100
9, 78696, Note_on_c, 7, 76, 0
9, 78720, Note_on_c, 7, 78, 100
9, 78828, Note_on_c, 7, 78, 0
9, 78840, Note_on_c, 7, 75, 100
9, 78948, Note_on_c, 7, 75, 0
9, 78960, Note_on_c, 7, 78, 100
9, 79068, Note_on_c, 7, 78, 0
9, 79080, Note_on_c, 7, 83, 100
9, 79188, Note_on_c, 7, 83, 0
9, 79200, Note_on_c, 7, 76, 100
9, 79416, Note_on_c, 7, 76, 0
9, 79440, Note_on_c, 7, 79, 100
9, 79656, Note_on_c, 7, 79, 0
9, 79680, Note_on_c, 7, 79, 100
9, 79896, Note_on_c, 7, 79, 0
9, 79920, Note_on_c, 7, 78, 100
9, 80028, Note_on_c, 7, 78, 0
9, 80040, Note_on_c, 7, 76, 100
9, 80148, Note_on_c, 7, 76, 0
9, 80160, Note_on_c, 7, 78, 100
9, 80376, Note_on_c, 7, 78, 0
9, 80400, Note_on_c, 7, 78, 100
9, 80616, Note_on_c, 7, 78, 0
9, 80640, Note_on_c, 7, 78, 100
9, 80856, Note_on_c, 7, 78, 0
9, 80880, Note_on_c, 7, 76, 100
9, 80988, Note_on_c, 7, 76, 0
9, 81000, Note_on_c, 7, 75, 100
9, 81108, Note_on_c, 7, 75, 0
9, 81120, Note_on_c, 7, 76, 100
9, 81336, Note_on_c, 7, 76, 0
9, 81360, Note_on_c, 7, 76, 100
9, 81576, Note_on_c, 7, 76, 0
9, 81600, Note_on_c, 7, 76, 100
9, 81816, Note_on_c, 7, 76, 0
9, 81840, Note_on_c, 7, 74, 100
9, 81948, Note_on_c, 7, 74, 0
9, 81960, Note_on_c, 7, 73, 100
9, 82068, Note_on_c, 7, 73, 0
9, 82080, Note_on_c, 7, 74, 100
9, 82188, Note_on_c, 7, 74, 0
9, 82200, Note_on_c, 7, 78, 100
9, 82308, Note_on_c, 7, 78, 0
9, 82320, Note_on_c, 7, 83, 100
9, 82668, Note_on_c, 7, 83, 0
9, 82680, Note_on_c, 7, 80, 100
9, 82788, Note_on_c, 7, 80, 0
9, 82800, Note_on_c, 7, 76, 100
9, 82908, Note_on_c, 7, 76, 0
9, 82920, Note_on_c, 7, 71, 100
9, 83028, Note_on_c, 7, 71, 0
9, 83040, Note_on_c, 7, 72, 100
9, 83148, Note_on_c, 7, 72, 0
9, 83160, Note_on_c, 7, 76, 100
9, 83268, Note_on_c, 7, 76, 0
9, 83280, Note_on_c, 7, 69, 100
9, 83388, Note_on_c, 7, 69, 0
9, 83400, Note_on_c, 7, 72, 100
9, 83508, Note_on_c, 7, 72, 0
9, 83520, Note_on_c, 7, 71, 100
9, 83628, Note_on_c, 7, 71, 0
9, 83640, Note_on_c, 7, 74, 100
9, 83748, Note_on_c, 7, 74, 0
9, 83760, Note_on_c, 7, 68, 100
9, 83868, Note_on_c, 7, 68, 0
9, 83880, Note_on_c, 7, 71, 100
9, 83988, Note_on_c, 7, 71, 0
9, 84000, Note_on_c, 7, 72, 100
9, 84108, Note_on_c, 7, 72, 0
9, 84120, Note_on_c, 7, 76, 100
9, 84228, Note_on_c, 7, 76, 0
9, 84240, Note_on_c, 7, 69, 100
9, 84348, Note_on_c, 7, 69, 0
9, 84360, Note_on_c, 7, 72, 100
9, 84468, Note_on_c, 7, 72, 0
9, 84480, Note_on_c, 7, 71, 100
9, 84696, Note_on_c, 7, 71, 0
9, 85680, Note_on_c, 7, 76, 100
9, 86112, Note_on_c, 7, 76, 0
9, 86160, Note_on_c, 7, 74, 100
9, 86376, Note_on_c, 7, 74, 0
9, 86400, Note_on_c, 7, 72, 100
9, 86616, Note_on_c, 7, 72, 0
9, 87600, Note_on_c, 7, 69, 100
9, 88032, Note_on_c, 7, 69, 0
9, 88080, Note_on_c, 7, 67, 100
9, 88296, Note_on_c, 7, 67, 0
9, 88320, Note_on_c, 7, 66, 100
9, 88536, Note_on_c, 7, 66, 0
9, 89520, Note_on_c, 7, 71, 100
9, 89952, Note_on_c, 7, 71, 0
9, 90000, Note_on_c, 7, 69, 100
9, 90216, Note_on_c, 7, 69, 0
9, 90240, Note_on_c, 7, 67, 100
9, 90456, Note_on_c, 7, 67, 0
9, 91440, Note_on_c, 7, 76, 100
9, 91872, Note_on_c, 7, 76, 0
9, 91920, Note_on_c, 7, 74, 100
9, 92136, Note_on_c, 7, 74, 0
9, 92160, Note_on_c, 7, 72, 100
9, 92322, Note_on_c, 7, 72, 0
9, 92340, Note_on_c, 7, 74, 100
9, 92394, Note_on_c, 7, 74, 0
9, 92400, Note_on_c, 7, 76, 100
9, 92616, Note_on_c, 7, 76, 0
9, 92820, Note_on_c, 7, 72, 100
9, 92874, Note_on_c, 7, 72, 0
9, 92880, Note_on_c, 7, 74, 100
9, 93096, Note_on_c, 7, 74, 0
9, 93300, Note_on_c, 7, 71, 100
9, 93354, Note_on_c, 7, 71, 0
9, 93360, Note_on_c, 7, 72, 100
9, 93576, Note_on_c, 7, 72, 0
9, 93780, Note_on_c, 7, 69, 100
9, 93834, Note_on_c, 7, 69, 0
9, 93840, Note_on_c, 7, 71, 100
9, 94002, Note_on_c, 7, 71, 0
9, 94020, Note_on_c, 7, 71, 100
9, 94074, Note_on_c, 7, 71, 0
9, 94080, Note_on_c, 7, 72, 100
9, 94242, Note_on_c, 7, 72, 0
9, 94260, Note_on_c, 7, 67, 100
9, 94314, Note_on_c, 7, 67, 0
9, 94320, Note_on_c, 7, 76, 100
9, 94752, Note_on_c, 7, 76, 0
9, 94800, Note_on_c, 7, 74, 100
9, 94962, Note_on_c, 7, 74, 0
9, 94980, Note_on_c, 7, 72, 100
9, 95034, Note_on_c, 7, 72, 0
9, 95040, Note_on_c, 7, 71, 100
9, 95256, Note_on_c, 7, 71, 0
9, 95400, Note_on_c, 7, 71, 100
9, 95508, Note_on_c, 7, 71, 0
9, 95520, Note_on_c, 7, 72, 100
9, 95628, Note_on_c, 7, 72, 0
9, 95640, Note_on_c, 7, 67, 100
9, 95748, Note_on_c, 7, 67, 0
9, 95760, Note_on_c, 7, 64, 100
9, 95868, Note_on_c, 7, 64, 0
9, 95880, Note_on_c, 7, 67, 100
9, 95988, Note_on_c, 7, 67, 0
9, 96000, Note_on_c, 7, 71, 100
9, 96108, Note_on_c, 7, 71, 0
9, 96120, Note_on_c, 7, 67, 100
9, 96228, Note_on_c, 7, 67, 0
9, 96240, Note_on_c, 7, 62, 100
9, 96348, Note_on_c, 7, 62, 0
9, 96360, Note_on_c, 7, 67, 100
9, 96468, Note_on_c, 7, 67, 0
9, 96480, Note_on_c, 7, 67, 100
9, 96588, Note_on_c, 7, 67, 0
9, 96600, Note_on_c, 7, 72, 100
9, 96708, Note_on_c, 7, 72, 0
9, 96720, Note_on_c, 7, 64, 100
9, 96828, Note_on_c, 7, 64, 0
9, 96840, Note_on_c, 7, 67, 100
9, 96948, Note_on_c, 7, 67, 0
9, 96960, Note_on_c, 7, 67, 100
9, 97392, Note_on_c, 7, 67, 0
9, 97440, Note_on_c, 7, 64, 100
9, 97872, Note_on_c, 7, 64, 0
9, 97920, Note_on_c, 7, 72, 100
9, 98784, Note_on_c, 7, 72, 0
9, 98880, Note_on_c, 7, 74, 100
9, 99096, Note_on_c, 7, 74, 0
9, 100080, Note_on_c, 7, 74, 100
9, 100296, Note_on_c, 7, 74, 0
9, 100320, Note_on_c, 7, 67, 100
9, 100536, Note_on_c, 7, 67, 0
9, 100560, Note_on_c, 7, 71, 100
9, 100776, Note_on_c, 7, 71, 0
9, 100800, Note_on_c, 7, 72, 100
9, 101232, Note_on_c, 7, 72, 0
9, 101280, Note_on_c, 7, 69, 100
9, 101712, Note_on_c, 7, 69, 0
9, 101760, Note_on_c, 7, 77, 100
9, 102624, Note_on_c, 7, 77, 0
9, 102720, Note_on_c, 7, 79, 100
9, 102936, Note_on_c, 7, 79, 0
9, 103920, Note_on_c, 7, 79, 100
9, 104136, Note_on_c, 7, 79, 0
9, 104160, Note_on_c, 7, 72, 100
9, 104376, Note_on_c, 7, 72, 0
9, 104400, Note_on_c, 7, 76, 100
9, 104616, Note_on_c, 7, 76, 0
9, 104640, Note_on_c, 7, 77, 100
9, 104856, Note_on_c, 7, 77, 0
9, 105840, Note_on_c, 7, 67, 100
9, 106056, Note_on_c, 7, 67, 0
9, 106080, Note_on_c, 7, 72, 100
9, 106992, Note_on_c, 7, 72, 0
9, 107040, Note_on_c, 7, 71, 100
9, 107472, Note_on_c, 7, 71, 0
9, 107520, Note_on_c, 7, 69, 100
9, 107736, Note_on_c, 7, 69, 0
9, 107760, Note_on_c, 7, 62, 100
9, 107976, Note_on_c, 7, 62, 0
9, 108000, Note_on_c, 7, 74, 100
9, 108912, Note_on_c, 7, 74, 0
9, 108960, Note_on_c, 7, 72, 100
9, 109392, Note_on_c, 7, 72, 0
9, 109440, Note_on_c, 7, 70, 100
9, 110304, Note_on_c, 7, 70, 0
9, 110400, Note_on_c, 7, 69, 100
9, 111264, Note_on_c, 7, 69, 0
9, 111360, Note_on_c, 7, 67, 100
9, 112224, Note_on_c, 7, 67, 0
9, 112320, Note_on_c, 7, 65, 100
9, 112968, Note_on_c, 7, 65, 0
9, 113040, Note_on_c, 7, 62, 100
9, 113256, Note_on_c, 7, 62, 0
9, 113280, Note_on_c, 7, 67, 100
9, 113928, Note_on_c, 7, 67, 0
9, 114000, Note_on_c, 7, 64, 100
9, 114216, Note_on_c, 7, 64, 0
9, 114240, Note_on_c, 7, 69, 100
9, 114888, Note_on_c, 7, 69, 0
9, 114960, Note_on_c, 7, 62, 100
9, 115176, Note_on_c, 7, 62, 0
9, 115200, Note_on_c, 7, 71, 100
9, 115416, Note_on_c, 7, 71, 0
9, 115440, Note_on_c, 7, 74, 100
9, 115872, Note_on_c, 7, 74, 0
9, 115920, Note_on_c, 7, 72, 100
9, 116136, Note_on_c, 7, 72, 0
9, 116160, Note_on_c, 7, 72, 100
9, 116376, Note_on_c, 7, 72, 0
9, 116400, Note_on_c, 7, 71, 100
9, 116832, Note_on_c, 7, 71, 0
9, 116880, Note_on_c, 7, 69, 100
9, 117336, Note_on_c, 7, 69, 0
9, 117360, Note_on_c, 7, 67, 100
9, 117792, Note_on_c, 7, 67, 0
9, 117840, Note_on_c, 7, 65, 100
9, 118296, Note_on_c, 7, 65, 0
9, 118320, Note_on_c, 7, 64, 100
9, 118752, Note_on_c, 7, 64, 0
9, 118800, Note_on_c, 7, 62, 100
9, 119256, Note_on_c, 7, 62, 0
9, 119280, Note_on_c, 7, 60, 100
9, 119388, Note_on_c, 7, 60, 0
9, 119400, Note_on_c, 7, 59, 100
9, 119508, Note_on_c, 7, 59, 0
9, 119520, Note_on_c, 7, 60, 100
9, 119736, Note_on_c, 7, 60, 0
9, 119760, Note_on_c, 7, 57, 100
9, 119976, Note_on_c, 7, 57, 0
9, 120000, Note_on_c, 7, 59, 100
9, 120216, Note_on_c, 7, 59, 0
9, 121200, Note_on_c, 7, 72, 100
9, 121416, Note_on_c, 7, 72, 0
9, 121440, Note_on_c, 7, 72, 100
9, 121656, Note_on_c, 7, 72, 0
9, 121680, Note_on_c, 7, 72, 100
9, 121896, Note_on_c, 7, 72, 0
9, 121920, Note_on_c, 7, 72, 100
9, 122136, Note_on_c, 7, 72, 0
9, 123120, Note_on_c, 7, 67, 100
9, 123336, Note_on_c, 7, 67, 0
9, 123360, Note_on_c, 7, 67, 100
9, 123576, Note_on_c, 7, 67, 0
9, 123600, Note_on_c, 7, 67, 100
9, 123816, Note_on_c, 7, 67, 0
9, 123840, Note_on_c, 7, 67, 100
9, 124056, Note_on_c, 7, 67, 0
9, 125040, Note_on_c, 7, 74, 100
9, 125256, Note_on_c, 7, 74, 0
9, 125280, Note_on_c, 7, 74, 100
9, 125496, Note_on_c, 7, 74, 0
9, 125520, Note_on_c, 7, 74, 100
9, 125736, Note_on_c, 7, 74, 0
9, 125760, Note_on_c, 7, 74, 100
9, 125976, Note_on_c, 7, 74, 0
9, 126000, Note_on_c, 7, 74, 100
9, 126216, Note_on_c, 7, 74, 0
9, 126240, Note_on_c, 7, 79, 100
9, 126456, Note_on_c, 7, 79, 0
9, 126480, Note_on_c, 7, 79, 100
9, 126696, Note_on_c, 7, 79, 0
9, 126720, Note_on_c, 7, 79, 100
9, 126936, Note_on_c, 7, 79, 0
9, 126960, Note_on_c, 7, 78, 100
9, 127068, Note_on_c, 7, 78, 0
9, 127080, Note_on_c, 7, 76, 100
9, 127188, Note_on_c, 7, 76, 0
9, 127200, Note_on_c, 7, 74, 100
9, 127308, Note_on_c, 7, 74, 0
9, 127320, Note_on_c, 7, 76, 100
9, 127428, Note_on_c, 7, 76, 0
9, 127440, Note_on_c, 7, 72, 100
9, 127548, Note_on_c, 7, 72, 0
9, 127560, Note_on_c, 7, 74, 100
9, 127668, Note_on_c, 7, 74, 0
9, 127680, Note_on_c, 7, 71, 100
9, 128268, Note_on_c, 7, 71, 0
9, 128280, Note_on_c, 7, 67, 100
9, 128388, Note_on_c, 7, 67, 0
9, 128400, Note_on_c, 7, 69, 100
9, 128508, Note_on_c, 7, 69, 0
9, 128520, Note_on_c, 7, 71, 100
9, 128628, Note_on_c, 7, 71, 0
9, 128640, Note_on_c, 7, 69, 100
9, 128748, Note_on_c, 7, 69, 0
9, 128760, Note_on_c, 7, 78, 100
9, 128868, Note_on_c, 7, 78, 0
9, 128880, Note_on_c, 7, 79, 100
9, 128988, Note_on_c, 7, 79, 0
9, 129000, Note_on_c, 7, 81, 100
9, 129108, Note_on_c, 7, 81, 0
9, 129120, Note_on_c, 7, 83, 100
9, 129336, Note_on_c, 7, 83, 0
9, 129360, Note_on_c, 7, 83, 100
9, 129576, Note_on_c, 7, 83, 0
9, 129600, Note_on_c, 7, 83, 100
9, 129816, Note_on_c, 7, 83, 0
9, 129840, Note_on_c, 7, 81, 100
9, 129948, Note_on_c, 7, 81, 0
9, 129960, Note_on_c, 7, 79, 100
9, 130068, Note_on_c, 7, 79, 0
9, 130080, Note_on_c, 7, 81, 100
9, 130296, Note_on_c, 7, 81, 0
9, 130320, Note_on_c, 7, 81, 100
9, 130536, Note_on_c, 7, 81, 0
9, 130560, Note_on_c, 7, 81, 100
9, 130668, Note_on_c, 7, 81, 0
9, 130680, Note_on_c, 7, 74, 100
9, 130788, Note_on_c, 7, 74, 0
9, 130800, Note_on_c, 7, 76, 100
9, 130908, Note_on_c, 7, 76, 0
9, 130920, Note_on_c, 7, 78, 100
9, 131028, Note_on_c, 7, 78, 0
9, 131040, Note_on_c, 7, 79, 100
9, 131256, Note_on_c, 7, 79, 0
9, 131280, Note_on_c, 7, 79, 100
9, 131496, Note_on_c, 7, 79, 0
9, 131520, Note_on_c, 7, 79, 100
9, 131736, Note_on_c, 7, 79, 0
9, 131760, Note_on_c, 7, 81, 100
9, 131868, Note_on_c, 7, 81, 0
9, 131880, Note_on_c, 7, 79, 100
9, 131988, Note_on_c, 7, 79, 0
9, 132000, Note_on_c, 7, 78, 100
9, 132108, Note_on_c, 7, 78, 0
9, 132120, Note_on_c, 7, 81, 100
9, 132228, Note_on_c, 7, 81, 0
9, 132240, Note_on_c, 7, 79, 100
9, 132348, Note_on_c, 7, 79, 0
9, 132360, Note_on_c, 7, 78, 100
9, 132468, Note_on_c, 7, 78, 0
9, 132480, Note_on_c, 7, 79, 100
9, 132588, Note_on_c, 7, 79, 0
9, 132600, Note_on_c, 7, 74, 100
9, 132708, Note_on_c, 7, 74, 0
9, 132720, Note_on_c, 7, 71, 100
9, 132828, Note_on_c, 7, 71, 0
9, 132840, Note_on_c, 7, 74, 100
9, 132948, Note_on_c, 7, 74, 0
9, 132960, Note_on_c, 7, 76, 100
9, 133068, Note_on_c, 7, 76, 0
9, 133080, Note_on_c, 7, 74, 100
9, 133188, Note_on_c, 7, 74, 0
9, 133200, Note_on_c, 7, 76, 100
9, 133308, Note_on_c, 7, 76, 0
9, 133320, Note_on_c, 7, 72, 100
9, 133428, Note_on_c, 7, 72, 0
9, 133440, Note_on_c, 7, 74, 100
9, 133548, Note_on_c, 7, 74, 0
9, 133560, Note_on_c, 7, 79, 100
9, 133668, Note_on_c, 7, 79, 0
9, 133680, Note_on_c, 7, 74, 100
9, 133788, Note_on_c, 7, 74, 0
9, 133800, Note_on_c, 7, 71, 100
9, 133908, Note_on_c, 7, 71, 0
9, 133920, Note_on_c, 7, 67, 100
9, 134028, Note_on_c, 7, 67, 0
9, 134040, Note_on_c, 7, 72, 100
9, 134148, Note_on_c, 7, 72, 0
9, 134160, Note_on_c, 7, 67, 100
9, 134268, Note_on_c, 7, 67, 0
9, 134280, Note_on_c, 7, 64, 100
9, 134388, Note_on_c, 7, 64, 0
9, 134400, Note_on_c, 7, 62, 100
9, 134616, Note_on_c, 7, 62, 0
9, 135360, Note_on_c, 7, 65, 100
9, 135576, Note_on_c, 7, 65, 0
9, 136320, Note_on_c, 7, 68, 100
9, 136536, Note_on_c, 7, 68, 0
9, 137280, Note_on_c, 7, 62, 100
9, 137496, Note_on_c, 7, 62, 0
9, 137520, Note_on_c, 7, 67, 100
9, 137736, Note_on_c, 7, 67, 0
9, 137760, Note_on_c, 7, 65, 100
9, 137976, Note_on_c, 7, 65, 0
9, 138000, Note_on_c, 7, 65, 100
9, 138216, Note_on_c, 7, 65, 0
9, 138240, Note_on_c, 7, 63, 100
9, 138456, Note_on_c, 7, 63, 0
9, 139200, Note_on_c, 7, 58, 100
9, 139416, Note_on_c, 7, 58, 0
9, 140160, Note_on_c, 7, 61, 100
9, 140376, Note_on_c, 7, 61, 0
9, 141120, Note_on_c, 7, 55, 100
9, 141336, Note_on_c, 7, 55, 0
9, 141360, Note_on_c, 7, 60, 100
9, 141576, Note_on_c, 7, 60, 0
9, 141600, Note_on_c, 7, 58, 100
9, 141816, Note_on_c, 7, 58, 0
9, 141840, Note_on_c, 7, 58, 100
9, 142056, Note_on_c, 7, 58, 0
9, 142080, Note_on_c, 7, 56, 100
9, 142296, Note_on_c, 7, 56, 0
9, 143040, Note_on_c, 7, 65, 100
9, 146568, Note_on_c, 7, 65, 0
9, 146640, Note_on_c, 7, 68, 100
9, 146856, Note_on_c, 7, 68, 0
9, 146880, Note_on_c, 7, 68, 100
9, 147096, Note_on_c, 7, 68, 0
9, 147840, Note_on_c, 7, 74, 100
9, 148056, Note_on_c, 7, 74, 0
9, 149040, Note_on_c, 7, 67, 100
9, 149256, Note_on_c, 7, 67, 0
9, 149280, Note_on_c, 7, 67, 100
9, 149496, Note_on_c, 7, 67, 0
9, 149520, Note_on_c, 7, 67, 100
9, 149736, Note_on_c, 7, 67, 0
9, 149760, Note_on_c, 7, 67, 100
9, 150624, Note_on_c, 7, 67, 0
9, 150720, Note_on_c, 7, 65, 100
9, 151584, Note_on_c, 7, 65, 0
9, 151680, Note_on_c, 7, 66, 100
9, 151896, Note_on_c, 7, 66, 0
9, 152640, Note_on_c, 7, 72, 100
9, 152856, Note_on_c, 7, 72, 0
9, 153840, Note_on_c, 7, 72, 100
9, 154056, Note_on_c, 7, 72, 0
9, 154080, Note_on_c, 7, 72, 100
9, 154296, Note_on_c, 7, 72, 0
9, 154320, Note_on_c, 7, 72, 100
9, 154536, Note_on_c, 7, 72, 0
9, 154560, Note_on_c, 7, 71, 100
9, 155424, Note_on_c, 7, 71, 0
9, 155520, Note_on_c, 7, 72, 100
9, 156384, Note_on_c, 7, 72, 0
9, 156480, Note_on_c, 7, 74, 100
9, 157344, Note_on_c, 7, 74, 0
9, 157440, Note_on_c, 7, 67, 100
9, 158304, Note_on_c, 7, 67, 0
9, 158400, Note_on_c, 7, 69, 100
9, 159264, Note_on_c, 7, 69, 0
9, 159360, Note_on_c, 7, 66, 100
9, 160224, Note_on_c, 7, 66, 0
9, 160320, Note_on_c, 7, 67, 100
9, 160536, Note_on_c, 7, 67, 0
9, 168240, Note_on_c, 7, 62, 100
9, 168456, Note_on_c, 7, 62, 0
9, 168480, Note_on_c, 7, 67, 100
9, 168696, Note_on_c, 7, 67, 0
9, 168720, Note_on_c, 7, 67, 100
9, 168936, Note_on_c, 7, 67, 0
9, 168960, Note_on_c, 7, 67, 100
9, 169176, Note_on_c, 7, 67, 0
9, 169200, Note_on_c, 7, 66, 100
9, 169308, Note_on_c, 7, 66, 0
9, 169320, Note_on_c, 7, 64, 100
9, 169428, Note_on_c, 7, 64, 0
9, 169440, Note_on_c, 7, 66, 100
9, 169548, Note_on_c, 7, 66, 0
9, 169560, Note_on_c, 7, 67, 100
9, 169668, Note_on_c, 7, 67, 0
9, 169680, Note_on_c, 7, 64, 100
9, 169788, Note_on_c, 7, 64, 0
9, 169800, Note_on_c, 7, 66, 100
9, 169908, Note_on_c, 7, 66, 0
9, 169920, Note_on_c, 7, 67, 100
9, 170028, Note_on_c, 7, 67, 0
9, 170040, Note_on_c, 7, 71, 100
9, 170148, Note_on_c, 7, 71, 0
9, 170160, Note_on_c, 7, 72, 100
9, 170268, Note_on_c, 7, 72, 0
9, 170280, Note_on_c, 7, 74, 100
9, 170388, Note_on_c, 7, 74, 0
9, 170400, Note_on_c, 7, 76, 100
9, 170616, Note_on_c, 7, 76, 0
9, 170640, Note_on_c, 7, 76, 100
9, 170856, Note_on_c, 7, 76, 0
9, 170880, Note_on_c, 7, 76, 100
9, 171096, Note_on_c, 7, 76, 0
9, 171120, Note_on_c, 7, 74, 100
9, 171228, Note_on_c, 7, 74, 0
9, 171240, Note_on_c, 7, 72, 100
9, 171348, Note_on_c, 7, 72, 0
9, 171360, Note_on_c, 7, 74, 100
9, 171576, Note_on_c, 7, 74, 0
9, 171600, Note_on_c, 7, 74, 100
9, 171816, Note_on_c, 7, 74, 0
9, 171840, Note_on_c, 7, 74, 100
9, 171948, Note_on_c, 7, 74, 0
9, 171960, Note_on_c, 7, 67, 100
9, 172068, Note_on_c, 7, 67, 0
9, 172080, Note_on_c, 7, 69, 100
9, 172188, Note_on_c, 7, 69, 0
9, 172200, Note_on_c, 7, 71, 100
9, 172308, Note_on_c, 7, 71, 0
9, 172320, Note_on_c, 7, 72, 100
9, 172536, Note_on_c, 7, 72, 0
9, 172560, Note_on_c, 7, 72, 100
9, 172776, Note_on_c, 7, 72, 0
9, 172800, Note_on_c, 7, 72, 100
9, 173016, Note_on_c, 7, 72, 0
9, 173040, Note_on_c, 7, 71, 100
9, 173148, Note_on_c, 7, 71, 0
9, 173160, Note_on_c, 7, 69, 100
9, 173268, Note_on_c, 7, 69, 0
9, 173280, Note_on_c, 7, 67, 100
9, 173868, Note_on_c, 7, 67, 0
9, 173880, Note_on_c, 7, 64, 100
9, 173988, Note_on_c, 7, 64, 0
9, 174000, Note_on_c, 7, 67, 100
9, 174108, Note_on_c, 7, 67, 0
9, 174120, Note_on_c, 7, 72, 100
9, 174228, Note_on_c, 7, 72, 0
9, 174240, Note_on_c, 7, 69, 100
9, 174348, Note_on_c, 7, 69, 0
9, 174360, Note_on_c, 7, 65, 100
9, 174468, Note_on_c, 7, 65, 0
9, 174480, Note_on_c, 7, 69, 100
9, 174588, Note_on_c, 7, 69, 0
9, 174600, Note_on_c, 7, 72, 100
9, 174708, Note_on_c, 7, 72, 0
9, 174720, Note_on_c, 7, 60, 100
9, 174828, Note_on_c, 7, 60, 0
9, 174840, Note_on_c, 7, 64, 100
9, 174948, Note_on_c, 7, 64, 0
9, 174960, Note_on_c, 7, 67, 100
9, 175068, Note_on_c, 7, 67, 0
9, 175080, Note_on_c, 7, 72, 100
9, 175188, Note_on_c, 7, 72, 0
9, 175200, Note_on_c, 7, 65, 100
9, 175308, Note_on_c, 7, 65, 0
9, 175320, Note_on_c, 7, 60, 100
9, 175428, Note_on_c, 7, 60, 0
9, 175440, Note_on_c, 7, 65, 100
9, 175548, Note_on_c, 7, 65, 0
9, 175560, Note_on_c, 7, 69, 100
9, 175668, Note_on_c, 7, 69, 0
9, 175680, Note_on_c, 7, 72, 100
9, 175896, Note_on_c, 7, 72, 0
9, 176400, Note_on_c, 7, 65, 100
9, 176616, Note_on_c, 7, 65, 0
9, 176640, Note_on_c, 7, 67, 100
9, 176856, Note_on_c, 7, 67, 0
9, 176880, Note_on_c, 7, 69, 100
9, 177096, Note_on_c, 7, 69, 0
9, 177120, Note_on_c, 7, 67, 100
9, 177336, Note_on_c, 7, 67, 0
9, 177360, Note_on_c, 7, 65, 100
9, 177576, Note_on_c, 7, 65, 0
9, 177600, Note_on_c, 7, 64, 100
9, 177816, Note_on_c, 7, 64, 0
9, 177840, Note_on_c, 7, 70, 100
9, 178056, Note_on_c, 7, 70, 0
9, 178080, Note_on_c, 7, 69, 100
9, 178296, Note_on_c, 7, 69, 0
9, 178320, Note_on_c, 7, 65, 100
9, 178536, Note_on_c, 7, 65, 0
9, 178560, Note_on_c, 7, 67, 100
9, 178776, Note_on_c, 7, 67, 0
9, 178800, Note_on_c, 7, 70, 100
9, 179016, Note_on_c, 7, 70, 0
9, 179040, Note_on_c, 7, 69, 100
9, 179256, Note_on_c, 7, 69, 0
9, 179280, Note_on_c, 7, 65, 100
9, 179496, Note_on_c, 7, 65, 0
9, 179520, Note_on_c, 7, 67, 100
9, 179736, Note_on_c, 7, 67, 0
9, 180480, Note_on_c, 7, 72, 100
9, 180696, Note_on_c, 7, 72, 0
9, 181440, Note_on_c, 7, 76, 100
9, 181656, Note_on_c, 7, 76, 0
9, 182400, Note_on_c, 7, 72, 100
9, 182616, Note_on_c, 7, 72, 0
9, 182640, Note_on_c, 7, 69, 100
9, 182856, Note_on_c, 7, 69, 0
9, 182880, Note_on_c, 7, 67, 100
9, 183096, Note_on_c, 7, 67, 0
9, 183120, Note_on_c, 7, 67, 100
9, 183336, Note_on_c, 7, 67, 0
9, 183360, Note_on_c, 7, 67, 100
9, 184224, Note_on_c, 7, 67, 0
9, 184224, End_track
10, 0, Start_track
10, 0, Sequence_number, 65535
10, 0, MIDI_port, 0
10, 0, Title_t, "Viola"
10, 0, Control_c, 8, 0, 0
10, 0, Control_c, 8, 32, 0
10, 0, Program_c, 8, 48
10, 0, Control_c, 8, 7, 100
10, 0, Control_c, 8, 10, 34
10, 1200, Note_on_c, 8, 62, 100
10, 1416, Note_on_c, 8, 62, 0
10, 1440, Note_on_c, 8, 67, 100
10, 1656, Note_on_c, 8, 67, 0
10, 1680, Note_on_c, 8, 67, 100
10, 1896, Note_on_c, 8, 67, 0
10, 1920, Note_on_c, 8, 67, 100
10, 2136, Note_on_c, 8, 67, 0
10, 2160, Note_on_c, 8, 66, 100
10, 2268, Note_on_c, 8, 66, 0
10, 2280, Note_on_c, 8, 64, 100
10, 2388, Note_on_c, 8, 64, 0
10, 2400, Note_on_c, 8, 66, 100
10, 2508, Note_on_c, 8, 66, 0
10, 2520, Note_on_c, 8, 67, 100
10, 2628, Note_on_c, 8, 67, 0
10, 2640, Note_on_c, 8, 64, 100
10, 2748, Note_on_c, 8, 64, 0
10, 2760, Note_on_c, 8, 66, 100
10, 2868, Note_on_c, 8, 66, 0
10, 2880, Note_on_c, 8, 67, 100
10, 2988, Note_on_c, 8, 67, 0
10, 3000, Note_on_c, 8, 71, 100
10, 3108, Note_on_c, 8, 71, 0
10, 3120, Note_on_c, 8, 72, 100
10, 3228, Note_on_c, 8, 72, 0
10, 3240, Note_on_c, 8, 74, 100
10, 3348, Note_on_c, 8, 74, 0
10, 3360, Note_on_c, 8, 76, 100
10, 3576, Note_on_c, 8, 76, 0
10, 3600, Note_on_c, 8, 76, 100
10, 3816, Note_on_c, 8, 76, 0
10, 3840, Note_on_c, 8, 76, 100
10, 4056, Note_on_c, 8, 76, 0
10, 4080, Note_on_c, 8, 74, 100
10, 4188, Note_on_c, 8, 74, 0
10, 4200, Note_on_c, 8, 72, 100
10, 4308, Note_on_c, 8, 72, 0
10, 4320, Note_on_c, 8, 74, 100
10, 4536, Note_on_c, 8, 74, 0
10, 4560, Note_on_c, 8, 74, 100
10, 4776, Note_on_c, 8, 74, 0
10, 4800, Note_on_c, 8, 74, 100
10, 5016, Note_on_c, 8, 74, 0
10, 5040, Note_on_c, 8, 72, 100
10, 5148, Note_on_c, 8, 72, 0
10, 5160, Note_on_c, 8, 71, 100
10, 5268, Note_on_c, 8, 71, 0
10, 5280, Note_on_c, 8, 72, 100
10, 5976, Note_on_c, 8, 72, 0
10, 6000, Note_on_c, 8, 71, 100
10, 6108, Note_on_c, 8, 71, 0
10, 6120, Note_on_c, 8, 69, 100
10, 6228, Note_on_c, 8, 69, 0
10, 6240, Note_on_c, 8, 67, 100
10, 6936, Note_on_c, 8, 67, 0
10, 6960, Note_on_c, 8, 58, 100
10, 7176, Note_on_c, 8, 58, 0
10, 7200, Note_on_c, 8, 57, 100
10, 7416, Note_on_c, 8, 57, 0
10, 7440, Note_on_c, 8, 69, 100
10, 7656, Note_on_c, 8, 69, 0
10, 7680, Note_on_c, 8, 67, 100
10, 7896, Note_on_c, 8, 67, 0
10, 7920, Note_on_c, 8, 64, 100
10, 8136, Note_on_c, 8, 64, 0
10, 8160, Note_on_c, 8, 60, 100
10, 8376, Note_on_c, 8, 60, 0
10, 8400, Note_on_c, 8, 69, 100
10, 8616, Note_on_c, 8, 69, 0
10, 8640, Note_on_c, 8, 67, 100
10, 9072, Note_on_c, 8, 67, 0
10, 15840, Note_on_c, 8, 74, 100
10, 16428, Note_on_c, 8, 74, 0
10, 16440, Note_on_c, 8, 67, 100
10, 16548, Note_on_c, 8, 67, 0
10, 16560, Note_on_c, 8, 64, 100
10, 16668, Note_on_c, 8, 64, 0
10, 16680, Note_on_c, 8, 67, 100
10, 16788, Note_on_c, 8, 67, 0
10, 16800, Note_on_c, 8, 72, 100
10, 17388, Note_on_c, 8, 72, 0
10, 17400, Note_on_c, 8, 66, 100
10, 17508, Note_on_c, 8, 66, 0
10, 17520, Note_on_c, 8, 62, 100
10, 17628, Note_on_c, 8, 62, 0
10, 17640, Note_on_c, 8, 66, 100
10, 17748, Note_on_c, 8, 66, 0
10, 17760, Note_on_c, 8, 71, 100
10, 18348, Note_on_c, 8, 71, 0
10, 18360, Note_on_c, 8, 64, 100
10, 18468, Note_on_c, 8, 64, 0
10, 18480, Note_on_c, 8, 60, 100
10, 18588, Note_on_c, 8, 60, 0
10, 18600, Note_on_c, 8, 64, 100
10, 18708, Note_on_c, 8, 64, 0
10, 18720, Note_on_c, 8, 69, 100
10, 19308, Note_on_c, 8, 69, 0
10, 19320, Note_on_c, 8, 62, 100
10, 19428, Note_on_c, 8, 62, 0
10, 19440, Note_on_c, 8, 59, 100
10, 19548, Note_on_c, 8, 59, 0
10, 19560, Note_on_c, 8, 62, 100
10, 19668, Note_on_c, 8, 62, 0
10, 19680, Note_on_c, 8, 67, 100
10, 20268, Note_on_c, 8, 67, 0
10, 20280, Note_on_c, 8, 69, 100
10, 20388, Note_on_c, 8, 69, 0
10, 20400, Note_on_c, 8, 67, 100
10, 20508, Note_on_c, 8, 67, 0
10, 20520, Note_on_c, 8, 69, 100
10, 20628, Note_on_c, 8, 69, 0
10, 20640, Note_on_c, 8, 67, 100
10, 21336, Note_on_c, 8, 67, 0
10, 22320, Note_on_c, 8, 62, 100
10, 22536, Note_on_c, 8, 62, 0
10, 22560, Note_on_c, 8, 64, 100
10, 22776, Note_on_c, 8, 64, 0
10, 22800, Note_on_c, 8, 64, 100
10, 23016, Note_on_c, 8, 64, 0
10, 23040, Note_on_c, 8, 62, 100
10, 23256, Note_on_c, 8, 62, 0
10, 24240, Note_on_c, 8, 60, 100
10, 24456, Note_on_c, 8, 60, 0
10, 24480, Note_on_c, 8, 62, 100
10, 24696, Note_on_c, 8, 62, 0
10, 24720, Note_on_c, 8, 62, 100
10, 24936, Note_on_c, 8, 62, 0
10, 24960, Note_on_c, 8, 60, 100
10, 25176, Note_on_c, 8, 60, 0
10, 26160, Note_on_c, 8, 62, 100
10, 26376, Note_on_c, 8, 62, 0
10, 26400, Note_on_c, 8, 62, 100
10, 26616, Note_on_c, 8, 62, 0
10, 26640, Note_on_c, 8, 62, 100
10, 26856, Note_on_c, 8, 62, 0
10, 26880, Note_on_c, 8, 62, 100
10, 27096, Note_on_c, 8, 62, 0
10, 27600, Note_on_c, 8, 64, 100
10, 27816, Note_on_c, 8, 64, 0
10, 27840, Note_on_c, 8, 69, 100
10, 28056, Note_on_c, 8, 69, 0
10, 28560, Note_on_c, 8, 62, 100
10, 28776, Note_on_c, 8, 62, 0
10, 28800, Note_on_c, 8, 67, 100
10, 29016, Note_on_c, 8, 67, 0
10, 29520, Note_on_c, 8, 60, 100
10, 29736, Note_on_c, 8, 60, 0
10, 29760, Note_on_c, 8, 65, 100
10, 29976, Note_on_c, 8, 65, 0
10, 30480, Note_on_c, 8, 59, 100
10, 30696, Note_on_c, 8, 59, 0
10, 30720, Note_on_c, 8, 64, 100
10, 30936, Note_on_c, 8, 64, 0
10, 30960, Note_on_c, 8, 55, 100
10, 31176, Note_on_c, 8, 55, 0
10, 31200, Note_on_c, 8, 57, 100
10, 31416, Note_on_c, 8, 57, 0
10, 31440, Note_on_c, 8, 60, 100
10, 31656, Note_on_c, 8, 60, 0
10, 31680, Note_on_c, 8, 64, 100
10, 31896, Note_on_c, 8, 64, 0
10, 31920, Note_on_c, 8, 67, 100
10, 32136, Note_on_c, 8, 67, 0
10, 32160, Note_on_c, 8, 69, 100
10, 32376, Note_on_c, 8, 69, 0
10, 32400, Note_on_c, 8, 72, 100
10, 32616, Note_on_c, 8, 72, 0
10, 32640, Note_on_c, 8, 60, 100
10, 32856, Note_on_c, 8, 60, 0
10, 32880, Note_on_c, 8, 55, 100
10, 33096, Note_on_c, 8, 55, 0
10, 33120, Note_on_c, 8, 60, 100
10, 33336, Note_on_c, 8, 60, 0
10, 33360, Note_on_c, 8, 55, 100
10, 33576, Note_on_c, 8, 55, 0
10, 33840, Note_on_c, 8, 59, 100
10, 34056, Note_on_c, 8, 59, 0
10, 34080, Note_on_c, 8, 62, 100
10, 34296, Note_on_c, 8, 62, 0
10, 34320, Note_on_c, 8, 67, 100
10, 34536, Note_on_c, 8, 67, 0
10, 34800, Note_on_c, 8, 54, 100
10, 34908, Note_on_c, 8, 54, 0
10, 34920, Note_on_c, 8, 52, 100
10, 35028, Note_on_c, 8, 52, 0
10, 35040, Note_on_c, 8, 54, 100
10, 35148, Note_on_c, 8, 54, 0
10, 35160, Note_on_c, 8, 55, 100
10, 35268, Note_on_c, 8, 55, 0
10, 35280, Note_on_c, 8, 52, 100
10, 35388, Note_on_c, 8, 52, 0
10, 35400, Note_on_c, 8, 54, 100
10, 35508, Note_on_c, 8, 54, 0
10, 35520, Note_on_c, 8, 55, 100
10, 35736, Note_on_c, 8, 55, 0
10, 35760, Note_on_c, 8, 67, 100
10, 35976, Note_on_c, 8, 67, 0
10, 36000, Note_on_c, 8, 64, 100
10, 36216, Note_on_c, 8, 64, 0
10, 36240, Note_on_c, 8, 60, 100
10, 36696, Note_on_c, 8, 60, 0
10, 36720, Note_on_c, 8, 62, 100
10, 36828, Note_on_c, 8, 62, 0
10, 36840, Note_on_c, 8, 64, 100
10, 36948, Note_on_c, 8, 64, 0
10, 36960, Note_on_c, 8, 62, 100
10, 37176, Note_on_c, 8, 62, 0
10, 37200, Note_on_c, 8, 65, 100
10, 37416, Note_on_c, 8, 65, 0
10, 37440, Note_on_c, 8, 59, 100
10, 37656, Note_on_c, 8, 59, 0
10, 37680, Note_on_c, 8, 60, 100
10, 37788, Note_on_c, 8, 60, 0
10, 37800, Note_on_c, 8, 62, 100
10, 37908, Note_on_c, 8, 62, 0
10, 37920, Note_on_c, 8, 60, 100
10, 38136, Note_on_c, 8, 60, 0
10, 38160, Note_on_c, 8, 64, 100
10, 38376, Note_on_c, 8, 64, 0
10, 38400, Note_on_c, 8, 57, 100
10, 38616, Note_on_c, 8, 57, 0
10, 38640, Note_on_c, 8, 59, 100
10, 38748, Note_on_c, 8, 59, 0
10, 38760, Note_on_c, 8, 60, 100
10, 38868, Note_on_c, 8, 60, 0
10, 38880, Note_on_c, 8, 62, 100
10, 39096, Note_on_c, 8, 62, 0
10, 39120, Note_on_c, 8, 67, 100
10, 39336, Note_on_c, 8, 67, 0
10, 39360, Note_on_c, 8, 67, 100
10, 39576, Note_on_c, 8, 67, 0
10, 40560, Note_on_c, 8, 65, 100
10, 40776, Note_on_c, 8, 65, 0
10, 40800, Note_on_c, 8, 53, 100
10, 41016, Note_on_c, 8, 53, 0
10, 41040, Note_on_c, 8, 60, 100
10, 41256, Note_on_c, 8, 60, 0
10, 41280, Note_on_c, 8, 60, 100
10, 41496, Note_on_c, 8, 60, 0
10, 42480, Note_on_c, 8, 67, 100
10, 42696, Note_on_c, 8, 67, 0
10, 42720, Note_on_c, 8, 55, 100
10, 42936, Note_on_c, 8, 55, 0
10, 42960, Note_on_c, 8, 62, 100
10, 43176, Note_on_c, 8, 62, 0
10, 43200, Note_on_c, 8, 62, 100
10, 43416, Note_on_c, 8, 62, 0
10, 44400, Note_on_c, 8, 69, 100
10, 44616, Note_on_c, 8, 69, 0
10, 44640, Note_on_c, 8, 57, 100
10, 44856, Note_on_c, 8, 57, 0
10, 44880, Note_on_c, 8, 64, 100
10, 45096, Note_on_c, 8, 64, 0
10, 45120, Note_on_c, 8, 69, 100
10, 45336, Note_on_c, 8, 69, 0
10, 45360, Note_on_c, 8, 60, 100
10, 45576, Note_on_c, 8, 60, 0
10, 45600, Note_on_c, 8, 65, 100
10, 45816, Note_on_c, 8, 65, 0
10, 45840, Note_on_c, 8, 59, 100
10, 46056, Note_on_c, 8, 59, 0
10, 46080, Note_on_c, 8, 64, 100
10, 46296, Note_on_c, 8, 64, 0
10, 46320, Note_on_c, 8, 68, 100
10, 46536, Note_on_c, 8, 68, 0
10, 46560, Note_on_c, 8, 57, 100
10, 46776, Note_on_c, 8, 57, 0
10, 46800, Note_on_c, 8, 69, 100
10, 47016, Note_on_c, 8, 69, 0
10, 47040, Note_on_c, 8, 65, 100
10, 47472, Note_on_c, 8, 65, 0
10, 47520, Note_on_c, 8, 55, 100
10, 47736, Note_on_c, 8, 55, 0
10, 47760, Note_on_c, 8, 67, 100
10, 47976, Note_on_c, 8, 67, 0
10, 48000, Note_on_c, 8, 60, 100
10, 48216, Note_on_c, 8, 60, 0
10, 48240, Note_on_c, 8, 64, 100
10, 48456, Note_on_c, 8, 64, 0
10, 48480, Note_on_c, 8, 53, 100
10, 48696, Note_on_c, 8, 53, 0
10, 48720, Note_on_c, 8, 65, 100
10, 48936, Note_on_c, 8, 65, 0
10, 48960, Note_on_c, 8, 62, 100
10, 49392, Note_on_c, 8, 62, 0
10, 49440, Note_on_c, 8, 52, 100
10, 49656, Note_on_c, 8, 52, 0
10, 49680, Note_on_c, 8, 64, 100
10, 49896, Note_on_c, 8, 64, 0
10, 49920, Note_on_c, 8, 60, 100
10, 50136, Note_on_c, 8, 60, 0
10, 50160, Note_on_c, 8, 64, 100
10, 50376, Note_on_c, 8, 64, 0
10, 50400, Note_on_c, 8, 57, 100
10, 50616, Note_on_c, 8, 57, 0
10, 50640, Note_on_c, 8, 65, 100
10, 50856, Note_on_c, 8, 65, 0
10, 50880, Note_on_c, 8, 64, 100
10, 51096, Note_on_c, 8, 64, 0
10, 51120, Note_on_c, 8, 60, 100
10, 51336, Note_on_c, 8, 60, 0
10, 51360, Note_on_c, 8, 57, 100
10, 51576, Note_on_c, 8, 57, 0
10, 51600, Note_on_c, 8, 65, 100
10, 51816, Note_on_c, 8, 65, 0
10, 51840, Note_on_c, 8, 64, 100
10, 52056, Note_on_c, 8, 64, 0
10, 52560, Note_on_c, 8, 64, 100
10, 52668, Note_on_c, 8, 64, 0
10, 52680, Note_on_c, 8, 62, 100
10, 52788, Note_on_c, 8, 62, 0
10, 52800, Note_on_c, 8, 60, 100
10, 53016, Note_on_c, 8, 60, 0
10, 53040, Note_on_c, 8, 60, 100
10, 53256, Note_on_c, 8, 60, 0
10, 53280, Note_on_c, 8, 56, 100
10, 53496, Note_on_c, 8, 56, 0
10, 53520, Note_on_c, 8, 59, 100
10, 53736, Note_on_c, 8, 59, 0
10, 53760, Note_on_c, 8, 60, 100
10, 53976, Note_on_c, 8, 60, 0
10, 54240, Note_on_c, 8, 62, 100
10, 54456, Note_on_c, 8, 62, 0
10, 54720, Note_on_c, 8, 60, 100
10, 54936, Note_on_c, 8, 60, 0
10, 55200, Note_on_c, 8, 65, 100
10, 55416, Note_on_c, 8, 65, 0
10, 55680, Note_on_c, 8, 64, 100
10, 55896, Note_on_c, 8, 64, 0
10, 62640, Note_on_c, 8, 71, 100
10, 62856, Note_on_c, 8, 71, 0
10, 62880, Note_on_c, 8, 69, 100
10, 63096, Note_on_c, 8, 69, 0
10, 63120, Note_on_c, 8, 69, 100
10, 63336, Note_on_c, 8, 69, 0
10, 63600, Note_on_c, 8, 69, 100
10, 63816, Note_on_c, 8, 69, 0
10, 63840, Note_on_c, 8, 67, 100
10, 64056, Note_on_c, 8, 67, 0
10, 64080, Note_on_c, 8, 67, 100
10, 64296, Note_on_c, 8, 67, 0
10, 64560, Note_on_c, 8, 67, 100
10, 64776, Note_on_c, 8, 67, 0
10, 64800, Note_on_c, 8, 65, 100
10, 65016, Note_on_c, 8, 65, 0
10, 65040, Note_on_c, 8, 65, 100
10, 65256, Note_on_c, 8, 65, 0
10, 65520, Note_on_c, 8, 65, 100
10, 65736, Note_on_c, 8, 65, 0
10, 65760, Note_on_c, 8, 64, 100
10, 65976, Note_on_c, 8, 64, 0
10, 66000, Note_on_c, 8, 64, 100
10, 66216, Note_on_c, 8, 64, 0
10, 66240, Note_on_c, 8, 64, 100
10, 67632, Note_on_c, 8, 64, 0
10, 67680, Note_on_c, 8, 59, 100
10, 69336, Note_on_c, 8, 59, 0
10, 69360, Note_on_c, 8, 64, 100
10, 70296, Note_on_c, 8, 64, 0
10, 70320, Note_on_c, 8, 57, 100
10, 71256, Note_on_c, 8, 57, 0
10, 71280, Note_on_c, 8, 62, 100
10, 72216, Note_on_c, 8, 62, 0
10, 72240, Note_on_c, 8, 55, 100
10, 73176, Note_on_c, 8, 55, 0
10, 73200, Note_on_c, 8, 60, 100
10, 73848, Note_on_c, 8, 60, 0
10, 73920, Note_on_c, 8, 60, 100
10, 74136, Note_on_c, 8, 60, 0
10, 74160, Note_on_c, 8, 54, 100
10, 75096, Note_on_c, 8, 54, 0
10, 75120, Note_on_c, 8, 59, 100
10, 75948, Note_on_c, 8, 59, 0
10, 75960, Note_on_c, 8, 57, 100
10, 76068, Note_on_c, 8, 57, 0
10, 76080, Note_on_c, 8, 55, 100
10, 76188, Note_on_c, 8, 55, 0
10, 76200, Note_on_c, 8, 54, 100
10, 76308, Note_on_c, 8, 54, 0
10, 76320, Note_on_c, 8, 55, 100
10, 76428, Note_on_c, 8, 55, 0
10, 76440, Note_on_c, 8, 57, 100
10, 76548, Note_on_c, 8, 57, 0
10, 76560, Note_on_c, 8, 59, 100
10, 76668, Note_on_c, 8, 59, 0
10, 76680, Note_on_c, 8, 60, 100
10, 76788, Note_on_c, 8, 60, 0
10, 76800, Note_on_c, 8, 62, 100
10, 76908, Note_on_c, 8, 62, 0
10, 76920, Note_on_c, 8, 60, 100
10, 77028, Note_on_c, 8, 60, 0
10, 77040, Note_on_c, 8, 62, 100
10, 77148, Note_on_c, 8, 62, 0
10, 77160, Note_on_c, 8, 64, 100
10, 77268, Note_on_c, 8, 64, 0
10, 77280, Note_on_c, 8, 66, 100
10, 77388, Note_on_c, 8, 66, 0
10, 77400, Note_on_c, 8, 64, 100
10, 77508, Note_on_c, 8, 64, 0
10, 77520, Note_on_c, 8, 66, 100
10, 77628, Note_on_c, 8, 66, 0
10, 77640, Note_on_c, 8, 62, 100
10, 77748, Note_on_c, 8, 62, 0
10, 77760, Note_on_c, 8, 67, 100
10, 77868, Note_on_c, 8, 67, 0
10, 77880, Note_on_c, 8, 66, 100
10, 77988, Note_on_c, 8, 66, 0
10, 78000, Note_on_c, 8, 67, 100
10, 78108, Note_on_c, 8, 67, 0
10, 78120, Note_on_c, 8, 69, 100
10, 78228, Note_on_c, 8, 69, 0
10, 78240, Note_on_c, 8, 71, 100
10, 78348, Note_on_c, 8, 71, 0
10, 78360, Note_on_c, 8, 69, 100
10, 78468, Note_on_c, 8, 69, 0
10, 78480, Note_on_c, 8, 71, 100
10, 78588, Note_on_c, 8, 71, 0
10, 78600, Note_on_c, 8, 72, 100
10, 78708, Note_on_c, 8, 72, 0
10, 78720, Note_on_c, 8, 66, 100
10, 78936, Note_on_c, 8, 66, 0
10, 78960, Note_on_c, 8, 71, 100
10, 79392, Note_on_c, 8, 71, 0
10, 79440, Note_on_c, 8, 67, 100
10, 79656, Note_on_c, 8, 67, 0
10, 79680, Note_on_c, 8, 64, 100
10, 79896, Note_on_c, 8, 64, 0
10, 79920, Note_on_c, 8, 69, 100
10, 80352, Note_on_c, 8, 69, 0
10, 80400, Note_on_c, 8, 66, 100
10, 80616, Note_on_c, 8, 66, 0
10, 80640, Note_on_c, 8, 62, 100
10, 80856, Note_on_c, 8, 62, 0
10, 80880, Note_on_c, 8, 67, 100
10, 81312, Note_on_c, 8, 67, 0
10, 81360, Note_on_c, 8, 64, 100
10, 81576, Note_on_c, 8, 64, 0
10, 81600, Note_on_c, 8, 60, 100
10, 81816, Note_on_c, 8, 60, 0
10, 81840, Note_on_c, 8, 66, 100
10, 82272, Note_on_c, 8, 66, 0
10, 82320, Note_on_c, 8, 62, 100
10, 82536, Note_on_c, 8, 62, 0
10, 82560, Note_on_c, 8, 59, 100
10, 82776, Note_on_c, 8, 59, 0
10, 82800, Note_on_c, 8, 68, 100
10, 83016, Note_on_c, 8, 68, 0
10, 83040, Note_on_c, 8, 64, 100
10, 83256, Note_on_c, 8, 64, 0
10, 83280, Note_on_c, 8, 60, 100
10, 83496, Note_on_c, 8, 60, 0
10, 83520, Note_on_c, 8, 62, 100
10, 83736, Note_on_c, 8, 62, 0
10, 83760, Note_on_c, 8, 71, 100
10, 83976, Note_on_c, 8, 71, 0
10, 84000, Note_on_c, 8, 69, 100
10, 84216, Note_on_c, 8, 69, 0
10, 84240, Note_on_c, 8, 60, 100
10, 84456, Note_on_c, 8, 60, 0
10, 84480, Note_on_c, 8, 64, 100
10, 84696, Note_on_c, 8, 64, 0
10, 85680, Note_on_c, 8, 69, 100
10, 85896, Note_on_c, 8, 69, 0
10, 85920, Note_on_c, 8, 57, 100
10, 86136, Note_on_c, 8, 57, 0
10, 86160, Note_on_c, 8, 64, 100
10, 86376, Note_on_c, 8, 64, 0
10, 86400, Note_on_c, 8, 64, 100
10, 86616, Note_on_c, 8, 64, 0
10, 87600, Note_on_c, 8, 62, 100
10, 87816, Note_on_c, 8, 62, 0
10, 87840, Note_on_c, 8, 50, 100
10, 88056, Note_on_c, 8, 50, 0
10, 88080, Note_on_c, 8, 57, 100
10, 88296, Note_on_c, 8, 57, 0
10, 88320, Note_on_c, 8, 57, 100
10, 88536, Note_on_c, 8, 57, 0
10, 89520, Note_on_c, 8, 67, 100
10, 89736, Note_on_c, 8, 67, 0
10, 89760, Note_on_c, 8, 55, 100
10, 89976, Note_on_c, 8, 55, 0
10, 90000, Note_on_c, 8, 62, 100
10, 90216, Note_on_c, 8, 62, 0
10, 90240, Note_on_c, 8, 62, 100
10, 90456, Note_on_c, 8, 62, 0
10, 91440, Note_on_c, 8, 72, 100
10, 91656, Note_on_c, 8, 72, 0
10, 91680, Note_on_c, 8, 60, 100
10, 91896, Note_on_c, 8, 60, 0
10, 91920, Note_on_c, 8, 67, 100
10, 92136, Note_on_c, 8, 67, 0
10, 92160, Note_on_c, 8, 67, 100
10, 92376, Note_on_c, 8, 67, 0
10, 92580, Note_on_c, 8, 64, 100
10, 92634, Note_on_c, 8, 64, 0
10, 92640, Note_on_c, 8, 60, 100
10, 92856, Note_on_c, 8, 60, 0
10, 93060, Note_on_c, 8, 62, 100
10, 93114, Note_on_c, 8, 62, 0
10, 93120, Note_on_c, 8, 59, 100
10, 93336, Note_on_c, 8, 59, 0
10, 93540, Note_on_c, 8, 60, 100
10, 93594, Note_on_c, 8, 60, 0
10, 93600, Note_on_c, 8, 57, 100
10, 93816, Note_on_c, 8, 57, 0
10, 94020, Note_on_c, 8, 55, 100
10, 94074, Note_on_c, 8, 55, 0
10, 94080, Note_on_c, 8, 67, 100
10, 94296, Note_on_c, 8, 67, 0
10, 94500, Note_on_c, 8, 60, 100
10, 94554, Note_on_c, 8, 60, 0
10, 94560, Note_on_c, 8, 69, 100
10, 94776, Note_on_c, 8, 69, 0
10, 94980, Note_on_c, 8, 65, 100
10, 95034, Note_on_c, 8, 65, 0
10, 95040, Note_on_c, 8, 67, 100
10, 95256, Note_on_c, 8, 67, 0
10, 95280, Note_on_c, 8, 65, 100
10, 95496, Note_on_c, 8, 65, 0
10, 95520, Note_on_c, 8, 64, 100
10, 95736, Note_on_c, 8, 64, 0
10, 95760, Note_on_c, 8, 67, 100
10, 95976, Note_on_c, 8, 67, 0
10, 96000, Note_on_c, 8, 55, 100
10, 96216, Note_on_c, 8, 55, 0
10, 96240, Note_on_c, 8, 55, 100
10, 96456, Note_on_c, 8, 55, 0
10, 96480, Note_on_c, 8, 52, 100
10, 96696, Note_on_c, 8, 52, 0
10, 96720, Note_on_c, 8, 60, 100
10, 96936, Note_on_c, 8, 60, 0
10, 96960, Note_on_c, 8, 62, 100
10, 97392, Note_on_c, 8, 62, 0
10, 97440, Note_on_c, 8, 67, 100
10, 97872, Note_on_c, 8, 67, 0
10, 97920, Note_on_c, 8, 69, 100
10, 98784, Note_on_c, 8, 69, 0
10, 98880, Note_on_c, 8, 71, 100
10, 99096, Note_on_c, 8, 71, 0
10, 100080, Note_on_c, 8, 59, 100
10, 100296, Note_on_c, 8, 59, 0
10, 100320, Note_on_c, 8, 60, 100
10, 100536, Note_on_c, 8, 60, 0
10, 100560, Note_on_c, 8, 65, 100
10, 100776, Note_on_c, 8, 65, 0
10, 100800, Note_on_c, 8, 67, 100
10, 101232, Note_on_c, 8, 67, 0
10, 101280, Note_on_c, 8, 72, 100
10, 101712, Note_on_c, 8, 72, 0
10, 101760, Note_on_c, 8, 74, 100
10, 102624, Note_on_c, 8, 74, 0
10, 102720, Note_on_c, 8, 76, 100
10, 102936, Note_on_c, 8, 76, 0
10, 103920, Note_on_c, 8, 64, 100
10, 104136, Note_on_c, 8, 64, 0
10, 104160, Note_on_c, 8, 65, 100
10, 104376, Note_on_c, 8, 65, 0
10, 104400, Note_on_c, 8, 70, 100
10, 104616, Note_on_c, 8, 70, 0
10, 104640, Note_on_c, 8, 72, 100
10, 104856, Note_on_c, 8, 72, 0
10, 121200, Note_on_c, 8, 53, 100
10, 121416, Note_on_c, 8, 53, 0
10, 121440, Note_on_c, 8, 55, 100
10, 121656, Note_on_c, 8, 55, 0
10, 121680, Note_on_c, 8, 67, 100
10, 121896, Note_on_c, 8, 67, 0
10, 121920, Note_on_c, 8, 69, 100
10, 122136, Note_on_c, 8, 69, 0
10, 123120, Note_on_c, 8, 60, 100
10, 123336, Note_on_c, 8, 60, 0
10, 123360, Note_on_c, 8, 62, 100
10, 123576, Note_on_c, 8, 62, 0
10, 123600, Note_on_c, 8, 62, 100
10, 123816, Note_on_c, 8, 62, 0
10, 123840, Note_on_c, 8, 64, 100
10, 124056, Note_on_c, 8, 64, 0
10, 125040, Note_on_c, 8, 67, 100
10, 125256, Note_on_c, 8, 67, 0
10, 125280, Note_on_c, 8, 69, 100
10, 125496, Note_on_c, 8, 69, 0
10, 125520, Note_on_c, 8, 69, 100
10, 125736, Note_on_c, 8, 69, 0
10, 125760, Note_on_c, 8, 67, 100
10, 125976, Note_on_c, 8, 67, 0
10, 126960, Note_on_c, 8, 69, 100
10, 127176, Note_on_c, 8, 69, 0
10, 127200, Note_on_c, 8, 74, 100
10, 127416, Note_on_c, 8, 74, 0
10, 127440, Note_on_c, 8, 74, 100
10, 127656, Note_on_c, 8, 74, 0
10, 127680, Note_on_c, 8, 74, 100
10, 127896, Note_on_c, 8, 74, 0
10, 127920, Note_on_c, 8, 76, 100
10, 128028, Note_on_c, 8, 76, 0
10, 128040, Note_on_c, 8, 74, 100
10, 128148, Note_on_c, 8, 74, 0
10, 128160, Note_on_c, 8, 72, 100
10, 128856, Note_on_c, 8, 72, 0
10, 128880, Note_on_c, 8, 71, 100
10, 128988, Note_on_c, 8, 71, 0
10, 129000, Note_on_c, 8, 69, 100
10, 129108, Note_on_c, 8, 69, 0
10, 129120, Note_on_c, 8, 67, 100
10, 129228, Note_on_c, 8, 67, 0
10, 129240, Note_on_c, 8, 66, 100
10, 129348, Note_on_c, 8, 66, 0
10, 129360, Note_on_c, 8, 67, 100
10, 129468, Note_on_c, 8, 67, 0
10, 129480, Note_on_c, 8, 62, 100
10, 129588, Note_on_c, 8, 62, 0
10, 129600, Note_on_c, 8, 67, 100
10, 129708, Note_on_c, 8, 67, 0
10, 129720, Note_on_c, 8, 66, 100
10, 129828, Note_on_c, 8, 66, 0
10, 129840, Note_on_c, 8, 64, 100
10, 130188, Note_on_c, 8, 64, 0
10, 130200, Note_on_c, 8, 66, 100
10, 130308, Note_on_c, 8, 66, 0
10, 130320, Note_on_c, 8, 69, 100
10, 130428, Note_on_c, 8, 69, 0
10, 130440, Note_on_c, 8, 60, 100
10, 130548, Note_on_c, 8, 60, 0
10, 130560, Note_on_c, 8, 66, 100
10, 130668, Note_on_c, 8, 66, 0
10, 130680, Note_on_c, 8, 69, 100
10, 130788, Note_on_c, 8, 69, 0
10, 130800, Note_on_c, 8, 67, 100
10, 130908, Note_on_c, 8, 67, 0
10, 130920, Note_on_c, 8, 66, 100
10, 131028, Note_on_c, 8, 66, 0
10, 131040, Note_on_c, 8, 64, 100
10, 131736, Note_on_c, 8, 64, 0
10, 131760, Note_on_c, 8, 60, 100
10, 131976, Note_on_c, 8, 60, 0
10, 132000, Note_on_c, 8, 57, 100
10, 132216, Note_on_c, 8, 57, 0
10, 132240, Note_on_c, 8, 62, 100
10, 132588, Note_on_c, 8, 62, 0
10, 132600, Note_on_c, 8, 67, 100
10, 132708, Note_on_c, 8, 67, 0
10, 132720, Note_on_c, 8, 62, 100
10, 132828, Note_on_c, 8, 62, 0
10, 132840, Note_on_c, 8, 59, 100
10, 132948, Note_on_c, 8, 59, 0
10, 132960, Note_on_c, 8, 55, 100
10, 133176, Note_on_c, 8, 55, 0
10, 133200, Note_on_c, 8, 67, 100
10, 133548, Note_on_c, 8, 67, 0
10, 133560, Note_on_c, 8, 62, 100
10, 133668, Note_on_c, 8, 62, 0
10, 133680, Note_on_c, 8, 59, 100
10, 133788, Note_on_c, 8, 59, 0
10, 133800, Note_on_c, 8, 62, 100
10, 133908, Note_on_c, 8, 62, 0
10, 133920, Note_on_c, 8, 64, 100
10, 134136, Note_on_c, 8, 64, 0
10, 134160, Note_on_c, 8, 60, 100
10, 134376, Note_on_c, 8, 60, 0
10, 134400, Note_on_c, 8, 55, 100
10, 134616, Note_on_c, 8, 55, 0
10, 135360, Note_on_c, 8, 62, 100
10, 135576, Note_on_c, 8, 62, 0
10, 136320, Note_on_c, 8, 65, 100
10, 136536, Note_on_c, 8, 65, 0
10, 137280, Note_on_c, 8, 59, 100
10, 137496, Note_on_c, 8, 59, 0
10, 137520, Note_on_c, 8, 62, 100
10, 137736, Note_on_c, 8, 62, 0
10, 137760, Note_on_c, 8, 62, 100
10, 137976, Note_on_c, 8, 62, 0
10, 138000, Note_on_c, 8, 55, 100
10, 138216, Note_on_c, 8, 55, 0
10, 138240, Note_on_c, 8, 55, 100
10, 138456, Note_on_c, 8, 55, 0
10, 139200, Note_on_c, 8, 55, 100
10, 139416, Note_on_c, 8, 55, 0
10, 140160, Note_on_c, 8, 58, 100
10, 140376, Note_on_c, 8, 58, 0
10, 141120, Note_on_c, 8, 52, 100
10, 141336, Note_on_c, 8, 52, 0
10, 141360, Note_on_c, 8, 55, 100
10, 141576, Note_on_c, 8, 55, 0
10, 141600, Note_on_c, 8, 55, 100
10, 141816, Note_on_c, 8, 55, 0
10, 141840, Note_on_c, 8, 48, 100
10, 142056, Note_on_c, 8, 48, 0
10, 142080, Note_on_c, 8, 48, 100
10, 142296, Note_on_c, 8, 48, 0
10, 143040, Note_on_c, 8, 60, 100
10, 144864, Note_on_c, 8, 60, 0
10, 144960, Note_on_c, 8, 61, 100
10, 146568, Note_on_c, 8, 61, 0
10, 146640, Note_on_c, 8, 61, 100
10, 146856, Note_on_c, 8, 61, 0
10, 146880, Note_on_c, 8, 62, 100
10, 147096, Note_on_c, 8, 62, 0
10, 147840, Note_on_c, 8, 65, 100
10, 148056, Note_on_c, 8, 65, 0
10, 149040, Note_on_c, 8, 62, 100
10, 149256, Note_on_c, 8, 62, 0
10, 149280, Note_on_c, 8, 62, 100
10, 149496, Note_on_c, 8, 62, 0
10, 149520, Note_on_c, 8, 62, 100
10, 149736, Note_on_c, 8, 62, 0
10, 149760, Note_on_c, 8, 63, 100
10, 150624, Note_on_c, 8, 63, 0
10, 150720, Note_on_c, 8, 60, 100
10, 151896, Note_on_c, 8, 60, 0
10, 152640, Note_on_c, 8, 57, 100
10, 152856, Note_on_c, 8, 57, 0
10, 153840, Note_on_c, 8, 69, 100
10, 154056, Note_on_c, 8, 69, 0
10, 154080, Note_on_c, 8, 69, 100
10, 154296, Note_on_c, 8, 69, 0
10, 154320, Note_on_c, 8, 62, 100
10, 154536, Note_on_c, 8, 62, 0
10, 154560, Note_on_c, 8, 62, 100
10, 155424, Note_on_c, 8, 62, 0
10, 155520, Note_on_c, 8, 63, 100
10, 156384, Note_on_c, 8, 63, 0
10, 156480, Note_on_c, 8, 59, 100
10, 157344, Note_on_c, 8, 59, 0
10, 157440, Note_on_c, 8, 60, 100
10, 159264, Note_on_c, 8, 60, 0
10, 159360, Note_on_c, 8, 57, 100
10, 160224, Note_on_c, 8, 57, 0
10, 160320, Note_on_c, 8, 62, 100
10, 160536, Note_on_c, 8, 62, 0
10, 170400, Note_on_c, 8, 67, 100
10, 170988, Note_on_c, 8, 67, 0
10, 171000, Note_on_c, 8, 60, 100
10, 171108, Note_on_c, 8, 60, 0
10, 171120, Note_on_c, 8, 57, 100
10, 171228, Note_on_c, 8, 57, 0
10, 171240, Note_on_c, 8, 60, 100
10, 171348, Note_on_c, 8, 60, 0
10, 171360, Note_on_c, 8, 65, 100
10, 171948, Note_on_c, 8, 65, 0
10, 171960, Note_on_c, 8, 59, 100
10, 172068, Note_on_c, 8, 59, 0
10, 172080, Note_on_c, 8, 55, 100
10, 172188, Note_on_c, 8, 55, 0
10, 172200, Note_on_c, 8, 59, 100
10, 172308, Note_on_c, 8, 59, 0
10, 172320, Note_on_c, 8, 64, 100
10, 172908, Note_on_c, 8, 64, 0
10, 172920, Note_on_c, 8, 57, 100
10, 173028, Note_on_c, 8, 57, 0
10, 173040, Note_on_c, 8, 53, 100
10, 173148, Note_on_c, 8, 53, 0
10, 173160, Note_on_c, 8, 57, 100
10, 173268, Note_on_c, 8, 57, 0
10, 173280, Note_on_c, 8, 62, 100
10, 173868, Note_on_c, 8, 62, 0
10, 173880, Note_on_c, 8, 55, 100
10, 173988, Note_on_c, 8, 55, 0
10, 174000, Note_on_c, 8, 52, 100
10, 174108, Note_on_c, 8, 52, 0
10, 174120, Note_on_c, 8, 55, 100
10, 174228, Note_on_c, 8, 55, 0
10, 174240, Note_on_c, 8, 60, 100
10, 174456, Note_on_c, 8, 60, 0
10, 174480, Note_on_c, 8, 57, 100
10, 174696, Note_on_c, 8, 57, 0
10, 174720, Note_on_c, 8, 55, 100
10, 174936, Note_on_c, 8, 55, 0
10, 174960, Note_on_c, 8, 64, 100
10, 175176, Note_on_c, 8, 64, 0
10, 175200, Note_on_c, 8, 60, 100
10, 175416, Note_on_c, 8, 60, 0
10, 175440, Note_on_c, 8, 69, 100
10, 175656, Note_on_c, 8, 69, 0
10, 175680, Note_on_c, 8, 67, 100
10, 175896, Note_on_c, 8, 67, 0
10, 176400, Note_on_c, 8, 62, 100
10, 176616, Note_on_c, 8, 62, 0
10, 176640, Note_on_c, 8, 60, 100
10, 176856, Note_on_c, 8, 60, 0
10, 176880, Note_on_c, 8, 65, 100
10, 177096, Note_on_c, 8, 65, 0
10, 177120, Note_on_c, 8, 64, 100
10, 177336, Note_on_c, 8, 64, 0
10, 177360, Note_on_c, 8, 62, 100
10, 177576, Note_on_c, 8, 62, 0
10, 177600, Note_on_c, 8, 60, 100
10, 177816, Note_on_c, 8, 60, 0
10, 177840, Note_on_c, 8, 67, 100
10, 178056, Note_on_c, 8, 67, 0
10, 178080, Note_on_c, 8, 65, 100
10, 178296, Note_on_c, 8, 65, 0
10, 178320, Note_on_c, 8, 57, 100
10, 178536, Note_on_c, 8, 57, 0
10, 178560, Note_on_c, 8, 60, 100
10, 178776, Note_on_c, 8, 60, 0
10, 178800, Note_on_c, 8, 67, 100
10, 179016, Note_on_c, 8, 67, 0
10, 179040, Note_on_c, 8, 65, 100
10, 179256, Note_on_c, 8, 65, 0
10, 179280, Note_on_c, 8, 57, 100
10, 179496, Note_on_c, 8, 57, 0
10, 179520, Note_on_c, 8, 60, 100
10, 179736, Note_on_c, 8, 60, 0
10, 180480, Note_on_c, 8, 67, 100
10, 180696, Note_on_c, 8, 67, 0
10, 181440, Note_on_c, 8, 72, 100
10, 181656, Note_on_c, 8, 72, 0
10, 182400, Note_on_c, 8, 67, 100
10, 182616, Note_on_c, 8, 67, 0
10, 182640, Note_on_c, 8, 65, 100
10, 182856, Note_on_c, 8, 65, 0
10, 182880, Note_on_c, 8, 64, 100
10, 183096, Note_on_c, 8, 64, 0
10, 183120, Note_on_c, 8, 62, 100
10, 183336, Note_on_c, 8, 62, 0
10, 183360, Note_on_c, 8, 64, 100
10, 184224, Note_on_c, 8, 64, 0
10, 184224, End_track
11, 0, Start_track
11, 0, Sequence_number, 65535
11, 0, MIDI_port, 0
11, 0, Title_t, "Basso Continuo"
11, 0, Control_c, 10, 0, 0
11, 0, Control_c, 10, 32, 0
11, 0, Program_c, 10, 48
11, 0, Control_c, 10, 7, 100
11, 0, Control_c, 10, 10, 94
11, 0, Note_on_c, 10, 60, 100
11, 864, Note_on_c, 10, 60, 0
11, 960, Note_on_c, 10, 59, 100
11, 1824, Note_on_c, 10, 59, 0
11, 1920, Note_on_c, 10, 57, 100
11, 2784, Note_on_c, 10, 57, 0
11, 2880, Note_on_c, 10, 55, 100
11, 3096, Note_on_c, 10, 55, 0
11, 3120, Note_on_c, 10, 55, 100
11, 3120, Note_on_c, 10, 55, 100
11, 3228, Note_on_c, 10, 55, 0
11, 3228, Note_on_c, 10, 55, 0
11, 3240, Note_on_c, 10, 53, 100
11, 3240, Note_on_c, 10, 53, 100
11, 3348, Note_on_c, 10, 53, 0
11, 3348, Note_on_c, 10, 53, 0
11, 3360, Note_on_c, 10, 52, 100
11, 3360, Note_on_c, 10, 52, 100
11, 3576, Note_on_c, 10, 52, 0
11, 3576, Note_on_c, 10, 52, 0
11, 3600, Note_on_c, 10, 48, 100
11, 3600, Note_on_c, 10, 48, 100
11, 3816, Note_on_c, 10, 48, 0
11, 3816, Note_on_c, 10, 48, 0
11, 3840, Note_on_c, 10, 53, 100
11, 4056, Note_on_c, 10, 53, 0
11, 4080, Note_on_c, 10, 52, 100
11, 4296, Note_on_c, 10, 52, 0
11, 4320, Note_on_c, 10, 50, 100
11, 4536, Note_on_c, 10, 50, 0
11, 4560, Note_on_c, 10, 47, 100
11, 4776, Note_on_c, 10, 47, 0
11, 5040, Note_on_c, 10, 52, 100
11, 5148, Note_on_c, 10, 52, 0
11, 5160, Note_on_c, 10, 50, 100
11, 5268, Note_on_c, 10, 50, 0
11, 5280, Note_on_c, 10, 48, 100
11, 5496, Note_on_c, 10, 48, 0
11, 5520, Note_on_c, 10, 45, 100
11, 5736, Note_on_c, 10, 45, 0
11, 5760, Note_on_c, 10, 50, 100
11, 5976, Note_on_c, 10, 50, 0
11, 6000, Note_on_c, 10, 48, 100
11, 6216, Note_on_c, 10, 48, 0
11, 6240, Note_on_c, 10, 47, 100
11, 6456, Note_on_c, 10, 47, 0
11, 6480, Note_on_c, 10, 43, 100
11, 6696, Note_on_c, 10, 43, 0
11, 6720, Note_on_c, 10, 48, 100
11, 6936, Note_on_c, 10, 48, 0
11, 7440, Note_on_c, 10, 48, 100
11, 7656, Note_on_c, 10, 48, 0
11, 7680, Note_on_c, 10, 48, 100
11, 7896, Note_on_c, 10, 48, 0
11, 7920, Note_on_c, 10, 36, 100
11, 8136, Note_on_c, 10, 36, 0
11, 8400, Note_on_c, 10, 48, 100
11, 8616, Note_on_c, 10, 48, 0
11, 8640, Note_on_c, 10, 48, 100
11, 8856, Note_on_c, 10, 48, 0
11, 8880, Note_on_c, 10, 36, 100
11, 9096, Note_on_c, 10, 36, 0
11, 9360, Note_on_c, 10, 45, 100
11, 9576, Note_on_c, 10, 45, 0
11, 9600, Note_on_c, 10, 50, 100
11, 9816, Note_on_c, 10, 50, 0
11, 9840, Note_on_c, 10, 38, 100
11, 10056, Note_on_c, 10, 38, 0
11, 10320, Note_on_c, 10, 47, 100
11, 10536, Note_on_c, 10, 47, 0
11, 10560, Note_on_c, 10, 52, 100
11, 10776, Note_on_c, 10, 52, 0
11, 10800, Note_on_c, 10, 40, 100
11, 11016, Note_on_c, 10, 40, 0
11, 11280, Note_on_c, 10, 52, 100
11, 11496, Note_on_c, 10, 52, 0
11, 11520, Note_on_c, 10, 54, 100
11, 11736, Note_on_c, 10, 54, 0
11, 11760, Note_on_c, 10, 42, 100
11, 11976, Note_on_c, 10, 42, 0
11, 12240, Note_on_c, 10, 50, 100
11, 12456, Note_on_c, 10, 50, 0
11, 12480, Note_on_c, 10, 55, 100
11, 13344, Note_on_c, 10, 55, 0
11, 13440, Note_on_c, 10, 54, 100
11, 14304, Note_on_c, 10, 54, 0
11, 14400, Note_on_c, 10, 52, 100
11, 15264, Note_on_c, 10, 52, 0
11, 15360, Note_on_c, 10, 50, 100
11, 15468, Note_on_c, 10, 50, 0
11, 15480, Note_on_c, 10, 52, 100
11, 15588, Note_on_c, 10, 52, 0
11, 15600, Note_on_c, 10, 50, 100
11, 15708, Note_on_c, 10, 50, 0
11, 15720, Note_on_c, 10, 48, 100
11, 15828, Note_on_c, 10, 48, 0
11, 15840, Note_on_c, 10, 47, 100
11, 16056, Note_on_c, 10, 47, 0
11, 16080, Note_on_c, 10, 43, 100
11, 16296, Note_on_c, 10, 43, 0
11, 16320, Note_on_c, 10, 48, 100
11, 16536, Note_on_c, 10, 48, 0
11, 16560, Note_on_c, 10, 47, 100
11, 16776, Note_on_c, 10, 47, 0
11, 16800, Note_on_c, 10, 45, 100
11, 17016, Note_on_c, 10, 45, 0
11, 17040, Note_on_c, 10, 42, 100
11, 17256, Note_on_c, 10, 42, 0
11, 17520, Note_on_c, 10, 47, 100
11, 17628, Note_on_c, 10, 47, 0
11, 17640, Note_on_c, 10, 45, 100
11, 17748, Note_on_c, 10, 45, 0
11, 17760, Note_on_c, 10, 43, 100
11, 17976, Note_on_c, 10, 43, 0
11, 18000, Note_on_c, 10, 40, 100
11, 18216, Note_on_c, 10, 40, 0
11, 18240, Note_on_c, 10, 45, 100
11, 18456, Note_on_c, 10, 45, 0
11, 18480, Note_on_c, 10, 43, 100
11, 18696, Note_on_c, 10, 43, 0
11, 18720, Note_on_c, 10, 42, 100
11, 18936, Note_on_c, 10, 42, 0
11, 18960, Note_on_c, 10, 38, 100
11, 19176, Note_on_c, 10, 38, 0
11, 19200, Note_on_c, 10, 43, 100
11, 19416, Note_on_c, 10, 43, 0
11, 19920, Note_on_c, 10, 55, 100
11, 20136, Note_on_c, 10, 55, 0
11, 20160, Note_on_c, 10, 55, 100
11, 20376, Note_on_c, 10, 55, 0
11, 20400, Note_on_c, 10, 43, 100
11, 20616, Note_on_c, 10, 43, 0
11, 20880, Note_on_c, 10, 55, 100
11, 21096, Note_on_c, 10, 55, 0
11, 21120, Note_on_c, 10, 55, 100
11, 21336, Note_on_c, 10, 55, 0
11, 21360, Note_on_c, 10, 53, 100
11, 21576, Note_on_c, 10, 53, 0
11, 21600, Note_on_c, 10, 52, 100
11, 21816, Note_on_c, 10, 52, 0
11, 21840, Note_on_c, 10, 50, 100
11, 22056, Note_on_c, 10, 50, 0
11, 22080, Note_on_c, 10, 49, 100
11, 22296, Note_on_c, 10, 49, 0
11, 22320, Note_on_c, 10, 50, 100
11, 22536, Note_on_c, 10, 50, 0
11, 22560, Note_on_c, 10, 57, 100
11, 22776, Note_on_c, 10, 57, 0
11, 22800, Note_on_c, 10, 45, 100
11, 23016, Note_on_c, 10, 45, 0
11, 23040, Note_on_c, 10, 38, 100
11, 23256, Note_on_c, 10, 38, 0
11, 23280, Note_on_c, 10, 45, 100
11, 23496, Note_on_c, 10, 45, 0
11, 23520, Note_on_c, 10, 50, 100
11, 23736, Note_on_c, 10, 50, 0
11, 23760, Note_on_c, 10, 48, 100
11, 23976, Note_on_c, 10, 48, 0
11, 24000, Note_on_c, 10, 47, 100
11, 24216, Note_on_c, 10, 47, 0
11, 24240, Note_on_c, 10, 48, 100
11, 24456, Note_on_c, 10, 48, 0
11, 24480, Note_on_c, 10, 55, 100
11, 24696, Note_on_c, 10, 55, 0
11, 24720, Note_on_c, 10, 43, 100
11, 24936, Note_on_c, 10, 43, 0
11, 24960, Note_on_c, 10, 48, 100
11, 25176, Note_on_c, 10, 48, 0
11, 25200, Note_on_c, 10, 47, 100
11, 25416, Note_on_c, 10, 47, 0
11, 25440, Note_on_c, 10, 45, 100
11, 25656, Note_on_c, 10, 45, 0
11, 25680, Note_on_c, 10, 43, 100
11, 25896, Note_on_c, 10, 43, 0
11, 25920, Note_on_c, 10, 42, 100
11, 26136, Note_on_c, 10, 42, 0
11, 26160, Note_on_c, 10, 43, 100
11, 26376, Note_on_c, 10, 43, 0
11, 26400, Note_on_c, 10, 50, 100
11, 26616, Note_on_c, 10, 50, 0
11, 26640, Note_on_c, 10, 38, 100
11, 26856, Note_on_c, 10, 38, 0
11, 26880, Note_on_c, 10, 43, 100
11, 27096, Note_on_c, 10, 43, 0
11, 27120, Note_on_c, 10, 55, 100
11, 27228, Note_on_c, 10, 55, 0
11, 27240, Note_on_c, 10, 53, 100
11, 27348, Note_on_c, 10, 53, 0
11, 27360, Note_on_c, 10, 52, 100
11, 27576, Note_on_c, 10, 52, 0
11, 27600, Note_on_c, 10, 48, 100
11, 27816, Note_on_c, 10, 48, 0
11, 27840, Note_on_c, 10, 53, 100
11, 28056, Note_on_c, 10, 53, 0
11, 28080, Note_on_c, 10, 52, 100
11, 28296, Note_on_c, 10, 52, 0
11, 28320, Note_on_c, 10, 50, 100
11, 28536, Note_on_c, 10, 50, 0
11, 28560, Note_on_c, 10, 47, 100
11, 28776, Note_on_c, 10, 47, 0
11, 29040, Note_on_c, 10, 52, 100
11, 29148, Note_on_c, 10, 52, 0
11, 29160, Note_on_c, 10, 50, 100
11, 29268, Note_on_c, 10, 50, 0
11, 29280, Note_on_c, 10, 48, 100
11, 29496, Note_on_c, 10, 48, 0
11, 29520, Note_on_c, 10, 45, 100
11, 29736, Note_on_c, 10, 45, 0
11, 29760, Note_on_c, 10, 50, 100
11, 29976, Note_on_c, 10, 50, 0
11, 30000, Note_on_c, 10, 48, 100
11, 30216, Note_on_c, 10, 48, 0
11, 30240, Note_on_c, 10, 47, 100
11, 30456, Note_on_c, 10, 47, 0
11, 30480, Note_on_c, 10, 43, 100
11, 30696, Note_on_c, 10, 43, 0
11, 30720, Note_on_c, 10, 48, 100
11, 30936, Note_on_c, 10, 48, 0
11, 30960, Note_on_c, 10, 36, 100
11, 31176, Note_on_c, 10, 36, 0
11, 31200, Note_on_c, 10, 36, 100
11, 31416, Note_on_c, 10, 36, 0
11, 31440, Note_on_c, 10, 48, 100
11, 31656, Note_on_c, 10, 48, 0
11, 31680, Note_on_c, 10, 48, 100
11, 31896, Note_on_c, 10, 48, 0
11, 31920, Note_on_c, 10, 36, 100
11, 32136, Note_on_c, 10, 36, 0
11, 32160, Note_on_c, 10, 36, 100
11, 32376, Note_on_c, 10, 36, 0
11, 32400, Note_on_c, 10, 48, 100
11, 32616, Note_on_c, 10, 48, 0
11, 32640, Note_on_c, 10, 48, 100
11, 33504, Note_on_c, 10, 48, 0
11, 33600, Note_on_c, 10, 47, 100
11, 34464, Note_on_c, 10, 47, 0
11, 34560, Note_on_c, 10, 45, 100
11, 35424, Note_on_c, 10, 45, 0
11, 35520, Note_on_c, 10, 43, 100
11, 35628, Note_on_c, 10, 43, 0
11, 35640, Note_on_c, 10, 47, 100
11, 35748, Note_on_c, 10, 47, 0
11, 35760, Note_on_c, 10, 48, 100
11, 35868, Note_on_c, 10, 48, 0
11, 35880, Note_on_c, 10, 50, 100
11, 35988, Note_on_c, 10, 50, 0
11, 36000, Note_on_c, 10, 52, 100
11, 36216, Note_on_c, 10, 52, 0
11, 36240, Note_on_c, 10, 52, 100
11, 36456, Note_on_c, 10, 52, 0
11, 36480, Note_on_c, 10, 52, 100
11, 36696, Note_on_c, 10, 52, 0
11, 36720, Note_on_c, 10, 50, 100
11, 36828, Note_on_c, 10, 50, 0
11, 36840, Note_on_c, 10, 48, 100
11, 36948, Note_on_c, 10, 48, 0
11, 36960, Note_on_c, 10, 50, 100
11, 37176, Note_on_c, 10, 50, 0
11, 37200, Note_on_c, 10, 50, 100
11, 37416, Note_on_c, 10, 50, 0
11, 37440, Note_on_c, 10, 50, 100
11, 37548, Note_on_c, 10, 50, 0
11, 37560, Note_on_c, 10, 43, 100
11, 37668, Note_on_c, 10, 43, 0
11, 37680, Note_on_c, 10, 45, 100
11, 37788, Note_on_c, 10, 45, 0
11, 37800, Note_on_c, 10, 47, 100
11, 37908, Note_on_c, 10, 47, 0
11, 37920, Note_on_c, 10, 48, 100
11, 38616, Note_on_c, 10, 48, 0
11, 38640, Note_on_c, 10, 47, 100
11, 38748, Note_on_c, 10, 47, 0
11, 38760, Note_on_c, 10, 45, 100
11, 38868, Note_on_c, 10, 45, 0
11, 38880, Note_on_c, 10, 47, 100
11, 39096, Note_on_c, 10, 47, 0
11, 39120, Note_on_c, 10, 43, 100
11, 39336, Note_on_c, 10, 43, 0
11, 39360, Note_on_c, 10, 48, 100
11, 39576, Note_on_c, 10, 48, 0
11, 39600, Note_on_c, 10, 60, 100
11, 40032, Note_on_c, 10, 60, 0
11, 40080, Note_on_c, 10, 59, 100
11, 40296, Note_on_c, 10, 59, 0
11, 40320, Note_on_c, 10, 57, 100
11, 40536, Note_on_c, 10, 57, 0
11, 40560, Note_on_c, 10, 45, 100
11, 40776, Note_on_c, 10, 45, 0
11, 40800, Note_on_c, 10, 46, 100
11, 41016, Note_on_c, 10, 46, 0
11, 41040, Note_on_c, 10, 48, 100
11, 41256, Note_on_c, 10, 48, 0
11, 41280, Note_on_c, 10, 41, 100
11, 41496, Note_on_c, 10, 41, 0
11, 41520, Note_on_c, 10, 53, 100
11, 41952, Note_on_c, 10, 53, 0
11, 42000, Note_on_c, 10, 52, 100
11, 42216, Note_on_c, 10, 52, 0
11, 42240, Note_on_c, 10, 50, 100
11, 42456, Note_on_c, 10, 50, 0
11, 42480, Note_on_c, 10, 47, 100
11, 42696, Note_on_c, 10, 47, 0
11, 42720, Note_on_c, 10, 48, 100
11, 42936, Note_on_c, 10, 48, 0
11, 42960, Note_on_c, 10, 50, 100
11, 43176, Note_on_c, 10, 50, 0
11, 43200, Note_on_c, 10, 43, 100
11, 43416, Note_on_c, 10, 43, 0
11, 43440, Note_on_c, 10, 55, 100
11, 43872, Note_on_c, 10, 55, 0
11, 43920, Note_on_c, 10, 53, 100
11, 44136, Note_on_c, 10, 53, 0
11, 44160, Note_on_c, 10, 52, 100
11, 44376, Note_on_c, 10, 52, 0
11, 44400, Note_on_c, 10, 48, 100
11, 44616, Note_on_c, 10, 48, 0
11, 44640, Note_on_c, 10, 50, 100
11, 44856, Note_on_c, 10, 50, 0
11, 44880, Note_on_c, 10, 52, 100
11, 45096, Note_on_c, 10, 52, 0
11, 45120, Note_on_c, 10, 53, 100
11, 45228, Note_on_c, 10, 53, 0
11, 45240, Note_on_c, 10, 52, 100
11, 45348, Note_on_c, 10, 52, 0
11, 45360, Note_on_c, 10, 53, 100
11, 45468, Note_on_c, 10, 53, 0
11, 45480, Note_on_c, 10, 55, 100
11, 45588, Note_on_c, 10, 55, 0
11, 45600, Note_on_c, 10, 53, 100
11, 45708, Note_on_c, 10, 53, 0
11, 45720, Note_on_c, 10, 57, 100
11, 45828, Note_on_c, 10, 57, 0
11, 45840, Note_on_c, 10, 50, 100
11, 45948, Note_on_c, 10, 50, 0
11, 45960, Note_on_c, 10, 53, 100
11, 46068, Note_on_c, 10, 53, 0
11, 46080, Note_on_c, 10, 52, 100
11, 46188, Note_on_c, 10, 52, 0
11, 46200, Note_on_c, 10, 53, 100
11, 46308, Note_on_c, 10, 53, 0
11, 46320, Note_on_c, 10, 47, 100
11, 46428, Note_on_c, 10, 47, 0
11, 46440, Note_on_c, 10, 50, 100
11, 46548, Note_on_c, 10, 50, 0
11, 46560, Note_on_c, 10, 48, 100
11, 46668, Note_on_c, 10, 48, 0
11, 46680, Note_on_c, 10, 52, 100
11, 46788, Note_on_c, 10, 52, 0
11, 46800, Note_on_c, 10, 45, 100
11, 46908, Note_on_c, 10, 45, 0
11, 46920, Note_on_c, 10, 48, 100
11, 47028, Note_on_c, 10, 48, 0
11, 47040, Note_on_c, 10, 50, 100
11, 47148, Note_on_c, 10, 50, 0
11, 47160, Note_on_c, 10, 53, 100
11, 47268, Note_on_c, 10, 53, 0
11, 47280, Note_on_c, 10, 45, 100
11, 47388, Note_on_c, 10, 45, 0
11, 47400, Note_on_c, 10, 48, 100
11, 47508, Note_on_c, 10, 48, 0
11, 47520, Note_on_c, 10, 47, 100
11, 47628, Note_on_c, 10, 47, 0
11, 47640, Note_on_c, 10, 50, 100
11, 47748, Note_on_c, 10, 50, 0
11, 47760, Note_on_c, 10, 43, 100
11, 47868, Note_on_c, 10, 43, 0
11, 47880, Note_on_c, 10, 47, 100
11, 47988, Note_on_c, 10, 47, 0
11, 48000, Note_on_c, 10, 48, 100
11, 48108, Note_on_c, 10, 48, 0
11, 48120, Note_on_c, 10, 52, 100
11, 48228, Note_on_c, 10, 52, 0
11, 48240, Note_on_c, 10, 43, 100
11, 48348, Note_on_c, 10, 43, 0
11, 48360, Note_on_c, 10, 47, 100
11, 48468, Note_on_c, 10, 47, 0
11, 48480, Note_on_c, 10, 45, 100
11, 48588, Note_on_c, 10, 45, 0
11, 48600, Note_on_c, 10, 48, 100
11, 48708, Note_on_c, 10, 48, 0
11, 48720, Note_on_c, 10, 41, 100
11, 48828, Note_on_c, 10, 41, 0
11, 48840, Note_on_c, 10, 45, 100
11, 48948, Note_on_c, 10, 45, 0
11, 48960, Note_on_c, 10, 47, 100
11, 49068, Note_on_c, 10, 47, 0
11, 49080, Note_on_c, 10, 50, 100
11, 49188, Note_on_c, 10, 50, 0
11, 49200, Note_on_c, 10, 42, 100
11, 49308, Note_on_c, 10, 42, 0
11, 49320, Note_on_c, 10, 45, 100
11, 49428, Note_on_c, 10, 45, 0
11, 49440, Note_on_c, 10, 44, 100
11, 49656, Note_on_c, 10, 44, 0
11, 49680, Note_on_c, 10, 40, 100
11, 49896, Note_on_c, 10, 40, 0
11, 49920, Note_on_c, 10, 45, 100
11, 50136, Note_on_c, 10, 45, 0
11, 50640, Note_on_c, 10, 57, 100
11, 50856, Note_on_c, 10, 57, 0
11, 50880, Note_on_c, 10, 57, 100
11, 51096, Note_on_c, 10, 57, 0
11, 51120, Note_on_c, 10, 45, 100
11, 51336, Note_on_c, 10, 45, 0
11, 51600, Note_on_c, 10, 57, 100
11, 51816, Note_on_c, 10, 57, 0
11, 51840, Note_on_c, 10, 57, 100
11, 52056, Note_on_c, 10, 57, 0
11, 52080, Note_on_c, 10, 45, 100
11, 52188, Note_on_c, 10, 45, 0
11, 52200, Note_on_c, 10, 44, 100
11, 52308, Note_on_c, 10, 44, 0
11, 52320, Note_on_c, 10, 45, 100
11, 52428, Note_on_c, 10, 45, 0
11, 52440, Note_on_c, 10, 47, 100
11, 52548, Note_on_c, 10, 47, 0
11, 52560, Note_on_c, 10, 45, 100
11, 52668, Note_on_c, 10, 45, 0
11, 52680, Note_on_c, 10, 47, 100
11, 52788, Note_on_c, 10, 47, 0
11, 52800, Note_on_c, 10, 48, 100
11, 52908, Note_on_c, 10, 48, 0
11, 52920, Note_on_c, 10, 50, 100
11, 53028, Note_on_c, 10, 50, 0
11, 53040, Note_on_c, 10, 48, 100
11, 53148, Note_on_c, 10, 48, 0
11, 53160, Note_on_c, 10, 50, 100
11, 53268, Note_on_c, 10, 50, 0
11, 53280, Note_on_c, 10, 52, 100
11, 53496, Note_on_c, 10, 52, 0
11, 53520, Note_on_c, 10, 40, 100
11, 53736, Note_on_c, 10, 40, 0
11, 53760, Note_on_c, 10, 45, 100
11, 53976, Note_on_c, 10, 45, 0
11, 54000, Note_on_c, 10, 57, 100
11, 54108, Note_on_c, 10, 57, 0
11, 54120, Note_on_c, 10, 55, 100
11, 54228, Note_on_c, 10, 55, 0
11, 54240, Note_on_c, 10, 53, 100
11, 54348, Note_on_c, 10, 53, 0
11, 54360, Note_on_c, 10, 50, 100
11, 54468, Note_on_c, 10, 50, 0
11, 54480, Note_on_c, 10, 53, 100
11, 54588, Note_on_c, 10, 53, 0
11, 54600, Note_on_c, 10, 50, 100
11, 54708, Note_on_c, 10, 50, 0
11, 54720, Note_on_c, 10, 57, 100
11, 54936, Note_on_c, 10, 57, 0
11, 54960, Note_on_c, 10, 45, 100
11, 55068, Note_on_c, 10, 45, 0
11, 55080, Note_on_c, 10, 43, 100
11, 55188, Note_on_c, 10, 43, 0
11, 55200, Note_on_c, 10, 41, 100
11, 55308, Note_on_c, 10, 41, 0
11, 55320, Note_on_c, 10, 38, 100
11, 55428, Note_on_c, 10, 38, 0
11, 55440, Note_on_c, 10, 41, 100
11, 55548, Note_on_c, 10, 41, 0
11, 55560, Note_on_c, 10, 38, 100
11, 55668, Note_on_c, 10, 38, 0
11, 55680, Note_on_c, 10, 45, 100
11, 55896, Note_on_c, 10, 45, 0
11, 55920, Note_on_c, 10, 57, 100
11, 56136, Note_on_c, 10, 57, 0
11, 56400, Note_on_c, 10, 57, 100
11, 56508, Note_on_c, 10, 57, 0
11, 56520, Note_on_c, 10, 59, 100
11, 56628, Note_on_c, 10, 59, 0
11, 56640, Note_on_c, 10, 60, 100
11, 56856, Note_on_c, 10, 60, 0
11, 56880, Note_on_c, 10, 57, 100
11, 57096, Note_on_c, 10, 57, 0
11, 57120, Note_on_c, 10, 59, 100
11, 57336, Note_on_c, 10, 59, 0
11, 57360, Note_on_c, 10, 47, 100
11, 57576, Note_on_c, 10, 47, 0
11, 57600, Note_on_c, 10, 40, 100
11, 57816, Note_on_c, 10, 40, 0
11, 58320, Note_on_c, 10, 55, 100
11, 58428, Note_on_c, 10, 55, 0
11, 58440, Note_on_c, 10, 57, 100
11, 58548, Note_on_c, 10, 57, 0
11, 58560, Note_on_c, 10, 58, 100
11, 58776, Note_on_c, 10, 58, 0
11, 58800, Note_on_c, 10, 55, 100
11, 59016, Note_on_c, 10, 55, 0
11, 59040, Note_on_c, 10, 57, 100
11, 59256, Note_on_c, 10, 57, 0
11, 59280, Note_on_c, 10, 45, 100
11, 59496, Note_on_c, 10, 45, 0
11, 59520, Note_on_c, 10, 38, 100
11, 59736, Note_on_c, 10, 38, 0
11, 60240, Note_on_c, 10, 53, 100
11, 60348, Note_on_c, 10, 53, 0
11, 60360, Note_on_c, 10, 55, 100
11, 60468, Note_on_c, 10, 55, 0
11, 60480, Note_on_c, 10, 57, 100
11, 60696, Note_on_c, 10, 57, 0
11, 60720, Note_on_c, 10, 53, 100
11, 60936, Note_on_c, 10, 53, 0
11, 60960, Note_on_c, 10, 55, 100
11, 61176, Note_on_c, 10, 55, 0
11, 61200, Note_on_c, 10, 43, 100
11, 61416, Note_on_c, 10, 43, 0
11, 61440, Note_on_c, 10, 36, 100
11, 61656, Note_on_c, 10, 36, 0
11, 62160, Note_on_c, 10, 60, 100
11, 62268, Note_on_c, 10, 60, 0
11, 62280, Note_on_c, 10, 62, 100
11, 62388, Note_on_c, 10, 62, 0
11, 62400, Note_on_c, 10, 64, 100
11, 62616, Note_on_c, 10, 64, 0
11, 62640, Note_on_c, 10, 52, 100
11, 62856, Note_on_c, 10, 52, 0
11, 62880, Note_on_c, 10, 57, 100
11, 63096, Note_on_c, 10, 57, 0
11, 63120, Note_on_c, 10, 61, 100
11, 63336, Note_on_c, 10, 61, 0
11, 63360, Note_on_c, 10, 62, 100
11, 63576, Note_on_c, 10, 62, 0
11, 63600, Note_on_c, 10, 50, 100
11, 63816, Note_on_c, 10, 50, 0
11, 63840, Note_on_c, 10, 55, 100
11, 64056, Note_on_c, 10, 55, 0
11, 64080, Note_on_c, 10, 59, 100
11, 64296, Note_on_c, 10, 59, 0
11, 64320, Note_on_c, 10, 60, 100
11, 64536, Note_on_c, 10, 60, 0
11, 64560, Note_on_c, 10, 48, 100
11, 64776, Note_on_c, 10, 48, 0
11, 64800, Note_on_c, 10, 53, 100
11, 65016, Note_on_c, 10, 53, 0
11, 65040, Note_on_c, 10, 57, 100
11, 65256, Note_on_c, 10, 57, 0
11, 65280, Note_on_c, 10, 59, 100
11, 65496, Note_on_c, 10, 59, 0
11, 65520, Note_on_c, 10, 47, 100
11, 65736, Note_on_c, 10, 47, 0
11, 65760, Note_on_c, 10, 52, 100
11, 65976, Note_on_c, 10, 52, 0
11, 66000, Note_on_c, 10, 56, 100
11, 66216, Note_on_c, 10, 56, 0
11, 66240, Note_on_c, 10, 57, 100
11, 66456, Note_on_c, 10, 57, 0
11, 66480, Note_on_c, 10, 45, 100
11, 66588, Note_on_c, 10, 45, 0
11, 66600, Note_on_c, 10, 47, 100
11, 66708, Note_on_c, 10, 47, 0
11, 66720, Note_on_c, 10, 48, 100
11, 66828, Note_on_c, 10, 48, 0
11, 66840, Note_on_c, 10, 47, 100
11, 66948, Note_on_c, 10, 47, 0
11, 66960, Note_on_c, 10, 48, 100
11, 67068, Note_on_c, 10, 48, 0
11, 67080, Note_on_c, 10, 50, 100
11, 67188, Note_on_c, 10, 50, 0
11, 67200, Note_on_c, 10, 52, 100
11, 67308, Note_on_c, 10, 52, 0
11, 67320, Note_on_c, 10, 51, 100
11, 67428, Note_on_c, 10, 51, 0
11, 67440, Note_on_c, 10, 52, 100
11, 67548, Note_on_c, 10, 52, 0
11, 67560, Note_on_c, 10, 54, 100
11, 67668, Note_on_c, 10, 54, 0
11, 67680, Note_on_c, 10, 55, 100
11, 67788, Note_on_c, 10, 55, 0
11, 67800, Note_on_c, 10, 54, 100
11, 67908, Note_on_c, 10, 54, 0
11, 67920, Note_on_c, 10, 55, 100
11, 68028, Note_on_c, 10, 55, 0
11, 68040, Note_on_c, 10, 57, 100
11, 68148, Note_on_c, 10, 57, 0
11, 68160, Note_on_c, 10, 59, 100
11, 68268, Note_on_c, 10, 59, 0
11, 68280, Note_on_c, 10, 57, 100
11, 68388, Note_on_c, 10, 57, 0
11, 68400, Note_on_c, 10, 59, 100
11, 68508, Note_on_c, 10, 59, 0
11, 68520, Note_on_c, 10, 60, 100
11, 68628, Note_on_c, 10, 60, 0
11, 68640, Note_on_c, 10, 62, 100
11, 68748, Note_on_c, 10, 62, 0
11, 68760, Note_on_c, 10, 60, 100
11, 68868, Note_on_c, 10, 60, 0
11, 68880, Note_on_c, 10, 62, 100
11, 68988, Note_on_c, 10, 62, 0
11, 69000, Note_on_c, 10, 59, 100
11, 69108, Note_on_c, 10, 59, 0
11, 69120, Note_on_c, 10, 64, 100
11, 69228, Note_on_c, 10, 64, 0
11, 69240, Note_on_c, 10, 62, 100
11, 69348, Note_on_c, 10, 62, 0
11, 69360, Note_on_c, 10, 64, 100
11, 69468, Note_on_c, 10, 64, 0
11, 69480, Note_on_c, 10, 65, 100
11, 69588, Note_on_c, 10, 65, 0
11, 69600, Note_on_c, 10, 64, 100
11, 69708, Note_on_c, 10, 64, 0
11, 69720, Note_on_c, 10, 62, 100
11, 69828, Note_on_c, 10, 62, 0
11, 69840, Note_on_c, 10, 60, 100
11, 69948, Note_on_c, 10, 60, 0
11, 69960, Note_on_c, 10, 59, 100
11, 70068, Note_on_c, 10, 59, 0
11, 70080, Note_on_c, 10, 57, 100
11, 70188, Note_on_c, 10, 57, 0
11, 70200, Note_on_c, 10, 55, 100
11, 70308, Note_on_c, 10, 55, 0
11, 70320, Note_on_c, 10, 57, 100
11, 70428, Note_on_c, 10, 57, 0
11, 70440, Note_on_c, 10, 58, 100
11, 70548, Note_on_c, 10, 58, 0
11, 70560, Note_on_c, 10, 57, 100
11, 70668, Note_on_c, 10, 57, 0
11, 70680, Note_on_c, 10, 55, 100
11, 70788, Note_on_c, 10, 55, 0
11, 70800, Note_on_c, 10, 53, 100
11, 70908, Note_on_c, 10, 53, 0
11, 70920, Note_on_c, 10, 52, 100
11, 71028, Note_on_c, 10, 52, 0
11, 71040, Note_on_c, 10, 50, 100
11, 71148, Note_on_c, 10, 50, 0
11, 71160, Note_on_c, 10, 48, 100
11, 71268, Note_on_c, 10, 48, 0
11, 71280, Note_on_c, 10, 50, 100
11, 71388, Note_on_c, 10, 50, 0
11, 71400, Note_on_c, 10, 52, 100
11, 71508, Note_on_c, 10, 52, 0
11, 71520, Note_on_c, 10, 50, 100
11, 71628, Note_on_c, 10, 50, 0
11, 71640, Note_on_c, 10, 48, 100
11, 71748, Note_on_c, 10, 48, 0
11, 71760, Note_on_c, 10, 47, 100
11, 71868, Note_on_c, 10, 47, 0
11, 71880, Note_on_c, 10, 45, 100
11, 71988, Note_on_c, 10, 45, 0
11, 72000, Note_on_c, 10, 55, 100
11, 72108, Note_on_c, 10, 55, 0
11, 72120, Note_on_c, 10, 53, 100
11, 72228, Note_on_c, 10, 53, 0
11, 72240, Note_on_c, 10, 55, 100
11, 72348, Note_on_c, 10, 55, 0
11, 72360, Note_on_c, 10, 57, 100
11, 72468, Note_on_c, 10, 57, 0
11, 72480, Note_on_c, 10, 55, 100
11, 72588, Note_on_c, 10, 55, 0
11, 72600, Note_on_c, 10, 53, 100
11, 72708, Note_on_c, 10, 53, 0
11, 72720, Note_on_c, 10, 52, 100
11, 72828, Note_on_c, 10, 52, 0
11, 72840, Note_on_c, 10, 50, 100
11, 72948, Note_on_c, 10, 50, 0
11, 72960, Note_on_c, 10, 48, 100
11, 73068, Note_on_c, 10, 48, 0
11, 73080, Note_on_c, 10, 47, 100
11, 73188, Note_on_c, 10, 47, 0
11, 73200, Note_on_c, 10, 48, 100
11, 73308, Note_on_c, 10, 48, 0
11, 73320, Note_on_c, 10, 50, 100
11, 73428, Note_on_c, 10, 50, 0
11, 73440, Note_on_c, 10, 48, 100
11, 73548, Note_on_c, 10, 48, 0
11, 73560, Note_on_c, 10, 46, 100
11, 73668, Note_on_c, 10, 46, 0
11, 73680, Note_on_c, 10, 45, 100
11, 73788, Note_on_c, 10, 45, 0
11, 73800, Note_on_c, 10, 43, 100
11, 73908, Note_on_c, 10, 43, 0
11, 73920, Note_on_c, 10, 54, 100
11, 74028, Note_on_c, 10, 54, 0
11, 74040, Note_on_c, 10, 52, 100
11, 74148, Note_on_c, 10, 52, 0
11, 74160, Note_on_c, 10, 54, 100
11, 74268, Note_on_c, 10, 54, 0
11, 74280, Note_on_c, 10, 55, 100
11, 74388, Note_on_c, 10, 55, 0
11, 74400, Note_on_c, 10, 54, 100
11, 74508, Note_on_c, 10, 54, 0
11, 74520, Note_on_c, 10, 52, 100
11, 74628, Note_on_c, 10, 52, 0
11, 74640, Note_on_c, 10, 51, 100
11, 74748, Note_on_c, 10, 51, 0
11, 74760, Note_on_c, 10, 49, 100
11, 74868, Note_on_c, 10, 49, 0
11, 74880, Note_on_c, 10, 47, 100
11, 74988, Note_on_c, 10, 47, 0
11, 75000, Note_on_c, 10, 45, 100
11, 75108, Note_on_c, 10, 45, 0
11, 75120, Note_on_c, 10, 47, 100
11, 75228, Note_on_c, 10, 47, 0
11, 75240, Note_on_c, 10, 48, 100
11, 75348, Note_on_c, 10, 48, 0
11, 75360, Note_on_c, 10, 47, 100
11, 75468, Note_on_c, 10, 47, 0
11, 75480, Note_on_c, 10, 45, 100
11, 75588, Note_on_c, 10, 45, 0
11, 75600, Note_on_c, 10, 43, 100
11, 75708, Note_on_c, 10, 43, 0
11, 75720, Note_on_c, 10, 42, 100
11, 75828, Note_on_c, 10, 42, 0
11, 75840, Note_on_c, 10, 52, 100
11, 76704, Note_on_c, 10, 52, 0
11, 76800, Note_on_c, 10, 50, 100
11, 77664, Note_on_c, 10, 50, 0
11, 77760, Note_on_c, 10, 48, 100
11, 78624, Note_on_c, 10, 48, 0
11, 78720, Note_on_c, 10, 47, 100
11, 78936, Note_on_c, 10, 47, 0
11, 78960, Note_on_c, 10, 59, 100
11, 79068, Note_on_c, 10, 59, 0
11, 79080, Note_on_c, 10, 57, 100
11, 79188, Note_on_c, 10, 57, 0
11, 79200, Note_on_c, 10, 55, 100
11, 79416, Note_on_c, 10, 55, 0
11, 79440, Note_on_c, 10, 52, 100
11, 79656, Note_on_c, 10, 52, 0
11, 79680, Note_on_c, 10, 57, 100
11, 79896, Note_on_c, 10, 57, 0
11, 79920, Note_on_c, 10, 55, 100
11, 80136, Note_on_c, 10, 55, 0
11, 80160, Note_on_c, 10, 54, 100
11, 80376, Note_on_c, 10, 54, 0
11, 80400, Note_on_c, 10, 50, 100
11, 80616, Note_on_c, 10, 50, 0
11, 80880, Note_on_c, 10, 55, 100
11, 80988, Note_on_c, 10, 55, 0
11, 81000, Note_on_c, 10, 54, 100
11, 81108, Note_on_c, 10, 54, 0
11, 81120, Note_on_c, 10, 52, 100
11, 81336, Note_on_c, 10, 52, 0
11, 81360, Note_on_c, 10, 48, 100
11, 81576, Note_on_c, 10, 48, 0
11, 81600, Note_on_c, 10, 54, 100
11, 81816, Note_on_c, 10, 54, 0
11, 81840, Note_on_c, 10, 52, 100
11, 82056, Note_on_c, 10, 52, 0
11, 82080, Note_on_c, 10, 50, 100
11, 82776, Note_on_c, 10, 50, 0
11, 82800, Note_on_c, 10, 52, 100
11, 82908, Note_on_c, 10, 52, 0
11, 82920, Note_on_c, 10, 50, 100
11, 83028, Note_on_c, 10, 50, 0
11, 83040, Note_on_c, 10, 48, 100
11, 83256, Note_on_c, 10, 48, 0
11, 83280, Note_on_c, 10, 48, 100
11, 83496, Note_on_c, 10, 48, 0
11, 83520, Note_on_c, 10, 44, 100
11, 83736, Note_on_c, 10, 44, 0
11, 83760, Note_on_c, 10, 44, 100
11, 83976, Note_on_c, 10, 44, 0
11, 84000, Note_on_c, 10, 45, 100
11, 84216, Note_on_c, 10, 45, 0
11, 84240, Note_on_c, 10, 45, 100
11, 84456, Note_on_c, 10, 45, 0
11, 84480, Note_on_c, 10, 52, 100
11, 84696, Note_on_c, 10, 52, 0
11, 84720, Note_on_c, 10, 40, 100
11, 85152, Note_on_c, 10, 40, 0
11, 85200, Note_on_c, 10, 38, 100
11, 85416, Note_on_c, 10, 38, 0
11, 85440, Note_on_c, 10, 36, 100
11, 85656, Note_on_c, 10, 36, 0
11, 85680, Note_on_c, 10, 48, 100
11, 85896, Note_on_c, 10, 48, 0
11, 85920, Note_on_c, 10, 50, 100
11, 86136, Note_on_c, 10, 50, 0
11, 86160, Note_on_c, 10, 52, 100
11, 86376, Note_on_c, 10, 52, 0
11, 86400, Note_on_c, 10, 45, 100
11, 86616, Note_on_c, 10, 45, 0
11, 86640, Note_on_c, 10, 57, 100
11, 87072, Note_on_c, 10, 57, 0
11, 87120, Note_on_c, 10, 55, 100
11, 87336, Note_on_c, 10, 55, 0
11, 87360, Note_on_c, 10, 53, 100
11, 87576, Note_on_c, 10, 53, 0
11, 87600, Note_on_c, 10, 41, 100
11, 87816, Note_on_c, 10, 41, 0
11, 87840, Note_on_c, 10, 43, 100
11, 88056, Note_on_c, 10, 43, 0
11, 88080, Note_on_c, 10, 45, 100
11, 88296, Note_on_c, 10, 45, 0
11, 88320, Note_on_c, 10, 38, 100
11, 88536, Note_on_c, 10, 38, 0
11, 88560, Note_on_c, 10, 62, 100
11, 88992, Note_on_c, 10, 62, 0
11, 89040, Note_on_c, 10, 60, 100
11, 89256, Note_on_c, 10, 60, 0
11, 89280, Note_on_c, 10, 59, 100
11, 89496, Note_on_c, 10, 59, 0
11, 89520, Note_on_c, 10, 47, 100
11, 89736, Note_on_c, 10, 47, 0
11, 89760, Note_on_c, 10, 48, 100
11, 89976, Note_on_c, 10, 48, 0
11, 90000, Note_on_c, 10, 50, 100
11, 90216, Note_on_c, 10, 50, 0
11, 90240, Note_on_c, 10, 43, 100
11, 90456, Note_on_c, 10, 43, 0
11, 90480, Note_on_c, 10, 55, 100
11, 90912, Note_on_c, 10, 55, 0
11, 90960, Note_on_c, 10, 53, 100
11, 91176, Note_on_c, 10, 53, 0
11, 91200, Note_on_c, 10, 52, 100
11, 91416, Note_on_c, 10, 52, 0
11, 91440, Note_on_c, 10, 40, 100
11, 91656, Note_on_c, 10, 40, 0
11, 91680, Note_on_c, 10, 41, 100
11, 91896, Note_on_c, 10, 41, 0
11, 91920, Note_on_c, 10, 43, 100
11, 92136, Note_on_c, 10, 43, 0
11, 92160, Note_on_c, 10, 36, 100
11, 92376, Note_on_c, 10, 36, 0
11, 92400, Note_on_c, 10, 48, 100
11, 92616, Note_on_c, 10, 48, 0
11, 92640, Note_on_c, 10, 53, 100
11, 92856, Note_on_c, 10, 53, 0
11, 92880, Note_on_c, 10, 47, 100
11, 93096, Note_on_c, 10, 47, 0
11, 93120, Note_on_c, 10, 52, 100
11, 93336, Note_on_c, 10, 52, 0
11, 93360, Note_on_c, 10, 45, 100
11, 93576, Note_on_c, 10, 45, 0
11, 93600, Note_on_c, 10, 50, 100
11, 93816, Note_on_c, 10, 50, 0
11, 93840, Note_on_c, 10, 43, 100
11, 94056, Note_on_c, 10, 43, 0
11, 94080, Note_on_c, 10, 48, 100
11, 94296, Note_on_c, 10, 48, 0
11, 94320, Note_on_c, 10, 40, 100
11, 94536, Note_on_c, 10, 40, 0
11, 94560, Note_on_c, 10, 41, 100
11, 94776, Note_on_c, 10, 41, 0
11, 94800, Note_on_c, 10, 38, 100
11, 95016, Note_on_c, 10, 38, 0
11, 95040, Note_on_c, 10, 43, 100
11, 95256, Note_on_c, 10, 43, 0
11, 95760, Note_on_c, 10, 55, 100
11, 95976, Note_on_c, 10, 55, 0
11, 96000, Note_on_c, 10, 55, 100
11, 96216, Note_on_c, 10, 55, 0
11, 96240, Note_on_c, 10, 43, 100
11, 96456, Note_on_c, 10, 43, 0
11, 96720, Note_on_c, 10, 55, 100
11, 96936, Note_on_c, 10, 55, 0
11, 96960, Note_on_c, 10, 55, 100
11, 99096, Note_on_c, 10, 55, 0
11, 99120, Note_on_c, 10, 57, 100
11, 99336, Note_on_c, 10, 57, 0
11, 99360, Note_on_c, 10, 59, 100
11, 99576, Note_on_c, 10, 59, 0
11, 99600, Note_on_c, 10, 57, 100
11, 99816, Note_on_c, 10, 57, 0
11, 99840, Note_on_c, 10, 55, 100
11, 100056, Note_on_c, 10, 55, 0
11, 100080, Note_on_c, 10, 53, 100
11, 100296, Note_on_c, 10, 53, 0
11, 100320, Note_on_c, 10, 52, 100
11, 100536, Note_on_c, 10, 52, 0
11, 100560, Note_on_c, 10, 50, 100
11, 100776, Note_on_c, 10, 50, 0
11, 100800, Note_on_c, 10, 48, 100
11, 102936, Note_on_c, 10, 48, 0
11, 102960, Note_on_c, 10, 50, 100
11, 103176, Note_on_c, 10, 50, 0
11, 103200, Note_on_c, 10, 52, 100
11, 103416, Note_on_c, 10, 52, 0
11, 103440, Note_on_c, 10, 50, 100
11, 103656, Note_on_c, 10, 50, 0
11, 103680, Note_on_c, 10, 48, 100
11, 103896, Note_on_c, 10, 48, 0
11, 103920, Note_on_c, 10, 46, 100
11, 104136, Note_on_c, 10, 46, 0
11, 104160, Note_on_c, 10, 45, 100
11, 104376, Note_on_c, 10, 45, 0
11, 104400, Note_on_c, 10, 43, 100
11, 104616, Note_on_c, 10, 43, 0
11, 104640, Note_on_c, 10, 41, 100
11, 104748, Note_on_c, 10, 41, 0
11, 104760, Note_on_c, 10, 40, 100
11, 104868, Note_on_c, 10, 40, 0
11, 104880, Note_on_c, 10, 41, 100
11, 104988, Note_on_c, 10, 41, 0
11, 105000, Note_on_c, 10, 43, 100
11, 105108, Note_on_c, 10, 43, 0
11, 105120, Note_on_c, 10, 45, 100
11, 105228, Note_on_c, 10, 45, 0
11, 105240, Note_on_c, 10, 43, 100
11, 105348, Note_on_c, 10, 43, 0
11, 105360, Note_on_c, 10, 45, 100
11, 105468, Note_on_c, 10, 45, 0
11, 105480, Note_on_c, 10, 47, 100
11, 105588, Note_on_c, 10, 47, 0
11, 105600, Note_on_c, 10, 48, 100
11, 105708, Note_on_c, 10, 48, 0
11, 105720, Note_on_c, 10, 47, 100
11, 105828, Note_on_c, 10, 47, 0
11, 105840, Note_on_c, 10, 48, 100
11, 105948, Note_on_c, 10, 48, 0
11, 105960, Note_on_c, 10, 50, 100
11, 106068, Note_on_c, 10, 50, 0
11, 106080, Note_on_c, 10, 52, 100
11, 106188, Note_on_c, 10, 52, 0
11, 106200, Note_on_c, 10, 50, 100
11, 106308, Note_on_c, 10, 50, 0
11, 106320, Note_on_c, 10, 52, 100
11, 106428, Note_on_c, 10, 52, 0
11, 106440, Note_on_c, 10, 53, 100
11, 106548, Note_on_c, 10, 53, 0
11, 106560, Note_on_c, 10, 43, 100
11, 106668, Note_on_c, 10, 43, 0
11, 106680, Note_on_c, 10, 42, 100
11, 106788, Note_on_c, 10, 42, 0
11, 106800, Note_on_c, 10, 43, 100
11, 106908, Note_on_c, 10, 43, 0
11, 106920, Note_on_c, 10, 45, 100
11, 107028, Note_on_c, 10, 45, 0
11, 107040, Note_on_c, 10, 47, 100
11, 107148, Note_on_c, 10, 47, 0
11, 107160, Note_on_c, 10, 45, 100
11, 107268, Note_on_c, 10, 45, 0
11, 107280, Note_on_c, 10, 47, 100
11, 107388, Note_on_c, 10, 47, 0
11, 107400, Note_on_c, 10, 48, 100
11, 107508, Note_on_c, 10, 48, 0
11, 107520, Note_on_c, 10, 50, 100
11, 107628, Note_on_c, 10, 50, 0
11, 107640, Note_on_c, 10, 49, 100
11, 107748, Note_on_c, 10, 49, 0
11, 107760, Note_on_c, 10, 50, 100
11, 107868, Note_on_c, 10, 50, 0
11, 107880, Note_on_c, 10, 52, 100
11, 107988, Note_on_c, 10, 52, 0
11, 108000, Note_on_c, 10, 53, 100
11, 108108, Note_on_c, 10, 53, 0
11, 108120, Note_on_c, 10, 52, 100
11, 108228, Note_on_c, 10, 52, 0
11, 108240, Note_on_c, 10, 53, 100
11, 108348, Note_on_c, 10, 53, 0
11, 108360, Note_on_c, 10, 55, 100
11, 108468, Note_on_c, 10, 55, 0
11, 108480, Note_on_c, 10, 45, 100
11, 108588, Note_on_c, 10, 45, 0
11, 108600, Note_on_c, 10, 44, 100
11, 108708, Note_on_c, 10, 44, 0
11, 108720, Note_on_c, 10, 45, 100
11, 108828, Note_on_c, 10, 45, 0
11, 108840, Note_on_c, 10, 47, 100
11, 108948, Note_on_c, 10, 47, 0
11, 108960, Note_on_c, 10, 48, 100
11, 109068, Note_on_c, 10, 48, 0
11, 109080, Note_on_c, 10, 47, 100
11, 109188, Note_on_c, 10, 47, 0
11, 109200, Note_on_c, 10, 48, 100
11, 109308, Note_on_c, 10, 48, 0
11, 109320, Note_on_c, 10, 45, 100
11, 109428, Note_on_c, 10, 45, 0
11, 109440, Note_on_c, 10, 50, 100
11, 109548, Note_on_c, 10, 50, 0
11, 109560, Note_on_c, 10, 52, 100
11, 109668, Note_on_c, 10, 52, 0
11, 109680, Note_on_c, 10, 53, 100
11, 109788, Note_on_c, 10, 53, 0
11, 109800, Note_on_c, 10, 50, 100
11, 109908, Note_on_c, 10, 50, 0
11, 109920, Note_on_c, 10, 52, 100
11, 110028, Note_on_c, 10, 52, 0
11, 110040, Note_on_c, 10, 48, 100
11, 110148, Note_on_c, 10, 48, 0
11, 110160, Note_on_c, 10, 50, 100
11, 110268, Note_on_c, 10, 50, 0
11, 110280, Note_on_c, 10, 52, 100
11, 110388, Note_on_c, 10, 52, 0
11, 110400, Note_on_c, 10, 53, 100
11, 110508, Note_on_c, 10, 53, 0
11, 110520, Note_on_c, 10, 55, 100
11, 110628, Note_on_c, 10, 55, 0
11, 110640, Note_on_c, 10, 53, 100
11, 110748, Note_on_c, 10, 53, 0
11, 110760, Note_on_c, 10, 52, 100
11, 110868, Note_on_c, 10, 52, 0
11, 110880, Note_on_c, 10, 50, 100
11, 110988, Note_on_c, 10, 50, 0
11, 111000, Note_on_c, 10, 48, 100
11, 111108, Note_on_c, 10, 48, 0
11, 111120, Note_on_c, 10, 47, 100
11, 111228, Note_on_c, 10, 47, 0
11, 111240, Note_on_c, 10, 45, 100
11, 111348, Note_on_c, 10, 45, 0
11, 111360, Note_on_c, 10, 47, 100
11, 111468, Note_on_c, 10, 47, 0
11, 111480, Note_on_c, 10, 43, 100
11, 111588, Note_on_c, 10, 43, 0
11, 111600, Note_on_c, 10, 45, 100
11, 111708, Note_on_c, 10, 45, 0
11, 111720, Note_on_c, 10, 47, 100
11, 111828, Note_on_c, 10, 47, 0
11, 111840, Note_on_c, 10, 48, 100
11, 111948, Note_on_c, 10, 48, 0
11, 111960, Note_on_c, 10, 45, 100
11, 112068, Note_on_c, 10, 45, 0
11, 112080, Note_on_c, 10, 47, 100
11, 112188, Note_on_c, 10, 47, 0
11, 112200, Note_on_c, 10, 48, 100
11, 112308, Note_on_c, 10, 48, 0
11, 112320, Note_on_c, 10, 50, 100
11, 112428, Note_on_c, 10, 50, 0
11, 112440, Note_on_c, 10, 52, 100
11, 112548, Note_on_c, 10, 52, 0
11, 112560, Note_on_c, 10, 50, 100
11, 112668, Note_on_c, 10, 50, 0
11, 112680, Note_on_c, 10, 48, 100
11, 112788, Note_on_c, 10, 48, 0
11, 112800, Note_on_c, 10, 47, 100
11, 112908, Note_on_c, 10, 47, 0
11, 112920, Note_on_c, 10, 50, 100
11, 113028, Note_on_c, 10, 50, 0
11, 113040, Note_on_c, 10, 55, 100
11, 113148, Note_on_c, 10, 55, 0
11, 113160, Note_on_c, 10, 53, 100
11, 113268, Note_on_c, 10, 53, 0
11, 113280, Note_on_c, 10, 52, 100
11, 113388, Note_on_c, 10, 52, 0
11, 113400, Note_on_c, 10, 53, 100
11, 113508, Note_on_c, 10, 53, 0
11, 113520, Note_on_c, 10, 52, 100
11, 113628, Note_on_c, 10, 52, 0
11, 113640, Note_on_c, 10, 50, 100
11, 113748, Note_on_c, 10, 50, 0
11, 113760, Note_on_c, 10, 48, 100
11, 113868, Note_on_c, 10, 48, 0
11, 113880, Note_on_c, 10, 52, 100
11, 113988, Note_on_c, 10, 52, 0
11, 114000, Note_on_c, 10, 57, 100
11, 114108, Note_on_c, 10, 57, 0
11, 114120, Note_on_c, 10, 55, 100
11, 114228, Note_on_c, 10, 55, 0
11, 114240, Note_on_c, 10, 53, 100
11, 114348, Note_on_c, 10, 53, 0
11, 114360, Note_on_c, 10, 55, 100
11, 114468, Note_on_c, 10, 55, 0
11, 114480, Note_on_c, 10, 53, 100
11, 114588, Note_on_c, 10, 53, 0
11, 114600, Note_on_c, 10, 52, 100
11, 114708, Note_on_c, 10, 52, 0
11, 114720, Note_on_c, 10, 50, 100
11, 114828, Note_on_c, 10, 50, 0
11, 114840, Note_on_c, 10, 48, 100
11, 114948, Note_on_c, 10, 48, 0
11, 114960, Note_on_c, 10, 47, 100
11, 115068, Note_on_c, 10, 47, 0
11, 115080, Note_on_c, 10, 45, 100
11, 115188, Note_on_c, 10, 45, 0
11, 115200, Note_on_c, 10, 43, 100
11, 120216, Note_on_c, 10, 43, 0
11, 120240, Note_on_c, 10, 41, 100
11, 120456, Note_on_c, 10, 41, 0
11, 120480, Note_on_c, 10, 40, 100
11, 120696, Note_on_c, 10, 40, 0
11, 120720, Note_on_c, 10, 38, 100
11, 120936, Note_on_c, 10, 38, 0
11, 120960, Note_on_c, 10, 36, 100
11, 121176, Note_on_c, 10, 36, 0
11, 121200, Note_on_c, 10, 41, 100
11, 121416, Note_on_c, 10, 41, 0
11, 121440, Note_on_c, 10, 48, 100
11, 121656, Note_on_c, 10, 48, 0
11, 121680, Note_on_c, 10, 36, 100
11, 121896, Note_on_c, 10, 36, 0
11, 121920, Note_on_c, 10, 53, 100
11, 122136, Note_on_c, 10, 53, 0
11, 122160, Note_on_c, 10, 52, 100
11, 122376, Note_on_c, 10, 52, 0
11, 122400, Note_on_c, 10, 50, 100
11, 122616, Note_on_c, 10, 50, 0
11, 122640, Note_on_c, 10, 48, 100
11, 122856, Note_on_c, 10, 48, 0
11, 122880, Note_on_c, 10, 47, 100
11, 123096, Note_on_c, 10, 47, 0
11, 123120, Note_on_c, 10, 48, 100
11, 123336, Note_on_c, 10, 48, 0
11, 123360, Note_on_c, 10, 55, 100
11, 123576, Note_on_c, 10, 55, 0
11, 123600, Note_on_c, 10, 43, 100
11, 123816, Note_on_c, 10, 43, 0
11, 123840, Note_on_c, 10, 48, 100
11, 124056, Note_on_c, 10, 48, 0
11, 124080, Note_on_c, 10, 47, 100
11, 124296, Note_on_c, 10, 47, 0
11, 124320, Note_on_c, 10, 45, 100
11, 124536, Note_on_c, 10, 45, 0
11, 124560, Note_on_c, 10, 43, 100
11, 124776, Note_on_c, 10, 43, 0
11, 124800, Note_on_c, 10, 42, 100
11, 125016, Note_on_c, 10, 42, 0
11, 125040, Note_on_c, 10, 43, 100
11, 125256, Note_on_c, 10, 43, 0
11, 125280, Note_on_c, 10, 50, 100
11, 125496, Note_on_c, 10, 50, 0
11, 125520, Note_on_c, 10, 38, 100
11, 125736, Note_on_c, 10, 38, 0
11, 126000, Note_on_c, 10, 43, 100
11, 126108, Note_on_c, 10, 43, 0
11, 126120, Note_on_c, 10, 42, 100
11, 126228, Note_on_c, 10, 42, 0
11, 126240, Note_on_c, 10, 43, 100
11, 126348, Note_on_c, 10, 43, 0
11, 126360, Note_on_c, 10, 45, 100
11, 126468, Note_on_c, 10, 45, 0
11, 126480, Note_on_c, 10, 47, 100
11, 126588, Note_on_c, 10, 47, 0
11, 126600, Note_on_c, 10, 48, 100
11, 126708, Note_on_c, 10, 48, 0
11, 126720, Note_on_c, 10, 50, 100
11, 126828, Note_on_c, 10, 50, 0
11, 126840, Note_on_c, 10, 49, 100
11, 126948, Note_on_c, 10, 49, 0
11, 126960, Note_on_c, 10, 50, 100
11, 127068, Note_on_c, 10, 50, 0
11, 127080, Note_on_c, 10, 52, 100
11, 127188, Note_on_c, 10, 52, 0
11, 127200, Note_on_c, 10, 54, 100
11, 127308, Note_on_c, 10, 54, 0
11, 127320, Note_on_c, 10, 52, 100
11, 127428, Note_on_c, 10, 52, 0
11, 127440, Note_on_c, 10, 54, 100
11, 127548, Note_on_c, 10, 54, 0
11, 127560, Note_on_c, 10, 50, 100
11, 127668, Note_on_c, 10, 50, 0
11, 127680, Note_on_c, 10, 55, 100
11, 127788, Note_on_c, 10, 55, 0
11, 127800, Note_on_c, 10, 54, 100
11, 127908, Note_on_c, 10, 54, 0
11, 127920, Note_on_c, 10, 55, 100
11, 128028, Note_on_c, 10, 55, 0
11, 128040, Note_on_c, 10, 57, 100
11, 128148, Note_on_c, 10, 57, 0
11, 128160, Note_on_c, 10, 55, 100
11, 128268, Note_on_c, 10, 55, 0
11, 128280, Note_on_c, 10, 59, 100
11, 128388, Note_on_c, 10, 59, 0
11, 128400, Note_on_c, 10, 57, 100
11, 128508, Note_on_c, 10, 57, 0
11, 128520, Note_on_c, 10, 55, 100
11, 128628, Note_on_c, 10, 55, 0
11, 128640, Note_on_c, 10, 54, 100
11, 128748, Note_on_c, 10, 54, 0
11, 128760, Note_on_c, 10, 57, 100
11, 128868, Note_on_c, 10, 57, 0
11, 128880, Note_on_c, 10, 50, 100
11, 128988, Note_on_c, 10, 50, 0
11, 129000, Note_on_c, 10, 54, 100
11, 129108, Note_on_c, 10, 54, 0
11, 129120, Note_on_c, 10, 55, 100
11, 129228, Note_on_c, 10, 55, 0
11, 129240, Note_on_c, 10, 59, 100
11, 129348, Note_on_c, 10, 59, 0
11, 129360, Note_on_c, 10, 50, 100
11, 129468, Note_on_c, 10, 50, 0
11, 129480, Note_on_c, 10, 54, 100
11, 129588, Note_on_c, 10, 54, 0
11, 129600, Note_on_c, 10, 52, 100
11, 129708, Note_on_c, 10, 52, 0
11, 129720, Note_on_c, 10, 55, 100
11, 129828, Note_on_c, 10, 55, 0
11, 129840, Note_on_c, 10, 48, 100
11, 129948, Note_on_c, 10, 48, 0
11, 129960, Note_on_c, 10, 52, 100
11, 130068, Note_on_c, 10, 52, 0
11, 130080, Note_on_c, 10, 54, 100
11, 130188, Note_on_c, 10, 54, 0
11, 130200, Note_on_c, 10, 57, 100
11, 130308, Note_on_c, 10, 57, 0
11, 130320, Note_on_c, 10, 48, 100
11, 130428, Note_on_c, 10, 48, 0
11, 130440, Note_on_c, 10, 52, 100
11, 130548, Note_on_c, 10, 52, 0
11, 130560, Note_on_c, 10, 50, 100
11, 130668, Note_on_c, 10, 50, 0
11, 130680, Note_on_c, 10, 54, 100
11, 130788, Note_on_c, 10, 54, 0
11, 130800, Note_on_c, 10, 47, 100
11, 130908, Note_on_c, 10, 47, 0
11, 130920, Note_on_c, 10, 50, 100
11, 131028, Note_on_c, 10, 50, 0
11, 131040, Note_on_c, 10, 52, 100
11, 131148, Note_on_c, 10, 52, 0
11, 131160, Note_on_c, 10, 55, 100
11, 131268, Note_on_c, 10, 55, 0
11, 131280, Note_on_c, 10, 47, 100
11, 131388, Note_on_c, 10, 47, 0
11, 131400, Note_on_c, 10, 50, 100
11, 131508, Note_on_c, 10, 50, 0
11, 131520, Note_on_c, 10, 48, 100
11, 131628, Note_on_c, 10, 48, 0
11, 131640, Note_on_c, 10, 52, 100
11, 131748, Note_on_c, 10, 52, 0
11, 131760, Note_on_c, 10, 45, 100
11, 131868, Note_on_c, 10, 45, 0
11, 131880, Note_on_c, 10, 48, 100
11, 131988, Note_on_c, 10, 48, 0
11, 132000, Note_on_c, 10, 50, 100
11, 132108, Note_on_c, 10, 50, 0
11, 132120, Note_on_c, 10, 54, 100
11, 132228, Note_on_c, 10, 54, 0
11, 132240, Note_on_c, 10, 45, 100
11, 132348, Note_on_c, 10, 45, 0
11, 132360, Note_on_c, 10, 48, 100
11, 132468, Note_on_c, 10, 48, 0
11, 132480, Note_on_c, 10, 47, 100
11, 132588, Note_on_c, 10, 47, 0
11, 132600, Note_on_c, 10, 50, 100
11, 132708, Note_on_c, 10, 50, 0
11, 132720, Note_on_c, 10, 43, 100
11, 132828, Note_on_c, 10, 43, 0
11, 132840, Note_on_c, 10, 47, 100
11, 132948, Note_on_c, 10, 47, 0
11, 132960, Note_on_c, 10, 48, 100
11, 133068, Note_on_c, 10, 48, 0
11, 133080, Note_on_c, 10, 52, 100
11, 133188, Note_on_c, 10, 52, 0
11, 133200, Note_on_c, 10, 43, 100
11, 133308, Note_on_c, 10, 43, 0
11, 133320, Note_on_c, 10, 48, 100
11, 133428, Note_on_c, 10, 48, 0
11, 133440, Note_on_c, 10, 47, 100
11, 133548, Note_on_c, 10, 47, 0
11, 133560, Note_on_c, 10, 50, 100
11, 133668, Note_on_c, 10, 50, 0
11, 133680, Note_on_c, 10, 43, 100
11, 133788, Note_on_c, 10, 43, 0
11, 133800, Note_on_c, 10, 47, 100
11, 133908, Note_on_c, 10, 47, 0
11, 133920, Note_on_c, 10, 48, 100
11, 134028, Note_on_c, 10, 48, 0
11, 134040, Note_on_c, 10, 52, 100
11, 134148, Note_on_c, 10, 52, 0
11, 134160, Note_on_c, 10, 43, 100
11, 134268, Note_on_c, 10, 43, 0
11, 134280, Note_on_c, 10, 48, 100
11, 134388, Note_on_c, 10, 48, 0
11, 134400, Note_on_c, 10, 47, 100
11, 134616, Note_on_c, 10, 47, 0
11, 135360, Note_on_c, 10, 50, 100
11, 135576, Note_on_c, 10, 50, 0
11, 136320, Note_on_c, 10, 47, 100
11, 136536, Note_on_c, 10, 47, 0
11, 137280, Note_on_c, 10, 43, 100
11, 137496, Note_on_c, 10, 43, 0
11, 137520, Note_on_c, 10, 43, 100
11, 137736, Note_on_c, 10, 43, 0
11, 137760, Note_on_c, 10, 43, 100
11, 137976, Note_on_c, 10, 43, 0
11, 138000, Note_on_c, 10, 43, 100
11, 138216, Note_on_c, 10, 43, 0
11, 138240, Note_on_c, 10, 48, 100
11, 138456, Note_on_c, 10, 48, 0
11, 139200, Note_on_c, 10, 43, 100
11, 139416, Note_on_c, 10, 43, 0
11, 140160, Note_on_c, 10, 40, 100
11, 140376, Note_on_c, 10, 40, 0
11, 141120, Note_on_c, 10, 36, 100
11, 141336, Note_on_c, 10, 36, 0
11, 141360, Note_on_c, 10, 36, 100
11, 141576, Note_on_c, 10, 36, 0
11, 141600, Note_on_c, 10, 36, 100
11, 141816, Note_on_c, 10, 36, 0
11, 141840, Note_on_c, 10, 36, 100
11, 142056, Note_on_c, 10, 36, 0
11, 142080, Note_on_c, 10, 41, 100
11, 142296, Note_on_c, 10, 41, 0
11, 143040, Note_on_c, 10, 41, 100
11, 143256, Note_on_c, 10, 41, 0
11, 143280, Note_on_c, 10, 41, 100
11, 143496, Note_on_c, 10, 41, 0
11, 143520, Note_on_c, 10, 41, 100
11, 143736, Note_on_c, 10, 41, 0
11, 143760, Note_on_c, 10, 41, 100
11, 143976, Note_on_c, 10, 41, 0
11, 144000, Note_on_c, 10, 41, 100
11, 144216, Note_on_c, 10, 41, 0
11, 144240, Note_on_c, 10, 41, 100
11, 144456, Note_on_c, 10, 41, 0
11, 144480, Note_on_c, 10, 41, 100
11, 144696, Note_on_c, 10, 41, 0
11, 144720, Note_on_c, 10, 41, 100
11, 144936, Note_on_c, 10, 41, 0
11, 144960, Note_on_c, 10, 41, 100
11, 145176, Note_on_c, 10, 41, 0
11, 145200, Note_on_c, 10, 41, 100
11, 145416, Note_on_c, 10, 41, 0
11, 145440, Note_on_c, 10, 41, 100
11, 145656, Note_on_c, 10, 41, 0
11, 145680, Note_on_c, 10, 41, 100
11, 145896, Note_on_c, 10, 41, 0
11, 145920, Note_on_c, 10, 41, 100
11, 146136, Note_on_c, 10, 41, 0
11, 146160, Note_on_c, 10, 41, 100
11, 146376, Note_on_c, 10, 41, 0
11, 146400, Note_on_c, 10, 41, 100
11, 146616, Note_on_c, 10, 41, 0
11, 146640, Note_on_c, 10, 41, 100
11, 146856, Note_on_c, 10, 41, 0
11, 146880, Note_on_c, 10, 41, 100
11, 147096, Note_on_c, 10, 41, 0
11, 147120, Note_on_c, 10, 56, 100
11, 147336, Note_on_c, 10, 56, 0
11, 147360, Note_on_c, 10, 53, 100
11, 147576, Note_on_c, 10, 53, 0
11, 147600, Note_on_c, 10, 50, 100
11, 147816, Note_on_c, 10, 50, 0
11, 147840, Note_on_c, 10, 47, 100
11, 148056, Note_on_c, 10, 47, 0
11, 148080, Note_on_c, 10, 53, 100
11, 148296, Note_on_c, 10, 53, 0
11, 148320, Note_on_c, 10, 50, 100
11, 148536, Note_on_c, 10, 50, 0
11, 148560, Note_on_c, 10, 47, 100
11, 148776, Note_on_c, 10, 47, 0
11, 148800, Note_on_c, 10, 43, 100
11, 149016, Note_on_c, 10, 43, 0
11, 149040, Note_on_c, 10, 43, 100
11, 149256, Note_on_c, 10, 43, 0
11, 149280, Note_on_c, 10, 43, 100
11, 149496, Note_on_c, 10, 43, 0
11, 149520, Note_on_c, 10, 43, 100
11, 149736, Note_on_c, 10, 43, 0
11, 149760, Note_on_c, 10, 48, 100
11, 149976, Note_on_c, 10, 48, 0
11, 150000, Note_on_c, 10, 48, 100
11, 150216, Note_on_c, 10, 48, 0
11, 150240, Note_on_c, 10, 48, 100
11, 150456, Note_on_c, 10, 48, 0
11, 150480, Note_on_c, 10, 48, 100
11, 150696, Note_on_c, 10, 48, 0
11, 150720, Note_on_c, 10, 44, 100
11, 150936, Note_on_c, 10, 44, 0
11, 150960, Note_on_c, 10, 44, 100
11, 151176, Note_on_c, 10, 44, 0
11, 151200, Note_on_c, 10, 44, 100
11, 151416, Note_on_c, 10, 44, 0
11, 151440, Note_on_c, 10, 44, 100
11, 151656, Note_on_c, 10, 44, 0
11, 151680, Note_on_c, 10, 45, 100
11, 151896, Note_on_c, 10, 45, 0
11, 152640, Note_on_c, 10, 42, 100
11, 152856, Note_on_c, 10, 42, 0
11, 153600, Note_on_c, 10, 38, 100
11, 153816, Note_on_c, 10, 38, 0
11, 153840, Note_on_c, 10, 38, 100
11, 154056, Note_on_c, 10, 38, 0
11, 154080, Note_on_c, 10, 38, 100
11, 154296, Note_on_c, 10, 38, 0
11, 154320, Note_on_c, 10, 38, 100
11, 154536, Note_on_c, 10, 38, 0
11, 154560, Note_on_c, 10, 43, 100
11, 154776, Note_on_c, 10, 43, 0
11, 154800, Note_on_c, 10, 43, 100
11, 155016, Note_on_c, 10, 43, 0
11, 155040, Note_on_c, 10, 43, 100
11, 155256, Note_on_c, 10, 43, 0
11, 155280, Note_on_c, 10, 43, 100
11, 155496, Note_on_c, 10, 43, 0
11, 155520, Note_on_c, 10, 43, 100
11, 155736, Note_on_c, 10, 43, 0
11, 155760, Note_on_c, 10, 43, 100
11, 155976, Note_on_c, 10, 43, 0
11, 156000, Note_on_c, 10, 43, 100
11, 156216, Note_on_c, 10, 43, 0
11, 156240, Note_on_c, 10, 43, 100
11, 156456, Note_on_c, 10, 43, 0
11, 156480, Note_on_c, 10, 43, 100
11, 156696, Note_on_c, 10, 43, 0
11, 156720, Note_on_c, 10, 43, 100
11, 156936, Note_on_c, 10, 43, 0
11, 156960, Note_on_c, 10, 43, 100
11, 157176, Note_on_c, 10, 43, 0
11, 157200, Note_on_c, 10, 43, 100
11, 157416, Note_on_c, 10, 43, 0
11, 157440, Note_on_c, 10, 43, 100
11, 157656, Note_on_c, 10, 43, 0
11, 157680, Note_on_c, 10, 43, 100
11, 157896, Note_on_c, 10, 43, 0
11, 157920, Note_on_c, 10, 43, 100
11, 158136, Note_on_c, 10, 43, 0
11, 158160, Note_on_c, 10, 43, 100
11, 158376, Note_on_c, 10, 43, 0
11, 158400, Note_on_c, 10, 43, 100
11, 158616, Note_on_c, 10, 43, 0
11, 158640, Note_on_c, 10, 43, 100
11, 158856, Note_on_c, 10, 43, 0
11, 158880, Note_on_c, 10, 43, 100
11, 159096, Note_on_c, 10, 43, 0
11, 159120, Note_on_c, 10, 43, 100
11, 159336, Note_on_c, 10, 43, 0
11, 159360, Note_on_c, 10, 43, 100
11, 159576, Note_on_c, 10, 43, 0
11, 159600, Note_on_c, 10, 43, 100
11, 159816, Note_on_c, 10, 43, 0
11, 159840, Note_on_c, 10, 43, 100
11, 160056, Note_on_c, 10, 43, 0
11, 160080, Note_on_c, 10, 43, 100
11, 160296, Note_on_c, 10, 43, 0
11, 160320, Note_on_c, 10, 43, 100
11, 160536, Note_on_c, 10, 43, 0
11, 167040, Note_on_c, 10, 60, 100
11, 167904, Note_on_c, 10, 60, 0
11, 168000, Note_on_c, 10, 59, 100
11, 168864, Note_on_c, 10, 59, 0
11, 168960, Note_on_c, 10, 57, 100
11, 169824, Note_on_c, 10, 57, 0
11, 169920, Note_on_c, 10, 55, 100
11, 170028, Note_on_c, 10, 55, 0
11, 170040, Note_on_c, 10, 57, 100
11, 170148, Note_on_c, 10, 57, 0
11, 170160, Note_on_c, 10, 55, 100
11, 170160, Note_on_c, 10, 55, 100
11, 170268, Note_on_c, 10, 55, 0
11, 170268, Note_on_c, 10, 55, 0
11, 170280, Note_on_c, 10, 53, 100
11, 170280, Note_on_c, 10, 53, 100
11, 170388, Note_on_c, 10, 53, 0
11, 170388, Note_on_c, 10, 53, 0
11, 170400, Note_on_c, 10, 52, 100
11, 170400, Note_on_c, 10, 52, 100
11, 170508, Note_on_c, 10, 52, 0
11, 170508, Note_on_c, 10, 52, 0
11, 170520, Note_on_c, 10, 50, 100
11, 170628, Note_on_c, 10, 50, 0
11, 170640, Note_on_c, 10, 52, 100
11, 170640, Note_on_c, 10, 48, 100
11, 170748, Note_on_c, 10, 52, 0
11, 170760, Note_on_c, 10, 48, 100
11, 170856, Note_on_c, 10, 48, 0
11, 170856, Note_on_c, 10, 48, 0
11, 170880, Note_on_c, 10, 53, 100
11, 170880, Note_on_c, 10, 53, 100
11, 170988, Note_on_c, 10, 53, 0
11, 170988, Note_on_c, 10, 53, 0
11, 171000, Note_on_c, 10, 55, 100
11, 171108, Note_on_c, 10, 55, 0
11, 171120, Note_on_c, 10, 53, 100
11, 171120, Note_on_c, 10, 52, 100
11, 171228, Note_on_c, 10, 53, 0
11, 171240, Note_on_c, 10, 52, 100
11, 171336, Note_on_c, 10, 52, 0
11, 171336, Note_on_c, 10, 52, 0
11, 171360, Note_on_c, 10, 50, 100
11, 171360, Note_on_c, 10, 50, 100
11, 171468, Note_on_c, 10, 50, 0
11, 171468, Note_on_c, 10, 50, 0
11, 171480, Note_on_c, 10, 48, 100
11, 171588, Note_on_c, 10, 48, 0
11, 171600, Note_on_c, 10, 50, 100
11, 171600, Note_on_c, 10, 47, 100
11, 171708, Note_on_c, 10, 50, 0
11, 171720, Note_on_c, 10, 47, 100
11, 171816, Note_on_c, 10, 47, 0
11, 171816, Note_on_c, 10, 47, 0
11, 171840, Note_on_c, 10, 52, 100
11, 171948, Note_on_c, 10, 52, 0
11, 171960, Note_on_c, 10, 53, 100
11, 172068, Note_on_c, 10, 53, 0
11, 172080, Note_on_c, 10, 52, 100
11, 172080, Note_on_c, 10, 52, 100
11, 172188, Note_on_c, 10, 52, 0
11, 172188, Note_on_c, 10, 52, 0
11, 172200, Note_on_c, 10, 50, 100
11, 172200, Note_on_c, 10, 50, 100
11, 172308, Note_on_c, 10, 50, 0
11, 172308, Note_on_c, 10, 50, 0
11, 172320, Note_on_c, 10, 48, 100
11, 172320, Note_on_c, 10, 48, 100
11, 172428, Note_on_c, 10, 48, 0
11, 172428, Note_on_c, 10, 48, 0
11, 172440, Note_on_c, 10, 47, 100
11, 172548, Note_on_c, 10, 47, 0
11, 172560, Note_on_c, 10, 48, 100
11, 172560, Note_on_c, 10, 45, 100
11, 172668, Note_on_c, 10, 48, 0
11, 172680, Note_on_c, 10, 45, 100
11, 172776, Note_on_c, 10, 45, 0
11, 172776, Note_on_c, 10, 45, 0
11, 172800, Note_on_c, 10, 50, 100
11, 172800, Note_on_c, 10, 50, 100
11, 172908, Note_on_c, 10, 50, 0
11, 172908, Note_on_c, 10, 50, 0
11, 172920, Note_on_c, 10, 52, 100
11, 173028, Note_on_c, 10, 52, 0
11, 173040, Note_on_c, 10, 50, 100
11, 173040, Note_on_c, 10, 48, 100
11, 173148, Note_on_c, 10, 50, 0
11, 173160, Note_on_c, 10, 48, 100
11, 173256, Note_on_c, 10, 48, 0
11, 173256, Note_on_c, 10, 48, 0
11, 173280, Note_on_c, 10, 47, 100
11, 173280, Note_on_c, 10, 47, 100
11, 173388, Note_on_c, 10, 47, 0
11, 173388, Note_on_c, 10, 47, 0
11, 173400, Note_on_c, 10, 45, 100
11, 173508, Note_on_c, 10, 45, 0
11, 173520, Note_on_c, 10, 47, 100
11, 173520, Note_on_c, 10, 43, 100
11, 173628, Note_on_c, 10, 47, 0
11, 173640, Note_on_c, 10, 43, 100
11, 173736, Note_on_c, 10, 43, 0
11, 173736, Note_on_c, 10, 43, 0
11, 173760, Note_on_c, 10, 48, 100
11, 173760, Note_on_c, 10, 48, 100
11, 173976, Note_on_c, 10, 48, 0
11, 173976, Note_on_c, 10, 48, 0
11, 174480, Note_on_c, 10, 48, 100
11, 174480, Note_on_c, 10, 48, 100
11, 174696, Note_on_c, 10, 48, 0
11, 174696, Note_on_c, 10, 48, 0
11, 174720, Note_on_c, 10, 48, 100
11, 174936, Note_on_c, 10, 48, 0
11, 174960, Note_on_c, 10, 36, 100
11, 175176, Note_on_c, 10, 36, 0
11, 175440, Note_on_c, 10, 48, 100
11, 175656, Note_on_c, 10, 48, 0
11, 175680, Note_on_c, 10, 48, 100
11, 175896, Note_on_c, 10, 48, 0
11, 176400, Note_on_c, 10, 50, 100
11, 176616, Note_on_c, 10, 50, 0
11, 176640, Note_on_c, 10, 52, 100
11, 176856, Note_on_c, 10, 52, 0
11, 176880, Note_on_c, 10, 53, 100
11, 177096, Note_on_c, 10, 53, 0
11, 177120, Note_on_c, 10, 55, 100
11, 177336, Note_on_c, 10, 55, 0
11, 177360, Note_on_c, 10, 43, 100
11, 177576, Note_on_c, 10, 43, 0
11, 177600, Note_on_c, 10, 48, 100
11, 177816, Note_on_c, 10, 48, 0
11, 177840, Note_on_c, 10, 36, 100
11, 178056, Note_on_c, 10, 36, 0
11, 178080, Note_on_c, 10, 36, 100
11, 178296, Note_on_c, 10, 36, 0
11, 178320, Note_on_c, 10, 48, 100
11, 178536, Note_on_c, 10, 48, 0
11, 178560, Note_on_c, 10, 48, 100
11, 178776, Note_on_c, 10, 48, 0
11, 178800, Note_on_c, 10, 36, 100
11, 179016, Note_on_c, 10, 36, 0
11, 179040, Note_on_c, 10, 36, 100
11, 179256, Note_on_c, 10, 36, 0
11, 179280, Note_on_c, 10, 48, 100
11, 179496, Note_on_c, 10, 48, 0
11, 179520, Note_on_c, 10, 48, 100
11, 179736, Note_on_c, 10, 48, 0
11, 180480, Note_on_c, 10, 36, 100
11, 180696, Note_on_c, 10, 36, 0
11, 181440, Note_on_c, 10, 48, 100
11, 181656, Note_on_c, 10, 48, 0
11, 182400, Note_on_c, 10, 60, 100
11, 182616, Note_on_c, 10, 60, 0
11, 182640, Note_on_c, 10, 53, 100
11, 182856, Note_on_c, 10, 53, 0
11, 182880, Note_on_c, 10, 55, 100
11, 183096, Note_on_c, 10, 55, 0
11, 183120, Note_on_c, 10, 43, 100
11, 183336, Note_on_c, 10, 43, 0
11, 183360, Note_on_c, 10, 36, 100
11, 184224, Note_on_c, 10, 36, 0
11, 184224, End_track
12, 0, Start_track
12, 0, Sequence_number, 0
12, 0, SMPTE_offset, 0, 0, 0, 0, 0
12, 0, MIDI_port, 0
12, 0, Control_c, 10, 0, 0
12, 0, Control_c, 10, 32, 0
12, 0, Control_c, 10, 7, 100
12, 0, Program_c, 10, 48
12, 0, Control_c, 10, 10, 105
12, 0, Note_on_c, 10, 48, 100
12, 864, Note_on_c, 10, 48, 0
12, 960, Note_on_c, 10, 47, 100
12, 1824, Note_on_c, 10, 47, 0
12, 1920, Note_on_c, 10, 45, 100
12, 2784, Note_on_c, 10, 45, 0
12, 2880, Note_on_c, 10, 43, 100
12, 3096, Note_on_c, 10, 43, 0
12, 3120, Note_on_c, 10, 43, 100
12, 3120, Note_on_c, 10, 43, 100
12, 3228, Note_on_c, 10, 43, 0
12, 3228, Note_on_c, 10, 43, 0
12, 3240, Note_on_c, 10, 41, 100
12, 3240, Note_on_c, 10, 41, 100
12, 3348, Note_on_c, 10, 41, 0
12, 3348, Note_on_c, 10, 41, 0
12, 3360, Note_on_c, 10, 40, 100
12, 3360, Note_on_c, 10, 40, 100
12, 3576, Note_on_c, 10, 40, 0
12, 3576, Note_on_c, 10, 40, 0
12, 3600, Note_on_c, 10, 36, 100
12, 3600, Note_on_c, 10, 36, 100
12, 3816, Note_on_c, 10, 36, 0
12, 3816, Note_on_c, 10, 36, 0
12, 3840, Note_on_c, 10, 41, 100
12, 4056, Note_on_c, 10, 41, 0
12, 4080, Note_on_c, 10, 40, 100
12, 4296, Note_on_c, 10, 40, 0
12, 4320, Note_on_c, 10, 38, 100
12, 4536, Note_on_c, 10, 38, 0
12, 4560, Note_on_c, 10, 35, 100
12, 4776, Note_on_c, 10, 35, 0
12, 5040, Note_on_c, 10, 40, 100
12, 5148, Note_on_c, 10, 40, 0
12, 5160, Note_on_c, 10, 38, 100
12, 5268, Note_on_c, 10, 38, 0
12, 5280, Note_on_c, 10, 36, 100
12, 5496, Note_on_c, 10, 36, 0
12, 5520, Note_on_c, 10, 33, 100
12, 5736, Note_on_c, 10, 33, 0
12, 5760, Note_on_c, 10, 38, 100
12, 5976, Note_on_c, 10, 38, 0
12, 6000, Note_on_c, 10, 36, 100
12, 6216, Note_on_c, 10, 36, 0
12, 6240, Note_on_c, 10, 35, 100
12, 6456, Note_on_c, 10, 35, 0
12, 6480, Note_on_c, 10, 31, 100
12, 6696, Note_on_c, 10, 31, 0
12, 6720, Note_on_c, 10, 36, 100
12, 6936, Note_on_c, 10, 36, 0
12, 7440, Note_on_c, 10, 36, 100
12, 7656, Note_on_c, 10, 36, 0
12, 7680, Note_on_c, 10, 36, 100
12, 7896, Note_on_c, 10, 36, 0
12, 7920, Note_on_c, 10, 24, 100
12, 8136, Note_on_c, 10, 24, 0
12, 8400, Note_on_c, 10, 36, 100
12, 8616, Note_on_c, 10, 36, 0
12, 8640, Note_on_c, 10, 36, 100
12, 8856, Note_on_c, 10, 36, 0
12, 8880, Note_on_c, 10, 24, 100
12, 9096, Note_on_c, 10, 24, 0
12, 9360, Note_on_c, 10, 33, 100
12, 9576, Note_on_c, 10, 33, 0
12, 9600, Note_on_c, 10, 38, 100
12, 9816, Note_on_c, 10, 38, 0
12, 9840, Note_on_c, 10, 26, 100
12, 10056, Note_on_c, 10, 26, 0
12, 10320, Note_on_c, 10, 35, 100
12, 10536, Note_on_c, 10, 35, 0
12, 10560, Note_on_c, 10, 40, 100
12, 10776, Note_on_c, 10, 40, 0
12, 10800, Note_on_c, 10, 28, 100
12, 11016, Note_on_c, 10, 28, 0
12, 11280, Note_on_c, 10, 40, 100
12, 11496, Note_on_c, 10, 40, 0
12, 11520, Note_on_c, 10, 42, 100
12, 11736, Note_on_c, 10, 42, 0
12, 11760, Note_on_c, 10, 30, 100
12, 11976, Note_on_c, 10, 30, 0
12, 12240, Note_on_c, 10, 38, 100
12, 12456, Note_on_c, 10, 38, 0
12, 12480, Note_on_c, 10, 43, 100
12, 13344, Note_on_c, 10, 43, 0
12, 13440, Note_on_c, 10, 42, 100
12, 14304, Note_on_c, 10, 42, 0
12, 14400, Note_on_c, 10, 40, 100
12, 15264, Note_on_c, 10, 40, 0
12, 15360, Note_on_c, 10, 38, 100
12, 15468, Note_on_c, 10, 38, 0
12, 15480, Note_on_c, 10, 40, 100
12, 15588, Note_on_c, 10, 40, 0
12, 15600, Note_on_c, 10, 38, 100
12, 15708, Note_on_c, 10, 38, 0
12, 15720, Note_on_c, 10, 36, 100
12, 15828, Note_on_c, 10, 36, 0
12, 15840, Note_on_c, 10, 35, 100
12, 16056, Note_on_c, 10, 35, 0
12, 16080, Note_on_c, 10, 31, 100
12, 16296, Note_on_c, 10, 31, 0
12, 16320, Note_on_c, 10, 36, 100
12, 16536, Note_on_c, 10, 36, 0
12, 16560, Note_on_c, 10, 35, 100
12, 16776, Note_on_c, 10, 35, 0
12, 16800, Note_on_c, 10, 33, 100
12, 17016, Note_on_c, 10, 33, 0
12, 17040, Note_on_c, 10, 30, 100
12, 17256, Note_on_c, 10, 30, 0
12, 17520, Note_on_c, 10, 35, 100
12, 17628, Note_on_c, 10, 35, 0
12, 17640, Note_on_c, 10, 33, 100
12, 17748, Note_on_c, 10, 33, 0
12, 17760, Note_on_c, 10, 31, 100
12, 17976, Note_on_c, 10, 31, 0
12, 18000, Note_on_c, 10, 28, 100
12, 18216, Note_on_c, 10, 28, 0
12, 18240, Note_on_c, 10, 33, 100
12, 18456, Note_on_c, 10, 33, 0
12, 18480, Note_on_c, 10, 31, 100
12, 18696, Note_on_c, 10, 31, 0
12, 18720, Note_on_c, 10, 30, 100
12, 18936, Note_on_c, 10, 30, 0
12, 18960, Note_on_c, 10, 26, 100
12, 19176, Note_on_c, 10, 26, 0
12, 19200, Note_on_c, 10, 31, 100
12, 19416, Note_on_c, 10, 31, 0
12, 19920, Note_on_c, 10, 43, 100
12, 20136, Note_on_c, 10, 43, 0
12, 20160, Note_on_c, 10, 43, 100
12, 20376, Note_on_c, 10, 43, 0
12, 20400, Note_on_c, 10, 31, 100
12, 20616, Note_on_c, 10, 31, 0
12, 20880, Note_on_c, 10, 43, 100
12, 21096, Note_on_c, 10, 43, 0
12, 21120, Note_on_c, 10, 43, 100
12, 21336, Note_on_c, 10, 43, 0
12, 21360, Note_on_c, 10, 41, 100
12, 21576, Note_on_c, 10, 41, 0
12, 21600, Note_on_c, 10, 40, 100
12, 21816, Note_on_c, 10, 40, 0
12, 21840, Note_on_c, 10, 38, 100
12, 22056, Note_on_c, 10, 38, 0
12, 22080, Note_on_c, 10, 37, 100
12, 22296, Note_on_c, 10, 37, 0
12, 22320, Note_on_c, 10, 38, 100
12, 22536, Note_on_c, 10, 38, 0
12, 22560, Note_on_c, 10, 45, 100
12, 22776, Note_on_c, 10, 45, 0
12, 22800, Note_on_c, 10, 33, 100
12, 23016, Note_on_c, 10, 33, 0
12, 23040, Note_on_c, 10, 26, 100
12, 23256, Note_on_c, 10, 26, 0
12, 23280, Note_on_c, 10, 33, 100
12, 23496, Note_on_c, 10, 33, 0
12, 23520, Note_on_c, 10, 38, 100
12, 23736, Note_on_c, 10, 38, 0
12, 23760, Note_on_c, 10, 36, 100
12, 23976, Note_on_c, 10, 36, 0
12, 24000, Note_on_c, 10, 35, 100
12, 24216, Note_on_c, 10, 35, 0
12, 24240, Note_on_c, 10, 36, 100
12, 24456, Note_on_c, 10, 36, 0
12, 24480, Note_on_c, 10, 43, 100
12, 24696, Note_on_c, 10, 43, 0
12, 24720, Note_on_c, 10, 31, 100
12, 24936, Note_on_c, 10, 31, 0
12, 24960, Note_on_c, 10, 36, 100
12, 25176, Note_on_c, 10, 36, 0
12, 25200, Note_on_c, 10, 35, 100
12, 25416, Note_on_c, 10, 35, 0
12, 25440, Note_on_c, 10, 33, 100
12, 25656, Note_on_c, 10, 33, 0
12, 25680, Note_on_c, 10, 31, 100
12, 25896, Note_on_c, 10, 31, 0
12, 25920, Note_on_c, 10, 30, 100
12, 26136, Note_on_c, 10, 30, 0
12, 26160, Note_on_c, 10, 31, 100
12, 26376, Note_on_c, 10, 31, 0
12, 26400, Note_on_c, 10, 38, 100
12, 26616, Note_on_c, 10, 38, 0
12, 26640, Note_on_c, 10, 26, 100
12, 26856, Note_on_c, 10, 26, 0
12, 26880, Note_on_c, 10, 31, 100
12, 27096, Note_on_c, 10, 31, 0
12, 27120, Note_on_c, 10, 43, 100
12, 27228, Note_on_c, 10, 43, 0
12, 27240, Note_on_c, 10, 41, 100
12, 27348, Note_on_c, 10, 41, 0
12, 27360, Note_on_c, 10, 40, 100
12, 27576, Note_on_c, 10, 40, 0
12, 27600, Note_on_c, 10, 36, 100
12, 27816, Note_on_c, 10, 36, 0
12, 27840, Note_on_c, 10, 41, 100
12, 28056, Note_on_c, 10, 41, 0
12, 28080, Note_on_c, 10, 40, 100
12, 28296, Note_on_c, 10, 40, 0
12, 28320, Note_on_c, 10, 38, 100
12, 28536, Note_on_c, 10, 38, 0
12, 28560, Note_on_c, 10, 35, 100
12, 28776, Note_on_c, 10, 35, 0
12, 29040, Note_on_c, 10, 40, 100
12, 29148, Note_on_c, 10, 40, 0
12, 29160, Note_on_c, 10, 38, 100
12, 29268, Note_on_c, 10, 38, 0
12, 29280, Note_on_c, 10, 36, 100
12, 29496, Note_on_c, 10, 36, 0
12, 29520, Note_on_c, 10, 33, 100
12, 29736, Note_on_c, 10, 33, 0
12, 29760, Note_on_c, 10, 38, 100
12, 29976, Note_on_c, 10, 38, 0
12, 30000, Note_on_c, 10, 36, 100
12, 30216, Note_on_c, 10, 36, 0
12, 30240, Note_on_c, 10, 35, 100
12, 30456, Note_on_c, 10, 35, 0
12, 30480, Note_on_c, 10, 31, 100
12, 30696, Note_on_c, 10, 31, 0
12, 30720, Note_on_c, 10, 36, 100
12, 30936, Note_on_c, 10, 36, 0
12, 30960, Note_on_c, 10, 24, 100
12, 31176, Note_on_c, 10, 24, 0
12, 31200, Note_on_c, 10, 24, 100
12, 31416, Note_on_c, 10, 24, 0
12, 31440, Note_on_c, 10, 36, 100
12, 31656, Note_on_c, 10, 36, 0
12, 31680, Note_on_c, 10, 36, 100
12, 31896, Note_on_c, 10, 36, 0
12, 31920, Note_on_c, 10, 24, 100
12, 32136, Note_on_c, 10, 24, 0
12, 32160, Note_on_c, 10, 24, 100
12, 32376, Note_on_c, 10, 24, 0
12, 32400, Note_on_c, 10, 36, 100
12, 32616, Note_on_c, 10, 36, 0
12, 32640, Note_on_c, 10, 36, 100
12, 33504, Note_on_c, 10, 36, 0
12, 33600, Note_on_c, 10, 35, 100
12, 34464, Note_on_c, 10, 35, 0
12, 34560, Note_on_c, 10, 33, 100
12, 35424, Note_on_c, 10, 33, 0
12, 35520, Note_on_c, 10, 31, 100
12, 35628, Note_on_c, 10, 31, 0
12, 35640, Note_on_c, 10, 35, 100
12, 35748, Note_on_c, 10, 35, 0
12, 35760, Note_on_c, 10, 36, 100
12, 35868, Note_on_c, 10, 36, 0
12, 35880, Note_on_c, 10, 38, 100
12, 35988, Note_on_c, 10, 38, 0
12, 36000, Note_on_c, 10, 40, 100
12, 36216, Note_on_c, 10, 40, 0
12, 36240, Note_on_c, 10, 40, 100
12, 36456, Note_on_c, 10, 40, 0
12, 36480, Note_on_c, 10, 40, 100
12, 36696, Note_on_c, 10, 40, 0
12, 36720, Note_on_c, 10, 38, 100
12, 36828, Note_on_c, 10, 38, 0
12, 36840, Note_on_c, 10, 36, 100
12, 36948, Note_on_c, 10, 36, 0
12, 36960, Note_on_c, 10, 38, 100
12, 37176, Note_on_c, 10, 38, 0
12, 37200, Note_on_c, 10, 38, 100
12, 37416, Note_on_c, 10, 38, 0
12, 37440, Note_on_c, 10, 38, 100
12, 37548, Note_on_c, 10, 38, 0
12, 37560, Note_on_c, 10, 31, 100
12, 37668, Note_on_c, 10, 31, 0
12, 37680, Note_on_c, 10, 33, 100
12, 37788, Note_on_c, 10, 33, 0
12, 37800, Note_on_c, 10, 35, 100
12, 37908, Note_on_c, 10, 35, 0
12, 37920, Note_on_c, 10, 36, 100
12, 38616, Note_on_c, 10, 36, 0
12, 38640, Note_on_c, 10, 35, 100
12, 38748, Note_on_c, 10, 35, 0
12, 38760, Note_on_c, 10, 33, 100
12, 38868, Note_on_c, 10, 33, 0
12, 38880, Note_on_c, 10, 35, 100
12, 39096, Note_on_c, 10, 35, 0
12, 39120, Note_on_c, 10, 31, 100
12, 39336, Note_on_c, 10, 31, 0
12, 39360, Note_on_c, 10, 36, 100
12, 39576, Note_on_c, 10, 36, 0
12, 39600, Note_on_c, 10, 48, 100
12, 40032, Note_on_c, 10, 48, 0
12, 40080, Note_on_c, 10, 47, 100
12, 40296, Note_on_c, 10, 47, 0
12, 40320, Note_on_c, 10, 45, 100
12, 40536, Note_on_c, 10, 45, 0
12, 40560, Note_on_c, 10, 33, 100
12, 40776, Note_on_c, 10, 33, 0
12, 40800, Note_on_c, 10, 34, 100
12, 41016, Note_on_c, 10, 34, 0
12, 41040, Note_on_c, 10, 36, 100
12, 41256, Note_on_c, 10, 36, 0
12, 41280, Note_on_c, 10, 29, 100
12, 41496, Note_on_c, 10, 29, 0
12, 41520, Note_on_c, 10, 41, 100
12, 41952, Note_on_c, 10, 41, 0
12, 42000, Note_on_c, 10, 40, 100
12, 42216, Note_on_c, 10, 40, 0
12, 42240, Note_on_c, 10, 38, 100
12, 42456, Note_on_c, 10, 38, 0
12, 42480, Note_on_c, 10, 35, 100
12, 42696, Note_on_c, 10, 35, 0
12, 42720, Note_on_c, 10, 36, 100
12, 42936, Note_on_c, 10, 36, 0
12, 42960, Note_on_c, 10, 38, 100
12, 43176, Note_on_c, 10, 38, 0
12, 43200, Note_on_c, 10, 31, 100
12, 43416, Note_on_c, 10, 31, 0
12, 43440, Note_on_c, 10, 43, 100
12, 43872, Note_on_c, 10, 43, 0
12, 43920, Note_on_c, 10, 41, 100
12, 44136, Note_on_c, 10, 41, 0
12, 44160, Note_on_c, 10, 40, 100
12, 44376, Note_on_c, 10, 40, 0
12, 44400, Note_on_c, 10, 36, 100
12, 44616, Note_on_c, 10, 36, 0
12, 44640, Note_on_c, 10, 38, 100
12, 44856, Note_on_c, 10, 38, 0
12, 44880, Note_on_c, 10, 40, 100
12, 45096, Note_on_c, 10, 40, 0
12, 45120, Note_on_c, 10, 41, 100
12, 45228, Note_on_c, 10, 41, 0
12, 45240, Note_on_c, 10, 40, 100
12, 45348, Note_on_c, 10, 40, 0
12, 45360, Note_on_c, 10, 41, 100
12, 45468, Note_on_c, 10, 41, 0
12, 45480, Note_on_c, 10, 43, 100
12, 45588, Note_on_c, 10, 43, 0
12, 45600, Note_on_c, 10, 41, 100
12, 45708, Note_on_c, 10, 41, 0
12, 45720, Note_on_c, 10, 45, 100
12, 45828, Note_on_c, 10, 45, 0
12, 45840, Note_on_c, 10, 38, 100
12, 45948, Note_on_c, 10, 38, 0
12, 45960, Note_on_c, 10, 41, 100
12, 46068, Note_on_c, 10, 41, 0
12, 46080, Note_on_c, 10, 40, 100
12, 46188, Note_on_c, 10, 40, 0
12, 46200, Note_on_c, 10, 41, 100
12, 46308, Note_on_c, 10, 41, 0
12, 46320, Note_on_c, 10, 35, 100
12, 46428, Note_on_c, 10, 35, 0
12, 46440, Note_on_c, 10, 38, 100
12, 46548, Note_on_c, 10, 38, 0
12, 46560, Note_on_c, 10, 36, 100
12, 46668, Note_on_c, 10, 36, 0
12, 46680, Note_on_c, 10, 40, 100
12, 46788, Note_on_c, 10, 40, 0
12, 46800, Note_on_c, 10, 33, 100
12, 46908, Note_on_c, 10, 33, 0
12, 46920, Note_on_c, 10, 36, 100
12, 47028, Note_on_c, 10, 36, 0
12, 47040, Note_on_c, 10, 38, 100
12, 47148, Note_on_c, 10, 38, 0
12, 47160, Note_on_c, 10, 41, 100
12, 47268, Note_on_c, 10, 41, 0
12, 47280, Note_on_c, 10, 33, 100
12, 47388, Note_on_c, 10, 33, 0
12, 47400, Note_on_c, 10, 36, 100
12, 47508, Note_on_c, 10, 36, 0
12, 47520, Note_on_c, 10, 35, 100
12, 47628, Note_on_c, 10, 35, 0
12, 47640, Note_on_c, 10, 38, 100
12, 47748, Note_on_c, 10, 38, 0
12, 47760, Note_on_c, 10, 31, 100
12, 47868, Note_on_c, 10, 31, 0
12, 47880, Note_on_c, 10, 35, 100
12, 47988, Note_on_c, 10, 35, 0
12, 48000, Note_on_c, 10, 36, 100
12, 48108, Note_on_c, 10, 36, 0
12, 48120, Note_on_c, 10, 40, 100
12, 48228, Note_on_c, 10, 40, 0
12, 48240, Note_on_c, 10, 31, 100
12, 48348, Note_on_c, 10, 31, 0
12, 48360, Note_on_c, 10, 35, 100
12, 48468, Note_on_c, 10, 35, 0
12, 48480, Note_on_c, 10, 33, 100
12, 48588, Note_on_c, 10, 33, 0
12, 48600, Note_on_c, 10, 36, 100
12, 48708, Note_on_c, 10, 36, 0
12, 48720, Note_on_c, 10, 29, 100
12, 48828, Note_on_c, 10, 29, 0
12, 48840, Note_on_c, 10, 33, 100
12, 48948, Note_on_c, 10, 33, 0
12, 48960, Note_on_c, 10, 35, 100
12, 49068, Note_on_c, 10, 35, 0
12, 49080, Note_on_c, 10, 38, 100
12, 49188, Note_on_c, 10, 38, 0
12, 49200, Note_on_c, 10, 30, 100
12, 49308, Note_on_c, 10, 30, 0
12, 49320, Note_on_c, 10, 33, 100
12, 49428, Note_on_c, 10, 33, 0
12, 49440, Note_on_c, 10, 32, 100
12, 49656, Note_on_c, 10, 32, 0
12, 49680, Note_on_c, 10, 28, 100
12, 49896, Note_on_c, 10, 28, 0
12, 49920, Note_on_c, 10, 33, 100
12, 50136, Note_on_c, 10, 33, 0
12, 50640, Note_on_c, 10, 45, 100
12, 50856, Note_on_c, 10, 45, 0
12, 50880, Note_on_c, 10, 45, 100
12, 51096, Note_on_c, 10, 45, 0
12, 51120, Note_on_c, 10, 33, 100
12, 51336, Note_on_c, 10, 33, 0
12, 51600, Note_on_c, 10, 45, 100
12, 51816, Note_on_c, 10, 45, 0
12, 51840, Note_on_c, 10, 45, 100
12, 52056, Note_on_c, 10, 45, 0
12, 52080, Note_on_c, 10, 33, 100
12, 52188, Note_on_c, 10, 33, 0
12, 52200, Note_on_c, 10, 32, 100
12, 52308, Note_on_c, 10, 32, 0
12, 52320, Note_on_c, 10, 33, 100
12, 52428, Note_on_c, 10, 33, 0
12, 52440, Note_on_c, 10, 35, 100
12, 52548, Note_on_c, 10, 35, 0
12, 52560, Note_on_c, 10, 33, 100
12, 52668, Note_on_c, 10, 33, 0
12, 52680, Note_on_c, 10, 35, 100
12, 52788, Note_on_c, 10, 35, 0
12, 52800, Note_on_c, 10, 36, 100
12, 52908, Note_on_c, 10, 36, 0
12, 52920, Note_on_c, 10, 38, 100
12, 53028, Note_on_c, 10, 38, 0
12, 53040, Note_on_c, 10, 36, 100
12, 53148, Note_on_c, 10, 36, 0
12, 53160, Note_on_c, 10, 38, 100
12, 53268, Note_on_c, 10, 38, 0
12, 53280, Note_on_c, 10, 40, 100
12, 53496, Note_on_c, 10, 40, 0
12, 53520, Note_on_c, 10, 28, 100
12, 53736, Note_on_c, 10, 28, 0
12, 53760, Note_on_c, 10, 33, 100
12, 53976, Note_on_c, 10, 33, 0
12, 54000, Note_on_c, 10, 45, 100
12, 54108, Note_on_c, 10, 45, 0
12, 54120, Note_on_c, 10, 43, 100
12, 54228, Note_on_c, 10, 43, 0
12, 54240, Note_on_c, 10, 41, 100
12, 54348, Note_on_c, 10, 41, 0
12, 54360, Note_on_c, 10, 38, 100
12, 54468, Note_on_c, 10, 38, 0
12, 54480, Note_on_c, 10, 41, 100
12, 54588, Note_on_c, 10, 41, 0
12, 54600, Note_on_c, 10, 38, 100
12, 54708, Note_on_c, 10, 38, 0
12, 54720, Note_on_c, 10, 45, 100
12, 54936, Note_on_c, 10, 45, 0
12, 54960, Note_on_c, 10, 33, 100
12, 55068, Note_on_c, 10, 33, 0
12, 55080, Note_on_c, 10, 31, 100
12, 55188, Note_on_c, 10, 31, 0
12, 55200, Note_on_c, 10, 29, 100
12, 55308, Note_on_c, 10, 29, 0
12, 55320, Note_on_c, 10, 26, 100
12, 55428, Note_on_c, 10, 26, 0
12, 55440, Note_on_c, 10, 29, 100
12, 55548, Note_on_c, 10, 29, 0
12, 55560, Note_on_c, 10, 26, 100
12, 55668, Note_on_c, 10, 26, 0
12, 55680, Note_on_c, 10, 33, 100
12, 55896, Note_on_c, 10, 33, 0
12, 55920, Note_on_c, 10, 45, 100
12, 56136, Note_on_c, 10, 45, 0
12, 56400, Note_on_c, 10, 45, 100
12, 56508, Note_on_c, 10, 45, 0
12, 56520, Note_on_c, 10, 47, 100
12, 56628, Note_on_c, 10, 47, 0
12, 56640, Note_on_c, 10, 48, 100
12, 56856, Note_on_c, 10, 48, 0
12, 56880, Note_on_c, 10, 45, 100
12, 57096, Note_on_c, 10, 45, 0
12, 57120, Note_on_c, 10, 47, 100
12, 57336, Note_on_c, 10, 47, 0
12, 57360, Note_on_c, 10, 35, 100
12, 57576, Note_on_c, 10, 35, 0
12, 57600, Note_on_c, 10, 28, 100
12, 57816, Note_on_c, 10, 28, 0
12, 58320, Note_on_c, 10, 43, 100
12, 58428, Note_on_c, 10, 43, 0
12, 58440, Note_on_c, 10, 45, 100
12, 58548, Note_on_c, 10, 45, 0
12, 58560, Note_on_c, 10, 46, 100
12, 58776, Note_on_c, 10, 46, 0
12, 58800, Note_on_c, 10, 43, 100
12, 59016, Note_on_c, 10, 43, 0
12, 59040, Note_on_c, 10, 45, 100
12, 59256, Note_on_c, 10, 45, 0
12, 59280, Note_on_c, 10, 33, 100
12, 59496, Note_on_c, 10, 33, 0
12, 59520, Note_on_c, 10, 26, 100
12, 59736, Note_on_c, 10, 26, 0
12, 60240, Note_on_c, 10, 41, 100
12, 60348, Note_on_c, 10, 41, 0
12, 60360, Note_on_c, 10, 43, 100
12, 60468, Note_on_c, 10, 43, 0
12, 60480, Note_on_c, 10, 45, 100
12, 60696, Note_on_c, 10, 45, 0
12, 60720, Note_on_c, 10, 41, 100
12, 60936, Note_on_c, 10, 41, 0
12, 60960, Note_on_c, 10, 43, 100
12, 61176, Note_on_c, 10, 43, 0
12, 61200, Note_on_c, 10, 31, 100
12, 61416, Note_on_c, 10, 31, 0
12, 61440, Note_on_c, 10, 24, 100
12, 61656, Note_on_c, 10, 24, 0
12, 62160, Note_on_c, 10, 48, 100
12, 62268, Note_on_c, 10, 48, 0
12, 62280, Note_on_c, 10, 50, 100
12, 62388, Note_on_c, 10, 50, 0
12, 62400, Note_on_c, 10, 52, 100
12, 62616, Note_on_c, 10, 52, 0
12, 62640, Note_on_c, 10, 40, 100
12, 62856, Note_on_c, 10, 40, 0
12, 62880, Note_on_c, 10, 45, 100
12, 63096, Note_on_c, 10, 45, 0
12, 63120, Note_on_c, 10, 49, 100
12, 63336, Note_on_c, 10, 49, 0
12, 63360, Note_on_c, 10, 50, 100
12, 63576, Note_on_c, 10, 50, 0
12, 63600, Note_on_c, 10, 38, 100
12, 63816, Note_on_c, 10, 38, 0
12, 63840, Note_on_c, 10, 43, 100
12, 64056, Note_on_c, 10, 43, 0
12, 64080, Note_on_c, 10, 47, 100
12, 64296, Note_on_c, 10, 47, 0
12, 64320, Note_on_c, 10, 48, 100
12, 64536, Note_on_c, 10, 48, 0
12, 64560, Note_on_c, 10, 36, 100
12, 64776, Note_on_c, 10, 36, 0
12, 64800, Note_on_c, 10, 41, 100
12, 65016, Note_on_c, 10, 41, 0
12, 65040, Note_on_c, 10, 45, 100
12, 65256, Note_on_c, 10, 45, 0
12, 65280, Note_on_c, 10, 47, 100
12, 65496, Note_on_c, 10, 47, 0
12, 65520, Note_on_c, 10, 35, 100
12, 65736, Note_on_c, 10, 35, 0
12, 65760, Note_on_c, 10, 40, 100
12, 65976, Note_on_c, 10, 40, 0
12, 66000, Note_on_c, 10, 44, 100
12, 66216, Note_on_c, 10, 44, 0
12, 66240, Note_on_c, 10, 45, 100
12, 66456, Note_on_c, 10, 45, 0
12, 66480, Note_on_c, 10, 33, 100
12, 66588, Note_on_c, 10, 33, 0
12, 66600, Note_on_c, 10, 35, 100
12, 66708, Note_on_c, 10, 35, 0
12, 66720, Note_on_c, 10, 36, 100
12, 66828, Note_on_c, 10, 36, 0
12, 66840, Note_on_c, 10, 35, 100
12, 66948, Note_on_c, 10, 35, 0
12, 66960, Note_on_c, 10, 36, 100
12, 67068, Note_on_c, 10, 36, 0
12, 67080, Note_on_c, 10, 38, 100
12, 67188, Note_on_c, 10, 38, 0
12, 67200, Note_on_c, 10, 40, 100
12, 67308, Note_on_c, 10, 40, 0
12, 67320, Note_on_c, 10, 39, 100
12, 67428, Note_on_c, 10, 39, 0
12, 67440, Note_on_c, 10, 40, 100
12, 67548, Note_on_c, 10, 40, 0
12, 67560, Note_on_c, 10, 42, 100
12, 67668, Note_on_c, 10, 42, 0
12, 67680, Note_on_c, 10, 43, 100
12, 67788, Note_on_c, 10, 43, 0
12, 67800, Note_on_c, 10, 42, 100
12, 67908, Note_on_c, 10, 42, 0
12, 67920, Note_on_c, 10, 43, 100
12, 68028, Note_on_c, 10, 43, 0
12, 68040, Note_on_c, 10, 45, 100
12, 68148, Note_on_c, 10, 45, 0
12, 68160, Note_on_c, 10, 47, 100
12, 68268, Note_on_c, 10, 47, 0
12, 68280, Note_on_c, 10, 45, 100
12, 68388, Note_on_c, 10, 45, 0
12, 68400, Note_on_c, 10, 47, 100
12, 68508, Note_on_c, 10, 47, 0
12, 68520, Note_on_c, 10, 48, 100
12, 68628, Note_on_c, 10, 48, 0
12, 68640, Note_on_c, 10, 50, 100
12, 68748, Note_on_c, 10, 50, 0
12, 68760, Note_on_c, 10, 48, 100
12, 68868, Note_on_c, 10, 48, 0
12, 68880, Note_on_c, 10, 50, 100
12, 68988, Note_on_c, 10, 50, 0
12, 69000, Note_on_c, 10, 47, 100
12, 69108, Note_on_c, 10, 47, 0
12, 69120, Note_on_c, 10, 52, 100
12, 69228, Note_on_c, 10, 52, 0
12, 69240, Note_on_c, 10, 50, 100
12, 69348, Note_on_c, 10, 50, 0
12, 69360, Note_on_c, 10, 52, 100
12, 69468, Note_on_c, 10, 52, 0
12, 69480, Note_on_c, 10, 53, 100
12, 69588, Note_on_c, 10, 53, 0
12, 69600, Note_on_c, 10, 52, 100
12, 69708, Note_on_c, 10, 52, 0
12, 69720, Note_on_c, 10, 50, 100
12, 69828, Note_on_c, 10, 50, 0
12, 69840, Note_on_c, 10, 48, 100
12, 69948, Note_on_c, 10, 48, 0
12, 69960, Note_on_c, 10, 47, 100
12, 70068, Note_on_c, 10, 47, 0
12, 70080, Note_on_c, 10, 45, 100
12, 70188, Note_on_c, 10, 45, 0
12, 70200, Note_on_c, 10, 43, 100
12, 70308, Note_on_c, 10, 43, 0
12, 70320, Note_on_c, 10, 45, 100
12, 70428, Note_on_c, 10, 45, 0
12, 70440, Note_on_c, 10, 46, 100
12, 70548, Note_on_c, 10, 46, 0
12, 70560, Note_on_c, 10, 45, 100
12, 70668, Note_on_c, 10, 45, 0
12, 70680, Note_on_c, 10, 43, 100
12, 70788, Note_on_c, 10, 43, 0
12, 70800, Note_on_c, 10, 41, 100
12, 70908, Note_on_c, 10, 41, 0
12, 70920, Note_on_c, 10, 40, 100
12, 71028, Note_on_c, 10, 40, 0
12, 71040, Note_on_c, 10, 38, 100
12, 71148, Note_on_c, 10, 38, 0
12, 71160, Note_on_c, 10, 36, 100
12, 71268, Note_on_c, 10, 36, 0
12, 71280, Note_on_c, 10, 38, 100
12, 71388, Note_on_c, 10, 38, 0
12, 71400, Note_on_c, 10, 40, 100
12, 71508, Note_on_c, 10, 40, 0
12, 71520, Note_on_c, 10, 38, 100
12, 71628, Note_on_c, 10, 38, 0
12, 71640, Note_on_c, 10, 36, 100
12, 71748, Note_on_c, 10, 36, 0
12, 71760, Note_on_c, 10, 35, 100
12, 71868, Note_on_c, 10, 35, 0
12, 71880, Note_on_c, 10, 33, 100
12, 71988, Note_on_c, 10, 33, 0
12, 72000, Note_on_c, 10, 43, 100
12, 72108, Note_on_c, 10, 43, 0
12, 72120, Note_on_c, 10, 41, 100
12, 72228, Note_on_c, 10, 41, 0
12, 72240, Note_on_c, 10, 43, 100
12, 72348, Note_on_c, 10, 43, 0
12, 72360, Note_on_c, 10, 45, 100
12, 72468, Note_on_c, 10, 45, 0
12, 72480, Note_on_c, 10, 43, 100
12, 72588, Note_on_c, 10, 43, 0
12, 72600, Note_on_c, 10, 41, 100
12, 72708, Note_on_c, 10, 41, 0
12, 72720, Note_on_c, 10, 40, 100
12, 72828, Note_on_c, 10, 40, 0
12, 72840, Note_on_c, 10, 38, 100
12, 72948, Note_on_c, 10, 38, 0
12, 72960, Note_on_c, 10, 36, 100
12, 73068, Note_on_c, 10, 36, 0
12, 73080, Note_on_c, 10, 35, 100
12, 73188, Note_on_c, 10, 35, 0
12, 73200, Note_on_c, 10, 36, 100
12, 73308, Note_on_c, 10, 36, 0
12, 73320, Note_on_c, 10, 38, 100
12, 73428, Note_on_c, 10, 38, 0
12, 73440, Note_on_c, 10, 36, 100
12, 73548, Note_on_c, 10, 36, 0
12, 73560, Note_on_c, 10, 34, 100
12, 73668, Note_on_c, 10, 34, 0
12, 73680, Note_on_c, 10, 33, 100
12, 73788, Note_on_c, 10, 33, 0
12, 73800, Note_on_c, 10, 31, 100
12, 73908, Note_on_c, 10, 31, 0
12, 73920, Note_on_c, 10, 42, 100
12, 74028, Note_on_c, 10, 42, 0
12, 74040, Note_on_c, 10, 40, 100
12, 74148, Note_on_c, 10, 40, 0
12, 74160, Note_on_c, 10, 42, 100
12, 74268, Note_on_c, 10, 42, 0
12, 74280, Note_on_c, 10, 43, 100
12, 74388, Note_on_c, 10, 43, 0
12, 74400, Note_on_c, 10, 42, 100
12, 74508, Note_on_c, 10, 42, 0
12, 74520, Note_on_c, 10, 40, 100
12, 74628, Note_on_c, 10, 40, 0
12, 74640, Note_on_c, 10, 39, 100
12, 74748, Note_on_c, 10, 39, 0
12, 74760, Note_on_c, 10, 37, 100
12, 74868, Note_on_c, 10, 37, 0
12, 74880, Note_on_c, 10, 35, 100
12, 74988, Note_on_c, 10, 35, 0
12, 75000, Note_on_c, 10, 33, 100
12, 75108, Note_on_c, 10, 33, 0
12, 75120, Note_on_c, 10, 35, 100
12, 75228, Note_on_c, 10, 35, 0
12, 75240, Note_on_c, 10, 36, 100
12, 75348, Note_on_c, 10, 36, 0
12, 75360, Note_on_c, 10, 35, 100
12, 75468, Note_on_c, 10, 35, 0
12, 75480, Note_on_c, 10, 33, 100
12, 75588, Note_on_c, 10, 33, 0
12, 75600, Note_on_c, 10, 31, 100
12, 75708, Note_on_c, 10, 31, 0
12, 75720, Note_on_c, 10, 30, 100
12, 75828, Note_on_c, 10, 30, 0
12, 75840, Note_on_c, 10, 40, 100
12, 76704, Note_on_c, 10, 40, 0
12, 76800, Note_on_c, 10, 38, 100
12, 77664, Note_on_c, 10, 38, 0
12, 77760, Note_on_c, 10, 36, 100
12, 78624, Note_on_c, 10, 36, 0
12, 78720, Note_on_c, 10, 35, 100
12, 78936, Note_on_c, 10, 35, 0
12, 78960, Note_on_c, 10, 47, 100
12, 79068, Note_on_c, 10, 47, 0
12, 79080, Note_on_c, 10, 45, 100
12, 79188, Note_on_c, 10, 45, 0
12, 79200, Note_on_c, 10, 43, 100
12, 79416, Note_on_c, 10, 43, 0
12, 79440, Note_on_c, 10, 40, 100
12, 79656, Note_on_c, 10, 40, 0
12, 79680, Note_on_c, 10, 45, 100
12, 79896, Note_on_c, 10, 45, 0
12, 79920, Note_on_c, 10, 43, 100
12, 80136, Note_on_c, 10, 43, 0
12, 80160, Note_on_c, 10, 42, 100
12, 80376, Note_on_c, 10, 42, 0
12, 80400, Note_on_c, 10, 38, 100
12, 80616, Note_on_c, 10, 38, 0
12, 80880, Note_on_c, 10, 43, 100
12, 80988, Note_on_c, 10, 43, 0
12, 81000, Note_on_c, 10, 42, 100
12, 81108, Note_on_c, 10, 42, 0
12, 81120, Note_on_c, 10, 40, 100
12, 81336, Note_on_c, 10, 40, 0
12, 81360, Note_on_c, 10, 36, 100
12, 81576, Note_on_c, 10, 36, 0
12, 81600, Note_on_c, 10, 42, 100
12, 81816, Note_on_c, 10, 42, 0
12, 81840, Note_on_c, 10, 40, 100
12, 82056, Note_on_c, 10, 40, 0
12, 82080, Note_on_c, 10, 38, 100
12, 82776, Note_on_c, 10, 38, 0
12, 82800, Note_on_c, 10, 40, 100
12, 82908, Note_on_c, 10, 40, 0
12, 82920, Note_on_c, 10, 38, 100
12, 83028, Note_on_c, 10, 38, 0
12, 83040, Note_on_c, 10, 36, 100
12, 83256, Note_on_c, 10, 36, 0
12, 83280, Note_on_c, 10, 36, 100
12, 83496, Note_on_c, 10, 36, 0
12, 83520, Note_on_c, 10, 32, 100
12, 83736, Note_on_c, 10, 32, 0
12, 83760, Note_on_c, 10, 32, 100
12, 83976, Note_on_c, 10, 32, 0
12, 84000, Note_on_c, 10, 33, 100
12, 84216, Note_on_c, 10, 33, 0
12, 84240, Note_on_c, 10, 33, 100
12, 84456, Note_on_c, 10, 33, 0
12, 84480, Note_on_c, 10, 40, 100
12, 84696, Note_on_c, 10, 40, 0
12, 84720, Note_on_c, 10, 28, 100
12, 85152, Note_on_c, 10, 28, 0
12, 85200, Note_on_c, 10, 26, 100
12, 85416, Note_on_c, 10, 26, 0
12, 85440, Note_on_c, 10, 24, 100
12, 85656, Note_on_c, 10, 24, 0
12, 85680, Note_on_c, 10, 36, 100
12, 85896, Note_on_c, 10, 36, 0
12, 85920, Note_on_c, 10, 38, 100
12, 86136, Note_on_c, 10, 38, 0
12, 86160, Note_on_c, 10, 40, 100
12, 86376, Note_on_c, 10, 40, 0
12, 86400, Note_on_c, 10, 33, 100
12, 86616, Note_on_c, 10, 33, 0
12, 86640, Note_on_c, 10, 45, 100
12, 87072, Note_on_c, 10, 45, 0
12, 87120, Note_on_c, 10, 43, 100
12, 87336, Note_on_c, 10, 43, 0
12, 87360, Note_on_c, 10, 41, 100
12, 87576, Note_on_c, 10, 41, 0
12, 87600, Note_on_c, 10, 29, 100
12, 87816, Note_on_c, 10, 29, 0
12, 87840, Note_on_c, 10, 31, 100
12, 88056, Note_on_c, 10, 31, 0
12, 88080, Note_on_c, 10, 33, 100
12, 88296, Note_on_c, 10, 33, 0
12, 88320, Note_on_c, 10, 26, 100
12, 88536, Note_on_c, 10, 26, 0
12, 88560, Note_on_c, 10, 50, 100
12, 88992, Note_on_c, 10, 50, 0
12, 89040, Note_on_c, 10, 48, 100
12, 89256, Note_on_c, 10, 48, 0
12, 89280, Note_on_c, 10, 47, 100
12, 89496, Note_on_c, 10, 47, 0
12, 89520, Note_on_c, 10, 35, 100
12, 89736, Note_on_c, 10, 35, 0
12, 89760, Note_on_c, 10, 36, 100
12, 89976, Note_on_c, 10, 36, 0
12, 90000, Note_on_c, 10, 38, 100
12, 90216, Note_on_c, 10, 38, 0
12, 90240, Note_on_c, 10, 31, 100
12, 90456, Note_on_c, 10, 31, 0
12, 90480, Note_on_c, 10, 43, 100
12, 90912, Note_on_c, 10, 43, 0
12, 90960, Note_on_c, 10, 41, 100
12, 91176, Note_on_c, 10, 41, 0
12, 91200, Note_on_c, 10, 40, 100
12, 91416, Note_on_c, 10, 40, 0
12, 91440, Note_on_c, 10, 28, 100
12, 91656, Note_on_c, 10, 28, 0
12, 91680, Note_on_c, 10, 29, 100
12, 91896, Note_on_c, 10, 29, 0
12, 91920, Note_on_c, 10, 31, 100
12, 92136, Note_on_c, 10, 31, 0
12, 92160, Note_on_c, 10, 24, 100
12, 92376, Note_on_c, 10, 24, 0
12, 92400, Note_on_c, 10, 36, 100
12, 92616, Note_on_c, 10, 36, 0
12, 92640, Note_on_c, 10, 41, 100
12, 92856, Note_on_c, 10, 41, 0
12, 92880, Note_on_c, 10, 35, 100
12, 93096, Note_on_c, 10, 35, 0
12, 93120, Note_on_c, 10, 40, 100
12, 93336, Note_on_c, 10, 40, 0
12, 93360, Note_on_c, 10, 33, 100
12, 93576, Note_on_c, 10, 33, 0
12, 93600, Note_on_c, 10, 38, 100
12, 93816, Note_on_c, 10, 38, 0
12, 93840, Note_on_c, 10, 31, 100
12, 94056, Note_on_c, 10, 31, 0
12, 94080, Note_on_c, 10, 36, 100
12, 94296, Note_on_c, 10, 36, 0
12, 94320, Note_on_c, 10, 28, 100
12, 94536, Note_on_c, 10, 28, 0
12, 94560, Note_on_c, 10, 29, 100
12, 94776, Note_on_c, 10, 29, 0
12, 94800, Note_on_c, 10, 26, 100
12, 95016, Note_on_c, 10, 26, 0
12, 95040, Note_on_c, 10, 31, 100
12, 95256, Note_on_c, 10, 31, 0
12, 95760, Note_on_c, 10, 43, 100
12, 95976, Note_on_c, 10, 43, 0
12, 96000, Note_on_c, 10, 43, 100
12, 96216, Note_on_c, 10, 43, 0
12, 96240, Note_on_c, 10, 31, 100
12, 96456, Note_on_c, 10, 31, 0
12, 96720, Note_on_c, 10, 43, 100
12, 96936, Note_on_c, 10, 43, 0
12, 96960, Note_on_c, 10, 43, 100
12, 99096, Note_on_c, 10, 43, 0
12, 99120, Note_on_c, 10, 45, 100
12, 99336, Note_on_c, 10, 45, 0
12, 99360, Note_on_c, 10, 47, 100
12, 99576, Note_on_c, 10, 47, 0
12, 99600, Note_on_c, 10, 45, 100
12, 99816, Note_on_c, 10, 45, 0
12, 99840, Note_on_c, 10, 43, 100
12, 100056, Note_on_c, 10, 43, 0
12, 100080, Note_on_c, 10, 41, 100
12, 100296, Note_on_c, 10, 41, 0
12, 100320, Note_on_c, 10, 40, 100
12, 100536, Note_on_c, 10, 40, 0
12, 100560, Note_on_c, 10, 38, 100
12, 100776, Note_on_c, 10, 38, 0
12, 100800, Note_on_c, 10, 36, 100
12, 102936, Note_on_c, 10, 36, 0
12, 102960, Note_on_c, 10, 38, 100
12, 103176, Note_on_c, 10, 38, 0
12, 103200, Note_on_c, 10, 40, 100
12, 103416, Note_on_c, 10, 40, 0
12, 103440, Note_on_c, 10, 38, 100
12, 103656, Note_on_c, 10, 38, 0
12, 103680, Note_on_c, 10, 36, 100
12, 103896, Note_on_c, 10, 36, 0
12, 103920, Note_on_c, 10, 34, 100
12, 104136, Note_on_c, 10, 34, 0
12, 104160, Note_on_c, 10, 33, 100
12, 104376, Note_on_c, 10, 33, 0
12, 104400, Note_on_c, 10, 31, 100
12, 104616, Note_on_c, 10, 31, 0
12, 104640, Note_on_c, 10, 29, 100
12, 104748, Note_on_c, 10, 29, 0
12, 104760, Note_on_c, 10, 28, 100
12, 104868, Note_on_c, 10, 28, 0
12, 104880, Note_on_c, 10, 29, 100
12, 104988, Note_on_c, 10, 29, 0
12, 105000, Note_on_c, 10, 31, 100
12, 105108, Note_on_c, 10, 31, 0
12, 105120, Note_on_c, 10, 33, 100
12, 105228, Note_on_c, 10, 33, 0
12, 105240, Note_on_c, 10, 31, 100
12, 105348, Note_on_c, 10, 31, 0
12, 105360, Note_on_c, 10, 33, 100
12, 105468, Note_on_c, 10, 33, 0
12, 105480, Note_on_c, 10, 35, 100
12, 105588, Note_on_c, 10, 35, 0
12, 105600, Note_on_c, 10, 36, 100
12, 105708, Note_on_c, 10, 36, 0
12, 105720, Note_on_c, 10, 35, 100
12, 105828, Note_on_c, 10, 35, 0
12, 105840, Note_on_c, 10, 36, 100
12, 105948, Note_on_c, 10, 36, 0
12, 105960, Note_on_c, 10, 38, 100
12, 106068, Note_on_c, 10, 38, 0
12, 106080, Note_on_c, 10, 40, 100
12, 106188, Note_on_c, 10, 40, 0
12, 106200, Note_on_c, 10, 38, 100
12, 106308, Note_on_c, 10, 38, 0
12, 106320, Note_on_c, 10, 40, 100
12, 106428, Note_on_c, 10, 40, 0
12, 106440, Note_on_c, 10, 41, 100
12, 106548, Note_on_c, 10, 41, 0
12, 106560, Note_on_c, 10, 31, 100
12, 106668, Note_on_c, 10, 31, 0
12, 106680, Note_on_c, 10, 30, 100
12, 106788, Note_on_c, 10, 30, 0
12, 106800, Note_on_c, 10, 31, 100
12, 106908, Note_on_c, 10, 31, 0
12, 106920, Note_on_c, 10, 33, 100
12, 107028, Note_on_c, 10, 33, 0
12, 107040, Note_on_c, 10, 35, 100
12, 107148, Note_on_c, 10, 35, 0
12, 107160, Note_on_c, 10, 33, 100
12, 107268, Note_on_c, 10, 33, 0
12, 107280, Note_on_c, 10, 35, 100
12, 107388, Note_on_c, 10, 35, 0
12, 107400, Note_on_c, 10, 36, 100
12, 107508, Note_on_c, 10, 36, 0
12, 107520, Note_on_c, 10, 38, 100
12, 107628, Note_on_c, 10, 38, 0
12, 107640, Note_on_c, 10, 37, 100
12, 107748, Note_on_c, 10, 37, 0
12, 107760, Note_on_c, 10, 38, 100
12, 107868, Note_on_c, 10, 38, 0
12, 107880, Note_on_c, 10, 40, 100
12, 107988, Note_on_c, 10, 40, 0
12, 108000, Note_on_c, 10, 41, 100
12, 108108, Note_on_c, 10, 41, 0
12, 108120, Note_on_c, 10, 40, 100
12, 108228, Note_on_c, 10, 40, 0
12, 108240, Note_on_c, 10, 41, 100
12, 108348, Note_on_c, 10, 41, 0
12, 108360, Note_on_c, 10, 43, 100
12, 108468, Note_on_c, 10, 43, 0
12, 108480, Note_on_c, 10, 33, 100
12, 108588, Note_on_c, 10, 33, 0
12, 108600, Note_on_c, 10, 32, 100
12, 108708, Note_on_c, 10, 32, 0
12, 108720, Note_on_c, 10, 33, 100
12, 108828, Note_on_c, 10, 33, 0
12, 108840, Note_on_c, 10, 35, 100
12, 108948, Note_on_c, 10, 35, 0
12, 108960, Note_on_c, 10, 36, 100
12, 109068, Note_on_c, 10, 36, 0
12, 109080, Note_on_c, 10, 35, 100
12, 109188, Note_on_c, 10, 35, 0
12, 109200, Note_on_c, 10, 36, 100
12, 109308, Note_on_c, 10, 36, 0
12, 109320, Note_on_c, 10, 33, 100
12, 109428, Note_on_c, 10, 33, 0
12, 109440, Note_on_c, 10, 38, 100
12, 109548, Note_on_c, 10, 38, 0
12, 109560, Note_on_c, 10, 40, 100
12, 109668, Note_on_c, 10, 40, 0
12, 109680, Note_on_c, 10, 41, 100
12, 109788, Note_on_c, 10, 41, 0
12, 109800, Note_on_c, 10, 38, 100
12, 109908, Note_on_c, 10, 38, 0
12, 109920, Note_on_c, 10, 40, 100
12, 110028, Note_on_c, 10, 40, 0
12, 110040, Note_on_c, 10, 36, 100
12, 110148, Note_on_c, 10, 36, 0
12, 110160, Note_on_c, 10, 38, 100
12, 110268, Note_on_c, 10, 38, 0
12, 110280, Note_on_c, 10, 40, 100
12, 110388, Note_on_c, 10, 40, 0
12, 110400, Note_on_c, 10, 41, 100
12, 110508, Note_on_c, 10, 41, 0
12, 110520, Note_on_c, 10, 43, 100
12, 110628, Note_on_c, 10, 43, 0
12, 110640, Note_on_c, 10, 41, 100
12, 110748, Note_on_c, 10, 41, 0
12, 110760, Note_on_c, 10, 40, 100
12, 110868, Note_on_c, 10, 40, 0
12, 110880, Note_on_c, 10, 38, 100
12, 110988, Note_on_c, 10, 38, 0
12, 111000, Note_on_c, 10, 36, 100
12, 111108, Note_on_c, 10, 36, 0
12, 111120, Note_on_c, 10, 35, 100
12, 111228, Note_on_c, 10, 35, 0
12, 111240, Note_on_c, 10, 33, 100
12, 111348, Note_on_c, 10, 33, 0
12, 111360, Note_on_c, 10, 35, 100
12, 111468, Note_on_c, 10, 35, 0
12, 111480, Note_on_c, 10, 31, 100
12, 111588, Note_on_c, 10, 31, 0
12, 111600, Note_on_c, 10, 33, 100
12, 111708, Note_on_c, 10, 33, 0
12, 111720, Note_on_c, 10, 35, 100
12, 111828, Note_on_c, 10, 35, 0
12, 111840, Note_on_c, 10, 36, 100
12, 111948, Note_on_c, 10, 36, 0
12, 111960, Note_on_c, 10, 33, 100
12, 112068, Note_on_c, 10, 33, 0
12, 112080, Note_on_c, 10, 35, 100
12, 112188, Note_on_c, 10, 35, 0
12, 112200, Note_on_c, 10, 36, 100
12, 112308, Note_on_c, 10, 36, 0
12, 112320, Note_on_c, 10, 38, 100
12, 112428, Note_on_c, 10, 38, 0
12, 112440, Note_on_c, 10, 40, 100
12, 112548, Note_on_c, 10, 40, 0
12, 112560, Note_on_c, 10, 38, 100
12, 112668, Note_on_c, 10, 38, 0
12, 112680, Note_on_c, 10, 36, 100
12, 112788, Note_on_c, 10, 36, 0
12, 112800, Note_on_c, 10, 35, 100
12, 112908, Note_on_c, 10, 35, 0
12, 112920, Note_on_c, 10, 38, 100
12, 113028, Note_on_c, 10, 38, 0
12, 113040, Note_on_c, 10, 43, 100
12, 113148, Note_on_c, 10, 43, 0
12, 113160, Note_on_c, 10, 41, 100
12, 113268, Note_on_c, 10, 41, 0
12, 113280, Note_on_c, 10, 40, 100
12, 113388, Note_on_c, 10, 40, 0
12, 113400, Note_on_c, 10, 41, 100
12, 113508, Note_on_c, 10, 41, 0
12, 113520, Note_on_c, 10, 40, 100
12, 113628, Note_on_c, 10, 40, 0
12, 113640, Note_on_c, 10, 38, 100
12, 113748, Note_on_c, 10, 38, 0
12, 113760, Note_on_c, 10, 36, 100
12, 113868, Note_on_c, 10, 36, 0
12, 113880, Note_on_c, 10, 40, 100
12, 113988, Note_on_c, 10, 40, 0
12, 114000, Note_on_c, 10, 45, 100
12, 114108, Note_on_c, 10, 45, 0
12, 114120, Note_on_c, 10, 43, 100
12, 114228, Note_on_c, 10, 43, 0
12, 114240, Note_on_c, 10, 41, 100
12, 114348, Note_on_c, 10, 41, 0
12, 114360, Note_on_c, 10, 43, 100
12, 114468, Note_on_c, 10, 43, 0
12, 114480, Note_on_c, 10, 41, 100
12, 114588, Note_on_c, 10, 41, 0
12, 114600, Note_on_c, 10, 40, 100
12, 114708, Note_on_c, 10, 40, 0
12, 114720, Note_on_c, 10, 38, 100
12, 114828, Note_on_c, 10, 38, 0
12, 114840, Note_on_c, 10, 36, 100
12, 114948, Note_on_c, 10, 36, 0
12, 114960, Note_on_c, 10, 35, 100
12, 115068, Note_on_c, 10, 35, 0
12, 115080, Note_on_c, 10, 33, 100
12, 115188, Note_on_c, 10, 33, 0
12, 115200, Note_on_c, 10, 31, 100
12, 120216, Note_on_c, 10, 31, 0
12, 120240, Note_on_c, 10, 29, 100
12, 120456, Note_on_c, 10, 29, 0
12, 120480, Note_on_c, 10, 28, 100
12, 120696, Note_on_c, 10, 28, 0
12, 120720, Note_on_c, 10, 26, 100
12, 120936, Note_on_c, 10, 26, 0
12, 120960, Note_on_c, 10, 24, 100
12, 121176, Note_on_c, 10, 24, 0
12, 121200, Note_on_c, 10, 29, 100
12, 121416, Note_on_c, 10, 29, 0
12, 121440, Note_on_c, 10, 36, 100
12, 121656, Note_on_c, 10, 36, 0
12, 121680, Note_on_c, 10, 24, 100
12, 121896, Note_on_c, 10, 24, 0
12, 121920, Note_on_c, 10, 41, 100
12, 122136, Note_on_c, 10, 41, 0
12, 122160, Note_on_c, 10, 40, 100
12, 122376, Note_on_c, 10, 40, 0
12, 122400, Note_on_c, 10, 38, 100
12, 122616, Note_on_c, 10, 38, 0
12, 122640, Note_on_c, 10, 36, 100
12, 122856, Note_on_c, 10, 36, 0
12, 122880, Note_on_c, 10, 35, 100
12, 123096, Note_on_c, 10, 35, 0
12, 123120, Note_on_c, 10, 36, 100
12, 123336, Note_on_c, 10, 36, 0
12, 123360, Note_on_c, 10, 43, 100
12, 123576, Note_on_c, 10, 43, 0
12, 123600, Note_on_c, 10, 31, 100
12, 123816, Note_on_c, 10, 31, 0
12, 123840, Note_on_c, 10, 36, 100
12, 124056, Note_on_c, 10, 36, 0
12, 124080, Note_on_c, 10, 35, 100
12, 124296, Note_on_c, 10, 35, 0
12, 124320, Note_on_c, 10, 33, 100
12, 124536, Note_on_c, 10, 33, 0
12, 124560, Note_on_c, 10, 31, 100
12, 124776, Note_on_c, 10, 31, 0
12, 124800, Note_on_c, 10, 30, 100
12, 125016, Note_on_c, 10, 30, 0
12, 125040, Note_on_c, 10, 31, 100
12, 125256, Note_on_c, 10, 31, 0
12, 125280, Note_on_c, 10, 38, 100
12, 125496, Note_on_c, 10, 38, 0
12, 125520, Note_on_c, 10, 26, 100
12, 125736, Note_on_c, 10, 26, 0
12, 126000, Note_on_c, 10, 31, 100
12, 126108, Note_on_c, 10, 31, 0
12, 126120, Note_on_c, 10, 30, 100
12, 126228, Note_on_c, 10, 30, 0
12, 126240, Note_on_c, 10, 31, 100
12, 126348, Note_on_c, 10, 31, 0
12, 126360, Note_on_c, 10, 33, 100
12, 126468, Note_on_c, 10, 33, 0
12, 126480, Note_on_c, 10, 35, 100
12, 126588, Note_on_c, 10, 35, 0
12, 126600, Note_on_c, 10, 36, 100
12, 126708, Note_on_c, 10, 36, 0
12, 126720, Note_on_c, 10, 38, 100
12, 126828, Note_on_c, 10, 38, 0
12, 126840, Note_on_c, 10, 37, 100
12, 126948, Note_on_c, 10, 37, 0
12, 126960, Note_on_c, 10, 38, 100
12, 127068, Note_on_c, 10, 38, 0
12, 127080, Note_on_c, 10, 40, 100
12, 127188, Note_on_c, 10, 40, 0
12, 127200, Note_on_c, 10, 42, 100
12, 127308, Note_on_c, 10, 42, 0
12, 127320, Note_on_c, 10, 40, 100
12, 127428, Note_on_c, 10, 40, 0
12, 127440, Note_on_c, 10, 42, 100
12, 127548, Note_on_c, 10, 42, 0
12, 127560, Note_on_c, 10, 38, 100
12, 127668, Note_on_c, 10, 38, 0
12, 127680, Note_on_c, 10, 43, 100
12, 127788, Note_on_c, 10, 43, 0
12, 127800, Note_on_c, 10, 42, 100
12, 127908, Note_on_c, 10, 42, 0
12, 127920, Note_on_c, 10, 43, 100
12, 128028, Note_on_c, 10, 43, 0
12, 128040, Note_on_c, 10, 45, 100
12, 128148, Note_on_c, 10, 45, 0
12, 128160, Note_on_c, 10, 43, 100
12, 128268, Note_on_c, 10, 43, 0
12, 128280, Note_on_c, 10, 47, 100
12, 128388, Note_on_c, 10, 47, 0
12, 128400, Note_on_c, 10, 45, 100
12, 128508, Note_on_c, 10, 45, 0
12, 128520, Note_on_c, 10, 43, 100
12, 128628, Note_on_c, 10, 43, 0
12, 128640, Note_on_c, 10, 42, 100
12, 128748, Note_on_c, 10, 42, 0
12, 128760, Note_on_c, 10, 45, 100
12, 128868, Note_on_c, 10, 45, 0
12, 128880, Note_on_c, 10, 38, 100
12, 128988, Note_on_c, 10, 38, 0
12, 129000, Note_on_c, 10, 42, 100
12, 129108, Note_on_c, 10, 42, 0
12, 129120, Note_on_c, 10, 43, 100
12, 129228, Note_on_c, 10, 43, 0
12, 129240, Note_on_c, 10, 47, 100
12, 129348, Note_on_c, 10, 47, 0
12, 129360, Note_on_c, 10, 38, 100
12, 129468, Note_on_c, 10, 38, 0
12, 129480, Note_on_c, 10, 42, 100
12, 129588, Note_on_c, 10, 42, 0
12, 129600, Note_on_c, 10, 40, 100
12, 129708, Note_on_c, 10, 40, 0
12, 129720, Note_on_c, 10, 43, 100
12, 129828, Note_on_c, 10, 43, 0
12, 129840, Note_on_c, 10, 36, 100
12, 129948, Note_on_c, 10, 36, 0
12, 129960, Note_on_c, 10, 40, 100
12, 130068, Note_on_c, 10, 40, 0
12, 130080, Note_on_c, 10, 42, 100
12, 130188, Note_on_c, 10, 42, 0
12, 130200, Note_on_c, 10, 45, 100
12, 130308, Note_on_c, 10, 45, 0
12, 130320, Note_on_c, 10, 36, 100
12, 130428, Note_on_c, 10, 36, 0
12, 130440, Note_on_c, 10, 40, 100
12, 130548, Note_on_c, 10, 40, 0
12, 130560, Note_on_c, 10, 38, 100
12, 130668, Note_on_c, 10, 38, 0
12, 130680, Note_on_c, 10, 42, 100
12, 130788, Note_on_c, 10, 42, 0
12, 130800, Note_on_c, 10, 35, 100
12, 130908, Note_on_c, 10, 35, 0
12, 130920, Note_on_c, 10, 38, 100
12, 131028, Note_on_c, 10, 38, 0
12, 131040, Note_on_c, 10, 40, 100
12, 131148, Note_on_c, 10, 40, 0
12, 131160, Note_on_c, 10, 43, 100
12, 131268, Note_on_c, 10, 43, 0
12, 131280, Note_on_c, 10, 35, 100
12, 131388, Note_on_c, 10, 35, 0
12, 131400, Note_on_c, 10, 38, 100
12, 131508, Note_on_c, 10, 38, 0
12, 131520, Note_on_c, 10, 36, 100
12, 131628, Note_on_c, 10, 36, 0
12, 131640, Note_on_c, 10, 40, 100
12, 131748, Note_on_c, 10, 40, 0
12, 131760, Note_on_c, 10, 33, 100
12, 131868, Note_on_c, 10, 33, 0
12, 131880, Note_on_c, 10, 36, 100
12, 131988, Note_on_c, 10, 36, 0
12, 132000, Note_on_c, 10, 38, 100
12, 132108, Note_on_c, 10, 38, 0
12, 132120, Note_on_c, 10, 42, 100
12, 132228, Note_on_c, 10, 42, 0
12, 132240, Note_on_c, 10, 33, 100
12, 132348, Note_on_c, 10, 33, 0
12, 132360, Note_on_c, 10, 36, 100
12, 132468, Note_on_c, 10, 36, 0
12, 132480, Note_on_c, 10, 35, 100
12, 132588, Note_on_c, 10, 35, 0
12, 132600, Note_on_c, 10, 38, 100
12, 132708, Note_on_c, 10, 38, 0
12, 132720, Note_on_c, 10, 31, 100
12, 132828, Note_on_c, 10, 31, 0
12, 132840, Note_on_c, 10, 35, 100
12, 132948, Note_on_c, 10, 35, 0
12, 132960, Note_on_c, 10, 36, 100
12, 133068, Note_on_c, 10, 36, 0
12, 133080, Note_on_c, 10, 40, 100
12, 133188, Note_on_c, 10, 40, 0
12, 133200, Note_on_c, 10, 31, 100
12, 133308, Note_on_c, 10, 31, 0
12, 133320, Note_on_c, 10, 36, 100
12, 133428, Note_on_c, 10, 36, 0
12, 133440, Note_on_c, 10, 35, 100
12, 133548, Note_on_c, 10, 35, 0
12, 133560, Note_on_c, 10, 38, 100
12, 133668, Note_on_c, 10, 38, 0
12, 133680, Note_on_c, 10, 31, 100
12, 133788, Note_on_c, 10, 31, 0
12, 133800, Note_on_c, 10, 35, 100
12, 133908, Note_on_c, 10, 35, 0
12, 133920, Note_on_c, 10, 36, 100
12, 134028, Note_on_c, 10, 36, 0
12, 134040, Note_on_c, 10, 40, 100
12, 134148, Note_on_c, 10, 40, 0
12, 134160, Note_on_c, 10, 31, 100
12, 134268, Note_on_c, 10, 31, 0
12, 134280, Note_on_c, 10, 36, 100
12, 134388, Note_on_c, 10, 36, 0
12, 134400, Note_on_c, 10, 35, 100
12, 134616, Note_on_c, 10, 35, 0
12, 135360, Note_on_c, 10, 38, 100
12, 135576, Note_on_c, 10, 38, 0
12, 136320, Note_on_c, 10, 35, 100
12, 136536, Note_on_c, 10, 35, 0
12, 137280, Note_on_c, 10, 31, 100
12, 137496, Note_on_c, 10, 31, 0
12, 137520, Note_on_c, 10, 31, 100
12, 137736, Note_on_c, 10, 31, 0
12, 137760, Note_on_c, 10, 31, 100
12, 137976, Note_on_c, 10, 31, 0
12, 138000, Note_on_c, 10, 31, 100
12, 138216, Note_on_c, 10, 31, 0
12, 138240, Note_on_c, 10, 36, 100
12, 138456, Note_on_c, 10, 36, 0
12, 139200, Note_on_c, 10, 31, 100
12, 139416, Note_on_c, 10, 31, 0
12, 140160, Note_on_c, 10, 28, 100
12, 140376, Note_on_c, 10, 28, 0
12, 141120, Note_on_c, 10, 24, 100
12, 141336, Note_on_c, 10, 24, 0
12, 141360, Note_on_c, 10, 24, 100
12, 141576, Note_on_c, 10, 24, 0
12, 141600, Note_on_c, 10, 24, 100
12, 141816, Note_on_c, 10, 24, 0
12, 141840, Note_on_c, 10, 24, 100
12, 142056, Note_on_c, 10, 24, 0
12, 142080, Note_on_c, 10, 29, 100
12, 142296, Note_on_c, 10, 29, 0
12, 143040, Note_on_c, 10, 29, 100
12, 143256, Note_on_c, 10, 29, 0
12, 143280, Note_on_c, 10, 29, 100
12, 143496, Note_on_c, 10, 29, 0
12, 143520, Note_on_c, 10, 29, 100
12, 143736, Note_on_c, 10, 29, 0
12, 143760, Note_on_c, 10, 29, 100
12, 143976, Note_on_c, 10, 29, 0
12, 144000, Note_on_c, 10, 29, 100
12, 144216, Note_on_c, 10, 29, 0
12, 144240, Note_on_c, 10, 29, 100
12, 144456, Note_on_c, 10, 29, 0
12, 144480, Note_on_c, 10, 29, 100
12, 144696, Note_on_c, 10, 29, 0
12, 144720, Note_on_c, 10, 29, 100
12, 144936, Note_on_c, 10, 29, 0
12, 144960, Note_on_c, 10, 29, 100
12, 145176, Note_on_c, 10, 29, 0
12, 145200, Note_on_c, 10, 29, 100
12, 145416, Note_on_c, 10, 29, 0
12, 145440, Note_on_c, 10, 29, 100
12, 145656, Note_on_c, 10, 29, 0
12, 145680, Note_on_c, 10, 29, 100
12, 145896, Note_on_c, 10, 29, 0
12, 145920, Note_on_c, 10, 29, 100
12, 146136, Note_on_c, 10, 29, 0
12, 146160, Note_on_c, 10, 29, 100
12, 146376, Note_on_c, 10, 29, 0
12, 146400, Note_on_c, 10, 29, 100
12, 146616, Note_on_c, 10, 29, 0
12, 146640, Note_on_c, 10, 29, 100
12, 146856, Note_on_c, 10, 29, 0
12, 146880, Note_on_c, 10, 29, 100
12, 147096, Note_on_c, 10, 29, 0
12, 147120, Note_on_c, 10, 44, 100
12, 147336, Note_on_c, 10, 44, 0
12, 147360, Note_on_c, 10, 41, 100
12, 147576, Note_on_c, 10, 41, 0
12, 147600, Note_on_c, 10, 38, 100
12, 147816, Note_on_c, 10, 38, 0
12, 147840, Note_on_c, 10, 35, 100
12, 148056, Note_on_c, 10, 35, 0
12, 148080, Note_on_c, 10, 41, 100
12, 148296, Note_on_c, 10, 41, 0
12, 148320, Note_on_c, 10, 38, 100
12, 148536, Note_on_c, 10, 38, 0
12, 148560, Note_on_c, 10, 35, 100
12, 148776, Note_on_c, 10, 35, 0
12, 148800, Note_on_c, 10, 31, 100
12, 149016, Note_on_c, 10, 31, 0
12, 149040, Note_on_c, 10, 31, 100
12, 149256, Note_on_c, 10, 31, 0
12, 149280, Note_on_c, 10, 31, 100
12, 149496, Note_on_c, 10, 31, 0
12, 149520, Note_on_c, 10, 31, 100
12, 149736, Note_on_c, 10, 31, 0
12, 149760, Note_on_c, 10, 36, 100
12, 149976, Note_on_c, 10, 36, 0
12, 150000, Note_on_c, 10, 36, 100
12, 150216, Note_on_c, 10, 36, 0
12, 150240, Note_on_c, 10, 36, 100
12, 150456, Note_on_c, 10, 36, 0
12, 150480, Note_on_c, 10, 36, 100
12, 150696, Note_on_c, 10, 36, 0
12, 150720, Note_on_c, 10, 32, 100
12, 150936, Note_on_c, 10, 32, 0
12, 150960, Note_on_c, 10, 32, 100
12, 151176, Note_on_c, 10, 32, 0
12, 151200, Note_on_c, 10, 32, 100
12, 151416, Note_on_c, 10, 32, 0
12, 151440, Note_on_c, 10, 32, 100
12, 151656, Note_on_c, 10, 32, 0
12, 151680, Note_on_c, 10, 33, 100
12, 151896, Note_on_c, 10, 33, 0
12, 152640, Note_on_c, 10, 30, 100
12, 152856, Note_on_c, 10, 30, 0
12, 153600, Note_on_c, 10, 26, 100
12, 153816, Note_on_c, 10, 26, 0
12, 153840, Note_on_c, 10, 26, 100
12, 154056, Note_on_c, 10, 26, 0
12, 154080, Note_on_c, 10, 26, 100
12, 154296, Note_on_c, 10, 26, 0
12, 154320, Note_on_c, 10, 26, 100
12, 154536, Note_on_c, 10, 26, 0
12, 154560, Note_on_c, 10, 31, 100
12, 154776, Note_on_c, 10, 31, 0
12, 154800, Note_on_c, 10, 31, 100
12, 155016, Note_on_c, 10, 31, 0
12, 155040, Note_on_c, 10, 31, 100
12, 155256, Note_on_c, 10, 31, 0
12, 155280, Note_on_c, 10, 31, 100
12, 155496, Note_on_c, 10, 31, 0
12, 155520, Note_on_c, 10, 31, 100
12, 155736, Note_on_c, 10, 31, 0
12, 155760, Note_on_c, 10, 31, 100
12, 155976, Note_on_c, 10, 31, 0
12, 156000, Note_on_c, 10, 31, 100
12, 156216, Note_on_c, 10, 31, 0
12, 156240, Note_on_c, 10, 31, 100
12, 156456, Note_on_c, 10, 31, 0
12, 156480, Note_on_c, 10, 31, 100
12, 156696, Note_on_c, 10, 31, 0
12, 156720, Note_on_c, 10, 31, 100
12, 156936, Note_on_c, 10, 31, 0
12, 156960, Note_on_c, 10, 31, 100
12, 157176, Note_on_c, 10, 31, 0
12, 157200, Note_on_c, 10, 31, 100
12, 157416, Note_on_c, 10, 31, 0
12, 157440, Note_on_c, 10, 31, 100
12, 157656, Note_on_c, 10, 31, 0
12, 157680, Note_on_c, 10, 31, 100
12, 157896, Note_on_c, 10, 31, 0
12, 157920, Note_on_c, 10, 31, 100
12, 158136, Note_on_c, 10, 31, 0
12, 158160, Note_on_c, 10, 31, 100
12, 158376, Note_on_c, 10, 31, 0
12, 158400, Note_on_c, 10, 31, 100
12, 158616, Note_on_c, 10, 31, 0
12, 158640, Note_on_c, 10, 31, 100
12, 158856, Note_on_c, 10, 31, 0
12, 158880, Note_on_c, 10, 31, 100
12, 159096, Note_on_c, 10, 31, 0
12, 159120, Note_on_c, 10, 31, 100
12, 159336, Note_on_c, 10, 31, 0
12, 159360, Note_on_c, 10, 31, 100
12, 159576, Note_on_c, 10, 31, 0
12, 159600, Note_on_c, 10, 31, 100
12, 159816, Note_on_c, 10, 31, 0
12, 159840, Note_on_c, 10, 31, 100
12, 160056, Note_on_c, 10, 31, 0
12, 160080, Note_on_c, 10, 31, 100
12, 160296, Note_on_c, 10, 31, 0
12, 160320, Note_on_c, 10, 31, 100
12, 160536, Note_on_c, 10, 31, 0
12, 167040, Note_on_c, 10, 48, 100
12, 167904, Note_on_c, 10, 48, 0
12, 168000, Note_on_c, 10, 47, 100
12, 168864, Note_on_c, 10, 47, 0
12, 168960, Note_on_c, 10, 45, 100
12, 169824, Note_on_c, 10, 45, 0
12, 169920, Note_on_c, 10, 43, 100
12, 170028, Note_on_c, 10, 43, 0
12, 170040, Note_on_c, 10, 45, 100
12, 170148, Note_on_c, 10, 45, 0
12, 170160, Note_on_c, 10, 43, 100
12, 170160, Note_on_c, 10, 43, 100
12, 170268, Note_on_c, 10, 43, 0
12, 170268, Note_on_c, 10, 43, 0
12, 170280, Note_on_c, 10, 41, 100
12, 170280, Note_on_c, 10, 41, 100
12, 170388, Note_on_c, 10, 41, 0
12, 170388, Note_on_c, 10, 41, 0
12, 170400, Note_on_c, 10, 40, 100
12, 170400, Note_on_c, 10, 40, 100
12, 170508, Note_on_c, 10, 40, 0
12, 170508, Note_on_c, 10, 40, 0
12, 170520, Note_on_c, 10, 38, 100
12, 170628, Note_on_c, 10, 38, 0
12, 170640, Note_on_c, 10, 40, 100
12, 170640, Note_on_c, 10, 36, 100
12, 170748, Note_on_c, 10, 40, 0
12, 170760, Note_on_c, 10, 36, 100
12, 170856, Note_on_c, 10, 36, 0
12, 170856, Note_on_c, 10, 36, 0
12, 170880, Note_on_c, 10, 41, 100
12, 170880, Note_on_c, 10, 41, 100
12, 170988, Note_on_c, 10, 41, 0
12, 170988, Note_on_c, 10, 41, 0
12, 171000, Note_on_c, 10, 43, 100
12, 171108, Note_on_c, 10, 43, 0
12, 171120, Note_on_c, 10, 41, 100
12, 171120, Note_on_c, 10, 40, 100
12, 171228, Note_on_c, 10, 41, 0
12, 171240, Note_on_c, 10, 40, 100
12, 171336, Note_on_c, 10, 40, 0
12, 171336, Note_on_c, 10, 40, 0
12, 171360, Note_on_c, 10, 38, 100
12, 171360, Note_on_c, 10, 38, 100
12, 171468, Note_on_c, 10, 38, 0
12, 171468, Note_on_c, 10, 38, 0
12, 171480, Note_on_c, 10, 36, 100
12, 171588, Note_on_c, 10, 36, 0
12, 171600, Note_on_c, 10, 38, 100
12, 171600, Note_on_c, 10, 35, 100
12, 171708, Note_on_c, 10, 38, 0
12, 171720, Note_on_c, 10, 35, 100
12, 171816, Note_on_c, 10, 35, 0
12, 171816, Note_on_c, 10, 35, 0
12, 171840, Note_on_c, 10, 40, 100
12, 171948, Note_on_c, 10, 40, 0
12, 171960, Note_on_c, 10, 41, 100
12, 172068, Note_on_c, 10, 41, 0
12, 172080, Note_on_c, 10, 40, 100
12, 172080, Note_on_c, 10, 40, 100
12, 172188, Note_on_c, 10, 40, 0
12, 172188, Note_on_c, 10, 40, 0
12, 172200, Note_on_c, 10, 38, 100
12, 172200, Note_on_c, 10, 38, 100
12, 172308, Note_on_c, 10, 38, 0
12, 172308, Note_on_c, 10, 38, 0
12, 172320, Note_on_c, 10, 36, 100
12, 172320, Note_on_c, 10, 36, 100
12, 172428, Note_on_c, 10, 36, 0
12, 172428, Note_on_c, 10, 36, 0
12, 172440, Note_on_c, 10, 35, 100
12, 172548, Note_on_c, 10, 35, 0
12, 172560, Note_on_c, 10, 36, 100
12, 172560, Note_on_c, 10, 33, 100
12, 172668, Note_on_c, 10, 36, 0
12, 172680, Note_on_c, 10, 33, 100
12, 172776, Note_on_c, 10, 33, 0
12, 172776, Note_on_c, 10, 33, 0
12, 172800, Note_on_c, 10, 38, 100
12, 172800, Note_on_c, 10, 38, 100
12, 172908, Note_on_c, 10, 38, 0
12, 172908, Note_on_c, 10, 38, 0
12, 172920, Note_on_c, 10, 40, 100
12, 173028, Note_on_c, 10, 40, 0
12, 173040, Note_on_c, 10, 38, 100
12, 173040, Note_on_c, 10, 36, 100
12, 173148, Note_on_c, 10, 38, 0
12, 173160, Note_on_c, 10, 36, 100
12, 173256, Note_on_c, 10, 36, 0
12, 173256, Note_on_c, 10, 36, 0
12, 173280, Note_on_c, 10, 35, 100
12, 173280, Note_on_c, 10, 35, 100
12, 173388, Note_on_c, 10, 35, 0
12, 173388, Note_on_c, 10, 35, 0
12, 173400, Note_on_c, 10, 33, 100
12, 173508, Note_on_c, 10, 33, 0
12, 173520, Note_on_c, 10, 35, 100
12, 173520, Note_on_c, 10, 31, 100
12, 173628, Note_on_c, 10, 35, 0
12, 173640, Note_on_c, 10, 31, 100
12, 173736, Note_on_c, 10, 31, 0
12, 173736, Note_on_c, 10, 31, 0
12, 173760, Note_on_c, 10, 36, 100
12, 173760, Note_on_c, 10, 36, 100
12, 173976, Note_on_c, 10, 36, 0
12, 173976, Note_on_c, 10, 36, 0
12, 174480, Note_on_c, 10, 36, 100
12, 174480, Note_on_c, 10, 36, 100
12, 174696, Note_on_c, 10, 36, 0
12, 174696, Note_on_c, 10, 36, 0
12, 174720, Note_on_c, 10, 36, 100
12, 174936, Note_on_c, 10, 36, 0
12, 174960, Note_on_c, 10, 24, 100
12, 175176, Note_on_c, 10, 24, 0
12, 175440, Note_on_c, 10, 36, 100
12, 175656, Note_on_c, 10, 36, 0
12, 175680, Note_on_c, 10, 36, 100
12, 175896, Note_on_c, 10, 36, 0
12, 176400, Note_on_c, 10, 38, 100
12, 176616, Note_on_c, 10, 38, 0
12, 176640, Note_on_c, 10, 40, 100
12, 176856, Note_on_c, 10, 40, 0
12, 176880, Note_on_c, 10, 41, 100
12, 177096, Note_on_c, 10, 41, 0
12, 177120, Note_on_c, 10, 43, 100
12, 177336, Note_on_c, 10, 43, 0
12, 177360, Note_on_c, 10, 31, 100
12, 177576, Note_on_c, 10, 31, 0
12, 177600, Note_on_c, 10, 36, 100
12, 177816, Note_on_c, 10, 36, 0
12, 177840, Note_on_c, 10, 24, 100
12, 178056, Note_on_c, 10, 24, 0
12, 178080, Note_on_c, 10, 24, 100
12, 178296, Note_on_c, 10, 24, 0
12, 178320, Note_on_c, 10, 36, 100
12, 178536, Note_on_c, 10, 36, 0
12, 178560, Note_on_c, 10, 36, 100
12, 178776, Note_on_c, 10, 36, 0
12, 178800, Note_on_c, 10, 24, 100
12, 179016, Note_on_c, 10, 24, 0
12, 179040, Note_on_c, 10, 24, 100
12, 179256, Note_on_c, 10, 24, 0
12, 179280, Note_on_c, 10, 36, 100
12, 179496, Note_on_c, 10, 36, 0
12, 179520, Note_on_c, 10, 36, 100
12, 179736, Note_on_c, 10, 36, 0
12, 180480, Note_on_c, 10, 24, 100
12, 180696, Note_on_c, 10, 24, 0
12, 181440, Note_on_c, 10, 36, 100
12, 181656, Note_on_c, 10, 36, 0
12, 182400, Note_on_c, 10, 48, 100
12, 182616, Note_on_c, 10, 48, 0
12, 182640, Note_on_c, 10, 41, 100
12, 182856, Note_on_c, 10, 41, 0
12, 182880, Note_on_c, 10, 43, 100
12, 183096, Note_on_c, 10, 43, 0
12, 183120, Note_on_c, 10, 31, 100
12, 183336, Note_on_c, 10, 31, 0
12, 183360, Note_on_c, 10, 24, 100
12, 184224, Note_on_c, 10, 24, 0
12, 184224, End_track
0, 0, End_of_file
