0, 0, Header, 1, 3, 192
1, 0, Start_track
1, 0, Title_t, "Preludiul nr.3 în re minor, BWV 935"
1, 0, Copyright_t, "Copyright © 1999 by Gabriel Mihai Dragomir"
1, 0, Text_t, "Prelude in D minor /Praeludium d-moll, BWV 935\012"
1, 0, Text_t, "By Johann Sebastian Bach (1685 - 1750)\012"
1, 0, Text_t, "Sequenced: 19 mai - 11 septembrie 1999, Bucuresti\012"
1, 0, Text_t, "by Gabriel Mihai Dragomir <gmd@k.ro>\012"
1, 0, Text_t, "http://gmd.iwarp.com\012"
1, 0, Text_t, "http://homestead.com/bachmidipage/files\012"
1, 0, Time_signature, 3, 3, 12, 8
1, 0, Key_signature, -1, "major"
1, 0, Tempo, 606061
1, 0, Marker_t, "Allegro"
1, 0, Marker_t, "A"
1, 6912, Marker_t, "A"
1, 13824, Marker_t, "B"
1, 20736, Marker_t, "B"
1, 20736, End_track
2, 0, Start_track
2, 0, MIDI_port, 0
2, 0, Title_t, "Right Hand"
2, 0, Program_c, 0, 0
2, 0, Control_c, 0, 7, 127
2, 0, Control_c, 0, 10, 71
2, 0, Control_c, 0, 91, 63
2, 0, Control_c, 0, 93, 0
2, 0, Note_on_c, 0, 62, 105
2, 46, Note_on_c, 0, 62, 0
2, 48, Note_on_c, 0, 61, 105
2, 94, Note_on_c, 0, 61, 0
2, 96, Note_on_c, 0, 62, 105
2, 142, Note_on_c, 0, 62, 0
2, 144, Note_on_c, 0, 57, 105
2, 190, Note_on_c, 0, 57, 0
2, 192, Note_on_c, 0, 62, 105
2, 238, Note_on_c, 0, 62, 0
2, 240, Note_on_c, 0, 65, 105
2, 286, Note_on_c, 0, 65, 0
2, 288, Note_on_c, 0, 64, 105
2, 334, Note_on_c, 0, 64, 0
2, 336, Note_on_c, 0, 62, 105
2, 382, Note_on_c, 0, 62, 0
2, 384, Note_on_c, 0, 64, 105
2, 430, Note_on_c, 0, 64, 0
2, 432, Note_on_c, 0, 57, 105
2, 478, Note_on_c, 0, 57, 0
2, 480, Note_on_c, 0, 64, 105
2, 526, Note_on_c, 0, 64, 0
2, 528, Note_on_c, 0, 67, 105
2, 574, Note_on_c, 0, 67, 0
2, 576, Note_on_c, 0, 65, 105
2, 672, Note_on_c, 0, 65, 0
2, 672, Note_on_c, 0, 69, 105
2, 704, Note_on_c, 0, 69, 0
2, 768, Note_on_c, 0, 69, 105
2, 800, Note_on_c, 0, 69, 0
2, 864, Note_on_c, 0, 69, 105
2, 886, Note_on_c, 0, 69, 0
2, 888, Note_on_c, 0, 67, 105
2, 910, Note_on_c, 0, 67, 0
2, 912, Note_on_c, 0, 69, 105
2, 1198, Note_on_c, 0, 69, 0
2, 1200, Note_on_c, 0, 70, 105
2, 1246, Note_on_c, 0, 70, 0
2, 1248, Note_on_c, 0, 69, 105
2, 1294, Note_on_c, 0, 69, 0
2, 1296, Note_on_c, 0, 77, 105
2, 1342, Note_on_c, 0, 77, 0
2, 1344, Note_on_c, 0, 74, 105
2, 1390, Note_on_c, 0, 74, 0
2, 1392, Note_on_c, 0, 69, 105
2, 1438, Note_on_c, 0, 69, 0
2, 1440, Note_on_c, 0, 70, 105
2, 1486, Note_on_c, 0, 70, 0
2, 1488, Note_on_c, 0, 69, 105
2, 1534, Note_on_c, 0, 69, 0
2, 1536, Note_on_c, 0, 70, 105
2, 1582, Note_on_c, 0, 70, 0
2, 1584, Note_on_c, 0, 67, 105
2, 1630, Note_on_c, 0, 67, 0
2, 1632, Note_on_c, 0, 70, 105
2, 1678, Note_on_c, 0, 70, 0
2, 1680, Note_on_c, 0, 74, 105
2, 1726, Note_on_c, 0, 74, 0
2, 1728, Note_on_c, 0, 76, 127
2, 1728, Note_on_c, 0, 76, 105
2, 1774, Note_on_c, 0, 76, 0
2, 1774, Note_on_c, 0, 76, 0
2, 1776, Note_on_c, 0, 77, 105
2, 1822, Note_on_c, 0, 77, 0
2, 1824, Note_on_c, 0, 76, 105
2, 1870, Note_on_c, 0, 76, 0
2, 1872, Note_on_c, 0, 72, 105
2, 1918, Note_on_c, 0, 72, 0
2, 1920, Note_on_c, 0, 79, 105
2, 1966, Note_on_c, 0, 79, 0
2, 1968, Note_on_c, 0, 70, 105
2, 2014, Note_on_c, 0, 70, 0
2, 2016, Note_on_c, 0, 69, 105
2, 2062, Note_on_c, 0, 69, 0
2, 2064, Note_on_c, 0, 67, 105
2, 2110, Note_on_c, 0, 67, 0
2, 2112, Note_on_c, 0, 69, 105
2, 2158, Note_on_c, 0, 69, 0
2, 2160, Note_on_c, 0, 65, 105
2, 2206, Note_on_c, 0, 65, 0
2, 2208, Note_on_c, 0, 69, 105
2, 2254, Note_on_c, 0, 69, 0
2, 2256, Note_on_c, 0, 72, 105
2, 2302, Note_on_c, 0, 72, 0
2, 2304, Note_on_c, 0, 74, 105
2, 2350, Note_on_c, 0, 74, 0
2, 2352, Note_on_c, 0, 75, 105
2, 2398, Note_on_c, 0, 75, 0
2, 2400, Note_on_c, 0, 74, 105
2, 2446, Note_on_c, 0, 74, 0
2, 2448, Note_on_c, 0, 72, 105
2, 2494, Note_on_c, 0, 72, 0
2, 2496, Note_on_c, 0, 74, 105
2, 2542, Note_on_c, 0, 74, 0
2, 2544, Note_on_c, 0, 70, 103
2, 2590, Note_on_c, 0, 70, 0
2, 2592, Note_on_c, 0, 72, 101
2, 2638, Note_on_c, 0, 72, 0
2, 2640, Note_on_c, 0, 74, 99
2, 2686, Note_on_c, 0, 74, 0
2, 2688, Note_on_c, 0, 72, 97
2, 2734, Note_on_c, 0, 72, 0
2, 2736, Note_on_c, 0, 70, 95
2, 2782, Note_on_c, 0, 70, 0
2, 2784, Note_on_c, 0, 72, 93
2, 2830, Note_on_c, 0, 72, 0
2, 2832, Note_on_c, 0, 69, 91
2, 2878, Note_on_c, 0, 69, 0
2, 2880, Note_on_c, 0, 70, 89
2, 2926, Note_on_c, 0, 70, 0
2, 2928, Note_on_c, 0, 72, 87
2, 2974, Note_on_c, 0, 72, 0
2, 2976, Note_on_c, 0, 70, 85
2, 3022, Note_on_c, 0, 70, 0
2, 3024, Note_on_c, 0, 69, 83
2, 3070, Note_on_c, 0, 69, 0
2, 3072, Note_on_c, 0, 70, 81
2, 3118, Note_on_c, 0, 70, 0
2, 3120, Note_on_c, 0, 67, 79
2, 3166, Note_on_c, 0, 67, 0
2, 3168, Note_on_c, 0, 69, 77
2, 3214, Note_on_c, 0, 69, 0
2, 3216, Note_on_c, 0, 70, 75
2, 3262, Note_on_c, 0, 70, 0
2, 3264, Note_on_c, 0, 69, 73
2, 3310, Note_on_c, 0, 69, 0
2, 3312, Note_on_c, 0, 67, 71
2, 3358, Note_on_c, 0, 67, 0
2, 3360, Note_on_c, 0, 69, 69
2, 3406, Note_on_c, 0, 69, 0
2, 3408, Note_on_c, 0, 65, 66
2, 3454, Note_on_c, 0, 65, 0
2, 3456, Note_on_c, 0, 70, 63
2, 3552, Note_on_c, 0, 70, 0
2, 3552, Note_on_c, 0, 79, 63
2, 3584, Note_on_c, 0, 79, 0
2, 3648, Note_on_c, 0, 67, 63
2, 3680, Note_on_c, 0, 67, 0
2, 3744, Note_on_c, 0, 69, 63
2, 3840, Note_on_c, 0, 69, 0
2, 3840, Note_on_c, 0, 77, 63
2, 3872, Note_on_c, 0, 77, 0
2, 3936, Note_on_c, 0, 65, 63
2, 3968, Note_on_c, 0, 65, 0
2, 4032, Note_on_c, 0, 74, 63
2, 4128, Note_on_c, 0, 74, 0
2, 4128, Note_on_c, 0, 77, 63
2, 4160, Note_on_c, 0, 77, 0
2, 4224, Note_on_c, 0, 70, 63
2, 4256, Note_on_c, 0, 70, 0
2, 4320, Note_on_c, 0, 72, 63
2, 4416, Note_on_c, 0, 72, 0
2, 4416, Note_on_c, 0, 77, 63
2, 4448, Note_on_c, 0, 77, 0
2, 4512, Note_on_c, 0, 69, 63
2, 4544, Note_on_c, 0, 69, 0
2, 4608, Note_on_c, 0, 67, 63
2, 4654, Note_on_c, 0, 67, 0
2, 4656, Note_on_c, 0, 69, 64
2, 4702, Note_on_c, 0, 69, 0
2, 4704, Note_on_c, 0, 71, 65
2, 4750, Note_on_c, 0, 71, 0
2, 4752, Note_on_c, 0, 72, 66
2, 4798, Note_on_c, 0, 72, 0
2, 4800, Note_on_c, 0, 74, 67
2, 4846, Note_on_c, 0, 74, 0
2, 4848, Note_on_c, 0, 76, 68
2, 4894, Note_on_c, 0, 76, 0
2, 4896, Note_on_c, 0, 77, 69
2, 4942, Note_on_c, 0, 77, 0
2, 4944, Note_on_c, 0, 80, 71
2, 4990, Note_on_c, 0, 80, 0
2, 4992, Note_on_c, 0, 79, 73
2, 5038, Note_on_c, 0, 79, 0
2, 5040, Note_on_c, 0, 77, 75
2, 5086, Note_on_c, 0, 77, 0
2, 5088, Note_on_c, 0, 76, 77
2, 5134, Note_on_c, 0, 76, 0
2, 5136, Note_on_c, 0, 74, 79
2, 5182, Note_on_c, 0, 74, 0
2, 5184, Note_on_c, 0, 76, 81
2, 5230, Note_on_c, 0, 76, 0
2, 5232, Note_on_c, 0, 79, 83
2, 5278, Note_on_c, 0, 79, 0
2, 5280, Note_on_c, 0, 77, 85
2, 5326, Note_on_c, 0, 77, 0
2, 5328, Note_on_c, 0, 76, 87
2, 5374, Note_on_c, 0, 76, 0
2, 5376, Note_on_c, 0, 74, 89
2, 5422, Note_on_c, 0, 74, 0
2, 5424, Note_on_c, 0, 72, 91
2, 5470, Note_on_c, 0, 72, 0
2, 5472, Note_on_c, 0, 70, 93
2, 5518, Note_on_c, 0, 70, 0
2, 5520, Note_on_c, 0, 74, 95
2, 5566, Note_on_c, 0, 74, 0
2, 5568, Note_on_c, 0, 72, 97
2, 5614, Note_on_c, 0, 72, 0
2, 5616, Note_on_c, 0, 70, 99
2, 5662, Note_on_c, 0, 70, 0
2, 5664, Note_on_c, 0, 69, 101
2, 5710, Note_on_c, 0, 69, 0
2, 5712, Note_on_c, 0, 67, 103
2, 5758, Note_on_c, 0, 67, 0
2, 5760, Note_on_c, 0, 69, 105
2, 5806, Note_on_c, 0, 69, 0
2, 5808, Note_on_c, 0, 70, 105
2, 5854, Note_on_c, 0, 70, 0
2, 5856, Note_on_c, 0, 69, 105
2, 5902, Note_on_c, 0, 69, 0
2, 5904, Note_on_c, 0, 67, 105
2, 5950, Note_on_c, 0, 67, 0
2, 5952, Note_on_c, 0, 69, 105
2, 5998, Note_on_c, 0, 69, 0
2, 6000, Note_on_c, 0, 65, 105
2, 6046, Note_on_c, 0, 65, 0
2, 6048, Note_on_c, 0, 62, 105
2, 6080, Note_on_c, 0, 62, 0
2, 6144, Note_on_c, 0, 67, 105
2, 6144, Note_on_c, 0, 67, 127
2, 6286, Note_on_c, 0, 67, 0
2, 6288, Note_on_c, 0, 67, 0
2, 6288, Note_on_c, 0, 69, 105
2, 6312, Note_on_c, 0, 69, 0
2, 6312, Note_on_c, 0, 70, 105
2, 6336, Note_on_c, 0, 70, 0
2, 6336, Note_on_c, 0, 65, 105
2, 6368, Note_on_c, 0, 65, 0
2, 6432, Note_on_c, 0, 65, 105
2, 6456, Note_on_c, 0, 65, 0
2, 6456, Note_on_c, 0, 64, 105
2, 6480, Note_on_c, 0, 64, 0
2, 6480, Note_on_c, 0, 65, 105
2, 6504, Note_on_c, 0, 65, 0
2, 6504, Note_on_c, 0, 64, 105
2, 6528, Note_on_c, 0, 64, 0
2, 6528, Note_on_c, 0, 65, 105
2, 6552, Note_on_c, 0, 65, 0
2, 6552, Note_on_c, 0, 64, 105
2, 6576, Note_on_c, 0, 64, 0
2, 6576, Note_on_c, 0, 62, 105
2, 6600, Note_on_c, 0, 62, 0
2, 6600, Note_on_c, 0, 64, 105
2, 6622, Note_on_c, 0, 64, 0
2, 6624, Note_on_c, 0, 57, 105
2, 6624, Note_on_c, 0, 65, 105
2, 6880, Note_on_c, 0, 65, 0
2, 6880, Note_on_c, 0, 57, 0
2, 6912, Note_on_c, 0, 62, 105
2, 6958, Note_on_c, 0, 62, 0
2, 6960, Note_on_c, 0, 61, 105
2, 7006, Note_on_c, 0, 61, 0
2, 7008, Note_on_c, 0, 62, 105
2, 7054, Note_on_c, 0, 62, 0
2, 7056, Note_on_c, 0, 57, 105
2, 7102, Note_on_c, 0, 57, 0
2, 7104, Note_on_c, 0, 62, 105
2, 7150, Note_on_c, 0, 62, 0
2, 7152, Note_on_c, 0, 65, 105
2, 7198, Note_on_c, 0, 65, 0
2, 7200, Note_on_c, 0, 64, 105
2, 7246, Note_on_c, 0, 64, 0
2, 7248, Note_on_c, 0, 62, 105
2, 7294, Note_on_c, 0, 62, 0
2, 7296, Note_on_c, 0, 64, 105
2, 7342, Note_on_c, 0, 64, 0
2, 7344, Note_on_c, 0, 57, 105
2, 7390, Note_on_c, 0, 57, 0
2, 7392, Note_on_c, 0, 64, 105
2, 7438, Note_on_c, 0, 64, 0
2, 7440, Note_on_c, 0, 67, 105
2, 7486, Note_on_c, 0, 67, 0
2, 7488, Note_on_c, 0, 65, 105
2, 7584, Note_on_c, 0, 65, 0
2, 7584, Note_on_c, 0, 69, 105
2, 7616, Note_on_c, 0, 69, 0
2, 7680, Note_on_c, 0, 69, 105
2, 7712, Note_on_c, 0, 69, 0
2, 7776, Note_on_c, 0, 69, 105
2, 7798, Note_on_c, 0, 69, 0
2, 7800, Note_on_c, 0, 67, 105
2, 7822, Note_on_c, 0, 67, 0
2, 7824, Note_on_c, 0, 69, 105
2, 8110, Note_on_c, 0, 69, 0
2, 8112, Note_on_c, 0, 70, 105
2, 8158, Note_on_c, 0, 70, 0
2, 8160, Note_on_c, 0, 69, 105
2, 8206, Note_on_c, 0, 69, 0
2, 8208, Note_on_c, 0, 77, 105
2, 8254, Note_on_c, 0, 77, 0
2, 8256, Note_on_c, 0, 74, 105
2, 8302, Note_on_c, 0, 74, 0
2, 8304, Note_on_c, 0, 69, 105
2, 8350, Note_on_c, 0, 69, 0
2, 8352, Note_on_c, 0, 70, 105
2, 8398, Note_on_c, 0, 70, 0
2, 8400, Note_on_c, 0, 69, 105
2, 8446, Note_on_c, 0, 69, 0
2, 8448, Note_on_c, 0, 70, 105
2, 8494, Note_on_c, 0, 70, 0
2, 8496, Note_on_c, 0, 67, 105
2, 8542, Note_on_c, 0, 67, 0
2, 8544, Note_on_c, 0, 70, 105
2, 8590, Note_on_c, 0, 70, 0
2, 8592, Note_on_c, 0, 74, 105
2, 8638, Note_on_c, 0, 74, 0
2, 8640, Note_on_c, 0, 76, 127
2, 8640, Note_on_c, 0, 76, 105
2, 8686, Note_on_c, 0, 76, 0
2, 8686, Note_on_c, 0, 76, 0
2, 8688, Note_on_c, 0, 77, 105
2, 8734, Note_on_c, 0, 77, 0
2, 8736, Note_on_c, 0, 76, 105
2, 8782, Note_on_c, 0, 76, 0
2, 8784, Note_on_c, 0, 72, 105
2, 8830, Note_on_c, 0, 72, 0
2, 8832, Note_on_c, 0, 79, 105
2, 8878, Note_on_c, 0, 79, 0
2, 8880, Note_on_c, 0, 70, 105
2, 8926, Note_on_c, 0, 70, 0
2, 8928, Note_on_c, 0, 69, 105
2, 8974, Note_on_c, 0, 69, 0
2, 8976, Note_on_c, 0, 67, 105
2, 9022, Note_on_c, 0, 67, 0
2, 9024, Note_on_c, 0, 69, 105
2, 9070, Note_on_c, 0, 69, 0
2, 9072, Note_on_c, 0, 65, 105
2, 9118, Note_on_c, 0, 65, 0
2, 9120, Note_on_c, 0, 69, 105
2, 9166, Note_on_c, 0, 69, 0
2, 9168, Note_on_c, 0, 72, 105
2, 9214, Note_on_c, 0, 72, 0
2, 9216, Note_on_c, 0, 74, 105
2, 9262, Note_on_c, 0, 74, 0
2, 9264, Note_on_c, 0, 75, 105
2, 9310, Note_on_c, 0, 75, 0
2, 9312, Note_on_c, 0, 74, 105
2, 9358, Note_on_c, 0, 74, 0
2, 9360, Note_on_c, 0, 72, 105
2, 9406, Note_on_c, 0, 72, 0
2, 9408, Note_on_c, 0, 74, 105
2, 9454, Note_on_c, 0, 74, 0
2, 9456, Note_on_c, 0, 70, 103
2, 9502, Note_on_c, 0, 70, 0
2, 9504, Note_on_c, 0, 72, 101
2, 9550, Note_on_c, 0, 72, 0
2, 9552, Note_on_c, 0, 74, 99
2, 9598, Note_on_c, 0, 74, 0
2, 9600, Note_on_c, 0, 72, 97
2, 9646, Note_on_c, 0, 72, 0
2, 9648, Note_on_c, 0, 70, 95
2, 9694, Note_on_c, 0, 70, 0
2, 9696, Note_on_c, 0, 72, 93
2, 9742, Note_on_c, 0, 72, 0
2, 9744, Note_on_c, 0, 69, 91
2, 9790, Note_on_c, 0, 69, 0
2, 9792, Note_on_c, 0, 70, 89
2, 9838, Note_on_c, 0, 70, 0
2, 9840, Note_on_c, 0, 72, 87
2, 9886, Note_on_c, 0, 72, 0
2, 9888, Note_on_c, 0, 70, 85
2, 9934, Note_on_c, 0, 70, 0
2, 9936, Note_on_c, 0, 69, 83
2, 9982, Note_on_c, 0, 69, 0
2, 9984, Note_on_c, 0, 70, 81
2, 10030, Note_on_c, 0, 70, 0
2, 10032, Note_on_c, 0, 67, 79
2, 10078, Note_on_c, 0, 67, 0
2, 10080, Note_on_c, 0, 69, 77
2, 10126, Note_on_c, 0, 69, 0
2, 10128, Note_on_c, 0, 70, 75
2, 10174, Note_on_c, 0, 70, 0
2, 10176, Note_on_c, 0, 69, 73
2, 10222, Note_on_c, 0, 69, 0
2, 10224, Note_on_c, 0, 67, 71
2, 10270, Note_on_c, 0, 67, 0
2, 10272, Note_on_c, 0, 69, 69
2, 10318, Note_on_c, 0, 69, 0
2, 10320, Note_on_c, 0, 65, 66
2, 10366, Note_on_c, 0, 65, 0
2, 10368, Note_on_c, 0, 70, 63
2, 10464, Note_on_c, 0, 70, 0
2, 10464, Note_on_c, 0, 79, 63
2, 10496, Note_on_c, 0, 79, 0
2, 10560, Note_on_c, 0, 67, 63
2, 10592, Note_on_c, 0, 67, 0
2, 10656, Note_on_c, 0, 69, 63
2, 10752, Note_on_c, 0, 69, 0
2, 10752, Note_on_c, 0, 77, 63
2, 10784, Note_on_c, 0, 77, 0
2, 10848, Note_on_c, 0, 65, 63
2, 10880, Note_on_c, 0, 65, 0
2, 10944, Note_on_c, 0, 74, 63
2, 11040, Note_on_c, 0, 74, 0
2, 11040, Note_on_c, 0, 77, 63
2, 11072, Note_on_c, 0, 77, 0
2, 11136, Note_on_c, 0, 70, 63
2, 11168, Note_on_c, 0, 70, 0
2, 11232, Note_on_c, 0, 72, 63
2, 11328, Note_on_c, 0, 72, 0
2, 11328, Note_on_c, 0, 77, 63
2, 11360, Note_on_c, 0, 77, 0
2, 11424, Note_on_c, 0, 69, 63
2, 11456, Note_on_c, 0, 69, 0
2, 11520, Note_on_c, 0, 67, 63
2, 11566, Note_on_c, 0, 67, 0
2, 11568, Note_on_c, 0, 69, 64
2, 11614, Note_on_c, 0, 69, 0
2, 11616, Note_on_c, 0, 71, 65
2, 11662, Note_on_c, 0, 71, 0
2, 11664, Note_on_c, 0, 72, 66
2, 11710, Note_on_c, 0, 72, 0
2, 11712, Note_on_c, 0, 74, 67
2, 11758, Note_on_c, 0, 74, 0
2, 11760, Note_on_c, 0, 76, 68
2, 11806, Note_on_c, 0, 76, 0
2, 11808, Note_on_c, 0, 77, 69
2, 11854, Note_on_c, 0, 77, 0
2, 11856, Note_on_c, 0, 80, 71
2, 11902, Note_on_c, 0, 80, 0
2, 11904, Note_on_c, 0, 79, 73
2, 11950, Note_on_c, 0, 79, 0
2, 11952, Note_on_c, 0, 77, 75
2, 11998, Note_on_c, 0, 77, 0
2, 12000, Note_on_c, 0, 76, 77
2, 12046, Note_on_c, 0, 76, 0
2, 12048, Note_on_c, 0, 74, 79
2, 12094, Note_on_c, 0, 74, 0
2, 12096, Note_on_c, 0, 76, 81
2, 12142, Note_on_c, 0, 76, 0
2, 12144, Note_on_c, 0, 79, 83
2, 12190, Note_on_c, 0, 79, 0
2, 12192, Note_on_c, 0, 77, 85
2, 12238, Note_on_c, 0, 77, 0
2, 12240, Note_on_c, 0, 76, 87
2, 12286, Note_on_c, 0, 76, 0
2, 12288, Note_on_c, 0, 74, 89
2, 12334, Note_on_c, 0, 74, 0
2, 12336, Note_on_c, 0, 72, 91
2, 12382, Note_on_c, 0, 72, 0
2, 12384, Note_on_c, 0, 70, 93
2, 12430, Note_on_c, 0, 70, 0
2, 12432, Note_on_c, 0, 74, 95
2, 12478, Note_on_c, 0, 74, 0
2, 12480, Note_on_c, 0, 72, 97
2, 12526, Note_on_c, 0, 72, 0
2, 12528, Note_on_c, 0, 70, 99
2, 12574, Note_on_c, 0, 70, 0
2, 12576, Note_on_c, 0, 69, 101
2, 12622, Note_on_c, 0, 69, 0
2, 12624, Note_on_c, 0, 67, 103
2, 12670, Note_on_c, 0, 67, 0
2, 12672, Note_on_c, 0, 69, 105
2, 12718, Note_on_c, 0, 69, 0
2, 12720, Note_on_c, 0, 70, 105
2, 12766, Note_on_c, 0, 70, 0
2, 12768, Note_on_c, 0, 69, 105
2, 12814, Note_on_c, 0, 69, 0
2, 12816, Note_on_c, 0, 67, 105
2, 12862, Note_on_c, 0, 67, 0
2, 12864, Note_on_c, 0, 69, 105
2, 12910, Note_on_c, 0, 69, 0
2, 12912, Note_on_c, 0, 65, 105
2, 12958, Note_on_c, 0, 65, 0
2, 12960, Note_on_c, 0, 62, 105
2, 12992, Note_on_c, 0, 62, 0
2, 13056, Note_on_c, 0, 67, 127
2, 13200, Note_on_c, 0, 67, 0
2, 13200, Note_on_c, 0, 69, 105
2, 13224, Note_on_c, 0, 69, 0
2, 13224, Note_on_c, 0, 70, 105
2, 13248, Note_on_c, 0, 70, 0
2, 13248, Note_on_c, 0, 65, 105
2, 13280, Note_on_c, 0, 65, 0
2, 13344, Note_on_c, 0, 64, 105
2, 13368, Note_on_c, 0, 64, 0
2, 13368, Note_on_c, 0, 65, 105
2, 13392, Note_on_c, 0, 65, 0
2, 13392, Note_on_c, 0, 64, 105
2, 13416, Note_on_c, 0, 64, 0
2, 13416, Note_on_c, 0, 65, 105
2, 13440, Note_on_c, 0, 65, 0
2, 13440, Note_on_c, 0, 62, 105
2, 13488, Note_on_c, 0, 62, 0
2, 13488, Note_on_c, 0, 64, 105
2, 13534, Note_on_c, 0, 64, 0
2, 13536, Note_on_c, 0, 57, 105
2, 13536, Note_on_c, 0, 65, 105
2, 13792, Note_on_c, 0, 65, 0
2, 13792, Note_on_c, 0, 57, 0
2, 13824, Note_on_c, 0, 81, 105
2, 13870, Note_on_c, 0, 81, 0
2, 13872, Note_on_c, 0, 82, 105
2, 13918, Note_on_c, 0, 82, 0
2, 13920, Note_on_c, 0, 81, 105
2, 13966, Note_on_c, 0, 81, 0
2, 13968, Note_on_c, 0, 84, 105
2, 14014, Note_on_c, 0, 84, 0
2, 14016, Note_on_c, 0, 81, 105
2, 14062, Note_on_c, 0, 81, 0
2, 14064, Note_on_c, 0, 77, 105
2, 14110, Note_on_c, 0, 77, 0
2, 14112, Note_on_c, 0, 79, 105
2, 14158, Note_on_c, 0, 79, 0
2, 14160, Note_on_c, 0, 81, 105
2, 14206, Note_on_c, 0, 81, 0
2, 14208, Note_on_c, 0, 79, 105
2, 14254, Note_on_c, 0, 79, 0
2, 14256, Note_on_c, 0, 84, 105
2, 14302, Note_on_c, 0, 84, 0
2, 14304, Note_on_c, 0, 79, 105
2, 14350, Note_on_c, 0, 79, 0
2, 14352, Note_on_c, 0, 76, 105
2, 14398, Note_on_c, 0, 76, 0
2, 14400, Note_on_c, 0, 77, 105
2, 14446, Note_on_c, 0, 77, 0
2, 14448, Note_on_c, 0, 81, 105
2, 14494, Note_on_c, 0, 81, 0
2, 14496, Note_on_c, 0, 79, 105
2, 14542, Note_on_c, 0, 79, 0
2, 14544, Note_on_c, 0, 77, 105
2, 14590, Note_on_c, 0, 77, 0
2, 14592, Note_on_c, 0, 76, 105
2, 14638, Note_on_c, 0, 76, 0
2, 14640, Note_on_c, 0, 74, 105
2, 14686, Note_on_c, 0, 74, 0
2, 14688, Note_on_c, 0, 76, 105
2, 14734, Note_on_c, 0, 76, 0
2, 14736, Note_on_c, 0, 74, 105
2, 14782, Note_on_c, 0, 74, 0
2, 14784, Note_on_c, 0, 72, 105
2, 14830, Note_on_c, 0, 72, 0
2, 14832, Note_on_c, 0, 74, 105
2, 14878, Note_on_c, 0, 74, 0
2, 14880, Note_on_c, 0, 76, 105
2, 14926, Note_on_c, 0, 76, 0
2, 14928, Note_on_c, 0, 77, 105
2, 14974, Note_on_c, 0, 77, 0
2, 14976, Note_on_c, 0, 79, 105
2, 15008, Note_on_c, 0, 79, 0
2, 15072, Note_on_c, 0, 78, 105
2, 15118, Note_on_c, 0, 78, 0
2, 15120, Note_on_c, 0, 79, 105
2, 15166, Note_on_c, 0, 79, 0
2, 15168, Note_on_c, 0, 81, 105
2, 15214, Note_on_c, 0, 81, 0
2, 15216, Note_on_c, 0, 78, 105
2, 15262, Note_on_c, 0, 78, 0
2, 15264, Note_on_c, 0, 79, 105
2, 15360, Note_on_c, 0, 79, 0
2, 15360, Note_on_c, 0, 74, 105
2, 15392, Note_on_c, 0, 74, 0
2, 15456, Note_on_c, 0, 75, 105
2, 15488, Note_on_c, 0, 75, 0
2, 15552, Note_on_c, 0, 72, 105
2, 15598, Note_on_c, 0, 72, 0
2, 15600, Note_on_c, 0, 75, 105
2, 15646, Note_on_c, 0, 75, 0
2, 15648, Note_on_c, 0, 74, 105
2, 15694, Note_on_c, 0, 74, 0
2, 15696, Note_on_c, 0, 72, 105
2, 15742, Note_on_c, 0, 72, 0
2, 15744, Note_on_c, 0, 70, 105
2, 15790, Note_on_c, 0, 70, 0
2, 15792, Note_on_c, 0, 69, 105
2, 15838, Note_on_c, 0, 69, 0
2, 15840, Note_on_c, 0, 70, 105
2, 15886, Note_on_c, 0, 70, 0
2, 15888, Note_on_c, 0, 69, 98
2, 15934, Note_on_c, 0, 69, 0
2, 15936, Note_on_c, 0, 67, 91
2, 15982, Note_on_c, 0, 67, 0
2, 15984, Note_on_c, 0, 69, 84
2, 16030, Note_on_c, 0, 69, 0
2, 16032, Note_on_c, 0, 70, 77
2, 16078, Note_on_c, 0, 70, 0
2, 16080, Note_on_c, 0, 67, 70
2, 16126, Note_on_c, 0, 67, 0
2, 16128, Note_on_c, 0, 69, 63
2, 16174, Note_on_c, 0, 69, 0
2, 16176, Note_on_c, 0, 67, 63
2, 16222, Note_on_c, 0, 67, 0
2, 16224, Note_on_c, 0, 69, 63
2, 16270, Note_on_c, 0, 69, 0
2, 16272, Note_on_c, 0, 74, 63
2, 16318, Note_on_c, 0, 74, 0
2, 16320, Note_on_c, 0, 70, 63
2, 16366, Note_on_c, 0, 70, 0
2, 16368, Note_on_c, 0, 74, 63
2, 16414, Note_on_c, 0, 74, 0
2, 16416, Note_on_c, 0, 66, 63
2, 16462, Note_on_c, 0, 66, 0
2, 16464, Note_on_c, 0, 64, 63
2, 16510, Note_on_c, 0, 64, 0
2, 16512, Note_on_c, 0, 66, 63
2, 16558, Note_on_c, 0, 66, 0
2, 16560, Note_on_c, 0, 74, 63
2, 16606, Note_on_c, 0, 74, 0
2, 16608, Note_on_c, 0, 67, 63
2, 16654, Note_on_c, 0, 67, 0
2, 16656, Note_on_c, 0, 74, 63
2, 16702, Note_on_c, 0, 74, 0
2, 16704, Note_on_c, 0, 69, 63
2, 16750, Note_on_c, 0, 69, 0
2, 16752, Note_on_c, 0, 67, 63
2, 16798, Note_on_c, 0, 67, 0
2, 16800, Note_on_c, 0, 69, 63
2, 16846, Note_on_c, 0, 69, 0
2, 16848, Note_on_c, 0, 74, 63
2, 16894, Note_on_c, 0, 74, 0
2, 16896, Note_on_c, 0, 67, 63
2, 16942, Note_on_c, 0, 67, 0
2, 16944, Note_on_c, 0, 74, 63
2, 16990, Note_on_c, 0, 74, 0
2, 16992, Note_on_c, 0, 66, 63
2, 17038, Note_on_c, 0, 66, 0
2, 17040, Note_on_c, 0, 64, 63
2, 17086, Note_on_c, 0, 64, 0
2, 17088, Note_on_c, 0, 66, 63
2, 17134, Note_on_c, 0, 66, 0
2, 17136, Note_on_c, 0, 74, 63
2, 17182, Note_on_c, 0, 74, 0
2, 17184, Note_on_c, 0, 69, 63
2, 17230, Note_on_c, 0, 69, 0
2, 17232, Note_on_c, 0, 72, 63
2, 17278, Note_on_c, 0, 72, 0
2, 17280, Note_on_c, 0, 70, 63
2, 17326, Note_on_c, 0, 70, 0
2, 17328, Note_on_c, 0, 69, 65
2, 17374, Note_on_c, 0, 69, 0
2, 17376, Note_on_c, 0, 70, 67
2, 17422, Note_on_c, 0, 70, 0
2, 17424, Note_on_c, 0, 74, 69
2, 17470, Note_on_c, 0, 74, 0
2, 17472, Note_on_c, 0, 76, 71
2, 17518, Note_on_c, 0, 76, 0
2, 17520, Note_on_c, 0, 79, 73
2, 17566, Note_on_c, 0, 79, 0
2, 17568, Note_on_c, 0, 69, 75
2, 17728, Note_on_c, 0, 69, 0
2, 17760, Note_on_c, 0, 81, 85
2, 17792, Note_on_c, 0, 81, 0
2, 17856, Note_on_c, 0, 74, 90
2, 17902, Note_on_c, 0, 74, 0
2, 17904, Note_on_c, 0, 77, 127
2, 17998, Note_on_c, 0, 77, 0
2, 18000, Note_on_c, 0, 76, 97
2, 18046, Note_on_c, 0, 76, 0
2, 18048, Note_on_c, 0, 74, 99
2, 18094, Note_on_c, 0, 74, 0
2, 18096, Note_on_c, 0, 73, 102
2, 18142, Note_on_c, 0, 73, 0
2, 18144, Note_on_c, 0, 74, 105
2, 18190, Note_on_c, 0, 74, 0
2, 18192, Note_on_c, 0, 76, 105
2, 18238, Note_on_c, 0, 76, 0
2, 18240, Note_on_c, 0, 77, 105
2, 18286, Note_on_c, 0, 77, 0
2, 18288, Note_on_c, 0, 76, 105
2, 18334, Note_on_c, 0, 76, 0
2, 18336, Note_on_c, 0, 77, 105
2, 18382, Note_on_c, 0, 77, 0
2, 18384, Note_on_c, 0, 74, 105
2, 18430, Note_on_c, 0, 74, 0
2, 18432, Note_on_c, 0, 73, 105
2, 18464, Note_on_c, 0, 73, 0
2, 18528, Note_on_c, 0, 81, 127
2, 18814, Note_on_c, 0, 81, 0
2, 18816, Note_on_c, 0, 74, 105
2, 18848, Note_on_c, 0, 74, 0
2, 18912, Note_on_c, 0, 72, 127
2, 19102, Note_on_c, 0, 72, 0
2, 19104, Note_on_c, 0, 70, 105
2, 19342, Note_on_c, 0, 70, 0
2, 19344, Note_on_c, 0, 69, 105
2, 19390, Note_on_c, 0, 69, 0
2, 19392, Note_on_c, 0, 67, 105
2, 19438, Note_on_c, 0, 67, 0
2, 19440, Note_on_c, 0, 65, 105
2, 19486, Note_on_c, 0, 65, 0
2, 19488, Note_on_c, 0, 64, 105
2, 19534, Note_on_c, 0, 64, 0
2, 19536, Note_on_c, 0, 73, 105
2, 19582, Note_on_c, 0, 73, 0
2, 19584, Note_on_c, 0, 74, 105
2, 19630, Note_on_c, 0, 74, 0
2, 19632, Note_on_c, 0, 76, 105
2, 19678, Note_on_c, 0, 76, 0
2, 19680, Note_on_c, 0, 74, 105
2, 19726, Note_on_c, 0, 74, 0
2, 19728, Note_on_c, 0, 73, 105
2, 19774, Note_on_c, 0, 73, 0
2, 19776, Note_on_c, 0, 74, 105
2, 19822, Note_on_c, 0, 74, 0
2, 19824, Note_on_c, 0, 77, 105
2, 19870, Note_on_c, 0, 77, 0
2, 19872, Note_on_c, 0, 67, 105
2, 19904, Note_on_c, 0, 67, 0
2, 19968, Note_on_c, 0, 73, 105
2, 20000, Note_on_c, 0, 73, 0
2, 20064, Note_on_c, 0, 76, 127
2, 20064, Note_on_c, 0, 76, 105
2, 20158, Note_on_c, 0, 76, 0
2, 20206, Note_on_c, 0, 76, 0
2, 20208, Note_on_c, 0, 70, 105
2, 20254, Note_on_c, 0, 70, 0
2, 20256, Note_on_c, 0, 69, 105
2, 20302, Note_on_c, 0, 69, 0
2, 20304, Note_on_c, 0, 67, 105
2, 20350, Note_on_c, 0, 67, 0
2, 20352, Note_on_c, 0, 65, 105
2, 20398, Note_on_c, 0, 65, 0
2, 20400, Note_on_c, 0, 64, 105
2, 20446, Note_on_c, 0, 64, 0
2, 20448, Note_on_c, 0, 53, 105
2, 20448, Note_on_c, 0, 62, 105
2, 20704, Note_on_c, 0, 62, 0
2, 20704, Note_on_c, 0, 53, 0
2, 20736, Note_on_c, 0, 81, 105
2, 20782, Note_on_c, 0, 81, 0
2, 20784, Note_on_c, 0, 82, 105
2, 20830, Note_on_c, 0, 82, 0
2, 20832, Note_on_c, 0, 81, 105
2, 20878, Note_on_c, 0, 81, 0
2, 20880, Note_on_c, 0, 84, 105
2, 20926, Note_on_c, 0, 84, 0
2, 20928, Note_on_c, 0, 81, 105
2, 20974, Note_on_c, 0, 81, 0
2, 20976, Note_on_c, 0, 77, 105
2, 21022, Note_on_c, 0, 77, 0
2, 21024, Note_on_c, 0, 79, 105
2, 21070, Note_on_c, 0, 79, 0
2, 21072, Note_on_c, 0, 81, 105
2, 21118, Note_on_c, 0, 81, 0
2, 21120, Note_on_c, 0, 79, 105
2, 21166, Note_on_c, 0, 79, 0
2, 21168, Note_on_c, 0, 84, 105
2, 21214, Note_on_c, 0, 84, 0
2, 21216, Note_on_c, 0, 79, 105
2, 21262, Note_on_c, 0, 79, 0
2, 21264, Note_on_c, 0, 76, 105
2, 21310, Note_on_c, 0, 76, 0
2, 21312, Note_on_c, 0, 77, 105
2, 21358, Note_on_c, 0, 77, 0
2, 21360, Note_on_c, 0, 81, 105
2, 21406, Note_on_c, 0, 81, 0
2, 21408, Note_on_c, 0, 79, 105
2, 21454, Note_on_c, 0, 79, 0
2, 21456, Note_on_c, 0, 77, 105
2, 21502, Note_on_c, 0, 77, 0
2, 21504, Note_on_c, 0, 76, 105
2, 21550, Note_on_c, 0, 76, 0
2, 21552, Note_on_c, 0, 74, 105
2, 21598, Note_on_c, 0, 74, 0
2, 21600, Note_on_c, 0, 76, 105
2, 21646, Note_on_c, 0, 76, 0
2, 21648, Note_on_c, 0, 74, 105
2, 21694, Note_on_c, 0, 74, 0
2, 21696, Note_on_c, 0, 72, 105
2, 21742, Note_on_c, 0, 72, 0
2, 21744, Note_on_c, 0, 74, 105
2, 21790, Note_on_c, 0, 74, 0
2, 21792, Note_on_c, 0, 76, 105
2, 21838, Note_on_c, 0, 76, 0
2, 21840, Note_on_c, 0, 77, 105
2, 21886, Note_on_c, 0, 77, 0
2, 21888, Note_on_c, 0, 79, 105
2, 21920, Note_on_c, 0, 79, 0
2, 21984, Note_on_c, 0, 78, 105
2, 22030, Note_on_c, 0, 78, 0
2, 22032, Note_on_c, 0, 79, 105
2, 22078, Note_on_c, 0, 79, 0
2, 22080, Note_on_c, 0, 81, 105
2, 22126, Note_on_c, 0, 81, 0
2, 22128, Note_on_c, 0, 78, 105
2, 22174, Note_on_c, 0, 78, 0
2, 22176, Note_on_c, 0, 79, 105
2, 22272, Note_on_c, 0, 79, 0
2, 22272, Note_on_c, 0, 74, 105
2, 22304, Note_on_c, 0, 74, 0
2, 22368, Note_on_c, 0, 75, 105
2, 22400, Note_on_c, 0, 75, 0
2, 22464, Note_on_c, 0, 72, 105
2, 22510, Note_on_c, 0, 72, 0
2, 22512, Note_on_c, 0, 75, 105
2, 22558, Note_on_c, 0, 75, 0
2, 22560, Note_on_c, 0, 74, 105
2, 22606, Note_on_c, 0, 74, 0
2, 22608, Note_on_c, 0, 72, 105
2, 22654, Note_on_c, 0, 72, 0
2, 22656, Note_on_c, 0, 70, 105
2, 22702, Note_on_c, 0, 70, 0
2, 22704, Note_on_c, 0, 69, 105
2, 22750, Note_on_c, 0, 69, 0
2, 22752, Note_on_c, 0, 70, 105
2, 22798, Note_on_c, 0, 70, 0
2, 22800, Note_on_c, 0, 69, 98
2, 22846, Note_on_c, 0, 69, 0
2, 22848, Note_on_c, 0, 67, 91
2, 22894, Note_on_c, 0, 67, 0
2, 22896, Note_on_c, 0, 69, 84
2, 22942, Note_on_c, 0, 69, 0
2, 22944, Note_on_c, 0, 70, 77
2, 22990, Note_on_c, 0, 70, 0
2, 22992, Note_on_c, 0, 67, 70
2, 23038, Note_on_c, 0, 67, 0
2, 23040, Note_on_c, 0, 69, 63
2, 23086, Note_on_c, 0, 69, 0
2, 23088, Note_on_c, 0, 67, 63
2, 23134, Note_on_c, 0, 67, 0
2, 23136, Note_on_c, 0, 69, 63
2, 23182, Note_on_c, 0, 69, 0
2, 23184, Note_on_c, 0, 74, 63
2, 23230, Note_on_c, 0, 74, 0
2, 23232, Note_on_c, 0, 70, 63
2, 23278, Note_on_c, 0, 70, 0
2, 23280, Note_on_c, 0, 74, 63
2, 23326, Note_on_c, 0, 74, 0
2, 23328, Note_on_c, 0, 66, 63
2, 23374, Note_on_c, 0, 66, 0
2, 23376, Note_on_c, 0, 64, 63
2, 23422, Note_on_c, 0, 64, 0
2, 23424, Note_on_c, 0, 66, 63
2, 23470, Note_on_c, 0, 66, 0
2, 23472, Note_on_c, 0, 74, 63
2, 23518, Note_on_c, 0, 74, 0
2, 23520, Note_on_c, 0, 67, 63
2, 23566, Note_on_c, 0, 67, 0
2, 23568, Note_on_c, 0, 74, 63
2, 23614, Note_on_c, 0, 74, 0
2, 23616, Note_on_c, 0, 69, 63
2, 23662, Note_on_c, 0, 69, 0
2, 23664, Note_on_c, 0, 67, 63
2, 23710, Note_on_c, 0, 67, 0
2, 23712, Note_on_c, 0, 69, 63
2, 23758, Note_on_c, 0, 69, 0
2, 23760, Note_on_c, 0, 74, 63
2, 23806, Note_on_c, 0, 74, 0
2, 23808, Note_on_c, 0, 67, 63
2, 23854, Note_on_c, 0, 67, 0
2, 23856, Note_on_c, 0, 74, 63
2, 23902, Note_on_c, 0, 74, 0
2, 23904, Note_on_c, 0, 66, 63
2, 23950, Note_on_c, 0, 66, 0
2, 23952, Note_on_c, 0, 64, 63
2, 23998, Note_on_c, 0, 64, 0
2, 24000, Note_on_c, 0, 66, 63
2, 24046, Note_on_c, 0, 66, 0
2, 24048, Note_on_c, 0, 74, 63
2, 24094, Note_on_c, 0, 74, 0
2, 24096, Note_on_c, 0, 69, 63
2, 24142, Note_on_c, 0, 69, 0
2, 24144, Note_on_c, 0, 72, 63
2, 24190, Note_on_c, 0, 72, 0
2, 24192, Note_on_c, 0, 70, 63
2, 24238, Note_on_c, 0, 70, 0
2, 24240, Note_on_c, 0, 69, 65
2, 24286, Note_on_c, 0, 69, 0
2, 24288, Note_on_c, 0, 70, 67
2, 24334, Note_on_c, 0, 70, 0
2, 24336, Note_on_c, 0, 74, 69
2, 24382, Note_on_c, 0, 74, 0
2, 24384, Note_on_c, 0, 76, 71
2, 24430, Note_on_c, 0, 76, 0
2, 24432, Note_on_c, 0, 79, 73
2, 24478, Note_on_c, 0, 79, 0
2, 24480, Note_on_c, 0, 69, 75
2, 24640, Note_on_c, 0, 69, 0
2, 24672, Note_on_c, 0, 81, 85
2, 24704, Note_on_c, 0, 81, 0
2, 24768, Note_on_c, 0, 74, 90
2, 24814, Note_on_c, 0, 74, 0
2, 24816, Note_on_c, 0, 77, 127
2, 24910, Note_on_c, 0, 77, 0
2, 24912, Note_on_c, 0, 76, 97
2, 24958, Note_on_c, 0, 76, 0
2, 24960, Note_on_c, 0, 74, 99
2, 25006, Note_on_c, 0, 74, 0
2, 25008, Note_on_c, 0, 73, 102
2, 25054, Note_on_c, 0, 73, 0
2, 25056, Note_on_c, 0, 74, 105
2, 25102, Note_on_c, 0, 74, 0
2, 25104, Note_on_c, 0, 76, 105
2, 25150, Note_on_c, 0, 76, 0
2, 25152, Note_on_c, 0, 77, 105
2, 25198, Note_on_c, 0, 77, 0
2, 25200, Note_on_c, 0, 76, 105
2, 25246, Note_on_c, 0, 76, 0
2, 25248, Note_on_c, 0, 77, 105
2, 25294, Note_on_c, 0, 77, 0
2, 25296, Note_on_c, 0, 74, 105
2, 25342, Note_on_c, 0, 74, 0
2, 25344, Note_on_c, 0, 73, 105
2, 25376, Note_on_c, 0, 73, 0
2, 25440, Note_on_c, 0, 81, 127
2, 25726, Note_on_c, 0, 81, 0
2, 25728, Note_on_c, 0, 74, 105
2, 25760, Note_on_c, 0, 74, 0
2, 25824, Note_on_c, 0, 72, 127
2, 26014, Note_on_c, 0, 72, 0
2, 26016, Note_on_c, 0, 70, 105
2, 26254, Note_on_c, 0, 70, 0
2, 26256, Note_on_c, 0, 69, 105
2, 26302, Note_on_c, 0, 69, 0
2, 26304, Note_on_c, 0, 67, 105
2, 26350, Note_on_c, 0, 67, 0
2, 26352, Note_on_c, 0, 65, 105
2, 26398, Note_on_c, 0, 65, 0
2, 26400, Note_on_c, 0, 64, 105
2, 26446, Note_on_c, 0, 64, 0
2, 26448, Note_on_c, 0, 73, 105
2, 26494, Note_on_c, 0, 73, 0
2, 26496, Note_on_c, 0, 74, 105
2, 26542, Note_on_c, 0, 74, 0
2, 26544, Note_on_c, 0, 76, 105
2, 26590, Note_on_c, 0, 76, 0
2, 26592, Note_on_c, 0, 74, 105
2, 26638, Note_on_c, 0, 74, 0
2, 26640, Note_on_c, 0, 73, 105
2, 26686, Note_on_c, 0, 73, 0
2, 26688, Note_on_c, 0, 74, 105
2, 26734, Note_on_c, 0, 74, 0
2, 26736, Note_on_c, 0, 77, 105
2, 26782, Note_on_c, 0, 77, 0
2, 26784, Note_on_c, 0, 67, 105
2, 26816, Note_on_c, 0, 67, 0
2, 26880, Note_on_c, 0, 73, 105
2, 26912, Note_on_c, 0, 73, 0
2, 26976, Note_on_c, 0, 76, 127
2, 26976, Note_on_c, 0, 76, 105
2, 27070, Note_on_c, 0, 76, 0
2, 27118, Note_on_c, 0, 76, 0
2, 27120, Note_on_c, 0, 70, 105
2, 27166, Note_on_c, 0, 70, 0
2, 27168, Note_on_c, 0, 69, 105
2, 27214, Note_on_c, 0, 69, 0
2, 27216, Note_on_c, 0, 67, 105
2, 27262, Note_on_c, 0, 67, 0
2, 27264, Note_on_c, 0, 65, 105
2, 27310, Note_on_c, 0, 65, 0
2, 27312, Note_on_c, 0, 64, 105
2, 27358, Note_on_c, 0, 64, 0
2, 27360, Note_on_c, 0, 53, 105
2, 27360, Note_on_c, 0, 62, 105
2, 27616, Note_on_c, 0, 62, 0
2, 27616, Note_on_c, 0, 53, 0
2, 27616, End_track
3, 0, Start_track
3, 0, MIDI_port, 0
3, 0, Title_t, "Left Hand"
3, 0, Program_c, 1, 0
3, 0, Control_c, 1, 7, 127
3, 0, Control_c, 1, 10, 55
3, 0, Control_c, 1, 91, 63
3, 0, Control_c, 1, 93, 0
3, 576, Note_on_c, 1, 50, 105
3, 622, Note_on_c, 1, 50, 0
3, 624, Note_on_c, 1, 49, 105
3, 670, Note_on_c, 1, 49, 0
3, 672, Note_on_c, 1, 50, 105
3, 718, Note_on_c, 1, 50, 0
3, 720, Note_on_c, 1, 45, 105
3, 766, Note_on_c, 1, 45, 0
3, 768, Note_on_c, 1, 50, 105
3, 814, Note_on_c, 1, 50, 0
3, 816, Note_on_c, 1, 53, 105
3, 862, Note_on_c, 1, 53, 0
3, 864, Note_on_c, 1, 52, 105
3, 910, Note_on_c, 1, 52, 0
3, 912, Note_on_c, 1, 50, 105
3, 958, Note_on_c, 1, 50, 0
3, 960, Note_on_c, 1, 52, 105
3, 1006, Note_on_c, 1, 52, 0
3, 1008, Note_on_c, 1, 45, 105
3, 1054, Note_on_c, 1, 45, 0
3, 1056, Note_on_c, 1, 52, 105
3, 1102, Note_on_c, 1, 52, 0
3, 1104, Note_on_c, 1, 55, 105
3, 1150, Note_on_c, 1, 55, 0
3, 1152, Note_on_c, 1, 53, 105
3, 1246, Note_on_c, 1, 53, 0
3, 1248, Note_on_c, 1, 50, 105
3, 1280, Note_on_c, 1, 50, 0
3, 1344, Note_on_c, 1, 53, 105
3, 1376, Note_on_c, 1, 53, 0
3, 1440, Note_on_c, 1, 55, 105
3, 1472, Note_on_c, 1, 55, 0
3, 1536, Note_on_c, 1, 43, 105
3, 1568, Note_on_c, 1, 43, 0
3, 1824, Note_on_c, 1, 48, 105
3, 1856, Note_on_c, 1, 48, 0
3, 1920, Note_on_c, 1, 52, 105
3, 1952, Note_on_c, 1, 52, 0
3, 2016, Note_on_c, 1, 53, 105
3, 2048, Note_on_c, 1, 53, 0
3, 2112, Note_on_c, 1, 41, 105
3, 2144, Note_on_c, 1, 41, 0
3, 2304, Note_on_c, 1, 58, 105
3, 2400, Note_on_c, 1, 58, 0
3, 2400, Note_on_c, 1, 67, 105
3, 2432, Note_on_c, 1, 67, 0
3, 2496, Note_on_c, 1, 55, 105
3, 2528, Note_on_c, 1, 55, 0
3, 2592, Note_on_c, 1, 57, 101
3, 2688, Note_on_c, 1, 57, 0
3, 2688, Note_on_c, 1, 65, 97
3, 2720, Note_on_c, 1, 65, 0
3, 2784, Note_on_c, 1, 53, 93
3, 2816, Note_on_c, 1, 53, 0
3, 2880, Note_on_c, 1, 55, 89
3, 2976, Note_on_c, 1, 55, 0
3, 2976, Note_on_c, 1, 64, 85
3, 3008, Note_on_c, 1, 64, 0
3, 3072, Note_on_c, 1, 52, 81
3, 3104, Note_on_c, 1, 52, 0
3, 3168, Note_on_c, 1, 53, 77
3, 3200, Note_on_c, 1, 53, 0
3, 3264, Note_on_c, 1, 60, 73
3, 3296, Note_on_c, 1, 60, 0
3, 3360, Note_on_c, 1, 63, 68
3, 3392, Note_on_c, 1, 63, 0
3, 3456, Note_on_c, 1, 62, 63
3, 3502, Note_on_c, 1, 62, 0
3, 3504, Note_on_c, 1, 63, 63
3, 3550, Note_on_c, 1, 63, 0
3, 3552, Note_on_c, 1, 62, 63
3, 3598, Note_on_c, 1, 62, 0
3, 3600, Note_on_c, 1, 60, 63
3, 3646, Note_on_c, 1, 60, 0
3, 3648, Note_on_c, 1, 62, 63
3, 3694, Note_on_c, 1, 62, 0
3, 3696, Note_on_c, 1, 58, 63
3, 3742, Note_on_c, 1, 58, 0
3, 3744, Note_on_c, 1, 60, 63
3, 3790, Note_on_c, 1, 60, 0
3, 3792, Note_on_c, 1, 62, 63
3, 3838, Note_on_c, 1, 62, 0
3, 3840, Note_on_c, 1, 60, 63
3, 3886, Note_on_c, 1, 60, 0
3, 3888, Note_on_c, 1, 58, 63
3, 3934, Note_on_c, 1, 58, 0
3, 3936, Note_on_c, 1, 60, 63
3, 3982, Note_on_c, 1, 60, 0
3, 3984, Note_on_c, 1, 57, 63
3, 4030, Note_on_c, 1, 57, 0
3, 4032, Note_on_c, 1, 58, 63
3, 4078, Note_on_c, 1, 58, 0
3, 4080, Note_on_c, 1, 60, 63
3, 4126, Note_on_c, 1, 60, 0
3, 4128, Note_on_c, 1, 58, 63
3, 4174, Note_on_c, 1, 58, 0
3, 4176, Note_on_c, 1, 57, 63
3, 4222, Note_on_c, 1, 57, 0
3, 4224, Note_on_c, 1, 58, 63
3, 4270, Note_on_c, 1, 58, 0
3, 4272, Note_on_c, 1, 55, 63
3, 4318, Note_on_c, 1, 55, 0
3, 4320, Note_on_c, 1, 57, 63
3, 4366, Note_on_c, 1, 57, 0
3, 4368, Note_on_c, 1, 58, 63
3, 4414, Note_on_c, 1, 58, 0
3, 4416, Note_on_c, 1, 57, 63
3, 4462, Note_on_c, 1, 57, 0
3, 4464, Note_on_c, 1, 55, 63
3, 4510, Note_on_c, 1, 55, 0
3, 4512, Note_on_c, 1, 57, 63
3, 4558, Note_on_c, 1, 57, 0
3, 4560, Note_on_c, 1, 53, 63
3, 4606, Note_on_c, 1, 53, 0
3, 4608, Note_on_c, 1, 58, 63
3, 4640, Note_on_c, 1, 58, 0
3, 4704, Note_on_c, 1, 62, 66
3, 4736, Note_on_c, 1, 62, 0
3, 4800, Note_on_c, 1, 65, 69
3, 4832, Note_on_c, 1, 65, 0
3, 4896, Note_on_c, 1, 62, 72
3, 4928, Note_on_c, 1, 62, 0
3, 4992, Note_on_c, 1, 59, 75
3, 5024, Note_on_c, 1, 59, 0
3, 5088, Note_on_c, 1, 55, 78
3, 5120, Note_on_c, 1, 55, 0
3, 5184, Note_on_c, 1, 60, 81
3, 5216, Note_on_c, 1, 60, 0
3, 5280, Note_on_c, 1, 55, 85
3, 5312, Note_on_c, 1, 55, 0
3, 5376, Note_on_c, 1, 52, 89
3, 5408, Note_on_c, 1, 52, 0
3, 5472, Note_on_c, 1, 48, 93
3, 5504, Note_on_c, 1, 48, 0
3, 5568, Note_on_c, 1, 50, 97
3, 5600, Note_on_c, 1, 50, 0
3, 5664, Note_on_c, 1, 52, 101
3, 5696, Note_on_c, 1, 52, 0
3, 5760, Note_on_c, 1, 53, 105
3, 5806, Note_on_c, 1, 53, 0
3, 5808, Note_on_c, 1, 52, 105
3, 5854, Note_on_c, 1, 52, 0
3, 5856, Note_on_c, 1, 53, 105
3, 5902, Note_on_c, 1, 53, 0
3, 5904, Note_on_c, 1, 48, 105
3, 5950, Note_on_c, 1, 48, 0
3, 5952, Note_on_c, 1, 53, 105
3, 5998, Note_on_c, 1, 53, 0
3, 6000, Note_on_c, 1, 57, 105
3, 6046, Note_on_c, 1, 57, 0
3, 6048, Note_on_c, 1, 58, 105
3, 6094, Note_on_c, 1, 58, 0
3, 6096, Note_on_c, 1, 57, 105
3, 6142, Note_on_c, 1, 57, 0
3, 6144, Note_on_c, 1, 58, 105
3, 6190, Note_on_c, 1, 58, 0
3, 6192, Note_on_c, 1, 55, 105
3, 6238, Note_on_c, 1, 55, 0
3, 6240, Note_on_c, 1, 58, 105
3, 6286, Note_on_c, 1, 58, 0
3, 6288, Note_on_c, 1, 62, 105
3, 6334, Note_on_c, 1, 62, 0
3, 6336, Note_on_c, 1, 60, 105
3, 6382, Note_on_c, 1, 60, 0
3, 6384, Note_on_c, 1, 62, 105
3, 6430, Note_on_c, 1, 62, 0
3, 6432, Note_on_c, 1, 60, 105
3, 6478, Note_on_c, 1, 60, 0
3, 6480, Note_on_c, 1, 58, 105
3, 6526, Note_on_c, 1, 58, 0
3, 6528, Note_on_c, 1, 57, 105
3, 6574, Note_on_c, 1, 57, 0
3, 6576, Note_on_c, 1, 55, 105
3, 6622, Note_on_c, 1, 55, 0
3, 6672, Note_on_c, 1, 53, 98
3, 6718, Note_on_c, 1, 53, 0
3, 6720, Note_on_c, 1, 48, 91
3, 6766, Note_on_c, 1, 48, 0
3, 6768, Note_on_c, 1, 45, 84
3, 6814, Note_on_c, 1, 45, 0
3, 6816, Note_on_c, 1, 41, 77
3, 6910, Note_on_c, 1, 41, 0
3, 7488, Note_on_c, 1, 50, 105
3, 7534, Note_on_c, 1, 50, 0
3, 7536, Note_on_c, 1, 49, 105
3, 7582, Note_on_c, 1, 49, 0
3, 7584, Note_on_c, 1, 50, 105
3, 7630, Note_on_c, 1, 50, 0
3, 7632, Note_on_c, 1, 45, 105
3, 7678, Note_on_c, 1, 45, 0
3, 7680, Note_on_c, 1, 50, 105
3, 7726, Note_on_c, 1, 50, 0
3, 7728, Note_on_c, 1, 53, 105
3, 7774, Note_on_c, 1, 53, 0
3, 7776, Note_on_c, 1, 52, 105
3, 7822, Note_on_c, 1, 52, 0
3, 7824, Note_on_c, 1, 50, 105
3, 7870, Note_on_c, 1, 50, 0
3, 7872, Note_on_c, 1, 52, 105
3, 7918, Note_on_c, 1, 52, 0
3, 7920, Note_on_c, 1, 45, 105
3, 7966, Note_on_c, 1, 45, 0
3, 7968, Note_on_c, 1, 52, 105
3, 8014, Note_on_c, 1, 52, 0
3, 8016, Note_on_c, 1, 55, 105
3, 8062, Note_on_c, 1, 55, 0
3, 8064, Note_on_c, 1, 53, 105
3, 8158, Note_on_c, 1, 53, 0
3, 8160, Note_on_c, 1, 50, 105
3, 8192, Note_on_c, 1, 50, 0
3, 8256, Note_on_c, 1, 53, 105
3, 8288, Note_on_c, 1, 53, 0
3, 8352, Note_on_c, 1, 55, 105
3, 8384, Note_on_c, 1, 55, 0
3, 8448, Note_on_c, 1, 43, 105
3, 8480, Note_on_c, 1, 43, 0
3, 8736, Note_on_c, 1, 48, 105
3, 8768, Note_on_c, 1, 48, 0
3, 8832, Note_on_c, 1, 52, 105
3, 8864, Note_on_c, 1, 52, 0
3, 8928, Note_on_c, 1, 53, 105
3, 8960, Note_on_c, 1, 53, 0
3, 9024, Note_on_c, 1, 41, 105
3, 9056, Note_on_c, 1, 41, 0
3, 9216, Note_on_c, 1, 58, 105
3, 9312, Note_on_c, 1, 58, 0
3, 9312, Note_on_c, 1, 67, 105
3, 9344, Note_on_c, 1, 67, 0
3, 9408, Note_on_c, 1, 55, 105
3, 9440, Note_on_c, 1, 55, 0
3, 9504, Note_on_c, 1, 57, 101
3, 9600, Note_on_c, 1, 57, 0
3, 9600, Note_on_c, 1, 65, 97
3, 9632, Note_on_c, 1, 65, 0
3, 9696, Note_on_c, 1, 53, 93
3, 9728, Note_on_c, 1, 53, 0
3, 9792, Note_on_c, 1, 55, 89
3, 9888, Note_on_c, 1, 55, 0
3, 9888, Note_on_c, 1, 64, 85
3, 9920, Note_on_c, 1, 64, 0
3, 9984, Note_on_c, 1, 52, 81
3, 10016, Note_on_c, 1, 52, 0
3, 10080, Note_on_c, 1, 53, 77
3, 10112, Note_on_c, 1, 53, 0
3, 10176, Note_on_c, 1, 60, 73
3, 10208, Note_on_c, 1, 60, 0
3, 10272, Note_on_c, 1, 63, 68
3, 10304, Note_on_c, 1, 63, 0
3, 10368, Note_on_c, 1, 62, 63
3, 10414, Note_on_c, 1, 62, 0
3, 10416, Note_on_c, 1, 63, 63
3, 10462, Note_on_c, 1, 63, 0
3, 10464, Note_on_c, 1, 62, 63
3, 10510, Note_on_c, 1, 62, 0
3, 10512, Note_on_c, 1, 60, 63
3, 10558, Note_on_c, 1, 60, 0
3, 10560, Note_on_c, 1, 62, 63
3, 10606, Note_on_c, 1, 62, 0
3, 10608, Note_on_c, 1, 58, 63
3, 10654, Note_on_c, 1, 58, 0
3, 10656, Note_on_c, 1, 60, 63
3, 10702, Note_on_c, 1, 60, 0
3, 10704, Note_on_c, 1, 62, 63
3, 10750, Note_on_c, 1, 62, 0
3, 10752, Note_on_c, 1, 60, 63
3, 10798, Note_on_c, 1, 60, 0
3, 10800, Note_on_c, 1, 58, 63
3, 10846, Note_on_c, 1, 58, 0
3, 10848, Note_on_c, 1, 60, 63
3, 10894, Note_on_c, 1, 60, 0
3, 10896, Note_on_c, 1, 57, 63
3, 10942, Note_on_c, 1, 57, 0
3, 10944, Note_on_c, 1, 58, 63
3, 10990, Note_on_c, 1, 58, 0
3, 10992, Note_on_c, 1, 60, 63
3, 11038, Note_on_c, 1, 60, 0
3, 11040, Note_on_c, 1, 58, 63
3, 11086, Note_on_c, 1, 58, 0
3, 11088, Note_on_c, 1, 57, 63
3, 11134, Note_on_c, 1, 57, 0
3, 11136, Note_on_c, 1, 58, 63
3, 11182, Note_on_c, 1, 58, 0
3, 11184, Note_on_c, 1, 55, 63
3, 11230, Note_on_c, 1, 55, 0
3, 11232, Note_on_c, 1, 57, 63
3, 11278, Note_on_c, 1, 57, 0
3, 11280, Note_on_c, 1, 58, 63
3, 11326, Note_on_c, 1, 58, 0
3, 11328, Note_on_c, 1, 57, 63
3, 11374, Note_on_c, 1, 57, 0
3, 11376, Note_on_c, 1, 55, 63
3, 11422, Note_on_c, 1, 55, 0
3, 11424, Note_on_c, 1, 57, 63
3, 11470, Note_on_c, 1, 57, 0
3, 11472, Note_on_c, 1, 53, 63
3, 11518, Note_on_c, 1, 53, 0
3, 11520, Note_on_c, 1, 58, 63
3, 11552, Note_on_c, 1, 58, 0
3, 11616, Note_on_c, 1, 62, 66
3, 11648, Note_on_c, 1, 62, 0
3, 11712, Note_on_c, 1, 65, 69
3, 11744, Note_on_c, 1, 65, 0
3, 11808, Note_on_c, 1, 62, 72
3, 11840, Note_on_c, 1, 62, 0
3, 11904, Note_on_c, 1, 59, 75
3, 11936, Note_on_c, 1, 59, 0
3, 12000, Note_on_c, 1, 55, 78
3, 12032, Note_on_c, 1, 55, 0
3, 12096, Note_on_c, 1, 60, 81
3, 12128, Note_on_c, 1, 60, 0
3, 12192, Note_on_c, 1, 55, 85
3, 12224, Note_on_c, 1, 55, 0
3, 12288, Note_on_c, 1, 52, 89
3, 12320, Note_on_c, 1, 52, 0
3, 12384, Note_on_c, 1, 48, 93
3, 12416, Note_on_c, 1, 48, 0
3, 12480, Note_on_c, 1, 50, 97
3, 12512, Note_on_c, 1, 50, 0
3, 12576, Note_on_c, 1, 52, 101
3, 12608, Note_on_c, 1, 52, 0
3, 12672, Note_on_c, 1, 53, 105
3, 12718, Note_on_c, 1, 53, 0
3, 12720, Note_on_c, 1, 52, 105
3, 12766, Note_on_c, 1, 52, 0
3, 12768, Note_on_c, 1, 53, 105
3, 12814, Note_on_c, 1, 53, 0
3, 12816, Note_on_c, 1, 48, 105
3, 12862, Note_on_c, 1, 48, 0
3, 12864, Note_on_c, 1, 53, 105
3, 12910, Note_on_c, 1, 53, 0
3, 12912, Note_on_c, 1, 57, 105
3, 12958, Note_on_c, 1, 57, 0
3, 12960, Note_on_c, 1, 58, 105
3, 13006, Note_on_c, 1, 58, 0
3, 13008, Note_on_c, 1, 57, 105
3, 13054, Note_on_c, 1, 57, 0
3, 13056, Note_on_c, 1, 58, 105
3, 13102, Note_on_c, 1, 58, 0
3, 13104, Note_on_c, 1, 55, 105
3, 13150, Note_on_c, 1, 55, 0
3, 13152, Note_on_c, 1, 58, 105
3, 13198, Note_on_c, 1, 58, 0
3, 13200, Note_on_c, 1, 62, 105
3, 13246, Note_on_c, 1, 62, 0
3, 13248, Note_on_c, 1, 60, 105
3, 13294, Note_on_c, 1, 60, 0
3, 13296, Note_on_c, 1, 62, 105
3, 13342, Note_on_c, 1, 62, 0
3, 13344, Note_on_c, 1, 60, 105
3, 13390, Note_on_c, 1, 60, 0
3, 13392, Note_on_c, 1, 58, 105
3, 13438, Note_on_c, 1, 58, 0
3, 13440, Note_on_c, 1, 57, 105
3, 13486, Note_on_c, 1, 57, 0
3, 13488, Note_on_c, 1, 55, 105
3, 13534, Note_on_c, 1, 55, 0
3, 13584, Note_on_c, 1, 53, 98
3, 13630, Note_on_c, 1, 53, 0
3, 13632, Note_on_c, 1, 48, 91
3, 13678, Note_on_c, 1, 48, 0
3, 13680, Note_on_c, 1, 45, 84
3, 13726, Note_on_c, 1, 45, 0
3, 13728, Note_on_c, 1, 41, 77
3, 13822, Note_on_c, 1, 41, 0
3, 13824, Note_on_c, 1, 65, 105
3, 13920, Note_on_c, 1, 65, 0
3, 13920, Note_on_c, 1, 53, 105
3, 13952, Note_on_c, 1, 53, 0
3, 14016, Note_on_c, 1, 65, 105
3, 14048, Note_on_c, 1, 65, 0
3, 14112, Note_on_c, 1, 64, 105
3, 14208, Note_on_c, 1, 64, 0
3, 14208, Note_on_c, 1, 57, 105
3, 14240, Note_on_c, 1, 57, 0
3, 14304, Note_on_c, 1, 60, 105
3, 14336, Note_on_c, 1, 60, 0
3, 14400, Note_on_c, 1, 62, 105
3, 14432, Note_on_c, 1, 62, 0
3, 14496, Note_on_c, 1, 59, 105
3, 14528, Note_on_c, 1, 59, 0
3, 14592, Note_on_c, 1, 55, 105
3, 14624, Note_on_c, 1, 55, 0
3, 14688, Note_on_c, 1, 60, 105
3, 14720, Note_on_c, 1, 60, 0
3, 14784, Note_on_c, 1, 52, 105
3, 14816, Note_on_c, 1, 52, 0
3, 14880, Note_on_c, 1, 55, 105
3, 14912, Note_on_c, 1, 55, 0
3, 14976, Note_on_c, 1, 48, 105
3, 15022, Note_on_c, 1, 48, 0
3, 15024, Note_on_c, 1, 50, 105
3, 15070, Note_on_c, 1, 50, 0
3, 15072, Note_on_c, 1, 48, 105
3, 15118, Note_on_c, 1, 48, 0
3, 15120, Note_on_c, 1, 51, 105
3, 15166, Note_on_c, 1, 51, 0
3, 15168, Note_on_c, 1, 48, 105
3, 15214, Note_on_c, 1, 48, 0
3, 15216, Note_on_c, 1, 45, 105
3, 15262, Note_on_c, 1, 45, 0
3, 15264, Note_on_c, 1, 46, 105
3, 15310, Note_on_c, 1, 46, 0
3, 15312, Note_on_c, 1, 48, 105
3, 15358, Note_on_c, 1, 48, 0
3, 15360, Note_on_c, 1, 46, 105
3, 15406, Note_on_c, 1, 46, 0
3, 15408, Note_on_c, 1, 50, 105
3, 15454, Note_on_c, 1, 50, 0
3, 15456, Note_on_c, 1, 46, 105
3, 15502, Note_on_c, 1, 46, 0
3, 15504, Note_on_c, 1, 43, 105
3, 15550, Note_on_c, 1, 43, 0
3, 15552, Note_on_c, 1, 45, 105
3, 15598, Note_on_c, 1, 45, 0
3, 15600, Note_on_c, 1, 48, 105
3, 15646, Note_on_c, 1, 48, 0
3, 15648, Note_on_c, 1, 46, 105
3, 15694, Note_on_c, 1, 46, 0
3, 15696, Note_on_c, 1, 45, 105
3, 15742, Note_on_c, 1, 45, 0
3, 15744, Note_on_c, 1, 43, 105
3, 15790, Note_on_c, 1, 43, 0
3, 15792, Note_on_c, 1, 42, 105
3, 15838, Note_on_c, 1, 42, 0
3, 15840, Note_on_c, 1, 43, 105
3, 15886, Note_on_c, 1, 43, 0
3, 15888, Note_on_c, 1, 45, 98
3, 15934, Note_on_c, 1, 45, 0
3, 15936, Note_on_c, 1, 46, 91
3, 15982, Note_on_c, 1, 46, 0
3, 15984, Note_on_c, 1, 48, 84
3, 16030, Note_on_c, 1, 48, 0
3, 16032, Note_on_c, 1, 50, 77
3, 16078, Note_on_c, 1, 50, 0
3, 16080, Note_on_c, 1, 52, 70
3, 16126, Note_on_c, 1, 52, 0
3, 16128, Note_on_c, 1, 54, 63
3, 16224, Note_on_c, 1, 54, 0
3, 16224, Note_on_c, 1, 50, 63
3, 16256, Note_on_c, 1, 50, 0
3, 16320, Note_on_c, 1, 55, 63
3, 16352, Note_on_c, 1, 55, 0
3, 16416, Note_on_c, 1, 57, 63
3, 16512, Note_on_c, 1, 57, 0
3, 16512, Note_on_c, 1, 50, 63
3, 16544, Note_on_c, 1, 50, 0
3, 16608, Note_on_c, 1, 58, 63
3, 16640, Note_on_c, 1, 58, 0
3, 16704, Note_on_c, 1, 60, 63
3, 16800, Note_on_c, 1, 60, 0
3, 16800, Note_on_c, 1, 50, 63
3, 16832, Note_on_c, 1, 50, 0
3, 16896, Note_on_c, 1, 58, 63
3, 16928, Note_on_c, 1, 58, 0
3, 16992, Note_on_c, 1, 57, 63
3, 17088, Note_on_c, 1, 57, 0
3, 17088, Note_on_c, 1, 50, 63
3, 17120, Note_on_c, 1, 50, 0
3, 17184, Note_on_c, 1, 54, 63
3, 17216, Note_on_c, 1, 54, 0
3, 17280, Note_on_c, 1, 55, 63
3, 17326, Note_on_c, 1, 55, 0
3, 17328, Note_on_c, 1, 54, 65
3, 17374, Note_on_c, 1, 54, 0
3, 17376, Note_on_c, 1, 55, 67
3, 17422, Note_on_c, 1, 55, 0
3, 17424, Note_on_c, 1, 58, 69
3, 17470, Note_on_c, 1, 58, 0
3, 17472, Note_on_c, 1, 55, 71
3, 17518, Note_on_c, 1, 55, 0
3, 17520, Note_on_c, 1, 52, 73
3, 17566, Note_on_c, 1, 52, 0
3, 17568, Note_on_c, 1, 49, 75
3, 17614, Note_on_c, 1, 49, 0
3, 17616, Note_on_c, 1, 47, 77
3, 17662, Note_on_c, 1, 47, 0
3, 17664, Note_on_c, 1, 49, 79
3, 17710, Note_on_c, 1, 49, 0
3, 17712, Note_on_c, 1, 52, 81
3, 17758, Note_on_c, 1, 52, 0
3, 17760, Note_on_c, 1, 49, 83
3, 17806, Note_on_c, 1, 49, 0
3, 17808, Note_on_c, 1, 45, 85
3, 17854, Note_on_c, 1, 45, 0
3, 17856, Note_on_c, 1, 41, 87
3, 17888, Note_on_c, 1, 41, 0
3, 17952, Note_on_c, 1, 43, 93
3, 17984, Note_on_c, 1, 43, 0
3, 18048, Note_on_c, 1, 45, 99
3, 18080, Note_on_c, 1, 45, 0
3, 18144, Note_on_c, 1, 50, 105
3, 18190, Note_on_c, 1, 50, 0
3, 18192, Note_on_c, 1, 49, 105
3, 18238, Note_on_c, 1, 49, 0
3, 18240, Note_on_c, 1, 50, 105
3, 18286, Note_on_c, 1, 50, 0
3, 18288, Note_on_c, 1, 45, 105
3, 18334, Note_on_c, 1, 45, 0
3, 18336, Note_on_c, 1, 50, 105
3, 18382, Note_on_c, 1, 50, 0
3, 18384, Note_on_c, 1, 53, 105
3, 18430, Note_on_c, 1, 53, 0
3, 18432, Note_on_c, 1, 52, 105
3, 18478, Note_on_c, 1, 52, 0
3, 18480, Note_on_c, 1, 50, 105
3, 18526, Note_on_c, 1, 50, 0
3, 18528, Note_on_c, 1, 52, 105
3, 18574, Note_on_c, 1, 52, 0
3, 18576, Note_on_c, 1, 45, 105
3, 18622, Note_on_c, 1, 45, 0
3, 18624, Note_on_c, 1, 52, 105
3, 18670, Note_on_c, 1, 52, 0
3, 18672, Note_on_c, 1, 55, 105
3, 18718, Note_on_c, 1, 55, 0
3, 18720, Note_on_c, 1, 54, 105
3, 18766, Note_on_c, 1, 54, 0
3, 18768, Note_on_c, 1, 52, 105
3, 18814, Note_on_c, 1, 52, 0
3, 18816, Note_on_c, 1, 54, 105
3, 18862, Note_on_c, 1, 54, 0
3, 18864, Note_on_c, 1, 50, 105
3, 18910, Note_on_c, 1, 50, 0
3, 18912, Note_on_c, 1, 54, 105
3, 18958, Note_on_c, 1, 54, 0
3, 18960, Note_on_c, 1, 57, 105
3, 19006, Note_on_c, 1, 57, 0
3, 19008, Note_on_c, 1, 55, 105
3, 19054, Note_on_c, 1, 55, 0
3, 19056, Note_on_c, 1, 54, 105
3, 19102, Note_on_c, 1, 54, 0
3, 19104, Note_on_c, 1, 55, 105
3, 19150, Note_on_c, 1, 55, 0
3, 19152, Note_on_c, 1, 50, 105
3, 19198, Note_on_c, 1, 50, 0
3, 19200, Note_on_c, 1, 55, 105
3, 19246, Note_on_c, 1, 55, 0
3, 19248, Note_on_c, 1, 58, 105
3, 19294, Note_on_c, 1, 58, 0
3, 19296, Note_on_c, 1, 49, 105
3, 19328, Note_on_c, 1, 49, 0
3, 19392, Note_on_c, 1, 45, 105
3, 19424, Note_on_c, 1, 45, 0
3, 19488, Note_on_c, 1, 55, 105
3, 19520, Note_on_c, 1, 55, 0
3, 19584, Note_on_c, 1, 53, 105
3, 19630, Note_on_c, 1, 53, 0
3, 19632, Note_on_c, 1, 55, 105
3, 19678, Note_on_c, 1, 55, 0
3, 19680, Note_on_c, 1, 53, 105
3, 19726, Note_on_c, 1, 53, 0
3, 19728, Note_on_c, 1, 52, 105
3, 19774, Note_on_c, 1, 52, 0
3, 19776, Note_on_c, 1, 53, 105
3, 19822, Note_on_c, 1, 53, 0
3, 19824, Note_on_c, 1, 50, 105
3, 19870, Note_on_c, 1, 50, 0
3, 19872, Note_on_c, 1, 58, 105
3, 19918, Note_on_c, 1, 58, 0
3, 19920, Note_on_c, 1, 60, 105
3, 19966, Note_on_c, 1, 60, 0
3, 19968, Note_on_c, 1, 58, 105
3, 20014, Note_on_c, 1, 58, 0
3, 20016, Note_on_c, 1, 57, 105
3, 20062, Note_on_c, 1, 57, 0
3, 20064, Note_on_c, 1, 58, 105
3, 20110, Note_on_c, 1, 58, 0
3, 20112, Note_on_c, 1, 55, 105
3, 20158, Note_on_c, 1, 55, 0
3, 20160, Note_on_c, 1, 53, 105
3, 20192, Note_on_c, 1, 53, 0
3, 20256, Note_on_c, 1, 55, 105
3, 20288, Note_on_c, 1, 55, 0
3, 20352, Note_on_c, 1, 57, 105
3, 20384, Note_on_c, 1, 57, 0
3, 20496, Note_on_c, 1, 50, 98
3, 20542, Note_on_c, 1, 50, 0
3, 20544, Note_on_c, 1, 45, 91
3, 20590, Note_on_c, 1, 45, 0
3, 20592, Note_on_c, 1, 41, 84
3, 20638, Note_on_c, 1, 41, 0
3, 20640, Note_on_c, 1, 38, 77
3, 20734, Note_on_c, 1, 38, 0
3, 20736, Note_on_c, 1, 65, 105
3, 20832, Note_on_c, 1, 65, 0
3, 20832, Note_on_c, 1, 53, 105
3, 20864, Note_on_c, 1, 53, 0
3, 20928, Note_on_c, 1, 65, 105
3, 20960, Note_on_c, 1, 65, 0
3, 21024, Note_on_c, 1, 64, 105
3, 21120, Note_on_c, 1, 64, 0
3, 21120, Note_on_c, 1, 57, 105
3, 21152, Note_on_c, 1, 57, 0
3, 21216, Note_on_c, 1, 60, 105
3, 21248, Note_on_c, 1, 60, 0
3, 21312, Note_on_c, 1, 62, 105
3, 21344, Note_on_c, 1, 62, 0
3, 21408, Note_on_c, 1, 59, 105
3, 21440, Note_on_c, 1, 59, 0
3, 21504, Note_on_c, 1, 55, 105
3, 21536, Note_on_c, 1, 55, 0
3, 21600, Note_on_c, 1, 60, 105
3, 21632, Note_on_c, 1, 60, 0
3, 21696, Note_on_c, 1, 52, 105
3, 21728, Note_on_c, 1, 52, 0
3, 21792, Note_on_c, 1, 55, 105
3, 21824, Note_on_c, 1, 55, 0
3, 21888, Note_on_c, 1, 48, 105
3, 21934, Note_on_c, 1, 48, 0
3, 21936, Note_on_c, 1, 50, 105
3, 21982, Note_on_c, 1, 50, 0
3, 21984, Note_on_c, 1, 48, 105
3, 22030, Note_on_c, 1, 48, 0
3, 22032, Note_on_c, 1, 51, 105
3, 22078, Note_on_c, 1, 51, 0
3, 22080, Note_on_c, 1, 48, 105
3, 22126, Note_on_c, 1, 48, 0
3, 22128, Note_on_c, 1, 45, 105
3, 22174, Note_on_c, 1, 45, 0
3, 22176, Note_on_c, 1, 46, 105
3, 22222, Note_on_c, 1, 46, 0
3, 22224, Note_on_c, 1, 48, 105
3, 22270, Note_on_c, 1, 48, 0
3, 22272, Note_on_c, 1, 46, 105
3, 22318, Note_on_c, 1, 46, 0
3, 22320, Note_on_c, 1, 50, 105
3, 22366, Note_on_c, 1, 50, 0
3, 22368, Note_on_c, 1, 46, 105
3, 22414, Note_on_c, 1, 46, 0
3, 22416, Note_on_c, 1, 43, 105
3, 22462, Note_on_c, 1, 43, 0
3, 22464, Note_on_c, 1, 45, 105
3, 22510, Note_on_c, 1, 45, 0
3, 22512, Note_on_c, 1, 48, 105
3, 22558, Note_on_c, 1, 48, 0
3, 22560, Note_on_c, 1, 46, 105
3, 22606, Note_on_c, 1, 46, 0
3, 22608, Note_on_c, 1, 45, 105
3, 22654, Note_on_c, 1, 45, 0
3, 22656, Note_on_c, 1, 43, 105
3, 22702, Note_on_c, 1, 43, 0
3, 22704, Note_on_c, 1, 42, 105
3, 22750, Note_on_c, 1, 42, 0
3, 22752, Note_on_c, 1, 43, 105
3, 22798, Note_on_c, 1, 43, 0
3, 22800, Note_on_c, 1, 45, 98
3, 22846, Note_on_c, 1, 45, 0
3, 22848, Note_on_c, 1, 46, 91
3, 22894, Note_on_c, 1, 46, 0
3, 22896, Note_on_c, 1, 48, 84
3, 22942, Note_on_c, 1, 48, 0
3, 22944, Note_on_c, 1, 50, 77
3, 22990, Note_on_c, 1, 50, 0
3, 22992, Note_on_c, 1, 52, 70
3, 23038, Note_on_c, 1, 52, 0
3, 23040, Note_on_c, 1, 54, 63
3, 23136, Note_on_c, 1, 54, 0
3, 23136, Note_on_c, 1, 50, 63
3, 23168, Note_on_c, 1, 50, 0
3, 23232, Note_on_c, 1, 55, 63
3, 23264, Note_on_c, 1, 55, 0
3, 23328, Note_on_c, 1, 57, 63
3, 23424, Note_on_c, 1, 57, 0
3, 23424, Note_on_c, 1, 50, 63
3, 23456, Note_on_c, 1, 50, 0
3, 23520, Note_on_c, 1, 58, 63
3, 23552, Note_on_c, 1, 58, 0
3, 23616, Note_on_c, 1, 60, 63
3, 23712, Note_on_c, 1, 60, 0
3, 23712, Note_on_c, 1, 50, 63
3, 23744, Note_on_c, 1, 50, 0
3, 23808, Note_on_c, 1, 58, 63
3, 23840, Note_on_c, 1, 58, 0
3, 23904, Note_on_c, 1, 57, 63
3, 24000, Note_on_c, 1, 57, 0
3, 24000, Note_on_c, 1, 50, 63
3, 24032, Note_on_c, 1, 50, 0
3, 24096, Note_on_c, 1, 54, 63
3, 24128, Note_on_c, 1, 54, 0
3, 24192, Note_on_c, 1, 55, 63
3, 24238, Note_on_c, 1, 55, 0
3, 24240, Note_on_c, 1, 54, 65
3, 24286, Note_on_c, 1, 54, 0
3, 24288, Note_on_c, 1, 55, 67
3, 24334, Note_on_c, 1, 55, 0
3, 24336, Note_on_c, 1, 58, 69
3, 24382, Note_on_c, 1, 58, 0
3, 24384, Note_on_c, 1, 55, 71
3, 24430, Note_on_c, 1, 55, 0
3, 24432, Note_on_c, 1, 52, 73
3, 24478, Note_on_c, 1, 52, 0
3, 24480, Note_on_c, 1, 49, 75
3, 24526, Note_on_c, 1, 49, 0
3, 24528, Note_on_c, 1, 47, 77
3, 24574, Note_on_c, 1, 47, 0
3, 24576, Note_on_c, 1, 49, 79
3, 24622, Note_on_c, 1, 49, 0
3, 24624, Note_on_c, 1, 52, 81
3, 24670, Note_on_c, 1, 52, 0
3, 24672, Note_on_c, 1, 49, 83
3, 24718, Note_on_c, 1, 49, 0
3, 24720, Note_on_c, 1, 45, 85
3, 24766, Note_on_c, 1, 45, 0
3, 24768, Note_on_c, 1, 41, 87
3, 24800, Note_on_c, 1, 41, 0
3, 24864, Note_on_c, 1, 43, 93
3, 24896, Note_on_c, 1, 43, 0
3, 24960, Note_on_c, 1, 45, 99
3, 24992, Note_on_c, 1, 45, 0
3, 25056, Note_on_c, 1, 50, 105
3, 25102, Note_on_c, 1, 50, 0
3, 25104, Note_on_c, 1, 49, 105
3, 25150, Note_on_c, 1, 49, 0
3, 25152, Note_on_c, 1, 50, 105
3, 25198, Note_on_c, 1, 50, 0
3, 25200, Note_on_c, 1, 45, 105
3, 25246, Note_on_c, 1, 45, 0
3, 25248, Note_on_c, 1, 50, 105
3, 25294, Note_on_c, 1, 50, 0
3, 25296, Note_on_c, 1, 53, 105
3, 25342, Note_on_c, 1, 53, 0
3, 25344, Note_on_c, 1, 52, 105
3, 25390, Note_on_c, 1, 52, 0
3, 25392, Note_on_c, 1, 50, 105
3, 25438, Note_on_c, 1, 50, 0
3, 25440, Note_on_c, 1, 52, 105
3, 25486, Note_on_c, 1, 52, 0
3, 25488, Note_on_c, 1, 45, 105
3, 25534, Note_on_c, 1, 45, 0
3, 25536, Note_on_c, 1, 52, 105
3, 25582, Note_on_c, 1, 52, 0
3, 25584, Note_on_c, 1, 55, 105
3, 25630, Note_on_c, 1, 55, 0
3, 25632, Note_on_c, 1, 54, 105
3, 25678, Note_on_c, 1, 54, 0
3, 25680, Note_on_c, 1, 52, 105
3, 25726, Note_on_c, 1, 52, 0
3, 25728, Note_on_c, 1, 54, 105
3, 25774, Note_on_c, 1, 54, 0
3, 25776, Note_on_c, 1, 50, 105
3, 25822, Note_on_c, 1, 50, 0
3, 25824, Note_on_c, 1, 54, 105
3, 25870, Note_on_c, 1, 54, 0
3, 25872, Note_on_c, 1, 57, 105
3, 25918, Note_on_c, 1, 57, 0
3, 25920, Note_on_c, 1, 55, 105
3, 25966, Note_on_c, 1, 55, 0
3, 25968, Note_on_c, 1, 54, 105
3, 26014, Note_on_c, 1, 54, 0
3, 26016, Note_on_c, 1, 55, 105
3, 26062, Note_on_c, 1, 55, 0
3, 26064, Note_on_c, 1, 50, 105
3, 26110, Note_on_c, 1, 50, 0
3, 26112, Note_on_c, 1, 55, 105
3, 26158, Note_on_c, 1, 55, 0
3, 26160, Note_on_c, 1, 58, 105
3, 26206, Note_on_c, 1, 58, 0
3, 26208, Note_on_c, 1, 49, 105
3, 26240, Note_on_c, 1, 49, 0
3, 26304, Note_on_c, 1, 45, 105
3, 26336, Note_on_c, 1, 45, 0
3, 26400, Note_on_c, 1, 55, 105
3, 26432, Note_on_c, 1, 55, 0
3, 26496, Note_on_c, 1, 53, 105
3, 26542, Note_on_c, 1, 53, 0
3, 26544, Note_on_c, 1, 55, 105
3, 26590, Note_on_c, 1, 55, 0
3, 26592, Note_on_c, 1, 53, 105
3, 26638, Note_on_c, 1, 53, 0
3, 26640, Note_on_c, 1, 52, 105
3, 26686, Note_on_c, 1, 52, 0
3, 26688, Note_on_c, 1, 53, 105
3, 26734, Note_on_c, 1, 53, 0
3, 26736, Note_on_c, 1, 50, 105
3, 26782, Note_on_c, 1, 50, 0
3, 26784, Note_on_c, 1, 58, 105
3, 26830, Note_on_c, 1, 58, 0
3, 26832, Note_on_c, 1, 60, 105
3, 26878, Note_on_c, 1, 60, 0
3, 26880, Note_on_c, 1, 58, 105
3, 26926, Note_on_c, 1, 58, 0
3, 26928, Note_on_c, 1, 57, 105
3, 26974, Note_on_c, 1, 57, 0
3, 26976, Note_on_c, 1, 58, 105
3, 27022, Note_on_c, 1, 58, 0
3, 27024, Note_on_c, 1, 55, 105
3, 27070, Note_on_c, 1, 55, 0
3, 27072, Note_on_c, 1, 53, 105
3, 27104, Note_on_c, 1, 53, 0
3, 27168, Note_on_c, 1, 55, 105
3, 27200, Note_on_c, 1, 55, 0
3, 27264, Note_on_c, 1, 57, 105
3, 27296, Note_on_c, 1, 57, 0
3, 27408, Note_on_c, 1, 50, 98
3, 27454, Note_on_c, 1, 50, 0
3, 27456, Note_on_c, 1, 45, 91
3, 27502, Note_on_c, 1, 45, 0
3, 27504, Note_on_c, 1, 41, 84
3, 27550, Note_on_c, 1, 41, 0
3, 27552, Note_on_c, 1, 38, 77
3, 27646, Note_on_c, 1, 38, 0
3, 27646, End_track
0, 0, End_of_file
