0, 0, Header, 1, 5, 1024
1, 0, Start_track
1, 0, Time_signature, 2, 2, 24, 8
1, 0, Key_signature, 0, "minor"
1, 0, Tempo, 750000
1, 217088, End_track
2, 0, Start_track
2, 0, Title_t, "Instrument 1"
2, 0, Note_on_c, 0, 72, 96
2, 1536, Note_off_c, 0, 72, 0
2, 1536, Note_on_c, 0, 72, 96
2, 2048, Note_off_c, 0, 72, 0
2, 2048, Note_on_c, 0, 72, 96
2, 2560, Note_off_c, 0, 72, 0
2, 2560, Note_on_c, 0, 71, 96
2, 3072, Note_off_c, 0, 71, 0
2, 4096, Note_on_c, 0, 69, 96
2, 5632, Note_off_c, 0, 69, 0
2, 5632, Note_on_c, 0, 69, 96
2, 6144, Note_off_c, 0, 69, 0
2, 6144, Note_on_c, 0, 69, 96
2, 6656, Note_off_c, 0, 69, 0
2, 6656, Note_on_c, 0, 68, 96
2, 7168, Note_off_c, 0, 68, 0
2, 8192, Note_on_c, 0, 76, 96
2, 9728, Note_off_c, 0, 76, 0
2, 9728, Note_on_c, 0, 76, 96
2, 10240, Note_off_c, 0, 76, 0
2, 10240, Note_on_c, 0, 76, 96
2, 10752, Note_off_c, 0, 76, 0
2, 10752, Note_on_c, 0, 74, 96
2, 11264, Note_off_c, 0, 74, 0
2, 12288, Note_on_c, 0, 65, 96
2, 13824, Note_off_c, 0, 65, 0
2, 13824, Note_on_c, 0, 65, 96
2, 14336, Note_off_c, 0, 65, 0
2, 14336, Note_on_c, 0, 65, 96
2, 14848, Note_off_c, 0, 65, 0
2, 14848, Note_on_c, 0, 64, 96
2, 15360, Note_off_c, 0, 64, 0
2, 15360, Note_on_c, 0, 71, 96
2, 16896, Note_off_c, 0, 71, 0
2, 16896, Note_on_c, 0, 69, 96
2, 17408, Note_off_c, 0, 69, 0
2, 17408, Note_on_c, 0, 71, 96
2, 17920, Note_off_c, 0, 71, 0
2, 17920, Note_on_c, 0, 73, 96
2, 18432, Note_off_c, 0, 73, 0
2, 18432, Note_on_c, 0, 74, 96
2, 18944, Note_off_c, 0, 74, 0
2, 18944, Note_on_c, 0, 76, 96
2, 19456, Note_off_c, 0, 76, 0
2, 19456, Note_on_c, 0, 77, 96
2, 20480, Note_off_c, 0, 77, 0
2, 20480, Note_on_c, 0, 78, 96
2, 20992, Note_off_c, 0, 78, 0
2, 20992, Note_on_c, 0, 76, 96
2, 21504, Note_off_c, 0, 76, 0
2, 21504, Note_on_c, 0, 76, 96
2, 22016, Note_off_c, 0, 76, 0
2, 22016, Note_on_c, 0, 74, 96
2, 22528, Note_off_c, 0, 74, 0
2, 22528, Note_on_c, 0, 73, 96
2, 23040, Note_off_c, 0, 73, 0
2, 23040, Note_on_c, 0, 74, 96
2, 23552, Note_off_c, 0, 74, 0
2, 23552, Note_on_c, 0, 76, 96
2, 24576, Note_off_c, 0, 76, 0
2, 24576, Note_on_c, 0, 76, 96
2, 25088, Note_off_c, 0, 76, 0
2, 25088, Note_on_c, 0, 74, 96
2, 25600, Note_off_c, 0, 74, 0
2, 26624, Note_on_c, 0, 71, 96
2, 27136, Note_off_c, 0, 71, 0
2, 27136, Note_on_c, 0, 72, 96
2, 27648, Note_off_c, 0, 72, 0
2, 27648, Note_on_c, 0, 74, 96
2, 28672, Note_off_c, 0, 74, 0
2, 28672, Note_on_c, 0, 74, 96
2, 29184, Note_off_c, 0, 74, 0
2, 29184, Note_on_c, 0, 72, 96
2, 29696, Note_off_c, 0, 72, 0
2, 29696, Note_on_c, 0, 72, 96
2, 31232, Note_off_c, 0, 72, 0
2, 31232, Note_on_c, 0, 71, 96
2, 31744, Note_off_c, 0, 71, 0
2, 31744, Note_on_c, 0, 71, 96
2, 33280, Note_off_c, 0, 71, 0
2, 33280, Note_on_c, 0, 68, 96
2, 33792, Note_off_c, 0, 68, 0
2, 33792, Note_on_c, 0, 69, 96
2, 35840, Note_off_c, 0, 69, 0
2, 35840, Note_on_c, 0, 68, 96
2, 36864, Note_off_c, 0, 68, 0
2, 36864, Note_on_c, 0, 69, 96
2, 37888, Note_off_c, 0, 69, 0
2, 37888, Note_on_c, 0, 76, 96
2, 39424, Note_off_c, 0, 76, 0
2, 39424, Note_on_c, 0, 74, 96
2, 39936, Note_off_c, 0, 74, 0
2, 39936, Note_on_c, 0, 72, 96
2, 40448, Note_off_c, 0, 72, 0
2, 40448, Note_on_c, 0, 71, 96
2, 40960, Note_off_c, 0, 71, 0
2, 40960, Note_on_c, 0, 69, 96
2, 42496, Note_off_c, 0, 69, 0
2, 42496, Note_on_c, 0, 71, 96
2, 42752, Note_off_c, 0, 71, 0
2, 42752, Note_on_c, 0, 72, 96
2, 43008, Note_off_c, 0, 72, 0
2, 43008, Note_on_c, 0, 71, 96
2, 44032, Note_off_c, 0, 71, 0
2, 44032, Note_on_c, 0, 64, 96
2, 45056, Note_off_c, 0, 64, 0
2, 45056, Note_on_c, 0, 65, 96
2, 46080, Note_off_c, 0, 65, 0
2, 46080, Note_on_c, 0, 64, 96
2, 46592, Note_off_c, 0, 64, 0
2, 46592, Note_on_c, 0, 62, 96
2, 47104, Note_off_c, 0, 62, 0
2, 47104, Note_on_c, 0, 64, 96
2, 47616, Note_off_c, 0, 64, 0
2, 47616, Note_on_c, 0, 72, 96
2, 48128, Note_off_c, 0, 72, 0
2, 48128, Note_on_c, 0, 74, 96
2, 48640, Note_off_c, 0, 74, 0
2, 48640, Note_on_c, 0, 76, 96
2, 49152, Note_off_c, 0, 76, 0
2, 49152, Note_on_c, 0, 77, 96
2, 51712, Note_off_c, 0, 77, 0
2, 51712, Note_on_c, 0, 74, 96
2, 52224, Note_off_c, 0, 74, 0
2, 52224, Note_on_c, 0, 79, 96
2, 52736, Note_off_c, 0, 79, 0
2, 52736, Note_on_c, 0, 77, 96
2, 53248, Note_off_c, 0, 77, 0
2, 53248, Note_on_c, 0, 76, 96
2, 55808, Note_off_c, 0, 76, 0
2, 55808, Note_on_c, 0, 77, 96
2, 56064, Note_off_c, 0, 77, 0
2, 56064, Note_on_c, 0, 79, 96
2, 56320, Note_off_c, 0, 79, 0
2, 56320, Note_on_c, 0, 77, 96
2, 56576, Note_off_c, 0, 77, 0
2, 56576, Note_on_c, 0, 76, 96
2, 56832, Note_off_c, 0, 76, 0
2, 56832, Note_on_c, 0, 74, 96
2, 57088, Note_off_c, 0, 74, 0
2, 57088, Note_on_c, 0, 72, 96
2, 57344, Note_off_c, 0, 72, 0
2, 57344, Note_on_c, 0, 74, 96
2, 59904, Note_off_c, 0, 74, 0
2, 59904, Note_on_c, 0, 77, 96
2, 60416, Note_off_c, 0, 77, 0
2, 60416, Note_on_c, 0, 76, 96
2, 60928, Note_off_c, 0, 76, 0
2, 60928, Note_on_c, 0, 74, 96
2, 61440, Note_off_c, 0, 74, 0
2, 61440, Note_on_c, 0, 72, 96
2, 61952, Note_off_c, 0, 72, 0
2, 61952, Note_on_c, 0, 71, 96
2, 62464, Note_off_c, 0, 71, 0
2, 62464, Note_on_c, 0, 69, 96
2, 65024, Note_off_c, 0, 69, 0
2, 65024, Note_on_c, 0, 68, 96
2, 65536, Note_off_c, 0, 68, 0
2, 65536, Note_on_c, 0, 69, 96
2, 66560, Note_off_c, 0, 69, 0
2, 66560, Note_on_c, 0, 76, 96
2, 68608, Note_off_c, 0, 76, 0
2, 68608, Note_on_c, 0, 74, 96
2, 69632, Note_off_c, 0, 74, 0
2, 69632, Note_on_c, 0, 74, 96
2, 70656, Note_off_c, 0, 74, 0
2, 70656, Note_on_c, 0, 72, 96
2, 71680, Note_off_c, 0, 72, 0
2, 71680, Note_on_c, 0, 71, 96
2, 72704, Note_off_c, 0, 71, 0
2, 73728, Note_on_c, 0, 72, 96
2, 75264, Note_off_c, 0, 72, 0
2, 75264, Note_on_c, 0, 72, 96
2, 75776, Note_off_c, 0, 72, 0
2, 75776, Note_on_c, 0, 72, 96
2, 76288, Note_off_c, 0, 72, 0
2, 76288, Note_on_c, 0, 71, 96
2, 76800, Note_off_c, 0, 71, 0
2, 77824, Note_on_c, 0, 76, 96
2, 79360, Note_off_c, 0, 76, 0
2, 79360, Note_on_c, 0, 76, 96
2, 79872, Note_off_c, 0, 76, 0
2, 79872, Note_on_c, 0, 76, 96
2, 80384, Note_off_c, 0, 76, 0
2, 80384, Note_on_c, 0, 74, 96
2, 80896, Note_off_c, 0, 74, 0
2, 81920, Note_on_c, 0, 65, 96
2, 83456, Note_off_c, 0, 65, 0
2, 83456, Note_on_c, 0, 65, 96
2, 83968, Note_off_c, 0, 65, 0
2, 83968, Note_on_c, 0, 65, 96
2, 84480, Note_off_c, 0, 65, 0
2, 84480, Note_on_c, 0, 64, 96
2, 84992, Note_off_c, 0, 64, 0
2, 84992, Note_on_c, 0, 71, 96
2, 86528, Note_off_c, 0, 71, 0
2, 86528, Note_on_c, 0, 69, 96
2, 87040, Note_off_c, 0, 69, 0
2, 87040, Note_on_c, 0, 71, 96
2, 87552, Note_off_c, 0, 71, 0
2, 87552, Note_on_c, 0, 73, 96
2, 88064, Note_off_c, 0, 73, 0
2, 88064, Note_on_c, 0, 74, 96
2, 88576, Note_off_c, 0, 74, 0
2, 88576, Note_on_c, 0, 76, 96
2, 89088, Note_off_c, 0, 76, 0
2, 89088, Note_on_c, 0, 77, 96
2, 90624, Note_off_c, 0, 77, 0
2, 90624, Note_on_c, 0, 76, 96
2, 91136, Note_off_c, 0, 76, 0
2, 91136, Note_on_c, 0, 76, 96
2, 91648, Note_off_c, 0, 76, 0
2, 91648, Note_on_c, 0, 74, 96
2, 92160, Note_off_c, 0, 74, 0
2, 92160, Note_on_c, 0, 73, 96
2, 92672, Note_off_c, 0, 73, 0
2, 92672, Note_on_c, 0, 74, 96
2, 93184, Note_off_c, 0, 74, 0
2, 93184, Note_on_c, 0, 76, 96
2, 94208, Note_off_c, 0, 76, 0
2, 94208, Note_on_c, 0, 76, 96
2, 94720, Note_off_c, 0, 76, 0
2, 94720, Note_on_c, 0, 74, 96
2, 95232, Note_off_c, 0, 74, 0
2, 96256, Note_on_c, 0, 71, 96
2, 96768, Note_off_c, 0, 71, 0
2, 96768, Note_on_c, 0, 72, 96
2, 97280, Note_off_c, 0, 72, 0
2, 97280, Note_on_c, 0, 74, 96
2, 98304, Note_off_c, 0, 74, 0
2, 98304, Note_on_c, 0, 74, 96
2, 98816, Note_off_c, 0, 74, 0
2, 98816, Note_on_c, 0, 72, 96
2, 99328, Note_off_c, 0, 72, 0
2, 99328, Note_on_c, 0, 72, 96
2, 100864, Note_off_c, 0, 72, 0
2, 100864, Note_on_c, 0, 71, 96
2, 101376, Note_off_c, 0, 71, 0
2, 101376, Note_on_c, 0, 71, 96
2, 102912, Note_off_c, 0, 71, 0
2, 102912, Note_on_c, 0, 68, 96
2, 103424, Note_off_c, 0, 68, 0
2, 103424, Note_on_c, 0, 69, 96
2, 105472, Note_off_c, 0, 69, 0
2, 105472, Note_on_c, 0, 68, 96
2, 106496, Note_off_c, 0, 68, 0
2, 106496, Note_on_c, 0, 69, 96
2, 107520, Note_off_c, 0, 69, 0
2, 107520, Note_on_c, 0, 76, 96
2, 109056, Note_off_c, 0, 76, 0
2, 109056, Note_on_c, 0, 74, 96
2, 109568, Note_off_c, 0, 74, 0
2, 109568, Note_on_c, 0, 72, 96
2, 110080, Note_off_c, 0, 72, 0
2, 110080, Note_on_c, 0, 71, 96
2, 110592, Note_off_c, 0, 71, 0
2, 110592, Note_on_c, 0, 69, 96
2, 112128, Note_off_c, 0, 69, 0
2, 112128, Note_on_c, 0, 71, 96
2, 112384, Note_off_c, 0, 71, 0
2, 112384, Note_on_c, 0, 72, 96
2, 112640, Note_off_c, 0, 72, 0
2, 112640, Note_on_c, 0, 71, 96
2, 113664, Note_off_c, 0, 71, 0
2, 113664, Note_on_c, 0, 64, 96
2, 114688, Note_off_c, 0, 64, 0
2, 114688, Note_on_c, 0, 65, 96
2, 115712, Note_off_c, 0, 65, 0
2, 115712, Note_on_c, 0, 64, 96
2, 116224, Note_off_c, 0, 64, 0
2, 116224, Note_on_c, 0, 62, 96
2, 116736, Note_off_c, 0, 62, 0
2, 116736, Note_on_c, 0, 64, 96
2, 117248, Note_off_c, 0, 64, 0
2, 117248, Note_on_c, 0, 72, 96
2, 117760, Note_off_c, 0, 72, 0
2, 117760, Note_on_c, 0, 74, 96
2, 118272, Note_off_c, 0, 74, 0
2, 118272, Note_on_c, 0, 76, 96
2, 118784, Note_off_c, 0, 76, 0
2, 118784, Note_on_c, 0, 77, 96
2, 121344, Note_off_c, 0, 77, 0
2, 121344, Note_on_c, 0, 74, 96
2, 121856, Note_off_c, 0, 74, 0
2, 121856, Note_on_c, 0, 79, 96
2, 122368, Note_off_c, 0, 79, 0
2, 122368, Note_on_c, 0, 77, 96
2, 122880, Note_off_c, 0, 77, 0
2, 122880, Note_on_c, 0, 76, 96
2, 125440, Note_off_c, 0, 76, 0
2, 125440, Note_on_c, 0, 77, 96
2, 125696, Note_off_c, 0, 77, 0
2, 125696, Note_on_c, 0, 79, 96
2, 125952, Note_off_c, 0, 79, 0
2, 125952, Note_on_c, 0, 77, 96
2, 126208, Note_off_c, 0, 77, 0
2, 126208, Note_on_c, 0, 76, 96
2, 126464, Note_off_c, 0, 76, 0
2, 126464, Note_on_c, 0, 74, 96
2, 126720, Note_off_c, 0, 74, 0
2, 126720, Note_on_c, 0, 72, 96
2, 126976, Note_off_c, 0, 72, 0
2, 126976, Note_on_c, 0, 74, 96
2, 129536, Note_off_c, 0, 74, 0
2, 129536, Note_on_c, 0, 77, 96
2, 130048, Note_off_c, 0, 77, 0
2, 130048, Note_on_c, 0, 76, 96
2, 130560, Note_off_c, 0, 76, 0
2, 130560, Note_on_c, 0, 74, 96
2, 131072, Note_off_c, 0, 74, 0
2, 131072, Note_on_c, 0, 72, 96
2, 131584, Note_off_c, 0, 72, 0
2, 131584, Note_on_c, 0, 71, 96
2, 132096, Note_off_c, 0, 71, 0
2, 132096, Note_on_c, 0, 69, 96
2, 134656, Note_off_c, 0, 69, 0
2, 134656, Note_on_c, 0, 68, 96
2, 135168, Note_off_c, 0, 68, 0
2, 135168, Note_on_c, 0, 69, 96
2, 136192, Note_off_c, 0, 69, 0
2, 136192, Note_on_c, 0, 76, 96
2, 137216, Note_off_c, 0, 76, 0
2, 137216, Note_on_c, 0, 76, 96
2, 138240, Note_off_c, 0, 76, 0
2, 138240, Note_on_c, 0, 74, 96
2, 139264, Note_off_c, 0, 74, 0
2, 139264, Note_on_c, 0, 74, 96
2, 139776, Note_off_c, 0, 74, 0
2, 139776, Note_on_c, 0, 73, 96
2, 140288, Note_off_c, 0, 73, 0
2, 141312, Note_on_c, 0, 76, 96
2, 142848, Note_off_c, 0, 76, 0
2, 142848, Note_on_c, 0, 76, 96
2, 143360, Note_off_c, 0, 76, 0
2, 143360, Note_on_c, 0, 76, 96
2, 143872, Note_off_c, 0, 76, 0
2, 143872, Note_on_c, 0, 74, 96
2, 144384, Note_off_c, 0, 74, 0
2, 145408, Note_on_c, 0, 65, 96
2, 146944, Note_off_c, 0, 65, 0
2, 146944, Note_on_c, 0, 65, 96
2, 147456, Note_off_c, 0, 65, 0
2, 147456, Note_on_c, 0, 65, 96
2, 147968, Note_off_c, 0, 65, 0
2, 147968, Note_on_c, 0, 64, 96
2, 149504, Note_off_c, 0, 64, 0
2, 150016, Note_on_c, 0, 68, 96
2, 150528, Note_off_c, 0, 68, 0
2, 150528, Note_on_c, 0, 69, 96
2, 151040, Note_off_c, 0, 69, 0
2, 151040, Note_on_c, 0, 71, 96
2, 151552, Note_off_c, 0, 71, 0
2, 151552, Note_on_c, 0, 72, 96
2, 152064, Note_off_c, 0, 72, 0
2, 152064, Note_on_c, 0, 73, 96
2, 153088, Note_off_c, 0, 73, 0
2, 153088, Note_on_c, 0, 73, 96
2, 153600, Note_off_c, 0, 73, 0
2, 153600, Note_on_c, 0, 74, 96
2, 154112, Note_off_c, 0, 74, 0
2, 154624, Note_on_c, 0, 72, 96
2, 157184, Note_off_c, 0, 72, 0
2, 157184, Note_on_c, 0, 71, 96
2, 157696, Note_off_c, 0, 71, 0
2, 157696, Note_on_c, 0, 72, 96
2, 158208, Note_off_c, 0, 72, 0
2, 158208, Note_on_c, 0, 70, 96
2, 158720, Note_off_c, 0, 70, 0
2, 158720, Note_on_c, 0, 69, 96
2, 158976, Note_off_c, 0, 69, 0
2, 158976, Note_on_c, 0, 67, 96
2, 159232, Note_off_c, 0, 67, 0
2, 159232, Note_on_c, 0, 69, 96
2, 159744, Note_off_c, 0, 69, 0
2, 159744, Note_on_c, 0, 67, 96
2, 160256, Note_off_c, 0, 67, 0
2, 160256, Note_on_c, 0, 76, 96
2, 160768, Note_off_c, 0, 76, 0
2, 160768, Note_on_c, 0, 77, 96
2, 161280, Note_off_c, 0, 77, 0
2, 161280, Note_on_c, 0, 74, 96
2, 161792, Note_off_c, 0, 74, 0
2, 161792, Note_on_c, 0, 76, 96
2, 162304, Note_off_c, 0, 76, 0
2, 162304, Note_on_c, 0, 72, 96
2, 162816, Note_off_c, 0, 72, 0
2, 162816, Note_on_c, 0, 74, 96
2, 163328, Note_off_c, 0, 74, 0
2, 163328, Note_on_c, 0, 71, 96
2, 163840, Note_off_c, 0, 71, 0
2, 163840, Note_on_c, 0, 72, 96
2, 164864, Note_off_c, 0, 72, 0
2, 168448, Note_on_c, 0, 71, 96
2, 169472, Note_off_c, 0, 71, 0
2, 169472, Note_on_c, 0, 73, 96
2, 169984, Note_off_c, 0, 73, 0
2, 169984, Note_on_c, 0, 74, 96
2, 170496, Note_off_c, 0, 74, 0
2, 170496, Note_on_c, 0, 69, 96
2, 171008, Note_off_c, 0, 69, 0
2, 171008, Note_on_c, 0, 74, 96
2, 171520, Note_off_c, 0, 74, 0
2, 171520, Note_on_c, 0, 74, 96
2, 172032, Note_off_c, 0, 74, 0
2, 172032, Note_on_c, 0, 74, 96
2, 172544, Note_off_c, 0, 74, 0
2, 172544, Note_on_c, 0, 72, 96
2, 172800, Note_off_c, 0, 72, 0
2, 172800, Note_on_c, 0, 71, 96
2, 173056, Note_off_c, 0, 71, 0
2, 173056, Note_on_c, 0, 72, 96
2, 173568, Note_off_c, 0, 72, 0
2, 173568, Note_on_c, 0, 71, 96
2, 174080, Note_off_c, 0, 71, 0
2, 174080, Note_on_c, 0, 71, 96
2, 174592, Note_off_c, 0, 71, 0
2, 174592, Note_on_c, 0, 76, 96
2, 175616, Note_off_c, 0, 76, 0
2, 175616, Note_on_c, 0, 74, 96
2, 176128, Note_off_c, 0, 74, 0
2, 176128, Note_on_c, 0, 72, 96
2, 176640, Note_off_c, 0, 72, 0
2, 176640, Note_on_c, 0, 74, 96
2, 177152, Note_off_c, 0, 74, 0
2, 177152, Note_on_c, 0, 72, 96
2, 177664, Note_off_c, 0, 72, 0
2, 177664, Note_on_c, 0, 71, 96
2, 178176, Note_off_c, 0, 71, 0
2, 178176, Note_on_c, 0, 69, 96
2, 178688, Note_off_c, 0, 69, 0
2, 178688, Note_on_c, 0, 66, 96
2, 179200, Note_off_c, 0, 66, 0
2, 179200, Note_on_c, 0, 63, 96
2, 179968, Note_off_c, 0, 63, 0
2, 179968, Note_on_c, 0, 63, 96
2, 180224, Note_off_c, 0, 63, 0
2, 180224, Note_on_c, 0, 64, 96
2, 180736, Note_off_c, 0, 64, 0
2, 180736, Note_on_c, 0, 76, 96
2, 181760, Note_off_c, 0, 76, 0
2, 181760, Note_on_c, 0, 78, 96
2, 182272, Note_off_c, 0, 78, 0
2, 182272, Note_on_c, 0, 79, 96
2, 182784, Note_off_c, 0, 79, 0
2, 182784, Note_on_c, 0, 74, 96
2, 183296, Note_off_c, 0, 74, 0
2, 183296, Note_on_c, 0, 79, 96
2, 183808, Note_off_c, 0, 79, 0
2, 183808, Note_on_c, 0, 79, 96
2, 184320, Note_off_c, 0, 79, 0
2, 184320, Note_on_c, 0, 79, 96
2, 184832, Note_off_c, 0, 79, 0
2, 184832, Note_on_c, 0, 77, 96
2, 185088, Note_off_c, 0, 77, 0
2, 185088, Note_on_c, 0, 76, 96
2, 185344, Note_off_c, 0, 76, 0
2, 185344, Note_on_c, 0, 74, 96
2, 185600, Note_off_c, 0, 74, 0
2, 185600, Note_on_c, 0, 72, 96
2, 185856, Note_off_c, 0, 72, 0
2, 185856, Note_on_c, 0, 71, 96
2, 186112, Note_off_c, 0, 71, 0
2, 186112, Note_on_c, 0, 69, 96
2, 186368, Note_off_c, 0, 69, 0
2, 186368, Note_on_c, 0, 76, 96
2, 186624, Note_off_c, 0, 76, 0
2, 186624, Note_on_c, 0, 74, 96
2, 186880, Note_off_c, 0, 74, 0
2, 186880, Note_on_c, 0, 76, 96
2, 187136, Note_off_c, 0, 76, 0
2, 187136, Note_on_c, 0, 77, 96
2, 187392, Note_off_c, 0, 77, 0
2, 187392, Note_on_c, 0, 76, 96
2, 187648, Note_off_c, 0, 76, 0
2, 187648, Note_on_c, 0, 74, 96
2, 187904, Note_off_c, 0, 74, 0
2, 187904, Note_on_c, 0, 72, 96
2, 188160, Note_off_c, 0, 72, 0
2, 188160, Note_on_c, 0, 74, 96
2, 188416, Note_off_c, 0, 74, 0
2, 188416, Note_on_c, 0, 71, 96
2, 188672, Note_off_c, 0, 71, 0
2, 188672, Note_on_c, 0, 69, 96
2, 188928, Note_off_c, 0, 69, 0
2, 188928, Note_on_c, 0, 71, 96
2, 189184, Note_off_c, 0, 71, 0
2, 189184, Note_on_c, 0, 72, 96
2, 189440, Note_off_c, 0, 72, 0
2, 189440, Note_on_c, 0, 71, 96
2, 189696, Note_off_c, 0, 71, 0
2, 189696, Note_on_c, 0, 69, 96
2, 189952, Note_off_c, 0, 69, 0
2, 189952, Note_on_c, 0, 68, 96
2, 190208, Note_off_c, 0, 68, 0
2, 190208, Note_on_c, 0, 66, 96
2, 190464, Note_off_c, 0, 66, 0
2, 190464, Note_on_c, 0, 64, 96
2, 190720, Note_off_c, 0, 64, 0
2, 190720, Note_on_c, 0, 62, 96
2, 190976, Note_off_c, 0, 62, 0
2, 190976, Note_on_c, 0, 60, 96
2, 191232, Note_off_c, 0, 60, 0
2, 191232, Note_on_c, 0, 62, 96
2, 191488, Note_off_c, 0, 62, 0
2, 191488, Note_on_c, 0, 64, 96
2, 191744, Note_off_c, 0, 64, 0
2, 191744, Note_on_c, 0, 67, 96
2, 192000, Note_off_c, 0, 67, 0
2, 192000, Note_on_c, 0, 65, 96
2, 192256, Note_off_c, 0, 65, 0
2, 192256, Note_on_c, 0, 64, 96
2, 192512, Note_off_c, 0, 64, 0
2, 192512, Note_on_c, 0, 62, 96
2, 195072, Note_off_c, 0, 62, 0
2, 195072, Note_on_c, 0, 60, 96
2, 195584, Note_off_c, 0, 60, 0
2, 196608, Note_on_c, 0, 69, 96
2, 198144, Note_off_c, 0, 69, 0
2, 198144, Note_on_c, 0, 69, 96
2, 198656, Note_off_c, 0, 69, 0
2, 198656, Note_on_c, 0, 69, 96
2, 199168, Note_off_c, 0, 69, 0
2, 199168, Note_on_c, 0, 68, 96
2, 199680, Note_off_c, 0, 68, 0
2, 200704, Note_on_c, 0, 67, 96
2, 202240, Note_off_c, 0, 67, 0
2, 202240, Note_on_c, 0, 67, 96
2, 202752, Note_off_c, 0, 67, 0
2, 202752, Note_on_c, 0, 67, 96
2, 203264, Note_off_c, 0, 67, 0
2, 203264, Note_on_c, 0, 65, 96
2, 203776, Note_off_c, 0, 65, 0
2, 204800, Note_on_c, 0, 65, 96
2, 206336, Note_off_c, 0, 65, 0
2, 206336, Note_on_c, 0, 65, 96
2, 206848, Note_off_c, 0, 65, 0
2, 206848, Note_on_c, 0, 65, 96
2, 207360, Note_off_c, 0, 65, 0
2, 207360, Note_on_c, 0, 64, 96
2, 207872, Note_off_c, 0, 64, 0
2, 208896, Note_on_c, 0, 74, 96
2, 210432, Note_off_c, 0, 74, 0
2, 210432, Note_on_c, 0, 76, 96
2, 210944, Note_off_c, 0, 76, 0
2, 210944, Note_on_c, 0, 72, 96
2, 211968, Note_off_c, 0, 72, 0
2, 212480, Note_on_c, 0, 77, 96
2, 212992, Note_off_c, 0, 77, 0
2, 212992, Note_on_c, 0, 72, 96
2, 214016, Note_off_c, 0, 72, 0
2, 214016, Note_on_c, 0, 71, 96
2, 215040, Note_off_c, 0, 71, 0
2, 215040, Note_on_c, 0, 69, 96
2, 217088, Note_off_c, 0, 69, 0
2, 217088, End_track
3, 0, Start_track
3, 0, Title_t, "Instrument 2"
3, 0, Note_on_c, 1, 69, 96
3, 1536, Note_off_c, 1, 69, 0
3, 1536, Note_on_c, 1, 69, 96
3, 2048, Note_off_c, 1, 69, 0
3, 2048, Note_on_c, 1, 69, 96
3, 2560, Note_off_c, 1, 69, 0
3, 2560, Note_on_c, 1, 68, 96
3, 3072, Note_off_c, 1, 68, 0
3, 4096, Note_on_c, 1, 72, 96
3, 5632, Note_off_c, 1, 72, 0
3, 5632, Note_on_c, 1, 72, 96
3, 6144, Note_off_c, 1, 72, 0
3, 6144, Note_on_c, 1, 72, 96
3, 6656, Note_off_c, 1, 72, 0
3, 6656, Note_on_c, 1, 71, 96
3, 7168, Note_off_c, 1, 71, 0
3, 8192, Note_on_c, 1, 67, 96
3, 9728, Note_off_c, 1, 67, 0
3, 9728, Note_on_c, 1, 67, 96
3, 10240, Note_off_c, 1, 67, 0
3, 10240, Note_on_c, 1, 67, 96
3, 10752, Note_off_c, 1, 67, 0
3, 10752, Note_on_c, 1, 65, 96
3, 11264, Note_off_c, 1, 65, 0
3, 12288, Note_on_c, 1, 62, 96
3, 13824, Note_off_c, 1, 62, 0
3, 13824, Note_on_c, 1, 62, 96
3, 14336, Note_off_c, 1, 62, 0
3, 14336, Note_on_c, 1, 62, 96
3, 16896, Note_off_c, 1, 62, 0
3, 16896, Note_on_c, 1, 61, 96
3, 17408, Note_off_c, 1, 61, 0
3, 18432, Note_on_c, 1, 69, 96
3, 19968, Note_off_c, 1, 69, 0
3, 19968, Note_on_c, 1, 69, 96
3, 20480, Note_off_c, 1, 69, 0
3, 20480, Note_on_c, 1, 69, 96
3, 20992, Note_off_c, 1, 69, 0
3, 20992, Note_on_c, 1, 68, 96
3, 21504, Note_off_c, 1, 68, 0
3, 22528, Note_on_c, 1, 67, 96
3, 24064, Note_off_c, 1, 67, 0
3, 24064, Note_on_c, 1, 67, 96
3, 24576, Note_off_c, 1, 67, 0
3, 24576, Note_on_c, 1, 67, 96
3, 25088, Note_off_c, 1, 67, 0
3, 25088, Note_on_c, 1, 65, 96
3, 25600, Note_off_c, 1, 65, 0
3, 26624, Note_on_c, 1, 65, 96
3, 28160, Note_off_c, 1, 65, 0
3, 28160, Note_on_c, 1, 65, 96
3, 28672, Note_off_c, 1, 65, 0
3, 28672, Note_on_c, 1, 65, 96
3, 29184, Note_off_c, 1, 65, 0
3, 29184, Note_on_c, 1, 64, 96
3, 29696, Note_off_c, 1, 64, 0
3, 30720, Note_on_c, 1, 62, 96
3, 32256, Note_off_c, 1, 62, 0
3, 32256, Note_on_c, 1, 64, 96
3, 32768, Note_off_c, 1, 64, 0
3, 32768, Note_on_c, 1, 60, 96
3, 33792, Note_off_c, 1, 60, 0
3, 34304, Note_on_c, 1, 77, 96
3, 34816, Note_off_c, 1, 77, 0
3, 34816, Note_on_c, 1, 72, 96
3, 35840, Note_off_c, 1, 72, 0
3, 35840, Note_on_c, 1, 71, 96
3, 36864, Note_off_c, 1, 71, 0
3, 36864, Note_on_c, 1, 69, 96
3, 37888, Note_off_c, 1, 69, 0
3, 41984, Note_on_c, 1, 76, 96
3, 43520, Note_off_c, 1, 76, 0
3, 43520, Note_on_c, 1, 74, 96
3, 44032, Note_off_c, 1, 74, 0
3, 44032, Note_on_c, 1, 72, 96
3, 44544, Note_off_c, 1, 72, 0
3, 44544, Note_on_c, 1, 71, 96
3, 45056, Note_off_c, 1, 71, 0
3, 45056, Note_on_c, 1, 69, 96
3, 45568, Note_off_c, 1, 69, 0
3, 45568, Note_on_c, 1, 68, 96
3, 46080, Note_off_c, 1, 68, 0
3, 46080, Note_on_c, 1, 69, 96
3, 46592, Note_off_c, 1, 69, 0
3, 46592, Note_on_c, 1, 71, 96
3, 47104, Note_off_c, 1, 71, 0
3, 47104, Note_on_c, 1, 72, 96
3, 49664, Note_off_c, 1, 72, 0
3, 49664, Note_on_c, 1, 69, 96
3, 50176, Note_off_c, 1, 69, 0
3, 50176, Note_on_c, 1, 74, 96
3, 50688, Note_off_c, 1, 74, 0
3, 50688, Note_on_c, 1, 72, 96
3, 51200, Note_off_c, 1, 72, 0
3, 51200, Note_on_c, 1, 71, 96
3, 53760, Note_off_c, 1, 71, 0
3, 53760, Note_on_c, 1, 72, 96
3, 54016, Note_off_c, 1, 72, 0
3, 54016, Note_on_c, 1, 74, 96
3, 54272, Note_off_c, 1, 74, 0
3, 54272, Note_on_c, 1, 72, 96
3, 54528, Note_off_c, 1, 72, 0
3, 54528, Note_on_c, 1, 71, 96
3, 54784, Note_off_c, 1, 71, 0
3, 54784, Note_on_c, 1, 69, 96
3, 55040, Note_off_c, 1, 69, 0
3, 55040, Note_on_c, 1, 68, 96
3, 55296, Note_off_c, 1, 68, 0
3, 55296, Note_on_c, 1, 69, 96
3, 57856, Note_off_c, 1, 69, 0
3, 57856, Note_on_c, 1, 72, 96
3, 58368, Note_off_c, 1, 72, 0
3, 58368, Note_on_c, 1, 71, 96
3, 58880, Note_off_c, 1, 71, 0
3, 58880, Note_on_c, 1, 69, 96
3, 59392, Note_off_c, 1, 69, 0
3, 59392, Note_on_c, 1, 68, 96
3, 60928, Note_off_c, 1, 68, 0
3, 60928, Note_on_c, 1, 68, 96
3, 61440, Note_off_c, 1, 68, 0
3, 61440, Note_on_c, 1, 69, 96
3, 62464, Note_off_c, 1, 69, 0
3, 62464, Note_on_c, 1, 69, 96
3, 62976, Note_off_c, 1, 69, 0
3, 62976, Note_on_c, 1, 67, 96
3, 63488, Note_off_c, 1, 67, 0
3, 63488, Note_on_c, 1, 65, 96
3, 64000, Note_off_c, 1, 65, 0
3, 64000, Note_on_c, 1, 64, 96
3, 64512, Note_off_c, 1, 64, 0
3, 64512, Note_on_c, 1, 62, 96
3, 65536, Note_off_c, 1, 62, 0
3, 65536, Note_on_c, 1, 60, 96
3, 66560, Note_off_c, 1, 60, 0
3, 66560, Note_on_c, 1, 67, 96
3, 68608, Note_off_c, 1, 67, 0
3, 68608, Note_on_c, 1, 65, 96
3, 69632, Note_off_c, 1, 65, 0
3, 69632, Note_on_c, 1, 64, 96
3, 70656, Note_off_c, 1, 64, 0
3, 70656, Note_on_c, 1, 69, 96
3, 71680, Note_off_c, 1, 69, 0
3, 71680, Note_on_c, 1, 68, 96
3, 72704, Note_off_c, 1, 68, 0
3, 73728, Note_on_c, 1, 69, 96
3, 75264, Note_off_c, 1, 69, 0
3, 75264, Note_on_c, 1, 69, 96
3, 75776, Note_off_c, 1, 69, 0
3, 75776, Note_on_c, 1, 69, 96
3, 76288, Note_off_c, 1, 69, 0
3, 76288, Note_on_c, 1, 68, 96
3, 76800, Note_off_c, 1, 68, 0
3, 77824, Note_on_c, 1, 67, 96
3, 79360, Note_off_c, 1, 67, 0
3, 79360, Note_on_c, 1, 67, 96
3, 79872, Note_off_c, 1, 67, 0
3, 79872, Note_on_c, 1, 67, 96
3, 80384, Note_off_c, 1, 67, 0
3, 80384, Note_on_c, 1, 65, 96
3, 80896, Note_off_c, 1, 65, 0
3, 81920, Note_on_c, 1, 62, 96
3, 83456, Note_off_c, 1, 62, 0
3, 83456, Note_on_c, 1, 62, 96
3, 83968, Note_off_c, 1, 62, 0
3, 83968, Note_on_c, 1, 62, 96
3, 86528, Note_off_c, 1, 62, 0
3, 86528, Note_on_c, 1, 61, 96
3, 87040, Note_off_c, 1, 61, 0
3, 88064, Note_on_c, 1, 69, 96
3, 89600, Note_off_c, 1, 69, 0
3, 89600, Note_on_c, 1, 69, 96
3, 90112, Note_off_c, 1, 69, 0
3, 90112, Note_on_c, 1, 69, 96
3, 90624, Note_off_c, 1, 69, 0
3, 90624, Note_on_c, 1, 68, 96
3, 91136, Note_off_c, 1, 68, 0
3, 92160, Note_on_c, 1, 67, 96
3, 93696, Note_off_c, 1, 67, 0
3, 93696, Note_on_c, 1, 67, 96
3, 94208, Note_off_c, 1, 67, 0
3, 94208, Note_on_c, 1, 67, 96
3, 94720, Note_off_c, 1, 67, 0
3, 94720, Note_on_c, 1, 65, 96
3, 95232, Note_off_c, 1, 65, 0
3, 96256, Note_on_c, 1, 65, 96
3, 97792, Note_off_c, 1, 65, 0
3, 97792, Note_on_c, 1, 65, 96
3, 98304, Note_off_c, 1, 65, 0
3, 98304, Note_on_c, 1, 65, 96
3, 98816, Note_off_c, 1, 65, 0
3, 98816, Note_on_c, 1, 64, 96
3, 99328, Note_off_c, 1, 64, 0
3, 100352, Note_on_c, 1, 62, 96
3, 101888, Note_off_c, 1, 62, 0
3, 101888, Note_on_c, 1, 64, 96
3, 102400, Note_off_c, 1, 64, 0
3, 102400, Note_on_c, 1, 60, 96
3, 103424, Note_off_c, 1, 60, 0
3, 103936, Note_on_c, 1, 77, 96
3, 104448, Note_off_c, 1, 77, 0
3, 104448, Note_on_c, 1, 72, 96
3, 105472, Note_off_c, 1, 72, 0
3, 105472, Note_on_c, 1, 71, 96
3, 106496, Note_off_c, 1, 71, 0
3, 106496, Note_on_c, 1, 69, 96
3, 107520, Note_off_c, 1, 69, 0
3, 111616, Note_on_c, 1, 76, 96
3, 113152, Note_off_c, 1, 76, 0
3, 113152, Note_on_c, 1, 74, 96
3, 113664, Note_off_c, 1, 74, 0
3, 113664, Note_on_c, 1, 72, 96
3, 114176, Note_off_c, 1, 72, 0
3, 114176, Note_on_c, 1, 71, 96
3, 114688, Note_off_c, 1, 71, 0
3, 114688, Note_on_c, 1, 69, 96
3, 115200, Note_off_c, 1, 69, 0
3, 115200, Note_on_c, 1, 68, 96
3, 115712, Note_off_c, 1, 68, 0
3, 115712, Note_on_c, 1, 69, 96
3, 116224, Note_off_c, 1, 69, 0
3, 116224, Note_on_c, 1, 71, 96
3, 116736, Note_off_c, 1, 71, 0
3, 116736, Note_on_c, 1, 72, 96
3, 119296, Note_off_c, 1, 72, 0
3, 119296, Note_on_c, 1, 69, 96
3, 119808, Note_off_c, 1, 69, 0
3, 119808, Note_on_c, 1, 74, 96
3, 120320, Note_off_c, 1, 74, 0
3, 120320, Note_on_c, 1, 72, 96
3, 120832, Note_off_c, 1, 72, 0
3, 120832, Note_on_c, 1, 71, 96
3, 123392, Note_off_c, 1, 71, 0
3, 123392, Note_on_c, 1, 72, 96
3, 123648, Note_off_c, 1, 72, 0
3, 123648, Note_on_c, 1, 74, 96
3, 123904, Note_off_c, 1, 74, 0
3, 123904, Note_on_c, 1, 72, 96
3, 124160, Note_off_c, 1, 72, 0
3, 124160, Note_on_c, 1, 71, 96
3, 124416, Note_off_c, 1, 71, 0
3, 124416, Note_on_c, 1, 69, 96
3, 124672, Note_off_c, 1, 69, 0
3, 124672, Note_on_c, 1, 68, 96
3, 124928, Note_off_c, 1, 68, 0
3, 124928, Note_on_c, 1, 69, 96
3, 127488, Note_off_c, 1, 69, 0
3, 127488, Note_on_c, 1, 72, 96
3, 128000, Note_off_c, 1, 72, 0
3, 128000, Note_on_c, 1, 71, 96
3, 128512, Note_off_c, 1, 71, 0
3, 128512, Note_on_c, 1, 69, 96
3, 129024, Note_off_c, 1, 69, 0
3, 129024, Note_on_c, 1, 68, 96
3, 131072, Note_off_c, 1, 68, 0
3, 131072, Note_on_c, 1, 69, 96
3, 132096, Note_off_c, 1, 69, 0
3, 132096, Note_on_c, 1, 69, 96
3, 132608, Note_off_c, 1, 69, 0
3, 132608, Note_on_c, 1, 67, 96
3, 133120, Note_off_c, 1, 67, 0
3, 133120, Note_on_c, 1, 65, 96
3, 133632, Note_off_c, 1, 65, 0
3, 133632, Note_on_c, 1, 64, 96
3, 134144, Note_off_c, 1, 64, 0
3, 134144, Note_on_c, 1, 62, 96
3, 135168, Note_off_c, 1, 62, 0
3, 135168, Note_on_c, 1, 60, 96
3, 136192, Note_off_c, 1, 60, 0
3, 136192, Note_on_c, 1, 67, 96
3, 137216, Note_off_c, 1, 67, 0
3, 137216, Note_on_c, 1, 67, 96
3, 138240, Note_off_c, 1, 67, 0
3, 138240, Note_on_c, 1, 65, 96
3, 139264, Note_off_c, 1, 65, 0
3, 139264, Note_on_c, 1, 65, 96
3, 139776, Note_off_c, 1, 65, 0
3, 139776, Note_on_c, 1, 64, 96
3, 140288, Note_off_c, 1, 64, 0
3, 141312, Note_on_c, 1, 67, 96
3, 142848, Note_off_c, 1, 67, 0
3, 142848, Note_on_c, 1, 67, 96
3, 143360, Note_off_c, 1, 67, 0
3, 143360, Note_on_c, 1, 67, 96
3, 143872, Note_off_c, 1, 67, 0
3, 143872, Note_on_c, 1, 65, 96
3, 144384, Note_off_c, 1, 65, 0
3, 145408, Note_on_c, 1, 62, 96
3, 146944, Note_off_c, 1, 62, 0
3, 146944, Note_on_c, 1, 62, 96
3, 147456, Note_off_c, 1, 62, 0
3, 147456, Note_on_c, 1, 62, 96
3, 147968, Note_off_c, 1, 62, 0
3, 147968, Note_on_c, 1, 68, 96
3, 148480, Note_off_c, 1, 68, 0
3, 148480, Note_on_c, 1, 69, 96
3, 148992, Note_off_c, 1, 69, 0
3, 148992, Note_on_c, 1, 71, 96
3, 149504, Note_off_c, 1, 71, 0
3, 149504, Note_on_c, 1, 64, 96
3, 150016, Note_off_c, 1, 64, 0
3, 150016, Note_on_c, 1, 64, 96
3, 150528, Note_off_c, 1, 64, 0
3, 150528, Note_on_c, 1, 66, 96
3, 151040, Note_off_c, 1, 66, 0
3, 151040, Note_on_c, 1, 68, 96
3, 151552, Note_off_c, 1, 68, 0
3, 151552, Note_on_c, 1, 69, 96
3, 152064, Note_off_c, 1, 69, 0
3, 152064, Note_on_c, 1, 69, 96
3, 153088, Note_off_c, 1, 69, 0
3, 153088, Note_on_c, 1, 67, 96
3, 153600, Note_off_c, 1, 67, 0
3, 153600, Note_on_c, 1, 69, 96
3, 156160, Note_off_c, 1, 69, 0
3, 156160, Note_on_c, 1, 76, 96
3, 156672, Note_off_c, 1, 76, 0
3, 156672, Note_on_c, 1, 69, 96
3, 157184, Note_off_c, 1, 69, 0
3, 157184, Note_on_c, 1, 67, 96
3, 157696, Note_off_c, 1, 67, 0
3, 157696, Note_on_c, 1, 64, 96
3, 158208, Note_off_c, 1, 64, 0
3, 158208, Note_on_c, 1, 64, 96
3, 158720, Note_off_c, 1, 64, 0
3, 158720, Note_on_c, 1, 65, 96
3, 159232, Note_off_c, 1, 65, 0
3, 159232, Note_on_c, 1, 62, 96
3, 159744, Note_off_c, 1, 62, 0
3, 159744, Note_on_c, 1, 64, 96
3, 160256, Note_off_c, 1, 64, 0
3, 160256, Note_on_c, 1, 67, 96
3, 160768, Note_off_c, 1, 67, 0
3, 160768, Note_on_c, 1, 69, 96
3, 161280, Note_off_c, 1, 69, 0
3, 161280, Note_on_c, 1, 65, 96
3, 161792, Note_off_c, 1, 65, 0
3, 161792, Note_on_c, 1, 67, 96
3, 162304, Note_off_c, 1, 67, 0
3, 162304, Note_on_c, 1, 64, 96
3, 162816, Note_off_c, 1, 64, 0
3, 162816, Note_on_c, 1, 65, 96
3, 163328, Note_off_c, 1, 65, 0
3, 163328, Note_on_c, 1, 62, 96
3, 163840, Note_off_c, 1, 62, 0
3, 163840, Note_on_c, 1, 64, 96
3, 164864, Note_off_c, 1, 64, 0
3, 166400, Note_on_c, 1, 64, 96
3, 167424, Note_off_c, 1, 64, 0
3, 167424, Note_on_c, 1, 66, 96
3, 167936, Note_off_c, 1, 66, 0
3, 167936, Note_on_c, 1, 67, 96
3, 168448, Note_off_c, 1, 67, 0
3, 168448, Note_on_c, 1, 62, 96
3, 168960, Note_off_c, 1, 62, 0
3, 168960, Note_on_c, 1, 67, 96
3, 169472, Note_off_c, 1, 67, 0
3, 169472, Note_on_c, 1, 67, 96
3, 169984, Note_off_c, 1, 67, 0
3, 169984, Note_on_c, 1, 67, 96
3, 170496, Note_off_c, 1, 67, 0
3, 170496, Note_on_c, 1, 66, 96
3, 170752, Note_off_c, 1, 66, 0
3, 170752, Note_on_c, 1, 64, 96
3, 171008, Note_off_c, 1, 64, 0
3, 171008, Note_on_c, 1, 66, 96
3, 171520, Note_off_c, 1, 66, 0
3, 171520, Note_on_c, 1, 68, 96
3, 172032, Note_off_c, 1, 68, 0
3, 172032, Note_on_c, 1, 69, 96
3, 172544, Note_off_c, 1, 69, 0
3, 172544, Note_on_c, 1, 76, 96
3, 173568, Note_off_c, 1, 76, 0
3, 173568, Note_on_c, 1, 75, 96
3, 174080, Note_off_c, 1, 75, 0
3, 174080, Note_on_c, 1, 76, 96
3, 174592, Note_off_c, 1, 76, 0
3, 174592, Note_on_c, 1, 71, 96
3, 175104, Note_off_c, 1, 71, 0
3, 175104, Note_on_c, 1, 67, 96
3, 175616, Note_off_c, 1, 67, 0
3, 175616, Note_on_c, 1, 68, 96
3, 176128, Note_off_c, 1, 68, 0
3, 176128, Note_on_c, 1, 69, 96
3, 176640, Note_off_c, 1, 69, 0
3, 176640, Note_on_c, 1, 64, 96
3, 177664, Note_off_c, 1, 64, 0
3, 177664, Note_on_c, 1, 62, 96
3, 178176, Note_off_c, 1, 62, 0
3, 178176, Note_on_c, 1, 60, 96
3, 178688, Note_off_c, 1, 60, 0
3, 178688, Note_on_c, 1, 72, 96
3, 179200, Note_off_c, 1, 72, 0
3, 179200, Note_on_c, 1, 71, 96
3, 179712, Note_off_c, 1, 71, 0
3, 179712, Note_on_c, 1, 69, 96
3, 180224, Note_off_c, 1, 69, 0
3, 180224, Note_on_c, 1, 69, 96
3, 180736, Note_off_c, 1, 69, 0
3, 180736, Note_on_c, 1, 67, 96
3, 180992, Note_off_c, 1, 67, 0
3, 180992, Note_on_c, 1, 66, 96
3, 181248, Note_off_c, 1, 66, 0
3, 181248, Note_on_c, 1, 67, 96
3, 181760, Note_off_c, 1, 67, 0
3, 181760, Note_on_c, 1, 69, 96
3, 182272, Note_off_c, 1, 69, 0
3, 182272, Note_on_c, 1, 62, 96
3, 183296, Note_off_c, 1, 62, 0
3, 184832, Note_on_c, 1, 65, 96
3, 185856, Note_off_c, 1, 65, 0
3, 185856, Note_on_c, 1, 68, 96
3, 186368, Note_off_c, 1, 68, 0
3, 186368, Note_on_c, 1, 69, 96
3, 186880, Note_off_c, 1, 69, 0
3, 186880, Note_on_c, 1, 64, 96
3, 187392, Note_off_c, 1, 64, 0
3, 187392, Note_on_c, 1, 69, 96
3, 187904, Note_off_c, 1, 69, 0
3, 187904, Note_on_c, 1, 69, 96
3, 188416, Note_off_c, 1, 69, 0
3, 188416, Note_on_c, 1, 69, 96
3, 188928, Note_off_c, 1, 69, 0
3, 188928, Note_on_c, 1, 68, 96
3, 189184, Note_off_c, 1, 68, 0
3, 189184, Note_on_c, 1, 66, 96
3, 189440, Note_off_c, 1, 66, 0
3, 189440, Note_on_c, 1, 68, 96
3, 189696, Note_off_c, 1, 68, 0
3, 189696, Note_on_c, 1, 69, 96
3, 189952, Note_off_c, 1, 69, 0
3, 189952, Note_on_c, 1, 71, 96
3, 190976, Note_off_c, 1, 71, 0
3, 190976, Note_on_c, 1, 69, 96
3, 191232, Note_off_c, 1, 69, 0
3, 191232, Note_on_c, 1, 68, 96
3, 191488, Note_off_c, 1, 68, 0
3, 191488, Note_on_c, 1, 69, 96
3, 191744, Note_off_c, 1, 69, 0
3, 191744, Note_on_c, 1, 71, 96
3, 192000, Note_off_c, 1, 71, 0
3, 192000, Note_on_c, 1, 72, 96
3, 193024, Note_off_c, 1, 72, 0
3, 193024, Note_on_c, 1, 74, 96
3, 193280, Note_off_c, 1, 74, 0
3, 193280, Note_on_c, 1, 72, 96
3, 193536, Note_off_c, 1, 72, 0
3, 193536, Note_on_c, 1, 71, 96
3, 193792, Note_off_c, 1, 71, 0
3, 193792, Note_on_c, 1, 69, 96
3, 194048, Note_off_c, 1, 69, 0
3, 194048, Note_on_c, 1, 71, 96
3, 195072, Note_off_c, 1, 71, 0
3, 195072, Note_on_c, 1, 69, 96
3, 195584, Note_off_c, 1, 69, 0
3, 195584, Note_on_c, 1, 71, 96
3, 196096, Note_off_c, 1, 71, 0
3, 196096, Note_on_c, 1, 73, 96
3, 196608, Note_off_c, 1, 73, 0
3, 196608, Note_on_c, 1, 74, 96
3, 197120, Note_off_c, 1, 74, 0
3, 197120, Note_on_c, 1, 76, 96
3, 197632, Note_off_c, 1, 76, 0
3, 197632, Note_on_c, 1, 77, 96
3, 199168, Note_off_c, 1, 77, 0
3, 199168, Note_on_c, 1, 76, 96
3, 199680, Note_off_c, 1, 76, 0
3, 199680, Note_on_c, 1, 76, 96
3, 200192, Note_off_c, 1, 76, 0
3, 200192, Note_on_c, 1, 74, 96
3, 200704, Note_off_c, 1, 74, 0
3, 200704, Note_on_c, 1, 73, 96
3, 201216, Note_off_c, 1, 73, 0
3, 201216, Note_on_c, 1, 74, 96
3, 201728, Note_off_c, 1, 74, 0
3, 201728, Note_on_c, 1, 76, 96
3, 202752, Note_off_c, 1, 76, 0
3, 202752, Note_on_c, 1, 76, 96
3, 203264, Note_off_c, 1, 76, 0
3, 203264, Note_on_c, 1, 74, 96
3, 203776, Note_off_c, 1, 74, 0
3, 204800, Note_on_c, 1, 71, 96
3, 205312, Note_off_c, 1, 71, 0
3, 205312, Note_on_c, 1, 72, 96
3, 205824, Note_off_c, 1, 72, 0
3, 205824, Note_on_c, 1, 74, 96
3, 206848, Note_off_c, 1, 74, 0
3, 206848, Note_on_c, 1, 74, 96
3, 207360, Note_off_c, 1, 74, 0
3, 207360, Note_on_c, 1, 72, 96
3, 207872, Note_off_c, 1, 72, 0
3, 207872, Note_on_c, 1, 72, 96
3, 209408, Note_off_c, 1, 72, 0
3, 209408, Note_on_c, 1, 71, 96
3, 209920, Note_off_c, 1, 71, 0
3, 209920, Note_on_c, 1, 71, 96
3, 211456, Note_off_c, 1, 71, 0
3, 211456, Note_on_c, 1, 68, 96
3, 211968, Note_off_c, 1, 68, 0
3, 211968, Note_on_c, 1, 69, 96
3, 214016, Note_off_c, 1, 69, 0
3, 214016, Note_on_c, 1, 68, 96
3, 215040, Note_off_c, 1, 68, 0
3, 215040, Note_on_c, 1, 69, 96
3, 217088, Note_off_c, 1, 69, 0
3, 217088, End_track
4, 0, Start_track
4, 0, Title_t, "Instrument 3"
4, 16384, Note_on_c, 2, 64, 96
4, 17408, Note_off_c, 2, 64, 0
4, 17408, Note_on_c, 2, 64, 96
4, 18432, Note_off_c, 2, 64, 0
4, 18432, Note_on_c, 2, 62, 96
4, 19456, Note_off_c, 2, 62, 0
4, 19456, Note_on_c, 2, 60, 96
4, 20480, Note_off_c, 2, 60, 0
4, 20480, Note_on_c, 2, 59, 96
4, 22528, Note_off_c, 2, 59, 0
4, 22528, Note_on_c, 2, 57, 96
4, 24576, Note_off_c, 2, 57, 0
4, 36864, Note_on_c, 2, 64, 96
4, 37888, Note_off_c, 2, 64, 0
4, 37888, Note_on_c, 2, 64, 96
4, 38912, Note_off_c, 2, 64, 0
4, 38912, Note_on_c, 2, 66, 96
4, 39936, Note_off_c, 2, 66, 0
4, 39936, Note_on_c, 2, 68, 96
4, 40960, Note_off_c, 2, 68, 0
4, 40960, Note_on_c, 2, 69, 96
4, 43008, Note_off_c, 2, 69, 0
4, 43008, Note_on_c, 2, 68, 96
4, 45056, Note_off_c, 2, 68, 0
4, 61440, Note_on_c, 2, 69, 96
4, 61952, Note_off_c, 2, 69, 0
4, 61952, Note_on_c, 2, 71, 96
4, 62464, Note_off_c, 2, 71, 0
4, 62464, Note_on_c, 2, 72, 96
4, 63488, Note_off_c, 2, 72, 0
4, 63488, Note_on_c, 2, 71, 96
4, 64000, Note_off_c, 2, 71, 0
4, 64000, Note_on_c, 2, 69, 96
4, 64512, Note_off_c, 2, 69, 0
4, 64512, Note_on_c, 2, 71, 96
4, 65536, Note_off_c, 2, 71, 0
4, 65536, Note_on_c, 2, 69, 96
4, 69632, Note_off_c, 2, 69, 0
4, 86016, Note_on_c, 2, 64, 96
4, 87040, Note_off_c, 2, 64, 0
4, 87040, Note_on_c, 2, 64, 96
4, 88064, Note_off_c, 2, 64, 0
4, 88064, Note_on_c, 2, 62, 96
4, 89088, Note_off_c, 2, 62, 0
4, 89088, Note_on_c, 2, 60, 96
4, 90112, Note_off_c, 2, 60, 0
4, 90112, Note_on_c, 2, 59, 96
4, 92160, Note_off_c, 2, 59, 0
4, 92160, Note_on_c, 2, 57, 96
4, 94208, Note_off_c, 2, 57, 0
4, 106496, Note_on_c, 2, 64, 96
4, 107520, Note_off_c, 2, 64, 0
4, 107520, Note_on_c, 2, 64, 96
4, 108544, Note_off_c, 2, 64, 0
4, 108544, Note_on_c, 2, 66, 96
4, 109568, Note_off_c, 2, 66, 0
4, 109568, Note_on_c, 2, 68, 96
4, 110592, Note_off_c, 2, 68, 0
4, 110592, Note_on_c, 2, 69, 96
4, 112640, Note_off_c, 2, 69, 0
4, 112640, Note_on_c, 2, 68, 96
4, 114688, Note_off_c, 2, 68, 0
4, 131072, Note_on_c, 2, 69, 96
4, 131584, Note_off_c, 2, 69, 0
4, 131584, Note_on_c, 2, 71, 96
4, 132096, Note_off_c, 2, 71, 0
4, 132096, Note_on_c, 2, 72, 96
4, 133120, Note_off_c, 2, 72, 0
4, 133120, Note_on_c, 2, 71, 96
4, 133632, Note_off_c, 2, 71, 0
4, 133632, Note_on_c, 2, 69, 96
4, 134144, Note_off_c, 2, 69, 0
4, 134144, Note_on_c, 2, 71, 96
4, 135168, Note_off_c, 2, 71, 0
4, 135168, Note_on_c, 2, 69, 96
4, 139264, Note_off_c, 2, 69, 0
4, 151552, Note_on_c, 2, 64, 96
4, 152576, Note_off_c, 2, 64, 0
4, 152576, Note_on_c, 2, 64, 96
4, 153600, Note_off_c, 2, 64, 0
4, 153600, Note_on_c, 2, 65, 96
4, 154624, Note_off_c, 2, 65, 0
4, 154624, Note_on_c, 2, 64, 96
4, 155648, Note_off_c, 2, 64, 0
4, 155648, Note_on_c, 2, 62, 96
4, 156160, Note_off_c, 2, 62, 0
4, 156160, Note_on_c, 2, 60, 96
4, 156672, Note_off_c, 2, 60, 0
4, 156672, Note_on_c, 2, 62, 96
4, 157696, Note_off_c, 2, 62, 0
4, 157696, Note_on_c, 2, 60, 96
4, 159744, Note_off_c, 2, 60, 0
4, 172032, Note_on_c, 2, 64, 96
4, 173056, Note_off_c, 2, 64, 0
4, 173056, Note_on_c, 2, 66, 96
4, 174080, Note_off_c, 2, 66, 0
4, 174080, Note_on_c, 2, 67, 96
4, 175104, Note_off_c, 2, 67, 0
4, 175104, Note_on_c, 2, 64, 96
4, 176128, Note_off_c, 2, 64, 0
4, 176128, Note_on_c, 2, 69, 96
4, 177152, Note_off_c, 2, 69, 0
4, 177152, Note_on_c, 2, 67, 96
4, 178176, Note_off_c, 2, 67, 0
4, 178176, Note_on_c, 2, 66, 96
4, 180224, Note_off_c, 2, 66, 0
4, 180224, Note_on_c, 2, 64, 96
4, 182272, Note_off_c, 2, 64, 0
4, 194560, Note_on_c, 2, 64, 96
4, 195584, Note_off_c, 2, 64, 0
4, 195584, Note_on_c, 2, 64, 96
4, 196608, Note_off_c, 2, 64, 0
4, 196608, Note_on_c, 2, 62, 96
4, 197632, Note_off_c, 2, 62, 0
4, 197632, Note_on_c, 2, 60, 96
4, 198656, Note_off_c, 2, 60, 0
4, 198656, Note_on_c, 2, 59, 96
4, 200704, Note_off_c, 2, 59, 0
4, 200704, Note_on_c, 2, 57, 96
4, 204800, Note_off_c, 2, 57, 0
4, 217088, End_track
5, 0, Start_track
5, 0, Title_t, "Instrument 4"
5, 0, Note_on_c, 3, 57, 96
5, 512, Note_off_c, 3, 57, 0
5, 512, Note_on_c, 3, 59, 96
5, 1024, Note_off_c, 3, 59, 0
5, 1024, Note_on_c, 3, 60, 96
5, 1536, Note_off_c, 3, 60, 0
5, 1536, Note_on_c, 3, 62, 96
5, 2048, Note_off_c, 3, 62, 0
5, 2048, Note_on_c, 3, 64, 96
5, 2560, Note_off_c, 3, 64, 0
5, 2560, Note_on_c, 3, 52, 96
5, 3072, Note_off_c, 3, 52, 0
5, 4096, Note_on_c, 3, 57, 96
5, 4608, Note_off_c, 3, 57, 0
5, 4608, Note_on_c, 3, 59, 96
5, 5120, Note_off_c, 3, 59, 0
5, 5120, Note_on_c, 3, 60, 96
5, 5632, Note_off_c, 3, 60, 0
5, 5632, Note_on_c, 3, 62, 96
5, 6144, Note_off_c, 3, 62, 0
5, 6144, Note_on_c, 3, 64, 96
5, 6656, Note_off_c, 3, 64, 0
5, 6656, Note_on_c, 3, 52, 96
5, 7168, Note_off_c, 3, 52, 0
5, 8192, Note_on_c, 3, 64, 96
5, 8704, Note_off_c, 3, 64, 0
5, 8704, Note_on_c, 3, 62, 96
5, 9216, Note_off_c, 3, 62, 0
5, 9216, Note_on_c, 3, 61, 96
5, 9728, Note_off_c, 3, 61, 0
5, 9728, Note_on_c, 3, 57, 96
5, 10240, Note_off_c, 3, 57, 0
5, 10240, Note_on_c, 3, 62, 96
5, 10752, Note_off_c, 3, 62, 0
5, 10752, Note_on_c, 3, 50, 96
5, 11264, Note_off_c, 3, 50, 0
5, 11264, Note_on_c, 3, 62, 96
5, 11776, Note_off_c, 3, 62, 0
5, 11776, Note_on_c, 3, 60, 96
5, 12288, Note_off_c, 3, 60, 0
5, 12288, Note_on_c, 3, 59, 96
5, 12800, Note_off_c, 3, 59, 0
5, 12800, Note_on_c, 3, 60, 96
5, 13312, Note_off_c, 3, 60, 0
5, 13312, Note_on_c, 3, 59, 96
5, 13824, Note_off_c, 3, 59, 0
5, 13824, Note_on_c, 3, 57, 96
5, 14336, Note_off_c, 3, 57, 0
5, 14336, Note_on_c, 3, 56, 96
5, 14848, Note_off_c, 3, 56, 0
5, 14848, Note_on_c, 3, 52, 96
5, 15360, Note_off_c, 3, 52, 0
5, 15360, Note_on_c, 3, 54, 96
5, 15872, Note_off_c, 3, 54, 0
5, 15872, Note_on_c, 3, 56, 96
5, 16384, Note_off_c, 3, 56, 0
5, 16384, Note_on_c, 3, 57, 96
5, 16896, Note_off_c, 3, 57, 0
5, 16896, Note_on_c, 3, 55, 96
5, 17408, Note_off_c, 3, 55, 0
5, 17408, Note_on_c, 3, 53, 96
5, 17920, Note_off_c, 3, 53, 0
5, 17920, Note_on_c, 3, 52, 96
5, 18432, Note_off_c, 3, 52, 0
5, 18432, Note_on_c, 3, 53, 96
5, 18944, Note_off_c, 3, 53, 0
5, 18944, Note_on_c, 3, 52, 96
5, 19456, Note_off_c, 3, 52, 0
5, 19456, Note_on_c, 3, 52, 96
5, 19968, Note_off_c, 3, 52, 0
5, 19968, Note_on_c, 3, 51, 96
5, 20480, Note_off_c, 3, 51, 0
5, 20480, Note_on_c, 3, 52, 96
5, 22016, Note_off_c, 3, 52, 0
5, 22016, Note_on_c, 3, 52, 96
5, 22528, Note_off_c, 3, 52, 0
5, 22528, Note_on_c, 3, 57, 96
5, 23040, Note_off_c, 3, 57, 0
5, 23040, Note_on_c, 3, 59, 96
5, 23552, Note_off_c, 3, 59, 0
5, 23552, Note_on_c, 3, 61, 96
5, 24064, Note_off_c, 3, 61, 0
5, 24064, Note_on_c, 3, 57, 96
5, 24576, Note_off_c, 3, 57, 0
5, 24576, Note_on_c, 3, 62, 96
5, 25088, Note_off_c, 3, 62, 0
5, 25088, Note_on_c, 3, 60, 96
5, 25600, Note_off_c, 3, 60, 0
5, 25600, Note_on_c, 3, 59, 96
5, 26112, Note_off_c, 3, 59, 0
5, 26112, Note_on_c, 3, 57, 96
5, 26624, Note_off_c, 3, 57, 0
5, 26624, Note_on_c, 3, 55, 96
5, 27136, Note_off_c, 3, 55, 0
5, 27136, Note_on_c, 3, 57, 96
5, 27648, Note_off_c, 3, 57, 0
5, 27648, Note_on_c, 3, 59, 96
5, 28160, Note_off_c, 3, 59, 0
5, 28160, Note_on_c, 3, 55, 96
5, 28672, Note_off_c, 3, 55, 0
5, 28672, Note_on_c, 3, 60, 96
5, 29184, Note_off_c, 3, 60, 0
5, 29184, Note_on_c, 3, 59, 96
5, 29696, Note_off_c, 3, 59, 0
5, 29696, Note_on_c, 3, 57, 96
5, 30208, Note_off_c, 3, 57, 0
5, 30208, Note_on_c, 3, 55, 96
5, 30720, Note_off_c, 3, 55, 0
5, 30720, Note_on_c, 3, 54, 96
5, 31232, Note_off_c, 3, 54, 0
5, 31232, Note_on_c, 3, 59, 96
5, 31744, Note_off_c, 3, 59, 0
5, 31744, Note_on_c, 3, 56, 96
5, 32256, Note_off_c, 3, 56, 0
5, 32256, Note_on_c, 3, 52, 96
5, 32768, Note_off_c, 3, 52, 0
5, 32768, Note_on_c, 3, 57, 96
5, 33280, Note_off_c, 3, 57, 0
5, 33280, Note_on_c, 3, 59, 96
5, 33792, Note_off_c, 3, 59, 0
5, 33792, Note_on_c, 3, 60, 96
5, 34304, Note_off_c, 3, 60, 0
5, 34304, Note_on_c, 3, 62, 96
5, 34816, Note_off_c, 3, 62, 0
5, 34816, Note_on_c, 3, 64, 96
5, 35328, Note_off_c, 3, 64, 0
5, 35328, Note_on_c, 3, 62, 96
5, 35840, Note_off_c, 3, 62, 0
5, 35840, Note_on_c, 3, 64, 96
5, 36352, Note_off_c, 3, 64, 0
5, 36352, Note_on_c, 3, 52, 96
5, 36864, Note_off_c, 3, 52, 0
5, 36864, Note_on_c, 3, 57, 96
5, 37376, Note_off_c, 3, 57, 0
5, 37376, Note_on_c, 3, 59, 96
5, 37888, Note_off_c, 3, 59, 0
5, 37888, Note_on_c, 3, 60, 96
5, 38400, Note_off_c, 3, 60, 0
5, 38400, Note_on_c, 3, 57, 96
5, 38912, Note_off_c, 3, 57, 0
5, 38912, Note_on_c, 3, 62, 96
5, 39424, Note_off_c, 3, 62, 0
5, 39424, Note_on_c, 3, 59, 96
5, 39936, Note_off_c, 3, 59, 0
5, 39936, Note_on_c, 3, 64, 96
5, 40448, Note_off_c, 3, 64, 0
5, 40448, Note_on_c, 3, 62, 96
5, 40960, Note_off_c, 3, 62, 0
5, 40960, Note_on_c, 3, 60, 96
5, 41472, Note_off_c, 3, 60, 0
5, 41472, Note_on_c, 3, 59, 96
5, 41984, Note_off_c, 3, 59, 0
5, 41984, Note_on_c, 3, 60, 96
5, 42496, Note_off_c, 3, 60, 0
5, 42496, Note_on_c, 3, 62, 96
5, 43008, Note_off_c, 3, 62, 0
5, 43008, Note_on_c, 3, 64, 96
5, 43520, Note_off_c, 3, 64, 0
5, 43520, Note_on_c, 3, 52, 96
5, 44032, Note_off_c, 3, 52, 0
5, 44032, Note_on_c, 3, 64, 96
5, 45568, Note_off_c, 3, 64, 0
5, 45568, Note_on_c, 3, 62, 96
5, 46080, Note_off_c, 3, 62, 0
5, 46080, Note_on_c, 3, 60, 96
5, 46592, Note_off_c, 3, 60, 0
5, 46592, Note_on_c, 3, 59, 96
5, 47104, Note_off_c, 3, 59, 0
5, 47104, Note_on_c, 3, 57, 96
5, 47616, Note_off_c, 3, 57, 0
5, 47616, Note_on_c, 3, 55, 96
5, 48128, Note_off_c, 3, 55, 0
5, 48128, Note_on_c, 3, 53, 96
5, 48640, Note_off_c, 3, 53, 0
5, 48640, Note_on_c, 3, 52, 96
5, 49152, Note_off_c, 3, 52, 0
5, 49152, Note_on_c, 3, 50, 96
5, 49664, Note_off_c, 3, 50, 0
5, 49664, Note_on_c, 3, 52, 96
5, 50176, Note_off_c, 3, 52, 0
5, 50176, Note_on_c, 3, 53, 96
5, 50688, Note_off_c, 3, 53, 0
5, 50688, Note_on_c, 3, 50, 96
5, 51200, Note_off_c, 3, 50, 0
5, 51200, Note_on_c, 3, 55, 96
5, 51712, Note_off_c, 3, 55, 0
5, 51712, Note_on_c, 3, 53, 96
5, 52224, Note_off_c, 3, 53, 0
5, 52224, Note_on_c, 3, 52, 96
5, 52736, Note_off_c, 3, 52, 0
5, 52736, Note_on_c, 3, 50, 96
5, 53248, Note_off_c, 3, 50, 0
5, 53248, Note_on_c, 3, 48, 96
5, 53760, Note_off_c, 3, 48, 0
5, 53760, Note_on_c, 3, 60, 96
5, 54272, Note_off_c, 3, 60, 0
5, 54272, Note_on_c, 3, 62, 96
5, 54784, Note_off_c, 3, 62, 0
5, 54784, Note_on_c, 3, 64, 96
5, 55296, Note_off_c, 3, 64, 0
5, 55296, Note_on_c, 3, 65, 96
5, 55808, Note_off_c, 3, 65, 0
5, 55808, Note_on_c, 3, 64, 96
5, 56320, Note_off_c, 3, 64, 0
5, 56320, Note_on_c, 3, 62, 96
5, 56832, Note_off_c, 3, 62, 0
5, 56832, Note_on_c, 3, 60, 96
5, 57344, Note_off_c, 3, 60, 0
5, 57344, Note_on_c, 3, 59, 96
5, 57856, Note_off_c, 3, 59, 0
5, 57856, Note_on_c, 3, 60, 96
5, 58368, Note_off_c, 3, 60, 0
5, 58368, Note_on_c, 3, 62, 96
5, 58880, Note_off_c, 3, 62, 0
5, 58880, Note_on_c, 3, 59, 96
5, 59392, Note_off_c, 3, 59, 0
5, 59392, Note_on_c, 3, 64, 96
5, 59904, Note_off_c, 3, 64, 0
5, 59904, Note_on_c, 3, 62, 96
5, 60416, Note_off_c, 3, 62, 0
5, 60416, Note_on_c, 3, 60, 96
5, 60928, Note_off_c, 3, 60, 0
5, 60928, Note_on_c, 3, 59, 96
5, 61440, Note_off_c, 3, 59, 0
5, 61440, Note_on_c, 3, 57, 96
5, 61952, Note_off_c, 3, 57, 0
5, 61952, Note_on_c, 3, 55, 96
5, 62464, Note_off_c, 3, 55, 0
5, 62464, Note_on_c, 3, 53, 96
5, 62976, Note_off_c, 3, 53, 0
5, 62976, Note_on_c, 3, 52, 96
5, 63488, Note_off_c, 3, 52, 0
5, 63488, Note_on_c, 3, 50, 96
5, 64000, Note_off_c, 3, 50, 0
5, 64000, Note_on_c, 3, 48, 96
5, 64512, Note_off_c, 3, 48, 0
5, 64512, Note_on_c, 3, 50, 96
5, 65024, Note_off_c, 3, 50, 0
5, 65024, Note_on_c, 3, 52, 96
5, 65536, Note_off_c, 3, 52, 0
5, 65536, Note_on_c, 3, 53, 96
5, 66048, Note_off_c, 3, 53, 0
5, 66048, Note_on_c, 3, 52, 96
5, 66560, Note_off_c, 3, 52, 0
5, 66560, Note_on_c, 3, 50, 96
5, 67072, Note_off_c, 3, 50, 0
5, 67072, Note_on_c, 3, 49, 96
5, 67584, Note_off_c, 3, 49, 0
5, 67584, Note_on_c, 3, 50, 96
5, 68096, Note_off_c, 3, 50, 0
5, 68096, Note_on_c, 3, 52, 96
5, 68608, Note_off_c, 3, 52, 0
5, 68608, Note_on_c, 3, 53, 96
5, 69120, Note_off_c, 3, 53, 0
5, 69120, Note_on_c, 3, 55, 96
5, 69632, Note_off_c, 3, 55, 0
5, 69632, Note_on_c, 3, 57, 96
5, 70144, Note_off_c, 3, 57, 0
5, 70144, Note_on_c, 3, 59, 96
5, 70656, Note_off_c, 3, 59, 0
5, 70656, Note_on_c, 3, 60, 96
5, 71168, Note_off_c, 3, 60, 0
5, 71168, Note_on_c, 3, 62, 96
5, 71680, Note_off_c, 3, 62, 0
5, 71680, Note_on_c, 3, 64, 96
5, 72704, Note_off_c, 3, 64, 0
5, 73728, Note_on_c, 3, 57, 96
5, 74240, Note_off_c, 3, 57, 0
5, 74240, Note_on_c, 3, 59, 96
5, 74752, Note_off_c, 3, 59, 0
5, 74752, Note_on_c, 3, 60, 96
5, 75264, Note_off_c, 3, 60, 0
5, 75264, Note_on_c, 3, 62, 96
5, 75776, Note_off_c, 3, 62, 0
5, 75776, Note_on_c, 3, 64, 96
5, 76288, Note_off_c, 3, 64, 0
5, 76288, Note_on_c, 3, 52, 96
5, 76800, Note_off_c, 3, 52, 0
5, 77824, Note_on_c, 3, 64, 96
5, 78336, Note_off_c, 3, 64, 0
5, 78336, Note_on_c, 3, 62, 96
5, 78848, Note_off_c, 3, 62, 0
5, 78848, Note_on_c, 3, 61, 96
5, 79360, Note_off_c, 3, 61, 0
5, 79360, Note_on_c, 3, 57, 96
5, 79872, Note_off_c, 3, 57, 0
5, 79872, Note_on_c, 3, 62, 96
5, 80384, Note_off_c, 3, 62, 0
5, 80384, Note_on_c, 3, 50, 96
5, 80896, Note_off_c, 3, 50, 0
5, 80896, Note_on_c, 3, 62, 96
5, 81408, Note_off_c, 3, 62, 0
5, 81408, Note_on_c, 3, 60, 96
5, 81920, Note_off_c, 3, 60, 0
5, 81920, Note_on_c, 3, 59, 96
5, 82432, Note_off_c, 3, 59, 0
5, 82432, Note_on_c, 3, 60, 96
5, 82944, Note_off_c, 3, 60, 0
5, 82944, Note_on_c, 3, 59, 96
5, 83456, Note_off_c, 3, 59, 0
5, 83456, Note_on_c, 3, 57, 96
5, 83968, Note_off_c, 3, 57, 0
5, 83968, Note_on_c, 3, 56, 96
5, 84480, Note_off_c, 3, 56, 0
5, 84480, Note_on_c, 3, 52, 96
5, 84992, Note_off_c, 3, 52, 0
5, 84992, Note_on_c, 3, 54, 96
5, 85504, Note_off_c, 3, 54, 0
5, 85504, Note_on_c, 3, 56, 96
5, 86016, Note_off_c, 3, 56, 0
5, 86016, Note_on_c, 3, 57, 96
5, 86528, Note_off_c, 3, 57, 0
5, 86528, Note_on_c, 3, 55, 96
5, 87040, Note_off_c, 3, 55, 0
5, 87040, Note_on_c, 3, 53, 96
5, 87552, Note_off_c, 3, 53, 0
5, 87552, Note_on_c, 3, 52, 96
5, 88064, Note_off_c, 3, 52, 0
5, 88064, Note_on_c, 3, 53, 96
5, 88576, Note_off_c, 3, 53, 0
5, 88576, Note_on_c, 3, 52, 96
5, 89088, Note_off_c, 3, 52, 0
5, 89088, Note_on_c, 3, 52, 96
5, 89600, Note_off_c, 3, 52, 0
5, 89600, Note_on_c, 3, 51, 96
5, 90112, Note_off_c, 3, 51, 0
5, 90112, Note_on_c, 3, 52, 96
5, 91648, Note_off_c, 3, 52, 0
5, 91648, Note_on_c, 3, 52, 96
5, 92160, Note_off_c, 3, 52, 0
5, 92160, Note_on_c, 3, 57, 96
5, 92672, Note_off_c, 3, 57, 0
5, 92672, Note_on_c, 3, 59, 96
5, 93184, Note_off_c, 3, 59, 0
5, 93184, Note_on_c, 3, 61, 96
5, 93696, Note_off_c, 3, 61, 0
5, 93696, Note_on_c, 3, 57, 96
5, 94208, Note_off_c, 3, 57, 0
5, 94208, Note_on_c, 3, 62, 96
5, 94720, Note_off_c, 3, 62, 0
5, 94720, Note_on_c, 3, 60, 96
5, 95232, Note_off_c, 3, 60, 0
5, 95232, Note_on_c, 3, 59, 96
5, 95744, Note_off_c, 3, 59, 0
5, 95744, Note_on_c, 3, 57, 96
5, 96256, Note_off_c, 3, 57, 0
5, 96256, Note_on_c, 3, 55, 96
5, 96768, Note_off_c, 3, 55, 0
5, 96768, Note_on_c, 3, 57, 96
5, 97280, Note_off_c, 3, 57, 0
5, 97280, Note_on_c, 3, 59, 96
5, 97792, Note_off_c, 3, 59, 0
5, 97792, Note_on_c, 3, 55, 96
5, 98304, Note_off_c, 3, 55, 0
5, 98304, Note_on_c, 3, 60, 96
5, 98816, Note_off_c, 3, 60, 0
5, 98816, Note_on_c, 3, 59, 96
5, 99328, Note_off_c, 3, 59, 0
5, 99328, Note_on_c, 3, 57, 96
5, 99840, Note_off_c, 3, 57, 0
5, 99840, Note_on_c, 3, 55, 96
5, 100352, Note_off_c, 3, 55, 0
5, 100352, Note_on_c, 3, 54, 96
5, 100864, Note_off_c, 3, 54, 0
5, 100864, Note_on_c, 3, 59, 96
5, 101376, Note_off_c, 3, 59, 0
5, 101376, Note_on_c, 3, 56, 96
5, 101888, Note_off_c, 3, 56, 0
5, 101888, Note_on_c, 3, 52, 96
5, 102400, Note_off_c, 3, 52, 0
5, 102400, Note_on_c, 3, 57, 96
5, 102912, Note_off_c, 3, 57, 0
5, 102912, Note_on_c, 3, 59, 96
5, 103424, Note_off_c, 3, 59, 0
5, 103424, Note_on_c, 3, 60, 96
5, 103936, Note_off_c, 3, 60, 0
5, 103936, Note_on_c, 3, 62, 96
5, 104448, Note_off_c, 3, 62, 0
5, 104448, Note_on_c, 3, 64, 96
5, 104960, Note_off_c, 3, 64, 0
5, 104960, Note_on_c, 3, 62, 96
5, 105472, Note_off_c, 3, 62, 0
5, 105472, Note_on_c, 3, 64, 96
5, 105984, Note_off_c, 3, 64, 0
5, 105984, Note_on_c, 3, 52, 96
5, 106496, Note_off_c, 3, 52, 0
5, 106496, Note_on_c, 3, 57, 96
5, 107008, Note_off_c, 3, 57, 0
5, 107008, Note_on_c, 3, 59, 96
5, 107520, Note_off_c, 3, 59, 0
5, 107520, Note_on_c, 3, 60, 96
5, 108032, Note_off_c, 3, 60, 0
5, 108032, Note_on_c, 3, 57, 96
5, 108544, Note_off_c, 3, 57, 0
5, 108544, Note_on_c, 3, 62, 96
5, 109056, Note_off_c, 3, 62, 0
5, 109056, Note_on_c, 3, 59, 96
5, 109568, Note_off_c, 3, 59, 0
5, 109568, Note_on_c, 3, 64, 96
5, 110080, Note_off_c, 3, 64, 0
5, 110080, Note_on_c, 3, 62, 96
5, 110592, Note_off_c, 3, 62, 0
5, 110592, Note_on_c, 3, 60, 96
5, 111104, Note_off_c, 3, 60, 0
5, 111104, Note_on_c, 3, 59, 96
5, 111616, Note_off_c, 3, 59, 0
5, 111616, Note_on_c, 3, 60, 96
5, 112128, Note_off_c, 3, 60, 0
5, 112128, Note_on_c, 3, 62, 96
5, 112640, Note_off_c, 3, 62, 0
5, 112640, Note_on_c, 3, 64, 96
5, 113152, Note_off_c, 3, 64, 0
5, 113152, Note_on_c, 3, 52, 96
5, 113664, Note_off_c, 3, 52, 0
5, 113664, Note_on_c, 3, 64, 96
5, 115200, Note_off_c, 3, 64, 0
5, 115200, Note_on_c, 3, 62, 96
5, 115712, Note_off_c, 3, 62, 0
5, 115712, Note_on_c, 3, 60, 96
5, 116224, Note_off_c, 3, 60, 0
5, 116224, Note_on_c, 3, 59, 96
5, 116736, Note_off_c, 3, 59, 0
5, 116736, Note_on_c, 3, 57, 96
5, 117248, Note_off_c, 3, 57, 0
5, 117248, Note_on_c, 3, 55, 96
5, 117760, Note_off_c, 3, 55, 0
5, 117760, Note_on_c, 3, 53, 96
5, 118272, Note_off_c, 3, 53, 0
5, 118272, Note_on_c, 3, 52, 96
5, 118784, Note_off_c, 3, 52, 0
5, 118784, Note_on_c, 3, 50, 96
5, 119296, Note_off_c, 3, 50, 0
5, 119296, Note_on_c, 3, 52, 96
5, 119808, Note_off_c, 3, 52, 0
5, 119808, Note_on_c, 3, 53, 96
5, 120320, Note_off_c, 3, 53, 0
5, 120320, Note_on_c, 3, 50, 96
5, 120832, Note_off_c, 3, 50, 0
5, 120832, Note_on_c, 3, 55, 96
5, 121344, Note_off_c, 3, 55, 0
5, 121344, Note_on_c, 3, 53, 96
5, 121856, Note_off_c, 3, 53, 0
5, 121856, Note_on_c, 3, 52, 96
5, 122368, Note_off_c, 3, 52, 0
5, 122368, Note_on_c, 3, 50, 96
5, 122880, Note_off_c, 3, 50, 0
5, 122880, Note_on_c, 3, 48, 96
5, 123392, Note_off_c, 3, 48, 0
5, 123392, Note_on_c, 3, 60, 96
5, 123904, Note_off_c, 3, 60, 0
5, 123904, Note_on_c, 3, 62, 96
5, 124416, Note_off_c, 3, 62, 0
5, 124416, Note_on_c, 3, 64, 96
5, 124928, Note_off_c, 3, 64, 0
5, 124928, Note_on_c, 3, 65, 96
5, 125440, Note_off_c, 3, 65, 0
5, 125440, Note_on_c, 3, 64, 96
5, 125952, Note_off_c, 3, 64, 0
5, 125952, Note_on_c, 3, 62, 96
5, 126464, Note_off_c, 3, 62, 0
5, 126464, Note_on_c, 3, 60, 96
5, 126976, Note_off_c, 3, 60, 0
5, 126976, Note_on_c, 3, 59, 96
5, 127488, Note_off_c, 3, 59, 0
5, 127488, Note_on_c, 3, 60, 96
5, 128000, Note_off_c, 3, 60, 0
5, 128000, Note_on_c, 3, 62, 96
5, 128512, Note_off_c, 3, 62, 0
5, 128512, Note_on_c, 3, 59, 96
5, 129024, Note_off_c, 3, 59, 0
5, 129024, Note_on_c, 3, 64, 96
5, 129536, Note_off_c, 3, 64, 0
5, 129536, Note_on_c, 3, 62, 96
5, 130048, Note_off_c, 3, 62, 0
5, 130048, Note_on_c, 3, 60, 96
5, 130560, Note_off_c, 3, 60, 0
5, 130560, Note_on_c, 3, 59, 96
5, 131072, Note_off_c, 3, 59, 0
5, 131072, Note_on_c, 3, 57, 96
5, 131584, Note_off_c, 3, 57, 0
5, 131584, Note_on_c, 3, 55, 96
5, 132096, Note_off_c, 3, 55, 0
5, 132096, Note_on_c, 3, 53, 96
5, 132608, Note_off_c, 3, 53, 0
5, 132608, Note_on_c, 3, 52, 96
5, 133120, Note_off_c, 3, 52, 0
5, 133120, Note_on_c, 3, 50, 96
5, 133632, Note_off_c, 3, 50, 0
5, 133632, Note_on_c, 3, 48, 96
5, 134144, Note_off_c, 3, 48, 0
5, 134144, Note_on_c, 3, 50, 96
5, 134656, Note_off_c, 3, 50, 0
5, 134656, Note_on_c, 3, 52, 96
5, 135168, Note_off_c, 3, 52, 0
5, 135168, Note_on_c, 3, 53, 96
5, 135680, Note_off_c, 3, 53, 0
5, 135680, Note_on_c, 3, 52, 96
5, 136192, Note_off_c, 3, 52, 0
5, 136192, Note_on_c, 3, 50, 96
5, 136704, Note_off_c, 3, 50, 0
5, 136704, Note_on_c, 3, 49, 96
5, 137216, Note_off_c, 3, 49, 0
5, 137216, Note_on_c, 3, 50, 96
5, 137728, Note_off_c, 3, 50, 0
5, 137728, Note_on_c, 3, 52, 96
5, 138240, Note_off_c, 3, 52, 0
5, 138240, Note_on_c, 3, 53, 96
5, 138752, Note_off_c, 3, 53, 0
5, 138752, Note_on_c, 3, 55, 96
5, 139264, Note_off_c, 3, 55, 0
5, 139264, Note_on_c, 3, 57, 96
5, 140288, Note_off_c, 3, 57, 0
5, 141312, Note_on_c, 3, 57, 96
5, 141824, Note_off_c, 3, 57, 0
5, 141824, Note_on_c, 3, 59, 96
5, 142336, Note_off_c, 3, 59, 0
5, 142336, Note_on_c, 3, 61, 96
5, 142848, Note_off_c, 3, 61, 0
5, 142848, Note_on_c, 3, 57, 96
5, 143360, Note_off_c, 3, 57, 0
5, 143360, Note_on_c, 3, 62, 96
5, 143872, Note_off_c, 3, 62, 0
5, 143872, Note_on_c, 3, 50, 96
5, 144384, Note_off_c, 3, 50, 0
5, 144384, Note_on_c, 3, 62, 96
5, 144896, Note_off_c, 3, 62, 0
5, 144896, Note_on_c, 3, 60, 96
5, 145408, Note_off_c, 3, 60, 0
5, 145408, Note_on_c, 3, 59, 96
5, 145920, Note_off_c, 3, 59, 0
5, 145920, Note_on_c, 3, 60, 96
5, 146432, Note_off_c, 3, 60, 0
5, 146432, Note_on_c, 3, 59, 96
5, 146944, Note_off_c, 3, 59, 0
5, 146944, Note_on_c, 3, 57, 96
5, 147456, Note_off_c, 3, 57, 0
5, 147456, Note_on_c, 3, 56, 96
5, 147968, Note_off_c, 3, 56, 0
5, 147968, Note_on_c, 3, 52, 96
5, 148480, Note_off_c, 3, 52, 0
5, 148480, Note_on_c, 3, 64, 96
5, 148992, Note_off_c, 3, 64, 0
5, 148992, Note_on_c, 3, 62, 96
5, 149504, Note_off_c, 3, 62, 0
5, 149504, Note_on_c, 3, 60, 96
5, 150016, Note_off_c, 3, 60, 0
5, 150016, Note_on_c, 3, 62, 96
5, 150528, Note_off_c, 3, 62, 0
5, 150528, Note_on_c, 3, 60, 96
5, 151040, Note_off_c, 3, 60, 0
5, 151040, Note_on_c, 3, 59, 96
5, 151552, Note_off_c, 3, 59, 0
5, 151552, Note_on_c, 3, 57, 96
5, 152064, Note_off_c, 3, 57, 0
5, 152064, Note_on_c, 3, 55, 96
5, 152576, Note_off_c, 3, 55, 0
5, 152576, Note_on_c, 3, 53, 96
5, 153088, Note_off_c, 3, 53, 0
5, 153088, Note_on_c, 3, 52, 96
5, 153600, Note_off_c, 3, 52, 0
5, 153600, Note_on_c, 3, 50, 96
5, 154112, Note_off_c, 3, 50, 0
5, 154112, Note_on_c, 3, 53, 96
5, 154624, Note_off_c, 3, 53, 0
5, 154624, Note_on_c, 3, 57, 96
5, 155136, Note_off_c, 3, 57, 0
5, 155136, Note_on_c, 3, 55, 96
5, 155648, Note_off_c, 3, 55, 0
5, 155648, Note_on_c, 3, 53, 96
5, 156160, Note_off_c, 3, 53, 0
5, 156160, Note_on_c, 3, 52, 96
5, 156672, Note_off_c, 3, 52, 0
5, 156672, Note_on_c, 3, 53, 96
5, 157184, Note_off_c, 3, 53, 0
5, 157184, Note_on_c, 3, 55, 96
5, 157696, Note_off_c, 3, 55, 0
5, 157696, Note_on_c, 3, 57, 96
5, 158208, Note_off_c, 3, 57, 0
5, 158208, Note_on_c, 3, 55, 96
5, 158720, Note_off_c, 3, 55, 0
5, 158720, Note_on_c, 3, 57, 96
5, 159232, Note_off_c, 3, 57, 0
5, 159232, Note_on_c, 3, 53, 96
5, 159744, Note_off_c, 3, 53, 0
5, 159744, Note_on_c, 3, 48, 96
5, 164352, Note_off_c, 3, 48, 0
5, 164352, Note_on_c, 3, 64, 96
5, 164864, Note_off_c, 3, 64, 0
5, 164864, Note_on_c, 3, 65, 96
5, 165376, Note_off_c, 3, 65, 0
5, 165376, Note_on_c, 3, 62, 96
5, 165888, Note_off_c, 3, 62, 0
5, 165888, Note_on_c, 3, 64, 96
5, 166400, Note_off_c, 3, 64, 0
5, 166400, Note_on_c, 3, 60, 96
5, 166912, Note_off_c, 3, 60, 0
5, 166912, Note_on_c, 3, 59, 96
5, 167424, Note_off_c, 3, 59, 0
5, 167424, Note_on_c, 3, 57, 96
5, 167936, Note_off_c, 3, 57, 0
5, 167936, Note_on_c, 3, 55, 96
5, 168448, Note_off_c, 3, 55, 0
5, 168448, Note_on_c, 3, 53, 96
5, 168960, Note_off_c, 3, 53, 0
5, 168960, Note_on_c, 3, 52, 96
5, 169472, Note_off_c, 3, 52, 0
5, 169472, Note_on_c, 3, 57, 96
5, 169984, Note_off_c, 3, 57, 0
5, 169984, Note_on_c, 3, 50, 96
5, 170496, Note_off_c, 3, 50, 0
5, 170496, Note_on_c, 3, 62, 96
5, 171008, Note_off_c, 3, 62, 0
5, 171008, Note_on_c, 3, 60, 96
5, 171520, Note_off_c, 3, 60, 0
5, 171520, Note_on_c, 3, 59, 96
5, 172032, Note_off_c, 3, 59, 0
5, 172032, Note_on_c, 3, 57, 96
5, 172544, Note_off_c, 3, 57, 0
5, 172544, Note_on_c, 3, 55, 96
5, 173056, Note_off_c, 3, 55, 0
5, 173056, Note_on_c, 3, 57, 96
5, 173568, Note_off_c, 3, 57, 0
5, 173568, Note_on_c, 3, 59, 96
5, 174080, Note_off_c, 3, 59, 0
5, 174080, Note_on_c, 3, 52, 96
5, 178176, Note_off_c, 3, 52, 0
5, 178688, Note_on_c, 3, 57, 96
5, 179712, Note_off_c, 3, 57, 0
5, 179712, Note_on_c, 3, 59, 96
5, 180224, Note_off_c, 3, 59, 0
5, 180224, Note_on_c, 3, 60, 96
5, 180736, Note_off_c, 3, 60, 0
5, 180736, Note_on_c, 3, 55, 96
5, 181248, Note_off_c, 3, 55, 0
5, 181248, Note_on_c, 3, 60, 96
5, 181760, Note_off_c, 3, 60, 0
5, 181760, Note_on_c, 3, 60, 96
5, 182272, Note_off_c, 3, 60, 0
5, 182272, Note_on_c, 3, 60, 96
5, 182784, Note_off_c, 3, 60, 0
5, 182784, Note_on_c, 3, 59, 96
5, 183040, Note_off_c, 3, 59, 0
5, 183040, Note_on_c, 3, 57, 96
5, 183296, Note_off_c, 3, 57, 0
5, 183296, Note_on_c, 3, 59, 96
5, 183808, Note_off_c, 3, 59, 0
5, 183808, Note_on_c, 3, 61, 96
5, 184320, Note_off_c, 3, 61, 0
5, 184320, Note_on_c, 3, 62, 96
5, 184832, Note_off_c, 3, 62, 0
5, 184832, Note_on_c, 3, 57, 96
5, 185344, Note_off_c, 3, 57, 0
5, 185344, Note_on_c, 3, 62, 96
5, 186880, Note_off_c, 3, 62, 0
5, 186880, Note_on_c, 3, 60, 96
5, 187136, Note_off_c, 3, 60, 0
5, 187136, Note_on_c, 3, 59, 96
5, 187392, Note_off_c, 3, 59, 0
5, 187392, Note_on_c, 3, 60, 96
5, 187904, Note_off_c, 3, 60, 0
5, 187904, Note_on_c, 3, 62, 96
5, 188416, Note_off_c, 3, 62, 0
5, 188416, Note_on_c, 3, 64, 96
5, 188928, Note_off_c, 3, 64, 0
5, 188928, Note_on_c, 3, 52, 96
5, 189440, Note_off_c, 3, 52, 0
5, 189440, Note_on_c, 3, 64, 96
5, 189952, Note_off_c, 3, 64, 0
5, 189952, Note_on_c, 3, 62, 96
5, 190464, Note_off_c, 3, 62, 0
5, 190464, Note_on_c, 3, 60, 96
5, 190976, Note_off_c, 3, 60, 0
5, 190976, Note_on_c, 3, 64, 96
5, 191488, Note_off_c, 3, 64, 0
5, 191488, Note_on_c, 3, 60, 96
5, 192000, Note_off_c, 3, 60, 0
5, 192000, Note_on_c, 3, 57, 96
5, 192512, Note_off_c, 3, 57, 0
5, 192512, Note_on_c, 3, 54, 96
5, 193024, Note_off_c, 3, 54, 0
5, 193024, Note_on_c, 3, 52, 96
5, 193536, Note_off_c, 3, 52, 0
5, 193536, Note_on_c, 3, 54, 96
5, 194048, Note_off_c, 3, 54, 0
5, 194048, Note_on_c, 3, 56, 96
5, 194560, Note_off_c, 3, 56, 0
5, 194560, Note_on_c, 3, 57, 96
5, 195072, Note_off_c, 3, 57, 0
5, 195072, Note_on_c, 3, 55, 96
5, 195584, Note_off_c, 3, 55, 0
5, 195584, Note_on_c, 3, 53, 96
5, 196096, Note_off_c, 3, 53, 0
5, 196096, Note_on_c, 3, 52, 96
5, 196608, Note_off_c, 3, 52, 0
5, 196608, Note_on_c, 3, 53, 96
5, 197120, Note_off_c, 3, 53, 0
5, 197120, Note_on_c, 3, 52, 96
5, 197632, Note_off_c, 3, 52, 0
5, 197632, Note_on_c, 3, 52, 96
5, 198144, Note_off_c, 3, 52, 0
5, 198144, Note_on_c, 3, 51, 96
5, 198656, Note_off_c, 3, 51, 0
5, 198656, Note_on_c, 3, 52, 96
5, 199680, Note_off_c, 3, 52, 0
5, 199680, Note_on_c, 3, 52, 96
5, 200192, Note_off_c, 3, 52, 0
5, 200192, Note_on_c, 3, 64, 96
5, 200704, Note_off_c, 3, 64, 0
5, 200704, Note_on_c, 3, 57, 96
5, 201216, Note_off_c, 3, 57, 0
5, 201216, Note_on_c, 3, 59, 96
5, 201728, Note_off_c, 3, 59, 0
5, 201728, Note_on_c, 3, 61, 96
5, 202240, Note_off_c, 3, 61, 0
5, 202240, Note_on_c, 3, 57, 96
5, 202752, Note_off_c, 3, 57, 0
5, 202752, Note_on_c, 3, 62, 96
5, 203264, Note_off_c, 3, 62, 0
5, 203264, Note_on_c, 3, 60, 96
5, 203776, Note_off_c, 3, 60, 0
5, 203776, Note_on_c, 3, 59, 96
5, 204288, Note_off_c, 3, 59, 0
5, 204288, Note_on_c, 3, 57, 96
5, 204800, Note_off_c, 3, 57, 0
5, 204800, Note_on_c, 3, 55, 96
5, 205312, Note_off_c, 3, 55, 0
5, 205312, Note_on_c, 3, 57, 96
5, 205824, Note_off_c, 3, 57, 0
5, 205824, Note_on_c, 3, 59, 96
5, 206336, Note_off_c, 3, 59, 0
5, 206336, Note_on_c, 3, 55, 96
5, 206848, Note_off_c, 3, 55, 0
5, 206848, Note_on_c, 3, 60, 96
5, 207360, Note_off_c, 3, 60, 0
5, 207360, Note_on_c, 3, 59, 96
5, 207872, Note_off_c, 3, 59, 0
5, 207872, Note_on_c, 3, 57, 96
5, 208384, Note_off_c, 3, 57, 0
5, 208384, Note_on_c, 3, 55, 96
5, 208896, Note_off_c, 3, 55, 0
5, 208896, Note_on_c, 3, 54, 96
5, 209408, Note_off_c, 3, 54, 0
5, 209408, Note_on_c, 3, 59, 96
5, 209920, Note_off_c, 3, 59, 0
5, 209920, Note_on_c, 3, 56, 96
5, 210432, Note_off_c, 3, 56, 0
5, 210432, Note_on_c, 3, 52, 96
5, 210944, Note_off_c, 3, 52, 0
5, 210944, Note_on_c, 3, 57, 96
5, 211456, Note_off_c, 3, 57, 0
5, 211456, Note_on_c, 3, 59, 96
5, 211968, Note_off_c, 3, 59, 0
5, 211968, Note_on_c, 3, 60, 96
5, 212480, Note_off_c, 3, 60, 0
5, 212480, Note_on_c, 3, 62, 96
5, 212992, Note_off_c, 3, 62, 0
5, 212992, Note_on_c, 3, 64, 96
5, 213504, Note_off_c, 3, 64, 0
5, 213504, Note_on_c, 3, 62, 96
5, 214016, Note_off_c, 3, 62, 0
5, 214016, Note_on_c, 3, 64, 96
5, 214528, Note_off_c, 3, 64, 0
5, 214528, Note_on_c, 3, 52, 96
5, 215040, Note_off_c, 3, 52, 0
5, 215040, Note_on_c, 3, 57, 96
5, 217088, Note_off_c, 3, 57, 0
5, 217088, End_track
0, 0, End_of_file
