0, 0, Header, 1, 6, 120
1, 0, Start_track
1, 0, Title_t, "Marche in D"
1, 0, Title_t, "from ""Anna Magdalena's Notebook"""
1, 0, Text_t, "Composed by Carl Philipp Emanuel Bach\012"
1, 0, Text_t, "Compiled in Magdalena's Notebook by Johann Sebastian Bach\012"
1, 0, Text_t, "Programmed for MIDI by Lory Werths\012"
1, 0, Time_signature, 4, 2, 24, 8
1, 0, Key_signature, 2, "major"
1, 0, Tempo, 315789
1, 0, End_track
2, 0, Start_track
2, 0, Control_c, 0, 0, 0
2, 0, Control_c, 0, 7, 101
2, 0, Control_c, 0, 10, 32
2, 0, Control_c, 0, 32, 1
2, 0, Program_c, 0, 0
2, 2, Control_c, 0, 0, 127
2, 3, Program_c, 0, 8
2, 360, Note_on_c, 0, 69, 100
2, 410, Note_on_c, 0, 69, 0
2, 480, Note_on_c, 0, 74, 100
2, 530, Note_on_c, 0, 74, 0
2, 600, Note_on_c, 0, 69, 100
2, 839, Note_on_c, 0, 69, 0
2, 840, Note_on_c, 0, 71, 100
2, 899, Note_on_c, 0, 71, 0
2, 900, Note_on_c, 0, 73, 100
2, 959, Note_on_c, 0, 73, 0
2, 960, Note_on_c, 0, 74, 100
2, 1010, Note_on_c, 0, 74, 0
2, 1080, Note_on_c, 0, 69, 100
2, 1319, Note_on_c, 0, 69, 0
2, 1320, Note_on_c, 0, 71, 100
2, 1379, Note_on_c, 0, 71, 0
2, 1380, Note_on_c, 0, 73, 100
2, 1439, Note_on_c, 0, 73, 0
2, 1440, Note_on_c, 0, 74, 100
2, 1499, Note_on_c, 0, 74, 0
2, 1500, Note_on_c, 0, 76, 100
2, 1559, Note_on_c, 0, 76, 0
2, 1560, Note_on_c, 0, 78, 100
2, 1619, Note_on_c, 0, 78, 0
2, 1620, Note_on_c, 0, 79, 100
2, 1679, Note_on_c, 0, 79, 0
2, 1680, Note_on_c, 0, 81, 100
2, 1739, Note_on_c, 0, 81, 0
2, 1740, Note_on_c, 0, 79, 100
2, 1799, Note_on_c, 0, 79, 0
2, 1800, Note_on_c, 0, 78, 100
2, 1859, Note_on_c, 0, 78, 0
2, 1860, Note_on_c, 0, 76, 100
2, 1919, Note_on_c, 0, 76, 0
2, 1920, Note_on_c, 0, 78, 100
2, 1970, Note_on_c, 0, 78, 0
2, 2040, Note_on_c, 0, 74, 100
2, 2279, Note_on_c, 0, 74, 0
2, 2280, Note_on_c, 0, 78, 100
2, 2339, Note_on_c, 0, 78, 0
2, 2340, Note_on_c, 0, 76, 100
2, 2399, Note_on_c, 0, 76, 0
2, 2400, Note_on_c, 0, 78, 100
2, 2450, Note_on_c, 0, 78, 0
2, 2520, Note_on_c, 0, 74, 100
2, 2759, Note_on_c, 0, 74, 0
2, 2760, Note_on_c, 0, 71, 100
2, 2819, Note_on_c, 0, 71, 0
2, 2820, Note_on_c, 0, 69, 100
2, 2879, Note_on_c, 0, 69, 0
2, 2880, Note_on_c, 0, 71, 100
2, 2939, Note_on_c, 0, 71, 0
2, 2940, Note_on_c, 0, 68, 100
2, 2999, Note_on_c, 0, 68, 0
2, 3000, Note_on_c, 0, 76, 100
2, 3179, Note_on_c, 0, 76, 0
2, 3180, Note_on_c, 0, 74, 100
2, 3239, Note_on_c, 0, 74, 0
2, 3240, Note_on_c, 0, 73, 100
2, 3299, Note_on_c, 0, 73, 0
2, 3300, Note_on_c, 0, 71, 100
2, 3359, Note_on_c, 0, 71, 0
2, 3360, Note_on_c, 0, 69, 100
2, 3539, Note_on_c, 0, 69, 0
2, 3540, Note_on_c, 0, 74, 100
2, 3599, Note_on_c, 0, 74, 0
2, 3600, Note_on_c, 0, 73, 100
2, 3629, Note_on_c, 0, 73, 0
2, 3630, Note_on_c, 0, 71, 100
2, 3659, Note_on_c, 0, 71, 0
2, 3660, Note_on_c, 0, 73, 100
2, 3689, Note_on_c, 0, 73, 0
2, 3690, Note_on_c, 0, 71, 100
2, 3719, Note_on_c, 0, 71, 0
2, 3720, Note_on_c, 0, 73, 100
2, 3749, Note_on_c, 0, 73, 0
2, 3750, Note_on_c, 0, 71, 100
2, 3779, Note_on_c, 0, 71, 0
2, 3780, Note_on_c, 0, 69, 100
2, 3839, Note_on_c, 0, 69, 0
2, 3840, Note_on_c, 0, 69, 100
2, 3959, Note_on_c, 0, 69, 0
2, 3960, Note_on_c, 0, 64, 100
2, 4019, Note_on_c, 0, 64, 0
2, 4020, Note_on_c, 0, 69, 100
2, 4079, Note_on_c, 0, 69, 0
2, 4080, Note_on_c, 0, 73, 100
2, 4139, Note_on_c, 0, 73, 0
2, 4140, Note_on_c, 0, 69, 100
2, 4199, Note_on_c, 0, 69, 0
2, 4200, Note_on_c, 0, 73, 100
2, 4259, Note_on_c, 0, 73, 0
2, 4260, Note_on_c, 0, 76, 100
2, 4319, Note_on_c, 0, 76, 0
2, 4320, Note_on_c, 0, 81, 100
2, 4679, Note_on_c, 0, 81, 0
2, 4680, Note_on_c, 0, 69, 100
2, 4730, Note_on_c, 0, 69, 0
2, 4800, Note_on_c, 0, 74, 100
2, 4850, Note_on_c, 0, 74, 0
2, 4920, Note_on_c, 0, 69, 100
2, 5159, Note_on_c, 0, 69, 0
2, 5160, Note_on_c, 0, 71, 100
2, 5219, Note_on_c, 0, 71, 0
2, 5220, Note_on_c, 0, 73, 100
2, 5279, Note_on_c, 0, 73, 0
2, 5280, Note_on_c, 0, 74, 100
2, 5330, Note_on_c, 0, 74, 0
2, 5400, Note_on_c, 0, 69, 100
2, 5639, Note_on_c, 0, 69, 0
2, 5640, Note_on_c, 0, 71, 100
2, 5699, Note_on_c, 0, 71, 0
2, 5700, Note_on_c, 0, 73, 100
2, 5759, Note_on_c, 0, 73, 0
2, 5760, Note_on_c, 0, 74, 100
2, 5819, Note_on_c, 0, 74, 0
2, 5820, Note_on_c, 0, 76, 100
2, 5879, Note_on_c, 0, 76, 0
2, 5880, Note_on_c, 0, 78, 100
2, 5939, Note_on_c, 0, 78, 0
2, 5940, Note_on_c, 0, 79, 100
2, 5999, Note_on_c, 0, 79, 0
2, 6000, Note_on_c, 0, 81, 100
2, 6059, Note_on_c, 0, 81, 0
2, 6060, Note_on_c, 0, 79, 100
2, 6119, Note_on_c, 0, 79, 0
2, 6120, Note_on_c, 0, 78, 100
2, 6179, Note_on_c, 0, 78, 0
2, 6180, Note_on_c, 0, 76, 100
2, 6239, Note_on_c, 0, 76, 0
2, 6240, Note_on_c, 0, 78, 100
2, 6290, Note_on_c, 0, 78, 0
2, 6360, Note_on_c, 0, 74, 100
2, 6599, Note_on_c, 0, 74, 0
2, 6600, Note_on_c, 0, 78, 100
2, 6659, Note_on_c, 0, 78, 0
2, 6660, Note_on_c, 0, 76, 100
2, 6719, Note_on_c, 0, 76, 0
2, 6720, Note_on_c, 0, 78, 100
2, 6770, Note_on_c, 0, 78, 0
2, 6840, Note_on_c, 0, 74, 100
2, 7079, Note_on_c, 0, 74, 0
2, 7080, Note_on_c, 0, 71, 100
2, 7139, Note_on_c, 0, 71, 0
2, 7140, Note_on_c, 0, 69, 100
2, 7199, Note_on_c, 0, 69, 0
2, 7200, Note_on_c, 0, 71, 100
2, 7259, Note_on_c, 0, 71, 0
2, 7260, Note_on_c, 0, 68, 100
2, 7319, Note_on_c, 0, 68, 0
2, 7320, Note_on_c, 0, 76, 100
2, 7499, Note_on_c, 0, 76, 0
2, 7500, Note_on_c, 0, 74, 100
2, 7559, Note_on_c, 0, 74, 0
2, 7560, Note_on_c, 0, 73, 100
2, 7619, Note_on_c, 0, 73, 0
2, 7620, Note_on_c, 0, 71, 100
2, 7679, Note_on_c, 0, 71, 0
2, 7680, Note_on_c, 0, 69, 100
2, 7859, Note_on_c, 0, 69, 0
2, 7860, Note_on_c, 0, 74, 100
2, 7919, Note_on_c, 0, 74, 0
2, 7920, Note_on_c, 0, 73, 100
2, 7949, Note_on_c, 0, 73, 0
2, 7950, Note_on_c, 0, 71, 100
2, 7979, Note_on_c, 0, 71, 0
2, 7980, Note_on_c, 0, 73, 100
2, 8009, Note_on_c, 0, 73, 0
2, 8010, Note_on_c, 0, 71, 100
2, 8039, Note_on_c, 0, 71, 0
2, 8040, Note_on_c, 0, 73, 100
2, 8069, Note_on_c, 0, 73, 0
2, 8070, Note_on_c, 0, 71, 100
2, 8099, Note_on_c, 0, 71, 0
2, 8100, Note_on_c, 0, 69, 100
2, 8159, Note_on_c, 0, 69, 0
2, 8160, Note_on_c, 0, 69, 100
2, 8279, Note_on_c, 0, 69, 0
2, 8280, Note_on_c, 0, 64, 100
2, 8339, Note_on_c, 0, 64, 0
2, 8340, Note_on_c, 0, 69, 100
2, 8399, Note_on_c, 0, 69, 0
2, 8400, Note_on_c, 0, 73, 100
2, 8459, Note_on_c, 0, 73, 0
2, 8460, Note_on_c, 0, 69, 100
2, 8519, Note_on_c, 0, 69, 0
2, 8520, Note_on_c, 0, 73, 100
2, 8579, Note_on_c, 0, 73, 0
2, 8580, Note_on_c, 0, 76, 100
2, 8639, Note_on_c, 0, 76, 0
2, 8640, Note_on_c, 0, 81, 100
2, 8999, Note_on_c, 0, 81, 0
2, 9000, Note_on_c, 0, 76, 100
2, 9050, Note_on_c, 0, 76, 0
2, 9120, Note_on_c, 0, 81, 100
2, 9170, Note_on_c, 0, 81, 0
2, 9240, Note_on_c, 0, 76, 100
2, 9479, Note_on_c, 0, 76, 0
2, 9480, Note_on_c, 0, 78, 100
2, 9539, Note_on_c, 0, 78, 0
2, 9540, Note_on_c, 0, 80, 100
2, 9599, Note_on_c, 0, 80, 0
2, 9600, Note_on_c, 0, 81, 100
2, 9650, Note_on_c, 0, 81, 0
2, 9720, Note_on_c, 0, 76, 100
2, 9959, Note_on_c, 0, 76, 0
2, 9960, Note_on_c, 0, 78, 100
2, 10019, Note_on_c, 0, 78, 0
2, 10020, Note_on_c, 0, 80, 100
2, 10079, Note_on_c, 0, 80, 0
2, 10080, Note_on_c, 0, 81, 100
2, 10130, Note_on_c, 0, 81, 0
2, 10200, Note_on_c, 0, 79, 100
2, 10259, Note_on_c, 0, 79, 0
2, 10260, Note_on_c, 0, 78, 100
2, 10319, Note_on_c, 0, 78, 0
2, 10320, Note_on_c, 0, 76, 100
2, 10379, Note_on_c, 0, 76, 0
2, 10380, Note_on_c, 0, 78, 100
2, 10439, Note_on_c, 0, 78, 0
2, 10440, Note_on_c, 0, 79, 100
2, 10499, Note_on_c, 0, 79, 0
2, 10500, Note_on_c, 0, 76, 100
2, 10559, Note_on_c, 0, 76, 0
2, 10560, Note_on_c, 0, 78, 100
2, 10610, Note_on_c, 0, 78, 0
2, 10680, Note_on_c, 0, 74, 100
2, 10859, Note_on_c, 0, 74, 0
2, 10860, Note_on_c, 0, 69, 100
2, 10919, Note_on_c, 0, 69, 0
2, 10920, Note_on_c, 0, 71, 100
2, 10979, Note_on_c, 0, 71, 0
2, 10980, Note_on_c, 0, 72, 100
2, 11039, Note_on_c, 0, 72, 0
2, 11040, Note_on_c, 0, 71, 100
2, 11099, Note_on_c, 0, 71, 0
2, 11100, Note_on_c, 0, 74, 100
2, 11159, Note_on_c, 0, 74, 0
2, 11160, Note_on_c, 0, 76, 100
2, 11219, Note_on_c, 0, 76, 0
2, 11220, Note_on_c, 0, 78, 100
2, 11279, Note_on_c, 0, 78, 0
2, 11280, Note_on_c, 0, 79, 100
2, 11339, Note_on_c, 0, 79, 0
2, 11340, Note_on_c, 0, 71, 100
2, 11399, Note_on_c, 0, 71, 0
2, 11400, Note_on_c, 0, 73, 100
2, 11459, Note_on_c, 0, 73, 0
2, 11460, Note_on_c, 0, 74, 100
2, 11519, Note_on_c, 0, 74, 0
2, 11520, Note_on_c, 0, 73, 100
2, 11579, Note_on_c, 0, 73, 0
2, 11580, Note_on_c, 0, 76, 100
2, 11639, Note_on_c, 0, 76, 0
2, 11640, Note_on_c, 0, 78, 100
2, 11699, Note_on_c, 0, 78, 0
2, 11700, Note_on_c, 0, 79, 100
2, 11759, Note_on_c, 0, 79, 0
2, 11760, Note_on_c, 0, 81, 100
2, 11819, Note_on_c, 0, 81, 0
2, 11820, Note_on_c, 0, 73, 100
2, 11879, Note_on_c, 0, 73, 0
2, 11880, Note_on_c, 0, 74, 100
2, 11939, Note_on_c, 0, 74, 0
2, 11940, Note_on_c, 0, 76, 100
2, 11999, Note_on_c, 0, 76, 0
2, 12000, Note_on_c, 0, 74, 100
2, 12059, Note_on_c, 0, 74, 0
2, 12060, Note_on_c, 0, 79, 100
2, 12119, Note_on_c, 0, 79, 0
2, 12120, Note_on_c, 0, 83, 100
2, 12179, Note_on_c, 0, 83, 0
2, 12180, Note_on_c, 0, 81, 100
2, 12239, Note_on_c, 0, 81, 0
2, 12240, Note_on_c, 0, 79, 100
2, 12299, Note_on_c, 0, 79, 0
2, 12300, Note_on_c, 0, 78, 100
2, 12359, Note_on_c, 0, 78, 0
2, 12360, Note_on_c, 0, 76, 100
2, 12419, Note_on_c, 0, 76, 0
2, 12420, Note_on_c, 0, 74, 100
2, 12479, Note_on_c, 0, 74, 0
2, 12480, Note_on_c, 0, 73, 100
2, 12530, Note_on_c, 0, 73, 0
2, 12600, Note_on_c, 0, 69, 100
2, 12839, Note_on_c, 0, 69, 0
2, 12840, Note_on_c, 0, 74, 100
2, 12899, Note_on_c, 0, 74, 0
2, 12900, Note_on_c, 0, 69, 100
2, 12959, Note_on_c, 0, 69, 0
2, 12960, Note_on_c, 0, 71, 100
2, 13019, Note_on_c, 0, 71, 0
2, 13020, Note_on_c, 0, 69, 100
2, 13079, Note_on_c, 0, 69, 0
2, 13080, Note_on_c, 0, 67, 100
2, 13139, Note_on_c, 0, 67, 0
2, 13140, Note_on_c, 0, 66, 100
2, 13199, Note_on_c, 0, 66, 0
2, 13200, Note_on_c, 0, 67, 100
2, 13259, Note_on_c, 0, 67, 0
2, 13260, Note_on_c, 0, 71, 100
2, 13319, Note_on_c, 0, 71, 0
2, 13320, Note_on_c, 0, 76, 100
2, 13379, Note_on_c, 0, 76, 0
2, 13380, Note_on_c, 0, 71, 100
2, 13439, Note_on_c, 0, 71, 0
2, 13440, Note_on_c, 0, 73, 100
2, 13499, Note_on_c, 0, 73, 0
2, 13500, Note_on_c, 0, 69, 100
2, 13559, Note_on_c, 0, 69, 0
2, 13560, Note_on_c, 0, 71, 100
2, 13619, Note_on_c, 0, 71, 0
2, 13620, Note_on_c, 0, 73, 100
2, 13679, Note_on_c, 0, 73, 0
2, 13680, Note_on_c, 0, 74, 100
2, 13739, Note_on_c, 0, 74, 0
2, 13740, Note_on_c, 0, 76, 100
2, 13799, Note_on_c, 0, 76, 0
2, 13800, Note_on_c, 0, 78, 100
2, 13859, Note_on_c, 0, 78, 0
2, 13860, Note_on_c, 0, 79, 100
2, 13919, Note_on_c, 0, 79, 0
2, 13920, Note_on_c, 0, 81, 100
2, 13970, Note_on_c, 0, 81, 0
2, 14040, Note_on_c, 0, 74, 100
2, 14090, Note_on_c, 0, 74, 0
2, 14160, Note_on_c, 0, 78, 100
2, 14219, Note_on_c, 0, 78, 0
2, 14220, Note_on_c, 0, 76, 100
2, 14279, Note_on_c, 0, 76, 0
2, 14280, Note_on_c, 0, 74, 100
2, 14339, Note_on_c, 0, 74, 0
2, 14340, Note_on_c, 0, 73, 100
2, 14399, Note_on_c, 0, 73, 0
2, 14400, Note_on_c, 0, 74, 100
2, 14519, Note_on_c, 0, 74, 0
2, 14520, Note_on_c, 0, 69, 100
2, 14579, Note_on_c, 0, 69, 0
2, 14580, Note_on_c, 0, 74, 100
2, 14639, Note_on_c, 0, 74, 0
2, 14640, Note_on_c, 0, 78, 100
2, 14699, Note_on_c, 0, 78, 0
2, 14700, Note_on_c, 0, 74, 100
2, 14759, Note_on_c, 0, 74, 0
2, 14760, Note_on_c, 0, 78, 100
2, 14819, Note_on_c, 0, 78, 0
2, 14820, Note_on_c, 0, 81, 100
2, 14879, Note_on_c, 0, 81, 0
2, 14880, Note_on_c, 0, 86, 100
2, 15239, Note_on_c, 0, 86, 0
2, 15240, Note_on_c, 0, 76, 100
2, 15290, Note_on_c, 0, 76, 0
2, 15360, Note_on_c, 0, 81, 100
2, 15410, Note_on_c, 0, 81, 0
2, 15480, Note_on_c, 0, 76, 100
2, 15719, Note_on_c, 0, 76, 0
2, 15720, Note_on_c, 0, 78, 100
2, 15779, Note_on_c, 0, 78, 0
2, 15780, Note_on_c, 0, 80, 100
2, 15839, Note_on_c, 0, 80, 0
2, 15840, Note_on_c, 0, 81, 100
2, 15890, Note_on_c, 0, 81, 0
2, 15960, Note_on_c, 0, 76, 100
2, 16199, Note_on_c, 0, 76, 0
2, 16200, Note_on_c, 0, 78, 100
2, 16259, Note_on_c, 0, 78, 0
2, 16260, Note_on_c, 0, 80, 100
2, 16319, Note_on_c, 0, 80, 0
2, 16320, Note_on_c, 0, 81, 100
2, 16370, Note_on_c, 0, 81, 0
2, 16440, Note_on_c, 0, 79, 100
2, 16499, Note_on_c, 0, 79, 0
2, 16500, Note_on_c, 0, 78, 100
2, 16559, Note_on_c, 0, 78, 0
2, 16560, Note_on_c, 0, 76, 100
2, 16619, Note_on_c, 0, 76, 0
2, 16620, Note_on_c, 0, 78, 100
2, 16679, Note_on_c, 0, 78, 0
2, 16680, Note_on_c, 0, 79, 100
2, 16739, Note_on_c, 0, 79, 0
2, 16740, Note_on_c, 0, 76, 100
2, 16799, Note_on_c, 0, 76, 0
2, 16800, Note_on_c, 0, 78, 100
2, 16850, Note_on_c, 0, 78, 0
2, 16920, Note_on_c, 0, 74, 100
2, 17099, Note_on_c, 0, 74, 0
2, 17100, Note_on_c, 0, 69, 100
2, 17159, Note_on_c, 0, 69, 0
2, 17160, Note_on_c, 0, 71, 100
2, 17219, Note_on_c, 0, 71, 0
2, 17220, Note_on_c, 0, 72, 100
2, 17279, Note_on_c, 0, 72, 0
2, 17280, Note_on_c, 0, 71, 100
2, 17339, Note_on_c, 0, 71, 0
2, 17340, Note_on_c, 0, 74, 100
2, 17399, Note_on_c, 0, 74, 0
2, 17400, Note_on_c, 0, 76, 100
2, 17459, Note_on_c, 0, 76, 0
2, 17460, Note_on_c, 0, 78, 100
2, 17519, Note_on_c, 0, 78, 0
2, 17520, Note_on_c, 0, 79, 100
2, 17579, Note_on_c, 0, 79, 0
2, 17580, Note_on_c, 0, 71, 100
2, 17639, Note_on_c, 0, 71, 0
2, 17640, Note_on_c, 0, 73, 100
2, 17699, Note_on_c, 0, 73, 0
2, 17700, Note_on_c, 0, 74, 100
2, 17759, Note_on_c, 0, 74, 0
2, 17760, Note_on_c, 0, 73, 100
2, 17819, Note_on_c, 0, 73, 0
2, 17820, Note_on_c, 0, 76, 100
2, 17879, Note_on_c, 0, 76, 0
2, 17880, Note_on_c, 0, 78, 100
2, 17939, Note_on_c, 0, 78, 0
2, 17940, Note_on_c, 0, 79, 100
2, 17999, Note_on_c, 0, 79, 0
2, 18000, Note_on_c, 0, 81, 100
2, 18059, Note_on_c, 0, 81, 0
2, 18060, Note_on_c, 0, 73, 100
2, 18119, Note_on_c, 0, 73, 0
2, 18120, Note_on_c, 0, 74, 100
2, 18179, Note_on_c, 0, 74, 0
2, 18180, Note_on_c, 0, 76, 100
2, 18239, Note_on_c, 0, 76, 0
2, 18240, Note_on_c, 0, 74, 100
2, 18299, Note_on_c, 0, 74, 0
2, 18300, Note_on_c, 0, 79, 100
2, 18359, Note_on_c, 0, 79, 0
2, 18360, Note_on_c, 0, 83, 100
2, 18419, Note_on_c, 0, 83, 0
2, 18420, Note_on_c, 0, 81, 100
2, 18479, Note_on_c, 0, 81, 0
2, 18480, Note_on_c, 0, 79, 100
2, 18539, Note_on_c, 0, 79, 0
2, 18540, Note_on_c, 0, 78, 100
2, 18599, Note_on_c, 0, 78, 0
2, 18600, Note_on_c, 0, 76, 100
2, 18659, Note_on_c, 0, 76, 0
2, 18660, Note_on_c, 0, 74, 100
2, 18719, Note_on_c, 0, 74, 0
2, 18720, Note_on_c, 0, 73, 100
2, 18770, Note_on_c, 0, 73, 0
2, 18840, Note_on_c, 0, 69, 100
2, 19079, Note_on_c, 0, 69, 0
2, 19080, Note_on_c, 0, 74, 100
2, 19139, Note_on_c, 0, 74, 0
2, 19140, Note_on_c, 0, 69, 100
2, 19199, Note_on_c, 0, 69, 0
2, 19200, Note_on_c, 0, 71, 100
2, 19259, Note_on_c, 0, 71, 0
2, 19260, Note_on_c, 0, 69, 100
2, 19319, Note_on_c, 0, 69, 0
2, 19320, Note_on_c, 0, 67, 100
2, 19379, Note_on_c, 0, 67, 0
2, 19380, Note_on_c, 0, 66, 100
2, 19439, Note_on_c, 0, 66, 0
2, 19440, Note_on_c, 0, 67, 100
2, 19499, Note_on_c, 0, 67, 0
2, 19500, Note_on_c, 0, 71, 100
2, 19559, Note_on_c, 0, 71, 0
2, 19560, Note_on_c, 0, 76, 100
2, 19619, Note_on_c, 0, 76, 0
2, 19620, Note_on_c, 0, 71, 100
2, 19679, Note_on_c, 0, 71, 0
2, 19680, Note_on_c, 0, 73, 100
2, 19739, Note_on_c, 0, 73, 0
2, 19740, Note_on_c, 0, 69, 100
2, 19799, Note_on_c, 0, 69, 0
2, 19800, Note_on_c, 0, 71, 100
2, 19859, Note_on_c, 0, 71, 0
2, 19860, Note_on_c, 0, 73, 100
2, 19919, Note_on_c, 0, 73, 0
2, 19920, Note_on_c, 0, 74, 100
2, 19979, Note_on_c, 0, 74, 0
2, 19980, Note_on_c, 0, 76, 100
2, 20039, Note_on_c, 0, 76, 0
2, 20040, Note_on_c, 0, 78, 100
2, 20099, Note_on_c, 0, 78, 0
2, 20100, Note_on_c, 0, 79, 100
2, 20159, Note_on_c, 0, 79, 0
2, 20160, Note_on_c, 0, 81, 100
2, 20210, Note_on_c, 0, 81, 0
2, 20280, Note_on_c, 0, 74, 100
2, 20330, Note_on_c, 0, 74, 0
2, 20400, Note_on_c, 0, 78, 100
2, 20459, Note_on_c, 0, 78, 0
2, 20460, Note_on_c, 0, 76, 100
2, 20519, Note_on_c, 0, 76, 0
2, 20520, Note_on_c, 0, 74, 100
2, 20579, Note_on_c, 0, 74, 0
2, 20580, Note_on_c, 0, 73, 100
2, 20639, Note_on_c, 0, 73, 0
2, 20640, Note_on_c, 0, 74, 100
2, 20759, Note_on_c, 0, 74, 0
2, 20760, Note_on_c, 0, 69, 100
2, 20819, Note_on_c, 0, 69, 0
2, 20820, Note_on_c, 0, 74, 100
2, 20879, Note_on_c, 0, 74, 0
2, 20880, Note_on_c, 0, 78, 100
2, 20939, Note_on_c, 0, 78, 0
2, 20940, Note_on_c, 0, 74, 100
2, 20999, Note_on_c, 0, 74, 0
2, 21000, Note_on_c, 0, 78, 100
2, 21059, Note_on_c, 0, 78, 0
2, 21060, Note_on_c, 0, 81, 100
2, 21119, Note_on_c, 0, 81, 0
2, 21120, Note_on_c, 0, 86, 100
2, 21479, Note_on_c, 0, 86, 0
2, 21479, End_track
3, 0, Start_track
3, 0, Control_c, 1, 0, 0
3, 0, Control_c, 1, 7, 100
3, 0, Control_c, 1, 10, 95
3, 0, Control_c, 1, 32, 1
3, 0, Program_c, 1, 0
3, 2, Control_c, 1, 0, 127
3, 3, Program_c, 1, 9
3, 480, Note_on_c, 1, 50, 80
3, 595, Note_on_c, 1, 50, 0
3, 600, Note_on_c, 1, 55, 80
3, 715, Note_on_c, 1, 55, 0
3, 720, Note_on_c, 1, 54, 80
3, 835, Note_on_c, 1, 54, 0
3, 840, Note_on_c, 1, 52, 80
3, 955, Note_on_c, 1, 52, 0
3, 960, Note_on_c, 1, 50, 80
3, 1075, Note_on_c, 1, 50, 0
3, 1080, Note_on_c, 1, 55, 80
3, 1195, Note_on_c, 1, 55, 0
3, 1200, Note_on_c, 1, 54, 80
3, 1315, Note_on_c, 1, 54, 0
3, 1320, Note_on_c, 1, 52, 80
3, 1435, Note_on_c, 1, 52, 0
3, 1440, Note_on_c, 1, 54, 80
3, 1490, Note_on_c, 1, 54, 0
3, 1560, Note_on_c, 1, 50, 80
3, 1610, Note_on_c, 1, 50, 0
3, 1680, Note_on_c, 1, 49, 80
3, 1730, Note_on_c, 1, 49, 0
3, 1800, Note_on_c, 1, 45, 80
3, 1850, Note_on_c, 1, 45, 0
3, 1920, Note_on_c, 1, 38, 80
3, 1970, Note_on_c, 1, 38, 0
3, 2040, Note_on_c, 1, 50, 80
3, 2099, Note_on_c, 1, 50, 0
3, 2100, Note_on_c, 1, 49, 80
3, 2159, Note_on_c, 1, 49, 0
3, 2160, Note_on_c, 1, 50, 80
3, 2210, Note_on_c, 1, 50, 0
3, 2280, Note_on_c, 1, 38, 80
3, 2330, Note_on_c, 1, 38, 0
3, 2400, Note_on_c, 1, 38, 80
3, 2450, Note_on_c, 1, 38, 0
3, 2520, Note_on_c, 1, 50, 80
3, 2579, Note_on_c, 1, 50, 0
3, 2580, Note_on_c, 1, 49, 80
3, 2639, Note_on_c, 1, 49, 0
3, 2640, Note_on_c, 1, 50, 80
3, 2690, Note_on_c, 1, 50, 0
3, 2760, Note_on_c, 1, 38, 80
3, 2810, Note_on_c, 1, 38, 0
3, 2880, Note_on_c, 1, 38, 80
3, 2930, Note_on_c, 1, 38, 0
3, 3000, Note_on_c, 1, 50, 80
3, 3059, Note_on_c, 1, 50, 0
3, 3060, Note_on_c, 1, 49, 80
3, 3119, Note_on_c, 1, 49, 0
3, 3120, Note_on_c, 1, 50, 80
3, 3170, Note_on_c, 1, 50, 0
3, 3240, Note_on_c, 1, 38, 80
3, 3290, Note_on_c, 1, 38, 0
3, 3360, Note_on_c, 1, 37, 80
3, 3410, Note_on_c, 1, 37, 0
3, 3480, Note_on_c, 1, 42, 80
3, 3530, Note_on_c, 1, 42, 0
3, 3600, Note_on_c, 1, 38, 80
3, 3650, Note_on_c, 1, 38, 0
3, 3720, Note_on_c, 1, 40, 80
3, 3770, Note_on_c, 1, 40, 0
3, 3840, Note_on_c, 1, 45, 80
3, 3955, Note_on_c, 1, 45, 0
3, 3960, Note_on_c, 1, 45, 80
3, 4010, Note_on_c, 1, 45, 0
3, 4020, Note_on_c, 1, 45, 80
3, 4070, Note_on_c, 1, 45, 0
3, 4080, Note_on_c, 1, 45, 80
3, 4130, Note_on_c, 1, 45, 0
3, 4140, Note_on_c, 1, 45, 80
3, 4190, Note_on_c, 1, 45, 0
3, 4200, Note_on_c, 1, 45, 80
3, 4250, Note_on_c, 1, 45, 0
3, 4260, Note_on_c, 1, 45, 80
3, 4310, Note_on_c, 1, 45, 0
3, 4320, Note_on_c, 1, 45, 80
3, 4370, Note_on_c, 1, 45, 0
3, 4440, Note_on_c, 1, 52, 80
3, 4490, Note_on_c, 1, 52, 0
3, 4560, Note_on_c, 1, 57, 80
3, 4610, Note_on_c, 1, 57, 0
3, 4800, Note_on_c, 1, 50, 80
3, 4915, Note_on_c, 1, 50, 0
3, 4920, Note_on_c, 1, 55, 80
3, 5035, Note_on_c, 1, 55, 0
3, 5040, Note_on_c, 1, 54, 80
3, 5155, Note_on_c, 1, 54, 0
3, 5160, Note_on_c, 1, 52, 80
3, 5275, Note_on_c, 1, 52, 0
3, 5280, Note_on_c, 1, 50, 80
3, 5395, Note_on_c, 1, 50, 0
3, 5400, Note_on_c, 1, 55, 80
3, 5515, Note_on_c, 1, 55, 0
3, 5520, Note_on_c, 1, 54, 80
3, 5635, Note_on_c, 1, 54, 0
3, 5640, Note_on_c, 1, 52, 80
3, 5755, Note_on_c, 1, 52, 0
3, 5760, Note_on_c, 1, 54, 80
3, 5810, Note_on_c, 1, 54, 0
3, 5880, Note_on_c, 1, 50, 80
3, 5930, Note_on_c, 1, 50, 0
3, 6000, Note_on_c, 1, 49, 80
3, 6050, Note_on_c, 1, 49, 0
3, 6120, Note_on_c, 1, 45, 80
3, 6170, Note_on_c, 1, 45, 0
3, 6240, Note_on_c, 1, 38, 80
3, 6290, Note_on_c, 1, 38, 0
3, 6360, Note_on_c, 1, 50, 80
3, 6419, Note_on_c, 1, 50, 0
3, 6420, Note_on_c, 1, 49, 80
3, 6479, Note_on_c, 1, 49, 0
3, 6480, Note_on_c, 1, 50, 80
3, 6530, Note_on_c, 1, 50, 0
3, 6600, Note_on_c, 1, 38, 80
3, 6650, Note_on_c, 1, 38, 0
3, 6720, Note_on_c, 1, 38, 80
3, 6770, Note_on_c, 1, 38, 0
3, 6840, Note_on_c, 1, 50, 80
3, 6899, Note_on_c, 1, 50, 0
3, 6900, Note_on_c, 1, 49, 80
3, 6959, Note_on_c, 1, 49, 0
3, 6960, Note_on_c, 1, 50, 80
3, 7010, Note_on_c, 1, 50, 0
3, 7080, Note_on_c, 1, 38, 80
3, 7130, Note_on_c, 1, 38, 0
3, 7200, Note_on_c, 1, 38, 80
3, 7250, Note_on_c, 1, 38, 0
3, 7320, Note_on_c, 1, 50, 80
3, 7379, Note_on_c, 1, 50, 0
3, 7380, Note_on_c, 1, 49, 80
3, 7439, Note_on_c, 1, 49, 0
3, 7440, Note_on_c, 1, 50, 80
3, 7490, Note_on_c, 1, 50, 0
3, 7560, Note_on_c, 1, 38, 80
3, 7610, Note_on_c, 1, 38, 0
3, 7680, Note_on_c, 1, 37, 80
3, 7730, Note_on_c, 1, 37, 0
3, 7800, Note_on_c, 1, 42, 80
3, 7850, Note_on_c, 1, 42, 0
3, 7920, Note_on_c, 1, 38, 80
3, 7970, Note_on_c, 1, 38, 0
3, 8040, Note_on_c, 1, 40, 80
3, 8090, Note_on_c, 1, 40, 0
3, 8160, Note_on_c, 1, 45, 80
3, 8275, Note_on_c, 1, 45, 0
3, 8280, Note_on_c, 1, 45, 80
3, 8330, Note_on_c, 1, 45, 0
3, 8340, Note_on_c, 1, 45, 80
3, 8390, Note_on_c, 1, 45, 0
3, 8400, Note_on_c, 1, 45, 80
3, 8450, Note_on_c, 1, 45, 0
3, 8460, Note_on_c, 1, 45, 80
3, 8510, Note_on_c, 1, 45, 0
3, 8520, Note_on_c, 1, 45, 80
3, 8570, Note_on_c, 1, 45, 0
3, 8580, Note_on_c, 1, 45, 80
3, 8630, Note_on_c, 1, 45, 0
3, 8640, Note_on_c, 1, 45, 80
3, 8690, Note_on_c, 1, 45, 0
3, 8760, Note_on_c, 1, 52, 80
3, 8810, Note_on_c, 1, 52, 0
3, 8880, Note_on_c, 1, 57, 80
3, 8930, Note_on_c, 1, 57, 0
3, 9120, Note_on_c, 1, 57, 80
3, 9235, Note_on_c, 1, 57, 0
3, 9240, Note_on_c, 1, 62, 80
3, 9355, Note_on_c, 1, 62, 0
3, 9360, Note_on_c, 1, 61, 80
3, 9475, Note_on_c, 1, 61, 0
3, 9480, Note_on_c, 1, 59, 80
3, 9595, Note_on_c, 1, 59, 0
3, 9600, Note_on_c, 1, 57, 80
3, 9715, Note_on_c, 1, 57, 0
3, 9720, Note_on_c, 1, 62, 80
3, 9835, Note_on_c, 1, 62, 0
3, 9840, Note_on_c, 1, 61, 80
3, 9955, Note_on_c, 1, 61, 0
3, 9960, Note_on_c, 1, 59, 80
3, 10075, Note_on_c, 1, 59, 0
3, 10080, Note_on_c, 1, 57, 80
3, 10195, Note_on_c, 1, 57, 0
3, 10200, Note_on_c, 1, 59, 80
3, 10315, Note_on_c, 1, 59, 0
3, 10320, Note_on_c, 1, 61, 80
3, 10435, Note_on_c, 1, 61, 0
3, 10440, Note_on_c, 1, 57, 80
3, 10555, Note_on_c, 1, 57, 0
3, 10560, Note_on_c, 1, 62, 80
3, 10675, Note_on_c, 1, 62, 0
3, 10680, Note_on_c, 1, 50, 80
3, 10739, Note_on_c, 1, 50, 0
3, 10740, Note_on_c, 1, 52, 80
3, 10799, Note_on_c, 1, 52, 0
3, 10800, Note_on_c, 1, 54, 80
3, 10850, Note_on_c, 1, 54, 0
3, 10920, Note_on_c, 1, 50, 80
3, 10970, Note_on_c, 1, 50, 0
3, 11040, Note_on_c, 1, 55, 80
3, 11159, Note_on_c, 1, 55, 0
3, 11400, Note_on_c, 1, 56, 80
3, 11450, Note_on_c, 1, 56, 0
3, 11520, Note_on_c, 1, 57, 80
3, 11639, Note_on_c, 1, 57, 0
3, 11880, Note_on_c, 1, 58, 80
3, 11999, Note_on_c, 1, 58, 0
3, 12000, Note_on_c, 1, 59, 80
3, 12050, Note_on_c, 1, 59, 0
3, 12120, Note_on_c, 1, 55, 80
3, 12235, Note_on_c, 1, 55, 0
3, 12240, Note_on_c, 1, 52, 80
3, 12290, Note_on_c, 1, 52, 0
3, 12360, Note_on_c, 1, 55, 80
3, 12410, Note_on_c, 1, 55, 0
3, 12480, Note_on_c, 1, 57, 80
3, 12539, Note_on_c, 1, 57, 0
3, 12540, Note_on_c, 1, 45, 80
3, 12599, Note_on_c, 1, 45, 0
3, 12600, Note_on_c, 1, 57, 80
3, 12659, Note_on_c, 1, 57, 0
3, 12660, Note_on_c, 1, 55, 80
3, 12719, Note_on_c, 1, 55, 0
3, 12720, Note_on_c, 1, 54, 80
3, 12779, Note_on_c, 1, 54, 0
3, 12780, Note_on_c, 1, 52, 80
3, 12839, Note_on_c, 1, 52, 0
3, 12840, Note_on_c, 1, 54, 80
3, 12899, Note_on_c, 1, 54, 0
3, 12900, Note_on_c, 1, 50, 80
3, 12959, Note_on_c, 1, 50, 0
3, 12960, Note_on_c, 1, 43, 80
3, 13075, Note_on_c, 1, 43, 0
3, 13320, Note_on_c, 1, 55, 80
3, 13370, Note_on_c, 1, 55, 0
3, 13440, Note_on_c, 1, 57, 80
3, 13559, Note_on_c, 1, 57, 0
3, 13800, Note_on_c, 1, 55, 80
3, 13919, Note_on_c, 1, 55, 0
3, 13920, Note_on_c, 1, 54, 80
3, 13970, Note_on_c, 1, 54, 0
3, 14040, Note_on_c, 1, 59, 80
3, 14090, Note_on_c, 1, 59, 0
3, 14160, Note_on_c, 1, 55, 80
3, 14210, Note_on_c, 1, 55, 0
3, 14280, Note_on_c, 1, 57, 80
3, 14330, Note_on_c, 1, 57, 0
3, 14400, Note_on_c, 1, 50, 80
3, 14515, Note_on_c, 1, 50, 0
3, 14520, Note_on_c, 1, 38, 80
3, 14570, Note_on_c, 1, 38, 0
3, 14580, Note_on_c, 1, 38, 80
3, 14630, Note_on_c, 1, 38, 0
3, 14640, Note_on_c, 1, 38, 80
3, 14690, Note_on_c, 1, 38, 0
3, 14700, Note_on_c, 1, 38, 80
3, 14750, Note_on_c, 1, 38, 0
3, 14760, Note_on_c, 1, 38, 80
3, 14810, Note_on_c, 1, 38, 0
3, 14820, Note_on_c, 1, 38, 80
3, 14870, Note_on_c, 1, 38, 0
3, 14880, Note_on_c, 1, 38, 80
3, 14930, Note_on_c, 1, 38, 0
3, 15000, Note_on_c, 1, 45, 80
3, 15050, Note_on_c, 1, 45, 0
3, 15120, Note_on_c, 1, 50, 80
3, 15170, Note_on_c, 1, 50, 0
3, 15360, Note_on_c, 1, 57, 80
3, 15475, Note_on_c, 1, 57, 0
3, 15480, Note_on_c, 1, 62, 80
3, 15595, Note_on_c, 1, 62, 0
3, 15600, Note_on_c, 1, 61, 80
3, 15715, Note_on_c, 1, 61, 0
3, 15720, Note_on_c, 1, 59, 80
3, 15835, Note_on_c, 1, 59, 0
3, 15840, Note_on_c, 1, 57, 80
3, 15955, Note_on_c, 1, 57, 0
3, 15960, Note_on_c, 1, 62, 80
3, 16075, Note_on_c, 1, 62, 0
3, 16080, Note_on_c, 1, 61, 80
3, 16195, Note_on_c, 1, 61, 0
3, 16200, Note_on_c, 1, 59, 80
3, 16315, Note_on_c, 1, 59, 0
3, 16320, Note_on_c, 1, 57, 80
3, 16435, Note_on_c, 1, 57, 0
3, 16440, Note_on_c, 1, 59, 80
3, 16555, Note_on_c, 1, 59, 0
3, 16560, Note_on_c, 1, 61, 80
3, 16675, Note_on_c, 1, 61, 0
3, 16680, Note_on_c, 1, 57, 80
3, 16795, Note_on_c, 1, 57, 0
3, 16800, Note_on_c, 1, 62, 80
3, 16915, Note_on_c, 1, 62, 0
3, 16920, Note_on_c, 1, 50, 80
3, 16979, Note_on_c, 1, 50, 0
3, 16980, Note_on_c, 1, 52, 80
3, 17039, Note_on_c, 1, 52, 0
3, 17040, Note_on_c, 1, 54, 80
3, 17090, Note_on_c, 1, 54, 0
3, 17160, Note_on_c, 1, 50, 80
3, 17210, Note_on_c, 1, 50, 0
3, 17280, Note_on_c, 1, 55, 80
3, 17399, Note_on_c, 1, 55, 0
3, 17640, Note_on_c, 1, 56, 80
3, 17690, Note_on_c, 1, 56, 0
3, 17760, Note_on_c, 1, 57, 80
3, 17879, Note_on_c, 1, 57, 0
3, 18120, Note_on_c, 1, 58, 80
3, 18239, Note_on_c, 1, 58, 0
3, 18240, Note_on_c, 1, 59, 80
3, 18290, Note_on_c, 1, 59, 0
3, 18360, Note_on_c, 1, 55, 80
3, 18475, Note_on_c, 1, 55, 0
3, 18480, Note_on_c, 1, 52, 80
3, 18530, Note_on_c, 1, 52, 0
3, 18600, Note_on_c, 1, 55, 80
3, 18650, Note_on_c, 1, 55, 0
3, 18720, Note_on_c, 1, 57, 80
3, 18779, Note_on_c, 1, 57, 0
3, 18780, Note_on_c, 1, 45, 80
3, 18839, Note_on_c, 1, 45, 0
3, 18840, Note_on_c, 1, 57, 80
3, 18899, Note_on_c, 1, 57, 0
3, 18900, Note_on_c, 1, 55, 80
3, 18959, Note_on_c, 1, 55, 0
3, 18960, Note_on_c, 1, 54, 80
3, 19019, Note_on_c, 1, 54, 0
3, 19020, Note_on_c, 1, 52, 80
3, 19079, Note_on_c, 1, 52, 0
3, 19080, Note_on_c, 1, 54, 80
3, 19139, Note_on_c, 1, 54, 0
3, 19140, Note_on_c, 1, 50, 80
3, 19199, Note_on_c, 1, 50, 0
3, 19200, Note_on_c, 1, 43, 80
3, 19315, Note_on_c, 1, 43, 0
3, 19560, Note_on_c, 1, 55, 80
3, 19610, Note_on_c, 1, 55, 0
3, 19680, Note_on_c, 1, 57, 80
3, 19799, Note_on_c, 1, 57, 0
3, 20040, Note_on_c, 1, 55, 80
3, 20159, Note_on_c, 1, 55, 0
3, 20160, Note_on_c, 1, 54, 80
3, 20210, Note_on_c, 1, 54, 0
3, 20280, Note_on_c, 1, 59, 80
3, 20330, Note_on_c, 1, 59, 0
3, 20400, Note_on_c, 1, 55, 80
3, 20450, Note_on_c, 1, 55, 0
3, 20520, Note_on_c, 1, 57, 80
3, 20570, Note_on_c, 1, 57, 0
3, 20640, Note_on_c, 1, 50, 80
3, 20755, Note_on_c, 1, 50, 0
3, 20760, Note_on_c, 1, 38, 80
3, 20810, Note_on_c, 1, 38, 0
3, 20820, Note_on_c, 1, 38, 80
3, 20870, Note_on_c, 1, 38, 0
3, 20880, Note_on_c, 1, 38, 80
3, 20930, Note_on_c, 1, 38, 0
3, 20940, Note_on_c, 1, 38, 80
3, 20990, Note_on_c, 1, 38, 0
3, 21000, Note_on_c, 1, 38, 80
3, 21050, Note_on_c, 1, 38, 0
3, 21060, Note_on_c, 1, 38, 80
3, 21110, Note_on_c, 1, 38, 0
3, 21120, Note_on_c, 1, 38, 80
3, 21170, Note_on_c, 1, 38, 0
3, 21240, Note_on_c, 1, 45, 80
3, 21290, Note_on_c, 1, 45, 0
3, 21360, Note_on_c, 1, 50, 80
3, 21410, Note_on_c, 1, 50, 0
3, 21410, End_track
4, 0, Start_track
4, 0, Control_c, 2, 0, 0
4, 0, Control_c, 2, 32, 1
4, 0, Program_c, 2, 0
4, 2, Control_c, 2, 0, 127
4, 3, Program_c, 2, 9
4, 360, Note_on_c, 2, 69, 100
4, 410, Note_on_c, 2, 69, 0
4, 480, Note_on_c, 2, 74, 100
4, 530, Note_on_c, 2, 74, 0
4, 600, Note_on_c, 2, 69, 100
4, 839, Note_on_c, 2, 69, 0
4, 840, Note_on_c, 2, 71, 100
4, 899, Note_on_c, 2, 71, 0
4, 900, Note_on_c, 2, 73, 100
4, 959, Note_on_c, 2, 73, 0
4, 960, Note_on_c, 2, 74, 100
4, 1010, Note_on_c, 2, 74, 0
4, 1080, Note_on_c, 2, 69, 100
4, 1319, Note_on_c, 2, 69, 0
4, 1320, Note_on_c, 2, 71, 100
4, 1379, Note_on_c, 2, 71, 0
4, 1380, Note_on_c, 2, 73, 100
4, 1439, Note_on_c, 2, 73, 0
4, 1440, Note_on_c, 2, 74, 100
4, 1499, Note_on_c, 2, 74, 0
4, 1500, Note_on_c, 2, 76, 100
4, 1559, Note_on_c, 2, 76, 0
4, 1560, Note_on_c, 2, 78, 100
4, 1619, Note_on_c, 2, 78, 0
4, 1620, Note_on_c, 2, 79, 100
4, 1679, Note_on_c, 2, 79, 0
4, 1680, Note_on_c, 2, 81, 100
4, 1739, Note_on_c, 2, 81, 0
4, 1740, Note_on_c, 2, 79, 100
4, 1799, Note_on_c, 2, 79, 0
4, 1800, Note_on_c, 2, 78, 100
4, 1859, Note_on_c, 2, 78, 0
4, 1860, Note_on_c, 2, 76, 100
4, 1919, Note_on_c, 2, 76, 0
4, 1920, Note_on_c, 2, 78, 100
4, 1970, Note_on_c, 2, 78, 0
4, 2040, Note_on_c, 2, 74, 100
4, 2279, Note_on_c, 2, 74, 0
4, 2280, Note_on_c, 2, 78, 100
4, 2339, Note_on_c, 2, 78, 0
4, 2340, Note_on_c, 2, 76, 100
4, 2399, Note_on_c, 2, 76, 0
4, 2400, Note_on_c, 2, 78, 100
4, 2450, Note_on_c, 2, 78, 0
4, 2520, Note_on_c, 2, 74, 100
4, 2759, Note_on_c, 2, 74, 0
4, 2760, Note_on_c, 2, 71, 100
4, 2819, Note_on_c, 2, 71, 0
4, 2820, Note_on_c, 2, 69, 100
4, 2879, Note_on_c, 2, 69, 0
4, 2880, Note_on_c, 2, 71, 100
4, 2939, Note_on_c, 2, 71, 0
4, 2940, Note_on_c, 2, 68, 100
4, 2999, Note_on_c, 2, 68, 0
4, 3000, Note_on_c, 2, 76, 100
4, 3179, Note_on_c, 2, 76, 0
4, 3180, Note_on_c, 2, 74, 100
4, 3239, Note_on_c, 2, 74, 0
4, 3240, Note_on_c, 2, 73, 100
4, 3299, Note_on_c, 2, 73, 0
4, 3300, Note_on_c, 2, 71, 100
4, 3359, Note_on_c, 2, 71, 0
4, 3360, Note_on_c, 2, 69, 100
4, 3539, Note_on_c, 2, 69, 0
4, 3540, Note_on_c, 2, 74, 100
4, 3599, Note_on_c, 2, 74, 0
4, 3600, Note_on_c, 2, 73, 100
4, 3629, Note_on_c, 2, 73, 0
4, 3630, Note_on_c, 2, 71, 100
4, 3659, Note_on_c, 2, 71, 0
4, 3660, Note_on_c, 2, 73, 100
4, 3689, Note_on_c, 2, 73, 0
4, 3690, Note_on_c, 2, 71, 100
4, 3719, Note_on_c, 2, 71, 0
4, 3720, Note_on_c, 2, 73, 100
4, 3749, Note_on_c, 2, 73, 0
4, 3750, Note_on_c, 2, 71, 100
4, 3779, Note_on_c, 2, 71, 0
4, 3780, Note_on_c, 2, 69, 100
4, 3839, Note_on_c, 2, 69, 0
4, 3840, Note_on_c, 2, 69, 100
4, 3959, Note_on_c, 2, 69, 0
4, 3960, Note_on_c, 2, 64, 100
4, 4019, Note_on_c, 2, 64, 0
4, 4020, Note_on_c, 2, 69, 100
4, 4079, Note_on_c, 2, 69, 0
4, 4080, Note_on_c, 2, 73, 100
4, 4139, Note_on_c, 2, 73, 0
4, 4140, Note_on_c, 2, 69, 100
4, 4199, Note_on_c, 2, 69, 0
4, 4200, Note_on_c, 2, 73, 100
4, 4259, Note_on_c, 2, 73, 0
4, 4260, Note_on_c, 2, 76, 100
4, 4319, Note_on_c, 2, 76, 0
4, 4320, Note_on_c, 2, 81, 100
4, 4679, Note_on_c, 2, 81, 0
4, 4680, Note_on_c, 2, 69, 100
4, 4730, Note_on_c, 2, 69, 0
4, 4800, Note_on_c, 2, 74, 100
4, 4850, Note_on_c, 2, 74, 0
4, 4920, Note_on_c, 2, 69, 100
4, 5159, Note_on_c, 2, 69, 0
4, 5160, Note_on_c, 2, 71, 100
4, 5219, Note_on_c, 2, 71, 0
4, 5220, Note_on_c, 2, 73, 100
4, 5279, Note_on_c, 2, 73, 0
4, 5280, Note_on_c, 2, 74, 100
4, 5330, Note_on_c, 2, 74, 0
4, 5400, Note_on_c, 2, 69, 100
4, 5639, Note_on_c, 2, 69, 0
4, 5640, Note_on_c, 2, 71, 100
4, 5699, Note_on_c, 2, 71, 0
4, 5700, Note_on_c, 2, 73, 100
4, 5759, Note_on_c, 2, 73, 0
4, 5760, Note_on_c, 2, 74, 100
4, 5819, Note_on_c, 2, 74, 0
4, 5820, Note_on_c, 2, 76, 100
4, 5879, Note_on_c, 2, 76, 0
4, 5880, Note_on_c, 2, 78, 100
4, 5939, Note_on_c, 2, 78, 0
4, 5940, Note_on_c, 2, 79, 100
4, 5999, Note_on_c, 2, 79, 0
4, 6000, Note_on_c, 2, 81, 100
4, 6059, Note_on_c, 2, 81, 0
4, 6060, Note_on_c, 2, 79, 100
4, 6119, Note_on_c, 2, 79, 0
4, 6120, Note_on_c, 2, 78, 100
4, 6179, Note_on_c, 2, 78, 0
4, 6180, Note_on_c, 2, 76, 100
4, 6239, Note_on_c, 2, 76, 0
4, 6240, Note_on_c, 2, 78, 100
4, 6290, Note_on_c, 2, 78, 0
4, 6360, Note_on_c, 2, 74, 100
4, 6599, Note_on_c, 2, 74, 0
4, 6600, Note_on_c, 2, 78, 100
4, 6659, Note_on_c, 2, 78, 0
4, 6660, Note_on_c, 2, 76, 100
4, 6719, Note_on_c, 2, 76, 0
4, 6720, Note_on_c, 2, 78, 100
4, 6770, Note_on_c, 2, 78, 0
4, 6840, Note_on_c, 2, 74, 100
4, 7079, Note_on_c, 2, 74, 0
4, 7080, Note_on_c, 2, 71, 100
4, 7139, Note_on_c, 2, 71, 0
4, 7140, Note_on_c, 2, 69, 100
4, 7199, Note_on_c, 2, 69, 0
4, 7200, Note_on_c, 2, 71, 100
4, 7259, Note_on_c, 2, 71, 0
4, 7260, Note_on_c, 2, 68, 100
4, 7319, Note_on_c, 2, 68, 0
4, 7320, Note_on_c, 2, 76, 100
4, 7499, Note_on_c, 2, 76, 0
4, 7500, Note_on_c, 2, 74, 100
4, 7559, Note_on_c, 2, 74, 0
4, 7560, Note_on_c, 2, 73, 100
4, 7619, Note_on_c, 2, 73, 0
4, 7620, Note_on_c, 2, 71, 100
4, 7679, Note_on_c, 2, 71, 0
4, 7680, Note_on_c, 2, 69, 100
4, 7859, Note_on_c, 2, 69, 0
4, 7860, Note_on_c, 2, 74, 100
4, 7919, Note_on_c, 2, 74, 0
4, 7920, Note_on_c, 2, 73, 100
4, 7949, Note_on_c, 2, 73, 0
4, 7950, Note_on_c, 2, 71, 100
4, 7979, Note_on_c, 2, 71, 0
4, 7980, Note_on_c, 2, 73, 100
4, 8009, Note_on_c, 2, 73, 0
4, 8010, Note_on_c, 2, 71, 100
4, 8039, Note_on_c, 2, 71, 0
4, 8040, Note_on_c, 2, 73, 100
4, 8069, Note_on_c, 2, 73, 0
4, 8070, Note_on_c, 2, 71, 100
4, 8099, Note_on_c, 2, 71, 0
4, 8100, Note_on_c, 2, 69, 100
4, 8159, Note_on_c, 2, 69, 0
4, 8160, Note_on_c, 2, 69, 100
4, 8279, Note_on_c, 2, 69, 0
4, 8280, Note_on_c, 2, 64, 100
4, 8339, Note_on_c, 2, 64, 0
4, 8340, Note_on_c, 2, 69, 100
4, 8399, Note_on_c, 2, 69, 0
4, 8400, Note_on_c, 2, 73, 100
4, 8459, Note_on_c, 2, 73, 0
4, 8460, Note_on_c, 2, 69, 100
4, 8519, Note_on_c, 2, 69, 0
4, 8520, Note_on_c, 2, 73, 100
4, 8579, Note_on_c, 2, 73, 0
4, 8580, Note_on_c, 2, 76, 100
4, 8639, Note_on_c, 2, 76, 0
4, 8640, Note_on_c, 2, 81, 100
4, 8999, Note_on_c, 2, 81, 0
4, 9000, Note_on_c, 2, 76, 100
4, 9050, Note_on_c, 2, 76, 0
4, 9120, Note_on_c, 2, 81, 100
4, 9170, Note_on_c, 2, 81, 0
4, 9240, Note_on_c, 2, 76, 100
4, 9479, Note_on_c, 2, 76, 0
4, 9480, Note_on_c, 2, 78, 100
4, 9539, Note_on_c, 2, 78, 0
4, 9540, Note_on_c, 2, 80, 100
4, 9599, Note_on_c, 2, 80, 0
4, 9600, Note_on_c, 2, 81, 100
4, 9650, Note_on_c, 2, 81, 0
4, 9720, Note_on_c, 2, 76, 100
4, 9959, Note_on_c, 2, 76, 0
4, 9960, Note_on_c, 2, 78, 100
4, 10019, Note_on_c, 2, 78, 0
4, 10020, Note_on_c, 2, 80, 100
4, 10079, Note_on_c, 2, 80, 0
4, 10080, Note_on_c, 2, 81, 100
4, 10130, Note_on_c, 2, 81, 0
4, 10200, Note_on_c, 2, 79, 100
4, 10259, Note_on_c, 2, 79, 0
4, 10260, Note_on_c, 2, 78, 100
4, 10319, Note_on_c, 2, 78, 0
4, 10320, Note_on_c, 2, 76, 100
4, 10379, Note_on_c, 2, 76, 0
4, 10380, Note_on_c, 2, 78, 100
4, 10439, Note_on_c, 2, 78, 0
4, 10440, Note_on_c, 2, 79, 100
4, 10499, Note_on_c, 2, 79, 0
4, 10500, Note_on_c, 2, 76, 100
4, 10559, Note_on_c, 2, 76, 0
4, 10560, Note_on_c, 2, 78, 100
4, 10610, Note_on_c, 2, 78, 0
4, 10680, Note_on_c, 2, 74, 100
4, 10859, Note_on_c, 2, 74, 0
4, 10860, Note_on_c, 2, 69, 100
4, 10919, Note_on_c, 2, 69, 0
4, 10920, Note_on_c, 2, 71, 100
4, 10979, Note_on_c, 2, 71, 0
4, 10980, Note_on_c, 2, 72, 100
4, 11039, Note_on_c, 2, 72, 0
4, 11040, Note_on_c, 2, 71, 100
4, 11099, Note_on_c, 2, 71, 0
4, 11100, Note_on_c, 2, 74, 100
4, 11159, Note_on_c, 2, 74, 0
4, 11160, Note_on_c, 2, 76, 100
4, 11219, Note_on_c, 2, 76, 0
4, 11220, Note_on_c, 2, 78, 100
4, 11279, Note_on_c, 2, 78, 0
4, 11280, Note_on_c, 2, 79, 100
4, 11339, Note_on_c, 2, 79, 0
4, 11340, Note_on_c, 2, 71, 100
4, 11399, Note_on_c, 2, 71, 0
4, 11400, Note_on_c, 2, 73, 100
4, 11459, Note_on_c, 2, 73, 0
4, 11460, Note_on_c, 2, 74, 100
4, 11519, Note_on_c, 2, 74, 0
4, 11520, Note_on_c, 2, 73, 100
4, 11579, Note_on_c, 2, 73, 0
4, 11580, Note_on_c, 2, 76, 100
4, 11639, Note_on_c, 2, 76, 0
4, 11640, Note_on_c, 2, 78, 100
4, 11699, Note_on_c, 2, 78, 0
4, 11700, Note_on_c, 2, 79, 100
4, 11759, Note_on_c, 2, 79, 0
4, 11760, Note_on_c, 2, 81, 100
4, 11819, Note_on_c, 2, 81, 0
4, 11820, Note_on_c, 2, 73, 100
4, 11879, Note_on_c, 2, 73, 0
4, 11880, Note_on_c, 2, 74, 100
4, 11939, Note_on_c, 2, 74, 0
4, 11940, Note_on_c, 2, 76, 100
4, 11999, Note_on_c, 2, 76, 0
4, 12000, Note_on_c, 2, 74, 100
4, 12059, Note_on_c, 2, 74, 0
4, 12060, Note_on_c, 2, 79, 100
4, 12119, Note_on_c, 2, 79, 0
4, 12120, Note_on_c, 2, 83, 100
4, 12179, Note_on_c, 2, 83, 0
4, 12180, Note_on_c, 2, 81, 100
4, 12239, Note_on_c, 2, 81, 0
4, 12240, Note_on_c, 2, 79, 100
4, 12299, Note_on_c, 2, 79, 0
4, 12300, Note_on_c, 2, 78, 100
4, 12359, Note_on_c, 2, 78, 0
4, 12360, Note_on_c, 2, 76, 100
4, 12419, Note_on_c, 2, 76, 0
4, 12420, Note_on_c, 2, 74, 100
4, 12479, Note_on_c, 2, 74, 0
4, 12480, Note_on_c, 2, 73, 100
4, 12530, Note_on_c, 2, 73, 0
4, 12600, Note_on_c, 2, 69, 100
4, 12839, Note_on_c, 2, 69, 0
4, 12840, Note_on_c, 2, 74, 100
4, 12899, Note_on_c, 2, 74, 0
4, 12900, Note_on_c, 2, 69, 100
4, 12959, Note_on_c, 2, 69, 0
4, 12960, Note_on_c, 2, 71, 100
4, 13019, Note_on_c, 2, 71, 0
4, 13020, Note_on_c, 2, 69, 100
4, 13079, Note_on_c, 2, 69, 0
4, 13080, Note_on_c, 2, 67, 100
4, 13139, Note_on_c, 2, 67, 0
4, 13140, Note_on_c, 2, 66, 100
4, 13199, Note_on_c, 2, 66, 0
4, 13200, Note_on_c, 2, 67, 100
4, 13259, Note_on_c, 2, 67, 0
4, 13260, Note_on_c, 2, 71, 100
4, 13319, Note_on_c, 2, 71, 0
4, 13320, Note_on_c, 2, 76, 100
4, 13379, Note_on_c, 2, 76, 0
4, 13380, Note_on_c, 2, 71, 100
4, 13439, Note_on_c, 2, 71, 0
4, 13440, Note_on_c, 2, 73, 100
4, 13499, Note_on_c, 2, 73, 0
4, 13500, Note_on_c, 2, 69, 100
4, 13559, Note_on_c, 2, 69, 0
4, 13560, Note_on_c, 2, 71, 100
4, 13619, Note_on_c, 2, 71, 0
4, 13620, Note_on_c, 2, 73, 100
4, 13679, Note_on_c, 2, 73, 0
4, 13680, Note_on_c, 2, 74, 100
4, 13739, Note_on_c, 2, 74, 0
4, 13740, Note_on_c, 2, 76, 100
4, 13799, Note_on_c, 2, 76, 0
4, 13800, Note_on_c, 2, 78, 100
4, 13859, Note_on_c, 2, 78, 0
4, 13860, Note_on_c, 2, 79, 100
4, 13919, Note_on_c, 2, 79, 0
4, 13920, Note_on_c, 2, 81, 100
4, 13970, Note_on_c, 2, 81, 0
4, 14040, Note_on_c, 2, 74, 100
4, 14090, Note_on_c, 2, 74, 0
4, 14160, Note_on_c, 2, 78, 100
4, 14219, Note_on_c, 2, 78, 0
4, 14220, Note_on_c, 2, 76, 100
4, 14279, Note_on_c, 2, 76, 0
4, 14280, Note_on_c, 2, 74, 100
4, 14339, Note_on_c, 2, 74, 0
4, 14340, Note_on_c, 2, 73, 100
4, 14399, Note_on_c, 2, 73, 0
4, 14400, Note_on_c, 2, 74, 100
4, 14519, Note_on_c, 2, 74, 0
4, 14520, Note_on_c, 2, 69, 100
4, 14579, Note_on_c, 2, 69, 0
4, 14580, Note_on_c, 2, 74, 100
4, 14639, Note_on_c, 2, 74, 0
4, 14640, Note_on_c, 2, 78, 100
4, 14699, Note_on_c, 2, 78, 0
4, 14700, Note_on_c, 2, 74, 100
4, 14759, Note_on_c, 2, 74, 0
4, 14760, Note_on_c, 2, 78, 100
4, 14819, Note_on_c, 2, 78, 0
4, 14820, Note_on_c, 2, 81, 100
4, 14879, Note_on_c, 2, 81, 0
4, 14880, Note_on_c, 2, 86, 100
4, 15239, Note_on_c, 2, 86, 0
4, 15240, Note_on_c, 2, 76, 100
4, 15290, Note_on_c, 2, 76, 0
4, 15360, Note_on_c, 2, 81, 100
4, 15410, Note_on_c, 2, 81, 0
4, 15480, Note_on_c, 2, 76, 100
4, 15719, Note_on_c, 2, 76, 0
4, 15720, Note_on_c, 2, 78, 100
4, 15779, Note_on_c, 2, 78, 0
4, 15780, Note_on_c, 2, 80, 100
4, 15839, Note_on_c, 2, 80, 0
4, 15840, Note_on_c, 2, 81, 100
4, 15890, Note_on_c, 2, 81, 0
4, 15960, Note_on_c, 2, 76, 100
4, 16199, Note_on_c, 2, 76, 0
4, 16200, Note_on_c, 2, 78, 100
4, 16259, Note_on_c, 2, 78, 0
4, 16260, Note_on_c, 2, 80, 100
4, 16319, Note_on_c, 2, 80, 0
4, 16320, Note_on_c, 2, 81, 100
4, 16370, Note_on_c, 2, 81, 0
4, 16440, Note_on_c, 2, 79, 100
4, 16499, Note_on_c, 2, 79, 0
4, 16500, Note_on_c, 2, 78, 100
4, 16559, Note_on_c, 2, 78, 0
4, 16560, Note_on_c, 2, 76, 100
4, 16619, Note_on_c, 2, 76, 0
4, 16620, Note_on_c, 2, 78, 100
4, 16679, Note_on_c, 2, 78, 0
4, 16680, Note_on_c, 2, 79, 100
4, 16739, Note_on_c, 2, 79, 0
4, 16740, Note_on_c, 2, 76, 100
4, 16799, Note_on_c, 2, 76, 0
4, 16800, Note_on_c, 2, 78, 100
4, 16850, Note_on_c, 2, 78, 0
4, 16920, Note_on_c, 2, 74, 100
4, 17099, Note_on_c, 2, 74, 0
4, 17100, Note_on_c, 2, 69, 100
4, 17159, Note_on_c, 2, 69, 0
4, 17160, Note_on_c, 2, 71, 100
4, 17219, Note_on_c, 2, 71, 0
4, 17220, Note_on_c, 2, 72, 100
4, 17279, Note_on_c, 2, 72, 0
4, 17280, Note_on_c, 2, 71, 100
4, 17339, Note_on_c, 2, 71, 0
4, 17340, Note_on_c, 2, 74, 100
4, 17399, Note_on_c, 2, 74, 0
4, 17400, Note_on_c, 2, 76, 100
4, 17459, Note_on_c, 2, 76, 0
4, 17460, Note_on_c, 2, 78, 100
4, 17519, Note_on_c, 2, 78, 0
4, 17520, Note_on_c, 2, 79, 100
4, 17579, Note_on_c, 2, 79, 0
4, 17580, Note_on_c, 2, 71, 100
4, 17639, Note_on_c, 2, 71, 0
4, 17640, Note_on_c, 2, 73, 100
4, 17699, Note_on_c, 2, 73, 0
4, 17700, Note_on_c, 2, 74, 100
4, 17759, Note_on_c, 2, 74, 0
4, 17760, Note_on_c, 2, 73, 100
4, 17819, Note_on_c, 2, 73, 0
4, 17820, Note_on_c, 2, 76, 100
4, 17879, Note_on_c, 2, 76, 0
4, 17880, Note_on_c, 2, 78, 100
4, 17939, Note_on_c, 2, 78, 0
4, 17940, Note_on_c, 2, 79, 100
4, 17999, Note_on_c, 2, 79, 0
4, 18000, Note_on_c, 2, 81, 100
4, 18059, Note_on_c, 2, 81, 0
4, 18060, Note_on_c, 2, 73, 100
4, 18119, Note_on_c, 2, 73, 0
4, 18120, Note_on_c, 2, 74, 100
4, 18179, Note_on_c, 2, 74, 0
4, 18180, Note_on_c, 2, 76, 100
4, 18239, Note_on_c, 2, 76, 0
4, 18240, Note_on_c, 2, 74, 100
4, 18299, Note_on_c, 2, 74, 0
4, 18300, Note_on_c, 2, 79, 100
4, 18359, Note_on_c, 2, 79, 0
4, 18360, Note_on_c, 2, 83, 100
4, 18419, Note_on_c, 2, 83, 0
4, 18420, Note_on_c, 2, 81, 100
4, 18479, Note_on_c, 2, 81, 0
4, 18480, Note_on_c, 2, 79, 100
4, 18539, Note_on_c, 2, 79, 0
4, 18540, Note_on_c, 2, 78, 100
4, 18599, Note_on_c, 2, 78, 0
4, 18600, Note_on_c, 2, 76, 100
4, 18659, Note_on_c, 2, 76, 0
4, 18660, Note_on_c, 2, 74, 100
4, 18719, Note_on_c, 2, 74, 0
4, 18720, Note_on_c, 2, 73, 100
4, 18770, Note_on_c, 2, 73, 0
4, 18840, Note_on_c, 2, 69, 100
4, 19079, Note_on_c, 2, 69, 0
4, 19080, Note_on_c, 2, 74, 100
4, 19139, Note_on_c, 2, 74, 0
4, 19140, Note_on_c, 2, 69, 100
4, 19199, Note_on_c, 2, 69, 0
4, 19200, Note_on_c, 2, 71, 100
4, 19259, Note_on_c, 2, 71, 0
4, 19260, Note_on_c, 2, 69, 100
4, 19319, Note_on_c, 2, 69, 0
4, 19320, Note_on_c, 2, 67, 100
4, 19379, Note_on_c, 2, 67, 0
4, 19380, Note_on_c, 2, 66, 100
4, 19439, Note_on_c, 2, 66, 0
4, 19440, Note_on_c, 2, 67, 100
4, 19499, Note_on_c, 2, 67, 0
4, 19500, Note_on_c, 2, 71, 100
4, 19559, Note_on_c, 2, 71, 0
4, 19560, Note_on_c, 2, 76, 100
4, 19619, Note_on_c, 2, 76, 0
4, 19620, Note_on_c, 2, 71, 100
4, 19679, Note_on_c, 2, 71, 0
4, 19680, Note_on_c, 2, 73, 100
4, 19739, Note_on_c, 2, 73, 0
4, 19740, Note_on_c, 2, 69, 100
4, 19799, Note_on_c, 2, 69, 0
4, 19800, Note_on_c, 2, 71, 100
4, 19859, Note_on_c, 2, 71, 0
4, 19860, Note_on_c, 2, 73, 100
4, 19919, Note_on_c, 2, 73, 0
4, 19920, Note_on_c, 2, 74, 100
4, 19979, Note_on_c, 2, 74, 0
4, 19980, Note_on_c, 2, 76, 100
4, 20039, Note_on_c, 2, 76, 0
4, 20040, Note_on_c, 2, 78, 100
4, 20099, Note_on_c, 2, 78, 0
4, 20100, Note_on_c, 2, 79, 100
4, 20159, Note_on_c, 2, 79, 0
4, 20160, Note_on_c, 2, 81, 100
4, 20210, Note_on_c, 2, 81, 0
4, 20280, Note_on_c, 2, 74, 100
4, 20330, Note_on_c, 2, 74, 0
4, 20400, Note_on_c, 2, 78, 100
4, 20459, Note_on_c, 2, 78, 0
4, 20460, Note_on_c, 2, 76, 100
4, 20519, Note_on_c, 2, 76, 0
4, 20520, Note_on_c, 2, 74, 100
4, 20579, Note_on_c, 2, 74, 0
4, 20580, Note_on_c, 2, 73, 100
4, 20639, Note_on_c, 2, 73, 0
4, 20640, Note_on_c, 2, 74, 100
4, 20759, Note_on_c, 2, 74, 0
4, 20760, Note_on_c, 2, 69, 100
4, 20819, Note_on_c, 2, 69, 0
4, 20820, Note_on_c, 2, 74, 100
4, 20879, Note_on_c, 2, 74, 0
4, 20880, Note_on_c, 2, 78, 100
4, 20939, Note_on_c, 2, 78, 0
4, 20940, Note_on_c, 2, 74, 100
4, 20999, Note_on_c, 2, 74, 0
4, 21000, Note_on_c, 2, 78, 100
4, 21059, Note_on_c, 2, 78, 0
4, 21060, Note_on_c, 2, 81, 100
4, 21119, Note_on_c, 2, 81, 0
4, 21120, Note_on_c, 2, 86, 100
4, 21479, Note_on_c, 2, 86, 0
4, 21479, End_track
5, 0, Start_track
5, 0, Control_c, 3, 0, 0
5, 0, Control_c, 3, 32, 1
5, 0, Program_c, 3, 0
5, 2, Control_c, 3, 0, 127
5, 3, Program_c, 3, 10
5, 480, Note_on_c, 3, 50, 80
5, 595, Note_on_c, 3, 50, 0
5, 600, Note_on_c, 3, 55, 80
5, 715, Note_on_c, 3, 55, 0
5, 720, Note_on_c, 3, 54, 80
5, 835, Note_on_c, 3, 54, 0
5, 840, Note_on_c, 3, 52, 80
5, 955, Note_on_c, 3, 52, 0
5, 960, Note_on_c, 3, 50, 80
5, 1075, Note_on_c, 3, 50, 0
5, 1080, Note_on_c, 3, 55, 80
5, 1195, Note_on_c, 3, 55, 0
5, 1200, Note_on_c, 3, 54, 80
5, 1315, Note_on_c, 3, 54, 0
5, 1320, Note_on_c, 3, 52, 80
5, 1435, Note_on_c, 3, 52, 0
5, 1440, Note_on_c, 3, 54, 80
5, 1490, Note_on_c, 3, 54, 0
5, 1560, Note_on_c, 3, 50, 80
5, 1610, Note_on_c, 3, 50, 0
5, 1680, Note_on_c, 3, 49, 80
5, 1730, Note_on_c, 3, 49, 0
5, 1800, Note_on_c, 3, 45, 80
5, 1850, Note_on_c, 3, 45, 0
5, 1920, Note_on_c, 3, 38, 80
5, 1970, Note_on_c, 3, 38, 0
5, 2040, Note_on_c, 3, 50, 80
5, 2099, Note_on_c, 3, 50, 0
5, 2100, Note_on_c, 3, 49, 80
5, 2159, Note_on_c, 3, 49, 0
5, 2160, Note_on_c, 3, 50, 80
5, 2210, Note_on_c, 3, 50, 0
5, 2280, Note_on_c, 3, 38, 80
5, 2330, Note_on_c, 3, 38, 0
5, 2400, Note_on_c, 3, 38, 80
5, 2450, Note_on_c, 3, 38, 0
5, 2520, Note_on_c, 3, 50, 80
5, 2579, Note_on_c, 3, 50, 0
5, 2580, Note_on_c, 3, 49, 80
5, 2639, Note_on_c, 3, 49, 0
5, 2640, Note_on_c, 3, 50, 80
5, 2690, Note_on_c, 3, 50, 0
5, 2760, Note_on_c, 3, 38, 80
5, 2810, Note_on_c, 3, 38, 0
5, 2880, Note_on_c, 3, 38, 80
5, 2930, Note_on_c, 3, 38, 0
5, 3000, Note_on_c, 3, 50, 80
5, 3059, Note_on_c, 3, 50, 0
5, 3060, Note_on_c, 3, 49, 80
5, 3119, Note_on_c, 3, 49, 0
5, 3120, Note_on_c, 3, 50, 80
5, 3170, Note_on_c, 3, 50, 0
5, 3240, Note_on_c, 3, 38, 80
5, 3290, Note_on_c, 3, 38, 0
5, 3360, Note_on_c, 3, 37, 80
5, 3410, Note_on_c, 3, 37, 0
5, 3480, Note_on_c, 3, 42, 80
5, 3530, Note_on_c, 3, 42, 0
5, 3600, Note_on_c, 3, 38, 80
5, 3650, Note_on_c, 3, 38, 0
5, 3720, Note_on_c, 3, 40, 80
5, 3770, Note_on_c, 3, 40, 0
5, 3840, Note_on_c, 3, 45, 80
5, 3955, Note_on_c, 3, 45, 0
5, 3960, Note_on_c, 3, 45, 80
5, 4010, Note_on_c, 3, 45, 0
5, 4020, Note_on_c, 3, 45, 80
5, 4070, Note_on_c, 3, 45, 0
5, 4080, Note_on_c, 3, 45, 80
5, 4130, Note_on_c, 3, 45, 0
5, 4140, Note_on_c, 3, 45, 80
5, 4190, Note_on_c, 3, 45, 0
5, 4200, Note_on_c, 3, 45, 80
5, 4250, Note_on_c, 3, 45, 0
5, 4260, Note_on_c, 3, 45, 80
5, 4310, Note_on_c, 3, 45, 0
5, 4320, Note_on_c, 3, 45, 80
5, 4370, Note_on_c, 3, 45, 0
5, 4440, Note_on_c, 3, 52, 80
5, 4490, Note_on_c, 3, 52, 0
5, 4560, Note_on_c, 3, 57, 80
5, 4610, Note_on_c, 3, 57, 0
5, 4800, Note_on_c, 3, 50, 80
5, 4915, Note_on_c, 3, 50, 0
5, 4920, Note_on_c, 3, 55, 80
5, 5035, Note_on_c, 3, 55, 0
5, 5040, Note_on_c, 3, 54, 80
5, 5155, Note_on_c, 3, 54, 0
5, 5160, Note_on_c, 3, 52, 80
5, 5275, Note_on_c, 3, 52, 0
5, 5280, Note_on_c, 3, 50, 80
5, 5395, Note_on_c, 3, 50, 0
5, 5400, Note_on_c, 3, 55, 80
5, 5515, Note_on_c, 3, 55, 0
5, 5520, Note_on_c, 3, 54, 80
5, 5635, Note_on_c, 3, 54, 0
5, 5640, Note_on_c, 3, 52, 80
5, 5755, Note_on_c, 3, 52, 0
5, 5760, Note_on_c, 3, 54, 80
5, 5810, Note_on_c, 3, 54, 0
5, 5880, Note_on_c, 3, 50, 80
5, 5930, Note_on_c, 3, 50, 0
5, 6000, Note_on_c, 3, 49, 80
5, 6050, Note_on_c, 3, 49, 0
5, 6120, Note_on_c, 3, 45, 80
5, 6170, Note_on_c, 3, 45, 0
5, 6240, Note_on_c, 3, 38, 80
5, 6290, Note_on_c, 3, 38, 0
5, 6360, Note_on_c, 3, 50, 80
5, 6419, Note_on_c, 3, 50, 0
5, 6420, Note_on_c, 3, 49, 80
5, 6479, Note_on_c, 3, 49, 0
5, 6480, Note_on_c, 3, 50, 80
5, 6530, Note_on_c, 3, 50, 0
5, 6600, Note_on_c, 3, 38, 80
5, 6650, Note_on_c, 3, 38, 0
5, 6720, Note_on_c, 3, 38, 80
5, 6770, Note_on_c, 3, 38, 0
5, 6840, Note_on_c, 3, 50, 80
5, 6899, Note_on_c, 3, 50, 0
5, 6900, Note_on_c, 3, 49, 80
5, 6959, Note_on_c, 3, 49, 0
5, 6960, Note_on_c, 3, 50, 80
5, 7010, Note_on_c, 3, 50, 0
5, 7080, Note_on_c, 3, 38, 80
5, 7130, Note_on_c, 3, 38, 0
5, 7200, Note_on_c, 3, 38, 80
5, 7250, Note_on_c, 3, 38, 0
5, 7320, Note_on_c, 3, 50, 80
5, 7379, Note_on_c, 3, 50, 0
5, 7380, Note_on_c, 3, 49, 80
5, 7439, Note_on_c, 3, 49, 0
5, 7440, Note_on_c, 3, 50, 80
5, 7490, Note_on_c, 3, 50, 0
5, 7560, Note_on_c, 3, 38, 80
5, 7610, Note_on_c, 3, 38, 0
5, 7680, Note_on_c, 3, 37, 80
5, 7730, Note_on_c, 3, 37, 0
5, 7800, Note_on_c, 3, 42, 80
5, 7850, Note_on_c, 3, 42, 0
5, 7920, Note_on_c, 3, 38, 80
5, 7970, Note_on_c, 3, 38, 0
5, 8040, Note_on_c, 3, 40, 80
5, 8090, Note_on_c, 3, 40, 0
5, 8160, Note_on_c, 3, 45, 80
5, 8275, Note_on_c, 3, 45, 0
5, 8280, Note_on_c, 3, 45, 80
5, 8330, Note_on_c, 3, 45, 0
5, 8340, Note_on_c, 3, 45, 80
5, 8390, Note_on_c, 3, 45, 0
5, 8400, Note_on_c, 3, 45, 80
5, 8450, Note_on_c, 3, 45, 0
5, 8460, Note_on_c, 3, 45, 80
5, 8510, Note_on_c, 3, 45, 0
5, 8520, Note_on_c, 3, 45, 80
5, 8570, Note_on_c, 3, 45, 0
5, 8580, Note_on_c, 3, 45, 80
5, 8630, Note_on_c, 3, 45, 0
5, 8640, Note_on_c, 3, 45, 80
5, 8690, Note_on_c, 3, 45, 0
5, 8760, Note_on_c, 3, 52, 80
5, 8810, Note_on_c, 3, 52, 0
5, 8880, Note_on_c, 3, 57, 80
5, 8930, Note_on_c, 3, 57, 0
5, 9120, Note_on_c, 3, 57, 80
5, 9235, Note_on_c, 3, 57, 0
5, 9240, Note_on_c, 3, 62, 80
5, 9355, Note_on_c, 3, 62, 0
5, 9360, Note_on_c, 3, 61, 80
5, 9475, Note_on_c, 3, 61, 0
5, 9480, Note_on_c, 3, 59, 80
5, 9595, Note_on_c, 3, 59, 0
5, 9600, Note_on_c, 3, 57, 80
5, 9715, Note_on_c, 3, 57, 0
5, 9720, Note_on_c, 3, 62, 80
5, 9835, Note_on_c, 3, 62, 0
5, 9840, Note_on_c, 3, 61, 80
5, 9955, Note_on_c, 3, 61, 0
5, 9960, Note_on_c, 3, 59, 80
5, 10075, Note_on_c, 3, 59, 0
5, 10080, Note_on_c, 3, 57, 80
5, 10195, Note_on_c, 3, 57, 0
5, 10200, Note_on_c, 3, 59, 80
5, 10315, Note_on_c, 3, 59, 0
5, 10320, Note_on_c, 3, 61, 80
5, 10435, Note_on_c, 3, 61, 0
5, 10440, Note_on_c, 3, 57, 80
5, 10555, Note_on_c, 3, 57, 0
5, 10560, Note_on_c, 3, 62, 80
5, 10675, Note_on_c, 3, 62, 0
5, 10680, Note_on_c, 3, 50, 80
5, 10739, Note_on_c, 3, 50, 0
5, 10740, Note_on_c, 3, 52, 80
5, 10799, Note_on_c, 3, 52, 0
5, 10800, Note_on_c, 3, 54, 80
5, 10850, Note_on_c, 3, 54, 0
5, 10920, Note_on_c, 3, 50, 80
5, 10970, Note_on_c, 3, 50, 0
5, 11040, Note_on_c, 3, 55, 80
5, 11159, Note_on_c, 3, 55, 0
5, 11400, Note_on_c, 3, 56, 80
5, 11450, Note_on_c, 3, 56, 0
5, 11520, Note_on_c, 3, 57, 80
5, 11639, Note_on_c, 3, 57, 0
5, 11880, Note_on_c, 3, 58, 80
5, 11999, Note_on_c, 3, 58, 0
5, 12000, Note_on_c, 3, 59, 80
5, 12050, Note_on_c, 3, 59, 0
5, 12120, Note_on_c, 3, 55, 80
5, 12235, Note_on_c, 3, 55, 0
5, 12240, Note_on_c, 3, 52, 80
5, 12290, Note_on_c, 3, 52, 0
5, 12360, Note_on_c, 3, 55, 80
5, 12410, Note_on_c, 3, 55, 0
5, 12480, Note_on_c, 3, 57, 80
5, 12539, Note_on_c, 3, 57, 0
5, 12540, Note_on_c, 3, 45, 80
5, 12599, Note_on_c, 3, 45, 0
5, 12600, Note_on_c, 3, 57, 80
5, 12659, Note_on_c, 3, 57, 0
5, 12660, Note_on_c, 3, 55, 80
5, 12719, Note_on_c, 3, 55, 0
5, 12720, Note_on_c, 3, 54, 80
5, 12779, Note_on_c, 3, 54, 0
5, 12780, Note_on_c, 3, 52, 80
5, 12839, Note_on_c, 3, 52, 0
5, 12840, Note_on_c, 3, 54, 80
5, 12899, Note_on_c, 3, 54, 0
5, 12900, Note_on_c, 3, 50, 80
5, 12959, Note_on_c, 3, 50, 0
5, 12960, Note_on_c, 3, 43, 80
5, 13075, Note_on_c, 3, 43, 0
5, 13320, Note_on_c, 3, 55, 80
5, 13370, Note_on_c, 3, 55, 0
5, 13440, Note_on_c, 3, 57, 80
5, 13559, Note_on_c, 3, 57, 0
5, 13800, Note_on_c, 3, 55, 80
5, 13919, Note_on_c, 3, 55, 0
5, 13920, Note_on_c, 3, 54, 80
5, 13970, Note_on_c, 3, 54, 0
5, 14040, Note_on_c, 3, 59, 80
5, 14090, Note_on_c, 3, 59, 0
5, 14160, Note_on_c, 3, 55, 80
5, 14210, Note_on_c, 3, 55, 0
5, 14280, Note_on_c, 3, 57, 80
5, 14330, Note_on_c, 3, 57, 0
5, 14400, Note_on_c, 3, 50, 80
5, 14515, Note_on_c, 3, 50, 0
5, 14520, Note_on_c, 3, 38, 80
5, 14570, Note_on_c, 3, 38, 0
5, 14580, Note_on_c, 3, 38, 80
5, 14630, Note_on_c, 3, 38, 0
5, 14640, Note_on_c, 3, 38, 80
5, 14690, Note_on_c, 3, 38, 0
5, 14700, Note_on_c, 3, 38, 80
5, 14750, Note_on_c, 3, 38, 0
5, 14760, Note_on_c, 3, 38, 80
5, 14810, Note_on_c, 3, 38, 0
5, 14820, Note_on_c, 3, 38, 80
5, 14870, Note_on_c, 3, 38, 0
5, 14880, Note_on_c, 3, 38, 80
5, 14930, Note_on_c, 3, 38, 0
5, 15000, Note_on_c, 3, 45, 80
5, 15050, Note_on_c, 3, 45, 0
5, 15120, Note_on_c, 3, 50, 80
5, 15170, Note_on_c, 3, 50, 0
5, 15360, Note_on_c, 3, 57, 80
5, 15475, Note_on_c, 3, 57, 0
5, 15480, Note_on_c, 3, 62, 80
5, 15595, Note_on_c, 3, 62, 0
5, 15600, Note_on_c, 3, 61, 80
5, 15715, Note_on_c, 3, 61, 0
5, 15720, Note_on_c, 3, 59, 80
5, 15835, Note_on_c, 3, 59, 0
5, 15840, Note_on_c, 3, 57, 80
5, 15955, Note_on_c, 3, 57, 0
5, 15960, Note_on_c, 3, 62, 80
5, 16075, Note_on_c, 3, 62, 0
5, 16080, Note_on_c, 3, 61, 80
5, 16195, Note_on_c, 3, 61, 0
5, 16200, Note_on_c, 3, 59, 80
5, 16315, Note_on_c, 3, 59, 0
5, 16320, Note_on_c, 3, 57, 80
5, 16435, Note_on_c, 3, 57, 0
5, 16440, Note_on_c, 3, 59, 80
5, 16555, Note_on_c, 3, 59, 0
5, 16560, Note_on_c, 3, 61, 80
5, 16675, Note_on_c, 3, 61, 0
5, 16680, Note_on_c, 3, 57, 80
5, 16795, Note_on_c, 3, 57, 0
5, 16800, Note_on_c, 3, 62, 80
5, 16915, Note_on_c, 3, 62, 0
5, 16920, Note_on_c, 3, 50, 80
5, 16979, Note_on_c, 3, 50, 0
5, 16980, Note_on_c, 3, 52, 80
5, 17039, Note_on_c, 3, 52, 0
5, 17040, Note_on_c, 3, 54, 80
5, 17090, Note_on_c, 3, 54, 0
5, 17160, Note_on_c, 3, 50, 80
5, 17210, Note_on_c, 3, 50, 0
5, 17280, Note_on_c, 3, 55, 80
5, 17399, Note_on_c, 3, 55, 0
5, 17640, Note_on_c, 3, 56, 80
5, 17690, Note_on_c, 3, 56, 0
5, 17760, Note_on_c, 3, 57, 80
5, 17879, Note_on_c, 3, 57, 0
5, 18120, Note_on_c, 3, 58, 80
5, 18239, Note_on_c, 3, 58, 0
5, 18240, Note_on_c, 3, 59, 80
5, 18290, Note_on_c, 3, 59, 0
5, 18360, Note_on_c, 3, 55, 80
5, 18475, Note_on_c, 3, 55, 0
5, 18480, Note_on_c, 3, 52, 80
5, 18530, Note_on_c, 3, 52, 0
5, 18600, Note_on_c, 3, 55, 80
5, 18650, Note_on_c, 3, 55, 0
5, 18720, Note_on_c, 3, 57, 80
5, 18779, Note_on_c, 3, 57, 0
5, 18780, Note_on_c, 3, 45, 80
5, 18839, Note_on_c, 3, 45, 0
5, 18840, Note_on_c, 3, 57, 80
5, 18899, Note_on_c, 3, 57, 0
5, 18900, Note_on_c, 3, 55, 80
5, 18959, Note_on_c, 3, 55, 0
5, 18960, Note_on_c, 3, 54, 80
5, 19019, Note_on_c, 3, 54, 0
5, 19020, Note_on_c, 3, 52, 80
5, 19079, Note_on_c, 3, 52, 0
5, 19080, Note_on_c, 3, 54, 80
5, 19139, Note_on_c, 3, 54, 0
5, 19140, Note_on_c, 3, 50, 80
5, 19199, Note_on_c, 3, 50, 0
5, 19200, Note_on_c, 3, 43, 80
5, 19315, Note_on_c, 3, 43, 0
5, 19560, Note_on_c, 3, 55, 80
5, 19610, Note_on_c, 3, 55, 0
5, 19680, Note_on_c, 3, 57, 80
5, 19799, Note_on_c, 3, 57, 0
5, 20040, Note_on_c, 3, 55, 80
5, 20159, Note_on_c, 3, 55, 0
5, 20160, Note_on_c, 3, 54, 80
5, 20210, Note_on_c, 3, 54, 0
5, 20280, Note_on_c, 3, 59, 80
5, 20330, Note_on_c, 3, 59, 0
5, 20400, Note_on_c, 3, 55, 80
5, 20450, Note_on_c, 3, 55, 0
5, 20520, Note_on_c, 3, 57, 80
5, 20570, Note_on_c, 3, 57, 0
5, 20640, Note_on_c, 3, 50, 80
5, 20755, Note_on_c, 3, 50, 0
5, 20760, Note_on_c, 3, 38, 80
5, 20810, Note_on_c, 3, 38, 0
5, 20820, Note_on_c, 3, 38, 80
5, 20870, Note_on_c, 3, 38, 0
5, 20880, Note_on_c, 3, 38, 80
5, 20930, Note_on_c, 3, 38, 0
5, 20940, Note_on_c, 3, 38, 80
5, 20990, Note_on_c, 3, 38, 0
5, 21000, Note_on_c, 3, 38, 80
5, 21050, Note_on_c, 3, 38, 0
5, 21060, Note_on_c, 3, 38, 80
5, 21110, Note_on_c, 3, 38, 0
5, 21120, Note_on_c, 3, 38, 80
5, 21170, Note_on_c, 3, 38, 0
5, 21240, Note_on_c, 3, 45, 80
5, 21290, Note_on_c, 3, 45, 0
5, 21360, Note_on_c, 3, 50, 80
5, 21410, Note_on_c, 3, 50, 0
5, 21410, End_track
6, 0, Start_track
6, 0, End_track
0, 0, End_of_file
