0, 0, Header, 1, 4, 384
1, 0, Start_track
1, 0, Tempo, 967740
1, 0, Time_signature, 4, 2, 24, 8
1, 16896, Tempo, 857140
1, 43008, Tempo, 923070
1, 72192, Tempo, 1200000
1, 73728, Tempo, 722890
1, 184320, Tempo, 1200000
1, 185088, Tempo, 967740
1, 199296, Tempo, 1304340
1, 205824, Tempo, 1090900
1, 216576, Tempo, 1200000
1, 227328, Tempo, 1090900
1, 239616, Tempo, 1200000
1, 243456, Tempo, 2000000
1, 244224, End_track
2, 0, Start_track
2, 0, Title_t, "Track 1"
2, 0, Program_c, 0, 19
2, 192, Note_on_c, 0, 45, 92
2, 240, Note_on_c, 0, 48, 92
2, 288, Note_off_c, 0, 48, 64
2, 288, Note_on_c, 0, 52, 92
2, 336, Note_off_c, 0, 52, 64
2, 336, Note_on_c, 0, 48, 92
2, 384, Note_off_c, 0, 48, 64
2, 384, Note_off_c, 0, 45, 64
2, 384, Note_on_c, 0, 48, 92
2, 432, Note_on_c, 0, 52, 92
2, 480, Note_off_c, 0, 52, 64
2, 480, Note_on_c, 0, 57, 92
2, 528, Note_off_c, 0, 57, 64
2, 528, Note_on_c, 0, 52, 92
2, 576, Note_off_c, 0, 52, 64
2, 576, Note_off_c, 0, 48, 64
2, 576, Note_on_c, 0, 52, 92
2, 624, Note_on_c, 0, 57, 92
2, 672, Note_off_c, 0, 57, 64
2, 672, Note_on_c, 0, 60, 92
2, 720, Note_off_c, 0, 60, 64
2, 720, Note_on_c, 0, 57, 92
2, 768, Note_off_c, 0, 57, 64
2, 768, Note_off_c, 0, 52, 64
2, 768, Note_on_c, 0, 48, 92
2, 816, Note_on_c, 0, 52, 92
2, 864, Note_off_c, 0, 52, 64
2, 864, Note_on_c, 0, 57, 92
2, 912, Note_off_c, 0, 57, 64
2, 912, Note_on_c, 0, 52, 92
2, 960, Note_off_c, 0, 52, 64
2, 960, Note_off_c, 0, 48, 64
2, 960, Note_on_c, 0, 52, 92
2, 1008, Note_on_c, 0, 57, 92
2, 1056, Note_off_c, 0, 57, 64
2, 1056, Note_on_c, 0, 60, 92
2, 1104, Note_off_c, 0, 60, 64
2, 1104, Note_on_c, 0, 57, 92
2, 1152, Note_off_c, 0, 57, 64
2, 1152, Note_off_c, 0, 52, 64
2, 1152, Note_on_c, 0, 57, 92
2, 1200, Note_on_c, 0, 60, 92
2, 1248, Note_off_c, 0, 60, 64
2, 1248, Note_on_c, 0, 64, 92
2, 1296, Note_off_c, 0, 64, 64
2, 1296, Note_on_c, 0, 60, 92
2, 1344, Note_off_c, 0, 60, 64
2, 1344, Note_off_c, 0, 57, 64
2, 1344, Note_on_c, 0, 52, 92
2, 1392, Note_on_c, 0, 57, 92
2, 1440, Note_off_c, 0, 57, 64
2, 1440, Note_on_c, 0, 60, 92
2, 1488, Note_off_c, 0, 60, 64
2, 1488, Note_on_c, 0, 57, 92
2, 1536, Note_off_c, 0, 57, 64
2, 1536, Note_off_c, 0, 52, 64
2, 1536, Note_on_c, 0, 57, 92
2, 1584, Note_on_c, 0, 60, 92
2, 1632, Note_off_c, 0, 60, 64
2, 1632, Note_on_c, 0, 64, 92
2, 1680, Note_off_c, 0, 64, 64
2, 1680, Note_on_c, 0, 60, 92
2, 1728, Note_off_c, 0, 60, 64
2, 1728, Note_off_c, 0, 57, 64
2, 1728, Note_on_c, 0, 60, 92
2, 1776, Note_on_c, 0, 64, 92
2, 1824, Note_off_c, 0, 64, 64
2, 1824, Note_on_c, 0, 69, 92
2, 1872, Note_off_c, 0, 69, 64
2, 1872, Note_on_c, 0, 64, 92
2, 1920, Note_off_c, 0, 64, 64
2, 1920, Note_off_c, 0, 60, 64
2, 1920, Note_on_c, 0, 64, 92
2, 1968, Note_on_c, 0, 69, 92
2, 2016, Note_off_c, 0, 69, 64
2, 2016, Note_on_c, 0, 72, 92
2, 2064, Note_off_c, 0, 72, 64
2, 2064, Note_on_c, 0, 69, 92
2, 2112, Note_off_c, 0, 69, 64
2, 2112, Note_off_c, 0, 64, 64
2, 2112, Note_on_c, 0, 60, 92
2, 2160, Note_on_c, 0, 64, 92
2, 2208, Note_off_c, 0, 64, 64
2, 2208, Note_on_c, 0, 69, 92
2, 2256, Note_off_c, 0, 69, 64
2, 2256, Note_on_c, 0, 64, 92
2, 2304, Note_off_c, 0, 64, 64
2, 2304, Note_off_c, 0, 60, 64
2, 2304, Note_on_c, 0, 64, 92
2, 2352, Note_on_c, 0, 69, 92
2, 2400, Note_off_c, 0, 69, 64
2, 2400, Note_on_c, 0, 72, 92
2, 2448, Note_off_c, 0, 72, 64
2, 2448, Note_on_c, 0, 69, 92
2, 2496, Note_off_c, 0, 69, 64
2, 2496, Note_off_c, 0, 64, 64
2, 2496, Note_on_c, 0, 69, 92
2, 2544, Note_on_c, 0, 72, 92
2, 2592, Note_off_c, 0, 72, 64
2, 2592, Note_on_c, 0, 76, 92
2, 2640, Note_off_c, 0, 76, 64
2, 2640, Note_on_c, 0, 72, 92
2, 2688, Note_off_c, 0, 72, 64
2, 2688, Note_off_c, 0, 69, 64
2, 2688, Note_on_c, 0, 72, 92
2, 2736, Note_off_c, 0, 72, 64
2, 2736, Note_on_c, 0, 81, 92
2, 2784, Note_off_c, 0, 81, 64
2, 2784, Note_on_c, 0, 79, 92
2, 2832, Note_off_c, 0, 79, 64
2, 2832, Note_on_c, 0, 77, 92
2, 2880, Note_off_c, 0, 77, 64
2, 2880, Note_on_c, 0, 76, 92
2, 2928, Note_off_c, 0, 76, 64
2, 2928, Note_on_c, 0, 74, 92
2, 2976, Note_off_c, 0, 74, 64
2, 2976, Note_on_c, 0, 72, 92
2, 3024, Note_off_c, 0, 72, 64
2, 3024, Note_on_c, 0, 71, 92
2, 3072, Note_off_c, 0, 71, 64
2, 3072, Note_on_c, 0, 69, 92
2, 3120, Note_off_c, 0, 69, 64
2, 3120, Note_on_c, 0, 76, 92
2, 3168, Note_off_c, 0, 76, 64
2, 3168, Note_on_c, 0, 74, 92
2, 3216, Note_off_c, 0, 74, 64
2, 3216, Note_on_c, 0, 72, 92
2, 3264, Note_off_c, 0, 72, 64
2, 3264, Note_on_c, 0, 71, 92
2, 3312, Note_off_c, 0, 71, 64
2, 3312, Note_on_c, 0, 69, 92
2, 3360, Note_off_c, 0, 69, 64
2, 3360, Note_on_c, 0, 68, 92
2, 3408, Note_off_c, 0, 68, 64
2, 3408, Note_on_c, 0, 66, 92
2, 3456, Note_off_c, 0, 66, 64
2, 3456, Note_on_c, 0, 64, 92
2, 3504, Note_off_c, 0, 64, 64
2, 3504, Note_on_c, 0, 69, 92
2, 3552, Note_off_c, 0, 69, 64
2, 3552, Note_on_c, 0, 67, 92
2, 3600, Note_off_c, 0, 67, 64
2, 3600, Note_on_c, 0, 65, 92
2, 3648, Note_off_c, 0, 65, 64
2, 3648, Note_on_c, 0, 64, 92
2, 3696, Note_off_c, 0, 64, 64
2, 3696, Note_on_c, 0, 62, 92
2, 3744, Note_off_c, 0, 62, 64
2, 3744, Note_on_c, 0, 60, 92
2, 3792, Note_off_c, 0, 60, 64
2, 3792, Note_on_c, 0, 59, 92
2, 3840, Note_off_c, 0, 59, 64
2, 3840, Note_on_c, 0, 57, 92
2, 3888, Note_off_c, 0, 57, 64
2, 3888, Note_on_c, 0, 64, 92
2, 3936, Note_off_c, 0, 64, 64
2, 3936, Note_on_c, 0, 62, 92
2, 3984, Note_off_c, 0, 62, 64
2, 3984, Note_on_c, 0, 60, 92
2, 4032, Note_off_c, 0, 60, 64
2, 4032, Note_on_c, 0, 59, 92
2, 4080, Note_off_c, 0, 59, 64
2, 4800, Note_on_c, 0, 66, 92
2, 4800, Note_on_c, 0, 69, 92
2, 4800, Note_on_c, 0, 72, 92
2, 4992, Note_off_c, 0, 72, 64
2, 4992, Note_off_c, 0, 69, 64
2, 4992, Note_off_c, 0, 66, 64
2, 4992, Note_on_c, 0, 71, 92
2, 4992, Note_on_c, 0, 69, 92
2, 5184, Note_off_c, 0, 69, 64
2, 5184, Note_on_c, 0, 67, 92
2, 5280, Note_off_c, 0, 67, 64
2, 5280, Note_on_c, 0, 66, 92
2, 5376, Note_off_c, 0, 66, 64
2, 5376, Note_on_c, 0, 67, 92
2, 5424, Note_off_c, 0, 67, 64
2, 5568, Note_off_c, 0, 71, 64
2, 5664, Note_on_c, 0, 61, 92
2, 5712, Note_off_c, 0, 61, 64
2, 5712, Note_on_c, 0, 63, 92
2, 5760, Note_off_c, 0, 63, 64
2, 5760, Note_on_c, 0, 64, 92
2, 5808, Note_off_c, 0, 64, 64
2, 5808, Note_on_c, 0, 59, 92
2, 5856, Note_off_c, 0, 59, 64
2, 5856, Note_on_c, 0, 61, 92
2, 5904, Note_off_c, 0, 61, 64
2, 5904, Note_on_c, 0, 63, 92
2, 5952, Note_off_c, 0, 63, 64
2, 5952, Note_on_c, 0, 64, 92
2, 6000, Note_off_c, 0, 64, 64
2, 6000, Note_on_c, 0, 66, 92
2, 6048, Note_off_c, 0, 66, 64
2, 6048, Note_on_c, 0, 67, 92
2, 6096, Note_off_c, 0, 67, 64
2, 6096, Note_on_c, 0, 69, 92
2, 6144, Note_off_c, 0, 69, 64
2, 6144, Note_on_c, 0, 67, 92
2, 6192, Note_off_c, 0, 67, 64
2, 6192, Note_on_c, 0, 71, 92
2, 6240, Note_off_c, 0, 71, 64
2, 6240, Note_on_c, 0, 73, 92
2, 6288, Note_off_c, 0, 73, 64
2, 6288, Note_on_c, 0, 75, 92
2, 6336, Note_off_c, 0, 75, 64
2, 6336, Note_on_c, 0, 76, 92
2, 6384, Note_off_c, 0, 76, 64
2, 6384, Note_on_c, 0, 78, 92
2, 6432, Note_off_c, 0, 78, 64
2, 6432, Note_on_c, 0, 79, 92
2, 6480, Note_off_c, 0, 79, 64
2, 6480, Note_on_c, 0, 81, 92
2, 6528, Note_off_c, 0, 81, 64
2, 6528, Note_on_c, 0, 79, 92
2, 6576, Note_off_c, 0, 79, 64
2, 6576, Note_on_c, 0, 76, 92
2, 6624, Note_off_c, 0, 76, 64
2, 6624, Note_on_c, 0, 71, 92
2, 6672, Note_off_c, 0, 71, 64
2, 6672, Note_on_c, 0, 67, 92
2, 6720, Note_off_c, 0, 67, 64
2, 6720, Note_on_c, 0, 76, 92
2, 6768, Note_off_c, 0, 76, 64
2, 6768, Note_on_c, 0, 71, 92
2, 6816, Note_off_c, 0, 71, 64
2, 6816, Note_on_c, 0, 67, 92
2, 6864, Note_off_c, 0, 67, 64
2, 6864, Note_on_c, 0, 64, 92
2, 6912, Note_off_c, 0, 64, 64
2, 6912, Note_on_c, 0, 59, 92
2, 6960, Note_off_c, 0, 59, 64
2, 6960, Note_on_c, 0, 64, 92
2, 7008, Note_off_c, 0, 64, 64
2, 7008, Note_on_c, 0, 67, 92
2, 7056, Note_off_c, 0, 67, 64
2, 7056, Note_on_c, 0, 71, 92
2, 7104, Note_off_c, 0, 71, 64
2, 7104, Note_on_c, 0, 67, 92
2, 7152, Note_off_c, 0, 67, 64
2, 7152, Note_on_c, 0, 64, 92
2, 7200, Note_off_c, 0, 64, 64
2, 7200, Note_on_c, 0, 59, 92
2, 7248, Note_off_c, 0, 59, 64
2, 7248, Note_on_c, 0, 55, 92
2, 7296, Note_off_c, 0, 55, 64
2, 7296, Note_on_c, 0, 52, 92
2, 7344, Note_off_c, 0, 52, 64
2, 7344, Note_on_c, 0, 55, 92
2, 7392, Note_off_c, 0, 55, 64
2, 7392, Note_on_c, 0, 59, 92
2, 7440, Note_off_c, 0, 59, 64
2, 7440, Note_on_c, 0, 64, 92
2, 7488, Note_off_c, 0, 64, 64
2, 7488, Note_on_c, 0, 59, 92
2, 7536, Note_off_c, 0, 59, 64
2, 7536, Note_on_c, 0, 55, 92
2, 7584, Note_off_c, 0, 55, 64
2, 7584, Note_on_c, 0, 52, 92
2, 7632, Note_off_c, 0, 52, 64
2, 7632, Note_on_c, 0, 47, 92
2, 7680, Note_off_c, 0, 47, 64
2, 7680, Note_on_c, 0, 43, 92
2, 7728, Note_off_c, 0, 43, 64
2, 7728, Note_on_c, 0, 47, 92
2, 7776, Note_off_c, 0, 47, 64
2, 7776, Note_on_c, 0, 52, 92
2, 7824, Note_off_c, 0, 52, 64
2, 7824, Note_on_c, 0, 55, 92
2, 7872, Note_off_c, 0, 55, 64
2, 7872, Note_on_c, 0, 52, 92
2, 7920, Note_off_c, 0, 52, 64
2, 7920, Note_on_c, 0, 47, 92
2, 7968, Note_off_c, 0, 47, 64
2, 7968, Note_on_c, 0, 43, 92
2, 8016, Note_off_c, 0, 43, 64
2, 8016, Note_on_c, 0, 40, 92
2, 8064, Note_off_c, 0, 40, 64
2, 8064, Note_on_c, 0, 43, 92
2, 8112, Note_off_c, 0, 43, 64
2, 8112, Note_on_c, 0, 47, 92
2, 8160, Note_off_c, 0, 47, 64
2, 8160, Note_on_c, 0, 52, 92
2, 8208, Note_off_c, 0, 52, 64
2, 8208, Note_on_c, 0, 55, 92
2, 8256, Note_off_c, 0, 55, 64
2, 8256, Note_on_c, 0, 59, 92
2, 8304, Note_off_c, 0, 59, 64
2, 8304, Note_on_c, 0, 55, 92
2, 8352, Note_off_c, 0, 55, 64
2, 8352, Note_on_c, 0, 52, 92
2, 8400, Note_off_c, 0, 52, 64
2, 8400, Note_on_c, 0, 47, 92
2, 8448, Note_off_c, 0, 47, 64
2, 8448, Note_on_c, 0, 52, 92
2, 8496, Note_off_c, 0, 52, 64
2, 8496, Note_on_c, 0, 55, 92
2, 8544, Note_off_c, 0, 55, 64
2, 8544, Note_on_c, 0, 59, 92
2, 8592, Note_off_c, 0, 59, 64
2, 8592, Note_on_c, 0, 64, 92
2, 8640, Note_off_c, 0, 64, 64
2, 8640, Note_on_c, 0, 67, 92
2, 8688, Note_off_c, 0, 67, 64
2, 8688, Note_on_c, 0, 64, 92
2, 8736, Note_off_c, 0, 64, 64
2, 8928, Note_on_c, 0, 64, 92
2, 8976, Note_off_c, 0, 64, 64
2, 8976, Note_on_c, 0, 67, 92
2, 9024, Note_off_c, 0, 67, 64
2, 9024, Note_on_c, 0, 64, 92
2, 9072, Note_off_c, 0, 64, 64
2, 9072, Note_on_c, 0, 59, 92
2, 9120, Note_off_c, 0, 59, 64
2, 9216, Note_on_c, 0, 67, 92
2, 9216, Note_on_c, 0, 70, 92
2, 9216, Note_on_c, 0, 76, 92
2, 9792, Note_off_c, 0, 67, 64
2, 9792, Note_on_c, 0, 67, 92
2, 9984, Note_off_c, 0, 67, 64
2, 9984, Note_off_c, 0, 76, 64
2, 9984, Note_off_c, 0, 70, 64
2, 9984, Note_on_c, 0, 65, 92
2, 9984, Note_on_c, 0, 69, 92
2, 9984, Note_on_c, 0, 74, 92
2, 10176, Note_off_c, 0, 74, 64
2, 10176, Note_off_c, 0, 69, 64
2, 10176, Note_off_c, 0, 65, 64
2, 10560, Note_on_c, 0, 64, 92
2, 10608, Note_off_c, 0, 64, 64
2, 10608, Note_on_c, 0, 65, 92
2, 10656, Note_off_c, 0, 65, 64
2, 10656, Note_on_c, 0, 67, 92
2, 10704, Note_off_c, 0, 67, 64
2, 10704, Note_on_c, 0, 69, 92
2, 10752, Note_off_c, 0, 69, 64
2, 10752, Note_on_c, 0, 62, 92
2, 10800, Note_off_c, 0, 62, 64
2, 10800, Note_on_c, 0, 64, 92
2, 10848, Note_off_c, 0, 64, 64
2, 10848, Note_on_c, 0, 65, 92
2, 10896, Note_off_c, 0, 65, 64
2, 10896, Note_on_c, 0, 67, 92
2, 10944, Note_off_c, 0, 67, 64
2, 10944, Note_on_c, 0, 69, 92
2, 10992, Note_off_c, 0, 69, 64
2, 10992, Note_on_c, 0, 71, 92
2, 11040, Note_off_c, 0, 71, 64
2, 11040, Note_on_c, 0, 73, 92
2, 11088, Note_off_c, 0, 73, 64
2, 11088, Note_on_c, 0, 69, 92
2, 11136, Note_off_c, 0, 69, 64
2, 11136, Note_on_c, 0, 74, 92
2, 11184, Note_off_c, 0, 74, 64
2, 11184, Note_on_c, 0, 69, 92
2, 11232, Note_off_c, 0, 69, 64
2, 11232, Note_on_c, 0, 65, 92
2, 11280, Note_off_c, 0, 65, 64
2, 11280, Note_on_c, 0, 62, 92
2, 11328, Note_off_c, 0, 62, 64
2, 11328, Note_on_c, 0, 69, 92
2, 11376, Note_off_c, 0, 69, 64
2, 11376, Note_on_c, 0, 65, 92
2, 11424, Note_off_c, 0, 65, 64
2, 11424, Note_on_c, 0, 62, 92
2, 11472, Note_off_c, 0, 62, 64
2, 11472, Note_on_c, 0, 57, 92
2, 11520, Note_off_c, 0, 57, 64
2, 11520, Note_on_c, 0, 77, 92
2, 11568, Note_off_c, 0, 77, 64
2, 11568, Note_on_c, 0, 74, 92
2, 11616, Note_off_c, 0, 74, 64
2, 11616, Note_on_c, 0, 69, 92
2, 11664, Note_off_c, 0, 69, 64
2, 11664, Note_on_c, 0, 65, 92
2, 11712, Note_off_c, 0, 65, 64
2, 11712, Note_on_c, 0, 74, 92
2, 11760, Note_off_c, 0, 74, 64
2, 11760, Note_on_c, 0, 69, 92
2, 11808, Note_off_c, 0, 69, 64
2, 11808, Note_on_c, 0, 65, 92
2, 11856, Note_off_c, 0, 65, 64
2, 11856, Note_on_c, 0, 62, 92
2, 11904, Note_off_c, 0, 62, 64
2, 11904, Note_on_c, 0, 65, 92
2, 11952, Note_off_c, 0, 65, 64
2, 11952, Note_on_c, 0, 62, 92
2, 12000, Note_off_c, 0, 62, 64
2, 12288, Note_on_c, 0, 65, 92
2, 12288, Note_on_c, 0, 67, 92
2, 12288, Note_on_c, 0, 74, 92
2, 12864, Note_off_c, 0, 65, 64
2, 12864, Note_on_c, 0, 65, 92
2, 13056, Note_off_c, 0, 65, 64
2, 13056, Note_off_c, 0, 74, 64
2, 13056, Note_off_c, 0, 67, 64
2, 13056, Note_on_c, 0, 64, 92
2, 13056, Note_on_c, 0, 67, 92
2, 13056, Note_on_c, 0, 72, 92
2, 13248, Note_off_c, 0, 72, 64
2, 13248, Note_off_c, 0, 67, 64
2, 13248, Note_off_c, 0, 64, 64
2, 13632, Note_on_c, 0, 62, 92
2, 13680, Note_off_c, 0, 62, 64
2, 13680, Note_on_c, 0, 64, 92
2, 13728, Note_off_c, 0, 64, 64
2, 13728, Note_on_c, 0, 65, 92
2, 13776, Note_off_c, 0, 65, 64
2, 13776, Note_on_c, 0, 67, 92
2, 13824, Note_off_c, 0, 67, 64
2, 13824, Note_on_c, 0, 60, 92
2, 13872, Note_off_c, 0, 60, 64
2, 13872, Note_on_c, 0, 72, 92
2, 13920, Note_off_c, 0, 72, 64
2, 13920, Note_on_c, 0, 71, 92
2, 13968, Note_off_c, 0, 71, 64
2, 13968, Note_on_c, 0, 69, 92
2, 14016, Note_off_c, 0, 69, 64
2, 14016, Note_on_c, 0, 67, 92
2, 14064, Note_off_c, 0, 67, 64
2, 14064, Note_on_c, 0, 65, 92
2, 14112, Note_off_c, 0, 65, 64
2, 14112, Note_on_c, 0, 64, 92
2, 14160, Note_off_c, 0, 64, 64
2, 14160, Note_on_c, 0, 62, 92
2, 14208, Note_off_c, 0, 62, 64
2, 14208, Note_on_c, 0, 60, 92
2, 14256, Note_off_c, 0, 60, 64
2, 14256, Note_on_c, 0, 79, 92
2, 14304, Note_off_c, 0, 79, 64
2, 14304, Note_on_c, 0, 77, 92
2, 14352, Note_off_c, 0, 77, 64
2, 14352, Note_on_c, 0, 76, 92
2, 14400, Note_off_c, 0, 76, 64
2, 14400, Note_on_c, 0, 74, 92
2, 14448, Note_off_c, 0, 74, 64
2, 14448, Note_on_c, 0, 72, 92
2, 14496, Note_off_c, 0, 72, 64
2, 14496, Note_on_c, 0, 71, 92
2, 14544, Note_off_c, 0, 71, 64
2, 14544, Note_on_c, 0, 69, 92
2, 14592, Note_off_c, 0, 69, 64
2, 14592, Note_on_c, 0, 67, 92
2, 14640, Note_off_c, 0, 67, 64
2, 14640, Note_on_c, 0, 84, 92
2, 14688, Note_off_c, 0, 84, 64
2, 14688, Note_on_c, 0, 83, 92
2, 14736, Note_off_c, 0, 83, 64
2, 14736, Note_on_c, 0, 81, 92
2, 14784, Note_off_c, 0, 81, 64
2, 14784, Note_on_c, 0, 79, 92
2, 14832, Note_off_c, 0, 79, 64
2, 14832, Note_on_c, 0, 77, 92
2, 14880, Note_off_c, 0, 77, 64
2, 14880, Note_on_c, 0, 76, 92
2, 14928, Note_off_c, 0, 76, 64
2, 14928, Note_on_c, 0, 74, 92
2, 14976, Note_off_c, 0, 74, 64
2, 14976, Note_on_c, 0, 72, 92
2, 15024, Note_off_c, 0, 72, 64
2, 15024, Note_on_c, 0, 72, 92
2, 15072, Note_off_c, 0, 72, 64
2, 15072, Note_on_c, 0, 71, 92
2, 15120, Note_off_c, 0, 71, 64
2, 15120, Note_on_c, 0, 69, 92
2, 15168, Note_off_c, 0, 69, 64
2, 15168, Note_on_c, 0, 67, 92
2, 15216, Note_off_c, 0, 67, 64
2, 15216, Note_on_c, 0, 65, 92
2, 15264, Note_off_c, 0, 65, 64
2, 15264, Note_on_c, 0, 64, 92
2, 15312, Note_off_c, 0, 64, 64
2, 15312, Note_on_c, 0, 62, 92
2, 15360, Note_off_c, 0, 62, 64
2, 15360, Note_on_c, 0, 60, 92
2, 15744, Note_off_c, 0, 60, 64
2, 15744, Note_on_c, 0, 72, 92
2, 15744, Note_on_c, 0, 69, 92
2, 15744, Note_on_c, 0, 63, 92
2, 16128, Note_off_c, 0, 63, 64
2, 16128, Note_off_c, 0, 69, 64
2, 16128, Note_off_c, 0, 72, 64
2, 16128, Note_on_c, 0, 62, 92
2, 16128, Note_on_c, 0, 67, 92
2, 16128, Note_on_c, 0, 72, 92
2, 16512, Note_off_c, 0, 72, 64
2, 16512, Note_on_c, 0, 71, 92
2, 16704, Note_off_c, 0, 67, 64
2, 16704, Note_on_c, 0, 65, 92
2, 16896, Note_off_c, 0, 65, 64
2, 16896, Note_off_c, 0, 71, 64
2, 16896, Note_off_c, 0, 62, 64
2, 16896, Note_on_c, 0, 72, 92
2, 16896, Note_on_c, 0, 60, 92
2, 16896, Note_on_c, 0, 64, 92
2, 16992, Note_off_c, 0, 72, 64
2, 16992, Note_on_c, 0, 67, 92
2, 17088, Note_off_c, 0, 67, 64
2, 17088, Note_off_c, 0, 64, 64
2, 17088, Note_off_c, 0, 60, 64
2, 17088, Note_on_c, 0, 64, 92
2, 17184, Note_off_c, 0, 64, 64
2, 17184, Note_on_c, 0, 60, 92
2, 17280, Note_off_c, 0, 60, 64
2, 17280, Note_on_c, 0, 64, 92
2, 17376, Note_off_c, 0, 64, 64
2, 17376, Note_on_c, 0, 67, 92
2, 17472, Note_off_c, 0, 67, 64
2, 17472, Note_on_c, 0, 72, 92
2, 17568, Note_off_c, 0, 72, 64
2, 17568, Note_on_c, 0, 76, 92
2, 17664, Note_off_c, 0, 76, 64
2, 17664, Note_on_c, 0, 74, 92
2, 17760, Note_off_c, 0, 74, 64
2, 17760, Note_on_c, 0, 71, 92
2, 17856, Note_off_c, 0, 71, 64
2, 17856, Note_on_c, 0, 67, 92
2, 17952, Note_off_c, 0, 67, 64
2, 17952, Note_on_c, 0, 62, 92
2, 18048, Note_off_c, 0, 62, 64
2, 18048, Note_on_c, 0, 67, 92
2, 18144, Note_off_c, 0, 67, 64
2, 18144, Note_on_c, 0, 62, 92
2, 18240, Note_off_c, 0, 62, 64
2, 18240, Note_on_c, 0, 59, 92
2, 18336, Note_off_c, 0, 59, 64
2, 18336, Note_on_c, 0, 55, 92
2, 18432, Note_off_c, 0, 55, 64
2, 18432, Note_on_c, 0, 74, 92
2, 18528, Note_off_c, 0, 74, 64
2, 18528, Note_on_c, 0, 71, 92
2, 18624, Note_off_c, 0, 71, 64
2, 18624, Note_on_c, 0, 67, 92
2, 18720, Note_off_c, 0, 67, 64
2, 18720, Note_on_c, 0, 62, 92
2, 18816, Note_off_c, 0, 62, 64
2, 18816, Note_on_c, 0, 67, 92
2, 18912, Note_off_c, 0, 67, 64
2, 18912, Note_on_c, 0, 71, 92
2, 19008, Note_off_c, 0, 71, 64
2, 19008, Note_on_c, 0, 74, 92
2, 19104, Note_off_c, 0, 74, 64
2, 19104, Note_on_c, 0, 77, 92
2, 19200, Note_off_c, 0, 77, 64
2, 19200, Note_on_c, 0, 76, 92
2, 19296, Note_off_c, 0, 76, 64
2, 19296, Note_on_c, 0, 72, 92
2, 19392, Note_off_c, 0, 72, 64
2, 19392, Note_on_c, 0, 67, 92
2, 19488, Note_off_c, 0, 67, 64
2, 19488, Note_on_c, 0, 64, 92
2, 19584, Note_off_c, 0, 64, 64
2, 19584, Note_on_c, 0, 72, 92
2, 19680, Note_off_c, 0, 72, 64
2, 19680, Note_on_c, 0, 67, 92
2, 19776, Note_off_c, 0, 67, 64
2, 19776, Note_on_c, 0, 64, 92
2, 19872, Note_off_c, 0, 64, 64
2, 19872, Note_on_c, 0, 60, 92
2, 19968, Note_off_c, 0, 60, 64
2, 19968, Note_on_c, 0, 84, 92
2, 20064, Note_off_c, 0, 84, 64
2, 20064, Note_on_c, 0, 79, 92
2, 20160, Note_off_c, 0, 79, 64
2, 20160, Note_on_c, 0, 76, 92
2, 20256, Note_off_c, 0, 76, 64
2, 20256, Note_on_c, 0, 72, 92
2, 20352, Note_off_c, 0, 72, 64
2, 20352, Note_on_c, 0, 74, 92
2, 20448, Note_off_c, 0, 74, 64
2, 20448, Note_on_c, 0, 78, 92
2, 20544, Note_off_c, 0, 78, 64
2, 20544, Note_on_c, 0, 81, 92
2, 20640, Note_off_c, 0, 81, 64
2, 20640, Note_on_c, 0, 84, 92
2, 20736, Note_off_c, 0, 84, 64
2, 20736, Note_on_c, 0, 83, 92
2, 20832, Note_off_c, 0, 83, 64
2, 20832, Note_on_c, 0, 79, 92
2, 20928, Note_off_c, 0, 79, 64
2, 20928, Note_on_c, 0, 74, 92
2, 21024, Note_off_c, 0, 74, 64
2, 21024, Note_on_c, 0, 71, 92
2, 21120, Note_off_c, 0, 71, 64
2, 21120, Note_on_c, 0, 79, 92
2, 21216, Note_off_c, 0, 79, 64
2, 21216, Note_on_c, 0, 74, 92
2, 21312, Note_off_c, 0, 74, 64
2, 21312, Note_on_c, 0, 71, 92
2, 21408, Note_off_c, 0, 71, 64
2, 21408, Note_on_c, 0, 67, 92
2, 21504, Note_off_c, 0, 67, 64
2, 21504, Note_on_c, 0, 79, 92
2, 21600, Note_off_c, 0, 79, 64
2, 21600, Note_on_c, 0, 74, 92
2, 21696, Note_off_c, 0, 74, 64
2, 21696, Note_on_c, 0, 71, 92
2, 21792, Note_off_c, 0, 71, 64
2, 21792, Note_on_c, 0, 67, 92
2, 21888, Note_off_c, 0, 67, 64
2, 21888, Note_on_c, 0, 69, 92
2, 21984, Note_off_c, 0, 69, 64
2, 21984, Note_on_c, 0, 73, 92
2, 22080, Note_off_c, 0, 73, 64
2, 22080, Note_on_c, 0, 76, 92
2, 22176, Note_off_c, 0, 76, 64
2, 22176, Note_on_c, 0, 79, 92
2, 22272, Note_off_c, 0, 79, 64
2, 22272, Note_on_c, 0, 77, 92
2, 22368, Note_off_c, 0, 77, 64
2, 22368, Note_on_c, 0, 74, 92
2, 22464, Note_off_c, 0, 74, 64
2, 22464, Note_on_c, 0, 69, 92
2, 22560, Note_off_c, 0, 69, 64
2, 22560, Note_on_c, 0, 65, 92
2, 22656, Note_off_c, 0, 65, 64
2, 22656, Note_on_c, 0, 74, 92
2, 22752, Note_off_c, 0, 74, 64
2, 22752, Note_on_c, 0, 69, 92
2, 22848, Note_off_c, 0, 69, 64
2, 22848, Note_on_c, 0, 65, 92
2, 22944, Note_off_c, 0, 65, 64
2, 22944, Note_on_c, 0, 62, 92
2, 23040, Note_off_c, 0, 62, 64
2, 23040, Note_on_c, 0, 74, 92
2, 23136, Note_off_c, 0, 74, 64
2, 23136, Note_on_c, 0, 69, 92
2, 23232, Note_off_c, 0, 69, 64
2, 23232, Note_on_c, 0, 65, 92
2, 23328, Note_off_c, 0, 65, 64
2, 23328, Note_on_c, 0, 62, 92
2, 23424, Note_off_c, 0, 62, 64
2, 23424, Note_on_c, 0, 64, 92
2, 23520, Note_off_c, 0, 64, 64
2, 23520, Note_on_c, 0, 68, 92
2, 23616, Note_off_c, 0, 68, 64
2, 23616, Note_on_c, 0, 71, 92
2, 23712, Note_off_c, 0, 71, 64
2, 23712, Note_on_c, 0, 74, 92
2, 23808, Note_off_c, 0, 74, 64
2, 23808, Note_on_c, 0, 72, 92
2, 23904, Note_off_c, 0, 72, 64
2, 23904, Note_on_c, 0, 69, 92
2, 24000, Note_off_c, 0, 69, 64
2, 24000, Note_on_c, 0, 64, 92
2, 24096, Note_off_c, 0, 64, 64
2, 24096, Note_on_c, 0, 60, 92
2, 24192, Note_off_c, 0, 60, 64
2, 24192, Note_on_c, 0, 69, 92
2, 24288, Note_off_c, 0, 69, 64
2, 24288, Note_on_c, 0, 64, 92
2, 24384, Note_off_c, 0, 64, 64
2, 24576, Note_on_c, 0, 69, 92
2, 24672, Note_off_c, 0, 69, 64
2, 24672, Note_on_c, 0, 64, 92
2, 24768, Note_off_c, 0, 64, 64
2, 25152, Note_on_c, 0, 66, 92
2, 25248, Note_off_c, 0, 66, 64
2, 25248, Note_on_c, 0, 69, 92
2, 25344, Note_off_c, 0, 69, 64
2, 25344, Note_on_c, 0, 67, 92
2, 25440, Note_off_c, 0, 67, 64
2, 25440, Note_on_c, 0, 64, 92
2, 25536, Note_off_c, 0, 64, 64
2, 25728, Note_on_c, 0, 64, 92
2, 25824, Note_off_c, 0, 64, 64
2, 25824, Note_on_c, 0, 59, 92
2, 25920, Note_off_c, 0, 59, 64
2, 26112, Note_on_c, 0, 76, 92
2, 26208, Note_off_c, 0, 76, 64
2, 26208, Note_on_c, 0, 71, 92
2, 26304, Note_off_c, 0, 71, 64
2, 26304, Note_on_c, 0, 67, 92
2, 26400, Note_off_c, 0, 67, 64
2, 26400, Note_on_c, 0, 64, 92
2, 26496, Note_off_c, 0, 64, 64
2, 26496, Note_on_c, 0, 66, 92
2, 26592, Note_off_c, 0, 66, 64
2, 26592, Note_on_c, 0, 70, 92
2, 26688, Note_off_c, 0, 70, 64
2, 26688, Note_on_c, 0, 73, 92
2, 26784, Note_off_c, 0, 73, 64
2, 26784, Note_on_c, 0, 76, 92
2, 26880, Note_off_c, 0, 76, 64
2, 26880, Note_on_c, 0, 74, 92
2, 26976, Note_off_c, 0, 74, 64
2, 26976, Note_on_c, 0, 71, 92
2, 27072, Note_off_c, 0, 71, 64
2, 27072, Note_on_c, 0, 66, 92
2, 27168, Note_off_c, 0, 66, 64
2, 27168, Note_on_c, 0, 62, 92
2, 27264, Note_off_c, 0, 62, 64
2, 27264, Note_on_c, 0, 71, 92
2, 27360, Note_off_c, 0, 71, 64
2, 27360, Note_on_c, 0, 66, 92
2, 27456, Note_off_c, 0, 66, 64
2, 27456, Note_on_c, 0, 62, 92
2, 27552, Note_off_c, 0, 62, 64
2, 27552, Note_on_c, 0, 59, 92
2, 27648, Note_off_c, 0, 59, 64
2, 27648, Note_on_c, 0, 71, 92
2, 27744, Note_off_c, 0, 71, 64
2, 27744, Note_on_c, 0, 66, 92
2, 27840, Note_off_c, 0, 66, 64
2, 27840, Note_on_c, 0, 62, 92
2, 27936, Note_off_c, 0, 62, 64
2, 27936, Note_on_c, 0, 59, 92
2, 28032, Note_off_c, 0, 59, 64
2, 28032, Note_on_c, 0, 61, 92
2, 28128, Note_off_c, 0, 61, 64
2, 28128, Note_on_c, 0, 65, 92
2, 28224, Note_off_c, 0, 65, 64
2, 28224, Note_on_c, 0, 68, 92
2, 28320, Note_off_c, 0, 68, 64
2, 28320, Note_on_c, 0, 71, 92
2, 28416, Note_off_c, 0, 71, 64
2, 28416, Note_on_c, 0, 69, 92
2, 28512, Note_off_c, 0, 69, 64
2, 28512, Note_on_c, 0, 66, 92
2, 28608, Note_off_c, 0, 66, 64
2, 28800, Note_on_c, 0, 66, 92
2, 28896, Note_off_c, 0, 66, 64
2, 28896, Note_on_c, 0, 61, 92
2, 28992, Note_off_c, 0, 61, 64
2, 29184, Note_on_c, 0, 78, 92
2, 29280, Note_off_c, 0, 78, 64
2, 29280, Note_on_c, 0, 73, 92
2, 29376, Note_off_c, 0, 73, 64
2, 29376, Note_on_c, 0, 69, 92
2, 29472, Note_off_c, 0, 69, 64
2, 29472, Note_on_c, 0, 66, 92
2, 29568, Note_off_c, 0, 66, 64
2, 29568, Note_on_c, 0, 68, 92
2, 29664, Note_off_c, 0, 68, 64
2, 29664, Note_on_c, 0, 71, 92
2, 29760, Note_off_c, 0, 71, 64
2, 29760, Note_on_c, 0, 76, 92
2, 29856, Note_off_c, 0, 76, 64
2, 29856, Note_on_c, 0, 83, 92
2, 29952, Note_off_c, 0, 83, 64
2, 29952, Note_on_c, 0, 81, 92
2, 30048, Note_off_c, 0, 81, 64
2, 30048, Note_on_c, 0, 76, 92
2, 30144, Note_off_c, 0, 76, 64
2, 30144, Note_on_c, 0, 73, 92
2, 30240, Note_off_c, 0, 73, 64
2, 30240, Note_on_c, 0, 69, 92
2, 30336, Note_off_c, 0, 69, 64
2, 30336, Note_on_c, 0, 69, 92
2, 30432, Note_off_c, 0, 69, 64
2, 30432, Note_on_c, 0, 64, 92
2, 30528, Note_off_c, 0, 64, 64
2, 30528, Note_on_c, 0, 61, 92
2, 30624, Note_off_c, 0, 61, 64
2, 30624, Note_on_c, 0, 57, 92
2, 30720, Note_off_c, 0, 57, 64
2, 30720, Note_on_c, 0, 69, 92
2, 30816, Note_off_c, 0, 69, 64
2, 30816, Note_on_c, 0, 64, 92
2, 30912, Note_off_c, 0, 64, 64
2, 30912, Note_on_c, 0, 61, 92
2, 31008, Note_off_c, 0, 61, 64
2, 31008, Note_on_c, 0, 57, 92
2, 31104, Note_off_c, 0, 57, 64
2, 31104, Note_on_c, 0, 61, 92
2, 31200, Note_off_c, 0, 61, 64
2, 31200, Note_on_c, 0, 64, 92
2, 31296, Note_off_c, 0, 64, 64
2, 31296, Note_on_c, 0, 69, 92
2, 31392, Note_off_c, 0, 69, 64
2, 31392, Note_on_c, 0, 76, 92
2, 31488, Note_off_c, 0, 76, 64
2, 31488, Note_on_c, 0, 74, 92
2, 31584, Note_off_c, 0, 74, 64
2, 31584, Note_on_c, 0, 69, 92
2, 31680, Note_off_c, 0, 69, 64
2, 31680, Note_on_c, 0, 66, 92
2, 31776, Note_off_c, 0, 66, 64
2, 31776, Note_on_c, 0, 62, 92
2, 31872, Note_off_c, 0, 62, 64
2, 32256, Note_on_c, 0, 74, 92
2, 32352, Note_off_c, 0, 74, 64
2, 32352, Note_on_c, 0, 69, 92
2, 32448, Note_off_c, 0, 69, 64
2, 32448, Note_on_c, 0, 66, 92
2, 32544, Note_off_c, 0, 66, 64
2, 32544, Note_on_c, 0, 62, 92
2, 32640, Note_off_c, 0, 62, 64
2, 32640, Note_on_c, 0, 66, 92
2, 32736, Note_off_c, 0, 66, 64
2, 32736, Note_on_c, 0, 69, 92
2, 32832, Note_off_c, 0, 69, 64
2, 32832, Note_on_c, 0, 74, 92
2, 32928, Note_off_c, 0, 74, 64
2, 32928, Note_on_c, 0, 81, 92
2, 33024, Note_off_c, 0, 81, 64
2, 33024, Note_on_c, 0, 79, 92
2, 33120, Note_off_c, 0, 79, 64
2, 33120, Note_on_c, 0, 74, 92
2, 33216, Note_off_c, 0, 74, 64
2, 33216, Note_on_c, 0, 71, 92
2, 33312, Note_off_c, 0, 71, 64
2, 33312, Note_on_c, 0, 67, 92
2, 33408, Note_off_c, 0, 67, 64
2, 33408, Note_on_c, 0, 67, 92
2, 33504, Note_off_c, 0, 67, 64
2, 33504, Note_on_c, 0, 62, 92
2, 33600, Note_off_c, 0, 62, 64
2, 33792, Note_on_c, 0, 67, 92
2, 33888, Note_off_c, 0, 67, 64
2, 33888, Note_on_c, 0, 62, 92
2, 33984, Note_off_c, 0, 62, 64
2, 34368, Note_on_c, 0, 64, 92
2, 34464, Note_off_c, 0, 64, 64
2, 34464, Note_on_c, 0, 67, 92
2, 34560, Note_off_c, 0, 67, 64
2, 34560, Note_on_c, 0, 65, 92
2, 34656, Note_off_c, 0, 65, 64
2, 34656, Note_on_c, 0, 62, 92
2, 34752, Note_off_c, 0, 62, 64
2, 35328, Note_on_c, 0, 74, 92
2, 35424, Note_off_c, 0, 74, 64
2, 35424, Note_on_c, 0, 69, 92
2, 35520, Note_off_c, 0, 69, 64
2, 35520, Note_on_c, 0, 65, 92
2, 35616, Note_off_c, 0, 65, 64
2, 35616, Note_on_c, 0, 62, 92
2, 35712, Note_off_c, 0, 62, 64
2, 35712, Note_on_c, 0, 65, 92
2, 35808, Note_off_c, 0, 65, 64
2, 35808, Note_on_c, 0, 69, 92
2, 35904, Note_off_c, 0, 69, 64
2, 35904, Note_on_c, 0, 74, 92
2, 36000, Note_off_c, 0, 74, 64
2, 36000, Note_on_c, 0, 77, 92
2, 36096, Note_off_c, 0, 77, 64
2, 36096, Note_on_c, 0, 68, 92
2, 36192, Note_off_c, 0, 68, 64
2, 36192, Note_on_c, 0, 66, 92
2, 36288, Note_off_c, 0, 66, 64
2, 36288, Note_on_c, 0, 64, 92
2, 36384, Note_off_c, 0, 64, 64
2, 36384, Note_on_c, 0, 68, 92
2, 36480, Note_off_c, 0, 68, 64
2, 36480, Note_on_c, 0, 69, 92
2, 36576, Note_off_c, 0, 69, 64
2, 36576, Note_on_c, 0, 72, 92
2, 36672, Note_off_c, 0, 72, 64
2, 36672, Note_on_c, 0, 71, 92
2, 36768, Note_off_c, 0, 71, 64
2, 36768, Note_on_c, 0, 69, 92
2, 36864, Note_off_c, 0, 69, 64
2, 36864, Note_on_c, 0, 68, 92
2, 36960, Note_off_c, 0, 68, 64
2, 36960, Note_on_c, 0, 76, 92
2, 37056, Note_off_c, 0, 76, 64
2, 37056, Note_on_c, 0, 74, 92
2, 37152, Note_off_c, 0, 74, 64
2, 37152, Note_on_c, 0, 72, 92
2, 37248, Note_off_c, 0, 72, 64
2, 37248, Note_on_c, 0, 71, 92
2, 37344, Note_off_c, 0, 71, 64
2, 37344, Note_on_c, 0, 72, 92
2, 37440, Note_off_c, 0, 72, 64
2, 37440, Note_on_c, 0, 71, 92
2, 37536, Note_off_c, 0, 71, 64
2, 37536, Note_on_c, 0, 69, 92
2, 37632, Note_off_c, 0, 69, 64
2, 37632, Note_on_c, 0, 68, 92
2, 37728, Note_off_c, 0, 68, 64
2, 37728, Note_on_c, 0, 76, 92
2, 37824, Note_off_c, 0, 76, 64
2, 37824, Note_on_c, 0, 74, 92
2, 37920, Note_off_c, 0, 74, 64
2, 37920, Note_on_c, 0, 72, 92
2, 38016, Note_off_c, 0, 72, 64
2, 38016, Note_on_c, 0, 71, 92
2, 38112, Note_off_c, 0, 71, 64
2, 38112, Note_on_c, 0, 72, 92
2, 38208, Note_off_c, 0, 72, 64
2, 38208, Note_on_c, 0, 71, 92
2, 38304, Note_off_c, 0, 71, 64
2, 38304, Note_on_c, 0, 69, 92
2, 38400, Note_off_c, 0, 69, 64
2, 38400, Note_on_c, 0, 68, 92
2, 38496, Note_off_c, 0, 68, 64
2, 38496, Note_on_c, 0, 69, 92
2, 38592, Note_off_c, 0, 69, 64
2, 38592, Note_on_c, 0, 71, 92
2, 38688, Note_off_c, 0, 71, 64
2, 38688, Note_on_c, 0, 69, 92
2, 38784, Note_off_c, 0, 69, 64
2, 38784, Note_on_c, 0, 68, 92
2, 38880, Note_off_c, 0, 68, 64
2, 38880, Note_on_c, 0, 71, 92
2, 38976, Note_off_c, 0, 71, 64
2, 38976, Note_on_c, 0, 69, 92
2, 39072, Note_off_c, 0, 69, 64
2, 39072, Note_on_c, 0, 68, 92
2, 39168, Note_off_c, 0, 68, 64
2, 39168, Note_on_c, 0, 69, 92
2, 39264, Note_off_c, 0, 69, 64
2, 39264, Note_on_c, 0, 71, 92
2, 39360, Note_off_c, 0, 71, 64
2, 39360, Note_on_c, 0, 72, 92
2, 39456, Note_off_c, 0, 72, 64
2, 39456, Note_on_c, 0, 71, 92
2, 39552, Note_off_c, 0, 71, 64
2, 39552, Note_on_c, 0, 69, 92
2, 39648, Note_off_c, 0, 69, 64
2, 39648, Note_on_c, 0, 72, 92
2, 39744, Note_off_c, 0, 72, 64
2, 39744, Note_on_c, 0, 71, 92
2, 39840, Note_off_c, 0, 71, 64
2, 39840, Note_on_c, 0, 69, 92
2, 39936, Note_off_c, 0, 69, 64
2, 39936, Note_on_c, 0, 68, 92
2, 40032, Note_off_c, 0, 68, 64
2, 40032, Note_on_c, 0, 71, 92
2, 40128, Note_off_c, 0, 71, 64
2, 40128, Note_on_c, 0, 72, 92
2, 40224, Note_off_c, 0, 72, 64
2, 40224, Note_on_c, 0, 74, 92
2, 40320, Note_off_c, 0, 74, 64
2, 40320, Note_on_c, 0, 76, 92
2, 40416, Note_off_c, 0, 76, 64
2, 40416, Note_on_c, 0, 68, 92
2, 40512, Note_off_c, 0, 68, 64
2, 40512, Note_on_c, 0, 69, 92
2, 40608, Note_off_c, 0, 69, 64
2, 40608, Note_on_c, 0, 71, 92
2, 40704, Note_off_c, 0, 71, 64
2, 40704, Note_on_c, 0, 69, 92
2, 40896, Note_off_c, 0, 69, 64
2, 40896, Note_on_c, 0, 71, 92
2, 40992, Note_off_c, 0, 71, 64
2, 40992, Note_on_c, 0, 72, 92
2, 41088, Note_off_c, 0, 72, 64
2, 41088, Note_on_c, 0, 71, 92
2, 41376, Note_off_c, 0, 71, 64
2, 41376, Note_on_c, 0, 69, 92
2, 41472, Note_off_c, 0, 69, 64
2, 41472, Note_on_c, 0, 68, 92
2, 41568, Note_off_c, 0, 68, 64
2, 41568, Note_on_c, 0, 64, 92
2, 41664, Note_off_c, 0, 64, 64
2, 41664, Note_on_c, 0, 69, 92
2, 41760, Note_off_c, 0, 69, 64
2, 41760, Note_on_c, 0, 64, 92
2, 41856, Note_off_c, 0, 64, 64
2, 41856, Note_on_c, 0, 71, 92
2, 41952, Note_off_c, 0, 71, 64
2, 41952, Note_on_c, 0, 64, 92
2, 42048, Note_off_c, 0, 64, 64
2, 42048, Note_on_c, 0, 72, 92
2, 42144, Note_off_c, 0, 72, 64
2, 42144, Note_on_c, 0, 64, 92
2, 42240, Note_off_c, 0, 64, 64
2, 42240, Note_on_c, 0, 68, 92
2, 42336, Note_off_c, 0, 68, 64
2, 42336, Note_on_c, 0, 64, 92
2, 42432, Note_off_c, 0, 64, 64
2, 42432, Note_on_c, 0, 69, 92
2, 42528, Note_off_c, 0, 69, 64
2, 42528, Note_on_c, 0, 64, 92
2, 42624, Note_off_c, 0, 64, 64
2, 42624, Note_on_c, 0, 71, 92
2, 42720, Note_off_c, 0, 71, 64
2, 42720, Note_on_c, 0, 64, 92
2, 42816, Note_off_c, 0, 64, 64
2, 42816, Note_on_c, 0, 72, 92
2, 42912, Note_off_c, 0, 72, 64
2, 42912, Note_on_c, 0, 64, 92
2, 43008, Note_off_c, 0, 64, 64
2, 43056, Note_on_c, 0, 68, 92
2, 43104, Note_off_c, 0, 68, 64
2, 43104, Note_on_c, 0, 64, 92
2, 43152, Note_off_c, 0, 64, 64
2, 43152, Note_on_c, 0, 68, 92
2, 43200, Note_off_c, 0, 68, 64
2, 43248, Note_on_c, 0, 69, 92
2, 43296, Note_off_c, 0, 69, 64
2, 43296, Note_on_c, 0, 64, 92
2, 43344, Note_off_c, 0, 64, 64
2, 43344, Note_on_c, 0, 69, 92
2, 43392, Note_off_c, 0, 69, 64
2, 43440, Note_on_c, 0, 71, 92
2, 43488, Note_off_c, 0, 71, 64
2, 43488, Note_on_c, 0, 64, 92
2, 43536, Note_off_c, 0, 64, 64
2, 43536, Note_on_c, 0, 71, 92
2, 43584, Note_off_c, 0, 71, 64
2, 43632, Note_on_c, 0, 72, 92
2, 43680, Note_off_c, 0, 72, 64
2, 43680, Note_on_c, 0, 64, 92
2, 43728, Note_off_c, 0, 64, 64
2, 43728, Note_on_c, 0, 72, 92
2, 43776, Note_off_c, 0, 72, 64
2, 43824, Note_on_c, 0, 68, 92
2, 43872, Note_off_c, 0, 68, 64
2, 43872, Note_on_c, 0, 64, 92
2, 43920, Note_off_c, 0, 64, 64
2, 43920, Note_on_c, 0, 68, 92
2, 43968, Note_off_c, 0, 68, 64
2, 44016, Note_on_c, 0, 69, 92
2, 44064, Note_off_c, 0, 69, 64
2, 44064, Note_on_c, 0, 64, 92
2, 44112, Note_off_c, 0, 64, 64
2, 44112, Note_on_c, 0, 69, 92
2, 44160, Note_off_c, 0, 69, 64
2, 44208, Note_on_c, 0, 71, 92
2, 44256, Note_off_c, 0, 71, 64
2, 44256, Note_on_c, 0, 64, 92
2, 44304, Note_off_c, 0, 64, 64
2, 44304, Note_on_c, 0, 71, 92
2, 44352, Note_off_c, 0, 71, 64
2, 44400, Note_on_c, 0, 72, 92
2, 44448, Note_off_c, 0, 72, 64
2, 44448, Note_on_c, 0, 64, 92
2, 44496, Note_off_c, 0, 64, 64
2, 44496, Note_on_c, 0, 72, 92
2, 44544, Note_off_c, 0, 72, 64
2, 44544, Note_on_c, 0, 68, 92
2, 44640, Note_off_c, 0, 68, 64
2, 44640, Note_on_c, 0, 64, 92
2, 44736, Note_off_c, 0, 64, 64
2, 44736, Note_on_c, 0, 69, 92
2, 44928, Note_off_c, 0, 69, 64
2, 44928, Note_on_c, 0, 69, 92
2, 45120, Note_off_c, 0, 69, 64
2, 45120, Note_on_c, 0, 64, 92
2, 45120, Note_on_c, 0, 68, 92
2, 45216, Note_off_c, 0, 64, 64
2, 45216, Note_on_c, 0, 62, 92
2, 45312, Note_off_c, 0, 62, 64
2, 45312, Note_off_c, 0, 68, 64
2, 45312, Note_on_c, 0, 69, 92
2, 45312, Note_on_c, 0, 61, 92
2, 45504, Note_off_c, 0, 61, 64
2, 45504, Note_on_c, 0, 62, 92
2, 45600, Note_off_c, 0, 69, 64
2, 45600, Note_on_c, 0, 71, 92
2, 45696, Note_off_c, 0, 71, 64
2, 45696, Note_off_c, 0, 62, 64
2, 45696, Note_on_c, 0, 73, 92
2, 45696, Note_on_c, 0, 64, 92
2, 45888, Note_off_c, 0, 64, 64
2, 45888, Note_on_c, 0, 65, 92
2, 45984, Note_off_c, 0, 73, 64
2, 45984, Note_on_c, 0, 74, 92
2, 46080, Note_off_c, 0, 74, 64
2, 46080, Note_off_c, 0, 65, 64
2, 46080, Note_on_c, 0, 64, 92
2, 46080, Note_on_c, 0, 73, 92
2, 46176, Note_off_c, 0, 73, 64
2, 46176, Note_on_c, 0, 69, 92
2, 46272, Note_off_c, 0, 69, 64
2, 46272, Note_off_c, 0, 64, 64
2, 46272, Note_on_c, 0, 65, 92
2, 46272, Note_on_c, 0, 74, 92
2, 46368, Note_off_c, 0, 74, 64
2, 46368, Note_on_c, 0, 69, 92
2, 46464, Note_off_c, 0, 69, 64
2, 46464, Note_off_c, 0, 65, 64
2, 46464, Note_on_c, 0, 61, 92
2, 46464, Note_on_c, 0, 76, 92
2, 46560, Note_off_c, 0, 76, 64
2, 46560, Note_on_c, 0, 69, 92
2, 46656, Note_off_c, 0, 69, 64
2, 46656, Note_off_c, 0, 61, 64
2, 46656, Note_on_c, 0, 62, 92
2, 46656, Note_on_c, 0, 77, 92
2, 46752, Note_off_c, 0, 77, 64
2, 46752, Note_on_c, 0, 69, 92
2, 46848, Note_off_c, 0, 69, 64
2, 46848, Note_off_c, 0, 62, 64
2, 46848, Note_on_c, 0, 64, 92
2, 46848, Note_on_c, 0, 73, 92
2, 46944, Note_off_c, 0, 73, 64
2, 46944, Note_on_c, 0, 69, 92
2, 47040, Note_off_c, 0, 69, 64
2, 47040, Note_off_c, 0, 64, 64
2, 47040, Note_on_c, 0, 65, 92
2, 47040, Note_on_c, 0, 74, 92
2, 47136, Note_off_c, 0, 74, 64
2, 47136, Note_on_c, 0, 69, 92
2, 47232, Note_off_c, 0, 69, 64
2, 47232, Note_off_c, 0, 65, 64
2, 47232, Note_on_c, 0, 61, 92
2, 47232, Note_on_c, 0, 76, 92
2, 47328, Note_off_c, 0, 76, 64
2, 47328, Note_on_c, 0, 69, 92
2, 47424, Note_off_c, 0, 69, 64
2, 47424, Note_off_c, 0, 61, 64
2, 47424, Note_on_c, 0, 62, 92
2, 47424, Note_on_c, 0, 77, 92
2, 47520, Note_off_c, 0, 77, 64
2, 47520, Note_on_c, 0, 69, 92
2, 47616, Note_off_c, 0, 69, 64
2, 47616, Note_off_c, 0, 62, 64
2, 47616, Note_on_c, 0, 64, 92
2, 47664, Note_on_c, 0, 73, 92
2, 47712, Note_off_c, 0, 73, 64
2, 47712, Note_on_c, 0, 69, 92
2, 47760, Note_off_c, 0, 69, 64
2, 47760, Note_on_c, 0, 73, 92
2, 47808, Note_off_c, 0, 73, 64
2, 47808, Note_off_c, 0, 64, 64
2, 47808, Note_on_c, 0, 65, 92
2, 47856, Note_on_c, 0, 74, 92
2, 47904, Note_off_c, 0, 74, 64
2, 47904, Note_on_c, 0, 69, 92
2, 47952, Note_off_c, 0, 69, 64
2, 47952, Note_on_c, 0, 74, 92
2, 48000, Note_off_c, 0, 74, 64
2, 48000, Note_off_c, 0, 65, 64
2, 48000, Note_on_c, 0, 61, 92
2, 48048, Note_on_c, 0, 76, 92
2, 48096, Note_off_c, 0, 76, 64
2, 48096, Note_on_c, 0, 69, 92
2, 48144, Note_off_c, 0, 69, 64
2, 48144, Note_on_c, 0, 76, 92
2, 48192, Note_off_c, 0, 76, 64
2, 48192, Note_off_c, 0, 61, 64
2, 48192, Note_on_c, 0, 62, 92
2, 48240, Note_on_c, 0, 77, 92
2, 48288, Note_off_c, 0, 77, 64
2, 48288, Note_on_c, 0, 69, 92
2, 48336, Note_off_c, 0, 69, 64
2, 48336, Note_on_c, 0, 77, 92
2, 48384, Note_off_c, 0, 77, 64
2, 48384, Note_off_c, 0, 62, 64
2, 48384, Note_on_c, 0, 64, 92
2, 48432, Note_on_c, 0, 73, 92
2, 48480, Note_off_c, 0, 73, 64
2, 48480, Note_on_c, 0, 69, 92
2, 48528, Note_off_c, 0, 69, 64
2, 48528, Note_on_c, 0, 73, 92
2, 48576, Note_off_c, 0, 73, 64
2, 48576, Note_off_c, 0, 64, 64
2, 48576, Note_on_c, 0, 65, 92
2, 48624, Note_on_c, 0, 74, 92
2, 48672, Note_off_c, 0, 74, 64
2, 48672, Note_on_c, 0, 69, 92
2, 48720, Note_off_c, 0, 69, 64
2, 48720, Note_on_c, 0, 74, 92
2, 48768, Note_off_c, 0, 74, 64
2, 48768, Note_off_c, 0, 65, 64
2, 48768, Note_on_c, 0, 61, 92
2, 48816, Note_on_c, 0, 76, 92
2, 48864, Note_off_c, 0, 76, 64
2, 48864, Note_on_c, 0, 69, 92
2, 48912, Note_off_c, 0, 69, 64
2, 48912, Note_on_c, 0, 76, 92
2, 48960, Note_off_c, 0, 76, 64
2, 48960, Note_off_c, 0, 61, 64
2, 48960, Note_on_c, 0, 62, 92
2, 49008, Note_on_c, 0, 77, 92
2, 49056, Note_off_c, 0, 77, 64
2, 49056, Note_on_c, 0, 69, 92
2, 49104, Note_off_c, 0, 69, 64
2, 49104, Note_on_c, 0, 77, 92
2, 49152, Note_off_c, 0, 77, 64
2, 49152, Note_off_c, 0, 62, 64
2, 49152, Note_on_c, 0, 73, 92
2, 49152, Note_on_c, 0, 64, 92
2, 49248, Note_off_c, 0, 73, 64
2, 49248, Note_on_c, 0, 69, 92
2, 49344, Note_off_c, 0, 69, 64
2, 49344, Note_off_c, 0, 64, 64
2, 49344, Note_on_c, 0, 74, 92
2, 49344, Note_on_c, 0, 65, 92
2, 49536, Note_off_c, 0, 65, 64
2, 49536, Note_off_c, 0, 74, 64
2, 49536, Note_on_c, 0, 74, 92
2, 49536, Note_on_c, 0, 64, 92
2, 49728, Note_off_c, 0, 64, 64
2, 49728, Note_off_c, 0, 74, 64
2, 49728, Note_on_c, 0, 69, 92
2, 49728, Note_on_c, 0, 73, 92
2, 49824, Note_off_c, 0, 69, 64
2, 49824, Note_on_c, 0, 67, 92
2, 49920, Note_off_c, 0, 67, 64
2, 49920, Note_off_c, 0, 73, 64
2, 49920, Note_on_c, 0, 74, 92
2, 49920, Note_on_c, 0, 66, 92
2, 50112, Note_off_c, 0, 66, 64
2, 50112, Note_on_c, 0, 67, 92
2, 50208, Note_off_c, 0, 74, 64
2, 50208, Note_on_c, 0, 76, 92
2, 50304, Note_off_c, 0, 76, 64
2, 50304, Note_off_c, 0, 67, 64
2, 50304, Note_on_c, 0, 78, 92
2, 50304, Note_on_c, 0, 69, 92
2, 50496, Note_off_c, 0, 69, 64
2, 50496, Note_on_c, 0, 70, 92
2, 50592, Note_off_c, 0, 78, 64
2, 50592, Note_on_c, 0, 79, 92
2, 50688, Note_off_c, 0, 79, 64
2, 50688, Note_off_c, 0, 70, 64
2, 50688, Note_on_c, 0, 78, 92
2, 50688, Note_on_c, 0, 69, 92
2, 50784, Note_off_c, 0, 78, 64
2, 50784, Note_on_c, 0, 74, 92
2, 50880, Note_off_c, 0, 74, 64
2, 50880, Note_off_c, 0, 69, 64
2, 50880, Note_on_c, 0, 79, 92
2, 50880, Note_on_c, 0, 70, 92
2, 50976, Note_off_c, 0, 79, 64
2, 50976, Note_on_c, 0, 74, 92
2, 51072, Note_off_c, 0, 74, 64
2, 51072, Note_off_c, 0, 70, 64
2, 51072, Note_on_c, 0, 81, 92
2, 51072, Note_on_c, 0, 66, 92
2, 51168, Note_off_c, 0, 81, 64
2, 51168, Note_on_c, 0, 74, 92
2, 51264, Note_off_c, 0, 74, 64
2, 51264, Note_off_c, 0, 66, 64
2, 51264, Note_on_c, 0, 82, 92
2, 51264, Note_on_c, 0, 67, 92
2, 51360, Note_off_c, 0, 82, 64
2, 51360, Note_on_c, 0, 74, 92
2, 51456, Note_off_c, 0, 74, 64
2, 51456, Note_off_c, 0, 67, 64
2, 51456, Note_on_c, 0, 78, 92
2, 51456, Note_on_c, 0, 69, 92
2, 51552, Note_off_c, 0, 78, 64
2, 51552, Note_on_c, 0, 74, 92
2, 51648, Note_off_c, 0, 74, 64
2, 51648, Note_off_c, 0, 69, 64
2, 51648, Note_on_c, 0, 79, 92
2, 51648, Note_on_c, 0, 70, 92
2, 51744, Note_off_c, 0, 79, 64
2, 51744, Note_on_c, 0, 74, 92
2, 51840, Note_off_c, 0, 74, 64
2, 51840, Note_off_c, 0, 70, 64
2, 51840, Note_on_c, 0, 81, 92
2, 51840, Note_on_c, 0, 66, 92
2, 51936, Note_off_c, 0, 81, 64
2, 51936, Note_on_c, 0, 74, 92
2, 52032, Note_off_c, 0, 74, 64
2, 52032, Note_off_c, 0, 66, 64
2, 52032, Note_on_c, 0, 82, 92
2, 52032, Note_on_c, 0, 67, 92
2, 52128, Note_off_c, 0, 82, 64
2, 52128, Note_on_c, 0, 74, 92
2, 52224, Note_off_c, 0, 74, 64
2, 52224, Note_off_c, 0, 67, 64
2, 52224, Note_on_c, 0, 69, 92
2, 52272, Note_on_c, 0, 78, 92
2, 52320, Note_off_c, 0, 78, 64
2, 52320, Note_on_c, 0, 74, 92
2, 52368, Note_off_c, 0, 74, 64
2, 52368, Note_on_c, 0, 78, 92
2, 52416, Note_off_c, 0, 78, 64
2, 52416, Note_off_c, 0, 69, 64
2, 52416, Note_on_c, 0, 70, 92
2, 52464, Note_on_c, 0, 79, 92
2, 52512, Note_off_c, 0, 79, 64
2, 52512, Note_on_c, 0, 74, 92
2, 52560, Note_off_c, 0, 74, 64
2, 52560, Note_on_c, 0, 79, 92
2, 52608, Note_off_c, 0, 79, 64
2, 52608, Note_off_c, 0, 70, 64
2, 52608, Note_on_c, 0, 66, 92
2, 52656, Note_on_c, 0, 81, 92
2, 52704, Note_off_c, 0, 81, 64
2, 52704, Note_on_c, 0, 74, 92
2, 52752, Note_off_c, 0, 74, 64
2, 52752, Note_on_c, 0, 81, 92
2, 52800, Note_off_c, 0, 81, 64
2, 52800, Note_off_c, 0, 66, 64
2, 52800, Note_on_c, 0, 67, 92
2, 52848, Note_on_c, 0, 82, 92
2, 52896, Note_off_c, 0, 82, 64
2, 52896, Note_on_c, 0, 74, 92
2, 52944, Note_off_c, 0, 74, 64
2, 52944, Note_on_c, 0, 82, 92
2, 52992, Note_off_c, 0, 82, 64
2, 52992, Note_off_c, 0, 67, 64
2, 52992, Note_on_c, 0, 69, 92
2, 53040, Note_on_c, 0, 78, 92
2, 53088, Note_off_c, 0, 78, 64
2, 53088, Note_on_c, 0, 74, 92
2, 53136, Note_off_c, 0, 74, 64
2, 53136, Note_on_c, 0, 78, 92
2, 53184, Note_off_c, 0, 78, 64
2, 53184, Note_off_c, 0, 69, 64
2, 53184, Note_on_c, 0, 70, 92
2, 53232, Note_on_c, 0, 79, 92
2, 53280, Note_off_c, 0, 79, 64
2, 53280, Note_on_c, 0, 74, 92
2, 53328, Note_off_c, 0, 74, 64
2, 53328, Note_on_c, 0, 79, 92
2, 53376, Note_off_c, 0, 79, 64
2, 53376, Note_off_c, 0, 70, 64
2, 53376, Note_on_c, 0, 66, 92
2, 53424, Note_on_c, 0, 81, 92
2, 53472, Note_off_c, 0, 81, 64
2, 53472, Note_on_c, 0, 74, 92
2, 53520, Note_off_c, 0, 74, 64
2, 53520, Note_on_c, 0, 81, 92
2, 53568, Note_off_c, 0, 81, 64
2, 53568, Note_off_c, 0, 66, 64
2, 53568, Note_on_c, 0, 67, 92
2, 53616, Note_on_c, 0, 82, 92
2, 53664, Note_off_c, 0, 82, 64
2, 53664, Note_on_c, 0, 74, 92
2, 53712, Note_off_c, 0, 74, 64
2, 53712, Note_on_c, 0, 82, 92
2, 53760, Note_off_c, 0, 82, 64
2, 53760, Note_off_c, 0, 67, 64
2, 53760, Note_on_c, 0, 78, 92
2, 53760, Note_on_c, 0, 69, 92
2, 53856, Note_off_c, 0, 78, 64
2, 53856, Note_on_c, 0, 74, 92
2, 53952, Note_off_c, 0, 74, 64
2, 53952, Note_off_c, 0, 69, 64
2, 53952, Note_on_c, 0, 79, 92
2, 53952, Note_on_c, 0, 70, 92
2, 54144, Note_off_c, 0, 70, 64
2, 54144, Note_off_c, 0, 79, 64
2, 54144, Note_on_c, 0, 69, 92
2, 54144, Note_on_c, 0, 79, 92
2, 54432, Note_off_c, 0, 79, 64
2, 54432, Note_on_c, 0, 78, 92
2, 54528, Note_off_c, 0, 78, 64
2, 54528, Note_off_c, 0, 69, 64
2, 54528, Note_on_c, 0, 67, 92
2, 54528, Note_on_c, 0, 79, 92
2, 54720, Note_off_c, 0, 79, 64
2, 54720, Note_off_c, 0, 67, 64
2, 54720, Note_on_c, 0, 74, 92
2, 54720, Note_on_c, 0, 82, 92
2, 54816, Note_off_c, 0, 82, 64
2, 54816, Note_off_c, 0, 74, 64
2, 54816, Note_on_c, 0, 72, 92
2, 54816, Note_on_c, 0, 81, 92
2, 54912, Note_off_c, 0, 81, 64
2, 54912, Note_off_c, 0, 72, 64
2, 54912, Note_on_c, 0, 70, 92
2, 54912, Note_on_c, 0, 79, 92
2, 55008, Note_off_c, 0, 79, 64
2, 55008, Note_off_c, 0, 70, 64
2, 55008, Note_on_c, 0, 69, 92
2, 55008, Note_on_c, 0, 77, 92
2, 55104, Note_off_c, 0, 77, 64
2, 55104, Note_off_c, 0, 69, 64
2, 55104, Note_on_c, 0, 67, 92
2, 55104, Note_on_c, 0, 76, 92
2, 55200, Note_off_c, 0, 76, 64
2, 55200, Note_off_c, 0, 67, 64
2, 55200, Note_on_c, 0, 65, 92
2, 55200, Note_on_c, 0, 74, 92
2, 55296, Note_off_c, 0, 74, 64
2, 55296, Note_off_c, 0, 65, 64
2, 55296, Note_on_c, 0, 73, 92
2, 55296, Note_on_c, 0, 64, 92
2, 55392, Note_off_c, 0, 73, 64
2, 55392, Note_on_c, 0, 69, 92
2, 55488, Note_off_c, 0, 69, 64
2, 55488, Note_off_c, 0, 64, 64
2, 55488, Note_on_c, 0, 74, 92
2, 55488, Note_on_c, 0, 65, 92
2, 55584, Note_off_c, 0, 74, 64
2, 55584, Note_on_c, 0, 69, 92
2, 55680, Note_off_c, 0, 69, 64
2, 55680, Note_off_c, 0, 65, 64
2, 55680, Note_on_c, 0, 76, 92
2, 55680, Note_on_c, 0, 61, 92
2, 55776, Note_off_c, 0, 76, 64
2, 55776, Note_on_c, 0, 69, 92
2, 55872, Note_off_c, 0, 69, 64
2, 55872, Note_off_c, 0, 61, 64
2, 55872, Note_on_c, 0, 77, 92
2, 55872, Note_on_c, 0, 62, 92
2, 55968, Note_off_c, 0, 77, 64
2, 55968, Note_on_c, 0, 69, 92
2, 56064, Note_off_c, 0, 69, 64
2, 56064, Note_off_c, 0, 62, 64
2, 56064, Note_on_c, 0, 73, 92
2, 56064, Note_on_c, 0, 64, 92
2, 56160, Note_off_c, 0, 73, 64
2, 56160, Note_on_c, 0, 69, 92
2, 56256, Note_off_c, 0, 69, 64
2, 56256, Note_off_c, 0, 64, 64
2, 56256, Note_on_c, 0, 74, 92
2, 56256, Note_on_c, 0, 65, 92
2, 56352, Note_off_c, 0, 74, 64
2, 56352, Note_on_c, 0, 69, 92
2, 56448, Note_off_c, 0, 69, 64
2, 56448, Note_off_c, 0, 65, 64
2, 56448, Note_on_c, 0, 76, 92
2, 56448, Note_on_c, 0, 61, 92
2, 56544, Note_off_c, 0, 76, 64
2, 56544, Note_on_c, 0, 69, 92
2, 56640, Note_off_c, 0, 69, 64
2, 56640, Note_off_c, 0, 61, 64
2, 56640, Note_on_c, 0, 77, 92
2, 56640, Note_on_c, 0, 62, 92
2, 56736, Note_off_c, 0, 77, 64
2, 56736, Note_on_c, 0, 69, 92
2, 56832, Note_off_c, 0, 69, 64
2, 56832, Note_off_c, 0, 62, 64
2, 56832, Note_on_c, 0, 64, 92
2, 56880, Note_on_c, 0, 73, 92
2, 56928, Note_off_c, 0, 73, 64
2, 56928, Note_on_c, 0, 69, 92
2, 56976, Note_off_c, 0, 69, 64
2, 56976, Note_on_c, 0, 73, 92
2, 57024, Note_off_c, 0, 73, 64
2, 57024, Note_off_c, 0, 64, 64
2, 57024, Note_on_c, 0, 65, 92
2, 57072, Note_on_c, 0, 74, 92
2, 57120, Note_off_c, 0, 74, 64
2, 57120, Note_on_c, 0, 69, 92
2, 57168, Note_off_c, 0, 69, 64
2, 57168, Note_on_c, 0, 74, 92
2, 57216, Note_off_c, 0, 74, 64
2, 57216, Note_off_c, 0, 65, 64
2, 57216, Note_on_c, 0, 61, 92
2, 57264, Note_on_c, 0, 76, 92
2, 57312, Note_off_c, 0, 76, 64
2, 57312, Note_on_c, 0, 69, 92
2, 57360, Note_off_c, 0, 69, 64
2, 57360, Note_on_c, 0, 76, 92
2, 57408, Note_off_c, 0, 76, 64
2, 57408, Note_off_c, 0, 61, 64
2, 57408, Note_on_c, 0, 62, 92
2, 57456, Note_on_c, 0, 77, 92
2, 57504, Note_off_c, 0, 77, 64
2, 57504, Note_on_c, 0, 69, 92
2, 57552, Note_off_c, 0, 69, 64
2, 57552, Note_on_c, 0, 77, 92
2, 57600, Note_off_c, 0, 77, 64
2, 57600, Note_off_c, 0, 62, 64
2, 57600, Note_on_c, 0, 64, 92
2, 57648, Note_on_c, 0, 73, 92
2, 57696, Note_off_c, 0, 73, 64
2, 57696, Note_on_c, 0, 69, 92
2, 57744, Note_off_c, 0, 69, 64
2, 57744, Note_on_c, 0, 73, 92
2, 57792, Note_off_c, 0, 73, 64
2, 57792, Note_off_c, 0, 64, 64
2, 57792, Note_on_c, 0, 65, 92
2, 57840, Note_on_c, 0, 74, 92
2, 57888, Note_off_c, 0, 74, 64
2, 57888, Note_on_c, 0, 69, 92
2, 57936, Note_off_c, 0, 69, 64
2, 57936, Note_on_c, 0, 74, 92
2, 57984, Note_off_c, 0, 74, 64
2, 57984, Note_off_c, 0, 65, 64
2, 57984, Note_on_c, 0, 61, 92
2, 58032, Note_on_c, 0, 76, 92
2, 58080, Note_off_c, 0, 76, 64
2, 58080, Note_on_c, 0, 69, 92
2, 58128, Note_off_c, 0, 69, 64
2, 58128, Note_on_c, 0, 76, 92
2, 58176, Note_off_c, 0, 76, 64
2, 58176, Note_off_c, 0, 61, 64
2, 58176, Note_on_c, 0, 62, 92
2, 58224, Note_on_c, 0, 77, 92
2, 58272, Note_off_c, 0, 77, 64
2, 58272, Note_on_c, 0, 69, 92
2, 58320, Note_off_c, 0, 69, 64
2, 58320, Note_on_c, 0, 77, 92
2, 58368, Note_off_c, 0, 77, 64
2, 58368, Note_off_c, 0, 62, 64
2, 58368, Note_on_c, 0, 73, 92
2, 58368, Note_on_c, 0, 64, 92
2, 58464, Note_off_c, 0, 73, 64
2, 58464, Note_on_c, 0, 69, 92
2, 58560, Note_off_c, 0, 69, 64
2, 58560, Note_off_c, 0, 64, 64
2, 58560, Note_on_c, 0, 74, 92
2, 58560, Note_on_c, 0, 65, 92
2, 58752, Note_off_c, 0, 65, 64
2, 58752, Note_off_c, 0, 74, 64
2, 58752, Note_on_c, 0, 64, 92
2, 58752, Note_on_c, 0, 74, 92
2, 59040, Note_off_c, 0, 74, 64
2, 59040, Note_on_c, 0, 73, 92
2, 59136, Note_off_c, 0, 73, 64
2, 59136, Note_off_c, 0, 64, 64
2, 59136, Note_on_c, 0, 62, 92
2, 59136, Note_on_c, 0, 74, 92
2, 59328, Note_off_c, 0, 74, 64
2, 59328, Note_off_c, 0, 62, 64
2, 59328, Note_on_c, 0, 69, 92
2, 59328, Note_on_c, 0, 77, 92
2, 59424, Note_off_c, 0, 77, 64
2, 59424, Note_off_c, 0, 69, 64
2, 59424, Note_on_c, 0, 67, 92
2, 59424, Note_on_c, 0, 76, 92
2, 59520, Note_off_c, 0, 76, 64
2, 59520, Note_off_c, 0, 67, 64
2, 59520, Note_on_c, 0, 65, 92
2, 59520, Note_on_c, 0, 74, 92
2, 59616, Note_off_c, 0, 74, 64
2, 59616, Note_off_c, 0, 65, 64
2, 59616, Note_on_c, 0, 64, 92
2, 59616, Note_on_c, 0, 72, 92
2, 59712, Note_off_c, 0, 72, 64
2, 59712, Note_off_c, 0, 64, 64
2, 59712, Note_on_c, 0, 62, 92
2, 59712, Note_on_c, 0, 71, 92
2, 59808, Note_off_c, 0, 71, 64
2, 59808, Note_off_c, 0, 62, 64
2, 59808, Note_on_c, 0, 60, 92
2, 59808, Note_on_c, 0, 69, 92
2, 59904, Note_off_c, 0, 69, 64
2, 59904, Note_off_c, 0, 60, 64
2, 59904, Note_on_c, 0, 68, 92
2, 60000, Note_off_c, 0, 68, 64
2, 60000, Note_on_c, 0, 64, 92
2, 60096, Note_off_c, 0, 64, 64
2, 60096, Note_on_c, 0, 69, 92
2, 60192, Note_off_c, 0, 69, 64
2, 60192, Note_on_c, 0, 64, 92
2, 60288, Note_off_c, 0, 64, 64
2, 60288, Note_on_c, 0, 71, 92
2, 60384, Note_off_c, 0, 71, 64
2, 60384, Note_on_c, 0, 64, 92
2, 60480, Note_off_c, 0, 64, 64
2, 60480, Note_on_c, 0, 72, 92
2, 60576, Note_off_c, 0, 72, 64
2, 60576, Note_on_c, 0, 64, 92
2, 60672, Note_off_c, 0, 64, 64
2, 60672, Note_on_c, 0, 68, 92
2, 60768, Note_off_c, 0, 68, 64
2, 60768, Note_on_c, 0, 64, 92
2, 60864, Note_off_c, 0, 64, 64
2, 60864, Note_on_c, 0, 69, 92
2, 60960, Note_off_c, 0, 69, 64
2, 60960, Note_on_c, 0, 64, 92
2, 61056, Note_off_c, 0, 64, 64
2, 61056, Note_on_c, 0, 71, 92
2, 61152, Note_off_c, 0, 71, 64
2, 61152, Note_on_c, 0, 64, 92
2, 61248, Note_off_c, 0, 64, 64
2, 61248, Note_on_c, 0, 72, 92
2, 61344, Note_off_c, 0, 72, 64
2, 61344, Note_on_c, 0, 64, 92
2, 61440, Note_off_c, 0, 64, 64
2, 61488, Note_on_c, 0, 68, 92
2, 61536, Note_off_c, 0, 68, 64
2, 61536, Note_on_c, 0, 64, 92
2, 61584, Note_off_c, 0, 64, 64
2, 61584, Note_on_c, 0, 68, 92
2, 61632, Note_off_c, 0, 68, 64
2, 61680, Note_on_c, 0, 69, 92
2, 61728, Note_off_c, 0, 69, 64
2, 61728, Note_on_c, 0, 64, 92
2, 61776, Note_off_c, 0, 64, 64
2, 61776, Note_on_c, 0, 69, 92
2, 61824, Note_off_c, 0, 69, 64
2, 61872, Note_on_c, 0, 71, 92
2, 61920, Note_off_c, 0, 71, 64
2, 61920, Note_on_c, 0, 64, 92
2, 61968, Note_off_c, 0, 64, 64
2, 61968, Note_on_c, 0, 71, 92
2, 62016, Note_off_c, 0, 71, 64
2, 62064, Note_on_c, 0, 72, 92
2, 62112, Note_off_c, 0, 72, 64
2, 62112, Note_on_c, 0, 64, 92
2, 62160, Note_off_c, 0, 64, 64
2, 62160, Note_on_c, 0, 72, 92
2, 62208, Note_off_c, 0, 72, 64
2, 62256, Note_on_c, 0, 68, 92
2, 62304, Note_off_c, 0, 68, 64
2, 62304, Note_on_c, 0, 64, 92
2, 62352, Note_off_c, 0, 64, 64
2, 62352, Note_on_c, 0, 68, 92
2, 62400, Note_off_c, 0, 68, 64
2, 62448, Note_on_c, 0, 69, 92
2, 62496, Note_off_c, 0, 69, 64
2, 62496, Note_on_c, 0, 64, 92
2, 62544, Note_off_c, 0, 64, 64
2, 62544, Note_on_c, 0, 69, 92
2, 62592, Note_off_c, 0, 69, 64
2, 62640, Note_on_c, 0, 71, 92
2, 62688, Note_off_c, 0, 71, 64
2, 62688, Note_on_c, 0, 64, 92
2, 62736, Note_off_c, 0, 64, 64
2, 62736, Note_on_c, 0, 71, 92
2, 62784, Note_off_c, 0, 71, 64
2, 62832, Note_on_c, 0, 72, 92
2, 62880, Note_off_c, 0, 72, 64
2, 62880, Note_on_c, 0, 64, 92
2, 62928, Note_off_c, 0, 64, 64
2, 62928, Note_on_c, 0, 72, 92
2, 62976, Note_off_c, 0, 72, 64
2, 62976, Note_on_c, 0, 68, 92
2, 63072, Note_off_c, 0, 68, 64
2, 63072, Note_on_c, 0, 66, 92
2, 63168, Note_off_c, 0, 66, 64
2, 63168, Note_on_c, 0, 64, 92
2, 63264, Note_off_c, 0, 64, 64
2, 63264, Note_on_c, 0, 68, 92
2, 63360, Note_off_c, 0, 68, 64
2, 63360, Note_on_c, 0, 69, 92
2, 63456, Note_off_c, 0, 69, 64
2, 63456, Note_on_c, 0, 68, 92
2, 63552, Note_off_c, 0, 68, 64
2, 63552, Note_on_c, 0, 66, 92
2, 63648, Note_off_c, 0, 66, 64
2, 63648, Note_on_c, 0, 69, 92
2, 63744, Note_off_c, 0, 69, 64
2, 63744, Note_on_c, 0, 68, 92
2, 63840, Note_off_c, 0, 68, 64
2, 63840, Note_on_c, 0, 66, 92
2, 63936, Note_off_c, 0, 66, 64
2, 63936, Note_on_c, 0, 64, 92
2, 64032, Note_off_c, 0, 64, 64
2, 64032, Note_on_c, 0, 68, 92
2, 64128, Note_off_c, 0, 68, 64
2, 64128, Note_on_c, 0, 69, 92
2, 64224, Note_off_c, 0, 69, 64
2, 64224, Note_on_c, 0, 72, 92
2, 64320, Note_off_c, 0, 72, 64
2, 64320, Note_on_c, 0, 71, 92
2, 64416, Note_off_c, 0, 71, 64
2, 64416, Note_on_c, 0, 69, 92
2, 64512, Note_off_c, 0, 69, 64
2, 64512, Note_on_c, 0, 68, 92
2, 64608, Note_off_c, 0, 68, 64
2, 64608, Note_on_c, 0, 69, 92
2, 64704, Note_off_c, 0, 69, 64
2, 64704, Note_on_c, 0, 71, 92
2, 64800, Note_off_c, 0, 71, 64
2, 64800, Note_on_c, 0, 69, 92
2, 64896, Note_off_c, 0, 69, 64
2, 64896, Note_on_c, 0, 68, 92
2, 64992, Note_off_c, 0, 68, 64
2, 64992, Note_on_c, 0, 71, 92
2, 65088, Note_off_c, 0, 71, 64
2, 65088, Note_on_c, 0, 69, 92
2, 65184, Note_off_c, 0, 69, 64
2, 65184, Note_on_c, 0, 68, 92
2, 65280, Note_off_c, 0, 68, 64
2, 65280, Note_on_c, 0, 69, 92
2, 65376, Note_off_c, 0, 69, 64
2, 65376, Note_on_c, 0, 71, 92
2, 65472, Note_off_c, 0, 71, 64
2, 65472, Note_on_c, 0, 72, 92
2, 65568, Note_off_c, 0, 72, 64
2, 65568, Note_on_c, 0, 71, 92
2, 65664, Note_off_c, 0, 71, 64
2, 65664, Note_on_c, 0, 69, 92
2, 65760, Note_off_c, 0, 69, 64
2, 65760, Note_on_c, 0, 72, 92
2, 65856, Note_off_c, 0, 72, 64
2, 65856, Note_on_c, 0, 71, 92
2, 65952, Note_off_c, 0, 71, 64
2, 65952, Note_on_c, 0, 69, 92
2, 66048, Note_off_c, 0, 69, 64
2, 66048, Note_on_c, 0, 68, 92
2, 66144, Note_off_c, 0, 68, 64
2, 66144, Note_on_c, 0, 69, 92
2, 66240, Note_off_c, 0, 69, 64
2, 66240, Note_on_c, 0, 71, 92
2, 66336, Note_off_c, 0, 71, 64
2, 66336, Note_on_c, 0, 69, 92
2, 66432, Note_off_c, 0, 69, 64
2, 66432, Note_on_c, 0, 68, 92
2, 66528, Note_off_c, 0, 68, 64
2, 66528, Note_on_c, 0, 71, 92
2, 66624, Note_off_c, 0, 71, 64
2, 66624, Note_on_c, 0, 69, 92
2, 66720, Note_off_c, 0, 69, 64
2, 66720, Note_on_c, 0, 68, 92
2, 66816, Note_off_c, 0, 68, 64
2, 66816, Note_on_c, 0, 69, 92
2, 66912, Note_off_c, 0, 69, 64
2, 66912, Note_on_c, 0, 74, 92
2, 67008, Note_off_c, 0, 74, 64
2, 67008, Note_on_c, 0, 72, 92
2, 67104, Note_off_c, 0, 72, 64
2, 67104, Note_on_c, 0, 71, 92
2, 67200, Note_off_c, 0, 71, 64
2, 67200, Note_on_c, 0, 72, 92
2, 67296, Note_off_c, 0, 72, 64
2, 67296, Note_on_c, 0, 71, 92
2, 67392, Note_off_c, 0, 71, 64
2, 67392, Note_on_c, 0, 69, 92
2, 67488, Note_off_c, 0, 69, 64
2, 67488, Note_on_c, 0, 68, 92
2, 67584, Note_off_c, 0, 68, 64
2, 67584, Note_on_c, 0, 69, 92
2, 67680, Note_off_c, 0, 69, 64
2, 67680, Note_on_c, 0, 74, 92
2, 67776, Note_off_c, 0, 74, 64
2, 67776, Note_on_c, 0, 72, 92
2, 67872, Note_off_c, 0, 72, 64
2, 67872, Note_on_c, 0, 71, 92
2, 67968, Note_off_c, 0, 71, 64
2, 67968, Note_on_c, 0, 72, 92
2, 68064, Note_off_c, 0, 72, 64
2, 68064, Note_on_c, 0, 71, 92
2, 68160, Note_off_c, 0, 71, 64
2, 68160, Note_on_c, 0, 69, 92
2, 68256, Note_off_c, 0, 69, 64
2, 68256, Note_on_c, 0, 68, 92
2, 68352, Note_off_c, 0, 68, 64
2, 68352, Note_on_c, 0, 69, 92
2, 68448, Note_off_c, 0, 69, 64
2, 68448, Note_on_c, 0, 68, 92
2, 68544, Note_off_c, 0, 68, 64
2, 68544, Note_on_c, 0, 69, 92
2, 68640, Note_off_c, 0, 69, 64
2, 68640, Note_on_c, 0, 66, 92
2, 68736, Note_off_c, 0, 66, 64
2, 68736, Note_on_c, 0, 68, 92
2, 68832, Note_off_c, 0, 68, 64
2, 68832, Note_on_c, 0, 66, 92
2, 68928, Note_off_c, 0, 66, 64
2, 68928, Note_on_c, 0, 68, 92
2, 69024, Note_off_c, 0, 68, 64
2, 69024, Note_on_c, 0, 64, 92
2, 69120, Note_off_c, 0, 64, 64
2, 69120, Note_on_c, 0, 72, 92
2, 69216, Note_off_c, 0, 72, 64
2, 69216, Note_on_c, 0, 71, 92
2, 69312, Note_off_c, 0, 71, 64
2, 69312, Note_on_c, 0, 72, 92
2, 69408, Note_off_c, 0, 72, 64
2, 69408, Note_on_c, 0, 69, 92
2, 69504, Note_off_c, 0, 69, 64
2, 69504, Note_on_c, 0, 71, 92
2, 69600, Note_off_c, 0, 71, 64
2, 69600, Note_on_c, 0, 69, 92
2, 69696, Note_off_c, 0, 69, 64
2, 69696, Note_on_c, 0, 71, 92
2, 69792, Note_off_c, 0, 71, 64
2, 69792, Note_on_c, 0, 68, 92
2, 69888, Note_off_c, 0, 68, 64
2, 69888, Note_on_c, 0, 76, 92
2, 69984, Note_off_c, 0, 76, 64
2, 69984, Note_on_c, 0, 74, 92
2, 70080, Note_off_c, 0, 74, 64
2, 70080, Note_on_c, 0, 76, 92
2, 70176, Note_off_c, 0, 76, 64
2, 70176, Note_on_c, 0, 72, 92
2, 70272, Note_off_c, 0, 72, 64
2, 70272, Note_on_c, 0, 74, 92
2, 70368, Note_off_c, 0, 74, 64
2, 70368, Note_on_c, 0, 72, 92
2, 70464, Note_off_c, 0, 72, 64
2, 70464, Note_on_c, 0, 74, 92
2, 70560, Note_off_c, 0, 74, 64
2, 70560, Note_on_c, 0, 71, 92
2, 70656, Note_off_c, 0, 71, 64
2, 70656, Note_on_c, 0, 72, 92
2, 70752, Note_off_c, 0, 72, 64
2, 70752, Note_on_c, 0, 68, 92
2, 70848, Note_off_c, 0, 68, 64
2, 70848, Note_on_c, 0, 69, 92
2, 70944, Note_off_c, 0, 69, 64
2, 70944, Note_on_c, 0, 71, 92
2, 71040, Note_off_c, 0, 71, 64
2, 71040, Note_on_c, 0, 69, 92
2, 71136, Note_off_c, 0, 69, 64
2, 71136, Note_on_c, 0, 72, 92
2, 71232, Note_off_c, 0, 72, 64
2, 71232, Note_on_c, 0, 71, 92
2, 71328, Note_off_c, 0, 71, 64
2, 71328, Note_on_c, 0, 69, 92
2, 71424, Note_off_c, 0, 69, 64
2, 71424, Note_on_c, 0, 68, 92
2, 71472, Note_off_c, 0, 68, 64
2, 71472, Note_on_c, 0, 64, 92
2, 71520, Note_off_c, 0, 64, 64
2, 71520, Note_on_c, 0, 62, 92
2, 71568, Note_off_c, 0, 62, 64
2, 71568, Note_on_c, 0, 60, 92
2, 71616, Note_off_c, 0, 60, 64
2, 71616, Note_on_c, 0, 59, 92
2, 71664, Note_off_c, 0, 59, 64
2, 72576, Note_on_c, 0, 66, 92
2, 72576, Note_on_c, 0, 69, 92
2, 72576, Note_on_c, 0, 72, 92
2, 72960, Note_off_c, 0, 72, 64
2, 72960, Note_off_c, 0, 69, 64
2, 72960, Note_off_c, 0, 66, 64
2, 72960, Note_on_c, 0, 71, 92
2, 72960, Note_on_c, 0, 69, 92
2, 72960, Note_on_c, 0, 59, 92
2, 73344, Note_off_c, 0, 59, 64
2, 73344, Note_off_c, 0, 69, 64
2, 73344, Note_on_c, 0, 64, 92
2, 73344, Note_on_c, 0, 68, 92
2, 73536, Note_off_c, 0, 64, 64
2, 73536, Note_on_c, 0, 62, 92
2, 73728, Note_off_c, 0, 62, 64
2, 73728, Note_off_c, 0, 68, 64
2, 73728, Note_off_c, 0, 71, 64
2, 73728, Note_on_c, 0, 69, 92
2, 73728, Note_on_c, 0, 60, 92
2, 73920, Note_on_c, 0, 64, 92
2, 74112, Note_off_c, 0, 64, 64
2, 74112, Note_off_c, 0, 60, 64
2, 74112, Note_off_c, 0, 69, 64
2, 74112, Note_on_c, 0, 71, 92
2, 74304, Note_off_c, 0, 71, 64
2, 74304, Note_on_c, 0, 64, 92
2, 74496, Note_off_c, 0, 64, 64
2, 74496, Note_on_c, 0, 72, 92
2, 74688, Note_off_c, 0, 72, 64
2, 74688, Note_on_c, 0, 71, 92
2, 74784, Note_off_c, 0, 71, 64
2, 74784, Note_on_c, 0, 72, 92
2, 74880, Note_off_c, 0, 72, 64
2, 74880, Note_on_c, 0, 69, 92
2, 75072, Note_off_c, 0, 69, 64
2, 75072, Note_on_c, 0, 76, 92
2, 75168, Note_off_c, 0, 76, 64
2, 75168, Note_on_c, 0, 74, 92
2, 75264, Note_off_c, 0, 74, 64
2, 75264, Note_on_c, 0, 72, 92
2, 75360, Note_off_c, 0, 72, 64
2, 75360, Note_on_c, 0, 76, 92
2, 75456, Note_off_c, 0, 76, 64
2, 75456, Note_on_c, 0, 69, 92
2, 75552, Note_off_c, 0, 69, 64
2, 75552, Note_on_c, 0, 76, 92
2, 75648, Note_off_c, 0, 76, 64
2, 75648, Note_on_c, 0, 72, 92
2, 75744, Note_off_c, 0, 72, 64
2, 75744, Note_on_c, 0, 76, 92
2, 75840, Note_off_c, 0, 76, 64
2, 75840, Note_on_c, 0, 69, 92
2, 75936, Note_off_c, 0, 69, 64
2, 75936, Note_on_c, 0, 76, 92
2, 76032, Note_off_c, 0, 76, 64
2, 76032, Note_on_c, 0, 77, 92
2, 76224, Note_off_c, 0, 77, 64
2, 76224, Note_on_c, 0, 69, 92
2, 76416, Note_off_c, 0, 69, 64
2, 76416, Note_on_c, 0, 71, 92
2, 76608, Note_off_c, 0, 71, 64
2, 76608, Note_on_c, 0, 74, 92
2, 76704, Note_off_c, 0, 74, 64
2, 76704, Note_on_c, 0, 72, 92
2, 76800, Note_off_c, 0, 72, 64
2, 76800, Note_on_c, 0, 71, 92
2, 76896, Note_off_c, 0, 71, 64
2, 76896, Note_on_c, 0, 74, 92
2, 76992, Note_off_c, 0, 74, 64
2, 76992, Note_on_c, 0, 67, 92
2, 77088, Note_off_c, 0, 67, 64
2, 77088, Note_on_c, 0, 74, 92
2, 77184, Note_off_c, 0, 74, 64
2, 77184, Note_on_c, 0, 71, 92
2, 77280, Note_off_c, 0, 71, 64
2, 77280, Note_on_c, 0, 74, 92
2, 77376, Note_off_c, 0, 74, 64
2, 77376, Note_on_c, 0, 67, 92
2, 77472, Note_off_c, 0, 67, 64
2, 77472, Note_on_c, 0, 74, 92
2, 77568, Note_off_c, 0, 74, 64
2, 77568, Note_on_c, 0, 76, 92
2, 77760, Note_off_c, 0, 76, 64
2, 77760, Note_on_c, 0, 67, 92
2, 77952, Note_off_c, 0, 67, 64
2, 77952, Note_on_c, 0, 69, 92
2, 78144, Note_off_c, 0, 69, 64
2, 78144, Note_on_c, 0, 72, 92
2, 78240, Note_off_c, 0, 72, 64
2, 78240, Note_on_c, 0, 71, 92
2, 78336, Note_off_c, 0, 71, 64
2, 78336, Note_on_c, 0, 69, 92
2, 78528, Note_off_c, 0, 69, 64
2, 78528, Note_on_c, 0, 76, 92
2, 78912, Note_off_c, 0, 76, 64
2, 78912, Note_on_c, 0, 75, 92
2, 79104, Note_off_c, 0, 75, 64
2, 79104, Note_on_c, 0, 76, 92
2, 79104, Note_on_c, 0, 64, 92
2, 79296, Note_off_c, 0, 64, 64
2, 79296, Note_on_c, 0, 59, 92
2, 79488, Note_off_c, 0, 59, 64
2, 79488, Note_off_c, 0, 76, 64
2, 79488, Note_on_c, 0, 74, 92
2, 79488, Note_on_c, 0, 66, 92
2, 79680, Note_off_c, 0, 66, 64
2, 79680, Note_on_c, 0, 59, 92
2, 79872, Note_off_c, 0, 59, 64
2, 79872, Note_off_c, 0, 74, 64
2, 79872, Note_on_c, 0, 76, 92
2, 79872, Note_on_c, 0, 67, 92
2, 80064, Note_off_c, 0, 67, 64
2, 80064, Note_on_c, 0, 66, 92
2, 80160, Note_off_c, 0, 66, 64
2, 80160, Note_on_c, 0, 67, 92
2, 80256, Note_off_c, 0, 67, 64
2, 80256, Note_off_c, 0, 76, 64
2, 80256, Note_on_c, 0, 64, 92
2, 80448, Note_off_c, 0, 64, 64
2, 80448, Note_on_c, 0, 71, 92
2, 80448, Note_on_c, 0, 75, 92
2, 80544, Note_off_c, 0, 71, 64
2, 80544, Note_on_c, 0, 69, 92
2, 80640, Note_off_c, 0, 69, 64
2, 80640, Note_off_c, 0, 75, 64
2, 80640, Note_on_c, 0, 67, 92
2, 80640, Note_on_c, 0, 76, 92
2, 80736, Note_off_c, 0, 67, 64
2, 80736, Note_on_c, 0, 71, 92
2, 80832, Note_off_c, 0, 71, 64
2, 80832, Note_off_c, 0, 76, 64
2, 80832, Note_on_c, 0, 64, 92
2, 80832, Note_on_c, 0, 79, 92
2, 80928, Note_off_c, 0, 64, 64
2, 80928, Note_on_c, 0, 71, 92
2, 81024, Note_off_c, 0, 71, 64
2, 81024, Note_off_c, 0, 79, 64
2, 81024, Note_on_c, 0, 67, 92
2, 81024, Note_on_c, 0, 76, 92
2, 81120, Note_off_c, 0, 67, 64
2, 81120, Note_on_c, 0, 71, 92
2, 81216, Note_off_c, 0, 71, 64
2, 81216, Note_off_c, 0, 76, 64
2, 81216, Note_on_c, 0, 64, 92
2, 81216, Note_on_c, 0, 79, 92
2, 81312, Note_off_c, 0, 64, 64
2, 81312, Note_on_c, 0, 71, 92
2, 81408, Note_off_c, 0, 71, 64
2, 81408, Note_off_c, 0, 79, 64
2, 81408, Note_on_c, 0, 72, 92
2, 81408, Note_on_c, 0, 81, 92
2, 81600, Note_off_c, 0, 81, 64
2, 81600, Note_off_c, 0, 72, 64
2, 81600, Note_on_c, 0, 84, 92
2, 81600, Note_on_c, 0, 64, 92
2, 81696, Note_off_c, 0, 84, 64
2, 81696, Note_on_c, 0, 83, 92
2, 81792, Note_off_c, 0, 83, 64
2, 81792, Note_off_c, 0, 64, 64
2, 81792, Note_on_c, 0, 81, 92
2, 81792, Note_on_c, 0, 66, 92
2, 81984, Note_off_c, 0, 66, 64
2, 81984, Note_off_c, 0, 81, 64
2, 81984, Note_on_c, 0, 69, 92
2, 81984, Note_on_c, 0, 78, 92
2, 82080, Note_off_c, 0, 78, 64
2, 82080, Note_off_c, 0, 69, 64
2, 82080, Note_on_c, 0, 67, 92
2, 82080, Note_on_c, 0, 76, 92
2, 82176, Note_off_c, 0, 76, 64
2, 82176, Note_off_c, 0, 67, 64
2, 82176, Note_on_c, 0, 66, 92
2, 82176, Note_on_c, 0, 74, 92
2, 82272, Note_off_c, 0, 66, 64
2, 82272, Note_on_c, 0, 69, 92
2, 82368, Note_off_c, 0, 69, 64
2, 82368, Note_off_c, 0, 74, 64
2, 82368, Note_on_c, 0, 62, 92
2, 82368, Note_on_c, 0, 78, 92
2, 82464, Note_off_c, 0, 62, 64
2, 82464, Note_on_c, 0, 69, 92
2, 82560, Note_off_c, 0, 69, 64
2, 82560, Note_off_c, 0, 78, 64
2, 82560, Note_on_c, 0, 66, 92
2, 82560, Note_on_c, 0, 74, 92
2, 82656, Note_off_c, 0, 66, 64
2, 82656, Note_on_c, 0, 69, 92
2, 82752, Note_off_c, 0, 69, 64
2, 82752, Note_off_c, 0, 74, 64
2, 82752, Note_on_c, 0, 62, 92
2, 82752, Note_on_c, 0, 78, 92
2, 82848, Note_off_c, 0, 62, 64
2, 82848, Note_on_c, 0, 69, 92
2, 82944, Note_off_c, 0, 69, 64
2, 82944, Note_off_c, 0, 78, 64
2, 82944, Note_on_c, 0, 71, 92
2, 82944, Note_on_c, 0, 79, 92
2, 83136, Note_off_c, 0, 79, 64
2, 83136, Note_off_c, 0, 71, 64
2, 83136, Note_on_c, 0, 83, 92
2, 83136, Note_on_c, 0, 62, 92
2, 83232, Note_off_c, 0, 83, 64
2, 83232, Note_on_c, 0, 81, 92
2, 83328, Note_off_c, 0, 81, 64
2, 83328, Note_off_c, 0, 62, 64
2, 83328, Note_on_c, 0, 79, 92
2, 83328, Note_on_c, 0, 64, 92
2, 83520, Note_off_c, 0, 64, 64
2, 83520, Note_off_c, 0, 79, 64
2, 83520, Note_on_c, 0, 67, 92
2, 83520, Note_on_c, 0, 76, 92
2, 83616, Note_off_c, 0, 67, 64
2, 83616, Note_on_c, 0, 66, 92
2, 83712, Note_off_c, 0, 66, 64
2, 83712, Note_on_c, 0, 64, 92
2, 83904, Note_off_c, 0, 64, 64
2, 83904, Note_off_c, 0, 76, 64
2, 83904, Note_on_c, 0, 69, 92
2, 83904, Note_on_c, 0, 72, 92
2, 84096, Note_off_c, 0, 72, 64
2, 84096, Note_on_c, 0, 71, 92
2, 84288, Note_off_c, 0, 71, 64
2, 84288, Note_off_c, 0, 69, 64
2, 84288, Note_on_c, 0, 76, 92
2, 84288, Note_on_c, 0, 68, 92
2, 84384, Note_off_c, 0, 76, 64
2, 84384, Note_on_c, 0, 74, 92
2, 84480, Note_off_c, 0, 74, 64
2, 84480, Note_off_c, 0, 68, 64
2, 84480, Note_on_c, 0, 72, 92
2, 84480, Note_on_c, 0, 69, 92
2, 84576, Note_off_c, 0, 72, 64
2, 84576, Note_on_c, 0, 81, 92
2, 84672, Note_off_c, 0, 81, 64
2, 84672, Note_on_c, 0, 76, 92
2, 84768, Note_off_c, 0, 76, 64
2, 84768, Note_on_c, 0, 81, 92
2, 84864, Note_off_c, 0, 81, 64
2, 84864, Note_off_c, 0, 69, 64
2, 84864, Note_on_c, 0, 72, 92
2, 84960, Note_off_c, 0, 72, 64
2, 84960, Note_on_c, 0, 81, 92
2, 85056, Note_off_c, 0, 81, 64
2, 85056, Note_on_c, 0, 69, 92
2, 85056, Note_on_c, 0, 76, 92
2, 85152, Note_off_c, 0, 76, 64
2, 85152, Note_on_c, 0, 81, 92
2, 85248, Note_off_c, 0, 81, 64
2, 85248, Note_off_c, 0, 69, 64
2, 85248, Note_on_c, 0, 71, 92
2, 85248, Note_on_c, 0, 75, 92
2, 85344, Note_off_c, 0, 75, 64
2, 85344, Note_on_c, 0, 81, 92
2, 85440, Note_off_c, 0, 81, 64
2, 85440, Note_on_c, 0, 78, 92
2, 85536, Note_off_c, 0, 78, 64
2, 85536, Note_on_c, 0, 81, 92
2, 85632, Note_off_c, 0, 81, 64
2, 85632, Note_off_c, 0, 71, 64
2, 85632, Note_on_c, 0, 75, 92
2, 85728, Note_off_c, 0, 75, 64
2, 85728, Note_on_c, 0, 81, 92
2, 85824, Note_off_c, 0, 81, 64
2, 85824, Note_on_c, 0, 59, 92
2, 85824, Note_on_c, 0, 78, 92
2, 85920, Note_off_c, 0, 78, 64
2, 85920, Note_on_c, 0, 81, 92
2, 86016, Note_off_c, 0, 81, 64
2, 86016, Note_off_c, 0, 59, 64
2, 86016, Note_on_c, 0, 64, 92
2, 86016, Note_on_c, 0, 71, 92
2, 86112, Note_off_c, 0, 71, 64
2, 86112, Note_on_c, 0, 79, 92
2, 86208, Note_off_c, 0, 79, 64
2, 86208, Note_on_c, 0, 76, 92
2, 86304, Note_off_c, 0, 76, 64
2, 86304, Note_on_c, 0, 79, 92
2, 86400, Note_off_c, 0, 79, 64
2, 86400, Note_off_c, 0, 64, 64
2, 86400, Note_on_c, 0, 69, 92
2, 86400, Note_on_c, 0, 73, 92
2, 86496, Note_off_c, 0, 73, 64
2, 86496, Note_on_c, 0, 79, 92
2, 86592, Note_off_c, 0, 79, 64
2, 86592, Note_on_c, 0, 76, 92
2, 86688, Note_off_c, 0, 76, 64
2, 86688, Note_on_c, 0, 79, 92
2, 86784, Note_off_c, 0, 79, 64
2, 86784, Note_off_c, 0, 69, 64
2, 86784, Note_on_c, 0, 62, 92
2, 86784, Note_on_c, 0, 69, 92
2, 86880, Note_off_c, 0, 69, 64
2, 86880, Note_on_c, 0, 77, 92
2, 86976, Note_off_c, 0, 77, 64
2, 86976, Note_on_c, 0, 74, 92
2, 87072, Note_off_c, 0, 74, 64
2, 87072, Note_on_c, 0, 77, 92
2, 87168, Note_off_c, 0, 77, 64
2, 87168, Note_off_c, 0, 62, 64
2, 87168, Note_on_c, 0, 67, 92
2, 87168, Note_on_c, 0, 71, 92
2, 87264, Note_off_c, 0, 71, 64
2, 87264, Note_on_c, 0, 77, 92
2, 87360, Note_off_c, 0, 77, 64
2, 87360, Note_on_c, 0, 74, 92
2, 87456, Note_off_c, 0, 74, 64
2, 87456, Note_on_c, 0, 77, 92
2, 87552, Note_off_c, 0, 77, 64
2, 87552, Note_off_c, 0, 67, 64
2, 87552, Note_on_c, 0, 67, 92
2, 87552, Note_on_c, 0, 60, 92
2, 87648, Note_off_c, 0, 67, 64
2, 87648, Note_on_c, 0, 76, 92
2, 87744, Note_off_c, 0, 76, 64
2, 87744, Note_on_c, 0, 72, 92
2, 87840, Note_off_c, 0, 72, 64
2, 87840, Note_on_c, 0, 76, 92
2, 87936, Note_off_c, 0, 76, 64
2, 87936, Note_off_c, 0, 60, 64
2, 87936, Note_on_c, 0, 69, 92
2, 87936, Note_on_c, 0, 65, 92
2, 88032, Note_off_c, 0, 69, 64
2, 88032, Note_on_c, 0, 76, 92
2, 88128, Note_off_c, 0, 76, 64
2, 88128, Note_on_c, 0, 72, 92
2, 88224, Note_off_c, 0, 72, 64
2, 88224, Note_on_c, 0, 76, 92
2, 88320, Note_off_c, 0, 76, 64
2, 88320, Note_off_c, 0, 65, 64
2, 88320, Note_on_c, 0, 66, 92
2, 88320, Note_on_c, 0, 59, 92
2, 88416, Note_off_c, 0, 66, 64
2, 88416, Note_on_c, 0, 74, 92
2, 88512, Note_off_c, 0, 74, 64
2, 88512, Note_on_c, 0, 71, 92
2, 88608, Note_off_c, 0, 71, 64
2, 88608, Note_on_c, 0, 74, 92
2, 88704, Note_off_c, 0, 74, 64
2, 88704, Note_off_c, 0, 59, 64
2, 88704, Note_on_c, 0, 68, 92
2, 88704, Note_on_c, 0, 64, 92
2, 88800, Note_off_c, 0, 68, 64
2, 88800, Note_on_c, 0, 74, 92
2, 88896, Note_off_c, 0, 74, 64
2, 88896, Note_on_c, 0, 71, 92
2, 88992, Note_off_c, 0, 71, 64
2, 88992, Note_on_c, 0, 74, 92
2, 89088, Note_off_c, 0, 74, 64
2, 89088, Note_off_c, 0, 64, 64
2, 89088, Note_on_c, 0, 64, 92
2, 89088, Note_on_c, 0, 72, 92
2, 89472, Note_off_c, 0, 72, 64
2, 89472, Note_off_c, 0, 64, 64
2, 89472, Note_on_c, 0, 62, 92
2, 89472, Note_on_c, 0, 68, 92
2, 89856, Note_off_c, 0, 68, 64
2, 89856, Note_off_c, 0, 62, 64
2, 89856, Note_on_c, 0, 64, 92
2, 89856, Note_on_c, 0, 69, 92
2, 90240, Note_off_c, 0, 69, 64
2, 90240, Note_off_c, 0, 64, 64
2, 90240, Note_on_c, 0, 64, 92
2, 90240, Note_on_c, 0, 72, 92
2, 90432, Note_off_c, 0, 72, 64
2, 90432, Note_off_c, 0, 64, 64
2, 90432, Note_on_c, 0, 68, 92
2, 90432, Note_on_c, 0, 71, 92
2, 90624, Note_off_c, 0, 71, 64
2, 90624, Note_off_c, 0, 68, 64
2, 90624, Note_on_c, 0, 69, 92
2, 90624, Note_on_c, 0, 72, 92
2, 91008, Note_off_c, 0, 72, 64
2, 91008, Note_off_c, 0, 69, 64
2, 91200, Note_on_c, 0, 69, 92
2, 91200, Note_on_c, 0, 72, 92
2, 91392, Note_off_c, 0, 72, 64
2, 91392, Note_on_c, 0, 74, 92
2, 91584, Note_off_c, 0, 74, 64
2, 91584, Note_on_c, 0, 72, 92
2, 91776, Note_off_c, 0, 72, 64
2, 91776, Note_off_c, 0, 69, 64
2, 91776, Note_on_c, 0, 67, 92
2, 91776, Note_on_c, 0, 71, 92
2, 91968, Note_off_c, 0, 71, 64
2, 91968, Note_off_c, 0, 67, 64
2, 91968, Note_on_c, 0, 66, 92
2, 91968, Note_on_c, 0, 69, 92
2, 92160, Note_off_c, 0, 69, 64
2, 92160, Note_off_c, 0, 66, 64
2, 92160, Note_on_c, 0, 67, 92
2, 92160, Note_on_c, 0, 71, 92
2, 92544, Note_off_c, 0, 71, 64
2, 92544, Note_off_c, 0, 67, 64
2, 92736, Note_on_c, 0, 67, 92
2, 92736, Note_on_c, 0, 71, 92
2, 92928, Note_off_c, 0, 71, 64
2, 92928, Note_on_c, 0, 72, 92
2, 93120, Note_off_c, 0, 72, 64
2, 93120, Note_on_c, 0, 71, 92
2, 93312, Note_off_c, 0, 71, 64
2, 93312, Note_off_c, 0, 67, 64
2, 93312, Note_on_c, 0, 72, 92
2, 93312, Note_on_c, 0, 64, 92
2, 93888, Note_off_c, 0, 64, 64
2, 93888, Note_off_c, 0, 72, 64
2, 93888, Note_on_c, 0, 67, 92
2, 93888, Note_on_c, 0, 71, 92
2, 94080, Note_off_c, 0, 71, 64
2, 94080, Note_off_c, 0, 67, 64
2, 94080, Note_on_c, 0, 69, 92
2, 94080, Note_on_c, 0, 78, 92
2, 94464, Note_off_c, 0, 78, 64
2, 94464, Note_off_c, 0, 69, 64
2, 94464, Note_on_c, 0, 76, 92
2, 94464, Note_on_c, 0, 67, 92
2, 94848, Note_off_c, 0, 67, 64
2, 94848, Note_off_c, 0, 76, 64
2, 94848, Note_on_c, 0, 79, 92
2, 94848, Note_on_c, 0, 76, 92
2, 95616, Note_off_c, 0, 76, 64
2, 95616, Note_on_c, 0, 76, 92
2, 96000, Note_off_c, 0, 79, 64
2, 96000, Note_on_c, 0, 78, 92
2, 96384, Note_off_c, 0, 76, 64
2, 96384, Note_on_c, 0, 74, 92
2, 96768, Note_off_c, 0, 78, 64
2, 96768, Note_on_c, 0, 76, 92
2, 97152, Note_off_c, 0, 74, 64
2, 97152, Note_on_c, 0, 72, 92
2, 97536, Note_off_c, 0, 76, 64
2, 97536, Note_on_c, 0, 74, 92
2, 97920, Note_off_c, 0, 72, 64
2, 97920, Note_on_c, 0, 71, 92
2, 98304, Note_off_c, 0, 74, 64
2, 98304, Note_on_c, 0, 73, 92
2, 98688, Note_off_c, 0, 71, 64
2, 98688, Note_on_c, 0, 69, 92
2, 99072, Note_off_c, 0, 73, 64
2, 99072, Note_on_c, 0, 71, 92
2, 99456, Note_off_c, 0, 69, 64
2, 99456, Note_on_c, 0, 67, 92
2, 99840, Note_off_c, 0, 67, 64
2, 99840, Note_off_c, 0, 71, 64
2, 99840, Note_on_c, 0, 69, 92
2, 99840, Note_on_c, 0, 78, 92
2, 100416, Note_off_c, 0, 69, 64
2, 100416, Note_on_c, 0, 71, 92
2, 100512, Note_off_c, 0, 71, 64
2, 100512, Note_on_c, 0, 69, 92
2, 100608, Note_off_c, 0, 69, 64
2, 100608, Note_off_c, 0, 78, 64
2, 100608, Note_on_c, 0, 67, 92
2, 100608, Note_on_c, 0, 76, 92
2, 100992, Note_off_c, 0, 67, 64
2, 100992, Note_on_c, 0, 69, 92
2, 101184, Note_off_c, 0, 76, 64
2, 101184, Note_on_c, 0, 75, 92
2, 101376, Note_off_c, 0, 75, 64
2, 101376, Note_off_c, 0, 69, 64
2, 101376, Note_on_c, 0, 67, 92
2, 101376, Note_on_c, 0, 71, 92
2, 101376, Note_on_c, 0, 76, 92
2, 101760, Note_off_c, 0, 76, 64
2, 101760, Note_off_c, 0, 71, 64
2, 101760, Note_off_c, 0, 67, 64
2, 101760, Note_on_c, 0, 69, 92
2, 101760, Note_on_c, 0, 75, 92
2, 102144, Note_off_c, 0, 75, 64
2, 102144, Note_off_c, 0, 69, 64
2, 102144, Note_on_c, 0, 67, 92
2, 102144, Note_on_c, 0, 71, 92
2, 102144, Note_on_c, 0, 76, 92
2, 102528, Note_off_c, 0, 76, 64
2, 102528, Note_off_c, 0, 71, 64
2, 102528, Note_off_c, 0, 67, 64
2, 102720, Note_on_c, 0, 75, 92
2, 102720, Note_on_c, 0, 66, 92
2, 102720, Note_on_c, 0, 71, 92
2, 102912, Note_off_c, 0, 71, 64
2, 102912, Note_off_c, 0, 66, 64
2, 102912, Note_off_c, 0, 75, 64
2, 102912, Note_on_c, 0, 67, 92
2, 102912, Note_on_c, 0, 71, 92
2, 102912, Note_on_c, 0, 76, 92
2, 103296, Note_off_c, 0, 76, 64
2, 103296, Note_off_c, 0, 71, 64
2, 103296, Note_off_c, 0, 67, 64
2, 103488, Note_on_c, 0, 67, 92
2, 103488, Note_on_c, 0, 71, 92
2, 103488, Note_on_c, 0, 76, 92
2, 103680, Note_off_c, 0, 76, 64
2, 103680, Note_off_c, 0, 71, 64
2, 103680, Note_off_c, 0, 67, 64
2, 103680, Note_on_c, 0, 64, 92
2, 103680, Note_on_c, 0, 69, 92
2, 103680, Note_on_c, 0, 72, 92
2, 103872, Note_off_c, 0, 64, 64
2, 103872, Note_on_c, 0, 67, 92
2, 104064, Note_off_c, 0, 67, 64
2, 104064, Note_off_c, 0, 72, 64
2, 104064, Note_off_c, 0, 69, 64
2, 104064, Note_on_c, 0, 62, 92
2, 104064, Note_on_c, 0, 66, 92
2, 104064, Note_on_c, 0, 69, 92
2, 104448, Note_off_c, 0, 69, 64
2, 104448, Note_off_c, 0, 66, 64
2, 104448, Note_off_c, 0, 62, 64
2, 104640, Note_on_c, 0, 66, 92
2, 104640, Note_on_c, 0, 69, 92
2, 104640, Note_on_c, 0, 74, 92
2, 104832, Note_off_c, 0, 74, 64
2, 104832, Note_off_c, 0, 69, 64
2, 104832, Note_off_c, 0, 66, 64
2, 104832, Note_on_c, 0, 66, 92
2, 104832, Note_on_c, 0, 69, 92
2, 104832, Note_on_c, 0, 72, 92
2, 105216, Note_off_c, 0, 72, 64
2, 105216, Note_off_c, 0, 69, 64
2, 105216, Note_off_c, 0, 66, 64
2, 105216, Note_on_c, 0, 67, 92
2, 105216, Note_on_c, 0, 62, 92
2, 105216, Note_on_c, 0, 71, 92
2, 105408, Note_off_c, 0, 67, 64
2, 105408, Note_on_c, 0, 66, 92
2, 105600, Note_off_c, 0, 66, 64
2, 105600, Note_off_c, 0, 71, 64
2, 105600, Note_off_c, 0, 62, 64
2, 105600, Note_on_c, 0, 64, 92
2, 105600, Note_on_c, 0, 67, 92
2, 105600, Note_on_c, 0, 71, 92
2, 106176, Note_off_c, 0, 71, 64
2, 106176, Note_off_c, 0, 67, 64
2, 106176, Note_off_c, 0, 64, 64
2, 106176, Note_on_c, 0, 64, 92
2, 106176, Note_on_c, 0, 69, 92
2, 106176, Note_on_c, 0, 72, 92
2, 106368, Note_off_c, 0, 72, 64
2, 106368, Note_off_c, 0, 69, 64
2, 106368, Note_off_c, 0, 64, 64
2, 106368, Note_on_c, 0, 62, 92
2, 106368, Note_on_c, 0, 71, 92
2, 106368, Note_on_c, 0, 65, 92
2, 106560, Note_off_c, 0, 65, 64
2, 106560, Note_on_c, 0, 64, 92
2, 106752, Note_off_c, 0, 64, 64
2, 106752, Note_off_c, 0, 71, 64
2, 106752, Note_off_c, 0, 62, 64
2, 106752, Note_on_c, 0, 60, 92
2, 106752, Note_on_c, 0, 64, 92
2, 106752, Note_on_c, 0, 69, 92
2, 107136, Note_off_c, 0, 69, 64
2, 107136, Note_off_c, 0, 64, 64
2, 107136, Note_on_c, 0, 64, 92
2, 107328, Note_off_c, 0, 64, 64
2, 107328, Note_on_c, 0, 69, 92
2, 107520, Note_off_c, 0, 60, 64
2, 107520, Note_on_c, 0, 59, 92
2, 107904, Note_off_c, 0, 69, 64
2, 107904, Note_on_c, 0, 67, 92
2, 108288, Note_off_c, 0, 59, 64
2, 108288, Note_on_c, 0, 57, 92
2, 108672, Note_off_c, 0, 67, 64
2, 108672, Note_on_c, 0, 65, 92
2, 109056, Note_off_c, 0, 57, 64
2, 109056, Note_on_c, 0, 55, 92
2, 109440, Note_off_c, 0, 65, 64
2, 109440, Note_on_c, 0, 64, 92
2, 109824, Note_off_c, 0, 64, 64
2, 109824, Note_off_c, 0, 55, 64
2, 109824, Note_on_c, 0, 66, 92
2, 109824, Note_on_c, 0, 57, 92
2, 109920, Note_off_c, 0, 66, 64
2, 109920, Note_on_c, 0, 62, 92
2, 110016, Note_off_c, 0, 62, 64
2, 110016, Note_on_c, 0, 64, 92
2, 110112, Note_off_c, 0, 64, 64
2, 110112, Note_on_c, 0, 66, 92
2, 110208, Note_off_c, 0, 66, 64
2, 110208, Note_off_c, 0, 57, 64
2, 110208, Note_on_c, 0, 62, 92
2, 110208, Note_on_c, 0, 67, 92
2, 110400, Note_off_c, 0, 67, 64
2, 110400, Note_off_c, 0, 62, 64
2, 110400, Note_on_c, 0, 67, 92
2, 110400, Note_on_c, 0, 71, 92
2, 110592, Note_off_c, 0, 71, 64
2, 110592, Note_on_c, 0, 72, 92
2, 110688, Note_off_c, 0, 67, 64
2, 110688, Note_on_c, 0, 67, 92
2, 110784, Note_off_c, 0, 67, 64
2, 110784, Note_on_c, 0, 66, 92
2, 110880, Note_off_c, 0, 66, 64
2, 110880, Note_on_c, 0, 64, 92
2, 110976, Note_off_c, 0, 64, 64
2, 110976, Note_on_c, 0, 66, 92
2, 111072, Note_off_c, 0, 72, 64
2, 111072, Note_on_c, 0, 72, 92
2, 111168, Note_off_c, 0, 72, 64
2, 111168, Note_on_c, 0, 71, 92
2, 111264, Note_off_c, 0, 71, 64
2, 111264, Note_on_c, 0, 69, 92
2, 111360, Note_off_c, 0, 69, 64
2, 111360, Note_on_c, 0, 71, 92
2, 111456, Note_off_c, 0, 66, 64
2, 111456, Note_on_c, 0, 66, 92
2, 111552, Note_off_c, 0, 66, 64
2, 111552, Note_on_c, 0, 64, 92
2, 111648, Note_off_c, 0, 64, 64
2, 111648, Note_on_c, 0, 62, 92
2, 111744, Note_off_c, 0, 62, 64
2, 111744, Note_on_c, 0, 64, 92
2, 111840, Note_off_c, 0, 71, 64
2, 111840, Note_on_c, 0, 71, 92
2, 111936, Note_off_c, 0, 71, 64
2, 111936, Note_on_c, 0, 69, 92
2, 112032, Note_off_c, 0, 69, 64
2, 112032, Note_on_c, 0, 67, 92
2, 112128, Note_off_c, 0, 67, 64
2, 112128, Note_on_c, 0, 69, 92
2, 112224, Note_off_c, 0, 64, 64
2, 112224, Note_on_c, 0, 64, 92
2, 112320, Note_off_c, 0, 64, 64
2, 112320, Note_on_c, 0, 63, 92
2, 112416, Note_off_c, 0, 63, 64
2, 112416, Note_on_c, 0, 61, 92
2, 112512, Note_off_c, 0, 61, 64
2, 112512, Note_on_c, 0, 63, 92
2, 112608, Note_off_c, 0, 69, 64
2, 112608, Note_on_c, 0, 69, 92
2, 112704, Note_off_c, 0, 69, 64
2, 112704, Note_on_c, 0, 67, 92
2, 112800, Note_off_c, 0, 67, 64
2, 112800, Note_on_c, 0, 66, 92
2, 112896, Note_off_c, 0, 66, 64
2, 112896, Note_off_c, 0, 63, 64
2, 112896, Note_on_c, 0, 67, 92
2, 112896, Note_on_c, 0, 64, 92
2, 112992, Note_off_c, 0, 64, 64
2, 112992, Note_on_c, 0, 59, 92
2, 113088, Note_off_c, 0, 59, 64
2, 113088, Note_on_c, 0, 64, 92
2, 113280, Note_off_c, 0, 67, 64
2, 113280, Note_on_c, 0, 69, 92
2, 113472, Note_off_c, 0, 64, 64
2, 113472, Note_on_c, 0, 63, 92
2, 113664, Note_off_c, 0, 63, 64
2, 113664, Note_off_c, 0, 69, 64
2, 113664, Note_on_c, 0, 64, 92
2, 113664, Note_on_c, 0, 67, 92
2, 113664, Note_on_c, 0, 76, 92
2, 113856, Note_off_c, 0, 76, 64
2, 113856, Note_on_c, 0, 71, 92
2, 114048, Note_off_c, 0, 71, 64
2, 114048, Note_off_c, 0, 67, 64
2, 114048, Note_off_c, 0, 64, 64
2, 114048, Note_on_c, 0, 63, 92
2, 114048, Note_on_c, 0, 78, 92
2, 114240, Note_off_c, 0, 78, 64
2, 114240, Note_on_c, 0, 71, 92
2, 114432, Note_off_c, 0, 71, 64
2, 114432, Note_off_c, 0, 63, 64
2, 114432, Note_on_c, 0, 64, 92
2, 114432, Note_on_c, 0, 79, 92
2, 114624, Note_off_c, 0, 79, 64
2, 114624, Note_on_c, 0, 78, 92
2, 114720, Note_off_c, 0, 78, 64
2, 114720, Note_on_c, 0, 79, 92
2, 114816, Note_off_c, 0, 79, 64
2, 114816, Note_off_c, 0, 64, 64
2, 114816, Note_on_c, 0, 76, 92
2, 115008, Note_off_c, 0, 76, 64
2, 115008, Note_on_c, 0, 83, 92
2, 115008, Note_on_c, 0, 63, 92
2, 115104, Note_off_c, 0, 83, 64
2, 115104, Note_on_c, 0, 81, 92
2, 115200, Note_off_c, 0, 81, 64
2, 115200, Note_off_c, 0, 63, 64
2, 115200, Note_on_c, 0, 79, 92
2, 115200, Note_on_c, 0, 64, 92
2, 115296, Note_off_c, 0, 79, 64
2, 115296, Note_on_c, 0, 83, 92
2, 115392, Note_off_c, 0, 83, 64
2, 115392, Note_on_c, 0, 76, 92
2, 115488, Note_off_c, 0, 76, 64
2, 115488, Note_on_c, 0, 83, 92
2, 115584, Note_off_c, 0, 83, 64
2, 115584, Note_off_c, 0, 64, 64
2, 115584, Note_on_c, 0, 79, 92
2, 115680, Note_off_c, 0, 79, 64
2, 115680, Note_on_c, 0, 83, 92
2, 115776, Note_off_c, 0, 83, 64
2, 115776, Note_on_c, 0, 76, 92
2, 115776, Note_on_c, 0, 64, 92
2, 115872, Note_off_c, 0, 76, 64
2, 115872, Note_on_c, 0, 83, 92
2, 115968, Note_off_c, 0, 83, 64
2, 115968, Note_off_c, 0, 64, 64
2, 115968, Note_on_c, 0, 84, 92
2, 115968, Note_on_c, 0, 60, 92
2, 116160, Note_off_c, 0, 84, 64
2, 116160, Note_on_c, 0, 76, 92
2, 116352, Note_off_c, 0, 76, 64
2, 116352, Note_off_c, 0, 60, 64
2, 116352, Note_on_c, 0, 78, 92
2, 116352, Note_on_c, 0, 62, 92
2, 116544, Note_off_c, 0, 78, 64
2, 116544, Note_on_c, 0, 81, 92
2, 116640, Note_off_c, 0, 81, 64
2, 116640, Note_on_c, 0, 79, 92
2, 116736, Note_off_c, 0, 79, 64
2, 116736, Note_off_c, 0, 62, 64
2, 116736, Note_on_c, 0, 78, 92
2, 116736, Note_on_c, 0, 62, 92
2, 116832, Note_off_c, 0, 78, 64
2, 116832, Note_on_c, 0, 81, 92
2, 116928, Note_off_c, 0, 81, 64
2, 116928, Note_on_c, 0, 74, 92
2, 117024, Note_off_c, 0, 74, 64
2, 117024, Note_on_c, 0, 81, 92
2, 117120, Note_off_c, 0, 81, 64
2, 117120, Note_off_c, 0, 62, 64
2, 117120, Note_on_c, 0, 78, 92
2, 117216, Note_off_c, 0, 78, 64
2, 117216, Note_on_c, 0, 81, 92
2, 117312, Note_off_c, 0, 81, 64
2, 117312, Note_on_c, 0, 74, 92
2, 117312, Note_on_c, 0, 62, 92
2, 117408, Note_off_c, 0, 74, 64
2, 117408, Note_on_c, 0, 81, 92
2, 117504, Note_off_c, 0, 81, 64
2, 117504, Note_off_c, 0, 62, 64
2, 117504, Note_on_c, 0, 83, 92
2, 117504, Note_on_c, 0, 59, 92
2, 117696, Note_off_c, 0, 83, 64
2, 117696, Note_on_c, 0, 74, 92
2, 117888, Note_off_c, 0, 74, 64
2, 117888, Note_off_c, 0, 59, 64
2, 117888, Note_on_c, 0, 76, 92
2, 117888, Note_on_c, 0, 60, 92
2, 118080, Note_off_c, 0, 76, 64
2, 118080, Note_on_c, 0, 79, 92
2, 118176, Note_off_c, 0, 79, 64
2, 118176, Note_on_c, 0, 78, 92
2, 118272, Note_off_c, 0, 78, 64
2, 118272, Note_off_c, 0, 60, 64
2, 118272, Note_on_c, 0, 60, 92
2, 118272, Note_on_c, 0, 76, 92
2, 118464, Note_off_c, 0, 76, 64
2, 118464, Note_on_c, 0, 81, 92
2, 118656, Note_off_c, 0, 60, 64
2, 118656, Note_on_c, 0, 62, 92
2, 118848, Note_off_c, 0, 81, 64
2, 118848, Note_on_c, 0, 80, 92
2, 119040, Note_off_c, 0, 80, 64
2, 119040, Note_off_c, 0, 62, 64
2, 119040, Note_on_c, 0, 81, 92
2, 119040, Note_on_c, 0, 60, 92
2, 119232, Note_off_c, 0, 81, 64
2, 119232, Note_on_c, 0, 79, 92
2, 119328, Note_off_c, 0, 79, 64
2, 119328, Note_on_c, 0, 77, 92
2, 119424, Note_off_c, 0, 77, 64
2, 119424, Note_off_c, 0, 60, 64
2, 119424, Note_on_c, 0, 76, 92
2, 119520, Note_off_c, 0, 76, 64
2, 119520, Note_on_c, 0, 81, 92
2, 119616, Note_off_c, 0, 81, 64
2, 119616, Note_on_c, 0, 79, 92
2, 119712, Note_off_c, 0, 79, 64
2, 119712, Note_on_c, 0, 81, 92
2, 119808, Note_off_c, 0, 81, 64
2, 119808, Note_on_c, 0, 77, 92
2, 119808, Note_on_c, 0, 74, 92
2, 120000, Note_off_c, 0, 74, 64
2, 120000, Note_on_c, 0, 72, 92
2, 120096, Note_off_c, 0, 72, 64
2, 120096, Note_on_c, 0, 71, 92
2, 120192, Note_off_c, 0, 71, 64
2, 120192, Note_off_c, 0, 77, 64
2, 120192, Note_on_c, 0, 69, 92
2, 120288, Note_off_c, 0, 69, 64
2, 120288, Note_on_c, 0, 74, 92
2, 120384, Note_off_c, 0, 74, 64
2, 120384, Note_on_c, 0, 72, 92
2, 120480, Note_off_c, 0, 72, 64
2, 120480, Note_on_c, 0, 74, 92
2, 120576, Note_off_c, 0, 74, 64
2, 120576, Note_on_c, 0, 71, 92
2, 120576, Note_on_c, 0, 79, 92
2, 120768, Note_off_c, 0, 79, 64
2, 120768, Note_on_c, 0, 77, 92
2, 120864, Note_off_c, 0, 77, 64
2, 120864, Note_on_c, 0, 76, 92
2, 120960, Note_off_c, 0, 76, 64
2, 120960, Note_off_c, 0, 71, 64
2, 120960, Note_on_c, 0, 74, 92
2, 121056, Note_off_c, 0, 74, 64
2, 121056, Note_on_c, 0, 79, 92
2, 121152, Note_off_c, 0, 79, 64
2, 121152, Note_on_c, 0, 77, 92
2, 121248, Note_off_c, 0, 77, 64
2, 121248, Note_on_c, 0, 79, 92
2, 121344, Note_off_c, 0, 79, 64
2, 121344, Note_on_c, 0, 76, 92
2, 121344, Note_on_c, 0, 72, 92
2, 121536, Note_off_c, 0, 72, 64
2, 121536, Note_on_c, 0, 71, 92
2, 121632, Note_off_c, 0, 71, 64
2, 121632, Note_on_c, 0, 69, 92
2, 121728, Note_off_c, 0, 69, 64
2, 121728, Note_off_c, 0, 76, 64
2, 121728, Note_on_c, 0, 67, 92
2, 121824, Note_off_c, 0, 67, 64
2, 121824, Note_on_c, 0, 72, 92
2, 121920, Note_off_c, 0, 72, 64
2, 121920, Note_on_c, 0, 71, 92
2, 122016, Note_off_c, 0, 71, 64
2, 122016, Note_on_c, 0, 72, 92
2, 122112, Note_off_c, 0, 72, 64
2, 122112, Note_on_c, 0, 69, 92
2, 122112, Note_on_c, 0, 77, 92
2, 122304, Note_off_c, 0, 77, 64
2, 122304, Note_on_c, 0, 76, 92
2, 122400, Note_off_c, 0, 76, 64
2, 122400, Note_on_c, 0, 74, 92
2, 122496, Note_off_c, 0, 74, 64
2, 122496, Note_off_c, 0, 69, 64
2, 122496, Note_on_c, 0, 72, 92
2, 122592, Note_off_c, 0, 72, 64
2, 122592, Note_on_c, 0, 77, 92
2, 122688, Note_off_c, 0, 77, 64
2, 122688, Note_on_c, 0, 76, 92
2, 122784, Note_off_c, 0, 76, 64
2, 122784, Note_on_c, 0, 77, 92
2, 122880, Note_off_c, 0, 77, 64
2, 122880, Note_on_c, 0, 74, 92
2, 122880, Note_on_c, 0, 71, 92
2, 123072, Note_off_c, 0, 71, 64
2, 123072, Note_on_c, 0, 69, 92
2, 123168, Note_off_c, 0, 69, 64
2, 123168, Note_on_c, 0, 67, 92
2, 123264, Note_off_c, 0, 67, 64
2, 123264, Note_off_c, 0, 74, 64
2, 123264, Note_on_c, 0, 66, 92
2, 123360, Note_off_c, 0, 66, 64
2, 123360, Note_on_c, 0, 71, 92
2, 123456, Note_off_c, 0, 71, 64
2, 123456, Note_on_c, 0, 69, 92
2, 123552, Note_off_c, 0, 69, 64
2, 123552, Note_on_c, 0, 71, 92
2, 123648, Note_off_c, 0, 71, 64
2, 123648, Note_on_c, 0, 68, 92
2, 123648, Note_on_c, 0, 76, 92
2, 123840, Note_off_c, 0, 76, 64
2, 123840, Note_on_c, 0, 74, 92
2, 123936, Note_off_c, 0, 74, 64
2, 123936, Note_on_c, 0, 72, 92
2, 124032, Note_off_c, 0, 72, 64
2, 124032, Note_on_c, 0, 71, 92
2, 124128, Note_off_c, 0, 71, 64
2, 124128, Note_on_c, 0, 76, 92
2, 124224, Note_off_c, 0, 76, 64
2, 124224, Note_on_c, 0, 74, 92
2, 124320, Note_off_c, 0, 74, 64
2, 124320, Note_on_c, 0, 76, 92
2, 124416, Note_off_c, 0, 76, 64
2, 124416, Note_off_c, 0, 68, 64
2, 124416, Note_on_c, 0, 69, 92
2, 124512, Note_on_c, 0, 72, 92
2, 124608, Note_off_c, 0, 72, 64
2, 124608, Note_on_c, 0, 76, 92
2, 124704, Note_off_c, 0, 76, 64
2, 124704, Note_on_c, 0, 72, 92
2, 124800, Note_off_c, 0, 72, 64
2, 124800, Note_off_c, 0, 69, 64
2, 124800, Note_on_c, 0, 69, 92
2, 124896, Note_on_c, 0, 72, 92
2, 124992, Note_off_c, 0, 72, 64
2, 124992, Note_on_c, 0, 76, 92
2, 125088, Note_off_c, 0, 76, 64
2, 125088, Note_on_c, 0, 72, 92
2, 125184, Note_off_c, 0, 72, 64
2, 125184, Note_off_c, 0, 69, 64
2, 125184, Note_on_c, 0, 69, 92
2, 125280, Note_on_c, 0, 72, 92
2, 125376, Note_off_c, 0, 72, 64
2, 125376, Note_on_c, 0, 77, 92
2, 125472, Note_off_c, 0, 77, 64
2, 125472, Note_on_c, 0, 72, 92
2, 125568, Note_off_c, 0, 72, 64
2, 125568, Note_off_c, 0, 69, 64
2, 125568, Note_on_c, 0, 69, 92
2, 125664, Note_on_c, 0, 72, 92
2, 125760, Note_off_c, 0, 72, 64
2, 125760, Note_on_c, 0, 77, 92
2, 125856, Note_off_c, 0, 77, 64
2, 125856, Note_on_c, 0, 72, 92
2, 125952, Note_off_c, 0, 72, 64
2, 125952, Note_off_c, 0, 69, 64
2, 125952, Note_on_c, 0, 68, 92
2, 126048, Note_on_c, 0, 71, 92
2, 126144, Note_off_c, 0, 71, 64
2, 126144, Note_on_c, 0, 77, 92
2, 126240, Note_off_c, 0, 77, 64
2, 126240, Note_on_c, 0, 71, 92
2, 126336, Note_off_c, 0, 71, 64
2, 126336, Note_off_c, 0, 68, 64
2, 126336, Note_on_c, 0, 67, 92
2, 126432, Note_on_c, 0, 71, 92
2, 126528, Note_off_c, 0, 71, 64
2, 126528, Note_on_c, 0, 76, 92
2, 126624, Note_off_c, 0, 76, 64
2, 126624, Note_on_c, 0, 71, 92
2, 126720, Note_off_c, 0, 71, 64
2, 126720, Note_off_c, 0, 67, 64
2, 126720, Note_on_c, 0, 66, 92
2, 126816, Note_on_c, 0, 69, 92
2, 126912, Note_off_c, 0, 69, 64
2, 126912, Note_on_c, 0, 76, 92
2, 127008, Note_off_c, 0, 76, 64
2, 127008, Note_on_c, 0, 69, 92
2, 127104, Note_off_c, 0, 69, 64
2, 127104, Note_off_c, 0, 66, 64
2, 127104, Note_on_c, 0, 65, 92
2, 127200, Note_on_c, 0, 69, 92
2, 127296, Note_off_c, 0, 69, 64
2, 127296, Note_on_c, 0, 74, 92
2, 127392, Note_off_c, 0, 74, 64
2, 127392, Note_on_c, 0, 69, 92
2, 127488, Note_off_c, 0, 69, 64
2, 127488, Note_off_c, 0, 65, 64
2, 127488, Note_on_c, 0, 68, 92
2, 127488, Note_on_c, 0, 64, 92
2, 127584, Note_off_c, 0, 68, 64
2, 127584, Note_on_c, 0, 76, 92
2, 127680, Note_off_c, 0, 76, 64
2, 127680, Note_on_c, 0, 71, 92
2, 127776, Note_off_c, 0, 71, 64
2, 127776, Note_on_c, 0, 76, 92
2, 127872, Note_off_c, 0, 76, 64
2, 127872, Note_on_c, 0, 69, 92
2, 127968, Note_off_c, 0, 69, 64
2, 127968, Note_on_c, 0, 76, 92
2, 128064, Note_off_c, 0, 76, 64
2, 128064, Note_on_c, 0, 72, 92
2, 128160, Note_off_c, 0, 72, 64
2, 128160, Note_on_c, 0, 76, 92
2, 128256, Note_off_c, 0, 76, 64
2, 128256, Note_on_c, 0, 68, 92
2, 128352, Note_off_c, 0, 68, 64
2, 128352, Note_on_c, 0, 76, 92
2, 128448, Note_off_c, 0, 76, 64
2, 128448, Note_on_c, 0, 71, 92
2, 128544, Note_off_c, 0, 71, 64
2, 128544, Note_on_c, 0, 76, 92
2, 128640, Note_off_c, 0, 76, 64
2, 128640, Note_on_c, 0, 69, 92
2, 128736, Note_off_c, 0, 69, 64
2, 128736, Note_on_c, 0, 76, 92
2, 128832, Note_off_c, 0, 76, 64
2, 128832, Note_on_c, 0, 72, 92
2, 128928, Note_off_c, 0, 72, 64
2, 128928, Note_on_c, 0, 76, 92
2, 129024, Note_off_c, 0, 76, 64
2, 129024, Note_on_c, 0, 71, 92
2, 129120, Note_off_c, 0, 71, 64
2, 129120, Note_on_c, 0, 80, 92
2, 129216, Note_off_c, 0, 80, 64
2, 129216, Note_on_c, 0, 76, 92
2, 129312, Note_off_c, 0, 76, 64
2, 129312, Note_on_c, 0, 80, 92
2, 129408, Note_off_c, 0, 80, 64
2, 129408, Note_on_c, 0, 72, 92
2, 129504, Note_off_c, 0, 72, 64
2, 129504, Note_on_c, 0, 81, 92
2, 129600, Note_off_c, 0, 81, 64
2, 129600, Note_on_c, 0, 76, 92
2, 129696, Note_off_c, 0, 76, 64
2, 129696, Note_on_c, 0, 81, 92
2, 129792, Note_off_c, 0, 81, 64
2, 129792, Note_on_c, 0, 71, 92
2, 129888, Note_off_c, 0, 71, 64
2, 129888, Note_on_c, 0, 80, 92
2, 129984, Note_off_c, 0, 80, 64
2, 129984, Note_on_c, 0, 76, 92
2, 130080, Note_off_c, 0, 76, 64
2, 130080, Note_on_c, 0, 80, 92
2, 130176, Note_off_c, 0, 80, 64
2, 130176, Note_on_c, 0, 72, 92
2, 130272, Note_off_c, 0, 72, 64
2, 130272, Note_on_c, 0, 81, 92
2, 130368, Note_off_c, 0, 81, 64
2, 130368, Note_on_c, 0, 76, 92
2, 130464, Note_off_c, 0, 76, 64
2, 130464, Note_on_c, 0, 81, 92
2, 130560, Note_off_c, 0, 81, 64
2, 130560, Note_on_c, 0, 71, 92
2, 130656, Note_off_c, 0, 71, 64
2, 130656, Note_on_c, 0, 81, 92
2, 130752, Note_off_c, 0, 81, 64
2, 130752, Note_on_c, 0, 74, 92
2, 130848, Note_off_c, 0, 74, 64
2, 130848, Note_on_c, 0, 81, 92
2, 130944, Note_off_c, 0, 81, 64
2, 130944, Note_on_c, 0, 71, 92
2, 131040, Note_off_c, 0, 71, 64
2, 131040, Note_on_c, 0, 81, 92
2, 131136, Note_off_c, 0, 81, 64
2, 131136, Note_on_c, 0, 74, 92
2, 131232, Note_off_c, 0, 74, 64
2, 131232, Note_on_c, 0, 81, 92
2, 131328, Note_off_c, 0, 81, 64
2, 131328, Note_on_c, 0, 71, 92
2, 131424, Note_off_c, 0, 71, 64
2, 131424, Note_on_c, 0, 80, 92
2, 131520, Note_off_c, 0, 80, 64
2, 131520, Note_on_c, 0, 74, 92
2, 131616, Note_off_c, 0, 74, 64
2, 131616, Note_on_c, 0, 80, 92
2, 131712, Note_off_c, 0, 80, 64
2, 131712, Note_on_c, 0, 71, 92
2, 131808, Note_off_c, 0, 71, 64
2, 131808, Note_on_c, 0, 80, 92
2, 131904, Note_off_c, 0, 80, 64
2, 131904, Note_on_c, 0, 74, 92
2, 132000, Note_off_c, 0, 74, 64
2, 132000, Note_on_c, 0, 80, 92
2, 132096, Note_off_c, 0, 80, 64
2, 132096, Note_off_c, 0, 64, 64
2, 132096, Note_on_c, 0, 69, 92
2, 132096, Note_on_c, 0, 81, 92
2, 132288, Note_off_c, 0, 69, 64
2, 132288, Note_on_c, 0, 64, 92
2, 132480, Note_off_c, 0, 64, 64
2, 132480, Note_off_c, 0, 81, 64
2, 132480, Note_on_c, 0, 71, 92
2, 132480, Note_on_c, 0, 80, 92
2, 132672, Note_off_c, 0, 71, 64
2, 132672, Note_on_c, 0, 64, 92
2, 132864, Note_off_c, 0, 64, 64
2, 132864, Note_off_c, 0, 80, 64
2, 132864, Note_on_c, 0, 72, 92
2, 132864, Note_on_c, 0, 81, 92
2, 133056, Note_off_c, 0, 72, 64
2, 133056, Note_on_c, 0, 71, 92
2, 133152, Note_off_c, 0, 71, 64
2, 133152, Note_on_c, 0, 72, 92
2, 133248, Note_off_c, 0, 72, 64
2, 133248, Note_off_c, 0, 81, 64
2, 133248, Note_on_c, 0, 69, 92
2, 133440, Note_off_c, 0, 69, 64
2, 133440, Note_on_c, 0, 76, 92
2, 133440, Note_on_c, 0, 80, 92
2, 133536, Note_off_c, 0, 76, 64
2, 133536, Note_on_c, 0, 74, 92
2, 133632, Note_off_c, 0, 74, 64
2, 133632, Note_off_c, 0, 80, 64
2, 133632, Note_on_c, 0, 72, 92
2, 133632, Note_on_c, 0, 81, 92
2, 133728, Note_off_c, 0, 72, 64
2, 133728, Note_on_c, 0, 76, 92
2, 133824, Note_off_c, 0, 76, 64
2, 133824, Note_off_c, 0, 81, 64
2, 133824, Note_on_c, 0, 69, 92
2, 133824, Note_on_c, 0, 84, 92
2, 133920, Note_off_c, 0, 69, 64
2, 133920, Note_on_c, 0, 76, 92
2, 134016, Note_off_c, 0, 76, 64
2, 134016, Note_off_c, 0, 84, 64
2, 134016, Note_on_c, 0, 72, 92
2, 134016, Note_on_c, 0, 81, 92
2, 134112, Note_off_c, 0, 72, 64
2, 134112, Note_on_c, 0, 76, 92
2, 134208, Note_off_c, 0, 76, 64
2, 134208, Note_off_c, 0, 81, 64
2, 134208, Note_on_c, 0, 69, 92
2, 134208, Note_on_c, 0, 84, 92
2, 134304, Note_off_c, 0, 69, 64
2, 134304, Note_on_c, 0, 76, 92
2, 134400, Note_off_c, 0, 76, 64
2, 134400, Note_off_c, 0, 84, 64
2, 134400, Note_on_c, 0, 81, 92
2, 134400, Note_on_c, 0, 77, 92
2, 134496, Note_off_c, 0, 81, 64
2, 134496, Note_on_c, 0, 84, 92
2, 134592, Note_off_c, 0, 84, 64
2, 134592, Note_off_c, 0, 77, 64
2, 134592, Note_on_c, 0, 83, 92
2, 134592, Note_on_c, 0, 69, 92
2, 134688, Note_off_c, 0, 83, 64
2, 134688, Note_on_c, 0, 81, 92
2, 134784, Note_off_c, 0, 81, 64
2, 134784, Note_off_c, 0, 69, 64
2, 134784, Note_on_c, 0, 79, 92
2, 134784, Note_on_c, 0, 71, 92
2, 134976, Note_off_c, 0, 71, 64
2, 134976, Note_off_c, 0, 79, 64
2, 134976, Note_on_c, 0, 74, 92
2, 134976, Note_on_c, 0, 78, 92
2, 135072, Note_off_c, 0, 74, 64
2, 135072, Note_on_c, 0, 72, 92
2, 135168, Note_off_c, 0, 72, 64
2, 135168, Note_off_c, 0, 78, 64
2, 135168, Note_on_c, 0, 79, 92
2, 135168, Note_on_c, 0, 71, 92
2, 135264, Note_off_c, 0, 71, 64
2, 135264, Note_on_c, 0, 74, 92
2, 135360, Note_off_c, 0, 74, 64
2, 135360, Note_off_c, 0, 79, 64
2, 135360, Note_on_c, 0, 83, 92
2, 135360, Note_on_c, 0, 67, 92
2, 135456, Note_off_c, 0, 67, 64
2, 135456, Note_on_c, 0, 74, 92
2, 135552, Note_off_c, 0, 74, 64
2, 135552, Note_off_c, 0, 83, 64
2, 135552, Note_on_c, 0, 79, 92
2, 135552, Note_on_c, 0, 71, 92
2, 135648, Note_off_c, 0, 71, 64
2, 135648, Note_on_c, 0, 74, 92
2, 135744, Note_off_c, 0, 74, 64
2, 135744, Note_off_c, 0, 79, 64
2, 135744, Note_on_c, 0, 83, 92
2, 135744, Note_on_c, 0, 67, 92
2, 135840, Note_off_c, 0, 67, 64
2, 135840, Note_on_c, 0, 74, 92
2, 135936, Note_off_c, 0, 74, 64
2, 135936, Note_off_c, 0, 83, 64
2, 135936, Note_on_c, 0, 76, 92
2, 135936, Note_on_c, 0, 79, 92
2, 136032, Note_off_c, 0, 79, 64
2, 136032, Note_on_c, 0, 83, 92
2, 136128, Note_off_c, 0, 83, 64
2, 136128, Note_off_c, 0, 76, 64
2, 136128, Note_on_c, 0, 67, 92
2, 136128, Note_on_c, 0, 81, 92
2, 136224, Note_off_c, 0, 81, 64
2, 136224, Note_on_c, 0, 79, 92
2, 136320, Note_off_c, 0, 79, 64
2, 136320, Note_off_c, 0, 67, 64
2, 136320, Note_on_c, 0, 78, 92
2, 136320, Note_on_c, 0, 69, 92
2, 136512, Note_off_c, 0, 69, 64
2, 136512, Note_off_c, 0, 78, 64
2, 136512, Note_on_c, 0, 81, 92
2, 136512, Note_on_c, 0, 72, 92
2, 136608, Note_off_c, 0, 72, 64
2, 136608, Note_on_c, 0, 71, 92
2, 136704, Note_off_c, 0, 71, 64
2, 136704, Note_on_c, 0, 69, 92
2, 136896, Note_off_c, 0, 69, 64
2, 136896, Note_off_c, 0, 81, 64
2, 136896, Note_on_c, 0, 79, 92
2, 136896, Note_on_c, 0, 76, 92
2, 137088, Note_off_c, 0, 79, 64
2, 137088, Note_on_c, 0, 78, 92
2, 137280, Note_off_c, 0, 78, 64
2, 137280, Note_off_c, 0, 76, 64
2, 137280, Note_on_c, 0, 75, 92
2, 137280, Note_on_c, 0, 83, 92
2, 137376, Note_off_c, 0, 83, 64
2, 137376, Note_on_c, 0, 81, 92
2, 137472, Note_off_c, 0, 81, 64
2, 137472, Note_off_c, 0, 75, 64
2, 137472, Note_on_c, 0, 76, 92
2, 137472, Note_on_c, 0, 79, 92
2, 137856, Note_off_c, 0, 79, 64
2, 137856, Note_off_c, 0, 76, 64
2, 137856, Note_on_c, 0, 69, 92
2, 137856, Note_on_c, 0, 75, 92
2, 138240, Note_off_c, 0, 75, 64
2, 138240, Note_off_c, 0, 69, 64
2, 138240, Note_on_c, 0, 71, 92
2, 138240, Note_on_c, 0, 76, 92
2, 138432, Note_off_c, 0, 71, 64
2, 138432, Note_on_c, 0, 69, 92
2, 138528, Note_off_c, 0, 69, 64
2, 138528, Note_on_c, 0, 71, 92
2, 138624, Note_off_c, 0, 71, 64
2, 138624, Note_on_c, 0, 67, 92
2, 138816, Note_off_c, 0, 67, 64
2, 138816, Note_off_c, 0, 76, 64
2, 138816, Note_on_c, 0, 66, 92
2, 138816, Note_on_c, 0, 75, 92
2, 139008, Note_off_c, 0, 75, 64
2, 139008, Note_off_c, 0, 66, 64
2, 139008, Note_on_c, 0, 67, 92
2, 139008, Note_on_c, 0, 76, 92
2, 139392, Note_off_c, 0, 76, 64
2, 139392, Note_off_c, 0, 67, 64
2, 139584, Note_on_c, 0, 67, 92
2, 139584, Note_on_c, 0, 76, 92
2, 139776, Note_off_c, 0, 76, 64
2, 139776, Note_off_c, 0, 67, 64
2, 139776, Note_on_c, 0, 76, 92
2, 139776, Note_on_c, 0, 69, 92
2, 139968, Note_off_c, 0, 69, 64
2, 139968, Note_on_c, 0, 67, 92
2, 140160, Note_off_c, 0, 67, 64
2, 140160, Note_off_c, 0, 76, 64
2, 140160, Note_on_c, 0, 74, 92
2, 140160, Note_on_c, 0, 69, 92
2, 140352, Note_off_c, 0, 69, 64
2, 140352, Note_off_c, 0, 74, 64
2, 140352, Note_on_c, 0, 73, 92
2, 140352, Note_on_c, 0, 64, 92
2, 140544, Note_off_c, 0, 64, 64
2, 140544, Note_off_c, 0, 73, 64
2, 140544, Note_on_c, 0, 74, 92
2, 140544, Note_on_c, 0, 69, 92
2, 140736, Note_off_c, 0, 69, 64
2, 140736, Note_on_c, 0, 66, 92
2, 140928, Note_off_c, 0, 66, 64
2, 140928, Note_on_c, 0, 69, 92
2, 141120, Note_off_c, 0, 69, 64
2, 141120, Note_off_c, 0, 74, 64
2, 141120, Note_on_c, 0, 72, 92
2, 141120, Note_on_c, 0, 66, 92
2, 141312, Note_off_c, 0, 66, 64
2, 141312, Note_off_c, 0, 72, 64
2, 141312, Note_on_c, 0, 71, 92
2, 141312, Note_on_c, 0, 67, 92
2, 141504, Note_off_c, 0, 67, 64
2, 141504, Note_on_c, 0, 66, 92
2, 141696, Note_off_c, 0, 66, 64
2, 141696, Note_off_c, 0, 71, 64
2, 141696, Note_on_c, 0, 67, 92
2, 141696, Note_on_c, 0, 71, 92
2, 142176, Note_off_c, 0, 67, 64
2, 142176, Note_on_c, 0, 66, 92
2, 142272, Note_off_c, 0, 66, 64
2, 142272, Note_off_c, 0, 71, 64
2, 142272, Note_on_c, 0, 64, 92
2, 142272, Note_on_c, 0, 72, 92
2, 142464, Note_off_c, 0, 72, 64
2, 142464, Note_off_c, 0, 64, 64
2, 142464, Note_on_c, 0, 71, 92
2, 142464, Note_on_c, 0, 62, 92
2, 142656, Note_off_c, 0, 62, 64
2, 142656, Note_on_c, 0, 64, 92
2, 142752, Note_off_c, 0, 64, 64
2, 142752, Note_on_c, 0, 62, 92
2, 142848, Note_off_c, 0, 62, 64
2, 142848, Note_off_c, 0, 71, 64
2, 142848, Note_on_c, 0, 60, 92
2, 142848, Note_on_c, 0, 69, 92
2, 143040, Note_off_c, 0, 69, 64
2, 143040, Note_on_c, 0, 72, 92
2, 143136, Note_off_c, 0, 72, 64
2, 143136, Note_on_c, 0, 69, 92
2, 143232, Note_off_c, 0, 69, 64
2, 143232, Note_off_c, 0, 60, 64
2, 143232, Note_on_c, 0, 64, 92
2, 143328, Note_off_c, 0, 64, 64
2, 143328, Note_on_c, 0, 72, 92
2, 143424, Note_off_c, 0, 72, 64
2, 143424, Note_on_c, 0, 69, 92
2, 143520, Note_off_c, 0, 69, 64
2, 143520, Note_on_c, 0, 72, 92
2, 143616, Note_off_c, 0, 72, 64
2, 143616, Note_on_c, 0, 60, 92
2, 143712, Note_off_c, 0, 60, 64
2, 143712, Note_on_c, 0, 69, 92
2, 143808, Note_off_c, 0, 69, 64
2, 143808, Note_on_c, 0, 64, 92
2, 143904, Note_off_c, 0, 64, 64
2, 143904, Note_on_c, 0, 69, 92
2, 144000, Note_off_c, 0, 69, 64
2, 144000, Note_on_c, 0, 64, 92
2, 144096, Note_off_c, 0, 64, 64
2, 144096, Note_on_c, 0, 72, 92
2, 144192, Note_off_c, 0, 72, 64
2, 144192, Note_on_c, 0, 69, 92
2, 144288, Note_off_c, 0, 69, 64
2, 144288, Note_on_c, 0, 72, 92
2, 144384, Note_off_c, 0, 72, 64
2, 144384, Note_on_c, 0, 69, 92
2, 144480, Note_off_c, 0, 69, 64
2, 144480, Note_on_c, 0, 76, 92
2, 144576, Note_off_c, 0, 76, 64
2, 144576, Note_on_c, 0, 72, 92
2, 144672, Note_off_c, 0, 72, 64
2, 144672, Note_on_c, 0, 76, 92
2, 144768, Note_off_c, 0, 76, 64
2, 144768, Note_on_c, 0, 72, 92
2, 144864, Note_off_c, 0, 72, 64
2, 144864, Note_on_c, 0, 81, 92
2, 144960, Note_off_c, 0, 81, 64
2, 144960, Note_on_c, 0, 76, 92
2, 145056, Note_off_c, 0, 76, 64
2, 145056, Note_on_c, 0, 81, 92
2, 145152, Note_off_c, 0, 81, 64
2, 145152, Note_on_c, 0, 73, 92
2, 145248, Note_off_c, 0, 73, 64
2, 145248, Note_on_c, 0, 79, 92
2, 145344, Note_off_c, 0, 79, 64
2, 145344, Note_on_c, 0, 76, 92
2, 145440, Note_off_c, 0, 76, 64
2, 145440, Note_on_c, 0, 79, 92
2, 145536, Note_off_c, 0, 79, 64
2, 145536, Note_on_c, 0, 73, 92
2, 145632, Note_off_c, 0, 73, 64
2, 145632, Note_on_c, 0, 79, 92
2, 145728, Note_off_c, 0, 79, 64
2, 145728, Note_on_c, 0, 76, 92
2, 145824, Note_off_c, 0, 76, 64
2, 145824, Note_on_c, 0, 79, 92
2, 145920, Note_off_c, 0, 79, 64
2, 145920, Note_on_c, 0, 69, 92
2, 146112, Note_off_c, 0, 69, 64
2, 146112, Note_on_c, 0, 77, 92
2, 146208, Note_off_c, 0, 77, 64
2, 146208, Note_on_c, 0, 74, 92
2, 146304, Note_off_c, 0, 74, 64
2, 146304, Note_on_c, 0, 69, 92
2, 146400, Note_off_c, 0, 69, 64
2, 146400, Note_on_c, 0, 77, 92
2, 146496, Note_off_c, 0, 77, 64
2, 146496, Note_on_c, 0, 74, 92
2, 146592, Note_off_c, 0, 74, 64
2, 146592, Note_on_c, 0, 77, 92
2, 146688, Note_off_c, 0, 77, 64
2, 146688, Note_on_c, 0, 65, 92
2, 146784, Note_off_c, 0, 65, 64
2, 146784, Note_on_c, 0, 74, 92
2, 146880, Note_off_c, 0, 74, 64
2, 146880, Note_on_c, 0, 69, 92
2, 146976, Note_off_c, 0, 69, 64
2, 146976, Note_on_c, 0, 74, 92
2, 147072, Note_off_c, 0, 74, 64
2, 147072, Note_on_c, 0, 62, 92
2, 147168, Note_off_c, 0, 62, 64
2, 147168, Note_on_c, 0, 69, 92
2, 147264, Note_off_c, 0, 69, 64
2, 147264, Note_on_c, 0, 65, 92
2, 147360, Note_off_c, 0, 65, 64
2, 147360, Note_on_c, 0, 69, 92
2, 147456, Note_off_c, 0, 69, 64
2, 147456, Note_on_c, 0, 65, 92
2, 147552, Note_off_c, 0, 65, 64
2, 147552, Note_on_c, 0, 74, 92
2, 147648, Note_off_c, 0, 74, 64
2, 147648, Note_on_c, 0, 69, 92
2, 147744, Note_off_c, 0, 69, 64
2, 147744, Note_on_c, 0, 74, 92
2, 147840, Note_off_c, 0, 74, 64
2, 147840, Note_on_c, 0, 69, 92
2, 147936, Note_off_c, 0, 69, 64
2, 147936, Note_on_c, 0, 77, 92
2, 148032, Note_off_c, 0, 77, 64
2, 148032, Note_on_c, 0, 74, 92
2, 148128, Note_off_c, 0, 74, 64
2, 148128, Note_on_c, 0, 77, 92
2, 148224, Note_off_c, 0, 77, 64
2, 148224, Note_on_c, 0, 69, 92
2, 148320, Note_off_c, 0, 69, 64
2, 148320, Note_on_c, 0, 78, 92
2, 148416, Note_off_c, 0, 78, 64
2, 148416, Note_on_c, 0, 72, 92
2, 148512, Note_off_c, 0, 72, 64
2, 148512, Note_on_c, 0, 78, 92
2, 148608, Note_off_c, 0, 78, 64
2, 148608, Note_on_c, 0, 69, 92
2, 148704, Note_off_c, 0, 69, 64
2, 148704, Note_on_c, 0, 78, 92
2, 148800, Note_off_c, 0, 78, 64
2, 148800, Note_on_c, 0, 72, 92
2, 148896, Note_off_c, 0, 72, 64
2, 148896, Note_on_c, 0, 78, 92
2, 148992, Note_off_c, 0, 78, 64
2, 148992, Note_on_c, 0, 71, 92
2, 149184, Note_off_c, 0, 71, 64
2, 149184, Note_on_c, 0, 79, 92
2, 149280, Note_off_c, 0, 79, 64
2, 149280, Note_on_c, 0, 74, 92
2, 149376, Note_off_c, 0, 74, 64
2, 149376, Note_on_c, 0, 71, 92
2, 149472, Note_off_c, 0, 71, 64
2, 149472, Note_on_c, 0, 79, 92
2, 149568, Note_off_c, 0, 79, 64
2, 149568, Note_on_c, 0, 74, 92
2, 149664, Note_off_c, 0, 74, 64
2, 149664, Note_on_c, 0, 79, 92
2, 149760, Note_off_c, 0, 79, 64
2, 149760, Note_on_c, 0, 67, 92
2, 149856, Note_off_c, 0, 67, 64
2, 149856, Note_on_c, 0, 74, 92
2, 149952, Note_off_c, 0, 74, 64
2, 149952, Note_on_c, 0, 71, 92
2, 150048, Note_off_c, 0, 71, 64
2, 150048, Note_on_c, 0, 74, 92
2, 150144, Note_off_c, 0, 74, 64
2, 150144, Note_on_c, 0, 62, 92
2, 150240, Note_off_c, 0, 62, 64
2, 150240, Note_on_c, 0, 71, 92
2, 150336, Note_off_c, 0, 71, 64
2, 150336, Note_on_c, 0, 67, 92
2, 150432, Note_off_c, 0, 67, 64
2, 150432, Note_on_c, 0, 71, 92
2, 150528, Note_off_c, 0, 71, 64
2, 150528, Note_on_c, 0, 67, 92
2, 150624, Note_off_c, 0, 67, 64
2, 150624, Note_on_c, 0, 74, 92
2, 150720, Note_off_c, 0, 74, 64
2, 150720, Note_on_c, 0, 71, 92
2, 150816, Note_off_c, 0, 71, 64
2, 150816, Note_on_c, 0, 74, 92
2, 150912, Note_off_c, 0, 74, 64
2, 150912, Note_on_c, 0, 71, 92
2, 151008, Note_off_c, 0, 71, 64
2, 151008, Note_on_c, 0, 79, 92
2, 151104, Note_off_c, 0, 79, 64
2, 151104, Note_on_c, 0, 74, 92
2, 151200, Note_off_c, 0, 74, 64
2, 151200, Note_on_c, 0, 79, 92
2, 151296, Note_off_c, 0, 79, 64
2, 151296, Note_on_c, 0, 71, 92
2, 151392, Note_off_c, 0, 71, 64
2, 151392, Note_on_c, 0, 77, 92
2, 151488, Note_off_c, 0, 77, 64
2, 151488, Note_on_c, 0, 74, 92
2, 151584, Note_off_c, 0, 74, 64
2, 151584, Note_on_c, 0, 77, 92
2, 151680, Note_off_c, 0, 77, 64
2, 151680, Note_on_c, 0, 71, 92
2, 151776, Note_off_c, 0, 71, 64
2, 151776, Note_on_c, 0, 77, 92
2, 151872, Note_off_c, 0, 77, 64
2, 151872, Note_on_c, 0, 74, 92
2, 151968, Note_off_c, 0, 74, 64
2, 151968, Note_on_c, 0, 77, 92
2, 152064, Note_off_c, 0, 77, 64
2, 152064, Note_on_c, 0, 67, 92
2, 152256, Note_off_c, 0, 67, 64
2, 152256, Note_on_c, 0, 76, 92
2, 152352, Note_off_c, 0, 76, 64
2, 152352, Note_on_c, 0, 72, 92
2, 152448, Note_off_c, 0, 72, 64
2, 152448, Note_on_c, 0, 69, 92
2, 152544, Note_off_c, 0, 69, 64
2, 152544, Note_on_c, 0, 76, 92
2, 152640, Note_off_c, 0, 76, 64
2, 152640, Note_on_c, 0, 72, 92
2, 152736, Note_off_c, 0, 72, 64
2, 152736, Note_on_c, 0, 76, 92
2, 152832, Note_off_c, 0, 76, 64
2, 152832, Note_on_c, 0, 69, 92
2, 152928, Note_off_c, 0, 69, 64
2, 152928, Note_on_c, 0, 76, 92
2, 153024, Note_off_c, 0, 76, 64
2, 153024, Note_on_c, 0, 72, 92
2, 153120, Note_off_c, 0, 72, 64
2, 153120, Note_on_c, 0, 76, 92
2, 153216, Note_off_c, 0, 76, 64
2, 153216, Note_on_c, 0, 71, 92
2, 153312, Note_off_c, 0, 71, 64
2, 153312, Note_on_c, 0, 74, 92
2, 153408, Note_off_c, 0, 74, 64
2, 153408, Note_on_c, 0, 68, 92
2, 153504, Note_off_c, 0, 68, 64
2, 153504, Note_on_c, 0, 71, 92
2, 153600, Note_off_c, 0, 71, 64
2, 153600, Note_on_c, 0, 64, 92
2, 153600, Note_on_c, 0, 69, 92
2, 153984, Note_off_c, 0, 69, 64
2, 153984, Note_off_c, 0, 64, 64
2, 153984, Note_on_c, 0, 64, 92
2, 153984, Note_on_c, 0, 72, 92
2, 154176, Note_off_c, 0, 72, 64
2, 154176, Note_off_c, 0, 64, 64
2, 154176, Note_on_c, 0, 68, 92
2, 154176, Note_on_c, 0, 71, 92
2, 154368, Note_off_c, 0, 71, 64
2, 154368, Note_off_c, 0, 68, 64
2, 154368, Note_on_c, 0, 69, 92
2, 154368, Note_on_c, 0, 72, 92
2, 154752, Note_off_c, 0, 72, 64
2, 154752, Note_off_c, 0, 69, 64
2, 154944, Note_on_c, 0, 69, 92
2, 154944, Note_on_c, 0, 72, 92
2, 155136, Note_off_c, 0, 72, 64
2, 155136, Note_on_c, 0, 74, 92
2, 155328, Note_off_c, 0, 74, 64
2, 155328, Note_on_c, 0, 72, 92
2, 155520, Note_off_c, 0, 72, 64
2, 155520, Note_off_c, 0, 69, 64
2, 155520, Note_on_c, 0, 67, 92
2, 155520, Note_on_c, 0, 71, 92
2, 155712, Note_off_c, 0, 71, 64
2, 155712, Note_off_c, 0, 67, 64
2, 155712, Note_on_c, 0, 66, 92
2, 155712, Note_on_c, 0, 69, 92
2, 155904, Note_off_c, 0, 69, 64
2, 155904, Note_off_c, 0, 66, 64
2, 155904, Note_on_c, 0, 67, 92
2, 155904, Note_on_c, 0, 71, 92
2, 156288, Note_off_c, 0, 71, 64
2, 156288, Note_off_c, 0, 67, 64
2, 156480, Note_on_c, 0, 67, 92
2, 156480, Note_on_c, 0, 71, 92
2, 156672, Note_off_c, 0, 71, 64
2, 156672, Note_on_c, 0, 72, 92
2, 156864, Note_off_c, 0, 72, 64
2, 156864, Note_on_c, 0, 71, 92
2, 156960, Note_off_c, 0, 67, 64
2, 156960, Note_on_c, 0, 66, 92
2, 157056, Note_off_c, 0, 66, 64
2, 157056, Note_off_c, 0, 71, 64
2, 157056, Note_on_c, 0, 72, 92
2, 157056, Note_on_c, 0, 64, 92
2, 157248, Note_off_c, 0, 64, 64
2, 157248, Note_on_c, 0, 69, 92
2, 157632, Note_off_c, 0, 69, 64
2, 157632, Note_off_c, 0, 72, 64
2, 157632, Note_on_c, 0, 67, 92
2, 157632, Note_on_c, 0, 71, 92
2, 157824, Note_off_c, 0, 71, 64
2, 157824, Note_off_c, 0, 67, 64
2, 157824, Note_on_c, 0, 69, 92
2, 157824, Note_on_c, 0, 66, 92
2, 158208, Note_off_c, 0, 66, 64
2, 158208, Note_off_c, 0, 69, 64
2, 158208, Note_on_c, 0, 67, 92
2, 159168, Note_on_c, 0, 72, 92
2, 159552, Note_off_c, 0, 67, 64
2, 159552, Note_on_c, 0, 66, 92
2, 159936, Note_off_c, 0, 72, 64
2, 159936, Note_on_c, 0, 71, 92
2, 160320, Note_off_c, 0, 66, 64
2, 160320, Note_on_c, 0, 64, 92
2, 160704, Note_off_c, 0, 71, 64
2, 160704, Note_on_c, 0, 69, 92
2, 161088, Note_off_c, 0, 64, 64
2, 161088, Note_on_c, 0, 62, 92
2, 161472, Note_off_c, 0, 69, 64
2, 161472, Note_on_c, 0, 67, 92
2, 161856, Note_off_c, 0, 62, 64
2, 161856, Note_on_c, 0, 61, 92
2, 162240, Note_off_c, 0, 67, 64
2, 162240, Note_on_c, 0, 66, 92
2, 162624, Note_off_c, 0, 61, 64
2, 163008, Note_off_c, 0, 66, 64
2, 163008, Note_on_c, 0, 64, 92
2, 163584, Note_off_c, 0, 64, 64
2, 163584, Note_on_c, 0, 62, 92
2, 164160, Note_on_c, 0, 67, 92
2, 164544, Note_off_c, 0, 62, 64
2, 164544, Note_on_c, 0, 61, 92
2, 164928, Note_off_c, 0, 67, 64
2, 164928, Note_on_c, 0, 66, 92
2, 165312, Note_off_c, 0, 61, 64
2, 165312, Note_on_c, 0, 59, 92
2, 165696, Note_off_c, 0, 66, 64
2, 165696, Note_on_c, 0, 64, 92
2, 165888, Note_off_c, 0, 59, 64
2, 166080, Note_on_c, 0, 69, 92
2, 166464, Note_off_c, 0, 64, 64
2, 166464, Note_on_c, 0, 63, 92
2, 166656, Note_off_c, 0, 63, 64
2, 166656, Note_off_c, 0, 69, 64
2, 166656, Note_on_c, 0, 64, 92
2, 166656, Note_on_c, 0, 67, 92
2, 167040, Note_off_c, 0, 67, 64
2, 167040, Note_off_c, 0, 64, 64
2, 167040, Note_on_c, 0, 64, 92
2, 167136, Note_on_c, 0, 67, 92
2, 167232, Note_off_c, 0, 67, 64
2, 167232, Note_on_c, 0, 72, 92
2, 167328, Note_off_c, 0, 72, 64
2, 167328, Note_on_c, 0, 67, 92
2, 167424, Note_off_c, 0, 67, 64
2, 167424, Note_off_c, 0, 64, 64
2, 167424, Note_on_c, 0, 63, 92
2, 167520, Note_on_c, 0, 66, 92
2, 167616, Note_off_c, 0, 66, 64
2, 167616, Note_on_c, 0, 72, 92
2, 167712, Note_off_c, 0, 72, 64
2, 167712, Note_on_c, 0, 66, 92
2, 167808, Note_off_c, 0, 66, 64
2, 167808, Note_off_c, 0, 63, 64
2, 167808, Note_on_c, 0, 62, 92
2, 167904, Note_on_c, 0, 66, 92
2, 168000, Note_off_c, 0, 66, 64
2, 168000, Note_on_c, 0, 71, 92
2, 168096, Note_off_c, 0, 71, 64
2, 168096, Note_on_c, 0, 66, 92
2, 168192, Note_off_c, 0, 66, 64
2, 168192, Note_off_c, 0, 62, 64
2, 168192, Note_on_c, 0, 61, 92
2, 168288, Note_on_c, 0, 64, 92
2, 168384, Note_off_c, 0, 64, 64
2, 168384, Note_on_c, 0, 71, 92
2, 168480, Note_off_c, 0, 71, 64
2, 168480, Note_on_c, 0, 64, 92
2, 168576, Note_off_c, 0, 64, 64
2, 168576, Note_off_c, 0, 61, 64
2, 168576, Note_on_c, 0, 60, 92
2, 168672, Note_on_c, 0, 64, 92
2, 168768, Note_off_c, 0, 64, 64
2, 168768, Note_on_c, 0, 69, 92
2, 168864, Note_off_c, 0, 69, 64
2, 168864, Note_on_c, 0, 64, 92
2, 168960, Note_off_c, 0, 64, 64
2, 168960, Note_off_c, 0, 60, 64
2, 168960, Note_on_c, 0, 63, 92
2, 169056, Note_off_c, 0, 63, 64
2, 169056, Note_on_c, 0, 71, 92
2, 169152, Note_off_c, 0, 71, 64
2, 169152, Note_on_c, 0, 66, 92
2, 169248, Note_off_c, 0, 66, 64
2, 169248, Note_on_c, 0, 71, 92
2, 169344, Note_off_c, 0, 71, 64
2, 169344, Note_on_c, 0, 64, 92
2, 169440, Note_off_c, 0, 64, 64
2, 169440, Note_on_c, 0, 71, 92
2, 169536, Note_off_c, 0, 71, 64
2, 169536, Note_on_c, 0, 67, 92
2, 169632, Note_off_c, 0, 67, 64
2, 169632, Note_on_c, 0, 71, 92
2, 169728, Note_off_c, 0, 71, 64
2, 169728, Note_on_c, 0, 64, 92
2, 169824, Note_off_c, 0, 64, 64
2, 169824, Note_on_c, 0, 69, 92
2, 169920, Note_off_c, 0, 69, 64
2, 169920, Note_on_c, 0, 66, 92
2, 170016, Note_off_c, 0, 66, 64
2, 170016, Note_on_c, 0, 69, 92
2, 170112, Note_off_c, 0, 69, 64
2, 170112, Note_on_c, 0, 63, 92
2, 170208, Note_off_c, 0, 63, 64
2, 170208, Note_on_c, 0, 69, 92
2, 170304, Note_off_c, 0, 69, 64
2, 170304, Note_on_c, 0, 66, 92
2, 170400, Note_off_c, 0, 66, 64
2, 170400, Note_on_c, 0, 69, 92
2, 170496, Note_off_c, 0, 69, 64
2, 170496, Note_on_c, 0, 67, 92
2, 170496, Note_on_c, 0, 76, 92
2, 170688, Note_off_c, 0, 76, 64
2, 170688, Note_on_c, 0, 71, 92
2, 170880, Note_off_c, 0, 71, 64
2, 170880, Note_off_c, 0, 67, 64
2, 170880, Note_on_c, 0, 63, 92
2, 170880, Note_on_c, 0, 78, 92
2, 171072, Note_off_c, 0, 78, 64
2, 171072, Note_on_c, 0, 71, 92
2, 171264, Note_off_c, 0, 71, 64
2, 171264, Note_off_c, 0, 63, 64
2, 171264, Note_on_c, 0, 64, 92
2, 171264, Note_on_c, 0, 79, 92
2, 171456, Note_off_c, 0, 79, 64
2, 171456, Note_on_c, 0, 78, 92
2, 171552, Note_off_c, 0, 78, 64
2, 171552, Note_on_c, 0, 79, 92
2, 171648, Note_off_c, 0, 79, 64
2, 171648, Note_off_c, 0, 64, 64
2, 171648, Note_on_c, 0, 76, 92
2, 171840, Note_off_c, 0, 76, 64
2, 171840, Note_on_c, 0, 83, 92
2, 171840, Note_on_c, 0, 63, 92
2, 171936, Note_off_c, 0, 83, 64
2, 171936, Note_on_c, 0, 81, 92
2, 172032, Note_off_c, 0, 81, 64
2, 172032, Note_off_c, 0, 63, 64
2, 172032, Note_on_c, 0, 64, 92
2, 172032, Note_on_c, 0, 79, 92
2, 172128, Note_off_c, 0, 79, 64
2, 172128, Note_on_c, 0, 83, 92
2, 172224, Note_off_c, 0, 83, 64
2, 172224, Note_on_c, 0, 76, 92
2, 172320, Note_off_c, 0, 76, 64
2, 172320, Note_on_c, 0, 83, 92
2, 172416, Note_off_c, 0, 83, 64
2, 172416, Note_off_c, 0, 64, 64
2, 172416, Note_on_c, 0, 79, 92
2, 172512, Note_off_c, 0, 79, 64
2, 172512, Note_on_c, 0, 83, 92
2, 172608, Note_off_c, 0, 83, 64
2, 172608, Note_on_c, 0, 64, 92
2, 172608, Note_on_c, 0, 76, 92
2, 172704, Note_off_c, 0, 76, 64
2, 172704, Note_on_c, 0, 83, 92
2, 172800, Note_off_c, 0, 83, 64
2, 172800, Note_off_c, 0, 64, 64
2, 172800, Note_on_c, 0, 60, 92
2, 172800, Note_on_c, 0, 84, 92
2, 172992, Note_off_c, 0, 84, 64
2, 172992, Note_on_c, 0, 76, 92
2, 173184, Note_off_c, 0, 76, 64
2, 173184, Note_off_c, 0, 60, 64
2, 173184, Note_on_c, 0, 62, 92
2, 173184, Note_on_c, 0, 78, 92
2, 173376, Note_off_c, 0, 78, 64
2, 173376, Note_on_c, 0, 81, 92
2, 173472, Note_off_c, 0, 81, 64
2, 173472, Note_on_c, 0, 79, 92
2, 173568, Note_off_c, 0, 79, 64
2, 173568, Note_off_c, 0, 62, 64
2, 173568, Note_on_c, 0, 62, 92
2, 173568, Note_on_c, 0, 78, 92
2, 173664, Note_off_c, 0, 78, 64
2, 173664, Note_on_c, 0, 81, 92
2, 173760, Note_off_c, 0, 81, 64
2, 173760, Note_on_c, 0, 74, 92
2, 173856, Note_off_c, 0, 74, 64
2, 173856, Note_on_c, 0, 81, 92
2, 173952, Note_off_c, 0, 81, 64
2, 173952, Note_off_c, 0, 62, 64
2, 173952, Note_on_c, 0, 78, 92
2, 174048, Note_off_c, 0, 78, 64
2, 174048, Note_on_c, 0, 81, 92
2, 174144, Note_off_c, 0, 81, 64
2, 174144, Note_on_c, 0, 62, 92
2, 174144, Note_on_c, 0, 74, 92
2, 174240, Note_off_c, 0, 74, 64
2, 174240, Note_on_c, 0, 81, 92
2, 174336, Note_off_c, 0, 81, 64
2, 174336, Note_off_c, 0, 62, 64
2, 174336, Note_on_c, 0, 83, 92
2, 174528, Note_off_c, 0, 83, 64
2, 174528, Note_on_c, 0, 74, 92
2, 174720, Note_off_c, 0, 74, 64
2, 174720, Note_on_c, 0, 76, 92
2, 174912, Note_off_c, 0, 76, 64
2, 174912, Note_on_c, 0, 79, 92
2, 175008, Note_off_c, 0, 79, 64
2, 175008, Note_on_c, 0, 78, 92
2, 175104, Note_off_c, 0, 78, 64
2, 175104, Note_on_c, 0, 76, 92
2, 175296, Note_off_c, 0, 76, 64
2, 175296, Note_on_c, 0, 81, 92
2, 175680, Note_off_c, 0, 81, 64
2, 175680, Note_on_c, 0, 80, 92
2, 175872, Note_off_c, 0, 80, 64
2, 175872, Note_on_c, 0, 81, 92
2, 176064, Note_off_c, 0, 81, 64
2, 176064, Note_on_c, 0, 79, 92
2, 176160, Note_off_c, 0, 79, 64
2, 176160, Note_on_c, 0, 77, 92
2, 176256, Note_off_c, 0, 77, 64
2, 176256, Note_on_c, 0, 76, 92
2, 176352, Note_off_c, 0, 76, 64
2, 176352, Note_on_c, 0, 74, 92
2, 176448, Note_off_c, 0, 74, 64
2, 176448, Note_on_c, 0, 72, 92
2, 176544, Note_off_c, 0, 72, 64
2, 176544, Note_on_c, 0, 71, 92
2, 176640, Note_off_c, 0, 71, 64
2, 176640, Note_on_c, 0, 69, 92
2, 176736, Note_off_c, 0, 69, 64
2, 176736, Note_on_c, 0, 76, 92
2, 176832, Note_off_c, 0, 76, 64
2, 176832, Note_on_c, 0, 74, 92
2, 176928, Note_off_c, 0, 74, 64
2, 176928, Note_on_c, 0, 72, 92
2, 177024, Note_off_c, 0, 72, 64
2, 177024, Note_on_c, 0, 71, 92
2, 177120, Note_off_c, 0, 71, 64
2, 177120, Note_on_c, 0, 69, 92
2, 177216, Note_off_c, 0, 69, 64
2, 177216, Note_on_c, 0, 68, 92
2, 177312, Note_off_c, 0, 68, 64
2, 177312, Note_on_c, 0, 66, 92
2, 177408, Note_off_c, 0, 66, 64
2, 177408, Note_on_c, 0, 64, 92
2, 177504, Note_off_c, 0, 64, 64
2, 177504, Note_on_c, 0, 69, 92
2, 177600, Note_off_c, 0, 69, 64
2, 177600, Note_on_c, 0, 67, 92
2, 177696, Note_off_c, 0, 67, 64
2, 177696, Note_on_c, 0, 65, 92
2, 177792, Note_off_c, 0, 65, 64
2, 177792, Note_on_c, 0, 64, 92
2, 177888, Note_off_c, 0, 64, 64
2, 177888, Note_on_c, 0, 62, 92
2, 177984, Note_off_c, 0, 62, 64
2, 177984, Note_on_c, 0, 60, 92
2, 178080, Note_off_c, 0, 60, 64
2, 178080, Note_on_c, 0, 59, 92
2, 178176, Note_off_c, 0, 59, 64
2, 178176, Note_on_c, 0, 60, 92
2, 178176, Note_on_c, 0, 64, 92
2, 178176, Note_on_c, 0, 69, 92
2, 178560, Note_off_c, 0, 69, 64
2, 178560, Note_off_c, 0, 64, 64
2, 178560, Note_off_c, 0, 60, 64
2, 178560, Note_on_c, 0, 62, 92
2, 178560, Note_on_c, 0, 68, 92
2, 178944, Note_off_c, 0, 68, 64
2, 178944, Note_off_c, 0, 62, 64
2, 178944, Note_on_c, 0, 60, 92
2, 178944, Note_on_c, 0, 64, 92
2, 178944, Note_on_c, 0, 69, 92
2, 179328, Note_off_c, 0, 69, 64
2, 179328, Note_off_c, 0, 64, 64
2, 179328, Note_off_c, 0, 60, 64
2, 179328, Note_on_c, 0, 69, 92
2, 179328, Note_on_c, 0, 72, 92
2, 179328, Note_on_c, 0, 64, 92
2, 179520, Note_off_c, 0, 72, 64
2, 179520, Note_off_c, 0, 69, 64
2, 179520, Note_on_c, 0, 67, 92
2, 179520, Note_on_c, 0, 71, 92
2, 179712, Note_off_c, 0, 71, 64
2, 179712, Note_off_c, 0, 67, 64
2, 179712, Note_off_c, 0, 64, 64
2, 179712, Note_on_c, 0, 64, 92
2, 179712, Note_on_c, 0, 69, 92
2, 179712, Note_on_c, 0, 72, 92
2, 180096, Note_off_c, 0, 72, 64
2, 180096, Note_off_c, 0, 69, 64
2, 180096, Note_off_c, 0, 64, 64
2, 180288, Note_on_c, 0, 64, 92
2, 180288, Note_on_c, 0, 69, 92
2, 180288, Note_on_c, 0, 72, 92
2, 180480, Note_off_c, 0, 72, 64
2, 180480, Note_off_c, 0, 69, 64
2, 180480, Note_off_c, 0, 64, 64
2, 180480, Note_on_c, 0, 62, 92
2, 180480, Note_on_c, 0, 65, 92
2, 180480, Note_on_c, 0, 69, 92
2, 180672, Note_off_c, 0, 62, 64
2, 180672, Note_on_c, 0, 60, 92
2, 180864, Note_off_c, 0, 60, 64
2, 180864, Note_off_c, 0, 69, 64
2, 180864, Note_off_c, 0, 65, 64
2, 180864, Note_on_c, 0, 59, 92
2, 180864, Note_on_c, 0, 67, 92
2, 180864, Note_on_c, 0, 62, 92
2, 181056, Note_off_c, 0, 67, 64
2, 181056, Note_off_c, 0, 59, 64
2, 181056, Note_on_c, 0, 57, 92
2, 181056, Note_on_c, 0, 66, 92
2, 181248, Note_off_c, 0, 66, 64
2, 181248, Note_off_c, 0, 57, 64
2, 181248, Note_off_c, 0, 62, 64
2, 181248, Note_on_c, 0, 59, 92
2, 181248, Note_on_c, 0, 62, 92
2, 181248, Note_on_c, 0, 67, 92
2, 181632, Note_off_c, 0, 67, 64
2, 181632, Note_off_c, 0, 62, 64
2, 181632, Note_off_c, 0, 59, 64
2, 181824, Note_on_c, 0, 59, 92
2, 181824, Note_on_c, 0, 62, 92
2, 181824, Note_on_c, 0, 67, 92
2, 182016, Note_off_c, 0, 67, 64
2, 182016, Note_off_c, 0, 62, 64
2, 182016, Note_off_c, 0, 59, 64
2, 182016, Note_on_c, 0, 60, 92
2, 182016, Note_on_c, 0, 67, 92
2, 182016, Note_on_c, 0, 72, 92
2, 182208, Note_off_c, 0, 72, 64
2, 182208, Note_off_c, 0, 60, 64
2, 182208, Note_on_c, 0, 62, 92
2, 182208, Note_on_c, 0, 71, 92
2, 182400, Note_off_c, 0, 71, 64
2, 182400, Note_off_c, 0, 62, 64
2, 182400, Note_off_c, 0, 67, 64
2, 182400, Note_on_c, 0, 60, 92
2, 182400, Note_on_c, 0, 64, 92
2, 182400, Note_on_c, 0, 69, 92
2, 182976, Note_off_c, 0, 69, 64
2, 182976, Note_off_c, 0, 64, 64
2, 182976, Note_off_c, 0, 60, 64
2, 182976, Note_on_c, 0, 59, 92
2, 182976, Note_on_c, 0, 64, 92
2, 182976, Note_on_c, 0, 67, 92
2, 183168, Note_off_c, 0, 67, 64
2, 183168, Note_off_c, 0, 64, 64
2, 183168, Note_off_c, 0, 59, 64
2, 183168, Note_on_c, 0, 66, 92
2, 183168, Note_on_c, 0, 69, 92
2, 183168, Note_on_c, 0, 60, 92
2, 183360, Note_off_c, 0, 60, 64
2, 183360, Note_on_c, 0, 59, 92
2, 183552, Note_off_c, 0, 59, 64
2, 183552, Note_off_c, 0, 69, 64
2, 183552, Note_off_c, 0, 66, 64
2, 183552, Note_on_c, 0, 59, 92
2, 183552, Note_on_c, 0, 64, 92
2, 183552, Note_on_c, 0, 67, 92
2, 184320, Note_off_c, 0, 67, 64
2, 184320, Note_off_c, 0, 64, 64
2, 184320, Note_off_c, 0, 59, 64
2, 184320, Note_on_c, 0, 61, 92
2, 184320, Note_on_c, 0, 64, 92
2, 184320, Note_on_c, 0, 67, 92
2, 184704, Note_off_c, 0, 67, 64
2, 184704, Note_off_c, 0, 64, 64
2, 184704, Note_off_c, 0, 61, 64
2, 184896, Note_on_c, 0, 61, 92
2, 184896, Note_on_c, 0, 64, 92
2, 184896, Note_on_c, 0, 67, 92
2, 185088, Note_off_c, 0, 67, 64
2, 185088, Note_off_c, 0, 64, 64
2, 185088, Note_off_c, 0, 61, 64
2, 185088, Note_on_c, 0, 64, 92
2, 185088, Note_on_c, 0, 66, 92
2, 185472, Note_off_c, 0, 64, 64
2, 185472, Note_on_c, 0, 63, 92
2, 185664, Note_off_c, 0, 66, 64
2, 185664, Note_on_c, 0, 71, 92
2, 185856, Note_off_c, 0, 71, 64
2, 185856, Note_off_c, 0, 63, 64
2, 185904, Note_on_c, 0, 68, 92
2, 185952, Note_off_c, 0, 68, 64
2, 185952, Note_on_c, 0, 64, 92
2, 186000, Note_off_c, 0, 64, 64
2, 186000, Note_on_c, 0, 68, 92
2, 186048, Note_off_c, 0, 68, 64
2, 186096, Note_on_c, 0, 69, 92
2, 186144, Note_off_c, 0, 69, 64
2, 186144, Note_on_c, 0, 64, 92
2, 186192, Note_off_c, 0, 64, 64
2, 186192, Note_on_c, 0, 69, 92
2, 186240, Note_off_c, 0, 69, 64
2, 186288, Note_on_c, 0, 71, 92
2, 186336, Note_off_c, 0, 71, 64
2, 186336, Note_on_c, 0, 64, 92
2, 186384, Note_off_c, 0, 64, 64
2, 186384, Note_on_c, 0, 71, 92
2, 186432, Note_off_c, 0, 71, 64
2, 186480, Note_on_c, 0, 72, 92
2, 186528, Note_off_c, 0, 72, 64
2, 186528, Note_on_c, 0, 64, 92
2, 186576, Note_off_c, 0, 64, 64
2, 186576, Note_on_c, 0, 72, 92
2, 186624, Note_off_c, 0, 72, 64
2, 186672, Note_on_c, 0, 76, 92
2, 186720, Note_off_c, 0, 76, 64
2, 186720, Note_on_c, 0, 68, 92
2, 186768, Note_off_c, 0, 68, 64
2, 186768, Note_on_c, 0, 76, 92
2, 186816, Note_off_c, 0, 76, 64
2, 186864, Note_on_c, 0, 76, 92
2, 186912, Note_off_c, 0, 76, 64
2, 186912, Note_on_c, 0, 69, 92
2, 186960, Note_off_c, 0, 69, 64
2, 186960, Note_on_c, 0, 76, 92
2, 187008, Note_off_c, 0, 76, 64
2, 187056, Note_on_c, 0, 76, 92
2, 187104, Note_off_c, 0, 76, 64
2, 187104, Note_on_c, 0, 71, 92
2, 187152, Note_off_c, 0, 71, 64
2, 187152, Note_on_c, 0, 76, 92
2, 187200, Note_off_c, 0, 76, 64
2, 187248, Note_on_c, 0, 76, 92
2, 187296, Note_off_c, 0, 76, 64
2, 187296, Note_on_c, 0, 72, 92
2, 187344, Note_off_c, 0, 72, 64
2, 187344, Note_on_c, 0, 76, 92
2, 187392, Note_off_c, 0, 76, 64
2, 187440, Note_on_c, 0, 68, 92
2, 187488, Note_off_c, 0, 68, 64
2, 187488, Note_on_c, 0, 64, 92
2, 187536, Note_off_c, 0, 64, 64
2, 187536, Note_on_c, 0, 68, 92
2, 187584, Note_off_c, 0, 68, 64
2, 187632, Note_on_c, 0, 69, 92
2, 187680, Note_off_c, 0, 69, 64
2, 187680, Note_on_c, 0, 64, 92
2, 187728, Note_off_c, 0, 64, 64
2, 187728, Note_on_c, 0, 69, 92
2, 187776, Note_off_c, 0, 69, 64
2, 187824, Note_on_c, 0, 71, 92
2, 187872, Note_off_c, 0, 71, 64
2, 187872, Note_on_c, 0, 64, 92
2, 187920, Note_off_c, 0, 64, 64
2, 187920, Note_on_c, 0, 71, 92
2, 187968, Note_off_c, 0, 71, 64
2, 188016, Note_on_c, 0, 72, 92
2, 188064, Note_off_c, 0, 72, 64
2, 188064, Note_on_c, 0, 64, 92
2, 188112, Note_off_c, 0, 64, 64
2, 188112, Note_on_c, 0, 72, 92
2, 188160, Note_off_c, 0, 72, 64
2, 188208, Note_on_c, 0, 76, 92
2, 188256, Note_off_c, 0, 76, 64
2, 188256, Note_on_c, 0, 68, 92
2, 188304, Note_off_c, 0, 68, 64
2, 188304, Note_on_c, 0, 76, 92
2, 188352, Note_off_c, 0, 76, 64
2, 188400, Note_on_c, 0, 76, 92
2, 188448, Note_off_c, 0, 76, 64
2, 188448, Note_on_c, 0, 69, 92
2, 188496, Note_off_c, 0, 69, 64
2, 188496, Note_on_c, 0, 76, 92
2, 188544, Note_off_c, 0, 76, 64
2, 188592, Note_on_c, 0, 76, 92
2, 188640, Note_off_c, 0, 76, 64
2, 188640, Note_on_c, 0, 71, 92
2, 188688, Note_off_c, 0, 71, 64
2, 188688, Note_on_c, 0, 76, 92
2, 188736, Note_off_c, 0, 76, 64
2, 188784, Note_on_c, 0, 76, 92
2, 188832, Note_off_c, 0, 76, 64
2, 188832, Note_on_c, 0, 72, 92
2, 188880, Note_off_c, 0, 72, 64
2, 188880, Note_on_c, 0, 76, 92
2, 188928, Note_off_c, 0, 76, 64
2, 188976, Note_on_c, 0, 68, 92
2, 189024, Note_off_c, 0, 68, 64
2, 189024, Note_on_c, 0, 64, 92
2, 189072, Note_off_c, 0, 64, 64
2, 189072, Note_on_c, 0, 68, 92
2, 189120, Note_off_c, 0, 68, 64
2, 189168, Note_on_c, 0, 69, 92
2, 189216, Note_off_c, 0, 69, 64
2, 189216, Note_on_c, 0, 64, 92
2, 189264, Note_off_c, 0, 64, 64
2, 189264, Note_on_c, 0, 69, 92
2, 189312, Note_off_c, 0, 69, 64
2, 189360, Note_on_c, 0, 71, 92
2, 189408, Note_off_c, 0, 71, 64
2, 189408, Note_on_c, 0, 64, 92
2, 189456, Note_off_c, 0, 64, 64
2, 189456, Note_on_c, 0, 71, 92
2, 189504, Note_off_c, 0, 71, 64
2, 189552, Note_on_c, 0, 72, 92
2, 189600, Note_off_c, 0, 72, 64
2, 189600, Note_on_c, 0, 64, 92
2, 189648, Note_off_c, 0, 64, 64
2, 189648, Note_on_c, 0, 72, 92
2, 189696, Note_off_c, 0, 72, 64
2, 189696, Note_on_c, 0, 68, 92
2, 189888, Note_off_c, 0, 68, 64
2, 189888, Note_on_c, 0, 69, 92
2, 190080, Note_off_c, 0, 69, 64
2, 190080, Note_on_c, 0, 69, 92
2, 190272, Note_off_c, 0, 69, 64
2, 190272, Note_on_c, 0, 64, 92
2, 190272, Note_on_c, 0, 68, 92
2, 190368, Note_off_c, 0, 64, 64
2, 190368, Note_on_c, 0, 62, 92
2, 190464, Note_off_c, 0, 62, 64
2, 190464, Note_off_c, 0, 68, 64
2, 190464, Note_on_c, 0, 60, 92
2, 190464, Note_on_c, 0, 69, 92
2, 190560, Note_off_c, 0, 69, 64
2, 190560, Note_on_c, 0, 67, 92
2, 190608, Note_off_c, 0, 67, 64
2, 190608, Note_on_c, 0, 65, 92
2, 190656, Note_off_c, 0, 65, 64
2, 190656, Note_off_c, 0, 60, 64
2, 190656, Note_on_c, 0, 64, 92
2, 190704, Note_off_c, 0, 64, 64
2, 190704, Note_on_c, 0, 62, 92
2, 190752, Note_off_c, 0, 62, 64
2, 190752, Note_on_c, 0, 60, 92
2, 190800, Note_off_c, 0, 60, 64
2, 190800, Note_on_c, 0, 59, 92
2, 190848, Note_off_c, 0, 59, 64
2, 190848, Note_on_c, 0, 57, 92
2, 190896, Note_off_c, 0, 57, 64
2, 190896, Note_on_c, 0, 64, 92
2, 190944, Note_off_c, 0, 64, 64
2, 190944, Note_on_c, 0, 62, 92
2, 190992, Note_off_c, 0, 62, 64
2, 190992, Note_on_c, 0, 60, 92
2, 191040, Note_off_c, 0, 60, 64
2, 191040, Note_on_c, 0, 59, 92
2, 191088, Note_off_c, 0, 59, 64
2, 191664, Note_on_c, 0, 69, 92
2, 191712, Note_off_c, 0, 69, 64
2, 191712, Note_on_c, 0, 67, 92
2, 191760, Note_off_c, 0, 67, 64
2, 191760, Note_on_c, 0, 65, 92
2, 191808, Note_off_c, 0, 65, 64
2, 191808, Note_on_c, 0, 64, 92
2, 191856, Note_off_c, 0, 64, 64
2, 191856, Note_on_c, 0, 62, 92
2, 191904, Note_off_c, 0, 62, 64
2, 191904, Note_on_c, 0, 60, 92
2, 191952, Note_off_c, 0, 60, 64
2, 191952, Note_on_c, 0, 59, 92
2, 192000, Note_off_c, 0, 59, 64
2, 192000, Note_on_c, 0, 57, 92
2, 192048, Note_off_c, 0, 57, 64
2, 192048, Note_on_c, 0, 76, 92
2, 192096, Note_off_c, 0, 76, 64
2, 192096, Note_on_c, 0, 74, 92
2, 192144, Note_off_c, 0, 74, 64
2, 192144, Note_on_c, 0, 72, 92
2, 192192, Note_off_c, 0, 72, 64
2, 192192, Note_on_c, 0, 71, 92
2, 192240, Note_off_c, 0, 71, 64
2, 192240, Note_on_c, 0, 69, 92
2, 192288, Note_off_c, 0, 69, 64
2, 192288, Note_on_c, 0, 68, 92
2, 192336, Note_off_c, 0, 68, 64
2, 192336, Note_on_c, 0, 66, 92
2, 192384, Note_off_c, 0, 66, 64
2, 192384, Note_on_c, 0, 64, 92
2, 192432, Note_off_c, 0, 64, 64
2, 192432, Note_on_c, 0, 81, 92
2, 192480, Note_off_c, 0, 81, 64
2, 192480, Note_on_c, 0, 79, 92
2, 192528, Note_off_c, 0, 79, 64
2, 192528, Note_on_c, 0, 77, 92
2, 192576, Note_off_c, 0, 77, 64
2, 192576, Note_on_c, 0, 76, 92
2, 192624, Note_off_c, 0, 76, 64
2, 192624, Note_on_c, 0, 74, 92
2, 192672, Note_off_c, 0, 74, 64
2, 192672, Note_on_c, 0, 72, 92
2, 192720, Note_off_c, 0, 72, 64
2, 192720, Note_on_c, 0, 71, 92
2, 192768, Note_off_c, 0, 71, 64
2, 192768, Note_on_c, 0, 69, 92
2, 192816, Note_on_c, 0, 72, 92
2, 192864, Note_off_c, 0, 72, 64
2, 192864, Note_on_c, 0, 76, 92
2, 192912, Note_off_c, 0, 76, 64
2, 192912, Note_on_c, 0, 72, 92
2, 192960, Note_off_c, 0, 72, 64
2, 192960, Note_off_c, 0, 69, 64
2, 192960, Note_on_c, 0, 64, 92
2, 193008, Note_on_c, 0, 69, 92
2, 193056, Note_off_c, 0, 69, 64
2, 193056, Note_on_c, 0, 72, 92
2, 193104, Note_off_c, 0, 72, 64
2, 193104, Note_on_c, 0, 69, 92
2, 193152, Note_off_c, 0, 69, 64
2, 193152, Note_off_c, 0, 64, 64
2, 193152, Note_on_c, 0, 69, 92
2, 193200, Note_on_c, 0, 72, 92
2, 193248, Note_off_c, 0, 72, 64
2, 193248, Note_on_c, 0, 76, 92
2, 193296, Note_off_c, 0, 76, 64
2, 193296, Note_on_c, 0, 72, 92
2, 193344, Note_off_c, 0, 72, 64
2, 193344, Note_off_c, 0, 69, 64
2, 193344, Note_on_c, 0, 64, 92
2, 193392, Note_on_c, 0, 69, 92
2, 193440, Note_off_c, 0, 69, 64
2, 193440, Note_on_c, 0, 72, 92
2, 193488, Note_off_c, 0, 72, 64
2, 193488, Note_on_c, 0, 69, 92
2, 193536, Note_off_c, 0, 69, 64
2, 193536, Note_off_c, 0, 64, 64
2, 193536, Note_on_c, 0, 60, 92
2, 193584, Note_on_c, 0, 64, 92
2, 193632, Note_off_c, 0, 64, 64
2, 193632, Note_on_c, 0, 69, 92
2, 193680, Note_off_c, 0, 69, 64
2, 193680, Note_on_c, 0, 64, 92
2, 193728, Note_off_c, 0, 64, 64
2, 193728, Note_off_c, 0, 60, 64
2, 193728, Note_on_c, 0, 57, 92
2, 193776, Note_on_c, 0, 60, 92
2, 193824, Note_off_c, 0, 60, 64
2, 193824, Note_on_c, 0, 64, 92
2, 193872, Note_off_c, 0, 64, 64
2, 193872, Note_on_c, 0, 60, 92
2, 193920, Note_off_c, 0, 60, 64
2, 193920, Note_off_c, 0, 57, 64
2, 193920, Note_on_c, 0, 60, 92
2, 193968, Note_on_c, 0, 64, 92
2, 194016, Note_off_c, 0, 64, 64
2, 194016, Note_on_c, 0, 69, 92
2, 194064, Note_off_c, 0, 69, 64
2, 194064, Note_on_c, 0, 64, 92
2, 194112, Note_off_c, 0, 64, 64
2, 194112, Note_off_c, 0, 60, 64
2, 194112, Note_on_c, 0, 57, 92
2, 194160, Note_on_c, 0, 60, 92
2, 194208, Note_off_c, 0, 60, 64
2, 194208, Note_on_c, 0, 64, 92
2, 194256, Note_off_c, 0, 64, 64
2, 194256, Note_on_c, 0, 60, 92
2, 194304, Note_off_c, 0, 60, 64
2, 194304, Note_off_c, 0, 57, 64
2, 196608, Note_on_c, 0, 60, 92
2, 196656, Note_on_c, 0, 64, 92
2, 196704, Note_off_c, 0, 64, 64
2, 196704, Note_on_c, 0, 69, 92
2, 196752, Note_off_c, 0, 69, 64
2, 196752, Note_on_c, 0, 64, 92
2, 196800, Note_off_c, 0, 64, 64
2, 196800, Note_off_c, 0, 60, 64
2, 196800, Note_on_c, 0, 64, 92
2, 196848, Note_on_c, 0, 69, 92
2, 196896, Note_off_c, 0, 69, 64
2, 196896, Note_on_c, 0, 72, 92
2, 196944, Note_off_c, 0, 72, 64
2, 196944, Note_on_c, 0, 69, 92
2, 196992, Note_off_c, 0, 69, 64
2, 196992, Note_off_c, 0, 64, 64
2, 196992, Note_on_c, 0, 69, 92
2, 197040, Note_on_c, 0, 72, 92
2, 197088, Note_off_c, 0, 72, 64
2, 197088, Note_on_c, 0, 76, 92
2, 197136, Note_off_c, 0, 76, 64
2, 197136, Note_on_c, 0, 72, 92
2, 197184, Note_off_c, 0, 72, 64
2, 197184, Note_off_c, 0, 69, 64
2, 197184, Note_on_c, 0, 64, 92
2, 197232, Note_on_c, 0, 69, 92
2, 197280, Note_off_c, 0, 69, 64
2, 197280, Note_on_c, 0, 72, 92
2, 197328, Note_off_c, 0, 72, 64
2, 197328, Note_on_c, 0, 69, 92
2, 197376, Note_off_c, 0, 69, 64
2, 197376, Note_off_c, 0, 64, 64
2, 197376, Note_on_c, 0, 69, 92
2, 197472, Note_off_c, 0, 69, 64
2, 197472, Note_on_c, 0, 71, 92
2, 197520, Note_off_c, 0, 71, 64
2, 197520, Note_on_c, 0, 72, 92
2, 197568, Note_off_c, 0, 72, 64
2, 197568, Note_on_c, 0, 74, 92
2, 197616, Note_off_c, 0, 74, 64
2, 197616, Note_on_c, 0, 76, 92
2, 197664, Note_off_c, 0, 76, 64
2, 197664, Note_on_c, 0, 78, 92
2, 197712, Note_off_c, 0, 78, 64
2, 197712, Note_on_c, 0, 80, 92
2, 197760, Note_off_c, 0, 80, 64
2, 197760, Note_on_c, 0, 81, 92
2, 197808, Note_off_c, 0, 81, 64
2, 197808, Note_on_c, 0, 76, 92
2, 197856, Note_off_c, 0, 76, 64
2, 197856, Note_on_c, 0, 72, 92
2, 197904, Note_off_c, 0, 72, 64
2, 197904, Note_on_c, 0, 69, 92
2, 197952, Note_off_c, 0, 69, 64
2, 197952, Note_on_c, 0, 76, 92
2, 198000, Note_off_c, 0, 76, 64
2, 198000, Note_on_c, 0, 72, 92
2, 198048, Note_off_c, 0, 72, 64
2, 198048, Note_on_c, 0, 69, 92
2, 198096, Note_off_c, 0, 69, 64
2, 198096, Note_on_c, 0, 64, 92
2, 198144, Note_off_c, 0, 64, 64
2, 198144, Note_on_c, 0, 72, 92
2, 198192, Note_off_c, 0, 72, 64
2, 198192, Note_on_c, 0, 69, 92
2, 198240, Note_off_c, 0, 69, 64
2, 198240, Note_on_c, 0, 64, 92
2, 198288, Note_off_c, 0, 64, 64
2, 198288, Note_on_c, 0, 60, 92
2, 198336, Note_off_c, 0, 60, 64
2, 198336, Note_on_c, 0, 69, 92
2, 198384, Note_off_c, 0, 69, 64
2, 198384, Note_on_c, 0, 64, 92
2, 198432, Note_off_c, 0, 64, 64
2, 198432, Note_on_c, 0, 60, 92
2, 198480, Note_off_c, 0, 60, 64
2, 198480, Note_on_c, 0, 57, 92
2, 198528, Note_off_c, 0, 57, 64
2, 199488, Note_on_c, 0, 66, 92
2, 199488, Note_on_c, 0, 69, 92
2, 199488, Note_on_c, 0, 71, 92
2, 199680, Note_off_c, 0, 71, 64
2, 199680, Note_off_c, 0, 69, 64
2, 199680, Note_off_c, 0, 66, 64
2, 199680, Note_on_c, 0, 64, 92
2, 199680, Note_on_c, 0, 67, 92
2, 199680, Note_on_c, 0, 71, 92
2, 200448, Note_off_c, 0, 71, 64
2, 200448, Note_off_c, 0, 67, 64
2, 200448, Note_off_c, 0, 64, 64
2, 200448, Note_on_c, 0, 73, 92
2, 200448, Note_on_c, 0, 64, 92
2, 200448, Note_on_c, 0, 67, 92
2, 200832, Note_off_c, 0, 67, 64
2, 200832, Note_off_c, 0, 64, 64
2, 200832, Note_on_c, 0, 66, 92
2, 201120, Note_off_c, 0, 66, 64
2, 201120, Note_on_c, 0, 64, 92
2, 201216, Note_off_c, 0, 64, 64
2, 201216, Note_off_c, 0, 73, 64
2, 201216, Note_on_c, 0, 62, 92
2, 201216, Note_on_c, 0, 66, 92
2, 201216, Note_on_c, 0, 71, 92
2, 201984, Note_off_c, 0, 71, 64
2, 201984, Note_off_c, 0, 66, 64
2, 201984, Note_off_c, 0, 62, 64
2, 201984, Note_on_c, 0, 62, 92
2, 201984, Note_on_c, 0, 65, 92
2, 201984, Note_on_c, 0, 71, 92
2, 202368, Note_off_c, 0, 65, 64
2, 202368, Note_off_c, 0, 62, 64
2, 202368, Note_on_c, 0, 64, 92
2, 202656, Note_off_c, 0, 64, 64
2, 202656, Note_on_c, 0, 62, 92
2, 202752, Note_off_c, 0, 62, 64
2, 202752, Note_off_c, 0, 71, 64
2, 202752, Note_on_c, 0, 60, 92
2, 202752, Note_on_c, 0, 64, 92
2, 202752, Note_on_c, 0, 69, 92
2, 203520, Note_off_c, 0, 69, 64
2, 203520, Note_off_c, 0, 64, 64
2, 203520, Note_off_c, 0, 60, 64
2, 203520, Note_on_c, 0, 60, 92
2, 203520, Note_on_c, 0, 63, 92
2, 203520, Note_on_c, 0, 69, 92
2, 203904, Note_off_c, 0, 63, 64
2, 203904, Note_off_c, 0, 60, 64
2, 203904, Note_on_c, 0, 62, 92
2, 204192, Note_off_c, 0, 62, 64
2, 204192, Note_on_c, 0, 60, 92
2, 204288, Note_off_c, 0, 60, 64
2, 204288, Note_off_c, 0, 69, 64
2, 204288, Note_on_c, 0, 59, 92
2, 204288, Note_on_c, 0, 62, 92
2, 204288, Note_on_c, 0, 67, 92
2, 205056, Note_off_c, 0, 67, 64
2, 205056, Note_off_c, 0, 62, 64
2, 205056, Note_off_c, 0, 59, 64
2, 205056, Note_on_c, 0, 60, 92
2, 205056, Note_on_c, 0, 64, 92
2, 205056, Note_on_c, 0, 67, 92
2, 205440, Note_off_c, 0, 67, 64
2, 205440, Note_off_c, 0, 64, 64
2, 205440, Note_off_c, 0, 60, 64
2, 205440, Note_on_c, 0, 58, 92
2, 205440, Note_on_c, 0, 64, 92
2, 205440, Note_on_c, 0, 67, 92
2, 205824, Note_off_c, 0, 67, 64
2, 205824, Note_off_c, 0, 64, 64
2, 205824, Note_off_c, 0, 58, 64
2, 205824, Note_on_c, 0, 66, 92
2, 205872, Note_off_c, 0, 66, 64
2, 205872, Note_on_c, 0, 62, 92
2, 205920, Note_off_c, 0, 62, 64
2, 206016, Note_on_c, 0, 66, 92
2, 206064, Note_off_c, 0, 66, 64
2, 206064, Note_on_c, 0, 62, 92
2, 206112, Note_off_c, 0, 62, 64
2, 206208, Note_on_c, 0, 67, 92
2, 206256, Note_off_c, 0, 67, 64
2, 206256, Note_on_c, 0, 62, 92
2, 206304, Note_off_c, 0, 62, 64
2, 206400, Note_on_c, 0, 67, 92
2, 206448, Note_off_c, 0, 67, 64
2, 206448, Note_on_c, 0, 62, 92
2, 206496, Note_off_c, 0, 62, 64
2, 206592, Note_on_c, 0, 62, 92
2, 206640, Note_off_c, 0, 62, 64
2, 206640, Note_on_c, 0, 57, 92
2, 206688, Note_off_c, 0, 57, 64
2, 206784, Note_on_c, 0, 62, 92
2, 206832, Note_off_c, 0, 62, 64
2, 206832, Note_on_c, 0, 57, 92
2, 206880, Note_off_c, 0, 57, 64
2, 206976, Note_on_c, 0, 62, 92
2, 207024, Note_off_c, 0, 62, 64
2, 207024, Note_on_c, 0, 59, 92
2, 207072, Note_off_c, 0, 59, 64
2, 207168, Note_on_c, 0, 62, 92
2, 207216, Note_off_c, 0, 62, 64
2, 207216, Note_on_c, 0, 59, 92
2, 207264, Note_off_c, 0, 59, 64
2, 207360, Note_on_c, 0, 78, 92
2, 207408, Note_off_c, 0, 78, 64
2, 207408, Note_on_c, 0, 74, 92
2, 207456, Note_off_c, 0, 74, 64
2, 207456, Note_on_c, 0, 69, 92
2, 207504, Note_off_c, 0, 69, 64
2, 207504, Note_on_c, 0, 62, 92
2, 207552, Note_off_c, 0, 62, 64
2, 207552, Note_on_c, 0, 78, 92
2, 207600, Note_off_c, 0, 78, 64
2, 207600, Note_on_c, 0, 74, 92
2, 207648, Note_off_c, 0, 74, 64
2, 207648, Note_on_c, 0, 69, 92
2, 207696, Note_off_c, 0, 69, 64
2, 207696, Note_on_c, 0, 62, 92
2, 207744, Note_off_c, 0, 62, 64
2, 207744, Note_on_c, 0, 79, 92
2, 207792, Note_off_c, 0, 79, 64
2, 207792, Note_on_c, 0, 74, 92
2, 207840, Note_off_c, 0, 74, 64
2, 207840, Note_on_c, 0, 71, 92
2, 207888, Note_off_c, 0, 71, 64
2, 207888, Note_on_c, 0, 62, 92
2, 207936, Note_off_c, 0, 62, 64
2, 207936, Note_on_c, 0, 79, 92
2, 207984, Note_off_c, 0, 79, 64
2, 207984, Note_on_c, 0, 74, 92
2, 208032, Note_off_c, 0, 74, 64
2, 208032, Note_on_c, 0, 71, 92
2, 208080, Note_off_c, 0, 71, 64
2, 208080, Note_on_c, 0, 62, 92
2, 208128, Note_off_c, 0, 62, 64
2, 208128, Note_on_c, 0, 74, 92
2, 208176, Note_off_c, 0, 74, 64
2, 208176, Note_on_c, 0, 69, 92
2, 208224, Note_off_c, 0, 69, 64
2, 208224, Note_on_c, 0, 66, 92
2, 208272, Note_off_c, 0, 66, 64
2, 208272, Note_on_c, 0, 62, 92
2, 208320, Note_off_c, 0, 62, 64
2, 208320, Note_on_c, 0, 74, 92
2, 208368, Note_off_c, 0, 74, 64
2, 208368, Note_on_c, 0, 69, 92
2, 208416, Note_off_c, 0, 69, 64
2, 208416, Note_on_c, 0, 66, 92
2, 208464, Note_off_c, 0, 66, 64
2, 208464, Note_on_c, 0, 62, 92
2, 208512, Note_off_c, 0, 62, 64
2, 208512, Note_on_c, 0, 74, 92
2, 208560, Note_off_c, 0, 74, 64
2, 208560, Note_on_c, 0, 71, 92
2, 208608, Note_off_c, 0, 71, 64
2, 208608, Note_on_c, 0, 67, 92
2, 208656, Note_off_c, 0, 67, 64
2, 208656, Note_on_c, 0, 62, 92
2, 208704, Note_off_c, 0, 62, 64
2, 208704, Note_on_c, 0, 74, 92
2, 208752, Note_off_c, 0, 74, 64
2, 208752, Note_on_c, 0, 71, 92
2, 208800, Note_off_c, 0, 71, 64
2, 208800, Note_on_c, 0, 67, 92
2, 208848, Note_off_c, 0, 67, 64
2, 208848, Note_on_c, 0, 62, 92
2, 208896, Note_off_c, 0, 62, 64
2, 208896, Note_on_c, 0, 66, 92
2, 208944, Note_off_c, 0, 66, 64
2, 208944, Note_on_c, 0, 62, 92
2, 208992, Note_off_c, 0, 62, 64
2, 209088, Note_on_c, 0, 66, 92
2, 209136, Note_off_c, 0, 66, 64
2, 209136, Note_on_c, 0, 62, 92
2, 209184, Note_off_c, 0, 62, 64
2, 209280, Note_on_c, 0, 67, 92
2, 209328, Note_off_c, 0, 67, 64
2, 209328, Note_on_c, 0, 62, 92
2, 209376, Note_off_c, 0, 62, 64
2, 209472, Note_on_c, 0, 67, 92
2, 209520, Note_off_c, 0, 67, 64
2, 209520, Note_on_c, 0, 62, 92
2, 209568, Note_off_c, 0, 62, 64
2, 209664, Note_on_c, 0, 67, 92
2, 209712, Note_off_c, 0, 67, 64
2, 209712, Note_on_c, 0, 62, 92
2, 209760, Note_off_c, 0, 62, 64
2, 209856, Note_on_c, 0, 67, 92
2, 209904, Note_off_c, 0, 67, 64
2, 209904, Note_on_c, 0, 62, 92
2, 209952, Note_off_c, 0, 62, 64
2, 210048, Note_on_c, 0, 67, 92
2, 210096, Note_off_c, 0, 67, 64
2, 210096, Note_on_c, 0, 62, 92
2, 210144, Note_off_c, 0, 62, 64
2, 210240, Note_on_c, 0, 66, 92
2, 210288, Note_off_c, 0, 66, 64
2, 210288, Note_on_c, 0, 60, 92
2, 210336, Note_off_c, 0, 60, 64
2, 210432, Note_on_c, 0, 62, 92
2, 210480, Note_off_c, 0, 62, 64
2, 210480, Note_on_c, 0, 67, 92
2, 210528, Note_off_c, 0, 67, 64
2, 210528, Note_on_c, 0, 66, 92
2, 210576, Note_off_c, 0, 66, 64
2, 210576, Note_on_c, 0, 64, 92
2, 210624, Note_off_c, 0, 64, 64
2, 210624, Note_on_c, 0, 62, 92
2, 210672, Note_off_c, 0, 62, 64
2, 210864, Note_on_c, 0, 74, 92
2, 210912, Note_off_c, 0, 74, 64
2, 210912, Note_on_c, 0, 72, 92
2, 210960, Note_off_c, 0, 72, 64
2, 210960, Note_on_c, 0, 71, 92
2, 211008, Note_off_c, 0, 71, 64
2, 211008, Note_on_c, 0, 69, 92
2, 211056, Note_off_c, 0, 69, 64
2, 211056, Note_on_c, 0, 67, 92
2, 211104, Note_off_c, 0, 67, 64
2, 211104, Note_on_c, 0, 66, 92
2, 211152, Note_off_c, 0, 66, 64
2, 211152, Note_on_c, 0, 64, 92
2, 211200, Note_off_c, 0, 64, 64
2, 211200, Note_on_c, 0, 62, 92
2, 211248, Note_off_c, 0, 62, 64
2, 211248, Note_on_c, 0, 79, 92
2, 211296, Note_off_c, 0, 79, 64
2, 211296, Note_on_c, 0, 78, 92
2, 211344, Note_off_c, 0, 78, 64
2, 211344, Note_on_c, 0, 76, 92
2, 211392, Note_off_c, 0, 76, 64
2, 211392, Note_on_c, 0, 74, 92
2, 211440, Note_off_c, 0, 74, 64
2, 211440, Note_on_c, 0, 72, 92
2, 211488, Note_off_c, 0, 72, 64
2, 211488, Note_on_c, 0, 71, 92
2, 211536, Note_off_c, 0, 71, 64
2, 211536, Note_on_c, 0, 69, 92
2, 211584, Note_off_c, 0, 69, 64
2, 211584, Note_on_c, 0, 67, 92
2, 211632, Note_off_c, 0, 67, 64
2, 211632, Note_on_c, 0, 67, 92
2, 211680, Note_off_c, 0, 67, 64
2, 211680, Note_on_c, 0, 66, 92
2, 211728, Note_off_c, 0, 66, 64
2, 211728, Note_on_c, 0, 64, 92
2, 211776, Note_off_c, 0, 64, 64
2, 211776, Note_on_c, 0, 62, 92
2, 211824, Note_off_c, 0, 62, 64
2, 211968, Note_on_c, 0, 67, 92
2, 212016, Note_off_c, 0, 67, 64
2, 212016, Note_on_c, 0, 62, 92
2, 212064, Note_off_c, 0, 62, 64
2, 212160, Note_on_c, 0, 67, 92
2, 212208, Note_off_c, 0, 67, 64
2, 212208, Note_on_c, 0, 62, 92
2, 212256, Note_off_c, 0, 62, 64
2, 212352, Note_on_c, 0, 67, 92
2, 212400, Note_off_c, 0, 67, 64
2, 212400, Note_on_c, 0, 64, 92
2, 212448, Note_off_c, 0, 64, 64
2, 212544, Note_on_c, 0, 67, 92
2, 212592, Note_off_c, 0, 67, 64
2, 212592, Note_on_c, 0, 64, 92
2, 212640, Note_off_c, 0, 64, 64
2, 212736, Note_on_c, 0, 71, 92
2, 212784, Note_off_c, 0, 71, 64
2, 212784, Note_on_c, 0, 67, 92
2, 212832, Note_off_c, 0, 67, 64
2, 212928, Note_on_c, 0, 71, 92
2, 212976, Note_off_c, 0, 71, 64
2, 212976, Note_on_c, 0, 67, 92
2, 213024, Note_off_c, 0, 67, 64
2, 213120, Note_on_c, 0, 72, 92
2, 213168, Note_off_c, 0, 72, 64
2, 213168, Note_on_c, 0, 67, 92
2, 213216, Note_off_c, 0, 67, 64
2, 213312, Note_on_c, 0, 72, 92
2, 213360, Note_off_c, 0, 72, 64
2, 213360, Note_on_c, 0, 67, 92
2, 213408, Note_off_c, 0, 67, 64
2, 213504, Note_on_c, 0, 79, 92
2, 213552, Note_off_c, 0, 79, 64
2, 213552, Note_on_c, 0, 74, 92
2, 213600, Note_off_c, 0, 74, 64
2, 213600, Note_on_c, 0, 71, 92
2, 213648, Note_off_c, 0, 71, 64
2, 213648, Note_on_c, 0, 67, 92
2, 213696, Note_off_c, 0, 67, 64
2, 213696, Note_on_c, 0, 79, 92
2, 213744, Note_off_c, 0, 79, 64
2, 213744, Note_on_c, 0, 74, 92
2, 213792, Note_off_c, 0, 74, 64
2, 213792, Note_on_c, 0, 71, 92
2, 213840, Note_off_c, 0, 71, 64
2, 213840, Note_on_c, 0, 67, 92
2, 213888, Note_off_c, 0, 67, 64
2, 213888, Note_on_c, 0, 79, 92
2, 213936, Note_off_c, 0, 79, 64
2, 213936, Note_on_c, 0, 76, 92
2, 213984, Note_off_c, 0, 76, 64
2, 213984, Note_on_c, 0, 72, 92
2, 214032, Note_off_c, 0, 72, 64
2, 214032, Note_on_c, 0, 67, 92
2, 214080, Note_off_c, 0, 67, 64
2, 214080, Note_on_c, 0, 79, 92
2, 214128, Note_off_c, 0, 79, 64
2, 214128, Note_on_c, 0, 76, 92
2, 214176, Note_off_c, 0, 76, 64
2, 214176, Note_on_c, 0, 72, 92
2, 214224, Note_off_c, 0, 72, 64
2, 214224, Note_on_c, 0, 67, 92
2, 214272, Note_off_c, 0, 67, 64
2, 214272, Note_on_c, 0, 71, 92
2, 214320, Note_off_c, 0, 71, 64
2, 214320, Note_on_c, 0, 67, 92
2, 214368, Note_off_c, 0, 67, 64
2, 214368, Note_on_c, 0, 62, 92
2, 214416, Note_off_c, 0, 62, 64
2, 214416, Note_on_c, 0, 55, 92
2, 214464, Note_off_c, 0, 55, 64
2, 214464, Note_on_c, 0, 71, 92
2, 214512, Note_off_c, 0, 71, 64
2, 214512, Note_on_c, 0, 67, 92
2, 214560, Note_off_c, 0, 67, 64
2, 214560, Note_on_c, 0, 62, 92
2, 214608, Note_off_c, 0, 62, 64
2, 214608, Note_on_c, 0, 55, 92
2, 214656, Note_off_c, 0, 55, 64
2, 214656, Note_on_c, 0, 72, 92
2, 214704, Note_off_c, 0, 72, 64
2, 214704, Note_on_c, 0, 67, 92
2, 214752, Note_off_c, 0, 67, 64
2, 214752, Note_on_c, 0, 64, 92
2, 214800, Note_off_c, 0, 64, 64
2, 214800, Note_on_c, 0, 55, 92
2, 214848, Note_off_c, 0, 55, 64
2, 214848, Note_on_c, 0, 72, 92
2, 214896, Note_off_c, 0, 72, 64
2, 214896, Note_on_c, 0, 67, 92
2, 214944, Note_off_c, 0, 67, 64
2, 214944, Note_on_c, 0, 64, 92
2, 214992, Note_off_c, 0, 64, 64
2, 214992, Note_on_c, 0, 55, 92
2, 215040, Note_off_c, 0, 55, 64
2, 215040, Note_on_c, 0, 72, 92
2, 215088, Note_off_c, 0, 72, 64
2, 215088, Note_on_c, 0, 67, 92
2, 215136, Note_off_c, 0, 67, 64
2, 215136, Note_on_c, 0, 64, 92
2, 215184, Note_off_c, 0, 64, 64
2, 215184, Note_on_c, 0, 55, 92
2, 215232, Note_off_c, 0, 55, 64
2, 215232, Note_on_c, 0, 72, 92
2, 215280, Note_off_c, 0, 72, 64
2, 215280, Note_on_c, 0, 67, 92
2, 215328, Note_off_c, 0, 67, 64
2, 215328, Note_on_c, 0, 64, 92
2, 215376, Note_off_c, 0, 64, 64
2, 215376, Note_on_c, 0, 55, 92
2, 215424, Note_off_c, 0, 55, 64
2, 215424, Note_on_c, 0, 72, 92
2, 215472, Note_off_c, 0, 72, 64
2, 215472, Note_on_c, 0, 67, 92
2, 215520, Note_off_c, 0, 67, 64
2, 215520, Note_on_c, 0, 63, 92
2, 215568, Note_off_c, 0, 63, 64
2, 215568, Note_on_c, 0, 55, 92
2, 215616, Note_off_c, 0, 55, 64
2, 215616, Note_on_c, 0, 72, 92
2, 215664, Note_off_c, 0, 72, 64
2, 215664, Note_on_c, 0, 67, 92
2, 215712, Note_off_c, 0, 67, 64
2, 215712, Note_on_c, 0, 63, 92
2, 215760, Note_off_c, 0, 63, 64
2, 215760, Note_on_c, 0, 55, 92
2, 215808, Note_off_c, 0, 55, 64
2, 215808, Note_on_c, 0, 72, 92
2, 215856, Note_off_c, 0, 72, 64
2, 215856, Note_on_c, 0, 65, 92
2, 215904, Note_off_c, 0, 65, 64
2, 215904, Note_on_c, 0, 62, 92
2, 215952, Note_off_c, 0, 62, 64
2, 215952, Note_on_c, 0, 55, 92
2, 216000, Note_off_c, 0, 55, 64
2, 216000, Note_on_c, 0, 72, 92
2, 216048, Note_off_c, 0, 72, 64
2, 216048, Note_on_c, 0, 65, 92
2, 216096, Note_off_c, 0, 65, 64
2, 216096, Note_on_c, 0, 62, 92
2, 216144, Note_off_c, 0, 62, 64
2, 216144, Note_on_c, 0, 55, 92
2, 216192, Note_off_c, 0, 55, 64
2, 216192, Note_on_c, 0, 71, 92
2, 216240, Note_off_c, 0, 71, 64
2, 216240, Note_on_c, 0, 65, 92
2, 216288, Note_off_c, 0, 65, 64
2, 216288, Note_on_c, 0, 62, 92
2, 216336, Note_off_c, 0, 62, 64
2, 216336, Note_on_c, 0, 55, 92
2, 216384, Note_off_c, 0, 55, 64
2, 216384, Note_on_c, 0, 71, 92
2, 216432, Note_off_c, 0, 71, 64
2, 216432, Note_on_c, 0, 65, 92
2, 216480, Note_off_c, 0, 65, 64
2, 216480, Note_on_c, 0, 62, 92
2, 216528, Note_off_c, 0, 62, 64
2, 216528, Note_on_c, 0, 55, 92
2, 216576, Note_off_c, 0, 55, 64
2, 216576, Note_on_c, 0, 64, 92
2, 216576, Note_on_c, 0, 67, 92
2, 216576, Note_on_c, 0, 72, 92
2, 216768, Note_off_c, 0, 72, 64
2, 216768, Note_off_c, 0, 67, 64
2, 216768, Note_off_c, 0, 64, 64
2, 216912, Note_on_c, 0, 79, 92
2, 216960, Note_off_c, 0, 79, 64
2, 216960, Note_on_c, 0, 79, 92
2, 217248, Note_off_c, 0, 79, 64
2, 217248, Note_on_c, 0, 77, 92
2, 217344, Note_off_c, 0, 77, 64
2, 217344, Note_on_c, 0, 76, 92
2, 217392, Note_off_c, 0, 76, 64
2, 217392, Note_on_c, 0, 77, 92
2, 217440, Note_off_c, 0, 77, 64
2, 217440, Note_on_c, 0, 76, 92
2, 217488, Note_off_c, 0, 76, 64
2, 217488, Note_on_c, 0, 77, 92
2, 217536, Note_off_c, 0, 77, 64
2, 217536, Note_on_c, 0, 76, 92
2, 217584, Note_off_c, 0, 76, 64
2, 217584, Note_on_c, 0, 77, 92
2, 217632, Note_off_c, 0, 77, 64
2, 217632, Note_on_c, 0, 76, 92
2, 217680, Note_off_c, 0, 76, 64
2, 217680, Note_on_c, 0, 77, 92
2, 217728, Note_off_c, 0, 77, 64
2, 217728, Note_on_c, 0, 77, 92
2, 217752, Note_off_c, 0, 77, 64
2, 217752, Note_on_c, 0, 76, 92
2, 217776, Note_off_c, 0, 76, 64
2, 217776, Note_on_c, 0, 77, 92
2, 217800, Note_off_c, 0, 77, 64
2, 217800, Note_on_c, 0, 76, 92
2, 217824, Note_off_c, 0, 76, 64
2, 217824, Note_on_c, 0, 76, 92
2, 217872, Note_off_c, 0, 76, 64
2, 217872, Note_on_c, 0, 77, 92
2, 217920, Note_off_c, 0, 77, 64
2, 217920, Note_on_c, 0, 79, 92
2, 218016, Note_off_c, 0, 79, 64
2, 218016, Note_on_c, 0, 76, 92
2, 218112, Note_off_c, 0, 76, 64
2, 218112, Note_on_c, 0, 72, 92
2, 218400, Note_off_c, 0, 72, 64
2, 218400, Note_on_c, 0, 74, 92
2, 218496, Note_off_c, 0, 74, 64
2, 218496, Note_on_c, 0, 72, 92
2, 218544, Note_off_c, 0, 72, 64
2, 218544, Note_on_c, 0, 74, 92
2, 218592, Note_off_c, 0, 74, 64
2, 218592, Note_on_c, 0, 72, 92
2, 218640, Note_off_c, 0, 72, 64
2, 218640, Note_on_c, 0, 74, 92
2, 218688, Note_off_c, 0, 74, 64
2, 218688, Note_on_c, 0, 72, 92
2, 218736, Note_off_c, 0, 72, 64
2, 218736, Note_on_c, 0, 74, 92
2, 218784, Note_off_c, 0, 74, 64
2, 218784, Note_on_c, 0, 72, 92
2, 218832, Note_off_c, 0, 72, 64
2, 218832, Note_on_c, 0, 74, 92
2, 218880, Note_off_c, 0, 74, 64
2, 218880, Note_on_c, 0, 74, 92
2, 218904, Note_off_c, 0, 74, 64
2, 218904, Note_on_c, 0, 72, 92
2, 218928, Note_off_c, 0, 72, 64
2, 218928, Note_on_c, 0, 74, 92
2, 218952, Note_off_c, 0, 74, 64
2, 218952, Note_on_c, 0, 72, 92
2, 218976, Note_off_c, 0, 72, 64
2, 218976, Note_on_c, 0, 72, 92
2, 219024, Note_off_c, 0, 72, 64
2, 219024, Note_on_c, 0, 74, 92
2, 219072, Note_off_c, 0, 74, 64
2, 219072, Note_on_c, 0, 72, 92
2, 219168, Note_off_c, 0, 72, 64
2, 219168, Note_on_c, 0, 69, 92
2, 219264, Note_off_c, 0, 69, 64
2, 219264, Note_on_c, 0, 66, 92
2, 219312, Note_off_c, 0, 66, 64
2, 219312, Note_on_c, 0, 62, 92
2, 219360, Note_off_c, 0, 62, 64
2, 219360, Note_on_c, 0, 64, 92
2, 219408, Note_off_c, 0, 64, 64
2, 219408, Note_on_c, 0, 66, 92
2, 219456, Note_off_c, 0, 66, 64
2, 219456, Note_on_c, 0, 67, 92
2, 219504, Note_off_c, 0, 67, 64
2, 219504, Note_on_c, 0, 69, 92
2, 219552, Note_off_c, 0, 69, 64
2, 219552, Note_on_c, 0, 71, 92
2, 219600, Note_off_c, 0, 71, 64
2, 219600, Note_on_c, 0, 72, 92
2, 219648, Note_off_c, 0, 72, 64
2, 219648, Note_on_c, 0, 66, 92
2, 219648, Note_on_c, 0, 69, 92
2, 219648, Note_on_c, 0, 74, 92
2, 220032, Note_off_c, 0, 74, 64
2, 220032, Note_off_c, 0, 69, 64
2, 220032, Note_off_c, 0, 66, 64
2, 220032, Note_on_c, 0, 67, 92
2, 220032, Note_on_c, 0, 74, 92
2, 220416, Note_off_c, 0, 74, 64
2, 220416, Note_on_c, 0, 69, 92
2, 220416, Note_on_c, 0, 72, 92
2, 220512, Note_off_c, 0, 67, 64
2, 220512, Note_on_c, 0, 67, 92
2, 220608, Note_off_c, 0, 67, 64
2, 220608, Note_on_c, 0, 66, 92
2, 220704, Note_off_c, 0, 66, 64
2, 220704, Note_on_c, 0, 64, 92
2, 220800, Note_off_c, 0, 64, 64
2, 220896, Note_off_c, 0, 72, 64
2, 220896, Note_on_c, 0, 72, 92
2, 220992, Note_off_c, 0, 72, 64
2, 220992, Note_on_c, 0, 71, 92
2, 221088, Note_off_c, 0, 71, 64
2, 221088, Note_off_c, 0, 69, 64
2, 221088, Note_on_c, 0, 69, 92
2, 221184, Note_off_c, 0, 69, 64
2, 221184, Note_on_c, 0, 67, 92
2, 221184, Note_on_c, 0, 71, 92
2, 221376, Note_on_c, 0, 63, 92
2, 221568, Note_off_c, 0, 63, 64
2, 221568, Note_on_c, 0, 64, 92
2, 221952, Note_off_c, 0, 71, 64
2, 221952, Note_off_c, 0, 67, 64
2, 221952, Note_on_c, 0, 66, 92
2, 221952, Note_on_c, 0, 71, 92
2, 222144, Note_off_c, 0, 64, 64
2, 222144, Note_on_c, 0, 63, 92
2, 222240, Note_off_c, 0, 63, 64
2, 222240, Note_on_c, 0, 61, 92
2, 222336, Note_off_c, 0, 61, 64
2, 222336, Note_on_c, 0, 63, 92
2, 222720, Note_off_c, 0, 63, 64
2, 222720, Note_off_c, 0, 71, 64
2, 222720, Note_off_c, 0, 66, 64
2, 222720, Note_on_c, 0, 59, 92
2, 222720, Note_on_c, 0, 64, 92
2, 222720, Note_on_c, 0, 71, 92
2, 223488, Note_off_c, 0, 71, 64
2, 223488, Note_off_c, 0, 64, 64
2, 223488, Note_off_c, 0, 59, 64
2, 223488, Note_on_c, 0, 60, 92
2, 223488, Note_on_c, 0, 64, 92
2, 223488, Note_on_c, 0, 69, 92
2, 223680, Note_off_c, 0, 69, 64
2, 223680, Note_off_c, 0, 64, 64
2, 223680, Note_off_c, 0, 60, 64
2, 223824, Note_on_c, 0, 72, 92
2, 223872, Note_off_c, 0, 72, 64
2, 223872, Note_on_c, 0, 72, 92
2, 224160, Note_off_c, 0, 72, 64
2, 224160, Note_on_c, 0, 71, 92
2, 224256, Note_off_c, 0, 71, 64
2, 224256, Note_on_c, 0, 69, 92
2, 224304, Note_off_c, 0, 69, 64
2, 224304, Note_on_c, 0, 71, 92
2, 224352, Note_off_c, 0, 71, 64
2, 224352, Note_on_c, 0, 69, 92
2, 224400, Note_off_c, 0, 69, 64
2, 224400, Note_on_c, 0, 71, 92
2, 224448, Note_off_c, 0, 71, 64
2, 224448, Note_on_c, 0, 69, 92
2, 224496, Note_off_c, 0, 69, 64
2, 224496, Note_on_c, 0, 71, 92
2, 224544, Note_off_c, 0, 71, 64
2, 224544, Note_on_c, 0, 69, 92
2, 224592, Note_off_c, 0, 69, 64
2, 224592, Note_on_c, 0, 71, 92
2, 224640, Note_off_c, 0, 71, 64
2, 224640, Note_on_c, 0, 71, 92
2, 224664, Note_off_c, 0, 71, 64
2, 224664, Note_on_c, 0, 69, 92
2, 224688, Note_off_c, 0, 69, 64
2, 224688, Note_on_c, 0, 71, 92
2, 224712, Note_off_c, 0, 71, 64
2, 224712, Note_on_c, 0, 69, 92
2, 224736, Note_off_c, 0, 69, 64
2, 224736, Note_on_c, 0, 69, 92
2, 224784, Note_off_c, 0, 69, 64
2, 224784, Note_on_c, 0, 71, 92
2, 224832, Note_off_c, 0, 71, 64
2, 224832, Note_on_c, 0, 72, 92
2, 224928, Note_off_c, 0, 72, 64
2, 224928, Note_on_c, 0, 69, 92
2, 225024, Note_off_c, 0, 69, 64
2, 225024, Note_on_c, 0, 66, 92
2, 225312, Note_off_c, 0, 66, 64
2, 225312, Note_on_c, 0, 67, 92
2, 225408, Note_off_c, 0, 67, 64
2, 225408, Note_on_c, 0, 66, 92
2, 225456, Note_off_c, 0, 66, 64
2, 225456, Note_on_c, 0, 67, 92
2, 225504, Note_off_c, 0, 67, 64
2, 225504, Note_on_c, 0, 66, 92
2, 225552, Note_off_c, 0, 66, 64
2, 225552, Note_on_c, 0, 67, 92
2, 225600, Note_off_c, 0, 67, 64
2, 225600, Note_on_c, 0, 66, 92
2, 225648, Note_off_c, 0, 66, 64
2, 225648, Note_on_c, 0, 67, 92
2, 225696, Note_off_c, 0, 67, 64
2, 225696, Note_on_c, 0, 66, 92
2, 225744, Note_off_c, 0, 66, 64
2, 225744, Note_on_c, 0, 67, 92
2, 225792, Note_off_c, 0, 67, 64
2, 225792, Note_on_c, 0, 67, 92
2, 225816, Note_off_c, 0, 67, 64
2, 225816, Note_on_c, 0, 66, 92
2, 225840, Note_off_c, 0, 66, 64
2, 225840, Note_on_c, 0, 67, 92
2, 225864, Note_off_c, 0, 67, 64
2, 225864, Note_on_c, 0, 66, 92
2, 225888, Note_off_c, 0, 66, 64
2, 225888, Note_on_c, 0, 66, 92
2, 225936, Note_off_c, 0, 66, 64
2, 225936, Note_on_c, 0, 67, 92
2, 225984, Note_off_c, 0, 67, 64
2, 225984, Note_on_c, 0, 69, 92
2, 226080, Note_off_c, 0, 69, 64
2, 226080, Note_on_c, 0, 66, 92
2, 226176, Note_off_c, 0, 66, 64
2, 226176, Note_on_c, 0, 63, 92
2, 226224, Note_off_c, 0, 63, 64
2, 226224, Note_on_c, 0, 59, 92
2, 226272, Note_off_c, 0, 59, 64
2, 226272, Note_on_c, 0, 61, 92
2, 226320, Note_off_c, 0, 61, 64
2, 226320, Note_on_c, 0, 63, 92
2, 226368, Note_off_c, 0, 63, 64
2, 226368, Note_on_c, 0, 64, 92
2, 226416, Note_off_c, 0, 64, 64
2, 226416, Note_on_c, 0, 66, 92
2, 226464, Note_off_c, 0, 66, 64
2, 226464, Note_on_c, 0, 67, 92
2, 226512, Note_off_c, 0, 67, 64
2, 226512, Note_on_c, 0, 69, 92
2, 226560, Note_off_c, 0, 69, 64
2, 226560, Note_on_c, 0, 63, 92
2, 226560, Note_on_c, 0, 66, 92
2, 226560, Note_on_c, 0, 71, 92
2, 226944, Note_off_c, 0, 71, 64
2, 226944, Note_off_c, 0, 66, 64
2, 226944, Note_off_c, 0, 63, 64
2, 226944, Note_on_c, 0, 64, 92
2, 226944, Note_on_c, 0, 67, 92
2, 226944, Note_on_c, 0, 71, 92
2, 227328, Note_off_c, 0, 71, 64
2, 227328, Note_off_c, 0, 67, 64
2, 227328, Note_off_c, 0, 64, 64
2, 227328, Note_on_c, 0, 71, 92
2, 227392, Note_off_c, 0, 71, 64
2, 227392, Note_on_c, 0, 66, 92
2, 227456, Note_off_c, 0, 66, 64
2, 227456, Note_on_c, 0, 63, 92
2, 227520, Note_off_c, 0, 63, 64
2, 227520, Note_on_c, 0, 71, 92
2, 227584, Note_off_c, 0, 71, 64
2, 227584, Note_on_c, 0, 66, 92
2, 227648, Note_off_c, 0, 66, 64
2, 227648, Note_on_c, 0, 63, 92
2, 227712, Note_off_c, 0, 63, 64
2, 227712, Note_on_c, 0, 71, 92
2, 227776, Note_off_c, 0, 71, 64
2, 227776, Note_on_c, 0, 67, 92
2, 227840, Note_off_c, 0, 67, 64
2, 227840, Note_on_c, 0, 64, 92
2, 227904, Note_off_c, 0, 64, 64
2, 227904, Note_on_c, 0, 71, 92
2, 227968, Note_off_c, 0, 71, 64
2, 227968, Note_on_c, 0, 67, 92
2, 228032, Note_off_c, 0, 67, 64
2, 228032, Note_on_c, 0, 64, 92
2, 228096, Note_off_c, 0, 64, 64
2, 228096, Note_on_c, 0, 75, 92
2, 228160, Note_off_c, 0, 75, 64
2, 228160, Note_on_c, 0, 71, 92
2, 228224, Note_off_c, 0, 71, 64
2, 228224, Note_on_c, 0, 66, 92
2, 228288, Note_off_c, 0, 66, 64
2, 228288, Note_on_c, 0, 75, 92
2, 228352, Note_off_c, 0, 75, 64
2, 228352, Note_on_c, 0, 71, 92
2, 228416, Note_off_c, 0, 71, 64
2, 228416, Note_on_c, 0, 66, 92
2, 228480, Note_off_c, 0, 66, 64
2, 228480, Note_on_c, 0, 76, 92
2, 228544, Note_off_c, 0, 76, 64
2, 228544, Note_on_c, 0, 71, 92
2, 228608, Note_off_c, 0, 71, 64
2, 228608, Note_on_c, 0, 67, 92
2, 228672, Note_off_c, 0, 67, 64
2, 228672, Note_on_c, 0, 76, 92
2, 228736, Note_off_c, 0, 76, 64
2, 228736, Note_on_c, 0, 71, 92
2, 228800, Note_off_c, 0, 71, 64
2, 228800, Note_on_c, 0, 67, 92
2, 228864, Note_off_c, 0, 67, 64
2, 228864, Note_on_c, 0, 78, 92
2, 228928, Note_off_c, 0, 78, 64
2, 228928, Note_on_c, 0, 75, 92
2, 228992, Note_off_c, 0, 75, 64
2, 228992, Note_on_c, 0, 71, 92
2, 229056, Note_off_c, 0, 71, 64
2, 229056, Note_on_c, 0, 78, 92
2, 229120, Note_off_c, 0, 78, 64
2, 229120, Note_on_c, 0, 75, 92
2, 229184, Note_off_c, 0, 75, 64
2, 229184, Note_on_c, 0, 71, 92
2, 229248, Note_off_c, 0, 71, 64
2, 229248, Note_on_c, 0, 79, 92
2, 229312, Note_off_c, 0, 79, 64
2, 229312, Note_on_c, 0, 76, 92
2, 229376, Note_off_c, 0, 76, 64
2, 229376, Note_on_c, 0, 71, 92
2, 229440, Note_off_c, 0, 71, 64
2, 229440, Note_on_c, 0, 79, 92
2, 229504, Note_off_c, 0, 79, 64
2, 229504, Note_on_c, 0, 76, 92
2, 229568, Note_off_c, 0, 76, 64
2, 229568, Note_on_c, 0, 71, 92
2, 229632, Note_off_c, 0, 71, 64
2, 229632, Note_on_c, 0, 83, 92
2, 229696, Note_off_c, 0, 83, 64
2, 229696, Note_on_c, 0, 78, 92
2, 229760, Note_off_c, 0, 78, 64
2, 229760, Note_on_c, 0, 75, 92
2, 229824, Note_off_c, 0, 75, 64
2, 229824, Note_on_c, 0, 83, 92
2, 229888, Note_off_c, 0, 83, 64
2, 229888, Note_on_c, 0, 78, 92
2, 229952, Note_off_c, 0, 78, 64
2, 229952, Note_on_c, 0, 75, 92
2, 230016, Note_off_c, 0, 75, 64
2, 230016, Note_on_c, 0, 83, 92
2, 230080, Note_off_c, 0, 83, 64
2, 230080, Note_on_c, 0, 79, 92
2, 230144, Note_off_c, 0, 79, 64
2, 230144, Note_on_c, 0, 76, 92
2, 230208, Note_off_c, 0, 76, 64
2, 230208, Note_on_c, 0, 83, 92
2, 230272, Note_off_c, 0, 83, 64
2, 230272, Note_on_c, 0, 79, 92
2, 230336, Note_off_c, 0, 79, 64
2, 230336, Note_on_c, 0, 76, 92
2, 230400, Note_off_c, 0, 76, 64
2, 230400, Note_on_c, 0, 78, 92
2, 230464, Note_off_c, 0, 78, 64
2, 230464, Note_on_c, 0, 75, 92
2, 230528, Note_off_c, 0, 75, 64
2, 230528, Note_on_c, 0, 71, 92
2, 230592, Note_off_c, 0, 71, 64
2, 230592, Note_on_c, 0, 78, 92
2, 230656, Note_off_c, 0, 78, 64
2, 230656, Note_on_c, 0, 75, 92
2, 230720, Note_off_c, 0, 75, 64
2, 230720, Note_on_c, 0, 71, 92
2, 230784, Note_off_c, 0, 71, 64
2, 230784, Note_on_c, 0, 79, 92
2, 230848, Note_off_c, 0, 79, 64
2, 230848, Note_on_c, 0, 76, 92
2, 230912, Note_off_c, 0, 76, 64
2, 230912, Note_on_c, 0, 71, 92
2, 230976, Note_off_c, 0, 71, 64
2, 230976, Note_on_c, 0, 79, 92
2, 231040, Note_off_c, 0, 79, 64
2, 231040, Note_on_c, 0, 76, 92
2, 231104, Note_off_c, 0, 76, 64
2, 231104, Note_on_c, 0, 71, 92
2, 231168, Note_off_c, 0, 71, 64
2, 231168, Note_on_c, 0, 78, 92
2, 231232, Note_off_c, 0, 78, 64
2, 231232, Note_on_c, 0, 75, 92
2, 231296, Note_off_c, 0, 75, 64
2, 231296, Note_on_c, 0, 71, 92
2, 231360, Note_off_c, 0, 71, 64
2, 231360, Note_on_c, 0, 78, 92
2, 231424, Note_off_c, 0, 78, 64
2, 231424, Note_on_c, 0, 75, 92
2, 231488, Note_off_c, 0, 75, 64
2, 231488, Note_on_c, 0, 71, 92
2, 231552, Note_off_c, 0, 71, 64
2, 231552, Note_on_c, 0, 79, 92
2, 231616, Note_off_c, 0, 79, 64
2, 231616, Note_on_c, 0, 76, 92
2, 231680, Note_off_c, 0, 76, 64
2, 231680, Note_on_c, 0, 71, 92
2, 231744, Note_off_c, 0, 71, 64
2, 231744, Note_on_c, 0, 79, 92
2, 231808, Note_off_c, 0, 79, 64
2, 231808, Note_on_c, 0, 76, 92
2, 231872, Note_off_c, 0, 76, 64
2, 231872, Note_on_c, 0, 71, 92
2, 231936, Note_off_c, 0, 71, 64
2, 231936, Note_on_c, 0, 78, 92
2, 232000, Note_off_c, 0, 78, 64
2, 232000, Note_on_c, 0, 75, 92
2, 232064, Note_off_c, 0, 75, 64
2, 232064, Note_on_c, 0, 71, 92
2, 232128, Note_off_c, 0, 71, 64
2, 232128, Note_on_c, 0, 78, 92
2, 232192, Note_off_c, 0, 78, 64
2, 232192, Note_on_c, 0, 75, 92
2, 232256, Note_off_c, 0, 75, 64
2, 232256, Note_on_c, 0, 71, 92
2, 232320, Note_off_c, 0, 71, 64
2, 232320, Note_on_c, 0, 78, 92
2, 232384, Note_off_c, 0, 78, 64
2, 232384, Note_on_c, 0, 75, 92
2, 232448, Note_off_c, 0, 75, 64
2, 232448, Note_on_c, 0, 69, 92
2, 232512, Note_off_c, 0, 69, 64
2, 232512, Note_on_c, 0, 78, 92
2, 232576, Note_off_c, 0, 78, 64
2, 232576, Note_on_c, 0, 75, 92
2, 232640, Note_off_c, 0, 75, 64
2, 232640, Note_on_c, 0, 69, 92
2, 232704, Note_off_c, 0, 69, 64
2, 232704, Note_on_c, 0, 68, 92
2, 232704, Note_on_c, 0, 71, 92
2, 232704, Note_on_c, 0, 76, 92
2, 232896, Note_off_c, 0, 76, 64
2, 232896, Note_off_c, 0, 71, 64
2, 232896, Note_off_c, 0, 68, 64
2, 232896, Note_on_c, 0, 76, 92
2, 232960, Note_off_c, 0, 76, 64
2, 232960, Note_on_c, 0, 71, 92
2, 233024, Note_off_c, 0, 71, 64
2, 233024, Note_on_c, 0, 68, 92
2, 233088, Note_off_c, 0, 68, 64
2, 233088, Note_on_c, 0, 76, 92
2, 233152, Note_off_c, 0, 76, 64
2, 233152, Note_on_c, 0, 72, 92
2, 233216, Note_off_c, 0, 72, 64
2, 233216, Note_on_c, 0, 69, 92
2, 233280, Note_off_c, 0, 69, 64
2, 233280, Note_on_c, 0, 76, 92
2, 233344, Note_off_c, 0, 76, 64
2, 233344, Note_on_c, 0, 72, 92
2, 233408, Note_off_c, 0, 72, 64
2, 233408, Note_on_c, 0, 69, 92
2, 233472, Note_off_c, 0, 69, 64
2, 233472, Note_on_c, 0, 71, 92
2, 233536, Note_off_c, 0, 71, 64
2, 233536, Note_on_c, 0, 68, 92
2, 233600, Note_off_c, 0, 68, 64
2, 233600, Note_on_c, 0, 64, 92
2, 233664, Note_off_c, 0, 64, 64
2, 233664, Note_on_c, 0, 71, 92
2, 233728, Note_off_c, 0, 71, 64
2, 233728, Note_on_c, 0, 68, 92
2, 233792, Note_off_c, 0, 68, 64
2, 233792, Note_on_c, 0, 64, 92
2, 233856, Note_off_c, 0, 64, 64
2, 233856, Note_on_c, 0, 72, 92
2, 233920, Note_off_c, 0, 72, 64
2, 233920, Note_on_c, 0, 69, 92
2, 233984, Note_off_c, 0, 69, 64
2, 233984, Note_on_c, 0, 64, 92
2, 234048, Note_off_c, 0, 64, 64
2, 234048, Note_on_c, 0, 72, 92
2, 234112, Note_off_c, 0, 72, 64
2, 234112, Note_on_c, 0, 69, 92
2, 234176, Note_off_c, 0, 69, 64
2, 234176, Note_on_c, 0, 64, 92
2, 234240, Note_off_c, 0, 64, 64
2, 234240, Note_on_c, 0, 76, 92
2, 234304, Note_off_c, 0, 76, 64
2, 234304, Note_on_c, 0, 71, 92
2, 234368, Note_off_c, 0, 71, 64
2, 234368, Note_on_c, 0, 68, 92
2, 234432, Note_off_c, 0, 68, 64
2, 234432, Note_on_c, 0, 76, 92
2, 234496, Note_off_c, 0, 76, 64
2, 234496, Note_on_c, 0, 71, 92
2, 234560, Note_off_c, 0, 71, 64
2, 234560, Note_on_c, 0, 68, 92
2, 234624, Note_off_c, 0, 68, 64
2, 234624, Note_on_c, 0, 76, 92
2, 234688, Note_off_c, 0, 76, 64
2, 234688, Note_on_c, 0, 72, 92
2, 234752, Note_off_c, 0, 72, 64
2, 234752, Note_on_c, 0, 69, 92
2, 234816, Note_off_c, 0, 69, 64
2, 234816, Note_on_c, 0, 76, 92
2, 234880, Note_off_c, 0, 76, 64
2, 234880, Note_on_c, 0, 72, 92
2, 234944, Note_off_c, 0, 72, 64
2, 234944, Note_on_c, 0, 69, 92
2, 235008, Note_off_c, 0, 69, 64
2, 235008, Note_on_c, 0, 80, 92
2, 235072, Note_off_c, 0, 80, 64
2, 235072, Note_on_c, 0, 76, 92
2, 235136, Note_off_c, 0, 76, 64
2, 235136, Note_on_c, 0, 71, 92
2, 235200, Note_off_c, 0, 71, 64
2, 235200, Note_on_c, 0, 80, 92
2, 235264, Note_off_c, 0, 80, 64
2, 235264, Note_on_c, 0, 76, 92
2, 235328, Note_off_c, 0, 76, 64
2, 235328, Note_on_c, 0, 71, 92
2, 235392, Note_off_c, 0, 71, 64
2, 235392, Note_on_c, 0, 81, 92
2, 235456, Note_off_c, 0, 81, 64
2, 235456, Note_on_c, 0, 76, 92
2, 235520, Note_off_c, 0, 76, 64
2, 235520, Note_on_c, 0, 72, 92
2, 235584, Note_off_c, 0, 72, 64
2, 235584, Note_on_c, 0, 81, 92
2, 235648, Note_off_c, 0, 81, 64
2, 235648, Note_on_c, 0, 76, 92
2, 235712, Note_off_c, 0, 76, 64
2, 235712, Note_on_c, 0, 72, 92
2, 235776, Note_off_c, 0, 72, 64
2, 235776, Note_on_c, 0, 83, 92
2, 235840, Note_off_c, 0, 83, 64
2, 235840, Note_on_c, 0, 80, 92
2, 235904, Note_off_c, 0, 80, 64
2, 235904, Note_on_c, 0, 76, 92
2, 235968, Note_off_c, 0, 76, 64
2, 235968, Note_on_c, 0, 83, 92
2, 236032, Note_off_c, 0, 83, 64
2, 236032, Note_on_c, 0, 80, 92
2, 236096, Note_off_c, 0, 80, 64
2, 236096, Note_on_c, 0, 76, 92
2, 236160, Note_off_c, 0, 76, 64
2, 236160, Note_on_c, 0, 84, 92
2, 236224, Note_off_c, 0, 84, 64
2, 236224, Note_on_c, 0, 81, 92
2, 236288, Note_off_c, 0, 81, 64
2, 236288, Note_on_c, 0, 76, 92
2, 236352, Note_off_c, 0, 76, 64
2, 236352, Note_on_c, 0, 84, 92
2, 236416, Note_off_c, 0, 84, 64
2, 236416, Note_on_c, 0, 81, 92
2, 236480, Note_off_c, 0, 81, 64
2, 236480, Note_on_c, 0, 76, 92
2, 236544, Note_off_c, 0, 76, 64
2, 236544, Note_on_c, 0, 80, 92
2, 236608, Note_off_c, 0, 80, 64
2, 236608, Note_on_c, 0, 76, 92
2, 236672, Note_off_c, 0, 76, 64
2, 236672, Note_on_c, 0, 71, 92
2, 236736, Note_off_c, 0, 71, 64
2, 236736, Note_on_c, 0, 80, 92
2, 236800, Note_off_c, 0, 80, 64
2, 236800, Note_on_c, 0, 76, 92
2, 236864, Note_off_c, 0, 76, 64
2, 236864, Note_on_c, 0, 71, 92
2, 236928, Note_off_c, 0, 71, 64
2, 236928, Note_on_c, 0, 81, 92
2, 236992, Note_off_c, 0, 81, 64
2, 236992, Note_on_c, 0, 76, 92
2, 237056, Note_off_c, 0, 76, 64
2, 237056, Note_on_c, 0, 72, 92
2, 237120, Note_off_c, 0, 72, 64
2, 237120, Note_on_c, 0, 81, 92
2, 237184, Note_off_c, 0, 81, 64
2, 237184, Note_on_c, 0, 76, 92
2, 237248, Note_off_c, 0, 76, 64
2, 237248, Note_on_c, 0, 72, 92
2, 237312, Note_off_c, 0, 72, 64
2, 237312, Note_on_c, 0, 81, 92
2, 237376, Note_off_c, 0, 81, 64
2, 237376, Note_on_c, 0, 74, 92
2, 237440, Note_off_c, 0, 74, 64
2, 237440, Note_on_c, 0, 71, 92
2, 237504, Note_off_c, 0, 71, 64
2, 237504, Note_on_c, 0, 81, 92
2, 237568, Note_off_c, 0, 81, 64
2, 237568, Note_on_c, 0, 74, 92
2, 237632, Note_off_c, 0, 74, 64
2, 237632, Note_on_c, 0, 71, 92
2, 237696, Note_off_c, 0, 71, 64
2, 237696, Note_on_c, 0, 80, 92
2, 237760, Note_off_c, 0, 80, 64
2, 237760, Note_on_c, 0, 74, 92
2, 237824, Note_off_c, 0, 74, 64
2, 237824, Note_on_c, 0, 71, 92
2, 237888, Note_off_c, 0, 71, 64
2, 237888, Note_on_c, 0, 80, 92
2, 237952, Note_off_c, 0, 80, 64
2, 237952, Note_on_c, 0, 74, 92
2, 238016, Note_off_c, 0, 74, 64
2, 238016, Note_on_c, 0, 71, 92
2, 238080, Note_off_c, 0, 71, 64
2, 238080, Note_on_c, 0, 72, 92
2, 238128, Note_off_c, 0, 72, 64
2, 238128, Note_on_c, 0, 81, 92
2, 238176, Note_off_c, 0, 81, 64
2, 238176, Note_on_c, 0, 79, 92
2, 238224, Note_off_c, 0, 79, 64
2, 238224, Note_on_c, 0, 77, 92
2, 238272, Note_off_c, 0, 77, 64
2, 238272, Note_on_c, 0, 76, 92
2, 238320, Note_off_c, 0, 76, 64
2, 238320, Note_on_c, 0, 74, 92
2, 238368, Note_off_c, 0, 74, 64
2, 238368, Note_on_c, 0, 72, 92
2, 238416, Note_off_c, 0, 72, 64
2, 238416, Note_on_c, 0, 71, 92
2, 238464, Note_off_c, 0, 71, 64
2, 238464, Note_on_c, 0, 69, 92
2, 238512, Note_off_c, 0, 69, 64
2, 238512, Note_on_c, 0, 69, 92
2, 238560, Note_off_c, 0, 69, 64
2, 238560, Note_on_c, 0, 67, 92
2, 238608, Note_off_c, 0, 67, 64
2, 238608, Note_on_c, 0, 65, 92
2, 238656, Note_off_c, 0, 65, 64
2, 238656, Note_on_c, 0, 64, 92
2, 238704, Note_off_c, 0, 64, 64
2, 238704, Note_on_c, 0, 62, 92
2, 238752, Note_off_c, 0, 62, 64
2, 238752, Note_on_c, 0, 60, 92
2, 238800, Note_off_c, 0, 60, 64
2, 238800, Note_on_c, 0, 59, 92
2, 238848, Note_off_c, 0, 59, 64
2, 238848, Note_on_c, 0, 57, 92
2, 238896, Note_off_c, 0, 57, 64
2, 238896, Note_on_c, 0, 64, 92
2, 238944, Note_off_c, 0, 64, 64
2, 238944, Note_on_c, 0, 62, 92
2, 238992, Note_off_c, 0, 62, 64
2, 238992, Note_on_c, 0, 60, 92
2, 239040, Note_off_c, 0, 60, 64
2, 239040, Note_on_c, 0, 59, 92
2, 239088, Note_off_c, 0, 59, 64
2, 239616, Note_on_c, 0, 60, 92
2, 239616, Note_on_c, 0, 64, 92
2, 239616, Note_on_c, 0, 69, 92
2, 240384, Note_off_c, 0, 64, 64
2, 240384, Note_off_c, 0, 60, 64
2, 240384, Note_on_c, 0, 62, 92
2, 240384, Note_on_c, 0, 65, 92
2, 240768, Note_off_c, 0, 65, 64
2, 240768, Note_off_c, 0, 62, 64
2, 240768, Note_off_c, 0, 69, 64
2, 240768, Note_on_c, 0, 69, 92
2, 240768, Note_on_c, 0, 60, 92
2, 240768, Note_on_c, 0, 66, 92
2, 241152, Note_off_c, 0, 66, 64
2, 241152, Note_off_c, 0, 60, 64
2, 241152, Note_off_c, 0, 69, 64
2, 241152, Note_on_c, 0, 59, 92
2, 241152, Note_on_c, 0, 64, 92
2, 241152, Note_on_c, 0, 68, 92
2, 241536, Note_off_c, 0, 68, 64
2, 241536, Note_off_c, 0, 64, 64
2, 241536, Note_off_c, 0, 59, 64
2, 241536, Note_on_c, 0, 69, 92
2, 241536, Note_on_c, 0, 60, 92
2, 241536, Note_on_c, 0, 64, 92
2, 241920, Note_off_c, 0, 64, 64
2, 241920, Note_off_c, 0, 60, 64
2, 241920, Note_on_c, 0, 59, 92
2, 241920, Note_on_c, 0, 64, 92
2, 242304, Note_off_c, 0, 69, 64
2, 242304, Note_on_c, 0, 68, 92
2, 242688, Note_off_c, 0, 68, 64
2, 242688, Note_off_c, 0, 64, 64
2, 242688, Note_off_c, 0, 59, 64
2, 242688, Note_on_c, 0, 61, 92
2, 242688, Note_on_c, 0, 64, 92
2, 242688, Note_on_c, 0, 69, 92
2, 243072, Note_off_c, 0, 69, 64
2, 243072, Note_off_c, 0, 64, 64
2, 243072, Note_off_c, 0, 61, 64
2, 243072, Note_on_c, 0, 62, 92
2, 243072, Note_on_c, 0, 65, 92
2, 243072, Note_on_c, 0, 69, 92
2, 243456, Note_off_c, 0, 69, 64
2, 243456, Note_off_c, 0, 65, 64
2, 243456, Note_off_c, 0, 62, 64
2, 243456, Note_on_c, 0, 61, 92
2, 243456, Note_on_c, 0, 64, 92
2, 243456, Note_on_c, 0, 69, 92
2, 244224, Note_off_c, 0, 69, 64
2, 244224, Note_off_c, 0, 64, 64
2, 244224, Note_off_c, 0, 61, 64
2, 244224, End_track
3, 0, Start_track
3, 0, Title_t, "Track 2"
3, 4080, Note_on_c, 0, 57, 92
3, 4128, Note_off_c, 0, 57, 64
3, 4128, Note_on_c, 0, 56, 92
3, 4176, Note_off_c, 0, 56, 64
3, 4176, Note_on_c, 0, 54, 92
3, 4224, Note_off_c, 0, 54, 64
3, 4224, Note_on_c, 0, 52, 92
3, 4272, Note_off_c, 0, 52, 64
3, 4272, Note_on_c, 0, 57, 92
3, 4320, Note_off_c, 0, 57, 64
3, 4320, Note_on_c, 0, 55, 92
3, 4368, Note_off_c, 0, 55, 64
3, 4368, Note_on_c, 0, 53, 92
3, 4416, Note_off_c, 0, 53, 64
3, 4416, Note_on_c, 0, 52, 92
3, 4464, Note_off_c, 0, 52, 64
3, 4464, Note_on_c, 0, 50, 92
3, 4512, Note_off_c, 0, 50, 64
3, 4512, Note_on_c, 0, 48, 92
3, 4560, Note_off_c, 0, 48, 64
3, 4560, Note_on_c, 0, 47, 92
3, 4608, Note_off_c, 0, 47, 64
3, 4608, Note_on_c, 0, 45, 92
3, 4800, Note_off_c, 0, 45, 64
3, 4800, Note_on_c, 0, 39, 92
3, 4992, Note_off_c, 0, 39, 64
3, 5424, Note_on_c, 0, 52, 92
3, 5472, Note_off_c, 0, 52, 64
3, 5472, Note_on_c, 0, 54, 92
3, 5520, Note_off_c, 0, 54, 64
3, 5520, Note_on_c, 0, 55, 92
3, 5568, Note_off_c, 0, 55, 64
3, 5568, Note_on_c, 0, 57, 92
3, 5616, Note_off_c, 0, 57, 64
3, 5616, Note_on_c, 0, 59, 92
3, 5664, Note_off_c, 0, 59, 64
3, 8736, Note_on_c, 0, 59, 92
3, 8784, Note_off_c, 0, 59, 64
3, 8784, Note_on_c, 0, 52, 92
3, 8832, Note_off_c, 0, 52, 64
3, 8832, Note_on_c, 0, 55, 92
3, 8880, Note_off_c, 0, 55, 64
3, 8880, Note_on_c, 0, 59, 92
3, 8928, Note_off_c, 0, 59, 64
3, 9120, Note_on_c, 0, 55, 92
3, 9168, Note_off_c, 0, 55, 64
3, 9168, Note_on_c, 0, 52, 92
3, 9216, Note_off_c, 0, 52, 64
3, 9984, Note_on_c, 0, 50, 92
3, 10032, Note_off_c, 0, 50, 64
3, 10032, Note_on_c, 0, 52, 92
3, 10080, Note_off_c, 0, 52, 64
3, 10080, Note_on_c, 0, 53, 92
3, 10128, Note_off_c, 0, 53, 64
3, 10128, Note_on_c, 0, 55, 92
3, 10176, Note_off_c, 0, 55, 64
3, 10176, Note_on_c, 0, 57, 92
3, 10224, Note_off_c, 0, 57, 64
3, 10224, Note_on_c, 0, 59, 92
3, 10272, Note_off_c, 0, 59, 64
3, 10272, Note_on_c, 0, 61, 92
3, 10320, Note_off_c, 0, 61, 64
3, 10320, Note_on_c, 0, 62, 92
3, 10368, Note_off_c, 0, 62, 64
3, 10368, Note_on_c, 0, 57, 92
3, 10416, Note_off_c, 0, 57, 64
3, 10416, Note_on_c, 0, 59, 92
3, 10464, Note_off_c, 0, 59, 64
3, 10464, Note_on_c, 0, 61, 92
3, 10512, Note_off_c, 0, 61, 64
3, 10512, Note_on_c, 0, 62, 92
3, 10560, Note_off_c, 0, 62, 64
3, 12000, Note_on_c, 0, 57, 92
3, 12048, Note_off_c, 0, 57, 64
3, 12048, Note_on_c, 0, 53, 92
3, 12096, Note_off_c, 0, 53, 64
3, 12096, Note_on_c, 0, 62, 92
3, 12144, Note_off_c, 0, 62, 64
3, 12144, Note_on_c, 0, 57, 92
3, 12192, Note_off_c, 0, 57, 64
3, 12192, Note_on_c, 0, 53, 92
3, 12240, Note_off_c, 0, 53, 64
3, 12240, Note_on_c, 0, 50, 92
3, 12288, Note_off_c, 0, 50, 64
3, 13056, Note_on_c, 0, 48, 92
3, 13104, Note_off_c, 0, 48, 64
3, 13104, Note_on_c, 0, 50, 92
3, 13152, Note_off_c, 0, 50, 64
3, 13152, Note_on_c, 0, 52, 92
3, 13200, Note_off_c, 0, 52, 64
3, 13200, Note_on_c, 0, 53, 92
3, 13248, Note_off_c, 0, 53, 64
3, 13248, Note_on_c, 0, 55, 92
3, 13296, Note_off_c, 0, 55, 64
3, 13296, Note_on_c, 0, 57, 92
3, 13344, Note_off_c, 0, 57, 64
3, 13344, Note_on_c, 0, 59, 92
3, 13392, Note_off_c, 0, 59, 64
3, 13392, Note_on_c, 0, 60, 92
3, 13440, Note_off_c, 0, 60, 64
3, 13440, Note_on_c, 0, 55, 92
3, 13488, Note_off_c, 0, 55, 64
3, 13488, Note_on_c, 0, 57, 92
3, 13536, Note_off_c, 0, 57, 64
3, 13536, Note_on_c, 0, 59, 92
3, 13584, Note_off_c, 0, 59, 64
3, 13584, Note_on_c, 0, 60, 92
3, 13632, Note_off_c, 0, 60, 64
3, 16896, Note_on_c, 0, 48, 92
3, 17088, Note_off_c, 0, 48, 64
3, 24384, Note_on_c, 0, 60, 92
3, 24480, Note_off_c, 0, 60, 64
3, 24480, Note_on_c, 0, 57, 92
3, 24576, Note_off_c, 0, 57, 64
3, 24768, Note_on_c, 0, 60, 92
3, 24864, Note_off_c, 0, 60, 64
3, 24864, Note_on_c, 0, 57, 92
3, 24960, Note_off_c, 0, 57, 64
3, 24960, Note_on_c, 0, 59, 92
3, 25056, Note_off_c, 0, 59, 64
3, 25056, Note_on_c, 0, 63, 92
3, 25152, Note_off_c, 0, 63, 64
3, 25536, Note_on_c, 0, 59, 92
3, 25632, Note_off_c, 0, 59, 64
3, 25632, Note_on_c, 0, 55, 92
3, 25728, Note_off_c, 0, 55, 64
3, 25920, Note_on_c, 0, 55, 92
3, 26016, Note_off_c, 0, 55, 64
3, 26016, Note_on_c, 0, 52, 92
3, 26112, Note_off_c, 0, 52, 64
3, 28608, Note_on_c, 0, 61, 92
3, 28704, Note_off_c, 0, 61, 64
3, 28704, Note_on_c, 0, 57, 92
3, 28800, Note_off_c, 0, 57, 64
3, 28992, Note_on_c, 0, 57, 92
3, 29088, Note_off_c, 0, 57, 64
3, 29088, Note_on_c, 0, 54, 92
3, 29184, Note_off_c, 0, 54, 64
3, 31872, Note_on_c, 0, 62, 92
3, 31968, Note_off_c, 0, 62, 64
3, 31968, Note_on_c, 0, 57, 92
3, 32064, Note_off_c, 0, 57, 64
3, 32064, Note_on_c, 0, 54, 92
3, 32160, Note_off_c, 0, 54, 64
3, 32160, Note_on_c, 0, 50, 92
3, 32256, Note_off_c, 0, 50, 64
3, 33600, Note_on_c, 0, 59, 92
3, 33696, Note_off_c, 0, 59, 64
3, 33696, Note_on_c, 0, 55, 92
3, 33792, Note_off_c, 0, 55, 64
3, 33984, Note_on_c, 0, 59, 92
3, 34080, Note_off_c, 0, 59, 64
3, 34080, Note_on_c, 0, 55, 92
3, 34176, Note_off_c, 0, 55, 64
3, 34176, Note_on_c, 0, 57, 92
3, 34272, Note_off_c, 0, 57, 64
3, 34272, Note_on_c, 0, 61, 92
3, 34368, Note_off_c, 0, 61, 64
3, 34752, Note_on_c, 0, 57, 92
3, 34848, Note_off_c, 0, 57, 64
3, 34848, Note_on_c, 0, 53, 92
3, 34944, Note_off_c, 0, 53, 64
3, 34944, Note_on_c, 0, 62, 92
3, 35040, Note_off_c, 0, 62, 64
3, 35040, Note_on_c, 0, 57, 92
3, 35136, Note_off_c, 0, 57, 64
3, 35136, Note_on_c, 0, 53, 92
3, 35232, Note_off_c, 0, 53, 64
3, 35232, Note_on_c, 0, 50, 92
3, 35328, Note_off_c, 0, 50, 64
3, 36096, Note_on_c, 0, 59, 92
3, 36192, Note_off_c, 0, 59, 64
3, 36192, Note_on_c, 0, 57, 92
3, 36288, Note_off_c, 0, 57, 64
3, 36288, Note_on_c, 0, 56, 92
3, 36384, Note_off_c, 0, 56, 64
3, 36384, Note_on_c, 0, 59, 92
3, 36480, Note_off_c, 0, 59, 64
3, 36480, Note_on_c, 0, 60, 92
3, 36576, Note_off_c, 0, 60, 64
3, 36576, Note_on_c, 0, 64, 92
3, 36672, Note_off_c, 0, 64, 64
3, 36672, Note_on_c, 0, 62, 92
3, 36768, Note_off_c, 0, 62, 64
3, 36768, Note_on_c, 0, 60, 92
3, 36864, Note_off_c, 0, 60, 64
3, 36864, Note_on_c, 0, 59, 92
3, 36960, Note_off_c, 0, 59, 64
3, 36960, Note_on_c, 0, 60, 92
3, 37056, Note_off_c, 0, 60, 64
3, 37056, Note_on_c, 0, 59, 92
3, 37152, Note_off_c, 0, 59, 64
3, 37152, Note_on_c, 0, 57, 92
3, 37248, Note_off_c, 0, 57, 64
3, 37248, Note_on_c, 0, 56, 92
3, 37344, Note_off_c, 0, 56, 64
3, 37344, Note_on_c, 0, 64, 92
3, 37440, Note_off_c, 0, 64, 64
3, 37440, Note_on_c, 0, 62, 92
3, 37536, Note_off_c, 0, 62, 64
3, 37536, Note_on_c, 0, 60, 92
3, 37632, Note_off_c, 0, 60, 64
3, 37632, Note_on_c, 0, 59, 92
3, 37728, Note_off_c, 0, 59, 64
3, 37728, Note_on_c, 0, 60, 92
3, 37824, Note_off_c, 0, 60, 64
3, 37824, Note_on_c, 0, 59, 92
3, 37920, Note_off_c, 0, 59, 64
3, 37920, Note_on_c, 0, 57, 92
3, 38016, Note_off_c, 0, 57, 64
3, 38016, Note_on_c, 0, 56, 92
3, 38112, Note_off_c, 0, 56, 64
3, 38112, Note_on_c, 0, 64, 92
3, 38208, Note_off_c, 0, 64, 64
3, 38208, Note_on_c, 0, 62, 92
3, 38304, Note_off_c, 0, 62, 64
3, 38304, Note_on_c, 0, 60, 92
3, 38400, Note_off_c, 0, 60, 64
3, 38400, Note_on_c, 0, 59, 92
3, 38496, Note_off_c, 0, 59, 64
3, 38496, Note_on_c, 0, 60, 92
3, 38592, Note_off_c, 0, 60, 64
3, 38592, Note_on_c, 0, 62, 92
3, 38688, Note_off_c, 0, 62, 64
3, 38688, Note_on_c, 0, 60, 92
3, 38784, Note_off_c, 0, 60, 64
3, 38784, Note_on_c, 0, 59, 92
3, 38880, Note_off_c, 0, 59, 64
3, 38880, Note_on_c, 0, 62, 92
3, 38976, Note_off_c, 0, 62, 64
3, 38976, Note_on_c, 0, 60, 92
3, 39072, Note_off_c, 0, 60, 64
3, 39072, Note_on_c, 0, 59, 92
3, 39168, Note_off_c, 0, 59, 64
3, 39168, Note_on_c, 0, 60, 92
3, 39264, Note_off_c, 0, 60, 64
3, 39264, Note_on_c, 0, 62, 92
3, 39360, Note_off_c, 0, 62, 64
3, 39360, Note_on_c, 0, 64, 92
3, 39456, Note_off_c, 0, 64, 64
3, 39456, Note_on_c, 0, 62, 92
3, 39552, Note_off_c, 0, 62, 64
3, 39552, Note_on_c, 0, 60, 92
3, 39648, Note_off_c, 0, 60, 64
3, 39648, Note_on_c, 0, 64, 92
3, 39744, Note_off_c, 0, 64, 64
3, 39744, Note_on_c, 0, 62, 92
3, 39840, Note_off_c, 0, 62, 64
3, 39840, Note_on_c, 0, 60, 92
3, 39936, Note_off_c, 0, 60, 64
3, 39936, Note_on_c, 0, 59, 92
3, 40032, Note_off_c, 0, 59, 64
3, 40032, Note_on_c, 0, 56, 92
3, 40128, Note_off_c, 0, 56, 64
3, 40128, Note_on_c, 0, 57, 92
3, 40224, Note_off_c, 0, 57, 64
3, 40224, Note_on_c, 0, 59, 92
3, 40320, Note_off_c, 0, 59, 64
3, 40320, Note_on_c, 0, 60, 92
3, 40416, Note_off_c, 0, 60, 64
3, 40416, Note_on_c, 0, 59, 92
3, 40512, Note_off_c, 0, 59, 64
3, 40512, Note_on_c, 0, 60, 92
3, 40608, Note_off_c, 0, 60, 64
3, 40608, Note_on_c, 0, 62, 92
3, 40704, Note_off_c, 0, 62, 64
3, 40704, Note_on_c, 0, 60, 92
3, 40896, Note_off_c, 0, 60, 64
3, 40896, Note_on_c, 0, 62, 92
3, 40992, Note_off_c, 0, 62, 64
3, 40992, Note_on_c, 0, 64, 92
3, 41088, Note_off_c, 0, 64, 64
3, 41088, Note_on_c, 0, 62, 92
3, 41376, Note_off_c, 0, 62, 64
3, 41376, Note_on_c, 0, 60, 92
3, 41472, Note_off_c, 0, 60, 64
3, 41472, Note_on_c, 0, 59, 92
3, 41664, Note_off_c, 0, 59, 64
3, 41664, Note_on_c, 0, 60, 92
3, 41856, Note_off_c, 0, 60, 64
3, 41856, Note_on_c, 0, 56, 92
3, 42048, Note_off_c, 0, 56, 64
3, 42048, Note_on_c, 0, 57, 92
3, 42240, Note_off_c, 0, 57, 64
3, 42240, Note_on_c, 0, 59, 92
3, 42432, Note_off_c, 0, 59, 64
3, 42432, Note_on_c, 0, 60, 92
3, 42624, Note_off_c, 0, 60, 64
3, 42624, Note_on_c, 0, 56, 92
3, 42816, Note_off_c, 0, 56, 64
3, 42816, Note_on_c, 0, 57, 92
3, 43008, Note_off_c, 0, 57, 64
3, 43008, Note_on_c, 0, 59, 92
3, 43200, Note_off_c, 0, 59, 64
3, 43200, Note_on_c, 0, 60, 92
3, 43392, Note_off_c, 0, 60, 64
3, 43392, Note_on_c, 0, 56, 92
3, 43584, Note_off_c, 0, 56, 64
3, 43584, Note_on_c, 0, 57, 92
3, 43776, Note_off_c, 0, 57, 64
3, 43776, Note_on_c, 0, 59, 92
3, 43968, Note_off_c, 0, 59, 64
3, 43968, Note_on_c, 0, 60, 92
3, 44160, Note_off_c, 0, 60, 64
3, 44160, Note_on_c, 0, 56, 92
3, 44352, Note_off_c, 0, 56, 64
3, 44352, Note_on_c, 0, 57, 92
3, 44544, Note_off_c, 0, 57, 64
3, 44544, Note_on_c, 0, 59, 92
3, 44736, Note_off_c, 0, 59, 64
3, 44736, Note_on_c, 0, 60, 92
3, 44928, Note_off_c, 0, 60, 64
3, 44928, Note_on_c, 0, 59, 92
3, 45120, Note_off_c, 0, 59, 64
3, 59904, Note_on_c, 0, 59, 92
3, 60096, Note_off_c, 0, 59, 64
3, 60096, Note_on_c, 0, 60, 92
3, 60288, Note_off_c, 0, 60, 64
3, 60288, Note_on_c, 0, 56, 92
3, 60480, Note_off_c, 0, 56, 64
3, 60480, Note_on_c, 0, 57, 92
3, 60672, Note_off_c, 0, 57, 64
3, 60672, Note_on_c, 0, 59, 92
3, 60864, Note_off_c, 0, 59, 64
3, 60864, Note_on_c, 0, 60, 92
3, 61056, Note_off_c, 0, 60, 64
3, 61056, Note_on_c, 0, 56, 92
3, 61248, Note_off_c, 0, 56, 64
3, 61248, Note_on_c, 0, 57, 92
3, 61440, Note_off_c, 0, 57, 64
3, 61440, Note_on_c, 0, 59, 92
3, 61632, Note_off_c, 0, 59, 64
3, 61632, Note_on_c, 0, 60, 92
3, 61824, Note_off_c, 0, 60, 64
3, 61824, Note_on_c, 0, 56, 92
3, 62016, Note_off_c, 0, 56, 64
3, 62016, Note_on_c, 0, 57, 92
3, 62208, Note_off_c, 0, 57, 64
3, 62208, Note_on_c, 0, 59, 92
3, 62400, Note_off_c, 0, 59, 64
3, 62400, Note_on_c, 0, 60, 92
3, 62592, Note_off_c, 0, 60, 64
3, 62592, Note_on_c, 0, 56, 92
3, 62784, Note_off_c, 0, 56, 64
3, 62784, Note_on_c, 0, 57, 92
3, 62976, Note_off_c, 0, 57, 64
3, 62976, Note_on_c, 0, 59, 92
3, 63072, Note_off_c, 0, 59, 64
3, 63072, Note_on_c, 0, 57, 92
3, 63168, Note_off_c, 0, 57, 64
3, 63168, Note_on_c, 0, 56, 92
3, 63264, Note_off_c, 0, 56, 64
3, 63264, Note_on_c, 0, 59, 92
3, 63360, Note_off_c, 0, 59, 64
3, 63360, Note_on_c, 0, 60, 92
3, 63456, Note_off_c, 0, 60, 64
3, 63456, Note_on_c, 0, 59, 92
3, 63552, Note_off_c, 0, 59, 64
3, 63552, Note_on_c, 0, 57, 92
3, 63648, Note_off_c, 0, 57, 64
3, 63648, Note_on_c, 0, 60, 92
3, 63744, Note_off_c, 0, 60, 64
3, 63744, Note_on_c, 0, 59, 92
3, 63840, Note_off_c, 0, 59, 64
3, 63840, Note_on_c, 0, 57, 92
3, 63936, Note_off_c, 0, 57, 64
3, 63936, Note_on_c, 0, 56, 92
3, 64032, Note_off_c, 0, 56, 64
3, 64032, Note_on_c, 0, 59, 92
3, 64128, Note_off_c, 0, 59, 64
3, 64128, Note_on_c, 0, 60, 92
3, 64224, Note_off_c, 0, 60, 64
3, 64224, Note_on_c, 0, 64, 92
3, 64320, Note_off_c, 0, 64, 64
3, 64320, Note_on_c, 0, 62, 92
3, 64416, Note_off_c, 0, 62, 64
3, 64416, Note_on_c, 0, 60, 92
3, 64512, Note_off_c, 0, 60, 64
3, 64512, Note_on_c, 0, 59, 92
3, 64608, Note_off_c, 0, 59, 64
3, 64608, Note_on_c, 0, 60, 92
3, 64704, Note_off_c, 0, 60, 64
3, 64704, Note_on_c, 0, 62, 92
3, 64800, Note_off_c, 0, 62, 64
3, 64800, Note_on_c, 0, 60, 92
3, 64896, Note_off_c, 0, 60, 64
3, 64896, Note_on_c, 0, 59, 92
3, 64992, Note_off_c, 0, 59, 64
3, 64992, Note_on_c, 0, 62, 92
3, 65088, Note_off_c, 0, 62, 64
3, 65088, Note_on_c, 0, 60, 92
3, 65184, Note_off_c, 0, 60, 64
3, 65184, Note_on_c, 0, 59, 92
3, 65280, Note_off_c, 0, 59, 64
3, 65280, Note_on_c, 0, 60, 92
3, 65376, Note_off_c, 0, 60, 64
3, 65376, Note_on_c, 0, 62, 92
3, 65472, Note_off_c, 0, 62, 64
3, 65472, Note_on_c, 0, 64, 92
3, 65568, Note_off_c, 0, 64, 64
3, 65568, Note_on_c, 0, 62, 92
3, 65664, Note_off_c, 0, 62, 64
3, 65664, Note_on_c, 0, 60, 92
3, 65760, Note_off_c, 0, 60, 64
3, 65760, Note_on_c, 0, 64, 92
3, 65856, Note_off_c, 0, 64, 64
3, 65856, Note_on_c, 0, 62, 92
3, 65952, Note_off_c, 0, 62, 64
3, 65952, Note_on_c, 0, 60, 92
3, 66048, Note_off_c, 0, 60, 64
3, 66048, Note_on_c, 0, 59, 92
3, 66144, Note_off_c, 0, 59, 64
3, 66144, Note_on_c, 0, 60, 92
3, 66240, Note_off_c, 0, 60, 64
3, 66240, Note_on_c, 0, 62, 92
3, 66336, Note_off_c, 0, 62, 64
3, 66336, Note_on_c, 0, 60, 92
3, 66432, Note_off_c, 0, 60, 64
3, 66432, Note_on_c, 0, 59, 92
3, 66528, Note_off_c, 0, 59, 64
3, 66528, Note_on_c, 0, 62, 92
3, 66624, Note_off_c, 0, 62, 64
3, 66624, Note_on_c, 0, 60, 92
3, 66720, Note_off_c, 0, 60, 64
3, 66720, Note_on_c, 0, 59, 92
3, 66816, Note_off_c, 0, 59, 64
3, 66816, Note_on_c, 0, 60, 92
3, 66912, Note_off_c, 0, 60, 64
3, 66912, Note_on_c, 0, 59, 92
3, 67008, Note_off_c, 0, 59, 64
3, 67008, Note_on_c, 0, 57, 92
3, 67104, Note_off_c, 0, 57, 64
3, 67104, Note_on_c, 0, 56, 92
3, 67200, Note_off_c, 0, 56, 64
3, 67200, Note_on_c, 0, 57, 92
3, 67296, Note_off_c, 0, 57, 64
3, 67296, Note_on_c, 0, 62, 92
3, 67392, Note_off_c, 0, 62, 64
3, 67392, Note_on_c, 0, 60, 92
3, 67488, Note_off_c, 0, 60, 64
3, 67488, Note_on_c, 0, 59, 92
3, 67584, Note_off_c, 0, 59, 64
3, 67584, Note_on_c, 0, 60, 92
3, 67680, Note_off_c, 0, 60, 64
3, 67680, Note_on_c, 0, 59, 92
3, 67776, Note_off_c, 0, 59, 64
3, 67776, Note_on_c, 0, 57, 92
3, 67872, Note_off_c, 0, 57, 64
3, 67872, Note_on_c, 0, 56, 92
3, 67968, Note_off_c, 0, 56, 64
3, 67968, Note_on_c, 0, 57, 92
3, 68064, Note_off_c, 0, 57, 64
3, 68064, Note_on_c, 0, 62, 92
3, 68160, Note_off_c, 0, 62, 64
3, 68160, Note_on_c, 0, 60, 92
3, 68256, Note_off_c, 0, 60, 64
3, 68256, Note_on_c, 0, 59, 92
3, 68352, Note_off_c, 0, 59, 64
3, 68352, Note_on_c, 0, 60, 92
3, 68448, Note_off_c, 0, 60, 64
3, 68448, Note_on_c, 0, 59, 92
3, 68544, Note_off_c, 0, 59, 64
3, 68544, Note_on_c, 0, 60, 92
3, 68640, Note_off_c, 0, 60, 64
3, 68640, Note_on_c, 0, 57, 92
3, 68736, Note_off_c, 0, 57, 64
3, 68736, Note_on_c, 0, 59, 92
3, 68832, Note_off_c, 0, 59, 64
3, 68832, Note_on_c, 0, 57, 92
3, 68928, Note_off_c, 0, 57, 64
3, 68928, Note_on_c, 0, 59, 92
3, 69024, Note_off_c, 0, 59, 64
3, 69024, Note_on_c, 0, 56, 92
3, 69120, Note_off_c, 0, 56, 64
3, 69120, Note_on_c, 0, 64, 92
3, 69216, Note_off_c, 0, 64, 64
3, 69216, Note_on_c, 0, 62, 92
3, 69312, Note_off_c, 0, 62, 64
3, 69312, Note_on_c, 0, 64, 92
3, 69408, Note_off_c, 0, 64, 64
3, 69408, Note_on_c, 0, 60, 92
3, 69504, Note_off_c, 0, 60, 64
3, 69504, Note_on_c, 0, 62, 92
3, 69600, Note_off_c, 0, 62, 64
3, 69600, Note_on_c, 0, 60, 92
3, 69696, Note_off_c, 0, 60, 64
3, 69696, Note_on_c, 0, 62, 92
3, 69792, Note_off_c, 0, 62, 64
3, 69792, Note_on_c, 0, 59, 92
3, 69888, Note_off_c, 0, 59, 64
3, 69888, Note_on_c, 0, 60, 92
3, 69984, Note_off_c, 0, 60, 64
3, 69984, Note_on_c, 0, 59, 92
3, 70080, Note_off_c, 0, 59, 64
3, 70080, Note_on_c, 0, 60, 92
3, 70176, Note_off_c, 0, 60, 64
3, 70176, Note_on_c, 0, 57, 92
3, 70272, Note_off_c, 0, 57, 64
3, 70272, Note_on_c, 0, 59, 92
3, 70368, Note_off_c, 0, 59, 64
3, 70368, Note_on_c, 0, 57, 92
3, 70464, Note_off_c, 0, 57, 64
3, 70464, Note_on_c, 0, 59, 92
3, 70560, Note_off_c, 0, 59, 64
3, 70560, Note_on_c, 0, 56, 92
3, 70656, Note_off_c, 0, 56, 64
3, 70656, Note_on_c, 0, 57, 92
3, 70752, Note_off_c, 0, 57, 64
3, 70752, Note_on_c, 0, 59, 92
3, 70848, Note_off_c, 0, 59, 64
3, 70848, Note_on_c, 0, 60, 92
3, 70944, Note_off_c, 0, 60, 64
3, 70944, Note_on_c, 0, 62, 92
3, 71040, Note_off_c, 0, 62, 64
3, 71040, Note_on_c, 0, 60, 92
3, 71136, Note_off_c, 0, 60, 64
3, 71136, Note_on_c, 0, 64, 92
3, 71232, Note_off_c, 0, 64, 64
3, 71232, Note_on_c, 0, 62, 92
3, 71328, Note_off_c, 0, 62, 64
3, 71328, Note_on_c, 0, 60, 92
3, 71424, Note_off_c, 0, 60, 64
3, 71424, Note_on_c, 0, 59, 92
3, 71616, Note_off_c, 0, 59, 64
3, 71664, Note_on_c, 0, 57, 92
3, 71712, Note_off_c, 0, 57, 64
3, 71712, Note_on_c, 0, 56, 92
3, 71760, Note_off_c, 0, 56, 64
3, 71760, Note_on_c, 0, 54, 92
3, 71808, Note_off_c, 0, 54, 64
3, 71808, Note_on_c, 0, 52, 92
3, 71856, Note_off_c, 0, 52, 64
3, 71856, Note_on_c, 0, 52, 92
3, 71904, Note_off_c, 0, 52, 64
3, 71904, Note_on_c, 0, 50, 92
3, 71952, Note_off_c, 0, 50, 64
3, 71952, Note_on_c, 0, 48, 92
3, 72000, Note_off_c, 0, 48, 64
3, 72000, Note_on_c, 0, 47, 92
3, 72048, Note_off_c, 0, 47, 64
3, 72048, Note_on_c, 0, 45, 92
3, 72096, Note_off_c, 0, 45, 64
3, 72096, Note_on_c, 0, 44, 92
3, 72144, Note_off_c, 0, 44, 64
3, 72144, Note_on_c, 0, 42, 92
3, 72192, Note_off_c, 0, 42, 64
3, 72192, Note_on_c, 0, 40, 92
3, 72384, Note_off_c, 0, 40, 64
3, 72576, Note_on_c, 0, 39, 92
3, 72768, Note_off_c, 0, 39, 64
3, 72768, Note_on_c, 0, 51, 92
3, 72960, Note_off_c, 0, 51, 64
3, 72960, Note_on_c, 0, 52, 92
3, 73728, Note_off_c, 0, 52, 64
3, 73728, Note_on_c, 0, 57, 92
3, 74112, Note_off_c, 0, 57, 64
3, 89088, Note_on_c, 0, 57, 92
3, 89280, Note_off_c, 0, 57, 64
3, 89280, Note_on_c, 0, 52, 92
3, 89472, Note_off_c, 0, 52, 64
3, 89472, Note_on_c, 0, 59, 92
3, 89664, Note_off_c, 0, 59, 64
3, 89664, Note_on_c, 0, 52, 92
3, 89856, Note_off_c, 0, 52, 64
3, 89856, Note_on_c, 0, 60, 92
3, 90048, Note_off_c, 0, 60, 64
3, 90048, Note_on_c, 0, 59, 92
3, 90144, Note_off_c, 0, 59, 64
3, 90144, Note_on_c, 0, 60, 92
3, 90240, Note_off_c, 0, 60, 64
3, 90240, Note_on_c, 0, 57, 92
3, 90432, Note_off_c, 0, 57, 64
3, 90432, Note_on_c, 0, 64, 92
3, 90528, Note_off_c, 0, 64, 64
3, 90528, Note_on_c, 0, 62, 92
3, 90624, Note_off_c, 0, 62, 64
3, 90624, Note_on_c, 0, 60, 92
3, 90720, Note_off_c, 0, 60, 64
3, 90720, Note_on_c, 0, 64, 92
3, 90816, Note_off_c, 0, 64, 64
3, 90816, Note_on_c, 0, 57, 92
3, 90912, Note_off_c, 0, 57, 64
3, 90912, Note_on_c, 0, 64, 92
3, 91008, Note_off_c, 0, 64, 64
3, 91008, Note_on_c, 0, 60, 92
3, 91104, Note_off_c, 0, 60, 64
3, 91104, Note_on_c, 0, 64, 92
3, 91200, Note_off_c, 0, 64, 64
3, 91200, Note_on_c, 0, 57, 92
3, 91296, Note_off_c, 0, 57, 64
3, 91296, Note_on_c, 0, 64, 92
3, 91392, Note_off_c, 0, 64, 64
3, 91392, Note_on_c, 0, 65, 92
3, 91584, Note_off_c, 0, 65, 64
3, 91584, Note_on_c, 0, 57, 92
3, 91776, Note_off_c, 0, 57, 64
3, 91776, Note_on_c, 0, 59, 92
3, 91968, Note_off_c, 0, 59, 64
3, 91968, Note_on_c, 0, 62, 92
3, 92064, Note_off_c, 0, 62, 64
3, 92064, Note_on_c, 0, 60, 92
3, 92160, Note_off_c, 0, 60, 64
3, 92160, Note_on_c, 0, 59, 92
3, 92256, Note_off_c, 0, 59, 64
3, 92256, Note_on_c, 0, 62, 92
3, 92352, Note_off_c, 0, 62, 64
3, 92352, Note_on_c, 0, 55, 92
3, 92448, Note_off_c, 0, 55, 64
3, 92448, Note_on_c, 0, 62, 92
3, 92544, Note_off_c, 0, 62, 64
3, 92544, Note_on_c, 0, 59, 92
3, 92640, Note_off_c, 0, 59, 64
3, 92640, Note_on_c, 0, 62, 92
3, 92736, Note_off_c, 0, 62, 64
3, 92736, Note_on_c, 0, 55, 92
3, 92832, Note_off_c, 0, 55, 64
3, 92832, Note_on_c, 0, 62, 92
3, 92928, Note_off_c, 0, 62, 64
3, 92928, Note_on_c, 0, 64, 92
3, 93120, Note_off_c, 0, 64, 64
3, 93120, Note_on_c, 0, 55, 92
3, 93312, Note_off_c, 0, 55, 64
3, 93312, Note_on_c, 0, 57, 92
3, 93504, Note_off_c, 0, 57, 64
3, 93504, Note_on_c, 0, 60, 92
3, 93600, Note_off_c, 0, 60, 64
3, 93600, Note_on_c, 0, 59, 92
3, 93696, Note_off_c, 0, 59, 64
3, 93696, Note_on_c, 0, 57, 92
3, 93888, Note_off_c, 0, 57, 64
3, 93888, Note_on_c, 0, 64, 92
3, 94272, Note_off_c, 0, 64, 64
3, 94272, Note_on_c, 0, 63, 92
3, 94464, Note_off_c, 0, 63, 64
3, 94464, Note_on_c, 0, 64, 92
3, 95040, Note_off_c, 0, 64, 64
3, 95040, Note_on_c, 0, 66, 92
3, 95232, Note_off_c, 0, 66, 64
3, 95232, Note_on_c, 0, 67, 92
3, 95424, Note_off_c, 0, 67, 64
3, 95424, Note_on_c, 0, 66, 92
3, 95616, Note_off_c, 0, 66, 64
3, 95616, Note_on_c, 0, 67, 92
3, 95808, Note_off_c, 0, 67, 64
3, 95808, Note_on_c, 0, 69, 92
3, 96000, Note_off_c, 0, 69, 64
3, 96000, Note_on_c, 0, 71, 92
3, 96192, Note_off_c, 0, 71, 64
3, 96192, Note_on_c, 0, 69, 92
3, 96288, Note_off_c, 0, 69, 64
3, 96288, Note_on_c, 0, 67, 92
3, 96384, Note_off_c, 0, 67, 64
3, 96384, Note_on_c, 0, 66, 92
3, 96576, Note_off_c, 0, 66, 64
3, 96576, Note_on_c, 0, 68, 92
3, 96768, Note_off_c, 0, 68, 64
3, 96768, Note_on_c, 0, 69, 92
3, 96960, Note_off_c, 0, 69, 64
3, 96960, Note_on_c, 0, 64, 92
3, 97152, Note_off_c, 0, 64, 64
3, 97152, Note_on_c, 0, 69, 92
3, 97344, Note_off_c, 0, 69, 64
3, 97344, Note_on_c, 0, 67, 92
3, 97536, Note_off_c, 0, 67, 64
3, 97536, Note_on_c, 0, 66, 92
3, 97728, Note_off_c, 0, 66, 64
3, 97728, Note_on_c, 0, 62, 92
3, 97920, Note_off_c, 0, 62, 64
3, 97920, Note_on_c, 0, 67, 92
3, 98112, Note_off_c, 0, 67, 64
3, 98112, Note_on_c, 0, 66, 92
3, 98304, Note_off_c, 0, 66, 64
3, 98304, Note_on_c, 0, 64, 92
3, 98496, Note_off_c, 0, 64, 64
3, 98496, Note_on_c, 0, 61, 92
3, 98688, Note_off_c, 0, 61, 64
3, 98688, Note_on_c, 0, 66, 92
3, 98880, Note_off_c, 0, 66, 64
3, 98880, Note_on_c, 0, 64, 92
3, 99072, Note_off_c, 0, 64, 64
3, 99072, Note_on_c, 0, 63, 92
3, 99264, Note_off_c, 0, 63, 64
3, 99264, Note_on_c, 0, 59, 92
3, 99456, Note_off_c, 0, 59, 64
3, 99456, Note_on_c, 0, 64, 92
3, 100224, Note_off_c, 0, 64, 64
3, 100224, Note_on_c, 0, 63, 92
3, 100608, Note_off_c, 0, 63, 64
3, 100608, Note_on_c, 0, 64, 92
3, 100992, Note_off_c, 0, 64, 64
3, 100992, Note_on_c, 0, 66, 92
3, 101376, Note_off_c, 0, 66, 64
3, 101376, Note_on_c, 0, 52, 92
3, 101568, Note_off_c, 0, 52, 64
3, 101568, Note_on_c, 0, 47, 92
3, 101760, Note_off_c, 0, 47, 64
3, 101760, Note_on_c, 0, 54, 92
3, 101952, Note_off_c, 0, 54, 64
3, 101952, Note_on_c, 0, 47, 92
3, 102144, Note_off_c, 0, 47, 64
3, 102144, Note_on_c, 0, 55, 92
3, 102336, Note_off_c, 0, 55, 64
3, 102336, Note_on_c, 0, 54, 92
3, 102432, Note_off_c, 0, 54, 64
3, 102432, Note_on_c, 0, 55, 92
3, 102528, Note_off_c, 0, 55, 64
3, 102528, Note_on_c, 0, 52, 92
3, 102720, Note_off_c, 0, 52, 64
3, 102720, Note_on_c, 0, 59, 92
3, 102816, Note_off_c, 0, 59, 64
3, 102816, Note_on_c, 0, 57, 92
3, 102912, Note_off_c, 0, 57, 64
3, 102912, Note_on_c, 0, 55, 92
3, 103008, Note_off_c, 0, 55, 64
3, 103008, Note_on_c, 0, 59, 92
3, 103104, Note_off_c, 0, 59, 64
3, 103104, Note_on_c, 0, 52, 92
3, 103200, Note_off_c, 0, 52, 64
3, 103200, Note_on_c, 0, 59, 92
3, 103296, Note_off_c, 0, 59, 64
3, 103296, Note_on_c, 0, 55, 92
3, 103392, Note_off_c, 0, 55, 64
3, 103392, Note_on_c, 0, 59, 92
3, 103488, Note_off_c, 0, 59, 64
3, 103488, Note_on_c, 0, 52, 92
3, 103584, Note_off_c, 0, 52, 64
3, 103584, Note_on_c, 0, 59, 92
3, 103680, Note_off_c, 0, 59, 64
3, 103680, Note_on_c, 0, 60, 92
3, 103872, Note_off_c, 0, 60, 64
3, 103872, Note_on_c, 0, 52, 92
3, 104064, Note_off_c, 0, 52, 64
3, 104064, Note_on_c, 0, 54, 92
3, 104256, Note_off_c, 0, 54, 64
3, 104256, Note_on_c, 0, 57, 92
3, 104352, Note_off_c, 0, 57, 64
3, 104352, Note_on_c, 0, 55, 92
3, 104448, Note_off_c, 0, 55, 64
3, 104448, Note_on_c, 0, 54, 92
3, 104544, Note_off_c, 0, 54, 64
3, 104544, Note_on_c, 0, 57, 92
3, 104640, Note_off_c, 0, 57, 64
3, 104640, Note_on_c, 0, 50, 92
3, 104736, Note_off_c, 0, 50, 64
3, 104736, Note_on_c, 0, 57, 92
3, 104832, Note_off_c, 0, 57, 64
3, 104832, Note_on_c, 0, 54, 92
3, 104928, Note_off_c, 0, 54, 64
3, 104928, Note_on_c, 0, 57, 92
3, 105024, Note_off_c, 0, 57, 64
3, 105024, Note_on_c, 0, 50, 92
3, 105120, Note_off_c, 0, 50, 64
3, 105120, Note_on_c, 0, 57, 92
3, 105216, Note_off_c, 0, 57, 64
3, 105216, Note_on_c, 0, 59, 92
3, 105408, Note_off_c, 0, 59, 64
3, 105408, Note_on_c, 0, 50, 92
3, 105600, Note_off_c, 0, 50, 64
3, 105600, Note_on_c, 0, 52, 92
3, 105792, Note_off_c, 0, 52, 64
3, 105792, Note_on_c, 0, 55, 92
3, 105888, Note_off_c, 0, 55, 64
3, 105888, Note_on_c, 0, 54, 92
3, 105984, Note_off_c, 0, 54, 64
3, 105984, Note_on_c, 0, 52, 92
3, 106176, Note_off_c, 0, 52, 64
3, 106176, Note_on_c, 0, 57, 92
3, 106560, Note_off_c, 0, 57, 64
3, 106560, Note_on_c, 0, 56, 92
3, 106752, Note_off_c, 0, 56, 64
3, 106752, Note_on_c, 0, 57, 92
3, 106944, Note_off_c, 0, 57, 64
3, 106944, Note_on_c, 0, 45, 92
3, 107040, Note_off_c, 0, 45, 64
3, 107040, Note_on_c, 0, 47, 92
3, 107136, Note_off_c, 0, 47, 64
3, 107136, Note_on_c, 0, 48, 92
3, 107232, Note_off_c, 0, 48, 64
3, 107232, Note_on_c, 0, 47, 92
3, 107328, Note_off_c, 0, 47, 64
3, 107328, Note_on_c, 0, 48, 92
3, 107424, Note_off_c, 0, 48, 64
3, 107424, Note_on_c, 0, 50, 92
3, 107520, Note_off_c, 0, 50, 64
3, 107520, Note_on_c, 0, 52, 92
3, 107712, Note_off_c, 0, 52, 64
3, 107712, Note_on_c, 0, 50, 92
3, 107808, Note_off_c, 0, 50, 64
3, 107808, Note_on_c, 0, 48, 92
3, 107904, Note_off_c, 0, 48, 64
3, 107904, Note_on_c, 0, 47, 92
3, 108096, Note_off_c, 0, 47, 64
3, 108096, Note_on_c, 0, 48, 92
3, 108288, Note_off_c, 0, 48, 64
3, 108288, Note_on_c, 0, 50, 92
3, 108480, Note_off_c, 0, 50, 64
3, 108480, Note_on_c, 0, 48, 92
3, 108576, Note_off_c, 0, 48, 64
3, 108576, Note_on_c, 0, 47, 92
3, 108672, Note_off_c, 0, 47, 64
3, 108672, Note_on_c, 0, 45, 92
3, 108864, Note_off_c, 0, 45, 64
3, 108864, Note_on_c, 0, 47, 92
3, 109056, Note_off_c, 0, 47, 64
3, 109056, Note_on_c, 0, 48, 92
3, 109248, Note_off_c, 0, 48, 64
3, 109248, Note_on_c, 0, 43, 92
3, 109440, Note_off_c, 0, 43, 64
3, 109440, Note_on_c, 0, 48, 92
3, 110208, Note_off_c, 0, 48, 64
3, 110208, Note_on_c, 0, 47, 92
3, 110592, Note_off_c, 0, 47, 64
3, 110592, Note_on_c, 0, 45, 92
3, 110976, Note_off_c, 0, 45, 64
3, 110976, Note_on_c, 0, 50, 92
3, 111360, Note_off_c, 0, 50, 64
3, 111360, Note_on_c, 0, 55, 92
3, 111744, Note_off_c, 0, 55, 64
3, 111744, Note_on_c, 0, 60, 92
3, 112128, Note_off_c, 0, 60, 64
3, 112128, Note_on_c, 0, 54, 92
3, 112512, Note_off_c, 0, 54, 64
3, 112512, Note_on_c, 0, 59, 92
3, 112896, Note_off_c, 0, 59, 64
3, 112896, Note_on_c, 0, 55, 92
3, 113280, Note_off_c, 0, 55, 64
3, 113280, Note_on_c, 0, 54, 92
3, 113664, Note_off_c, 0, 54, 64
3, 113664, Note_on_c, 0, 52, 92
3, 114048, Note_off_c, 0, 52, 64
3, 114048, Note_on_c, 0, 59, 92
3, 114432, Note_off_c, 0, 59, 64
3, 114432, Note_on_c, 0, 52, 92
3, 114816, Note_off_c, 0, 52, 64
3, 115008, Note_on_c, 0, 59, 92
3, 115200, Note_off_c, 0, 59, 64
3, 115200, Note_on_c, 0, 52, 92
3, 115584, Note_off_c, 0, 52, 64
3, 115776, Note_on_c, 0, 55, 92
3, 115968, Note_off_c, 0, 55, 64
3, 115968, Note_on_c, 0, 57, 92
3, 116352, Note_off_c, 0, 57, 64
3, 116352, Note_on_c, 0, 50, 92
3, 116736, Note_off_c, 0, 50, 64
3, 116736, Note_on_c, 0, 50, 92
3, 117120, Note_off_c, 0, 50, 64
3, 117312, Note_on_c, 0, 54, 92
3, 117504, Note_off_c, 0, 54, 64
3, 117504, Note_on_c, 0, 55, 92
3, 117888, Note_off_c, 0, 55, 64
3, 117888, Note_on_c, 0, 48, 92
3, 118272, Note_off_c, 0, 48, 64
3, 118272, Note_on_c, 0, 57, 92
3, 118656, Note_off_c, 0, 57, 64
3, 118656, Note_on_c, 0, 59, 92
3, 119040, Note_off_c, 0, 59, 64
3, 119040, Note_on_c, 0, 57, 92
3, 119424, Note_off_c, 0, 57, 64
3, 132096, Note_on_c, 0, 57, 92
3, 132480, Note_off_c, 0, 57, 64
3, 137472, Note_on_c, 0, 52, 92
3, 137664, Note_off_c, 0, 52, 64
3, 137664, Note_on_c, 0, 47, 92
3, 137856, Note_off_c, 0, 47, 64
3, 137856, Note_on_c, 0, 54, 92
3, 138048, Note_off_c, 0, 54, 64
3, 138048, Note_on_c, 0, 47, 92
3, 138240, Note_off_c, 0, 47, 64
3, 138240, Note_on_c, 0, 55, 92
3, 138432, Note_off_c, 0, 55, 64
3, 138432, Note_on_c, 0, 54, 92
3, 138528, Note_off_c, 0, 54, 64
3, 138528, Note_on_c, 0, 55, 92
3, 138624, Note_off_c, 0, 55, 64
3, 138624, Note_on_c, 0, 48, 92
3, 138816, Note_off_c, 0, 48, 64
3, 138816, Note_on_c, 0, 59, 92
3, 138912, Note_off_c, 0, 59, 64
3, 138912, Note_on_c, 0, 57, 92
3, 139008, Note_off_c, 0, 57, 64
3, 139008, Note_on_c, 0, 55, 92
3, 139104, Note_off_c, 0, 55, 64
3, 139104, Note_on_c, 0, 57, 92
3, 139200, Note_off_c, 0, 57, 64
3, 139200, Note_on_c, 0, 52, 92
3, 139296, Note_off_c, 0, 52, 64
3, 139296, Note_on_c, 0, 59, 92
3, 139392, Note_off_c, 0, 59, 64
3, 139392, Note_on_c, 0, 55, 92
3, 139488, Note_off_c, 0, 55, 64
3, 139488, Note_on_c, 0, 59, 92
3, 139584, Note_off_c, 0, 59, 64
3, 139584, Note_on_c, 0, 52, 92
3, 139680, Note_off_c, 0, 52, 64
3, 139680, Note_on_c, 0, 59, 92
3, 139776, Note_off_c, 0, 59, 64
3, 139776, Note_on_c, 0, 59, 92
3, 139968, Note_off_c, 0, 59, 64
3, 139968, Note_on_c, 0, 52, 92
3, 140160, Note_off_c, 0, 52, 64
3, 140160, Note_on_c, 0, 54, 92
3, 140352, Note_off_c, 0, 54, 64
3, 140352, Note_on_c, 0, 57, 92
3, 140448, Note_off_c, 0, 57, 64
3, 140448, Note_on_c, 0, 55, 92
3, 140544, Note_off_c, 0, 55, 64
3, 140544, Note_on_c, 0, 54, 92
3, 140640, Note_off_c, 0, 54, 64
3, 140640, Note_on_c, 0, 57, 92
3, 140736, Note_off_c, 0, 57, 64
3, 140736, Note_on_c, 0, 50, 92
3, 140832, Note_off_c, 0, 50, 64
3, 140832, Note_on_c, 0, 57, 92
3, 140928, Note_off_c, 0, 57, 64
3, 140928, Note_on_c, 0, 54, 92
3, 141024, Note_off_c, 0, 54, 64
3, 141024, Note_on_c, 0, 57, 92
3, 141120, Note_off_c, 0, 57, 64
3, 141120, Note_on_c, 0, 50, 92
3, 141216, Note_off_c, 0, 50, 64
3, 141216, Note_on_c, 0, 57, 92
3, 141312, Note_off_c, 0, 57, 64
3, 141312, Note_on_c, 0, 59, 92
3, 141504, Note_off_c, 0, 59, 64
3, 141504, Note_on_c, 0, 50, 92
3, 141696, Note_off_c, 0, 50, 64
3, 141696, Note_on_c, 0, 52, 92
3, 141888, Note_off_c, 0, 52, 64
3, 141888, Note_on_c, 0, 55, 92
3, 141984, Note_off_c, 0, 55, 64
3, 141984, Note_on_c, 0, 54, 92
3, 142080, Note_off_c, 0, 54, 64
3, 142080, Note_on_c, 0, 52, 92
3, 142272, Note_off_c, 0, 52, 64
3, 142272, Note_on_c, 0, 57, 92
3, 142656, Note_off_c, 0, 57, 64
3, 142656, Note_on_c, 0, 56, 92
3, 142848, Note_off_c, 0, 56, 64
3, 142848, Note_on_c, 0, 57, 92
3, 143232, Note_off_c, 0, 57, 64
3, 144384, Note_on_c, 0, 57, 92
3, 144384, Note_on_c, 0, 60, 92
3, 144768, Note_off_c, 0, 60, 64
3, 144768, Note_off_c, 0, 57, 64
3, 145536, Note_on_c, 0, 64, 92
3, 145536, Note_on_c, 0, 57, 92
3, 145728, Note_off_c, 0, 64, 64
3, 145728, Note_on_c, 0, 61, 92
3, 145920, Note_off_c, 0, 61, 64
3, 145920, Note_off_c, 0, 57, 64
3, 145920, Note_on_c, 0, 50, 92
3, 145920, Note_on_c, 0, 62, 92
3, 146304, Note_off_c, 0, 62, 64
3, 146304, Note_off_c, 0, 50, 64
3, 147456, Note_on_c, 0, 50, 92
3, 147456, Note_on_c, 0, 62, 92
3, 147840, Note_off_c, 0, 62, 64
3, 147840, Note_off_c, 0, 50, 64
3, 148608, Note_on_c, 0, 50, 92
3, 148608, Note_on_c, 0, 62, 92
3, 148992, Note_off_c, 0, 62, 64
3, 148992, Note_off_c, 0, 50, 64
3, 148992, Note_on_c, 0, 55, 92
3, 148992, Note_on_c, 0, 62, 92
3, 149376, Note_off_c, 0, 62, 64
3, 149376, Note_off_c, 0, 55, 64
3, 150528, Note_on_c, 0, 55, 92
3, 150528, Note_on_c, 0, 59, 92
3, 150912, Note_off_c, 0, 59, 64
3, 150912, Note_off_c, 0, 55, 64
3, 151680, Note_on_c, 0, 55, 92
3, 151680, Note_on_c, 0, 59, 92
3, 152064, Note_off_c, 0, 59, 64
3, 152064, Note_off_c, 0, 55, 64
3, 152064, Note_on_c, 0, 48, 92
3, 152064, Note_on_c, 0, 60, 92
3, 152832, Note_off_c, 0, 60, 64
3, 152832, Note_off_c, 0, 48, 64
3, 152832, Note_on_c, 0, 60, 92
3, 152832, Note_on_c, 0, 57, 92
3, 153024, Note_off_c, 0, 57, 64
3, 153024, Note_on_c, 0, 52, 92
3, 153216, Note_off_c, 0, 52, 64
3, 153216, Note_off_c, 0, 60, 64
3, 153216, Note_on_c, 0, 62, 92
3, 153216, Note_on_c, 0, 59, 92
3, 153408, Note_off_c, 0, 59, 64
3, 153408, Note_on_c, 0, 52, 92
3, 153600, Note_off_c, 0, 52, 64
3, 153600, Note_off_c, 0, 62, 64
3, 153600, Note_on_c, 0, 60, 92
3, 153792, Note_off_c, 0, 60, 64
3, 153792, Note_on_c, 0, 59, 92
3, 153888, Note_off_c, 0, 59, 64
3, 153888, Note_on_c, 0, 60, 92
3, 153984, Note_off_c, 0, 60, 64
3, 153984, Note_on_c, 0, 57, 92
3, 154176, Note_off_c, 0, 57, 64
3, 154176, Note_on_c, 0, 64, 92
3, 154272, Note_off_c, 0, 64, 64
3, 154272, Note_on_c, 0, 62, 92
3, 154368, Note_off_c, 0, 62, 64
3, 154368, Note_on_c, 0, 60, 92
3, 154464, Note_off_c, 0, 60, 64
3, 154464, Note_on_c, 0, 64, 92
3, 154560, Note_off_c, 0, 64, 64
3, 154560, Note_on_c, 0, 57, 92
3, 154656, Note_off_c, 0, 57, 64
3, 154656, Note_on_c, 0, 64, 92
3, 154752, Note_off_c, 0, 64, 64
3, 154752, Note_on_c, 0, 60, 92
3, 154848, Note_off_c, 0, 60, 64
3, 154848, Note_on_c, 0, 64, 92
3, 154944, Note_off_c, 0, 64, 64
3, 154944, Note_on_c, 0, 57, 92
3, 155040, Note_off_c, 0, 57, 64
3, 155040, Note_on_c, 0, 64, 92
3, 155136, Note_off_c, 0, 64, 64
3, 155136, Note_on_c, 0, 65, 92
3, 155328, Note_off_c, 0, 65, 64
3, 155328, Note_on_c, 0, 57, 92
3, 155520, Note_off_c, 0, 57, 64
3, 155520, Note_on_c, 0, 59, 92
3, 155712, Note_off_c, 0, 59, 64
3, 155712, Note_on_c, 0, 62, 92
3, 155808, Note_off_c, 0, 62, 64
3, 155808, Note_on_c, 0, 60, 92
3, 155904, Note_off_c, 0, 60, 64
3, 155904, Note_on_c, 0, 59, 92
3, 156000, Note_off_c, 0, 59, 64
3, 156000, Note_on_c, 0, 62, 92
3, 156096, Note_off_c, 0, 62, 64
3, 156096, Note_on_c, 0, 55, 92
3, 156192, Note_off_c, 0, 55, 64
3, 156192, Note_on_c, 0, 62, 92
3, 156288, Note_off_c, 0, 62, 64
3, 156288, Note_on_c, 0, 59, 92
3, 156384, Note_off_c, 0, 59, 64
3, 156384, Note_on_c, 0, 62, 92
3, 156480, Note_off_c, 0, 62, 64
3, 156480, Note_on_c, 0, 55, 92
3, 156576, Note_off_c, 0, 55, 64
3, 156576, Note_on_c, 0, 62, 92
3, 156672, Note_off_c, 0, 62, 64
3, 156672, Note_on_c, 0, 64, 92
3, 156864, Note_off_c, 0, 64, 64
3, 156864, Note_on_c, 0, 55, 92
3, 157056, Note_off_c, 0, 55, 64
3, 157056, Note_on_c, 0, 57, 92
3, 157248, Note_off_c, 0, 57, 64
3, 157248, Note_on_c, 0, 60, 92
3, 157344, Note_off_c, 0, 60, 64
3, 157344, Note_on_c, 0, 59, 92
3, 157440, Note_off_c, 0, 59, 64
3, 157440, Note_on_c, 0, 57, 92
3, 157632, Note_off_c, 0, 57, 64
3, 157632, Note_on_c, 0, 64, 92
3, 158016, Note_off_c, 0, 64, 64
3, 158016, Note_on_c, 0, 63, 92
3, 158208, Note_off_c, 0, 63, 64
3, 158208, Note_on_c, 0, 64, 92
3, 158400, Note_off_c, 0, 64, 64
3, 158400, Note_on_c, 0, 62, 92
3, 158592, Note_off_c, 0, 62, 64
3, 158592, Note_on_c, 0, 60, 92
3, 158784, Note_off_c, 0, 60, 64
3, 158784, Note_on_c, 0, 59, 92
3, 158976, Note_off_c, 0, 59, 64
3, 158976, Note_on_c, 0, 57, 92
3, 159360, Note_off_c, 0, 57, 64
3, 159360, Note_on_c, 0, 62, 92
3, 159744, Note_off_c, 0, 62, 64
3, 159744, Note_on_c, 0, 55, 92
3, 160128, Note_off_c, 0, 55, 64
3, 160128, Note_on_c, 0, 60, 92
3, 160512, Note_off_c, 0, 60, 64
3, 160512, Note_on_c, 0, 54, 92
3, 160896, Note_off_c, 0, 54, 64
3, 160896, Note_on_c, 0, 59, 92
3, 161280, Note_off_c, 0, 59, 64
3, 161280, Note_on_c, 0, 52, 92
3, 161664, Note_off_c, 0, 52, 64
3, 161664, Note_on_c, 0, 57, 92
3, 162048, Note_off_c, 0, 57, 64
3, 162048, Note_on_c, 0, 50, 92
3, 162432, Note_off_c, 0, 50, 64
3, 162432, Note_on_c, 0, 55, 92
3, 162624, Note_on_c, 0, 59, 92
3, 162816, Note_off_c, 0, 55, 64
3, 162816, Note_on_c, 0, 49, 92
3, 163200, Note_off_c, 0, 49, 64
3, 163200, Note_on_c, 0, 54, 92
3, 163392, Note_off_c, 0, 59, 64
3, 163392, Note_on_c, 0, 58, 92
3, 163584, Note_off_c, 0, 58, 64
3, 163584, Note_off_c, 0, 54, 64
3, 163584, Note_on_c, 0, 59, 92
3, 163584, Note_on_c, 0, 47, 92
3, 163968, Note_off_c, 0, 47, 64
3, 163968, Note_off_c, 0, 59, 64
3, 163968, Note_on_c, 0, 59, 92
3, 164352, Note_off_c, 0, 59, 64
3, 164352, Note_on_c, 0, 58, 92
3, 164736, Note_off_c, 0, 58, 64
3, 164736, Note_on_c, 0, 57, 92
3, 165120, Note_off_c, 0, 57, 64
3, 165120, Note_on_c, 0, 56, 92
3, 165504, Note_off_c, 0, 56, 64
3, 165504, Note_on_c, 0, 55, 92
3, 165888, Note_off_c, 0, 55, 64
3, 165888, Note_on_c, 0, 54, 92
3, 166272, Note_off_c, 0, 54, 64
3, 166272, Note_on_c, 0, 59, 92
3, 166656, Note_off_c, 0, 59, 64
3, 166656, Note_on_c, 0, 52, 92
3, 167040, Note_off_c, 0, 52, 64
3, 168960, Note_on_c, 0, 59, 92
3, 170496, Note_off_c, 0, 59, 64
3, 170496, Note_on_c, 0, 52, 92
3, 170880, Note_off_c, 0, 52, 64
3, 170880, Note_on_c, 0, 59, 92
3, 171264, Note_off_c, 0, 59, 64
3, 171264, Note_on_c, 0, 52, 92
3, 171648, Note_off_c, 0, 52, 64
3, 171840, Note_on_c, 0, 59, 92
3, 172032, Note_off_c, 0, 59, 64
3, 172032, Note_on_c, 0, 52, 92
3, 172416, Note_off_c, 0, 52, 64
3, 172608, Note_on_c, 0, 55, 92
3, 172800, Note_off_c, 0, 55, 64
3, 172800, Note_on_c, 0, 57, 92
3, 173184, Note_off_c, 0, 57, 64
3, 173184, Note_on_c, 0, 50, 92
3, 173568, Note_off_c, 0, 50, 64
3, 173568, Note_on_c, 0, 50, 92
3, 173952, Note_off_c, 0, 50, 64
3, 174144, Note_on_c, 0, 54, 92
3, 174336, Note_off_c, 0, 54, 64
3, 174336, Note_on_c, 0, 55, 92
3, 174336, Note_on_c, 0, 59, 92
3, 174720, Note_off_c, 0, 59, 64
3, 174720, Note_off_c, 0, 55, 64
3, 174720, Note_on_c, 0, 48, 92
3, 174720, Note_on_c, 0, 60, 92
3, 175104, Note_off_c, 0, 60, 64
3, 175104, Note_off_c, 0, 48, 64
3, 175104, Note_on_c, 0, 55, 92
3, 175104, Note_on_c, 0, 60, 92
3, 175488, Note_off_c, 0, 60, 64
3, 175488, Note_off_c, 0, 55, 64
3, 175488, Note_on_c, 0, 59, 92
3, 175488, Note_on_c, 0, 62, 92
3, 175872, Note_off_c, 0, 62, 64
3, 175872, Note_off_c, 0, 59, 64
3, 175872, Note_on_c, 0, 57, 92
3, 175872, Note_on_c, 0, 60, 92
3, 176256, Note_off_c, 0, 60, 64
3, 176256, Note_off_c, 0, 57, 64
3, 178176, Note_on_c, 0, 45, 92
3, 178368, Note_off_c, 0, 45, 64
3, 178368, Note_on_c, 0, 40, 92
3, 178560, Note_off_c, 0, 40, 64
3, 178560, Note_on_c, 0, 47, 92
3, 178752, Note_off_c, 0, 47, 64
3, 178752, Note_on_c, 0, 40, 92
3, 178944, Note_off_c, 0, 40, 64
3, 178944, Note_on_c, 0, 48, 92
3, 179136, Note_off_c, 0, 48, 64
3, 179136, Note_on_c, 0, 47, 92
3, 179232, Note_off_c, 0, 47, 64
3, 179232, Note_on_c, 0, 48, 92
3, 179328, Note_off_c, 0, 48, 64
3, 179328, Note_on_c, 0, 45, 92
3, 179520, Note_off_c, 0, 45, 64
3, 179520, Note_on_c, 0, 52, 92
3, 179616, Note_off_c, 0, 52, 64
3, 179616, Note_on_c, 0, 50, 92
3, 179712, Note_off_c, 0, 50, 64
3, 179712, Note_on_c, 0, 48, 92
3, 179808, Note_off_c, 0, 48, 64
3, 179808, Note_on_c, 0, 52, 92
3, 179904, Note_off_c, 0, 52, 64
3, 179904, Note_on_c, 0, 45, 92
3, 180000, Note_off_c, 0, 45, 64
3, 180000, Note_on_c, 0, 52, 92
3, 180096, Note_off_c, 0, 52, 64
3, 180096, Note_on_c, 0, 48, 92
3, 180192, Note_off_c, 0, 48, 64
3, 180192, Note_on_c, 0, 52, 92
3, 180288, Note_off_c, 0, 52, 64
3, 180288, Note_on_c, 0, 45, 92
3, 180384, Note_off_c, 0, 45, 64
3, 180384, Note_on_c, 0, 52, 92
3, 180480, Note_off_c, 0, 52, 64
3, 180480, Note_on_c, 0, 53, 92
3, 180672, Note_off_c, 0, 53, 64
3, 180672, Note_on_c, 0, 45, 92
3, 180864, Note_off_c, 0, 45, 64
3, 180864, Note_on_c, 0, 47, 92
3, 181056, Note_off_c, 0, 47, 64
3, 181056, Note_on_c, 0, 50, 92
3, 181152, Note_off_c, 0, 50, 64
3, 181152, Note_on_c, 0, 48, 92
3, 181248, Note_off_c, 0, 48, 64
3, 181248, Note_on_c, 0, 47, 92
3, 181344, Note_off_c, 0, 47, 64
3, 181344, Note_on_c, 0, 50, 92
3, 181440, Note_off_c, 0, 50, 64
3, 181440, Note_on_c, 0, 43, 92
3, 181536, Note_off_c, 0, 43, 64
3, 181536, Note_on_c, 0, 50, 92
3, 181632, Note_off_c, 0, 50, 64
3, 181632, Note_on_c, 0, 47, 92
3, 181728, Note_off_c, 0, 47, 64
3, 181728, Note_on_c, 0, 50, 92
3, 181824, Note_off_c, 0, 50, 64
3, 181824, Note_on_c, 0, 43, 92
3, 181920, Note_off_c, 0, 43, 64
3, 181920, Note_on_c, 0, 50, 92
3, 182016, Note_off_c, 0, 50, 64
3, 182016, Note_on_c, 0, 52, 92
3, 182208, Note_off_c, 0, 52, 64
3, 182208, Note_on_c, 0, 43, 92
3, 182400, Note_off_c, 0, 43, 64
3, 182400, Note_on_c, 0, 45, 92
3, 182592, Note_off_c, 0, 45, 64
3, 182592, Note_on_c, 0, 48, 92
3, 182688, Note_off_c, 0, 48, 64
3, 182688, Note_on_c, 0, 47, 92
3, 182784, Note_off_c, 0, 47, 64
3, 182784, Note_on_c, 0, 45, 92
3, 182976, Note_off_c, 0, 45, 64
3, 182976, Note_on_c, 0, 52, 92
3, 183360, Note_off_c, 0, 52, 64
3, 183360, Note_on_c, 0, 51, 92
3, 183552, Note_off_c, 0, 51, 64
3, 183552, Note_on_c, 0, 52, 92
3, 183744, Note_off_c, 0, 52, 64
3, 183744, Note_on_c, 0, 54, 92
3, 183936, Note_off_c, 0, 54, 64
3, 183936, Note_on_c, 0, 55, 92
3, 184128, Note_off_c, 0, 55, 64
3, 184128, Note_on_c, 0, 52, 92
3, 184320, Note_off_c, 0, 52, 64
3, 184320, Note_on_c, 0, 46, 92
3, 184704, Note_off_c, 0, 46, 64
3, 184896, Note_on_c, 0, 46, 92
3, 185088, Note_off_c, 0, 46, 64
3, 185088, Note_on_c, 0, 47, 92
3, 185088, Note_on_c, 0, 59, 92
3, 185856, Note_off_c, 0, 59, 64
3, 185856, Note_off_c, 0, 47, 64
3, 185856, Note_on_c, 0, 59, 92
3, 186048, Note_off_c, 0, 59, 64
3, 186048, Note_on_c, 0, 60, 92
3, 186240, Note_off_c, 0, 60, 64
3, 186240, Note_on_c, 0, 56, 92
3, 186432, Note_off_c, 0, 56, 64
3, 186432, Note_on_c, 0, 57, 92
3, 186624, Note_off_c, 0, 57, 64
3, 186624, Note_on_c, 0, 59, 92
3, 186816, Note_off_c, 0, 59, 64
3, 186816, Note_on_c, 0, 60, 92
3, 187008, Note_off_c, 0, 60, 64
3, 187008, Note_on_c, 0, 56, 92
3, 187200, Note_off_c, 0, 56, 64
3, 187200, Note_on_c, 0, 57, 92
3, 187392, Note_off_c, 0, 57, 64
3, 187392, Note_on_c, 0, 59, 92
3, 187584, Note_off_c, 0, 59, 64
3, 187584, Note_on_c, 0, 60, 92
3, 187776, Note_off_c, 0, 60, 64
3, 187776, Note_on_c, 0, 56, 92
3, 187968, Note_off_c, 0, 56, 64
3, 187968, Note_on_c, 0, 57, 92
3, 188160, Note_off_c, 0, 57, 64
3, 188160, Note_on_c, 0, 59, 92
3, 188352, Note_off_c, 0, 59, 64
3, 188352, Note_on_c, 0, 60, 92
3, 188544, Note_off_c, 0, 60, 64
3, 188544, Note_on_c, 0, 56, 92
3, 188736, Note_off_c, 0, 56, 64
3, 188736, Note_on_c, 0, 57, 92
3, 188928, Note_off_c, 0, 57, 64
3, 188928, Note_on_c, 0, 59, 92
3, 189120, Note_off_c, 0, 59, 64
3, 189120, Note_on_c, 0, 60, 92
3, 189312, Note_off_c, 0, 60, 64
3, 189312, Note_on_c, 0, 56, 92
3, 189504, Note_off_c, 0, 56, 64
3, 189504, Note_on_c, 0, 57, 92
3, 189696, Note_off_c, 0, 57, 64
3, 189696, Note_on_c, 0, 59, 92
3, 189888, Note_off_c, 0, 59, 64
3, 189888, Note_on_c, 0, 60, 92
3, 190080, Note_off_c, 0, 60, 64
3, 190080, Note_on_c, 0, 59, 92
3, 190272, Note_off_c, 0, 59, 64
3, 191088, Note_on_c, 0, 57, 92
3, 191136, Note_off_c, 0, 57, 64
3, 191136, Note_on_c, 0, 56, 92
3, 191184, Note_off_c, 0, 56, 64
3, 191184, Note_on_c, 0, 54, 92
3, 191232, Note_off_c, 0, 54, 64
3, 191232, Note_on_c, 0, 52, 92
3, 191280, Note_off_c, 0, 52, 64
3, 191280, Note_on_c, 0, 57, 92
3, 191328, Note_off_c, 0, 57, 64
3, 191328, Note_on_c, 0, 55, 92
3, 191376, Note_off_c, 0, 55, 64
3, 191376, Note_on_c, 0, 53, 92
3, 191424, Note_off_c, 0, 53, 64
3, 191424, Note_on_c, 0, 52, 92
3, 191472, Note_off_c, 0, 52, 64
3, 191472, Note_on_c, 0, 50, 92
3, 191520, Note_off_c, 0, 50, 64
3, 191520, Note_on_c, 0, 48, 92
3, 191568, Note_off_c, 0, 48, 64
3, 191568, Note_on_c, 0, 47, 92
3, 191616, Note_off_c, 0, 47, 64
3, 191616, Note_on_c, 0, 45, 92
3, 191664, Note_off_c, 0, 45, 64
3, 194304, Note_on_c, 0, 52, 92
3, 194352, Note_on_c, 0, 57, 92
3, 194400, Note_off_c, 0, 57, 64
3, 194400, Note_on_c, 0, 60, 92
3, 194448, Note_off_c, 0, 60, 64
3, 194448, Note_on_c, 0, 57, 92
3, 194496, Note_off_c, 0, 57, 64
3, 194496, Note_off_c, 0, 52, 64
3, 194496, Note_on_c, 0, 48, 92
3, 194544, Note_on_c, 0, 52, 92
3, 194592, Note_off_c, 0, 52, 64
3, 194592, Note_on_c, 0, 57, 92
3, 194640, Note_off_c, 0, 57, 64
3, 194640, Note_on_c, 0, 52, 92
3, 194688, Note_off_c, 0, 52, 64
3, 194688, Note_off_c, 0, 48, 64
3, 194688, Note_on_c, 0, 52, 92
3, 194736, Note_on_c, 0, 57, 92
3, 194784, Note_off_c, 0, 57, 64
3, 194784, Note_on_c, 0, 60, 92
3, 194832, Note_off_c, 0, 60, 64
3, 194832, Note_on_c, 0, 57, 92
3, 194880, Note_off_c, 0, 57, 64
3, 194880, Note_off_c, 0, 52, 64
3, 194880, Note_on_c, 0, 48, 92
3, 194928, Note_on_c, 0, 52, 92
3, 194976, Note_off_c, 0, 52, 64
3, 194976, Note_on_c, 0, 57, 92
3, 195024, Note_off_c, 0, 57, 64
3, 195024, Note_on_c, 0, 52, 92
3, 195072, Note_off_c, 0, 52, 64
3, 195072, Note_off_c, 0, 48, 64
3, 195072, Note_on_c, 0, 45, 92
3, 195120, Note_on_c, 0, 48, 92
3, 195168, Note_off_c, 0, 48, 64
3, 195168, Note_on_c, 0, 52, 92
3, 195216, Note_off_c, 0, 52, 64
3, 195216, Note_on_c, 0, 48, 92
3, 195264, Note_off_c, 0, 48, 64
3, 195264, Note_off_c, 0, 45, 64
3, 195264, Note_on_c, 0, 48, 92
3, 195312, Note_on_c, 0, 52, 92
3, 195360, Note_off_c, 0, 52, 64
3, 195360, Note_on_c, 0, 57, 92
3, 195408, Note_off_c, 0, 57, 64
3, 195408, Note_on_c, 0, 52, 92
3, 195456, Note_off_c, 0, 52, 64
3, 195456, Note_off_c, 0, 48, 64
3, 195456, Note_on_c, 0, 52, 92
3, 195504, Note_on_c, 0, 57, 92
3, 195552, Note_off_c, 0, 57, 64
3, 195552, Note_on_c, 0, 60, 92
3, 195600, Note_off_c, 0, 60, 64
3, 195600, Note_on_c, 0, 57, 92
3, 195648, Note_off_c, 0, 57, 64
3, 195648, Note_off_c, 0, 52, 64
3, 195648, Note_on_c, 0, 48, 92
3, 195696, Note_on_c, 0, 52, 92
3, 195744, Note_off_c, 0, 52, 64
3, 195744, Note_on_c, 0, 57, 92
3, 195792, Note_off_c, 0, 57, 64
3, 195792, Note_on_c, 0, 52, 92
3, 195840, Note_off_c, 0, 52, 64
3, 195840, Note_off_c, 0, 48, 64
3, 195840, Note_on_c, 0, 52, 92
3, 195888, Note_on_c, 0, 57, 92
3, 195936, Note_off_c, 0, 57, 64
3, 195936, Note_on_c, 0, 60, 92
3, 195984, Note_off_c, 0, 60, 64
3, 195984, Note_on_c, 0, 57, 92
3, 196032, Note_off_c, 0, 57, 64
3, 196032, Note_off_c, 0, 52, 64
3, 196032, Note_on_c, 0, 57, 92
3, 196080, Note_on_c, 0, 60, 92
3, 196128, Note_off_c, 0, 60, 64
3, 196128, Note_on_c, 0, 64, 92
3, 196176, Note_off_c, 0, 64, 64
3, 196176, Note_on_c, 0, 60, 92
3, 196224, Note_off_c, 0, 60, 64
3, 196224, Note_off_c, 0, 57, 64
3, 196224, Note_on_c, 0, 60, 92
3, 196272, Note_on_c, 0, 64, 92
3, 196320, Note_off_c, 0, 64, 64
3, 196320, Note_on_c, 0, 69, 92
3, 196368, Note_off_c, 0, 69, 64
3, 196368, Note_on_c, 0, 64, 92
3, 196416, Note_off_c, 0, 64, 64
3, 196416, Note_off_c, 0, 60, 64
3, 196416, Note_on_c, 0, 57, 92
3, 196464, Note_on_c, 0, 60, 92
3, 196512, Note_off_c, 0, 60, 64
3, 196512, Note_on_c, 0, 64, 92
3, 196560, Note_off_c, 0, 64, 64
3, 196560, Note_on_c, 0, 60, 92
3, 196608, Note_off_c, 0, 60, 64
3, 196608, Note_off_c, 0, 57, 64
3, 198528, Note_on_c, 0, 64, 92
3, 198576, Note_off_c, 0, 64, 64
3, 198576, Note_on_c, 0, 60, 92
3, 198624, Note_off_c, 0, 60, 64
3, 198624, Note_on_c, 0, 57, 92
3, 198672, Note_off_c, 0, 57, 64
3, 198672, Note_on_c, 0, 52, 92
3, 198720, Note_off_c, 0, 52, 64
3, 198720, Note_on_c, 0, 60, 92
3, 198768, Note_off_c, 0, 60, 64
3, 198768, Note_on_c, 0, 57, 92
3, 198816, Note_off_c, 0, 57, 64
3, 198816, Note_on_c, 0, 52, 92
3, 198864, Note_off_c, 0, 52, 64
3, 198864, Note_on_c, 0, 48, 92
3, 198912, Note_off_c, 0, 48, 64
3, 198912, Note_on_c, 0, 45, 92
3, 198960, Note_off_c, 0, 45, 64
3, 198960, Note_on_c, 0, 57, 92
3, 199008, Note_off_c, 0, 57, 64
3, 199008, Note_on_c, 0, 55, 92
3, 199056, Note_off_c, 0, 55, 64
3, 199056, Note_on_c, 0, 53, 92
3, 199104, Note_off_c, 0, 53, 64
3, 199104, Note_on_c, 0, 52, 92
3, 199152, Note_off_c, 0, 52, 64
3, 199152, Note_on_c, 0, 50, 92
3, 199200, Note_off_c, 0, 50, 64
3, 199200, Note_on_c, 0, 48, 92
3, 199248, Note_off_c, 0, 48, 64
3, 199248, Note_on_c, 0, 47, 92
3, 199296, Note_off_c, 0, 47, 64
3, 199296, Note_on_c, 0, 45, 92
3, 199488, Note_off_c, 0, 45, 64
3, 199488, Note_on_c, 0, 51, 92
3, 199680, Note_off_c, 0, 51, 64
3, 199680, Note_on_c, 0, 52, 92
3, 199872, Note_off_c, 0, 52, 64
3, 199872, Note_on_c, 0, 54, 92
3, 200064, Note_off_c, 0, 54, 64
3, 200064, Note_on_c, 0, 55, 92
3, 200256, Note_off_c, 0, 55, 64
3, 200256, Note_on_c, 0, 52, 92
3, 200448, Note_off_c, 0, 52, 64
3, 200448, Note_on_c, 0, 46, 92
3, 201216, Note_off_c, 0, 46, 64
3, 201216, Note_on_c, 0, 47, 92
3, 201408, Note_off_c, 0, 47, 64
3, 201408, Note_on_c, 0, 49, 92
3, 201600, Note_off_c, 0, 49, 64
3, 201600, Note_on_c, 0, 50, 92
3, 201792, Note_off_c, 0, 50, 64
3, 201792, Note_on_c, 0, 47, 92
3, 201984, Note_off_c, 0, 47, 64
3, 201984, Note_on_c, 0, 44, 92
3, 202752, Note_off_c, 0, 44, 64
3, 202752, Note_on_c, 0, 45, 92
3, 202944, Note_off_c, 0, 45, 64
3, 202944, Note_on_c, 0, 47, 92
3, 203136, Note_off_c, 0, 47, 64
3, 203136, Note_on_c, 0, 48, 92
3, 203328, Note_off_c, 0, 48, 64
3, 203328, Note_on_c, 0, 45, 92
3, 203520, Note_off_c, 0, 45, 64
3, 203520, Note_on_c, 0, 42, 92
3, 204288, Note_off_c, 0, 42, 64
3, 204288, Note_on_c, 0, 43, 92
3, 204480, Note_off_c, 0, 43, 64
3, 204480, Note_on_c, 0, 45, 92
3, 204672, Note_off_c, 0, 45, 64
3, 204672, Note_on_c, 0, 47, 92
3, 204864, Note_off_c, 0, 47, 64
3, 204864, Note_on_c, 0, 43, 92
3, 205056, Note_off_c, 0, 43, 64
3, 205056, Note_on_c, 0, 48, 92
3, 205440, Note_off_c, 0, 48, 64
3, 205440, Note_on_c, 0, 49, 92
3, 205824, Note_off_c, 0, 49, 64
3, 205920, Note_on_c, 0, 57, 92
3, 205968, Note_off_c, 0, 57, 64
3, 205968, Note_on_c, 0, 50, 92
3, 206016, Note_off_c, 0, 50, 64
3, 206112, Note_on_c, 0, 57, 92
3, 206160, Note_off_c, 0, 57, 64
3, 206160, Note_on_c, 0, 50, 92
3, 206208, Note_off_c, 0, 50, 64
3, 206304, Note_on_c, 0, 59, 92
3, 206352, Note_off_c, 0, 59, 64
3, 206352, Note_on_c, 0, 50, 92
3, 206400, Note_off_c, 0, 50, 64
3, 206496, Note_on_c, 0, 59, 92
3, 206544, Note_off_c, 0, 59, 64
3, 206544, Note_on_c, 0, 50, 92
3, 206592, Note_off_c, 0, 50, 64
3, 206688, Note_on_c, 0, 54, 92
3, 206736, Note_off_c, 0, 54, 64
3, 206736, Note_on_c, 0, 50, 92
3, 206784, Note_off_c, 0, 50, 64
3, 206880, Note_on_c, 0, 54, 92
3, 206928, Note_off_c, 0, 54, 64
3, 206928, Note_on_c, 0, 50, 92
3, 206976, Note_off_c, 0, 50, 64
3, 207072, Note_on_c, 0, 55, 92
3, 207120, Note_off_c, 0, 55, 64
3, 207120, Note_on_c, 0, 50, 92
3, 207168, Note_off_c, 0, 50, 64
3, 207264, Note_on_c, 0, 55, 92
3, 207312, Note_off_c, 0, 55, 64
3, 207312, Note_on_c, 0, 50, 92
3, 207360, Note_off_c, 0, 50, 64
3, 208992, Note_on_c, 0, 57, 92
3, 209040, Note_off_c, 0, 57, 64
3, 209040, Note_on_c, 0, 50, 92
3, 209088, Note_off_c, 0, 50, 64
3, 209184, Note_on_c, 0, 57, 92
3, 209232, Note_off_c, 0, 57, 64
3, 209232, Note_on_c, 0, 50, 92
3, 209280, Note_off_c, 0, 50, 64
3, 209376, Note_on_c, 0, 59, 92
3, 209424, Note_off_c, 0, 59, 64
3, 209424, Note_on_c, 0, 50, 92
3, 209472, Note_off_c, 0, 50, 64
3, 209568, Note_on_c, 0, 59, 92
3, 209616, Note_off_c, 0, 59, 64
3, 209616, Note_on_c, 0, 50, 92
3, 209664, Note_off_c, 0, 50, 64
3, 209760, Note_on_c, 0, 58, 92
3, 209808, Note_off_c, 0, 58, 64
3, 209808, Note_on_c, 0, 50, 92
3, 209856, Note_off_c, 0, 50, 64
3, 209952, Note_on_c, 0, 58, 92
3, 210000, Note_off_c, 0, 58, 64
3, 210000, Note_on_c, 0, 50, 92
3, 210048, Note_off_c, 0, 50, 64
3, 210144, Note_on_c, 0, 57, 92
3, 210192, Note_off_c, 0, 57, 64
3, 210192, Note_on_c, 0, 50, 92
3, 210240, Note_off_c, 0, 50, 64
3, 210336, Note_on_c, 0, 57, 92
3, 210384, Note_off_c, 0, 57, 64
3, 210384, Note_on_c, 0, 50, 92
3, 210432, Note_off_c, 0, 50, 64
3, 210432, Note_on_c, 0, 55, 92
3, 210528, Note_off_c, 0, 55, 64
3, 210672, Note_on_c, 0, 60, 92
3, 210720, Note_off_c, 0, 60, 64
3, 210720, Note_on_c, 0, 59, 92
3, 210768, Note_off_c, 0, 59, 64
3, 210768, Note_on_c, 0, 57, 92
3, 210816, Note_off_c, 0, 57, 64
3, 210816, Note_on_c, 0, 55, 92
3, 210864, Note_off_c, 0, 55, 64
3, 211824, Note_on_c, 0, 60, 92
3, 211872, Note_off_c, 0, 60, 64
3, 211872, Note_on_c, 0, 59, 92
3, 211920, Note_off_c, 0, 59, 64
3, 211920, Note_on_c, 0, 57, 92
3, 211968, Note_off_c, 0, 57, 64
3, 212064, Note_on_c, 0, 59, 92
3, 212112, Note_off_c, 0, 59, 64
3, 212112, Note_on_c, 0, 55, 92
3, 212160, Note_off_c, 0, 55, 64
3, 212256, Note_on_c, 0, 59, 92
3, 212304, Note_off_c, 0, 59, 64
3, 212304, Note_on_c, 0, 55, 92
3, 212352, Note_off_c, 0, 55, 64
3, 212448, Note_on_c, 0, 60, 92
3, 212496, Note_off_c, 0, 60, 64
3, 212496, Note_on_c, 0, 55, 92
3, 212544, Note_off_c, 0, 55, 64
3, 212640, Note_on_c, 0, 60, 92
3, 212688, Note_off_c, 0, 60, 64
3, 212688, Note_on_c, 0, 55, 92
3, 212736, Note_off_c, 0, 55, 64
3, 212832, Note_on_c, 0, 62, 92
3, 212880, Note_off_c, 0, 62, 64
3, 212880, Note_on_c, 0, 55, 92
3, 212928, Note_off_c, 0, 55, 64
3, 213024, Note_on_c, 0, 62, 92
3, 213072, Note_off_c, 0, 62, 64
3, 213072, Note_on_c, 0, 55, 92
3, 213120, Note_off_c, 0, 55, 64
3, 213216, Note_on_c, 0, 64, 92
3, 213264, Note_off_c, 0, 64, 64
3, 213264, Note_on_c, 0, 55, 92
3, 213312, Note_off_c, 0, 55, 64
3, 213408, Note_on_c, 0, 64, 92
3, 213456, Note_off_c, 0, 64, 64
3, 213456, Note_on_c, 0, 55, 92
3, 213504, Note_off_c, 0, 55, 64
3, 227328, Note_on_c, 0, 59, 92
3, 227712, Note_off_c, 0, 59, 64
3, 227712, Note_on_c, 0, 55, 92
3, 228096, Note_off_c, 0, 55, 64
3, 228096, Note_on_c, 0, 54, 92
3, 228480, Note_off_c, 0, 54, 64
3, 228480, Note_on_c, 0, 55, 92
3, 228864, Note_off_c, 0, 55, 64
3, 228864, Note_on_c, 0, 51, 92
3, 229248, Note_off_c, 0, 51, 64
3, 229248, Note_on_c, 0, 52, 92
3, 229632, Note_off_c, 0, 52, 64
3, 229632, Note_on_c, 0, 54, 92
3, 229824, Note_off_c, 0, 54, 64
3, 229824, Note_on_c, 0, 59, 92
3, 230016, Note_off_c, 0, 59, 64
3, 230016, Note_on_c, 0, 55, 92
3, 230400, Note_off_c, 0, 55, 64
3, 230400, Note_on_c, 0, 51, 92
3, 230784, Note_off_c, 0, 51, 64
3, 230784, Note_on_c, 0, 52, 92
3, 231168, Note_off_c, 0, 52, 64
3, 231168, Note_on_c, 0, 54, 92
3, 231360, Note_off_c, 0, 54, 64
3, 231360, Note_on_c, 0, 59, 92
3, 231552, Note_off_c, 0, 59, 64
3, 231552, Note_on_c, 0, 55, 92
3, 231936, Note_off_c, 0, 55, 64
3, 231936, Note_on_c, 0, 51, 92
3, 232320, Note_off_c, 0, 51, 64
3, 232320, Note_on_c, 0, 59, 92
3, 232704, Note_off_c, 0, 59, 64
3, 232704, Note_on_c, 0, 59, 92
3, 232896, Note_off_c, 0, 59, 64
3, 232896, Note_on_c, 0, 64, 92
3, 233088, Note_off_c, 0, 64, 64
3, 233088, Note_on_c, 0, 60, 92
3, 233472, Note_off_c, 0, 60, 64
3, 233472, Note_on_c, 0, 56, 92
3, 233856, Note_off_c, 0, 56, 64
3, 233856, Note_on_c, 0, 57, 92
3, 234240, Note_off_c, 0, 57, 64
3, 234240, Note_on_c, 0, 59, 92
3, 234432, Note_off_c, 0, 59, 64
3, 234432, Note_on_c, 0, 64, 92
3, 234624, Note_off_c, 0, 64, 64
3, 234624, Note_on_c, 0, 60, 92
3, 235008, Note_off_c, 0, 60, 64
3, 235008, Note_on_c, 0, 59, 92
3, 235392, Note_off_c, 0, 59, 64
3, 235392, Note_on_c, 0, 57, 92
3, 235776, Note_off_c, 0, 57, 64
3, 235776, Note_on_c, 0, 56, 92
3, 236160, Note_off_c, 0, 56, 64
3, 236160, Note_on_c, 0, 57, 92
3, 236544, Note_off_c, 0, 57, 64
3, 236544, Note_on_c, 0, 59, 92
3, 236736, Note_off_c, 0, 59, 64
3, 236736, Note_on_c, 0, 64, 92
3, 236928, Note_off_c, 0, 64, 64
3, 236928, Note_on_c, 0, 60, 92
3, 237312, Note_off_c, 0, 60, 64
3, 237312, Note_on_c, 0, 59, 92
3, 237696, Note_off_c, 0, 59, 64
3, 237696, Note_on_c, 0, 64, 92
3, 238080, Note_off_c, 0, 64, 64
3, 238080, Note_on_c, 0, 57, 92
3, 238080, Note_on_c, 0, 64, 92
3, 238176, Note_off_c, 0, 64, 64
3, 238176, Note_off_c, 0, 57, 64
3, 239088, Note_on_c, 0, 57, 92
3, 239136, Note_off_c, 0, 57, 64
3, 239136, Note_on_c, 0, 56, 92
3, 239184, Note_off_c, 0, 56, 64
3, 239184, Note_on_c, 0, 54, 92
3, 239232, Note_off_c, 0, 54, 64
3, 239232, Note_on_c, 0, 52, 92
3, 239280, Note_off_c, 0, 52, 64
3, 239280, Note_on_c, 0, 57, 92
3, 239328, Note_off_c, 0, 57, 64
3, 239328, Note_on_c, 0, 55, 92
3, 239376, Note_off_c, 0, 55, 64
3, 239376, Note_on_c, 0, 53, 92
3, 239424, Note_off_c, 0, 53, 64
3, 239424, Note_on_c, 0, 52, 92
3, 239472, Note_off_c, 0, 52, 64
3, 239472, Note_on_c, 0, 50, 92
3, 239520, Note_off_c, 0, 50, 64
3, 239520, Note_on_c, 0, 48, 92
3, 239568, Note_off_c, 0, 48, 64
3, 239568, Note_on_c, 0, 47, 92
3, 239616, Note_off_c, 0, 47, 64
3, 244224, End_track
4, 0, Start_track
4, 0, Title_t, "Track 3"
4, 0, Note_on_c, 0, 45, 102
4, 4608, Note_off_c, 0, 45, 64
4, 4992, Note_on_c, 0, 40, 102
4, 9216, Note_off_c, 0, 40, 64
4, 9216, Note_on_c, 0, 49, 102
4, 9984, Note_off_c, 0, 49, 64
4, 9984, Note_on_c, 0, 50, 102
4, 12288, Note_off_c, 0, 50, 64
4, 12288, Note_on_c, 0, 47, 102
4, 13056, Note_off_c, 0, 47, 64
4, 13056, Note_on_c, 0, 48, 102
4, 15744, Note_off_c, 0, 48, 64
4, 15744, Note_on_c, 0, 42, 102
4, 16128, Note_off_c, 0, 42, 64
4, 16128, Note_on_c, 0, 43, 102
4, 16896, Note_off_c, 0, 43, 64
4, 36096, Note_on_c, 0, 52, 102
4, 45312, Note_off_c, 0, 52, 64
4, 45312, Note_on_c, 0, 57, 102
4, 49920, Note_off_c, 0, 57, 64
4, 49920, Note_on_c, 0, 62, 102
4, 54528, Note_off_c, 0, 62, 64
4, 54528, Note_on_c, 0, 55, 102
4, 55296, Note_off_c, 0, 55, 64
4, 55296, Note_on_c, 0, 57, 102
4, 59136, Note_off_c, 0, 57, 64
4, 59136, Note_on_c, 0, 50, 102
4, 59904, Note_off_c, 0, 50, 64
4, 59904, Note_on_c, 0, 52, 102
4, 71616, Note_off_c, 0, 52, 64
4, 185856, Note_on_c, 0, 52, 102
4, 190464, Note_off_c, 0, 52, 64
4, 190464, Note_on_c, 0, 45, 102
4, 199296, Note_off_c, 0, 45, 64
4, 205824, Note_on_c, 0, 50, 102
4, 210432, Note_off_c, 0, 50, 64
4, 210432, Note_on_c, 0, 43, 102
4, 216576, Note_off_c, 0, 43, 64
4, 216576, Note_on_c, 0, 48, 102
4, 220032, Note_off_c, 0, 48, 64
4, 220032, Note_on_c, 0, 47, 102
4, 220416, Note_off_c, 0, 47, 64
4, 220416, Note_on_c, 0, 45, 102
4, 220800, Note_off_c, 0, 45, 64
4, 220800, Note_on_c, 0, 38, 102
4, 221184, Note_off_c, 0, 38, 64
4, 221184, Note_on_c, 0, 43, 102
4, 221760, Note_off_c, 0, 43, 64
4, 221760, Note_on_c, 0, 45, 102
4, 221952, Note_off_c, 0, 45, 64
4, 221952, Note_on_c, 0, 47, 102
4, 222528, Note_off_c, 0, 47, 64
4, 222528, Note_on_c, 0, 45, 102
4, 222720, Note_off_c, 0, 45, 64
4, 222720, Note_on_c, 0, 44, 102
4, 222912, Note_off_c, 0, 44, 64
4, 222912, Note_on_c, 0, 42, 102
4, 223104, Note_off_c, 0, 42, 64
4, 223104, Note_on_c, 0, 44, 102
4, 223296, Note_off_c, 0, 44, 64
4, 223296, Note_on_c, 0, 40, 102
4, 223488, Note_off_c, 0, 40, 64
4, 223488, Note_on_c, 0, 45, 102
4, 226944, Note_off_c, 0, 45, 64
4, 226944, Note_on_c, 0, 43, 102
4, 227136, Note_off_c, 0, 43, 64
4, 227136, Note_on_c, 0, 45, 102
4, 227328, Note_off_c, 0, 45, 64
4, 227328, Note_on_c, 0, 47, 102
4, 232704, Note_off_c, 0, 47, 64
4, 232704, Note_on_c, 0, 52, 102
4, 238080, Note_off_c, 0, 52, 64
4, 238080, Note_on_c, 0, 45, 102
4, 239616, Note_off_c, 0, 45, 64
4, 239616, Note_on_c, 0, 45, 102
4, 239808, Note_off_c, 0, 45, 64
4, 239808, Note_on_c, 0, 47, 102
4, 240000, Note_off_c, 0, 47, 64
4, 240000, Note_on_c, 0, 48, 102
4, 240192, Note_off_c, 0, 48, 64
4, 240192, Note_on_c, 0, 45, 102
4, 240384, Note_off_c, 0, 45, 64
4, 240384, Note_on_c, 0, 38, 102
4, 240768, Note_off_c, 0, 38, 64
4, 240768, Note_on_c, 0, 39, 102
4, 241152, Note_off_c, 0, 39, 64
4, 241152, Note_on_c, 0, 40, 102
4, 242688, Note_off_c, 0, 40, 64
4, 242688, Note_on_c, 0, 45, 102
4, 244224, Note_off_c, 0, 45, 64
4, 244224, End_track
0, 0, End_of_file
