0, 0, Header, 1, 15, 240
1, 0, Start_track
1, 0, Sequencer_specific, 10, 0, 0, 91, 35, 1, 0, 5, 6, 42, 0
1, 0, Title_t, "J. S. Bach - Orchestral Suite No.4 in D Major BWV1069"
1, 0, Instrument_name_t, "Conductor Track"
1, 0, SMPTE_offset, 96, 0, 3, 0, 0
1, 0, MIDI_port, 0
1, 0, Marker_t, "Originally Sequenced 28 Dec 1999"
1, 0, Tempo, 571428
1, 0, Time_signature, 3, 2, 24, 8
1, 0, Key_signature, 2, "major"
1, 44640, Tempo, 571428
1, 44674, Tempo, 576923
1, 44709, Tempo, 582524
1, 44743, Tempo, 588235
1, 44777, Tempo, 594059
1, 44811, Tempo, 600000
1, 44846, Tempo, 606060
1, 44880, Tempo, 612244
1, 44914, Tempo, 618556
1, 44949, Tempo, 625000
1, 44983, Tempo, 631578
1, 45017, Tempo, 638297
1, 45051, Tempo, 645161
1, 45086, Tempo, 652173
1, 45120, Tempo, 659340
1, 45154, Tempo, 666666
1, 45189, Tempo, 674157
1, 45223, Tempo, 681818
1, 45257, Tempo, 689655
1, 45291, Tempo, 697674
1, 45326, Tempo, 705882
1, 45360, Time_signature, 4, 2, 24, 8
1, 45360, Tempo, 714285
1, 46080, Tempo, 3000000
1, 46320, Time_signature, 3, 2, 24, 8
1, 46320, Tempo, 571428
1, 79440, Tempo, 571428
1, 79474, Tempo, 576923
1, 79509, Tempo, 582524
1, 79543, Tempo, 588235
1, 79577, Tempo, 594059
1, 79611, Tempo, 600000
1, 79646, Tempo, 606060
1, 79680, Tempo, 612244
1, 79714, Tempo, 618556
1, 79749, Tempo, 625000
1, 79783, Tempo, 631578
1, 79817, Tempo, 638297
1, 79851, Tempo, 645161
1, 79886, Tempo, 652173
1, 79920, Tempo, 659340
1, 79954, Tempo, 666666
1, 79989, Tempo, 674157
1, 80023, Tempo, 681818
1, 80057, Tempo, 689655
1, 80091, Tempo, 697674
1, 80126, Tempo, 705882
1, 80160, Time_signature, 4, 2, 24, 8
1, 80160, Tempo, 714285
1, 80880, Tempo, 3000000
1, 81120, Tempo, 571428
1, 81120, Time_signature, 3, 2, 24, 8
1, 125760, Tempo, 571428
1, 125794, Tempo, 576923
1, 125829, Tempo, 582524
1, 125863, Tempo, 588235
1, 125897, Tempo, 594059
1, 125931, Tempo, 600000
1, 125966, Tempo, 606060
1, 126000, Tempo, 612244
1, 126034, Tempo, 618556
1, 126069, Tempo, 625000
1, 126103, Tempo, 631578
1, 126137, Tempo, 638297
1, 126171, Tempo, 645161
1, 126206, Tempo, 652173
1, 126240, Tempo, 659340
1, 126274, Tempo, 666666
1, 126309, Tempo, 674157
1, 126343, Tempo, 681818
1, 126377, Tempo, 689655
1, 126411, Tempo, 697674
1, 126446, Tempo, 705882
1, 126480, Tempo, 714285
1, 127200, Tempo, 3000000
1, 127680, Tempo, 3000000
1, 127680, End_track
2, 0, Start_track
2, 0, Title_t, "4th Movement - Menuet I and II"
2, 0, MIDI_port, 0
2, 0, End_track
3, 0, Start_track
3, 0, Title_t, "Sequenced by D. L. Viens 31 Dec 1999"
3, 0, MIDI_port, 0
3, 0, End_track
4, 0, Start_track
4, 0, Title_t, "dlviens@empire.net"
4, 0, MIDI_port, 0
4, 0, End_track
5, 0, Start_track
5, 0, MIDI_port, 0
5, 0, End_track
6, 0, Start_track
6, 0, Title_t, "Oboe I"
6, 0, MIDI_port, 0
6, 0, Program_c, 4, 68
6, 0, Control_c, 4, 10, 59
6, 0, Control_c, 4, 11, 127
6, 0, Control_c, 4, 7, 80
6, 0, Note_on_c, 4, 78, 76
6, 104, Note_on_c, 4, 78, 0
6, 120, Note_on_c, 4, 79, 76
6, 224, Note_on_c, 4, 79, 0
6, 240, Note_on_c, 4, 79, 76
6, 269, Note_on_c, 4, 79, 0
6, 270, Note_on_c, 4, 81, 76
6, 299, Note_on_c, 4, 81, 0
6, 300, Note_on_c, 4, 79, 76
6, 329, Note_on_c, 4, 79, 0
6, 330, Note_on_c, 4, 81, 76
6, 359, Note_on_c, 4, 81, 0
6, 360, Note_on_c, 4, 79, 76
6, 389, Note_on_c, 4, 79, 0
6, 390, Note_on_c, 4, 81, 76
6, 419, Note_on_c, 4, 81, 0
6, 420, Note_on_c, 4, 79, 76
6, 449, Note_on_c, 4, 79, 0
6, 450, Note_on_c, 4, 81, 76
6, 479, Note_on_c, 4, 81, 0
6, 480, Note_on_c, 4, 79, 76
6, 509, Note_on_c, 4, 79, 0
6, 510, Note_on_c, 4, 81, 76
6, 539, Note_on_c, 4, 81, 0
6, 540, Note_on_c, 4, 79, 76
6, 569, Note_on_c, 4, 79, 0
6, 570, Note_on_c, 4, 81, 76
6, 599, Note_on_c, 4, 81, 0
6, 600, Note_on_c, 4, 78, 76
6, 659, Note_on_c, 4, 78, 0
6, 660, Note_on_c, 4, 79, 76
6, 711, Note_on_c, 4, 79, 0
6, 720, Note_on_c, 4, 81, 76
6, 824, Note_on_c, 4, 81, 0
6, 840, Note_on_c, 4, 79, 76
6, 944, Note_on_c, 4, 79, 0
6, 960, Note_on_c, 4, 78, 76
6, 1064, Note_on_c, 4, 78, 0
6, 1080, Note_on_c, 4, 76, 76
6, 1184, Note_on_c, 4, 76, 0
6, 1200, Note_on_c, 4, 74, 76
6, 1304, Note_on_c, 4, 74, 0
6, 1320, Note_on_c, 4, 73, 76
6, 1424, Note_on_c, 4, 73, 0
6, 1440, Note_on_c, 4, 71, 76
6, 1664, Note_on_c, 4, 71, 0
6, 1680, Note_on_c, 4, 76, 76
6, 1904, Note_on_c, 4, 76, 0
6, 1920, Note_on_c, 4, 73, 76
6, 2144, Note_on_c, 4, 73, 0
6, 2160, Note_on_c, 4, 74, 76
6, 2264, Note_on_c, 4, 74, 0
6, 2280, Note_on_c, 4, 73, 76
6, 2384, Note_on_c, 4, 73, 0
6, 2400, Note_on_c, 4, 74, 76
6, 2504, Note_on_c, 4, 74, 0
6, 2520, Note_on_c, 4, 76, 76
6, 2624, Note_on_c, 4, 76, 0
6, 2640, Note_on_c, 4, 78, 76
6, 2744, Note_on_c, 4, 78, 0
6, 2760, Note_on_c, 4, 74, 76
6, 2864, Note_on_c, 4, 74, 0
6, 2880, Note_on_c, 4, 76, 76
6, 2984, Note_on_c, 4, 76, 0
6, 3000, Note_on_c, 4, 78, 76
6, 3104, Note_on_c, 4, 78, 0
6, 3120, Note_on_c, 4, 78, 76
6, 3149, Note_on_c, 4, 78, 0
6, 3150, Note_on_c, 4, 79, 76
6, 3179, Note_on_c, 4, 79, 0
6, 3180, Note_on_c, 4, 78, 76
6, 3209, Note_on_c, 4, 78, 0
6, 3210, Note_on_c, 4, 79, 76
6, 3239, Note_on_c, 4, 79, 0
6, 3240, Note_on_c, 4, 78, 76
6, 3269, Note_on_c, 4, 78, 0
6, 3270, Note_on_c, 4, 79, 76
6, 3299, Note_on_c, 4, 79, 0
6, 3300, Note_on_c, 4, 78, 76
6, 3329, Note_on_c, 4, 78, 0
6, 3330, Note_on_c, 4, 79, 76
6, 3359, Note_on_c, 4, 79, 0
6, 3360, Note_on_c, 4, 78, 76
6, 3389, Note_on_c, 4, 78, 0
6, 3390, Note_on_c, 4, 79, 76
6, 3419, Note_on_c, 4, 79, 0
6, 3420, Note_on_c, 4, 78, 76
6, 3449, Note_on_c, 4, 78, 0
6, 3450, Note_on_c, 4, 79, 76
6, 3479, Note_on_c, 4, 79, 0
6, 3480, Note_on_c, 4, 76, 76
6, 3539, Note_on_c, 4, 76, 0
6, 3540, Note_on_c, 4, 78, 76
6, 3591, Note_on_c, 4, 78, 0
6, 3600, Note_on_c, 4, 79, 76
6, 3704, Note_on_c, 4, 79, 0
6, 3720, Note_on_c, 4, 78, 76
6, 3824, Note_on_c, 4, 78, 0
6, 3840, Note_on_c, 4, 76, 76
6, 3944, Note_on_c, 4, 76, 0
6, 3960, Note_on_c, 4, 78, 76
6, 4064, Note_on_c, 4, 78, 0
6, 4080, Note_on_c, 4, 79, 76
6, 4184, Note_on_c, 4, 79, 0
6, 4200, Note_on_c, 4, 76, 76
6, 4304, Note_on_c, 4, 76, 0
6, 4320, Note_on_c, 4, 78, 76
6, 4424, Note_on_c, 4, 78, 0
6, 4440, Note_on_c, 4, 80, 76
6, 4544, Note_on_c, 4, 80, 0
6, 4560, Note_on_c, 4, 80, 76
6, 4589, Note_on_c, 4, 80, 0
6, 4590, Note_on_c, 4, 81, 76
6, 4619, Note_on_c, 4, 81, 0
6, 4620, Note_on_c, 4, 80, 76
6, 4649, Note_on_c, 4, 80, 0
6, 4650, Note_on_c, 4, 81, 76
6, 4679, Note_on_c, 4, 81, 0
6, 4680, Note_on_c, 4, 80, 76
6, 4709, Note_on_c, 4, 80, 0
6, 4710, Note_on_c, 4, 81, 76
6, 4739, Note_on_c, 4, 81, 0
6, 4740, Note_on_c, 4, 80, 76
6, 4769, Note_on_c, 4, 80, 0
6, 4770, Note_on_c, 4, 81, 76
6, 4799, Note_on_c, 4, 81, 0
6, 4800, Note_on_c, 4, 80, 76
6, 4829, Note_on_c, 4, 80, 0
6, 4830, Note_on_c, 4, 81, 76
6, 4859, Note_on_c, 4, 81, 0
6, 4860, Note_on_c, 4, 80, 76
6, 4889, Note_on_c, 4, 80, 0
6, 4890, Note_on_c, 4, 81, 76
6, 4919, Note_on_c, 4, 81, 0
6, 4920, Note_on_c, 4, 78, 76
6, 4979, Note_on_c, 4, 78, 0
6, 4980, Note_on_c, 4, 80, 76
6, 5031, Note_on_c, 4, 80, 0
6, 5040, Note_on_c, 4, 81, 76
6, 5744, Note_on_c, 4, 81, 0
6, 5760, Note_on_c, 4, 78, 76
6, 5864, Note_on_c, 4, 78, 0
6, 5880, Note_on_c, 4, 79, 76
6, 5984, Note_on_c, 4, 79, 0
6, 6000, Note_on_c, 4, 79, 76
6, 6029, Note_on_c, 4, 79, 0
6, 6030, Note_on_c, 4, 81, 76
6, 6059, Note_on_c, 4, 81, 0
6, 6060, Note_on_c, 4, 79, 76
6, 6089, Note_on_c, 4, 79, 0
6, 6090, Note_on_c, 4, 81, 76
6, 6119, Note_on_c, 4, 81, 0
6, 6120, Note_on_c, 4, 79, 76
6, 6149, Note_on_c, 4, 79, 0
6, 6150, Note_on_c, 4, 81, 76
6, 6179, Note_on_c, 4, 81, 0
6, 6180, Note_on_c, 4, 79, 76
6, 6209, Note_on_c, 4, 79, 0
6, 6210, Note_on_c, 4, 81, 76
6, 6239, Note_on_c, 4, 81, 0
6, 6240, Note_on_c, 4, 79, 76
6, 6269, Note_on_c, 4, 79, 0
6, 6270, Note_on_c, 4, 81, 76
6, 6299, Note_on_c, 4, 81, 0
6, 6300, Note_on_c, 4, 79, 76
6, 6329, Note_on_c, 4, 79, 0
6, 6330, Note_on_c, 4, 81, 76
6, 6359, Note_on_c, 4, 81, 0
6, 6360, Note_on_c, 4, 78, 76
6, 6419, Note_on_c, 4, 78, 0
6, 6420, Note_on_c, 4, 79, 76
6, 6471, Note_on_c, 4, 79, 0
6, 6480, Note_on_c, 4, 81, 76
6, 6584, Note_on_c, 4, 81, 0
6, 6600, Note_on_c, 4, 79, 76
6, 6704, Note_on_c, 4, 79, 0
6, 6720, Note_on_c, 4, 78, 76
6, 6824, Note_on_c, 4, 78, 0
6, 6840, Note_on_c, 4, 76, 76
6, 6944, Note_on_c, 4, 76, 0
6, 6960, Note_on_c, 4, 74, 76
6, 7064, Note_on_c, 4, 74, 0
6, 7080, Note_on_c, 4, 73, 76
6, 7184, Note_on_c, 4, 73, 0
6, 7200, Note_on_c, 4, 71, 76
6, 7424, Note_on_c, 4, 71, 0
6, 7440, Note_on_c, 4, 76, 76
6, 7664, Note_on_c, 4, 76, 0
6, 7680, Note_on_c, 4, 73, 76
6, 7904, Note_on_c, 4, 73, 0
6, 7920, Note_on_c, 4, 74, 76
6, 8024, Note_on_c, 4, 74, 0
6, 8040, Note_on_c, 4, 73, 76
6, 8144, Note_on_c, 4, 73, 0
6, 8160, Note_on_c, 4, 74, 76
6, 8264, Note_on_c, 4, 74, 0
6, 8280, Note_on_c, 4, 76, 76
6, 8384, Note_on_c, 4, 76, 0
6, 8400, Note_on_c, 4, 78, 76
6, 8504, Note_on_c, 4, 78, 0
6, 8520, Note_on_c, 4, 74, 76
6, 8624, Note_on_c, 4, 74, 0
6, 8640, Note_on_c, 4, 76, 76
6, 8744, Note_on_c, 4, 76, 0
6, 8760, Note_on_c, 4, 78, 76
6, 8864, Note_on_c, 4, 78, 0
6, 8880, Note_on_c, 4, 78, 76
6, 8909, Note_on_c, 4, 78, 0
6, 8910, Note_on_c, 4, 79, 76
6, 8939, Note_on_c, 4, 79, 0
6, 8940, Note_on_c, 4, 78, 76
6, 8969, Note_on_c, 4, 78, 0
6, 8970, Note_on_c, 4, 79, 76
6, 8999, Note_on_c, 4, 79, 0
6, 9000, Note_on_c, 4, 78, 76
6, 9029, Note_on_c, 4, 78, 0
6, 9030, Note_on_c, 4, 79, 76
6, 9059, Note_on_c, 4, 79, 0
6, 9060, Note_on_c, 4, 78, 76
6, 9089, Note_on_c, 4, 78, 0
6, 9090, Note_on_c, 4, 79, 76
6, 9119, Note_on_c, 4, 79, 0
6, 9120, Note_on_c, 4, 78, 76
6, 9149, Note_on_c, 4, 78, 0
6, 9150, Note_on_c, 4, 79, 76
6, 9179, Note_on_c, 4, 79, 0
6, 9180, Note_on_c, 4, 78, 76
6, 9209, Note_on_c, 4, 78, 0
6, 9210, Note_on_c, 4, 79, 76
6, 9239, Note_on_c, 4, 79, 0
6, 9240, Note_on_c, 4, 76, 76
6, 9299, Note_on_c, 4, 76, 0
6, 9300, Note_on_c, 4, 78, 76
6, 9351, Note_on_c, 4, 78, 0
6, 9360, Note_on_c, 4, 79, 76
6, 9464, Note_on_c, 4, 79, 0
6, 9480, Note_on_c, 4, 78, 76
6, 9584, Note_on_c, 4, 78, 0
6, 9600, Note_on_c, 4, 76, 76
6, 9704, Note_on_c, 4, 76, 0
6, 9720, Note_on_c, 4, 78, 76
6, 9824, Note_on_c, 4, 78, 0
6, 9840, Note_on_c, 4, 79, 76
6, 9944, Note_on_c, 4, 79, 0
6, 9960, Note_on_c, 4, 76, 76
6, 10064, Note_on_c, 4, 76, 0
6, 10080, Note_on_c, 4, 78, 76
6, 10184, Note_on_c, 4, 78, 0
6, 10200, Note_on_c, 4, 80, 76
6, 10304, Note_on_c, 4, 80, 0
6, 10320, Note_on_c, 4, 80, 76
6, 10349, Note_on_c, 4, 80, 0
6, 10350, Note_on_c, 4, 81, 76
6, 10379, Note_on_c, 4, 81, 0
6, 10380, Note_on_c, 4, 80, 76
6, 10409, Note_on_c, 4, 80, 0
6, 10410, Note_on_c, 4, 81, 76
6, 10439, Note_on_c, 4, 81, 0
6, 10440, Note_on_c, 4, 80, 76
6, 10469, Note_on_c, 4, 80, 0
6, 10470, Note_on_c, 4, 81, 76
6, 10499, Note_on_c, 4, 81, 0
6, 10500, Note_on_c, 4, 80, 76
6, 10529, Note_on_c, 4, 80, 0
6, 10530, Note_on_c, 4, 81, 76
6, 10559, Note_on_c, 4, 81, 0
6, 10560, Note_on_c, 4, 80, 76
6, 10589, Note_on_c, 4, 80, 0
6, 10590, Note_on_c, 4, 81, 76
6, 10619, Note_on_c, 4, 81, 0
6, 10620, Note_on_c, 4, 80, 76
6, 10649, Note_on_c, 4, 80, 0
6, 10650, Note_on_c, 4, 81, 76
6, 10679, Note_on_c, 4, 81, 0
6, 10680, Note_on_c, 4, 78, 76
6, 10739, Note_on_c, 4, 78, 0
6, 10740, Note_on_c, 4, 80, 76
6, 10791, Note_on_c, 4, 80, 0
6, 10800, Note_on_c, 4, 81, 76
6, 11504, Note_on_c, 4, 81, 0
6, 11520, Note_on_c, 4, 76, 76
6, 11744, Note_on_c, 4, 76, 0
6, 11760, Note_on_c, 4, 74, 76
6, 11864, Note_on_c, 4, 74, 0
6, 11880, Note_on_c, 4, 73, 76
6, 11984, Note_on_c, 4, 73, 0
6, 12000, Note_on_c, 4, 74, 76
6, 12104, Note_on_c, 4, 74, 0
6, 12120, Note_on_c, 4, 71, 76
6, 12224, Note_on_c, 4, 71, 0
6, 12240, Note_on_c, 4, 73, 76
6, 12344, Note_on_c, 4, 73, 0
6, 12360, Note_on_c, 4, 74, 76
6, 12464, Note_on_c, 4, 74, 0
6, 12480, Note_on_c, 4, 76, 76
6, 12704, Note_on_c, 4, 76, 0
6, 12720, Note_on_c, 4, 69, 76
6, 12944, Note_on_c, 4, 69, 0
6, 12960, Note_on_c, 4, 74, 76
6, 13064, Note_on_c, 4, 74, 0
6, 13080, Note_on_c, 4, 76, 76
6, 13184, Note_on_c, 4, 76, 0
6, 13200, Note_on_c, 4, 76, 76
6, 13229, Note_on_c, 4, 76, 0
6, 13230, Note_on_c, 4, 78, 76
6, 13259, Note_on_c, 4, 78, 0
6, 13260, Note_on_c, 4, 76, 76
6, 13289, Note_on_c, 4, 76, 0
6, 13290, Note_on_c, 4, 78, 76
6, 13319, Note_on_c, 4, 78, 0
6, 13320, Note_on_c, 4, 76, 76
6, 13349, Note_on_c, 4, 76, 0
6, 13350, Note_on_c, 4, 78, 76
6, 13379, Note_on_c, 4, 78, 0
6, 13380, Note_on_c, 4, 76, 76
6, 13409, Note_on_c, 4, 76, 0
6, 13410, Note_on_c, 4, 78, 76
6, 13439, Note_on_c, 4, 78, 0
6, 13440, Note_on_c, 4, 76, 76
6, 13469, Note_on_c, 4, 76, 0
6, 13470, Note_on_c, 4, 78, 76
6, 13499, Note_on_c, 4, 78, 0
6, 13500, Note_on_c, 4, 76, 76
6, 13529, Note_on_c, 4, 76, 0
6, 13530, Note_on_c, 4, 78, 76
6, 13559, Note_on_c, 4, 78, 0
6, 13560, Note_on_c, 4, 74, 76
6, 13619, Note_on_c, 4, 74, 0
6, 13620, Note_on_c, 4, 76, 76
6, 13671, Note_on_c, 4, 76, 0
6, 13680, Note_on_c, 4, 78, 76
6, 13784, Note_on_c, 4, 78, 0
6, 13800, Note_on_c, 4, 76, 76
6, 13904, Note_on_c, 4, 76, 0
6, 13920, Note_on_c, 4, 74, 76
6, 14024, Note_on_c, 4, 74, 0
6, 14040, Note_on_c, 4, 76, 76
6, 14144, Note_on_c, 4, 76, 0
6, 14160, Note_on_c, 4, 78, 76
6, 14264, Note_on_c, 4, 78, 0
6, 14280, Note_on_c, 4, 79, 76
6, 14384, Note_on_c, 4, 79, 0
6, 14400, Note_on_c, 4, 81, 76
6, 14624, Note_on_c, 4, 81, 0
6, 14640, Note_on_c, 4, 78, 76
6, 14669, Note_on_c, 4, 78, 0
6, 14670, Note_on_c, 4, 79, 76
6, 14699, Note_on_c, 4, 79, 0
6, 14700, Note_on_c, 4, 78, 76
6, 14729, Note_on_c, 4, 78, 0
6, 14730, Note_on_c, 4, 79, 76
6, 14759, Note_on_c, 4, 79, 0
6, 14760, Note_on_c, 4, 78, 76
6, 14789, Note_on_c, 4, 78, 0
6, 14790, Note_on_c, 4, 79, 76
6, 14819, Note_on_c, 4, 79, 0
6, 14820, Note_on_c, 4, 78, 76
6, 14849, Note_on_c, 4, 78, 0
6, 14850, Note_on_c, 4, 79, 76
6, 14879, Note_on_c, 4, 79, 0
6, 14880, Note_on_c, 4, 78, 76
6, 14909, Note_on_c, 4, 78, 0
6, 14910, Note_on_c, 4, 79, 76
6, 14939, Note_on_c, 4, 79, 0
6, 14940, Note_on_c, 4, 78, 76
6, 14969, Note_on_c, 4, 78, 0
6, 14970, Note_on_c, 4, 79, 76
6, 14999, Note_on_c, 4, 79, 0
6, 15000, Note_on_c, 4, 76, 76
6, 15059, Note_on_c, 4, 76, 0
6, 15060, Note_on_c, 4, 78, 76
6, 15111, Note_on_c, 4, 78, 0
6, 15120, Note_on_c, 4, 79, 76
6, 15344, Note_on_c, 4, 79, 0
6, 15360, Note_on_c, 4, 75, 76
6, 15584, Note_on_c, 4, 75, 0
6, 15600, Note_on_c, 4, 76, 76
6, 15839, Note_on_c, 4, 76, 0
6, 15960, Note_on_c, 4, 78, 76
6, 16064, Note_on_c, 4, 78, 0
6, 16080, Note_on_c, 4, 78, 76
6, 16424, Note_on_c, 4, 78, 0
6, 16440, Note_on_c, 4, 76, 76
6, 16544, Note_on_c, 4, 76, 0
6, 16560, Note_on_c, 4, 76, 76
6, 17264, Note_on_c, 4, 76, 0
6, 17280, Note_on_c, 4, 79, 76
6, 17384, Note_on_c, 4, 79, 0
6, 17400, Note_on_c, 4, 81, 76
6, 17504, Note_on_c, 4, 81, 0
6, 17520, Note_on_c, 4, 83, 76
6, 17744, Note_on_c, 4, 83, 0
6, 17760, Note_on_c, 4, 74, 76
6, 17984, Note_on_c, 4, 74, 0
6, 18000, Note_on_c, 4, 73, 76
6, 18224, Note_on_c, 4, 73, 0
6, 18240, Note_on_c, 4, 81, 76
6, 18704, Note_on_c, 4, 81, 0
6, 18720, Note_on_c, 4, 78, 76
6, 18824, Note_on_c, 4, 78, 0
6, 18840, Note_on_c, 4, 79, 76
6, 18944, Note_on_c, 4, 79, 0
6, 18960, Note_on_c, 4, 81, 76
6, 19184, Note_on_c, 4, 81, 0
6, 19200, Note_on_c, 4, 72, 76
6, 19424, Note_on_c, 4, 72, 0
6, 19440, Note_on_c, 4, 71, 76
6, 19664, Note_on_c, 4, 71, 0
6, 19680, Note_on_c, 4, 79, 76
6, 20144, Note_on_c, 4, 79, 0
6, 20160, Note_on_c, 4, 73, 76
6, 20264, Note_on_c, 4, 73, 0
6, 20280, Note_on_c, 4, 74, 76
6, 20384, Note_on_c, 4, 74, 0
6, 20400, Note_on_c, 4, 76, 76
6, 20624, Note_on_c, 4, 76, 0
6, 20640, Note_on_c, 4, 69, 76
6, 20864, Note_on_c, 4, 69, 0
6, 20880, Note_on_c, 4, 74, 76
6, 20984, Note_on_c, 4, 74, 0
6, 21000, Note_on_c, 4, 76, 76
6, 21104, Note_on_c, 4, 76, 0
6, 21120, Note_on_c, 4, 78, 76
6, 21224, Note_on_c, 4, 78, 0
6, 21240, Note_on_c, 4, 79, 76
6, 21344, Note_on_c, 4, 79, 0
6, 21360, Note_on_c, 4, 81, 76
6, 21464, Note_on_c, 4, 81, 0
6, 21480, Note_on_c, 4, 72, 76
6, 21584, Note_on_c, 4, 72, 0
6, 21600, Note_on_c, 4, 71, 76
6, 21824, Note_on_c, 4, 71, 0
6, 21840, Note_on_c, 4, 73, 76
6, 22064, Note_on_c, 4, 73, 0
6, 22080, Note_on_c, 4, 74, 76
6, 22304, Note_on_c, 4, 74, 0
6, 22320, Note_on_c, 4, 76, 76
6, 22544, Note_on_c, 4, 76, 0
6, 22560, Note_on_c, 4, 74, 76
6, 22664, Note_on_c, 4, 74, 0
6, 22680, Note_on_c, 4, 73, 76
6, 22784, Note_on_c, 4, 73, 0
6, 22800, Note_on_c, 4, 71, 76
6, 22904, Note_on_c, 4, 71, 0
6, 22920, Note_on_c, 4, 69, 76
6, 23024, Note_on_c, 4, 69, 0
6, 23040, Note_on_c, 4, 74, 76
6, 23144, Note_on_c, 4, 74, 0
6, 23160, Note_on_c, 4, 73, 76
6, 23264, Note_on_c, 4, 73, 0
6, 23280, Note_on_c, 4, 74, 76
6, 23504, Note_on_c, 4, 74, 0
6, 23520, Note_on_c, 4, 69, 76
6, 23744, Note_on_c, 4, 69, 0
6, 23760, Note_on_c, 4, 66, 76
6, 23984, Note_on_c, 4, 66, 0
6, 24000, Note_on_c, 4, 72, 76
6, 24464, Note_on_c, 4, 72, 0
6, 24480, Note_on_c, 4, 71, 76
6, 24704, Note_on_c, 4, 71, 0
6, 24720, Note_on_c, 4, 73, 76
6, 24824, Note_on_c, 4, 73, 0
6, 24840, Note_on_c, 4, 74, 76
6, 24944, Note_on_c, 4, 74, 0
6, 24960, Note_on_c, 4, 76, 76
6, 25064, Note_on_c, 4, 76, 0
6, 25080, Note_on_c, 4, 78, 76
6, 25184, Note_on_c, 4, 78, 0
6, 25200, Note_on_c, 4, 79, 76
6, 25424, Note_on_c, 4, 79, 0
6, 25440, Note_on_c, 4, 69, 76
6, 25904, Note_on_c, 4, 69, 0
6, 25920, Note_on_c, 4, 78, 76
6, 26024, Note_on_c, 4, 78, 0
6, 26040, Note_on_c, 4, 79, 76
6, 26144, Note_on_c, 4, 79, 0
6, 26160, Note_on_c, 4, 79, 76
6, 26189, Note_on_c, 4, 79, 0
6, 26190, Note_on_c, 4, 81, 76
6, 26219, Note_on_c, 4, 81, 0
6, 26220, Note_on_c, 4, 79, 76
6, 26249, Note_on_c, 4, 79, 0
6, 26250, Note_on_c, 4, 81, 76
6, 26279, Note_on_c, 4, 81, 0
6, 26280, Note_on_c, 4, 79, 76
6, 26309, Note_on_c, 4, 79, 0
6, 26310, Note_on_c, 4, 81, 76
6, 26339, Note_on_c, 4, 81, 0
6, 26340, Note_on_c, 4, 79, 76
6, 26369, Note_on_c, 4, 79, 0
6, 26370, Note_on_c, 4, 81, 76
6, 26399, Note_on_c, 4, 81, 0
6, 26400, Note_on_c, 4, 79, 76
6, 26429, Note_on_c, 4, 79, 0
6, 26430, Note_on_c, 4, 81, 76
6, 26459, Note_on_c, 4, 81, 0
6, 26460, Note_on_c, 4, 79, 76
6, 26489, Note_on_c, 4, 79, 0
6, 26490, Note_on_c, 4, 81, 76
6, 26519, Note_on_c, 4, 81, 0
6, 26520, Note_on_c, 4, 78, 76
6, 26579, Note_on_c, 4, 78, 0
6, 26580, Note_on_c, 4, 79, 76
6, 26631, Note_on_c, 4, 79, 0
6, 26640, Note_on_c, 4, 81, 76
6, 26744, Note_on_c, 4, 81, 0
6, 26760, Note_on_c, 4, 79, 76
6, 26864, Note_on_c, 4, 79, 0
6, 26880, Note_on_c, 4, 78, 76
6, 26984, Note_on_c, 4, 78, 0
6, 27000, Note_on_c, 4, 76, 76
6, 27104, Note_on_c, 4, 76, 0
6, 27120, Note_on_c, 4, 74, 76
6, 27224, Note_on_c, 4, 74, 0
6, 27240, Note_on_c, 4, 73, 76
6, 27344, Note_on_c, 4, 73, 0
6, 27360, Note_on_c, 4, 71, 76
6, 27584, Note_on_c, 4, 71, 0
6, 27600, Note_on_c, 4, 76, 76
6, 27824, Note_on_c, 4, 76, 0
6, 27840, Note_on_c, 4, 73, 76
6, 28064, Note_on_c, 4, 73, 0
6, 28080, Note_on_c, 4, 74, 76
6, 28784, Note_on_c, 4, 74, 0
6, 28800, Note_on_c, 4, 76, 76
6, 29024, Note_on_c, 4, 76, 0
6, 29040, Note_on_c, 4, 74, 76
6, 29144, Note_on_c, 4, 74, 0
6, 29160, Note_on_c, 4, 73, 76
6, 29264, Note_on_c, 4, 73, 0
6, 29280, Note_on_c, 4, 74, 76
6, 29384, Note_on_c, 4, 74, 0
6, 29400, Note_on_c, 4, 71, 76
6, 29504, Note_on_c, 4, 71, 0
6, 29520, Note_on_c, 4, 73, 76
6, 29624, Note_on_c, 4, 73, 0
6, 29640, Note_on_c, 4, 74, 76
6, 29744, Note_on_c, 4, 74, 0
6, 29760, Note_on_c, 4, 76, 76
6, 29984, Note_on_c, 4, 76, 0
6, 30000, Note_on_c, 4, 69, 76
6, 30224, Note_on_c, 4, 69, 0
6, 30240, Note_on_c, 4, 74, 76
6, 30344, Note_on_c, 4, 74, 0
6, 30360, Note_on_c, 4, 76, 76
6, 30464, Note_on_c, 4, 76, 0
6, 30480, Note_on_c, 4, 76, 76
6, 30509, Note_on_c, 4, 76, 0
6, 30510, Note_on_c, 4, 78, 76
6, 30539, Note_on_c, 4, 78, 0
6, 30540, Note_on_c, 4, 76, 76
6, 30569, Note_on_c, 4, 76, 0
6, 30570, Note_on_c, 4, 78, 76
6, 30599, Note_on_c, 4, 78, 0
6, 30600, Note_on_c, 4, 76, 76
6, 30629, Note_on_c, 4, 76, 0
6, 30630, Note_on_c, 4, 78, 76
6, 30659, Note_on_c, 4, 78, 0
6, 30660, Note_on_c, 4, 76, 76
6, 30689, Note_on_c, 4, 76, 0
6, 30690, Note_on_c, 4, 78, 76
6, 30719, Note_on_c, 4, 78, 0
6, 30720, Note_on_c, 4, 76, 76
6, 30749, Note_on_c, 4, 76, 0
6, 30750, Note_on_c, 4, 78, 76
6, 30779, Note_on_c, 4, 78, 0
6, 30780, Note_on_c, 4, 76, 76
6, 30809, Note_on_c, 4, 76, 0
6, 30810, Note_on_c, 4, 78, 76
6, 30839, Note_on_c, 4, 78, 0
6, 30840, Note_on_c, 4, 74, 76
6, 30899, Note_on_c, 4, 74, 0
6, 30900, Note_on_c, 4, 76, 76
6, 30951, Note_on_c, 4, 76, 0
6, 30960, Note_on_c, 4, 78, 76
6, 31064, Note_on_c, 4, 78, 0
6, 31080, Note_on_c, 4, 76, 76
6, 31184, Note_on_c, 4, 76, 0
6, 31200, Note_on_c, 4, 74, 76
6, 31304, Note_on_c, 4, 74, 0
6, 31320, Note_on_c, 4, 76, 76
6, 31424, Note_on_c, 4, 76, 0
6, 31440, Note_on_c, 4, 78, 76
6, 31544, Note_on_c, 4, 78, 0
6, 31560, Note_on_c, 4, 79, 76
6, 31664, Note_on_c, 4, 79, 0
6, 31680, Note_on_c, 4, 81, 76
6, 31904, Note_on_c, 4, 81, 0
6, 31920, Note_on_c, 4, 78, 76
6, 31949, Note_on_c, 4, 78, 0
6, 31950, Note_on_c, 4, 79, 76
6, 31979, Note_on_c, 4, 79, 0
6, 31980, Note_on_c, 4, 78, 76
6, 32009, Note_on_c, 4, 78, 0
6, 32010, Note_on_c, 4, 79, 76
6, 32039, Note_on_c, 4, 79, 0
6, 32040, Note_on_c, 4, 78, 76
6, 32069, Note_on_c, 4, 78, 0
6, 32070, Note_on_c, 4, 79, 76
6, 32099, Note_on_c, 4, 79, 0
6, 32100, Note_on_c, 4, 78, 76
6, 32129, Note_on_c, 4, 78, 0
6, 32130, Note_on_c, 4, 79, 76
6, 32159, Note_on_c, 4, 79, 0
6, 32160, Note_on_c, 4, 78, 76
6, 32189, Note_on_c, 4, 78, 0
6, 32190, Note_on_c, 4, 79, 76
6, 32219, Note_on_c, 4, 79, 0
6, 32220, Note_on_c, 4, 78, 76
6, 32249, Note_on_c, 4, 78, 0
6, 32250, Note_on_c, 4, 79, 76
6, 32279, Note_on_c, 4, 79, 0
6, 32280, Note_on_c, 4, 76, 76
6, 32339, Note_on_c, 4, 76, 0
6, 32340, Note_on_c, 4, 78, 76
6, 32391, Note_on_c, 4, 78, 0
6, 32400, Note_on_c, 4, 79, 76
6, 32624, Note_on_c, 4, 79, 0
6, 32640, Note_on_c, 4, 75, 76
6, 32864, Note_on_c, 4, 75, 0
6, 32880, Note_on_c, 4, 76, 76
6, 33119, Note_on_c, 4, 76, 0
6, 33240, Note_on_c, 4, 78, 76
6, 33344, Note_on_c, 4, 78, 0
6, 33360, Note_on_c, 4, 78, 76
6, 33704, Note_on_c, 4, 78, 0
6, 33720, Note_on_c, 4, 76, 76
6, 33824, Note_on_c, 4, 76, 0
6, 33840, Note_on_c, 4, 76, 76
6, 34544, Note_on_c, 4, 76, 0
6, 34560, Note_on_c, 4, 79, 76
6, 34664, Note_on_c, 4, 79, 0
6, 34680, Note_on_c, 4, 81, 76
6, 34784, Note_on_c, 4, 81, 0
6, 34800, Note_on_c, 4, 83, 76
6, 35024, Note_on_c, 4, 83, 0
6, 35040, Note_on_c, 4, 74, 76
6, 35264, Note_on_c, 4, 74, 0
6, 35280, Note_on_c, 4, 73, 76
6, 35504, Note_on_c, 4, 73, 0
6, 35520, Note_on_c, 4, 81, 76
6, 35984, Note_on_c, 4, 81, 0
6, 36000, Note_on_c, 4, 78, 76
6, 36104, Note_on_c, 4, 78, 0
6, 36120, Note_on_c, 4, 79, 76
6, 36224, Note_on_c, 4, 79, 0
6, 36240, Note_on_c, 4, 81, 76
6, 36464, Note_on_c, 4, 81, 0
6, 36480, Note_on_c, 4, 72, 76
6, 36704, Note_on_c, 4, 72, 0
6, 36720, Note_on_c, 4, 71, 76
6, 36944, Note_on_c, 4, 71, 0
6, 36960, Note_on_c, 4, 79, 76
6, 37424, Note_on_c, 4, 79, 0
6, 37440, Note_on_c, 4, 73, 76
6, 37544, Note_on_c, 4, 73, 0
6, 37560, Note_on_c, 4, 74, 76
6, 37664, Note_on_c, 4, 74, 0
6, 37680, Note_on_c, 4, 76, 76
6, 37904, Note_on_c, 4, 76, 0
6, 37920, Note_on_c, 4, 69, 76
6, 38144, Note_on_c, 4, 69, 0
6, 38160, Note_on_c, 4, 74, 76
6, 38264, Note_on_c, 4, 74, 0
6, 38280, Note_on_c, 4, 76, 76
6, 38384, Note_on_c, 4, 76, 0
6, 38400, Note_on_c, 4, 78, 76
6, 38504, Note_on_c, 4, 78, 0
6, 38520, Note_on_c, 4, 79, 76
6, 38624, Note_on_c, 4, 79, 0
6, 38640, Note_on_c, 4, 81, 76
6, 38744, Note_on_c, 4, 81, 0
6, 38760, Note_on_c, 4, 72, 76
6, 38864, Note_on_c, 4, 72, 0
6, 38880, Note_on_c, 4, 71, 76
6, 39104, Note_on_c, 4, 71, 0
6, 39120, Note_on_c, 4, 73, 76
6, 39344, Note_on_c, 4, 73, 0
6, 39360, Note_on_c, 4, 74, 76
6, 39584, Note_on_c, 4, 74, 0
6, 39600, Note_on_c, 4, 76, 76
6, 39824, Note_on_c, 4, 76, 0
6, 39840, Note_on_c, 4, 74, 76
6, 39944, Note_on_c, 4, 74, 0
6, 39960, Note_on_c, 4, 73, 76
6, 40064, Note_on_c, 4, 73, 0
6, 40080, Note_on_c, 4, 71, 76
6, 40184, Note_on_c, 4, 71, 0
6, 40200, Note_on_c, 4, 69, 76
6, 40304, Note_on_c, 4, 69, 0
6, 40320, Note_on_c, 4, 74, 76
6, 40424, Note_on_c, 4, 74, 0
6, 40440, Note_on_c, 4, 73, 76
6, 40544, Note_on_c, 4, 73, 0
6, 40560, Note_on_c, 4, 74, 76
6, 40784, Note_on_c, 4, 74, 0
6, 40800, Note_on_c, 4, 69, 76
6, 41024, Note_on_c, 4, 69, 0
6, 41040, Note_on_c, 4, 66, 76
6, 41264, Note_on_c, 4, 66, 0
6, 41280, Note_on_c, 4, 72, 76
6, 41744, Note_on_c, 4, 72, 0
6, 41760, Note_on_c, 4, 71, 76
6, 41984, Note_on_c, 4, 71, 0
6, 42000, Note_on_c, 4, 73, 76
6, 42104, Note_on_c, 4, 73, 0
6, 42120, Note_on_c, 4, 74, 76
6, 42224, Note_on_c, 4, 74, 0
6, 42240, Note_on_c, 4, 76, 76
6, 42344, Note_on_c, 4, 76, 0
6, 42360, Note_on_c, 4, 78, 76
6, 42464, Note_on_c, 4, 78, 0
6, 42480, Note_on_c, 4, 79, 76
6, 42704, Note_on_c, 4, 79, 0
6, 42720, Note_on_c, 4, 69, 76
6, 43184, Note_on_c, 4, 69, 0
6, 43200, Note_on_c, 4, 78, 76
6, 43304, Note_on_c, 4, 78, 0
6, 43320, Note_on_c, 4, 79, 76
6, 43424, Note_on_c, 4, 79, 0
6, 43440, Note_on_c, 4, 79, 76
6, 43469, Note_on_c, 4, 79, 0
6, 43470, Note_on_c, 4, 81, 76
6, 43499, Note_on_c, 4, 81, 0
6, 43500, Note_on_c, 4, 79, 76
6, 43529, Note_on_c, 4, 79, 0
6, 43530, Note_on_c, 4, 81, 76
6, 43559, Note_on_c, 4, 81, 0
6, 43560, Note_on_c, 4, 79, 76
6, 43589, Note_on_c, 4, 79, 0
6, 43590, Note_on_c, 4, 81, 76
6, 43619, Note_on_c, 4, 81, 0
6, 43620, Note_on_c, 4, 79, 76
6, 43649, Note_on_c, 4, 79, 0
6, 43650, Note_on_c, 4, 81, 76
6, 43679, Note_on_c, 4, 81, 0
6, 43680, Note_on_c, 4, 79, 76
6, 43709, Note_on_c, 4, 79, 0
6, 43710, Note_on_c, 4, 81, 76
6, 43739, Note_on_c, 4, 81, 0
6, 43740, Note_on_c, 4, 79, 76
6, 43769, Note_on_c, 4, 79, 0
6, 43770, Note_on_c, 4, 81, 76
6, 43799, Note_on_c, 4, 81, 0
6, 43800, Note_on_c, 4, 78, 76
6, 43859, Note_on_c, 4, 78, 0
6, 43860, Note_on_c, 4, 79, 76
6, 43911, Note_on_c, 4, 79, 0
6, 43920, Note_on_c, 4, 81, 76
6, 44024, Note_on_c, 4, 81, 0
6, 44040, Note_on_c, 4, 79, 76
6, 44144, Note_on_c, 4, 79, 0
6, 44160, Note_on_c, 4, 78, 76
6, 44264, Note_on_c, 4, 78, 0
6, 44280, Note_on_c, 4, 76, 76
6, 44384, Note_on_c, 4, 76, 0
6, 44400, Note_on_c, 4, 74, 76
6, 44504, Note_on_c, 4, 74, 0
6, 44520, Note_on_c, 4, 73, 76
6, 44624, Note_on_c, 4, 73, 0
6, 44640, Note_on_c, 4, 71, 76
6, 44864, Note_on_c, 4, 71, 0
6, 44880, Note_on_c, 4, 76, 76
6, 45104, Note_on_c, 4, 76, 0
6, 45120, Note_on_c, 4, 73, 76
6, 45344, Note_on_c, 4, 73, 0
6, 45360, Note_on_c, 4, 74, 76
6, 46079, Note_on_c, 4, 74, 0
6, 81120, Note_on_c, 4, 78, 76
6, 81224, Note_on_c, 4, 78, 0
6, 81240, Note_on_c, 4, 79, 76
6, 81344, Note_on_c, 4, 79, 0
6, 81360, Note_on_c, 4, 79, 76
6, 81389, Note_on_c, 4, 79, 0
6, 81390, Note_on_c, 4, 81, 76
6, 81419, Note_on_c, 4, 81, 0
6, 81420, Note_on_c, 4, 79, 76
6, 81449, Note_on_c, 4, 79, 0
6, 81450, Note_on_c, 4, 81, 76
6, 81479, Note_on_c, 4, 81, 0
6, 81480, Note_on_c, 4, 79, 76
6, 81509, Note_on_c, 4, 79, 0
6, 81510, Note_on_c, 4, 81, 76
6, 81539, Note_on_c, 4, 81, 0
6, 81540, Note_on_c, 4, 79, 76
6, 81569, Note_on_c, 4, 79, 0
6, 81570, Note_on_c, 4, 81, 76
6, 81599, Note_on_c, 4, 81, 0
6, 81600, Note_on_c, 4, 79, 76
6, 81629, Note_on_c, 4, 79, 0
6, 81630, Note_on_c, 4, 81, 76
6, 81659, Note_on_c, 4, 81, 0
6, 81660, Note_on_c, 4, 79, 76
6, 81689, Note_on_c, 4, 79, 0
6, 81690, Note_on_c, 4, 81, 76
6, 81719, Note_on_c, 4, 81, 0
6, 81720, Note_on_c, 4, 78, 76
6, 81779, Note_on_c, 4, 78, 0
6, 81780, Note_on_c, 4, 79, 76
6, 81831, Note_on_c, 4, 79, 0
6, 81840, Note_on_c, 4, 81, 76
6, 81944, Note_on_c, 4, 81, 0
6, 81960, Note_on_c, 4, 79, 76
6, 82064, Note_on_c, 4, 79, 0
6, 82080, Note_on_c, 4, 78, 76
6, 82184, Note_on_c, 4, 78, 0
6, 82200, Note_on_c, 4, 76, 76
6, 82304, Note_on_c, 4, 76, 0
6, 82320, Note_on_c, 4, 74, 76
6, 82424, Note_on_c, 4, 74, 0
6, 82440, Note_on_c, 4, 73, 76
6, 82544, Note_on_c, 4, 73, 0
6, 82560, Note_on_c, 4, 71, 76
6, 82784, Note_on_c, 4, 71, 0
6, 82800, Note_on_c, 4, 76, 76
6, 83024, Note_on_c, 4, 76, 0
6, 83040, Note_on_c, 4, 73, 76
6, 83264, Note_on_c, 4, 73, 0
6, 83280, Note_on_c, 4, 74, 76
6, 83384, Note_on_c, 4, 74, 0
6, 83400, Note_on_c, 4, 73, 76
6, 83504, Note_on_c, 4, 73, 0
6, 83520, Note_on_c, 4, 74, 76
6, 83624, Note_on_c, 4, 74, 0
6, 83640, Note_on_c, 4, 76, 76
6, 83744, Note_on_c, 4, 76, 0
6, 83760, Note_on_c, 4, 78, 76
6, 83864, Note_on_c, 4, 78, 0
6, 83880, Note_on_c, 4, 74, 76
6, 83984, Note_on_c, 4, 74, 0
6, 84000, Note_on_c, 4, 76, 76
6, 84104, Note_on_c, 4, 76, 0
6, 84120, Note_on_c, 4, 78, 76
6, 84224, Note_on_c, 4, 78, 0
6, 84240, Note_on_c, 4, 78, 76
6, 84269, Note_on_c, 4, 78, 0
6, 84270, Note_on_c, 4, 79, 76
6, 84299, Note_on_c, 4, 79, 0
6, 84300, Note_on_c, 4, 78, 76
6, 84329, Note_on_c, 4, 78, 0
6, 84330, Note_on_c, 4, 79, 76
6, 84359, Note_on_c, 4, 79, 0
6, 84360, Note_on_c, 4, 78, 76
6, 84389, Note_on_c, 4, 78, 0
6, 84390, Note_on_c, 4, 79, 76
6, 84419, Note_on_c, 4, 79, 0
6, 84420, Note_on_c, 4, 78, 76
6, 84449, Note_on_c, 4, 78, 0
6, 84450, Note_on_c, 4, 79, 76
6, 84479, Note_on_c, 4, 79, 0
6, 84480, Note_on_c, 4, 78, 76
6, 84509, Note_on_c, 4, 78, 0
6, 84510, Note_on_c, 4, 79, 76
6, 84539, Note_on_c, 4, 79, 0
6, 84540, Note_on_c, 4, 78, 76
6, 84569, Note_on_c, 4, 78, 0
6, 84570, Note_on_c, 4, 79, 76
6, 84599, Note_on_c, 4, 79, 0
6, 84600, Note_on_c, 4, 76, 76
6, 84659, Note_on_c, 4, 76, 0
6, 84660, Note_on_c, 4, 78, 76
6, 84711, Note_on_c, 4, 78, 0
6, 84720, Note_on_c, 4, 79, 76
6, 84824, Note_on_c, 4, 79, 0
6, 84840, Note_on_c, 4, 78, 76
6, 84944, Note_on_c, 4, 78, 0
6, 84960, Note_on_c, 4, 76, 76
6, 85064, Note_on_c, 4, 76, 0
6, 85080, Note_on_c, 4, 78, 76
6, 85184, Note_on_c, 4, 78, 0
6, 85200, Note_on_c, 4, 79, 76
6, 85304, Note_on_c, 4, 79, 0
6, 85320, Note_on_c, 4, 76, 76
6, 85424, Note_on_c, 4, 76, 0
6, 85440, Note_on_c, 4, 78, 76
6, 85544, Note_on_c, 4, 78, 0
6, 85560, Note_on_c, 4, 80, 76
6, 85664, Note_on_c, 4, 80, 0
6, 85680, Note_on_c, 4, 80, 76
6, 85709, Note_on_c, 4, 80, 0
6, 85710, Note_on_c, 4, 81, 76
6, 85739, Note_on_c, 4, 81, 0
6, 85740, Note_on_c, 4, 80, 76
6, 85769, Note_on_c, 4, 80, 0
6, 85770, Note_on_c, 4, 81, 76
6, 85799, Note_on_c, 4, 81, 0
6, 85800, Note_on_c, 4, 80, 76
6, 85829, Note_on_c, 4, 80, 0
6, 85830, Note_on_c, 4, 81, 76
6, 85859, Note_on_c, 4, 81, 0
6, 85860, Note_on_c, 4, 80, 76
6, 85889, Note_on_c, 4, 80, 0
6, 85890, Note_on_c, 4, 81, 76
6, 85919, Note_on_c, 4, 81, 0
6, 85920, Note_on_c, 4, 80, 76
6, 85949, Note_on_c, 4, 80, 0
6, 85950, Note_on_c, 4, 81, 76
6, 85979, Note_on_c, 4, 81, 0
6, 85980, Note_on_c, 4, 80, 76
6, 86009, Note_on_c, 4, 80, 0
6, 86010, Note_on_c, 4, 81, 76
6, 86039, Note_on_c, 4, 81, 0
6, 86040, Note_on_c, 4, 78, 76
6, 86099, Note_on_c, 4, 78, 0
6, 86100, Note_on_c, 4, 80, 76
6, 86151, Note_on_c, 4, 80, 0
6, 86160, Note_on_c, 4, 81, 76
6, 86864, Note_on_c, 4, 81, 0
6, 86880, Note_on_c, 4, 78, 76
6, 86984, Note_on_c, 4, 78, 0
6, 87000, Note_on_c, 4, 79, 76
6, 87104, Note_on_c, 4, 79, 0
6, 87120, Note_on_c, 4, 79, 76
6, 87149, Note_on_c, 4, 79, 0
6, 87150, Note_on_c, 4, 81, 76
6, 87179, Note_on_c, 4, 81, 0
6, 87180, Note_on_c, 4, 79, 76
6, 87209, Note_on_c, 4, 79, 0
6, 87210, Note_on_c, 4, 81, 76
6, 87239, Note_on_c, 4, 81, 0
6, 87240, Note_on_c, 4, 79, 76
6, 87269, Note_on_c, 4, 79, 0
6, 87270, Note_on_c, 4, 81, 76
6, 87299, Note_on_c, 4, 81, 0
6, 87300, Note_on_c, 4, 79, 76
6, 87329, Note_on_c, 4, 79, 0
6, 87330, Note_on_c, 4, 81, 76
6, 87359, Note_on_c, 4, 81, 0
6, 87360, Note_on_c, 4, 79, 76
6, 87389, Note_on_c, 4, 79, 0
6, 87390, Note_on_c, 4, 81, 76
6, 87419, Note_on_c, 4, 81, 0
6, 87420, Note_on_c, 4, 79, 76
6, 87449, Note_on_c, 4, 79, 0
6, 87450, Note_on_c, 4, 81, 76
6, 87479, Note_on_c, 4, 81, 0
6, 87480, Note_on_c, 4, 78, 76
6, 87539, Note_on_c, 4, 78, 0
6, 87540, Note_on_c, 4, 79, 76
6, 87591, Note_on_c, 4, 79, 0
6, 87600, Note_on_c, 4, 81, 76
6, 87704, Note_on_c, 4, 81, 0
6, 87720, Note_on_c, 4, 79, 76
6, 87824, Note_on_c, 4, 79, 0
6, 87840, Note_on_c, 4, 78, 76
6, 87944, Note_on_c, 4, 78, 0
6, 87960, Note_on_c, 4, 76, 76
6, 88064, Note_on_c, 4, 76, 0
6, 88080, Note_on_c, 4, 74, 76
6, 88184, Note_on_c, 4, 74, 0
6, 88200, Note_on_c, 4, 73, 76
6, 88304, Note_on_c, 4, 73, 0
6, 88320, Note_on_c, 4, 71, 76
6, 88544, Note_on_c, 4, 71, 0
6, 88560, Note_on_c, 4, 76, 76
6, 88784, Note_on_c, 4, 76, 0
6, 88800, Note_on_c, 4, 73, 76
6, 89024, Note_on_c, 4, 73, 0
6, 89040, Note_on_c, 4, 74, 76
6, 89144, Note_on_c, 4, 74, 0
6, 89160, Note_on_c, 4, 73, 76
6, 89264, Note_on_c, 4, 73, 0
6, 89280, Note_on_c, 4, 74, 76
6, 89384, Note_on_c, 4, 74, 0
6, 89400, Note_on_c, 4, 76, 76
6, 89504, Note_on_c, 4, 76, 0
6, 89520, Note_on_c, 4, 78, 76
6, 89624, Note_on_c, 4, 78, 0
6, 89640, Note_on_c, 4, 74, 76
6, 89744, Note_on_c, 4, 74, 0
6, 89760, Note_on_c, 4, 76, 76
6, 89864, Note_on_c, 4, 76, 0
6, 89880, Note_on_c, 4, 78, 76
6, 89984, Note_on_c, 4, 78, 0
6, 90000, Note_on_c, 4, 78, 76
6, 90029, Note_on_c, 4, 78, 0
6, 90030, Note_on_c, 4, 79, 76
6, 90059, Note_on_c, 4, 79, 0
6, 90060, Note_on_c, 4, 78, 76
6, 90089, Note_on_c, 4, 78, 0
6, 90090, Note_on_c, 4, 79, 76
6, 90119, Note_on_c, 4, 79, 0
6, 90120, Note_on_c, 4, 78, 76
6, 90149, Note_on_c, 4, 78, 0
6, 90150, Note_on_c, 4, 79, 76
6, 90179, Note_on_c, 4, 79, 0
6, 90180, Note_on_c, 4, 78, 76
6, 90209, Note_on_c, 4, 78, 0
6, 90210, Note_on_c, 4, 79, 76
6, 90239, Note_on_c, 4, 79, 0
6, 90240, Note_on_c, 4, 78, 76
6, 90269, Note_on_c, 4, 78, 0
6, 90270, Note_on_c, 4, 79, 76
6, 90299, Note_on_c, 4, 79, 0
6, 90300, Note_on_c, 4, 78, 76
6, 90329, Note_on_c, 4, 78, 0
6, 90330, Note_on_c, 4, 79, 76
6, 90359, Note_on_c, 4, 79, 0
6, 90360, Note_on_c, 4, 76, 76
6, 90419, Note_on_c, 4, 76, 0
6, 90420, Note_on_c, 4, 78, 76
6, 90471, Note_on_c, 4, 78, 0
6, 90480, Note_on_c, 4, 79, 76
6, 90584, Note_on_c, 4, 79, 0
6, 90600, Note_on_c, 4, 78, 76
6, 90704, Note_on_c, 4, 78, 0
6, 90720, Note_on_c, 4, 76, 76
6, 90824, Note_on_c, 4, 76, 0
6, 90840, Note_on_c, 4, 78, 76
6, 90944, Note_on_c, 4, 78, 0
6, 90960, Note_on_c, 4, 79, 76
6, 91064, Note_on_c, 4, 79, 0
6, 91080, Note_on_c, 4, 76, 76
6, 91184, Note_on_c, 4, 76, 0
6, 91200, Note_on_c, 4, 78, 76
6, 91304, Note_on_c, 4, 78, 0
6, 91320, Note_on_c, 4, 80, 76
6, 91424, Note_on_c, 4, 80, 0
6, 91440, Note_on_c, 4, 80, 76
6, 91469, Note_on_c, 4, 80, 0
6, 91470, Note_on_c, 4, 81, 76
6, 91499, Note_on_c, 4, 81, 0
6, 91500, Note_on_c, 4, 80, 76
6, 91529, Note_on_c, 4, 80, 0
6, 91530, Note_on_c, 4, 81, 76
6, 91559, Note_on_c, 4, 81, 0
6, 91560, Note_on_c, 4, 80, 76
6, 91589, Note_on_c, 4, 80, 0
6, 91590, Note_on_c, 4, 81, 76
6, 91619, Note_on_c, 4, 81, 0
6, 91620, Note_on_c, 4, 80, 76
6, 91649, Note_on_c, 4, 80, 0
6, 91650, Note_on_c, 4, 81, 76
6, 91679, Note_on_c, 4, 81, 0
6, 91680, Note_on_c, 4, 80, 76
6, 91709, Note_on_c, 4, 80, 0
6, 91710, Note_on_c, 4, 81, 76
6, 91739, Note_on_c, 4, 81, 0
6, 91740, Note_on_c, 4, 80, 76
6, 91769, Note_on_c, 4, 80, 0
6, 91770, Note_on_c, 4, 81, 76
6, 91799, Note_on_c, 4, 81, 0
6, 91800, Note_on_c, 4, 78, 76
6, 91859, Note_on_c, 4, 78, 0
6, 91860, Note_on_c, 4, 80, 76
6, 91911, Note_on_c, 4, 80, 0
6, 91920, Note_on_c, 4, 81, 76
6, 92624, Note_on_c, 4, 81, 0
6, 92640, Note_on_c, 4, 76, 76
6, 92864, Note_on_c, 4, 76, 0
6, 92880, Note_on_c, 4, 74, 76
6, 92984, Note_on_c, 4, 74, 0
6, 93000, Note_on_c, 4, 73, 76
6, 93104, Note_on_c, 4, 73, 0
6, 93120, Note_on_c, 4, 74, 76
6, 93224, Note_on_c, 4, 74, 0
6, 93240, Note_on_c, 4, 71, 76
6, 93344, Note_on_c, 4, 71, 0
6, 93360, Note_on_c, 4, 73, 76
6, 93464, Note_on_c, 4, 73, 0
6, 93480, Note_on_c, 4, 74, 76
6, 93584, Note_on_c, 4, 74, 0
6, 93600, Note_on_c, 4, 76, 76
6, 93824, Note_on_c, 4, 76, 0
6, 93840, Note_on_c, 4, 69, 76
6, 94064, Note_on_c, 4, 69, 0
6, 94080, Note_on_c, 4, 74, 76
6, 94184, Note_on_c, 4, 74, 0
6, 94200, Note_on_c, 4, 76, 76
6, 94304, Note_on_c, 4, 76, 0
6, 94320, Note_on_c, 4, 76, 76
6, 94349, Note_on_c, 4, 76, 0
6, 94350, Note_on_c, 4, 78, 76
6, 94379, Note_on_c, 4, 78, 0
6, 94380, Note_on_c, 4, 76, 76
6, 94409, Note_on_c, 4, 76, 0
6, 94410, Note_on_c, 4, 78, 76
6, 94439, Note_on_c, 4, 78, 0
6, 94440, Note_on_c, 4, 76, 76
6, 94469, Note_on_c, 4, 76, 0
6, 94470, Note_on_c, 4, 78, 76
6, 94499, Note_on_c, 4, 78, 0
6, 94500, Note_on_c, 4, 76, 76
6, 94529, Note_on_c, 4, 76, 0
6, 94530, Note_on_c, 4, 78, 76
6, 94559, Note_on_c, 4, 78, 0
6, 94560, Note_on_c, 4, 76, 76
6, 94589, Note_on_c, 4, 76, 0
6, 94590, Note_on_c, 4, 78, 76
6, 94619, Note_on_c, 4, 78, 0
6, 94620, Note_on_c, 4, 76, 76
6, 94649, Note_on_c, 4, 76, 0
6, 94650, Note_on_c, 4, 78, 76
6, 94679, Note_on_c, 4, 78, 0
6, 94680, Note_on_c, 4, 74, 76
6, 94739, Note_on_c, 4, 74, 0
6, 94740, Note_on_c, 4, 76, 76
6, 94791, Note_on_c, 4, 76, 0
6, 94800, Note_on_c, 4, 78, 76
6, 94904, Note_on_c, 4, 78, 0
6, 94920, Note_on_c, 4, 76, 76
6, 95024, Note_on_c, 4, 76, 0
6, 95040, Note_on_c, 4, 74, 76
6, 95144, Note_on_c, 4, 74, 0
6, 95160, Note_on_c, 4, 76, 76
6, 95264, Note_on_c, 4, 76, 0
6, 95280, Note_on_c, 4, 78, 76
6, 95384, Note_on_c, 4, 78, 0
6, 95400, Note_on_c, 4, 79, 76
6, 95504, Note_on_c, 4, 79, 0
6, 95520, Note_on_c, 4, 81, 76
6, 95744, Note_on_c, 4, 81, 0
6, 95760, Note_on_c, 4, 78, 76
6, 95789, Note_on_c, 4, 78, 0
6, 95790, Note_on_c, 4, 79, 76
6, 95819, Note_on_c, 4, 79, 0
6, 95820, Note_on_c, 4, 78, 76
6, 95849, Note_on_c, 4, 78, 0
6, 95850, Note_on_c, 4, 79, 76
6, 95879, Note_on_c, 4, 79, 0
6, 95880, Note_on_c, 4, 78, 76
6, 95909, Note_on_c, 4, 78, 0
6, 95910, Note_on_c, 4, 79, 76
6, 95939, Note_on_c, 4, 79, 0
6, 95940, Note_on_c, 4, 78, 76
6, 95969, Note_on_c, 4, 78, 0
6, 95970, Note_on_c, 4, 79, 76
6, 95999, Note_on_c, 4, 79, 0
6, 96000, Note_on_c, 4, 78, 76
6, 96029, Note_on_c, 4, 78, 0
6, 96030, Note_on_c, 4, 79, 76
6, 96059, Note_on_c, 4, 79, 0
6, 96060, Note_on_c, 4, 78, 76
6, 96089, Note_on_c, 4, 78, 0
6, 96090, Note_on_c, 4, 79, 76
6, 96119, Note_on_c, 4, 79, 0
6, 96120, Note_on_c, 4, 76, 76
6, 96179, Note_on_c, 4, 76, 0
6, 96180, Note_on_c, 4, 78, 76
6, 96231, Note_on_c, 4, 78, 0
6, 96240, Note_on_c, 4, 79, 76
6, 96464, Note_on_c, 4, 79, 0
6, 96480, Note_on_c, 4, 75, 76
6, 96704, Note_on_c, 4, 75, 0
6, 96720, Note_on_c, 4, 76, 76
6, 96959, Note_on_c, 4, 76, 0
6, 97080, Note_on_c, 4, 78, 76
6, 97184, Note_on_c, 4, 78, 0
6, 97200, Note_on_c, 4, 78, 76
6, 97544, Note_on_c, 4, 78, 0
6, 97560, Note_on_c, 4, 76, 76
6, 97664, Note_on_c, 4, 76, 0
6, 97680, Note_on_c, 4, 76, 76
6, 98384, Note_on_c, 4, 76, 0
6, 98400, Note_on_c, 4, 79, 76
6, 98504, Note_on_c, 4, 79, 0
6, 98520, Note_on_c, 4, 81, 76
6, 98624, Note_on_c, 4, 81, 0
6, 98640, Note_on_c, 4, 83, 76
6, 98864, Note_on_c, 4, 83, 0
6, 98880, Note_on_c, 4, 74, 76
6, 99104, Note_on_c, 4, 74, 0
6, 99120, Note_on_c, 4, 73, 76
6, 99344, Note_on_c, 4, 73, 0
6, 99360, Note_on_c, 4, 81, 76
6, 99824, Note_on_c, 4, 81, 0
6, 99840, Note_on_c, 4, 78, 76
6, 99944, Note_on_c, 4, 78, 0
6, 99960, Note_on_c, 4, 79, 76
6, 100064, Note_on_c, 4, 79, 0
6, 100080, Note_on_c, 4, 81, 76
6, 100304, Note_on_c, 4, 81, 0
6, 100320, Note_on_c, 4, 72, 76
6, 100544, Note_on_c, 4, 72, 0
6, 100560, Note_on_c, 4, 71, 76
6, 100784, Note_on_c, 4, 71, 0
6, 100800, Note_on_c, 4, 79, 76
6, 101264, Note_on_c, 4, 79, 0
6, 101280, Note_on_c, 4, 73, 76
6, 101384, Note_on_c, 4, 73, 0
6, 101400, Note_on_c, 4, 74, 76
6, 101504, Note_on_c, 4, 74, 0
6, 101520, Note_on_c, 4, 76, 76
6, 101744, Note_on_c, 4, 76, 0
6, 101760, Note_on_c, 4, 69, 76
6, 101984, Note_on_c, 4, 69, 0
6, 102000, Note_on_c, 4, 74, 76
6, 102104, Note_on_c, 4, 74, 0
6, 102120, Note_on_c, 4, 76, 76
6, 102224, Note_on_c, 4, 76, 0
6, 102240, Note_on_c, 4, 78, 76
6, 102344, Note_on_c, 4, 78, 0
6, 102360, Note_on_c, 4, 79, 76
6, 102464, Note_on_c, 4, 79, 0
6, 102480, Note_on_c, 4, 81, 76
6, 102584, Note_on_c, 4, 81, 0
6, 102600, Note_on_c, 4, 72, 76
6, 102704, Note_on_c, 4, 72, 0
6, 102720, Note_on_c, 4, 71, 76
6, 102944, Note_on_c, 4, 71, 0
6, 102960, Note_on_c, 4, 73, 76
6, 103184, Note_on_c, 4, 73, 0
6, 103200, Note_on_c, 4, 74, 76
6, 103424, Note_on_c, 4, 74, 0
6, 103440, Note_on_c, 4, 76, 76
6, 103664, Note_on_c, 4, 76, 0
6, 103680, Note_on_c, 4, 74, 76
6, 103784, Note_on_c, 4, 74, 0
6, 103800, Note_on_c, 4, 73, 76
6, 103904, Note_on_c, 4, 73, 0
6, 103920, Note_on_c, 4, 71, 76
6, 104024, Note_on_c, 4, 71, 0
6, 104040, Note_on_c, 4, 69, 76
6, 104144, Note_on_c, 4, 69, 0
6, 104160, Note_on_c, 4, 74, 76
6, 104264, Note_on_c, 4, 74, 0
6, 104280, Note_on_c, 4, 73, 76
6, 104384, Note_on_c, 4, 73, 0
6, 104400, Note_on_c, 4, 74, 76
6, 104624, Note_on_c, 4, 74, 0
6, 104640, Note_on_c, 4, 69, 76
6, 104864, Note_on_c, 4, 69, 0
6, 104880, Note_on_c, 4, 66, 76
6, 105104, Note_on_c, 4, 66, 0
6, 105120, Note_on_c, 4, 72, 76
6, 105584, Note_on_c, 4, 72, 0
6, 105600, Note_on_c, 4, 71, 76
6, 105824, Note_on_c, 4, 71, 0
6, 105840, Note_on_c, 4, 73, 76
6, 105944, Note_on_c, 4, 73, 0
6, 105960, Note_on_c, 4, 74, 76
6, 106064, Note_on_c, 4, 74, 0
6, 106080, Note_on_c, 4, 76, 76
6, 106184, Note_on_c, 4, 76, 0
6, 106200, Note_on_c, 4, 78, 76
6, 106304, Note_on_c, 4, 78, 0
6, 106320, Note_on_c, 4, 79, 76
6, 106544, Note_on_c, 4, 79, 0
6, 106560, Note_on_c, 4, 69, 76
6, 107024, Note_on_c, 4, 69, 0
6, 107040, Note_on_c, 4, 78, 76
6, 107144, Note_on_c, 4, 78, 0
6, 107160, Note_on_c, 4, 79, 76
6, 107264, Note_on_c, 4, 79, 0
6, 107280, Note_on_c, 4, 79, 76
6, 107309, Note_on_c, 4, 79, 0
6, 107310, Note_on_c, 4, 81, 76
6, 107339, Note_on_c, 4, 81, 0
6, 107340, Note_on_c, 4, 79, 76
6, 107369, Note_on_c, 4, 79, 0
6, 107370, Note_on_c, 4, 81, 76
6, 107399, Note_on_c, 4, 81, 0
6, 107400, Note_on_c, 4, 79, 76
6, 107429, Note_on_c, 4, 79, 0
6, 107430, Note_on_c, 4, 81, 76
6, 107459, Note_on_c, 4, 81, 0
6, 107460, Note_on_c, 4, 79, 76
6, 107489, Note_on_c, 4, 79, 0
6, 107490, Note_on_c, 4, 81, 76
6, 107519, Note_on_c, 4, 81, 0
6, 107520, Note_on_c, 4, 79, 76
6, 107549, Note_on_c, 4, 79, 0
6, 107550, Note_on_c, 4, 81, 76
6, 107579, Note_on_c, 4, 81, 0
6, 107580, Note_on_c, 4, 79, 76
6, 107609, Note_on_c, 4, 79, 0
6, 107610, Note_on_c, 4, 81, 76
6, 107639, Note_on_c, 4, 81, 0
6, 107640, Note_on_c, 4, 78, 76
6, 107699, Note_on_c, 4, 78, 0
6, 107700, Note_on_c, 4, 79, 76
6, 107751, Note_on_c, 4, 79, 0
6, 107760, Note_on_c, 4, 81, 76
6, 107864, Note_on_c, 4, 81, 0
6, 107880, Note_on_c, 4, 79, 76
6, 107984, Note_on_c, 4, 79, 0
6, 108000, Note_on_c, 4, 78, 76
6, 108104, Note_on_c, 4, 78, 0
6, 108120, Note_on_c, 4, 76, 76
6, 108224, Note_on_c, 4, 76, 0
6, 108240, Note_on_c, 4, 74, 76
6, 108344, Note_on_c, 4, 74, 0
6, 108360, Note_on_c, 4, 73, 76
6, 108464, Note_on_c, 4, 73, 0
6, 108480, Note_on_c, 4, 71, 76
6, 108704, Note_on_c, 4, 71, 0
6, 108720, Note_on_c, 4, 76, 76
6, 108944, Note_on_c, 4, 76, 0
6, 108960, Note_on_c, 4, 73, 76
6, 109184, Note_on_c, 4, 73, 0
6, 109200, Note_on_c, 4, 74, 76
6, 109904, Note_on_c, 4, 74, 0
6, 109920, Note_on_c, 4, 76, 76
6, 110144, Note_on_c, 4, 76, 0
6, 110160, Note_on_c, 4, 74, 76
6, 110264, Note_on_c, 4, 74, 0
6, 110280, Note_on_c, 4, 73, 76
6, 110384, Note_on_c, 4, 73, 0
6, 110400, Note_on_c, 4, 74, 76
6, 110504, Note_on_c, 4, 74, 0
6, 110520, Note_on_c, 4, 71, 76
6, 110624, Note_on_c, 4, 71, 0
6, 110640, Note_on_c, 4, 73, 76
6, 110744, Note_on_c, 4, 73, 0
6, 110760, Note_on_c, 4, 74, 76
6, 110864, Note_on_c, 4, 74, 0
6, 110880, Note_on_c, 4, 76, 76
6, 111104, Note_on_c, 4, 76, 0
6, 111120, Note_on_c, 4, 69, 76
6, 111344, Note_on_c, 4, 69, 0
6, 111360, Note_on_c, 4, 74, 76
6, 111464, Note_on_c, 4, 74, 0
6, 111480, Note_on_c, 4, 76, 76
6, 111584, Note_on_c, 4, 76, 0
6, 111600, Note_on_c, 4, 76, 76
6, 111629, Note_on_c, 4, 76, 0
6, 111630, Note_on_c, 4, 78, 76
6, 111659, Note_on_c, 4, 78, 0
6, 111660, Note_on_c, 4, 76, 76
6, 111689, Note_on_c, 4, 76, 0
6, 111690, Note_on_c, 4, 78, 76
6, 111719, Note_on_c, 4, 78, 0
6, 111720, Note_on_c, 4, 76, 76
6, 111749, Note_on_c, 4, 76, 0
6, 111750, Note_on_c, 4, 78, 76
6, 111779, Note_on_c, 4, 78, 0
6, 111780, Note_on_c, 4, 76, 76
6, 111809, Note_on_c, 4, 76, 0
6, 111810, Note_on_c, 4, 78, 76
6, 111839, Note_on_c, 4, 78, 0
6, 111840, Note_on_c, 4, 76, 76
6, 111869, Note_on_c, 4, 76, 0
6, 111870, Note_on_c, 4, 78, 76
6, 111899, Note_on_c, 4, 78, 0
6, 111900, Note_on_c, 4, 76, 76
6, 111929, Note_on_c, 4, 76, 0
6, 111930, Note_on_c, 4, 78, 76
6, 111959, Note_on_c, 4, 78, 0
6, 111960, Note_on_c, 4, 74, 76
6, 112019, Note_on_c, 4, 74, 0
6, 112020, Note_on_c, 4, 76, 76
6, 112071, Note_on_c, 4, 76, 0
6, 112080, Note_on_c, 4, 78, 76
6, 112184, Note_on_c, 4, 78, 0
6, 112200, Note_on_c, 4, 76, 76
6, 112304, Note_on_c, 4, 76, 0
6, 112320, Note_on_c, 4, 74, 76
6, 112424, Note_on_c, 4, 74, 0
6, 112440, Note_on_c, 4, 76, 76
6, 112544, Note_on_c, 4, 76, 0
6, 112560, Note_on_c, 4, 78, 76
6, 112664, Note_on_c, 4, 78, 0
6, 112680, Note_on_c, 4, 79, 76
6, 112784, Note_on_c, 4, 79, 0
6, 112800, Note_on_c, 4, 81, 76
6, 113024, Note_on_c, 4, 81, 0
6, 113040, Note_on_c, 4, 78, 76
6, 113069, Note_on_c, 4, 78, 0
6, 113070, Note_on_c, 4, 79, 76
6, 113099, Note_on_c, 4, 79, 0
6, 113100, Note_on_c, 4, 78, 76
6, 113129, Note_on_c, 4, 78, 0
6, 113130, Note_on_c, 4, 79, 76
6, 113159, Note_on_c, 4, 79, 0
6, 113160, Note_on_c, 4, 78, 76
6, 113189, Note_on_c, 4, 78, 0
6, 113190, Note_on_c, 4, 79, 76
6, 113219, Note_on_c, 4, 79, 0
6, 113220, Note_on_c, 4, 78, 76
6, 113249, Note_on_c, 4, 78, 0
6, 113250, Note_on_c, 4, 79, 76
6, 113279, Note_on_c, 4, 79, 0
6, 113280, Note_on_c, 4, 78, 76
6, 113309, Note_on_c, 4, 78, 0
6, 113310, Note_on_c, 4, 79, 76
6, 113339, Note_on_c, 4, 79, 0
6, 113340, Note_on_c, 4, 78, 76
6, 113369, Note_on_c, 4, 78, 0
6, 113370, Note_on_c, 4, 79, 76
6, 113399, Note_on_c, 4, 79, 0
6, 113400, Note_on_c, 4, 76, 76
6, 113459, Note_on_c, 4, 76, 0
6, 113460, Note_on_c, 4, 78, 76
6, 113511, Note_on_c, 4, 78, 0
6, 113520, Note_on_c, 4, 79, 76
6, 113744, Note_on_c, 4, 79, 0
6, 113760, Note_on_c, 4, 75, 76
6, 113984, Note_on_c, 4, 75, 0
6, 114000, Note_on_c, 4, 76, 76
6, 114239, Note_on_c, 4, 76, 0
6, 114360, Note_on_c, 4, 78, 76
6, 114464, Note_on_c, 4, 78, 0
6, 114480, Note_on_c, 4, 78, 76
6, 114824, Note_on_c, 4, 78, 0
6, 114840, Note_on_c, 4, 76, 76
6, 114944, Note_on_c, 4, 76, 0
6, 114960, Note_on_c, 4, 76, 76
6, 115664, Note_on_c, 4, 76, 0
6, 115680, Note_on_c, 4, 79, 76
6, 115784, Note_on_c, 4, 79, 0
6, 115800, Note_on_c, 4, 81, 76
6, 115904, Note_on_c, 4, 81, 0
6, 115920, Note_on_c, 4, 83, 76
6, 116144, Note_on_c, 4, 83, 0
6, 116160, Note_on_c, 4, 74, 76
6, 116384, Note_on_c, 4, 74, 0
6, 116400, Note_on_c, 4, 73, 76
6, 116624, Note_on_c, 4, 73, 0
6, 116640, Note_on_c, 4, 81, 76
6, 117104, Note_on_c, 4, 81, 0
6, 117120, Note_on_c, 4, 78, 76
6, 117224, Note_on_c, 4, 78, 0
6, 117240, Note_on_c, 4, 79, 76
6, 117344, Note_on_c, 4, 79, 0
6, 117360, Note_on_c, 4, 81, 76
6, 117584, Note_on_c, 4, 81, 0
6, 117600, Note_on_c, 4, 72, 76
6, 117824, Note_on_c, 4, 72, 0
6, 117840, Note_on_c, 4, 71, 76
6, 118064, Note_on_c, 4, 71, 0
6, 118080, Note_on_c, 4, 79, 76
6, 118544, Note_on_c, 4, 79, 0
6, 118560, Note_on_c, 4, 73, 76
6, 118664, Note_on_c, 4, 73, 0
6, 118680, Note_on_c, 4, 74, 76
6, 118784, Note_on_c, 4, 74, 0
6, 118800, Note_on_c, 4, 76, 76
6, 119024, Note_on_c, 4, 76, 0
6, 119040, Note_on_c, 4, 69, 76
6, 119264, Note_on_c, 4, 69, 0
6, 119280, Note_on_c, 4, 74, 76
6, 119384, Note_on_c, 4, 74, 0
6, 119400, Note_on_c, 4, 76, 76
6, 119504, Note_on_c, 4, 76, 0
6, 119520, Note_on_c, 4, 78, 76
6, 119624, Note_on_c, 4, 78, 0
6, 119640, Note_on_c, 4, 79, 76
6, 119744, Note_on_c, 4, 79, 0
6, 119760, Note_on_c, 4, 81, 76
6, 119864, Note_on_c, 4, 81, 0
6, 119880, Note_on_c, 4, 72, 76
6, 119984, Note_on_c, 4, 72, 0
6, 120000, Note_on_c, 4, 71, 76
6, 120224, Note_on_c, 4, 71, 0
6, 120240, Note_on_c, 4, 73, 76
6, 120464, Note_on_c, 4, 73, 0
6, 120480, Note_on_c, 4, 74, 76
6, 120704, Note_on_c, 4, 74, 0
6, 120720, Note_on_c, 4, 76, 76
6, 120944, Note_on_c, 4, 76, 0
6, 120960, Note_on_c, 4, 74, 76
6, 121064, Note_on_c, 4, 74, 0
6, 121080, Note_on_c, 4, 73, 76
6, 121184, Note_on_c, 4, 73, 0
6, 121200, Note_on_c, 4, 71, 76
6, 121304, Note_on_c, 4, 71, 0
6, 121320, Note_on_c, 4, 69, 76
6, 121424, Note_on_c, 4, 69, 0
6, 121440, Note_on_c, 4, 74, 76
6, 121544, Note_on_c, 4, 74, 0
6, 121560, Note_on_c, 4, 73, 76
6, 121664, Note_on_c, 4, 73, 0
6, 121680, Note_on_c, 4, 74, 76
6, 121904, Note_on_c, 4, 74, 0
6, 121920, Note_on_c, 4, 69, 76
6, 122144, Note_on_c, 4, 69, 0
6, 122160, Note_on_c, 4, 66, 76
6, 122384, Note_on_c, 4, 66, 0
6, 122400, Note_on_c, 4, 72, 76
6, 122864, Note_on_c, 4, 72, 0
6, 122880, Note_on_c, 4, 71, 76
6, 123104, Note_on_c, 4, 71, 0
6, 123120, Note_on_c, 4, 73, 76
6, 123224, Note_on_c, 4, 73, 0
6, 123240, Note_on_c, 4, 74, 76
6, 123344, Note_on_c, 4, 74, 0
6, 123360, Note_on_c, 4, 76, 76
6, 123464, Note_on_c, 4, 76, 0
6, 123480, Note_on_c, 4, 78, 76
6, 123584, Note_on_c, 4, 78, 0
6, 123600, Note_on_c, 4, 79, 76
6, 123824, Note_on_c, 4, 79, 0
6, 123840, Note_on_c, 4, 69, 76
6, 124304, Note_on_c, 4, 69, 0
6, 124320, Note_on_c, 4, 78, 76
6, 124424, Note_on_c, 4, 78, 0
6, 124440, Note_on_c, 4, 79, 76
6, 124544, Note_on_c, 4, 79, 0
6, 124560, Note_on_c, 4, 79, 76
6, 124589, Note_on_c, 4, 79, 0
6, 124590, Note_on_c, 4, 81, 76
6, 124619, Note_on_c, 4, 81, 0
6, 124620, Note_on_c, 4, 79, 76
6, 124649, Note_on_c, 4, 79, 0
6, 124650, Note_on_c, 4, 81, 76
6, 124679, Note_on_c, 4, 81, 0
6, 124680, Note_on_c, 4, 79, 76
6, 124709, Note_on_c, 4, 79, 0
6, 124710, Note_on_c, 4, 81, 76
6, 124739, Note_on_c, 4, 81, 0
6, 124740, Note_on_c, 4, 79, 76
6, 124769, Note_on_c, 4, 79, 0
6, 124770, Note_on_c, 4, 81, 76
6, 124799, Note_on_c, 4, 81, 0
6, 124800, Note_on_c, 4, 79, 76
6, 124829, Note_on_c, 4, 79, 0
6, 124830, Note_on_c, 4, 81, 76
6, 124859, Note_on_c, 4, 81, 0
6, 124860, Note_on_c, 4, 79, 76
6, 124889, Note_on_c, 4, 79, 0
6, 124890, Note_on_c, 4, 81, 76
6, 124919, Note_on_c, 4, 81, 0
6, 124920, Note_on_c, 4, 78, 76
6, 124979, Note_on_c, 4, 78, 0
6, 124980, Note_on_c, 4, 79, 76
6, 125031, Note_on_c, 4, 79, 0
6, 125040, Note_on_c, 4, 81, 76
6, 125144, Note_on_c, 4, 81, 0
6, 125160, Note_on_c, 4, 79, 76
6, 125264, Note_on_c, 4, 79, 0
6, 125280, Note_on_c, 4, 78, 76
6, 125384, Note_on_c, 4, 78, 0
6, 125400, Note_on_c, 4, 76, 76
6, 125504, Note_on_c, 4, 76, 0
6, 125520, Note_on_c, 4, 74, 76
6, 125624, Note_on_c, 4, 74, 0
6, 125640, Note_on_c, 4, 73, 76
6, 125744, Note_on_c, 4, 73, 0
6, 125760, Note_on_c, 4, 71, 76
6, 125984, Note_on_c, 4, 71, 0
6, 126000, Note_on_c, 4, 76, 76
6, 126224, Note_on_c, 4, 76, 0
6, 126240, Note_on_c, 4, 73, 76
6, 126464, Note_on_c, 4, 73, 0
6, 126480, Note_on_c, 4, 74, 76
6, 127199, Note_on_c, 4, 74, 0
6, 127199, End_track
7, 0, Start_track
7, 0, Title_t, "Oboe II"
7, 0, MIDI_port, 0
7, 0, Program_c, 5, 68
7, 0, Control_c, 5, 10, 64
7, 0, Control_c, 5, 11, 127
7, 0, Control_c, 5, 7, 80
7, 0, Note_on_c, 5, 74, 76
7, 224, Note_on_c, 5, 74, 0
7, 240, Note_on_c, 5, 74, 76
7, 344, Note_on_c, 5, 74, 0
7, 360, Note_on_c, 5, 73, 76
7, 464, Note_on_c, 5, 73, 0
7, 480, Note_on_c, 5, 74, 76
7, 704, Note_on_c, 5, 74, 0
7, 720, Note_on_c, 5, 74, 76
7, 1424, Note_on_c, 5, 74, 0
7, 1440, Note_on_c, 5, 67, 76
7, 1664, Note_on_c, 5, 67, 0
7, 1680, Note_on_c, 5, 71, 76
7, 1904, Note_on_c, 5, 71, 0
7, 1920, Note_on_c, 5, 69, 76
7, 2144, Note_on_c, 5, 69, 0
7, 2160, Note_on_c, 5, 69, 76
7, 2624, Note_on_c, 5, 69, 0
7, 2640, Note_on_c, 5, 74, 76
7, 2864, Note_on_c, 5, 74, 0
7, 2880, Note_on_c, 5, 69, 76
7, 3104, Note_on_c, 5, 69, 0
7, 3120, Note_on_c, 5, 73, 76
7, 3344, Note_on_c, 5, 73, 0
7, 3360, Note_on_c, 5, 69, 76
7, 3584, Note_on_c, 5, 69, 0
7, 3600, Note_on_c, 5, 74, 76
7, 3824, Note_on_c, 5, 74, 0
7, 3840, Note_on_c, 5, 76, 76
7, 4064, Note_on_c, 5, 76, 0
7, 4080, Note_on_c, 5, 73, 76
7, 4304, Note_on_c, 5, 73, 0
7, 4320, Note_on_c, 5, 74, 76
7, 4424, Note_on_c, 5, 74, 0
7, 4440, Note_on_c, 5, 76, 76
7, 4544, Note_on_c, 5, 76, 0
7, 4560, Note_on_c, 5, 74, 76
7, 4664, Note_on_c, 5, 74, 0
7, 4680, Note_on_c, 5, 73, 76
7, 4784, Note_on_c, 5, 73, 0
7, 4800, Note_on_c, 5, 74, 76
7, 4904, Note_on_c, 5, 74, 0
7, 4920, Note_on_c, 5, 71, 76
7, 5024, Note_on_c, 5, 71, 0
7, 5040, Note_on_c, 5, 73, 76
7, 5744, Note_on_c, 5, 73, 0
7, 5760, Note_on_c, 5, 74, 76
7, 5984, Note_on_c, 5, 74, 0
7, 6000, Note_on_c, 5, 74, 76
7, 6104, Note_on_c, 5, 74, 0
7, 6120, Note_on_c, 5, 73, 76
7, 6224, Note_on_c, 5, 73, 0
7, 6240, Note_on_c, 5, 74, 76
7, 6464, Note_on_c, 5, 74, 0
7, 6480, Note_on_c, 5, 74, 76
7, 7184, Note_on_c, 5, 74, 0
7, 7200, Note_on_c, 5, 67, 76
7, 7424, Note_on_c, 5, 67, 0
7, 7440, Note_on_c, 5, 71, 76
7, 7664, Note_on_c, 5, 71, 0
7, 7680, Note_on_c, 5, 69, 76
7, 7904, Note_on_c, 5, 69, 0
7, 7920, Note_on_c, 5, 69, 76
7, 8384, Note_on_c, 5, 69, 0
7, 8400, Note_on_c, 5, 74, 76
7, 8624, Note_on_c, 5, 74, 0
7, 8640, Note_on_c, 5, 69, 76
7, 8864, Note_on_c, 5, 69, 0
7, 8880, Note_on_c, 5, 73, 76
7, 9104, Note_on_c, 5, 73, 0
7, 9120, Note_on_c, 5, 69, 76
7, 9344, Note_on_c, 5, 69, 0
7, 9360, Note_on_c, 5, 74, 76
7, 9584, Note_on_c, 5, 74, 0
7, 9600, Note_on_c, 5, 76, 76
7, 9824, Note_on_c, 5, 76, 0
7, 9840, Note_on_c, 5, 73, 76
7, 10064, Note_on_c, 5, 73, 0
7, 10080, Note_on_c, 5, 74, 76
7, 10184, Note_on_c, 5, 74, 0
7, 10200, Note_on_c, 5, 76, 76
7, 10304, Note_on_c, 5, 76, 0
7, 10320, Note_on_c, 5, 74, 76
7, 10424, Note_on_c, 5, 74, 0
7, 10440, Note_on_c, 5, 73, 76
7, 10544, Note_on_c, 5, 73, 0
7, 10560, Note_on_c, 5, 74, 76
7, 10664, Note_on_c, 5, 74, 0
7, 10680, Note_on_c, 5, 71, 76
7, 10784, Note_on_c, 5, 71, 0
7, 10800, Note_on_c, 5, 73, 76
7, 11504, Note_on_c, 5, 73, 0
7, 11520, Note_on_c, 5, 73, 76
7, 11744, Note_on_c, 5, 73, 0
7, 11760, Note_on_c, 5, 71, 76
7, 11864, Note_on_c, 5, 71, 0
7, 11880, Note_on_c, 5, 69, 76
7, 11984, Note_on_c, 5, 69, 0
7, 12000, Note_on_c, 5, 71, 76
7, 12224, Note_on_c, 5, 71, 0
7, 12240, Note_on_c, 5, 69, 76
7, 12344, Note_on_c, 5, 69, 0
7, 12360, Note_on_c, 5, 71, 76
7, 12464, Note_on_c, 5, 71, 0
7, 12480, Note_on_c, 5, 73, 76
7, 12584, Note_on_c, 5, 73, 0
7, 12600, Note_on_c, 5, 74, 76
7, 12704, Note_on_c, 5, 74, 0
7, 12720, Note_on_c, 5, 76, 76
7, 12824, Note_on_c, 5, 76, 0
7, 12840, Note_on_c, 5, 73, 76
7, 12944, Note_on_c, 5, 73, 0
7, 12960, Note_on_c, 5, 74, 76
7, 13184, Note_on_c, 5, 74, 0
7, 13200, Note_on_c, 5, 74, 76
7, 13424, Note_on_c, 5, 74, 0
7, 13440, Note_on_c, 5, 73, 76
7, 13664, Note_on_c, 5, 73, 0
7, 13680, Note_on_c, 5, 74, 76
7, 13904, Note_on_c, 5, 74, 0
7, 13920, Note_on_c, 5, 69, 76
7, 14144, Note_on_c, 5, 69, 0
7, 14160, Note_on_c, 5, 74, 76
7, 14384, Note_on_c, 5, 74, 0
7, 14400, Note_on_c, 5, 75, 76
7, 14504, Note_on_c, 5, 75, 0
7, 14520, Note_on_c, 5, 76, 76
7, 14624, Note_on_c, 5, 76, 0
7, 14640, Note_on_c, 5, 78, 76
7, 14864, Note_on_c, 5, 78, 0
7, 14880, Note_on_c, 5, 71, 76
7, 15344, Note_on_c, 5, 71, 0
7, 15360, Note_on_c, 5, 69, 76
7, 15584, Note_on_c, 5, 69, 0
7, 15600, Note_on_c, 5, 67, 76
7, 15824, Note_on_c, 5, 67, 0
7, 15840, Note_on_c, 5, 72, 76
7, 16064, Note_on_c, 5, 72, 0
7, 16080, Note_on_c, 5, 71, 76
7, 16304, Note_on_c, 5, 71, 0
7, 16320, Note_on_c, 5, 69, 76
7, 16544, Note_on_c, 5, 69, 0
7, 16560, Note_on_c, 5, 67, 76
7, 17264, Note_on_c, 5, 67, 0
7, 17280, Note_on_c, 5, 76, 76
7, 17384, Note_on_c, 5, 76, 0
7, 17400, Note_on_c, 5, 78, 76
7, 17504, Note_on_c, 5, 78, 0
7, 17520, Note_on_c, 5, 79, 76
7, 18224, Note_on_c, 5, 79, 0
7, 18240, Note_on_c, 5, 78, 76
7, 18464, Note_on_c, 5, 78, 0
7, 18480, Note_on_c, 5, 76, 76
7, 18704, Note_on_c, 5, 76, 0
7, 18720, Note_on_c, 5, 74, 76
7, 18824, Note_on_c, 5, 74, 0
7, 18840, Note_on_c, 5, 76, 76
7, 18944, Note_on_c, 5, 76, 0
7, 18960, Note_on_c, 5, 78, 76
7, 19664, Note_on_c, 5, 78, 0
7, 19680, Note_on_c, 5, 76, 76
7, 19904, Note_on_c, 5, 76, 0
7, 19920, Note_on_c, 5, 74, 76
7, 20144, Note_on_c, 5, 74, 0
7, 20160, Note_on_c, 5, 69, 76
7, 21104, Note_on_c, 5, 69, 0
7, 21120, Note_on_c, 5, 74, 76
7, 21224, Note_on_c, 5, 74, 0
7, 21240, Note_on_c, 5, 73, 76
7, 21344, Note_on_c, 5, 73, 0
7, 21360, Note_on_c, 5, 74, 76
7, 21584, Note_on_c, 5, 74, 0
7, 21600, Note_on_c, 5, 67, 76
7, 21824, Note_on_c, 5, 67, 0
7, 21840, Note_on_c, 5, 67, 76
7, 22064, Note_on_c, 5, 67, 0
7, 22080, Note_on_c, 5, 69, 76
7, 22304, Note_on_c, 5, 69, 0
7, 22320, Note_on_c, 5, 73, 76
7, 22544, Note_on_c, 5, 73, 0
7, 22560, Note_on_c, 5, 69, 76
7, 22784, Note_on_c, 5, 69, 0
7, 22800, Note_on_c, 5, 64, 76
7, 23024, Note_on_c, 5, 64, 0
7, 23040, Note_on_c, 5, 69, 76
7, 23864, Note_on_c, 5, 69, 0
7, 23880, Note_on_c, 5, 71, 76
7, 23984, Note_on_c, 5, 71, 0
7, 24000, Note_on_c, 5, 69, 76
7, 24104, Note_on_c, 5, 69, 0
7, 24120, Note_on_c, 5, 67, 76
7, 24224, Note_on_c, 5, 67, 0
7, 24240, Note_on_c, 5, 69, 76
7, 24344, Note_on_c, 5, 69, 0
7, 24360, Note_on_c, 5, 66, 76
7, 24464, Note_on_c, 5, 66, 0
7, 24480, Note_on_c, 5, 67, 76
7, 24704, Note_on_c, 5, 67, 0
7, 24720, Note_on_c, 5, 76, 76
7, 25304, Note_on_c, 5, 76, 0
7, 25320, Note_on_c, 5, 78, 76
7, 25424, Note_on_c, 5, 78, 0
7, 25440, Note_on_c, 5, 76, 76
7, 25544, Note_on_c, 5, 76, 0
7, 25560, Note_on_c, 5, 74, 76
7, 25664, Note_on_c, 5, 74, 0
7, 25680, Note_on_c, 5, 76, 76
7, 25784, Note_on_c, 5, 76, 0
7, 25800, Note_on_c, 5, 73, 76
7, 25904, Note_on_c, 5, 73, 0
7, 25920, Note_on_c, 5, 69, 76
7, 26144, Note_on_c, 5, 69, 0
7, 26160, Note_on_c, 5, 74, 76
7, 26264, Note_on_c, 5, 74, 0
7, 26280, Note_on_c, 5, 73, 76
7, 26384, Note_on_c, 5, 73, 0
7, 26400, Note_on_c, 5, 74, 76
7, 26624, Note_on_c, 5, 74, 0
7, 26640, Note_on_c, 5, 74, 76
7, 27344, Note_on_c, 5, 74, 0
7, 27360, Note_on_c, 5, 67, 76
7, 27584, Note_on_c, 5, 67, 0
7, 27600, Note_on_c, 5, 71, 76
7, 27824, Note_on_c, 5, 71, 0
7, 27840, Note_on_c, 5, 69, 76
7, 28064, Note_on_c, 5, 69, 0
7, 28080, Note_on_c, 5, 69, 76
7, 28784, Note_on_c, 5, 69, 0
7, 28800, Note_on_c, 5, 73, 76
7, 29024, Note_on_c, 5, 73, 0
7, 29040, Note_on_c, 5, 71, 76
7, 29144, Note_on_c, 5, 71, 0
7, 29160, Note_on_c, 5, 69, 76
7, 29264, Note_on_c, 5, 69, 0
7, 29280, Note_on_c, 5, 71, 76
7, 29504, Note_on_c, 5, 71, 0
7, 29520, Note_on_c, 5, 69, 76
7, 29624, Note_on_c, 5, 69, 0
7, 29640, Note_on_c, 5, 71, 76
7, 29744, Note_on_c, 5, 71, 0
7, 29760, Note_on_c, 5, 73, 76
7, 29864, Note_on_c, 5, 73, 0
7, 29880, Note_on_c, 5, 74, 76
7, 29984, Note_on_c, 5, 74, 0
7, 30000, Note_on_c, 5, 76, 76
7, 30104, Note_on_c, 5, 76, 0
7, 30120, Note_on_c, 5, 73, 76
7, 30224, Note_on_c, 5, 73, 0
7, 30240, Note_on_c, 5, 74, 76
7, 30464, Note_on_c, 5, 74, 0
7, 30480, Note_on_c, 5, 74, 76
7, 30704, Note_on_c, 5, 74, 0
7, 30720, Note_on_c, 5, 73, 76
7, 30944, Note_on_c, 5, 73, 0
7, 30960, Note_on_c, 5, 74, 76
7, 31184, Note_on_c, 5, 74, 0
7, 31200, Note_on_c, 5, 69, 76
7, 31424, Note_on_c, 5, 69, 0
7, 31440, Note_on_c, 5, 74, 76
7, 31664, Note_on_c, 5, 74, 0
7, 31680, Note_on_c, 5, 75, 76
7, 31784, Note_on_c, 5, 75, 0
7, 31800, Note_on_c, 5, 76, 76
7, 31904, Note_on_c, 5, 76, 0
7, 31920, Note_on_c, 5, 78, 76
7, 32144, Note_on_c, 5, 78, 0
7, 32160, Note_on_c, 5, 71, 76
7, 32624, Note_on_c, 5, 71, 0
7, 32640, Note_on_c, 5, 69, 76
7, 32864, Note_on_c, 5, 69, 0
7, 32880, Note_on_c, 5, 67, 76
7, 33104, Note_on_c, 5, 67, 0
7, 33120, Note_on_c, 5, 72, 76
7, 33344, Note_on_c, 5, 72, 0
7, 33360, Note_on_c, 5, 71, 76
7, 33584, Note_on_c, 5, 71, 0
7, 33600, Note_on_c, 5, 69, 76
7, 33824, Note_on_c, 5, 69, 0
7, 33840, Note_on_c, 5, 67, 76
7, 34544, Note_on_c, 5, 67, 0
7, 34560, Note_on_c, 5, 76, 76
7, 34664, Note_on_c, 5, 76, 0
7, 34680, Note_on_c, 5, 78, 76
7, 34784, Note_on_c, 5, 78, 0
7, 34800, Note_on_c, 5, 79, 76
7, 35504, Note_on_c, 5, 79, 0
7, 35520, Note_on_c, 5, 78, 76
7, 35744, Note_on_c, 5, 78, 0
7, 35760, Note_on_c, 5, 76, 76
7, 35984, Note_on_c, 5, 76, 0
7, 36000, Note_on_c, 5, 74, 76
7, 36104, Note_on_c, 5, 74, 0
7, 36120, Note_on_c, 5, 76, 76
7, 36224, Note_on_c, 5, 76, 0
7, 36240, Note_on_c, 5, 78, 76
7, 36944, Note_on_c, 5, 78, 0
7, 36960, Note_on_c, 5, 76, 76
7, 37184, Note_on_c, 5, 76, 0
7, 37200, Note_on_c, 5, 74, 76
7, 37424, Note_on_c, 5, 74, 0
7, 37440, Note_on_c, 5, 69, 76
7, 38384, Note_on_c, 5, 69, 0
7, 38400, Note_on_c, 5, 74, 76
7, 38504, Note_on_c, 5, 74, 0
7, 38520, Note_on_c, 5, 73, 76
7, 38624, Note_on_c, 5, 73, 0
7, 38640, Note_on_c, 5, 74, 76
7, 38864, Note_on_c, 5, 74, 0
7, 38880, Note_on_c, 5, 67, 76
7, 39104, Note_on_c, 5, 67, 0
7, 39120, Note_on_c, 5, 67, 76
7, 39344, Note_on_c, 5, 67, 0
7, 39360, Note_on_c, 5, 69, 76
7, 39584, Note_on_c, 5, 69, 0
7, 39600, Note_on_c, 5, 73, 76
7, 39824, Note_on_c, 5, 73, 0
7, 39840, Note_on_c, 5, 69, 76
7, 40064, Note_on_c, 5, 69, 0
7, 40080, Note_on_c, 5, 64, 76
7, 40304, Note_on_c, 5, 64, 0
7, 40320, Note_on_c, 5, 69, 76
7, 41144, Note_on_c, 5, 69, 0
7, 41160, Note_on_c, 5, 71, 76
7, 41264, Note_on_c, 5, 71, 0
7, 41280, Note_on_c, 5, 69, 76
7, 41384, Note_on_c, 5, 69, 0
7, 41400, Note_on_c, 5, 67, 76
7, 41504, Note_on_c, 5, 67, 0
7, 41520, Note_on_c, 5, 69, 76
7, 41624, Note_on_c, 5, 69, 0
7, 41640, Note_on_c, 5, 66, 76
7, 41744, Note_on_c, 5, 66, 0
7, 41760, Note_on_c, 5, 67, 76
7, 41984, Note_on_c, 5, 67, 0
7, 42000, Note_on_c, 5, 76, 76
7, 42584, Note_on_c, 5, 76, 0
7, 42600, Note_on_c, 5, 78, 76
7, 42704, Note_on_c, 5, 78, 0
7, 42720, Note_on_c, 5, 76, 76
7, 42824, Note_on_c, 5, 76, 0
7, 42840, Note_on_c, 5, 74, 76
7, 42944, Note_on_c, 5, 74, 0
7, 42960, Note_on_c, 5, 76, 76
7, 43064, Note_on_c, 5, 76, 0
7, 43080, Note_on_c, 5, 73, 76
7, 43184, Note_on_c, 5, 73, 0
7, 43200, Note_on_c, 5, 69, 76
7, 43424, Note_on_c, 5, 69, 0
7, 43440, Note_on_c, 5, 74, 76
7, 43544, Note_on_c, 5, 74, 0
7, 43560, Note_on_c, 5, 73, 76
7, 43664, Note_on_c, 5, 73, 0
7, 43680, Note_on_c, 5, 74, 76
7, 43904, Note_on_c, 5, 74, 0
7, 43920, Note_on_c, 5, 74, 76
7, 44624, Note_on_c, 5, 74, 0
7, 44640, Note_on_c, 5, 67, 76
7, 44864, Note_on_c, 5, 67, 0
7, 44880, Note_on_c, 5, 71, 76
7, 45104, Note_on_c, 5, 71, 0
7, 45120, Note_on_c, 5, 69, 76
7, 45344, Note_on_c, 5, 69, 0
7, 45360, Note_on_c, 5, 69, 76
7, 46079, Note_on_c, 5, 69, 0
7, 81120, Note_on_c, 5, 74, 76
7, 81344, Note_on_c, 5, 74, 0
7, 81360, Note_on_c, 5, 74, 76
7, 81464, Note_on_c, 5, 74, 0
7, 81480, Note_on_c, 5, 73, 76
7, 81584, Note_on_c, 5, 73, 0
7, 81600, Note_on_c, 5, 74, 76
7, 81824, Note_on_c, 5, 74, 0
7, 81840, Note_on_c, 5, 74, 76
7, 82544, Note_on_c, 5, 74, 0
7, 82560, Note_on_c, 5, 67, 76
7, 82784, Note_on_c, 5, 67, 0
7, 82800, Note_on_c, 5, 71, 76
7, 83024, Note_on_c, 5, 71, 0
7, 83040, Note_on_c, 5, 69, 76
7, 83264, Note_on_c, 5, 69, 0
7, 83280, Note_on_c, 5, 69, 76
7, 83744, Note_on_c, 5, 69, 0
7, 83760, Note_on_c, 5, 74, 76
7, 83984, Note_on_c, 5, 74, 0
7, 84000, Note_on_c, 5, 69, 76
7, 84224, Note_on_c, 5, 69, 0
7, 84240, Note_on_c, 5, 73, 76
7, 84464, Note_on_c, 5, 73, 0
7, 84480, Note_on_c, 5, 69, 76
7, 84704, Note_on_c, 5, 69, 0
7, 84720, Note_on_c, 5, 74, 76
7, 84944, Note_on_c, 5, 74, 0
7, 84960, Note_on_c, 5, 76, 76
7, 85184, Note_on_c, 5, 76, 0
7, 85200, Note_on_c, 5, 73, 76
7, 85424, Note_on_c, 5, 73, 0
7, 85440, Note_on_c, 5, 74, 76
7, 85544, Note_on_c, 5, 74, 0
7, 85560, Note_on_c, 5, 76, 76
7, 85664, Note_on_c, 5, 76, 0
7, 85680, Note_on_c, 5, 74, 76
7, 85784, Note_on_c, 5, 74, 0
7, 85800, Note_on_c, 5, 73, 76
7, 85904, Note_on_c, 5, 73, 0
7, 85920, Note_on_c, 5, 74, 76
7, 86024, Note_on_c, 5, 74, 0
7, 86040, Note_on_c, 5, 71, 76
7, 86144, Note_on_c, 5, 71, 0
7, 86160, Note_on_c, 5, 73, 76
7, 86864, Note_on_c, 5, 73, 0
7, 86880, Note_on_c, 5, 74, 76
7, 87104, Note_on_c, 5, 74, 0
7, 87120, Note_on_c, 5, 74, 76
7, 87224, Note_on_c, 5, 74, 0
7, 87240, Note_on_c, 5, 73, 76
7, 87344, Note_on_c, 5, 73, 0
7, 87360, Note_on_c, 5, 74, 76
7, 87584, Note_on_c, 5, 74, 0
7, 87600, Note_on_c, 5, 74, 76
7, 88304, Note_on_c, 5, 74, 0
7, 88320, Note_on_c, 5, 67, 76
7, 88544, Note_on_c, 5, 67, 0
7, 88560, Note_on_c, 5, 71, 76
7, 88784, Note_on_c, 5, 71, 0
7, 88800, Note_on_c, 5, 69, 76
7, 89024, Note_on_c, 5, 69, 0
7, 89040, Note_on_c, 5, 69, 76
7, 89504, Note_on_c, 5, 69, 0
7, 89520, Note_on_c, 5, 74, 76
7, 89744, Note_on_c, 5, 74, 0
7, 89760, Note_on_c, 5, 69, 76
7, 89984, Note_on_c, 5, 69, 0
7, 90000, Note_on_c, 5, 73, 76
7, 90224, Note_on_c, 5, 73, 0
7, 90240, Note_on_c, 5, 69, 76
7, 90464, Note_on_c, 5, 69, 0
7, 90480, Note_on_c, 5, 74, 76
7, 90704, Note_on_c, 5, 74, 0
7, 90720, Note_on_c, 5, 76, 76
7, 90944, Note_on_c, 5, 76, 0
7, 90960, Note_on_c, 5, 73, 76
7, 91184, Note_on_c, 5, 73, 0
7, 91200, Note_on_c, 5, 74, 76
7, 91304, Note_on_c, 5, 74, 0
7, 91320, Note_on_c, 5, 76, 76
7, 91424, Note_on_c, 5, 76, 0
7, 91440, Note_on_c, 5, 74, 76
7, 91544, Note_on_c, 5, 74, 0
7, 91560, Note_on_c, 5, 73, 76
7, 91664, Note_on_c, 5, 73, 0
7, 91680, Note_on_c, 5, 74, 76
7, 91784, Note_on_c, 5, 74, 0
7, 91800, Note_on_c, 5, 71, 76
7, 91904, Note_on_c, 5, 71, 0
7, 91920, Note_on_c, 5, 73, 76
7, 92624, Note_on_c, 5, 73, 0
7, 92640, Note_on_c, 5, 73, 76
7, 92864, Note_on_c, 5, 73, 0
7, 92880, Note_on_c, 5, 71, 76
7, 92984, Note_on_c, 5, 71, 0
7, 93000, Note_on_c, 5, 69, 76
7, 93104, Note_on_c, 5, 69, 0
7, 93120, Note_on_c, 5, 71, 76
7, 93344, Note_on_c, 5, 71, 0
7, 93360, Note_on_c, 5, 69, 76
7, 93464, Note_on_c, 5, 69, 0
7, 93480, Note_on_c, 5, 71, 76
7, 93584, Note_on_c, 5, 71, 0
7, 93600, Note_on_c, 5, 73, 76
7, 93704, Note_on_c, 5, 73, 0
7, 93720, Note_on_c, 5, 74, 76
7, 93824, Note_on_c, 5, 74, 0
7, 93840, Note_on_c, 5, 76, 76
7, 93944, Note_on_c, 5, 76, 0
7, 93960, Note_on_c, 5, 73, 76
7, 94064, Note_on_c, 5, 73, 0
7, 94080, Note_on_c, 5, 74, 76
7, 94304, Note_on_c, 5, 74, 0
7, 94320, Note_on_c, 5, 74, 76
7, 94544, Note_on_c, 5, 74, 0
7, 94560, Note_on_c, 5, 73, 76
7, 94784, Note_on_c, 5, 73, 0
7, 94800, Note_on_c, 5, 74, 76
7, 95024, Note_on_c, 5, 74, 0
7, 95040, Note_on_c, 5, 69, 76
7, 95264, Note_on_c, 5, 69, 0
7, 95280, Note_on_c, 5, 74, 76
7, 95504, Note_on_c, 5, 74, 0
7, 95520, Note_on_c, 5, 75, 76
7, 95624, Note_on_c, 5, 75, 0
7, 95640, Note_on_c, 5, 76, 76
7, 95744, Note_on_c, 5, 76, 0
7, 95760, Note_on_c, 5, 78, 76
7, 95984, Note_on_c, 5, 78, 0
7, 96000, Note_on_c, 5, 71, 76
7, 96464, Note_on_c, 5, 71, 0
7, 96480, Note_on_c, 5, 69, 76
7, 96704, Note_on_c, 5, 69, 0
7, 96720, Note_on_c, 5, 67, 76
7, 96944, Note_on_c, 5, 67, 0
7, 96960, Note_on_c, 5, 72, 76
7, 97184, Note_on_c, 5, 72, 0
7, 97200, Note_on_c, 5, 71, 76
7, 97424, Note_on_c, 5, 71, 0
7, 97440, Note_on_c, 5, 69, 76
7, 97664, Note_on_c, 5, 69, 0
7, 97680, Note_on_c, 5, 67, 76
7, 98384, Note_on_c, 5, 67, 0
7, 98400, Note_on_c, 5, 76, 76
7, 98504, Note_on_c, 5, 76, 0
7, 98520, Note_on_c, 5, 78, 76
7, 98624, Note_on_c, 5, 78, 0
7, 98640, Note_on_c, 5, 79, 76
7, 99344, Note_on_c, 5, 79, 0
7, 99360, Note_on_c, 5, 78, 76
7, 99584, Note_on_c, 5, 78, 0
7, 99600, Note_on_c, 5, 76, 76
7, 99824, Note_on_c, 5, 76, 0
7, 99840, Note_on_c, 5, 74, 76
7, 99944, Note_on_c, 5, 74, 0
7, 99960, Note_on_c, 5, 76, 76
7, 100064, Note_on_c, 5, 76, 0
7, 100080, Note_on_c, 5, 78, 76
7, 100784, Note_on_c, 5, 78, 0
7, 100800, Note_on_c, 5, 76, 76
7, 101024, Note_on_c, 5, 76, 0
7, 101040, Note_on_c, 5, 74, 76
7, 101264, Note_on_c, 5, 74, 0
7, 101280, Note_on_c, 5, 69, 76
7, 102224, Note_on_c, 5, 69, 0
7, 102240, Note_on_c, 5, 74, 76
7, 102344, Note_on_c, 5, 74, 0
7, 102360, Note_on_c, 5, 73, 76
7, 102464, Note_on_c, 5, 73, 0
7, 102480, Note_on_c, 5, 74, 76
7, 102704, Note_on_c, 5, 74, 0
7, 102720, Note_on_c, 5, 67, 76
7, 102944, Note_on_c, 5, 67, 0
7, 102960, Note_on_c, 5, 67, 76
7, 103184, Note_on_c, 5, 67, 0
7, 103200, Note_on_c, 5, 69, 76
7, 103424, Note_on_c, 5, 69, 0
7, 103440, Note_on_c, 5, 73, 76
7, 103664, Note_on_c, 5, 73, 0
7, 103680, Note_on_c, 5, 69, 76
7, 103904, Note_on_c, 5, 69, 0
7, 103920, Note_on_c, 5, 64, 76
7, 104144, Note_on_c, 5, 64, 0
7, 104160, Note_on_c, 5, 69, 76
7, 104984, Note_on_c, 5, 69, 0
7, 105000, Note_on_c, 5, 71, 76
7, 105104, Note_on_c, 5, 71, 0
7, 105120, Note_on_c, 5, 69, 76
7, 105224, Note_on_c, 5, 69, 0
7, 105240, Note_on_c, 5, 67, 76
7, 105344, Note_on_c, 5, 67, 0
7, 105360, Note_on_c, 5, 69, 76
7, 105464, Note_on_c, 5, 69, 0
7, 105480, Note_on_c, 5, 66, 76
7, 105584, Note_on_c, 5, 66, 0
7, 105600, Note_on_c, 5, 67, 76
7, 105824, Note_on_c, 5, 67, 0
7, 105840, Note_on_c, 5, 76, 76
7, 106424, Note_on_c, 5, 76, 0
7, 106440, Note_on_c, 5, 78, 76
7, 106544, Note_on_c, 5, 78, 0
7, 106560, Note_on_c, 5, 76, 76
7, 106664, Note_on_c, 5, 76, 0
7, 106680, Note_on_c, 5, 74, 76
7, 106784, Note_on_c, 5, 74, 0
7, 106800, Note_on_c, 5, 76, 76
7, 106904, Note_on_c, 5, 76, 0
7, 106920, Note_on_c, 5, 73, 76
7, 107024, Note_on_c, 5, 73, 0
7, 107040, Note_on_c, 5, 69, 76
7, 107264, Note_on_c, 5, 69, 0
7, 107280, Note_on_c, 5, 74, 76
7, 107384, Note_on_c, 5, 74, 0
7, 107400, Note_on_c, 5, 73, 76
7, 107504, Note_on_c, 5, 73, 0
7, 107520, Note_on_c, 5, 74, 76
7, 107744, Note_on_c, 5, 74, 0
7, 107760, Note_on_c, 5, 74, 76
7, 108464, Note_on_c, 5, 74, 0
7, 108480, Note_on_c, 5, 67, 76
7, 108704, Note_on_c, 5, 67, 0
7, 108720, Note_on_c, 5, 71, 76
7, 108944, Note_on_c, 5, 71, 0
7, 108960, Note_on_c, 5, 69, 76
7, 109184, Note_on_c, 5, 69, 0
7, 109200, Note_on_c, 5, 69, 76
7, 109904, Note_on_c, 5, 69, 0
7, 109920, Note_on_c, 5, 73, 76
7, 110144, Note_on_c, 5, 73, 0
7, 110160, Note_on_c, 5, 71, 76
7, 110264, Note_on_c, 5, 71, 0
7, 110280, Note_on_c, 5, 69, 76
7, 110384, Note_on_c, 5, 69, 0
7, 110400, Note_on_c, 5, 71, 76
7, 110624, Note_on_c, 5, 71, 0
7, 110640, Note_on_c, 5, 69, 76
7, 110744, Note_on_c, 5, 69, 0
7, 110760, Note_on_c, 5, 71, 76
7, 110864, Note_on_c, 5, 71, 0
7, 110880, Note_on_c, 5, 73, 76
7, 110984, Note_on_c, 5, 73, 0
7, 111000, Note_on_c, 5, 74, 76
7, 111104, Note_on_c, 5, 74, 0
7, 111120, Note_on_c, 5, 76, 76
7, 111224, Note_on_c, 5, 76, 0
7, 111240, Note_on_c, 5, 73, 76
7, 111344, Note_on_c, 5, 73, 0
7, 111360, Note_on_c, 5, 74, 76
7, 111584, Note_on_c, 5, 74, 0
7, 111600, Note_on_c, 5, 74, 76
7, 111824, Note_on_c, 5, 74, 0
7, 111840, Note_on_c, 5, 73, 76
7, 112064, Note_on_c, 5, 73, 0
7, 112080, Note_on_c, 5, 74, 76
7, 112304, Note_on_c, 5, 74, 0
7, 112320, Note_on_c, 5, 69, 76
7, 112544, Note_on_c, 5, 69, 0
7, 112560, Note_on_c, 5, 74, 76
7, 112784, Note_on_c, 5, 74, 0
7, 112800, Note_on_c, 5, 75, 76
7, 112904, Note_on_c, 5, 75, 0
7, 112920, Note_on_c, 5, 76, 76
7, 113024, Note_on_c, 5, 76, 0
7, 113040, Note_on_c, 5, 78, 76
7, 113264, Note_on_c, 5, 78, 0
7, 113280, Note_on_c, 5, 71, 76
7, 113744, Note_on_c, 5, 71, 0
7, 113760, Note_on_c, 5, 69, 76
7, 113984, Note_on_c, 5, 69, 0
7, 114000, Note_on_c, 5, 67, 76
7, 114224, Note_on_c, 5, 67, 0
7, 114240, Note_on_c, 5, 72, 76
7, 114464, Note_on_c, 5, 72, 0
7, 114480, Note_on_c, 5, 71, 76
7, 114704, Note_on_c, 5, 71, 0
7, 114720, Note_on_c, 5, 69, 76
7, 114944, Note_on_c, 5, 69, 0
7, 114960, Note_on_c, 5, 67, 76
7, 115664, Note_on_c, 5, 67, 0
7, 115680, Note_on_c, 5, 76, 76
7, 115784, Note_on_c, 5, 76, 0
7, 115800, Note_on_c, 5, 78, 76
7, 115904, Note_on_c, 5, 78, 0
7, 115920, Note_on_c, 5, 79, 76
7, 116624, Note_on_c, 5, 79, 0
7, 116640, Note_on_c, 5, 78, 76
7, 116864, Note_on_c, 5, 78, 0
7, 116880, Note_on_c, 5, 76, 76
7, 117104, Note_on_c, 5, 76, 0
7, 117120, Note_on_c, 5, 74, 76
7, 117224, Note_on_c, 5, 74, 0
7, 117240, Note_on_c, 5, 76, 76
7, 117344, Note_on_c, 5, 76, 0
7, 117360, Note_on_c, 5, 78, 76
7, 118064, Note_on_c, 5, 78, 0
7, 118080, Note_on_c, 5, 76, 76
7, 118304, Note_on_c, 5, 76, 0
7, 118320, Note_on_c, 5, 74, 76
7, 118544, Note_on_c, 5, 74, 0
7, 118560, Note_on_c, 5, 69, 76
7, 119504, Note_on_c, 5, 69, 0
7, 119520, Note_on_c, 5, 74, 76
7, 119624, Note_on_c, 5, 74, 0
7, 119640, Note_on_c, 5, 73, 76
7, 119744, Note_on_c, 5, 73, 0
7, 119760, Note_on_c, 5, 74, 76
7, 119984, Note_on_c, 5, 74, 0
7, 120000, Note_on_c, 5, 67, 76
7, 120224, Note_on_c, 5, 67, 0
7, 120240, Note_on_c, 5, 67, 76
7, 120464, Note_on_c, 5, 67, 0
7, 120480, Note_on_c, 5, 69, 76
7, 120704, Note_on_c, 5, 69, 0
7, 120720, Note_on_c, 5, 73, 76
7, 120944, Note_on_c, 5, 73, 0
7, 120960, Note_on_c, 5, 69, 76
7, 121184, Note_on_c, 5, 69, 0
7, 121200, Note_on_c, 5, 64, 76
7, 121424, Note_on_c, 5, 64, 0
7, 121440, Note_on_c, 5, 69, 76
7, 122264, Note_on_c, 5, 69, 0
7, 122280, Note_on_c, 5, 71, 76
7, 122384, Note_on_c, 5, 71, 0
7, 122400, Note_on_c, 5, 69, 76
7, 122504, Note_on_c, 5, 69, 0
7, 122520, Note_on_c, 5, 67, 76
7, 122624, Note_on_c, 5, 67, 0
7, 122640, Note_on_c, 5, 69, 76
7, 122744, Note_on_c, 5, 69, 0
7, 122760, Note_on_c, 5, 66, 76
7, 122864, Note_on_c, 5, 66, 0
7, 122880, Note_on_c, 5, 67, 76
7, 123104, Note_on_c, 5, 67, 0
7, 123120, Note_on_c, 5, 76, 76
7, 123704, Note_on_c, 5, 76, 0
7, 123720, Note_on_c, 5, 78, 76
7, 123824, Note_on_c, 5, 78, 0
7, 123840, Note_on_c, 5, 76, 76
7, 123944, Note_on_c, 5, 76, 0
7, 123960, Note_on_c, 5, 74, 76
7, 124064, Note_on_c, 5, 74, 0
7, 124080, Note_on_c, 5, 76, 76
7, 124184, Note_on_c, 5, 76, 0
7, 124200, Note_on_c, 5, 73, 76
7, 124304, Note_on_c, 5, 73, 0
7, 124320, Note_on_c, 5, 69, 76
7, 124544, Note_on_c, 5, 69, 0
7, 124560, Note_on_c, 5, 74, 76
7, 124664, Note_on_c, 5, 74, 0
7, 124680, Note_on_c, 5, 73, 76
7, 124784, Note_on_c, 5, 73, 0
7, 124800, Note_on_c, 5, 74, 76
7, 125024, Note_on_c, 5, 74, 0
7, 125040, Note_on_c, 5, 74, 76
7, 125744, Note_on_c, 5, 74, 0
7, 125760, Note_on_c, 5, 67, 76
7, 125984, Note_on_c, 5, 67, 0
7, 126000, Note_on_c, 5, 71, 76
7, 126224, Note_on_c, 5, 71, 0
7, 126240, Note_on_c, 5, 69, 76
7, 126464, Note_on_c, 5, 69, 0
7, 126480, Note_on_c, 5, 69, 76
7, 127199, Note_on_c, 5, 69, 0
7, 127199, End_track
8, 0, Start_track
8, 0, Title_t, "Oboe III"
8, 0, MIDI_port, 0
8, 0, Program_c, 6, 68
8, 0, Control_c, 6, 10, 69
8, 0, Control_c, 6, 11, 127
8, 0, Control_c, 6, 7, 80
8, 0, Note_on_c, 6, 69, 76
8, 224, Note_on_c, 6, 69, 0
8, 240, Note_on_c, 6, 62, 76
8, 464, Note_on_c, 6, 62, 0
8, 480, Note_on_c, 6, 71, 76
8, 704, Note_on_c, 6, 71, 0
8, 720, Note_on_c, 6, 69, 76
8, 1424, Note_on_c, 6, 69, 0
8, 1440, Note_on_c, 6, 62, 76
8, 1664, Note_on_c, 6, 62, 0
8, 1680, Note_on_c, 6, 67, 76
8, 1904, Note_on_c, 6, 67, 0
8, 1920, Note_on_c, 6, 64, 76
8, 2144, Note_on_c, 6, 64, 0
8, 2160, Note_on_c, 6, 66, 76
8, 2264, Note_on_c, 6, 66, 0
8, 2280, Note_on_c, 6, 64, 76
8, 2384, Note_on_c, 6, 64, 0
8, 2400, Note_on_c, 6, 66, 76
8, 2504, Note_on_c, 6, 66, 0
8, 2520, Note_on_c, 6, 67, 76
8, 2624, Note_on_c, 6, 67, 0
8, 2640, Note_on_c, 6, 69, 76
8, 2864, Note_on_c, 6, 69, 0
8, 2880, Note_on_c, 6, 64, 76
8, 3104, Note_on_c, 6, 64, 0
8, 3120, Note_on_c, 6, 69, 76
8, 3344, Note_on_c, 6, 69, 0
8, 3360, Note_on_c, 6, 61, 76
8, 3584, Note_on_c, 6, 61, 0
8, 3600, Note_on_c, 6, 62, 76
8, 3824, Note_on_c, 6, 62, 0
8, 3840, Note_on_c, 6, 69, 76
8, 4304, Note_on_c, 6, 69, 0
8, 4320, Note_on_c, 6, 69, 76
8, 4544, Note_on_c, 6, 69, 0
8, 4560, Note_on_c, 6, 62, 76
8, 4784, Note_on_c, 6, 62, 0
8, 4800, Note_on_c, 6, 64, 76
8, 5024, Note_on_c, 6, 64, 0
8, 5040, Note_on_c, 6, 64, 76
8, 5744, Note_on_c, 6, 64, 0
8, 5760, Note_on_c, 6, 69, 76
8, 5984, Note_on_c, 6, 69, 0
8, 6000, Note_on_c, 6, 62, 76
8, 6224, Note_on_c, 6, 62, 0
8, 6240, Note_on_c, 6, 71, 76
8, 6464, Note_on_c, 6, 71, 0
8, 6480, Note_on_c, 6, 69, 76
8, 7184, Note_on_c, 6, 69, 0
8, 7200, Note_on_c, 6, 62, 76
8, 7424, Note_on_c, 6, 62, 0
8, 7440, Note_on_c, 6, 67, 76
8, 7664, Note_on_c, 6, 67, 0
8, 7680, Note_on_c, 6, 64, 76
8, 7904, Note_on_c, 6, 64, 0
8, 7920, Note_on_c, 6, 66, 76
8, 8024, Note_on_c, 6, 66, 0
8, 8040, Note_on_c, 6, 64, 76
8, 8144, Note_on_c, 6, 64, 0
8, 8160, Note_on_c, 6, 66, 76
8, 8264, Note_on_c, 6, 66, 0
8, 8280, Note_on_c, 6, 67, 76
8, 8384, Note_on_c, 6, 67, 0
8, 8400, Note_on_c, 6, 69, 76
8, 8624, Note_on_c, 6, 69, 0
8, 8640, Note_on_c, 6, 64, 76
8, 8864, Note_on_c, 6, 64, 0
8, 8880, Note_on_c, 6, 69, 76
8, 9104, Note_on_c, 6, 69, 0
8, 9120, Note_on_c, 6, 61, 76
8, 9344, Note_on_c, 6, 61, 0
8, 9360, Note_on_c, 6, 62, 76
8, 9584, Note_on_c, 6, 62, 0
8, 9600, Note_on_c, 6, 69, 76
8, 10064, Note_on_c, 6, 69, 0
8, 10080, Note_on_c, 6, 69, 76
8, 10304, Note_on_c, 6, 69, 0
8, 10320, Note_on_c, 6, 62, 76
8, 10544, Note_on_c, 6, 62, 0
8, 10560, Note_on_c, 6, 64, 76
8, 10784, Note_on_c, 6, 64, 0
8, 10800, Note_on_c, 6, 64, 76
8, 11504, Note_on_c, 6, 64, 0
8, 11520, Note_on_c, 6, 69, 76
8, 11744, Note_on_c, 6, 69, 0
8, 11760, Note_on_c, 6, 66, 76
8, 11984, Note_on_c, 6, 66, 0
8, 12000, Note_on_c, 6, 64, 76
8, 12224, Note_on_c, 6, 64, 0
8, 12240, Note_on_c, 6, 64, 76
8, 12464, Note_on_c, 6, 64, 0
8, 12480, Note_on_c, 6, 69, 76
8, 12944, Note_on_c, 6, 69, 0
8, 12960, Note_on_c, 6, 69, 76
8, 13184, Note_on_c, 6, 69, 0
8, 13200, Note_on_c, 6, 71, 76
8, 13424, Note_on_c, 6, 71, 0
8, 13440, Note_on_c, 6, 69, 76
8, 13664, Note_on_c, 6, 69, 0
8, 13680, Note_on_c, 6, 69, 76
8, 13784, Note_on_c, 6, 69, 0
8, 13800, Note_on_c, 6, 67, 76
8, 13904, Note_on_c, 6, 67, 0
8, 13920, Note_on_c, 6, 66, 76
8, 14024, Note_on_c, 6, 66, 0
8, 14040, Note_on_c, 6, 67, 76
8, 14144, Note_on_c, 6, 67, 0
8, 14160, Note_on_c, 6, 69, 76
8, 14264, Note_on_c, 6, 69, 0
8, 14280, Note_on_c, 6, 71, 76
8, 14384, Note_on_c, 6, 71, 0
8, 14400, Note_on_c, 6, 72, 76
8, 14624, Note_on_c, 6, 72, 0
8, 14640, Note_on_c, 6, 71, 76
8, 14864, Note_on_c, 6, 71, 0
8, 14880, Note_on_c, 6, 69, 76
8, 15104, Note_on_c, 6, 69, 0
8, 15120, Note_on_c, 6, 67, 76
8, 15344, Note_on_c, 6, 67, 0
8, 15360, Note_on_c, 6, 66, 76
8, 15584, Note_on_c, 6, 66, 0
8, 15600, Note_on_c, 6, 64, 76
8, 15824, Note_on_c, 6, 64, 0
8, 15840, Note_on_c, 6, 69, 76
8, 16064, Note_on_c, 6, 69, 0
8, 16080, Note_on_c, 6, 63, 76
8, 16424, Note_on_c, 6, 63, 0
8, 16440, Note_on_c, 6, 64, 76
8, 16544, Note_on_c, 6, 64, 0
8, 16560, Note_on_c, 6, 64, 76
8, 17264, Note_on_c, 6, 64, 0
8, 17280, Note_on_c, 6, 71, 76
8, 17384, Note_on_c, 6, 71, 0
8, 17400, Note_on_c, 6, 69, 76
8, 17504, Note_on_c, 6, 69, 0
8, 17520, Note_on_c, 6, 67, 76
8, 17624, Note_on_c, 6, 67, 0
8, 17640, Note_on_c, 6, 69, 76
8, 17744, Note_on_c, 6, 69, 0
8, 17760, Note_on_c, 6, 71, 76
8, 17864, Note_on_c, 6, 71, 0
8, 17880, Note_on_c, 6, 67, 76
8, 17984, Note_on_c, 6, 67, 0
8, 18000, Note_on_c, 6, 64, 76
8, 18224, Note_on_c, 6, 64, 0
8, 18240, Note_on_c, 6, 73, 76
8, 18464, Note_on_c, 6, 73, 0
8, 18480, Note_on_c, 6, 69, 76
8, 18824, Note_on_c, 6, 69, 0
8, 18840, Note_on_c, 6, 67, 76
8, 18944, Note_on_c, 6, 67, 0
8, 18960, Note_on_c, 6, 66, 76
8, 19064, Note_on_c, 6, 66, 0
8, 19080, Note_on_c, 6, 67, 76
8, 19184, Note_on_c, 6, 67, 0
8, 19200, Note_on_c, 6, 69, 76
8, 19304, Note_on_c, 6, 69, 0
8, 19320, Note_on_c, 6, 66, 76
8, 19424, Note_on_c, 6, 66, 0
8, 19440, Note_on_c, 6, 62, 76
8, 19664, Note_on_c, 6, 62, 0
8, 19680, Note_on_c, 6, 71, 76
8, 19904, Note_on_c, 6, 71, 0
8, 19920, Note_on_c, 6, 67, 76
8, 20384, Note_on_c, 6, 67, 0
8, 20400, Note_on_c, 6, 73, 76
8, 20429, Note_on_c, 6, 73, 0
8, 20430, Note_on_c, 6, 74, 76
8, 20459, Note_on_c, 6, 74, 0
8, 20460, Note_on_c, 6, 73, 76
8, 20489, Note_on_c, 6, 73, 0
8, 20490, Note_on_c, 6, 74, 76
8, 20519, Note_on_c, 6, 74, 0
8, 20520, Note_on_c, 6, 73, 76
8, 20549, Note_on_c, 6, 73, 0
8, 20550, Note_on_c, 6, 74, 76
8, 20579, Note_on_c, 6, 74, 0
8, 20580, Note_on_c, 6, 73, 76
8, 20609, Note_on_c, 6, 73, 0
8, 20610, Note_on_c, 6, 74, 76
8, 20639, Note_on_c, 6, 74, 0
8, 20640, Note_on_c, 6, 73, 76
8, 20669, Note_on_c, 6, 73, 0
8, 20670, Note_on_c, 6, 74, 76
8, 20699, Note_on_c, 6, 74, 0
8, 20700, Note_on_c, 6, 73, 76
8, 20729, Note_on_c, 6, 73, 0
8, 20730, Note_on_c, 6, 74, 76
8, 20759, Note_on_c, 6, 74, 0
8, 20760, Note_on_c, 6, 71, 76
8, 20811, Note_on_c, 6, 71, 0
8, 20820, Note_on_c, 6, 73, 76
8, 20871, Note_on_c, 6, 73, 0
8, 20880, Note_on_c, 6, 74, 76
8, 21104, Note_on_c, 6, 74, 0
8, 21120, Note_on_c, 6, 69, 76
8, 21344, Note_on_c, 6, 69, 0
8, 21360, Note_on_c, 6, 66, 76
8, 21584, Note_on_c, 6, 66, 0
8, 21600, Note_on_c, 6, 62, 76
8, 21824, Note_on_c, 6, 62, 0
8, 21840, Note_on_c, 6, 64, 76
8, 22064, Note_on_c, 6, 64, 0
8, 22080, Note_on_c, 6, 66, 76
8, 22304, Note_on_c, 6, 66, 0
8, 22320, Note_on_c, 6, 69, 76
8, 22544, Note_on_c, 6, 69, 0
8, 22560, Note_on_c, 6, 64, 76
8, 23024, Note_on_c, 6, 64, 0
8, 23040, Note_on_c, 6, 62, 76
8, 23264, Note_on_c, 6, 62, 0
8, 23280, Note_on_c, 6, 62, 76
8, 23504, Note_on_c, 6, 62, 0
8, 23520, Note_on_c, 6, 62, 76
8, 23744, Note_on_c, 6, 62, 0
8, 23760, Note_on_c, 6, 62, 76
8, 23984, Note_on_c, 6, 62, 0
8, 24000, Note_on_c, 6, 62, 76
8, 24224, Note_on_c, 6, 62, 0
8, 24240, Note_on_c, 6, 62, 76
8, 24464, Note_on_c, 6, 62, 0
8, 24480, Note_on_c, 6, 62, 76
8, 24704, Note_on_c, 6, 62, 0
8, 24720, Note_on_c, 6, 69, 76
8, 24944, Note_on_c, 6, 69, 0
8, 24960, Note_on_c, 6, 69, 76
8, 25184, Note_on_c, 6, 69, 0
8, 25200, Note_on_c, 6, 69, 76
8, 25424, Note_on_c, 6, 69, 0
8, 25440, Note_on_c, 6, 69, 76
8, 25664, Note_on_c, 6, 69, 0
8, 25680, Note_on_c, 6, 69, 76
8, 25904, Note_on_c, 6, 69, 0
8, 25920, Note_on_c, 6, 62, 76
8, 26384, Note_on_c, 6, 62, 0
8, 26400, Note_on_c, 6, 71, 76
8, 26624, Note_on_c, 6, 71, 0
8, 26640, Note_on_c, 6, 69, 76
8, 27344, Note_on_c, 6, 69, 0
8, 27360, Note_on_c, 6, 62, 76
8, 27584, Note_on_c, 6, 62, 0
8, 27600, Note_on_c, 6, 67, 76
8, 27824, Note_on_c, 6, 67, 0
8, 27840, Note_on_c, 6, 64, 76
8, 28064, Note_on_c, 6, 64, 0
8, 28080, Note_on_c, 6, 66, 76
8, 28784, Note_on_c, 6, 66, 0
8, 28800, Note_on_c, 6, 69, 76
8, 29024, Note_on_c, 6, 69, 0
8, 29040, Note_on_c, 6, 66, 76
8, 29264, Note_on_c, 6, 66, 0
8, 29280, Note_on_c, 6, 64, 76
8, 29504, Note_on_c, 6, 64, 0
8, 29520, Note_on_c, 6, 64, 76
8, 29744, Note_on_c, 6, 64, 0
8, 29760, Note_on_c, 6, 69, 76
8, 30224, Note_on_c, 6, 69, 0
8, 30240, Note_on_c, 6, 69, 76
8, 30464, Note_on_c, 6, 69, 0
8, 30480, Note_on_c, 6, 71, 76
8, 30704, Note_on_c, 6, 71, 0
8, 30720, Note_on_c, 6, 69, 76
8, 30944, Note_on_c, 6, 69, 0
8, 30960, Note_on_c, 6, 69, 76
8, 31064, Note_on_c, 6, 69, 0
8, 31080, Note_on_c, 6, 67, 76
8, 31184, Note_on_c, 6, 67, 0
8, 31200, Note_on_c, 6, 66, 76
8, 31304, Note_on_c, 6, 66, 0
8, 31320, Note_on_c, 6, 67, 76
8, 31424, Note_on_c, 6, 67, 0
8, 31440, Note_on_c, 6, 69, 76
8, 31544, Note_on_c, 6, 69, 0
8, 31560, Note_on_c, 6, 71, 76
8, 31664, Note_on_c, 6, 71, 0
8, 31680, Note_on_c, 6, 72, 76
8, 31904, Note_on_c, 6, 72, 0
8, 31920, Note_on_c, 6, 71, 76
8, 32144, Note_on_c, 6, 71, 0
8, 32160, Note_on_c, 6, 69, 76
8, 32384, Note_on_c, 6, 69, 0
8, 32400, Note_on_c, 6, 67, 76
8, 32624, Note_on_c, 6, 67, 0
8, 32640, Note_on_c, 6, 66, 76
8, 32864, Note_on_c, 6, 66, 0
8, 32880, Note_on_c, 6, 64, 76
8, 33104, Note_on_c, 6, 64, 0
8, 33120, Note_on_c, 6, 69, 76
8, 33344, Note_on_c, 6, 69, 0
8, 33360, Note_on_c, 6, 63, 76
8, 33704, Note_on_c, 6, 63, 0
8, 33720, Note_on_c, 6, 64, 76
8, 33824, Note_on_c, 6, 64, 0
8, 33840, Note_on_c, 6, 64, 76
8, 34544, Note_on_c, 6, 64, 0
8, 34560, Note_on_c, 6, 71, 76
8, 34664, Note_on_c, 6, 71, 0
8, 34680, Note_on_c, 6, 69, 76
8, 34784, Note_on_c, 6, 69, 0
8, 34800, Note_on_c, 6, 67, 76
8, 34904, Note_on_c, 6, 67, 0
8, 34920, Note_on_c, 6, 69, 76
8, 35024, Note_on_c, 6, 69, 0
8, 35040, Note_on_c, 6, 71, 76
8, 35144, Note_on_c, 6, 71, 0
8, 35160, Note_on_c, 6, 67, 76
8, 35264, Note_on_c, 6, 67, 0
8, 35280, Note_on_c, 6, 64, 76
8, 35504, Note_on_c, 6, 64, 0
8, 35520, Note_on_c, 6, 73, 76
8, 35744, Note_on_c, 6, 73, 0
8, 35760, Note_on_c, 6, 69, 76
8, 36104, Note_on_c, 6, 69, 0
8, 36120, Note_on_c, 6, 67, 76
8, 36224, Note_on_c, 6, 67, 0
8, 36240, Note_on_c, 6, 66, 76
8, 36344, Note_on_c, 6, 66, 0
8, 36360, Note_on_c, 6, 67, 76
8, 36464, Note_on_c, 6, 67, 0
8, 36480, Note_on_c, 6, 69, 76
8, 36584, Note_on_c, 6, 69, 0
8, 36600, Note_on_c, 6, 66, 76
8, 36704, Note_on_c, 6, 66, 0
8, 36720, Note_on_c, 6, 62, 76
8, 36944, Note_on_c, 6, 62, 0
8, 36960, Note_on_c, 6, 71, 76
8, 37184, Note_on_c, 6, 71, 0
8, 37200, Note_on_c, 6, 67, 76
8, 37664, Note_on_c, 6, 67, 0
8, 37680, Note_on_c, 6, 73, 76
8, 37709, Note_on_c, 6, 73, 0
8, 37710, Note_on_c, 6, 74, 76
8, 37739, Note_on_c, 6, 74, 0
8, 37740, Note_on_c, 6, 73, 76
8, 37769, Note_on_c, 6, 73, 0
8, 37770, Note_on_c, 6, 74, 76
8, 37799, Note_on_c, 6, 74, 0
8, 37800, Note_on_c, 6, 73, 76
8, 37829, Note_on_c, 6, 73, 0
8, 37830, Note_on_c, 6, 74, 76
8, 37859, Note_on_c, 6, 74, 0
8, 37860, Note_on_c, 6, 73, 76
8, 37889, Note_on_c, 6, 73, 0
8, 37890, Note_on_c, 6, 74, 76
8, 37919, Note_on_c, 6, 74, 0
8, 37920, Note_on_c, 6, 73, 76
8, 37949, Note_on_c, 6, 73, 0
8, 37950, Note_on_c, 6, 74, 76
8, 37979, Note_on_c, 6, 74, 0
8, 37980, Note_on_c, 6, 73, 76
8, 38009, Note_on_c, 6, 73, 0
8, 38010, Note_on_c, 6, 74, 76
8, 38039, Note_on_c, 6, 74, 0
8, 38040, Note_on_c, 6, 71, 76
8, 38091, Note_on_c, 6, 71, 0
8, 38100, Note_on_c, 6, 73, 76
8, 38151, Note_on_c, 6, 73, 0
8, 38160, Note_on_c, 6, 74, 76
8, 38384, Note_on_c, 6, 74, 0
8, 38400, Note_on_c, 6, 69, 76
8, 38624, Note_on_c, 6, 69, 0
8, 38640, Note_on_c, 6, 66, 76
8, 38864, Note_on_c, 6, 66, 0
8, 38880, Note_on_c, 6, 62, 76
8, 39104, Note_on_c, 6, 62, 0
8, 39120, Note_on_c, 6, 64, 76
8, 39344, Note_on_c, 6, 64, 0
8, 39360, Note_on_c, 6, 66, 76
8, 39584, Note_on_c, 6, 66, 0
8, 39600, Note_on_c, 6, 69, 76
8, 39824, Note_on_c, 6, 69, 0
8, 39840, Note_on_c, 6, 64, 76
8, 40304, Note_on_c, 6, 64, 0
8, 40320, Note_on_c, 6, 62, 76
8, 40544, Note_on_c, 6, 62, 0
8, 40560, Note_on_c, 6, 62, 76
8, 40784, Note_on_c, 6, 62, 0
8, 40800, Note_on_c, 6, 62, 76
8, 41024, Note_on_c, 6, 62, 0
8, 41040, Note_on_c, 6, 62, 76
8, 41264, Note_on_c, 6, 62, 0
8, 41280, Note_on_c, 6, 62, 76
8, 41504, Note_on_c, 6, 62, 0
8, 41520, Note_on_c, 6, 62, 76
8, 41744, Note_on_c, 6, 62, 0
8, 41760, Note_on_c, 6, 62, 76
8, 41984, Note_on_c, 6, 62, 0
8, 42000, Note_on_c, 6, 69, 76
8, 42224, Note_on_c, 6, 69, 0
8, 42240, Note_on_c, 6, 69, 76
8, 42464, Note_on_c, 6, 69, 0
8, 42480, Note_on_c, 6, 69, 76
8, 42704, Note_on_c, 6, 69, 0
8, 42720, Note_on_c, 6, 69, 76
8, 42944, Note_on_c, 6, 69, 0
8, 42960, Note_on_c, 6, 69, 76
8, 43184, Note_on_c, 6, 69, 0
8, 43200, Note_on_c, 6, 62, 76
8, 43664, Note_on_c, 6, 62, 0
8, 43680, Note_on_c, 6, 71, 76
8, 43904, Note_on_c, 6, 71, 0
8, 43920, Note_on_c, 6, 69, 76
8, 44624, Note_on_c, 6, 69, 0
8, 44640, Note_on_c, 6, 62, 76
8, 44864, Note_on_c, 6, 62, 0
8, 44880, Note_on_c, 6, 67, 76
8, 45104, Note_on_c, 6, 67, 0
8, 45120, Note_on_c, 6, 64, 76
8, 45344, Note_on_c, 6, 64, 0
8, 45360, Note_on_c, 6, 66, 76
8, 46079, Note_on_c, 6, 66, 0
8, 81120, Note_on_c, 6, 69, 76
8, 81344, Note_on_c, 6, 69, 0
8, 81360, Note_on_c, 6, 62, 76
8, 81584, Note_on_c, 6, 62, 0
8, 81600, Note_on_c, 6, 71, 76
8, 81824, Note_on_c, 6, 71, 0
8, 81840, Note_on_c, 6, 69, 76
8, 82544, Note_on_c, 6, 69, 0
8, 82560, Note_on_c, 6, 62, 76
8, 82784, Note_on_c, 6, 62, 0
8, 82800, Note_on_c, 6, 67, 76
8, 83024, Note_on_c, 6, 67, 0
8, 83040, Note_on_c, 6, 64, 76
8, 83264, Note_on_c, 6, 64, 0
8, 83280, Note_on_c, 6, 66, 76
8, 83384, Note_on_c, 6, 66, 0
8, 83400, Note_on_c, 6, 64, 76
8, 83504, Note_on_c, 6, 64, 0
8, 83520, Note_on_c, 6, 66, 76
8, 83624, Note_on_c, 6, 66, 0
8, 83640, Note_on_c, 6, 67, 76
8, 83744, Note_on_c, 6, 67, 0
8, 83760, Note_on_c, 6, 69, 76
8, 83984, Note_on_c, 6, 69, 0
8, 84000, Note_on_c, 6, 64, 76
8, 84224, Note_on_c, 6, 64, 0
8, 84240, Note_on_c, 6, 69, 76
8, 84464, Note_on_c, 6, 69, 0
8, 84480, Note_on_c, 6, 61, 76
8, 84704, Note_on_c, 6, 61, 0
8, 84720, Note_on_c, 6, 62, 76
8, 84944, Note_on_c, 6, 62, 0
8, 84960, Note_on_c, 6, 69, 76
8, 85424, Note_on_c, 6, 69, 0
8, 85440, Note_on_c, 6, 69, 76
8, 85664, Note_on_c, 6, 69, 0
8, 85680, Note_on_c, 6, 62, 76
8, 85904, Note_on_c, 6, 62, 0
8, 85920, Note_on_c, 6, 64, 76
8, 86144, Note_on_c, 6, 64, 0
8, 86160, Note_on_c, 6, 64, 76
8, 86864, Note_on_c, 6, 64, 0
8, 86880, Note_on_c, 6, 69, 76
8, 87104, Note_on_c, 6, 69, 0
8, 87120, Note_on_c, 6, 62, 76
8, 87344, Note_on_c, 6, 62, 0
8, 87360, Note_on_c, 6, 71, 76
8, 87584, Note_on_c, 6, 71, 0
8, 87600, Note_on_c, 6, 69, 76
8, 88304, Note_on_c, 6, 69, 0
8, 88320, Note_on_c, 6, 62, 76
8, 88544, Note_on_c, 6, 62, 0
8, 88560, Note_on_c, 6, 67, 76
8, 88784, Note_on_c, 6, 67, 0
8, 88800, Note_on_c, 6, 64, 76
8, 89024, Note_on_c, 6, 64, 0
8, 89040, Note_on_c, 6, 66, 76
8, 89144, Note_on_c, 6, 66, 0
8, 89160, Note_on_c, 6, 64, 76
8, 89264, Note_on_c, 6, 64, 0
8, 89280, Note_on_c, 6, 66, 76
8, 89384, Note_on_c, 6, 66, 0
8, 89400, Note_on_c, 6, 67, 76
8, 89504, Note_on_c, 6, 67, 0
8, 89520, Note_on_c, 6, 69, 76
8, 89744, Note_on_c, 6, 69, 0
8, 89760, Note_on_c, 6, 64, 76
8, 89984, Note_on_c, 6, 64, 0
8, 90000, Note_on_c, 6, 69, 76
8, 90224, Note_on_c, 6, 69, 0
8, 90240, Note_on_c, 6, 61, 76
8, 90464, Note_on_c, 6, 61, 0
8, 90480, Note_on_c, 6, 62, 76
8, 90704, Note_on_c, 6, 62, 0
8, 90720, Note_on_c, 6, 69, 76
8, 91184, Note_on_c, 6, 69, 0
8, 91200, Note_on_c, 6, 69, 76
8, 91424, Note_on_c, 6, 69, 0
8, 91440, Note_on_c, 6, 62, 76
8, 91664, Note_on_c, 6, 62, 0
8, 91680, Note_on_c, 6, 64, 76
8, 91904, Note_on_c, 6, 64, 0
8, 91920, Note_on_c, 6, 64, 76
8, 92624, Note_on_c, 6, 64, 0
8, 92640, Note_on_c, 6, 69, 76
8, 92864, Note_on_c, 6, 69, 0
8, 92880, Note_on_c, 6, 66, 76
8, 93104, Note_on_c, 6, 66, 0
8, 93120, Note_on_c, 6, 64, 76
8, 93344, Note_on_c, 6, 64, 0
8, 93360, Note_on_c, 6, 64, 76
8, 93584, Note_on_c, 6, 64, 0
8, 93600, Note_on_c, 6, 69, 76
8, 94064, Note_on_c, 6, 69, 0
8, 94080, Note_on_c, 6, 69, 76
8, 94304, Note_on_c, 6, 69, 0
8, 94320, Note_on_c, 6, 71, 76
8, 94544, Note_on_c, 6, 71, 0
8, 94560, Note_on_c, 6, 69, 76
8, 94784, Note_on_c, 6, 69, 0
8, 94800, Note_on_c, 6, 69, 76
8, 94904, Note_on_c, 6, 69, 0
8, 94920, Note_on_c, 6, 67, 76
8, 95024, Note_on_c, 6, 67, 0
8, 95040, Note_on_c, 6, 66, 76
8, 95144, Note_on_c, 6, 66, 0
8, 95160, Note_on_c, 6, 67, 76
8, 95264, Note_on_c, 6, 67, 0
8, 95280, Note_on_c, 6, 69, 76
8, 95384, Note_on_c, 6, 69, 0
8, 95400, Note_on_c, 6, 71, 76
8, 95504, Note_on_c, 6, 71, 0
8, 95520, Note_on_c, 6, 72, 76
8, 95744, Note_on_c, 6, 72, 0
8, 95760, Note_on_c, 6, 71, 76
8, 95984, Note_on_c, 6, 71, 0
8, 96000, Note_on_c, 6, 69, 76
8, 96224, Note_on_c, 6, 69, 0
8, 96240, Note_on_c, 6, 67, 76
8, 96464, Note_on_c, 6, 67, 0
8, 96480, Note_on_c, 6, 66, 76
8, 96704, Note_on_c, 6, 66, 0
8, 96720, Note_on_c, 6, 64, 76
8, 96944, Note_on_c, 6, 64, 0
8, 96960, Note_on_c, 6, 69, 76
8, 97184, Note_on_c, 6, 69, 0
8, 97200, Note_on_c, 6, 63, 76
8, 97544, Note_on_c, 6, 63, 0
8, 97560, Note_on_c, 6, 64, 76
8, 97664, Note_on_c, 6, 64, 0
8, 97680, Note_on_c, 6, 64, 76
8, 98384, Note_on_c, 6, 64, 0
8, 98400, Note_on_c, 6, 71, 76
8, 98504, Note_on_c, 6, 71, 0
8, 98520, Note_on_c, 6, 69, 76
8, 98624, Note_on_c, 6, 69, 0
8, 98640, Note_on_c, 6, 67, 76
8, 98744, Note_on_c, 6, 67, 0
8, 98760, Note_on_c, 6, 69, 76
8, 98864, Note_on_c, 6, 69, 0
8, 98880, Note_on_c, 6, 71, 76
8, 98984, Note_on_c, 6, 71, 0
8, 99000, Note_on_c, 6, 67, 76
8, 99104, Note_on_c, 6, 67, 0
8, 99120, Note_on_c, 6, 64, 76
8, 99344, Note_on_c, 6, 64, 0
8, 99360, Note_on_c, 6, 73, 76
8, 99584, Note_on_c, 6, 73, 0
8, 99600, Note_on_c, 6, 69, 76
8, 99944, Note_on_c, 6, 69, 0
8, 99960, Note_on_c, 6, 67, 76
8, 100064, Note_on_c, 6, 67, 0
8, 100080, Note_on_c, 6, 66, 76
8, 100184, Note_on_c, 6, 66, 0
8, 100200, Note_on_c, 6, 67, 76
8, 100304, Note_on_c, 6, 67, 0
8, 100320, Note_on_c, 6, 69, 76
8, 100424, Note_on_c, 6, 69, 0
8, 100440, Note_on_c, 6, 66, 76
8, 100544, Note_on_c, 6, 66, 0
8, 100560, Note_on_c, 6, 62, 76
8, 100784, Note_on_c, 6, 62, 0
8, 100800, Note_on_c, 6, 71, 76
8, 101024, Note_on_c, 6, 71, 0
8, 101040, Note_on_c, 6, 67, 76
8, 101504, Note_on_c, 6, 67, 0
8, 101520, Note_on_c, 6, 73, 76
8, 101549, Note_on_c, 6, 73, 0
8, 101550, Note_on_c, 6, 74, 76
8, 101579, Note_on_c, 6, 74, 0
8, 101580, Note_on_c, 6, 73, 76
8, 101609, Note_on_c, 6, 73, 0
8, 101610, Note_on_c, 6, 74, 76
8, 101639, Note_on_c, 6, 74, 0
8, 101640, Note_on_c, 6, 73, 76
8, 101669, Note_on_c, 6, 73, 0
8, 101670, Note_on_c, 6, 74, 76
8, 101699, Note_on_c, 6, 74, 0
8, 101700, Note_on_c, 6, 73, 76
8, 101729, Note_on_c, 6, 73, 0
8, 101730, Note_on_c, 6, 74, 76
8, 101759, Note_on_c, 6, 74, 0
8, 101760, Note_on_c, 6, 73, 76
8, 101789, Note_on_c, 6, 73, 0
8, 101790, Note_on_c, 6, 74, 76
8, 101819, Note_on_c, 6, 74, 0
8, 101820, Note_on_c, 6, 73, 76
8, 101849, Note_on_c, 6, 73, 0
8, 101850, Note_on_c, 6, 74, 76
8, 101879, Note_on_c, 6, 74, 0
8, 101880, Note_on_c, 6, 71, 76
8, 101931, Note_on_c, 6, 71, 0
8, 101940, Note_on_c, 6, 73, 76
8, 101991, Note_on_c, 6, 73, 0
8, 102000, Note_on_c, 6, 74, 76
8, 102224, Note_on_c, 6, 74, 0
8, 102240, Note_on_c, 6, 69, 76
8, 102464, Note_on_c, 6, 69, 0
8, 102480, Note_on_c, 6, 66, 76
8, 102704, Note_on_c, 6, 66, 0
8, 102720, Note_on_c, 6, 62, 76
8, 102944, Note_on_c, 6, 62, 0
8, 102960, Note_on_c, 6, 64, 76
8, 103184, Note_on_c, 6, 64, 0
8, 103200, Note_on_c, 6, 66, 76
8, 103424, Note_on_c, 6, 66, 0
8, 103440, Note_on_c, 6, 69, 76
8, 103664, Note_on_c, 6, 69, 0
8, 103680, Note_on_c, 6, 64, 76
8, 104144, Note_on_c, 6, 64, 0
8, 104160, Note_on_c, 6, 62, 76
8, 104384, Note_on_c, 6, 62, 0
8, 104400, Note_on_c, 6, 62, 76
8, 104624, Note_on_c, 6, 62, 0
8, 104640, Note_on_c, 6, 62, 76
8, 104864, Note_on_c, 6, 62, 0
8, 104880, Note_on_c, 6, 62, 76
8, 105104, Note_on_c, 6, 62, 0
8, 105120, Note_on_c, 6, 62, 76
8, 105344, Note_on_c, 6, 62, 0
8, 105360, Note_on_c, 6, 62, 76
8, 105584, Note_on_c, 6, 62, 0
8, 105600, Note_on_c, 6, 62, 76
8, 105824, Note_on_c, 6, 62, 0
8, 105840, Note_on_c, 6, 69, 76
8, 106064, Note_on_c, 6, 69, 0
8, 106080, Note_on_c, 6, 69, 76
8, 106304, Note_on_c, 6, 69, 0
8, 106320, Note_on_c, 6, 69, 76
8, 106544, Note_on_c, 6, 69, 0
8, 106560, Note_on_c, 6, 69, 76
8, 106784, Note_on_c, 6, 69, 0
8, 106800, Note_on_c, 6, 69, 76
8, 107024, Note_on_c, 6, 69, 0
8, 107040, Note_on_c, 6, 62, 76
8, 107504, Note_on_c, 6, 62, 0
8, 107520, Note_on_c, 6, 71, 76
8, 107744, Note_on_c, 6, 71, 0
8, 107760, Note_on_c, 6, 69, 76
8, 108464, Note_on_c, 6, 69, 0
8, 108480, Note_on_c, 6, 62, 76
8, 108704, Note_on_c, 6, 62, 0
8, 108720, Note_on_c, 6, 67, 76
8, 108944, Note_on_c, 6, 67, 0
8, 108960, Note_on_c, 6, 64, 76
8, 109184, Note_on_c, 6, 64, 0
8, 109200, Note_on_c, 6, 66, 76
8, 109904, Note_on_c, 6, 66, 0
8, 109920, Note_on_c, 6, 69, 76
8, 110144, Note_on_c, 6, 69, 0
8, 110160, Note_on_c, 6, 66, 76
8, 110384, Note_on_c, 6, 66, 0
8, 110400, Note_on_c, 6, 64, 76
8, 110624, Note_on_c, 6, 64, 0
8, 110640, Note_on_c, 6, 64, 76
8, 110864, Note_on_c, 6, 64, 0
8, 110880, Note_on_c, 6, 69, 76
8, 111344, Note_on_c, 6, 69, 0
8, 111360, Note_on_c, 6, 69, 76
8, 111584, Note_on_c, 6, 69, 0
8, 111600, Note_on_c, 6, 71, 76
8, 111824, Note_on_c, 6, 71, 0
8, 111840, Note_on_c, 6, 69, 76
8, 112064, Note_on_c, 6, 69, 0
8, 112080, Note_on_c, 6, 69, 76
8, 112184, Note_on_c, 6, 69, 0
8, 112200, Note_on_c, 6, 67, 76
8, 112304, Note_on_c, 6, 67, 0
8, 112320, Note_on_c, 6, 66, 76
8, 112424, Note_on_c, 6, 66, 0
8, 112440, Note_on_c, 6, 67, 76
8, 112544, Note_on_c, 6, 67, 0
8, 112560, Note_on_c, 6, 69, 76
8, 112664, Note_on_c, 6, 69, 0
8, 112680, Note_on_c, 6, 71, 76
8, 112784, Note_on_c, 6, 71, 0
8, 112800, Note_on_c, 6, 72, 76
8, 113024, Note_on_c, 6, 72, 0
8, 113040, Note_on_c, 6, 71, 76
8, 113264, Note_on_c, 6, 71, 0
8, 113280, Note_on_c, 6, 69, 76
8, 113504, Note_on_c, 6, 69, 0
8, 113520, Note_on_c, 6, 67, 76
8, 113744, Note_on_c, 6, 67, 0
8, 113760, Note_on_c, 6, 66, 76
8, 113984, Note_on_c, 6, 66, 0
8, 114000, Note_on_c, 6, 64, 76
8, 114224, Note_on_c, 6, 64, 0
8, 114240, Note_on_c, 6, 69, 76
8, 114464, Note_on_c, 6, 69, 0
8, 114480, Note_on_c, 6, 63, 76
8, 114824, Note_on_c, 6, 63, 0
8, 114840, Note_on_c, 6, 64, 76
8, 114944, Note_on_c, 6, 64, 0
8, 114960, Note_on_c, 6, 64, 76
8, 115664, Note_on_c, 6, 64, 0
8, 115680, Note_on_c, 6, 71, 76
8, 115784, Note_on_c, 6, 71, 0
8, 115800, Note_on_c, 6, 69, 76
8, 115904, Note_on_c, 6, 69, 0
8, 115920, Note_on_c, 6, 67, 76
8, 116024, Note_on_c, 6, 67, 0
8, 116040, Note_on_c, 6, 69, 76
8, 116144, Note_on_c, 6, 69, 0
8, 116160, Note_on_c, 6, 71, 76
8, 116264, Note_on_c, 6, 71, 0
8, 116280, Note_on_c, 6, 67, 76
8, 116384, Note_on_c, 6, 67, 0
8, 116400, Note_on_c, 6, 64, 76
8, 116624, Note_on_c, 6, 64, 0
8, 116640, Note_on_c, 6, 73, 76
8, 116864, Note_on_c, 6, 73, 0
8, 116880, Note_on_c, 6, 69, 76
8, 117224, Note_on_c, 6, 69, 0
8, 117240, Note_on_c, 6, 67, 76
8, 117344, Note_on_c, 6, 67, 0
8, 117360, Note_on_c, 6, 66, 76
8, 117464, Note_on_c, 6, 66, 0
8, 117480, Note_on_c, 6, 67, 76
8, 117584, Note_on_c, 6, 67, 0
8, 117600, Note_on_c, 6, 69, 76
8, 117704, Note_on_c, 6, 69, 0
8, 117720, Note_on_c, 6, 66, 76
8, 117824, Note_on_c, 6, 66, 0
8, 117840, Note_on_c, 6, 62, 76
8, 118064, Note_on_c, 6, 62, 0
8, 118080, Note_on_c, 6, 71, 76
8, 118304, Note_on_c, 6, 71, 0
8, 118320, Note_on_c, 6, 67, 76
8, 118784, Note_on_c, 6, 67, 0
8, 118800, Note_on_c, 6, 73, 76
8, 118829, Note_on_c, 6, 73, 0
8, 118830, Note_on_c, 6, 74, 76
8, 118859, Note_on_c, 6, 74, 0
8, 118860, Note_on_c, 6, 73, 76
8, 118889, Note_on_c, 6, 73, 0
8, 118890, Note_on_c, 6, 74, 76
8, 118919, Note_on_c, 6, 74, 0
8, 118920, Note_on_c, 6, 73, 76
8, 118949, Note_on_c, 6, 73, 0
8, 118950, Note_on_c, 6, 74, 76
8, 118979, Note_on_c, 6, 74, 0
8, 118980, Note_on_c, 6, 73, 76
8, 119009, Note_on_c, 6, 73, 0
8, 119010, Note_on_c, 6, 74, 76
8, 119039, Note_on_c, 6, 74, 0
8, 119040, Note_on_c, 6, 73, 76
8, 119069, Note_on_c, 6, 73, 0
8, 119070, Note_on_c, 6, 74, 76
8, 119099, Note_on_c, 6, 74, 0
8, 119100, Note_on_c, 6, 73, 76
8, 119129, Note_on_c, 6, 73, 0
8, 119130, Note_on_c, 6, 74, 76
8, 119159, Note_on_c, 6, 74, 0
8, 119160, Note_on_c, 6, 71, 76
8, 119211, Note_on_c, 6, 71, 0
8, 119220, Note_on_c, 6, 73, 76
8, 119271, Note_on_c, 6, 73, 0
8, 119280, Note_on_c, 6, 74, 76
8, 119504, Note_on_c, 6, 74, 0
8, 119520, Note_on_c, 6, 69, 76
8, 119744, Note_on_c, 6, 69, 0
8, 119760, Note_on_c, 6, 66, 76
8, 119984, Note_on_c, 6, 66, 0
8, 120000, Note_on_c, 6, 62, 76
8, 120224, Note_on_c, 6, 62, 0
8, 120240, Note_on_c, 6, 64, 76
8, 120464, Note_on_c, 6, 64, 0
8, 120480, Note_on_c, 6, 66, 76
8, 120704, Note_on_c, 6, 66, 0
8, 120720, Note_on_c, 6, 69, 76
8, 120944, Note_on_c, 6, 69, 0
8, 120960, Note_on_c, 6, 64, 76
8, 121424, Note_on_c, 6, 64, 0
8, 121440, Note_on_c, 6, 62, 76
8, 121664, Note_on_c, 6, 62, 0
8, 121680, Note_on_c, 6, 62, 76
8, 121904, Note_on_c, 6, 62, 0
8, 121920, Note_on_c, 6, 62, 76
8, 122144, Note_on_c, 6, 62, 0
8, 122160, Note_on_c, 6, 62, 76
8, 122384, Note_on_c, 6, 62, 0
8, 122400, Note_on_c, 6, 62, 76
8, 122624, Note_on_c, 6, 62, 0
8, 122640, Note_on_c, 6, 62, 76
8, 122864, Note_on_c, 6, 62, 0
8, 122880, Note_on_c, 6, 62, 76
8, 123104, Note_on_c, 6, 62, 0
8, 123120, Note_on_c, 6, 69, 76
8, 123344, Note_on_c, 6, 69, 0
8, 123360, Note_on_c, 6, 69, 76
8, 123584, Note_on_c, 6, 69, 0
8, 123600, Note_on_c, 6, 69, 76
8, 123824, Note_on_c, 6, 69, 0
8, 123840, Note_on_c, 6, 69, 76
8, 124064, Note_on_c, 6, 69, 0
8, 124080, Note_on_c, 6, 69, 76
8, 124304, Note_on_c, 6, 69, 0
8, 124320, Note_on_c, 6, 62, 76
8, 124784, Note_on_c, 6, 62, 0
8, 124800, Note_on_c, 6, 71, 76
8, 125024, Note_on_c, 6, 71, 0
8, 125040, Note_on_c, 6, 69, 76
8, 125744, Note_on_c, 6, 69, 0
8, 125760, Note_on_c, 6, 62, 76
8, 125984, Note_on_c, 6, 62, 0
8, 126000, Note_on_c, 6, 67, 76
8, 126224, Note_on_c, 6, 67, 0
8, 126240, Note_on_c, 6, 64, 76
8, 126464, Note_on_c, 6, 64, 0
8, 126480, Note_on_c, 6, 66, 76
8, 127199, Note_on_c, 6, 66, 0
8, 127199, End_track
9, 0, Start_track
9, 0, Title_t, "Bassoon"
9, 0, MIDI_port, 0
9, 0, Program_c, 7, 70
9, 0, Control_c, 7, 10, 74
9, 0, Control_c, 7, 11, 127
9, 0, Control_c, 7, 7, 88
9, 0, Note_on_c, 7, 62, 76
9, 104, Note_on_c, 7, 62, 0
9, 120, Note_on_c, 7, 61, 76
9, 224, Note_on_c, 7, 61, 0
9, 240, Note_on_c, 7, 59, 76
9, 344, Note_on_c, 7, 59, 0
9, 360, Note_on_c, 7, 57, 76
9, 464, Note_on_c, 7, 57, 0
9, 480, Note_on_c, 7, 59, 76
9, 584, Note_on_c, 7, 59, 0
9, 600, Note_on_c, 7, 55, 76
9, 704, Note_on_c, 7, 55, 0
9, 720, Note_on_c, 7, 54, 76
9, 1424, Note_on_c, 7, 54, 0
9, 1440, Note_on_c, 7, 55, 76
9, 1664, Note_on_c, 7, 55, 0
9, 1680, Note_on_c, 7, 52, 76
9, 1904, Note_on_c, 7, 52, 0
9, 1920, Note_on_c, 7, 57, 76
9, 2144, Note_on_c, 7, 57, 0
9, 2160, Note_on_c, 7, 54, 76
9, 2384, Note_on_c, 7, 54, 0
9, 2400, Note_on_c, 7, 52, 76
9, 2624, Note_on_c, 7, 52, 0
9, 2640, Note_on_c, 7, 50, 76
9, 2864, Note_on_c, 7, 50, 0
9, 2880, Note_on_c, 7, 49, 76
9, 2984, Note_on_c, 7, 49, 0
9, 3000, Note_on_c, 7, 47, 76
9, 3104, Note_on_c, 7, 47, 0
9, 3120, Note_on_c, 7, 45, 76
9, 3224, Note_on_c, 7, 45, 0
9, 3240, Note_on_c, 7, 43, 76
9, 3344, Note_on_c, 7, 43, 0
9, 3360, Note_on_c, 7, 45, 76
9, 3464, Note_on_c, 7, 45, 0
9, 3480, Note_on_c, 7, 42, 76
9, 3584, Note_on_c, 7, 42, 0
9, 3600, Note_on_c, 7, 47, 76
9, 3824, Note_on_c, 7, 47, 0
9, 3840, Note_on_c, 7, 49, 76
9, 4064, Note_on_c, 7, 49, 0
9, 4080, Note_on_c, 7, 45, 76
9, 4304, Note_on_c, 7, 45, 0
9, 4320, Note_on_c, 7, 50, 76
9, 4544, Note_on_c, 7, 50, 0
9, 4560, Note_on_c, 7, 47, 76
9, 4784, Note_on_c, 7, 47, 0
9, 4800, Note_on_c, 7, 52, 76
9, 5024, Note_on_c, 7, 52, 0
9, 5040, Note_on_c, 7, 45, 76
9, 5264, Note_on_c, 7, 45, 0
9, 5280, Note_on_c, 7, 57, 76
9, 5384, Note_on_c, 7, 57, 0
9, 5400, Note_on_c, 7, 59, 76
9, 5504, Note_on_c, 7, 59, 0
9, 5520, Note_on_c, 7, 61, 76
9, 5624, Note_on_c, 7, 61, 0
9, 5640, Note_on_c, 7, 57, 76
9, 5744, Note_on_c, 7, 57, 0
9, 5760, Note_on_c, 7, 62, 76
9, 5864, Note_on_c, 7, 62, 0
9, 5880, Note_on_c, 7, 61, 76
9, 5984, Note_on_c, 7, 61, 0
9, 6000, Note_on_c, 7, 59, 76
9, 6104, Note_on_c, 7, 59, 0
9, 6120, Note_on_c, 7, 57, 76
9, 6224, Note_on_c, 7, 57, 0
9, 6240, Note_on_c, 7, 59, 76
9, 6344, Note_on_c, 7, 59, 0
9, 6360, Note_on_c, 7, 55, 76
9, 6464, Note_on_c, 7, 55, 0
9, 6480, Note_on_c, 7, 54, 76
9, 7184, Note_on_c, 7, 54, 0
9, 7200, Note_on_c, 7, 55, 76
9, 7424, Note_on_c, 7, 55, 0
9, 7440, Note_on_c, 7, 52, 76
9, 7664, Note_on_c, 7, 52, 0
9, 7680, Note_on_c, 7, 57, 76
9, 7904, Note_on_c, 7, 57, 0
9, 7920, Note_on_c, 7, 54, 76
9, 8144, Note_on_c, 7, 54, 0
9, 8160, Note_on_c, 7, 52, 76
9, 8384, Note_on_c, 7, 52, 0
9, 8400, Note_on_c, 7, 50, 76
9, 8624, Note_on_c, 7, 50, 0
9, 8640, Note_on_c, 7, 49, 76
9, 8744, Note_on_c, 7, 49, 0
9, 8760, Note_on_c, 7, 47, 76
9, 8864, Note_on_c, 7, 47, 0
9, 8880, Note_on_c, 7, 45, 76
9, 8984, Note_on_c, 7, 45, 0
9, 9000, Note_on_c, 7, 43, 76
9, 9104, Note_on_c, 7, 43, 0
9, 9120, Note_on_c, 7, 45, 76
9, 9224, Note_on_c, 7, 45, 0
9, 9240, Note_on_c, 7, 42, 76
9, 9344, Note_on_c, 7, 42, 0
9, 9360, Note_on_c, 7, 47, 76
9, 9584, Note_on_c, 7, 47, 0
9, 9600, Note_on_c, 7, 49, 76
9, 9824, Note_on_c, 7, 49, 0
9, 9840, Note_on_c, 7, 45, 76
9, 10064, Note_on_c, 7, 45, 0
9, 10080, Note_on_c, 7, 50, 76
9, 10304, Note_on_c, 7, 50, 0
9, 10320, Note_on_c, 7, 47, 76
9, 10544, Note_on_c, 7, 47, 0
9, 10560, Note_on_c, 7, 52, 76
9, 10784, Note_on_c, 7, 52, 0
9, 10800, Note_on_c, 7, 45, 76
9, 11024, Note_on_c, 7, 45, 0
9, 11040, Note_on_c, 7, 49, 76
9, 11264, Note_on_c, 7, 49, 0
9, 11280, Note_on_c, 7, 52, 76
9, 11504, Note_on_c, 7, 52, 0
9, 11520, Note_on_c, 7, 57, 76
9, 11984, Note_on_c, 7, 57, 0
9, 12000, Note_on_c, 7, 56, 76
9, 12224, Note_on_c, 7, 56, 0
9, 12240, Note_on_c, 7, 57, 76
9, 12464, Note_on_c, 7, 57, 0
9, 12480, Note_on_c, 7, 55, 76
9, 12584, Note_on_c, 7, 55, 0
9, 12600, Note_on_c, 7, 54, 76
9, 12704, Note_on_c, 7, 54, 0
9, 12720, Note_on_c, 7, 55, 76
9, 12824, Note_on_c, 7, 55, 0
9, 12840, Note_on_c, 7, 52, 76
9, 12944, Note_on_c, 7, 52, 0
9, 12960, Note_on_c, 7, 54, 76
9, 13184, Note_on_c, 7, 54, 0
9, 13200, Note_on_c, 7, 55, 76
9, 13424, Note_on_c, 7, 55, 0
9, 13440, Note_on_c, 7, 57, 76
9, 13664, Note_on_c, 7, 57, 0
9, 13680, Note_on_c, 7, 50, 76
9, 13904, Note_on_c, 7, 50, 0
9, 13920, Note_on_c, 7, 62, 76
9, 14144, Note_on_c, 7, 62, 0
9, 14160, Note_on_c, 7, 57, 76
9, 14384, Note_on_c, 7, 57, 0
9, 14400, Note_on_c, 7, 54, 76
9, 14504, Note_on_c, 7, 54, 0
9, 14520, Note_on_c, 7, 52, 76
9, 14624, Note_on_c, 7, 52, 0
9, 14640, Note_on_c, 7, 51, 76
9, 14744, Note_on_c, 7, 51, 0
9, 14760, Note_on_c, 7, 49, 76
9, 14864, Note_on_c, 7, 49, 0
9, 14880, Note_on_c, 7, 51, 76
9, 14984, Note_on_c, 7, 51, 0
9, 15000, Note_on_c, 7, 47, 76
9, 15104, Note_on_c, 7, 47, 0
9, 15120, Note_on_c, 7, 52, 76
9, 15344, Note_on_c, 7, 52, 0
9, 15360, Note_on_c, 7, 59, 76
9, 15584, Note_on_c, 7, 59, 0
9, 15600, Note_on_c, 7, 60, 76
9, 15824, Note_on_c, 7, 60, 0
9, 15840, Note_on_c, 7, 57, 76
9, 16064, Note_on_c, 7, 57, 0
9, 16080, Note_on_c, 7, 59, 76
9, 16304, Note_on_c, 7, 59, 0
9, 16320, Note_on_c, 7, 47, 76
9, 16544, Note_on_c, 7, 47, 0
9, 16560, Note_on_c, 7, 52, 76
9, 16784, Note_on_c, 7, 52, 0
9, 16800, Note_on_c, 7, 43, 76
9, 17024, Note_on_c, 7, 43, 0
9, 17040, Note_on_c, 7, 47, 76
9, 17264, Note_on_c, 7, 47, 0
9, 17280, Note_on_c, 7, 40, 76
9, 17504, Note_on_c, 7, 40, 0
9, 17520, Note_on_c, 7, 52, 76
9, 17624, Note_on_c, 7, 52, 0
9, 17640, Note_on_c, 7, 54, 76
9, 17744, Note_on_c, 7, 54, 0
9, 17760, Note_on_c, 7, 55, 76
9, 17864, Note_on_c, 7, 55, 0
9, 17880, Note_on_c, 7, 52, 76
9, 17984, Note_on_c, 7, 52, 0
9, 18000, Note_on_c, 7, 57, 76
9, 18104, Note_on_c, 7, 57, 0
9, 18120, Note_on_c, 7, 55, 76
9, 18224, Note_on_c, 7, 55, 0
9, 18240, Note_on_c, 7, 57, 76
9, 18344, Note_on_c, 7, 57, 0
9, 18360, Note_on_c, 7, 59, 76
9, 18464, Note_on_c, 7, 59, 0
9, 18480, Note_on_c, 7, 61, 76
9, 18584, Note_on_c, 7, 61, 0
9, 18600, Note_on_c, 7, 57, 76
9, 18704, Note_on_c, 7, 57, 0
9, 18720, Note_on_c, 7, 62, 76
9, 18944, Note_on_c, 7, 62, 0
9, 18960, Note_on_c, 7, 50, 76
9, 19064, Note_on_c, 7, 50, 0
9, 19080, Note_on_c, 7, 52, 76
9, 19184, Note_on_c, 7, 52, 0
9, 19200, Note_on_c, 7, 54, 76
9, 19304, Note_on_c, 7, 54, 0
9, 19320, Note_on_c, 7, 50, 76
9, 19424, Note_on_c, 7, 50, 0
9, 19440, Note_on_c, 7, 55, 76
9, 19544, Note_on_c, 7, 55, 0
9, 19560, Note_on_c, 7, 54, 76
9, 19664, Note_on_c, 7, 54, 0
9, 19680, Note_on_c, 7, 55, 76
9, 19784, Note_on_c, 7, 55, 0
9, 19800, Note_on_c, 7, 57, 76
9, 19904, Note_on_c, 7, 57, 0
9, 19920, Note_on_c, 7, 59, 76
9, 20024, Note_on_c, 7, 59, 0
9, 20040, Note_on_c, 7, 55, 76
9, 20144, Note_on_c, 7, 55, 0
9, 20160, Note_on_c, 7, 57, 76
9, 20384, Note_on_c, 7, 57, 0
9, 20400, Note_on_c, 7, 55, 76
9, 20504, Note_on_c, 7, 55, 0
9, 20520, Note_on_c, 7, 54, 76
9, 20624, Note_on_c, 7, 54, 0
9, 20640, Note_on_c, 7, 55, 76
9, 20744, Note_on_c, 7, 55, 0
9, 20760, Note_on_c, 7, 52, 76
9, 20864, Note_on_c, 7, 52, 0
9, 20880, Note_on_c, 7, 54, 76
9, 20984, Note_on_c, 7, 54, 0
9, 21000, Note_on_c, 7, 52, 76
9, 21104, Note_on_c, 7, 52, 0
9, 21120, Note_on_c, 7, 50, 76
9, 21224, Note_on_c, 7, 50, 0
9, 21240, Note_on_c, 7, 52, 76
9, 21344, Note_on_c, 7, 52, 0
9, 21360, Note_on_c, 7, 54, 76
9, 21464, Note_on_c, 7, 54, 0
9, 21480, Note_on_c, 7, 50, 76
9, 21584, Note_on_c, 7, 50, 0
9, 21600, Note_on_c, 7, 55, 76
9, 21824, Note_on_c, 7, 55, 0
9, 21840, Note_on_c, 7, 52, 76
9, 22064, Note_on_c, 7, 52, 0
9, 22080, Note_on_c, 7, 50, 76
9, 22304, Note_on_c, 7, 50, 0
9, 22320, Note_on_c, 7, 57, 76
9, 22784, Note_on_c, 7, 57, 0
9, 22800, Note_on_c, 7, 55, 76
9, 23024, Note_on_c, 7, 55, 0
9, 23040, Note_on_c, 7, 54, 76
9, 23144, Note_on_c, 7, 54, 0
9, 23160, Note_on_c, 7, 52, 76
9, 23264, Note_on_c, 7, 52, 0
9, 23280, Note_on_c, 7, 54, 76
9, 23384, Note_on_c, 7, 54, 0
9, 23400, Note_on_c, 7, 55, 76
9, 23504, Note_on_c, 7, 55, 0
9, 23520, Note_on_c, 7, 57, 76
9, 23624, Note_on_c, 7, 57, 0
9, 23640, Note_on_c, 7, 59, 76
9, 23744, Note_on_c, 7, 59, 0
9, 23760, Note_on_c, 7, 60, 76
9, 23984, Note_on_c, 7, 60, 0
9, 24000, Note_on_c, 7, 54, 76
9, 24104, Note_on_c, 7, 54, 0
9, 24120, Note_on_c, 7, 52, 76
9, 24224, Note_on_c, 7, 52, 0
9, 24240, Note_on_c, 7, 54, 76
9, 24344, Note_on_c, 7, 54, 0
9, 24360, Note_on_c, 7, 50, 76
9, 24464, Note_on_c, 7, 50, 0
9, 24480, Note_on_c, 7, 55, 76
9, 24584, Note_on_c, 7, 55, 0
9, 24600, Note_on_c, 7, 57, 76
9, 24704, Note_on_c, 7, 57, 0
9, 24720, Note_on_c, 7, 55, 76
9, 24824, Note_on_c, 7, 55, 0
9, 24840, Note_on_c, 7, 54, 76
9, 24944, Note_on_c, 7, 54, 0
9, 24960, Note_on_c, 7, 52, 76
9, 25064, Note_on_c, 7, 52, 0
9, 25080, Note_on_c, 7, 50, 76
9, 25184, Note_on_c, 7, 50, 0
9, 25200, Note_on_c, 7, 49, 76
9, 25304, Note_on_c, 7, 49, 0
9, 25320, Note_on_c, 7, 50, 76
9, 25424, Note_on_c, 7, 50, 0
9, 25440, Note_on_c, 7, 49, 76
9, 25544, Note_on_c, 7, 49, 0
9, 25560, Note_on_c, 7, 47, 76
9, 25664, Note_on_c, 7, 47, 0
9, 25680, Note_on_c, 7, 49, 76
9, 25784, Note_on_c, 7, 49, 0
9, 25800, Note_on_c, 7, 45, 76
9, 25904, Note_on_c, 7, 45, 0
9, 25920, Note_on_c, 7, 50, 76
9, 26024, Note_on_c, 7, 50, 0
9, 26040, Note_on_c, 7, 49, 76
9, 26144, Note_on_c, 7, 49, 0
9, 26160, Note_on_c, 7, 47, 76
9, 26264, Note_on_c, 7, 47, 0
9, 26280, Note_on_c, 7, 45, 76
9, 26384, Note_on_c, 7, 45, 0
9, 26400, Note_on_c, 7, 47, 76
9, 26504, Note_on_c, 7, 47, 0
9, 26520, Note_on_c, 7, 43, 76
9, 26624, Note_on_c, 7, 43, 0
9, 26640, Note_on_c, 7, 42, 76
9, 27344, Note_on_c, 7, 42, 0
9, 27360, Note_on_c, 7, 43, 76
9, 27584, Note_on_c, 7, 43, 0
9, 27600, Note_on_c, 7, 40, 76
9, 27824, Note_on_c, 7, 40, 0
9, 27840, Note_on_c, 7, 45, 76
9, 28064, Note_on_c, 7, 45, 0
9, 28080, Note_on_c, 7, 38, 76
9, 28784, Note_on_c, 7, 38, 0
9, 28800, Note_on_c, 7, 57, 76
9, 29264, Note_on_c, 7, 57, 0
9, 29280, Note_on_c, 7, 56, 76
9, 29504, Note_on_c, 7, 56, 0
9, 29520, Note_on_c, 7, 57, 76
9, 29744, Note_on_c, 7, 57, 0
9, 29760, Note_on_c, 7, 55, 76
9, 29864, Note_on_c, 7, 55, 0
9, 29880, Note_on_c, 7, 54, 76
9, 29984, Note_on_c, 7, 54, 0
9, 30000, Note_on_c, 7, 55, 76
9, 30104, Note_on_c, 7, 55, 0
9, 30120, Note_on_c, 7, 52, 76
9, 30224, Note_on_c, 7, 52, 0
9, 30240, Note_on_c, 7, 54, 76
9, 30464, Note_on_c, 7, 54, 0
9, 30480, Note_on_c, 7, 55, 76
9, 30704, Note_on_c, 7, 55, 0
9, 30720, Note_on_c, 7, 57, 76
9, 30944, Note_on_c, 7, 57, 0
9, 30960, Note_on_c, 7, 50, 76
9, 31184, Note_on_c, 7, 50, 0
9, 31200, Note_on_c, 7, 62, 76
9, 31424, Note_on_c, 7, 62, 0
9, 31440, Note_on_c, 7, 57, 76
9, 31664, Note_on_c, 7, 57, 0
9, 31680, Note_on_c, 7, 54, 76
9, 31784, Note_on_c, 7, 54, 0
9, 31800, Note_on_c, 7, 52, 76
9, 31904, Note_on_c, 7, 52, 0
9, 31920, Note_on_c, 7, 51, 76
9, 32024, Note_on_c, 7, 51, 0
9, 32040, Note_on_c, 7, 49, 76
9, 32144, Note_on_c, 7, 49, 0
9, 32160, Note_on_c, 7, 51, 76
9, 32264, Note_on_c, 7, 51, 0
9, 32280, Note_on_c, 7, 47, 76
9, 32384, Note_on_c, 7, 47, 0
9, 32400, Note_on_c, 7, 52, 76
9, 32624, Note_on_c, 7, 52, 0
9, 32640, Note_on_c, 7, 59, 76
9, 32864, Note_on_c, 7, 59, 0
9, 32880, Note_on_c, 7, 60, 76
9, 33104, Note_on_c, 7, 60, 0
9, 33120, Note_on_c, 7, 57, 76
9, 33344, Note_on_c, 7, 57, 0
9, 33360, Note_on_c, 7, 59, 76
9, 33584, Note_on_c, 7, 59, 0
9, 33600, Note_on_c, 7, 47, 76
9, 33824, Note_on_c, 7, 47, 0
9, 33840, Note_on_c, 7, 52, 76
9, 34064, Note_on_c, 7, 52, 0
9, 34080, Note_on_c, 7, 43, 76
9, 34304, Note_on_c, 7, 43, 0
9, 34320, Note_on_c, 7, 47, 76
9, 34544, Note_on_c, 7, 47, 0
9, 34560, Note_on_c, 7, 40, 76
9, 34784, Note_on_c, 7, 40, 0
9, 34800, Note_on_c, 7, 52, 76
9, 34904, Note_on_c, 7, 52, 0
9, 34920, Note_on_c, 7, 54, 76
9, 35024, Note_on_c, 7, 54, 0
9, 35040, Note_on_c, 7, 55, 76
9, 35144, Note_on_c, 7, 55, 0
9, 35160, Note_on_c, 7, 52, 76
9, 35264, Note_on_c, 7, 52, 0
9, 35280, Note_on_c, 7, 57, 76
9, 35384, Note_on_c, 7, 57, 0
9, 35400, Note_on_c, 7, 55, 76
9, 35504, Note_on_c, 7, 55, 0
9, 35520, Note_on_c, 7, 57, 76
9, 35624, Note_on_c, 7, 57, 0
9, 35640, Note_on_c, 7, 59, 76
9, 35744, Note_on_c, 7, 59, 0
9, 35760, Note_on_c, 7, 61, 76
9, 35864, Note_on_c, 7, 61, 0
9, 35880, Note_on_c, 7, 57, 76
9, 35984, Note_on_c, 7, 57, 0
9, 36000, Note_on_c, 7, 62, 76
9, 36224, Note_on_c, 7, 62, 0
9, 36240, Note_on_c, 7, 50, 76
9, 36344, Note_on_c, 7, 50, 0
9, 36360, Note_on_c, 7, 52, 76
9, 36464, Note_on_c, 7, 52, 0
9, 36480, Note_on_c, 7, 54, 76
9, 36584, Note_on_c, 7, 54, 0
9, 36600, Note_on_c, 7, 50, 76
9, 36704, Note_on_c, 7, 50, 0
9, 36720, Note_on_c, 7, 55, 76
9, 36824, Note_on_c, 7, 55, 0
9, 36840, Note_on_c, 7, 54, 76
9, 36944, Note_on_c, 7, 54, 0
9, 36960, Note_on_c, 7, 55, 76
9, 37064, Note_on_c, 7, 55, 0
9, 37080, Note_on_c, 7, 57, 76
9, 37184, Note_on_c, 7, 57, 0
9, 37200, Note_on_c, 7, 59, 76
9, 37304, Note_on_c, 7, 59, 0
9, 37320, Note_on_c, 7, 55, 76
9, 37424, Note_on_c, 7, 55, 0
9, 37440, Note_on_c, 7, 57, 76
9, 37664, Note_on_c, 7, 57, 0
9, 37680, Note_on_c, 7, 55, 76
9, 37784, Note_on_c, 7, 55, 0
9, 37800, Note_on_c, 7, 54, 76
9, 37904, Note_on_c, 7, 54, 0
9, 37920, Note_on_c, 7, 55, 76
9, 38024, Note_on_c, 7, 55, 0
9, 38040, Note_on_c, 7, 52, 76
9, 38144, Note_on_c, 7, 52, 0
9, 38160, Note_on_c, 7, 54, 76
9, 38264, Note_on_c, 7, 54, 0
9, 38280, Note_on_c, 7, 52, 76
9, 38384, Note_on_c, 7, 52, 0
9, 38400, Note_on_c, 7, 50, 76
9, 38504, Note_on_c, 7, 50, 0
9, 38520, Note_on_c, 7, 52, 76
9, 38624, Note_on_c, 7, 52, 0
9, 38640, Note_on_c, 7, 54, 76
9, 38744, Note_on_c, 7, 54, 0
9, 38760, Note_on_c, 7, 50, 76
9, 38864, Note_on_c, 7, 50, 0
9, 38880, Note_on_c, 7, 55, 76
9, 39104, Note_on_c, 7, 55, 0
9, 39120, Note_on_c, 7, 52, 76
9, 39344, Note_on_c, 7, 52, 0
9, 39360, Note_on_c, 7, 50, 76
9, 39584, Note_on_c, 7, 50, 0
9, 39600, Note_on_c, 7, 57, 76
9, 40064, Note_on_c, 7, 57, 0
9, 40080, Note_on_c, 7, 55, 76
9, 40304, Note_on_c, 7, 55, 0
9, 40320, Note_on_c, 7, 54, 76
9, 40424, Note_on_c, 7, 54, 0
9, 40440, Note_on_c, 7, 52, 76
9, 40544, Note_on_c, 7, 52, 0
9, 40560, Note_on_c, 7, 54, 76
9, 40664, Note_on_c, 7, 54, 0
9, 40680, Note_on_c, 7, 55, 76
9, 40784, Note_on_c, 7, 55, 0
9, 40800, Note_on_c, 7, 57, 76
9, 40904, Note_on_c, 7, 57, 0
9, 40920, Note_on_c, 7, 59, 76
9, 41024, Note_on_c, 7, 59, 0
9, 41040, Note_on_c, 7, 60, 76
9, 41264, Note_on_c, 7, 60, 0
9, 41280, Note_on_c, 7, 54, 76
9, 41384, Note_on_c, 7, 54, 0
9, 41400, Note_on_c, 7, 52, 76
9, 41504, Note_on_c, 7, 52, 0
9, 41520, Note_on_c, 7, 54, 76
9, 41624, Note_on_c, 7, 54, 0
9, 41640, Note_on_c, 7, 50, 76
9, 41744, Note_on_c, 7, 50, 0
9, 41760, Note_on_c, 7, 55, 76
9, 41864, Note_on_c, 7, 55, 0
9, 41880, Note_on_c, 7, 57, 76
9, 41984, Note_on_c, 7, 57, 0
9, 42000, Note_on_c, 7, 55, 76
9, 42104, Note_on_c, 7, 55, 0
9, 42120, Note_on_c, 7, 54, 76
9, 42224, Note_on_c, 7, 54, 0
9, 42240, Note_on_c, 7, 52, 76
9, 42344, Note_on_c, 7, 52, 0
9, 42360, Note_on_c, 7, 50, 76
9, 42464, Note_on_c, 7, 50, 0
9, 42480, Note_on_c, 7, 49, 76
9, 42584, Note_on_c, 7, 49, 0
9, 42600, Note_on_c, 7, 50, 76
9, 42704, Note_on_c, 7, 50, 0
9, 42720, Note_on_c, 7, 49, 76
9, 42824, Note_on_c, 7, 49, 0
9, 42840, Note_on_c, 7, 47, 76
9, 42944, Note_on_c, 7, 47, 0
9, 42960, Note_on_c, 7, 49, 76
9, 43064, Note_on_c, 7, 49, 0
9, 43080, Note_on_c, 7, 45, 76
9, 43184, Note_on_c, 7, 45, 0
9, 43200, Note_on_c, 7, 50, 76
9, 43304, Note_on_c, 7, 50, 0
9, 43320, Note_on_c, 7, 49, 76
9, 43424, Note_on_c, 7, 49, 0
9, 43440, Note_on_c, 7, 47, 76
9, 43544, Note_on_c, 7, 47, 0
9, 43560, Note_on_c, 7, 45, 76
9, 43664, Note_on_c, 7, 45, 0
9, 43680, Note_on_c, 7, 47, 76
9, 43784, Note_on_c, 7, 47, 0
9, 43800, Note_on_c, 7, 43, 76
9, 43904, Note_on_c, 7, 43, 0
9, 43920, Note_on_c, 7, 42, 76
9, 44624, Note_on_c, 7, 42, 0
9, 44640, Note_on_c, 7, 43, 76
9, 44864, Note_on_c, 7, 43, 0
9, 44880, Note_on_c, 7, 40, 76
9, 45104, Note_on_c, 7, 40, 0
9, 45120, Note_on_c, 7, 45, 76
9, 45344, Note_on_c, 7, 45, 0
9, 45360, Note_on_c, 7, 38, 76
9, 46079, Note_on_c, 7, 38, 0
9, 81120, Note_on_c, 7, 62, 76
9, 81224, Note_on_c, 7, 62, 0
9, 81240, Note_on_c, 7, 61, 76
9, 81344, Note_on_c, 7, 61, 0
9, 81360, Note_on_c, 7, 59, 76
9, 81464, Note_on_c, 7, 59, 0
9, 81480, Note_on_c, 7, 57, 76
9, 81584, Note_on_c, 7, 57, 0
9, 81600, Note_on_c, 7, 59, 76
9, 81704, Note_on_c, 7, 59, 0
9, 81720, Note_on_c, 7, 55, 76
9, 81824, Note_on_c, 7, 55, 0
9, 81840, Note_on_c, 7, 54, 76
9, 82544, Note_on_c, 7, 54, 0
9, 82560, Note_on_c, 7, 55, 76
9, 82784, Note_on_c, 7, 55, 0
9, 82800, Note_on_c, 7, 52, 76
9, 83024, Note_on_c, 7, 52, 0
9, 83040, Note_on_c, 7, 57, 76
9, 83264, Note_on_c, 7, 57, 0
9, 83280, Note_on_c, 7, 54, 76
9, 83504, Note_on_c, 7, 54, 0
9, 83520, Note_on_c, 7, 52, 76
9, 83744, Note_on_c, 7, 52, 0
9, 83760, Note_on_c, 7, 50, 76
9, 83984, Note_on_c, 7, 50, 0
9, 84000, Note_on_c, 7, 49, 76
9, 84104, Note_on_c, 7, 49, 0
9, 84120, Note_on_c, 7, 47, 76
9, 84224, Note_on_c, 7, 47, 0
9, 84240, Note_on_c, 7, 45, 76
9, 84344, Note_on_c, 7, 45, 0
9, 84360, Note_on_c, 7, 43, 76
9, 84464, Note_on_c, 7, 43, 0
9, 84480, Note_on_c, 7, 45, 76
9, 84584, Note_on_c, 7, 45, 0
9, 84600, Note_on_c, 7, 42, 76
9, 84704, Note_on_c, 7, 42, 0
9, 84720, Note_on_c, 7, 47, 76
9, 84944, Note_on_c, 7, 47, 0
9, 84960, Note_on_c, 7, 49, 76
9, 85184, Note_on_c, 7, 49, 0
9, 85200, Note_on_c, 7, 45, 76
9, 85424, Note_on_c, 7, 45, 0
9, 85440, Note_on_c, 7, 50, 76
9, 85664, Note_on_c, 7, 50, 0
9, 85680, Note_on_c, 7, 47, 76
9, 85904, Note_on_c, 7, 47, 0
9, 85920, Note_on_c, 7, 52, 76
9, 86144, Note_on_c, 7, 52, 0
9, 86160, Note_on_c, 7, 45, 76
9, 86384, Note_on_c, 7, 45, 0
9, 86400, Note_on_c, 7, 57, 76
9, 86504, Note_on_c, 7, 57, 0
9, 86520, Note_on_c, 7, 59, 76
9, 86624, Note_on_c, 7, 59, 0
9, 86640, Note_on_c, 7, 61, 76
9, 86744, Note_on_c, 7, 61, 0
9, 86760, Note_on_c, 7, 57, 76
9, 86864, Note_on_c, 7, 57, 0
9, 86880, Note_on_c, 7, 62, 76
9, 86984, Note_on_c, 7, 62, 0
9, 87000, Note_on_c, 7, 61, 76
9, 87104, Note_on_c, 7, 61, 0
9, 87120, Note_on_c, 7, 59, 76
9, 87224, Note_on_c, 7, 59, 0
9, 87240, Note_on_c, 7, 57, 76
9, 87344, Note_on_c, 7, 57, 0
9, 87360, Note_on_c, 7, 59, 76
9, 87464, Note_on_c, 7, 59, 0
9, 87480, Note_on_c, 7, 55, 76
9, 87584, Note_on_c, 7, 55, 0
9, 87600, Note_on_c, 7, 54, 76
9, 88304, Note_on_c, 7, 54, 0
9, 88320, Note_on_c, 7, 55, 76
9, 88544, Note_on_c, 7, 55, 0
9, 88560, Note_on_c, 7, 52, 76
9, 88784, Note_on_c, 7, 52, 0
9, 88800, Note_on_c, 7, 57, 76
9, 89024, Note_on_c, 7, 57, 0
9, 89040, Note_on_c, 7, 54, 76
9, 89264, Note_on_c, 7, 54, 0
9, 89280, Note_on_c, 7, 52, 76
9, 89504, Note_on_c, 7, 52, 0
9, 89520, Note_on_c, 7, 50, 76
9, 89744, Note_on_c, 7, 50, 0
9, 89760, Note_on_c, 7, 49, 76
9, 89864, Note_on_c, 7, 49, 0
9, 89880, Note_on_c, 7, 47, 76
9, 89984, Note_on_c, 7, 47, 0
9, 90000, Note_on_c, 7, 45, 76
9, 90104, Note_on_c, 7, 45, 0
9, 90120, Note_on_c, 7, 43, 76
9, 90224, Note_on_c, 7, 43, 0
9, 90240, Note_on_c, 7, 45, 76
9, 90344, Note_on_c, 7, 45, 0
9, 90360, Note_on_c, 7, 42, 76
9, 90464, Note_on_c, 7, 42, 0
9, 90480, Note_on_c, 7, 47, 76
9, 90704, Note_on_c, 7, 47, 0
9, 90720, Note_on_c, 7, 49, 76
9, 90944, Note_on_c, 7, 49, 0
9, 90960, Note_on_c, 7, 45, 76
9, 91184, Note_on_c, 7, 45, 0
9, 91200, Note_on_c, 7, 50, 76
9, 91424, Note_on_c, 7, 50, 0
9, 91440, Note_on_c, 7, 47, 76
9, 91664, Note_on_c, 7, 47, 0
9, 91680, Note_on_c, 7, 52, 76
9, 91904, Note_on_c, 7, 52, 0
9, 91920, Note_on_c, 7, 45, 76
9, 92144, Note_on_c, 7, 45, 0
9, 92160, Note_on_c, 7, 49, 76
9, 92384, Note_on_c, 7, 49, 0
9, 92400, Note_on_c, 7, 52, 76
9, 92624, Note_on_c, 7, 52, 0
9, 92640, Note_on_c, 7, 57, 76
9, 93104, Note_on_c, 7, 57, 0
9, 93120, Note_on_c, 7, 56, 76
9, 93344, Note_on_c, 7, 56, 0
9, 93360, Note_on_c, 7, 57, 76
9, 93584, Note_on_c, 7, 57, 0
9, 93600, Note_on_c, 7, 55, 76
9, 93704, Note_on_c, 7, 55, 0
9, 93720, Note_on_c, 7, 54, 76
9, 93824, Note_on_c, 7, 54, 0
9, 93840, Note_on_c, 7, 55, 76
9, 93944, Note_on_c, 7, 55, 0
9, 93960, Note_on_c, 7, 52, 76
9, 94064, Note_on_c, 7, 52, 0
9, 94080, Note_on_c, 7, 54, 76
9, 94304, Note_on_c, 7, 54, 0
9, 94320, Note_on_c, 7, 55, 76
9, 94544, Note_on_c, 7, 55, 0
9, 94560, Note_on_c, 7, 57, 76
9, 94784, Note_on_c, 7, 57, 0
9, 94800, Note_on_c, 7, 50, 76
9, 95024, Note_on_c, 7, 50, 0
9, 95040, Note_on_c, 7, 62, 76
9, 95264, Note_on_c, 7, 62, 0
9, 95280, Note_on_c, 7, 57, 76
9, 95504, Note_on_c, 7, 57, 0
9, 95520, Note_on_c, 7, 54, 76
9, 95624, Note_on_c, 7, 54, 0
9, 95640, Note_on_c, 7, 52, 76
9, 95744, Note_on_c, 7, 52, 0
9, 95760, Note_on_c, 7, 51, 76
9, 95864, Note_on_c, 7, 51, 0
9, 95880, Note_on_c, 7, 49, 76
9, 95984, Note_on_c, 7, 49, 0
9, 96000, Note_on_c, 7, 51, 76
9, 96104, Note_on_c, 7, 51, 0
9, 96120, Note_on_c, 7, 47, 76
9, 96224, Note_on_c, 7, 47, 0
9, 96240, Note_on_c, 7, 52, 76
9, 96464, Note_on_c, 7, 52, 0
9, 96480, Note_on_c, 7, 59, 76
9, 96704, Note_on_c, 7, 59, 0
9, 96720, Note_on_c, 7, 60, 76
9, 96944, Note_on_c, 7, 60, 0
9, 96960, Note_on_c, 7, 57, 76
9, 97184, Note_on_c, 7, 57, 0
9, 97200, Note_on_c, 7, 59, 76
9, 97424, Note_on_c, 7, 59, 0
9, 97440, Note_on_c, 7, 47, 76
9, 97664, Note_on_c, 7, 47, 0
9, 97680, Note_on_c, 7, 52, 76
9, 97904, Note_on_c, 7, 52, 0
9, 97920, Note_on_c, 7, 43, 76
9, 98144, Note_on_c, 7, 43, 0
9, 98160, Note_on_c, 7, 47, 76
9, 98384, Note_on_c, 7, 47, 0
9, 98400, Note_on_c, 7, 40, 76
9, 98624, Note_on_c, 7, 40, 0
9, 98640, Note_on_c, 7, 52, 76
9, 98744, Note_on_c, 7, 52, 0
9, 98760, Note_on_c, 7, 54, 76
9, 98864, Note_on_c, 7, 54, 0
9, 98880, Note_on_c, 7, 55, 76
9, 98984, Note_on_c, 7, 55, 0
9, 99000, Note_on_c, 7, 52, 76
9, 99104, Note_on_c, 7, 52, 0
9, 99120, Note_on_c, 7, 57, 76
9, 99224, Note_on_c, 7, 57, 0
9, 99240, Note_on_c, 7, 55, 76
9, 99344, Note_on_c, 7, 55, 0
9, 99360, Note_on_c, 7, 57, 76
9, 99464, Note_on_c, 7, 57, 0
9, 99480, Note_on_c, 7, 59, 76
9, 99584, Note_on_c, 7, 59, 0
9, 99600, Note_on_c, 7, 61, 76
9, 99704, Note_on_c, 7, 61, 0
9, 99720, Note_on_c, 7, 57, 76
9, 99824, Note_on_c, 7, 57, 0
9, 99840, Note_on_c, 7, 62, 76
9, 100064, Note_on_c, 7, 62, 0
9, 100080, Note_on_c, 7, 50, 76
9, 100184, Note_on_c, 7, 50, 0
9, 100200, Note_on_c, 7, 52, 76
9, 100304, Note_on_c, 7, 52, 0
9, 100320, Note_on_c, 7, 54, 76
9, 100424, Note_on_c, 7, 54, 0
9, 100440, Note_on_c, 7, 50, 76
9, 100544, Note_on_c, 7, 50, 0
9, 100560, Note_on_c, 7, 55, 76
9, 100664, Note_on_c, 7, 55, 0
9, 100680, Note_on_c, 7, 54, 76
9, 100784, Note_on_c, 7, 54, 0
9, 100800, Note_on_c, 7, 55, 76
9, 100904, Note_on_c, 7, 55, 0
9, 100920, Note_on_c, 7, 57, 76
9, 101024, Note_on_c, 7, 57, 0
9, 101040, Note_on_c, 7, 59, 76
9, 101144, Note_on_c, 7, 59, 0
9, 101160, Note_on_c, 7, 55, 76
9, 101264, Note_on_c, 7, 55, 0
9, 101280, Note_on_c, 7, 57, 76
9, 101504, Note_on_c, 7, 57, 0
9, 101520, Note_on_c, 7, 55, 76
9, 101624, Note_on_c, 7, 55, 0
9, 101640, Note_on_c, 7, 54, 76
9, 101744, Note_on_c, 7, 54, 0
9, 101760, Note_on_c, 7, 55, 76
9, 101864, Note_on_c, 7, 55, 0
9, 101880, Note_on_c, 7, 52, 76
9, 101984, Note_on_c, 7, 52, 0
9, 102000, Note_on_c, 7, 54, 76
9, 102104, Note_on_c, 7, 54, 0
9, 102120, Note_on_c, 7, 52, 76
9, 102224, Note_on_c, 7, 52, 0
9, 102240, Note_on_c, 7, 50, 76
9, 102344, Note_on_c, 7, 50, 0
9, 102360, Note_on_c, 7, 52, 76
9, 102464, Note_on_c, 7, 52, 0
9, 102480, Note_on_c, 7, 54, 76
9, 102584, Note_on_c, 7, 54, 0
9, 102600, Note_on_c, 7, 50, 76
9, 102704, Note_on_c, 7, 50, 0
9, 102720, Note_on_c, 7, 55, 76
9, 102944, Note_on_c, 7, 55, 0
9, 102960, Note_on_c, 7, 52, 76
9, 103184, Note_on_c, 7, 52, 0
9, 103200, Note_on_c, 7, 50, 76
9, 103424, Note_on_c, 7, 50, 0
9, 103440, Note_on_c, 7, 57, 76
9, 103904, Note_on_c, 7, 57, 0
9, 103920, Note_on_c, 7, 55, 76
9, 104144, Note_on_c, 7, 55, 0
9, 104160, Note_on_c, 7, 54, 76
9, 104264, Note_on_c, 7, 54, 0
9, 104280, Note_on_c, 7, 52, 76
9, 104384, Note_on_c, 7, 52, 0
9, 104400, Note_on_c, 7, 54, 76
9, 104504, Note_on_c, 7, 54, 0
9, 104520, Note_on_c, 7, 55, 76
9, 104624, Note_on_c, 7, 55, 0
9, 104640, Note_on_c, 7, 57, 76
9, 104744, Note_on_c, 7, 57, 0
9, 104760, Note_on_c, 7, 59, 76
9, 104864, Note_on_c, 7, 59, 0
9, 104880, Note_on_c, 7, 60, 76
9, 105104, Note_on_c, 7, 60, 0
9, 105120, Note_on_c, 7, 54, 76
9, 105224, Note_on_c, 7, 54, 0
9, 105240, Note_on_c, 7, 52, 76
9, 105344, Note_on_c, 7, 52, 0
9, 105360, Note_on_c, 7, 54, 76
9, 105464, Note_on_c, 7, 54, 0
9, 105480, Note_on_c, 7, 50, 76
9, 105584, Note_on_c, 7, 50, 0
9, 105600, Note_on_c, 7, 55, 76
9, 105704, Note_on_c, 7, 55, 0
9, 105720, Note_on_c, 7, 57, 76
9, 105824, Note_on_c, 7, 57, 0
9, 105840, Note_on_c, 7, 55, 76
9, 105944, Note_on_c, 7, 55, 0
9, 105960, Note_on_c, 7, 54, 76
9, 106064, Note_on_c, 7, 54, 0
9, 106080, Note_on_c, 7, 52, 76
9, 106184, Note_on_c, 7, 52, 0
9, 106200, Note_on_c, 7, 50, 76
9, 106304, Note_on_c, 7, 50, 0
9, 106320, Note_on_c, 7, 49, 76
9, 106424, Note_on_c, 7, 49, 0
9, 106440, Note_on_c, 7, 50, 76
9, 106544, Note_on_c, 7, 50, 0
9, 106560, Note_on_c, 7, 49, 76
9, 106664, Note_on_c, 7, 49, 0
9, 106680, Note_on_c, 7, 47, 76
9, 106784, Note_on_c, 7, 47, 0
9, 106800, Note_on_c, 7, 49, 76
9, 106904, Note_on_c, 7, 49, 0
9, 106920, Note_on_c, 7, 45, 76
9, 107024, Note_on_c, 7, 45, 0
9, 107040, Note_on_c, 7, 50, 76
9, 107144, Note_on_c, 7, 50, 0
9, 107160, Note_on_c, 7, 49, 76
9, 107264, Note_on_c, 7, 49, 0
9, 107280, Note_on_c, 7, 47, 76
9, 107384, Note_on_c, 7, 47, 0
9, 107400, Note_on_c, 7, 45, 76
9, 107504, Note_on_c, 7, 45, 0
9, 107520, Note_on_c, 7, 47, 76
9, 107624, Note_on_c, 7, 47, 0
9, 107640, Note_on_c, 7, 43, 76
9, 107744, Note_on_c, 7, 43, 0
9, 107760, Note_on_c, 7, 42, 76
9, 108464, Note_on_c, 7, 42, 0
9, 108480, Note_on_c, 7, 43, 76
9, 108704, Note_on_c, 7, 43, 0
9, 108720, Note_on_c, 7, 40, 76
9, 108944, Note_on_c, 7, 40, 0
9, 108960, Note_on_c, 7, 45, 76
9, 109184, Note_on_c, 7, 45, 0
9, 109200, Note_on_c, 7, 38, 76
9, 109904, Note_on_c, 7, 38, 0
9, 109920, Note_on_c, 7, 57, 76
9, 110384, Note_on_c, 7, 57, 0
9, 110400, Note_on_c, 7, 56, 76
9, 110624, Note_on_c, 7, 56, 0
9, 110640, Note_on_c, 7, 57, 76
9, 110864, Note_on_c, 7, 57, 0
9, 110880, Note_on_c, 7, 55, 76
9, 110984, Note_on_c, 7, 55, 0
9, 111000, Note_on_c, 7, 54, 76
9, 111104, Note_on_c, 7, 54, 0
9, 111120, Note_on_c, 7, 55, 76
9, 111224, Note_on_c, 7, 55, 0
9, 111240, Note_on_c, 7, 52, 76
9, 111344, Note_on_c, 7, 52, 0
9, 111360, Note_on_c, 7, 54, 76
9, 111584, Note_on_c, 7, 54, 0
9, 111600, Note_on_c, 7, 55, 76
9, 111824, Note_on_c, 7, 55, 0
9, 111840, Note_on_c, 7, 57, 76
9, 112064, Note_on_c, 7, 57, 0
9, 112080, Note_on_c, 7, 50, 76
9, 112304, Note_on_c, 7, 50, 0
9, 112320, Note_on_c, 7, 62, 76
9, 112544, Note_on_c, 7, 62, 0
9, 112560, Note_on_c, 7, 57, 76
9, 112784, Note_on_c, 7, 57, 0
9, 112800, Note_on_c, 7, 54, 76
9, 112904, Note_on_c, 7, 54, 0
9, 112920, Note_on_c, 7, 52, 76
9, 113024, Note_on_c, 7, 52, 0
9, 113040, Note_on_c, 7, 51, 76
9, 113144, Note_on_c, 7, 51, 0
9, 113160, Note_on_c, 7, 49, 76
9, 113264, Note_on_c, 7, 49, 0
9, 113280, Note_on_c, 7, 51, 76
9, 113384, Note_on_c, 7, 51, 0
9, 113400, Note_on_c, 7, 47, 76
9, 113504, Note_on_c, 7, 47, 0
9, 113520, Note_on_c, 7, 52, 76
9, 113744, Note_on_c, 7, 52, 0
9, 113760, Note_on_c, 7, 59, 76
9, 113984, Note_on_c, 7, 59, 0
9, 114000, Note_on_c, 7, 60, 76
9, 114224, Note_on_c, 7, 60, 0
9, 114240, Note_on_c, 7, 57, 76
9, 114464, Note_on_c, 7, 57, 0
9, 114480, Note_on_c, 7, 59, 76
9, 114704, Note_on_c, 7, 59, 0
9, 114720, Note_on_c, 7, 47, 76
9, 114944, Note_on_c, 7, 47, 0
9, 114960, Note_on_c, 7, 52, 76
9, 115184, Note_on_c, 7, 52, 0
9, 115200, Note_on_c, 7, 43, 76
9, 115424, Note_on_c, 7, 43, 0
9, 115440, Note_on_c, 7, 47, 76
9, 115664, Note_on_c, 7, 47, 0
9, 115680, Note_on_c, 7, 40, 76
9, 115904, Note_on_c, 7, 40, 0
9, 115920, Note_on_c, 7, 52, 76
9, 116024, Note_on_c, 7, 52, 0
9, 116040, Note_on_c, 7, 54, 76
9, 116144, Note_on_c, 7, 54, 0
9, 116160, Note_on_c, 7, 55, 76
9, 116264, Note_on_c, 7, 55, 0
9, 116280, Note_on_c, 7, 52, 76
9, 116384, Note_on_c, 7, 52, 0
9, 116400, Note_on_c, 7, 57, 76
9, 116504, Note_on_c, 7, 57, 0
9, 116520, Note_on_c, 7, 55, 76
9, 116624, Note_on_c, 7, 55, 0
9, 116640, Note_on_c, 7, 57, 76
9, 116744, Note_on_c, 7, 57, 0
9, 116760, Note_on_c, 7, 59, 76
9, 116864, Note_on_c, 7, 59, 0
9, 116880, Note_on_c, 7, 61, 76
9, 116984, Note_on_c, 7, 61, 0
9, 117000, Note_on_c, 7, 57, 76
9, 117104, Note_on_c, 7, 57, 0
9, 117120, Note_on_c, 7, 62, 76
9, 117344, Note_on_c, 7, 62, 0
9, 117360, Note_on_c, 7, 50, 76
9, 117464, Note_on_c, 7, 50, 0
9, 117480, Note_on_c, 7, 52, 76
9, 117584, Note_on_c, 7, 52, 0
9, 117600, Note_on_c, 7, 54, 76
9, 117704, Note_on_c, 7, 54, 0
9, 117720, Note_on_c, 7, 50, 76
9, 117824, Note_on_c, 7, 50, 0
9, 117840, Note_on_c, 7, 55, 76
9, 117944, Note_on_c, 7, 55, 0
9, 117960, Note_on_c, 7, 54, 76
9, 118064, Note_on_c, 7, 54, 0
9, 118080, Note_on_c, 7, 55, 76
9, 118184, Note_on_c, 7, 55, 0
9, 118200, Note_on_c, 7, 57, 76
9, 118304, Note_on_c, 7, 57, 0
9, 118320, Note_on_c, 7, 59, 76
9, 118424, Note_on_c, 7, 59, 0
9, 118440, Note_on_c, 7, 55, 76
9, 118544, Note_on_c, 7, 55, 0
9, 118560, Note_on_c, 7, 57, 76
9, 118784, Note_on_c, 7, 57, 0
9, 118800, Note_on_c, 7, 55, 76
9, 118904, Note_on_c, 7, 55, 0
9, 118920, Note_on_c, 7, 54, 76
9, 119024, Note_on_c, 7, 54, 0
9, 119040, Note_on_c, 7, 55, 76
9, 119144, Note_on_c, 7, 55, 0
9, 119160, Note_on_c, 7, 52, 76
9, 119264, Note_on_c, 7, 52, 0
9, 119280, Note_on_c, 7, 54, 76
9, 119384, Note_on_c, 7, 54, 0
9, 119400, Note_on_c, 7, 52, 76
9, 119504, Note_on_c, 7, 52, 0
9, 119520, Note_on_c, 7, 50, 76
9, 119624, Note_on_c, 7, 50, 0
9, 119640, Note_on_c, 7, 52, 76
9, 119744, Note_on_c, 7, 52, 0
9, 119760, Note_on_c, 7, 54, 76
9, 119864, Note_on_c, 7, 54, 0
9, 119880, Note_on_c, 7, 50, 76
9, 119984, Note_on_c, 7, 50, 0
9, 120000, Note_on_c, 7, 55, 76
9, 120224, Note_on_c, 7, 55, 0
9, 120240, Note_on_c, 7, 52, 76
9, 120464, Note_on_c, 7, 52, 0
9, 120480, Note_on_c, 7, 50, 76
9, 120704, Note_on_c, 7, 50, 0
9, 120720, Note_on_c, 7, 57, 76
9, 121184, Note_on_c, 7, 57, 0
9, 121200, Note_on_c, 7, 55, 76
9, 121424, Note_on_c, 7, 55, 0
9, 121440, Note_on_c, 7, 54, 76
9, 121544, Note_on_c, 7, 54, 0
9, 121560, Note_on_c, 7, 52, 76
9, 121664, Note_on_c, 7, 52, 0
9, 121680, Note_on_c, 7, 54, 76
9, 121784, Note_on_c, 7, 54, 0
9, 121800, Note_on_c, 7, 55, 76
9, 121904, Note_on_c, 7, 55, 0
9, 121920, Note_on_c, 7, 57, 76
9, 122024, Note_on_c, 7, 57, 0
9, 122040, Note_on_c, 7, 59, 76
9, 122144, Note_on_c, 7, 59, 0
9, 122160, Note_on_c, 7, 60, 76
9, 122384, Note_on_c, 7, 60, 0
9, 122400, Note_on_c, 7, 54, 76
9, 122504, Note_on_c, 7, 54, 0
9, 122520, Note_on_c, 7, 52, 76
9, 122624, Note_on_c, 7, 52, 0
9, 122640, Note_on_c, 7, 54, 76
9, 122744, Note_on_c, 7, 54, 0
9, 122760, Note_on_c, 7, 50, 76
9, 122864, Note_on_c, 7, 50, 0
9, 122880, Note_on_c, 7, 55, 76
9, 122984, Note_on_c, 7, 55, 0
9, 123000, Note_on_c, 7, 57, 76
9, 123104, Note_on_c, 7, 57, 0
9, 123120, Note_on_c, 7, 55, 76
9, 123224, Note_on_c, 7, 55, 0
9, 123240, Note_on_c, 7, 54, 76
9, 123344, Note_on_c, 7, 54, 0
9, 123360, Note_on_c, 7, 52, 76
9, 123464, Note_on_c, 7, 52, 0
9, 123480, Note_on_c, 7, 50, 76
9, 123584, Note_on_c, 7, 50, 0
9, 123600, Note_on_c, 7, 49, 76
9, 123704, Note_on_c, 7, 49, 0
9, 123720, Note_on_c, 7, 50, 76
9, 123824, Note_on_c, 7, 50, 0
9, 123840, Note_on_c, 7, 49, 76
9, 123944, Note_on_c, 7, 49, 0
9, 123960, Note_on_c, 7, 47, 76
9, 124064, Note_on_c, 7, 47, 0
9, 124080, Note_on_c, 7, 49, 76
9, 124184, Note_on_c, 7, 49, 0
9, 124200, Note_on_c, 7, 45, 76
9, 124304, Note_on_c, 7, 45, 0
9, 124320, Note_on_c, 7, 50, 76
9, 124424, Note_on_c, 7, 50, 0
9, 124440, Note_on_c, 7, 49, 76
9, 124544, Note_on_c, 7, 49, 0
9, 124560, Note_on_c, 7, 47, 76
9, 124664, Note_on_c, 7, 47, 0
9, 124680, Note_on_c, 7, 45, 76
9, 124784, Note_on_c, 7, 45, 0
9, 124800, Note_on_c, 7, 47, 76
9, 124904, Note_on_c, 7, 47, 0
9, 124920, Note_on_c, 7, 43, 76
9, 125024, Note_on_c, 7, 43, 0
9, 125040, Note_on_c, 7, 42, 76
9, 125744, Note_on_c, 7, 42, 0
9, 125760, Note_on_c, 7, 43, 76
9, 125984, Note_on_c, 7, 43, 0
9, 126000, Note_on_c, 7, 40, 76
9, 126224, Note_on_c, 7, 40, 0
9, 126240, Note_on_c, 7, 45, 76
9, 126464, Note_on_c, 7, 45, 0
9, 126480, Note_on_c, 7, 38, 76
9, 127199, Note_on_c, 7, 38, 0
9, 127199, End_track
10, 0, Start_track
10, 0, Title_t, "Violin I"
10, 0, MIDI_port, 0
10, 0, Program_c, 10, 48
10, 0, Control_c, 10, 10, 48
10, 0, Control_c, 10, 11, 127
10, 0, Control_c, 10, 7, 96
10, 0, Note_on_c, 10, 78, 76
10, 104, Note_on_c, 10, 78, 0
10, 120, Note_on_c, 10, 79, 76
10, 224, Note_on_c, 10, 79, 0
10, 240, Note_on_c, 10, 79, 76
10, 269, Note_on_c, 10, 79, 0
10, 270, Note_on_c, 10, 81, 76
10, 299, Note_on_c, 10, 81, 0
10, 300, Note_on_c, 10, 79, 76
10, 329, Note_on_c, 10, 79, 0
10, 330, Note_on_c, 10, 81, 76
10, 359, Note_on_c, 10, 81, 0
10, 360, Note_on_c, 10, 79, 76
10, 389, Note_on_c, 10, 79, 0
10, 390, Note_on_c, 10, 81, 76
10, 419, Note_on_c, 10, 81, 0
10, 420, Note_on_c, 10, 79, 76
10, 449, Note_on_c, 10, 79, 0
10, 450, Note_on_c, 10, 81, 76
10, 479, Note_on_c, 10, 81, 0
10, 480, Note_on_c, 10, 79, 76
10, 509, Note_on_c, 10, 79, 0
10, 510, Note_on_c, 10, 81, 76
10, 539, Note_on_c, 10, 81, 0
10, 540, Note_on_c, 10, 79, 76
10, 569, Note_on_c, 10, 79, 0
10, 570, Note_on_c, 10, 81, 76
10, 599, Note_on_c, 10, 81, 0
10, 600, Note_on_c, 10, 78, 76
10, 659, Note_on_c, 10, 78, 0
10, 660, Note_on_c, 10, 79, 76
10, 711, Note_on_c, 10, 79, 0
10, 720, Note_on_c, 10, 81, 76
10, 824, Note_on_c, 10, 81, 0
10, 840, Note_on_c, 10, 79, 76
10, 944, Note_on_c, 10, 79, 0
10, 960, Note_on_c, 10, 78, 76
10, 1064, Note_on_c, 10, 78, 0
10, 1080, Note_on_c, 10, 79, 76
10, 1184, Note_on_c, 10, 79, 0
10, 1200, Note_on_c, 10, 81, 76
10, 1424, Note_on_c, 10, 81, 0
10, 1440, Note_on_c, 10, 71, 76
10, 1664, Note_on_c, 10, 71, 0
10, 1680, Note_on_c, 10, 76, 76
10, 1904, Note_on_c, 10, 76, 0
10, 1920, Note_on_c, 10, 73, 76
10, 2144, Note_on_c, 10, 73, 0
10, 2160, Note_on_c, 10, 74, 76
10, 2264, Note_on_c, 10, 74, 0
10, 2280, Note_on_c, 10, 73, 76
10, 2384, Note_on_c, 10, 73, 0
10, 2400, Note_on_c, 10, 74, 76
10, 2504, Note_on_c, 10, 74, 0
10, 2520, Note_on_c, 10, 76, 76
10, 2624, Note_on_c, 10, 76, 0
10, 2640, Note_on_c, 10, 78, 76
10, 2744, Note_on_c, 10, 78, 0
10, 2760, Note_on_c, 10, 74, 76
10, 2864, Note_on_c, 10, 74, 0
10, 2880, Note_on_c, 10, 76, 76
10, 2984, Note_on_c, 10, 76, 0
10, 3000, Note_on_c, 10, 78, 76
10, 3104, Note_on_c, 10, 78, 0
10, 3120, Note_on_c, 10, 78, 76
10, 3149, Note_on_c, 10, 78, 0
10, 3150, Note_on_c, 10, 79, 76
10, 3179, Note_on_c, 10, 79, 0
10, 3180, Note_on_c, 10, 78, 76
10, 3209, Note_on_c, 10, 78, 0
10, 3210, Note_on_c, 10, 79, 76
10, 3239, Note_on_c, 10, 79, 0
10, 3240, Note_on_c, 10, 78, 76
10, 3269, Note_on_c, 10, 78, 0
10, 3270, Note_on_c, 10, 79, 76
10, 3299, Note_on_c, 10, 79, 0
10, 3300, Note_on_c, 10, 78, 76
10, 3329, Note_on_c, 10, 78, 0
10, 3330, Note_on_c, 10, 79, 76
10, 3359, Note_on_c, 10, 79, 0
10, 3360, Note_on_c, 10, 78, 76
10, 3389, Note_on_c, 10, 78, 0
10, 3390, Note_on_c, 10, 79, 76
10, 3419, Note_on_c, 10, 79, 0
10, 3420, Note_on_c, 10, 78, 76
10, 3449, Note_on_c, 10, 78, 0
10, 3450, Note_on_c, 10, 79, 76
10, 3479, Note_on_c, 10, 79, 0
10, 3480, Note_on_c, 10, 76, 76
10, 3539, Note_on_c, 10, 76, 0
10, 3540, Note_on_c, 10, 78, 76
10, 3591, Note_on_c, 10, 78, 0
10, 3600, Note_on_c, 10, 79, 76
10, 3704, Note_on_c, 10, 79, 0
10, 3720, Note_on_c, 10, 78, 76
10, 3824, Note_on_c, 10, 78, 0
10, 3840, Note_on_c, 10, 76, 76
10, 3944, Note_on_c, 10, 76, 0
10, 3960, Note_on_c, 10, 78, 76
10, 4064, Note_on_c, 10, 78, 0
10, 4080, Note_on_c, 10, 79, 76
10, 4184, Note_on_c, 10, 79, 0
10, 4200, Note_on_c, 10, 76, 76
10, 4304, Note_on_c, 10, 76, 0
10, 4320, Note_on_c, 10, 78, 76
10, 4424, Note_on_c, 10, 78, 0
10, 4440, Note_on_c, 10, 80, 76
10, 4544, Note_on_c, 10, 80, 0
10, 4560, Note_on_c, 10, 80, 76
10, 4589, Note_on_c, 10, 80, 0
10, 4590, Note_on_c, 10, 81, 76
10, 4619, Note_on_c, 10, 81, 0
10, 4620, Note_on_c, 10, 80, 76
10, 4649, Note_on_c, 10, 80, 0
10, 4650, Note_on_c, 10, 81, 76
10, 4679, Note_on_c, 10, 81, 0
10, 4680, Note_on_c, 10, 80, 76
10, 4709, Note_on_c, 10, 80, 0
10, 4710, Note_on_c, 10, 81, 76
10, 4739, Note_on_c, 10, 81, 0
10, 4740, Note_on_c, 10, 80, 76
10, 4769, Note_on_c, 10, 80, 0
10, 4770, Note_on_c, 10, 81, 76
10, 4799, Note_on_c, 10, 81, 0
10, 4800, Note_on_c, 10, 80, 76
10, 4829, Note_on_c, 10, 80, 0
10, 4830, Note_on_c, 10, 81, 76
10, 4859, Note_on_c, 10, 81, 0
10, 4860, Note_on_c, 10, 80, 76
10, 4889, Note_on_c, 10, 80, 0
10, 4890, Note_on_c, 10, 81, 76
10, 4919, Note_on_c, 10, 81, 0
10, 4920, Note_on_c, 10, 78, 76
10, 4979, Note_on_c, 10, 78, 0
10, 4980, Note_on_c, 10, 80, 76
10, 5031, Note_on_c, 10, 80, 0
10, 5040, Note_on_c, 10, 81, 76
10, 5744, Note_on_c, 10, 81, 0
10, 5760, Note_on_c, 10, 78, 76
10, 5864, Note_on_c, 10, 78, 0
10, 5880, Note_on_c, 10, 79, 76
10, 5984, Note_on_c, 10, 79, 0
10, 6000, Note_on_c, 10, 79, 76
10, 6029, Note_on_c, 10, 79, 0
10, 6030, Note_on_c, 10, 81, 76
10, 6059, Note_on_c, 10, 81, 0
10, 6060, Note_on_c, 10, 79, 76
10, 6089, Note_on_c, 10, 79, 0
10, 6090, Note_on_c, 10, 81, 76
10, 6119, Note_on_c, 10, 81, 0
10, 6120, Note_on_c, 10, 79, 76
10, 6149, Note_on_c, 10, 79, 0
10, 6150, Note_on_c, 10, 81, 76
10, 6179, Note_on_c, 10, 81, 0
10, 6180, Note_on_c, 10, 79, 76
10, 6209, Note_on_c, 10, 79, 0
10, 6210, Note_on_c, 10, 81, 76
10, 6239, Note_on_c, 10, 81, 0
10, 6240, Note_on_c, 10, 79, 76
10, 6269, Note_on_c, 10, 79, 0
10, 6270, Note_on_c, 10, 81, 76
10, 6299, Note_on_c, 10, 81, 0
10, 6300, Note_on_c, 10, 79, 76
10, 6329, Note_on_c, 10, 79, 0
10, 6330, Note_on_c, 10, 81, 76
10, 6359, Note_on_c, 10, 81, 0
10, 6360, Note_on_c, 10, 78, 76
10, 6419, Note_on_c, 10, 78, 0
10, 6420, Note_on_c, 10, 79, 76
10, 6471, Note_on_c, 10, 79, 0
10, 6480, Note_on_c, 10, 81, 76
10, 6584, Note_on_c, 10, 81, 0
10, 6600, Note_on_c, 10, 79, 76
10, 6704, Note_on_c, 10, 79, 0
10, 6720, Note_on_c, 10, 78, 76
10, 6824, Note_on_c, 10, 78, 0
10, 6840, Note_on_c, 10, 79, 76
10, 6944, Note_on_c, 10, 79, 0
10, 6960, Note_on_c, 10, 81, 76
10, 7184, Note_on_c, 10, 81, 0
10, 7200, Note_on_c, 10, 71, 76
10, 7424, Note_on_c, 10, 71, 0
10, 7440, Note_on_c, 10, 76, 76
10, 7664, Note_on_c, 10, 76, 0
10, 7680, Note_on_c, 10, 73, 76
10, 7904, Note_on_c, 10, 73, 0
10, 7920, Note_on_c, 10, 74, 76
10, 8024, Note_on_c, 10, 74, 0
10, 8040, Note_on_c, 10, 73, 76
10, 8144, Note_on_c, 10, 73, 0
10, 8160, Note_on_c, 10, 74, 76
10, 8264, Note_on_c, 10, 74, 0
10, 8280, Note_on_c, 10, 76, 76
10, 8384, Note_on_c, 10, 76, 0
10, 8400, Note_on_c, 10, 78, 76
10, 8504, Note_on_c, 10, 78, 0
10, 8520, Note_on_c, 10, 74, 76
10, 8624, Note_on_c, 10, 74, 0
10, 8640, Note_on_c, 10, 76, 76
10, 8744, Note_on_c, 10, 76, 0
10, 8760, Note_on_c, 10, 78, 76
10, 8864, Note_on_c, 10, 78, 0
10, 8880, Note_on_c, 10, 78, 76
10, 8909, Note_on_c, 10, 78, 0
10, 8910, Note_on_c, 10, 79, 76
10, 8939, Note_on_c, 10, 79, 0
10, 8940, Note_on_c, 10, 78, 76
10, 8969, Note_on_c, 10, 78, 0
10, 8970, Note_on_c, 10, 79, 76
10, 8999, Note_on_c, 10, 79, 0
10, 9000, Note_on_c, 10, 78, 76
10, 9029, Note_on_c, 10, 78, 0
10, 9030, Note_on_c, 10, 79, 76
10, 9059, Note_on_c, 10, 79, 0
10, 9060, Note_on_c, 10, 78, 76
10, 9089, Note_on_c, 10, 78, 0
10, 9090, Note_on_c, 10, 79, 76
10, 9119, Note_on_c, 10, 79, 0
10, 9120, Note_on_c, 10, 78, 76
10, 9149, Note_on_c, 10, 78, 0
10, 9150, Note_on_c, 10, 79, 76
10, 9179, Note_on_c, 10, 79, 0
10, 9180, Note_on_c, 10, 78, 76
10, 9209, Note_on_c, 10, 78, 0
10, 9210, Note_on_c, 10, 79, 76
10, 9239, Note_on_c, 10, 79, 0
10, 9240, Note_on_c, 10, 76, 76
10, 9299, Note_on_c, 10, 76, 0
10, 9300, Note_on_c, 10, 78, 76
10, 9351, Note_on_c, 10, 78, 0
10, 9360, Note_on_c, 10, 79, 76
10, 9464, Note_on_c, 10, 79, 0
10, 9480, Note_on_c, 10, 78, 76
10, 9584, Note_on_c, 10, 78, 0
10, 9600, Note_on_c, 10, 76, 76
10, 9704, Note_on_c, 10, 76, 0
10, 9720, Note_on_c, 10, 78, 76
10, 9824, Note_on_c, 10, 78, 0
10, 9840, Note_on_c, 10, 79, 76
10, 9944, Note_on_c, 10, 79, 0
10, 9960, Note_on_c, 10, 76, 76
10, 10064, Note_on_c, 10, 76, 0
10, 10080, Note_on_c, 10, 78, 76
10, 10184, Note_on_c, 10, 78, 0
10, 10200, Note_on_c, 10, 80, 76
10, 10304, Note_on_c, 10, 80, 0
10, 10320, Note_on_c, 10, 80, 76
10, 10349, Note_on_c, 10, 80, 0
10, 10350, Note_on_c, 10, 81, 76
10, 10379, Note_on_c, 10, 81, 0
10, 10380, Note_on_c, 10, 80, 76
10, 10409, Note_on_c, 10, 80, 0
10, 10410, Note_on_c, 10, 81, 76
10, 10439, Note_on_c, 10, 81, 0
10, 10440, Note_on_c, 10, 80, 76
10, 10469, Note_on_c, 10, 80, 0
10, 10470, Note_on_c, 10, 81, 76
10, 10499, Note_on_c, 10, 81, 0
10, 10500, Note_on_c, 10, 80, 76
10, 10529, Note_on_c, 10, 80, 0
10, 10530, Note_on_c, 10, 81, 76
10, 10559, Note_on_c, 10, 81, 0
10, 10560, Note_on_c, 10, 80, 76
10, 10589, Note_on_c, 10, 80, 0
10, 10590, Note_on_c, 10, 81, 76
10, 10619, Note_on_c, 10, 81, 0
10, 10620, Note_on_c, 10, 80, 76
10, 10649, Note_on_c, 10, 80, 0
10, 10650, Note_on_c, 10, 81, 76
10, 10679, Note_on_c, 10, 81, 0
10, 10680, Note_on_c, 10, 78, 76
10, 10739, Note_on_c, 10, 78, 0
10, 10740, Note_on_c, 10, 80, 76
10, 10791, Note_on_c, 10, 80, 0
10, 10800, Note_on_c, 10, 81, 76
10, 11504, Note_on_c, 10, 81, 0
10, 11520, Note_on_c, 10, 76, 76
10, 11744, Note_on_c, 10, 76, 0
10, 11760, Note_on_c, 10, 74, 76
10, 11864, Note_on_c, 10, 74, 0
10, 11880, Note_on_c, 10, 73, 76
10, 11984, Note_on_c, 10, 73, 0
10, 12000, Note_on_c, 10, 74, 76
10, 12104, Note_on_c, 10, 74, 0
10, 12120, Note_on_c, 10, 71, 76
10, 12224, Note_on_c, 10, 71, 0
10, 12240, Note_on_c, 10, 73, 76
10, 12344, Note_on_c, 10, 73, 0
10, 12360, Note_on_c, 10, 74, 76
10, 12464, Note_on_c, 10, 74, 0
10, 12480, Note_on_c, 10, 76, 76
10, 12704, Note_on_c, 10, 76, 0
10, 12720, Note_on_c, 10, 69, 76
10, 12944, Note_on_c, 10, 69, 0
10, 12960, Note_on_c, 10, 74, 76
10, 13064, Note_on_c, 10, 74, 0
10, 13080, Note_on_c, 10, 76, 76
10, 13184, Note_on_c, 10, 76, 0
10, 13200, Note_on_c, 10, 76, 76
10, 13229, Note_on_c, 10, 76, 0
10, 13230, Note_on_c, 10, 78, 76
10, 13259, Note_on_c, 10, 78, 0
10, 13260, Note_on_c, 10, 76, 76
10, 13289, Note_on_c, 10, 76, 0
10, 13290, Note_on_c, 10, 78, 76
10, 13319, Note_on_c, 10, 78, 0
10, 13320, Note_on_c, 10, 76, 76
10, 13349, Note_on_c, 10, 76, 0
10, 13350, Note_on_c, 10, 78, 76
10, 13379, Note_on_c, 10, 78, 0
10, 13380, Note_on_c, 10, 76, 76
10, 13409, Note_on_c, 10, 76, 0
10, 13410, Note_on_c, 10, 78, 76
10, 13439, Note_on_c, 10, 78, 0
10, 13440, Note_on_c, 10, 76, 76
10, 13469, Note_on_c, 10, 76, 0
10, 13470, Note_on_c, 10, 78, 76
10, 13499, Note_on_c, 10, 78, 0
10, 13500, Note_on_c, 10, 76, 76
10, 13529, Note_on_c, 10, 76, 0
10, 13530, Note_on_c, 10, 78, 76
10, 13559, Note_on_c, 10, 78, 0
10, 13560, Note_on_c, 10, 74, 76
10, 13619, Note_on_c, 10, 74, 0
10, 13620, Note_on_c, 10, 76, 76
10, 13671, Note_on_c, 10, 76, 0
10, 13680, Note_on_c, 10, 78, 76
10, 13784, Note_on_c, 10, 78, 0
10, 13800, Note_on_c, 10, 76, 76
10, 13904, Note_on_c, 10, 76, 0
10, 13920, Note_on_c, 10, 74, 76
10, 14024, Note_on_c, 10, 74, 0
10, 14040, Note_on_c, 10, 76, 76
10, 14144, Note_on_c, 10, 76, 0
10, 14160, Note_on_c, 10, 78, 76
10, 14264, Note_on_c, 10, 78, 0
10, 14280, Note_on_c, 10, 79, 76
10, 14384, Note_on_c, 10, 79, 0
10, 14400, Note_on_c, 10, 81, 76
10, 14624, Note_on_c, 10, 81, 0
10, 14640, Note_on_c, 10, 78, 76
10, 14669, Note_on_c, 10, 78, 0
10, 14670, Note_on_c, 10, 79, 76
10, 14699, Note_on_c, 10, 79, 0
10, 14700, Note_on_c, 10, 78, 76
10, 14729, Note_on_c, 10, 78, 0
10, 14730, Note_on_c, 10, 79, 76
10, 14759, Note_on_c, 10, 79, 0
10, 14760, Note_on_c, 10, 78, 76
10, 14789, Note_on_c, 10, 78, 0
10, 14790, Note_on_c, 10, 79, 76
10, 14819, Note_on_c, 10, 79, 0
10, 14820, Note_on_c, 10, 78, 76
10, 14849, Note_on_c, 10, 78, 0
10, 14850, Note_on_c, 10, 79, 76
10, 14879, Note_on_c, 10, 79, 0
10, 14880, Note_on_c, 10, 78, 76
10, 14909, Note_on_c, 10, 78, 0
10, 14910, Note_on_c, 10, 79, 76
10, 14939, Note_on_c, 10, 79, 0
10, 14940, Note_on_c, 10, 78, 76
10, 14969, Note_on_c, 10, 78, 0
10, 14970, Note_on_c, 10, 79, 76
10, 14999, Note_on_c, 10, 79, 0
10, 15000, Note_on_c, 10, 76, 76
10, 15059, Note_on_c, 10, 76, 0
10, 15060, Note_on_c, 10, 78, 76
10, 15111, Note_on_c, 10, 78, 0
10, 15120, Note_on_c, 10, 79, 76
10, 15344, Note_on_c, 10, 79, 0
10, 15360, Note_on_c, 10, 75, 76
10, 15584, Note_on_c, 10, 75, 0
10, 15600, Note_on_c, 10, 76, 76
10, 15839, Note_on_c, 10, 76, 0
10, 15960, Note_on_c, 10, 78, 76
10, 16064, Note_on_c, 10, 78, 0
10, 16080, Note_on_c, 10, 78, 76
10, 16424, Note_on_c, 10, 78, 0
10, 16440, Note_on_c, 10, 76, 76
10, 16544, Note_on_c, 10, 76, 0
10, 16560, Note_on_c, 10, 76, 76
10, 17264, Note_on_c, 10, 76, 0
10, 17280, Note_on_c, 10, 79, 76
10, 17384, Note_on_c, 10, 79, 0
10, 17400, Note_on_c, 10, 81, 76
10, 17504, Note_on_c, 10, 81, 0
10, 17520, Note_on_c, 10, 83, 76
10, 17744, Note_on_c, 10, 83, 0
10, 17760, Note_on_c, 10, 74, 76
10, 17984, Note_on_c, 10, 74, 0
10, 18000, Note_on_c, 10, 73, 76
10, 18224, Note_on_c, 10, 73, 0
10, 18240, Note_on_c, 10, 81, 76
10, 18704, Note_on_c, 10, 81, 0
10, 18720, Note_on_c, 10, 78, 76
10, 18824, Note_on_c, 10, 78, 0
10, 18840, Note_on_c, 10, 79, 76
10, 18944, Note_on_c, 10, 79, 0
10, 18960, Note_on_c, 10, 81, 76
10, 19184, Note_on_c, 10, 81, 0
10, 19200, Note_on_c, 10, 72, 76
10, 19424, Note_on_c, 10, 72, 0
10, 19440, Note_on_c, 10, 71, 76
10, 19664, Note_on_c, 10, 71, 0
10, 19680, Note_on_c, 10, 79, 76
10, 20144, Note_on_c, 10, 79, 0
10, 20160, Note_on_c, 10, 73, 76
10, 20264, Note_on_c, 10, 73, 0
10, 20280, Note_on_c, 10, 74, 76
10, 20384, Note_on_c, 10, 74, 0
10, 20400, Note_on_c, 10, 76, 76
10, 20624, Note_on_c, 10, 76, 0
10, 20640, Note_on_c, 10, 69, 76
10, 20864, Note_on_c, 10, 69, 0
10, 20880, Note_on_c, 10, 74, 76
10, 20984, Note_on_c, 10, 74, 0
10, 21000, Note_on_c, 10, 76, 76
10, 21104, Note_on_c, 10, 76, 0
10, 21120, Note_on_c, 10, 78, 76
10, 21224, Note_on_c, 10, 78, 0
10, 21240, Note_on_c, 10, 79, 76
10, 21344, Note_on_c, 10, 79, 0
10, 21360, Note_on_c, 10, 81, 76
10, 21464, Note_on_c, 10, 81, 0
10, 21480, Note_on_c, 10, 72, 76
10, 21584, Note_on_c, 10, 72, 0
10, 21600, Note_on_c, 10, 71, 76
10, 21824, Note_on_c, 10, 71, 0
10, 21840, Note_on_c, 10, 73, 76
10, 22064, Note_on_c, 10, 73, 0
10, 22080, Note_on_c, 10, 74, 76
10, 22304, Note_on_c, 10, 74, 0
10, 22320, Note_on_c, 10, 76, 76
10, 22544, Note_on_c, 10, 76, 0
10, 22560, Note_on_c, 10, 74, 76
10, 22664, Note_on_c, 10, 74, 0
10, 22680, Note_on_c, 10, 73, 76
10, 22784, Note_on_c, 10, 73, 0
10, 22800, Note_on_c, 10, 71, 76
10, 22904, Note_on_c, 10, 71, 0
10, 22920, Note_on_c, 10, 69, 76
10, 23024, Note_on_c, 10, 69, 0
10, 23040, Note_on_c, 10, 74, 76
10, 23144, Note_on_c, 10, 74, 0
10, 23160, Note_on_c, 10, 73, 76
10, 23264, Note_on_c, 10, 73, 0
10, 23280, Note_on_c, 10, 74, 76
10, 23504, Note_on_c, 10, 74, 0
10, 23520, Note_on_c, 10, 69, 76
10, 23744, Note_on_c, 10, 69, 0
10, 23760, Note_on_c, 10, 66, 76
10, 23984, Note_on_c, 10, 66, 0
10, 24000, Note_on_c, 10, 72, 76
10, 24464, Note_on_c, 10, 72, 0
10, 24480, Note_on_c, 10, 71, 76
10, 24704, Note_on_c, 10, 71, 0
10, 24720, Note_on_c, 10, 73, 76
10, 24824, Note_on_c, 10, 73, 0
10, 24840, Note_on_c, 10, 74, 76
10, 24944, Note_on_c, 10, 74, 0
10, 24960, Note_on_c, 10, 76, 76
10, 25064, Note_on_c, 10, 76, 0
10, 25080, Note_on_c, 10, 78, 76
10, 25184, Note_on_c, 10, 78, 0
10, 25200, Note_on_c, 10, 79, 76
10, 25424, Note_on_c, 10, 79, 0
10, 25440, Note_on_c, 10, 69, 76
10, 25904, Note_on_c, 10, 69, 0
10, 25920, Note_on_c, 10, 78, 76
10, 26024, Note_on_c, 10, 78, 0
10, 26040, Note_on_c, 10, 79, 76
10, 26144, Note_on_c, 10, 79, 0
10, 26160, Note_on_c, 10, 79, 76
10, 26189, Note_on_c, 10, 79, 0
10, 26190, Note_on_c, 10, 81, 76
10, 26219, Note_on_c, 10, 81, 0
10, 26220, Note_on_c, 10, 79, 76
10, 26249, Note_on_c, 10, 79, 0
10, 26250, Note_on_c, 10, 81, 76
10, 26279, Note_on_c, 10, 81, 0
10, 26280, Note_on_c, 10, 79, 76
10, 26309, Note_on_c, 10, 79, 0
10, 26310, Note_on_c, 10, 81, 76
10, 26339, Note_on_c, 10, 81, 0
10, 26340, Note_on_c, 10, 79, 76
10, 26369, Note_on_c, 10, 79, 0
10, 26370, Note_on_c, 10, 81, 76
10, 26399, Note_on_c, 10, 81, 0
10, 26400, Note_on_c, 10, 79, 76
10, 26429, Note_on_c, 10, 79, 0
10, 26430, Note_on_c, 10, 81, 76
10, 26459, Note_on_c, 10, 81, 0
10, 26460, Note_on_c, 10, 79, 76
10, 26489, Note_on_c, 10, 79, 0
10, 26490, Note_on_c, 10, 81, 76
10, 26519, Note_on_c, 10, 81, 0
10, 26520, Note_on_c, 10, 78, 76
10, 26579, Note_on_c, 10, 78, 0
10, 26580, Note_on_c, 10, 79, 76
10, 26631, Note_on_c, 10, 79, 0
10, 26640, Note_on_c, 10, 81, 76
10, 26744, Note_on_c, 10, 81, 0
10, 26760, Note_on_c, 10, 79, 76
10, 26864, Note_on_c, 10, 79, 0
10, 26880, Note_on_c, 10, 78, 76
10, 26984, Note_on_c, 10, 78, 0
10, 27000, Note_on_c, 10, 79, 76
10, 27104, Note_on_c, 10, 79, 0
10, 27120, Note_on_c, 10, 81, 76
10, 27344, Note_on_c, 10, 81, 0
10, 27360, Note_on_c, 10, 71, 76
10, 27584, Note_on_c, 10, 71, 0
10, 27600, Note_on_c, 10, 76, 76
10, 27824, Note_on_c, 10, 76, 0
10, 27840, Note_on_c, 10, 73, 76
10, 28064, Note_on_c, 10, 73, 0
10, 28080, Note_on_c, 10, 74, 76
10, 28784, Note_on_c, 10, 74, 0
10, 28800, Note_on_c, 10, 76, 76
10, 29024, Note_on_c, 10, 76, 0
10, 29040, Note_on_c, 10, 74, 76
10, 29144, Note_on_c, 10, 74, 0
10, 29160, Note_on_c, 10, 73, 76
10, 29264, Note_on_c, 10, 73, 0
10, 29280, Note_on_c, 10, 74, 76
10, 29384, Note_on_c, 10, 74, 0
10, 29400, Note_on_c, 10, 71, 76
10, 29504, Note_on_c, 10, 71, 0
10, 29520, Note_on_c, 10, 73, 76
10, 29624, Note_on_c, 10, 73, 0
10, 29640, Note_on_c, 10, 74, 76
10, 29744, Note_on_c, 10, 74, 0
10, 29760, Note_on_c, 10, 76, 76
10, 29984, Note_on_c, 10, 76, 0
10, 30000, Note_on_c, 10, 69, 76
10, 30224, Note_on_c, 10, 69, 0
10, 30240, Note_on_c, 10, 74, 76
10, 30344, Note_on_c, 10, 74, 0
10, 30360, Note_on_c, 10, 76, 76
10, 30464, Note_on_c, 10, 76, 0
10, 30480, Note_on_c, 10, 76, 76
10, 30509, Note_on_c, 10, 76, 0
10, 30510, Note_on_c, 10, 78, 76
10, 30539, Note_on_c, 10, 78, 0
10, 30540, Note_on_c, 10, 76, 76
10, 30569, Note_on_c, 10, 76, 0
10, 30570, Note_on_c, 10, 78, 76
10, 30599, Note_on_c, 10, 78, 0
10, 30600, Note_on_c, 10, 76, 76
10, 30629, Note_on_c, 10, 76, 0
10, 30630, Note_on_c, 10, 78, 76
10, 30659, Note_on_c, 10, 78, 0
10, 30660, Note_on_c, 10, 76, 76
10, 30689, Note_on_c, 10, 76, 0
10, 30690, Note_on_c, 10, 78, 76
10, 30719, Note_on_c, 10, 78, 0
10, 30720, Note_on_c, 10, 76, 76
10, 30749, Note_on_c, 10, 76, 0
10, 30750, Note_on_c, 10, 78, 76
10, 30779, Note_on_c, 10, 78, 0
10, 30780, Note_on_c, 10, 76, 76
10, 30809, Note_on_c, 10, 76, 0
10, 30810, Note_on_c, 10, 78, 76
10, 30839, Note_on_c, 10, 78, 0
10, 30840, Note_on_c, 10, 74, 76
10, 30899, Note_on_c, 10, 74, 0
10, 30900, Note_on_c, 10, 76, 76
10, 30951, Note_on_c, 10, 76, 0
10, 30960, Note_on_c, 10, 78, 76
10, 31064, Note_on_c, 10, 78, 0
10, 31080, Note_on_c, 10, 76, 76
10, 31184, Note_on_c, 10, 76, 0
10, 31200, Note_on_c, 10, 74, 76
10, 31304, Note_on_c, 10, 74, 0
10, 31320, Note_on_c, 10, 76, 76
10, 31424, Note_on_c, 10, 76, 0
10, 31440, Note_on_c, 10, 78, 76
10, 31544, Note_on_c, 10, 78, 0
10, 31560, Note_on_c, 10, 79, 76
10, 31664, Note_on_c, 10, 79, 0
10, 31680, Note_on_c, 10, 81, 76
10, 31904, Note_on_c, 10, 81, 0
10, 31920, Note_on_c, 10, 78, 76
10, 31949, Note_on_c, 10, 78, 0
10, 31950, Note_on_c, 10, 79, 76
10, 31979, Note_on_c, 10, 79, 0
10, 31980, Note_on_c, 10, 78, 76
10, 32009, Note_on_c, 10, 78, 0
10, 32010, Note_on_c, 10, 79, 76
10, 32039, Note_on_c, 10, 79, 0
10, 32040, Note_on_c, 10, 78, 76
10, 32069, Note_on_c, 10, 78, 0
10, 32070, Note_on_c, 10, 79, 76
10, 32099, Note_on_c, 10, 79, 0
10, 32100, Note_on_c, 10, 78, 76
10, 32129, Note_on_c, 10, 78, 0
10, 32130, Note_on_c, 10, 79, 76
10, 32159, Note_on_c, 10, 79, 0
10, 32160, Note_on_c, 10, 78, 76
10, 32189, Note_on_c, 10, 78, 0
10, 32190, Note_on_c, 10, 79, 76
10, 32219, Note_on_c, 10, 79, 0
10, 32220, Note_on_c, 10, 78, 76
10, 32249, Note_on_c, 10, 78, 0
10, 32250, Note_on_c, 10, 79, 76
10, 32279, Note_on_c, 10, 79, 0
10, 32280, Note_on_c, 10, 76, 76
10, 32339, Note_on_c, 10, 76, 0
10, 32340, Note_on_c, 10, 78, 76
10, 32391, Note_on_c, 10, 78, 0
10, 32400, Note_on_c, 10, 79, 76
10, 32624, Note_on_c, 10, 79, 0
10, 32640, Note_on_c, 10, 75, 76
10, 32864, Note_on_c, 10, 75, 0
10, 32880, Note_on_c, 10, 76, 76
10, 33119, Note_on_c, 10, 76, 0
10, 33240, Note_on_c, 10, 78, 76
10, 33344, Note_on_c, 10, 78, 0
10, 33360, Note_on_c, 10, 78, 76
10, 33704, Note_on_c, 10, 78, 0
10, 33720, Note_on_c, 10, 76, 76
10, 33824, Note_on_c, 10, 76, 0
10, 33840, Note_on_c, 10, 76, 76
10, 34544, Note_on_c, 10, 76, 0
10, 34560, Note_on_c, 10, 79, 76
10, 34664, Note_on_c, 10, 79, 0
10, 34680, Note_on_c, 10, 81, 76
10, 34784, Note_on_c, 10, 81, 0
10, 34800, Note_on_c, 10, 83, 76
10, 35024, Note_on_c, 10, 83, 0
10, 35040, Note_on_c, 10, 74, 76
10, 35264, Note_on_c, 10, 74, 0
10, 35280, Note_on_c, 10, 73, 76
10, 35504, Note_on_c, 10, 73, 0
10, 35520, Note_on_c, 10, 81, 76
10, 35984, Note_on_c, 10, 81, 0
10, 36000, Note_on_c, 10, 78, 76
10, 36104, Note_on_c, 10, 78, 0
10, 36120, Note_on_c, 10, 79, 76
10, 36224, Note_on_c, 10, 79, 0
10, 36240, Note_on_c, 10, 81, 76
10, 36464, Note_on_c, 10, 81, 0
10, 36480, Note_on_c, 10, 72, 76
10, 36704, Note_on_c, 10, 72, 0
10, 36720, Note_on_c, 10, 71, 76
10, 36944, Note_on_c, 10, 71, 0
10, 36960, Note_on_c, 10, 79, 76
10, 37424, Note_on_c, 10, 79, 0
10, 37440, Note_on_c, 10, 73, 76
10, 37544, Note_on_c, 10, 73, 0
10, 37560, Note_on_c, 10, 74, 76
10, 37664, Note_on_c, 10, 74, 0
10, 37680, Note_on_c, 10, 76, 76
10, 37904, Note_on_c, 10, 76, 0
10, 37920, Note_on_c, 10, 69, 76
10, 38144, Note_on_c, 10, 69, 0
10, 38160, Note_on_c, 10, 74, 76
10, 38264, Note_on_c, 10, 74, 0
10, 38280, Note_on_c, 10, 76, 76
10, 38384, Note_on_c, 10, 76, 0
10, 38400, Note_on_c, 10, 78, 76
10, 38504, Note_on_c, 10, 78, 0
10, 38520, Note_on_c, 10, 79, 76
10, 38624, Note_on_c, 10, 79, 0
10, 38640, Note_on_c, 10, 81, 76
10, 38744, Note_on_c, 10, 81, 0
10, 38760, Note_on_c, 10, 72, 76
10, 38864, Note_on_c, 10, 72, 0
10, 38880, Note_on_c, 10, 71, 76
10, 39104, Note_on_c, 10, 71, 0
10, 39120, Note_on_c, 10, 73, 76
10, 39344, Note_on_c, 10, 73, 0
10, 39360, Note_on_c, 10, 74, 76
10, 39584, Note_on_c, 10, 74, 0
10, 39600, Note_on_c, 10, 76, 76
10, 39824, Note_on_c, 10, 76, 0
10, 39840, Note_on_c, 10, 74, 76
10, 39944, Note_on_c, 10, 74, 0
10, 39960, Note_on_c, 10, 73, 76
10, 40064, Note_on_c, 10, 73, 0
10, 40080, Note_on_c, 10, 71, 76
10, 40184, Note_on_c, 10, 71, 0
10, 40200, Note_on_c, 10, 69, 76
10, 40304, Note_on_c, 10, 69, 0
10, 40320, Note_on_c, 10, 74, 76
10, 40424, Note_on_c, 10, 74, 0
10, 40440, Note_on_c, 10, 73, 76
10, 40544, Note_on_c, 10, 73, 0
10, 40560, Note_on_c, 10, 74, 76
10, 40784, Note_on_c, 10, 74, 0
10, 40800, Note_on_c, 10, 69, 76
10, 41024, Note_on_c, 10, 69, 0
10, 41040, Note_on_c, 10, 66, 76
10, 41264, Note_on_c, 10, 66, 0
10, 41280, Note_on_c, 10, 72, 76
10, 41744, Note_on_c, 10, 72, 0
10, 41760, Note_on_c, 10, 71, 76
10, 41984, Note_on_c, 10, 71, 0
10, 42000, Note_on_c, 10, 73, 76
10, 42104, Note_on_c, 10, 73, 0
10, 42120, Note_on_c, 10, 74, 76
10, 42224, Note_on_c, 10, 74, 0
10, 42240, Note_on_c, 10, 76, 76
10, 42344, Note_on_c, 10, 76, 0
10, 42360, Note_on_c, 10, 78, 76
10, 42464, Note_on_c, 10, 78, 0
10, 42480, Note_on_c, 10, 79, 76
10, 42704, Note_on_c, 10, 79, 0
10, 42720, Note_on_c, 10, 69, 76
10, 43184, Note_on_c, 10, 69, 0
10, 43200, Note_on_c, 10, 78, 76
10, 43304, Note_on_c, 10, 78, 0
10, 43320, Note_on_c, 10, 79, 76
10, 43424, Note_on_c, 10, 79, 0
10, 43440, Note_on_c, 10, 79, 76
10, 43469, Note_on_c, 10, 79, 0
10, 43470, Note_on_c, 10, 81, 76
10, 43499, Note_on_c, 10, 81, 0
10, 43500, Note_on_c, 10, 79, 76
10, 43529, Note_on_c, 10, 79, 0
10, 43530, Note_on_c, 10, 81, 76
10, 43559, Note_on_c, 10, 81, 0
10, 43560, Note_on_c, 10, 79, 76
10, 43589, Note_on_c, 10, 79, 0
10, 43590, Note_on_c, 10, 81, 76
10, 43619, Note_on_c, 10, 81, 0
10, 43620, Note_on_c, 10, 79, 76
10, 43649, Note_on_c, 10, 79, 0
10, 43650, Note_on_c, 10, 81, 76
10, 43679, Note_on_c, 10, 81, 0
10, 43680, Note_on_c, 10, 79, 76
10, 43709, Note_on_c, 10, 79, 0
10, 43710, Note_on_c, 10, 81, 76
10, 43739, Note_on_c, 10, 81, 0
10, 43740, Note_on_c, 10, 79, 76
10, 43769, Note_on_c, 10, 79, 0
10, 43770, Note_on_c, 10, 81, 76
10, 43799, Note_on_c, 10, 81, 0
10, 43800, Note_on_c, 10, 78, 76
10, 43859, Note_on_c, 10, 78, 0
10, 43860, Note_on_c, 10, 79, 76
10, 43911, Note_on_c, 10, 79, 0
10, 43920, Note_on_c, 10, 81, 76
10, 44024, Note_on_c, 10, 81, 0
10, 44040, Note_on_c, 10, 79, 76
10, 44144, Note_on_c, 10, 79, 0
10, 44160, Note_on_c, 10, 78, 76
10, 44264, Note_on_c, 10, 78, 0
10, 44280, Note_on_c, 10, 79, 76
10, 44384, Note_on_c, 10, 79, 0
10, 44400, Note_on_c, 10, 81, 76
10, 44624, Note_on_c, 10, 81, 0
10, 44640, Note_on_c, 10, 71, 76
10, 44864, Note_on_c, 10, 71, 0
10, 44880, Note_on_c, 10, 76, 76
10, 45104, Note_on_c, 10, 76, 0
10, 45120, Note_on_c, 10, 73, 76
10, 45344, Note_on_c, 10, 73, 0
10, 45360, Note_on_c, 10, 74, 76
10, 46079, Note_on_c, 10, 74, 0
10, 46320, Note_on_c, 10, 66, 76
10, 46544, Note_on_c, 10, 66, 0
10, 46560, Note_on_c, 10, 62, 76
10, 46904, Note_on_c, 10, 62, 0
10, 46920, Note_on_c, 10, 61, 76
10, 46971, Note_on_c, 10, 61, 0
10, 46980, Note_on_c, 10, 62, 76
10, 47031, Note_on_c, 10, 62, 0
10, 47040, Note_on_c, 10, 64, 76
10, 47144, Note_on_c, 10, 64, 0
10, 47160, Note_on_c, 10, 66, 76
10, 47264, Note_on_c, 10, 66, 0
10, 47280, Note_on_c, 10, 67, 76
10, 47384, Note_on_c, 10, 67, 0
10, 47400, Note_on_c, 10, 64, 76
10, 47504, Note_on_c, 10, 64, 0
10, 47520, Note_on_c, 10, 69, 76
10, 47744, Note_on_c, 10, 69, 0
10, 47760, Note_on_c, 10, 66, 76
10, 47984, Note_on_c, 10, 66, 0
10, 48000, Note_on_c, 10, 64, 76
10, 48224, Note_on_c, 10, 64, 0
10, 48240, Note_on_c, 10, 62, 76
10, 48464, Note_on_c, 10, 62, 0
10, 48480, Note_on_c, 10, 61, 76
10, 48584, Note_on_c, 10, 61, 0
10, 48600, Note_on_c, 10, 62, 76
10, 48704, Note_on_c, 10, 62, 0
10, 48720, Note_on_c, 10, 64, 76
10, 48944, Note_on_c, 10, 64, 0
10, 48960, Note_on_c, 10, 57, 76
10, 49184, Note_on_c, 10, 57, 0
10, 49200, Note_on_c, 10, 71, 76
10, 49304, Note_on_c, 10, 71, 0
10, 49320, Note_on_c, 10, 73, 76
10, 49424, Note_on_c, 10, 73, 0
10, 49440, Note_on_c, 10, 73, 76
10, 49469, Note_on_c, 10, 73, 0
10, 49470, Note_on_c, 10, 74, 76
10, 49499, Note_on_c, 10, 74, 0
10, 49500, Note_on_c, 10, 73, 76
10, 49529, Note_on_c, 10, 73, 0
10, 49530, Note_on_c, 10, 74, 76
10, 49559, Note_on_c, 10, 74, 0
10, 49560, Note_on_c, 10, 73, 76
10, 49589, Note_on_c, 10, 73, 0
10, 49590, Note_on_c, 10, 74, 76
10, 49619, Note_on_c, 10, 74, 0
10, 49620, Note_on_c, 10, 73, 76
10, 49649, Note_on_c, 10, 73, 0
10, 49650, Note_on_c, 10, 74, 76
10, 49679, Note_on_c, 10, 74, 0
10, 49680, Note_on_c, 10, 73, 76
10, 49709, Note_on_c, 10, 73, 0
10, 49710, Note_on_c, 10, 74, 76
10, 49739, Note_on_c, 10, 74, 0
10, 49740, Note_on_c, 10, 73, 76
10, 49769, Note_on_c, 10, 73, 0
10, 49770, Note_on_c, 10, 74, 76
10, 49799, Note_on_c, 10, 74, 0
10, 49800, Note_on_c, 10, 71, 76
10, 49851, Note_on_c, 10, 71, 0
10, 49860, Note_on_c, 10, 73, 76
10, 49911, Note_on_c, 10, 73, 0
10, 49920, Note_on_c, 10, 74, 76
10, 50144, Note_on_c, 10, 74, 0
10, 50160, Note_on_c, 10, 73, 76
10, 50264, Note_on_c, 10, 73, 0
10, 50280, Note_on_c, 10, 71, 76
10, 50384, Note_on_c, 10, 71, 0
10, 50400, Note_on_c, 10, 73, 76
10, 50504, Note_on_c, 10, 73, 0
10, 50520, Note_on_c, 10, 74, 76
10, 50624, Note_on_c, 10, 74, 0
10, 50640, Note_on_c, 10, 76, 76
10, 50864, Note_on_c, 10, 76, 0
10, 50880, Note_on_c, 10, 69, 76
10, 51104, Note_on_c, 10, 69, 0
10, 51120, Note_on_c, 10, 68, 76
10, 51344, Note_on_c, 10, 68, 0
10, 51360, Note_on_c, 10, 69, 76
10, 51704, Note_on_c, 10, 69, 0
10, 51720, Note_on_c, 10, 67, 76
10, 51824, Note_on_c, 10, 67, 0
10, 51840, Note_on_c, 10, 66, 76
10, 51944, Note_on_c, 10, 66, 0
10, 51960, Note_on_c, 10, 64, 76
10, 52064, Note_on_c, 10, 64, 0
10, 52080, Note_on_c, 10, 66, 76
10, 52304, Note_on_c, 10, 66, 0
10, 52320, Note_on_c, 10, 62, 76
10, 52664, Note_on_c, 10, 62, 0
10, 52680, Note_on_c, 10, 61, 76
10, 52731, Note_on_c, 10, 61, 0
10, 52740, Note_on_c, 10, 62, 76
10, 52791, Note_on_c, 10, 62, 0
10, 52800, Note_on_c, 10, 64, 76
10, 52904, Note_on_c, 10, 64, 0
10, 52920, Note_on_c, 10, 66, 76
10, 53024, Note_on_c, 10, 66, 0
10, 53040, Note_on_c, 10, 67, 76
10, 53144, Note_on_c, 10, 67, 0
10, 53160, Note_on_c, 10, 64, 76
10, 53264, Note_on_c, 10, 64, 0
10, 53280, Note_on_c, 10, 69, 76
10, 53504, Note_on_c, 10, 69, 0
10, 53520, Note_on_c, 10, 66, 76
10, 53744, Note_on_c, 10, 66, 0
10, 53760, Note_on_c, 10, 64, 76
10, 53984, Note_on_c, 10, 64, 0
10, 54000, Note_on_c, 10, 62, 76
10, 54224, Note_on_c, 10, 62, 0
10, 54240, Note_on_c, 10, 61, 76
10, 54344, Note_on_c, 10, 61, 0
10, 54360, Note_on_c, 10, 62, 76
10, 54464, Note_on_c, 10, 62, 0
10, 54480, Note_on_c, 10, 64, 76
10, 54704, Note_on_c, 10, 64, 0
10, 54720, Note_on_c, 10, 57, 76
10, 54944, Note_on_c, 10, 57, 0
10, 54960, Note_on_c, 10, 71, 76
10, 55064, Note_on_c, 10, 71, 0
10, 55080, Note_on_c, 10, 73, 76
10, 55184, Note_on_c, 10, 73, 0
10, 55200, Note_on_c, 10, 73, 76
10, 55229, Note_on_c, 10, 73, 0
10, 55230, Note_on_c, 10, 74, 76
10, 55259, Note_on_c, 10, 74, 0
10, 55260, Note_on_c, 10, 73, 76
10, 55289, Note_on_c, 10, 73, 0
10, 55290, Note_on_c, 10, 74, 76
10, 55319, Note_on_c, 10, 74, 0
10, 55320, Note_on_c, 10, 73, 76
10, 55349, Note_on_c, 10, 73, 0
10, 55350, Note_on_c, 10, 74, 76
10, 55379, Note_on_c, 10, 74, 0
10, 55380, Note_on_c, 10, 73, 76
10, 55409, Note_on_c, 10, 73, 0
10, 55410, Note_on_c, 10, 74, 76
10, 55439, Note_on_c, 10, 74, 0
10, 55440, Note_on_c, 10, 73, 76
10, 55469, Note_on_c, 10, 73, 0
10, 55470, Note_on_c, 10, 74, 76
10, 55499, Note_on_c, 10, 74, 0
10, 55500, Note_on_c, 10, 73, 76
10, 55529, Note_on_c, 10, 73, 0
10, 55530, Note_on_c, 10, 74, 76
10, 55559, Note_on_c, 10, 74, 0
10, 55560, Note_on_c, 10, 71, 76
10, 55611, Note_on_c, 10, 71, 0
10, 55620, Note_on_c, 10, 73, 76
10, 55671, Note_on_c, 10, 73, 0
10, 55680, Note_on_c, 10, 74, 76
10, 55904, Note_on_c, 10, 74, 0
10, 55920, Note_on_c, 10, 73, 76
10, 56024, Note_on_c, 10, 73, 0
10, 56040, Note_on_c, 10, 71, 76
10, 56144, Note_on_c, 10, 71, 0
10, 56160, Note_on_c, 10, 73, 76
10, 56264, Note_on_c, 10, 73, 0
10, 56280, Note_on_c, 10, 74, 76
10, 56384, Note_on_c, 10, 74, 0
10, 56400, Note_on_c, 10, 76, 76
10, 56624, Note_on_c, 10, 76, 0
10, 56640, Note_on_c, 10, 69, 76
10, 56864, Note_on_c, 10, 69, 0
10, 56880, Note_on_c, 10, 68, 76
10, 57104, Note_on_c, 10, 68, 0
10, 57120, Note_on_c, 10, 69, 76
10, 57824, Note_on_c, 10, 69, 0
10, 57840, Note_on_c, 10, 76, 76
10, 58664, Note_on_c, 10, 76, 0
10, 58680, Note_on_c, 10, 79, 76
10, 58784, Note_on_c, 10, 79, 0
10, 58800, Note_on_c, 10, 78, 76
10, 58904, Note_on_c, 10, 78, 0
10, 58920, Note_on_c, 10, 76, 76
10, 59024, Note_on_c, 10, 76, 0
10, 59040, Note_on_c, 10, 74, 76
10, 59144, Note_on_c, 10, 74, 0
10, 59160, Note_on_c, 10, 73, 76
10, 59264, Note_on_c, 10, 73, 0
10, 59280, Note_on_c, 10, 71, 76
10, 59504, Note_on_c, 10, 71, 0
10, 59520, Note_on_c, 10, 82, 76
10, 59744, Note_on_c, 10, 82, 0
10, 59760, Note_on_c, 10, 83, 76
10, 59984, Note_on_c, 10, 83, 0
10, 60000, Note_on_c, 10, 85, 76
10, 60224, Note_on_c, 10, 85, 0
10, 60240, Note_on_c, 10, 76, 76
10, 60344, Note_on_c, 10, 76, 0
10, 60360, Note_on_c, 10, 74, 76
10, 60464, Note_on_c, 10, 74, 0
10, 60480, Note_on_c, 10, 76, 76
10, 60584, Note_on_c, 10, 76, 0
10, 60600, Note_on_c, 10, 73, 76
10, 60704, Note_on_c, 10, 73, 0
10, 60720, Note_on_c, 10, 74, 76
10, 60824, Note_on_c, 10, 74, 0
10, 60840, Note_on_c, 10, 76, 76
10, 60944, Note_on_c, 10, 76, 0
10, 60960, Note_on_c, 10, 78, 76
10, 61184, Note_on_c, 10, 78, 0
10, 61200, Note_on_c, 10, 71, 76
10, 61424, Note_on_c, 10, 71, 0
10, 61440, Note_on_c, 10, 70, 76
10, 61544, Note_on_c, 10, 70, 0
10, 61560, Note_on_c, 10, 73, 76
10, 61664, Note_on_c, 10, 73, 0
10, 61680, Note_on_c, 10, 76, 76
10, 61784, Note_on_c, 10, 76, 0
10, 61800, Note_on_c, 10, 73, 76
10, 61904, Note_on_c, 10, 73, 0
10, 61920, Note_on_c, 10, 74, 76
10, 62024, Note_on_c, 10, 74, 0
10, 62040, Note_on_c, 10, 71, 76
10, 62144, Note_on_c, 10, 71, 0
10, 62160, Note_on_c, 10, 66, 76
10, 62384, Note_on_c, 10, 66, 0
10, 62400, Note_on_c, 10, 64, 76
10, 62504, Note_on_c, 10, 64, 0
10, 62520, Note_on_c, 10, 62, 76
10, 62624, Note_on_c, 10, 62, 0
10, 62640, Note_on_c, 10, 61, 76
10, 62744, Note_on_c, 10, 61, 0
10, 62760, Note_on_c, 10, 62, 76
10, 62864, Note_on_c, 10, 62, 0
10, 62880, Note_on_c, 10, 59, 76
10, 63104, Note_on_c, 10, 59, 0
10, 63120, Note_on_c, 10, 67, 76
10, 63359, Note_on_c, 10, 67, 0
10, 63600, Note_on_c, 10, 66, 76
10, 63824, Note_on_c, 10, 66, 0
10, 63840, Note_on_c, 10, 74, 76
10, 64079, Note_on_c, 10, 74, 0
10, 64320, Note_on_c, 10, 73, 76
10, 64424, Note_on_c, 10, 73, 0
10, 64440, Note_on_c, 10, 74, 76
10, 64544, Note_on_c, 10, 74, 0
10, 64560, Note_on_c, 10, 76, 76
10, 64664, Note_on_c, 10, 76, 0
10, 64680, Note_on_c, 10, 78, 76
10, 64784, Note_on_c, 10, 78, 0
10, 64800, Note_on_c, 10, 79, 76
10, 64904, Note_on_c, 10, 79, 0
10, 64920, Note_on_c, 10, 76, 76
10, 65024, Note_on_c, 10, 76, 0
10, 65040, Note_on_c, 10, 78, 76
10, 65264, Note_on_c, 10, 78, 0
10, 65280, Note_on_c, 10, 76, 76
10, 65504, Note_on_c, 10, 76, 0
10, 65520, Note_on_c, 10, 74, 76
10, 65744, Note_on_c, 10, 74, 0
10, 65760, Note_on_c, 10, 73, 76
10, 65864, Note_on_c, 10, 73, 0
10, 65880, Note_on_c, 10, 74, 76
10, 65984, Note_on_c, 10, 74, 0
10, 66000, Note_on_c, 10, 76, 76
10, 66224, Note_on_c, 10, 76, 0
10, 66240, Note_on_c, 10, 69, 76
10, 66464, Note_on_c, 10, 69, 0
10, 66480, Note_on_c, 10, 74, 76
10, 66704, Note_on_c, 10, 74, 0
10, 66720, Note_on_c, 10, 66, 76
10, 66749, Note_on_c, 10, 66, 0
10, 66750, Note_on_c, 10, 67, 76
10, 66779, Note_on_c, 10, 67, 0
10, 66780, Note_on_c, 10, 66, 76
10, 66809, Note_on_c, 10, 66, 0
10, 66810, Note_on_c, 10, 67, 76
10, 66839, Note_on_c, 10, 67, 0
10, 66840, Note_on_c, 10, 66, 76
10, 66869, Note_on_c, 10, 66, 0
10, 66870, Note_on_c, 10, 67, 76
10, 66899, Note_on_c, 10, 67, 0
10, 66900, Note_on_c, 10, 66, 76
10, 66929, Note_on_c, 10, 66, 0
10, 66930, Note_on_c, 10, 67, 76
10, 66959, Note_on_c, 10, 67, 0
10, 66960, Note_on_c, 10, 66, 76
10, 66989, Note_on_c, 10, 66, 0
10, 66990, Note_on_c, 10, 67, 76
10, 67019, Note_on_c, 10, 67, 0
10, 67020, Note_on_c, 10, 66, 76
10, 67049, Note_on_c, 10, 66, 0
10, 67050, Note_on_c, 10, 67, 76
10, 67079, Note_on_c, 10, 67, 0
10, 67080, Note_on_c, 10, 64, 76
10, 67131, Note_on_c, 10, 64, 0
10, 67140, Note_on_c, 10, 66, 76
10, 67191, Note_on_c, 10, 66, 0
10, 67200, Note_on_c, 10, 67, 76
10, 67424, Note_on_c, 10, 67, 0
10, 67440, Note_on_c, 10, 66, 76
10, 67544, Note_on_c, 10, 66, 0
10, 67560, Note_on_c, 10, 64, 76
10, 67664, Note_on_c, 10, 64, 0
10, 67680, Note_on_c, 10, 66, 76
10, 67784, Note_on_c, 10, 66, 0
10, 67800, Note_on_c, 10, 67, 76
10, 67904, Note_on_c, 10, 67, 0
10, 67920, Note_on_c, 10, 69, 76
10, 68144, Note_on_c, 10, 69, 0
10, 68160, Note_on_c, 10, 62, 76
10, 68384, Note_on_c, 10, 62, 0
10, 68400, Note_on_c, 10, 61, 76
10, 68624, Note_on_c, 10, 61, 0
10, 68640, Note_on_c, 10, 62, 76
10, 69344, Note_on_c, 10, 62, 0
10, 69360, Note_on_c, 10, 76, 76
10, 70184, Note_on_c, 10, 76, 0
10, 70200, Note_on_c, 10, 79, 76
10, 70304, Note_on_c, 10, 79, 0
10, 70320, Note_on_c, 10, 78, 76
10, 70424, Note_on_c, 10, 78, 0
10, 70440, Note_on_c, 10, 76, 76
10, 70544, Note_on_c, 10, 76, 0
10, 70560, Note_on_c, 10, 74, 76
10, 70664, Note_on_c, 10, 74, 0
10, 70680, Note_on_c, 10, 73, 76
10, 70784, Note_on_c, 10, 73, 0
10, 70800, Note_on_c, 10, 71, 76
10, 71024, Note_on_c, 10, 71, 0
10, 71040, Note_on_c, 10, 82, 76
10, 71264, Note_on_c, 10, 82, 0
10, 71280, Note_on_c, 10, 83, 76
10, 71504, Note_on_c, 10, 83, 0
10, 71520, Note_on_c, 10, 85, 76
10, 71744, Note_on_c, 10, 85, 0
10, 71760, Note_on_c, 10, 76, 76
10, 71864, Note_on_c, 10, 76, 0
10, 71880, Note_on_c, 10, 74, 76
10, 71984, Note_on_c, 10, 74, 0
10, 72000, Note_on_c, 10, 76, 76
10, 72104, Note_on_c, 10, 76, 0
10, 72120, Note_on_c, 10, 73, 76
10, 72224, Note_on_c, 10, 73, 0
10, 72240, Note_on_c, 10, 74, 76
10, 72344, Note_on_c, 10, 74, 0
10, 72360, Note_on_c, 10, 76, 76
10, 72464, Note_on_c, 10, 76, 0
10, 72480, Note_on_c, 10, 78, 76
10, 72704, Note_on_c, 10, 78, 0
10, 72720, Note_on_c, 10, 71, 76
10, 72944, Note_on_c, 10, 71, 0
10, 72960, Note_on_c, 10, 70, 76
10, 73064, Note_on_c, 10, 70, 0
10, 73080, Note_on_c, 10, 73, 76
10, 73184, Note_on_c, 10, 73, 0
10, 73200, Note_on_c, 10, 76, 76
10, 73304, Note_on_c, 10, 76, 0
10, 73320, Note_on_c, 10, 73, 76
10, 73424, Note_on_c, 10, 73, 0
10, 73440, Note_on_c, 10, 74, 76
10, 73544, Note_on_c, 10, 74, 0
10, 73560, Note_on_c, 10, 71, 76
10, 73664, Note_on_c, 10, 71, 0
10, 73680, Note_on_c, 10, 66, 76
10, 73904, Note_on_c, 10, 66, 0
10, 73920, Note_on_c, 10, 64, 76
10, 74024, Note_on_c, 10, 64, 0
10, 74040, Note_on_c, 10, 62, 76
10, 74144, Note_on_c, 10, 62, 0
10, 74160, Note_on_c, 10, 61, 76
10, 74264, Note_on_c, 10, 61, 0
10, 74280, Note_on_c, 10, 62, 76
10, 74384, Note_on_c, 10, 62, 0
10, 74400, Note_on_c, 10, 59, 76
10, 74624, Note_on_c, 10, 59, 0
10, 74640, Note_on_c, 10, 67, 76
10, 74879, Note_on_c, 10, 67, 0
10, 75120, Note_on_c, 10, 66, 76
10, 75344, Note_on_c, 10, 66, 0
10, 75360, Note_on_c, 10, 74, 76
10, 75599, Note_on_c, 10, 74, 0
10, 75840, Note_on_c, 10, 73, 76
10, 75944, Note_on_c, 10, 73, 0
10, 75960, Note_on_c, 10, 74, 76
10, 76064, Note_on_c, 10, 74, 0
10, 76080, Note_on_c, 10, 76, 76
10, 76184, Note_on_c, 10, 76, 0
10, 76200, Note_on_c, 10, 78, 76
10, 76304, Note_on_c, 10, 78, 0
10, 76320, Note_on_c, 10, 79, 76
10, 76424, Note_on_c, 10, 79, 0
10, 76440, Note_on_c, 10, 76, 76
10, 76544, Note_on_c, 10, 76, 0
10, 76560, Note_on_c, 10, 78, 76
10, 76784, Note_on_c, 10, 78, 0
10, 76800, Note_on_c, 10, 76, 76
10, 77024, Note_on_c, 10, 76, 0
10, 77040, Note_on_c, 10, 74, 76
10, 77264, Note_on_c, 10, 74, 0
10, 77280, Note_on_c, 10, 73, 76
10, 77384, Note_on_c, 10, 73, 0
10, 77400, Note_on_c, 10, 74, 76
10, 77504, Note_on_c, 10, 74, 0
10, 77520, Note_on_c, 10, 76, 76
10, 77744, Note_on_c, 10, 76, 0
10, 77760, Note_on_c, 10, 69, 76
10, 77984, Note_on_c, 10, 69, 0
10, 78000, Note_on_c, 10, 74, 76
10, 78224, Note_on_c, 10, 74, 0
10, 78240, Note_on_c, 10, 66, 76
10, 78269, Note_on_c, 10, 66, 0
10, 78270, Note_on_c, 10, 67, 76
10, 78299, Note_on_c, 10, 67, 0
10, 78300, Note_on_c, 10, 66, 76
10, 78329, Note_on_c, 10, 66, 0
10, 78330, Note_on_c, 10, 67, 76
10, 78359, Note_on_c, 10, 67, 0
10, 78360, Note_on_c, 10, 66, 76
10, 78389, Note_on_c, 10, 66, 0
10, 78390, Note_on_c, 10, 67, 76
10, 78419, Note_on_c, 10, 67, 0
10, 78420, Note_on_c, 10, 66, 76
10, 78449, Note_on_c, 10, 66, 0
10, 78450, Note_on_c, 10, 67, 76
10, 78479, Note_on_c, 10, 67, 0
10, 78480, Note_on_c, 10, 66, 76
10, 78509, Note_on_c, 10, 66, 0
10, 78510, Note_on_c, 10, 67, 76
10, 78539, Note_on_c, 10, 67, 0
10, 78540, Note_on_c, 10, 66, 76
10, 78569, Note_on_c, 10, 66, 0
10, 78570, Note_on_c, 10, 67, 76
10, 78599, Note_on_c, 10, 67, 0
10, 78600, Note_on_c, 10, 64, 76
10, 78651, Note_on_c, 10, 64, 0
10, 78660, Note_on_c, 10, 66, 76
10, 78711, Note_on_c, 10, 66, 0
10, 78720, Note_on_c, 10, 67, 76
10, 78944, Note_on_c, 10, 67, 0
10, 78960, Note_on_c, 10, 66, 76
10, 79064, Note_on_c, 10, 66, 0
10, 79080, Note_on_c, 10, 64, 76
10, 79184, Note_on_c, 10, 64, 0
10, 79200, Note_on_c, 10, 66, 76
10, 79304, Note_on_c, 10, 66, 0
10, 79320, Note_on_c, 10, 67, 76
10, 79424, Note_on_c, 10, 67, 0
10, 79440, Note_on_c, 10, 69, 76
10, 79664, Note_on_c, 10, 69, 0
10, 79680, Note_on_c, 10, 62, 76
10, 79904, Note_on_c, 10, 62, 0
10, 79920, Note_on_c, 10, 61, 76
10, 80144, Note_on_c, 10, 61, 0
10, 80160, Note_on_c, 10, 62, 76
10, 80879, Note_on_c, 10, 62, 0
10, 81120, Note_on_c, 10, 78, 76
10, 81224, Note_on_c, 10, 78, 0
10, 81240, Note_on_c, 10, 79, 76
10, 81344, Note_on_c, 10, 79, 0
10, 81360, Note_on_c, 10, 79, 76
10, 81389, Note_on_c, 10, 79, 0
10, 81390, Note_on_c, 10, 81, 76
10, 81419, Note_on_c, 10, 81, 0
10, 81420, Note_on_c, 10, 79, 76
10, 81449, Note_on_c, 10, 79, 0
10, 81450, Note_on_c, 10, 81, 76
10, 81479, Note_on_c, 10, 81, 0
10, 81480, Note_on_c, 10, 79, 76
10, 81509, Note_on_c, 10, 79, 0
10, 81510, Note_on_c, 10, 81, 76
10, 81539, Note_on_c, 10, 81, 0
10, 81540, Note_on_c, 10, 79, 76
10, 81569, Note_on_c, 10, 79, 0
10, 81570, Note_on_c, 10, 81, 76
10, 81599, Note_on_c, 10, 81, 0
10, 81600, Note_on_c, 10, 79, 76
10, 81629, Note_on_c, 10, 79, 0
10, 81630, Note_on_c, 10, 81, 76
10, 81659, Note_on_c, 10, 81, 0
10, 81660, Note_on_c, 10, 79, 76
10, 81689, Note_on_c, 10, 79, 0
10, 81690, Note_on_c, 10, 81, 76
10, 81719, Note_on_c, 10, 81, 0
10, 81720, Note_on_c, 10, 78, 76
10, 81779, Note_on_c, 10, 78, 0
10, 81780, Note_on_c, 10, 79, 76
10, 81831, Note_on_c, 10, 79, 0
10, 81840, Note_on_c, 10, 81, 76
10, 81944, Note_on_c, 10, 81, 0
10, 81960, Note_on_c, 10, 79, 76
10, 82064, Note_on_c, 10, 79, 0
10, 82080, Note_on_c, 10, 78, 76
10, 82184, Note_on_c, 10, 78, 0
10, 82200, Note_on_c, 10, 79, 76
10, 82304, Note_on_c, 10, 79, 0
10, 82320, Note_on_c, 10, 81, 76
10, 82544, Note_on_c, 10, 81, 0
10, 82560, Note_on_c, 10, 71, 76
10, 82784, Note_on_c, 10, 71, 0
10, 82800, Note_on_c, 10, 76, 76
10, 83024, Note_on_c, 10, 76, 0
10, 83040, Note_on_c, 10, 73, 76
10, 83264, Note_on_c, 10, 73, 0
10, 83280, Note_on_c, 10, 74, 76
10, 83384, Note_on_c, 10, 74, 0
10, 83400, Note_on_c, 10, 73, 76
10, 83504, Note_on_c, 10, 73, 0
10, 83520, Note_on_c, 10, 74, 76
10, 83624, Note_on_c, 10, 74, 0
10, 83640, Note_on_c, 10, 76, 76
10, 83744, Note_on_c, 10, 76, 0
10, 83760, Note_on_c, 10, 78, 76
10, 83864, Note_on_c, 10, 78, 0
10, 83880, Note_on_c, 10, 74, 76
10, 83984, Note_on_c, 10, 74, 0
10, 84000, Note_on_c, 10, 76, 76
10, 84104, Note_on_c, 10, 76, 0
10, 84120, Note_on_c, 10, 78, 76
10, 84224, Note_on_c, 10, 78, 0
10, 84240, Note_on_c, 10, 78, 76
10, 84269, Note_on_c, 10, 78, 0
10, 84270, Note_on_c, 10, 79, 76
10, 84299, Note_on_c, 10, 79, 0
10, 84300, Note_on_c, 10, 78, 76
10, 84329, Note_on_c, 10, 78, 0
10, 84330, Note_on_c, 10, 79, 76
10, 84359, Note_on_c, 10, 79, 0
10, 84360, Note_on_c, 10, 78, 76
10, 84389, Note_on_c, 10, 78, 0
10, 84390, Note_on_c, 10, 79, 76
10, 84419, Note_on_c, 10, 79, 0
10, 84420, Note_on_c, 10, 78, 76
10, 84449, Note_on_c, 10, 78, 0
10, 84450, Note_on_c, 10, 79, 76
10, 84479, Note_on_c, 10, 79, 0
10, 84480, Note_on_c, 10, 78, 76
10, 84509, Note_on_c, 10, 78, 0
10, 84510, Note_on_c, 10, 79, 76
10, 84539, Note_on_c, 10, 79, 0
10, 84540, Note_on_c, 10, 78, 76
10, 84569, Note_on_c, 10, 78, 0
10, 84570, Note_on_c, 10, 79, 76
10, 84599, Note_on_c, 10, 79, 0
10, 84600, Note_on_c, 10, 76, 76
10, 84659, Note_on_c, 10, 76, 0
10, 84660, Note_on_c, 10, 78, 76
10, 84711, Note_on_c, 10, 78, 0
10, 84720, Note_on_c, 10, 79, 76
10, 84824, Note_on_c, 10, 79, 0
10, 84840, Note_on_c, 10, 78, 76
10, 84944, Note_on_c, 10, 78, 0
10, 84960, Note_on_c, 10, 76, 76
10, 85064, Note_on_c, 10, 76, 0
10, 85080, Note_on_c, 10, 78, 76
10, 85184, Note_on_c, 10, 78, 0
10, 85200, Note_on_c, 10, 79, 76
10, 85304, Note_on_c, 10, 79, 0
10, 85320, Note_on_c, 10, 76, 76
10, 85424, Note_on_c, 10, 76, 0
10, 85440, Note_on_c, 10, 78, 76
10, 85544, Note_on_c, 10, 78, 0
10, 85560, Note_on_c, 10, 80, 76
10, 85664, Note_on_c, 10, 80, 0
10, 85680, Note_on_c, 10, 80, 76
10, 85709, Note_on_c, 10, 80, 0
10, 85710, Note_on_c, 10, 81, 76
10, 85739, Note_on_c, 10, 81, 0
10, 85740, Note_on_c, 10, 80, 76
10, 85769, Note_on_c, 10, 80, 0
10, 85770, Note_on_c, 10, 81, 76
10, 85799, Note_on_c, 10, 81, 0
10, 85800, Note_on_c, 10, 80, 76
10, 85829, Note_on_c, 10, 80, 0
10, 85830, Note_on_c, 10, 81, 76
10, 85859, Note_on_c, 10, 81, 0
10, 85860, Note_on_c, 10, 80, 76
10, 85889, Note_on_c, 10, 80, 0
10, 85890, Note_on_c, 10, 81, 76
10, 85919, Note_on_c, 10, 81, 0
10, 85920, Note_on_c, 10, 80, 76
10, 85949, Note_on_c, 10, 80, 0
10, 85950, Note_on_c, 10, 81, 76
10, 85979, Note_on_c, 10, 81, 0
10, 85980, Note_on_c, 10, 80, 76
10, 86009, Note_on_c, 10, 80, 0
10, 86010, Note_on_c, 10, 81, 76
10, 86039, Note_on_c, 10, 81, 0
10, 86040, Note_on_c, 10, 78, 76
10, 86099, Note_on_c, 10, 78, 0
10, 86100, Note_on_c, 10, 80, 76
10, 86151, Note_on_c, 10, 80, 0
10, 86160, Note_on_c, 10, 81, 76
10, 86864, Note_on_c, 10, 81, 0
10, 86880, Note_on_c, 10, 78, 76
10, 86984, Note_on_c, 10, 78, 0
10, 87000, Note_on_c, 10, 79, 76
10, 87104, Note_on_c, 10, 79, 0
10, 87120, Note_on_c, 10, 79, 76
10, 87149, Note_on_c, 10, 79, 0
10, 87150, Note_on_c, 10, 81, 76
10, 87179, Note_on_c, 10, 81, 0
10, 87180, Note_on_c, 10, 79, 76
10, 87209, Note_on_c, 10, 79, 0
10, 87210, Note_on_c, 10, 81, 76
10, 87239, Note_on_c, 10, 81, 0
10, 87240, Note_on_c, 10, 79, 76
10, 87269, Note_on_c, 10, 79, 0
10, 87270, Note_on_c, 10, 81, 76
10, 87299, Note_on_c, 10, 81, 0
10, 87300, Note_on_c, 10, 79, 76
10, 87329, Note_on_c, 10, 79, 0
10, 87330, Note_on_c, 10, 81, 76
10, 87359, Note_on_c, 10, 81, 0
10, 87360, Note_on_c, 10, 79, 76
10, 87389, Note_on_c, 10, 79, 0
10, 87390, Note_on_c, 10, 81, 76
10, 87419, Note_on_c, 10, 81, 0
10, 87420, Note_on_c, 10, 79, 76
10, 87449, Note_on_c, 10, 79, 0
10, 87450, Note_on_c, 10, 81, 76
10, 87479, Note_on_c, 10, 81, 0
10, 87480, Note_on_c, 10, 78, 76
10, 87539, Note_on_c, 10, 78, 0
10, 87540, Note_on_c, 10, 79, 76
10, 87591, Note_on_c, 10, 79, 0
10, 87600, Note_on_c, 10, 81, 76
10, 87704, Note_on_c, 10, 81, 0
10, 87720, Note_on_c, 10, 79, 76
10, 87824, Note_on_c, 10, 79, 0
10, 87840, Note_on_c, 10, 78, 76
10, 87944, Note_on_c, 10, 78, 0
10, 87960, Note_on_c, 10, 79, 76
10, 88064, Note_on_c, 10, 79, 0
10, 88080, Note_on_c, 10, 81, 76
10, 88304, Note_on_c, 10, 81, 0
10, 88320, Note_on_c, 10, 71, 76
10, 88544, Note_on_c, 10, 71, 0
10, 88560, Note_on_c, 10, 76, 76
10, 88784, Note_on_c, 10, 76, 0
10, 88800, Note_on_c, 10, 73, 76
10, 89024, Note_on_c, 10, 73, 0
10, 89040, Note_on_c, 10, 74, 76
10, 89144, Note_on_c, 10, 74, 0
10, 89160, Note_on_c, 10, 73, 76
10, 89264, Note_on_c, 10, 73, 0
10, 89280, Note_on_c, 10, 74, 76
10, 89384, Note_on_c, 10, 74, 0
10, 89400, Note_on_c, 10, 76, 76
10, 89504, Note_on_c, 10, 76, 0
10, 89520, Note_on_c, 10, 78, 76
10, 89624, Note_on_c, 10, 78, 0
10, 89640, Note_on_c, 10, 74, 76
10, 89744, Note_on_c, 10, 74, 0
10, 89760, Note_on_c, 10, 76, 76
10, 89864, Note_on_c, 10, 76, 0
10, 89880, Note_on_c, 10, 78, 76
10, 89984, Note_on_c, 10, 78, 0
10, 90000, Note_on_c, 10, 78, 76
10, 90029, Note_on_c, 10, 78, 0
10, 90030, Note_on_c, 10, 79, 76
10, 90059, Note_on_c, 10, 79, 0
10, 90060, Note_on_c, 10, 78, 76
10, 90089, Note_on_c, 10, 78, 0
10, 90090, Note_on_c, 10, 79, 76
10, 90119, Note_on_c, 10, 79, 0
10, 90120, Note_on_c, 10, 78, 76
10, 90149, Note_on_c, 10, 78, 0
10, 90150, Note_on_c, 10, 79, 76
10, 90179, Note_on_c, 10, 79, 0
10, 90180, Note_on_c, 10, 78, 76
10, 90209, Note_on_c, 10, 78, 0
10, 90210, Note_on_c, 10, 79, 76
10, 90239, Note_on_c, 10, 79, 0
10, 90240, Note_on_c, 10, 78, 76
10, 90269, Note_on_c, 10, 78, 0
10, 90270, Note_on_c, 10, 79, 76
10, 90299, Note_on_c, 10, 79, 0
10, 90300, Note_on_c, 10, 78, 76
10, 90329, Note_on_c, 10, 78, 0
10, 90330, Note_on_c, 10, 79, 76
10, 90359, Note_on_c, 10, 79, 0
10, 90360, Note_on_c, 10, 76, 76
10, 90419, Note_on_c, 10, 76, 0
10, 90420, Note_on_c, 10, 78, 76
10, 90471, Note_on_c, 10, 78, 0
10, 90480, Note_on_c, 10, 79, 76
10, 90584, Note_on_c, 10, 79, 0
10, 90600, Note_on_c, 10, 78, 76
10, 90704, Note_on_c, 10, 78, 0
10, 90720, Note_on_c, 10, 76, 76
10, 90824, Note_on_c, 10, 76, 0
10, 90840, Note_on_c, 10, 78, 76
10, 90944, Note_on_c, 10, 78, 0
10, 90960, Note_on_c, 10, 79, 76
10, 91064, Note_on_c, 10, 79, 0
10, 91080, Note_on_c, 10, 76, 76
10, 91184, Note_on_c, 10, 76, 0
10, 91200, Note_on_c, 10, 78, 76
10, 91304, Note_on_c, 10, 78, 0
10, 91320, Note_on_c, 10, 80, 76
10, 91424, Note_on_c, 10, 80, 0
10, 91440, Note_on_c, 10, 80, 76
10, 91469, Note_on_c, 10, 80, 0
10, 91470, Note_on_c, 10, 81, 76
10, 91499, Note_on_c, 10, 81, 0
10, 91500, Note_on_c, 10, 80, 76
10, 91529, Note_on_c, 10, 80, 0
10, 91530, Note_on_c, 10, 81, 76
10, 91559, Note_on_c, 10, 81, 0
10, 91560, Note_on_c, 10, 80, 76
10, 91589, Note_on_c, 10, 80, 0
10, 91590, Note_on_c, 10, 81, 76
10, 91619, Note_on_c, 10, 81, 0
10, 91620, Note_on_c, 10, 80, 76
10, 91649, Note_on_c, 10, 80, 0
10, 91650, Note_on_c, 10, 81, 76
10, 91679, Note_on_c, 10, 81, 0
10, 91680, Note_on_c, 10, 80, 76
10, 91709, Note_on_c, 10, 80, 0
10, 91710, Note_on_c, 10, 81, 76
10, 91739, Note_on_c, 10, 81, 0
10, 91740, Note_on_c, 10, 80, 76
10, 91769, Note_on_c, 10, 80, 0
10, 91770, Note_on_c, 10, 81, 76
10, 91799, Note_on_c, 10, 81, 0
10, 91800, Note_on_c, 10, 78, 76
10, 91859, Note_on_c, 10, 78, 0
10, 91860, Note_on_c, 10, 80, 76
10, 91911, Note_on_c, 10, 80, 0
10, 91920, Note_on_c, 10, 81, 76
10, 92624, Note_on_c, 10, 81, 0
10, 92640, Note_on_c, 10, 76, 76
10, 92864, Note_on_c, 10, 76, 0
10, 92880, Note_on_c, 10, 74, 76
10, 92984, Note_on_c, 10, 74, 0
10, 93000, Note_on_c, 10, 73, 76
10, 93104, Note_on_c, 10, 73, 0
10, 93120, Note_on_c, 10, 74, 76
10, 93224, Note_on_c, 10, 74, 0
10, 93240, Note_on_c, 10, 71, 76
10, 93344, Note_on_c, 10, 71, 0
10, 93360, Note_on_c, 10, 73, 76
10, 93464, Note_on_c, 10, 73, 0
10, 93480, Note_on_c, 10, 74, 76
10, 93584, Note_on_c, 10, 74, 0
10, 93600, Note_on_c, 10, 76, 76
10, 93824, Note_on_c, 10, 76, 0
10, 93840, Note_on_c, 10, 69, 76
10, 94064, Note_on_c, 10, 69, 0
10, 94080, Note_on_c, 10, 74, 76
10, 94184, Note_on_c, 10, 74, 0
10, 94200, Note_on_c, 10, 76, 76
10, 94304, Note_on_c, 10, 76, 0
10, 94320, Note_on_c, 10, 76, 76
10, 94349, Note_on_c, 10, 76, 0
10, 94350, Note_on_c, 10, 78, 76
10, 94379, Note_on_c, 10, 78, 0
10, 94380, Note_on_c, 10, 76, 76
10, 94409, Note_on_c, 10, 76, 0
10, 94410, Note_on_c, 10, 78, 76
10, 94439, Note_on_c, 10, 78, 0
10, 94440, Note_on_c, 10, 76, 76
10, 94469, Note_on_c, 10, 76, 0
10, 94470, Note_on_c, 10, 78, 76
10, 94499, Note_on_c, 10, 78, 0
10, 94500, Note_on_c, 10, 76, 76
10, 94529, Note_on_c, 10, 76, 0
10, 94530, Note_on_c, 10, 78, 76
10, 94559, Note_on_c, 10, 78, 0
10, 94560, Note_on_c, 10, 76, 76
10, 94589, Note_on_c, 10, 76, 0
10, 94590, Note_on_c, 10, 78, 76
10, 94619, Note_on_c, 10, 78, 0
10, 94620, Note_on_c, 10, 76, 76
10, 94649, Note_on_c, 10, 76, 0
10, 94650, Note_on_c, 10, 78, 76
10, 94679, Note_on_c, 10, 78, 0
10, 94680, Note_on_c, 10, 74, 76
10, 94739, Note_on_c, 10, 74, 0
10, 94740, Note_on_c, 10, 76, 76
10, 94791, Note_on_c, 10, 76, 0
10, 94800, Note_on_c, 10, 78, 76
10, 94904, Note_on_c, 10, 78, 0
10, 94920, Note_on_c, 10, 76, 76
10, 95024, Note_on_c, 10, 76, 0
10, 95040, Note_on_c, 10, 74, 76
10, 95144, Note_on_c, 10, 74, 0
10, 95160, Note_on_c, 10, 76, 76
10, 95264, Note_on_c, 10, 76, 0
10, 95280, Note_on_c, 10, 78, 76
10, 95384, Note_on_c, 10, 78, 0
10, 95400, Note_on_c, 10, 79, 76
10, 95504, Note_on_c, 10, 79, 0
10, 95520, Note_on_c, 10, 81, 76
10, 95744, Note_on_c, 10, 81, 0
10, 95760, Note_on_c, 10, 78, 76
10, 95789, Note_on_c, 10, 78, 0
10, 95790, Note_on_c, 10, 79, 76
10, 95819, Note_on_c, 10, 79, 0
10, 95820, Note_on_c, 10, 78, 76
10, 95849, Note_on_c, 10, 78, 0
10, 95850, Note_on_c, 10, 79, 76
10, 95879, Note_on_c, 10, 79, 0
10, 95880, Note_on_c, 10, 78, 76
10, 95909, Note_on_c, 10, 78, 0
10, 95910, Note_on_c, 10, 79, 76
10, 95939, Note_on_c, 10, 79, 0
10, 95940, Note_on_c, 10, 78, 76
10, 95969, Note_on_c, 10, 78, 0
10, 95970, Note_on_c, 10, 79, 76
10, 95999, Note_on_c, 10, 79, 0
10, 96000, Note_on_c, 10, 78, 76
10, 96029, Note_on_c, 10, 78, 0
10, 96030, Note_on_c, 10, 79, 76
10, 96059, Note_on_c, 10, 79, 0
10, 96060, Note_on_c, 10, 78, 76
10, 96089, Note_on_c, 10, 78, 0
10, 96090, Note_on_c, 10, 79, 76
10, 96119, Note_on_c, 10, 79, 0
10, 96120, Note_on_c, 10, 76, 76
10, 96179, Note_on_c, 10, 76, 0
10, 96180, Note_on_c, 10, 78, 76
10, 96231, Note_on_c, 10, 78, 0
10, 96240, Note_on_c, 10, 79, 76
10, 96464, Note_on_c, 10, 79, 0
10, 96480, Note_on_c, 10, 75, 76
10, 96704, Note_on_c, 10, 75, 0
10, 96720, Note_on_c, 10, 76, 76
10, 96959, Note_on_c, 10, 76, 0
10, 97080, Note_on_c, 10, 78, 76
10, 97184, Note_on_c, 10, 78, 0
10, 97200, Note_on_c, 10, 78, 76
10, 97544, Note_on_c, 10, 78, 0
10, 97560, Note_on_c, 10, 76, 76
10, 97664, Note_on_c, 10, 76, 0
10, 97680, Note_on_c, 10, 76, 76
10, 98384, Note_on_c, 10, 76, 0
10, 98400, Note_on_c, 10, 79, 76
10, 98504, Note_on_c, 10, 79, 0
10, 98520, Note_on_c, 10, 81, 76
10, 98624, Note_on_c, 10, 81, 0
10, 98640, Note_on_c, 10, 83, 76
10, 98864, Note_on_c, 10, 83, 0
10, 98880, Note_on_c, 10, 74, 76
10, 99104, Note_on_c, 10, 74, 0
10, 99120, Note_on_c, 10, 73, 76
10, 99344, Note_on_c, 10, 73, 0
10, 99360, Note_on_c, 10, 81, 76
10, 99824, Note_on_c, 10, 81, 0
10, 99840, Note_on_c, 10, 78, 76
10, 99944, Note_on_c, 10, 78, 0
10, 99960, Note_on_c, 10, 79, 76
10, 100064, Note_on_c, 10, 79, 0
10, 100080, Note_on_c, 10, 81, 76
10, 100304, Note_on_c, 10, 81, 0
10, 100320, Note_on_c, 10, 72, 76
10, 100544, Note_on_c, 10, 72, 0
10, 100560, Note_on_c, 10, 71, 76
10, 100784, Note_on_c, 10, 71, 0
10, 100800, Note_on_c, 10, 79, 76
10, 101264, Note_on_c, 10, 79, 0
10, 101280, Note_on_c, 10, 73, 76
10, 101384, Note_on_c, 10, 73, 0
10, 101400, Note_on_c, 10, 74, 76
10, 101504, Note_on_c, 10, 74, 0
10, 101520, Note_on_c, 10, 76, 76
10, 101744, Note_on_c, 10, 76, 0
10, 101760, Note_on_c, 10, 69, 76
10, 101984, Note_on_c, 10, 69, 0
10, 102000, Note_on_c, 10, 74, 76
10, 102104, Note_on_c, 10, 74, 0
10, 102120, Note_on_c, 10, 76, 76
10, 102224, Note_on_c, 10, 76, 0
10, 102240, Note_on_c, 10, 78, 76
10, 102344, Note_on_c, 10, 78, 0
10, 102360, Note_on_c, 10, 79, 76
10, 102464, Note_on_c, 10, 79, 0
10, 102480, Note_on_c, 10, 81, 76
10, 102584, Note_on_c, 10, 81, 0
10, 102600, Note_on_c, 10, 72, 76
10, 102704, Note_on_c, 10, 72, 0
10, 102720, Note_on_c, 10, 71, 76
10, 102944, Note_on_c, 10, 71, 0
10, 102960, Note_on_c, 10, 73, 76
10, 103184, Note_on_c, 10, 73, 0
10, 103200, Note_on_c, 10, 74, 76
10, 103424, Note_on_c, 10, 74, 0
10, 103440, Note_on_c, 10, 76, 76
10, 103664, Note_on_c, 10, 76, 0
10, 103680, Note_on_c, 10, 74, 76
10, 103784, Note_on_c, 10, 74, 0
10, 103800, Note_on_c, 10, 73, 76
10, 103904, Note_on_c, 10, 73, 0
10, 103920, Note_on_c, 10, 71, 76
10, 104024, Note_on_c, 10, 71, 0
10, 104040, Note_on_c, 10, 69, 76
10, 104144, Note_on_c, 10, 69, 0
10, 104160, Note_on_c, 10, 74, 76
10, 104264, Note_on_c, 10, 74, 0
10, 104280, Note_on_c, 10, 73, 76
10, 104384, Note_on_c, 10, 73, 0
10, 104400, Note_on_c, 10, 74, 76
10, 104624, Note_on_c, 10, 74, 0
10, 104640, Note_on_c, 10, 69, 76
10, 104864, Note_on_c, 10, 69, 0
10, 104880, Note_on_c, 10, 66, 76
10, 105104, Note_on_c, 10, 66, 0
10, 105120, Note_on_c, 10, 72, 76
10, 105584, Note_on_c, 10, 72, 0
10, 105600, Note_on_c, 10, 71, 76
10, 105824, Note_on_c, 10, 71, 0
10, 105840, Note_on_c, 10, 73, 76
10, 105944, Note_on_c, 10, 73, 0
10, 105960, Note_on_c, 10, 74, 76
10, 106064, Note_on_c, 10, 74, 0
10, 106080, Note_on_c, 10, 76, 76
10, 106184, Note_on_c, 10, 76, 0
10, 106200, Note_on_c, 10, 78, 76
10, 106304, Note_on_c, 10, 78, 0
10, 106320, Note_on_c, 10, 79, 76
10, 106544, Note_on_c, 10, 79, 0
10, 106560, Note_on_c, 10, 69, 76
10, 107024, Note_on_c, 10, 69, 0
10, 107040, Note_on_c, 10, 78, 76
10, 107144, Note_on_c, 10, 78, 0
10, 107160, Note_on_c, 10, 79, 76
10, 107264, Note_on_c, 10, 79, 0
10, 107280, Note_on_c, 10, 79, 76
10, 107309, Note_on_c, 10, 79, 0
10, 107310, Note_on_c, 10, 81, 76
10, 107339, Note_on_c, 10, 81, 0
10, 107340, Note_on_c, 10, 79, 76
10, 107369, Note_on_c, 10, 79, 0
10, 107370, Note_on_c, 10, 81, 76
10, 107399, Note_on_c, 10, 81, 0
10, 107400, Note_on_c, 10, 79, 76
10, 107429, Note_on_c, 10, 79, 0
10, 107430, Note_on_c, 10, 81, 76
10, 107459, Note_on_c, 10, 81, 0
10, 107460, Note_on_c, 10, 79, 76
10, 107489, Note_on_c, 10, 79, 0
10, 107490, Note_on_c, 10, 81, 76
10, 107519, Note_on_c, 10, 81, 0
10, 107520, Note_on_c, 10, 79, 76
10, 107549, Note_on_c, 10, 79, 0
10, 107550, Note_on_c, 10, 81, 76
10, 107579, Note_on_c, 10, 81, 0
10, 107580, Note_on_c, 10, 79, 76
10, 107609, Note_on_c, 10, 79, 0
10, 107610, Note_on_c, 10, 81, 76
10, 107639, Note_on_c, 10, 81, 0
10, 107640, Note_on_c, 10, 78, 76
10, 107699, Note_on_c, 10, 78, 0
10, 107700, Note_on_c, 10, 79, 76
10, 107751, Note_on_c, 10, 79, 0
10, 107760, Note_on_c, 10, 81, 76
10, 107864, Note_on_c, 10, 81, 0
10, 107880, Note_on_c, 10, 79, 76
10, 107984, Note_on_c, 10, 79, 0
10, 108000, Note_on_c, 10, 78, 76
10, 108104, Note_on_c, 10, 78, 0
10, 108120, Note_on_c, 10, 79, 76
10, 108224, Note_on_c, 10, 79, 0
10, 108240, Note_on_c, 10, 81, 76
10, 108464, Note_on_c, 10, 81, 0
10, 108480, Note_on_c, 10, 71, 76
10, 108704, Note_on_c, 10, 71, 0
10, 108720, Note_on_c, 10, 76, 76
10, 108944, Note_on_c, 10, 76, 0
10, 108960, Note_on_c, 10, 73, 76
10, 109184, Note_on_c, 10, 73, 0
10, 109200, Note_on_c, 10, 74, 76
10, 109904, Note_on_c, 10, 74, 0
10, 109920, Note_on_c, 10, 76, 76
10, 110144, Note_on_c, 10, 76, 0
10, 110160, Note_on_c, 10, 74, 76
10, 110264, Note_on_c, 10, 74, 0
10, 110280, Note_on_c, 10, 73, 76
10, 110384, Note_on_c, 10, 73, 0
10, 110400, Note_on_c, 10, 74, 76
10, 110504, Note_on_c, 10, 74, 0
10, 110520, Note_on_c, 10, 71, 76
10, 110624, Note_on_c, 10, 71, 0
10, 110640, Note_on_c, 10, 73, 76
10, 110744, Note_on_c, 10, 73, 0
10, 110760, Note_on_c, 10, 74, 76
10, 110864, Note_on_c, 10, 74, 0
10, 110880, Note_on_c, 10, 76, 76
10, 111104, Note_on_c, 10, 76, 0
10, 111120, Note_on_c, 10, 69, 76
10, 111344, Note_on_c, 10, 69, 0
10, 111360, Note_on_c, 10, 74, 76
10, 111464, Note_on_c, 10, 74, 0
10, 111480, Note_on_c, 10, 76, 76
10, 111584, Note_on_c, 10, 76, 0
10, 111600, Note_on_c, 10, 76, 76
10, 111629, Note_on_c, 10, 76, 0
10, 111630, Note_on_c, 10, 78, 76
10, 111659, Note_on_c, 10, 78, 0
10, 111660, Note_on_c, 10, 76, 76
10, 111689, Note_on_c, 10, 76, 0
10, 111690, Note_on_c, 10, 78, 76
10, 111719, Note_on_c, 10, 78, 0
10, 111720, Note_on_c, 10, 76, 76
10, 111749, Note_on_c, 10, 76, 0
10, 111750, Note_on_c, 10, 78, 76
10, 111779, Note_on_c, 10, 78, 0
10, 111780, Note_on_c, 10, 76, 76
10, 111809, Note_on_c, 10, 76, 0
10, 111810, Note_on_c, 10, 78, 76
10, 111839, Note_on_c, 10, 78, 0
10, 111840, Note_on_c, 10, 76, 76
10, 111869, Note_on_c, 10, 76, 0
10, 111870, Note_on_c, 10, 78, 76
10, 111899, Note_on_c, 10, 78, 0
10, 111900, Note_on_c, 10, 76, 76
10, 111929, Note_on_c, 10, 76, 0
10, 111930, Note_on_c, 10, 78, 76
10, 111959, Note_on_c, 10, 78, 0
10, 111960, Note_on_c, 10, 74, 76
10, 112019, Note_on_c, 10, 74, 0
10, 112020, Note_on_c, 10, 76, 76
10, 112071, Note_on_c, 10, 76, 0
10, 112080, Note_on_c, 10, 78, 76
10, 112184, Note_on_c, 10, 78, 0
10, 112200, Note_on_c, 10, 76, 76
10, 112304, Note_on_c, 10, 76, 0
10, 112320, Note_on_c, 10, 74, 76
10, 112424, Note_on_c, 10, 74, 0
10, 112440, Note_on_c, 10, 76, 76
10, 112544, Note_on_c, 10, 76, 0
10, 112560, Note_on_c, 10, 78, 76
10, 112664, Note_on_c, 10, 78, 0
10, 112680, Note_on_c, 10, 79, 76
10, 112784, Note_on_c, 10, 79, 0
10, 112800, Note_on_c, 10, 81, 76
10, 113024, Note_on_c, 10, 81, 0
10, 113040, Note_on_c, 10, 78, 76
10, 113069, Note_on_c, 10, 78, 0
10, 113070, Note_on_c, 10, 79, 76
10, 113099, Note_on_c, 10, 79, 0
10, 113100, Note_on_c, 10, 78, 76
10, 113129, Note_on_c, 10, 78, 0
10, 113130, Note_on_c, 10, 79, 76
10, 113159, Note_on_c, 10, 79, 0
10, 113160, Note_on_c, 10, 78, 76
10, 113189, Note_on_c, 10, 78, 0
10, 113190, Note_on_c, 10, 79, 76
10, 113219, Note_on_c, 10, 79, 0
10, 113220, Note_on_c, 10, 78, 76
10, 113249, Note_on_c, 10, 78, 0
10, 113250, Note_on_c, 10, 79, 76
10, 113279, Note_on_c, 10, 79, 0
10, 113280, Note_on_c, 10, 78, 76
10, 113309, Note_on_c, 10, 78, 0
10, 113310, Note_on_c, 10, 79, 76
10, 113339, Note_on_c, 10, 79, 0
10, 113340, Note_on_c, 10, 78, 76
10, 113369, Note_on_c, 10, 78, 0
10, 113370, Note_on_c, 10, 79, 76
10, 113399, Note_on_c, 10, 79, 0
10, 113400, Note_on_c, 10, 76, 76
10, 113459, Note_on_c, 10, 76, 0
10, 113460, Note_on_c, 10, 78, 76
10, 113511, Note_on_c, 10, 78, 0
10, 113520, Note_on_c, 10, 79, 76
10, 113744, Note_on_c, 10, 79, 0
10, 113760, Note_on_c, 10, 75, 76
10, 113984, Note_on_c, 10, 75, 0
10, 114000, Note_on_c, 10, 76, 76
10, 114239, Note_on_c, 10, 76, 0
10, 114360, Note_on_c, 10, 78, 76
10, 114464, Note_on_c, 10, 78, 0
10, 114480, Note_on_c, 10, 78, 76
10, 114824, Note_on_c, 10, 78, 0
10, 114840, Note_on_c, 10, 76, 76
10, 114944, Note_on_c, 10, 76, 0
10, 114960, Note_on_c, 10, 76, 76
10, 115664, Note_on_c, 10, 76, 0
10, 115680, Note_on_c, 10, 79, 76
10, 115784, Note_on_c, 10, 79, 0
10, 115800, Note_on_c, 10, 81, 76
10, 115904, Note_on_c, 10, 81, 0
10, 115920, Note_on_c, 10, 83, 76
10, 116144, Note_on_c, 10, 83, 0
10, 116160, Note_on_c, 10, 74, 76
10, 116384, Note_on_c, 10, 74, 0
10, 116400, Note_on_c, 10, 73, 76
10, 116624, Note_on_c, 10, 73, 0
10, 116640, Note_on_c, 10, 81, 76
10, 117104, Note_on_c, 10, 81, 0
10, 117120, Note_on_c, 10, 78, 76
10, 117224, Note_on_c, 10, 78, 0
10, 117240, Note_on_c, 10, 79, 76
10, 117344, Note_on_c, 10, 79, 0
10, 117360, Note_on_c, 10, 81, 76
10, 117584, Note_on_c, 10, 81, 0
10, 117600, Note_on_c, 10, 72, 76
10, 117824, Note_on_c, 10, 72, 0
10, 117840, Note_on_c, 10, 71, 76
10, 118064, Note_on_c, 10, 71, 0
10, 118080, Note_on_c, 10, 79, 76
10, 118544, Note_on_c, 10, 79, 0
10, 118560, Note_on_c, 10, 73, 76
10, 118664, Note_on_c, 10, 73, 0
10, 118680, Note_on_c, 10, 74, 76
10, 118784, Note_on_c, 10, 74, 0
10, 118800, Note_on_c, 10, 76, 76
10, 119024, Note_on_c, 10, 76, 0
10, 119040, Note_on_c, 10, 69, 76
10, 119264, Note_on_c, 10, 69, 0
10, 119280, Note_on_c, 10, 74, 76
10, 119384, Note_on_c, 10, 74, 0
10, 119400, Note_on_c, 10, 76, 76
10, 119504, Note_on_c, 10, 76, 0
10, 119520, Note_on_c, 10, 78, 76
10, 119624, Note_on_c, 10, 78, 0
10, 119640, Note_on_c, 10, 79, 76
10, 119744, Note_on_c, 10, 79, 0
10, 119760, Note_on_c, 10, 81, 76
10, 119864, Note_on_c, 10, 81, 0
10, 119880, Note_on_c, 10, 72, 76
10, 119984, Note_on_c, 10, 72, 0
10, 120000, Note_on_c, 10, 71, 76
10, 120224, Note_on_c, 10, 71, 0
10, 120240, Note_on_c, 10, 73, 76
10, 120464, Note_on_c, 10, 73, 0
10, 120480, Note_on_c, 10, 74, 76
10, 120704, Note_on_c, 10, 74, 0
10, 120720, Note_on_c, 10, 76, 76
10, 120944, Note_on_c, 10, 76, 0
10, 120960, Note_on_c, 10, 74, 76
10, 121064, Note_on_c, 10, 74, 0
10, 121080, Note_on_c, 10, 73, 76
10, 121184, Note_on_c, 10, 73, 0
10, 121200, Note_on_c, 10, 71, 76
10, 121304, Note_on_c, 10, 71, 0
10, 121320, Note_on_c, 10, 69, 76
10, 121424, Note_on_c, 10, 69, 0
10, 121440, Note_on_c, 10, 74, 76
10, 121544, Note_on_c, 10, 74, 0
10, 121560, Note_on_c, 10, 73, 76
10, 121664, Note_on_c, 10, 73, 0
10, 121680, Note_on_c, 10, 74, 76
10, 121904, Note_on_c, 10, 74, 0
10, 121920, Note_on_c, 10, 69, 76
10, 122144, Note_on_c, 10, 69, 0
10, 122160, Note_on_c, 10, 66, 76
10, 122384, Note_on_c, 10, 66, 0
10, 122400, Note_on_c, 10, 72, 76
10, 122864, Note_on_c, 10, 72, 0
10, 122880, Note_on_c, 10, 71, 76
10, 123104, Note_on_c, 10, 71, 0
10, 123120, Note_on_c, 10, 73, 76
10, 123224, Note_on_c, 10, 73, 0
10, 123240, Note_on_c, 10, 74, 76
10, 123344, Note_on_c, 10, 74, 0
10, 123360, Note_on_c, 10, 76, 76
10, 123464, Note_on_c, 10, 76, 0
10, 123480, Note_on_c, 10, 78, 76
10, 123584, Note_on_c, 10, 78, 0
10, 123600, Note_on_c, 10, 79, 76
10, 123824, Note_on_c, 10, 79, 0
10, 123840, Note_on_c, 10, 69, 76
10, 124304, Note_on_c, 10, 69, 0
10, 124320, Note_on_c, 10, 78, 76
10, 124424, Note_on_c, 10, 78, 0
10, 124440, Note_on_c, 10, 79, 76
10, 124544, Note_on_c, 10, 79, 0
10, 124560, Note_on_c, 10, 79, 76
10, 124589, Note_on_c, 10, 79, 0
10, 124590, Note_on_c, 10, 81, 76
10, 124619, Note_on_c, 10, 81, 0
10, 124620, Note_on_c, 10, 79, 76
10, 124649, Note_on_c, 10, 79, 0
10, 124650, Note_on_c, 10, 81, 76
10, 124679, Note_on_c, 10, 81, 0
10, 124680, Note_on_c, 10, 79, 76
10, 124709, Note_on_c, 10, 79, 0
10, 124710, Note_on_c, 10, 81, 76
10, 124739, Note_on_c, 10, 81, 0
10, 124740, Note_on_c, 10, 79, 76
10, 124769, Note_on_c, 10, 79, 0
10, 124770, Note_on_c, 10, 81, 76
10, 124799, Note_on_c, 10, 81, 0
10, 124800, Note_on_c, 10, 79, 76
10, 124829, Note_on_c, 10, 79, 0
10, 124830, Note_on_c, 10, 81, 76
10, 124859, Note_on_c, 10, 81, 0
10, 124860, Note_on_c, 10, 79, 76
10, 124889, Note_on_c, 10, 79, 0
10, 124890, Note_on_c, 10, 81, 76
10, 124919, Note_on_c, 10, 81, 0
10, 124920, Note_on_c, 10, 78, 76
10, 124979, Note_on_c, 10, 78, 0
10, 124980, Note_on_c, 10, 79, 76
10, 125031, Note_on_c, 10, 79, 0
10, 125040, Note_on_c, 10, 81, 76
10, 125144, Note_on_c, 10, 81, 0
10, 125160, Note_on_c, 10, 79, 76
10, 125264, Note_on_c, 10, 79, 0
10, 125280, Note_on_c, 10, 78, 76
10, 125384, Note_on_c, 10, 78, 0
10, 125400, Note_on_c, 10, 79, 76
10, 125504, Note_on_c, 10, 79, 0
10, 125520, Note_on_c, 10, 81, 76
10, 125744, Note_on_c, 10, 81, 0
10, 125760, Note_on_c, 10, 71, 76
10, 125984, Note_on_c, 10, 71, 0
10, 126000, Note_on_c, 10, 76, 76
10, 126224, Note_on_c, 10, 76, 0
10, 126240, Note_on_c, 10, 73, 76
10, 126464, Note_on_c, 10, 73, 0
10, 126480, Note_on_c, 10, 74, 76
10, 127199, Note_on_c, 10, 74, 0
10, 127199, End_track
11, 0, Start_track
11, 0, Title_t, "Violin II"
11, 0, MIDI_port, 0
11, 0, Program_c, 11, 48
11, 0, Control_c, 11, 10, 24
11, 0, Control_c, 11, 11, 127
11, 0, Control_c, 11, 7, 96
11, 0, Note_on_c, 11, 74, 76
11, 224, Note_on_c, 11, 74, 0
11, 240, Note_on_c, 11, 74, 76
11, 344, Note_on_c, 11, 74, 0
11, 360, Note_on_c, 11, 73, 76
11, 464, Note_on_c, 11, 73, 0
11, 480, Note_on_c, 11, 74, 76
11, 704, Note_on_c, 11, 74, 0
11, 720, Note_on_c, 11, 74, 76
11, 1424, Note_on_c, 11, 74, 0
11, 1440, Note_on_c, 11, 67, 76
11, 1664, Note_on_c, 11, 67, 0
11, 1680, Note_on_c, 11, 71, 76
11, 1904, Note_on_c, 11, 71, 0
11, 1920, Note_on_c, 11, 69, 76
11, 2144, Note_on_c, 11, 69, 0
11, 2160, Note_on_c, 11, 69, 76
11, 2624, Note_on_c, 11, 69, 0
11, 2640, Note_on_c, 11, 74, 76
11, 2864, Note_on_c, 11, 74, 0
11, 2880, Note_on_c, 11, 69, 76
11, 3104, Note_on_c, 11, 69, 0
11, 3120, Note_on_c, 11, 73, 76
11, 3344, Note_on_c, 11, 73, 0
11, 3360, Note_on_c, 11, 69, 76
11, 3584, Note_on_c, 11, 69, 0
11, 3600, Note_on_c, 11, 74, 76
11, 3824, Note_on_c, 11, 74, 0
11, 3840, Note_on_c, 11, 76, 76
11, 4064, Note_on_c, 11, 76, 0
11, 4080, Note_on_c, 11, 73, 76
11, 4304, Note_on_c, 11, 73, 0
11, 4320, Note_on_c, 11, 74, 76
11, 4424, Note_on_c, 11, 74, 0
11, 4440, Note_on_c, 11, 76, 76
11, 4544, Note_on_c, 11, 76, 0
11, 4560, Note_on_c, 11, 74, 76
11, 4664, Note_on_c, 11, 74, 0
11, 4680, Note_on_c, 11, 73, 76
11, 4784, Note_on_c, 11, 73, 0
11, 4800, Note_on_c, 11, 74, 76
11, 4904, Note_on_c, 11, 74, 0
11, 4920, Note_on_c, 11, 71, 76
11, 5024, Note_on_c, 11, 71, 0
11, 5040, Note_on_c, 11, 73, 76
11, 5744, Note_on_c, 11, 73, 0
11, 5760, Note_on_c, 11, 74, 76
11, 5984, Note_on_c, 11, 74, 0
11, 6000, Note_on_c, 11, 74, 76
11, 6104, Note_on_c, 11, 74, 0
11, 6120, Note_on_c, 11, 73, 76
11, 6224, Note_on_c, 11, 73, 0
11, 6240, Note_on_c, 11, 74, 76
11, 6464, Note_on_c, 11, 74, 0
11, 6480, Note_on_c, 11, 74, 76
11, 7184, Note_on_c, 11, 74, 0
11, 7200, Note_on_c, 11, 67, 76
11, 7424, Note_on_c, 11, 67, 0
11, 7440, Note_on_c, 11, 71, 76
11, 7664, Note_on_c, 11, 71, 0
11, 7680, Note_on_c, 11, 69, 76
11, 7904, Note_on_c, 11, 69, 0
11, 7920, Note_on_c, 11, 69, 76
11, 8384, Note_on_c, 11, 69, 0
11, 8400, Note_on_c, 11, 74, 76
11, 8624, Note_on_c, 11, 74, 0
11, 8640, Note_on_c, 11, 69, 76
11, 8864, Note_on_c, 11, 69, 0
11, 8880, Note_on_c, 11, 73, 76
11, 9104, Note_on_c, 11, 73, 0
11, 9120, Note_on_c, 11, 69, 76
11, 9344, Note_on_c, 11, 69, 0
11, 9360, Note_on_c, 11, 74, 76
11, 9584, Note_on_c, 11, 74, 0
11, 9600, Note_on_c, 11, 76, 76
11, 9824, Note_on_c, 11, 76, 0
11, 9840, Note_on_c, 11, 73, 76
11, 10064, Note_on_c, 11, 73, 0
11, 10080, Note_on_c, 11, 74, 76
11, 10184, Note_on_c, 11, 74, 0
11, 10200, Note_on_c, 11, 76, 76
11, 10304, Note_on_c, 11, 76, 0
11, 10320, Note_on_c, 11, 74, 76
11, 10424, Note_on_c, 11, 74, 0
11, 10440, Note_on_c, 11, 73, 76
11, 10544, Note_on_c, 11, 73, 0
11, 10560, Note_on_c, 11, 74, 76
11, 10664, Note_on_c, 11, 74, 0
11, 10680, Note_on_c, 11, 71, 76
11, 10784, Note_on_c, 11, 71, 0
11, 10800, Note_on_c, 11, 73, 76
11, 11504, Note_on_c, 11, 73, 0
11, 11520, Note_on_c, 11, 73, 76
11, 11744, Note_on_c, 11, 73, 0
11, 11760, Note_on_c, 11, 71, 76
11, 11864, Note_on_c, 11, 71, 0
11, 11880, Note_on_c, 11, 69, 76
11, 11984, Note_on_c, 11, 69, 0
11, 12000, Note_on_c, 11, 71, 76
11, 12224, Note_on_c, 11, 71, 0
11, 12240, Note_on_c, 11, 69, 76
11, 12344, Note_on_c, 11, 69, 0
11, 12360, Note_on_c, 11, 71, 76
11, 12464, Note_on_c, 11, 71, 0
11, 12480, Note_on_c, 11, 73, 76
11, 12584, Note_on_c, 11, 73, 0
11, 12600, Note_on_c, 11, 74, 76
11, 12704, Note_on_c, 11, 74, 0
11, 12720, Note_on_c, 11, 76, 76
11, 12824, Note_on_c, 11, 76, 0
11, 12840, Note_on_c, 11, 73, 76
11, 12944, Note_on_c, 11, 73, 0
11, 12960, Note_on_c, 11, 74, 76
11, 13184, Note_on_c, 11, 74, 0
11, 13200, Note_on_c, 11, 74, 76
11, 13424, Note_on_c, 11, 74, 0
11, 13440, Note_on_c, 11, 73, 76
11, 13664, Note_on_c, 11, 73, 0
11, 13680, Note_on_c, 11, 74, 76
11, 13904, Note_on_c, 11, 74, 0
11, 13920, Note_on_c, 11, 69, 76
11, 14144, Note_on_c, 11, 69, 0
11, 14160, Note_on_c, 11, 74, 76
11, 14384, Note_on_c, 11, 74, 0
11, 14400, Note_on_c, 11, 75, 76
11, 14504, Note_on_c, 11, 75, 0
11, 14520, Note_on_c, 11, 76, 76
11, 14624, Note_on_c, 11, 76, 0
11, 14640, Note_on_c, 11, 78, 76
11, 14864, Note_on_c, 11, 78, 0
11, 14880, Note_on_c, 11, 71, 76
11, 15344, Note_on_c, 11, 71, 0
11, 15360, Note_on_c, 11, 69, 76
11, 15584, Note_on_c, 11, 69, 0
11, 15600, Note_on_c, 11, 67, 76
11, 15824, Note_on_c, 11, 67, 0
11, 15840, Note_on_c, 11, 72, 76
11, 16064, Note_on_c, 11, 72, 0
11, 16080, Note_on_c, 11, 71, 76
11, 16304, Note_on_c, 11, 71, 0
11, 16320, Note_on_c, 11, 69, 76
11, 16544, Note_on_c, 11, 69, 0
11, 16560, Note_on_c, 11, 67, 76
11, 17264, Note_on_c, 11, 67, 0
11, 17280, Note_on_c, 11, 76, 76
11, 17384, Note_on_c, 11, 76, 0
11, 17400, Note_on_c, 11, 78, 76
11, 17504, Note_on_c, 11, 78, 0
11, 17520, Note_on_c, 11, 79, 76
11, 18224, Note_on_c, 11, 79, 0
11, 18240, Note_on_c, 11, 78, 76
11, 18464, Note_on_c, 11, 78, 0
11, 18480, Note_on_c, 11, 76, 76
11, 18704, Note_on_c, 11, 76, 0
11, 18720, Note_on_c, 11, 74, 76
11, 18824, Note_on_c, 11, 74, 0
11, 18840, Note_on_c, 11, 76, 76
11, 18944, Note_on_c, 11, 76, 0
11, 18960, Note_on_c, 11, 78, 76
11, 19664, Note_on_c, 11, 78, 0
11, 19680, Note_on_c, 11, 76, 76
11, 19904, Note_on_c, 11, 76, 0
11, 19920, Note_on_c, 11, 74, 76
11, 20144, Note_on_c, 11, 74, 0
11, 20160, Note_on_c, 11, 69, 76
11, 21104, Note_on_c, 11, 69, 0
11, 21120, Note_on_c, 11, 74, 76
11, 21224, Note_on_c, 11, 74, 0
11, 21240, Note_on_c, 11, 73, 76
11, 21344, Note_on_c, 11, 73, 0
11, 21360, Note_on_c, 11, 74, 76
11, 21584, Note_on_c, 11, 74, 0
11, 21600, Note_on_c, 11, 67, 76
11, 21824, Note_on_c, 11, 67, 0
11, 21840, Note_on_c, 11, 67, 76
11, 22064, Note_on_c, 11, 67, 0
11, 22080, Note_on_c, 11, 69, 76
11, 22304, Note_on_c, 11, 69, 0
11, 22320, Note_on_c, 11, 73, 76
11, 22544, Note_on_c, 11, 73, 0
11, 22560, Note_on_c, 11, 69, 76
11, 22784, Note_on_c, 11, 69, 0
11, 22800, Note_on_c, 11, 64, 76
11, 23024, Note_on_c, 11, 64, 0
11, 23040, Note_on_c, 11, 69, 76
11, 23864, Note_on_c, 11, 69, 0
11, 23880, Note_on_c, 11, 71, 76
11, 23984, Note_on_c, 11, 71, 0
11, 24000, Note_on_c, 11, 69, 76
11, 24104, Note_on_c, 11, 69, 0
11, 24120, Note_on_c, 11, 67, 76
11, 24224, Note_on_c, 11, 67, 0
11, 24240, Note_on_c, 11, 69, 76
11, 24344, Note_on_c, 11, 69, 0
11, 24360, Note_on_c, 11, 66, 76
11, 24464, Note_on_c, 11, 66, 0
11, 24480, Note_on_c, 11, 67, 76
11, 24704, Note_on_c, 11, 67, 0
11, 24720, Note_on_c, 11, 76, 76
11, 25304, Note_on_c, 11, 76, 0
11, 25320, Note_on_c, 11, 78, 76
11, 25424, Note_on_c, 11, 78, 0
11, 25440, Note_on_c, 11, 76, 76
11, 25544, Note_on_c, 11, 76, 0
11, 25560, Note_on_c, 11, 74, 76
11, 25664, Note_on_c, 11, 74, 0
11, 25680, Note_on_c, 11, 76, 76
11, 25784, Note_on_c, 11, 76, 0
11, 25800, Note_on_c, 11, 73, 76
11, 25904, Note_on_c, 11, 73, 0
11, 25920, Note_on_c, 11, 69, 76
11, 26144, Note_on_c, 11, 69, 0
11, 26160, Note_on_c, 11, 74, 76
11, 26264, Note_on_c, 11, 74, 0
11, 26280, Note_on_c, 11, 73, 76
11, 26384, Note_on_c, 11, 73, 0
11, 26400, Note_on_c, 11, 74, 76
11, 26624, Note_on_c, 11, 74, 0
11, 26640, Note_on_c, 11, 74, 76
11, 27344, Note_on_c, 11, 74, 0
11, 27360, Note_on_c, 11, 67, 76
11, 27584, Note_on_c, 11, 67, 0
11, 27600, Note_on_c, 11, 71, 76
11, 27824, Note_on_c, 11, 71, 0
11, 27840, Note_on_c, 11, 69, 76
11, 28064, Note_on_c, 11, 69, 0
11, 28080, Note_on_c, 11, 69, 76
11, 28784, Note_on_c, 11, 69, 0
11, 28800, Note_on_c, 11, 73, 76
11, 29024, Note_on_c, 11, 73, 0
11, 29040, Note_on_c, 11, 71, 76
11, 29144, Note_on_c, 11, 71, 0
11, 29160, Note_on_c, 11, 69, 76
11, 29264, Note_on_c, 11, 69, 0
11, 29280, Note_on_c, 11, 71, 76
11, 29504, Note_on_c, 11, 71, 0
11, 29520, Note_on_c, 11, 69, 76
11, 29624, Note_on_c, 11, 69, 0
11, 29640, Note_on_c, 11, 71, 76
11, 29744, Note_on_c, 11, 71, 0
11, 29760, Note_on_c, 11, 73, 76
11, 29864, Note_on_c, 11, 73, 0
11, 29880, Note_on_c, 11, 74, 76
11, 29984, Note_on_c, 11, 74, 0
11, 30000, Note_on_c, 11, 76, 76
11, 30104, Note_on_c, 11, 76, 0
11, 30120, Note_on_c, 11, 73, 76
11, 30224, Note_on_c, 11, 73, 0
11, 30240, Note_on_c, 11, 74, 76
11, 30464, Note_on_c, 11, 74, 0
11, 30480, Note_on_c, 11, 74, 76
11, 30704, Note_on_c, 11, 74, 0
11, 30720, Note_on_c, 11, 73, 76
11, 30944, Note_on_c, 11, 73, 0
11, 30960, Note_on_c, 11, 74, 76
11, 31184, Note_on_c, 11, 74, 0
11, 31200, Note_on_c, 11, 69, 76
11, 31424, Note_on_c, 11, 69, 0
11, 31440, Note_on_c, 11, 74, 76
11, 31664, Note_on_c, 11, 74, 0
11, 31680, Note_on_c, 11, 75, 76
11, 31784, Note_on_c, 11, 75, 0
11, 31800, Note_on_c, 11, 76, 76
11, 31904, Note_on_c, 11, 76, 0
11, 31920, Note_on_c, 11, 78, 76
11, 32144, Note_on_c, 11, 78, 0
11, 32160, Note_on_c, 11, 71, 76
11, 32624, Note_on_c, 11, 71, 0
11, 32640, Note_on_c, 11, 69, 76
11, 32864, Note_on_c, 11, 69, 0
11, 32880, Note_on_c, 11, 67, 76
11, 33104, Note_on_c, 11, 67, 0
11, 33120, Note_on_c, 11, 72, 76
11, 33344, Note_on_c, 11, 72, 0
11, 33360, Note_on_c, 11, 71, 76
11, 33584, Note_on_c, 11, 71, 0
11, 33600, Note_on_c, 11, 69, 76
11, 33824, Note_on_c, 11, 69, 0
11, 33840, Note_on_c, 11, 67, 76
11, 34544, Note_on_c, 11, 67, 0
11, 34560, Note_on_c, 11, 76, 76
11, 34664, Note_on_c, 11, 76, 0
11, 34680, Note_on_c, 11, 78, 76
11, 34784, Note_on_c, 11, 78, 0
11, 34800, Note_on_c, 11, 79, 76
11, 35504, Note_on_c, 11, 79, 0
11, 35520, Note_on_c, 11, 78, 76
11, 35744, Note_on_c, 11, 78, 0
11, 35760, Note_on_c, 11, 76, 76
11, 35984, Note_on_c, 11, 76, 0
11, 36000, Note_on_c, 11, 74, 76
11, 36104, Note_on_c, 11, 74, 0
11, 36120, Note_on_c, 11, 76, 76
11, 36224, Note_on_c, 11, 76, 0
11, 36240, Note_on_c, 11, 78, 76
11, 36944, Note_on_c, 11, 78, 0
11, 36960, Note_on_c, 11, 76, 76
11, 37184, Note_on_c, 11, 76, 0
11, 37200, Note_on_c, 11, 74, 76
11, 37424, Note_on_c, 11, 74, 0
11, 37440, Note_on_c, 11, 69, 76
11, 38384, Note_on_c, 11, 69, 0
11, 38400, Note_on_c, 11, 74, 76
11, 38504, Note_on_c, 11, 74, 0
11, 38520, Note_on_c, 11, 73, 76
11, 38624, Note_on_c, 11, 73, 0
11, 38640, Note_on_c, 11, 74, 76
11, 38864, Note_on_c, 11, 74, 0
11, 38880, Note_on_c, 11, 67, 76
11, 39104, Note_on_c, 11, 67, 0
11, 39120, Note_on_c, 11, 67, 76
11, 39344, Note_on_c, 11, 67, 0
11, 39360, Note_on_c, 11, 69, 76
11, 39584, Note_on_c, 11, 69, 0
11, 39600, Note_on_c, 11, 73, 76
11, 39824, Note_on_c, 11, 73, 0
11, 39840, Note_on_c, 11, 69, 76
11, 40064, Note_on_c, 11, 69, 0
11, 40080, Note_on_c, 11, 64, 76
11, 40304, Note_on_c, 11, 64, 0
11, 40320, Note_on_c, 11, 69, 76
11, 41144, Note_on_c, 11, 69, 0
11, 41160, Note_on_c, 11, 71, 76
11, 41264, Note_on_c, 11, 71, 0
11, 41280, Note_on_c, 11, 69, 76
11, 41384, Note_on_c, 11, 69, 0
11, 41400, Note_on_c, 11, 67, 76
11, 41504, Note_on_c, 11, 67, 0
11, 41520, Note_on_c, 11, 69, 76
11, 41624, Note_on_c, 11, 69, 0
11, 41640, Note_on_c, 11, 66, 76
11, 41744, Note_on_c, 11, 66, 0
11, 41760, Note_on_c, 11, 67, 76
11, 41984, Note_on_c, 11, 67, 0
11, 42000, Note_on_c, 11, 76, 76
11, 42584, Note_on_c, 11, 76, 0
11, 42600, Note_on_c, 11, 78, 76
11, 42704, Note_on_c, 11, 78, 0
11, 42720, Note_on_c, 11, 76, 76
11, 42824, Note_on_c, 11, 76, 0
11, 42840, Note_on_c, 11, 74, 76
11, 42944, Note_on_c, 11, 74, 0
11, 42960, Note_on_c, 11, 76, 76
11, 43064, Note_on_c, 11, 76, 0
11, 43080, Note_on_c, 11, 73, 76
11, 43184, Note_on_c, 11, 73, 0
11, 43200, Note_on_c, 11, 69, 76
11, 43424, Note_on_c, 11, 69, 0
11, 43440, Note_on_c, 11, 74, 76
11, 43544, Note_on_c, 11, 74, 0
11, 43560, Note_on_c, 11, 73, 76
11, 43664, Note_on_c, 11, 73, 0
11, 43680, Note_on_c, 11, 74, 76
11, 43904, Note_on_c, 11, 74, 0
11, 43920, Note_on_c, 11, 74, 76
11, 44624, Note_on_c, 11, 74, 0
11, 44640, Note_on_c, 11, 67, 76
11, 44864, Note_on_c, 11, 67, 0
11, 44880, Note_on_c, 11, 71, 76
11, 45104, Note_on_c, 11, 71, 0
11, 45120, Note_on_c, 11, 69, 76
11, 45344, Note_on_c, 11, 69, 0
11, 45360, Note_on_c, 11, 69, 76
11, 46079, Note_on_c, 11, 69, 0
11, 46320, Note_on_c, 11, 62, 76
11, 46544, Note_on_c, 11, 62, 0
11, 46560, Note_on_c, 11, 57, 76
11, 46784, Note_on_c, 11, 57, 0
11, 46800, Note_on_c, 11, 57, 76
11, 46904, Note_on_c, 11, 57, 0
11, 46920, Note_on_c, 11, 59, 76
11, 47024, Note_on_c, 11, 59, 0
11, 47040, Note_on_c, 11, 61, 76
11, 47264, Note_on_c, 11, 61, 0
11, 47280, Note_on_c, 11, 62, 76
11, 47504, Note_on_c, 11, 62, 0
11, 47520, Note_on_c, 11, 64, 76
11, 47744, Note_on_c, 11, 64, 0
11, 47760, Note_on_c, 11, 62, 76
11, 47984, Note_on_c, 11, 62, 0
11, 48000, Note_on_c, 11, 61, 76
11, 48224, Note_on_c, 11, 61, 0
11, 48240, Note_on_c, 11, 57, 76
11, 48464, Note_on_c, 11, 57, 0
11, 48480, Note_on_c, 11, 57, 76
11, 49184, Note_on_c, 11, 57, 0
11, 49200, Note_on_c, 11, 64, 76
11, 49424, Note_on_c, 11, 64, 0
11, 49440, Note_on_c, 11, 64, 76
11, 49904, Note_on_c, 11, 64, 0
11, 49920, Note_on_c, 11, 66, 76
11, 50144, Note_on_c, 11, 66, 0
11, 50160, Note_on_c, 11, 64, 76
11, 50384, Note_on_c, 11, 64, 0
11, 50400, Note_on_c, 11, 62, 76
11, 50624, Note_on_c, 11, 62, 0
11, 50640, Note_on_c, 11, 69, 76
11, 50864, Note_on_c, 11, 69, 0
11, 50880, Note_on_c, 11, 64, 76
11, 51104, Note_on_c, 11, 64, 0
11, 51120, Note_on_c, 11, 64, 76
11, 51344, Note_on_c, 11, 64, 0
11, 51360, Note_on_c, 11, 64, 76
11, 52064, Note_on_c, 11, 64, 0
11, 52080, Note_on_c, 11, 62, 76
11, 52304, Note_on_c, 11, 62, 0
11, 52320, Note_on_c, 11, 57, 76
11, 52544, Note_on_c, 11, 57, 0
11, 52560, Note_on_c, 11, 57, 76
11, 52664, Note_on_c, 11, 57, 0
11, 52680, Note_on_c, 11, 59, 76
11, 52784, Note_on_c, 11, 59, 0
11, 52800, Note_on_c, 11, 61, 76
11, 53024, Note_on_c, 11, 61, 0
11, 53040, Note_on_c, 11, 62, 76
11, 53264, Note_on_c, 11, 62, 0
11, 53280, Note_on_c, 11, 64, 76
11, 53504, Note_on_c, 11, 64, 0
11, 53520, Note_on_c, 11, 62, 76
11, 53744, Note_on_c, 11, 62, 0
11, 53760, Note_on_c, 11, 61, 76
11, 53984, Note_on_c, 11, 61, 0
11, 54000, Note_on_c, 11, 57, 76
11, 54224, Note_on_c, 11, 57, 0
11, 54240, Note_on_c, 11, 57, 76
11, 54944, Note_on_c, 11, 57, 0
11, 54960, Note_on_c, 11, 64, 76
11, 55184, Note_on_c, 11, 64, 0
11, 55200, Note_on_c, 11, 64, 76
11, 55664, Note_on_c, 11, 64, 0
11, 55680, Note_on_c, 11, 66, 76
11, 55904, Note_on_c, 11, 66, 0
11, 55920, Note_on_c, 11, 64, 76
11, 56144, Note_on_c, 11, 64, 0
11, 56160, Note_on_c, 11, 62, 76
11, 56384, Note_on_c, 11, 62, 0
11, 56400, Note_on_c, 11, 69, 76
11, 56624, Note_on_c, 11, 69, 0
11, 56640, Note_on_c, 11, 64, 76
11, 56864, Note_on_c, 11, 64, 0
11, 56880, Note_on_c, 11, 64, 76
11, 57104, Note_on_c, 11, 64, 0
11, 57120, Note_on_c, 11, 64, 76
11, 57824, Note_on_c, 11, 64, 0
11, 57840, Note_on_c, 11, 73, 76
11, 58064, Note_on_c, 11, 73, 0
11, 58080, Note_on_c, 11, 74, 76
11, 58184, Note_on_c, 11, 74, 0
11, 58200, Note_on_c, 11, 73, 76
11, 58304, Note_on_c, 11, 73, 0
11, 58320, Note_on_c, 11, 71, 76
11, 58424, Note_on_c, 11, 71, 0
11, 58440, Note_on_c, 11, 73, 76
11, 58544, Note_on_c, 11, 73, 0
11, 58560, Note_on_c, 11, 70, 76
11, 59264, Note_on_c, 11, 70, 0
11, 59280, Note_on_c, 11, 71, 76
11, 59504, Note_on_c, 11, 71, 0
11, 59520, Note_on_c, 11, 73, 76
11, 59744, Note_on_c, 11, 73, 0
11, 59760, Note_on_c, 11, 74, 76
11, 59984, Note_on_c, 11, 74, 0
11, 60000, Note_on_c, 11, 73, 76
11, 60224, Note_on_c, 11, 73, 0
11, 60240, Note_on_c, 11, 73, 76
11, 60344, Note_on_c, 11, 73, 0
11, 60360, Note_on_c, 11, 71, 76
11, 60464, Note_on_c, 11, 71, 0
11, 60480, Note_on_c, 11, 73, 76
11, 60584, Note_on_c, 11, 73, 0
11, 60600, Note_on_c, 11, 70, 76
11, 60704, Note_on_c, 11, 70, 0
11, 60720, Note_on_c, 11, 71, 76
11, 60944, Note_on_c, 11, 71, 0
11, 60960, Note_on_c, 11, 71, 76
11, 61184, Note_on_c, 11, 71, 0
11, 61200, Note_on_c, 11, 66, 76
11, 61424, Note_on_c, 11, 66, 0
11, 61440, Note_on_c, 11, 66, 76
11, 61664, Note_on_c, 11, 66, 0
11, 61680, Note_on_c, 11, 70, 76
11, 61904, Note_on_c, 11, 70, 0
11, 61920, Note_on_c, 11, 71, 76
11, 62384, Note_on_c, 11, 71, 0
11, 62400, Note_on_c, 11, 59, 76
11, 62624, Note_on_c, 11, 59, 0
11, 62640, Note_on_c, 11, 58, 76
11, 62864, Note_on_c, 11, 58, 0
11, 62880, Note_on_c, 11, 59, 76
11, 63104, Note_on_c, 11, 59, 0
11, 63120, Note_on_c, 11, 62, 76
11, 63359, Note_on_c, 11, 62, 0
11, 63600, Note_on_c, 11, 62, 76
11, 63824, Note_on_c, 11, 62, 0
11, 63840, Note_on_c, 11, 69, 76
11, 64079, Note_on_c, 11, 69, 0
11, 64320, Note_on_c, 11, 69, 76
11, 64424, Note_on_c, 11, 69, 0
11, 64440, Note_on_c, 11, 71, 76
11, 64544, Note_on_c, 11, 71, 0
11, 64560, Note_on_c, 11, 73, 76
11, 64664, Note_on_c, 11, 73, 0
11, 64680, Note_on_c, 11, 74, 76
11, 64784, Note_on_c, 11, 74, 0
11, 64800, Note_on_c, 11, 76, 76
11, 64904, Note_on_c, 11, 76, 0
11, 64920, Note_on_c, 11, 73, 76
11, 65024, Note_on_c, 11, 73, 0
11, 65040, Note_on_c, 11, 74, 76
11, 65264, Note_on_c, 11, 74, 0
11, 65280, Note_on_c, 11, 73, 76
11, 65504, Note_on_c, 11, 73, 0
11, 65520, Note_on_c, 11, 74, 76
11, 65744, Note_on_c, 11, 74, 0
11, 65760, Note_on_c, 11, 69, 76
11, 66224, Note_on_c, 11, 69, 0
11, 66240, Note_on_c, 11, 61, 76
11, 66464, Note_on_c, 11, 61, 0
11, 66480, Note_on_c, 11, 66, 76
11, 66704, Note_on_c, 11, 66, 0
11, 66720, Note_on_c, 11, 62, 76
11, 67424, Note_on_c, 11, 62, 0
11, 67440, Note_on_c, 11, 64, 76
11, 67664, Note_on_c, 11, 64, 0
11, 67680, Note_on_c, 11, 62, 76
11, 68144, Note_on_c, 11, 62, 0
11, 68160, Note_on_c, 11, 57, 76
11, 68384, Note_on_c, 11, 57, 0
11, 68400, Note_on_c, 11, 57, 76
11, 68624, Note_on_c, 11, 57, 0
11, 68640, Note_on_c, 11, 57, 76
11, 69344, Note_on_c, 11, 57, 0
11, 69360, Note_on_c, 11, 73, 76
11, 69584, Note_on_c, 11, 73, 0
11, 69600, Note_on_c, 11, 74, 76
11, 69704, Note_on_c, 11, 74, 0
11, 69720, Note_on_c, 11, 73, 76
11, 69824, Note_on_c, 11, 73, 0
11, 69840, Note_on_c, 11, 71, 76
11, 69944, Note_on_c, 11, 71, 0
11, 69960, Note_on_c, 11, 73, 76
11, 70064, Note_on_c, 11, 73, 0
11, 70080, Note_on_c, 11, 70, 76
11, 70784, Note_on_c, 11, 70, 0
11, 70800, Note_on_c, 11, 71, 76
11, 71024, Note_on_c, 11, 71, 0
11, 71040, Note_on_c, 11, 73, 76
11, 71264, Note_on_c, 11, 73, 0
11, 71280, Note_on_c, 11, 74, 76
11, 71504, Note_on_c, 11, 74, 0
11, 71520, Note_on_c, 11, 73, 76
11, 71744, Note_on_c, 11, 73, 0
11, 71760, Note_on_c, 11, 73, 76
11, 71864, Note_on_c, 11, 73, 0
11, 71880, Note_on_c, 11, 71, 76
11, 71984, Note_on_c, 11, 71, 0
11, 72000, Note_on_c, 11, 73, 76
11, 72104, Note_on_c, 11, 73, 0
11, 72120, Note_on_c, 11, 70, 76
11, 72224, Note_on_c, 11, 70, 0
11, 72240, Note_on_c, 11, 71, 76
11, 72464, Note_on_c, 11, 71, 0
11, 72480, Note_on_c, 11, 71, 76
11, 72704, Note_on_c, 11, 71, 0
11, 72720, Note_on_c, 11, 66, 76
11, 72944, Note_on_c, 11, 66, 0
11, 72960, Note_on_c, 11, 66, 76
11, 73184, Note_on_c, 11, 66, 0
11, 73200, Note_on_c, 11, 70, 76
11, 73424, Note_on_c, 11, 70, 0
11, 73440, Note_on_c, 11, 71, 76
11, 73904, Note_on_c, 11, 71, 0
11, 73920, Note_on_c, 11, 59, 76
11, 74144, Note_on_c, 11, 59, 0
11, 74160, Note_on_c, 11, 58, 76
11, 74384, Note_on_c, 11, 58, 0
11, 74400, Note_on_c, 11, 59, 76
11, 74624, Note_on_c, 11, 59, 0
11, 74640, Note_on_c, 11, 62, 76
11, 74879, Note_on_c, 11, 62, 0
11, 75120, Note_on_c, 11, 62, 76
11, 75344, Note_on_c, 11, 62, 0
11, 75360, Note_on_c, 11, 69, 76
11, 75599, Note_on_c, 11, 69, 0
11, 75840, Note_on_c, 11, 69, 76
11, 75944, Note_on_c, 11, 69, 0
11, 75960, Note_on_c, 11, 71, 76
11, 76064, Note_on_c, 11, 71, 0
11, 76080, Note_on_c, 11, 73, 76
11, 76184, Note_on_c, 11, 73, 0
11, 76200, Note_on_c, 11, 74, 76
11, 76304, Note_on_c, 11, 74, 0
11, 76320, Note_on_c, 11, 76, 76
11, 76424, Note_on_c, 11, 76, 0
11, 76440, Note_on_c, 11, 73, 76
11, 76544, Note_on_c, 11, 73, 0
11, 76560, Note_on_c, 11, 74, 76
11, 76784, Note_on_c, 11, 74, 0
11, 76800, Note_on_c, 11, 73, 76
11, 77024, Note_on_c, 11, 73, 0
11, 77040, Note_on_c, 11, 74, 76
11, 77264, Note_on_c, 11, 74, 0
11, 77280, Note_on_c, 11, 69, 76
11, 77744, Note_on_c, 11, 69, 0
11, 77760, Note_on_c, 11, 61, 76
11, 77984, Note_on_c, 11, 61, 0
11, 78000, Note_on_c, 11, 66, 76
11, 78224, Note_on_c, 11, 66, 0
11, 78240, Note_on_c, 11, 62, 76
11, 78944, Note_on_c, 11, 62, 0
11, 78960, Note_on_c, 11, 64, 76
11, 79184, Note_on_c, 11, 64, 0
11, 79200, Note_on_c, 11, 62, 76
11, 79664, Note_on_c, 11, 62, 0
11, 79680, Note_on_c, 11, 57, 76
11, 79904, Note_on_c, 11, 57, 0
11, 79920, Note_on_c, 11, 57, 76
11, 80144, Note_on_c, 11, 57, 0
11, 80160, Note_on_c, 11, 57, 76
11, 80879, Note_on_c, 11, 57, 0
11, 81120, Note_on_c, 11, 74, 76
11, 81344, Note_on_c, 11, 74, 0
11, 81360, Note_on_c, 11, 74, 76
11, 81464, Note_on_c, 11, 74, 0
11, 81480, Note_on_c, 11, 73, 76
11, 81584, Note_on_c, 11, 73, 0
11, 81600, Note_on_c, 11, 74, 76
11, 81824, Note_on_c, 11, 74, 0
11, 81840, Note_on_c, 11, 74, 76
11, 82544, Note_on_c, 11, 74, 0
11, 82560, Note_on_c, 11, 67, 76
11, 82784, Note_on_c, 11, 67, 0
11, 82800, Note_on_c, 11, 71, 76
11, 83024, Note_on_c, 11, 71, 0
11, 83040, Note_on_c, 11, 69, 76
11, 83264, Note_on_c, 11, 69, 0
11, 83280, Note_on_c, 11, 69, 76
11, 83744, Note_on_c, 11, 69, 0
11, 83760, Note_on_c, 11, 74, 76
11, 83984, Note_on_c, 11, 74, 0
11, 84000, Note_on_c, 11, 69, 76
11, 84224, Note_on_c, 11, 69, 0
11, 84240, Note_on_c, 11, 73, 76
11, 84464, Note_on_c, 11, 73, 0
11, 84480, Note_on_c, 11, 69, 76
11, 84704, Note_on_c, 11, 69, 0
11, 84720, Note_on_c, 11, 74, 76
11, 84944, Note_on_c, 11, 74, 0
11, 84960, Note_on_c, 11, 76, 76
11, 85184, Note_on_c, 11, 76, 0
11, 85200, Note_on_c, 11, 73, 76
11, 85424, Note_on_c, 11, 73, 0
11, 85440, Note_on_c, 11, 74, 76
11, 85544, Note_on_c, 11, 74, 0
11, 85560, Note_on_c, 11, 76, 76
11, 85664, Note_on_c, 11, 76, 0
11, 85680, Note_on_c, 11, 74, 76
11, 85784, Note_on_c, 11, 74, 0
11, 85800, Note_on_c, 11, 73, 76
11, 85904, Note_on_c, 11, 73, 0
11, 85920, Note_on_c, 11, 74, 76
11, 86024, Note_on_c, 11, 74, 0
11, 86040, Note_on_c, 11, 71, 76
11, 86144, Note_on_c, 11, 71, 0
11, 86160, Note_on_c, 11, 73, 76
11, 86864, Note_on_c, 11, 73, 0
11, 86880, Note_on_c, 11, 74, 76
11, 87104, Note_on_c, 11, 74, 0
11, 87120, Note_on_c, 11, 74, 76
11, 87224, Note_on_c, 11, 74, 0
11, 87240, Note_on_c, 11, 73, 76
11, 87344, Note_on_c, 11, 73, 0
11, 87360, Note_on_c, 11, 74, 76
11, 87584, Note_on_c, 11, 74, 0
11, 87600, Note_on_c, 11, 74, 76
11, 88304, Note_on_c, 11, 74, 0
11, 88320, Note_on_c, 11, 67, 76
11, 88544, Note_on_c, 11, 67, 0
11, 88560, Note_on_c, 11, 71, 76
11, 88784, Note_on_c, 11, 71, 0
11, 88800, Note_on_c, 11, 69, 76
11, 89024, Note_on_c, 11, 69, 0
11, 89040, Note_on_c, 11, 69, 76
11, 89504, Note_on_c, 11, 69, 0
11, 89520, Note_on_c, 11, 74, 76
11, 89744, Note_on_c, 11, 74, 0
11, 89760, Note_on_c, 11, 69, 76
11, 89984, Note_on_c, 11, 69, 0
11, 90000, Note_on_c, 11, 73, 76
11, 90224, Note_on_c, 11, 73, 0
11, 90240, Note_on_c, 11, 69, 76
11, 90464, Note_on_c, 11, 69, 0
11, 90480, Note_on_c, 11, 74, 76
11, 90704, Note_on_c, 11, 74, 0
11, 90720, Note_on_c, 11, 76, 76
11, 90944, Note_on_c, 11, 76, 0
11, 90960, Note_on_c, 11, 73, 76
11, 91184, Note_on_c, 11, 73, 0
11, 91200, Note_on_c, 11, 74, 76
11, 91304, Note_on_c, 11, 74, 0
11, 91320, Note_on_c, 11, 76, 76
11, 91424, Note_on_c, 11, 76, 0
11, 91440, Note_on_c, 11, 74, 76
11, 91544, Note_on_c, 11, 74, 0
11, 91560, Note_on_c, 11, 73, 76
11, 91664, Note_on_c, 11, 73, 0
11, 91680, Note_on_c, 11, 74, 76
11, 91784, Note_on_c, 11, 74, 0
11, 91800, Note_on_c, 11, 71, 76
11, 91904, Note_on_c, 11, 71, 0
11, 91920, Note_on_c, 11, 73, 76
11, 92624, Note_on_c, 11, 73, 0
11, 92640, Note_on_c, 11, 73, 76
11, 92864, Note_on_c, 11, 73, 0
11, 92880, Note_on_c, 11, 71, 76
11, 92984, Note_on_c, 11, 71, 0
11, 93000, Note_on_c, 11, 69, 76
11, 93104, Note_on_c, 11, 69, 0
11, 93120, Note_on_c, 11, 71, 76
11, 93344, Note_on_c, 11, 71, 0
11, 93360, Note_on_c, 11, 69, 76
11, 93464, Note_on_c, 11, 69, 0
11, 93480, Note_on_c, 11, 71, 76
11, 93584, Note_on_c, 11, 71, 0
11, 93600, Note_on_c, 11, 73, 76
11, 93704, Note_on_c, 11, 73, 0
11, 93720, Note_on_c, 11, 74, 76
11, 93824, Note_on_c, 11, 74, 0
11, 93840, Note_on_c, 11, 76, 76
11, 93944, Note_on_c, 11, 76, 0
11, 93960, Note_on_c, 11, 73, 76
11, 94064, Note_on_c, 11, 73, 0
11, 94080, Note_on_c, 11, 74, 76
11, 94304, Note_on_c, 11, 74, 0
11, 94320, Note_on_c, 11, 74, 76
11, 94544, Note_on_c, 11, 74, 0
11, 94560, Note_on_c, 11, 73, 76
11, 94784, Note_on_c, 11, 73, 0
11, 94800, Note_on_c, 11, 74, 76
11, 95024, Note_on_c, 11, 74, 0
11, 95040, Note_on_c, 11, 69, 76
11, 95264, Note_on_c, 11, 69, 0
11, 95280, Note_on_c, 11, 74, 76
11, 95504, Note_on_c, 11, 74, 0
11, 95520, Note_on_c, 11, 75, 76
11, 95624, Note_on_c, 11, 75, 0
11, 95640, Note_on_c, 11, 76, 76
11, 95744, Note_on_c, 11, 76, 0
11, 95760, Note_on_c, 11, 78, 76
11, 95984, Note_on_c, 11, 78, 0
11, 96000, Note_on_c, 11, 71, 76
11, 96464, Note_on_c, 11, 71, 0
11, 96480, Note_on_c, 11, 69, 76
11, 96704, Note_on_c, 11, 69, 0
11, 96720, Note_on_c, 11, 67, 76
11, 96944, Note_on_c, 11, 67, 0
11, 96960, Note_on_c, 11, 72, 76
11, 97184, Note_on_c, 11, 72, 0
11, 97200, Note_on_c, 11, 71, 76
11, 97424, Note_on_c, 11, 71, 0
11, 97440, Note_on_c, 11, 69, 76
11, 97664, Note_on_c, 11, 69, 0
11, 97680, Note_on_c, 11, 67, 76
11, 98384, Note_on_c, 11, 67, 0
11, 98400, Note_on_c, 11, 76, 76
11, 98504, Note_on_c, 11, 76, 0
11, 98520, Note_on_c, 11, 78, 76
11, 98624, Note_on_c, 11, 78, 0
11, 98640, Note_on_c, 11, 79, 76
11, 99344, Note_on_c, 11, 79, 0
11, 99360, Note_on_c, 11, 78, 76
11, 99584, Note_on_c, 11, 78, 0
11, 99600, Note_on_c, 11, 76, 76
11, 99824, Note_on_c, 11, 76, 0
11, 99840, Note_on_c, 11, 74, 76
11, 99944, Note_on_c, 11, 74, 0
11, 99960, Note_on_c, 11, 76, 76
11, 100064, Note_on_c, 11, 76, 0
11, 100080, Note_on_c, 11, 78, 76
11, 100784, Note_on_c, 11, 78, 0
11, 100800, Note_on_c, 11, 76, 76
11, 101024, Note_on_c, 11, 76, 0
11, 101040, Note_on_c, 11, 74, 76
11, 101264, Note_on_c, 11, 74, 0
11, 101280, Note_on_c, 11, 69, 76
11, 102224, Note_on_c, 11, 69, 0
11, 102240, Note_on_c, 11, 74, 76
11, 102344, Note_on_c, 11, 74, 0
11, 102360, Note_on_c, 11, 73, 76
11, 102464, Note_on_c, 11, 73, 0
11, 102480, Note_on_c, 11, 74, 76
11, 102704, Note_on_c, 11, 74, 0
11, 102720, Note_on_c, 11, 67, 76
11, 102944, Note_on_c, 11, 67, 0
11, 102960, Note_on_c, 11, 67, 76
11, 103184, Note_on_c, 11, 67, 0
11, 103200, Note_on_c, 11, 69, 76
11, 103424, Note_on_c, 11, 69, 0
11, 103440, Note_on_c, 11, 73, 76
11, 103664, Note_on_c, 11, 73, 0
11, 103680, Note_on_c, 11, 69, 76
11, 103904, Note_on_c, 11, 69, 0
11, 103920, Note_on_c, 11, 64, 76
11, 104144, Note_on_c, 11, 64, 0
11, 104160, Note_on_c, 11, 69, 76
11, 104984, Note_on_c, 11, 69, 0
11, 105000, Note_on_c, 11, 71, 76
11, 105104, Note_on_c, 11, 71, 0
11, 105120, Note_on_c, 11, 69, 76
11, 105224, Note_on_c, 11, 69, 0
11, 105240, Note_on_c, 11, 67, 76
11, 105344, Note_on_c, 11, 67, 0
11, 105360, Note_on_c, 11, 69, 76
11, 105464, Note_on_c, 11, 69, 0
11, 105480, Note_on_c, 11, 66, 76
11, 105584, Note_on_c, 11, 66, 0
11, 105600, Note_on_c, 11, 67, 76
11, 105824, Note_on_c, 11, 67, 0
11, 105840, Note_on_c, 11, 76, 76
11, 106424, Note_on_c, 11, 76, 0
11, 106440, Note_on_c, 11, 78, 76
11, 106544, Note_on_c, 11, 78, 0
11, 106560, Note_on_c, 11, 76, 76
11, 106664, Note_on_c, 11, 76, 0
11, 106680, Note_on_c, 11, 74, 76
11, 106784, Note_on_c, 11, 74, 0
11, 106800, Note_on_c, 11, 76, 76
11, 106904, Note_on_c, 11, 76, 0
11, 106920, Note_on_c, 11, 73, 76
11, 107024, Note_on_c, 11, 73, 0
11, 107040, Note_on_c, 11, 69, 76
11, 107264, Note_on_c, 11, 69, 0
11, 107280, Note_on_c, 11, 74, 76
11, 107384, Note_on_c, 11, 74, 0
11, 107400, Note_on_c, 11, 73, 76
11, 107504, Note_on_c, 11, 73, 0
11, 107520, Note_on_c, 11, 74, 76
11, 107744, Note_on_c, 11, 74, 0
11, 107760, Note_on_c, 11, 74, 76
11, 108464, Note_on_c, 11, 74, 0
11, 108480, Note_on_c, 11, 67, 76
11, 108704, Note_on_c, 11, 67, 0
11, 108720, Note_on_c, 11, 71, 76
11, 108944, Note_on_c, 11, 71, 0
11, 108960, Note_on_c, 11, 69, 76
11, 109184, Note_on_c, 11, 69, 0
11, 109200, Note_on_c, 11, 69, 76
11, 109904, Note_on_c, 11, 69, 0
11, 109920, Note_on_c, 11, 73, 76
11, 110144, Note_on_c, 11, 73, 0
11, 110160, Note_on_c, 11, 71, 76
11, 110264, Note_on_c, 11, 71, 0
11, 110280, Note_on_c, 11, 69, 76
11, 110384, Note_on_c, 11, 69, 0
11, 110400, Note_on_c, 11, 71, 76
11, 110624, Note_on_c, 11, 71, 0
11, 110640, Note_on_c, 11, 69, 76
11, 110744, Note_on_c, 11, 69, 0
11, 110760, Note_on_c, 11, 71, 76
11, 110864, Note_on_c, 11, 71, 0
11, 110880, Note_on_c, 11, 73, 76
11, 110984, Note_on_c, 11, 73, 0
11, 111000, Note_on_c, 11, 74, 76
11, 111104, Note_on_c, 11, 74, 0
11, 111120, Note_on_c, 11, 76, 76
11, 111224, Note_on_c, 11, 76, 0
11, 111240, Note_on_c, 11, 73, 76
11, 111344, Note_on_c, 11, 73, 0
11, 111360, Note_on_c, 11, 74, 76
11, 111584, Note_on_c, 11, 74, 0
11, 111600, Note_on_c, 11, 74, 76
11, 111824, Note_on_c, 11, 74, 0
11, 111840, Note_on_c, 11, 73, 76
11, 112064, Note_on_c, 11, 73, 0
11, 112080, Note_on_c, 11, 74, 76
11, 112304, Note_on_c, 11, 74, 0
11, 112320, Note_on_c, 11, 69, 76
11, 112544, Note_on_c, 11, 69, 0
11, 112560, Note_on_c, 11, 74, 76
11, 112784, Note_on_c, 11, 74, 0
11, 112800, Note_on_c, 11, 75, 76
11, 112904, Note_on_c, 11, 75, 0
11, 112920, Note_on_c, 11, 76, 76
11, 113024, Note_on_c, 11, 76, 0
11, 113040, Note_on_c, 11, 78, 76
11, 113264, Note_on_c, 11, 78, 0
11, 113280, Note_on_c, 11, 71, 76
11, 113744, Note_on_c, 11, 71, 0
11, 113760, Note_on_c, 11, 69, 76
11, 113984, Note_on_c, 11, 69, 0
11, 114000, Note_on_c, 11, 67, 76
11, 114224, Note_on_c, 11, 67, 0
11, 114240, Note_on_c, 11, 72, 76
11, 114464, Note_on_c, 11, 72, 0
11, 114480, Note_on_c, 11, 71, 76
11, 114704, Note_on_c, 11, 71, 0
11, 114720, Note_on_c, 11, 69, 76
11, 114944, Note_on_c, 11, 69, 0
11, 114960, Note_on_c, 11, 67, 76
11, 115664, Note_on_c, 11, 67, 0
11, 115680, Note_on_c, 11, 76, 76
11, 115784, Note_on_c, 11, 76, 0
11, 115800, Note_on_c, 11, 78, 76
11, 115904, Note_on_c, 11, 78, 0
11, 115920, Note_on_c, 11, 79, 76
11, 116624, Note_on_c, 11, 79, 0
11, 116640, Note_on_c, 11, 78, 76
11, 116864, Note_on_c, 11, 78, 0
11, 116880, Note_on_c, 11, 76, 76
11, 117104, Note_on_c, 11, 76, 0
11, 117120, Note_on_c, 11, 74, 76
11, 117224, Note_on_c, 11, 74, 0
11, 117240, Note_on_c, 11, 76, 76
11, 117344, Note_on_c, 11, 76, 0
11, 117360, Note_on_c, 11, 78, 76
11, 118064, Note_on_c, 11, 78, 0
11, 118080, Note_on_c, 11, 76, 76
11, 118304, Note_on_c, 11, 76, 0
11, 118320, Note_on_c, 11, 74, 76
11, 118544, Note_on_c, 11, 74, 0
11, 118560, Note_on_c, 11, 69, 76
11, 119504, Note_on_c, 11, 69, 0
11, 119520, Note_on_c, 11, 74, 76
11, 119624, Note_on_c, 11, 74, 0
11, 119640, Note_on_c, 11, 73, 76
11, 119744, Note_on_c, 11, 73, 0
11, 119760, Note_on_c, 11, 74, 76
11, 119984, Note_on_c, 11, 74, 0
11, 120000, Note_on_c, 11, 67, 76
11, 120224, Note_on_c, 11, 67, 0
11, 120240, Note_on_c, 11, 67, 76
11, 120464, Note_on_c, 11, 67, 0
11, 120480, Note_on_c, 11, 69, 76
11, 120704, Note_on_c, 11, 69, 0
11, 120720, Note_on_c, 11, 73, 76
11, 120944, Note_on_c, 11, 73, 0
11, 120960, Note_on_c, 11, 69, 76
11, 121184, Note_on_c, 11, 69, 0
11, 121200, Note_on_c, 11, 64, 76
11, 121424, Note_on_c, 11, 64, 0
11, 121440, Note_on_c, 11, 69, 76
11, 122264, Note_on_c, 11, 69, 0
11, 122280, Note_on_c, 11, 71, 76
11, 122384, Note_on_c, 11, 71, 0
11, 122400, Note_on_c, 11, 69, 76
11, 122504, Note_on_c, 11, 69, 0
11, 122520, Note_on_c, 11, 67, 76
11, 122624, Note_on_c, 11, 67, 0
11, 122640, Note_on_c, 11, 69, 76
11, 122744, Note_on_c, 11, 69, 0
11, 122760, Note_on_c, 11, 66, 76
11, 122864, Note_on_c, 11, 66, 0
11, 122880, Note_on_c, 11, 67, 76
11, 123104, Note_on_c, 11, 67, 0
11, 123120, Note_on_c, 11, 76, 76
11, 123704, Note_on_c, 11, 76, 0
11, 123720, Note_on_c, 11, 78, 76
11, 123824, Note_on_c, 11, 78, 0
11, 123840, Note_on_c, 11, 76, 76
11, 123944, Note_on_c, 11, 76, 0
11, 123960, Note_on_c, 11, 74, 76
11, 124064, Note_on_c, 11, 74, 0
11, 124080, Note_on_c, 11, 76, 76
11, 124184, Note_on_c, 11, 76, 0
11, 124200, Note_on_c, 11, 73, 76
11, 124304, Note_on_c, 11, 73, 0
11, 124320, Note_on_c, 11, 69, 76
11, 124544, Note_on_c, 11, 69, 0
11, 124560, Note_on_c, 11, 74, 76
11, 124664, Note_on_c, 11, 74, 0
11, 124680, Note_on_c, 11, 73, 76
11, 124784, Note_on_c, 11, 73, 0
11, 124800, Note_on_c, 11, 74, 76
11, 125024, Note_on_c, 11, 74, 0
11, 125040, Note_on_c, 11, 74, 76
11, 125744, Note_on_c, 11, 74, 0
11, 125760, Note_on_c, 11, 67, 76
11, 125984, Note_on_c, 11, 67, 0
11, 126000, Note_on_c, 11, 71, 76
11, 126224, Note_on_c, 11, 71, 0
11, 126240, Note_on_c, 11, 69, 76
11, 126464, Note_on_c, 11, 69, 0
11, 126480, Note_on_c, 11, 69, 76
11, 127199, Note_on_c, 11, 69, 0
11, 127199, End_track
12, 0, Start_track
12, 0, Title_t, "Viola"
12, 0, MIDI_port, 0
12, 0, Program_c, 12, 48
12, 0, Control_c, 12, 10, 70
12, 0, Control_c, 12, 11, 127
12, 0, Control_c, 12, 7, 96
12, 0, Note_on_c, 12, 69, 76
12, 224, Note_on_c, 12, 69, 0
12, 240, Note_on_c, 12, 62, 76
12, 464, Note_on_c, 12, 62, 0
12, 480, Note_on_c, 12, 71, 76
12, 704, Note_on_c, 12, 71, 0
12, 720, Note_on_c, 12, 69, 76
12, 1424, Note_on_c, 12, 69, 0
12, 1440, Note_on_c, 12, 62, 76
12, 1664, Note_on_c, 12, 62, 0
12, 1680, Note_on_c, 12, 67, 76
12, 1904, Note_on_c, 12, 67, 0
12, 1920, Note_on_c, 12, 64, 76
12, 2144, Note_on_c, 12, 64, 0
12, 2160, Note_on_c, 12, 66, 76
12, 2264, Note_on_c, 12, 66, 0
12, 2280, Note_on_c, 12, 64, 76
12, 2384, Note_on_c, 12, 64, 0
12, 2400, Note_on_c, 12, 66, 76
12, 2504, Note_on_c, 12, 66, 0
12, 2520, Note_on_c, 12, 67, 76
12, 2624, Note_on_c, 12, 67, 0
12, 2640, Note_on_c, 12, 69, 76
12, 2864, Note_on_c, 12, 69, 0
12, 2880, Note_on_c, 12, 64, 76
12, 3104, Note_on_c, 12, 64, 0
12, 3120, Note_on_c, 12, 69, 76
12, 3344, Note_on_c, 12, 69, 0
12, 3360, Note_on_c, 12, 61, 76
12, 3584, Note_on_c, 12, 61, 0
12, 3600, Note_on_c, 12, 62, 76
12, 3824, Note_on_c, 12, 62, 0
12, 3840, Note_on_c, 12, 69, 76
12, 4304, Note_on_c, 12, 69, 0
12, 4320, Note_on_c, 12, 69, 76
12, 4544, Note_on_c, 12, 69, 0
12, 4560, Note_on_c, 12, 62, 76
12, 4784, Note_on_c, 12, 62, 0
12, 4800, Note_on_c, 12, 64, 76
12, 5024, Note_on_c, 12, 64, 0
12, 5040, Note_on_c, 12, 64, 76
12, 5744, Note_on_c, 12, 64, 0
12, 5760, Note_on_c, 12, 69, 76
12, 5984, Note_on_c, 12, 69, 0
12, 6000, Note_on_c, 12, 62, 76
12, 6224, Note_on_c, 12, 62, 0
12, 6240, Note_on_c, 12, 71, 76
12, 6464, Note_on_c, 12, 71, 0
12, 6480, Note_on_c, 12, 69, 76
12, 7184, Note_on_c, 12, 69, 0
12, 7200, Note_on_c, 12, 62, 76
12, 7424, Note_on_c, 12, 62, 0
12, 7440, Note_on_c, 12, 67, 76
12, 7664, Note_on_c, 12, 67, 0
12, 7680, Note_on_c, 12, 64, 76
12, 7904, Note_on_c, 12, 64, 0
12, 7920, Note_on_c, 12, 66, 76
12, 8024, Note_on_c, 12, 66, 0
12, 8040, Note_on_c, 12, 64, 76
12, 8144, Note_on_c, 12, 64, 0
12, 8160, Note_on_c, 12, 66, 76
12, 8264, Note_on_c, 12, 66, 0
12, 8280, Note_on_c, 12, 67, 76
12, 8384, Note_on_c, 12, 67, 0
12, 8400, Note_on_c, 12, 69, 76
12, 8624, Note_on_c, 12, 69, 0
12, 8640, Note_on_c, 12, 64, 76
12, 8864, Note_on_c, 12, 64, 0
12, 8880, Note_on_c, 12, 69, 76
12, 9104, Note_on_c, 12, 69, 0
12, 9120, Note_on_c, 12, 61, 76
12, 9344, Note_on_c, 12, 61, 0
12, 9360, Note_on_c, 12, 62, 76
12, 9584, Note_on_c, 12, 62, 0
12, 9600, Note_on_c, 12, 69, 76
12, 10064, Note_on_c, 12, 69, 0
12, 10080, Note_on_c, 12, 69, 76
12, 10304, Note_on_c, 12, 69, 0
12, 10320, Note_on_c, 12, 62, 76
12, 10544, Note_on_c, 12, 62, 0
12, 10560, Note_on_c, 12, 64, 76
12, 10784, Note_on_c, 12, 64, 0
12, 10800, Note_on_c, 12, 64, 76
12, 11504, Note_on_c, 12, 64, 0
12, 11520, Note_on_c, 12, 69, 76
12, 11744, Note_on_c, 12, 69, 0
12, 11760, Note_on_c, 12, 66, 76
12, 11984, Note_on_c, 12, 66, 0
12, 12000, Note_on_c, 12, 64, 76
12, 12224, Note_on_c, 12, 64, 0
12, 12240, Note_on_c, 12, 64, 76
12, 12464, Note_on_c, 12, 64, 0
12, 12480, Note_on_c, 12, 69, 76
12, 12944, Note_on_c, 12, 69, 0
12, 12960, Note_on_c, 12, 69, 76
12, 13184, Note_on_c, 12, 69, 0
12, 13200, Note_on_c, 12, 71, 76
12, 13424, Note_on_c, 12, 71, 0
12, 13440, Note_on_c, 12, 69, 76
12, 13664, Note_on_c, 12, 69, 0
12, 13680, Note_on_c, 12, 69, 76
12, 13784, Note_on_c, 12, 69, 0
12, 13800, Note_on_c, 12, 67, 76
12, 13904, Note_on_c, 12, 67, 0
12, 13920, Note_on_c, 12, 66, 76
12, 14024, Note_on_c, 12, 66, 0
12, 14040, Note_on_c, 12, 67, 76
12, 14144, Note_on_c, 12, 67, 0
12, 14160, Note_on_c, 12, 69, 76
12, 14264, Note_on_c, 12, 69, 0
12, 14280, Note_on_c, 12, 71, 76
12, 14384, Note_on_c, 12, 71, 0
12, 14400, Note_on_c, 12, 72, 76
12, 14624, Note_on_c, 12, 72, 0
12, 14640, Note_on_c, 12, 71, 76
12, 14864, Note_on_c, 12, 71, 0
12, 14880, Note_on_c, 12, 69, 76
12, 15104, Note_on_c, 12, 69, 0
12, 15120, Note_on_c, 12, 67, 76
12, 15344, Note_on_c, 12, 67, 0
12, 15360, Note_on_c, 12, 66, 76
12, 15584, Note_on_c, 12, 66, 0
12, 15600, Note_on_c, 12, 64, 76
12, 16064, Note_on_c, 12, 64, 0
12, 16080, Note_on_c, 12, 63, 76
12, 16304, Note_on_c, 12, 63, 0
12, 16320, Note_on_c, 12, 59, 76
12, 16544, Note_on_c, 12, 59, 0
12, 16560, Note_on_c, 12, 59, 76
12, 17264, Note_on_c, 12, 59, 0
12, 17280, Note_on_c, 12, 71, 76
12, 17384, Note_on_c, 12, 71, 0
12, 17400, Note_on_c, 12, 69, 76
12, 17504, Note_on_c, 12, 69, 0
12, 17520, Note_on_c, 12, 67, 76
12, 17624, Note_on_c, 12, 67, 0
12, 17640, Note_on_c, 12, 69, 76
12, 17744, Note_on_c, 12, 69, 0
12, 17760, Note_on_c, 12, 71, 76
12, 17864, Note_on_c, 12, 71, 0
12, 17880, Note_on_c, 12, 67, 76
12, 17984, Note_on_c, 12, 67, 0
12, 18000, Note_on_c, 12, 64, 76
12, 18224, Note_on_c, 12, 64, 0
12, 18240, Note_on_c, 12, 73, 76
12, 18464, Note_on_c, 12, 73, 0
12, 18480, Note_on_c, 12, 69, 76
12, 18824, Note_on_c, 12, 69, 0
12, 18840, Note_on_c, 12, 67, 76
12, 18944, Note_on_c, 12, 67, 0
12, 18960, Note_on_c, 12, 66, 76
12, 19064, Note_on_c, 12, 66, 0
12, 19080, Note_on_c, 12, 67, 76
12, 19184, Note_on_c, 12, 67, 0
12, 19200, Note_on_c, 12, 69, 76
12, 19304, Note_on_c, 12, 69, 0
12, 19320, Note_on_c, 12, 66, 76
12, 19424, Note_on_c, 12, 66, 0
12, 19440, Note_on_c, 12, 62, 76
12, 19664, Note_on_c, 12, 62, 0
12, 19680, Note_on_c, 12, 71, 76
12, 19904, Note_on_c, 12, 71, 0
12, 19920, Note_on_c, 12, 67, 76
12, 20384, Note_on_c, 12, 67, 0
12, 20400, Note_on_c, 12, 61, 76
12, 20624, Note_on_c, 12, 61, 0
12, 20640, Note_on_c, 12, 64, 76
12, 20864, Note_on_c, 12, 64, 0
12, 20880, Note_on_c, 12, 66, 76
12, 20984, Note_on_c, 12, 66, 0
12, 21000, Note_on_c, 12, 67, 76
12, 21104, Note_on_c, 12, 67, 0
12, 21120, Note_on_c, 12, 69, 76
12, 21344, Note_on_c, 12, 69, 0
12, 21360, Note_on_c, 12, 66, 76
12, 21584, Note_on_c, 12, 66, 0
12, 21600, Note_on_c, 12, 62, 76
12, 21824, Note_on_c, 12, 62, 0
12, 21840, Note_on_c, 12, 64, 76
12, 22064, Note_on_c, 12, 64, 0
12, 22080, Note_on_c, 12, 66, 76
12, 22304, Note_on_c, 12, 66, 0
12, 22320, Note_on_c, 12, 69, 76
12, 22544, Note_on_c, 12, 69, 0
12, 22560, Note_on_c, 12, 64, 76
12, 22784, Note_on_c, 12, 64, 0
12, 22800, Note_on_c, 12, 61, 76
12, 23024, Note_on_c, 12, 61, 0
12, 23040, Note_on_c, 12, 62, 76
12, 23264, Note_on_c, 12, 62, 0
12, 23280, Note_on_c, 12, 62, 76
12, 23504, Note_on_c, 12, 62, 0
12, 23520, Note_on_c, 12, 62, 76
12, 23744, Note_on_c, 12, 62, 0
12, 23760, Note_on_c, 12, 62, 76
12, 23984, Note_on_c, 12, 62, 0
12, 24000, Note_on_c, 12, 62, 76
12, 24224, Note_on_c, 12, 62, 0
12, 24240, Note_on_c, 12, 62, 76
12, 24464, Note_on_c, 12, 62, 0
12, 24480, Note_on_c, 12, 62, 76
12, 24704, Note_on_c, 12, 62, 0
12, 24720, Note_on_c, 12, 69, 76
12, 24944, Note_on_c, 12, 69, 0
12, 24960, Note_on_c, 12, 69, 76
12, 25184, Note_on_c, 12, 69, 0
12, 25200, Note_on_c, 12, 69, 76
12, 25424, Note_on_c, 12, 69, 0
12, 25440, Note_on_c, 12, 69, 76
12, 25664, Note_on_c, 12, 69, 0
12, 25680, Note_on_c, 12, 69, 76
12, 25904, Note_on_c, 12, 69, 0
12, 25920, Note_on_c, 12, 62, 76
12, 26384, Note_on_c, 12, 62, 0
12, 26400, Note_on_c, 12, 71, 76
12, 26624, Note_on_c, 12, 71, 0
12, 26640, Note_on_c, 12, 69, 76
12, 27344, Note_on_c, 12, 69, 0
12, 27360, Note_on_c, 12, 62, 76
12, 27584, Note_on_c, 12, 62, 0
12, 27600, Note_on_c, 12, 67, 76
12, 27824, Note_on_c, 12, 67, 0
12, 27840, Note_on_c, 12, 64, 76
12, 28064, Note_on_c, 12, 64, 0
12, 28080, Note_on_c, 12, 66, 76
12, 28784, Note_on_c, 12, 66, 0
12, 28800, Note_on_c, 12, 69, 76
12, 29024, Note_on_c, 12, 69, 0
12, 29040, Note_on_c, 12, 66, 76
12, 29264, Note_on_c, 12, 66, 0
12, 29280, Note_on_c, 12, 64, 76
12, 29504, Note_on_c, 12, 64, 0
12, 29520, Note_on_c, 12, 64, 76
12, 29744, Note_on_c, 12, 64, 0
12, 29760, Note_on_c, 12, 69, 76
12, 30224, Note_on_c, 12, 69, 0
12, 30240, Note_on_c, 12, 69, 76
12, 30464, Note_on_c, 12, 69, 0
12, 30480, Note_on_c, 12, 71, 76
12, 30704, Note_on_c, 12, 71, 0
12, 30720, Note_on_c, 12, 69, 76
12, 30944, Note_on_c, 12, 69, 0
12, 30960, Note_on_c, 12, 69, 76
12, 31064, Note_on_c, 12, 69, 0
12, 31080, Note_on_c, 12, 67, 76
12, 31184, Note_on_c, 12, 67, 0
12, 31200, Note_on_c, 12, 66, 76
12, 31304, Note_on_c, 12, 66, 0
12, 31320, Note_on_c, 12, 67, 76
12, 31424, Note_on_c, 12, 67, 0
12, 31440, Note_on_c, 12, 69, 76
12, 31544, Note_on_c, 12, 69, 0
12, 31560, Note_on_c, 12, 71, 76
12, 31664, Note_on_c, 12, 71, 0
12, 31680, Note_on_c, 12, 72, 76
12, 31904, Note_on_c, 12, 72, 0
12, 31920, Note_on_c, 12, 71, 76
12, 32144, Note_on_c, 12, 71, 0
12, 32160, Note_on_c, 12, 69, 76
12, 32384, Note_on_c, 12, 69, 0
12, 32400, Note_on_c, 12, 67, 76
12, 32624, Note_on_c, 12, 67, 0
12, 32640, Note_on_c, 12, 66, 76
12, 32864, Note_on_c, 12, 66, 0
12, 32880, Note_on_c, 12, 64, 76
12, 33344, Note_on_c, 12, 64, 0
12, 33360, Note_on_c, 12, 63, 76
12, 33584, Note_on_c, 12, 63, 0
12, 33600, Note_on_c, 12, 59, 76
12, 33824, Note_on_c, 12, 59, 0
12, 33840, Note_on_c, 12, 59, 76
12, 34544, Note_on_c, 12, 59, 0
12, 34560, Note_on_c, 12, 71, 76
12, 34664, Note_on_c, 12, 71, 0
12, 34680, Note_on_c, 12, 69, 76
12, 34784, Note_on_c, 12, 69, 0
12, 34800, Note_on_c, 12, 67, 76
12, 34904, Note_on_c, 12, 67, 0
12, 34920, Note_on_c, 12, 69, 76
12, 35024, Note_on_c, 12, 69, 0
12, 35040, Note_on_c, 12, 71, 76
12, 35144, Note_on_c, 12, 71, 0
12, 35160, Note_on_c, 12, 67, 76
12, 35264, Note_on_c, 12, 67, 0
12, 35280, Note_on_c, 12, 64, 76
12, 35504, Note_on_c, 12, 64, 0
12, 35520, Note_on_c, 12, 73, 76
12, 35744, Note_on_c, 12, 73, 0
12, 35760, Note_on_c, 12, 69, 76
12, 36104, Note_on_c, 12, 69, 0
12, 36120, Note_on_c, 12, 67, 76
12, 36224, Note_on_c, 12, 67, 0
12, 36240, Note_on_c, 12, 66, 76
12, 36344, Note_on_c, 12, 66, 0
12, 36360, Note_on_c, 12, 67, 76
12, 36464, Note_on_c, 12, 67, 0
12, 36480, Note_on_c, 12, 69, 76
12, 36584, Note_on_c, 12, 69, 0
12, 36600, Note_on_c, 12, 66, 76
12, 36704, Note_on_c, 12, 66, 0
12, 36720, Note_on_c, 12, 62, 76
12, 36944, Note_on_c, 12, 62, 0
12, 36960, Note_on_c, 12, 71, 76
12, 37184, Note_on_c, 12, 71, 0
12, 37200, Note_on_c, 12, 67, 76
12, 37664, Note_on_c, 12, 67, 0
12, 37680, Note_on_c, 12, 61, 76
12, 37904, Note_on_c, 12, 61, 0
12, 37920, Note_on_c, 12, 64, 76
12, 38144, Note_on_c, 12, 64, 0
12, 38160, Note_on_c, 12, 66, 76
12, 38264, Note_on_c, 12, 66, 0
12, 38280, Note_on_c, 12, 67, 76
12, 38384, Note_on_c, 12, 67, 0
12, 38400, Note_on_c, 12, 69, 76
12, 38624, Note_on_c, 12, 69, 0
12, 38640, Note_on_c, 12, 66, 76
12, 38864, Note_on_c, 12, 66, 0
12, 38880, Note_on_c, 12, 62, 76
12, 39104, Note_on_c, 12, 62, 0
12, 39120, Note_on_c, 12, 64, 76
12, 39344, Note_on_c, 12, 64, 0
12, 39360, Note_on_c, 12, 66, 76
12, 39584, Note_on_c, 12, 66, 0
12, 39600, Note_on_c, 12, 69, 76
12, 39824, Note_on_c, 12, 69, 0
12, 39840, Note_on_c, 12, 64, 76
12, 40064, Note_on_c, 12, 64, 0
12, 40080, Note_on_c, 12, 61, 76
12, 40304, Note_on_c, 12, 61, 0
12, 40320, Note_on_c, 12, 62, 76
12, 40544, Note_on_c, 12, 62, 0
12, 40560, Note_on_c, 12, 62, 76
12, 40784, Note_on_c, 12, 62, 0
12, 40800, Note_on_c, 12, 62, 76
12, 41024, Note_on_c, 12, 62, 0
12, 41040, Note_on_c, 12, 62, 76
12, 41264, Note_on_c, 12, 62, 0
12, 41280, Note_on_c, 12, 62, 76
12, 41504, Note_on_c, 12, 62, 0
12, 41520, Note_on_c, 12, 62, 76
12, 41744, Note_on_c, 12, 62, 0
12, 41760, Note_on_c, 12, 62, 76
12, 41984, Note_on_c, 12, 62, 0
12, 42000, Note_on_c, 12, 69, 76
12, 42224, Note_on_c, 12, 69, 0
12, 42240, Note_on_c, 12, 69, 76
12, 42464, Note_on_c, 12, 69, 0
12, 42480, Note_on_c, 12, 69, 76
12, 42704, Note_on_c, 12, 69, 0
12, 42720, Note_on_c, 12, 69, 76
12, 42944, Note_on_c, 12, 69, 0
12, 42960, Note_on_c, 12, 69, 76
12, 43184, Note_on_c, 12, 69, 0
12, 43200, Note_on_c, 12, 62, 76
12, 43664, Note_on_c, 12, 62, 0
12, 43680, Note_on_c, 12, 71, 76
12, 43904, Note_on_c, 12, 71, 0
12, 43920, Note_on_c, 12, 69, 76
12, 44624, Note_on_c, 12, 69, 0
12, 44640, Note_on_c, 12, 62, 76
12, 44864, Note_on_c, 12, 62, 0
12, 44880, Note_on_c, 12, 67, 76
12, 45104, Note_on_c, 12, 67, 0
12, 45120, Note_on_c, 12, 64, 76
12, 45344, Note_on_c, 12, 64, 0
12, 45360, Note_on_c, 12, 66, 76
12, 46079, Note_on_c, 12, 66, 0
12, 46320, Note_on_c, 12, 57, 76
12, 46544, Note_on_c, 12, 57, 0
12, 46560, Note_on_c, 12, 54, 76
12, 46664, Note_on_c, 12, 54, 0
12, 46680, Note_on_c, 12, 52, 76
12, 46784, Note_on_c, 12, 52, 0
12, 46800, Note_on_c, 12, 54, 76
12, 46904, Note_on_c, 12, 54, 0
12, 46920, Note_on_c, 12, 56, 76
12, 47024, Note_on_c, 12, 56, 0
12, 47040, Note_on_c, 12, 57, 76
12, 47264, Note_on_c, 12, 57, 0
12, 47280, Note_on_c, 12, 59, 76
12, 47504, Note_on_c, 12, 59, 0
12, 47520, Note_on_c, 12, 61, 76
12, 47744, Note_on_c, 12, 61, 0
12, 47760, Note_on_c, 12, 57, 76
12, 47984, Note_on_c, 12, 57, 0
12, 48000, Note_on_c, 12, 55, 76
12, 48224, Note_on_c, 12, 55, 0
12, 48240, Note_on_c, 12, 54, 76
12, 48464, Note_on_c, 12, 54, 0
12, 48480, Note_on_c, 12, 52, 76
12, 49184, Note_on_c, 12, 52, 0
12, 49200, Note_on_c, 12, 55, 76
12, 49424, Note_on_c, 12, 55, 0
12, 49440, Note_on_c, 12, 57, 76
12, 49904, Note_on_c, 12, 57, 0
12, 49920, Note_on_c, 12, 57, 76
12, 50144, Note_on_c, 12, 57, 0
12, 50160, Note_on_c, 12, 64, 76
12, 50384, Note_on_c, 12, 64, 0
12, 50400, Note_on_c, 12, 57, 76
12, 50624, Note_on_c, 12, 57, 0
12, 50640, Note_on_c, 12, 61, 76
12, 50864, Note_on_c, 12, 61, 0
12, 50880, Note_on_c, 12, 61, 76
12, 51104, Note_on_c, 12, 61, 0
12, 51120, Note_on_c, 12, 59, 76
12, 51344, Note_on_c, 12, 59, 0
12, 51360, Note_on_c, 12, 61, 76
12, 52064, Note_on_c, 12, 61, 0
12, 52080, Note_on_c, 12, 57, 76
12, 52304, Note_on_c, 12, 57, 0
12, 52320, Note_on_c, 12, 54, 76
12, 52424, Note_on_c, 12, 54, 0
12, 52440, Note_on_c, 12, 52, 76
12, 52544, Note_on_c, 12, 52, 0
12, 52560, Note_on_c, 12, 54, 76
12, 52664, Note_on_c, 12, 54, 0
12, 52680, Note_on_c, 12, 56, 76
12, 52784, Note_on_c, 12, 56, 0
12, 52800, Note_on_c, 12, 57, 76
12, 53024, Note_on_c, 12, 57, 0
12, 53040, Note_on_c, 12, 59, 76
12, 53264, Note_on_c, 12, 59, 0
12, 53280, Note_on_c, 12, 61, 76
12, 53504, Note_on_c, 12, 61, 0
12, 53520, Note_on_c, 12, 57, 76
12, 53744, Note_on_c, 12, 57, 0
12, 53760, Note_on_c, 12, 55, 76
12, 53984, Note_on_c, 12, 55, 0
12, 54000, Note_on_c, 12, 54, 76
12, 54224, Note_on_c, 12, 54, 0
12, 54240, Note_on_c, 12, 52, 76
12, 54944, Note_on_c, 12, 52, 0
12, 54960, Note_on_c, 12, 55, 76
12, 55184, Note_on_c, 12, 55, 0
12, 55200, Note_on_c, 12, 57, 76
12, 55664, Note_on_c, 12, 57, 0
12, 55680, Note_on_c, 12, 57, 76
12, 55904, Note_on_c, 12, 57, 0
12, 55920, Note_on_c, 12, 64, 76
12, 56144, Note_on_c, 12, 64, 0
12, 56160, Note_on_c, 12, 57, 76
12, 56384, Note_on_c, 12, 57, 0
12, 56400, Note_on_c, 12, 61, 76
12, 56624, Note_on_c, 12, 61, 0
12, 56640, Note_on_c, 12, 61, 76
12, 56864, Note_on_c, 12, 61, 0
12, 56880, Note_on_c, 12, 59, 76
12, 57104, Note_on_c, 12, 59, 0
12, 57120, Note_on_c, 12, 61, 76
12, 57824, Note_on_c, 12, 61, 0
12, 57840, Note_on_c, 12, 69, 76
12, 58064, Note_on_c, 12, 69, 0
12, 58080, Note_on_c, 12, 64, 76
12, 58304, Note_on_c, 12, 64, 0
12, 58320, Note_on_c, 12, 67, 76
12, 58544, Note_on_c, 12, 67, 0
12, 58560, Note_on_c, 12, 61, 76
12, 58784, Note_on_c, 12, 61, 0
12, 58800, Note_on_c, 12, 62, 76
12, 59024, Note_on_c, 12, 62, 0
12, 59040, Note_on_c, 12, 64, 76
12, 59264, Note_on_c, 12, 64, 0
12, 59280, Note_on_c, 12, 62, 76
12, 59504, Note_on_c, 12, 62, 0
12, 59520, Note_on_c, 12, 64, 76
12, 59744, Note_on_c, 12, 64, 0
12, 59760, Note_on_c, 12, 66, 76
12, 59984, Note_on_c, 12, 66, 0
12, 60000, Note_on_c, 12, 66, 76
12, 60104, Note_on_c, 12, 66, 0
12, 60120, Note_on_c, 12, 68, 76
12, 60224, Note_on_c, 12, 68, 0
12, 60240, Note_on_c, 12, 70, 76
12, 60464, Note_on_c, 12, 70, 0
12, 60480, Note_on_c, 12, 66, 76
12, 60704, Note_on_c, 12, 66, 0
12, 60720, Note_on_c, 12, 66, 76
12, 60824, Note_on_c, 12, 66, 0
12, 60840, Note_on_c, 12, 64, 76
12, 60944, Note_on_c, 12, 64, 0
12, 60960, Note_on_c, 12, 62, 76
12, 61064, Note_on_c, 12, 62, 0
12, 61080, Note_on_c, 12, 61, 76
12, 61184, Note_on_c, 12, 61, 0
12, 61200, Note_on_c, 12, 62, 76
12, 61424, Note_on_c, 12, 62, 0
12, 61440, Note_on_c, 12, 61, 76
12, 61904, Note_on_c, 12, 61, 0
12, 61920, Note_on_c, 12, 59, 76
12, 62024, Note_on_c, 12, 59, 0
12, 62040, Note_on_c, 12, 61, 76
12, 62144, Note_on_c, 12, 61, 0
12, 62160, Note_on_c, 12, 62, 76
12, 62384, Note_on_c, 12, 62, 0
12, 62400, Note_on_c, 12, 54, 76
12, 62624, Note_on_c, 12, 54, 0
12, 62640, Note_on_c, 12, 54, 76
12, 62864, Note_on_c, 12, 54, 0
12, 62880, Note_on_c, 12, 54, 76
12, 63104, Note_on_c, 12, 54, 0
12, 63120, Note_on_c, 12, 59, 76
12, 63359, Note_on_c, 12, 59, 0
12, 63600, Note_on_c, 12, 57, 76
12, 63824, Note_on_c, 12, 57, 0
12, 63840, Note_on_c, 12, 66, 76
12, 64079, Note_on_c, 12, 66, 0
12, 64320, Note_on_c, 12, 64, 76
12, 64544, Note_on_c, 12, 64, 0
12, 64560, Note_on_c, 12, 69, 76
12, 64784, Note_on_c, 12, 69, 0
12, 64800, Note_on_c, 12, 61, 76
12, 65024, Note_on_c, 12, 61, 0
12, 65040, Note_on_c, 12, 69, 76
12, 65264, Note_on_c, 12, 69, 0
12, 65280, Note_on_c, 12, 67, 76
12, 65504, Note_on_c, 12, 67, 0
12, 65520, Note_on_c, 12, 66, 76
12, 65744, Note_on_c, 12, 66, 0
12, 65760, Note_on_c, 12, 64, 76
12, 65864, Note_on_c, 12, 64, 0
12, 65880, Note_on_c, 12, 62, 76
12, 65984, Note_on_c, 12, 62, 0
12, 66000, Note_on_c, 12, 61, 76
12, 66104, Note_on_c, 12, 61, 0
12, 66120, Note_on_c, 12, 62, 76
12, 66224, Note_on_c, 12, 62, 0
12, 66240, Note_on_c, 12, 64, 76
12, 66344, Note_on_c, 12, 64, 0
12, 66360, Note_on_c, 12, 61, 76
12, 66464, Note_on_c, 12, 61, 0
12, 66480, Note_on_c, 12, 57, 76
12, 66704, Note_on_c, 12, 57, 0
12, 66720, Note_on_c, 12, 59, 76
12, 66944, Note_on_c, 12, 59, 0
12, 66960, Note_on_c, 12, 60, 76
12, 67184, Note_on_c, 12, 60, 0
12, 67200, Note_on_c, 12, 59, 76
12, 67424, Note_on_c, 12, 59, 0
12, 67440, Note_on_c, 12, 57, 76
12, 67664, Note_on_c, 12, 57, 0
12, 67680, Note_on_c, 12, 57, 76
12, 68144, Note_on_c, 12, 57, 0
12, 68160, Note_on_c, 12, 54, 76
12, 68384, Note_on_c, 12, 54, 0
12, 68400, Note_on_c, 12, 52, 76
12, 68624, Note_on_c, 12, 52, 0
12, 68640, Note_on_c, 12, 54, 76
12, 69344, Note_on_c, 12, 54, 0
12, 69360, Note_on_c, 12, 69, 76
12, 69584, Note_on_c, 12, 69, 0
12, 69600, Note_on_c, 12, 64, 76
12, 69824, Note_on_c, 12, 64, 0
12, 69840, Note_on_c, 12, 67, 76
12, 70064, Note_on_c, 12, 67, 0
12, 70080, Note_on_c, 12, 61, 76
12, 70304, Note_on_c, 12, 61, 0
12, 70320, Note_on_c, 12, 62, 76
12, 70544, Note_on_c, 12, 62, 0
12, 70560, Note_on_c, 12, 64, 76
12, 70784, Note_on_c, 12, 64, 0
12, 70800, Note_on_c, 12, 62, 76
12, 71024, Note_on_c, 12, 62, 0
12, 71040, Note_on_c, 12, 64, 76
12, 71264, Note_on_c, 12, 64, 0
12, 71280, Note_on_c, 12, 66, 76
12, 71504, Note_on_c, 12, 66, 0
12, 71520, Note_on_c, 12, 66, 76
12, 71624, Note_on_c, 12, 66, 0
12, 71640, Note_on_c, 12, 68, 76
12, 71744, Note_on_c, 12, 68, 0
12, 71760, Note_on_c, 12, 70, 76
12, 71984, Note_on_c, 12, 70, 0
12, 72000, Note_on_c, 12, 66, 76
12, 72224, Note_on_c, 12, 66, 0
12, 72240, Note_on_c, 12, 66, 76
12, 72344, Note_on_c, 12, 66, 0
12, 72360, Note_on_c, 12, 64, 76
12, 72464, Note_on_c, 12, 64, 0
12, 72480, Note_on_c, 12, 62, 76
12, 72584, Note_on_c, 12, 62, 0
12, 72600, Note_on_c, 12, 61, 76
12, 72704, Note_on_c, 12, 61, 0
12, 72720, Note_on_c, 12, 62, 76
12, 72944, Note_on_c, 12, 62, 0
12, 72960, Note_on_c, 12, 61, 76
12, 73424, Note_on_c, 12, 61, 0
12, 73440, Note_on_c, 12, 59, 76
12, 73544, Note_on_c, 12, 59, 0
12, 73560, Note_on_c, 12, 61, 76
12, 73664, Note_on_c, 12, 61, 0
12, 73680, Note_on_c, 12, 62, 76
12, 73904, Note_on_c, 12, 62, 0
12, 73920, Note_on_c, 12, 54, 76
12, 74144, Note_on_c, 12, 54, 0
12, 74160, Note_on_c, 12, 54, 76
12, 74384, Note_on_c, 12, 54, 0
12, 74400, Note_on_c, 12, 54, 76
12, 74624, Note_on_c, 12, 54, 0
12, 74640, Note_on_c, 12, 59, 76
12, 74879, Note_on_c, 12, 59, 0
12, 75120, Note_on_c, 12, 57, 76
12, 75344, Note_on_c, 12, 57, 0
12, 75360, Note_on_c, 12, 66, 76
12, 75599, Note_on_c, 12, 66, 0
12, 75840, Note_on_c, 12, 64, 76
12, 76064, Note_on_c, 12, 64, 0
12, 76080, Note_on_c, 12, 69, 76
12, 76304, Note_on_c, 12, 69, 0
12, 76320, Note_on_c, 12, 61, 76
12, 76544, Note_on_c, 12, 61, 0
12, 76560, Note_on_c, 12, 69, 76
12, 76784, Note_on_c, 12, 69, 0
12, 76800, Note_on_c, 12, 67, 76
12, 77024, Note_on_c, 12, 67, 0
12, 77040, Note_on_c, 12, 66, 76
12, 77264, Note_on_c, 12, 66, 0
12, 77280, Note_on_c, 12, 64, 76
12, 77384, Note_on_c, 12, 64, 0
12, 77400, Note_on_c, 12, 62, 76
12, 77504, Note_on_c, 12, 62, 0
12, 77520, Note_on_c, 12, 61, 76
12, 77624, Note_on_c, 12, 61, 0
12, 77640, Note_on_c, 12, 62, 76
12, 77744, Note_on_c, 12, 62, 0
12, 77760, Note_on_c, 12, 64, 76
12, 77864, Note_on_c, 12, 64, 0
12, 77880, Note_on_c, 12, 61, 76
12, 77984, Note_on_c, 12, 61, 0
12, 78000, Note_on_c, 12, 57, 76
12, 78224, Note_on_c, 12, 57, 0
12, 78240, Note_on_c, 12, 59, 76
12, 78464, Note_on_c, 12, 59, 0
12, 78480, Note_on_c, 12, 60, 76
12, 78704, Note_on_c, 12, 60, 0
12, 78720, Note_on_c, 12, 59, 76
12, 78944, Note_on_c, 12, 59, 0
12, 78960, Note_on_c, 12, 57, 76
12, 79184, Note_on_c, 12, 57, 0
12, 79200, Note_on_c, 12, 57, 76
12, 79664, Note_on_c, 12, 57, 0
12, 79680, Note_on_c, 12, 54, 76
12, 79904, Note_on_c, 12, 54, 0
12, 79920, Note_on_c, 12, 52, 76
12, 80144, Note_on_c, 12, 52, 0
12, 80160, Note_on_c, 12, 54, 76
12, 80879, Note_on_c, 12, 54, 0
12, 81120, Note_on_c, 12, 69, 76
12, 81344, Note_on_c, 12, 69, 0
12, 81360, Note_on_c, 12, 62, 76
12, 81584, Note_on_c, 12, 62, 0
12, 81600, Note_on_c, 12, 71, 76
12, 81824, Note_on_c, 12, 71, 0
12, 81840, Note_on_c, 12, 69, 76
12, 82544, Note_on_c, 12, 69, 0
12, 82560, Note_on_c, 12, 62, 76
12, 82784, Note_on_c, 12, 62, 0
12, 82800, Note_on_c, 12, 67, 76
12, 83024, Note_on_c, 12, 67, 0
12, 83040, Note_on_c, 12, 64, 76
12, 83264, Note_on_c, 12, 64, 0
12, 83280, Note_on_c, 12, 66, 76
12, 83384, Note_on_c, 12, 66, 0
12, 83400, Note_on_c, 12, 64, 76
12, 83504, Note_on_c, 12, 64, 0
12, 83520, Note_on_c, 12, 66, 76
12, 83624, Note_on_c, 12, 66, 0
12, 83640, Note_on_c, 12, 67, 76
12, 83744, Note_on_c, 12, 67, 0
12, 83760, Note_on_c, 12, 69, 76
12, 83984, Note_on_c, 12, 69, 0
12, 84000, Note_on_c, 12, 64, 76
12, 84224, Note_on_c, 12, 64, 0
12, 84240, Note_on_c, 12, 69, 76
12, 84464, Note_on_c, 12, 69, 0
12, 84480, Note_on_c, 12, 61, 76
12, 84704, Note_on_c, 12, 61, 0
12, 84720, Note_on_c, 12, 62, 76
12, 84944, Note_on_c, 12, 62, 0
12, 84960, Note_on_c, 12, 69, 76
12, 85424, Note_on_c, 12, 69, 0
12, 85440, Note_on_c, 12, 69, 76
12, 85664, Note_on_c, 12, 69, 0
12, 85680, Note_on_c, 12, 62, 76
12, 85904, Note_on_c, 12, 62, 0
12, 85920, Note_on_c, 12, 64, 76
12, 86144, Note_on_c, 12, 64, 0
12, 86160, Note_on_c, 12, 64, 76
12, 86864, Note_on_c, 12, 64, 0
12, 86880, Note_on_c, 12, 69, 76
12, 87104, Note_on_c, 12, 69, 0
12, 87120, Note_on_c, 12, 62, 76
12, 87344, Note_on_c, 12, 62, 0
12, 87360, Note_on_c, 12, 71, 76
12, 87584, Note_on_c, 12, 71, 0
12, 87600, Note_on_c, 12, 69, 76
12, 88304, Note_on_c, 12, 69, 0
12, 88320, Note_on_c, 12, 62, 76
12, 88544, Note_on_c, 12, 62, 0
12, 88560, Note_on_c, 12, 67, 76
12, 88784, Note_on_c, 12, 67, 0
12, 88800, Note_on_c, 12, 64, 76
12, 89024, Note_on_c, 12, 64, 0
12, 89040, Note_on_c, 12, 66, 76
12, 89144, Note_on_c, 12, 66, 0
12, 89160, Note_on_c, 12, 64, 76
12, 89264, Note_on_c, 12, 64, 0
12, 89280, Note_on_c, 12, 66, 76
12, 89384, Note_on_c, 12, 66, 0
12, 89400, Note_on_c, 12, 67, 76
12, 89504, Note_on_c, 12, 67, 0
12, 89520, Note_on_c, 12, 69, 76
12, 89744, Note_on_c, 12, 69, 0
12, 89760, Note_on_c, 12, 64, 76
12, 89984, Note_on_c, 12, 64, 0
12, 90000, Note_on_c, 12, 69, 76
12, 90224, Note_on_c, 12, 69, 0
12, 90240, Note_on_c, 12, 61, 76
12, 90464, Note_on_c, 12, 61, 0
12, 90480, Note_on_c, 12, 62, 76
12, 90704, Note_on_c, 12, 62, 0
12, 90720, Note_on_c, 12, 69, 76
12, 91184, Note_on_c, 12, 69, 0
12, 91200, Note_on_c, 12, 69, 76
12, 91424, Note_on_c, 12, 69, 0
12, 91440, Note_on_c, 12, 62, 76
12, 91664, Note_on_c, 12, 62, 0
12, 91680, Note_on_c, 12, 64, 76
12, 91904, Note_on_c, 12, 64, 0
12, 91920, Note_on_c, 12, 64, 76
12, 92624, Note_on_c, 12, 64, 0
12, 92640, Note_on_c, 12, 69, 76
12, 92864, Note_on_c, 12, 69, 0
12, 92880, Note_on_c, 12, 66, 76
12, 93104, Note_on_c, 12, 66, 0
12, 93120, Note_on_c, 12, 64, 76
12, 93344, Note_on_c, 12, 64, 0
12, 93360, Note_on_c, 12, 64, 76
12, 93584, Note_on_c, 12, 64, 0
12, 93600, Note_on_c, 12, 69, 76
12, 94064, Note_on_c, 12, 69, 0
12, 94080, Note_on_c, 12, 69, 76
12, 94304, Note_on_c, 12, 69, 0
12, 94320, Note_on_c, 12, 71, 76
12, 94544, Note_on_c, 12, 71, 0
12, 94560, Note_on_c, 12, 69, 76
12, 94784, Note_on_c, 12, 69, 0
12, 94800, Note_on_c, 12, 69, 76
12, 94904, Note_on_c, 12, 69, 0
12, 94920, Note_on_c, 12, 67, 76
12, 95024, Note_on_c, 12, 67, 0
12, 95040, Note_on_c, 12, 66, 76
12, 95144, Note_on_c, 12, 66, 0
12, 95160, Note_on_c, 12, 67, 76
12, 95264, Note_on_c, 12, 67, 0
12, 95280, Note_on_c, 12, 69, 76
12, 95384, Note_on_c, 12, 69, 0
12, 95400, Note_on_c, 12, 71, 76
12, 95504, Note_on_c, 12, 71, 0
12, 95520, Note_on_c, 12, 72, 76
12, 95744, Note_on_c, 12, 72, 0
12, 95760, Note_on_c, 12, 71, 76
12, 95984, Note_on_c, 12, 71, 0
12, 96000, Note_on_c, 12, 69, 76
12, 96224, Note_on_c, 12, 69, 0
12, 96240, Note_on_c, 12, 67, 76
12, 96464, Note_on_c, 12, 67, 0
12, 96480, Note_on_c, 12, 66, 76
12, 96704, Note_on_c, 12, 66, 0
12, 96720, Note_on_c, 12, 64, 76
12, 97184, Note_on_c, 12, 64, 0
12, 97200, Note_on_c, 12, 63, 76
12, 97424, Note_on_c, 12, 63, 0
12, 97440, Note_on_c, 12, 59, 76
12, 97664, Note_on_c, 12, 59, 0
12, 97680, Note_on_c, 12, 59, 76
12, 98384, Note_on_c, 12, 59, 0
12, 98400, Note_on_c, 12, 71, 76
12, 98504, Note_on_c, 12, 71, 0
12, 98520, Note_on_c, 12, 69, 76
12, 98624, Note_on_c, 12, 69, 0
12, 98640, Note_on_c, 12, 67, 76
12, 98744, Note_on_c, 12, 67, 0
12, 98760, Note_on_c, 12, 69, 76
12, 98864, Note_on_c, 12, 69, 0
12, 98880, Note_on_c, 12, 71, 76
12, 98984, Note_on_c, 12, 71, 0
12, 99000, Note_on_c, 12, 67, 76
12, 99104, Note_on_c, 12, 67, 0
12, 99120, Note_on_c, 12, 64, 76
12, 99344, Note_on_c, 12, 64, 0
12, 99360, Note_on_c, 12, 73, 76
12, 99584, Note_on_c, 12, 73, 0
12, 99600, Note_on_c, 12, 69, 76
12, 99944, Note_on_c, 12, 69, 0
12, 99960, Note_on_c, 12, 67, 76
12, 100064, Note_on_c, 12, 67, 0
12, 100080, Note_on_c, 12, 66, 76
12, 100184, Note_on_c, 12, 66, 0
12, 100200, Note_on_c, 12, 67, 76
12, 100304, Note_on_c, 12, 67, 0
12, 100320, Note_on_c, 12, 69, 76
12, 100424, Note_on_c, 12, 69, 0
12, 100440, Note_on_c, 12, 66, 76
12, 100544, Note_on_c, 12, 66, 0
12, 100560, Note_on_c, 12, 62, 76
12, 100784, Note_on_c, 12, 62, 0
12, 100800, Note_on_c, 12, 71, 76
12, 101024, Note_on_c, 12, 71, 0
12, 101040, Note_on_c, 12, 67, 76
12, 101504, Note_on_c, 12, 67, 0
12, 101520, Note_on_c, 12, 61, 76
12, 101744, Note_on_c, 12, 61, 0
12, 101760, Note_on_c, 12, 64, 76
12, 101984, Note_on_c, 12, 64, 0
12, 102000, Note_on_c, 12, 66, 76
12, 102104, Note_on_c, 12, 66, 0
12, 102120, Note_on_c, 12, 67, 76
12, 102224, Note_on_c, 12, 67, 0
12, 102240, Note_on_c, 12, 69, 76
12, 102464, Note_on_c, 12, 69, 0
12, 102480, Note_on_c, 12, 66, 76
12, 102704, Note_on_c, 12, 66, 0
12, 102720, Note_on_c, 12, 62, 76
12, 102944, Note_on_c, 12, 62, 0
12, 102960, Note_on_c, 12, 64, 76
12, 103184, Note_on_c, 12, 64, 0
12, 103200, Note_on_c, 12, 66, 76
12, 103424, Note_on_c, 12, 66, 0
12, 103440, Note_on_c, 12, 69, 76
12, 103664, Note_on_c, 12, 69, 0
12, 103680, Note_on_c, 12, 64, 76
12, 103904, Note_on_c, 12, 64, 0
12, 103920, Note_on_c, 12, 61, 76
12, 104144, Note_on_c, 12, 61, 0
12, 104160, Note_on_c, 12, 62, 76
12, 104384, Note_on_c, 12, 62, 0
12, 104400, Note_on_c, 12, 62, 76
12, 104624, Note_on_c, 12, 62, 0
12, 104640, Note_on_c, 12, 62, 76
12, 104864, Note_on_c, 12, 62, 0
12, 104880, Note_on_c, 12, 62, 76
12, 105104, Note_on_c, 12, 62, 0
12, 105120, Note_on_c, 12, 62, 76
12, 105344, Note_on_c, 12, 62, 0
12, 105360, Note_on_c, 12, 62, 76
12, 105584, Note_on_c, 12, 62, 0
12, 105600, Note_on_c, 12, 62, 76
12, 105824, Note_on_c, 12, 62, 0
12, 105840, Note_on_c, 12, 69, 76
12, 106064, Note_on_c, 12, 69, 0
12, 106080, Note_on_c, 12, 69, 76
12, 106304, Note_on_c, 12, 69, 0
12, 106320, Note_on_c, 12, 69, 76
12, 106544, Note_on_c, 12, 69, 0
12, 106560, Note_on_c, 12, 69, 76
12, 106784, Note_on_c, 12, 69, 0
12, 106800, Note_on_c, 12, 69, 76
12, 107024, Note_on_c, 12, 69, 0
12, 107040, Note_on_c, 12, 62, 76
12, 107504, Note_on_c, 12, 62, 0
12, 107520, Note_on_c, 12, 71, 76
12, 107744, Note_on_c, 12, 71, 0
12, 107760, Note_on_c, 12, 69, 76
12, 108464, Note_on_c, 12, 69, 0
12, 108480, Note_on_c, 12, 62, 76
12, 108704, Note_on_c, 12, 62, 0
12, 108720, Note_on_c, 12, 67, 76
12, 108944, Note_on_c, 12, 67, 0
12, 108960, Note_on_c, 12, 64, 76
12, 109184, Note_on_c, 12, 64, 0
12, 109200, Note_on_c, 12, 66, 76
12, 109904, Note_on_c, 12, 66, 0
12, 109920, Note_on_c, 12, 69, 76
12, 110144, Note_on_c, 12, 69, 0
12, 110160, Note_on_c, 12, 66, 76
12, 110384, Note_on_c, 12, 66, 0
12, 110400, Note_on_c, 12, 64, 76
12, 110624, Note_on_c, 12, 64, 0
12, 110640, Note_on_c, 12, 64, 76
12, 110864, Note_on_c, 12, 64, 0
12, 110880, Note_on_c, 12, 69, 76
12, 111344, Note_on_c, 12, 69, 0
12, 111360, Note_on_c, 12, 69, 76
12, 111584, Note_on_c, 12, 69, 0
12, 111600, Note_on_c, 12, 71, 76
12, 111824, Note_on_c, 12, 71, 0
12, 111840, Note_on_c, 12, 69, 76
12, 112064, Note_on_c, 12, 69, 0
12, 112080, Note_on_c, 12, 69, 76
12, 112184, Note_on_c, 12, 69, 0
12, 112200, Note_on_c, 12, 67, 76
12, 112304, Note_on_c, 12, 67, 0
12, 112320, Note_on_c, 12, 66, 76
12, 112424, Note_on_c, 12, 66, 0
12, 112440, Note_on_c, 12, 67, 76
12, 112544, Note_on_c, 12, 67, 0
12, 112560, Note_on_c, 12, 69, 76
12, 112664, Note_on_c, 12, 69, 0
12, 112680, Note_on_c, 12, 71, 76
12, 112784, Note_on_c, 12, 71, 0
12, 112800, Note_on_c, 12, 72, 76
12, 113024, Note_on_c, 12, 72, 0
12, 113040, Note_on_c, 12, 71, 76
12, 113264, Note_on_c, 12, 71, 0
12, 113280, Note_on_c, 12, 69, 76
12, 113504, Note_on_c, 12, 69, 0
12, 113520, Note_on_c, 12, 67, 76
12, 113744, Note_on_c, 12, 67, 0
12, 113760, Note_on_c, 12, 66, 76
12, 113984, Note_on_c, 12, 66, 0
12, 114000, Note_on_c, 12, 64, 76
12, 114464, Note_on_c, 12, 64, 0
12, 114480, Note_on_c, 12, 63, 76
12, 114704, Note_on_c, 12, 63, 0
12, 114720, Note_on_c, 12, 59, 76
12, 114944, Note_on_c, 12, 59, 0
12, 114960, Note_on_c, 12, 59, 76
12, 115664, Note_on_c, 12, 59, 0
12, 115680, Note_on_c, 12, 71, 76
12, 115784, Note_on_c, 12, 71, 0
12, 115800, Note_on_c, 12, 69, 76
12, 115904, Note_on_c, 12, 69, 0
12, 115920, Note_on_c, 12, 67, 76
12, 116024, Note_on_c, 12, 67, 0
12, 116040, Note_on_c, 12, 69, 76
12, 116144, Note_on_c, 12, 69, 0
12, 116160, Note_on_c, 12, 71, 76
12, 116264, Note_on_c, 12, 71, 0
12, 116280, Note_on_c, 12, 67, 76
12, 116384, Note_on_c, 12, 67, 0
12, 116400, Note_on_c, 12, 64, 76
12, 116624, Note_on_c, 12, 64, 0
12, 116640, Note_on_c, 12, 73, 76
12, 116864, Note_on_c, 12, 73, 0
12, 116880, Note_on_c, 12, 69, 76
12, 117224, Note_on_c, 12, 69, 0
12, 117240, Note_on_c, 12, 67, 76
12, 117344, Note_on_c, 12, 67, 0
12, 117360, Note_on_c, 12, 66, 76
12, 117464, Note_on_c, 12, 66, 0
12, 117480, Note_on_c, 12, 67, 76
12, 117584, Note_on_c, 12, 67, 0
12, 117600, Note_on_c, 12, 69, 76
12, 117704, Note_on_c, 12, 69, 0
12, 117720, Note_on_c, 12, 66, 76
12, 117824, Note_on_c, 12, 66, 0
12, 117840, Note_on_c, 12, 62, 76
12, 118064, Note_on_c, 12, 62, 0
12, 118080, Note_on_c, 12, 71, 76
12, 118304, Note_on_c, 12, 71, 0
12, 118320, Note_on_c, 12, 67, 76
12, 118784, Note_on_c, 12, 67, 0
12, 118800, Note_on_c, 12, 61, 76
12, 119024, Note_on_c, 12, 61, 0
12, 119040, Note_on_c, 12, 64, 76
12, 119264, Note_on_c, 12, 64, 0
12, 119280, Note_on_c, 12, 66, 76
12, 119384, Note_on_c, 12, 66, 0
12, 119400, Note_on_c, 12, 67, 76
12, 119504, Note_on_c, 12, 67, 0
12, 119520, Note_on_c, 12, 69, 76
12, 119744, Note_on_c, 12, 69, 0
12, 119760, Note_on_c, 12, 66, 76
12, 119984, Note_on_c, 12, 66, 0
12, 120000, Note_on_c, 12, 62, 76
12, 120224, Note_on_c, 12, 62, 0
12, 120240, Note_on_c, 12, 64, 76
12, 120464, Note_on_c, 12, 64, 0
12, 120480, Note_on_c, 12, 66, 76
12, 120704, Note_on_c, 12, 66, 0
12, 120720, Note_on_c, 12, 69, 76
12, 120944, Note_on_c, 12, 69, 0
12, 120960, Note_on_c, 12, 64, 76
12, 121184, Note_on_c, 12, 64, 0
12, 121200, Note_on_c, 12, 61, 76
12, 121424, Note_on_c, 12, 61, 0
12, 121440, Note_on_c, 12, 62, 76
12, 121664, Note_on_c, 12, 62, 0
12, 121680, Note_on_c, 12, 62, 76
12, 121904, Note_on_c, 12, 62, 0
12, 121920, Note_on_c, 12, 62, 76
12, 122144, Note_on_c, 12, 62, 0
12, 122160, Note_on_c, 12, 62, 76
12, 122384, Note_on_c, 12, 62, 0
12, 122400, Note_on_c, 12, 62, 76
12, 122624, Note_on_c, 12, 62, 0
12, 122640, Note_on_c, 12, 62, 76
12, 122864, Note_on_c, 12, 62, 0
12, 122880, Note_on_c, 12, 62, 76
12, 123104, Note_on_c, 12, 62, 0
12, 123120, Note_on_c, 12, 69, 76
12, 123344, Note_on_c, 12, 69, 0
12, 123360, Note_on_c, 12, 69, 76
12, 123584, Note_on_c, 12, 69, 0
12, 123600, Note_on_c, 12, 69, 76
12, 123824, Note_on_c, 12, 69, 0
12, 123840, Note_on_c, 12, 69, 76
12, 124064, Note_on_c, 12, 69, 0
12, 124080, Note_on_c, 12, 69, 76
12, 124304, Note_on_c, 12, 69, 0
12, 124320, Note_on_c, 12, 62, 76
12, 124784, Note_on_c, 12, 62, 0
12, 124800, Note_on_c, 12, 71, 76
12, 125024, Note_on_c, 12, 71, 0
12, 125040, Note_on_c, 12, 69, 76
12, 125744, Note_on_c, 12, 69, 0
12, 125760, Note_on_c, 12, 62, 76
12, 125984, Note_on_c, 12, 62, 0
12, 126000, Note_on_c, 12, 67, 76
12, 126224, Note_on_c, 12, 67, 0
12, 126240, Note_on_c, 12, 64, 76
12, 126464, Note_on_c, 12, 64, 0
12, 126480, Note_on_c, 12, 66, 76
12, 127199, Note_on_c, 12, 66, 0
12, 127199, End_track
13, 0, Start_track
13, 0, Title_t, "Cello"
13, 0, MIDI_port, 0
13, 0, Program_c, 13, 48
13, 0, Control_c, 13, 10, 90
13, 0, Control_c, 13, 11, 127
13, 0, Control_c, 13, 7, 96
13, 0, Note_on_c, 13, 62, 76
13, 104, Note_on_c, 13, 62, 0
13, 120, Note_on_c, 13, 61, 76
13, 224, Note_on_c, 13, 61, 0
13, 240, Note_on_c, 13, 59, 76
13, 344, Note_on_c, 13, 59, 0
13, 360, Note_on_c, 13, 57, 76
13, 464, Note_on_c, 13, 57, 0
13, 480, Note_on_c, 13, 59, 76
13, 584, Note_on_c, 13, 59, 0
13, 600, Note_on_c, 13, 55, 76
13, 704, Note_on_c, 13, 55, 0
13, 720, Note_on_c, 13, 54, 76
13, 1424, Note_on_c, 13, 54, 0
13, 1440, Note_on_c, 13, 55, 76
13, 1664, Note_on_c, 13, 55, 0
13, 1680, Note_on_c, 13, 52, 76
13, 1904, Note_on_c, 13, 52, 0
13, 1920, Note_on_c, 13, 57, 76
13, 2144, Note_on_c, 13, 57, 0
13, 2160, Note_on_c, 13, 54, 76
13, 2384, Note_on_c, 13, 54, 0
13, 2400, Note_on_c, 13, 52, 76
13, 2624, Note_on_c, 13, 52, 0
13, 2640, Note_on_c, 13, 50, 76
13, 2864, Note_on_c, 13, 50, 0
13, 2880, Note_on_c, 13, 49, 76
13, 2984, Note_on_c, 13, 49, 0
13, 3000, Note_on_c, 13, 47, 76
13, 3104, Note_on_c, 13, 47, 0
13, 3120, Note_on_c, 13, 45, 76
13, 3224, Note_on_c, 13, 45, 0
13, 3240, Note_on_c, 13, 43, 76
13, 3344, Note_on_c, 13, 43, 0
13, 3360, Note_on_c, 13, 45, 76
13, 3464, Note_on_c, 13, 45, 0
13, 3480, Note_on_c, 13, 42, 76
13, 3584, Note_on_c, 13, 42, 0
13, 3600, Note_on_c, 13, 47, 76
13, 3824, Note_on_c, 13, 47, 0
13, 3840, Note_on_c, 13, 49, 76
13, 4064, Note_on_c, 13, 49, 0
13, 4080, Note_on_c, 13, 45, 76
13, 4304, Note_on_c, 13, 45, 0
13, 4320, Note_on_c, 13, 50, 76
13, 4544, Note_on_c, 13, 50, 0
13, 4560, Note_on_c, 13, 47, 76
13, 4784, Note_on_c, 13, 47, 0
13, 4800, Note_on_c, 13, 52, 76
13, 5024, Note_on_c, 13, 52, 0
13, 5040, Note_on_c, 13, 45, 76
13, 5264, Note_on_c, 13, 45, 0
13, 5280, Note_on_c, 13, 57, 76
13, 5384, Note_on_c, 13, 57, 0
13, 5400, Note_on_c, 13, 59, 76
13, 5504, Note_on_c, 13, 59, 0
13, 5520, Note_on_c, 13, 61, 76
13, 5624, Note_on_c, 13, 61, 0
13, 5640, Note_on_c, 13, 57, 76
13, 5744, Note_on_c, 13, 57, 0
13, 5760, Note_on_c, 13, 62, 76
13, 5864, Note_on_c, 13, 62, 0
13, 5880, Note_on_c, 13, 61, 76
13, 5984, Note_on_c, 13, 61, 0
13, 6000, Note_on_c, 13, 59, 76
13, 6104, Note_on_c, 13, 59, 0
13, 6120, Note_on_c, 13, 57, 76
13, 6224, Note_on_c, 13, 57, 0
13, 6240, Note_on_c, 13, 59, 76
13, 6344, Note_on_c, 13, 59, 0
13, 6360, Note_on_c, 13, 55, 76
13, 6464, Note_on_c, 13, 55, 0
13, 6480, Note_on_c, 13, 54, 76
13, 7184, Note_on_c, 13, 54, 0
13, 7200, Note_on_c, 13, 55, 76
13, 7424, Note_on_c, 13, 55, 0
13, 7440, Note_on_c, 13, 52, 76
13, 7664, Note_on_c, 13, 52, 0
13, 7680, Note_on_c, 13, 57, 76
13, 7904, Note_on_c, 13, 57, 0
13, 7920, Note_on_c, 13, 54, 76
13, 8144, Note_on_c, 13, 54, 0
13, 8160, Note_on_c, 13, 52, 76
13, 8384, Note_on_c, 13, 52, 0
13, 8400, Note_on_c, 13, 50, 76
13, 8624, Note_on_c, 13, 50, 0
13, 8640, Note_on_c, 13, 49, 76
13, 8744, Note_on_c, 13, 49, 0
13, 8760, Note_on_c, 13, 47, 76
13, 8864, Note_on_c, 13, 47, 0
13, 8880, Note_on_c, 13, 45, 76
13, 8984, Note_on_c, 13, 45, 0
13, 9000, Note_on_c, 13, 43, 76
13, 9104, Note_on_c, 13, 43, 0
13, 9120, Note_on_c, 13, 45, 76
13, 9224, Note_on_c, 13, 45, 0
13, 9240, Note_on_c, 13, 42, 76
13, 9344, Note_on_c, 13, 42, 0
13, 9360, Note_on_c, 13, 47, 76
13, 9584, Note_on_c, 13, 47, 0
13, 9600, Note_on_c, 13, 49, 76
13, 9824, Note_on_c, 13, 49, 0
13, 9840, Note_on_c, 13, 45, 76
13, 10064, Note_on_c, 13, 45, 0
13, 10080, Note_on_c, 13, 50, 76
13, 10304, Note_on_c, 13, 50, 0
13, 10320, Note_on_c, 13, 47, 76
13, 10544, Note_on_c, 13, 47, 0
13, 10560, Note_on_c, 13, 52, 76
13, 10784, Note_on_c, 13, 52, 0
13, 10800, Note_on_c, 13, 45, 76
13, 11024, Note_on_c, 13, 45, 0
13, 11040, Note_on_c, 13, 49, 76
13, 11264, Note_on_c, 13, 49, 0
13, 11280, Note_on_c, 13, 52, 76
13, 11504, Note_on_c, 13, 52, 0
13, 11520, Note_on_c, 13, 57, 76
13, 11984, Note_on_c, 13, 57, 0
13, 12000, Note_on_c, 13, 56, 76
13, 12224, Note_on_c, 13, 56, 0
13, 12240, Note_on_c, 13, 57, 76
13, 12464, Note_on_c, 13, 57, 0
13, 12480, Note_on_c, 13, 55, 76
13, 12584, Note_on_c, 13, 55, 0
13, 12600, Note_on_c, 13, 54, 76
13, 12704, Note_on_c, 13, 54, 0
13, 12720, Note_on_c, 13, 55, 76
13, 12824, Note_on_c, 13, 55, 0
13, 12840, Note_on_c, 13, 52, 76
13, 12944, Note_on_c, 13, 52, 0
13, 12960, Note_on_c, 13, 54, 76
13, 13184, Note_on_c, 13, 54, 0
13, 13200, Note_on_c, 13, 55, 76
13, 13424, Note_on_c, 13, 55, 0
13, 13440, Note_on_c, 13, 57, 76
13, 13664, Note_on_c, 13, 57, 0
13, 13680, Note_on_c, 13, 50, 76
13, 13904, Note_on_c, 13, 50, 0
13, 13920, Note_on_c, 13, 62, 76
13, 14144, Note_on_c, 13, 62, 0
13, 14160, Note_on_c, 13, 57, 76
13, 14384, Note_on_c, 13, 57, 0
13, 14400, Note_on_c, 13, 54, 76
13, 14504, Note_on_c, 13, 54, 0
13, 14520, Note_on_c, 13, 52, 76
13, 14624, Note_on_c, 13, 52, 0
13, 14640, Note_on_c, 13, 51, 76
13, 14744, Note_on_c, 13, 51, 0
13, 14760, Note_on_c, 13, 49, 76
13, 14864, Note_on_c, 13, 49, 0
13, 14880, Note_on_c, 13, 51, 76
13, 14984, Note_on_c, 13, 51, 0
13, 15000, Note_on_c, 13, 47, 76
13, 15104, Note_on_c, 13, 47, 0
13, 15120, Note_on_c, 13, 52, 76
13, 15344, Note_on_c, 13, 52, 0
13, 15360, Note_on_c, 13, 59, 76
13, 15584, Note_on_c, 13, 59, 0
13, 15600, Note_on_c, 13, 60, 76
13, 15824, Note_on_c, 13, 60, 0
13, 15840, Note_on_c, 13, 57, 76
13, 16064, Note_on_c, 13, 57, 0
13, 16080, Note_on_c, 13, 59, 76
13, 16304, Note_on_c, 13, 59, 0
13, 16320, Note_on_c, 13, 47, 76
13, 16544, Note_on_c, 13, 47, 0
13, 16560, Note_on_c, 13, 52, 76
13, 16784, Note_on_c, 13, 52, 0
13, 16800, Note_on_c, 13, 43, 76
13, 17024, Note_on_c, 13, 43, 0
13, 17040, Note_on_c, 13, 47, 76
13, 17264, Note_on_c, 13, 47, 0
13, 17280, Note_on_c, 13, 40, 76
13, 17504, Note_on_c, 13, 40, 0
13, 17520, Note_on_c, 13, 52, 76
13, 17624, Note_on_c, 13, 52, 0
13, 17640, Note_on_c, 13, 54, 76
13, 17744, Note_on_c, 13, 54, 0
13, 17760, Note_on_c, 13, 55, 76
13, 17864, Note_on_c, 13, 55, 0
13, 17880, Note_on_c, 13, 52, 76
13, 17984, Note_on_c, 13, 52, 0
13, 18000, Note_on_c, 13, 57, 76
13, 18104, Note_on_c, 13, 57, 0
13, 18120, Note_on_c, 13, 55, 76
13, 18224, Note_on_c, 13, 55, 0
13, 18240, Note_on_c, 13, 57, 76
13, 18344, Note_on_c, 13, 57, 0
13, 18360, Note_on_c, 13, 59, 76
13, 18464, Note_on_c, 13, 59, 0
13, 18480, Note_on_c, 13, 61, 76
13, 18584, Note_on_c, 13, 61, 0
13, 18600, Note_on_c, 13, 57, 76
13, 18704, Note_on_c, 13, 57, 0
13, 18720, Note_on_c, 13, 62, 76
13, 18944, Note_on_c, 13, 62, 0
13, 18960, Note_on_c, 13, 50, 76
13, 19064, Note_on_c, 13, 50, 0
13, 19080, Note_on_c, 13, 52, 76
13, 19184, Note_on_c, 13, 52, 0
13, 19200, Note_on_c, 13, 54, 76
13, 19304, Note_on_c, 13, 54, 0
13, 19320, Note_on_c, 13, 50, 76
13, 19424, Note_on_c, 13, 50, 0
13, 19440, Note_on_c, 13, 55, 76
13, 19544, Note_on_c, 13, 55, 0
13, 19560, Note_on_c, 13, 54, 76
13, 19664, Note_on_c, 13, 54, 0
13, 19680, Note_on_c, 13, 55, 76
13, 19784, Note_on_c, 13, 55, 0
13, 19800, Note_on_c, 13, 57, 76
13, 19904, Note_on_c, 13, 57, 0
13, 19920, Note_on_c, 13, 59, 76
13, 20024, Note_on_c, 13, 59, 0
13, 20040, Note_on_c, 13, 55, 76
13, 20144, Note_on_c, 13, 55, 0
13, 20160, Note_on_c, 13, 57, 76
13, 20384, Note_on_c, 13, 57, 0
13, 20400, Note_on_c, 13, 55, 76
13, 20504, Note_on_c, 13, 55, 0
13, 20520, Note_on_c, 13, 54, 76
13, 20624, Note_on_c, 13, 54, 0
13, 20640, Note_on_c, 13, 55, 76
13, 20744, Note_on_c, 13, 55, 0
13, 20760, Note_on_c, 13, 52, 76
13, 20864, Note_on_c, 13, 52, 0
13, 20880, Note_on_c, 13, 54, 76
13, 20984, Note_on_c, 13, 54, 0
13, 21000, Note_on_c, 13, 52, 76
13, 21104, Note_on_c, 13, 52, 0
13, 21120, Note_on_c, 13, 50, 76
13, 21224, Note_on_c, 13, 50, 0
13, 21240, Note_on_c, 13, 52, 76
13, 21344, Note_on_c, 13, 52, 0
13, 21360, Note_on_c, 13, 54, 76
13, 21464, Note_on_c, 13, 54, 0
13, 21480, Note_on_c, 13, 50, 76
13, 21584, Note_on_c, 13, 50, 0
13, 21600, Note_on_c, 13, 55, 76
13, 21824, Note_on_c, 13, 55, 0
13, 21840, Note_on_c, 13, 52, 76
13, 22064, Note_on_c, 13, 52, 0
13, 22080, Note_on_c, 13, 50, 76
13, 22304, Note_on_c, 13, 50, 0
13, 22320, Note_on_c, 13, 57, 76
13, 22784, Note_on_c, 13, 57, 0
13, 22800, Note_on_c, 13, 55, 76
13, 23024, Note_on_c, 13, 55, 0
13, 23040, Note_on_c, 13, 54, 76
13, 23144, Note_on_c, 13, 54, 0
13, 23160, Note_on_c, 13, 52, 76
13, 23264, Note_on_c, 13, 52, 0
13, 23280, Note_on_c, 13, 54, 76
13, 23384, Note_on_c, 13, 54, 0
13, 23400, Note_on_c, 13, 55, 76
13, 23504, Note_on_c, 13, 55, 0
13, 23520, Note_on_c, 13, 57, 76
13, 23624, Note_on_c, 13, 57, 0
13, 23640, Note_on_c, 13, 59, 76
13, 23744, Note_on_c, 13, 59, 0
13, 23760, Note_on_c, 13, 60, 76
13, 23984, Note_on_c, 13, 60, 0
13, 24000, Note_on_c, 13, 54, 76
13, 24104, Note_on_c, 13, 54, 0
13, 24120, Note_on_c, 13, 52, 76
13, 24224, Note_on_c, 13, 52, 0
13, 24240, Note_on_c, 13, 54, 76
13, 24344, Note_on_c, 13, 54, 0
13, 24360, Note_on_c, 13, 50, 76
13, 24464, Note_on_c, 13, 50, 0
13, 24480, Note_on_c, 13, 55, 76
13, 24584, Note_on_c, 13, 55, 0
13, 24600, Note_on_c, 13, 57, 76
13, 24704, Note_on_c, 13, 57, 0
13, 24720, Note_on_c, 13, 55, 76
13, 24824, Note_on_c, 13, 55, 0
13, 24840, Note_on_c, 13, 54, 76
13, 24944, Note_on_c, 13, 54, 0
13, 24960, Note_on_c, 13, 52, 76
13, 25064, Note_on_c, 13, 52, 0
13, 25080, Note_on_c, 13, 50, 76
13, 25184, Note_on_c, 13, 50, 0
13, 25200, Note_on_c, 13, 49, 76
13, 25304, Note_on_c, 13, 49, 0
13, 25320, Note_on_c, 13, 50, 76
13, 25424, Note_on_c, 13, 50, 0
13, 25440, Note_on_c, 13, 49, 76
13, 25544, Note_on_c, 13, 49, 0
13, 25560, Note_on_c, 13, 47, 76
13, 25664, Note_on_c, 13, 47, 0
13, 25680, Note_on_c, 13, 49, 76
13, 25784, Note_on_c, 13, 49, 0
13, 25800, Note_on_c, 13, 45, 76
13, 25904, Note_on_c, 13, 45, 0
13, 25920, Note_on_c, 13, 50, 76
13, 26024, Note_on_c, 13, 50, 0
13, 26040, Note_on_c, 13, 49, 76
13, 26144, Note_on_c, 13, 49, 0
13, 26160, Note_on_c, 13, 47, 76
13, 26264, Note_on_c, 13, 47, 0
13, 26280, Note_on_c, 13, 45, 76
13, 26384, Note_on_c, 13, 45, 0
13, 26400, Note_on_c, 13, 47, 76
13, 26504, Note_on_c, 13, 47, 0
13, 26520, Note_on_c, 13, 43, 76
13, 26624, Note_on_c, 13, 43, 0
13, 26640, Note_on_c, 13, 42, 76
13, 27344, Note_on_c, 13, 42, 0
13, 27360, Note_on_c, 13, 43, 76
13, 27584, Note_on_c, 13, 43, 0
13, 27600, Note_on_c, 13, 40, 76
13, 27824, Note_on_c, 13, 40, 0
13, 27840, Note_on_c, 13, 45, 76
13, 28064, Note_on_c, 13, 45, 0
13, 28080, Note_on_c, 13, 38, 76
13, 28784, Note_on_c, 13, 38, 0
13, 28800, Note_on_c, 13, 57, 76
13, 29264, Note_on_c, 13, 57, 0
13, 29280, Note_on_c, 13, 56, 76
13, 29504, Note_on_c, 13, 56, 0
13, 29520, Note_on_c, 13, 57, 76
13, 29744, Note_on_c, 13, 57, 0
13, 29760, Note_on_c, 13, 55, 76
13, 29864, Note_on_c, 13, 55, 0
13, 29880, Note_on_c, 13, 54, 76
13, 29984, Note_on_c, 13, 54, 0
13, 30000, Note_on_c, 13, 55, 76
13, 30104, Note_on_c, 13, 55, 0
13, 30120, Note_on_c, 13, 52, 76
13, 30224, Note_on_c, 13, 52, 0
13, 30240, Note_on_c, 13, 54, 76
13, 30464, Note_on_c, 13, 54, 0
13, 30480, Note_on_c, 13, 55, 76
13, 30704, Note_on_c, 13, 55, 0
13, 30720, Note_on_c, 13, 57, 76
13, 30944, Note_on_c, 13, 57, 0
13, 30960, Note_on_c, 13, 50, 76
13, 31184, Note_on_c, 13, 50, 0
13, 31200, Note_on_c, 13, 62, 76
13, 31424, Note_on_c, 13, 62, 0
13, 31440, Note_on_c, 13, 57, 76
13, 31664, Note_on_c, 13, 57, 0
13, 31680, Note_on_c, 13, 54, 76
13, 31784, Note_on_c, 13, 54, 0
13, 31800, Note_on_c, 13, 52, 76
13, 31904, Note_on_c, 13, 52, 0
13, 31920, Note_on_c, 13, 51, 76
13, 32024, Note_on_c, 13, 51, 0
13, 32040, Note_on_c, 13, 49, 76
13, 32144, Note_on_c, 13, 49, 0
13, 32160, Note_on_c, 13, 51, 76
13, 32264, Note_on_c, 13, 51, 0
13, 32280, Note_on_c, 13, 47, 76
13, 32384, Note_on_c, 13, 47, 0
13, 32400, Note_on_c, 13, 52, 76
13, 32624, Note_on_c, 13, 52, 0
13, 32640, Note_on_c, 13, 59, 76
13, 32864, Note_on_c, 13, 59, 0
13, 32880, Note_on_c, 13, 60, 76
13, 33104, Note_on_c, 13, 60, 0
13, 33120, Note_on_c, 13, 57, 76
13, 33344, Note_on_c, 13, 57, 0
13, 33360, Note_on_c, 13, 59, 76
13, 33584, Note_on_c, 13, 59, 0
13, 33600, Note_on_c, 13, 47, 76
13, 33824, Note_on_c, 13, 47, 0
13, 33840, Note_on_c, 13, 52, 76
13, 34064, Note_on_c, 13, 52, 0
13, 34080, Note_on_c, 13, 43, 76
13, 34304, Note_on_c, 13, 43, 0
13, 34320, Note_on_c, 13, 47, 76
13, 34544, Note_on_c, 13, 47, 0
13, 34560, Note_on_c, 13, 40, 76
13, 34784, Note_on_c, 13, 40, 0
13, 34800, Note_on_c, 13, 52, 76
13, 34904, Note_on_c, 13, 52, 0
13, 34920, Note_on_c, 13, 54, 76
13, 35024, Note_on_c, 13, 54, 0
13, 35040, Note_on_c, 13, 55, 76
13, 35144, Note_on_c, 13, 55, 0
13, 35160, Note_on_c, 13, 52, 76
13, 35264, Note_on_c, 13, 52, 0
13, 35280, Note_on_c, 13, 57, 76
13, 35384, Note_on_c, 13, 57, 0
13, 35400, Note_on_c, 13, 55, 76
13, 35504, Note_on_c, 13, 55, 0
13, 35520, Note_on_c, 13, 57, 76
13, 35624, Note_on_c, 13, 57, 0
13, 35640, Note_on_c, 13, 59, 76
13, 35744, Note_on_c, 13, 59, 0
13, 35760, Note_on_c, 13, 61, 76
13, 35864, Note_on_c, 13, 61, 0
13, 35880, Note_on_c, 13, 57, 76
13, 35984, Note_on_c, 13, 57, 0
13, 36000, Note_on_c, 13, 62, 76
13, 36224, Note_on_c, 13, 62, 0
13, 36240, Note_on_c, 13, 50, 76
13, 36344, Note_on_c, 13, 50, 0
13, 36360, Note_on_c, 13, 52, 76
13, 36464, Note_on_c, 13, 52, 0
13, 36480, Note_on_c, 13, 54, 76
13, 36584, Note_on_c, 13, 54, 0
13, 36600, Note_on_c, 13, 50, 76
13, 36704, Note_on_c, 13, 50, 0
13, 36720, Note_on_c, 13, 55, 76
13, 36824, Note_on_c, 13, 55, 0
13, 36840, Note_on_c, 13, 54, 76
13, 36944, Note_on_c, 13, 54, 0
13, 36960, Note_on_c, 13, 55, 76
13, 37064, Note_on_c, 13, 55, 0
13, 37080, Note_on_c, 13, 57, 76
13, 37184, Note_on_c, 13, 57, 0
13, 37200, Note_on_c, 13, 59, 76
13, 37304, Note_on_c, 13, 59, 0
13, 37320, Note_on_c, 13, 55, 76
13, 37424, Note_on_c, 13, 55, 0
13, 37440, Note_on_c, 13, 57, 76
13, 37664, Note_on_c, 13, 57, 0
13, 37680, Note_on_c, 13, 55, 76
13, 37784, Note_on_c, 13, 55, 0
13, 37800, Note_on_c, 13, 54, 76
13, 37904, Note_on_c, 13, 54, 0
13, 37920, Note_on_c, 13, 55, 76
13, 38024, Note_on_c, 13, 55, 0
13, 38040, Note_on_c, 13, 52, 76
13, 38144, Note_on_c, 13, 52, 0
13, 38160, Note_on_c, 13, 54, 76
13, 38264, Note_on_c, 13, 54, 0
13, 38280, Note_on_c, 13, 52, 76
13, 38384, Note_on_c, 13, 52, 0
13, 38400, Note_on_c, 13, 50, 76
13, 38504, Note_on_c, 13, 50, 0
13, 38520, Note_on_c, 13, 52, 76
13, 38624, Note_on_c, 13, 52, 0
13, 38640, Note_on_c, 13, 54, 76
13, 38744, Note_on_c, 13, 54, 0
13, 38760, Note_on_c, 13, 50, 76
13, 38864, Note_on_c, 13, 50, 0
13, 38880, Note_on_c, 13, 55, 76
13, 39104, Note_on_c, 13, 55, 0
13, 39120, Note_on_c, 13, 52, 76
13, 39344, Note_on_c, 13, 52, 0
13, 39360, Note_on_c, 13, 50, 76
13, 39584, Note_on_c, 13, 50, 0
13, 39600, Note_on_c, 13, 57, 76
13, 40064, Note_on_c, 13, 57, 0
13, 40080, Note_on_c, 13, 55, 76
13, 40304, Note_on_c, 13, 55, 0
13, 40320, Note_on_c, 13, 54, 76
13, 40424, Note_on_c, 13, 54, 0
13, 40440, Note_on_c, 13, 52, 76
13, 40544, Note_on_c, 13, 52, 0
13, 40560, Note_on_c, 13, 54, 76
13, 40664, Note_on_c, 13, 54, 0
13, 40680, Note_on_c, 13, 55, 76
13, 40784, Note_on_c, 13, 55, 0
13, 40800, Note_on_c, 13, 57, 76
13, 40904, Note_on_c, 13, 57, 0
13, 40920, Note_on_c, 13, 59, 76
13, 41024, Note_on_c, 13, 59, 0
13, 41040, Note_on_c, 13, 60, 76
13, 41264, Note_on_c, 13, 60, 0
13, 41280, Note_on_c, 13, 54, 76
13, 41384, Note_on_c, 13, 54, 0
13, 41400, Note_on_c, 13, 52, 76
13, 41504, Note_on_c, 13, 52, 0
13, 41520, Note_on_c, 13, 54, 76
13, 41624, Note_on_c, 13, 54, 0
13, 41640, Note_on_c, 13, 50, 76
13, 41744, Note_on_c, 13, 50, 0
13, 41760, Note_on_c, 13, 55, 76
13, 41864, Note_on_c, 13, 55, 0
13, 41880, Note_on_c, 13, 57, 76
13, 41984, Note_on_c, 13, 57, 0
13, 42000, Note_on_c, 13, 55, 76
13, 42104, Note_on_c, 13, 55, 0
13, 42120, Note_on_c, 13, 54, 76
13, 42224, Note_on_c, 13, 54, 0
13, 42240, Note_on_c, 13, 52, 76
13, 42344, Note_on_c, 13, 52, 0
13, 42360, Note_on_c, 13, 50, 76
13, 42464, Note_on_c, 13, 50, 0
13, 42480, Note_on_c, 13, 49, 76
13, 42584, Note_on_c, 13, 49, 0
13, 42600, Note_on_c, 13, 50, 76
13, 42704, Note_on_c, 13, 50, 0
13, 42720, Note_on_c, 13, 49, 76
13, 42824, Note_on_c, 13, 49, 0
13, 42840, Note_on_c, 13, 47, 76
13, 42944, Note_on_c, 13, 47, 0
13, 42960, Note_on_c, 13, 49, 76
13, 43064, Note_on_c, 13, 49, 0
13, 43080, Note_on_c, 13, 45, 76
13, 43184, Note_on_c, 13, 45, 0
13, 43200, Note_on_c, 13, 50, 76
13, 43304, Note_on_c, 13, 50, 0
13, 43320, Note_on_c, 13, 49, 76
13, 43424, Note_on_c, 13, 49, 0
13, 43440, Note_on_c, 13, 47, 76
13, 43544, Note_on_c, 13, 47, 0
13, 43560, Note_on_c, 13, 45, 76
13, 43664, Note_on_c, 13, 45, 0
13, 43680, Note_on_c, 13, 47, 76
13, 43784, Note_on_c, 13, 47, 0
13, 43800, Note_on_c, 13, 43, 76
13, 43904, Note_on_c, 13, 43, 0
13, 43920, Note_on_c, 13, 42, 76
13, 44624, Note_on_c, 13, 42, 0
13, 44640, Note_on_c, 13, 43, 76
13, 44864, Note_on_c, 13, 43, 0
13, 44880, Note_on_c, 13, 40, 76
13, 45104, Note_on_c, 13, 40, 0
13, 45120, Note_on_c, 13, 45, 76
13, 45344, Note_on_c, 13, 45, 0
13, 45360, Note_on_c, 13, 38, 76
13, 46079, Note_on_c, 13, 38, 0
13, 46320, Note_on_c, 13, 50, 76
13, 46439, Note_on_c, 13, 50, 0
13, 46440, Note_on_c, 13, 52, 76
13, 46559, Note_on_c, 13, 52, 0
13, 46560, Note_on_c, 13, 54, 76
13, 46679, Note_on_c, 13, 54, 0
13, 46680, Note_on_c, 13, 55, 76
13, 46784, Note_on_c, 13, 55, 0
13, 46800, Note_on_c, 13, 57, 76
13, 47024, Note_on_c, 13, 57, 0
13, 47040, Note_on_c, 13, 57, 76
13, 47744, Note_on_c, 13, 57, 0
13, 47760, Note_on_c, 13, 50, 76
13, 47879, Note_on_c, 13, 50, 0
13, 47880, Note_on_c, 13, 52, 76
13, 47999, Note_on_c, 13, 52, 0
13, 48000, Note_on_c, 13, 54, 76
13, 48119, Note_on_c, 13, 54, 0
13, 48120, Note_on_c, 13, 55, 76
13, 48224, Note_on_c, 13, 55, 0
13, 48240, Note_on_c, 13, 57, 76
13, 48464, Note_on_c, 13, 57, 0
13, 48480, Note_on_c, 13, 57, 76
13, 49184, Note_on_c, 13, 57, 0
13, 49200, Note_on_c, 13, 55, 76
13, 49319, Note_on_c, 13, 55, 0
13, 49320, Note_on_c, 13, 54, 76
13, 49424, Note_on_c, 13, 54, 0
13, 49440, Note_on_c, 13, 54, 76
13, 49559, Note_on_c, 13, 54, 0
13, 49560, Note_on_c, 13, 52, 76
13, 49664, Note_on_c, 13, 52, 0
13, 49680, Note_on_c, 13, 52, 76
13, 49799, Note_on_c, 13, 52, 0
13, 49800, Note_on_c, 13, 54, 76
13, 49904, Note_on_c, 13, 54, 0
13, 49920, Note_on_c, 13, 54, 76
13, 50039, Note_on_c, 13, 54, 0
13, 50040, Note_on_c, 13, 56, 76
13, 50144, Note_on_c, 13, 56, 0
13, 50160, Note_on_c, 13, 56, 76
13, 50279, Note_on_c, 13, 56, 0
13, 50280, Note_on_c, 13, 57, 76
13, 50384, Note_on_c, 13, 57, 0
13, 50400, Note_on_c, 13, 57, 76
13, 50429, Note_on_c, 13, 57, 0
13, 50430, Note_on_c, 13, 59, 76
13, 50459, Note_on_c, 13, 59, 0
13, 50460, Note_on_c, 13, 57, 76
13, 50489, Note_on_c, 13, 57, 0
13, 50490, Note_on_c, 13, 59, 76
13, 50519, Note_on_c, 13, 59, 0
13, 50520, Note_on_c, 13, 57, 76
13, 50549, Note_on_c, 13, 57, 0
13, 50550, Note_on_c, 13, 59, 76
13, 50579, Note_on_c, 13, 59, 0
13, 50580, Note_on_c, 13, 56, 76
13, 50609, Note_on_c, 13, 56, 0
13, 50610, Note_on_c, 13, 57, 76
13, 50639, Note_on_c, 13, 57, 0
13, 50640, Note_on_c, 13, 49, 76
13, 50744, Note_on_c, 13, 49, 0
13, 50760, Note_on_c, 13, 47, 76
13, 50864, Note_on_c, 13, 47, 0
13, 50880, Note_on_c, 13, 49, 76
13, 50984, Note_on_c, 13, 49, 0
13, 51000, Note_on_c, 13, 50, 76
13, 51104, Note_on_c, 13, 50, 0
13, 51120, Note_on_c, 13, 52, 76
13, 51344, Note_on_c, 13, 52, 0
13, 51360, Note_on_c, 13, 45, 76
13, 52064, Note_on_c, 13, 45, 0
13, 52080, Note_on_c, 13, 50, 76
13, 52199, Note_on_c, 13, 50, 0
13, 52200, Note_on_c, 13, 52, 76
13, 52319, Note_on_c, 13, 52, 0
13, 52320, Note_on_c, 13, 54, 76
13, 52439, Note_on_c, 13, 54, 0
13, 52440, Note_on_c, 13, 55, 76
13, 52544, Note_on_c, 13, 55, 0
13, 52560, Note_on_c, 13, 57, 76
13, 52784, Note_on_c, 13, 57, 0
13, 52800, Note_on_c, 13, 57, 76
13, 53504, Note_on_c, 13, 57, 0
13, 53520, Note_on_c, 13, 50, 76
13, 53639, Note_on_c, 13, 50, 0
13, 53640, Note_on_c, 13, 52, 76
13, 53759, Note_on_c, 13, 52, 0
13, 53760, Note_on_c, 13, 54, 76
13, 53879, Note_on_c, 13, 54, 0
13, 53880, Note_on_c, 13, 55, 76
13, 53984, Note_on_c, 13, 55, 0
13, 54000, Note_on_c, 13, 57, 76
13, 54224, Note_on_c, 13, 57, 0
13, 54240, Note_on_c, 13, 57, 76
13, 54944, Note_on_c, 13, 57, 0
13, 54960, Note_on_c, 13, 55, 76
13, 55079, Note_on_c, 13, 55, 0
13, 55080, Note_on_c, 13, 54, 76
13, 55184, Note_on_c, 13, 54, 0
13, 55200, Note_on_c, 13, 54, 76
13, 55319, Note_on_c, 13, 54, 0
13, 55320, Note_on_c, 13, 52, 76
13, 55424, Note_on_c, 13, 52, 0
13, 55440, Note_on_c, 13, 52, 76
13, 55559, Note_on_c, 13, 52, 0
13, 55560, Note_on_c, 13, 54, 76
13, 55664, Note_on_c, 13, 54, 0
13, 55680, Note_on_c, 13, 54, 76
13, 55799, Note_on_c, 13, 54, 0
13, 55800, Note_on_c, 13, 56, 76
13, 55904, Note_on_c, 13, 56, 0
13, 55920, Note_on_c, 13, 56, 76
13, 56039, Note_on_c, 13, 56, 0
13, 56040, Note_on_c, 13, 57, 76
13, 56144, Note_on_c, 13, 57, 0
13, 56160, Note_on_c, 13, 57, 76
13, 56189, Note_on_c, 13, 57, 0
13, 56190, Note_on_c, 13, 59, 76
13, 56219, Note_on_c, 13, 59, 0
13, 56220, Note_on_c, 13, 57, 76
13, 56249, Note_on_c, 13, 57, 0
13, 56250, Note_on_c, 13, 59, 76
13, 56279, Note_on_c, 13, 59, 0
13, 56280, Note_on_c, 13, 57, 76
13, 56309, Note_on_c, 13, 57, 0
13, 56310, Note_on_c, 13, 59, 76
13, 56339, Note_on_c, 13, 59, 0
13, 56340, Note_on_c, 13, 56, 76
13, 56369, Note_on_c, 13, 56, 0
13, 56370, Note_on_c, 13, 57, 76
13, 56399, Note_on_c, 13, 57, 0
13, 56400, Note_on_c, 13, 49, 76
13, 56504, Note_on_c, 13, 49, 0
13, 56520, Note_on_c, 13, 47, 76
13, 56624, Note_on_c, 13, 47, 0
13, 56640, Note_on_c, 13, 49, 76
13, 56744, Note_on_c, 13, 49, 0
13, 56760, Note_on_c, 13, 50, 76
13, 56864, Note_on_c, 13, 50, 0
13, 56880, Note_on_c, 13, 52, 76
13, 57104, Note_on_c, 13, 52, 0
13, 57120, Note_on_c, 13, 45, 76
13, 57824, Note_on_c, 13, 45, 0
13, 57840, Note_on_c, 13, 57, 76
13, 58064, Note_on_c, 13, 57, 0
13, 58080, Note_on_c, 13, 59, 76
13, 58184, Note_on_c, 13, 59, 0
13, 58200, Note_on_c, 13, 57, 76
13, 58304, Note_on_c, 13, 57, 0
13, 58320, Note_on_c, 13, 55, 76
13, 58424, Note_on_c, 13, 55, 0
13, 58440, Note_on_c, 13, 57, 76
13, 58544, Note_on_c, 13, 57, 0
13, 58560, Note_on_c, 13, 54, 76
13, 59264, Note_on_c, 13, 54, 0
13, 59280, Note_on_c, 13, 55, 76
13, 59384, Note_on_c, 13, 55, 0
13, 59400, Note_on_c, 13, 54, 76
13, 59504, Note_on_c, 13, 54, 0
13, 59520, Note_on_c, 13, 52, 76
13, 59624, Note_on_c, 13, 52, 0
13, 59640, Note_on_c, 13, 50, 76
13, 59744, Note_on_c, 13, 50, 0
13, 59760, Note_on_c, 13, 49, 76
13, 59864, Note_on_c, 13, 49, 0
13, 59880, Note_on_c, 13, 47, 76
13, 59984, Note_on_c, 13, 47, 0
13, 60000, Note_on_c, 13, 46, 76
13, 60104, Note_on_c, 13, 46, 0
13, 60120, Note_on_c, 13, 47, 76
13, 60224, Note_on_c, 13, 47, 0
13, 60240, Note_on_c, 13, 49, 76
13, 60464, Note_on_c, 13, 49, 0
13, 60480, Note_on_c, 13, 42, 76
13, 60704, Note_on_c, 13, 42, 0
13, 60720, Note_on_c, 13, 47, 76
13, 60839, Note_on_c, 13, 47, 0
13, 60840, Note_on_c, 13, 49, 76
13, 60944, Note_on_c, 13, 49, 0
13, 60960, Note_on_c, 13, 50, 76
13, 61079, Note_on_c, 13, 50, 0
13, 61080, Note_on_c, 13, 52, 76
13, 61184, Note_on_c, 13, 52, 0
13, 61200, Note_on_c, 13, 54, 76
13, 61424, Note_on_c, 13, 54, 0
13, 61440, Note_on_c, 13, 54, 76
13, 62144, Note_on_c, 13, 54, 0
13, 62160, Note_on_c, 13, 50, 76
13, 62279, Note_on_c, 13, 50, 0
13, 62280, Note_on_c, 13, 49, 76
13, 62384, Note_on_c, 13, 49, 0
13, 62400, Note_on_c, 13, 50, 76
13, 62519, Note_on_c, 13, 50, 0
13, 62520, Note_on_c, 13, 52, 76
13, 62624, Note_on_c, 13, 52, 0
13, 62640, Note_on_c, 13, 54, 76
13, 62864, Note_on_c, 13, 54, 0
13, 62880, Note_on_c, 13, 47, 76
13, 63224, Note_on_c, 13, 47, 0
13, 63240, Note_on_c, 13, 45, 76
13, 63344, Note_on_c, 13, 45, 0
13, 63360, Note_on_c, 13, 47, 76
13, 63464, Note_on_c, 13, 47, 0
13, 63480, Note_on_c, 13, 49, 76
13, 63584, Note_on_c, 13, 49, 0
13, 63600, Note_on_c, 13, 50, 76
13, 63719, Note_on_c, 13, 50, 0
13, 63720, Note_on_c, 13, 52, 76
13, 63824, Note_on_c, 13, 52, 0
13, 63840, Note_on_c, 13, 54, 76
13, 63959, Note_on_c, 13, 54, 0
13, 63960, Note_on_c, 13, 55, 76
13, 64064, Note_on_c, 13, 55, 0
13, 64080, Note_on_c, 13, 57, 76
13, 64304, Note_on_c, 13, 57, 0
13, 64320, Note_on_c, 13, 57, 76
13, 65024, Note_on_c, 13, 57, 0
13, 65040, Note_on_c, 13, 50, 76
13, 65159, Note_on_c, 13, 50, 0
13, 65160, Note_on_c, 13, 52, 76
13, 65264, Note_on_c, 13, 52, 0
13, 65280, Note_on_c, 13, 54, 76
13, 65399, Note_on_c, 13, 54, 0
13, 65400, Note_on_c, 13, 55, 76
13, 65504, Note_on_c, 13, 55, 0
13, 65520, Note_on_c, 13, 57, 76
13, 65744, Note_on_c, 13, 57, 0
13, 65760, Note_on_c, 13, 57, 76
13, 66464, Note_on_c, 13, 57, 0
13, 66480, Note_on_c, 13, 48, 76
13, 66599, Note_on_c, 13, 48, 0
13, 66600, Note_on_c, 13, 47, 76
13, 66704, Note_on_c, 13, 47, 0
13, 66720, Note_on_c, 13, 47, 76
13, 66839, Note_on_c, 13, 47, 0
13, 66840, Note_on_c, 13, 45, 76
13, 66944, Note_on_c, 13, 45, 0
13, 66960, Note_on_c, 13, 45, 76
13, 67079, Note_on_c, 13, 45, 0
13, 67080, Note_on_c, 13, 47, 76
13, 67184, Note_on_c, 13, 47, 0
13, 67200, Note_on_c, 13, 47, 76
13, 67304, Note_on_c, 13, 47, 0
13, 67320, Note_on_c, 13, 49, 76
13, 67424, Note_on_c, 13, 49, 0
13, 67440, Note_on_c, 13, 49, 76
13, 67469, Note_on_c, 13, 49, 0
13, 67470, Note_on_c, 13, 50, 76
13, 67499, Note_on_c, 13, 50, 0
13, 67500, Note_on_c, 13, 49, 76
13, 67529, Note_on_c, 13, 49, 0
13, 67530, Note_on_c, 13, 50, 76
13, 67559, Note_on_c, 13, 50, 0
13, 67560, Note_on_c, 13, 47, 76
13, 67611, Note_on_c, 13, 47, 0
13, 67620, Note_on_c, 13, 49, 76
13, 67671, Note_on_c, 13, 49, 0
13, 67680, Note_on_c, 13, 50, 76
13, 67904, Note_on_c, 13, 50, 0
13, 67920, Note_on_c, 13, 42, 76
13, 68024, Note_on_c, 13, 42, 0
13, 68040, Note_on_c, 13, 40, 76
13, 68144, Note_on_c, 13, 40, 0
13, 68160, Note_on_c, 13, 42, 76
13, 68264, Note_on_c, 13, 42, 0
13, 68280, Note_on_c, 13, 43, 76
13, 68384, Note_on_c, 13, 43, 0
13, 68400, Note_on_c, 13, 45, 76
13, 68624, Note_on_c, 13, 45, 0
13, 68640, Note_on_c, 13, 38, 76
13, 69344, Note_on_c, 13, 38, 0
13, 69360, Note_on_c, 13, 57, 76
13, 69584, Note_on_c, 13, 57, 0
13, 69600, Note_on_c, 13, 59, 76
13, 69704, Note_on_c, 13, 59, 0
13, 69720, Note_on_c, 13, 57, 76
13, 69824, Note_on_c, 13, 57, 0
13, 69840, Note_on_c, 13, 55, 76
13, 69944, Note_on_c, 13, 55, 0
13, 69960, Note_on_c, 13, 57, 76
13, 70064, Note_on_c, 13, 57, 0
13, 70080, Note_on_c, 13, 54, 76
13, 70784, Note_on_c, 13, 54, 0
13, 70800, Note_on_c, 13, 55, 76
13, 70904, Note_on_c, 13, 55, 0
13, 70920, Note_on_c, 13, 54, 76
13, 71024, Note_on_c, 13, 54, 0
13, 71040, Note_on_c, 13, 52, 76
13, 71144, Note_on_c, 13, 52, 0
13, 71160, Note_on_c, 13, 50, 76
13, 71264, Note_on_c, 13, 50, 0
13, 71280, Note_on_c, 13, 49, 76
13, 71384, Note_on_c, 13, 49, 0
13, 71400, Note_on_c, 13, 47, 76
13, 71504, Note_on_c, 13, 47, 0
13, 71520, Note_on_c, 13, 46, 76
13, 71624, Note_on_c, 13, 46, 0
13, 71640, Note_on_c, 13, 47, 76
13, 71744, Note_on_c, 13, 47, 0
13, 71760, Note_on_c, 13, 49, 76
13, 71984, Note_on_c, 13, 49, 0
13, 72000, Note_on_c, 13, 42, 76
13, 72224, Note_on_c, 13, 42, 0
13, 72240, Note_on_c, 13, 47, 76
13, 72359, Note_on_c, 13, 47, 0
13, 72360, Note_on_c, 13, 49, 76
13, 72464, Note_on_c, 13, 49, 0
13, 72480, Note_on_c, 13, 50, 76
13, 72599, Note_on_c, 13, 50, 0
13, 72600, Note_on_c, 13, 52, 76
13, 72704, Note_on_c, 13, 52, 0
13, 72720, Note_on_c, 13, 54, 76
13, 72944, Note_on_c, 13, 54, 0
13, 72960, Note_on_c, 13, 54, 76
13, 73664, Note_on_c, 13, 54, 0
13, 73680, Note_on_c, 13, 50, 76
13, 73799, Note_on_c, 13, 50, 0
13, 73800, Note_on_c, 13, 49, 76
13, 73904, Note_on_c, 13, 49, 0
13, 73920, Note_on_c, 13, 50, 76
13, 74039, Note_on_c, 13, 50, 0
13, 74040, Note_on_c, 13, 52, 76
13, 74144, Note_on_c, 13, 52, 0
13, 74160, Note_on_c, 13, 54, 76
13, 74384, Note_on_c, 13, 54, 0
13, 74400, Note_on_c, 13, 47, 76
13, 74744, Note_on_c, 13, 47, 0
13, 74760, Note_on_c, 13, 45, 76
13, 74864, Note_on_c, 13, 45, 0
13, 74880, Note_on_c, 13, 47, 76
13, 74984, Note_on_c, 13, 47, 0
13, 75000, Note_on_c, 13, 49, 76
13, 75104, Note_on_c, 13, 49, 0
13, 75120, Note_on_c, 13, 50, 76
13, 75239, Note_on_c, 13, 50, 0
13, 75240, Note_on_c, 13, 52, 76
13, 75344, Note_on_c, 13, 52, 0
13, 75360, Note_on_c, 13, 54, 76
13, 75479, Note_on_c, 13, 54, 0
13, 75480, Note_on_c, 13, 55, 76
13, 75584, Note_on_c, 13, 55, 0
13, 75600, Note_on_c, 13, 57, 76
13, 75824, Note_on_c, 13, 57, 0
13, 75840, Note_on_c, 13, 57, 76
13, 76544, Note_on_c, 13, 57, 0
13, 76560, Note_on_c, 13, 50, 76
13, 76679, Note_on_c, 13, 50, 0
13, 76680, Note_on_c, 13, 52, 76
13, 76784, Note_on_c, 13, 52, 0
13, 76800, Note_on_c, 13, 54, 76
13, 76919, Note_on_c, 13, 54, 0
13, 76920, Note_on_c, 13, 55, 76
13, 77024, Note_on_c, 13, 55, 0
13, 77040, Note_on_c, 13, 57, 76
13, 77264, Note_on_c, 13, 57, 0
13, 77280, Note_on_c, 13, 57, 76
13, 77984, Note_on_c, 13, 57, 0
13, 78000, Note_on_c, 13, 48, 76
13, 78119, Note_on_c, 13, 48, 0
13, 78120, Note_on_c, 13, 47, 76
13, 78224, Note_on_c, 13, 47, 0
13, 78240, Note_on_c, 13, 47, 76
13, 78359, Note_on_c, 13, 47, 0
13, 78360, Note_on_c, 13, 45, 76
13, 78464, Note_on_c, 13, 45, 0
13, 78480, Note_on_c, 13, 45, 76
13, 78599, Note_on_c, 13, 45, 0
13, 78600, Note_on_c, 13, 47, 76
13, 78704, Note_on_c, 13, 47, 0
13, 78720, Note_on_c, 13, 47, 76
13, 78824, Note_on_c, 13, 47, 0
13, 78840, Note_on_c, 13, 49, 76
13, 78944, Note_on_c, 13, 49, 0
13, 78960, Note_on_c, 13, 49, 76
13, 78989, Note_on_c, 13, 49, 0
13, 78990, Note_on_c, 13, 50, 76
13, 79019, Note_on_c, 13, 50, 0
13, 79020, Note_on_c, 13, 49, 76
13, 79049, Note_on_c, 13, 49, 0
13, 79050, Note_on_c, 13, 50, 76
13, 79079, Note_on_c, 13, 50, 0
13, 79080, Note_on_c, 13, 47, 76
13, 79131, Note_on_c, 13, 47, 0
13, 79140, Note_on_c, 13, 49, 76
13, 79191, Note_on_c, 13, 49, 0
13, 79200, Note_on_c, 13, 50, 76
13, 79424, Note_on_c, 13, 50, 0
13, 79440, Note_on_c, 13, 42, 76
13, 79544, Note_on_c, 13, 42, 0
13, 79560, Note_on_c, 13, 40, 76
13, 79664, Note_on_c, 13, 40, 0
13, 79680, Note_on_c, 13, 42, 76
13, 79784, Note_on_c, 13, 42, 0
13, 79800, Note_on_c, 13, 43, 76
13, 79904, Note_on_c, 13, 43, 0
13, 79920, Note_on_c, 13, 45, 76
13, 80144, Note_on_c, 13, 45, 0
13, 80160, Note_on_c, 13, 38, 76
13, 80879, Note_on_c, 13, 38, 0
13, 81120, Note_on_c, 13, 62, 76
13, 81224, Note_on_c, 13, 62, 0
13, 81240, Note_on_c, 13, 61, 76
13, 81344, Note_on_c, 13, 61, 0
13, 81360, Note_on_c, 13, 59, 76
13, 81464, Note_on_c, 13, 59, 0
13, 81480, Note_on_c, 13, 57, 76
13, 81584, Note_on_c, 13, 57, 0
13, 81600, Note_on_c, 13, 59, 76
13, 81704, Note_on_c, 13, 59, 0
13, 81720, Note_on_c, 13, 55, 76
13, 81824, Note_on_c, 13, 55, 0
13, 81840, Note_on_c, 13, 54, 76
13, 82544, Note_on_c, 13, 54, 0
13, 82560, Note_on_c, 13, 55, 76
13, 82784, Note_on_c, 13, 55, 0
13, 82800, Note_on_c, 13, 52, 76
13, 83024, Note_on_c, 13, 52, 0
13, 83040, Note_on_c, 13, 57, 76
13, 83264, Note_on_c, 13, 57, 0
13, 83280, Note_on_c, 13, 54, 76
13, 83504, Note_on_c, 13, 54, 0
13, 83520, Note_on_c, 13, 52, 76
13, 83744, Note_on_c, 13, 52, 0
13, 83760, Note_on_c, 13, 50, 76
13, 83984, Note_on_c, 13, 50, 0
13, 84000, Note_on_c, 13, 49, 76
13, 84104, Note_on_c, 13, 49, 0
13, 84120, Note_on_c, 13, 47, 76
13, 84224, Note_on_c, 13, 47, 0
13, 84240, Note_on_c, 13, 45, 76
13, 84344, Note_on_c, 13, 45, 0
13, 84360, Note_on_c, 13, 43, 76
13, 84464, Note_on_c, 13, 43, 0
13, 84480, Note_on_c, 13, 45, 76
13, 84584, Note_on_c, 13, 45, 0
13, 84600, Note_on_c, 13, 42, 76
13, 84704, Note_on_c, 13, 42, 0
13, 84720, Note_on_c, 13, 47, 76
13, 84944, Note_on_c, 13, 47, 0
13, 84960, Note_on_c, 13, 49, 76
13, 85184, Note_on_c, 13, 49, 0
13, 85200, Note_on_c, 13, 45, 76
13, 85424, Note_on_c, 13, 45, 0
13, 85440, Note_on_c, 13, 50, 76
13, 85664, Note_on_c, 13, 50, 0
13, 85680, Note_on_c, 13, 47, 76
13, 85904, Note_on_c, 13, 47, 0
13, 85920, Note_on_c, 13, 52, 76
13, 86144, Note_on_c, 13, 52, 0
13, 86160, Note_on_c, 13, 45, 76
13, 86384, Note_on_c, 13, 45, 0
13, 86400, Note_on_c, 13, 57, 76
13, 86504, Note_on_c, 13, 57, 0
13, 86520, Note_on_c, 13, 59, 76
13, 86624, Note_on_c, 13, 59, 0
13, 86640, Note_on_c, 13, 61, 76
13, 86744, Note_on_c, 13, 61, 0
13, 86760, Note_on_c, 13, 57, 76
13, 86864, Note_on_c, 13, 57, 0
13, 86880, Note_on_c, 13, 62, 76
13, 86984, Note_on_c, 13, 62, 0
13, 87000, Note_on_c, 13, 61, 76
13, 87104, Note_on_c, 13, 61, 0
13, 87120, Note_on_c, 13, 59, 76
13, 87224, Note_on_c, 13, 59, 0
13, 87240, Note_on_c, 13, 57, 76
13, 87344, Note_on_c, 13, 57, 0
13, 87360, Note_on_c, 13, 59, 76
13, 87464, Note_on_c, 13, 59, 0
13, 87480, Note_on_c, 13, 55, 76
13, 87584, Note_on_c, 13, 55, 0
13, 87600, Note_on_c, 13, 54, 76
13, 88304, Note_on_c, 13, 54, 0
13, 88320, Note_on_c, 13, 55, 76
13, 88544, Note_on_c, 13, 55, 0
13, 88560, Note_on_c, 13, 52, 76
13, 88784, Note_on_c, 13, 52, 0
13, 88800, Note_on_c, 13, 57, 76
13, 89024, Note_on_c, 13, 57, 0
13, 89040, Note_on_c, 13, 54, 76
13, 89264, Note_on_c, 13, 54, 0
13, 89280, Note_on_c, 13, 52, 76
13, 89504, Note_on_c, 13, 52, 0
13, 89520, Note_on_c, 13, 50, 76
13, 89744, Note_on_c, 13, 50, 0
13, 89760, Note_on_c, 13, 49, 76
13, 89864, Note_on_c, 13, 49, 0
13, 89880, Note_on_c, 13, 47, 76
13, 89984, Note_on_c, 13, 47, 0
13, 90000, Note_on_c, 13, 45, 76
13, 90104, Note_on_c, 13, 45, 0
13, 90120, Note_on_c, 13, 43, 76
13, 90224, Note_on_c, 13, 43, 0
13, 90240, Note_on_c, 13, 45, 76
13, 90344, Note_on_c, 13, 45, 0
13, 90360, Note_on_c, 13, 42, 76
13, 90464, Note_on_c, 13, 42, 0
13, 90480, Note_on_c, 13, 47, 76
13, 90704, Note_on_c, 13, 47, 0
13, 90720, Note_on_c, 13, 49, 76
13, 90944, Note_on_c, 13, 49, 0
13, 90960, Note_on_c, 13, 45, 76
13, 91184, Note_on_c, 13, 45, 0
13, 91200, Note_on_c, 13, 50, 76
13, 91424, Note_on_c, 13, 50, 0
13, 91440, Note_on_c, 13, 47, 76
13, 91664, Note_on_c, 13, 47, 0
13, 91680, Note_on_c, 13, 52, 76
13, 91904, Note_on_c, 13, 52, 0
13, 91920, Note_on_c, 13, 45, 76
13, 92144, Note_on_c, 13, 45, 0
13, 92160, Note_on_c, 13, 49, 76
13, 92384, Note_on_c, 13, 49, 0
13, 92400, Note_on_c, 13, 52, 76
13, 92624, Note_on_c, 13, 52, 0
13, 92640, Note_on_c, 13, 57, 76
13, 93104, Note_on_c, 13, 57, 0
13, 93120, Note_on_c, 13, 56, 76
13, 93344, Note_on_c, 13, 56, 0
13, 93360, Note_on_c, 13, 57, 76
13, 93584, Note_on_c, 13, 57, 0
13, 93600, Note_on_c, 13, 55, 76
13, 93704, Note_on_c, 13, 55, 0
13, 93720, Note_on_c, 13, 54, 76
13, 93824, Note_on_c, 13, 54, 0
13, 93840, Note_on_c, 13, 55, 76
13, 93944, Note_on_c, 13, 55, 0
13, 93960, Note_on_c, 13, 52, 76
13, 94064, Note_on_c, 13, 52, 0
13, 94080, Note_on_c, 13, 54, 76
13, 94304, Note_on_c, 13, 54, 0
13, 94320, Note_on_c, 13, 55, 76
13, 94544, Note_on_c, 13, 55, 0
13, 94560, Note_on_c, 13, 57, 76
13, 94784, Note_on_c, 13, 57, 0
13, 94800, Note_on_c, 13, 50, 76
13, 95024, Note_on_c, 13, 50, 0
13, 95040, Note_on_c, 13, 62, 76
13, 95264, Note_on_c, 13, 62, 0
13, 95280, Note_on_c, 13, 57, 76
13, 95504, Note_on_c, 13, 57, 0
13, 95520, Note_on_c, 13, 54, 76
13, 95624, Note_on_c, 13, 54, 0
13, 95640, Note_on_c, 13, 52, 76
13, 95744, Note_on_c, 13, 52, 0
13, 95760, Note_on_c, 13, 51, 76
13, 95864, Note_on_c, 13, 51, 0
13, 95880, Note_on_c, 13, 49, 76
13, 95984, Note_on_c, 13, 49, 0
13, 96000, Note_on_c, 13, 51, 76
13, 96104, Note_on_c, 13, 51, 0
13, 96120, Note_on_c, 13, 47, 76
13, 96224, Note_on_c, 13, 47, 0
13, 96240, Note_on_c, 13, 52, 76
13, 96464, Note_on_c, 13, 52, 0
13, 96480, Note_on_c, 13, 59, 76
13, 96704, Note_on_c, 13, 59, 0
13, 96720, Note_on_c, 13, 60, 76
13, 96944, Note_on_c, 13, 60, 0
13, 96960, Note_on_c, 13, 57, 76
13, 97184, Note_on_c, 13, 57, 0
13, 97200, Note_on_c, 13, 59, 76
13, 97424, Note_on_c, 13, 59, 0
13, 97440, Note_on_c, 13, 47, 76
13, 97664, Note_on_c, 13, 47, 0
13, 97680, Note_on_c, 13, 52, 76
13, 97904, Note_on_c, 13, 52, 0
13, 97920, Note_on_c, 13, 43, 76
13, 98144, Note_on_c, 13, 43, 0
13, 98160, Note_on_c, 13, 47, 76
13, 98384, Note_on_c, 13, 47, 0
13, 98400, Note_on_c, 13, 40, 76
13, 98624, Note_on_c, 13, 40, 0
13, 98640, Note_on_c, 13, 52, 76
13, 98744, Note_on_c, 13, 52, 0
13, 98760, Note_on_c, 13, 54, 76
13, 98864, Note_on_c, 13, 54, 0
13, 98880, Note_on_c, 13, 55, 76
13, 98984, Note_on_c, 13, 55, 0
13, 99000, Note_on_c, 13, 52, 76
13, 99104, Note_on_c, 13, 52, 0
13, 99120, Note_on_c, 13, 57, 76
13, 99224, Note_on_c, 13, 57, 0
13, 99240, Note_on_c, 13, 55, 76
13, 99344, Note_on_c, 13, 55, 0
13, 99360, Note_on_c, 13, 57, 76
13, 99464, Note_on_c, 13, 57, 0
13, 99480, Note_on_c, 13, 59, 76
13, 99584, Note_on_c, 13, 59, 0
13, 99600, Note_on_c, 13, 61, 76
13, 99704, Note_on_c, 13, 61, 0
13, 99720, Note_on_c, 13, 57, 76
13, 99824, Note_on_c, 13, 57, 0
13, 99840, Note_on_c, 13, 62, 76
13, 100064, Note_on_c, 13, 62, 0
13, 100080, Note_on_c, 13, 50, 76
13, 100184, Note_on_c, 13, 50, 0
13, 100200, Note_on_c, 13, 52, 76
13, 100304, Note_on_c, 13, 52, 0
13, 100320, Note_on_c, 13, 54, 76
13, 100424, Note_on_c, 13, 54, 0
13, 100440, Note_on_c, 13, 50, 76
13, 100544, Note_on_c, 13, 50, 0
13, 100560, Note_on_c, 13, 55, 76
13, 100664, Note_on_c, 13, 55, 0
13, 100680, Note_on_c, 13, 54, 76
13, 100784, Note_on_c, 13, 54, 0
13, 100800, Note_on_c, 13, 55, 76
13, 100904, Note_on_c, 13, 55, 0
13, 100920, Note_on_c, 13, 57, 76
13, 101024, Note_on_c, 13, 57, 0
13, 101040, Note_on_c, 13, 59, 76
13, 101144, Note_on_c, 13, 59, 0
13, 101160, Note_on_c, 13, 55, 76
13, 101264, Note_on_c, 13, 55, 0
13, 101280, Note_on_c, 13, 57, 76
13, 101504, Note_on_c, 13, 57, 0
13, 101520, Note_on_c, 13, 55, 76
13, 101624, Note_on_c, 13, 55, 0
13, 101640, Note_on_c, 13, 54, 76
13, 101744, Note_on_c, 13, 54, 0
13, 101760, Note_on_c, 13, 55, 76
13, 101864, Note_on_c, 13, 55, 0
13, 101880, Note_on_c, 13, 52, 76
13, 101984, Note_on_c, 13, 52, 0
13, 102000, Note_on_c, 13, 54, 76
13, 102104, Note_on_c, 13, 54, 0
13, 102120, Note_on_c, 13, 52, 76
13, 102224, Note_on_c, 13, 52, 0
13, 102240, Note_on_c, 13, 50, 76
13, 102344, Note_on_c, 13, 50, 0
13, 102360, Note_on_c, 13, 52, 76
13, 102464, Note_on_c, 13, 52, 0
13, 102480, Note_on_c, 13, 54, 76
13, 102584, Note_on_c, 13, 54, 0
13, 102600, Note_on_c, 13, 50, 76
13, 102704, Note_on_c, 13, 50, 0
13, 102720, Note_on_c, 13, 55, 76
13, 102944, Note_on_c, 13, 55, 0
13, 102960, Note_on_c, 13, 52, 76
13, 103184, Note_on_c, 13, 52, 0
13, 103200, Note_on_c, 13, 50, 76
13, 103424, Note_on_c, 13, 50, 0
13, 103440, Note_on_c, 13, 57, 76
13, 103904, Note_on_c, 13, 57, 0
13, 103920, Note_on_c, 13, 55, 76
13, 104144, Note_on_c, 13, 55, 0
13, 104160, Note_on_c, 13, 54, 76
13, 104264, Note_on_c, 13, 54, 0
13, 104280, Note_on_c, 13, 52, 76
13, 104384, Note_on_c, 13, 52, 0
13, 104400, Note_on_c, 13, 54, 76
13, 104504, Note_on_c, 13, 54, 0
13, 104520, Note_on_c, 13, 55, 76
13, 104624, Note_on_c, 13, 55, 0
13, 104640, Note_on_c, 13, 57, 76
13, 104744, Note_on_c, 13, 57, 0
13, 104760, Note_on_c, 13, 59, 76
13, 104864, Note_on_c, 13, 59, 0
13, 104880, Note_on_c, 13, 60, 76
13, 105104, Note_on_c, 13, 60, 0
13, 105120, Note_on_c, 13, 54, 76
13, 105224, Note_on_c, 13, 54, 0
13, 105240, Note_on_c, 13, 52, 76
13, 105344, Note_on_c, 13, 52, 0
13, 105360, Note_on_c, 13, 54, 76
13, 105464, Note_on_c, 13, 54, 0
13, 105480, Note_on_c, 13, 50, 76
13, 105584, Note_on_c, 13, 50, 0
13, 105600, Note_on_c, 13, 55, 76
13, 105704, Note_on_c, 13, 55, 0
13, 105720, Note_on_c, 13, 57, 76
13, 105824, Note_on_c, 13, 57, 0
13, 105840, Note_on_c, 13, 55, 76
13, 105944, Note_on_c, 13, 55, 0
13, 105960, Note_on_c, 13, 54, 76
13, 106064, Note_on_c, 13, 54, 0
13, 106080, Note_on_c, 13, 52, 76
13, 106184, Note_on_c, 13, 52, 0
13, 106200, Note_on_c, 13, 50, 76
13, 106304, Note_on_c, 13, 50, 0
13, 106320, Note_on_c, 13, 49, 76
13, 106424, Note_on_c, 13, 49, 0
13, 106440, Note_on_c, 13, 50, 76
13, 106544, Note_on_c, 13, 50, 0
13, 106560, Note_on_c, 13, 49, 76
13, 106664, Note_on_c, 13, 49, 0
13, 106680, Note_on_c, 13, 47, 76
13, 106784, Note_on_c, 13, 47, 0
13, 106800, Note_on_c, 13, 49, 76
13, 106904, Note_on_c, 13, 49, 0
13, 106920, Note_on_c, 13, 45, 76
13, 107024, Note_on_c, 13, 45, 0
13, 107040, Note_on_c, 13, 50, 76
13, 107144, Note_on_c, 13, 50, 0
13, 107160, Note_on_c, 13, 49, 76
13, 107264, Note_on_c, 13, 49, 0
13, 107280, Note_on_c, 13, 47, 76
13, 107384, Note_on_c, 13, 47, 0
13, 107400, Note_on_c, 13, 45, 76
13, 107504, Note_on_c, 13, 45, 0
13, 107520, Note_on_c, 13, 47, 76
13, 107624, Note_on_c, 13, 47, 0
13, 107640, Note_on_c, 13, 43, 76
13, 107744, Note_on_c, 13, 43, 0
13, 107760, Note_on_c, 13, 42, 76
13, 108464, Note_on_c, 13, 42, 0
13, 108480, Note_on_c, 13, 43, 76
13, 108704, Note_on_c, 13, 43, 0
13, 108720, Note_on_c, 13, 40, 76
13, 108944, Note_on_c, 13, 40, 0
13, 108960, Note_on_c, 13, 45, 76
13, 109184, Note_on_c, 13, 45, 0
13, 109200, Note_on_c, 13, 38, 76
13, 109904, Note_on_c, 13, 38, 0
13, 109920, Note_on_c, 13, 57, 76
13, 110384, Note_on_c, 13, 57, 0
13, 110400, Note_on_c, 13, 56, 76
13, 110624, Note_on_c, 13, 56, 0
13, 110640, Note_on_c, 13, 57, 76
13, 110864, Note_on_c, 13, 57, 0
13, 110880, Note_on_c, 13, 55, 76
13, 110984, Note_on_c, 13, 55, 0
13, 111000, Note_on_c, 13, 54, 76
13, 111104, Note_on_c, 13, 54, 0
13, 111120, Note_on_c, 13, 55, 76
13, 111224, Note_on_c, 13, 55, 0
13, 111240, Note_on_c, 13, 52, 76
13, 111344, Note_on_c, 13, 52, 0
13, 111360, Note_on_c, 13, 54, 76
13, 111584, Note_on_c, 13, 54, 0
13, 111600, Note_on_c, 13, 55, 76
13, 111824, Note_on_c, 13, 55, 0
13, 111840, Note_on_c, 13, 57, 76
13, 112064, Note_on_c, 13, 57, 0
13, 112080, Note_on_c, 13, 50, 76
13, 112304, Note_on_c, 13, 50, 0
13, 112320, Note_on_c, 13, 62, 76
13, 112544, Note_on_c, 13, 62, 0
13, 112560, Note_on_c, 13, 57, 76
13, 112784, Note_on_c, 13, 57, 0
13, 112800, Note_on_c, 13, 54, 76
13, 112904, Note_on_c, 13, 54, 0
13, 112920, Note_on_c, 13, 52, 76
13, 113024, Note_on_c, 13, 52, 0
13, 113040, Note_on_c, 13, 51, 76
13, 113144, Note_on_c, 13, 51, 0
13, 113160, Note_on_c, 13, 49, 76
13, 113264, Note_on_c, 13, 49, 0
13, 113280, Note_on_c, 13, 51, 76
13, 113384, Note_on_c, 13, 51, 0
13, 113400, Note_on_c, 13, 47, 76
13, 113504, Note_on_c, 13, 47, 0
13, 113520, Note_on_c, 13, 52, 76
13, 113744, Note_on_c, 13, 52, 0
13, 113760, Note_on_c, 13, 59, 76
13, 113984, Note_on_c, 13, 59, 0
13, 114000, Note_on_c, 13, 60, 76
13, 114224, Note_on_c, 13, 60, 0
13, 114240, Note_on_c, 13, 57, 76
13, 114464, Note_on_c, 13, 57, 0
13, 114480, Note_on_c, 13, 59, 76
13, 114704, Note_on_c, 13, 59, 0
13, 114720, Note_on_c, 13, 47, 76
13, 114944, Note_on_c, 13, 47, 0
13, 114960, Note_on_c, 13, 52, 76
13, 115184, Note_on_c, 13, 52, 0
13, 115200, Note_on_c, 13, 43, 76
13, 115424, Note_on_c, 13, 43, 0
13, 115440, Note_on_c, 13, 47, 76
13, 115664, Note_on_c, 13, 47, 0
13, 115680, Note_on_c, 13, 40, 76
13, 115904, Note_on_c, 13, 40, 0
13, 115920, Note_on_c, 13, 52, 76
13, 116024, Note_on_c, 13, 52, 0
13, 116040, Note_on_c, 13, 54, 76
13, 116144, Note_on_c, 13, 54, 0
13, 116160, Note_on_c, 13, 55, 76
13, 116264, Note_on_c, 13, 55, 0
13, 116280, Note_on_c, 13, 52, 76
13, 116384, Note_on_c, 13, 52, 0
13, 116400, Note_on_c, 13, 57, 76
13, 116504, Note_on_c, 13, 57, 0
13, 116520, Note_on_c, 13, 55, 76
13, 116624, Note_on_c, 13, 55, 0
13, 116640, Note_on_c, 13, 57, 76
13, 116744, Note_on_c, 13, 57, 0
13, 116760, Note_on_c, 13, 59, 76
13, 116864, Note_on_c, 13, 59, 0
13, 116880, Note_on_c, 13, 61, 76
13, 116984, Note_on_c, 13, 61, 0
13, 117000, Note_on_c, 13, 57, 76
13, 117104, Note_on_c, 13, 57, 0
13, 117120, Note_on_c, 13, 62, 76
13, 117344, Note_on_c, 13, 62, 0
13, 117360, Note_on_c, 13, 50, 76
13, 117464, Note_on_c, 13, 50, 0
13, 117480, Note_on_c, 13, 52, 76
13, 117584, Note_on_c, 13, 52, 0
13, 117600, Note_on_c, 13, 54, 76
13, 117704, Note_on_c, 13, 54, 0
13, 117720, Note_on_c, 13, 50, 76
13, 117824, Note_on_c, 13, 50, 0
13, 117840, Note_on_c, 13, 55, 76
13, 117944, Note_on_c, 13, 55, 0
13, 117960, Note_on_c, 13, 54, 76
13, 118064, Note_on_c, 13, 54, 0
13, 118080, Note_on_c, 13, 55, 76
13, 118184, Note_on_c, 13, 55, 0
13, 118200, Note_on_c, 13, 57, 76
13, 118304, Note_on_c, 13, 57, 0
13, 118320, Note_on_c, 13, 59, 76
13, 118424, Note_on_c, 13, 59, 0
13, 118440, Note_on_c, 13, 55, 76
13, 118544, Note_on_c, 13, 55, 0
13, 118560, Note_on_c, 13, 57, 76
13, 118784, Note_on_c, 13, 57, 0
13, 118800, Note_on_c, 13, 55, 76
13, 118904, Note_on_c, 13, 55, 0
13, 118920, Note_on_c, 13, 54, 76
13, 119024, Note_on_c, 13, 54, 0
13, 119040, Note_on_c, 13, 55, 76
13, 119144, Note_on_c, 13, 55, 0
13, 119160, Note_on_c, 13, 52, 76
13, 119264, Note_on_c, 13, 52, 0
13, 119280, Note_on_c, 13, 54, 76
13, 119384, Note_on_c, 13, 54, 0
13, 119400, Note_on_c, 13, 52, 76
13, 119504, Note_on_c, 13, 52, 0
13, 119520, Note_on_c, 13, 50, 76
13, 119624, Note_on_c, 13, 50, 0
13, 119640, Note_on_c, 13, 52, 76
13, 119744, Note_on_c, 13, 52, 0
13, 119760, Note_on_c, 13, 54, 76
13, 119864, Note_on_c, 13, 54, 0
13, 119880, Note_on_c, 13, 50, 76
13, 119984, Note_on_c, 13, 50, 0
13, 120000, Note_on_c, 13, 55, 76
13, 120224, Note_on_c, 13, 55, 0
13, 120240, Note_on_c, 13, 52, 76
13, 120464, Note_on_c, 13, 52, 0
13, 120480, Note_on_c, 13, 50, 76
13, 120704, Note_on_c, 13, 50, 0
13, 120720, Note_on_c, 13, 57, 76
13, 121184, Note_on_c, 13, 57, 0
13, 121200, Note_on_c, 13, 55, 76
13, 121424, Note_on_c, 13, 55, 0
13, 121440, Note_on_c, 13, 54, 76
13, 121544, Note_on_c, 13, 54, 0
13, 121560, Note_on_c, 13, 52, 76
13, 121664, Note_on_c, 13, 52, 0
13, 121680, Note_on_c, 13, 54, 76
13, 121784, Note_on_c, 13, 54, 0
13, 121800, Note_on_c, 13, 55, 76
13, 121904, Note_on_c, 13, 55, 0
13, 121920, Note_on_c, 13, 57, 76
13, 122024, Note_on_c, 13, 57, 0
13, 122040, Note_on_c, 13, 59, 76
13, 122144, Note_on_c, 13, 59, 0
13, 122160, Note_on_c, 13, 60, 76
13, 122384, Note_on_c, 13, 60, 0
13, 122400, Note_on_c, 13, 54, 76
13, 122504, Note_on_c, 13, 54, 0
13, 122520, Note_on_c, 13, 52, 76
13, 122624, Note_on_c, 13, 52, 0
13, 122640, Note_on_c, 13, 54, 76
13, 122744, Note_on_c, 13, 54, 0
13, 122760, Note_on_c, 13, 50, 76
13, 122864, Note_on_c, 13, 50, 0
13, 122880, Note_on_c, 13, 55, 76
13, 122984, Note_on_c, 13, 55, 0
13, 123000, Note_on_c, 13, 57, 76
13, 123104, Note_on_c, 13, 57, 0
13, 123120, Note_on_c, 13, 55, 76
13, 123224, Note_on_c, 13, 55, 0
13, 123240, Note_on_c, 13, 54, 76
13, 123344, Note_on_c, 13, 54, 0
13, 123360, Note_on_c, 13, 52, 76
13, 123464, Note_on_c, 13, 52, 0
13, 123480, Note_on_c, 13, 50, 76
13, 123584, Note_on_c, 13, 50, 0
13, 123600, Note_on_c, 13, 49, 76
13, 123704, Note_on_c, 13, 49, 0
13, 123720, Note_on_c, 13, 50, 76
13, 123824, Note_on_c, 13, 50, 0
13, 123840, Note_on_c, 13, 49, 76
13, 123944, Note_on_c, 13, 49, 0
13, 123960, Note_on_c, 13, 47, 76
13, 124064, Note_on_c, 13, 47, 0
13, 124080, Note_on_c, 13, 49, 76
13, 124184, Note_on_c, 13, 49, 0
13, 124200, Note_on_c, 13, 45, 76
13, 124304, Note_on_c, 13, 45, 0
13, 124320, Note_on_c, 13, 50, 76
13, 124424, Note_on_c, 13, 50, 0
13, 124440, Note_on_c, 13, 49, 76
13, 124544, Note_on_c, 13, 49, 0
13, 124560, Note_on_c, 13, 47, 76
13, 124664, Note_on_c, 13, 47, 0
13, 124680, Note_on_c, 13, 45, 76
13, 124784, Note_on_c, 13, 45, 0
13, 124800, Note_on_c, 13, 47, 76
13, 124904, Note_on_c, 13, 47, 0
13, 124920, Note_on_c, 13, 43, 76
13, 125024, Note_on_c, 13, 43, 0
13, 125040, Note_on_c, 13, 42, 76
13, 125744, Note_on_c, 13, 42, 0
13, 125760, Note_on_c, 13, 43, 76
13, 125984, Note_on_c, 13, 43, 0
13, 126000, Note_on_c, 13, 40, 76
13, 126224, Note_on_c, 13, 40, 0
13, 126240, Note_on_c, 13, 45, 76
13, 126464, Note_on_c, 13, 45, 0
13, 126480, Note_on_c, 13, 38, 76
13, 127199, Note_on_c, 13, 38, 0
13, 127199, End_track
14, 0, Start_track
14, 0, Title_t, "Harpsichord "
14, 0, MIDI_port, 0
14, 0, Control_c, 14, 10, 64
14, 0, Control_c, 14, 11, 127
14, 0, Control_c, 14, 7, 72
14, 0, Program_c, 14, 6
14, 0, Note_on_c, 14, 62, 76
14, 104, Note_on_c, 14, 62, 0
14, 120, Note_on_c, 14, 61, 76
14, 224, Note_on_c, 14, 61, 0
14, 240, Note_on_c, 14, 59, 76
14, 344, Note_on_c, 14, 59, 0
14, 360, Note_on_c, 14, 57, 76
14, 464, Note_on_c, 14, 57, 0
14, 480, Note_on_c, 14, 59, 76
14, 584, Note_on_c, 14, 59, 0
14, 600, Note_on_c, 14, 55, 76
14, 704, Note_on_c, 14, 55, 0
14, 720, Note_on_c, 14, 54, 76
14, 1424, Note_on_c, 14, 54, 0
14, 1440, Note_on_c, 14, 55, 76
14, 1664, Note_on_c, 14, 55, 0
14, 1680, Note_on_c, 14, 52, 76
14, 1904, Note_on_c, 14, 52, 0
14, 1920, Note_on_c, 14, 57, 76
14, 2144, Note_on_c, 14, 57, 0
14, 2160, Note_on_c, 14, 54, 76
14, 2384, Note_on_c, 14, 54, 0
14, 2400, Note_on_c, 14, 52, 76
14, 2624, Note_on_c, 14, 52, 0
14, 2640, Note_on_c, 14, 50, 76
14, 2864, Note_on_c, 14, 50, 0
14, 2880, Note_on_c, 14, 49, 76
14, 2984, Note_on_c, 14, 49, 0
14, 3000, Note_on_c, 14, 47, 76
14, 3104, Note_on_c, 14, 47, 0
14, 3120, Note_on_c, 14, 45, 76
14, 3224, Note_on_c, 14, 45, 0
14, 3240, Note_on_c, 14, 43, 76
14, 3344, Note_on_c, 14, 43, 0
14, 3360, Note_on_c, 14, 45, 76
14, 3464, Note_on_c, 14, 45, 0
14, 3480, Note_on_c, 14, 42, 76
14, 3584, Note_on_c, 14, 42, 0
14, 3600, Note_on_c, 14, 47, 76
14, 3824, Note_on_c, 14, 47, 0
14, 3840, Note_on_c, 14, 49, 76
14, 4064, Note_on_c, 14, 49, 0
14, 4080, Note_on_c, 14, 45, 76
14, 4304, Note_on_c, 14, 45, 0
14, 4320, Note_on_c, 14, 50, 76
14, 4544, Note_on_c, 14, 50, 0
14, 4560, Note_on_c, 14, 47, 76
14, 4784, Note_on_c, 14, 47, 0
14, 4800, Note_on_c, 14, 52, 76
14, 5024, Note_on_c, 14, 52, 0
14, 5040, Note_on_c, 14, 45, 76
14, 5264, Note_on_c, 14, 45, 0
14, 5280, Note_on_c, 14, 57, 76
14, 5384, Note_on_c, 14, 57, 0
14, 5400, Note_on_c, 14, 59, 76
14, 5504, Note_on_c, 14, 59, 0
14, 5520, Note_on_c, 14, 61, 76
14, 5624, Note_on_c, 14, 61, 0
14, 5640, Note_on_c, 14, 57, 76
14, 5744, Note_on_c, 14, 57, 0
14, 5760, Note_on_c, 14, 62, 76
14, 5864, Note_on_c, 14, 62, 0
14, 5880, Note_on_c, 14, 61, 76
14, 5984, Note_on_c, 14, 61, 0
14, 6000, Note_on_c, 14, 59, 76
14, 6104, Note_on_c, 14, 59, 0
14, 6120, Note_on_c, 14, 57, 76
14, 6224, Note_on_c, 14, 57, 0
14, 6240, Note_on_c, 14, 59, 76
14, 6344, Note_on_c, 14, 59, 0
14, 6360, Note_on_c, 14, 55, 76
14, 6464, Note_on_c, 14, 55, 0
14, 6480, Note_on_c, 14, 54, 76
14, 7184, Note_on_c, 14, 54, 0
14, 7200, Note_on_c, 14, 55, 76
14, 7424, Note_on_c, 14, 55, 0
14, 7440, Note_on_c, 14, 52, 76
14, 7664, Note_on_c, 14, 52, 0
14, 7680, Note_on_c, 14, 57, 76
14, 7904, Note_on_c, 14, 57, 0
14, 7920, Note_on_c, 14, 54, 76
14, 8144, Note_on_c, 14, 54, 0
14, 8160, Note_on_c, 14, 52, 76
14, 8384, Note_on_c, 14, 52, 0
14, 8400, Note_on_c, 14, 50, 76
14, 8624, Note_on_c, 14, 50, 0
14, 8640, Note_on_c, 14, 49, 76
14, 8744, Note_on_c, 14, 49, 0
14, 8760, Note_on_c, 14, 47, 76
14, 8864, Note_on_c, 14, 47, 0
14, 8880, Note_on_c, 14, 45, 76
14, 8984, Note_on_c, 14, 45, 0
14, 9000, Note_on_c, 14, 43, 76
14, 9104, Note_on_c, 14, 43, 0
14, 9120, Note_on_c, 14, 45, 76
14, 9224, Note_on_c, 14, 45, 0
14, 9240, Note_on_c, 14, 42, 76
14, 9344, Note_on_c, 14, 42, 0
14, 9360, Note_on_c, 14, 47, 76
14, 9584, Note_on_c, 14, 47, 0
14, 9600, Note_on_c, 14, 49, 76
14, 9824, Note_on_c, 14, 49, 0
14, 9840, Note_on_c, 14, 45, 76
14, 10064, Note_on_c, 14, 45, 0
14, 10080, Note_on_c, 14, 50, 76
14, 10304, Note_on_c, 14, 50, 0
14, 10320, Note_on_c, 14, 47, 76
14, 10544, Note_on_c, 14, 47, 0
14, 10560, Note_on_c, 14, 52, 76
14, 10784, Note_on_c, 14, 52, 0
14, 10800, Note_on_c, 14, 45, 76
14, 11024, Note_on_c, 14, 45, 0
14, 11040, Note_on_c, 14, 49, 76
14, 11264, Note_on_c, 14, 49, 0
14, 11280, Note_on_c, 14, 52, 76
14, 11504, Note_on_c, 14, 52, 0
14, 11520, Note_on_c, 14, 57, 76
14, 11984, Note_on_c, 14, 57, 0
14, 12000, Note_on_c, 14, 56, 76
14, 12224, Note_on_c, 14, 56, 0
14, 12240, Note_on_c, 14, 57, 76
14, 12464, Note_on_c, 14, 57, 0
14, 12480, Note_on_c, 14, 55, 76
14, 12584, Note_on_c, 14, 55, 0
14, 12600, Note_on_c, 14, 54, 76
14, 12704, Note_on_c, 14, 54, 0
14, 12720, Note_on_c, 14, 55, 76
14, 12824, Note_on_c, 14, 55, 0
14, 12840, Note_on_c, 14, 52, 76
14, 12944, Note_on_c, 14, 52, 0
14, 12960, Note_on_c, 14, 54, 76
14, 13184, Note_on_c, 14, 54, 0
14, 13200, Note_on_c, 14, 55, 76
14, 13424, Note_on_c, 14, 55, 0
14, 13440, Note_on_c, 14, 57, 76
14, 13664, Note_on_c, 14, 57, 0
14, 13680, Note_on_c, 14, 50, 76
14, 13904, Note_on_c, 14, 50, 0
14, 13920, Note_on_c, 14, 62, 76
14, 14144, Note_on_c, 14, 62, 0
14, 14160, Note_on_c, 14, 57, 76
14, 14384, Note_on_c, 14, 57, 0
14, 14400, Note_on_c, 14, 54, 76
14, 14504, Note_on_c, 14, 54, 0
14, 14520, Note_on_c, 14, 52, 76
14, 14624, Note_on_c, 14, 52, 0
14, 14640, Note_on_c, 14, 51, 76
14, 14744, Note_on_c, 14, 51, 0
14, 14760, Note_on_c, 14, 49, 76
14, 14864, Note_on_c, 14, 49, 0
14, 14880, Note_on_c, 14, 51, 76
14, 14984, Note_on_c, 14, 51, 0
14, 15000, Note_on_c, 14, 47, 76
14, 15104, Note_on_c, 14, 47, 0
14, 15120, Note_on_c, 14, 52, 76
14, 15344, Note_on_c, 14, 52, 0
14, 15360, Note_on_c, 14, 59, 76
14, 15584, Note_on_c, 14, 59, 0
14, 15600, Note_on_c, 14, 60, 76
14, 15824, Note_on_c, 14, 60, 0
14, 15840, Note_on_c, 14, 57, 76
14, 16064, Note_on_c, 14, 57, 0
14, 16080, Note_on_c, 14, 59, 76
14, 16304, Note_on_c, 14, 59, 0
14, 16320, Note_on_c, 14, 47, 76
14, 16544, Note_on_c, 14, 47, 0
14, 16560, Note_on_c, 14, 52, 76
14, 16784, Note_on_c, 14, 52, 0
14, 16800, Note_on_c, 14, 43, 76
14, 17024, Note_on_c, 14, 43, 0
14, 17040, Note_on_c, 14, 47, 76
14, 17264, Note_on_c, 14, 47, 0
14, 17280, Note_on_c, 14, 40, 76
14, 17504, Note_on_c, 14, 40, 0
14, 17520, Note_on_c, 14, 52, 76
14, 17624, Note_on_c, 14, 52, 0
14, 17640, Note_on_c, 14, 54, 76
14, 17744, Note_on_c, 14, 54, 0
14, 17760, Note_on_c, 14, 55, 76
14, 17864, Note_on_c, 14, 55, 0
14, 17880, Note_on_c, 14, 52, 76
14, 17984, Note_on_c, 14, 52, 0
14, 18000, Note_on_c, 14, 57, 76
14, 18104, Note_on_c, 14, 57, 0
14, 18120, Note_on_c, 14, 55, 76
14, 18224, Note_on_c, 14, 55, 0
14, 18240, Note_on_c, 14, 57, 76
14, 18344, Note_on_c, 14, 57, 0
14, 18360, Note_on_c, 14, 59, 76
14, 18464, Note_on_c, 14, 59, 0
14, 18480, Note_on_c, 14, 61, 76
14, 18584, Note_on_c, 14, 61, 0
14, 18600, Note_on_c, 14, 57, 76
14, 18704, Note_on_c, 14, 57, 0
14, 18720, Note_on_c, 14, 62, 76
14, 18944, Note_on_c, 14, 62, 0
14, 18960, Note_on_c, 14, 50, 76
14, 19064, Note_on_c, 14, 50, 0
14, 19080, Note_on_c, 14, 52, 76
14, 19184, Note_on_c, 14, 52, 0
14, 19200, Note_on_c, 14, 54, 76
14, 19304, Note_on_c, 14, 54, 0
14, 19320, Note_on_c, 14, 50, 76
14, 19424, Note_on_c, 14, 50, 0
14, 19440, Note_on_c, 14, 55, 76
14, 19544, Note_on_c, 14, 55, 0
14, 19560, Note_on_c, 14, 54, 76
14, 19664, Note_on_c, 14, 54, 0
14, 19680, Note_on_c, 14, 55, 76
14, 19784, Note_on_c, 14, 55, 0
14, 19800, Note_on_c, 14, 57, 76
14, 19904, Note_on_c, 14, 57, 0
14, 19920, Note_on_c, 14, 59, 76
14, 20024, Note_on_c, 14, 59, 0
14, 20040, Note_on_c, 14, 55, 76
14, 20144, Note_on_c, 14, 55, 0
14, 20160, Note_on_c, 14, 57, 76
14, 20384, Note_on_c, 14, 57, 0
14, 20400, Note_on_c, 14, 55, 76
14, 20504, Note_on_c, 14, 55, 0
14, 20520, Note_on_c, 14, 54, 76
14, 20624, Note_on_c, 14, 54, 0
14, 20640, Note_on_c, 14, 55, 76
14, 20744, Note_on_c, 14, 55, 0
14, 20760, Note_on_c, 14, 52, 76
14, 20864, Note_on_c, 14, 52, 0
14, 20880, Note_on_c, 14, 54, 76
14, 20984, Note_on_c, 14, 54, 0
14, 21000, Note_on_c, 14, 52, 76
14, 21104, Note_on_c, 14, 52, 0
14, 21120, Note_on_c, 14, 50, 76
14, 21224, Note_on_c, 14, 50, 0
14, 21240, Note_on_c, 14, 52, 76
14, 21344, Note_on_c, 14, 52, 0
14, 21360, Note_on_c, 14, 54, 76
14, 21464, Note_on_c, 14, 54, 0
14, 21480, Note_on_c, 14, 50, 76
14, 21584, Note_on_c, 14, 50, 0
14, 21600, Note_on_c, 14, 55, 76
14, 21824, Note_on_c, 14, 55, 0
14, 21840, Note_on_c, 14, 52, 76
14, 22064, Note_on_c, 14, 52, 0
14, 22080, Note_on_c, 14, 50, 76
14, 22304, Note_on_c, 14, 50, 0
14, 22320, Note_on_c, 14, 57, 76
14, 22784, Note_on_c, 14, 57, 0
14, 22800, Note_on_c, 14, 55, 76
14, 23024, Note_on_c, 14, 55, 0
14, 23040, Note_on_c, 14, 54, 76
14, 23144, Note_on_c, 14, 54, 0
14, 23160, Note_on_c, 14, 52, 76
14, 23264, Note_on_c, 14, 52, 0
14, 23280, Note_on_c, 14, 54, 76
14, 23384, Note_on_c, 14, 54, 0
14, 23400, Note_on_c, 14, 55, 76
14, 23504, Note_on_c, 14, 55, 0
14, 23520, Note_on_c, 14, 57, 76
14, 23624, Note_on_c, 14, 57, 0
14, 23640, Note_on_c, 14, 59, 76
14, 23744, Note_on_c, 14, 59, 0
14, 23760, Note_on_c, 14, 60, 76
14, 23984, Note_on_c, 14, 60, 0
14, 24000, Note_on_c, 14, 54, 76
14, 24104, Note_on_c, 14, 54, 0
14, 24120, Note_on_c, 14, 52, 76
14, 24224, Note_on_c, 14, 52, 0
14, 24240, Note_on_c, 14, 54, 76
14, 24344, Note_on_c, 14, 54, 0
14, 24360, Note_on_c, 14, 50, 76
14, 24464, Note_on_c, 14, 50, 0
14, 24480, Note_on_c, 14, 55, 76
14, 24584, Note_on_c, 14, 55, 0
14, 24600, Note_on_c, 14, 57, 76
14, 24704, Note_on_c, 14, 57, 0
14, 24720, Note_on_c, 14, 55, 76
14, 24824, Note_on_c, 14, 55, 0
14, 24840, Note_on_c, 14, 54, 76
14, 24944, Note_on_c, 14, 54, 0
14, 24960, Note_on_c, 14, 52, 76
14, 25064, Note_on_c, 14, 52, 0
14, 25080, Note_on_c, 14, 50, 76
14, 25184, Note_on_c, 14, 50, 0
14, 25200, Note_on_c, 14, 49, 76
14, 25304, Note_on_c, 14, 49, 0
14, 25320, Note_on_c, 14, 50, 76
14, 25424, Note_on_c, 14, 50, 0
14, 25440, Note_on_c, 14, 49, 76
14, 25544, Note_on_c, 14, 49, 0
14, 25560, Note_on_c, 14, 47, 76
14, 25664, Note_on_c, 14, 47, 0
14, 25680, Note_on_c, 14, 49, 76
14, 25784, Note_on_c, 14, 49, 0
14, 25800, Note_on_c, 14, 45, 76
14, 25904, Note_on_c, 14, 45, 0
14, 25920, Note_on_c, 14, 50, 76
14, 26024, Note_on_c, 14, 50, 0
14, 26040, Note_on_c, 14, 49, 76
14, 26144, Note_on_c, 14, 49, 0
14, 26160, Note_on_c, 14, 47, 76
14, 26264, Note_on_c, 14, 47, 0
14, 26280, Note_on_c, 14, 45, 76
14, 26384, Note_on_c, 14, 45, 0
14, 26400, Note_on_c, 14, 47, 76
14, 26504, Note_on_c, 14, 47, 0
14, 26520, Note_on_c, 14, 43, 76
14, 26624, Note_on_c, 14, 43, 0
14, 26640, Note_on_c, 14, 42, 76
14, 27344, Note_on_c, 14, 42, 0
14, 27360, Note_on_c, 14, 43, 76
14, 27584, Note_on_c, 14, 43, 0
14, 27600, Note_on_c, 14, 40, 76
14, 27824, Note_on_c, 14, 40, 0
14, 27840, Note_on_c, 14, 45, 76
14, 28064, Note_on_c, 14, 45, 0
14, 28080, Note_on_c, 14, 38, 76
14, 28784, Note_on_c, 14, 38, 0
14, 28800, Note_on_c, 14, 57, 76
14, 29264, Note_on_c, 14, 57, 0
14, 29280, Note_on_c, 14, 56, 76
14, 29504, Note_on_c, 14, 56, 0
14, 29520, Note_on_c, 14, 57, 76
14, 29744, Note_on_c, 14, 57, 0
14, 29760, Note_on_c, 14, 55, 76
14, 29864, Note_on_c, 14, 55, 0
14, 29880, Note_on_c, 14, 54, 76
14, 29984, Note_on_c, 14, 54, 0
14, 30000, Note_on_c, 14, 55, 76
14, 30104, Note_on_c, 14, 55, 0
14, 30120, Note_on_c, 14, 52, 76
14, 30224, Note_on_c, 14, 52, 0
14, 30240, Note_on_c, 14, 54, 76
14, 30464, Note_on_c, 14, 54, 0
14, 30480, Note_on_c, 14, 55, 76
14, 30704, Note_on_c, 14, 55, 0
14, 30720, Note_on_c, 14, 57, 76
14, 30944, Note_on_c, 14, 57, 0
14, 30960, Note_on_c, 14, 50, 76
14, 31184, Note_on_c, 14, 50, 0
14, 31200, Note_on_c, 14, 62, 76
14, 31424, Note_on_c, 14, 62, 0
14, 31440, Note_on_c, 14, 57, 76
14, 31664, Note_on_c, 14, 57, 0
14, 31680, Note_on_c, 14, 54, 76
14, 31784, Note_on_c, 14, 54, 0
14, 31800, Note_on_c, 14, 52, 76
14, 31904, Note_on_c, 14, 52, 0
14, 31920, Note_on_c, 14, 51, 76
14, 32024, Note_on_c, 14, 51, 0
14, 32040, Note_on_c, 14, 49, 76
14, 32144, Note_on_c, 14, 49, 0
14, 32160, Note_on_c, 14, 51, 76
14, 32264, Note_on_c, 14, 51, 0
14, 32280, Note_on_c, 14, 47, 76
14, 32384, Note_on_c, 14, 47, 0
14, 32400, Note_on_c, 14, 52, 76
14, 32624, Note_on_c, 14, 52, 0
14, 32640, Note_on_c, 14, 59, 76
14, 32864, Note_on_c, 14, 59, 0
14, 32880, Note_on_c, 14, 60, 76
14, 33104, Note_on_c, 14, 60, 0
14, 33120, Note_on_c, 14, 57, 76
14, 33344, Note_on_c, 14, 57, 0
14, 33360, Note_on_c, 14, 59, 76
14, 33584, Note_on_c, 14, 59, 0
14, 33600, Note_on_c, 14, 47, 76
14, 33824, Note_on_c, 14, 47, 0
14, 33840, Note_on_c, 14, 52, 76
14, 34064, Note_on_c, 14, 52, 0
14, 34080, Note_on_c, 14, 43, 76
14, 34304, Note_on_c, 14, 43, 0
14, 34320, Note_on_c, 14, 47, 76
14, 34544, Note_on_c, 14, 47, 0
14, 34560, Note_on_c, 14, 40, 76
14, 34784, Note_on_c, 14, 40, 0
14, 34800, Note_on_c, 14, 52, 76
14, 34904, Note_on_c, 14, 52, 0
14, 34920, Note_on_c, 14, 54, 76
14, 35024, Note_on_c, 14, 54, 0
14, 35040, Note_on_c, 14, 55, 76
14, 35144, Note_on_c, 14, 55, 0
14, 35160, Note_on_c, 14, 52, 76
14, 35264, Note_on_c, 14, 52, 0
14, 35280, Note_on_c, 14, 57, 76
14, 35384, Note_on_c, 14, 57, 0
14, 35400, Note_on_c, 14, 55, 76
14, 35504, Note_on_c, 14, 55, 0
14, 35520, Note_on_c, 14, 57, 76
14, 35624, Note_on_c, 14, 57, 0
14, 35640, Note_on_c, 14, 59, 76
14, 35744, Note_on_c, 14, 59, 0
14, 35760, Note_on_c, 14, 61, 76
14, 35864, Note_on_c, 14, 61, 0
14, 35880, Note_on_c, 14, 57, 76
14, 35984, Note_on_c, 14, 57, 0
14, 36000, Note_on_c, 14, 62, 76
14, 36224, Note_on_c, 14, 62, 0
14, 36240, Note_on_c, 14, 50, 76
14, 36344, Note_on_c, 14, 50, 0
14, 36360, Note_on_c, 14, 52, 76
14, 36464, Note_on_c, 14, 52, 0
14, 36480, Note_on_c, 14, 54, 76
14, 36584, Note_on_c, 14, 54, 0
14, 36600, Note_on_c, 14, 50, 76
14, 36704, Note_on_c, 14, 50, 0
14, 36720, Note_on_c, 14, 55, 76
14, 36824, Note_on_c, 14, 55, 0
14, 36840, Note_on_c, 14, 54, 76
14, 36944, Note_on_c, 14, 54, 0
14, 36960, Note_on_c, 14, 55, 76
14, 37064, Note_on_c, 14, 55, 0
14, 37080, Note_on_c, 14, 57, 76
14, 37184, Note_on_c, 14, 57, 0
14, 37200, Note_on_c, 14, 59, 76
14, 37304, Note_on_c, 14, 59, 0
14, 37320, Note_on_c, 14, 55, 76
14, 37424, Note_on_c, 14, 55, 0
14, 37440, Note_on_c, 14, 57, 76
14, 37664, Note_on_c, 14, 57, 0
14, 37680, Note_on_c, 14, 55, 76
14, 37784, Note_on_c, 14, 55, 0
14, 37800, Note_on_c, 14, 54, 76
14, 37904, Note_on_c, 14, 54, 0
14, 37920, Note_on_c, 14, 55, 76
14, 38024, Note_on_c, 14, 55, 0
14, 38040, Note_on_c, 14, 52, 76
14, 38144, Note_on_c, 14, 52, 0
14, 38160, Note_on_c, 14, 54, 76
14, 38264, Note_on_c, 14, 54, 0
14, 38280, Note_on_c, 14, 52, 76
14, 38384, Note_on_c, 14, 52, 0
14, 38400, Note_on_c, 14, 50, 76
14, 38504, Note_on_c, 14, 50, 0
14, 38520, Note_on_c, 14, 52, 76
14, 38624, Note_on_c, 14, 52, 0
14, 38640, Note_on_c, 14, 54, 76
14, 38744, Note_on_c, 14, 54, 0
14, 38760, Note_on_c, 14, 50, 76
14, 38864, Note_on_c, 14, 50, 0
14, 38880, Note_on_c, 14, 55, 76
14, 39104, Note_on_c, 14, 55, 0
14, 39120, Note_on_c, 14, 52, 76
14, 39344, Note_on_c, 14, 52, 0
14, 39360, Note_on_c, 14, 50, 76
14, 39584, Note_on_c, 14, 50, 0
14, 39600, Note_on_c, 14, 57, 76
14, 40064, Note_on_c, 14, 57, 0
14, 40080, Note_on_c, 14, 55, 76
14, 40304, Note_on_c, 14, 55, 0
14, 40320, Note_on_c, 14, 54, 76
14, 40424, Note_on_c, 14, 54, 0
14, 40440, Note_on_c, 14, 52, 76
14, 40544, Note_on_c, 14, 52, 0
14, 40560, Note_on_c, 14, 54, 76
14, 40664, Note_on_c, 14, 54, 0
14, 40680, Note_on_c, 14, 55, 76
14, 40784, Note_on_c, 14, 55, 0
14, 40800, Note_on_c, 14, 57, 76
14, 40904, Note_on_c, 14, 57, 0
14, 40920, Note_on_c, 14, 59, 76
14, 41024, Note_on_c, 14, 59, 0
14, 41040, Note_on_c, 14, 60, 76
14, 41264, Note_on_c, 14, 60, 0
14, 41280, Note_on_c, 14, 54, 76
14, 41384, Note_on_c, 14, 54, 0
14, 41400, Note_on_c, 14, 52, 76
14, 41504, Note_on_c, 14, 52, 0
14, 41520, Note_on_c, 14, 54, 76
14, 41624, Note_on_c, 14, 54, 0
14, 41640, Note_on_c, 14, 50, 76
14, 41744, Note_on_c, 14, 50, 0
14, 41760, Note_on_c, 14, 55, 76
14, 41864, Note_on_c, 14, 55, 0
14, 41880, Note_on_c, 14, 57, 76
14, 41984, Note_on_c, 14, 57, 0
14, 42000, Note_on_c, 14, 55, 76
14, 42104, Note_on_c, 14, 55, 0
14, 42120, Note_on_c, 14, 54, 76
14, 42224, Note_on_c, 14, 54, 0
14, 42240, Note_on_c, 14, 52, 76
14, 42344, Note_on_c, 14, 52, 0
14, 42360, Note_on_c, 14, 50, 76
14, 42464, Note_on_c, 14, 50, 0
14, 42480, Note_on_c, 14, 49, 76
14, 42584, Note_on_c, 14, 49, 0
14, 42600, Note_on_c, 14, 50, 76
14, 42704, Note_on_c, 14, 50, 0
14, 42720, Note_on_c, 14, 49, 76
14, 42824, Note_on_c, 14, 49, 0
14, 42840, Note_on_c, 14, 47, 76
14, 42944, Note_on_c, 14, 47, 0
14, 42960, Note_on_c, 14, 49, 76
14, 43064, Note_on_c, 14, 49, 0
14, 43080, Note_on_c, 14, 45, 76
14, 43184, Note_on_c, 14, 45, 0
14, 43200, Note_on_c, 14, 50, 76
14, 43304, Note_on_c, 14, 50, 0
14, 43320, Note_on_c, 14, 49, 76
14, 43424, Note_on_c, 14, 49, 0
14, 43440, Note_on_c, 14, 47, 76
14, 43544, Note_on_c, 14, 47, 0
14, 43560, Note_on_c, 14, 45, 76
14, 43664, Note_on_c, 14, 45, 0
14, 43680, Note_on_c, 14, 47, 76
14, 43784, Note_on_c, 14, 47, 0
14, 43800, Note_on_c, 14, 43, 76
14, 43904, Note_on_c, 14, 43, 0
14, 43920, Note_on_c, 14, 42, 76
14, 44624, Note_on_c, 14, 42, 0
14, 44640, Note_on_c, 14, 43, 76
14, 44864, Note_on_c, 14, 43, 0
14, 44880, Note_on_c, 14, 40, 76
14, 45104, Note_on_c, 14, 40, 0
14, 45120, Note_on_c, 14, 45, 76
14, 45344, Note_on_c, 14, 45, 0
14, 45360, Note_on_c, 14, 38, 76
14, 46079, Note_on_c, 14, 38, 0
14, 46320, Note_on_c, 14, 50, 76
14, 46439, Note_on_c, 14, 50, 0
14, 46440, Note_on_c, 14, 52, 76
14, 46559, Note_on_c, 14, 52, 0
14, 46560, Note_on_c, 14, 54, 76
14, 46679, Note_on_c, 14, 54, 0
14, 46680, Note_on_c, 14, 55, 76
14, 46784, Note_on_c, 14, 55, 0
14, 46800, Note_on_c, 14, 57, 76
14, 47024, Note_on_c, 14, 57, 0
14, 47040, Note_on_c, 14, 57, 76
14, 47744, Note_on_c, 14, 57, 0
14, 47760, Note_on_c, 14, 50, 76
14, 47879, Note_on_c, 14, 50, 0
14, 47880, Note_on_c, 14, 52, 76
14, 47999, Note_on_c, 14, 52, 0
14, 48000, Note_on_c, 14, 54, 76
14, 48119, Note_on_c, 14, 54, 0
14, 48120, Note_on_c, 14, 55, 76
14, 48224, Note_on_c, 14, 55, 0
14, 48240, Note_on_c, 14, 57, 76
14, 48464, Note_on_c, 14, 57, 0
14, 48480, Note_on_c, 14, 57, 76
14, 49184, Note_on_c, 14, 57, 0
14, 49200, Note_on_c, 14, 55, 76
14, 49319, Note_on_c, 14, 55, 0
14, 49320, Note_on_c, 14, 54, 76
14, 49424, Note_on_c, 14, 54, 0
14, 49440, Note_on_c, 14, 54, 76
14, 49559, Note_on_c, 14, 54, 0
14, 49560, Note_on_c, 14, 52, 76
14, 49664, Note_on_c, 14, 52, 0
14, 49680, Note_on_c, 14, 52, 76
14, 49799, Note_on_c, 14, 52, 0
14, 49800, Note_on_c, 14, 54, 76
14, 49904, Note_on_c, 14, 54, 0
14, 49920, Note_on_c, 14, 54, 76
14, 50039, Note_on_c, 14, 54, 0
14, 50040, Note_on_c, 14, 56, 76
14, 50144, Note_on_c, 14, 56, 0
14, 50160, Note_on_c, 14, 56, 76
14, 50279, Note_on_c, 14, 56, 0
14, 50280, Note_on_c, 14, 57, 76
14, 50384, Note_on_c, 14, 57, 0
14, 50400, Note_on_c, 14, 57, 76
14, 50429, Note_on_c, 14, 57, 0
14, 50430, Note_on_c, 14, 59, 76
14, 50459, Note_on_c, 14, 59, 0
14, 50460, Note_on_c, 14, 57, 76
14, 50489, Note_on_c, 14, 57, 0
14, 50490, Note_on_c, 14, 59, 76
14, 50519, Note_on_c, 14, 59, 0
14, 50520, Note_on_c, 14, 57, 76
14, 50549, Note_on_c, 14, 57, 0
14, 50550, Note_on_c, 14, 59, 76
14, 50579, Note_on_c, 14, 59, 0
14, 50580, Note_on_c, 14, 56, 76
14, 50609, Note_on_c, 14, 56, 0
14, 50610, Note_on_c, 14, 57, 76
14, 50639, Note_on_c, 14, 57, 0
14, 50640, Note_on_c, 14, 49, 76
14, 50744, Note_on_c, 14, 49, 0
14, 50760, Note_on_c, 14, 47, 76
14, 50864, Note_on_c, 14, 47, 0
14, 50880, Note_on_c, 14, 49, 76
14, 50984, Note_on_c, 14, 49, 0
14, 51000, Note_on_c, 14, 50, 76
14, 51104, Note_on_c, 14, 50, 0
14, 51120, Note_on_c, 14, 52, 76
14, 51344, Note_on_c, 14, 52, 0
14, 51360, Note_on_c, 14, 45, 76
14, 52064, Note_on_c, 14, 45, 0
14, 52080, Note_on_c, 14, 50, 76
14, 52199, Note_on_c, 14, 50, 0
14, 52200, Note_on_c, 14, 52, 76
14, 52319, Note_on_c, 14, 52, 0
14, 52320, Note_on_c, 14, 54, 76
14, 52439, Note_on_c, 14, 54, 0
14, 52440, Note_on_c, 14, 55, 76
14, 52544, Note_on_c, 14, 55, 0
14, 52560, Note_on_c, 14, 57, 76
14, 52784, Note_on_c, 14, 57, 0
14, 52800, Note_on_c, 14, 57, 76
14, 53504, Note_on_c, 14, 57, 0
14, 53520, Note_on_c, 14, 50, 76
14, 53639, Note_on_c, 14, 50, 0
14, 53640, Note_on_c, 14, 52, 76
14, 53759, Note_on_c, 14, 52, 0
14, 53760, Note_on_c, 14, 54, 76
14, 53879, Note_on_c, 14, 54, 0
14, 53880, Note_on_c, 14, 55, 76
14, 53984, Note_on_c, 14, 55, 0
14, 54000, Note_on_c, 14, 57, 76
14, 54224, Note_on_c, 14, 57, 0
14, 54240, Note_on_c, 14, 57, 76
14, 54944, Note_on_c, 14, 57, 0
14, 54960, Note_on_c, 14, 55, 76
14, 55079, Note_on_c, 14, 55, 0
14, 55080, Note_on_c, 14, 54, 76
14, 55184, Note_on_c, 14, 54, 0
14, 55200, Note_on_c, 14, 54, 76
14, 55319, Note_on_c, 14, 54, 0
14, 55320, Note_on_c, 14, 52, 76
14, 55424, Note_on_c, 14, 52, 0
14, 55440, Note_on_c, 14, 52, 76
14, 55559, Note_on_c, 14, 52, 0
14, 55560, Note_on_c, 14, 54, 76
14, 55664, Note_on_c, 14, 54, 0
14, 55680, Note_on_c, 14, 54, 76
14, 55799, Note_on_c, 14, 54, 0
14, 55800, Note_on_c, 14, 56, 76
14, 55904, Note_on_c, 14, 56, 0
14, 55920, Note_on_c, 14, 56, 76
14, 56039, Note_on_c, 14, 56, 0
14, 56040, Note_on_c, 14, 57, 76
14, 56144, Note_on_c, 14, 57, 0
14, 56160, Note_on_c, 14, 57, 76
14, 56189, Note_on_c, 14, 57, 0
14, 56190, Note_on_c, 14, 59, 76
14, 56219, Note_on_c, 14, 59, 0
14, 56220, Note_on_c, 14, 57, 76
14, 56249, Note_on_c, 14, 57, 0
14, 56250, Note_on_c, 14, 59, 76
14, 56279, Note_on_c, 14, 59, 0
14, 56280, Note_on_c, 14, 57, 76
14, 56309, Note_on_c, 14, 57, 0
14, 56310, Note_on_c, 14, 59, 76
14, 56339, Note_on_c, 14, 59, 0
14, 56340, Note_on_c, 14, 56, 76
14, 56369, Note_on_c, 14, 56, 0
14, 56370, Note_on_c, 14, 57, 76
14, 56399, Note_on_c, 14, 57, 0
14, 56400, Note_on_c, 14, 49, 76
14, 56504, Note_on_c, 14, 49, 0
14, 56520, Note_on_c, 14, 47, 76
14, 56624, Note_on_c, 14, 47, 0
14, 56640, Note_on_c, 14, 49, 76
14, 56744, Note_on_c, 14, 49, 0
14, 56760, Note_on_c, 14, 50, 76
14, 56864, Note_on_c, 14, 50, 0
14, 56880, Note_on_c, 14, 52, 76
14, 57104, Note_on_c, 14, 52, 0
14, 57120, Note_on_c, 14, 45, 76
14, 57824, Note_on_c, 14, 45, 0
14, 57840, Note_on_c, 14, 69, 76
14, 58064, Note_on_c, 14, 69, 0
14, 58080, Note_on_c, 14, 64, 76
14, 58304, Note_on_c, 14, 64, 0
14, 58320, Note_on_c, 14, 67, 76
14, 58544, Note_on_c, 14, 67, 0
14, 58560, Note_on_c, 14, 61, 76
14, 58784, Note_on_c, 14, 61, 0
14, 58800, Note_on_c, 14, 62, 76
14, 59024, Note_on_c, 14, 62, 0
14, 59040, Note_on_c, 14, 64, 76
14, 59264, Note_on_c, 14, 64, 0
14, 59280, Note_on_c, 14, 62, 76
14, 59504, Note_on_c, 14, 62, 0
14, 59520, Note_on_c, 14, 64, 76
14, 59744, Note_on_c, 14, 64, 0
14, 59760, Note_on_c, 14, 66, 76
14, 59984, Note_on_c, 14, 66, 0
14, 60000, Note_on_c, 14, 66, 76
14, 60104, Note_on_c, 14, 66, 0
14, 60120, Note_on_c, 14, 68, 76
14, 60224, Note_on_c, 14, 68, 0
14, 60240, Note_on_c, 14, 70, 76
14, 60464, Note_on_c, 14, 70, 0
14, 60480, Note_on_c, 14, 66, 76
14, 60704, Note_on_c, 14, 66, 0
14, 60720, Note_on_c, 14, 66, 76
14, 60824, Note_on_c, 14, 66, 0
14, 60840, Note_on_c, 14, 64, 76
14, 60944, Note_on_c, 14, 64, 0
14, 60960, Note_on_c, 14, 62, 76
14, 61064, Note_on_c, 14, 62, 0
14, 61080, Note_on_c, 14, 61, 76
14, 61184, Note_on_c, 14, 61, 0
14, 61200, Note_on_c, 14, 62, 76
14, 61424, Note_on_c, 14, 62, 0
14, 61440, Note_on_c, 14, 61, 76
14, 61904, Note_on_c, 14, 61, 0
14, 61920, Note_on_c, 14, 59, 76
14, 62024, Note_on_c, 14, 59, 0
14, 62040, Note_on_c, 14, 61, 76
14, 62144, Note_on_c, 14, 61, 0
14, 62160, Note_on_c, 14, 62, 76
14, 62384, Note_on_c, 14, 62, 0
14, 62400, Note_on_c, 14, 54, 76
14, 62624, Note_on_c, 14, 54, 0
14, 62640, Note_on_c, 14, 54, 76
14, 62864, Note_on_c, 14, 54, 0
14, 62880, Note_on_c, 14, 54, 76
14, 63104, Note_on_c, 14, 54, 0
14, 63120, Note_on_c, 14, 59, 76
14, 63359, Note_on_c, 14, 59, 0
14, 63600, Note_on_c, 14, 57, 76
14, 63824, Note_on_c, 14, 57, 0
14, 63840, Note_on_c, 14, 66, 76
14, 64079, Note_on_c, 14, 66, 0
14, 64320, Note_on_c, 14, 64, 76
14, 64544, Note_on_c, 14, 64, 0
14, 64560, Note_on_c, 14, 69, 76
14, 64784, Note_on_c, 14, 69, 0
14, 64800, Note_on_c, 14, 61, 76
14, 65024, Note_on_c, 14, 61, 0
14, 65040, Note_on_c, 14, 69, 76
14, 65264, Note_on_c, 14, 69, 0
14, 65280, Note_on_c, 14, 67, 76
14, 65504, Note_on_c, 14, 67, 0
14, 65520, Note_on_c, 14, 66, 76
14, 65744, Note_on_c, 14, 66, 0
14, 65760, Note_on_c, 14, 64, 76
14, 65864, Note_on_c, 14, 64, 0
14, 65880, Note_on_c, 14, 62, 76
14, 65984, Note_on_c, 14, 62, 0
14, 66000, Note_on_c, 14, 61, 76
14, 66104, Note_on_c, 14, 61, 0
14, 66120, Note_on_c, 14, 62, 76
14, 66224, Note_on_c, 14, 62, 0
14, 66240, Note_on_c, 14, 64, 76
14, 66344, Note_on_c, 14, 64, 0
14, 66360, Note_on_c, 14, 61, 76
14, 66464, Note_on_c, 14, 61, 0
14, 66480, Note_on_c, 14, 57, 76
14, 66704, Note_on_c, 14, 57, 0
14, 66720, Note_on_c, 14, 59, 76
14, 66944, Note_on_c, 14, 59, 0
14, 66960, Note_on_c, 14, 60, 76
14, 67184, Note_on_c, 14, 60, 0
14, 67200, Note_on_c, 14, 59, 76
14, 67424, Note_on_c, 14, 59, 0
14, 67440, Note_on_c, 14, 57, 76
14, 67664, Note_on_c, 14, 57, 0
14, 67680, Note_on_c, 14, 57, 76
14, 68144, Note_on_c, 14, 57, 0
14, 68160, Note_on_c, 14, 54, 76
14, 68384, Note_on_c, 14, 54, 0
14, 68400, Note_on_c, 14, 52, 76
14, 68624, Note_on_c, 14, 52, 0
14, 68640, Note_on_c, 14, 54, 76
14, 69344, Note_on_c, 14, 54, 0
14, 69360, Note_on_c, 14, 69, 76
14, 69584, Note_on_c, 14, 69, 0
14, 69600, Note_on_c, 14, 64, 76
14, 69824, Note_on_c, 14, 64, 0
14, 69840, Note_on_c, 14, 67, 76
14, 70064, Note_on_c, 14, 67, 0
14, 70080, Note_on_c, 14, 61, 76
14, 70304, Note_on_c, 14, 61, 0
14, 70320, Note_on_c, 14, 62, 76
14, 70544, Note_on_c, 14, 62, 0
14, 70560, Note_on_c, 14, 64, 76
14, 70784, Note_on_c, 14, 64, 0
14, 70800, Note_on_c, 14, 62, 76
14, 71024, Note_on_c, 14, 62, 0
14, 71040, Note_on_c, 14, 64, 76
14, 71264, Note_on_c, 14, 64, 0
14, 71280, Note_on_c, 14, 66, 76
14, 71504, Note_on_c, 14, 66, 0
14, 71520, Note_on_c, 14, 66, 76
14, 71624, Note_on_c, 14, 66, 0
14, 71640, Note_on_c, 14, 68, 76
14, 71744, Note_on_c, 14, 68, 0
14, 71760, Note_on_c, 14, 70, 76
14, 71984, Note_on_c, 14, 70, 0
14, 72000, Note_on_c, 14, 66, 76
14, 72224, Note_on_c, 14, 66, 0
14, 72240, Note_on_c, 14, 66, 76
14, 72344, Note_on_c, 14, 66, 0
14, 72360, Note_on_c, 14, 64, 76
14, 72464, Note_on_c, 14, 64, 0
14, 72480, Note_on_c, 14, 62, 76
14, 72584, Note_on_c, 14, 62, 0
14, 72600, Note_on_c, 14, 61, 76
14, 72704, Note_on_c, 14, 61, 0
14, 72720, Note_on_c, 14, 62, 76
14, 72944, Note_on_c, 14, 62, 0
14, 72960, Note_on_c, 14, 61, 76
14, 73424, Note_on_c, 14, 61, 0
14, 73440, Note_on_c, 14, 59, 76
14, 73544, Note_on_c, 14, 59, 0
14, 73560, Note_on_c, 14, 61, 76
14, 73664, Note_on_c, 14, 61, 0
14, 73680, Note_on_c, 14, 62, 76
14, 73904, Note_on_c, 14, 62, 0
14, 73920, Note_on_c, 14, 54, 76
14, 74144, Note_on_c, 14, 54, 0
14, 74160, Note_on_c, 14, 54, 76
14, 74384, Note_on_c, 14, 54, 0
14, 74400, Note_on_c, 14, 54, 76
14, 74624, Note_on_c, 14, 54, 0
14, 74640, Note_on_c, 14, 59, 76
14, 74879, Note_on_c, 14, 59, 0
14, 75120, Note_on_c, 14, 57, 76
14, 75344, Note_on_c, 14, 57, 0
14, 75360, Note_on_c, 14, 66, 76
14, 75599, Note_on_c, 14, 66, 0
14, 75840, Note_on_c, 14, 64, 76
14, 76064, Note_on_c, 14, 64, 0
14, 76080, Note_on_c, 14, 69, 76
14, 76304, Note_on_c, 14, 69, 0
14, 76320, Note_on_c, 14, 61, 76
14, 76544, Note_on_c, 14, 61, 0
14, 76560, Note_on_c, 14, 69, 76
14, 76784, Note_on_c, 14, 69, 0
14, 76800, Note_on_c, 14, 67, 76
14, 77024, Note_on_c, 14, 67, 0
14, 77040, Note_on_c, 14, 66, 76
14, 77264, Note_on_c, 14, 66, 0
14, 77280, Note_on_c, 14, 64, 76
14, 77384, Note_on_c, 14, 64, 0
14, 77400, Note_on_c, 14, 62, 76
14, 77504, Note_on_c, 14, 62, 0
14, 77520, Note_on_c, 14, 61, 76
14, 77624, Note_on_c, 14, 61, 0
14, 77640, Note_on_c, 14, 62, 76
14, 77744, Note_on_c, 14, 62, 0
14, 77760, Note_on_c, 14, 64, 76
14, 77864, Note_on_c, 14, 64, 0
14, 77880, Note_on_c, 14, 61, 76
14, 77984, Note_on_c, 14, 61, 0
14, 78000, Note_on_c, 14, 57, 76
14, 78224, Note_on_c, 14, 57, 0
14, 78240, Note_on_c, 14, 59, 76
14, 78464, Note_on_c, 14, 59, 0
14, 78480, Note_on_c, 14, 60, 76
14, 78704, Note_on_c, 14, 60, 0
14, 78720, Note_on_c, 14, 59, 76
14, 78944, Note_on_c, 14, 59, 0
14, 78960, Note_on_c, 14, 57, 76
14, 79184, Note_on_c, 14, 57, 0
14, 79200, Note_on_c, 14, 57, 76
14, 79664, Note_on_c, 14, 57, 0
14, 79680, Note_on_c, 14, 54, 76
14, 79904, Note_on_c, 14, 54, 0
14, 79920, Note_on_c, 14, 52, 76
14, 80144, Note_on_c, 14, 52, 0
14, 80160, Note_on_c, 14, 54, 76
14, 80879, Note_on_c, 14, 54, 0
14, 81120, Note_on_c, 14, 62, 76
14, 81224, Note_on_c, 14, 62, 0
14, 81240, Note_on_c, 14, 61, 76
14, 81344, Note_on_c, 14, 61, 0
14, 81360, Note_on_c, 14, 59, 76
14, 81464, Note_on_c, 14, 59, 0
14, 81480, Note_on_c, 14, 57, 76
14, 81584, Note_on_c, 14, 57, 0
14, 81600, Note_on_c, 14, 59, 76
14, 81704, Note_on_c, 14, 59, 0
14, 81720, Note_on_c, 14, 55, 76
14, 81824, Note_on_c, 14, 55, 0
14, 81840, Note_on_c, 14, 54, 76
14, 82544, Note_on_c, 14, 54, 0
14, 82560, Note_on_c, 14, 55, 76
14, 82784, Note_on_c, 14, 55, 0
14, 82800, Note_on_c, 14, 52, 76
14, 83024, Note_on_c, 14, 52, 0
14, 83040, Note_on_c, 14, 57, 76
14, 83264, Note_on_c, 14, 57, 0
14, 83280, Note_on_c, 14, 54, 76
14, 83504, Note_on_c, 14, 54, 0
14, 83520, Note_on_c, 14, 52, 76
14, 83744, Note_on_c, 14, 52, 0
14, 83760, Note_on_c, 14, 50, 76
14, 83984, Note_on_c, 14, 50, 0
14, 84000, Note_on_c, 14, 49, 76
14, 84104, Note_on_c, 14, 49, 0
14, 84120, Note_on_c, 14, 47, 76
14, 84224, Note_on_c, 14, 47, 0
14, 84240, Note_on_c, 14, 45, 76
14, 84344, Note_on_c, 14, 45, 0
14, 84360, Note_on_c, 14, 43, 76
14, 84464, Note_on_c, 14, 43, 0
14, 84480, Note_on_c, 14, 45, 76
14, 84584, Note_on_c, 14, 45, 0
14, 84600, Note_on_c, 14, 42, 76
14, 84704, Note_on_c, 14, 42, 0
14, 84720, Note_on_c, 14, 47, 76
14, 84944, Note_on_c, 14, 47, 0
14, 84960, Note_on_c, 14, 49, 76
14, 85184, Note_on_c, 14, 49, 0
14, 85200, Note_on_c, 14, 45, 76
14, 85424, Note_on_c, 14, 45, 0
14, 85440, Note_on_c, 14, 50, 76
14, 85664, Note_on_c, 14, 50, 0
14, 85680, Note_on_c, 14, 47, 76
14, 85904, Note_on_c, 14, 47, 0
14, 85920, Note_on_c, 14, 52, 76
14, 86144, Note_on_c, 14, 52, 0
14, 86160, Note_on_c, 14, 45, 76
14, 86384, Note_on_c, 14, 45, 0
14, 86400, Note_on_c, 14, 57, 76
14, 86504, Note_on_c, 14, 57, 0
14, 86520, Note_on_c, 14, 59, 76
14, 86624, Note_on_c, 14, 59, 0
14, 86640, Note_on_c, 14, 61, 76
14, 86744, Note_on_c, 14, 61, 0
14, 86760, Note_on_c, 14, 57, 76
14, 86864, Note_on_c, 14, 57, 0
14, 86880, Note_on_c, 14, 62, 76
14, 86984, Note_on_c, 14, 62, 0
14, 87000, Note_on_c, 14, 61, 76
14, 87104, Note_on_c, 14, 61, 0
14, 87120, Note_on_c, 14, 59, 76
14, 87224, Note_on_c, 14, 59, 0
14, 87240, Note_on_c, 14, 57, 76
14, 87344, Note_on_c, 14, 57, 0
14, 87360, Note_on_c, 14, 59, 76
14, 87464, Note_on_c, 14, 59, 0
14, 87480, Note_on_c, 14, 55, 76
14, 87584, Note_on_c, 14, 55, 0
14, 87600, Note_on_c, 14, 54, 76
14, 88304, Note_on_c, 14, 54, 0
14, 88320, Note_on_c, 14, 55, 76
14, 88544, Note_on_c, 14, 55, 0
14, 88560, Note_on_c, 14, 52, 76
14, 88784, Note_on_c, 14, 52, 0
14, 88800, Note_on_c, 14, 57, 76
14, 89024, Note_on_c, 14, 57, 0
14, 89040, Note_on_c, 14, 54, 76
14, 89264, Note_on_c, 14, 54, 0
14, 89280, Note_on_c, 14, 52, 76
14, 89504, Note_on_c, 14, 52, 0
14, 89520, Note_on_c, 14, 50, 76
14, 89744, Note_on_c, 14, 50, 0
14, 89760, Note_on_c, 14, 49, 76
14, 89864, Note_on_c, 14, 49, 0
14, 89880, Note_on_c, 14, 47, 76
14, 89984, Note_on_c, 14, 47, 0
14, 90000, Note_on_c, 14, 45, 76
14, 90104, Note_on_c, 14, 45, 0
14, 90120, Note_on_c, 14, 43, 76
14, 90224, Note_on_c, 14, 43, 0
14, 90240, Note_on_c, 14, 45, 76
14, 90344, Note_on_c, 14, 45, 0
14, 90360, Note_on_c, 14, 42, 76
14, 90464, Note_on_c, 14, 42, 0
14, 90480, Note_on_c, 14, 47, 76
14, 90704, Note_on_c, 14, 47, 0
14, 90720, Note_on_c, 14, 49, 76
14, 90944, Note_on_c, 14, 49, 0
14, 90960, Note_on_c, 14, 45, 76
14, 91184, Note_on_c, 14, 45, 0
14, 91200, Note_on_c, 14, 50, 76
14, 91424, Note_on_c, 14, 50, 0
14, 91440, Note_on_c, 14, 47, 76
14, 91664, Note_on_c, 14, 47, 0
14, 91680, Note_on_c, 14, 52, 76
14, 91904, Note_on_c, 14, 52, 0
14, 91920, Note_on_c, 14, 45, 76
14, 92144, Note_on_c, 14, 45, 0
14, 92160, Note_on_c, 14, 49, 76
14, 92384, Note_on_c, 14, 49, 0
14, 92400, Note_on_c, 14, 52, 76
14, 92624, Note_on_c, 14, 52, 0
14, 92640, Note_on_c, 14, 57, 76
14, 93104, Note_on_c, 14, 57, 0
14, 93120, Note_on_c, 14, 56, 76
14, 93344, Note_on_c, 14, 56, 0
14, 93360, Note_on_c, 14, 57, 76
14, 93584, Note_on_c, 14, 57, 0
14, 93600, Note_on_c, 14, 55, 76
14, 93704, Note_on_c, 14, 55, 0
14, 93720, Note_on_c, 14, 54, 76
14, 93824, Note_on_c, 14, 54, 0
14, 93840, Note_on_c, 14, 55, 76
14, 93944, Note_on_c, 14, 55, 0
14, 93960, Note_on_c, 14, 52, 76
14, 94064, Note_on_c, 14, 52, 0
14, 94080, Note_on_c, 14, 54, 76
14, 94304, Note_on_c, 14, 54, 0
14, 94320, Note_on_c, 14, 55, 76
14, 94544, Note_on_c, 14, 55, 0
14, 94560, Note_on_c, 14, 57, 76
14, 94784, Note_on_c, 14, 57, 0
14, 94800, Note_on_c, 14, 50, 76
14, 95024, Note_on_c, 14, 50, 0
14, 95040, Note_on_c, 14, 62, 76
14, 95264, Note_on_c, 14, 62, 0
14, 95280, Note_on_c, 14, 57, 76
14, 95504, Note_on_c, 14, 57, 0
14, 95520, Note_on_c, 14, 54, 76
14, 95624, Note_on_c, 14, 54, 0
14, 95640, Note_on_c, 14, 52, 76
14, 95744, Note_on_c, 14, 52, 0
14, 95760, Note_on_c, 14, 51, 76
14, 95864, Note_on_c, 14, 51, 0
14, 95880, Note_on_c, 14, 49, 76
14, 95984, Note_on_c, 14, 49, 0
14, 96000, Note_on_c, 14, 51, 76
14, 96104, Note_on_c, 14, 51, 0
14, 96120, Note_on_c, 14, 47, 76
14, 96224, Note_on_c, 14, 47, 0
14, 96240, Note_on_c, 14, 52, 76
14, 96464, Note_on_c, 14, 52, 0
14, 96480, Note_on_c, 14, 59, 76
14, 96704, Note_on_c, 14, 59, 0
14, 96720, Note_on_c, 14, 60, 76
14, 96944, Note_on_c, 14, 60, 0
14, 96960, Note_on_c, 14, 57, 76
14, 97184, Note_on_c, 14, 57, 0
14, 97200, Note_on_c, 14, 59, 76
14, 97424, Note_on_c, 14, 59, 0
14, 97440, Note_on_c, 14, 47, 76
14, 97664, Note_on_c, 14, 47, 0
14, 97680, Note_on_c, 14, 52, 76
14, 97904, Note_on_c, 14, 52, 0
14, 97920, Note_on_c, 14, 43, 76
14, 98144, Note_on_c, 14, 43, 0
14, 98160, Note_on_c, 14, 47, 76
14, 98384, Note_on_c, 14, 47, 0
14, 98400, Note_on_c, 14, 40, 76
14, 98624, Note_on_c, 14, 40, 0
14, 98640, Note_on_c, 14, 52, 76
14, 98744, Note_on_c, 14, 52, 0
14, 98760, Note_on_c, 14, 54, 76
14, 98864, Note_on_c, 14, 54, 0
14, 98880, Note_on_c, 14, 55, 76
14, 98984, Note_on_c, 14, 55, 0
14, 99000, Note_on_c, 14, 52, 76
14, 99104, Note_on_c, 14, 52, 0
14, 99120, Note_on_c, 14, 57, 76
14, 99224, Note_on_c, 14, 57, 0
14, 99240, Note_on_c, 14, 55, 76
14, 99344, Note_on_c, 14, 55, 0
14, 99360, Note_on_c, 14, 57, 76
14, 99464, Note_on_c, 14, 57, 0
14, 99480, Note_on_c, 14, 59, 76
14, 99584, Note_on_c, 14, 59, 0
14, 99600, Note_on_c, 14, 61, 76
14, 99704, Note_on_c, 14, 61, 0
14, 99720, Note_on_c, 14, 57, 76
14, 99824, Note_on_c, 14, 57, 0
14, 99840, Note_on_c, 14, 62, 76
14, 100064, Note_on_c, 14, 62, 0
14, 100080, Note_on_c, 14, 50, 76
14, 100184, Note_on_c, 14, 50, 0
14, 100200, Note_on_c, 14, 52, 76
14, 100304, Note_on_c, 14, 52, 0
14, 100320, Note_on_c, 14, 54, 76
14, 100424, Note_on_c, 14, 54, 0
14, 100440, Note_on_c, 14, 50, 76
14, 100544, Note_on_c, 14, 50, 0
14, 100560, Note_on_c, 14, 55, 76
14, 100664, Note_on_c, 14, 55, 0
14, 100680, Note_on_c, 14, 54, 76
14, 100784, Note_on_c, 14, 54, 0
14, 100800, Note_on_c, 14, 55, 76
14, 100904, Note_on_c, 14, 55, 0
14, 100920, Note_on_c, 14, 57, 76
14, 101024, Note_on_c, 14, 57, 0
14, 101040, Note_on_c, 14, 59, 76
14, 101144, Note_on_c, 14, 59, 0
14, 101160, Note_on_c, 14, 55, 76
14, 101264, Note_on_c, 14, 55, 0
14, 101280, Note_on_c, 14, 57, 76
14, 101504, Note_on_c, 14, 57, 0
14, 101520, Note_on_c, 14, 55, 76
14, 101624, Note_on_c, 14, 55, 0
14, 101640, Note_on_c, 14, 54, 76
14, 101744, Note_on_c, 14, 54, 0
14, 101760, Note_on_c, 14, 55, 76
14, 101864, Note_on_c, 14, 55, 0
14, 101880, Note_on_c, 14, 52, 76
14, 101984, Note_on_c, 14, 52, 0
14, 102000, Note_on_c, 14, 54, 76
14, 102104, Note_on_c, 14, 54, 0
14, 102120, Note_on_c, 14, 52, 76
14, 102224, Note_on_c, 14, 52, 0
14, 102240, Note_on_c, 14, 50, 76
14, 102344, Note_on_c, 14, 50, 0
14, 102360, Note_on_c, 14, 52, 76
14, 102464, Note_on_c, 14, 52, 0
14, 102480, Note_on_c, 14, 54, 76
14, 102584, Note_on_c, 14, 54, 0
14, 102600, Note_on_c, 14, 50, 76
14, 102704, Note_on_c, 14, 50, 0
14, 102720, Note_on_c, 14, 55, 76
14, 102944, Note_on_c, 14, 55, 0
14, 102960, Note_on_c, 14, 52, 76
14, 103184, Note_on_c, 14, 52, 0
14, 103200, Note_on_c, 14, 50, 76
14, 103424, Note_on_c, 14, 50, 0
14, 103440, Note_on_c, 14, 57, 76
14, 103904, Note_on_c, 14, 57, 0
14, 103920, Note_on_c, 14, 55, 76
14, 104144, Note_on_c, 14, 55, 0
14, 104160, Note_on_c, 14, 54, 76
14, 104264, Note_on_c, 14, 54, 0
14, 104280, Note_on_c, 14, 52, 76
14, 104384, Note_on_c, 14, 52, 0
14, 104400, Note_on_c, 14, 54, 76
14, 104504, Note_on_c, 14, 54, 0
14, 104520, Note_on_c, 14, 55, 76
14, 104624, Note_on_c, 14, 55, 0
14, 104640, Note_on_c, 14, 57, 76
14, 104744, Note_on_c, 14, 57, 0
14, 104760, Note_on_c, 14, 59, 76
14, 104864, Note_on_c, 14, 59, 0
14, 104880, Note_on_c, 14, 60, 76
14, 105104, Note_on_c, 14, 60, 0
14, 105120, Note_on_c, 14, 54, 76
14, 105224, Note_on_c, 14, 54, 0
14, 105240, Note_on_c, 14, 52, 76
14, 105344, Note_on_c, 14, 52, 0
14, 105360, Note_on_c, 14, 54, 76
14, 105464, Note_on_c, 14, 54, 0
14, 105480, Note_on_c, 14, 50, 76
14, 105584, Note_on_c, 14, 50, 0
14, 105600, Note_on_c, 14, 55, 76
14, 105704, Note_on_c, 14, 55, 0
14, 105720, Note_on_c, 14, 57, 76
14, 105824, Note_on_c, 14, 57, 0
14, 105840, Note_on_c, 14, 55, 76
14, 105944, Note_on_c, 14, 55, 0
14, 105960, Note_on_c, 14, 54, 76
14, 106064, Note_on_c, 14, 54, 0
14, 106080, Note_on_c, 14, 52, 76
14, 106184, Note_on_c, 14, 52, 0
14, 106200, Note_on_c, 14, 50, 76
14, 106304, Note_on_c, 14, 50, 0
14, 106320, Note_on_c, 14, 49, 76
14, 106424, Note_on_c, 14, 49, 0
14, 106440, Note_on_c, 14, 50, 76
14, 106544, Note_on_c, 14, 50, 0
14, 106560, Note_on_c, 14, 49, 76
14, 106664, Note_on_c, 14, 49, 0
14, 106680, Note_on_c, 14, 47, 76
14, 106784, Note_on_c, 14, 47, 0
14, 106800, Note_on_c, 14, 49, 76
14, 106904, Note_on_c, 14, 49, 0
14, 106920, Note_on_c, 14, 45, 76
14, 107024, Note_on_c, 14, 45, 0
14, 107040, Note_on_c, 14, 50, 76
14, 107144, Note_on_c, 14, 50, 0
14, 107160, Note_on_c, 14, 49, 76
14, 107264, Note_on_c, 14, 49, 0
14, 107280, Note_on_c, 14, 47, 76
14, 107384, Note_on_c, 14, 47, 0
14, 107400, Note_on_c, 14, 45, 76
14, 107504, Note_on_c, 14, 45, 0
14, 107520, Note_on_c, 14, 47, 76
14, 107624, Note_on_c, 14, 47, 0
14, 107640, Note_on_c, 14, 43, 76
14, 107744, Note_on_c, 14, 43, 0
14, 107760, Note_on_c, 14, 42, 76
14, 108464, Note_on_c, 14, 42, 0
14, 108480, Note_on_c, 14, 43, 76
14, 108704, Note_on_c, 14, 43, 0
14, 108720, Note_on_c, 14, 40, 76
14, 108944, Note_on_c, 14, 40, 0
14, 108960, Note_on_c, 14, 45, 76
14, 109184, Note_on_c, 14, 45, 0
14, 109200, Note_on_c, 14, 38, 76
14, 109904, Note_on_c, 14, 38, 0
14, 109920, Note_on_c, 14, 57, 76
14, 110384, Note_on_c, 14, 57, 0
14, 110400, Note_on_c, 14, 56, 76
14, 110624, Note_on_c, 14, 56, 0
14, 110640, Note_on_c, 14, 57, 76
14, 110864, Note_on_c, 14, 57, 0
14, 110880, Note_on_c, 14, 55, 76
14, 110984, Note_on_c, 14, 55, 0
14, 111000, Note_on_c, 14, 54, 76
14, 111104, Note_on_c, 14, 54, 0
14, 111120, Note_on_c, 14, 55, 76
14, 111224, Note_on_c, 14, 55, 0
14, 111240, Note_on_c, 14, 52, 76
14, 111344, Note_on_c, 14, 52, 0
14, 111360, Note_on_c, 14, 54, 76
14, 111584, Note_on_c, 14, 54, 0
14, 111600, Note_on_c, 14, 55, 76
14, 111824, Note_on_c, 14, 55, 0
14, 111840, Note_on_c, 14, 57, 76
14, 112064, Note_on_c, 14, 57, 0
14, 112080, Note_on_c, 14, 50, 76
14, 112304, Note_on_c, 14, 50, 0
14, 112320, Note_on_c, 14, 62, 76
14, 112544, Note_on_c, 14, 62, 0
14, 112560, Note_on_c, 14, 57, 76
14, 112784, Note_on_c, 14, 57, 0
14, 112800, Note_on_c, 14, 54, 76
14, 112904, Note_on_c, 14, 54, 0
14, 112920, Note_on_c, 14, 52, 76
14, 113024, Note_on_c, 14, 52, 0
14, 113040, Note_on_c, 14, 51, 76
14, 113144, Note_on_c, 14, 51, 0
14, 113160, Note_on_c, 14, 49, 76
14, 113264, Note_on_c, 14, 49, 0
14, 113280, Note_on_c, 14, 51, 76
14, 113384, Note_on_c, 14, 51, 0
14, 113400, Note_on_c, 14, 47, 76
14, 113504, Note_on_c, 14, 47, 0
14, 113520, Note_on_c, 14, 52, 76
14, 113744, Note_on_c, 14, 52, 0
14, 113760, Note_on_c, 14, 59, 76
14, 113984, Note_on_c, 14, 59, 0
14, 114000, Note_on_c, 14, 60, 76
14, 114224, Note_on_c, 14, 60, 0
14, 114240, Note_on_c, 14, 57, 76
14, 114464, Note_on_c, 14, 57, 0
14, 114480, Note_on_c, 14, 59, 76
14, 114704, Note_on_c, 14, 59, 0
14, 114720, Note_on_c, 14, 47, 76
14, 114944, Note_on_c, 14, 47, 0
14, 114960, Note_on_c, 14, 52, 76
14, 115184, Note_on_c, 14, 52, 0
14, 115200, Note_on_c, 14, 43, 76
14, 115424, Note_on_c, 14, 43, 0
14, 115440, Note_on_c, 14, 47, 76
14, 115664, Note_on_c, 14, 47, 0
14, 115680, Note_on_c, 14, 40, 76
14, 115904, Note_on_c, 14, 40, 0
14, 115920, Note_on_c, 14, 52, 76
14, 116024, Note_on_c, 14, 52, 0
14, 116040, Note_on_c, 14, 54, 76
14, 116144, Note_on_c, 14, 54, 0
14, 116160, Note_on_c, 14, 55, 76
14, 116264, Note_on_c, 14, 55, 0
14, 116280, Note_on_c, 14, 52, 76
14, 116384, Note_on_c, 14, 52, 0
14, 116400, Note_on_c, 14, 57, 76
14, 116504, Note_on_c, 14, 57, 0
14, 116520, Note_on_c, 14, 55, 76
14, 116624, Note_on_c, 14, 55, 0
14, 116640, Note_on_c, 14, 57, 76
14, 116744, Note_on_c, 14, 57, 0
14, 116760, Note_on_c, 14, 59, 76
14, 116864, Note_on_c, 14, 59, 0
14, 116880, Note_on_c, 14, 61, 76
14, 116984, Note_on_c, 14, 61, 0
14, 117000, Note_on_c, 14, 57, 76
14, 117104, Note_on_c, 14, 57, 0
14, 117120, Note_on_c, 14, 62, 76
14, 117344, Note_on_c, 14, 62, 0
14, 117360, Note_on_c, 14, 50, 76
14, 117464, Note_on_c, 14, 50, 0
14, 117480, Note_on_c, 14, 52, 76
14, 117584, Note_on_c, 14, 52, 0
14, 117600, Note_on_c, 14, 54, 76
14, 117704, Note_on_c, 14, 54, 0
14, 117720, Note_on_c, 14, 50, 76
14, 117824, Note_on_c, 14, 50, 0
14, 117840, Note_on_c, 14, 55, 76
14, 117944, Note_on_c, 14, 55, 0
14, 117960, Note_on_c, 14, 54, 76
14, 118064, Note_on_c, 14, 54, 0
14, 118080, Note_on_c, 14, 55, 76
14, 118184, Note_on_c, 14, 55, 0
14, 118200, Note_on_c, 14, 57, 76
14, 118304, Note_on_c, 14, 57, 0
14, 118320, Note_on_c, 14, 59, 76
14, 118424, Note_on_c, 14, 59, 0
14, 118440, Note_on_c, 14, 55, 76
14, 118544, Note_on_c, 14, 55, 0
14, 118560, Note_on_c, 14, 57, 76
14, 118784, Note_on_c, 14, 57, 0
14, 118800, Note_on_c, 14, 55, 76
14, 118904, Note_on_c, 14, 55, 0
14, 118920, Note_on_c, 14, 54, 76
14, 119024, Note_on_c, 14, 54, 0
14, 119040, Note_on_c, 14, 55, 76
14, 119144, Note_on_c, 14, 55, 0
14, 119160, Note_on_c, 14, 52, 76
14, 119264, Note_on_c, 14, 52, 0
14, 119280, Note_on_c, 14, 54, 76
14, 119384, Note_on_c, 14, 54, 0
14, 119400, Note_on_c, 14, 52, 76
14, 119504, Note_on_c, 14, 52, 0
14, 119520, Note_on_c, 14, 50, 76
14, 119624, Note_on_c, 14, 50, 0
14, 119640, Note_on_c, 14, 52, 76
14, 119744, Note_on_c, 14, 52, 0
14, 119760, Note_on_c, 14, 54, 76
14, 119864, Note_on_c, 14, 54, 0
14, 119880, Note_on_c, 14, 50, 76
14, 119984, Note_on_c, 14, 50, 0
14, 120000, Note_on_c, 14, 55, 76
14, 120224, Note_on_c, 14, 55, 0
14, 120240, Note_on_c, 14, 52, 76
14, 120464, Note_on_c, 14, 52, 0
14, 120480, Note_on_c, 14, 50, 76
14, 120704, Note_on_c, 14, 50, 0
14, 120720, Note_on_c, 14, 57, 76
14, 121184, Note_on_c, 14, 57, 0
14, 121200, Note_on_c, 14, 55, 76
14, 121424, Note_on_c, 14, 55, 0
14, 121440, Note_on_c, 14, 54, 76
14, 121544, Note_on_c, 14, 54, 0
14, 121560, Note_on_c, 14, 52, 76
14, 121664, Note_on_c, 14, 52, 0
14, 121680, Note_on_c, 14, 54, 76
14, 121784, Note_on_c, 14, 54, 0
14, 121800, Note_on_c, 14, 55, 76
14, 121904, Note_on_c, 14, 55, 0
14, 121920, Note_on_c, 14, 57, 76
14, 122024, Note_on_c, 14, 57, 0
14, 122040, Note_on_c, 14, 59, 76
14, 122144, Note_on_c, 14, 59, 0
14, 122160, Note_on_c, 14, 60, 76
14, 122384, Note_on_c, 14, 60, 0
14, 122400, Note_on_c, 14, 54, 76
14, 122504, Note_on_c, 14, 54, 0
14, 122520, Note_on_c, 14, 52, 76
14, 122624, Note_on_c, 14, 52, 0
14, 122640, Note_on_c, 14, 54, 76
14, 122744, Note_on_c, 14, 54, 0
14, 122760, Note_on_c, 14, 50, 76
14, 122864, Note_on_c, 14, 50, 0
14, 122880, Note_on_c, 14, 55, 76
14, 122984, Note_on_c, 14, 55, 0
14, 123000, Note_on_c, 14, 57, 76
14, 123104, Note_on_c, 14, 57, 0
14, 123120, Note_on_c, 14, 55, 76
14, 123224, Note_on_c, 14, 55, 0
14, 123240, Note_on_c, 14, 54, 76
14, 123344, Note_on_c, 14, 54, 0
14, 123360, Note_on_c, 14, 52, 76
14, 123464, Note_on_c, 14, 52, 0
14, 123480, Note_on_c, 14, 50, 76
14, 123584, Note_on_c, 14, 50, 0
14, 123600, Note_on_c, 14, 49, 76
14, 123704, Note_on_c, 14, 49, 0
14, 123720, Note_on_c, 14, 50, 76
14, 123824, Note_on_c, 14, 50, 0
14, 123840, Note_on_c, 14, 49, 76
14, 123944, Note_on_c, 14, 49, 0
14, 123960, Note_on_c, 14, 47, 76
14, 124064, Note_on_c, 14, 47, 0
14, 124080, Note_on_c, 14, 49, 76
14, 124184, Note_on_c, 14, 49, 0
14, 124200, Note_on_c, 14, 45, 76
14, 124304, Note_on_c, 14, 45, 0
14, 124320, Note_on_c, 14, 50, 76
14, 124424, Note_on_c, 14, 50, 0
14, 124440, Note_on_c, 14, 49, 76
14, 124544, Note_on_c, 14, 49, 0
14, 124560, Note_on_c, 14, 47, 76
14, 124664, Note_on_c, 14, 47, 0
14, 124680, Note_on_c, 14, 45, 76
14, 124784, Note_on_c, 14, 45, 0
14, 124800, Note_on_c, 14, 47, 76
14, 124904, Note_on_c, 14, 47, 0
14, 124920, Note_on_c, 14, 43, 76
14, 125024, Note_on_c, 14, 43, 0
14, 125040, Note_on_c, 14, 42, 76
14, 125744, Note_on_c, 14, 42, 0
14, 125760, Note_on_c, 14, 43, 76
14, 125984, Note_on_c, 14, 43, 0
14, 126000, Note_on_c, 14, 40, 76
14, 126224, Note_on_c, 14, 40, 0
14, 126240, Note_on_c, 14, 45, 76
14, 126464, Note_on_c, 14, 45, 0
14, 126480, Note_on_c, 14, 38, 76
14, 127199, Note_on_c, 14, 38, 0
14, 127199, End_track
15, 0, Start_track
15, 0, Title_t, "Johann Sebastian Bach - Orchestral Suite No. 4 in D Major, BWV1069 - No. 4 Menuet I and II"
15, 0, MIDI_port, 0
15, 0, End_track
0, 0, End_of_file
