0, 0, Header, 1, 16, 480
1, 0, Start_track
1, 0, Title_t, "BWV1048B.MID"
1, 0, SMPTE_offset, 96, 0, 0, 0, 0
1, 0, Tempo, 1000000
1, 0, Time_signature, 4, 2, 24, 8
1, 0, Marker_t, "Brandenburg3-2"
1, 0, Key_signature, -5, "minor"
1, 1920, Tempo, 384375
1, 3120, Tempo, 339154
1, 4080, Tempo, 384375
1, 5040, Tempo, 339154
1, 5520, Tempo, 384375
1, 6000, Tempo, 360352
1, 8160, Tempo, 339154
1, 9360, Tempo, 360352
1, 9840, Tempo, 339154
1, 11520, Tempo, 349431
1, 12480, Tempo, 360352
1, 13680, Tempo, 339154
1, 15120, Tempo, 360352
1, 15600, Tempo, 339154
1, 19200, Tempo, 384375
1, 19440, Tempo, 339154
1, 28560, Tempo, 360352
1, 32880, Tempo, 339154
1, 34560, Tempo, 349431
1, 36000, Tempo, 384375
1, 36240, Tempo, 411830
1, 36720, Tempo, 384375
1, 37200, Tempo, 339154
1, 40080, Tempo, 360352
1, 40560, Tempo, 339154
1, 42960, Tempo, 360352
1, 43440, Tempo, 339154
1, 45840, Tempo, 360352
1, 47280, Tempo, 339154
1, 54720, Tempo, 360352
1, 55440, Tempo, 384375
1, 55920, Tempo, 339154
1, 61200, Tempo, 384375
1, 61680, Tempo, 339154
1, 65280, Tempo, 360352
1, 66960, Tempo, 428571
1, 67680, Tempo, 339154
1, 71040, Tempo, 349431
1, 74640, Tempo, 384375
1, 75120, Tempo, 339154
1, 80160, Tempo, 384375
1, 80640, Tempo, 388690
1, 81312, Tempo, 375000
1, 84480, Tempo, 882352
1, 94080, Marker_t, "Brandenburg3-3"
1, 95760, Tempo, 545454
1, 96000, Key_signature, -6, "major"
1, 96000, Time_signature, 12, 3, 24, 8
1, 96240, Tempo, 508474
1, 101520, Tempo, 545454
1, 101760, Tempo, 508474
1, 124560, Tempo, 545454
1, 125040, Tempo, 508474
1, 129600, Tempo, 545454
1, 130800, Tempo, 508474
1, 136080, Tempo, 545454
1, 136560, Tempo, 508474
1, 164160, Tempo, 545454
1, 164400, Tempo, 600000
1, 165360, Tempo, 508474
1, 176400, Tempo, 545454
1, 176880, Tempo, 508474
1, 182400, Tempo, 545454
1, 182640, Tempo, 508474
1, 196560, Tempo, 545454
1, 197040, Tempo, 508474
1, 216720, Tempo, 545454
1, 217200, Tempo, 508474
1, 219840, Tempo, 545454
1, 220080, Tempo, 500000
1, 240000, Tempo, 545454
1, 240240, Tempo, 508474
1, 249840, Tempo, 545454
1, 250320, Tempo, 508474
1, 254160, Tempo, 545454
1, 254640, Tempo, 508474
1, 267840, Tempo, 517241
1, 268320, Tempo, 545454
1, 268560, Tempo, 750000
1, 268800, Tempo, 545454
1, 269040, Tempo, 508474
1, 280080, Tempo, 545454
1, 280560, Tempo, 508474
1, 285840, Tempo, 521739
1, 286320, Tempo, 508474
1, 300240, Tempo, 555555
1, 300720, Tempo, 508474
1, 314652, Tempo, 545454
1, 315060, Tempo, 508474
1, 323178, Tempo, 545454
1, 323718, Tempo, 508474
1, 343680, Tempo, 545454
1, 343920, Tempo, 508474
1, 348000, Tempo, 545454
1, 348240, Tempo, 508474
1, 357840, Tempo, 545454
1, 358320, Tempo, 508474
1, 366720, Tempo, 545454
1, 366960, Tempo, 508474
1, 369360, Tempo, 526315
1, 369594, Tempo, 508474
1, 371520, Tempo, 517241
1, 371760, Tempo, 600000
1, 372000, Tempo, 666666
1, 372120, Tempo, 1000000
1, 372240, Tempo, 2000000
1, 372720, Tempo, 250000
1, 378240, End_track
2, 0, Start_track
2, 0, Instrument_name_t, "SC88-A"
2, 0, Title_t, "cntrl"
2, 0, System_exclusive, 10, 65, 16, 66, 18, 64, 0, 127, 0, 65, 247
2, 780, Control_c, 0, 121, 0
2, 780, Control_c, 1, 121, 0
2, 780, Control_c, 2, 121, 0
2, 780, Control_c, 3, 121, 0
2, 780, Control_c, 4, 121, 0
2, 780, Control_c, 5, 121, 0
2, 780, Control_c, 6, 121, 0
2, 780, Control_c, 7, 121, 0
2, 780, Control_c, 8, 121, 0
2, 780, Control_c, 9, 121, 0
2, 780, Control_c, 10, 121, 0
2, 780, Control_c, 11, 121, 0
2, 780, Control_c, 12, 121, 0
2, 780, Control_c, 13, 121, 0
2, 780, Control_c, 14, 121, 0
2, 780, Control_c, 15, 121, 0
2, 790, System_exclusive, 10, 65, 16, 66, 18, 64, 0, 4, 127, 61, 247
2, 810, System_exclusive, 10, 65, 16, 66, 18, 64, 1, 48, 3, 12, 247
2, 830, System_exclusive, 10, 65, 16, 66, 18, 64, 1, 51, 95, 45, 247
2, 1490, Text_t, "Tuning"
2, 1492, System_exclusive, 21, 65, 16, 66, 18, 64, 17, 64, 64, 72, 68, 76, 66, 68, 70, 66, 74, 64, 72, 68, 51, 247
2, 1493, System_exclusive, 21, 65, 16, 66, 18, 64, 18, 64, 64, 72, 68, 76, 66, 68, 70, 66, 74, 64, 72, 68, 50, 247
2, 1494, System_exclusive, 21, 65, 16, 66, 18, 64, 19, 64, 64, 72, 68, 76, 66, 68, 70, 66, 74, 64, 72, 68, 49, 247
2, 1495, System_exclusive, 21, 65, 16, 66, 18, 64, 20, 64, 64, 72, 68, 76, 66, 68, 70, 66, 74, 64, 72, 68, 48, 247
2, 1496, System_exclusive, 21, 65, 16, 66, 18, 64, 21, 64, 64, 72, 68, 76, 66, 68, 70, 66, 74, 64, 72, 68, 47, 247
2, 1497, System_exclusive, 21, 65, 16, 66, 18, 64, 22, 64, 64, 72, 68, 76, 66, 68, 70, 66, 74, 64, 72, 68, 46, 247
2, 1498, System_exclusive, 21, 65, 16, 66, 18, 64, 23, 64, 64, 72, 68, 76, 66, 68, 70, 66, 74, 64, 72, 68, 45, 247
2, 1499, System_exclusive, 21, 65, 16, 66, 18, 64, 24, 64, 64, 72, 68, 76, 66, 68, 70, 66, 74, 64, 72, 68, 44, 247
2, 1501, System_exclusive, 21, 65, 16, 66, 18, 64, 25, 64, 64, 72, 68, 76, 66, 68, 70, 66, 74, 64, 72, 68, 43, 247
2, 1502, System_exclusive, 21, 65, 16, 66, 18, 64, 16, 64, 64, 72, 68, 76, 66, 68, 70, 66, 74, 64, 72, 68, 52, 247
2, 1503, System_exclusive, 21, 65, 16, 66, 18, 64, 26, 64, 64, 72, 68, 76, 66, 68, 70, 66, 74, 64, 72, 68, 42, 247
2, 1504, System_exclusive, 21, 65, 16, 66, 18, 64, 27, 64, 64, 72, 68, 76, 66, 68, 70, 66, 74, 64, 72, 68, 41, 247
2, 1505, System_exclusive, 21, 65, 16, 66, 18, 64, 28, 64, 64, 72, 68, 76, 66, 68, 70, 66, 74, 64, 72, 68, 40, 247
2, 1506, System_exclusive, 21, 65, 16, 66, 18, 64, 29, 64, 64, 72, 68, 76, 66, 68, 70, 66, 74, 64, 72, 68, 39, 247
2, 1507, System_exclusive, 21, 65, 16, 66, 18, 64, 30, 64, 64, 72, 68, 76, 66, 68, 70, 66, 74, 64, 72, 68, 38, 247
2, 1508, System_exclusive, 21, 65, 16, 66, 18, 64, 31, 64, 64, 72, 68, 76, 66, 68, 70, 66, 74, 64, 72, 68, 37, 247
2, 378240, End_track
3, 0, Start_track
3, 0, Instrument_name_t, "SC88-A"
3, 0, Title_t, "Violino.1"
3, 1440, Control_c, 1, 101, 0
3, 1450, Control_c, 1, 100, 0
3, 1450, Control_c, 1, 6, 0
3, 1470, Control_c, 1, 0, 0
3, 1480, Control_c, 1, 32, 1
3, 1490, Program_c, 1, 40
3, 1500, Control_c, 1, 10, 29
3, 1510, Control_c, 1, 11, 100
3, 1520, Control_c, 1, 7, 125
3, 1530, Control_c, 1, 93, 0
3, 1540, Control_c, 1, 91, 0
3, 1550, Pitch_bend_c, 1, 8192
3, 1560, Control_c, 1, 1, 0
3, 1570, Control_c, 1, 64, 0
3, 1580, Control_c, 1, 91, 64
3, 1590, Control_c, 1, 99, 1
3, 1600, Control_c, 1, 98, 32
3, 1610, Control_c, 1, 6, 75
3, 1620, Control_c, 1, 98, 33
3, 1630, Control_c, 1, 6, 60
3, 1640, Control_c, 1, 98, 99
3, 1650, Control_c, 1, 6, 64
3, 1660, Control_c, 1, 98, 100
3, 1670, Control_c, 1, 6, 64
3, 1680, Control_c, 1, 98, 102
3, 1690, Control_c, 1, 6, 64
3, 1960, Control_c, 1, 11, 84
3, 1980, Control_c, 1, 11, 50
3, 2012, Control_c, 1, 11, 55
3, 2045, Control_c, 1, 11, 60
3, 2074, Note_on_c, 1, 75, 87
3, 2077, Control_c, 1, 11, 65
3, 2110, Control_c, 1, 11, 70
3, 2142, Control_c, 1, 11, 75
3, 2175, Control_c, 1, 11, 81
3, 2207, Control_c, 1, 11, 86
3, 2240, Control_c, 1, 11, 91
3, 2272, Control_c, 1, 11, 96
3, 2304, Control_c, 1, 11, 102
3, 2324, Control_c, 1, 11, 100
3, 2343, Note_on_c, 1, 74, 69
3, 2351, Note_off_c, 1, 75, 64
3, 2542, Note_on_c, 1, 75, 59
3, 2549, Note_off_c, 1, 74, 64
3, 2778, Note_off_c, 1, 75, 64
3, 2856, Note_on_c, 1, 70, 71
3, 3100, Note_on_c, 1, 78, 84
3, 3109, Note_off_c, 1, 70, 64
3, 3300, Note_off_c, 1, 78, 64
3, 3314, Note_on_c, 1, 63, 64
3, 3547, Note_off_c, 1, 63, 64
3, 3581, Note_on_c, 1, 78, 76
3, 3785, Note_off_c, 1, 78, 64
3, 3828, Note_on_c, 1, 62, 85
3, 4032, Control_c, 1, 11, 92
3, 4048, Control_c, 1, 11, 86
3, 4075, Control_c, 1, 11, 66
3, 4110, Control_c, 1, 11, 71
3, 4112, Note_on_c, 1, 77, 89
3, 4145, Note_off_c, 1, 62, 64
3, 4146, Control_c, 1, 11, 77
3, 4182, Control_c, 1, 11, 82
3, 4218, Control_c, 1, 11, 88
3, 4254, Control_c, 1, 11, 94
3, 4289, Control_c, 1, 11, 100
3, 4355, Note_off_c, 1, 77, 64
3, 4360, Note_on_c, 1, 75, 68
3, 4583, Note_on_c, 1, 77, 57
3, 4584, Note_off_c, 1, 75, 64
3, 4786, Note_off_c, 1, 77, 64
3, 4806, Note_on_c, 1, 70, 78
3, 5037, Note_off_c, 1, 70, 64
3, 5048, Note_on_c, 1, 80, 83
3, 5251, Note_off_c, 1, 80, 64
3, 5267, Note_on_c, 1, 62, 76
3, 5514, Note_on_c, 1, 80, 76
3, 5537, Note_off_c, 1, 62, 64
3, 5689, Note_off_c, 1, 80, 64
3, 5743, Note_on_c, 1, 63, 76
3, 5952, Control_c, 1, 11, 90
3, 5985, Control_c, 1, 11, 72
3, 6013, Note_on_c, 1, 78, 91
3, 6018, Control_c, 1, 11, 76
3, 6035, Note_off_c, 1, 63, 64
3, 6052, Control_c, 1, 11, 81
3, 6086, Control_c, 1, 11, 85
3, 6120, Control_c, 1, 11, 90
3, 6154, Control_c, 1, 11, 95
3, 6187, Control_c, 1, 11, 100
3, 6220, Note_on_c, 1, 77, 68
3, 6234, Note_off_c, 1, 78, 64
3, 6440, Note_on_c, 1, 78, 68
3, 6457, Note_off_c, 1, 77, 64
3, 6640, Note_off_c, 1, 78, 64
3, 6689, Note_on_c, 1, 68, 95
3, 6928, Control_c, 1, 11, 88
3, 6942, Note_off_c, 1, 68, 64
3, 6958, Control_c, 1, 11, 78
3, 6973, Note_on_c, 1, 83, 91
3, 6994, Control_c, 1, 11, 81
3, 7030, Control_c, 1, 11, 85
3, 7066, Control_c, 1, 11, 88
3, 7102, Control_c, 1, 11, 92
3, 7138, Control_c, 1, 11, 96
3, 7174, Control_c, 1, 11, 100
3, 7175, Note_on_c, 1, 82, 83
3, 7192, Note_off_c, 1, 83, 64
3, 7397, Note_on_c, 1, 83, 68
3, 7404, Note_off_c, 1, 82, 64
3, 7620, Note_off_c, 1, 83, 64
3, 7652, Note_on_c, 1, 61, 90
3, 7840, Control_c, 1, 11, 92
3, 7864, Control_c, 1, 11, 90
3, 7896, Control_c, 1, 11, 84
3, 7917, Note_on_c, 1, 77, 83
3, 7936, Control_c, 1, 11, 87
3, 7938, Note_off_c, 1, 61, 64
3, 7976, Control_c, 1, 11, 90
3, 8016, Control_c, 1, 11, 93
3, 8056, Control_c, 1, 11, 96
3, 8095, Control_c, 1, 11, 100
3, 8123, Note_on_c, 1, 75, 76
3, 8136, Note_off_c, 1, 77, 64
3, 8371, Note_on_c, 1, 77, 66
3, 8389, Note_off_c, 1, 75, 64
3, 8609, Note_off_c, 1, 77, 64
3, 8638, Note_on_c, 1, 66, 89
3, 8832, Control_c, 1, 11, 90
3, 8872, Control_c, 1, 11, 88
3, 8889, Note_on_c, 1, 82, 100
3, 8912, Control_c, 1, 11, 90
3, 8921, Note_off_c, 1, 66, 64
3, 8952, Control_c, 1, 11, 93
3, 8992, Control_c, 1, 11, 96
3, 9031, Control_c, 1, 11, 100
3, 9115, Note_on_c, 1, 80, 68
3, 9126, Note_off_c, 1, 82, 64
3, 9348, Note_on_c, 1, 82, 68
3, 9354, Note_off_c, 1, 80, 64
3, 9521, Note_off_c, 1, 82, 64
3, 9544, Control_c, 1, 11, 86
3, 9574, Note_on_c, 1, 71, 80
3, 9584, Control_c, 1, 11, 89
3, 9624, Control_c, 1, 11, 92
3, 9664, Control_c, 1, 11, 96
3, 9703, Control_c, 1, 11, 100
3, 9776, Control_c, 1, 11, 88
3, 9821, Control_c, 1, 11, 72
3, 9828, Note_off_c, 1, 71, 64
3, 9845, Note_on_c, 1, 75, 98
3, 9858, Control_c, 1, 11, 77
3, 9896, Control_c, 1, 11, 83
3, 9934, Control_c, 1, 11, 88
3, 9972, Control_c, 1, 11, 94
3, 10009, Control_c, 1, 11, 100
3, 10052, Note_off_c, 1, 75, 64
3, 10060, Note_on_c, 1, 74, 75
3, 10285, Note_off_c, 1, 74, 64
3, 10285, Note_on_c, 1, 75, 62
3, 10490, Note_off_c, 1, 75, 64
3, 10538, Note_on_c, 1, 65, 72
3, 10736, Control_c, 1, 11, 90
3, 10780, Control_c, 1, 11, 82
3, 10799, Note_on_c, 1, 80, 87
3, 10804, Note_off_c, 1, 65, 64
3, 10819, Control_c, 1, 11, 85
3, 10858, Control_c, 1, 11, 89
3, 10897, Control_c, 1, 11, 92
3, 10936, Control_c, 1, 11, 96
3, 10975, Control_c, 1, 11, 100
3, 11000, Note_on_c, 1, 78, 76
3, 11015, Note_off_c, 1, 80, 64
3, 11250, Note_on_c, 1, 77, 63
3, 11259, Note_off_c, 1, 78, 64
3, 11448, Note_off_c, 1, 77, 64
3, 11474, Note_on_c, 1, 70, 81
3, 11696, Control_c, 1, 11, 90
3, 11712, Note_off_c, 1, 70, 64
3, 11725, Control_c, 1, 11, 82
3, 11764, Control_c, 1, 11, 84
3, 11775, Note_on_c, 1, 78, 87
3, 11804, Control_c, 1, 11, 87
3, 11844, Control_c, 1, 11, 90
3, 11883, Control_c, 1, 11, 93
3, 11923, Control_c, 1, 11, 96
3, 11962, Control_c, 1, 11, 100
3, 11985, Note_off_c, 1, 78, 64
3, 11989, Note_on_c, 1, 77, 68
3, 12199, Note_off_c, 1, 77, 64
3, 12200, Note_on_c, 1, 75, 63
3, 12398, Note_off_c, 1, 75, 64
3, 12423, Note_on_c, 1, 69, 91
3, 12660, Note_off_c, 1, 69, 64
3, 12670, Control_c, 1, 11, 84
3, 12698, Note_on_c, 1, 63, 93
3, 12705, Control_c, 1, 11, 85
3, 12741, Control_c, 1, 11, 87
3, 12777, Control_c, 1, 11, 89
3, 12813, Control_c, 1, 11, 91
3, 12848, Control_c, 1, 11, 92
3, 12884, Control_c, 1, 11, 94
3, 12914, Note_on_c, 1, 61, 78
3, 12920, Control_c, 1, 11, 96
3, 12946, Note_off_c, 1, 63, 64
3, 12956, Control_c, 1, 11, 98
3, 12991, Control_c, 1, 11, 100
3, 13128, Note_on_c, 1, 60, 66
3, 13148, Note_off_c, 1, 61, 64
3, 13329, Note_off_c, 1, 60, 64
3, 13363, Note_on_c, 1, 61, 78
3, 13653, Note_off_c, 1, 61, 64
3, 13671, Control_c, 1, 11, 82
3, 13680, Note_on_c, 1, 70, 89
3, 13708, Control_c, 1, 11, 84
3, 13745, Control_c, 1, 11, 87
3, 13782, Control_c, 1, 11, 89
3, 13819, Control_c, 1, 11, 92
3, 13856, Control_c, 1, 11, 94
3, 13893, Control_c, 1, 11, 97
3, 13907, Note_on_c, 1, 69, 71
3, 13924, Note_off_c, 1, 70, 64
3, 13929, Control_c, 1, 11, 100
3, 14117, Note_on_c, 1, 70, 68
3, 14140, Note_off_c, 1, 69, 64
3, 14327, Note_off_c, 1, 70, 64
3, 14364, Note_on_c, 1, 65, 78
3, 14581, Note_off_c, 1, 65, 64
3, 14635, Note_on_c, 1, 73, 76
3, 14831, Note_off_c, 1, 73, 64
3, 14886, Note_on_c, 1, 58, 95
3, 15085, Note_off_c, 1, 58, 64
3, 15133, Note_on_c, 1, 73, 95
3, 15309, Note_off_c, 1, 73, 64
3, 15366, Note_on_c, 1, 57, 107
3, 15552, Control_c, 1, 11, 86
3, 15584, Control_c, 1, 11, 66
3, 15624, Control_c, 1, 11, 73
3, 15632, Note_on_c, 1, 72, 101
3, 15664, Control_c, 1, 11, 81
3, 15686, Note_off_c, 1, 57, 64
3, 15704, Control_c, 1, 11, 88
3, 15743, Control_c, 1, 11, 96
3, 15770, Control_c, 1, 11, 100
3, 15853, Note_on_c, 1, 70, 76
3, 15854, Note_off_c, 1, 72, 64
3, 16051, Note_on_c, 1, 72, 86
3, 16074, Note_off_c, 1, 70, 64
3, 16257, Note_off_c, 1, 72, 64
3, 16287, Note_on_c, 1, 65, 94
3, 16516, Note_off_c, 1, 65, 64
3, 16539, Note_on_c, 1, 75, 91
3, 16735, Note_off_c, 1, 75, 64
3, 16768, Note_on_c, 1, 57, 96
3, 16994, Note_off_c, 1, 57, 64
3, 17027, Note_on_c, 1, 75, 86
3, 17224, Note_off_c, 1, 75, 64
3, 17280, Note_on_c, 1, 58, 91
3, 17565, Note_on_c, 1, 65, 91
3, 17579, Note_off_c, 1, 58, 64
3, 17771, Note_off_c, 1, 65, 64
3, 17772, Note_on_c, 1, 75, 96
3, 17976, Note_off_c, 1, 75, 64
3, 17993, Note_on_c, 1, 68, 72
3, 18175, Note_off_c, 1, 68, 64
3, 18221, Note_on_c, 1, 66, 88
3, 18431, Note_off_c, 1, 66, 64
3, 18473, Control_c, 1, 11, 82
3, 18487, Note_on_c, 1, 75, 106
3, 18510, Control_c, 1, 11, 84
3, 18547, Control_c, 1, 11, 87
3, 18585, Control_c, 1, 11, 90
3, 18622, Control_c, 1, 11, 93
3, 18659, Control_c, 1, 11, 96
3, 18696, Control_c, 1, 11, 100
3, 18698, Note_on_c, 1, 74, 88
3, 18704, Note_off_c, 1, 75, 64
3, 18901, Note_off_c, 1, 74, 64
3, 18906, Note_on_c, 1, 72, 84
3, 19148, Note_on_c, 1, 74, 100
3, 19149, Note_off_c, 1, 72, 64
3, 19433, Note_off_c, 1, 74, 64
3, 19448, Note_on_c, 1, 70, 84
3, 19649, Control_c, 1, 11, 86
3, 19650, Note_off_c, 1, 70, 64
3, 19669, Note_on_c, 1, 65, 86
3, 19685, Control_c, 1, 11, 88
3, 19721, Control_c, 1, 11, 90
3, 19757, Control_c, 1, 11, 92
3, 19793, Control_c, 1, 11, 95
3, 19829, Control_c, 1, 11, 97
3, 19865, Control_c, 1, 11, 100
3, 19884, Note_on_c, 1, 63, 61
3, 19888, Note_off_c, 1, 65, 64
3, 20110, Note_off_c, 1, 63, 64
3, 20123, Note_on_c, 1, 65, 66
3, 20370, Note_on_c, 1, 74, 63
3, 20385, Note_off_c, 1, 65, 64
3, 20586, Note_off_c, 1, 74, 64
3, 20606, Note_on_c, 1, 70, 83
3, 20807, Note_off_c, 1, 70, 64
3, 20846, Note_on_c, 1, 74, 71
3, 21048, Note_off_c, 1, 74, 64
3, 21098, Control_c, 1, 11, 84
3, 21120, Note_on_c, 1, 75, 80
3, 21137, Control_c, 1, 11, 87
3, 21176, Control_c, 1, 11, 90
3, 21215, Control_c, 1, 11, 93
3, 21254, Control_c, 1, 11, 96
3, 21293, Control_c, 1, 11, 100
3, 21384, Note_on_c, 1, 70, 87
3, 21392, Note_off_c, 1, 75, 64
3, 21582, Note_off_c, 1, 70, 64
3, 21595, Note_on_c, 1, 66, 76
3, 21798, Note_on_c, 1, 65, 59
3, 21814, Note_off_c, 1, 66, 64
3, 22001, Note_off_c, 1, 65, 64
3, 22030, Note_on_c, 1, 66, 64
3, 22271, Note_on_c, 1, 75, 73
3, 22296, Note_off_c, 1, 66, 64
3, 22509, Note_off_c, 1, 75, 64
3, 22515, Note_on_c, 1, 70, 76
3, 22719, Note_off_c, 1, 70, 64
3, 22762, Note_on_c, 1, 75, 93
3, 22955, Note_off_c, 1, 75, 64
3, 22981, Control_c, 1, 11, 80
3, 23021, Note_on_c, 1, 77, 96
3, 23023, Control_c, 1, 11, 83
3, 23065, Control_c, 1, 11, 87
3, 23107, Control_c, 1, 11, 91
3, 23149, Control_c, 1, 11, 95
3, 23190, Control_c, 1, 11, 100
3, 23277, Note_on_c, 1, 70, 96
3, 23287, Note_off_c, 1, 77, 64
3, 23506, Control_c, 1, 11, 84
3, 23507, Note_off_c, 1, 70, 64
3, 23511, Note_on_c, 1, 62, 101
3, 23543, Control_c, 1, 11, 86
3, 23580, Control_c, 1, 11, 89
3, 23618, Control_c, 1, 11, 91
3, 23655, Control_c, 1, 11, 94
3, 23692, Control_c, 1, 11, 97
3, 23729, Control_c, 1, 11, 100
3, 23737, Note_on_c, 1, 60, 75
3, 23749, Note_off_c, 1, 62, 64
3, 23936, Note_off_c, 1, 60, 64
3, 23969, Note_on_c, 1, 62, 75
3, 24209, Note_on_c, 1, 77, 76
3, 24224, Note_off_c, 1, 62, 64
3, 24429, Note_off_c, 1, 77, 64
3, 24451, Note_on_c, 1, 70, 76
3, 24676, Note_off_c, 1, 70, 64
3, 24699, Note_on_c, 1, 77, 94
3, 24928, Note_off_c, 1, 77, 64
3, 24934, Control_c, 1, 11, 86
3, 24960, Note_on_c, 1, 78, 91
3, 24976, Control_c, 1, 11, 90
3, 25018, Control_c, 1, 11, 95
3, 25059, Control_c, 1, 11, 100
3, 25186, Control_c, 1, 11, 86
3, 25196, Note_off_c, 1, 78, 64
3, 25222, Note_on_c, 1, 70, 109
3, 25228, Control_c, 1, 11, 89
3, 25270, Control_c, 1, 11, 92
3, 25312, Control_c, 1, 11, 96
3, 25353, Control_c, 1, 11, 100
3, 25430, Note_off_c, 1, 70, 64
3, 25439, Note_on_c, 1, 63, 80
3, 25671, Note_on_c, 1, 62, 71
3, 25673, Note_off_c, 1, 63, 64
3, 25870, Note_off_c, 1, 62, 64
3, 25891, Note_on_c, 1, 63, 71
3, 26130, Note_on_c, 1, 78, 83
3, 26151, Note_off_c, 1, 63, 64
3, 26352, Note_off_c, 1, 78, 64
3, 26366, Note_on_c, 1, 70, 78
3, 26580, Note_off_c, 1, 70, 64
3, 26586, Control_c, 1, 11, 82
3, 26601, Note_on_c, 1, 78, 99
3, 26625, Control_c, 1, 11, 84
3, 26665, Control_c, 1, 11, 87
3, 26705, Control_c, 1, 11, 90
3, 26744, Control_c, 1, 11, 93
3, 26784, Control_c, 1, 11, 96
3, 26823, Control_c, 1, 11, 100
3, 26853, Note_off_c, 1, 78, 64
3, 26853, Note_on_c, 1, 79, 85
3, 27149, Note_off_c, 1, 79, 64
3, 27168, Note_on_c, 1, 70, 91
3, 27375, Note_on_c, 1, 64, 95
3, 27383, Note_off_c, 1, 70, 64
3, 27572, Note_off_c, 1, 64, 64
3, 27581, Note_on_c, 1, 61, 73
3, 27783, Note_off_c, 1, 61, 64
3, 27804, Note_on_c, 1, 55, 68
3, 28004, Note_off_c, 1, 55, 64
3, 28051, Note_on_c, 1, 63, 87
3, 28251, Note_off_c, 1, 63, 64
3, 28274, Note_on_c, 1, 70, 73
3, 28500, Note_off_c, 1, 70, 64
3, 28517, Note_on_c, 1, 75, 71
3, 28739, Note_off_c, 1, 75, 64
3, 28800, Note_on_c, 1, 60, 94
3, 29074, Note_on_c, 1, 68, 83
3, 29142, Note_off_c, 1, 60, 64
3, 29283, Note_on_c, 1, 75, 76
3, 29290, Note_off_c, 1, 68, 64
3, 29454, Note_off_c, 1, 75, 64
3, 29490, Note_on_c, 1, 78, 80
3, 29670, Note_off_c, 1, 78, 64
3, 29722, Note_on_c, 1, 61, 96
3, 29962, Note_off_c, 1, 61, 64
3, 29971, Note_on_c, 1, 78, 88
3, 30188, Note_on_c, 1, 77, 62
3, 30203, Note_off_c, 1, 78, 64
3, 30367, Note_off_c, 1, 77, 64
3, 30450, Note_on_c, 1, 61, 95
3, 30654, Note_off_c, 1, 61, 64
3, 30700, Note_on_c, 1, 58, 107
3, 31003, Note_on_c, 1, 66, 81
3, 31065, Note_off_c, 1, 58, 64
3, 31204, Note_on_c, 1, 73, 83
3, 31222, Note_off_c, 1, 66, 64
3, 31376, Note_off_c, 1, 73, 64
3, 31413, Note_on_c, 1, 76, 73
3, 31589, Note_off_c, 1, 76, 64
3, 31644, Note_on_c, 1, 59, 104
3, 31900, Note_on_c, 1, 76, 88
3, 31917, Note_off_c, 1, 59, 64
3, 32141, Note_on_c, 1, 75, 73
3, 32159, Note_off_c, 1, 76, 64
3, 32291, Note_off_c, 1, 75, 64
3, 32372, Note_on_c, 1, 59, 100
3, 32560, Note_off_c, 1, 59, 64
3, 32595, Note_on_c, 1, 56, 88
3, 32895, Note_off_c, 1, 56, 64
3, 32908, Note_on_c, 1, 74, 76
3, 33119, Note_off_c, 1, 74, 64
3, 33134, Note_on_c, 1, 65, 87
3, 33318, Note_off_c, 1, 65, 64
3, 33354, Note_on_c, 1, 59, 100
3, 33586, Note_off_c, 1, 59, 64
3, 33591, Note_on_c, 1, 58, 68
3, 33866, Note_off_c, 1, 58, 64
3, 33866, Note_on_c, 1, 73, 87
3, 34033, Note_off_c, 1, 73, 64
3, 34080, Note_on_c, 1, 66, 91
3, 34262, Note_off_c, 1, 66, 64
3, 34302, Note_on_c, 1, 73, 76
3, 34472, Note_off_c, 1, 73, 64
3, 34548, Note_on_c, 1, 59, 76
3, 34777, Note_off_c, 1, 59, 64
3, 34822, Note_on_c, 1, 75, 81
3, 34967, Note_off_c, 1, 75, 64
3, 35030, Note_on_c, 1, 58, 93
3, 35205, Note_off_c, 1, 58, 64
3, 35258, Note_on_c, 1, 73, 94
3, 35412, Note_off_c, 1, 73, 64
3, 35490, Note_on_c, 1, 56, 86
3, 35689, Note_off_c, 1, 56, 64
3, 35750, Note_on_c, 1, 71, 92
3, 35922, Note_off_c, 1, 71, 64
3, 35991, Note_on_c, 1, 61, 72
3, 36218, Control_c, 1, 11, 80
3, 36241, Note_on_c, 1, 71, 82
3, 36251, Control_c, 1, 11, 82
3, 36276, Note_off_c, 1, 61, 64
3, 36284, Control_c, 1, 11, 85
3, 36317, Control_c, 1, 11, 88
3, 36350, Control_c, 1, 11, 91
3, 36383, Control_c, 1, 11, 94
3, 36416, Control_c, 1, 11, 97
3, 36442, Note_off_c, 1, 71, 64
3, 36448, Control_c, 1, 11, 100
3, 36480, Note_on_c, 1, 70, 62
3, 36533, Control_c, 1, 11, 100
3, 36566, Control_c, 1, 11, 95
3, 36599, Control_c, 1, 11, 90
3, 36632, Control_c, 1, 11, 85
3, 36665, Control_c, 1, 11, 80
3, 36680, Note_off_c, 1, 70, 64
3, 36715, Control_c, 1, 11, 84
3, 36743, Note_on_c, 1, 61, 93
3, 36751, Control_c, 1, 11, 87
3, 36787, Control_c, 1, 11, 90
3, 36824, Control_c, 1, 11, 93
3, 36860, Control_c, 1, 11, 96
3, 36896, Control_c, 1, 11, 100
3, 36944, Note_off_c, 1, 61, 64
3, 36953, Note_on_c, 1, 63, 91
3, 37134, Note_off_c, 1, 63, 64
3, 37148, Note_on_c, 1, 65, 86
3, 37315, Note_off_c, 1, 65, 64
3, 37355, Note_on_c, 1, 66, 89
3, 37590, Note_off_c, 1, 66, 64
3, 37606, Note_on_c, 1, 68, 83
3, 37809, Note_off_c, 1, 68, 64
3, 37836, Note_on_c, 1, 70, 91
3, 38049, Note_off_c, 1, 70, 64
3, 38066, Note_on_c, 1, 71, 83
3, 38261, Note_off_c, 1, 71, 64
3, 38297, Control_c, 1, 11, 78
3, 38335, Control_c, 1, 11, 81
3, 38342, Note_on_c, 1, 73, 102
3, 38374, Control_c, 1, 11, 85
3, 38412, Control_c, 1, 11, 88
3, 38451, Control_c, 1, 11, 92
3, 38489, Control_c, 1, 11, 96
3, 38527, Control_c, 1, 11, 100
3, 38584, Note_off_c, 1, 73, 64
3, 38637, Note_on_c, 1, 70, 68
3, 38811, Note_off_c, 1, 70, 64
3, 38853, Note_on_c, 1, 67, 86
3, 39030, Note_off_c, 1, 67, 64
3, 39060, Note_on_c, 1, 70, 68
3, 39253, Note_off_c, 1, 70, 64
3, 39306, Note_on_c, 1, 63, 81
3, 39553, Note_off_c, 1, 63, 64
3, 39578, Control_c, 1, 11, 74
3, 39603, Note_on_c, 1, 76, 104
3, 39620, Control_c, 1, 11, 80
3, 39662, Control_c, 1, 11, 86
3, 39704, Control_c, 1, 11, 93
3, 39745, Control_c, 1, 11, 100
3, 39813, Note_off_c, 1, 76, 64
3, 39824, Note_on_c, 1, 75, 89
3, 40045, Note_on_c, 1, 73, 78
3, 40047, Note_off_c, 1, 75, 64
3, 40300, Note_off_c, 1, 73, 64
3, 40313, Note_on_c, 1, 71, 70
3, 40528, Note_off_c, 1, 71, 64
3, 40560, Note_on_c, 1, 63, 98
3, 40765, Note_off_c, 1, 63, 64
3, 40790, Note_on_c, 1, 65, 91
3, 41003, Note_off_c, 1, 65, 64
3, 41014, Note_on_c, 1, 67, 83
3, 41212, Note_off_c, 1, 67, 64
3, 41237, Note_on_c, 1, 68, 94
3, 41466, Note_on_c, 1, 70, 78
3, 41486, Note_off_c, 1, 68, 64
3, 41687, Note_off_c, 1, 70, 64
3, 41704, Note_on_c, 1, 72, 80
3, 41916, Note_off_c, 1, 72, 64
3, 41917, Note_on_c, 1, 73, 89
3, 42139, Note_off_c, 1, 73, 64
3, 42154, Control_c, 1, 11, 86
3, 42173, Note_on_c, 1, 75, 105
3, 42194, Control_c, 1, 11, 88
3, 42235, Control_c, 1, 11, 91
3, 42275, Control_c, 1, 11, 94
3, 42316, Control_c, 1, 11, 97
3, 42356, Control_c, 1, 11, 100
3, 42409, Note_off_c, 1, 75, 64
3, 42461, Note_on_c, 1, 72, 73
3, 42666, Note_off_c, 1, 72, 64
3, 42704, Note_on_c, 1, 69, 96
3, 42902, Note_off_c, 1, 69, 64
3, 42914, Note_on_c, 1, 72, 70
3, 43116, Note_off_c, 1, 72, 64
3, 43152, Note_on_c, 1, 65, 87
3, 43363, Note_off_c, 1, 65, 64
3, 43372, Control_c, 1, 11, 84
3, 43410, Note_on_c, 1, 78, 95
3, 43414, Control_c, 1, 11, 87
3, 43456, Control_c, 1, 11, 90
3, 43498, Control_c, 1, 11, 93
3, 43540, Control_c, 1, 11, 96
3, 43581, Control_c, 1, 11, 100
3, 43642, Note_off_c, 1, 78, 64
3, 43644, Note_on_c, 1, 77, 83
3, 43874, Note_off_c, 1, 77, 64
3, 43875, Note_on_c, 1, 75, 83
3, 44058, Note_off_c, 1, 75, 64
3, 44144, Note_on_c, 1, 74, 107
3, 44359, Note_off_c, 1, 74, 64
3, 44376, Note_on_c, 1, 77, 81
3, 44569, Note_off_c, 1, 77, 64
3, 44590, Control_c, 1, 11, 80
3, 44632, Control_c, 1, 11, 84
3, 44634, Note_on_c, 1, 70, 104
3, 44674, Control_c, 1, 11, 89
3, 44716, Control_c, 1, 11, 94
3, 44757, Control_c, 1, 11, 100
3, 44850, Note_off_c, 1, 70, 64
3, 44860, Note_on_c, 1, 72, 94
3, 45056, Note_off_c, 1, 72, 64
3, 45072, Note_on_c, 1, 74, 107
3, 45295, Note_off_c, 1, 74, 64
3, 45298, Note_on_c, 1, 75, 89
3, 45514, Note_off_c, 1, 75, 64
3, 45549, Note_on_c, 1, 77, 107
3, 45761, Note_off_c, 1, 77, 64
3, 45777, Note_on_c, 1, 78, 87
3, 45983, Control_c, 1, 11, 92
3, 45994, Note_off_c, 1, 78, 64
3, 46014, Note_on_c, 1, 80, 95
3, 46018, Control_c, 1, 11, 93
3, 46053, Control_c, 1, 11, 95
3, 46088, Control_c, 1, 11, 96
3, 46123, Control_c, 1, 11, 98
3, 46157, Control_c, 1, 11, 100
3, 46306, Note_off_c, 1, 80, 64
3, 46320, Note_on_c, 1, 77, 68
3, 46469, Note_off_c, 1, 77, 64
3, 46520, Note_on_c, 1, 71, 86
3, 46713, Note_off_c, 1, 71, 64
3, 46715, Note_on_c, 1, 77, 71
3, 46889, Note_off_c, 1, 77, 64
3, 46935, Note_on_c, 1, 62, 101
3, 47232, Note_off_c, 1, 62, 64
3, 47243, Control_c, 1, 11, 84
3, 47267, Note_on_c, 1, 80, 93
3, 47282, Control_c, 1, 11, 87
3, 47321, Control_c, 1, 11, 90
3, 47360, Control_c, 1, 11, 93
3, 47399, Control_c, 1, 11, 96
3, 47438, Control_c, 1, 11, 100
3, 47488, Note_on_c, 1, 78, 76
3, 47498, Note_off_c, 1, 80, 64
3, 47711, Note_off_c, 1, 78, 64
3, 47711, Note_on_c, 1, 77, 70
3, 47888, Note_off_c, 1, 77, 64
3, 47901, Control_c, 1, 11, 82
3, 47940, Control_c, 1, 11, 84
3, 47944, Note_on_c, 1, 78, 80
3, 47979, Control_c, 1, 11, 87
3, 48018, Control_c, 1, 11, 89
3, 48057, Control_c, 1, 11, 92
3, 48096, Control_c, 1, 11, 94
3, 48135, Control_c, 1, 11, 97
3, 48173, Control_c, 1, 11, 100
3, 48227, Note_on_c, 1, 70, 68
3, 48290, Note_off_c, 1, 78, 64
3, 48453, Note_on_c, 1, 63, 83
3, 48524, Note_off_c, 1, 70, 64
3, 48674, Note_on_c, 1, 70, 87
3, 48729, Note_off_c, 1, 63, 64
3, 48925, Note_on_c, 1, 56, 83
3, 48927, Note_off_c, 1, 70, 64
3, 49196, Control_c, 1, 11, 90
3, 49231, Control_c, 1, 11, 86
3, 49248, Note_off_c, 1, 56, 64
3, 49253, Note_on_c, 1, 78, 96
3, 49267, Control_c, 1, 11, 89
3, 49304, Control_c, 1, 11, 92
3, 49341, Control_c, 1, 11, 96
3, 49377, Control_c, 1, 11, 100
3, 49455, Note_on_c, 1, 77, 83
3, 49457, Note_off_c, 1, 78, 64
3, 49656, Note_on_c, 1, 75, 83
3, 49657, Note_off_c, 1, 77, 64
3, 49885, Note_on_c, 1, 77, 68
3, 49890, Note_off_c, 1, 75, 64
3, 50174, Note_on_c, 1, 68, 95
3, 50210, Note_off_c, 1, 77, 64
3, 50404, Note_on_c, 1, 61, 107
3, 50441, Note_off_c, 1, 68, 64
3, 50625, Note_on_c, 1, 68, 100
3, 50653, Note_off_c, 1, 61, 64
3, 50819, Note_off_c, 1, 68, 64
3, 50844, Note_on_c, 1, 54, 83
3, 51128, Control_c, 1, 11, 84
3, 51142, Note_off_c, 1, 54, 64
3, 51146, Note_on_c, 1, 76, 100
3, 51165, Control_c, 1, 11, 87
3, 51203, Control_c, 1, 11, 90
3, 51241, Control_c, 1, 11, 93
3, 51279, Control_c, 1, 11, 96
3, 51316, Control_c, 1, 11, 100
3, 51379, Note_off_c, 1, 76, 64
3, 51385, Note_on_c, 1, 75, 87
3, 51601, Note_off_c, 1, 75, 64
3, 51606, Note_on_c, 1, 73, 78
3, 51804, Note_off_c, 1, 73, 64
3, 51821, Control_c, 1, 11, 82
3, 51832, Note_on_c, 1, 75, 104
3, 51860, Control_c, 1, 11, 85
3, 51899, Control_c, 1, 11, 89
3, 51938, Control_c, 1, 11, 92
3, 51977, Control_c, 1, 11, 96
3, 52016, Control_c, 1, 11, 100
3, 52062, Note_on_c, 1, 66, 87
3, 52091, Note_off_c, 1, 75, 64
3, 52294, Note_on_c, 1, 59, 81
3, 52311, Note_off_c, 1, 66, 64
3, 52489, Note_on_c, 1, 66, 104
3, 52526, Note_off_c, 1, 59, 64
3, 52677, Note_off_c, 1, 66, 64
3, 52728, Note_on_c, 1, 58, 95
3, 53030, Note_on_c, 1, 65, 101
3, 53098, Note_off_c, 1, 58, 64
3, 53245, Note_off_c, 1, 65, 64
3, 53279, Note_on_c, 1, 75, 86
3, 53494, Note_off_c, 1, 75, 64
3, 53503, Note_on_c, 1, 71, 93
3, 53717, Note_off_c, 1, 71, 64
3, 53755, Note_on_c, 1, 73, 109
3, 53999, Note_off_c, 1, 73, 64
3, 53999, Note_on_c, 1, 70, 76
3, 54198, Note_off_c, 1, 70, 64
3, 54208, Note_on_c, 1, 64, 78
3, 54395, Note_off_c, 1, 64, 64
3, 54424, Note_on_c, 1, 70, 88
3, 54593, Note_off_c, 1, 70, 64
3, 54646, Note_on_c, 1, 55, 72
3, 54980, Note_on_c, 1, 63, 80
3, 55030, Note_off_c, 1, 55, 64
3, 55179, Note_on_c, 1, 73, 91
3, 55181, Note_off_c, 1, 63, 64
3, 55357, Note_on_c, 1, 70, 89
3, 55383, Note_off_c, 1, 73, 64
3, 55555, Note_off_c, 1, 70, 64
3, 55615, Control_c, 1, 11, 80
3, 55636, Note_on_c, 1, 71, 88
3, 55647, Control_c, 1, 11, 83
3, 55680, Control_c, 1, 11, 86
3, 55713, Control_c, 1, 11, 89
3, 55745, Control_c, 1, 11, 93
3, 55778, Control_c, 1, 11, 96
3, 55810, Control_c, 1, 11, 100
3, 55976, Note_off_c, 1, 71, 64
3, 55995, Note_on_c, 1, 68, 89
3, 56196, Note_on_c, 1, 66, 83
3, 56200, Note_off_c, 1, 68, 64
3, 56386, Note_on_c, 1, 68, 70
3, 56402, Note_off_c, 1, 66, 64
3, 56617, Note_on_c, 1, 64, 76
3, 56619, Note_off_c, 1, 68, 64
3, 56818, Note_off_c, 1, 64, 64
3, 56847, Control_c, 1, 11, 80
3, 56859, Note_on_c, 1, 59, 85
3, 56884, Control_c, 1, 11, 83
3, 56921, Control_c, 1, 11, 87
3, 56959, Control_c, 1, 11, 90
3, 56996, Control_c, 1, 11, 94
3, 57033, Control_c, 1, 11, 98
3, 57112, Note_on_c, 1, 57, 68
3, 57131, Note_off_c, 1, 59, 64
3, 57337, Note_on_c, 1, 59, 62
3, 57348, Note_off_c, 1, 57, 64
3, 57521, Note_off_c, 1, 59, 64
3, 57526, Control_c, 1, 11, 82
3, 57544, Note_on_c, 1, 56, 91
3, 57565, Control_c, 1, 11, 85
3, 57604, Control_c, 1, 11, 89
3, 57643, Control_c, 1, 11, 92
3, 57682, Control_c, 1, 11, 96
3, 57721, Control_c, 1, 11, 100
3, 57834, Note_on_c, 1, 54, 76
3, 57852, Note_off_c, 1, 56, 64
3, 58075, Note_on_c, 1, 56, 76
3, 58078, Note_off_c, 1, 54, 64
3, 58242, Note_off_c, 1, 56, 64
3, 58289, Note_on_c, 1, 59, 93
3, 58453, Note_off_c, 1, 59, 64
3, 58506, Control_c, 1, 11, 80
3, 58532, Note_on_c, 1, 64, 82
3, 58546, Control_c, 1, 11, 83
3, 58587, Control_c, 1, 11, 87
3, 58627, Control_c, 1, 11, 91
3, 58668, Control_c, 1, 11, 95
3, 58708, Control_c, 1, 11, 100
3, 58842, Note_off_c, 1, 64, 64
3, 58843, Note_on_c, 1, 56, 104
3, 59014, Note_off_c, 1, 56, 64
3, 59036, Note_on_c, 1, 59, 85
3, 59210, Note_off_c, 1, 59, 64
3, 59247, Note_on_c, 1, 64, 100
3, 59430, Note_off_c, 1, 64, 64
3, 59444, Control_c, 1, 11, 80
3, 59464, Note_on_c, 1, 68, 112
3, 59484, Control_c, 1, 11, 83
3, 59525, Control_c, 1, 11, 87
3, 59565, Control_c, 1, 11, 91
3, 59606, Control_c, 1, 11, 95
3, 59646, Control_c, 1, 11, 100
3, 59720, Note_on_c, 1, 66, 93
3, 59731, Note_off_c, 1, 68, 64
3, 59938, Note_off_c, 1, 66, 64
3, 59947, Note_on_c, 1, 68, 85
3, 60112, Note_off_c, 1, 68, 64
3, 60156, Note_on_c, 1, 71, 91
3, 60339, Note_off_c, 1, 71, 64
3, 60419, Note_on_c, 1, 76, 102
3, 60701, Note_off_c, 1, 76, 64
3, 60717, Note_on_c, 1, 68, 112
3, 60911, Note_off_c, 1, 68, 64
3, 60940, Note_on_c, 1, 71, 112
3, 61136, Note_off_c, 1, 71, 64
3, 61162, Note_on_c, 1, 76, 89
3, 61356, Note_off_c, 1, 76, 64
3, 61390, Control_c, 1, 11, 84
3, 61426, Control_c, 1, 11, 87
3, 61440, Note_on_c, 1, 74, 111
3, 61462, Control_c, 1, 11, 90
3, 61499, Control_c, 1, 11, 93
3, 61535, Control_c, 1, 11, 96
3, 61571, Control_c, 1, 11, 100
3, 61663, Note_off_c, 1, 74, 64
3, 61684, Control_c, 1, 11, 84
3, 61697, Note_on_c, 1, 80, 102
3, 61724, Control_c, 1, 11, 88
3, 61764, Control_c, 1, 11, 92
3, 61804, Control_c, 1, 11, 97
3, 61844, Control_c, 1, 11, 102
3, 61872, Note_off_c, 1, 80, 64
3, 61910, Note_on_c, 1, 77, 96
3, 62071, Note_off_c, 1, 77, 64
3, 62115, Note_on_c, 1, 74, 94
3, 62303, Note_off_c, 1, 74, 64
3, 62338, Note_on_c, 1, 71, 81
3, 62558, Note_off_c, 1, 71, 64
3, 62590, Note_on_c, 1, 68, 76
3, 62753, Note_off_c, 1, 68, 64
3, 62803, Note_on_c, 1, 65, 73
3, 62980, Note_off_c, 1, 65, 64
3, 63021, Note_on_c, 1, 62, 59
3, 63183, Note_off_c, 1, 62, 64
3, 63217, Control_c, 1, 11, 78
3, 63253, Control_c, 1, 11, 81
3, 63280, Note_on_c, 1, 60, 82
3, 63289, Control_c, 1, 11, 84
3, 63325, Control_c, 1, 11, 87
3, 63361, Control_c, 1, 11, 90
3, 63397, Control_c, 1, 11, 93
3, 63433, Control_c, 1, 11, 96
3, 63468, Control_c, 1, 11, 100
3, 63563, Note_off_c, 1, 60, 64
3, 63589, Note_on_c, 1, 63, 65
3, 63756, Note_off_c, 1, 63, 64
3, 63793, Note_on_c, 1, 66, 75
3, 63971, Note_off_c, 1, 66, 64
3, 63995, Note_on_c, 1, 69, 96
3, 64163, Note_off_c, 1, 69, 64
3, 64214, Note_on_c, 1, 72, 85
3, 64431, Note_on_c, 1, 74, 78
3, 64441, Note_off_c, 1, 72, 64
3, 64651, Note_off_c, 1, 74, 64
3, 64651, Note_on_c, 1, 75, 66
3, 64813, Control_c, 1, 11, 86
3, 64828, Note_off_c, 1, 75, 64
3, 64853, Control_c, 1, 11, 89
3, 64884, Note_on_c, 1, 57, 78
3, 64893, Control_c, 1, 11, 92
3, 64933, Control_c, 1, 11, 96
3, 64973, Control_c, 1, 11, 100
3, 65187, Note_off_c, 1, 57, 64
3, 65205, Control_c, 1, 11, 72
3, 65242, Control_c, 1, 11, 80
3, 65247, Note_on_c, 1, 58, 86
3, 65280, Control_c, 1, 11, 90
3, 65318, Control_c, 1, 11, 99
3, 65356, Control_c, 1, 11, 108
3, 65393, Control_c, 1, 11, 118
3, 65422, Control_c, 1, 11, 110
3, 65470, Control_c, 1, 11, 100
3, 65537, Note_on_c, 1, 66, 83
3, 65567, Note_off_c, 1, 58, 64
3, 65753, Note_off_c, 1, 66, 64
3, 65770, Note_on_c, 1, 70, 89
3, 65961, Note_off_c, 1, 70, 64
3, 65970, Note_on_c, 1, 75, 78
3, 66162, Note_off_c, 1, 75, 64
3, 66188, Note_on_c, 1, 65, 72
3, 66414, Note_off_c, 1, 65, 64
3, 66441, Note_on_c, 1, 75, 79
3, 66659, Note_off_c, 1, 75, 64
3, 66681, Note_on_c, 1, 58, 60
3, 66904, Note_off_c, 1, 58, 64
3, 66935, Note_on_c, 1, 74, 70
3, 67025, Control_c, 1, 11, 92
3, 67063, Control_c, 1, 11, 87
3, 67101, Control_c, 1, 11, 82
3, 67122, Control_c, 1, 11, 80
3, 67138, Note_off_c, 1, 74, 64
3, 67158, Control_c, 1, 11, 82
3, 67192, Control_c, 1, 11, 84
3, 67200, Note_on_c, 1, 63, 58
3, 67226, Control_c, 1, 11, 87
3, 67260, Control_c, 1, 11, 89
3, 67294, Control_c, 1, 11, 92
3, 67328, Control_c, 1, 11, 94
3, 67362, Control_c, 1, 11, 97
3, 67395, Control_c, 1, 11, 100
3, 67461, Note_on_c, 1, 75, 76
3, 67466, Note_off_c, 1, 63, 64
3, 67677, Note_off_c, 1, 75, 64
3, 67683, Note_on_c, 1, 73, 65
3, 67891, Note_off_c, 1, 73, 64
3, 67910, Note_on_c, 1, 75, 67
3, 68114, Note_off_c, 1, 75, 64
3, 68129, Note_on_c, 1, 71, 83
3, 68364, Note_off_c, 1, 71, 64
3, 68375, Note_on_c, 1, 75, 62
3, 68553, Note_off_c, 1, 75, 64
3, 68599, Note_on_c, 1, 68, 83
3, 68827, Note_off_c, 1, 68, 64
3, 68831, Note_on_c, 1, 75, 67
3, 69029, Note_off_c, 1, 75, 64
3, 69077, Note_on_c, 1, 70, 83
3, 69279, Control_c, 1, 11, 92
3, 69321, Control_c, 1, 11, 86
3, 69343, Note_on_c, 1, 75, 83
3, 69367, Control_c, 1, 11, 90
3, 69407, Note_off_c, 1, 70, 64
3, 69414, Control_c, 1, 11, 95
3, 69460, Control_c, 1, 11, 100
3, 69549, Note_on_c, 1, 74, 65
3, 69581, Note_off_c, 1, 75, 64
3, 69786, Note_off_c, 1, 74, 64
3, 69786, Note_on_c, 1, 75, 65
3, 69979, Note_off_c, 1, 75, 64
3, 70014, Note_on_c, 1, 70, 83
3, 70250, Note_off_c, 1, 70, 64
3, 70252, Note_on_c, 1, 75, 65
3, 70444, Note_off_c, 1, 75, 64
3, 70487, Note_on_c, 1, 66, 83
3, 70695, Note_off_c, 1, 66, 64
3, 70726, Note_on_c, 1, 75, 68
3, 70950, Note_off_c, 1, 75, 64
3, 71007, Note_on_c, 1, 68, 84
3, 71218, Control_c, 1, 11, 90
3, 71253, Control_c, 1, 11, 86
3, 71276, Note_on_c, 1, 75, 85
3, 71291, Control_c, 1, 11, 89
3, 71328, Note_off_c, 1, 68, 64
3, 71330, Control_c, 1, 11, 92
3, 71368, Control_c, 1, 11, 96
3, 71406, Control_c, 1, 11, 100
3, 71481, Note_on_c, 1, 74, 63
3, 71501, Note_off_c, 1, 75, 64
3, 71697, Note_on_c, 1, 75, 63
3, 71715, Note_off_c, 1, 74, 64
3, 71864, Note_off_c, 1, 75, 64
3, 71938, Note_on_c, 1, 68, 86
3, 72187, Note_off_c, 1, 68, 64
3, 72198, Note_on_c, 1, 75, 67
3, 72370, Note_off_c, 1, 75, 64
3, 72448, Note_on_c, 1, 65, 81
3, 72651, Note_off_c, 1, 65, 64
3, 72705, Note_on_c, 1, 75, 68
3, 72865, Note_off_c, 1, 75, 64
3, 72943, Note_on_c, 1, 66, 87
3, 73217, Note_on_c, 1, 75, 96
3, 73224, Note_off_c, 1, 66, 64
3, 73417, Note_off_c, 1, 75, 64
3, 73431, Note_on_c, 1, 74, 68
3, 73632, Note_off_c, 1, 74, 64
3, 73659, Note_on_c, 1, 75, 78
3, 73807, Note_off_c, 1, 75, 64
3, 73886, Note_on_c, 1, 66, 95
3, 74120, Note_off_c, 1, 66, 64
3, 74133, Note_on_c, 1, 75, 84
3, 74360, Note_off_c, 1, 75, 64
3, 74379, Note_on_c, 1, 63, 109
3, 74584, Note_off_c, 1, 63, 64
3, 74625, Note_on_c, 1, 75, 94
3, 74768, Note_off_c, 1, 75, 64
3, 74830, Control_c, 1, 11, 84
3, 74862, Control_c, 1, 11, 89
3, 74864, Note_on_c, 1, 74, 94
3, 74895, Control_c, 1, 11, 95
3, 74928, Control_c, 1, 11, 100
3, 74960, Control_c, 1, 11, 106
3, 74993, Control_c, 1, 11, 112
3, 75025, Control_c, 1, 11, 118
3, 75047, Control_c, 1, 11, 112
3, 75082, Control_c, 1, 11, 106
3, 75116, Control_c, 1, 11, 100
3, 75138, Note_off_c, 1, 74, 64
3, 75151, Note_on_c, 1, 83, 94
3, 75361, Note_off_c, 1, 83, 64
3, 75365, Note_on_c, 1, 80, 86
3, 75544, Note_off_c, 1, 80, 64
3, 75583, Note_on_c, 1, 74, 88
3, 75760, Note_off_c, 1, 74, 64
3, 75800, Note_on_c, 1, 73, 71
3, 76017, Note_off_c, 1, 73, 64
3, 76053, Note_on_c, 1, 82, 86
3, 76279, Note_on_c, 1, 79, 81
3, 76292, Note_off_c, 1, 82, 64
3, 76484, Note_off_c, 1, 79, 64
3, 76520, Note_on_c, 1, 73, 81
3, 76708, Note_off_c, 1, 73, 64
3, 76747, Note_on_c, 1, 72, 88
3, 76995, Note_off_c, 1, 72, 64
3, 77031, Note_on_c, 1, 80, 83
3, 77228, Note_off_c, 1, 80, 64
3, 77234, Note_on_c, 1, 77, 93
3, 77420, Note_off_c, 1, 77, 64
3, 77475, Note_on_c, 1, 71, 88
3, 77660, Note_off_c, 1, 71, 64
3, 77680, Control_c, 1, 11, 92
3, 77700, Control_c, 1, 11, 84
3, 77728, Note_on_c, 1, 70, 96
3, 77740, Control_c, 1, 11, 87
3, 77781, Control_c, 1, 11, 90
3, 77821, Control_c, 1, 11, 93
3, 77862, Control_c, 1, 11, 96
3, 77902, Control_c, 1, 11, 100
3, 77941, Note_off_c, 1, 70, 64
3, 77973, Note_on_c, 1, 78, 94
3, 78188, Note_off_c, 1, 78, 64
3, 78208, Note_on_c, 1, 75, 80
3, 78414, Note_off_c, 1, 75, 64
3, 78447, Note_on_c, 1, 69, 100
3, 78640, Control_c, 1, 11, 92
3, 78649, Note_off_c, 1, 69, 64
3, 78673, Control_c, 1, 11, 86
3, 78687, Note_on_c, 1, 68, 107
3, 78709, Control_c, 1, 11, 89
3, 78746, Control_c, 1, 11, 92
3, 78783, Control_c, 1, 11, 96
3, 78819, Control_c, 1, 11, 100
3, 78938, Note_off_c, 1, 68, 64
3, 78997, Note_on_c, 1, 77, 111
3, 79209, Note_on_c, 1, 74, 98
3, 79225, Note_off_c, 1, 77, 64
3, 79415, Note_on_c, 1, 68, 92
3, 79419, Note_off_c, 1, 74, 64
3, 79624, Control_c, 1, 11, 90
3, 79645, Note_off_c, 1, 68, 64
3, 79653, Control_c, 1, 11, 84
3, 79671, Note_on_c, 1, 67, 93
3, 79693, Control_c, 1, 11, 87
3, 79733, Control_c, 1, 11, 91
3, 79773, Control_c, 1, 11, 95
3, 79813, Control_c, 1, 11, 100
3, 79905, Note_off_c, 1, 67, 64
3, 79925, Note_on_c, 1, 75, 95
3, 80142, Note_off_c, 1, 75, 64
3, 80156, Note_on_c, 1, 69, 90
3, 80369, Note_on_c, 1, 60, 87
3, 80381, Note_off_c, 1, 69, 64
3, 80601, Note_off_c, 1, 60, 64
3, 80647, Note_on_c, 1, 58, 76
3, 80941, Control_c, 1, 11, 90
3, 80983, Control_c, 1, 11, 86
3, 81011, Control_c, 1, 11, 80
3, 81045, Control_c, 1, 11, 82
3, 81047, Note_on_c, 1, 77, 94
3, 81079, Control_c, 1, 11, 85
3, 81087, Note_off_c, 1, 58, 64
3, 81113, Control_c, 1, 11, 88
3, 81147, Control_c, 1, 11, 91
3, 81181, Control_c, 1, 11, 94
3, 81215, Control_c, 1, 11, 97
3, 81248, Control_c, 1, 11, 100
3, 81283, Note_off_c, 1, 77, 64
3, 81300, Note_on_c, 1, 78, 94
3, 81528, Note_on_c, 1, 75, 83
3, 81536, Note_off_c, 1, 78, 64
3, 81733, Note_off_c, 1, 75, 64
3, 81840, Note_on_c, 1, 58, 84
3, 81842, Note_on_c, 1, 65, 62
3, 81851, Control_c, 1, 11, 100
3, 81884, Control_c, 1, 11, 99
3, 81916, Control_c, 1, 11, 98
3, 81949, Control_c, 1, 11, 97
3, 81981, Control_c, 1, 11, 95
3, 82014, Control_c, 1, 11, 92
3, 82046, Control_c, 1, 11, 88
3, 82079, Control_c, 1, 11, 84
3, 82096, Control_c, 1, 11, 80
3, 82128, Control_c, 1, 11, 82
3, 82147, Note_off_c, 1, 58, 64
3, 82160, Note_on_c, 1, 75, 100
3, 82161, Control_c, 1, 11, 84
3, 82194, Control_c, 1, 11, 86
3, 82226, Control_c, 1, 11, 88
3, 82259, Control_c, 1, 11, 91
3, 82292, Control_c, 1, 11, 93
3, 82324, Control_c, 1, 11, 95
3, 82357, Control_c, 1, 11, 97
3, 82389, Control_c, 1, 11, 100
3, 82467, Note_on_c, 1, 74, 82
3, 82524, Note_off_c, 1, 75, 64
3, 82746, Note_on_c, 1, 75, 76
3, 82792, Note_off_c, 1, 74, 64
3, 82896, Note_on_c, 1, 74, 69
3, 82931, Note_off_c, 1, 75, 64
3, 83004, Note_on_c, 1, 75, 65
3, 83015, Note_off_c, 1, 74, 64
3, 83073, Note_off_c, 1, 65, 64
3, 83077, Note_on_c, 1, 74, 65
3, 83111, Note_off_c, 1, 75, 64
3, 83169, Note_on_c, 1, 75, 65
3, 83185, Note_off_c, 1, 74, 64
3, 83248, Note_on_c, 1, 74, 65
3, 83276, Note_off_c, 1, 75, 64
3, 83331, Note_on_c, 1, 75, 65
3, 83354, Note_off_c, 1, 74, 64
3, 83431, Note_on_c, 1, 74, 63
3, 83436, Note_off_c, 1, 75, 64
3, 83819, Note_on_c, 1, 75, 76
3, 83825, Control_c, 1, 11, 100
3, 83837, Note_off_c, 1, 74, 64
3, 83858, Control_c, 1, 11, 97
3, 83891, Control_c, 1, 11, 94
3, 83924, Control_c, 1, 11, 91
3, 83958, Control_c, 1, 11, 88
3, 83979, Control_c, 1, 11, 86
3, 84066, Control_c, 1, 11, 70
3, 84124, Note_off_c, 1, 75, 64
3, 84153, Control_c, 1, 11, 54
3, 84200, Control_c, 1, 11, 50
3, 84265, Control_c, 1, 11, 56
3, 84295, Note_on_c, 1, 63, 88
3, 84330, Control_c, 1, 11, 63
3, 84395, Control_c, 1, 11, 69
3, 84460, Control_c, 1, 11, 77
3, 84499, Control_c, 1, 11, 80
3, 84527, Control_c, 1, 11, 81
3, 84555, Control_c, 1, 11, 83
3, 84582, Control_c, 1, 11, 84
3, 84610, Control_c, 1, 11, 85
3, 84638, Control_c, 1, 11, 87
3, 84665, Control_c, 1, 11, 88
3, 84693, Control_c, 1, 11, 90
3, 84720, Control_c, 1, 11, 91
3, 84748, Control_c, 1, 11, 92
3, 84776, Control_c, 1, 11, 94
3, 84803, Control_c, 1, 11, 95
3, 84831, Control_c, 1, 11, 97
3, 84859, Control_c, 1, 11, 98
3, 84886, Control_c, 1, 11, 100
3, 84914, Control_c, 1, 11, 101
3, 84942, Control_c, 1, 11, 102
3, 84969, Control_c, 1, 11, 100
3, 84997, Control_c, 1, 11, 92
3, 85025, Control_c, 1, 11, 84
3, 85052, Control_c, 1, 11, 77
3, 85080, Control_c, 1, 11, 69
3, 85093, Note_off_c, 1, 63, 64
3, 85108, Control_c, 1, 11, 68
3, 85135, Control_c, 1, 11, 74
3, 85163, Control_c, 1, 11, 79
3, 85191, Control_c, 1, 11, 84
3, 85205, Note_on_c, 1, 82, 95
3, 85218, Control_c, 1, 11, 88
3, 85246, Control_c, 1, 11, 93
3, 85274, Control_c, 1, 11, 97
3, 85301, Control_c, 1, 11, 100
3, 85340, Note_off_c, 1, 82, 64
3, 85346, Note_on_c, 1, 80, 84
3, 85420, Note_on_c, 1, 78, 76
3, 85428, Note_off_c, 1, 80, 64
3, 85504, Note_off_c, 1, 78, 64
3, 85515, Note_on_c, 1, 77, 86
3, 85608, Note_off_c, 1, 77, 64
3, 85609, Note_on_c, 1, 75, 68
3, 85671, Note_on_c, 1, 74, 71
3, 85686, Note_off_c, 1, 75, 64
3, 85729, Note_on_c, 1, 75, 63
3, 85739, Note_off_c, 1, 74, 64
3, 85780, Control_c, 1, 11, 90
3, 85796, Control_c, 1, 11, 82
3, 85798, Note_off_c, 1, 75, 64
3, 85803, Note_on_c, 1, 70, 86
3, 85812, Control_c, 1, 11, 86
3, 85828, Control_c, 1, 11, 91
3, 85844, Control_c, 1, 11, 95
3, 85859, Control_c, 1, 11, 100
3, 85890, Note_off_c, 1, 70, 64
3, 85894, Note_on_c, 1, 66, 79
3, 85948, Note_on_c, 1, 68, 65
3, 85953, Note_off_c, 1, 66, 64
3, 86003, Note_on_c, 1, 70, 74
3, 86009, Note_off_c, 1, 68, 64
3, 86036, Control_c, 1, 11, 90
3, 86050, Note_off_c, 1, 70, 64
3, 86052, Control_c, 1, 11, 82
3, 86060, Note_on_c, 1, 66, 91
3, 86068, Control_c, 1, 11, 85
3, 86084, Control_c, 1, 11, 89
3, 86100, Control_c, 1, 11, 92
3, 86116, Control_c, 1, 11, 96
3, 86131, Control_c, 1, 11, 100
3, 86173, Note_off_c, 1, 66, 64
3, 86176, Note_on_c, 1, 65, 76
3, 86233, Note_on_c, 1, 63, 80
3, 86243, Note_off_c, 1, 65, 64
3, 86288, Note_on_c, 1, 62, 73
3, 86291, Note_off_c, 1, 63, 64
3, 86366, Note_on_c, 1, 63, 80
3, 86369, Note_off_c, 1, 62, 64
3, 86468, Note_off_c, 1, 63, 64
3, 86473, Note_on_c, 1, 58, 76
3, 86543, Note_off_c, 1, 58, 64
3, 86544, Note_on_c, 1, 63, 80
3, 86598, Note_off_c, 1, 63, 64
3, 86616, Note_on_c, 1, 66, 72
3, 86667, Note_off_c, 1, 66, 64
3, 86672, Control_c, 1, 11, 86
3, 86680, Note_on_c, 1, 70, 88
3, 86687, Control_c, 1, 11, 88
3, 86702, Control_c, 1, 11, 90
3, 86718, Control_c, 1, 11, 92
3, 86733, Control_c, 1, 11, 95
3, 86748, Control_c, 1, 11, 97
3, 86763, Control_c, 1, 11, 100
3, 86770, Note_off_c, 1, 70, 64
3, 86770, Note_on_c, 1, 75, 74
3, 86827, Note_off_c, 1, 75, 64
3, 86843, Note_on_c, 1, 78, 64
3, 86917, Note_off_c, 1, 78, 64
3, 86952, Control_c, 1, 11, 82
3, 86966, Control_c, 1, 11, 84
3, 86972, Note_on_c, 1, 63, 79
3, 86980, Control_c, 1, 11, 86
3, 86994, Control_c, 1, 11, 88
3, 87008, Control_c, 1, 11, 90
3, 87022, Control_c, 1, 11, 93
3, 87036, Control_c, 1, 11, 95
3, 87050, Control_c, 1, 11, 97
3, 87063, Control_c, 1, 11, 100
3, 87104, Control_c, 1, 11, 94
3, 87112, Control_c, 1, 11, 88
3, 87120, Control_c, 1, 11, 76
3, 87121, Note_off_c, 1, 63, 64
3, 87126, Note_on_c, 1, 61, 80
3, 87134, Control_c, 1, 11, 80
3, 87149, Control_c, 1, 11, 84
3, 87163, Control_c, 1, 11, 89
3, 87178, Control_c, 1, 11, 93
3, 87192, Control_c, 1, 11, 98
3, 87207, Control_c, 1, 11, 102
3, 87221, Control_c, 1, 11, 107
3, 87235, Control_c, 1, 11, 112
3, 87256, Control_c, 1, 11, 106
3, 87273, Control_c, 1, 11, 104
3, 87290, Control_c, 1, 11, 102
3, 87307, Control_c, 1, 11, 100
3, 87339, Note_on_c, 1, 65, 89
3, 87343, Note_off_c, 1, 61, 64
3, 87425, Note_on_c, 1, 70, 80
3, 87448, Note_off_c, 1, 65, 64
3, 87496, Note_on_c, 1, 73, 80
3, 87501, Note_off_c, 1, 70, 64
3, 87566, Note_off_c, 1, 73, 64
3, 87575, Note_on_c, 1, 77, 87
3, 87687, Note_off_c, 1, 77, 64
3, 87713, Note_on_c, 1, 70, 75
3, 87793, Note_on_c, 1, 73, 80
3, 87801, Note_off_c, 1, 70, 64
3, 87865, Note_off_c, 1, 73, 64
3, 87871, Note_on_c, 1, 77, 83
3, 87959, Note_off_c, 1, 77, 64
3, 87972, Control_c, 1, 11, 74
3, 87986, Control_c, 1, 11, 76
3, 87988, Note_on_c, 1, 82, 89
3, 88000, Control_c, 1, 11, 79
3, 88014, Control_c, 1, 11, 81
3, 88028, Control_c, 1, 11, 84
3, 88042, Control_c, 1, 11, 87
3, 88056, Control_c, 1, 11, 89
3, 88070, Control_c, 1, 11, 92
3, 88084, Control_c, 1, 11, 95
3, 88098, Control_c, 1, 11, 97
3, 88112, Control_c, 1, 11, 100
3, 88126, Control_c, 1, 11, 102
3, 88140, Control_c, 1, 11, 105
3, 88154, Control_c, 1, 11, 108
3, 88168, Control_c, 1, 11, 110
3, 88182, Control_c, 1, 11, 113
3, 88195, Control_c, 1, 11, 116
3, 88208, Control_c, 1, 11, 112
3, 88222, Control_c, 1, 11, 109
3, 88236, Control_c, 1, 11, 107
3, 88251, Control_c, 1, 11, 104
3, 88265, Control_c, 1, 11, 102
3, 88279, Control_c, 1, 11, 100
3, 88306, Note_on_c, 1, 83, 72
3, 88316, Note_off_c, 1, 82, 64
3, 88380, Note_on_c, 1, 85, 48
3, 88392, Note_off_c, 1, 83, 64
3, 88424, Control_c, 1, 11, 92
3, 88452, Control_c, 1, 11, 84
3, 88480, Note_off_c, 1, 85, 64
3, 88536, Control_c, 1, 11, 72
3, 88550, Control_c, 1, 11, 76
3, 88564, Note_on_c, 1, 66, 92
3, 88564, Control_c, 1, 11, 80
3, 88578, Control_c, 1, 11, 85
3, 88592, Control_c, 1, 11, 89
3, 88606, Control_c, 1, 11, 93
3, 88620, Control_c, 1, 11, 98
3, 88634, Control_c, 1, 11, 102
3, 88648, Control_c, 1, 11, 107
3, 88662, Control_c, 1, 11, 111
3, 88675, Control_c, 1, 11, 116
3, 88692, Control_c, 1, 11, 112
3, 88712, Control_c, 1, 11, 106
3, 88731, Control_c, 1, 11, 100
3, 88781, Note_off_c, 1, 66, 64
3, 88785, Note_on_c, 1, 64, 86
3, 88854, Note_on_c, 1, 66, 83
3, 88862, Note_off_c, 1, 64, 64
3, 88901, Note_on_c, 1, 64, 71
3, 88921, Note_off_c, 1, 66, 64
3, 88949, Note_on_c, 1, 66, 69
3, 88954, Note_off_c, 1, 64, 64
3, 88989, Note_on_c, 1, 64, 67
3, 89003, Note_off_c, 1, 66, 64
3, 89026, Note_on_c, 1, 66, 65
3, 89039, Note_off_c, 1, 64, 64
3, 89058, Note_on_c, 1, 64, 62
3, 89062, Note_off_c, 1, 66, 64
3, 89086, Note_on_c, 1, 66, 61
3, 89097, Note_off_c, 1, 64, 64
3, 89118, Note_on_c, 1, 64, 62
3, 89129, Note_off_c, 1, 66, 64
3, 89146, Note_on_c, 1, 66, 61
3, 89157, Note_off_c, 1, 64, 64
3, 89184, Note_on_c, 1, 64, 59
3, 89189, Note_off_c, 1, 66, 64
3, 89228, Note_on_c, 1, 63, 62
3, 89239, Note_off_c, 1, 64, 64
3, 89276, Note_on_c, 1, 64, 60
3, 89286, Note_off_c, 1, 63, 64
3, 89351, Note_off_c, 1, 64, 64
3, 89360, Control_c, 1, 11, 78
3, 89374, Control_c, 1, 11, 79
3, 89386, Note_on_c, 1, 63, 84
3, 89388, Control_c, 1, 11, 81
3, 89402, Control_c, 1, 11, 82
3, 89416, Control_c, 1, 11, 84
3, 89430, Control_c, 1, 11, 85
3, 89444, Control_c, 1, 11, 87
3, 89458, Control_c, 1, 11, 89
3, 89473, Control_c, 1, 11, 90
3, 89487, Control_c, 1, 11, 92
3, 89501, Control_c, 1, 11, 93
3, 89515, Control_c, 1, 11, 95
3, 89529, Control_c, 1, 11, 97
3, 89543, Control_c, 1, 11, 98
3, 89557, Control_c, 1, 11, 100
3, 89572, Control_c, 1, 11, 101
3, 89586, Control_c, 1, 11, 103
3, 89600, Control_c, 1, 11, 105
3, 89614, Control_c, 1, 11, 106
3, 89628, Control_c, 1, 11, 108
3, 89642, Control_c, 1, 11, 109
3, 89656, Control_c, 1, 11, 111
3, 89670, Control_c, 1, 11, 113
3, 89685, Control_c, 1, 11, 114
3, 89699, Control_c, 1, 11, 116
3, 89713, Control_c, 1, 11, 117
3, 89727, Control_c, 1, 11, 119
3, 89741, Control_c, 1, 11, 121
3, 89755, Control_c, 1, 11, 122
3, 89769, Control_c, 1, 11, 124
3, 89783, Control_c, 1, 11, 126
3, 89804, Control_c, 1, 11, 114
3, 89818, Control_c, 1, 11, 107
3, 89832, Control_c, 1, 11, 101
3, 89847, Control_c, 1, 11, 94
3, 89861, Control_c, 1, 11, 88
3, 89875, Control_c, 1, 11, 82
3, 89914, Note_off_c, 1, 63, 64
3, 89960, Control_c, 1, 11, 62
3, 89974, Control_c, 1, 11, 66
3, 89982, Note_on_c, 1, 75, 88
3, 89988, Control_c, 1, 11, 71
3, 90002, Control_c, 1, 11, 76
3, 90016, Control_c, 1, 11, 80
3, 90030, Control_c, 1, 11, 85
3, 90044, Control_c, 1, 11, 90
3, 90058, Control_c, 1, 11, 95
3, 90071, Control_c, 1, 11, 100
3, 90094, Note_on_c, 1, 73, 96
3, 90099, Note_off_c, 1, 75, 64
3, 90150, Note_on_c, 1, 71, 88
3, 90161, Note_off_c, 1, 73, 64
3, 90210, Note_on_c, 1, 70, 88
3, 90211, Note_off_c, 1, 71, 64
3, 90262, Note_on_c, 1, 68, 93
3, 90269, Note_off_c, 1, 70, 64
3, 90315, Note_off_c, 1, 68, 64
3, 90316, Note_on_c, 1, 66, 91
3, 90369, Note_off_c, 1, 66, 64
3, 90372, Control_c, 1, 11, 100
3, 90373, Note_on_c, 1, 65, 104
3, 90386, Control_c, 1, 11, 102
3, 90400, Control_c, 1, 11, 104
3, 90414, Control_c, 1, 11, 107
3, 90428, Control_c, 1, 11, 109
3, 90443, Control_c, 1, 11, 112
3, 90457, Control_c, 1, 11, 114
3, 90471, Control_c, 1, 11, 117
3, 90485, Control_c, 1, 11, 119
3, 90499, Control_c, 1, 11, 122
3, 90508, Control_c, 1, 11, 118
3, 90522, Control_c, 1, 11, 109
3, 90535, Control_c, 1, 11, 100
3, 90558, Note_on_c, 1, 66, 88
3, 90560, Note_off_c, 1, 65, 64
3, 90636, Note_on_c, 1, 68, 75
3, 90637, Note_off_c, 1, 66, 64
3, 90700, Note_on_c, 1, 66, 88
3, 90707, Note_off_c, 1, 68, 64
3, 90751, Note_on_c, 1, 65, 83
3, 90765, Note_off_c, 1, 66, 64
3, 90811, Note_on_c, 1, 63, 92
3, 90814, Note_off_c, 1, 65, 64
3, 90862, Note_on_c, 1, 62, 88
3, 90871, Note_off_c, 1, 63, 64
3, 90915, Note_on_c, 1, 63, 88
3, 90919, Note_off_c, 1, 62, 64
3, 90960, Note_off_c, 1, 63, 64
3, 90983, Note_on_c, 1, 59, 96
3, 91075, Note_on_c, 1, 63, 81
3, 91171, Note_off_c, 1, 59, 64
3, 91175, Note_on_c, 1, 70, 97
3, 91199, Note_off_c, 1, 63, 64
3, 91262, Note_on_c, 1, 68, 88
3, 91271, Note_off_c, 1, 70, 64
3, 91326, Note_off_c, 1, 68, 64
3, 91332, Note_on_c, 1, 66, 88
3, 91409, Note_on_c, 1, 68, 95
3, 91419, Note_off_c, 1, 66, 64
3, 91480, Control_c, 1, 11, 92
3, 91496, Control_c, 1, 11, 88
3, 91507, Note_off_c, 1, 68, 64
3, 91512, Control_c, 1, 11, 84
3, 91517, Note_on_c, 1, 70, 95
3, 91526, Control_c, 1, 11, 86
3, 91541, Control_c, 1, 11, 88
3, 91556, Control_c, 1, 11, 90
3, 91571, Control_c, 1, 11, 93
3, 91586, Control_c, 1, 11, 95
3, 91601, Control_c, 1, 11, 97
3, 91615, Control_c, 1, 11, 100
3, 91655, Note_on_c, 1, 68, 77
3, 91671, Note_off_c, 1, 70, 64
3, 91721, Note_on_c, 1, 70, 68
3, 91727, Note_off_c, 1, 68, 64
3, 91780, Note_on_c, 1, 68, 61
3, 91786, Note_off_c, 1, 70, 64
3, 91830, Note_on_c, 1, 70, 61
3, 91834, Note_off_c, 1, 68, 64
3, 91874, Note_on_c, 1, 68, 55
3, 91884, Note_off_c, 1, 70, 64
3, 91921, Note_on_c, 1, 70, 55
3, 91929, Note_off_c, 1, 68, 64
3, 91958, Note_on_c, 1, 68, 55
3, 91965, Note_off_c, 1, 70, 64
3, 91996, Note_on_c, 1, 70, 55
3, 92002, Note_off_c, 1, 68, 64
3, 92034, Note_on_c, 1, 68, 55
3, 92043, Note_off_c, 1, 70, 64
3, 92065, Note_on_c, 1, 70, 55
3, 92071, Note_off_c, 1, 68, 64
3, 92091, Note_on_c, 1, 68, 54
3, 92100, Note_off_c, 1, 70, 64
3, 92122, Note_on_c, 1, 70, 54
3, 92128, Note_off_c, 1, 68, 64
3, 92148, Note_on_c, 1, 68, 55
3, 92154, Note_off_c, 1, 70, 64
3, 92208, Note_on_c, 1, 70, 57
3, 92219, Note_off_c, 1, 68, 64
3, 92240, Control_c, 1, 11, 100
3, 92272, Control_c, 1, 11, 94
3, 92285, Control_c, 1, 11, 91
3, 92299, Control_c, 1, 11, 89
3, 92313, Control_c, 1, 11, 86
3, 92327, Control_c, 1, 11, 83
3, 92341, Control_c, 1, 11, 81
3, 92355, Control_c, 1, 11, 78
3, 92369, Control_c, 1, 11, 76
3, 92382, Control_c, 1, 11, 73
3, 92396, Control_c, 1, 11, 71
3, 92410, Control_c, 1, 11, 68
3, 92424, Control_c, 1, 11, 66
3, 92431, Note_off_c, 1, 70, 64
3, 92438, Control_c, 1, 11, 63
3, 92452, Control_c, 1, 11, 61
3, 92466, Control_c, 1, 11, 58
3, 92479, Control_c, 1, 11, 56
3, 92518, Control_c, 1, 11, 63
3, 92542, Note_on_c, 1, 70, 81
3, 92573, Control_c, 1, 11, 66
3, 92629, Control_c, 1, 11, 69
3, 92684, Control_c, 1, 11, 73
3, 92740, Control_c, 1, 11, 76
3, 92795, Control_c, 1, 11, 79
3, 92851, Control_c, 1, 11, 82
3, 92906, Control_c, 1, 11, 85
3, 92962, Control_c, 1, 11, 89
3, 93017, Control_c, 1, 11, 92
3, 93073, Control_c, 1, 11, 95
3, 93128, Control_c, 1, 11, 98
3, 93184, Control_c, 1, 11, 101
3, 93240, Control_c, 1, 11, 105
3, 93295, Control_c, 1, 11, 106
3, 93920, Control_c, 1, 11, 102
3, 93976, Control_c, 1, 11, 100
3, 94032, Control_c, 1, 11, 98
3, 94088, Control_c, 1, 11, 97
3, 94144, Control_c, 1, 11, 95
3, 94200, Control_c, 1, 11, 94
3, 94256, Control_c, 1, 11, 92
3, 94312, Control_c, 1, 11, 90
3, 94368, Control_c, 1, 11, 89
3, 94424, Control_c, 1, 11, 87
3, 94479, Control_c, 1, 11, 86
3, 95272, Control_c, 1, 11, 70
3, 95312, Control_c, 1, 11, 60
3, 95370, Control_c, 1, 11, 45
3, 95422, Note_off_c, 1, 70, 64
3, 95429, Control_c, 1, 11, 30
3, 95487, Control_c, 1, 11, 16
3, 95976, Control_c, 1, 11, 76
3, 96000, Note_on_c, 1, 66, 119
3, 96000, Control_c, 1, 11, 82
3, 96024, Control_c, 1, 11, 88
3, 96048, Control_c, 1, 11, 94
3, 96071, Control_c, 1, 11, 100
3, 96117, Note_on_c, 1, 65, 85
3, 96134, Note_off_c, 1, 66, 64
3, 96228, Note_off_c, 1, 65, 64
3, 96234, Note_on_c, 1, 66, 84
3, 96323, Note_off_c, 1, 66, 64
3, 96351, Note_on_c, 1, 68, 110
3, 96436, Note_off_c, 1, 68, 64
3, 96472, Note_on_c, 1, 70, 113
3, 96567, Note_off_c, 1, 70, 64
3, 96587, Note_on_c, 1, 71, 96
3, 96661, Note_off_c, 1, 71, 64
3, 96713, Note_on_c, 1, 73, 110
3, 96827, Note_on_c, 1, 75, 84
3, 96830, Note_off_c, 1, 73, 64
3, 96934, Note_off_c, 1, 75, 64
3, 96941, Note_on_c, 1, 73, 88
3, 97027, Note_off_c, 1, 73, 64
3, 97055, Note_on_c, 1, 71, 96
3, 97141, Note_off_c, 1, 71, 64
3, 97188, Note_on_c, 1, 70, 100
3, 97280, Note_off_c, 1, 70, 64
3, 97293, Note_on_c, 1, 68, 90
3, 97373, Note_off_c, 1, 68, 64
3, 97430, Note_on_c, 1, 70, 85
3, 97603, Note_off_c, 1, 70, 64
3, 97685, Note_on_c, 1, 73, 90
3, 97778, Note_off_c, 1, 73, 64
3, 97925, Note_on_c, 1, 78, 88
3, 98018, Note_off_c, 1, 78, 64
3, 98158, Note_on_c, 1, 77, 107
3, 98274, Note_on_c, 1, 78, 89
3, 98275, Note_off_c, 1, 77, 64
3, 98382, Note_on_c, 1, 77, 83
3, 98395, Note_off_c, 1, 78, 64
3, 98477, Note_off_c, 1, 77, 64
3, 98503, Note_on_c, 1, 75, 96
3, 98589, Note_off_c, 1, 75, 64
3, 98635, Note_on_c, 1, 73, 105
3, 98721, Note_off_c, 1, 73, 64
3, 98734, Note_on_c, 1, 71, 92
3, 98814, Note_off_c, 1, 71, 64
3, 98865, Note_on_c, 1, 70, 79
3, 99011, Note_off_c, 1, 70, 64
3, 99121, Note_on_c, 1, 66, 75
3, 99214, Note_off_c, 1, 66, 64
3, 99355, Note_on_c, 1, 73, 74
3, 99462, Note_off_c, 1, 73, 64
3, 99597, Note_on_c, 1, 73, 77
3, 99714, Note_off_c, 1, 73, 64
3, 99837, Note_on_c, 1, 73, 71
3, 99947, Note_off_c, 1, 73, 64
3, 100077, Note_on_c, 1, 73, 72
3, 100175, Note_off_c, 1, 73, 64
3, 100315, Note_on_c, 1, 73, 89
3, 100437, Note_off_c, 1, 73, 64
3, 100556, Note_on_c, 1, 73, 80
3, 100653, Note_off_c, 1, 73, 64
3, 100794, Note_on_c, 1, 73, 81
3, 100883, Note_off_c, 1, 73, 64
3, 101034, Note_on_c, 1, 73, 99
3, 101142, Note_off_c, 1, 73, 64
3, 101275, Note_on_c, 1, 73, 95
3, 101371, Note_off_c, 1, 73, 64
3, 101511, Note_on_c, 1, 73, 96
3, 101601, Note_off_c, 1, 73, 64
3, 101758, Note_on_c, 1, 82, 121
3, 101858, Note_off_c, 1, 82, 64
3, 101870, Note_on_c, 1, 83, 101
3, 101977, Note_off_c, 1, 83, 64
3, 101989, Note_on_c, 1, 82, 101
3, 102069, Note_off_c, 1, 82, 64
3, 102107, Note_on_c, 1, 80, 119
3, 102199, Note_off_c, 1, 80, 64
3, 102228, Note_on_c, 1, 78, 116
3, 102304, Note_off_c, 1, 78, 64
3, 102339, Note_on_c, 1, 77, 93
3, 102415, Note_off_c, 1, 77, 64
3, 102470, Note_on_c, 1, 75, 116
3, 102589, Note_on_c, 1, 73, 89
3, 102593, Note_off_c, 1, 75, 64
3, 102685, Note_off_c, 1, 73, 64
3, 102706, Note_on_c, 1, 75, 89
3, 102786, Note_off_c, 1, 75, 64
3, 102827, Note_on_c, 1, 77, 99
3, 102907, Note_off_c, 1, 77, 64
3, 102949, Note_on_c, 1, 78, 109
3, 103044, Note_off_c, 1, 78, 64
3, 103062, Note_on_c, 1, 75, 94
3, 103142, Note_off_c, 1, 75, 64
3, 103197, Note_on_c, 1, 80, 121
3, 103307, Note_off_c, 1, 80, 64
3, 103314, Note_on_c, 1, 82, 103
3, 103414, Note_off_c, 1, 82, 64
3, 103435, Note_on_c, 1, 80, 103
3, 103515, Note_off_c, 1, 80, 64
3, 103549, Note_on_c, 1, 78, 106
3, 103648, Note_off_c, 1, 78, 64
3, 103668, Note_on_c, 1, 77, 120
3, 103747, Note_off_c, 1, 77, 64
3, 103780, Note_on_c, 1, 75, 91
3, 103860, Note_off_c, 1, 75, 64
3, 103914, Note_on_c, 1, 73, 113
3, 104031, Note_off_c, 1, 73, 64
3, 104032, Note_on_c, 1, 72, 89
3, 104123, Note_off_c, 1, 72, 64
3, 104152, Note_on_c, 1, 73, 89
3, 104232, Note_off_c, 1, 73, 64
3, 104269, Note_on_c, 1, 75, 101
3, 104354, Note_off_c, 1, 75, 64
3, 104392, Note_on_c, 1, 77, 120
3, 104474, Note_off_c, 1, 77, 64
3, 104503, Note_on_c, 1, 73, 98
3, 104583, Note_off_c, 1, 73, 64
3, 104635, Note_on_c, 1, 78, 121
3, 104744, Note_off_c, 1, 78, 64
3, 104753, Note_on_c, 1, 80, 87
3, 104852, Note_off_c, 1, 80, 64
3, 104870, Note_on_c, 1, 78, 87
3, 104944, Note_off_c, 1, 78, 64
3, 104991, Note_on_c, 1, 77, 103
3, 105073, Note_off_c, 1, 77, 64
3, 105110, Note_on_c, 1, 75, 111
3, 105195, Note_off_c, 1, 75, 64
3, 105217, Note_on_c, 1, 73, 87
3, 105297, Note_off_c, 1, 73, 64
3, 105349, Note_on_c, 1, 72, 121
3, 105466, Note_off_c, 1, 72, 64
3, 105471, Note_on_c, 1, 70, 87
3, 105582, Note_off_c, 1, 70, 64
3, 105587, Note_on_c, 1, 72, 85
3, 105680, Note_off_c, 1, 72, 64
3, 105705, Note_on_c, 1, 73, 105
3, 105793, Note_off_c, 1, 73, 64
3, 105825, Note_on_c, 1, 75, 115
3, 105909, Note_off_c, 1, 75, 64
3, 105938, Note_on_c, 1, 72, 107
3, 106018, Note_off_c, 1, 72, 64
3, 106073, Note_on_c, 1, 73, 75
3, 106230, Note_off_c, 1, 73, 64
3, 106320, Note_on_c, 1, 77, 69
3, 106395, Note_off_c, 1, 77, 64
3, 106561, Note_on_c, 1, 80, 69
3, 106638, Note_off_c, 1, 80, 64
3, 106797, Note_on_c, 1, 72, 92
3, 106965, Note_off_c, 1, 72, 64
3, 107041, Note_on_c, 1, 75, 72
3, 107110, Note_off_c, 1, 75, 64
3, 107281, Note_on_c, 1, 80, 72
3, 107349, Note_off_c, 1, 80, 64
3, 107519, Note_on_c, 1, 73, 90
3, 107667, Note_off_c, 1, 73, 64
3, 107763, Note_on_c, 1, 77, 75
3, 107826, Note_off_c, 1, 77, 64
3, 108001, Note_on_c, 1, 80, 75
3, 108075, Note_off_c, 1, 80, 64
3, 108237, Note_on_c, 1, 68, 90
3, 108384, Note_off_c, 1, 68, 64
3, 108480, Note_on_c, 1, 75, 71
3, 108569, Note_off_c, 1, 75, 64
3, 108720, Note_on_c, 1, 80, 69
3, 108799, Note_off_c, 1, 80, 64
3, 108955, Note_on_c, 1, 73, 121
3, 109069, Note_off_c, 1, 73, 64
3, 109074, Note_on_c, 1, 72, 96
3, 109172, Note_off_c, 1, 72, 64
3, 109189, Note_on_c, 1, 73, 96
3, 109269, Note_off_c, 1, 73, 64
3, 109314, Note_on_c, 1, 75, 116
3, 109395, Note_off_c, 1, 75, 64
3, 109434, Note_on_c, 1, 77, 121
3, 109509, Note_off_c, 1, 77, 64
3, 109545, Note_on_c, 1, 78, 100
3, 109632, Note_off_c, 1, 78, 64
3, 109680, Note_on_c, 1, 80, 121
3, 109787, Note_off_c, 1, 80, 64
3, 109798, Note_on_c, 1, 82, 96
3, 109894, Note_off_c, 1, 82, 64
3, 109908, Note_on_c, 1, 80, 96
3, 109998, Note_off_c, 1, 80, 64
3, 110035, Note_on_c, 1, 78, 107
3, 110123, Note_off_c, 1, 78, 64
3, 110153, Note_on_c, 1, 77, 121
3, 110235, Note_off_c, 1, 77, 64
3, 110251, Note_on_c, 1, 75, 98
3, 110325, Note_off_c, 1, 75, 64
3, 110385, Note_on_c, 1, 73, 86
3, 110531, Note_off_c, 1, 73, 64
3, 110639, Note_on_c, 1, 77, 75
3, 110717, Note_off_c, 1, 77, 64
3, 110879, Note_on_c, 1, 68, 75
3, 110957, Note_off_c, 1, 68, 64
3, 111118, Note_on_c, 1, 75, 96
3, 111250, Note_off_c, 1, 75, 64
3, 111356, Note_on_c, 1, 78, 79
3, 111434, Note_off_c, 1, 78, 64
3, 111599, Note_on_c, 1, 68, 79
3, 111677, Note_off_c, 1, 68, 64
3, 111837, Note_on_c, 1, 77, 105
3, 111954, Note_off_c, 1, 77, 64
3, 112076, Note_on_c, 1, 77, 69
3, 112168, Note_off_c, 1, 77, 64
3, 112313, Note_on_c, 1, 77, 69
3, 112414, Note_off_c, 1, 77, 64
3, 112553, Note_on_c, 1, 77, 87
3, 112662, Note_off_c, 1, 77, 64
3, 112796, Note_on_c, 1, 77, 67
3, 112885, Note_off_c, 1, 77, 64
3, 113030, Note_on_c, 1, 77, 67
3, 113123, Note_off_c, 1, 77, 64
3, 113274, Note_on_c, 1, 75, 105
3, 113405, Note_off_c, 1, 75, 64
3, 113516, Note_on_c, 1, 75, 69
3, 113617, Note_off_c, 1, 75, 64
3, 113753, Note_on_c, 1, 75, 69
3, 113843, Note_off_c, 1, 75, 64
3, 113994, Note_on_c, 1, 75, 87
3, 114103, Note_off_c, 1, 75, 64
3, 114235, Note_on_c, 1, 75, 67
3, 114322, Note_off_c, 1, 75, 64
3, 114474, Note_on_c, 1, 75, 67
3, 114553, Note_off_c, 1, 75, 64
3, 114717, Note_on_c, 1, 73, 105
3, 114825, Note_off_c, 1, 73, 64
3, 114957, Note_on_c, 1, 73, 71
3, 115045, Note_off_c, 1, 73, 64
3, 115199, Note_on_c, 1, 73, 71
3, 115283, Note_off_c, 1, 73, 64
3, 115446, Note_on_c, 1, 73, 85
3, 115542, Note_off_c, 1, 73, 64
3, 115683, Note_on_c, 1, 73, 85
3, 115757, Note_off_c, 1, 73, 64
3, 115913, Note_on_c, 1, 73, 91
3, 115984, Note_off_c, 1, 73, 64
3, 116167, Note_on_c, 1, 72, 87
3, 116275, Note_off_c, 1, 72, 64
3, 116283, Note_on_c, 1, 75, 63
3, 116367, Note_off_c, 1, 75, 64
3, 116401, Note_on_c, 1, 68, 83
3, 116493, Note_off_c, 1, 68, 64
3, 116517, Note_on_c, 1, 75, 65
3, 116611, Note_off_c, 1, 75, 64
3, 116637, Note_on_c, 1, 72, 97
3, 116726, Note_off_c, 1, 72, 64
3, 116746, Note_on_c, 1, 75, 77
3, 116826, Note_off_c, 1, 75, 64
3, 116869, Note_on_c, 1, 73, 107
3, 116974, Note_off_c, 1, 73, 64
3, 116995, Note_on_c, 1, 77, 79
3, 117075, Note_off_c, 1, 77, 64
3, 117114, Note_on_c, 1, 68, 104
3, 117212, Note_off_c, 1, 68, 64
3, 117230, Note_on_c, 1, 77, 77
3, 117313, Note_off_c, 1, 77, 64
3, 117350, Note_on_c, 1, 73, 112
3, 117455, Note_off_c, 1, 73, 64
3, 117461, Note_on_c, 1, 77, 91
3, 117541, Note_off_c, 1, 77, 64
3, 117587, Note_on_c, 1, 75, 118
3, 117699, Note_off_c, 1, 75, 64
3, 117711, Note_on_c, 1, 78, 90
3, 117791, Note_off_c, 1, 78, 64
3, 117836, Note_on_c, 1, 68, 105
3, 117926, Note_off_c, 1, 68, 64
3, 117954, Note_on_c, 1, 78, 101
3, 118041, Note_off_c, 1, 78, 64
3, 118076, Note_on_c, 1, 75, 118
3, 118166, Note_off_c, 1, 75, 64
3, 118185, Note_on_c, 1, 78, 95
3, 118265, Note_off_c, 1, 78, 64
3, 118310, Note_on_c, 1, 77, 113
3, 118434, Note_off_c, 1, 77, 64
3, 118438, Note_on_c, 1, 80, 103
3, 118518, Note_off_c, 1, 80, 64
3, 118559, Note_on_c, 1, 68, 107
3, 118646, Note_off_c, 1, 68, 64
3, 118676, Note_on_c, 1, 80, 88
3, 118760, Note_off_c, 1, 80, 64
3, 118795, Note_on_c, 1, 77, 113
3, 118882, Note_off_c, 1, 77, 64
3, 118913, Note_on_c, 1, 80, 103
3, 118993, Note_off_c, 1, 80, 64
3, 119037, Note_on_c, 1, 78, 110
3, 119169, Note_on_c, 1, 72, 87
3, 119172, Note_off_c, 1, 78, 64
3, 119252, Note_off_c, 1, 72, 64
3, 119283, Note_on_c, 1, 78, 121
3, 119387, Note_off_c, 1, 78, 64
3, 119393, Note_on_c, 1, 72, 89
3, 119486, Note_off_c, 1, 72, 64
3, 119516, Note_on_c, 1, 78, 121
3, 119620, Note_off_c, 1, 78, 64
3, 119627, Note_on_c, 1, 72, 87
3, 119719, Note_off_c, 1, 72, 64
3, 119752, Note_on_c, 1, 77, 120
3, 119861, Note_off_c, 1, 77, 64
3, 119869, Note_on_c, 1, 73, 84
3, 119950, Note_off_c, 1, 73, 64
3, 119988, Note_on_c, 1, 77, 120
3, 120095, Note_off_c, 1, 77, 64
3, 120101, Note_on_c, 1, 73, 84
3, 120181, Note_off_c, 1, 73, 64
3, 120229, Note_on_c, 1, 77, 111
3, 120345, Note_on_c, 1, 73, 88
3, 120349, Note_off_c, 1, 77, 64
3, 120419, Note_off_c, 1, 73, 64
3, 120475, Note_on_c, 1, 75, 96
3, 120588, Note_off_c, 1, 75, 64
3, 120594, Note_on_c, 1, 68, 88
3, 120675, Note_off_c, 1, 68, 64
3, 120716, Note_on_c, 1, 75, 116
3, 120817, Note_off_c, 1, 75, 64
3, 120829, Note_on_c, 1, 68, 83
3, 120908, Note_off_c, 1, 68, 64
3, 120956, Note_on_c, 1, 75, 113
3, 121051, Note_off_c, 1, 75, 64
3, 121068, Note_on_c, 1, 68, 87
3, 121142, Note_off_c, 1, 68, 64
3, 121192, Note_on_c, 1, 73, 113
3, 121301, Note_off_c, 1, 73, 64
3, 121317, Note_on_c, 1, 68, 84
3, 121391, Note_off_c, 1, 68, 64
3, 121433, Note_on_c, 1, 73, 106
3, 121523, Note_off_c, 1, 73, 64
3, 121545, Note_on_c, 1, 68, 84
3, 121631, Note_off_c, 1, 68, 64
3, 121670, Note_on_c, 1, 73, 110
3, 121763, Note_off_c, 1, 73, 64
3, 121769, Note_on_c, 1, 68, 96
3, 121849, Note_off_c, 1, 68, 64
3, 121899, Note_on_c, 1, 72, 90
3, 121926, Control_c, 1, 11, 96
3, 121952, Control_c, 1, 11, 93
3, 121979, Control_c, 1, 11, 90
3, 122005, Control_c, 1, 11, 87
3, 122032, Control_c, 1, 11, 84
3, 122058, Control_c, 1, 11, 82
3, 122060, Note_off_c, 1, 72, 64
3, 122115, Control_c, 1, 11, 100
3, 122159, Note_on_c, 1, 68, 72
3, 122231, Note_off_c, 1, 68, 64
3, 122397, Note_on_c, 1, 68, 72
3, 122470, Note_off_c, 1, 68, 64
3, 122636, Note_on_c, 1, 68, 79
3, 122734, Note_off_c, 1, 68, 64
3, 122875, Note_on_c, 1, 68, 79
3, 122958, Note_off_c, 1, 68, 64
3, 123113, Note_on_c, 1, 68, 83
3, 123185, Note_off_c, 1, 68, 64
3, 123355, Note_on_c, 1, 80, 125
3, 123457, Note_off_c, 1, 80, 64
3, 123481, Note_on_c, 1, 83, 109
3, 123564, Note_off_c, 1, 83, 64
3, 123598, Note_on_c, 1, 73, 125
3, 123691, Note_off_c, 1, 73, 64
3, 123716, Note_on_c, 1, 83, 96
3, 123794, Note_off_c, 1, 83, 64
3, 123824, Note_on_c, 1, 80, 125
3, 123921, Note_off_c, 1, 80, 64
3, 123953, Note_on_c, 1, 83, 96
3, 124019, Note_off_c, 1, 83, 64
3, 124071, Note_on_c, 1, 80, 125
3, 124186, Note_off_c, 1, 80, 64
3, 124192, Note_on_c, 1, 83, 84
3, 124289, Note_off_c, 1, 83, 64
3, 124315, Note_on_c, 1, 73, 125
3, 124416, Note_off_c, 1, 73, 64
3, 124432, Note_on_c, 1, 83, 96
3, 124505, Note_off_c, 1, 83, 64
3, 124542, Note_on_c, 1, 80, 125
3, 124629, Note_off_c, 1, 80, 64
3, 124671, Note_on_c, 1, 83, 105
3, 124737, Note_off_c, 1, 83, 64
3, 124782, Control_c, 1, 11, 88
3, 124804, Note_on_c, 1, 82, 121
3, 124808, Control_c, 1, 11, 90
3, 124835, Control_c, 1, 11, 92
3, 124861, Control_c, 1, 11, 95
3, 124888, Control_c, 1, 11, 97
3, 124914, Control_c, 1, 11, 100
3, 124921, Note_on_c, 1, 83, 105
3, 124935, Note_off_c, 1, 82, 64
3, 125028, Note_off_c, 1, 83, 64
3, 125035, Note_on_c, 1, 85, 103
3, 125133, Note_off_c, 1, 85, 64
3, 125151, Note_on_c, 1, 83, 96
3, 125238, Note_off_c, 1, 83, 64
3, 125270, Note_on_c, 1, 82, 115
3, 125363, Note_off_c, 1, 82, 64
3, 125388, Note_on_c, 1, 80, 96
3, 125463, Note_off_c, 1, 80, 64
3, 125516, Note_on_c, 1, 78, 121
3, 125631, Note_on_c, 1, 80, 85
3, 125633, Note_off_c, 1, 78, 64
3, 125737, Note_off_c, 1, 80, 64
3, 125749, Note_on_c, 1, 82, 89
3, 125849, Note_off_c, 1, 82, 64
3, 125867, Note_on_c, 1, 80, 95
3, 125952, Note_off_c, 1, 80, 64
3, 125988, Note_on_c, 1, 78, 106
3, 126078, Note_off_c, 1, 78, 64
3, 126107, Note_on_c, 1, 77, 92
3, 126187, Note_off_c, 1, 77, 64
3, 126219, Note_on_c, 1, 75, 121
3, 126353, Note_on_c, 1, 77, 94
3, 126361, Note_off_c, 1, 75, 64
3, 126470, Note_off_c, 1, 77, 64
3, 126472, Note_on_c, 1, 78, 91
3, 126578, Note_off_c, 1, 78, 64
3, 126588, Note_on_c, 1, 77, 96
3, 126663, Note_off_c, 1, 77, 64
3, 126706, Note_on_c, 1, 75, 107
3, 126799, Note_off_c, 1, 75, 64
3, 126827, Note_on_c, 1, 73, 86
3, 126907, Note_off_c, 1, 73, 64
3, 126957, Note_on_c, 1, 72, 116
3, 127077, Note_on_c, 1, 73, 79
3, 127092, Note_off_c, 1, 72, 64
3, 127185, Note_off_c, 1, 73, 64
3, 127194, Note_on_c, 1, 75, 79
3, 127278, Note_off_c, 1, 75, 64
3, 127311, Note_on_c, 1, 73, 95
3, 127393, Note_off_c, 1, 73, 64
3, 127431, Note_on_c, 1, 72, 106
3, 127518, Note_off_c, 1, 72, 64
3, 127549, Note_on_c, 1, 70, 101
3, 127617, Note_off_c, 1, 70, 64
3, 127664, Note_on_c, 1, 68, 121
3, 127797, Note_on_c, 1, 70, 101
3, 127800, Note_off_c, 1, 68, 64
3, 127914, Note_off_c, 1, 70, 64
3, 127917, Note_on_c, 1, 68, 99
3, 127993, Note_off_c, 1, 68, 64
3, 128030, Note_on_c, 1, 66, 111
3, 128104, Note_off_c, 1, 66, 64
3, 128141, Note_on_c, 1, 65, 119
3, 128225, Note_off_c, 1, 65, 64
3, 128257, Note_on_c, 1, 66, 101
3, 128334, Note_off_c, 1, 66, 64
3, 128386, Note_on_c, 1, 63, 119
3, 128517, Note_on_c, 1, 65, 95
3, 128519, Note_off_c, 1, 63, 64
3, 128606, Note_off_c, 1, 65, 64
3, 128634, Note_on_c, 1, 66, 96
3, 128726, Note_off_c, 1, 66, 64
3, 128752, Note_on_c, 1, 68, 109
3, 128834, Note_off_c, 1, 68, 64
3, 128872, Note_on_c, 1, 70, 113
3, 128953, Note_off_c, 1, 70, 64
3, 128979, Note_on_c, 1, 72, 99
3, 129059, Note_off_c, 1, 72, 64
3, 129098, Note_on_c, 1, 73, 116
3, 129235, Note_on_c, 1, 70, 103
3, 129236, Note_off_c, 1, 73, 64
3, 129324, Note_off_c, 1, 70, 64
3, 129354, Note_on_c, 1, 68, 116
3, 129445, Note_off_c, 1, 68, 64
3, 129473, Note_on_c, 1, 66, 99
3, 129560, Note_off_c, 1, 66, 64
3, 129590, Note_on_c, 1, 65, 120
3, 129680, Note_off_c, 1, 65, 64
3, 129695, Note_on_c, 1, 63, 107
3, 129775, Note_off_c, 1, 63, 64
3, 129776, Control_c, 1, 11, 82
3, 129807, Note_on_c, 1, 61, 96
3, 129824, Control_c, 1, 11, 83
3, 129873, Control_c, 1, 11, 89
3, 129921, Control_c, 1, 11, 96
3, 129969, Control_c, 1, 11, 102
3, 130018, Control_c, 1, 11, 109
3, 130066, Control_c, 1, 11, 116
3, 130115, Control_c, 1, 11, 119
3, 130163, Control_c, 1, 11, 113
3, 130211, Control_c, 1, 11, 107
3, 130260, Control_c, 1, 11, 102
3, 130308, Control_c, 1, 11, 85
3, 130354, Note_off_c, 1, 61, 64
3, 130357, Control_c, 1, 11, 69
3, 130405, Control_c, 1, 11, 56
3, 130424, Control_c, 1, 11, 100
3, 130560, Note_on_c, 1, 66, 119
3, 130560, Control_c, 1, 11, 82
3, 130584, Control_c, 1, 11, 88
3, 130608, Control_c, 1, 11, 94
3, 130631, Control_c, 1, 11, 100
3, 130677, Note_on_c, 1, 65, 85
3, 130694, Note_off_c, 1, 66, 64
3, 130788, Note_off_c, 1, 65, 64
3, 130794, Note_on_c, 1, 66, 84
3, 130883, Note_off_c, 1, 66, 64
3, 130911, Note_on_c, 1, 68, 110
3, 130996, Note_off_c, 1, 68, 64
3, 131032, Note_on_c, 1, 70, 113
3, 131115, Note_off_c, 1, 70, 64
3, 131147, Note_on_c, 1, 71, 96
3, 131221, Note_off_c, 1, 71, 64
3, 131273, Note_on_c, 1, 73, 110
3, 131387, Note_on_c, 1, 75, 84
3, 131390, Note_off_c, 1, 73, 64
3, 131494, Note_off_c, 1, 75, 64
3, 131501, Note_on_c, 1, 73, 88
3, 131587, Note_off_c, 1, 73, 64
3, 131615, Note_on_c, 1, 71, 96
3, 131693, Note_off_c, 1, 71, 64
3, 131748, Note_on_c, 1, 70, 100
3, 131832, Note_off_c, 1, 70, 64
3, 131853, Note_on_c, 1, 68, 90
3, 131925, Note_off_c, 1, 68, 64
3, 131990, Note_on_c, 1, 70, 85
3, 132163, Note_off_c, 1, 70, 64
3, 132245, Note_on_c, 1, 73, 90
3, 132338, Note_off_c, 1, 73, 64
3, 132485, Note_on_c, 1, 78, 88
3, 132578, Note_off_c, 1, 78, 64
3, 132718, Note_on_c, 1, 77, 107
3, 132834, Note_on_c, 1, 78, 89
3, 132835, Note_off_c, 1, 77, 64
3, 132942, Note_on_c, 1, 77, 83
3, 132955, Note_off_c, 1, 78, 64
3, 133046, Note_off_c, 1, 77, 64
3, 133063, Note_on_c, 1, 75, 96
3, 133141, Note_off_c, 1, 75, 64
3, 133195, Note_on_c, 1, 73, 105
3, 133273, Note_off_c, 1, 73, 64
3, 133294, Note_on_c, 1, 71, 90
3, 133366, Note_off_c, 1, 71, 64
3, 133425, Note_on_c, 1, 70, 79
3, 133571, Note_off_c, 1, 70, 64
3, 133681, Note_on_c, 1, 66, 75
3, 133774, Note_off_c, 1, 66, 64
3, 133915, Note_on_c, 1, 73, 74
3, 134022, Note_off_c, 1, 73, 64
3, 134157, Note_on_c, 1, 73, 77
3, 134274, Note_off_c, 1, 73, 64
3, 134397, Note_on_c, 1, 73, 71
3, 134507, Note_off_c, 1, 73, 64
3, 134637, Note_on_c, 1, 73, 72
3, 134735, Note_off_c, 1, 73, 64
3, 134875, Note_on_c, 1, 73, 89
3, 134997, Note_off_c, 1, 73, 64
3, 135116, Note_on_c, 1, 73, 80
3, 135213, Note_off_c, 1, 73, 64
3, 135354, Note_on_c, 1, 73, 81
3, 135443, Note_off_c, 1, 73, 64
3, 135594, Note_on_c, 1, 73, 99
3, 135702, Note_off_c, 1, 73, 64
3, 135835, Note_on_c, 1, 73, 95
3, 135931, Note_off_c, 1, 73, 64
3, 136071, Note_on_c, 1, 73, 96
3, 136161, Note_off_c, 1, 73, 64
3, 136318, Note_on_c, 1, 82, 121
3, 136418, Note_off_c, 1, 82, 64
3, 136430, Note_on_c, 1, 83, 101
3, 136537, Note_off_c, 1, 83, 64
3, 136549, Note_on_c, 1, 82, 101
3, 136629, Note_off_c, 1, 82, 64
3, 136667, Note_on_c, 1, 80, 119
3, 136759, Note_off_c, 1, 80, 64
3, 136788, Note_on_c, 1, 78, 116
3, 136864, Note_off_c, 1, 78, 64
3, 136899, Note_on_c, 1, 77, 93
3, 136975, Note_off_c, 1, 77, 64
3, 137030, Note_on_c, 1, 75, 116
3, 137149, Note_on_c, 1, 73, 89
3, 137153, Note_off_c, 1, 75, 64
3, 137245, Note_off_c, 1, 73, 64
3, 137266, Note_on_c, 1, 75, 89
3, 137346, Note_off_c, 1, 75, 64
3, 137387, Note_on_c, 1, 77, 99
3, 137467, Note_off_c, 1, 77, 64
3, 137509, Note_on_c, 1, 78, 109
3, 137590, Note_off_c, 1, 78, 64
3, 137622, Note_on_c, 1, 75, 100
3, 137702, Note_off_c, 1, 75, 64
3, 137757, Note_on_c, 1, 80, 121
3, 137867, Note_off_c, 1, 80, 64
3, 137874, Note_on_c, 1, 82, 103
3, 137974, Note_off_c, 1, 82, 64
3, 137995, Note_on_c, 1, 80, 103
3, 138075, Note_off_c, 1, 80, 64
3, 138109, Note_on_c, 1, 78, 106
3, 138194, Note_off_c, 1, 78, 64
3, 138228, Note_on_c, 1, 77, 120
3, 138307, Note_off_c, 1, 77, 64
3, 138340, Note_on_c, 1, 75, 91
3, 138420, Note_off_c, 1, 75, 64
3, 138474, Note_on_c, 1, 73, 113
3, 138591, Note_off_c, 1, 73, 64
3, 138592, Note_on_c, 1, 72, 89
3, 138683, Note_off_c, 1, 72, 64
3, 138712, Note_on_c, 1, 73, 89
3, 138792, Note_off_c, 1, 73, 64
3, 138829, Note_on_c, 1, 75, 101
3, 138914, Note_off_c, 1, 75, 64
3, 138952, Note_on_c, 1, 77, 120
3, 139034, Note_off_c, 1, 77, 64
3, 139063, Note_on_c, 1, 73, 98
3, 139143, Note_off_c, 1, 73, 64
3, 139195, Note_on_c, 1, 78, 121
3, 139304, Note_off_c, 1, 78, 64
3, 139313, Note_on_c, 1, 80, 87
3, 139412, Note_off_c, 1, 80, 64
3, 139430, Note_on_c, 1, 78, 87
3, 139504, Note_off_c, 1, 78, 64
3, 139551, Note_on_c, 1, 77, 103
3, 139633, Note_off_c, 1, 77, 64
3, 139670, Note_on_c, 1, 75, 111
3, 139755, Note_off_c, 1, 75, 64
3, 139777, Note_on_c, 1, 73, 87
3, 139857, Note_off_c, 1, 73, 64
3, 139909, Note_on_c, 1, 72, 121
3, 140026, Note_off_c, 1, 72, 64
3, 140031, Note_on_c, 1, 70, 87
3, 140142, Note_off_c, 1, 70, 64
3, 140147, Note_on_c, 1, 72, 85
3, 140240, Note_off_c, 1, 72, 64
3, 140265, Note_on_c, 1, 73, 105
3, 140353, Note_off_c, 1, 73, 64
3, 140385, Note_on_c, 1, 75, 115
3, 140469, Note_off_c, 1, 75, 64
3, 140498, Note_on_c, 1, 72, 107
3, 140578, Note_off_c, 1, 72, 64
3, 140633, Note_on_c, 1, 73, 75
3, 140790, Note_off_c, 1, 73, 64
3, 140880, Note_on_c, 1, 77, 69
3, 140955, Note_off_c, 1, 77, 64
3, 141121, Note_on_c, 1, 80, 69
3, 141198, Note_off_c, 1, 80, 64
3, 141357, Note_on_c, 1, 72, 92
3, 141525, Note_off_c, 1, 72, 64
3, 141601, Note_on_c, 1, 75, 72
3, 141670, Note_off_c, 1, 75, 64
3, 141841, Note_on_c, 1, 80, 72
3, 141909, Note_off_c, 1, 80, 64
3, 142079, Note_on_c, 1, 73, 90
3, 142227, Note_off_c, 1, 73, 64
3, 142323, Note_on_c, 1, 77, 75
3, 142386, Note_off_c, 1, 77, 64
3, 142561, Note_on_c, 1, 80, 75
3, 142635, Note_off_c, 1, 80, 64
3, 142797, Note_on_c, 1, 68, 90
3, 142944, Note_off_c, 1, 68, 64
3, 143040, Note_on_c, 1, 75, 71
3, 143129, Note_off_c, 1, 75, 64
3, 143280, Note_on_c, 1, 80, 69
3, 143359, Note_off_c, 1, 80, 64
3, 143515, Note_on_c, 1, 73, 125
3, 143629, Note_off_c, 1, 73, 64
3, 143634, Note_on_c, 1, 72, 99
3, 143732, Note_off_c, 1, 72, 64
3, 143749, Note_on_c, 1, 73, 99
3, 143835, Note_off_c, 1, 73, 64
3, 143874, Note_on_c, 1, 75, 120
3, 143949, Note_off_c, 1, 75, 64
3, 143994, Note_on_c, 1, 77, 125
3, 144063, Note_off_c, 1, 77, 64
3, 144105, Note_on_c, 1, 78, 104
3, 144186, Note_off_c, 1, 78, 64
3, 144240, Note_on_c, 1, 80, 125
3, 144347, Note_off_c, 1, 80, 64
3, 144358, Note_on_c, 1, 82, 99
3, 144454, Note_off_c, 1, 82, 64
3, 144468, Note_on_c, 1, 80, 99
3, 144558, Note_off_c, 1, 80, 64
3, 144595, Note_on_c, 1, 78, 111
3, 144683, Note_off_c, 1, 78, 64
3, 144713, Note_on_c, 1, 77, 125
3, 144795, Note_off_c, 1, 77, 64
3, 144811, Note_on_c, 1, 75, 88
3, 144885, Note_off_c, 1, 75, 64
3, 144945, Note_on_c, 1, 73, 89
3, 145091, Note_off_c, 1, 73, 64
3, 145199, Note_on_c, 1, 77, 75
3, 145277, Note_off_c, 1, 77, 64
3, 145439, Note_on_c, 1, 68, 75
3, 145517, Note_off_c, 1, 68, 64
3, 145678, Note_on_c, 1, 75, 96
3, 145810, Note_off_c, 1, 75, 64
3, 145916, Note_on_c, 1, 78, 79
3, 145994, Note_off_c, 1, 78, 64
3, 146159, Note_on_c, 1, 68, 79
3, 146237, Note_off_c, 1, 68, 64
3, 146397, Note_on_c, 1, 77, 96
3, 146507, Note_off_c, 1, 77, 64
3, 146636, Note_on_c, 1, 77, 63
3, 146728, Note_off_c, 1, 77, 64
3, 146873, Note_on_c, 1, 77, 63
3, 146974, Note_off_c, 1, 77, 64
3, 147113, Note_on_c, 1, 77, 80
3, 147222, Note_off_c, 1, 77, 64
3, 147356, Note_on_c, 1, 77, 61
3, 147445, Note_off_c, 1, 77, 64
3, 147590, Note_on_c, 1, 77, 61
3, 147683, Note_off_c, 1, 77, 64
3, 147834, Note_on_c, 1, 75, 84
3, 147965, Note_off_c, 1, 75, 64
3, 148076, Note_on_c, 1, 75, 63
3, 148177, Note_off_c, 1, 75, 64
3, 148313, Note_on_c, 1, 75, 63
3, 148403, Note_off_c, 1, 75, 64
3, 148554, Note_on_c, 1, 75, 80
3, 148663, Note_off_c, 1, 75, 64
3, 148795, Note_on_c, 1, 75, 61
3, 148882, Note_off_c, 1, 75, 64
3, 149034, Note_on_c, 1, 75, 61
3, 149113, Note_off_c, 1, 75, 64
3, 149277, Note_on_c, 1, 73, 84
3, 149385, Note_off_c, 1, 73, 64
3, 149517, Note_on_c, 1, 73, 65
3, 149605, Note_off_c, 1, 73, 64
3, 149759, Note_on_c, 1, 73, 65
3, 149843, Note_off_c, 1, 73, 64
3, 150006, Note_on_c, 1, 73, 78
3, 150102, Note_off_c, 1, 73, 64
3, 150243, Note_on_c, 1, 73, 68
3, 150317, Note_off_c, 1, 73, 64
3, 150473, Note_on_c, 1, 73, 74
3, 150544, Note_off_c, 1, 73, 64
3, 150727, Note_on_c, 1, 72, 87
3, 150835, Note_off_c, 1, 72, 64
3, 150843, Note_on_c, 1, 75, 63
3, 150927, Note_off_c, 1, 75, 64
3, 150961, Note_on_c, 1, 68, 83
3, 151053, Note_off_c, 1, 68, 64
3, 151077, Note_on_c, 1, 75, 65
3, 151171, Note_off_c, 1, 75, 64
3, 151197, Note_on_c, 1, 72, 97
3, 151286, Note_off_c, 1, 72, 64
3, 151306, Note_on_c, 1, 75, 77
3, 151386, Note_off_c, 1, 75, 64
3, 151429, Note_on_c, 1, 73, 107
3, 151534, Note_off_c, 1, 73, 64
3, 151555, Note_on_c, 1, 77, 79
3, 151635, Note_off_c, 1, 77, 64
3, 151674, Note_on_c, 1, 68, 104
3, 151772, Note_off_c, 1, 68, 64
3, 151790, Note_on_c, 1, 77, 77
3, 151873, Note_off_c, 1, 77, 64
3, 151910, Note_on_c, 1, 73, 112
3, 152015, Note_off_c, 1, 73, 64
3, 152021, Note_on_c, 1, 77, 91
3, 152101, Note_off_c, 1, 77, 64
3, 152147, Note_on_c, 1, 75, 118
3, 152259, Note_off_c, 1, 75, 64
3, 152271, Note_on_c, 1, 78, 90
3, 152351, Note_off_c, 1, 78, 64
3, 152396, Note_on_c, 1, 68, 105
3, 152486, Note_off_c, 1, 68, 64
3, 152514, Note_on_c, 1, 78, 101
3, 152601, Note_off_c, 1, 78, 64
3, 152636, Note_on_c, 1, 75, 118
3, 152726, Note_off_c, 1, 75, 64
3, 152745, Note_on_c, 1, 78, 95
3, 152825, Note_off_c, 1, 78, 64
3, 152870, Note_on_c, 1, 77, 113
3, 152994, Note_off_c, 1, 77, 64
3, 152998, Note_on_c, 1, 80, 103
3, 153078, Note_off_c, 1, 80, 64
3, 153119, Note_on_c, 1, 68, 107
3, 153206, Note_off_c, 1, 68, 64
3, 153236, Note_on_c, 1, 80, 88
3, 153320, Note_off_c, 1, 80, 64
3, 153355, Note_on_c, 1, 77, 113
3, 153442, Note_off_c, 1, 77, 64
3, 153473, Note_on_c, 1, 80, 103
3, 153553, Note_off_c, 1, 80, 64
3, 153597, Note_on_c, 1, 78, 110
3, 153729, Note_on_c, 1, 72, 87
3, 153732, Note_off_c, 1, 78, 64
3, 153812, Note_off_c, 1, 72, 64
3, 153843, Note_on_c, 1, 78, 121
3, 153947, Note_off_c, 1, 78, 64
3, 153953, Note_on_c, 1, 72, 89
3, 154046, Note_off_c, 1, 72, 64
3, 154076, Note_on_c, 1, 78, 121
3, 154180, Note_off_c, 1, 78, 64
3, 154187, Note_on_c, 1, 72, 87
3, 154279, Note_off_c, 1, 72, 64
3, 154312, Note_on_c, 1, 77, 120
3, 154421, Note_off_c, 1, 77, 64
3, 154429, Note_on_c, 1, 73, 84
3, 154510, Note_off_c, 1, 73, 64
3, 154548, Note_on_c, 1, 77, 120
3, 154655, Note_off_c, 1, 77, 64
3, 154661, Note_on_c, 1, 73, 84
3, 154741, Note_off_c, 1, 73, 64
3, 154789, Note_on_c, 1, 77, 111
3, 154905, Note_on_c, 1, 73, 88
3, 154909, Note_off_c, 1, 77, 64
3, 154979, Note_off_c, 1, 73, 64
3, 155035, Note_on_c, 1, 75, 96
3, 155148, Note_off_c, 1, 75, 64
3, 155154, Note_on_c, 1, 68, 88
3, 155235, Note_off_c, 1, 68, 64
3, 155276, Note_on_c, 1, 75, 116
3, 155377, Note_off_c, 1, 75, 64
3, 155389, Note_on_c, 1, 68, 83
3, 155468, Note_off_c, 1, 68, 64
3, 155516, Note_on_c, 1, 75, 113
3, 155611, Note_off_c, 1, 75, 64
3, 155628, Note_on_c, 1, 68, 87
3, 155702, Note_off_c, 1, 68, 64
3, 155752, Note_on_c, 1, 73, 113
3, 155861, Note_off_c, 1, 73, 64
3, 155877, Note_on_c, 1, 68, 84
3, 155951, Note_off_c, 1, 68, 64
3, 155993, Note_on_c, 1, 73, 106
3, 156083, Note_off_c, 1, 73, 64
3, 156105, Note_on_c, 1, 68, 84
3, 156191, Note_off_c, 1, 68, 64
3, 156230, Note_on_c, 1, 73, 110
3, 156323, Note_off_c, 1, 73, 64
3, 156329, Note_on_c, 1, 68, 96
3, 156409, Note_off_c, 1, 68, 64
3, 156459, Note_on_c, 1, 72, 90
3, 156486, Control_c, 1, 11, 96
3, 156512, Control_c, 1, 11, 93
3, 156539, Control_c, 1, 11, 90
3, 156565, Control_c, 1, 11, 87
3, 156592, Control_c, 1, 11, 84
3, 156618, Control_c, 1, 11, 82
3, 156620, Note_off_c, 1, 72, 64
3, 156675, Control_c, 1, 11, 100
3, 156719, Note_on_c, 1, 68, 72
3, 156791, Note_off_c, 1, 68, 64
3, 156957, Note_on_c, 1, 68, 72
3, 157030, Note_off_c, 1, 68, 64
3, 157196, Note_on_c, 1, 68, 79
3, 157294, Note_off_c, 1, 68, 64
3, 157435, Note_on_c, 1, 68, 79
3, 157518, Note_off_c, 1, 68, 64
3, 157673, Note_on_c, 1, 68, 83
3, 157745, Note_off_c, 1, 68, 64
3, 157915, Note_on_c, 1, 80, 125
3, 158017, Note_off_c, 1, 80, 64
3, 158041, Note_on_c, 1, 83, 109
3, 158124, Note_off_c, 1, 83, 64
3, 158158, Note_on_c, 1, 73, 125
3, 158251, Note_off_c, 1, 73, 64
3, 158276, Note_on_c, 1, 83, 96
3, 158354, Note_off_c, 1, 83, 64
3, 158384, Note_on_c, 1, 80, 125
3, 158481, Note_off_c, 1, 80, 64
3, 158513, Note_on_c, 1, 83, 96
3, 158579, Note_off_c, 1, 83, 64
3, 158631, Note_on_c, 1, 80, 125
3, 158746, Note_off_c, 1, 80, 64
3, 158752, Note_on_c, 1, 83, 84
3, 158849, Note_off_c, 1, 83, 64
3, 158875, Note_on_c, 1, 73, 125
3, 158976, Note_off_c, 1, 73, 64
3, 158992, Note_on_c, 1, 83, 96
3, 159065, Note_off_c, 1, 83, 64
3, 159102, Note_on_c, 1, 80, 125
3, 159189, Note_off_c, 1, 80, 64
3, 159231, Note_on_c, 1, 83, 105
3, 159297, Note_off_c, 1, 83, 64
3, 159342, Control_c, 1, 11, 88
3, 159364, Note_on_c, 1, 82, 121
3, 159368, Control_c, 1, 11, 90
3, 159395, Control_c, 1, 11, 92
3, 159421, Control_c, 1, 11, 95
3, 159448, Control_c, 1, 11, 97
3, 159474, Control_c, 1, 11, 100
3, 159481, Note_on_c, 1, 83, 105
3, 159495, Note_off_c, 1, 82, 64
3, 159588, Note_off_c, 1, 83, 64
3, 159595, Note_on_c, 1, 85, 103
3, 159693, Note_off_c, 1, 85, 64
3, 159711, Note_on_c, 1, 83, 96
3, 159798, Note_off_c, 1, 83, 64
3, 159830, Note_on_c, 1, 82, 115
3, 159923, Note_off_c, 1, 82, 64
3, 159948, Note_on_c, 1, 80, 96
3, 160023, Note_off_c, 1, 80, 64
3, 160076, Note_on_c, 1, 78, 121
3, 160191, Note_on_c, 1, 80, 85
3, 160193, Note_off_c, 1, 78, 64
3, 160297, Note_off_c, 1, 80, 64
3, 160309, Note_on_c, 1, 82, 89
3, 160409, Note_off_c, 1, 82, 64
3, 160427, Note_on_c, 1, 80, 95
3, 160512, Note_off_c, 1, 80, 64
3, 160548, Note_on_c, 1, 78, 106
3, 160638, Note_off_c, 1, 78, 64
3, 160667, Note_on_c, 1, 77, 92
3, 160747, Note_off_c, 1, 77, 64
3, 160779, Note_on_c, 1, 75, 121
3, 160913, Note_on_c, 1, 77, 94
3, 160921, Note_off_c, 1, 75, 64
3, 161030, Note_off_c, 1, 77, 64
3, 161032, Note_on_c, 1, 78, 91
3, 161138, Note_off_c, 1, 78, 64
3, 161148, Note_on_c, 1, 77, 96
3, 161223, Note_off_c, 1, 77, 64
3, 161266, Note_on_c, 1, 75, 107
3, 161359, Note_off_c, 1, 75, 64
3, 161387, Note_on_c, 1, 73, 86
3, 161467, Note_off_c, 1, 73, 64
3, 161517, Note_on_c, 1, 72, 116
3, 161637, Note_on_c, 1, 73, 79
3, 161652, Note_off_c, 1, 72, 64
3, 161745, Note_off_c, 1, 73, 64
3, 161754, Note_on_c, 1, 75, 79
3, 161838, Note_off_c, 1, 75, 64
3, 161871, Note_on_c, 1, 73, 95
3, 161953, Note_off_c, 1, 73, 64
3, 161991, Note_on_c, 1, 72, 106
3, 162078, Note_off_c, 1, 72, 64
3, 162109, Note_on_c, 1, 70, 101
3, 162177, Note_off_c, 1, 70, 64
3, 162224, Note_on_c, 1, 68, 121
3, 162357, Note_on_c, 1, 70, 101
3, 162360, Note_off_c, 1, 68, 64
3, 162474, Note_off_c, 1, 70, 64
3, 162477, Note_on_c, 1, 68, 99
3, 162553, Note_off_c, 1, 68, 64
3, 162590, Note_on_c, 1, 66, 111
3, 162664, Note_off_c, 1, 66, 64
3, 162701, Note_on_c, 1, 65, 119
3, 162785, Note_off_c, 1, 65, 64
3, 162817, Note_on_c, 1, 66, 101
3, 162894, Note_off_c, 1, 66, 64
3, 162946, Note_on_c, 1, 63, 119
3, 163077, Note_on_c, 1, 65, 95
3, 163079, Note_off_c, 1, 63, 64
3, 163166, Note_off_c, 1, 65, 64
3, 163194, Note_on_c, 1, 66, 96
3, 163286, Note_off_c, 1, 66, 64
3, 163312, Note_on_c, 1, 68, 109
3, 163402, Note_off_c, 1, 68, 64
3, 163432, Note_on_c, 1, 70, 113
3, 163521, Note_off_c, 1, 70, 64
3, 163539, Note_on_c, 1, 72, 99
3, 163619, Note_off_c, 1, 72, 64
3, 163640, Note_on_c, 1, 73, 116
3, 163778, Note_off_c, 1, 73, 64
3, 163795, Note_on_c, 1, 70, 103
3, 163884, Note_off_c, 1, 70, 64
3, 163914, Note_on_c, 1, 68, 116
3, 164005, Note_off_c, 1, 68, 64
3, 164033, Note_on_c, 1, 66, 99
3, 164120, Note_off_c, 1, 66, 64
3, 164150, Note_on_c, 1, 65, 120
3, 164240, Note_off_c, 1, 65, 64
3, 164255, Note_on_c, 1, 63, 107
3, 164335, Note_off_c, 1, 63, 64
3, 164336, Control_c, 1, 11, 82
3, 164369, Note_on_c, 1, 61, 96
3, 164384, Control_c, 1, 11, 83
3, 164433, Control_c, 1, 11, 89
3, 164481, Control_c, 1, 11, 96
3, 164529, Control_c, 1, 11, 102
3, 164578, Control_c, 1, 11, 109
3, 164626, Control_c, 1, 11, 116
3, 164675, Control_c, 1, 11, 119
3, 164723, Control_c, 1, 11, 113
3, 164771, Control_c, 1, 11, 107
3, 164820, Control_c, 1, 11, 102
3, 164868, Control_c, 1, 11, 85
3, 164916, Note_off_c, 1, 61, 64
3, 164917, Control_c, 1, 11, 69
3, 164965, Control_c, 1, 11, 56
3, 164984, Control_c, 1, 11, 100
3, 165120, Note_on_c, 1, 61, 84
3, 165245, Note_off_c, 1, 61, 64
3, 165368, Note_on_c, 1, 65, 65
3, 165449, Note_off_c, 1, 65, 64
3, 165604, Note_on_c, 1, 68, 84
3, 165684, Note_off_c, 1, 68, 64
3, 165845, Note_on_c, 1, 60, 71
3, 165970, Note_off_c, 1, 60, 64
3, 166087, Note_on_c, 1, 63, 84
3, 166141, Note_off_c, 1, 63, 64
3, 166319, Note_on_c, 1, 68, 84
3, 166395, Note_off_c, 1, 68, 64
3, 166562, Note_on_c, 1, 61, 84
3, 166701, Note_off_c, 1, 61, 64
3, 166798, Note_on_c, 1, 65, 64
3, 166878, Note_off_c, 1, 65, 64
3, 167039, Note_on_c, 1, 68, 84
3, 167114, Note_off_c, 1, 68, 64
3, 167285, Note_on_c, 1, 56, 70
3, 167446, Note_off_c, 1, 56, 64
3, 167521, Note_on_c, 1, 63, 84
3, 167612, Note_off_c, 1, 63, 64
3, 167759, Note_on_c, 1, 68, 84
3, 167843, Note_off_c, 1, 68, 64
3, 168002, Note_on_c, 1, 70, 72
3, 168132, Note_off_c, 1, 70, 64
3, 168238, Note_on_c, 1, 70, 69
3, 168350, Note_off_c, 1, 70, 64
3, 168477, Note_on_c, 1, 70, 72
3, 168575, Note_off_c, 1, 70, 64
3, 168714, Note_on_c, 1, 70, 80
3, 168834, Note_off_c, 1, 70, 64
3, 168959, Note_on_c, 1, 70, 75
3, 169054, Note_off_c, 1, 70, 64
3, 169199, Note_on_c, 1, 70, 76
3, 169295, Note_off_c, 1, 70, 64
3, 169439, Note_on_c, 1, 70, 87
3, 169541, Note_off_c, 1, 70, 64
3, 169677, Note_on_c, 1, 70, 81
3, 169773, Note_off_c, 1, 70, 64
3, 169917, Note_on_c, 1, 70, 83
3, 170006, Note_off_c, 1, 70, 64
3, 170157, Note_on_c, 1, 70, 93
3, 170271, Note_off_c, 1, 70, 64
3, 170399, Note_on_c, 1, 70, 92
3, 170493, Note_off_c, 1, 70, 64
3, 170637, Note_on_c, 1, 70, 97
3, 170736, Note_off_c, 1, 70, 64
3, 170857, Control_c, 1, 11, 80
3, 170880, Note_on_c, 1, 75, 121
3, 170883, Control_c, 1, 11, 83
3, 170910, Control_c, 1, 11, 86
3, 170937, Control_c, 1, 11, 89
3, 170964, Control_c, 1, 11, 93
3, 170991, Control_c, 1, 11, 96
3, 170994, Note_on_c, 1, 77, 95
3, 171012, Note_off_c, 1, 75, 64
3, 171017, Control_c, 1, 11, 100
3, 171103, Note_on_c, 1, 78, 113
3, 171111, Note_off_c, 1, 77, 64
3, 171206, Note_off_c, 1, 78, 64
3, 171229, Note_on_c, 1, 75, 109
3, 171324, Note_off_c, 1, 75, 64
3, 171361, Note_on_c, 1, 74, 84
3, 171447, Note_off_c, 1, 74, 64
3, 171469, Note_on_c, 1, 75, 84
3, 171549, Note_off_c, 1, 75, 64
3, 171597, Note_on_c, 1, 71, 110
3, 171728, Note_off_c, 1, 71, 64
3, 171730, Note_on_c, 1, 75, 96
3, 171821, Note_off_c, 1, 75, 64
3, 171842, Note_on_c, 1, 78, 92
3, 171930, Note_off_c, 1, 78, 64
3, 171960, Note_on_c, 1, 75, 92
3, 172046, Note_off_c, 1, 75, 64
3, 172080, Note_on_c, 1, 74, 94
3, 172168, Note_off_c, 1, 74, 64
3, 172184, Note_on_c, 1, 75, 84
3, 172264, Note_off_c, 1, 75, 64
3, 172314, Note_on_c, 1, 70, 113
3, 172425, Note_on_c, 1, 75, 101
3, 172443, Note_off_c, 1, 70, 64
3, 172483, Note_on_c, 1, 77, 92
3, 172496, Note_off_c, 1, 75, 64
3, 172528, Note_on_c, 1, 78, 92
3, 172541, Note_off_c, 1, 77, 64
3, 172665, Note_off_c, 1, 78, 64
3, 172679, Note_on_c, 1, 75, 84
3, 172762, Note_off_c, 1, 75, 64
3, 172789, Note_on_c, 1, 74, 90
3, 172886, Note_off_c, 1, 74, 64
3, 172905, Note_on_c, 1, 75, 84
3, 172985, Note_off_c, 1, 75, 64
3, 173045, Note_on_c, 1, 68, 95
3, 173155, Note_off_c, 1, 68, 64
3, 173167, Note_on_c, 1, 75, 84
3, 173258, Note_off_c, 1, 75, 64
3, 173277, Note_on_c, 1, 78, 91
3, 173372, Note_off_c, 1, 78, 64
3, 173392, Note_on_c, 1, 75, 88
3, 173489, Note_off_c, 1, 75, 64
3, 173506, Note_on_c, 1, 74, 88
3, 173601, Note_off_c, 1, 74, 64
3, 173620, Note_on_c, 1, 75, 84
3, 173700, Note_off_c, 1, 75, 64
3, 173750, Note_on_c, 1, 70, 109
3, 173869, Note_off_c, 1, 70, 64
3, 173873, Note_on_c, 1, 75, 101
3, 173928, Note_on_c, 1, 77, 94
3, 173947, Note_off_c, 1, 75, 64
3, 173968, Note_on_c, 1, 78, 94
3, 173984, Note_off_c, 1, 77, 64
3, 174094, Note_off_c, 1, 78, 64
3, 174114, Note_on_c, 1, 75, 84
3, 174207, Note_off_c, 1, 75, 64
3, 174227, Note_on_c, 1, 74, 72
3, 174324, Note_off_c, 1, 74, 64
3, 174344, Note_on_c, 1, 75, 84
3, 174424, Note_off_c, 1, 75, 64
3, 174483, Note_on_c, 1, 71, 107
3, 174610, Note_on_c, 1, 75, 84
3, 174613, Note_off_c, 1, 71, 64
3, 174709, Note_off_c, 1, 75, 64
3, 174725, Note_on_c, 1, 78, 94
3, 174818, Note_off_c, 1, 78, 64
3, 174840, Note_on_c, 1, 75, 85
3, 174928, Note_off_c, 1, 75, 64
3, 174959, Note_on_c, 1, 74, 92
3, 175048, Note_off_c, 1, 74, 64
3, 175065, Note_on_c, 1, 75, 84
3, 175145, Note_off_c, 1, 75, 64
3, 175209, Note_on_c, 1, 70, 103
3, 175326, Note_on_c, 1, 75, 103
3, 175331, Note_off_c, 1, 70, 64
3, 175386, Note_on_c, 1, 77, 98
3, 175398, Note_off_c, 1, 75, 64
3, 175429, Note_on_c, 1, 78, 98
3, 175444, Note_off_c, 1, 77, 64
3, 175536, Note_off_c, 1, 78, 64
3, 175560, Note_on_c, 1, 75, 85
3, 175640, Note_off_c, 1, 75, 64
3, 175686, Note_on_c, 1, 70, 96
3, 175783, Note_off_c, 1, 70, 64
3, 175795, Note_on_c, 1, 74, 96
3, 175894, Note_off_c, 1, 74, 64
3, 175919, Note_on_c, 1, 75, 84
3, 175999, Note_off_c, 1, 75, 64
3, 176053, Note_on_c, 1, 71, 101
3, 176144, Note_off_c, 1, 71, 64
3, 176169, Note_on_c, 1, 70, 96
3, 176258, Note_off_c, 1, 70, 64
3, 176277, Note_on_c, 1, 68, 81
3, 176372, Note_off_c, 1, 68, 64
3, 176397, Note_on_c, 1, 66, 99
3, 176480, Note_off_c, 1, 66, 64
3, 176510, Note_on_c, 1, 65, 79
3, 176592, Note_off_c, 1, 65, 64
3, 176640, Note_on_c, 1, 63, 94
3, 176743, Note_on_c, 1, 62, 84
3, 176757, Note_off_c, 1, 63, 64
3, 176831, Note_off_c, 1, 62, 64
3, 176863, Note_on_c, 1, 63, 85
3, 176953, Note_off_c, 1, 63, 64
3, 176983, Note_on_c, 1, 65, 94
3, 177055, Note_off_c, 1, 65, 64
3, 177104, Note_on_c, 1, 66, 96
3, 177194, Note_off_c, 1, 66, 64
3, 177218, Note_on_c, 1, 68, 105
3, 177303, Note_off_c, 1, 68, 64
3, 177347, Note_on_c, 1, 70, 116
3, 177454, Note_off_c, 1, 70, 64
3, 177465, Note_on_c, 1, 71, 88
3, 177561, Note_off_c, 1, 71, 64
3, 177581, Note_on_c, 1, 70, 102
3, 177663, Note_off_c, 1, 70, 64
3, 177694, Note_on_c, 1, 68, 102
3, 177771, Note_off_c, 1, 68, 64
3, 177806, Note_on_c, 1, 66, 102
3, 177894, Note_off_c, 1, 66, 64
3, 177925, Note_on_c, 1, 65, 96
3, 178005, Note_off_c, 1, 65, 64
3, 178055, Note_on_c, 1, 66, 96
3, 178220, Note_off_c, 1, 66, 64
3, 178303, Note_on_c, 1, 70, 110
3, 178391, Note_off_c, 1, 70, 64
3, 178545, Note_on_c, 1, 75, 105
3, 178633, Note_off_c, 1, 75, 64
3, 178801, Note_on_c, 1, 74, 106
3, 178902, Note_off_c, 1, 74, 64
3, 178915, Note_on_c, 1, 75, 91
3, 179001, Note_off_c, 1, 75, 64
3, 179030, Note_on_c, 1, 74, 103
3, 179112, Note_off_c, 1, 74, 64
3, 179145, Note_on_c, 1, 72, 92
3, 179236, Note_off_c, 1, 72, 64
3, 179266, Note_on_c, 1, 70, 94
3, 179352, Note_off_c, 1, 70, 64
3, 179377, Note_on_c, 1, 68, 89
3, 179458, Note_off_c, 1, 68, 64
3, 179503, Note_on_c, 1, 66, 91
3, 179652, Note_off_c, 1, 66, 64
3, 179751, Note_on_c, 1, 63, 77
3, 179845, Note_off_c, 1, 63, 64
3, 179999, Note_on_c, 1, 82, 95
3, 180093, Note_off_c, 1, 82, 64
3, 180231, Note_on_c, 1, 82, 97
3, 180332, Note_off_c, 1, 82, 64
3, 180476, Note_on_c, 1, 82, 100
3, 180575, Note_off_c, 1, 82, 64
3, 180713, Note_on_c, 1, 82, 103
3, 180814, Note_off_c, 1, 82, 64
3, 180946, Note_on_c, 1, 82, 105
3, 181060, Note_off_c, 1, 82, 64
3, 181188, Note_on_c, 1, 82, 107
3, 181297, Note_off_c, 1, 82, 64
3, 181426, Note_on_c, 1, 82, 110
3, 181531, Note_off_c, 1, 82, 64
3, 181666, Note_on_c, 1, 82, 112
3, 181769, Note_off_c, 1, 82, 64
3, 181902, Note_on_c, 1, 82, 115
3, 181998, Note_off_c, 1, 82, 64
3, 182153, Note_on_c, 1, 82, 117
3, 182259, Note_off_c, 1, 82, 64
3, 182401, Note_on_c, 1, 78, 121
3, 182513, Note_on_c, 1, 80, 107
3, 182519, Note_off_c, 1, 78, 64
3, 182622, Note_off_c, 1, 80, 64
3, 182628, Note_on_c, 1, 78, 99
3, 182713, Note_off_c, 1, 78, 64
3, 182739, Note_on_c, 1, 77, 111
3, 182826, Note_off_c, 1, 77, 64
3, 182859, Note_on_c, 1, 75, 96
3, 182945, Note_off_c, 1, 75, 64
3, 182974, Note_on_c, 1, 73, 105
3, 183054, Note_off_c, 1, 73, 64
3, 183103, Note_on_c, 1, 72, 111
3, 183220, Note_off_c, 1, 72, 64
3, 183231, Note_on_c, 1, 70, 91
3, 183320, Note_off_c, 1, 70, 64
3, 183345, Note_on_c, 1, 72, 111
3, 183421, Note_off_c, 1, 72, 64
3, 183458, Note_on_c, 1, 73, 94
3, 183539, Note_off_c, 1, 73, 64
3, 183579, Note_on_c, 1, 75, 94
3, 183652, Note_off_c, 1, 75, 64
3, 183693, Note_on_c, 1, 72, 92
3, 183766, Note_off_c, 1, 72, 64
3, 183825, Note_on_c, 1, 77, 111
3, 183940, Note_off_c, 1, 77, 64
3, 183947, Note_on_c, 1, 78, 100
3, 184049, Note_off_c, 1, 78, 64
3, 184060, Note_on_c, 1, 77, 111
3, 184147, Note_off_c, 1, 77, 64
3, 184167, Note_on_c, 1, 75, 92
3, 184256, Note_off_c, 1, 75, 64
3, 184288, Note_on_c, 1, 73, 96
3, 184376, Note_off_c, 1, 73, 64
3, 184404, Note_on_c, 1, 72, 103
3, 184484, Note_off_c, 1, 72, 64
3, 184536, Note_on_c, 1, 70, 106
3, 184660, Note_off_c, 1, 70, 64
3, 184662, Note_on_c, 1, 69, 76
3, 184754, Note_off_c, 1, 69, 64
3, 184786, Note_on_c, 1, 70, 100
3, 184878, Note_off_c, 1, 70, 64
3, 184903, Note_on_c, 1, 72, 106
3, 184979, Note_off_c, 1, 72, 64
3, 185021, Note_on_c, 1, 73, 85
3, 185094, Note_off_c, 1, 73, 64
3, 185133, Note_on_c, 1, 70, 95
3, 185206, Note_off_c, 1, 70, 64
3, 185279, Note_on_c, 1, 75, 113
3, 185391, Note_on_c, 1, 77, 94
3, 185396, Note_off_c, 1, 75, 64
3, 185502, Note_off_c, 1, 77, 64
3, 185509, Note_on_c, 1, 75, 94
3, 185585, Note_off_c, 1, 75, 64
3, 185622, Note_on_c, 1, 73, 105
3, 185708, Note_off_c, 1, 73, 64
3, 185747, Note_on_c, 1, 72, 113
3, 185829, Note_off_c, 1, 72, 64
3, 185847, Note_on_c, 1, 70, 105
3, 185933, Note_off_c, 1, 70, 64
3, 185985, Note_on_c, 1, 69, 101
3, 186105, Note_on_c, 1, 67, 86
3, 186122, Note_off_c, 1, 69, 64
3, 186192, Note_off_c, 1, 67, 64
3, 186222, Note_on_c, 1, 69, 88
3, 186295, Note_off_c, 1, 69, 64
3, 186331, Note_on_c, 1, 70, 97
3, 186418, Note_off_c, 1, 70, 64
3, 186461, Note_on_c, 1, 72, 101
3, 186534, Note_off_c, 1, 72, 64
3, 186582, Note_on_c, 1, 69, 88
3, 186652, Note_off_c, 1, 69, 64
3, 186714, Note_on_c, 1, 70, 72
3, 186870, Note_off_c, 1, 70, 64
3, 186966, Note_on_c, 1, 73, 84
3, 187038, Note_off_c, 1, 73, 64
3, 187190, Note_on_c, 1, 77, 72
3, 187258, Note_off_c, 1, 77, 64
3, 187445, Note_on_c, 1, 69, 69
3, 187594, Note_off_c, 1, 69, 64
3, 187684, Note_on_c, 1, 72, 78
3, 187756, Note_off_c, 1, 72, 64
3, 187913, Note_on_c, 1, 77, 78
3, 187983, Note_off_c, 1, 77, 64
3, 188160, Note_on_c, 1, 70, 84
3, 188334, Note_off_c, 1, 70, 64
3, 188410, Note_on_c, 1, 73, 84
3, 188488, Note_off_c, 1, 73, 64
3, 188631, Note_on_c, 1, 77, 80
3, 188720, Note_off_c, 1, 77, 64
3, 188874, Note_on_c, 1, 65, 92
3, 189022, Note_off_c, 1, 65, 64
3, 189114, Note_on_c, 1, 72, 83
3, 189195, Note_off_c, 1, 72, 64
3, 189355, Note_on_c, 1, 77, 80
3, 189445, Note_off_c, 1, 77, 64
3, 189600, Note_on_c, 1, 70, 125
3, 189718, Note_off_c, 1, 70, 64
3, 189718, Note_on_c, 1, 69, 107
3, 189823, Note_off_c, 1, 69, 64
3, 189840, Note_on_c, 1, 70, 107
3, 189921, Note_off_c, 1, 70, 64
3, 189955, Note_on_c, 1, 72, 111
3, 190031, Note_off_c, 1, 72, 64
3, 190072, Note_on_c, 1, 73, 117
3, 190148, Note_off_c, 1, 73, 64
3, 190178, Note_on_c, 1, 75, 102
3, 190254, Note_off_c, 1, 75, 64
3, 190310, Note_on_c, 1, 77, 125
3, 190425, Note_off_c, 1, 77, 64
3, 190435, Note_on_c, 1, 78, 105
3, 190537, Note_off_c, 1, 78, 64
3, 190544, Note_on_c, 1, 77, 107
3, 190637, Note_off_c, 1, 77, 64
3, 190667, Note_on_c, 1, 75, 117
3, 190763, Note_off_c, 1, 75, 64
3, 190788, Note_on_c, 1, 73, 119
3, 190880, Note_off_c, 1, 73, 64
3, 190901, Note_on_c, 1, 72, 97
3, 190977, Note_off_c, 1, 72, 64
3, 191033, Note_on_c, 1, 70, 88
3, 191218, Note_off_c, 1, 70, 64
3, 191285, Note_on_c, 1, 73, 70
3, 191360, Note_off_c, 1, 73, 64
3, 191533, Note_on_c, 1, 65, 88
3, 191605, Note_off_c, 1, 65, 64
3, 191770, Note_on_c, 1, 72, 105
3, 191930, Note_off_c, 1, 72, 64
3, 191996, Note_on_c, 1, 75, 70
3, 192070, Note_off_c, 1, 75, 64
3, 192244, Note_on_c, 1, 65, 75
3, 192319, Note_off_c, 1, 65, 64
3, 192483, Note_on_c, 1, 73, 77
3, 192598, Note_off_c, 1, 73, 64
3, 192715, Note_on_c, 1, 73, 77
3, 192811, Note_off_c, 1, 73, 64
3, 192953, Note_on_c, 1, 73, 77
3, 193055, Note_off_c, 1, 73, 64
3, 193196, Note_on_c, 1, 73, 78
3, 193301, Note_off_c, 1, 73, 64
3, 193433, Note_on_c, 1, 73, 78
3, 193537, Note_off_c, 1, 73, 64
3, 193669, Note_on_c, 1, 73, 78
3, 193772, Note_off_c, 1, 73, 64
3, 193917, Note_on_c, 1, 72, 85
3, 194024, Note_off_c, 1, 72, 64
3, 194145, Note_on_c, 1, 72, 76
3, 194254, Note_off_c, 1, 72, 64
3, 194377, Note_on_c, 1, 72, 76
3, 194499, Note_off_c, 1, 72, 64
3, 194629, Note_on_c, 1, 72, 80
3, 194738, Note_off_c, 1, 72, 64
3, 194874, Note_on_c, 1, 72, 81
3, 194970, Note_off_c, 1, 72, 64
3, 195110, Note_on_c, 1, 72, 88
3, 195207, Note_off_c, 1, 72, 64
3, 195351, Note_on_c, 1, 70, 100
3, 195457, Note_off_c, 1, 70, 64
3, 195584, Note_on_c, 1, 70, 84
3, 195687, Note_off_c, 1, 70, 64
3, 195826, Note_on_c, 1, 70, 87
3, 195936, Note_off_c, 1, 70, 64
3, 196083, Note_on_c, 1, 70, 92
3, 196180, Note_off_c, 1, 70, 64
3, 196319, Note_on_c, 1, 70, 92
3, 196405, Note_off_c, 1, 70, 64
3, 196553, Note_on_c, 1, 70, 97
3, 196636, Note_off_c, 1, 70, 64
3, 196800, Note_on_c, 1, 69, 120
3, 196913, Note_off_c, 1, 69, 64
3, 196919, Note_on_c, 1, 72, 96
3, 197002, Note_off_c, 1, 72, 64
3, 197034, Note_on_c, 1, 65, 105
3, 197104, Note_off_c, 1, 65, 64
3, 197140, Note_on_c, 1, 72, 97
3, 197211, Note_off_c, 1, 72, 64
3, 197262, Note_on_c, 1, 69, 113
3, 197329, Note_off_c, 1, 69, 64
3, 197375, Note_on_c, 1, 72, 96
3, 197455, Note_off_c, 1, 72, 64
3, 197506, Note_on_c, 1, 70, 120
3, 197594, Note_off_c, 1, 70, 64
3, 197630, Note_on_c, 1, 73, 95
3, 197716, Note_off_c, 1, 73, 64
3, 197743, Note_on_c, 1, 65, 102
3, 197824, Note_off_c, 1, 65, 64
3, 197865, Note_on_c, 1, 73, 95
3, 197946, Note_off_c, 1, 73, 64
3, 197992, Note_on_c, 1, 70, 95
3, 198074, Note_off_c, 1, 70, 64
3, 198106, Note_on_c, 1, 73, 84
3, 198186, Note_off_c, 1, 73, 64
3, 198236, Note_on_c, 1, 72, 121
3, 198355, Note_off_c, 1, 72, 64
3, 198357, Note_on_c, 1, 75, 103
3, 198446, Note_off_c, 1, 75, 64
3, 198475, Note_on_c, 1, 65, 96
3, 198562, Note_off_c, 1, 65, 64
3, 198583, Note_on_c, 1, 75, 100
3, 198660, Note_off_c, 1, 75, 64
3, 198702, Note_on_c, 1, 72, 105
3, 198785, Note_off_c, 1, 72, 64
3, 198813, Note_on_c, 1, 75, 105
3, 198893, Note_off_c, 1, 75, 64
3, 198939, Note_on_c, 1, 73, 116
3, 199047, Note_off_c, 1, 73, 64
3, 199055, Note_on_c, 1, 77, 107
3, 199134, Note_off_c, 1, 77, 64
3, 199168, Note_on_c, 1, 65, 107
3, 199251, Note_off_c, 1, 65, 64
3, 199281, Note_on_c, 1, 77, 85
3, 199363, Note_off_c, 1, 77, 64
3, 199413, Note_on_c, 1, 73, 95
3, 199478, Note_off_c, 1, 73, 64
3, 199523, Note_on_c, 1, 77, 86
3, 199603, Note_off_c, 1, 77, 64
3, 199664, Note_on_c, 1, 75, 96
3, 199779, Note_off_c, 1, 75, 64
3, 199797, Note_on_c, 1, 69, 91
3, 199865, Note_off_c, 1, 69, 64
3, 199916, Note_on_c, 1, 75, 95
3, 200019, Note_off_c, 1, 75, 64
3, 200030, Note_on_c, 1, 69, 96
3, 200104, Note_off_c, 1, 69, 64
3, 200152, Note_on_c, 1, 75, 95
3, 200261, Note_off_c, 1, 75, 64
3, 200269, Note_on_c, 1, 69, 89
3, 200335, Note_off_c, 1, 69, 64
3, 200394, Note_on_c, 1, 73, 95
3, 200508, Note_off_c, 1, 73, 64
3, 200525, Note_on_c, 1, 70, 87
3, 200588, Note_off_c, 1, 70, 64
3, 200642, Note_on_c, 1, 73, 95
3, 200735, Note_off_c, 1, 73, 64
3, 200751, Note_on_c, 1, 70, 95
3, 200833, Note_off_c, 1, 70, 64
3, 200865, Note_on_c, 1, 73, 95
3, 200967, Note_off_c, 1, 73, 64
3, 200986, Note_on_c, 1, 70, 80
3, 201055, Note_off_c, 1, 70, 64
3, 201119, Note_on_c, 1, 72, 111
3, 201238, Note_on_c, 1, 65, 83
3, 201244, Note_off_c, 1, 72, 64
3, 201307, Note_off_c, 1, 65, 64
3, 201370, Note_on_c, 1, 72, 113
3, 201453, Note_off_c, 1, 72, 64
3, 201465, Note_on_c, 1, 65, 89
3, 201532, Note_off_c, 1, 65, 64
3, 201582, Note_on_c, 1, 72, 109
3, 201686, Note_on_c, 1, 65, 85
3, 201697, Note_off_c, 1, 72, 64
3, 201758, Note_off_c, 1, 65, 64
3, 201816, Note_on_c, 1, 70, 95
3, 201904, Note_off_c, 1, 70, 64
3, 201921, Note_on_c, 1, 65, 79
3, 202007, Note_off_c, 1, 65, 64
3, 202056, Note_on_c, 1, 70, 95
3, 202140, Note_off_c, 1, 70, 64
3, 202177, Note_on_c, 1, 65, 76
3, 202259, Note_off_c, 1, 65, 64
3, 202305, Note_on_c, 1, 70, 95
3, 202385, Note_off_c, 1, 70, 64
3, 202408, Note_on_c, 1, 65, 71
3, 202488, Note_off_c, 1, 65, 64
3, 202555, Note_on_c, 1, 69, 69
3, 202694, Note_off_c, 1, 69, 64
3, 202795, Note_on_c, 1, 65, 90
3, 202882, Note_off_c, 1, 65, 64
3, 203022, Note_on_c, 1, 65, 90
3, 203119, Note_off_c, 1, 65, 64
3, 203266, Note_on_c, 1, 65, 90
3, 203375, Note_off_c, 1, 65, 64
3, 203506, Note_on_c, 1, 65, 90
3, 203600, Note_off_c, 1, 65, 64
3, 203750, Note_on_c, 1, 65, 101
3, 203836, Note_off_c, 1, 65, 64
3, 204010, Note_on_c, 1, 77, 125
3, 204105, Note_off_c, 1, 77, 64
3, 204120, Note_on_c, 1, 80, 104
3, 204191, Note_off_c, 1, 80, 64
3, 204225, Note_on_c, 1, 70, 124
3, 204307, Note_off_c, 1, 70, 64
3, 204326, Note_on_c, 1, 80, 98
3, 204412, Note_off_c, 1, 80, 64
3, 204455, Note_on_c, 1, 77, 125
3, 204552, Note_off_c, 1, 77, 64
3, 204561, Note_on_c, 1, 80, 102
3, 204634, Note_off_c, 1, 80, 64
3, 204701, Note_on_c, 1, 77, 125
3, 204802, Note_off_c, 1, 77, 64
3, 204813, Note_on_c, 1, 80, 100
3, 204897, Note_off_c, 1, 80, 64
3, 204935, Note_on_c, 1, 70, 123
3, 205018, Note_off_c, 1, 70, 64
3, 205044, Note_on_c, 1, 80, 105
3, 205128, Note_off_c, 1, 80, 64
3, 205171, Note_on_c, 1, 77, 124
3, 205268, Note_off_c, 1, 77, 64
3, 205277, Note_on_c, 1, 80, 109
3, 205350, Note_off_c, 1, 80, 64
3, 205409, Control_c, 1, 11, 90
3, 205433, Note_on_c, 1, 78, 121
3, 205434, Control_c, 1, 11, 91
3, 205460, Control_c, 1, 11, 93
3, 205486, Control_c, 1, 11, 94
3, 205511, Control_c, 1, 11, 96
3, 205537, Control_c, 1, 11, 98
3, 205562, Control_c, 1, 11, 100
3, 205577, Note_on_c, 1, 80, 112
3, 205578, Note_off_c, 1, 78, 64
3, 205683, Note_off_c, 1, 80, 64
3, 205691, Note_on_c, 1, 82, 121
3, 205771, Note_off_c, 1, 82, 64
3, 205791, Note_on_c, 1, 80, 111
3, 205863, Note_off_c, 1, 80, 64
3, 205899, Note_on_c, 1, 78, 114
3, 205971, Note_off_c, 1, 78, 64
3, 206010, Note_on_c, 1, 77, 108
3, 206082, Note_off_c, 1, 77, 64
3, 206116, Control_c, 1, 11, 80
3, 206139, Note_on_c, 1, 75, 121
3, 206144, Control_c, 1, 11, 83
3, 206172, Control_c, 1, 11, 87
3, 206200, Control_c, 1, 11, 91
3, 206228, Control_c, 1, 11, 95
3, 206255, Control_c, 1, 11, 100
3, 206259, Note_on_c, 1, 77, 105
3, 206278, Note_off_c, 1, 75, 64
3, 206369, Note_off_c, 1, 77, 64
3, 206369, Note_on_c, 1, 78, 121
3, 206459, Note_off_c, 1, 78, 64
3, 206479, Note_on_c, 1, 77, 103
3, 206561, Note_off_c, 1, 77, 64
3, 206602, Note_on_c, 1, 75, 113
3, 206670, Note_off_c, 1, 75, 64
3, 206714, Note_on_c, 1, 73, 113
3, 206794, Note_off_c, 1, 73, 64
3, 206823, Control_c, 1, 11, 84
3, 206846, Note_on_c, 1, 72, 121
3, 206847, Control_c, 1, 11, 86
3, 206872, Control_c, 1, 11, 89
3, 206896, Control_c, 1, 11, 91
3, 206921, Control_c, 1, 11, 94
3, 206945, Control_c, 1, 11, 97
3, 206969, Note_on_c, 1, 73, 90
3, 206969, Control_c, 1, 11, 100
3, 206970, Note_off_c, 1, 72, 64
3, 207090, Note_off_c, 1, 73, 64
3, 207093, Note_on_c, 1, 75, 97
3, 207189, Note_off_c, 1, 75, 64
3, 207226, Note_on_c, 1, 73, 111
3, 207315, Note_off_c, 1, 73, 64
3, 207341, Note_on_c, 1, 72, 119
3, 207421, Note_off_c, 1, 72, 64
3, 207444, Note_on_c, 1, 70, 103
3, 207524, Note_off_c, 1, 70, 64
3, 207544, Control_c, 1, 11, 90
3, 207568, Note_on_c, 1, 69, 119
3, 207570, Control_c, 1, 11, 91
3, 207597, Control_c, 1, 11, 93
3, 207623, Control_c, 1, 11, 95
3, 207650, Control_c, 1, 11, 97
3, 207676, Control_c, 1, 11, 100
3, 207691, Note_off_c, 1, 69, 64
3, 207699, Note_on_c, 1, 70, 90
3, 207813, Note_off_c, 1, 70, 64
3, 207814, Note_on_c, 1, 72, 111
3, 207915, Note_off_c, 1, 72, 64
3, 207937, Note_on_c, 1, 70, 96
3, 208023, Note_off_c, 1, 70, 64
3, 208059, Note_on_c, 1, 69, 119
3, 208139, Note_off_c, 1, 69, 64
3, 208165, Note_on_c, 1, 67, 111
3, 208245, Note_off_c, 1, 67, 64
3, 208303, Note_on_c, 1, 65, 111
3, 208409, Note_off_c, 1, 65, 64
3, 208425, Note_on_c, 1, 66, 94
3, 208523, Note_off_c, 1, 66, 64
3, 208551, Note_on_c, 1, 65, 103
3, 208649, Note_off_c, 1, 65, 64
3, 208664, Note_on_c, 1, 63, 111
3, 208758, Note_off_c, 1, 63, 64
3, 208789, Note_on_c, 1, 61, 110
3, 208869, Note_off_c, 1, 61, 64
3, 208896, Note_on_c, 1, 63, 90
3, 208976, Note_off_c, 1, 63, 64
3, 209022, Note_on_c, 1, 60, 121
3, 209134, Note_on_c, 1, 61, 90
3, 209165, Note_off_c, 1, 60, 64
3, 209241, Note_off_c, 1, 61, 64
3, 209263, Note_on_c, 1, 63, 108
3, 209373, Note_off_c, 1, 63, 64
3, 209377, Note_on_c, 1, 65, 90
3, 209471, Note_off_c, 1, 65, 64
3, 209514, Note_on_c, 1, 67, 99
3, 209593, Note_off_c, 1, 67, 64
3, 209615, Note_on_c, 1, 69, 114
3, 209705, Note_off_c, 1, 69, 64
3, 209748, Note_on_c, 1, 70, 110
3, 209844, Note_off_c, 1, 70, 64
3, 209882, Note_on_c, 1, 66, 114
3, 209966, Note_off_c, 1, 66, 64
3, 209993, Note_on_c, 1, 65, 103
3, 210085, Note_off_c, 1, 65, 64
3, 210119, Note_on_c, 1, 63, 114
3, 210210, Note_off_c, 1, 63, 64
3, 210226, Note_on_c, 1, 61, 118
3, 210320, Note_off_c, 1, 61, 64
3, 210339, Note_on_c, 1, 60, 121
3, 210419, Note_off_c, 1, 60, 64
3, 210458, Note_on_c, 1, 58, 114
3, 210590, Note_off_c, 1, 58, 64
3, 210592, Note_on_c, 1, 60, 105
3, 210681, Note_off_c, 1, 60, 64
3, 210702, Note_on_c, 1, 61, 95
3, 210808, Note_off_c, 1, 61, 64
3, 210814, Note_on_c, 1, 63, 105
3, 210918, Note_off_c, 1, 63, 64
3, 210940, Note_on_c, 1, 65, 109
3, 211036, Note_off_c, 1, 65, 64
3, 211058, Note_on_c, 1, 66, 91
3, 211138, Note_off_c, 1, 66, 64
3, 211186, Note_on_c, 1, 68, 75
3, 211307, Note_off_c, 1, 68, 64
3, 211439, Note_on_c, 1, 68, 67
3, 211550, Note_off_c, 1, 68, 64
3, 211670, Note_on_c, 1, 68, 67
3, 211771, Note_off_c, 1, 68, 64
3, 211915, Note_on_c, 1, 68, 74
3, 212025, Note_off_c, 1, 68, 64
3, 212149, Note_on_c, 1, 68, 67
3, 212247, Note_off_c, 1, 68, 64
3, 212389, Note_on_c, 1, 68, 67
3, 212480, Note_off_c, 1, 68, 64
3, 212641, Note_on_c, 1, 68, 95
3, 212727, Note_off_c, 1, 68, 64
3, 212754, Note_on_c, 1, 71, 106
3, 212837, Note_off_c, 1, 71, 64
3, 212867, Note_on_c, 1, 70, 100
3, 212943, Note_off_c, 1, 70, 64
3, 212981, Note_on_c, 1, 68, 81
3, 213052, Note_off_c, 1, 68, 64
3, 213080, Note_on_c, 1, 66, 104
3, 213152, Note_off_c, 1, 66, 64
3, 213185, Note_on_c, 1, 65, 86
3, 213265, Note_off_c, 1, 65, 64
3, 213332, Note_on_c, 1, 66, 100
3, 213472, Note_off_c, 1, 66, 64
3, 213482, Note_on_c, 1, 65, 86
3, 213574, Note_off_c, 1, 65, 64
3, 213596, Note_on_c, 1, 63, 88
3, 213687, Note_on_c, 1, 65, 97
3, 213688, Note_off_c, 1, 63, 64
3, 213767, Note_off_c, 1, 65, 64
3, 213813, Note_on_c, 1, 66, 86
3, 213912, Note_off_c, 1, 66, 64
3, 213922, Note_on_c, 1, 68, 103
3, 214002, Note_off_c, 1, 68, 64
3, 214050, Note_on_c, 1, 70, 116
3, 214164, Note_off_c, 1, 70, 64
3, 214168, Note_on_c, 1, 71, 91
3, 214286, Note_off_c, 1, 71, 64
3, 214289, Note_on_c, 1, 73, 88
3, 214385, Note_off_c, 1, 73, 64
3, 214404, Note_on_c, 1, 71, 105
3, 214483, Note_off_c, 1, 71, 64
3, 214522, Note_on_c, 1, 70, 116
3, 214595, Note_off_c, 1, 70, 64
3, 214639, Note_on_c, 1, 68, 102
3, 214719, Note_off_c, 1, 68, 64
3, 214782, Note_on_c, 1, 67, 90
3, 214900, Note_on_c, 1, 68, 84
3, 214910, Note_off_c, 1, 67, 64
3, 215011, Note_off_c, 1, 68, 64
3, 215018, Note_on_c, 1, 70, 84
3, 215122, Note_off_c, 1, 70, 64
3, 215143, Note_on_c, 1, 68, 91
3, 215235, Note_off_c, 1, 68, 64
3, 215260, Note_on_c, 1, 67, 94
3, 215348, Note_off_c, 1, 67, 64
3, 215374, Note_on_c, 1, 65, 96
3, 215454, Note_off_c, 1, 65, 64
3, 215498, Note_on_c, 1, 63, 105
3, 215625, Note_off_c, 1, 63, 64
3, 215638, Note_on_c, 1, 67, 105
3, 215722, Note_off_c, 1, 67, 64
3, 215746, Note_on_c, 1, 68, 103
3, 215845, Note_off_c, 1, 68, 64
3, 215856, Note_on_c, 1, 70, 90
3, 215951, Note_off_c, 1, 70, 64
3, 215979, Note_on_c, 1, 71, 99
3, 216075, Note_off_c, 1, 71, 64
3, 216089, Note_on_c, 1, 73, 96
3, 216180, Note_off_c, 1, 73, 64
3, 216226, Note_on_c, 1, 75, 111
3, 216338, Note_off_c, 1, 75, 64
3, 216345, Note_on_c, 1, 73, 84
3, 216440, Note_off_c, 1, 73, 64
3, 216448, Note_on_c, 1, 71, 94
3, 216561, Note_off_c, 1, 71, 64
3, 216567, Note_on_c, 1, 70, 102
3, 216662, Note_off_c, 1, 70, 64
3, 216689, Note_on_c, 1, 71, 103
3, 216769, Note_off_c, 1, 71, 64
3, 216804, Note_on_c, 1, 68, 84
3, 216884, Note_off_c, 1, 68, 64
3, 216945, Note_on_c, 1, 76, 113
3, 217093, Note_off_c, 1, 76, 64
3, 217184, Note_on_c, 1, 76, 102
3, 217305, Note_off_c, 1, 76, 64
3, 217427, Note_on_c, 1, 76, 116
3, 217535, Note_off_c, 1, 76, 64
3, 217665, Note_on_c, 1, 76, 113
3, 217777, Note_off_c, 1, 76, 64
3, 217802, Note_on_c, 1, 66, 113
3, 217897, Note_off_c, 1, 66, 64
3, 217899, Note_on_c, 1, 70, 116
3, 218004, Note_off_c, 1, 70, 64
3, 218015, Note_on_c, 1, 73, 119
3, 218109, Note_off_c, 1, 73, 64
3, 218138, Note_on_c, 1, 70, 116
3, 218235, Note_off_c, 1, 70, 64
3, 218245, Note_on_c, 1, 66, 100
3, 218336, Note_off_c, 1, 66, 64
3, 218380, Note_on_c, 1, 75, 106
3, 218540, Note_off_c, 1, 75, 64
3, 218642, Note_on_c, 1, 75, 121
3, 218763, Note_off_c, 1, 75, 64
3, 218881, Note_on_c, 1, 75, 121
3, 219000, Note_off_c, 1, 75, 64
3, 219112, Note_on_c, 1, 75, 121
3, 219219, Note_off_c, 1, 75, 64
3, 219236, Note_on_c, 1, 64, 96
3, 219329, Note_off_c, 1, 64, 64
3, 219334, Note_on_c, 1, 68, 103
3, 219426, Note_off_c, 1, 68, 64
3, 219449, Note_on_c, 1, 71, 100
3, 219538, Note_off_c, 1, 71, 64
3, 219585, Note_on_c, 1, 68, 92
3, 219676, Note_off_c, 1, 68, 64
3, 219699, Note_on_c, 1, 64, 90
3, 219779, Note_off_c, 1, 64, 64
3, 219848, Note_on_c, 1, 78, 75
3, 219959, Note_off_c, 1, 78, 64
3, 220083, Note_on_c, 1, 78, 67
3, 220171, Note_off_c, 1, 78, 64
3, 220306, Note_on_c, 1, 78, 68
3, 220407, Note_off_c, 1, 78, 64
3, 220547, Note_on_c, 1, 78, 69
3, 220666, Note_off_c, 1, 78, 64
3, 220797, Note_on_c, 1, 78, 69
3, 220887, Note_off_c, 1, 78, 64
3, 221026, Note_on_c, 1, 78, 70
3, 221135, Note_off_c, 1, 78, 64
3, 221269, Note_on_c, 1, 78, 70
3, 221376, Note_off_c, 1, 78, 64
3, 221518, Note_on_c, 1, 78, 71
3, 221613, Note_off_c, 1, 78, 64
3, 221750, Note_on_c, 1, 78, 72
3, 221847, Note_off_c, 1, 78, 64
3, 221985, Note_on_c, 1, 78, 72
3, 222092, Note_off_c, 1, 78, 64
3, 222231, Note_on_c, 1, 78, 72
3, 222337, Note_off_c, 1, 78, 64
3, 222474, Note_on_c, 1, 78, 79
3, 222571, Note_off_c, 1, 78, 64
3, 222708, Note_on_c, 1, 78, 85
3, 222827, Note_off_c, 1, 78, 64
3, 222957, Note_on_c, 1, 78, 94
3, 223060, Note_off_c, 1, 78, 64
3, 223196, Note_on_c, 1, 78, 97
3, 223297, Note_off_c, 1, 78, 64
3, 223429, Note_on_c, 1, 78, 94
3, 223534, Note_off_c, 1, 78, 64
3, 223665, Note_on_c, 1, 78, 100
3, 223761, Note_off_c, 1, 78, 64
3, 223897, Note_on_c, 1, 78, 96
3, 224000, Note_off_c, 1, 78, 64
3, 224139, Note_on_c, 1, 78, 103
3, 224252, Note_off_c, 1, 78, 64
3, 224390, Note_on_c, 1, 78, 110
3, 224487, Note_off_c, 1, 78, 64
3, 224622, Note_on_c, 1, 78, 110
3, 224717, Note_off_c, 1, 78, 64
3, 224877, Note_on_c, 1, 78, 114
3, 224976, Note_off_c, 1, 78, 64
3, 225110, Note_on_c, 1, 78, 110
3, 225196, Note_off_c, 1, 78, 64
3, 225352, Note_on_c, 1, 78, 118
3, 225439, Note_off_c, 1, 78, 64
3, 225584, Note_on_c, 1, 71, 121
3, 225701, Note_off_c, 1, 71, 64
3, 225722, Note_on_c, 1, 74, 109
3, 225808, Note_off_c, 1, 74, 64
3, 225826, Note_on_c, 1, 68, 110
3, 225907, Note_off_c, 1, 68, 64
3, 225938, Note_on_c, 1, 74, 121
3, 226018, Note_off_c, 1, 74, 64
3, 226067, Note_on_c, 1, 71, 119
3, 226184, Note_on_c, 1, 70, 95
3, 226195, Note_off_c, 1, 71, 64
3, 226303, Note_off_c, 1, 70, 64
3, 226304, Note_on_c, 1, 71, 95
3, 226384, Note_off_c, 1, 71, 64
3, 226432, Note_on_c, 1, 74, 120
3, 226499, Note_off_c, 1, 74, 64
3, 226546, Note_on_c, 1, 68, 121
3, 226630, Note_off_c, 1, 68, 64
3, 226663, Note_on_c, 1, 74, 109
3, 226731, Note_off_c, 1, 74, 64
3, 226787, Note_on_c, 1, 71, 121
3, 226872, Note_off_c, 1, 71, 64
3, 226901, Note_on_c, 1, 74, 102
3, 226981, Note_off_c, 1, 74, 64
3, 227060, Note_on_c, 1, 66, 100
3, 227181, Note_off_c, 1, 66, 64
3, 227288, Note_on_c, 1, 70, 95
3, 227379, Note_off_c, 1, 70, 64
3, 227512, Note_on_c, 1, 73, 95
3, 227604, Note_off_c, 1, 73, 64
3, 227761, Note_on_c, 1, 70, 95
3, 227890, Note_off_c, 1, 70, 64
3, 228007, Note_on_c, 1, 73, 102
3, 228092, Note_off_c, 1, 73, 64
3, 228231, Note_on_c, 1, 78, 96
3, 228335, Note_off_c, 1, 78, 64
3, 228480, Note_on_c, 1, 59, 65
3, 228581, Note_off_c, 1, 59, 64
3, 228717, Note_on_c, 1, 59, 68
3, 228847, Note_off_c, 1, 59, 64
3, 228964, Note_on_c, 1, 59, 69
3, 229082, Note_off_c, 1, 59, 64
3, 229202, Note_on_c, 1, 59, 67
3, 229321, Note_off_c, 1, 59, 64
3, 229443, Note_on_c, 1, 59, 71
3, 229547, Note_off_c, 1, 59, 64
3, 229679, Note_on_c, 1, 59, 63
3, 229793, Note_off_c, 1, 59, 64
3, 229920, Note_on_c, 1, 59, 71
3, 230055, Note_off_c, 1, 59, 64
3, 230159, Note_on_c, 1, 59, 72
3, 230276, Note_off_c, 1, 59, 64
3, 230399, Note_on_c, 1, 59, 76
3, 230522, Note_off_c, 1, 59, 64
3, 230637, Note_on_c, 1, 59, 71
3, 230752, Note_off_c, 1, 59, 64
3, 230873, Note_on_c, 1, 59, 77
3, 230980, Note_off_c, 1, 59, 64
3, 231110, Note_on_c, 1, 59, 75
3, 231241, Note_off_c, 1, 59, 64
3, 231351, Note_on_c, 1, 59, 84
3, 231464, Note_off_c, 1, 59, 64
3, 231595, Note_on_c, 1, 59, 84
3, 231705, Note_off_c, 1, 59, 64
3, 231837, Note_on_c, 1, 59, 84
3, 231941, Note_off_c, 1, 59, 64
3, 232080, Note_on_c, 1, 59, 84
3, 232198, Note_off_c, 1, 59, 64
3, 232322, Note_on_c, 1, 59, 84
3, 232428, Note_off_c, 1, 59, 64
3, 232559, Note_on_c, 1, 59, 84
3, 232679, Note_off_c, 1, 59, 64
3, 232801, Note_on_c, 1, 63, 84
3, 232964, Note_off_c, 1, 63, 64
3, 233037, Note_on_c, 1, 66, 84
3, 233144, Note_off_c, 1, 66, 64
3, 233274, Note_on_c, 1, 61, 84
3, 233380, Note_off_c, 1, 61, 64
3, 233519, Note_on_c, 1, 63, 84
3, 233683, Note_off_c, 1, 63, 64
3, 233764, Note_on_c, 1, 59, 84
3, 233867, Note_off_c, 1, 59, 64
3, 234003, Note_on_c, 1, 54, 68
3, 234109, Note_off_c, 1, 54, 64
3, 234241, Note_on_c, 1, 59, 84
3, 234393, Note_off_c, 1, 59, 64
3, 234480, Note_on_c, 1, 63, 84
3, 234570, Note_off_c, 1, 63, 64
3, 234719, Note_on_c, 1, 66, 84
3, 234825, Note_off_c, 1, 66, 64
3, 234968, Note_on_c, 1, 58, 84
3, 235121, Note_off_c, 1, 58, 64
3, 235204, Note_on_c, 1, 61, 84
3, 235305, Note_off_c, 1, 61, 64
3, 235444, Note_on_c, 1, 66, 84
3, 235528, Note_off_c, 1, 66, 64
3, 235684, Note_on_c, 1, 59, 84
3, 235856, Note_off_c, 1, 59, 64
3, 235924, Note_on_c, 1, 63, 84
3, 236020, Note_off_c, 1, 63, 64
3, 236157, Note_on_c, 1, 66, 84
3, 236254, Note_off_c, 1, 66, 64
3, 236403, Note_on_c, 1, 54, 61
3, 236574, Note_off_c, 1, 54, 64
3, 236641, Note_on_c, 1, 61, 84
3, 236748, Note_off_c, 1, 61, 64
3, 236878, Note_on_c, 1, 66, 84
3, 236968, Note_off_c, 1, 66, 64
3, 237126, Note_on_c, 1, 59, 125
3, 237243, Note_on_c, 1, 58, 100
3, 237256, Note_off_c, 1, 59, 64
3, 237357, Note_on_c, 1, 59, 97
3, 237363, Note_off_c, 1, 58, 64
3, 237444, Note_off_c, 1, 59, 64
3, 237478, Note_on_c, 1, 61, 109
3, 237554, Note_off_c, 1, 61, 64
3, 237594, Note_on_c, 1, 63, 125
3, 237671, Note_off_c, 1, 63, 64
3, 237703, Note_on_c, 1, 64, 110
3, 237775, Note_off_c, 1, 64, 64
3, 237838, Note_on_c, 1, 66, 125
3, 237956, Note_on_c, 1, 68, 97
3, 237963, Note_off_c, 1, 66, 64
3, 238058, Note_off_c, 1, 68, 64
3, 238078, Note_on_c, 1, 66, 107
3, 238164, Note_off_c, 1, 66, 64
3, 238196, Note_on_c, 1, 64, 125
3, 238277, Note_off_c, 1, 64, 64
3, 238315, Note_on_c, 1, 63, 112
3, 238397, Note_off_c, 1, 63, 64
3, 238422, Note_on_c, 1, 61, 93
3, 238494, Note_off_c, 1, 61, 64
3, 238557, Note_on_c, 1, 59, 95
3, 238727, Note_off_c, 1, 59, 64
3, 238799, Note_on_c, 1, 63, 119
3, 238889, Note_off_c, 1, 63, 64
3, 239037, Note_on_c, 1, 66, 110
3, 239129, Note_off_c, 1, 66, 64
3, 239278, Note_on_c, 1, 73, 121
3, 239442, Note_off_c, 1, 73, 64
3, 239524, Note_on_c, 1, 76, 106
3, 239604, Note_off_c, 1, 76, 64
3, 239758, Note_on_c, 1, 66, 93
3, 239871, Note_off_c, 1, 66, 64
3, 239999, Note_on_c, 1, 75, 80
3, 240119, Note_off_c, 1, 75, 64
3, 240244, Note_on_c, 1, 75, 60
3, 240336, Note_off_c, 1, 75, 64
3, 240483, Note_on_c, 1, 75, 60
3, 240570, Note_off_c, 1, 75, 64
3, 240723, Note_on_c, 1, 75, 60
3, 240808, Note_off_c, 1, 75, 64
3, 240963, Note_on_c, 1, 75, 65
3, 241042, Note_off_c, 1, 75, 64
3, 241201, Note_on_c, 1, 75, 65
3, 241282, Note_off_c, 1, 75, 64
3, 241435, Note_on_c, 1, 73, 74
3, 241543, Note_off_c, 1, 73, 64
3, 241679, Note_on_c, 1, 73, 68
3, 241758, Note_off_c, 1, 73, 64
3, 241916, Note_on_c, 1, 73, 68
3, 241995, Note_off_c, 1, 73, 64
3, 242157, Note_on_c, 1, 73, 74
3, 242258, Note_off_c, 1, 73, 64
3, 242397, Note_on_c, 1, 73, 68
3, 242483, Note_off_c, 1, 73, 64
3, 242635, Note_on_c, 1, 73, 68
3, 242723, Note_off_c, 1, 73, 64
3, 242876, Note_on_c, 1, 71, 78
3, 242978, Note_off_c, 1, 71, 64
3, 243114, Note_on_c, 1, 71, 72
3, 243214, Note_off_c, 1, 71, 64
3, 243359, Note_on_c, 1, 71, 72
3, 243445, Note_off_c, 1, 71, 64
3, 243596, Note_on_c, 1, 71, 72
3, 243692, Note_off_c, 1, 71, 64
3, 243836, Note_on_c, 1, 71, 72
3, 243915, Note_off_c, 1, 71, 64
3, 244078, Note_on_c, 1, 71, 84
3, 244155, Note_off_c, 1, 71, 64
3, 244320, Note_on_c, 1, 70, 115
3, 244438, Note_on_c, 1, 68, 100
3, 244440, Note_off_c, 1, 70, 64
3, 244535, Note_off_c, 1, 68, 64
3, 244556, Note_on_c, 1, 66, 95
3, 244652, Note_off_c, 1, 66, 64
3, 244673, Note_on_c, 1, 68, 100
3, 244748, Note_off_c, 1, 68, 64
3, 244789, Note_on_c, 1, 70, 115
3, 244869, Note_off_c, 1, 70, 64
3, 244906, Note_on_c, 1, 71, 89
3, 244986, Note_off_c, 1, 71, 64
3, 245028, Note_on_c, 1, 73, 115
3, 245141, Note_off_c, 1, 73, 64
3, 245150, Note_on_c, 1, 75, 101
3, 245237, Note_off_c, 1, 75, 64
3, 245269, Note_on_c, 1, 73, 104
3, 245351, Note_off_c, 1, 73, 64
3, 245384, Note_on_c, 1, 71, 97
3, 245464, Note_off_c, 1, 71, 64
3, 245507, Note_on_c, 1, 70, 113
3, 245597, Note_off_c, 1, 70, 64
3, 245624, Note_on_c, 1, 68, 104
3, 245704, Note_off_c, 1, 68, 64
3, 245751, Note_on_c, 1, 70, 91
3, 245936, Note_off_c, 1, 70, 64
3, 245993, Note_on_c, 1, 73, 95
3, 246095, Note_off_c, 1, 73, 64
3, 246230, Note_on_c, 1, 78, 100
3, 246322, Note_off_c, 1, 78, 64
3, 246474, Note_on_c, 1, 77, 116
3, 246592, Note_off_c, 1, 77, 64
3, 246593, Note_on_c, 1, 78, 91
3, 246712, Note_on_c, 1, 77, 111
3, 246719, Note_off_c, 1, 78, 64
3, 246797, Note_off_c, 1, 77, 64
3, 246831, Note_on_c, 1, 75, 102
3, 246912, Note_off_c, 1, 75, 64
3, 246948, Note_on_c, 1, 73, 113
3, 247032, Note_off_c, 1, 73, 64
3, 247055, Note_on_c, 1, 71, 96
3, 247135, Note_off_c, 1, 71, 64
3, 247193, Note_on_c, 1, 70, 96
3, 247357, Note_off_c, 1, 70, 64
3, 247435, Note_on_c, 1, 66, 75
3, 247531, Note_off_c, 1, 66, 64
3, 247671, Note_on_c, 1, 73, 78
3, 247765, Note_off_c, 1, 73, 64
3, 247917, Note_on_c, 1, 73, 81
3, 248018, Note_off_c, 1, 73, 64
3, 248161, Note_on_c, 1, 73, 84
3, 248255, Note_off_c, 1, 73, 64
3, 248399, Note_on_c, 1, 73, 87
3, 248487, Note_off_c, 1, 73, 64
3, 248636, Note_on_c, 1, 73, 90
3, 248727, Note_off_c, 1, 73, 64
3, 248876, Note_on_c, 1, 73, 92
3, 248958, Note_off_c, 1, 73, 64
3, 249113, Note_on_c, 1, 73, 95
3, 249197, Note_off_c, 1, 73, 64
3, 249355, Note_on_c, 1, 73, 97
3, 249455, Note_off_c, 1, 73, 64
3, 249593, Note_on_c, 1, 73, 101
3, 249686, Note_off_c, 1, 73, 64
3, 249833, Note_on_c, 1, 73, 104
3, 249932, Note_off_c, 1, 73, 64
3, 250080, Note_on_c, 1, 82, 121
3, 250194, Note_off_c, 1, 82, 64
3, 250197, Note_on_c, 1, 83, 106
3, 250293, Note_off_c, 1, 83, 64
3, 250311, Note_on_c, 1, 82, 106
3, 250395, Note_off_c, 1, 82, 64
3, 250430, Note_on_c, 1, 80, 120
3, 250508, Note_off_c, 1, 80, 64
3, 250551, Note_on_c, 1, 78, 106
3, 250631, Note_off_c, 1, 78, 64
3, 250659, Note_on_c, 1, 77, 111
3, 250735, Note_off_c, 1, 77, 64
3, 250794, Note_on_c, 1, 75, 110
3, 250910, Note_on_c, 1, 73, 96
3, 250912, Note_off_c, 1, 75, 64
3, 251016, Note_off_c, 1, 73, 64
3, 251028, Note_on_c, 1, 75, 96
3, 251111, Note_off_c, 1, 75, 64
3, 251149, Note_on_c, 1, 77, 116
3, 251232, Note_off_c, 1, 77, 64
3, 251269, Note_on_c, 1, 78, 90
3, 251341, Note_off_c, 1, 78, 64
3, 251382, Note_on_c, 1, 75, 96
3, 251454, Note_off_c, 1, 75, 64
3, 251519, Note_on_c, 1, 80, 116
3, 251638, Note_on_c, 1, 82, 96
3, 251646, Note_off_c, 1, 80, 64
3, 251744, Note_off_c, 1, 82, 64
3, 251755, Note_on_c, 1, 80, 102
3, 251840, Note_off_c, 1, 80, 64
3, 251877, Note_on_c, 1, 78, 125
3, 251964, Note_off_c, 1, 78, 64
3, 251995, Note_on_c, 1, 77, 116
3, 252079, Note_off_c, 1, 77, 64
3, 252102, Note_on_c, 1, 75, 100
3, 252178, Note_off_c, 1, 75, 64
3, 252239, Note_on_c, 1, 73, 113
3, 252350, Note_off_c, 1, 73, 64
3, 252359, Note_on_c, 1, 71, 94
3, 252451, Note_off_c, 1, 71, 64
3, 252477, Note_on_c, 1, 73, 100
3, 252562, Note_off_c, 1, 73, 64
3, 252599, Note_on_c, 1, 75, 116
3, 252679, Note_off_c, 1, 75, 64
3, 252717, Note_on_c, 1, 77, 106
3, 252790, Note_off_c, 1, 77, 64
3, 252821, Note_on_c, 1, 73, 96
3, 252894, Note_off_c, 1, 73, 64
3, 252959, Note_on_c, 1, 78, 116
3, 253077, Note_on_c, 1, 80, 90
3, 253085, Note_off_c, 1, 78, 64
3, 253194, Note_off_c, 1, 80, 64
3, 253198, Note_on_c, 1, 78, 92
3, 253294, Note_off_c, 1, 78, 64
3, 253315, Note_on_c, 1, 77, 103
3, 253397, Note_off_c, 1, 77, 64
3, 253434, Note_on_c, 1, 75, 95
3, 253521, Note_off_c, 1, 75, 64
3, 253540, Note_on_c, 1, 73, 100
3, 253620, Note_off_c, 1, 73, 64
3, 253673, Note_on_c, 1, 71, 106
3, 253793, Note_on_c, 1, 70, 90
3, 253804, Note_off_c, 1, 71, 64
3, 253913, Note_on_c, 1, 71, 94
3, 253928, Note_off_c, 1, 70, 64
3, 254005, Note_off_c, 1, 71, 64
3, 254031, Note_on_c, 1, 73, 91
3, 254119, Note_off_c, 1, 73, 64
3, 254153, Note_on_c, 1, 75, 85
3, 254233, Note_off_c, 1, 75, 64
3, 254260, Note_on_c, 1, 70, 95
3, 254340, Note_off_c, 1, 70, 64
3, 254400, Note_on_c, 1, 71, 84
3, 254587, Note_off_c, 1, 71, 64
3, 254642, Note_on_c, 1, 68, 84
3, 254734, Note_off_c, 1, 68, 64
3, 254875, Note_on_c, 1, 65, 71
3, 254983, Note_off_c, 1, 65, 64
3, 255113, Note_on_c, 1, 73, 84
3, 255288, Note_off_c, 1, 73, 64
3, 255353, Note_on_c, 1, 70, 84
3, 255459, Note_off_c, 1, 70, 64
3, 255595, Note_on_c, 1, 66, 84
3, 255700, Note_off_c, 1, 66, 64
3, 255836, Note_on_c, 1, 71, 84
3, 256029, Note_off_c, 1, 71, 64
3, 256082, Note_on_c, 1, 68, 84
3, 256160, Note_off_c, 1, 68, 64
3, 256309, Note_on_c, 1, 65, 66
3, 256415, Note_off_c, 1, 65, 64
3, 256555, Note_on_c, 1, 70, 84
3, 256747, Note_off_c, 1, 70, 64
3, 256797, Note_on_c, 1, 66, 84
3, 256908, Note_off_c, 1, 66, 64
3, 257039, Note_on_c, 1, 61, 84
3, 257151, Note_off_c, 1, 61, 64
3, 257279, Note_on_c, 1, 68, 84
3, 257445, Note_off_c, 1, 68, 64
3, 257520, Note_on_c, 1, 65, 71
3, 257643, Note_off_c, 1, 65, 64
3, 257756, Note_on_c, 1, 61, 84
3, 257875, Note_off_c, 1, 61, 64
3, 257994, Note_on_c, 1, 70, 84
3, 258195, Note_off_c, 1, 70, 64
3, 258236, Note_on_c, 1, 66, 84
3, 258351, Note_off_c, 1, 66, 64
3, 258473, Note_on_c, 1, 61, 84
3, 258550, Note_off_c, 1, 61, 64
3, 258707, Note_on_c, 1, 77, 121
3, 258805, Note_off_c, 1, 77, 64
3, 258825, Note_on_c, 1, 80, 90
3, 258904, Note_off_c, 1, 80, 64
3, 258953, Note_on_c, 1, 73, 102
3, 259035, Note_off_c, 1, 73, 64
3, 259063, Note_on_c, 1, 80, 90
3, 259134, Note_off_c, 1, 80, 64
3, 259194, Note_on_c, 1, 77, 106
3, 259291, Note_off_c, 1, 77, 64
3, 259301, Note_on_c, 1, 80, 100
3, 259372, Note_off_c, 1, 80, 64
3, 259435, Note_on_c, 1, 78, 119
3, 259546, Note_off_c, 1, 78, 64
3, 259547, Note_on_c, 1, 82, 91
3, 259632, Note_off_c, 1, 82, 64
3, 259675, Note_on_c, 1, 73, 110
3, 259773, Note_off_c, 1, 73, 64
3, 259786, Note_on_c, 1, 82, 105
3, 259861, Note_off_c, 1, 82, 64
3, 259914, Note_on_c, 1, 78, 113
3, 260002, Note_off_c, 1, 78, 64
3, 260022, Note_on_c, 1, 82, 100
3, 260098, Note_off_c, 1, 82, 64
3, 260139, Note_on_c, 1, 77, 94
3, 260290, Note_off_c, 1, 77, 64
3, 260395, Note_on_c, 1, 61, 86
3, 260494, Note_off_c, 1, 61, 64
3, 260633, Note_on_c, 1, 61, 86
3, 260731, Note_off_c, 1, 61, 64
3, 260875, Note_on_c, 1, 61, 94
3, 260971, Note_off_c, 1, 61, 64
3, 261116, Note_on_c, 1, 61, 86
3, 261204, Note_off_c, 1, 61, 64
3, 261352, Note_on_c, 1, 61, 97
3, 261439, Note_off_c, 1, 61, 64
3, 261601, Note_on_c, 1, 73, 116
3, 261710, Note_on_c, 1, 76, 100
3, 261726, Note_off_c, 1, 73, 64
3, 261785, Note_off_c, 1, 76, 64
3, 261838, Note_on_c, 1, 66, 108
3, 261934, Note_off_c, 1, 66, 64
3, 261945, Note_on_c, 1, 76, 91
3, 262022, Note_off_c, 1, 76, 64
3, 262078, Note_on_c, 1, 73, 114
3, 262165, Note_off_c, 1, 73, 64
3, 262188, Note_on_c, 1, 76, 97
3, 262259, Note_off_c, 1, 76, 64
3, 262318, Note_on_c, 1, 73, 116
3, 262419, Note_off_c, 1, 73, 64
3, 262429, Note_on_c, 1, 76, 90
3, 262510, Note_off_c, 1, 76, 64
3, 262557, Note_on_c, 1, 66, 91
3, 262657, Note_off_c, 1, 66, 64
3, 262666, Note_on_c, 1, 76, 108
3, 262740, Note_off_c, 1, 76, 64
3, 262799, Note_on_c, 1, 73, 101
3, 262883, Note_off_c, 1, 73, 64
3, 262909, Note_on_c, 1, 76, 105
3, 262974, Note_off_c, 1, 76, 64
3, 262998, Control_c, 1, 11, 84
3, 263022, Control_c, 1, 11, 86
3, 263039, Note_on_c, 1, 75, 121
3, 263047, Control_c, 1, 11, 89
3, 263071, Control_c, 1, 11, 91
3, 263096, Control_c, 1, 11, 94
3, 263120, Control_c, 1, 11, 97
3, 263144, Control_c, 1, 11, 100
3, 263159, Note_on_c, 1, 76, 102
3, 263160, Note_off_c, 1, 75, 64
3, 263270, Note_off_c, 1, 76, 64
3, 263274, Note_on_c, 1, 78, 82
3, 263369, Note_off_c, 1, 78, 64
3, 263393, Note_on_c, 1, 76, 96
3, 263477, Note_off_c, 1, 76, 64
3, 263513, Note_on_c, 1, 75, 122
3, 263597, Note_off_c, 1, 75, 64
3, 263619, Note_on_c, 1, 73, 110
3, 263695, Note_off_c, 1, 73, 64
3, 263719, Control_c, 1, 11, 90
3, 263747, Control_c, 1, 11, 91
3, 263752, Note_on_c, 1, 71, 121
3, 263775, Control_c, 1, 11, 93
3, 263803, Control_c, 1, 11, 95
3, 263831, Control_c, 1, 11, 97
3, 263858, Control_c, 1, 11, 100
3, 263873, Note_on_c, 1, 73, 90
3, 263877, Note_off_c, 1, 71, 64
3, 263976, Note_off_c, 1, 73, 64
3, 263990, Note_on_c, 1, 75, 90
3, 264082, Note_off_c, 1, 75, 64
3, 264109, Note_on_c, 1, 73, 94
3, 264191, Note_off_c, 1, 73, 64
3, 264229, Note_on_c, 1, 71, 118
3, 264309, Note_off_c, 1, 71, 64
3, 264335, Note_on_c, 1, 70, 106
3, 264415, Note_off_c, 1, 70, 64
3, 264473, Note_on_c, 1, 68, 121
3, 264591, Note_on_c, 1, 70, 88
3, 264599, Note_off_c, 1, 68, 64
3, 264691, Note_off_c, 1, 70, 64
3, 264707, Note_on_c, 1, 71, 95
3, 264802, Note_off_c, 1, 71, 64
3, 264828, Note_on_c, 1, 70, 90
3, 264907, Note_off_c, 1, 70, 64
3, 264949, Note_on_c, 1, 68, 105
3, 265029, Note_off_c, 1, 68, 64
3, 265059, Note_on_c, 1, 66, 96
3, 265131, Note_off_c, 1, 66, 64
3, 265196, Note_on_c, 1, 65, 116
3, 265314, Note_on_c, 1, 66, 84
3, 265325, Note_off_c, 1, 65, 64
3, 265430, Note_off_c, 1, 66, 64
3, 265433, Note_on_c, 1, 68, 88
3, 265526, Note_off_c, 1, 68, 64
3, 265554, Note_on_c, 1, 66, 110
3, 265631, Note_off_c, 1, 66, 64
3, 265674, Note_on_c, 1, 65, 121
3, 265750, Note_off_c, 1, 65, 64
3, 265781, Note_on_c, 1, 63, 108
3, 265857, Note_off_c, 1, 63, 64
3, 265917, Note_on_c, 1, 61, 119
3, 266025, Note_off_c, 1, 61, 64
3, 266031, Note_on_c, 1, 63, 84
3, 266126, Note_off_c, 1, 63, 64
3, 266153, Note_on_c, 1, 61, 106
3, 266240, Note_off_c, 1, 61, 64
3, 266271, Note_on_c, 1, 59, 92
3, 266356, Note_off_c, 1, 59, 64
3, 266391, Note_on_c, 1, 58, 121
3, 266463, Note_off_c, 1, 58, 64
3, 266502, Note_on_c, 1, 59, 103
3, 266574, Note_off_c, 1, 59, 64
3, 266636, Note_on_c, 1, 56, 100
3, 266756, Note_on_c, 1, 58, 95
3, 266777, Note_off_c, 1, 56, 64
3, 266873, Note_on_c, 1, 59, 113
3, 266876, Note_off_c, 1, 58, 64
3, 266954, Note_off_c, 1, 59, 64
3, 266991, Note_on_c, 1, 61, 96
3, 267089, Note_off_c, 1, 61, 64
3, 267107, Note_on_c, 1, 63, 110
3, 267193, Note_off_c, 1, 63, 64
3, 267216, Note_on_c, 1, 65, 111
3, 267295, Note_off_c, 1, 65, 64
3, 267355, Note_on_c, 1, 66, 113
3, 267470, Note_on_c, 1, 70, 96
3, 267480, Note_off_c, 1, 66, 64
3, 267579, Note_off_c, 1, 70, 64
3, 267589, Note_on_c, 1, 73, 102
3, 267683, Note_off_c, 1, 73, 64
3, 267707, Note_on_c, 1, 66, 110
3, 267817, Note_off_c, 1, 66, 64
3, 267825, Note_on_c, 1, 70, 119
3, 267926, Note_off_c, 1, 70, 64
3, 267940, Note_on_c, 1, 73, 113
3, 268033, Note_off_c, 1, 73, 64
3, 268044, Note_on_c, 1, 78, 71
3, 268178, Note_off_c, 1, 78, 64
3, 268182, Note_on_c, 1, 73, 94
3, 268268, Note_off_c, 1, 73, 64
3, 268299, Note_on_c, 1, 70, 102
3, 268381, Note_off_c, 1, 70, 64
3, 268416, Note_on_c, 1, 66, 105
3, 268487, Note_off_c, 1, 66, 64
3, 268546, Note_on_c, 1, 54, 105
3, 268619, Control_c, 1, 11, 100
3, 268644, Control_c, 1, 11, 95
3, 268668, Note_off_c, 1, 54, 64
3, 268669, Control_c, 1, 11, 91
3, 268694, Control_c, 1, 11, 87
3, 268719, Control_c, 1, 11, 82
3, 268744, Control_c, 1, 11, 78
3, 268769, Control_c, 1, 11, 74
3, 268793, Control_c, 1, 11, 70
3, 268800, Note_on_c, 1, 61, 84
3, 268925, Note_off_c, 1, 61, 64
3, 269048, Note_on_c, 1, 65, 65
3, 269129, Note_off_c, 1, 65, 64
3, 269284, Note_on_c, 1, 68, 84
3, 269364, Note_off_c, 1, 68, 64
3, 269525, Note_on_c, 1, 60, 71
3, 269650, Note_off_c, 1, 60, 64
3, 269767, Note_on_c, 1, 63, 84
3, 269821, Note_off_c, 1, 63, 64
3, 269999, Note_on_c, 1, 68, 84
3, 270075, Note_off_c, 1, 68, 64
3, 270242, Note_on_c, 1, 61, 84
3, 270381, Note_off_c, 1, 61, 64
3, 270478, Note_on_c, 1, 65, 64
3, 270558, Note_off_c, 1, 65, 64
3, 270719, Note_on_c, 1, 68, 84
3, 270794, Note_off_c, 1, 68, 64
3, 270965, Note_on_c, 1, 56, 70
3, 271126, Note_off_c, 1, 56, 64
3, 271201, Note_on_c, 1, 63, 84
3, 271292, Note_off_c, 1, 63, 64
3, 271439, Note_on_c, 1, 68, 84
3, 271523, Note_off_c, 1, 68, 64
3, 271682, Note_on_c, 1, 70, 72
3, 271812, Note_off_c, 1, 70, 64
3, 271918, Note_on_c, 1, 70, 69
3, 272030, Note_off_c, 1, 70, 64
3, 272157, Note_on_c, 1, 70, 72
3, 272255, Note_off_c, 1, 70, 64
3, 272394, Note_on_c, 1, 70, 80
3, 272514, Note_off_c, 1, 70, 64
3, 272639, Note_on_c, 1, 70, 75
3, 272734, Note_off_c, 1, 70, 64
3, 272879, Note_on_c, 1, 70, 76
3, 272975, Note_off_c, 1, 70, 64
3, 273119, Note_on_c, 1, 70, 87
3, 273221, Note_off_c, 1, 70, 64
3, 273357, Note_on_c, 1, 70, 81
3, 273453, Note_off_c, 1, 70, 64
3, 273597, Note_on_c, 1, 70, 83
3, 273686, Note_off_c, 1, 70, 64
3, 273837, Note_on_c, 1, 70, 93
3, 273951, Note_off_c, 1, 70, 64
3, 274079, Note_on_c, 1, 70, 92
3, 274173, Note_off_c, 1, 70, 64
3, 274317, Note_on_c, 1, 70, 97
3, 274416, Note_off_c, 1, 70, 64
3, 274537, Control_c, 1, 11, 80
3, 274560, Note_on_c, 1, 75, 121
3, 274563, Control_c, 1, 11, 83
3, 274590, Control_c, 1, 11, 86
3, 274617, Control_c, 1, 11, 89
3, 274644, Control_c, 1, 11, 93
3, 274671, Control_c, 1, 11, 96
3, 274674, Note_on_c, 1, 77, 95
3, 274692, Note_off_c, 1, 75, 64
3, 274697, Control_c, 1, 11, 100
3, 274783, Note_on_c, 1, 78, 113
3, 274791, Note_off_c, 1, 77, 64
3, 274886, Note_off_c, 1, 78, 64
3, 274909, Note_on_c, 1, 75, 100
3, 274988, Note_off_c, 1, 75, 64
3, 275041, Note_on_c, 1, 74, 94
3, 275127, Note_off_c, 1, 74, 64
3, 275149, Note_on_c, 1, 75, 84
3, 275229, Note_off_c, 1, 75, 64
3, 275277, Note_on_c, 1, 71, 110
3, 275408, Note_off_c, 1, 71, 64
3, 275410, Note_on_c, 1, 75, 96
3, 275501, Note_off_c, 1, 75, 64
3, 275522, Note_on_c, 1, 78, 92
3, 275610, Note_off_c, 1, 78, 64
3, 275640, Note_on_c, 1, 75, 92
3, 275726, Note_off_c, 1, 75, 64
3, 275760, Note_on_c, 1, 74, 94
3, 275848, Note_off_c, 1, 74, 64
3, 275864, Note_on_c, 1, 75, 84
3, 275944, Note_off_c, 1, 75, 64
3, 275994, Note_on_c, 1, 70, 113
3, 276105, Note_on_c, 1, 75, 101
3, 276123, Note_off_c, 1, 70, 64
3, 276163, Note_on_c, 1, 77, 88
3, 276176, Note_off_c, 1, 75, 64
3, 276208, Note_on_c, 1, 78, 88
3, 276221, Note_off_c, 1, 77, 64
3, 276345, Note_off_c, 1, 78, 64
3, 276359, Note_on_c, 1, 75, 84
3, 276442, Note_off_c, 1, 75, 64
3, 276469, Note_on_c, 1, 74, 90
3, 276566, Note_off_c, 1, 74, 64
3, 276585, Note_on_c, 1, 75, 84
3, 276665, Note_off_c, 1, 75, 64
3, 276725, Note_on_c, 1, 68, 95
3, 276835, Note_off_c, 1, 68, 64
3, 276847, Note_on_c, 1, 75, 84
3, 276938, Note_off_c, 1, 75, 64
3, 276957, Note_on_c, 1, 78, 91
3, 277052, Note_off_c, 1, 78, 64
3, 277072, Note_on_c, 1, 75, 88
3, 277169, Note_off_c, 1, 75, 64
3, 277186, Note_on_c, 1, 74, 88
3, 277281, Note_off_c, 1, 74, 64
3, 277300, Note_on_c, 1, 75, 84
3, 277380, Note_off_c, 1, 75, 64
3, 277430, Note_on_c, 1, 70, 109
3, 277549, Note_off_c, 1, 70, 64
3, 277553, Note_on_c, 1, 75, 101
3, 277608, Note_on_c, 1, 77, 92
3, 277627, Note_off_c, 1, 75, 64
3, 277648, Note_on_c, 1, 78, 92
3, 277664, Note_off_c, 1, 77, 64
3, 277774, Note_off_c, 1, 78, 64
3, 277794, Note_on_c, 1, 75, 84
3, 277887, Note_off_c, 1, 75, 64
3, 277907, Note_on_c, 1, 74, 72
3, 278004, Note_off_c, 1, 74, 64
3, 278024, Note_on_c, 1, 75, 84
3, 278104, Note_off_c, 1, 75, 64
3, 278163, Note_on_c, 1, 71, 107
3, 278290, Note_on_c, 1, 75, 84
3, 278293, Note_off_c, 1, 71, 64
3, 278389, Note_off_c, 1, 75, 64
3, 278405, Note_on_c, 1, 78, 94
3, 278498, Note_off_c, 1, 78, 64
3, 278520, Note_on_c, 1, 75, 85
3, 278608, Note_off_c, 1, 75, 64
3, 278639, Note_on_c, 1, 74, 92
3, 278728, Note_off_c, 1, 74, 64
3, 278745, Note_on_c, 1, 75, 84
3, 278825, Note_off_c, 1, 75, 64
3, 278889, Note_on_c, 1, 70, 103
3, 279006, Note_on_c, 1, 75, 103
3, 279011, Note_off_c, 1, 70, 64
3, 279066, Note_on_c, 1, 77, 96
3, 279078, Note_off_c, 1, 75, 64
3, 279109, Note_on_c, 1, 78, 98
3, 279124, Note_off_c, 1, 77, 64
3, 279216, Note_off_c, 1, 78, 64
3, 279240, Note_on_c, 1, 75, 85
3, 279320, Note_off_c, 1, 75, 64
3, 279366, Note_on_c, 1, 70, 96
3, 279463, Note_off_c, 1, 70, 64
3, 279475, Note_on_c, 1, 74, 96
3, 279562, Note_off_c, 1, 74, 64
3, 279599, Note_on_c, 1, 75, 84
3, 279679, Note_off_c, 1, 75, 64
3, 279733, Note_on_c, 1, 71, 101
3, 279824, Note_off_c, 1, 71, 64
3, 279849, Note_on_c, 1, 70, 96
3, 279938, Note_off_c, 1, 70, 64
3, 279957, Note_on_c, 1, 68, 81
3, 280052, Note_off_c, 1, 68, 64
3, 280077, Note_on_c, 1, 66, 99
3, 280160, Note_off_c, 1, 66, 64
3, 280190, Note_on_c, 1, 65, 79
3, 280272, Note_off_c, 1, 65, 64
3, 280320, Note_on_c, 1, 63, 94
3, 280423, Note_on_c, 1, 62, 84
3, 280437, Note_off_c, 1, 63, 64
3, 280511, Note_off_c, 1, 62, 64
3, 280543, Note_on_c, 1, 63, 85
3, 280633, Note_off_c, 1, 63, 64
3, 280663, Note_on_c, 1, 65, 94
3, 280735, Note_off_c, 1, 65, 64
3, 280784, Note_on_c, 1, 66, 96
3, 280874, Note_off_c, 1, 66, 64
3, 280898, Note_on_c, 1, 68, 105
3, 280983, Note_off_c, 1, 68, 64
3, 281027, Note_on_c, 1, 70, 116
3, 281134, Note_off_c, 1, 70, 64
3, 281145, Note_on_c, 1, 71, 88
3, 281241, Note_off_c, 1, 71, 64
3, 281261, Note_on_c, 1, 70, 102
3, 281331, Note_off_c, 1, 70, 64
3, 281374, Note_on_c, 1, 68, 110
3, 281439, Note_off_c, 1, 68, 64
3, 281486, Note_on_c, 1, 66, 110
3, 281562, Note_off_c, 1, 66, 64
3, 281605, Note_on_c, 1, 65, 96
3, 281673, Note_off_c, 1, 65, 64
3, 281735, Note_on_c, 1, 66, 96
3, 281900, Note_off_c, 1, 66, 64
3, 281983, Note_on_c, 1, 70, 110
3, 282071, Note_off_c, 1, 70, 64
3, 282225, Note_on_c, 1, 75, 105
3, 282313, Note_off_c, 1, 75, 64
3, 282481, Note_on_c, 1, 74, 106
3, 282582, Note_off_c, 1, 74, 64
3, 282595, Note_on_c, 1, 75, 91
3, 282681, Note_off_c, 1, 75, 64
3, 282710, Note_on_c, 1, 74, 103
3, 282792, Note_off_c, 1, 74, 64
3, 282825, Note_on_c, 1, 72, 99
3, 282908, Note_off_c, 1, 72, 64
3, 282946, Note_on_c, 1, 70, 101
3, 283024, Note_off_c, 1, 70, 64
3, 283057, Note_on_c, 1, 68, 89
3, 283130, Note_off_c, 1, 68, 64
3, 283183, Note_on_c, 1, 66, 91
3, 283332, Note_off_c, 1, 66, 64
3, 283431, Note_on_c, 1, 63, 77
3, 283525, Note_off_c, 1, 63, 64
3, 283679, Note_on_c, 1, 82, 95
3, 283773, Note_off_c, 1, 82, 64
3, 283911, Note_on_c, 1, 82, 97
3, 284012, Note_off_c, 1, 82, 64
3, 284156, Note_on_c, 1, 82, 100
3, 284255, Note_off_c, 1, 82, 64
3, 284393, Note_on_c, 1, 82, 103
3, 284494, Note_off_c, 1, 82, 64
3, 284626, Note_on_c, 1, 82, 105
3, 284740, Note_off_c, 1, 82, 64
3, 284868, Note_on_c, 1, 82, 107
3, 284977, Note_off_c, 1, 82, 64
3, 285106, Note_on_c, 1, 82, 110
3, 285211, Note_off_c, 1, 82, 64
3, 285346, Note_on_c, 1, 82, 112
3, 285449, Note_off_c, 1, 82, 64
3, 285582, Note_on_c, 1, 82, 115
3, 285678, Note_off_c, 1, 82, 64
3, 285833, Note_on_c, 1, 82, 117
3, 285939, Note_off_c, 1, 82, 64
3, 286081, Note_on_c, 1, 78, 121
3, 286193, Note_on_c, 1, 80, 107
3, 286199, Note_off_c, 1, 78, 64
3, 286302, Note_off_c, 1, 80, 64
3, 286308, Note_on_c, 1, 78, 99
3, 286393, Note_off_c, 1, 78, 64
3, 286419, Note_on_c, 1, 77, 111
3, 286506, Note_off_c, 1, 77, 64
3, 286539, Note_on_c, 1, 75, 96
3, 286625, Note_off_c, 1, 75, 64
3, 286654, Note_on_c, 1, 73, 105
3, 286734, Note_off_c, 1, 73, 64
3, 286783, Note_on_c, 1, 72, 111
3, 286900, Note_off_c, 1, 72, 64
3, 286911, Note_on_c, 1, 70, 91
3, 287000, Note_off_c, 1, 70, 64
3, 287025, Note_on_c, 1, 72, 111
3, 287101, Note_off_c, 1, 72, 64
3, 287138, Note_on_c, 1, 73, 94
3, 287226, Note_off_c, 1, 73, 64
3, 287259, Note_on_c, 1, 75, 94
3, 287339, Note_off_c, 1, 75, 64
3, 287373, Note_on_c, 1, 72, 92
3, 287453, Note_off_c, 1, 72, 64
3, 287505, Note_on_c, 1, 77, 111
3, 287620, Note_off_c, 1, 77, 64
3, 287627, Note_on_c, 1, 78, 100
3, 287729, Note_off_c, 1, 78, 64
3, 287740, Note_on_c, 1, 77, 111
3, 287827, Note_off_c, 1, 77, 64
3, 287847, Note_on_c, 1, 75, 92
3, 287936, Note_off_c, 1, 75, 64
3, 287968, Note_on_c, 1, 73, 96
3, 288056, Note_off_c, 1, 73, 64
3, 288084, Note_on_c, 1, 72, 103
3, 288164, Note_off_c, 1, 72, 64
3, 288216, Note_on_c, 1, 70, 106
3, 288340, Note_off_c, 1, 70, 64
3, 288342, Note_on_c, 1, 69, 76
3, 288434, Note_off_c, 1, 69, 64
3, 288466, Note_on_c, 1, 70, 100
3, 288558, Note_off_c, 1, 70, 64
3, 288583, Note_on_c, 1, 72, 106
3, 288666, Note_off_c, 1, 72, 64
3, 288701, Note_on_c, 1, 73, 85
3, 288781, Note_off_c, 1, 73, 64
3, 288813, Note_on_c, 1, 70, 95
3, 288893, Note_off_c, 1, 70, 64
3, 288959, Note_on_c, 1, 75, 113
3, 289071, Note_on_c, 1, 77, 94
3, 289076, Note_off_c, 1, 75, 64
3, 289182, Note_off_c, 1, 77, 64
3, 289189, Note_on_c, 1, 75, 94
3, 289265, Note_off_c, 1, 75, 64
3, 289302, Note_on_c, 1, 73, 105
3, 289388, Note_off_c, 1, 73, 64
3, 289427, Note_on_c, 1, 72, 113
3, 289509, Note_off_c, 1, 72, 64
3, 289527, Note_on_c, 1, 70, 105
3, 289613, Note_off_c, 1, 70, 64
3, 289665, Note_on_c, 1, 69, 101
3, 289785, Note_on_c, 1, 67, 86
3, 289802, Note_off_c, 1, 69, 64
3, 289872, Note_off_c, 1, 67, 64
3, 289902, Note_on_c, 1, 69, 88
3, 289982, Note_off_c, 1, 69, 64
3, 290011, Note_on_c, 1, 70, 97
3, 290105, Note_off_c, 1, 70, 64
3, 290141, Note_on_c, 1, 72, 101
3, 290221, Note_off_c, 1, 72, 64
3, 290262, Note_on_c, 1, 69, 88
3, 290339, Note_off_c, 1, 69, 64
3, 290394, Note_on_c, 1, 70, 72
3, 290550, Note_off_c, 1, 70, 64
3, 290646, Note_on_c, 1, 73, 84
3, 290718, Note_off_c, 1, 73, 64
3, 290870, Note_on_c, 1, 77, 72
3, 290938, Note_off_c, 1, 77, 64
3, 291125, Note_on_c, 1, 69, 69
3, 291274, Note_off_c, 1, 69, 64
3, 291364, Note_on_c, 1, 72, 78
3, 291436, Note_off_c, 1, 72, 64
3, 291593, Note_on_c, 1, 77, 78
3, 291663, Note_off_c, 1, 77, 64
3, 291840, Note_on_c, 1, 70, 84
3, 292014, Note_off_c, 1, 70, 64
3, 292090, Note_on_c, 1, 73, 84
3, 292168, Note_off_c, 1, 73, 64
3, 292311, Note_on_c, 1, 77, 80
3, 292400, Note_off_c, 1, 77, 64
3, 292554, Note_on_c, 1, 65, 92
3, 292702, Note_off_c, 1, 65, 64
3, 292794, Note_on_c, 1, 72, 83
3, 292875, Note_off_c, 1, 72, 64
3, 293035, Note_on_c, 1, 77, 80
3, 293125, Note_off_c, 1, 77, 64
3, 293280, Note_on_c, 1, 70, 125
3, 293398, Note_off_c, 1, 70, 64
3, 293398, Note_on_c, 1, 69, 86
3, 293519, Note_off_c, 1, 69, 64
3, 293520, Note_on_c, 1, 70, 86
3, 293601, Note_off_c, 1, 70, 64
3, 293635, Note_on_c, 1, 72, 111
3, 293711, Note_off_c, 1, 72, 64
3, 293752, Note_on_c, 1, 73, 117
3, 293828, Note_off_c, 1, 73, 64
3, 293858, Note_on_c, 1, 75, 116
3, 293934, Note_off_c, 1, 75, 64
3, 293990, Note_on_c, 1, 77, 125
3, 294105, Note_off_c, 1, 77, 64
3, 294115, Note_on_c, 1, 78, 105
3, 294217, Note_off_c, 1, 78, 64
3, 294224, Note_on_c, 1, 77, 107
3, 294317, Note_off_c, 1, 77, 64
3, 294347, Note_on_c, 1, 75, 117
3, 294427, Note_off_c, 1, 75, 64
3, 294468, Note_on_c, 1, 73, 119
3, 294544, Note_off_c, 1, 73, 64
3, 294581, Note_on_c, 1, 72, 97
3, 294657, Note_off_c, 1, 72, 64
3, 294713, Note_on_c, 1, 70, 88
3, 294898, Note_off_c, 1, 70, 64
3, 294965, Note_on_c, 1, 73, 70
3, 295040, Note_off_c, 1, 73, 64
3, 295213, Note_on_c, 1, 65, 88
3, 295285, Note_off_c, 1, 65, 64
3, 295450, Note_on_c, 1, 72, 105
3, 295610, Note_off_c, 1, 72, 64
3, 295676, Note_on_c, 1, 75, 70
3, 295750, Note_off_c, 1, 75, 64
3, 295924, Note_on_c, 1, 65, 75
3, 295999, Note_off_c, 1, 65, 64
3, 296163, Note_on_c, 1, 73, 67
3, 296285, Note_off_c, 1, 73, 64
3, 296395, Note_on_c, 1, 73, 67
3, 296498, Note_off_c, 1, 73, 64
3, 296633, Note_on_c, 1, 73, 67
3, 296742, Note_off_c, 1, 73, 64
3, 296876, Note_on_c, 1, 73, 68
3, 296988, Note_off_c, 1, 73, 64
3, 297113, Note_on_c, 1, 73, 68
3, 297224, Note_off_c, 1, 73, 64
3, 297349, Note_on_c, 1, 73, 68
3, 297459, Note_off_c, 1, 73, 64
3, 297597, Note_on_c, 1, 72, 74
3, 297711, Note_off_c, 1, 72, 64
3, 297825, Note_on_c, 1, 72, 66
3, 297941, Note_off_c, 1, 72, 64
3, 298057, Note_on_c, 1, 72, 66
3, 298186, Note_off_c, 1, 72, 64
3, 298309, Note_on_c, 1, 72, 70
3, 298425, Note_off_c, 1, 72, 64
3, 298554, Note_on_c, 1, 72, 71
3, 298657, Note_off_c, 1, 72, 64
3, 298790, Note_on_c, 1, 72, 77
3, 298894, Note_off_c, 1, 72, 64
3, 299031, Note_on_c, 1, 70, 88
3, 299144, Note_off_c, 1, 70, 64
3, 299264, Note_on_c, 1, 70, 73
3, 299374, Note_off_c, 1, 70, 64
3, 299506, Note_on_c, 1, 70, 76
3, 299623, Note_off_c, 1, 70, 64
3, 299763, Note_on_c, 1, 70, 80
3, 299867, Note_off_c, 1, 70, 64
3, 299999, Note_on_c, 1, 70, 80
3, 300092, Note_off_c, 1, 70, 64
3, 300233, Note_on_c, 1, 70, 85
3, 300323, Note_off_c, 1, 70, 64
3, 300468, Note_on_c, 1, 69, 105
3, 300581, Note_off_c, 1, 69, 64
3, 300599, Note_on_c, 1, 72, 96
3, 300682, Note_off_c, 1, 72, 64
3, 300714, Note_on_c, 1, 65, 105
3, 300784, Note_off_c, 1, 65, 64
3, 300820, Note_on_c, 1, 72, 97
3, 300891, Note_off_c, 1, 72, 64
3, 300942, Note_on_c, 1, 69, 113
3, 301009, Note_off_c, 1, 69, 64
3, 301055, Note_on_c, 1, 72, 96
3, 301135, Note_off_c, 1, 72, 64
3, 301186, Note_on_c, 1, 70, 120
3, 301274, Note_off_c, 1, 70, 64
3, 301310, Note_on_c, 1, 73, 95
3, 301396, Note_off_c, 1, 73, 64
3, 301423, Note_on_c, 1, 65, 102
3, 301504, Note_off_c, 1, 65, 64
3, 301545, Note_on_c, 1, 73, 95
3, 301626, Note_off_c, 1, 73, 64
3, 301672, Note_on_c, 1, 70, 95
3, 301754, Note_off_c, 1, 70, 64
3, 301786, Note_on_c, 1, 73, 84
3, 301866, Note_off_c, 1, 73, 64
3, 301916, Note_on_c, 1, 72, 121
3, 302035, Note_off_c, 1, 72, 64
3, 302037, Note_on_c, 1, 75, 103
3, 302126, Note_off_c, 1, 75, 64
3, 302155, Note_on_c, 1, 65, 96
3, 302242, Note_off_c, 1, 65, 64
3, 302263, Note_on_c, 1, 75, 100
3, 302340, Note_off_c, 1, 75, 64
3, 302382, Note_on_c, 1, 72, 105
3, 302465, Note_off_c, 1, 72, 64
3, 302493, Note_on_c, 1, 75, 105
3, 302573, Note_off_c, 1, 75, 64
3, 302619, Note_on_c, 1, 73, 116
3, 302727, Note_off_c, 1, 73, 64
3, 302735, Note_on_c, 1, 77, 107
3, 302814, Note_off_c, 1, 77, 64
3, 302848, Note_on_c, 1, 65, 107
3, 302931, Note_off_c, 1, 65, 64
3, 302961, Note_on_c, 1, 77, 85
3, 303043, Note_off_c, 1, 77, 64
3, 303093, Note_on_c, 1, 73, 95
3, 303158, Note_off_c, 1, 73, 64
3, 303203, Note_on_c, 1, 77, 86
3, 303283, Note_off_c, 1, 77, 64
3, 303344, Note_on_c, 1, 75, 96
3, 303459, Note_off_c, 1, 75, 64
3, 303477, Note_on_c, 1, 69, 91
3, 303545, Note_off_c, 1, 69, 64
3, 303596, Note_on_c, 1, 75, 95
3, 303699, Note_off_c, 1, 75, 64
3, 303710, Note_on_c, 1, 69, 96
3, 303784, Note_off_c, 1, 69, 64
3, 303832, Note_on_c, 1, 75, 95
3, 303941, Note_off_c, 1, 75, 64
3, 303949, Note_on_c, 1, 69, 89
3, 304015, Note_off_c, 1, 69, 64
3, 304074, Note_on_c, 1, 73, 95
3, 304188, Note_off_c, 1, 73, 64
3, 304205, Note_on_c, 1, 70, 87
3, 304268, Note_off_c, 1, 70, 64
3, 304322, Note_on_c, 1, 73, 95
3, 304415, Note_off_c, 1, 73, 64
3, 304431, Note_on_c, 1, 70, 95
3, 304513, Note_off_c, 1, 70, 64
3, 304545, Note_on_c, 1, 73, 95
3, 304647, Note_off_c, 1, 73, 64
3, 304666, Note_on_c, 1, 70, 80
3, 304735, Note_off_c, 1, 70, 64
3, 304799, Note_on_c, 1, 72, 111
3, 304918, Note_on_c, 1, 65, 83
3, 304924, Note_off_c, 1, 72, 64
3, 304987, Note_off_c, 1, 65, 64
3, 305050, Note_on_c, 1, 72, 113
3, 305133, Note_off_c, 1, 72, 64
3, 305145, Note_on_c, 1, 65, 89
3, 305212, Note_off_c, 1, 65, 64
3, 305262, Note_on_c, 1, 72, 109
3, 305366, Note_on_c, 1, 65, 85
3, 305377, Note_off_c, 1, 72, 64
3, 305438, Note_off_c, 1, 65, 64
3, 305496, Note_on_c, 1, 70, 95
3, 305584, Note_off_c, 1, 70, 64
3, 305601, Note_on_c, 1, 65, 79
3, 305687, Note_off_c, 1, 65, 64
3, 305736, Note_on_c, 1, 70, 95
3, 305820, Note_off_c, 1, 70, 64
3, 305857, Note_on_c, 1, 65, 76
3, 305939, Note_off_c, 1, 65, 64
3, 305985, Note_on_c, 1, 70, 95
3, 306065, Note_off_c, 1, 70, 64
3, 306088, Note_on_c, 1, 65, 71
3, 306168, Note_off_c, 1, 65, 64
3, 306235, Note_on_c, 1, 69, 69
3, 306374, Note_off_c, 1, 69, 64
3, 306475, Note_on_c, 1, 65, 90
3, 306562, Note_off_c, 1, 65, 64
3, 306702, Note_on_c, 1, 65, 90
3, 306799, Note_off_c, 1, 65, 64
3, 306946, Note_on_c, 1, 65, 90
3, 307055, Note_off_c, 1, 65, 64
3, 307186, Note_on_c, 1, 65, 90
3, 307280, Note_off_c, 1, 65, 64
3, 307430, Note_on_c, 1, 65, 101
3, 307516, Note_off_c, 1, 65, 64
3, 307690, Note_on_c, 1, 77, 121
3, 307785, Note_off_c, 1, 77, 64
3, 307800, Note_on_c, 1, 80, 100
3, 307871, Note_off_c, 1, 80, 64
3, 307905, Note_on_c, 1, 70, 120
3, 307987, Note_off_c, 1, 70, 64
3, 308006, Note_on_c, 1, 80, 95
3, 308092, Note_off_c, 1, 80, 64
3, 308135, Note_on_c, 1, 77, 121
3, 308232, Note_off_c, 1, 77, 64
3, 308241, Note_on_c, 1, 80, 99
3, 308314, Note_off_c, 1, 80, 64
3, 308381, Note_on_c, 1, 77, 121
3, 308482, Note_off_c, 1, 77, 64
3, 308493, Note_on_c, 1, 80, 97
3, 308577, Note_off_c, 1, 80, 64
3, 308615, Note_on_c, 1, 70, 119
3, 308698, Note_off_c, 1, 70, 64
3, 308724, Note_on_c, 1, 80, 101
3, 308808, Note_off_c, 1, 80, 64
3, 308851, Note_on_c, 1, 77, 120
3, 308948, Note_off_c, 1, 77, 64
3, 308957, Note_on_c, 1, 80, 105
3, 309030, Note_off_c, 1, 80, 64
3, 309089, Control_c, 1, 11, 90
3, 309113, Note_on_c, 1, 78, 121
3, 309114, Control_c, 1, 11, 91
3, 309140, Control_c, 1, 11, 93
3, 309166, Control_c, 1, 11, 94
3, 309191, Control_c, 1, 11, 96
3, 309217, Control_c, 1, 11, 98
3, 309242, Control_c, 1, 11, 100
3, 309257, Note_on_c, 1, 80, 112
3, 309258, Note_off_c, 1, 78, 64
3, 309363, Note_off_c, 1, 80, 64
3, 309371, Note_on_c, 1, 82, 121
3, 309451, Note_off_c, 1, 82, 64
3, 309471, Note_on_c, 1, 80, 111
3, 309551, Note_off_c, 1, 80, 64
3, 309579, Note_on_c, 1, 78, 114
3, 309659, Note_off_c, 1, 78, 64
3, 309690, Note_on_c, 1, 77, 108
3, 309770, Note_off_c, 1, 77, 64
3, 309796, Control_c, 1, 11, 80
3, 309819, Note_on_c, 1, 75, 121
3, 309824, Control_c, 1, 11, 83
3, 309852, Control_c, 1, 11, 87
3, 309880, Control_c, 1, 11, 91
3, 309908, Control_c, 1, 11, 95
3, 309935, Control_c, 1, 11, 100
3, 309939, Note_on_c, 1, 77, 105
3, 309958, Note_off_c, 1, 75, 64
3, 310049, Note_off_c, 1, 77, 64
3, 310049, Note_on_c, 1, 78, 121
3, 310139, Note_off_c, 1, 78, 64
3, 310159, Note_on_c, 1, 77, 103
3, 310241, Note_off_c, 1, 77, 64
3, 310282, Note_on_c, 1, 75, 113
3, 310362, Note_off_c, 1, 75, 64
3, 310394, Note_on_c, 1, 73, 113
3, 310474, Note_off_c, 1, 73, 64
3, 310503, Control_c, 1, 11, 84
3, 310526, Note_on_c, 1, 72, 121
3, 310527, Control_c, 1, 11, 86
3, 310552, Control_c, 1, 11, 89
3, 310576, Control_c, 1, 11, 91
3, 310601, Control_c, 1, 11, 94
3, 310625, Control_c, 1, 11, 97
3, 310649, Note_on_c, 1, 73, 90
3, 310649, Control_c, 1, 11, 100
3, 310650, Note_off_c, 1, 72, 64
3, 310770, Note_off_c, 1, 73, 64
3, 310773, Note_on_c, 1, 75, 97
3, 310869, Note_off_c, 1, 75, 64
3, 310906, Note_on_c, 1, 73, 111
3, 310995, Note_off_c, 1, 73, 64
3, 311021, Note_on_c, 1, 72, 119
3, 311101, Note_off_c, 1, 72, 64
3, 311124, Note_on_c, 1, 70, 103
3, 311204, Note_off_c, 1, 70, 64
3, 311224, Control_c, 1, 11, 90
3, 311248, Note_on_c, 1, 69, 119
3, 311250, Control_c, 1, 11, 91
3, 311277, Control_c, 1, 11, 93
3, 311303, Control_c, 1, 11, 95
3, 311330, Control_c, 1, 11, 97
3, 311356, Control_c, 1, 11, 100
3, 311371, Note_off_c, 1, 69, 64
3, 311379, Note_on_c, 1, 70, 90
3, 311493, Note_off_c, 1, 70, 64
3, 311494, Note_on_c, 1, 72, 111
3, 311595, Note_off_c, 1, 72, 64
3, 311617, Note_on_c, 1, 70, 96
3, 311703, Note_off_c, 1, 70, 64
3, 311739, Note_on_c, 1, 69, 119
3, 311819, Note_off_c, 1, 69, 64
3, 311845, Note_on_c, 1, 67, 111
3, 311925, Note_off_c, 1, 67, 64
3, 311983, Note_on_c, 1, 65, 111
3, 312089, Note_off_c, 1, 65, 64
3, 312105, Note_on_c, 1, 66, 94
3, 312203, Note_off_c, 1, 66, 64
3, 312231, Note_on_c, 1, 65, 103
3, 312329, Note_off_c, 1, 65, 64
3, 312344, Note_on_c, 1, 63, 111
3, 312438, Note_off_c, 1, 63, 64
3, 312469, Note_on_c, 1, 61, 110
3, 312549, Note_off_c, 1, 61, 64
3, 312576, Note_on_c, 1, 63, 90
3, 312656, Note_off_c, 1, 63, 64
3, 312702, Note_on_c, 1, 60, 121
3, 312814, Note_on_c, 1, 61, 90
3, 312845, Note_off_c, 1, 60, 64
3, 312921, Note_off_c, 1, 61, 64
3, 312943, Note_on_c, 1, 63, 108
3, 313053, Note_off_c, 1, 63, 64
3, 313057, Note_on_c, 1, 65, 90
3, 313151, Note_off_c, 1, 65, 64
3, 313194, Note_on_c, 1, 67, 99
3, 313273, Note_off_c, 1, 67, 64
3, 313295, Note_on_c, 1, 69, 114
3, 313385, Note_off_c, 1, 69, 64
3, 313428, Note_on_c, 1, 70, 110
3, 313538, Note_off_c, 1, 70, 64
3, 313562, Note_on_c, 1, 66, 114
3, 313653, Note_off_c, 1, 66, 64
3, 313673, Note_on_c, 1, 65, 103
3, 313772, Note_off_c, 1, 65, 64
3, 313799, Note_on_c, 1, 63, 114
3, 313897, Note_off_c, 1, 63, 64
3, 313906, Note_on_c, 1, 61, 118
3, 314007, Note_off_c, 1, 61, 64
3, 314019, Note_on_c, 1, 60, 121
3, 314099, Note_off_c, 1, 60, 64
3, 314138, Note_on_c, 1, 58, 114
3, 314270, Note_off_c, 1, 58, 64
3, 314272, Note_on_c, 1, 60, 105
3, 314361, Note_off_c, 1, 60, 64
3, 314382, Note_on_c, 1, 61, 95
3, 314488, Note_off_c, 1, 61, 64
3, 314494, Note_on_c, 1, 63, 105
3, 314598, Note_off_c, 1, 63, 64
3, 314620, Note_on_c, 1, 65, 109
3, 314716, Note_off_c, 1, 65, 64
3, 314738, Note_on_c, 1, 66, 91
3, 314818, Note_off_c, 1, 66, 64
3, 314850, Note_on_c, 1, 68, 75
3, 314995, Note_off_c, 1, 68, 64
3, 315119, Note_on_c, 1, 68, 67
3, 315230, Note_off_c, 1, 68, 64
3, 315350, Note_on_c, 1, 68, 67
3, 315451, Note_off_c, 1, 68, 64
3, 315595, Note_on_c, 1, 68, 74
3, 315705, Note_off_c, 1, 68, 64
3, 315829, Note_on_c, 1, 68, 67
3, 315927, Note_off_c, 1, 68, 64
3, 316069, Note_on_c, 1, 68, 67
3, 316160, Note_off_c, 1, 68, 64
3, 316321, Note_on_c, 1, 68, 95
3, 316407, Note_off_c, 1, 68, 64
3, 316434, Note_on_c, 1, 71, 106
3, 316517, Note_off_c, 1, 71, 64
3, 316547, Note_on_c, 1, 70, 100
3, 316623, Note_off_c, 1, 70, 64
3, 316661, Note_on_c, 1, 68, 81
3, 316732, Note_off_c, 1, 68, 64
3, 316760, Note_on_c, 1, 66, 104
3, 316832, Note_off_c, 1, 66, 64
3, 316865, Note_on_c, 1, 65, 86
3, 316945, Note_off_c, 1, 65, 64
3, 317012, Note_on_c, 1, 66, 100
3, 317152, Note_off_c, 1, 66, 64
3, 317162, Note_on_c, 1, 65, 86
3, 317254, Note_off_c, 1, 65, 64
3, 317276, Note_on_c, 1, 63, 88
3, 317367, Note_on_c, 1, 65, 97
3, 317368, Note_off_c, 1, 63, 64
3, 317447, Note_off_c, 1, 65, 64
3, 317493, Note_on_c, 1, 66, 86
3, 317592, Note_off_c, 1, 66, 64
3, 317602, Note_on_c, 1, 68, 103
3, 317682, Note_off_c, 1, 68, 64
3, 317730, Note_on_c, 1, 70, 116
3, 317844, Note_off_c, 1, 70, 64
3, 317848, Note_on_c, 1, 71, 91
3, 317966, Note_off_c, 1, 71, 64
3, 317969, Note_on_c, 1, 73, 88
3, 318065, Note_off_c, 1, 73, 64
3, 318084, Note_on_c, 1, 71, 105
3, 318163, Note_off_c, 1, 71, 64
3, 318202, Note_on_c, 1, 70, 116
3, 318275, Note_off_c, 1, 70, 64
3, 318319, Note_on_c, 1, 68, 102
3, 318399, Note_off_c, 1, 68, 64
3, 318462, Note_on_c, 1, 67, 90
3, 318580, Note_on_c, 1, 68, 84
3, 318590, Note_off_c, 1, 67, 64
3, 318691, Note_off_c, 1, 68, 64
3, 318698, Note_on_c, 1, 70, 84
3, 318802, Note_off_c, 1, 70, 64
3, 318823, Note_on_c, 1, 68, 91
3, 318915, Note_off_c, 1, 68, 64
3, 318940, Note_on_c, 1, 67, 94
3, 319028, Note_off_c, 1, 67, 64
3, 319054, Note_on_c, 1, 65, 96
3, 319134, Note_off_c, 1, 65, 64
3, 319178, Note_on_c, 1, 63, 105
3, 319305, Note_off_c, 1, 63, 64
3, 319318, Note_on_c, 1, 67, 105
3, 319402, Note_off_c, 1, 67, 64
3, 319426, Note_on_c, 1, 68, 103
3, 319525, Note_off_c, 1, 68, 64
3, 319536, Note_on_c, 1, 70, 90
3, 319631, Note_off_c, 1, 70, 64
3, 319659, Note_on_c, 1, 71, 99
3, 319755, Note_off_c, 1, 71, 64
3, 319769, Note_on_c, 1, 73, 96
3, 319860, Note_off_c, 1, 73, 64
3, 319906, Note_on_c, 1, 75, 111
3, 320018, Note_off_c, 1, 75, 64
3, 320025, Note_on_c, 1, 73, 84
3, 320120, Note_off_c, 1, 73, 64
3, 320128, Note_on_c, 1, 71, 94
3, 320241, Note_off_c, 1, 71, 64
3, 320247, Note_on_c, 1, 70, 102
3, 320342, Note_off_c, 1, 70, 64
3, 320369, Note_on_c, 1, 71, 103
3, 320449, Note_off_c, 1, 71, 64
3, 320484, Note_on_c, 1, 68, 84
3, 320564, Note_off_c, 1, 68, 64
3, 320625, Note_on_c, 1, 76, 113
3, 320781, Note_off_c, 1, 76, 64
3, 320864, Note_on_c, 1, 76, 102
3, 320979, Note_off_c, 1, 76, 64
3, 321107, Note_on_c, 1, 76, 116
3, 321209, Note_off_c, 1, 76, 64
3, 321345, Note_on_c, 1, 76, 113
3, 321451, Note_off_c, 1, 76, 64
3, 321482, Note_on_c, 1, 66, 113
3, 321577, Note_off_c, 1, 66, 64
3, 321579, Note_on_c, 1, 70, 116
3, 321684, Note_off_c, 1, 70, 64
3, 321695, Note_on_c, 1, 73, 119
3, 321789, Note_off_c, 1, 73, 64
3, 321818, Note_on_c, 1, 70, 116
3, 321915, Note_off_c, 1, 70, 64
3, 321925, Note_on_c, 1, 66, 100
3, 322016, Note_off_c, 1, 66, 64
3, 322060, Note_on_c, 1, 75, 106
3, 322235, Note_off_c, 1, 75, 64
3, 322322, Note_on_c, 1, 75, 121
3, 322437, Note_off_c, 1, 75, 64
3, 322561, Note_on_c, 1, 75, 121
3, 322656, Note_off_c, 1, 75, 64
3, 322792, Note_on_c, 1, 75, 121
3, 322875, Note_off_c, 1, 75, 64
3, 322916, Note_on_c, 1, 64, 96
3, 323009, Note_off_c, 1, 64, 64
3, 323014, Note_on_c, 1, 68, 103
3, 323106, Note_off_c, 1, 68, 64
3, 323129, Note_on_c, 1, 71, 100
3, 323218, Note_off_c, 1, 71, 64
3, 323265, Note_on_c, 1, 68, 92
3, 323356, Note_off_c, 1, 68, 64
3, 323373, Note_on_c, 1, 64, 90
3, 323453, Note_off_c, 1, 64, 64
3, 323504, Note_on_c, 1, 78, 75
3, 323627, Note_off_c, 1, 78, 64
3, 323763, Note_on_c, 1, 78, 67
3, 323851, Note_off_c, 1, 78, 64
3, 323986, Note_on_c, 1, 78, 68
3, 324087, Note_off_c, 1, 78, 64
3, 324227, Note_on_c, 1, 78, 69
3, 324346, Note_off_c, 1, 78, 64
3, 324477, Note_on_c, 1, 78, 69
3, 324567, Note_off_c, 1, 78, 64
3, 324706, Note_on_c, 1, 78, 70
3, 324815, Note_off_c, 1, 78, 64
3, 324949, Note_on_c, 1, 78, 70
3, 325056, Note_off_c, 1, 78, 64
3, 325198, Note_on_c, 1, 78, 71
3, 325293, Note_off_c, 1, 78, 64
3, 325430, Note_on_c, 1, 78, 72
3, 325527, Note_off_c, 1, 78, 64
3, 325665, Note_on_c, 1, 78, 72
3, 325772, Note_off_c, 1, 78, 64
3, 325911, Note_on_c, 1, 78, 72
3, 326017, Note_off_c, 1, 78, 64
3, 326154, Note_on_c, 1, 78, 79
3, 326251, Note_off_c, 1, 78, 64
3, 326388, Note_on_c, 1, 78, 85
3, 326507, Note_off_c, 1, 78, 64
3, 326637, Note_on_c, 1, 78, 94
3, 326740, Note_off_c, 1, 78, 64
3, 326876, Note_on_c, 1, 78, 97
3, 326977, Note_off_c, 1, 78, 64
3, 327109, Note_on_c, 1, 78, 94
3, 327214, Note_off_c, 1, 78, 64
3, 327345, Note_on_c, 1, 78, 100
3, 327441, Note_off_c, 1, 78, 64
3, 327577, Note_on_c, 1, 78, 96
3, 327680, Note_off_c, 1, 78, 64
3, 327819, Note_on_c, 1, 78, 103
3, 327932, Note_off_c, 1, 78, 64
3, 328070, Note_on_c, 1, 78, 110
3, 328167, Note_off_c, 1, 78, 64
3, 328302, Note_on_c, 1, 78, 110
3, 328397, Note_off_c, 1, 78, 64
3, 328557, Note_on_c, 1, 78, 114
3, 328656, Note_off_c, 1, 78, 64
3, 328790, Note_on_c, 1, 78, 110
3, 328876, Note_off_c, 1, 78, 64
3, 329032, Note_on_c, 1, 78, 118
3, 329119, Note_off_c, 1, 78, 64
3, 329280, Note_on_c, 1, 71, 121
3, 329379, Note_off_c, 1, 71, 64
3, 329390, Note_on_c, 1, 74, 109
3, 329476, Note_off_c, 1, 74, 64
3, 329506, Note_on_c, 1, 68, 110
3, 329587, Note_off_c, 1, 68, 64
3, 329618, Note_on_c, 1, 74, 121
3, 329698, Note_off_c, 1, 74, 64
3, 329747, Note_on_c, 1, 71, 119
3, 329864, Note_on_c, 1, 70, 95
3, 329875, Note_off_c, 1, 71, 64
3, 329983, Note_off_c, 1, 70, 64
3, 329984, Note_on_c, 1, 71, 95
3, 330064, Note_off_c, 1, 71, 64
3, 330112, Note_on_c, 1, 74, 120
3, 330179, Note_off_c, 1, 74, 64
3, 330226, Note_on_c, 1, 68, 121
3, 330310, Note_off_c, 1, 68, 64
3, 330343, Note_on_c, 1, 74, 109
3, 330411, Note_off_c, 1, 74, 64
3, 330467, Note_on_c, 1, 71, 121
3, 330552, Note_off_c, 1, 71, 64
3, 330581, Note_on_c, 1, 74, 102
3, 330661, Note_off_c, 1, 74, 64
3, 330740, Note_on_c, 1, 66, 100
3, 330861, Note_off_c, 1, 66, 64
3, 330968, Note_on_c, 1, 70, 82
3, 331045, Note_off_c, 1, 70, 64
3, 331192, Note_on_c, 1, 73, 82
3, 331270, Note_off_c, 1, 73, 64
3, 331441, Note_on_c, 1, 70, 95
3, 331570, Note_off_c, 1, 70, 64
3, 331687, Note_on_c, 1, 73, 82
3, 331758, Note_off_c, 1, 73, 64
3, 331911, Note_on_c, 1, 78, 82
3, 332001, Note_off_c, 1, 78, 64
3, 332160, Note_on_c, 1, 59, 65
3, 332261, Note_off_c, 1, 59, 64
3, 332397, Note_on_c, 1, 59, 68
3, 332527, Note_off_c, 1, 59, 64
3, 332644, Note_on_c, 1, 59, 69
3, 332762, Note_off_c, 1, 59, 64
3, 332882, Note_on_c, 1, 59, 67
3, 333001, Note_off_c, 1, 59, 64
3, 333123, Note_on_c, 1, 59, 71
3, 333227, Note_off_c, 1, 59, 64
3, 333359, Note_on_c, 1, 59, 63
3, 333473, Note_off_c, 1, 59, 64
3, 333600, Note_on_c, 1, 59, 71
3, 333735, Note_off_c, 1, 59, 64
3, 333839, Note_on_c, 1, 59, 72
3, 333956, Note_off_c, 1, 59, 64
3, 334079, Note_on_c, 1, 59, 76
3, 334202, Note_off_c, 1, 59, 64
3, 334317, Note_on_c, 1, 59, 71
3, 334432, Note_off_c, 1, 59, 64
3, 334553, Note_on_c, 1, 59, 77
3, 334660, Note_off_c, 1, 59, 64
3, 334790, Note_on_c, 1, 59, 75
3, 334921, Note_off_c, 1, 59, 64
3, 335031, Note_on_c, 1, 59, 84
3, 335144, Note_off_c, 1, 59, 64
3, 335275, Note_on_c, 1, 59, 84
3, 335385, Note_off_c, 1, 59, 64
3, 335517, Note_on_c, 1, 59, 84
3, 335621, Note_off_c, 1, 59, 64
3, 335760, Note_on_c, 1, 59, 84
3, 335878, Note_off_c, 1, 59, 64
3, 336002, Note_on_c, 1, 59, 84
3, 336108, Note_off_c, 1, 59, 64
3, 336239, Note_on_c, 1, 59, 84
3, 336359, Note_off_c, 1, 59, 64
3, 336481, Note_on_c, 1, 63, 84
3, 336644, Note_off_c, 1, 63, 64
3, 336717, Note_on_c, 1, 66, 84
3, 336824, Note_off_c, 1, 66, 64
3, 336954, Note_on_c, 1, 61, 84
3, 337060, Note_off_c, 1, 61, 64
3, 337199, Note_on_c, 1, 63, 84
3, 337363, Note_off_c, 1, 63, 64
3, 337444, Note_on_c, 1, 59, 84
3, 337547, Note_off_c, 1, 59, 64
3, 337683, Note_on_c, 1, 54, 68
3, 337789, Note_off_c, 1, 54, 64
3, 337921, Note_on_c, 1, 59, 84
3, 338073, Note_off_c, 1, 59, 64
3, 338160, Note_on_c, 1, 63, 84
3, 338250, Note_off_c, 1, 63, 64
3, 338399, Note_on_c, 1, 66, 84
3, 338505, Note_off_c, 1, 66, 64
3, 338648, Note_on_c, 1, 58, 84
3, 338801, Note_off_c, 1, 58, 64
3, 338884, Note_on_c, 1, 61, 84
3, 338985, Note_off_c, 1, 61, 64
3, 339124, Note_on_c, 1, 66, 84
3, 339208, Note_off_c, 1, 66, 64
3, 339364, Note_on_c, 1, 59, 84
3, 339536, Note_off_c, 1, 59, 64
3, 339604, Note_on_c, 1, 63, 84
3, 339700, Note_off_c, 1, 63, 64
3, 339837, Note_on_c, 1, 66, 84
3, 339934, Note_off_c, 1, 66, 64
3, 340083, Note_on_c, 1, 54, 61
3, 340254, Note_off_c, 1, 54, 64
3, 340321, Note_on_c, 1, 61, 84
3, 340428, Note_off_c, 1, 61, 64
3, 340558, Note_on_c, 1, 66, 84
3, 340648, Note_off_c, 1, 66, 64
3, 340806, Note_on_c, 1, 59, 125
3, 340923, Note_on_c, 1, 58, 100
3, 340936, Note_off_c, 1, 59, 64
3, 341037, Note_on_c, 1, 59, 97
3, 341043, Note_off_c, 1, 58, 64
3, 341124, Note_off_c, 1, 59, 64
3, 341158, Note_on_c, 1, 61, 109
3, 341234, Note_off_c, 1, 61, 64
3, 341274, Note_on_c, 1, 63, 125
3, 341351, Note_off_c, 1, 63, 64
3, 341383, Note_on_c, 1, 64, 110
3, 341455, Note_off_c, 1, 64, 64
3, 341518, Note_on_c, 1, 66, 125
3, 341636, Note_on_c, 1, 68, 97
3, 341643, Note_off_c, 1, 66, 64
3, 341738, Note_off_c, 1, 68, 64
3, 341758, Note_on_c, 1, 66, 107
3, 341844, Note_off_c, 1, 66, 64
3, 341876, Note_on_c, 1, 64, 125
3, 341957, Note_off_c, 1, 64, 64
3, 341995, Note_on_c, 1, 63, 112
3, 342077, Note_off_c, 1, 63, 64
3, 342102, Note_on_c, 1, 61, 93
3, 342174, Note_off_c, 1, 61, 64
3, 342237, Note_on_c, 1, 59, 95
3, 342407, Note_off_c, 1, 59, 64
3, 342479, Note_on_c, 1, 63, 119
3, 342569, Note_off_c, 1, 63, 64
3, 342717, Note_on_c, 1, 66, 110
3, 342809, Note_off_c, 1, 66, 64
3, 342958, Note_on_c, 1, 73, 121
3, 343122, Note_off_c, 1, 73, 64
3, 343204, Note_on_c, 1, 76, 106
3, 343284, Note_off_c, 1, 76, 64
3, 343438, Note_on_c, 1, 66, 93
3, 343551, Note_off_c, 1, 66, 64
3, 343679, Note_on_c, 1, 75, 73
3, 343806, Note_off_c, 1, 75, 64
3, 343924, Note_on_c, 1, 75, 55
3, 344023, Note_off_c, 1, 75, 64
3, 344163, Note_on_c, 1, 75, 55
3, 344257, Note_off_c, 1, 75, 64
3, 344403, Note_on_c, 1, 75, 55
3, 344495, Note_off_c, 1, 75, 64
3, 344643, Note_on_c, 1, 75, 59
3, 344729, Note_off_c, 1, 75, 64
3, 344881, Note_on_c, 1, 75, 59
3, 344969, Note_off_c, 1, 75, 64
3, 345115, Note_on_c, 1, 73, 68
3, 345230, Note_off_c, 1, 73, 64
3, 345359, Note_on_c, 1, 73, 62
3, 345445, Note_off_c, 1, 73, 64
3, 345596, Note_on_c, 1, 73, 62
3, 345682, Note_off_c, 1, 73, 64
3, 345837, Note_on_c, 1, 73, 68
3, 345945, Note_off_c, 1, 73, 64
3, 346077, Note_on_c, 1, 73, 62
3, 346170, Note_off_c, 1, 73, 64
3, 346315, Note_on_c, 1, 73, 62
3, 346410, Note_off_c, 1, 73, 64
3, 346556, Note_on_c, 1, 71, 71
3, 346665, Note_off_c, 1, 71, 64
3, 346794, Note_on_c, 1, 71, 66
3, 346901, Note_off_c, 1, 71, 64
3, 347039, Note_on_c, 1, 71, 66
3, 347132, Note_off_c, 1, 71, 64
3, 347276, Note_on_c, 1, 71, 66
3, 347379, Note_off_c, 1, 71, 64
3, 347516, Note_on_c, 1, 71, 66
3, 347602, Note_off_c, 1, 71, 64
3, 347758, Note_on_c, 1, 71, 77
3, 347842, Note_off_c, 1, 71, 64
3, 348000, Note_on_c, 1, 70, 102
3, 348118, Note_on_c, 1, 68, 96
3, 348120, Note_off_c, 1, 70, 64
3, 348215, Note_off_c, 1, 68, 64
3, 348236, Note_on_c, 1, 66, 92
3, 348332, Note_off_c, 1, 66, 64
3, 348353, Note_on_c, 1, 68, 96
3, 348428, Note_off_c, 1, 68, 64
3, 348469, Note_on_c, 1, 70, 111
3, 348549, Note_off_c, 1, 70, 64
3, 348586, Note_on_c, 1, 71, 86
3, 348666, Note_off_c, 1, 71, 64
3, 348708, Note_on_c, 1, 73, 111
3, 348821, Note_off_c, 1, 73, 64
3, 348830, Note_on_c, 1, 75, 97
3, 348917, Note_off_c, 1, 75, 64
3, 348949, Note_on_c, 1, 73, 101
3, 349031, Note_off_c, 1, 73, 64
3, 349064, Note_on_c, 1, 71, 93
3, 349144, Note_off_c, 1, 71, 64
3, 349187, Note_on_c, 1, 70, 109
3, 349277, Note_off_c, 1, 70, 64
3, 349304, Note_on_c, 1, 68, 100
3, 349384, Note_off_c, 1, 68, 64
3, 349431, Note_on_c, 1, 70, 91
3, 349616, Note_off_c, 1, 70, 64
3, 349673, Note_on_c, 1, 73, 95
3, 349775, Note_off_c, 1, 73, 64
3, 349910, Note_on_c, 1, 78, 100
3, 350002, Note_off_c, 1, 78, 64
3, 350154, Note_on_c, 1, 77, 116
3, 350272, Note_off_c, 1, 77, 64
3, 350273, Note_on_c, 1, 78, 91
3, 350392, Note_on_c, 1, 77, 111
3, 350399, Note_off_c, 1, 78, 64
3, 350477, Note_off_c, 1, 77, 64
3, 350511, Note_on_c, 1, 75, 102
3, 350592, Note_off_c, 1, 75, 64
3, 350628, Note_on_c, 1, 73, 113
3, 350712, Note_off_c, 1, 73, 64
3, 350735, Note_on_c, 1, 71, 96
3, 350815, Note_off_c, 1, 71, 64
3, 350873, Note_on_c, 1, 70, 96
3, 351037, Note_off_c, 1, 70, 64
3, 351115, Note_on_c, 1, 66, 75
3, 351211, Note_off_c, 1, 66, 64
3, 351351, Note_on_c, 1, 73, 78
3, 351445, Note_off_c, 1, 73, 64
3, 351597, Note_on_c, 1, 73, 81
3, 351698, Note_off_c, 1, 73, 64
3, 351841, Note_on_c, 1, 73, 84
3, 351935, Note_off_c, 1, 73, 64
3, 352079, Note_on_c, 1, 73, 87
3, 352167, Note_off_c, 1, 73, 64
3, 352316, Note_on_c, 1, 73, 90
3, 352407, Note_off_c, 1, 73, 64
3, 352556, Note_on_c, 1, 73, 92
3, 352638, Note_off_c, 1, 73, 64
3, 352793, Note_on_c, 1, 73, 95
3, 352877, Note_off_c, 1, 73, 64
3, 353035, Note_on_c, 1, 73, 97
3, 353135, Note_off_c, 1, 73, 64
3, 353273, Note_on_c, 1, 73, 101
3, 353366, Note_off_c, 1, 73, 64
3, 353513, Note_on_c, 1, 73, 104
3, 353612, Note_off_c, 1, 73, 64
3, 353760, Note_on_c, 1, 82, 121
3, 353874, Note_off_c, 1, 82, 64
3, 353877, Note_on_c, 1, 83, 106
3, 353973, Note_off_c, 1, 83, 64
3, 353991, Note_on_c, 1, 82, 106
3, 354075, Note_off_c, 1, 82, 64
3, 354110, Note_on_c, 1, 80, 106
3, 354188, Note_off_c, 1, 80, 64
3, 354231, Note_on_c, 1, 78, 106
3, 354303, Note_off_c, 1, 78, 64
3, 354339, Note_on_c, 1, 77, 111
3, 354407, Note_off_c, 1, 77, 64
3, 354474, Note_on_c, 1, 75, 122
3, 354590, Note_on_c, 1, 73, 96
3, 354592, Note_off_c, 1, 75, 64
3, 354696, Note_off_c, 1, 73, 64
3, 354708, Note_on_c, 1, 75, 96
3, 354791, Note_off_c, 1, 75, 64
3, 354829, Note_on_c, 1, 77, 116
3, 354912, Note_off_c, 1, 77, 64
3, 354949, Note_on_c, 1, 78, 90
3, 355021, Note_off_c, 1, 78, 64
3, 355062, Note_on_c, 1, 75, 96
3, 355134, Note_off_c, 1, 75, 64
3, 355199, Note_on_c, 1, 80, 116
3, 355318, Note_on_c, 1, 82, 96
3, 355326, Note_off_c, 1, 80, 64
3, 355424, Note_off_c, 1, 82, 64
3, 355435, Note_on_c, 1, 80, 102
3, 355524, Note_off_c, 1, 80, 64
3, 355557, Note_on_c, 1, 78, 110
3, 355640, Note_off_c, 1, 78, 64
3, 355675, Note_on_c, 1, 77, 116
3, 355755, Note_off_c, 1, 77, 64
3, 355782, Note_on_c, 1, 75, 100
3, 355854, Note_off_c, 1, 75, 64
3, 355919, Note_on_c, 1, 73, 113
3, 356030, Note_off_c, 1, 73, 64
3, 356039, Note_on_c, 1, 71, 94
3, 356131, Note_off_c, 1, 71, 64
3, 356157, Note_on_c, 1, 73, 100
3, 356249, Note_off_c, 1, 73, 64
3, 356279, Note_on_c, 1, 75, 116
3, 356358, Note_off_c, 1, 75, 64
3, 356397, Note_on_c, 1, 77, 106
3, 356469, Note_off_c, 1, 77, 64
3, 356501, Note_on_c, 1, 73, 96
3, 356573, Note_off_c, 1, 73, 64
3, 356639, Note_on_c, 1, 78, 116
3, 356757, Note_on_c, 1, 80, 90
3, 356765, Note_off_c, 1, 78, 64
3, 356870, Note_off_c, 1, 80, 64
3, 356878, Note_on_c, 1, 78, 92
3, 356970, Note_off_c, 1, 78, 64
3, 356995, Note_on_c, 1, 77, 103
3, 357073, Note_off_c, 1, 77, 64
3, 357114, Note_on_c, 1, 75, 95
3, 357197, Note_off_c, 1, 75, 64
3, 357220, Note_on_c, 1, 73, 100
3, 357296, Note_off_c, 1, 73, 64
3, 357353, Note_on_c, 1, 71, 116
3, 357473, Note_on_c, 1, 70, 90
3, 357484, Note_off_c, 1, 71, 64
3, 357593, Note_on_c, 1, 71, 94
3, 357608, Note_off_c, 1, 70, 64
3, 357685, Note_off_c, 1, 71, 64
3, 357711, Note_on_c, 1, 73, 91
3, 357806, Note_off_c, 1, 73, 64
3, 357833, Note_on_c, 1, 75, 85
3, 357913, Note_off_c, 1, 75, 64
3, 357940, Note_on_c, 1, 70, 95
3, 358020, Note_off_c, 1, 70, 64
3, 358080, Note_on_c, 1, 71, 84
3, 358267, Note_off_c, 1, 71, 64
3, 358322, Note_on_c, 1, 68, 84
3, 358414, Note_off_c, 1, 68, 64
3, 358555, Note_on_c, 1, 65, 71
3, 358663, Note_off_c, 1, 65, 64
3, 358793, Note_on_c, 1, 73, 84
3, 358968, Note_off_c, 1, 73, 64
3, 359033, Note_on_c, 1, 70, 84
3, 359139, Note_off_c, 1, 70, 64
3, 359275, Note_on_c, 1, 66, 84
3, 359380, Note_off_c, 1, 66, 64
3, 359516, Note_on_c, 1, 71, 84
3, 359709, Note_off_c, 1, 71, 64
3, 359762, Note_on_c, 1, 68, 84
3, 359840, Note_off_c, 1, 68, 64
3, 359989, Note_on_c, 1, 65, 66
3, 360095, Note_off_c, 1, 65, 64
3, 360235, Note_on_c, 1, 70, 84
3, 360427, Note_off_c, 1, 70, 64
3, 360477, Note_on_c, 1, 66, 84
3, 360588, Note_off_c, 1, 66, 64
3, 360719, Note_on_c, 1, 61, 84
3, 360831, Note_off_c, 1, 61, 64
3, 360959, Note_on_c, 1, 68, 84
3, 361125, Note_off_c, 1, 68, 64
3, 361200, Note_on_c, 1, 65, 71
3, 361323, Note_off_c, 1, 65, 64
3, 361436, Note_on_c, 1, 61, 84
3, 361555, Note_off_c, 1, 61, 64
3, 361674, Note_on_c, 1, 70, 84
3, 361875, Note_off_c, 1, 70, 64
3, 361916, Note_on_c, 1, 66, 84
3, 362031, Note_off_c, 1, 66, 64
3, 362153, Note_on_c, 1, 61, 84
3, 362230, Note_off_c, 1, 61, 64
3, 362380, Note_on_c, 1, 77, 121
3, 362464, Note_off_c, 1, 77, 64
3, 362505, Note_on_c, 1, 80, 90
3, 362584, Note_off_c, 1, 80, 64
3, 362633, Note_on_c, 1, 73, 102
3, 362715, Note_off_c, 1, 73, 64
3, 362743, Note_on_c, 1, 80, 90
3, 362814, Note_off_c, 1, 80, 64
3, 362874, Note_on_c, 1, 77, 106
3, 362957, Note_off_c, 1, 77, 64
3, 362981, Note_on_c, 1, 80, 100
3, 363052, Note_off_c, 1, 80, 64
3, 363115, Note_on_c, 1, 78, 119
3, 363212, Note_off_c, 1, 78, 64
3, 363227, Note_on_c, 1, 82, 91
3, 363312, Note_off_c, 1, 82, 64
3, 363355, Note_on_c, 1, 73, 110
3, 363453, Note_off_c, 1, 73, 64
3, 363466, Note_on_c, 1, 82, 105
3, 363541, Note_off_c, 1, 82, 64
3, 363594, Note_on_c, 1, 78, 113
3, 363668, Note_off_c, 1, 78, 64
3, 363702, Note_on_c, 1, 82, 100
3, 363778, Note_off_c, 1, 82, 64
3, 363840, Note_on_c, 1, 77, 94
3, 363991, Note_off_c, 1, 77, 64
3, 364075, Note_on_c, 1, 61, 86
3, 364174, Note_off_c, 1, 61, 64
3, 364313, Note_on_c, 1, 61, 86
3, 364411, Note_off_c, 1, 61, 64
3, 364555, Note_on_c, 1, 61, 94
3, 364651, Note_off_c, 1, 61, 64
3, 364796, Note_on_c, 1, 61, 86
3, 364884, Note_off_c, 1, 61, 64
3, 365032, Note_on_c, 1, 61, 97
3, 365119, Note_off_c, 1, 61, 64
3, 365281, Note_on_c, 1, 73, 116
3, 365390, Note_on_c, 1, 76, 100
3, 365399, Note_off_c, 1, 73, 64
3, 365465, Note_off_c, 1, 76, 64
3, 365518, Note_on_c, 1, 66, 108
3, 365614, Note_off_c, 1, 66, 64
3, 365625, Note_on_c, 1, 76, 91
3, 365702, Note_off_c, 1, 76, 64
3, 365758, Note_on_c, 1, 73, 114
3, 365838, Note_off_c, 1, 73, 64
3, 365868, Note_on_c, 1, 76, 97
3, 365939, Note_off_c, 1, 76, 64
3, 365998, Note_on_c, 1, 73, 116
3, 366092, Note_off_c, 1, 73, 64
3, 366109, Note_on_c, 1, 76, 90
3, 366190, Note_off_c, 1, 76, 64
3, 366237, Note_on_c, 1, 66, 91
3, 366337, Note_off_c, 1, 66, 64
3, 366346, Note_on_c, 1, 76, 108
3, 366420, Note_off_c, 1, 76, 64
3, 366479, Note_on_c, 1, 73, 101
3, 366556, Note_off_c, 1, 73, 64
3, 366589, Note_on_c, 1, 76, 105
3, 366654, Note_off_c, 1, 76, 64
3, 366678, Control_c, 1, 11, 84
3, 366702, Control_c, 1, 11, 86
3, 366719, Note_on_c, 1, 75, 121
3, 366727, Control_c, 1, 11, 89
3, 366751, Control_c, 1, 11, 91
3, 366776, Control_c, 1, 11, 94
3, 366800, Control_c, 1, 11, 97
3, 366824, Control_c, 1, 11, 100
3, 366839, Note_on_c, 1, 76, 102
3, 366840, Note_off_c, 1, 75, 64
3, 366950, Note_off_c, 1, 76, 64
3, 366954, Note_on_c, 1, 78, 102
3, 367037, Note_off_c, 1, 78, 64
3, 367073, Note_on_c, 1, 76, 96
3, 367153, Note_off_c, 1, 76, 64
3, 367193, Note_on_c, 1, 75, 122
3, 367265, Note_off_c, 1, 75, 64
3, 367299, Note_on_c, 1, 73, 110
3, 367371, Note_off_c, 1, 73, 64
3, 367399, Control_c, 1, 11, 90
3, 367425, Note_on_c, 1, 71, 121
3, 367427, Control_c, 1, 11, 91
3, 367455, Control_c, 1, 11, 93
3, 367483, Control_c, 1, 11, 95
3, 367511, Control_c, 1, 11, 97
3, 367538, Control_c, 1, 11, 100
3, 367550, Note_off_c, 1, 71, 64
3, 367553, Note_on_c, 1, 73, 90
3, 367656, Note_off_c, 1, 73, 64
3, 367670, Note_on_c, 1, 75, 102
3, 367762, Note_off_c, 1, 75, 64
3, 367789, Note_on_c, 1, 73, 94
3, 367864, Note_off_c, 1, 73, 64
3, 367909, Note_on_c, 1, 71, 122
3, 367985, Note_off_c, 1, 71, 64
3, 368015, Note_on_c, 1, 70, 106
3, 368091, Note_off_c, 1, 70, 64
3, 368153, Note_on_c, 1, 68, 121
3, 368271, Note_on_c, 1, 70, 88
3, 368279, Note_off_c, 1, 68, 64
3, 368371, Note_off_c, 1, 70, 64
3, 368387, Note_on_c, 1, 71, 95
3, 368482, Note_off_c, 1, 71, 64
3, 368508, Note_on_c, 1, 70, 90
3, 368587, Note_off_c, 1, 70, 64
3, 368629, Note_on_c, 1, 68, 105
3, 368705, Note_off_c, 1, 68, 64
3, 368739, Note_on_c, 1, 66, 96
3, 368807, Note_off_c, 1, 66, 64
3, 368876, Note_on_c, 1, 65, 116
3, 368994, Note_on_c, 1, 66, 84
3, 369005, Note_off_c, 1, 65, 64
3, 369110, Note_off_c, 1, 66, 64
3, 369113, Note_on_c, 1, 68, 88
3, 369206, Note_off_c, 1, 68, 64
3, 369234, Note_on_c, 1, 66, 110
3, 369311, Note_off_c, 1, 66, 64
3, 369354, Note_on_c, 1, 65, 121
3, 369430, Note_off_c, 1, 65, 64
3, 369461, Note_on_c, 1, 63, 108
3, 369537, Note_off_c, 1, 63, 64
3, 369597, Note_on_c, 1, 61, 119
3, 369705, Note_off_c, 1, 61, 64
3, 369711, Note_on_c, 1, 63, 84
3, 369806, Note_off_c, 1, 63, 64
3, 369833, Note_on_c, 1, 61, 106
3, 369920, Note_off_c, 1, 61, 64
3, 369951, Note_on_c, 1, 59, 92
3, 370036, Note_off_c, 1, 59, 64
3, 370071, Note_on_c, 1, 58, 121
3, 370143, Note_off_c, 1, 58, 64
3, 370182, Note_on_c, 1, 59, 103
3, 370254, Note_off_c, 1, 59, 64
3, 370316, Note_on_c, 1, 56, 100
3, 370436, Note_on_c, 1, 58, 95
3, 370457, Note_off_c, 1, 56, 64
3, 370553, Note_on_c, 1, 59, 113
3, 370556, Note_off_c, 1, 58, 64
3, 370634, Note_off_c, 1, 59, 64
3, 370671, Note_on_c, 1, 61, 96
3, 370769, Note_off_c, 1, 61, 64
3, 370787, Note_on_c, 1, 63, 110
3, 370873, Note_off_c, 1, 63, 64
3, 370896, Note_on_c, 1, 65, 111
3, 370975, Note_off_c, 1, 65, 64
3, 371035, Note_on_c, 1, 66, 113
3, 371150, Note_on_c, 1, 70, 96
3, 371160, Note_off_c, 1, 66, 64
3, 371259, Note_off_c, 1, 70, 64
3, 371269, Note_on_c, 1, 73, 102
3, 371363, Note_off_c, 1, 73, 64
3, 371387, Note_on_c, 1, 66, 110
3, 371497, Note_off_c, 1, 66, 64
3, 371505, Note_on_c, 1, 70, 119
3, 371606, Note_off_c, 1, 70, 64
3, 371620, Note_on_c, 1, 73, 113
3, 371713, Note_off_c, 1, 73, 64
3, 371724, Note_on_c, 1, 78, 71
3, 371858, Note_off_c, 1, 78, 64
3, 371862, Note_on_c, 1, 73, 101
3, 371948, Note_off_c, 1, 73, 64
3, 371979, Note_on_c, 1, 70, 110
3, 372061, Note_off_c, 1, 70, 64
3, 372096, Note_on_c, 1, 66, 113
3, 372167, Note_off_c, 1, 66, 64
3, 372226, Note_on_c, 1, 54, 92
3, 372299, Control_c, 1, 11, 100
3, 372324, Control_c, 1, 11, 95
3, 372330, Note_off_c, 1, 54, 64
3, 372349, Control_c, 1, 11, 91
3, 372374, Control_c, 1, 11, 87
3, 372399, Control_c, 1, 11, 82
3, 372424, Control_c, 1, 11, 78
3, 372449, Control_c, 1, 11, 74
3, 372473, Control_c, 1, 11, 70
3, 378240, End_track
4, 0, Start_track
4, 0, Instrument_name_t, "SC88-A"
4, 0, Title_t, "Violino.2"
4, 1440, Control_c, 2, 101, 0
4, 1450, Control_c, 2, 100, 0
4, 1450, Control_c, 2, 6, 0
4, 1470, Control_c, 2, 0, 0
4, 1480, Control_c, 2, 32, 1
4, 1490, Program_c, 2, 40
4, 1500, Control_c, 2, 10, 39
4, 1510, Control_c, 2, 11, 100
4, 1520, Control_c, 2, 7, 120
4, 1530, Control_c, 2, 93, 0
4, 1540, Control_c, 2, 91, 0
4, 1550, Pitch_bend_c, 2, 8192
4, 1560, Control_c, 2, 1, 0
4, 1570, Control_c, 2, 64, 0
4, 1580, Control_c, 2, 91, 64
4, 1590, Control_c, 2, 99, 1
4, 1600, Control_c, 2, 98, 32
4, 1610, Control_c, 2, 6, 63
4, 1620, Control_c, 2, 98, 33
4, 1630, Control_c, 2, 6, 68
4, 1640, Control_c, 2, 98, 99
4, 1650, Control_c, 2, 6, 64
4, 1660, Control_c, 2, 98, 100
4, 1670, Control_c, 2, 6, 64
4, 1680, Control_c, 2, 98, 102
4, 1690, Control_c, 2, 6, 64
4, 92466, Control_c, 2, 11, 52
4, 92521, Control_c, 2, 11, 53
4, 92572, Note_on_c, 2, 65, 56
4, 92577, Control_c, 2, 11, 57
4, 92633, Control_c, 2, 11, 61
4, 92688, Control_c, 2, 11, 63
4, 92744, Control_c, 2, 11, 67
4, 92799, Control_c, 2, 11, 71
4, 92855, Control_c, 2, 11, 74
4, 92910, Control_c, 2, 11, 78
4, 92966, Control_c, 2, 11, 82
4, 93021, Control_c, 2, 11, 85
4, 93077, Control_c, 2, 11, 89
4, 93132, Control_c, 2, 11, 93
4, 93188, Control_c, 2, 11, 96
4, 93243, Control_c, 2, 11, 100
4, 93299, Control_c, 2, 11, 104
4, 93354, Control_c, 2, 11, 108
4, 93410, Control_c, 2, 11, 111
4, 93466, Control_c, 2, 11, 114
4, 93521, Control_c, 2, 11, 115
4, 93704, Control_c, 2, 11, 110
4, 93746, Control_c, 2, 11, 109
4, 93788, Control_c, 2, 11, 108
4, 93830, Control_c, 2, 11, 107
4, 93872, Control_c, 2, 11, 106
4, 93914, Control_c, 2, 11, 105
4, 93956, Control_c, 2, 11, 104
4, 93998, Control_c, 2, 11, 103
4, 94040, Control_c, 2, 11, 102
4, 94082, Control_c, 2, 11, 101
4, 94124, Control_c, 2, 11, 100
4, 94166, Control_c, 2, 11, 99
4, 94208, Control_c, 2, 11, 98
4, 94250, Control_c, 2, 11, 97
4, 94292, Control_c, 2, 11, 96
4, 94334, Control_c, 2, 11, 95
4, 94376, Control_c, 2, 11, 94
4, 94418, Control_c, 2, 11, 93
4, 94460, Control_c, 2, 11, 92
4, 94502, Control_c, 2, 11, 91
4, 94544, Control_c, 2, 11, 90
4, 94586, Control_c, 2, 11, 89
4, 94628, Control_c, 2, 11, 88
4, 94670, Control_c, 2, 11, 87
4, 94712, Control_c, 2, 11, 86
4, 94754, Control_c, 2, 11, 85
4, 94795, Control_c, 2, 11, 84
4, 94796, Control_c, 2, 11, 84
4, 94814, Control_c, 2, 11, 83
4, 94833, Control_c, 2, 11, 82
4, 94852, Control_c, 2, 11, 81
4, 94870, Control_c, 2, 11, 80
4, 94889, Control_c, 2, 11, 79
4, 94908, Control_c, 2, 11, 78
4, 94927, Control_c, 2, 11, 77
4, 94945, Control_c, 2, 11, 76
4, 94964, Control_c, 2, 11, 75
4, 94983, Control_c, 2, 11, 74
4, 95002, Control_c, 2, 11, 73
4, 95020, Control_c, 2, 11, 72
4, 95039, Control_c, 2, 11, 71
4, 95058, Control_c, 2, 11, 70
4, 95077, Control_c, 2, 11, 69
4, 95095, Control_c, 2, 11, 68
4, 95114, Control_c, 2, 11, 67
4, 95133, Control_c, 2, 11, 66
4, 95151, Control_c, 2, 11, 65
4, 95170, Control_c, 2, 11, 64
4, 95189, Control_c, 2, 11, 63
4, 95208, Control_c, 2, 11, 62
4, 95226, Control_c, 2, 11, 61
4, 95245, Control_c, 2, 11, 60
4, 95264, Control_c, 2, 11, 59
4, 95283, Control_c, 2, 11, 58
4, 95301, Control_c, 2, 11, 57
4, 95320, Control_c, 2, 11, 56
4, 95339, Control_c, 2, 11, 55
4, 95358, Control_c, 2, 11, 54
4, 95376, Control_c, 2, 11, 53
4, 95395, Control_c, 2, 11, 52
4, 95414, Control_c, 2, 11, 51
4, 95432, Control_c, 2, 11, 50
4, 95452, Note_off_c, 2, 65, 64
4, 95499, Control_c, 2, 11, 100
4, 97445, Note_on_c, 2, 66, 115
4, 97562, Note_on_c, 2, 65, 82
4, 97579, Note_off_c, 2, 66, 64
4, 97673, Note_off_c, 2, 65, 64
4, 97674, Note_on_c, 2, 66, 90
4, 97763, Note_off_c, 2, 66, 64
4, 97791, Note_on_c, 2, 68, 106
4, 97876, Note_off_c, 2, 68, 64
4, 97912, Note_on_c, 2, 70, 109
4, 98007, Note_off_c, 2, 70, 64
4, 98027, Note_on_c, 2, 71, 86
4, 98101, Note_off_c, 2, 71, 64
4, 98153, Note_on_c, 2, 73, 106
4, 98267, Note_on_c, 2, 75, 81
4, 98270, Note_off_c, 2, 73, 64
4, 98374, Note_off_c, 2, 75, 64
4, 98381, Note_on_c, 2, 73, 92
4, 98467, Note_off_c, 2, 73, 64
4, 98495, Note_on_c, 2, 71, 97
4, 98581, Note_off_c, 2, 71, 64
4, 98628, Note_on_c, 2, 70, 105
4, 98720, Note_off_c, 2, 70, 64
4, 98733, Note_on_c, 2, 68, 86
4, 98813, Note_off_c, 2, 68, 64
4, 98870, Note_on_c, 2, 70, 67
4, 99043, Note_off_c, 2, 70, 64
4, 99125, Note_on_c, 2, 73, 84
4, 99218, Note_off_c, 2, 73, 64
4, 99365, Note_on_c, 2, 78, 82
4, 99458, Note_off_c, 2, 78, 64
4, 99598, Note_on_c, 2, 77, 117
4, 99714, Note_on_c, 2, 78, 99
4, 99715, Note_off_c, 2, 77, 64
4, 99822, Note_on_c, 2, 77, 80
4, 99835, Note_off_c, 2, 78, 64
4, 99922, Note_off_c, 2, 77, 64
4, 99943, Note_on_c, 2, 75, 94
4, 100025, Note_off_c, 2, 75, 64
4, 100075, Note_on_c, 2, 73, 101
4, 100157, Note_off_c, 2, 73, 64
4, 100174, Note_on_c, 2, 71, 86
4, 100250, Note_off_c, 2, 71, 64
4, 100315, Note_on_c, 2, 70, 76
4, 100490, Note_off_c, 2, 70, 64
4, 100559, Note_on_c, 2, 66, 71
4, 100673, Note_off_c, 2, 66, 64
4, 101763, Note_on_c, 2, 73, 120
4, 101905, Note_off_c, 2, 73, 64
4, 101999, Note_on_c, 2, 78, 92
4, 102088, Note_off_c, 2, 78, 64
4, 102239, Note_on_c, 2, 73, 99
4, 102314, Note_off_c, 2, 73, 64
4, 102478, Note_on_c, 2, 75, 115
4, 102591, Note_on_c, 2, 77, 88
4, 102596, Note_off_c, 2, 75, 64
4, 102689, Note_off_c, 2, 77, 64
4, 102711, Note_on_c, 2, 75, 88
4, 102804, Note_off_c, 2, 75, 64
4, 102830, Note_on_c, 2, 73, 106
4, 102924, Note_off_c, 2, 73, 64
4, 102949, Note_on_c, 2, 72, 109
4, 103034, Note_off_c, 2, 72, 64
4, 103065, Note_on_c, 2, 70, 80
4, 103141, Note_off_c, 2, 70, 64
4, 103190, Note_on_c, 2, 72, 101
4, 103355, Note_off_c, 2, 72, 64
4, 103436, Note_on_c, 2, 77, 96
4, 103525, Note_off_c, 2, 77, 64
4, 103673, Note_on_c, 2, 72, 96
4, 103750, Note_off_c, 2, 72, 64
4, 103917, Note_on_c, 2, 73, 120
4, 104025, Note_off_c, 2, 73, 64
4, 104034, Note_on_c, 2, 75, 87
4, 104129, Note_off_c, 2, 75, 64
4, 104153, Note_on_c, 2, 73, 90
4, 104251, Note_off_c, 2, 73, 64
4, 104273, Note_on_c, 2, 72, 112
4, 104357, Note_off_c, 2, 72, 64
4, 104391, Note_on_c, 2, 70, 111
4, 104485, Note_off_c, 2, 70, 64
4, 104513, Note_on_c, 2, 68, 80
4, 104585, Note_off_c, 2, 68, 64
4, 104636, Note_on_c, 2, 70, 99
4, 104790, Note_off_c, 2, 70, 64
4, 104875, Note_on_c, 2, 75, 90
4, 104962, Note_off_c, 2, 75, 64
4, 105118, Note_on_c, 2, 70, 90
4, 105196, Note_off_c, 2, 70, 64
4, 105355, Note_on_c, 2, 72, 97
4, 105483, Note_off_c, 2, 72, 64
4, 105599, Note_on_c, 2, 75, 82
4, 105691, Note_off_c, 2, 75, 64
4, 105840, Note_on_c, 2, 80, 94
4, 105919, Note_off_c, 2, 80, 64
4, 116400, Note_on_c, 2, 75, 74
4, 116486, Note_off_c, 2, 75, 64
4, 116634, Note_on_c, 2, 80, 74
4, 116734, Note_off_c, 2, 80, 64
4, 116872, Note_on_c, 2, 73, 81
4, 117048, Note_off_c, 2, 73, 64
4, 117117, Note_on_c, 2, 77, 72
4, 117216, Note_off_c, 2, 77, 64
4, 117350, Note_on_c, 2, 80, 72
4, 117428, Note_off_c, 2, 80, 64
4, 117598, Note_on_c, 2, 72, 94
4, 117697, Note_off_c, 2, 72, 64
4, 117712, Note_on_c, 2, 75, 62
4, 117796, Note_off_c, 2, 75, 64
4, 117835, Note_on_c, 2, 68, 77
4, 117919, Note_off_c, 2, 68, 64
4, 117953, Note_on_c, 2, 75, 72
4, 118029, Note_off_c, 2, 75, 64
4, 118075, Note_on_c, 2, 72, 83
4, 118150, Note_off_c, 2, 72, 64
4, 118186, Note_on_c, 2, 75, 73
4, 118255, Note_off_c, 2, 75, 64
4, 118316, Note_on_c, 2, 73, 97
4, 118431, Note_off_c, 2, 73, 64
4, 118435, Note_on_c, 2, 77, 74
4, 118515, Note_off_c, 2, 77, 64
4, 118555, Note_on_c, 2, 68, 94
4, 118649, Note_off_c, 2, 68, 64
4, 118670, Note_on_c, 2, 77, 71
4, 118746, Note_off_c, 2, 77, 64
4, 118795, Note_on_c, 2, 73, 94
4, 118879, Note_off_c, 2, 73, 64
4, 118909, Note_on_c, 2, 77, 78
4, 118993, Note_off_c, 2, 77, 64
4, 119040, Note_on_c, 2, 75, 97
4, 119141, Note_off_c, 2, 75, 64
4, 119153, Note_on_c, 2, 78, 74
4, 119233, Note_off_c, 2, 78, 64
4, 119270, Note_on_c, 2, 68, 82
4, 119362, Note_off_c, 2, 68, 64
4, 119387, Note_on_c, 2, 78, 72
4, 119459, Note_off_c, 2, 78, 64
4, 119511, Note_on_c, 2, 75, 97
4, 119584, Note_off_c, 2, 75, 64
4, 119631, Note_on_c, 2, 78, 76
4, 119699, Note_off_c, 2, 78, 64
4, 119756, Note_on_c, 2, 77, 96
4, 119863, Note_off_c, 2, 77, 64
4, 119874, Note_on_c, 2, 80, 84
4, 119962, Note_off_c, 2, 80, 64
4, 119997, Note_on_c, 2, 68, 102
4, 120085, Note_off_c, 2, 68, 64
4, 120112, Note_on_c, 2, 80, 78
4, 120180, Note_off_c, 2, 80, 64
4, 120232, Note_on_c, 2, 77, 98
4, 120306, Note_off_c, 2, 77, 64
4, 120345, Note_on_c, 2, 80, 75
4, 120412, Note_off_c, 2, 80, 64
4, 120471, Note_on_c, 2, 78, 93
4, 120588, Note_on_c, 2, 72, 68
4, 120594, Note_off_c, 2, 78, 64
4, 120653, Note_off_c, 2, 72, 64
4, 120716, Note_on_c, 2, 78, 93
4, 120814, Note_off_c, 2, 78, 64
4, 120829, Note_on_c, 2, 72, 73
4, 120885, Note_off_c, 2, 72, 64
4, 120952, Note_on_c, 2, 78, 83
4, 121052, Note_off_c, 2, 78, 64
4, 121064, Note_on_c, 2, 72, 72
4, 121130, Note_off_c, 2, 72, 64
4, 121203, Note_on_c, 2, 77, 106
4, 121298, Note_off_c, 2, 77, 64
4, 121307, Note_on_c, 2, 73, 87
4, 121376, Note_off_c, 2, 73, 64
4, 121435, Note_on_c, 2, 77, 101
4, 121542, Note_off_c, 2, 77, 64
4, 121549, Note_on_c, 2, 73, 80
4, 121616, Note_off_c, 2, 73, 64
4, 121675, Note_on_c, 2, 77, 120
4, 121757, Note_off_c, 2, 77, 64
4, 121786, Note_on_c, 2, 73, 78
4, 121859, Note_off_c, 2, 73, 64
4, 124800, Note_on_c, 2, 66, 81
4, 125001, Note_off_c, 2, 66, 64
4, 125047, Note_on_c, 2, 70, 68
4, 125135, Note_off_c, 2, 70, 64
4, 125279, Note_on_c, 2, 73, 74
4, 125365, Note_off_c, 2, 73, 64
4, 125514, Note_on_c, 2, 70, 77
4, 125629, Note_off_c, 2, 70, 64
4, 125758, Note_on_c, 2, 73, 80
4, 125859, Note_off_c, 2, 73, 64
4, 125997, Note_on_c, 2, 78, 84
4, 126094, Note_off_c, 2, 78, 64
4, 126238, Note_on_c, 2, 72, 91
4, 126410, Note_off_c, 2, 72, 64
4, 126477, Note_on_c, 2, 75, 74
4, 126578, Note_off_c, 2, 75, 64
4, 126717, Note_on_c, 2, 80, 81
4, 126814, Note_off_c, 2, 80, 64
4, 126951, Note_on_c, 2, 75, 86
4, 127094, Note_off_c, 2, 75, 64
4, 127195, Note_on_c, 2, 80, 94
4, 127298, Note_off_c, 2, 80, 64
4, 127431, Note_on_c, 2, 84, 98
4, 127518, Note_off_c, 2, 84, 64
4, 127675, Note_on_c, 2, 85, 101
4, 127834, Note_off_c, 2, 85, 64
4, 127921, Note_on_c, 2, 73, 121
4, 128024, Note_off_c, 2, 73, 64
4, 128032, Note_on_c, 2, 75, 89
4, 128133, Note_off_c, 2, 75, 64
4, 128148, Note_on_c, 2, 77, 73
4, 128218, Note_off_c, 2, 77, 64
4, 128403, Note_on_c, 2, 68, 98
4, 128592, Note_off_c, 2, 68, 64
4, 128647, Note_on_c, 2, 73, 86
4, 128727, Note_off_c, 2, 73, 64
4, 128882, Note_on_c, 2, 72, 82
4, 128960, Note_off_c, 2, 72, 64
4, 129084, Control_c, 2, 11, 44
4, 129118, Note_on_c, 2, 73, 65
4, 129134, Control_c, 2, 11, 49
4, 129184, Control_c, 2, 11, 54
4, 129235, Control_c, 2, 11, 60
4, 129285, Control_c, 2, 11, 66
4, 129336, Control_c, 2, 11, 71
4, 129386, Control_c, 2, 11, 77
4, 129436, Control_c, 2, 11, 82
4, 129487, Control_c, 2, 11, 88
4, 129537, Control_c, 2, 11, 93
4, 129588, Control_c, 2, 11, 99
4, 129638, Control_c, 2, 11, 104
4, 129688, Control_c, 2, 11, 110
4, 129739, Control_c, 2, 11, 115
4, 129789, Control_c, 2, 11, 121
4, 129839, Control_c, 2, 11, 127
4, 129884, Control_c, 2, 11, 118
4, 129937, Control_c, 2, 11, 110
4, 129991, Control_c, 2, 11, 103
4, 130045, Control_c, 2, 11, 95
4, 130098, Control_c, 2, 11, 88
4, 130152, Control_c, 2, 11, 80
4, 130206, Control_c, 2, 11, 73
4, 130259, Control_c, 2, 11, 66
4, 130318, Note_off_c, 2, 73, 64
4, 130428, Control_c, 2, 11, 100
4, 132005, Note_on_c, 2, 66, 115
4, 132122, Note_on_c, 2, 65, 82
4, 132139, Note_off_c, 2, 66, 64
4, 132233, Note_off_c, 2, 65, 64
4, 132234, Note_on_c, 2, 66, 90
4, 132323, Note_off_c, 2, 66, 64
4, 132351, Note_on_c, 2, 68, 106
4, 132436, Note_off_c, 2, 68, 64
4, 132472, Note_on_c, 2, 70, 109
4, 132555, Note_off_c, 2, 70, 64
4, 132587, Note_on_c, 2, 71, 106
4, 132661, Note_off_c, 2, 71, 64
4, 132713, Note_on_c, 2, 73, 106
4, 132827, Note_on_c, 2, 75, 81
4, 132830, Note_off_c, 2, 73, 64
4, 132934, Note_off_c, 2, 75, 64
4, 132941, Note_on_c, 2, 73, 92
4, 133027, Note_off_c, 2, 73, 64
4, 133055, Note_on_c, 2, 71, 97
4, 133133, Note_off_c, 2, 71, 64
4, 133188, Note_on_c, 2, 70, 105
4, 133272, Note_off_c, 2, 70, 64
4, 133293, Note_on_c, 2, 68, 86
4, 133365, Note_off_c, 2, 68, 64
4, 133430, Note_on_c, 2, 70, 67
4, 133603, Note_off_c, 2, 70, 64
4, 133685, Note_on_c, 2, 73, 84
4, 133778, Note_off_c, 2, 73, 64
4, 133925, Note_on_c, 2, 78, 82
4, 134018, Note_off_c, 2, 78, 64
4, 134158, Note_on_c, 2, 77, 117
4, 134274, Note_on_c, 2, 78, 99
4, 134275, Note_off_c, 2, 77, 64
4, 134382, Note_on_c, 2, 77, 80
4, 134395, Note_off_c, 2, 78, 64
4, 134482, Note_off_c, 2, 77, 64
4, 134503, Note_on_c, 2, 75, 94
4, 134585, Note_off_c, 2, 75, 64
4, 134635, Note_on_c, 2, 73, 101
4, 134717, Note_off_c, 2, 73, 64
4, 134734, Note_on_c, 2, 71, 86
4, 134810, Note_off_c, 2, 71, 64
4, 134875, Note_on_c, 2, 70, 76
4, 135050, Note_off_c, 2, 70, 64
4, 135119, Note_on_c, 2, 66, 71
4, 135233, Note_off_c, 2, 66, 64
4, 136323, Note_on_c, 2, 73, 120
4, 136465, Note_off_c, 2, 73, 64
4, 136559, Note_on_c, 2, 78, 92
4, 136648, Note_off_c, 2, 78, 64
4, 136799, Note_on_c, 2, 73, 99
4, 136874, Note_off_c, 2, 73, 64
4, 137038, Note_on_c, 2, 75, 115
4, 137151, Note_on_c, 2, 77, 88
4, 137156, Note_off_c, 2, 75, 64
4, 137249, Note_off_c, 2, 77, 64
4, 137271, Note_on_c, 2, 75, 88
4, 137364, Note_off_c, 2, 75, 64
4, 137390, Note_on_c, 2, 73, 106
4, 137484, Note_off_c, 2, 73, 64
4, 137509, Note_on_c, 2, 72, 109
4, 137594, Note_off_c, 2, 72, 64
4, 137625, Note_on_c, 2, 70, 80
4, 137701, Note_off_c, 2, 70, 64
4, 137750, Note_on_c, 2, 72, 101
4, 137915, Note_off_c, 2, 72, 64
4, 137996, Note_on_c, 2, 77, 96
4, 138085, Note_off_c, 2, 77, 64
4, 138233, Note_on_c, 2, 72, 96
4, 138310, Note_off_c, 2, 72, 64
4, 138477, Note_on_c, 2, 73, 120
4, 138585, Note_off_c, 2, 73, 64
4, 138594, Note_on_c, 2, 75, 87
4, 138689, Note_off_c, 2, 75, 64
4, 138713, Note_on_c, 2, 73, 90
4, 138811, Note_off_c, 2, 73, 64
4, 138833, Note_on_c, 2, 72, 112
4, 138917, Note_off_c, 2, 72, 64
4, 138951, Note_on_c, 2, 70, 111
4, 139045, Note_off_c, 2, 70, 64
4, 139073, Note_on_c, 2, 68, 80
4, 139145, Note_off_c, 2, 68, 64
4, 139196, Note_on_c, 2, 70, 99
4, 139350, Note_off_c, 2, 70, 64
4, 139435, Note_on_c, 2, 75, 90
4, 139522, Note_off_c, 2, 75, 64
4, 139678, Note_on_c, 2, 70, 90
4, 139756, Note_off_c, 2, 70, 64
4, 139915, Note_on_c, 2, 72, 97
4, 140043, Note_off_c, 2, 72, 64
4, 140159, Note_on_c, 2, 75, 82
4, 140251, Note_off_c, 2, 75, 64
4, 140400, Note_on_c, 2, 80, 94
4, 140479, Note_off_c, 2, 80, 64
4, 150960, Note_on_c, 2, 75, 74
4, 151046, Note_off_c, 2, 75, 64
4, 151194, Note_on_c, 2, 80, 74
4, 151294, Note_off_c, 2, 80, 64
4, 151432, Note_on_c, 2, 73, 81
4, 151608, Note_off_c, 2, 73, 64
4, 151677, Note_on_c, 2, 77, 72
4, 151776, Note_off_c, 2, 77, 64
4, 151910, Note_on_c, 2, 80, 72
4, 151988, Note_off_c, 2, 80, 64
4, 152158, Note_on_c, 2, 72, 94
4, 152257, Note_off_c, 2, 72, 64
4, 152272, Note_on_c, 2, 75, 62
4, 152356, Note_off_c, 2, 75, 64
4, 152395, Note_on_c, 2, 68, 77
4, 152479, Note_off_c, 2, 68, 64
4, 152513, Note_on_c, 2, 75, 72
4, 152589, Note_off_c, 2, 75, 64
4, 152635, Note_on_c, 2, 72, 83
4, 152710, Note_off_c, 2, 72, 64
4, 152746, Note_on_c, 2, 75, 73
4, 152815, Note_off_c, 2, 75, 64
4, 152876, Note_on_c, 2, 73, 97
4, 152991, Note_off_c, 2, 73, 64
4, 152995, Note_on_c, 2, 77, 74
4, 153075, Note_off_c, 2, 77, 64
4, 153115, Note_on_c, 2, 68, 94
4, 153209, Note_off_c, 2, 68, 64
4, 153230, Note_on_c, 2, 77, 71
4, 153306, Note_off_c, 2, 77, 64
4, 153355, Note_on_c, 2, 73, 94
4, 153439, Note_off_c, 2, 73, 64
4, 153469, Note_on_c, 2, 77, 78
4, 153553, Note_off_c, 2, 77, 64
4, 153600, Note_on_c, 2, 75, 97
4, 153701, Note_off_c, 2, 75, 64
4, 153713, Note_on_c, 2, 78, 74
4, 153793, Note_off_c, 2, 78, 64
4, 153830, Note_on_c, 2, 68, 82
4, 153922, Note_off_c, 2, 68, 64
4, 153947, Note_on_c, 2, 78, 72
4, 154019, Note_off_c, 2, 78, 64
4, 154071, Note_on_c, 2, 75, 97
4, 154144, Note_off_c, 2, 75, 64
4, 154191, Note_on_c, 2, 78, 76
4, 154259, Note_off_c, 2, 78, 64
4, 154316, Note_on_c, 2, 77, 96
4, 154423, Note_off_c, 2, 77, 64
4, 154434, Note_on_c, 2, 80, 84
4, 154522, Note_off_c, 2, 80, 64
4, 154557, Note_on_c, 2, 68, 102
4, 154645, Note_off_c, 2, 68, 64
4, 154672, Note_on_c, 2, 80, 78
4, 154740, Note_off_c, 2, 80, 64
4, 154792, Note_on_c, 2, 77, 98
4, 154866, Note_off_c, 2, 77, 64
4, 154905, Note_on_c, 2, 80, 75
4, 154972, Note_off_c, 2, 80, 64
4, 155031, Note_on_c, 2, 78, 93
4, 155148, Note_on_c, 2, 72, 68
4, 155154, Note_off_c, 2, 78, 64
4, 155213, Note_off_c, 2, 72, 64
4, 155276, Note_on_c, 2, 78, 93
4, 155374, Note_off_c, 2, 78, 64
4, 155389, Note_on_c, 2, 72, 73
4, 155445, Note_off_c, 2, 72, 64
4, 155512, Note_on_c, 2, 78, 83
4, 155612, Note_off_c, 2, 78, 64
4, 155624, Note_on_c, 2, 72, 72
4, 155690, Note_off_c, 2, 72, 64
4, 155763, Note_on_c, 2, 77, 106
4, 155858, Note_off_c, 2, 77, 64
4, 155867, Note_on_c, 2, 73, 87
4, 155936, Note_off_c, 2, 73, 64
4, 155995, Note_on_c, 2, 77, 101
4, 156102, Note_off_c, 2, 77, 64
4, 156109, Note_on_c, 2, 73, 80
4, 156176, Note_off_c, 2, 73, 64
4, 156235, Note_on_c, 2, 77, 120
4, 156317, Note_off_c, 2, 77, 64
4, 156346, Note_on_c, 2, 73, 78
4, 156419, Note_off_c, 2, 73, 64
4, 159360, Note_on_c, 2, 66, 81
4, 159561, Note_off_c, 2, 66, 64
4, 159607, Note_on_c, 2, 70, 68
4, 159695, Note_off_c, 2, 70, 64
4, 159839, Note_on_c, 2, 73, 74
4, 159925, Note_off_c, 2, 73, 64
4, 160074, Note_on_c, 2, 70, 77
4, 160189, Note_off_c, 2, 70, 64
4, 160318, Note_on_c, 2, 73, 80
4, 160419, Note_off_c, 2, 73, 64
4, 160557, Note_on_c, 2, 78, 84
4, 160654, Note_off_c, 2, 78, 64
4, 160798, Note_on_c, 2, 72, 91
4, 160970, Note_off_c, 2, 72, 64
4, 161037, Note_on_c, 2, 75, 74
4, 161138, Note_off_c, 2, 75, 64
4, 161277, Note_on_c, 2, 80, 81
4, 161374, Note_off_c, 2, 80, 64
4, 161511, Note_on_c, 2, 75, 86
4, 161654, Note_off_c, 2, 75, 64
4, 161755, Note_on_c, 2, 80, 94
4, 161858, Note_off_c, 2, 80, 64
4, 161991, Note_on_c, 2, 84, 98
4, 162078, Note_off_c, 2, 84, 64
4, 162235, Note_on_c, 2, 85, 101
4, 162394, Note_off_c, 2, 85, 64
4, 162481, Note_on_c, 2, 73, 121
4, 162584, Note_off_c, 2, 73, 64
4, 162592, Note_on_c, 2, 75, 89
4, 162693, Note_off_c, 2, 75, 64
4, 162708, Note_on_c, 2, 77, 73
4, 162778, Note_off_c, 2, 77, 64
4, 162963, Note_on_c, 2, 68, 98
4, 163152, Note_off_c, 2, 68, 64
4, 163207, Note_on_c, 2, 73, 86
4, 163287, Note_off_c, 2, 73, 64
4, 163442, Note_on_c, 2, 72, 82
4, 163520, Note_off_c, 2, 72, 64
4, 163644, Control_c, 2, 11, 44
4, 163678, Note_on_c, 2, 73, 65
4, 163694, Control_c, 2, 11, 49
4, 163744, Control_c, 2, 11, 54
4, 163795, Control_c, 2, 11, 60
4, 163845, Control_c, 2, 11, 66
4, 163896, Control_c, 2, 11, 71
4, 163946, Control_c, 2, 11, 77
4, 163996, Control_c, 2, 11, 82
4, 164047, Control_c, 2, 11, 88
4, 164097, Control_c, 2, 11, 93
4, 164148, Control_c, 2, 11, 99
4, 164198, Control_c, 2, 11, 104
4, 164248, Control_c, 2, 11, 110
4, 164299, Control_c, 2, 11, 115
4, 164349, Control_c, 2, 11, 121
4, 164399, Control_c, 2, 11, 127
4, 164444, Control_c, 2, 11, 118
4, 164497, Control_c, 2, 11, 110
4, 164551, Control_c, 2, 11, 103
4, 164605, Control_c, 2, 11, 95
4, 164658, Control_c, 2, 11, 88
4, 164712, Control_c, 2, 11, 80
4, 164766, Control_c, 2, 11, 73
4, 164819, Control_c, 2, 11, 66
4, 164878, Note_off_c, 2, 73, 64
4, 164988, Control_c, 2, 11, 100
4, 170880, Note_on_c, 2, 70, 68
4, 171029, Note_off_c, 2, 70, 64
4, 171109, Note_on_c, 2, 75, 62
4, 171197, Note_off_c, 2, 75, 64
4, 171356, Note_on_c, 2, 78, 62
4, 171464, Note_off_c, 2, 78, 64
4, 171608, Note_on_c, 2, 71, 68
4, 171760, Note_off_c, 2, 71, 64
4, 171838, Note_on_c, 2, 75, 62
4, 171925, Note_off_c, 2, 75, 64
4, 172077, Note_on_c, 2, 78, 62
4, 172167, Note_off_c, 2, 78, 64
4, 172320, Note_on_c, 2, 70, 68
4, 172472, Note_off_c, 2, 70, 64
4, 172557, Note_on_c, 2, 75, 62
4, 172651, Note_off_c, 2, 75, 64
4, 172797, Note_on_c, 2, 78, 62
4, 172888, Note_off_c, 2, 78, 64
4, 173039, Note_on_c, 2, 68, 68
4, 173175, Note_off_c, 2, 68, 64
4, 173276, Note_on_c, 2, 75, 65
4, 173369, Note_off_c, 2, 75, 64
4, 173517, Note_on_c, 2, 78, 65
4, 173610, Note_off_c, 2, 78, 64
4, 173759, Note_on_c, 2, 70, 68
4, 173911, Note_off_c, 2, 70, 64
4, 173999, Note_on_c, 2, 75, 59
4, 174096, Note_off_c, 2, 75, 64
4, 174233, Note_on_c, 2, 78, 59
4, 174322, Note_off_c, 2, 78, 64
4, 174471, Note_on_c, 2, 71, 68
4, 174615, Note_off_c, 2, 71, 64
4, 174712, Note_on_c, 2, 75, 62
4, 174803, Note_off_c, 2, 75, 64
4, 174952, Note_on_c, 2, 78, 62
4, 175057, Note_off_c, 2, 78, 64
4, 175194, Note_on_c, 2, 70, 68
4, 175421, Note_off_c, 2, 70, 64
4, 175440, Note_on_c, 2, 75, 59
4, 175541, Note_off_c, 2, 75, 64
4, 175683, Note_on_c, 2, 74, 51
4, 175775, Note_off_c, 2, 74, 64
4, 175919, Note_on_c, 2, 75, 68
4, 176372, Note_off_c, 2, 75, 64
4, 178102, Note_on_c, 2, 63, 109
4, 178208, Note_on_c, 2, 62, 86
4, 178222, Note_off_c, 2, 63, 64
4, 178305, Note_off_c, 2, 62, 64
4, 178315, Note_on_c, 2, 63, 86
4, 178406, Note_off_c, 2, 63, 64
4, 178423, Note_on_c, 2, 65, 96
4, 178507, Note_off_c, 2, 65, 64
4, 178537, Note_on_c, 2, 66, 113
4, 178629, Note_off_c, 2, 66, 64
4, 178649, Note_on_c, 2, 68, 84
4, 178733, Note_off_c, 2, 68, 64
4, 178788, Note_on_c, 2, 70, 115
4, 178912, Note_on_c, 2, 71, 88
4, 178914, Note_off_c, 2, 70, 64
4, 179017, Note_off_c, 2, 71, 64
4, 179024, Note_on_c, 2, 70, 88
4, 179110, Note_off_c, 2, 70, 64
4, 179141, Note_on_c, 2, 68, 94
4, 179227, Note_off_c, 2, 68, 64
4, 179257, Note_on_c, 2, 66, 101
4, 179340, Note_off_c, 2, 66, 64
4, 179375, Note_on_c, 2, 65, 82
4, 179452, Note_off_c, 2, 65, 64
4, 179514, Note_on_c, 2, 66, 82
4, 179696, Note_off_c, 2, 66, 64
4, 179751, Note_on_c, 2, 70, 86
4, 179848, Note_off_c, 2, 70, 64
4, 179986, Note_on_c, 2, 75, 86
4, 180078, Note_off_c, 2, 75, 64
4, 180242, Note_on_c, 2, 74, 112
4, 180355, Note_off_c, 2, 74, 64
4, 180363, Note_on_c, 2, 75, 82
4, 180459, Note_off_c, 2, 75, 64
4, 180467, Note_on_c, 2, 74, 82
4, 180556, Note_off_c, 2, 74, 64
4, 180587, Note_on_c, 2, 72, 94
4, 180674, Note_off_c, 2, 72, 64
4, 180711, Note_on_c, 2, 70, 105
4, 180803, Note_off_c, 2, 70, 64
4, 180834, Note_on_c, 2, 68, 82
4, 180920, Note_off_c, 2, 68, 64
4, 180961, Note_on_c, 2, 66, 97
4, 181095, Note_off_c, 2, 66, 64
4, 181207, Note_on_c, 2, 63, 92
4, 181316, Note_off_c, 2, 63, 64
4, 182407, Note_on_c, 2, 70, 109
4, 182550, Note_off_c, 2, 70, 64
4, 182645, Note_on_c, 2, 75, 90
4, 182731, Note_off_c, 2, 75, 64
4, 182887, Note_on_c, 2, 70, 90
4, 182965, Note_off_c, 2, 70, 64
4, 183118, Note_on_c, 2, 72, 107
4, 183205, Note_off_c, 2, 72, 64
4, 183225, Note_on_c, 2, 73, 84
4, 183314, Note_off_c, 2, 73, 64
4, 183338, Note_on_c, 2, 72, 84
4, 183418, Note_off_c, 2, 72, 64
4, 183454, Note_on_c, 2, 70, 94
4, 183541, Note_off_c, 2, 70, 64
4, 183570, Note_on_c, 2, 68, 99
4, 183657, Note_off_c, 2, 68, 64
4, 183692, Note_on_c, 2, 66, 82
4, 183772, Note_off_c, 2, 66, 64
4, 183820, Note_on_c, 2, 68, 82
4, 183970, Note_off_c, 2, 68, 64
4, 184062, Note_on_c, 2, 73, 84
4, 184157, Note_off_c, 2, 73, 64
4, 184305, Note_on_c, 2, 68, 84
4, 184400, Note_off_c, 2, 68, 64
4, 184556, Note_on_c, 2, 70, 102
4, 184663, Note_off_c, 2, 70, 64
4, 184678, Note_on_c, 2, 72, 80
4, 184756, Note_off_c, 2, 72, 64
4, 184793, Note_on_c, 2, 70, 80
4, 184874, Note_off_c, 2, 70, 64
4, 184906, Note_on_c, 2, 68, 89
4, 184992, Note_off_c, 2, 68, 64
4, 185034, Note_on_c, 2, 66, 96
4, 185126, Note_off_c, 2, 66, 64
4, 185141, Note_on_c, 2, 65, 78
4, 185213, Note_off_c, 2, 65, 64
4, 185280, Note_on_c, 2, 63, 76
4, 185432, Note_off_c, 2, 63, 64
4, 185522, Note_on_c, 2, 72, 65
4, 185612, Note_off_c, 2, 72, 64
4, 185761, Note_on_c, 2, 78, 65
4, 185848, Note_off_c, 2, 78, 64
4, 185996, Note_on_c, 2, 69, 71
4, 186120, Note_off_c, 2, 69, 64
4, 186235, Note_on_c, 2, 72, 69
4, 186323, Note_off_c, 2, 72, 64
4, 186470, Note_on_c, 2, 77, 69
4, 186562, Note_off_c, 2, 77, 64
4, 196800, Note_on_c, 2, 69, 63
4, 196957, Note_off_c, 2, 69, 64
4, 197039, Note_on_c, 2, 72, 65
4, 197127, Note_off_c, 2, 72, 64
4, 197263, Note_on_c, 2, 77, 65
4, 197372, Note_off_c, 2, 77, 64
4, 197512, Note_on_c, 2, 70, 81
4, 197672, Note_off_c, 2, 70, 64
4, 197760, Note_on_c, 2, 73, 71
4, 197844, Note_off_c, 2, 73, 64
4, 197998, Note_on_c, 2, 77, 71
4, 198065, Note_off_c, 2, 77, 64
4, 198252, Note_on_c, 2, 69, 74
4, 198353, Note_off_c, 2, 69, 64
4, 198356, Note_on_c, 2, 72, 87
4, 198443, Note_off_c, 2, 72, 64
4, 198472, Note_on_c, 2, 65, 90
4, 198559, Note_off_c, 2, 65, 64
4, 198587, Note_on_c, 2, 72, 72
4, 198672, Note_off_c, 2, 72, 64
4, 198717, Note_on_c, 2, 69, 99
4, 198812, Note_off_c, 2, 69, 64
4, 198819, Note_on_c, 2, 72, 80
4, 198904, Note_off_c, 2, 72, 64
4, 198951, Note_on_c, 2, 70, 102
4, 199037, Note_off_c, 2, 70, 64
4, 199061, Note_on_c, 2, 73, 78
4, 199147, Note_off_c, 2, 73, 64
4, 199174, Note_on_c, 2, 65, 99
4, 199251, Note_off_c, 2, 65, 64
4, 199286, Note_on_c, 2, 73, 81
4, 199364, Note_off_c, 2, 73, 64
4, 199408, Note_on_c, 2, 70, 90
4, 199483, Note_off_c, 2, 70, 64
4, 199523, Note_on_c, 2, 73, 80
4, 199616, Note_off_c, 2, 73, 64
4, 199669, Note_on_c, 2, 72, 107
4, 199770, Note_off_c, 2, 72, 64
4, 199787, Note_on_c, 2, 75, 80
4, 199864, Note_off_c, 2, 75, 64
4, 199900, Note_on_c, 2, 65, 84
4, 199978, Note_off_c, 2, 65, 64
4, 200017, Note_on_c, 2, 75, 80
4, 200098, Note_off_c, 2, 75, 64
4, 200146, Note_on_c, 2, 72, 99
4, 200232, Note_off_c, 2, 72, 64
4, 200249, Note_on_c, 2, 75, 76
4, 200342, Note_off_c, 2, 75, 64
4, 200395, Note_on_c, 2, 73, 87
4, 200513, Note_off_c, 2, 73, 64
4, 200522, Note_on_c, 2, 77, 74
4, 200601, Note_off_c, 2, 77, 64
4, 200636, Note_on_c, 2, 65, 99
4, 200730, Note_off_c, 2, 65, 64
4, 200747, Note_on_c, 2, 77, 74
4, 200833, Note_off_c, 2, 77, 64
4, 200885, Note_on_c, 2, 73, 81
4, 200952, Note_off_c, 2, 73, 64
4, 200980, Note_on_c, 2, 77, 71
4, 201077, Note_off_c, 2, 77, 64
4, 201128, Note_on_c, 2, 75, 81
4, 201228, Note_off_c, 2, 75, 64
4, 201240, Note_on_c, 2, 69, 69
4, 201326, Note_off_c, 2, 69, 64
4, 201363, Note_on_c, 2, 75, 81
4, 201459, Note_off_c, 2, 75, 64
4, 201475, Note_on_c, 2, 69, 69
4, 201565, Note_off_c, 2, 69, 64
4, 201593, Note_on_c, 2, 75, 81
4, 201692, Note_off_c, 2, 75, 64
4, 201700, Note_on_c, 2, 69, 71
4, 201785, Note_off_c, 2, 69, 64
4, 201829, Note_on_c, 2, 73, 81
4, 201927, Note_off_c, 2, 73, 64
4, 201950, Note_on_c, 2, 70, 71
4, 202023, Note_off_c, 2, 70, 64
4, 202068, Note_on_c, 2, 73, 81
4, 202158, Note_off_c, 2, 73, 64
4, 202179, Note_on_c, 2, 70, 74
4, 202272, Note_off_c, 2, 70, 64
4, 202310, Note_on_c, 2, 73, 81
4, 202404, Note_off_c, 2, 73, 64
4, 202422, Note_on_c, 2, 70, 74
4, 202505, Note_off_c, 2, 70, 64
4, 205440, Note_on_c, 2, 63, 74
4, 205595, Note_off_c, 2, 63, 64
4, 205676, Note_on_c, 2, 66, 59
4, 205758, Note_off_c, 2, 66, 64
4, 205911, Note_on_c, 2, 70, 59
4, 205982, Note_off_c, 2, 70, 64
4, 206160, Note_on_c, 2, 66, 72
4, 206280, Note_off_c, 2, 66, 64
4, 206383, Note_on_c, 2, 70, 63
4, 206451, Note_off_c, 2, 70, 64
4, 206618, Note_on_c, 2, 75, 63
4, 206687, Note_off_c, 2, 75, 64
4, 206865, Note_on_c, 2, 69, 71
4, 207004, Note_off_c, 2, 69, 64
4, 207113, Note_on_c, 2, 72, 65
4, 207183, Note_off_c, 2, 72, 64
4, 207345, Note_on_c, 2, 77, 65
4, 207422, Note_off_c, 2, 77, 64
4, 207594, Note_on_c, 2, 72, 75
4, 207745, Note_off_c, 2, 72, 64
4, 207827, Note_on_c, 2, 77, 74
4, 207895, Note_off_c, 2, 77, 64
4, 208064, Note_on_c, 2, 81, 92
4, 208141, Note_off_c, 2, 81, 64
4, 208321, Note_on_c, 2, 82, 81
4, 208488, Note_off_c, 2, 82, 64
4, 208594, Note_on_c, 2, 70, 96
4, 208692, Note_on_c, 2, 72, 69
4, 208696, Note_off_c, 2, 70, 64
4, 208800, Note_on_c, 2, 73, 69
4, 208808, Note_off_c, 2, 72, 64
4, 208883, Note_off_c, 2, 73, 64
4, 209038, Note_on_c, 2, 65, 80
4, 209269, Note_off_c, 2, 65, 64
4, 209301, Note_on_c, 2, 70, 61
4, 209369, Note_off_c, 2, 70, 64
4, 209532, Note_on_c, 2, 69, 67
4, 209611, Note_off_c, 2, 69, 64
4, 209736, Control_c, 2, 11, 78
4, 209783, Note_on_c, 2, 70, 81
4, 209788, Control_c, 2, 11, 84
4, 209840, Control_c, 2, 11, 90
4, 209892, Control_c, 2, 11, 96
4, 209944, Control_c, 2, 11, 102
4, 209996, Control_c, 2, 11, 108
4, 210048, Control_c, 2, 11, 114
4, 210100, Control_c, 2, 11, 120
4, 210151, Control_c, 2, 11, 127
4, 210180, Control_c, 2, 11, 116
4, 210230, Control_c, 2, 11, 103
4, 210280, Control_c, 2, 11, 90
4, 210330, Control_c, 2, 11, 77
4, 210379, Control_c, 2, 11, 64
4, 210396, Control_c, 2, 11, 58
4, 210398, Note_off_c, 2, 70, 64
4, 210446, Control_c, 2, 11, 64
4, 210474, Note_on_c, 2, 58, 81
4, 210496, Control_c, 2, 11, 70
4, 210547, Control_c, 2, 11, 76
4, 210597, Control_c, 2, 11, 82
4, 210648, Control_c, 2, 11, 88
4, 210698, Control_c, 2, 11, 95
4, 210748, Control_c, 2, 11, 101
4, 210799, Control_c, 2, 11, 107
4, 210849, Control_c, 2, 11, 113
4, 210899, Control_c, 2, 11, 120
4, 210936, Control_c, 2, 11, 116
4, 210994, Control_c, 2, 11, 97
4, 211053, Control_c, 2, 11, 78
4, 211095, Note_off_c, 2, 58, 64
4, 211111, Control_c, 2, 11, 60
4, 211176, Control_c, 2, 11, 100
4, 213357, Note_on_c, 2, 66, 63
4, 213453, Note_off_c, 2, 66, 64
4, 213597, Note_on_c, 2, 63, 47
4, 213696, Note_off_c, 2, 63, 64
4, 213819, Note_on_c, 2, 66, 57
4, 213916, Note_off_c, 2, 66, 64
4, 214070, Note_on_c, 2, 70, 63
4, 214235, Note_off_c, 2, 70, 64
4, 214308, Note_on_c, 2, 70, 52
4, 214422, Note_off_c, 2, 70, 64
4, 214553, Note_on_c, 2, 70, 52
4, 214648, Note_off_c, 2, 70, 64
4, 214793, Note_on_c, 2, 70, 59
4, 214892, Note_off_c, 2, 70, 64
4, 215039, Note_on_c, 2, 70, 50
4, 215139, Note_off_c, 2, 70, 64
4, 215276, Note_on_c, 2, 70, 50
4, 215374, Note_off_c, 2, 70, 64
4, 215511, Note_on_c, 2, 70, 61
4, 215679, Note_off_c, 2, 70, 64
4, 215764, Note_on_c, 2, 68, 50
4, 215863, Note_off_c, 2, 68, 64
4, 216002, Note_on_c, 2, 67, 50
4, 216082, Note_off_c, 2, 67, 64
4, 216239, Note_on_c, 2, 68, 62
4, 216437, Note_off_c, 2, 68, 64
4, 225600, Note_on_c, 2, 68, 110
4, 225695, Note_off_c, 2, 68, 64
4, 225714, Note_on_c, 2, 71, 82
4, 225804, Note_off_c, 2, 71, 64
4, 225831, Note_on_c, 2, 62, 111
4, 225908, Note_off_c, 2, 62, 64
4, 225947, Note_on_c, 2, 71, 95
4, 226029, Note_off_c, 2, 71, 64
4, 226070, Note_on_c, 2, 68, 98
4, 226192, Note_on_c, 2, 66, 66
4, 226199, Note_off_c, 2, 68, 64
4, 226316, Note_on_c, 2, 68, 76
4, 226324, Note_off_c, 2, 66, 64
4, 226419, Note_off_c, 2, 68, 64
4, 226438, Note_on_c, 2, 71, 105
4, 226526, Note_off_c, 2, 71, 64
4, 226557, Note_on_c, 2, 62, 111
4, 226639, Note_off_c, 2, 62, 64
4, 226670, Note_on_c, 2, 71, 95
4, 226756, Note_off_c, 2, 71, 64
4, 226794, Note_on_c, 2, 68, 107
4, 226875, Note_off_c, 2, 68, 64
4, 226913, Note_on_c, 2, 71, 95
4, 227022, Note_off_c, 2, 71, 64
4, 227043, Note_on_c, 2, 61, 85
4, 227213, Note_off_c, 2, 61, 64
4, 227279, Note_on_c, 2, 66, 71
4, 227375, Note_off_c, 2, 66, 64
4, 227517, Note_on_c, 2, 70, 71
4, 227603, Note_off_c, 2, 70, 64
4, 227761, Note_on_c, 2, 66, 81
4, 227923, Note_off_c, 2, 66, 64
4, 227999, Note_on_c, 2, 70, 74
4, 228087, Note_off_c, 2, 70, 64
4, 228235, Note_on_c, 2, 73, 74
4, 228312, Note_off_c, 2, 73, 64
4, 244320, Note_on_c, 2, 70, 81
4, 244479, Note_off_c, 2, 70, 64
4, 244557, Note_on_c, 2, 73, 71
4, 244657, Note_off_c, 2, 73, 64
4, 244794, Note_on_c, 2, 78, 71
4, 244890, Note_off_c, 2, 78, 64
4, 245036, Note_on_c, 2, 68, 75
4, 245210, Note_off_c, 2, 68, 64
4, 245279, Note_on_c, 2, 71, 71
4, 245374, Note_off_c, 2, 71, 64
4, 245515, Note_on_c, 2, 77, 71
4, 245620, Note_off_c, 2, 77, 64
4, 245764, Note_on_c, 2, 66, 101
4, 245872, Note_off_c, 2, 66, 64
4, 245878, Note_on_c, 2, 65, 80
4, 245968, Note_off_c, 2, 65, 64
4, 245995, Note_on_c, 2, 66, 80
4, 246078, Note_off_c, 2, 66, 64
4, 246112, Note_on_c, 2, 68, 102
4, 246202, Note_off_c, 2, 68, 64
4, 246230, Note_on_c, 2, 70, 105
4, 246323, Note_off_c, 2, 70, 64
4, 246345, Note_on_c, 2, 71, 86
4, 246429, Note_off_c, 2, 71, 64
4, 246472, Note_on_c, 2, 73, 112
4, 246594, Note_on_c, 2, 75, 91
4, 246603, Note_off_c, 2, 73, 64
4, 246688, Note_off_c, 2, 75, 64
4, 246712, Note_on_c, 2, 73, 94
4, 246797, Note_off_c, 2, 73, 64
4, 246826, Note_on_c, 2, 71, 99
4, 246909, Note_off_c, 2, 71, 64
4, 246942, Note_on_c, 2, 70, 109
4, 247039, Note_off_c, 2, 70, 64
4, 247064, Note_on_c, 2, 68, 102
4, 247155, Note_off_c, 2, 68, 64
4, 247190, Note_on_c, 2, 70, 86
4, 247383, Note_off_c, 2, 70, 64
4, 247431, Note_on_c, 2, 73, 81
4, 247544, Note_off_c, 2, 73, 64
4, 247673, Note_on_c, 2, 78, 90
4, 247784, Note_off_c, 2, 78, 64
4, 247915, Note_on_c, 2, 77, 107
4, 248018, Note_off_c, 2, 77, 64
4, 248031, Note_on_c, 2, 78, 88
4, 248132, Note_off_c, 2, 78, 64
4, 248148, Note_on_c, 2, 77, 94
4, 248233, Note_off_c, 2, 77, 64
4, 248268, Note_on_c, 2, 75, 99
4, 248360, Note_off_c, 2, 75, 64
4, 248385, Note_on_c, 2, 73, 107
4, 248464, Note_off_c, 2, 73, 64
4, 248504, Note_on_c, 2, 71, 102
4, 248582, Note_off_c, 2, 71, 64
4, 248631, Note_on_c, 2, 70, 94
4, 248765, Note_off_c, 2, 70, 64
4, 248874, Note_on_c, 2, 66, 81
4, 248985, Note_off_c, 2, 66, 64
4, 250080, Note_on_c, 2, 73, 98
4, 250236, Note_off_c, 2, 73, 64
4, 250316, Note_on_c, 2, 78, 85
4, 250407, Note_off_c, 2, 78, 64
4, 250557, Note_on_c, 2, 73, 91
4, 250641, Note_off_c, 2, 73, 64
4, 250802, Note_on_c, 2, 75, 109
4, 250907, Note_off_c, 2, 75, 64
4, 250915, Note_on_c, 2, 77, 80
4, 251017, Note_off_c, 2, 77, 64
4, 251032, Note_on_c, 2, 75, 80
4, 251127, Note_off_c, 2, 75, 64
4, 251152, Note_on_c, 2, 73, 99
4, 251232, Note_off_c, 2, 73, 64
4, 251274, Note_on_c, 2, 71, 103
4, 251355, Note_off_c, 2, 71, 64
4, 251392, Note_on_c, 2, 70, 86
4, 251468, Note_off_c, 2, 70, 64
4, 251520, Note_on_c, 2, 68, 89
4, 251683, Note_off_c, 2, 68, 64
4, 251759, Note_on_c, 2, 77, 99
4, 251854, Note_off_c, 2, 77, 64
4, 251997, Note_on_c, 2, 68, 92
4, 252105, Note_off_c, 2, 68, 64
4, 252244, Note_on_c, 2, 73, 109
4, 252349, Note_off_c, 2, 73, 64
4, 252359, Note_on_c, 2, 75, 80
4, 252467, Note_off_c, 2, 75, 64
4, 252479, Note_on_c, 2, 73, 80
4, 252573, Note_off_c, 2, 73, 64
4, 252597, Note_on_c, 2, 71, 94
4, 252674, Note_off_c, 2, 71, 64
4, 252716, Note_on_c, 2, 70, 97
4, 252798, Note_off_c, 2, 70, 64
4, 252835, Note_on_c, 2, 68, 82
4, 252920, Note_off_c, 2, 68, 64
4, 252962, Note_on_c, 2, 70, 87
4, 253111, Note_off_c, 2, 70, 64
4, 253198, Note_on_c, 2, 75, 98
4, 253294, Note_off_c, 2, 75, 64
4, 253435, Note_on_c, 2, 70, 85
4, 253548, Note_off_c, 2, 70, 64
4, 253685, Note_on_c, 2, 71, 102
4, 253801, Note_on_c, 2, 73, 80
4, 253812, Note_off_c, 2, 71, 64
4, 253917, Note_off_c, 2, 73, 64
4, 253920, Note_on_c, 2, 71, 80
4, 254008, Note_off_c, 2, 71, 64
4, 254038, Note_on_c, 2, 70, 96
4, 254108, Note_off_c, 2, 70, 64
4, 254156, Note_on_c, 2, 68, 96
4, 254230, Note_off_c, 2, 68, 64
4, 254274, Note_on_c, 2, 66, 82
4, 254353, Note_off_c, 2, 66, 64
4, 254400, Note_on_c, 2, 68, 71
4, 254556, Note_off_c, 2, 68, 64
4, 254639, Note_on_c, 2, 65, 65
4, 254728, Note_off_c, 2, 65, 64
4, 254882, Note_on_c, 2, 61, 65
4, 254967, Note_off_c, 2, 61, 64
4, 255118, Note_on_c, 2, 70, 81
4, 255287, Note_off_c, 2, 70, 64
4, 255357, Note_on_c, 2, 66, 65
4, 255451, Note_off_c, 2, 66, 64
4, 255594, Note_on_c, 2, 61, 65
4, 255685, Note_off_c, 2, 61, 64
4, 255835, Note_on_c, 2, 68, 81
4, 256024, Note_off_c, 2, 68, 64
4, 256075, Note_on_c, 2, 65, 65
4, 256170, Note_off_c, 2, 65, 64
4, 256315, Note_on_c, 2, 61, 65
4, 256393, Note_off_c, 2, 61, 64
4, 256552, Note_on_c, 2, 66, 81
4, 256717, Note_off_c, 2, 66, 64
4, 256790, Note_on_c, 2, 61, 63
4, 256889, Note_off_c, 2, 61, 64
4, 257028, Note_on_c, 2, 58, 63
4, 257113, Note_off_c, 2, 58, 64
4, 257279, Note_on_c, 2, 65, 78
4, 257481, Note_off_c, 2, 65, 64
4, 257751, Note_on_c, 2, 73, 74
4, 257862, Note_off_c, 2, 73, 64
4, 258003, Note_on_c, 2, 66, 90
4, 258180, Note_off_c, 2, 66, 64
4, 258473, Note_on_c, 2, 73, 80
4, 258570, Note_off_c, 2, 73, 64
4, 258720, Note_on_c, 2, 73, 103
4, 258835, Note_on_c, 2, 77, 80
4, 258836, Note_off_c, 2, 73, 64
4, 258928, Note_off_c, 2, 77, 64
4, 258955, Note_on_c, 2, 68, 103
4, 259061, Note_off_c, 2, 68, 64
4, 259070, Note_on_c, 2, 77, 90
4, 259164, Note_off_c, 2, 77, 64
4, 259202, Note_on_c, 2, 73, 103
4, 259289, Note_off_c, 2, 73, 64
4, 259311, Note_on_c, 2, 77, 90
4, 259404, Note_off_c, 2, 77, 64
4, 259441, Note_on_c, 2, 73, 103
4, 259552, Note_off_c, 2, 73, 64
4, 259561, Note_on_c, 2, 78, 90
4, 259665, Note_off_c, 2, 78, 64
4, 259684, Note_on_c, 2, 70, 103
4, 259780, Note_off_c, 2, 70, 64
4, 259795, Note_on_c, 2, 78, 90
4, 259895, Note_off_c, 2, 78, 64
4, 259920, Note_on_c, 2, 73, 103
4, 260027, Note_on_c, 2, 78, 88
4, 260030, Note_off_c, 2, 73, 64
4, 260119, Note_off_c, 2, 78, 64
4, 260146, Note_on_c, 2, 73, 81
4, 260298, Note_off_c, 2, 73, 64
4, 261610, Note_on_c, 2, 70, 121
4, 261711, Note_off_c, 2, 70, 64
4, 261723, Note_on_c, 2, 73, 87
4, 261815, Note_off_c, 2, 73, 64
4, 261841, Note_on_c, 2, 66, 115
4, 261920, Note_off_c, 2, 66, 64
4, 261954, Note_on_c, 2, 73, 96
4, 262028, Note_off_c, 2, 73, 64
4, 262074, Note_on_c, 2, 70, 112
4, 262158, Note_off_c, 2, 70, 64
4, 262189, Note_on_c, 2, 73, 94
4, 262265, Note_off_c, 2, 73, 64
4, 262317, Note_on_c, 2, 70, 120
4, 262420, Note_off_c, 2, 70, 64
4, 262432, Note_on_c, 2, 73, 91
4, 262529, Note_off_c, 2, 73, 64
4, 262553, Note_on_c, 2, 66, 98
4, 262635, Note_off_c, 2, 66, 64
4, 262671, Note_on_c, 2, 73, 102
4, 262744, Note_off_c, 2, 73, 64
4, 262794, Note_on_c, 2, 70, 106
4, 262867, Note_off_c, 2, 70, 64
4, 262911, Note_on_c, 2, 73, 96
4, 262979, Note_off_c, 2, 73, 64
4, 263041, Note_on_c, 2, 59, 101
4, 263216, Note_off_c, 2, 59, 64
4, 263276, Note_on_c, 2, 63, 74
4, 263375, Note_off_c, 2, 63, 64
4, 263517, Note_on_c, 2, 66, 72
4, 263614, Note_off_c, 2, 66, 64
4, 263757, Note_on_c, 2, 63, 92
4, 263926, Note_off_c, 2, 63, 64
4, 263988, Note_on_c, 2, 66, 74
4, 264086, Note_off_c, 2, 66, 64
4, 264234, Note_on_c, 2, 71, 76
4, 264335, Note_off_c, 2, 71, 64
4, 264479, Note_on_c, 2, 65, 90
4, 264644, Note_off_c, 2, 65, 64
4, 264712, Note_on_c, 2, 68, 81
4, 264819, Note_off_c, 2, 68, 64
4, 264957, Note_on_c, 2, 73, 81
4, 265061, Note_off_c, 2, 73, 64
4, 265202, Note_on_c, 2, 68, 98
4, 265350, Note_off_c, 2, 68, 64
4, 265429, Note_on_c, 2, 73, 94
4, 265542, Note_off_c, 2, 73, 64
4, 265677, Note_on_c, 2, 77, 112
4, 265780, Note_off_c, 2, 77, 64
4, 265918, Note_on_c, 2, 78, 102
4, 266024, Note_off_c, 2, 78, 64
4, 266171, Note_on_c, 2, 66, 120
4, 266279, Note_on_c, 2, 68, 84
4, 266280, Note_off_c, 2, 66, 64
4, 266387, Note_off_c, 2, 68, 64
4, 266397, Note_on_c, 2, 70, 88
4, 266507, Note_off_c, 2, 70, 64
4, 266624, Control_c, 2, 11, 82
4, 266646, Note_on_c, 2, 61, 109
4, 266680, Control_c, 2, 11, 87
4, 266736, Control_c, 2, 11, 93
4, 266791, Control_c, 2, 11, 100
4, 266883, Note_off_c, 2, 61, 64
4, 266883, Note_on_c, 2, 66, 74
4, 266992, Note_off_c, 2, 66, 64
4, 267127, Note_on_c, 2, 65, 88
4, 267207, Note_off_c, 2, 65, 64
4, 267364, Note_on_c, 2, 66, 106
4, 267535, Note_off_c, 2, 66, 64
4, 267595, Note_on_c, 2, 70, 94
4, 267679, Note_off_c, 2, 70, 64
4, 267834, Note_on_c, 2, 73, 94
4, 267914, Note_off_c, 2, 73, 64
4, 268032, Control_c, 2, 11, 50
4, 268073, Note_on_c, 2, 78, 99
4, 268084, Control_c, 2, 11, 60
4, 268137, Control_c, 2, 11, 71
4, 268189, Control_c, 2, 11, 82
4, 268242, Control_c, 2, 11, 93
4, 268294, Control_c, 2, 11, 103
4, 268347, Control_c, 2, 11, 114
4, 268399, Control_c, 2, 11, 126
4, 268400, Control_c, 2, 11, 126
4, 268455, Control_c, 2, 11, 113
4, 268510, Control_c, 2, 11, 100
4, 268565, Control_c, 2, 11, 87
4, 268619, Control_c, 2, 11, 74
4, 268663, Control_c, 2, 11, 70
4, 268699, Note_off_c, 2, 78, 64
4, 268764, Control_c, 2, 11, 100
4, 274560, Note_on_c, 2, 70, 68
4, 274709, Note_off_c, 2, 70, 64
4, 274789, Note_on_c, 2, 75, 62
4, 274877, Note_off_c, 2, 75, 64
4, 275036, Note_on_c, 2, 78, 62
4, 275144, Note_off_c, 2, 78, 64
4, 275288, Note_on_c, 2, 71, 68
4, 275440, Note_off_c, 2, 71, 64
4, 275518, Note_on_c, 2, 75, 62
4, 275605, Note_off_c, 2, 75, 64
4, 275757, Note_on_c, 2, 78, 62
4, 275847, Note_off_c, 2, 78, 64
4, 276000, Note_on_c, 2, 70, 68
4, 276152, Note_off_c, 2, 70, 64
4, 276237, Note_on_c, 2, 75, 62
4, 276331, Note_off_c, 2, 75, 64
4, 276477, Note_on_c, 2, 78, 62
4, 276568, Note_off_c, 2, 78, 64
4, 276719, Note_on_c, 2, 68, 68
4, 276855, Note_off_c, 2, 68, 64
4, 276956, Note_on_c, 2, 75, 65
4, 277049, Note_off_c, 2, 75, 64
4, 277197, Note_on_c, 2, 78, 65
4, 277290, Note_off_c, 2, 78, 64
4, 277439, Note_on_c, 2, 70, 68
4, 277591, Note_off_c, 2, 70, 64
4, 277679, Note_on_c, 2, 75, 59
4, 277776, Note_off_c, 2, 75, 64
4, 277913, Note_on_c, 2, 78, 59
4, 278002, Note_off_c, 2, 78, 64
4, 278151, Note_on_c, 2, 71, 68
4, 278295, Note_off_c, 2, 71, 64
4, 278392, Note_on_c, 2, 75, 62
4, 278483, Note_off_c, 2, 75, 64
4, 278632, Note_on_c, 2, 78, 62
4, 278737, Note_off_c, 2, 78, 64
4, 278874, Note_on_c, 2, 70, 68
4, 279101, Note_off_c, 2, 70, 64
4, 279120, Note_on_c, 2, 75, 59
4, 279221, Note_off_c, 2, 75, 64
4, 279363, Note_on_c, 2, 74, 51
4, 279455, Note_off_c, 2, 74, 64
4, 279599, Note_on_c, 2, 75, 68
4, 280052, Note_off_c, 2, 75, 64
4, 281782, Note_on_c, 2, 63, 109
4, 281888, Note_on_c, 2, 62, 86
4, 281902, Note_off_c, 2, 63, 64
4, 281985, Note_off_c, 2, 62, 64
4, 281995, Note_on_c, 2, 63, 86
4, 282086, Note_off_c, 2, 63, 64
4, 282103, Note_on_c, 2, 65, 96
4, 282187, Note_off_c, 2, 65, 64
4, 282217, Note_on_c, 2, 66, 113
4, 282309, Note_off_c, 2, 66, 64
4, 282329, Note_on_c, 2, 68, 84
4, 282413, Note_off_c, 2, 68, 64
4, 282468, Note_on_c, 2, 70, 115
4, 282592, Note_on_c, 2, 71, 88
4, 282594, Note_off_c, 2, 70, 64
4, 282697, Note_off_c, 2, 71, 64
4, 282704, Note_on_c, 2, 70, 88
4, 282790, Note_off_c, 2, 70, 64
4, 282821, Note_on_c, 2, 68, 94
4, 282907, Note_off_c, 2, 68, 64
4, 282937, Note_on_c, 2, 66, 101
4, 283020, Note_off_c, 2, 66, 64
4, 283055, Note_on_c, 2, 65, 82
4, 283132, Note_off_c, 2, 65, 64
4, 283194, Note_on_c, 2, 66, 82
4, 283376, Note_off_c, 2, 66, 64
4, 283431, Note_on_c, 2, 70, 86
4, 283528, Note_off_c, 2, 70, 64
4, 283666, Note_on_c, 2, 75, 86
4, 283758, Note_off_c, 2, 75, 64
4, 283922, Note_on_c, 2, 74, 112
4, 284035, Note_off_c, 2, 74, 64
4, 284043, Note_on_c, 2, 75, 82
4, 284139, Note_off_c, 2, 75, 64
4, 284147, Note_on_c, 2, 74, 82
4, 284236, Note_off_c, 2, 74, 64
4, 284267, Note_on_c, 2, 72, 94
4, 284354, Note_off_c, 2, 72, 64
4, 284391, Note_on_c, 2, 70, 105
4, 284483, Note_off_c, 2, 70, 64
4, 284514, Note_on_c, 2, 68, 82
4, 284600, Note_off_c, 2, 68, 64
4, 284641, Note_on_c, 2, 66, 97
4, 284775, Note_off_c, 2, 66, 64
4, 284887, Note_on_c, 2, 63, 92
4, 284996, Note_off_c, 2, 63, 64
4, 286087, Note_on_c, 2, 70, 109
4, 286230, Note_off_c, 2, 70, 64
4, 286325, Note_on_c, 2, 75, 90
4, 286411, Note_off_c, 2, 75, 64
4, 286567, Note_on_c, 2, 70, 90
4, 286645, Note_off_c, 2, 70, 64
4, 286798, Note_on_c, 2, 72, 107
4, 286885, Note_off_c, 2, 72, 64
4, 286905, Note_on_c, 2, 73, 84
4, 286994, Note_off_c, 2, 73, 64
4, 287018, Note_on_c, 2, 72, 84
4, 287098, Note_off_c, 2, 72, 64
4, 287134, Note_on_c, 2, 70, 94
4, 287221, Note_off_c, 2, 70, 64
4, 287250, Note_on_c, 2, 68, 99
4, 287337, Note_off_c, 2, 68, 64
4, 287372, Note_on_c, 2, 66, 82
4, 287452, Note_off_c, 2, 66, 64
4, 287500, Note_on_c, 2, 68, 82
4, 287650, Note_off_c, 2, 68, 64
4, 287742, Note_on_c, 2, 73, 84
4, 287837, Note_off_c, 2, 73, 64
4, 287985, Note_on_c, 2, 68, 84
4, 288080, Note_off_c, 2, 68, 64
4, 288236, Note_on_c, 2, 70, 102
4, 288343, Note_off_c, 2, 70, 64
4, 288358, Note_on_c, 2, 72, 80
4, 288436, Note_off_c, 2, 72, 64
4, 288473, Note_on_c, 2, 70, 80
4, 288554, Note_off_c, 2, 70, 64
4, 288586, Note_on_c, 2, 68, 89
4, 288672, Note_off_c, 2, 68, 64
4, 288714, Note_on_c, 2, 66, 96
4, 288806, Note_off_c, 2, 66, 64
4, 288821, Note_on_c, 2, 65, 78
4, 288893, Note_off_c, 2, 65, 64
4, 288960, Note_on_c, 2, 63, 76
4, 289112, Note_off_c, 2, 63, 64
4, 289202, Note_on_c, 2, 72, 65
4, 289292, Note_off_c, 2, 72, 64
4, 289441, Note_on_c, 2, 78, 65
4, 289528, Note_off_c, 2, 78, 64
4, 289676, Note_on_c, 2, 69, 71
4, 289800, Note_off_c, 2, 69, 64
4, 289915, Note_on_c, 2, 72, 69
4, 290003, Note_off_c, 2, 72, 64
4, 290150, Note_on_c, 2, 77, 69
4, 290242, Note_off_c, 2, 77, 64
4, 300480, Note_on_c, 2, 69, 63
4, 300637, Note_off_c, 2, 69, 64
4, 300719, Note_on_c, 2, 72, 65
4, 300807, Note_off_c, 2, 72, 64
4, 300943, Note_on_c, 2, 77, 65
4, 301052, Note_off_c, 2, 77, 64
4, 301192, Note_on_c, 2, 70, 81
4, 301352, Note_off_c, 2, 70, 64
4, 301440, Note_on_c, 2, 73, 71
4, 301524, Note_off_c, 2, 73, 64
4, 301678, Note_on_c, 2, 77, 71
4, 301745, Note_off_c, 2, 77, 64
4, 301932, Note_on_c, 2, 69, 74
4, 302033, Note_off_c, 2, 69, 64
4, 302036, Note_on_c, 2, 72, 87
4, 302123, Note_off_c, 2, 72, 64
4, 302152, Note_on_c, 2, 65, 90
4, 302239, Note_off_c, 2, 65, 64
4, 302267, Note_on_c, 2, 72, 72
4, 302352, Note_off_c, 2, 72, 64
4, 302397, Note_on_c, 2, 69, 99
4, 302492, Note_off_c, 2, 69, 64
4, 302499, Note_on_c, 2, 72, 80
4, 302584, Note_off_c, 2, 72, 64
4, 302631, Note_on_c, 2, 70, 102
4, 302717, Note_off_c, 2, 70, 64
4, 302741, Note_on_c, 2, 73, 78
4, 302827, Note_off_c, 2, 73, 64
4, 302854, Note_on_c, 2, 65, 99
4, 302931, Note_off_c, 2, 65, 64
4, 302966, Note_on_c, 2, 73, 81
4, 303044, Note_off_c, 2, 73, 64
4, 303088, Note_on_c, 2, 70, 90
4, 303163, Note_off_c, 2, 70, 64
4, 303203, Note_on_c, 2, 73, 80
4, 303296, Note_off_c, 2, 73, 64
4, 303349, Note_on_c, 2, 72, 107
4, 303450, Note_off_c, 2, 72, 64
4, 303467, Note_on_c, 2, 75, 80
4, 303544, Note_off_c, 2, 75, 64
4, 303580, Note_on_c, 2, 65, 84
4, 303658, Note_off_c, 2, 65, 64
4, 303697, Note_on_c, 2, 75, 80
4, 303778, Note_off_c, 2, 75, 64
4, 303826, Note_on_c, 2, 72, 99
4, 303912, Note_off_c, 2, 72, 64
4, 303929, Note_on_c, 2, 75, 76
4, 304022, Note_off_c, 2, 75, 64
4, 304075, Note_on_c, 2, 73, 87
4, 304193, Note_off_c, 2, 73, 64
4, 304202, Note_on_c, 2, 77, 74
4, 304281, Note_off_c, 2, 77, 64
4, 304316, Note_on_c, 2, 65, 99
4, 304410, Note_off_c, 2, 65, 64
4, 304427, Note_on_c, 2, 77, 74
4, 304513, Note_off_c, 2, 77, 64
4, 304565, Note_on_c, 2, 73, 81
4, 304632, Note_off_c, 2, 73, 64
4, 304660, Note_on_c, 2, 77, 71
4, 304757, Note_off_c, 2, 77, 64
4, 304808, Note_on_c, 2, 75, 81
4, 304908, Note_off_c, 2, 75, 64
4, 304920, Note_on_c, 2, 69, 69
4, 305006, Note_off_c, 2, 69, 64
4, 305043, Note_on_c, 2, 75, 81
4, 305139, Note_off_c, 2, 75, 64
4, 305155, Note_on_c, 2, 69, 69
4, 305245, Note_off_c, 2, 69, 64
4, 305273, Note_on_c, 2, 75, 81
4, 305372, Note_off_c, 2, 75, 64
4, 305380, Note_on_c, 2, 69, 71
4, 305465, Note_off_c, 2, 69, 64
4, 305509, Note_on_c, 2, 73, 81
4, 305607, Note_off_c, 2, 73, 64
4, 305630, Note_on_c, 2, 70, 71
4, 305703, Note_off_c, 2, 70, 64
4, 305748, Note_on_c, 2, 73, 81
4, 305838, Note_off_c, 2, 73, 64
4, 305859, Note_on_c, 2, 70, 74
4, 305952, Note_off_c, 2, 70, 64
4, 305990, Note_on_c, 2, 73, 81
4, 306084, Note_off_c, 2, 73, 64
4, 306102, Note_on_c, 2, 70, 74
4, 306185, Note_off_c, 2, 70, 64
4, 309120, Note_on_c, 2, 63, 74
4, 309275, Note_off_c, 2, 63, 64
4, 309356, Note_on_c, 2, 66, 59
4, 309438, Note_off_c, 2, 66, 64
4, 309591, Note_on_c, 2, 70, 59
4, 309662, Note_off_c, 2, 70, 64
4, 309840, Note_on_c, 2, 66, 72
4, 309960, Note_off_c, 2, 66, 64
4, 310063, Note_on_c, 2, 70, 63
4, 310131, Note_off_c, 2, 70, 64
4, 310298, Note_on_c, 2, 75, 63
4, 310367, Note_off_c, 2, 75, 64
4, 310545, Note_on_c, 2, 69, 71
4, 310684, Note_off_c, 2, 69, 64
4, 310793, Note_on_c, 2, 72, 65
4, 310863, Note_off_c, 2, 72, 64
4, 311025, Note_on_c, 2, 77, 65
4, 311102, Note_off_c, 2, 77, 64
4, 311274, Note_on_c, 2, 72, 75
4, 311425, Note_off_c, 2, 72, 64
4, 311507, Note_on_c, 2, 77, 74
4, 311575, Note_off_c, 2, 77, 64
4, 311744, Note_on_c, 2, 81, 92
4, 311821, Note_off_c, 2, 81, 64
4, 312001, Note_on_c, 2, 82, 81
4, 312168, Note_off_c, 2, 82, 64
4, 312274, Note_on_c, 2, 70, 96
4, 312372, Note_on_c, 2, 72, 69
4, 312376, Note_off_c, 2, 70, 64
4, 312480, Note_on_c, 2, 73, 69
4, 312488, Note_off_c, 2, 72, 64
4, 312563, Note_off_c, 2, 73, 64
4, 312718, Note_on_c, 2, 65, 80
4, 312949, Note_off_c, 2, 65, 64
4, 312981, Note_on_c, 2, 70, 61
4, 313049, Note_off_c, 2, 70, 64
4, 313212, Note_on_c, 2, 69, 67
4, 313291, Note_off_c, 2, 69, 64
4, 313416, Control_c, 2, 11, 78
4, 313463, Note_on_c, 2, 70, 81
4, 313468, Control_c, 2, 11, 84
4, 313520, Control_c, 2, 11, 90
4, 313572, Control_c, 2, 11, 96
4, 313624, Control_c, 2, 11, 102
4, 313676, Control_c, 2, 11, 108
4, 313728, Control_c, 2, 11, 114
4, 313780, Control_c, 2, 11, 120
4, 313831, Control_c, 2, 11, 127
4, 313860, Control_c, 2, 11, 116
4, 313910, Control_c, 2, 11, 103
4, 313960, Control_c, 2, 11, 90
4, 314010, Control_c, 2, 11, 77
4, 314059, Control_c, 2, 11, 64
4, 314076, Control_c, 2, 11, 58
4, 314078, Note_off_c, 2, 70, 64
4, 314126, Control_c, 2, 11, 64
4, 314154, Note_on_c, 2, 58, 81
4, 314176, Control_c, 2, 11, 70
4, 314227, Control_c, 2, 11, 76
4, 314277, Control_c, 2, 11, 82
4, 314328, Control_c, 2, 11, 88
4, 314378, Control_c, 2, 11, 95
4, 314428, Control_c, 2, 11, 101
4, 314479, Control_c, 2, 11, 107
4, 314529, Control_c, 2, 11, 113
4, 314579, Control_c, 2, 11, 120
4, 314616, Control_c, 2, 11, 116
4, 314674, Control_c, 2, 11, 97
4, 314733, Control_c, 2, 11, 78
4, 314775, Note_off_c, 2, 58, 64
4, 314791, Control_c, 2, 11, 60
4, 314856, Control_c, 2, 11, 100
4, 317037, Note_on_c, 2, 66, 63
4, 317133, Note_off_c, 2, 66, 64
4, 317277, Note_on_c, 2, 63, 47
4, 317376, Note_off_c, 2, 63, 64
4, 317499, Note_on_c, 2, 66, 57
4, 317596, Note_off_c, 2, 66, 64
4, 317750, Note_on_c, 2, 70, 63
4, 317915, Note_off_c, 2, 70, 64
4, 317988, Note_on_c, 2, 70, 52
4, 318102, Note_off_c, 2, 70, 64
4, 318233, Note_on_c, 2, 70, 52
4, 318328, Note_off_c, 2, 70, 64
4, 318473, Note_on_c, 2, 70, 59
4, 318572, Note_off_c, 2, 70, 64
4, 318719, Note_on_c, 2, 70, 50
4, 318819, Note_off_c, 2, 70, 64
4, 318956, Note_on_c, 2, 70, 50
4, 319054, Note_off_c, 2, 70, 64
4, 319191, Note_on_c, 2, 70, 61
4, 319359, Note_off_c, 2, 70, 64
4, 319444, Note_on_c, 2, 68, 50
4, 319543, Note_off_c, 2, 68, 64
4, 319682, Note_on_c, 2, 67, 50
4, 319762, Note_off_c, 2, 67, 64
4, 319919, Note_on_c, 2, 68, 62
4, 320117, Note_off_c, 2, 68, 64
4, 329280, Note_on_c, 2, 68, 110
4, 329375, Note_off_c, 2, 68, 64
4, 329394, Note_on_c, 2, 71, 82
4, 329484, Note_off_c, 2, 71, 64
4, 329511, Note_on_c, 2, 62, 111
4, 329588, Note_off_c, 2, 62, 64
4, 329627, Note_on_c, 2, 71, 95
4, 329709, Note_off_c, 2, 71, 64
4, 329750, Note_on_c, 2, 68, 98
4, 329872, Note_on_c, 2, 66, 66
4, 329879, Note_off_c, 2, 68, 64
4, 329996, Note_on_c, 2, 68, 76
4, 330004, Note_off_c, 2, 66, 64
4, 330099, Note_off_c, 2, 68, 64
4, 330118, Note_on_c, 2, 71, 105
4, 330206, Note_off_c, 2, 71, 64
4, 330237, Note_on_c, 2, 62, 111
4, 330319, Note_off_c, 2, 62, 64
4, 330350, Note_on_c, 2, 71, 95
4, 330436, Note_off_c, 2, 71, 64
4, 330474, Note_on_c, 2, 68, 107
4, 330555, Note_off_c, 2, 68, 64
4, 330593, Note_on_c, 2, 71, 95
4, 330702, Note_off_c, 2, 71, 64
4, 330723, Note_on_c, 2, 61, 85
4, 330893, Note_off_c, 2, 61, 64
4, 330959, Note_on_c, 2, 66, 71
4, 331055, Note_off_c, 2, 66, 64
4, 331197, Note_on_c, 2, 70, 71
4, 331283, Note_off_c, 2, 70, 64
4, 331441, Note_on_c, 2, 66, 81
4, 331603, Note_off_c, 2, 66, 64
4, 331679, Note_on_c, 2, 70, 74
4, 331767, Note_off_c, 2, 70, 64
4, 331915, Note_on_c, 2, 73, 74
4, 331992, Note_off_c, 2, 73, 64
4, 348000, Note_on_c, 2, 70, 81
4, 348159, Note_off_c, 2, 70, 64
4, 348237, Note_on_c, 2, 73, 71
4, 348337, Note_off_c, 2, 73, 64
4, 348474, Note_on_c, 2, 78, 71
4, 348570, Note_off_c, 2, 78, 64
4, 348716, Note_on_c, 2, 68, 75
4, 348890, Note_off_c, 2, 68, 64
4, 348959, Note_on_c, 2, 71, 71
4, 349054, Note_off_c, 2, 71, 64
4, 349195, Note_on_c, 2, 77, 71
4, 349300, Note_off_c, 2, 77, 64
4, 349444, Note_on_c, 2, 66, 101
4, 349552, Note_off_c, 2, 66, 64
4, 349558, Note_on_c, 2, 65, 80
4, 349648, Note_off_c, 2, 65, 64
4, 349675, Note_on_c, 2, 66, 80
4, 349758, Note_off_c, 2, 66, 64
4, 349792, Note_on_c, 2, 68, 102
4, 349882, Note_off_c, 2, 68, 64
4, 349910, Note_on_c, 2, 70, 105
4, 350003, Note_off_c, 2, 70, 64
4, 350025, Note_on_c, 2, 71, 86
4, 350109, Note_off_c, 2, 71, 64
4, 350152, Note_on_c, 2, 73, 112
4, 350274, Note_on_c, 2, 75, 91
4, 350283, Note_off_c, 2, 73, 64
4, 350368, Note_off_c, 2, 75, 64
4, 350392, Note_on_c, 2, 73, 94
4, 350477, Note_off_c, 2, 73, 64
4, 350506, Note_on_c, 2, 71, 99
4, 350589, Note_off_c, 2, 71, 64
4, 350622, Note_on_c, 2, 70, 109
4, 350719, Note_off_c, 2, 70, 64
4, 350744, Note_on_c, 2, 68, 86
4, 350835, Note_off_c, 2, 68, 64
4, 350870, Note_on_c, 2, 70, 86
4, 351063, Note_off_c, 2, 70, 64
4, 351111, Note_on_c, 2, 73, 81
4, 351224, Note_off_c, 2, 73, 64
4, 351353, Note_on_c, 2, 78, 90
4, 351464, Note_off_c, 2, 78, 64
4, 351595, Note_on_c, 2, 77, 107
4, 351698, Note_off_c, 2, 77, 64
4, 351711, Note_on_c, 2, 78, 88
4, 351812, Note_off_c, 2, 78, 64
4, 351828, Note_on_c, 2, 77, 94
4, 351913, Note_off_c, 2, 77, 64
4, 351948, Note_on_c, 2, 75, 99
4, 352040, Note_off_c, 2, 75, 64
4, 352065, Note_on_c, 2, 73, 107
4, 352144, Note_off_c, 2, 73, 64
4, 352184, Note_on_c, 2, 71, 94
4, 352262, Note_off_c, 2, 71, 64
4, 352311, Note_on_c, 2, 70, 94
4, 352445, Note_off_c, 2, 70, 64
4, 352554, Note_on_c, 2, 66, 81
4, 352665, Note_off_c, 2, 66, 64
4, 353760, Note_on_c, 2, 73, 98
4, 353916, Note_off_c, 2, 73, 64
4, 353996, Note_on_c, 2, 78, 85
4, 354087, Note_off_c, 2, 78, 64
4, 354237, Note_on_c, 2, 73, 91
4, 354321, Note_off_c, 2, 73, 64
4, 354482, Note_on_c, 2, 75, 109
4, 354587, Note_off_c, 2, 75, 64
4, 354595, Note_on_c, 2, 77, 80
4, 354697, Note_off_c, 2, 77, 64
4, 354712, Note_on_c, 2, 75, 80
4, 354807, Note_off_c, 2, 75, 64
4, 354832, Note_on_c, 2, 73, 99
4, 354912, Note_off_c, 2, 73, 64
4, 354954, Note_on_c, 2, 71, 103
4, 355035, Note_off_c, 2, 71, 64
4, 355072, Note_on_c, 2, 70, 86
4, 355148, Note_off_c, 2, 70, 64
4, 355200, Note_on_c, 2, 68, 89
4, 355363, Note_off_c, 2, 68, 64
4, 355439, Note_on_c, 2, 77, 99
4, 355534, Note_off_c, 2, 77, 64
4, 355677, Note_on_c, 2, 68, 92
4, 355785, Note_off_c, 2, 68, 64
4, 355924, Note_on_c, 2, 73, 109
4, 356029, Note_off_c, 2, 73, 64
4, 356039, Note_on_c, 2, 75, 80
4, 356147, Note_off_c, 2, 75, 64
4, 356159, Note_on_c, 2, 73, 80
4, 356253, Note_off_c, 2, 73, 64
4, 356277, Note_on_c, 2, 71, 94
4, 356354, Note_off_c, 2, 71, 64
4, 356396, Note_on_c, 2, 70, 97
4, 356478, Note_off_c, 2, 70, 64
4, 356515, Note_on_c, 2, 68, 82
4, 356600, Note_off_c, 2, 68, 64
4, 356642, Note_on_c, 2, 70, 87
4, 356791, Note_off_c, 2, 70, 64
4, 356878, Note_on_c, 2, 75, 98
4, 356974, Note_off_c, 2, 75, 64
4, 357115, Note_on_c, 2, 70, 85
4, 357228, Note_off_c, 2, 70, 64
4, 357365, Note_on_c, 2, 71, 102
4, 357481, Note_on_c, 2, 73, 80
4, 357492, Note_off_c, 2, 71, 64
4, 357597, Note_off_c, 2, 73, 64
4, 357600, Note_on_c, 2, 71, 80
4, 357688, Note_off_c, 2, 71, 64
4, 357718, Note_on_c, 2, 70, 96
4, 357788, Note_off_c, 2, 70, 64
4, 357836, Note_on_c, 2, 68, 96
4, 357910, Note_off_c, 2, 68, 64
4, 357954, Note_on_c, 2, 66, 82
4, 358033, Note_off_c, 2, 66, 64
4, 358080, Note_on_c, 2, 68, 71
4, 358236, Note_off_c, 2, 68, 64
4, 358319, Note_on_c, 2, 65, 65
4, 358408, Note_off_c, 2, 65, 64
4, 358562, Note_on_c, 2, 61, 65
4, 358647, Note_off_c, 2, 61, 64
4, 358798, Note_on_c, 2, 70, 81
4, 358967, Note_off_c, 2, 70, 64
4, 359037, Note_on_c, 2, 66, 65
4, 359131, Note_off_c, 2, 66, 64
4, 359274, Note_on_c, 2, 61, 65
4, 359365, Note_off_c, 2, 61, 64
4, 359515, Note_on_c, 2, 68, 81
4, 359704, Note_off_c, 2, 68, 64
4, 359755, Note_on_c, 2, 65, 65
4, 359850, Note_off_c, 2, 65, 64
4, 359995, Note_on_c, 2, 61, 65
4, 360073, Note_off_c, 2, 61, 64
4, 360232, Note_on_c, 2, 66, 81
4, 360397, Note_off_c, 2, 66, 64
4, 360470, Note_on_c, 2, 61, 63
4, 360569, Note_off_c, 2, 61, 64
4, 360708, Note_on_c, 2, 58, 63
4, 360793, Note_off_c, 2, 58, 64
4, 360959, Note_on_c, 2, 65, 78
4, 361161, Note_off_c, 2, 65, 64
4, 361431, Note_on_c, 2, 73, 74
4, 361542, Note_off_c, 2, 73, 64
4, 361683, Note_on_c, 2, 66, 90
4, 361860, Note_off_c, 2, 66, 64
4, 362153, Note_on_c, 2, 73, 80
4, 362250, Note_off_c, 2, 73, 64
4, 362400, Note_on_c, 2, 73, 103
4, 362515, Note_on_c, 2, 77, 80
4, 362516, Note_off_c, 2, 73, 64
4, 362608, Note_off_c, 2, 77, 64
4, 362635, Note_on_c, 2, 68, 103
4, 362741, Note_off_c, 2, 68, 64
4, 362750, Note_on_c, 2, 77, 90
4, 362844, Note_off_c, 2, 77, 64
4, 362882, Note_on_c, 2, 73, 103
4, 362969, Note_off_c, 2, 73, 64
4, 362991, Note_on_c, 2, 77, 90
4, 363084, Note_off_c, 2, 77, 64
4, 363121, Note_on_c, 2, 73, 103
4, 363232, Note_off_c, 2, 73, 64
4, 363241, Note_on_c, 2, 78, 90
4, 363345, Note_off_c, 2, 78, 64
4, 363364, Note_on_c, 2, 70, 103
4, 363460, Note_off_c, 2, 70, 64
4, 363475, Note_on_c, 2, 78, 90
4, 363575, Note_off_c, 2, 78, 64
4, 363600, Note_on_c, 2, 73, 103
4, 363707, Note_on_c, 2, 78, 88
4, 363710, Note_off_c, 2, 73, 64
4, 363799, Note_off_c, 2, 78, 64
4, 363826, Note_on_c, 2, 73, 81
4, 363978, Note_off_c, 2, 73, 64
4, 365290, Note_on_c, 2, 70, 121
4, 365391, Note_off_c, 2, 70, 64
4, 365403, Note_on_c, 2, 73, 87
4, 365495, Note_off_c, 2, 73, 64
4, 365521, Note_on_c, 2, 66, 115
4, 365600, Note_off_c, 2, 66, 64
4, 365634, Note_on_c, 2, 73, 96
4, 365708, Note_off_c, 2, 73, 64
4, 365754, Note_on_c, 2, 70, 112
4, 365838, Note_off_c, 2, 70, 64
4, 365869, Note_on_c, 2, 73, 94
4, 365945, Note_off_c, 2, 73, 64
4, 365997, Note_on_c, 2, 70, 120
4, 366100, Note_off_c, 2, 70, 64
4, 366112, Note_on_c, 2, 73, 91
4, 366209, Note_off_c, 2, 73, 64
4, 366233, Note_on_c, 2, 66, 98
4, 366315, Note_off_c, 2, 66, 64
4, 366351, Note_on_c, 2, 73, 102
4, 366424, Note_off_c, 2, 73, 64
4, 366474, Note_on_c, 2, 70, 106
4, 366547, Note_off_c, 2, 70, 64
4, 366591, Note_on_c, 2, 73, 96
4, 366659, Note_off_c, 2, 73, 64
4, 366721, Note_on_c, 2, 59, 101
4, 366896, Note_off_c, 2, 59, 64
4, 366956, Note_on_c, 2, 63, 74
4, 367055, Note_off_c, 2, 63, 64
4, 367197, Note_on_c, 2, 66, 72
4, 367294, Note_off_c, 2, 66, 64
4, 367437, Note_on_c, 2, 63, 92
4, 367606, Note_off_c, 2, 63, 64
4, 367668, Note_on_c, 2, 66, 74
4, 367766, Note_off_c, 2, 66, 64
4, 367914, Note_on_c, 2, 71, 76
4, 368015, Note_off_c, 2, 71, 64
4, 368159, Note_on_c, 2, 65, 90
4, 368324, Note_off_c, 2, 65, 64
4, 368392, Note_on_c, 2, 68, 81
4, 368499, Note_off_c, 2, 68, 64
4, 368637, Note_on_c, 2, 73, 81
4, 368741, Note_off_c, 2, 73, 64
4, 368882, Note_on_c, 2, 68, 98
4, 369030, Note_off_c, 2, 68, 64
4, 369109, Note_on_c, 2, 73, 94
4, 369222, Note_off_c, 2, 73, 64
4, 369357, Note_on_c, 2, 77, 112
4, 369460, Note_off_c, 2, 77, 64
4, 369598, Note_on_c, 2, 78, 102
4, 369704, Note_off_c, 2, 78, 64
4, 369851, Note_on_c, 2, 66, 120
4, 369959, Note_on_c, 2, 68, 84
4, 369960, Note_off_c, 2, 66, 64
4, 370067, Note_off_c, 2, 68, 64
4, 370077, Note_on_c, 2, 70, 88
4, 370187, Note_off_c, 2, 70, 64
4, 370304, Control_c, 2, 11, 82
4, 370326, Note_on_c, 2, 61, 109
4, 370360, Control_c, 2, 11, 87
4, 370416, Control_c, 2, 11, 93
4, 370471, Control_c, 2, 11, 100
4, 370563, Note_off_c, 2, 61, 64
4, 370563, Note_on_c, 2, 66, 74
4, 370672, Note_off_c, 2, 66, 64
4, 370807, Note_on_c, 2, 65, 88
4, 370887, Note_off_c, 2, 65, 64
4, 371044, Note_on_c, 2, 66, 106
4, 371215, Note_off_c, 2, 66, 64
4, 371275, Note_on_c, 2, 70, 94
4, 371359, Note_off_c, 2, 70, 64
4, 371514, Note_on_c, 2, 73, 94
4, 371594, Note_off_c, 2, 73, 64
4, 371712, Control_c, 2, 11, 50
4, 371753, Note_on_c, 2, 78, 99
4, 371764, Control_c, 2, 11, 60
4, 371817, Control_c, 2, 11, 71
4, 371869, Control_c, 2, 11, 82
4, 371922, Control_c, 2, 11, 93
4, 371974, Control_c, 2, 11, 103
4, 372027, Control_c, 2, 11, 114
4, 372079, Control_c, 2, 11, 126
4, 372080, Control_c, 2, 11, 126
4, 372135, Control_c, 2, 11, 113
4, 372190, Control_c, 2, 11, 100
4, 372245, Control_c, 2, 11, 87
4, 372299, Control_c, 2, 11, 74
4, 372343, Control_c, 2, 11, 70
4, 372371, Note_off_c, 2, 78, 64
4, 372460, Control_c, 2, 11, 100
4, 378240, End_track
5, 0, Start_track
5, 0, Instrument_name_t, "SC88-A"
5, 0, Title_t, "Violino.3"
5, 1440, Control_c, 3, 101, 0
5, 1450, Control_c, 3, 100, 0
5, 1450, Control_c, 3, 6, 0
5, 1470, Control_c, 3, 0, 0
5, 1480, Control_c, 3, 32, 1
5, 1490, Program_c, 3, 40
5, 1500, Control_c, 3, 10, 49
5, 1510, Control_c, 3, 11, 100
5, 1520, Control_c, 3, 7, 120
5, 1530, Control_c, 3, 93, 0
5, 1540, Control_c, 3, 91, 0
5, 1550, Pitch_bend_c, 3, 8192
5, 1560, Control_c, 3, 1, 0
5, 1570, Control_c, 3, 64, 0
5, 1580, Control_c, 3, 91, 64
5, 1590, Control_c, 3, 99, 1
5, 1600, Control_c, 3, 98, 32
5, 1610, Control_c, 3, 6, 64
5, 1620, Control_c, 3, 98, 33
5, 1630, Control_c, 3, 6, 60
5, 1640, Control_c, 3, 98, 99
5, 1650, Control_c, 3, 6, 64
5, 1660, Control_c, 3, 98, 100
5, 1670, Control_c, 3, 6, 64
5, 1680, Control_c, 3, 98, 102
5, 1690, Control_c, 3, 6, 64
5, 92330, Control_c, 3, 11, 62
5, 92552, Control_c, 3, 11, 64
5, 92599, Note_on_c, 3, 62, 56
5, 92608, Control_c, 3, 11, 67
5, 92663, Control_c, 3, 11, 70
5, 92719, Control_c, 3, 11, 73
5, 92774, Control_c, 3, 11, 76
5, 92830, Control_c, 3, 11, 79
5, 92885, Control_c, 3, 11, 82
5, 92941, Control_c, 3, 11, 85
5, 92996, Control_c, 3, 11, 88
5, 93052, Control_c, 3, 11, 91
5, 93107, Control_c, 3, 11, 94
5, 93163, Control_c, 3, 11, 97
5, 93218, Control_c, 3, 11, 100
5, 93274, Control_c, 3, 11, 102
5, 93330, Control_c, 3, 11, 105
5, 93385, Control_c, 3, 11, 108
5, 93441, Control_c, 3, 11, 111
5, 93496, Control_c, 3, 11, 112
5, 93774, Control_c, 3, 11, 110
5, 93829, Control_c, 3, 11, 107
5, 93885, Control_c, 3, 11, 104
5, 93940, Control_c, 3, 11, 101
5, 93996, Control_c, 3, 11, 97
5, 94051, Control_c, 3, 11, 94
5, 94107, Control_c, 3, 11, 90
5, 94163, Control_c, 3, 11, 87
5, 94218, Control_c, 3, 11, 83
5, 94274, Control_c, 3, 11, 80
5, 94329, Control_c, 3, 11, 76
5, 94385, Control_c, 3, 11, 73
5, 94440, Control_c, 3, 11, 71
5, 94496, Control_c, 3, 11, 70
5, 94551, Control_c, 3, 11, 69
5, 94607, Control_c, 3, 11, 68
5, 94662, Control_c, 3, 11, 67
5, 94718, Control_c, 3, 11, 66
5, 94773, Control_c, 3, 11, 65
5, 94829, Control_c, 3, 11, 64
5, 94884, Control_c, 3, 11, 63
5, 94940, Control_c, 3, 11, 62
5, 94996, Control_c, 3, 11, 61
5, 95051, Control_c, 3, 11, 60
5, 95107, Control_c, 3, 11, 59
5, 95162, Control_c, 3, 11, 58
5, 95218, Control_c, 3, 11, 57
5, 95273, Control_c, 3, 11, 51
5, 95329, Control_c, 3, 11, 45
5, 95384, Control_c, 3, 11, 40
5, 95440, Control_c, 3, 11, 38
5, 95479, Note_off_c, 3, 62, 64
5, 95508, Control_c, 3, 11, 100
5, 98880, Note_on_c, 3, 66, 121
5, 98997, Note_on_c, 3, 65, 101
5, 99003, Note_off_c, 3, 66, 64
5, 99090, Note_off_c, 3, 65, 64
5, 99116, Note_on_c, 3, 66, 90
5, 99216, Note_off_c, 3, 66, 64
5, 99237, Note_on_c, 3, 68, 107
5, 99315, Note_off_c, 3, 68, 64
5, 99356, Note_on_c, 3, 70, 121
5, 99426, Note_off_c, 3, 70, 64
5, 99464, Note_on_c, 3, 71, 101
5, 99541, Note_off_c, 3, 71, 64
5, 99595, Note_on_c, 3, 73, 121
5, 99697, Note_off_c, 3, 73, 64
5, 99708, Note_on_c, 3, 75, 94
5, 99801, Note_off_c, 3, 75, 64
5, 99829, Note_on_c, 3, 73, 114
5, 99912, Note_off_c, 3, 73, 64
5, 99949, Note_on_c, 3, 71, 96
5, 100033, Note_off_c, 3, 71, 64
5, 100069, Note_on_c, 3, 70, 109
5, 100152, Note_off_c, 3, 70, 64
5, 100156, Note_on_c, 3, 68, 92
5, 100241, Note_off_c, 3, 68, 64
5, 100304, Note_on_c, 3, 70, 100
5, 100469, Note_off_c, 3, 70, 64
5, 100554, Note_on_c, 3, 73, 109
5, 100628, Note_off_c, 3, 73, 64
5, 100792, Note_on_c, 3, 78, 102
5, 100870, Note_off_c, 3, 78, 64
5, 101035, Note_on_c, 3, 77, 112
5, 101139, Note_off_c, 3, 77, 64
5, 101151, Note_on_c, 3, 78, 91
5, 101243, Note_off_c, 3, 78, 64
5, 101269, Note_on_c, 3, 77, 112
5, 101363, Note_off_c, 3, 77, 64
5, 101389, Note_on_c, 3, 75, 92
5, 101475, Note_off_c, 3, 75, 64
5, 101510, Note_on_c, 3, 73, 103
5, 101595, Note_off_c, 3, 73, 64
5, 101620, Note_on_c, 3, 71, 82
5, 101697, Note_off_c, 3, 71, 64
5, 101755, Note_on_c, 3, 73, 106
5, 101866, Note_off_c, 3, 73, 64
5, 101873, Note_on_c, 3, 75, 87
5, 101966, Note_off_c, 3, 75, 64
5, 101990, Note_on_c, 3, 73, 94
5, 102079, Note_off_c, 3, 73, 64
5, 102108, Note_on_c, 3, 71, 101
5, 102202, Note_off_c, 3, 71, 64
5, 102225, Note_on_c, 3, 70, 94
5, 102309, Note_off_c, 3, 70, 64
5, 102343, Note_on_c, 3, 68, 96
5, 102422, Note_off_c, 3, 68, 64
5, 102472, Note_on_c, 3, 66, 115
5, 102630, Note_off_c, 3, 66, 64
5, 102714, Note_on_c, 3, 71, 96
5, 102777, Note_off_c, 3, 71, 64
5, 102954, Note_on_c, 3, 66, 109
5, 103021, Note_off_c, 3, 66, 64
5, 103198, Note_on_c, 3, 68, 112
5, 103291, Note_off_c, 3, 68, 64
5, 103315, Note_on_c, 3, 73, 109
5, 103417, Note_off_c, 3, 73, 64
5, 103429, Note_on_c, 3, 72, 102
5, 103526, Note_off_c, 3, 72, 64
5, 103547, Note_on_c, 3, 70, 106
5, 103635, Note_off_c, 3, 70, 64
5, 103668, Note_on_c, 3, 68, 98
5, 103750, Note_off_c, 3, 68, 64
5, 103788, Note_on_c, 3, 66, 115
5, 103859, Note_off_c, 3, 66, 64
5, 103910, Note_on_c, 3, 65, 102
5, 104077, Note_off_c, 3, 65, 64
5, 104157, Note_on_c, 3, 70, 109
5, 104227, Note_off_c, 3, 70, 64
5, 104397, Note_on_c, 3, 65, 99
5, 104468, Note_off_c, 3, 65, 64
5, 104639, Note_on_c, 3, 66, 112
5, 104741, Note_off_c, 3, 66, 64
5, 104759, Note_on_c, 3, 71, 106
5, 104872, Note_off_c, 3, 71, 64
5, 104875, Note_on_c, 3, 70, 94
5, 104966, Note_off_c, 3, 70, 64
5, 104993, Note_on_c, 3, 68, 101
5, 105078, Note_off_c, 3, 68, 64
5, 105109, Note_on_c, 3, 66, 96
5, 105187, Note_off_c, 3, 66, 64
5, 105226, Note_on_c, 3, 65, 99
5, 105302, Note_off_c, 3, 65, 64
5, 105352, Note_on_c, 3, 63, 112
5, 105537, Note_off_c, 3, 63, 64
5, 105602, Note_on_c, 3, 68, 112
5, 105678, Note_off_c, 3, 68, 64
5, 105837, Note_on_c, 3, 72, 93
5, 105907, Note_off_c, 3, 72, 64
5, 116636, Note_on_c, 3, 75, 81
5, 116776, Note_off_c, 3, 75, 64
5, 117356, Note_on_c, 3, 77, 82
5, 117456, Note_off_c, 3, 77, 64
5, 118075, Note_on_c, 3, 78, 81
5, 118193, Note_off_c, 3, 78, 64
5, 118796, Note_on_c, 3, 80, 85
5, 118875, Note_off_c, 3, 80, 64
5, 119043, Note_on_c, 3, 72, 112
5, 119155, Note_off_c, 3, 72, 64
5, 119157, Note_on_c, 3, 75, 87
5, 119248, Note_off_c, 3, 75, 64
5, 119276, Note_on_c, 3, 68, 101
5, 119371, Note_off_c, 3, 68, 64
5, 119393, Note_on_c, 3, 75, 98
5, 119479, Note_off_c, 3, 75, 64
5, 119513, Note_on_c, 3, 72, 99
5, 119615, Note_off_c, 3, 72, 64
5, 119630, Note_on_c, 3, 75, 98
5, 119727, Note_off_c, 3, 75, 64
5, 119759, Note_on_c, 3, 73, 112
5, 119874, Note_off_c, 3, 73, 64
5, 119876, Note_on_c, 3, 77, 77
5, 119974, Note_off_c, 3, 77, 64
5, 119996, Note_on_c, 3, 68, 94
5, 120087, Note_off_c, 3, 68, 64
5, 120111, Note_on_c, 3, 77, 99
5, 120190, Note_off_c, 3, 77, 64
5, 120232, Note_on_c, 3, 73, 98
5, 120314, Note_off_c, 3, 73, 64
5, 120349, Note_on_c, 3, 77, 95
5, 120422, Note_off_c, 3, 77, 64
5, 120475, Note_on_c, 3, 75, 109
5, 120585, Note_off_c, 3, 75, 64
5, 120591, Note_on_c, 3, 78, 91
5, 120697, Note_off_c, 3, 78, 64
5, 120711, Note_on_c, 3, 68, 94
5, 120799, Note_off_c, 3, 68, 64
5, 120827, Note_on_c, 3, 78, 112
5, 120921, Note_off_c, 3, 78, 64
5, 120951, Note_on_c, 3, 75, 112
5, 121024, Note_off_c, 3, 75, 64
5, 121069, Note_on_c, 3, 78, 102
5, 121153, Note_off_c, 3, 78, 64
5, 121195, Note_on_c, 3, 77, 112
5, 121312, Note_on_c, 3, 80, 106
5, 121313, Note_off_c, 3, 77, 64
5, 121424, Note_off_c, 3, 80, 64
5, 121435, Note_on_c, 3, 68, 96
5, 121522, Note_off_c, 3, 68, 64
5, 121551, Note_on_c, 3, 80, 115
5, 121643, Note_off_c, 3, 80, 64
5, 121671, Note_on_c, 3, 77, 107
5, 121752, Note_off_c, 3, 77, 64
5, 121788, Note_on_c, 3, 80, 109
5, 121891, Note_off_c, 3, 80, 64
5, 133440, Note_on_c, 3, 66, 121
5, 133557, Note_on_c, 3, 65, 101
5, 133563, Note_off_c, 3, 66, 64
5, 133650, Note_off_c, 3, 65, 64
5, 133676, Note_on_c, 3, 66, 90
5, 133776, Note_off_c, 3, 66, 64
5, 133797, Note_on_c, 3, 68, 107
5, 133875, Note_off_c, 3, 68, 64
5, 133916, Note_on_c, 3, 70, 121
5, 133986, Note_off_c, 3, 70, 64
5, 134024, Note_on_c, 3, 71, 101
5, 134101, Note_off_c, 3, 71, 64
5, 134155, Note_on_c, 3, 73, 121
5, 134257, Note_off_c, 3, 73, 64
5, 134268, Note_on_c, 3, 75, 94
5, 134353, Note_off_c, 3, 75, 64
5, 134389, Note_on_c, 3, 73, 114
5, 134460, Note_off_c, 3, 73, 64
5, 134509, Note_on_c, 3, 71, 96
5, 134589, Note_off_c, 3, 71, 64
5, 134629, Note_on_c, 3, 70, 109
5, 134704, Note_off_c, 3, 70, 64
5, 134716, Note_on_c, 3, 68, 92
5, 134793, Note_off_c, 3, 68, 64
5, 134864, Note_on_c, 3, 70, 100
5, 135029, Note_off_c, 3, 70, 64
5, 135114, Note_on_c, 3, 73, 109
5, 135188, Note_off_c, 3, 73, 64
5, 135352, Note_on_c, 3, 78, 102
5, 135430, Note_off_c, 3, 78, 64
5, 135595, Note_on_c, 3, 77, 112
5, 135699, Note_off_c, 3, 77, 64
5, 135711, Note_on_c, 3, 78, 91
5, 135803, Note_off_c, 3, 78, 64
5, 135829, Note_on_c, 3, 77, 112
5, 135923, Note_off_c, 3, 77, 64
5, 135949, Note_on_c, 3, 75, 92
5, 136035, Note_off_c, 3, 75, 64
5, 136070, Note_on_c, 3, 73, 103
5, 136155, Note_off_c, 3, 73, 64
5, 136180, Note_on_c, 3, 71, 82
5, 136257, Note_off_c, 3, 71, 64
5, 136315, Note_on_c, 3, 73, 106
5, 136426, Note_off_c, 3, 73, 64
5, 136433, Note_on_c, 3, 75, 87
5, 136526, Note_off_c, 3, 75, 64
5, 136550, Note_on_c, 3, 73, 94
5, 136639, Note_off_c, 3, 73, 64
5, 136668, Note_on_c, 3, 71, 101
5, 136762, Note_off_c, 3, 71, 64
5, 136785, Note_on_c, 3, 70, 94
5, 136869, Note_off_c, 3, 70, 64
5, 136903, Note_on_c, 3, 68, 96
5, 136982, Note_off_c, 3, 68, 64
5, 137032, Note_on_c, 3, 66, 115
5, 137190, Note_off_c, 3, 66, 64
5, 137274, Note_on_c, 3, 71, 96
5, 137337, Note_off_c, 3, 71, 64
5, 137514, Note_on_c, 3, 66, 109
5, 137581, Note_off_c, 3, 66, 64
5, 137758, Note_on_c, 3, 68, 112
5, 137851, Note_off_c, 3, 68, 64
5, 137875, Note_on_c, 3, 73, 109
5, 137977, Note_off_c, 3, 73, 64
5, 137989, Note_on_c, 3, 72, 102
5, 138086, Note_off_c, 3, 72, 64
5, 138107, Note_on_c, 3, 70, 106
5, 138195, Note_off_c, 3, 70, 64
5, 138228, Note_on_c, 3, 68, 98
5, 138310, Note_off_c, 3, 68, 64
5, 138348, Note_on_c, 3, 66, 115
5, 138419, Note_off_c, 3, 66, 64
5, 138470, Note_on_c, 3, 65, 102
5, 138637, Note_off_c, 3, 65, 64
5, 138717, Note_on_c, 3, 70, 109
5, 138787, Note_off_c, 3, 70, 64
5, 138957, Note_on_c, 3, 65, 99
5, 139028, Note_off_c, 3, 65, 64
5, 139199, Note_on_c, 3, 66, 112
5, 139301, Note_off_c, 3, 66, 64
5, 139319, Note_on_c, 3, 71, 106
5, 139432, Note_off_c, 3, 71, 64
5, 139435, Note_on_c, 3, 70, 94
5, 139526, Note_off_c, 3, 70, 64
5, 139553, Note_on_c, 3, 68, 101
5, 139638, Note_off_c, 3, 68, 64
5, 139669, Note_on_c, 3, 66, 96
5, 139747, Note_off_c, 3, 66, 64
5, 139786, Note_on_c, 3, 65, 99
5, 139862, Note_off_c, 3, 65, 64
5, 139912, Note_on_c, 3, 63, 112
5, 140097, Note_off_c, 3, 63, 64
5, 140162, Note_on_c, 3, 68, 112
5, 140238, Note_off_c, 3, 68, 64
5, 140397, Note_on_c, 3, 72, 93
5, 140467, Note_off_c, 3, 72, 64
5, 151196, Note_on_c, 3, 75, 81
5, 151336, Note_off_c, 3, 75, 64
5, 151916, Note_on_c, 3, 77, 82
5, 152016, Note_off_c, 3, 77, 64
5, 152635, Note_on_c, 3, 78, 81
5, 152753, Note_off_c, 3, 78, 64
5, 153356, Note_on_c, 3, 80, 85
5, 153435, Note_off_c, 3, 80, 64
5, 153603, Note_on_c, 3, 72, 112
5, 153715, Note_off_c, 3, 72, 64
5, 153717, Note_on_c, 3, 75, 87
5, 153808, Note_off_c, 3, 75, 64
5, 153836, Note_on_c, 3, 68, 101
5, 153931, Note_off_c, 3, 68, 64
5, 153953, Note_on_c, 3, 75, 98
5, 154039, Note_off_c, 3, 75, 64
5, 154073, Note_on_c, 3, 72, 99
5, 154175, Note_off_c, 3, 72, 64
5, 154190, Note_on_c, 3, 75, 98
5, 154287, Note_off_c, 3, 75, 64
5, 154319, Note_on_c, 3, 73, 112
5, 154434, Note_off_c, 3, 73, 64
5, 154436, Note_on_c, 3, 77, 77
5, 154534, Note_off_c, 3, 77, 64
5, 154556, Note_on_c, 3, 68, 94
5, 154647, Note_off_c, 3, 68, 64
5, 154671, Note_on_c, 3, 77, 99
5, 154750, Note_off_c, 3, 77, 64
5, 154792, Note_on_c, 3, 73, 98
5, 154874, Note_off_c, 3, 73, 64
5, 154909, Note_on_c, 3, 77, 95
5, 154982, Note_off_c, 3, 77, 64
5, 155035, Note_on_c, 3, 75, 109
5, 155145, Note_off_c, 3, 75, 64
5, 155151, Note_on_c, 3, 78, 91
5, 155257, Note_off_c, 3, 78, 64
5, 155271, Note_on_c, 3, 68, 94
5, 155359, Note_off_c, 3, 68, 64
5, 155387, Note_on_c, 3, 78, 112
5, 155481, Note_off_c, 3, 78, 64
5, 155511, Note_on_c, 3, 75, 112
5, 155584, Note_off_c, 3, 75, 64
5, 155629, Note_on_c, 3, 78, 102
5, 155713, Note_off_c, 3, 78, 64
5, 155755, Note_on_c, 3, 77, 112
5, 155872, Note_on_c, 3, 80, 106
5, 155873, Note_off_c, 3, 77, 64
5, 155984, Note_off_c, 3, 80, 64
5, 155995, Note_on_c, 3, 68, 96
5, 156082, Note_off_c, 3, 68, 64
5, 156111, Note_on_c, 3, 80, 115
5, 156203, Note_off_c, 3, 80, 64
5, 156231, Note_on_c, 3, 77, 107
5, 156312, Note_off_c, 3, 77, 64
5, 156348, Note_on_c, 3, 80, 109
5, 156451, Note_off_c, 3, 80, 64
5, 179520, Note_on_c, 3, 63, 104
5, 179636, Note_on_c, 3, 62, 95
5, 179641, Note_off_c, 3, 63, 64
5, 179738, Note_off_c, 3, 62, 64
5, 179753, Note_on_c, 3, 63, 84
5, 179840, Note_off_c, 3, 63, 64
5, 179871, Note_on_c, 3, 65, 95
5, 179941, Note_off_c, 3, 65, 64
5, 179984, Note_on_c, 3, 66, 100
5, 180067, Note_off_c, 3, 66, 64
5, 180100, Note_on_c, 3, 68, 93
5, 180183, Note_off_c, 3, 68, 64
5, 180238, Note_on_c, 3, 70, 120
5, 180359, Note_on_c, 3, 71, 94
5, 180362, Note_off_c, 3, 70, 64
5, 180460, Note_off_c, 3, 71, 64
5, 180467, Note_on_c, 3, 70, 92
5, 180546, Note_off_c, 3, 70, 64
5, 180580, Note_on_c, 3, 68, 106
5, 180660, Note_off_c, 3, 68, 64
5, 180698, Note_on_c, 3, 66, 111
5, 180786, Note_off_c, 3, 66, 64
5, 180817, Note_on_c, 3, 65, 95
5, 180889, Note_off_c, 3, 65, 64
5, 180951, Note_on_c, 3, 66, 88
5, 181107, Note_off_c, 3, 66, 64
5, 181178, Note_on_c, 3, 70, 88
5, 181272, Note_off_c, 3, 70, 64
5, 181425, Note_on_c, 3, 75, 88
5, 181521, Note_off_c, 3, 75, 64
5, 181677, Note_on_c, 3, 74, 112
5, 181763, Note_off_c, 3, 74, 64
5, 181781, Note_on_c, 3, 75, 85
5, 181865, Note_off_c, 3, 75, 64
5, 181897, Note_on_c, 3, 74, 112
5, 181974, Note_off_c, 3, 74, 64
5, 182022, Note_on_c, 3, 72, 102
5, 182106, Note_off_c, 3, 72, 64
5, 182141, Note_on_c, 3, 70, 93
5, 182227, Note_off_c, 3, 70, 64
5, 182260, Note_on_c, 3, 68, 92
5, 182342, Note_off_c, 3, 68, 64
5, 182409, Note_on_c, 3, 70, 94
5, 182500, Note_off_c, 3, 70, 64
5, 182521, Note_on_c, 3, 72, 79
5, 182601, Note_off_c, 3, 72, 64
5, 182630, Note_on_c, 3, 70, 79
5, 182722, Note_off_c, 3, 70, 64
5, 182743, Note_on_c, 3, 68, 89
5, 182839, Note_off_c, 3, 68, 64
5, 182863, Note_on_c, 3, 66, 96
5, 182958, Note_off_c, 3, 66, 64
5, 182976, Note_on_c, 3, 65, 80
5, 183071, Note_off_c, 3, 65, 64
5, 183105, Note_on_c, 3, 63, 80
5, 183254, Note_off_c, 3, 63, 64
5, 183344, Note_on_c, 3, 68, 80
5, 183443, Note_off_c, 3, 68, 64
5, 183591, Note_on_c, 3, 63, 80
5, 183700, Note_off_c, 3, 63, 64
5, 183822, Note_on_c, 3, 65, 95
5, 183921, Note_off_c, 3, 65, 64
5, 183943, Note_on_c, 3, 70, 102
5, 184035, Note_off_c, 3, 70, 64
5, 184057, Note_on_c, 3, 68, 87
5, 184143, Note_off_c, 3, 68, 64
5, 184172, Note_on_c, 3, 66, 92
5, 184255, Note_off_c, 3, 66, 64
5, 184288, Note_on_c, 3, 65, 105
5, 184359, Note_off_c, 3, 65, 64
5, 184405, Note_on_c, 3, 63, 88
5, 184483, Note_off_c, 3, 63, 64
5, 184548, Note_on_c, 3, 61, 101
5, 184704, Note_off_c, 3, 61, 64
5, 184786, Note_on_c, 3, 66, 78
5, 184870, Note_off_c, 3, 66, 64
5, 185045, Note_on_c, 3, 61, 78
5, 185143, Note_off_c, 3, 61, 64
5, 185284, Note_on_c, 3, 63, 96
5, 185389, Note_off_c, 3, 63, 64
5, 185409, Note_on_c, 3, 68, 93
5, 185492, Note_off_c, 3, 68, 64
5, 185518, Note_on_c, 3, 66, 85
5, 185610, Note_off_c, 3, 66, 64
5, 185635, Note_on_c, 3, 65, 82
5, 185720, Note_off_c, 3, 65, 64
5, 185749, Note_on_c, 3, 63, 97
5, 185827, Note_off_c, 3, 63, 64
5, 185849, Note_on_c, 3, 61, 78
5, 185929, Note_off_c, 3, 61, 64
5, 185978, Note_on_c, 3, 60, 84
5, 186139, Note_off_c, 3, 60, 64
5, 186233, Note_on_c, 3, 65, 80
5, 186317, Note_off_c, 3, 65, 64
5, 186480, Note_on_c, 3, 69, 80
5, 186562, Note_off_c, 3, 69, 64
5, 196800, Note_on_c, 3, 69, 41
5, 196933, Note_off_c, 3, 69, 64
5, 197287, Note_on_c, 3, 72, 62
5, 197374, Note_off_c, 3, 72, 64
5, 197534, Note_on_c, 3, 70, 52
5, 197648, Note_off_c, 3, 70, 64
5, 198002, Note_on_c, 3, 73, 81
5, 198071, Note_off_c, 3, 73, 64
5, 198258, Note_on_c, 3, 72, 64
5, 198398, Note_off_c, 3, 72, 64
5, 198712, Note_on_c, 3, 75, 81
5, 198793, Note_off_c, 3, 75, 64
5, 198968, Note_on_c, 3, 73, 81
5, 199115, Note_off_c, 3, 73, 64
5, 199399, Note_on_c, 3, 77, 71
5, 199468, Note_off_c, 3, 77, 64
5, 199687, Note_on_c, 3, 69, 112
5, 199787, Note_off_c, 3, 69, 64
5, 199796, Note_on_c, 3, 72, 89
5, 199876, Note_off_c, 3, 72, 64
5, 199908, Note_on_c, 3, 65, 81
5, 199990, Note_off_c, 3, 65, 64
5, 200022, Note_on_c, 3, 72, 89
5, 200097, Note_off_c, 3, 72, 64
5, 200149, Note_on_c, 3, 69, 99
5, 200238, Note_off_c, 3, 69, 64
5, 200264, Note_on_c, 3, 72, 95
5, 200348, Note_off_c, 3, 72, 64
5, 200395, Note_on_c, 3, 70, 92
5, 200487, Note_off_c, 3, 70, 64
5, 200510, Note_on_c, 3, 73, 81
5, 200589, Note_off_c, 3, 73, 64
5, 200632, Note_on_c, 3, 65, 85
5, 200723, Note_off_c, 3, 65, 64
5, 200751, Note_on_c, 3, 73, 81
5, 200833, Note_off_c, 3, 73, 64
5, 200879, Note_on_c, 3, 70, 81
5, 200958, Note_off_c, 3, 70, 64
5, 200991, Note_on_c, 3, 73, 81
5, 201078, Note_off_c, 3, 73, 64
5, 201123, Note_on_c, 3, 72, 102
5, 201233, Note_off_c, 3, 72, 64
5, 201244, Note_on_c, 3, 75, 92
5, 201332, Note_off_c, 3, 75, 64
5, 201361, Note_on_c, 3, 65, 82
5, 201449, Note_off_c, 3, 65, 64
5, 201471, Note_on_c, 3, 75, 89
5, 201564, Note_off_c, 3, 75, 64
5, 201587, Note_on_c, 3, 72, 95
5, 201666, Note_off_c, 3, 72, 64
5, 201701, Note_on_c, 3, 75, 92
5, 201791, Note_off_c, 3, 75, 64
5, 201834, Note_on_c, 3, 73, 96
5, 201922, Note_off_c, 3, 73, 64
5, 201942, Note_on_c, 3, 77, 95
5, 202023, Note_off_c, 3, 77, 64
5, 202060, Note_on_c, 3, 65, 95
5, 202145, Note_off_c, 3, 65, 64
5, 202175, Note_on_c, 3, 77, 80
5, 202257, Note_off_c, 3, 77, 64
5, 202301, Note_on_c, 3, 73, 84
5, 202368, Note_off_c, 3, 73, 64
5, 202419, Note_on_c, 3, 77, 87
5, 202509, Note_off_c, 3, 77, 64
5, 214064, Note_on_c, 3, 63, 74
5, 214193, Note_off_c, 3, 63, 64
5, 214313, Note_on_c, 3, 63, 77
5, 214434, Note_off_c, 3, 63, 64
5, 214562, Note_on_c, 3, 63, 81
5, 214683, Note_off_c, 3, 63, 64
5, 214796, Note_on_c, 3, 65, 63
5, 214900, Note_off_c, 3, 65, 64
5, 215045, Note_on_c, 3, 65, 62
5, 215132, Note_off_c, 3, 65, 64
5, 215284, Note_on_c, 3, 65, 63
5, 215366, Note_off_c, 3, 65, 64
5, 215515, Note_on_c, 3, 65, 61
5, 215688, Note_off_c, 3, 65, 64
5, 215770, Note_on_c, 3, 63, 81
5, 215860, Note_off_c, 3, 63, 64
5, 216001, Note_on_c, 3, 63, 81
5, 216094, Note_off_c, 3, 63, 64
5, 216246, Note_on_c, 3, 63, 75
5, 216538, Note_off_c, 3, 63, 64
5, 225600, Note_on_c, 3, 62, 121
5, 225700, Note_off_c, 3, 62, 64
5, 225719, Note_on_c, 3, 68, 81
5, 225801, Note_off_c, 3, 68, 64
5, 225835, Note_on_c, 3, 59, 93
5, 225924, Note_off_c, 3, 59, 64
5, 225951, Note_on_c, 3, 68, 84
5, 226025, Note_off_c, 3, 68, 64
5, 226075, Note_on_c, 3, 62, 117
5, 226194, Note_on_c, 3, 61, 81
5, 226198, Note_off_c, 3, 62, 64
5, 226316, Note_on_c, 3, 62, 61
5, 226322, Note_off_c, 3, 61, 64
5, 226412, Note_off_c, 3, 62, 64
5, 226436, Note_on_c, 3, 68, 81
5, 226513, Note_off_c, 3, 68, 64
5, 226553, Note_on_c, 3, 59, 96
5, 226640, Note_off_c, 3, 59, 64
5, 226673, Note_on_c, 3, 68, 81
5, 226746, Note_off_c, 3, 68, 64
5, 226792, Note_on_c, 3, 62, 95
5, 226855, Note_off_c, 3, 62, 64
5, 226909, Note_on_c, 3, 68, 81
5, 226977, Note_off_c, 3, 68, 64
5, 227043, Note_on_c, 3, 58, 84
5, 227173, Note_off_c, 3, 58, 64
5, 227281, Note_on_c, 3, 61, 71
5, 227380, Note_off_c, 3, 61, 64
5, 227518, Note_on_c, 3, 66, 71
5, 227602, Note_off_c, 3, 66, 64
5, 227764, Note_on_c, 3, 61, 81
5, 227890, Note_off_c, 3, 61, 64
5, 228001, Note_on_c, 3, 66, 72
5, 228094, Note_off_c, 3, 66, 64
5, 228237, Note_on_c, 3, 70, 72
5, 228318, Note_off_c, 3, 70, 64
5, 244320, Note_on_c, 3, 70, 77
5, 244420, Note_off_c, 3, 70, 64
5, 244559, Note_on_c, 3, 61, 68
5, 244646, Note_off_c, 3, 61, 64
5, 244797, Note_on_c, 3, 61, 68
5, 244892, Note_off_c, 3, 61, 64
5, 245038, Note_on_c, 3, 61, 68
5, 245124, Note_off_c, 3, 61, 64
5, 245272, Note_on_c, 3, 61, 68
5, 245353, Note_off_c, 3, 61, 64
5, 245509, Note_on_c, 3, 61, 68
5, 245599, Note_off_c, 3, 61, 64
5, 245756, Note_on_c, 3, 61, 74
5, 245851, Note_off_c, 3, 61, 64
5, 245996, Note_on_c, 3, 61, 68
5, 246087, Note_off_c, 3, 61, 64
5, 246235, Note_on_c, 3, 61, 68
5, 246331, Note_off_c, 3, 61, 64
5, 246477, Note_on_c, 3, 61, 68
5, 246565, Note_off_c, 3, 61, 64
5, 246717, Note_on_c, 3, 61, 68
5, 246803, Note_off_c, 3, 61, 64
5, 246953, Note_on_c, 3, 61, 68
5, 247052, Note_off_c, 3, 61, 64
5, 247195, Note_on_c, 3, 61, 74
5, 247298, Note_off_c, 3, 61, 64
5, 247431, Note_on_c, 3, 61, 68
5, 247541, Note_off_c, 3, 61, 64
5, 247675, Note_on_c, 3, 61, 71
5, 247767, Note_off_c, 3, 61, 64
5, 247918, Note_on_c, 3, 61, 77
5, 248019, Note_off_c, 3, 61, 64
5, 248163, Note_on_c, 3, 61, 73
5, 248248, Note_off_c, 3, 61, 64
5, 248401, Note_on_c, 3, 61, 77
5, 248483, Note_off_c, 3, 61, 64
5, 248637, Note_on_c, 3, 61, 88
5, 248814, Note_off_c, 3, 61, 64
5, 248879, Note_on_c, 3, 73, 121
5, 248975, Note_off_c, 3, 73, 64
5, 249117, Note_on_c, 3, 78, 118
5, 249214, Note_off_c, 3, 78, 64
5, 249364, Note_on_c, 3, 77, 117
5, 249469, Note_off_c, 3, 77, 64
5, 249478, Note_on_c, 3, 78, 102
5, 249576, Note_off_c, 3, 78, 64
5, 249590, Note_on_c, 3, 77, 99
5, 249673, Note_off_c, 3, 77, 64
5, 249713, Note_on_c, 3, 75, 115
5, 249796, Note_off_c, 3, 75, 64
5, 249833, Note_on_c, 3, 73, 109
5, 249903, Note_off_c, 3, 73, 64
5, 249955, Note_on_c, 3, 71, 101
5, 250030, Note_off_c, 3, 71, 64
5, 250080, Note_on_c, 3, 70, 101
5, 250192, Note_off_c, 3, 70, 64
5, 250197, Note_on_c, 3, 75, 107
5, 250314, Note_off_c, 3, 75, 64
5, 250315, Note_on_c, 3, 73, 86
5, 250399, Note_off_c, 3, 73, 64
5, 250435, Note_on_c, 3, 71, 105
5, 250524, Note_off_c, 3, 71, 64
5, 250555, Note_on_c, 3, 70, 106
5, 250641, Note_off_c, 3, 70, 64
5, 250671, Note_on_c, 3, 68, 80
5, 250762, Note_off_c, 3, 68, 64
5, 250801, Note_on_c, 3, 66, 80
5, 250961, Note_off_c, 3, 66, 64
5, 251038, Note_on_c, 3, 71, 74
5, 251121, Note_off_c, 3, 71, 64
5, 251283, Note_on_c, 3, 66, 74
5, 251379, Note_off_c, 3, 66, 64
5, 251521, Note_on_c, 3, 68, 98
5, 251632, Note_off_c, 3, 68, 64
5, 251638, Note_on_c, 3, 73, 85
5, 251723, Note_off_c, 3, 73, 64
5, 251755, Note_on_c, 3, 71, 82
5, 251844, Note_off_c, 3, 71, 64
5, 251871, Note_on_c, 3, 70, 94
5, 251957, Note_off_c, 3, 70, 64
5, 251993, Note_on_c, 3, 68, 94
5, 252084, Note_off_c, 3, 68, 64
5, 252110, Note_on_c, 3, 66, 84
5, 252211, Note_off_c, 3, 66, 64
5, 252235, Note_on_c, 3, 65, 84
5, 252382, Note_off_c, 3, 65, 64
5, 252476, Note_on_c, 3, 70, 80
5, 252560, Note_off_c, 3, 70, 64
5, 252719, Note_on_c, 3, 65, 80
5, 252809, Note_off_c, 3, 65, 64
5, 252963, Note_on_c, 3, 66, 88
5, 253066, Note_off_c, 3, 66, 64
5, 253079, Note_on_c, 3, 71, 96
5, 253185, Note_off_c, 3, 71, 64
5, 253193, Note_on_c, 3, 70, 96
5, 253289, Note_off_c, 3, 70, 64
5, 253309, Note_on_c, 3, 68, 96
5, 253400, Note_off_c, 3, 68, 64
5, 253434, Note_on_c, 3, 66, 101
5, 253522, Note_off_c, 3, 66, 64
5, 253555, Note_on_c, 3, 65, 82
5, 253642, Note_off_c, 3, 65, 64
5, 253680, Note_on_c, 3, 63, 82
5, 253824, Note_off_c, 3, 63, 64
5, 253921, Note_on_c, 3, 68, 74
5, 254000, Note_off_c, 3, 68, 64
5, 254157, Note_on_c, 3, 63, 67
5, 254231, Note_off_c, 3, 63, 64
5, 254400, Note_on_c, 3, 65, 56
5, 254571, Note_off_c, 3, 65, 64
5, 254637, Note_on_c, 3, 73, 67
5, 254721, Note_off_c, 3, 73, 64
5, 254879, Note_on_c, 3, 68, 55
5, 254953, Note_off_c, 3, 68, 64
5, 255116, Note_on_c, 3, 66, 81
5, 255281, Note_off_c, 3, 66, 64
5, 255354, Note_on_c, 3, 73, 69
5, 255452, Note_off_c, 3, 73, 64
5, 255597, Note_on_c, 3, 70, 57
5, 255674, Note_off_c, 3, 70, 64
5, 255836, Note_on_c, 3, 65, 68
5, 255991, Note_off_c, 3, 65, 64
5, 256072, Note_on_c, 3, 73, 71
5, 256156, Note_off_c, 3, 73, 64
5, 256311, Note_on_c, 3, 68, 57
5, 256398, Note_off_c, 3, 68, 64
5, 256561, Note_on_c, 3, 61, 81
5, 256700, Note_off_c, 3, 61, 64
5, 256799, Note_on_c, 3, 70, 67
5, 256890, Note_off_c, 3, 70, 64
5, 257035, Note_on_c, 3, 66, 55
5, 257109, Note_off_c, 3, 66, 64
5, 257277, Note_on_c, 3, 73, 81
5, 257437, Note_off_c, 3, 73, 64
5, 257516, Note_on_c, 3, 68, 81
5, 257589, Note_off_c, 3, 68, 64
5, 257759, Note_on_c, 3, 65, 67
5, 257859, Note_off_c, 3, 65, 64
5, 257999, Note_on_c, 3, 73, 81
5, 258139, Note_off_c, 3, 73, 64
5, 258237, Note_on_c, 3, 70, 81
5, 258321, Note_off_c, 3, 70, 64
5, 258477, Note_on_c, 3, 66, 81
5, 258564, Note_off_c, 3, 66, 64
5, 258723, Note_on_c, 3, 73, 87
5, 258830, Note_on_c, 3, 68, 74
5, 258832, Note_off_c, 3, 73, 64
5, 258919, Note_off_c, 3, 68, 64
5, 258959, Note_on_c, 3, 73, 92
5, 259066, Note_off_c, 3, 73, 64
5, 259068, Note_on_c, 3, 68, 74
5, 259156, Note_off_c, 3, 68, 64
5, 259198, Note_on_c, 3, 73, 88
5, 259299, Note_off_c, 3, 73, 64
5, 259310, Note_on_c, 3, 68, 76
5, 259401, Note_off_c, 3, 68, 64
5, 259442, Note_on_c, 3, 73, 91
5, 259553, Note_off_c, 3, 73, 64
5, 259555, Note_on_c, 3, 70, 80
5, 259634, Note_off_c, 3, 70, 64
5, 259682, Note_on_c, 3, 73, 96
5, 259780, Note_off_c, 3, 73, 64
5, 259791, Note_on_c, 3, 70, 78
5, 259869, Note_off_c, 3, 70, 64
5, 259913, Note_on_c, 3, 73, 88
5, 260007, Note_off_c, 3, 73, 64
5, 260027, Note_on_c, 3, 70, 69
5, 260119, Note_off_c, 3, 70, 64
5, 260155, Note_on_c, 3, 68, 69
5, 260279, Note_off_c, 3, 68, 64
5, 261605, Note_on_c, 3, 66, 120
5, 261711, Note_off_c, 3, 66, 64
5, 261718, Note_on_c, 3, 70, 84
5, 261822, Note_off_c, 3, 70, 64
5, 261837, Note_on_c, 3, 73, 92
5, 261918, Note_off_c, 3, 73, 64
5, 261955, Note_on_c, 3, 70, 82
5, 262032, Note_off_c, 3, 70, 64
5, 262075, Note_on_c, 3, 66, 106
5, 262182, Note_off_c, 3, 66, 64
5, 262194, Note_on_c, 3, 61, 78
5, 262285, Note_off_c, 3, 61, 64
5, 262314, Note_on_c, 3, 66, 109
5, 262423, Note_off_c, 3, 66, 64
5, 262433, Note_on_c, 3, 61, 80
5, 262534, Note_off_c, 3, 61, 64
5, 262549, Note_on_c, 3, 66, 88
5, 262625, Note_off_c, 3, 66, 64
5, 262670, Note_on_c, 3, 70, 94
5, 262755, Note_off_c, 3, 70, 64
5, 262788, Note_on_c, 3, 73, 101
5, 262866, Note_off_c, 3, 73, 64
5, 262906, Note_on_c, 3, 70, 72
5, 263001, Note_off_c, 3, 70, 64
5, 263040, Note_on_c, 3, 54, 67
5, 263202, Note_off_c, 3, 54, 64
5, 263278, Note_on_c, 3, 59, 51
5, 263371, Note_off_c, 3, 59, 64
5, 263515, Note_on_c, 3, 63, 61
5, 263607, Note_off_c, 3, 63, 64
5, 263757, Note_on_c, 3, 54, 67
5, 263930, Note_off_c, 3, 54, 64
5, 263989, Note_on_c, 3, 59, 49
5, 264079, Note_off_c, 3, 59, 64
5, 264227, Note_on_c, 3, 63, 59
5, 264297, Note_off_c, 3, 63, 64
5, 264481, Note_on_c, 3, 61, 69
5, 264690, Note_off_c, 3, 61, 64
5, 264719, Note_on_c, 3, 65, 53
5, 264803, Note_off_c, 3, 65, 64
5, 264952, Note_on_c, 3, 68, 67
5, 265032, Note_off_c, 3, 68, 64
5, 265199, Note_on_c, 3, 61, 74
5, 265374, Note_off_c, 3, 61, 64
5, 265438, Note_on_c, 3, 65, 53
5, 265525, Note_off_c, 3, 65, 64
5, 265677, Note_on_c, 3, 68, 65
5, 265749, Note_off_c, 3, 68, 64
5, 265920, Note_on_c, 3, 73, 81
5, 266069, Note_off_c, 3, 73, 64
5, 283200, Note_on_c, 3, 63, 104
5, 283316, Note_on_c, 3, 62, 95
5, 283321, Note_off_c, 3, 63, 64
5, 283418, Note_off_c, 3, 62, 64
5, 283433, Note_on_c, 3, 63, 84
5, 283520, Note_off_c, 3, 63, 64
5, 283551, Note_on_c, 3, 65, 95
5, 283621, Note_off_c, 3, 65, 64
5, 283664, Note_on_c, 3, 66, 100
5, 283747, Note_off_c, 3, 66, 64
5, 283780, Note_on_c, 3, 68, 93
5, 283863, Note_off_c, 3, 68, 64
5, 283918, Note_on_c, 3, 70, 120
5, 284039, Note_on_c, 3, 71, 94
5, 284042, Note_off_c, 3, 70, 64
5, 284140, Note_off_c, 3, 71, 64
5, 284147, Note_on_c, 3, 70, 92
5, 284226, Note_off_c, 3, 70, 64
5, 284260, Note_on_c, 3, 68, 106
5, 284340, Note_off_c, 3, 68, 64
5, 284378, Note_on_c, 3, 66, 111
5, 284466, Note_off_c, 3, 66, 64
5, 284497, Note_on_c, 3, 65, 95
5, 284569, Note_off_c, 3, 65, 64
5, 284631, Note_on_c, 3, 66, 88
5, 284787, Note_off_c, 3, 66, 64
5, 284858, Note_on_c, 3, 70, 88
5, 284952, Note_off_c, 3, 70, 64
5, 285105, Note_on_c, 3, 75, 88
5, 285201, Note_off_c, 3, 75, 64
5, 285357, Note_on_c, 3, 74, 112
5, 285443, Note_off_c, 3, 74, 64
5, 285461, Note_on_c, 3, 75, 85
5, 285545, Note_off_c, 3, 75, 64
5, 285577, Note_on_c, 3, 74, 112
5, 285654, Note_off_c, 3, 74, 64
5, 285702, Note_on_c, 3, 72, 102
5, 285786, Note_off_c, 3, 72, 64
5, 285821, Note_on_c, 3, 70, 93
5, 285907, Note_off_c, 3, 70, 64
5, 285940, Note_on_c, 3, 68, 92
5, 286022, Note_off_c, 3, 68, 64
5, 286089, Note_on_c, 3, 70, 94
5, 286180, Note_off_c, 3, 70, 64
5, 286201, Note_on_c, 3, 72, 79
5, 286281, Note_off_c, 3, 72, 64
5, 286310, Note_on_c, 3, 70, 79
5, 286402, Note_off_c, 3, 70, 64
5, 286423, Note_on_c, 3, 68, 89
5, 286519, Note_off_c, 3, 68, 64
5, 286543, Note_on_c, 3, 66, 96
5, 286638, Note_off_c, 3, 66, 64
5, 286656, Note_on_c, 3, 65, 80
5, 286751, Note_off_c, 3, 65, 64
5, 286785, Note_on_c, 3, 63, 80
5, 286934, Note_off_c, 3, 63, 64
5, 287024, Note_on_c, 3, 68, 80
5, 287123, Note_off_c, 3, 68, 64
5, 287271, Note_on_c, 3, 63, 80
5, 287380, Note_off_c, 3, 63, 64
5, 287502, Note_on_c, 3, 65, 95
5, 287601, Note_off_c, 3, 65, 64
5, 287623, Note_on_c, 3, 70, 102
5, 287715, Note_off_c, 3, 70, 64
5, 287737, Note_on_c, 3, 68, 87
5, 287823, Note_off_c, 3, 68, 64
5, 287852, Note_on_c, 3, 66, 92
5, 287935, Note_off_c, 3, 66, 64
5, 287968, Note_on_c, 3, 65, 105
5, 288039, Note_off_c, 3, 65, 64
5, 288085, Note_on_c, 3, 63, 88
5, 288163, Note_off_c, 3, 63, 64
5, 288228, Note_on_c, 3, 61, 101
5, 288384, Note_off_c, 3, 61, 64
5, 288466, Note_on_c, 3, 66, 78
5, 288550, Note_off_c, 3, 66, 64
5, 288725, Note_on_c, 3, 61, 78
5, 288823, Note_off_c, 3, 61, 64
5, 288964, Note_on_c, 3, 63, 96
5, 289069, Note_off_c, 3, 63, 64
5, 289089, Note_on_c, 3, 68, 93
5, 289172, Note_off_c, 3, 68, 64
5, 289198, Note_on_c, 3, 66, 85
5, 289290, Note_off_c, 3, 66, 64
5, 289315, Note_on_c, 3, 65, 82
5, 289400, Note_off_c, 3, 65, 64
5, 289429, Note_on_c, 3, 63, 97
5, 289507, Note_off_c, 3, 63, 64
5, 289529, Note_on_c, 3, 61, 78
5, 289609, Note_off_c, 3, 61, 64
5, 289658, Note_on_c, 3, 60, 84
5, 289819, Note_off_c, 3, 60, 64
5, 289913, Note_on_c, 3, 65, 80
5, 289997, Note_off_c, 3, 65, 64
5, 290160, Note_on_c, 3, 69, 80
5, 290242, Note_off_c, 3, 69, 64
5, 300480, Note_on_c, 3, 69, 41
5, 300613, Note_off_c, 3, 69, 64
5, 300967, Note_on_c, 3, 72, 62
5, 301054, Note_off_c, 3, 72, 64
5, 301214, Note_on_c, 3, 70, 52
5, 301328, Note_off_c, 3, 70, 64
5, 301682, Note_on_c, 3, 73, 81
5, 301751, Note_off_c, 3, 73, 64
5, 301938, Note_on_c, 3, 72, 64
5, 302078, Note_off_c, 3, 72, 64
5, 302392, Note_on_c, 3, 75, 81
5, 302473, Note_off_c, 3, 75, 64
5, 302648, Note_on_c, 3, 73, 81
5, 302795, Note_off_c, 3, 73, 64
5, 303079, Note_on_c, 3, 77, 71
5, 303148, Note_off_c, 3, 77, 64
5, 303367, Note_on_c, 3, 69, 112
5, 303467, Note_off_c, 3, 69, 64
5, 303476, Note_on_c, 3, 72, 89
5, 303556, Note_off_c, 3, 72, 64
5, 303588, Note_on_c, 3, 65, 81
5, 303670, Note_off_c, 3, 65, 64
5, 303702, Note_on_c, 3, 72, 89
5, 303777, Note_off_c, 3, 72, 64
5, 303829, Note_on_c, 3, 69, 99
5, 303918, Note_off_c, 3, 69, 64
5, 303944, Note_on_c, 3, 72, 95
5, 304028, Note_off_c, 3, 72, 64
5, 304075, Note_on_c, 3, 70, 92
5, 304167, Note_off_c, 3, 70, 64
5, 304190, Note_on_c, 3, 73, 81
5, 304269, Note_off_c, 3, 73, 64
5, 304312, Note_on_c, 3, 65, 85
5, 304403, Note_off_c, 3, 65, 64
5, 304431, Note_on_c, 3, 73, 81
5, 304513, Note_off_c, 3, 73, 64
5, 304559, Note_on_c, 3, 70, 81
5, 304638, Note_off_c, 3, 70, 64
5, 304671, Note_on_c, 3, 73, 81
5, 304758, Note_off_c, 3, 73, 64
5, 304803, Note_on_c, 3, 72, 102
5, 304913, Note_off_c, 3, 72, 64
5, 304924, Note_on_c, 3, 75, 92
5, 305012, Note_off_c, 3, 75, 64
5, 305041, Note_on_c, 3, 65, 82
5, 305129, Note_off_c, 3, 65, 64
5, 305151, Note_on_c, 3, 75, 89
5, 305244, Note_off_c, 3, 75, 64
5, 305267, Note_on_c, 3, 72, 95
5, 305346, Note_off_c, 3, 72, 64
5, 305381, Note_on_c, 3, 75, 92
5, 305471, Note_off_c, 3, 75, 64
5, 305514, Note_on_c, 3, 73, 96
5, 305602, Note_off_c, 3, 73, 64
5, 305622, Note_on_c, 3, 77, 95
5, 305703, Note_off_c, 3, 77, 64
5, 305740, Note_on_c, 3, 65, 95
5, 305825, Note_off_c, 3, 65, 64
5, 305855, Note_on_c, 3, 77, 80
5, 305937, Note_off_c, 3, 77, 64
5, 305981, Note_on_c, 3, 73, 84
5, 306048, Note_off_c, 3, 73, 64
5, 306099, Note_on_c, 3, 77, 87
5, 306189, Note_off_c, 3, 77, 64
5, 317744, Note_on_c, 3, 63, 74
5, 317873, Note_off_c, 3, 63, 64
5, 317993, Note_on_c, 3, 63, 77
5, 318114, Note_off_c, 3, 63, 64
5, 318242, Note_on_c, 3, 63, 81
5, 318363, Note_off_c, 3, 63, 64
5, 318476, Note_on_c, 3, 65, 63
5, 318580, Note_off_c, 3, 65, 64
5, 318725, Note_on_c, 3, 65, 62
5, 318812, Note_off_c, 3, 65, 64
5, 318964, Note_on_c, 3, 65, 63
5, 319046, Note_off_c, 3, 65, 64
5, 319195, Note_on_c, 3, 65, 61
5, 319368, Note_off_c, 3, 65, 64
5, 319450, Note_on_c, 3, 63, 81
5, 319540, Note_off_c, 3, 63, 64
5, 319681, Note_on_c, 3, 63, 81
5, 319774, Note_off_c, 3, 63, 64
5, 319926, Note_on_c, 3, 63, 75
5, 320218, Note_off_c, 3, 63, 64
5, 329280, Note_on_c, 3, 62, 121
5, 329380, Note_off_c, 3, 62, 64
5, 329399, Note_on_c, 3, 68, 81
5, 329481, Note_off_c, 3, 68, 64
5, 329515, Note_on_c, 3, 59, 93
5, 329604, Note_off_c, 3, 59, 64
5, 329631, Note_on_c, 3, 68, 84
5, 329705, Note_off_c, 3, 68, 64
5, 329755, Note_on_c, 3, 62, 117
5, 329874, Note_on_c, 3, 61, 81
5, 329878, Note_off_c, 3, 62, 64
5, 329996, Note_on_c, 3, 62, 61
5, 330002, Note_off_c, 3, 61, 64
5, 330092, Note_off_c, 3, 62, 64
5, 330116, Note_on_c, 3, 68, 81
5, 330193, Note_off_c, 3, 68, 64
5, 330233, Note_on_c, 3, 59, 96
5, 330320, Note_off_c, 3, 59, 64
5, 330353, Note_on_c, 3, 68, 81
5, 330426, Note_off_c, 3, 68, 64
5, 330472, Note_on_c, 3, 62, 95
5, 330535, Note_off_c, 3, 62, 64
5, 330589, Note_on_c, 3, 68, 81
5, 330657, Note_off_c, 3, 68, 64
5, 330723, Note_on_c, 3, 58, 84
5, 330853, Note_off_c, 3, 58, 64
5, 330961, Note_on_c, 3, 61, 71
5, 331060, Note_off_c, 3, 61, 64
5, 331198, Note_on_c, 3, 66, 71
5, 331282, Note_off_c, 3, 66, 64
5, 331444, Note_on_c, 3, 61, 81
5, 331570, Note_off_c, 3, 61, 64
5, 331681, Note_on_c, 3, 66, 72
5, 331774, Note_off_c, 3, 66, 64
5, 331917, Note_on_c, 3, 70, 72
5, 331998, Note_off_c, 3, 70, 64
5, 348000, Note_on_c, 3, 70, 77
5, 348100, Note_off_c, 3, 70, 64
5, 348239, Note_on_c, 3, 61, 68
5, 348326, Note_off_c, 3, 61, 64
5, 348477, Note_on_c, 3, 61, 68
5, 348572, Note_off_c, 3, 61, 64
5, 348718, Note_on_c, 3, 61, 68
5, 348804, Note_off_c, 3, 61, 64
5, 348952, Note_on_c, 3, 61, 68
5, 349033, Note_off_c, 3, 61, 64
5, 349189, Note_on_c, 3, 61, 68
5, 349279, Note_off_c, 3, 61, 64
5, 349436, Note_on_c, 3, 61, 74
5, 349531, Note_off_c, 3, 61, 64
5, 349676, Note_on_c, 3, 61, 68
5, 349767, Note_off_c, 3, 61, 64
5, 349915, Note_on_c, 3, 61, 68
5, 350011, Note_off_c, 3, 61, 64
5, 350157, Note_on_c, 3, 61, 68
5, 350245, Note_off_c, 3, 61, 64
5, 350397, Note_on_c, 3, 61, 68
5, 350483, Note_off_c, 3, 61, 64
5, 350633, Note_on_c, 3, 61, 68
5, 350732, Note_off_c, 3, 61, 64
5, 350875, Note_on_c, 3, 61, 74
5, 350978, Note_off_c, 3, 61, 64
5, 351111, Note_on_c, 3, 61, 68
5, 351221, Note_off_c, 3, 61, 64
5, 351355, Note_on_c, 3, 61, 71
5, 351447, Note_off_c, 3, 61, 64
5, 351598, Note_on_c, 3, 61, 77
5, 351699, Note_off_c, 3, 61, 64
5, 351843, Note_on_c, 3, 61, 73
5, 351928, Note_off_c, 3, 61, 64
5, 352081, Note_on_c, 3, 61, 77
5, 352163, Note_off_c, 3, 61, 64
5, 352317, Note_on_c, 3, 61, 88
5, 352494, Note_off_c, 3, 61, 64
5, 352559, Note_on_c, 3, 73, 121
5, 352655, Note_off_c, 3, 73, 64
5, 352797, Note_on_c, 3, 78, 118
5, 352894, Note_off_c, 3, 78, 64
5, 353044, Note_on_c, 3, 77, 117
5, 353149, Note_off_c, 3, 77, 64
5, 353158, Note_on_c, 3, 78, 102
5, 353256, Note_off_c, 3, 78, 64
5, 353270, Note_on_c, 3, 77, 99
5, 353353, Note_off_c, 3, 77, 64
5, 353393, Note_on_c, 3, 75, 115
5, 353476, Note_off_c, 3, 75, 64
5, 353513, Note_on_c, 3, 73, 109
5, 353583, Note_off_c, 3, 73, 64
5, 353635, Note_on_c, 3, 71, 101
5, 353710, Note_off_c, 3, 71, 64
5, 353760, Note_on_c, 3, 70, 101
5, 353872, Note_off_c, 3, 70, 64
5, 353877, Note_on_c, 3, 75, 107
5, 353994, Note_off_c, 3, 75, 64
5, 353995, Note_on_c, 3, 73, 86
5, 354079, Note_off_c, 3, 73, 64
5, 354115, Note_on_c, 3, 71, 105
5, 354204, Note_off_c, 3, 71, 64
5, 354235, Note_on_c, 3, 70, 106
5, 354321, Note_off_c, 3, 70, 64
5, 354351, Note_on_c, 3, 68, 80
5, 354442, Note_off_c, 3, 68, 64
5, 354481, Note_on_c, 3, 66, 80
5, 354641, Note_off_c, 3, 66, 64
5, 354718, Note_on_c, 3, 71, 74
5, 354801, Note_off_c, 3, 71, 64
5, 354963, Note_on_c, 3, 66, 74
5, 355059, Note_off_c, 3, 66, 64
5, 355201, Note_on_c, 3, 68, 98
5, 355312, Note_off_c, 3, 68, 64
5, 355318, Note_on_c, 3, 73, 85
5, 355403, Note_off_c, 3, 73, 64
5, 355435, Note_on_c, 3, 71, 82
5, 355524, Note_off_c, 3, 71, 64
5, 355551, Note_on_c, 3, 70, 94
5, 355637, Note_off_c, 3, 70, 64
5, 355673, Note_on_c, 3, 68, 94
5, 355764, Note_off_c, 3, 68, 64
5, 355790, Note_on_c, 3, 66, 84
5, 355891, Note_off_c, 3, 66, 64
5, 355915, Note_on_c, 3, 65, 84
5, 356062, Note_off_c, 3, 65, 64
5, 356156, Note_on_c, 3, 70, 80
5, 356240, Note_off_c, 3, 70, 64
5, 356399, Note_on_c, 3, 65, 80
5, 356489, Note_off_c, 3, 65, 64
5, 356643, Note_on_c, 3, 66, 88
5, 356746, Note_off_c, 3, 66, 64
5, 356759, Note_on_c, 3, 71, 96
5, 356865, Note_off_c, 3, 71, 64
5, 356873, Note_on_c, 3, 70, 96
5, 356969, Note_off_c, 3, 70, 64
5, 356989, Note_on_c, 3, 68, 96
5, 357080, Note_off_c, 3, 68, 64
5, 357114, Note_on_c, 3, 66, 101
5, 357202, Note_off_c, 3, 66, 64
5, 357235, Note_on_c, 3, 65, 82
5, 357322, Note_off_c, 3, 65, 64
5, 357360, Note_on_c, 3, 63, 82
5, 357504, Note_off_c, 3, 63, 64
5, 357601, Note_on_c, 3, 68, 74
5, 357680, Note_off_c, 3, 68, 64
5, 357837, Note_on_c, 3, 63, 67
5, 357911, Note_off_c, 3, 63, 64
5, 358080, Note_on_c, 3, 65, 56
5, 358251, Note_off_c, 3, 65, 64
5, 358317, Note_on_c, 3, 73, 67
5, 358401, Note_off_c, 3, 73, 64
5, 358559, Note_on_c, 3, 68, 55
5, 358633, Note_off_c, 3, 68, 64
5, 358796, Note_on_c, 3, 66, 81
5, 358961, Note_off_c, 3, 66, 64
5, 359034, Note_on_c, 3, 73, 69
5, 359132, Note_off_c, 3, 73, 64
5, 359277, Note_on_c, 3, 70, 57
5, 359354, Note_off_c, 3, 70, 64
5, 359516, Note_on_c, 3, 65, 68
5, 359671, Note_off_c, 3, 65, 64
5, 359752, Note_on_c, 3, 73, 71
5, 359836, Note_off_c, 3, 73, 64
5, 359991, Note_on_c, 3, 68, 57
5, 360078, Note_off_c, 3, 68, 64
5, 360241, Note_on_c, 3, 61, 81
5, 360380, Note_off_c, 3, 61, 64
5, 360479, Note_on_c, 3, 70, 67
5, 360570, Note_off_c, 3, 70, 64
5, 360715, Note_on_c, 3, 66, 55
5, 360789, Note_off_c, 3, 66, 64
5, 360957, Note_on_c, 3, 73, 81
5, 361117, Note_off_c, 3, 73, 64
5, 361196, Note_on_c, 3, 68, 81
5, 361269, Note_off_c, 3, 68, 64
5, 361439, Note_on_c, 3, 65, 67
5, 361539, Note_off_c, 3, 65, 64
5, 361679, Note_on_c, 3, 73, 81
5, 361819, Note_off_c, 3, 73, 64
5, 361917, Note_on_c, 3, 70, 81
5, 362001, Note_off_c, 3, 70, 64
5, 362157, Note_on_c, 3, 66, 81
5, 362244, Note_off_c, 3, 66, 64
5, 362403, Note_on_c, 3, 73, 87
5, 362510, Note_on_c, 3, 68, 74
5, 362512, Note_off_c, 3, 73, 64
5, 362599, Note_off_c, 3, 68, 64
5, 362639, Note_on_c, 3, 73, 92
5, 362746, Note_off_c, 3, 73, 64
5, 362748, Note_on_c, 3, 68, 74
5, 362836, Note_off_c, 3, 68, 64
5, 362878, Note_on_c, 3, 73, 88
5, 362979, Note_off_c, 3, 73, 64
5, 362990, Note_on_c, 3, 68, 76
5, 363081, Note_off_c, 3, 68, 64
5, 363122, Note_on_c, 3, 73, 91
5, 363233, Note_off_c, 3, 73, 64
5, 363235, Note_on_c, 3, 70, 80
5, 363314, Note_off_c, 3, 70, 64
5, 363362, Note_on_c, 3, 73, 96
5, 363460, Note_off_c, 3, 73, 64
5, 363471, Note_on_c, 3, 70, 78
5, 363549, Note_off_c, 3, 70, 64
5, 363593, Note_on_c, 3, 73, 88
5, 363687, Note_off_c, 3, 73, 64
5, 363707, Note_on_c, 3, 70, 69
5, 363799, Note_off_c, 3, 70, 64
5, 363835, Note_on_c, 3, 68, 69
5, 363959, Note_off_c, 3, 68, 64
5, 365285, Note_on_c, 3, 66, 120
5, 365391, Note_off_c, 3, 66, 64
5, 365398, Note_on_c, 3, 70, 84
5, 365502, Note_off_c, 3, 70, 64
5, 365517, Note_on_c, 3, 73, 92
5, 365598, Note_off_c, 3, 73, 64
5, 365635, Note_on_c, 3, 70, 82
5, 365712, Note_off_c, 3, 70, 64
5, 365755, Note_on_c, 3, 66, 106
5, 365862, Note_off_c, 3, 66, 64
5, 365874, Note_on_c, 3, 61, 78
5, 365965, Note_off_c, 3, 61, 64
5, 365994, Note_on_c, 3, 66, 109
5, 366103, Note_off_c, 3, 66, 64
5, 366113, Note_on_c, 3, 61, 80
5, 366214, Note_off_c, 3, 61, 64
5, 366229, Note_on_c, 3, 66, 88
5, 366305, Note_off_c, 3, 66, 64
5, 366350, Note_on_c, 3, 70, 94
5, 366435, Note_off_c, 3, 70, 64
5, 366468, Note_on_c, 3, 73, 101
5, 366546, Note_off_c, 3, 73, 64
5, 366586, Note_on_c, 3, 70, 72
5, 366681, Note_off_c, 3, 70, 64
5, 366720, Note_on_c, 3, 54, 67
5, 366882, Note_off_c, 3, 54, 64
5, 366958, Note_on_c, 3, 59, 51
5, 367051, Note_off_c, 3, 59, 64
5, 367195, Note_on_c, 3, 63, 61
5, 367287, Note_off_c, 3, 63, 64
5, 367437, Note_on_c, 3, 54, 67
5, 367610, Note_off_c, 3, 54, 64
5, 367669, Note_on_c, 3, 59, 49
5, 367759, Note_off_c, 3, 59, 64
5, 367907, Note_on_c, 3, 63, 59
5, 367977, Note_off_c, 3, 63, 64
5, 368161, Note_on_c, 3, 61, 69
5, 368370, Note_off_c, 3, 61, 64
5, 368399, Note_on_c, 3, 65, 53
5, 368483, Note_off_c, 3, 65, 64
5, 368632, Note_on_c, 3, 68, 67
5, 368712, Note_off_c, 3, 68, 64
5, 368879, Note_on_c, 3, 61, 74
5, 369054, Note_off_c, 3, 61, 64
5, 369118, Note_on_c, 3, 65, 53
5, 369205, Note_off_c, 3, 65, 64
5, 369357, Note_on_c, 3, 68, 65
5, 369429, Note_off_c, 3, 68, 64
5, 369600, Note_on_c, 3, 73, 81
5, 369749, Note_off_c, 3, 73, 64
5, 378240, End_track
6, 0, Start_track
6, 0, Instrument_name_t, "SC88-A"
6, 0, Title_t, "Viola.1"
6, 1440, Control_c, 4, 101, 0
6, 1450, Control_c, 4, 100, 0
6, 1450, Control_c, 4, 6, 0
6, 1470, Control_c, 4, 0, 0
6, 1480, Control_c, 4, 32, 1
6, 1490, Program_c, 4, 41
6, 1500, Control_c, 4, 10, 59
6, 1510, Control_c, 4, 11, 100
6, 1520, Control_c, 4, 7, 120
6, 1530, Control_c, 4, 93, 0
6, 1540, Control_c, 4, 91, 0
6, 1550, Pitch_bend_c, 4, 8192
6, 1560, Control_c, 4, 1, 0
6, 1570, Control_c, 4, 64, 0
6, 1580, Control_c, 4, 91, 64
6, 1590, Control_c, 4, 99, 1
6, 1600, Control_c, 4, 98, 32
6, 1610, Control_c, 4, 6, 75
6, 1620, Control_c, 4, 98, 33
6, 1630, Control_c, 4, 6, 60
6, 1640, Control_c, 4, 98, 99
6, 1650, Control_c, 4, 6, 64
6, 1660, Control_c, 4, 98, 100
6, 1670, Control_c, 4, 6, 64
6, 1680, Control_c, 4, 98, 102
6, 1690, Control_c, 4, 6, 64
6, 89082, Control_c, 4, 11, 58
6, 89193, Control_c, 4, 11, 60
6, 89249, Control_c, 4, 11, 63
6, 89304, Control_c, 4, 11, 66
6, 89360, Control_c, 4, 11, 69
6, 89390, Note_on_c, 4, 68, 84
6, 89415, Control_c, 4, 11, 72
6, 89471, Control_c, 4, 11, 76
6, 89526, Control_c, 4, 11, 79
6, 89582, Control_c, 4, 11, 82
6, 89637, Control_c, 4, 11, 85
6, 89693, Control_c, 4, 11, 88
6, 89748, Control_c, 4, 11, 92
6, 89804, Control_c, 4, 11, 95
6, 89859, Control_c, 4, 11, 98
6, 89915, Control_c, 4, 11, 101
6, 89971, Control_c, 4, 11, 104
6, 90026, Control_c, 4, 11, 108
6, 90082, Control_c, 4, 11, 111
6, 90137, Control_c, 4, 11, 114
6, 90193, Control_c, 4, 11, 117
6, 90248, Control_c, 4, 11, 119
6, 90304, Control_c, 4, 11, 116
6, 90359, Control_c, 4, 11, 114
6, 90415, Control_c, 4, 11, 112
6, 90470, Control_c, 4, 11, 109
6, 90526, Control_c, 4, 11, 107
6, 90581, Control_c, 4, 11, 105
6, 90637, Control_c, 4, 11, 102
6, 90692, Control_c, 4, 11, 100
6, 90748, Control_c, 4, 11, 97
6, 90804, Control_c, 4, 11, 95
6, 90859, Control_c, 4, 11, 93
6, 90915, Control_c, 4, 11, 90
6, 90970, Control_c, 4, 11, 88
6, 91026, Control_c, 4, 11, 86
6, 91081, Control_c, 4, 11, 83
6, 91137, Control_c, 4, 11, 81
6, 91192, Control_c, 4, 11, 79
6, 91248, Control_c, 4, 11, 76
6, 91303, Control_c, 4, 11, 74
6, 91359, Control_c, 4, 11, 71
6, 91414, Control_c, 4, 11, 69
6, 91470, Control_c, 4, 11, 68
6, 91581, Control_c, 4, 11, 67
6, 91637, Control_c, 4, 11, 66
6, 91692, Control_c, 4, 11, 65
6, 91748, Control_c, 4, 11, 64
6, 91803, Control_c, 4, 11, 63
6, 91859, Control_c, 4, 11, 62
6, 91914, Control_c, 4, 11, 61
6, 91970, Control_c, 4, 11, 60
6, 92025, Control_c, 4, 11, 59
6, 92081, Control_c, 4, 11, 58
6, 92136, Control_c, 4, 11, 57
6, 92247, Control_c, 4, 11, 56
6, 92303, Control_c, 4, 11, 55
6, 92358, Control_c, 4, 11, 54
6, 92414, Control_c, 4, 11, 53
6, 92470, Control_c, 4, 11, 58
6, 92525, Control_c, 4, 11, 61
6, 92581, Control_c, 4, 11, 64
6, 92591, Note_off_c, 4, 68, 64
6, 92597, Note_on_c, 4, 62, 56
6, 92636, Control_c, 4, 11, 66
6, 92692, Control_c, 4, 11, 69
6, 92747, Control_c, 4, 11, 72
6, 92803, Control_c, 4, 11, 75
6, 92858, Control_c, 4, 11, 78
6, 92914, Control_c, 4, 11, 80
6, 92969, Control_c, 4, 11, 83
6, 93025, Control_c, 4, 11, 86
6, 93080, Control_c, 4, 11, 89
6, 93136, Control_c, 4, 11, 92
6, 93191, Control_c, 4, 11, 94
6, 93247, Control_c, 4, 11, 97
6, 93303, Control_c, 4, 11, 100
6, 93358, Control_c, 4, 11, 103
6, 93414, Control_c, 4, 11, 106
6, 93913, Control_c, 4, 11, 104
6, 93969, Control_c, 4, 11, 101
6, 94024, Control_c, 4, 11, 98
6, 94080, Control_c, 4, 98, 99
6, 94080, Control_c, 4, 11, 95
6, 94090, Control_c, 4, 6, 64
6, 94100, Control_c, 4, 98, 100
6, 94110, Control_c, 4, 6, 64
6, 94120, Control_c, 4, 98, 102
6, 94130, Control_c, 4, 6, 64
6, 94136, Control_c, 4, 11, 93
6, 94191, Control_c, 4, 11, 90
6, 94247, Control_c, 4, 11, 87
6, 94302, Control_c, 4, 11, 85
6, 94358, Control_c, 4, 11, 82
6, 94413, Control_c, 4, 11, 79
6, 94469, Control_c, 4, 11, 76
6, 94524, Control_c, 4, 11, 75
6, 94580, Control_c, 4, 11, 73
6, 94635, Control_c, 4, 11, 72
6, 94691, Control_c, 4, 11, 71
6, 94746, Control_c, 4, 11, 69
6, 94802, Control_c, 4, 11, 68
6, 94857, Control_c, 4, 11, 67
6, 94913, Control_c, 4, 11, 65
6, 94969, Control_c, 4, 11, 64
6, 95024, Control_c, 4, 11, 62
6, 95080, Control_c, 4, 11, 61
6, 95135, Control_c, 4, 11, 60
6, 95191, Control_c, 4, 11, 58
6, 95246, Control_c, 4, 11, 57
6, 95302, Control_c, 4, 11, 56
6, 95357, Control_c, 4, 11, 54
6, 95477, Note_off_c, 4, 62, 64
6, 95508, Control_c, 4, 11, 100
6, 96000, Note_on_c, 4, 66, 96
6, 96174, Note_off_c, 4, 66, 64
6, 96237, Note_on_c, 4, 70, 72
6, 96333, Note_off_c, 4, 70, 64
6, 96475, Note_on_c, 4, 73, 72
6, 96568, Note_off_c, 4, 73, 64
6, 96715, Note_on_c, 4, 65, 85
6, 96868, Note_off_c, 4, 65, 64
6, 96954, Note_on_c, 4, 68, 71
6, 97050, Note_off_c, 4, 68, 64
6, 97194, Note_on_c, 4, 73, 71
6, 97280, Note_off_c, 4, 73, 64
6, 97433, Note_on_c, 4, 66, 88
6, 97585, Note_off_c, 4, 66, 64
6, 97674, Note_on_c, 4, 70, 74
6, 97766, Note_off_c, 4, 70, 64
6, 97911, Note_on_c, 4, 73, 74
6, 98004, Note_off_c, 4, 73, 64
6, 98156, Note_on_c, 4, 61, 88
6, 98311, Note_off_c, 4, 61, 64
6, 98397, Note_on_c, 4, 68, 72
6, 98497, Note_off_c, 4, 68, 64
6, 98635, Note_on_c, 4, 73, 72
6, 98746, Note_off_c, 4, 73, 64
6, 98882, Note_on_c, 4, 66, 121
6, 98987, Note_off_c, 4, 66, 64
6, 98995, Note_on_c, 4, 65, 89
6, 99100, Note_off_c, 4, 65, 64
6, 99117, Note_on_c, 4, 66, 86
6, 99209, Note_off_c, 4, 66, 64
6, 99233, Note_on_c, 4, 68, 107
6, 99321, Note_off_c, 4, 68, 64
6, 99354, Note_on_c, 4, 70, 121
6, 99435, Note_off_c, 4, 70, 64
6, 99470, Note_on_c, 4, 71, 94
6, 99556, Note_off_c, 4, 71, 64
6, 99596, Note_on_c, 4, 73, 121
6, 99710, Note_off_c, 4, 73, 64
6, 99713, Note_on_c, 4, 75, 98
6, 99816, Note_off_c, 4, 75, 64
6, 99837, Note_on_c, 4, 73, 96
6, 99938, Note_off_c, 4, 73, 64
6, 99957, Note_on_c, 4, 71, 104
6, 100048, Note_off_c, 4, 71, 64
6, 100074, Note_on_c, 4, 70, 121
6, 100155, Note_off_c, 4, 70, 64
6, 100192, Note_on_c, 4, 68, 111
6, 100267, Note_off_c, 4, 68, 64
6, 100318, Note_on_c, 4, 66, 121
6, 100455, Note_off_c, 4, 66, 64
6, 100555, Note_on_c, 4, 70, 74
6, 100646, Note_off_c, 4, 70, 64
6, 100791, Note_on_c, 4, 61, 74
6, 100871, Note_off_c, 4, 61, 64
6, 101036, Note_on_c, 4, 68, 106
6, 101185, Note_off_c, 4, 68, 64
6, 101276, Note_on_c, 4, 71, 74
6, 101371, Note_off_c, 4, 71, 64
6, 101518, Note_on_c, 4, 61, 74
6, 101593, Note_off_c, 4, 61, 64
6, 101760, Note_on_c, 4, 70, 93
6, 101890, Note_off_c, 4, 70, 64
6, 102001, Note_on_c, 4, 70, 72
6, 102098, Note_off_c, 4, 70, 64
6, 102235, Note_on_c, 4, 70, 73
6, 102344, Note_off_c, 4, 70, 64
6, 102472, Note_on_c, 4, 70, 80
6, 102610, Note_off_c, 4, 70, 64
6, 102715, Note_on_c, 4, 70, 73
6, 102826, Note_off_c, 4, 70, 64
6, 102953, Note_on_c, 4, 70, 75
6, 103054, Note_off_c, 4, 70, 64
6, 103191, Note_on_c, 4, 68, 98
6, 103345, Note_off_c, 4, 68, 64
6, 103435, Note_on_c, 4, 68, 76
6, 103524, Note_off_c, 4, 68, 64
6, 103668, Note_on_c, 4, 68, 74
6, 103763, Note_off_c, 4, 68, 64
6, 103908, Note_on_c, 4, 68, 76
6, 104029, Note_off_c, 4, 68, 64
6, 104148, Note_on_c, 4, 68, 70
6, 104235, Note_off_c, 4, 68, 64
6, 104390, Note_on_c, 4, 68, 70
6, 104474, Note_off_c, 4, 68, 64
6, 104634, Note_on_c, 4, 66, 98
6, 104774, Note_off_c, 4, 66, 64
6, 104871, Note_on_c, 4, 66, 76
6, 104977, Note_off_c, 4, 66, 64
6, 105111, Note_on_c, 4, 66, 77
6, 105199, Note_off_c, 4, 66, 64
6, 105349, Note_on_c, 4, 66, 81
6, 105478, Note_off_c, 4, 66, 64
6, 105587, Note_on_c, 4, 66, 71
6, 105667, Note_off_c, 4, 66, 64
6, 105828, Note_on_c, 4, 66, 85
6, 105887, Note_off_c, 4, 66, 64
6, 106080, Note_on_c, 4, 65, 121
6, 106199, Note_on_c, 4, 63, 92
6, 106207, Note_off_c, 4, 65, 64
6, 106302, Note_off_c, 4, 63, 64
6, 106317, Note_on_c, 4, 61, 109
6, 106408, Note_off_c, 4, 61, 64
6, 106433, Note_on_c, 4, 63, 93
6, 106517, Note_off_c, 4, 63, 64
6, 106551, Note_on_c, 4, 65, 115
6, 106632, Note_off_c, 4, 65, 64
6, 106664, Note_on_c, 4, 66, 100
6, 106746, Note_off_c, 4, 66, 64
6, 106789, Note_on_c, 4, 68, 118
6, 106913, Note_on_c, 4, 70, 91
6, 106927, Note_off_c, 4, 68, 64
6, 107019, Note_off_c, 4, 70, 64
6, 107033, Note_on_c, 4, 68, 91
6, 107122, Note_off_c, 4, 68, 64
6, 107149, Note_on_c, 4, 66, 98
6, 107223, Note_off_c, 4, 66, 64
6, 107272, Note_on_c, 4, 65, 118
6, 107344, Note_off_c, 4, 65, 64
6, 107389, Note_on_c, 4, 63, 104
6, 107458, Note_off_c, 4, 63, 64
6, 107511, Note_on_c, 4, 65, 90
6, 107688, Note_off_c, 4, 65, 64
6, 107755, Note_on_c, 4, 68, 94
6, 107849, Note_off_c, 4, 68, 64
6, 107991, Note_on_c, 4, 73, 94
6, 108068, Note_off_c, 4, 73, 64
6, 108238, Note_on_c, 4, 72, 121
6, 108358, Note_on_c, 4, 73, 85
6, 108366, Note_off_c, 4, 72, 64
6, 108468, Note_off_c, 4, 73, 64
6, 108476, Note_on_c, 4, 72, 99
6, 108561, Note_off_c, 4, 72, 64
6, 108592, Note_on_c, 4, 70, 99
6, 108682, Note_off_c, 4, 70, 64
6, 108713, Note_on_c, 4, 68, 111
6, 108787, Note_off_c, 4, 68, 64
6, 108828, Note_on_c, 4, 66, 84
6, 108903, Note_off_c, 4, 66, 64
6, 108953, Note_on_c, 4, 65, 69
6, 109115, Note_off_c, 4, 65, 64
6, 109195, Note_on_c, 4, 61, 78
6, 109293, Note_off_c, 4, 61, 64
6, 109430, Note_on_c, 4, 68, 92
6, 109531, Note_off_c, 4, 68, 64
6, 109674, Note_on_c, 4, 68, 102
6, 109787, Note_off_c, 4, 68, 64
6, 109914, Note_on_c, 4, 68, 84
6, 110034, Note_off_c, 4, 68, 64
6, 110154, Note_on_c, 4, 68, 84
6, 110272, Note_off_c, 4, 68, 64
6, 110391, Note_on_c, 4, 68, 102
6, 110554, Note_off_c, 4, 68, 64
6, 110633, Note_on_c, 4, 68, 86
6, 110753, Note_off_c, 4, 68, 64
6, 110870, Note_on_c, 4, 68, 96
6, 110986, Note_off_c, 4, 68, 64
6, 111108, Note_on_c, 4, 68, 115
6, 111242, Note_off_c, 4, 68, 64
6, 111354, Note_on_c, 4, 68, 99
6, 111458, Note_off_c, 4, 68, 64
6, 111589, Note_on_c, 4, 68, 105
6, 111683, Note_off_c, 4, 68, 64
6, 111833, Note_on_c, 4, 68, 121
6, 111996, Note_off_c, 4, 68, 64
6, 112075, Note_on_c, 4, 73, 105
6, 112143, Note_off_c, 4, 73, 64
6, 112315, Note_on_c, 4, 68, 105
6, 112391, Note_off_c, 4, 68, 64
6, 112559, Note_on_c, 4, 70, 118
6, 112655, Note_off_c, 4, 70, 64
6, 112676, Note_on_c, 4, 72, 88
6, 112760, Note_off_c, 4, 72, 64
6, 112797, Note_on_c, 4, 70, 88
6, 112881, Note_off_c, 4, 70, 64
6, 112913, Note_on_c, 4, 68, 101
6, 112998, Note_off_c, 4, 68, 64
6, 113034, Note_on_c, 4, 67, 107
6, 113120, Note_off_c, 4, 67, 64
6, 113138, Note_on_c, 4, 65, 90
6, 113223, Note_off_c, 4, 65, 64
6, 113273, Note_on_c, 4, 67, 121
6, 113431, Note_off_c, 4, 67, 64
6, 113518, Note_on_c, 4, 72, 103
6, 113583, Note_off_c, 4, 72, 64
6, 113750, Note_on_c, 4, 67, 103
6, 113824, Note_off_c, 4, 67, 64
6, 113996, Note_on_c, 4, 68, 118
6, 114099, Note_on_c, 4, 70, 90
6, 114101, Note_off_c, 4, 68, 64
6, 114198, Note_off_c, 4, 70, 64
6, 114219, Note_on_c, 4, 68, 90
6, 114302, Note_off_c, 4, 68, 64
6, 114334, Note_on_c, 4, 67, 97
6, 114417, Note_off_c, 4, 67, 64
6, 114455, Note_on_c, 4, 65, 107
6, 114544, Note_off_c, 4, 65, 64
6, 114571, Note_on_c, 4, 63, 86
6, 114661, Note_off_c, 4, 63, 64
6, 114694, Note_on_c, 4, 65, 94
6, 114858, Note_off_c, 4, 65, 64
6, 114951, Note_on_c, 4, 70, 94
6, 115030, Note_off_c, 4, 70, 64
6, 115189, Note_on_c, 4, 65, 94
6, 115269, Note_off_c, 4, 65, 64
6, 115433, Note_on_c, 4, 67, 112
6, 115561, Note_off_c, 4, 67, 64
6, 115677, Note_on_c, 4, 70, 81
6, 115763, Note_off_c, 4, 70, 64
6, 115912, Note_on_c, 4, 63, 81
6, 115988, Note_off_c, 4, 63, 64
6, 116160, Note_on_c, 4, 68, 71
6, 116309, Note_off_c, 4, 68, 64
6, 116401, Note_on_c, 4, 63, 71
6, 116475, Note_off_c, 4, 63, 64
6, 116624, Note_on_c, 4, 60, 59
6, 116706, Note_off_c, 4, 60, 64
6, 116871, Note_on_c, 4, 68, 80
6, 117056, Note_off_c, 4, 68, 64
6, 117110, Note_on_c, 4, 65, 65
6, 117199, Note_off_c, 4, 65, 64
6, 117351, Note_on_c, 4, 61, 71
6, 117449, Note_off_c, 4, 61, 64
6, 117596, Note_on_c, 4, 68, 74
6, 117777, Note_off_c, 4, 68, 64
6, 117841, Note_on_c, 4, 63, 71
6, 117911, Note_off_c, 4, 63, 64
6, 118067, Note_on_c, 4, 60, 60
6, 118164, Note_off_c, 4, 60, 64
6, 118315, Note_on_c, 4, 68, 71
6, 118496, Note_off_c, 4, 68, 64
6, 118558, Note_on_c, 4, 61, 71
6, 118644, Note_off_c, 4, 61, 64
6, 118795, Note_on_c, 4, 58, 71
6, 118881, Note_off_c, 4, 58, 64
6, 119040, Note_on_c, 4, 63, 94
6, 119205, Note_off_c, 4, 63, 64
6, 119277, Note_on_c, 4, 60, 80
6, 119337, Note_off_c, 4, 60, 64
6, 119512, Note_on_c, 4, 56, 89
6, 119598, Note_off_c, 4, 56, 64
6, 119750, Note_on_c, 4, 65, 112
6, 119908, Note_off_c, 4, 65, 64
6, 119993, Note_on_c, 4, 61, 81
6, 120069, Note_off_c, 4, 61, 64
6, 120233, Note_on_c, 4, 56, 81
6, 120319, Note_off_c, 4, 56, 64
6, 120480, Note_on_c, 4, 60, 121
6, 120583, Note_off_c, 4, 60, 64
6, 120593, Note_on_c, 4, 63, 91
6, 120697, Note_off_c, 4, 63, 64
6, 120714, Note_on_c, 4, 56, 108
6, 120811, Note_off_c, 4, 56, 64
6, 120831, Note_on_c, 4, 63, 114
6, 120914, Note_off_c, 4, 63, 64
6, 120951, Note_on_c, 4, 60, 121
6, 121038, Note_off_c, 4, 60, 64
6, 121067, Note_on_c, 4, 63, 96
6, 121166, Note_off_c, 4, 63, 64
6, 121193, Note_on_c, 4, 61, 121
6, 121312, Note_on_c, 4, 65, 75
6, 121322, Note_off_c, 4, 61, 64
6, 121400, Note_off_c, 4, 65, 64
6, 121433, Note_on_c, 4, 56, 101
6, 121520, Note_off_c, 4, 56, 64
6, 121548, Note_on_c, 4, 65, 103
6, 121632, Note_off_c, 4, 65, 64
6, 121667, Note_on_c, 4, 61, 121
6, 121774, Note_off_c, 4, 61, 64
6, 121784, Note_on_c, 4, 65, 83
6, 121892, Note_off_c, 4, 65, 64
6, 121920, Note_on_c, 4, 63, 121
6, 122028, Note_off_c, 4, 63, 64
6, 122032, Note_on_c, 4, 66, 97
6, 122139, Note_off_c, 4, 66, 64
6, 122152, Note_on_c, 4, 56, 110
6, 122232, Note_off_c, 4, 56, 64
6, 122265, Note_on_c, 4, 66, 104
6, 122350, Note_off_c, 4, 66, 64
6, 122384, Note_on_c, 4, 63, 121
6, 122485, Note_off_c, 4, 63, 64
6, 122498, Note_on_c, 4, 66, 101
6, 122591, Note_off_c, 4, 66, 64
6, 122626, Note_on_c, 4, 63, 121
6, 122751, Note_on_c, 4, 66, 91
6, 122755, Note_off_c, 4, 63, 64
6, 122847, Note_off_c, 4, 66, 64
6, 122874, Note_on_c, 4, 56, 111
6, 122961, Note_off_c, 4, 56, 64
6, 122990, Note_on_c, 4, 66, 97
6, 123078, Note_off_c, 4, 66, 64
6, 123111, Note_on_c, 4, 63, 121
6, 123180, Note_off_c, 4, 63, 64
6, 123229, Note_on_c, 4, 66, 109
6, 123324, Note_off_c, 4, 66, 64
6, 123356, Note_on_c, 4, 65, 87
6, 123482, Note_off_c, 4, 65, 64
6, 123595, Note_on_c, 4, 61, 81
6, 123688, Note_off_c, 4, 61, 64
6, 123831, Note_on_c, 4, 61, 68
6, 123927, Note_off_c, 4, 61, 64
6, 124073, Note_on_c, 4, 61, 68
6, 124169, Note_off_c, 4, 61, 64
6, 124313, Note_on_c, 4, 61, 68
6, 124404, Note_off_c, 4, 61, 64
6, 124553, Note_on_c, 4, 61, 68
6, 124640, Note_off_c, 4, 61, 64
6, 124797, Note_on_c, 4, 61, 91
6, 124946, Note_off_c, 4, 61, 64
6, 125043, Note_on_c, 4, 61, 68
6, 125126, Note_off_c, 4, 61, 64
6, 125274, Note_on_c, 4, 61, 68
6, 125360, Note_off_c, 4, 61, 64
6, 125513, Note_on_c, 4, 61, 68
6, 125590, Note_off_c, 4, 61, 64
6, 125754, Note_on_c, 4, 61, 68
6, 125839, Note_off_c, 4, 61, 64
6, 125991, Note_on_c, 4, 61, 68
6, 126073, Note_off_c, 4, 61, 64
6, 126238, Note_on_c, 4, 68, 92
6, 126387, Note_off_c, 4, 68, 64
6, 126482, Note_on_c, 4, 68, 71
6, 126588, Note_off_c, 4, 68, 64
6, 126716, Note_on_c, 4, 68, 71
6, 126812, Note_off_c, 4, 68, 64
6, 126949, Note_on_c, 4, 68, 72
6, 127040, Note_off_c, 4, 68, 64
6, 127190, Note_on_c, 4, 68, 71
6, 127274, Note_off_c, 4, 68, 64
6, 127431, Note_on_c, 4, 68, 79
6, 127516, Note_off_c, 4, 68, 64
6, 127674, Note_on_c, 4, 68, 98
6, 127797, Note_off_c, 4, 68, 64
6, 127916, Note_on_c, 4, 65, 97
6, 128019, Note_on_c, 4, 66, 72
6, 128022, Note_off_c, 4, 65, 64
6, 128132, Note_off_c, 4, 66, 64
6, 128136, Note_on_c, 4, 68, 67
6, 128237, Note_off_c, 4, 68, 64
6, 128402, Note_on_c, 4, 56, 115
6, 128592, Note_off_c, 4, 56, 64
6, 128639, Note_on_c, 4, 63, 81
6, 128725, Note_off_c, 4, 63, 64
6, 128876, Note_on_c, 4, 66, 86
6, 128958, Note_off_c, 4, 66, 64
6, 129068, Control_c, 4, 11, 38
6, 129117, Note_on_c, 4, 65, 81
6, 129119, Control_c, 4, 11, 47
6, 129170, Control_c, 4, 11, 57
6, 129221, Control_c, 4, 11, 66
6, 129272, Control_c, 4, 11, 76
6, 129323, Control_c, 4, 11, 86
6, 129338, Control_c, 4, 11, 90
6, 129389, Control_c, 4, 11, 93
6, 129440, Control_c, 4, 11, 97
6, 129491, Control_c, 4, 11, 101
6, 129542, Control_c, 4, 11, 104
6, 129593, Control_c, 4, 11, 108
6, 129644, Control_c, 4, 11, 112
6, 129695, Control_c, 4, 11, 115
6, 129746, Control_c, 4, 11, 119
6, 129797, Control_c, 4, 11, 123
6, 129847, Control_c, 4, 11, 127
6, 129888, Control_c, 4, 11, 120
6, 129940, Control_c, 4, 11, 115
6, 129992, Control_c, 4, 11, 110
6, 130044, Control_c, 4, 11, 106
6, 130096, Control_c, 4, 11, 101
6, 130148, Control_c, 4, 11, 97
6, 130200, Control_c, 4, 11, 92
6, 130251, Control_c, 4, 11, 88
6, 130252, Control_c, 4, 11, 88
6, 130296, Control_c, 4, 11, 68
6, 130335, Control_c, 4, 11, 50
6, 130336, Note_off_c, 4, 65, 64
6, 130416, Control_c, 4, 11, 100
6, 130560, Note_on_c, 4, 66, 96
6, 130734, Note_off_c, 4, 66, 64
6, 130797, Note_on_c, 4, 70, 72
6, 130893, Note_off_c, 4, 70, 64
6, 131035, Note_on_c, 4, 73, 72
6, 131128, Note_off_c, 4, 73, 64
6, 131275, Note_on_c, 4, 65, 85
6, 131428, Note_off_c, 4, 65, 64
6, 131514, Note_on_c, 4, 68, 71
6, 131610, Note_off_c, 4, 68, 64
6, 131754, Note_on_c, 4, 73, 71
6, 131840, Note_off_c, 4, 73, 64
6, 131993, Note_on_c, 4, 66, 88
6, 132145, Note_off_c, 4, 66, 64
6, 132234, Note_on_c, 4, 70, 74
6, 132326, Note_off_c, 4, 70, 64
6, 132471, Note_on_c, 4, 73, 74
6, 132564, Note_off_c, 4, 73, 64
6, 132716, Note_on_c, 4, 61, 88
6, 132871, Note_off_c, 4, 61, 64
6, 132957, Note_on_c, 4, 68, 72
6, 133057, Note_off_c, 4, 68, 64
6, 133195, Note_on_c, 4, 73, 72
6, 133306, Note_off_c, 4, 73, 64
6, 133442, Note_on_c, 4, 66, 121
6, 133547, Note_off_c, 4, 66, 64
6, 133555, Note_on_c, 4, 65, 89
6, 133660, Note_off_c, 4, 65, 64
6, 133677, Note_on_c, 4, 66, 86
6, 133769, Note_off_c, 4, 66, 64
6, 133793, Note_on_c, 4, 68, 107
6, 133881, Note_off_c, 4, 68, 64
6, 133914, Note_on_c, 4, 70, 121
6, 133995, Note_off_c, 4, 70, 64
6, 134030, Note_on_c, 4, 71, 94
6, 134116, Note_off_c, 4, 71, 64
6, 134156, Note_on_c, 4, 73, 121
6, 134270, Note_off_c, 4, 73, 64
6, 134273, Note_on_c, 4, 75, 98
6, 134376, Note_off_c, 4, 75, 64
6, 134397, Note_on_c, 4, 73, 96
6, 134486, Note_off_c, 4, 73, 64
6, 134517, Note_on_c, 4, 71, 104
6, 134608, Note_off_c, 4, 71, 64
6, 134634, Note_on_c, 4, 70, 121
6, 134715, Note_off_c, 4, 70, 64
6, 134752, Note_on_c, 4, 68, 111
6, 134827, Note_off_c, 4, 68, 64
6, 134878, Note_on_c, 4, 66, 121
6, 135015, Note_off_c, 4, 66, 64
6, 135115, Note_on_c, 4, 70, 74
6, 135206, Note_off_c, 4, 70, 64
6, 135351, Note_on_c, 4, 61, 74
6, 135431, Note_off_c, 4, 61, 64
6, 135596, Note_on_c, 4, 68, 106
6, 135745, Note_off_c, 4, 68, 64
6, 135836, Note_on_c, 4, 71, 74
6, 135931, Note_off_c, 4, 71, 64
6, 136078, Note_on_c, 4, 61, 74
6, 136153, Note_off_c, 4, 61, 64
6, 136320, Note_on_c, 4, 70, 93
6, 136450, Note_off_c, 4, 70, 64
6, 136561, Note_on_c, 4, 70, 72
6, 136658, Note_off_c, 4, 70, 64
6, 136795, Note_on_c, 4, 70, 73
6, 136904, Note_off_c, 4, 70, 64
6, 137032, Note_on_c, 4, 70, 80
6, 137170, Note_off_c, 4, 70, 64
6, 137275, Note_on_c, 4, 70, 73
6, 137386, Note_off_c, 4, 70, 64
6, 137513, Note_on_c, 4, 70, 75
6, 137614, Note_off_c, 4, 70, 64
6, 137751, Note_on_c, 4, 68, 98
6, 137905, Note_off_c, 4, 68, 64
6, 137995, Note_on_c, 4, 68, 76
6, 138084, Note_off_c, 4, 68, 64
6, 138228, Note_on_c, 4, 68, 74
6, 138323, Note_off_c, 4, 68, 64
6, 138468, Note_on_c, 4, 68, 76
6, 138589, Note_off_c, 4, 68, 64
6, 138708, Note_on_c, 4, 68, 70
6, 138795, Note_off_c, 4, 68, 64
6, 138950, Note_on_c, 4, 68, 70
6, 139034, Note_off_c, 4, 68, 64
6, 139194, Note_on_c, 4, 66, 98
6, 139334, Note_off_c, 4, 66, 64
6, 139431, Note_on_c, 4, 66, 76
6, 139537, Note_off_c, 4, 66, 64
6, 139671, Note_on_c, 4, 66, 77
6, 139759, Note_off_c, 4, 66, 64
6, 139909, Note_on_c, 4, 66, 81
6, 140038, Note_off_c, 4, 66, 64
6, 140147, Note_on_c, 4, 66, 71
6, 140227, Note_off_c, 4, 66, 64
6, 140388, Note_on_c, 4, 66, 85
6, 140447, Note_off_c, 4, 66, 64
6, 140640, Note_on_c, 4, 65, 121
6, 140759, Note_on_c, 4, 63, 92
6, 140767, Note_off_c, 4, 65, 64
6, 140862, Note_off_c, 4, 63, 64
6, 140877, Note_on_c, 4, 61, 109
6, 140968, Note_off_c, 4, 61, 64
6, 140993, Note_on_c, 4, 63, 93
6, 141089, Note_off_c, 4, 63, 64
6, 141111, Note_on_c, 4, 65, 115
6, 141204, Note_off_c, 4, 65, 64
6, 141224, Note_on_c, 4, 66, 88
6, 141334, Note_off_c, 4, 66, 64
6, 141349, Note_on_c, 4, 68, 118
6, 141473, Note_on_c, 4, 70, 91
6, 141487, Note_off_c, 4, 68, 64
6, 141579, Note_off_c, 4, 70, 64
6, 141593, Note_on_c, 4, 68, 91
6, 141682, Note_off_c, 4, 68, 64
6, 141709, Note_on_c, 4, 66, 98
6, 141807, Note_off_c, 4, 66, 64
6, 141832, Note_on_c, 4, 65, 118
6, 141928, Note_off_c, 4, 65, 64
6, 141949, Note_on_c, 4, 63, 88
6, 142042, Note_off_c, 4, 63, 64
6, 142071, Note_on_c, 4, 65, 90
6, 142248, Note_off_c, 4, 65, 64
6, 142315, Note_on_c, 4, 68, 94
6, 142409, Note_off_c, 4, 68, 64
6, 142551, Note_on_c, 4, 73, 94
6, 142628, Note_off_c, 4, 73, 64
6, 142798, Note_on_c, 4, 72, 121
6, 142918, Note_on_c, 4, 73, 85
6, 142926, Note_off_c, 4, 72, 64
6, 143028, Note_off_c, 4, 73, 64
6, 143036, Note_on_c, 4, 72, 99
6, 143121, Note_off_c, 4, 72, 64
6, 143152, Note_on_c, 4, 70, 99
6, 143242, Note_off_c, 4, 70, 64
6, 143273, Note_on_c, 4, 68, 111
6, 143347, Note_off_c, 4, 68, 64
6, 143388, Note_on_c, 4, 66, 84
6, 143463, Note_off_c, 4, 66, 64
6, 143513, Note_on_c, 4, 65, 69
6, 143675, Note_off_c, 4, 65, 64
6, 143755, Note_on_c, 4, 61, 78
6, 143853, Note_off_c, 4, 61, 64
6, 143990, Note_on_c, 4, 68, 92
6, 144091, Note_off_c, 4, 68, 64
6, 144234, Note_on_c, 4, 68, 102
6, 144347, Note_off_c, 4, 68, 64
6, 144474, Note_on_c, 4, 68, 84
6, 144594, Note_off_c, 4, 68, 64
6, 144714, Note_on_c, 4, 68, 84
6, 144832, Note_off_c, 4, 68, 64
6, 144951, Note_on_c, 4, 68, 102
6, 145114, Note_off_c, 4, 68, 64
6, 145193, Note_on_c, 4, 68, 86
6, 145313, Note_off_c, 4, 68, 64
6, 145430, Note_on_c, 4, 68, 96
6, 145546, Note_off_c, 4, 68, 64
6, 145668, Note_on_c, 4, 68, 115
6, 145802, Note_off_c, 4, 68, 64
6, 145914, Note_on_c, 4, 68, 99
6, 146018, Note_off_c, 4, 68, 64
6, 146149, Note_on_c, 4, 68, 105
6, 146243, Note_off_c, 4, 68, 64
6, 146393, Note_on_c, 4, 68, 121
6, 146556, Note_off_c, 4, 68, 64
6, 146635, Note_on_c, 4, 73, 105
6, 146703, Note_off_c, 4, 73, 64
6, 146875, Note_on_c, 4, 68, 105
6, 146951, Note_off_c, 4, 68, 64
6, 147119, Note_on_c, 4, 70, 118
6, 147215, Note_off_c, 4, 70, 64
6, 147236, Note_on_c, 4, 72, 88
6, 147320, Note_off_c, 4, 72, 64
6, 147357, Note_on_c, 4, 70, 88
6, 147441, Note_off_c, 4, 70, 64
6, 147473, Note_on_c, 4, 68, 101
6, 147558, Note_off_c, 4, 68, 64
6, 147594, Note_on_c, 4, 67, 107
6, 147680, Note_off_c, 4, 67, 64
6, 147698, Note_on_c, 4, 65, 90
6, 147783, Note_off_c, 4, 65, 64
6, 147833, Note_on_c, 4, 67, 121
6, 147991, Note_off_c, 4, 67, 64
6, 148078, Note_on_c, 4, 72, 103
6, 148143, Note_off_c, 4, 72, 64
6, 148310, Note_on_c, 4, 67, 103
6, 148384, Note_off_c, 4, 67, 64
6, 148556, Note_on_c, 4, 68, 118
6, 148659, Note_on_c, 4, 70, 90
6, 148661, Note_off_c, 4, 68, 64
6, 148758, Note_off_c, 4, 70, 64
6, 148779, Note_on_c, 4, 68, 90
6, 148862, Note_off_c, 4, 68, 64
6, 148894, Note_on_c, 4, 67, 97
6, 148977, Note_off_c, 4, 67, 64
6, 149015, Note_on_c, 4, 65, 107
6, 149104, Note_off_c, 4, 65, 64
6, 149131, Note_on_c, 4, 63, 86
6, 149221, Note_off_c, 4, 63, 64
6, 149254, Note_on_c, 4, 65, 94
6, 149418, Note_off_c, 4, 65, 64
6, 149511, Note_on_c, 4, 70, 94
6, 149590, Note_off_c, 4, 70, 64
6, 149749, Note_on_c, 4, 65, 94
6, 149829, Note_off_c, 4, 65, 64
6, 149993, Note_on_c, 4, 67, 112
6, 150121, Note_off_c, 4, 67, 64
6, 150237, Note_on_c, 4, 70, 81
6, 150323, Note_off_c, 4, 70, 64
6, 150472, Note_on_c, 4, 63, 81
6, 150548, Note_off_c, 4, 63, 64
6, 150720, Note_on_c, 4, 68, 71
6, 150869, Note_off_c, 4, 68, 64
6, 150961, Note_on_c, 4, 63, 71
6, 151035, Note_off_c, 4, 63, 64
6, 151184, Note_on_c, 4, 60, 59
6, 151266, Note_off_c, 4, 60, 64
6, 151431, Note_on_c, 4, 68, 80
6, 151616, Note_off_c, 4, 68, 64
6, 151670, Note_on_c, 4, 65, 65
6, 151759, Note_off_c, 4, 65, 64
6, 151911, Note_on_c, 4, 61, 71
6, 152009, Note_off_c, 4, 61, 64
6, 152156, Note_on_c, 4, 68, 74
6, 152337, Note_off_c, 4, 68, 64
6, 152401, Note_on_c, 4, 63, 71
6, 152471, Note_off_c, 4, 63, 64
6, 152627, Note_on_c, 4, 60, 60
6, 152724, Note_off_c, 4, 60, 64
6, 152875, Note_on_c, 4, 68, 71
6, 153056, Note_off_c, 4, 68, 64
6, 153118, Note_on_c, 4, 61, 71
6, 153204, Note_off_c, 4, 61, 64
6, 153355, Note_on_c, 4, 58, 71
6, 153441, Note_off_c, 4, 58, 64
6, 153600, Note_on_c, 4, 63, 94
6, 153765, Note_off_c, 4, 63, 64
6, 153837, Note_on_c, 4, 60, 80
6, 153897, Note_off_c, 4, 60, 64
6, 154072, Note_on_c, 4, 56, 89
6, 154158, Note_off_c, 4, 56, 64
6, 154310, Note_on_c, 4, 65, 112
6, 154468, Note_off_c, 4, 65, 64
6, 154553, Note_on_c, 4, 61, 81
6, 154629, Note_off_c, 4, 61, 64
6, 154793, Note_on_c, 4, 56, 81
6, 154879, Note_off_c, 4, 56, 64
6, 155040, Note_on_c, 4, 60, 121
6, 155143, Note_off_c, 4, 60, 64
6, 155153, Note_on_c, 4, 63, 91
6, 155257, Note_off_c, 4, 63, 64
6, 155274, Note_on_c, 4, 56, 108
6, 155371, Note_off_c, 4, 56, 64
6, 155391, Note_on_c, 4, 63, 114
6, 155474, Note_off_c, 4, 63, 64
6, 155511, Note_on_c, 4, 60, 121
6, 155598, Note_off_c, 4, 60, 64
6, 155627, Note_on_c, 4, 63, 96
6, 155726, Note_off_c, 4, 63, 64
6, 155753, Note_on_c, 4, 61, 121
6, 155872, Note_on_c, 4, 65, 75
6, 155882, Note_off_c, 4, 61, 64
6, 155960, Note_off_c, 4, 65, 64
6, 155993, Note_on_c, 4, 56, 101
6, 156080, Note_off_c, 4, 56, 64
6, 156108, Note_on_c, 4, 65, 103
6, 156192, Note_off_c, 4, 65, 64
6, 156227, Note_on_c, 4, 61, 121
6, 156334, Note_off_c, 4, 61, 64
6, 156344, Note_on_c, 4, 65, 83
6, 156452, Note_off_c, 4, 65, 64
6, 156480, Note_on_c, 4, 63, 121
6, 156588, Note_off_c, 4, 63, 64
6, 156592, Note_on_c, 4, 66, 97
6, 156699, Note_off_c, 4, 66, 64
6, 156712, Note_on_c, 4, 56, 110
6, 156792, Note_off_c, 4, 56, 64
6, 156825, Note_on_c, 4, 66, 104
6, 156910, Note_off_c, 4, 66, 64
6, 156944, Note_on_c, 4, 63, 121
6, 157045, Note_off_c, 4, 63, 64
6, 157058, Note_on_c, 4, 66, 101
6, 157151, Note_off_c, 4, 66, 64
6, 157186, Note_on_c, 4, 63, 121
6, 157311, Note_on_c, 4, 66, 91
6, 157315, Note_off_c, 4, 63, 64
6, 157407, Note_off_c, 4, 66, 64
6, 157434, Note_on_c, 4, 56, 111
6, 157521, Note_off_c, 4, 56, 64
6, 157550, Note_on_c, 4, 66, 97
6, 157638, Note_off_c, 4, 66, 64
6, 157671, Note_on_c, 4, 63, 121
6, 157740, Note_off_c, 4, 63, 64
6, 157789, Note_on_c, 4, 66, 109
6, 157884, Note_off_c, 4, 66, 64
6, 157916, Note_on_c, 4, 65, 87
6, 158042, Note_off_c, 4, 65, 64
6, 158155, Note_on_c, 4, 61, 81
6, 158248, Note_off_c, 4, 61, 64
6, 158391, Note_on_c, 4, 61, 68
6, 158487, Note_off_c, 4, 61, 64
6, 158633, Note_on_c, 4, 61, 68
6, 158729, Note_off_c, 4, 61, 64
6, 158873, Note_on_c, 4, 61, 68
6, 158964, Note_off_c, 4, 61, 64
6, 159113, Note_on_c, 4, 61, 68
6, 159200, Note_off_c, 4, 61, 64
6, 159357, Note_on_c, 4, 61, 91
6, 159506, Note_off_c, 4, 61, 64
6, 159603, Note_on_c, 4, 61, 68
6, 159686, Note_off_c, 4, 61, 64
6, 159834, Note_on_c, 4, 61, 68
6, 159920, Note_off_c, 4, 61, 64
6, 160073, Note_on_c, 4, 61, 68
6, 160150, Note_off_c, 4, 61, 64
6, 160314, Note_on_c, 4, 61, 68
6, 160399, Note_off_c, 4, 61, 64
6, 160551, Note_on_c, 4, 61, 68
6, 160633, Note_off_c, 4, 61, 64
6, 160798, Note_on_c, 4, 68, 92
6, 160947, Note_off_c, 4, 68, 64
6, 161042, Note_on_c, 4, 68, 71
6, 161148, Note_off_c, 4, 68, 64
6, 161276, Note_on_c, 4, 68, 71
6, 161372, Note_off_c, 4, 68, 64
6, 161509, Note_on_c, 4, 68, 72
6, 161600, Note_off_c, 4, 68, 64
6, 161750, Note_on_c, 4, 68, 71
6, 161834, Note_off_c, 4, 68, 64
6, 161991, Note_on_c, 4, 68, 79
6, 162076, Note_off_c, 4, 68, 64
6, 162234, Note_on_c, 4, 68, 98
6, 162357, Note_off_c, 4, 68, 64
6, 162476, Note_on_c, 4, 65, 97
6, 162579, Note_on_c, 4, 66, 72
6, 162582, Note_off_c, 4, 65, 64
6, 162692, Note_off_c, 4, 66, 64
6, 162696, Note_on_c, 4, 68, 67
6, 162797, Note_off_c, 4, 68, 64
6, 162962, Note_on_c, 4, 56, 115
6, 163152, Note_off_c, 4, 56, 64
6, 163199, Note_on_c, 4, 63, 81
6, 163285, Note_off_c, 4, 63, 64
6, 163436, Note_on_c, 4, 66, 86
6, 163518, Note_off_c, 4, 66, 64
6, 163628, Control_c, 4, 11, 38
6, 163677, Note_on_c, 4, 65, 81
6, 163679, Control_c, 4, 11, 47
6, 163730, Control_c, 4, 11, 57
6, 163781, Control_c, 4, 11, 66
6, 163832, Control_c, 4, 11, 76
6, 163883, Control_c, 4, 11, 86
6, 163898, Control_c, 4, 11, 90
6, 163949, Control_c, 4, 11, 93
6, 164000, Control_c, 4, 11, 97
6, 164051, Control_c, 4, 11, 101
6, 164102, Control_c, 4, 11, 104
6, 164153, Control_c, 4, 11, 108
6, 164204, Control_c, 4, 11, 112
6, 164255, Control_c, 4, 11, 115
6, 164306, Control_c, 4, 11, 119
6, 164357, Control_c, 4, 11, 123
6, 164407, Control_c, 4, 11, 127
6, 164448, Control_c, 4, 11, 120
6, 164500, Control_c, 4, 11, 115
6, 164552, Control_c, 4, 11, 110
6, 164604, Control_c, 4, 11, 106
6, 164656, Control_c, 4, 11, 101
6, 164708, Control_c, 4, 11, 97
6, 164760, Control_c, 4, 11, 92
6, 164811, Control_c, 4, 11, 88
6, 164812, Control_c, 4, 11, 88
6, 164856, Control_c, 4, 11, 68
6, 164895, Control_c, 4, 11, 50
6, 164896, Note_off_c, 4, 65, 64
6, 164976, Control_c, 4, 11, 100
6, 165120, Note_on_c, 4, 68, 81
6, 165241, Note_off_c, 4, 68, 64
6, 165356, Note_on_c, 4, 68, 63
6, 165449, Note_off_c, 4, 68, 64
6, 165590, Note_on_c, 4, 68, 63
6, 165692, Note_off_c, 4, 68, 64
6, 165833, Note_on_c, 4, 68, 63
6, 165956, Note_off_c, 4, 68, 64
6, 166075, Note_on_c, 4, 68, 63
6, 166170, Note_off_c, 4, 68, 64
6, 166315, Note_on_c, 4, 68, 63
6, 166407, Note_off_c, 4, 68, 64
6, 166555, Note_on_c, 4, 68, 86
6, 166677, Note_off_c, 4, 68, 64
6, 166793, Note_on_c, 4, 68, 66
6, 166877, Note_off_c, 4, 68, 64
6, 167032, Note_on_c, 4, 68, 66
6, 167138, Note_off_c, 4, 68, 64
6, 167278, Note_on_c, 4, 68, 66
6, 167368, Note_off_c, 4, 68, 64
6, 167517, Note_on_c, 4, 68, 82
6, 167605, Note_off_c, 4, 68, 64
6, 167754, Note_on_c, 4, 68, 92
6, 167842, Note_off_c, 4, 68, 64
6, 167997, Note_on_c, 4, 66, 118
6, 168114, Note_on_c, 4, 65, 94
6, 168122, Note_off_c, 4, 66, 64
6, 168206, Note_off_c, 4, 65, 64
6, 168230, Note_on_c, 4, 63, 109
6, 168325, Note_off_c, 4, 63, 64
6, 168347, Note_on_c, 4, 65, 111
6, 168431, Note_off_c, 4, 65, 64
6, 168467, Note_on_c, 4, 66, 107
6, 168563, Note_off_c, 4, 66, 64
6, 168573, Note_on_c, 4, 68, 88
6, 168658, Note_off_c, 4, 68, 64
6, 168709, Note_on_c, 4, 70, 118
6, 168818, Note_off_c, 4, 70, 64
6, 168827, Note_on_c, 4, 71, 90
6, 168932, Note_off_c, 4, 71, 64
6, 168950, Note_on_c, 4, 70, 90
6, 169038, Note_off_c, 4, 70, 64
6, 169059, Note_on_c, 4, 68, 102
6, 169147, Note_off_c, 4, 68, 64
6, 169180, Note_on_c, 4, 66, 115
6, 169272, Note_off_c, 4, 66, 64
6, 169301, Note_on_c, 4, 65, 84
6, 169378, Note_off_c, 4, 65, 64
6, 169432, Note_on_c, 4, 66, 119
6, 169535, Note_off_c, 4, 66, 64
6, 169550, Note_on_c, 4, 70, 119
6, 169656, Note_off_c, 4, 70, 64
6, 169672, Note_on_c, 4, 68, 92
6, 169770, Note_off_c, 4, 68, 64
6, 169783, Note_on_c, 4, 66, 88
6, 169880, Note_off_c, 4, 66, 64
6, 169905, Note_on_c, 4, 65, 102
6, 169996, Note_off_c, 4, 65, 64
6, 170022, Note_on_c, 4, 63, 84
6, 170118, Note_off_c, 4, 63, 64
6, 170154, Note_on_c, 4, 62, 109
6, 170267, Note_off_c, 4, 62, 64
6, 170274, Note_on_c, 4, 63, 88
6, 170386, Note_off_c, 4, 63, 64
6, 170393, Note_on_c, 4, 62, 82
6, 170497, Note_off_c, 4, 62, 64
6, 170515, Note_on_c, 4, 60, 94
6, 170605, Note_off_c, 4, 60, 64
6, 170627, Note_on_c, 4, 58, 99
6, 170710, Note_off_c, 4, 58, 64
6, 170745, Note_on_c, 4, 56, 78
6, 170827, Note_off_c, 4, 56, 64
6, 170876, Note_on_c, 4, 54, 68
6, 170993, Note_off_c, 4, 54, 64
6, 171121, Note_on_c, 4, 63, 65
6, 171191, Note_off_c, 4, 63, 64
6, 171350, Note_on_c, 4, 63, 65
6, 171431, Note_off_c, 4, 63, 64
6, 171594, Note_on_c, 4, 63, 81
6, 171714, Note_off_c, 4, 63, 64
6, 171838, Note_on_c, 4, 63, 65
6, 171916, Note_off_c, 4, 63, 64
6, 172075, Note_on_c, 4, 63, 65
6, 172159, Note_off_c, 4, 63, 64
6, 172315, Note_on_c, 4, 63, 81
6, 172423, Note_off_c, 4, 63, 64
6, 172555, Note_on_c, 4, 63, 65
6, 172641, Note_off_c, 4, 63, 64
6, 172795, Note_on_c, 4, 63, 65
6, 172882, Note_off_c, 4, 63, 64
6, 173037, Note_on_c, 4, 63, 81
6, 173153, Note_off_c, 4, 63, 64
6, 173278, Note_on_c, 4, 63, 63
6, 173370, Note_off_c, 4, 63, 64
6, 173515, Note_on_c, 4, 63, 63
6, 173607, Note_off_c, 4, 63, 64
6, 173757, Note_on_c, 4, 63, 81
6, 173883, Note_off_c, 4, 63, 64
6, 173999, Note_on_c, 4, 63, 63
6, 174085, Note_off_c, 4, 63, 64
6, 174235, Note_on_c, 4, 63, 63
6, 174327, Note_off_c, 4, 63, 64
6, 174475, Note_on_c, 4, 63, 81
6, 174588, Note_off_c, 4, 63, 64
6, 174715, Note_on_c, 4, 63, 65
6, 174799, Note_off_c, 4, 63, 64
6, 174954, Note_on_c, 4, 63, 81
6, 175045, Note_off_c, 4, 63, 64
6, 175196, Note_on_c, 4, 66, 91
6, 175368, Note_off_c, 4, 66, 64
6, 175434, Note_on_c, 4, 70, 69
6, 175512, Note_off_c, 4, 70, 64
6, 175673, Note_on_c, 4, 65, 69
6, 175741, Note_off_c, 4, 65, 64
6, 175914, Note_on_c, 4, 66, 81
6, 176153, Note_off_c, 4, 66, 64
6, 176631, Note_on_c, 4, 63, 74
6, 176820, Note_off_c, 4, 63, 64
6, 176885, Note_on_c, 4, 66, 61
6, 176958, Note_off_c, 4, 66, 64
6, 177113, Note_on_c, 4, 70, 61
6, 177209, Note_off_c, 4, 70, 64
6, 177353, Note_on_c, 4, 62, 57
6, 177501, Note_off_c, 4, 62, 64
6, 177598, Note_on_c, 4, 65, 59
6, 177670, Note_off_c, 4, 65, 64
6, 177833, Note_on_c, 4, 70, 59
6, 177928, Note_off_c, 4, 70, 64
6, 178075, Note_on_c, 4, 63, 74
6, 178225, Note_off_c, 4, 63, 64
6, 178322, Note_on_c, 4, 66, 61
6, 178406, Note_off_c, 4, 66, 64
6, 178557, Note_on_c, 4, 70, 61
6, 178650, Note_off_c, 4, 70, 64
6, 178803, Note_on_c, 4, 58, 74
6, 178943, Note_off_c, 4, 58, 64
6, 179038, Note_on_c, 4, 65, 65
6, 179120, Note_off_c, 4, 65, 64
6, 179274, Note_on_c, 4, 70, 81
6, 179365, Note_off_c, 4, 70, 64
6, 179521, Note_on_c, 4, 63, 118
6, 179635, Note_on_c, 4, 62, 93
6, 179636, Note_off_c, 4, 63, 64
6, 179736, Note_off_c, 4, 62, 64
6, 179753, Note_on_c, 4, 63, 93
6, 179843, Note_off_c, 4, 63, 64
6, 179870, Note_on_c, 4, 65, 110
6, 179949, Note_off_c, 4, 65, 64
6, 179989, Note_on_c, 4, 66, 120
6, 180078, Note_off_c, 4, 66, 64
6, 180104, Note_on_c, 4, 68, 103
6, 180191, Note_off_c, 4, 68, 64
6, 180229, Note_on_c, 4, 70, 121
6, 180335, Note_off_c, 4, 70, 64
6, 180341, Note_on_c, 4, 71, 103
6, 180437, Note_off_c, 4, 71, 64
6, 180464, Note_on_c, 4, 70, 103
6, 180548, Note_off_c, 4, 70, 64
6, 180582, Note_on_c, 4, 68, 120
6, 180666, Note_off_c, 4, 68, 64
6, 180702, Note_on_c, 4, 66, 120
6, 180790, Note_off_c, 4, 66, 64
6, 180820, Note_on_c, 4, 65, 101
6, 180902, Note_off_c, 4, 65, 64
6, 180948, Note_on_c, 4, 63, 112
6, 181082, Note_off_c, 4, 63, 64
6, 181187, Note_on_c, 4, 66, 71
6, 181279, Note_off_c, 4, 66, 64
6, 181430, Note_on_c, 4, 58, 73
6, 181508, Note_off_c, 4, 58, 64
6, 181671, Note_on_c, 4, 65, 98
6, 181825, Note_off_c, 4, 65, 64
6, 181914, Note_on_c, 4, 68, 74
6, 182008, Note_off_c, 4, 68, 64
6, 182158, Note_on_c, 4, 58, 74
6, 182246, Note_off_c, 4, 58, 64
6, 182399, Note_on_c, 4, 66, 65
6, 182490, Note_off_c, 4, 66, 64
6, 182634, Note_on_c, 4, 66, 53
6, 182727, Note_off_c, 4, 66, 64
6, 182874, Note_on_c, 4, 66, 53
6, 182955, Note_off_c, 4, 66, 64
6, 183115, Note_on_c, 4, 66, 61
6, 183217, Note_off_c, 4, 66, 64
6, 183359, Note_on_c, 4, 66, 53
6, 183437, Note_off_c, 4, 66, 64
6, 183596, Note_on_c, 4, 66, 53
6, 183677, Note_off_c, 4, 66, 64
6, 183831, Note_on_c, 4, 65, 76
6, 183925, Note_off_c, 4, 65, 64
6, 184068, Note_on_c, 4, 65, 55
6, 184152, Note_off_c, 4, 65, 64
6, 184307, Note_on_c, 4, 65, 55
6, 184402, Note_off_c, 4, 65, 64
6, 184549, Note_on_c, 4, 65, 61
6, 184659, Note_off_c, 4, 65, 64
6, 184790, Note_on_c, 4, 65, 55
6, 184896, Note_off_c, 4, 65, 64
6, 185029, Note_on_c, 4, 65, 55
6, 185132, Note_off_c, 4, 65, 64
6, 185273, Note_on_c, 4, 63, 79
6, 185389, Note_off_c, 4, 63, 64
6, 185507, Note_on_c, 4, 63, 57
6, 185618, Note_off_c, 4, 63, 64
6, 185751, Note_on_c, 4, 63, 57
6, 185860, Note_off_c, 4, 63, 64
6, 185994, Note_on_c, 4, 63, 61
6, 186106, Note_off_c, 4, 63, 64
6, 186233, Note_on_c, 4, 63, 57
6, 186329, Note_off_c, 4, 63, 64
6, 186469, Note_on_c, 4, 63, 57
6, 186559, Note_off_c, 4, 63, 64
6, 186720, Note_on_c, 4, 61, 121
6, 186823, Note_off_c, 4, 61, 64
6, 186836, Note_on_c, 4, 60, 91
6, 186932, Note_off_c, 4, 60, 64
6, 186953, Note_on_c, 4, 58, 91
6, 187054, Note_off_c, 4, 58, 64
6, 187069, Note_on_c, 4, 60, 110
6, 187150, Note_off_c, 4, 60, 64
6, 187191, Note_on_c, 4, 61, 118
6, 187284, Note_off_c, 4, 61, 64
6, 187299, Note_on_c, 4, 63, 95
6, 187388, Note_off_c, 4, 63, 64
6, 187435, Note_on_c, 4, 65, 121
6, 187543, Note_off_c, 4, 65, 64
6, 187553, Note_on_c, 4, 66, 99
6, 187648, Note_off_c, 4, 66, 64
6, 187673, Note_on_c, 4, 65, 100
6, 187748, Note_off_c, 4, 65, 64
6, 187791, Note_on_c, 4, 63, 113
6, 187875, Note_off_c, 4, 63, 64
6, 187910, Note_on_c, 4, 61, 118
6, 187980, Note_off_c, 4, 61, 64
6, 188017, Note_on_c, 4, 60, 95
6, 188092, Note_off_c, 4, 60, 64
6, 188154, Note_on_c, 4, 61, 88
6, 188303, Note_off_c, 4, 61, 64
6, 188396, Note_on_c, 4, 65, 86
6, 188466, Note_off_c, 4, 65, 64
6, 188631, Note_on_c, 4, 70, 86
6, 188710, Note_off_c, 4, 70, 64
6, 188877, Note_on_c, 4, 69, 121
6, 188966, Note_off_c, 4, 69, 64
6, 188993, Note_on_c, 4, 70, 101
6, 189094, Note_off_c, 4, 70, 64
6, 189113, Note_on_c, 4, 69, 94
6, 189207, Note_off_c, 4, 69, 64
6, 189227, Note_on_c, 4, 67, 107
6, 189323, Note_off_c, 4, 67, 64
6, 189350, Note_on_c, 4, 65, 111
6, 189423, Note_off_c, 4, 65, 64
6, 189453, Note_on_c, 4, 63, 91
6, 189527, Note_off_c, 4, 63, 64
6, 189592, Note_on_c, 4, 61, 78
6, 189743, Note_off_c, 4, 61, 64
6, 189833, Note_on_c, 4, 58, 72
6, 189913, Note_off_c, 4, 58, 64
6, 190071, Note_on_c, 4, 65, 71
6, 190149, Note_off_c, 4, 65, 64
6, 190313, Note_on_c, 4, 65, 81
6, 190402, Note_off_c, 4, 65, 64
6, 190553, Note_on_c, 4, 65, 72
6, 190632, Note_off_c, 4, 65, 64
6, 190791, Note_on_c, 4, 65, 72
6, 190876, Note_off_c, 4, 65, 64
6, 191032, Note_on_c, 4, 65, 89
6, 191132, Note_off_c, 4, 65, 64
6, 191273, Note_on_c, 4, 65, 72
6, 191355, Note_off_c, 4, 65, 64
6, 191513, Note_on_c, 4, 65, 72
6, 191603, Note_off_c, 4, 65, 64
6, 191750, Note_on_c, 4, 65, 91
6, 191853, Note_off_c, 4, 65, 64
6, 191992, Note_on_c, 4, 65, 84
6, 192082, Note_off_c, 4, 65, 64
6, 192229, Note_on_c, 4, 65, 84
6, 192318, Note_off_c, 4, 65, 64
6, 192480, Note_on_c, 4, 73, 121
6, 192587, Note_off_c, 4, 73, 64
6, 192591, Note_on_c, 4, 75, 97
6, 192709, Note_off_c, 4, 75, 64
6, 192711, Note_on_c, 4, 73, 97
6, 192791, Note_off_c, 4, 73, 64
6, 192831, Note_on_c, 4, 72, 109
6, 192912, Note_off_c, 4, 72, 64
6, 192949, Note_on_c, 4, 70, 119
6, 193026, Note_off_c, 4, 70, 64
6, 193069, Note_on_c, 4, 68, 110
6, 193138, Note_off_c, 4, 68, 64
6, 193194, Note_on_c, 4, 66, 121
6, 193300, Note_off_c, 4, 66, 64
6, 193312, Note_on_c, 4, 65, 110
6, 193392, Note_off_c, 4, 65, 64
6, 193430, Note_on_c, 4, 66, 121
6, 193504, Note_off_c, 4, 66, 64
6, 193546, Note_on_c, 4, 68, 99
6, 193620, Note_off_c, 4, 68, 64
6, 193668, Note_on_c, 4, 70, 119
6, 193748, Note_off_c, 4, 70, 64
6, 193787, Note_on_c, 4, 66, 104
6, 193862, Note_off_c, 4, 66, 64
6, 193915, Note_on_c, 4, 72, 121
6, 194024, Note_off_c, 4, 72, 64
6, 194031, Note_on_c, 4, 73, 94
6, 194120, Note_off_c, 4, 73, 64
6, 194146, Note_on_c, 4, 72, 96
6, 194218, Note_off_c, 4, 72, 64
6, 194262, Note_on_c, 4, 70, 91
6, 194343, Note_off_c, 4, 70, 64
6, 194385, Note_on_c, 4, 68, 94
6, 194463, Note_off_c, 4, 68, 64
6, 194507, Note_on_c, 4, 66, 106
6, 194583, Note_off_c, 4, 66, 64
6, 194632, Note_on_c, 4, 65, 120
6, 194735, Note_off_c, 4, 65, 64
6, 194749, Note_on_c, 4, 63, 91
6, 194845, Note_off_c, 4, 63, 64
6, 194867, Note_on_c, 4, 65, 110
6, 194937, Note_off_c, 4, 65, 64
6, 194985, Note_on_c, 4, 66, 100
6, 195064, Note_off_c, 4, 66, 64
6, 195104, Note_on_c, 4, 68, 111
6, 195181, Note_off_c, 4, 68, 64
6, 195224, Note_on_c, 4, 65, 116
6, 195300, Note_off_c, 4, 65, 64
6, 195354, Note_on_c, 4, 70, 121
6, 195470, Note_on_c, 4, 72, 100
6, 195477, Note_off_c, 4, 70, 64
6, 195566, Note_off_c, 4, 72, 64
6, 195585, Note_on_c, 4, 70, 100
6, 195659, Note_off_c, 4, 70, 64
6, 195703, Note_on_c, 4, 68, 97
6, 195777, Note_off_c, 4, 68, 64
6, 195823, Note_on_c, 4, 66, 119
6, 195897, Note_off_c, 4, 66, 64
6, 195943, Note_on_c, 4, 65, 102
6, 196013, Note_off_c, 4, 65, 64
6, 196068, Note_on_c, 4, 63, 117
6, 196194, Note_on_c, 4, 61, 87
6, 196196, Note_off_c, 4, 63, 64
6, 196277, Note_off_c, 4, 61, 64
6, 196311, Note_on_c, 4, 63, 95
6, 196392, Note_off_c, 4, 63, 64
6, 196429, Note_on_c, 4, 65, 115
6, 196486, Note_off_c, 4, 65, 64
6, 196547, Note_on_c, 4, 66, 120
6, 196619, Note_off_c, 4, 66, 64
6, 196655, Note_on_c, 4, 63, 118
6, 196726, Note_off_c, 4, 63, 64
6, 196800, Note_on_c, 4, 65, 87
6, 196931, Note_off_c, 4, 65, 64
6, 197042, Note_on_c, 4, 60, 63
6, 197099, Note_off_c, 4, 60, 64
6, 197277, Note_on_c, 4, 57, 63
6, 197349, Note_off_c, 4, 57, 64
6, 197514, Note_on_c, 4, 65, 81
6, 197647, Note_off_c, 4, 65, 64
6, 197755, Note_on_c, 4, 61, 61
6, 197820, Note_off_c, 4, 61, 64
6, 197990, Note_on_c, 4, 58, 61
6, 198068, Note_off_c, 4, 58, 64
6, 198232, Note_on_c, 4, 63, 81
6, 198373, Note_off_c, 4, 63, 64
6, 198473, Note_on_c, 4, 60, 63
6, 198552, Note_off_c, 4, 60, 64
6, 198713, Note_on_c, 4, 57, 63
6, 198809, Note_off_c, 4, 57, 64
6, 198955, Note_on_c, 4, 61, 81
6, 199113, Note_off_c, 4, 61, 64
6, 199198, Note_on_c, 4, 58, 61
6, 199274, Note_off_c, 4, 58, 64
6, 199436, Note_on_c, 4, 53, 61
6, 199534, Note_off_c, 4, 53, 64
6, 199675, Note_on_c, 4, 60, 84
6, 199791, Note_off_c, 4, 60, 64
6, 199918, Note_on_c, 4, 57, 63
6, 200004, Note_off_c, 4, 57, 64
6, 200153, Note_on_c, 4, 53, 63
6, 200252, Note_off_c, 4, 53, 64
6, 200395, Note_on_c, 4, 61, 81
6, 200527, Note_off_c, 4, 61, 64
6, 200634, Note_on_c, 4, 58, 71
6, 200718, Note_off_c, 4, 58, 64
6, 200871, Note_on_c, 4, 53, 82
6, 200968, Note_off_c, 4, 53, 64
6, 201120, Note_on_c, 4, 69, 121
6, 201214, Note_off_c, 4, 69, 64
6, 201233, Note_on_c, 4, 72, 116
6, 201311, Note_off_c, 4, 72, 64
6, 201350, Note_on_c, 4, 65, 106
6, 201423, Note_off_c, 4, 65, 64
6, 201466, Note_on_c, 4, 72, 106
6, 201538, Note_off_c, 4, 72, 64
6, 201585, Note_on_c, 4, 69, 120
6, 201652, Note_off_c, 4, 69, 64
6, 201702, Note_on_c, 4, 72, 111
6, 201781, Note_off_c, 4, 72, 64
6, 201831, Note_on_c, 4, 70, 119
6, 201945, Note_off_c, 4, 70, 64
6, 201950, Note_on_c, 4, 73, 84
6, 202045, Note_off_c, 4, 73, 64
6, 202071, Note_on_c, 4, 65, 103
6, 202164, Note_off_c, 4, 65, 64
6, 202188, Note_on_c, 4, 73, 84
6, 202264, Note_off_c, 4, 73, 64
6, 202309, Note_on_c, 4, 70, 113
6, 202385, Note_off_c, 4, 70, 64
6, 202424, Note_on_c, 4, 73, 105
6, 202504, Note_off_c, 4, 73, 64
6, 202552, Note_on_c, 4, 72, 121
6, 202648, Note_off_c, 4, 72, 64
6, 202659, Note_on_c, 4, 75, 96
6, 202761, Note_off_c, 4, 75, 64
6, 202786, Note_on_c, 4, 65, 94
6, 202867, Note_off_c, 4, 65, 64
6, 202893, Note_on_c, 4, 75, 90
6, 202981, Note_off_c, 4, 75, 64
6, 203023, Note_on_c, 4, 72, 116
6, 203106, Note_off_c, 4, 72, 64
6, 203132, Note_on_c, 4, 75, 96
6, 203221, Note_off_c, 4, 75, 64
6, 203269, Note_on_c, 4, 72, 121
6, 203374, Note_on_c, 4, 75, 91
6, 203379, Note_off_c, 4, 72, 64
6, 203469, Note_off_c, 4, 75, 64
6, 203506, Note_on_c, 4, 65, 92
6, 203594, Note_off_c, 4, 65, 64
6, 203615, Note_on_c, 4, 75, 84
6, 203709, Note_off_c, 4, 75, 64
6, 203752, Note_on_c, 4, 72, 121
6, 203832, Note_off_c, 4, 72, 64
6, 203859, Note_on_c, 4, 75, 96
6, 203959, Note_off_c, 4, 75, 64
6, 203990, Note_on_c, 4, 74, 93
6, 204154, Note_off_c, 4, 74, 64
6, 204240, Note_on_c, 4, 58, 71
6, 204311, Note_off_c, 4, 58, 64
6, 204471, Note_on_c, 4, 58, 71
6, 204562, Note_off_c, 4, 58, 64
6, 204714, Note_on_c, 4, 58, 81
6, 204848, Note_off_c, 4, 58, 64
6, 204957, Note_on_c, 4, 58, 76
6, 205043, Note_off_c, 4, 58, 64
6, 205195, Note_on_c, 4, 58, 76
6, 205265, Note_off_c, 4, 58, 64
6, 205440, Note_on_c, 4, 58, 84
6, 205569, Note_off_c, 4, 58, 64
6, 205674, Note_on_c, 4, 58, 69
6, 205764, Note_off_c, 4, 58, 64
6, 205911, Note_on_c, 4, 58, 69
6, 205999, Note_off_c, 4, 58, 64
6, 206147, Note_on_c, 4, 58, 84
6, 206242, Note_off_c, 4, 58, 64
6, 206387, Note_on_c, 4, 58, 78
6, 206479, Note_off_c, 4, 58, 64
6, 206626, Note_on_c, 4, 58, 78
6, 206732, Note_off_c, 4, 58, 64
6, 206871, Note_on_c, 4, 65, 93
6, 206996, Note_off_c, 4, 65, 64
6, 207116, Note_on_c, 4, 65, 82
6, 207218, Note_off_c, 4, 65, 64
6, 207355, Note_on_c, 4, 65, 82
6, 207450, Note_off_c, 4, 65, 64
6, 207591, Note_on_c, 4, 65, 95
6, 207680, Note_off_c, 4, 65, 64
6, 207830, Note_on_c, 4, 65, 80
6, 207930, Note_off_c, 4, 65, 64
6, 208077, Note_on_c, 4, 65, 95
6, 208176, Note_off_c, 4, 65, 64
6, 208324, Note_on_c, 4, 65, 117
6, 208439, Note_on_c, 4, 63, 85
6, 208445, Note_off_c, 4, 65, 64
6, 208528, Note_off_c, 4, 63, 64
6, 208556, Note_on_c, 4, 61, 99
6, 208656, Note_on_c, 4, 63, 87
6, 208667, Note_off_c, 4, 61, 64
6, 208757, Note_off_c, 4, 63, 64
6, 208777, Note_on_c, 4, 65, 84
6, 208892, Note_off_c, 4, 65, 64
6, 209038, Note_on_c, 4, 53, 109
6, 209219, Note_off_c, 4, 53, 64
6, 209276, Note_on_c, 4, 60, 103
6, 209400, Note_on_c, 4, 61, 87
6, 209404, Note_off_c, 4, 60, 64
6, 209508, Note_off_c, 4, 61, 64
6, 209510, Note_on_c, 4, 63, 74
6, 209606, Note_off_c, 4, 63, 64
6, 209736, Control_c, 4, 11, 62
6, 209760, Control_c, 4, 11, 64
6, 209762, Note_on_c, 4, 61, 106
6, 209784, Control_c, 4, 11, 67
6, 209809, Control_c, 4, 11, 70
6, 209833, Control_c, 4, 11, 73
6, 209857, Control_c, 4, 11, 76
6, 209882, Control_c, 4, 11, 79
6, 209906, Control_c, 4, 11, 81
6, 209931, Control_c, 4, 11, 84
6, 209955, Control_c, 4, 11, 87
6, 209979, Control_c, 4, 11, 90
6, 210004, Control_c, 4, 11, 93
6, 210028, Control_c, 4, 11, 96
6, 210052, Control_c, 4, 11, 99
6, 210077, Control_c, 4, 11, 101
6, 210101, Control_c, 4, 11, 104
6, 210126, Control_c, 4, 11, 107
6, 210150, Control_c, 4, 11, 110
6, 210174, Control_c, 4, 11, 113
6, 210199, Control_c, 4, 11, 116
6, 210223, Control_c, 4, 11, 119
6, 210232, Control_c, 4, 11, 118
6, 210257, Control_c, 4, 11, 113
6, 210282, Control_c, 4, 11, 108
6, 210308, Control_c, 4, 11, 103
6, 210333, Control_c, 4, 11, 98
6, 210358, Control_c, 4, 11, 93
6, 210384, Control_c, 4, 11, 88
6, 210409, Control_c, 4, 11, 83
6, 210434, Control_c, 4, 11, 79
6, 210452, Control_c, 4, 11, 70
6, 210477, Control_c, 4, 11, 62
6, 210502, Control_c, 4, 11, 54
6, 210527, Control_c, 4, 11, 46
6, 210542, Note_off_c, 4, 61, 64
6, 210560, Control_c, 4, 11, 100
6, 210582, Note_on_c, 4, 60, 96
6, 210693, Note_off_c, 4, 60, 64
6, 210709, Note_on_c, 4, 58, 113
6, 210807, Note_off_c, 4, 58, 64
6, 210825, Note_on_c, 4, 60, 117
6, 210908, Note_off_c, 4, 60, 64
6, 210943, Note_on_c, 4, 61, 101
6, 211022, Note_off_c, 4, 61, 64
6, 211058, Note_on_c, 4, 63, 118
6, 211165, Note_off_c, 4, 63, 64
6, 211200, Note_on_c, 4, 65, 121
6, 211317, Note_on_c, 4, 66, 81
6, 211322, Note_off_c, 4, 65, 64
6, 211433, Note_on_c, 4, 68, 81
6, 211440, Note_off_c, 4, 66, 64
6, 211519, Note_off_c, 4, 68, 64
6, 211551, Note_on_c, 4, 66, 102
6, 211640, Note_off_c, 4, 66, 64
6, 211669, Note_on_c, 4, 65, 109
6, 211751, Note_off_c, 4, 65, 64
6, 211784, Note_on_c, 4, 63, 86
6, 211878, Note_off_c, 4, 63, 64
6, 211911, Note_on_c, 4, 62, 117
6, 212018, Note_off_c, 4, 62, 64
6, 212028, Note_on_c, 4, 63, 81
6, 212139, Note_off_c, 4, 63, 64
6, 212143, Note_on_c, 4, 65, 89
6, 212236, Note_off_c, 4, 65, 64
6, 212264, Note_on_c, 4, 63, 96
6, 212353, Note_off_c, 4, 63, 64
6, 212386, Note_on_c, 4, 62, 112
6, 212456, Note_off_c, 4, 62, 64
6, 212505, Note_on_c, 4, 60, 86
6, 212584, Note_off_c, 4, 60, 64
6, 212628, Note_on_c, 4, 58, 96
6, 212717, Note_off_c, 4, 58, 64
6, 212746, Note_on_c, 4, 62, 107
6, 212843, Note_off_c, 4, 62, 64
6, 212864, Note_on_c, 4, 63, 109
6, 212967, Note_off_c, 4, 63, 64
6, 212980, Note_on_c, 4, 65, 88
6, 213082, Note_off_c, 4, 65, 64
6, 213103, Note_on_c, 4, 66, 103
6, 213200, Note_off_c, 4, 66, 64
6, 213218, Note_on_c, 4, 68, 106
6, 213324, Note_off_c, 4, 68, 64
6, 213346, Note_on_c, 4, 70, 94
6, 213467, Note_on_c, 4, 68, 119
6, 213480, Note_off_c, 4, 70, 64
6, 213581, Note_off_c, 4, 68, 64
6, 213589, Note_on_c, 4, 66, 94
6, 213688, Note_off_c, 4, 66, 64
6, 213705, Note_on_c, 4, 68, 101
6, 213793, Note_off_c, 4, 68, 64
6, 213824, Note_on_c, 4, 70, 101
6, 213922, Note_off_c, 4, 70, 64
6, 213942, Note_on_c, 4, 71, 85
6, 214039, Note_off_c, 4, 71, 64
6, 214070, Note_on_c, 4, 73, 81
6, 214222, Note_off_c, 4, 73, 64
6, 214315, Note_on_c, 4, 73, 81
6, 214402, Note_off_c, 4, 73, 64
6, 214550, Note_on_c, 4, 73, 81
6, 214630, Note_off_c, 4, 73, 64
6, 214791, Note_on_c, 4, 73, 82
6, 214903, Note_off_c, 4, 73, 64
6, 215033, Note_on_c, 4, 73, 82
6, 215102, Note_off_c, 4, 73, 64
6, 215272, Note_on_c, 4, 73, 82
6, 215342, Note_off_c, 4, 73, 64
6, 215513, Note_on_c, 4, 73, 84
6, 215745, Note_off_c, 4, 73, 64
6, 215768, Note_on_c, 4, 75, 107
6, 215877, Note_on_c, 4, 73, 84
6, 215879, Note_off_c, 4, 75, 64
6, 215954, Note_off_c, 4, 73, 64
6, 215991, Note_on_c, 4, 71, 95
6, 216094, Note_off_c, 4, 71, 64
6, 216106, Note_on_c, 4, 70, 77
6, 216202, Note_off_c, 4, 70, 64
6, 216227, Note_on_c, 4, 71, 77
6, 216334, Note_off_c, 4, 71, 64
6, 216471, Note_on_c, 4, 68, 81
6, 216563, Note_off_c, 4, 68, 64
6, 217080, Note_on_c, 4, 61, 121
6, 217178, Note_off_c, 4, 61, 64
6, 217193, Note_on_c, 4, 64, 121
6, 217286, Note_off_c, 4, 64, 64
6, 217308, Note_on_c, 4, 68, 96
6, 217403, Note_off_c, 4, 68, 64
6, 217428, Note_on_c, 4, 64, 115
6, 217510, Note_off_c, 4, 64, 64
6, 217545, Note_on_c, 4, 61, 90
6, 217632, Note_off_c, 4, 61, 64
6, 217675, Note_on_c, 4, 70, 118
6, 217826, Note_off_c, 4, 70, 64
6, 217914, Note_on_c, 4, 70, 118
6, 218058, Note_off_c, 4, 70, 64
6, 218155, Note_on_c, 4, 70, 120
6, 218284, Note_off_c, 4, 70, 64
6, 218395, Note_on_c, 4, 70, 121
6, 218515, Note_off_c, 4, 70, 64
6, 218517, Note_on_c, 4, 59, 94
6, 218606, Note_off_c, 4, 59, 64
6, 218637, Note_on_c, 4, 63, 121
6, 218720, Note_off_c, 4, 63, 64
6, 218749, Note_on_c, 4, 66, 94
6, 218826, Note_off_c, 4, 66, 64
6, 218867, Note_on_c, 4, 63, 118
6, 218956, Note_off_c, 4, 63, 64
6, 218981, Note_on_c, 4, 59, 92
6, 219077, Note_off_c, 4, 59, 64
6, 219108, Note_on_c, 4, 68, 102
6, 219276, Note_off_c, 4, 68, 64
6, 219354, Note_on_c, 4, 68, 118
6, 219490, Note_off_c, 4, 68, 64
6, 219595, Note_on_c, 4, 68, 109
6, 219716, Note_off_c, 4, 68, 64
6, 219840, Note_on_c, 4, 58, 120
6, 219942, Note_off_c, 4, 58, 64
6, 219955, Note_on_c, 4, 61, 98
6, 220044, Note_off_c, 4, 61, 64
6, 220070, Note_on_c, 4, 54, 103
6, 220160, Note_off_c, 4, 54, 64
6, 220186, Note_on_c, 4, 61, 94
6, 220282, Note_off_c, 4, 61, 64
6, 220309, Note_on_c, 4, 58, 118
6, 220399, Note_off_c, 4, 58, 64
6, 220424, Note_on_c, 4, 61, 99
6, 220504, Note_off_c, 4, 61, 64
6, 220553, Note_on_c, 4, 59, 121
6, 220651, Note_off_c, 4, 59, 64
6, 220669, Note_on_c, 4, 63, 101
6, 220756, Note_off_c, 4, 63, 64
6, 220785, Note_on_c, 4, 54, 103
6, 220878, Note_off_c, 4, 54, 64
6, 220904, Note_on_c, 4, 63, 92
6, 220988, Note_off_c, 4, 63, 64
6, 221028, Note_on_c, 4, 59, 120
6, 221117, Note_off_c, 4, 59, 64
6, 221144, Note_on_c, 4, 63, 99
6, 221221, Note_off_c, 4, 63, 64
6, 221271, Note_on_c, 4, 61, 121
6, 221379, Note_off_c, 4, 61, 64
6, 221389, Note_on_c, 4, 64, 89
6, 221478, Note_off_c, 4, 64, 64
6, 221507, Note_on_c, 4, 54, 101
6, 221598, Note_off_c, 4, 54, 64
6, 221624, Note_on_c, 4, 64, 99
6, 221709, Note_off_c, 4, 64, 64
6, 221748, Note_on_c, 4, 61, 120
6, 221821, Note_off_c, 4, 61, 64
6, 221861, Note_on_c, 4, 64, 102
6, 221943, Note_off_c, 4, 64, 64
6, 221991, Note_on_c, 4, 63, 121
6, 222099, Note_off_c, 4, 63, 64
6, 222108, Note_on_c, 4, 66, 96
6, 222199, Note_off_c, 4, 66, 64
6, 222228, Note_on_c, 4, 54, 101
6, 222310, Note_off_c, 4, 54, 64
6, 222343, Note_on_c, 4, 66, 98
6, 222429, Note_off_c, 4, 66, 64
6, 222467, Note_on_c, 4, 63, 120
6, 222541, Note_off_c, 4, 63, 64
6, 222582, Note_on_c, 4, 66, 90
6, 222660, Note_off_c, 4, 66, 64
6, 222709, Note_on_c, 4, 64, 101
6, 222815, Note_off_c, 4, 64, 64
6, 222827, Note_on_c, 4, 58, 82
6, 222909, Note_off_c, 4, 58, 64
6, 222950, Note_on_c, 4, 64, 115
6, 223057, Note_off_c, 4, 64, 64
6, 223068, Note_on_c, 4, 58, 80
6, 223147, Note_off_c, 4, 58, 64
6, 223187, Note_on_c, 4, 64, 112
6, 223301, Note_off_c, 4, 64, 64
6, 223306, Note_on_c, 4, 58, 80
6, 223392, Note_off_c, 4, 58, 64
6, 223430, Note_on_c, 4, 63, 109
6, 223538, Note_off_c, 4, 63, 64
6, 223547, Note_on_c, 4, 59, 81
6, 223618, Note_off_c, 4, 59, 64
6, 223669, Note_on_c, 4, 63, 106
6, 223770, Note_off_c, 4, 63, 64
6, 223787, Note_on_c, 4, 59, 78
6, 223859, Note_off_c, 4, 59, 64
6, 223908, Note_on_c, 4, 63, 102
6, 223995, Note_off_c, 4, 63, 64
6, 224027, Note_on_c, 4, 59, 78
6, 224103, Note_off_c, 4, 59, 64
6, 224152, Note_on_c, 4, 61, 115
6, 224261, Note_off_c, 4, 61, 64
6, 224272, Note_on_c, 4, 54, 71
6, 224355, Note_off_c, 4, 54, 64
6, 224391, Note_on_c, 4, 61, 94
6, 224496, Note_off_c, 4, 61, 64
6, 224507, Note_on_c, 4, 54, 69
6, 224584, Note_off_c, 4, 54, 64
6, 224629, Note_on_c, 4, 61, 92
6, 224741, Note_off_c, 4, 61, 64
6, 224744, Note_on_c, 4, 54, 67
6, 224828, Note_off_c, 4, 54, 64
6, 224870, Note_on_c, 4, 59, 98
6, 224972, Note_off_c, 4, 59, 64
6, 224987, Note_on_c, 4, 54, 65
6, 225070, Note_off_c, 4, 54, 64
6, 225108, Note_on_c, 4, 59, 92
6, 225197, Note_off_c, 4, 59, 64
6, 225225, Note_on_c, 4, 54, 69
6, 225307, Note_off_c, 4, 54, 64
6, 225347, Note_on_c, 4, 59, 81
6, 225432, Note_off_c, 4, 59, 64
6, 225467, Note_on_c, 4, 54, 69
6, 225536, Note_off_c, 4, 54, 64
6, 225600, Note_on_c, 4, 59, 105
6, 225766, Note_off_c, 4, 59, 64
6, 225838, Note_on_c, 4, 62, 86
6, 225925, Note_off_c, 4, 62, 64
6, 226076, Note_on_c, 4, 68, 86
6, 226152, Note_off_c, 4, 68, 64
6, 226318, Note_on_c, 4, 62, 107
6, 226459, Note_off_c, 4, 62, 64
6, 226553, Note_on_c, 4, 68, 92
6, 226635, Note_off_c, 4, 68, 64
6, 226799, Note_on_c, 4, 71, 99
6, 226869, Note_off_c, 4, 71, 64
6, 227040, Note_on_c, 4, 70, 121
6, 227143, Note_off_c, 4, 70, 64
6, 227155, Note_on_c, 4, 73, 113
6, 227232, Note_off_c, 4, 73, 64
6, 227273, Note_on_c, 4, 66, 116
6, 227341, Note_off_c, 4, 66, 64
6, 227389, Note_on_c, 4, 73, 102
6, 227452, Note_off_c, 4, 73, 64
6, 227513, Note_on_c, 4, 70, 121
6, 227626, Note_on_c, 4, 68, 84
6, 227641, Note_off_c, 4, 70, 64
6, 227748, Note_off_c, 4, 68, 64
6, 227748, Note_on_c, 4, 70, 77
6, 227867, Note_off_c, 4, 70, 64
6, 227869, Note_on_c, 4, 73, 111
6, 227939, Note_off_c, 4, 73, 64
6, 227987, Note_on_c, 4, 66, 119
6, 228059, Note_off_c, 4, 66, 64
6, 228100, Note_on_c, 4, 73, 96
6, 228166, Note_off_c, 4, 73, 64
6, 228225, Note_on_c, 4, 70, 113
6, 228295, Note_off_c, 4, 70, 64
6, 228339, Note_on_c, 4, 73, 105
6, 228418, Note_off_c, 4, 73, 64
6, 228480, Note_on_c, 4, 71, 106
6, 228606, Note_on_c, 4, 73, 84
6, 228618, Note_off_c, 4, 71, 64
6, 228716, Note_off_c, 4, 73, 64
6, 228722, Note_on_c, 4, 75, 84
6, 228817, Note_off_c, 4, 75, 64
6, 228840, Note_on_c, 4, 71, 102
6, 228938, Note_off_c, 4, 71, 64
6, 228955, Note_on_c, 4, 70, 96
6, 229045, Note_off_c, 4, 70, 64
6, 229064, Note_on_c, 4, 71, 88
6, 229147, Note_off_c, 4, 71, 64
6, 229184, Note_on_c, 4, 68, 105
6, 229306, Note_off_c, 4, 68, 64
6, 229308, Note_on_c, 4, 71, 91
6, 229418, Note_off_c, 4, 71, 64
6, 229428, Note_on_c, 4, 75, 92
6, 229531, Note_off_c, 4, 75, 64
6, 229552, Note_on_c, 4, 71, 88
6, 229663, Note_off_c, 4, 71, 64
6, 229670, Note_on_c, 4, 70, 95
6, 229767, Note_off_c, 4, 70, 64
6, 229781, Note_on_c, 4, 71, 95
6, 229866, Note_off_c, 4, 71, 64
6, 229910, Note_on_c, 4, 66, 106
6, 230022, Note_off_c, 4, 66, 64
6, 230038, Note_on_c, 4, 71, 113
6, 230095, Note_on_c, 4, 73, 101
6, 230107, Note_off_c, 4, 71, 64
6, 230137, Note_on_c, 4, 75, 101
6, 230158, Note_off_c, 4, 73, 64
6, 230260, Note_off_c, 4, 75, 64
6, 230262, Note_on_c, 4, 71, 100
6, 230364, Note_off_c, 4, 71, 64
6, 230382, Note_on_c, 4, 70, 96
6, 230484, Note_off_c, 4, 70, 64
6, 230490, Note_on_c, 4, 71, 94
6, 230585, Note_off_c, 4, 71, 64
6, 230612, Note_on_c, 4, 64, 94
6, 230728, Note_off_c, 4, 64, 64
6, 230734, Note_on_c, 4, 71, 84
6, 230842, Note_off_c, 4, 71, 64
6, 230850, Note_on_c, 4, 75, 105
6, 230956, Note_off_c, 4, 75, 64
6, 230979, Note_on_c, 4, 71, 95
6, 231081, Note_off_c, 4, 71, 64
6, 231092, Note_on_c, 4, 70, 91
6, 231197, Note_off_c, 4, 70, 64
6, 231209, Note_on_c, 4, 71, 94
6, 231291, Note_off_c, 4, 71, 64
6, 231337, Note_on_c, 4, 66, 96
6, 231465, Note_off_c, 4, 66, 64
6, 231471, Note_on_c, 4, 71, 111
6, 231538, Note_on_c, 4, 73, 103
6, 231541, Note_off_c, 4, 71, 64
6, 231565, Note_on_c, 4, 75, 103
6, 231581, Note_off_c, 4, 73, 64
6, 231680, Note_off_c, 4, 75, 64
6, 231690, Note_on_c, 4, 71, 100
6, 231800, Note_off_c, 4, 71, 64
6, 231807, Note_on_c, 4, 70, 94
6, 231917, Note_off_c, 4, 70, 64
6, 231925, Note_on_c, 4, 71, 95
6, 232043, Note_off_c, 4, 71, 64
6, 232060, Note_on_c, 4, 68, 88
6, 232188, Note_on_c, 4, 71, 84
6, 232195, Note_off_c, 4, 68, 64
6, 232297, Note_off_c, 4, 71, 64
6, 232309, Note_on_c, 4, 75, 92
6, 232399, Note_off_c, 4, 75, 64
6, 232428, Note_on_c, 4, 71, 96
6, 232521, Note_off_c, 4, 71, 64
6, 232536, Note_on_c, 4, 70, 96
6, 232648, Note_off_c, 4, 70, 64
6, 232655, Note_on_c, 4, 71, 90
6, 232754, Note_off_c, 4, 71, 64
6, 232776, Note_on_c, 4, 66, 102
6, 232906, Note_on_c, 4, 71, 107
6, 232927, Note_off_c, 4, 66, 64
6, 232975, Note_on_c, 4, 73, 95
6, 232988, Note_off_c, 4, 71, 64
6, 233018, Note_on_c, 4, 75, 95
6, 233033, Note_off_c, 4, 73, 64
6, 233121, Note_off_c, 4, 75, 64
6, 233135, Note_on_c, 4, 71, 96
6, 233237, Note_off_c, 4, 71, 64
6, 233254, Note_on_c, 4, 66, 92
6, 233361, Note_off_c, 4, 66, 64
6, 233369, Note_on_c, 4, 70, 94
6, 233471, Note_off_c, 4, 70, 64
6, 233500, Note_on_c, 4, 71, 99
6, 233612, Note_off_c, 4, 71, 64
6, 233641, Note_on_c, 4, 68, 113
6, 233739, Note_off_c, 4, 68, 64
6, 233764, Note_on_c, 4, 66, 116
6, 233857, Note_off_c, 4, 66, 64
6, 233872, Note_on_c, 4, 64, 96
6, 233968, Note_off_c, 4, 64, 64
6, 233988, Note_on_c, 4, 63, 113
6, 234080, Note_off_c, 4, 63, 64
6, 234100, Note_on_c, 4, 61, 85
6, 234185, Note_off_c, 4, 61, 64
6, 234240, Note_on_c, 4, 59, 121
6, 234355, Note_off_c, 4, 59, 64
6, 234356, Note_on_c, 4, 58, 94
6, 234464, Note_off_c, 4, 58, 64
6, 234472, Note_on_c, 4, 59, 93
6, 234562, Note_off_c, 4, 59, 64
6, 234593, Note_on_c, 4, 61, 102
6, 234666, Note_off_c, 4, 61, 64
6, 234713, Note_on_c, 4, 63, 105
6, 234808, Note_off_c, 4, 63, 64
6, 234830, Note_on_c, 4, 64, 99
6, 234917, Note_off_c, 4, 64, 64
6, 234957, Note_on_c, 4, 66, 119
6, 235074, Note_off_c, 4, 66, 64
6, 235075, Note_on_c, 4, 68, 81
6, 235181, Note_off_c, 4, 68, 64
6, 235194, Note_on_c, 4, 66, 89
6, 235283, Note_off_c, 4, 66, 64
6, 235311, Note_on_c, 4, 64, 105
6, 235403, Note_off_c, 4, 64, 64
6, 235430, Note_on_c, 4, 63, 111
6, 235522, Note_off_c, 4, 63, 64
6, 235542, Note_on_c, 4, 61, 92
6, 235621, Note_off_c, 4, 61, 64
6, 235669, Note_on_c, 4, 63, 92
6, 235834, Note_off_c, 4, 63, 64
6, 235913, Note_on_c, 4, 66, 120
6, 236016, Note_off_c, 4, 66, 64
6, 236148, Note_on_c, 4, 71, 106
6, 236247, Note_off_c, 4, 71, 64
6, 236394, Note_on_c, 4, 70, 102
6, 236492, Note_off_c, 4, 70, 64
6, 236509, Note_on_c, 4, 71, 85
6, 236629, Note_off_c, 4, 71, 64
6, 236631, Note_on_c, 4, 70, 98
6, 236716, Note_off_c, 4, 70, 64
6, 236749, Note_on_c, 4, 68, 109
6, 236840, Note_off_c, 4, 68, 64
6, 236866, Note_on_c, 4, 66, 101
6, 236954, Note_off_c, 4, 66, 64
6, 236975, Note_on_c, 4, 64, 106
6, 237051, Note_off_c, 4, 64, 64
6, 237109, Note_on_c, 4, 63, 109
6, 237281, Note_off_c, 4, 63, 64
6, 237351, Note_on_c, 4, 59, 82
6, 237450, Note_off_c, 4, 59, 64
6, 237589, Note_on_c, 4, 66, 80
6, 237667, Note_off_c, 4, 66, 64
6, 237835, Note_on_c, 4, 66, 92
6, 237949, Note_off_c, 4, 66, 64
6, 238081, Note_on_c, 4, 66, 80
6, 238179, Note_off_c, 4, 66, 64
6, 238323, Note_on_c, 4, 66, 80
6, 238413, Note_off_c, 4, 66, 64
6, 238559, Note_on_c, 4, 66, 102
6, 238662, Note_off_c, 4, 66, 64
6, 238797, Note_on_c, 4, 66, 88
6, 238889, Note_off_c, 4, 66, 64
6, 239035, Note_on_c, 4, 66, 88
6, 239116, Note_off_c, 4, 66, 64
6, 239275, Note_on_c, 4, 66, 103
6, 239383, Note_off_c, 4, 66, 64
6, 239517, Note_on_c, 4, 66, 96
6, 239592, Note_off_c, 4, 66, 64
6, 239751, Note_on_c, 4, 66, 96
6, 239835, Note_off_c, 4, 66, 64
6, 239995, Note_on_c, 4, 66, 120
6, 240150, Note_off_c, 4, 66, 64
6, 240237, Note_on_c, 4, 71, 96
6, 240350, Note_off_c, 4, 71, 64
6, 240473, Note_on_c, 4, 66, 115
6, 240576, Note_off_c, 4, 66, 64
6, 240716, Note_on_c, 4, 68, 120
6, 240813, Note_off_c, 4, 68, 64
6, 240833, Note_on_c, 4, 70, 90
6, 240921, Note_off_c, 4, 70, 64
6, 240950, Note_on_c, 4, 68, 90
6, 241032, Note_off_c, 4, 68, 64
6, 241067, Note_on_c, 4, 66, 96
6, 241159, Note_off_c, 4, 66, 64
6, 241188, Note_on_c, 4, 65, 115
6, 241285, Note_off_c, 4, 65, 64
6, 241305, Note_on_c, 4, 63, 86
6, 241397, Note_off_c, 4, 63, 64
6, 241430, Note_on_c, 4, 65, 112
6, 241566, Note_off_c, 4, 65, 64
6, 241672, Note_on_c, 4, 70, 102
6, 241775, Note_off_c, 4, 70, 64
6, 241912, Note_on_c, 4, 65, 112
6, 242015, Note_off_c, 4, 65, 64
6, 242160, Note_on_c, 4, 66, 118
6, 242261, Note_off_c, 4, 66, 64
6, 242277, Note_on_c, 4, 68, 94
6, 242352, Note_off_c, 4, 68, 64
6, 242394, Note_on_c, 4, 66, 103
6, 242489, Note_off_c, 4, 66, 64
6, 242515, Note_on_c, 4, 65, 107
6, 242596, Note_off_c, 4, 65, 64
6, 242632, Note_on_c, 4, 63, 115
6, 242721, Note_off_c, 4, 63, 64
6, 242748, Note_on_c, 4, 61, 94
6, 242830, Note_off_c, 4, 61, 64
6, 242874, Note_on_c, 4, 63, 94
6, 243027, Note_off_c, 4, 63, 64
6, 243113, Note_on_c, 4, 68, 78
6, 243188, Note_off_c, 4, 68, 64
6, 243353, Note_on_c, 4, 63, 78
6, 243432, Note_off_c, 4, 63, 64
6, 243596, Note_on_c, 4, 65, 107
6, 243735, Note_off_c, 4, 65, 64
6, 243833, Note_on_c, 4, 68, 86
6, 243917, Note_off_c, 4, 68, 64
6, 244069, Note_on_c, 4, 73, 104
6, 244149, Note_off_c, 4, 73, 64
6, 244320, Note_on_c, 4, 66, 106
6, 244453, Note_off_c, 4, 66, 64
6, 244557, Note_on_c, 4, 70, 74
6, 244630, Note_off_c, 4, 70, 64
6, 244792, Note_on_c, 4, 73, 86
6, 244874, Note_off_c, 4, 73, 64
6, 245035, Note_on_c, 4, 65, 112
6, 245177, Note_off_c, 4, 65, 64
6, 245273, Note_on_c, 4, 68, 74
6, 245351, Note_off_c, 4, 68, 64
6, 245511, Note_on_c, 4, 73, 86
6, 245581, Note_off_c, 4, 73, 64
6, 245753, Note_on_c, 4, 66, 112
6, 245905, Note_off_c, 4, 66, 64
6, 245993, Note_on_c, 4, 70, 67
6, 246076, Note_off_c, 4, 70, 64
6, 246231, Note_on_c, 4, 73, 84
6, 246314, Note_off_c, 4, 73, 64
6, 246474, Note_on_c, 4, 61, 102
6, 246629, Note_off_c, 4, 61, 64
6, 246718, Note_on_c, 4, 68, 74
6, 246818, Note_off_c, 4, 68, 64
6, 246955, Note_on_c, 4, 73, 86
6, 247046, Note_off_c, 4, 73, 64
6, 247201, Note_on_c, 4, 54, 127
6, 247314, Note_on_c, 4, 53, 127
6, 247319, Note_off_c, 4, 54, 64
6, 247399, Note_off_c, 4, 53, 64
6, 247431, Note_on_c, 4, 54, 113
6, 247511, Note_off_c, 4, 54, 64
6, 247551, Note_on_c, 4, 56, 124
6, 247632, Note_off_c, 4, 56, 64
6, 247672, Note_on_c, 4, 58, 127
6, 247756, Note_off_c, 4, 58, 64
6, 247789, Note_on_c, 4, 59, 98
6, 247874, Note_off_c, 4, 59, 64
6, 247909, Note_on_c, 4, 61, 127
6, 248024, Note_off_c, 4, 61, 64
6, 248029, Note_on_c, 4, 63, 102
6, 248112, Note_off_c, 4, 63, 64
6, 248148, Note_on_c, 4, 61, 103
6, 248238, Note_off_c, 4, 61, 64
6, 248262, Note_on_c, 4, 59, 113
6, 248351, Note_off_c, 4, 59, 64
6, 248384, Note_on_c, 4, 58, 126
6, 248475, Note_off_c, 4, 58, 64
6, 248501, Note_on_c, 4, 56, 103
6, 248587, Note_off_c, 4, 56, 64
6, 248629, Note_on_c, 4, 54, 94
6, 248787, Note_off_c, 4, 54, 64
6, 248871, Note_on_c, 4, 58, 94
6, 248950, Note_off_c, 4, 58, 64
6, 249107, Note_on_c, 4, 61, 94
6, 249186, Note_off_c, 4, 61, 64
6, 249350, Note_on_c, 4, 65, 117
6, 249461, Note_off_c, 4, 65, 64
6, 249594, Note_on_c, 4, 68, 101
6, 249677, Note_off_c, 4, 68, 64
6, 249833, Note_on_c, 4, 61, 102
6, 249921, Note_off_c, 4, 61, 64
6, 250077, Note_on_c, 4, 70, 93
6, 250218, Note_off_c, 4, 70, 64
6, 250317, Note_on_c, 4, 70, 65
6, 250423, Note_off_c, 4, 70, 64
6, 250555, Note_on_c, 4, 70, 65
6, 250654, Note_off_c, 4, 70, 64
6, 250795, Note_on_c, 4, 70, 73
6, 250900, Note_off_c, 4, 70, 64
6, 251035, Note_on_c, 4, 70, 65
6, 251137, Note_off_c, 4, 70, 64
6, 251275, Note_on_c, 4, 70, 65
6, 251379, Note_off_c, 4, 70, 64
6, 251515, Note_on_c, 4, 68, 93
6, 251666, Note_off_c, 4, 68, 64
6, 251755, Note_on_c, 4, 68, 69
6, 251855, Note_off_c, 4, 68, 64
6, 251996, Note_on_c, 4, 68, 72
6, 252100, Note_off_c, 4, 68, 64
6, 252238, Note_on_c, 4, 68, 78
6, 252347, Note_off_c, 4, 68, 64
6, 252478, Note_on_c, 4, 68, 72
6, 252566, Note_off_c, 4, 68, 64
6, 252715, Note_on_c, 4, 68, 72
6, 252804, Note_off_c, 4, 68, 64
6, 252953, Note_on_c, 4, 66, 97
6, 253091, Note_off_c, 4, 66, 64
6, 253197, Note_on_c, 4, 66, 72
6, 253287, Note_off_c, 4, 66, 64
6, 253434, Note_on_c, 4, 66, 72
6, 253525, Note_off_c, 4, 66, 64
6, 253674, Note_on_c, 4, 66, 76
6, 253772, Note_off_c, 4, 66, 64
6, 253915, Note_on_c, 4, 66, 72
6, 254000, Note_off_c, 4, 66, 64
6, 254156, Note_on_c, 4, 66, 82
6, 254244, Note_off_c, 4, 66, 64
6, 254400, Note_on_c, 4, 65, 121
6, 254497, Note_off_c, 4, 65, 64
6, 254517, Note_on_c, 4, 68, 101
6, 254593, Note_off_c, 4, 68, 64
6, 254631, Note_on_c, 4, 61, 105
6, 254723, Note_off_c, 4, 61, 64
6, 254746, Note_on_c, 4, 68, 105
6, 254834, Note_off_c, 4, 68, 64
6, 254867, Note_on_c, 4, 65, 121
6, 254960, Note_off_c, 4, 65, 64
6, 254982, Note_on_c, 4, 68, 96
6, 255068, Note_off_c, 4, 68, 64
6, 255113, Note_on_c, 4, 66, 121
6, 255216, Note_off_c, 4, 66, 64
6, 255231, Note_on_c, 4, 70, 102
6, 255320, Note_off_c, 4, 70, 64
6, 255347, Note_on_c, 4, 61, 105
6, 255440, Note_off_c, 4, 61, 64
6, 255464, Note_on_c, 4, 70, 110
6, 255562, Note_off_c, 4, 70, 64
6, 255587, Note_on_c, 4, 66, 121
6, 255684, Note_off_c, 4, 66, 64
6, 255702, Note_on_c, 4, 70, 92
6, 255781, Note_off_c, 4, 70, 64
6, 255831, Note_on_c, 4, 68, 121
6, 255936, Note_off_c, 4, 68, 64
6, 255947, Note_on_c, 4, 71, 94
6, 256025, Note_off_c, 4, 71, 64
6, 256063, Note_on_c, 4, 61, 105
6, 256170, Note_off_c, 4, 61, 64
6, 256182, Note_on_c, 4, 71, 91
6, 256270, Note_off_c, 4, 71, 64
6, 256305, Note_on_c, 4, 68, 113
6, 256402, Note_off_c, 4, 68, 64
6, 256421, Note_on_c, 4, 71, 86
6, 256501, Note_off_c, 4, 71, 64
6, 256546, Note_on_c, 4, 70, 121
6, 256657, Note_off_c, 4, 70, 64
6, 256664, Note_on_c, 4, 73, 87
6, 256755, Note_off_c, 4, 73, 64
6, 256785, Note_on_c, 4, 61, 105
6, 256894, Note_off_c, 4, 61, 64
6, 256904, Note_on_c, 4, 73, 89
6, 256982, Note_off_c, 4, 73, 64
6, 257025, Note_on_c, 4, 70, 105
6, 257127, Note_off_c, 4, 70, 64
6, 257145, Note_on_c, 4, 73, 78
6, 257224, Note_off_c, 4, 73, 64
6, 257271, Note_on_c, 4, 71, 101
6, 257388, Note_on_c, 4, 65, 80
6, 257396, Note_off_c, 4, 71, 64
6, 257479, Note_off_c, 4, 65, 64
6, 257512, Note_on_c, 4, 71, 92
6, 257618, Note_off_c, 4, 71, 64
6, 257620, Note_on_c, 4, 65, 80
6, 257717, Note_off_c, 4, 65, 64
6, 257744, Note_on_c, 4, 71, 93
6, 257856, Note_on_c, 4, 65, 78
6, 257859, Note_off_c, 4, 71, 64
6, 257940, Note_off_c, 4, 65, 64
6, 257986, Note_on_c, 4, 70, 94
6, 258097, Note_on_c, 4, 66, 72
6, 258100, Note_off_c, 4, 70, 64
6, 258190, Note_off_c, 4, 66, 64
6, 258226, Note_on_c, 4, 70, 101
6, 258337, Note_on_c, 4, 66, 76
6, 258341, Note_off_c, 4, 70, 64
6, 258440, Note_off_c, 4, 66, 64
6, 258466, Note_on_c, 4, 70, 102
6, 258578, Note_on_c, 4, 66, 76
6, 258585, Note_off_c, 4, 70, 64
6, 258668, Note_off_c, 4, 66, 64
6, 258707, Note_on_c, 4, 68, 109
6, 258820, Note_on_c, 4, 61, 67
6, 258824, Note_off_c, 4, 68, 64
6, 258907, Note_off_c, 4, 61, 64
6, 258951, Note_on_c, 4, 68, 115
6, 259059, Note_off_c, 4, 68, 64
6, 259060, Note_on_c, 4, 61, 74
6, 259153, Note_off_c, 4, 61, 64
6, 259189, Note_on_c, 4, 68, 118
6, 259299, Note_on_c, 4, 61, 72
6, 259308, Note_off_c, 4, 68, 64
6, 259396, Note_off_c, 4, 61, 64
6, 259429, Note_on_c, 4, 66, 112
6, 259532, Note_off_c, 4, 66, 64
6, 259541, Note_on_c, 4, 61, 78
6, 259629, Note_off_c, 4, 61, 64
6, 259667, Note_on_c, 4, 66, 115
6, 259770, Note_off_c, 4, 66, 64
6, 259780, Note_on_c, 4, 61, 76
6, 259878, Note_off_c, 4, 61, 64
6, 259907, Note_on_c, 4, 66, 109
6, 260001, Note_off_c, 4, 66, 64
6, 260018, Note_on_c, 4, 61, 86
6, 260103, Note_off_c, 4, 61, 64
6, 260160, Note_on_c, 4, 68, 121
6, 260251, Note_off_c, 4, 68, 64
6, 260261, Note_on_c, 4, 71, 98
6, 260344, Note_off_c, 4, 71, 64
6, 260387, Note_on_c, 4, 61, 114
6, 260480, Note_off_c, 4, 61, 64
6, 260489, Note_on_c, 4, 71, 99
6, 260569, Note_off_c, 4, 71, 64
6, 260620, Note_on_c, 4, 68, 120
6, 260697, Note_off_c, 4, 68, 64
6, 260725, Note_on_c, 4, 71, 114
6, 260805, Note_off_c, 4, 71, 64
6, 260864, Note_on_c, 4, 68, 121
6, 260970, Note_on_c, 4, 71, 94
6, 260977, Note_off_c, 4, 68, 64
6, 261062, Note_off_c, 4, 71, 64
6, 261103, Note_on_c, 4, 61, 109
6, 261194, Note_off_c, 4, 61, 64
6, 261214, Note_on_c, 4, 71, 110
6, 261297, Note_off_c, 4, 71, 64
6, 261347, Note_on_c, 4, 68, 114
6, 261426, Note_off_c, 4, 68, 64
6, 261451, Note_on_c, 4, 71, 93
6, 261528, Note_off_c, 4, 71, 64
6, 261590, Note_on_c, 4, 70, 86
6, 261740, Note_off_c, 4, 70, 64
6, 261839, Note_on_c, 4, 54, 96
6, 261947, Note_off_c, 4, 54, 64
6, 262075, Note_on_c, 4, 54, 76
6, 262182, Note_off_c, 4, 54, 64
6, 262318, Note_on_c, 4, 54, 101
6, 262445, Note_off_c, 4, 54, 64
6, 262555, Note_on_c, 4, 54, 84
6, 262657, Note_off_c, 4, 54, 64
6, 262791, Note_on_c, 4, 54, 84
6, 262903, Note_off_c, 4, 54, 64
6, 263033, Note_on_c, 4, 54, 118
6, 263198, Note_off_c, 4, 54, 64
6, 263275, Note_on_c, 4, 54, 88
6, 263381, Note_off_c, 4, 54, 64
6, 263514, Note_on_c, 4, 54, 88
6, 263616, Note_off_c, 4, 54, 64
6, 263754, Note_on_c, 4, 54, 102
6, 263840, Note_off_c, 4, 54, 64
6, 263992, Note_on_c, 4, 54, 90
6, 264088, Note_off_c, 4, 54, 64
6, 264233, Note_on_c, 4, 54, 97
6, 264333, Note_off_c, 4, 54, 64
6, 264474, Note_on_c, 4, 61, 111
6, 264622, Note_off_c, 4, 61, 64
6, 264718, Note_on_c, 4, 61, 80
6, 264807, Note_off_c, 4, 61, 64
6, 264957, Note_on_c, 4, 61, 80
6, 265053, Note_off_c, 4, 61, 64
6, 265197, Note_on_c, 4, 61, 88
6, 265290, Note_off_c, 4, 61, 64
6, 265437, Note_on_c, 4, 61, 80
6, 265517, Note_off_c, 4, 61, 64
6, 265674, Note_on_c, 4, 61, 80
6, 265755, Note_off_c, 4, 61, 64
6, 265916, Note_on_c, 4, 61, 115
6, 266089, Note_off_c, 4, 61, 64
6, 266157, Note_on_c, 4, 58, 118
6, 266261, Note_on_c, 4, 59, 106
6, 266269, Note_off_c, 4, 58, 64
6, 266362, Note_off_c, 4, 59, 64
6, 266380, Note_on_c, 4, 61, 112
6, 266466, Note_off_c, 4, 61, 64
6, 266633, Note_on_c, 4, 49, 53
6, 266842, Note_off_c, 4, 49, 64
6, 266879, Note_on_c, 4, 56, 84
6, 266965, Note_off_c, 4, 56, 64
6, 267118, Note_on_c, 4, 59, 99
6, 267192, Note_off_c, 4, 59, 64
6, 267324, Control_c, 4, 11, 52
6, 267355, Note_on_c, 4, 58, 109
6, 267375, Control_c, 4, 11, 57
6, 267427, Control_c, 4, 11, 63
6, 267479, Control_c, 4, 11, 68
6, 267530, Control_c, 4, 11, 74
6, 267582, Control_c, 4, 11, 79
6, 267634, Control_c, 4, 11, 85
6, 267685, Control_c, 4, 11, 90
6, 267737, Control_c, 4, 11, 96
6, 267789, Control_c, 4, 11, 101
6, 267840, Control_c, 4, 11, 107
6, 267892, Control_c, 4, 11, 112
6, 267944, Control_c, 4, 11, 118
6, 267995, Control_c, 4, 11, 124
6, 268068, Control_c, 4, 11, 118
6, 268117, Control_c, 4, 11, 111
6, 268166, Control_c, 4, 11, 104
6, 268215, Control_c, 4, 11, 97
6, 268264, Control_c, 4, 11, 90
6, 268313, Control_c, 4, 11, 83
6, 268362, Control_c, 4, 11, 76
6, 268411, Control_c, 4, 11, 69
6, 268459, Control_c, 4, 11, 62
6, 268616, Note_off_c, 4, 58, 64
6, 268752, Control_c, 4, 11, 100
6, 268800, Note_on_c, 4, 68, 81
6, 268921, Note_off_c, 4, 68, 64
6, 269036, Note_on_c, 4, 68, 63
6, 269129, Note_off_c, 4, 68, 64
6, 269270, Note_on_c, 4, 68, 63
6, 269372, Note_off_c, 4, 68, 64
6, 269513, Note_on_c, 4, 68, 63
6, 269636, Note_off_c, 4, 68, 64
6, 269755, Note_on_c, 4, 68, 63
6, 269850, Note_off_c, 4, 68, 64
6, 269995, Note_on_c, 4, 68, 63
6, 270087, Note_off_c, 4, 68, 64
6, 270235, Note_on_c, 4, 68, 86
6, 270357, Note_off_c, 4, 68, 64
6, 270473, Note_on_c, 4, 68, 66
6, 270557, Note_off_c, 4, 68, 64
6, 270712, Note_on_c, 4, 68, 66
6, 270818, Note_off_c, 4, 68, 64
6, 270958, Note_on_c, 4, 68, 66
6, 271048, Note_off_c, 4, 68, 64
6, 271197, Note_on_c, 4, 68, 82
6, 271285, Note_off_c, 4, 68, 64
6, 271434, Note_on_c, 4, 68, 92
6, 271522, Note_off_c, 4, 68, 64
6, 271677, Note_on_c, 4, 66, 118
6, 271794, Note_on_c, 4, 65, 94
6, 271802, Note_off_c, 4, 66, 64
6, 271886, Note_off_c, 4, 65, 64
6, 271910, Note_on_c, 4, 63, 109
6, 272005, Note_off_c, 4, 63, 64
6, 272027, Note_on_c, 4, 65, 111
6, 272111, Note_off_c, 4, 65, 64
6, 272147, Note_on_c, 4, 66, 107
6, 272231, Note_off_c, 4, 66, 64
6, 272253, Note_on_c, 4, 68, 88
6, 272326, Note_off_c, 4, 68, 64
6, 272389, Note_on_c, 4, 70, 118
6, 272498, Note_off_c, 4, 70, 64
6, 272507, Note_on_c, 4, 71, 90
6, 272612, Note_off_c, 4, 71, 64
6, 272630, Note_on_c, 4, 70, 90
6, 272718, Note_off_c, 4, 70, 64
6, 272739, Note_on_c, 4, 68, 102
6, 272827, Note_off_c, 4, 68, 64
6, 272860, Note_on_c, 4, 66, 115
6, 272952, Note_off_c, 4, 66, 64
6, 272981, Note_on_c, 4, 65, 84
6, 273058, Note_off_c, 4, 65, 64
6, 273112, Note_on_c, 4, 66, 119
6, 273215, Note_off_c, 4, 66, 64
6, 273230, Note_on_c, 4, 70, 119
6, 273328, Note_off_c, 4, 70, 64
6, 273352, Note_on_c, 4, 68, 92
6, 273442, Note_off_c, 4, 68, 64
6, 273463, Note_on_c, 4, 66, 88
6, 273552, Note_off_c, 4, 66, 64
6, 273585, Note_on_c, 4, 65, 102
6, 273668, Note_off_c, 4, 65, 64
6, 273702, Note_on_c, 4, 63, 84
6, 273790, Note_off_c, 4, 63, 64
6, 273834, Note_on_c, 4, 62, 109
6, 273947, Note_off_c, 4, 62, 64
6, 273954, Note_on_c, 4, 63, 88
6, 274066, Note_off_c, 4, 63, 64
6, 274073, Note_on_c, 4, 62, 82
6, 274177, Note_off_c, 4, 62, 64
6, 274195, Note_on_c, 4, 60, 94
6, 274285, Note_off_c, 4, 60, 64
6, 274307, Note_on_c, 4, 58, 99
6, 274390, Note_off_c, 4, 58, 64
6, 274425, Note_on_c, 4, 56, 78
6, 274507, Note_off_c, 4, 56, 64
6, 274556, Note_on_c, 4, 54, 68
6, 274673, Note_off_c, 4, 54, 64
6, 274801, Note_on_c, 4, 63, 65
6, 274871, Note_off_c, 4, 63, 64
6, 275030, Note_on_c, 4, 63, 65
6, 275111, Note_off_c, 4, 63, 64
6, 275274, Note_on_c, 4, 63, 81
6, 275394, Note_off_c, 4, 63, 64
6, 275518, Note_on_c, 4, 63, 65
6, 275596, Note_off_c, 4, 63, 64
6, 275755, Note_on_c, 4, 63, 65
6, 275839, Note_off_c, 4, 63, 64
6, 275995, Note_on_c, 4, 63, 81
6, 276103, Note_off_c, 4, 63, 64
6, 276235, Note_on_c, 4, 63, 65
6, 276321, Note_off_c, 4, 63, 64
6, 276475, Note_on_c, 4, 63, 65
6, 276562, Note_off_c, 4, 63, 64
6, 276717, Note_on_c, 4, 63, 81
6, 276833, Note_off_c, 4, 63, 64
6, 276958, Note_on_c, 4, 63, 63
6, 277050, Note_off_c, 4, 63, 64
6, 277195, Note_on_c, 4, 63, 63
6, 277287, Note_off_c, 4, 63, 64
6, 277437, Note_on_c, 4, 63, 81
6, 277563, Note_off_c, 4, 63, 64
6, 277679, Note_on_c, 4, 63, 63
6, 277765, Note_off_c, 4, 63, 64
6, 277915, Note_on_c, 4, 63, 63
6, 278007, Note_off_c, 4, 63, 64
6, 278155, Note_on_c, 4, 63, 81
6, 278268, Note_off_c, 4, 63, 64
6, 278395, Note_on_c, 4, 63, 65
6, 278479, Note_off_c, 4, 63, 64
6, 278634, Note_on_c, 4, 63, 81
6, 278725, Note_off_c, 4, 63, 64
6, 278876, Note_on_c, 4, 66, 91
6, 279048, Note_off_c, 4, 66, 64
6, 279114, Note_on_c, 4, 70, 69
6, 279192, Note_off_c, 4, 70, 64
6, 279353, Note_on_c, 4, 65, 69
6, 279421, Note_off_c, 4, 65, 64
6, 279594, Note_on_c, 4, 66, 81
6, 279833, Note_off_c, 4, 66, 64
6, 280311, Note_on_c, 4, 63, 74
6, 280500, Note_off_c, 4, 63, 64
6, 280565, Note_on_c, 4, 66, 61
6, 280638, Note_off_c, 4, 66, 64
6, 280793, Note_on_c, 4, 70, 61
6, 280889, Note_off_c, 4, 70, 64
6, 281033, Note_on_c, 4, 62, 57
6, 281181, Note_off_c, 4, 62, 64
6, 281278, Note_on_c, 4, 65, 59
6, 281350, Note_off_c, 4, 65, 64
6, 281513, Note_on_c, 4, 70, 59
6, 281608, Note_off_c, 4, 70, 64
6, 281755, Note_on_c, 4, 63, 74
6, 281905, Note_off_c, 4, 63, 64
6, 282002, Note_on_c, 4, 66, 61
6, 282086, Note_off_c, 4, 66, 64
6, 282237, Note_on_c, 4, 70, 61
6, 282330, Note_off_c, 4, 70, 64
6, 282483, Note_on_c, 4, 58, 74
6, 282623, Note_off_c, 4, 58, 64
6, 282718, Note_on_c, 4, 65, 65
6, 282800, Note_off_c, 4, 65, 64
6, 282954, Note_on_c, 4, 70, 81
6, 283045, Note_off_c, 4, 70, 64
6, 283201, Note_on_c, 4, 63, 118
6, 283315, Note_on_c, 4, 62, 93
6, 283316, Note_off_c, 4, 63, 64
6, 283416, Note_off_c, 4, 62, 64
6, 283433, Note_on_c, 4, 63, 93
6, 283523, Note_off_c, 4, 63, 64
6, 283550, Note_on_c, 4, 65, 110
6, 283629, Note_off_c, 4, 65, 64
6, 283669, Note_on_c, 4, 66, 120
6, 283758, Note_off_c, 4, 66, 64
6, 283784, Note_on_c, 4, 68, 103
6, 283871, Note_off_c, 4, 68, 64
6, 283909, Note_on_c, 4, 70, 121
6, 284015, Note_off_c, 4, 70, 64
6, 284021, Note_on_c, 4, 71, 103
6, 284117, Note_off_c, 4, 71, 64
6, 284144, Note_on_c, 4, 70, 103
6, 284228, Note_off_c, 4, 70, 64
6, 284262, Note_on_c, 4, 68, 120
6, 284346, Note_off_c, 4, 68, 64
6, 284382, Note_on_c, 4, 66, 120
6, 284470, Note_off_c, 4, 66, 64
6, 284500, Note_on_c, 4, 65, 101
6, 284582, Note_off_c, 4, 65, 64
6, 284628, Note_on_c, 4, 63, 112
6, 284762, Note_off_c, 4, 63, 64
6, 284867, Note_on_c, 4, 66, 71
6, 284959, Note_off_c, 4, 66, 64
6, 285110, Note_on_c, 4, 58, 73
6, 285188, Note_off_c, 4, 58, 64
6, 285351, Note_on_c, 4, 65, 98
6, 285505, Note_off_c, 4, 65, 64
6, 285594, Note_on_c, 4, 68, 74
6, 285688, Note_off_c, 4, 68, 64
6, 285838, Note_on_c, 4, 58, 74
6, 285926, Note_off_c, 4, 58, 64
6, 286079, Note_on_c, 4, 66, 65
6, 286170, Note_off_c, 4, 66, 64
6, 286314, Note_on_c, 4, 66, 53
6, 286407, Note_off_c, 4, 66, 64
6, 286554, Note_on_c, 4, 66, 53
6, 286635, Note_off_c, 4, 66, 64
6, 286795, Note_on_c, 4, 66, 61
6, 286897, Note_off_c, 4, 66, 64
6, 287039, Note_on_c, 4, 66, 53
6, 287117, Note_off_c, 4, 66, 64
6, 287276, Note_on_c, 4, 66, 53
6, 287357, Note_off_c, 4, 66, 64
6, 287511, Note_on_c, 4, 65, 76
6, 287605, Note_off_c, 4, 65, 64
6, 287748, Note_on_c, 4, 65, 55
6, 287832, Note_off_c, 4, 65, 64
6, 287987, Note_on_c, 4, 65, 55
6, 288082, Note_off_c, 4, 65, 64
6, 288229, Note_on_c, 4, 65, 61
6, 288339, Note_off_c, 4, 65, 64
6, 288470, Note_on_c, 4, 65, 55
6, 288576, Note_off_c, 4, 65, 64
6, 288709, Note_on_c, 4, 65, 55
6, 288812, Note_off_c, 4, 65, 64
6, 288953, Note_on_c, 4, 63, 79
6, 289069, Note_off_c, 4, 63, 64
6, 289187, Note_on_c, 4, 63, 57
6, 289298, Note_off_c, 4, 63, 64
6, 289431, Note_on_c, 4, 63, 57
6, 289540, Note_off_c, 4, 63, 64
6, 289674, Note_on_c, 4, 63, 61
6, 289786, Note_off_c, 4, 63, 64
6, 289913, Note_on_c, 4, 63, 57
6, 290009, Note_off_c, 4, 63, 64
6, 290149, Note_on_c, 4, 63, 57
6, 290239, Note_off_c, 4, 63, 64
6, 290400, Note_on_c, 4, 61, 121
6, 290503, Note_off_c, 4, 61, 64
6, 290516, Note_on_c, 4, 60, 91
6, 290612, Note_off_c, 4, 60, 64
6, 290633, Note_on_c, 4, 58, 91
6, 290734, Note_off_c, 4, 58, 64
6, 290749, Note_on_c, 4, 60, 110
6, 290830, Note_off_c, 4, 60, 64
6, 290871, Note_on_c, 4, 61, 118
6, 290964, Note_off_c, 4, 61, 64
6, 290979, Note_on_c, 4, 63, 95
6, 291068, Note_off_c, 4, 63, 64
6, 291115, Note_on_c, 4, 65, 121
6, 291223, Note_off_c, 4, 65, 64
6, 291233, Note_on_c, 4, 66, 99
6, 291328, Note_off_c, 4, 66, 64
6, 291353, Note_on_c, 4, 65, 100
6, 291428, Note_off_c, 4, 65, 64
6, 291471, Note_on_c, 4, 63, 113
6, 291555, Note_off_c, 4, 63, 64
6, 291590, Note_on_c, 4, 61, 118
6, 291660, Note_off_c, 4, 61, 64
6, 291697, Note_on_c, 4, 60, 95
6, 291772, Note_off_c, 4, 60, 64
6, 291834, Note_on_c, 4, 61, 88
6, 291983, Note_off_c, 4, 61, 64
6, 292076, Note_on_c, 4, 65, 86
6, 292146, Note_off_c, 4, 65, 64
6, 292311, Note_on_c, 4, 70, 86
6, 292390, Note_off_c, 4, 70, 64
6, 292557, Note_on_c, 4, 69, 121
6, 292646, Note_off_c, 4, 69, 64
6, 292673, Note_on_c, 4, 70, 101
6, 292774, Note_off_c, 4, 70, 64
6, 292793, Note_on_c, 4, 69, 94
6, 292887, Note_off_c, 4, 69, 64
6, 292907, Note_on_c, 4, 67, 107
6, 293003, Note_off_c, 4, 67, 64
6, 293030, Note_on_c, 4, 65, 111
6, 293103, Note_off_c, 4, 65, 64
6, 293133, Note_on_c, 4, 63, 91
6, 293207, Note_off_c, 4, 63, 64
6, 293272, Note_on_c, 4, 61, 78
6, 293423, Note_off_c, 4, 61, 64
6, 293513, Note_on_c, 4, 58, 72
6, 293593, Note_off_c, 4, 58, 64
6, 293751, Note_on_c, 4, 65, 71
6, 293829, Note_off_c, 4, 65, 64
6, 293993, Note_on_c, 4, 65, 81
6, 294082, Note_off_c, 4, 65, 64
6, 294233, Note_on_c, 4, 65, 72
6, 294312, Note_off_c, 4, 65, 64
6, 294471, Note_on_c, 4, 65, 72
6, 294556, Note_off_c, 4, 65, 64
6, 294712, Note_on_c, 4, 65, 89
6, 294812, Note_off_c, 4, 65, 64
6, 294953, Note_on_c, 4, 65, 72
6, 295035, Note_off_c, 4, 65, 64
6, 295193, Note_on_c, 4, 65, 72
6, 295283, Note_off_c, 4, 65, 64
6, 295430, Note_on_c, 4, 65, 91
6, 295533, Note_off_c, 4, 65, 64
6, 295672, Note_on_c, 4, 65, 84
6, 295762, Note_off_c, 4, 65, 64
6, 295909, Note_on_c, 4, 65, 84
6, 295998, Note_off_c, 4, 65, 64
6, 296160, Note_on_c, 4, 73, 121
6, 296267, Note_off_c, 4, 73, 64
6, 296271, Note_on_c, 4, 75, 97
6, 296389, Note_off_c, 4, 75, 64
6, 296391, Note_on_c, 4, 73, 97
6, 296471, Note_off_c, 4, 73, 64
6, 296511, Note_on_c, 4, 72, 109
6, 296592, Note_off_c, 4, 72, 64
6, 296629, Note_on_c, 4, 70, 119
6, 296706, Note_off_c, 4, 70, 64
6, 296749, Note_on_c, 4, 68, 104
6, 296818, Note_off_c, 4, 68, 64
6, 296874, Note_on_c, 4, 66, 121
6, 296980, Note_off_c, 4, 66, 64
6, 296992, Note_on_c, 4, 65, 110
6, 297072, Note_off_c, 4, 65, 64
6, 297110, Note_on_c, 4, 66, 121
6, 297184, Note_off_c, 4, 66, 64
6, 297226, Note_on_c, 4, 68, 99
6, 297300, Note_off_c, 4, 68, 64
6, 297348, Note_on_c, 4, 70, 119
6, 297428, Note_off_c, 4, 70, 64
6, 297467, Note_on_c, 4, 66, 96
6, 297542, Note_off_c, 4, 66, 64
6, 297595, Note_on_c, 4, 72, 121
6, 297704, Note_off_c, 4, 72, 64
6, 297711, Note_on_c, 4, 73, 94
6, 297800, Note_off_c, 4, 73, 64
6, 297826, Note_on_c, 4, 72, 96
6, 297898, Note_off_c, 4, 72, 64
6, 297942, Note_on_c, 4, 70, 91
6, 298023, Note_off_c, 4, 70, 64
6, 298065, Note_on_c, 4, 68, 94
6, 298143, Note_off_c, 4, 68, 64
6, 298187, Note_on_c, 4, 66, 106
6, 298263, Note_off_c, 4, 66, 64
6, 298312, Note_on_c, 4, 65, 120
6, 298415, Note_off_c, 4, 65, 64
6, 298429, Note_on_c, 4, 63, 91
6, 298525, Note_off_c, 4, 63, 64
6, 298547, Note_on_c, 4, 65, 110
6, 298617, Note_off_c, 4, 65, 64
6, 298665, Note_on_c, 4, 66, 100
6, 298744, Note_off_c, 4, 66, 64
6, 298784, Note_on_c, 4, 68, 111
6, 298861, Note_off_c, 4, 68, 64
6, 298904, Note_on_c, 4, 65, 88
6, 298980, Note_off_c, 4, 65, 64
6, 299034, Note_on_c, 4, 70, 121
6, 299150, Note_on_c, 4, 72, 100
6, 299157, Note_off_c, 4, 70, 64
6, 299246, Note_off_c, 4, 72, 64
6, 299265, Note_on_c, 4, 70, 100
6, 299339, Note_off_c, 4, 70, 64
6, 299383, Note_on_c, 4, 68, 97
6, 299457, Note_off_c, 4, 68, 64
6, 299503, Note_on_c, 4, 66, 119
6, 299577, Note_off_c, 4, 66, 64
6, 299623, Note_on_c, 4, 65, 90
6, 299693, Note_off_c, 4, 65, 64
6, 299748, Note_on_c, 4, 63, 117
6, 299874, Note_on_c, 4, 61, 87
6, 299876, Note_off_c, 4, 63, 64
6, 299957, Note_off_c, 4, 61, 64
6, 299991, Note_on_c, 4, 63, 95
6, 300072, Note_off_c, 4, 63, 64
6, 300109, Note_on_c, 4, 65, 115
6, 300166, Note_off_c, 4, 65, 64
6, 300227, Note_on_c, 4, 66, 115
6, 300299, Note_off_c, 4, 66, 64
6, 300335, Note_on_c, 4, 63, 102
6, 300406, Note_off_c, 4, 63, 64
6, 300480, Note_on_c, 4, 65, 87
6, 300611, Note_off_c, 4, 65, 64
6, 300722, Note_on_c, 4, 60, 63
6, 300779, Note_off_c, 4, 60, 64
6, 300957, Note_on_c, 4, 57, 63
6, 301029, Note_off_c, 4, 57, 64
6, 301194, Note_on_c, 4, 65, 81
6, 301327, Note_off_c, 4, 65, 64
6, 301435, Note_on_c, 4, 61, 61
6, 301500, Note_off_c, 4, 61, 64
6, 301670, Note_on_c, 4, 58, 61
6, 301748, Note_off_c, 4, 58, 64
6, 301912, Note_on_c, 4, 63, 81
6, 302053, Note_off_c, 4, 63, 64
6, 302153, Note_on_c, 4, 60, 63
6, 302232, Note_off_c, 4, 60, 64
6, 302393, Note_on_c, 4, 57, 63
6, 302489, Note_off_c, 4, 57, 64
6, 302635, Note_on_c, 4, 61, 81
6, 302793, Note_off_c, 4, 61, 64
6, 302878, Note_on_c, 4, 58, 61
6, 302954, Note_off_c, 4, 58, 64
6, 303116, Note_on_c, 4, 53, 61
6, 303214, Note_off_c, 4, 53, 64
6, 303355, Note_on_c, 4, 60, 84
6, 303471, Note_off_c, 4, 60, 64
6, 303598, Note_on_c, 4, 57, 63
6, 303684, Note_off_c, 4, 57, 64
6, 303833, Note_on_c, 4, 53, 63
6, 303932, Note_off_c, 4, 53, 64
6, 304075, Note_on_c, 4, 61, 81
6, 304207, Note_off_c, 4, 61, 64
6, 304314, Note_on_c, 4, 58, 71
6, 304398, Note_off_c, 4, 58, 64
6, 304551, Note_on_c, 4, 53, 82
6, 304648, Note_off_c, 4, 53, 64
6, 304800, Note_on_c, 4, 69, 121
6, 304894, Note_off_c, 4, 69, 64
6, 304913, Note_on_c, 4, 72, 116
6, 304991, Note_off_c, 4, 72, 64
6, 305030, Note_on_c, 4, 65, 106
6, 305103, Note_off_c, 4, 65, 64
6, 305146, Note_on_c, 4, 72, 106
6, 305218, Note_off_c, 4, 72, 64
6, 305265, Note_on_c, 4, 69, 120
6, 305332, Note_off_c, 4, 69, 64
6, 305382, Note_on_c, 4, 72, 111
6, 305461, Note_off_c, 4, 72, 64
6, 305511, Note_on_c, 4, 70, 119
6, 305625, Note_off_c, 4, 70, 64
6, 305630, Note_on_c, 4, 73, 84
6, 305725, Note_off_c, 4, 73, 64
6, 305751, Note_on_c, 4, 65, 103
6, 305844, Note_off_c, 4, 65, 64
6, 305868, Note_on_c, 4, 73, 84
6, 305944, Note_off_c, 4, 73, 64
6, 305989, Note_on_c, 4, 70, 113
6, 306065, Note_off_c, 4, 70, 64
6, 306104, Note_on_c, 4, 73, 105
6, 306184, Note_off_c, 4, 73, 64
6, 306232, Note_on_c, 4, 72, 121
6, 306328, Note_off_c, 4, 72, 64
6, 306344, Note_on_c, 4, 75, 96
6, 306433, Note_off_c, 4, 75, 64
6, 306466, Note_on_c, 4, 65, 94
6, 306547, Note_off_c, 4, 65, 64
6, 306578, Note_on_c, 4, 75, 90
6, 306653, Note_off_c, 4, 75, 64
6, 306703, Note_on_c, 4, 72, 116
6, 306786, Note_off_c, 4, 72, 64
6, 306817, Note_on_c, 4, 75, 96
6, 306893, Note_off_c, 4, 75, 64
6, 306949, Note_on_c, 4, 72, 121
6, 307059, Note_off_c, 4, 72, 64
6, 307059, Note_on_c, 4, 75, 91
6, 307141, Note_off_c, 4, 75, 64
6, 307186, Note_on_c, 4, 65, 92
6, 307274, Note_off_c, 4, 65, 64
6, 307300, Note_on_c, 4, 75, 84
6, 307381, Note_off_c, 4, 75, 64
6, 307432, Note_on_c, 4, 72, 121
6, 307512, Note_off_c, 4, 72, 64
6, 307544, Note_on_c, 4, 75, 96
6, 307631, Note_off_c, 4, 75, 64
6, 307670, Note_on_c, 4, 74, 93
6, 307834, Note_off_c, 4, 74, 64
6, 307920, Note_on_c, 4, 58, 71
6, 307991, Note_off_c, 4, 58, 64
6, 308151, Note_on_c, 4, 58, 71
6, 308242, Note_off_c, 4, 58, 64
6, 308394, Note_on_c, 4, 58, 81
6, 308528, Note_off_c, 4, 58, 64
6, 308637, Note_on_c, 4, 58, 76
6, 308723, Note_off_c, 4, 58, 64
6, 308875, Note_on_c, 4, 58, 76
6, 308945, Note_off_c, 4, 58, 64
6, 309120, Note_on_c, 4, 58, 84
6, 309249, Note_off_c, 4, 58, 64
6, 309354, Note_on_c, 4, 58, 69
6, 309444, Note_off_c, 4, 58, 64
6, 309591, Note_on_c, 4, 58, 69
6, 309679, Note_off_c, 4, 58, 64
6, 309827, Note_on_c, 4, 58, 84
6, 309922, Note_off_c, 4, 58, 64
6, 310067, Note_on_c, 4, 58, 78
6, 310159, Note_off_c, 4, 58, 64
6, 310306, Note_on_c, 4, 58, 78
6, 310412, Note_off_c, 4, 58, 64
6, 310551, Note_on_c, 4, 65, 93
6, 310676, Note_off_c, 4, 65, 64
6, 310796, Note_on_c, 4, 65, 82
6, 310898, Note_off_c, 4, 65, 64
6, 311035, Note_on_c, 4, 65, 82
6, 311130, Note_off_c, 4, 65, 64
6, 311271, Note_on_c, 4, 65, 95
6, 311360, Note_off_c, 4, 65, 64
6, 311510, Note_on_c, 4, 65, 80
6, 311610, Note_off_c, 4, 65, 64
6, 311757, Note_on_c, 4, 65, 95
6, 311856, Note_off_c, 4, 65, 64
6, 312004, Note_on_c, 4, 65, 117
6, 312119, Note_on_c, 4, 63, 85
6, 312125, Note_off_c, 4, 65, 64
6, 312208, Note_off_c, 4, 63, 64
6, 312236, Note_on_c, 4, 61, 99
6, 312336, Note_on_c, 4, 63, 87
6, 312347, Note_off_c, 4, 61, 64
6, 312437, Note_off_c, 4, 63, 64
6, 312457, Note_on_c, 4, 65, 84
6, 312572, Note_off_c, 4, 65, 64
6, 312718, Note_on_c, 4, 53, 109
6, 312899, Note_off_c, 4, 53, 64
6, 312956, Note_on_c, 4, 60, 103
6, 313080, Note_on_c, 4, 61, 87
6, 313084, Note_off_c, 4, 60, 64
6, 313188, Note_off_c, 4, 61, 64
6, 313190, Note_on_c, 4, 63, 74
6, 313286, Note_off_c, 4, 63, 64
6, 313416, Control_c, 4, 11, 62
6, 313440, Control_c, 4, 11, 64
6, 313442, Note_on_c, 4, 61, 106
6, 313464, Control_c, 4, 11, 67
6, 313489, Control_c, 4, 11, 70
6, 313513, Control_c, 4, 11, 73
6, 313537, Control_c, 4, 11, 76
6, 313562, Control_c, 4, 11, 79
6, 313586, Control_c, 4, 11, 81
6, 313611, Control_c, 4, 11, 84
6, 313635, Control_c, 4, 11, 87
6, 313659, Control_c, 4, 11, 90
6, 313684, Control_c, 4, 11, 93
6, 313708, Control_c, 4, 11, 96
6, 313732, Control_c, 4, 11, 99
6, 313757, Control_c, 4, 11, 101
6, 313781, Control_c, 4, 11, 104
6, 313806, Control_c, 4, 11, 107
6, 313830, Control_c, 4, 11, 110
6, 313854, Control_c, 4, 11, 113
6, 313879, Control_c, 4, 11, 116
6, 313903, Control_c, 4, 11, 119
6, 313912, Control_c, 4, 11, 118
6, 313937, Control_c, 4, 11, 113
6, 313962, Control_c, 4, 11, 108
6, 313988, Control_c, 4, 11, 103
6, 314013, Control_c, 4, 11, 98
6, 314038, Control_c, 4, 11, 93
6, 314064, Control_c, 4, 11, 88
6, 314089, Control_c, 4, 11, 83
6, 314114, Control_c, 4, 11, 79
6, 314132, Control_c, 4, 11, 70
6, 314157, Control_c, 4, 11, 62
6, 314182, Control_c, 4, 11, 54
6, 314207, Control_c, 4, 11, 46
6, 314222, Note_off_c, 4, 61, 64
6, 314240, Control_c, 4, 11, 100
6, 314262, Note_on_c, 4, 60, 96
6, 314373, Note_off_c, 4, 60, 64
6, 314389, Note_on_c, 4, 58, 113
6, 314487, Note_off_c, 4, 58, 64
6, 314505, Note_on_c, 4, 60, 117
6, 314588, Note_off_c, 4, 60, 64
6, 314623, Note_on_c, 4, 61, 101
6, 314702, Note_off_c, 4, 61, 64
6, 314738, Note_on_c, 4, 63, 118
6, 314845, Note_off_c, 4, 63, 64
6, 314880, Note_on_c, 4, 65, 121
6, 314997, Note_on_c, 4, 66, 81
6, 315002, Note_off_c, 4, 65, 64
6, 315113, Note_on_c, 4, 68, 81
6, 315120, Note_off_c, 4, 66, 64
6, 315199, Note_off_c, 4, 68, 64
6, 315231, Note_on_c, 4, 66, 102
6, 315320, Note_off_c, 4, 66, 64
6, 315349, Note_on_c, 4, 65, 109
6, 315431, Note_off_c, 4, 65, 64
6, 315464, Note_on_c, 4, 63, 92
6, 315558, Note_off_c, 4, 63, 64
6, 315591, Note_on_c, 4, 62, 117
6, 315698, Note_off_c, 4, 62, 64
6, 315708, Note_on_c, 4, 63, 81
6, 315819, Note_off_c, 4, 63, 64
6, 315823, Note_on_c, 4, 65, 89
6, 315916, Note_off_c, 4, 65, 64
6, 315944, Note_on_c, 4, 63, 96
6, 316033, Note_off_c, 4, 63, 64
6, 316066, Note_on_c, 4, 62, 112
6, 316136, Note_off_c, 4, 62, 64
6, 316181, Note_on_c, 4, 60, 96
6, 316260, Note_off_c, 4, 60, 64
6, 316296, Note_on_c, 4, 58, 96
6, 316385, Note_off_c, 4, 58, 64
6, 316426, Note_on_c, 4, 62, 107
6, 316523, Note_off_c, 4, 62, 64
6, 316544, Note_on_c, 4, 63, 109
6, 316647, Note_off_c, 4, 63, 64
6, 316660, Note_on_c, 4, 65, 88
6, 316762, Note_off_c, 4, 65, 64
6, 316783, Note_on_c, 4, 66, 103
6, 316880, Note_off_c, 4, 66, 64
6, 316898, Note_on_c, 4, 68, 106
6, 317004, Note_off_c, 4, 68, 64
6, 317026, Note_on_c, 4, 70, 94
6, 317147, Note_on_c, 4, 68, 119
6, 317160, Note_off_c, 4, 70, 64
6, 317261, Note_off_c, 4, 68, 64
6, 317269, Note_on_c, 4, 66, 94
6, 317368, Note_off_c, 4, 66, 64
6, 317385, Note_on_c, 4, 68, 101
6, 317473, Note_off_c, 4, 68, 64
6, 317504, Note_on_c, 4, 70, 101
6, 317602, Note_off_c, 4, 70, 64
6, 317622, Note_on_c, 4, 71, 85
6, 317719, Note_off_c, 4, 71, 64
6, 317750, Note_on_c, 4, 73, 81
6, 317902, Note_off_c, 4, 73, 64
6, 317995, Note_on_c, 4, 73, 81
6, 318082, Note_off_c, 4, 73, 64
6, 318230, Note_on_c, 4, 73, 81
6, 318310, Note_off_c, 4, 73, 64
6, 318471, Note_on_c, 4, 73, 82
6, 318583, Note_off_c, 4, 73, 64
6, 318713, Note_on_c, 4, 73, 82
6, 318782, Note_off_c, 4, 73, 64
6, 318952, Note_on_c, 4, 73, 82
6, 319022, Note_off_c, 4, 73, 64
6, 319193, Note_on_c, 4, 73, 84
6, 319425, Note_off_c, 4, 73, 64
6, 319448, Note_on_c, 4, 75, 107
6, 319557, Note_on_c, 4, 73, 84
6, 319559, Note_off_c, 4, 75, 64
6, 319634, Note_off_c, 4, 73, 64
6, 319671, Note_on_c, 4, 71, 95
6, 319774, Note_off_c, 4, 71, 64
6, 319786, Note_on_c, 4, 70, 77
6, 319882, Note_off_c, 4, 70, 64
6, 319907, Note_on_c, 4, 71, 77
6, 320014, Note_off_c, 4, 71, 64
6, 320151, Note_on_c, 4, 68, 81
6, 320243, Note_off_c, 4, 68, 64
6, 320760, Note_on_c, 4, 61, 121
6, 320858, Note_off_c, 4, 61, 64
6, 320873, Note_on_c, 4, 64, 121
6, 320966, Note_off_c, 4, 64, 64
6, 320988, Note_on_c, 4, 68, 96
6, 321083, Note_off_c, 4, 68, 64
6, 321108, Note_on_c, 4, 64, 115
6, 321190, Note_off_c, 4, 64, 64
6, 321225, Note_on_c, 4, 61, 90
6, 321312, Note_off_c, 4, 61, 64
6, 321355, Note_on_c, 4, 70, 118
6, 321506, Note_off_c, 4, 70, 64
6, 321594, Note_on_c, 4, 70, 118
6, 321738, Note_off_c, 4, 70, 64
6, 321835, Note_on_c, 4, 70, 120
6, 321964, Note_off_c, 4, 70, 64
6, 322075, Note_on_c, 4, 70, 121
6, 322195, Note_off_c, 4, 70, 64
6, 322197, Note_on_c, 4, 59, 94
6, 322286, Note_off_c, 4, 59, 64
6, 322317, Note_on_c, 4, 63, 121
6, 322400, Note_off_c, 4, 63, 64
6, 322429, Note_on_c, 4, 66, 94
6, 322506, Note_off_c, 4, 66, 64
6, 322547, Note_on_c, 4, 63, 118
6, 322636, Note_off_c, 4, 63, 64
6, 322661, Note_on_c, 4, 59, 92
6, 322757, Note_off_c, 4, 59, 64
6, 322788, Note_on_c, 4, 68, 102
6, 322956, Note_off_c, 4, 68, 64
6, 323034, Note_on_c, 4, 68, 118
6, 323170, Note_off_c, 4, 68, 64
6, 323275, Note_on_c, 4, 68, 96
6, 323396, Note_off_c, 4, 68, 64
6, 323520, Note_on_c, 4, 58, 120
6, 323622, Note_off_c, 4, 58, 64
6, 323635, Note_on_c, 4, 61, 98
6, 323724, Note_off_c, 4, 61, 64
6, 323750, Note_on_c, 4, 54, 103
6, 323840, Note_off_c, 4, 54, 64
6, 323866, Note_on_c, 4, 61, 94
6, 323962, Note_off_c, 4, 61, 64
6, 323989, Note_on_c, 4, 58, 118
6, 324079, Note_off_c, 4, 58, 64
6, 324104, Note_on_c, 4, 61, 99
6, 324184, Note_off_c, 4, 61, 64
6, 324233, Note_on_c, 4, 59, 121
6, 324331, Note_off_c, 4, 59, 64
6, 324349, Note_on_c, 4, 63, 101
6, 324436, Note_off_c, 4, 63, 64
6, 324465, Note_on_c, 4, 54, 103
6, 324558, Note_off_c, 4, 54, 64
6, 324584, Note_on_c, 4, 63, 92
6, 324668, Note_off_c, 4, 63, 64
6, 324708, Note_on_c, 4, 59, 120
6, 324797, Note_off_c, 4, 59, 64
6, 324824, Note_on_c, 4, 63, 99
6, 324901, Note_off_c, 4, 63, 64
6, 324951, Note_on_c, 4, 61, 121
6, 325059, Note_off_c, 4, 61, 64
6, 325069, Note_on_c, 4, 64, 89
6, 325158, Note_off_c, 4, 64, 64
6, 325187, Note_on_c, 4, 54, 101
6, 325278, Note_off_c, 4, 54, 64
6, 325304, Note_on_c, 4, 64, 99
6, 325389, Note_off_c, 4, 64, 64
6, 325428, Note_on_c, 4, 61, 120
6, 325501, Note_off_c, 4, 61, 64
6, 325541, Note_on_c, 4, 64, 102
6, 325623, Note_off_c, 4, 64, 64
6, 325671, Note_on_c, 4, 63, 121
6, 325779, Note_off_c, 4, 63, 64
6, 325788, Note_on_c, 4, 66, 96
6, 325879, Note_off_c, 4, 66, 64
6, 325908, Note_on_c, 4, 54, 101
6, 325990, Note_off_c, 4, 54, 64
6, 326023, Note_on_c, 4, 66, 98
6, 326109, Note_off_c, 4, 66, 64
6, 326147, Note_on_c, 4, 63, 120
6, 326221, Note_off_c, 4, 63, 64
6, 326262, Note_on_c, 4, 66, 90
6, 326340, Note_off_c, 4, 66, 64
6, 326389, Note_on_c, 4, 64, 101
6, 326495, Note_off_c, 4, 64, 64
6, 326507, Note_on_c, 4, 58, 82
6, 326589, Note_off_c, 4, 58, 64
6, 326630, Note_on_c, 4, 64, 115
6, 326737, Note_off_c, 4, 64, 64
6, 326748, Note_on_c, 4, 58, 80
6, 326827, Note_off_c, 4, 58, 64
6, 326867, Note_on_c, 4, 64, 112
6, 326981, Note_off_c, 4, 64, 64
6, 326986, Note_on_c, 4, 58, 80
6, 327072, Note_off_c, 4, 58, 64
6, 327110, Note_on_c, 4, 63, 109
6, 327218, Note_off_c, 4, 63, 64
6, 327227, Note_on_c, 4, 59, 81
6, 327298, Note_off_c, 4, 59, 64
6, 327349, Note_on_c, 4, 63, 106
6, 327450, Note_off_c, 4, 63, 64
6, 327467, Note_on_c, 4, 59, 78
6, 327539, Note_off_c, 4, 59, 64
6, 327588, Note_on_c, 4, 63, 102
6, 327675, Note_off_c, 4, 63, 64
6, 327707, Note_on_c, 4, 59, 78
6, 327783, Note_off_c, 4, 59, 64
6, 327832, Note_on_c, 4, 61, 115
6, 327941, Note_off_c, 4, 61, 64
6, 327952, Note_on_c, 4, 54, 71
6, 328035, Note_off_c, 4, 54, 64
6, 328071, Note_on_c, 4, 61, 94
6, 328176, Note_off_c, 4, 61, 64
6, 328187, Note_on_c, 4, 54, 69
6, 328264, Note_off_c, 4, 54, 64
6, 328309, Note_on_c, 4, 61, 92
6, 328421, Note_off_c, 4, 61, 64
6, 328424, Note_on_c, 4, 54, 67
6, 328508, Note_off_c, 4, 54, 64
6, 328550, Note_on_c, 4, 59, 98
6, 328652, Note_off_c, 4, 59, 64
6, 328667, Note_on_c, 4, 54, 65
6, 328750, Note_off_c, 4, 54, 64
6, 328788, Note_on_c, 4, 59, 92
6, 328877, Note_off_c, 4, 59, 64
6, 328905, Note_on_c, 4, 54, 69
6, 328987, Note_off_c, 4, 54, 64
6, 329027, Note_on_c, 4, 59, 81
6, 329112, Note_off_c, 4, 59, 64
6, 329147, Note_on_c, 4, 54, 69
6, 329216, Note_off_c, 4, 54, 64
6, 329280, Note_on_c, 4, 59, 105
6, 329446, Note_off_c, 4, 59, 64
6, 329518, Note_on_c, 4, 62, 86
6, 329605, Note_off_c, 4, 62, 64
6, 329756, Note_on_c, 4, 68, 86
6, 329832, Note_off_c, 4, 68, 64
6, 329998, Note_on_c, 4, 62, 107
6, 330139, Note_off_c, 4, 62, 64
6, 330233, Note_on_c, 4, 68, 92
6, 330315, Note_off_c, 4, 68, 64
6, 330479, Note_on_c, 4, 71, 99
6, 330549, Note_off_c, 4, 71, 64
6, 330720, Note_on_c, 4, 70, 121
6, 330823, Note_off_c, 4, 70, 64
6, 330835, Note_on_c, 4, 73, 113
6, 330912, Note_off_c, 4, 73, 64
6, 330953, Note_on_c, 4, 66, 116
6, 331021, Note_off_c, 4, 66, 64
6, 331069, Note_on_c, 4, 73, 102
6, 331132, Note_off_c, 4, 73, 64
6, 331193, Note_on_c, 4, 70, 121
6, 331306, Note_on_c, 4, 68, 84
6, 331321, Note_off_c, 4, 70, 64
6, 331428, Note_off_c, 4, 68, 64
6, 331428, Note_on_c, 4, 70, 77
6, 331547, Note_off_c, 4, 70, 64
6, 331549, Note_on_c, 4, 73, 111
6, 331619, Note_off_c, 4, 73, 64
6, 331667, Note_on_c, 4, 66, 119
6, 331739, Note_off_c, 4, 66, 64
6, 331780, Note_on_c, 4, 73, 96
6, 331846, Note_off_c, 4, 73, 64
6, 331905, Note_on_c, 4, 70, 113
6, 331975, Note_off_c, 4, 70, 64
6, 332019, Note_on_c, 4, 73, 105
6, 332098, Note_off_c, 4, 73, 64
6, 332160, Note_on_c, 4, 71, 106
6, 332286, Note_on_c, 4, 73, 84
6, 332298, Note_off_c, 4, 71, 64
6, 332396, Note_off_c, 4, 73, 64
6, 332402, Note_on_c, 4, 75, 84
6, 332497, Note_off_c, 4, 75, 64
6, 332520, Note_on_c, 4, 71, 102
6, 332618, Note_off_c, 4, 71, 64
6, 332635, Note_on_c, 4, 70, 96
6, 332725, Note_off_c, 4, 70, 64
6, 332744, Note_on_c, 4, 71, 88
6, 332835, Note_off_c, 4, 71, 64
6, 332864, Note_on_c, 4, 68, 105
6, 332986, Note_off_c, 4, 68, 64
6, 332988, Note_on_c, 4, 71, 91
6, 333098, Note_off_c, 4, 71, 64
6, 333108, Note_on_c, 4, 75, 92
6, 333211, Note_off_c, 4, 75, 64
6, 333232, Note_on_c, 4, 71, 88
6, 333343, Note_off_c, 4, 71, 64
6, 333350, Note_on_c, 4, 70, 95
6, 333447, Note_off_c, 4, 70, 64
6, 333461, Note_on_c, 4, 71, 95
6, 333554, Note_off_c, 4, 71, 64
6, 333590, Note_on_c, 4, 66, 106
6, 333702, Note_off_c, 4, 66, 64
6, 333718, Note_on_c, 4, 71, 113
6, 333775, Note_on_c, 4, 73, 101
6, 333787, Note_off_c, 4, 71, 64
6, 333817, Note_on_c, 4, 75, 101
6, 333838, Note_off_c, 4, 73, 64
6, 333942, Note_on_c, 4, 71, 100
6, 333948, Note_off_c, 4, 75, 64
6, 334044, Note_off_c, 4, 71, 64
6, 334062, Note_on_c, 4, 70, 96
6, 334164, Note_off_c, 4, 70, 64
6, 334170, Note_on_c, 4, 71, 94
6, 334273, Note_off_c, 4, 71, 64
6, 334292, Note_on_c, 4, 64, 94
6, 334408, Note_off_c, 4, 64, 64
6, 334414, Note_on_c, 4, 71, 84
6, 334522, Note_off_c, 4, 71, 64
6, 334530, Note_on_c, 4, 75, 105
6, 334636, Note_off_c, 4, 75, 64
6, 334659, Note_on_c, 4, 71, 95
6, 334761, Note_off_c, 4, 71, 64
6, 334772, Note_on_c, 4, 70, 91
6, 334877, Note_off_c, 4, 70, 64
6, 334889, Note_on_c, 4, 71, 94
6, 334979, Note_off_c, 4, 71, 64
6, 335017, Note_on_c, 4, 66, 96
6, 335145, Note_off_c, 4, 66, 64
6, 335151, Note_on_c, 4, 71, 111
6, 335218, Note_on_c, 4, 73, 103
6, 335221, Note_off_c, 4, 71, 64
6, 335245, Note_on_c, 4, 75, 103
6, 335261, Note_off_c, 4, 73, 64
6, 335360, Note_off_c, 4, 75, 64
6, 335370, Note_on_c, 4, 71, 100
6, 335480, Note_off_c, 4, 71, 64
6, 335487, Note_on_c, 4, 70, 94
6, 335597, Note_off_c, 4, 70, 64
6, 335605, Note_on_c, 4, 71, 95
6, 335723, Note_off_c, 4, 71, 64
6, 335740, Note_on_c, 4, 68, 88
6, 335868, Note_on_c, 4, 71, 84
6, 335875, Note_off_c, 4, 68, 64
6, 335977, Note_off_c, 4, 71, 64
6, 335989, Note_on_c, 4, 75, 92
6, 336079, Note_off_c, 4, 75, 64
6, 336108, Note_on_c, 4, 71, 96
6, 336201, Note_off_c, 4, 71, 64
6, 336216, Note_on_c, 4, 70, 96
6, 336328, Note_off_c, 4, 70, 64
6, 336335, Note_on_c, 4, 71, 90
6, 336434, Note_off_c, 4, 71, 64
6, 336456, Note_on_c, 4, 66, 102
6, 336586, Note_on_c, 4, 71, 107
6, 336607, Note_off_c, 4, 66, 64
6, 336655, Note_on_c, 4, 73, 95
6, 336668, Note_off_c, 4, 71, 64
6, 336698, Note_on_c, 4, 75, 95
6, 336713, Note_off_c, 4, 73, 64
6, 336801, Note_off_c, 4, 75, 64
6, 336815, Note_on_c, 4, 71, 96
6, 336917, Note_off_c, 4, 71, 64
6, 336934, Note_on_c, 4, 66, 92
6, 337041, Note_off_c, 4, 66, 64
6, 337049, Note_on_c, 4, 70, 94
6, 337151, Note_off_c, 4, 70, 64
6, 337180, Note_on_c, 4, 71, 99
6, 337292, Note_off_c, 4, 71, 64
6, 337321, Note_on_c, 4, 68, 113
6, 337419, Note_off_c, 4, 68, 64
6, 337444, Note_on_c, 4, 66, 116
6, 337537, Note_off_c, 4, 66, 64
6, 337552, Note_on_c, 4, 64, 96
6, 337648, Note_off_c, 4, 64, 64
6, 337668, Note_on_c, 4, 63, 113
6, 337760, Note_off_c, 4, 63, 64
6, 337780, Note_on_c, 4, 61, 85
6, 337865, Note_off_c, 4, 61, 64
6, 337920, Note_on_c, 4, 59, 121
6, 338035, Note_off_c, 4, 59, 64
6, 338036, Note_on_c, 4, 58, 94
6, 338144, Note_off_c, 4, 58, 64
6, 338152, Note_on_c, 4, 59, 93
6, 338242, Note_off_c, 4, 59, 64
6, 338273, Note_on_c, 4, 61, 102
6, 338346, Note_off_c, 4, 61, 64
6, 338393, Note_on_c, 4, 63, 105
6, 338488, Note_off_c, 4, 63, 64
6, 338510, Note_on_c, 4, 64, 99
6, 338597, Note_off_c, 4, 64, 64
6, 338637, Note_on_c, 4, 66, 119
6, 338754, Note_off_c, 4, 66, 64
6, 338755, Note_on_c, 4, 68, 81
6, 338861, Note_off_c, 4, 68, 64
6, 338874, Note_on_c, 4, 66, 89
6, 338963, Note_off_c, 4, 66, 64
6, 338991, Note_on_c, 4, 64, 105
6, 339083, Note_off_c, 4, 64, 64
6, 339110, Note_on_c, 4, 63, 111
6, 339202, Note_off_c, 4, 63, 64
6, 339222, Note_on_c, 4, 61, 92
6, 339301, Note_off_c, 4, 61, 64
6, 339349, Note_on_c, 4, 63, 92
6, 339514, Note_off_c, 4, 63, 64
6, 339593, Note_on_c, 4, 66, 120
6, 339696, Note_off_c, 4, 66, 64
6, 339828, Note_on_c, 4, 71, 106
6, 339927, Note_off_c, 4, 71, 64
6, 340074, Note_on_c, 4, 70, 102
6, 340172, Note_off_c, 4, 70, 64
6, 340189, Note_on_c, 4, 71, 85
6, 340309, Note_off_c, 4, 71, 64
6, 340311, Note_on_c, 4, 70, 98
6, 340396, Note_off_c, 4, 70, 64
6, 340429, Note_on_c, 4, 68, 109
6, 340520, Note_off_c, 4, 68, 64
6, 340546, Note_on_c, 4, 66, 101
6, 340634, Note_off_c, 4, 66, 64
6, 340655, Note_on_c, 4, 64, 106
6, 340731, Note_off_c, 4, 64, 64
6, 340789, Note_on_c, 4, 63, 109
6, 340961, Note_off_c, 4, 63, 64
6, 341031, Note_on_c, 4, 59, 82
6, 341130, Note_off_c, 4, 59, 64
6, 341269, Note_on_c, 4, 66, 80
6, 341347, Note_off_c, 4, 66, 64
6, 341515, Note_on_c, 4, 66, 92
6, 341629, Note_off_c, 4, 66, 64
6, 341761, Note_on_c, 4, 66, 80
6, 341859, Note_off_c, 4, 66, 64
6, 342003, Note_on_c, 4, 66, 80
6, 342093, Note_off_c, 4, 66, 64
6, 342239, Note_on_c, 4, 66, 102
6, 342342, Note_off_c, 4, 66, 64
6, 342477, Note_on_c, 4, 66, 88
6, 342569, Note_off_c, 4, 66, 64
6, 342715, Note_on_c, 4, 66, 88
6, 342796, Note_off_c, 4, 66, 64
6, 342955, Note_on_c, 4, 66, 103
6, 343063, Note_off_c, 4, 66, 64
6, 343197, Note_on_c, 4, 66, 96
6, 343272, Note_off_c, 4, 66, 64
6, 343431, Note_on_c, 4, 66, 96
6, 343515, Note_off_c, 4, 66, 64
6, 343675, Note_on_c, 4, 66, 127
6, 343830, Note_off_c, 4, 66, 64
6, 343917, Note_on_c, 4, 71, 106
6, 344030, Note_off_c, 4, 71, 64
6, 344153, Note_on_c, 4, 66, 127
6, 344256, Note_off_c, 4, 66, 64
6, 344396, Note_on_c, 4, 68, 127
6, 344493, Note_off_c, 4, 68, 64
6, 344513, Note_on_c, 4, 70, 100
6, 344601, Note_off_c, 4, 70, 64
6, 344630, Note_on_c, 4, 68, 100
6, 344712, Note_off_c, 4, 68, 64
6, 344747, Note_on_c, 4, 66, 106
6, 344839, Note_off_c, 4, 66, 64
6, 344868, Note_on_c, 4, 65, 127
6, 344965, Note_off_c, 4, 65, 64
6, 344985, Note_on_c, 4, 63, 96
6, 345077, Note_off_c, 4, 63, 64
6, 345110, Note_on_c, 4, 65, 125
6, 345286, Note_off_c, 4, 65, 64
6, 345352, Note_on_c, 4, 70, 114
6, 345455, Note_off_c, 4, 70, 64
6, 345592, Note_on_c, 4, 65, 125
6, 345695, Note_off_c, 4, 65, 64
6, 345840, Note_on_c, 4, 66, 127
6, 345941, Note_off_c, 4, 66, 64
6, 345957, Note_on_c, 4, 68, 104
6, 346032, Note_off_c, 4, 68, 64
6, 346074, Note_on_c, 4, 66, 115
6, 346169, Note_off_c, 4, 66, 64
6, 346195, Note_on_c, 4, 65, 119
6, 346276, Note_off_c, 4, 65, 64
6, 346312, Note_on_c, 4, 63, 127
6, 346401, Note_off_c, 4, 63, 64
6, 346428, Note_on_c, 4, 61, 104
6, 346510, Note_off_c, 4, 61, 64
6, 346554, Note_on_c, 4, 63, 104
6, 346707, Note_off_c, 4, 63, 64
6, 346793, Note_on_c, 4, 68, 78
6, 346868, Note_off_c, 4, 68, 64
6, 347033, Note_on_c, 4, 63, 78
6, 347112, Note_off_c, 4, 63, 64
6, 347276, Note_on_c, 4, 65, 107
6, 347415, Note_off_c, 4, 65, 64
6, 347513, Note_on_c, 4, 68, 76
6, 347609, Note_off_c, 4, 68, 64
6, 347749, Note_on_c, 4, 73, 94
6, 347841, Note_off_c, 4, 73, 64
6, 348000, Note_on_c, 4, 66, 106
6, 348133, Note_off_c, 4, 66, 64
6, 348237, Note_on_c, 4, 70, 74
6, 348310, Note_off_c, 4, 70, 64
6, 348472, Note_on_c, 4, 73, 86
6, 348554, Note_off_c, 4, 73, 64
6, 348715, Note_on_c, 4, 65, 112
6, 348857, Note_off_c, 4, 65, 64
6, 348953, Note_on_c, 4, 68, 74
6, 349031, Note_off_c, 4, 68, 64
6, 349191, Note_on_c, 4, 73, 86
6, 349261, Note_off_c, 4, 73, 64
6, 349433, Note_on_c, 4, 66, 112
6, 349585, Note_off_c, 4, 66, 64
6, 349673, Note_on_c, 4, 70, 67
6, 349756, Note_off_c, 4, 70, 64
6, 349911, Note_on_c, 4, 73, 84
6, 349994, Note_off_c, 4, 73, 64
6, 350154, Note_on_c, 4, 61, 102
6, 350309, Note_off_c, 4, 61, 64
6, 350398, Note_on_c, 4, 68, 74
6, 350498, Note_off_c, 4, 68, 64
6, 350635, Note_on_c, 4, 73, 86
6, 350726, Note_off_c, 4, 73, 64
6, 350881, Note_on_c, 4, 54, 121
6, 350994, Note_on_c, 4, 53, 120
6, 350999, Note_off_c, 4, 54, 64
6, 351079, Note_off_c, 4, 53, 64
6, 351111, Note_on_c, 4, 54, 105
6, 351191, Note_off_c, 4, 54, 64
6, 351231, Note_on_c, 4, 56, 115
6, 351312, Note_off_c, 4, 56, 64
6, 351352, Note_on_c, 4, 58, 121
6, 351436, Note_off_c, 4, 58, 64
6, 351469, Note_on_c, 4, 59, 91
6, 351554, Note_off_c, 4, 59, 64
6, 351589, Note_on_c, 4, 61, 119
6, 351704, Note_off_c, 4, 61, 64
6, 351709, Note_on_c, 4, 63, 95
6, 351792, Note_off_c, 4, 63, 64
6, 351828, Note_on_c, 4, 61, 96
6, 351918, Note_off_c, 4, 61, 64
6, 351942, Note_on_c, 4, 59, 105
6, 352031, Note_off_c, 4, 59, 64
6, 352064, Note_on_c, 4, 58, 117
6, 352155, Note_off_c, 4, 58, 64
6, 352181, Note_on_c, 4, 56, 96
6, 352267, Note_off_c, 4, 56, 64
6, 352309, Note_on_c, 4, 54, 94
6, 352467, Note_off_c, 4, 54, 64
6, 352551, Note_on_c, 4, 58, 94
6, 352630, Note_off_c, 4, 58, 64
6, 352787, Note_on_c, 4, 61, 94
6, 352866, Note_off_c, 4, 61, 64
6, 353030, Note_on_c, 4, 65, 117
6, 353141, Note_off_c, 4, 65, 64
6, 353274, Note_on_c, 4, 68, 101
6, 353357, Note_off_c, 4, 68, 64
6, 353513, Note_on_c, 4, 61, 102
6, 353601, Note_off_c, 4, 61, 64
6, 353757, Note_on_c, 4, 70, 93
6, 353898, Note_off_c, 4, 70, 64
6, 353997, Note_on_c, 4, 70, 65
6, 354103, Note_off_c, 4, 70, 64
6, 354235, Note_on_c, 4, 70, 65
6, 354334, Note_off_c, 4, 70, 64
6, 354475, Note_on_c, 4, 70, 73
6, 354580, Note_off_c, 4, 70, 64
6, 354715, Note_on_c, 4, 70, 65
6, 354817, Note_off_c, 4, 70, 64
6, 354955, Note_on_c, 4, 70, 65
6, 355059, Note_off_c, 4, 70, 64
6, 355195, Note_on_c, 4, 68, 93
6, 355346, Note_off_c, 4, 68, 64
6, 355435, Note_on_c, 4, 68, 69
6, 355535, Note_off_c, 4, 68, 64
6, 355676, Note_on_c, 4, 68, 72
6, 355780, Note_off_c, 4, 68, 64
6, 355918, Note_on_c, 4, 68, 78
6, 356027, Note_off_c, 4, 68, 64
6, 356158, Note_on_c, 4, 68, 72
6, 356246, Note_off_c, 4, 68, 64
6, 356395, Note_on_c, 4, 68, 72
6, 356484, Note_off_c, 4, 68, 64
6, 356633, Note_on_c, 4, 66, 97
6, 356771, Note_off_c, 4, 66, 64
6, 356877, Note_on_c, 4, 66, 72
6, 356967, Note_off_c, 4, 66, 64
6, 357114, Note_on_c, 4, 66, 72
6, 357205, Note_off_c, 4, 66, 64
6, 357354, Note_on_c, 4, 66, 76
6, 357452, Note_off_c, 4, 66, 64
6, 357595, Note_on_c, 4, 66, 72
6, 357680, Note_off_c, 4, 66, 64
6, 357836, Note_on_c, 4, 66, 82
6, 357924, Note_off_c, 4, 66, 64
6, 358080, Note_on_c, 4, 65, 121
6, 358177, Note_off_c, 4, 65, 64
6, 358197, Note_on_c, 4, 68, 101
6, 358273, Note_off_c, 4, 68, 64
6, 358311, Note_on_c, 4, 61, 105
6, 358403, Note_off_c, 4, 61, 64
6, 358426, Note_on_c, 4, 68, 105
6, 358514, Note_off_c, 4, 68, 64
6, 358547, Note_on_c, 4, 65, 121
6, 358640, Note_off_c, 4, 65, 64
6, 358662, Note_on_c, 4, 68, 96
6, 358748, Note_off_c, 4, 68, 64
6, 358793, Note_on_c, 4, 66, 121
6, 358896, Note_off_c, 4, 66, 64
6, 358911, Note_on_c, 4, 70, 102
6, 359000, Note_off_c, 4, 70, 64
6, 359027, Note_on_c, 4, 61, 105
6, 359120, Note_off_c, 4, 61, 64
6, 359144, Note_on_c, 4, 70, 110
6, 359242, Note_off_c, 4, 70, 64
6, 359267, Note_on_c, 4, 66, 121
6, 359364, Note_off_c, 4, 66, 64
6, 359382, Note_on_c, 4, 70, 92
6, 359461, Note_off_c, 4, 70, 64
6, 359511, Note_on_c, 4, 68, 121
6, 359616, Note_off_c, 4, 68, 64
6, 359627, Note_on_c, 4, 71, 94
6, 359705, Note_off_c, 4, 71, 64
6, 359743, Note_on_c, 4, 61, 105
6, 359850, Note_off_c, 4, 61, 64
6, 359862, Note_on_c, 4, 71, 91
6, 359950, Note_off_c, 4, 71, 64
6, 359985, Note_on_c, 4, 68, 113
6, 360082, Note_off_c, 4, 68, 64
6, 360101, Note_on_c, 4, 71, 86
6, 360181, Note_off_c, 4, 71, 64
6, 360226, Note_on_c, 4, 70, 121
6, 360337, Note_off_c, 4, 70, 64
6, 360344, Note_on_c, 4, 73, 87
6, 360435, Note_off_c, 4, 73, 64
6, 360465, Note_on_c, 4, 61, 105
6, 360574, Note_off_c, 4, 61, 64
6, 360584, Note_on_c, 4, 73, 89
6, 360662, Note_off_c, 4, 73, 64
6, 360705, Note_on_c, 4, 70, 105
6, 360807, Note_off_c, 4, 70, 64
6, 360825, Note_on_c, 4, 73, 78
6, 360904, Note_off_c, 4, 73, 64
6, 360951, Note_on_c, 4, 71, 101
6, 361068, Note_on_c, 4, 65, 80
6, 361076, Note_off_c, 4, 71, 64
6, 361159, Note_off_c, 4, 65, 64
6, 361192, Note_on_c, 4, 71, 92
6, 361298, Note_off_c, 4, 71, 64
6, 361300, Note_on_c, 4, 65, 80
6, 361397, Note_off_c, 4, 65, 64
6, 361424, Note_on_c, 4, 71, 93
6, 361536, Note_on_c, 4, 65, 78
6, 361539, Note_off_c, 4, 71, 64
6, 361620, Note_off_c, 4, 65, 64
6, 361666, Note_on_c, 4, 70, 94
6, 361777, Note_on_c, 4, 66, 72
6, 361780, Note_off_c, 4, 70, 64
6, 361870, Note_off_c, 4, 66, 64
6, 361906, Note_on_c, 4, 70, 101
6, 362017, Note_on_c, 4, 66, 76
6, 362021, Note_off_c, 4, 70, 64
6, 362120, Note_off_c, 4, 66, 64
6, 362146, Note_on_c, 4, 70, 102
6, 362258, Note_on_c, 4, 66, 76
6, 362265, Note_off_c, 4, 70, 64
6, 362348, Note_off_c, 4, 66, 64
6, 362387, Note_on_c, 4, 68, 109
6, 362500, Note_on_c, 4, 61, 67
6, 362504, Note_off_c, 4, 68, 64
6, 362587, Note_off_c, 4, 61, 64
6, 362631, Note_on_c, 4, 68, 115
6, 362739, Note_off_c, 4, 68, 64
6, 362740, Note_on_c, 4, 61, 74
6, 362833, Note_off_c, 4, 61, 64
6, 362869, Note_on_c, 4, 68, 118
6, 362979, Note_on_c, 4, 61, 72
6, 362988, Note_off_c, 4, 68, 64
6, 363076, Note_off_c, 4, 61, 64
6, 363109, Note_on_c, 4, 66, 112
6, 363212, Note_off_c, 4, 66, 64
6, 363221, Note_on_c, 4, 61, 78
6, 363309, Note_off_c, 4, 61, 64
6, 363347, Note_on_c, 4, 66, 115
6, 363450, Note_off_c, 4, 66, 64
6, 363460, Note_on_c, 4, 61, 76
6, 363558, Note_off_c, 4, 61, 64
6, 363587, Note_on_c, 4, 66, 109
6, 363681, Note_off_c, 4, 66, 64
6, 363698, Note_on_c, 4, 61, 86
6, 363783, Note_off_c, 4, 61, 64
6, 363840, Note_on_c, 4, 68, 121
6, 363936, Note_off_c, 4, 68, 64
6, 363941, Note_on_c, 4, 71, 98
6, 364014, Note_off_c, 4, 71, 64
6, 364067, Note_on_c, 4, 61, 114
6, 364160, Note_off_c, 4, 61, 64
6, 364169, Note_on_c, 4, 71, 99
6, 364239, Note_off_c, 4, 71, 64
6, 364300, Note_on_c, 4, 68, 120
6, 364382, Note_off_c, 4, 68, 64
6, 364405, Note_on_c, 4, 71, 114
6, 364475, Note_off_c, 4, 71, 64
6, 364544, Note_on_c, 4, 68, 121
6, 364650, Note_on_c, 4, 71, 94
6, 364662, Note_off_c, 4, 68, 64
6, 364732, Note_off_c, 4, 71, 64
6, 364783, Note_on_c, 4, 61, 109
6, 364874, Note_off_c, 4, 61, 64
6, 364894, Note_on_c, 4, 71, 110
6, 364967, Note_off_c, 4, 71, 64
6, 365027, Note_on_c, 4, 68, 114
6, 365111, Note_off_c, 4, 68, 64
6, 365131, Note_on_c, 4, 71, 93
6, 365198, Note_off_c, 4, 71, 64
6, 365270, Note_on_c, 4, 70, 86
6, 365420, Note_off_c, 4, 70, 64
6, 365519, Note_on_c, 4, 54, 96
6, 365627, Note_off_c, 4, 54, 64
6, 365755, Note_on_c, 4, 54, 76
6, 365862, Note_off_c, 4, 54, 64
6, 365998, Note_on_c, 4, 54, 101
6, 366125, Note_off_c, 4, 54, 64
6, 366235, Note_on_c, 4, 54, 84
6, 366337, Note_off_c, 4, 54, 64
6, 366471, Note_on_c, 4, 54, 84
6, 366583, Note_off_c, 4, 54, 64
6, 366713, Note_on_c, 4, 54, 118
6, 366878, Note_off_c, 4, 54, 64
6, 366955, Note_on_c, 4, 54, 88
6, 367061, Note_off_c, 4, 54, 64
6, 367194, Note_on_c, 4, 54, 88
6, 367296, Note_off_c, 4, 54, 64
6, 367434, Note_on_c, 4, 54, 102
6, 367520, Note_off_c, 4, 54, 64
6, 367672, Note_on_c, 4, 54, 90
6, 367768, Note_off_c, 4, 54, 64
6, 367913, Note_on_c, 4, 54, 97
6, 368013, Note_off_c, 4, 54, 64
6, 368154, Note_on_c, 4, 61, 111
6, 368302, Note_off_c, 4, 61, 64
6, 368398, Note_on_c, 4, 61, 80
6, 368487, Note_off_c, 4, 61, 64
6, 368637, Note_on_c, 4, 61, 80
6, 368733, Note_off_c, 4, 61, 64
6, 368877, Note_on_c, 4, 61, 88
6, 368970, Note_off_c, 4, 61, 64
6, 369117, Note_on_c, 4, 61, 80
6, 369197, Note_off_c, 4, 61, 64
6, 369354, Note_on_c, 4, 61, 80
6, 369435, Note_off_c, 4, 61, 64
6, 369596, Note_on_c, 4, 61, 115
6, 369769, Note_off_c, 4, 61, 64
6, 369837, Note_on_c, 4, 58, 118
6, 369941, Note_on_c, 4, 59, 106
6, 369949, Note_off_c, 4, 58, 64
6, 370042, Note_off_c, 4, 59, 64
6, 370060, Note_on_c, 4, 61, 112
6, 370146, Note_off_c, 4, 61, 64
6, 370313, Note_on_c, 4, 49, 53
6, 370522, Note_off_c, 4, 49, 64
6, 370559, Note_on_c, 4, 56, 84
6, 370645, Note_off_c, 4, 56, 64
6, 370798, Note_on_c, 4, 59, 99
6, 370872, Note_off_c, 4, 59, 64
6, 371004, Control_c, 4, 11, 52
6, 371035, Note_on_c, 4, 58, 109
6, 371055, Control_c, 4, 11, 57
6, 371107, Control_c, 4, 11, 63
6, 371159, Control_c, 4, 11, 68
6, 371210, Control_c, 4, 11, 74
6, 371262, Control_c, 4, 11, 79
6, 371314, Control_c, 4, 11, 85
6, 371365, Control_c, 4, 11, 90
6, 371417, Control_c, 4, 11, 96
6, 371469, Control_c, 4, 11, 101
6, 371520, Control_c, 4, 11, 107
6, 371572, Control_c, 4, 11, 112
6, 371624, Control_c, 4, 11, 118
6, 371675, Control_c, 4, 11, 124
6, 371748, Control_c, 4, 11, 118
6, 371797, Control_c, 4, 11, 111
6, 371846, Control_c, 4, 11, 104
6, 371895, Control_c, 4, 11, 97
6, 371944, Control_c, 4, 11, 90
6, 371993, Control_c, 4, 11, 83
6, 372042, Control_c, 4, 11, 76
6, 372091, Control_c, 4, 11, 69
6, 372139, Control_c, 4, 11, 62
6, 372352, Note_off_c, 4, 58, 64
6, 372432, Control_c, 4, 11, 100
6, 378240, End_track
7, 0, Start_track
7, 0, Instrument_name_t, "SC88-A"
7, 0, Title_t, "Viola.2"
7, 1440, Control_c, 5, 101, 0
7, 1450, Control_c, 5, 100, 0
7, 1450, Control_c, 5, 6, 0
7, 1470, Control_c, 5, 0, 0
7, 1480, Control_c, 5, 32, 1
7, 1490, Program_c, 5, 41
7, 1500, Control_c, 5, 10, 69
7, 1510, Control_c, 5, 11, 100
7, 1520, Control_c, 5, 7, 120
7, 1530, Control_c, 5, 93, 0
7, 1540, Control_c, 5, 91, 0
7, 1550, Pitch_bend_c, 5, 8192
7, 1560, Control_c, 5, 1, 0
7, 1570, Control_c, 5, 64, 0
7, 1580, Control_c, 5, 91, 64
7, 1590, Control_c, 5, 99, 1
7, 1600, Control_c, 5, 98, 32
7, 1610, Control_c, 5, 6, 62
7, 1620, Control_c, 5, 98, 33
7, 1630, Control_c, 5, 6, 71
7, 1640, Control_c, 5, 98, 99
7, 1650, Control_c, 5, 6, 64
7, 1660, Control_c, 5, 98, 100
7, 1670, Control_c, 5, 6, 64
7, 1680, Control_c, 5, 98, 102
7, 1690, Control_c, 5, 6, 64
7, 89124, Control_c, 5, 11, 68
7, 89346, Control_c, 5, 11, 71
7, 89390, Note_on_c, 5, 59, 56
7, 89402, Control_c, 5, 11, 73
7, 89457, Control_c, 5, 11, 75
7, 89513, Control_c, 5, 11, 77
7, 89568, Control_c, 5, 11, 79
7, 89624, Control_c, 5, 11, 81
7, 89679, Control_c, 5, 11, 83
7, 89735, Control_c, 5, 11, 85
7, 89790, Control_c, 5, 11, 87
7, 89846, Control_c, 5, 11, 90
7, 89901, Control_c, 5, 11, 92
7, 89957, Control_c, 5, 11, 94
7, 90012, Control_c, 5, 11, 96
7, 90068, Control_c, 5, 11, 98
7, 90124, Control_c, 5, 11, 100
7, 90179, Control_c, 5, 11, 102
7, 90235, Control_c, 5, 11, 104
7, 90290, Control_c, 5, 11, 106
7, 90346, Control_c, 5, 11, 109
7, 90401, Control_c, 5, 11, 111
7, 90457, Control_c, 5, 11, 113
7, 90512, Control_c, 5, 11, 115
7, 90568, Control_c, 5, 11, 117
7, 90623, Control_c, 5, 11, 120
7, 90679, Control_c, 5, 11, 119
7, 90734, Control_c, 5, 11, 117
7, 90790, Control_c, 5, 11, 114
7, 90845, Control_c, 5, 11, 112
7, 90901, Control_c, 5, 11, 109
7, 90957, Control_c, 5, 11, 107
7, 91012, Control_c, 5, 11, 104
7, 91068, Control_c, 5, 11, 101
7, 91123, Control_c, 5, 11, 99
7, 91179, Control_c, 5, 11, 96
7, 91234, Control_c, 5, 11, 94
7, 91290, Control_c, 5, 11, 90
7, 91345, Control_c, 5, 11, 89
7, 91401, Control_c, 5, 11, 85
7, 91456, Control_c, 5, 11, 82
7, 91512, Control_c, 5, 11, 80
7, 91567, Control_c, 5, 11, 77
7, 91623, Control_c, 5, 11, 75
7, 91678, Control_c, 5, 11, 74
7, 91901, Control_c, 5, 11, 73
7, 92123, Control_c, 5, 11, 72
7, 92345, Control_c, 5, 11, 71
7, 92511, Control_c, 5, 11, 65
7, 92567, Control_c, 5, 11, 68
7, 92586, Note_off_c, 5, 59, 64
7, 92586, Note_on_c, 5, 53, 56
7, 92623, Control_c, 5, 11, 71
7, 92678, Control_c, 5, 11, 74
7, 92734, Control_c, 5, 11, 77
7, 92789, Control_c, 5, 11, 81
7, 92845, Control_c, 5, 11, 84
7, 92900, Control_c, 5, 11, 87
7, 92956, Control_c, 5, 11, 90
7, 93011, Control_c, 5, 11, 93
7, 93067, Control_c, 5, 11, 97
7, 93122, Control_c, 5, 11, 100
7, 93178, Control_c, 5, 11, 103
7, 93233, Control_c, 5, 11, 106
7, 93289, Control_c, 5, 11, 109
7, 93344, Control_c, 5, 11, 112
7, 93789, Control_c, 5, 11, 110
7, 93844, Control_c, 5, 11, 106
7, 93900, Control_c, 5, 11, 103
7, 93955, Control_c, 5, 11, 100
7, 94011, Control_c, 5, 11, 96
7, 94066, Control_c, 5, 11, 93
7, 94080, Control_c, 5, 98, 99
7, 94090, Control_c, 5, 6, 64
7, 94100, Control_c, 5, 98, 100
7, 94110, Control_c, 5, 6, 64
7, 94120, Control_c, 5, 98, 102
7, 94122, Control_c, 5, 11, 90
7, 94130, Control_c, 5, 6, 64
7, 94177, Control_c, 5, 11, 87
7, 94233, Control_c, 5, 11, 83
7, 94289, Control_c, 5, 11, 80
7, 94344, Control_c, 5, 11, 76
7, 94400, Control_c, 5, 11, 73
7, 94455, Control_c, 5, 11, 70
7, 95233, Control_c, 5, 11, 71
7, 95288, Control_c, 5, 11, 64
7, 95344, Control_c, 5, 11, 56
7, 95399, Control_c, 5, 11, 49
7, 95466, Note_off_c, 5, 53, 64
7, 95496, Control_c, 5, 11, 100
7, 106080, Note_on_c, 5, 65, 65
7, 106254, Note_off_c, 5, 65, 64
7, 106320, Note_on_c, 5, 68, 67
7, 106406, Note_off_c, 5, 68, 64
7, 106554, Note_on_c, 5, 73, 67
7, 106647, Note_off_c, 5, 73, 64
7, 106793, Note_on_c, 5, 63, 81
7, 106965, Note_off_c, 5, 63, 64
7, 107043, Note_on_c, 5, 66, 65
7, 107122, Note_off_c, 5, 66, 64
7, 107275, Note_on_c, 5, 72, 65
7, 107380, Note_off_c, 5, 72, 64
7, 107520, Note_on_c, 5, 61, 121
7, 107636, Note_on_c, 5, 60, 85
7, 107652, Note_off_c, 5, 61, 64
7, 107739, Note_off_c, 5, 60, 64
7, 107753, Note_on_c, 5, 61, 91
7, 107848, Note_off_c, 5, 61, 64
7, 107871, Note_on_c, 5, 63, 102
7, 107955, Note_off_c, 5, 63, 64
7, 107990, Note_on_c, 5, 65, 113
7, 108081, Note_off_c, 5, 65, 64
7, 108108, Note_on_c, 5, 66, 82
7, 108203, Note_off_c, 5, 66, 64
7, 108232, Note_on_c, 5, 68, 113
7, 108347, Note_off_c, 5, 68, 64
7, 108352, Note_on_c, 5, 70, 86
7, 108452, Note_off_c, 5, 70, 64
7, 108476, Note_on_c, 5, 68, 86
7, 108561, Note_off_c, 5, 68, 64
7, 108592, Note_on_c, 5, 66, 97
7, 108680, Note_off_c, 5, 66, 64
7, 108708, Note_on_c, 5, 65, 113
7, 108790, Note_off_c, 5, 65, 64
7, 108815, Note_on_c, 5, 63, 82
7, 108917, Note_off_c, 5, 63, 64
7, 108949, Note_on_c, 5, 65, 67
7, 109117, Note_off_c, 5, 65, 64
7, 109192, Note_on_c, 5, 68, 91
7, 109272, Note_off_c, 5, 68, 64
7, 109428, Note_on_c, 5, 73, 106
7, 109512, Note_off_c, 5, 73, 64
7, 109674, Note_on_c, 5, 72, 119
7, 109792, Note_on_c, 5, 73, 85
7, 109799, Note_off_c, 5, 72, 64
7, 109915, Note_on_c, 5, 72, 88
7, 109931, Note_off_c, 5, 73, 64
7, 110000, Note_off_c, 5, 72, 64
7, 110036, Note_on_c, 5, 70, 101
7, 110126, Note_off_c, 5, 70, 64
7, 110157, Note_on_c, 5, 68, 105
7, 110232, Note_off_c, 5, 68, 64
7, 110271, Note_on_c, 5, 66, 80
7, 110347, Note_off_c, 5, 66, 64
7, 110397, Note_on_c, 5, 65, 80
7, 110594, Note_off_c, 5, 65, 64
7, 110641, Note_on_c, 5, 61, 78
7, 110759, Note_off_c, 5, 61, 64
7, 111840, Note_on_c, 5, 68, 111
7, 111934, Note_off_c, 5, 68, 64
7, 111956, Note_on_c, 5, 66, 78
7, 112052, Note_off_c, 5, 66, 64
7, 112075, Note_on_c, 5, 65, 94
7, 112167, Note_off_c, 5, 65, 64
7, 112188, Note_on_c, 5, 63, 80
7, 112283, Note_off_c, 5, 63, 64
7, 112310, Note_on_c, 5, 61, 105
7, 112413, Note_off_c, 5, 61, 64
7, 112429, Note_on_c, 5, 60, 74
7, 112524, Note_off_c, 5, 60, 64
7, 112556, Note_on_c, 5, 58, 105
7, 112673, Note_on_c, 5, 56, 76
7, 112682, Note_off_c, 5, 58, 64
7, 112775, Note_off_c, 5, 56, 64
7, 112790, Note_on_c, 5, 58, 76
7, 112892, Note_off_c, 5, 58, 64
7, 112907, Note_on_c, 5, 60, 88
7, 112991, Note_off_c, 5, 60, 64
7, 113025, Note_on_c, 5, 61, 97
7, 113118, Note_off_c, 5, 61, 64
7, 113144, Note_on_c, 5, 58, 76
7, 113248, Note_off_c, 5, 58, 64
7, 113280, Note_on_c, 5, 63, 102
7, 113393, Note_on_c, 5, 65, 76
7, 113394, Note_off_c, 5, 63, 64
7, 113509, Note_on_c, 5, 63, 76
7, 113510, Note_off_c, 5, 65, 64
7, 113610, Note_off_c, 5, 63, 64
7, 113627, Note_on_c, 5, 61, 90
7, 113733, Note_off_c, 5, 61, 64
7, 113750, Note_on_c, 5, 60, 101
7, 113843, Note_off_c, 5, 60, 64
7, 113869, Note_on_c, 5, 58, 71
7, 113967, Note_off_c, 5, 58, 64
7, 113994, Note_on_c, 5, 56, 107
7, 114114, Note_on_c, 5, 55, 80
7, 114121, Note_off_c, 5, 56, 64
7, 114208, Note_off_c, 5, 55, 64
7, 114231, Note_on_c, 5, 56, 80
7, 114329, Note_off_c, 5, 56, 64
7, 114348, Note_on_c, 5, 58, 92
7, 114438, Note_off_c, 5, 58, 64
7, 114465, Note_on_c, 5, 60, 102
7, 114542, Note_off_c, 5, 60, 64
7, 114582, Note_on_c, 5, 56, 74
7, 114676, Note_off_c, 5, 56, 64
7, 114720, Note_on_c, 5, 61, 106
7, 114835, Note_off_c, 5, 61, 64
7, 114836, Note_on_c, 5, 63, 76
7, 114952, Note_on_c, 5, 61, 84
7, 114962, Note_off_c, 5, 63, 64
7, 115045, Note_off_c, 5, 61, 64
7, 115069, Note_on_c, 5, 60, 90
7, 115165, Note_off_c, 5, 60, 64
7, 115184, Note_on_c, 5, 58, 101
7, 115282, Note_off_c, 5, 58, 64
7, 115307, Note_on_c, 5, 56, 74
7, 115401, Note_off_c, 5, 56, 64
7, 115433, Note_on_c, 5, 55, 101
7, 115546, Note_off_c, 5, 55, 64
7, 115553, Note_on_c, 5, 53, 85
7, 115661, Note_off_c, 5, 53, 64
7, 115672, Note_on_c, 5, 55, 77
7, 115764, Note_off_c, 5, 55, 64
7, 115789, Note_on_c, 5, 56, 86
7, 115892, Note_off_c, 5, 56, 64
7, 115909, Note_on_c, 5, 58, 94
7, 116008, Note_off_c, 5, 58, 64
7, 116030, Note_on_c, 5, 55, 82
7, 116121, Note_off_c, 5, 55, 64
7, 116160, Note_on_c, 5, 63, 63
7, 116300, Note_off_c, 5, 63, 64
7, 116400, Note_on_c, 5, 60, 49
7, 116498, Note_off_c, 5, 60, 64
7, 116633, Note_on_c, 5, 56, 50
7, 116732, Note_off_c, 5, 56, 64
7, 116872, Note_on_c, 5, 65, 57
7, 117015, Note_off_c, 5, 65, 64
7, 117115, Note_on_c, 5, 61, 49
7, 117195, Note_off_c, 5, 61, 64
7, 117353, Note_on_c, 5, 56, 50
7, 117448, Note_off_c, 5, 56, 64
7, 117593, Note_on_c, 5, 63, 57
7, 117735, Note_off_c, 5, 63, 64
7, 117835, Note_on_c, 5, 60, 47
7, 117908, Note_off_c, 5, 60, 64
7, 118073, Note_on_c, 5, 56, 47
7, 118170, Note_off_c, 5, 56, 64
7, 118314, Note_on_c, 5, 61, 62
7, 118463, Note_off_c, 5, 61, 64
7, 118557, Note_on_c, 5, 56, 52
7, 118625, Note_off_c, 5, 56, 64
7, 118792, Note_on_c, 5, 53, 53
7, 118877, Note_off_c, 5, 53, 64
7, 119040, Note_on_c, 5, 60, 67
7, 119275, Note_off_c, 5, 60, 64
7, 119512, Note_on_c, 5, 68, 64
7, 119592, Note_off_c, 5, 68, 64
7, 119758, Note_on_c, 5, 61, 74
7, 119989, Note_off_c, 5, 61, 64
7, 120235, Note_on_c, 5, 68, 67
7, 120315, Note_off_c, 5, 68, 64
7, 140640, Note_on_c, 5, 65, 65
7, 140814, Note_off_c, 5, 65, 64
7, 140880, Note_on_c, 5, 68, 67
7, 140966, Note_off_c, 5, 68, 64
7, 141114, Note_on_c, 5, 73, 67
7, 141207, Note_off_c, 5, 73, 64
7, 141353, Note_on_c, 5, 63, 81
7, 141525, Note_off_c, 5, 63, 64
7, 141603, Note_on_c, 5, 66, 65
7, 141682, Note_off_c, 5, 66, 64
7, 141835, Note_on_c, 5, 72, 65
7, 141940, Note_off_c, 5, 72, 64
7, 142080, Note_on_c, 5, 61, 121
7, 142196, Note_on_c, 5, 60, 85
7, 142212, Note_off_c, 5, 61, 64
7, 142299, Note_off_c, 5, 60, 64
7, 142313, Note_on_c, 5, 61, 91
7, 142412, Note_off_c, 5, 61, 64
7, 142431, Note_on_c, 5, 63, 102
7, 142519, Note_off_c, 5, 63, 64
7, 142550, Note_on_c, 5, 65, 113
7, 142645, Note_off_c, 5, 65, 64
7, 142668, Note_on_c, 5, 66, 96
7, 142751, Note_off_c, 5, 66, 64
7, 142784, Note_on_c, 5, 68, 113
7, 142911, Note_off_c, 5, 68, 64
7, 142912, Note_on_c, 5, 70, 86
7, 143024, Note_off_c, 5, 70, 64
7, 143036, Note_on_c, 5, 68, 86
7, 143121, Note_off_c, 5, 68, 64
7, 143144, Note_on_c, 5, 66, 97
7, 143228, Note_off_c, 5, 66, 64
7, 143268, Note_on_c, 5, 65, 113
7, 143346, Note_off_c, 5, 65, 64
7, 143375, Note_on_c, 5, 63, 100
7, 143465, Note_off_c, 5, 63, 64
7, 143509, Note_on_c, 5, 65, 67
7, 143677, Note_off_c, 5, 65, 64
7, 143752, Note_on_c, 5, 68, 91
7, 143832, Note_off_c, 5, 68, 64
7, 143988, Note_on_c, 5, 73, 91
7, 144084, Note_off_c, 5, 73, 64
7, 144234, Note_on_c, 5, 72, 119
7, 144352, Note_on_c, 5, 73, 85
7, 144359, Note_off_c, 5, 72, 64
7, 144475, Note_on_c, 5, 72, 88
7, 144491, Note_off_c, 5, 73, 64
7, 144560, Note_off_c, 5, 72, 64
7, 144596, Note_on_c, 5, 70, 101
7, 144670, Note_off_c, 5, 70, 64
7, 144717, Note_on_c, 5, 68, 105
7, 144788, Note_off_c, 5, 68, 64
7, 144831, Note_on_c, 5, 66, 92
7, 144903, Note_off_c, 5, 66, 64
7, 144957, Note_on_c, 5, 65, 80
7, 145154, Note_off_c, 5, 65, 64
7, 145201, Note_on_c, 5, 61, 78
7, 145319, Note_off_c, 5, 61, 64
7, 146400, Note_on_c, 5, 68, 111
7, 146494, Note_off_c, 5, 68, 64
7, 146516, Note_on_c, 5, 66, 78
7, 146612, Note_off_c, 5, 66, 64
7, 146635, Note_on_c, 5, 65, 94
7, 146727, Note_off_c, 5, 65, 64
7, 146748, Note_on_c, 5, 63, 80
7, 146843, Note_off_c, 5, 63, 64
7, 146870, Note_on_c, 5, 61, 105
7, 146973, Note_off_c, 5, 61, 64
7, 146989, Note_on_c, 5, 60, 74
7, 147084, Note_off_c, 5, 60, 64
7, 147116, Note_on_c, 5, 58, 105
7, 147233, Note_on_c, 5, 56, 76
7, 147242, Note_off_c, 5, 58, 64
7, 147335, Note_off_c, 5, 56, 64
7, 147350, Note_on_c, 5, 58, 76
7, 147452, Note_off_c, 5, 58, 64
7, 147467, Note_on_c, 5, 60, 88
7, 147551, Note_off_c, 5, 60, 64
7, 147585, Note_on_c, 5, 61, 97
7, 147678, Note_off_c, 5, 61, 64
7, 147704, Note_on_c, 5, 58, 76
7, 147808, Note_off_c, 5, 58, 64
7, 147840, Note_on_c, 5, 63, 102
7, 147953, Note_on_c, 5, 65, 76
7, 147954, Note_off_c, 5, 63, 64
7, 148069, Note_on_c, 5, 63, 76
7, 148070, Note_off_c, 5, 65, 64
7, 148170, Note_off_c, 5, 63, 64
7, 148187, Note_on_c, 5, 61, 90
7, 148293, Note_off_c, 5, 61, 64
7, 148310, Note_on_c, 5, 60, 101
7, 148403, Note_off_c, 5, 60, 64
7, 148429, Note_on_c, 5, 58, 71
7, 148527, Note_off_c, 5, 58, 64
7, 148554, Note_on_c, 5, 56, 107
7, 148674, Note_on_c, 5, 55, 80
7, 148681, Note_off_c, 5, 56, 64
7, 148768, Note_off_c, 5, 55, 64
7, 148791, Note_on_c, 5, 56, 80
7, 148889, Note_off_c, 5, 56, 64
7, 148908, Note_on_c, 5, 58, 92
7, 148998, Note_off_c, 5, 58, 64
7, 149025, Note_on_c, 5, 60, 102
7, 149102, Note_off_c, 5, 60, 64
7, 149142, Note_on_c, 5, 56, 74
7, 149236, Note_off_c, 5, 56, 64
7, 149280, Note_on_c, 5, 61, 106
7, 149395, Note_off_c, 5, 61, 64
7, 149396, Note_on_c, 5, 63, 76
7, 149512, Note_on_c, 5, 61, 84
7, 149522, Note_off_c, 5, 63, 64
7, 149605, Note_off_c, 5, 61, 64
7, 149629, Note_on_c, 5, 60, 90
7, 149725, Note_off_c, 5, 60, 64
7, 149744, Note_on_c, 5, 58, 101
7, 149842, Note_off_c, 5, 58, 64
7, 149867, Note_on_c, 5, 56, 74
7, 149961, Note_off_c, 5, 56, 64
7, 149993, Note_on_c, 5, 55, 101
7, 150106, Note_off_c, 5, 55, 64
7, 150113, Note_on_c, 5, 53, 85
7, 150221, Note_off_c, 5, 53, 64
7, 150232, Note_on_c, 5, 55, 77
7, 150324, Note_off_c, 5, 55, 64
7, 150349, Note_on_c, 5, 56, 86
7, 150452, Note_off_c, 5, 56, 64
7, 150469, Note_on_c, 5, 58, 94
7, 150568, Note_off_c, 5, 58, 64
7, 150590, Note_on_c, 5, 55, 82
7, 150681, Note_off_c, 5, 55, 64
7, 150720, Note_on_c, 5, 63, 63
7, 150860, Note_off_c, 5, 63, 64
7, 150960, Note_on_c, 5, 60, 49
7, 151058, Note_off_c, 5, 60, 64
7, 151193, Note_on_c, 5, 56, 50
7, 151292, Note_off_c, 5, 56, 64
7, 151432, Note_on_c, 5, 65, 57
7, 151575, Note_off_c, 5, 65, 64
7, 151675, Note_on_c, 5, 61, 49
7, 151755, Note_off_c, 5, 61, 64
7, 151913, Note_on_c, 5, 56, 50
7, 152008, Note_off_c, 5, 56, 64
7, 152153, Note_on_c, 5, 63, 57
7, 152295, Note_off_c, 5, 63, 64
7, 152395, Note_on_c, 5, 60, 47
7, 152468, Note_off_c, 5, 60, 64
7, 152633, Note_on_c, 5, 56, 47
7, 152730, Note_off_c, 5, 56, 64
7, 152874, Note_on_c, 5, 61, 62
7, 153023, Note_off_c, 5, 61, 64
7, 153117, Note_on_c, 5, 56, 52
7, 153185, Note_off_c, 5, 56, 64
7, 153352, Note_on_c, 5, 53, 53
7, 153437, Note_off_c, 5, 53, 64
7, 153600, Note_on_c, 5, 60, 67
7, 153835, Note_off_c, 5, 60, 64
7, 154072, Note_on_c, 5, 68, 64
7, 154152, Note_off_c, 5, 68, 64
7, 154318, Note_on_c, 5, 61, 74
7, 154549, Note_off_c, 5, 61, 64
7, 154795, Note_on_c, 5, 68, 67
7, 154875, Note_off_c, 5, 68, 64
7, 186720, Note_on_c, 5, 61, 101
7, 186885, Note_off_c, 5, 61, 64
7, 186961, Note_on_c, 5, 65, 99
7, 187050, Note_off_c, 5, 65, 64
7, 187195, Note_on_c, 5, 70, 87
7, 187268, Note_off_c, 5, 70, 64
7, 187438, Note_on_c, 5, 60, 102
7, 187608, Note_off_c, 5, 60, 64
7, 187682, Note_on_c, 5, 63, 81
7, 187757, Note_off_c, 5, 63, 64
7, 187917, Note_on_c, 5, 69, 91
7, 187990, Note_off_c, 5, 69, 64
7, 188161, Note_on_c, 5, 58, 120
7, 188275, Note_off_c, 5, 58, 64
7, 188275, Note_on_c, 5, 57, 94
7, 188360, Note_off_c, 5, 57, 64
7, 188393, Note_on_c, 5, 58, 94
7, 188489, Note_off_c, 5, 58, 64
7, 188514, Note_on_c, 5, 60, 101
7, 188592, Note_off_c, 5, 60, 64
7, 188632, Note_on_c, 5, 61, 121
7, 188725, Note_off_c, 5, 61, 64
7, 188747, Note_on_c, 5, 63, 97
7, 188823, Note_off_c, 5, 63, 64
7, 188877, Note_on_c, 5, 65, 117
7, 188997, Note_on_c, 5, 66, 91
7, 189005, Note_off_c, 5, 65, 64
7, 189087, Note_off_c, 5, 66, 64
7, 189115, Note_on_c, 5, 65, 94
7, 189191, Note_off_c, 5, 65, 64
7, 189229, Note_on_c, 5, 63, 105
7, 189312, Note_off_c, 5, 63, 64
7, 189351, Note_on_c, 5, 61, 115
7, 189442, Note_off_c, 5, 61, 64
7, 189473, Note_on_c, 5, 60, 88
7, 189544, Note_off_c, 5, 60, 64
7, 189598, Note_on_c, 5, 58, 88
7, 189777, Note_off_c, 5, 58, 64
7, 189840, Note_on_c, 5, 65, 92
7, 189925, Note_off_c, 5, 65, 64
7, 190077, Note_on_c, 5, 70, 92
7, 190153, Note_off_c, 5, 70, 64
7, 190319, Note_on_c, 5, 69, 117
7, 190435, Note_on_c, 5, 70, 82
7, 190442, Note_off_c, 5, 69, 64
7, 190555, Note_off_c, 5, 70, 64
7, 190555, Note_on_c, 5, 69, 96
7, 190639, Note_off_c, 5, 69, 64
7, 190672, Note_on_c, 5, 67, 105
7, 190758, Note_off_c, 5, 67, 64
7, 190793, Note_on_c, 5, 65, 113
7, 190870, Note_off_c, 5, 65, 64
7, 190910, Note_on_c, 5, 63, 82
7, 190980, Note_off_c, 5, 63, 64
7, 191036, Note_on_c, 5, 61, 80
7, 191185, Note_off_c, 5, 61, 64
7, 191278, Note_on_c, 5, 58, 67
7, 191361, Note_off_c, 5, 58, 64
7, 192480, Note_on_c, 5, 65, 81
7, 192641, Note_off_c, 5, 65, 64
7, 192712, Note_on_c, 5, 70, 69
7, 192798, Note_off_c, 5, 70, 64
7, 192953, Note_on_c, 5, 65, 69
7, 193038, Note_off_c, 5, 65, 64
7, 193201, Note_on_c, 5, 66, 115
7, 193307, Note_off_c, 5, 66, 64
7, 193316, Note_on_c, 5, 68, 81
7, 193435, Note_on_c, 5, 66, 81
7, 193440, Note_off_c, 5, 68, 64
7, 193515, Note_off_c, 5, 66, 64
7, 193550, Note_on_c, 5, 65, 91
7, 193633, Note_off_c, 5, 65, 64
7, 193669, Note_on_c, 5, 63, 105
7, 193751, Note_off_c, 5, 63, 64
7, 193786, Note_on_c, 5, 61, 82
7, 193872, Note_off_c, 5, 61, 64
7, 193921, Note_on_c, 5, 63, 109
7, 194086, Note_off_c, 5, 63, 64
7, 194156, Note_on_c, 5, 68, 82
7, 194227, Note_off_c, 5, 68, 64
7, 194396, Note_on_c, 5, 63, 85
7, 194480, Note_off_c, 5, 63, 64
7, 194639, Note_on_c, 5, 65, 107
7, 194752, Note_off_c, 5, 65, 64
7, 194757, Note_on_c, 5, 66, 81
7, 194873, Note_on_c, 5, 65, 71
7, 194877, Note_off_c, 5, 66, 64
7, 194968, Note_off_c, 5, 65, 64
7, 194992, Note_on_c, 5, 63, 82
7, 195075, Note_off_c, 5, 63, 64
7, 195110, Note_on_c, 5, 61, 94
7, 195210, Note_off_c, 5, 61, 64
7, 195230, Note_on_c, 5, 60, 76
7, 195302, Note_off_c, 5, 60, 64
7, 195357, Note_on_c, 5, 61, 81
7, 195521, Note_off_c, 5, 61, 64
7, 195594, Note_on_c, 5, 66, 81
7, 195688, Note_off_c, 5, 66, 64
7, 195835, Note_on_c, 5, 61, 81
7, 195917, Note_off_c, 5, 61, 64
7, 196079, Note_on_c, 5, 63, 103
7, 196188, Note_off_c, 5, 63, 64
7, 196195, Note_on_c, 5, 65, 71
7, 196316, Note_on_c, 5, 63, 81
7, 196331, Note_off_c, 5, 65, 64
7, 196399, Note_off_c, 5, 63, 64
7, 196433, Note_on_c, 5, 61, 91
7, 196524, Note_off_c, 5, 61, 64
7, 196555, Note_on_c, 5, 60, 105
7, 196630, Note_off_c, 5, 60, 64
7, 196672, Note_on_c, 5, 58, 74
7, 196755, Note_off_c, 5, 58, 64
7, 196800, Note_on_c, 5, 60, 58
7, 196961, Note_off_c, 5, 60, 64
7, 197039, Note_on_c, 5, 57, 48
7, 197114, Note_off_c, 5, 57, 64
7, 197276, Note_on_c, 5, 53, 50
7, 197382, Note_off_c, 5, 53, 64
7, 197523, Note_on_c, 5, 61, 63
7, 197693, Note_off_c, 5, 61, 64
7, 197759, Note_on_c, 5, 58, 65
7, 197834, Note_off_c, 5, 58, 64
7, 197998, Note_on_c, 5, 53, 56
7, 198103, Note_off_c, 5, 53, 64
7, 198238, Note_on_c, 5, 60, 78
7, 198422, Note_off_c, 5, 60, 64
7, 198477, Note_on_c, 5, 57, 69
7, 198565, Note_off_c, 5, 57, 64
7, 198714, Note_on_c, 5, 53, 63
7, 198821, Note_off_c, 5, 53, 64
7, 198951, Note_on_c, 5, 58, 75
7, 199136, Note_off_c, 5, 58, 64
7, 199195, Note_on_c, 5, 53, 79
7, 199259, Note_off_c, 5, 53, 64
7, 199434, Note_on_c, 5, 49, 63
7, 199516, Note_off_c, 5, 49, 64
7, 199680, Note_on_c, 5, 57, 56
7, 199903, Note_off_c, 5, 57, 64
7, 200149, Note_on_c, 5, 65, 66
7, 200226, Note_off_c, 5, 65, 64
7, 200396, Note_on_c, 5, 58, 81
7, 200611, Note_off_c, 5, 58, 64
7, 200875, Note_on_c, 5, 70, 106
7, 200960, Note_off_c, 5, 70, 64
7, 211200, Note_on_c, 5, 65, 51
7, 211300, Note_off_c, 5, 65, 64
7, 211431, Note_on_c, 5, 65, 45
7, 211551, Note_off_c, 5, 65, 64
7, 211667, Note_on_c, 5, 65, 45
7, 211783, Note_off_c, 5, 65, 64
7, 211908, Note_on_c, 5, 65, 55
7, 212043, Note_off_c, 5, 65, 64
7, 212157, Note_on_c, 5, 65, 48
7, 212261, Note_off_c, 5, 65, 64
7, 212393, Note_on_c, 5, 65, 48
7, 212495, Note_off_c, 5, 65, 64
7, 212631, Note_on_c, 5, 65, 62
7, 212788, Note_off_c, 5, 65, 64
7, 212883, Note_on_c, 5, 63, 60
7, 212980, Note_off_c, 5, 63, 64
7, 213116, Note_on_c, 5, 62, 49
7, 213199, Note_off_c, 5, 62, 64
7, 213355, Note_on_c, 5, 63, 48
7, 213582, Note_off_c, 5, 63, 64
7, 219840, Note_on_c, 5, 58, 68
7, 220001, Note_off_c, 5, 58, 64
7, 220075, Note_on_c, 5, 61, 61
7, 220166, Note_off_c, 5, 61, 64
7, 220311, Note_on_c, 5, 66, 61
7, 220388, Note_off_c, 5, 66, 64
7, 220555, Note_on_c, 5, 59, 85
7, 220697, Note_off_c, 5, 59, 64
7, 220790, Note_on_c, 5, 63, 61
7, 220872, Note_off_c, 5, 63, 64
7, 221028, Note_on_c, 5, 66, 61
7, 221115, Note_off_c, 5, 66, 64
7, 221273, Note_on_c, 5, 58, 106
7, 221367, Note_off_c, 5, 58, 64
7, 221387, Note_on_c, 5, 61, 81
7, 221465, Note_off_c, 5, 61, 64
7, 221503, Note_on_c, 5, 54, 84
7, 221586, Note_off_c, 5, 54, 64
7, 221622, Note_on_c, 5, 61, 92
7, 221700, Note_off_c, 5, 61, 64
7, 221749, Note_on_c, 5, 58, 94
7, 221818, Note_off_c, 5, 58, 64
7, 221868, Note_on_c, 5, 61, 78
7, 221942, Note_off_c, 5, 61, 64
7, 221995, Note_on_c, 5, 59, 109
7, 222104, Note_off_c, 5, 59, 64
7, 222113, Note_on_c, 5, 63, 84
7, 222193, Note_off_c, 5, 63, 64
7, 222232, Note_on_c, 5, 54, 94
7, 222321, Note_off_c, 5, 54, 64
7, 222353, Note_on_c, 5, 63, 98
7, 222426, Note_off_c, 5, 63, 64
7, 222473, Note_on_c, 5, 59, 112
7, 222551, Note_off_c, 5, 59, 64
7, 222588, Note_on_c, 5, 63, 90
7, 222659, Note_off_c, 5, 63, 64
7, 222717, Note_on_c, 5, 61, 120
7, 222812, Note_off_c, 5, 61, 64
7, 222833, Note_on_c, 5, 64, 93
7, 222919, Note_off_c, 5, 64, 64
7, 222950, Note_on_c, 5, 54, 91
7, 223030, Note_off_c, 5, 54, 64
7, 223068, Note_on_c, 5, 64, 94
7, 223149, Note_off_c, 5, 64, 64
7, 223191, Note_on_c, 5, 61, 109
7, 223263, Note_off_c, 5, 61, 64
7, 223306, Note_on_c, 5, 64, 97
7, 223377, Note_off_c, 5, 64, 64
7, 223433, Note_on_c, 5, 63, 115
7, 223534, Note_off_c, 5, 63, 64
7, 223549, Note_on_c, 5, 66, 96
7, 223639, Note_off_c, 5, 66, 64
7, 223669, Note_on_c, 5, 54, 92
7, 223746, Note_off_c, 5, 54, 64
7, 223785, Note_on_c, 5, 66, 92
7, 223871, Note_off_c, 5, 66, 64
7, 223910, Note_on_c, 5, 63, 115
7, 223985, Note_off_c, 5, 63, 64
7, 224027, Note_on_c, 5, 66, 99
7, 224102, Note_off_c, 5, 66, 64
7, 224156, Note_on_c, 5, 64, 111
7, 224268, Note_off_c, 5, 64, 64
7, 224275, Note_on_c, 5, 58, 90
7, 224355, Note_off_c, 5, 58, 64
7, 224393, Note_on_c, 5, 64, 116
7, 224509, Note_off_c, 5, 64, 64
7, 224511, Note_on_c, 5, 58, 98
7, 224584, Note_off_c, 5, 58, 64
7, 224634, Note_on_c, 5, 64, 120
7, 224726, Note_off_c, 5, 64, 64
7, 224750, Note_on_c, 5, 58, 103
7, 224830, Note_off_c, 5, 58, 64
7, 224873, Note_on_c, 5, 63, 121
7, 224977, Note_off_c, 5, 63, 64
7, 224988, Note_on_c, 5, 59, 96
7, 225060, Note_off_c, 5, 59, 64
7, 225111, Note_on_c, 5, 63, 115
7, 225201, Note_off_c, 5, 63, 64
7, 225229, Note_on_c, 5, 59, 96
7, 225305, Note_off_c, 5, 59, 64
7, 225350, Note_on_c, 5, 63, 92
7, 225434, Note_off_c, 5, 63, 64
7, 225464, Note_on_c, 5, 59, 84
7, 225535, Note_off_c, 5, 59, 64
7, 225600, Note_on_c, 5, 56, 84
7, 225746, Note_off_c, 5, 56, 64
7, 225838, Note_on_c, 5, 59, 90
7, 225909, Note_off_c, 5, 59, 64
7, 226073, Note_on_c, 5, 62, 90
7, 226150, Note_off_c, 5, 62, 64
7, 226315, Note_on_c, 5, 59, 109
7, 226477, Note_off_c, 5, 59, 64
7, 226551, Note_on_c, 5, 62, 105
7, 226623, Note_off_c, 5, 62, 64
7, 226791, Note_on_c, 5, 68, 105
7, 226875, Note_off_c, 5, 68, 64
7, 227040, Note_on_c, 5, 66, 121
7, 227129, Note_off_c, 5, 66, 64
7, 227154, Note_on_c, 5, 70, 93
7, 227244, Note_off_c, 5, 70, 64
7, 227276, Note_on_c, 5, 61, 112
7, 227355, Note_off_c, 5, 61, 64
7, 227394, Note_on_c, 5, 70, 106
7, 227466, Note_off_c, 5, 70, 64
7, 227515, Note_on_c, 5, 66, 112
7, 227637, Note_on_c, 5, 65, 84
7, 227648, Note_off_c, 5, 66, 64
7, 227762, Note_on_c, 5, 66, 81
7, 227796, Note_off_c, 5, 65, 64
7, 227860, Note_off_c, 5, 66, 64
7, 227875, Note_on_c, 5, 70, 112
7, 227976, Note_off_c, 5, 70, 64
7, 227992, Note_on_c, 5, 61, 106
7, 228059, Note_off_c, 5, 61, 64
7, 228109, Note_on_c, 5, 70, 89
7, 228185, Note_off_c, 5, 70, 64
7, 228231, Note_on_c, 5, 66, 109
7, 228299, Note_off_c, 5, 66, 64
7, 228344, Note_on_c, 5, 70, 78
7, 228437, Note_off_c, 5, 70, 64
7, 228480, Note_on_c, 5, 66, 71
7, 228644, Note_off_c, 5, 66, 64
7, 228716, Note_on_c, 5, 71, 71
7, 228789, Note_off_c, 5, 71, 64
7, 228949, Note_on_c, 5, 75, 71
7, 229023, Note_off_c, 5, 75, 64
7, 229189, Note_on_c, 5, 68, 65
7, 229365, Note_off_c, 5, 68, 64
7, 229431, Note_on_c, 5, 71, 72
7, 229518, Note_off_c, 5, 71, 64
7, 229671, Note_on_c, 5, 75, 72
7, 229764, Note_off_c, 5, 75, 64
7, 229913, Note_on_c, 5, 66, 65
7, 230084, Note_off_c, 5, 66, 64
7, 230149, Note_on_c, 5, 71, 71
7, 230228, Note_off_c, 5, 71, 64
7, 230385, Note_on_c, 5, 75, 71
7, 230480, Note_off_c, 5, 75, 64
7, 230633, Note_on_c, 5, 64, 67
7, 230800, Note_off_c, 5, 64, 64
7, 230871, Note_on_c, 5, 71, 72
7, 230950, Note_off_c, 5, 71, 64
7, 231109, Note_on_c, 5, 75, 72
7, 231196, Note_off_c, 5, 75, 64
7, 231351, Note_on_c, 5, 66, 61
7, 231535, Note_off_c, 5, 66, 64
7, 231589, Note_on_c, 5, 71, 72
7, 231675, Note_off_c, 5, 71, 64
7, 231832, Note_on_c, 5, 75, 72
7, 231919, Note_off_c, 5, 75, 64
7, 232073, Note_on_c, 5, 68, 65
7, 232266, Note_off_c, 5, 68, 64
7, 232308, Note_on_c, 5, 71, 72
7, 232401, Note_off_c, 5, 71, 64
7, 232551, Note_on_c, 5, 75, 72
7, 232643, Note_off_c, 5, 75, 64
7, 232791, Note_on_c, 5, 66, 81
7, 232954, Note_off_c, 5, 66, 64
7, 233034, Note_on_c, 5, 71, 81
7, 233142, Note_off_c, 5, 71, 64
7, 233276, Note_on_c, 5, 70, 81
7, 233385, Note_off_c, 5, 70, 64
7, 233522, Note_on_c, 5, 71, 67
7, 233671, Note_off_c, 5, 71, 64
7, 233760, Note_on_c, 5, 54, 80
7, 233851, Note_off_c, 5, 54, 64
7, 233997, Note_on_c, 5, 54, 80
7, 234076, Note_off_c, 5, 54, 64
7, 234235, Note_on_c, 5, 54, 99
7, 234334, Note_off_c, 5, 54, 64
7, 234476, Note_on_c, 5, 54, 80
7, 234566, Note_off_c, 5, 54, 64
7, 234714, Note_on_c, 5, 54, 80
7, 234813, Note_off_c, 5, 54, 64
7, 234956, Note_on_c, 5, 54, 94
7, 235095, Note_off_c, 5, 54, 64
7, 235196, Note_on_c, 5, 54, 82
7, 235290, Note_off_c, 5, 54, 64
7, 235436, Note_on_c, 5, 54, 82
7, 235511, Note_off_c, 5, 54, 64
7, 235683, Note_on_c, 5, 59, 121
7, 235780, Note_off_c, 5, 59, 64
7, 235795, Note_on_c, 5, 58, 94
7, 235915, Note_on_c, 5, 59, 94
7, 235926, Note_off_c, 5, 58, 64
7, 236006, Note_off_c, 5, 59, 64
7, 236032, Note_on_c, 5, 61, 121
7, 236115, Note_off_c, 5, 61, 64
7, 236152, Note_on_c, 5, 63, 121
7, 236239, Note_off_c, 5, 63, 64
7, 236268, Note_on_c, 5, 64, 109
7, 236354, Note_off_c, 5, 64, 64
7, 236393, Note_on_c, 5, 66, 121
7, 236511, Note_off_c, 5, 66, 64
7, 236513, Note_on_c, 5, 68, 94
7, 236629, Note_on_c, 5, 66, 98
7, 236639, Note_off_c, 5, 68, 64
7, 236714, Note_off_c, 5, 66, 64
7, 236748, Note_on_c, 5, 64, 120
7, 236838, Note_off_c, 5, 64, 64
7, 236866, Note_on_c, 5, 63, 121
7, 236957, Note_off_c, 5, 63, 64
7, 236987, Note_on_c, 5, 61, 102
7, 237059, Note_off_c, 5, 61, 64
7, 237109, Note_on_c, 5, 63, 80
7, 237260, Note_off_c, 5, 63, 64
7, 237349, Note_on_c, 5, 66, 90
7, 237426, Note_off_c, 5, 66, 64
7, 237586, Note_on_c, 5, 71, 90
7, 237686, Note_off_c, 5, 71, 64
7, 237833, Note_on_c, 5, 70, 120
7, 237954, Note_off_c, 5, 70, 64
7, 237954, Note_on_c, 5, 71, 96
7, 238063, Note_off_c, 5, 71, 64
7, 238073, Note_on_c, 5, 70, 91
7, 238171, Note_off_c, 5, 70, 64
7, 238189, Note_on_c, 5, 68, 115
7, 238281, Note_off_c, 5, 68, 64
7, 238307, Note_on_c, 5, 66, 115
7, 238394, Note_off_c, 5, 66, 64
7, 238426, Note_on_c, 5, 64, 88
7, 238515, Note_off_c, 5, 64, 64
7, 238551, Note_on_c, 5, 63, 88
7, 238731, Note_off_c, 5, 63, 64
7, 238797, Note_on_c, 5, 59, 67
7, 238898, Note_off_c, 5, 59, 64
7, 240005, Note_on_c, 5, 63, 118
7, 240103, Note_off_c, 5, 63, 64
7, 240118, Note_on_c, 5, 64, 91
7, 240206, Note_off_c, 5, 64, 64
7, 240231, Note_on_c, 5, 63, 91
7, 240319, Note_off_c, 5, 63, 64
7, 240347, Note_on_c, 5, 61, 96
7, 240442, Note_off_c, 5, 61, 64
7, 240467, Note_on_c, 5, 59, 115
7, 240548, Note_off_c, 5, 59, 64
7, 240584, Note_on_c, 5, 58, 94
7, 240672, Note_off_c, 5, 58, 64
7, 240711, Note_on_c, 5, 56, 106
7, 240823, Note_off_c, 5, 56, 64
7, 240834, Note_on_c, 5, 54, 89
7, 240929, Note_off_c, 5, 54, 64
7, 240949, Note_on_c, 5, 56, 81
7, 241042, Note_off_c, 5, 56, 64
7, 241069, Note_on_c, 5, 58, 96
7, 241153, Note_off_c, 5, 58, 64
7, 241189, Note_on_c, 5, 59, 115
7, 241271, Note_off_c, 5, 59, 64
7, 241307, Note_on_c, 5, 56, 92
7, 241392, Note_off_c, 5, 56, 64
7, 241436, Note_on_c, 5, 61, 118
7, 241548, Note_off_c, 5, 61, 64
7, 241554, Note_on_c, 5, 63, 92
7, 241646, Note_off_c, 5, 63, 64
7, 241670, Note_on_c, 5, 61, 92
7, 241769, Note_off_c, 5, 61, 64
7, 241789, Note_on_c, 5, 59, 101
7, 241887, Note_off_c, 5, 59, 64
7, 241911, Note_on_c, 5, 58, 111
7, 241980, Note_off_c, 5, 58, 64
7, 242029, Note_on_c, 5, 56, 92
7, 242117, Note_off_c, 5, 56, 64
7, 242151, Note_on_c, 5, 54, 119
7, 242275, Note_on_c, 5, 53, 91
7, 242293, Note_off_c, 5, 54, 64
7, 242373, Note_off_c, 5, 53, 64
7, 242393, Note_on_c, 5, 54, 85
7, 242475, Note_off_c, 5, 54, 64
7, 242509, Note_on_c, 5, 56, 99
7, 242595, Note_off_c, 5, 56, 64
7, 242630, Note_on_c, 5, 58, 115
7, 242710, Note_off_c, 5, 58, 64
7, 242746, Note_on_c, 5, 54, 86
7, 242827, Note_off_c, 5, 54, 64
7, 242875, Note_on_c, 5, 59, 115
7, 242992, Note_off_c, 5, 59, 64
7, 242994, Note_on_c, 5, 61, 87
7, 243093, Note_off_c, 5, 61, 64
7, 243111, Note_on_c, 5, 59, 91
7, 243197, Note_off_c, 5, 59, 64
7, 243230, Note_on_c, 5, 58, 99
7, 243307, Note_off_c, 5, 58, 64
7, 243352, Note_on_c, 5, 56, 113
7, 243455, Note_off_c, 5, 56, 64
7, 243467, Note_on_c, 5, 54, 90
7, 243559, Note_off_c, 5, 54, 64
7, 243595, Note_on_c, 5, 53, 112
7, 243702, Note_off_c, 5, 53, 64
7, 243712, Note_on_c, 5, 51, 81
7, 243827, Note_off_c, 5, 51, 64
7, 243829, Note_on_c, 5, 53, 88
7, 243917, Note_off_c, 5, 53, 64
7, 243946, Note_on_c, 5, 54, 101
7, 244044, Note_off_c, 5, 54, 64
7, 244065, Note_on_c, 5, 56, 113
7, 244162, Note_off_c, 5, 56, 64
7, 244189, Note_on_c, 5, 53, 78
7, 244286, Note_off_c, 5, 53, 64
7, 254400, Note_on_c, 5, 65, 36
7, 254597, Note_off_c, 5, 65, 64
7, 254636, Note_on_c, 5, 68, 59
7, 254717, Note_off_c, 5, 68, 64
7, 254873, Note_on_c, 5, 73, 59
7, 254953, Note_off_c, 5, 73, 64
7, 255116, Note_on_c, 5, 66, 48
7, 255278, Note_off_c, 5, 66, 64
7, 255353, Note_on_c, 5, 70, 57
7, 255427, Note_off_c, 5, 70, 64
7, 255595, Note_on_c, 5, 73, 57
7, 255648, Note_off_c, 5, 73, 64
7, 255841, Note_on_c, 5, 65, 121
7, 255938, Note_off_c, 5, 65, 64
7, 255955, Note_on_c, 5, 68, 92
7, 256036, Note_off_c, 5, 68, 64
7, 256072, Note_on_c, 5, 61, 96
7, 256156, Note_off_c, 5, 61, 64
7, 256188, Note_on_c, 5, 68, 94
7, 256267, Note_off_c, 5, 68, 64
7, 256309, Note_on_c, 5, 65, 121
7, 256392, Note_off_c, 5, 65, 64
7, 256422, Note_on_c, 5, 68, 102
7, 256494, Note_off_c, 5, 68, 64
7, 256551, Note_on_c, 5, 66, 120
7, 256657, Note_off_c, 5, 66, 64
7, 256669, Note_on_c, 5, 70, 89
7, 256754, Note_off_c, 5, 70, 64
7, 256787, Note_on_c, 5, 61, 101
7, 256869, Note_off_c, 5, 61, 64
7, 256906, Note_on_c, 5, 70, 102
7, 256995, Note_off_c, 5, 70, 64
7, 257028, Note_on_c, 5, 66, 108
7, 257101, Note_off_c, 5, 66, 64
7, 257142, Note_on_c, 5, 70, 106
7, 257217, Note_off_c, 5, 70, 64
7, 257271, Note_on_c, 5, 68, 121
7, 257372, Note_off_c, 5, 68, 64
7, 257386, Note_on_c, 5, 71, 96
7, 257485, Note_off_c, 5, 71, 64
7, 257503, Note_on_c, 5, 61, 101
7, 257600, Note_off_c, 5, 61, 64
7, 257623, Note_on_c, 5, 71, 106
7, 257716, Note_off_c, 5, 71, 64
7, 257747, Note_on_c, 5, 68, 106
7, 257821, Note_off_c, 5, 68, 64
7, 257862, Note_on_c, 5, 71, 101
7, 257943, Note_off_c, 5, 71, 64
7, 257991, Note_on_c, 5, 70, 120
7, 258101, Note_off_c, 5, 70, 64
7, 258109, Note_on_c, 5, 73, 93
7, 258207, Note_off_c, 5, 73, 64
7, 258229, Note_on_c, 5, 61, 94
7, 258327, Note_off_c, 5, 61, 64
7, 258345, Note_on_c, 5, 73, 93
7, 258455, Note_off_c, 5, 73, 64
7, 258466, Note_on_c, 5, 70, 102
7, 258559, Note_off_c, 5, 70, 64
7, 258583, Note_on_c, 5, 73, 98
7, 258671, Note_off_c, 5, 73, 64
7, 258710, Note_on_c, 5, 71, 101
7, 258814, Note_off_c, 5, 71, 64
7, 258823, Note_on_c, 5, 65, 76
7, 258892, Note_off_c, 5, 65, 64
7, 258951, Note_on_c, 5, 71, 102
7, 259048, Note_off_c, 5, 71, 64
7, 259059, Note_on_c, 5, 65, 74
7, 259138, Note_off_c, 5, 65, 64
7, 259187, Note_on_c, 5, 71, 92
7, 259294, Note_off_c, 5, 71, 64
7, 259297, Note_on_c, 5, 65, 76
7, 259387, Note_off_c, 5, 65, 64
7, 259432, Note_on_c, 5, 70, 94
7, 259538, Note_off_c, 5, 70, 64
7, 259543, Note_on_c, 5, 66, 81
7, 259619, Note_off_c, 5, 66, 64
7, 259674, Note_on_c, 5, 70, 102
7, 259775, Note_off_c, 5, 70, 64
7, 259782, Note_on_c, 5, 66, 87
7, 259863, Note_off_c, 5, 66, 64
7, 259910, Note_on_c, 5, 70, 89
7, 260001, Note_off_c, 5, 70, 64
7, 260016, Note_on_c, 5, 66, 72
7, 260099, Note_off_c, 5, 66, 64
7, 260160, Note_on_c, 5, 65, 112
7, 260249, Note_off_c, 5, 65, 64
7, 260266, Note_on_c, 5, 68, 76
7, 260351, Note_off_c, 5, 68, 64
7, 260389, Note_on_c, 5, 61, 99
7, 260470, Note_off_c, 5, 61, 64
7, 260499, Note_on_c, 5, 68, 92
7, 260583, Note_off_c, 5, 68, 64
7, 260628, Note_on_c, 5, 65, 97
7, 260722, Note_off_c, 5, 65, 64
7, 260736, Note_on_c, 5, 68, 94
7, 260833, Note_off_c, 5, 68, 64
7, 260866, Note_on_c, 5, 65, 116
7, 260972, Note_off_c, 5, 65, 64
7, 260978, Note_on_c, 5, 68, 97
7, 261068, Note_off_c, 5, 68, 64
7, 261103, Note_on_c, 5, 61, 94
7, 261201, Note_off_c, 5, 61, 64
7, 261219, Note_on_c, 5, 68, 101
7, 261304, Note_off_c, 5, 68, 64
7, 261350, Note_on_c, 5, 65, 101
7, 261415, Note_off_c, 5, 65, 64
7, 261452, Note_on_c, 5, 68, 84
7, 261532, Note_off_c, 5, 68, 64
7, 261576, Note_on_c, 5, 66, 81
7, 261732, Note_off_c, 5, 66, 64
7, 290400, Note_on_c, 5, 61, 101
7, 290565, Note_off_c, 5, 61, 64
7, 290641, Note_on_c, 5, 65, 99
7, 290730, Note_off_c, 5, 65, 64
7, 290875, Note_on_c, 5, 70, 87
7, 290948, Note_off_c, 5, 70, 64
7, 291118, Note_on_c, 5, 60, 102
7, 291288, Note_off_c, 5, 60, 64
7, 291362, Note_on_c, 5, 63, 81
7, 291437, Note_off_c, 5, 63, 64
7, 291597, Note_on_c, 5, 69, 91
7, 291670, Note_off_c, 5, 69, 64
7, 291841, Note_on_c, 5, 58, 120
7, 291955, Note_off_c, 5, 58, 64
7, 291955, Note_on_c, 5, 57, 94
7, 292040, Note_off_c, 5, 57, 64
7, 292073, Note_on_c, 5, 58, 94
7, 292169, Note_off_c, 5, 58, 64
7, 292194, Note_on_c, 5, 60, 101
7, 292272, Note_off_c, 5, 60, 64
7, 292312, Note_on_c, 5, 61, 121
7, 292405, Note_off_c, 5, 61, 64
7, 292427, Note_on_c, 5, 63, 97
7, 292503, Note_off_c, 5, 63, 64
7, 292557, Note_on_c, 5, 65, 117
7, 292677, Note_on_c, 5, 66, 91
7, 292685, Note_off_c, 5, 65, 64
7, 292767, Note_off_c, 5, 66, 64
7, 292795, Note_on_c, 5, 65, 94
7, 292871, Note_off_c, 5, 65, 64
7, 292909, Note_on_c, 5, 63, 105
7, 292992, Note_off_c, 5, 63, 64
7, 293031, Note_on_c, 5, 61, 115
7, 293122, Note_off_c, 5, 61, 64
7, 293153, Note_on_c, 5, 60, 88
7, 293224, Note_off_c, 5, 60, 64
7, 293278, Note_on_c, 5, 58, 88
7, 293457, Note_off_c, 5, 58, 64
7, 293520, Note_on_c, 5, 65, 92
7, 293605, Note_off_c, 5, 65, 64
7, 293757, Note_on_c, 5, 70, 92
7, 293833, Note_off_c, 5, 70, 64
7, 293999, Note_on_c, 5, 69, 117
7, 294115, Note_on_c, 5, 70, 82
7, 294122, Note_off_c, 5, 69, 64
7, 294235, Note_off_c, 5, 70, 64
7, 294235, Note_on_c, 5, 69, 96
7, 294319, Note_off_c, 5, 69, 64
7, 294352, Note_on_c, 5, 67, 105
7, 294438, Note_off_c, 5, 67, 64
7, 294473, Note_on_c, 5, 65, 113
7, 294550, Note_off_c, 5, 65, 64
7, 294590, Note_on_c, 5, 63, 82
7, 294660, Note_off_c, 5, 63, 64
7, 294716, Note_on_c, 5, 61, 80
7, 294865, Note_off_c, 5, 61, 64
7, 294958, Note_on_c, 5, 58, 67
7, 295041, Note_off_c, 5, 58, 64
7, 296160, Note_on_c, 5, 65, 81
7, 296321, Note_off_c, 5, 65, 64
7, 296392, Note_on_c, 5, 70, 69
7, 296478, Note_off_c, 5, 70, 64
7, 296633, Note_on_c, 5, 65, 69
7, 296718, Note_off_c, 5, 65, 64
7, 296881, Note_on_c, 5, 66, 115
7, 296987, Note_off_c, 5, 66, 64
7, 296996, Note_on_c, 5, 68, 81
7, 297115, Note_on_c, 5, 66, 81
7, 297120, Note_off_c, 5, 68, 64
7, 297195, Note_off_c, 5, 66, 64
7, 297230, Note_on_c, 5, 65, 91
7, 297313, Note_off_c, 5, 65, 64
7, 297349, Note_on_c, 5, 63, 105
7, 297431, Note_off_c, 5, 63, 64
7, 297466, Note_on_c, 5, 61, 82
7, 297552, Note_off_c, 5, 61, 64
7, 297601, Note_on_c, 5, 63, 109
7, 297766, Note_off_c, 5, 63, 64
7, 297836, Note_on_c, 5, 68, 82
7, 297907, Note_off_c, 5, 68, 64
7, 298076, Note_on_c, 5, 63, 85
7, 298160, Note_off_c, 5, 63, 64
7, 298319, Note_on_c, 5, 65, 107
7, 298432, Note_off_c, 5, 65, 64
7, 298437, Note_on_c, 5, 66, 81
7, 298553, Note_on_c, 5, 65, 71
7, 298557, Note_off_c, 5, 66, 64
7, 298648, Note_off_c, 5, 65, 64
7, 298672, Note_on_c, 5, 63, 82
7, 298755, Note_off_c, 5, 63, 64
7, 298790, Note_on_c, 5, 61, 94
7, 298890, Note_off_c, 5, 61, 64
7, 298910, Note_on_c, 5, 60, 76
7, 298982, Note_off_c, 5, 60, 64
7, 299037, Note_on_c, 5, 61, 81
7, 299201, Note_off_c, 5, 61, 64
7, 299274, Note_on_c, 5, 66, 81
7, 299368, Note_off_c, 5, 66, 64
7, 299515, Note_on_c, 5, 61, 81
7, 299597, Note_off_c, 5, 61, 64
7, 299759, Note_on_c, 5, 63, 103
7, 299868, Note_off_c, 5, 63, 64
7, 299875, Note_on_c, 5, 65, 71
7, 299996, Note_on_c, 5, 63, 81
7, 300011, Note_off_c, 5, 65, 64
7, 300079, Note_off_c, 5, 63, 64
7, 300113, Note_on_c, 5, 61, 91
7, 300204, Note_off_c, 5, 61, 64
7, 300235, Note_on_c, 5, 60, 105
7, 300310, Note_off_c, 5, 60, 64
7, 300352, Note_on_c, 5, 58, 74
7, 300435, Note_off_c, 5, 58, 64
7, 300480, Note_on_c, 5, 60, 58
7, 300641, Note_off_c, 5, 60, 64
7, 300719, Note_on_c, 5, 57, 48
7, 300794, Note_off_c, 5, 57, 64
7, 300956, Note_on_c, 5, 53, 50
7, 301062, Note_off_c, 5, 53, 64
7, 301203, Note_on_c, 5, 61, 63
7, 301373, Note_off_c, 5, 61, 64
7, 301439, Note_on_c, 5, 58, 65
7, 301514, Note_off_c, 5, 58, 64
7, 301678, Note_on_c, 5, 53, 56
7, 301783, Note_off_c, 5, 53, 64
7, 301918, Note_on_c, 5, 60, 78
7, 302102, Note_off_c, 5, 60, 64
7, 302157, Note_on_c, 5, 57, 69
7, 302245, Note_off_c, 5, 57, 64
7, 302394, Note_on_c, 5, 53, 63
7, 302501, Note_off_c, 5, 53, 64
7, 302631, Note_on_c, 5, 58, 75
7, 302816, Note_off_c, 5, 58, 64
7, 302875, Note_on_c, 5, 53, 79
7, 302939, Note_off_c, 5, 53, 64
7, 303114, Note_on_c, 5, 49, 63
7, 303196, Note_off_c, 5, 49, 64
7, 303360, Note_on_c, 5, 57, 56
7, 303583, Note_off_c, 5, 57, 64
7, 303829, Note_on_c, 5, 65, 66
7, 303906, Note_off_c, 5, 65, 64
7, 304076, Note_on_c, 5, 58, 81
7, 304291, Note_off_c, 5, 58, 64
7, 304555, Note_on_c, 5, 70, 106
7, 304640, Note_off_c, 5, 70, 64
7, 314880, Note_on_c, 5, 65, 51
7, 314980, Note_off_c, 5, 65, 64
7, 315111, Note_on_c, 5, 65, 45
7, 315231, Note_off_c, 5, 65, 64
7, 315347, Note_on_c, 5, 65, 45
7, 315463, Note_off_c, 5, 65, 64
7, 315588, Note_on_c, 5, 65, 55
7, 315723, Note_off_c, 5, 65, 64
7, 315837, Note_on_c, 5, 65, 48
7, 315941, Note_off_c, 5, 65, 64
7, 316073, Note_on_c, 5, 65, 48
7, 316175, Note_off_c, 5, 65, 64
7, 316311, Note_on_c, 5, 65, 62
7, 316468, Note_off_c, 5, 65, 64
7, 316563, Note_on_c, 5, 63, 60
7, 316660, Note_off_c, 5, 63, 64
7, 316796, Note_on_c, 5, 62, 49
7, 316879, Note_off_c, 5, 62, 64
7, 317035, Note_on_c, 5, 63, 48
7, 317262, Note_off_c, 5, 63, 64
7, 323520, Note_on_c, 5, 58, 68
7, 323681, Note_off_c, 5, 58, 64
7, 323755, Note_on_c, 5, 61, 61
7, 323846, Note_off_c, 5, 61, 64
7, 323991, Note_on_c, 5, 66, 61
7, 324068, Note_off_c, 5, 66, 64
7, 324235, Note_on_c, 5, 59, 85
7, 324377, Note_off_c, 5, 59, 64
7, 324470, Note_on_c, 5, 63, 61
7, 324552, Note_off_c, 5, 63, 64
7, 324708, Note_on_c, 5, 66, 61
7, 324795, Note_off_c, 5, 66, 64
7, 324953, Note_on_c, 5, 58, 106
7, 325047, Note_off_c, 5, 58, 64
7, 325067, Note_on_c, 5, 61, 81
7, 325145, Note_off_c, 5, 61, 64
7, 325183, Note_on_c, 5, 54, 84
7, 325266, Note_off_c, 5, 54, 64
7, 325302, Note_on_c, 5, 61, 92
7, 325380, Note_off_c, 5, 61, 64
7, 325429, Note_on_c, 5, 58, 94
7, 325498, Note_off_c, 5, 58, 64
7, 325548, Note_on_c, 5, 61, 78
7, 325622, Note_off_c, 5, 61, 64
7, 325675, Note_on_c, 5, 59, 109
7, 325784, Note_off_c, 5, 59, 64
7, 325793, Note_on_c, 5, 63, 84
7, 325873, Note_off_c, 5, 63, 64
7, 325912, Note_on_c, 5, 54, 94
7, 326001, Note_off_c, 5, 54, 64
7, 326033, Note_on_c, 5, 63, 98
7, 326106, Note_off_c, 5, 63, 64
7, 326153, Note_on_c, 5, 59, 112
7, 326231, Note_off_c, 5, 59, 64
7, 326268, Note_on_c, 5, 63, 90
7, 326339, Note_off_c, 5, 63, 64
7, 326397, Note_on_c, 5, 61, 120
7, 326492, Note_off_c, 5, 61, 64
7, 326513, Note_on_c, 5, 64, 93
7, 326599, Note_off_c, 5, 64, 64
7, 326630, Note_on_c, 5, 54, 91
7, 326710, Note_off_c, 5, 54, 64
7, 326748, Note_on_c, 5, 64, 94
7, 326829, Note_off_c, 5, 64, 64
7, 326871, Note_on_c, 5, 61, 109
7, 326943, Note_off_c, 5, 61, 64
7, 326986, Note_on_c, 5, 64, 97
7, 327057, Note_off_c, 5, 64, 64
7, 327113, Note_on_c, 5, 63, 115
7, 327214, Note_off_c, 5, 63, 64
7, 327229, Note_on_c, 5, 66, 96
7, 327319, Note_off_c, 5, 66, 64
7, 327349, Note_on_c, 5, 54, 92
7, 327426, Note_off_c, 5, 54, 64
7, 327465, Note_on_c, 5, 66, 92
7, 327551, Note_off_c, 5, 66, 64
7, 327590, Note_on_c, 5, 63, 115
7, 327665, Note_off_c, 5, 63, 64
7, 327707, Note_on_c, 5, 66, 99
7, 327782, Note_off_c, 5, 66, 64
7, 327836, Note_on_c, 5, 64, 111
7, 327948, Note_off_c, 5, 64, 64
7, 327955, Note_on_c, 5, 58, 90
7, 328035, Note_off_c, 5, 58, 64
7, 328073, Note_on_c, 5, 64, 116
7, 328189, Note_off_c, 5, 64, 64
7, 328191, Note_on_c, 5, 58, 98
7, 328264, Note_off_c, 5, 58, 64
7, 328314, Note_on_c, 5, 64, 120
7, 328406, Note_off_c, 5, 64, 64
7, 328430, Note_on_c, 5, 58, 103
7, 328510, Note_off_c, 5, 58, 64
7, 328553, Note_on_c, 5, 63, 121
7, 328657, Note_off_c, 5, 63, 64
7, 328668, Note_on_c, 5, 59, 96
7, 328740, Note_off_c, 5, 59, 64
7, 328791, Note_on_c, 5, 63, 115
7, 328881, Note_off_c, 5, 63, 64
7, 328909, Note_on_c, 5, 59, 96
7, 328985, Note_off_c, 5, 59, 64
7, 329030, Note_on_c, 5, 63, 92
7, 329114, Note_off_c, 5, 63, 64
7, 329144, Note_on_c, 5, 59, 84
7, 329215, Note_off_c, 5, 59, 64
7, 329280, Note_on_c, 5, 56, 84
7, 329426, Note_off_c, 5, 56, 64
7, 329518, Note_on_c, 5, 59, 90
7, 329589, Note_off_c, 5, 59, 64
7, 329753, Note_on_c, 5, 62, 90
7, 329830, Note_off_c, 5, 62, 64
7, 329995, Note_on_c, 5, 59, 109
7, 330157, Note_off_c, 5, 59, 64
7, 330231, Note_on_c, 5, 62, 105
7, 330303, Note_off_c, 5, 62, 64
7, 330471, Note_on_c, 5, 68, 105
7, 330555, Note_off_c, 5, 68, 64
7, 330720, Note_on_c, 5, 66, 121
7, 330809, Note_off_c, 5, 66, 64
7, 330834, Note_on_c, 5, 70, 93
7, 330924, Note_off_c, 5, 70, 64
7, 330956, Note_on_c, 5, 61, 112
7, 331035, Note_off_c, 5, 61, 64
7, 331074, Note_on_c, 5, 70, 106
7, 331146, Note_off_c, 5, 70, 64
7, 331195, Note_on_c, 5, 66, 112
7, 331317, Note_on_c, 5, 65, 84
7, 331328, Note_off_c, 5, 66, 64
7, 331442, Note_on_c, 5, 66, 81
7, 331476, Note_off_c, 5, 65, 64
7, 331540, Note_off_c, 5, 66, 64
7, 331555, Note_on_c, 5, 70, 112
7, 331656, Note_off_c, 5, 70, 64
7, 331672, Note_on_c, 5, 61, 106
7, 331739, Note_off_c, 5, 61, 64
7, 331789, Note_on_c, 5, 70, 89
7, 331865, Note_off_c, 5, 70, 64
7, 331911, Note_on_c, 5, 66, 109
7, 331979, Note_off_c, 5, 66, 64
7, 332024, Note_on_c, 5, 70, 78
7, 332117, Note_off_c, 5, 70, 64
7, 332160, Note_on_c, 5, 66, 71
7, 332324, Note_off_c, 5, 66, 64
7, 332396, Note_on_c, 5, 71, 71
7, 332469, Note_off_c, 5, 71, 64
7, 332629, Note_on_c, 5, 75, 71
7, 332703, Note_off_c, 5, 75, 64
7, 332869, Note_on_c, 5, 68, 65
7, 333045, Note_off_c, 5, 68, 64
7, 333111, Note_on_c, 5, 71, 72
7, 333198, Note_off_c, 5, 71, 64
7, 333351, Note_on_c, 5, 75, 72
7, 333444, Note_off_c, 5, 75, 64
7, 333593, Note_on_c, 5, 66, 65
7, 333764, Note_off_c, 5, 66, 64
7, 333829, Note_on_c, 5, 71, 71
7, 333908, Note_off_c, 5, 71, 64
7, 334065, Note_on_c, 5, 75, 71
7, 334160, Note_off_c, 5, 75, 64
7, 334313, Note_on_c, 5, 64, 67
7, 334480, Note_off_c, 5, 64, 64
7, 334551, Note_on_c, 5, 71, 72
7, 334630, Note_off_c, 5, 71, 64
7, 334789, Note_on_c, 5, 75, 72
7, 334876, Note_off_c, 5, 75, 64
7, 335031, Note_on_c, 5, 66, 61
7, 335215, Note_off_c, 5, 66, 64
7, 335269, Note_on_c, 5, 71, 72
7, 335355, Note_off_c, 5, 71, 64
7, 335512, Note_on_c, 5, 75, 72
7, 335599, Note_off_c, 5, 75, 64
7, 335753, Note_on_c, 5, 68, 65
7, 335946, Note_off_c, 5, 68, 64
7, 335988, Note_on_c, 5, 71, 72
7, 336081, Note_off_c, 5, 71, 64
7, 336231, Note_on_c, 5, 75, 72
7, 336323, Note_off_c, 5, 75, 64
7, 336471, Note_on_c, 5, 66, 81
7, 336634, Note_off_c, 5, 66, 64
7, 336714, Note_on_c, 5, 71, 81
7, 336822, Note_off_c, 5, 71, 64
7, 336956, Note_on_c, 5, 70, 81
7, 337065, Note_off_c, 5, 70, 64
7, 337202, Note_on_c, 5, 71, 67
7, 337351, Note_off_c, 5, 71, 64
7, 337440, Note_on_c, 5, 54, 80
7, 337531, Note_off_c, 5, 54, 64
7, 337677, Note_on_c, 5, 54, 80
7, 337756, Note_off_c, 5, 54, 64
7, 337915, Note_on_c, 5, 54, 99
7, 338014, Note_off_c, 5, 54, 64
7, 338156, Note_on_c, 5, 54, 80
7, 338246, Note_off_c, 5, 54, 64
7, 338394, Note_on_c, 5, 54, 80
7, 338493, Note_off_c, 5, 54, 64
7, 338636, Note_on_c, 5, 54, 94
7, 338775, Note_off_c, 5, 54, 64
7, 338876, Note_on_c, 5, 54, 82
7, 338970, Note_off_c, 5, 54, 64
7, 339116, Note_on_c, 5, 54, 82
7, 339191, Note_off_c, 5, 54, 64
7, 339363, Note_on_c, 5, 59, 121
7, 339460, Note_off_c, 5, 59, 64
7, 339475, Note_on_c, 5, 58, 94
7, 339595, Note_on_c, 5, 59, 94
7, 339606, Note_off_c, 5, 58, 64
7, 339686, Note_off_c, 5, 59, 64
7, 339712, Note_on_c, 5, 61, 121
7, 339795, Note_off_c, 5, 61, 64
7, 339832, Note_on_c, 5, 63, 121
7, 339919, Note_off_c, 5, 63, 64
7, 339948, Note_on_c, 5, 64, 109
7, 340034, Note_off_c, 5, 64, 64
7, 340073, Note_on_c, 5, 66, 121
7, 340191, Note_off_c, 5, 66, 64
7, 340193, Note_on_c, 5, 68, 94
7, 340309, Note_on_c, 5, 66, 98
7, 340319, Note_off_c, 5, 68, 64
7, 340394, Note_off_c, 5, 66, 64
7, 340428, Note_on_c, 5, 64, 120
7, 340518, Note_off_c, 5, 64, 64
7, 340546, Note_on_c, 5, 63, 121
7, 340637, Note_off_c, 5, 63, 64
7, 340667, Note_on_c, 5, 61, 102
7, 340739, Note_off_c, 5, 61, 64
7, 340789, Note_on_c, 5, 63, 80
7, 340940, Note_off_c, 5, 63, 64
7, 341029, Note_on_c, 5, 66, 90
7, 341106, Note_off_c, 5, 66, 64
7, 341266, Note_on_c, 5, 71, 90
7, 341366, Note_off_c, 5, 71, 64
7, 341513, Note_on_c, 5, 70, 120
7, 341634, Note_off_c, 5, 70, 64
7, 341634, Note_on_c, 5, 71, 96
7, 341743, Note_off_c, 5, 71, 64
7, 341753, Note_on_c, 5, 70, 91
7, 341851, Note_off_c, 5, 70, 64
7, 341869, Note_on_c, 5, 68, 115
7, 341961, Note_off_c, 5, 68, 64
7, 341987, Note_on_c, 5, 66, 115
7, 342074, Note_off_c, 5, 66, 64
7, 342106, Note_on_c, 5, 64, 88
7, 342195, Note_off_c, 5, 64, 64
7, 342231, Note_on_c, 5, 63, 88
7, 342411, Note_off_c, 5, 63, 64
7, 342477, Note_on_c, 5, 59, 67
7, 342578, Note_off_c, 5, 59, 64
7, 343685, Note_on_c, 5, 63, 118
7, 343783, Note_off_c, 5, 63, 64
7, 343798, Note_on_c, 5, 64, 91
7, 343886, Note_off_c, 5, 64, 64
7, 343911, Note_on_c, 5, 63, 91
7, 343999, Note_off_c, 5, 63, 64
7, 344027, Note_on_c, 5, 61, 96
7, 344122, Note_off_c, 5, 61, 64
7, 344147, Note_on_c, 5, 59, 115
7, 344228, Note_off_c, 5, 59, 64
7, 344264, Note_on_c, 5, 58, 94
7, 344352, Note_off_c, 5, 58, 64
7, 344391, Note_on_c, 5, 56, 106
7, 344503, Note_off_c, 5, 56, 64
7, 344514, Note_on_c, 5, 54, 89
7, 344609, Note_off_c, 5, 54, 64
7, 344629, Note_on_c, 5, 56, 81
7, 344722, Note_off_c, 5, 56, 64
7, 344749, Note_on_c, 5, 58, 96
7, 344833, Note_off_c, 5, 58, 64
7, 344869, Note_on_c, 5, 59, 115
7, 344951, Note_off_c, 5, 59, 64
7, 344987, Note_on_c, 5, 56, 92
7, 345072, Note_off_c, 5, 56, 64
7, 345116, Note_on_c, 5, 61, 118
7, 345228, Note_off_c, 5, 61, 64
7, 345234, Note_on_c, 5, 63, 92
7, 345326, Note_off_c, 5, 63, 64
7, 345350, Note_on_c, 5, 61, 92
7, 345449, Note_off_c, 5, 61, 64
7, 345469, Note_on_c, 5, 59, 101
7, 345567, Note_off_c, 5, 59, 64
7, 345591, Note_on_c, 5, 58, 111
7, 345660, Note_off_c, 5, 58, 64
7, 345709, Note_on_c, 5, 56, 92
7, 345797, Note_off_c, 5, 56, 64
7, 345831, Note_on_c, 5, 54, 119
7, 345955, Note_on_c, 5, 53, 91
7, 345973, Note_off_c, 5, 54, 64
7, 346053, Note_off_c, 5, 53, 64
7, 346073, Note_on_c, 5, 54, 85
7, 346155, Note_off_c, 5, 54, 64
7, 346189, Note_on_c, 5, 56, 99
7, 346275, Note_off_c, 5, 56, 64
7, 346310, Note_on_c, 5, 58, 115
7, 346390, Note_off_c, 5, 58, 64
7, 346426, Note_on_c, 5, 54, 86
7, 346507, Note_off_c, 5, 54, 64
7, 346555, Note_on_c, 5, 59, 115
7, 346672, Note_off_c, 5, 59, 64
7, 346674, Note_on_c, 5, 61, 87
7, 346773, Note_off_c, 5, 61, 64
7, 346791, Note_on_c, 5, 59, 91
7, 346877, Note_off_c, 5, 59, 64
7, 346910, Note_on_c, 5, 58, 99
7, 346987, Note_off_c, 5, 58, 64
7, 347032, Note_on_c, 5, 56, 113
7, 347135, Note_off_c, 5, 56, 64
7, 347147, Note_on_c, 5, 54, 90
7, 347239, Note_off_c, 5, 54, 64
7, 347275, Note_on_c, 5, 53, 112
7, 347382, Note_off_c, 5, 53, 64
7, 347392, Note_on_c, 5, 51, 81
7, 347507, Note_off_c, 5, 51, 64
7, 347509, Note_on_c, 5, 53, 88
7, 347597, Note_off_c, 5, 53, 64
7, 347626, Note_on_c, 5, 54, 101
7, 347724, Note_off_c, 5, 54, 64
7, 347745, Note_on_c, 5, 56, 113
7, 347842, Note_off_c, 5, 56, 64
7, 347869, Note_on_c, 5, 53, 78
7, 347966, Note_off_c, 5, 53, 64
7, 358080, Note_on_c, 5, 65, 36
7, 358277, Note_off_c, 5, 65, 64
7, 358316, Note_on_c, 5, 68, 59
7, 358397, Note_off_c, 5, 68, 64
7, 358553, Note_on_c, 5, 73, 59
7, 358633, Note_off_c, 5, 73, 64
7, 358796, Note_on_c, 5, 66, 48
7, 358958, Note_off_c, 5, 66, 64
7, 359033, Note_on_c, 5, 70, 57
7, 359107, Note_off_c, 5, 70, 64
7, 359275, Note_on_c, 5, 73, 57
7, 359328, Note_off_c, 5, 73, 64
7, 359521, Note_on_c, 5, 65, 121
7, 359618, Note_off_c, 5, 65, 64
7, 359635, Note_on_c, 5, 68, 92
7, 359716, Note_off_c, 5, 68, 64
7, 359752, Note_on_c, 5, 61, 96
7, 359836, Note_off_c, 5, 61, 64
7, 359868, Note_on_c, 5, 68, 94
7, 359947, Note_off_c, 5, 68, 64
7, 359989, Note_on_c, 5, 65, 121
7, 360072, Note_off_c, 5, 65, 64
7, 360102, Note_on_c, 5, 68, 102
7, 360174, Note_off_c, 5, 68, 64
7, 360231, Note_on_c, 5, 66, 120
7, 360337, Note_off_c, 5, 66, 64
7, 360349, Note_on_c, 5, 70, 89
7, 360434, Note_off_c, 5, 70, 64
7, 360467, Note_on_c, 5, 61, 101
7, 360549, Note_off_c, 5, 61, 64
7, 360586, Note_on_c, 5, 70, 102
7, 360675, Note_off_c, 5, 70, 64
7, 360708, Note_on_c, 5, 66, 120
7, 360781, Note_off_c, 5, 66, 64
7, 360822, Note_on_c, 5, 70, 106
7, 360897, Note_off_c, 5, 70, 64
7, 360951, Note_on_c, 5, 68, 121
7, 361052, Note_off_c, 5, 68, 64
7, 361066, Note_on_c, 5, 71, 96
7, 361165, Note_off_c, 5, 71, 64
7, 361183, Note_on_c, 5, 61, 101
7, 361280, Note_off_c, 5, 61, 64
7, 361303, Note_on_c, 5, 71, 106
7, 361396, Note_off_c, 5, 71, 64
7, 361427, Note_on_c, 5, 68, 115
7, 361501, Note_off_c, 5, 68, 64
7, 361542, Note_on_c, 5, 71, 101
7, 361623, Note_off_c, 5, 71, 64
7, 361671, Note_on_c, 5, 70, 120
7, 361781, Note_off_c, 5, 70, 64
7, 361789, Note_on_c, 5, 73, 93
7, 361887, Note_off_c, 5, 73, 64
7, 361909, Note_on_c, 5, 61, 94
7, 362007, Note_off_c, 5, 61, 64
7, 362025, Note_on_c, 5, 73, 93
7, 362135, Note_off_c, 5, 73, 64
7, 362146, Note_on_c, 5, 70, 112
7, 362225, Note_off_c, 5, 70, 64
7, 362263, Note_on_c, 5, 73, 98
7, 362351, Note_off_c, 5, 73, 64
7, 362390, Note_on_c, 5, 71, 101
7, 362494, Note_off_c, 5, 71, 64
7, 362503, Note_on_c, 5, 65, 76
7, 362572, Note_off_c, 5, 65, 64
7, 362631, Note_on_c, 5, 71, 102
7, 362728, Note_off_c, 5, 71, 64
7, 362739, Note_on_c, 5, 65, 74
7, 362818, Note_off_c, 5, 65, 64
7, 362867, Note_on_c, 5, 71, 92
7, 362974, Note_off_c, 5, 71, 64
7, 362977, Note_on_c, 5, 65, 76
7, 363067, Note_off_c, 5, 65, 64
7, 363112, Note_on_c, 5, 70, 94
7, 363218, Note_off_c, 5, 70, 64
7, 363223, Note_on_c, 5, 66, 81
7, 363299, Note_off_c, 5, 66, 64
7, 363354, Note_on_c, 5, 70, 102
7, 363455, Note_off_c, 5, 70, 64
7, 363462, Note_on_c, 5, 66, 87
7, 363543, Note_off_c, 5, 66, 64
7, 363590, Note_on_c, 5, 70, 89
7, 363681, Note_off_c, 5, 70, 64
7, 363696, Note_on_c, 5, 66, 72
7, 363779, Note_off_c, 5, 66, 64
7, 363840, Note_on_c, 5, 65, 117
7, 363929, Note_off_c, 5, 65, 64
7, 363946, Note_on_c, 5, 68, 80
7, 364031, Note_off_c, 5, 68, 64
7, 364069, Note_on_c, 5, 61, 112
7, 364150, Note_off_c, 5, 61, 64
7, 364179, Note_on_c, 5, 68, 96
7, 364263, Note_off_c, 5, 68, 64
7, 364308, Note_on_c, 5, 65, 117
7, 364402, Note_off_c, 5, 65, 64
7, 364416, Note_on_c, 5, 68, 98
7, 364513, Note_off_c, 5, 68, 64
7, 364546, Note_on_c, 5, 65, 121
7, 364652, Note_off_c, 5, 65, 64
7, 364658, Note_on_c, 5, 68, 102
7, 364748, Note_off_c, 5, 68, 64
7, 364783, Note_on_c, 5, 61, 98
7, 364881, Note_off_c, 5, 61, 64
7, 364899, Note_on_c, 5, 68, 106
7, 365005, Note_off_c, 5, 68, 64
7, 365030, Note_on_c, 5, 65, 117
7, 365095, Note_off_c, 5, 65, 64
7, 365132, Note_on_c, 5, 68, 84
7, 365233, Note_off_c, 5, 68, 64
7, 365256, Note_on_c, 5, 66, 81
7, 365412, Note_off_c, 5, 66, 64
7, 378240, End_track
8, 0, Start_track
8, 0, Instrument_name_t, "SC88-A"
8, 0, Title_t, "Viola.3"
8, 1440, Control_c, 6, 101, 0
8, 1450, Control_c, 6, 100, 0
8, 1450, Control_c, 6, 6, 0
8, 1470, Control_c, 6, 0, 0
8, 1480, Control_c, 6, 32, 1
8, 1490, Program_c, 6, 41
8, 1500, Control_c, 6, 10, 79
8, 1510, Control_c, 6, 11, 100
8, 1520, Control_c, 6, 7, 120
8, 1530, Control_c, 6, 93, 0
8, 1540, Control_c, 6, 91, 0
8, 1550, Pitch_bend_c, 6, 8192
8, 1560, Control_c, 6, 1, 0
8, 1570, Control_c, 6, 64, 0
8, 1580, Control_c, 6, 91, 64
8, 1590, Control_c, 6, 99, 1
8, 1600, Control_c, 6, 98, 32
8, 1610, Control_c, 6, 6, 64
8, 1620, Control_c, 6, 98, 33
8, 1630, Control_c, 6, 6, 60
8, 1640, Control_c, 6, 98, 99
8, 1650, Control_c, 6, 6, 64
8, 1660, Control_c, 6, 98, 100
8, 1670, Control_c, 6, 6, 64
8, 1680, Control_c, 6, 98, 102
8, 1690, Control_c, 6, 6, 64
8, 89052, Control_c, 6, 11, 66
8, 89385, Control_c, 6, 11, 68
8, 89390, Note_on_c, 6, 51, 56
8, 89441, Control_c, 6, 11, 70
8, 89496, Control_c, 6, 11, 72
8, 89552, Control_c, 6, 11, 74
8, 89607, Control_c, 6, 11, 77
8, 89663, Control_c, 6, 11, 79
8, 89718, Control_c, 6, 11, 81
8, 89774, Control_c, 6, 11, 83
8, 89830, Control_c, 6, 11, 85
8, 89885, Control_c, 6, 11, 88
8, 89941, Control_c, 6, 11, 90
8, 89996, Control_c, 6, 11, 92
8, 90052, Control_c, 6, 11, 95
8, 90107, Control_c, 6, 11, 97
8, 90163, Control_c, 6, 11, 100
8, 90218, Control_c, 6, 11, 102
8, 90274, Control_c, 6, 11, 104
8, 90329, Control_c, 6, 11, 106
8, 90385, Control_c, 6, 11, 108
8, 90440, Control_c, 6, 11, 110
8, 90496, Control_c, 6, 11, 112
8, 90551, Control_c, 6, 11, 114
8, 90607, Control_c, 6, 11, 116
8, 90663, Control_c, 6, 11, 118
8, 90718, Control_c, 6, 11, 120
8, 90774, Control_c, 6, 11, 117
8, 90829, Control_c, 6, 11, 114
8, 90885, Control_c, 6, 11, 110
8, 90940, Control_c, 6, 11, 107
8, 90996, Control_c, 6, 11, 103
8, 91051, Control_c, 6, 11, 100
8, 91107, Control_c, 6, 11, 97
8, 91162, Control_c, 6, 11, 94
8, 91218, Control_c, 6, 11, 90
8, 91273, Control_c, 6, 11, 87
8, 91329, Control_c, 6, 11, 84
8, 91385, Control_c, 6, 11, 80
8, 91440, Control_c, 6, 11, 77
8, 91496, Control_c, 6, 11, 74
8, 92606, Note_on_c, 6, 58, 56
8, 92606, Control_c, 6, 11, 67
8, 92622, Note_off_c, 6, 51, 64
8, 92662, Control_c, 6, 11, 70
8, 92717, Control_c, 6, 11, 73
8, 92773, Control_c, 6, 11, 76
8, 92828, Control_c, 6, 11, 79
8, 92884, Control_c, 6, 11, 82
8, 92939, Control_c, 6, 11, 84
8, 92995, Control_c, 6, 11, 87
8, 93051, Control_c, 6, 11, 90
8, 93106, Control_c, 6, 11, 93
8, 93162, Control_c, 6, 11, 96
8, 93217, Control_c, 6, 11, 99
8, 93273, Control_c, 6, 11, 101
8, 93328, Control_c, 6, 11, 104
8, 93384, Control_c, 6, 11, 107
8, 93439, Control_c, 6, 11, 108
8, 93828, Control_c, 6, 11, 103
8, 93884, Control_c, 6, 11, 99
8, 93939, Control_c, 6, 11, 95
8, 93995, Control_c, 6, 11, 91
8, 94050, Control_c, 6, 11, 87
8, 94080, Control_c, 6, 98, 99
8, 94090, Control_c, 6, 6, 64
8, 94100, Control_c, 6, 98, 100
8, 94106, Control_c, 6, 11, 83
8, 94110, Control_c, 6, 6, 64
8, 94120, Control_c, 6, 98, 102
8, 94130, Control_c, 6, 6, 64
8, 94161, Control_c, 6, 11, 79
8, 94217, Control_c, 6, 11, 75
8, 94272, Control_c, 6, 11, 71
8, 94328, Control_c, 6, 11, 68
8, 94383, Control_c, 6, 11, 64
8, 94439, Control_c, 6, 11, 60
8, 95383, Control_c, 6, 11, 50
8, 95438, Control_c, 6, 11, 42
8, 95486, Note_off_c, 6, 58, 64
8, 95508, Control_c, 6, 11, 100
8, 110640, Note_on_c, 6, 68, 102
8, 110726, Note_off_c, 6, 68, 64
8, 110882, Note_on_c, 6, 61, 106
8, 110974, Note_off_c, 6, 61, 64
8, 111124, Note_on_c, 6, 60, 112
8, 111228, Note_off_c, 6, 60, 64
8, 111240, Note_on_c, 6, 61, 76
8, 111354, Note_on_c, 6, 60, 76
8, 111360, Note_off_c, 6, 61, 64
8, 111456, Note_off_c, 6, 60, 64
8, 111476, Note_on_c, 6, 58, 94
8, 111567, Note_off_c, 6, 58, 64
8, 111594, Note_on_c, 6, 56, 101
8, 111681, Note_off_c, 6, 56, 64
8, 111710, Note_on_c, 6, 54, 78
8, 111811, Note_off_c, 6, 54, 64
8, 111840, Note_on_c, 6, 56, 93
8, 111941, Note_off_c, 6, 56, 64
8, 112084, Note_on_c, 6, 68, 121
8, 112171, Note_off_c, 6, 68, 64
8, 112196, Note_on_c, 6, 66, 88
8, 112255, Note_off_c, 6, 66, 64
8, 112310, Note_on_c, 6, 65, 101
8, 112367, Note_off_c, 6, 65, 64
8, 112424, Note_on_c, 6, 63, 86
8, 112486, Note_off_c, 6, 63, 64
8, 112551, Note_on_c, 6, 61, 86
8, 112735, Note_off_c, 6, 61, 64
8, 112797, Note_on_c, 6, 66, 66
8, 112859, Note_off_c, 6, 66, 64
8, 113037, Note_on_c, 6, 61, 66
8, 113114, Note_off_c, 6, 61, 64
8, 113280, Note_on_c, 6, 63, 110
8, 113386, Note_off_c, 6, 63, 64
8, 113401, Note_on_c, 6, 68, 105
8, 113468, Note_off_c, 6, 68, 64
8, 113517, Note_on_c, 6, 66, 80
8, 113587, Note_off_c, 6, 66, 64
8, 113634, Note_on_c, 6, 65, 93
8, 113693, Note_off_c, 6, 65, 64
8, 113750, Note_on_c, 6, 63, 105
8, 113806, Note_off_c, 6, 63, 64
8, 113868, Note_on_c, 6, 61, 82
8, 113923, Note_off_c, 6, 61, 64
8, 113992, Note_on_c, 6, 60, 82
8, 114150, Note_off_c, 6, 60, 64
8, 114235, Note_on_c, 6, 65, 72
8, 114305, Note_off_c, 6, 65, 64
8, 114473, Note_on_c, 6, 60, 72
8, 114537, Note_off_c, 6, 60, 64
8, 114717, Note_on_c, 6, 61, 113
8, 114792, Note_off_c, 6, 61, 64
8, 114839, Note_on_c, 6, 66, 109
8, 114905, Note_off_c, 6, 66, 64
8, 114957, Note_on_c, 6, 65, 84
8, 115032, Note_off_c, 6, 65, 64
8, 115074, Note_on_c, 6, 63, 103
8, 115145, Note_off_c, 6, 63, 64
8, 115193, Note_on_c, 6, 61, 100
8, 115260, Note_off_c, 6, 61, 64
8, 115313, Note_on_c, 6, 60, 88
8, 115372, Note_off_c, 6, 60, 64
8, 115437, Note_on_c, 6, 58, 88
8, 115593, Note_off_c, 6, 58, 64
8, 115676, Note_on_c, 6, 63, 67
8, 115753, Note_off_c, 6, 63, 64
8, 115917, Note_on_c, 6, 67, 67
8, 115994, Note_off_c, 6, 67, 64
8, 116160, Note_on_c, 6, 68, 43
8, 116399, Note_off_c, 6, 68, 64
8, 116641, Note_on_c, 6, 63, 48
8, 116728, Note_off_c, 6, 63, 64
8, 116873, Note_on_c, 6, 68, 48
8, 117094, Note_off_c, 6, 68, 64
8, 117356, Note_on_c, 6, 65, 46
8, 117455, Note_off_c, 6, 65, 64
8, 117603, Note_on_c, 6, 68, 60
8, 117830, Note_off_c, 6, 68, 64
8, 118076, Note_on_c, 6, 63, 56
8, 118174, Note_off_c, 6, 63, 64
8, 118320, Note_on_c, 6, 68, 60
8, 118556, Note_off_c, 6, 68, 64
8, 118786, Note_on_c, 6, 61, 60
8, 118898, Note_off_c, 6, 61, 64
8, 119040, Note_on_c, 6, 68, 71
8, 119218, Note_off_c, 6, 68, 64
8, 119283, Note_on_c, 6, 63, 60
8, 119362, Note_off_c, 6, 63, 64
8, 119515, Note_on_c, 6, 60, 61
8, 119606, Note_off_c, 6, 60, 64
8, 119755, Note_on_c, 6, 68, 75
8, 119935, Note_off_c, 6, 68, 64
8, 119993, Note_on_c, 6, 65, 71
8, 120084, Note_off_c, 6, 65, 64
8, 120238, Note_on_c, 6, 61, 72
8, 120323, Note_off_c, 6, 61, 64
8, 145200, Note_on_c, 6, 68, 102
8, 145286, Note_off_c, 6, 68, 64
8, 145442, Note_on_c, 6, 61, 106
8, 145534, Note_off_c, 6, 61, 64
8, 145684, Note_on_c, 6, 60, 112
8, 145788, Note_off_c, 6, 60, 64
8, 145800, Note_on_c, 6, 61, 76
8, 145914, Note_on_c, 6, 60, 76
8, 145920, Note_off_c, 6, 61, 64
8, 146016, Note_off_c, 6, 60, 64
8, 146036, Note_on_c, 6, 58, 94
8, 146127, Note_off_c, 6, 58, 64
8, 146154, Note_on_c, 6, 56, 101
8, 146241, Note_off_c, 6, 56, 64
8, 146270, Note_on_c, 6, 54, 78
8, 146371, Note_off_c, 6, 54, 64
8, 146400, Note_on_c, 6, 56, 93
8, 146501, Note_off_c, 6, 56, 64
8, 146644, Note_on_c, 6, 68, 121
8, 146731, Note_off_c, 6, 68, 64
8, 146756, Note_on_c, 6, 66, 88
8, 146815, Note_off_c, 6, 66, 64
8, 146870, Note_on_c, 6, 65, 101
8, 146927, Note_off_c, 6, 65, 64
8, 146984, Note_on_c, 6, 63, 86
8, 147046, Note_off_c, 6, 63, 64
8, 147111, Note_on_c, 6, 61, 86
8, 147295, Note_off_c, 6, 61, 64
8, 147357, Note_on_c, 6, 66, 66
8, 147419, Note_off_c, 6, 66, 64
8, 147597, Note_on_c, 6, 61, 66
8, 147674, Note_off_c, 6, 61, 64
8, 147840, Note_on_c, 6, 63, 110
8, 147946, Note_off_c, 6, 63, 64
8, 147961, Note_on_c, 6, 68, 105
8, 148028, Note_off_c, 6, 68, 64
8, 148077, Note_on_c, 6, 66, 80
8, 148147, Note_off_c, 6, 66, 64
8, 148194, Note_on_c, 6, 65, 93
8, 148253, Note_off_c, 6, 65, 64
8, 148310, Note_on_c, 6, 63, 105
8, 148366, Note_off_c, 6, 63, 64
8, 148428, Note_on_c, 6, 61, 82
8, 148483, Note_off_c, 6, 61, 64
8, 148552, Note_on_c, 6, 60, 82
8, 148710, Note_off_c, 6, 60, 64
8, 148795, Note_on_c, 6, 65, 72
8, 148865, Note_off_c, 6, 65, 64
8, 149033, Note_on_c, 6, 60, 72
8, 149097, Note_off_c, 6, 60, 64
8, 149277, Note_on_c, 6, 61, 113
8, 149352, Note_off_c, 6, 61, 64
8, 149399, Note_on_c, 6, 66, 109
8, 149465, Note_off_c, 6, 66, 64
8, 149517, Note_on_c, 6, 65, 84
8, 149592, Note_off_c, 6, 65, 64
8, 149634, Note_on_c, 6, 63, 103
8, 149705, Note_off_c, 6, 63, 64
8, 149753, Note_on_c, 6, 61, 100
8, 149820, Note_off_c, 6, 61, 64
8, 149873, Note_on_c, 6, 60, 88
8, 149932, Note_off_c, 6, 60, 64
8, 149997, Note_on_c, 6, 58, 88
8, 150153, Note_off_c, 6, 58, 64
8, 150236, Note_on_c, 6, 63, 67
8, 150313, Note_off_c, 6, 63, 64
8, 150477, Note_on_c, 6, 67, 67
8, 150554, Note_off_c, 6, 67, 64
8, 150720, Note_on_c, 6, 68, 43
8, 150959, Note_off_c, 6, 68, 64
8, 151201, Note_on_c, 6, 63, 48
8, 151288, Note_off_c, 6, 63, 64
8, 151433, Note_on_c, 6, 68, 48
8, 151654, Note_off_c, 6, 68, 64
8, 151916, Note_on_c, 6, 65, 46
8, 152015, Note_off_c, 6, 65, 64
8, 152163, Note_on_c, 6, 68, 60
8, 152390, Note_off_c, 6, 68, 64
8, 152636, Note_on_c, 6, 63, 56
8, 152734, Note_off_c, 6, 63, 64
8, 152880, Note_on_c, 6, 68, 60
8, 153116, Note_off_c, 6, 68, 64
8, 153346, Note_on_c, 6, 61, 60
8, 153458, Note_off_c, 6, 61, 64
8, 153600, Note_on_c, 6, 68, 71
8, 153778, Note_off_c, 6, 68, 64
8, 153843, Note_on_c, 6, 63, 60
8, 153922, Note_off_c, 6, 63, 64
8, 154075, Note_on_c, 6, 60, 61
8, 154166, Note_off_c, 6, 60, 64
8, 154315, Note_on_c, 6, 68, 75
8, 154495, Note_off_c, 6, 68, 64
8, 154553, Note_on_c, 6, 65, 71
8, 154644, Note_off_c, 6, 65, 64
8, 154798, Note_on_c, 6, 61, 72
8, 154883, Note_off_c, 6, 61, 64
8, 191280, Note_on_c, 6, 65, 107
8, 191363, Note_off_c, 6, 65, 64
8, 191517, Note_on_c, 6, 70, 112
8, 191596, Note_off_c, 6, 70, 64
8, 191760, Note_on_c, 6, 69, 117
8, 191867, Note_off_c, 6, 69, 64
8, 191876, Note_on_c, 6, 70, 81
8, 191983, Note_off_c, 6, 70, 64
8, 191997, Note_on_c, 6, 69, 88
8, 192081, Note_off_c, 6, 69, 64
8, 192114, Note_on_c, 6, 67, 94
8, 192202, Note_off_c, 6, 67, 64
8, 192231, Note_on_c, 6, 65, 105
8, 192311, Note_off_c, 6, 65, 64
8, 192351, Note_on_c, 6, 63, 74
8, 192441, Note_off_c, 6, 63, 64
8, 192480, Note_on_c, 6, 65, 103
8, 192601, Note_on_c, 6, 66, 81
8, 192602, Note_off_c, 6, 65, 64
8, 192715, Note_on_c, 6, 65, 69
8, 192719, Note_off_c, 6, 66, 64
8, 192812, Note_off_c, 6, 65, 64
8, 192831, Note_on_c, 6, 63, 81
8, 192916, Note_off_c, 6, 63, 64
8, 192949, Note_on_c, 6, 61, 99
8, 193050, Note_off_c, 6, 61, 64
8, 193069, Note_on_c, 6, 60, 81
8, 193152, Note_off_c, 6, 60, 64
8, 193195, Note_on_c, 6, 58, 88
8, 193336, Note_off_c, 6, 58, 64
8, 193434, Note_on_c, 6, 63, 69
8, 193503, Note_off_c, 6, 63, 64
8, 193676, Note_on_c, 6, 58, 69
8, 193757, Note_off_c, 6, 58, 64
8, 193924, Note_on_c, 6, 63, 93
8, 194019, Note_off_c, 6, 63, 64
8, 194035, Note_on_c, 6, 65, 74
8, 194153, Note_off_c, 6, 65, 64
8, 194157, Note_on_c, 6, 63, 81
8, 194243, Note_off_c, 6, 63, 64
8, 194271, Note_on_c, 6, 61, 90
8, 194372, Note_off_c, 6, 61, 64
8, 194398, Note_on_c, 6, 60, 91
8, 194469, Note_off_c, 6, 60, 64
8, 194513, Note_on_c, 6, 58, 74
8, 194606, Note_off_c, 6, 58, 64
8, 194635, Note_on_c, 6, 56, 74
8, 194772, Note_off_c, 6, 56, 64
8, 194873, Note_on_c, 6, 61, 67
8, 194945, Note_off_c, 6, 61, 64
8, 195115, Note_on_c, 6, 56, 67
8, 195197, Note_off_c, 6, 56, 64
8, 195361, Note_on_c, 6, 58, 105
8, 195436, Note_off_c, 6, 58, 64
8, 195475, Note_on_c, 6, 63, 81
8, 195571, Note_off_c, 6, 63, 64
8, 195594, Note_on_c, 6, 61, 81
8, 195686, Note_off_c, 6, 61, 64
8, 195713, Note_on_c, 6, 60, 97
8, 195795, Note_off_c, 6, 60, 64
8, 195829, Note_on_c, 6, 58, 97
8, 195941, Note_off_c, 6, 58, 64
8, 195945, Note_on_c, 6, 56, 74
8, 196026, Note_off_c, 6, 56, 64
8, 196071, Note_on_c, 6, 54, 74
8, 196251, Note_off_c, 6, 54, 64
8, 196312, Note_on_c, 6, 66, 63
8, 196395, Note_off_c, 6, 66, 64
8, 196553, Note_on_c, 6, 60, 63
8, 196640, Note_off_c, 6, 60, 64
8, 196800, Note_on_c, 6, 65, 41
8, 196989, Note_off_c, 6, 65, 64
8, 197278, Note_on_c, 6, 60, 40
8, 197369, Note_off_c, 6, 60, 64
8, 197519, Note_on_c, 6, 65, 46
8, 197735, Note_off_c, 6, 65, 64
8, 197992, Note_on_c, 6, 61, 56
8, 198083, Note_off_c, 6, 61, 64
8, 198239, Note_on_c, 6, 65, 51
8, 198454, Note_off_c, 6, 65, 64
8, 198722, Note_on_c, 6, 60, 50
8, 198810, Note_off_c, 6, 60, 64
8, 198959, Note_on_c, 6, 65, 56
8, 199181, Note_off_c, 6, 65, 64
8, 199435, Note_on_c, 6, 58, 68
8, 199534, Note_off_c, 6, 58, 64
8, 199679, Note_on_c, 6, 65, 70
8, 199865, Note_off_c, 6, 65, 64
8, 199917, Note_on_c, 6, 60, 53
8, 199998, Note_off_c, 6, 60, 64
8, 200156, Note_on_c, 6, 57, 55
8, 200246, Note_off_c, 6, 57, 64
8, 200393, Note_on_c, 6, 65, 78
8, 200592, Note_off_c, 6, 65, 64
8, 200636, Note_on_c, 6, 61, 60
8, 200726, Note_off_c, 6, 61, 64
8, 200873, Note_on_c, 6, 58, 61
8, 200952, Note_off_c, 6, 58, 64
8, 211200, Note_on_c, 6, 58, 67
8, 211364, Note_off_c, 6, 58, 64
8, 211442, Note_on_c, 6, 58, 61
8, 211571, Note_off_c, 6, 58, 64
8, 211679, Note_on_c, 6, 58, 61
8, 211797, Note_off_c, 6, 58, 64
8, 211914, Note_on_c, 6, 62, 54
8, 212058, Note_off_c, 6, 62, 64
8, 212151, Note_on_c, 6, 62, 49
8, 212277, Note_off_c, 6, 62, 64
8, 212389, Note_on_c, 6, 62, 49
8, 212496, Note_off_c, 6, 62, 64
8, 212629, Note_on_c, 6, 62, 67
8, 212808, Note_off_c, 6, 62, 64
8, 212876, Note_on_c, 6, 58, 61
8, 212991, Note_off_c, 6, 58, 64
8, 213114, Note_on_c, 6, 58, 61
8, 213226, Note_off_c, 6, 58, 64
8, 213359, Note_on_c, 6, 58, 49
8, 213591, Note_off_c, 6, 58, 64
8, 219840, Note_on_c, 6, 54, 74
8, 219977, Note_off_c, 6, 54, 64
8, 220078, Note_on_c, 6, 58, 61
8, 220176, Note_off_c, 6, 58, 64
8, 220314, Note_on_c, 6, 61, 61
8, 220389, Note_off_c, 6, 61, 64
8, 220553, Note_on_c, 6, 54, 74
8, 220697, Note_off_c, 6, 54, 64
8, 220797, Note_on_c, 6, 59, 59
8, 220883, Note_off_c, 6, 59, 64
8, 221033, Note_on_c, 6, 63, 59
8, 221124, Note_off_c, 6, 63, 64
8, 221273, Note_on_c, 6, 54, 74
8, 221415, Note_off_c, 6, 54, 64
8, 221515, Note_on_c, 6, 61, 63
8, 221612, Note_off_c, 6, 61, 64
8, 221751, Note_on_c, 6, 64, 63
8, 221858, Note_off_c, 6, 64, 64
8, 221995, Note_on_c, 6, 54, 85
8, 222152, Note_off_c, 6, 54, 64
8, 222235, Note_on_c, 6, 63, 70
8, 222323, Note_off_c, 6, 63, 64
8, 222473, Note_on_c, 6, 66, 70
8, 222558, Note_off_c, 6, 66, 64
8, 222715, Note_on_c, 6, 58, 109
8, 222804, Note_off_c, 6, 58, 64
8, 222827, Note_on_c, 6, 61, 81
8, 222914, Note_off_c, 6, 61, 64
8, 222944, Note_on_c, 6, 54, 82
8, 223032, Note_off_c, 6, 54, 64
8, 223068, Note_on_c, 6, 61, 94
8, 223150, Note_off_c, 6, 61, 64
8, 223191, Note_on_c, 6, 58, 106
8, 223265, Note_off_c, 6, 58, 64
8, 223307, Note_on_c, 6, 61, 93
8, 223379, Note_off_c, 6, 61, 64
8, 223433, Note_on_c, 6, 59, 115
8, 223530, Note_off_c, 6, 59, 64
8, 223551, Note_on_c, 6, 63, 85
8, 223642, Note_off_c, 6, 63, 64
8, 223671, Note_on_c, 6, 54, 89
8, 223747, Note_off_c, 6, 54, 64
8, 223791, Note_on_c, 6, 63, 98
8, 223865, Note_off_c, 6, 63, 64
8, 223910, Note_on_c, 6, 59, 106
8, 223979, Note_off_c, 6, 59, 64
8, 224024, Note_on_c, 6, 63, 98
8, 224094, Note_off_c, 6, 63, 64
8, 224155, Note_on_c, 6, 61, 121
8, 224253, Note_off_c, 6, 61, 64
8, 224267, Note_on_c, 6, 64, 96
8, 224357, Note_off_c, 6, 64, 64
8, 224388, Note_on_c, 6, 54, 94
8, 224467, Note_off_c, 6, 54, 64
8, 224508, Note_on_c, 6, 64, 106
8, 224588, Note_off_c, 6, 64, 64
8, 224630, Note_on_c, 6, 61, 112
8, 224701, Note_off_c, 6, 61, 64
8, 224746, Note_on_c, 6, 64, 101
8, 224813, Note_off_c, 6, 64, 64
8, 224873, Note_on_c, 6, 63, 121
8, 224970, Note_off_c, 6, 63, 64
8, 224986, Note_on_c, 6, 66, 92
8, 225081, Note_off_c, 6, 66, 64
8, 225106, Note_on_c, 6, 54, 92
8, 225175, Note_off_c, 6, 54, 64
8, 225225, Note_on_c, 6, 66, 101
8, 225300, Note_off_c, 6, 66, 64
8, 225347, Note_on_c, 6, 63, 109
8, 225416, Note_off_c, 6, 63, 64
8, 225465, Note_on_c, 6, 66, 98
8, 225544, Note_off_c, 6, 66, 64
8, 225600, Note_on_c, 6, 53, 83
8, 225754, Note_off_c, 6, 53, 64
8, 226072, Note_on_c, 6, 59, 71
8, 226145, Note_off_c, 6, 59, 64
8, 226318, Note_on_c, 6, 56, 97
8, 226442, Note_off_c, 6, 56, 64
8, 226553, Note_on_c, 6, 59, 79
8, 226617, Note_off_c, 6, 59, 64
8, 226795, Note_on_c, 6, 62, 94
8, 226868, Note_off_c, 6, 62, 64
8, 227040, Note_on_c, 6, 61, 120
8, 227137, Note_off_c, 6, 61, 64
8, 227154, Note_on_c, 6, 66, 84
8, 227229, Note_off_c, 6, 66, 64
8, 227269, Note_on_c, 6, 58, 101
8, 227340, Note_off_c, 6, 58, 64
8, 227388, Note_on_c, 6, 66, 93
8, 227452, Note_off_c, 6, 66, 64
8, 227516, Note_on_c, 6, 61, 109
8, 227633, Note_on_c, 6, 59, 81
8, 227640, Note_off_c, 6, 61, 64
8, 227754, Note_on_c, 6, 61, 81
8, 227771, Note_off_c, 6, 59, 64
8, 227853, Note_off_c, 6, 61, 64
8, 227873, Note_on_c, 6, 66, 93
8, 227946, Note_off_c, 6, 66, 64
8, 227991, Note_on_c, 6, 58, 118
8, 228059, Note_off_c, 6, 58, 64
8, 228110, Note_on_c, 6, 66, 92
8, 228170, Note_off_c, 6, 66, 64
8, 228231, Note_on_c, 6, 61, 109
8, 228287, Note_off_c, 6, 61, 64
8, 228350, Note_on_c, 6, 66, 87
8, 228412, Note_off_c, 6, 66, 64
8, 235680, Note_on_c, 6, 54, 69
8, 235782, Note_off_c, 6, 54, 64
8, 235917, Note_on_c, 6, 54, 57
8, 236041, Note_off_c, 6, 54, 64
8, 236157, Note_on_c, 6, 54, 62
8, 236261, Note_off_c, 6, 54, 64
8, 236393, Note_on_c, 6, 54, 74
8, 236502, Note_off_c, 6, 54, 64
8, 236635, Note_on_c, 6, 54, 57
8, 236729, Note_off_c, 6, 54, 64
8, 236873, Note_on_c, 6, 54, 57
8, 236977, Note_off_c, 6, 54, 64
8, 237113, Note_on_c, 6, 54, 73
8, 237239, Note_off_c, 6, 54, 64
8, 237354, Note_on_c, 6, 54, 62
8, 237459, Note_off_c, 6, 54, 64
8, 237592, Note_on_c, 6, 54, 62
8, 237695, Note_off_c, 6, 54, 64
8, 237835, Note_on_c, 6, 54, 77
8, 237957, Note_off_c, 6, 54, 64
8, 238075, Note_on_c, 6, 54, 71
8, 238183, Note_off_c, 6, 54, 64
8, 238317, Note_on_c, 6, 54, 79
8, 238417, Note_off_c, 6, 54, 64
8, 238555, Note_on_c, 6, 54, 92
8, 238661, Note_off_c, 6, 54, 64
8, 238798, Note_on_c, 6, 66, 110
8, 238883, Note_off_c, 6, 66, 64
8, 239032, Note_on_c, 6, 71, 110
8, 239101, Note_off_c, 6, 71, 64
8, 239276, Note_on_c, 6, 70, 118
8, 239393, Note_off_c, 6, 70, 64
8, 239396, Note_on_c, 6, 71, 106
8, 239494, Note_off_c, 6, 71, 64
8, 239514, Note_on_c, 6, 70, 98
8, 239612, Note_off_c, 6, 70, 64
8, 239630, Note_on_c, 6, 68, 102
8, 239721, Note_off_c, 6, 68, 64
8, 239750, Note_on_c, 6, 66, 101
8, 239845, Note_off_c, 6, 66, 64
8, 239870, Note_on_c, 6, 64, 118
8, 239939, Note_off_c, 6, 64, 64
8, 239999, Note_on_c, 6, 66, 115
8, 240092, Note_off_c, 6, 66, 64
8, 240111, Note_on_c, 6, 68, 81
8, 240229, Note_on_c, 6, 66, 89
8, 240233, Note_off_c, 6, 68, 64
8, 240316, Note_off_c, 6, 66, 64
8, 240350, Note_on_c, 6, 64, 102
8, 240444, Note_off_c, 6, 64, 64
8, 240470, Note_on_c, 6, 63, 96
8, 240568, Note_off_c, 6, 63, 64
8, 240589, Note_on_c, 6, 61, 112
8, 240676, Note_off_c, 6, 61, 64
8, 240714, Note_on_c, 6, 59, 109
8, 240885, Note_off_c, 6, 59, 64
8, 240955, Note_on_c, 6, 68, 84
8, 241046, Note_off_c, 6, 68, 64
8, 241193, Note_on_c, 6, 59, 69
8, 241291, Note_off_c, 6, 59, 64
8, 241436, Note_on_c, 6, 61, 111
8, 241535, Note_off_c, 6, 61, 64
8, 241549, Note_on_c, 6, 66, 74
8, 241666, Note_on_c, 6, 65, 85
8, 241674, Note_off_c, 6, 66, 64
8, 241774, Note_off_c, 6, 65, 64
8, 241790, Note_on_c, 6, 63, 84
8, 241896, Note_off_c, 6, 63, 64
8, 241910, Note_on_c, 6, 61, 90
8, 242006, Note_off_c, 6, 61, 64
8, 242030, Note_on_c, 6, 59, 105
8, 242108, Note_off_c, 6, 59, 64
8, 242153, Note_on_c, 6, 58, 105
8, 242320, Note_off_c, 6, 58, 64
8, 242396, Note_on_c, 6, 63, 59
8, 242488, Note_off_c, 6, 63, 64
8, 242634, Note_on_c, 6, 58, 72
8, 242739, Note_off_c, 6, 58, 64
8, 242874, Note_on_c, 6, 59, 99
8, 242967, Note_off_c, 6, 59, 64
8, 242995, Note_on_c, 6, 64, 97
8, 243097, Note_off_c, 6, 64, 64
8, 243111, Note_on_c, 6, 63, 84
8, 243219, Note_off_c, 6, 63, 64
8, 243233, Note_on_c, 6, 61, 97
8, 243324, Note_off_c, 6, 61, 64
8, 243349, Note_on_c, 6, 59, 86
8, 243443, Note_off_c, 6, 59, 64
8, 243468, Note_on_c, 6, 58, 94
8, 243560, Note_off_c, 6, 58, 64
8, 243596, Note_on_c, 6, 56, 74
8, 243771, Note_off_c, 6, 56, 64
8, 243844, Note_on_c, 6, 61, 63
8, 243926, Note_off_c, 6, 61, 64
8, 244078, Note_on_c, 6, 65, 72
8, 244144, Note_off_c, 6, 65, 64
8, 254400, Note_on_c, 6, 65, 52
8, 254611, Note_off_c, 6, 65, 64
8, 254877, Note_on_c, 6, 68, 63
8, 254934, Note_off_c, 6, 68, 64
8, 255119, Note_on_c, 6, 66, 63
8, 255345, Note_off_c, 6, 66, 64
8, 255593, Note_on_c, 6, 70, 63
8, 255648, Note_off_c, 6, 70, 64
8, 255837, Note_on_c, 6, 68, 63
8, 256112, Note_off_c, 6, 68, 64
8, 256311, Note_on_c, 6, 71, 63
8, 256402, Note_off_c, 6, 71, 64
8, 256560, Note_on_c, 6, 70, 82
8, 256825, Note_off_c, 6, 70, 64
8, 257025, Note_on_c, 6, 73, 66
8, 257119, Note_off_c, 6, 73, 64
8, 257280, Note_on_c, 6, 65, 112
8, 257376, Note_off_c, 6, 65, 64
8, 257395, Note_on_c, 6, 68, 82
8, 257467, Note_off_c, 6, 68, 64
8, 257512, Note_on_c, 6, 61, 99
8, 257605, Note_off_c, 6, 61, 64
8, 257626, Note_on_c, 6, 68, 85
8, 257715, Note_off_c, 6, 68, 64
8, 257747, Note_on_c, 6, 65, 117
8, 257837, Note_off_c, 6, 65, 64
8, 257862, Note_on_c, 6, 68, 97
8, 257941, Note_off_c, 6, 68, 64
8, 257991, Note_on_c, 6, 66, 121
8, 258091, Note_off_c, 6, 66, 64
8, 258107, Note_on_c, 6, 70, 94
8, 258189, Note_off_c, 6, 70, 64
8, 258223, Note_on_c, 6, 61, 106
8, 258320, Note_off_c, 6, 61, 64
8, 258340, Note_on_c, 6, 70, 96
8, 258417, Note_off_c, 6, 70, 64
8, 258465, Note_on_c, 6, 66, 121
8, 258542, Note_off_c, 6, 66, 64
8, 258580, Note_on_c, 6, 70, 96
8, 258647, Note_off_c, 6, 70, 64
8, 258708, Note_on_c, 6, 68, 121
8, 258820, Note_off_c, 6, 68, 64
8, 258825, Note_on_c, 6, 71, 84
8, 258925, Note_off_c, 6, 71, 64
8, 258945, Note_on_c, 6, 61, 102
8, 259050, Note_off_c, 6, 61, 64
8, 259067, Note_on_c, 6, 71, 102
8, 259150, Note_off_c, 6, 71, 64
8, 259191, Note_on_c, 6, 68, 118
8, 259269, Note_off_c, 6, 68, 64
8, 259307, Note_on_c, 6, 71, 109
8, 259380, Note_off_c, 6, 71, 64
8, 259432, Note_on_c, 6, 70, 121
8, 259549, Note_on_c, 6, 73, 87
8, 259552, Note_off_c, 6, 70, 64
8, 259657, Note_off_c, 6, 73, 64
8, 259669, Note_on_c, 6, 61, 101
8, 259761, Note_off_c, 6, 61, 64
8, 259787, Note_on_c, 6, 73, 94
8, 259872, Note_off_c, 6, 73, 64
8, 259907, Note_on_c, 6, 70, 115
8, 259989, Note_off_c, 6, 70, 64
8, 260022, Note_on_c, 6, 73, 112
8, 260110, Note_off_c, 6, 73, 64
8, 260160, Note_on_c, 6, 61, 112
8, 260248, Note_off_c, 6, 61, 64
8, 260273, Note_on_c, 6, 65, 102
8, 260366, Note_off_c, 6, 65, 64
8, 260389, Note_on_c, 6, 68, 88
8, 260503, Note_on_c, 6, 65, 99
8, 260510, Note_off_c, 6, 68, 64
8, 260579, Note_off_c, 6, 65, 64
8, 260626, Note_on_c, 6, 61, 94
8, 260741, Note_off_c, 6, 61, 64
8, 260752, Note_on_c, 6, 56, 98
8, 260845, Note_off_c, 6, 56, 64
8, 260871, Note_on_c, 6, 61, 109
8, 260978, Note_off_c, 6, 61, 64
8, 260989, Note_on_c, 6, 56, 81
8, 261087, Note_off_c, 6, 56, 64
8, 261106, Note_on_c, 6, 61, 112
8, 261198, Note_off_c, 6, 61, 64
8, 261223, Note_on_c, 6, 65, 107
8, 261303, Note_off_c, 6, 65, 64
8, 261344, Note_on_c, 6, 68, 88
8, 261432, Note_off_c, 6, 68, 64
8, 261464, Note_on_c, 6, 65, 72
8, 261562, Note_off_c, 6, 65, 64
8, 261600, Note_on_c, 6, 61, 57
8, 261760, Note_off_c, 6, 61, 64
8, 294960, Note_on_c, 6, 65, 107
8, 295043, Note_off_c, 6, 65, 64
8, 295197, Note_on_c, 6, 70, 112
8, 295276, Note_off_c, 6, 70, 64
8, 295440, Note_on_c, 6, 69, 117
8, 295547, Note_off_c, 6, 69, 64
8, 295556, Note_on_c, 6, 70, 81
8, 295663, Note_off_c, 6, 70, 64
8, 295677, Note_on_c, 6, 69, 88
8, 295761, Note_off_c, 6, 69, 64
8, 295794, Note_on_c, 6, 67, 94
8, 295882, Note_off_c, 6, 67, 64
8, 295911, Note_on_c, 6, 65, 105
8, 295991, Note_off_c, 6, 65, 64
8, 296031, Note_on_c, 6, 63, 74
8, 296121, Note_off_c, 6, 63, 64
8, 296160, Note_on_c, 6, 65, 103
8, 296281, Note_on_c, 6, 66, 81
8, 296282, Note_off_c, 6, 65, 64
8, 296395, Note_on_c, 6, 65, 69
8, 296399, Note_off_c, 6, 66, 64
8, 296492, Note_off_c, 6, 65, 64
8, 296511, Note_on_c, 6, 63, 81
8, 296596, Note_off_c, 6, 63, 64
8, 296629, Note_on_c, 6, 61, 99
8, 296730, Note_off_c, 6, 61, 64
8, 296749, Note_on_c, 6, 60, 81
8, 296832, Note_off_c, 6, 60, 64
8, 296875, Note_on_c, 6, 58, 88
8, 297016, Note_off_c, 6, 58, 64
8, 297114, Note_on_c, 6, 63, 69
8, 297183, Note_off_c, 6, 63, 64
8, 297356, Note_on_c, 6, 58, 69
8, 297437, Note_off_c, 6, 58, 64
8, 297604, Note_on_c, 6, 63, 93
8, 297699, Note_off_c, 6, 63, 64
8, 297715, Note_on_c, 6, 65, 74
8, 297833, Note_off_c, 6, 65, 64
8, 297837, Note_on_c, 6, 63, 81
8, 297923, Note_off_c, 6, 63, 64
8, 297951, Note_on_c, 6, 61, 90
8, 298052, Note_off_c, 6, 61, 64
8, 298078, Note_on_c, 6, 60, 91
8, 298149, Note_off_c, 6, 60, 64
8, 298193, Note_on_c, 6, 58, 74
8, 298286, Note_off_c, 6, 58, 64
8, 298315, Note_on_c, 6, 56, 74
8, 298452, Note_off_c, 6, 56, 64
8, 298553, Note_on_c, 6, 61, 67
8, 298625, Note_off_c, 6, 61, 64
8, 298795, Note_on_c, 6, 56, 67
8, 298877, Note_off_c, 6, 56, 64
8, 299041, Note_on_c, 6, 58, 105
8, 299116, Note_off_c, 6, 58, 64
8, 299155, Note_on_c, 6, 63, 81
8, 299251, Note_off_c, 6, 63, 64
8, 299274, Note_on_c, 6, 61, 81
8, 299366, Note_off_c, 6, 61, 64
8, 299393, Note_on_c, 6, 60, 97
8, 299475, Note_off_c, 6, 60, 64
8, 299509, Note_on_c, 6, 58, 97
8, 299621, Note_off_c, 6, 58, 64
8, 299625, Note_on_c, 6, 56, 74
8, 299706, Note_off_c, 6, 56, 64
8, 299751, Note_on_c, 6, 54, 74
8, 299931, Note_off_c, 6, 54, 64
8, 299992, Note_on_c, 6, 66, 63
8, 300075, Note_off_c, 6, 66, 64
8, 300233, Note_on_c, 6, 60, 63
8, 300320, Note_off_c, 6, 60, 64
8, 300480, Note_on_c, 6, 65, 41
8, 300669, Note_off_c, 6, 65, 64
8, 300958, Note_on_c, 6, 60, 40
8, 301049, Note_off_c, 6, 60, 64
8, 301199, Note_on_c, 6, 65, 46
8, 301415, Note_off_c, 6, 65, 64
8, 301672, Note_on_c, 6, 61, 56
8, 301763, Note_off_c, 6, 61, 64
8, 301919, Note_on_c, 6, 65, 51
8, 302134, Note_off_c, 6, 65, 64
8, 302402, Note_on_c, 6, 60, 50
8, 302490, Note_off_c, 6, 60, 64
8, 302639, Note_on_c, 6, 65, 56
8, 302861, Note_off_c, 6, 65, 64
8, 303115, Note_on_c, 6, 58, 68
8, 303214, Note_off_c, 6, 58, 64
8, 303359, Note_on_c, 6, 65, 70
8, 303545, Note_off_c, 6, 65, 64
8, 303597, Note_on_c, 6, 60, 53
8, 303678, Note_off_c, 6, 60, 64
8, 303836, Note_on_c, 6, 57, 55
8, 303926, Note_off_c, 6, 57, 64
8, 304073, Note_on_c, 6, 65, 78
8, 304272, Note_off_c, 6, 65, 64
8, 304316, Note_on_c, 6, 61, 60
8, 304406, Note_off_c, 6, 61, 64
8, 304553, Note_on_c, 6, 58, 61
8, 304632, Note_off_c, 6, 58, 64
8, 314880, Note_on_c, 6, 58, 67
8, 315044, Note_off_c, 6, 58, 64
8, 315122, Note_on_c, 6, 58, 61
8, 315251, Note_off_c, 6, 58, 64
8, 315359, Note_on_c, 6, 58, 61
8, 315477, Note_off_c, 6, 58, 64
8, 315594, Note_on_c, 6, 62, 54
8, 315738, Note_off_c, 6, 62, 64
8, 315831, Note_on_c, 6, 62, 49
8, 315957, Note_off_c, 6, 62, 64
8, 316069, Note_on_c, 6, 62, 49
8, 316176, Note_off_c, 6, 62, 64
8, 316309, Note_on_c, 6, 62, 67
8, 316488, Note_off_c, 6, 62, 64
8, 316556, Note_on_c, 6, 58, 61
8, 316671, Note_off_c, 6, 58, 64
8, 316794, Note_on_c, 6, 58, 61
8, 316906, Note_off_c, 6, 58, 64
8, 317039, Note_on_c, 6, 58, 49
8, 317271, Note_off_c, 6, 58, 64
8, 323520, Note_on_c, 6, 54, 74
8, 323657, Note_off_c, 6, 54, 64
8, 323758, Note_on_c, 6, 58, 61
8, 323856, Note_off_c, 6, 58, 64
8, 323994, Note_on_c, 6, 61, 61
8, 324069, Note_off_c, 6, 61, 64
8, 324233, Note_on_c, 6, 54, 74
8, 324377, Note_off_c, 6, 54, 64
8, 324477, Note_on_c, 6, 59, 59
8, 324563, Note_off_c, 6, 59, 64
8, 324713, Note_on_c, 6, 63, 59
8, 324804, Note_off_c, 6, 63, 64
8, 324953, Note_on_c, 6, 54, 74
8, 325095, Note_off_c, 6, 54, 64
8, 325195, Note_on_c, 6, 61, 63
8, 325292, Note_off_c, 6, 61, 64
8, 325431, Note_on_c, 6, 64, 63
8, 325538, Note_off_c, 6, 64, 64
8, 325675, Note_on_c, 6, 54, 85
8, 325832, Note_off_c, 6, 54, 64
8, 325915, Note_on_c, 6, 63, 70
8, 326003, Note_off_c, 6, 63, 64
8, 326153, Note_on_c, 6, 66, 70
8, 326238, Note_off_c, 6, 66, 64
8, 326395, Note_on_c, 6, 58, 109
8, 326484, Note_off_c, 6, 58, 64
8, 326507, Note_on_c, 6, 61, 81
8, 326594, Note_off_c, 6, 61, 64
8, 326624, Note_on_c, 6, 54, 82
8, 326712, Note_off_c, 6, 54, 64
8, 326748, Note_on_c, 6, 61, 94
8, 326830, Note_off_c, 6, 61, 64
8, 326871, Note_on_c, 6, 58, 106
8, 326945, Note_off_c, 6, 58, 64
8, 326987, Note_on_c, 6, 61, 93
8, 327059, Note_off_c, 6, 61, 64
8, 327113, Note_on_c, 6, 59, 115
8, 327210, Note_off_c, 6, 59, 64
8, 327231, Note_on_c, 6, 63, 85
8, 327322, Note_off_c, 6, 63, 64
8, 327351, Note_on_c, 6, 54, 89
8, 327427, Note_off_c, 6, 54, 64
8, 327471, Note_on_c, 6, 63, 98
8, 327545, Note_off_c, 6, 63, 64
8, 327590, Note_on_c, 6, 59, 106
8, 327659, Note_off_c, 6, 59, 64
8, 327704, Note_on_c, 6, 63, 98
8, 327774, Note_off_c, 6, 63, 64
8, 327835, Note_on_c, 6, 61, 121
8, 327933, Note_off_c, 6, 61, 64
8, 327947, Note_on_c, 6, 64, 96
8, 328037, Note_off_c, 6, 64, 64
8, 328068, Note_on_c, 6, 54, 94
8, 328147, Note_off_c, 6, 54, 64
8, 328188, Note_on_c, 6, 64, 106
8, 328268, Note_off_c, 6, 64, 64
8, 328310, Note_on_c, 6, 61, 112
8, 328381, Note_off_c, 6, 61, 64
8, 328426, Note_on_c, 6, 64, 101
8, 328493, Note_off_c, 6, 64, 64
8, 328553, Note_on_c, 6, 63, 121
8, 328650, Note_off_c, 6, 63, 64
8, 328666, Note_on_c, 6, 66, 92
8, 328761, Note_off_c, 6, 66, 64
8, 328786, Note_on_c, 6, 54, 92
8, 328855, Note_off_c, 6, 54, 64
8, 328905, Note_on_c, 6, 66, 101
8, 328980, Note_off_c, 6, 66, 64
8, 329027, Note_on_c, 6, 63, 109
8, 329096, Note_off_c, 6, 63, 64
8, 329145, Note_on_c, 6, 66, 98
8, 329224, Note_off_c, 6, 66, 64
8, 329280, Note_on_c, 6, 53, 83
8, 329434, Note_off_c, 6, 53, 64
8, 329752, Note_on_c, 6, 59, 71
8, 329825, Note_off_c, 6, 59, 64
8, 329998, Note_on_c, 6, 56, 97
8, 330122, Note_off_c, 6, 56, 64
8, 330233, Note_on_c, 6, 59, 79
8, 330297, Note_off_c, 6, 59, 64
8, 330475, Note_on_c, 6, 62, 94
8, 330548, Note_off_c, 6, 62, 64
8, 330720, Note_on_c, 6, 61, 120
8, 330817, Note_off_c, 6, 61, 64
8, 330834, Note_on_c, 6, 66, 84
8, 330909, Note_off_c, 6, 66, 64
8, 330949, Note_on_c, 6, 58, 101
8, 331020, Note_off_c, 6, 58, 64
8, 331068, Note_on_c, 6, 66, 93
8, 331132, Note_off_c, 6, 66, 64
8, 331196, Note_on_c, 6, 61, 109
8, 331313, Note_on_c, 6, 59, 81
8, 331320, Note_off_c, 6, 61, 64
8, 331434, Note_on_c, 6, 61, 81
8, 331451, Note_off_c, 6, 59, 64
8, 331533, Note_off_c, 6, 61, 64
8, 331553, Note_on_c, 6, 66, 93
8, 331626, Note_off_c, 6, 66, 64
8, 331671, Note_on_c, 6, 58, 118
8, 331739, Note_off_c, 6, 58, 64
8, 331790, Note_on_c, 6, 66, 92
8, 331850, Note_off_c, 6, 66, 64
8, 331911, Note_on_c, 6, 61, 109
8, 331967, Note_off_c, 6, 61, 64
8, 332030, Note_on_c, 6, 66, 87
8, 332092, Note_off_c, 6, 66, 64
8, 339360, Note_on_c, 6, 54, 69
8, 339462, Note_off_c, 6, 54, 64
8, 339597, Note_on_c, 6, 54, 57
8, 339721, Note_off_c, 6, 54, 64
8, 339837, Note_on_c, 6, 54, 62
8, 339941, Note_off_c, 6, 54, 64
8, 340073, Note_on_c, 6, 54, 74
8, 340182, Note_off_c, 6, 54, 64
8, 340315, Note_on_c, 6, 54, 57
8, 340409, Note_off_c, 6, 54, 64
8, 340553, Note_on_c, 6, 54, 57
8, 340657, Note_off_c, 6, 54, 64
8, 340793, Note_on_c, 6, 54, 73
8, 340919, Note_off_c, 6, 54, 64
8, 341034, Note_on_c, 6, 54, 62
8, 341139, Note_off_c, 6, 54, 64
8, 341272, Note_on_c, 6, 54, 62
8, 341375, Note_off_c, 6, 54, 64
8, 341515, Note_on_c, 6, 54, 77
8, 341637, Note_off_c, 6, 54, 64
8, 341755, Note_on_c, 6, 54, 71
8, 341863, Note_off_c, 6, 54, 64
8, 341997, Note_on_c, 6, 54, 79
8, 342097, Note_off_c, 6, 54, 64
8, 342235, Note_on_c, 6, 54, 92
8, 342341, Note_off_c, 6, 54, 64
8, 342478, Note_on_c, 6, 66, 110
8, 342563, Note_off_c, 6, 66, 64
8, 342712, Note_on_c, 6, 71, 110
8, 342781, Note_off_c, 6, 71, 64
8, 342956, Note_on_c, 6, 70, 118
8, 343073, Note_off_c, 6, 70, 64
8, 343076, Note_on_c, 6, 71, 106
8, 343174, Note_off_c, 6, 71, 64
8, 343194, Note_on_c, 6, 70, 98
8, 343292, Note_off_c, 6, 70, 64
8, 343310, Note_on_c, 6, 68, 102
8, 343401, Note_off_c, 6, 68, 64
8, 343430, Note_on_c, 6, 66, 101
8, 343525, Note_off_c, 6, 66, 64
8, 343550, Note_on_c, 6, 64, 118
8, 343619, Note_off_c, 6, 64, 64
8, 343679, Note_on_c, 6, 66, 115
8, 343772, Note_off_c, 6, 66, 64
8, 343791, Note_on_c, 6, 68, 81
8, 343909, Note_on_c, 6, 66, 89
8, 343913, Note_off_c, 6, 68, 64
8, 343996, Note_off_c, 6, 66, 64
8, 344030, Note_on_c, 6, 64, 102
8, 344124, Note_off_c, 6, 64, 64
8, 344150, Note_on_c, 6, 63, 96
8, 344248, Note_off_c, 6, 63, 64
8, 344269, Note_on_c, 6, 61, 112
8, 344356, Note_off_c, 6, 61, 64
8, 344394, Note_on_c, 6, 59, 109
8, 344565, Note_off_c, 6, 59, 64
8, 344635, Note_on_c, 6, 68, 84
8, 344726, Note_off_c, 6, 68, 64
8, 344873, Note_on_c, 6, 59, 69
8, 344971, Note_off_c, 6, 59, 64
8, 345116, Note_on_c, 6, 61, 111
8, 345215, Note_off_c, 6, 61, 64
8, 345229, Note_on_c, 6, 66, 74
8, 345346, Note_on_c, 6, 65, 85
8, 345354, Note_off_c, 6, 66, 64
8, 345454, Note_off_c, 6, 65, 64
8, 345470, Note_on_c, 6, 63, 84
8, 345576, Note_off_c, 6, 63, 64
8, 345590, Note_on_c, 6, 61, 90
8, 345686, Note_off_c, 6, 61, 64
8, 345710, Note_on_c, 6, 59, 105
8, 345788, Note_off_c, 6, 59, 64
8, 345833, Note_on_c, 6, 58, 105
8, 346000, Note_off_c, 6, 58, 64
8, 346076, Note_on_c, 6, 63, 59
8, 346168, Note_off_c, 6, 63, 64
8, 346314, Note_on_c, 6, 58, 72
8, 346419, Note_off_c, 6, 58, 64
8, 346554, Note_on_c, 6, 59, 99
8, 346647, Note_off_c, 6, 59, 64
8, 346675, Note_on_c, 6, 64, 97
8, 346777, Note_off_c, 6, 64, 64
8, 346791, Note_on_c, 6, 63, 84
8, 346899, Note_off_c, 6, 63, 64
8, 346913, Note_on_c, 6, 61, 97
8, 347004, Note_off_c, 6, 61, 64
8, 347029, Note_on_c, 6, 59, 86
8, 347123, Note_off_c, 6, 59, 64
8, 347148, Note_on_c, 6, 58, 94
8, 347240, Note_off_c, 6, 58, 64
8, 347276, Note_on_c, 6, 56, 74
8, 347451, Note_off_c, 6, 56, 64
8, 347524, Note_on_c, 6, 61, 63
8, 347618, Note_off_c, 6, 61, 64
8, 347758, Note_on_c, 6, 65, 72
8, 347836, Note_off_c, 6, 65, 64
8, 358080, Note_on_c, 6, 65, 52
8, 358291, Note_off_c, 6, 65, 64
8, 358557, Note_on_c, 6, 68, 63
8, 358614, Note_off_c, 6, 68, 64
8, 358799, Note_on_c, 6, 66, 63
8, 359025, Note_off_c, 6, 66, 64
8, 359273, Note_on_c, 6, 70, 63
8, 359328, Note_off_c, 6, 70, 64
8, 359517, Note_on_c, 6, 68, 63
8, 359792, Note_off_c, 6, 68, 64
8, 359991, Note_on_c, 6, 71, 63
8, 360082, Note_off_c, 6, 71, 64
8, 360240, Note_on_c, 6, 70, 82
8, 360505, Note_off_c, 6, 70, 64
8, 360705, Note_on_c, 6, 73, 66
8, 360799, Note_off_c, 6, 73, 64
8, 360960, Note_on_c, 6, 65, 112
8, 361056, Note_off_c, 6, 65, 64
8, 361075, Note_on_c, 6, 68, 82
8, 361147, Note_off_c, 6, 68, 64
8, 361192, Note_on_c, 6, 61, 99
8, 361285, Note_off_c, 6, 61, 64
8, 361306, Note_on_c, 6, 68, 85
8, 361395, Note_off_c, 6, 68, 64
8, 361427, Note_on_c, 6, 65, 117
8, 361517, Note_off_c, 6, 65, 64
8, 361542, Note_on_c, 6, 68, 97
8, 361621, Note_off_c, 6, 68, 64
8, 361671, Note_on_c, 6, 66, 121
8, 361771, Note_off_c, 6, 66, 64
8, 361787, Note_on_c, 6, 70, 94
8, 361869, Note_off_c, 6, 70, 64
8, 361903, Note_on_c, 6, 61, 106
8, 362000, Note_off_c, 6, 61, 64
8, 362020, Note_on_c, 6, 70, 96
8, 362097, Note_off_c, 6, 70, 64
8, 362145, Note_on_c, 6, 66, 121
8, 362222, Note_off_c, 6, 66, 64
8, 362260, Note_on_c, 6, 70, 96
8, 362327, Note_off_c, 6, 70, 64
8, 362388, Note_on_c, 6, 68, 121
8, 362500, Note_off_c, 6, 68, 64
8, 362505, Note_on_c, 6, 71, 84
8, 362605, Note_off_c, 6, 71, 64
8, 362625, Note_on_c, 6, 61, 102
8, 362730, Note_off_c, 6, 61, 64
8, 362747, Note_on_c, 6, 71, 102
8, 362830, Note_off_c, 6, 71, 64
8, 362871, Note_on_c, 6, 68, 118
8, 362949, Note_off_c, 6, 68, 64
8, 362987, Note_on_c, 6, 71, 109
8, 363060, Note_off_c, 6, 71, 64
8, 363112, Note_on_c, 6, 70, 121
8, 363229, Note_on_c, 6, 73, 87
8, 363232, Note_off_c, 6, 70, 64
8, 363337, Note_off_c, 6, 73, 64
8, 363349, Note_on_c, 6, 61, 101
8, 363441, Note_off_c, 6, 61, 64
8, 363467, Note_on_c, 6, 73, 94
8, 363552, Note_off_c, 6, 73, 64
8, 363587, Note_on_c, 6, 70, 115
8, 363669, Note_off_c, 6, 70, 64
8, 363702, Note_on_c, 6, 73, 112
8, 363790, Note_off_c, 6, 73, 64
8, 363840, Note_on_c, 6, 61, 112
8, 363928, Note_off_c, 6, 61, 64
8, 363953, Note_on_c, 6, 65, 102
8, 364046, Note_off_c, 6, 65, 64
8, 364069, Note_on_c, 6, 68, 88
8, 364183, Note_on_c, 6, 65, 99
8, 364190, Note_off_c, 6, 68, 64
8, 364259, Note_off_c, 6, 65, 64
8, 364306, Note_on_c, 6, 61, 94
8, 364421, Note_off_c, 6, 61, 64
8, 364432, Note_on_c, 6, 56, 98
8, 364525, Note_off_c, 6, 56, 64
8, 364551, Note_on_c, 6, 61, 109
8, 364658, Note_off_c, 6, 61, 64
8, 364669, Note_on_c, 6, 56, 81
8, 364767, Note_off_c, 6, 56, 64
8, 364786, Note_on_c, 6, 61, 112
8, 364878, Note_off_c, 6, 61, 64
8, 364903, Note_on_c, 6, 65, 107
8, 364983, Note_off_c, 6, 65, 64
8, 365024, Note_on_c, 6, 68, 88
8, 365112, Note_off_c, 6, 68, 64
8, 365144, Note_on_c, 6, 65, 72
8, 365242, Note_off_c, 6, 65, 64
8, 365280, Note_on_c, 6, 61, 57
8, 365440, Note_off_c, 6, 61, 64
8, 378240, End_track
9, 0, Start_track
9, 0, Instrument_name_t, "SC88-A"
9, 0, Title_t, "Violoncello.1"
9, 1440, Control_c, 7, 101, 0
9, 1450, Control_c, 7, 100, 0
9, 1450, Control_c, 7, 6, 0
9, 1470, Control_c, 7, 0, 0
9, 1480, Control_c, 7, 32, 1
9, 1490, Program_c, 7, 42
9, 1500, Control_c, 7, 10, 79
9, 1510, Control_c, 7, 11, 100
9, 1520, Control_c, 7, 7, 120
9, 1530, Control_c, 7, 93, 0
9, 1540, Control_c, 7, 91, 0
9, 1550, Pitch_bend_c, 7, 8192
9, 1560, Control_c, 7, 1, 0
9, 1570, Control_c, 7, 64, 0
9, 1580, Control_c, 7, 91, 64
9, 1590, Control_c, 7, 99, 1
9, 1600, Control_c, 7, 98, 32
9, 1610, Control_c, 7, 6, 75
9, 1620, Control_c, 7, 98, 33
9, 1630, Control_c, 7, 6, 60
9, 1640, Control_c, 7, 98, 99
9, 1650, Control_c, 7, 6, 64
9, 1660, Control_c, 7, 98, 100
9, 1670, Control_c, 7, 6, 64
9, 1680, Control_c, 7, 98, 102
9, 1690, Control_c, 7, 6, 64
9, 89184, Control_c, 7, 11, 78
9, 89378, Control_c, 7, 11, 79
9, 89390, Note_on_c, 7, 47, 56
9, 89405, Control_c, 7, 11, 80
9, 89433, Control_c, 7, 11, 81
9, 89488, Control_c, 7, 11, 82
9, 89516, Control_c, 7, 11, 83
9, 89544, Control_c, 7, 11, 84
9, 89571, Control_c, 7, 11, 85
9, 89599, Control_c, 7, 11, 86
9, 89626, Control_c, 7, 11, 87
9, 89654, Control_c, 7, 11, 88
9, 89709, Control_c, 7, 11, 89
9, 89737, Control_c, 7, 11, 90
9, 89765, Control_c, 7, 11, 91
9, 89792, Control_c, 7, 11, 92
9, 89820, Control_c, 7, 11, 93
9, 89848, Control_c, 7, 11, 94
9, 89875, Control_c, 7, 11, 95
9, 89931, Control_c, 7, 11, 96
9, 89958, Control_c, 7, 11, 97
9, 89986, Control_c, 7, 11, 98
9, 90014, Control_c, 7, 11, 99
9, 90041, Control_c, 7, 11, 100
9, 90069, Control_c, 7, 11, 101
9, 90097, Control_c, 7, 11, 102
9, 90152, Control_c, 7, 11, 103
9, 90180, Control_c, 7, 11, 104
9, 90207, Control_c, 7, 11, 105
9, 90235, Control_c, 7, 11, 106
9, 90262, Control_c, 7, 11, 107
9, 90290, Control_c, 7, 11, 108
9, 90318, Control_c, 7, 11, 109
9, 90373, Control_c, 7, 11, 110
9, 90401, Control_c, 7, 11, 111
9, 90428, Control_c, 7, 11, 112
9, 90456, Control_c, 7, 11, 113
9, 90484, Control_c, 7, 11, 114
9, 90511, Control_c, 7, 11, 115
9, 90539, Control_c, 7, 11, 116
9, 90594, Control_c, 7, 11, 117
9, 90622, Control_c, 7, 11, 118
9, 90650, Control_c, 7, 11, 119
9, 90677, Control_c, 7, 11, 120
9, 90705, Control_c, 7, 11, 121
9, 90733, Control_c, 7, 11, 119
9, 90760, Control_c, 7, 11, 118
9, 90788, Control_c, 7, 11, 117
9, 90816, Control_c, 7, 11, 116
9, 90843, Control_c, 7, 11, 114
9, 90871, Control_c, 7, 11, 113
9, 90899, Control_c, 7, 11, 112
9, 90926, Control_c, 7, 11, 111
9, 90954, Control_c, 7, 11, 109
9, 90981, Control_c, 7, 11, 108
9, 91009, Control_c, 7, 11, 107
9, 91037, Control_c, 7, 11, 106
9, 91064, Control_c, 7, 11, 104
9, 91092, Control_c, 7, 11, 103
9, 91120, Control_c, 7, 11, 102
9, 91175, Control_c, 7, 11, 101
9, 91203, Control_c, 7, 11, 99
9, 91230, Control_c, 7, 11, 98
9, 91258, Control_c, 7, 11, 97
9, 91286, Control_c, 7, 11, 96
9, 91313, Control_c, 7, 11, 94
9, 91341, Control_c, 7, 11, 93
9, 91369, Control_c, 7, 11, 92
9, 91396, Control_c, 7, 11, 91
9, 91424, Control_c, 7, 11, 89
9, 91452, Control_c, 7, 11, 88
9, 91479, Control_c, 7, 11, 87
9, 91507, Control_c, 7, 11, 86
9, 91535, Control_c, 7, 11, 84
9, 91562, Control_c, 7, 11, 83
9, 91590, Control_c, 7, 11, 82
9, 91618, Control_c, 7, 11, 81
9, 91645, Control_c, 7, 11, 80
9, 92392, Control_c, 7, 11, 72
9, 92419, Control_c, 7, 11, 67
9, 92447, Control_c, 7, 11, 61
9, 92475, Control_c, 7, 11, 55
9, 92502, Control_c, 7, 11, 53
9, 92530, Control_c, 7, 11, 61
9, 92556, Note_on_c, 7, 46, 56
9, 92558, Control_c, 7, 11, 62
9, 92564, Note_off_c, 7, 47, 64
9, 92585, Control_c, 7, 11, 63
9, 92613, Control_c, 7, 11, 65
9, 92641, Control_c, 7, 11, 66
9, 92668, Control_c, 7, 11, 68
9, 92696, Control_c, 7, 11, 69
9, 92724, Control_c, 7, 11, 71
9, 92751, Control_c, 7, 11, 72
9, 92779, Control_c, 7, 11, 74
9, 92807, Control_c, 7, 11, 75
9, 92834, Control_c, 7, 11, 76
9, 92862, Control_c, 7, 11, 78
9, 92890, Control_c, 7, 11, 79
9, 92917, Control_c, 7, 11, 81
9, 92945, Control_c, 7, 11, 82
9, 92973, Control_c, 7, 11, 84
9, 93000, Control_c, 7, 11, 85
9, 93028, Control_c, 7, 11, 87
9, 93055, Control_c, 7, 11, 88
9, 93083, Control_c, 7, 11, 90
9, 93111, Control_c, 7, 11, 91
9, 93138, Control_c, 7, 11, 93
9, 93166, Control_c, 7, 11, 94
9, 93194, Control_c, 7, 11, 95
9, 93221, Control_c, 7, 11, 97
9, 93249, Control_c, 7, 11, 98
9, 93277, Control_c, 7, 11, 100
9, 93304, Control_c, 7, 11, 101
9, 93332, Control_c, 7, 11, 103
9, 93360, Control_c, 7, 11, 104
9, 93774, Control_c, 7, 11, 103
9, 93802, Control_c, 7, 11, 101
9, 93830, Control_c, 7, 11, 99
9, 93857, Control_c, 7, 11, 98
9, 93885, Control_c, 7, 11, 96
9, 93913, Control_c, 7, 11, 94
9, 93940, Control_c, 7, 11, 93
9, 93968, Control_c, 7, 11, 91
9, 93996, Control_c, 7, 11, 89
9, 94023, Control_c, 7, 11, 87
9, 94051, Control_c, 7, 11, 86
9, 94079, Control_c, 7, 11, 84
9, 94106, Control_c, 7, 11, 82
9, 94134, Control_c, 7, 11, 81
9, 94162, Control_c, 7, 11, 79
9, 94189, Control_c, 7, 11, 77
9, 94217, Control_c, 7, 11, 76
9, 94245, Control_c, 7, 11, 74
9, 94272, Control_c, 7, 11, 72
9, 95323, Control_c, 7, 11, 68
9, 95351, Control_c, 7, 11, 63
9, 95378, Control_c, 7, 11, 58
9, 95406, Control_c, 7, 11, 54
9, 95436, Note_off_c, 7, 46, 64
9, 95496, Control_c, 7, 11, 100
9, 100315, Note_on_c, 7, 54, 105
9, 100421, Note_off_c, 7, 54, 64
9, 100436, Note_on_c, 7, 53, 76
9, 100524, Note_off_c, 7, 53, 64
9, 100553, Note_on_c, 7, 54, 77
9, 100633, Note_off_c, 7, 54, 64
9, 100671, Note_on_c, 7, 56, 86
9, 100745, Note_off_c, 7, 56, 64
9, 100790, Note_on_c, 7, 58, 99
9, 100861, Note_off_c, 7, 58, 64
9, 100898, Note_on_c, 7, 59, 78
9, 100973, Note_off_c, 7, 59, 64
9, 101033, Note_on_c, 7, 61, 99
9, 101131, Note_off_c, 7, 61, 64
9, 101151, Note_on_c, 7, 63, 77
9, 101242, Note_off_c, 7, 63, 64
9, 101274, Note_on_c, 7, 61, 80
9, 101351, Note_off_c, 7, 61, 64
9, 101392, Note_on_c, 7, 59, 88
9, 101471, Note_off_c, 7, 59, 64
9, 101512, Note_on_c, 7, 58, 103
9, 101580, Note_off_c, 7, 58, 64
9, 101620, Note_on_c, 7, 56, 72
9, 101696, Note_off_c, 7, 56, 64
9, 101755, Note_on_c, 7, 54, 96
9, 101851, Note_off_c, 7, 54, 64
9, 101874, Note_on_c, 7, 53, 76
9, 101959, Note_off_c, 7, 53, 64
9, 101992, Note_on_c, 7, 54, 76
9, 102072, Note_off_c, 7, 54, 64
9, 102109, Note_on_c, 7, 56, 84
9, 102185, Note_off_c, 7, 56, 64
9, 102231, Note_on_c, 7, 58, 97
9, 102307, Note_off_c, 7, 58, 64
9, 102340, Note_on_c, 7, 54, 82
9, 102410, Note_off_c, 7, 54, 64
9, 102473, Note_on_c, 7, 59, 111
9, 102579, Note_off_c, 7, 59, 64
9, 102591, Note_on_c, 7, 61, 82
9, 102681, Note_off_c, 7, 61, 64
9, 102713, Note_on_c, 7, 59, 82
9, 102798, Note_off_c, 7, 59, 64
9, 102828, Note_on_c, 7, 58, 84
9, 102899, Note_off_c, 7, 58, 64
9, 102947, Note_on_c, 7, 56, 96
9, 103020, Note_off_c, 7, 56, 64
9, 103059, Note_on_c, 7, 54, 74
9, 103145, Note_off_c, 7, 54, 64
9, 103197, Note_on_c, 7, 53, 97
9, 103304, Note_off_c, 7, 53, 64
9, 103318, Note_on_c, 7, 51, 72
9, 103400, Note_off_c, 7, 51, 64
9, 103434, Note_on_c, 7, 53, 72
9, 103517, Note_off_c, 7, 53, 64
9, 103554, Note_on_c, 7, 54, 84
9, 103623, Note_off_c, 7, 54, 64
9, 103674, Note_on_c, 7, 56, 96
9, 103749, Note_off_c, 7, 56, 64
9, 103783, Note_on_c, 7, 53, 71
9, 103849, Note_off_c, 7, 53, 64
9, 103916, Note_on_c, 7, 58, 111
9, 104001, Note_off_c, 7, 58, 64
9, 104031, Note_on_c, 7, 60, 69
9, 104113, Note_off_c, 7, 60, 64
9, 104149, Note_on_c, 7, 58, 76
9, 104234, Note_off_c, 7, 58, 64
9, 104267, Note_on_c, 7, 56, 85
9, 104350, Note_off_c, 7, 56, 64
9, 104387, Note_on_c, 7, 54, 97
9, 104467, Note_off_c, 7, 54, 64
9, 104496, Note_on_c, 7, 53, 74
9, 104570, Note_off_c, 7, 53, 64
9, 104632, Note_on_c, 7, 51, 96
9, 104720, Note_off_c, 7, 51, 64
9, 104756, Note_on_c, 7, 49, 72
9, 104841, Note_off_c, 7, 49, 64
9, 104871, Note_on_c, 7, 51, 72
9, 104958, Note_off_c, 7, 51, 64
9, 104991, Note_on_c, 7, 53, 84
9, 105055, Note_off_c, 7, 53, 64
9, 105110, Note_on_c, 7, 54, 99
9, 105182, Note_off_c, 7, 54, 64
9, 105219, Note_on_c, 7, 51, 77
9, 105293, Note_off_c, 7, 51, 64
9, 105357, Note_on_c, 7, 56, 108
9, 105450, Note_off_c, 7, 56, 64
9, 105476, Note_on_c, 7, 58, 72
9, 105562, Note_off_c, 7, 58, 64
9, 105593, Note_on_c, 7, 56, 72
9, 105680, Note_off_c, 7, 56, 64
9, 105710, Note_on_c, 7, 54, 81
9, 105790, Note_off_c, 7, 54, 64
9, 105829, Note_on_c, 7, 53, 103
9, 105892, Note_off_c, 7, 53, 64
9, 105940, Note_on_c, 7, 51, 74
9, 105998, Note_off_c, 7, 51, 64
9, 106080, Note_on_c, 7, 49, 58
9, 106335, Note_off_c, 7, 49, 64
9, 106795, Note_on_c, 7, 44, 58
9, 107048, Note_off_c, 7, 44, 64
9, 107515, Note_on_c, 7, 37, 58
9, 107772, Note_off_c, 7, 37, 64
9, 108237, Note_on_c, 7, 44, 58
9, 108480, Note_off_c, 7, 44, 64
9, 108955, Note_on_c, 7, 49, 87
9, 109116, Note_off_c, 7, 49, 64
9, 109196, Note_on_c, 7, 53, 65
9, 109262, Note_off_c, 7, 53, 64
9, 109436, Note_on_c, 7, 56, 65
9, 109499, Note_off_c, 7, 56, 64
9, 109680, Note_on_c, 7, 44, 84
9, 109820, Note_off_c, 7, 44, 64
9, 109925, Note_on_c, 7, 51, 68
9, 109979, Note_off_c, 7, 51, 64
9, 110157, Note_on_c, 7, 56, 68
9, 110226, Note_off_c, 7, 56, 64
9, 110405, Note_on_c, 7, 49, 102
9, 110510, Note_off_c, 7, 49, 64
9, 110519, Note_on_c, 7, 48, 78
9, 110609, Note_off_c, 7, 48, 64
9, 110636, Note_on_c, 7, 49, 78
9, 110718, Note_off_c, 7, 49, 64
9, 110750, Note_on_c, 7, 51, 86
9, 110831, Note_off_c, 7, 51, 64
9, 110869, Note_on_c, 7, 53, 105
9, 110946, Note_off_c, 7, 53, 64
9, 110977, Note_on_c, 7, 54, 76
9, 111046, Note_off_c, 7, 54, 64
9, 111107, Note_on_c, 7, 56, 102
9, 111210, Note_off_c, 7, 56, 64
9, 111224, Note_on_c, 7, 58, 73
9, 111302, Note_off_c, 7, 58, 64
9, 111344, Note_on_c, 7, 56, 72
9, 111435, Note_off_c, 7, 56, 64
9, 111467, Note_on_c, 7, 54, 86
9, 111543, Note_off_c, 7, 54, 64
9, 111589, Note_on_c, 7, 53, 103
9, 111660, Note_off_c, 7, 53, 64
9, 111703, Note_on_c, 7, 51, 71
9, 111776, Note_off_c, 7, 51, 64
9, 111834, Note_on_c, 7, 49, 105
9, 111927, Note_off_c, 7, 49, 64
9, 111955, Note_on_c, 7, 48, 80
9, 112032, Note_off_c, 7, 48, 64
9, 112071, Note_on_c, 7, 49, 80
9, 112174, Note_off_c, 7, 49, 64
9, 112188, Note_on_c, 7, 51, 86
9, 112262, Note_off_c, 7, 51, 64
9, 112307, Note_on_c, 7, 53, 99
9, 112382, Note_off_c, 7, 53, 64
9, 112416, Note_on_c, 7, 49, 71
9, 112489, Note_off_c, 7, 49, 64
9, 112551, Note_on_c, 7, 54, 99
9, 112648, Note_off_c, 7, 54, 64
9, 112666, Note_on_c, 7, 56, 76
9, 112735, Note_off_c, 7, 56, 64
9, 112791, Note_on_c, 7, 54, 76
9, 112862, Note_off_c, 7, 54, 64
9, 112909, Note_on_c, 7, 53, 89
9, 112985, Note_off_c, 7, 53, 64
9, 113026, Note_on_c, 7, 51, 96
9, 113101, Note_off_c, 7, 51, 64
9, 113137, Note_on_c, 7, 49, 71
9, 113208, Note_off_c, 7, 49, 64
9, 113267, Note_on_c, 7, 48, 97
9, 113373, Note_off_c, 7, 48, 64
9, 113386, Note_on_c, 7, 46, 72
9, 113475, Note_off_c, 7, 46, 64
9, 113504, Note_on_c, 7, 48, 72
9, 113585, Note_off_c, 7, 48, 64
9, 113622, Note_on_c, 7, 49, 79
9, 113702, Note_off_c, 7, 49, 64
9, 113741, Note_on_c, 7, 51, 101
9, 113817, Note_off_c, 7, 51, 64
9, 113852, Note_on_c, 7, 48, 72
9, 113935, Note_off_c, 7, 48, 64
9, 113986, Note_on_c, 7, 53, 107
9, 114077, Note_off_c, 7, 53, 64
9, 114106, Note_on_c, 7, 54, 78
9, 114190, Note_off_c, 7, 54, 64
9, 114223, Note_on_c, 7, 53, 78
9, 114293, Note_off_c, 7, 53, 64
9, 114340, Note_on_c, 7, 51, 86
9, 114421, Note_off_c, 7, 51, 64
9, 114461, Note_on_c, 7, 49, 97
9, 114534, Note_off_c, 7, 49, 64
9, 114572, Note_on_c, 7, 48, 71
9, 114645, Note_off_c, 7, 48, 64
9, 114707, Note_on_c, 7, 46, 88
9, 114808, Note_off_c, 7, 46, 64
9, 114825, Note_on_c, 7, 44, 73
9, 114916, Note_off_c, 7, 44, 64
9, 114944, Note_on_c, 7, 46, 96
9, 115029, Note_off_c, 7, 46, 64
9, 115060, Note_on_c, 7, 48, 79
9, 115138, Note_off_c, 7, 48, 64
9, 115180, Note_on_c, 7, 49, 85
9, 115248, Note_off_c, 7, 49, 64
9, 115292, Note_on_c, 7, 46, 96
9, 115362, Note_off_c, 7, 46, 64
9, 115426, Note_on_c, 7, 51, 93
9, 115529, Note_off_c, 7, 51, 64
9, 115551, Note_on_c, 7, 53, 65
9, 115625, Note_off_c, 7, 53, 64
9, 115666, Note_on_c, 7, 51, 73
9, 115759, Note_off_c, 7, 51, 64
9, 115785, Note_on_c, 7, 49, 82
9, 115864, Note_off_c, 7, 49, 64
9, 115905, Note_on_c, 7, 48, 101
9, 115987, Note_off_c, 7, 48, 64
9, 116012, Note_on_c, 7, 46, 72
9, 116089, Note_off_c, 7, 46, 64
9, 116143, Note_on_c, 7, 44, 59
9, 116294, Note_off_c, 7, 44, 64
9, 116387, Note_on_c, 7, 44, 49
9, 116498, Note_off_c, 7, 44, 64
9, 116627, Note_on_c, 7, 44, 50
9, 116729, Note_off_c, 7, 44, 64
9, 116872, Note_on_c, 7, 44, 58
9, 117013, Note_off_c, 7, 44, 64
9, 117119, Note_on_c, 7, 44, 44
9, 117229, Note_off_c, 7, 44, 64
9, 117359, Note_on_c, 7, 44, 52
9, 117460, Note_off_c, 7, 44, 64
9, 117597, Note_on_c, 7, 44, 62
9, 117731, Note_off_c, 7, 44, 64
9, 117839, Note_on_c, 7, 44, 46
9, 117935, Note_off_c, 7, 44, 64
9, 118076, Note_on_c, 7, 44, 54
9, 118177, Note_off_c, 7, 44, 64
9, 118312, Note_on_c, 7, 44, 66
9, 118445, Note_off_c, 7, 44, 64
9, 118557, Note_on_c, 7, 44, 46
9, 118644, Note_off_c, 7, 44, 64
9, 118794, Note_on_c, 7, 44, 56
9, 118881, Note_off_c, 7, 44, 64
9, 119033, Note_on_c, 7, 44, 71
9, 119162, Note_off_c, 7, 44, 64
9, 119272, Note_on_c, 7, 44, 48
9, 119369, Note_off_c, 7, 44, 64
9, 119511, Note_on_c, 7, 44, 58
9, 119608, Note_off_c, 7, 44, 64
9, 119752, Note_on_c, 7, 44, 80
9, 119887, Note_off_c, 7, 44, 64
9, 119991, Note_on_c, 7, 44, 50
9, 120089, Note_off_c, 7, 44, 64
9, 120233, Note_on_c, 7, 44, 60
9, 120328, Note_off_c, 7, 44, 64
9, 120478, Note_on_c, 7, 44, 81
9, 120599, Note_off_c, 7, 44, 64
9, 120719, Note_on_c, 7, 44, 62
9, 120810, Note_off_c, 7, 44, 64
9, 120958, Note_on_c, 7, 44, 70
9, 121037, Note_off_c, 7, 44, 64
9, 121198, Note_on_c, 7, 44, 87
9, 121316, Note_off_c, 7, 44, 64
9, 121437, Note_on_c, 7, 44, 69
9, 121522, Note_off_c, 7, 44, 64
9, 121675, Note_on_c, 7, 44, 74
9, 121761, Note_off_c, 7, 44, 64
9, 121918, Note_on_c, 7, 44, 103
9, 122068, Note_off_c, 7, 44, 64
9, 122160, Note_on_c, 7, 48, 69
9, 122250, Note_off_c, 7, 48, 64
9, 122393, Note_on_c, 7, 51, 76
9, 122479, Note_off_c, 7, 51, 64
9, 122635, Note_on_c, 7, 48, 97
9, 122759, Note_off_c, 7, 48, 64
9, 122876, Note_on_c, 7, 51, 76
9, 122976, Note_off_c, 7, 51, 64
9, 123115, Note_on_c, 7, 56, 91
9, 123210, Note_off_c, 7, 56, 64
9, 123361, Note_on_c, 7, 49, 110
9, 123528, Note_off_c, 7, 49, 64
9, 123602, Note_on_c, 7, 53, 76
9, 123708, Note_off_c, 7, 53, 64
9, 123836, Note_on_c, 7, 56, 88
9, 123929, Note_off_c, 7, 56, 64
9, 124075, Note_on_c, 7, 53, 97
9, 124185, Note_off_c, 7, 53, 64
9, 124314, Note_on_c, 7, 56, 89
9, 124414, Note_off_c, 7, 56, 64
9, 124553, Note_on_c, 7, 61, 86
9, 124655, Note_off_c, 7, 61, 64
9, 124776, Control_c, 7, 11, 64
9, 124799, Note_on_c, 7, 42, 68
9, 124800, Control_c, 7, 11, 69
9, 124824, Control_c, 7, 11, 74
9, 124849, Control_c, 7, 11, 79
9, 124873, Control_c, 7, 11, 84
9, 124897, Control_c, 7, 11, 89
9, 124922, Control_c, 7, 11, 94
9, 124946, Control_c, 7, 11, 99
9, 124970, Control_c, 7, 11, 104
9, 124995, Control_c, 7, 11, 109
9, 125019, Control_c, 7, 11, 114
9, 125043, Control_c, 7, 11, 120
9, 125076, Control_c, 7, 11, 114
9, 125102, Control_c, 7, 11, 105
9, 125128, Control_c, 7, 11, 97
9, 125155, Control_c, 7, 11, 88
9, 125181, Control_c, 7, 11, 80
9, 125207, Control_c, 7, 11, 72
9, 125223, Note_off_c, 7, 42, 64
9, 125252, Control_c, 7, 11, 100
9, 126216, Control_c, 7, 11, 70
9, 126236, Note_on_c, 7, 54, 68
9, 126240, Control_c, 7, 11, 74
9, 126264, Control_c, 7, 11, 78
9, 126289, Control_c, 7, 11, 83
9, 126313, Control_c, 7, 11, 87
9, 126337, Control_c, 7, 11, 91
9, 126362, Control_c, 7, 11, 96
9, 126386, Control_c, 7, 11, 100
9, 126410, Control_c, 7, 11, 104
9, 126435, Control_c, 7, 11, 109
9, 126459, Control_c, 7, 11, 113
9, 126483, Control_c, 7, 11, 118
9, 126540, Control_c, 7, 11, 110
9, 126568, Control_c, 7, 11, 98
9, 126596, Control_c, 7, 11, 86
9, 126624, Control_c, 7, 11, 74
9, 126644, Note_off_c, 7, 54, 64
9, 126651, Control_c, 7, 11, 62
9, 126708, Control_c, 7, 11, 100
9, 127660, Control_c, 7, 11, 78
9, 127675, Note_on_c, 7, 53, 97
9, 127689, Control_c, 7, 11, 85
9, 127718, Control_c, 7, 11, 93
9, 127747, Control_c, 7, 11, 101
9, 127775, Control_c, 7, 11, 110
9, 127800, Control_c, 7, 11, 102
9, 127829, Control_c, 7, 11, 93
9, 127855, Note_off_c, 7, 53, 64
9, 127858, Control_c, 7, 11, 84
9, 127887, Control_c, 7, 11, 76
9, 127904, Control_c, 7, 11, 100
9, 127918, Note_on_c, 7, 51, 72
9, 128020, Note_off_c, 7, 51, 64
9, 128157, Note_on_c, 7, 49, 82
9, 128253, Note_off_c, 7, 49, 64
9, 128372, Control_c, 7, 11, 66
9, 128395, Note_on_c, 7, 56, 96
9, 128398, Control_c, 7, 11, 72
9, 128425, Control_c, 7, 11, 79
9, 128451, Control_c, 7, 11, 86
9, 128478, Control_c, 7, 11, 92
9, 128504, Control_c, 7, 11, 99
9, 128531, Control_c, 7, 11, 106
9, 128557, Control_c, 7, 11, 112
9, 128583, Control_c, 7, 11, 120
9, 128584, Control_c, 7, 11, 120
9, 128613, Control_c, 7, 11, 107
9, 128642, Control_c, 7, 11, 95
9, 128671, Control_c, 7, 11, 82
9, 128690, Note_off_c, 7, 56, 64
9, 128699, Control_c, 7, 11, 70
9, 128776, Control_c, 7, 11, 100
9, 128873, Note_on_c, 7, 44, 78
9, 128959, Note_off_c, 7, 44, 64
9, 129088, Control_c, 7, 11, 66
9, 129114, Note_on_c, 7, 37, 76
9, 129138, Control_c, 7, 11, 70
9, 129188, Control_c, 7, 11, 74
9, 129238, Control_c, 7, 11, 78
9, 129288, Control_c, 7, 11, 82
9, 129338, Control_c, 7, 11, 86
9, 129388, Control_c, 7, 11, 90
9, 129438, Control_c, 7, 11, 94
9, 129489, Control_c, 7, 11, 98
9, 129539, Control_c, 7, 11, 102
9, 129589, Control_c, 7, 11, 106
9, 129639, Control_c, 7, 11, 110
9, 129689, Control_c, 7, 11, 114
9, 129739, Control_c, 7, 11, 118
9, 129898, Control_c, 7, 11, 120
9, 129948, Control_c, 7, 11, 115
9, 129998, Control_c, 7, 11, 109
9, 130048, Control_c, 7, 11, 104
9, 130098, Control_c, 7, 11, 98
9, 130148, Control_c, 7, 11, 93
9, 130198, Control_c, 7, 11, 87
9, 130247, Control_c, 7, 11, 82
9, 130248, Control_c, 7, 11, 82
9, 130292, Control_c, 7, 11, 62
9, 130323, Note_off_c, 7, 37, 64
9, 130327, Control_c, 7, 11, 48
9, 130376, Control_c, 7, 11, 100
9, 134875, Note_on_c, 7, 54, 105
9, 134981, Note_off_c, 7, 54, 64
9, 134996, Note_on_c, 7, 53, 76
9, 135084, Note_off_c, 7, 53, 64
9, 135113, Note_on_c, 7, 54, 77
9, 135197, Note_off_c, 7, 54, 64
9, 135231, Note_on_c, 7, 56, 86
9, 135309, Note_off_c, 7, 56, 64
9, 135350, Note_on_c, 7, 58, 99
9, 135425, Note_off_c, 7, 58, 64
9, 135458, Note_on_c, 7, 59, 78
9, 135537, Note_off_c, 7, 59, 64
9, 135593, Note_on_c, 7, 61, 99
9, 135695, Note_off_c, 7, 61, 64
9, 135711, Note_on_c, 7, 63, 77
9, 135806, Note_off_c, 7, 63, 64
9, 135834, Note_on_c, 7, 61, 80
9, 135915, Note_off_c, 7, 61, 64
9, 135952, Note_on_c, 7, 59, 88
9, 136035, Note_off_c, 7, 59, 64
9, 136072, Note_on_c, 7, 58, 103
9, 136144, Note_off_c, 7, 58, 64
9, 136180, Note_on_c, 7, 56, 72
9, 136260, Note_off_c, 7, 56, 64
9, 136315, Note_on_c, 7, 54, 96
9, 136411, Note_off_c, 7, 54, 64
9, 136434, Note_on_c, 7, 53, 76
9, 136519, Note_off_c, 7, 53, 64
9, 136552, Note_on_c, 7, 54, 76
9, 136632, Note_off_c, 7, 54, 64
9, 136669, Note_on_c, 7, 56, 84
9, 136745, Note_off_c, 7, 56, 64
9, 136791, Note_on_c, 7, 58, 97
9, 136867, Note_off_c, 7, 58, 64
9, 136900, Note_on_c, 7, 54, 82
9, 136970, Note_off_c, 7, 54, 64
9, 137033, Note_on_c, 7, 59, 111
9, 137139, Note_off_c, 7, 59, 64
9, 137151, Note_on_c, 7, 61, 82
9, 137241, Note_off_c, 7, 61, 64
9, 137273, Note_on_c, 7, 59, 82
9, 137358, Note_off_c, 7, 59, 64
9, 137388, Note_on_c, 7, 58, 84
9, 137459, Note_off_c, 7, 58, 64
9, 137507, Note_on_c, 7, 56, 96
9, 137580, Note_off_c, 7, 56, 64
9, 137619, Note_on_c, 7, 54, 74
9, 137705, Note_off_c, 7, 54, 64
9, 137757, Note_on_c, 7, 53, 97
9, 137864, Note_off_c, 7, 53, 64
9, 137878, Note_on_c, 7, 51, 72
9, 137960, Note_off_c, 7, 51, 64
9, 137994, Note_on_c, 7, 53, 72
9, 138077, Note_off_c, 7, 53, 64
9, 138114, Note_on_c, 7, 54, 84
9, 138183, Note_off_c, 7, 54, 64
9, 138234, Note_on_c, 7, 56, 96
9, 138309, Note_off_c, 7, 56, 64
9, 138343, Note_on_c, 7, 53, 71
9, 138409, Note_off_c, 7, 53, 64
9, 138476, Note_on_c, 7, 58, 111
9, 138561, Note_off_c, 7, 58, 64
9, 138591, Note_on_c, 7, 60, 69
9, 138673, Note_off_c, 7, 60, 64
9, 138709, Note_on_c, 7, 58, 76
9, 138794, Note_off_c, 7, 58, 64
9, 138827, Note_on_c, 7, 56, 85
9, 138910, Note_off_c, 7, 56, 64
9, 138947, Note_on_c, 7, 54, 97
9, 139027, Note_off_c, 7, 54, 64
9, 139056, Note_on_c, 7, 53, 74
9, 139130, Note_off_c, 7, 53, 64
9, 139192, Note_on_c, 7, 51, 96
9, 139280, Note_off_c, 7, 51, 64
9, 139316, Note_on_c, 7, 49, 72
9, 139401, Note_off_c, 7, 49, 64
9, 139431, Note_on_c, 7, 51, 72
9, 139518, Note_off_c, 7, 51, 64
9, 139551, Note_on_c, 7, 53, 84
9, 139615, Note_off_c, 7, 53, 64
9, 139670, Note_on_c, 7, 54, 99
9, 139742, Note_off_c, 7, 54, 64
9, 139779, Note_on_c, 7, 51, 77
9, 139853, Note_off_c, 7, 51, 64
9, 139917, Note_on_c, 7, 56, 108
9, 140010, Note_off_c, 7, 56, 64
9, 140036, Note_on_c, 7, 58, 72
9, 140122, Note_off_c, 7, 58, 64
9, 140153, Note_on_c, 7, 56, 72
9, 140240, Note_off_c, 7, 56, 64
9, 140270, Note_on_c, 7, 54, 81
9, 140350, Note_off_c, 7, 54, 64
9, 140389, Note_on_c, 7, 53, 103
9, 140452, Note_off_c, 7, 53, 64
9, 140500, Note_on_c, 7, 51, 74
9, 140558, Note_off_c, 7, 51, 64
9, 140640, Note_on_c, 7, 49, 60
9, 140895, Note_off_c, 7, 49, 64
9, 141355, Note_on_c, 7, 44, 60
9, 141608, Note_off_c, 7, 44, 64
9, 142075, Note_on_c, 7, 37, 60
9, 142332, Note_off_c, 7, 37, 64
9, 142797, Note_on_c, 7, 44, 60
9, 143040, Note_off_c, 7, 44, 64
9, 143515, Note_on_c, 7, 49, 91
9, 143676, Note_off_c, 7, 49, 64
9, 143756, Note_on_c, 7, 53, 68
9, 143822, Note_off_c, 7, 53, 64
9, 143996, Note_on_c, 7, 56, 68
9, 144059, Note_off_c, 7, 56, 64
9, 144240, Note_on_c, 7, 44, 88
9, 144380, Note_off_c, 7, 44, 64
9, 144485, Note_on_c, 7, 51, 71
9, 144539, Note_off_c, 7, 51, 64
9, 144717, Note_on_c, 7, 56, 71
9, 144786, Note_off_c, 7, 56, 64
9, 144965, Note_on_c, 7, 49, 102
9, 145070, Note_off_c, 7, 49, 64
9, 145079, Note_on_c, 7, 48, 78
9, 145169, Note_off_c, 7, 48, 64
9, 145196, Note_on_c, 7, 49, 78
9, 145278, Note_off_c, 7, 49, 64
9, 145310, Note_on_c, 7, 51, 86
9, 145391, Note_off_c, 7, 51, 64
9, 145429, Note_on_c, 7, 53, 105
9, 145506, Note_off_c, 7, 53, 64
9, 145537, Note_on_c, 7, 54, 76
9, 145606, Note_off_c, 7, 54, 64
9, 145667, Note_on_c, 7, 56, 102
9, 145770, Note_off_c, 7, 56, 64
9, 145784, Note_on_c, 7, 58, 73
9, 145862, Note_off_c, 7, 58, 64
9, 145904, Note_on_c, 7, 56, 72
9, 145995, Note_off_c, 7, 56, 64
9, 146027, Note_on_c, 7, 54, 86
9, 146103, Note_off_c, 7, 54, 64
9, 146149, Note_on_c, 7, 53, 103
9, 146220, Note_off_c, 7, 53, 64
9, 146263, Note_on_c, 7, 51, 71
9, 146336, Note_off_c, 7, 51, 64
9, 146394, Note_on_c, 7, 49, 105
9, 146487, Note_off_c, 7, 49, 64
9, 146515, Note_on_c, 7, 48, 80
9, 146592, Note_off_c, 7, 48, 64
9, 146631, Note_on_c, 7, 49, 80
9, 146734, Note_off_c, 7, 49, 64
9, 146748, Note_on_c, 7, 51, 86
9, 146822, Note_off_c, 7, 51, 64
9, 146867, Note_on_c, 7, 53, 99
9, 146942, Note_off_c, 7, 53, 64
9, 146976, Note_on_c, 7, 49, 71
9, 147049, Note_off_c, 7, 49, 64
9, 147111, Note_on_c, 7, 54, 99
9, 147208, Note_off_c, 7, 54, 64
9, 147226, Note_on_c, 7, 56, 76
9, 147295, Note_off_c, 7, 56, 64
9, 147351, Note_on_c, 7, 54, 76
9, 147422, Note_off_c, 7, 54, 64
9, 147469, Note_on_c, 7, 53, 89
9, 147545, Note_off_c, 7, 53, 64
9, 147586, Note_on_c, 7, 51, 96
9, 147661, Note_off_c, 7, 51, 64
9, 147697, Note_on_c, 7, 49, 71
9, 147768, Note_off_c, 7, 49, 64
9, 147827, Note_on_c, 7, 48, 97
9, 147933, Note_off_c, 7, 48, 64
9, 147946, Note_on_c, 7, 46, 72
9, 148035, Note_off_c, 7, 46, 64
9, 148064, Note_on_c, 7, 48, 72
9, 148145, Note_off_c, 7, 48, 64
9, 148182, Note_on_c, 7, 49, 79
9, 148262, Note_off_c, 7, 49, 64
9, 148301, Note_on_c, 7, 51, 101
9, 148377, Note_off_c, 7, 51, 64
9, 148412, Note_on_c, 7, 48, 72
9, 148495, Note_off_c, 7, 48, 64
9, 148546, Note_on_c, 7, 53, 107
9, 148637, Note_off_c, 7, 53, 64
9, 148666, Note_on_c, 7, 54, 78
9, 148750, Note_off_c, 7, 54, 64
9, 148783, Note_on_c, 7, 53, 78
9, 148853, Note_off_c, 7, 53, 64
9, 148900, Note_on_c, 7, 51, 86
9, 148981, Note_off_c, 7, 51, 64
9, 149021, Note_on_c, 7, 49, 97
9, 149094, Note_off_c, 7, 49, 64
9, 149132, Note_on_c, 7, 48, 71
9, 149205, Note_off_c, 7, 48, 64
9, 149267, Note_on_c, 7, 46, 88
9, 149368, Note_off_c, 7, 46, 64
9, 149385, Note_on_c, 7, 44, 73
9, 149476, Note_off_c, 7, 44, 64
9, 149504, Note_on_c, 7, 46, 96
9, 149589, Note_off_c, 7, 46, 64
9, 149620, Note_on_c, 7, 48, 79
9, 149698, Note_off_c, 7, 48, 64
9, 149740, Note_on_c, 7, 49, 85
9, 149808, Note_off_c, 7, 49, 64
9, 149852, Note_on_c, 7, 46, 96
9, 149922, Note_off_c, 7, 46, 64
9, 149986, Note_on_c, 7, 51, 93
9, 150089, Note_off_c, 7, 51, 64
9, 150111, Note_on_c, 7, 53, 65
9, 150185, Note_off_c, 7, 53, 64
9, 150226, Note_on_c, 7, 51, 73
9, 150319, Note_off_c, 7, 51, 64
9, 150345, Note_on_c, 7, 49, 82
9, 150424, Note_off_c, 7, 49, 64
9, 150465, Note_on_c, 7, 48, 101
9, 150547, Note_off_c, 7, 48, 64
9, 150572, Note_on_c, 7, 46, 72
9, 150649, Note_off_c, 7, 46, 64
9, 150703, Note_on_c, 7, 44, 70
9, 150854, Note_off_c, 7, 44, 64
9, 150947, Note_on_c, 7, 44, 58
9, 151058, Note_off_c, 7, 44, 64
9, 151187, Note_on_c, 7, 44, 58
9, 151289, Note_off_c, 7, 44, 64
9, 151432, Note_on_c, 7, 44, 66
9, 151573, Note_off_c, 7, 44, 64
9, 151679, Note_on_c, 7, 44, 50
9, 151789, Note_off_c, 7, 44, 64
9, 151919, Note_on_c, 7, 44, 58
9, 152020, Note_off_c, 7, 44, 64
9, 152157, Note_on_c, 7, 44, 68
9, 152291, Note_off_c, 7, 44, 64
9, 152399, Note_on_c, 7, 44, 50
9, 152495, Note_off_c, 7, 44, 64
9, 152636, Note_on_c, 7, 44, 58
9, 152737, Note_off_c, 7, 44, 64
9, 152872, Note_on_c, 7, 44, 70
9, 153005, Note_off_c, 7, 44, 64
9, 153117, Note_on_c, 7, 44, 48
9, 153204, Note_off_c, 7, 44, 64
9, 153354, Note_on_c, 7, 44, 58
9, 153441, Note_off_c, 7, 44, 64
9, 153593, Note_on_c, 7, 44, 72
9, 153722, Note_off_c, 7, 44, 64
9, 153832, Note_on_c, 7, 44, 48
9, 153929, Note_off_c, 7, 44, 64
9, 154071, Note_on_c, 7, 44, 58
9, 154168, Note_off_c, 7, 44, 64
9, 154312, Note_on_c, 7, 44, 78
9, 154447, Note_off_c, 7, 44, 64
9, 154551, Note_on_c, 7, 44, 48
9, 154649, Note_off_c, 7, 44, 64
9, 154793, Note_on_c, 7, 44, 59
9, 154888, Note_off_c, 7, 44, 64
9, 155038, Note_on_c, 7, 44, 80
9, 155159, Note_off_c, 7, 44, 64
9, 155279, Note_on_c, 7, 44, 61
9, 155370, Note_off_c, 7, 44, 64
9, 155518, Note_on_c, 7, 44, 70
9, 155597, Note_off_c, 7, 44, 64
9, 155758, Note_on_c, 7, 44, 87
9, 155876, Note_off_c, 7, 44, 64
9, 155997, Note_on_c, 7, 44, 69
9, 156082, Note_off_c, 7, 44, 64
9, 156235, Note_on_c, 7, 44, 74
9, 156321, Note_off_c, 7, 44, 64
9, 156478, Note_on_c, 7, 44, 92
9, 156628, Note_off_c, 7, 44, 64
9, 156720, Note_on_c, 7, 48, 69
9, 156810, Note_off_c, 7, 48, 64
9, 156953, Note_on_c, 7, 51, 76
9, 157039, Note_off_c, 7, 51, 64
9, 157195, Note_on_c, 7, 48, 97
9, 157319, Note_off_c, 7, 48, 64
9, 157436, Note_on_c, 7, 51, 76
9, 157536, Note_off_c, 7, 51, 64
9, 157675, Note_on_c, 7, 56, 91
9, 157770, Note_off_c, 7, 56, 64
9, 157921, Note_on_c, 7, 49, 110
9, 158088, Note_off_c, 7, 49, 64
9, 158162, Note_on_c, 7, 53, 76
9, 158268, Note_off_c, 7, 53, 64
9, 158396, Note_on_c, 7, 56, 88
9, 158489, Note_off_c, 7, 56, 64
9, 158635, Note_on_c, 7, 53, 97
9, 158777, Note_off_c, 7, 53, 64
9, 158874, Note_on_c, 7, 56, 89
9, 158974, Note_off_c, 7, 56, 64
9, 159113, Note_on_c, 7, 61, 75
9, 159215, Note_off_c, 7, 61, 64
9, 159336, Control_c, 7, 11, 64
9, 159359, Note_on_c, 7, 42, 72
9, 159360, Control_c, 7, 11, 69
9, 159384, Control_c, 7, 11, 74
9, 159409, Control_c, 7, 11, 79
9, 159433, Control_c, 7, 11, 84
9, 159457, Control_c, 7, 11, 89
9, 159482, Control_c, 7, 11, 94
9, 159506, Control_c, 7, 11, 99
9, 159530, Control_c, 7, 11, 104
9, 159555, Control_c, 7, 11, 109
9, 159579, Control_c, 7, 11, 114
9, 159603, Control_c, 7, 11, 120
9, 159636, Control_c, 7, 11, 114
9, 159662, Control_c, 7, 11, 105
9, 159688, Control_c, 7, 11, 97
9, 159715, Control_c, 7, 11, 88
9, 159741, Control_c, 7, 11, 80
9, 159767, Control_c, 7, 11, 72
9, 159783, Note_off_c, 7, 42, 64
9, 159812, Control_c, 7, 11, 100
9, 160776, Control_c, 7, 11, 70
9, 160796, Note_on_c, 7, 54, 72
9, 160800, Control_c, 7, 11, 74
9, 160824, Control_c, 7, 11, 78
9, 160849, Control_c, 7, 11, 83
9, 160873, Control_c, 7, 11, 87
9, 160897, Control_c, 7, 11, 91
9, 160922, Control_c, 7, 11, 96
9, 160946, Control_c, 7, 11, 100
9, 160970, Control_c, 7, 11, 104
9, 160995, Control_c, 7, 11, 109
9, 161019, Control_c, 7, 11, 113
9, 161043, Control_c, 7, 11, 118
9, 161100, Control_c, 7, 11, 110
9, 161128, Control_c, 7, 11, 98
9, 161156, Control_c, 7, 11, 86
9, 161184, Control_c, 7, 11, 74
9, 161204, Note_off_c, 7, 54, 64
9, 161211, Control_c, 7, 11, 62
9, 161268, Control_c, 7, 11, 100
9, 162220, Control_c, 7, 11, 78
9, 162235, Note_on_c, 7, 53, 97
9, 162249, Control_c, 7, 11, 85
9, 162278, Control_c, 7, 11, 93
9, 162307, Control_c, 7, 11, 101
9, 162335, Control_c, 7, 11, 110
9, 162360, Control_c, 7, 11, 102
9, 162389, Control_c, 7, 11, 93
9, 162415, Note_off_c, 7, 53, 64
9, 162418, Control_c, 7, 11, 84
9, 162447, Control_c, 7, 11, 76
9, 162464, Control_c, 7, 11, 100
9, 162478, Note_on_c, 7, 51, 72
9, 162580, Note_off_c, 7, 51, 64
9, 162717, Note_on_c, 7, 49, 82
9, 162813, Note_off_c, 7, 49, 64
9, 162932, Control_c, 7, 11, 66
9, 162955, Note_on_c, 7, 56, 96
9, 162958, Control_c, 7, 11, 72
9, 162985, Control_c, 7, 11, 79
9, 163011, Control_c, 7, 11, 86
9, 163038, Control_c, 7, 11, 92
9, 163064, Control_c, 7, 11, 99
9, 163091, Control_c, 7, 11, 106
9, 163117, Control_c, 7, 11, 112
9, 163143, Control_c, 7, 11, 120
9, 163144, Control_c, 7, 11, 120
9, 163173, Control_c, 7, 11, 107
9, 163202, Control_c, 7, 11, 95
9, 163231, Control_c, 7, 11, 82
9, 163250, Note_off_c, 7, 56, 64
9, 163259, Control_c, 7, 11, 70
9, 163336, Control_c, 7, 11, 100
9, 163433, Note_on_c, 7, 44, 78
9, 163519, Note_off_c, 7, 44, 64
9, 163648, Control_c, 7, 11, 66
9, 163674, Note_on_c, 7, 37, 76
9, 163698, Control_c, 7, 11, 70
9, 163748, Control_c, 7, 11, 74
9, 163798, Control_c, 7, 11, 78
9, 163848, Control_c, 7, 11, 82
9, 163898, Control_c, 7, 11, 86
9, 163948, Control_c, 7, 11, 90
9, 163998, Control_c, 7, 11, 94
9, 164049, Control_c, 7, 11, 98
9, 164099, Control_c, 7, 11, 102
9, 164149, Control_c, 7, 11, 106
9, 164199, Control_c, 7, 11, 110
9, 164249, Control_c, 7, 11, 114
9, 164299, Control_c, 7, 11, 118
9, 164458, Control_c, 7, 11, 120
9, 164508, Control_c, 7, 11, 115
9, 164558, Control_c, 7, 11, 109
9, 164608, Control_c, 7, 11, 104
9, 164658, Control_c, 7, 11, 98
9, 164708, Control_c, 7, 11, 93
9, 164758, Control_c, 7, 11, 87
9, 164807, Control_c, 7, 11, 82
9, 164808, Control_c, 7, 11, 82
9, 164852, Control_c, 7, 11, 62
9, 164883, Note_off_c, 7, 37, 64
9, 164887, Control_c, 7, 11, 48
9, 164936, Control_c, 7, 11, 100
9, 165120, Note_on_c, 7, 49, 108
9, 165231, Note_off_c, 7, 49, 64
9, 165241, Note_on_c, 7, 48, 72
9, 165317, Note_off_c, 7, 48, 64
9, 165359, Note_on_c, 7, 49, 72
9, 165432, Note_off_c, 7, 49, 64
9, 165475, Note_on_c, 7, 51, 84
9, 165547, Note_off_c, 7, 51, 64
9, 165595, Note_on_c, 7, 53, 97
9, 165666, Note_off_c, 7, 53, 64
9, 165697, Note_on_c, 7, 54, 74
9, 165770, Note_off_c, 7, 54, 64
9, 165833, Note_on_c, 7, 56, 102
9, 165929, Note_off_c, 7, 56, 64
9, 165951, Note_on_c, 7, 58, 76
9, 166024, Note_off_c, 7, 58, 64
9, 166073, Note_on_c, 7, 56, 76
9, 166143, Note_off_c, 7, 56, 64
9, 166189, Note_on_c, 7, 54, 86
9, 166264, Note_off_c, 7, 54, 64
9, 166308, Note_on_c, 7, 53, 101
9, 166376, Note_off_c, 7, 53, 64
9, 166411, Note_on_c, 7, 51, 74
9, 166483, Note_off_c, 7, 51, 64
9, 166553, Note_on_c, 7, 53, 107
9, 166657, Note_off_c, 7, 53, 64
9, 166672, Note_on_c, 7, 56, 78
9, 166744, Note_off_c, 7, 56, 64
9, 166790, Note_on_c, 7, 54, 78
9, 166860, Note_off_c, 7, 54, 64
9, 166912, Note_on_c, 7, 53, 86
9, 166979, Note_off_c, 7, 53, 64
9, 167030, Note_on_c, 7, 51, 96
9, 167105, Note_off_c, 7, 51, 64
9, 167131, Note_on_c, 7, 49, 84
9, 167201, Note_off_c, 7, 49, 64
9, 167271, Note_on_c, 7, 48, 107
9, 167356, Note_off_c, 7, 48, 64
9, 167391, Note_on_c, 7, 51, 73
9, 167461, Note_off_c, 7, 51, 64
9, 167511, Note_on_c, 7, 49, 79
9, 167579, Note_off_c, 7, 49, 64
9, 167631, Note_on_c, 7, 48, 89
9, 167706, Note_off_c, 7, 48, 64
9, 167751, Note_on_c, 7, 46, 101
9, 167824, Note_off_c, 7, 46, 64
9, 167854, Note_on_c, 7, 44, 83
9, 167923, Note_off_c, 7, 44, 64
9, 167993, Note_on_c, 7, 51, 94
9, 168121, Note_off_c, 7, 51, 64
9, 168233, Note_on_c, 7, 54, 65
9, 168312, Note_off_c, 7, 54, 64
9, 168472, Note_on_c, 7, 58, 71
9, 168543, Note_off_c, 7, 58, 64
9, 168717, Note_on_c, 7, 50, 107
9, 168832, Note_off_c, 7, 50, 64
9, 168957, Note_on_c, 7, 53, 69
9, 169017, Note_off_c, 7, 53, 64
9, 169199, Note_on_c, 7, 58, 76
9, 169286, Note_off_c, 7, 58, 64
9, 169444, Note_on_c, 7, 51, 93
9, 169570, Note_off_c, 7, 51, 64
9, 169679, Note_on_c, 7, 54, 71
9, 169757, Note_off_c, 7, 54, 64
9, 169921, Note_on_c, 7, 58, 80
9, 169994, Note_off_c, 7, 58, 64
9, 170161, Note_on_c, 7, 46, 99
9, 170294, Note_off_c, 7, 46, 64
9, 170399, Note_on_c, 7, 53, 86
9, 170473, Note_off_c, 7, 53, 64
9, 170637, Note_on_c, 7, 58, 74
9, 170712, Note_off_c, 7, 58, 64
9, 170877, Note_on_c, 7, 42, 51
9, 171142, Note_off_c, 7, 42, 64
9, 171601, Note_on_c, 7, 44, 51
9, 171859, Note_off_c, 7, 44, 64
9, 172319, Note_on_c, 7, 46, 51
9, 172589, Note_off_c, 7, 46, 64
9, 173035, Note_on_c, 7, 47, 57
9, 173315, Note_off_c, 7, 47, 64
9, 173761, Note_on_c, 7, 42, 47
9, 174048, Note_off_c, 7, 42, 64
9, 174475, Note_on_c, 7, 44, 51
9, 174779, Note_off_c, 7, 44, 64
9, 175195, Note_on_c, 7, 46, 84
9, 175430, Note_off_c, 7, 46, 64
9, 175439, Note_on_c, 7, 44, 53
9, 175534, Note_off_c, 7, 44, 64
9, 175683, Note_on_c, 7, 46, 60
9, 175774, Note_off_c, 7, 46, 64
9, 175925, Note_on_c, 7, 39, 84
9, 176101, Note_off_c, 7, 39, 64
9, 176162, Note_on_c, 7, 42, 62
9, 176235, Note_off_c, 7, 42, 64
9, 176397, Note_on_c, 7, 46, 73
9, 176482, Note_off_c, 7, 46, 64
9, 176644, Note_on_c, 7, 51, 58
9, 176866, Note_off_c, 7, 51, 64
9, 180960, Note_on_c, 7, 51, 96
9, 181073, Note_off_c, 7, 51, 64
9, 181081, Note_on_c, 7, 50, 78
9, 181170, Note_off_c, 7, 50, 64
9, 181196, Note_on_c, 7, 51, 78
9, 181268, Note_off_c, 7, 51, 64
9, 181311, Note_on_c, 7, 53, 88
9, 181387, Note_off_c, 7, 53, 64
9, 181430, Note_on_c, 7, 54, 99
9, 181502, Note_off_c, 7, 54, 64
9, 181537, Note_on_c, 7, 56, 80
9, 181610, Note_off_c, 7, 56, 64
9, 181667, Note_on_c, 7, 58, 108
9, 181772, Note_off_c, 7, 58, 64
9, 181791, Note_on_c, 7, 59, 73
9, 181881, Note_off_c, 7, 59, 64
9, 181913, Note_on_c, 7, 58, 85
9, 181995, Note_off_c, 7, 58, 64
9, 182029, Note_on_c, 7, 56, 92
9, 182101, Note_off_c, 7, 56, 64
9, 182146, Note_on_c, 7, 54, 101
9, 182223, Note_off_c, 7, 54, 64
9, 182252, Note_on_c, 7, 53, 72
9, 182317, Note_off_c, 7, 53, 64
9, 182389, Note_on_c, 7, 51, 99
9, 182483, Note_off_c, 7, 51, 64
9, 182509, Note_on_c, 7, 50, 71
9, 182587, Note_off_c, 7, 50, 64
9, 182628, Note_on_c, 7, 51, 71
9, 182726, Note_off_c, 7, 51, 64
9, 182748, Note_on_c, 7, 53, 91
9, 182828, Note_off_c, 7, 53, 64
9, 182865, Note_on_c, 7, 54, 92
9, 182932, Note_off_c, 7, 54, 64
9, 182976, Note_on_c, 7, 51, 71
9, 183046, Note_off_c, 7, 51, 64
9, 183107, Note_on_c, 7, 56, 96
9, 183194, Note_off_c, 7, 56, 64
9, 183228, Note_on_c, 7, 58, 72
9, 183303, Note_off_c, 7, 58, 64
9, 183349, Note_on_c, 7, 56, 82
9, 183427, Note_off_c, 7, 56, 64
9, 183466, Note_on_c, 7, 54, 89
9, 183528, Note_off_c, 7, 54, 64
9, 183587, Note_on_c, 7, 53, 99
9, 183652, Note_off_c, 7, 53, 64
9, 183695, Note_on_c, 7, 51, 74
9, 183760, Note_off_c, 7, 51, 64
9, 183830, Note_on_c, 7, 49, 93
9, 183928, Note_off_c, 7, 49, 64
9, 183949, Note_on_c, 7, 48, 68
9, 184016, Note_off_c, 7, 48, 64
9, 184067, Note_on_c, 7, 49, 77
9, 184141, Note_off_c, 7, 49, 64
9, 184182, Note_on_c, 7, 51, 82
9, 184252, Note_off_c, 7, 51, 64
9, 184304, Note_on_c, 7, 53, 103
9, 184379, Note_off_c, 7, 53, 64
9, 184419, Note_on_c, 7, 49, 80
9, 184494, Note_off_c, 7, 49, 64
9, 184554, Note_on_c, 7, 54, 103
9, 184663, Note_off_c, 7, 54, 64
9, 184674, Note_on_c, 7, 56, 68
9, 184774, Note_off_c, 7, 56, 64
9, 184793, Note_on_c, 7, 54, 80
9, 184876, Note_off_c, 7, 54, 64
9, 184910, Note_on_c, 7, 53, 91
9, 184980, Note_off_c, 7, 53, 64
9, 185029, Note_on_c, 7, 51, 97
9, 185088, Note_off_c, 7, 51, 64
9, 185140, Note_on_c, 7, 49, 72
9, 185205, Note_off_c, 7, 49, 64
9, 185273, Note_on_c, 7, 48, 107
9, 185374, Note_off_c, 7, 48, 64
9, 185391, Note_on_c, 7, 46, 73
9, 185477, Note_off_c, 7, 46, 64
9, 185511, Note_on_c, 7, 48, 80
9, 185585, Note_off_c, 7, 48, 64
9, 185631, Note_on_c, 7, 49, 92
9, 185701, Note_off_c, 7, 49, 64
9, 185752, Note_on_c, 7, 51, 101
9, 185830, Note_off_c, 7, 51, 64
9, 185860, Note_on_c, 7, 48, 69
9, 185924, Note_off_c, 7, 48, 64
9, 185994, Note_on_c, 7, 53, 91
9, 186075, Note_off_c, 7, 53, 64
9, 186112, Note_on_c, 7, 54, 65
9, 186193, Note_off_c, 7, 54, 64
9, 186227, Note_on_c, 7, 53, 74
9, 186298, Note_off_c, 7, 53, 64
9, 186348, Note_on_c, 7, 51, 80
9, 186421, Note_off_c, 7, 51, 64
9, 186470, Note_on_c, 7, 49, 92
9, 186543, Note_off_c, 7, 49, 64
9, 186583, Note_on_c, 7, 48, 72
9, 186647, Note_off_c, 7, 48, 64
9, 186714, Note_on_c, 7, 46, 53
9, 186965, Note_off_c, 7, 46, 64
9, 187435, Note_on_c, 7, 41, 53
9, 187676, Note_off_c, 7, 41, 64
9, 188154, Note_on_c, 7, 46, 53
9, 188403, Note_off_c, 7, 46, 64
9, 188875, Note_on_c, 7, 53, 51
9, 189121, Note_off_c, 7, 53, 64
9, 189604, Note_on_c, 7, 46, 80
9, 189723, Note_off_c, 7, 46, 64
9, 189846, Note_on_c, 7, 49, 50
9, 189915, Note_off_c, 7, 49, 64
9, 190078, Note_on_c, 7, 53, 53
9, 190157, Note_off_c, 7, 53, 64
9, 190317, Note_on_c, 7, 45, 85
9, 190435, Note_off_c, 7, 45, 64
9, 190555, Note_on_c, 7, 48, 50
9, 190615, Note_off_c, 7, 48, 64
9, 190791, Note_on_c, 7, 53, 55
9, 190862, Note_off_c, 7, 53, 64
9, 191040, Note_on_c, 7, 46, 97
9, 191158, Note_on_c, 7, 45, 75
9, 191159, Note_off_c, 7, 46, 64
9, 191250, Note_off_c, 7, 45, 64
9, 191276, Note_on_c, 7, 46, 83
9, 191353, Note_off_c, 7, 46, 64
9, 191393, Note_on_c, 7, 48, 92
9, 191458, Note_off_c, 7, 48, 64
9, 191509, Note_on_c, 7, 49, 97
9, 191588, Note_off_c, 7, 49, 64
9, 191621, Note_on_c, 7, 51, 75
9, 191696, Note_off_c, 7, 51, 64
9, 191753, Note_on_c, 7, 53, 97
9, 191846, Note_off_c, 7, 53, 64
9, 191870, Note_on_c, 7, 54, 84
9, 191953, Note_off_c, 7, 54, 64
9, 191989, Note_on_c, 7, 53, 87
9, 192055, Note_off_c, 7, 53, 64
9, 192108, Note_on_c, 7, 51, 92
9, 192181, Note_off_c, 7, 51, 64
9, 192225, Note_on_c, 7, 49, 97
9, 192294, Note_off_c, 7, 49, 64
9, 192338, Note_on_c, 7, 48, 75
9, 192404, Note_off_c, 7, 48, 64
9, 192473, Note_on_c, 7, 46, 97
9, 192577, Note_off_c, 7, 46, 64
9, 192589, Note_on_c, 7, 45, 83
9, 192671, Note_off_c, 7, 45, 64
9, 192707, Note_on_c, 7, 46, 88
9, 192791, Note_off_c, 7, 46, 64
9, 192830, Note_on_c, 7, 48, 92
9, 192900, Note_off_c, 7, 48, 64
9, 192949, Note_on_c, 7, 49, 97
9, 193030, Note_off_c, 7, 49, 64
9, 193059, Note_on_c, 7, 46, 72
9, 193136, Note_off_c, 7, 46, 64
9, 193195, Note_on_c, 7, 51, 97
9, 193296, Note_off_c, 7, 51, 64
9, 193313, Note_on_c, 7, 53, 77
9, 193383, Note_off_c, 7, 53, 64
9, 193432, Note_on_c, 7, 51, 85
9, 193513, Note_off_c, 7, 51, 64
9, 193548, Note_on_c, 7, 49, 83
9, 193633, Note_off_c, 7, 49, 64
9, 193670, Note_on_c, 7, 48, 97
9, 193737, Note_off_c, 7, 48, 64
9, 193781, Note_on_c, 7, 46, 73
9, 193858, Note_off_c, 7, 46, 64
9, 193913, Note_on_c, 7, 44, 97
9, 194012, Note_off_c, 7, 44, 64
9, 194033, Note_on_c, 7, 43, 73
9, 194102, Note_off_c, 7, 43, 64
9, 194152, Note_on_c, 7, 44, 88
9, 194225, Note_off_c, 7, 44, 64
9, 194268, Note_on_c, 7, 46, 95
9, 194348, Note_off_c, 7, 46, 64
9, 194392, Note_on_c, 7, 48, 97
9, 194472, Note_off_c, 7, 48, 64
9, 194500, Note_on_c, 7, 44, 75
9, 194579, Note_off_c, 7, 44, 64
9, 194636, Note_on_c, 7, 49, 97
9, 194730, Note_off_c, 7, 49, 64
9, 194752, Note_on_c, 7, 51, 70
9, 194840, Note_off_c, 7, 51, 64
9, 194872, Note_on_c, 7, 49, 75
9, 194957, Note_off_c, 7, 49, 64
9, 194989, Note_on_c, 7, 48, 96
9, 195058, Note_off_c, 7, 48, 64
9, 195112, Note_on_c, 7, 46, 97
9, 195191, Note_off_c, 7, 46, 64
9, 195217, Note_on_c, 7, 44, 79
9, 195297, Note_off_c, 7, 44, 64
9, 195352, Note_on_c, 7, 42, 97
9, 195465, Note_off_c, 7, 42, 64
9, 195468, Note_on_c, 7, 41, 70
9, 195557, Note_off_c, 7, 41, 64
9, 195585, Note_on_c, 7, 42, 73
9, 195669, Note_off_c, 7, 42, 64
9, 195708, Note_on_c, 7, 44, 83
9, 195790, Note_off_c, 7, 44, 64
9, 195827, Note_on_c, 7, 46, 97
9, 195908, Note_off_c, 7, 46, 64
9, 195936, Note_on_c, 7, 42, 69
9, 196021, Note_off_c, 7, 42, 64
9, 196071, Note_on_c, 7, 48, 97
9, 196172, Note_off_c, 7, 48, 64
9, 196192, Note_on_c, 7, 49, 76
9, 196272, Note_off_c, 7, 49, 64
9, 196309, Note_on_c, 7, 48, 87
9, 196395, Note_off_c, 7, 48, 64
9, 196428, Note_on_c, 7, 46, 92
9, 196514, Note_off_c, 7, 46, 64
9, 196547, Note_on_c, 7, 45, 96
9, 196617, Note_off_c, 7, 45, 64
9, 196655, Note_on_c, 7, 43, 84
9, 196728, Note_off_c, 7, 43, 64
9, 196800, Note_on_c, 7, 41, 63
9, 196934, Note_off_c, 7, 41, 64
9, 197034, Note_on_c, 7, 41, 53
9, 197125, Note_off_c, 7, 41, 64
9, 197271, Note_on_c, 7, 41, 54
9, 197365, Note_off_c, 7, 41, 64
9, 197508, Note_on_c, 7, 41, 68
9, 197637, Note_off_c, 7, 41, 64
9, 197752, Note_on_c, 7, 41, 58
9, 197861, Note_off_c, 7, 41, 64
9, 197991, Note_on_c, 7, 41, 59
9, 198105, Note_off_c, 7, 41, 64
9, 198231, Note_on_c, 7, 41, 74
9, 198358, Note_off_c, 7, 41, 64
9, 198472, Note_on_c, 7, 41, 65
9, 198566, Note_off_c, 7, 41, 64
9, 198711, Note_on_c, 7, 41, 68
9, 198801, Note_off_c, 7, 41, 64
9, 198949, Note_on_c, 7, 41, 85
9, 199054, Note_off_c, 7, 41, 64
9, 199190, Note_on_c, 7, 41, 75
9, 199282, Note_off_c, 7, 41, 64
9, 199431, Note_on_c, 7, 41, 76
9, 199518, Note_off_c, 7, 41, 64
9, 199675, Note_on_c, 7, 41, 92
9, 199780, Note_off_c, 7, 41, 64
9, 199916, Note_on_c, 7, 41, 85
9, 199999, Note_off_c, 7, 41, 64
9, 200154, Note_on_c, 7, 41, 88
9, 200243, Note_off_c, 7, 41, 64
9, 200397, Note_on_c, 7, 41, 98
9, 200507, Note_off_c, 7, 41, 64
9, 200637, Note_on_c, 7, 41, 92
9, 200722, Note_off_c, 7, 41, 64
9, 200877, Note_on_c, 7, 41, 92
9, 200968, Note_off_c, 7, 41, 64
9, 201119, Note_on_c, 7, 41, 113
9, 201225, Note_off_c, 7, 41, 64
9, 201357, Note_on_c, 7, 41, 97
9, 201450, Note_off_c, 7, 41, 64
9, 201598, Note_on_c, 7, 41, 97
9, 201689, Note_off_c, 7, 41, 64
9, 201839, Note_on_c, 7, 41, 116
9, 201945, Note_off_c, 7, 41, 64
9, 202078, Note_on_c, 7, 41, 100
9, 202167, Note_off_c, 7, 41, 64
9, 202314, Note_on_c, 7, 41, 103
9, 202404, Note_off_c, 7, 41, 64
9, 202557, Note_on_c, 7, 41, 85
9, 202698, Note_off_c, 7, 41, 64
9, 202797, Note_on_c, 7, 45, 62
9, 202898, Note_off_c, 7, 45, 64
9, 203032, Note_on_c, 7, 48, 62
9, 203139, Note_off_c, 7, 48, 64
9, 203273, Note_on_c, 7, 45, 79
9, 203397, Note_off_c, 7, 45, 64
9, 203513, Note_on_c, 7, 48, 69
9, 203602, Note_off_c, 7, 48, 64
9, 203747, Note_on_c, 7, 53, 62
9, 203857, Note_off_c, 7, 53, 64
9, 203994, Note_on_c, 7, 46, 89
9, 204126, Note_off_c, 7, 46, 64
9, 204233, Note_on_c, 7, 50, 67
9, 204330, Note_off_c, 7, 50, 64
9, 204470, Note_on_c, 7, 53, 69
9, 204581, Note_off_c, 7, 53, 64
9, 204712, Note_on_c, 7, 50, 97
9, 204832, Note_off_c, 7, 50, 64
9, 204952, Note_on_c, 7, 53, 65
9, 205042, Note_off_c, 7, 53, 64
9, 205189, Note_on_c, 7, 58, 69
9, 205288, Note_off_c, 7, 58, 64
9, 205400, Control_c, 7, 11, 74
9, 205427, Control_c, 7, 11, 79
9, 205440, Note_on_c, 7, 39, 61
9, 205454, Control_c, 7, 11, 85
9, 205481, Control_c, 7, 11, 91
9, 205508, Control_c, 7, 11, 96
9, 205535, Control_c, 7, 11, 102
9, 205562, Control_c, 7, 11, 108
9, 205589, Control_c, 7, 11, 114
9, 205615, Control_c, 7, 11, 120
9, 205640, Control_c, 7, 11, 110
9, 205666, Control_c, 7, 11, 99
9, 205692, Control_c, 7, 11, 89
9, 205719, Control_c, 7, 11, 78
9, 205745, Control_c, 7, 11, 68
9, 205761, Note_off_c, 7, 39, 64
9, 205771, Control_c, 7, 11, 58
9, 205860, Control_c, 7, 11, 100
9, 206848, Control_c, 7, 11, 66
9, 206873, Control_c, 7, 11, 72
9, 206874, Note_on_c, 7, 51, 55
9, 206899, Control_c, 7, 11, 79
9, 206924, Control_c, 7, 11, 86
9, 206950, Control_c, 7, 11, 92
9, 206975, Control_c, 7, 11, 99
9, 207001, Control_c, 7, 11, 106
9, 207026, Control_c, 7, 11, 113
9, 207051, Control_c, 7, 11, 120
9, 207092, Control_c, 7, 11, 118
9, 207120, Control_c, 7, 11, 107
9, 207148, Control_c, 7, 11, 97
9, 207176, Control_c, 7, 11, 86
9, 207204, Control_c, 7, 11, 76
9, 207231, Control_c, 7, 11, 66
9, 207245, Note_off_c, 7, 51, 64
9, 207320, Control_c, 7, 11, 100
9, 208319, Note_on_c, 7, 49, 93
9, 208474, Note_off_c, 7, 49, 64
9, 208559, Note_on_c, 7, 48, 63
9, 208631, Note_off_c, 7, 48, 64
9, 208795, Note_on_c, 7, 46, 81
9, 208877, Note_off_c, 7, 46, 64
9, 209020, Control_c, 7, 11, 70
9, 209039, Note_on_c, 7, 53, 95
9, 209045, Control_c, 7, 11, 76
9, 209071, Control_c, 7, 11, 82
9, 209096, Control_c, 7, 11, 89
9, 209122, Control_c, 7, 11, 95
9, 209147, Control_c, 7, 11, 102
9, 209173, Control_c, 7, 11, 108
9, 209198, Control_c, 7, 11, 115
9, 209223, Control_c, 7, 11, 122
9, 209240, Control_c, 7, 11, 106
9, 209265, Control_c, 7, 11, 95
9, 209290, Control_c, 7, 11, 84
9, 209315, Control_c, 7, 11, 73
9, 209328, Note_off_c, 7, 53, 64
9, 209339, Control_c, 7, 11, 62
9, 209408, Control_c, 7, 11, 100
9, 209515, Note_on_c, 7, 41, 72
9, 209586, Note_off_c, 7, 41, 64
9, 209756, Note_on_c, 7, 46, 89
9, 209912, Note_off_c, 7, 46, 64
9, 209997, Note_on_c, 7, 49, 76
9, 210072, Note_off_c, 7, 49, 64
9, 210235, Note_on_c, 7, 53, 83
9, 210327, Note_off_c, 7, 53, 64
9, 210444, Control_c, 7, 11, 76
9, 210469, Control_c, 7, 11, 79
9, 210476, Note_on_c, 7, 58, 111
9, 210495, Control_c, 7, 11, 82
9, 210521, Control_c, 7, 11, 86
9, 210546, Control_c, 7, 11, 89
9, 210572, Control_c, 7, 11, 93
9, 210598, Control_c, 7, 11, 96
9, 210623, Control_c, 7, 11, 100
9, 210692, Note_off_c, 7, 58, 64
9, 210719, Note_on_c, 7, 56, 96
9, 210804, Note_off_c, 7, 56, 64
9, 210835, Note_on_c, 7, 54, 72
9, 210904, Note_off_c, 7, 54, 64
9, 210953, Note_on_c, 7, 53, 91
9, 211018, Note_off_c, 7, 53, 64
9, 211071, Note_on_c, 7, 51, 68
9, 211142, Note_off_c, 7, 51, 64
9, 211200, Note_on_c, 7, 50, 68
9, 211335, Note_off_c, 7, 50, 64
9, 211436, Note_on_c, 7, 53, 57
9, 211501, Note_off_c, 7, 53, 64
9, 211671, Note_on_c, 7, 58, 68
9, 211749, Note_off_c, 7, 58, 64
9, 211915, Note_on_c, 7, 46, 73
9, 212035, Note_off_c, 7, 46, 64
9, 212154, Note_on_c, 7, 53, 57
9, 212217, Note_off_c, 7, 53, 64
9, 212393, Note_on_c, 7, 58, 67
9, 212467, Note_off_c, 7, 58, 64
9, 212634, Note_on_c, 7, 51, 79
9, 212758, Note_off_c, 7, 51, 64
9, 212873, Note_on_c, 7, 54, 66
9, 212949, Note_off_c, 7, 54, 64
9, 213111, Note_on_c, 7, 58, 81
9, 213194, Note_off_c, 7, 58, 64
9, 213316, Control_c, 7, 11, 54
9, 213344, Control_c, 7, 11, 61
9, 213352, Note_on_c, 7, 63, 92
9, 213372, Control_c, 7, 11, 69
9, 213400, Control_c, 7, 11, 77
9, 213427, Control_c, 7, 11, 86
9, 213449, Control_c, 7, 11, 92
9, 213474, Control_c, 7, 11, 94
9, 213499, Control_c, 7, 11, 97
9, 213523, Control_c, 7, 11, 100
9, 213583, Note_off_c, 7, 63, 64
9, 213597, Note_on_c, 7, 61, 90
9, 213672, Note_off_c, 7, 61, 64
9, 213713, Note_on_c, 7, 59, 68
9, 213795, Note_off_c, 7, 59, 64
9, 213828, Note_on_c, 7, 58, 78
9, 213899, Note_off_c, 7, 58, 64
9, 213947, Note_on_c, 7, 56, 68
9, 214017, Note_off_c, 7, 56, 64
9, 214070, Note_on_c, 7, 55, 73
9, 214190, Note_off_c, 7, 55, 64
9, 214313, Note_on_c, 7, 58, 55
9, 214395, Note_off_c, 7, 58, 64
9, 214552, Note_on_c, 7, 63, 66
9, 214641, Note_off_c, 7, 63, 64
9, 214797, Note_on_c, 7, 51, 80
9, 214922, Note_off_c, 7, 51, 64
9, 215042, Note_on_c, 7, 58, 62
9, 215122, Note_off_c, 7, 58, 64
9, 215279, Note_on_c, 7, 63, 75
9, 215366, Note_off_c, 7, 63, 64
9, 215519, Note_on_c, 7, 44, 85
9, 215646, Note_off_c, 7, 44, 64
9, 215759, Note_on_c, 7, 47, 73
9, 215852, Note_off_c, 7, 47, 64
9, 215997, Note_on_c, 7, 51, 80
9, 216082, Note_off_c, 7, 51, 64
9, 216239, Note_on_c, 7, 56, 90
9, 216347, Note_off_c, 7, 56, 64
9, 216350, Note_on_c, 7, 58, 70
9, 216435, Note_off_c, 7, 58, 64
9, 216470, Note_on_c, 7, 56, 71
9, 216551, Note_off_c, 7, 56, 64
9, 216589, Note_on_c, 7, 54, 78
9, 216661, Note_off_c, 7, 54, 64
9, 216711, Note_on_c, 7, 52, 84
9, 216780, Note_off_c, 7, 52, 64
9, 216829, Note_on_c, 7, 51, 63
9, 216885, Note_off_c, 7, 51, 64
9, 216957, Note_on_c, 7, 49, 71
9, 217099, Note_off_c, 7, 49, 64
9, 217197, Note_on_c, 7, 56, 76
9, 217289, Note_off_c, 7, 56, 64
9, 217434, Note_on_c, 7, 61, 96
9, 217520, Note_off_c, 7, 61, 64
9, 217674, Note_on_c, 7, 54, 105
9, 217828, Note_off_c, 7, 54, 64
9, 217919, Note_on_c, 7, 49, 78
9, 218011, Note_off_c, 7, 49, 64
9, 218160, Note_on_c, 7, 42, 105
9, 218234, Note_off_c, 7, 42, 64
9, 218401, Note_on_c, 7, 47, 110
9, 218566, Note_off_c, 7, 47, 64
9, 218642, Note_on_c, 7, 54, 72
9, 218720, Note_off_c, 7, 54, 64
9, 218875, Note_on_c, 7, 59, 91
9, 218956, Note_off_c, 7, 59, 64
9, 219114, Note_on_c, 7, 52, 109
9, 219262, Note_off_c, 7, 52, 64
9, 219359, Note_on_c, 7, 47, 74
9, 219440, Note_off_c, 7, 47, 64
9, 219598, Note_on_c, 7, 40, 110
9, 219679, Note_off_c, 7, 40, 64
9, 219840, Note_on_c, 7, 52, 54
9, 220061, Note_off_c, 7, 52, 64
9, 220562, Note_on_c, 7, 51, 65
9, 220780, Note_off_c, 7, 51, 64
9, 221278, Note_on_c, 7, 49, 73
9, 221493, Note_off_c, 7, 49, 64
9, 221996, Note_on_c, 7, 47, 80
9, 222199, Note_off_c, 7, 47, 64
9, 222706, Note_on_c, 7, 46, 97
9, 222843, Note_off_c, 7, 46, 64
9, 222946, Note_on_c, 7, 49, 68
9, 223018, Note_off_c, 7, 49, 64
9, 223187, Note_on_c, 7, 54, 75
9, 223272, Note_off_c, 7, 54, 64
9, 223434, Note_on_c, 7, 47, 96
9, 223584, Note_off_c, 7, 47, 64
9, 223674, Note_on_c, 7, 51, 70
9, 223742, Note_off_c, 7, 51, 64
9, 223912, Note_on_c, 7, 54, 77
9, 223993, Note_off_c, 7, 54, 64
9, 224159, Note_on_c, 7, 46, 111
9, 224247, Note_off_c, 7, 46, 64
9, 224278, Note_on_c, 7, 49, 80
9, 224335, Note_off_c, 7, 49, 64
9, 224395, Note_on_c, 7, 42, 110
9, 224450, Note_off_c, 7, 42, 64
9, 224515, Note_on_c, 7, 49, 76
9, 224568, Note_off_c, 7, 49, 64
9, 224632, Note_on_c, 7, 46, 111
9, 224693, Note_off_c, 7, 46, 64
9, 224751, Note_on_c, 7, 49, 78
9, 224806, Note_off_c, 7, 49, 64
9, 224877, Note_on_c, 7, 47, 110
9, 224978, Note_off_c, 7, 47, 64
9, 224997, Note_on_c, 7, 51, 78
9, 225056, Note_off_c, 7, 51, 64
9, 225115, Note_on_c, 7, 42, 105
9, 225173, Note_off_c, 7, 42, 64
9, 225233, Note_on_c, 7, 51, 84
9, 225293, Note_off_c, 7, 51, 64
9, 225354, Note_on_c, 7, 47, 105
9, 225419, Note_off_c, 7, 47, 64
9, 225472, Note_on_c, 7, 51, 80
9, 225527, Note_off_c, 7, 51, 64
9, 225598, Note_on_c, 7, 41, 94
9, 225720, Note_off_c, 7, 41, 64
9, 225837, Note_on_c, 7, 41, 71
9, 225949, Note_off_c, 7, 41, 64
9, 226077, Note_on_c, 7, 41, 89
9, 226194, Note_off_c, 7, 41, 64
9, 226317, Note_on_c, 7, 41, 107
9, 226442, Note_off_c, 7, 41, 64
9, 226558, Note_on_c, 7, 41, 91
9, 226645, Note_off_c, 7, 41, 64
9, 226796, Note_on_c, 7, 41, 91
9, 226887, Note_off_c, 7, 41, 64
9, 227037, Note_on_c, 7, 40, 105
9, 227180, Note_off_c, 7, 40, 64
9, 227274, Note_on_c, 7, 40, 65
9, 227385, Note_off_c, 7, 40, 64
9, 227511, Note_on_c, 7, 40, 86
9, 227608, Note_off_c, 7, 40, 64
9, 227753, Note_on_c, 7, 40, 99
9, 227871, Note_off_c, 7, 40, 64
9, 227995, Note_on_c, 7, 40, 88
9, 228076, Note_off_c, 7, 40, 64
9, 228233, Note_on_c, 7, 40, 88
9, 228325, Note_off_c, 7, 40, 64
9, 228478, Note_on_c, 7, 39, 66
9, 228677, Note_off_c, 7, 39, 64
9, 229201, Note_on_c, 7, 40, 45
9, 229402, Note_off_c, 7, 40, 64
9, 229914, Note_on_c, 7, 42, 51
9, 230158, Note_off_c, 7, 42, 64
9, 230633, Note_on_c, 7, 44, 59
9, 230841, Note_off_c, 7, 44, 64
9, 231362, Note_on_c, 7, 39, 55
9, 231593, Note_off_c, 7, 39, 64
9, 232077, Note_on_c, 7, 40, 61
9, 232339, Note_off_c, 7, 40, 64
9, 232756, Control_c, 7, 11, 86
9, 232780, Control_c, 7, 11, 89
9, 232797, Note_on_c, 7, 42, 77
9, 232805, Control_c, 7, 11, 93
9, 232829, Control_c, 7, 11, 97
9, 232854, Control_c, 7, 11, 100
9, 232878, Control_c, 7, 11, 104
9, 232903, Control_c, 7, 11, 108
9, 232927, Control_c, 7, 11, 112
9, 232956, Control_c, 7, 11, 106
9, 232991, Control_c, 7, 11, 100
9, 233030, Note_off_c, 7, 42, 64
9, 233042, Note_on_c, 7, 40, 53
9, 233159, Note_off_c, 7, 40, 64
9, 233281, Note_on_c, 7, 42, 69
9, 233398, Note_off_c, 7, 42, 64
9, 233500, Control_c, 7, 11, 80
9, 233525, Note_on_c, 7, 35, 92
9, 233525, Control_c, 7, 11, 85
9, 233550, Control_c, 7, 11, 91
9, 233575, Control_c, 7, 11, 97
9, 233600, Control_c, 7, 11, 103
9, 233625, Control_c, 7, 11, 109
9, 233650, Control_c, 7, 11, 115
9, 233675, Control_c, 7, 11, 121
9, 233699, Control_c, 7, 11, 127
9, 233720, Control_c, 7, 11, 116
9, 233746, Control_c, 7, 11, 104
9, 233772, Control_c, 7, 11, 93
9, 233798, Control_c, 7, 11, 81
9, 233823, Note_off_c, 7, 35, 64
9, 233823, Control_c, 7, 11, 70
9, 233896, Control_c, 7, 11, 100
9, 233989, Note_on_c, 7, 37, 68
9, 234094, Note_off_c, 7, 37, 64
9, 234235, Note_on_c, 7, 39, 75
9, 234415, Note_off_c, 7, 39, 64
9, 234477, Note_on_c, 7, 37, 59
9, 234595, Note_off_c, 7, 37, 64
9, 234720, Note_on_c, 7, 35, 75
9, 234817, Note_off_c, 7, 35, 64
9, 234962, Note_on_c, 7, 42, 86
9, 235074, Note_off_c, 7, 42, 64
9, 235201, Note_on_c, 7, 44, 71
9, 235305, Note_off_c, 7, 44, 64
9, 235438, Note_on_c, 7, 46, 73
9, 235543, Note_off_c, 7, 46, 64
9, 235656, Control_c, 7, 11, 80
9, 235677, Note_on_c, 7, 47, 59
9, 235681, Control_c, 7, 11, 85
9, 235707, Control_c, 7, 11, 90
9, 235732, Control_c, 7, 11, 95
9, 235758, Control_c, 7, 11, 100
9, 235783, Control_c, 7, 11, 106
9, 235809, Control_c, 7, 11, 111
9, 235834, Control_c, 7, 11, 116
9, 235859, Control_c, 7, 11, 122
9, 235908, Control_c, 7, 11, 114
9, 235937, Control_c, 7, 11, 98
9, 235966, Control_c, 7, 11, 83
9, 235991, Note_off_c, 7, 47, 64
9, 235995, Control_c, 7, 11, 68
9, 236092, Control_c, 7, 11, 100
9, 236384, Control_c, 7, 11, 78
9, 236396, Note_on_c, 7, 54, 54
9, 236408, Control_c, 7, 11, 82
9, 236433, Control_c, 7, 11, 86
9, 236458, Control_c, 7, 11, 91
9, 236483, Control_c, 7, 11, 95
9, 236508, Control_c, 7, 11, 99
9, 236532, Control_c, 7, 11, 104
9, 236557, Control_c, 7, 11, 108
9, 236582, Control_c, 7, 11, 113
9, 236607, Control_c, 7, 11, 117
9, 236631, Control_c, 7, 11, 122
9, 236656, Control_c, 7, 11, 114
9, 236684, Control_c, 7, 11, 98
9, 236712, Control_c, 7, 11, 83
9, 236739, Control_c, 7, 11, 68
9, 236749, Note_off_c, 7, 54, 64
9, 236804, Control_c, 7, 11, 100
9, 237096, Control_c, 7, 11, 74
9, 237118, Note_on_c, 7, 47, 58
9, 237120, Control_c, 7, 11, 78
9, 237144, Control_c, 7, 11, 83
9, 237169, Control_c, 7, 11, 88
9, 237193, Control_c, 7, 11, 93
9, 237218, Control_c, 7, 11, 98
9, 237242, Control_c, 7, 11, 103
9, 237267, Control_c, 7, 11, 108
9, 237291, Control_c, 7, 11, 112
9, 237315, Control_c, 7, 11, 118
9, 237336, Control_c, 7, 11, 106
9, 237362, Control_c, 7, 11, 95
9, 237388, Control_c, 7, 11, 84
9, 237414, Control_c, 7, 11, 73
9, 237439, Control_c, 7, 11, 62
9, 237448, Note_off_c, 7, 47, 64
9, 237560, Control_c, 7, 11, 100
9, 237816, Control_c, 7, 11, 76
9, 237840, Note_on_c, 7, 42, 53
9, 237840, Control_c, 7, 11, 80
9, 237865, Control_c, 7, 11, 85
9, 237890, Control_c, 7, 11, 90
9, 237915, Control_c, 7, 11, 95
9, 237940, Control_c, 7, 11, 100
9, 237965, Control_c, 7, 11, 105
9, 237990, Control_c, 7, 11, 110
9, 238015, Control_c, 7, 11, 115
9, 238039, Control_c, 7, 11, 120
9, 238092, Control_c, 7, 11, 108
9, 238119, Control_c, 7, 11, 94
9, 238146, Control_c, 7, 11, 80
9, 238163, Note_off_c, 7, 42, 64
9, 238173, Control_c, 7, 11, 66
9, 238199, Control_c, 7, 11, 52
9, 238272, Control_c, 7, 11, 100
9, 238560, Note_on_c, 7, 47, 108
9, 238667, Note_off_c, 7, 47, 64
9, 238681, Note_on_c, 7, 46, 86
9, 238753, Note_off_c, 7, 46, 64
9, 238795, Note_on_c, 7, 47, 91
9, 238858, Note_off_c, 7, 47, 64
9, 238911, Note_on_c, 7, 49, 97
9, 238975, Note_off_c, 7, 49, 64
9, 239030, Note_on_c, 7, 51, 101
9, 239111, Note_off_c, 7, 51, 64
9, 239146, Note_on_c, 7, 52, 84
9, 239208, Note_off_c, 7, 52, 64
9, 239273, Note_on_c, 7, 54, 110
9, 239366, Note_off_c, 7, 54, 64
9, 239387, Note_on_c, 7, 56, 73
9, 239457, Note_off_c, 7, 56, 64
9, 239509, Note_on_c, 7, 54, 92
9, 239581, Note_off_c, 7, 54, 64
9, 239628, Note_on_c, 7, 52, 97
9, 239696, Note_off_c, 7, 52, 64
9, 239746, Note_on_c, 7, 51, 99
9, 239824, Note_off_c, 7, 51, 64
9, 239858, Note_on_c, 7, 49, 80
9, 239917, Note_off_c, 7, 49, 64
9, 239992, Note_on_c, 7, 47, 92
9, 240078, Note_off_c, 7, 47, 64
9, 240113, Note_on_c, 7, 46, 74
9, 240184, Note_off_c, 7, 46, 64
9, 240227, Note_on_c, 7, 47, 78
9, 240305, Note_off_c, 7, 47, 64
9, 240347, Note_on_c, 7, 49, 88
9, 240415, Note_off_c, 7, 49, 64
9, 240469, Note_on_c, 7, 51, 99
9, 240535, Note_off_c, 7, 51, 64
9, 240577, Note_on_c, 7, 47, 82
9, 240652, Note_off_c, 7, 47, 64
9, 240713, Note_on_c, 7, 53, 107
9, 240795, Note_off_c, 7, 53, 64
9, 240830, Note_on_c, 7, 54, 78
9, 240907, Note_off_c, 7, 54, 64
9, 240949, Note_on_c, 7, 53, 89
9, 241019, Note_off_c, 7, 53, 64
9, 241064, Note_on_c, 7, 51, 89
9, 241145, Note_off_c, 7, 51, 64
9, 241187, Note_on_c, 7, 49, 99
9, 241254, Note_off_c, 7, 49, 64
9, 241297, Note_on_c, 7, 47, 82
9, 241362, Note_off_c, 7, 47, 64
9, 241431, Note_on_c, 7, 46, 102
9, 241520, Note_off_c, 7, 46, 64
9, 241551, Note_on_c, 7, 44, 85
9, 241623, Note_off_c, 7, 44, 64
9, 241667, Note_on_c, 7, 46, 77
9, 241744, Note_off_c, 7, 46, 64
9, 241790, Note_on_c, 7, 47, 93
9, 241859, Note_off_c, 7, 47, 64
9, 241912, Note_on_c, 7, 49, 93
9, 241972, Note_off_c, 7, 49, 64
9, 242019, Note_on_c, 7, 46, 85
9, 242088, Note_off_c, 7, 46, 64
9, 242154, Note_on_c, 7, 51, 108
9, 242246, Note_off_c, 7, 51, 64
9, 242273, Note_on_c, 7, 53, 76
9, 242331, Note_off_c, 7, 53, 64
9, 242393, Note_on_c, 7, 51, 90
9, 242466, Note_off_c, 7, 51, 64
9, 242507, Note_on_c, 7, 49, 91
9, 242582, Note_off_c, 7, 49, 64
9, 242627, Note_on_c, 7, 47, 99
9, 242694, Note_off_c, 7, 47, 64
9, 242737, Note_on_c, 7, 46, 80
9, 242797, Note_off_c, 7, 46, 64
9, 242871, Note_on_c, 7, 44, 92
9, 242961, Note_off_c, 7, 44, 64
9, 242991, Note_on_c, 7, 42, 71
9, 243058, Note_off_c, 7, 42, 64
9, 243108, Note_on_c, 7, 44, 79
9, 243187, Note_off_c, 7, 44, 64
9, 243231, Note_on_c, 7, 46, 93
9, 243298, Note_off_c, 7, 46, 64
9, 243353, Note_on_c, 7, 47, 96
9, 243416, Note_off_c, 7, 47, 64
9, 243458, Note_on_c, 7, 44, 85
9, 243530, Note_off_c, 7, 44, 64
9, 243593, Note_on_c, 7, 49, 105
9, 243684, Note_off_c, 7, 49, 64
9, 243712, Note_on_c, 7, 51, 78
9, 243774, Note_off_c, 7, 51, 64
9, 243832, Note_on_c, 7, 49, 85
9, 243902, Note_off_c, 7, 49, 64
9, 243947, Note_on_c, 7, 47, 89
9, 244015, Note_off_c, 7, 47, 64
9, 244069, Note_on_c, 7, 46, 96
9, 244133, Note_off_c, 7, 46, 64
9, 244175, Note_on_c, 7, 44, 76
9, 244242, Note_off_c, 7, 44, 64
9, 244309, Note_on_c, 7, 42, 71
9, 244506, Note_off_c, 7, 42, 64
9, 245032, Note_on_c, 7, 37, 73
9, 245205, Note_off_c, 7, 37, 64
9, 245756, Note_on_c, 7, 42, 68
9, 245904, Note_off_c, 7, 42, 64
9, 246474, Note_on_c, 7, 49, 73
9, 246624, Note_off_c, 7, 49, 64
9, 247193, Note_on_c, 7, 54, 105
9, 247317, Note_off_c, 7, 54, 64
9, 247437, Note_on_c, 7, 58, 80
9, 247532, Note_off_c, 7, 58, 64
9, 247675, Note_on_c, 7, 61, 80
9, 247753, Note_off_c, 7, 61, 64
9, 247916, Note_on_c, 7, 49, 102
9, 248047, Note_off_c, 7, 49, 64
9, 248154, Note_on_c, 7, 56, 80
9, 248230, Note_off_c, 7, 56, 64
9, 248393, Note_on_c, 7, 61, 80
9, 248461, Note_off_c, 7, 61, 64
9, 248641, Note_on_c, 7, 42, 110
9, 248729, Note_off_c, 7, 42, 64
9, 248756, Note_on_c, 7, 41, 71
9, 248828, Note_off_c, 7, 41, 64
9, 248874, Note_on_c, 7, 42, 84
9, 248944, Note_off_c, 7, 42, 64
9, 248995, Note_on_c, 7, 44, 89
9, 249055, Note_off_c, 7, 44, 64
9, 249116, Note_on_c, 7, 46, 105
9, 249176, Note_off_c, 7, 46, 64
9, 249218, Note_on_c, 7, 47, 82
9, 249277, Note_off_c, 7, 47, 64
9, 249358, Note_on_c, 7, 49, 109
9, 249457, Note_off_c, 7, 49, 64
9, 249475, Note_on_c, 7, 51, 78
9, 249559, Note_off_c, 7, 51, 64
9, 249597, Note_on_c, 7, 49, 84
9, 249656, Note_off_c, 7, 49, 64
9, 249713, Note_on_c, 7, 47, 88
9, 249784, Note_off_c, 7, 47, 64
9, 249837, Note_on_c, 7, 46, 99
9, 249896, Note_off_c, 7, 46, 64
9, 249938, Note_on_c, 7, 44, 82
9, 250001, Note_off_c, 7, 44, 64
9, 250076, Note_on_c, 7, 42, 96
9, 250174, Note_off_c, 7, 42, 64
9, 250197, Note_on_c, 7, 41, 69
9, 250273, Note_off_c, 7, 41, 64
9, 250315, Note_on_c, 7, 42, 81
9, 250391, Note_off_c, 7, 42, 64
9, 250434, Note_on_c, 7, 44, 88
9, 250497, Note_off_c, 7, 44, 64
9, 250553, Note_on_c, 7, 46, 105
9, 250613, Note_off_c, 7, 46, 64
9, 250652, Note_on_c, 7, 42, 82
9, 250727, Note_off_c, 7, 42, 64
9, 250796, Note_on_c, 7, 47, 105
9, 250875, Note_off_c, 7, 47, 64
9, 250912, Note_on_c, 7, 49, 72
9, 250972, Note_off_c, 7, 49, 64
9, 251033, Note_on_c, 7, 47, 86
9, 251108, Note_off_c, 7, 47, 64
9, 251149, Note_on_c, 7, 46, 84
9, 251223, Note_off_c, 7, 46, 64
9, 251271, Note_on_c, 7, 44, 99
9, 251342, Note_off_c, 7, 44, 64
9, 251373, Note_on_c, 7, 42, 78
9, 251444, Note_off_c, 7, 42, 64
9, 251515, Note_on_c, 7, 41, 97
9, 251606, Note_off_c, 7, 41, 64
9, 251635, Note_on_c, 7, 39, 74
9, 251710, Note_off_c, 7, 39, 64
9, 251755, Note_on_c, 7, 41, 84
9, 251824, Note_off_c, 7, 41, 64
9, 251871, Note_on_c, 7, 42, 86
9, 251947, Note_off_c, 7, 42, 64
9, 251993, Note_on_c, 7, 44, 103
9, 252052, Note_off_c, 7, 44, 64
9, 252095, Note_on_c, 7, 41, 74
9, 252153, Note_off_c, 7, 41, 64
9, 252239, Note_on_c, 7, 46, 102
9, 252328, Note_off_c, 7, 46, 64
9, 252355, Note_on_c, 7, 47, 74
9, 252435, Note_off_c, 7, 47, 64
9, 252474, Note_on_c, 7, 46, 78
9, 252543, Note_off_c, 7, 46, 64
9, 252590, Note_on_c, 7, 44, 91
9, 252659, Note_off_c, 7, 44, 64
9, 252711, Note_on_c, 7, 42, 103
9, 252778, Note_off_c, 7, 42, 64
9, 252812, Note_on_c, 7, 41, 74
9, 252881, Note_off_c, 7, 41, 64
9, 252951, Note_on_c, 7, 39, 105
9, 253058, Note_off_c, 7, 39, 64
9, 253077, Note_on_c, 7, 37, 65
9, 253159, Note_off_c, 7, 37, 64
9, 253195, Note_on_c, 7, 39, 74
9, 253268, Note_off_c, 7, 39, 64
9, 253312, Note_on_c, 7, 41, 93
9, 253375, Note_off_c, 7, 41, 64
9, 253431, Note_on_c, 7, 42, 99
9, 253498, Note_off_c, 7, 42, 64
9, 253530, Note_on_c, 7, 39, 71
9, 253592, Note_off_c, 7, 39, 64
9, 253668, Note_on_c, 7, 44, 107
9, 253744, Note_off_c, 7, 44, 64
9, 253788, Note_on_c, 7, 46, 71
9, 253856, Note_off_c, 7, 46, 64
9, 253912, Note_on_c, 7, 44, 90
9, 253979, Note_off_c, 7, 44, 64
9, 254027, Note_on_c, 7, 42, 86
9, 254102, Note_off_c, 7, 42, 64
9, 254149, Note_on_c, 7, 41, 97
9, 254206, Note_off_c, 7, 41, 64
9, 254251, Note_on_c, 7, 39, 69
9, 254318, Note_off_c, 7, 39, 64
9, 254394, Note_on_c, 7, 37, 61
9, 254526, Note_off_c, 7, 37, 64
9, 254631, Note_on_c, 7, 37, 45
9, 254727, Note_off_c, 7, 37, 64
9, 254875, Note_on_c, 7, 37, 53
9, 254977, Note_off_c, 7, 37, 64
9, 255118, Note_on_c, 7, 37, 63
9, 255261, Note_off_c, 7, 37, 64
9, 255363, Note_on_c, 7, 37, 48
9, 255472, Note_off_c, 7, 37, 64
9, 255605, Note_on_c, 7, 37, 61
9, 255703, Note_off_c, 7, 37, 64
9, 255838, Note_on_c, 7, 37, 68
9, 255974, Note_off_c, 7, 37, 64
9, 256079, Note_on_c, 7, 37, 51
9, 256195, Note_off_c, 7, 37, 64
9, 256316, Note_on_c, 7, 37, 69
9, 256429, Note_off_c, 7, 37, 64
9, 256555, Note_on_c, 7, 37, 76
9, 256686, Note_off_c, 7, 37, 64
9, 256796, Note_on_c, 7, 37, 63
9, 256885, Note_off_c, 7, 37, 64
9, 257031, Note_on_c, 7, 37, 75
9, 257139, Note_off_c, 7, 37, 64
9, 257274, Note_on_c, 7, 37, 82
9, 257402, Note_off_c, 7, 37, 64
9, 257514, Note_on_c, 7, 37, 68
9, 257614, Note_off_c, 7, 37, 64
9, 257749, Note_on_c, 7, 37, 83
9, 257854, Note_off_c, 7, 37, 64
9, 257991, Note_on_c, 7, 37, 89
9, 258114, Note_off_c, 7, 37, 64
9, 258234, Note_on_c, 7, 37, 71
9, 258313, Note_off_c, 7, 37, 64
9, 258475, Note_on_c, 7, 37, 87
9, 258560, Note_off_c, 7, 37, 64
9, 258712, Note_on_c, 7, 37, 92
9, 258863, Note_off_c, 7, 37, 64
9, 258957, Note_on_c, 7, 37, 78
9, 259054, Note_off_c, 7, 37, 64
9, 259196, Note_on_c, 7, 37, 90
9, 259286, Note_off_c, 7, 37, 64
9, 259435, Note_on_c, 7, 37, 99
9, 259539, Note_off_c, 7, 37, 64
9, 259673, Note_on_c, 7, 37, 82
9, 259772, Note_off_c, 7, 37, 64
9, 259912, Note_on_c, 7, 37, 93
9, 260011, Note_off_c, 7, 37, 64
9, 260155, Note_on_c, 7, 37, 111
9, 260298, Note_off_c, 7, 37, 64
9, 260395, Note_on_c, 7, 41, 76
9, 260482, Note_off_c, 7, 41, 64
9, 260632, Note_on_c, 7, 44, 92
9, 260712, Note_off_c, 7, 44, 64
9, 260879, Note_on_c, 7, 41, 111
9, 260987, Note_off_c, 7, 41, 64
9, 261121, Note_on_c, 7, 44, 82
9, 261211, Note_off_c, 7, 44, 64
9, 261358, Note_on_c, 7, 49, 99
9, 261446, Note_off_c, 7, 49, 64
9, 261602, Note_on_c, 7, 42, 103
9, 261727, Note_off_c, 7, 42, 64
9, 261843, Note_on_c, 7, 46, 84
9, 261932, Note_off_c, 7, 46, 64
9, 262077, Note_on_c, 7, 49, 105
9, 262174, Note_off_c, 7, 49, 64
9, 262314, Note_on_c, 7, 46, 111
9, 262438, Note_off_c, 7, 46, 64
9, 262555, Note_on_c, 7, 49, 89
9, 262643, Note_off_c, 7, 49, 64
9, 262790, Note_on_c, 7, 54, 91
9, 262871, Note_off_c, 7, 54, 64
9, 263012, Control_c, 7, 11, 76
9, 263035, Note_on_c, 7, 35, 77
9, 263038, Control_c, 7, 11, 81
9, 263064, Control_c, 7, 11, 86
9, 263090, Control_c, 7, 11, 91
9, 263116, Control_c, 7, 11, 96
9, 263142, Control_c, 7, 11, 101
9, 263168, Control_c, 7, 11, 106
9, 263194, Control_c, 7, 11, 111
9, 263220, Control_c, 7, 11, 116
9, 263246, Control_c, 7, 11, 121
9, 263271, Control_c, 7, 11, 127
9, 263288, Control_c, 7, 11, 124
9, 263316, Control_c, 7, 11, 112
9, 263344, Control_c, 7, 11, 100
9, 263372, Control_c, 7, 11, 88
9, 263400, Control_c, 7, 11, 76
9, 263427, Note_off_c, 7, 35, 64
9, 263427, Control_c, 7, 11, 64
9, 263512, Control_c, 7, 11, 100
9, 264456, Control_c, 7, 11, 72
9, 264476, Note_on_c, 7, 47, 75
9, 264480, Control_c, 7, 11, 77
9, 264505, Control_c, 7, 11, 84
9, 264530, Control_c, 7, 11, 90
9, 264555, Control_c, 7, 11, 96
9, 264580, Control_c, 7, 11, 102
9, 264605, Control_c, 7, 11, 108
9, 264630, Control_c, 7, 11, 114
9, 264655, Control_c, 7, 11, 120
9, 264679, Control_c, 7, 11, 127
9, 264700, Control_c, 7, 11, 118
9, 264726, Control_c, 7, 11, 105
9, 264752, Control_c, 7, 11, 92
9, 264778, Control_c, 7, 11, 79
9, 264803, Control_c, 7, 11, 66
9, 264812, Note_off_c, 7, 47, 64
9, 264916, Control_c, 7, 11, 100
9, 265917, Note_on_c, 7, 46, 93
9, 266111, Note_off_c, 7, 46, 64
9, 266164, Note_on_c, 7, 44, 69
9, 266253, Note_off_c, 7, 44, 64
9, 266402, Note_on_c, 7, 42, 79
9, 266483, Note_off_c, 7, 42, 64
9, 266616, Control_c, 7, 11, 74
9, 266640, Control_c, 7, 11, 80
9, 266642, Note_on_c, 7, 49, 101
9, 266665, Control_c, 7, 11, 86
9, 266689, Control_c, 7, 11, 93
9, 266714, Control_c, 7, 11, 99
9, 266738, Control_c, 7, 11, 106
9, 266763, Control_c, 7, 11, 112
9, 266787, Control_c, 7, 11, 119
9, 266811, Control_c, 7, 11, 126
9, 266824, Control_c, 7, 11, 120
9, 266852, Control_c, 7, 11, 105
9, 266880, Control_c, 7, 11, 90
9, 266907, Control_c, 7, 11, 76
9, 266928, Note_off_c, 7, 49, 64
9, 266964, Control_c, 7, 11, 100
9, 267107, Note_on_c, 7, 37, 63
9, 267173, Note_off_c, 7, 37, 64
9, 267280, Control_c, 7, 11, 42
9, 267304, Control_c, 7, 11, 44
9, 267329, Control_c, 7, 11, 46
9, 267354, Control_c, 7, 11, 49
9, 267355, Note_on_c, 7, 42, 81
9, 267379, Control_c, 7, 11, 51
9, 267404, Control_c, 7, 11, 54
9, 267429, Control_c, 7, 11, 56
9, 267453, Control_c, 7, 11, 59
9, 267478, Control_c, 7, 11, 61
9, 267503, Control_c, 7, 11, 64
9, 267528, Control_c, 7, 11, 66
9, 267553, Control_c, 7, 11, 69
9, 267577, Control_c, 7, 11, 71
9, 267602, Control_c, 7, 11, 74
9, 267627, Control_c, 7, 11, 76
9, 267652, Control_c, 7, 11, 79
9, 267677, Control_c, 7, 11, 81
9, 267702, Control_c, 7, 11, 84
9, 267726, Control_c, 7, 11, 86
9, 267751, Control_c, 7, 11, 89
9, 267776, Control_c, 7, 11, 91
9, 267801, Control_c, 7, 11, 94
9, 267826, Control_c, 7, 11, 96
9, 267850, Control_c, 7, 11, 99
9, 267875, Control_c, 7, 11, 101
9, 267900, Control_c, 7, 11, 104
9, 267925, Control_c, 7, 11, 106
9, 267950, Control_c, 7, 11, 109
9, 267975, Control_c, 7, 11, 111
9, 267999, Control_c, 7, 11, 114
9, 268024, Control_c, 7, 11, 116
9, 268049, Control_c, 7, 11, 119
9, 268074, Control_c, 7, 11, 121
9, 268099, Control_c, 7, 11, 124
9, 268108, Control_c, 7, 11, 124
9, 268132, Control_c, 7, 11, 120
9, 268156, Control_c, 7, 11, 117
9, 268181, Control_c, 7, 11, 114
9, 268205, Control_c, 7, 11, 111
9, 268230, Control_c, 7, 11, 108
9, 268254, Control_c, 7, 11, 105
9, 268279, Control_c, 7, 11, 102
9, 268303, Control_c, 7, 11, 99
9, 268328, Control_c, 7, 11, 96
9, 268352, Control_c, 7, 11, 93
9, 268376, Control_c, 7, 11, 89
9, 268401, Control_c, 7, 11, 86
9, 268425, Control_c, 7, 11, 83
9, 268450, Control_c, 7, 11, 80
9, 268474, Control_c, 7, 11, 77
9, 268499, Control_c, 7, 11, 74
9, 268523, Control_c, 7, 11, 71
9, 268547, Control_c, 7, 11, 68
9, 268566, Control_c, 7, 11, 49
9, 268591, Control_c, 7, 11, 40
9, 268606, Note_off_c, 7, 42, 64
9, 268736, Control_c, 7, 11, 100
9, 268800, Note_on_c, 7, 49, 108
9, 268911, Note_off_c, 7, 49, 64
9, 268921, Note_on_c, 7, 48, 72
9, 268997, Note_off_c, 7, 48, 64
9, 269039, Note_on_c, 7, 49, 72
9, 269112, Note_off_c, 7, 49, 64
9, 269155, Note_on_c, 7, 51, 84
9, 269227, Note_off_c, 7, 51, 64
9, 269275, Note_on_c, 7, 53, 97
9, 269346, Note_off_c, 7, 53, 64
9, 269377, Note_on_c, 7, 54, 74
9, 269450, Note_off_c, 7, 54, 64
9, 269513, Note_on_c, 7, 56, 102
9, 269609, Note_off_c, 7, 56, 64
9, 269631, Note_on_c, 7, 58, 76
9, 269704, Note_off_c, 7, 58, 64
9, 269753, Note_on_c, 7, 56, 76
9, 269823, Note_off_c, 7, 56, 64
9, 269869, Note_on_c, 7, 54, 86
9, 269944, Note_off_c, 7, 54, 64
9, 269988, Note_on_c, 7, 53, 101
9, 270056, Note_off_c, 7, 53, 64
9, 270091, Note_on_c, 7, 51, 74
9, 270163, Note_off_c, 7, 51, 64
9, 270233, Note_on_c, 7, 53, 107
9, 270337, Note_off_c, 7, 53, 64
9, 270352, Note_on_c, 7, 56, 78
9, 270424, Note_off_c, 7, 56, 64
9, 270470, Note_on_c, 7, 54, 78
9, 270540, Note_off_c, 7, 54, 64
9, 270592, Note_on_c, 7, 53, 86
9, 270659, Note_off_c, 7, 53, 64
9, 270710, Note_on_c, 7, 51, 96
9, 270785, Note_off_c, 7, 51, 64
9, 270811, Note_on_c, 7, 49, 84
9, 270881, Note_off_c, 7, 49, 64
9, 270951, Note_on_c, 7, 48, 107
9, 271036, Note_off_c, 7, 48, 64
9, 271071, Note_on_c, 7, 51, 73
9, 271141, Note_off_c, 7, 51, 64
9, 271191, Note_on_c, 7, 49, 79
9, 271259, Note_off_c, 7, 49, 64
9, 271311, Note_on_c, 7, 48, 89
9, 271386, Note_off_c, 7, 48, 64
9, 271431, Note_on_c, 7, 46, 101
9, 271504, Note_off_c, 7, 46, 64
9, 271534, Note_on_c, 7, 44, 83
9, 271603, Note_off_c, 7, 44, 64
9, 271673, Note_on_c, 7, 51, 94
9, 271801, Note_off_c, 7, 51, 64
9, 271913, Note_on_c, 7, 54, 65
9, 271992, Note_off_c, 7, 54, 64
9, 272152, Note_on_c, 7, 58, 71
9, 272223, Note_off_c, 7, 58, 64
9, 272397, Note_on_c, 7, 50, 107
9, 272512, Note_off_c, 7, 50, 64
9, 272637, Note_on_c, 7, 53, 69
9, 272697, Note_off_c, 7, 53, 64
9, 272879, Note_on_c, 7, 58, 76
9, 272966, Note_off_c, 7, 58, 64
9, 273124, Note_on_c, 7, 51, 93
9, 273250, Note_off_c, 7, 51, 64
9, 273359, Note_on_c, 7, 54, 71
9, 273437, Note_off_c, 7, 54, 64
9, 273601, Note_on_c, 7, 58, 80
9, 273674, Note_off_c, 7, 58, 64
9, 273841, Note_on_c, 7, 46, 99
9, 273974, Note_off_c, 7, 46, 64
9, 274079, Note_on_c, 7, 53, 86
9, 274153, Note_off_c, 7, 53, 64
9, 274317, Note_on_c, 7, 58, 74
9, 274392, Note_off_c, 7, 58, 64
9, 274557, Note_on_c, 7, 42, 54
9, 274822, Note_off_c, 7, 42, 64
9, 275281, Note_on_c, 7, 44, 54
9, 275539, Note_off_c, 7, 44, 64
9, 275999, Note_on_c, 7, 46, 54
9, 276269, Note_off_c, 7, 46, 64
9, 276715, Note_on_c, 7, 47, 59
9, 276995, Note_off_c, 7, 47, 64
9, 277441, Note_on_c, 7, 42, 49
9, 277728, Note_off_c, 7, 42, 64
9, 278155, Note_on_c, 7, 44, 54
9, 278459, Note_off_c, 7, 44, 64
9, 278875, Note_on_c, 7, 46, 88
9, 279110, Note_off_c, 7, 46, 64
9, 279119, Note_on_c, 7, 44, 56
9, 279214, Note_off_c, 7, 44, 64
9, 279363, Note_on_c, 7, 46, 63
9, 279454, Note_off_c, 7, 46, 64
9, 279605, Note_on_c, 7, 39, 88
9, 279781, Note_off_c, 7, 39, 64
9, 279842, Note_on_c, 7, 42, 65
9, 279915, Note_off_c, 7, 42, 64
9, 280077, Note_on_c, 7, 46, 77
9, 280162, Note_off_c, 7, 46, 64
9, 280324, Note_on_c, 7, 51, 60
9, 280546, Note_off_c, 7, 51, 64
9, 284640, Note_on_c, 7, 51, 96
9, 284753, Note_off_c, 7, 51, 64
9, 284761, Note_on_c, 7, 50, 78
9, 284850, Note_off_c, 7, 50, 64
9, 284876, Note_on_c, 7, 51, 78
9, 284948, Note_off_c, 7, 51, 64
9, 284991, Note_on_c, 7, 53, 88
9, 285067, Note_off_c, 7, 53, 64
9, 285110, Note_on_c, 7, 54, 99
9, 285182, Note_off_c, 7, 54, 64
9, 285217, Note_on_c, 7, 56, 80
9, 285290, Note_off_c, 7, 56, 64
9, 285347, Note_on_c, 7, 58, 108
9, 285452, Note_off_c, 7, 58, 64
9, 285471, Note_on_c, 7, 59, 73
9, 285561, Note_off_c, 7, 59, 64
9, 285593, Note_on_c, 7, 58, 85
9, 285675, Note_off_c, 7, 58, 64
9, 285709, Note_on_c, 7, 56, 92
9, 285781, Note_off_c, 7, 56, 64
9, 285826, Note_on_c, 7, 54, 101
9, 285903, Note_off_c, 7, 54, 64
9, 285932, Note_on_c, 7, 53, 72
9, 285997, Note_off_c, 7, 53, 64
9, 286069, Note_on_c, 7, 51, 99
9, 286163, Note_off_c, 7, 51, 64
9, 286189, Note_on_c, 7, 50, 71
9, 286267, Note_off_c, 7, 50, 64
9, 286308, Note_on_c, 7, 51, 71
9, 286406, Note_off_c, 7, 51, 64
9, 286428, Note_on_c, 7, 53, 91
9, 286508, Note_off_c, 7, 53, 64
9, 286545, Note_on_c, 7, 54, 92
9, 286612, Note_off_c, 7, 54, 64
9, 286656, Note_on_c, 7, 51, 71
9, 286726, Note_off_c, 7, 51, 64
9, 286787, Note_on_c, 7, 56, 96
9, 286874, Note_off_c, 7, 56, 64
9, 286908, Note_on_c, 7, 58, 72
9, 286983, Note_off_c, 7, 58, 64
9, 287029, Note_on_c, 7, 56, 82
9, 287107, Note_off_c, 7, 56, 64
9, 287146, Note_on_c, 7, 54, 89
9, 287208, Note_off_c, 7, 54, 64
9, 287267, Note_on_c, 7, 53, 99
9, 287332, Note_off_c, 7, 53, 64
9, 287375, Note_on_c, 7, 51, 74
9, 287440, Note_off_c, 7, 51, 64
9, 287510, Note_on_c, 7, 49, 93
9, 287608, Note_off_c, 7, 49, 64
9, 287629, Note_on_c, 7, 48, 68
9, 287696, Note_off_c, 7, 48, 64
9, 287747, Note_on_c, 7, 49, 77
9, 287821, Note_off_c, 7, 49, 64
9, 287862, Note_on_c, 7, 51, 82
9, 287932, Note_off_c, 7, 51, 64
9, 287984, Note_on_c, 7, 53, 103
9, 288059, Note_off_c, 7, 53, 64
9, 288099, Note_on_c, 7, 49, 80
9, 288174, Note_off_c, 7, 49, 64
9, 288234, Note_on_c, 7, 54, 103
9, 288343, Note_off_c, 7, 54, 64
9, 288354, Note_on_c, 7, 56, 68
9, 288454, Note_off_c, 7, 56, 64
9, 288473, Note_on_c, 7, 54, 80
9, 288556, Note_off_c, 7, 54, 64
9, 288590, Note_on_c, 7, 53, 91
9, 288660, Note_off_c, 7, 53, 64
9, 288709, Note_on_c, 7, 51, 97
9, 288768, Note_off_c, 7, 51, 64
9, 288820, Note_on_c, 7, 49, 72
9, 288885, Note_off_c, 7, 49, 64
9, 288953, Note_on_c, 7, 48, 107
9, 289054, Note_off_c, 7, 48, 64
9, 289071, Note_on_c, 7, 46, 73
9, 289157, Note_off_c, 7, 46, 64
9, 289191, Note_on_c, 7, 48, 80
9, 289265, Note_off_c, 7, 48, 64
9, 289311, Note_on_c, 7, 49, 92
9, 289381, Note_off_c, 7, 49, 64
9, 289432, Note_on_c, 7, 51, 101
9, 289510, Note_off_c, 7, 51, 64
9, 289540, Note_on_c, 7, 48, 69
9, 289604, Note_off_c, 7, 48, 64
9, 289674, Note_on_c, 7, 53, 91
9, 289755, Note_off_c, 7, 53, 64
9, 289792, Note_on_c, 7, 54, 65
9, 289873, Note_off_c, 7, 54, 64
9, 289907, Note_on_c, 7, 53, 74
9, 289978, Note_off_c, 7, 53, 64
9, 290028, Note_on_c, 7, 51, 80
9, 290101, Note_off_c, 7, 51, 64
9, 290150, Note_on_c, 7, 49, 92
9, 290223, Note_off_c, 7, 49, 64
9, 290263, Note_on_c, 7, 48, 72
9, 290327, Note_off_c, 7, 48, 64
9, 290394, Note_on_c, 7, 46, 51
9, 290645, Note_off_c, 7, 46, 64
9, 291115, Note_on_c, 7, 41, 51
9, 291356, Note_off_c, 7, 41, 64
9, 291834, Note_on_c, 7, 46, 52
9, 292083, Note_off_c, 7, 46, 64
9, 292555, Note_on_c, 7, 53, 51
9, 292801, Note_off_c, 7, 53, 64
9, 293284, Note_on_c, 7, 46, 81
9, 293403, Note_off_c, 7, 46, 64
9, 293526, Note_on_c, 7, 49, 50
9, 293595, Note_off_c, 7, 49, 64
9, 293758, Note_on_c, 7, 53, 54
9, 293837, Note_off_c, 7, 53, 64
9, 293997, Note_on_c, 7, 45, 87
9, 294115, Note_off_c, 7, 45, 64
9, 294235, Note_on_c, 7, 48, 51
9, 294295, Note_off_c, 7, 48, 64
9, 294471, Note_on_c, 7, 53, 57
9, 294542, Note_off_c, 7, 53, 64
9, 294720, Note_on_c, 7, 46, 97
9, 294838, Note_on_c, 7, 45, 75
9, 294839, Note_off_c, 7, 46, 64
9, 294930, Note_off_c, 7, 45, 64
9, 294956, Note_on_c, 7, 46, 83
9, 295033, Note_off_c, 7, 46, 64
9, 295073, Note_on_c, 7, 48, 92
9, 295138, Note_off_c, 7, 48, 64
9, 295189, Note_on_c, 7, 49, 97
9, 295268, Note_off_c, 7, 49, 64
9, 295301, Note_on_c, 7, 51, 75
9, 295376, Note_off_c, 7, 51, 64
9, 295433, Note_on_c, 7, 53, 97
9, 295526, Note_off_c, 7, 53, 64
9, 295550, Note_on_c, 7, 54, 84
9, 295633, Note_off_c, 7, 54, 64
9, 295669, Note_on_c, 7, 53, 87
9, 295735, Note_off_c, 7, 53, 64
9, 295788, Note_on_c, 7, 51, 92
9, 295861, Note_off_c, 7, 51, 64
9, 295905, Note_on_c, 7, 49, 97
9, 295974, Note_off_c, 7, 49, 64
9, 296018, Note_on_c, 7, 48, 75
9, 296084, Note_off_c, 7, 48, 64
9, 296153, Note_on_c, 7, 46, 97
9, 296257, Note_off_c, 7, 46, 64
9, 296269, Note_on_c, 7, 45, 83
9, 296351, Note_off_c, 7, 45, 64
9, 296387, Note_on_c, 7, 46, 88
9, 296471, Note_off_c, 7, 46, 64
9, 296510, Note_on_c, 7, 48, 92
9, 296580, Note_off_c, 7, 48, 64
9, 296629, Note_on_c, 7, 49, 97
9, 296710, Note_off_c, 7, 49, 64
9, 296739, Note_on_c, 7, 46, 72
9, 296816, Note_off_c, 7, 46, 64
9, 296875, Note_on_c, 7, 51, 97
9, 296976, Note_off_c, 7, 51, 64
9, 296993, Note_on_c, 7, 53, 77
9, 297063, Note_off_c, 7, 53, 64
9, 297112, Note_on_c, 7, 51, 85
9, 297193, Note_off_c, 7, 51, 64
9, 297228, Note_on_c, 7, 49, 83
9, 297313, Note_off_c, 7, 49, 64
9, 297350, Note_on_c, 7, 48, 97
9, 297417, Note_off_c, 7, 48, 64
9, 297461, Note_on_c, 7, 46, 73
9, 297538, Note_off_c, 7, 46, 64
9, 297593, Note_on_c, 7, 44, 97
9, 297692, Note_off_c, 7, 44, 64
9, 297713, Note_on_c, 7, 43, 73
9, 297782, Note_off_c, 7, 43, 64
9, 297832, Note_on_c, 7, 44, 88
9, 297905, Note_off_c, 7, 44, 64
9, 297948, Note_on_c, 7, 46, 95
9, 298028, Note_off_c, 7, 46, 64
9, 298072, Note_on_c, 7, 48, 97
9, 298152, Note_off_c, 7, 48, 64
9, 298180, Note_on_c, 7, 44, 75
9, 298259, Note_off_c, 7, 44, 64
9, 298316, Note_on_c, 7, 49, 97
9, 298410, Note_off_c, 7, 49, 64
9, 298432, Note_on_c, 7, 51, 70
9, 298520, Note_off_c, 7, 51, 64
9, 298552, Note_on_c, 7, 49, 75
9, 298637, Note_off_c, 7, 49, 64
9, 298669, Note_on_c, 7, 48, 96
9, 298738, Note_off_c, 7, 48, 64
9, 298792, Note_on_c, 7, 46, 97
9, 298871, Note_off_c, 7, 46, 64
9, 298897, Note_on_c, 7, 44, 79
9, 298977, Note_off_c, 7, 44, 64
9, 299032, Note_on_c, 7, 42, 97
9, 299145, Note_off_c, 7, 42, 64
9, 299148, Note_on_c, 7, 41, 70
9, 299237, Note_off_c, 7, 41, 64
9, 299265, Note_on_c, 7, 42, 73
9, 299349, Note_off_c, 7, 42, 64
9, 299388, Note_on_c, 7, 44, 83
9, 299470, Note_off_c, 7, 44, 64
9, 299507, Note_on_c, 7, 46, 97
9, 299588, Note_off_c, 7, 46, 64
9, 299616, Note_on_c, 7, 42, 69
9, 299701, Note_off_c, 7, 42, 64
9, 299751, Note_on_c, 7, 48, 97
9, 299852, Note_off_c, 7, 48, 64
9, 299872, Note_on_c, 7, 49, 76
9, 299952, Note_off_c, 7, 49, 64
9, 299989, Note_on_c, 7, 48, 87
9, 300075, Note_off_c, 7, 48, 64
9, 300108, Note_on_c, 7, 46, 92
9, 300194, Note_off_c, 7, 46, 64
9, 300227, Note_on_c, 7, 45, 96
9, 300297, Note_off_c, 7, 45, 64
9, 300335, Note_on_c, 7, 43, 84
9, 300408, Note_off_c, 7, 43, 64
9, 300480, Note_on_c, 7, 41, 66
9, 300614, Note_off_c, 7, 41, 64
9, 300714, Note_on_c, 7, 41, 55
9, 300805, Note_off_c, 7, 41, 64
9, 300951, Note_on_c, 7, 41, 55
9, 301045, Note_off_c, 7, 41, 64
9, 301188, Note_on_c, 7, 41, 69
9, 301317, Note_off_c, 7, 41, 64
9, 301432, Note_on_c, 7, 41, 58
9, 301541, Note_off_c, 7, 41, 64
9, 301671, Note_on_c, 7, 41, 58
9, 301785, Note_off_c, 7, 41, 64
9, 301911, Note_on_c, 7, 41, 73
9, 302038, Note_off_c, 7, 41, 64
9, 302152, Note_on_c, 7, 41, 63
9, 302246, Note_off_c, 7, 41, 64
9, 302391, Note_on_c, 7, 41, 65
9, 302481, Note_off_c, 7, 41, 64
9, 302629, Note_on_c, 7, 41, 80
9, 302734, Note_off_c, 7, 41, 64
9, 302870, Note_on_c, 7, 41, 70
9, 302962, Note_off_c, 7, 41, 64
9, 303111, Note_on_c, 7, 41, 70
9, 303198, Note_off_c, 7, 41, 64
9, 303355, Note_on_c, 7, 41, 84
9, 303460, Note_off_c, 7, 41, 64
9, 303596, Note_on_c, 7, 41, 77
9, 303679, Note_off_c, 7, 41, 64
9, 303834, Note_on_c, 7, 41, 79
9, 303923, Note_off_c, 7, 41, 64
9, 304077, Note_on_c, 7, 41, 87
9, 304187, Note_off_c, 7, 41, 64
9, 304317, Note_on_c, 7, 41, 80
9, 304402, Note_off_c, 7, 41, 64
9, 304557, Note_on_c, 7, 41, 80
9, 304648, Note_off_c, 7, 41, 64
9, 304799, Note_on_c, 7, 41, 97
9, 304905, Note_off_c, 7, 41, 64
9, 305037, Note_on_c, 7, 41, 83
9, 305130, Note_off_c, 7, 41, 64
9, 305278, Note_on_c, 7, 41, 82
9, 305369, Note_off_c, 7, 41, 64
9, 305519, Note_on_c, 7, 41, 97
9, 305625, Note_off_c, 7, 41, 64
9, 305758, Note_on_c, 7, 41, 83
9, 305847, Note_off_c, 7, 41, 64
9, 305994, Note_on_c, 7, 41, 85
9, 306084, Note_off_c, 7, 41, 64
9, 306237, Note_on_c, 7, 41, 89
9, 306378, Note_off_c, 7, 41, 64
9, 306477, Note_on_c, 7, 45, 65
9, 306578, Note_off_c, 7, 45, 64
9, 306712, Note_on_c, 7, 48, 65
9, 306819, Note_off_c, 7, 48, 64
9, 306953, Note_on_c, 7, 45, 81
9, 307077, Note_off_c, 7, 45, 64
9, 307193, Note_on_c, 7, 48, 70
9, 307282, Note_off_c, 7, 48, 64
9, 307427, Note_on_c, 7, 53, 63
9, 307537, Note_off_c, 7, 53, 64
9, 307674, Note_on_c, 7, 46, 89
9, 307806, Note_off_c, 7, 46, 64
9, 307913, Note_on_c, 7, 50, 66
9, 308010, Note_off_c, 7, 50, 64
9, 308150, Note_on_c, 7, 53, 68
9, 308261, Note_off_c, 7, 53, 64
9, 308392, Note_on_c, 7, 50, 95
9, 308512, Note_off_c, 7, 50, 64
9, 308632, Note_on_c, 7, 53, 63
9, 308722, Note_off_c, 7, 53, 64
9, 308869, Note_on_c, 7, 58, 66
9, 308968, Note_off_c, 7, 58, 64
9, 309080, Control_c, 7, 11, 74
9, 309107, Control_c, 7, 11, 79
9, 309120, Note_on_c, 7, 39, 66
9, 309134, Control_c, 7, 11, 85
9, 309161, Control_c, 7, 11, 91
9, 309188, Control_c, 7, 11, 96
9, 309215, Control_c, 7, 11, 102
9, 309242, Control_c, 7, 11, 108
9, 309269, Control_c, 7, 11, 114
9, 309295, Control_c, 7, 11, 120
9, 309320, Control_c, 7, 11, 110
9, 309346, Control_c, 7, 11, 99
9, 309372, Control_c, 7, 11, 89
9, 309399, Control_c, 7, 11, 78
9, 309425, Control_c, 7, 11, 68
9, 309441, Note_off_c, 7, 39, 64
9, 309451, Control_c, 7, 11, 58
9, 309540, Control_c, 7, 11, 100
9, 310528, Control_c, 7, 11, 66
9, 310553, Control_c, 7, 11, 72
9, 310554, Note_on_c, 7, 51, 66
9, 310579, Control_c, 7, 11, 79
9, 310604, Control_c, 7, 11, 86
9, 310630, Control_c, 7, 11, 92
9, 310655, Control_c, 7, 11, 99
9, 310681, Control_c, 7, 11, 106
9, 310706, Control_c, 7, 11, 113
9, 310731, Control_c, 7, 11, 120
9, 310772, Control_c, 7, 11, 118
9, 310800, Control_c, 7, 11, 107
9, 310828, Control_c, 7, 11, 97
9, 310856, Control_c, 7, 11, 86
9, 310884, Control_c, 7, 11, 76
9, 310911, Control_c, 7, 11, 66
9, 310925, Note_off_c, 7, 51, 64
9, 311000, Control_c, 7, 11, 100
9, 311999, Note_on_c, 7, 49, 90
9, 312154, Note_off_c, 7, 49, 64
9, 312239, Note_on_c, 7, 48, 60
9, 312311, Note_off_c, 7, 48, 64
9, 312475, Note_on_c, 7, 46, 78
9, 312557, Note_off_c, 7, 46, 64
9, 312700, Control_c, 7, 11, 70
9, 312719, Note_on_c, 7, 53, 89
9, 312725, Control_c, 7, 11, 76
9, 312751, Control_c, 7, 11, 82
9, 312776, Control_c, 7, 11, 89
9, 312802, Control_c, 7, 11, 95
9, 312827, Control_c, 7, 11, 102
9, 312853, Control_c, 7, 11, 108
9, 312878, Control_c, 7, 11, 115
9, 312903, Control_c, 7, 11, 122
9, 312920, Control_c, 7, 11, 106
9, 312945, Control_c, 7, 11, 95
9, 312970, Control_c, 7, 11, 84
9, 312995, Control_c, 7, 11, 73
9, 313008, Note_off_c, 7, 53, 64
9, 313019, Control_c, 7, 11, 62
9, 313088, Control_c, 7, 11, 100
9, 313195, Note_on_c, 7, 41, 67
9, 313266, Note_off_c, 7, 41, 64
9, 313436, Note_on_c, 7, 46, 83
9, 313592, Note_off_c, 7, 46, 64
9, 313677, Note_on_c, 7, 49, 70
9, 313752, Note_off_c, 7, 49, 64
9, 313915, Note_on_c, 7, 53, 77
9, 314007, Note_off_c, 7, 53, 64
9, 314124, Control_c, 7, 11, 76
9, 314149, Control_c, 7, 11, 79
9, 314156, Note_on_c, 7, 58, 93
9, 314175, Control_c, 7, 11, 82
9, 314201, Control_c, 7, 11, 86
9, 314226, Control_c, 7, 11, 89
9, 314252, Control_c, 7, 11, 93
9, 314278, Control_c, 7, 11, 96
9, 314303, Control_c, 7, 11, 100
9, 314372, Note_off_c, 7, 58, 64
9, 314399, Note_on_c, 7, 56, 80
9, 314484, Note_off_c, 7, 56, 64
9, 314515, Note_on_c, 7, 54, 60
9, 314584, Note_off_c, 7, 54, 64
9, 314633, Note_on_c, 7, 53, 76
9, 314698, Note_off_c, 7, 53, 64
9, 314751, Note_on_c, 7, 51, 57
9, 314822, Note_off_c, 7, 51, 64
9, 314880, Note_on_c, 7, 50, 60
9, 315015, Note_off_c, 7, 50, 64
9, 315116, Note_on_c, 7, 53, 51
9, 315181, Note_off_c, 7, 53, 64
9, 315351, Note_on_c, 7, 58, 61
9, 315429, Note_off_c, 7, 58, 64
9, 315595, Note_on_c, 7, 46, 65
9, 315715, Note_off_c, 7, 46, 64
9, 315834, Note_on_c, 7, 53, 51
9, 315897, Note_off_c, 7, 53, 64
9, 316073, Note_on_c, 7, 58, 61
9, 316147, Note_off_c, 7, 58, 64
9, 316314, Note_on_c, 7, 51, 72
9, 316438, Note_off_c, 7, 51, 64
9, 316553, Note_on_c, 7, 54, 60
9, 316629, Note_off_c, 7, 54, 64
9, 316791, Note_on_c, 7, 58, 74
9, 316874, Note_off_c, 7, 58, 64
9, 316996, Control_c, 7, 11, 54
9, 317024, Control_c, 7, 11, 61
9, 317032, Note_on_c, 7, 63, 92
9, 317052, Control_c, 7, 11, 69
9, 317080, Control_c, 7, 11, 77
9, 317107, Control_c, 7, 11, 86
9, 317129, Control_c, 7, 11, 92
9, 317154, Control_c, 7, 11, 94
9, 317179, Control_c, 7, 11, 97
9, 317203, Control_c, 7, 11, 100
9, 317263, Note_off_c, 7, 63, 64
9, 317277, Note_on_c, 7, 61, 89
9, 317352, Note_off_c, 7, 61, 64
9, 317393, Note_on_c, 7, 59, 68
9, 317475, Note_off_c, 7, 59, 64
9, 317508, Note_on_c, 7, 58, 76
9, 317579, Note_off_c, 7, 58, 64
9, 317627, Note_on_c, 7, 56, 67
9, 317697, Note_off_c, 7, 56, 64
9, 317750, Note_on_c, 7, 55, 85
9, 317870, Note_off_c, 7, 55, 64
9, 317993, Note_on_c, 7, 58, 55
9, 318075, Note_off_c, 7, 58, 64
9, 318232, Note_on_c, 7, 63, 66
9, 318321, Note_off_c, 7, 63, 64
9, 318477, Note_on_c, 7, 51, 80
9, 318602, Note_off_c, 7, 51, 64
9, 318722, Note_on_c, 7, 58, 62
9, 318802, Note_off_c, 7, 58, 64
9, 318959, Note_on_c, 7, 63, 75
9, 319046, Note_off_c, 7, 63, 64
9, 319199, Note_on_c, 7, 44, 85
9, 319326, Note_off_c, 7, 44, 64
9, 319439, Note_on_c, 7, 47, 73
9, 319532, Note_off_c, 7, 47, 64
9, 319677, Note_on_c, 7, 51, 80
9, 319762, Note_off_c, 7, 51, 64
9, 319919, Note_on_c, 7, 56, 90
9, 320027, Note_off_c, 7, 56, 64
9, 320030, Note_on_c, 7, 58, 70
9, 320115, Note_off_c, 7, 58, 64
9, 320150, Note_on_c, 7, 56, 71
9, 320231, Note_off_c, 7, 56, 64
9, 320269, Note_on_c, 7, 54, 78
9, 320341, Note_off_c, 7, 54, 64
9, 320391, Note_on_c, 7, 52, 84
9, 320460, Note_off_c, 7, 52, 64
9, 320509, Note_on_c, 7, 51, 63
9, 320565, Note_off_c, 7, 51, 64
9, 320637, Note_on_c, 7, 49, 71
9, 320779, Note_off_c, 7, 49, 64
9, 320877, Note_on_c, 7, 56, 76
9, 320969, Note_off_c, 7, 56, 64
9, 321114, Note_on_c, 7, 61, 96
9, 321200, Note_off_c, 7, 61, 64
9, 321354, Note_on_c, 7, 54, 105
9, 321508, Note_off_c, 7, 54, 64
9, 321599, Note_on_c, 7, 49, 78
9, 321691, Note_off_c, 7, 49, 64
9, 321840, Note_on_c, 7, 42, 105
9, 321914, Note_off_c, 7, 42, 64
9, 322081, Note_on_c, 7, 47, 110
9, 322246, Note_off_c, 7, 47, 64
9, 322322, Note_on_c, 7, 54, 72
9, 322400, Note_off_c, 7, 54, 64
9, 322555, Note_on_c, 7, 59, 91
9, 322636, Note_off_c, 7, 59, 64
9, 322794, Note_on_c, 7, 52, 109
9, 322942, Note_off_c, 7, 52, 64
9, 323039, Note_on_c, 7, 47, 74
9, 323120, Note_off_c, 7, 47, 64
9, 323278, Note_on_c, 7, 40, 89
9, 323359, Note_off_c, 7, 40, 64
9, 323520, Note_on_c, 7, 52, 50
9, 323741, Note_off_c, 7, 52, 64
9, 324242, Note_on_c, 7, 51, 62
9, 324460, Note_off_c, 7, 51, 64
9, 324958, Note_on_c, 7, 49, 71
9, 325173, Note_off_c, 7, 49, 64
9, 325676, Note_on_c, 7, 47, 81
9, 325879, Note_off_c, 7, 47, 64
9, 326386, Note_on_c, 7, 46, 101
9, 326523, Note_off_c, 7, 46, 64
9, 326626, Note_on_c, 7, 49, 70
9, 326698, Note_off_c, 7, 49, 64
9, 326867, Note_on_c, 7, 54, 79
9, 326952, Note_off_c, 7, 54, 64
9, 327114, Note_on_c, 7, 47, 102
9, 327264, Note_off_c, 7, 47, 64
9, 327354, Note_on_c, 7, 51, 75
9, 327422, Note_off_c, 7, 51, 64
9, 327592, Note_on_c, 7, 54, 83
9, 327673, Note_off_c, 7, 54, 64
9, 327839, Note_on_c, 7, 46, 105
9, 327927, Note_off_c, 7, 46, 64
9, 327958, Note_on_c, 7, 49, 76
9, 328015, Note_off_c, 7, 49, 64
9, 328075, Note_on_c, 7, 42, 105
9, 328130, Note_off_c, 7, 42, 64
9, 328195, Note_on_c, 7, 49, 72
9, 328248, Note_off_c, 7, 49, 64
9, 328312, Note_on_c, 7, 46, 107
9, 328373, Note_off_c, 7, 46, 64
9, 328431, Note_on_c, 7, 49, 75
9, 328486, Note_off_c, 7, 49, 64
9, 328557, Note_on_c, 7, 47, 107
9, 328658, Note_off_c, 7, 47, 64
9, 328677, Note_on_c, 7, 51, 76
9, 328736, Note_off_c, 7, 51, 64
9, 328795, Note_on_c, 7, 42, 102
9, 328853, Note_off_c, 7, 42, 64
9, 328913, Note_on_c, 7, 51, 83
9, 328973, Note_off_c, 7, 51, 64
9, 329034, Note_on_c, 7, 47, 103
9, 329099, Note_off_c, 7, 47, 64
9, 329152, Note_on_c, 7, 51, 79
9, 329207, Note_off_c, 7, 51, 64
9, 329278, Note_on_c, 7, 41, 94
9, 329400, Note_off_c, 7, 41, 64
9, 329517, Note_on_c, 7, 41, 71
9, 329629, Note_off_c, 7, 41, 64
9, 329757, Note_on_c, 7, 41, 89
9, 329874, Note_off_c, 7, 41, 64
9, 329997, Note_on_c, 7, 41, 107
9, 330122, Note_off_c, 7, 41, 64
9, 330238, Note_on_c, 7, 41, 91
9, 330325, Note_off_c, 7, 41, 64
9, 330476, Note_on_c, 7, 41, 91
9, 330567, Note_off_c, 7, 41, 64
9, 330717, Note_on_c, 7, 40, 105
9, 330860, Note_off_c, 7, 40, 64
9, 330954, Note_on_c, 7, 40, 65
9, 331065, Note_off_c, 7, 40, 64
9, 331191, Note_on_c, 7, 40, 86
9, 331288, Note_off_c, 7, 40, 64
9, 331433, Note_on_c, 7, 40, 99
9, 331551, Note_off_c, 7, 40, 64
9, 331675, Note_on_c, 7, 40, 88
9, 331756, Note_off_c, 7, 40, 64
9, 331913, Note_on_c, 7, 40, 88
9, 332005, Note_off_c, 7, 40, 64
9, 332158, Note_on_c, 7, 39, 66
9, 332357, Note_off_c, 7, 39, 64
9, 332881, Note_on_c, 7, 40, 45
9, 333082, Note_off_c, 7, 40, 64
9, 333594, Note_on_c, 7, 42, 51
9, 333838, Note_off_c, 7, 42, 64
9, 334313, Note_on_c, 7, 44, 59
9, 334521, Note_off_c, 7, 44, 64
9, 335042, Note_on_c, 7, 39, 55
9, 335273, Note_off_c, 7, 39, 64
9, 335757, Note_on_c, 7, 40, 61
9, 336019, Note_off_c, 7, 40, 64
9, 336436, Control_c, 7, 11, 86
9, 336460, Control_c, 7, 11, 89
9, 336477, Note_on_c, 7, 42, 77
9, 336485, Control_c, 7, 11, 93
9, 336509, Control_c, 7, 11, 97
9, 336534, Control_c, 7, 11, 100
9, 336558, Control_c, 7, 11, 104
9, 336583, Control_c, 7, 11, 108
9, 336607, Control_c, 7, 11, 112
9, 336636, Control_c, 7, 11, 106
9, 336671, Control_c, 7, 11, 100
9, 336710, Note_off_c, 7, 42, 64
9, 336722, Note_on_c, 7, 40, 53
9, 336839, Note_off_c, 7, 40, 64
9, 336961, Note_on_c, 7, 42, 69
9, 337078, Note_off_c, 7, 42, 64
9, 337180, Control_c, 7, 11, 80
9, 337205, Note_on_c, 7, 35, 92
9, 337205, Control_c, 7, 11, 85
9, 337230, Control_c, 7, 11, 91
9, 337255, Control_c, 7, 11, 97
9, 337280, Control_c, 7, 11, 103
9, 337305, Control_c, 7, 11, 109
9, 337330, Control_c, 7, 11, 115
9, 337355, Control_c, 7, 11, 121
9, 337379, Control_c, 7, 11, 127
9, 337400, Control_c, 7, 11, 116
9, 337426, Control_c, 7, 11, 104
9, 337452, Control_c, 7, 11, 93
9, 337478, Control_c, 7, 11, 81
9, 337503, Note_off_c, 7, 35, 64
9, 337503, Control_c, 7, 11, 70
9, 337576, Control_c, 7, 11, 100
9, 337669, Note_on_c, 7, 37, 68
9, 337774, Note_off_c, 7, 37, 64
9, 337915, Note_on_c, 7, 39, 75
9, 338095, Note_off_c, 7, 39, 64
9, 338157, Note_on_c, 7, 37, 59
9, 338275, Note_off_c, 7, 37, 64
9, 338400, Note_on_c, 7, 35, 75
9, 338497, Note_off_c, 7, 35, 64
9, 338642, Note_on_c, 7, 42, 86
9, 338754, Note_off_c, 7, 42, 64
9, 338881, Note_on_c, 7, 44, 71
9, 338985, Note_off_c, 7, 44, 64
9, 339118, Note_on_c, 7, 46, 73
9, 339223, Note_off_c, 7, 46, 64
9, 339336, Control_c, 7, 11, 80
9, 339357, Note_on_c, 7, 47, 59
9, 339361, Control_c, 7, 11, 85
9, 339387, Control_c, 7, 11, 90
9, 339412, Control_c, 7, 11, 95
9, 339438, Control_c, 7, 11, 100
9, 339463, Control_c, 7, 11, 106
9, 339489, Control_c, 7, 11, 111
9, 339514, Control_c, 7, 11, 116
9, 339539, Control_c, 7, 11, 122
9, 339588, Control_c, 7, 11, 114
9, 339617, Control_c, 7, 11, 98
9, 339646, Control_c, 7, 11, 83
9, 339671, Note_off_c, 7, 47, 64
9, 339675, Control_c, 7, 11, 68
9, 339772, Control_c, 7, 11, 100
9, 340064, Control_c, 7, 11, 78
9, 340076, Note_on_c, 7, 54, 54
9, 340088, Control_c, 7, 11, 82
9, 340113, Control_c, 7, 11, 86
9, 340138, Control_c, 7, 11, 91
9, 340163, Control_c, 7, 11, 95
9, 340188, Control_c, 7, 11, 99
9, 340212, Control_c, 7, 11, 104
9, 340237, Control_c, 7, 11, 108
9, 340262, Control_c, 7, 11, 113
9, 340287, Control_c, 7, 11, 117
9, 340311, Control_c, 7, 11, 122
9, 340336, Control_c, 7, 11, 114
9, 340364, Control_c, 7, 11, 98
9, 340392, Control_c, 7, 11, 83
9, 340419, Control_c, 7, 11, 68
9, 340429, Note_off_c, 7, 54, 64
9, 340484, Control_c, 7, 11, 100
9, 340776, Control_c, 7, 11, 74
9, 340798, Note_on_c, 7, 47, 58
9, 340800, Control_c, 7, 11, 78
9, 340824, Control_c, 7, 11, 83
9, 340849, Control_c, 7, 11, 88
9, 340873, Control_c, 7, 11, 93
9, 340898, Control_c, 7, 11, 98
9, 340922, Control_c, 7, 11, 103
9, 340947, Control_c, 7, 11, 108
9, 340971, Control_c, 7, 11, 112
9, 340995, Control_c, 7, 11, 118
9, 341016, Control_c, 7, 11, 106
9, 341042, Control_c, 7, 11, 95
9, 341068, Control_c, 7, 11, 84
9, 341094, Control_c, 7, 11, 73
9, 341119, Control_c, 7, 11, 62
9, 341128, Note_off_c, 7, 47, 64
9, 341240, Control_c, 7, 11, 100
9, 341496, Control_c, 7, 11, 76
9, 341520, Note_on_c, 7, 42, 53
9, 341520, Control_c, 7, 11, 80
9, 341545, Control_c, 7, 11, 85
9, 341570, Control_c, 7, 11, 90
9, 341595, Control_c, 7, 11, 95
9, 341620, Control_c, 7, 11, 100
9, 341645, Control_c, 7, 11, 105
9, 341670, Control_c, 7, 11, 110
9, 341695, Control_c, 7, 11, 115
9, 341719, Control_c, 7, 11, 120
9, 341772, Control_c, 7, 11, 108
9, 341799, Control_c, 7, 11, 94
9, 341826, Control_c, 7, 11, 80
9, 341843, Note_off_c, 7, 42, 64
9, 341853, Control_c, 7, 11, 66
9, 341879, Control_c, 7, 11, 52
9, 341952, Control_c, 7, 11, 100
9, 342240, Note_on_c, 7, 47, 108
9, 342347, Note_off_c, 7, 47, 64
9, 342361, Note_on_c, 7, 46, 86
9, 342433, Note_off_c, 7, 46, 64
9, 342475, Note_on_c, 7, 47, 91
9, 342538, Note_off_c, 7, 47, 64
9, 342591, Note_on_c, 7, 49, 97
9, 342655, Note_off_c, 7, 49, 64
9, 342710, Note_on_c, 7, 51, 101
9, 342791, Note_off_c, 7, 51, 64
9, 342826, Note_on_c, 7, 52, 84
9, 342888, Note_off_c, 7, 52, 64
9, 342953, Note_on_c, 7, 54, 110
9, 343046, Note_off_c, 7, 54, 64
9, 343067, Note_on_c, 7, 56, 73
9, 343137, Note_off_c, 7, 56, 64
9, 343189, Note_on_c, 7, 54, 92
9, 343261, Note_off_c, 7, 54, 64
9, 343308, Note_on_c, 7, 52, 97
9, 343376, Note_off_c, 7, 52, 64
9, 343426, Note_on_c, 7, 51, 99
9, 343504, Note_off_c, 7, 51, 64
9, 343538, Note_on_c, 7, 49, 80
9, 343597, Note_off_c, 7, 49, 64
9, 343672, Note_on_c, 7, 47, 92
9, 343758, Note_off_c, 7, 47, 64
9, 343793, Note_on_c, 7, 46, 74
9, 343864, Note_off_c, 7, 46, 64
9, 343907, Note_on_c, 7, 47, 78
9, 343985, Note_off_c, 7, 47, 64
9, 344027, Note_on_c, 7, 49, 88
9, 344095, Note_off_c, 7, 49, 64
9, 344149, Note_on_c, 7, 51, 99
9, 344215, Note_off_c, 7, 51, 64
9, 344257, Note_on_c, 7, 47, 82
9, 344332, Note_off_c, 7, 47, 64
9, 344393, Note_on_c, 7, 53, 107
9, 344475, Note_off_c, 7, 53, 64
9, 344510, Note_on_c, 7, 54, 78
9, 344587, Note_off_c, 7, 54, 64
9, 344629, Note_on_c, 7, 53, 89
9, 344699, Note_off_c, 7, 53, 64
9, 344744, Note_on_c, 7, 51, 89
9, 344825, Note_off_c, 7, 51, 64
9, 344867, Note_on_c, 7, 49, 99
9, 344934, Note_off_c, 7, 49, 64
9, 344977, Note_on_c, 7, 47, 82
9, 345042, Note_off_c, 7, 47, 64
9, 345111, Note_on_c, 7, 46, 102
9, 345200, Note_off_c, 7, 46, 64
9, 345231, Note_on_c, 7, 44, 85
9, 345303, Note_off_c, 7, 44, 64
9, 345347, Note_on_c, 7, 46, 77
9, 345424, Note_off_c, 7, 46, 64
9, 345470, Note_on_c, 7, 47, 93
9, 345539, Note_off_c, 7, 47, 64
9, 345592, Note_on_c, 7, 49, 93
9, 345652, Note_off_c, 7, 49, 64
9, 345699, Note_on_c, 7, 46, 85
9, 345768, Note_off_c, 7, 46, 64
9, 345834, Note_on_c, 7, 51, 108
9, 345926, Note_off_c, 7, 51, 64
9, 345953, Note_on_c, 7, 53, 76
9, 346011, Note_off_c, 7, 53, 64
9, 346073, Note_on_c, 7, 51, 90
9, 346146, Note_off_c, 7, 51, 64
9, 346187, Note_on_c, 7, 49, 91
9, 346262, Note_off_c, 7, 49, 64
9, 346307, Note_on_c, 7, 47, 99
9, 346374, Note_off_c, 7, 47, 64
9, 346417, Note_on_c, 7, 46, 80
9, 346477, Note_off_c, 7, 46, 64
9, 346551, Note_on_c, 7, 44, 92
9, 346641, Note_off_c, 7, 44, 64
9, 346671, Note_on_c, 7, 42, 71
9, 346738, Note_off_c, 7, 42, 64
9, 346788, Note_on_c, 7, 44, 79
9, 346867, Note_off_c, 7, 44, 64
9, 346911, Note_on_c, 7, 46, 93
9, 346978, Note_off_c, 7, 46, 64
9, 347033, Note_on_c, 7, 47, 96
9, 347096, Note_off_c, 7, 47, 64
9, 347138, Note_on_c, 7, 44, 85
9, 347210, Note_off_c, 7, 44, 64
9, 347273, Note_on_c, 7, 49, 105
9, 347364, Note_off_c, 7, 49, 64
9, 347392, Note_on_c, 7, 51, 78
9, 347454, Note_off_c, 7, 51, 64
9, 347512, Note_on_c, 7, 49, 85
9, 347582, Note_off_c, 7, 49, 64
9, 347627, Note_on_c, 7, 47, 89
9, 347695, Note_off_c, 7, 47, 64
9, 347749, Note_on_c, 7, 46, 96
9, 347813, Note_off_c, 7, 46, 64
9, 347855, Note_on_c, 7, 44, 76
9, 347922, Note_off_c, 7, 44, 64
9, 347989, Note_on_c, 7, 42, 65
9, 348186, Note_off_c, 7, 42, 64
9, 348712, Note_on_c, 7, 37, 67
9, 348885, Note_off_c, 7, 37, 64
9, 349436, Note_on_c, 7, 42, 62
9, 349584, Note_off_c, 7, 42, 64
9, 350154, Note_on_c, 7, 49, 67
9, 350304, Note_off_c, 7, 49, 64
9, 350873, Note_on_c, 7, 54, 96
9, 350997, Note_off_c, 7, 54, 64
9, 351117, Note_on_c, 7, 58, 73
9, 351212, Note_off_c, 7, 58, 64
9, 351355, Note_on_c, 7, 61, 73
9, 351433, Note_off_c, 7, 61, 64
9, 351596, Note_on_c, 7, 49, 93
9, 351727, Note_off_c, 7, 49, 64
9, 351834, Note_on_c, 7, 56, 73
9, 351910, Note_off_c, 7, 56, 64
9, 352073, Note_on_c, 7, 61, 73
9, 352141, Note_off_c, 7, 61, 64
9, 352321, Note_on_c, 7, 42, 110
9, 352409, Note_off_c, 7, 42, 64
9, 352436, Note_on_c, 7, 41, 71
9, 352508, Note_off_c, 7, 41, 64
9, 352554, Note_on_c, 7, 42, 84
9, 352624, Note_off_c, 7, 42, 64
9, 352675, Note_on_c, 7, 44, 89
9, 352735, Note_off_c, 7, 44, 64
9, 352796, Note_on_c, 7, 46, 105
9, 352856, Note_off_c, 7, 46, 64
9, 352898, Note_on_c, 7, 47, 82
9, 352957, Note_off_c, 7, 47, 64
9, 353038, Note_on_c, 7, 49, 109
9, 353137, Note_off_c, 7, 49, 64
9, 353155, Note_on_c, 7, 51, 78
9, 353239, Note_off_c, 7, 51, 64
9, 353277, Note_on_c, 7, 49, 84
9, 353336, Note_off_c, 7, 49, 64
9, 353393, Note_on_c, 7, 47, 88
9, 353464, Note_off_c, 7, 47, 64
9, 353517, Note_on_c, 7, 46, 99
9, 353576, Note_off_c, 7, 46, 64
9, 353618, Note_on_c, 7, 44, 82
9, 353681, Note_off_c, 7, 44, 64
9, 353756, Note_on_c, 7, 42, 96
9, 353854, Note_off_c, 7, 42, 64
9, 353877, Note_on_c, 7, 41, 69
9, 353953, Note_off_c, 7, 41, 64
9, 353995, Note_on_c, 7, 42, 81
9, 354071, Note_off_c, 7, 42, 64
9, 354114, Note_on_c, 7, 44, 88
9, 354177, Note_off_c, 7, 44, 64
9, 354233, Note_on_c, 7, 46, 105
9, 354293, Note_off_c, 7, 46, 64
9, 354332, Note_on_c, 7, 42, 82
9, 354407, Note_off_c, 7, 42, 64
9, 354476, Note_on_c, 7, 47, 105
9, 354555, Note_off_c, 7, 47, 64
9, 354592, Note_on_c, 7, 49, 72
9, 354652, Note_off_c, 7, 49, 64
9, 354713, Note_on_c, 7, 47, 86
9, 354788, Note_off_c, 7, 47, 64
9, 354829, Note_on_c, 7, 46, 84
9, 354903, Note_off_c, 7, 46, 64
9, 354951, Note_on_c, 7, 44, 99
9, 355022, Note_off_c, 7, 44, 64
9, 355053, Note_on_c, 7, 42, 78
9, 355124, Note_off_c, 7, 42, 64
9, 355195, Note_on_c, 7, 41, 97
9, 355286, Note_off_c, 7, 41, 64
9, 355315, Note_on_c, 7, 39, 74
9, 355390, Note_off_c, 7, 39, 64
9, 355435, Note_on_c, 7, 41, 84
9, 355504, Note_off_c, 7, 41, 64
9, 355551, Note_on_c, 7, 42, 86
9, 355627, Note_off_c, 7, 42, 64
9, 355673, Note_on_c, 7, 44, 103
9, 355732, Note_off_c, 7, 44, 64
9, 355775, Note_on_c, 7, 41, 74
9, 355833, Note_off_c, 7, 41, 64
9, 355919, Note_on_c, 7, 46, 102
9, 356008, Note_off_c, 7, 46, 64
9, 356035, Note_on_c, 7, 47, 74
9, 356115, Note_off_c, 7, 47, 64
9, 356154, Note_on_c, 7, 46, 78
9, 356223, Note_off_c, 7, 46, 64
9, 356270, Note_on_c, 7, 44, 91
9, 356339, Note_off_c, 7, 44, 64
9, 356391, Note_on_c, 7, 42, 103
9, 356458, Note_off_c, 7, 42, 64
9, 356492, Note_on_c, 7, 41, 74
9, 356561, Note_off_c, 7, 41, 64
9, 356631, Note_on_c, 7, 39, 105
9, 356738, Note_off_c, 7, 39, 64
9, 356757, Note_on_c, 7, 37, 65
9, 356839, Note_off_c, 7, 37, 64
9, 356875, Note_on_c, 7, 39, 74
9, 356948, Note_off_c, 7, 39, 64
9, 356992, Note_on_c, 7, 41, 93
9, 357055, Note_off_c, 7, 41, 64
9, 357111, Note_on_c, 7, 42, 99
9, 357178, Note_off_c, 7, 42, 64
9, 357210, Note_on_c, 7, 39, 71
9, 357272, Note_off_c, 7, 39, 64
9, 357348, Note_on_c, 7, 44, 107
9, 357424, Note_off_c, 7, 44, 64
9, 357468, Note_on_c, 7, 46, 71
9, 357536, Note_off_c, 7, 46, 64
9, 357592, Note_on_c, 7, 44, 90
9, 357659, Note_off_c, 7, 44, 64
9, 357707, Note_on_c, 7, 42, 86
9, 357782, Note_off_c, 7, 42, 64
9, 357829, Note_on_c, 7, 41, 97
9, 357886, Note_off_c, 7, 41, 64
9, 357931, Note_on_c, 7, 39, 69
9, 357998, Note_off_c, 7, 39, 64
9, 358074, Note_on_c, 7, 37, 51
9, 358206, Note_off_c, 7, 37, 64
9, 358311, Note_on_c, 7, 37, 37
9, 358407, Note_off_c, 7, 37, 64
9, 358555, Note_on_c, 7, 37, 44
9, 358657, Note_off_c, 7, 37, 64
9, 358798, Note_on_c, 7, 37, 52
9, 358941, Note_off_c, 7, 37, 64
9, 359043, Note_on_c, 7, 37, 40
9, 359152, Note_off_c, 7, 37, 64
9, 359285, Note_on_c, 7, 37, 51
9, 359383, Note_off_c, 7, 37, 64
9, 359518, Note_on_c, 7, 37, 57
9, 359654, Note_off_c, 7, 37, 64
9, 359759, Note_on_c, 7, 37, 42
9, 359875, Note_off_c, 7, 37, 64
9, 359996, Note_on_c, 7, 37, 57
9, 360109, Note_off_c, 7, 37, 64
9, 360235, Note_on_c, 7, 37, 63
9, 360366, Note_off_c, 7, 37, 64
9, 360476, Note_on_c, 7, 37, 52
9, 360565, Note_off_c, 7, 37, 64
9, 360711, Note_on_c, 7, 37, 63
9, 360819, Note_off_c, 7, 37, 64
9, 360954, Note_on_c, 7, 37, 68
9, 361082, Note_off_c, 7, 37, 64
9, 361194, Note_on_c, 7, 37, 57
9, 361294, Note_off_c, 7, 37, 64
9, 361429, Note_on_c, 7, 37, 69
9, 361534, Note_off_c, 7, 37, 64
9, 361671, Note_on_c, 7, 37, 74
9, 361794, Note_off_c, 7, 37, 64
9, 361914, Note_on_c, 7, 37, 59
9, 361993, Note_off_c, 7, 37, 64
9, 362155, Note_on_c, 7, 37, 73
9, 362240, Note_off_c, 7, 37, 64
9, 362392, Note_on_c, 7, 37, 77
9, 362543, Note_off_c, 7, 37, 64
9, 362637, Note_on_c, 7, 37, 65
9, 362734, Note_off_c, 7, 37, 64
9, 362876, Note_on_c, 7, 37, 75
9, 362966, Note_off_c, 7, 37, 64
9, 363115, Note_on_c, 7, 37, 83
9, 363219, Note_off_c, 7, 37, 64
9, 363353, Note_on_c, 7, 37, 68
9, 363452, Note_off_c, 7, 37, 64
9, 363592, Note_on_c, 7, 37, 78
9, 363691, Note_off_c, 7, 37, 64
9, 363835, Note_on_c, 7, 37, 100
9, 363978, Note_off_c, 7, 37, 64
9, 364075, Note_on_c, 7, 41, 68
9, 364162, Note_off_c, 7, 41, 64
9, 364312, Note_on_c, 7, 44, 83
9, 364392, Note_off_c, 7, 44, 64
9, 364559, Note_on_c, 7, 41, 100
9, 364667, Note_off_c, 7, 41, 64
9, 364801, Note_on_c, 7, 44, 73
9, 364891, Note_off_c, 7, 44, 64
9, 365038, Note_on_c, 7, 49, 89
9, 365126, Note_off_c, 7, 49, 64
9, 365282, Note_on_c, 7, 42, 92
9, 365407, Note_off_c, 7, 42, 64
9, 365523, Note_on_c, 7, 46, 75
9, 365612, Note_off_c, 7, 46, 64
9, 365757, Note_on_c, 7, 49, 95
9, 365854, Note_off_c, 7, 49, 64
9, 365994, Note_on_c, 7, 46, 100
9, 366118, Note_off_c, 7, 46, 64
9, 366235, Note_on_c, 7, 49, 79
9, 366323, Note_off_c, 7, 49, 64
9, 366470, Note_on_c, 7, 54, 82
9, 366551, Note_off_c, 7, 54, 64
9, 366692, Control_c, 7, 11, 76
9, 366715, Note_on_c, 7, 35, 70
9, 366718, Control_c, 7, 11, 81
9, 366744, Control_c, 7, 11, 86
9, 366770, Control_c, 7, 11, 91
9, 366796, Control_c, 7, 11, 96
9, 366822, Control_c, 7, 11, 101
9, 366848, Control_c, 7, 11, 106
9, 366874, Control_c, 7, 11, 111
9, 366900, Control_c, 7, 11, 116
9, 366926, Control_c, 7, 11, 121
9, 366951, Control_c, 7, 11, 127
9, 366968, Control_c, 7, 11, 124
9, 366996, Control_c, 7, 11, 112
9, 367024, Control_c, 7, 11, 100
9, 367052, Control_c, 7, 11, 88
9, 367080, Control_c, 7, 11, 76
9, 367107, Note_off_c, 7, 35, 64
9, 367107, Control_c, 7, 11, 64
9, 367192, Control_c, 7, 11, 100
9, 368136, Control_c, 7, 11, 72
9, 368156, Note_on_c, 7, 47, 68
9, 368160, Control_c, 7, 11, 77
9, 368185, Control_c, 7, 11, 84
9, 368210, Control_c, 7, 11, 90
9, 368235, Control_c, 7, 11, 96
9, 368260, Control_c, 7, 11, 102
9, 368285, Control_c, 7, 11, 108
9, 368310, Control_c, 7, 11, 114
9, 368335, Control_c, 7, 11, 120
9, 368359, Control_c, 7, 11, 127
9, 368380, Control_c, 7, 11, 118
9, 368406, Control_c, 7, 11, 105
9, 368432, Control_c, 7, 11, 92
9, 368458, Control_c, 7, 11, 79
9, 368483, Control_c, 7, 11, 66
9, 368492, Note_off_c, 7, 47, 64
9, 368596, Control_c, 7, 11, 100
9, 369597, Note_on_c, 7, 46, 102
9, 369791, Note_off_c, 7, 46, 64
9, 369844, Note_on_c, 7, 44, 76
9, 369933, Note_off_c, 7, 44, 64
9, 370082, Note_on_c, 7, 42, 86
9, 370163, Note_off_c, 7, 42, 64
9, 370296, Control_c, 7, 11, 74
9, 370320, Control_c, 7, 11, 80
9, 370322, Note_on_c, 7, 49, 110
9, 370345, Control_c, 7, 11, 86
9, 370369, Control_c, 7, 11, 93
9, 370394, Control_c, 7, 11, 99
9, 370418, Control_c, 7, 11, 106
9, 370443, Control_c, 7, 11, 112
9, 370467, Control_c, 7, 11, 119
9, 370491, Control_c, 7, 11, 126
9, 370504, Control_c, 7, 11, 120
9, 370532, Control_c, 7, 11, 105
9, 370560, Control_c, 7, 11, 90
9, 370587, Control_c, 7, 11, 76
9, 370608, Note_off_c, 7, 49, 64
9, 370644, Control_c, 7, 11, 100
9, 370787, Note_on_c, 7, 37, 69
9, 370853, Note_off_c, 7, 37, 64
9, 370960, Control_c, 7, 11, 42
9, 370984, Control_c, 7, 11, 44
9, 371009, Control_c, 7, 11, 46
9, 371034, Control_c, 7, 11, 49
9, 371035, Note_on_c, 7, 42, 89
9, 371059, Control_c, 7, 11, 51
9, 371084, Control_c, 7, 11, 54
9, 371109, Control_c, 7, 11, 56
9, 371133, Control_c, 7, 11, 59
9, 371158, Control_c, 7, 11, 61
9, 371183, Control_c, 7, 11, 64
9, 371208, Control_c, 7, 11, 66
9, 371233, Control_c, 7, 11, 69
9, 371257, Control_c, 7, 11, 71
9, 371282, Control_c, 7, 11, 74
9, 371307, Control_c, 7, 11, 76
9, 371332, Control_c, 7, 11, 79
9, 371357, Control_c, 7, 11, 81
9, 371382, Control_c, 7, 11, 84
9, 371406, Control_c, 7, 11, 86
9, 371431, Control_c, 7, 11, 89
9, 371456, Control_c, 7, 11, 91
9, 371481, Control_c, 7, 11, 94
9, 371506, Control_c, 7, 11, 96
9, 371530, Control_c, 7, 11, 99
9, 371555, Control_c, 7, 11, 101
9, 371580, Control_c, 7, 11, 104
9, 371605, Control_c, 7, 11, 106
9, 371630, Control_c, 7, 11, 109
9, 371655, Control_c, 7, 11, 111
9, 371679, Control_c, 7, 11, 114
9, 371704, Control_c, 7, 11, 116
9, 371729, Control_c, 7, 11, 119
9, 371754, Control_c, 7, 11, 121
9, 371779, Control_c, 7, 11, 124
9, 371788, Control_c, 7, 11, 124
9, 371812, Control_c, 7, 11, 120
9, 371836, Control_c, 7, 11, 117
9, 371861, Control_c, 7, 11, 114
9, 371885, Control_c, 7, 11, 111
9, 371910, Control_c, 7, 11, 108
9, 371934, Control_c, 7, 11, 105
9, 371959, Control_c, 7, 11, 102
9, 371983, Control_c, 7, 11, 99
9, 372008, Control_c, 7, 11, 96
9, 372032, Control_c, 7, 11, 93
9, 372056, Control_c, 7, 11, 89
9, 372081, Control_c, 7, 11, 86
9, 372105, Control_c, 7, 11, 83
9, 372130, Control_c, 7, 11, 80
9, 372154, Control_c, 7, 11, 77
9, 372179, Control_c, 7, 11, 74
9, 372203, Control_c, 7, 11, 71
9, 372227, Control_c, 7, 11, 68
9, 372246, Control_c, 7, 11, 49
9, 372271, Control_c, 7, 11, 40
9, 372330, Note_off_c, 7, 42, 64
9, 372416, Control_c, 7, 11, 100
9, 378240, End_track
10, 0, Start_track
10, 0, Instrument_name_t, "SC88-A"
10, 0, Title_t, "Violoncello.2"
10, 1440, Control_c, 8, 101, 0
10, 1450, Control_c, 8, 100, 0
10, 1450, Control_c, 8, 6, 0
10, 1470, Control_c, 8, 0, 0
10, 1480, Control_c, 8, 32, 1
10, 1490, Program_c, 8, 42
10, 1500, Control_c, 8, 10, 89
10, 1510, Control_c, 8, 11, 100
10, 1520, Control_c, 8, 7, 120
10, 1530, Control_c, 8, 93, 0
10, 1540, Control_c, 8, 91, 0
10, 1550, Pitch_bend_c, 8, 8192
10, 1560, Control_c, 8, 1, 0
10, 1570, Control_c, 8, 64, 0
10, 1580, Control_c, 8, 91, 64
10, 1590, Control_c, 8, 99, 1
10, 1600, Control_c, 8, 98, 32
10, 1610, Control_c, 8, 6, 61
10, 1620, Control_c, 8, 98, 33
10, 1630, Control_c, 8, 6, 73
10, 1640, Control_c, 8, 98, 99
10, 1650, Control_c, 8, 6, 64
10, 1660, Control_c, 8, 98, 100
10, 1670, Control_c, 8, 6, 64
10, 1680, Control_c, 8, 98, 102
10, 1690, Control_c, 8, 6, 64
10, 378240, End_track
11, 0, Start_track
11, 0, Instrument_name_t, "SC88-A"
11, 0, Title_t, "Violoncello.3"
11, 1440, Control_c, 10, 101, 0
11, 1450, Control_c, 10, 100, 0
11, 1450, Control_c, 10, 6, 0
11, 1470, Control_c, 10, 0, 0
11, 1480, Control_c, 10, 32, 1
11, 1490, Program_c, 10, 42
11, 1500, Control_c, 10, 10, 99
11, 1510, Control_c, 10, 11, 100
11, 1520, Control_c, 10, 7, 120
11, 1530, Control_c, 10, 93, 0
11, 1540, Control_c, 10, 91, 0
11, 1550, Pitch_bend_c, 10, 8192
11, 1560, Control_c, 10, 1, 0
11, 1570, Control_c, 10, 64, 0
11, 1580, Control_c, 10, 91, 64
11, 1590, Control_c, 10, 99, 1
11, 1600, Control_c, 10, 98, 32
11, 1610, Control_c, 10, 6, 64
11, 1620, Control_c, 10, 98, 33
11, 1630, Control_c, 10, 6, 60
11, 1640, Control_c, 10, 98, 99
11, 1650, Control_c, 10, 6, 64
11, 1660, Control_c, 10, 98, 100
11, 1670, Control_c, 10, 6, 64
11, 1680, Control_c, 10, 98, 102
11, 1690, Control_c, 10, 6, 64
11, 378240, End_track
12, 0, Start_track
12, 0, Instrument_name_t, "SC88-A"
12, 0, Title_t, "Violone"
12, 1440, Control_c, 11, 101, 0
12, 1450, Control_c, 11, 100, 0
12, 1450, Control_c, 11, 6, 0
12, 1470, Control_c, 11, 0, 0
12, 1480, Control_c, 11, 32, 1
12, 1490, Program_c, 11, 43
12, 1500, Control_c, 11, 10, 64
12, 1510, Control_c, 11, 11, 100
12, 1520, Control_c, 11, 7, 120
12, 1530, Control_c, 11, 93, 0
12, 1540, Control_c, 11, 91, 0
12, 1550, Pitch_bend_c, 11, 8192
12, 1560, Control_c, 11, 1, 0
12, 1570, Control_c, 11, 64, 0
12, 1580, Control_c, 11, 91, 64
12, 1590, Control_c, 11, 99, 1
12, 1600, Control_c, 11, 98, 32
12, 1610, Control_c, 11, 6, 70
12, 1620, Control_c, 11, 98, 33
12, 1630, Control_c, 11, 6, 64
12, 1640, Control_c, 11, 98, 99
12, 1650, Control_c, 11, 6, 64
12, 1660, Control_c, 11, 98, 100
12, 1670, Control_c, 11, 6, 64
12, 1680, Control_c, 11, 98, 102
12, 1690, Control_c, 11, 6, 64
12, 89256, Control_c, 11, 11, 78
12, 89390, Note_on_c, 11, 35, 56
12, 89423, Control_c, 11, 11, 80
12, 89478, Control_c, 11, 11, 82
12, 89534, Control_c, 11, 11, 83
12, 89589, Control_c, 11, 11, 85
12, 89645, Control_c, 11, 11, 87
12, 89700, Control_c, 11, 11, 89
12, 89756, Control_c, 11, 11, 90
12, 89811, Control_c, 11, 11, 92
12, 89867, Control_c, 11, 11, 94
12, 89922, Control_c, 11, 11, 96
12, 89978, Control_c, 11, 11, 97
12, 90034, Control_c, 11, 11, 99
12, 90089, Control_c, 11, 11, 101
12, 90145, Control_c, 11, 11, 103
12, 90200, Control_c, 11, 11, 104
12, 90256, Control_c, 11, 11, 106
12, 90311, Control_c, 11, 11, 108
12, 90367, Control_c, 11, 11, 110
12, 90422, Control_c, 11, 11, 111
12, 90478, Control_c, 11, 11, 113
12, 90533, Control_c, 11, 11, 115
12, 90589, Control_c, 11, 11, 117
12, 90644, Control_c, 11, 11, 119
12, 90700, Control_c, 11, 11, 117
12, 90756, Control_c, 11, 11, 115
12, 90811, Control_c, 11, 11, 112
12, 90867, Control_c, 11, 11, 110
12, 90922, Control_c, 11, 11, 108
12, 90978, Control_c, 11, 11, 105
12, 91033, Control_c, 11, 11, 103
12, 91089, Control_c, 11, 11, 100
12, 91144, Control_c, 11, 11, 98
12, 91200, Control_c, 11, 11, 96
12, 91255, Control_c, 11, 11, 93
12, 91311, Control_c, 11, 11, 91
12, 91366, Control_c, 11, 11, 88
12, 91422, Control_c, 11, 11, 86
12, 91477, Control_c, 11, 11, 84
12, 91533, Control_c, 11, 11, 81
12, 91589, Control_c, 11, 11, 79
12, 91644, Control_c, 11, 11, 78
12, 92310, Control_c, 11, 11, 74
12, 92366, Control_c, 11, 11, 71
12, 92422, Control_c, 11, 11, 63
12, 92477, Control_c, 11, 11, 61
12, 92533, Control_c, 11, 11, 64
12, 92566, Note_on_c, 11, 34, 56
12, 92583, Note_off_c, 11, 35, 64
12, 92588, Control_c, 11, 11, 67
12, 92644, Control_c, 11, 11, 70
12, 92699, Control_c, 11, 11, 73
12, 92755, Control_c, 11, 11, 76
12, 92810, Control_c, 11, 11, 79
12, 92866, Control_c, 11, 11, 82
12, 92921, Control_c, 11, 11, 86
12, 92977, Control_c, 11, 11, 89
12, 93032, Control_c, 11, 11, 92
12, 93088, Control_c, 11, 11, 95
12, 93143, Control_c, 11, 11, 98
12, 93199, Control_c, 11, 11, 102
12, 93255, Control_c, 11, 11, 105
12, 93310, Control_c, 11, 11, 108
12, 93699, Control_c, 11, 11, 104
12, 93754, Control_c, 11, 11, 100
12, 93810, Control_c, 11, 11, 97
12, 93865, Control_c, 11, 11, 94
12, 93921, Control_c, 11, 11, 91
12, 93976, Control_c, 11, 11, 88
12, 94032, Control_c, 11, 11, 84
12, 94088, Control_c, 11, 11, 81
12, 94143, Control_c, 11, 11, 78
12, 94199, Control_c, 11, 11, 75
12, 94254, Control_c, 11, 11, 71
12, 94310, Control_c, 11, 11, 68
12, 95254, Control_c, 11, 11, 66
12, 95309, Control_c, 11, 11, 58
12, 95365, Control_c, 11, 11, 50
12, 95420, Control_c, 11, 11, 44
12, 95446, Note_off_c, 11, 34, 64
12, 95496, Control_c, 11, 11, 100
12, 100320, Note_on_c, 11, 42, 110
12, 100435, Note_off_c, 11, 42, 64
12, 100436, Note_on_c, 11, 41, 87
12, 100522, Note_off_c, 11, 41, 64
12, 100551, Note_on_c, 11, 42, 83
12, 100650, Note_off_c, 11, 42, 64
12, 100670, Note_on_c, 11, 44, 101
12, 100755, Note_off_c, 11, 44, 64
12, 100792, Note_on_c, 11, 46, 97
12, 100866, Note_off_c, 11, 46, 64
12, 100909, Note_on_c, 11, 47, 94
12, 100983, Note_off_c, 11, 47, 64
12, 101035, Note_on_c, 11, 49, 106
12, 101137, Note_off_c, 11, 49, 64
12, 101150, Note_on_c, 11, 51, 90
12, 101239, Note_off_c, 11, 51, 64
12, 101265, Note_on_c, 11, 49, 88
12, 101351, Note_off_c, 11, 49, 64
12, 101387, Note_on_c, 11, 47, 92
12, 101475, Note_off_c, 11, 47, 64
12, 101507, Note_on_c, 11, 46, 90
12, 101593, Note_off_c, 11, 46, 64
12, 101625, Note_on_c, 11, 44, 89
12, 101702, Note_off_c, 11, 44, 64
12, 101751, Note_on_c, 11, 42, 106
12, 101854, Note_off_c, 11, 42, 64
12, 101871, Note_on_c, 11, 41, 97
12, 101950, Note_off_c, 11, 41, 64
12, 101988, Note_on_c, 11, 42, 83
12, 102074, Note_off_c, 11, 42, 64
12, 102108, Note_on_c, 11, 44, 97
12, 102179, Note_off_c, 11, 44, 64
12, 102229, Note_on_c, 11, 46, 104
12, 102304, Note_off_c, 11, 46, 64
12, 102349, Note_on_c, 11, 42, 92
12, 102426, Note_off_c, 11, 42, 64
12, 102475, Note_on_c, 11, 47, 112
12, 102582, Note_off_c, 11, 47, 64
12, 102593, Note_on_c, 11, 49, 92
12, 102668, Note_off_c, 11, 49, 64
12, 102712, Note_on_c, 11, 47, 97
12, 102793, Note_off_c, 11, 47, 64
12, 102829, Note_on_c, 11, 46, 90
12, 102905, Note_off_c, 11, 46, 64
12, 102949, Note_on_c, 11, 44, 96
12, 103023, Note_off_c, 11, 44, 64
12, 103067, Note_on_c, 11, 42, 90
12, 103148, Note_off_c, 11, 42, 64
12, 103193, Note_on_c, 11, 41, 108
12, 103292, Note_off_c, 11, 41, 64
12, 103313, Note_on_c, 11, 39, 88
12, 103401, Note_off_c, 11, 39, 64
12, 103430, Note_on_c, 11, 41, 102
12, 103501, Note_off_c, 11, 41, 64
12, 103546, Note_on_c, 11, 42, 92
12, 103628, Note_off_c, 11, 42, 64
12, 103667, Note_on_c, 11, 44, 90
12, 103745, Note_off_c, 11, 44, 64
12, 103786, Note_on_c, 11, 41, 97
12, 103865, Note_off_c, 11, 41, 64
12, 103913, Note_on_c, 11, 46, 114
12, 104011, Note_off_c, 11, 46, 64
12, 104029, Note_on_c, 11, 48, 80
12, 104110, Note_off_c, 11, 48, 64
12, 104145, Note_on_c, 11, 46, 89
12, 104218, Note_off_c, 11, 46, 64
12, 104264, Note_on_c, 11, 44, 94
12, 104339, Note_off_c, 11, 44, 64
12, 104384, Note_on_c, 11, 42, 92
12, 104463, Note_off_c, 11, 42, 64
12, 104502, Note_on_c, 11, 41, 97
12, 104573, Note_off_c, 11, 41, 64
12, 104629, Note_on_c, 11, 39, 112
12, 104744, Note_off_c, 11, 39, 64
12, 104749, Note_on_c, 11, 37, 83
12, 104855, Note_off_c, 11, 37, 64
12, 104864, Note_on_c, 11, 39, 104
12, 104948, Note_off_c, 11, 39, 64
12, 104983, Note_on_c, 11, 41, 89
12, 105054, Note_off_c, 11, 41, 64
12, 105104, Note_on_c, 11, 42, 94
12, 105180, Note_off_c, 11, 42, 64
12, 105223, Note_on_c, 11, 39, 107
12, 105296, Note_off_c, 11, 39, 64
12, 105352, Note_on_c, 11, 44, 112
12, 105469, Note_off_c, 11, 44, 64
12, 105470, Note_on_c, 11, 46, 77
12, 105540, Note_off_c, 11, 46, 64
12, 105585, Note_on_c, 11, 44, 90
12, 105653, Note_off_c, 11, 44, 64
12, 105702, Note_on_c, 11, 42, 92
12, 105775, Note_off_c, 11, 42, 64
12, 105824, Note_on_c, 11, 41, 95
12, 105902, Note_off_c, 11, 41, 64
12, 105941, Note_on_c, 11, 39, 85
12, 106024, Note_off_c, 11, 39, 64
12, 106075, Note_on_c, 11, 37, 74
12, 106358, Note_off_c, 11, 37, 64
12, 106793, Note_on_c, 11, 32, 76
12, 107075, Note_off_c, 11, 32, 64
12, 107515, Note_on_c, 11, 37, 68
12, 107819, Note_off_c, 11, 37, 64
12, 108237, Note_on_c, 11, 44, 69
12, 108515, Note_off_c, 11, 44, 64
12, 108959, Note_on_c, 11, 37, 115
12, 109118, Note_off_c, 11, 37, 64
12, 109201, Note_on_c, 11, 41, 89
12, 109282, Note_off_c, 11, 41, 64
12, 109441, Note_on_c, 11, 44, 97
12, 109524, Note_off_c, 11, 44, 64
12, 109677, Note_on_c, 11, 32, 110
12, 109833, Note_off_c, 11, 32, 64
12, 109926, Note_on_c, 11, 39, 97
12, 110004, Note_off_c, 11, 39, 64
12, 110157, Note_on_c, 11, 44, 101
12, 110240, Note_off_c, 11, 44, 64
12, 110403, Note_on_c, 11, 37, 113
12, 110496, Note_off_c, 11, 37, 64
12, 110521, Note_on_c, 11, 36, 90
12, 110602, Note_off_c, 11, 36, 64
12, 110638, Note_on_c, 11, 37, 84
12, 110722, Note_off_c, 11, 37, 64
12, 110755, Note_on_c, 11, 39, 107
12, 110828, Note_off_c, 11, 39, 64
12, 110875, Note_on_c, 11, 41, 97
12, 110955, Note_off_c, 11, 41, 64
12, 110996, Note_on_c, 11, 42, 89
12, 111076, Note_off_c, 11, 42, 64
12, 111117, Note_on_c, 11, 44, 110
12, 111223, Note_off_c, 11, 44, 64
12, 111239, Note_on_c, 11, 46, 98
12, 111318, Note_off_c, 11, 46, 64
12, 111357, Note_on_c, 11, 44, 98
12, 111434, Note_off_c, 11, 44, 64
12, 111474, Note_on_c, 11, 42, 96
12, 111554, Note_off_c, 11, 42, 64
12, 111594, Note_on_c, 11, 41, 97
12, 111666, Note_off_c, 11, 41, 64
12, 111712, Note_on_c, 11, 39, 90
12, 111795, Note_off_c, 11, 39, 64
12, 111839, Note_on_c, 11, 37, 113
12, 111946, Note_off_c, 11, 37, 64
12, 111956, Note_on_c, 11, 36, 86
12, 112032, Note_off_c, 11, 36, 64
12, 112073, Note_on_c, 11, 37, 87
12, 112160, Note_off_c, 11, 37, 64
12, 112190, Note_on_c, 11, 39, 107
12, 112268, Note_off_c, 11, 39, 64
12, 112312, Note_on_c, 11, 41, 102
12, 112390, Note_off_c, 11, 41, 64
12, 112430, Note_on_c, 11, 37, 92
12, 112511, Note_off_c, 11, 37, 64
12, 112557, Note_on_c, 11, 42, 110
12, 112658, Note_off_c, 11, 42, 64
12, 112678, Note_on_c, 11, 44, 90
12, 112773, Note_off_c, 11, 44, 64
12, 112796, Note_on_c, 11, 42, 104
12, 112879, Note_off_c, 11, 42, 64
12, 112917, Note_on_c, 11, 41, 97
12, 112996, Note_off_c, 11, 41, 64
12, 113038, Note_on_c, 11, 39, 104
12, 113121, Note_off_c, 11, 39, 64
12, 113153, Note_on_c, 11, 37, 90
12, 113241, Note_off_c, 11, 37, 64
12, 113274, Note_on_c, 11, 36, 110
12, 113380, Note_off_c, 11, 36, 64
12, 113393, Note_on_c, 11, 34, 96
12, 113510, Note_on_c, 11, 36, 102
12, 113522, Note_off_c, 11, 34, 64
12, 113586, Note_off_c, 11, 36, 64
12, 113630, Note_on_c, 11, 37, 78
12, 113704, Note_off_c, 11, 37, 64
12, 113749, Note_on_c, 11, 39, 89
12, 113826, Note_off_c, 11, 39, 64
12, 113869, Note_on_c, 11, 36, 91
12, 113940, Note_off_c, 11, 36, 64
12, 113998, Note_on_c, 11, 41, 108
12, 114107, Note_off_c, 11, 41, 64
12, 114112, Note_on_c, 11, 42, 89
12, 114221, Note_off_c, 11, 42, 64
12, 114228, Note_on_c, 11, 41, 97
12, 114307, Note_off_c, 11, 41, 64
12, 114346, Note_on_c, 11, 39, 90
12, 114433, Note_off_c, 11, 39, 64
12, 114465, Note_on_c, 11, 37, 89
12, 114548, Note_off_c, 11, 37, 64
12, 114584, Note_on_c, 11, 36, 86
12, 114650, Note_off_c, 11, 36, 64
12, 114709, Note_on_c, 11, 34, 108
12, 114829, Note_off_c, 11, 34, 64
12, 114831, Note_on_c, 11, 32, 88
12, 114950, Note_on_c, 11, 34, 97
12, 114967, Note_off_c, 11, 32, 64
12, 115040, Note_off_c, 11, 34, 64
12, 115073, Note_on_c, 11, 36, 97
12, 115145, Note_off_c, 11, 36, 64
12, 115192, Note_on_c, 11, 37, 88
12, 115275, Note_off_c, 11, 37, 64
12, 115311, Note_on_c, 11, 34, 84
12, 115382, Note_off_c, 11, 34, 64
12, 115439, Note_on_c, 11, 39, 104
12, 115562, Note_on_c, 11, 41, 77
12, 115573, Note_off_c, 11, 39, 64
12, 115640, Note_off_c, 11, 41, 64
12, 115671, Note_on_c, 11, 39, 77
12, 115751, Note_off_c, 11, 39, 64
12, 115785, Note_on_c, 11, 37, 92
12, 115867, Note_off_c, 11, 37, 64
12, 115908, Note_on_c, 11, 36, 91
12, 115965, Note_off_c, 11, 36, 64
12, 116030, Note_on_c, 11, 34, 78
12, 116108, Note_off_c, 11, 34, 64
12, 116153, Note_on_c, 11, 32, 104
12, 116322, Note_off_c, 11, 32, 64
12, 116397, Note_on_c, 11, 32, 92
12, 116506, Note_off_c, 11, 32, 64
12, 116634, Note_on_c, 11, 32, 92
12, 116736, Note_off_c, 11, 32, 64
12, 116876, Note_on_c, 11, 32, 110
12, 117034, Note_off_c, 11, 32, 64
12, 117115, Note_on_c, 11, 32, 93
12, 117212, Note_off_c, 11, 32, 64
12, 117353, Note_on_c, 11, 32, 93
12, 117451, Note_off_c, 11, 32, 64
12, 117597, Note_on_c, 11, 32, 113
12, 117755, Note_off_c, 11, 32, 64
12, 117838, Note_on_c, 11, 32, 93
12, 117940, Note_off_c, 11, 32, 64
12, 118073, Note_on_c, 11, 32, 93
12, 118185, Note_off_c, 11, 32, 64
12, 118317, Note_on_c, 11, 32, 115
12, 118468, Note_off_c, 11, 32, 64
12, 118558, Note_on_c, 11, 32, 98
12, 118663, Note_off_c, 11, 32, 64
12, 118797, Note_on_c, 11, 32, 98
12, 118908, Note_off_c, 11, 32, 64
12, 119038, Note_on_c, 11, 32, 115
12, 119192, Note_off_c, 11, 32, 64
12, 119283, Note_on_c, 11, 32, 101
12, 119376, Note_off_c, 11, 32, 64
12, 119513, Note_on_c, 11, 32, 104
12, 119619, Note_off_c, 11, 32, 64
12, 119753, Note_on_c, 11, 32, 115
12, 119916, Note_off_c, 11, 32, 64
12, 120001, Note_on_c, 11, 32, 92
12, 120084, Note_off_c, 11, 32, 64
12, 120229, Note_on_c, 11, 32, 101
12, 120339, Note_off_c, 11, 32, 64
12, 120479, Note_on_c, 11, 32, 115
12, 120629, Note_off_c, 11, 32, 64
12, 120719, Note_on_c, 11, 32, 96
12, 120815, Note_off_c, 11, 32, 64
12, 120954, Note_on_c, 11, 32, 100
12, 121054, Note_off_c, 11, 32, 64
12, 121198, Note_on_c, 11, 32, 116
12, 121344, Note_off_c, 11, 32, 64
12, 121436, Note_on_c, 11, 32, 90
12, 121517, Note_off_c, 11, 32, 64
12, 121672, Note_on_c, 11, 32, 108
12, 121765, Note_off_c, 11, 32, 64
12, 121916, Note_on_c, 11, 32, 116
12, 122056, Note_off_c, 11, 32, 64
12, 122155, Note_on_c, 11, 36, 91
12, 122247, Note_off_c, 11, 36, 64
12, 122395, Note_on_c, 11, 39, 104
12, 122490, Note_off_c, 11, 39, 64
12, 122636, Note_on_c, 11, 36, 95
12, 122757, Note_off_c, 11, 36, 64
12, 122877, Note_on_c, 11, 39, 101
12, 122971, Note_off_c, 11, 39, 64
12, 123115, Note_on_c, 11, 44, 101
12, 123204, Note_off_c, 11, 44, 64
12, 123363, Note_on_c, 11, 37, 113
12, 123514, Note_off_c, 11, 37, 64
12, 123600, Note_on_c, 11, 41, 97
12, 123685, Note_off_c, 11, 41, 64
12, 123835, Note_on_c, 11, 44, 90
12, 123925, Note_off_c, 11, 44, 64
12, 124075, Note_on_c, 11, 41, 102
12, 124215, Note_off_c, 11, 41, 64
12, 124315, Note_on_c, 11, 44, 97
12, 124409, Note_off_c, 11, 44, 64
12, 124557, Note_on_c, 11, 49, 94
12, 124648, Note_off_c, 11, 49, 64
12, 124803, Note_on_c, 11, 30, 88
12, 125120, Note_off_c, 11, 30, 64
12, 126240, Note_on_c, 11, 42, 88
12, 126547, Note_off_c, 11, 42, 64
12, 127675, Note_on_c, 11, 41, 116
12, 127860, Note_off_c, 11, 41, 64
12, 127922, Note_on_c, 11, 39, 82
12, 128018, Note_off_c, 11, 39, 64
12, 128163, Note_on_c, 11, 37, 96
12, 128251, Note_off_c, 11, 37, 64
12, 128401, Note_on_c, 11, 44, 107
12, 128647, Note_off_c, 11, 44, 64
12, 128883, Note_on_c, 11, 32, 93
12, 128963, Note_off_c, 11, 32, 64
12, 129092, Control_c, 11, 11, 66
12, 129122, Note_on_c, 11, 25, 72
12, 129142, Control_c, 11, 11, 71
12, 129192, Control_c, 11, 11, 77
12, 129243, Control_c, 11, 11, 83
12, 129293, Control_c, 11, 11, 89
12, 129344, Control_c, 11, 11, 94
12, 129394, Control_c, 11, 11, 100
12, 129444, Control_c, 11, 11, 106
12, 129495, Control_c, 11, 11, 112
12, 129545, Control_c, 11, 11, 118
12, 129595, Control_c, 11, 11, 124
12, 129644, Control_c, 11, 11, 116
12, 129692, Control_c, 11, 11, 112
12, 129741, Control_c, 11, 11, 109
12, 129790, Control_c, 11, 11, 105
12, 129838, Control_c, 11, 11, 102
12, 129887, Control_c, 11, 11, 98
12, 129936, Control_c, 11, 11, 95
12, 129985, Control_c, 11, 11, 91
12, 130033, Control_c, 11, 11, 88
12, 130082, Control_c, 11, 11, 84
12, 130131, Control_c, 11, 11, 81
12, 130179, Control_c, 11, 11, 78
12, 130232, Control_c, 11, 11, 64
12, 130272, Control_c, 11, 11, 44
12, 130330, Note_off_c, 11, 25, 64
12, 130424, Control_c, 11, 11, 100
12, 134880, Note_on_c, 11, 42, 110
12, 134995, Note_off_c, 11, 42, 64
12, 134996, Note_on_c, 11, 41, 87
12, 135082, Note_off_c, 11, 41, 64
12, 135111, Note_on_c, 11, 42, 83
12, 135210, Note_off_c, 11, 42, 64
12, 135230, Note_on_c, 11, 44, 101
12, 135315, Note_off_c, 11, 44, 64
12, 135352, Note_on_c, 11, 46, 97
12, 135426, Note_off_c, 11, 46, 64
12, 135469, Note_on_c, 11, 47, 94
12, 135543, Note_off_c, 11, 47, 64
12, 135595, Note_on_c, 11, 49, 106
12, 135697, Note_off_c, 11, 49, 64
12, 135710, Note_on_c, 11, 51, 90
12, 135799, Note_off_c, 11, 51, 64
12, 135825, Note_on_c, 11, 49, 88
12, 135911, Note_off_c, 11, 49, 64
12, 135947, Note_on_c, 11, 47, 92
12, 136035, Note_off_c, 11, 47, 64
12, 136067, Note_on_c, 11, 46, 90
12, 136153, Note_off_c, 11, 46, 64
12, 136185, Note_on_c, 11, 44, 89
12, 136262, Note_off_c, 11, 44, 64
12, 136311, Note_on_c, 11, 42, 106
12, 136414, Note_off_c, 11, 42, 64
12, 136431, Note_on_c, 11, 41, 97
12, 136510, Note_off_c, 11, 41, 64
12, 136548, Note_on_c, 11, 42, 83
12, 136634, Note_off_c, 11, 42, 64
12, 136668, Note_on_c, 11, 44, 97
12, 136739, Note_off_c, 11, 44, 64
12, 136789, Note_on_c, 11, 46, 104
12, 136864, Note_off_c, 11, 46, 64
12, 136909, Note_on_c, 11, 42, 92
12, 136986, Note_off_c, 11, 42, 64
12, 137035, Note_on_c, 11, 47, 112
12, 137142, Note_off_c, 11, 47, 64
12, 137153, Note_on_c, 11, 49, 92
12, 137228, Note_off_c, 11, 49, 64
12, 137272, Note_on_c, 11, 47, 97
12, 137353, Note_off_c, 11, 47, 64
12, 137389, Note_on_c, 11, 46, 90
12, 137465, Note_off_c, 11, 46, 64
12, 137509, Note_on_c, 11, 44, 96
12, 137583, Note_off_c, 11, 44, 64
12, 137627, Note_on_c, 11, 42, 90
12, 137708, Note_off_c, 11, 42, 64
12, 137753, Note_on_c, 11, 41, 108
12, 137852, Note_off_c, 11, 41, 64
12, 137873, Note_on_c, 11, 39, 88
12, 137961, Note_off_c, 11, 39, 64
12, 137990, Note_on_c, 11, 41, 102
12, 138061, Note_off_c, 11, 41, 64
12, 138106, Note_on_c, 11, 42, 92
12, 138188, Note_off_c, 11, 42, 64
12, 138227, Note_on_c, 11, 44, 90
12, 138305, Note_off_c, 11, 44, 64
12, 138346, Note_on_c, 11, 41, 97
12, 138425, Note_off_c, 11, 41, 64
12, 138473, Note_on_c, 11, 46, 114
12, 138571, Note_off_c, 11, 46, 64
12, 138589, Note_on_c, 11, 48, 80
12, 138670, Note_off_c, 11, 48, 64
12, 138705, Note_on_c, 11, 46, 89
12, 138778, Note_off_c, 11, 46, 64
12, 138824, Note_on_c, 11, 44, 94
12, 138899, Note_off_c, 11, 44, 64
12, 138944, Note_on_c, 11, 42, 92
12, 139023, Note_off_c, 11, 42, 64
12, 139062, Note_on_c, 11, 41, 97
12, 139133, Note_off_c, 11, 41, 64
12, 139189, Note_on_c, 11, 39, 112
12, 139304, Note_off_c, 11, 39, 64
12, 139309, Note_on_c, 11, 37, 83
12, 139415, Note_off_c, 11, 37, 64
12, 139424, Note_on_c, 11, 39, 104
12, 139508, Note_off_c, 11, 39, 64
12, 139543, Note_on_c, 11, 41, 89
12, 139614, Note_off_c, 11, 41, 64
12, 139664, Note_on_c, 11, 42, 94
12, 139740, Note_off_c, 11, 42, 64
12, 139783, Note_on_c, 11, 39, 107
12, 139856, Note_off_c, 11, 39, 64
12, 139912, Note_on_c, 11, 44, 112
12, 140029, Note_off_c, 11, 44, 64
12, 140030, Note_on_c, 11, 46, 77
12, 140100, Note_off_c, 11, 46, 64
12, 140145, Note_on_c, 11, 44, 90
12, 140213, Note_off_c, 11, 44, 64
12, 140262, Note_on_c, 11, 42, 92
12, 140335, Note_off_c, 11, 42, 64
12, 140384, Note_on_c, 11, 41, 95
12, 140462, Note_off_c, 11, 41, 64
12, 140501, Note_on_c, 11, 39, 85
12, 140584, Note_off_c, 11, 39, 64
12, 140635, Note_on_c, 11, 37, 74
12, 140918, Note_off_c, 11, 37, 64
12, 141353, Note_on_c, 11, 32, 76
12, 141635, Note_off_c, 11, 32, 64
12, 142075, Note_on_c, 11, 37, 68
12, 142379, Note_off_c, 11, 37, 64
12, 142797, Note_on_c, 11, 44, 69
12, 143075, Note_off_c, 11, 44, 64
12, 143519, Note_on_c, 11, 37, 115
12, 143678, Note_off_c, 11, 37, 64
12, 143761, Note_on_c, 11, 41, 89
12, 143842, Note_off_c, 11, 41, 64
12, 144001, Note_on_c, 11, 44, 97
12, 144084, Note_off_c, 11, 44, 64
12, 144237, Note_on_c, 11, 32, 110
12, 144393, Note_off_c, 11, 32, 64
12, 144486, Note_on_c, 11, 39, 97
12, 144564, Note_off_c, 11, 39, 64
12, 144717, Note_on_c, 11, 44, 101
12, 144800, Note_off_c, 11, 44, 64
12, 144963, Note_on_c, 11, 37, 113
12, 145056, Note_off_c, 11, 37, 64
12, 145081, Note_on_c, 11, 36, 90
12, 145162, Note_off_c, 11, 36, 64
12, 145198, Note_on_c, 11, 37, 84
12, 145282, Note_off_c, 11, 37, 64
12, 145315, Note_on_c, 11, 39, 107
12, 145388, Note_off_c, 11, 39, 64
12, 145435, Note_on_c, 11, 41, 97
12, 145515, Note_off_c, 11, 41, 64
12, 145556, Note_on_c, 11, 42, 89
12, 145636, Note_off_c, 11, 42, 64
12, 145677, Note_on_c, 11, 44, 110
12, 145783, Note_off_c, 11, 44, 64
12, 145799, Note_on_c, 11, 46, 98
12, 145878, Note_off_c, 11, 46, 64
12, 145917, Note_on_c, 11, 44, 98
12, 145994, Note_off_c, 11, 44, 64
12, 146034, Note_on_c, 11, 42, 96
12, 146114, Note_off_c, 11, 42, 64
12, 146154, Note_on_c, 11, 41, 97
12, 146226, Note_off_c, 11, 41, 64
12, 146272, Note_on_c, 11, 39, 90
12, 146355, Note_off_c, 11, 39, 64
12, 146399, Note_on_c, 11, 37, 113
12, 146506, Note_off_c, 11, 37, 64
12, 146516, Note_on_c, 11, 36, 86
12, 146592, Note_off_c, 11, 36, 64
12, 146633, Note_on_c, 11, 37, 87
12, 146720, Note_off_c, 11, 37, 64
12, 146750, Note_on_c, 11, 39, 107
12, 146828, Note_off_c, 11, 39, 64
12, 146872, Note_on_c, 11, 41, 102
12, 146950, Note_off_c, 11, 41, 64
12, 146990, Note_on_c, 11, 37, 92
12, 147071, Note_off_c, 11, 37, 64
12, 147117, Note_on_c, 11, 42, 110
12, 147218, Note_off_c, 11, 42, 64
12, 147238, Note_on_c, 11, 44, 90
12, 147333, Note_off_c, 11, 44, 64
12, 147356, Note_on_c, 11, 42, 104
12, 147439, Note_off_c, 11, 42, 64
12, 147477, Note_on_c, 11, 41, 97
12, 147556, Note_off_c, 11, 41, 64
12, 147598, Note_on_c, 11, 39, 104
12, 147681, Note_off_c, 11, 39, 64
12, 147713, Note_on_c, 11, 37, 90
12, 147801, Note_off_c, 11, 37, 64
12, 147834, Note_on_c, 11, 36, 110
12, 147940, Note_off_c, 11, 36, 64
12, 147953, Note_on_c, 11, 34, 96
12, 148070, Note_on_c, 11, 36, 102
12, 148082, Note_off_c, 11, 34, 64
12, 148146, Note_off_c, 11, 36, 64
12, 148190, Note_on_c, 11, 37, 78
12, 148264, Note_off_c, 11, 37, 64
12, 148309, Note_on_c, 11, 39, 89
12, 148386, Note_off_c, 11, 39, 64
12, 148429, Note_on_c, 11, 36, 91
12, 148500, Note_off_c, 11, 36, 64
12, 148558, Note_on_c, 11, 41, 108
12, 148667, Note_off_c, 11, 41, 64
12, 148672, Note_on_c, 11, 42, 89
12, 148781, Note_off_c, 11, 42, 64
12, 148788, Note_on_c, 11, 41, 97
12, 148867, Note_off_c, 11, 41, 64
12, 148906, Note_on_c, 11, 39, 90
12, 148993, Note_off_c, 11, 39, 64
12, 149025, Note_on_c, 11, 37, 89
12, 149108, Note_off_c, 11, 37, 64
12, 149144, Note_on_c, 11, 36, 86
12, 149210, Note_off_c, 11, 36, 64
12, 149269, Note_on_c, 11, 34, 108
12, 149389, Note_off_c, 11, 34, 64
12, 149391, Note_on_c, 11, 32, 88
12, 149510, Note_on_c, 11, 34, 97
12, 149527, Note_off_c, 11, 32, 64
12, 149600, Note_off_c, 11, 34, 64
12, 149633, Note_on_c, 11, 36, 97
12, 149705, Note_off_c, 11, 36, 64
12, 149752, Note_on_c, 11, 37, 88
12, 149835, Note_off_c, 11, 37, 64
12, 149871, Note_on_c, 11, 34, 84
12, 149942, Note_off_c, 11, 34, 64
12, 149999, Note_on_c, 11, 39, 104
12, 150122, Note_on_c, 11, 41, 77
12, 150133, Note_off_c, 11, 39, 64
12, 150200, Note_off_c, 11, 41, 64
12, 150231, Note_on_c, 11, 39, 77
12, 150311, Note_off_c, 11, 39, 64
12, 150345, Note_on_c, 11, 37, 92
12, 150427, Note_off_c, 11, 37, 64
12, 150468, Note_on_c, 11, 36, 91
12, 150525, Note_off_c, 11, 36, 64
12, 150590, Note_on_c, 11, 34, 78
12, 150668, Note_off_c, 11, 34, 64
12, 150713, Note_on_c, 11, 32, 104
12, 150882, Note_off_c, 11, 32, 64
12, 150957, Note_on_c, 11, 32, 92
12, 151066, Note_off_c, 11, 32, 64
12, 151194, Note_on_c, 11, 32, 92
12, 151296, Note_off_c, 11, 32, 64
12, 151436, Note_on_c, 11, 32, 110
12, 151594, Note_off_c, 11, 32, 64
12, 151675, Note_on_c, 11, 32, 93
12, 151772, Note_off_c, 11, 32, 64
12, 151913, Note_on_c, 11, 32, 93
12, 152011, Note_off_c, 11, 32, 64
12, 152157, Note_on_c, 11, 32, 113
12, 152315, Note_off_c, 11, 32, 64
12, 152398, Note_on_c, 11, 32, 93
12, 152500, Note_off_c, 11, 32, 64
12, 152633, Note_on_c, 11, 32, 93
12, 152745, Note_off_c, 11, 32, 64
12, 152877, Note_on_c, 11, 32, 115
12, 153028, Note_off_c, 11, 32, 64
12, 153118, Note_on_c, 11, 32, 98
12, 153223, Note_off_c, 11, 32, 64
12, 153357, Note_on_c, 11, 32, 98
12, 153468, Note_off_c, 11, 32, 64
12, 153598, Note_on_c, 11, 32, 115
12, 153752, Note_off_c, 11, 32, 64
12, 153843, Note_on_c, 11, 32, 101
12, 153936, Note_off_c, 11, 32, 64
12, 154073, Note_on_c, 11, 32, 104
12, 154179, Note_off_c, 11, 32, 64
12, 154313, Note_on_c, 11, 32, 115
12, 154476, Note_off_c, 11, 32, 64
12, 154561, Note_on_c, 11, 32, 92
12, 154644, Note_off_c, 11, 32, 64
12, 154789, Note_on_c, 11, 32, 101
12, 154899, Note_off_c, 11, 32, 64
12, 155039, Note_on_c, 11, 32, 115
12, 155189, Note_off_c, 11, 32, 64
12, 155279, Note_on_c, 11, 32, 96
12, 155375, Note_off_c, 11, 32, 64
12, 155514, Note_on_c, 11, 32, 100
12, 155614, Note_off_c, 11, 32, 64
12, 155758, Note_on_c, 11, 32, 116
12, 155904, Note_off_c, 11, 32, 64
12, 155996, Note_on_c, 11, 32, 90
12, 156077, Note_off_c, 11, 32, 64
12, 156232, Note_on_c, 11, 32, 108
12, 156325, Note_off_c, 11, 32, 64
12, 156476, Note_on_c, 11, 32, 116
12, 156616, Note_off_c, 11, 32, 64
12, 156715, Note_on_c, 11, 36, 91
12, 156807, Note_off_c, 11, 36, 64
12, 156955, Note_on_c, 11, 39, 104
12, 157050, Note_off_c, 11, 39, 64
12, 157196, Note_on_c, 11, 36, 95
12, 157317, Note_off_c, 11, 36, 64
12, 157437, Note_on_c, 11, 39, 101
12, 157531, Note_off_c, 11, 39, 64
12, 157675, Note_on_c, 11, 44, 101
12, 157764, Note_off_c, 11, 44, 64
12, 157923, Note_on_c, 11, 37, 113
12, 158074, Note_off_c, 11, 37, 64
12, 158160, Note_on_c, 11, 41, 97
12, 158245, Note_off_c, 11, 41, 64
12, 158395, Note_on_c, 11, 44, 90
12, 158485, Note_off_c, 11, 44, 64
12, 158635, Note_on_c, 11, 41, 102
12, 158775, Note_off_c, 11, 41, 64
12, 158875, Note_on_c, 11, 44, 97
12, 158969, Note_off_c, 11, 44, 64
12, 159117, Note_on_c, 11, 49, 94
12, 159208, Note_off_c, 11, 49, 64
12, 159363, Note_on_c, 11, 30, 88
12, 159680, Note_off_c, 11, 30, 64
12, 160800, Note_on_c, 11, 42, 88
12, 161107, Note_off_c, 11, 42, 64
12, 162235, Note_on_c, 11, 41, 116
12, 162420, Note_off_c, 11, 41, 64
12, 162482, Note_on_c, 11, 39, 82
12, 162578, Note_off_c, 11, 39, 64
12, 162723, Note_on_c, 11, 37, 96
12, 162811, Note_off_c, 11, 37, 64
12, 162961, Note_on_c, 11, 44, 107
12, 163207, Note_off_c, 11, 44, 64
12, 163443, Note_on_c, 11, 32, 93
12, 163523, Note_off_c, 11, 32, 64
12, 163652, Control_c, 11, 11, 66
12, 163682, Note_on_c, 11, 25, 72
12, 163702, Control_c, 11, 11, 71
12, 163752, Control_c, 11, 11, 77
12, 163803, Control_c, 11, 11, 83
12, 163853, Control_c, 11, 11, 89
12, 163904, Control_c, 11, 11, 94
12, 163954, Control_c, 11, 11, 100
12, 164004, Control_c, 11, 11, 106
12, 164055, Control_c, 11, 11, 112
12, 164105, Control_c, 11, 11, 118
12, 164155, Control_c, 11, 11, 124
12, 164204, Control_c, 11, 11, 116
12, 164252, Control_c, 11, 11, 112
12, 164301, Control_c, 11, 11, 109
12, 164350, Control_c, 11, 11, 105
12, 164398, Control_c, 11, 11, 102
12, 164447, Control_c, 11, 11, 98
12, 164496, Control_c, 11, 11, 95
12, 164545, Control_c, 11, 11, 91
12, 164593, Control_c, 11, 11, 88
12, 164642, Control_c, 11, 11, 84
12, 164691, Control_c, 11, 11, 81
12, 164739, Control_c, 11, 11, 78
12, 164792, Control_c, 11, 11, 64
12, 164832, Control_c, 11, 11, 44
12, 164890, Note_off_c, 11, 25, 64
12, 164984, Control_c, 11, 11, 100
12, 165120, Note_on_c, 11, 37, 116
12, 165234, Note_on_c, 11, 36, 87
12, 165255, Note_off_c, 11, 37, 64
12, 165321, Note_off_c, 11, 36, 64
12, 165347, Note_on_c, 11, 37, 83
12, 165449, Note_off_c, 11, 37, 64
12, 165466, Note_on_c, 11, 39, 101
12, 165551, Note_off_c, 11, 39, 64
12, 165586, Note_on_c, 11, 41, 92
12, 165668, Note_off_c, 11, 41, 64
12, 165703, Note_on_c, 11, 42, 90
12, 165784, Note_off_c, 11, 42, 64
12, 165831, Note_on_c, 11, 44, 115
12, 165945, Note_on_c, 11, 46, 83
12, 165949, Note_off_c, 11, 44, 64
12, 166044, Note_off_c, 11, 46, 64
12, 166064, Note_on_c, 11, 44, 88
12, 166153, Note_off_c, 11, 44, 64
12, 166181, Note_on_c, 11, 42, 90
12, 166270, Note_off_c, 11, 42, 64
12, 166302, Note_on_c, 11, 41, 105
12, 166393, Note_off_c, 11, 41, 64
12, 166420, Note_on_c, 11, 39, 88
12, 166516, Note_off_c, 11, 39, 64
12, 166551, Note_on_c, 11, 41, 113
12, 166659, Note_off_c, 11, 41, 64
12, 166672, Note_on_c, 11, 44, 91
12, 166759, Note_off_c, 11, 44, 64
12, 166789, Note_on_c, 11, 42, 96
12, 166866, Note_off_c, 11, 42, 64
12, 166909, Note_on_c, 11, 41, 87
12, 166990, Note_off_c, 11, 41, 64
12, 167030, Note_on_c, 11, 39, 87
12, 167122, Note_off_c, 11, 39, 64
12, 167147, Note_on_c, 11, 37, 91
12, 167246, Note_off_c, 11, 37, 64
12, 167271, Note_on_c, 11, 36, 115
12, 167387, Note_off_c, 11, 36, 64
12, 167393, Note_on_c, 11, 39, 84
12, 167479, Note_off_c, 11, 39, 64
12, 167510, Note_on_c, 11, 37, 88
12, 167595, Note_off_c, 11, 37, 64
12, 167629, Note_on_c, 11, 36, 93
12, 167707, Note_off_c, 11, 36, 64
12, 167751, Note_on_c, 11, 34, 100
12, 167832, Note_off_c, 11, 34, 64
12, 167874, Note_on_c, 11, 32, 87
12, 167959, Note_off_c, 11, 32, 64
12, 168000, Note_on_c, 11, 39, 95
12, 168160, Note_off_c, 11, 39, 64
12, 168232, Note_on_c, 11, 42, 77
12, 168312, Note_off_c, 11, 42, 64
12, 168467, Note_on_c, 11, 46, 77
12, 168556, Note_off_c, 11, 46, 64
12, 168715, Note_on_c, 11, 38, 86
12, 168869, Note_off_c, 11, 38, 64
12, 168952, Note_on_c, 11, 41, 72
12, 169024, Note_off_c, 11, 41, 64
12, 169192, Note_on_c, 11, 46, 77
12, 169274, Note_off_c, 11, 46, 64
12, 169434, Note_on_c, 11, 39, 82
12, 169616, Note_off_c, 11, 39, 64
12, 169672, Note_on_c, 11, 42, 68
12, 169750, Note_off_c, 11, 42, 64
12, 169914, Note_on_c, 11, 46, 68
12, 170008, Note_off_c, 11, 46, 64
12, 170156, Note_on_c, 11, 34, 82
12, 170316, Note_off_c, 11, 34, 64
12, 170397, Note_on_c, 11, 41, 66
12, 170473, Note_off_c, 11, 41, 64
12, 170635, Note_on_c, 11, 46, 77
12, 170700, Note_off_c, 11, 46, 64
12, 170875, Note_on_c, 11, 30, 59
12, 171142, Note_off_c, 11, 30, 64
12, 171597, Note_on_c, 11, 32, 66
12, 171808, Note_off_c, 11, 32, 64
12, 172322, Note_on_c, 11, 34, 68
12, 172534, Note_off_c, 11, 34, 64
12, 173028, Note_on_c, 11, 35, 68
12, 173227, Note_off_c, 11, 35, 64
12, 173757, Note_on_c, 11, 30, 71
12, 173966, Note_off_c, 11, 30, 64
12, 174484, Note_on_c, 11, 32, 77
12, 174692, Note_off_c, 11, 32, 64
12, 175193, Note_on_c, 11, 34, 80
12, 175395, Note_off_c, 11, 34, 64
12, 175436, Note_on_c, 11, 32, 77
12, 175528, Note_off_c, 11, 32, 64
12, 175678, Note_on_c, 11, 34, 77
12, 175764, Note_off_c, 11, 34, 64
12, 175922, Note_on_c, 11, 27, 96
12, 176082, Note_off_c, 11, 27, 64
12, 176155, Note_on_c, 11, 30, 77
12, 176230, Note_off_c, 11, 30, 64
12, 176399, Note_on_c, 11, 34, 77
12, 176467, Note_off_c, 11, 34, 64
12, 176644, Note_on_c, 11, 39, 60
12, 176852, Note_off_c, 11, 39, 64
12, 180960, Note_on_c, 11, 39, 110
12, 181063, Note_off_c, 11, 39, 64
12, 181077, Note_on_c, 11, 38, 78
12, 181138, Note_off_c, 11, 38, 64
12, 181195, Note_on_c, 11, 39, 87
12, 181276, Note_off_c, 11, 39, 64
12, 181310, Note_on_c, 11, 41, 89
12, 181377, Note_off_c, 11, 41, 64
12, 181430, Note_on_c, 11, 42, 96
12, 181499, Note_off_c, 11, 42, 64
12, 181545, Note_on_c, 11, 44, 84
12, 181617, Note_off_c, 11, 44, 64
12, 181672, Note_on_c, 11, 46, 115
12, 181765, Note_off_c, 11, 46, 64
12, 181787, Note_on_c, 11, 47, 78
12, 181859, Note_off_c, 11, 47, 64
12, 181909, Note_on_c, 11, 46, 84
12, 181980, Note_off_c, 11, 46, 64
12, 182029, Note_on_c, 11, 44, 87
12, 182094, Note_off_c, 11, 44, 64
12, 182150, Note_on_c, 11, 42, 98
12, 182225, Note_off_c, 11, 42, 64
12, 182267, Note_on_c, 11, 41, 83
12, 182334, Note_off_c, 11, 41, 64
12, 182393, Note_on_c, 11, 39, 114
12, 182479, Note_off_c, 11, 39, 64
12, 182510, Note_on_c, 11, 38, 71
12, 182571, Note_off_c, 11, 38, 64
12, 182626, Note_on_c, 11, 39, 78
12, 182709, Note_off_c, 11, 39, 64
12, 182747, Note_on_c, 11, 41, 91
12, 182815, Note_off_c, 11, 41, 64
12, 182868, Note_on_c, 11, 42, 83
12, 182942, Note_off_c, 11, 42, 64
12, 182988, Note_on_c, 11, 39, 85
12, 183060, Note_off_c, 11, 39, 64
12, 183116, Note_on_c, 11, 44, 112
12, 183218, Note_off_c, 11, 44, 64
12, 183237, Note_on_c, 11, 46, 96
12, 183306, Note_off_c, 11, 46, 64
12, 183354, Note_on_c, 11, 44, 89
12, 183413, Note_off_c, 11, 44, 64
12, 183469, Note_on_c, 11, 42, 84
12, 183541, Note_off_c, 11, 42, 64
12, 183591, Note_on_c, 11, 41, 87
12, 183650, Note_off_c, 11, 41, 64
12, 183710, Note_on_c, 11, 39, 88
12, 183784, Note_off_c, 11, 39, 64
12, 183835, Note_on_c, 11, 37, 112
12, 183930, Note_off_c, 11, 37, 64
12, 183950, Note_on_c, 11, 36, 71
12, 184007, Note_off_c, 11, 36, 64
12, 184067, Note_on_c, 11, 37, 87
12, 184146, Note_off_c, 11, 37, 64
12, 184185, Note_on_c, 11, 39, 97
12, 184242, Note_off_c, 11, 39, 64
12, 184307, Note_on_c, 11, 41, 107
12, 184358, Note_off_c, 11, 41, 64
12, 184424, Note_on_c, 11, 37, 87
12, 184496, Note_off_c, 11, 37, 64
12, 184551, Note_on_c, 11, 42, 114
12, 184636, Note_off_c, 11, 42, 64
12, 184667, Note_on_c, 11, 44, 84
12, 184737, Note_off_c, 11, 44, 64
12, 184791, Note_on_c, 11, 42, 81
12, 184862, Note_off_c, 11, 42, 64
12, 184907, Note_on_c, 11, 41, 78
12, 184971, Note_off_c, 11, 41, 64
12, 185026, Note_on_c, 11, 39, 94
12, 185096, Note_off_c, 11, 39, 64
12, 185143, Note_on_c, 11, 37, 84
12, 185220, Note_off_c, 11, 37, 64
12, 185271, Note_on_c, 11, 36, 107
12, 185364, Note_off_c, 11, 36, 64
12, 185389, Note_on_c, 11, 34, 84
12, 185463, Note_off_c, 11, 34, 64
12, 185511, Note_on_c, 11, 36, 88
12, 185568, Note_off_c, 11, 36, 64
12, 185627, Note_on_c, 11, 37, 90
12, 185695, Note_off_c, 11, 37, 64
12, 185747, Note_on_c, 11, 39, 100
12, 185820, Note_off_c, 11, 39, 64
12, 185869, Note_on_c, 11, 36, 88
12, 185925, Note_off_c, 11, 36, 64
12, 185995, Note_on_c, 11, 41, 106
12, 186084, Note_off_c, 11, 41, 64
12, 186114, Note_on_c, 11, 42, 88
12, 186184, Note_off_c, 11, 42, 64
12, 186229, Note_on_c, 11, 41, 89
12, 186284, Note_off_c, 11, 41, 64
12, 186349, Note_on_c, 11, 39, 87
12, 186417, Note_off_c, 11, 39, 64
12, 186467, Note_on_c, 11, 37, 98
12, 186543, Note_off_c, 11, 37, 64
12, 186587, Note_on_c, 11, 36, 78
12, 186648, Note_off_c, 11, 36, 64
12, 186719, Note_on_c, 11, 34, 77
12, 186949, Note_off_c, 11, 34, 64
12, 187439, Note_on_c, 11, 29, 80
12, 187662, Note_off_c, 11, 29, 64
12, 188160, Note_on_c, 11, 34, 77
12, 188402, Note_off_c, 11, 34, 64
12, 188875, Note_on_c, 11, 41, 78
12, 189119, Note_off_c, 11, 41, 64
12, 189604, Note_on_c, 11, 34, 108
12, 189800, Note_off_c, 11, 34, 64
12, 189842, Note_on_c, 11, 37, 82
12, 189928, Note_off_c, 11, 37, 64
12, 190078, Note_on_c, 11, 41, 88
12, 190166, Note_off_c, 11, 41, 64
12, 190317, Note_on_c, 11, 33, 116
12, 190496, Note_off_c, 11, 33, 64
12, 190558, Note_on_c, 11, 36, 84
12, 190639, Note_off_c, 11, 36, 64
12, 190803, Note_on_c, 11, 41, 93
12, 190861, Note_off_c, 11, 41, 64
12, 191040, Note_on_c, 11, 34, 110
12, 191157, Note_on_c, 11, 33, 77
12, 191178, Note_off_c, 11, 34, 64
12, 191243, Note_off_c, 11, 33, 64
12, 191272, Note_on_c, 11, 34, 77
12, 191355, Note_off_c, 11, 34, 64
12, 191391, Note_on_c, 11, 36, 91
12, 191453, Note_off_c, 11, 36, 64
12, 191507, Note_on_c, 11, 37, 78
12, 191589, Note_off_c, 11, 37, 64
12, 191628, Note_on_c, 11, 39, 96
12, 191700, Note_off_c, 11, 39, 64
12, 191759, Note_on_c, 11, 41, 112
12, 191872, Note_off_c, 11, 41, 64
12, 191875, Note_on_c, 11, 42, 78
12, 191954, Note_off_c, 11, 42, 64
12, 191992, Note_on_c, 11, 41, 91
12, 192058, Note_off_c, 11, 41, 64
12, 192108, Note_on_c, 11, 39, 83
12, 192180, Note_off_c, 11, 39, 64
12, 192229, Note_on_c, 11, 37, 81
12, 192309, Note_off_c, 11, 37, 64
12, 192351, Note_on_c, 11, 36, 91
12, 192416, Note_off_c, 11, 36, 64
12, 192476, Note_on_c, 11, 34, 104
12, 192590, Note_off_c, 11, 34, 64
12, 192591, Note_on_c, 11, 33, 80
12, 192669, Note_off_c, 11, 33, 64
12, 192709, Note_on_c, 11, 34, 84
12, 192794, Note_off_c, 11, 34, 64
12, 192829, Note_on_c, 11, 36, 91
12, 192899, Note_off_c, 11, 36, 64
12, 192953, Note_on_c, 11, 37, 83
12, 193028, Note_off_c, 11, 37, 64
12, 193069, Note_on_c, 11, 34, 88
12, 193148, Note_off_c, 11, 34, 64
12, 193197, Note_on_c, 11, 39, 113
12, 193317, Note_on_c, 11, 41, 89
12, 193333, Note_off_c, 11, 39, 64
12, 193395, Note_off_c, 11, 41, 64
12, 193432, Note_on_c, 11, 39, 81
12, 193507, Note_off_c, 11, 39, 64
12, 193548, Note_on_c, 11, 37, 87
12, 193622, Note_off_c, 11, 37, 64
12, 193667, Note_on_c, 11, 36, 91
12, 193726, Note_off_c, 11, 36, 64
12, 193784, Note_on_c, 11, 34, 92
12, 193856, Note_off_c, 11, 34, 64
12, 193909, Note_on_c, 11, 32, 96
12, 194033, Note_on_c, 11, 31, 72
12, 194055, Note_off_c, 11, 32, 64
12, 194121, Note_off_c, 11, 31, 64
12, 194151, Note_on_c, 11, 32, 77
12, 194239, Note_off_c, 11, 32, 64
12, 194270, Note_on_c, 11, 34, 89
12, 194341, Note_off_c, 11, 34, 64
12, 194393, Note_on_c, 11, 36, 95
12, 194462, Note_off_c, 11, 36, 64
12, 194506, Note_on_c, 11, 32, 84
12, 194594, Note_off_c, 11, 32, 64
12, 194637, Note_on_c, 11, 37, 113
12, 194755, Note_on_c, 11, 39, 78
12, 194763, Note_off_c, 11, 37, 64
12, 194849, Note_off_c, 11, 39, 64
12, 194873, Note_on_c, 11, 37, 84
12, 194952, Note_off_c, 11, 37, 64
12, 194990, Note_on_c, 11, 36, 97
12, 195052, Note_off_c, 11, 36, 64
12, 195109, Note_on_c, 11, 34, 90
12, 195188, Note_off_c, 11, 34, 64
12, 195227, Note_on_c, 11, 32, 83
12, 195313, Note_off_c, 11, 32, 64
12, 195356, Note_on_c, 11, 30, 106
12, 195473, Note_on_c, 11, 29, 83
12, 195474, Note_off_c, 11, 30, 64
12, 195559, Note_off_c, 11, 29, 64
12, 195589, Note_on_c, 11, 30, 77
12, 195674, Note_off_c, 11, 30, 64
12, 195709, Note_on_c, 11, 32, 88
12, 195785, Note_off_c, 11, 32, 64
12, 195829, Note_on_c, 11, 34, 81
12, 195913, Note_off_c, 11, 34, 64
12, 195949, Note_on_c, 11, 30, 83
12, 196036, Note_off_c, 11, 30, 64
12, 196076, Note_on_c, 11, 36, 107
12, 196195, Note_on_c, 11, 37, 77
12, 196218, Note_off_c, 11, 36, 64
12, 196292, Note_off_c, 11, 37, 64
12, 196313, Note_on_c, 11, 36, 89
12, 196394, Note_off_c, 11, 36, 64
12, 196429, Note_on_c, 11, 34, 84
12, 196510, Note_off_c, 11, 34, 64
12, 196548, Note_on_c, 11, 33, 95
12, 196615, Note_off_c, 11, 33, 64
12, 196666, Note_on_c, 11, 31, 89
12, 196745, Note_off_c, 11, 31, 64
12, 196798, Note_on_c, 11, 29, 104
12, 196942, Note_off_c, 11, 29, 64
12, 197036, Note_on_c, 11, 29, 71
12, 197176, Note_off_c, 11, 29, 64
12, 197275, Note_on_c, 11, 29, 78
12, 197414, Note_off_c, 11, 29, 64
12, 197516, Note_on_c, 11, 29, 98
12, 197674, Note_off_c, 11, 29, 64
12, 197756, Note_on_c, 11, 29, 78
12, 197898, Note_off_c, 11, 29, 64
12, 197998, Note_on_c, 11, 29, 83
12, 198131, Note_off_c, 11, 29, 64
12, 198237, Note_on_c, 11, 29, 104
12, 198405, Note_off_c, 11, 29, 64
12, 198478, Note_on_c, 11, 29, 80
12, 198611, Note_off_c, 11, 29, 64
12, 198716, Note_on_c, 11, 29, 86
12, 198852, Note_off_c, 11, 29, 64
12, 198961, Note_on_c, 11, 29, 102
12, 199127, Note_off_c, 11, 29, 64
12, 199197, Note_on_c, 11, 29, 78
12, 199331, Note_off_c, 11, 29, 64
12, 199437, Note_on_c, 11, 29, 90
12, 199564, Note_off_c, 11, 29, 64
12, 199679, Note_on_c, 11, 29, 104
12, 199851, Note_off_c, 11, 29, 64
12, 199920, Note_on_c, 11, 29, 78
12, 200064, Note_off_c, 11, 29, 64
12, 200159, Note_on_c, 11, 29, 84
12, 200304, Note_off_c, 11, 29, 64
12, 200401, Note_on_c, 11, 29, 106
12, 200560, Note_off_c, 11, 29, 64
12, 200635, Note_on_c, 11, 29, 76
12, 200783, Note_off_c, 11, 29, 64
12, 200877, Note_on_c, 11, 29, 82
12, 201011, Note_off_c, 11, 29, 64
12, 201119, Note_on_c, 11, 29, 108
12, 201277, Note_off_c, 11, 29, 64
12, 201357, Note_on_c, 11, 29, 87
12, 201501, Note_off_c, 11, 29, 64
12, 201595, Note_on_c, 11, 29, 90
12, 201725, Note_off_c, 11, 29, 64
12, 201834, Note_on_c, 11, 29, 112
12, 202007, Note_off_c, 11, 29, 64
12, 202077, Note_on_c, 11, 29, 87
12, 202193, Note_off_c, 11, 29, 64
12, 202310, Note_on_c, 11, 29, 91
12, 202435, Note_off_c, 11, 29, 64
12, 202558, Note_on_c, 11, 29, 102
12, 202720, Note_off_c, 11, 29, 64
12, 202801, Note_on_c, 11, 33, 76
12, 202899, Note_off_c, 11, 33, 64
12, 203030, Note_on_c, 11, 36, 91
12, 203156, Note_off_c, 11, 36, 64
12, 203273, Note_on_c, 11, 33, 112
12, 203423, Note_off_c, 11, 33, 64
12, 203516, Note_on_c, 11, 36, 88
12, 203613, Note_off_c, 11, 36, 64
12, 203757, Note_on_c, 11, 41, 100
12, 203832, Note_off_c, 11, 41, 64
12, 204000, Note_on_c, 11, 34, 112
12, 204138, Note_off_c, 11, 34, 64
12, 204241, Note_on_c, 11, 38, 89
12, 204327, Note_off_c, 11, 38, 64
12, 204474, Note_on_c, 11, 41, 95
12, 204568, Note_off_c, 11, 41, 64
12, 204713, Note_on_c, 11, 38, 110
12, 204874, Note_off_c, 11, 38, 64
12, 204957, Note_on_c, 11, 41, 92
12, 205036, Note_off_c, 11, 41, 64
12, 205196, Note_on_c, 11, 46, 104
12, 205272, Note_off_c, 11, 46, 64
12, 205435, Note_on_c, 11, 27, 72
12, 205764, Note_off_c, 11, 27, 64
12, 206878, Note_on_c, 11, 39, 72
12, 207182, Note_off_c, 11, 39, 64
12, 208321, Note_on_c, 11, 37, 115
12, 208531, Note_off_c, 11, 37, 64
12, 208561, Note_on_c, 11, 36, 71
12, 208643, Note_off_c, 11, 36, 64
12, 208800, Note_on_c, 11, 34, 92
12, 208887, Note_off_c, 11, 34, 64
12, 209046, Note_on_c, 11, 41, 95
12, 209323, Note_off_c, 11, 41, 64
12, 209519, Note_on_c, 11, 29, 72
12, 209595, Note_off_c, 11, 29, 64
12, 209763, Note_on_c, 11, 34, 106
12, 209943, Note_off_c, 11, 34, 64
12, 210003, Note_on_c, 11, 37, 84
12, 210081, Note_off_c, 11, 37, 64
12, 210240, Note_on_c, 11, 41, 95
12, 210327, Note_off_c, 11, 41, 64
12, 210485, Note_on_c, 11, 46, 115
12, 210685, Note_off_c, 11, 46, 64
12, 210725, Note_on_c, 11, 44, 112
12, 210788, Note_off_c, 11, 44, 64
12, 210835, Note_on_c, 11, 42, 88
12, 210905, Note_off_c, 11, 42, 64
12, 210951, Note_on_c, 11, 41, 104
12, 211015, Note_off_c, 11, 41, 64
12, 211067, Note_on_c, 11, 39, 82
12, 211142, Note_off_c, 11, 39, 64
12, 211197, Note_on_c, 11, 38, 104
12, 211365, Note_off_c, 11, 38, 64
12, 211442, Note_on_c, 11, 41, 84
12, 211523, Note_off_c, 11, 41, 64
12, 211681, Note_on_c, 11, 46, 92
12, 211766, Note_off_c, 11, 46, 64
12, 211919, Note_on_c, 11, 34, 114
12, 212084, Note_off_c, 11, 34, 64
12, 212162, Note_on_c, 11, 41, 78
12, 212237, Note_off_c, 11, 41, 64
12, 212396, Note_on_c, 11, 46, 100
12, 212485, Note_off_c, 11, 46, 64
12, 212634, Note_on_c, 11, 39, 114
12, 212783, Note_off_c, 11, 39, 64
12, 212876, Note_on_c, 11, 42, 86
12, 212954, Note_off_c, 11, 42, 64
12, 213113, Note_on_c, 11, 46, 104
12, 213199, Note_off_c, 11, 46, 64
12, 213351, Note_on_c, 11, 51, 116
12, 213562, Note_off_c, 11, 51, 64
12, 213594, Note_on_c, 11, 49, 108
12, 213683, Note_off_c, 11, 49, 64
12, 213709, Note_on_c, 11, 47, 88
12, 213786, Note_off_c, 11, 47, 64
12, 213823, Note_on_c, 11, 46, 106
12, 213899, Note_off_c, 11, 46, 64
12, 213933, Note_on_c, 11, 44, 89
12, 214007, Note_off_c, 11, 44, 64
12, 214067, Note_on_c, 11, 43, 110
12, 214242, Note_off_c, 11, 43, 64
12, 214310, Note_on_c, 11, 46, 80
12, 214391, Note_off_c, 11, 46, 64
12, 214555, Note_on_c, 11, 51, 88
12, 214642, Note_off_c, 11, 51, 64
12, 214799, Note_on_c, 11, 39, 114
12, 214979, Note_off_c, 11, 39, 64
12, 215035, Note_on_c, 11, 46, 80
12, 215121, Note_off_c, 11, 46, 64
12, 215284, Note_on_c, 11, 51, 100
12, 215355, Note_off_c, 11, 51, 64
12, 215525, Note_on_c, 11, 32, 110
12, 215675, Note_off_c, 11, 32, 64
12, 215762, Note_on_c, 11, 35, 82
12, 215834, Note_off_c, 11, 35, 64
12, 216002, Note_on_c, 11, 39, 96
12, 216083, Note_off_c, 11, 39, 64
12, 216247, Note_on_c, 11, 44, 112
12, 216340, Note_off_c, 11, 44, 64
12, 216356, Note_on_c, 11, 46, 78
12, 216471, Note_on_c, 11, 44, 95
12, 216481, Note_off_c, 11, 46, 64
12, 216565, Note_off_c, 11, 44, 64
12, 216589, Note_on_c, 11, 42, 98
12, 216670, Note_off_c, 11, 42, 64
12, 216709, Note_on_c, 11, 40, 114
12, 216779, Note_off_c, 11, 40, 64
12, 216827, Note_on_c, 11, 39, 80
12, 216891, Note_off_c, 11, 39, 64
12, 216952, Note_on_c, 11, 37, 106
12, 217116, Note_off_c, 11, 37, 64
12, 217192, Note_on_c, 11, 44, 88
12, 217269, Note_off_c, 11, 44, 64
12, 217427, Note_on_c, 11, 49, 88
12, 217505, Note_off_c, 11, 49, 64
12, 217673, Note_on_c, 11, 42, 104
12, 217851, Note_off_c, 11, 42, 64
12, 217913, Note_on_c, 11, 37, 92
12, 217985, Note_off_c, 11, 37, 64
12, 218158, Note_on_c, 11, 30, 80
12, 218242, Note_off_c, 11, 30, 64
12, 218403, Note_on_c, 11, 35, 113
12, 218563, Note_off_c, 11, 35, 64
12, 218642, Note_on_c, 11, 42, 81
12, 218707, Note_off_c, 11, 42, 64
12, 218877, Note_on_c, 11, 47, 88
12, 218937, Note_off_c, 11, 47, 64
12, 219115, Note_on_c, 11, 40, 110
12, 219272, Note_off_c, 11, 40, 64
12, 219351, Note_on_c, 11, 35, 93
12, 219435, Note_off_c, 11, 35, 64
12, 219598, Note_on_c, 11, 28, 76
12, 219681, Note_off_c, 11, 28, 64
12, 219837, Note_on_c, 11, 40, 68
12, 220015, Note_off_c, 11, 40, 64
12, 220559, Note_on_c, 11, 39, 71
12, 220742, Note_off_c, 11, 39, 64
12, 221283, Note_on_c, 11, 37, 69
12, 221462, Note_off_c, 11, 37, 64
12, 221997, Note_on_c, 11, 35, 68
12, 222194, Note_off_c, 11, 35, 64
12, 222721, Note_on_c, 11, 34, 113
12, 222892, Note_off_c, 11, 34, 64
12, 222957, Note_on_c, 11, 37, 78
12, 223030, Note_off_c, 11, 37, 64
12, 223194, Note_on_c, 11, 42, 88
12, 223283, Note_off_c, 11, 42, 64
12, 223434, Note_on_c, 11, 35, 107
12, 223587, Note_off_c, 11, 35, 64
12, 223674, Note_on_c, 11, 39, 78
12, 223746, Note_off_c, 11, 39, 64
12, 223914, Note_on_c, 11, 42, 90
12, 223985, Note_off_c, 11, 42, 64
12, 224147, Note_on_c, 11, 34, 116
12, 224258, Note_off_c, 11, 34, 64
12, 224262, Note_on_c, 11, 37, 104
12, 224332, Note_off_c, 11, 37, 64
12, 224383, Note_on_c, 11, 30, 96
12, 224478, Note_off_c, 11, 30, 64
12, 224500, Note_on_c, 11, 37, 115
12, 224569, Note_off_c, 11, 37, 64
12, 224622, Note_on_c, 11, 34, 115
12, 224726, Note_off_c, 11, 34, 64
12, 224742, Note_on_c, 11, 37, 115
12, 224811, Note_off_c, 11, 37, 64
12, 224866, Note_on_c, 11, 35, 115
12, 224984, Note_off_c, 11, 35, 64
12, 224987, Note_on_c, 11, 39, 115
12, 225054, Note_off_c, 11, 39, 64
12, 225107, Note_on_c, 11, 30, 104
12, 225204, Note_off_c, 11, 30, 64
12, 225224, Note_on_c, 11, 39, 107
12, 225292, Note_off_c, 11, 39, 64
12, 225342, Note_on_c, 11, 35, 107
12, 225436, Note_off_c, 11, 35, 64
12, 225459, Note_on_c, 11, 39, 104
12, 225527, Note_off_c, 11, 39, 64
12, 225604, Note_on_c, 11, 29, 108
12, 225772, Note_off_c, 11, 29, 64
12, 225833, Note_on_c, 11, 29, 76
12, 225963, Note_off_c, 11, 29, 64
12, 226080, Note_on_c, 11, 29, 76
12, 226201, Note_off_c, 11, 29, 64
12, 226320, Note_on_c, 11, 29, 107
12, 226447, Note_off_c, 11, 29, 64
12, 226558, Note_on_c, 11, 29, 86
12, 226675, Note_off_c, 11, 29, 64
12, 226802, Note_on_c, 11, 29, 86
12, 226887, Note_off_c, 11, 29, 64
12, 227043, Note_on_c, 11, 28, 115
12, 227199, Note_off_c, 11, 28, 64
12, 227285, Note_on_c, 11, 28, 74
12, 227386, Note_off_c, 11, 28, 64
12, 227523, Note_on_c, 11, 28, 74
12, 227621, Note_off_c, 11, 28, 64
12, 227763, Note_on_c, 11, 28, 108
12, 227903, Note_off_c, 11, 28, 64
12, 227998, Note_on_c, 11, 28, 76
12, 228095, Note_off_c, 11, 28, 64
12, 228234, Note_on_c, 11, 28, 76
12, 228324, Note_off_c, 11, 28, 64
12, 228478, Note_on_c, 11, 27, 64
12, 228720, Note_off_c, 11, 27, 64
12, 229202, Note_on_c, 11, 28, 64
12, 229423, Note_off_c, 11, 28, 64
12, 229924, Note_on_c, 11, 30, 64
12, 230138, Note_off_c, 11, 30, 64
12, 230635, Note_on_c, 11, 32, 64
12, 230855, Note_off_c, 11, 32, 64
12, 231357, Note_on_c, 11, 27, 60
12, 231563, Note_off_c, 11, 27, 64
12, 232068, Note_on_c, 11, 28, 60
12, 232284, Note_off_c, 11, 28, 64
12, 232798, Note_on_c, 11, 30, 104
12, 232994, Note_off_c, 11, 30, 64
12, 233032, Note_on_c, 11, 28, 80
12, 233138, Note_off_c, 11, 28, 64
12, 233277, Note_on_c, 11, 30, 82
12, 233395, Note_off_c, 11, 30, 64
12, 233521, Note_on_c, 11, 35, 110
12, 233844, Note_off_c, 11, 35, 64
12, 233993, Note_on_c, 11, 37, 76
12, 234096, Note_off_c, 11, 37, 64
12, 234241, Note_on_c, 11, 39, 115
12, 234402, Note_off_c, 11, 39, 64
12, 234479, Note_on_c, 11, 37, 80
12, 234588, Note_off_c, 11, 37, 64
12, 234719, Note_on_c, 11, 35, 90
12, 234823, Note_off_c, 11, 35, 64
12, 234958, Note_on_c, 11, 30, 106
12, 235139, Note_off_c, 11, 30, 64
12, 235195, Note_on_c, 11, 32, 92
12, 235302, Note_off_c, 11, 32, 64
12, 235436, Note_on_c, 11, 34, 80
12, 235538, Note_off_c, 11, 34, 64
12, 235683, Note_on_c, 11, 35, 90
12, 235968, Note_off_c, 11, 35, 64
12, 236399, Note_on_c, 11, 42, 72
12, 236641, Note_off_c, 11, 42, 64
12, 237119, Note_on_c, 11, 35, 72
12, 237347, Note_off_c, 11, 35, 64
12, 237838, Note_on_c, 11, 30, 72
12, 238093, Note_off_c, 11, 30, 64
12, 238563, Note_on_c, 11, 35, 116
12, 238676, Note_off_c, 11, 35, 64
12, 238683, Note_on_c, 11, 34, 100
12, 238749, Note_off_c, 11, 34, 64
12, 238799, Note_on_c, 11, 35, 106
12, 238858, Note_off_c, 11, 35, 64
12, 238914, Note_on_c, 11, 37, 115
12, 238974, Note_off_c, 11, 37, 64
12, 239033, Note_on_c, 11, 39, 116
12, 239101, Note_off_c, 11, 39, 64
12, 239152, Note_on_c, 11, 40, 101
12, 239208, Note_off_c, 11, 40, 64
12, 239274, Note_on_c, 11, 42, 116
12, 239362, Note_off_c, 11, 42, 64
12, 239397, Note_on_c, 11, 44, 91
12, 239470, Note_off_c, 11, 44, 64
12, 239511, Note_on_c, 11, 42, 95
12, 239572, Note_off_c, 11, 42, 64
12, 239630, Note_on_c, 11, 40, 113
12, 239688, Note_off_c, 11, 40, 64
12, 239750, Note_on_c, 11, 39, 115
12, 239817, Note_off_c, 11, 39, 64
12, 239871, Note_on_c, 11, 37, 96
12, 239935, Note_off_c, 11, 37, 64
12, 239994, Note_on_c, 11, 35, 116
12, 240100, Note_off_c, 11, 35, 64
12, 240116, Note_on_c, 11, 34, 92
12, 240180, Note_off_c, 11, 34, 64
12, 240236, Note_on_c, 11, 35, 90
12, 240311, Note_off_c, 11, 35, 64
12, 240357, Note_on_c, 11, 37, 109
12, 240422, Note_off_c, 11, 37, 64
12, 240476, Note_on_c, 11, 39, 109
12, 240549, Note_off_c, 11, 39, 64
12, 240595, Note_on_c, 11, 35, 102
12, 240671, Note_off_c, 11, 35, 64
12, 240718, Note_on_c, 11, 41, 116
12, 240797, Note_off_c, 11, 41, 64
12, 240835, Note_on_c, 11, 42, 101
12, 240913, Note_off_c, 11, 42, 64
12, 240954, Note_on_c, 11, 41, 110
12, 241021, Note_off_c, 11, 41, 64
12, 241073, Note_on_c, 11, 39, 105
12, 241157, Note_off_c, 11, 39, 64
12, 241189, Note_on_c, 11, 37, 116
12, 241267, Note_off_c, 11, 37, 64
12, 241311, Note_on_c, 11, 35, 100
12, 241382, Note_off_c, 11, 35, 64
12, 241434, Note_on_c, 11, 34, 116
12, 241538, Note_off_c, 11, 34, 64
12, 241555, Note_on_c, 11, 32, 100
12, 241623, Note_off_c, 11, 32, 64
12, 241674, Note_on_c, 11, 34, 104
12, 241735, Note_off_c, 11, 34, 64
12, 241791, Note_on_c, 11, 35, 104
12, 241858, Note_off_c, 11, 35, 64
12, 241912, Note_on_c, 11, 37, 115
12, 241987, Note_off_c, 11, 37, 64
12, 242035, Note_on_c, 11, 34, 100
12, 242106, Note_off_c, 11, 34, 64
12, 242157, Note_on_c, 11, 39, 116
12, 242236, Note_off_c, 11, 39, 64
12, 242273, Note_on_c, 11, 41, 96
12, 242344, Note_off_c, 11, 41, 64
12, 242390, Note_on_c, 11, 39, 99
12, 242457, Note_off_c, 11, 39, 64
12, 242507, Note_on_c, 11, 37, 99
12, 242583, Note_off_c, 11, 37, 64
12, 242627, Note_on_c, 11, 35, 115
12, 242707, Note_off_c, 11, 35, 64
12, 242748, Note_on_c, 11, 34, 96
12, 242817, Note_off_c, 11, 34, 64
12, 242873, Note_on_c, 11, 32, 113
12, 242985, Note_off_c, 11, 32, 64
12, 242994, Note_on_c, 11, 30, 96
12, 243064, Note_off_c, 11, 30, 64
12, 243112, Note_on_c, 11, 32, 100
12, 243183, Note_off_c, 11, 32, 64
12, 243233, Note_on_c, 11, 34, 109
12, 243309, Note_off_c, 11, 34, 64
12, 243358, Note_on_c, 11, 35, 106
12, 243434, Note_off_c, 11, 35, 64
12, 243475, Note_on_c, 11, 30, 92
12, 243547, Note_off_c, 11, 30, 64
12, 243597, Note_on_c, 11, 37, 115
12, 243681, Note_off_c, 11, 37, 64
12, 243709, Note_on_c, 11, 39, 83
12, 243780, Note_off_c, 11, 39, 64
12, 243832, Note_on_c, 11, 37, 96
12, 243890, Note_off_c, 11, 37, 64
12, 243950, Note_on_c, 11, 35, 104
12, 244016, Note_off_c, 11, 35, 64
12, 244071, Note_on_c, 11, 34, 115
12, 244141, Note_off_c, 11, 34, 64
12, 244190, Note_on_c, 11, 32, 98
12, 244253, Note_off_c, 11, 32, 64
12, 244317, Note_on_c, 11, 30, 76
12, 244545, Note_off_c, 11, 30, 64
12, 245034, Note_on_c, 11, 25, 71
12, 245318, Note_off_c, 11, 25, 64
12, 245757, Note_on_c, 11, 30, 81
12, 246000, Note_off_c, 11, 30, 64
12, 246477, Note_on_c, 11, 37, 93
12, 246711, Note_off_c, 11, 37, 64
12, 247200, Note_on_c, 11, 42, 116
12, 247386, Note_off_c, 11, 42, 64
12, 247439, Note_on_c, 11, 46, 93
12, 247530, Note_off_c, 11, 46, 64
12, 247675, Note_on_c, 11, 49, 81
12, 247763, Note_off_c, 11, 49, 64
12, 247917, Note_on_c, 11, 37, 111
12, 248093, Note_off_c, 11, 37, 64
12, 248155, Note_on_c, 11, 44, 90
12, 248244, Note_off_c, 11, 44, 64
12, 248395, Note_on_c, 11, 49, 81
12, 248479, Note_off_c, 11, 49, 64
12, 248634, Note_on_c, 11, 30, 112
12, 248716, Note_off_c, 11, 30, 64
12, 248749, Note_on_c, 11, 29, 91
12, 248820, Note_off_c, 11, 29, 64
12, 248867, Note_on_c, 11, 30, 88
12, 248945, Note_off_c, 11, 30, 64
12, 248987, Note_on_c, 11, 32, 104
12, 249061, Note_off_c, 11, 32, 64
12, 249111, Note_on_c, 11, 34, 101
12, 249183, Note_off_c, 11, 34, 64
12, 249225, Note_on_c, 11, 35, 88
12, 249310, Note_off_c, 11, 35, 64
12, 249353, Note_on_c, 11, 37, 110
12, 249433, Note_off_c, 11, 37, 64
12, 249473, Note_on_c, 11, 39, 77
12, 249542, Note_off_c, 11, 39, 64
12, 249593, Note_on_c, 11, 37, 83
12, 249658, Note_off_c, 11, 37, 64
12, 249713, Note_on_c, 11, 35, 96
12, 249773, Note_off_c, 11, 35, 64
12, 249832, Note_on_c, 11, 34, 108
12, 249910, Note_off_c, 11, 34, 64
12, 249953, Note_on_c, 11, 32, 96
12, 250031, Note_off_c, 11, 32, 64
12, 250076, Note_on_c, 11, 30, 110
12, 250169, Note_off_c, 11, 30, 64
12, 250195, Note_on_c, 11, 29, 87
12, 250265, Note_off_c, 11, 29, 64
12, 250315, Note_on_c, 11, 30, 85
12, 250397, Note_off_c, 11, 30, 64
12, 250433, Note_on_c, 11, 32, 96
12, 250502, Note_off_c, 11, 32, 64
12, 250557, Note_on_c, 11, 34, 90
12, 250637, Note_off_c, 11, 34, 64
12, 250677, Note_on_c, 11, 30, 96
12, 250757, Note_off_c, 11, 30, 64
12, 250798, Note_on_c, 11, 35, 115
12, 250894, Note_off_c, 11, 35, 64
12, 250916, Note_on_c, 11, 37, 92
12, 250986, Note_off_c, 11, 37, 64
12, 251033, Note_on_c, 11, 35, 96
12, 251113, Note_off_c, 11, 35, 64
12, 251147, Note_on_c, 11, 34, 92
12, 251226, Note_off_c, 11, 34, 64
12, 251269, Note_on_c, 11, 32, 97
12, 251335, Note_off_c, 11, 32, 64
12, 251391, Note_on_c, 11, 30, 96
12, 251459, Note_off_c, 11, 30, 64
12, 251518, Note_on_c, 11, 29, 112
12, 251619, Note_off_c, 11, 29, 64
12, 251637, Note_on_c, 11, 27, 94
12, 251713, Note_off_c, 11, 27, 64
12, 251757, Note_on_c, 11, 29, 92
12, 251808, Note_off_c, 11, 29, 64
12, 251879, Note_on_c, 11, 30, 101
12, 251944, Note_off_c, 11, 30, 64
12, 251997, Note_on_c, 11, 32, 106
12, 252071, Note_off_c, 11, 32, 64
12, 252118, Note_on_c, 11, 29, 100
12, 252184, Note_off_c, 11, 29, 64
12, 252242, Note_on_c, 11, 34, 113
12, 252338, Note_off_c, 11, 34, 64
12, 252355, Note_on_c, 11, 35, 88
12, 252428, Note_off_c, 11, 35, 64
12, 252473, Note_on_c, 11, 34, 94
12, 252548, Note_off_c, 11, 34, 64
12, 252591, Note_on_c, 11, 32, 96
12, 252664, Note_off_c, 11, 32, 64
12, 252709, Note_on_c, 11, 30, 112
12, 252788, Note_off_c, 11, 30, 64
12, 252831, Note_on_c, 11, 29, 91
12, 252905, Note_off_c, 11, 29, 64
12, 252953, Note_on_c, 11, 27, 114
12, 253060, Note_off_c, 11, 27, 64
12, 253074, Note_on_c, 11, 25, 92
12, 253156, Note_off_c, 11, 25, 64
12, 253191, Note_on_c, 11, 27, 104
12, 253262, Note_off_c, 11, 27, 64
12, 253310, Note_on_c, 11, 29, 102
12, 253382, Note_off_c, 11, 29, 64
12, 253431, Note_on_c, 11, 30, 112
12, 253502, Note_off_c, 11, 30, 64
12, 253551, Note_on_c, 11, 27, 96
12, 253628, Note_off_c, 11, 27, 64
12, 253677, Note_on_c, 11, 32, 104
12, 253771, Note_off_c, 11, 32, 64
12, 253795, Note_on_c, 11, 34, 93
12, 253867, Note_off_c, 11, 34, 64
12, 253913, Note_on_c, 11, 32, 93
12, 253986, Note_off_c, 11, 32, 64
12, 254032, Note_on_c, 11, 30, 87
12, 254110, Note_off_c, 11, 30, 64
12, 254152, Note_on_c, 11, 29, 114
12, 254224, Note_off_c, 11, 29, 64
12, 254271, Note_on_c, 11, 27, 89
12, 254347, Note_off_c, 11, 27, 64
12, 254372, Note_on_c, 11, 25, 88
12, 254538, Note_off_c, 11, 25, 64
12, 254612, Note_on_c, 11, 25, 82
12, 254740, Note_off_c, 11, 25, 64
12, 254850, Note_on_c, 11, 25, 82
12, 254996, Note_off_c, 11, 25, 64
12, 255091, Note_on_c, 11, 25, 95
12, 255244, Note_off_c, 11, 25, 64
12, 255328, Note_on_c, 11, 25, 78
12, 255473, Note_off_c, 11, 25, 64
12, 255569, Note_on_c, 11, 25, 78
12, 255706, Note_off_c, 11, 25, 64
12, 255810, Note_on_c, 11, 25, 115
12, 255967, Note_off_c, 11, 25, 64
12, 256049, Note_on_c, 11, 25, 78
12, 256182, Note_off_c, 11, 25, 64
12, 256286, Note_on_c, 11, 25, 84
12, 256417, Note_off_c, 11, 25, 64
12, 256524, Note_on_c, 11, 25, 102
12, 256702, Note_off_c, 11, 25, 64
12, 256771, Note_on_c, 11, 25, 82
12, 256905, Note_off_c, 11, 25, 64
12, 257008, Note_on_c, 11, 25, 82
12, 257143, Note_off_c, 11, 25, 64
12, 257250, Note_on_c, 11, 25, 115
12, 257419, Note_off_c, 11, 25, 64
12, 257491, Note_on_c, 11, 25, 84
12, 257617, Note_off_c, 11, 25, 64
12, 257727, Note_on_c, 11, 25, 84
12, 257863, Note_off_c, 11, 25, 64
12, 257968, Note_on_c, 11, 25, 100
12, 258137, Note_off_c, 11, 25, 64
12, 258210, Note_on_c, 11, 25, 82
12, 258330, Note_off_c, 11, 25, 64
12, 258450, Note_on_c, 11, 25, 82
12, 258579, Note_off_c, 11, 25, 64
12, 258692, Note_on_c, 11, 25, 115
12, 258857, Note_off_c, 11, 25, 64
12, 258934, Note_on_c, 11, 25, 84
12, 259053, Note_off_c, 11, 25, 64
12, 259171, Note_on_c, 11, 25, 84
12, 259299, Note_off_c, 11, 25, 64
12, 259412, Note_on_c, 11, 25, 106
12, 259564, Note_off_c, 11, 25, 64
12, 259653, Note_on_c, 11, 25, 92
12, 259767, Note_off_c, 11, 25, 64
12, 259888, Note_on_c, 11, 25, 92
12, 260004, Note_off_c, 11, 25, 64
12, 260126, Note_on_c, 11, 25, 113
12, 260289, Note_off_c, 11, 25, 64
12, 260399, Note_on_c, 11, 29, 82
12, 260501, Note_off_c, 11, 29, 64
12, 260636, Note_on_c, 11, 32, 90
12, 260750, Note_off_c, 11, 32, 64
12, 260878, Note_on_c, 11, 29, 108
12, 261017, Note_off_c, 11, 29, 64
12, 261118, Note_on_c, 11, 32, 76
12, 261215, Note_off_c, 11, 32, 64
12, 261352, Note_on_c, 11, 37, 96
12, 261469, Note_off_c, 11, 37, 64
12, 261601, Note_on_c, 11, 30, 110
12, 261744, Note_off_c, 11, 30, 64
12, 261846, Note_on_c, 11, 34, 78
12, 261942, Note_off_c, 11, 34, 64
12, 262077, Note_on_c, 11, 37, 96
12, 262177, Note_off_c, 11, 37, 64
12, 262318, Note_on_c, 11, 34, 113
12, 262456, Note_off_c, 11, 34, 64
12, 262555, Note_on_c, 11, 37, 88
12, 262649, Note_off_c, 11, 37, 64
12, 262794, Note_on_c, 11, 42, 108
12, 262878, Note_off_c, 11, 42, 64
12, 263039, Note_on_c, 11, 35, 95
12, 263377, Note_off_c, 11, 35, 64
12, 264479, Note_on_c, 11, 35, 95
12, 264770, Note_off_c, 11, 35, 64
12, 265918, Note_on_c, 11, 34, 115
12, 266143, Note_off_c, 11, 34, 64
12, 266161, Note_on_c, 11, 32, 84
12, 266249, Note_off_c, 11, 32, 64
12, 266401, Note_on_c, 11, 30, 113
12, 266479, Note_off_c, 11, 30, 64
12, 266641, Note_on_c, 11, 37, 113
12, 266916, Note_off_c, 11, 37, 64
12, 267120, Note_on_c, 11, 25, 93
12, 267194, Note_off_c, 11, 25, 64
12, 267332, Control_c, 11, 11, 58
12, 267357, Control_c, 11, 11, 60
12, 267358, Note_on_c, 11, 30, 93
12, 267381, Control_c, 11, 11, 62
12, 267406, Control_c, 11, 11, 64
12, 267431, Control_c, 11, 11, 66
12, 267456, Control_c, 11, 11, 69
12, 267481, Control_c, 11, 11, 71
12, 267506, Control_c, 11, 11, 73
12, 267531, Control_c, 11, 11, 76
12, 267556, Control_c, 11, 11, 78
12, 267581, Control_c, 11, 11, 80
12, 267606, Control_c, 11, 11, 82
12, 267631, Control_c, 11, 11, 85
12, 267656, Control_c, 11, 11, 87
12, 267681, Control_c, 11, 11, 89
12, 267706, Control_c, 11, 11, 91
12, 267730, Control_c, 11, 11, 94
12, 267755, Control_c, 11, 11, 96
12, 267780, Control_c, 11, 11, 98
12, 267805, Control_c, 11, 11, 100
12, 267830, Control_c, 11, 11, 103
12, 267855, Control_c, 11, 11, 105
12, 267880, Control_c, 11, 11, 107
12, 267905, Control_c, 11, 11, 110
12, 267930, Control_c, 11, 11, 112
12, 267955, Control_c, 11, 11, 114
12, 267980, Control_c, 11, 11, 116
12, 268005, Control_c, 11, 11, 119
12, 268030, Control_c, 11, 11, 121
12, 268055, Control_c, 11, 11, 123
12, 268079, Control_c, 11, 11, 126
12, 268080, Control_c, 11, 11, 126
12, 268105, Control_c, 11, 11, 123
12, 268130, Control_c, 11, 11, 120
12, 268155, Control_c, 11, 11, 118
12, 268180, Control_c, 11, 11, 115
12, 268206, Control_c, 11, 11, 112
12, 268231, Control_c, 11, 11, 110
12, 268256, Control_c, 11, 11, 107
12, 268281, Control_c, 11, 11, 105
12, 268307, Control_c, 11, 11, 102
12, 268332, Control_c, 11, 11, 99
12, 268357, Control_c, 11, 11, 97
12, 268382, Control_c, 11, 11, 94
12, 268407, Control_c, 11, 11, 92
12, 268500, Control_c, 11, 11, 80
12, 268526, Control_c, 11, 11, 70
12, 268553, Control_c, 11, 11, 60
12, 268569, Note_off_c, 11, 30, 64
12, 268579, Control_c, 11, 11, 50
12, 268676, Control_c, 11, 11, 100
12, 268800, Note_on_c, 11, 37, 116
12, 268914, Note_on_c, 11, 36, 87
12, 268935, Note_off_c, 11, 37, 64
12, 269001, Note_off_c, 11, 36, 64
12, 269027, Note_on_c, 11, 37, 83
12, 269129, Note_off_c, 11, 37, 64
12, 269146, Note_on_c, 11, 39, 101
12, 269231, Note_off_c, 11, 39, 64
12, 269266, Note_on_c, 11, 41, 92
12, 269348, Note_off_c, 11, 41, 64
12, 269383, Note_on_c, 11, 42, 90
12, 269464, Note_off_c, 11, 42, 64
12, 269511, Note_on_c, 11, 44, 115
12, 269625, Note_on_c, 11, 46, 83
12, 269629, Note_off_c, 11, 44, 64
12, 269724, Note_off_c, 11, 46, 64
12, 269744, Note_on_c, 11, 44, 88
12, 269833, Note_off_c, 11, 44, 64
12, 269861, Note_on_c, 11, 42, 90
12, 269950, Note_off_c, 11, 42, 64
12, 269982, Note_on_c, 11, 41, 105
12, 270073, Note_off_c, 11, 41, 64
12, 270100, Note_on_c, 11, 39, 88
12, 270196, Note_off_c, 11, 39, 64
12, 270231, Note_on_c, 11, 41, 113
12, 270339, Note_off_c, 11, 41, 64
12, 270352, Note_on_c, 11, 44, 91
12, 270439, Note_off_c, 11, 44, 64
12, 270469, Note_on_c, 11, 42, 96
12, 270546, Note_off_c, 11, 42, 64
12, 270589, Note_on_c, 11, 41, 87
12, 270670, Note_off_c, 11, 41, 64
12, 270710, Note_on_c, 11, 39, 87
12, 270802, Note_off_c, 11, 39, 64
12, 270827, Note_on_c, 11, 37, 91
12, 270926, Note_off_c, 11, 37, 64
12, 270951, Note_on_c, 11, 36, 115
12, 271067, Note_off_c, 11, 36, 64
12, 271073, Note_on_c, 11, 39, 84
12, 271159, Note_off_c, 11, 39, 64
12, 271190, Note_on_c, 11, 37, 88
12, 271275, Note_off_c, 11, 37, 64
12, 271309, Note_on_c, 11, 36, 93
12, 271387, Note_off_c, 11, 36, 64
12, 271431, Note_on_c, 11, 34, 100
12, 271512, Note_off_c, 11, 34, 64
12, 271554, Note_on_c, 11, 32, 87
12, 271639, Note_off_c, 11, 32, 64
12, 271680, Note_on_c, 11, 39, 95
12, 271840, Note_off_c, 11, 39, 64
12, 271912, Note_on_c, 11, 42, 77
12, 271992, Note_off_c, 11, 42, 64
12, 272147, Note_on_c, 11, 46, 77
12, 272236, Note_off_c, 11, 46, 64
12, 272395, Note_on_c, 11, 38, 86
12, 272549, Note_off_c, 11, 38, 64
12, 272632, Note_on_c, 11, 41, 72
12, 272704, Note_off_c, 11, 41, 64
12, 272872, Note_on_c, 11, 46, 77
12, 272954, Note_off_c, 11, 46, 64
12, 273114, Note_on_c, 11, 39, 82
12, 273296, Note_off_c, 11, 39, 64
12, 273352, Note_on_c, 11, 42, 68
12, 273430, Note_off_c, 11, 42, 64
12, 273594, Note_on_c, 11, 46, 68
12, 273688, Note_off_c, 11, 46, 64
12, 273836, Note_on_c, 11, 34, 82
12, 273996, Note_off_c, 11, 34, 64
12, 274077, Note_on_c, 11, 41, 66
12, 274153, Note_off_c, 11, 41, 64
12, 274315, Note_on_c, 11, 46, 77
12, 274380, Note_off_c, 11, 46, 64
12, 274555, Note_on_c, 11, 30, 59
12, 274822, Note_off_c, 11, 30, 64
12, 275277, Note_on_c, 11, 32, 66
12, 275488, Note_off_c, 11, 32, 64
12, 276002, Note_on_c, 11, 34, 68
12, 276214, Note_off_c, 11, 34, 64
12, 276708, Note_on_c, 11, 35, 68
12, 276907, Note_off_c, 11, 35, 64
12, 277437, Note_on_c, 11, 30, 71
12, 277646, Note_off_c, 11, 30, 64
12, 278164, Note_on_c, 11, 32, 77
12, 278372, Note_off_c, 11, 32, 64
12, 278873, Note_on_c, 11, 34, 80
12, 279075, Note_off_c, 11, 34, 64
12, 279116, Note_on_c, 11, 32, 77
12, 279208, Note_off_c, 11, 32, 64
12, 279358, Note_on_c, 11, 34, 77
12, 279444, Note_off_c, 11, 34, 64
12, 279602, Note_on_c, 11, 27, 96
12, 279762, Note_off_c, 11, 27, 64
12, 279835, Note_on_c, 11, 30, 77
12, 279910, Note_off_c, 11, 30, 64
12, 280079, Note_on_c, 11, 34, 77
12, 280147, Note_off_c, 11, 34, 64
12, 280324, Note_on_c, 11, 39, 60
12, 280532, Note_off_c, 11, 39, 64
12, 284640, Note_on_c, 11, 39, 110
12, 284743, Note_off_c, 11, 39, 64
12, 284757, Note_on_c, 11, 38, 78
12, 284818, Note_off_c, 11, 38, 64
12, 284875, Note_on_c, 11, 39, 87
12, 284956, Note_off_c, 11, 39, 64
12, 284990, Note_on_c, 11, 41, 89
12, 285057, Note_off_c, 11, 41, 64
12, 285110, Note_on_c, 11, 42, 96
12, 285179, Note_off_c, 11, 42, 64
12, 285225, Note_on_c, 11, 44, 84
12, 285297, Note_off_c, 11, 44, 64
12, 285352, Note_on_c, 11, 46, 115
12, 285445, Note_off_c, 11, 46, 64
12, 285467, Note_on_c, 11, 47, 78
12, 285539, Note_off_c, 11, 47, 64
12, 285589, Note_on_c, 11, 46, 84
12, 285660, Note_off_c, 11, 46, 64
12, 285709, Note_on_c, 11, 44, 87
12, 285774, Note_off_c, 11, 44, 64
12, 285830, Note_on_c, 11, 42, 98
12, 285905, Note_off_c, 11, 42, 64
12, 285947, Note_on_c, 11, 41, 83
12, 286014, Note_off_c, 11, 41, 64
12, 286073, Note_on_c, 11, 39, 114
12, 286159, Note_off_c, 11, 39, 64
12, 286190, Note_on_c, 11, 38, 71
12, 286251, Note_off_c, 11, 38, 64
12, 286306, Note_on_c, 11, 39, 78
12, 286389, Note_off_c, 11, 39, 64
12, 286427, Note_on_c, 11, 41, 91
12, 286495, Note_off_c, 11, 41, 64
12, 286548, Note_on_c, 11, 42, 83
12, 286622, Note_off_c, 11, 42, 64
12, 286668, Note_on_c, 11, 39, 85
12, 286740, Note_off_c, 11, 39, 64
12, 286796, Note_on_c, 11, 44, 112
12, 286898, Note_off_c, 11, 44, 64
12, 286917, Note_on_c, 11, 46, 96
12, 286986, Note_off_c, 11, 46, 64
12, 287034, Note_on_c, 11, 44, 89
12, 287093, Note_off_c, 11, 44, 64
12, 287149, Note_on_c, 11, 42, 84
12, 287221, Note_off_c, 11, 42, 64
12, 287271, Note_on_c, 11, 41, 87
12, 287330, Note_off_c, 11, 41, 64
12, 287390, Note_on_c, 11, 39, 88
12, 287464, Note_off_c, 11, 39, 64
12, 287515, Note_on_c, 11, 37, 112
12, 287610, Note_off_c, 11, 37, 64
12, 287630, Note_on_c, 11, 36, 71
12, 287687, Note_off_c, 11, 36, 64
12, 287747, Note_on_c, 11, 37, 87
12, 287826, Note_off_c, 11, 37, 64
12, 287865, Note_on_c, 11, 39, 97
12, 287922, Note_off_c, 11, 39, 64
12, 287987, Note_on_c, 11, 41, 107
12, 288038, Note_off_c, 11, 41, 64
12, 288104, Note_on_c, 11, 37, 87
12, 288176, Note_off_c, 11, 37, 64
12, 288231, Note_on_c, 11, 42, 114
12, 288316, Note_off_c, 11, 42, 64
12, 288347, Note_on_c, 11, 44, 84
12, 288417, Note_off_c, 11, 44, 64
12, 288471, Note_on_c, 11, 42, 81
12, 288542, Note_off_c, 11, 42, 64
12, 288587, Note_on_c, 11, 41, 78
12, 288651, Note_off_c, 11, 41, 64
12, 288706, Note_on_c, 11, 39, 94
12, 288776, Note_off_c, 11, 39, 64
12, 288823, Note_on_c, 11, 37, 84
12, 288900, Note_off_c, 11, 37, 64
12, 288951, Note_on_c, 11, 36, 107
12, 289044, Note_off_c, 11, 36, 64
12, 289069, Note_on_c, 11, 34, 84
12, 289143, Note_off_c, 11, 34, 64
12, 289191, Note_on_c, 11, 36, 88
12, 289248, Note_off_c, 11, 36, 64
12, 289307, Note_on_c, 11, 37, 90
12, 289375, Note_off_c, 11, 37, 64
12, 289427, Note_on_c, 11, 39, 100
12, 289500, Note_off_c, 11, 39, 64
12, 289549, Note_on_c, 11, 36, 88
12, 289605, Note_off_c, 11, 36, 64
12, 289675, Note_on_c, 11, 41, 106
12, 289764, Note_off_c, 11, 41, 64
12, 289794, Note_on_c, 11, 42, 88
12, 289864, Note_off_c, 11, 42, 64
12, 289909, Note_on_c, 11, 41, 89
12, 289964, Note_off_c, 11, 41, 64
12, 290029, Note_on_c, 11, 39, 87
12, 290097, Note_off_c, 11, 39, 64
12, 290147, Note_on_c, 11, 37, 98
12, 290223, Note_off_c, 11, 37, 64
12, 290267, Note_on_c, 11, 36, 78
12, 290328, Note_off_c, 11, 36, 64
12, 290399, Note_on_c, 11, 34, 77
12, 290629, Note_off_c, 11, 34, 64
12, 291119, Note_on_c, 11, 29, 80
12, 291342, Note_off_c, 11, 29, 64
12, 291840, Note_on_c, 11, 34, 77
12, 292082, Note_off_c, 11, 34, 64
12, 292555, Note_on_c, 11, 41, 78
12, 292799, Note_off_c, 11, 41, 64
12, 293284, Note_on_c, 11, 34, 108
12, 293480, Note_off_c, 11, 34, 64
12, 293522, Note_on_c, 11, 37, 82
12, 293608, Note_off_c, 11, 37, 64
12, 293758, Note_on_c, 11, 41, 88
12, 293846, Note_off_c, 11, 41, 64
12, 293997, Note_on_c, 11, 33, 116
12, 294176, Note_off_c, 11, 33, 64
12, 294238, Note_on_c, 11, 36, 84
12, 294319, Note_off_c, 11, 36, 64
12, 294483, Note_on_c, 11, 41, 93
12, 294541, Note_off_c, 11, 41, 64
12, 294720, Note_on_c, 11, 34, 110
12, 294837, Note_on_c, 11, 33, 77
12, 294858, Note_off_c, 11, 34, 64
12, 294923, Note_off_c, 11, 33, 64
12, 294952, Note_on_c, 11, 34, 77
12, 295035, Note_off_c, 11, 34, 64
12, 295071, Note_on_c, 11, 36, 91
12, 295133, Note_off_c, 11, 36, 64
12, 295187, Note_on_c, 11, 37, 78
12, 295269, Note_off_c, 11, 37, 64
12, 295308, Note_on_c, 11, 39, 96
12, 295380, Note_off_c, 11, 39, 64
12, 295439, Note_on_c, 11, 41, 112
12, 295552, Note_off_c, 11, 41, 64
12, 295555, Note_on_c, 11, 42, 78
12, 295634, Note_off_c, 11, 42, 64
12, 295672, Note_on_c, 11, 41, 91
12, 295738, Note_off_c, 11, 41, 64
12, 295788, Note_on_c, 11, 39, 83
12, 295860, Note_off_c, 11, 39, 64
12, 295909, Note_on_c, 11, 37, 81
12, 295989, Note_off_c, 11, 37, 64
12, 296031, Note_on_c, 11, 36, 91
12, 296096, Note_off_c, 11, 36, 64
12, 296156, Note_on_c, 11, 34, 104
12, 296270, Note_off_c, 11, 34, 64
12, 296271, Note_on_c, 11, 33, 80
12, 296349, Note_off_c, 11, 33, 64
12, 296389, Note_on_c, 11, 34, 84
12, 296474, Note_off_c, 11, 34, 64
12, 296509, Note_on_c, 11, 36, 91
12, 296579, Note_off_c, 11, 36, 64
12, 296633, Note_on_c, 11, 37, 83
12, 296708, Note_off_c, 11, 37, 64
12, 296749, Note_on_c, 11, 34, 88
12, 296828, Note_off_c, 11, 34, 64
12, 296877, Note_on_c, 11, 39, 113
12, 296997, Note_on_c, 11, 41, 89
12, 297013, Note_off_c, 11, 39, 64
12, 297075, Note_off_c, 11, 41, 64
12, 297112, Note_on_c, 11, 39, 81
12, 297187, Note_off_c, 11, 39, 64
12, 297228, Note_on_c, 11, 37, 87
12, 297302, Note_off_c, 11, 37, 64
12, 297347, Note_on_c, 11, 36, 91
12, 297406, Note_off_c, 11, 36, 64
12, 297464, Note_on_c, 11, 34, 92
12, 297536, Note_off_c, 11, 34, 64
12, 297589, Note_on_c, 11, 32, 96
12, 297713, Note_on_c, 11, 31, 72
12, 297735, Note_off_c, 11, 32, 64
12, 297801, Note_off_c, 11, 31, 64
12, 297831, Note_on_c, 11, 32, 77
12, 297919, Note_off_c, 11, 32, 64
12, 297950, Note_on_c, 11, 34, 89
12, 298021, Note_off_c, 11, 34, 64
12, 298073, Note_on_c, 11, 36, 95
12, 298142, Note_off_c, 11, 36, 64
12, 298186, Note_on_c, 11, 32, 84
12, 298274, Note_off_c, 11, 32, 64
12, 298317, Note_on_c, 11, 37, 113
12, 298435, Note_on_c, 11, 39, 78
12, 298443, Note_off_c, 11, 37, 64
12, 298529, Note_off_c, 11, 39, 64
12, 298553, Note_on_c, 11, 37, 84
12, 298632, Note_off_c, 11, 37, 64
12, 298670, Note_on_c, 11, 36, 97
12, 298732, Note_off_c, 11, 36, 64
12, 298789, Note_on_c, 11, 34, 90
12, 298868, Note_off_c, 11, 34, 64
12, 298907, Note_on_c, 11, 32, 83
12, 298993, Note_off_c, 11, 32, 64
12, 299036, Note_on_c, 11, 30, 106
12, 299153, Note_on_c, 11, 29, 83
12, 299154, Note_off_c, 11, 30, 64
12, 299239, Note_off_c, 11, 29, 64
12, 299269, Note_on_c, 11, 30, 77
12, 299354, Note_off_c, 11, 30, 64
12, 299389, Note_on_c, 11, 32, 88
12, 299465, Note_off_c, 11, 32, 64
12, 299509, Note_on_c, 11, 34, 81
12, 299593, Note_off_c, 11, 34, 64
12, 299629, Note_on_c, 11, 30, 83
12, 299716, Note_off_c, 11, 30, 64
12, 299756, Note_on_c, 11, 36, 107
12, 299875, Note_on_c, 11, 37, 77
12, 299898, Note_off_c, 11, 36, 64
12, 299972, Note_off_c, 11, 37, 64
12, 299993, Note_on_c, 11, 36, 89
12, 300074, Note_off_c, 11, 36, 64
12, 300109, Note_on_c, 11, 34, 84
12, 300190, Note_off_c, 11, 34, 64
12, 300228, Note_on_c, 11, 33, 95
12, 300295, Note_off_c, 11, 33, 64
12, 300346, Note_on_c, 11, 31, 89
12, 300425, Note_off_c, 11, 31, 64
12, 300478, Note_on_c, 11, 29, 104
12, 300622, Note_off_c, 11, 29, 64
12, 300716, Note_on_c, 11, 29, 71
12, 300856, Note_off_c, 11, 29, 64
12, 300955, Note_on_c, 11, 29, 78
12, 301094, Note_off_c, 11, 29, 64
12, 301196, Note_on_c, 11, 29, 98
12, 301354, Note_off_c, 11, 29, 64
12, 301436, Note_on_c, 11, 29, 78
12, 301578, Note_off_c, 11, 29, 64
12, 301678, Note_on_c, 11, 29, 83
12, 301811, Note_off_c, 11, 29, 64
12, 301917, Note_on_c, 11, 29, 104
12, 302085, Note_off_c, 11, 29, 64
12, 302158, Note_on_c, 11, 29, 80
12, 302291, Note_off_c, 11, 29, 64
12, 302396, Note_on_c, 11, 29, 86
12, 302532, Note_off_c, 11, 29, 64
12, 302641, Note_on_c, 11, 29, 102
12, 302807, Note_off_c, 11, 29, 64
12, 302877, Note_on_c, 11, 29, 78
12, 303011, Note_off_c, 11, 29, 64
12, 303117, Note_on_c, 11, 29, 90
12, 303244, Note_off_c, 11, 29, 64
12, 303359, Note_on_c, 11, 29, 104
12, 303531, Note_off_c, 11, 29, 64
12, 303600, Note_on_c, 11, 29, 78
12, 303744, Note_off_c, 11, 29, 64
12, 303839, Note_on_c, 11, 29, 84
12, 303984, Note_off_c, 11, 29, 64
12, 304081, Note_on_c, 11, 29, 106
12, 304240, Note_off_c, 11, 29, 64
12, 304315, Note_on_c, 11, 29, 76
12, 304463, Note_off_c, 11, 29, 64
12, 304557, Note_on_c, 11, 29, 82
12, 304691, Note_off_c, 11, 29, 64
12, 304799, Note_on_c, 11, 29, 108
12, 304957, Note_off_c, 11, 29, 64
12, 305037, Note_on_c, 11, 29, 87
12, 305181, Note_off_c, 11, 29, 64
12, 305275, Note_on_c, 11, 29, 90
12, 305405, Note_off_c, 11, 29, 64
12, 305514, Note_on_c, 11, 29, 112
12, 305687, Note_off_c, 11, 29, 64
12, 305757, Note_on_c, 11, 29, 87
12, 305873, Note_off_c, 11, 29, 64
12, 305990, Note_on_c, 11, 29, 91
12, 306115, Note_off_c, 11, 29, 64
12, 306238, Note_on_c, 11, 29, 102
12, 306400, Note_off_c, 11, 29, 64
12, 306481, Note_on_c, 11, 33, 76
12, 306579, Note_off_c, 11, 33, 64
12, 306710, Note_on_c, 11, 36, 91
12, 306836, Note_off_c, 11, 36, 64
12, 306953, Note_on_c, 11, 33, 112
12, 307103, Note_off_c, 11, 33, 64
12, 307196, Note_on_c, 11, 36, 88
12, 307293, Note_off_c, 11, 36, 64
12, 307437, Note_on_c, 11, 41, 100
12, 307512, Note_off_c, 11, 41, 64
12, 307680, Note_on_c, 11, 34, 112
12, 307818, Note_off_c, 11, 34, 64
12, 307921, Note_on_c, 11, 38, 89
12, 308007, Note_off_c, 11, 38, 64
12, 308154, Note_on_c, 11, 41, 95
12, 308248, Note_off_c, 11, 41, 64
12, 308393, Note_on_c, 11, 38, 110
12, 308554, Note_off_c, 11, 38, 64
12, 308637, Note_on_c, 11, 41, 92
12, 308716, Note_off_c, 11, 41, 64
12, 308876, Note_on_c, 11, 46, 104
12, 308952, Note_off_c, 11, 46, 64
12, 309115, Note_on_c, 11, 27, 72
12, 309444, Note_off_c, 11, 27, 64
12, 310558, Note_on_c, 11, 39, 72
12, 310862, Note_off_c, 11, 39, 64
12, 312001, Note_on_c, 11, 37, 115
12, 312211, Note_off_c, 11, 37, 64
12, 312241, Note_on_c, 11, 36, 71
12, 312323, Note_off_c, 11, 36, 64
12, 312480, Note_on_c, 11, 34, 92
12, 312567, Note_off_c, 11, 34, 64
12, 312726, Note_on_c, 11, 41, 95
12, 313003, Note_off_c, 11, 41, 64
12, 313199, Note_on_c, 11, 29, 72
12, 313275, Note_off_c, 11, 29, 64
12, 313443, Note_on_c, 11, 34, 106
12, 313623, Note_off_c, 11, 34, 64
12, 313683, Note_on_c, 11, 37, 84
12, 313761, Note_off_c, 11, 37, 64
12, 313920, Note_on_c, 11, 41, 95
12, 314007, Note_off_c, 11, 41, 64
12, 314165, Note_on_c, 11, 46, 115
12, 314365, Note_off_c, 11, 46, 64
12, 314405, Note_on_c, 11, 44, 112
12, 314468, Note_off_c, 11, 44, 64
12, 314515, Note_on_c, 11, 42, 88
12, 314585, Note_off_c, 11, 42, 64
12, 314631, Note_on_c, 11, 41, 104
12, 314695, Note_off_c, 11, 41, 64
12, 314747, Note_on_c, 11, 39, 82
12, 314822, Note_off_c, 11, 39, 64
12, 314877, Note_on_c, 11, 38, 104
12, 315045, Note_off_c, 11, 38, 64
12, 315122, Note_on_c, 11, 41, 84
12, 315203, Note_off_c, 11, 41, 64
12, 315361, Note_on_c, 11, 46, 92
12, 315446, Note_off_c, 11, 46, 64
12, 315599, Note_on_c, 11, 34, 114
12, 315764, Note_off_c, 11, 34, 64
12, 315842, Note_on_c, 11, 41, 78
12, 315917, Note_off_c, 11, 41, 64
12, 316076, Note_on_c, 11, 46, 100
12, 316165, Note_off_c, 11, 46, 64
12, 316314, Note_on_c, 11, 39, 114
12, 316463, Note_off_c, 11, 39, 64
12, 316556, Note_on_c, 11, 42, 86
12, 316634, Note_off_c, 11, 42, 64
12, 316793, Note_on_c, 11, 46, 104
12, 316879, Note_off_c, 11, 46, 64
12, 317031, Note_on_c, 11, 51, 116
12, 317242, Note_off_c, 11, 51, 64
12, 317274, Note_on_c, 11, 49, 108
12, 317363, Note_off_c, 11, 49, 64
12, 317389, Note_on_c, 11, 47, 88
12, 317466, Note_off_c, 11, 47, 64
12, 317503, Note_on_c, 11, 46, 106
12, 317579, Note_off_c, 11, 46, 64
12, 317613, Note_on_c, 11, 44, 89
12, 317687, Note_off_c, 11, 44, 64
12, 317747, Note_on_c, 11, 43, 110
12, 317922, Note_off_c, 11, 43, 64
12, 317990, Note_on_c, 11, 46, 80
12, 318071, Note_off_c, 11, 46, 64
12, 318235, Note_on_c, 11, 51, 88
12, 318322, Note_off_c, 11, 51, 64
12, 318479, Note_on_c, 11, 39, 114
12, 318659, Note_off_c, 11, 39, 64
12, 318715, Note_on_c, 11, 46, 80
12, 318801, Note_off_c, 11, 46, 64
12, 318964, Note_on_c, 11, 51, 100
12, 319035, Note_off_c, 11, 51, 64
12, 319205, Note_on_c, 11, 32, 110
12, 319355, Note_off_c, 11, 32, 64
12, 319442, Note_on_c, 11, 35, 82
12, 319514, Note_off_c, 11, 35, 64
12, 319682, Note_on_c, 11, 39, 96
12, 319763, Note_off_c, 11, 39, 64
12, 319927, Note_on_c, 11, 44, 112
12, 320020, Note_off_c, 11, 44, 64
12, 320036, Note_on_c, 11, 46, 78
12, 320151, Note_on_c, 11, 44, 95
12, 320161, Note_off_c, 11, 46, 64
12, 320245, Note_off_c, 11, 44, 64
12, 320269, Note_on_c, 11, 42, 98
12, 320350, Note_off_c, 11, 42, 64
12, 320389, Note_on_c, 11, 40, 114
12, 320459, Note_off_c, 11, 40, 64
12, 320507, Note_on_c, 11, 39, 80
12, 320571, Note_off_c, 11, 39, 64
12, 320632, Note_on_c, 11, 37, 106
12, 320796, Note_off_c, 11, 37, 64
12, 320872, Note_on_c, 11, 44, 88
12, 320949, Note_off_c, 11, 44, 64
12, 321107, Note_on_c, 11, 49, 88
12, 321185, Note_off_c, 11, 49, 64
12, 321353, Note_on_c, 11, 42, 104
12, 321531, Note_off_c, 11, 42, 64
12, 321593, Note_on_c, 11, 37, 92
12, 321665, Note_off_c, 11, 37, 64
12, 321838, Note_on_c, 11, 30, 80
12, 321922, Note_off_c, 11, 30, 64
12, 322083, Note_on_c, 11, 35, 113
12, 322243, Note_off_c, 11, 35, 64
12, 322322, Note_on_c, 11, 42, 81
12, 322387, Note_off_c, 11, 42, 64
12, 322557, Note_on_c, 11, 47, 88
12, 322617, Note_off_c, 11, 47, 64
12, 322795, Note_on_c, 11, 40, 110
12, 322952, Note_off_c, 11, 40, 64
12, 323031, Note_on_c, 11, 35, 93
12, 323115, Note_off_c, 11, 35, 64
12, 323278, Note_on_c, 11, 28, 76
12, 323361, Note_off_c, 11, 28, 64
12, 323517, Note_on_c, 11, 40, 68
12, 323695, Note_off_c, 11, 40, 64
12, 324239, Note_on_c, 11, 39, 71
12, 324422, Note_off_c, 11, 39, 64
12, 324963, Note_on_c, 11, 37, 69
12, 325142, Note_off_c, 11, 37, 64
12, 325677, Note_on_c, 11, 35, 68
12, 325874, Note_off_c, 11, 35, 64
12, 326401, Note_on_c, 11, 34, 113
12, 326572, Note_off_c, 11, 34, 64
12, 326637, Note_on_c, 11, 37, 78
12, 326710, Note_off_c, 11, 37, 64
12, 326874, Note_on_c, 11, 42, 88
12, 326963, Note_off_c, 11, 42, 64
12, 327114, Note_on_c, 11, 35, 107
12, 327267, Note_off_c, 11, 35, 64
12, 327354, Note_on_c, 11, 39, 78
12, 327426, Note_off_c, 11, 39, 64
12, 327594, Note_on_c, 11, 42, 90
12, 327665, Note_off_c, 11, 42, 64
12, 327827, Note_on_c, 11, 34, 116
12, 327938, Note_off_c, 11, 34, 64
12, 327942, Note_on_c, 11, 37, 104
12, 328012, Note_off_c, 11, 37, 64
12, 328063, Note_on_c, 11, 30, 96
12, 328158, Note_off_c, 11, 30, 64
12, 328180, Note_on_c, 11, 37, 115
12, 328249, Note_off_c, 11, 37, 64
12, 328302, Note_on_c, 11, 34, 115
12, 328406, Note_off_c, 11, 34, 64
12, 328422, Note_on_c, 11, 37, 115
12, 328491, Note_off_c, 11, 37, 64
12, 328546, Note_on_c, 11, 35, 115
12, 328664, Note_off_c, 11, 35, 64
12, 328667, Note_on_c, 11, 39, 115
12, 328734, Note_off_c, 11, 39, 64
12, 328787, Note_on_c, 11, 30, 104
12, 328884, Note_off_c, 11, 30, 64
12, 328904, Note_on_c, 11, 39, 107
12, 328972, Note_off_c, 11, 39, 64
12, 329022, Note_on_c, 11, 35, 107
12, 329116, Note_off_c, 11, 35, 64
12, 329139, Note_on_c, 11, 39, 104
12, 329207, Note_off_c, 11, 39, 64
12, 329284, Note_on_c, 11, 29, 108
12, 329452, Note_off_c, 11, 29, 64
12, 329513, Note_on_c, 11, 29, 76
12, 329643, Note_off_c, 11, 29, 64
12, 329760, Note_on_c, 11, 29, 76
12, 329881, Note_off_c, 11, 29, 64
12, 330000, Note_on_c, 11, 29, 107
12, 330127, Note_off_c, 11, 29, 64
12, 330238, Note_on_c, 11, 29, 86
12, 330355, Note_off_c, 11, 29, 64
12, 330482, Note_on_c, 11, 29, 86
12, 330567, Note_off_c, 11, 29, 64
12, 330723, Note_on_c, 11, 28, 115
12, 330879, Note_off_c, 11, 28, 64
12, 330965, Note_on_c, 11, 28, 74
12, 331066, Note_off_c, 11, 28, 64
12, 331203, Note_on_c, 11, 28, 74
12, 331301, Note_off_c, 11, 28, 64
12, 331443, Note_on_c, 11, 28, 108
12, 331583, Note_off_c, 11, 28, 64
12, 331678, Note_on_c, 11, 28, 76
12, 331775, Note_off_c, 11, 28, 64
12, 331914, Note_on_c, 11, 28, 76
12, 332004, Note_off_c, 11, 28, 64
12, 332158, Note_on_c, 11, 27, 64
12, 332400, Note_off_c, 11, 27, 64
12, 332882, Note_on_c, 11, 28, 64
12, 333103, Note_off_c, 11, 28, 64
12, 333604, Note_on_c, 11, 30, 64
12, 333818, Note_off_c, 11, 30, 64
12, 334315, Note_on_c, 11, 32, 64
12, 334535, Note_off_c, 11, 32, 64
12, 335037, Note_on_c, 11, 27, 60
12, 335243, Note_off_c, 11, 27, 64
12, 335748, Note_on_c, 11, 28, 60
12, 335964, Note_off_c, 11, 28, 64
12, 336478, Note_on_c, 11, 30, 104
12, 336674, Note_off_c, 11, 30, 64
12, 336712, Note_on_c, 11, 28, 80
12, 336818, Note_off_c, 11, 28, 64
12, 336957, Note_on_c, 11, 30, 82
12, 337075, Note_off_c, 11, 30, 64
12, 337201, Note_on_c, 11, 35, 110
12, 337524, Note_off_c, 11, 35, 64
12, 337673, Note_on_c, 11, 37, 76
12, 337776, Note_off_c, 11, 37, 64
12, 337921, Note_on_c, 11, 39, 115
12, 338082, Note_off_c, 11, 39, 64
12, 338159, Note_on_c, 11, 37, 80
12, 338268, Note_off_c, 11, 37, 64
12, 338399, Note_on_c, 11, 35, 90
12, 338503, Note_off_c, 11, 35, 64
12, 338638, Note_on_c, 11, 30, 106
12, 338819, Note_off_c, 11, 30, 64
12, 338875, Note_on_c, 11, 32, 92
12, 338982, Note_off_c, 11, 32, 64
12, 339116, Note_on_c, 11, 34, 80
12, 339218, Note_off_c, 11, 34, 64
12, 339363, Note_on_c, 11, 35, 90
12, 339648, Note_off_c, 11, 35, 64
12, 340079, Note_on_c, 11, 42, 72
12, 340321, Note_off_c, 11, 42, 64
12, 340799, Note_on_c, 11, 35, 72
12, 341027, Note_off_c, 11, 35, 64
12, 341518, Note_on_c, 11, 30, 72
12, 341773, Note_off_c, 11, 30, 64
12, 342243, Note_on_c, 11, 35, 116
12, 342356, Note_off_c, 11, 35, 64
12, 342363, Note_on_c, 11, 34, 100
12, 342429, Note_off_c, 11, 34, 64
12, 342479, Note_on_c, 11, 35, 106
12, 342538, Note_off_c, 11, 35, 64
12, 342594, Note_on_c, 11, 37, 115
12, 342654, Note_off_c, 11, 37, 64
12, 342713, Note_on_c, 11, 39, 116
12, 342781, Note_off_c, 11, 39, 64
12, 342832, Note_on_c, 11, 40, 101
12, 342888, Note_off_c, 11, 40, 64
12, 342954, Note_on_c, 11, 42, 116
12, 343042, Note_off_c, 11, 42, 64
12, 343077, Note_on_c, 11, 44, 91
12, 343150, Note_off_c, 11, 44, 64
12, 343191, Note_on_c, 11, 42, 95
12, 343252, Note_off_c, 11, 42, 64
12, 343310, Note_on_c, 11, 40, 113
12, 343368, Note_off_c, 11, 40, 64
12, 343430, Note_on_c, 11, 39, 115
12, 343497, Note_off_c, 11, 39, 64
12, 343551, Note_on_c, 11, 37, 96
12, 343615, Note_off_c, 11, 37, 64
12, 343674, Note_on_c, 11, 35, 116
12, 343780, Note_off_c, 11, 35, 64
12, 343796, Note_on_c, 11, 34, 92
12, 343860, Note_off_c, 11, 34, 64
12, 343916, Note_on_c, 11, 35, 90
12, 343991, Note_off_c, 11, 35, 64
12, 344037, Note_on_c, 11, 37, 109
12, 344102, Note_off_c, 11, 37, 64
12, 344156, Note_on_c, 11, 39, 109
12, 344229, Note_off_c, 11, 39, 64
12, 344275, Note_on_c, 11, 35, 102
12, 344351, Note_off_c, 11, 35, 64
12, 344398, Note_on_c, 11, 41, 116
12, 344477, Note_off_c, 11, 41, 64
12, 344515, Note_on_c, 11, 42, 101
12, 344593, Note_off_c, 11, 42, 64
12, 344634, Note_on_c, 11, 41, 110
12, 344701, Note_off_c, 11, 41, 64
12, 344753, Note_on_c, 11, 39, 105
12, 344837, Note_off_c, 11, 39, 64
12, 344869, Note_on_c, 11, 37, 116
12, 344947, Note_off_c, 11, 37, 64
12, 344991, Note_on_c, 11, 35, 100
12, 345062, Note_off_c, 11, 35, 64
12, 345114, Note_on_c, 11, 34, 116
12, 345218, Note_off_c, 11, 34, 64
12, 345235, Note_on_c, 11, 32, 100
12, 345303, Note_off_c, 11, 32, 64
12, 345354, Note_on_c, 11, 34, 104
12, 345415, Note_off_c, 11, 34, 64
12, 345471, Note_on_c, 11, 35, 104
12, 345538, Note_off_c, 11, 35, 64
12, 345592, Note_on_c, 11, 37, 115
12, 345667, Note_off_c, 11, 37, 64
12, 345715, Note_on_c, 11, 34, 100
12, 345786, Note_off_c, 11, 34, 64
12, 345837, Note_on_c, 11, 39, 116
12, 345916, Note_off_c, 11, 39, 64
12, 345953, Note_on_c, 11, 41, 96
12, 346024, Note_off_c, 11, 41, 64
12, 346070, Note_on_c, 11, 39, 99
12, 346137, Note_off_c, 11, 39, 64
12, 346187, Note_on_c, 11, 37, 99
12, 346263, Note_off_c, 11, 37, 64
12, 346307, Note_on_c, 11, 35, 115
12, 346387, Note_off_c, 11, 35, 64
12, 346428, Note_on_c, 11, 34, 96
12, 346497, Note_off_c, 11, 34, 64
12, 346553, Note_on_c, 11, 32, 113
12, 346665, Note_off_c, 11, 32, 64
12, 346674, Note_on_c, 11, 30, 96
12, 346744, Note_off_c, 11, 30, 64
12, 346792, Note_on_c, 11, 32, 100
12, 346863, Note_off_c, 11, 32, 64
12, 346913, Note_on_c, 11, 34, 109
12, 346989, Note_off_c, 11, 34, 64
12, 347038, Note_on_c, 11, 35, 106
12, 347114, Note_off_c, 11, 35, 64
12, 347155, Note_on_c, 11, 30, 92
12, 347227, Note_off_c, 11, 30, 64
12, 347277, Note_on_c, 11, 37, 115
12, 347361, Note_off_c, 11, 37, 64
12, 347389, Note_on_c, 11, 39, 83
12, 347460, Note_off_c, 11, 39, 64
12, 347512, Note_on_c, 11, 37, 96
12, 347570, Note_off_c, 11, 37, 64
12, 347630, Note_on_c, 11, 35, 104
12, 347696, Note_off_c, 11, 35, 64
12, 347751, Note_on_c, 11, 34, 115
12, 347821, Note_off_c, 11, 34, 64
12, 347870, Note_on_c, 11, 32, 98
12, 347933, Note_off_c, 11, 32, 64
12, 347997, Note_on_c, 11, 30, 76
12, 348225, Note_off_c, 11, 30, 64
12, 348714, Note_on_c, 11, 25, 71
12, 348998, Note_off_c, 11, 25, 64
12, 349437, Note_on_c, 11, 30, 81
12, 349680, Note_off_c, 11, 30, 64
12, 350157, Note_on_c, 11, 37, 93
12, 350391, Note_off_c, 11, 37, 64
12, 350880, Note_on_c, 11, 42, 116
12, 351066, Note_off_c, 11, 42, 64
12, 351119, Note_on_c, 11, 46, 93
12, 351210, Note_off_c, 11, 46, 64
12, 351355, Note_on_c, 11, 49, 81
12, 351443, Note_off_c, 11, 49, 64
12, 351597, Note_on_c, 11, 37, 111
12, 351773, Note_off_c, 11, 37, 64
12, 351835, Note_on_c, 11, 44, 90
12, 351924, Note_off_c, 11, 44, 64
12, 352075, Note_on_c, 11, 49, 81
12, 352159, Note_off_c, 11, 49, 64
12, 352314, Note_on_c, 11, 30, 112
12, 352396, Note_off_c, 11, 30, 64
12, 352429, Note_on_c, 11, 29, 91
12, 352500, Note_off_c, 11, 29, 64
12, 352547, Note_on_c, 11, 30, 88
12, 352625, Note_off_c, 11, 30, 64
12, 352667, Note_on_c, 11, 32, 104
12, 352741, Note_off_c, 11, 32, 64
12, 352791, Note_on_c, 11, 34, 101
12, 352863, Note_off_c, 11, 34, 64
12, 352905, Note_on_c, 11, 35, 88
12, 352990, Note_off_c, 11, 35, 64
12, 353033, Note_on_c, 11, 37, 110
12, 353113, Note_off_c, 11, 37, 64
12, 353153, Note_on_c, 11, 39, 77
12, 353222, Note_off_c, 11, 39, 64
12, 353273, Note_on_c, 11, 37, 83
12, 353338, Note_off_c, 11, 37, 64
12, 353393, Note_on_c, 11, 35, 96
12, 353453, Note_off_c, 11, 35, 64
12, 353512, Note_on_c, 11, 34, 108
12, 353590, Note_off_c, 11, 34, 64
12, 353633, Note_on_c, 11, 32, 96
12, 353711, Note_off_c, 11, 32, 64
12, 353756, Note_on_c, 11, 30, 110
12, 353849, Note_off_c, 11, 30, 64
12, 353875, Note_on_c, 11, 29, 87
12, 353945, Note_off_c, 11, 29, 64
12, 353995, Note_on_c, 11, 30, 85
12, 354077, Note_off_c, 11, 30, 64
12, 354113, Note_on_c, 11, 32, 96
12, 354182, Note_off_c, 11, 32, 64
12, 354237, Note_on_c, 11, 34, 90
12, 354317, Note_off_c, 11, 34, 64
12, 354357, Note_on_c, 11, 30, 96
12, 354437, Note_off_c, 11, 30, 64
12, 354478, Note_on_c, 11, 35, 115
12, 354574, Note_off_c, 11, 35, 64
12, 354596, Note_on_c, 11, 37, 92
12, 354666, Note_off_c, 11, 37, 64
12, 354713, Note_on_c, 11, 35, 96
12, 354793, Note_off_c, 11, 35, 64
12, 354827, Note_on_c, 11, 34, 92
12, 354906, Note_off_c, 11, 34, 64
12, 354949, Note_on_c, 11, 32, 97
12, 355015, Note_off_c, 11, 32, 64
12, 355071, Note_on_c, 11, 30, 96
12, 355139, Note_off_c, 11, 30, 64
12, 355198, Note_on_c, 11, 29, 112
12, 355299, Note_off_c, 11, 29, 64
12, 355317, Note_on_c, 11, 27, 94
12, 355393, Note_off_c, 11, 27, 64
12, 355437, Note_on_c, 11, 29, 92
12, 355488, Note_off_c, 11, 29, 64
12, 355559, Note_on_c, 11, 30, 101
12, 355624, Note_off_c, 11, 30, 64
12, 355677, Note_on_c, 11, 32, 106
12, 355751, Note_off_c, 11, 32, 64
12, 355798, Note_on_c, 11, 29, 100
12, 355864, Note_off_c, 11, 29, 64
12, 355922, Note_on_c, 11, 34, 113
12, 356018, Note_off_c, 11, 34, 64
12, 356035, Note_on_c, 11, 35, 88
12, 356108, Note_off_c, 11, 35, 64
12, 356153, Note_on_c, 11, 34, 94
12, 356228, Note_off_c, 11, 34, 64
12, 356271, Note_on_c, 11, 32, 96
12, 356344, Note_off_c, 11, 32, 64
12, 356389, Note_on_c, 11, 30, 112
12, 356468, Note_off_c, 11, 30, 64
12, 356511, Note_on_c, 11, 29, 91
12, 356585, Note_off_c, 11, 29, 64
12, 356633, Note_on_c, 11, 27, 114
12, 356740, Note_off_c, 11, 27, 64
12, 356754, Note_on_c, 11, 25, 92
12, 356836, Note_off_c, 11, 25, 64
12, 356871, Note_on_c, 11, 27, 104
12, 356942, Note_off_c, 11, 27, 64
12, 356990, Note_on_c, 11, 29, 102
12, 357062, Note_off_c, 11, 29, 64
12, 357111, Note_on_c, 11, 30, 112
12, 357182, Note_off_c, 11, 30, 64
12, 357231, Note_on_c, 11, 27, 96
12, 357308, Note_off_c, 11, 27, 64
12, 357357, Note_on_c, 11, 32, 104
12, 357451, Note_off_c, 11, 32, 64
12, 357475, Note_on_c, 11, 34, 93
12, 357547, Note_off_c, 11, 34, 64
12, 357593, Note_on_c, 11, 32, 93
12, 357666, Note_off_c, 11, 32, 64
12, 357712, Note_on_c, 11, 30, 87
12, 357790, Note_off_c, 11, 30, 64
12, 357832, Note_on_c, 11, 29, 114
12, 357904, Note_off_c, 11, 29, 64
12, 357951, Note_on_c, 11, 27, 89
12, 358027, Note_off_c, 11, 27, 64
12, 358052, Note_on_c, 11, 25, 88
12, 358218, Note_off_c, 11, 25, 64
12, 358292, Note_on_c, 11, 25, 82
12, 358420, Note_off_c, 11, 25, 64
12, 358530, Note_on_c, 11, 25, 82
12, 358676, Note_off_c, 11, 25, 64
12, 358771, Note_on_c, 11, 25, 95
12, 358924, Note_off_c, 11, 25, 64
12, 359008, Note_on_c, 11, 25, 78
12, 359153, Note_off_c, 11, 25, 64
12, 359249, Note_on_c, 11, 25, 78
12, 359386, Note_off_c, 11, 25, 64
12, 359490, Note_on_c, 11, 25, 115
12, 359647, Note_off_c, 11, 25, 64
12, 359729, Note_on_c, 11, 25, 78
12, 359862, Note_off_c, 11, 25, 64
12, 359966, Note_on_c, 11, 25, 84
12, 360097, Note_off_c, 11, 25, 64
12, 360204, Note_on_c, 11, 25, 102
12, 360382, Note_off_c, 11, 25, 64
12, 360451, Note_on_c, 11, 25, 82
12, 360585, Note_off_c, 11, 25, 64
12, 360688, Note_on_c, 11, 25, 82
12, 360823, Note_off_c, 11, 25, 64
12, 360930, Note_on_c, 11, 25, 115
12, 361099, Note_off_c, 11, 25, 64
12, 361171, Note_on_c, 11, 25, 84
12, 361297, Note_off_c, 11, 25, 64
12, 361407, Note_on_c, 11, 25, 84
12, 361543, Note_off_c, 11, 25, 64
12, 361648, Note_on_c, 11, 25, 100
12, 361817, Note_off_c, 11, 25, 64
12, 361890, Note_on_c, 11, 25, 82
12, 362010, Note_off_c, 11, 25, 64
12, 362130, Note_on_c, 11, 25, 82
12, 362259, Note_off_c, 11, 25, 64
12, 362372, Note_on_c, 11, 25, 115
12, 362537, Note_off_c, 11, 25, 64
12, 362614, Note_on_c, 11, 25, 84
12, 362733, Note_off_c, 11, 25, 64
12, 362851, Note_on_c, 11, 25, 84
12, 362979, Note_off_c, 11, 25, 64
12, 363092, Note_on_c, 11, 25, 106
12, 363244, Note_off_c, 11, 25, 64
12, 363333, Note_on_c, 11, 25, 92
12, 363447, Note_off_c, 11, 25, 64
12, 363568, Note_on_c, 11, 25, 92
12, 363684, Note_off_c, 11, 25, 64
12, 363806, Note_on_c, 11, 25, 113
12, 363969, Note_off_c, 11, 25, 64
12, 364079, Note_on_c, 11, 29, 82
12, 364181, Note_off_c, 11, 29, 64
12, 364316, Note_on_c, 11, 32, 90
12, 364430, Note_off_c, 11, 32, 64
12, 364558, Note_on_c, 11, 29, 108
12, 364697, Note_off_c, 11, 29, 64
12, 364798, Note_on_c, 11, 32, 76
12, 364895, Note_off_c, 11, 32, 64
12, 365032, Note_on_c, 11, 37, 96
12, 365149, Note_off_c, 11, 37, 64
12, 365281, Note_on_c, 11, 30, 110
12, 365424, Note_off_c, 11, 30, 64
12, 365526, Note_on_c, 11, 34, 78
12, 365622, Note_off_c, 11, 34, 64
12, 365757, Note_on_c, 11, 37, 96
12, 365857, Note_off_c, 11, 37, 64
12, 365998, Note_on_c, 11, 34, 113
12, 366136, Note_off_c, 11, 34, 64
12, 366235, Note_on_c, 11, 37, 88
12, 366329, Note_off_c, 11, 37, 64
12, 366474, Note_on_c, 11, 42, 108
12, 366558, Note_off_c, 11, 42, 64
12, 366719, Note_on_c, 11, 35, 95
12, 367057, Note_off_c, 11, 35, 64
12, 368159, Note_on_c, 11, 35, 95
12, 368450, Note_off_c, 11, 35, 64
12, 369598, Note_on_c, 11, 34, 115
12, 369823, Note_off_c, 11, 34, 64
12, 369841, Note_on_c, 11, 32, 84
12, 369929, Note_off_c, 11, 32, 64
12, 370081, Note_on_c, 11, 30, 113
12, 370159, Note_off_c, 11, 30, 64
12, 370321, Note_on_c, 11, 37, 113
12, 370596, Note_off_c, 11, 37, 64
12, 370800, Note_on_c, 11, 25, 93
12, 370874, Note_off_c, 11, 25, 64
12, 371012, Control_c, 11, 11, 58
12, 371037, Control_c, 11, 11, 60
12, 371038, Note_on_c, 11, 30, 93
12, 371061, Control_c, 11, 11, 62
12, 371086, Control_c, 11, 11, 64
12, 371111, Control_c, 11, 11, 66
12, 371136, Control_c, 11, 11, 69
12, 371161, Control_c, 11, 11, 71
12, 371186, Control_c, 11, 11, 73
12, 371211, Control_c, 11, 11, 76
12, 371236, Control_c, 11, 11, 78
12, 371261, Control_c, 11, 11, 80
12, 371286, Control_c, 11, 11, 82
12, 371311, Control_c, 11, 11, 85
12, 371336, Control_c, 11, 11, 87
12, 371361, Control_c, 11, 11, 89
12, 371386, Control_c, 11, 11, 91
12, 371410, Control_c, 11, 11, 94
12, 371435, Control_c, 11, 11, 96
12, 371460, Control_c, 11, 11, 98
12, 371485, Control_c, 11, 11, 100
12, 371510, Control_c, 11, 11, 103
12, 371535, Control_c, 11, 11, 105
12, 371560, Control_c, 11, 11, 107
12, 371585, Control_c, 11, 11, 110
12, 371610, Control_c, 11, 11, 112
12, 371635, Control_c, 11, 11, 114
12, 371660, Control_c, 11, 11, 116
12, 371685, Control_c, 11, 11, 119
12, 371710, Control_c, 11, 11, 121
12, 371735, Control_c, 11, 11, 123
12, 371759, Control_c, 11, 11, 126
12, 371760, Control_c, 11, 11, 126
12, 371785, Control_c, 11, 11, 123
12, 371810, Control_c, 11, 11, 120
12, 371835, Control_c, 11, 11, 118
12, 371860, Control_c, 11, 11, 115
12, 371886, Control_c, 11, 11, 112
12, 371911, Control_c, 11, 11, 110
12, 371936, Control_c, 11, 11, 107
12, 371961, Control_c, 11, 11, 105
12, 371987, Control_c, 11, 11, 102
12, 372012, Control_c, 11, 11, 99
12, 372037, Control_c, 11, 11, 97
12, 372062, Control_c, 11, 11, 94
12, 372087, Control_c, 11, 11, 92
12, 372180, Control_c, 11, 11, 80
12, 372206, Control_c, 11, 11, 70
12, 372233, Control_c, 11, 11, 60
12, 372259, Control_c, 11, 11, 50
12, 372273, Note_off_c, 11, 30, 64
12, 372356, Control_c, 11, 11, 100
12, 378240, End_track
13, 0, Start_track
13, 0, Instrument_name_t, "SC88-A"
13, 0, Title_t, "Cembalo"
13, 1440, Control_c, 12, 101, 0
13, 1450, Control_c, 12, 100, 0
13, 1450, Control_c, 12, 6, 0
13, 1470, Control_c, 12, 0, 0
13, 1480, Control_c, 12, 32, 1
13, 1490, Program_c, 12, 6
13, 1500, Control_c, 12, 10, 64
13, 1510, Control_c, 12, 11, 100
13, 1520, Control_c, 12, 7, 80
13, 1530, Control_c, 12, 93, 0
13, 1540, Control_c, 12, 91, 0
13, 1550, Pitch_bend_c, 12, 8192
13, 1560, Control_c, 12, 1, 0
13, 1570, Control_c, 12, 64, 0
13, 1580, Control_c, 12, 91, 64
13, 1590, Control_c, 12, 99, 1
13, 1600, Control_c, 12, 98, 32
13, 1610, Control_c, 12, 6, 64
13, 1620, Control_c, 12, 98, 33
13, 1630, Control_c, 12, 6, 50
13, 1640, Control_c, 12, 98, 99
13, 1650, Control_c, 12, 6, 64
13, 1660, Control_c, 12, 98, 100
13, 1670, Control_c, 12, 6, 50
13, 1680, Control_c, 12, 98, 102
13, 1690, Control_c, 12, 6, 64
13, 84459, Note_on_c, 12, 51, 110
13, 84734, Note_on_c, 12, 58, 110
13, 84811, Note_on_c, 12, 63, 110
13, 84881, Note_on_c, 12, 66, 110
13, 84933, Note_on_c, 12, 70, 110
13, 86107, Note_off_c, 12, 70, 64
13, 86114, Note_off_c, 12, 66, 64
13, 86116, Note_off_c, 12, 63, 64
13, 86123, Note_off_c, 12, 51, 64
13, 86138, Note_off_c, 12, 58, 64
13, 87234, Note_on_c, 12, 49, 110
13, 87425, Note_on_c, 12, 53, 110
13, 87531, Note_on_c, 12, 58, 110
13, 87569, Note_on_c, 12, 61, 110
13, 87619, Note_on_c, 12, 65, 110
13, 87667, Note_on_c, 12, 70, 110
13, 88856, Note_off_c, 12, 49, 64
13, 88863, Note_off_c, 12, 53, 64
13, 88867, Note_off_c, 12, 65, 64
13, 88868, Note_off_c, 12, 70, 64
13, 88875, Note_off_c, 12, 61, 64
13, 88898, Note_off_c, 12, 58, 64
13, 89429, Note_on_c, 12, 47, 110
13, 89678, Note_on_c, 12, 56, 110
13, 89775, Note_on_c, 12, 59, 110
13, 89838, Note_on_c, 12, 63, 110
13, 89894, Note_on_c, 12, 68, 110
13, 89940, Note_on_c, 12, 71, 110
13, 90018, Note_on_c, 12, 75, 110
13, 90039, Note_off_c, 12, 71, 64
13, 90045, Note_off_c, 12, 68, 64
13, 90083, Note_off_c, 12, 63, 64
13, 90083, Note_on_c, 12, 71, 110
13, 90126, Note_on_c, 12, 68, 110
13, 90178, Note_off_c, 12, 59, 64
13, 90184, Note_on_c, 12, 63, 110
13, 90217, Note_off_c, 12, 56, 64
13, 90248, Note_on_c, 12, 59, 110
13, 90290, Note_on_c, 12, 56, 110
13, 90976, Note_off_c, 12, 47, 64
13, 91013, Note_off_c, 12, 71, 64
13, 91017, Note_off_c, 12, 75, 64
13, 91023, Note_off_c, 12, 68, 64
13, 91028, Note_off_c, 12, 56, 64
13, 91032, Note_off_c, 12, 59, 64
13, 91038, Note_off_c, 12, 63, 64
13, 92619, Note_on_c, 12, 46, 110
13, 92816, Note_on_c, 12, 53, 110
13, 92941, Note_on_c, 12, 58, 110
13, 93023, Note_on_c, 12, 60, 110
13, 93112, Note_on_c, 12, 62, 110
13, 93166, Note_on_c, 12, 65, 110
13, 93211, Note_off_c, 12, 62, 64
13, 93259, Note_on_c, 12, 70, 110
13, 93267, Note_off_c, 12, 65, 64
13, 93310, Note_off_c, 12, 60, 64
13, 93374, Note_on_c, 12, 65, 110
13, 93430, Note_on_c, 12, 62, 110
13, 93488, Note_off_c, 12, 62, 64
13, 93501, Note_on_c, 12, 60, 110
13, 93516, Note_off_c, 12, 58, 64
13, 93569, Note_on_c, 12, 62, 110
13, 93592, Note_off_c, 12, 60, 64
13, 93620, Note_off_c, 12, 53, 64
13, 93626, Note_on_c, 12, 58, 110
13, 93629, Note_off_c, 12, 46, 64
13, 93700, Note_on_c, 12, 53, 110
13, 93768, Note_on_c, 12, 46, 110
13, 94586, Note_off_c, 12, 46, 64
13, 94590, Note_off_c, 12, 58, 64
13, 94590, Note_off_c, 12, 53, 64
13, 94625, Note_off_c, 12, 70, 64
13, 94627, Note_off_c, 12, 62, 64
13, 94636, Note_off_c, 12, 65, 64
13, 100315, Note_on_c, 12, 54, 127
13, 100320, Note_on_c, 12, 61, 127
13, 100321, Note_on_c, 12, 66, 127
13, 100324, Note_on_c, 12, 70, 127
13, 100436, Note_on_c, 12, 53, 127
13, 100442, Note_off_c, 12, 54, 64
13, 100540, Note_off_c, 12, 53, 64
13, 100553, Note_on_c, 12, 54, 127
13, 100653, Note_off_c, 12, 54, 64
13, 100654, Note_off_c, 12, 61, 64
13, 100654, Note_off_c, 12, 66, 64
13, 100656, Note_off_c, 12, 70, 64
13, 100671, Note_on_c, 12, 56, 127
13, 100764, Note_off_c, 12, 56, 64
13, 100790, Note_on_c, 12, 58, 127
13, 100880, Note_off_c, 12, 58, 64
13, 100906, Note_on_c, 12, 59, 127
13, 101001, Note_off_c, 12, 59, 64
13, 101033, Note_on_c, 12, 61, 127
13, 101037, Note_on_c, 12, 65, 127
13, 101037, Note_on_c, 12, 68, 127
13, 101151, Note_on_c, 12, 63, 127
13, 101156, Note_off_c, 12, 61, 64
13, 101241, Note_off_c, 12, 63, 64
13, 101274, Note_on_c, 12, 61, 127
13, 101351, Note_off_c, 12, 65, 64
13, 101351, Note_off_c, 12, 68, 64
13, 101371, Note_off_c, 12, 61, 64
13, 101392, Note_on_c, 12, 59, 127
13, 101491, Note_off_c, 12, 59, 64
13, 101512, Note_on_c, 12, 58, 127
13, 101597, Note_off_c, 12, 58, 64
13, 101628, Note_on_c, 12, 56, 127
13, 101724, Note_off_c, 12, 56, 64
13, 101753, Note_on_c, 12, 61, 127
13, 101755, Note_on_c, 12, 54, 127
13, 101756, Note_on_c, 12, 66, 127
13, 101763, Note_on_c, 12, 70, 127
13, 101869, Note_off_c, 12, 54, 64
13, 101874, Note_on_c, 12, 53, 127
13, 101975, Note_off_c, 12, 53, 64
13, 101992, Note_on_c, 12, 54, 127
13, 102088, Note_off_c, 12, 54, 64
13, 102109, Note_on_c, 12, 56, 127
13, 102134, Note_off_c, 12, 70, 64
13, 102156, Note_off_c, 12, 66, 64
13, 102169, Note_off_c, 12, 61, 64
13, 102200, Note_off_c, 12, 56, 64
13, 102231, Note_on_c, 12, 58, 127
13, 102322, Note_off_c, 12, 58, 64
13, 102348, Note_on_c, 12, 54, 127
13, 102430, Note_off_c, 12, 54, 64
13, 102473, Note_on_c, 12, 59, 127
13, 102476, Note_on_c, 12, 63, 127
13, 102483, Note_on_c, 12, 66, 127
13, 102489, Note_on_c, 12, 70, 127
13, 102591, Note_on_c, 12, 61, 127
13, 102600, Note_off_c, 12, 59, 64
13, 102679, Note_off_c, 12, 61, 64
13, 102713, Note_on_c, 12, 59, 127
13, 102814, Note_off_c, 12, 59, 64
13, 102828, Note_on_c, 12, 58, 127
13, 102912, Note_off_c, 12, 58, 64
13, 102947, Note_on_c, 12, 56, 127
13, 103017, Note_off_c, 12, 70, 64
13, 103034, Note_off_c, 12, 56, 64
13, 103040, Note_off_c, 12, 66, 64
13, 103067, Note_on_c, 12, 54, 127
13, 103071, Note_off_c, 12, 63, 64
13, 103169, Note_off_c, 12, 54, 64
13, 103194, Note_on_c, 12, 61, 127
13, 103197, Note_on_c, 12, 53, 127
13, 103201, Note_on_c, 12, 65, 127
13, 103207, Note_on_c, 12, 68, 127
13, 103318, Note_on_c, 12, 51, 127
13, 103325, Note_off_c, 12, 53, 64
13, 103416, Note_off_c, 12, 51, 64
13, 103434, Note_on_c, 12, 53, 127
13, 103527, Note_off_c, 12, 68, 64
13, 103533, Note_off_c, 12, 53, 64
13, 103546, Note_off_c, 12, 65, 64
13, 103554, Note_on_c, 12, 54, 127
13, 103589, Note_off_c, 12, 61, 64
13, 103651, Note_off_c, 12, 54, 64
13, 103674, Note_on_c, 12, 56, 127
13, 103777, Note_off_c, 12, 56, 64
13, 103791, Note_on_c, 12, 53, 127
13, 103884, Note_off_c, 12, 53, 64
13, 103915, Note_on_c, 12, 61, 127
13, 103916, Note_on_c, 12, 58, 127
13, 103919, Note_on_c, 12, 65, 127
13, 103926, Note_on_c, 12, 68, 127
13, 104017, Note_off_c, 12, 58, 64
13, 104031, Note_on_c, 12, 60, 127
13, 104129, Note_off_c, 12, 60, 64
13, 104149, Note_on_c, 12, 58, 127
13, 104250, Note_off_c, 12, 58, 64
13, 104267, Note_on_c, 12, 56, 127
13, 104292, Note_off_c, 12, 68, 64
13, 104315, Note_off_c, 12, 65, 64
13, 104337, Note_off_c, 12, 61, 64
13, 104366, Note_off_c, 12, 56, 64
13, 104387, Note_on_c, 12, 54, 127
13, 104483, Note_off_c, 12, 54, 64
13, 104504, Note_on_c, 12, 53, 127
13, 104592, Note_off_c, 12, 53, 64
13, 104632, Note_on_c, 12, 51, 127
13, 104638, Note_on_c, 12, 58, 127
13, 104644, Note_on_c, 12, 63, 127
13, 104651, Note_on_c, 12, 66, 127
13, 104736, Note_off_c, 12, 51, 64
13, 104756, Note_on_c, 12, 49, 127
13, 104857, Note_off_c, 12, 49, 64
13, 104871, Note_on_c, 12, 51, 127
13, 104974, Note_off_c, 12, 51, 64
13, 104991, Note_on_c, 12, 53, 127
13, 105011, Note_off_c, 12, 66, 64
13, 105042, Note_off_c, 12, 63, 64
13, 105062, Note_off_c, 12, 58, 64
13, 105082, Note_off_c, 12, 53, 64
13, 105110, Note_on_c, 12, 54, 127
13, 105210, Note_off_c, 12, 54, 64
13, 105227, Note_on_c, 12, 51, 127
13, 105329, Note_off_c, 12, 51, 64
13, 105357, Note_on_c, 12, 56, 127
13, 105357, Note_on_c, 12, 60, 127
13, 105357, Note_on_c, 12, 66, 127
13, 105358, Note_on_c, 12, 63, 127
13, 105467, Note_off_c, 12, 56, 64
13, 105476, Note_on_c, 12, 58, 127
13, 105578, Note_off_c, 12, 58, 64
13, 105593, Note_on_c, 12, 56, 127
13, 105696, Note_off_c, 12, 56, 64
13, 105710, Note_on_c, 12, 54, 127
13, 105806, Note_off_c, 12, 54, 64
13, 105829, Note_on_c, 12, 53, 127
13, 105903, Note_off_c, 12, 53, 64
13, 105920, Note_off_c, 12, 63, 64
13, 105921, Note_off_c, 12, 60, 64
13, 105922, Note_off_c, 12, 66, 64
13, 105948, Note_on_c, 12, 51, 127
13, 106041, Note_off_c, 12, 51, 64
13, 106080, Note_on_c, 12, 49, 127
13, 106080, Note_on_c, 12, 61, 127
13, 106080, Note_on_c, 12, 65, 127
13, 106081, Note_on_c, 12, 56, 127
13, 106329, Note_off_c, 12, 49, 64
13, 106362, Note_off_c, 12, 61, 64
13, 106365, Note_off_c, 12, 65, 64
13, 106365, Note_off_c, 12, 56, 64
13, 106795, Note_on_c, 12, 44, 127
13, 106795, Note_on_c, 12, 60, 127
13, 106796, Note_on_c, 12, 63, 127
13, 106797, Note_on_c, 12, 56, 127
13, 107042, Note_off_c, 12, 44, 64
13, 107131, Note_off_c, 12, 60, 64
13, 107141, Note_off_c, 12, 56, 64
13, 107144, Note_off_c, 12, 63, 64
13, 107515, Note_on_c, 12, 37, 127
13, 107527, Note_on_c, 12, 56, 127
13, 107527, Note_on_c, 12, 61, 127
13, 107529, Note_on_c, 12, 65, 127
13, 107767, Note_off_c, 12, 37, 64
13, 107853, Note_off_c, 12, 61, 64
13, 107856, Note_off_c, 12, 56, 64
13, 107856, Note_off_c, 12, 65, 64
13, 108222, Note_on_c, 12, 60, 127
13, 108222, Note_on_c, 12, 56, 127
13, 108224, Note_on_c, 12, 63, 127
13, 108237, Note_on_c, 12, 44, 127
13, 108472, Note_off_c, 12, 44, 64
13, 108548, Note_off_c, 12, 60, 64
13, 108552, Note_off_c, 12, 56, 64
13, 108552, Note_off_c, 12, 63, 64
13, 108955, Note_on_c, 12, 49, 127
13, 108955, Note_on_c, 12, 68, 127
13, 109148, Note_off_c, 12, 49, 64
13, 109196, Note_on_c, 12, 53, 127
13, 109196, Note_on_c, 12, 61, 127
13, 109204, Note_off_c, 12, 68, 64
13, 109319, Note_off_c, 12, 53, 64
13, 109319, Note_off_c, 12, 61, 64
13, 109436, Note_on_c, 12, 56, 127
13, 109436, Note_on_c, 12, 65, 127
13, 109554, Note_off_c, 12, 56, 64
13, 109554, Note_off_c, 12, 65, 64
13, 109680, Note_on_c, 12, 44, 127
13, 109680, Note_on_c, 12, 63, 127
13, 109848, Note_off_c, 12, 44, 64
13, 109912, Note_off_c, 12, 63, 64
13, 109925, Note_on_c, 12, 51, 127
13, 109925, Note_on_c, 12, 60, 127
13, 110031, Note_off_c, 12, 51, 64
13, 110031, Note_off_c, 12, 60, 64
13, 110157, Note_on_c, 12, 56, 127
13, 110157, Note_on_c, 12, 63, 127
13, 110157, Note_on_c, 12, 68, 127
13, 110157, Note_on_c, 12, 60, 127
13, 110251, Note_off_c, 12, 56, 64
13, 110251, Note_off_c, 12, 63, 64
13, 110251, Note_off_c, 12, 68, 64
13, 110251, Note_off_c, 12, 60, 64
13, 110405, Note_on_c, 12, 49, 127
13, 110405, Note_on_c, 12, 56, 127
13, 110429, Note_on_c, 12, 61, 127
13, 110464, Note_on_c, 12, 65, 127
13, 110519, Note_on_c, 12, 48, 127
13, 110531, Note_off_c, 12, 49, 64
13, 110625, Note_off_c, 12, 48, 64
13, 110636, Note_on_c, 12, 49, 127
13, 110734, Note_off_c, 12, 49, 64
13, 110750, Note_on_c, 12, 51, 127
13, 110847, Note_off_c, 12, 51, 64
13, 110869, Note_on_c, 12, 53, 127
13, 110916, Note_off_c, 12, 65, 64
13, 110924, Note_off_c, 12, 61, 64
13, 110930, Note_off_c, 12, 56, 64
13, 110961, Note_off_c, 12, 53, 64
13, 110985, Note_on_c, 12, 54, 127
13, 111066, Note_off_c, 12, 54, 64
13, 111107, Note_on_c, 12, 56, 127
13, 111107, Note_on_c, 12, 60, 127
13, 111107, Note_on_c, 12, 63, 127
13, 111224, Note_on_c, 12, 58, 127
13, 111231, Note_off_c, 12, 56, 64
13, 111317, Note_off_c, 12, 58, 64
13, 111344, Note_on_c, 12, 56, 127
13, 111452, Note_off_c, 12, 56, 64
13, 111467, Note_on_c, 12, 54, 127
13, 111571, Note_off_c, 12, 54, 64
13, 111589, Note_on_c, 12, 53, 127
13, 111666, Note_off_c, 12, 60, 64
13, 111668, Note_off_c, 12, 63, 64
13, 111684, Note_off_c, 12, 53, 64
13, 111711, Note_on_c, 12, 51, 127
13, 111808, Note_off_c, 12, 51, 64
13, 111834, Note_on_c, 12, 49, 127
13, 111834, Note_on_c, 12, 68, 127
13, 111834, Note_on_c, 12, 65, 127
13, 111834, Note_on_c, 12, 61, 127
13, 111944, Note_off_c, 12, 49, 64
13, 111955, Note_on_c, 12, 48, 127
13, 112047, Note_off_c, 12, 48, 64
13, 112071, Note_on_c, 12, 49, 127
13, 112188, Note_on_c, 12, 51, 127
13, 112195, Note_off_c, 12, 49, 64
13, 112286, Note_off_c, 12, 51, 64
13, 112307, Note_on_c, 12, 53, 127
13, 112362, Note_off_c, 12, 68, 64
13, 112362, Note_off_c, 12, 65, 64
13, 112362, Note_off_c, 12, 61, 64
13, 112397, Note_off_c, 12, 53, 64
13, 112424, Note_on_c, 12, 49, 127
13, 112529, Note_off_c, 12, 49, 64
13, 112542, Note_on_c, 12, 70, 127
13, 112542, Note_on_c, 12, 65, 127
13, 112542, Note_on_c, 12, 61, 127
13, 112551, Note_on_c, 12, 54, 127
13, 112666, Note_on_c, 12, 56, 127
13, 112667, Note_off_c, 12, 54, 64
13, 112747, Note_off_c, 12, 56, 64
13, 112791, Note_on_c, 12, 54, 127
13, 112875, Note_off_c, 12, 54, 64
13, 112909, Note_on_c, 12, 53, 127
13, 113000, Note_off_c, 12, 53, 64
13, 113026, Note_on_c, 12, 51, 127
13, 113121, Note_off_c, 12, 70, 64
13, 113121, Note_off_c, 12, 65, 64
13, 113121, Note_off_c, 12, 61, 64
13, 113134, Note_off_c, 12, 51, 64
13, 113145, Note_on_c, 12, 49, 127
13, 113229, Note_off_c, 12, 49, 64
13, 113265, Note_on_c, 12, 70, 127
13, 113265, Note_on_c, 12, 67, 127
13, 113265, Note_on_c, 12, 63, 127
13, 113267, Note_on_c, 12, 48, 127
13, 113386, Note_on_c, 12, 46, 127
13, 113394, Note_off_c, 12, 48, 64
13, 113491, Note_off_c, 12, 46, 64
13, 113504, Note_on_c, 12, 48, 127
13, 113601, Note_off_c, 12, 48, 64
13, 113622, Note_on_c, 12, 49, 127
13, 113718, Note_off_c, 12, 49, 64
13, 113741, Note_on_c, 12, 51, 127
13, 113832, Note_off_c, 12, 51, 64
13, 113851, Note_off_c, 12, 70, 64
13, 113851, Note_off_c, 12, 67, 64
13, 113851, Note_off_c, 12, 63, 64
13, 113860, Note_on_c, 12, 48, 127
13, 113959, Note_off_c, 12, 48, 64
13, 113981, Note_on_c, 12, 68, 127
13, 113981, Note_on_c, 12, 65, 127
13, 113981, Note_on_c, 12, 63, 127
13, 113986, Note_on_c, 12, 53, 127
13, 114094, Note_off_c, 12, 53, 64
13, 114106, Note_on_c, 12, 54, 127
13, 114206, Note_off_c, 12, 54, 64
13, 114223, Note_on_c, 12, 53, 127
13, 114305, Note_off_c, 12, 53, 64
13, 114340, Note_on_c, 12, 51, 127
13, 114437, Note_off_c, 12, 51, 64
13, 114461, Note_on_c, 12, 49, 127
13, 114544, Note_off_c, 12, 68, 64
13, 114544, Note_off_c, 12, 65, 64
13, 114544, Note_off_c, 12, 63, 64
13, 114566, Note_off_c, 12, 49, 64
13, 114580, Note_on_c, 12, 48, 127
13, 114667, Note_off_c, 12, 48, 64
13, 114696, Note_on_c, 12, 68, 127
13, 114696, Note_on_c, 12, 65, 127
13, 114696, Note_on_c, 12, 61, 127
13, 114707, Note_on_c, 12, 46, 127
13, 114825, Note_on_c, 12, 44, 127
13, 114829, Note_off_c, 12, 46, 64
13, 114933, Note_off_c, 12, 44, 64
13, 114944, Note_on_c, 12, 46, 127
13, 115045, Note_off_c, 12, 46, 64
13, 115060, Note_on_c, 12, 48, 127
13, 115162, Note_off_c, 12, 48, 64
13, 115180, Note_on_c, 12, 49, 127
13, 115271, Note_off_c, 12, 49, 64
13, 115288, Note_off_c, 12, 68, 64
13, 115288, Note_off_c, 12, 65, 64
13, 115288, Note_off_c, 12, 61, 64
13, 115300, Note_on_c, 12, 46, 127
13, 115393, Note_off_c, 12, 46, 64
13, 115417, Note_on_c, 12, 67, 127
13, 115417, Note_on_c, 12, 63, 127
13, 115417, Note_on_c, 12, 61, 127
13, 115426, Note_on_c, 12, 51, 127
13, 115550, Note_off_c, 12, 51, 64
13, 115551, Note_on_c, 12, 53, 127
13, 115639, Note_off_c, 12, 53, 64
13, 115666, Note_on_c, 12, 51, 127
13, 115776, Note_off_c, 12, 51, 64
13, 115785, Note_on_c, 12, 49, 127
13, 115880, Note_off_c, 12, 49, 64
13, 115905, Note_on_c, 12, 48, 127
13, 115973, Note_off_c, 12, 67, 64
13, 115973, Note_off_c, 12, 63, 64
13, 115973, Note_off_c, 12, 61, 64
13, 116003, Note_off_c, 12, 48, 64
13, 116020, Note_on_c, 12, 46, 127
13, 116112, Note_off_c, 12, 46, 64
13, 116143, Note_on_c, 12, 44, 127
13, 116160, Note_on_c, 12, 60, 127
13, 116160, Note_on_c, 12, 63, 127
13, 116325, Note_off_c, 12, 44, 64
13, 116387, Note_on_c, 12, 44, 127
13, 116490, Note_off_c, 12, 60, 64
13, 116492, Note_off_c, 12, 63, 64
13, 116542, Note_off_c, 12, 44, 64
13, 116627, Note_on_c, 12, 44, 127
13, 116640, Note_on_c, 12, 60, 127
13, 116640, Note_on_c, 12, 63, 127
13, 116690, Note_off_c, 12, 60, 64
13, 116691, Note_off_c, 12, 63, 64
13, 116770, Note_off_c, 12, 44, 64
13, 116872, Note_on_c, 12, 44, 127
13, 116878, Note_on_c, 12, 61, 127
13, 116878, Note_on_c, 12, 65, 127
13, 117041, Note_off_c, 12, 44, 64
13, 117119, Note_on_c, 12, 44, 127
13, 117163, Note_off_c, 12, 61, 64
13, 117165, Note_off_c, 12, 65, 64
13, 117250, Note_off_c, 12, 44, 64
13, 117359, Note_on_c, 12, 44, 127
13, 117359, Note_on_c, 12, 61, 127
13, 117359, Note_on_c, 12, 65, 127
13, 117406, Note_off_c, 12, 61, 64
13, 117408, Note_off_c, 12, 65, 64
13, 117481, Note_off_c, 12, 44, 64
13, 117597, Note_on_c, 12, 44, 127
13, 117598, Note_on_c, 12, 63, 127
13, 117598, Note_on_c, 12, 66, 127
13, 117757, Note_off_c, 12, 44, 64
13, 117839, Note_on_c, 12, 44, 127
13, 117875, Note_off_c, 12, 63, 64
13, 117876, Note_off_c, 12, 66, 64
13, 117953, Note_off_c, 12, 44, 64
13, 118076, Note_on_c, 12, 44, 127
13, 118080, Note_on_c, 12, 66, 127
13, 118080, Note_on_c, 12, 63, 127
13, 118129, Note_off_c, 12, 63, 64
13, 118141, Note_off_c, 12, 66, 64
13, 118198, Note_off_c, 12, 44, 64
13, 118312, Note_on_c, 12, 44, 127
13, 118318, Note_on_c, 12, 61, 127
13, 118318, Note_on_c, 12, 65, 127
13, 118471, Note_off_c, 12, 44, 64
13, 118557, Note_on_c, 12, 44, 127
13, 118611, Note_off_c, 12, 65, 64
13, 118616, Note_off_c, 12, 61, 64
13, 118660, Note_off_c, 12, 44, 64
13, 118794, Note_on_c, 12, 44, 127
13, 118801, Note_on_c, 12, 61, 127
13, 118801, Note_on_c, 12, 65, 127
13, 118846, Note_off_c, 12, 65, 64
13, 118852, Note_off_c, 12, 61, 64
13, 118897, Note_off_c, 12, 44, 64
13, 119033, Note_on_c, 12, 44, 127
13, 119038, Note_on_c, 12, 66, 127
13, 119039, Note_on_c, 12, 63, 127
13, 119188, Note_off_c, 12, 44, 64
13, 119272, Note_on_c, 12, 44, 127
13, 119315, Note_off_c, 12, 63, 64
13, 119319, Note_off_c, 12, 66, 64
13, 119388, Note_off_c, 12, 44, 64
13, 119511, Note_on_c, 12, 44, 127
13, 119519, Note_on_c, 12, 63, 127
13, 119519, Note_on_c, 12, 66, 127
13, 119571, Note_off_c, 12, 63, 64
13, 119578, Note_off_c, 12, 66, 64
13, 119627, Note_off_c, 12, 44, 64
13, 119752, Note_on_c, 12, 44, 127
13, 119757, Note_on_c, 12, 65, 127
13, 119757, Note_on_c, 12, 61, 127
13, 119914, Note_off_c, 12, 44, 64
13, 119991, Note_on_c, 12, 44, 127
13, 120056, Note_off_c, 12, 65, 64
13, 120065, Note_off_c, 12, 61, 64
13, 120108, Note_off_c, 12, 44, 64
13, 120233, Note_on_c, 12, 44, 127
13, 120239, Note_on_c, 12, 61, 127
13, 120240, Note_on_c, 12, 65, 127
13, 120285, Note_off_c, 12, 65, 64
13, 120295, Note_off_c, 12, 61, 64
13, 120346, Note_off_c, 12, 44, 64
13, 120477, Note_on_c, 12, 63, 127
13, 120477, Note_on_c, 12, 60, 127
13, 120478, Note_on_c, 12, 44, 127
13, 120623, Note_off_c, 12, 44, 64
13, 120719, Note_on_c, 12, 44, 127
13, 120770, Note_off_c, 12, 60, 64
13, 120772, Note_off_c, 12, 63, 64
13, 120827, Note_off_c, 12, 44, 64
13, 120958, Note_on_c, 12, 44, 127
13, 120968, Note_on_c, 12, 60, 127
13, 120969, Note_on_c, 12, 63, 127
13, 121020, Note_off_c, 12, 60, 64
13, 121027, Note_off_c, 12, 63, 64
13, 121053, Note_off_c, 12, 44, 64
13, 121196, Note_on_c, 12, 61, 127
13, 121198, Note_on_c, 12, 44, 127
13, 121198, Note_on_c, 12, 65, 127
13, 121339, Note_off_c, 12, 44, 64
13, 121437, Note_on_c, 12, 44, 127
13, 121477, Note_off_c, 12, 61, 64
13, 121478, Note_off_c, 12, 65, 64
13, 121538, Note_off_c, 12, 44, 64
13, 121667, Note_on_c, 12, 61, 127
13, 121667, Note_on_c, 12, 65, 127
13, 121675, Note_on_c, 12, 44, 127
13, 121731, Note_off_c, 12, 61, 64
13, 121740, Note_off_c, 12, 65, 64
13, 121777, Note_off_c, 12, 44, 64
13, 121918, Note_on_c, 12, 44, 127
13, 121920, Note_on_c, 12, 60, 127
13, 121924, Note_on_c, 12, 63, 127
13, 121928, Note_on_c, 12, 66, 127
13, 122054, Note_off_c, 12, 44, 64
13, 122160, Note_on_c, 12, 48, 127
13, 122266, Note_off_c, 12, 48, 64
13, 122393, Note_on_c, 12, 51, 127
13, 122458, Note_off_c, 12, 66, 64
13, 122470, Note_off_c, 12, 63, 64
13, 122501, Note_off_c, 12, 60, 64
13, 122528, Note_off_c, 12, 51, 64
13, 122635, Note_on_c, 12, 48, 127
13, 122784, Note_off_c, 12, 48, 64
13, 122876, Note_on_c, 12, 51, 127
13, 122996, Note_off_c, 12, 51, 64
13, 123115, Note_on_c, 12, 56, 127
13, 123250, Note_off_c, 12, 56, 64
13, 123292, Note_on_c, 12, 61, 127
13, 123334, Note_on_c, 12, 65, 127
13, 123361, Note_on_c, 12, 49, 127
13, 123363, Note_on_c, 12, 68, 127
13, 123561, Note_off_c, 12, 49, 64
13, 123602, Note_on_c, 12, 53, 127
13, 123729, Note_off_c, 12, 53, 64
13, 123795, Note_off_c, 12, 65, 64
13, 123806, Note_off_c, 12, 61, 64
13, 123817, Note_off_c, 12, 68, 64
13, 123836, Note_on_c, 12, 56, 127
13, 123946, Note_off_c, 12, 56, 64
13, 124075, Note_on_c, 12, 53, 127
13, 124206, Note_off_c, 12, 53, 64
13, 124314, Note_on_c, 12, 56, 127
13, 124434, Note_off_c, 12, 56, 64
13, 124553, Note_on_c, 12, 61, 127
13, 124676, Note_off_c, 12, 61, 64
13, 124769, Note_on_c, 12, 61, 127
13, 124799, Note_on_c, 12, 42, 127
13, 124802, Note_on_c, 12, 66, 127
13, 124829, Note_on_c, 12, 70, 127
13, 125115, Note_off_c, 12, 42, 64
13, 125406, Note_off_c, 12, 70, 64
13, 125414, Note_off_c, 12, 66, 64
13, 125421, Note_off_c, 12, 61, 64
13, 126236, Note_on_c, 12, 54, 127
13, 126256, Note_on_c, 12, 68, 127
13, 126256, Note_on_c, 12, 63, 127
13, 126259, Note_on_c, 12, 60, 127
13, 126533, Note_off_c, 12, 54, 64
13, 126827, Note_off_c, 12, 60, 64
13, 126829, Note_off_c, 12, 68, 64
13, 126831, Note_off_c, 12, 63, 64
13, 127675, Note_on_c, 12, 53, 127
13, 127679, Note_on_c, 12, 65, 127
13, 127679, Note_on_c, 12, 61, 127
13, 127680, Note_on_c, 12, 68, 127
13, 127847, Note_off_c, 12, 53, 64
13, 127918, Note_on_c, 12, 51, 127
13, 127976, Note_off_c, 12, 65, 64
13, 127981, Note_off_c, 12, 68, 64
13, 127984, Note_off_c, 12, 61, 64
13, 128050, Note_off_c, 12, 51, 64
13, 128157, Note_on_c, 12, 49, 127
13, 128161, Note_on_c, 12, 65, 127
13, 128161, Note_on_c, 12, 61, 127
13, 128162, Note_on_c, 12, 68, 127
13, 128212, Note_off_c, 12, 65, 64
13, 128216, Note_off_c, 12, 68, 64
13, 128222, Note_off_c, 12, 61, 64
13, 128283, Note_off_c, 12, 49, 64
13, 128395, Note_on_c, 12, 56, 127
13, 128401, Note_on_c, 12, 68, 127
13, 128401, Note_on_c, 12, 63, 127
13, 128402, Note_on_c, 12, 60, 127
13, 128681, Note_off_c, 12, 68, 64
13, 128686, Note_off_c, 12, 63, 64
13, 128687, Note_off_c, 12, 60, 64
13, 128733, Note_off_c, 12, 56, 64
13, 128873, Note_on_c, 12, 44, 127
13, 128880, Note_on_c, 12, 60, 127
13, 128881, Note_on_c, 12, 68, 127
13, 128881, Note_on_c, 12, 63, 127
13, 128929, Note_off_c, 12, 63, 64
13, 128932, Note_off_c, 12, 68, 64
13, 128939, Note_off_c, 12, 60, 64
13, 128975, Note_off_c, 12, 44, 64
13, 129114, Note_on_c, 12, 37, 127
13, 129125, Note_on_c, 12, 61, 127
13, 129142, Note_on_c, 12, 65, 127
13, 129154, Note_on_c, 12, 68, 127
13, 129971, Note_off_c, 12, 65, 64
13, 129975, Note_off_c, 12, 68, 64
13, 129979, Note_off_c, 12, 61, 64
13, 130581, Note_off_c, 12, 37, 64
13, 134875, Note_on_c, 12, 54, 127
13, 134880, Note_on_c, 12, 61, 127
13, 134881, Note_on_c, 12, 66, 127
13, 134884, Note_on_c, 12, 70, 127
13, 134996, Note_on_c, 12, 53, 127
13, 135002, Note_off_c, 12, 54, 64
13, 135100, Note_off_c, 12, 53, 64
13, 135113, Note_on_c, 12, 54, 127
13, 135213, Note_off_c, 12, 54, 64
13, 135214, Note_off_c, 12, 61, 64
13, 135214, Note_off_c, 12, 66, 64
13, 135216, Note_off_c, 12, 70, 64
13, 135231, Note_on_c, 12, 56, 127
13, 135324, Note_off_c, 12, 56, 64
13, 135350, Note_on_c, 12, 58, 127
13, 135440, Note_off_c, 12, 58, 64
13, 135466, Note_on_c, 12, 59, 127
13, 135561, Note_off_c, 12, 59, 64
13, 135593, Note_on_c, 12, 61, 127
13, 135597, Note_on_c, 12, 65, 127
13, 135597, Note_on_c, 12, 68, 127
13, 135711, Note_on_c, 12, 63, 127
13, 135716, Note_off_c, 12, 61, 64
13, 135801, Note_off_c, 12, 63, 64
13, 135834, Note_on_c, 12, 61, 127
13, 135911, Note_off_c, 12, 65, 64
13, 135911, Note_off_c, 12, 68, 64
13, 135931, Note_off_c, 12, 61, 64
13, 135952, Note_on_c, 12, 59, 127
13, 136051, Note_off_c, 12, 59, 64
13, 136072, Note_on_c, 12, 58, 127
13, 136157, Note_off_c, 12, 58, 64
13, 136188, Note_on_c, 12, 56, 127
13, 136284, Note_off_c, 12, 56, 64
13, 136313, Note_on_c, 12, 61, 127
13, 136315, Note_on_c, 12, 54, 127
13, 136316, Note_on_c, 12, 66, 127
13, 136323, Note_on_c, 12, 70, 127
13, 136429, Note_off_c, 12, 54, 64
13, 136434, Note_on_c, 12, 53, 127
13, 136535, Note_off_c, 12, 53, 64
13, 136552, Note_on_c, 12, 54, 127
13, 136648, Note_off_c, 12, 54, 64
13, 136669, Note_on_c, 12, 56, 127
13, 136694, Note_off_c, 12, 70, 64
13, 136716, Note_off_c, 12, 66, 64
13, 136729, Note_off_c, 12, 61, 64
13, 136760, Note_off_c, 12, 56, 64
13, 136791, Note_on_c, 12, 58, 127
13, 136882, Note_off_c, 12, 58, 64
13, 136908, Note_on_c, 12, 54, 127
13, 136990, Note_off_c, 12, 54, 64
13, 137033, Note_on_c, 12, 59, 127
13, 137036, Note_on_c, 12, 63, 127
13, 137043, Note_on_c, 12, 66, 127
13, 137049, Note_on_c, 12, 70, 127
13, 137151, Note_on_c, 12, 61, 127
13, 137160, Note_off_c, 12, 59, 64
13, 137239, Note_off_c, 12, 61, 64
13, 137273, Note_on_c, 12, 59, 127
13, 137374, Note_off_c, 12, 59, 64
13, 137388, Note_on_c, 12, 58, 127
13, 137472, Note_off_c, 12, 58, 64
13, 137507, Note_on_c, 12, 56, 127
13, 137577, Note_off_c, 12, 70, 64
13, 137594, Note_off_c, 12, 56, 64
13, 137600, Note_off_c, 12, 66, 64
13, 137627, Note_on_c, 12, 54, 127
13, 137631, Note_off_c, 12, 63, 64
13, 137729, Note_off_c, 12, 54, 64
13, 137754, Note_on_c, 12, 61, 127
13, 137757, Note_on_c, 12, 53, 127
13, 137761, Note_on_c, 12, 65, 127
13, 137767, Note_on_c, 12, 68, 127
13, 137878, Note_on_c, 12, 51, 127
13, 137885, Note_off_c, 12, 53, 64
13, 137976, Note_off_c, 12, 51, 64
13, 137994, Note_on_c, 12, 53, 127
13, 138087, Note_off_c, 12, 68, 64
13, 138093, Note_off_c, 12, 53, 64
13, 138106, Note_off_c, 12, 65, 64
13, 138114, Note_on_c, 12, 54, 127
13, 138149, Note_off_c, 12, 61, 64
13, 138211, Note_off_c, 12, 54, 64
13, 138234, Note_on_c, 12, 56, 127
13, 138337, Note_off_c, 12, 56, 64
13, 138351, Note_on_c, 12, 53, 127
13, 138444, Note_off_c, 12, 53, 64
13, 138475, Note_on_c, 12, 61, 127
13, 138476, Note_on_c, 12, 58, 127
13, 138479, Note_on_c, 12, 65, 127
13, 138486, Note_on_c, 12, 68, 127
13, 138577, Note_off_c, 12, 58, 64
13, 138591, Note_on_c, 12, 60, 127
13, 138689, Note_off_c, 12, 60, 64
13, 138709, Note_on_c, 12, 58, 127
13, 138810, Note_off_c, 12, 58, 64
13, 138827, Note_on_c, 12, 56, 127
13, 138852, Note_off_c, 12, 68, 64
13, 138875, Note_off_c, 12, 65, 64
13, 138897, Note_off_c, 12, 61, 64
13, 138926, Note_off_c, 12, 56, 64
13, 138947, Note_on_c, 12, 54, 127
13, 139043, Note_off_c, 12, 54, 64
13, 139064, Note_on_c, 12, 53, 127
13, 139152, Note_off_c, 12, 53, 64
13, 139192, Note_on_c, 12, 51, 127
13, 139198, Note_on_c, 12, 58, 127
13, 139204, Note_on_c, 12, 63, 127
13, 139211, Note_on_c, 12, 66, 127
13, 139296, Note_off_c, 12, 51, 64
13, 139316, Note_on_c, 12, 49, 127
13, 139417, Note_off_c, 12, 49, 64
13, 139431, Note_on_c, 12, 51, 127
13, 139534, Note_off_c, 12, 51, 64
13, 139551, Note_on_c, 12, 53, 127
13, 139571, Note_off_c, 12, 66, 64
13, 139602, Note_off_c, 12, 63, 64
13, 139622, Note_off_c, 12, 58, 64
13, 139642, Note_off_c, 12, 53, 64
13, 139670, Note_on_c, 12, 54, 127
13, 139770, Note_off_c, 12, 54, 64
13, 139787, Note_on_c, 12, 51, 127
13, 139889, Note_off_c, 12, 51, 64
13, 139917, Note_on_c, 12, 56, 127
13, 139917, Note_on_c, 12, 60, 127
13, 139917, Note_on_c, 12, 66, 127
13, 139918, Note_on_c, 12, 63, 127
13, 140027, Note_off_c, 12, 56, 64
13, 140036, Note_on_c, 12, 58, 127
13, 140138, Note_off_c, 12, 58, 64
13, 140153, Note_on_c, 12, 56, 127
13, 140256, Note_off_c, 12, 56, 64
13, 140270, Note_on_c, 12, 54, 127
13, 140366, Note_off_c, 12, 54, 64
13, 140389, Note_on_c, 12, 53, 127
13, 140463, Note_off_c, 12, 53, 64
13, 140480, Note_off_c, 12, 63, 64
13, 140481, Note_off_c, 12, 60, 64
13, 140482, Note_off_c, 12, 66, 64
13, 140508, Note_on_c, 12, 51, 127
13, 140601, Note_off_c, 12, 51, 64
13, 140640, Note_on_c, 12, 49, 127
13, 140640, Note_on_c, 12, 61, 127
13, 140640, Note_on_c, 12, 65, 127
13, 140641, Note_on_c, 12, 56, 127
13, 140889, Note_off_c, 12, 49, 64
13, 140922, Note_off_c, 12, 61, 64
13, 140925, Note_off_c, 12, 65, 64
13, 140925, Note_off_c, 12, 56, 64
13, 141355, Note_on_c, 12, 44, 127
13, 141355, Note_on_c, 12, 60, 127
13, 141356, Note_on_c, 12, 63, 127
13, 141357, Note_on_c, 12, 56, 127
13, 141602, Note_off_c, 12, 44, 64
13, 141691, Note_off_c, 12, 60, 64
13, 141701, Note_off_c, 12, 56, 64
13, 141704, Note_off_c, 12, 63, 64
13, 142075, Note_on_c, 12, 37, 127
13, 142087, Note_on_c, 12, 56, 127
13, 142087, Note_on_c, 12, 61, 127
13, 142089, Note_on_c, 12, 65, 127
13, 142327, Note_off_c, 12, 37, 64
13, 142413, Note_off_c, 12, 61, 64
13, 142416, Note_off_c, 12, 56, 64
13, 142416, Note_off_c, 12, 65, 64
13, 142782, Note_on_c, 12, 60, 127
13, 142782, Note_on_c, 12, 56, 127
13, 142784, Note_on_c, 12, 63, 127
13, 142797, Note_on_c, 12, 44, 127
13, 143032, Note_off_c, 12, 44, 64
13, 143108, Note_off_c, 12, 60, 64
13, 143112, Note_off_c, 12, 56, 64
13, 143112, Note_off_c, 12, 63, 64
13, 143515, Note_on_c, 12, 49, 127
13, 143515, Note_on_c, 12, 68, 127
13, 143708, Note_off_c, 12, 49, 64
13, 143756, Note_on_c, 12, 53, 127
13, 143756, Note_on_c, 12, 61, 127
13, 143764, Note_off_c, 12, 68, 64
13, 143879, Note_off_c, 12, 53, 64
13, 143879, Note_off_c, 12, 61, 64
13, 143996, Note_on_c, 12, 56, 127
13, 143996, Note_on_c, 12, 65, 127
13, 144114, Note_off_c, 12, 56, 64
13, 144114, Note_off_c, 12, 65, 64
13, 144240, Note_on_c, 12, 44, 127
13, 144240, Note_on_c, 12, 63, 127
13, 144408, Note_off_c, 12, 44, 64
13, 144472, Note_off_c, 12, 63, 64
13, 144485, Note_on_c, 12, 51, 127
13, 144485, Note_on_c, 12, 60, 127
13, 144591, Note_off_c, 12, 51, 64
13, 144591, Note_off_c, 12, 60, 64
13, 144717, Note_on_c, 12, 56, 127
13, 144717, Note_on_c, 12, 63, 127
13, 144717, Note_on_c, 12, 68, 127
13, 144717, Note_on_c, 12, 60, 127
13, 144811, Note_off_c, 12, 56, 64
13, 144811, Note_off_c, 12, 63, 64
13, 144811, Note_off_c, 12, 68, 64
13, 144811, Note_off_c, 12, 60, 64
13, 144965, Note_on_c, 12, 49, 127
13, 144965, Note_on_c, 12, 56, 127
13, 144989, Note_on_c, 12, 61, 127
13, 145024, Note_on_c, 12, 65, 127
13, 145079, Note_on_c, 12, 48, 127
13, 145091, Note_off_c, 12, 49, 64
13, 145185, Note_off_c, 12, 48, 64
13, 145196, Note_on_c, 12, 49, 127
13, 145294, Note_off_c, 12, 49, 64
13, 145310, Note_on_c, 12, 51, 127
13, 145407, Note_off_c, 12, 51, 64
13, 145429, Note_on_c, 12, 53, 127
13, 145476, Note_off_c, 12, 65, 64
13, 145484, Note_off_c, 12, 61, 64
13, 145490, Note_off_c, 12, 56, 64
13, 145521, Note_off_c, 12, 53, 64
13, 145545, Note_on_c, 12, 54, 127
13, 145626, Note_off_c, 12, 54, 64
13, 145667, Note_on_c, 12, 56, 127
13, 145667, Note_on_c, 12, 60, 127
13, 145667, Note_on_c, 12, 63, 127
13, 145784, Note_on_c, 12, 58, 127
13, 145791, Note_off_c, 12, 56, 64
13, 145877, Note_off_c, 12, 58, 64
13, 145904, Note_on_c, 12, 56, 127
13, 146012, Note_off_c, 12, 56, 64
13, 146027, Note_on_c, 12, 54, 127
13, 146131, Note_off_c, 12, 54, 64
13, 146149, Note_on_c, 12, 53, 127
13, 146226, Note_off_c, 12, 60, 64
13, 146228, Note_off_c, 12, 63, 64
13, 146244, Note_off_c, 12, 53, 64
13, 146271, Note_on_c, 12, 51, 127
13, 146368, Note_off_c, 12, 51, 64
13, 146394, Note_on_c, 12, 49, 127
13, 146394, Note_on_c, 12, 68, 127
13, 146394, Note_on_c, 12, 65, 127
13, 146394, Note_on_c, 12, 61, 127
13, 146504, Note_off_c, 12, 49, 64
13, 146515, Note_on_c, 12, 48, 127
13, 146607, Note_off_c, 12, 48, 64
13, 146631, Note_on_c, 12, 49, 127
13, 146748, Note_on_c, 12, 51, 127
13, 146755, Note_off_c, 12, 49, 64
13, 146846, Note_off_c, 12, 51, 64
13, 146867, Note_on_c, 12, 53, 127
13, 146922, Note_off_c, 12, 68, 64
13, 146922, Note_off_c, 12, 65, 64
13, 146922, Note_off_c, 12, 61, 64
13, 146957, Note_off_c, 12, 53, 64
13, 146984, Note_on_c, 12, 49, 127
13, 147089, Note_off_c, 12, 49, 64
13, 147102, Note_on_c, 12, 70, 127
13, 147102, Note_on_c, 12, 65, 127
13, 147102, Note_on_c, 12, 61, 127
13, 147111, Note_on_c, 12, 54, 127
13, 147226, Note_on_c, 12, 56, 127
13, 147227, Note_off_c, 12, 54, 64
13, 147307, Note_off_c, 12, 56, 64
13, 147351, Note_on_c, 12, 54, 127
13, 147435, Note_off_c, 12, 54, 64
13, 147469, Note_on_c, 12, 53, 127
13, 147560, Note_off_c, 12, 53, 64
13, 147586, Note_on_c, 12, 51, 127
13, 147681, Note_off_c, 12, 70, 64
13, 147681, Note_off_c, 12, 65, 64
13, 147681, Note_off_c, 12, 61, 64
13, 147694, Note_off_c, 12, 51, 64
13, 147705, Note_on_c, 12, 49, 127
13, 147789, Note_off_c, 12, 49, 64
13, 147825, Note_on_c, 12, 70, 127
13, 147825, Note_on_c, 12, 67, 127
13, 147825, Note_on_c, 12, 63, 127
13, 147827, Note_on_c, 12, 48, 127
13, 147946, Note_on_c, 12, 46, 127
13, 147954, Note_off_c, 12, 48, 64
13, 148051, Note_off_c, 12, 46, 64
13, 148064, Note_on_c, 12, 48, 127
13, 148161, Note_off_c, 12, 48, 64
13, 148182, Note_on_c, 12, 49, 127
13, 148278, Note_off_c, 12, 49, 64
13, 148301, Note_on_c, 12, 51, 127
13, 148392, Note_off_c, 12, 51, 64
13, 148411, Note_off_c, 12, 70, 64
13, 148411, Note_off_c, 12, 67, 64
13, 148411, Note_off_c, 12, 63, 64
13, 148420, Note_on_c, 12, 48, 127
13, 148519, Note_off_c, 12, 48, 64
13, 148541, Note_on_c, 12, 68, 127
13, 148541, Note_on_c, 12, 65, 127
13, 148541, Note_on_c, 12, 63, 127
13, 148546, Note_on_c, 12, 53, 127
13, 148654, Note_off_c, 12, 53, 64
13, 148666, Note_on_c, 12, 54, 127
13, 148766, Note_off_c, 12, 54, 64
13, 148783, Note_on_c, 12, 53, 127
13, 148865, Note_off_c, 12, 53, 64
13, 148900, Note_on_c, 12, 51, 127
13, 148997, Note_off_c, 12, 51, 64
13, 149021, Note_on_c, 12, 49, 127
13, 149104, Note_off_c, 12, 68, 64
13, 149104, Note_off_c, 12, 65, 64
13, 149104, Note_off_c, 12, 63, 64
13, 149126, Note_off_c, 12, 49, 64
13, 149140, Note_on_c, 12, 48, 127
13, 149227, Note_off_c, 12, 48, 64
13, 149256, Note_on_c, 12, 68, 127
13, 149256, Note_on_c, 12, 65, 127
13, 149256, Note_on_c, 12, 61, 127
13, 149267, Note_on_c, 12, 46, 127
13, 149385, Note_on_c, 12, 44, 127
13, 149389, Note_off_c, 12, 46, 64
13, 149493, Note_off_c, 12, 44, 64
13, 149504, Note_on_c, 12, 46, 127
13, 149605, Note_off_c, 12, 46, 64
13, 149620, Note_on_c, 12, 48, 127
13, 149722, Note_off_c, 12, 48, 64
13, 149740, Note_on_c, 12, 49, 127
13, 149831, Note_off_c, 12, 49, 64
13, 149848, Note_off_c, 12, 68, 64
13, 149848, Note_off_c, 12, 65, 64
13, 149848, Note_off_c, 12, 61, 64
13, 149860, Note_on_c, 12, 46, 127
13, 149953, Note_off_c, 12, 46, 64
13, 149977, Note_on_c, 12, 67, 127
13, 149977, Note_on_c, 12, 63, 127
13, 149977, Note_on_c, 12, 61, 127
13, 149986, Note_on_c, 12, 51, 127
13, 150110, Note_off_c, 12, 51, 64
13, 150111, Note_on_c, 12, 53, 127
13, 150199, Note_off_c, 12, 53, 64
13, 150226, Note_on_c, 12, 51, 127
13, 150336, Note_off_c, 12, 51, 64
13, 150345, Note_on_c, 12, 49, 127
13, 150440, Note_off_c, 12, 49, 64
13, 150465, Note_on_c, 12, 48, 127
13, 150533, Note_off_c, 12, 67, 64
13, 150533, Note_off_c, 12, 63, 64
13, 150533, Note_off_c, 12, 61, 64
13, 150563, Note_off_c, 12, 48, 64
13, 150580, Note_on_c, 12, 46, 127
13, 150672, Note_off_c, 12, 46, 64
13, 150703, Note_on_c, 12, 44, 127
13, 150720, Note_on_c, 12, 60, 127
13, 150720, Note_on_c, 12, 63, 127
13, 150885, Note_off_c, 12, 44, 64
13, 150947, Note_on_c, 12, 44, 127
13, 151050, Note_off_c, 12, 60, 64
13, 151052, Note_off_c, 12, 63, 64
13, 151102, Note_off_c, 12, 44, 64
13, 151187, Note_on_c, 12, 44, 127
13, 151200, Note_on_c, 12, 60, 127
13, 151200, Note_on_c, 12, 63, 127
13, 151250, Note_off_c, 12, 60, 64
13, 151251, Note_off_c, 12, 63, 64
13, 151330, Note_off_c, 12, 44, 64
13, 151432, Note_on_c, 12, 44, 127
13, 151438, Note_on_c, 12, 61, 127
13, 151438, Note_on_c, 12, 65, 127
13, 151601, Note_off_c, 12, 44, 64
13, 151679, Note_on_c, 12, 44, 127
13, 151723, Note_off_c, 12, 61, 64
13, 151725, Note_off_c, 12, 65, 64
13, 151810, Note_off_c, 12, 44, 64
13, 151919, Note_on_c, 12, 44, 127
13, 151919, Note_on_c, 12, 61, 127
13, 151919, Note_on_c, 12, 65, 127
13, 151966, Note_off_c, 12, 61, 64
13, 151968, Note_off_c, 12, 65, 64
13, 152041, Note_off_c, 12, 44, 64
13, 152157, Note_on_c, 12, 44, 127
13, 152158, Note_on_c, 12, 63, 127
13, 152158, Note_on_c, 12, 66, 127
13, 152317, Note_off_c, 12, 44, 64
13, 152399, Note_on_c, 12, 44, 127
13, 152435, Note_off_c, 12, 63, 64
13, 152436, Note_off_c, 12, 66, 64
13, 152513, Note_off_c, 12, 44, 64
13, 152636, Note_on_c, 12, 44, 127
13, 152640, Note_on_c, 12, 66, 127
13, 152640, Note_on_c, 12, 63, 127
13, 152689, Note_off_c, 12, 63, 64
13, 152701, Note_off_c, 12, 66, 64
13, 152758, Note_off_c, 12, 44, 64
13, 152872, Note_on_c, 12, 44, 127
13, 152878, Note_on_c, 12, 61, 127
13, 152878, Note_on_c, 12, 65, 127
13, 153031, Note_off_c, 12, 44, 64
13, 153117, Note_on_c, 12, 44, 127
13, 153171, Note_off_c, 12, 65, 64
13, 153176, Note_off_c, 12, 61, 64
13, 153220, Note_off_c, 12, 44, 64
13, 153354, Note_on_c, 12, 44, 127
13, 153361, Note_on_c, 12, 61, 127
13, 153361, Note_on_c, 12, 65, 127
13, 153406, Note_off_c, 12, 65, 64
13, 153412, Note_off_c, 12, 61, 64
13, 153457, Note_off_c, 12, 44, 64
13, 153593, Note_on_c, 12, 44, 127
13, 153598, Note_on_c, 12, 66, 127
13, 153599, Note_on_c, 12, 63, 127
13, 153748, Note_off_c, 12, 44, 64
13, 153832, Note_on_c, 12, 44, 127
13, 153875, Note_off_c, 12, 63, 64
13, 153879, Note_off_c, 12, 66, 64
13, 153948, Note_off_c, 12, 44, 64
13, 154071, Note_on_c, 12, 44, 127
13, 154079, Note_on_c, 12, 63, 127
13, 154079, Note_on_c, 12, 66, 127
13, 154131, Note_off_c, 12, 63, 64
13, 154138, Note_off_c, 12, 66, 64
13, 154187, Note_off_c, 12, 44, 64
13, 154312, Note_on_c, 12, 44, 127
13, 154317, Note_on_c, 12, 65, 127
13, 154317, Note_on_c, 12, 61, 127
13, 154474, Note_off_c, 12, 44, 64
13, 154551, Note_on_c, 12, 44, 127
13, 154616, Note_off_c, 12, 65, 64
13, 154625, Note_off_c, 12, 61, 64
13, 154668, Note_off_c, 12, 44, 64
13, 154793, Note_on_c, 12, 44, 127
13, 154799, Note_on_c, 12, 61, 127
13, 154800, Note_on_c, 12, 65, 127
13, 154845, Note_off_c, 12, 65, 64
13, 154855, Note_off_c, 12, 61, 64
13, 154906, Note_off_c, 12, 44, 64
13, 155037, Note_on_c, 12, 63, 127
13, 155037, Note_on_c, 12, 60, 127
13, 155038, Note_on_c, 12, 44, 127
13, 155183, Note_off_c, 12, 44, 64
13, 155279, Note_on_c, 12, 44, 127
13, 155330, Note_off_c, 12, 60, 64
13, 155332, Note_off_c, 12, 63, 64
13, 155387, Note_off_c, 12, 44, 64
13, 155518, Note_on_c, 12, 44, 127
13, 155528, Note_on_c, 12, 60, 127
13, 155529, Note_on_c, 12, 63, 127
13, 155580, Note_off_c, 12, 60, 64
13, 155587, Note_off_c, 12, 63, 64
13, 155613, Note_off_c, 12, 44, 64
13, 155756, Note_on_c, 12, 61, 127
13, 155758, Note_on_c, 12, 44, 127
13, 155758, Note_on_c, 12, 65, 127
13, 155899, Note_off_c, 12, 44, 64
13, 155997, Note_on_c, 12, 44, 127
13, 156037, Note_off_c, 12, 61, 64
13, 156038, Note_off_c, 12, 65, 64
13, 156098, Note_off_c, 12, 44, 64
13, 156227, Note_on_c, 12, 61, 127
13, 156227, Note_on_c, 12, 65, 127
13, 156235, Note_on_c, 12, 44, 127
13, 156291, Note_off_c, 12, 61, 64
13, 156300, Note_off_c, 12, 65, 64
13, 156337, Note_off_c, 12, 44, 64
13, 156478, Note_on_c, 12, 44, 127
13, 156480, Note_on_c, 12, 60, 127
13, 156484, Note_on_c, 12, 63, 127
13, 156488, Note_on_c, 12, 66, 127
13, 156614, Note_off_c, 12, 44, 64
13, 156720, Note_on_c, 12, 48, 127
13, 156826, Note_off_c, 12, 48, 64
13, 156953, Note_on_c, 12, 51, 127
13, 157018, Note_off_c, 12, 66, 64
13, 157030, Note_off_c, 12, 63, 64
13, 157061, Note_off_c, 12, 60, 64
13, 157088, Note_off_c, 12, 51, 64
13, 157195, Note_on_c, 12, 48, 127
13, 157344, Note_off_c, 12, 48, 64
13, 157436, Note_on_c, 12, 51, 127
13, 157556, Note_off_c, 12, 51, 64
13, 157675, Note_on_c, 12, 56, 127
13, 157810, Note_off_c, 12, 56, 64
13, 157852, Note_on_c, 12, 61, 127
13, 157894, Note_on_c, 12, 65, 127
13, 157921, Note_on_c, 12, 49, 127
13, 157923, Note_on_c, 12, 68, 127
13, 158121, Note_off_c, 12, 49, 64
13, 158162, Note_on_c, 12, 53, 127
13, 158289, Note_off_c, 12, 53, 64
13, 158355, Note_off_c, 12, 65, 64
13, 158366, Note_off_c, 12, 61, 64
13, 158377, Note_off_c, 12, 68, 64
13, 158396, Note_on_c, 12, 56, 127
13, 158506, Note_off_c, 12, 56, 64
13, 158635, Note_on_c, 12, 53, 127
13, 158766, Note_off_c, 12, 53, 64
13, 158874, Note_on_c, 12, 56, 127
13, 158994, Note_off_c, 12, 56, 64
13, 159113, Note_on_c, 12, 61, 127
13, 159236, Note_off_c, 12, 61, 64
13, 159329, Note_on_c, 12, 61, 127
13, 159359, Note_on_c, 12, 42, 127
13, 159362, Note_on_c, 12, 66, 127
13, 159389, Note_on_c, 12, 70, 127
13, 159675, Note_off_c, 12, 42, 64
13, 159966, Note_off_c, 12, 70, 64
13, 159974, Note_off_c, 12, 66, 64
13, 159981, Note_off_c, 12, 61, 64
13, 160796, Note_on_c, 12, 54, 127
13, 160816, Note_on_c, 12, 68, 127
13, 160816, Note_on_c, 12, 63, 127
13, 160819, Note_on_c, 12, 60, 127
13, 161093, Note_off_c, 12, 54, 64
13, 161387, Note_off_c, 12, 60, 64
13, 161389, Note_off_c, 12, 68, 64
13, 161391, Note_off_c, 12, 63, 64
13, 162235, Note_on_c, 12, 53, 127
13, 162239, Note_on_c, 12, 65, 127
13, 162239, Note_on_c, 12, 61, 127
13, 162240, Note_on_c, 12, 68, 127
13, 162407, Note_off_c, 12, 53, 64
13, 162478, Note_on_c, 12, 51, 127
13, 162536, Note_off_c, 12, 65, 64
13, 162541, Note_off_c, 12, 68, 64
13, 162544, Note_off_c, 12, 61, 64
13, 162610, Note_off_c, 12, 51, 64
13, 162717, Note_on_c, 12, 49, 127
13, 162721, Note_on_c, 12, 65, 127
13, 162721, Note_on_c, 12, 61, 127
13, 162722, Note_on_c, 12, 68, 127
13, 162772, Note_off_c, 12, 65, 64
13, 162776, Note_off_c, 12, 68, 64
13, 162782, Note_off_c, 12, 61, 64
13, 162843, Note_off_c, 12, 49, 64
13, 162955, Note_on_c, 12, 56, 127
13, 162961, Note_on_c, 12, 68, 127
13, 162961, Note_on_c, 12, 63, 127
13, 162962, Note_on_c, 12, 60, 127
13, 163241, Note_off_c, 12, 68, 64
13, 163246, Note_off_c, 12, 63, 64
13, 163247, Note_off_c, 12, 60, 64
13, 163293, Note_off_c, 12, 56, 64
13, 163433, Note_on_c, 12, 44, 127
13, 163440, Note_on_c, 12, 60, 127
13, 163441, Note_on_c, 12, 68, 127
13, 163441, Note_on_c, 12, 63, 127
13, 163489, Note_off_c, 12, 63, 64
13, 163492, Note_off_c, 12, 68, 64
13, 163499, Note_off_c, 12, 60, 64
13, 163535, Note_off_c, 12, 44, 64
13, 163682, Note_on_c, 12, 37, 127
13, 163685, Note_on_c, 12, 61, 127
13, 163702, Note_on_c, 12, 65, 127
13, 163714, Note_on_c, 12, 68, 127
13, 164531, Note_off_c, 12, 65, 64
13, 164535, Note_off_c, 12, 68, 64
13, 164536, Note_off_c, 12, 37, 64
13, 164539, Note_off_c, 12, 61, 64
13, 165120, Note_on_c, 12, 49, 127
13, 165120, Note_on_c, 12, 65, 127
13, 165121, Note_on_c, 12, 61, 127
13, 165121, Note_on_c, 12, 68, 127
13, 165228, Note_off_c, 12, 49, 64
13, 165241, Note_on_c, 12, 48, 127
13, 165307, Note_off_c, 12, 48, 64
13, 165359, Note_on_c, 12, 49, 127
13, 165446, Note_off_c, 12, 49, 64
13, 165475, Note_on_c, 12, 51, 127
13, 165560, Note_off_c, 12, 51, 64
13, 165595, Note_on_c, 12, 53, 127
13, 165679, Note_off_c, 12, 53, 64
13, 165695, Note_off_c, 12, 68, 64
13, 165697, Note_off_c, 12, 65, 64
13, 165700, Note_off_c, 12, 61, 64
13, 165713, Note_on_c, 12, 54, 127
13, 165800, Note_off_c, 12, 54, 64
13, 165833, Note_on_c, 12, 56, 127
13, 165838, Note_on_c, 12, 63, 127
13, 165839, Note_on_c, 12, 68, 127
13, 165839, Note_on_c, 12, 60, 127
13, 165947, Note_off_c, 12, 56, 64
13, 165951, Note_on_c, 12, 58, 127
13, 166038, Note_off_c, 12, 58, 64
13, 166073, Note_on_c, 12, 56, 127
13, 166155, Note_off_c, 12, 56, 64
13, 166189, Note_on_c, 12, 54, 127
13, 166279, Note_off_c, 12, 54, 64
13, 166308, Note_on_c, 12, 53, 127
13, 166345, Note_off_c, 12, 63, 64
13, 166346, Note_off_c, 12, 68, 64
13, 166353, Note_off_c, 12, 60, 64
13, 166387, Note_off_c, 12, 53, 64
13, 166427, Note_on_c, 12, 51, 127
13, 166489, Note_on_c, 12, 61, 127
13, 166512, Note_off_c, 12, 51, 64
13, 166526, Note_on_c, 12, 65, 127
13, 166545, Note_on_c, 12, 68, 127
13, 166553, Note_on_c, 12, 53, 127
13, 166653, Note_off_c, 12, 53, 64
13, 166672, Note_on_c, 12, 56, 127
13, 166757, Note_off_c, 12, 56, 64
13, 166790, Note_on_c, 12, 54, 127
13, 166872, Note_off_c, 12, 54, 64
13, 166912, Note_on_c, 12, 53, 127
13, 166990, Note_off_c, 12, 53, 64
13, 167030, Note_on_c, 12, 51, 127
13, 167120, Note_off_c, 12, 51, 64
13, 167132, Note_off_c, 12, 65, 64
13, 167137, Note_off_c, 12, 68, 64
13, 167146, Note_off_c, 12, 61, 64
13, 167147, Note_on_c, 12, 49, 127
13, 167229, Note_off_c, 12, 49, 64
13, 167271, Note_on_c, 12, 48, 127
13, 167286, Note_on_c, 12, 63, 127
13, 167286, Note_on_c, 12, 68, 127
13, 167287, Note_on_c, 12, 60, 127
13, 167372, Note_off_c, 12, 48, 64
13, 167391, Note_on_c, 12, 51, 127
13, 167473, Note_off_c, 12, 51, 64
13, 167511, Note_on_c, 12, 49, 127
13, 167590, Note_off_c, 12, 49, 64
13, 167631, Note_on_c, 12, 48, 127
13, 167721, Note_off_c, 12, 48, 64
13, 167751, Note_on_c, 12, 46, 127
13, 167817, Note_off_c, 12, 63, 64
13, 167821, Note_off_c, 12, 68, 64
13, 167822, Note_off_c, 12, 60, 64
13, 167838, Note_off_c, 12, 46, 64
13, 167870, Note_on_c, 12, 44, 127
13, 167951, Note_off_c, 12, 44, 64
13, 167993, Note_on_c, 12, 51, 127
13, 167995, Note_on_c, 12, 70, 127
13, 167995, Note_on_c, 12, 66, 127
13, 167999, Note_on_c, 12, 63, 127
13, 168211, Note_off_c, 12, 51, 64
13, 168233, Note_on_c, 12, 54, 127
13, 168338, Note_off_c, 12, 54, 64
13, 168472, Note_on_c, 12, 58, 127
13, 168554, Note_off_c, 12, 63, 64
13, 168557, Note_off_c, 12, 66, 64
13, 168559, Note_off_c, 12, 70, 64
13, 168599, Note_off_c, 12, 58, 64
13, 168717, Note_on_c, 12, 50, 127
13, 168717, Note_on_c, 12, 65, 127
13, 168717, Note_on_c, 12, 70, 127
13, 168717, Note_on_c, 12, 62, 127
13, 168918, Note_off_c, 12, 50, 64
13, 168957, Note_on_c, 12, 53, 127
13, 169053, Note_off_c, 12, 53, 64
13, 169199, Note_on_c, 12, 58, 127
13, 169287, Note_off_c, 12, 65, 64
13, 169291, Note_off_c, 12, 62, 64
13, 169300, Note_off_c, 12, 70, 64
13, 169327, Note_off_c, 12, 58, 64
13, 169444, Note_on_c, 12, 51, 127
13, 169446, Note_on_c, 12, 66, 127
13, 169446, Note_on_c, 12, 63, 127
13, 169447, Note_on_c, 12, 70, 127
13, 169660, Note_off_c, 12, 51, 64
13, 169679, Note_on_c, 12, 54, 127
13, 169796, Note_off_c, 12, 54, 64
13, 169921, Note_on_c, 12, 58, 127
13, 170008, Note_off_c, 12, 70, 64
13, 170009, Note_off_c, 12, 66, 64
13, 170013, Note_off_c, 12, 63, 64
13, 170031, Note_off_c, 12, 58, 64
13, 170161, Note_on_c, 12, 46, 127
13, 170164, Note_on_c, 12, 65, 127
13, 170164, Note_on_c, 12, 62, 127
13, 170165, Note_on_c, 12, 70, 127
13, 170352, Note_off_c, 12, 46, 64
13, 170399, Note_on_c, 12, 53, 127
13, 170511, Note_off_c, 12, 53, 64
13, 170637, Note_on_c, 12, 58, 127
13, 170692, Note_off_c, 12, 70, 64
13, 170695, Note_off_c, 12, 62, 64
13, 170697, Note_off_c, 12, 65, 64
13, 170750, Note_off_c, 12, 58, 64
13, 170877, Note_on_c, 12, 42, 127
13, 170880, Note_on_c, 12, 63, 127
13, 170880, Note_on_c, 12, 58, 127
13, 171085, Note_off_c, 12, 63, 64
13, 171085, Note_off_c, 12, 58, 64
13, 171131, Note_off_c, 12, 42, 64
13, 171601, Note_on_c, 12, 44, 127
13, 171601, Note_on_c, 12, 63, 127
13, 171601, Note_on_c, 12, 59, 127
13, 171790, Note_off_c, 12, 63, 64
13, 171790, Note_off_c, 12, 59, 64
13, 171847, Note_off_c, 12, 44, 64
13, 172314, Note_on_c, 12, 63, 127
13, 172314, Note_on_c, 12, 54, 127
13, 172319, Note_on_c, 12, 46, 127
13, 172515, Note_off_c, 12, 63, 64
13, 172515, Note_off_c, 12, 54, 64
13, 172579, Note_off_c, 12, 46, 64
13, 173031, Note_on_c, 12, 63, 127
13, 173031, Note_on_c, 12, 56, 127
13, 173035, Note_on_c, 12, 47, 127
13, 173203, Note_off_c, 12, 63, 64
13, 173203, Note_off_c, 12, 56, 64
13, 173308, Note_off_c, 12, 47, 64
13, 173739, Note_on_c, 12, 63, 127
13, 173739, Note_on_c, 12, 58, 127
13, 173761, Note_on_c, 12, 42, 127
13, 173937, Note_off_c, 12, 63, 64
13, 173937, Note_off_c, 12, 58, 64
13, 174042, Note_off_c, 12, 42, 64
13, 174467, Note_on_c, 12, 63, 127
13, 174467, Note_on_c, 12, 59, 127
13, 174475, Note_on_c, 12, 44, 127
13, 174684, Note_off_c, 12, 63, 64
13, 174684, Note_off_c, 12, 59, 64
13, 174777, Note_off_c, 12, 44, 64
13, 175195, Note_on_c, 12, 46, 127
13, 175207, Note_on_c, 12, 63, 127
13, 175207, Note_on_c, 12, 54, 127
13, 175325, Note_off_c, 12, 46, 64
13, 175439, Note_on_c, 12, 44, 127
13, 175522, Note_off_c, 12, 63, 64
13, 175522, Note_off_c, 12, 54, 64
13, 175585, Note_off_c, 12, 44, 64
13, 175678, Note_on_c, 12, 62, 127
13, 175678, Note_on_c, 12, 58, 127
13, 175678, Note_on_c, 12, 56, 127
13, 175683, Note_on_c, 12, 46, 127
13, 175742, Note_off_c, 12, 62, 64
13, 175742, Note_off_c, 12, 58, 64
13, 175742, Note_off_c, 12, 56, 64
13, 175824, Note_off_c, 12, 46, 64
13, 175925, Note_on_c, 12, 39, 127
13, 175925, Note_on_c, 12, 63, 127
13, 175925, Note_on_c, 12, 58, 127
13, 175925, Note_on_c, 12, 54, 127
13, 176082, Note_off_c, 12, 39, 64
13, 176134, Note_off_c, 12, 63, 64
13, 176134, Note_off_c, 12, 58, 64
13, 176134, Note_off_c, 12, 54, 64
13, 176160, Note_on_c, 12, 63, 127
13, 176160, Note_on_c, 12, 70, 127
13, 176160, Note_on_c, 12, 66, 127
13, 176162, Note_on_c, 12, 42, 127
13, 176242, Note_off_c, 12, 63, 64
13, 176242, Note_off_c, 12, 70, 64
13, 176242, Note_off_c, 12, 66, 64
13, 176282, Note_off_c, 12, 42, 64
13, 176397, Note_on_c, 12, 46, 127
13, 176398, Note_on_c, 12, 62, 127
13, 176398, Note_on_c, 12, 68, 127
13, 176398, Note_on_c, 12, 65, 127
13, 176474, Note_off_c, 12, 62, 64
13, 176474, Note_off_c, 12, 68, 64
13, 176474, Note_off_c, 12, 65, 64
13, 176530, Note_off_c, 12, 46, 64
13, 176638, Note_on_c, 12, 63, 127
13, 176638, Note_on_c, 12, 58, 127
13, 176638, Note_on_c, 12, 66, 127
13, 176641, Note_on_c, 12, 51, 127
13, 177118, Note_off_c, 12, 63, 64
13, 177118, Note_off_c, 12, 58, 64
13, 177118, Note_off_c, 12, 66, 64
13, 177120, Note_off_c, 12, 51, 64
13, 180960, Note_on_c, 12, 51, 127
13, 180960, Note_on_c, 12, 63, 127
13, 180961, Note_on_c, 12, 66, 127
13, 180961, Note_on_c, 12, 70, 127
13, 181062, Note_off_c, 12, 51, 64
13, 181081, Note_on_c, 12, 50, 127
13, 181154, Note_off_c, 12, 50, 64
13, 181196, Note_on_c, 12, 51, 127
13, 181281, Note_off_c, 12, 51, 64
13, 181311, Note_on_c, 12, 53, 127
13, 181382, Note_off_c, 12, 53, 64
13, 181430, Note_on_c, 12, 54, 127
13, 181515, Note_off_c, 12, 54, 64
13, 181518, Note_off_c, 12, 66, 64
13, 181522, Note_off_c, 12, 63, 64
13, 181522, Note_off_c, 12, 70, 64
13, 181545, Note_on_c, 12, 56, 127
13, 181632, Note_off_c, 12, 56, 64
13, 181667, Note_on_c, 12, 58, 127
13, 181671, Note_on_c, 12, 65, 127
13, 181672, Note_on_c, 12, 62, 127
13, 181673, Note_on_c, 12, 70, 127
13, 181791, Note_on_c, 12, 59, 127
13, 181793, Note_off_c, 12, 58, 64
13, 181879, Note_off_c, 12, 59, 64
13, 181913, Note_on_c, 12, 58, 127
13, 181990, Note_off_c, 12, 58, 64
13, 182029, Note_on_c, 12, 56, 127
13, 182108, Note_off_c, 12, 56, 64
13, 182146, Note_on_c, 12, 54, 127
13, 182208, Note_off_c, 12, 65, 64
13, 182217, Note_off_c, 12, 70, 64
13, 182221, Note_off_c, 12, 62, 64
13, 182233, Note_off_c, 12, 54, 64
13, 182260, Note_on_c, 12, 53, 127
13, 182341, Note_off_c, 12, 53, 64
13, 182376, Note_on_c, 12, 63, 127
13, 182377, Note_on_c, 12, 66, 127
13, 182377, Note_on_c, 12, 70, 127
13, 182389, Note_on_c, 12, 51, 127
13, 182487, Note_off_c, 12, 51, 64
13, 182509, Note_on_c, 12, 50, 127
13, 182602, Note_off_c, 12, 50, 64
13, 182628, Note_on_c, 12, 51, 127
13, 182726, Note_off_c, 12, 51, 64
13, 182748, Note_on_c, 12, 53, 127
13, 182835, Note_off_c, 12, 53, 64
13, 182865, Note_on_c, 12, 54, 127
13, 182956, Note_off_c, 12, 54, 64
13, 182960, Note_off_c, 12, 66, 64
13, 182966, Note_off_c, 12, 63, 64
13, 182968, Note_off_c, 12, 70, 64
13, 182984, Note_on_c, 12, 51, 127
13, 183079, Note_off_c, 12, 51, 64
13, 183102, Note_on_c, 12, 68, 127
13, 183102, Note_on_c, 12, 63, 127
13, 183102, Note_on_c, 12, 60, 127
13, 183107, Note_on_c, 12, 56, 127
13, 183210, Note_off_c, 12, 56, 64
13, 183228, Note_on_c, 12, 58, 127
13, 183318, Note_off_c, 12, 58, 64
13, 183349, Note_on_c, 12, 56, 127
13, 183442, Note_off_c, 12, 56, 64
13, 183466, Note_on_c, 12, 54, 127
13, 183558, Note_off_c, 12, 54, 64
13, 183587, Note_on_c, 12, 53, 127
13, 183663, Note_off_c, 12, 53, 64
13, 183677, Note_off_c, 12, 68, 64
13, 183677, Note_off_c, 12, 63, 64
13, 183677, Note_off_c, 12, 60, 64
13, 183703, Note_on_c, 12, 51, 127
13, 183804, Note_off_c, 12, 51, 64
13, 183830, Note_on_c, 12, 49, 127
13, 183830, Note_on_c, 12, 68, 127
13, 183830, Note_on_c, 12, 65, 127
13, 183830, Note_on_c, 12, 61, 127
13, 183947, Note_off_c, 12, 49, 64
13, 183949, Note_on_c, 12, 48, 127
13, 184027, Note_off_c, 12, 48, 64
13, 184067, Note_on_c, 12, 49, 127
13, 184155, Note_off_c, 12, 49, 64
13, 184182, Note_on_c, 12, 51, 127
13, 184264, Note_off_c, 12, 51, 64
13, 184304, Note_on_c, 12, 53, 127
13, 184379, Note_off_c, 12, 68, 64
13, 184379, Note_off_c, 12, 65, 64
13, 184379, Note_off_c, 12, 61, 64
13, 184394, Note_off_c, 12, 53, 64
13, 184427, Note_on_c, 12, 49, 127
13, 184517, Note_off_c, 12, 49, 64
13, 184538, Note_on_c, 12, 61, 127
13, 184538, Note_on_c, 12, 66, 127
13, 184538, Note_on_c, 12, 58, 127
13, 184554, Note_on_c, 12, 54, 127
13, 184659, Note_off_c, 12, 54, 64
13, 184674, Note_on_c, 12, 56, 127
13, 184770, Note_off_c, 12, 56, 64
13, 184793, Note_on_c, 12, 54, 127
13, 184892, Note_off_c, 12, 54, 64
13, 184910, Note_on_c, 12, 53, 127
13, 184992, Note_off_c, 12, 53, 64
13, 185029, Note_on_c, 12, 51, 127
13, 185103, Note_off_c, 12, 61, 64
13, 185103, Note_off_c, 12, 66, 64
13, 185103, Note_off_c, 12, 58, 64
13, 185124, Note_off_c, 12, 51, 64
13, 185148, Note_on_c, 12, 49, 127
13, 185249, Note_off_c, 12, 49, 64
13, 185272, Note_on_c, 12, 66, 127
13, 185272, Note_on_c, 12, 63, 127
13, 185272, Note_on_c, 12, 58, 127
13, 185273, Note_on_c, 12, 48, 127
13, 185391, Note_on_c, 12, 46, 127
13, 185395, Note_off_c, 12, 48, 64
13, 185493, Note_off_c, 12, 46, 64
13, 185511, Note_on_c, 12, 48, 127
13, 185604, Note_off_c, 12, 48, 64
13, 185631, Note_on_c, 12, 49, 127
13, 185719, Note_off_c, 12, 49, 64
13, 185752, Note_on_c, 12, 51, 127
13, 185845, Note_off_c, 12, 51, 64
13, 185857, Note_off_c, 12, 66, 64
13, 185857, Note_off_c, 12, 63, 64
13, 185857, Note_off_c, 12, 58, 64
13, 185868, Note_on_c, 12, 48, 127
13, 185943, Note_off_c, 12, 48, 64
13, 185992, Note_on_c, 12, 65, 127
13, 185992, Note_on_c, 12, 60, 127
13, 185992, Note_on_c, 12, 57, 127
13, 185994, Note_on_c, 12, 53, 127
13, 186091, Note_off_c, 12, 53, 64
13, 186112, Note_on_c, 12, 54, 127
13, 186209, Note_off_c, 12, 54, 64
13, 186227, Note_on_c, 12, 53, 127
13, 186311, Note_off_c, 12, 53, 64
13, 186348, Note_on_c, 12, 51, 127
13, 186435, Note_off_c, 12, 51, 64
13, 186470, Note_on_c, 12, 49, 127
13, 186557, Note_off_c, 12, 49, 64
13, 186568, Note_off_c, 12, 65, 64
13, 186568, Note_off_c, 12, 60, 64
13, 186568, Note_off_c, 12, 57, 64
13, 186591, Note_on_c, 12, 48, 127
13, 186666, Note_off_c, 12, 48, 64
13, 186714, Note_on_c, 12, 46, 127
13, 186724, Note_on_c, 12, 65, 127
13, 186724, Note_on_c, 12, 61, 127
13, 186724, Note_on_c, 12, 58, 127
13, 186932, Note_off_c, 12, 46, 64
13, 187032, Note_off_c, 12, 65, 64
13, 187032, Note_off_c, 12, 61, 64
13, 187032, Note_off_c, 12, 58, 64
13, 187435, Note_on_c, 12, 41, 127
13, 187435, Note_on_c, 12, 60, 127
13, 187436, Note_on_c, 12, 65, 127
13, 187437, Note_on_c, 12, 57, 127
13, 187641, Note_off_c, 12, 41, 64
13, 187743, Note_off_c, 12, 60, 64
13, 187748, Note_off_c, 12, 65, 64
13, 187751, Note_off_c, 12, 57, 64
13, 188154, Note_on_c, 12, 46, 127
13, 188163, Note_on_c, 12, 65, 127
13, 188163, Note_on_c, 12, 61, 127
13, 188164, Note_on_c, 12, 58, 127
13, 188370, Note_off_c, 12, 46, 64
13, 188454, Note_off_c, 12, 61, 64
13, 188457, Note_off_c, 12, 65, 64
13, 188458, Note_off_c, 12, 58, 64
13, 188875, Note_on_c, 12, 53, 127
13, 188884, Note_on_c, 12, 60, 127
13, 188885, Note_on_c, 12, 65, 127
13, 188886, Note_on_c, 12, 57, 127
13, 189087, Note_off_c, 12, 53, 64
13, 189162, Note_off_c, 12, 60, 64
13, 189166, Note_off_c, 12, 65, 64
13, 189168, Note_off_c, 12, 57, 64
13, 189604, Note_on_c, 12, 46, 127
13, 189611, Note_on_c, 12, 65, 127
13, 189612, Note_on_c, 12, 61, 127
13, 189613, Note_on_c, 12, 58, 127
13, 189746, Note_off_c, 12, 46, 64
13, 189846, Note_on_c, 12, 49, 127
13, 189897, Note_off_c, 12, 61, 64
13, 189899, Note_off_c, 12, 65, 64
13, 189902, Note_off_c, 12, 58, 64
13, 189958, Note_off_c, 12, 49, 64
13, 190073, Note_on_c, 12, 58, 127
13, 190074, Note_on_c, 12, 61, 127
13, 190075, Note_on_c, 12, 65, 127
13, 190078, Note_on_c, 12, 53, 127
13, 190126, Note_off_c, 12, 61, 64
13, 190129, Note_off_c, 12, 58, 64
13, 190137, Note_off_c, 12, 65, 64
13, 190183, Note_off_c, 12, 53, 64
13, 190315, Note_on_c, 12, 57, 127
13, 190315, Note_on_c, 12, 60, 127
13, 190317, Note_on_c, 12, 45, 127
13, 190317, Note_on_c, 12, 65, 127
13, 190458, Note_off_c, 12, 45, 64
13, 190555, Note_on_c, 12, 48, 127
13, 190632, Note_off_c, 12, 60, 64
13, 190632, Note_off_c, 12, 65, 64
13, 190640, Note_off_c, 12, 57, 64
13, 190656, Note_off_c, 12, 48, 64
13, 190791, Note_on_c, 12, 53, 127
13, 190791, Note_on_c, 12, 57, 127
13, 190791, Note_on_c, 12, 60, 127
13, 190792, Note_on_c, 12, 65, 127
13, 190842, Note_off_c, 12, 57, 64
13, 190851, Note_off_c, 12, 60, 64
13, 190864, Note_off_c, 12, 65, 64
13, 190918, Note_off_c, 12, 53, 64
13, 191040, Note_on_c, 12, 46, 127
13, 191040, Note_on_c, 12, 58, 127
13, 191040, Note_on_c, 12, 61, 127
13, 191041, Note_on_c, 12, 65, 127
13, 191131, Note_off_c, 12, 46, 64
13, 191158, Note_on_c, 12, 45, 127
13, 191216, Note_off_c, 12, 45, 64
13, 191276, Note_on_c, 12, 46, 127
13, 191357, Note_off_c, 12, 46, 64
13, 191393, Note_on_c, 12, 48, 127
13, 191461, Note_off_c, 12, 48, 64
13, 191509, Note_on_c, 12, 49, 127
13, 191593, Note_off_c, 12, 49, 64
13, 191598, Note_off_c, 12, 61, 64
13, 191604, Note_off_c, 12, 58, 64
13, 191628, Note_off_c, 12, 65, 64
13, 191629, Note_on_c, 12, 51, 127
13, 191707, Note_off_c, 12, 51, 64
13, 191712, Note_on_c, 12, 57, 127
13, 191738, Note_on_c, 12, 60, 127
13, 191753, Note_on_c, 12, 53, 127
13, 191756, Note_on_c, 12, 65, 127
13, 191854, Note_off_c, 12, 53, 64
13, 191870, Note_on_c, 12, 54, 127
13, 191960, Note_off_c, 12, 54, 64
13, 191989, Note_on_c, 12, 53, 127
13, 192058, Note_off_c, 12, 53, 64
13, 192108, Note_on_c, 12, 51, 127
13, 192184, Note_off_c, 12, 51, 64
13, 192225, Note_on_c, 12, 49, 127
13, 192316, Note_off_c, 12, 49, 64
13, 192324, Note_off_c, 12, 60, 64
13, 192324, Note_off_c, 12, 65, 64
13, 192334, Note_off_c, 12, 57, 64
13, 192346, Note_on_c, 12, 48, 127
13, 192433, Note_off_c, 12, 48, 64
13, 192461, Note_on_c, 12, 58, 127
13, 192469, Note_on_c, 12, 61, 127
13, 192473, Note_on_c, 12, 46, 127
13, 192493, Note_on_c, 12, 65, 127
13, 192575, Note_off_c, 12, 46, 64
13, 192589, Note_on_c, 12, 45, 127
13, 192664, Note_off_c, 12, 45, 64
13, 192707, Note_on_c, 12, 46, 127
13, 192798, Note_off_c, 12, 46, 64
13, 192830, Note_on_c, 12, 48, 127
13, 192903, Note_off_c, 12, 48, 64
13, 192949, Note_on_c, 12, 49, 127
13, 193023, Note_off_c, 12, 61, 64
13, 193026, Note_off_c, 12, 58, 64
13, 193031, Note_off_c, 12, 65, 64
13, 193036, Note_off_c, 12, 49, 64
13, 193067, Note_on_c, 12, 46, 127
13, 193148, Note_off_c, 12, 46, 64
13, 193188, Note_on_c, 12, 63, 127
13, 193188, Note_on_c, 12, 58, 127
13, 193188, Note_on_c, 12, 66, 127
13, 193195, Note_on_c, 12, 51, 127
13, 193305, Note_off_c, 12, 51, 64
13, 193313, Note_on_c, 12, 53, 127
13, 193386, Note_off_c, 12, 53, 64
13, 193432, Note_on_c, 12, 51, 127
13, 193519, Note_off_c, 12, 51, 64
13, 193548, Note_on_c, 12, 49, 127
13, 193640, Note_off_c, 12, 49, 64
13, 193670, Note_on_c, 12, 48, 127
13, 193740, Note_off_c, 12, 48, 64
13, 193783, Note_off_c, 12, 63, 64
13, 193783, Note_off_c, 12, 58, 64
13, 193783, Note_off_c, 12, 66, 64
13, 193789, Note_on_c, 12, 46, 127
13, 193870, Note_off_c, 12, 46, 64
13, 193913, Note_on_c, 12, 44, 127
13, 193913, Note_on_c, 12, 63, 127
13, 193913, Note_on_c, 12, 60, 127
13, 193913, Note_on_c, 12, 66, 127
13, 194021, Note_off_c, 12, 44, 64
13, 194033, Note_on_c, 12, 43, 127
13, 194105, Note_off_c, 12, 43, 64
13, 194152, Note_on_c, 12, 44, 127
13, 194228, Note_off_c, 12, 44, 64
13, 194268, Note_on_c, 12, 46, 127
13, 194353, Note_off_c, 12, 46, 64
13, 194392, Note_on_c, 12, 48, 127
13, 194477, Note_off_c, 12, 48, 64
13, 194508, Note_on_c, 12, 44, 127
13, 194543, Note_off_c, 12, 63, 64
13, 194543, Note_off_c, 12, 60, 64
13, 194543, Note_off_c, 12, 66, 64
13, 194592, Note_off_c, 12, 44, 64
13, 194636, Note_on_c, 12, 49, 127
13, 194636, Note_on_c, 12, 60, 127
13, 194636, Note_on_c, 12, 56, 127
13, 194636, Note_on_c, 12, 65, 127
13, 194738, Note_off_c, 12, 49, 64
13, 194752, Note_on_c, 12, 51, 127
13, 194848, Note_off_c, 12, 51, 64
13, 194872, Note_on_c, 12, 49, 127
13, 194964, Note_off_c, 12, 49, 64
13, 194989, Note_on_c, 12, 48, 127
13, 195061, Note_off_c, 12, 48, 64
13, 195112, Note_on_c, 12, 46, 127
13, 195196, Note_off_c, 12, 46, 64
13, 195225, Note_on_c, 12, 44, 127
13, 195231, Note_off_c, 12, 60, 64
13, 195231, Note_off_c, 12, 56, 64
13, 195231, Note_off_c, 12, 65, 64
13, 195310, Note_off_c, 12, 44, 64
13, 195352, Note_on_c, 12, 42, 127
13, 195354, Note_on_c, 12, 61, 127
13, 195354, Note_on_c, 12, 58, 127
13, 195354, Note_on_c, 12, 65, 127
13, 195468, Note_on_c, 12, 41, 127
13, 195478, Note_off_c, 12, 42, 64
13, 195540, Note_off_c, 12, 41, 64
13, 195585, Note_on_c, 12, 42, 127
13, 195676, Note_off_c, 12, 42, 64
13, 195708, Note_on_c, 12, 44, 127
13, 195796, Note_off_c, 12, 44, 64
13, 195827, Note_on_c, 12, 46, 127
13, 195914, Note_off_c, 12, 46, 64
13, 195944, Note_on_c, 12, 42, 127
13, 195975, Note_off_c, 12, 61, 64
13, 195975, Note_off_c, 12, 58, 64
13, 195975, Note_off_c, 12, 65, 64
13, 196053, Note_off_c, 12, 42, 64
13, 196071, Note_on_c, 12, 48, 127
13, 196074, Note_on_c, 12, 58, 127
13, 196074, Note_on_c, 12, 54, 127
13, 196074, Note_on_c, 12, 63, 127
13, 196181, Note_off_c, 12, 48, 64
13, 196192, Note_on_c, 12, 49, 127
13, 196277, Note_off_c, 12, 49, 64
13, 196309, Note_on_c, 12, 48, 127
13, 196402, Note_off_c, 12, 48, 64
13, 196428, Note_on_c, 12, 46, 127
13, 196521, Note_off_c, 12, 46, 64
13, 196547, Note_on_c, 12, 45, 127
13, 196617, Note_off_c, 12, 58, 64
13, 196617, Note_off_c, 12, 54, 64
13, 196617, Note_off_c, 12, 63, 64
13, 196620, Note_off_c, 12, 45, 64
13, 196663, Note_on_c, 12, 43, 127
13, 196759, Note_off_c, 12, 43, 64
13, 196800, Note_on_c, 12, 41, 127
13, 196800, Note_on_c, 12, 60, 127
13, 196801, Note_on_c, 12, 63, 127
13, 196917, Note_off_c, 12, 41, 64
13, 197034, Note_on_c, 12, 41, 127
13, 197098, Note_off_c, 12, 60, 64
13, 197099, Note_off_c, 12, 63, 64
13, 197142, Note_off_c, 12, 41, 64
13, 197271, Note_on_c, 12, 41, 127
13, 197281, Note_on_c, 12, 60, 127
13, 197281, Note_on_c, 12, 63, 127
13, 197330, Note_off_c, 12, 60, 64
13, 197332, Note_off_c, 12, 63, 64
13, 197383, Note_off_c, 12, 41, 64
13, 197508, Note_on_c, 12, 41, 127
13, 197518, Note_on_c, 12, 58, 127
13, 197518, Note_on_c, 12, 61, 127
13, 197663, Note_off_c, 12, 41, 64
13, 197752, Note_on_c, 12, 41, 127
13, 197800, Note_off_c, 12, 58, 64
13, 197803, Note_off_c, 12, 61, 64
13, 197882, Note_off_c, 12, 41, 64
13, 197991, Note_on_c, 12, 41, 127
13, 197998, Note_on_c, 12, 61, 127
13, 197998, Note_on_c, 12, 58, 127
13, 198050, Note_off_c, 12, 58, 64
13, 198061, Note_off_c, 12, 61, 64
13, 198127, Note_off_c, 12, 41, 64
13, 198231, Note_on_c, 12, 41, 127
13, 198240, Note_on_c, 12, 60, 127
13, 198240, Note_on_c, 12, 57, 127
13, 198351, Note_off_c, 12, 41, 64
13, 198472, Note_on_c, 12, 41, 127
13, 198528, Note_off_c, 12, 60, 64
13, 198528, Note_off_c, 12, 57, 64
13, 198584, Note_off_c, 12, 41, 64
13, 198711, Note_on_c, 12, 41, 127
13, 198721, Note_on_c, 12, 57, 127
13, 198721, Note_on_c, 12, 60, 127
13, 198767, Note_off_c, 12, 57, 64
13, 198773, Note_off_c, 12, 60, 64
13, 198817, Note_off_c, 12, 41, 64
13, 198949, Note_on_c, 12, 41, 127
13, 198960, Note_on_c, 12, 61, 127
13, 198960, Note_on_c, 12, 58, 127
13, 199075, Note_off_c, 12, 41, 64
13, 199190, Note_on_c, 12, 41, 127
13, 199240, Note_off_c, 12, 58, 64
13, 199244, Note_off_c, 12, 61, 64
13, 199299, Note_off_c, 12, 41, 64
13, 199431, Note_on_c, 12, 41, 127
13, 199437, Note_on_c, 12, 58, 127
13, 199437, Note_on_c, 12, 61, 127
13, 199491, Note_off_c, 12, 58, 64
13, 199498, Note_off_c, 12, 61, 64
13, 199534, Note_off_c, 12, 41, 64
13, 199675, Note_on_c, 12, 41, 127
13, 199676, Note_on_c, 12, 60, 127
13, 199676, Note_on_c, 12, 63, 127
13, 199801, Note_off_c, 12, 41, 64
13, 199916, Note_on_c, 12, 41, 127
13, 199973, Note_off_c, 12, 60, 64
13, 199977, Note_off_c, 12, 63, 64
13, 200015, Note_off_c, 12, 41, 64
13, 200154, Note_on_c, 12, 41, 127
13, 200160, Note_on_c, 12, 60, 127
13, 200160, Note_on_c, 12, 63, 127
13, 200221, Note_off_c, 12, 60, 64
13, 200228, Note_off_c, 12, 63, 64
13, 200259, Note_off_c, 12, 41, 64
13, 200397, Note_on_c, 12, 41, 127
13, 200401, Note_on_c, 12, 61, 127
13, 200402, Note_on_c, 12, 58, 127
13, 200528, Note_off_c, 12, 41, 64
13, 200637, Note_on_c, 12, 41, 127
13, 200682, Note_off_c, 12, 58, 64
13, 200688, Note_off_c, 12, 61, 64
13, 200738, Note_off_c, 12, 41, 64
13, 200877, Note_on_c, 12, 41, 127
13, 200881, Note_on_c, 12, 61, 127
13, 200881, Note_on_c, 12, 58, 127
13, 200931, Note_off_c, 12, 58, 64
13, 200937, Note_off_c, 12, 61, 64
13, 200985, Note_off_c, 12, 41, 64
13, 201118, Note_on_c, 12, 57, 127
13, 201119, Note_on_c, 12, 41, 127
13, 201120, Note_on_c, 12, 60, 127
13, 201246, Note_off_c, 12, 41, 64
13, 201357, Note_on_c, 12, 41, 127
13, 201423, Note_off_c, 12, 57, 64
13, 201428, Note_off_c, 12, 60, 64
13, 201467, Note_off_c, 12, 41, 64
13, 201598, Note_on_c, 12, 41, 127
13, 201601, Note_on_c, 12, 60, 127
13, 201603, Note_on_c, 12, 57, 127
13, 201652, Note_off_c, 12, 57, 64
13, 201655, Note_off_c, 12, 60, 64
13, 201706, Note_off_c, 12, 41, 64
13, 201839, Note_on_c, 12, 41, 127
13, 201840, Note_on_c, 12, 58, 127
13, 201840, Note_on_c, 12, 61, 127
13, 201966, Note_off_c, 12, 41, 64
13, 202078, Note_on_c, 12, 41, 127
13, 202129, Note_off_c, 12, 58, 64
13, 202131, Note_off_c, 12, 61, 64
13, 202183, Note_off_c, 12, 41, 64
13, 202314, Note_on_c, 12, 41, 127
13, 202317, Note_on_c, 12, 58, 127
13, 202320, Note_on_c, 12, 61, 127
13, 202376, Note_off_c, 12, 58, 64
13, 202381, Note_off_c, 12, 61, 64
13, 202420, Note_off_c, 12, 41, 64
13, 202557, Note_on_c, 12, 41, 127
13, 202557, Note_on_c, 12, 60, 127
13, 202684, Note_off_c, 12, 60, 64
13, 202689, Note_on_c, 12, 65, 127
13, 202704, Note_off_c, 12, 41, 64
13, 202797, Note_on_c, 12, 45, 127
13, 202801, Note_on_c, 12, 63, 127
13, 202829, Note_off_c, 12, 65, 64
13, 202919, Note_off_c, 12, 45, 64
13, 202921, Note_on_c, 12, 61, 127
13, 202933, Note_off_c, 12, 63, 64
13, 203031, Note_on_c, 12, 60, 127
13, 203032, Note_on_c, 12, 48, 127
13, 203054, Note_off_c, 12, 61, 64
13, 203142, Note_on_c, 12, 58, 127
13, 203153, Note_off_c, 12, 60, 64
13, 203160, Note_off_c, 12, 48, 64
13, 203252, Note_off_c, 12, 58, 64
13, 203273, Note_on_c, 12, 45, 127
13, 203276, Note_on_c, 12, 57, 127
13, 203391, Note_on_c, 12, 55, 127
13, 203412, Note_off_c, 12, 57, 64
13, 203422, Note_off_c, 12, 45, 64
13, 203506, Note_on_c, 12, 57, 127
13, 203513, Note_on_c, 12, 48, 127
13, 203538, Note_off_c, 12, 55, 64
13, 203618, Note_off_c, 12, 48, 64
13, 203619, Note_on_c, 12, 58, 127
13, 203623, Note_off_c, 12, 57, 64
13, 203730, Note_on_c, 12, 60, 127
13, 203747, Note_on_c, 12, 53, 127
13, 203754, Note_off_c, 12, 58, 64
13, 203826, Note_off_c, 12, 60, 64
13, 203856, Note_on_c, 12, 57, 127
13, 203878, Note_off_c, 12, 53, 64
13, 203958, Note_off_c, 12, 57, 64
13, 203990, Note_on_c, 12, 58, 127
13, 203994, Note_on_c, 12, 46, 127
13, 204006, Note_on_c, 12, 62, 127
13, 204033, Note_on_c, 12, 65, 127
13, 204062, Note_on_c, 12, 68, 127
13, 204130, Note_off_c, 12, 46, 64
13, 204233, Note_on_c, 12, 50, 127
13, 204349, Note_off_c, 12, 50, 64
13, 204470, Note_on_c, 12, 53, 127
13, 204555, Note_off_c, 12, 65, 64
13, 204555, Note_off_c, 12, 68, 64
13, 204561, Note_off_c, 12, 62, 64
13, 204562, Note_off_c, 12, 58, 64
13, 204602, Note_off_c, 12, 53, 64
13, 204712, Note_on_c, 12, 50, 127
13, 204855, Note_off_c, 12, 50, 64
13, 204952, Note_on_c, 12, 53, 127
13, 205058, Note_off_c, 12, 53, 64
13, 205189, Note_on_c, 12, 58, 127
13, 205307, Note_off_c, 12, 58, 64
13, 205430, Note_on_c, 12, 63, 127
13, 205440, Note_on_c, 12, 39, 127
13, 205461, Note_on_c, 12, 66, 127
13, 205495, Note_on_c, 12, 70, 127
13, 205697, Note_off_c, 12, 39, 64
13, 206012, Note_off_c, 12, 66, 64
13, 206013, Note_off_c, 12, 70, 64
13, 206019, Note_off_c, 12, 63, 64
13, 206808, Note_on_c, 12, 60, 127
13, 206863, Note_on_c, 12, 63, 127
13, 206874, Note_on_c, 12, 51, 127
13, 206915, Note_on_c, 12, 65, 127
13, 206955, Note_on_c, 12, 69, 127
13, 207191, Note_off_c, 12, 51, 64
13, 207423, Note_off_c, 12, 65, 64
13, 207424, Note_off_c, 12, 63, 64
13, 207427, Note_off_c, 12, 60, 64
13, 207473, Note_off_c, 12, 69, 64
13, 208319, Note_on_c, 12, 49, 127
13, 208319, Note_on_c, 12, 65, 127
13, 208319, Note_on_c, 12, 61, 127
13, 208319, Note_on_c, 12, 70, 127
13, 208461, Note_off_c, 12, 49, 64
13, 208559, Note_on_c, 12, 48, 127
13, 208607, Note_off_c, 12, 65, 64
13, 208607, Note_off_c, 12, 61, 64
13, 208617, Note_off_c, 12, 70, 64
13, 208644, Note_off_c, 12, 48, 64
13, 208788, Note_on_c, 12, 70, 127
13, 208788, Note_on_c, 12, 65, 127
13, 208788, Note_on_c, 12, 61, 127
13, 208795, Note_on_c, 12, 46, 127
13, 208840, Note_off_c, 12, 65, 64
13, 208840, Note_off_c, 12, 61, 64
13, 208851, Note_off_c, 12, 70, 64
13, 208893, Note_off_c, 12, 46, 64
13, 209031, Note_on_c, 12, 65, 127
13, 209031, Note_on_c, 12, 60, 127
13, 209032, Note_on_c, 12, 70, 127
13, 209039, Note_on_c, 12, 53, 127
13, 209333, Note_off_c, 12, 53, 64
13, 209342, Note_off_c, 12, 65, 64
13, 209342, Note_off_c, 12, 60, 64
13, 209344, Note_off_c, 12, 70, 64
13, 209515, Note_on_c, 12, 41, 127
13, 209516, Note_on_c, 12, 65, 127
13, 209516, Note_on_c, 12, 60, 127
13, 209517, Note_on_c, 12, 69, 127
13, 209565, Note_off_c, 12, 65, 64
13, 209565, Note_off_c, 12, 60, 64
13, 209568, Note_off_c, 12, 69, 64
13, 209599, Note_off_c, 12, 41, 64
13, 209756, Note_on_c, 12, 46, 127
13, 209759, Note_on_c, 12, 70, 127
13, 209759, Note_on_c, 12, 65, 127
13, 209759, Note_on_c, 12, 61, 127
13, 209870, Note_on_c, 12, 63, 127
13, 209892, Note_off_c, 12, 61, 64
13, 209943, Note_off_c, 12, 46, 64
13, 209993, Note_on_c, 12, 61, 127
13, 209997, Note_on_c, 12, 49, 127
13, 210000, Note_off_c, 12, 63, 64
13, 210087, Note_off_c, 12, 49, 64
13, 210103, Note_on_c, 12, 60, 127
13, 210107, Note_off_c, 12, 61, 64
13, 210133, Note_off_c, 12, 65, 64
13, 210147, Note_off_c, 12, 70, 64
13, 210207, Note_off_c, 12, 60, 64
13, 210226, Note_on_c, 12, 58, 127
13, 210235, Note_on_c, 12, 53, 127
13, 210344, Note_off_c, 12, 53, 64
13, 210349, Note_off_c, 12, 58, 64
13, 210350, Note_on_c, 12, 57, 127
13, 210442, Note_off_c, 12, 57, 64
13, 210476, Note_on_c, 12, 58, 127
13, 210719, Note_on_c, 12, 56, 127
13, 210720, Note_on_c, 12, 65, 127
13, 210720, Note_on_c, 12, 61, 127
13, 210722, Note_on_c, 12, 70, 127
13, 210736, Note_off_c, 12, 58, 64
13, 210820, Note_off_c, 12, 56, 64
13, 210835, Note_on_c, 12, 54, 127
13, 210850, Note_off_c, 12, 61, 64
13, 210853, Note_off_c, 12, 65, 64
13, 210868, Note_off_c, 12, 70, 64
13, 210916, Note_off_c, 12, 54, 64
13, 210953, Note_on_c, 12, 53, 127
13, 211029, Note_off_c, 12, 53, 64
13, 211071, Note_on_c, 12, 51, 127
13, 211155, Note_off_c, 12, 51, 64
13, 211200, Note_on_c, 12, 50, 127
13, 211200, Note_on_c, 12, 68, 127
13, 211200, Note_on_c, 12, 65, 127
13, 211362, Note_off_c, 12, 50, 64
13, 211436, Note_on_c, 12, 53, 127
13, 211508, Note_off_c, 12, 68, 64
13, 211508, Note_off_c, 12, 65, 64
13, 211512, Note_off_c, 12, 53, 64
13, 211671, Note_on_c, 12, 58, 127
13, 211679, Note_on_c, 12, 68, 127
13, 211679, Note_on_c, 12, 65, 127
13, 211727, Note_off_c, 12, 68, 64
13, 211727, Note_off_c, 12, 65, 64
13, 211764, Note_off_c, 12, 58, 64
13, 211915, Note_on_c, 12, 46, 127
13, 211919, Note_on_c, 12, 68, 127
13, 211919, Note_on_c, 12, 65, 127
13, 212058, Note_off_c, 12, 46, 64
13, 212154, Note_on_c, 12, 53, 127
13, 212207, Note_off_c, 12, 68, 64
13, 212207, Note_off_c, 12, 65, 64
13, 212228, Note_off_c, 12, 53, 64
13, 212393, Note_on_c, 12, 58, 127
13, 212396, Note_on_c, 12, 68, 127
13, 212396, Note_on_c, 12, 65, 127
13, 212433, Note_off_c, 12, 68, 64
13, 212433, Note_off_c, 12, 65, 64
13, 212481, Note_off_c, 12, 58, 64
13, 212634, Note_on_c, 12, 51, 127
13, 212640, Note_on_c, 12, 68, 127
13, 212640, Note_on_c, 12, 65, 127
13, 212783, Note_off_c, 12, 51, 64
13, 212873, Note_on_c, 12, 54, 127
13, 212878, Note_on_c, 12, 66, 127
13, 212878, Note_on_c, 12, 63, 127
13, 212879, Note_off_c, 12, 68, 64
13, 212879, Note_off_c, 12, 65, 64
13, 212927, Note_off_c, 12, 66, 64
13, 212927, Note_off_c, 12, 63, 64
13, 212964, Note_off_c, 12, 54, 64
13, 213111, Note_on_c, 12, 58, 127
13, 213120, Note_on_c, 12, 65, 127
13, 213120, Note_on_c, 12, 62, 127
13, 213164, Note_off_c, 12, 65, 64
13, 213164, Note_off_c, 12, 62, 64
13, 213210, Note_off_c, 12, 58, 64
13, 213358, Note_on_c, 12, 66, 127
13, 213358, Note_on_c, 12, 63, 127
13, 213597, Note_on_c, 12, 61, 127
13, 213636, Note_off_c, 12, 63, 64
13, 213672, Note_off_c, 12, 66, 64
13, 213687, Note_off_c, 12, 61, 64
13, 213713, Note_on_c, 12, 59, 127
13, 213811, Note_off_c, 12, 59, 64
13, 213828, Note_on_c, 12, 58, 127
13, 213912, Note_off_c, 12, 58, 64
13, 213947, Note_on_c, 12, 56, 127
13, 214029, Note_off_c, 12, 56, 64
13, 214070, Note_on_c, 12, 55, 127
13, 214070, Note_on_c, 12, 61, 127
13, 214079, Note_on_c, 12, 63, 127
13, 214104, Note_on_c, 12, 70, 127
13, 214213, Note_off_c, 12, 55, 64
13, 214313, Note_on_c, 12, 58, 127
13, 214411, Note_off_c, 12, 58, 64
13, 214423, Note_off_c, 12, 61, 64
13, 214428, Note_off_c, 12, 63, 64
13, 214429, Note_off_c, 12, 70, 64
13, 214552, Note_on_c, 12, 63, 127
13, 214657, Note_off_c, 12, 63, 64
13, 214795, Note_on_c, 12, 70, 127
13, 214795, Note_on_c, 12, 67, 127
13, 214795, Note_on_c, 12, 63, 127
13, 214797, Note_on_c, 12, 51, 127
13, 214948, Note_off_c, 12, 51, 64
13, 215042, Note_on_c, 12, 58, 127
13, 215093, Note_off_c, 12, 70, 64
13, 215093, Note_off_c, 12, 67, 64
13, 215093, Note_off_c, 12, 63, 64
13, 215138, Note_off_c, 12, 58, 64
13, 215279, Note_on_c, 12, 63, 127
13, 215382, Note_off_c, 12, 63, 64
13, 215519, Note_on_c, 12, 44, 127
13, 215524, Note_on_c, 12, 70, 127
13, 215524, Note_on_c, 12, 67, 127
13, 215672, Note_off_c, 12, 44, 64
13, 215755, Note_off_c, 12, 70, 64
13, 215755, Note_off_c, 12, 67, 64
13, 215759, Note_on_c, 12, 47, 127
13, 215764, Note_on_c, 12, 68, 127
13, 215764, Note_on_c, 12, 63, 127
13, 215830, Note_off_c, 12, 68, 64
13, 215830, Note_off_c, 12, 63, 64
13, 215869, Note_off_c, 12, 47, 64
13, 215995, Note_on_c, 12, 67, 127
13, 215995, Note_on_c, 12, 61, 127
13, 215997, Note_on_c, 12, 51, 127
13, 216051, Note_off_c, 12, 67, 64
13, 216051, Note_off_c, 12, 61, 64
13, 216098, Note_off_c, 12, 51, 64
13, 216239, Note_on_c, 12, 56, 127
13, 216239, Note_on_c, 12, 68, 127
13, 216239, Note_on_c, 12, 63, 127
13, 216239, Note_on_c, 12, 59, 127
13, 216350, Note_on_c, 12, 58, 127
13, 216361, Note_off_c, 12, 56, 64
13, 216444, Note_off_c, 12, 58, 64
13, 216470, Note_on_c, 12, 56, 127
13, 216527, Note_off_c, 12, 68, 64
13, 216527, Note_off_c, 12, 63, 64
13, 216527, Note_off_c, 12, 59, 64
13, 216571, Note_off_c, 12, 56, 64
13, 216589, Note_on_c, 12, 54, 127
13, 216679, Note_off_c, 12, 54, 64
13, 216711, Note_on_c, 12, 52, 127
13, 216798, Note_off_c, 12, 52, 64
13, 216829, Note_on_c, 12, 51, 127
13, 216911, Note_off_c, 12, 51, 64
13, 216957, Note_on_c, 12, 49, 127
13, 216957, Note_on_c, 12, 71, 127
13, 216957, Note_on_c, 12, 68, 127
13, 216957, Note_on_c, 12, 64, 127
13, 217127, Note_off_c, 12, 49, 64
13, 217197, Note_on_c, 12, 56, 127
13, 217261, Note_off_c, 12, 71, 64
13, 217261, Note_off_c, 12, 68, 64
13, 217261, Note_off_c, 12, 64, 64
13, 217306, Note_off_c, 12, 56, 64
13, 217434, Note_on_c, 12, 61, 127
13, 217536, Note_off_c, 12, 61, 64
13, 217671, Note_on_c, 12, 70, 127
13, 217671, Note_on_c, 12, 66, 127
13, 217671, Note_on_c, 12, 61, 127
13, 217674, Note_on_c, 12, 54, 127
13, 217859, Note_off_c, 12, 54, 64
13, 217919, Note_on_c, 12, 49, 127
13, 217955, Note_off_c, 12, 70, 64
13, 217955, Note_off_c, 12, 66, 64
13, 217955, Note_off_c, 12, 61, 64
13, 218028, Note_off_c, 12, 49, 64
13, 218160, Note_on_c, 12, 42, 127
13, 218248, Note_off_c, 12, 42, 64
13, 218385, Note_on_c, 12, 70, 127
13, 218385, Note_on_c, 12, 66, 127
13, 218385, Note_on_c, 12, 63, 127
13, 218401, Note_on_c, 12, 47, 127
13, 218599, Note_off_c, 12, 47, 64
13, 218642, Note_on_c, 12, 54, 127
13, 218687, Note_off_c, 12, 70, 64
13, 218687, Note_off_c, 12, 66, 64
13, 218687, Note_off_c, 12, 63, 64
13, 218735, Note_off_c, 12, 54, 64
13, 218875, Note_on_c, 12, 59, 127
13, 218972, Note_off_c, 12, 59, 64
13, 219112, Note_on_c, 12, 68, 127
13, 219112, Note_on_c, 12, 63, 127
13, 219112, Note_on_c, 12, 59, 127
13, 219114, Note_on_c, 12, 52, 127
13, 219292, Note_off_c, 12, 52, 64
13, 219359, Note_on_c, 12, 47, 127
13, 219386, Note_off_c, 12, 68, 64
13, 219386, Note_off_c, 12, 63, 64
13, 219386, Note_off_c, 12, 59, 64
13, 219456, Note_off_c, 12, 47, 64
13, 219598, Note_on_c, 12, 40, 127
13, 219695, Note_off_c, 12, 40, 64
13, 219840, Note_on_c, 12, 52, 127
13, 219840, Note_on_c, 12, 58, 127
13, 219841, Note_on_c, 12, 61, 127
13, 219841, Note_on_c, 12, 66, 127
13, 220052, Note_off_c, 12, 52, 64
13, 220361, Note_off_c, 12, 66, 64
13, 220383, Note_off_c, 12, 58, 64
13, 220398, Note_off_c, 12, 61, 64
13, 220560, Note_on_c, 12, 59, 127
13, 220560, Note_on_c, 12, 63, 127
13, 220560, Note_on_c, 12, 66, 127
13, 220562, Note_on_c, 12, 51, 127
13, 220770, Note_off_c, 12, 51, 64
13, 221145, Note_off_c, 12, 66, 64
13, 221154, Note_off_c, 12, 59, 64
13, 221158, Note_off_c, 12, 63, 64
13, 221249, Note_on_c, 12, 61, 127
13, 221278, Note_on_c, 12, 49, 127
13, 221283, Note_on_c, 12, 64, 127
13, 221300, Note_on_c, 12, 66, 127
13, 221483, Note_off_c, 12, 49, 64
13, 221865, Note_off_c, 12, 66, 64
13, 221867, Note_off_c, 12, 64, 64
13, 221872, Note_off_c, 12, 61, 64
13, 221942, Note_on_c, 12, 59, 127
13, 221977, Note_on_c, 12, 63, 127
13, 221996, Note_on_c, 12, 47, 127
13, 221997, Note_on_c, 12, 66, 127
13, 222186, Note_off_c, 12, 47, 64
13, 222532, Note_off_c, 12, 63, 64
13, 222532, Note_off_c, 12, 66, 64
13, 222538, Note_off_c, 12, 59, 64
13, 222706, Note_on_c, 12, 46, 127
13, 222706, Note_on_c, 12, 61, 127
13, 222706, Note_on_c, 12, 58, 127
13, 222707, Note_on_c, 12, 66, 127
13, 222828, Note_off_c, 12, 46, 64
13, 222946, Note_on_c, 12, 49, 127
13, 222988, Note_off_c, 12, 61, 64
13, 222991, Note_off_c, 12, 58, 64
13, 222994, Note_off_c, 12, 66, 64
13, 223031, Note_off_c, 12, 49, 64
13, 223184, Note_on_c, 12, 58, 127
13, 223184, Note_on_c, 12, 61, 127
13, 223184, Note_on_c, 12, 66, 127
13, 223187, Note_on_c, 12, 54, 127
13, 223226, Note_off_c, 12, 58, 64
13, 223226, Note_off_c, 12, 61, 64
13, 223231, Note_off_c, 12, 66, 64
13, 223288, Note_off_c, 12, 54, 64
13, 223434, Note_on_c, 12, 47, 127
13, 223435, Note_on_c, 12, 59, 127
13, 223435, Note_on_c, 12, 66, 127
13, 223435, Note_on_c, 12, 63, 127
13, 223570, Note_off_c, 12, 47, 64
13, 223674, Note_on_c, 12, 51, 127
13, 223736, Note_off_c, 12, 63, 64
13, 223737, Note_off_c, 12, 59, 64
13, 223741, Note_off_c, 12, 66, 64
13, 223753, Note_off_c, 12, 51, 64
13, 223912, Note_on_c, 12, 54, 127
13, 223916, Note_on_c, 12, 59, 127
13, 223916, Note_on_c, 12, 63, 127
13, 223917, Note_on_c, 12, 66, 127
13, 223958, Note_off_c, 12, 63, 64
13, 223959, Note_off_c, 12, 59, 64
13, 223963, Note_off_c, 12, 66, 64
13, 224009, Note_off_c, 12, 54, 64
13, 224150, Note_on_c, 12, 61, 127
13, 224150, Note_on_c, 12, 66, 127
13, 224151, Note_on_c, 12, 64, 127
13, 224159, Note_on_c, 12, 46, 127
13, 224231, Note_off_c, 12, 46, 64
13, 224278, Note_on_c, 12, 49, 127
13, 224346, Note_off_c, 12, 49, 64
13, 224395, Note_on_c, 12, 42, 127
13, 224440, Note_off_c, 12, 64, 64
13, 224442, Note_off_c, 12, 61, 64
13, 224443, Note_off_c, 12, 66, 64
13, 224460, Note_off_c, 12, 42, 64
13, 224515, Note_on_c, 12, 49, 127
13, 224578, Note_off_c, 12, 49, 64
13, 224632, Note_on_c, 12, 46, 127
13, 224639, Note_on_c, 12, 64, 127
13, 224640, Note_on_c, 12, 66, 127
13, 224640, Note_on_c, 12, 61, 127
13, 224681, Note_off_c, 12, 61, 64
13, 224683, Note_off_c, 12, 64, 64
13, 224686, Note_off_c, 12, 66, 64
13, 224704, Note_off_c, 12, 46, 64
13, 224751, Note_on_c, 12, 49, 127
13, 224816, Note_off_c, 12, 49, 64
13, 224873, Note_on_c, 12, 59, 127
13, 224873, Note_on_c, 12, 63, 127
13, 224874, Note_on_c, 12, 66, 127
13, 224877, Note_on_c, 12, 47, 127
13, 224965, Note_off_c, 12, 47, 64
13, 224997, Note_on_c, 12, 51, 127
13, 225067, Note_off_c, 12, 51, 64
13, 225115, Note_on_c, 12, 42, 127
13, 225149, Note_off_c, 12, 63, 64
13, 225154, Note_off_c, 12, 66, 64
13, 225155, Note_off_c, 12, 59, 64
13, 225184, Note_off_c, 12, 42, 64
13, 225233, Note_on_c, 12, 51, 127
13, 225304, Note_off_c, 12, 51, 64
13, 225354, Note_on_c, 12, 47, 127
13, 225354, Note_on_c, 12, 63, 127
13, 225354, Note_on_c, 12, 59, 127
13, 225355, Note_on_c, 12, 66, 127
13, 225400, Note_off_c, 12, 63, 64
13, 225403, Note_off_c, 12, 59, 64
13, 225406, Note_off_c, 12, 66, 64
13, 225430, Note_off_c, 12, 47, 64
13, 225472, Note_on_c, 12, 51, 127
13, 225537, Note_off_c, 12, 51, 64
13, 225598, Note_on_c, 12, 41, 127
13, 225598, Note_on_c, 12, 59, 127
13, 225634, Note_on_c, 12, 62, 127
13, 225650, Note_on_c, 12, 65, 127
13, 225674, Note_on_c, 12, 68, 127
13, 225723, Note_off_c, 12, 41, 64
13, 225837, Note_on_c, 12, 41, 127
13, 225961, Note_off_c, 12, 41, 64
13, 226077, Note_on_c, 12, 41, 127
13, 226194, Note_off_c, 12, 59, 64
13, 226194, Note_off_c, 12, 68, 64
13, 226197, Note_off_c, 12, 62, 64
13, 226200, Note_off_c, 12, 65, 64
13, 226206, Note_off_c, 12, 41, 64
13, 226317, Note_on_c, 12, 41, 127
13, 226445, Note_off_c, 12, 41, 64
13, 226558, Note_on_c, 12, 41, 127
13, 226661, Note_off_c, 12, 41, 64
13, 226796, Note_on_c, 12, 41, 127
13, 226904, Note_off_c, 12, 41, 64
13, 227012, Note_on_c, 12, 58, 127
13, 227037, Note_on_c, 12, 40, 127
13, 227047, Note_on_c, 12, 61, 127
13, 227080, Note_on_c, 12, 66, 127
13, 227188, Note_off_c, 12, 40, 64
13, 227274, Note_on_c, 12, 40, 127
13, 227384, Note_off_c, 12, 40, 64
13, 227511, Note_on_c, 12, 40, 127
13, 227598, Note_off_c, 12, 66, 64
13, 227605, Note_off_c, 12, 61, 64
13, 227606, Note_off_c, 12, 40, 64
13, 227609, Note_off_c, 12, 58, 64
13, 227753, Note_on_c, 12, 40, 127
13, 227873, Note_off_c, 12, 40, 64
13, 227995, Note_on_c, 12, 40, 127
13, 228069, Note_off_c, 12, 40, 64
13, 228233, Note_on_c, 12, 40, 127
13, 228321, Note_off_c, 12, 40, 64
13, 228478, Note_on_c, 12, 39, 127
13, 228478, Note_on_c, 12, 54, 127
13, 228478, Note_on_c, 12, 59, 127
13, 228741, Note_off_c, 12, 54, 64
13, 228741, Note_off_c, 12, 59, 64
13, 229037, Note_off_c, 12, 39, 64
13, 229201, Note_on_c, 12, 40, 127
13, 229201, Note_on_c, 12, 56, 127
13, 229201, Note_on_c, 12, 59, 127
13, 229444, Note_off_c, 12, 40, 64
13, 229444, Note_off_c, 12, 56, 64
13, 229444, Note_off_c, 12, 59, 64
13, 229914, Note_on_c, 12, 42, 127
13, 229914, Note_on_c, 12, 59, 127
13, 229914, Note_on_c, 12, 51, 127
13, 230208, Note_off_c, 12, 42, 64
13, 230208, Note_off_c, 12, 59, 64
13, 230208, Note_off_c, 12, 51, 64
13, 230633, Note_on_c, 12, 44, 127
13, 230633, Note_on_c, 12, 59, 127
13, 230633, Note_on_c, 12, 52, 127
13, 230883, Note_off_c, 12, 44, 64
13, 230883, Note_off_c, 12, 59, 64
13, 230883, Note_off_c, 12, 52, 64
13, 231362, Note_on_c, 12, 39, 127
13, 231362, Note_on_c, 12, 54, 127
13, 231362, Note_on_c, 12, 59, 127
13, 231640, Note_off_c, 12, 39, 64
13, 231640, Note_off_c, 12, 54, 64
13, 231640, Note_off_c, 12, 59, 64
13, 232077, Note_on_c, 12, 40, 127
13, 232077, Note_on_c, 12, 56, 127
13, 232077, Note_on_c, 12, 59, 127
13, 232393, Note_off_c, 12, 40, 64
13, 232393, Note_off_c, 12, 56, 64
13, 232393, Note_off_c, 12, 59, 64
13, 232797, Note_on_c, 12, 42, 127
13, 232797, Note_on_c, 12, 59, 127
13, 232797, Note_on_c, 12, 54, 127
13, 232957, Note_off_c, 12, 42, 64
13, 233042, Note_on_c, 12, 40, 127
13, 233042, Note_on_c, 12, 63, 127
13, 233042, Note_on_c, 12, 59, 127
13, 233109, Note_off_c, 12, 59, 64
13, 233109, Note_off_c, 12, 54, 64
13, 233111, Note_off_c, 12, 63, 64
13, 233111, Note_off_c, 12, 59, 64
13, 233182, Note_off_c, 12, 40, 64
13, 233281, Note_on_c, 12, 42, 127
13, 233284, Note_on_c, 12, 58, 127
13, 233284, Note_on_c, 12, 61, 127
13, 233332, Note_off_c, 12, 58, 64
13, 233332, Note_off_c, 12, 61, 64
13, 233421, Note_off_c, 12, 42, 64
13, 233519, Note_on_c, 12, 59, 127
13, 233519, Note_on_c, 12, 63, 127
13, 233525, Note_on_c, 12, 35, 127
13, 233805, Note_off_c, 12, 59, 64
13, 233805, Note_off_c, 12, 63, 64
13, 233884, Note_off_c, 12, 35, 64
13, 233989, Note_on_c, 12, 37, 127
13, 234115, Note_off_c, 12, 37, 64
13, 234235, Note_on_c, 12, 39, 127
13, 234240, Note_on_c, 12, 59, 127
13, 234240, Note_on_c, 12, 63, 127
13, 234242, Note_on_c, 12, 66, 127
13, 234387, Note_off_c, 12, 39, 64
13, 234477, Note_on_c, 12, 37, 127
13, 234546, Note_off_c, 12, 63, 64
13, 234550, Note_off_c, 12, 66, 64
13, 234551, Note_off_c, 12, 59, 64
13, 234618, Note_off_c, 12, 37, 64
13, 234720, Note_on_c, 12, 35, 127
13, 234723, Note_on_c, 12, 63, 127
13, 234723, Note_on_c, 12, 59, 127
13, 234723, Note_on_c, 12, 66, 127
13, 234761, Note_off_c, 12, 63, 64
13, 234766, Note_off_c, 12, 59, 64
13, 234769, Note_off_c, 12, 66, 64
13, 234836, Note_off_c, 12, 35, 64
13, 234948, Note_on_c, 12, 58, 127
13, 234962, Note_on_c, 12, 42, 127
13, 234975, Note_on_c, 12, 61, 127
13, 235001, Note_on_c, 12, 66, 127
13, 235095, Note_off_c, 12, 42, 64
13, 235201, Note_on_c, 12, 44, 127
13, 235326, Note_off_c, 12, 44, 64
13, 235347, Note_off_c, 12, 66, 64
13, 235348, Note_off_c, 12, 61, 64
13, 235353, Note_off_c, 12, 58, 64
13, 235438, Note_on_c, 12, 46, 127
13, 235442, Note_on_c, 12, 58, 127
13, 235442, Note_on_c, 12, 61, 127
13, 235442, Note_on_c, 12, 66, 127
13, 235486, Note_off_c, 12, 61, 64
13, 235489, Note_off_c, 12, 58, 64
13, 235496, Note_off_c, 12, 66, 64
13, 235564, Note_off_c, 12, 46, 64
13, 235677, Note_on_c, 12, 47, 127
13, 235682, Note_on_c, 12, 59, 127
13, 235682, Note_on_c, 12, 63, 127
13, 235682, Note_on_c, 12, 66, 127
13, 235936, Note_off_c, 12, 47, 64
13, 236000, Note_off_c, 12, 63, 64
13, 236002, Note_off_c, 12, 59, 64
13, 236010, Note_off_c, 12, 66, 64
13, 236396, Note_on_c, 12, 54, 127
13, 236396, Note_on_c, 12, 61, 127
13, 236396, Note_on_c, 12, 66, 127
13, 236396, Note_on_c, 12, 58, 127
13, 236700, Note_off_c, 12, 61, 64
13, 236702, Note_off_c, 12, 54, 64
13, 236702, Note_off_c, 12, 58, 64
13, 236709, Note_off_c, 12, 66, 64
13, 237118, Note_on_c, 12, 47, 127
13, 237119, Note_on_c, 12, 63, 127
13, 237119, Note_on_c, 12, 66, 127
13, 237120, Note_on_c, 12, 59, 127
13, 237396, Note_off_c, 12, 47, 64
13, 237403, Note_off_c, 12, 63, 64
13, 237406, Note_off_c, 12, 59, 64
13, 237407, Note_off_c, 12, 66, 64
13, 237836, Note_on_c, 12, 66, 127
13, 237837, Note_on_c, 12, 61, 127
13, 237838, Note_on_c, 12, 58, 127
13, 237840, Note_on_c, 12, 42, 127
13, 238110, Note_off_c, 12, 42, 64
13, 238129, Note_off_c, 12, 61, 64
13, 238132, Note_off_c, 12, 58, 64
13, 238135, Note_off_c, 12, 66, 64
13, 238560, Note_on_c, 12, 47, 127
13, 238561, Note_on_c, 12, 63, 127
13, 238561, Note_on_c, 12, 66, 127
13, 238562, Note_on_c, 12, 59, 127
13, 238681, Note_on_c, 12, 46, 127
13, 238688, Note_off_c, 12, 47, 64
13, 238766, Note_off_c, 12, 46, 64
13, 238795, Note_on_c, 12, 47, 127
13, 238885, Note_off_c, 12, 47, 64
13, 238907, Note_off_c, 12, 63, 64
13, 238909, Note_off_c, 12, 59, 64
13, 238911, Note_on_c, 12, 49, 127
13, 238914, Note_off_c, 12, 66, 64
13, 239002, Note_off_c, 12, 49, 64
13, 239028, Note_on_c, 12, 63, 127
13, 239028, Note_on_c, 12, 59, 127
13, 239029, Note_on_c, 12, 66, 127
13, 239030, Note_on_c, 12, 51, 127
13, 239079, Note_off_c, 12, 63, 64
13, 239079, Note_off_c, 12, 59, 64
13, 239089, Note_off_c, 12, 66, 64
13, 239143, Note_off_c, 12, 51, 64
13, 239154, Note_on_c, 12, 52, 127
13, 239243, Note_off_c, 12, 52, 64
13, 239260, Note_on_c, 12, 66, 127
13, 239260, Note_on_c, 12, 61, 127
13, 239261, Note_on_c, 12, 58, 127
13, 239273, Note_on_c, 12, 54, 127
13, 239387, Note_on_c, 12, 56, 127
13, 239399, Note_off_c, 12, 54, 64
13, 239485, Note_off_c, 12, 56, 64
13, 239509, Note_on_c, 12, 54, 127
13, 239603, Note_off_c, 12, 61, 64
13, 239607, Note_off_c, 12, 58, 64
13, 239610, Note_off_c, 12, 54, 64
13, 239612, Note_off_c, 12, 66, 64
13, 239628, Note_on_c, 12, 52, 127
13, 239723, Note_off_c, 12, 52, 64
13, 239740, Note_on_c, 12, 61, 127
13, 239740, Note_on_c, 12, 58, 127
13, 239740, Note_on_c, 12, 66, 127
13, 239746, Note_on_c, 12, 51, 127
13, 239806, Note_off_c, 12, 61, 64
13, 239809, Note_off_c, 12, 58, 64
13, 239815, Note_off_c, 12, 66, 64
13, 239855, Note_off_c, 12, 51, 64
13, 239866, Note_on_c, 12, 49, 127
13, 239964, Note_on_c, 12, 59, 127
13, 239966, Note_off_c, 12, 49, 64
13, 239980, Note_on_c, 12, 63, 127
13, 239992, Note_on_c, 12, 47, 127
13, 240005, Note_on_c, 12, 66, 127
13, 240110, Note_off_c, 12, 47, 64
13, 240113, Note_on_c, 12, 46, 127
13, 240213, Note_off_c, 12, 46, 64
13, 240227, Note_on_c, 12, 47, 127
13, 240336, Note_off_c, 12, 47, 64
13, 240347, Note_on_c, 12, 49, 127
13, 240379, Note_off_c, 12, 63, 64
13, 240385, Note_off_c, 12, 59, 64
13, 240399, Note_off_c, 12, 66, 64
13, 240442, Note_off_c, 12, 49, 64
13, 240469, Note_on_c, 12, 51, 127
13, 240562, Note_off_c, 12, 51, 64
13, 240585, Note_on_c, 12, 47, 127
13, 240691, Note_off_c, 12, 47, 64
13, 240713, Note_on_c, 12, 53, 127
13, 240720, Note_on_c, 12, 68, 127
13, 240720, Note_on_c, 12, 61, 127
13, 240720, Note_on_c, 12, 59, 127
13, 240827, Note_off_c, 12, 53, 64
13, 240830, Note_on_c, 12, 54, 127
13, 240938, Note_off_c, 12, 54, 64
13, 240949, Note_on_c, 12, 53, 127
13, 241031, Note_off_c, 12, 68, 64
13, 241031, Note_off_c, 12, 61, 64
13, 241031, Note_off_c, 12, 59, 64
13, 241047, Note_off_c, 12, 53, 64
13, 241064, Note_on_c, 12, 51, 127
13, 241177, Note_off_c, 12, 51, 64
13, 241187, Note_on_c, 12, 49, 127
13, 241281, Note_off_c, 12, 49, 64
13, 241305, Note_on_c, 12, 47, 127
13, 241413, Note_off_c, 12, 47, 64
13, 241429, Note_on_c, 12, 68, 127
13, 241429, Note_on_c, 12, 61, 127
13, 241429, Note_on_c, 12, 65, 127
13, 241431, Note_on_c, 12, 46, 127
13, 241551, Note_on_c, 12, 44, 127
13, 241552, Note_off_c, 12, 46, 64
13, 241652, Note_off_c, 12, 44, 64
13, 241667, Note_on_c, 12, 46, 127
13, 241715, Note_off_c, 12, 68, 64
13, 241715, Note_off_c, 12, 61, 64
13, 241715, Note_off_c, 12, 65, 64
13, 241775, Note_off_c, 12, 46, 64
13, 241790, Note_on_c, 12, 47, 127
13, 241887, Note_off_c, 12, 47, 64
13, 241912, Note_on_c, 12, 49, 127
13, 241999, Note_off_c, 12, 49, 64
13, 242027, Note_on_c, 12, 46, 127
13, 242124, Note_off_c, 12, 46, 64
13, 242147, Note_on_c, 12, 66, 127
13, 242147, Note_on_c, 12, 61, 127
13, 242147, Note_on_c, 12, 58, 127
13, 242154, Note_on_c, 12, 51, 127
13, 242273, Note_on_c, 12, 53, 127
13, 242279, Note_off_c, 12, 51, 64
13, 242358, Note_off_c, 12, 53, 64
13, 242393, Note_on_c, 12, 51, 127
13, 242452, Note_off_c, 12, 66, 64
13, 242452, Note_off_c, 12, 61, 64
13, 242452, Note_off_c, 12, 58, 64
13, 242496, Note_off_c, 12, 51, 64
13, 242507, Note_on_c, 12, 49, 127
13, 242613, Note_off_c, 12, 49, 64
13, 242627, Note_on_c, 12, 47, 127
13, 242721, Note_off_c, 12, 47, 64
13, 242745, Note_on_c, 12, 46, 127
13, 242846, Note_off_c, 12, 46, 64
13, 242857, Note_on_c, 12, 66, 127
13, 242857, Note_on_c, 12, 59, 127
13, 242857, Note_on_c, 12, 63, 127
13, 242871, Note_on_c, 12, 44, 127
13, 242991, Note_on_c, 12, 42, 127
13, 242993, Note_off_c, 12, 44, 64
13, 243085, Note_off_c, 12, 42, 64
13, 243108, Note_on_c, 12, 44, 127
13, 243161, Note_off_c, 12, 66, 64
13, 243161, Note_off_c, 12, 59, 64
13, 243161, Note_off_c, 12, 63, 64
13, 243219, Note_off_c, 12, 44, 64
13, 243231, Note_on_c, 12, 46, 127
13, 243325, Note_off_c, 12, 46, 64
13, 243353, Note_on_c, 12, 47, 127
13, 243443, Note_off_c, 12, 47, 64
13, 243466, Note_on_c, 12, 44, 127
13, 243567, Note_off_c, 12, 44, 64
13, 243590, Note_on_c, 12, 65, 127
13, 243590, Note_on_c, 12, 59, 127
13, 243590, Note_on_c, 12, 56, 127
13, 243593, Note_on_c, 12, 49, 127
13, 243712, Note_on_c, 12, 51, 127
13, 243717, Note_off_c, 12, 49, 64
13, 243801, Note_off_c, 12, 51, 64
13, 243832, Note_on_c, 12, 49, 127
13, 243858, Note_off_c, 12, 65, 64
13, 243858, Note_off_c, 12, 59, 64
13, 243874, Note_off_c, 12, 56, 64
13, 243930, Note_off_c, 12, 49, 64
13, 243947, Note_on_c, 12, 47, 127
13, 244042, Note_off_c, 12, 47, 64
13, 244069, Note_on_c, 12, 46, 127
13, 244160, Note_off_c, 12, 46, 64
13, 244183, Note_on_c, 12, 44, 127
13, 244273, Note_off_c, 12, 44, 64
13, 244309, Note_on_c, 12, 42, 127
13, 244320, Note_on_c, 12, 61, 127
13, 244320, Note_on_c, 12, 66, 127
13, 244320, Note_on_c, 12, 58, 127
13, 244562, Note_off_c, 12, 42, 64
13, 244632, Note_off_c, 12, 61, 64
13, 244634, Note_off_c, 12, 58, 64
13, 244636, Note_off_c, 12, 66, 64
13, 245032, Note_on_c, 12, 37, 127
13, 245036, Note_on_c, 12, 61, 127
13, 245037, Note_on_c, 12, 56, 127
13, 245037, Note_on_c, 12, 65, 127
13, 245240, Note_off_c, 12, 37, 64
13, 245347, Note_off_c, 12, 61, 64
13, 245349, Note_off_c, 12, 56, 64
13, 245351, Note_off_c, 12, 65, 64
13, 245756, Note_on_c, 12, 42, 127
13, 245759, Note_on_c, 12, 61, 127
13, 245760, Note_on_c, 12, 66, 127
13, 245760, Note_on_c, 12, 58, 127
13, 245934, Note_off_c, 12, 42, 64
13, 246050, Note_off_c, 12, 61, 64
13, 246051, Note_off_c, 12, 58, 64
13, 246052, Note_off_c, 12, 66, 64
13, 246466, Note_on_c, 12, 61, 127
13, 246467, Note_on_c, 12, 65, 127
13, 246467, Note_on_c, 12, 56, 127
13, 246474, Note_on_c, 12, 49, 127
13, 246655, Note_off_c, 12, 49, 64
13, 246737, Note_off_c, 12, 61, 64
13, 246742, Note_off_c, 12, 56, 64
13, 246745, Note_off_c, 12, 65, 64
13, 247193, Note_on_c, 12, 54, 127
13, 247200, Note_on_c, 12, 66, 127
13, 247202, Note_on_c, 12, 70, 127
13, 247320, Note_off_c, 12, 54, 64
13, 247437, Note_on_c, 12, 58, 127
13, 247509, Note_off_c, 12, 66, 64
13, 247516, Note_off_c, 12, 70, 64
13, 247565, Note_off_c, 12, 58, 64
13, 247675, Note_on_c, 12, 61, 127
13, 247681, Note_on_c, 12, 66, 127
13, 247681, Note_on_c, 12, 70, 127
13, 247724, Note_off_c, 12, 66, 64
13, 247729, Note_off_c, 12, 70, 64
13, 247781, Note_off_c, 12, 61, 64
13, 247913, Note_on_c, 12, 65, 127
13, 247915, Note_on_c, 12, 68, 127
13, 247916, Note_on_c, 12, 49, 127
13, 248051, Note_off_c, 12, 49, 64
13, 248154, Note_on_c, 12, 56, 127
13, 248205, Note_off_c, 12, 65, 64
13, 248210, Note_off_c, 12, 68, 64
13, 248258, Note_off_c, 12, 56, 64
13, 248393, Note_on_c, 12, 61, 127
13, 248402, Note_on_c, 12, 65, 127
13, 248402, Note_on_c, 12, 68, 127
13, 248446, Note_off_c, 12, 65, 64
13, 248449, Note_off_c, 12, 68, 64
13, 248489, Note_off_c, 12, 61, 64
13, 248641, Note_on_c, 12, 42, 127
13, 248641, Note_on_c, 12, 61, 127
13, 248642, Note_on_c, 12, 66, 127
13, 248643, Note_on_c, 12, 58, 127
13, 248739, Note_off_c, 12, 42, 64
13, 248756, Note_on_c, 12, 41, 127
13, 248836, Note_off_c, 12, 41, 64
13, 248874, Note_on_c, 12, 42, 127
13, 248972, Note_off_c, 12, 42, 64
13, 248995, Note_on_c, 12, 44, 127
13, 249023, Note_off_c, 12, 66, 64
13, 249024, Note_off_c, 12, 61, 64
13, 249025, Note_off_c, 12, 58, 64
13, 249082, Note_off_c, 12, 44, 64
13, 249116, Note_on_c, 12, 46, 127
13, 249203, Note_off_c, 12, 46, 64
13, 249234, Note_on_c, 12, 47, 127
13, 249317, Note_on_c, 12, 56, 127
13, 249320, Note_off_c, 12, 47, 64
13, 249333, Note_on_c, 12, 61, 127
13, 249358, Note_on_c, 12, 49, 127
13, 249369, Note_on_c, 12, 65, 127
13, 249471, Note_off_c, 12, 49, 64
13, 249475, Note_on_c, 12, 51, 127
13, 249568, Note_off_c, 12, 51, 64
13, 249597, Note_on_c, 12, 49, 127
13, 249647, Note_off_c, 12, 56, 64
13, 249683, Note_off_c, 12, 49, 64
13, 249713, Note_on_c, 12, 47, 127
13, 249813, Note_off_c, 12, 47, 64
13, 249817, Note_off_c, 12, 61, 64
13, 249818, Note_off_c, 12, 65, 64
13, 249837, Note_on_c, 12, 46, 127
13, 249923, Note_off_c, 12, 46, 64
13, 249954, Note_on_c, 12, 44, 127
13, 250044, Note_off_c, 12, 44, 64
13, 250076, Note_on_c, 12, 42, 127
13, 250076, Note_on_c, 12, 70, 127
13, 250076, Note_on_c, 12, 66, 127
13, 250076, Note_on_c, 12, 61, 127
13, 250188, Note_off_c, 12, 42, 64
13, 250197, Note_on_c, 12, 41, 127
13, 250282, Note_off_c, 12, 41, 64
13, 250315, Note_on_c, 12, 42, 127
13, 250407, Note_off_c, 12, 70, 64
13, 250407, Note_off_c, 12, 66, 64
13, 250407, Note_off_c, 12, 61, 64
13, 250422, Note_off_c, 12, 42, 64
13, 250434, Note_on_c, 12, 44, 127
13, 250524, Note_off_c, 12, 44, 64
13, 250553, Note_on_c, 12, 46, 127
13, 250640, Note_off_c, 12, 46, 64
13, 250668, Note_on_c, 12, 42, 127
13, 250774, Note_off_c, 12, 42, 64
13, 250793, Note_on_c, 12, 70, 127
13, 250793, Note_on_c, 12, 66, 127
13, 250793, Note_on_c, 12, 63, 127
13, 250796, Note_on_c, 12, 47, 127
13, 250907, Note_off_c, 12, 47, 64
13, 250912, Note_on_c, 12, 49, 127
13, 250999, Note_off_c, 12, 49, 64
13, 251033, Note_on_c, 12, 47, 127
13, 251092, Note_off_c, 12, 70, 64
13, 251092, Note_off_c, 12, 66, 64
13, 251092, Note_off_c, 12, 63, 64
13, 251139, Note_off_c, 12, 47, 64
13, 251149, Note_on_c, 12, 46, 127
13, 251253, Note_off_c, 12, 46, 64
13, 251271, Note_on_c, 12, 44, 127
13, 251371, Note_off_c, 12, 44, 64
13, 251389, Note_on_c, 12, 42, 127
13, 251489, Note_off_c, 12, 42, 64
13, 251515, Note_on_c, 12, 41, 127
13, 251515, Note_on_c, 12, 68, 127
13, 251515, Note_on_c, 12, 65, 127
13, 251515, Note_on_c, 12, 59, 127
13, 251635, Note_on_c, 12, 39, 127
13, 251639, Note_off_c, 12, 41, 64
13, 251741, Note_off_c, 12, 39, 64
13, 251755, Note_on_c, 12, 41, 127
13, 251819, Note_off_c, 12, 68, 64
13, 251819, Note_off_c, 12, 65, 64
13, 251819, Note_off_c, 12, 59, 64
13, 251852, Note_off_c, 12, 41, 64
13, 251871, Note_on_c, 12, 42, 127
13, 251978, Note_off_c, 12, 42, 64
13, 251993, Note_on_c, 12, 44, 127
13, 252079, Note_off_c, 12, 44, 64
13, 252111, Note_on_c, 12, 41, 127
13, 252196, Note_off_c, 12, 41, 64
13, 252235, Note_on_c, 12, 68, 127
13, 252235, Note_on_c, 12, 65, 127
13, 252235, Note_on_c, 12, 61, 127
13, 252239, Note_on_c, 12, 46, 127
13, 252331, Note_off_c, 12, 46, 64
13, 252355, Note_on_c, 12, 47, 127
13, 252467, Note_off_c, 12, 47, 64
13, 252474, Note_on_c, 12, 46, 127
13, 252519, Note_off_c, 12, 68, 64
13, 252519, Note_off_c, 12, 65, 64
13, 252519, Note_off_c, 12, 61, 64
13, 252571, Note_off_c, 12, 46, 64
13, 252590, Note_on_c, 12, 44, 127
13, 252687, Note_off_c, 12, 44, 64
13, 252711, Note_on_c, 12, 42, 127
13, 252805, Note_off_c, 12, 42, 64
13, 252828, Note_on_c, 12, 41, 127
13, 252925, Note_off_c, 12, 41, 64
13, 252951, Note_on_c, 12, 39, 127
13, 252958, Note_on_c, 12, 66, 127
13, 252958, Note_on_c, 12, 58, 127
13, 252958, Note_on_c, 12, 63, 127
13, 253072, Note_off_c, 12, 39, 64
13, 253077, Note_on_c, 12, 37, 127
13, 253168, Note_off_c, 12, 37, 64
13, 253195, Note_on_c, 12, 39, 127
13, 253222, Note_off_c, 12, 66, 64
13, 253222, Note_off_c, 12, 58, 64
13, 253222, Note_off_c, 12, 63, 64
13, 253298, Note_off_c, 12, 39, 64
13, 253312, Note_on_c, 12, 41, 127
13, 253402, Note_off_c, 12, 41, 64
13, 253431, Note_on_c, 12, 42, 127
13, 253525, Note_off_c, 12, 42, 64
13, 253546, Note_on_c, 12, 39, 127
13, 253635, Note_off_c, 12, 39, 64
13, 253668, Note_on_c, 12, 44, 127
13, 253675, Note_on_c, 12, 66, 127
13, 253675, Note_on_c, 12, 63, 127
13, 253675, Note_on_c, 12, 59, 127
13, 253775, Note_off_c, 12, 44, 64
13, 253788, Note_on_c, 12, 46, 127
13, 253883, Note_off_c, 12, 46, 64
13, 253912, Note_on_c, 12, 44, 127
13, 253947, Note_off_c, 12, 66, 64
13, 253947, Note_off_c, 12, 63, 64
13, 253947, Note_off_c, 12, 59, 64
13, 254006, Note_off_c, 12, 44, 64
13, 254027, Note_on_c, 12, 42, 127
13, 254133, Note_off_c, 12, 42, 64
13, 254149, Note_on_c, 12, 41, 127
13, 254233, Note_off_c, 12, 41, 64
13, 254267, Note_on_c, 12, 39, 127
13, 254361, Note_off_c, 12, 39, 64
13, 254394, Note_on_c, 12, 37, 127
13, 254400, Note_on_c, 12, 61, 127
13, 254401, Note_on_c, 12, 56, 127
13, 254401, Note_on_c, 12, 65, 127
13, 254552, Note_off_c, 12, 37, 64
13, 254631, Note_on_c, 12, 37, 127
13, 254786, Note_off_c, 12, 37, 64
13, 254875, Note_on_c, 12, 37, 127
13, 254910, Note_off_c, 12, 65, 64
13, 254915, Note_off_c, 12, 61, 64
13, 254922, Note_off_c, 12, 56, 64
13, 255037, Note_off_c, 12, 37, 64
13, 255108, Note_on_c, 12, 61, 127
13, 255110, Note_on_c, 12, 58, 127
13, 255112, Note_on_c, 12, 66, 127
13, 255118, Note_on_c, 12, 37, 127
13, 255289, Note_off_c, 12, 37, 64
13, 255363, Note_on_c, 12, 37, 127
13, 255520, Note_off_c, 12, 37, 64
13, 255605, Note_on_c, 12, 37, 127
13, 255651, Note_off_c, 12, 58, 64
13, 255658, Note_off_c, 12, 61, 64
13, 255668, Note_off_c, 12, 66, 64
13, 255748, Note_off_c, 12, 37, 64
13, 255838, Note_on_c, 12, 37, 127
13, 255842, Note_on_c, 12, 65, 127
13, 255842, Note_on_c, 12, 61, 127
13, 255842, Note_on_c, 12, 68, 127
13, 256001, Note_off_c, 12, 37, 64
13, 256079, Note_on_c, 12, 37, 127
13, 256216, Note_off_c, 12, 68, 64
13, 256217, Note_off_c, 12, 65, 64
13, 256217, Note_off_c, 12, 61, 64
13, 256232, Note_off_c, 12, 37, 64
13, 256316, Note_on_c, 12, 37, 127
13, 256465, Note_off_c, 12, 37, 64
13, 256555, Note_on_c, 12, 37, 127
13, 256561, Note_on_c, 12, 66, 127
13, 256561, Note_on_c, 12, 61, 127
13, 256561, Note_on_c, 12, 58, 127
13, 256712, Note_off_c, 12, 37, 64
13, 256796, Note_on_c, 12, 37, 127
13, 256856, Note_off_c, 12, 58, 64
13, 256869, Note_off_c, 12, 66, 64
13, 256870, Note_off_c, 12, 61, 64
13, 256916, Note_off_c, 12, 37, 64
13, 257031, Note_on_c, 12, 37, 127
13, 257173, Note_off_c, 12, 37, 64
13, 257266, Note_on_c, 12, 61, 127
13, 257267, Note_on_c, 12, 65, 127
13, 257267, Note_on_c, 12, 56, 127
13, 257274, Note_on_c, 12, 37, 127
13, 257428, Note_off_c, 12, 37, 64
13, 257514, Note_on_c, 12, 37, 127
13, 257634, Note_off_c, 12, 37, 64
13, 257669, Note_off_c, 12, 56, 64
13, 257673, Note_off_c, 12, 65, 64
13, 257678, Note_off_c, 12, 61, 64
13, 257749, Note_on_c, 12, 37, 127
13, 257875, Note_off_c, 12, 37, 64
13, 257982, Note_on_c, 12, 61, 127
13, 257982, Note_on_c, 12, 58, 127
13, 257982, Note_on_c, 12, 66, 127
13, 257991, Note_on_c, 12, 37, 127
13, 258138, Note_off_c, 12, 37, 64
13, 258234, Note_on_c, 12, 37, 127
13, 258302, Note_off_c, 12, 61, 64
13, 258302, Note_off_c, 12, 58, 64
13, 258306, Note_off_c, 12, 66, 64
13, 258329, Note_off_c, 12, 37, 64
13, 258475, Note_on_c, 12, 37, 127
13, 258576, Note_off_c, 12, 37, 64
13, 258712, Note_on_c, 12, 37, 127
13, 258726, Note_on_c, 12, 61, 127
13, 258726, Note_on_c, 12, 65, 127
13, 258727, Note_on_c, 12, 56, 127
13, 258853, Note_off_c, 12, 37, 64
13, 258957, Note_on_c, 12, 37, 127
13, 258999, Note_off_c, 12, 65, 64
13, 259000, Note_off_c, 12, 56, 64
13, 259001, Note_off_c, 12, 61, 64
13, 259073, Note_off_c, 12, 37, 64
13, 259196, Note_on_c, 12, 37, 127
13, 259196, Note_on_c, 12, 56, 127
13, 259196, Note_on_c, 12, 61, 127
13, 259196, Note_on_c, 12, 65, 127
13, 259243, Note_off_c, 12, 56, 64
13, 259244, Note_off_c, 12, 61, 64
13, 259250, Note_off_c, 12, 65, 64
13, 259302, Note_off_c, 12, 37, 64
13, 259435, Note_on_c, 12, 37, 127
13, 259441, Note_on_c, 12, 58, 127
13, 259441, Note_on_c, 12, 61, 127
13, 259444, Note_on_c, 12, 66, 127
13, 259560, Note_off_c, 12, 37, 64
13, 259673, Note_on_c, 12, 37, 127
13, 259712, Note_off_c, 12, 58, 64
13, 259712, Note_off_c, 12, 61, 64
13, 259712, Note_off_c, 12, 66, 64
13, 259791, Note_off_c, 12, 37, 64
13, 259904, Note_on_c, 12, 61, 127
13, 259904, Note_on_c, 12, 58, 127
13, 259905, Note_on_c, 12, 66, 127
13, 259912, Note_on_c, 12, 37, 127
13, 259957, Note_off_c, 12, 66, 64
13, 259960, Note_off_c, 12, 58, 64
13, 259962, Note_off_c, 12, 61, 64
13, 260030, Note_off_c, 12, 37, 64
13, 260119, Note_on_c, 12, 56, 127
13, 260151, Note_on_c, 12, 61, 127
13, 260155, Note_on_c, 12, 37, 127
13, 260185, Note_on_c, 12, 65, 127
13, 260300, Note_off_c, 12, 37, 64
13, 260395, Note_on_c, 12, 41, 127
13, 260498, Note_off_c, 12, 41, 64
13, 260543, Note_off_c, 12, 65, 64
13, 260544, Note_off_c, 12, 61, 64
13, 260549, Note_off_c, 12, 56, 64
13, 260632, Note_on_c, 12, 44, 127
13, 260728, Note_off_c, 12, 44, 64
13, 260879, Note_on_c, 12, 41, 127
13, 260981, Note_off_c, 12, 41, 64
13, 261121, Note_on_c, 12, 44, 127
13, 261227, Note_off_c, 12, 44, 64
13, 261358, Note_on_c, 12, 49, 127
13, 261462, Note_off_c, 12, 49, 64
13, 261558, Note_on_c, 12, 58, 127
13, 261599, Note_on_c, 12, 61, 127
13, 261602, Note_on_c, 12, 42, 127
13, 261629, Note_on_c, 12, 64, 127
13, 261673, Note_on_c, 12, 66, 127
13, 261726, Note_off_c, 12, 42, 64
13, 261843, Note_on_c, 12, 46, 127
13, 261948, Note_off_c, 12, 46, 64
13, 262077, Note_on_c, 12, 49, 127
13, 262116, Note_off_c, 12, 66, 64
13, 262121, Note_off_c, 12, 58, 64
13, 262125, Note_off_c, 12, 64, 64
13, 262129, Note_off_c, 12, 61, 64
13, 262193, Note_off_c, 12, 49, 64
13, 262314, Note_on_c, 12, 46, 127
13, 262463, Note_off_c, 12, 46, 64
13, 262555, Note_on_c, 12, 49, 127
13, 262659, Note_off_c, 12, 49, 64
13, 262790, Note_on_c, 12, 54, 127
13, 262887, Note_off_c, 12, 54, 64
13, 263006, Note_on_c, 12, 54, 127
13, 263035, Note_on_c, 12, 35, 127
13, 263047, Note_on_c, 12, 59, 127
13, 263088, Note_on_c, 12, 63, 127
13, 263149, Note_on_c, 12, 66, 127
13, 263403, Note_off_c, 12, 35, 64
13, 263667, Note_off_c, 12, 63, 64
13, 263672, Note_off_c, 12, 54, 64
13, 263675, Note_off_c, 12, 59, 64
13, 263682, Note_off_c, 12, 66, 64
13, 264430, Note_on_c, 12, 59, 127
13, 264476, Note_on_c, 12, 47, 127
13, 264481, Note_on_c, 12, 61, 127
13, 264516, Note_on_c, 12, 65, 127
13, 264578, Note_on_c, 12, 68, 127
13, 264775, Note_off_c, 12, 47, 64
13, 265034, Note_off_c, 12, 68, 64
13, 265044, Note_off_c, 12, 65, 64
13, 265053, Note_off_c, 12, 61, 64
13, 265068, Note_off_c, 12, 59, 64
13, 265917, Note_on_c, 12, 46, 127
13, 265917, Note_on_c, 12, 66, 127
13, 265917, Note_on_c, 12, 61, 127
13, 265917, Note_on_c, 12, 58, 127
13, 266057, Note_off_c, 12, 46, 64
13, 266164, Note_on_c, 12, 44, 127
13, 266201, Note_off_c, 12, 66, 64
13, 266201, Note_off_c, 12, 61, 64
13, 266201, Note_off_c, 12, 58, 64
13, 266269, Note_off_c, 12, 44, 64
13, 266402, Note_on_c, 12, 42, 127
13, 266405, Note_on_c, 12, 66, 127
13, 266405, Note_on_c, 12, 61, 127
13, 266405, Note_on_c, 12, 58, 127
13, 266446, Note_off_c, 12, 66, 64
13, 266446, Note_off_c, 12, 61, 64
13, 266446, Note_off_c, 12, 58, 64
13, 266499, Note_off_c, 12, 42, 64
13, 266642, Note_on_c, 12, 49, 127
13, 266643, Note_on_c, 12, 66, 127
13, 266643, Note_on_c, 12, 61, 127
13, 266643, Note_on_c, 12, 58, 127
13, 266936, Note_off_c, 12, 66, 64
13, 266936, Note_off_c, 12, 61, 64
13, 266936, Note_off_c, 12, 58, 64
13, 266939, Note_off_c, 12, 49, 64
13, 267102, Note_on_c, 12, 65, 127
13, 267102, Note_on_c, 12, 59, 127
13, 267102, Note_on_c, 12, 56, 127
13, 267107, Note_on_c, 12, 37, 127
13, 267152, Note_off_c, 12, 65, 64
13, 267152, Note_off_c, 12, 59, 64
13, 267152, Note_off_c, 12, 56, 64
13, 267184, Note_off_c, 12, 37, 64
13, 267350, Note_on_c, 12, 54, 127
13, 267355, Note_on_c, 12, 42, 127
13, 267403, Note_on_c, 12, 58, 127
13, 267442, Note_on_c, 12, 61, 127
13, 267505, Note_on_c, 12, 66, 127
13, 268252, Note_off_c, 12, 66, 64
13, 268254, Note_off_c, 12, 61, 64
13, 268264, Note_off_c, 12, 58, 64
13, 268277, Note_off_c, 12, 54, 64
13, 268800, Note_on_c, 12, 49, 127
13, 268800, Note_on_c, 12, 65, 127
13, 268801, Note_on_c, 12, 61, 127
13, 268801, Note_on_c, 12, 68, 127
13, 268874, Note_off_c, 12, 42, 64
13, 268908, Note_off_c, 12, 49, 64
13, 268921, Note_on_c, 12, 48, 127
13, 268987, Note_off_c, 12, 48, 64
13, 269039, Note_on_c, 12, 49, 127
13, 269126, Note_off_c, 12, 49, 64
13, 269155, Note_on_c, 12, 51, 127
13, 269240, Note_off_c, 12, 51, 64
13, 269275, Note_on_c, 12, 53, 127
13, 269359, Note_off_c, 12, 53, 64
13, 269375, Note_off_c, 12, 68, 64
13, 269377, Note_off_c, 12, 65, 64
13, 269380, Note_off_c, 12, 61, 64
13, 269393, Note_on_c, 12, 54, 127
13, 269480, Note_off_c, 12, 54, 64
13, 269513, Note_on_c, 12, 56, 127
13, 269518, Note_on_c, 12, 63, 127
13, 269519, Note_on_c, 12, 68, 127
13, 269519, Note_on_c, 12, 60, 127
13, 269627, Note_off_c, 12, 56, 64
13, 269631, Note_on_c, 12, 58, 127
13, 269718, Note_off_c, 12, 58, 64
13, 269753, Note_on_c, 12, 56, 127
13, 269835, Note_off_c, 12, 56, 64
13, 269869, Note_on_c, 12, 54, 127
13, 269959, Note_off_c, 12, 54, 64
13, 269988, Note_on_c, 12, 53, 127
13, 270025, Note_off_c, 12, 63, 64
13, 270026, Note_off_c, 12, 68, 64
13, 270033, Note_off_c, 12, 60, 64
13, 270067, Note_off_c, 12, 53, 64
13, 270107, Note_on_c, 12, 51, 127
13, 270169, Note_on_c, 12, 61, 127
13, 270192, Note_off_c, 12, 51, 64
13, 270206, Note_on_c, 12, 65, 127
13, 270225, Note_on_c, 12, 68, 127
13, 270233, Note_on_c, 12, 53, 127
13, 270333, Note_off_c, 12, 53, 64
13, 270352, Note_on_c, 12, 56, 127
13, 270437, Note_off_c, 12, 56, 64
13, 270470, Note_on_c, 12, 54, 127
13, 270552, Note_off_c, 12, 54, 64
13, 270592, Note_on_c, 12, 53, 127
13, 270670, Note_off_c, 12, 53, 64
13, 270710, Note_on_c, 12, 51, 127
13, 270800, Note_off_c, 12, 51, 64
13, 270812, Note_off_c, 12, 65, 64
13, 270817, Note_off_c, 12, 68, 64
13, 270826, Note_off_c, 12, 61, 64
13, 270827, Note_on_c, 12, 49, 127
13, 270909, Note_off_c, 12, 49, 64
13, 270951, Note_on_c, 12, 48, 127
13, 270966, Note_on_c, 12, 63, 127
13, 270966, Note_on_c, 12, 68, 127
13, 270967, Note_on_c, 12, 60, 127
13, 271052, Note_off_c, 12, 48, 64
13, 271071, Note_on_c, 12, 51, 127
13, 271153, Note_off_c, 12, 51, 64
13, 271191, Note_on_c, 12, 49, 127
13, 271270, Note_off_c, 12, 49, 64
13, 271311, Note_on_c, 12, 48, 127
13, 271401, Note_off_c, 12, 48, 64
13, 271431, Note_on_c, 12, 46, 127
13, 271497, Note_off_c, 12, 63, 64
13, 271501, Note_off_c, 12, 68, 64
13, 271502, Note_off_c, 12, 60, 64
13, 271518, Note_off_c, 12, 46, 64
13, 271550, Note_on_c, 12, 44, 127
13, 271631, Note_off_c, 12, 44, 64
13, 271673, Note_on_c, 12, 51, 127
13, 271675, Note_on_c, 12, 70, 127
13, 271675, Note_on_c, 12, 66, 127
13, 271679, Note_on_c, 12, 63, 127
13, 271891, Note_off_c, 12, 51, 64
13, 271913, Note_on_c, 12, 54, 127
13, 272018, Note_off_c, 12, 54, 64
13, 272152, Note_on_c, 12, 58, 127
13, 272234, Note_off_c, 12, 63, 64
13, 272237, Note_off_c, 12, 66, 64
13, 272239, Note_off_c, 12, 70, 64
13, 272279, Note_off_c, 12, 58, 64
13, 272397, Note_on_c, 12, 50, 127
13, 272397, Note_on_c, 12, 65, 127
13, 272397, Note_on_c, 12, 70, 127
13, 272397, Note_on_c, 12, 62, 127
13, 272598, Note_off_c, 12, 50, 64
13, 272637, Note_on_c, 12, 53, 127
13, 272733, Note_off_c, 12, 53, 64
13, 272879, Note_on_c, 12, 58, 127
13, 272967, Note_off_c, 12, 65, 64
13, 272971, Note_off_c, 12, 62, 64
13, 272980, Note_off_c, 12, 70, 64
13, 273007, Note_off_c, 12, 58, 64
13, 273124, Note_on_c, 12, 51, 127
13, 273126, Note_on_c, 12, 66, 127
13, 273126, Note_on_c, 12, 63, 127
13, 273127, Note_on_c, 12, 70, 127
13, 273340, Note_off_c, 12, 51, 64
13, 273359, Note_on_c, 12, 54, 127
13, 273476, Note_off_c, 12, 54, 64
13, 273601, Note_on_c, 12, 58, 127
13, 273688, Note_off_c, 12, 70, 64
13, 273689, Note_off_c, 12, 66, 64
13, 273693, Note_off_c, 12, 63, 64
13, 273711, Note_off_c, 12, 58, 64
13, 273841, Note_on_c, 12, 46, 127
13, 273844, Note_on_c, 12, 65, 127
13, 273844, Note_on_c, 12, 62, 127
13, 273845, Note_on_c, 12, 70, 127
13, 274032, Note_off_c, 12, 46, 64
13, 274079, Note_on_c, 12, 53, 127
13, 274191, Note_off_c, 12, 53, 64
13, 274317, Note_on_c, 12, 58, 127
13, 274372, Note_off_c, 12, 70, 64
13, 274375, Note_off_c, 12, 62, 64
13, 274377, Note_off_c, 12, 65, 64
13, 274430, Note_off_c, 12, 58, 64
13, 274557, Note_on_c, 12, 42, 127
13, 274560, Note_on_c, 12, 63, 127
13, 274560, Note_on_c, 12, 58, 127
13, 274765, Note_off_c, 12, 63, 64
13, 274765, Note_off_c, 12, 58, 64
13, 274811, Note_off_c, 12, 42, 64
13, 275281, Note_on_c, 12, 44, 127
13, 275281, Note_on_c, 12, 63, 127
13, 275281, Note_on_c, 12, 59, 127
13, 275470, Note_off_c, 12, 63, 64
13, 275470, Note_off_c, 12, 59, 64
13, 275527, Note_off_c, 12, 44, 64
13, 275994, Note_on_c, 12, 63, 127
13, 275994, Note_on_c, 12, 54, 127
13, 275999, Note_on_c, 12, 46, 127
13, 276195, Note_off_c, 12, 63, 64
13, 276195, Note_off_c, 12, 54, 64
13, 276259, Note_off_c, 12, 46, 64
13, 276711, Note_on_c, 12, 63, 127
13, 276711, Note_on_c, 12, 56, 127
13, 276715, Note_on_c, 12, 47, 127
13, 276883, Note_off_c, 12, 63, 64
13, 276883, Note_off_c, 12, 56, 64
13, 276988, Note_off_c, 12, 47, 64
13, 277419, Note_on_c, 12, 63, 127
13, 277419, Note_on_c, 12, 58, 127
13, 277441, Note_on_c, 12, 42, 127
13, 277617, Note_off_c, 12, 63, 64
13, 277617, Note_off_c, 12, 58, 64
13, 277722, Note_off_c, 12, 42, 64
13, 278147, Note_on_c, 12, 63, 127
13, 278147, Note_on_c, 12, 59, 127
13, 278155, Note_on_c, 12, 44, 127
13, 278364, Note_off_c, 12, 63, 64
13, 278364, Note_off_c, 12, 59, 64
13, 278457, Note_off_c, 12, 44, 64
13, 278875, Note_on_c, 12, 46, 127
13, 278887, Note_on_c, 12, 63, 127
13, 278887, Note_on_c, 12, 54, 127
13, 279005, Note_off_c, 12, 46, 64
13, 279119, Note_on_c, 12, 44, 127
13, 279202, Note_off_c, 12, 63, 64
13, 279202, Note_off_c, 12, 54, 64
13, 279265, Note_off_c, 12, 44, 64
13, 279358, Note_on_c, 12, 62, 127
13, 279358, Note_on_c, 12, 58, 127
13, 279358, Note_on_c, 12, 56, 127
13, 279363, Note_on_c, 12, 46, 127
13, 279422, Note_off_c, 12, 62, 64
13, 279422, Note_off_c, 12, 58, 64
13, 279422, Note_off_c, 12, 56, 64
13, 279504, Note_off_c, 12, 46, 64
13, 279605, Note_on_c, 12, 39, 127
13, 279605, Note_on_c, 12, 63, 127
13, 279605, Note_on_c, 12, 58, 127
13, 279605, Note_on_c, 12, 54, 127
13, 279762, Note_off_c, 12, 39, 64
13, 279814, Note_off_c, 12, 63, 64
13, 279814, Note_off_c, 12, 58, 64
13, 279814, Note_off_c, 12, 54, 64
13, 279840, Note_on_c, 12, 63, 127
13, 279840, Note_on_c, 12, 70, 127
13, 279840, Note_on_c, 12, 66, 127
13, 279842, Note_on_c, 12, 42, 127
13, 279922, Note_off_c, 12, 63, 64
13, 279922, Note_off_c, 12, 70, 64
13, 279922, Note_off_c, 12, 66, 64
13, 279962, Note_off_c, 12, 42, 64
13, 280077, Note_on_c, 12, 46, 127
13, 280078, Note_on_c, 12, 62, 127
13, 280078, Note_on_c, 12, 68, 127
13, 280078, Note_on_c, 12, 65, 127
13, 280154, Note_off_c, 12, 62, 64
13, 280154, Note_off_c, 12, 68, 64
13, 280154, Note_off_c, 12, 65, 64
13, 280210, Note_off_c, 12, 46, 64
13, 280318, Note_on_c, 12, 63, 127
13, 280318, Note_on_c, 12, 58, 127
13, 280318, Note_on_c, 12, 66, 127
13, 280321, Note_on_c, 12, 51, 127
13, 280798, Note_off_c, 12, 63, 64
13, 280798, Note_off_c, 12, 58, 64
13, 280798, Note_off_c, 12, 66, 64
13, 280800, Note_off_c, 12, 51, 64
13, 284640, Note_on_c, 12, 51, 127
13, 284640, Note_on_c, 12, 63, 127
13, 284641, Note_on_c, 12, 66, 127
13, 284641, Note_on_c, 12, 70, 127
13, 284742, Note_off_c, 12, 51, 64
13, 284761, Note_on_c, 12, 50, 127
13, 284834, Note_off_c, 12, 50, 64
13, 284876, Note_on_c, 12, 51, 127
13, 284961, Note_off_c, 12, 51, 64
13, 284991, Note_on_c, 12, 53, 127
13, 285062, Note_off_c, 12, 53, 64
13, 285110, Note_on_c, 12, 54, 127
13, 285195, Note_off_c, 12, 54, 64
13, 285198, Note_off_c, 12, 66, 64
13, 285202, Note_off_c, 12, 63, 64
13, 285202, Note_off_c, 12, 70, 64
13, 285225, Note_on_c, 12, 56, 127
13, 285312, Note_off_c, 12, 56, 64
13, 285347, Note_on_c, 12, 58, 127
13, 285351, Note_on_c, 12, 65, 127
13, 285352, Note_on_c, 12, 62, 127
13, 285353, Note_on_c, 12, 70, 127
13, 285471, Note_on_c, 12, 59, 127
13, 285473, Note_off_c, 12, 58, 64
13, 285559, Note_off_c, 12, 59, 64
13, 285593, Note_on_c, 12, 58, 127
13, 285670, Note_off_c, 12, 58, 64
13, 285709, Note_on_c, 12, 56, 127
13, 285788, Note_off_c, 12, 56, 64
13, 285826, Note_on_c, 12, 54, 127
13, 285888, Note_off_c, 12, 65, 64
13, 285897, Note_off_c, 12, 70, 64
13, 285901, Note_off_c, 12, 62, 64
13, 285913, Note_off_c, 12, 54, 64
13, 285940, Note_on_c, 12, 53, 127
13, 286021, Note_off_c, 12, 53, 64
13, 286056, Note_on_c, 12, 63, 127
13, 286057, Note_on_c, 12, 66, 127
13, 286057, Note_on_c, 12, 70, 127
13, 286069, Note_on_c, 12, 51, 127
13, 286167, Note_off_c, 12, 51, 64
13, 286189, Note_on_c, 12, 50, 127
13, 286282, Note_off_c, 12, 50, 64
13, 286308, Note_on_c, 12, 51, 127
13, 286406, Note_off_c, 12, 51, 64
13, 286428, Note_on_c, 12, 53, 127
13, 286515, Note_off_c, 12, 53, 64
13, 286545, Note_on_c, 12, 54, 127
13, 286636, Note_off_c, 12, 54, 64
13, 286640, Note_off_c, 12, 66, 64
13, 286646, Note_off_c, 12, 63, 64
13, 286648, Note_off_c, 12, 70, 64
13, 286664, Note_on_c, 12, 51, 127
13, 286759, Note_off_c, 12, 51, 64
13, 286782, Note_on_c, 12, 68, 127
13, 286782, Note_on_c, 12, 63, 127
13, 286782, Note_on_c, 12, 60, 127
13, 286787, Note_on_c, 12, 56, 127
13, 286890, Note_off_c, 12, 56, 64
13, 286908, Note_on_c, 12, 58, 127
13, 286998, Note_off_c, 12, 58, 64
13, 287029, Note_on_c, 12, 56, 127
13, 287122, Note_off_c, 12, 56, 64
13, 287146, Note_on_c, 12, 54, 127
13, 287238, Note_off_c, 12, 54, 64
13, 287267, Note_on_c, 12, 53, 127
13, 287343, Note_off_c, 12, 53, 64
13, 287357, Note_off_c, 12, 68, 64
13, 287357, Note_off_c, 12, 63, 64
13, 287357, Note_off_c, 12, 60, 64
13, 287383, Note_on_c, 12, 51, 127
13, 287484, Note_off_c, 12, 51, 64
13, 287510, Note_on_c, 12, 49, 127
13, 287510, Note_on_c, 12, 68, 127
13, 287510, Note_on_c, 12, 65, 127
13, 287510, Note_on_c, 12, 61, 127
13, 287627, Note_off_c, 12, 49, 64
13, 287629, Note_on_c, 12, 48, 127
13, 287707, Note_off_c, 12, 48, 64
13, 287747, Note_on_c, 12, 49, 127
13, 287835, Note_off_c, 12, 49, 64
13, 287862, Note_on_c, 12, 51, 127
13, 287944, Note_off_c, 12, 51, 64
13, 287984, Note_on_c, 12, 53, 127
13, 288059, Note_off_c, 12, 68, 64
13, 288059, Note_off_c, 12, 65, 64
13, 288059, Note_off_c, 12, 61, 64
13, 288074, Note_off_c, 12, 53, 64
13, 288107, Note_on_c, 12, 49, 127
13, 288197, Note_off_c, 12, 49, 64
13, 288218, Note_on_c, 12, 61, 127
13, 288218, Note_on_c, 12, 66, 127
13, 288218, Note_on_c, 12, 58, 127
13, 288234, Note_on_c, 12, 54, 127
13, 288339, Note_off_c, 12, 54, 64
13, 288354, Note_on_c, 12, 56, 127
13, 288450, Note_off_c, 12, 56, 64
13, 288473, Note_on_c, 12, 54, 127
13, 288572, Note_off_c, 12, 54, 64
13, 288590, Note_on_c, 12, 53, 127
13, 288672, Note_off_c, 12, 53, 64
13, 288709, Note_on_c, 12, 51, 127
13, 288783, Note_off_c, 12, 61, 64
13, 288783, Note_off_c, 12, 66, 64
13, 288783, Note_off_c, 12, 58, 64
13, 288804, Note_off_c, 12, 51, 64
13, 288828, Note_on_c, 12, 49, 127
13, 288929, Note_off_c, 12, 49, 64
13, 288952, Note_on_c, 12, 66, 127
13, 288952, Note_on_c, 12, 63, 127
13, 288952, Note_on_c, 12, 58, 127
13, 288953, Note_on_c, 12, 48, 127
13, 289071, Note_on_c, 12, 46, 127
13, 289075, Note_off_c, 12, 48, 64
13, 289173, Note_off_c, 12, 46, 64
13, 289191, Note_on_c, 12, 48, 127
13, 289284, Note_off_c, 12, 48, 64
13, 289311, Note_on_c, 12, 49, 127
13, 289399, Note_off_c, 12, 49, 64
13, 289432, Note_on_c, 12, 51, 127
13, 289525, Note_off_c, 12, 51, 64
13, 289537, Note_off_c, 12, 66, 64
13, 289537, Note_off_c, 12, 63, 64
13, 289537, Note_off_c, 12, 58, 64
13, 289548, Note_on_c, 12, 48, 127
13, 289623, Note_off_c, 12, 48, 64
13, 289672, Note_on_c, 12, 65, 127
13, 289672, Note_on_c, 12, 60, 127
13, 289672, Note_on_c, 12, 57, 127
13, 289674, Note_on_c, 12, 53, 127
13, 289771, Note_off_c, 12, 53, 64
13, 289792, Note_on_c, 12, 54, 127
13, 289889, Note_off_c, 12, 54, 64
13, 289907, Note_on_c, 12, 53, 127
13, 289991, Note_off_c, 12, 53, 64
13, 290028, Note_on_c, 12, 51, 127
13, 290115, Note_off_c, 12, 51, 64
13, 290150, Note_on_c, 12, 49, 127
13, 290237, Note_off_c, 12, 49, 64
13, 290248, Note_off_c, 12, 65, 64
13, 290248, Note_off_c, 12, 60, 64
13, 290248, Note_off_c, 12, 57, 64
13, 290271, Note_on_c, 12, 48, 127
13, 290346, Note_off_c, 12, 48, 64
13, 290394, Note_on_c, 12, 46, 127
13, 290404, Note_on_c, 12, 65, 127
13, 290404, Note_on_c, 12, 61, 127
13, 290404, Note_on_c, 12, 58, 127
13, 290612, Note_off_c, 12, 46, 64
13, 290712, Note_off_c, 12, 65, 64
13, 290712, Note_off_c, 12, 61, 64
13, 290712, Note_off_c, 12, 58, 64
13, 291115, Note_on_c, 12, 41, 127
13, 291115, Note_on_c, 12, 60, 127
13, 291116, Note_on_c, 12, 65, 127
13, 291117, Note_on_c, 12, 57, 127
13, 291321, Note_off_c, 12, 41, 64
13, 291423, Note_off_c, 12, 60, 64
13, 291428, Note_off_c, 12, 65, 64
13, 291431, Note_off_c, 12, 57, 64
13, 291834, Note_on_c, 12, 46, 127
13, 291843, Note_on_c, 12, 65, 127
13, 291843, Note_on_c, 12, 61, 127
13, 291844, Note_on_c, 12, 58, 127
13, 292050, Note_off_c, 12, 46, 64
13, 292134, Note_off_c, 12, 61, 64
13, 292137, Note_off_c, 12, 65, 64
13, 292138, Note_off_c, 12, 58, 64
13, 292555, Note_on_c, 12, 53, 127
13, 292564, Note_on_c, 12, 60, 127
13, 292565, Note_on_c, 12, 65, 127
13, 292566, Note_on_c, 12, 57, 127
13, 292767, Note_off_c, 12, 53, 64
13, 292842, Note_off_c, 12, 60, 64
13, 292846, Note_off_c, 12, 65, 64
13, 292848, Note_off_c, 12, 57, 64
13, 293284, Note_on_c, 12, 46, 127
13, 293291, Note_on_c, 12, 65, 127
13, 293292, Note_on_c, 12, 61, 127
13, 293293, Note_on_c, 12, 58, 127
13, 293426, Note_off_c, 12, 46, 64
13, 293526, Note_on_c, 12, 49, 127
13, 293577, Note_off_c, 12, 61, 64
13, 293579, Note_off_c, 12, 65, 64
13, 293582, Note_off_c, 12, 58, 64
13, 293638, Note_off_c, 12, 49, 64
13, 293753, Note_on_c, 12, 58, 127
13, 293754, Note_on_c, 12, 61, 127
13, 293755, Note_on_c, 12, 65, 127
13, 293758, Note_on_c, 12, 53, 127
13, 293806, Note_off_c, 12, 61, 64
13, 293809, Note_off_c, 12, 58, 64
13, 293817, Note_off_c, 12, 65, 64
13, 293863, Note_off_c, 12, 53, 64
13, 293995, Note_on_c, 12, 57, 127
13, 293995, Note_on_c, 12, 60, 127
13, 293997, Note_on_c, 12, 45, 127
13, 293997, Note_on_c, 12, 65, 127
13, 294138, Note_off_c, 12, 45, 64
13, 294235, Note_on_c, 12, 48, 127
13, 294312, Note_off_c, 12, 60, 64
13, 294312, Note_off_c, 12, 65, 64
13, 294320, Note_off_c, 12, 57, 64
13, 294336, Note_off_c, 12, 48, 64
13, 294471, Note_on_c, 12, 53, 127
13, 294471, Note_on_c, 12, 57, 127
13, 294471, Note_on_c, 12, 60, 127
13, 294472, Note_on_c, 12, 65, 127
13, 294522, Note_off_c, 12, 57, 64
13, 294531, Note_off_c, 12, 60, 64
13, 294544, Note_off_c, 12, 65, 64
13, 294598, Note_off_c, 12, 53, 64
13, 294720, Note_on_c, 12, 46, 127
13, 294720, Note_on_c, 12, 58, 127
13, 294720, Note_on_c, 12, 61, 127
13, 294721, Note_on_c, 12, 65, 127
13, 294811, Note_off_c, 12, 46, 64
13, 294838, Note_on_c, 12, 45, 127
13, 294896, Note_off_c, 12, 45, 64
13, 294956, Note_on_c, 12, 46, 127
13, 295037, Note_off_c, 12, 46, 64
13, 295073, Note_on_c, 12, 48, 127
13, 295141, Note_off_c, 12, 48, 64
13, 295189, Note_on_c, 12, 49, 127
13, 295273, Note_off_c, 12, 49, 64
13, 295278, Note_off_c, 12, 61, 64
13, 295284, Note_off_c, 12, 58, 64
13, 295308, Note_off_c, 12, 65, 64
13, 295309, Note_on_c, 12, 51, 127
13, 295387, Note_off_c, 12, 51, 64
13, 295392, Note_on_c, 12, 57, 127
13, 295418, Note_on_c, 12, 60, 127
13, 295433, Note_on_c, 12, 53, 127
13, 295436, Note_on_c, 12, 65, 127
13, 295534, Note_off_c, 12, 53, 64
13, 295550, Note_on_c, 12, 54, 127
13, 295640, Note_off_c, 12, 54, 64
13, 295669, Note_on_c, 12, 53, 127
13, 295738, Note_off_c, 12, 53, 64
13, 295788, Note_on_c, 12, 51, 127
13, 295864, Note_off_c, 12, 51, 64
13, 295905, Note_on_c, 12, 49, 127
13, 295996, Note_off_c, 12, 49, 64
13, 296004, Note_off_c, 12, 60, 64
13, 296004, Note_off_c, 12, 65, 64
13, 296014, Note_off_c, 12, 57, 64
13, 296026, Note_on_c, 12, 48, 127
13, 296113, Note_off_c, 12, 48, 64
13, 296141, Note_on_c, 12, 58, 127
13, 296149, Note_on_c, 12, 61, 127
13, 296153, Note_on_c, 12, 46, 127
13, 296173, Note_on_c, 12, 65, 127
13, 296255, Note_off_c, 12, 46, 64
13, 296269, Note_on_c, 12, 45, 127
13, 296344, Note_off_c, 12, 45, 64
13, 296387, Note_on_c, 12, 46, 127
13, 296478, Note_off_c, 12, 46, 64
13, 296510, Note_on_c, 12, 48, 127
13, 296583, Note_off_c, 12, 48, 64
13, 296629, Note_on_c, 12, 49, 127
13, 296703, Note_off_c, 12, 61, 64
13, 296706, Note_off_c, 12, 58, 64
13, 296711, Note_off_c, 12, 65, 64
13, 296716, Note_off_c, 12, 49, 64
13, 296747, Note_on_c, 12, 46, 127
13, 296828, Note_off_c, 12, 46, 64
13, 296868, Note_on_c, 12, 63, 127
13, 296868, Note_on_c, 12, 58, 127
13, 296868, Note_on_c, 12, 66, 127
13, 296875, Note_on_c, 12, 51, 127
13, 296985, Note_off_c, 12, 51, 64
13, 296993, Note_on_c, 12, 53, 127
13, 297066, Note_off_c, 12, 53, 64
13, 297112, Note_on_c, 12, 51, 127
13, 297199, Note_off_c, 12, 51, 64
13, 297228, Note_on_c, 12, 49, 127
13, 297320, Note_off_c, 12, 49, 64
13, 297350, Note_on_c, 12, 48, 127
13, 297420, Note_off_c, 12, 48, 64
13, 297463, Note_off_c, 12, 63, 64
13, 297463, Note_off_c, 12, 58, 64
13, 297463, Note_off_c, 12, 66, 64
13, 297469, Note_on_c, 12, 46, 127
13, 297550, Note_off_c, 12, 46, 64
13, 297593, Note_on_c, 12, 44, 127
13, 297593, Note_on_c, 12, 63, 127
13, 297593, Note_on_c, 12, 60, 127
13, 297593, Note_on_c, 12, 66, 127
13, 297701, Note_off_c, 12, 44, 64
13, 297713, Note_on_c, 12, 43, 127
13, 297785, Note_off_c, 12, 43, 64
13, 297832, Note_on_c, 12, 44, 127
13, 297908, Note_off_c, 12, 44, 64
13, 297948, Note_on_c, 12, 46, 127
13, 298033, Note_off_c, 12, 46, 64
13, 298072, Note_on_c, 12, 48, 127
13, 298157, Note_off_c, 12, 48, 64
13, 298188, Note_on_c, 12, 44, 127
13, 298223, Note_off_c, 12, 63, 64
13, 298223, Note_off_c, 12, 60, 64
13, 298223, Note_off_c, 12, 66, 64
13, 298272, Note_off_c, 12, 44, 64
13, 298316, Note_on_c, 12, 49, 127
13, 298316, Note_on_c, 12, 60, 127
13, 298316, Note_on_c, 12, 56, 127
13, 298316, Note_on_c, 12, 65, 127
13, 298418, Note_off_c, 12, 49, 64
13, 298432, Note_on_c, 12, 51, 127
13, 298528, Note_off_c, 12, 51, 64
13, 298552, Note_on_c, 12, 49, 127
13, 298644, Note_off_c, 12, 49, 64
13, 298669, Note_on_c, 12, 48, 127
13, 298741, Note_off_c, 12, 48, 64
13, 298792, Note_on_c, 12, 46, 127
13, 298876, Note_off_c, 12, 46, 64
13, 298905, Note_on_c, 12, 44, 127
13, 298911, Note_off_c, 12, 60, 64
13, 298911, Note_off_c, 12, 56, 64
13, 298911, Note_off_c, 12, 65, 64
13, 298990, Note_off_c, 12, 44, 64
13, 299032, Note_on_c, 12, 42, 127
13, 299034, Note_on_c, 12, 61, 127
13, 299034, Note_on_c, 12, 58, 127
13, 299034, Note_on_c, 12, 65, 127
13, 299148, Note_on_c, 12, 41, 127
13, 299158, Note_off_c, 12, 42, 64
13, 299220, Note_off_c, 12, 41, 64
13, 299265, Note_on_c, 12, 42, 127
13, 299356, Note_off_c, 12, 42, 64
13, 299388, Note_on_c, 12, 44, 127
13, 299476, Note_off_c, 12, 44, 64
13, 299507, Note_on_c, 12, 46, 127
13, 299594, Note_off_c, 12, 46, 64
13, 299624, Note_on_c, 12, 42, 127
13, 299655, Note_off_c, 12, 61, 64
13, 299655, Note_off_c, 12, 58, 64
13, 299655, Note_off_c, 12, 65, 64
13, 299733, Note_off_c, 12, 42, 64
13, 299751, Note_on_c, 12, 48, 127
13, 299754, Note_on_c, 12, 58, 127
13, 299754, Note_on_c, 12, 54, 127
13, 299754, Note_on_c, 12, 63, 127
13, 299861, Note_off_c, 12, 48, 64
13, 299872, Note_on_c, 12, 49, 127
13, 299957, Note_off_c, 12, 49, 64
13, 299989, Note_on_c, 12, 48, 127
13, 300082, Note_off_c, 12, 48, 64
13, 300108, Note_on_c, 12, 46, 127
13, 300201, Note_off_c, 12, 46, 64
13, 300227, Note_on_c, 12, 45, 127
13, 300297, Note_off_c, 12, 58, 64
13, 300297, Note_off_c, 12, 54, 64
13, 300297, Note_off_c, 12, 63, 64
13, 300300, Note_off_c, 12, 45, 64
13, 300343, Note_on_c, 12, 43, 127
13, 300439, Note_off_c, 12, 43, 64
13, 300480, Note_on_c, 12, 41, 127
13, 300480, Note_on_c, 12, 60, 127
13, 300481, Note_on_c, 12, 63, 127
13, 300597, Note_off_c, 12, 41, 64
13, 300714, Note_on_c, 12, 41, 127
13, 300778, Note_off_c, 12, 60, 64
13, 300779, Note_off_c, 12, 63, 64
13, 300822, Note_off_c, 12, 41, 64
13, 300951, Note_on_c, 12, 41, 127
13, 300961, Note_on_c, 12, 60, 127
13, 300961, Note_on_c, 12, 63, 127
13, 301010, Note_off_c, 12, 60, 64
13, 301012, Note_off_c, 12, 63, 64
13, 301063, Note_off_c, 12, 41, 64
13, 301188, Note_on_c, 12, 41, 127
13, 301198, Note_on_c, 12, 58, 127
13, 301198, Note_on_c, 12, 61, 127
13, 301343, Note_off_c, 12, 41, 64
13, 301432, Note_on_c, 12, 41, 127
13, 301480, Note_off_c, 12, 58, 64
13, 301483, Note_off_c, 12, 61, 64
13, 301562, Note_off_c, 12, 41, 64
13, 301671, Note_on_c, 12, 41, 127
13, 301678, Note_on_c, 12, 61, 127
13, 301678, Note_on_c, 12, 58, 127
13, 301730, Note_off_c, 12, 58, 64
13, 301741, Note_off_c, 12, 61, 64
13, 301807, Note_off_c, 12, 41, 64
13, 301911, Note_on_c, 12, 41, 127
13, 301920, Note_on_c, 12, 60, 127
13, 301920, Note_on_c, 12, 57, 127
13, 302031, Note_off_c, 12, 41, 64
13, 302152, Note_on_c, 12, 41, 127
13, 302208, Note_off_c, 12, 60, 64
13, 302208, Note_off_c, 12, 57, 64
13, 302264, Note_off_c, 12, 41, 64
13, 302391, Note_on_c, 12, 41, 127
13, 302401, Note_on_c, 12, 57, 127
13, 302401, Note_on_c, 12, 60, 127
13, 302447, Note_off_c, 12, 57, 64
13, 302453, Note_off_c, 12, 60, 64
13, 302497, Note_off_c, 12, 41, 64
13, 302629, Note_on_c, 12, 41, 127
13, 302640, Note_on_c, 12, 61, 127
13, 302640, Note_on_c, 12, 58, 127
13, 302755, Note_off_c, 12, 41, 64
13, 302870, Note_on_c, 12, 41, 127
13, 302920, Note_off_c, 12, 58, 64
13, 302924, Note_off_c, 12, 61, 64
13, 302979, Note_off_c, 12, 41, 64
13, 303111, Note_on_c, 12, 41, 127
13, 303117, Note_on_c, 12, 58, 127
13, 303117, Note_on_c, 12, 61, 127
13, 303171, Note_off_c, 12, 58, 64
13, 303178, Note_off_c, 12, 61, 64
13, 303214, Note_off_c, 12, 41, 64
13, 303355, Note_on_c, 12, 41, 127
13, 303356, Note_on_c, 12, 60, 127
13, 303356, Note_on_c, 12, 63, 127
13, 303481, Note_off_c, 12, 41, 64
13, 303596, Note_on_c, 12, 41, 127
13, 303653, Note_off_c, 12, 60, 64
13, 303657, Note_off_c, 12, 63, 64
13, 303695, Note_off_c, 12, 41, 64
13, 303834, Note_on_c, 12, 41, 127
13, 303840, Note_on_c, 12, 60, 127
13, 303840, Note_on_c, 12, 63, 127
13, 303901, Note_off_c, 12, 60, 64
13, 303908, Note_off_c, 12, 63, 64
13, 303939, Note_off_c, 12, 41, 64
13, 304077, Note_on_c, 12, 41, 127
13, 304081, Note_on_c, 12, 61, 127
13, 304082, Note_on_c, 12, 58, 127
13, 304208, Note_off_c, 12, 41, 64
13, 304317, Note_on_c, 12, 41, 127
13, 304362, Note_off_c, 12, 58, 64
13, 304368, Note_off_c, 12, 61, 64
13, 304418, Note_off_c, 12, 41, 64
13, 304557, Note_on_c, 12, 41, 127
13, 304561, Note_on_c, 12, 61, 127
13, 304561, Note_on_c, 12, 58, 127
13, 304611, Note_off_c, 12, 58, 64
13, 304617, Note_off_c, 12, 61, 64
13, 304665, Note_off_c, 12, 41, 64
13, 304798, Note_on_c, 12, 57, 127
13, 304799, Note_on_c, 12, 41, 127
13, 304800, Note_on_c, 12, 60, 127
13, 304926, Note_off_c, 12, 41, 64
13, 305037, Note_on_c, 12, 41, 127
13, 305103, Note_off_c, 12, 57, 64
13, 305108, Note_off_c, 12, 60, 64
13, 305147, Note_off_c, 12, 41, 64
13, 305278, Note_on_c, 12, 41, 127
13, 305281, Note_on_c, 12, 60, 127
13, 305283, Note_on_c, 12, 57, 127
13, 305332, Note_off_c, 12, 57, 64
13, 305335, Note_off_c, 12, 60, 64
13, 305386, Note_off_c, 12, 41, 64
13, 305519, Note_on_c, 12, 41, 127
13, 305520, Note_on_c, 12, 58, 127
13, 305520, Note_on_c, 12, 61, 127
13, 305646, Note_off_c, 12, 41, 64
13, 305758, Note_on_c, 12, 41, 127
13, 305809, Note_off_c, 12, 58, 64
13, 305811, Note_off_c, 12, 61, 64
13, 305863, Note_off_c, 12, 41, 64
13, 305994, Note_on_c, 12, 41, 127
13, 305997, Note_on_c, 12, 58, 127
13, 306000, Note_on_c, 12, 61, 127
13, 306056, Note_off_c, 12, 58, 64
13, 306061, Note_off_c, 12, 61, 64
13, 306100, Note_off_c, 12, 41, 64
13, 306237, Note_on_c, 12, 41, 127
13, 306237, Note_on_c, 12, 60, 127
13, 306364, Note_off_c, 12, 60, 64
13, 306369, Note_on_c, 12, 65, 127
13, 306384, Note_off_c, 12, 41, 64
13, 306477, Note_on_c, 12, 45, 127
13, 306481, Note_on_c, 12, 63, 127
13, 306509, Note_off_c, 12, 65, 64
13, 306599, Note_off_c, 12, 45, 64
13, 306601, Note_on_c, 12, 61, 127
13, 306613, Note_off_c, 12, 63, 64
13, 306711, Note_on_c, 12, 60, 127
13, 306712, Note_on_c, 12, 48, 127
13, 306734, Note_off_c, 12, 61, 64
13, 306822, Note_on_c, 12, 58, 127
13, 306833, Note_off_c, 12, 60, 64
13, 306840, Note_off_c, 12, 48, 64
13, 306932, Note_off_c, 12, 58, 64
13, 306953, Note_on_c, 12, 45, 127
13, 306956, Note_on_c, 12, 57, 127
13, 307071, Note_on_c, 12, 55, 127
13, 307092, Note_off_c, 12, 57, 64
13, 307102, Note_off_c, 12, 45, 64
13, 307186, Note_on_c, 12, 57, 127
13, 307193, Note_on_c, 12, 48, 127
13, 307218, Note_off_c, 12, 55, 64
13, 307298, Note_off_c, 12, 48, 64
13, 307299, Note_on_c, 12, 58, 127
13, 307303, Note_off_c, 12, 57, 64
13, 307410, Note_on_c, 12, 60, 127
13, 307427, Note_on_c, 12, 53, 127
13, 307434, Note_off_c, 12, 58, 64
13, 307506, Note_off_c, 12, 60, 64
13, 307536, Note_on_c, 12, 57, 127
13, 307558, Note_off_c, 12, 53, 64
13, 307638, Note_off_c, 12, 57, 64
13, 307670, Note_on_c, 12, 58, 127
13, 307674, Note_on_c, 12, 46, 127
13, 307686, Note_on_c, 12, 62, 127
13, 307713, Note_on_c, 12, 65, 127
13, 307742, Note_on_c, 12, 68, 127
13, 307810, Note_off_c, 12, 46, 64
13, 307913, Note_on_c, 12, 50, 127
13, 308029, Note_off_c, 12, 50, 64
13, 308150, Note_on_c, 12, 53, 127
13, 308235, Note_off_c, 12, 65, 64
13, 308235, Note_off_c, 12, 68, 64
13, 308241, Note_off_c, 12, 62, 64
13, 308242, Note_off_c, 12, 58, 64
13, 308282, Note_off_c, 12, 53, 64
13, 308392, Note_on_c, 12, 50, 127
13, 308535, Note_off_c, 12, 50, 64
13, 308632, Note_on_c, 12, 53, 127
13, 308738, Note_off_c, 12, 53, 64
13, 308869, Note_on_c, 12, 58, 127
13, 308987, Note_off_c, 12, 58, 64
13, 309110, Note_on_c, 12, 63, 127
13, 309120, Note_on_c, 12, 39, 127
13, 309141, Note_on_c, 12, 66, 127
13, 309175, Note_on_c, 12, 70, 127
13, 309377, Note_off_c, 12, 39, 64
13, 309692, Note_off_c, 12, 66, 64
13, 309693, Note_off_c, 12, 70, 64
13, 309699, Note_off_c, 12, 63, 64
13, 310488, Note_on_c, 12, 60, 127
13, 310543, Note_on_c, 12, 63, 127
13, 310554, Note_on_c, 12, 51, 127
13, 310595, Note_on_c, 12, 65, 127
13, 310635, Note_on_c, 12, 69, 127
13, 310871, Note_off_c, 12, 51, 64
13, 311103, Note_off_c, 12, 65, 64
13, 311104, Note_off_c, 12, 63, 64
13, 311107, Note_off_c, 12, 60, 64
13, 311153, Note_off_c, 12, 69, 64
13, 311999, Note_on_c, 12, 49, 127
13, 311999, Note_on_c, 12, 65, 127
13, 311999, Note_on_c, 12, 61, 127
13, 311999, Note_on_c, 12, 70, 127
13, 312141, Note_off_c, 12, 49, 64
13, 312239, Note_on_c, 12, 48, 127
13, 312287, Note_off_c, 12, 65, 64
13, 312287, Note_off_c, 12, 61, 64
13, 312297, Note_off_c, 12, 70, 64
13, 312324, Note_off_c, 12, 48, 64
13, 312468, Note_on_c, 12, 70, 127
13, 312468, Note_on_c, 12, 65, 127
13, 312468, Note_on_c, 12, 61, 127
13, 312475, Note_on_c, 12, 46, 127
13, 312520, Note_off_c, 12, 65, 64
13, 312520, Note_off_c, 12, 61, 64
13, 312531, Note_off_c, 12, 70, 64
13, 312573, Note_off_c, 12, 46, 64
13, 312711, Note_on_c, 12, 65, 127
13, 312711, Note_on_c, 12, 60, 127
13, 312712, Note_on_c, 12, 70, 127
13, 312719, Note_on_c, 12, 53, 127
13, 313013, Note_off_c, 12, 53, 64
13, 313022, Note_off_c, 12, 65, 64
13, 313022, Note_off_c, 12, 60, 64
13, 313024, Note_off_c, 12, 70, 64
13, 313195, Note_on_c, 12, 41, 127
13, 313196, Note_on_c, 12, 65, 127
13, 313196, Note_on_c, 12, 60, 127
13, 313197, Note_on_c, 12, 69, 127
13, 313245, Note_off_c, 12, 65, 64
13, 313245, Note_off_c, 12, 60, 64
13, 313248, Note_off_c, 12, 69, 64
13, 313279, Note_off_c, 12, 41, 64
13, 313436, Note_on_c, 12, 46, 127
13, 313439, Note_on_c, 12, 70, 127
13, 313439, Note_on_c, 12, 65, 127
13, 313439, Note_on_c, 12, 61, 127
13, 313550, Note_on_c, 12, 63, 127
13, 313572, Note_off_c, 12, 61, 64
13, 313623, Note_off_c, 12, 46, 64
13, 313673, Note_on_c, 12, 61, 127
13, 313677, Note_on_c, 12, 49, 127
13, 313680, Note_off_c, 12, 63, 64
13, 313767, Note_off_c, 12, 49, 64
13, 313783, Note_on_c, 12, 60, 127
13, 313787, Note_off_c, 12, 61, 64
13, 313813, Note_off_c, 12, 65, 64
13, 313827, Note_off_c, 12, 70, 64
13, 313887, Note_off_c, 12, 60, 64
13, 313906, Note_on_c, 12, 58, 127
13, 313915, Note_on_c, 12, 53, 127
13, 314024, Note_off_c, 12, 53, 64
13, 314029, Note_off_c, 12, 58, 64
13, 314030, Note_on_c, 12, 57, 127
13, 314122, Note_off_c, 12, 57, 64
13, 314156, Note_on_c, 12, 58, 127
13, 314399, Note_on_c, 12, 56, 127
13, 314400, Note_on_c, 12, 65, 127
13, 314400, Note_on_c, 12, 61, 127
13, 314402, Note_on_c, 12, 70, 127
13, 314416, Note_off_c, 12, 58, 64
13, 314500, Note_off_c, 12, 56, 64
13, 314515, Note_on_c, 12, 54, 127
13, 314530, Note_off_c, 12, 61, 64
13, 314533, Note_off_c, 12, 65, 64
13, 314548, Note_off_c, 12, 70, 64
13, 314596, Note_off_c, 12, 54, 64
13, 314633, Note_on_c, 12, 53, 127
13, 314709, Note_off_c, 12, 53, 64
13, 314751, Note_on_c, 12, 51, 127
13, 314835, Note_off_c, 12, 51, 64
13, 314880, Note_on_c, 12, 50, 127
13, 314880, Note_on_c, 12, 68, 127
13, 314880, Note_on_c, 12, 65, 127
13, 315042, Note_off_c, 12, 50, 64
13, 315116, Note_on_c, 12, 53, 127
13, 315188, Note_off_c, 12, 68, 64
13, 315188, Note_off_c, 12, 65, 64
13, 315192, Note_off_c, 12, 53, 64
13, 315351, Note_on_c, 12, 58, 127
13, 315359, Note_on_c, 12, 68, 127
13, 315359, Note_on_c, 12, 65, 127
13, 315407, Note_off_c, 12, 68, 64
13, 315407, Note_off_c, 12, 65, 64
13, 315444, Note_off_c, 12, 58, 64
13, 315595, Note_on_c, 12, 46, 127
13, 315599, Note_on_c, 12, 68, 127
13, 315599, Note_on_c, 12, 65, 127
13, 315738, Note_off_c, 12, 46, 64
13, 315834, Note_on_c, 12, 53, 127
13, 315887, Note_off_c, 12, 68, 64
13, 315887, Note_off_c, 12, 65, 64
13, 315908, Note_off_c, 12, 53, 64
13, 316073, Note_on_c, 12, 58, 127
13, 316076, Note_on_c, 12, 68, 127
13, 316076, Note_on_c, 12, 65, 127
13, 316113, Note_off_c, 12, 68, 64
13, 316113, Note_off_c, 12, 65, 64
13, 316161, Note_off_c, 12, 58, 64
13, 316314, Note_on_c, 12, 51, 127
13, 316320, Note_on_c, 12, 68, 127
13, 316320, Note_on_c, 12, 65, 127
13, 316463, Note_off_c, 12, 51, 64
13, 316553, Note_on_c, 12, 54, 127
13, 316558, Note_on_c, 12, 66, 127
13, 316558, Note_on_c, 12, 63, 127
13, 316559, Note_off_c, 12, 68, 64
13, 316559, Note_off_c, 12, 65, 64
13, 316607, Note_off_c, 12, 66, 64
13, 316607, Note_off_c, 12, 63, 64
13, 316644, Note_off_c, 12, 54, 64
13, 316791, Note_on_c, 12, 58, 127
13, 316800, Note_on_c, 12, 65, 127
13, 316800, Note_on_c, 12, 62, 127
13, 316844, Note_off_c, 12, 65, 64
13, 316844, Note_off_c, 12, 62, 64
13, 316890, Note_off_c, 12, 58, 64
13, 317038, Note_on_c, 12, 66, 127
13, 317038, Note_on_c, 12, 63, 127
13, 317277, Note_on_c, 12, 61, 127
13, 317316, Note_off_c, 12, 63, 64
13, 317352, Note_off_c, 12, 66, 64
13, 317367, Note_off_c, 12, 61, 64
13, 317393, Note_on_c, 12, 59, 127
13, 317491, Note_off_c, 12, 59, 64
13, 317508, Note_on_c, 12, 58, 127
13, 317592, Note_off_c, 12, 58, 64
13, 317627, Note_on_c, 12, 56, 127
13, 317709, Note_off_c, 12, 56, 64
13, 317750, Note_on_c, 12, 55, 127
13, 317750, Note_on_c, 12, 61, 127
13, 317759, Note_on_c, 12, 63, 127
13, 317784, Note_on_c, 12, 70, 127
13, 317893, Note_off_c, 12, 55, 64
13, 317993, Note_on_c, 12, 58, 127
13, 318091, Note_off_c, 12, 58, 64
13, 318103, Note_off_c, 12, 61, 64
13, 318108, Note_off_c, 12, 63, 64
13, 318109, Note_off_c, 12, 70, 64
13, 318232, Note_on_c, 12, 63, 127
13, 318337, Note_off_c, 12, 63, 64
13, 318475, Note_on_c, 12, 70, 127
13, 318475, Note_on_c, 12, 67, 127
13, 318475, Note_on_c, 12, 63, 127
13, 318477, Note_on_c, 12, 51, 127
13, 318628, Note_off_c, 12, 51, 64
13, 318722, Note_on_c, 12, 58, 127
13, 318773, Note_off_c, 12, 70, 64
13, 318773, Note_off_c, 12, 67, 64
13, 318773, Note_off_c, 12, 63, 64
13, 318818, Note_off_c, 12, 58, 64
13, 318959, Note_on_c, 12, 63, 127
13, 319062, Note_off_c, 12, 63, 64
13, 319199, Note_on_c, 12, 44, 127
13, 319204, Note_on_c, 12, 70, 127
13, 319204, Note_on_c, 12, 67, 127
13, 319352, Note_off_c, 12, 44, 64
13, 319435, Note_off_c, 12, 70, 64
13, 319435, Note_off_c, 12, 67, 64
13, 319439, Note_on_c, 12, 47, 127
13, 319444, Note_on_c, 12, 68, 127
13, 319444, Note_on_c, 12, 63, 127
13, 319510, Note_off_c, 12, 68, 64
13, 319510, Note_off_c, 12, 63, 64
13, 319549, Note_off_c, 12, 47, 64
13, 319675, Note_on_c, 12, 67, 127
13, 319675, Note_on_c, 12, 61, 127
13, 319677, Note_on_c, 12, 51, 127
13, 319731, Note_off_c, 12, 67, 64
13, 319731, Note_off_c, 12, 61, 64
13, 319778, Note_off_c, 12, 51, 64
13, 319919, Note_on_c, 12, 56, 127
13, 319919, Note_on_c, 12, 68, 127
13, 319919, Note_on_c, 12, 63, 127
13, 319919, Note_on_c, 12, 59, 127
13, 320030, Note_on_c, 12, 58, 127
13, 320041, Note_off_c, 12, 56, 64
13, 320124, Note_off_c, 12, 58, 64
13, 320150, Note_on_c, 12, 56, 127
13, 320207, Note_off_c, 12, 68, 64
13, 320207, Note_off_c, 12, 63, 64
13, 320207, Note_off_c, 12, 59, 64
13, 320251, Note_off_c, 12, 56, 64
13, 320269, Note_on_c, 12, 54, 127
13, 320359, Note_off_c, 12, 54, 64
13, 320391, Note_on_c, 12, 52, 127
13, 320478, Note_off_c, 12, 52, 64
13, 320509, Note_on_c, 12, 51, 127
13, 320591, Note_off_c, 12, 51, 64
13, 320637, Note_on_c, 12, 49, 127
13, 320637, Note_on_c, 12, 71, 127
13, 320637, Note_on_c, 12, 68, 127
13, 320637, Note_on_c, 12, 64, 127
13, 320807, Note_off_c, 12, 49, 64
13, 320877, Note_on_c, 12, 56, 127
13, 320941, Note_off_c, 12, 71, 64
13, 320941, Note_off_c, 12, 68, 64
13, 320941, Note_off_c, 12, 64, 64
13, 320986, Note_off_c, 12, 56, 64
13, 321114, Note_on_c, 12, 61, 127
13, 321216, Note_off_c, 12, 61, 64
13, 321351, Note_on_c, 12, 70, 127
13, 321351, Note_on_c, 12, 66, 127
13, 321351, Note_on_c, 12, 61, 127
13, 321354, Note_on_c, 12, 54, 127
13, 321539, Note_off_c, 12, 54, 64
13, 321599, Note_on_c, 12, 49, 127
13, 321635, Note_off_c, 12, 70, 64
13, 321635, Note_off_c, 12, 66, 64
13, 321635, Note_off_c, 12, 61, 64
13, 321708, Note_off_c, 12, 49, 64
13, 321840, Note_on_c, 12, 42, 127
13, 321928, Note_off_c, 12, 42, 64
13, 322065, Note_on_c, 12, 70, 127
13, 322065, Note_on_c, 12, 66, 127
13, 322065, Note_on_c, 12, 63, 127
13, 322081, Note_on_c, 12, 47, 127
13, 322279, Note_off_c, 12, 47, 64
13, 322322, Note_on_c, 12, 54, 127
13, 322367, Note_off_c, 12, 70, 64
13, 322367, Note_off_c, 12, 66, 64
13, 322367, Note_off_c, 12, 63, 64
13, 322415, Note_off_c, 12, 54, 64
13, 322555, Note_on_c, 12, 59, 127
13, 322652, Note_off_c, 12, 59, 64
13, 322792, Note_on_c, 12, 68, 127
13, 322792, Note_on_c, 12, 63, 127
13, 322792, Note_on_c, 12, 59, 127
13, 322794, Note_on_c, 12, 52, 127
13, 322972, Note_off_c, 12, 52, 64
13, 323039, Note_on_c, 12, 47, 127
13, 323066, Note_off_c, 12, 68, 64
13, 323066, Note_off_c, 12, 63, 64
13, 323066, Note_off_c, 12, 59, 64
13, 323136, Note_off_c, 12, 47, 64
13, 323278, Note_on_c, 12, 40, 127
13, 323375, Note_off_c, 12, 40, 64
13, 323520, Note_on_c, 12, 52, 127
13, 323520, Note_on_c, 12, 58, 127
13, 323521, Note_on_c, 12, 61, 127
13, 323521, Note_on_c, 12, 66, 127
13, 323732, Note_off_c, 12, 52, 64
13, 324041, Note_off_c, 12, 66, 64
13, 324063, Note_off_c, 12, 58, 64
13, 324078, Note_off_c, 12, 61, 64
13, 324240, Note_on_c, 12, 59, 127
13, 324240, Note_on_c, 12, 63, 127
13, 324240, Note_on_c, 12, 66, 127
13, 324242, Note_on_c, 12, 51, 127
13, 324450, Note_off_c, 12, 51, 64
13, 324825, Note_off_c, 12, 66, 64
13, 324834, Note_off_c, 12, 59, 64
13, 324838, Note_off_c, 12, 63, 64
13, 324929, Note_on_c, 12, 61, 127
13, 324958, Note_on_c, 12, 49, 127
13, 324963, Note_on_c, 12, 64, 127
13, 324980, Note_on_c, 12, 66, 127
13, 325163, Note_off_c, 12, 49, 64
13, 325545, Note_off_c, 12, 66, 64
13, 325547, Note_off_c, 12, 64, 64
13, 325552, Note_off_c, 12, 61, 64
13, 325622, Note_on_c, 12, 59, 127
13, 325657, Note_on_c, 12, 63, 127
13, 325676, Note_on_c, 12, 47, 127
13, 325677, Note_on_c, 12, 66, 127
13, 325866, Note_off_c, 12, 47, 64
13, 326212, Note_off_c, 12, 63, 64
13, 326212, Note_off_c, 12, 66, 64
13, 326218, Note_off_c, 12, 59, 64
13, 326386, Note_on_c, 12, 46, 127
13, 326386, Note_on_c, 12, 61, 127
13, 326386, Note_on_c, 12, 58, 127
13, 326387, Note_on_c, 12, 66, 127
13, 326508, Note_off_c, 12, 46, 64
13, 326626, Note_on_c, 12, 49, 127
13, 326668, Note_off_c, 12, 61, 64
13, 326671, Note_off_c, 12, 58, 64
13, 326674, Note_off_c, 12, 66, 64
13, 326711, Note_off_c, 12, 49, 64
13, 326864, Note_on_c, 12, 58, 127
13, 326864, Note_on_c, 12, 61, 127
13, 326864, Note_on_c, 12, 66, 127
13, 326867, Note_on_c, 12, 54, 127
13, 326906, Note_off_c, 12, 58, 64
13, 326906, Note_off_c, 12, 61, 64
13, 326911, Note_off_c, 12, 66, 64
13, 326968, Note_off_c, 12, 54, 64
13, 327114, Note_on_c, 12, 47, 127
13, 327115, Note_on_c, 12, 59, 127
13, 327115, Note_on_c, 12, 66, 127
13, 327115, Note_on_c, 12, 63, 127
13, 327250, Note_off_c, 12, 47, 64
13, 327354, Note_on_c, 12, 51, 127
13, 327416, Note_off_c, 12, 63, 64
13, 327417, Note_off_c, 12, 59, 64
13, 327421, Note_off_c, 12, 66, 64
13, 327433, Note_off_c, 12, 51, 64
13, 327592, Note_on_c, 12, 54, 127
13, 327596, Note_on_c, 12, 59, 127
13, 327596, Note_on_c, 12, 63, 127
13, 327597, Note_on_c, 12, 66, 127
13, 327638, Note_off_c, 12, 63, 64
13, 327639, Note_off_c, 12, 59, 64
13, 327643, Note_off_c, 12, 66, 64
13, 327689, Note_off_c, 12, 54, 64
13, 327830, Note_on_c, 12, 61, 127
13, 327830, Note_on_c, 12, 66, 127
13, 327831, Note_on_c, 12, 64, 127
13, 327839, Note_on_c, 12, 46, 127
13, 327911, Note_off_c, 12, 46, 64
13, 327958, Note_on_c, 12, 49, 127
13, 328026, Note_off_c, 12, 49, 64
13, 328075, Note_on_c, 12, 42, 127
13, 328120, Note_off_c, 12, 64, 64
13, 328122, Note_off_c, 12, 61, 64
13, 328123, Note_off_c, 12, 66, 64
13, 328140, Note_off_c, 12, 42, 64
13, 328195, Note_on_c, 12, 49, 127
13, 328258, Note_off_c, 12, 49, 64
13, 328312, Note_on_c, 12, 46, 127
13, 328319, Note_on_c, 12, 64, 127
13, 328320, Note_on_c, 12, 66, 127
13, 328320, Note_on_c, 12, 61, 127
13, 328361, Note_off_c, 12, 61, 64
13, 328363, Note_off_c, 12, 64, 64
13, 328366, Note_off_c, 12, 66, 64
13, 328384, Note_off_c, 12, 46, 64
13, 328431, Note_on_c, 12, 49, 127
13, 328496, Note_off_c, 12, 49, 64
13, 328553, Note_on_c, 12, 59, 127
13, 328553, Note_on_c, 12, 63, 127
13, 328554, Note_on_c, 12, 66, 127
13, 328557, Note_on_c, 12, 47, 127
13, 328645, Note_off_c, 12, 47, 64
13, 328677, Note_on_c, 12, 51, 127
13, 328747, Note_off_c, 12, 51, 64
13, 328795, Note_on_c, 12, 42, 127
13, 328829, Note_off_c, 12, 63, 64
13, 328834, Note_off_c, 12, 66, 64
13, 328835, Note_off_c, 12, 59, 64
13, 328864, Note_off_c, 12, 42, 64
13, 328913, Note_on_c, 12, 51, 127
13, 328984, Note_off_c, 12, 51, 64
13, 329034, Note_on_c, 12, 47, 127
13, 329034, Note_on_c, 12, 63, 127
13, 329034, Note_on_c, 12, 59, 127
13, 329035, Note_on_c, 12, 66, 127
13, 329080, Note_off_c, 12, 63, 64
13, 329083, Note_off_c, 12, 59, 64
13, 329086, Note_off_c, 12, 66, 64
13, 329110, Note_off_c, 12, 47, 64
13, 329152, Note_on_c, 12, 51, 127
13, 329217, Note_off_c, 12, 51, 64
13, 329278, Note_on_c, 12, 41, 127
13, 329278, Note_on_c, 12, 59, 127
13, 329314, Note_on_c, 12, 62, 127
13, 329330, Note_on_c, 12, 65, 127
13, 329354, Note_on_c, 12, 68, 127
13, 329403, Note_off_c, 12, 41, 64
13, 329517, Note_on_c, 12, 41, 127
13, 329641, Note_off_c, 12, 41, 64
13, 329757, Note_on_c, 12, 41, 127
13, 329874, Note_off_c, 12, 59, 64
13, 329874, Note_off_c, 12, 68, 64
13, 329877, Note_off_c, 12, 62, 64
13, 329880, Note_off_c, 12, 65, 64
13, 329886, Note_off_c, 12, 41, 64
13, 329997, Note_on_c, 12, 41, 127
13, 330125, Note_off_c, 12, 41, 64
13, 330238, Note_on_c, 12, 41, 127
13, 330341, Note_off_c, 12, 41, 64
13, 330476, Note_on_c, 12, 41, 127
13, 330584, Note_off_c, 12, 41, 64
13, 330692, Note_on_c, 12, 58, 127
13, 330717, Note_on_c, 12, 40, 127
13, 330727, Note_on_c, 12, 61, 127
13, 330760, Note_on_c, 12, 66, 127
13, 330868, Note_off_c, 12, 40, 64
13, 330954, Note_on_c, 12, 40, 127
13, 331064, Note_off_c, 12, 40, 64
13, 331191, Note_on_c, 12, 40, 127
13, 331278, Note_off_c, 12, 66, 64
13, 331285, Note_off_c, 12, 61, 64
13, 331286, Note_off_c, 12, 40, 64
13, 331289, Note_off_c, 12, 58, 64
13, 331433, Note_on_c, 12, 40, 127
13, 331553, Note_off_c, 12, 40, 64
13, 331675, Note_on_c, 12, 40, 127
13, 331749, Note_off_c, 12, 40, 64
13, 331913, Note_on_c, 12, 40, 127
13, 332001, Note_off_c, 12, 40, 64
13, 332158, Note_on_c, 12, 39, 127
13, 332158, Note_on_c, 12, 54, 127
13, 332158, Note_on_c, 12, 59, 127
13, 332421, Note_off_c, 12, 54, 64
13, 332421, Note_off_c, 12, 59, 64
13, 332717, Note_off_c, 12, 39, 64
13, 332881, Note_on_c, 12, 40, 127
13, 332881, Note_on_c, 12, 56, 127
13, 332881, Note_on_c, 12, 59, 127
13, 333124, Note_off_c, 12, 40, 64
13, 333124, Note_off_c, 12, 56, 64
13, 333124, Note_off_c, 12, 59, 64
13, 333594, Note_on_c, 12, 42, 127
13, 333594, Note_on_c, 12, 59, 127
13, 333594, Note_on_c, 12, 51, 127
13, 333888, Note_off_c, 12, 42, 64
13, 333888, Note_off_c, 12, 59, 64
13, 333888, Note_off_c, 12, 51, 64
13, 334313, Note_on_c, 12, 44, 127
13, 334313, Note_on_c, 12, 59, 127
13, 334313, Note_on_c, 12, 52, 127
13, 334563, Note_off_c, 12, 44, 64
13, 334563, Note_off_c, 12, 59, 64
13, 334563, Note_off_c, 12, 52, 64
13, 335042, Note_on_c, 12, 39, 127
13, 335042, Note_on_c, 12, 54, 127
13, 335042, Note_on_c, 12, 59, 127
13, 335320, Note_off_c, 12, 39, 64
13, 335320, Note_off_c, 12, 54, 64
13, 335320, Note_off_c, 12, 59, 64
13, 335757, Note_on_c, 12, 40, 127
13, 335757, Note_on_c, 12, 56, 127
13, 335757, Note_on_c, 12, 59, 127
13, 336073, Note_off_c, 12, 40, 64
13, 336073, Note_off_c, 12, 56, 64
13, 336073, Note_off_c, 12, 59, 64
13, 336477, Note_on_c, 12, 42, 127
13, 336477, Note_on_c, 12, 59, 127
13, 336477, Note_on_c, 12, 54, 127
13, 336637, Note_off_c, 12, 42, 64
13, 336722, Note_on_c, 12, 40, 127
13, 336722, Note_on_c, 12, 63, 127
13, 336722, Note_on_c, 12, 59, 127
13, 336789, Note_off_c, 12, 59, 64
13, 336789, Note_off_c, 12, 54, 64
13, 336791, Note_off_c, 12, 63, 64
13, 336791, Note_off_c, 12, 59, 64
13, 336862, Note_off_c, 12, 40, 64
13, 336961, Note_on_c, 12, 42, 127
13, 336964, Note_on_c, 12, 58, 127
13, 336964, Note_on_c, 12, 61, 127
13, 337012, Note_off_c, 12, 58, 64
13, 337012, Note_off_c, 12, 61, 64
13, 337101, Note_off_c, 12, 42, 64
13, 337199, Note_on_c, 12, 59, 127
13, 337199, Note_on_c, 12, 63, 127
13, 337205, Note_on_c, 12, 35, 127
13, 337485, Note_off_c, 12, 59, 64
13, 337485, Note_off_c, 12, 63, 64
13, 337564, Note_off_c, 12, 35, 64
13, 337669, Note_on_c, 12, 37, 127
13, 337795, Note_off_c, 12, 37, 64
13, 337915, Note_on_c, 12, 39, 127
13, 337920, Note_on_c, 12, 59, 127
13, 337920, Note_on_c, 12, 63, 127
13, 337922, Note_on_c, 12, 66, 127
13, 338067, Note_off_c, 12, 39, 64
13, 338157, Note_on_c, 12, 37, 127
13, 338226, Note_off_c, 12, 63, 64
13, 338230, Note_off_c, 12, 66, 64
13, 338231, Note_off_c, 12, 59, 64
13, 338298, Note_off_c, 12, 37, 64
13, 338400, Note_on_c, 12, 35, 127
13, 338403, Note_on_c, 12, 63, 127
13, 338403, Note_on_c, 12, 59, 127
13, 338403, Note_on_c, 12, 66, 127
13, 338441, Note_off_c, 12, 63, 64
13, 338446, Note_off_c, 12, 59, 64
13, 338449, Note_off_c, 12, 66, 64
13, 338516, Note_off_c, 12, 35, 64
13, 338628, Note_on_c, 12, 58, 127
13, 338642, Note_on_c, 12, 42, 127
13, 338655, Note_on_c, 12, 61, 127
13, 338681, Note_on_c, 12, 66, 127
13, 338775, Note_off_c, 12, 42, 64
13, 338881, Note_on_c, 12, 44, 127
13, 339006, Note_off_c, 12, 44, 64
13, 339027, Note_off_c, 12, 66, 64
13, 339028, Note_off_c, 12, 61, 64
13, 339033, Note_off_c, 12, 58, 64
13, 339118, Note_on_c, 12, 46, 127
13, 339122, Note_on_c, 12, 58, 127
13, 339122, Note_on_c, 12, 61, 127
13, 339122, Note_on_c, 12, 66, 127
13, 339166, Note_off_c, 12, 61, 64
13, 339169, Note_off_c, 12, 58, 64
13, 339176, Note_off_c, 12, 66, 64
13, 339244, Note_off_c, 12, 46, 64
13, 339357, Note_on_c, 12, 47, 127
13, 339362, Note_on_c, 12, 59, 127
13, 339362, Note_on_c, 12, 63, 127
13, 339362, Note_on_c, 12, 66, 127
13, 339616, Note_off_c, 12, 47, 64
13, 339680, Note_off_c, 12, 63, 64
13, 339682, Note_off_c, 12, 59, 64
13, 339690, Note_off_c, 12, 66, 64
13, 340076, Note_on_c, 12, 54, 127
13, 340076, Note_on_c, 12, 61, 127
13, 340076, Note_on_c, 12, 66, 127
13, 340076, Note_on_c, 12, 58, 127
13, 340380, Note_off_c, 12, 61, 64
13, 340382, Note_off_c, 12, 54, 64
13, 340382, Note_off_c, 12, 58, 64
13, 340389, Note_off_c, 12, 66, 64
13, 340798, Note_on_c, 12, 47, 127
13, 340799, Note_on_c, 12, 63, 127
13, 340799, Note_on_c, 12, 66, 127
13, 340800, Note_on_c, 12, 59, 127
13, 341076, Note_off_c, 12, 47, 64
13, 341083, Note_off_c, 12, 63, 64
13, 341086, Note_off_c, 12, 59, 64
13, 341087, Note_off_c, 12, 66, 64
13, 341516, Note_on_c, 12, 66, 127
13, 341517, Note_on_c, 12, 61, 127
13, 341518, Note_on_c, 12, 58, 127
13, 341520, Note_on_c, 12, 42, 127
13, 341790, Note_off_c, 12, 42, 64
13, 341809, Note_off_c, 12, 61, 64
13, 341812, Note_off_c, 12, 58, 64
13, 341815, Note_off_c, 12, 66, 64
13, 342240, Note_on_c, 12, 47, 127
13, 342241, Note_on_c, 12, 63, 127
13, 342241, Note_on_c, 12, 66, 127
13, 342242, Note_on_c, 12, 59, 127
13, 342361, Note_on_c, 12, 46, 127
13, 342368, Note_off_c, 12, 47, 64
13, 342446, Note_off_c, 12, 46, 64
13, 342475, Note_on_c, 12, 47, 127
13, 342565, Note_off_c, 12, 47, 64
13, 342587, Note_off_c, 12, 63, 64
13, 342589, Note_off_c, 12, 59, 64
13, 342591, Note_on_c, 12, 49, 127
13, 342594, Note_off_c, 12, 66, 64
13, 342682, Note_off_c, 12, 49, 64
13, 342708, Note_on_c, 12, 63, 127
13, 342708, Note_on_c, 12, 59, 127
13, 342709, Note_on_c, 12, 66, 127
13, 342710, Note_on_c, 12, 51, 127
13, 342759, Note_off_c, 12, 63, 64
13, 342759, Note_off_c, 12, 59, 64
13, 342769, Note_off_c, 12, 66, 64
13, 342823, Note_off_c, 12, 51, 64
13, 342834, Note_on_c, 12, 52, 127
13, 342923, Note_off_c, 12, 52, 64
13, 342940, Note_on_c, 12, 66, 127
13, 342940, Note_on_c, 12, 61, 127
13, 342941, Note_on_c, 12, 58, 127
13, 342953, Note_on_c, 12, 54, 127
13, 343067, Note_on_c, 12, 56, 127
13, 343079, Note_off_c, 12, 54, 64
13, 343165, Note_off_c, 12, 56, 64
13, 343189, Note_on_c, 12, 54, 127
13, 343283, Note_off_c, 12, 61, 64
13, 343287, Note_off_c, 12, 58, 64
13, 343290, Note_off_c, 12, 54, 64
13, 343292, Note_off_c, 12, 66, 64
13, 343308, Note_on_c, 12, 52, 127
13, 343403, Note_off_c, 12, 52, 64
13, 343420, Note_on_c, 12, 61, 127
13, 343420, Note_on_c, 12, 58, 127
13, 343420, Note_on_c, 12, 66, 127
13, 343426, Note_on_c, 12, 51, 127
13, 343486, Note_off_c, 12, 61, 64
13, 343489, Note_off_c, 12, 58, 64
13, 343495, Note_off_c, 12, 66, 64
13, 343535, Note_off_c, 12, 51, 64
13, 343546, Note_on_c, 12, 49, 127
13, 343644, Note_on_c, 12, 59, 127
13, 343646, Note_off_c, 12, 49, 64
13, 343660, Note_on_c, 12, 63, 127
13, 343672, Note_on_c, 12, 47, 127
13, 343685, Note_on_c, 12, 66, 127
13, 343790, Note_off_c, 12, 47, 64
13, 343793, Note_on_c, 12, 46, 127
13, 343893, Note_off_c, 12, 46, 64
13, 343907, Note_on_c, 12, 47, 127
13, 344016, Note_off_c, 12, 47, 64
13, 344027, Note_on_c, 12, 49, 127
13, 344059, Note_off_c, 12, 63, 64
13, 344065, Note_off_c, 12, 59, 64
13, 344079, Note_off_c, 12, 66, 64
13, 344122, Note_off_c, 12, 49, 64
13, 344149, Note_on_c, 12, 51, 127
13, 344242, Note_off_c, 12, 51, 64
13, 344265, Note_on_c, 12, 47, 127
13, 344371, Note_off_c, 12, 47, 64
13, 344393, Note_on_c, 12, 53, 127
13, 344400, Note_on_c, 12, 68, 127
13, 344400, Note_on_c, 12, 61, 127
13, 344400, Note_on_c, 12, 59, 127
13, 344507, Note_off_c, 12, 53, 64
13, 344510, Note_on_c, 12, 54, 127
13, 344618, Note_off_c, 12, 54, 64
13, 344629, Note_on_c, 12, 53, 127
13, 344711, Note_off_c, 12, 68, 64
13, 344711, Note_off_c, 12, 61, 64
13, 344711, Note_off_c, 12, 59, 64
13, 344727, Note_off_c, 12, 53, 64
13, 344744, Note_on_c, 12, 51, 127
13, 344857, Note_off_c, 12, 51, 64
13, 344867, Note_on_c, 12, 49, 127
13, 344961, Note_off_c, 12, 49, 64
13, 344985, Note_on_c, 12, 47, 127
13, 345093, Note_off_c, 12, 47, 64
13, 345109, Note_on_c, 12, 68, 127
13, 345109, Note_on_c, 12, 61, 127
13, 345109, Note_on_c, 12, 65, 127
13, 345111, Note_on_c, 12, 46, 127
13, 345231, Note_on_c, 12, 44, 127
13, 345232, Note_off_c, 12, 46, 64
13, 345332, Note_off_c, 12, 44, 64
13, 345347, Note_on_c, 12, 46, 127
13, 345395, Note_off_c, 12, 68, 64
13, 345395, Note_off_c, 12, 61, 64
13, 345395, Note_off_c, 12, 65, 64
13, 345455, Note_off_c, 12, 46, 64
13, 345470, Note_on_c, 12, 47, 127
13, 345567, Note_off_c, 12, 47, 64
13, 345592, Note_on_c, 12, 49, 127
13, 345679, Note_off_c, 12, 49, 64
13, 345707, Note_on_c, 12, 46, 127
13, 345804, Note_off_c, 12, 46, 64
13, 345827, Note_on_c, 12, 66, 127
13, 345827, Note_on_c, 12, 61, 127
13, 345827, Note_on_c, 12, 58, 127
13, 345834, Note_on_c, 12, 51, 127
13, 345953, Note_on_c, 12, 53, 127
13, 345959, Note_off_c, 12, 51, 64
13, 346038, Note_off_c, 12, 53, 64
13, 346073, Note_on_c, 12, 51, 127
13, 346132, Note_off_c, 12, 66, 64
13, 346132, Note_off_c, 12, 61, 64
13, 346132, Note_off_c, 12, 58, 64
13, 346176, Note_off_c, 12, 51, 64
13, 346187, Note_on_c, 12, 49, 127
13, 346293, Note_off_c, 12, 49, 64
13, 346307, Note_on_c, 12, 47, 127
13, 346401, Note_off_c, 12, 47, 64
13, 346425, Note_on_c, 12, 46, 127
13, 346526, Note_off_c, 12, 46, 64
13, 346537, Note_on_c, 12, 66, 127
13, 346537, Note_on_c, 12, 59, 127
13, 346537, Note_on_c, 12, 63, 127
13, 346551, Note_on_c, 12, 44, 127
13, 346671, Note_on_c, 12, 42, 127
13, 346673, Note_off_c, 12, 44, 64
13, 346765, Note_off_c, 12, 42, 64
13, 346788, Note_on_c, 12, 44, 127
13, 346841, Note_off_c, 12, 66, 64
13, 346841, Note_off_c, 12, 59, 64
13, 346841, Note_off_c, 12, 63, 64
13, 346899, Note_off_c, 12, 44, 64
13, 346911, Note_on_c, 12, 46, 127
13, 347005, Note_off_c, 12, 46, 64
13, 347033, Note_on_c, 12, 47, 127
13, 347123, Note_off_c, 12, 47, 64
13, 347146, Note_on_c, 12, 44, 127
13, 347247, Note_off_c, 12, 44, 64
13, 347270, Note_on_c, 12, 65, 127
13, 347270, Note_on_c, 12, 59, 127
13, 347270, Note_on_c, 12, 56, 127
13, 347273, Note_on_c, 12, 49, 127
13, 347392, Note_on_c, 12, 51, 127
13, 347397, Note_off_c, 12, 49, 64
13, 347481, Note_off_c, 12, 51, 64
13, 347512, Note_on_c, 12, 49, 127
13, 347538, Note_off_c, 12, 65, 64
13, 347538, Note_off_c, 12, 59, 64
13, 347554, Note_off_c, 12, 56, 64
13, 347610, Note_off_c, 12, 49, 64
13, 347627, Note_on_c, 12, 47, 127
13, 347722, Note_off_c, 12, 47, 64
13, 347749, Note_on_c, 12, 46, 127
13, 347840, Note_off_c, 12, 46, 64
13, 347863, Note_on_c, 12, 44, 127
13, 347953, Note_off_c, 12, 44, 64
13, 347989, Note_on_c, 12, 42, 127
13, 348000, Note_on_c, 12, 61, 127
13, 348000, Note_on_c, 12, 66, 127
13, 348000, Note_on_c, 12, 58, 127
13, 348242, Note_off_c, 12, 42, 64
13, 348312, Note_off_c, 12, 61, 64
13, 348314, Note_off_c, 12, 58, 64
13, 348316, Note_off_c, 12, 66, 64
13, 348712, Note_on_c, 12, 37, 127
13, 348716, Note_on_c, 12, 61, 127
13, 348717, Note_on_c, 12, 56, 127
13, 348717, Note_on_c, 12, 65, 127
13, 348920, Note_off_c, 12, 37, 64
13, 349027, Note_off_c, 12, 61, 64
13, 349029, Note_off_c, 12, 56, 64
13, 349031, Note_off_c, 12, 65, 64
13, 349436, Note_on_c, 12, 42, 127
13, 349439, Note_on_c, 12, 61, 127
13, 349440, Note_on_c, 12, 66, 127
13, 349440, Note_on_c, 12, 58, 127
13, 349614, Note_off_c, 12, 42, 64
13, 349730, Note_off_c, 12, 61, 64
13, 349731, Note_off_c, 12, 58, 64
13, 349732, Note_off_c, 12, 66, 64
13, 350146, Note_on_c, 12, 61, 127
13, 350147, Note_on_c, 12, 65, 127
13, 350147, Note_on_c, 12, 56, 127
13, 350154, Note_on_c, 12, 49, 127
13, 350335, Note_off_c, 12, 49, 64
13, 350417, Note_off_c, 12, 61, 64
13, 350422, Note_off_c, 12, 56, 64
13, 350425, Note_off_c, 12, 65, 64
13, 350873, Note_on_c, 12, 54, 127
13, 350880, Note_on_c, 12, 66, 127
13, 350882, Note_on_c, 12, 70, 127
13, 351000, Note_off_c, 12, 54, 64
13, 351117, Note_on_c, 12, 58, 127
13, 351189, Note_off_c, 12, 66, 64
13, 351196, Note_off_c, 12, 70, 64
13, 351245, Note_off_c, 12, 58, 64
13, 351355, Note_on_c, 12, 61, 127
13, 351361, Note_on_c, 12, 66, 127
13, 351361, Note_on_c, 12, 70, 127
13, 351404, Note_off_c, 12, 66, 64
13, 351409, Note_off_c, 12, 70, 64
13, 351461, Note_off_c, 12, 61, 64
13, 351593, Note_on_c, 12, 65, 127
13, 351595, Note_on_c, 12, 68, 127
13, 351596, Note_on_c, 12, 49, 127
13, 351731, Note_off_c, 12, 49, 64
13, 351834, Note_on_c, 12, 56, 127
13, 351885, Note_off_c, 12, 65, 64
13, 351890, Note_off_c, 12, 68, 64
13, 351938, Note_off_c, 12, 56, 64
13, 352073, Note_on_c, 12, 61, 127
13, 352082, Note_on_c, 12, 65, 127
13, 352082, Note_on_c, 12, 68, 127
13, 352126, Note_off_c, 12, 65, 64
13, 352129, Note_off_c, 12, 68, 64
13, 352169, Note_off_c, 12, 61, 64
13, 352321, Note_on_c, 12, 42, 127
13, 352321, Note_on_c, 12, 61, 127
13, 352322, Note_on_c, 12, 66, 127
13, 352323, Note_on_c, 12, 58, 127
13, 352419, Note_off_c, 12, 42, 64
13, 352436, Note_on_c, 12, 41, 127
13, 352516, Note_off_c, 12, 41, 64
13, 352554, Note_on_c, 12, 42, 127
13, 352652, Note_off_c, 12, 42, 64
13, 352675, Note_on_c, 12, 44, 127
13, 352703, Note_off_c, 12, 66, 64
13, 352704, Note_off_c, 12, 61, 64
13, 352705, Note_off_c, 12, 58, 64
13, 352762, Note_off_c, 12, 44, 64
13, 352796, Note_on_c, 12, 46, 127
13, 352883, Note_off_c, 12, 46, 64
13, 352914, Note_on_c, 12, 47, 127
13, 352997, Note_on_c, 12, 56, 127
13, 353000, Note_off_c, 12, 47, 64
13, 353013, Note_on_c, 12, 61, 127
13, 353038, Note_on_c, 12, 49, 127
13, 353049, Note_on_c, 12, 65, 127
13, 353151, Note_off_c, 12, 49, 64
13, 353155, Note_on_c, 12, 51, 127
13, 353248, Note_off_c, 12, 51, 64
13, 353277, Note_on_c, 12, 49, 127
13, 353327, Note_off_c, 12, 56, 64
13, 353363, Note_off_c, 12, 49, 64
13, 353393, Note_on_c, 12, 47, 127
13, 353493, Note_off_c, 12, 47, 64
13, 353497, Note_off_c, 12, 61, 64
13, 353498, Note_off_c, 12, 65, 64
13, 353517, Note_on_c, 12, 46, 127
13, 353603, Note_off_c, 12, 46, 64
13, 353634, Note_on_c, 12, 44, 127
13, 353724, Note_off_c, 12, 44, 64
13, 353756, Note_on_c, 12, 42, 127
13, 353756, Note_on_c, 12, 70, 127
13, 353756, Note_on_c, 12, 66, 127
13, 353756, Note_on_c, 12, 61, 127
13, 353868, Note_off_c, 12, 42, 64
13, 353877, Note_on_c, 12, 41, 127
13, 353962, Note_off_c, 12, 41, 64
13, 353995, Note_on_c, 12, 42, 127
13, 354087, Note_off_c, 12, 70, 64
13, 354087, Note_off_c, 12, 66, 64
13, 354087, Note_off_c, 12, 61, 64
13, 354102, Note_off_c, 12, 42, 64
13, 354114, Note_on_c, 12, 44, 127
13, 354204, Note_off_c, 12, 44, 64
13, 354233, Note_on_c, 12, 46, 127
13, 354320, Note_off_c, 12, 46, 64
13, 354348, Note_on_c, 12, 42, 127
13, 354454, Note_off_c, 12, 42, 64
13, 354473, Note_on_c, 12, 70, 127
13, 354473, Note_on_c, 12, 66, 127
13, 354473, Note_on_c, 12, 63, 127
13, 354476, Note_on_c, 12, 47, 127
13, 354587, Note_off_c, 12, 47, 64
13, 354592, Note_on_c, 12, 49, 127
13, 354679, Note_off_c, 12, 49, 64
13, 354713, Note_on_c, 12, 47, 127
13, 354772, Note_off_c, 12, 70, 64
13, 354772, Note_off_c, 12, 66, 64
13, 354772, Note_off_c, 12, 63, 64
13, 354819, Note_off_c, 12, 47, 64
13, 354829, Note_on_c, 12, 46, 127
13, 354933, Note_off_c, 12, 46, 64
13, 354951, Note_on_c, 12, 44, 127
13, 355051, Note_off_c, 12, 44, 64
13, 355069, Note_on_c, 12, 42, 127
13, 355169, Note_off_c, 12, 42, 64
13, 355195, Note_on_c, 12, 41, 127
13, 355195, Note_on_c, 12, 68, 127
13, 355195, Note_on_c, 12, 65, 127
13, 355195, Note_on_c, 12, 59, 127
13, 355315, Note_on_c, 12, 39, 127
13, 355319, Note_off_c, 12, 41, 64
13, 355421, Note_off_c, 12, 39, 64
13, 355435, Note_on_c, 12, 41, 127
13, 355499, Note_off_c, 12, 68, 64
13, 355499, Note_off_c, 12, 65, 64
13, 355499, Note_off_c, 12, 59, 64
13, 355532, Note_off_c, 12, 41, 64
13, 355551, Note_on_c, 12, 42, 127
13, 355658, Note_off_c, 12, 42, 64
13, 355673, Note_on_c, 12, 44, 127
13, 355759, Note_off_c, 12, 44, 64
13, 355791, Note_on_c, 12, 41, 127
13, 355876, Note_off_c, 12, 41, 64
13, 355915, Note_on_c, 12, 68, 127
13, 355915, Note_on_c, 12, 65, 127
13, 355915, Note_on_c, 12, 61, 127
13, 355919, Note_on_c, 12, 46, 127
13, 356011, Note_off_c, 12, 46, 64
13, 356035, Note_on_c, 12, 47, 127
13, 356147, Note_off_c, 12, 47, 64
13, 356154, Note_on_c, 12, 46, 127
13, 356199, Note_off_c, 12, 68, 64
13, 356199, Note_off_c, 12, 65, 64
13, 356199, Note_off_c, 12, 61, 64
13, 356251, Note_off_c, 12, 46, 64
13, 356270, Note_on_c, 12, 44, 127
13, 356367, Note_off_c, 12, 44, 64
13, 356391, Note_on_c, 12, 42, 127
13, 356485, Note_off_c, 12, 42, 64
13, 356508, Note_on_c, 12, 41, 127
13, 356605, Note_off_c, 12, 41, 64
13, 356631, Note_on_c, 12, 39, 127
13, 356638, Note_on_c, 12, 66, 127
13, 356638, Note_on_c, 12, 58, 127
13, 356638, Note_on_c, 12, 63, 127
13, 356752, Note_off_c, 12, 39, 64
13, 356757, Note_on_c, 12, 37, 127
13, 356848, Note_off_c, 12, 37, 64
13, 356875, Note_on_c, 12, 39, 127
13, 356902, Note_off_c, 12, 66, 64
13, 356902, Note_off_c, 12, 58, 64
13, 356902, Note_off_c, 12, 63, 64
13, 356978, Note_off_c, 12, 39, 64
13, 356992, Note_on_c, 12, 41, 127
13, 357082, Note_off_c, 12, 41, 64
13, 357111, Note_on_c, 12, 42, 127
13, 357205, Note_off_c, 12, 42, 64
13, 357226, Note_on_c, 12, 39, 127
13, 357315, Note_off_c, 12, 39, 64
13, 357348, Note_on_c, 12, 44, 127
13, 357355, Note_on_c, 12, 66, 127
13, 357355, Note_on_c, 12, 63, 127
13, 357355, Note_on_c, 12, 59, 127
13, 357455, Note_off_c, 12, 44, 64
13, 357468, Note_on_c, 12, 46, 127
13, 357563, Note_off_c, 12, 46, 64
13, 357592, Note_on_c, 12, 44, 127
13, 357627, Note_off_c, 12, 66, 64
13, 357627, Note_off_c, 12, 63, 64
13, 357627, Note_off_c, 12, 59, 64
13, 357686, Note_off_c, 12, 44, 64
13, 357707, Note_on_c, 12, 42, 127
13, 357813, Note_off_c, 12, 42, 64
13, 357829, Note_on_c, 12, 41, 127
13, 357913, Note_off_c, 12, 41, 64
13, 357947, Note_on_c, 12, 39, 127
13, 358041, Note_off_c, 12, 39, 64
13, 358074, Note_on_c, 12, 37, 127
13, 358080, Note_on_c, 12, 61, 127
13, 358081, Note_on_c, 12, 56, 127
13, 358081, Note_on_c, 12, 65, 127
13, 358232, Note_off_c, 12, 37, 64
13, 358311, Note_on_c, 12, 37, 127
13, 358466, Note_off_c, 12, 37, 64
13, 358555, Note_on_c, 12, 37, 127
13, 358590, Note_off_c, 12, 65, 64
13, 358595, Note_off_c, 12, 61, 64
13, 358602, Note_off_c, 12, 56, 64
13, 358717, Note_off_c, 12, 37, 64
13, 358788, Note_on_c, 12, 61, 127
13, 358790, Note_on_c, 12, 58, 127
13, 358792, Note_on_c, 12, 66, 127
13, 358798, Note_on_c, 12, 37, 127
13, 358969, Note_off_c, 12, 37, 64
13, 359043, Note_on_c, 12, 37, 127
13, 359200, Note_off_c, 12, 37, 64
13, 359285, Note_on_c, 12, 37, 127
13, 359331, Note_off_c, 12, 58, 64
13, 359338, Note_off_c, 12, 61, 64
13, 359348, Note_off_c, 12, 66, 64
13, 359428, Note_off_c, 12, 37, 64
13, 359518, Note_on_c, 12, 37, 127
13, 359522, Note_on_c, 12, 65, 127
13, 359522, Note_on_c, 12, 61, 127
13, 359522, Note_on_c, 12, 68, 127
13, 359681, Note_off_c, 12, 37, 64
13, 359759, Note_on_c, 12, 37, 127
13, 359896, Note_off_c, 12, 68, 64
13, 359897, Note_off_c, 12, 65, 64
13, 359897, Note_off_c, 12, 61, 64
13, 359912, Note_off_c, 12, 37, 64
13, 359996, Note_on_c, 12, 37, 127
13, 360145, Note_off_c, 12, 37, 64
13, 360235, Note_on_c, 12, 37, 127
13, 360241, Note_on_c, 12, 66, 127
13, 360241, Note_on_c, 12, 61, 127
13, 360241, Note_on_c, 12, 58, 127
13, 360392, Note_off_c, 12, 37, 64
13, 360476, Note_on_c, 12, 37, 127
13, 360536, Note_off_c, 12, 58, 64
13, 360549, Note_off_c, 12, 66, 64
13, 360550, Note_off_c, 12, 61, 64
13, 360596, Note_off_c, 12, 37, 64
13, 360711, Note_on_c, 12, 37, 127
13, 360853, Note_off_c, 12, 37, 64
13, 360946, Note_on_c, 12, 61, 127
13, 360947, Note_on_c, 12, 65, 127
13, 360947, Note_on_c, 12, 56, 127
13, 360954, Note_on_c, 12, 37, 127
13, 361108, Note_off_c, 12, 37, 64
13, 361194, Note_on_c, 12, 37, 127
13, 361314, Note_off_c, 12, 37, 64
13, 361349, Note_off_c, 12, 56, 64
13, 361353, Note_off_c, 12, 65, 64
13, 361358, Note_off_c, 12, 61, 64
13, 361429, Note_on_c, 12, 37, 127
13, 361555, Note_off_c, 12, 37, 64
13, 361662, Note_on_c, 12, 61, 127
13, 361662, Note_on_c, 12, 58, 127
13, 361662, Note_on_c, 12, 66, 127
13, 361671, Note_on_c, 12, 37, 127
13, 361818, Note_off_c, 12, 37, 64
13, 361914, Note_on_c, 12, 37, 127
13, 361982, Note_off_c, 12, 61, 64
13, 361982, Note_off_c, 12, 58, 64
13, 361986, Note_off_c, 12, 66, 64
13, 362009, Note_off_c, 12, 37, 64
13, 362155, Note_on_c, 12, 37, 127
13, 362256, Note_off_c, 12, 37, 64
13, 362392, Note_on_c, 12, 37, 127
13, 362406, Note_on_c, 12, 61, 127
13, 362406, Note_on_c, 12, 65, 127
13, 362407, Note_on_c, 12, 56, 127
13, 362533, Note_off_c, 12, 37, 64
13, 362637, Note_on_c, 12, 37, 127
13, 362679, Note_off_c, 12, 65, 64
13, 362680, Note_off_c, 12, 56, 64
13, 362681, Note_off_c, 12, 61, 64
13, 362753, Note_off_c, 12, 37, 64
13, 362876, Note_on_c, 12, 37, 127
13, 362876, Note_on_c, 12, 56, 127
13, 362876, Note_on_c, 12, 61, 127
13, 362876, Note_on_c, 12, 65, 127
13, 362923, Note_off_c, 12, 56, 64
13, 362924, Note_off_c, 12, 61, 64
13, 362930, Note_off_c, 12, 65, 64
13, 362982, Note_off_c, 12, 37, 64
13, 363115, Note_on_c, 12, 37, 127
13, 363121, Note_on_c, 12, 58, 127
13, 363121, Note_on_c, 12, 61, 127
13, 363124, Note_on_c, 12, 66, 127
13, 363240, Note_off_c, 12, 37, 64
13, 363353, Note_on_c, 12, 37, 127
13, 363392, Note_off_c, 12, 58, 64
13, 363392, Note_off_c, 12, 61, 64
13, 363392, Note_off_c, 12, 66, 64
13, 363471, Note_off_c, 12, 37, 64
13, 363584, Note_on_c, 12, 61, 127
13, 363584, Note_on_c, 12, 58, 127
13, 363585, Note_on_c, 12, 66, 127
13, 363592, Note_on_c, 12, 37, 127
13, 363637, Note_off_c, 12, 66, 64
13, 363640, Note_off_c, 12, 58, 64
13, 363642, Note_off_c, 12, 61, 64
13, 363710, Note_off_c, 12, 37, 64
13, 363799, Note_on_c, 12, 56, 127
13, 363831, Note_on_c, 12, 61, 127
13, 363835, Note_on_c, 12, 37, 127
13, 363865, Note_on_c, 12, 65, 127
13, 363980, Note_off_c, 12, 37, 64
13, 364075, Note_on_c, 12, 41, 127
13, 364178, Note_off_c, 12, 41, 64
13, 364223, Note_off_c, 12, 65, 64
13, 364224, Note_off_c, 12, 61, 64
13, 364229, Note_off_c, 12, 56, 64
13, 364312, Note_on_c, 12, 44, 127
13, 364408, Note_off_c, 12, 44, 64
13, 364559, Note_on_c, 12, 41, 127
13, 364661, Note_off_c, 12, 41, 64
13, 364801, Note_on_c, 12, 44, 127
13, 364907, Note_off_c, 12, 44, 64
13, 365038, Note_on_c, 12, 49, 127
13, 365142, Note_off_c, 12, 49, 64
13, 365238, Note_on_c, 12, 58, 127
13, 365279, Note_on_c, 12, 61, 127
13, 365282, Note_on_c, 12, 42, 127
13, 365309, Note_on_c, 12, 64, 127
13, 365353, Note_on_c, 12, 66, 127
13, 365406, Note_off_c, 12, 42, 64
13, 365523, Note_on_c, 12, 46, 127
13, 365628, Note_off_c, 12, 46, 64
13, 365757, Note_on_c, 12, 49, 127
13, 365796, Note_off_c, 12, 66, 64
13, 365801, Note_off_c, 12, 58, 64
13, 365805, Note_off_c, 12, 64, 64
13, 365809, Note_off_c, 12, 61, 64
13, 365873, Note_off_c, 12, 49, 64
13, 365994, Note_on_c, 12, 46, 127
13, 366143, Note_off_c, 12, 46, 64
13, 366235, Note_on_c, 12, 49, 127
13, 366339, Note_off_c, 12, 49, 64
13, 366470, Note_on_c, 12, 54, 127
13, 366567, Note_off_c, 12, 54, 64
13, 366686, Note_on_c, 12, 54, 127
13, 366715, Note_on_c, 12, 35, 127
13, 366727, Note_on_c, 12, 59, 127
13, 366768, Note_on_c, 12, 63, 127
13, 366829, Note_on_c, 12, 66, 127
13, 367083, Note_off_c, 12, 35, 64
13, 367347, Note_off_c, 12, 63, 64
13, 367352, Note_off_c, 12, 54, 64
13, 367355, Note_off_c, 12, 59, 64
13, 367362, Note_off_c, 12, 66, 64
13, 368110, Note_on_c, 12, 59, 127
13, 368156, Note_on_c, 12, 47, 127
13, 368161, Note_on_c, 12, 61, 127
13, 368196, Note_on_c, 12, 65, 127
13, 368258, Note_on_c, 12, 68, 127
13, 368455, Note_off_c, 12, 47, 64
13, 368714, Note_off_c, 12, 68, 64
13, 368724, Note_off_c, 12, 65, 64
13, 368733, Note_off_c, 12, 61, 64
13, 368748, Note_off_c, 12, 59, 64
13, 369597, Note_on_c, 12, 46, 127
13, 369597, Note_on_c, 12, 66, 127
13, 369597, Note_on_c, 12, 61, 127
13, 369597, Note_on_c, 12, 58, 127
13, 369737, Note_off_c, 12, 46, 64
13, 369844, Note_on_c, 12, 44, 127
13, 369881, Note_off_c, 12, 66, 64
13, 369881, Note_off_c, 12, 61, 64
13, 369881, Note_off_c, 12, 58, 64
13, 369949, Note_off_c, 12, 44, 64
13, 370082, Note_on_c, 12, 42, 127
13, 370085, Note_on_c, 12, 66, 127
13, 370085, Note_on_c, 12, 61, 127
13, 370085, Note_on_c, 12, 58, 127
13, 370126, Note_off_c, 12, 66, 64
13, 370126, Note_off_c, 12, 61, 64
13, 370126, Note_off_c, 12, 58, 64
13, 370179, Note_off_c, 12, 42, 64
13, 370322, Note_on_c, 12, 49, 127
13, 370323, Note_on_c, 12, 66, 127
13, 370323, Note_on_c, 12, 61, 127
13, 370323, Note_on_c, 12, 58, 127
13, 370616, Note_off_c, 12, 66, 64
13, 370616, Note_off_c, 12, 61, 64
13, 370616, Note_off_c, 12, 58, 64
13, 370619, Note_off_c, 12, 49, 64
13, 370782, Note_on_c, 12, 65, 127
13, 370782, Note_on_c, 12, 59, 127
13, 370782, Note_on_c, 12, 56, 127
13, 370787, Note_on_c, 12, 37, 127
13, 370832, Note_off_c, 12, 65, 64
13, 370832, Note_off_c, 12, 59, 64
13, 370832, Note_off_c, 12, 56, 64
13, 370864, Note_off_c, 12, 37, 64
13, 371030, Note_on_c, 12, 54, 127
13, 371035, Note_on_c, 12, 42, 127
13, 371083, Note_on_c, 12, 58, 127
13, 371122, Note_on_c, 12, 61, 127
13, 371185, Note_on_c, 12, 66, 127
13, 371932, Note_off_c, 12, 66, 64
13, 371934, Note_off_c, 12, 61, 64
13, 371942, Note_off_c, 12, 42, 64
13, 371944, Note_off_c, 12, 58, 64
13, 371957, Note_off_c, 12, 54, 64
13, 378240, End_track
14, 0, Start_track
14, 0, Instrument_name_t, "SC88-A"
14, 0, Title_t, "vn.uni"
14, 1440, Control_c, 13, 101, 0
14, 1450, Control_c, 13, 100, 0
14, 1450, Control_c, 13, 6, 0
14, 1470, Control_c, 13, 0, 0
14, 1480, Control_c, 13, 32, 1
14, 1490, Program_c, 13, 41
14, 1500, Control_c, 13, 10, 44
14, 1510, Control_c, 13, 11, 105
14, 1520, Control_c, 13, 7, 120
14, 1530, Control_c, 13, 93, 0
14, 1540, Control_c, 13, 91, 0
14, 1550, Pitch_bend_c, 13, 8192
14, 1560, Control_c, 13, 1, 0
14, 1570, Control_c, 13, 64, 0
14, 1580, Control_c, 13, 91, 64
14, 1590, Control_c, 13, 99, 1
14, 1600, Control_c, 13, 98, 32
14, 1610, Control_c, 13, 6, 62
14, 1620, Control_c, 13, 98, 33
14, 1630, Control_c, 13, 6, 63
14, 1640, Control_c, 13, 98, 99
14, 1650, Control_c, 13, 6, 52
14, 1660, Control_c, 13, 98, 100
14, 1670, Control_c, 13, 6, 64
14, 1680, Control_c, 13, 98, 102
14, 1690, Control_c, 13, 6, 64
14, 89390, Note_on_c, 13, 63, 58
14, 92599, Note_off_c, 13, 63, 64
14, 100560, Note_on_c, 13, 73, 86
14, 100658, Note_off_c, 13, 73, 64
14, 100796, Note_on_c, 13, 73, 96
14, 100945, Note_off_c, 13, 73, 64
14, 101034, Note_on_c, 13, 73, 96
14, 101148, Note_off_c, 13, 73, 64
14, 101277, Note_on_c, 13, 73, 96
14, 101393, Note_off_c, 13, 73, 64
14, 101512, Note_on_c, 13, 73, 106
14, 101635, Note_off_c, 13, 73, 64
14, 106081, Note_on_c, 13, 73, 58
14, 106255, Note_off_c, 13, 73, 64
14, 106329, Note_on_c, 13, 77, 48
14, 106429, Note_off_c, 13, 77, 64
14, 106559, Note_on_c, 13, 80, 56
14, 106646, Note_off_c, 13, 80, 64
14, 106798, Note_on_c, 13, 72, 50
14, 106949, Note_off_c, 13, 72, 64
14, 107039, Note_on_c, 13, 75, 56
14, 107138, Note_off_c, 13, 75, 64
14, 107276, Note_on_c, 13, 80, 56
14, 107389, Note_off_c, 13, 80, 64
14, 107522, Note_on_c, 13, 73, 56
14, 107675, Note_off_c, 13, 73, 64
14, 107760, Note_on_c, 13, 77, 48
14, 107865, Note_off_c, 13, 77, 64
14, 107994, Note_on_c, 13, 80, 56
14, 108115, Note_off_c, 13, 80, 64
14, 108237, Note_on_c, 13, 68, 56
14, 108369, Note_off_c, 13, 68, 64
14, 108483, Note_on_c, 13, 75, 56
14, 108573, Note_off_c, 13, 75, 64
14, 108718, Note_on_c, 13, 80, 56
14, 108805, Note_off_c, 13, 80, 64
14, 108965, Note_on_c, 13, 73, 85
14, 109054, Note_off_c, 13, 73, 64
14, 109080, Note_on_c, 13, 72, 88
14, 109150, Note_off_c, 13, 72, 64
14, 109196, Note_on_c, 13, 73, 81
14, 109279, Note_off_c, 13, 73, 64
14, 109313, Note_on_c, 13, 75, 102
14, 109399, Note_off_c, 13, 75, 64
14, 109432, Note_on_c, 13, 77, 78
14, 109517, Note_off_c, 13, 77, 64
14, 109551, Note_on_c, 13, 78, 81
14, 109625, Note_off_c, 13, 78, 64
14, 109675, Note_on_c, 13, 80, 78
14, 109781, Note_off_c, 13, 80, 64
14, 109791, Note_on_c, 13, 82, 70
14, 109899, Note_off_c, 13, 82, 64
14, 109911, Note_on_c, 13, 80, 70
14, 109994, Note_off_c, 13, 80, 64
14, 110029, Note_on_c, 13, 78, 72
14, 110116, Note_off_c, 13, 78, 64
14, 110153, Note_on_c, 13, 77, 80
14, 110231, Note_off_c, 13, 77, 64
14, 110274, Note_on_c, 13, 75, 76
14, 110354, Note_off_c, 13, 75, 64
14, 110400, Note_on_c, 13, 73, 78
14, 110538, Note_off_c, 13, 73, 64
14, 110635, Note_on_c, 13, 77, 68
14, 110727, Note_off_c, 13, 77, 64
14, 110875, Note_on_c, 13, 68, 70
14, 110971, Note_off_c, 13, 68, 64
14, 111117, Note_on_c, 13, 75, 70
14, 111232, Note_off_c, 13, 75, 64
14, 111359, Note_on_c, 13, 78, 70
14, 111462, Note_off_c, 13, 78, 64
14, 111597, Note_on_c, 13, 68, 70
14, 111705, Note_off_c, 13, 68, 64
14, 111839, Note_on_c, 13, 77, 63
14, 111969, Note_off_c, 13, 77, 64
14, 112079, Note_on_c, 13, 77, 65
14, 112214, Note_off_c, 13, 77, 64
14, 112319, Note_on_c, 13, 77, 61
14, 112443, Note_off_c, 13, 77, 64
14, 112559, Note_on_c, 13, 77, 69
14, 112696, Note_off_c, 13, 77, 64
14, 112799, Note_on_c, 13, 77, 70
14, 112923, Note_off_c, 13, 77, 64
14, 113034, Note_on_c, 13, 77, 73
14, 113168, Note_off_c, 13, 77, 64
14, 113278, Note_on_c, 13, 75, 76
14, 113423, Note_off_c, 13, 75, 64
14, 113516, Note_on_c, 13, 75, 76
14, 113649, Note_off_c, 13, 75, 64
14, 113759, Note_on_c, 13, 75, 76
14, 113872, Note_off_c, 13, 75, 64
14, 113992, Note_on_c, 13, 75, 76
14, 114126, Note_off_c, 13, 75, 64
14, 114236, Note_on_c, 13, 75, 76
14, 114360, Note_off_c, 13, 75, 64
14, 114474, Note_on_c, 13, 75, 76
14, 114585, Note_off_c, 13, 75, 64
14, 114711, Note_on_c, 13, 73, 76
14, 114845, Note_off_c, 13, 73, 64
14, 114957, Note_on_c, 13, 73, 76
14, 115056, Note_off_c, 13, 73, 64
14, 115193, Note_on_c, 13, 73, 76
14, 115296, Note_off_c, 13, 73, 64
14, 115436, Note_on_c, 13, 73, 76
14, 115550, Note_off_c, 13, 73, 64
14, 115679, Note_on_c, 13, 73, 76
14, 115793, Note_off_c, 13, 73, 64
14, 115919, Note_on_c, 13, 73, 76
14, 116001, Note_off_c, 13, 73, 64
14, 116161, Note_on_c, 13, 72, 71
14, 116289, Note_off_c, 13, 72, 64
14, 116874, Note_on_c, 13, 73, 76
14, 117062, Note_off_c, 13, 73, 64
14, 117595, Note_on_c, 13, 75, 76
14, 117773, Note_off_c, 13, 75, 64
14, 118316, Note_on_c, 13, 77, 77
14, 118502, Note_off_c, 13, 77, 64
14, 121919, Note_on_c, 13, 72, 73
14, 122054, Note_off_c, 13, 72, 64
14, 122167, Note_on_c, 13, 68, 77
14, 122278, Note_off_c, 13, 68, 64
14, 122402, Note_on_c, 13, 68, 79
14, 122507, Note_off_c, 13, 68, 64
14, 122637, Note_on_c, 13, 68, 79
14, 122755, Note_off_c, 13, 68, 64
14, 122877, Note_on_c, 13, 68, 84
14, 122984, Note_off_c, 13, 68, 64
14, 123115, Note_on_c, 13, 68, 92
14, 123250, Note_off_c, 13, 68, 64
14, 123358, Note_on_c, 13, 80, 96
14, 123452, Note_off_c, 13, 80, 64
14, 123473, Note_on_c, 13, 83, 74
14, 123587, Note_off_c, 13, 83, 64
14, 123595, Note_on_c, 13, 73, 83
14, 123675, Note_off_c, 13, 73, 64
14, 123713, Note_on_c, 13, 83, 75
14, 123793, Note_off_c, 13, 83, 64
14, 123832, Note_on_c, 13, 80, 95
14, 123934, Note_off_c, 13, 80, 64
14, 123948, Note_on_c, 13, 83, 79
14, 124027, Note_off_c, 13, 83, 64
14, 124073, Note_on_c, 13, 80, 95
14, 124191, Note_off_c, 13, 80, 64
14, 124193, Note_on_c, 13, 83, 70
14, 124293, Note_off_c, 13, 83, 64
14, 124314, Note_on_c, 13, 73, 76
14, 124406, Note_off_c, 13, 73, 64
14, 124433, Note_on_c, 13, 83, 76
14, 124517, Note_off_c, 13, 83, 64
14, 124553, Note_on_c, 13, 80, 83
14, 124628, Note_off_c, 13, 80, 64
14, 124673, Note_on_c, 13, 83, 87
14, 124735, Note_off_c, 13, 83, 64
14, 124800, Note_on_c, 13, 66, 62
14, 124986, Note_off_c, 13, 66, 64
14, 125046, Note_on_c, 13, 70, 52
14, 125142, Note_off_c, 13, 70, 64
14, 125272, Note_on_c, 13, 73, 52
14, 125391, Note_off_c, 13, 73, 64
14, 125511, Note_on_c, 13, 70, 52
14, 125691, Note_off_c, 13, 70, 64
14, 125753, Note_on_c, 13, 73, 52
14, 125873, Note_off_c, 13, 73, 64
14, 125987, Note_on_c, 13, 78, 52
14, 126082, Note_off_c, 13, 78, 64
14, 126237, Note_on_c, 13, 72, 61
14, 126420, Note_off_c, 13, 72, 64
14, 126478, Note_on_c, 13, 75, 52
14, 126596, Note_off_c, 13, 75, 64
14, 126713, Note_on_c, 13, 80, 52
14, 126833, Note_off_c, 13, 80, 64
14, 126953, Note_on_c, 13, 75, 52
14, 127123, Note_off_c, 13, 75, 64
14, 127195, Note_on_c, 13, 80, 69
14, 127312, Note_off_c, 13, 80, 64
14, 127433, Note_on_c, 13, 84, 71
14, 127544, Note_off_c, 13, 84, 64
14, 127673, Note_on_c, 13, 85, 73
14, 127841, Note_off_c, 13, 85, 64
14, 127922, Note_on_c, 13, 73, 69
14, 128024, Note_off_c, 13, 73, 64
14, 128031, Note_on_c, 13, 75, 52
14, 128143, Note_off_c, 13, 75, 64
14, 128152, Note_on_c, 13, 77, 47
14, 128280, Note_off_c, 13, 77, 64
14, 128399, Note_on_c, 13, 68, 62
14, 128589, Note_off_c, 13, 68, 64
14, 128643, Note_on_c, 13, 73, 52
14, 128736, Note_off_c, 13, 73, 64
14, 128881, Note_on_c, 13, 72, 63
14, 128979, Note_off_c, 13, 72, 64
14, 129122, Note_on_c, 13, 73, 64
14, 129678, Note_off_c, 13, 73, 64
14, 129826, Note_on_c, 13, 61, 55
14, 130341, Note_off_c, 13, 61, 64
14, 135120, Note_on_c, 13, 73, 86
14, 135218, Note_off_c, 13, 73, 64
14, 135356, Note_on_c, 13, 73, 96
14, 135505, Note_off_c, 13, 73, 64
14, 135594, Note_on_c, 13, 73, 96
14, 135708, Note_off_c, 13, 73, 64
14, 135837, Note_on_c, 13, 73, 96
14, 135953, Note_off_c, 13, 73, 64
14, 136072, Note_on_c, 13, 73, 106
14, 136195, Note_off_c, 13, 73, 64
14, 140641, Note_on_c, 13, 73, 58
14, 140815, Note_off_c, 13, 73, 64
14, 140889, Note_on_c, 13, 77, 48
14, 140989, Note_off_c, 13, 77, 64
14, 141119, Note_on_c, 13, 80, 56
14, 141206, Note_off_c, 13, 80, 64
14, 141358, Note_on_c, 13, 72, 50
14, 141509, Note_off_c, 13, 72, 64
14, 141599, Note_on_c, 13, 75, 56
14, 141698, Note_off_c, 13, 75, 64
14, 141836, Note_on_c, 13, 80, 56
14, 141949, Note_off_c, 13, 80, 64
14, 142082, Note_on_c, 13, 73, 56
14, 142235, Note_off_c, 13, 73, 64
14, 142320, Note_on_c, 13, 77, 48
14, 142425, Note_off_c, 13, 77, 64
14, 142554, Note_on_c, 13, 80, 56
14, 142675, Note_off_c, 13, 80, 64
14, 142797, Note_on_c, 13, 68, 56
14, 142929, Note_off_c, 13, 68, 64
14, 143043, Note_on_c, 13, 75, 56
14, 143133, Note_off_c, 13, 75, 64
14, 143278, Note_on_c, 13, 80, 56
14, 143365, Note_off_c, 13, 80, 64
14, 143525, Note_on_c, 13, 73, 85
14, 143614, Note_off_c, 13, 73, 64
14, 143640, Note_on_c, 13, 72, 88
14, 143710, Note_off_c, 13, 72, 64
14, 143756, Note_on_c, 13, 73, 81
14, 143839, Note_off_c, 13, 73, 64
14, 143873, Note_on_c, 13, 75, 102
14, 143959, Note_off_c, 13, 75, 64
14, 143992, Note_on_c, 13, 77, 78
14, 144077, Note_off_c, 13, 77, 64
14, 144111, Note_on_c, 13, 78, 81
14, 144185, Note_off_c, 13, 78, 64
14, 144235, Note_on_c, 13, 80, 78
14, 144341, Note_off_c, 13, 80, 64
14, 144351, Note_on_c, 13, 82, 70
14, 144459, Note_off_c, 13, 82, 64
14, 144471, Note_on_c, 13, 80, 70
14, 144554, Note_off_c, 13, 80, 64
14, 144589, Note_on_c, 13, 78, 72
14, 144676, Note_off_c, 13, 78, 64
14, 144713, Note_on_c, 13, 77, 80
14, 144791, Note_off_c, 13, 77, 64
14, 144834, Note_on_c, 13, 75, 76
14, 144914, Note_off_c, 13, 75, 64
14, 144960, Note_on_c, 13, 73, 78
14, 145098, Note_off_c, 13, 73, 64
14, 145195, Note_on_c, 13, 77, 68
14, 145287, Note_off_c, 13, 77, 64
14, 145435, Note_on_c, 13, 68, 70
14, 145531, Note_off_c, 13, 68, 64
14, 145677, Note_on_c, 13, 75, 70
14, 145792, Note_off_c, 13, 75, 64
14, 145919, Note_on_c, 13, 78, 70
14, 146022, Note_off_c, 13, 78, 64
14, 146157, Note_on_c, 13, 68, 70
14, 146265, Note_off_c, 13, 68, 64
14, 146399, Note_on_c, 13, 77, 63
14, 146529, Note_off_c, 13, 77, 64
14, 146639, Note_on_c, 13, 77, 65
14, 146774, Note_off_c, 13, 77, 64
14, 146879, Note_on_c, 13, 77, 61
14, 147003, Note_off_c, 13, 77, 64
14, 147119, Note_on_c, 13, 77, 69
14, 147256, Note_off_c, 13, 77, 64
14, 147359, Note_on_c, 13, 77, 70
14, 147483, Note_off_c, 13, 77, 64
14, 147594, Note_on_c, 13, 77, 73
14, 147728, Note_off_c, 13, 77, 64
14, 147838, Note_on_c, 13, 75, 76
14, 147983, Note_off_c, 13, 75, 64
14, 148076, Note_on_c, 13, 75, 76
14, 148209, Note_off_c, 13, 75, 64
14, 148319, Note_on_c, 13, 75, 76
14, 148432, Note_off_c, 13, 75, 64
14, 148552, Note_on_c, 13, 75, 76
14, 148686, Note_off_c, 13, 75, 64
14, 148796, Note_on_c, 13, 75, 76
14, 148920, Note_off_c, 13, 75, 64
14, 149034, Note_on_c, 13, 75, 76
14, 149145, Note_off_c, 13, 75, 64
14, 149271, Note_on_c, 13, 73, 76
14, 149405, Note_off_c, 13, 73, 64
14, 149517, Note_on_c, 13, 73, 76
14, 149616, Note_off_c, 13, 73, 64
14, 149753, Note_on_c, 13, 73, 76
14, 149856, Note_off_c, 13, 73, 64
14, 149996, Note_on_c, 13, 73, 76
14, 150110, Note_off_c, 13, 73, 64
14, 150239, Note_on_c, 13, 73, 76
14, 150353, Note_off_c, 13, 73, 64
14, 150479, Note_on_c, 13, 73, 76
14, 150561, Note_off_c, 13, 73, 64
14, 150721, Note_on_c, 13, 72, 71
14, 150849, Note_off_c, 13, 72, 64
14, 151434, Note_on_c, 13, 73, 76
14, 151622, Note_off_c, 13, 73, 64
14, 152155, Note_on_c, 13, 75, 76
14, 152333, Note_off_c, 13, 75, 64
14, 152876, Note_on_c, 13, 77, 77
14, 153062, Note_off_c, 13, 77, 64
14, 156479, Note_on_c, 13, 72, 73
14, 156614, Note_off_c, 13, 72, 64
14, 156727, Note_on_c, 13, 68, 77
14, 156838, Note_off_c, 13, 68, 64
14, 156962, Note_on_c, 13, 68, 79
14, 157067, Note_off_c, 13, 68, 64
14, 157197, Note_on_c, 13, 68, 79
14, 157315, Note_off_c, 13, 68, 64
14, 157437, Note_on_c, 13, 68, 84
14, 157544, Note_off_c, 13, 68, 64
14, 157675, Note_on_c, 13, 68, 92
14, 157810, Note_off_c, 13, 68, 64
14, 157918, Note_on_c, 13, 80, 96
14, 158012, Note_off_c, 13, 80, 64
14, 158033, Note_on_c, 13, 83, 74
14, 158147, Note_off_c, 13, 83, 64
14, 158155, Note_on_c, 13, 73, 83
14, 158235, Note_off_c, 13, 73, 64
14, 158273, Note_on_c, 13, 83, 75
14, 158353, Note_off_c, 13, 83, 64
14, 158392, Note_on_c, 13, 80, 95
14, 158494, Note_off_c, 13, 80, 64
14, 158508, Note_on_c, 13, 83, 79
14, 158587, Note_off_c, 13, 83, 64
14, 158633, Note_on_c, 13, 80, 95
14, 158751, Note_off_c, 13, 80, 64
14, 158753, Note_on_c, 13, 83, 70
14, 158853, Note_off_c, 13, 83, 64
14, 158874, Note_on_c, 13, 73, 76
14, 158966, Note_off_c, 13, 73, 64
14, 158993, Note_on_c, 13, 83, 76
14, 159077, Note_off_c, 13, 83, 64
14, 159113, Note_on_c, 13, 80, 83
14, 159188, Note_off_c, 13, 80, 64
14, 159233, Note_on_c, 13, 83, 87
14, 159295, Note_off_c, 13, 83, 64
14, 159360, Note_on_c, 13, 66, 62
14, 159546, Note_off_c, 13, 66, 64
14, 159606, Note_on_c, 13, 70, 52
14, 159702, Note_off_c, 13, 70, 64
14, 159832, Note_on_c, 13, 73, 52
14, 159951, Note_off_c, 13, 73, 64
14, 160071, Note_on_c, 13, 70, 52
14, 160251, Note_off_c, 13, 70, 64
14, 160313, Note_on_c, 13, 73, 52
14, 160433, Note_off_c, 13, 73, 64
14, 160547, Note_on_c, 13, 78, 52
14, 160642, Note_off_c, 13, 78, 64
14, 160797, Note_on_c, 13, 72, 61
14, 160980, Note_off_c, 13, 72, 64
14, 161038, Note_on_c, 13, 75, 52
14, 161156, Note_off_c, 13, 75, 64
14, 161273, Note_on_c, 13, 80, 52
14, 161393, Note_off_c, 13, 80, 64
14, 161513, Note_on_c, 13, 75, 52
14, 161683, Note_off_c, 13, 75, 64
14, 161755, Note_on_c, 13, 80, 69
14, 161872, Note_off_c, 13, 80, 64
14, 161993, Note_on_c, 13, 84, 71
14, 162104, Note_off_c, 13, 84, 64
14, 162233, Note_on_c, 13, 85, 73
14, 162401, Note_off_c, 13, 85, 64
14, 162482, Note_on_c, 13, 73, 69
14, 162584, Note_off_c, 13, 73, 64
14, 162591, Note_on_c, 13, 75, 52
14, 162703, Note_off_c, 13, 75, 64
14, 162712, Note_on_c, 13, 77, 47
14, 162840, Note_off_c, 13, 77, 64
14, 162959, Note_on_c, 13, 68, 62
14, 163149, Note_off_c, 13, 68, 64
14, 163203, Note_on_c, 13, 73, 52
14, 163296, Note_off_c, 13, 73, 64
14, 163441, Note_on_c, 13, 72, 63
14, 163539, Note_off_c, 13, 72, 64
14, 163682, Note_on_c, 13, 73, 64
14, 164238, Note_off_c, 13, 73, 64
14, 164386, Note_on_c, 13, 61, 55
14, 164901, Note_off_c, 13, 61, 64
14, 165120, Note_on_c, 13, 61, 76
14, 165261, Note_off_c, 13, 61, 64
14, 165354, Note_on_c, 13, 65, 59
14, 165425, Note_off_c, 13, 65, 64
14, 165597, Note_on_c, 13, 68, 76
14, 165670, Note_off_c, 13, 68, 64
14, 165843, Note_on_c, 13, 60, 65
14, 165969, Note_off_c, 13, 60, 64
14, 166076, Note_on_c, 13, 63, 76
14, 166142, Note_off_c, 13, 63, 64
14, 166321, Note_on_c, 13, 68, 76
14, 166395, Note_off_c, 13, 68, 64
14, 166555, Note_on_c, 13, 61, 76
14, 166726, Note_off_c, 13, 61, 64
14, 166803, Note_on_c, 13, 65, 55
14, 166871, Note_off_c, 13, 65, 64
14, 167044, Note_on_c, 13, 68, 76
14, 167112, Note_off_c, 13, 68, 64
14, 167281, Note_on_c, 13, 56, 76
14, 167427, Note_off_c, 13, 56, 64
14, 167515, Note_on_c, 13, 63, 76
14, 167600, Note_off_c, 13, 63, 64
14, 167757, Note_on_c, 13, 68, 76
14, 167837, Note_off_c, 13, 68, 64
14, 168003, Note_on_c, 13, 70, 76
14, 168133, Note_off_c, 13, 70, 64
14, 168238, Note_on_c, 13, 70, 76
14, 168355, Note_off_c, 13, 70, 64
14, 168475, Note_on_c, 13, 70, 76
14, 168591, Note_off_c, 13, 70, 64
14, 168719, Note_on_c, 13, 70, 53
14, 168829, Note_off_c, 13, 70, 64
14, 168963, Note_on_c, 13, 70, 71
14, 169062, Note_off_c, 13, 70, 64
14, 169204, Note_on_c, 13, 70, 76
14, 169315, Note_off_c, 13, 70, 64
14, 169444, Note_on_c, 13, 70, 76
14, 169571, Note_off_c, 13, 70, 64
14, 169673, Note_on_c, 13, 70, 76
14, 169800, Note_off_c, 13, 70, 64
14, 169920, Note_on_c, 13, 70, 76
14, 170036, Note_off_c, 13, 70, 64
14, 170157, Note_on_c, 13, 70, 76
14, 170307, Note_off_c, 13, 70, 64
14, 170401, Note_on_c, 13, 70, 76
14, 170506, Note_off_c, 13, 70, 64
14, 170642, Note_on_c, 13, 70, 82
14, 170743, Note_off_c, 13, 70, 64
14, 170880, Note_on_c, 13, 70, 40
14, 171082, Note_off_c, 13, 70, 64
14, 171121, Note_on_c, 13, 75, 55
14, 171228, Note_off_c, 13, 75, 64
14, 171358, Note_on_c, 13, 78, 55
14, 171459, Note_off_c, 13, 78, 64
14, 171598, Note_on_c, 13, 71, 51
14, 171771, Note_off_c, 13, 71, 64
14, 171836, Note_on_c, 13, 75, 48
14, 171916, Note_off_c, 13, 75, 64
14, 172077, Note_on_c, 13, 78, 55
14, 172152, Note_off_c, 13, 78, 64
14, 172317, Note_on_c, 13, 70, 47
14, 172480, Note_off_c, 13, 70, 64
14, 172558, Note_on_c, 13, 75, 55
14, 172642, Note_off_c, 13, 75, 64
14, 172796, Note_on_c, 13, 78, 55
14, 172877, Note_off_c, 13, 78, 64
14, 173038, Note_on_c, 13, 68, 48
14, 173198, Note_off_c, 13, 68, 64
14, 173278, Note_on_c, 13, 75, 55
14, 173355, Note_off_c, 13, 75, 64
14, 173514, Note_on_c, 13, 78, 55
14, 173588, Note_off_c, 13, 78, 64
14, 173757, Note_on_c, 13, 70, 51
14, 173910, Note_off_c, 13, 70, 64
14, 173995, Note_on_c, 13, 75, 55
14, 174076, Note_off_c, 13, 75, 64
14, 174233, Note_on_c, 13, 78, 55
14, 174308, Note_off_c, 13, 78, 64
14, 174475, Note_on_c, 13, 71, 46
14, 174655, Note_off_c, 13, 71, 64
14, 174715, Note_on_c, 13, 75, 55
14, 174792, Note_off_c, 13, 75, 64
14, 174951, Note_on_c, 13, 78, 55
14, 175018, Note_off_c, 13, 78, 64
14, 175199, Note_on_c, 13, 70, 49
14, 175363, Note_off_c, 13, 70, 64
14, 175439, Note_on_c, 13, 75, 55
14, 175512, Note_off_c, 13, 75, 64
14, 175679, Note_on_c, 13, 74, 42
14, 175753, Note_off_c, 13, 74, 64
14, 175919, Note_on_c, 13, 75, 47
14, 176374, Note_off_c, 13, 75, 64
14, 181440, Note_on_c, 13, 82, 76
14, 181541, Note_off_c, 13, 82, 64
14, 181668, Note_on_c, 13, 82, 86
14, 181779, Note_off_c, 13, 82, 64
14, 181901, Note_on_c, 13, 82, 82
14, 182003, Note_off_c, 13, 82, 64
14, 182141, Note_on_c, 13, 82, 80
14, 182245, Note_off_c, 13, 82, 64
14, 186714, Note_on_c, 13, 70, 63
14, 186874, Note_off_c, 13, 70, 64
14, 186956, Note_on_c, 13, 73, 76
14, 187054, Note_off_c, 13, 73, 64
14, 187189, Note_on_c, 13, 77, 62
14, 187287, Note_off_c, 13, 77, 64
14, 187439, Note_on_c, 13, 69, 59
14, 187574, Note_off_c, 13, 69, 64
14, 187680, Note_on_c, 13, 72, 66
14, 187770, Note_off_c, 13, 72, 64
14, 187909, Note_on_c, 13, 77, 60
14, 187994, Note_off_c, 13, 77, 64
14, 188151, Note_on_c, 13, 70, 76
14, 188300, Note_off_c, 13, 70, 64
14, 188391, Note_on_c, 13, 73, 76
14, 188467, Note_off_c, 13, 73, 64
14, 188621, Note_on_c, 13, 77, 65
14, 188710, Note_off_c, 13, 77, 64
14, 188880, Note_on_c, 13, 65, 63
14, 189016, Note_off_c, 13, 65, 64
14, 189113, Note_on_c, 13, 72, 70
14, 189201, Note_off_c, 13, 72, 64
14, 189352, Note_on_c, 13, 77, 70
14, 189435, Note_off_c, 13, 77, 64
14, 189600, Note_on_c, 13, 70, 92
14, 189703, Note_off_c, 13, 70, 64
14, 189715, Note_on_c, 13, 69, 88
14, 189793, Note_off_c, 13, 69, 64
14, 189827, Note_on_c, 13, 70, 83
14, 189917, Note_off_c, 13, 70, 64
14, 189936, Note_on_c, 13, 72, 101
14, 190019, Note_off_c, 13, 72, 64
14, 190058, Note_on_c, 13, 73, 78
14, 190150, Note_off_c, 13, 73, 64
14, 190175, Note_on_c, 13, 75, 99
14, 190264, Note_off_c, 13, 75, 64
14, 190315, Note_on_c, 13, 77, 93
14, 190411, Note_off_c, 13, 77, 64
14, 190431, Note_on_c, 13, 78, 80
14, 190517, Note_off_c, 13, 78, 64
14, 190538, Note_on_c, 13, 77, 86
14, 190625, Note_off_c, 13, 77, 64
14, 190662, Note_on_c, 13, 75, 83
14, 190753, Note_off_c, 13, 75, 64
14, 190786, Note_on_c, 13, 73, 78
14, 190867, Note_off_c, 13, 73, 64
14, 190908, Note_on_c, 13, 72, 86
14, 190984, Note_off_c, 13, 72, 64
14, 191049, Note_on_c, 13, 70, 88
14, 191176, Note_off_c, 13, 70, 64
14, 191284, Note_on_c, 13, 73, 72
14, 191390, Note_off_c, 13, 73, 64
14, 191527, Note_on_c, 13, 65, 86
14, 191618, Note_off_c, 13, 65, 64
14, 191776, Note_on_c, 13, 72, 93
14, 191916, Note_off_c, 13, 72, 64
14, 192005, Note_on_c, 13, 75, 70
14, 192089, Note_off_c, 13, 75, 64
14, 192240, Note_on_c, 13, 65, 71
14, 192327, Note_off_c, 13, 65, 64
14, 192495, Note_on_c, 13, 73, 70
14, 192601, Note_off_c, 13, 73, 64
14, 192731, Note_on_c, 13, 73, 70
14, 192845, Note_off_c, 13, 73, 64
14, 192969, Note_on_c, 13, 73, 70
14, 193072, Note_off_c, 13, 73, 64
14, 193204, Note_on_c, 13, 73, 70
14, 193320, Note_off_c, 13, 73, 64
14, 193434, Note_on_c, 13, 73, 70
14, 193533, Note_off_c, 13, 73, 64
14, 193663, Note_on_c, 13, 73, 70
14, 193762, Note_off_c, 13, 73, 64
14, 193905, Note_on_c, 13, 72, 56
14, 194046, Note_off_c, 13, 72, 64
14, 194150, Note_on_c, 13, 72, 53
14, 194268, Note_off_c, 13, 72, 64
14, 194381, Note_on_c, 13, 72, 53
14, 194495, Note_off_c, 13, 72, 64
14, 194620, Note_on_c, 13, 72, 53
14, 194733, Note_off_c, 13, 72, 64
14, 194868, Note_on_c, 13, 72, 55
14, 194984, Note_off_c, 13, 72, 64
14, 195104, Note_on_c, 13, 72, 50
14, 195216, Note_off_c, 13, 72, 64
14, 195346, Note_on_c, 13, 70, 70
14, 195476, Note_off_c, 13, 70, 64
14, 195584, Note_on_c, 13, 70, 70
14, 195689, Note_off_c, 13, 70, 64
14, 195824, Note_on_c, 13, 70, 70
14, 195932, Note_off_c, 13, 70, 64
14, 196065, Note_on_c, 13, 70, 65
14, 196175, Note_off_c, 13, 70, 64
14, 196308, Note_on_c, 13, 70, 70
14, 196398, Note_off_c, 13, 70, 64
14, 196538, Note_on_c, 13, 70, 70
14, 196628, Note_off_c, 13, 70, 64
14, 202565, Note_on_c, 13, 69, 94
14, 202688, Note_off_c, 13, 69, 64
14, 202804, Note_on_c, 13, 65, 80
14, 202899, Note_off_c, 13, 65, 64
14, 203044, Note_on_c, 13, 65, 77
14, 203138, Note_off_c, 13, 65, 64
14, 203275, Note_on_c, 13, 65, 80
14, 203366, Note_off_c, 13, 65, 64
14, 203510, Note_on_c, 13, 65, 89
14, 203606, Note_off_c, 13, 65, 64
14, 203752, Note_on_c, 13, 65, 89
14, 203830, Note_off_c, 13, 65, 64
14, 204006, Note_on_c, 13, 77, 110
14, 204093, Note_off_c, 13, 77, 64
14, 204115, Note_on_c, 13, 80, 86
14, 204199, Note_off_c, 13, 80, 64
14, 204231, Note_on_c, 13, 70, 93
14, 204302, Note_off_c, 13, 70, 64
14, 204335, Note_on_c, 13, 80, 79
14, 204419, Note_off_c, 13, 80, 64
14, 204462, Note_on_c, 13, 77, 96
14, 204554, Note_off_c, 13, 77, 64
14, 204570, Note_on_c, 13, 80, 86
14, 204645, Note_off_c, 13, 80, 64
14, 204699, Note_on_c, 13, 77, 94
14, 204794, Note_off_c, 13, 77, 64
14, 204817, Note_on_c, 13, 80, 82
14, 204908, Note_off_c, 13, 80, 64
14, 204939, Note_on_c, 13, 70, 88
14, 205022, Note_off_c, 13, 70, 64
14, 205064, Note_on_c, 13, 80, 83
14, 205137, Note_off_c, 13, 80, 64
14, 205195, Note_on_c, 13, 77, 86
14, 205262, Note_off_c, 13, 77, 64
14, 205300, Note_on_c, 13, 80, 92
14, 205361, Note_off_c, 13, 80, 64
14, 205440, Note_on_c, 13, 63, 76
14, 205574, Note_off_c, 13, 63, 64
14, 205670, Note_on_c, 13, 66, 76
14, 205753, Note_off_c, 13, 66, 64
14, 205892, Note_on_c, 13, 70, 76
14, 205974, Note_off_c, 13, 70, 64
14, 206144, Note_on_c, 13, 66, 72
14, 206298, Note_off_c, 13, 66, 64
14, 206386, Note_on_c, 13, 70, 76
14, 206471, Note_off_c, 13, 70, 64
14, 206627, Note_on_c, 13, 75, 76
14, 206725, Note_off_c, 13, 75, 64
14, 206883, Note_on_c, 13, 69, 63
14, 207027, Note_off_c, 13, 69, 64
14, 207115, Note_on_c, 13, 72, 69
14, 207209, Note_off_c, 13, 72, 64
14, 207354, Note_on_c, 13, 77, 69
14, 207450, Note_off_c, 13, 77, 64
14, 207602, Note_on_c, 13, 72, 61
14, 207749, Note_off_c, 13, 72, 64
14, 207833, Note_on_c, 13, 77, 71
14, 207919, Note_off_c, 13, 77, 64
14, 208071, Note_on_c, 13, 81, 66
14, 208158, Note_off_c, 13, 81, 64
14, 208332, Note_on_c, 13, 82, 76
14, 208430, Note_off_c, 13, 82, 64
14, 208571, Note_on_c, 13, 70, 69
14, 208655, Note_off_c, 13, 70, 64
14, 208664, Note_on_c, 13, 72, 55
14, 208775, Note_off_c, 13, 72, 64
14, 208790, Note_on_c, 13, 73, 76
14, 208872, Note_off_c, 13, 73, 64
14, 209044, Note_on_c, 13, 65, 61
14, 209250, Note_off_c, 13, 65, 64
14, 209294, Note_on_c, 13, 70, 71
14, 209369, Note_off_c, 13, 70, 64
14, 209522, Note_on_c, 13, 69, 65
14, 209592, Note_off_c, 13, 69, 64
14, 209771, Note_on_c, 13, 70, 71
14, 210369, Note_off_c, 13, 70, 64
14, 210447, Note_on_c, 13, 58, 76
14, 211104, Note_off_c, 13, 58, 64
14, 211200, Note_on_c, 13, 68, 48
14, 211304, Note_off_c, 13, 68, 64
14, 211432, Note_on_c, 13, 68, 69
14, 211536, Note_off_c, 13, 68, 64
14, 211673, Note_on_c, 13, 68, 71
14, 211766, Note_off_c, 13, 68, 64
14, 211914, Note_on_c, 13, 68, 69
14, 212010, Note_off_c, 13, 68, 64
14, 212149, Note_on_c, 13, 68, 71
14, 212244, Note_off_c, 13, 68, 64
14, 212393, Note_on_c, 13, 68, 72
14, 212482, Note_off_c, 13, 68, 64
14, 212635, Note_on_c, 13, 68, 76
14, 212740, Note_off_c, 13, 68, 64
14, 212746, Note_on_c, 13, 71, 76
14, 212863, Note_off_c, 13, 71, 64
14, 212863, Note_on_c, 13, 70, 76
14, 212953, Note_off_c, 13, 70, 64
14, 212981, Note_on_c, 13, 68, 76
14, 213068, Note_off_c, 13, 68, 64
14, 213097, Note_on_c, 13, 66, 76
14, 213193, Note_off_c, 13, 66, 64
14, 213214, Note_on_c, 13, 65, 69
14, 213299, Note_off_c, 13, 65, 64
14, 213349, Note_on_c, 13, 66, 70
14, 213500, Note_off_c, 13, 66, 64
14, 213598, Note_on_c, 13, 63, 76
14, 213687, Note_off_c, 13, 63, 64
14, 213830, Note_on_c, 13, 66, 76
14, 213911, Note_off_c, 13, 66, 64
14, 216975, Note_on_c, 13, 76, 87
14, 217110, Note_off_c, 13, 76, 64
14, 217199, Note_on_c, 13, 76, 82
14, 217314, Note_off_c, 13, 76, 64
14, 217440, Note_on_c, 13, 76, 82
14, 217544, Note_off_c, 13, 76, 64
14, 217672, Note_on_c, 13, 76, 76
14, 217755, Note_off_c, 13, 76, 64
14, 217828, Note_on_c, 13, 66, 109
14, 217896, Note_off_c, 13, 66, 64
14, 217913, Note_on_c, 13, 70, 103
14, 217991, Note_off_c, 13, 70, 64
14, 218013, Note_on_c, 13, 73, 93
14, 218095, Note_off_c, 13, 73, 64
14, 218128, Note_on_c, 13, 70, 88
14, 218212, Note_off_c, 13, 70, 64
14, 218239, Note_on_c, 13, 66, 86
14, 218330, Note_off_c, 13, 66, 64
14, 218381, Note_on_c, 13, 75, 83
14, 218533, Note_off_c, 13, 75, 64
14, 218640, Note_on_c, 13, 75, 86
14, 218746, Note_off_c, 13, 75, 64
14, 218875, Note_on_c, 13, 75, 87
14, 218979, Note_off_c, 13, 75, 64
14, 219114, Note_on_c, 13, 75, 77
14, 219198, Note_off_c, 13, 75, 64
14, 219256, Note_on_c, 13, 64, 100
14, 219331, Note_off_c, 13, 64, 64
14, 219343, Note_on_c, 13, 68, 103
14, 219420, Note_off_c, 13, 68, 64
14, 219456, Note_on_c, 13, 71, 93
14, 219536, Note_off_c, 13, 71, 64
14, 219577, Note_on_c, 13, 68, 88
14, 219658, Note_off_c, 13, 68, 64
14, 219692, Note_on_c, 13, 64, 82
14, 219787, Note_off_c, 13, 64, 64
14, 219883, Note_on_c, 13, 78, 76
14, 219939, Note_off_c, 13, 78, 64
14, 220083, Note_on_c, 13, 78, 76
14, 220160, Note_off_c, 13, 78, 64
14, 220326, Note_on_c, 13, 78, 76
14, 220403, Note_off_c, 13, 78, 64
14, 220566, Note_on_c, 13, 78, 76
14, 220654, Note_off_c, 13, 78, 64
14, 220802, Note_on_c, 13, 78, 76
14, 220879, Note_off_c, 13, 78, 64
14, 221032, Note_on_c, 13, 78, 76
14, 221110, Note_off_c, 13, 78, 64
14, 221267, Note_on_c, 13, 78, 76
14, 221352, Note_off_c, 13, 78, 64
14, 221495, Note_on_c, 13, 78, 76
14, 221594, Note_off_c, 13, 78, 64
14, 221745, Note_on_c, 13, 78, 76
14, 221841, Note_off_c, 13, 78, 64
14, 221987, Note_on_c, 13, 78, 76
14, 222084, Note_off_c, 13, 78, 64
14, 222225, Note_on_c, 13, 78, 76
14, 222318, Note_off_c, 13, 78, 64
14, 222454, Note_on_c, 13, 78, 76
14, 222539, Note_off_c, 13, 78, 64
14, 222701, Note_on_c, 13, 78, 76
14, 222799, Note_off_c, 13, 78, 64
14, 222948, Note_on_c, 13, 78, 76
14, 223039, Note_off_c, 13, 78, 64
14, 223184, Note_on_c, 13, 78, 76
14, 223276, Note_off_c, 13, 78, 64
14, 223426, Note_on_c, 13, 78, 76
14, 223515, Note_off_c, 13, 78, 64
14, 223655, Note_on_c, 13, 78, 76
14, 223743, Note_off_c, 13, 78, 64
14, 223896, Note_on_c, 13, 78, 77
14, 223971, Note_off_c, 13, 78, 64
14, 224147, Note_on_c, 13, 78, 80
14, 224215, Note_off_c, 13, 78, 64
14, 224404, Note_on_c, 13, 78, 100
14, 224472, Note_off_c, 13, 78, 64
14, 224634, Note_on_c, 13, 78, 103
14, 224709, Note_off_c, 13, 78, 64
14, 224871, Note_on_c, 13, 78, 111
14, 224945, Note_off_c, 13, 78, 64
14, 225106, Note_on_c, 13, 78, 111
14, 225179, Note_off_c, 13, 78, 64
14, 225351, Note_on_c, 13, 78, 111
14, 225428, Note_off_c, 13, 78, 64
14, 228480, Note_on_c, 13, 59, 38
14, 228583, Note_off_c, 13, 59, 64
14, 228718, Note_on_c, 13, 59, 48
14, 228823, Note_off_c, 13, 59, 64
14, 228964, Note_on_c, 13, 59, 41
14, 229063, Note_off_c, 13, 59, 64
14, 229205, Note_on_c, 13, 59, 42
14, 229317, Note_off_c, 13, 59, 64
14, 229442, Note_on_c, 13, 59, 39
14, 229552, Note_off_c, 13, 59, 64
14, 229680, Note_on_c, 13, 59, 35
14, 229776, Note_off_c, 13, 59, 64
14, 229921, Note_on_c, 13, 59, 37
14, 230042, Note_off_c, 13, 59, 64
14, 230159, Note_on_c, 13, 59, 47
14, 230275, Note_off_c, 13, 59, 64
14, 230398, Note_on_c, 13, 59, 42
14, 230515, Note_off_c, 13, 59, 64
14, 230636, Note_on_c, 13, 59, 38
14, 230765, Note_off_c, 13, 59, 64
14, 230879, Note_on_c, 13, 59, 46
14, 230983, Note_off_c, 13, 59, 64
14, 231113, Note_on_c, 13, 59, 48
14, 231224, Note_off_c, 13, 59, 64
14, 231355, Note_on_c, 13, 59, 69
14, 231485, Note_off_c, 13, 59, 64
14, 231596, Note_on_c, 13, 59, 61
14, 231710, Note_off_c, 13, 59, 64
14, 231837, Note_on_c, 13, 59, 65
14, 231944, Note_off_c, 13, 59, 64
14, 232077, Note_on_c, 13, 59, 65
14, 232189, Note_off_c, 13, 59, 64
14, 232323, Note_on_c, 13, 59, 69
14, 232413, Note_off_c, 13, 59, 64
14, 232552, Note_on_c, 13, 59, 59
14, 232663, Note_off_c, 13, 59, 64
14, 232801, Note_on_c, 13, 63, 76
14, 232940, Note_off_c, 13, 63, 64
14, 233035, Note_on_c, 13, 66, 76
14, 233150, Note_off_c, 13, 66, 64
14, 233283, Note_on_c, 13, 61, 75
14, 233374, Note_off_c, 13, 61, 64
14, 233520, Note_on_c, 13, 63, 76
14, 233693, Note_off_c, 13, 63, 64
14, 233763, Note_on_c, 13, 59, 76
14, 233854, Note_off_c, 13, 59, 64
14, 234002, Note_on_c, 13, 54, 66
14, 234096, Note_off_c, 13, 54, 64
14, 234252, Note_on_c, 13, 59, 76
14, 234335, Note_off_c, 13, 59, 64
14, 234484, Note_on_c, 13, 63, 69
14, 234559, Note_off_c, 13, 63, 64
14, 234719, Note_on_c, 13, 66, 76
14, 234815, Note_off_c, 13, 66, 64
14, 234967, Note_on_c, 13, 58, 65
14, 235166, Note_off_c, 13, 58, 64
14, 235212, Note_on_c, 13, 61, 76
14, 235315, Note_off_c, 13, 61, 64
14, 235438, Note_on_c, 13, 66, 76
14, 235578, Note_off_c, 13, 66, 64
14, 235679, Note_on_c, 13, 59, 76
14, 235865, Note_off_c, 13, 59, 64
14, 235919, Note_on_c, 13, 63, 76
14, 236043, Note_off_c, 13, 63, 64
14, 236151, Note_on_c, 13, 66, 76
14, 236287, Note_off_c, 13, 66, 64
14, 236402, Note_on_c, 13, 54, 70
14, 236566, Note_off_c, 13, 54, 64
14, 236637, Note_on_c, 13, 61, 76
14, 236750, Note_off_c, 13, 61, 64
14, 236877, Note_on_c, 13, 66, 76
14, 236981, Note_off_c, 13, 66, 64
14, 237127, Note_on_c, 13, 59, 69
14, 237235, Note_off_c, 13, 59, 64
14, 237243, Note_on_c, 13, 58, 54
14, 237353, Note_off_c, 13, 58, 64
14, 237356, Note_on_c, 13, 59, 57
14, 237445, Note_off_c, 13, 59, 64
14, 237474, Note_on_c, 13, 61, 54
14, 237556, Note_off_c, 13, 61, 64
14, 237591, Note_on_c, 13, 63, 68
14, 237670, Note_off_c, 13, 63, 64
14, 237709, Note_on_c, 13, 64, 68
14, 237778, Note_off_c, 13, 64, 64
14, 237833, Note_on_c, 13, 66, 63
14, 237948, Note_off_c, 13, 66, 64
14, 237953, Note_on_c, 13, 68, 52
14, 238039, Note_off_c, 13, 68, 64
14, 238073, Note_on_c, 13, 66, 58
14, 238158, Note_off_c, 13, 66, 64
14, 238193, Note_on_c, 13, 64, 65
14, 238274, Note_off_c, 13, 64, 64
14, 238311, Note_on_c, 13, 63, 58
14, 238393, Note_off_c, 13, 63, 64
14, 238430, Note_on_c, 13, 61, 62
14, 238514, Note_off_c, 13, 61, 64
14, 238559, Note_on_c, 13, 59, 62
14, 238714, Note_off_c, 13, 59, 64
14, 238803, Note_on_c, 13, 63, 76
14, 238902, Note_off_c, 13, 63, 64
14, 239038, Note_on_c, 13, 66, 76
14, 239158, Note_off_c, 13, 66, 64
14, 239284, Note_on_c, 13, 73, 96
14, 239449, Note_off_c, 13, 73, 64
14, 239517, Note_on_c, 13, 76, 93
14, 239621, Note_off_c, 13, 76, 64
14, 239756, Note_on_c, 13, 66, 82
14, 239844, Note_off_c, 13, 66, 64
14, 240000, Note_on_c, 13, 75, 58
14, 240109, Note_off_c, 13, 75, 64
14, 240236, Note_on_c, 13, 75, 65
14, 240363, Note_off_c, 13, 75, 64
14, 240479, Note_on_c, 13, 75, 76
14, 240581, Note_off_c, 13, 75, 64
14, 240716, Note_on_c, 13, 75, 62
14, 240831, Note_off_c, 13, 75, 64
14, 240955, Note_on_c, 13, 75, 66
14, 241069, Note_off_c, 13, 75, 64
14, 241193, Note_on_c, 13, 75, 71
14, 241306, Note_off_c, 13, 75, 64
14, 241436, Note_on_c, 13, 73, 76
14, 241566, Note_off_c, 13, 73, 64
14, 241681, Note_on_c, 13, 73, 72
14, 241801, Note_off_c, 13, 73, 64
14, 241919, Note_on_c, 13, 73, 76
14, 242030, Note_off_c, 13, 73, 64
14, 242157, Note_on_c, 13, 73, 76
14, 242278, Note_off_c, 13, 73, 64
14, 242395, Note_on_c, 13, 73, 76
14, 242513, Note_off_c, 13, 73, 64
14, 242633, Note_on_c, 13, 73, 76
14, 242748, Note_off_c, 13, 73, 64
14, 242871, Note_on_c, 13, 71, 76
14, 243015, Note_off_c, 13, 71, 64
14, 243117, Note_on_c, 13, 71, 76
14, 243235, Note_off_c, 13, 71, 64
14, 243357, Note_on_c, 13, 71, 76
14, 243479, Note_off_c, 13, 71, 64
14, 243596, Note_on_c, 13, 71, 76
14, 243731, Note_off_c, 13, 71, 64
14, 243836, Note_on_c, 13, 71, 76
14, 243943, Note_off_c, 13, 71, 64
14, 244075, Note_on_c, 13, 71, 76
14, 244159, Note_off_c, 13, 71, 64
14, 249120, Note_on_c, 13, 73, 76
14, 249218, Note_off_c, 13, 73, 64
14, 249359, Note_on_c, 13, 73, 77
14, 249472, Note_off_c, 13, 73, 64
14, 249599, Note_on_c, 13, 73, 84
14, 249691, Note_off_c, 13, 73, 64
14, 249842, Note_on_c, 13, 73, 109
14, 249943, Note_off_c, 13, 73, 64
14, 260400, Note_on_c, 13, 61, 86
14, 260511, Note_off_c, 13, 61, 64
14, 260637, Note_on_c, 13, 61, 83
14, 260748, Note_off_c, 13, 61, 64
14, 260880, Note_on_c, 13, 61, 88
14, 260988, Note_off_c, 13, 61, 64
14, 261118, Note_on_c, 13, 61, 87
14, 261208, Note_off_c, 13, 61, 64
14, 261362, Note_on_c, 13, 61, 96
14, 261468, Note_off_c, 13, 61, 64
14, 266167, Note_on_c, 13, 66, 84
14, 266268, Note_off_c, 13, 66, 64
14, 266278, Note_on_c, 13, 68, 76
14, 266395, Note_off_c, 13, 68, 64
14, 266398, Note_on_c, 13, 70, 76
14, 266510, Note_off_c, 13, 70, 64
14, 266641, Note_on_c, 13, 61, 83
14, 266861, Note_off_c, 13, 61, 64
14, 266879, Note_on_c, 13, 66, 76
14, 266989, Note_off_c, 13, 66, 64
14, 267117, Note_on_c, 13, 65, 66
14, 267217, Note_off_c, 13, 65, 64
14, 267363, Note_on_c, 13, 66, 77
14, 267543, Note_off_c, 13, 66, 64
14, 267599, Note_on_c, 13, 70, 76
14, 267700, Note_off_c, 13, 70, 64
14, 267834, Note_on_c, 13, 73, 79
14, 267933, Note_off_c, 13, 73, 64
14, 268078, Note_on_c, 13, 78, 71
14, 268696, Note_off_c, 13, 78, 64
14, 268800, Note_on_c, 13, 61, 76
14, 268941, Note_off_c, 13, 61, 64
14, 269034, Note_on_c, 13, 65, 59
14, 269105, Note_off_c, 13, 65, 64
14, 269277, Note_on_c, 13, 68, 76
14, 269350, Note_off_c, 13, 68, 64
14, 269523, Note_on_c, 13, 60, 65
14, 269649, Note_off_c, 13, 60, 64
14, 269756, Note_on_c, 13, 63, 76
14, 269822, Note_off_c, 13, 63, 64
14, 270001, Note_on_c, 13, 68, 76
14, 270075, Note_off_c, 13, 68, 64
14, 270235, Note_on_c, 13, 61, 76
14, 270406, Note_off_c, 13, 61, 64
14, 270483, Note_on_c, 13, 65, 55
14, 270551, Note_off_c, 13, 65, 64
14, 270724, Note_on_c, 13, 68, 76
14, 270792, Note_off_c, 13, 68, 64
14, 270961, Note_on_c, 13, 56, 76
14, 271107, Note_off_c, 13, 56, 64
14, 271195, Note_on_c, 13, 63, 76
14, 271280, Note_off_c, 13, 63, 64
14, 271437, Note_on_c, 13, 68, 76
14, 271517, Note_off_c, 13, 68, 64
14, 271683, Note_on_c, 13, 70, 76
14, 271813, Note_off_c, 13, 70, 64
14, 271918, Note_on_c, 13, 70, 76
14, 272035, Note_off_c, 13, 70, 64
14, 272155, Note_on_c, 13, 70, 76
14, 272271, Note_off_c, 13, 70, 64
14, 272399, Note_on_c, 13, 70, 53
14, 272509, Note_off_c, 13, 70, 64
14, 272643, Note_on_c, 13, 70, 71
14, 272742, Note_off_c, 13, 70, 64
14, 272884, Note_on_c, 13, 70, 76
14, 272995, Note_off_c, 13, 70, 64
14, 273124, Note_on_c, 13, 70, 76
14, 273251, Note_off_c, 13, 70, 64
14, 273353, Note_on_c, 13, 70, 76
14, 273480, Note_off_c, 13, 70, 64
14, 273600, Note_on_c, 13, 70, 76
14, 273716, Note_off_c, 13, 70, 64
14, 273837, Note_on_c, 13, 70, 76
14, 273987, Note_off_c, 13, 70, 64
14, 274081, Note_on_c, 13, 70, 76
14, 274186, Note_off_c, 13, 70, 64
14, 274322, Note_on_c, 13, 70, 82
14, 274423, Note_off_c, 13, 70, 64
14, 274560, Note_on_c, 13, 70, 40
14, 274762, Note_off_c, 13, 70, 64
14, 274801, Note_on_c, 13, 75, 55
14, 274908, Note_off_c, 13, 75, 64
14, 275038, Note_on_c, 13, 78, 55
14, 275139, Note_off_c, 13, 78, 64
14, 275278, Note_on_c, 13, 71, 51
14, 275451, Note_off_c, 13, 71, 64
14, 275516, Note_on_c, 13, 75, 48
14, 275596, Note_off_c, 13, 75, 64
14, 275757, Note_on_c, 13, 78, 55
14, 275832, Note_off_c, 13, 78, 64
14, 275997, Note_on_c, 13, 70, 47
14, 276160, Note_off_c, 13, 70, 64
14, 276238, Note_on_c, 13, 75, 55
14, 276322, Note_off_c, 13, 75, 64
14, 276476, Note_on_c, 13, 78, 55
14, 276557, Note_off_c, 13, 78, 64
14, 276718, Note_on_c, 13, 68, 48
14, 276878, Note_off_c, 13, 68, 64
14, 276958, Note_on_c, 13, 75, 55
14, 277035, Note_off_c, 13, 75, 64
14, 277194, Note_on_c, 13, 78, 55
14, 277268, Note_off_c, 13, 78, 64
14, 277437, Note_on_c, 13, 70, 51
14, 277590, Note_off_c, 13, 70, 64
14, 277675, Note_on_c, 13, 75, 55
14, 277756, Note_off_c, 13, 75, 64
14, 277913, Note_on_c, 13, 78, 55
14, 277988, Note_off_c, 13, 78, 64
14, 278155, Note_on_c, 13, 71, 46
14, 278335, Note_off_c, 13, 71, 64
14, 278395, Note_on_c, 13, 75, 55
14, 278472, Note_off_c, 13, 75, 64
14, 278631, Note_on_c, 13, 78, 55
14, 278698, Note_off_c, 13, 78, 64
14, 278879, Note_on_c, 13, 70, 49
14, 279043, Note_off_c, 13, 70, 64
14, 279119, Note_on_c, 13, 75, 55
14, 279192, Note_off_c, 13, 75, 64
14, 279359, Note_on_c, 13, 74, 42
14, 279433, Note_off_c, 13, 74, 64
14, 279599, Note_on_c, 13, 75, 47
14, 280054, Note_off_c, 13, 75, 64
14, 285120, Note_on_c, 13, 82, 76
14, 285221, Note_off_c, 13, 82, 64
14, 285348, Note_on_c, 13, 82, 86
14, 285459, Note_off_c, 13, 82, 64
14, 285581, Note_on_c, 13, 82, 82
14, 285683, Note_off_c, 13, 82, 64
14, 285821, Note_on_c, 13, 82, 80
14, 285925, Note_off_c, 13, 82, 64
14, 290394, Note_on_c, 13, 70, 63
14, 290554, Note_off_c, 13, 70, 64
14, 290636, Note_on_c, 13, 73, 76
14, 290734, Note_off_c, 13, 73, 64
14, 290869, Note_on_c, 13, 77, 62
14, 290967, Note_off_c, 13, 77, 64
14, 291119, Note_on_c, 13, 69, 59
14, 291254, Note_off_c, 13, 69, 64
14, 291360, Note_on_c, 13, 72, 66
14, 291450, Note_off_c, 13, 72, 64
14, 291589, Note_on_c, 13, 77, 60
14, 291674, Note_off_c, 13, 77, 64
14, 291831, Note_on_c, 13, 70, 76
14, 291980, Note_off_c, 13, 70, 64
14, 292071, Note_on_c, 13, 73, 76
14, 292147, Note_off_c, 13, 73, 64
14, 292301, Note_on_c, 13, 77, 65
14, 292390, Note_off_c, 13, 77, 64
14, 292560, Note_on_c, 13, 65, 63
14, 292696, Note_off_c, 13, 65, 64
14, 292793, Note_on_c, 13, 72, 70
14, 292881, Note_off_c, 13, 72, 64
14, 293032, Note_on_c, 13, 77, 70
14, 293115, Note_off_c, 13, 77, 64
14, 293280, Note_on_c, 13, 70, 92
14, 293383, Note_off_c, 13, 70, 64
14, 293395, Note_on_c, 13, 69, 88
14, 293473, Note_off_c, 13, 69, 64
14, 293507, Note_on_c, 13, 70, 83
14, 293597, Note_off_c, 13, 70, 64
14, 293616, Note_on_c, 13, 72, 101
14, 293699, Note_off_c, 13, 72, 64
14, 293738, Note_on_c, 13, 73, 78
14, 293830, Note_off_c, 13, 73, 64
14, 293855, Note_on_c, 13, 75, 99
14, 293944, Note_off_c, 13, 75, 64
14, 293995, Note_on_c, 13, 77, 93
14, 294091, Note_off_c, 13, 77, 64
14, 294111, Note_on_c, 13, 78, 80
14, 294197, Note_off_c, 13, 78, 64
14, 294218, Note_on_c, 13, 77, 86
14, 294305, Note_off_c, 13, 77, 64
14, 294342, Note_on_c, 13, 75, 83
14, 294433, Note_off_c, 13, 75, 64
14, 294466, Note_on_c, 13, 73, 78
14, 294547, Note_off_c, 13, 73, 64
14, 294588, Note_on_c, 13, 72, 86
14, 294664, Note_off_c, 13, 72, 64
14, 294729, Note_on_c, 13, 70, 88
14, 294856, Note_off_c, 13, 70, 64
14, 294964, Note_on_c, 13, 73, 72
14, 295070, Note_off_c, 13, 73, 64
14, 295207, Note_on_c, 13, 65, 86
14, 295298, Note_off_c, 13, 65, 64
14, 295456, Note_on_c, 13, 72, 93
14, 295596, Note_off_c, 13, 72, 64
14, 295685, Note_on_c, 13, 75, 70
14, 295769, Note_off_c, 13, 75, 64
14, 295920, Note_on_c, 13, 65, 71
14, 296007, Note_off_c, 13, 65, 64
14, 296175, Note_on_c, 13, 73, 70
14, 296281, Note_off_c, 13, 73, 64
14, 296411, Note_on_c, 13, 73, 70
14, 296525, Note_off_c, 13, 73, 64
14, 296649, Note_on_c, 13, 73, 70
14, 296752, Note_off_c, 13, 73, 64
14, 296884, Note_on_c, 13, 73, 70
14, 297000, Note_off_c, 13, 73, 64
14, 297114, Note_on_c, 13, 73, 70
14, 297213, Note_off_c, 13, 73, 64
14, 297343, Note_on_c, 13, 73, 70
14, 297442, Note_off_c, 13, 73, 64
14, 297585, Note_on_c, 13, 72, 56
14, 297726, Note_off_c, 13, 72, 64
14, 297830, Note_on_c, 13, 72, 53
14, 297948, Note_off_c, 13, 72, 64
14, 298061, Note_on_c, 13, 72, 53
14, 298175, Note_off_c, 13, 72, 64
14, 298300, Note_on_c, 13, 72, 53
14, 298413, Note_off_c, 13, 72, 64
14, 298548, Note_on_c, 13, 72, 55
14, 298664, Note_off_c, 13, 72, 64
14, 298784, Note_on_c, 13, 72, 50
14, 298896, Note_off_c, 13, 72, 64
14, 299026, Note_on_c, 13, 70, 70
14, 299156, Note_off_c, 13, 70, 64
14, 299264, Note_on_c, 13, 70, 70
14, 299369, Note_off_c, 13, 70, 64
14, 299504, Note_on_c, 13, 70, 70
14, 299612, Note_off_c, 13, 70, 64
14, 299745, Note_on_c, 13, 70, 65
14, 299855, Note_off_c, 13, 70, 64
14, 299988, Note_on_c, 13, 70, 70
14, 300078, Note_off_c, 13, 70, 64
14, 300218, Note_on_c, 13, 70, 70
14, 300308, Note_off_c, 13, 70, 64
14, 306245, Note_on_c, 13, 69, 94
14, 306368, Note_off_c, 13, 69, 64
14, 306484, Note_on_c, 13, 65, 80
14, 306579, Note_off_c, 13, 65, 64
14, 306724, Note_on_c, 13, 65, 77
14, 306818, Note_off_c, 13, 65, 64
14, 306955, Note_on_c, 13, 65, 80
14, 307046, Note_off_c, 13, 65, 64
14, 307190, Note_on_c, 13, 65, 89
14, 307286, Note_off_c, 13, 65, 64
14, 307432, Note_on_c, 13, 65, 89
14, 307510, Note_off_c, 13, 65, 64
14, 307686, Note_on_c, 13, 77, 110
14, 307773, Note_off_c, 13, 77, 64
14, 307795, Note_on_c, 13, 80, 86
14, 307879, Note_off_c, 13, 80, 64
14, 307911, Note_on_c, 13, 70, 93
14, 307982, Note_off_c, 13, 70, 64
14, 308015, Note_on_c, 13, 80, 79
14, 308099, Note_off_c, 13, 80, 64
14, 308142, Note_on_c, 13, 77, 96
14, 308234, Note_off_c, 13, 77, 64
14, 308250, Note_on_c, 13, 80, 86
14, 308325, Note_off_c, 13, 80, 64
14, 308379, Note_on_c, 13, 77, 94
14, 308474, Note_off_c, 13, 77, 64
14, 308497, Note_on_c, 13, 80, 82
14, 308588, Note_off_c, 13, 80, 64
14, 308619, Note_on_c, 13, 70, 88
14, 308702, Note_off_c, 13, 70, 64
14, 308744, Note_on_c, 13, 80, 83
14, 308817, Note_off_c, 13, 80, 64
14, 308875, Note_on_c, 13, 77, 86
14, 308942, Note_off_c, 13, 77, 64
14, 308980, Note_on_c, 13, 80, 92
14, 309041, Note_off_c, 13, 80, 64
14, 309120, Note_on_c, 13, 63, 76
14, 309254, Note_off_c, 13, 63, 64
14, 309350, Note_on_c, 13, 66, 76
14, 309433, Note_off_c, 13, 66, 64
14, 309572, Note_on_c, 13, 70, 76
14, 309654, Note_off_c, 13, 70, 64
14, 309824, Note_on_c, 13, 66, 72
14, 309978, Note_off_c, 13, 66, 64
14, 310066, Note_on_c, 13, 70, 76
14, 310151, Note_off_c, 13, 70, 64
14, 310307, Note_on_c, 13, 75, 76
14, 310405, Note_off_c, 13, 75, 64
14, 310563, Note_on_c, 13, 69, 63
14, 310707, Note_off_c, 13, 69, 64
14, 310795, Note_on_c, 13, 72, 69
14, 310889, Note_off_c, 13, 72, 64
14, 311034, Note_on_c, 13, 77, 69
14, 311130, Note_off_c, 13, 77, 64
14, 311282, Note_on_c, 13, 72, 61
14, 311429, Note_off_c, 13, 72, 64
14, 311513, Note_on_c, 13, 77, 71
14, 311599, Note_off_c, 13, 77, 64
14, 311751, Note_on_c, 13, 81, 66
14, 311838, Note_off_c, 13, 81, 64
14, 312012, Note_on_c, 13, 82, 76
14, 312110, Note_off_c, 13, 82, 64
14, 312251, Note_on_c, 13, 70, 69
14, 312335, Note_off_c, 13, 70, 64
14, 312344, Note_on_c, 13, 72, 55
14, 312455, Note_off_c, 13, 72, 64
14, 312470, Note_on_c, 13, 73, 76
14, 312552, Note_off_c, 13, 73, 64
14, 312724, Note_on_c, 13, 65, 61
14, 312930, Note_off_c, 13, 65, 64
14, 312974, Note_on_c, 13, 70, 71
14, 313049, Note_off_c, 13, 70, 64
14, 313202, Note_on_c, 13, 69, 65
14, 313272, Note_off_c, 13, 69, 64
14, 313451, Note_on_c, 13, 70, 71
14, 314049, Note_off_c, 13, 70, 64
14, 314127, Note_on_c, 13, 58, 76
14, 314784, Note_off_c, 13, 58, 64
14, 314880, Note_on_c, 13, 68, 48
14, 314984, Note_off_c, 13, 68, 64
14, 315112, Note_on_c, 13, 68, 69
14, 315216, Note_off_c, 13, 68, 64
14, 315353, Note_on_c, 13, 68, 71
14, 315446, Note_off_c, 13, 68, 64
14, 315594, Note_on_c, 13, 68, 69
14, 315690, Note_off_c, 13, 68, 64
14, 315829, Note_on_c, 13, 68, 71
14, 315924, Note_off_c, 13, 68, 64
14, 316073, Note_on_c, 13, 68, 72
14, 316162, Note_off_c, 13, 68, 64
14, 316315, Note_on_c, 13, 68, 76
14, 316420, Note_off_c, 13, 68, 64
14, 316426, Note_on_c, 13, 71, 76
14, 316543, Note_off_c, 13, 71, 64
14, 316543, Note_on_c, 13, 70, 76
14, 316633, Note_off_c, 13, 70, 64
14, 316661, Note_on_c, 13, 68, 76
14, 316748, Note_off_c, 13, 68, 64
14, 316777, Note_on_c, 13, 66, 76
14, 316873, Note_off_c, 13, 66, 64
14, 316894, Note_on_c, 13, 65, 69
14, 316979, Note_off_c, 13, 65, 64
14, 317029, Note_on_c, 13, 66, 70
14, 317180, Note_off_c, 13, 66, 64
14, 317278, Note_on_c, 13, 63, 76
14, 317367, Note_off_c, 13, 63, 64
14, 317510, Note_on_c, 13, 66, 76
14, 317591, Note_off_c, 13, 66, 64
14, 320655, Note_on_c, 13, 76, 87
14, 320790, Note_off_c, 13, 76, 64
14, 320879, Note_on_c, 13, 76, 82
14, 320994, Note_off_c, 13, 76, 64
14, 321120, Note_on_c, 13, 76, 82
14, 321224, Note_off_c, 13, 76, 64
14, 321352, Note_on_c, 13, 76, 76
14, 321435, Note_off_c, 13, 76, 64
14, 321508, Note_on_c, 13, 66, 109
14, 321576, Note_off_c, 13, 66, 64
14, 321593, Note_on_c, 13, 70, 103
14, 321671, Note_off_c, 13, 70, 64
14, 321693, Note_on_c, 13, 73, 93
14, 321775, Note_off_c, 13, 73, 64
14, 321808, Note_on_c, 13, 70, 88
14, 321892, Note_off_c, 13, 70, 64
14, 321919, Note_on_c, 13, 66, 86
14, 322010, Note_off_c, 13, 66, 64
14, 322061, Note_on_c, 13, 75, 83
14, 322213, Note_off_c, 13, 75, 64
14, 322320, Note_on_c, 13, 75, 86
14, 322426, Note_off_c, 13, 75, 64
14, 322555, Note_on_c, 13, 75, 87
14, 322659, Note_off_c, 13, 75, 64
14, 322794, Note_on_c, 13, 75, 77
14, 322878, Note_off_c, 13, 75, 64
14, 322936, Note_on_c, 13, 64, 100
14, 323011, Note_off_c, 13, 64, 64
14, 323023, Note_on_c, 13, 68, 103
14, 323100, Note_off_c, 13, 68, 64
14, 323136, Note_on_c, 13, 71, 93
14, 323216, Note_off_c, 13, 71, 64
14, 323257, Note_on_c, 13, 68, 88
14, 323338, Note_off_c, 13, 68, 64
14, 323372, Note_on_c, 13, 64, 82
14, 323467, Note_off_c, 13, 64, 64
14, 323563, Note_on_c, 13, 78, 76
14, 323619, Note_off_c, 13, 78, 64
14, 323763, Note_on_c, 13, 78, 76
14, 323840, Note_off_c, 13, 78, 64
14, 324006, Note_on_c, 13, 78, 76
14, 324083, Note_off_c, 13, 78, 64
14, 324246, Note_on_c, 13, 78, 76
14, 324334, Note_off_c, 13, 78, 64
14, 324482, Note_on_c, 13, 78, 76
14, 324559, Note_off_c, 13, 78, 64
14, 324712, Note_on_c, 13, 78, 76
14, 324790, Note_off_c, 13, 78, 64
14, 324947, Note_on_c, 13, 78, 76
14, 325032, Note_off_c, 13, 78, 64
14, 325175, Note_on_c, 13, 78, 76
14, 325274, Note_off_c, 13, 78, 64
14, 325425, Note_on_c, 13, 78, 76
14, 325521, Note_off_c, 13, 78, 64
14, 325667, Note_on_c, 13, 78, 76
14, 325764, Note_off_c, 13, 78, 64
14, 325905, Note_on_c, 13, 78, 76
14, 325998, Note_off_c, 13, 78, 64
14, 326134, Note_on_c, 13, 78, 76
14, 326219, Note_off_c, 13, 78, 64
14, 326381, Note_on_c, 13, 78, 76
14, 326479, Note_off_c, 13, 78, 64
14, 326628, Note_on_c, 13, 78, 76
14, 326719, Note_off_c, 13, 78, 64
14, 326864, Note_on_c, 13, 78, 76
14, 326956, Note_off_c, 13, 78, 64
14, 327106, Note_on_c, 13, 78, 76
14, 327195, Note_off_c, 13, 78, 64
14, 327335, Note_on_c, 13, 78, 76
14, 327423, Note_off_c, 13, 78, 64
14, 327576, Note_on_c, 13, 78, 77
14, 327651, Note_off_c, 13, 78, 64
14, 327827, Note_on_c, 13, 78, 80
14, 327895, Note_off_c, 13, 78, 64
14, 328084, Note_on_c, 13, 78, 100
14, 328152, Note_off_c, 13, 78, 64
14, 328314, Note_on_c, 13, 78, 103
14, 328389, Note_off_c, 13, 78, 64
14, 328551, Note_on_c, 13, 78, 111
14, 328625, Note_off_c, 13, 78, 64
14, 328786, Note_on_c, 13, 78, 111
14, 328859, Note_off_c, 13, 78, 64
14, 329031, Note_on_c, 13, 78, 111
14, 329108, Note_off_c, 13, 78, 64
14, 332160, Note_on_c, 13, 59, 38
14, 332263, Note_off_c, 13, 59, 64
14, 332398, Note_on_c, 13, 59, 48
14, 332503, Note_off_c, 13, 59, 64
14, 332644, Note_on_c, 13, 59, 41
14, 332743, Note_off_c, 13, 59, 64
14, 332885, Note_on_c, 13, 59, 42
14, 332997, Note_off_c, 13, 59, 64
14, 333122, Note_on_c, 13, 59, 39
14, 333232, Note_off_c, 13, 59, 64
14, 333360, Note_on_c, 13, 59, 35
14, 333456, Note_off_c, 13, 59, 64
14, 333601, Note_on_c, 13, 59, 37
14, 333722, Note_off_c, 13, 59, 64
14, 333839, Note_on_c, 13, 59, 47
14, 333955, Note_off_c, 13, 59, 64
14, 334078, Note_on_c, 13, 59, 42
14, 334195, Note_off_c, 13, 59, 64
14, 334316, Note_on_c, 13, 59, 38
14, 334445, Note_off_c, 13, 59, 64
14, 334559, Note_on_c, 13, 59, 46
14, 334663, Note_off_c, 13, 59, 64
14, 334793, Note_on_c, 13, 59, 48
14, 334904, Note_off_c, 13, 59, 64
14, 335035, Note_on_c, 13, 59, 69
14, 335165, Note_off_c, 13, 59, 64
14, 335276, Note_on_c, 13, 59, 61
14, 335390, Note_off_c, 13, 59, 64
14, 335517, Note_on_c, 13, 59, 65
14, 335624, Note_off_c, 13, 59, 64
14, 335757, Note_on_c, 13, 59, 65
14, 335869, Note_off_c, 13, 59, 64
14, 336003, Note_on_c, 13, 59, 69
14, 336093, Note_off_c, 13, 59, 64
14, 336232, Note_on_c, 13, 59, 59
14, 336343, Note_off_c, 13, 59, 64
14, 336481, Note_on_c, 13, 63, 76
14, 336620, Note_off_c, 13, 63, 64
14, 336715, Note_on_c, 13, 66, 76
14, 336830, Note_off_c, 13, 66, 64
14, 336963, Note_on_c, 13, 61, 75
14, 337054, Note_off_c, 13, 61, 64
14, 337200, Note_on_c, 13, 63, 76
14, 337373, Note_off_c, 13, 63, 64
14, 337443, Note_on_c, 13, 59, 76
14, 337534, Note_off_c, 13, 59, 64
14, 337682, Note_on_c, 13, 54, 66
14, 337776, Note_off_c, 13, 54, 64
14, 337932, Note_on_c, 13, 59, 76
14, 338015, Note_off_c, 13, 59, 64
14, 338164, Note_on_c, 13, 63, 69
14, 338239, Note_off_c, 13, 63, 64
14, 338399, Note_on_c, 13, 66, 76
14, 338495, Note_off_c, 13, 66, 64
14, 338647, Note_on_c, 13, 58, 65
14, 338846, Note_off_c, 13, 58, 64
14, 338892, Note_on_c, 13, 61, 76
14, 338995, Note_off_c, 13, 61, 64
14, 339118, Note_on_c, 13, 66, 76
14, 339258, Note_off_c, 13, 66, 64
14, 339359, Note_on_c, 13, 59, 76
14, 339545, Note_off_c, 13, 59, 64
14, 339599, Note_on_c, 13, 63, 76
14, 339723, Note_off_c, 13, 63, 64
14, 339831, Note_on_c, 13, 66, 76
14, 339967, Note_off_c, 13, 66, 64
14, 340082, Note_on_c, 13, 54, 70
14, 340246, Note_off_c, 13, 54, 64
14, 340317, Note_on_c, 13, 61, 76
14, 340430, Note_off_c, 13, 61, 64
14, 340557, Note_on_c, 13, 66, 76
14, 340661, Note_off_c, 13, 66, 64
14, 340807, Note_on_c, 13, 59, 69
14, 340915, Note_off_c, 13, 59, 64
14, 340923, Note_on_c, 13, 58, 54
14, 341033, Note_off_c, 13, 58, 64
14, 341036, Note_on_c, 13, 59, 57
14, 341125, Note_off_c, 13, 59, 64
14, 341154, Note_on_c, 13, 61, 54
14, 341236, Note_off_c, 13, 61, 64
14, 341271, Note_on_c, 13, 63, 68
14, 341350, Note_off_c, 13, 63, 64
14, 341389, Note_on_c, 13, 64, 68
14, 341458, Note_off_c, 13, 64, 64
14, 341513, Note_on_c, 13, 66, 63
14, 341628, Note_off_c, 13, 66, 64
14, 341633, Note_on_c, 13, 68, 52
14, 341719, Note_off_c, 13, 68, 64
14, 341753, Note_on_c, 13, 66, 58
14, 341838, Note_off_c, 13, 66, 64
14, 341873, Note_on_c, 13, 64, 65
14, 341954, Note_off_c, 13, 64, 64
14, 341991, Note_on_c, 13, 63, 58
14, 342073, Note_off_c, 13, 63, 64
14, 342110, Note_on_c, 13, 61, 62
14, 342194, Note_off_c, 13, 61, 64
14, 342239, Note_on_c, 13, 59, 62
14, 342394, Note_off_c, 13, 59, 64
14, 342483, Note_on_c, 13, 63, 76
14, 342582, Note_off_c, 13, 63, 64
14, 342718, Note_on_c, 13, 66, 76
14, 342838, Note_off_c, 13, 66, 64
14, 342964, Note_on_c, 13, 73, 96
14, 343129, Note_off_c, 13, 73, 64
14, 343197, Note_on_c, 13, 76, 93
14, 343301, Note_off_c, 13, 76, 64
14, 343436, Note_on_c, 13, 66, 82
14, 343524, Note_off_c, 13, 66, 64
14, 343680, Note_on_c, 13, 75, 58
14, 343789, Note_off_c, 13, 75, 64
14, 343916, Note_on_c, 13, 75, 65
14, 344043, Note_off_c, 13, 75, 64
14, 344159, Note_on_c, 13, 75, 76
14, 344261, Note_off_c, 13, 75, 64
14, 344396, Note_on_c, 13, 75, 62
14, 344511, Note_off_c, 13, 75, 64
14, 344635, Note_on_c, 13, 75, 66
14, 344749, Note_off_c, 13, 75, 64
14, 344873, Note_on_c, 13, 75, 71
14, 344986, Note_off_c, 13, 75, 64
14, 345116, Note_on_c, 13, 73, 76
14, 345246, Note_off_c, 13, 73, 64
14, 345361, Note_on_c, 13, 73, 72
14, 345481, Note_off_c, 13, 73, 64
14, 345599, Note_on_c, 13, 73, 76
14, 345710, Note_off_c, 13, 73, 64
14, 345837, Note_on_c, 13, 73, 76
14, 345958, Note_off_c, 13, 73, 64
14, 346075, Note_on_c, 13, 73, 76
14, 346193, Note_off_c, 13, 73, 64
14, 346313, Note_on_c, 13, 73, 76
14, 346428, Note_off_c, 13, 73, 64
14, 346551, Note_on_c, 13, 71, 76
14, 346695, Note_off_c, 13, 71, 64
14, 346797, Note_on_c, 13, 71, 76
14, 346915, Note_off_c, 13, 71, 64
14, 347037, Note_on_c, 13, 71, 76
14, 347159, Note_off_c, 13, 71, 64
14, 347276, Note_on_c, 13, 71, 76
14, 347411, Note_off_c, 13, 71, 64
14, 347516, Note_on_c, 13, 71, 76
14, 347623, Note_off_c, 13, 71, 64
14, 347755, Note_on_c, 13, 71, 76
14, 347839, Note_off_c, 13, 71, 64
14, 352800, Note_on_c, 13, 73, 76
14, 352898, Note_off_c, 13, 73, 64
14, 353039, Note_on_c, 13, 73, 77
14, 353152, Note_off_c, 13, 73, 64
14, 353279, Note_on_c, 13, 73, 84
14, 353371, Note_off_c, 13, 73, 64
14, 353522, Note_on_c, 13, 73, 109
14, 353623, Note_off_c, 13, 73, 64
14, 364080, Note_on_c, 13, 61, 86
14, 364191, Note_off_c, 13, 61, 64
14, 364317, Note_on_c, 13, 61, 83
14, 364428, Note_off_c, 13, 61, 64
14, 364560, Note_on_c, 13, 61, 88
14, 364668, Note_off_c, 13, 61, 64
14, 364798, Note_on_c, 13, 61, 87
14, 364888, Note_off_c, 13, 61, 64
14, 365042, Note_on_c, 13, 61, 96
14, 365148, Note_off_c, 13, 61, 64
14, 369847, Note_on_c, 13, 66, 84
14, 369948, Note_off_c, 13, 66, 64
14, 369958, Note_on_c, 13, 68, 76
14, 370075, Note_off_c, 13, 68, 64
14, 370078, Note_on_c, 13, 70, 76
14, 370190, Note_off_c, 13, 70, 64
14, 370321, Note_on_c, 13, 61, 83
14, 370541, Note_off_c, 13, 61, 64
14, 370559, Note_on_c, 13, 66, 76
14, 370669, Note_off_c, 13, 66, 64
14, 370797, Note_on_c, 13, 65, 66
14, 370897, Note_off_c, 13, 65, 64
14, 371043, Note_on_c, 13, 66, 77
14, 371223, Note_off_c, 13, 66, 64
14, 371279, Note_on_c, 13, 70, 76
14, 371380, Note_off_c, 13, 70, 64
14, 371514, Note_on_c, 13, 73, 79
14, 371613, Note_off_c, 13, 73, 64
14, 371758, Note_on_c, 13, 78, 71
14, 372376, Note_off_c, 13, 78, 64
14, 378240, End_track
15, 0, Start_track
15, 0, Instrument_name_t, "SC88-A"
15, 0, Title_t, "vl.uni"
15, 1440, Control_c, 14, 101, 0
15, 1450, Control_c, 14, 100, 0
15, 1450, Control_c, 14, 6, 0
15, 1470, Control_c, 14, 0, 0
15, 1480, Control_c, 14, 32, 1
15, 1490, Program_c, 14, 40
15, 1500, Control_c, 14, 10, 74
15, 1510, Control_c, 14, 11, 105
15, 1520, Control_c, 14, 7, 120
15, 1530, Control_c, 14, 93, 0
15, 1540, Control_c, 14, 91, 0
15, 1550, Pitch_bend_c, 14, 8192
15, 1560, Control_c, 14, 1, 0
15, 1570, Control_c, 14, 64, 0
15, 1580, Control_c, 14, 91, 64
15, 1590, Control_c, 14, 99, 1
15, 1600, Control_c, 14, 98, 32
15, 1610, Control_c, 14, 6, 52
15, 1620, Control_c, 14, 98, 33
15, 1630, Control_c, 14, 6, 64
15, 1640, Control_c, 14, 98, 99
15, 1650, Control_c, 14, 6, 64
15, 1660, Control_c, 14, 98, 100
15, 1670, Control_c, 14, 6, 64
15, 1680, Control_c, 14, 98, 102
15, 1690, Control_c, 14, 6, 64
15, 96000, Note_on_c, 14, 66, 77
15, 96168, Note_off_c, 14, 66, 64
15, 96240, Note_on_c, 14, 70, 81
15, 96341, Note_off_c, 14, 70, 64
15, 96469, Note_on_c, 14, 73, 81
15, 96568, Note_off_c, 14, 73, 64
15, 96711, Note_on_c, 14, 65, 62
15, 96845, Note_off_c, 14, 65, 64
15, 96954, Note_on_c, 14, 68, 81
15, 97050, Note_off_c, 14, 68, 64
15, 97187, Note_on_c, 14, 73, 81
15, 97311, Note_off_c, 14, 73, 64
15, 97434, Note_on_c, 14, 66, 81
15, 97597, Note_off_c, 14, 66, 64
15, 97673, Note_on_c, 14, 70, 81
15, 97774, Note_off_c, 14, 70, 64
15, 97913, Note_on_c, 14, 73, 81
15, 98023, Note_off_c, 14, 73, 64
15, 98157, Note_on_c, 14, 61, 81
15, 98318, Note_off_c, 14, 61, 64
15, 98403, Note_on_c, 14, 68, 81
15, 98495, Note_off_c, 14, 68, 64
15, 98633, Note_on_c, 14, 73, 81
15, 98730, Note_off_c, 14, 73, 64
15, 98880, Note_on_c, 14, 66, 45
15, 98994, Note_off_c, 14, 66, 64
15, 98994, Note_on_c, 14, 65, 38
15, 99096, Note_off_c, 14, 65, 64
15, 99115, Note_on_c, 14, 66, 38
15, 99200, Note_off_c, 14, 66, 64
15, 99233, Note_on_c, 14, 68, 38
15, 99304, Note_off_c, 14, 68, 64
15, 99351, Note_on_c, 14, 70, 38
15, 99434, Note_off_c, 14, 70, 64
15, 99468, Note_on_c, 14, 71, 38
15, 99544, Note_off_c, 14, 71, 64
15, 99593, Note_on_c, 14, 73, 38
15, 99677, Note_off_c, 14, 73, 64
15, 99711, Note_on_c, 14, 75, 38
15, 99794, Note_off_c, 14, 75, 64
15, 99833, Note_on_c, 14, 73, 42
15, 99897, Note_off_c, 14, 73, 64
15, 99952, Note_on_c, 14, 71, 39
15, 100017, Note_off_c, 14, 71, 64
15, 100067, Note_on_c, 14, 70, 38
15, 100131, Note_off_c, 14, 70, 64
15, 100185, Note_on_c, 14, 68, 38
15, 100246, Note_off_c, 14, 68, 64
15, 100316, Note_on_c, 14, 66, 39
15, 100471, Note_off_c, 14, 66, 64
15, 100558, Note_on_c, 14, 70, 81
15, 100652, Note_off_c, 14, 70, 64
15, 100791, Note_on_c, 14, 61, 81
15, 100887, Note_off_c, 14, 61, 64
15, 101028, Note_on_c, 14, 68, 81
15, 101193, Note_off_c, 14, 68, 64
15, 101272, Note_on_c, 14, 71, 81
15, 101356, Note_off_c, 14, 71, 64
15, 101509, Note_on_c, 14, 61, 81
15, 101581, Note_off_c, 14, 61, 64
15, 101760, Note_on_c, 14, 70, 61
15, 101917, Note_off_c, 14, 70, 64
15, 101993, Note_on_c, 14, 70, 57
15, 102150, Note_off_c, 14, 70, 64
15, 102229, Note_on_c, 14, 70, 53
15, 102389, Note_off_c, 14, 70, 64
15, 102468, Note_on_c, 14, 70, 71
15, 102616, Note_off_c, 14, 70, 64
15, 102707, Note_on_c, 14, 70, 61
15, 102861, Note_off_c, 14, 70, 64
15, 102950, Note_on_c, 14, 70, 62
15, 103095, Note_off_c, 14, 70, 64
15, 103192, Note_on_c, 14, 68, 72
15, 103339, Note_off_c, 14, 68, 64
15, 103432, Note_on_c, 14, 68, 73
15, 103574, Note_off_c, 14, 68, 64
15, 103674, Note_on_c, 14, 68, 71
15, 103802, Note_off_c, 14, 68, 64
15, 103910, Note_on_c, 14, 68, 63
15, 104039, Note_off_c, 14, 68, 64
15, 104149, Note_on_c, 14, 68, 69
15, 104257, Note_off_c, 14, 68, 64
15, 104394, Note_on_c, 14, 68, 74
15, 104513, Note_off_c, 14, 68, 64
15, 104632, Note_on_c, 14, 66, 71
15, 104770, Note_off_c, 14, 66, 64
15, 104871, Note_on_c, 14, 66, 71
15, 105000, Note_off_c, 14, 66, 64
15, 105109, Note_on_c, 14, 66, 67
15, 105236, Note_off_c, 14, 66, 64
15, 105352, Note_on_c, 14, 66, 67
15, 105479, Note_off_c, 14, 66, 64
15, 105594, Note_on_c, 14, 66, 75
15, 105706, Note_off_c, 14, 66, 64
15, 105836, Note_on_c, 14, 66, 81
15, 105931, Note_off_c, 14, 66, 64
15, 106080, Note_on_c, 14, 65, 66
15, 106244, Note_off_c, 14, 65, 64
15, 106319, Note_on_c, 14, 68, 81
15, 106423, Note_off_c, 14, 68, 64
15, 106554, Note_on_c, 14, 73, 81
15, 106665, Note_off_c, 14, 73, 64
15, 106798, Note_on_c, 14, 63, 81
15, 106978, Note_off_c, 14, 63, 64
15, 107045, Note_on_c, 14, 66, 81
15, 107137, Note_off_c, 14, 66, 64
15, 107275, Note_on_c, 14, 72, 72
15, 107375, Note_off_c, 14, 72, 64
15, 107520, Note_on_c, 14, 61, 81
15, 107633, Note_on_c, 14, 60, 59
15, 107634, Note_off_c, 14, 61, 64
15, 107744, Note_off_c, 14, 60, 64
15, 107753, Note_on_c, 14, 61, 81
15, 107857, Note_off_c, 14, 61, 64
15, 107872, Note_on_c, 14, 63, 81
15, 107959, Note_off_c, 14, 63, 64
15, 107991, Note_on_c, 14, 65, 74
15, 108090, Note_off_c, 14, 65, 64
15, 108112, Note_on_c, 14, 66, 82
15, 108189, Note_off_c, 14, 66, 64
15, 108243, Note_on_c, 14, 68, 87
15, 108349, Note_off_c, 14, 68, 64
15, 108356, Note_on_c, 14, 70, 81
15, 108443, Note_off_c, 14, 70, 64
15, 108474, Note_on_c, 14, 68, 81
15, 108557, Note_off_c, 14, 68, 64
15, 108590, Note_on_c, 14, 66, 81
15, 108664, Note_off_c, 14, 66, 64
15, 108710, Note_on_c, 14, 65, 75
15, 108791, Note_off_c, 14, 65, 64
15, 108829, Note_on_c, 14, 63, 81
15, 108913, Note_off_c, 14, 63, 64
15, 108957, Note_on_c, 14, 61, 81
15, 109102, Note_off_c, 14, 61, 64
15, 109200, Note_on_c, 14, 68, 88
15, 109313, Note_off_c, 14, 68, 64
15, 109438, Note_on_c, 14, 73, 94
15, 109535, Note_off_c, 14, 73, 64
15, 109679, Note_on_c, 14, 72, 107
15, 109779, Note_off_c, 14, 72, 64
15, 109795, Note_on_c, 14, 73, 82
15, 109890, Note_off_c, 14, 73, 64
15, 109913, Note_on_c, 14, 72, 93
15, 110018, Note_off_c, 14, 72, 64
15, 110031, Note_on_c, 14, 70, 84
15, 110121, Note_off_c, 14, 70, 64
15, 110153, Note_on_c, 14, 68, 84
15, 110235, Note_off_c, 14, 68, 64
15, 110269, Note_on_c, 14, 66, 87
15, 110346, Note_off_c, 14, 66, 64
15, 110395, Note_on_c, 14, 65, 91
15, 110461, Note_off_c, 14, 65, 64
15, 110880, Note_on_c, 14, 68, 75
15, 110996, Note_off_c, 14, 68, 64
15, 111115, Note_on_c, 14, 68, 81
15, 111268, Note_off_c, 14, 68, 64
15, 111352, Note_on_c, 14, 68, 81
15, 111469, Note_off_c, 14, 68, 64
15, 111593, Note_on_c, 14, 68, 81
15, 111708, Note_off_c, 14, 68, 64
15, 120480, Note_on_c, 14, 60, 95
15, 120586, Note_off_c, 14, 60, 64
15, 120597, Note_on_c, 14, 63, 85
15, 120686, Note_off_c, 14, 63, 64
15, 120714, Note_on_c, 14, 56, 85
15, 120796, Note_off_c, 14, 56, 64
15, 120833, Note_on_c, 14, 63, 91
15, 120911, Note_off_c, 14, 63, 64
15, 120953, Note_on_c, 14, 60, 93
15, 121031, Note_off_c, 14, 60, 64
15, 121070, Note_on_c, 14, 63, 85
15, 121144, Note_off_c, 14, 63, 64
15, 121194, Note_on_c, 14, 61, 84
15, 121303, Note_off_c, 14, 61, 64
15, 121311, Note_on_c, 14, 65, 74
15, 121387, Note_off_c, 14, 65, 64
15, 121434, Note_on_c, 14, 56, 93
15, 121521, Note_off_c, 14, 56, 64
15, 121550, Note_on_c, 14, 65, 77
15, 121633, Note_off_c, 14, 65, 64
15, 121672, Note_on_c, 14, 61, 102
15, 121745, Note_off_c, 14, 61, 64
15, 121786, Note_on_c, 14, 65, 93
15, 121857, Note_off_c, 14, 65, 64
15, 121917, Note_on_c, 14, 63, 118
15, 122022, Note_off_c, 14, 63, 64
15, 122033, Note_on_c, 14, 66, 82
15, 122122, Note_off_c, 14, 66, 64
15, 122149, Note_on_c, 14, 56, 81
15, 122225, Note_off_c, 14, 56, 64
15, 122265, Note_on_c, 14, 66, 87
15, 122341, Note_off_c, 14, 66, 64
15, 122389, Note_on_c, 14, 63, 102
15, 122480, Note_off_c, 14, 63, 64
15, 122507, Note_on_c, 14, 66, 85
15, 122579, Note_off_c, 14, 66, 64
15, 122635, Note_on_c, 14, 63, 109
15, 122744, Note_off_c, 14, 63, 64
15, 122749, Note_on_c, 14, 66, 81
15, 122835, Note_off_c, 14, 66, 64
15, 122875, Note_on_c, 14, 56, 82
15, 122958, Note_off_c, 14, 56, 64
15, 122991, Note_on_c, 14, 66, 82
15, 123068, Note_off_c, 14, 66, 64
15, 123113, Note_on_c, 14, 63, 87
15, 123181, Note_off_c, 14, 63, 64
15, 123230, Note_on_c, 14, 66, 93
15, 123322, Note_off_c, 14, 66, 64
15, 123352, Note_on_c, 14, 65, 71
15, 123518, Note_off_c, 14, 65, 64
15, 123599, Note_on_c, 14, 61, 81
15, 123684, Note_off_c, 14, 61, 64
15, 123831, Note_on_c, 14, 61, 81
15, 123933, Note_off_c, 14, 61, 64
15, 124073, Note_on_c, 14, 61, 81
15, 124181, Note_off_c, 14, 61, 64
15, 124317, Note_on_c, 14, 61, 81
15, 124408, Note_off_c, 14, 61, 64
15, 124555, Note_on_c, 14, 61, 81
15, 124650, Note_off_c, 14, 61, 64
15, 124795, Note_on_c, 14, 61, 81
15, 124940, Note_off_c, 14, 61, 64
15, 125035, Note_on_c, 14, 61, 81
15, 125149, Note_off_c, 14, 61, 64
15, 125271, Note_on_c, 14, 61, 81
15, 125378, Note_off_c, 14, 61, 64
15, 125513, Note_on_c, 14, 61, 81
15, 125618, Note_off_c, 14, 61, 64
15, 125751, Note_on_c, 14, 61, 81
15, 125860, Note_off_c, 14, 61, 64
15, 125994, Note_on_c, 14, 61, 81
15, 126098, Note_off_c, 14, 61, 64
15, 126235, Note_on_c, 14, 68, 81
15, 126379, Note_off_c, 14, 68, 64
15, 126479, Note_on_c, 14, 68, 81
15, 126594, Note_off_c, 14, 68, 64
15, 126715, Note_on_c, 14, 68, 81
15, 126811, Note_off_c, 14, 68, 64
15, 126955, Note_on_c, 14, 68, 81
15, 127046, Note_off_c, 14, 68, 64
15, 127193, Note_on_c, 14, 68, 81
15, 127287, Note_off_c, 14, 68, 64
15, 127436, Note_on_c, 14, 68, 81
15, 127515, Note_off_c, 14, 68, 64
15, 127679, Note_on_c, 14, 68, 81
15, 127823, Note_off_c, 14, 68, 64
15, 127923, Note_on_c, 14, 65, 112
15, 128016, Note_off_c, 14, 65, 64
15, 128033, Note_on_c, 14, 66, 81
15, 128124, Note_off_c, 14, 66, 64
15, 128151, Note_on_c, 14, 68, 81
15, 128279, Note_off_c, 14, 68, 64
15, 128404, Note_on_c, 14, 56, 65
15, 128582, Note_off_c, 14, 56, 64
15, 128645, Note_on_c, 14, 63, 81
15, 128706, Note_off_c, 14, 63, 64
15, 128881, Note_on_c, 14, 66, 81
15, 128953, Note_off_c, 14, 66, 64
15, 129117, Note_on_c, 14, 65, 87
15, 130317, Note_off_c, 14, 65, 64
15, 130560, Note_on_c, 14, 66, 77
15, 130728, Note_off_c, 14, 66, 64
15, 130800, Note_on_c, 14, 70, 81
15, 130901, Note_off_c, 14, 70, 64
15, 131029, Note_on_c, 14, 73, 81
15, 131128, Note_off_c, 14, 73, 64
15, 131271, Note_on_c, 14, 65, 62
15, 131405, Note_off_c, 14, 65, 64
15, 131514, Note_on_c, 14, 68, 81
15, 131610, Note_off_c, 14, 68, 64
15, 131747, Note_on_c, 14, 73, 81
15, 131871, Note_off_c, 14, 73, 64
15, 131994, Note_on_c, 14, 66, 81
15, 132157, Note_off_c, 14, 66, 64
15, 132233, Note_on_c, 14, 70, 81
15, 132334, Note_off_c, 14, 70, 64
15, 132473, Note_on_c, 14, 73, 81
15, 132583, Note_off_c, 14, 73, 64
15, 132717, Note_on_c, 14, 61, 81
15, 132878, Note_off_c, 14, 61, 64
15, 132963, Note_on_c, 14, 68, 81
15, 133055, Note_off_c, 14, 68, 64
15, 133193, Note_on_c, 14, 73, 81
15, 133290, Note_off_c, 14, 73, 64
15, 133440, Note_on_c, 14, 66, 56
15, 133554, Note_off_c, 14, 66, 64
15, 133554, Note_on_c, 14, 65, 48
15, 133656, Note_off_c, 14, 65, 64
15, 133675, Note_on_c, 14, 66, 48
15, 133760, Note_off_c, 14, 66, 64
15, 133793, Note_on_c, 14, 68, 48
15, 133864, Note_off_c, 14, 68, 64
15, 133911, Note_on_c, 14, 70, 48
15, 133994, Note_off_c, 14, 70, 64
15, 134028, Note_on_c, 14, 71, 48
15, 134104, Note_off_c, 14, 71, 64
15, 134153, Note_on_c, 14, 73, 48
15, 134237, Note_off_c, 14, 73, 64
15, 134271, Note_on_c, 14, 75, 48
15, 134354, Note_off_c, 14, 75, 64
15, 134393, Note_on_c, 14, 73, 52
15, 134457, Note_off_c, 14, 73, 64
15, 134512, Note_on_c, 14, 71, 49
15, 134577, Note_off_c, 14, 71, 64
15, 134627, Note_on_c, 14, 70, 48
15, 134691, Note_off_c, 14, 70, 64
15, 134745, Note_on_c, 14, 68, 48
15, 134806, Note_off_c, 14, 68, 64
15, 134876, Note_on_c, 14, 66, 49
15, 135031, Note_off_c, 14, 66, 64
15, 135118, Note_on_c, 14, 70, 81
15, 135212, Note_off_c, 14, 70, 64
15, 135351, Note_on_c, 14, 61, 81
15, 135447, Note_off_c, 14, 61, 64
15, 135588, Note_on_c, 14, 68, 81
15, 135753, Note_off_c, 14, 68, 64
15, 135832, Note_on_c, 14, 71, 81
15, 135916, Note_off_c, 14, 71, 64
15, 136069, Note_on_c, 14, 61, 81
15, 136141, Note_off_c, 14, 61, 64
15, 136320, Note_on_c, 14, 70, 61
15, 136477, Note_off_c, 14, 70, 64
15, 136553, Note_on_c, 14, 70, 57
15, 136710, Note_off_c, 14, 70, 64
15, 136789, Note_on_c, 14, 70, 53
15, 136949, Note_off_c, 14, 70, 64
15, 137028, Note_on_c, 14, 70, 71
15, 137176, Note_off_c, 14, 70, 64
15, 137267, Note_on_c, 14, 70, 61
15, 137421, Note_off_c, 14, 70, 64
15, 137510, Note_on_c, 14, 70, 62
15, 137655, Note_off_c, 14, 70, 64
15, 137752, Note_on_c, 14, 68, 72
15, 137899, Note_off_c, 14, 68, 64
15, 137992, Note_on_c, 14, 68, 73
15, 138134, Note_off_c, 14, 68, 64
15, 138234, Note_on_c, 14, 68, 71
15, 138362, Note_off_c, 14, 68, 64
15, 138470, Note_on_c, 14, 68, 63
15, 138599, Note_off_c, 14, 68, 64
15, 138709, Note_on_c, 14, 68, 69
15, 138817, Note_off_c, 14, 68, 64
15, 138954, Note_on_c, 14, 68, 74
15, 139073, Note_off_c, 14, 68, 64
15, 139192, Note_on_c, 14, 66, 71
15, 139330, Note_off_c, 14, 66, 64
15, 139431, Note_on_c, 14, 66, 71
15, 139560, Note_off_c, 14, 66, 64
15, 139669, Note_on_c, 14, 66, 67
15, 139796, Note_off_c, 14, 66, 64
15, 139912, Note_on_c, 14, 66, 67
15, 140039, Note_off_c, 14, 66, 64
15, 140154, Note_on_c, 14, 66, 75
15, 140266, Note_off_c, 14, 66, 64
15, 140396, Note_on_c, 14, 66, 81
15, 140491, Note_off_c, 14, 66, 64
15, 140640, Note_on_c, 14, 65, 66
15, 140804, Note_off_c, 14, 65, 64
15, 140879, Note_on_c, 14, 68, 81
15, 140983, Note_off_c, 14, 68, 64
15, 141114, Note_on_c, 14, 73, 81
15, 141225, Note_off_c, 14, 73, 64
15, 141358, Note_on_c, 14, 63, 81
15, 141538, Note_off_c, 14, 63, 64
15, 141605, Note_on_c, 14, 66, 81
15, 141697, Note_off_c, 14, 66, 64
15, 141835, Note_on_c, 14, 72, 72
15, 141935, Note_off_c, 14, 72, 64
15, 142080, Note_on_c, 14, 61, 81
15, 142193, Note_on_c, 14, 60, 59
15, 142194, Note_off_c, 14, 61, 64
15, 142304, Note_off_c, 14, 60, 64
15, 142313, Note_on_c, 14, 61, 81
15, 142417, Note_off_c, 14, 61, 64
15, 142432, Note_on_c, 14, 63, 81
15, 142519, Note_off_c, 14, 63, 64
15, 142551, Note_on_c, 14, 65, 74
15, 142650, Note_off_c, 14, 65, 64
15, 142672, Note_on_c, 14, 66, 82
15, 142749, Note_off_c, 14, 66, 64
15, 142803, Note_on_c, 14, 68, 87
15, 142909, Note_off_c, 14, 68, 64
15, 142916, Note_on_c, 14, 70, 81
15, 143003, Note_off_c, 14, 70, 64
15, 143034, Note_on_c, 14, 68, 81
15, 143117, Note_off_c, 14, 68, 64
15, 143150, Note_on_c, 14, 66, 81
15, 143224, Note_off_c, 14, 66, 64
15, 143270, Note_on_c, 14, 65, 75
15, 143351, Note_off_c, 14, 65, 64
15, 143389, Note_on_c, 14, 63, 81
15, 143473, Note_off_c, 14, 63, 64
15, 143517, Note_on_c, 14, 61, 81
15, 143662, Note_off_c, 14, 61, 64
15, 143760, Note_on_c, 14, 68, 88
15, 143873, Note_off_c, 14, 68, 64
15, 143998, Note_on_c, 14, 73, 94
15, 144095, Note_off_c, 14, 73, 64
15, 144239, Note_on_c, 14, 72, 107
15, 144339, Note_off_c, 14, 72, 64
15, 144355, Note_on_c, 14, 73, 82
15, 144450, Note_off_c, 14, 73, 64
15, 144473, Note_on_c, 14, 72, 93
15, 144578, Note_off_c, 14, 72, 64
15, 144591, Note_on_c, 14, 70, 84
15, 144681, Note_off_c, 14, 70, 64
15, 144713, Note_on_c, 14, 68, 84
15, 144795, Note_off_c, 14, 68, 64
15, 144829, Note_on_c, 14, 66, 87
15, 144906, Note_off_c, 14, 66, 64
15, 144955, Note_on_c, 14, 65, 91
15, 145021, Note_off_c, 14, 65, 64
15, 145440, Note_on_c, 14, 68, 75
15, 145556, Note_off_c, 14, 68, 64
15, 145675, Note_on_c, 14, 68, 81
15, 145828, Note_off_c, 14, 68, 64
15, 145912, Note_on_c, 14, 68, 81
15, 146029, Note_off_c, 14, 68, 64
15, 146153, Note_on_c, 14, 68, 81
15, 146268, Note_off_c, 14, 68, 64
15, 155040, Note_on_c, 14, 60, 95
15, 155146, Note_off_c, 14, 60, 64
15, 155157, Note_on_c, 14, 63, 85
15, 155246, Note_off_c, 14, 63, 64
15, 155274, Note_on_c, 14, 56, 85
15, 155356, Note_off_c, 14, 56, 64
15, 155393, Note_on_c, 14, 63, 91
15, 155471, Note_off_c, 14, 63, 64
15, 155513, Note_on_c, 14, 60, 93
15, 155591, Note_off_c, 14, 60, 64
15, 155630, Note_on_c, 14, 63, 85
15, 155704, Note_off_c, 14, 63, 64
15, 155754, Note_on_c, 14, 61, 84
15, 155863, Note_off_c, 14, 61, 64
15, 155871, Note_on_c, 14, 65, 74
15, 155947, Note_off_c, 14, 65, 64
15, 155994, Note_on_c, 14, 56, 93
15, 156081, Note_off_c, 14, 56, 64
15, 156110, Note_on_c, 14, 65, 77
15, 156193, Note_off_c, 14, 65, 64
15, 156232, Note_on_c, 14, 61, 102
15, 156305, Note_off_c, 14, 61, 64
15, 156346, Note_on_c, 14, 65, 93
15, 156417, Note_off_c, 14, 65, 64
15, 156477, Note_on_c, 14, 63, 118
15, 156582, Note_off_c, 14, 63, 64
15, 156593, Note_on_c, 14, 66, 82
15, 156682, Note_off_c, 14, 66, 64
15, 156709, Note_on_c, 14, 56, 81
15, 156785, Note_off_c, 14, 56, 64
15, 156825, Note_on_c, 14, 66, 87
15, 156901, Note_off_c, 14, 66, 64
15, 156949, Note_on_c, 14, 63, 102
15, 157040, Note_off_c, 14, 63, 64
15, 157067, Note_on_c, 14, 66, 85
15, 157139, Note_off_c, 14, 66, 64
15, 157195, Note_on_c, 14, 63, 109
15, 157304, Note_off_c, 14, 63, 64
15, 157309, Note_on_c, 14, 66, 81
15, 157395, Note_off_c, 14, 66, 64
15, 157435, Note_on_c, 14, 56, 82
15, 157518, Note_off_c, 14, 56, 64
15, 157551, Note_on_c, 14, 66, 82
15, 157628, Note_off_c, 14, 66, 64
15, 157673, Note_on_c, 14, 63, 87
15, 157741, Note_off_c, 14, 63, 64
15, 157790, Note_on_c, 14, 66, 93
15, 157882, Note_off_c, 14, 66, 64
15, 157912, Note_on_c, 14, 65, 71
15, 158078, Note_off_c, 14, 65, 64
15, 158159, Note_on_c, 14, 61, 81
15, 158244, Note_off_c, 14, 61, 64
15, 158391, Note_on_c, 14, 61, 81
15, 158493, Note_off_c, 14, 61, 64
15, 158633, Note_on_c, 14, 61, 81
15, 158741, Note_off_c, 14, 61, 64
15, 158877, Note_on_c, 14, 61, 81
15, 158968, Note_off_c, 14, 61, 64
15, 159115, Note_on_c, 14, 61, 81
15, 159210, Note_off_c, 14, 61, 64
15, 159355, Note_on_c, 14, 61, 81
15, 159500, Note_off_c, 14, 61, 64
15, 159595, Note_on_c, 14, 61, 81
15, 159709, Note_off_c, 14, 61, 64
15, 159831, Note_on_c, 14, 61, 81
15, 159938, Note_off_c, 14, 61, 64
15, 160073, Note_on_c, 14, 61, 81
15, 160178, Note_off_c, 14, 61, 64
15, 160311, Note_on_c, 14, 61, 81
15, 160420, Note_off_c, 14, 61, 64
15, 160554, Note_on_c, 14, 61, 81
15, 160658, Note_off_c, 14, 61, 64
15, 160795, Note_on_c, 14, 68, 81
15, 160939, Note_off_c, 14, 68, 64
15, 161039, Note_on_c, 14, 68, 81
15, 161154, Note_off_c, 14, 68, 64
15, 161275, Note_on_c, 14, 68, 81
15, 161371, Note_off_c, 14, 68, 64
15, 161515, Note_on_c, 14, 68, 81
15, 161606, Note_off_c, 14, 68, 64
15, 161753, Note_on_c, 14, 68, 81
15, 161847, Note_off_c, 14, 68, 64
15, 161996, Note_on_c, 14, 68, 81
15, 162075, Note_off_c, 14, 68, 64
15, 162239, Note_on_c, 14, 68, 81
15, 162383, Note_off_c, 14, 68, 64
15, 162483, Note_on_c, 14, 65, 112
15, 162576, Note_off_c, 14, 65, 64
15, 162593, Note_on_c, 14, 66, 81
15, 162684, Note_off_c, 14, 66, 64
15, 162711, Note_on_c, 14, 68, 81
15, 162839, Note_off_c, 14, 68, 64
15, 162964, Note_on_c, 14, 56, 65
15, 163142, Note_off_c, 14, 56, 64
15, 163205, Note_on_c, 14, 63, 81
15, 163266, Note_off_c, 14, 63, 64
15, 163441, Note_on_c, 14, 66, 81
15, 163513, Note_off_c, 14, 66, 64
15, 163677, Note_on_c, 14, 65, 87
15, 164877, Note_off_c, 14, 65, 64
15, 165120, Note_on_c, 14, 68, 56
15, 165230, Note_off_c, 14, 68, 64
15, 165351, Note_on_c, 14, 68, 69
15, 165461, Note_off_c, 14, 68, 64
15, 165587, Note_on_c, 14, 68, 71
15, 165693, Note_off_c, 14, 68, 64
15, 165833, Note_on_c, 14, 68, 81
15, 165957, Note_off_c, 14, 68, 64
15, 166073, Note_on_c, 14, 68, 81
15, 166171, Note_off_c, 14, 68, 64
15, 166313, Note_on_c, 14, 68, 81
15, 166419, Note_off_c, 14, 68, 64
15, 166557, Note_on_c, 14, 68, 81
15, 166675, Note_off_c, 14, 68, 64
15, 166799, Note_on_c, 14, 68, 81
15, 166896, Note_off_c, 14, 68, 64
15, 167037, Note_on_c, 14, 68, 81
15, 167143, Note_off_c, 14, 68, 64
15, 167279, Note_on_c, 14, 68, 81
15, 167386, Note_off_c, 14, 68, 64
15, 167515, Note_on_c, 14, 68, 81
15, 167606, Note_off_c, 14, 68, 64
15, 167754, Note_on_c, 14, 68, 81
15, 167845, Note_off_c, 14, 68, 64
15, 167995, Note_on_c, 14, 66, 109
15, 168075, Note_off_c, 14, 66, 64
15, 168109, Note_on_c, 14, 65, 102
15, 168174, Note_off_c, 14, 65, 64
15, 168231, Note_on_c, 14, 63, 94
15, 168303, Note_off_c, 14, 63, 64
15, 168348, Note_on_c, 14, 65, 89
15, 168423, Note_off_c, 14, 65, 64
15, 168469, Note_on_c, 14, 66, 89
15, 168552, Note_off_c, 14, 66, 64
15, 168587, Note_on_c, 14, 68, 109
15, 168663, Note_off_c, 14, 68, 64
15, 168715, Note_on_c, 14, 70, 109
15, 168816, Note_off_c, 14, 70, 64
15, 168833, Note_on_c, 14, 71, 81
15, 168914, Note_off_c, 14, 71, 64
15, 168952, Note_on_c, 14, 70, 87
15, 169024, Note_off_c, 14, 70, 64
15, 169071, Note_on_c, 14, 68, 93
15, 169147, Note_off_c, 14, 68, 64
15, 169190, Note_on_c, 14, 66, 88
15, 169288, Note_off_c, 14, 66, 64
15, 169313, Note_on_c, 14, 65, 95
15, 169390, Note_off_c, 14, 65, 64
15, 169437, Note_on_c, 14, 66, 92
15, 169531, Note_off_c, 14, 66, 64
15, 169558, Note_on_c, 14, 70, 96
15, 169634, Note_off_c, 14, 70, 64
15, 169678, Note_on_c, 14, 68, 87
15, 169762, Note_off_c, 14, 68, 64
15, 169794, Note_on_c, 14, 66, 93
15, 169880, Note_off_c, 14, 66, 64
15, 169915, Note_on_c, 14, 65, 93
15, 169983, Note_off_c, 14, 65, 64
15, 170031, Note_on_c, 14, 63, 94
15, 170105, Note_off_c, 14, 63, 64
15, 170158, Note_on_c, 14, 62, 107
15, 170244, Note_off_c, 14, 62, 64
15, 170274, Note_on_c, 14, 63, 92
15, 170349, Note_off_c, 14, 63, 64
15, 170393, Note_on_c, 14, 62, 102
15, 170465, Note_off_c, 14, 62, 64
15, 170511, Note_on_c, 14, 60, 95
15, 170572, Note_off_c, 14, 60, 64
15, 170633, Note_on_c, 14, 58, 89
15, 170701, Note_off_c, 14, 58, 64
15, 170753, Note_on_c, 14, 56, 81
15, 170825, Note_off_c, 14, 56, 64
15, 170880, Note_on_c, 14, 54, 81
15, 171005, Note_off_c, 14, 54, 64
15, 171113, Note_on_c, 14, 63, 73
15, 171222, Note_off_c, 14, 63, 64
15, 171355, Note_on_c, 14, 63, 69
15, 171467, Note_off_c, 14, 63, 64
15, 171593, Note_on_c, 14, 63, 47
15, 171697, Note_off_c, 14, 63, 64
15, 171839, Note_on_c, 14, 63, 68
15, 171947, Note_off_c, 14, 63, 64
15, 172075, Note_on_c, 14, 63, 69
15, 172188, Note_off_c, 14, 63, 64
15, 172313, Note_on_c, 14, 63, 80
15, 172416, Note_off_c, 14, 63, 64
15, 172555, Note_on_c, 14, 63, 62
15, 172655, Note_off_c, 14, 63, 64
15, 172791, Note_on_c, 14, 63, 52
15, 172903, Note_off_c, 14, 63, 64
15, 173043, Note_on_c, 14, 63, 74
15, 173152, Note_off_c, 14, 63, 64
15, 173281, Note_on_c, 14, 63, 71
15, 173393, Note_off_c, 14, 63, 64
15, 173517, Note_on_c, 14, 63, 69
15, 173620, Note_off_c, 14, 63, 64
15, 173754, Note_on_c, 14, 63, 75
15, 173875, Note_off_c, 14, 63, 64
15, 173995, Note_on_c, 14, 63, 81
15, 174101, Note_off_c, 14, 63, 64
15, 174233, Note_on_c, 14, 63, 81
15, 174341, Note_off_c, 14, 63, 64
15, 174482, Note_on_c, 14, 63, 81
15, 174597, Note_off_c, 14, 63, 64
15, 174723, Note_on_c, 14, 63, 81
15, 174831, Note_off_c, 14, 63, 64
15, 174958, Note_on_c, 14, 63, 81
15, 175067, Note_off_c, 14, 63, 64
15, 175197, Note_on_c, 14, 66, 94
15, 175314, Note_off_c, 14, 66, 64
15, 175434, Note_on_c, 14, 70, 92
15, 175537, Note_off_c, 14, 70, 64
15, 175674, Note_on_c, 14, 65, 95
15, 175768, Note_off_c, 14, 65, 64
15, 175915, Note_on_c, 14, 66, 81
15, 176183, Note_off_c, 14, 66, 64
15, 176638, Note_on_c, 14, 63, 84
15, 176780, Note_off_c, 14, 63, 64
15, 176883, Note_on_c, 14, 66, 81
15, 176975, Note_off_c, 14, 66, 64
15, 177116, Note_on_c, 14, 70, 81
15, 177215, Note_off_c, 14, 70, 64
15, 177359, Note_on_c, 14, 62, 75
15, 177506, Note_off_c, 14, 62, 64
15, 177602, Note_on_c, 14, 65, 74
15, 177682, Note_off_c, 14, 65, 64
15, 177837, Note_on_c, 14, 70, 81
15, 177919, Note_off_c, 14, 70, 64
15, 178075, Note_on_c, 14, 63, 81
15, 178212, Note_off_c, 14, 63, 64
15, 178312, Note_on_c, 14, 66, 81
15, 178413, Note_off_c, 14, 66, 64
15, 178556, Note_on_c, 14, 70, 81
15, 178644, Note_off_c, 14, 70, 64
15, 178796, Note_on_c, 14, 58, 87
15, 178949, Note_off_c, 14, 58, 64
15, 179036, Note_on_c, 14, 65, 72
15, 179128, Note_off_c, 14, 65, 64
15, 179277, Note_on_c, 14, 70, 81
15, 179365, Note_off_c, 14, 70, 64
15, 179525, Note_on_c, 14, 63, 54
15, 179611, Note_off_c, 14, 63, 64
15, 179640, Note_on_c, 14, 62, 60
15, 179705, Note_off_c, 14, 62, 64
15, 179755, Note_on_c, 14, 63, 49
15, 179829, Note_off_c, 14, 63, 64
15, 179871, Note_on_c, 14, 65, 60
15, 179933, Note_off_c, 14, 65, 64
15, 179988, Note_on_c, 14, 66, 47
15, 180065, Note_off_c, 14, 66, 64
15, 180104, Note_on_c, 14, 68, 51
15, 180173, Note_off_c, 14, 68, 64
15, 180231, Note_on_c, 14, 70, 60
15, 180325, Note_off_c, 14, 70, 64
15, 180342, Note_on_c, 14, 71, 44
15, 180435, Note_off_c, 14, 71, 64
15, 180462, Note_on_c, 14, 70, 45
15, 180530, Note_off_c, 14, 70, 64
15, 180581, Note_on_c, 14, 68, 48
15, 180655, Note_off_c, 14, 68, 64
15, 180702, Note_on_c, 14, 66, 44
15, 180794, Note_off_c, 14, 66, 64
15, 180824, Note_on_c, 14, 65, 42
15, 180899, Note_off_c, 14, 65, 64
15, 180955, Note_on_c, 14, 63, 47
15, 181098, Note_off_c, 14, 63, 64
15, 181197, Note_on_c, 14, 66, 81
15, 181290, Note_off_c, 14, 66, 64
15, 181435, Note_on_c, 14, 58, 81
15, 181536, Note_off_c, 14, 58, 64
15, 181680, Note_on_c, 14, 65, 91
15, 181821, Note_off_c, 14, 65, 64
15, 181923, Note_on_c, 14, 68, 81
15, 182013, Note_off_c, 14, 68, 64
15, 182157, Note_on_c, 14, 58, 81
15, 182241, Note_off_c, 14, 58, 64
15, 182392, Note_on_c, 14, 66, 81
15, 182533, Note_off_c, 14, 66, 64
15, 182637, Note_on_c, 14, 66, 82
15, 182761, Note_off_c, 14, 66, 64
15, 182879, Note_on_c, 14, 66, 81
15, 182998, Note_off_c, 14, 66, 64
15, 183119, Note_on_c, 14, 66, 81
15, 183245, Note_off_c, 14, 66, 64
15, 183361, Note_on_c, 14, 66, 81
15, 183481, Note_off_c, 14, 66, 64
15, 183599, Note_on_c, 14, 66, 81
15, 183704, Note_off_c, 14, 66, 64
15, 183834, Note_on_c, 14, 65, 91
15, 183970, Note_off_c, 14, 65, 64
15, 184078, Note_on_c, 14, 65, 72
15, 184187, Note_off_c, 14, 65, 64
15, 184314, Note_on_c, 14, 65, 73
15, 184435, Note_off_c, 14, 65, 64
15, 184556, Note_on_c, 14, 65, 85
15, 184685, Note_off_c, 14, 65, 64
15, 184798, Note_on_c, 14, 65, 93
15, 184917, Note_off_c, 14, 65, 64
15, 185037, Note_on_c, 14, 65, 87
15, 185152, Note_off_c, 14, 65, 64
15, 185279, Note_on_c, 14, 63, 98
15, 185406, Note_off_c, 14, 63, 64
15, 185520, Note_on_c, 14, 63, 82
15, 185642, Note_off_c, 14, 63, 64
15, 185763, Note_on_c, 14, 63, 87
15, 185868, Note_off_c, 14, 63, 64
15, 186004, Note_on_c, 14, 63, 87
15, 186123, Note_off_c, 14, 63, 64
15, 186241, Note_on_c, 14, 63, 84
15, 186345, Note_off_c, 14, 63, 64
15, 186478, Note_on_c, 14, 63, 82
15, 186572, Note_off_c, 14, 63, 64
15, 186715, Note_on_c, 14, 61, 98
15, 186865, Note_off_c, 14, 61, 64
15, 186959, Note_on_c, 14, 65, 102
15, 187054, Note_off_c, 14, 65, 64
15, 187197, Note_on_c, 14, 70, 91
15, 187304, Note_off_c, 14, 70, 64
15, 187438, Note_on_c, 14, 60, 102
15, 187603, Note_off_c, 14, 60, 64
15, 187681, Note_on_c, 14, 63, 77
15, 187776, Note_off_c, 14, 63, 64
15, 187915, Note_on_c, 14, 69, 102
15, 187999, Note_off_c, 14, 69, 64
15, 188160, Note_on_c, 14, 58, 102
15, 188262, Note_off_c, 14, 58, 64
15, 188278, Note_on_c, 14, 57, 102
15, 188360, Note_off_c, 14, 57, 64
15, 188395, Note_on_c, 14, 58, 91
15, 188479, Note_off_c, 14, 58, 64
15, 188515, Note_on_c, 14, 60, 112
15, 188590, Note_off_c, 14, 60, 64
15, 188635, Note_on_c, 14, 61, 87
15, 188717, Note_off_c, 14, 61, 64
15, 188753, Note_on_c, 14, 63, 102
15, 188832, Note_off_c, 14, 63, 64
15, 188877, Note_on_c, 14, 65, 117
15, 188962, Note_off_c, 14, 65, 64
15, 188996, Note_on_c, 14, 66, 98
15, 189086, Note_off_c, 14, 66, 64
15, 189113, Note_on_c, 14, 65, 91
15, 189188, Note_off_c, 14, 65, 64
15, 189233, Note_on_c, 14, 63, 81
15, 189316, Note_off_c, 14, 63, 64
15, 189352, Note_on_c, 14, 61, 85
15, 189443, Note_off_c, 14, 61, 64
15, 189471, Note_on_c, 14, 60, 107
15, 189549, Note_off_c, 14, 60, 64
15, 189593, Note_on_c, 14, 61, 93
15, 189757, Note_off_c, 14, 61, 64
15, 189835, Note_on_c, 14, 65, 107
15, 189953, Note_off_c, 14, 65, 64
15, 190071, Note_on_c, 14, 70, 106
15, 190219, Note_off_c, 14, 70, 64
15, 190317, Note_on_c, 14, 69, 121
15, 190415, Note_off_c, 14, 69, 64
15, 190433, Note_on_c, 14, 70, 84
15, 190535, Note_off_c, 14, 70, 64
15, 190555, Note_on_c, 14, 69, 102
15, 190635, Note_off_c, 14, 69, 64
15, 190674, Note_on_c, 14, 67, 91
15, 190765, Note_off_c, 14, 67, 64
15, 190794, Note_on_c, 14, 65, 99
15, 190877, Note_off_c, 14, 65, 64
15, 190915, Note_on_c, 14, 63, 93
15, 190983, Note_off_c, 14, 63, 64
15, 191031, Note_on_c, 14, 61, 81
15, 191172, Note_off_c, 14, 61, 64
15, 191520, Note_on_c, 14, 65, 87
15, 191631, Note_off_c, 14, 65, 64
15, 191758, Note_on_c, 14, 65, 85
15, 191867, Note_off_c, 14, 65, 64
15, 191994, Note_on_c, 14, 65, 81
15, 192103, Note_off_c, 14, 65, 64
15, 192233, Note_on_c, 14, 65, 91
15, 192328, Note_off_c, 14, 65, 64
15, 201120, Note_on_c, 14, 69, 102
15, 201207, Note_off_c, 14, 69, 64
15, 201236, Note_on_c, 14, 72, 82
15, 201323, Note_off_c, 14, 72, 64
15, 201351, Note_on_c, 14, 65, 82
15, 201431, Note_off_c, 14, 65, 64
15, 201467, Note_on_c, 14, 72, 80
15, 201543, Note_off_c, 14, 72, 64
15, 201589, Note_on_c, 14, 69, 99
15, 201668, Note_off_c, 14, 69, 64
15, 201704, Note_on_c, 14, 72, 95
15, 201787, Note_off_c, 14, 72, 64
15, 201831, Note_on_c, 14, 70, 93
15, 201940, Note_off_c, 14, 70, 64
15, 201951, Note_on_c, 14, 73, 81
15, 202032, Note_off_c, 14, 73, 64
15, 202070, Note_on_c, 14, 65, 82
15, 202151, Note_off_c, 14, 65, 64
15, 202188, Note_on_c, 14, 73, 81
15, 202264, Note_off_c, 14, 73, 64
15, 202309, Note_on_c, 14, 70, 94
15, 202379, Note_off_c, 14, 70, 64
15, 202426, Note_on_c, 14, 73, 89
15, 202496, Note_off_c, 14, 73, 64
15, 202552, Note_on_c, 14, 72, 121
15, 202646, Note_off_c, 14, 72, 64
15, 202667, Note_on_c, 14, 75, 99
15, 202749, Note_off_c, 14, 75, 64
15, 202785, Note_on_c, 14, 65, 54
15, 202855, Note_off_c, 14, 65, 64
15, 202904, Note_on_c, 14, 75, 93
15, 202971, Note_off_c, 14, 75, 64
15, 203027, Note_on_c, 14, 72, 112
15, 203104, Note_off_c, 14, 72, 64
15, 203146, Note_on_c, 14, 75, 96
15, 203216, Note_off_c, 14, 75, 64
15, 203272, Note_on_c, 14, 72, 127
15, 203373, Note_off_c, 14, 72, 64
15, 203391, Note_on_c, 14, 75, 99
15, 203470, Note_off_c, 14, 75, 64
15, 203510, Note_on_c, 14, 65, 54
15, 203582, Note_off_c, 14, 65, 64
15, 203627, Note_on_c, 14, 75, 96
15, 203694, Note_off_c, 14, 75, 64
15, 203749, Note_on_c, 14, 72, 103
15, 203813, Note_off_c, 14, 72, 64
15, 203867, Note_on_c, 14, 75, 103
15, 203945, Note_off_c, 14, 75, 64
15, 203994, Note_on_c, 14, 74, 61
15, 204081, Note_off_c, 14, 74, 64
15, 204240, Note_on_c, 14, 58, 55
15, 204345, Note_off_c, 14, 58, 64
15, 204475, Note_on_c, 14, 58, 55
15, 204571, Note_off_c, 14, 58, 64
15, 204715, Note_on_c, 14, 58, 65
15, 204835, Note_off_c, 14, 58, 64
15, 204954, Note_on_c, 14, 58, 55
15, 205048, Note_off_c, 14, 58, 64
15, 205190, Note_on_c, 14, 58, 55
15, 205284, Note_off_c, 14, 58, 64
15, 205440, Note_on_c, 14, 58, 46
15, 205531, Note_off_c, 14, 58, 64
15, 205674, Note_on_c, 14, 58, 55
15, 205760, Note_off_c, 14, 58, 64
15, 205909, Note_on_c, 14, 58, 55
15, 205991, Note_off_c, 14, 58, 64
15, 206152, Note_on_c, 14, 58, 65
15, 206225, Note_off_c, 14, 58, 64
15, 206393, Note_on_c, 14, 58, 55
15, 206469, Note_off_c, 14, 58, 64
15, 206631, Note_on_c, 14, 58, 55
15, 206701, Note_off_c, 14, 58, 64
15, 206879, Note_on_c, 14, 65, 56
15, 206973, Note_off_c, 14, 65, 64
15, 207117, Note_on_c, 14, 65, 50
15, 207195, Note_off_c, 14, 65, 64
15, 207353, Note_on_c, 14, 65, 54
15, 207425, Note_off_c, 14, 65, 64
15, 207596, Note_on_c, 14, 65, 57
15, 207684, Note_off_c, 14, 65, 64
15, 207837, Note_on_c, 14, 65, 62
15, 207925, Note_off_c, 14, 65, 64
15, 208075, Note_on_c, 14, 65, 70
15, 208170, Note_off_c, 14, 65, 64
15, 208319, Note_on_c, 14, 65, 102
15, 208412, Note_off_c, 14, 65, 64
15, 208435, Note_on_c, 14, 63, 81
15, 208523, Note_off_c, 14, 63, 64
15, 208555, Note_on_c, 14, 61, 87
15, 208660, Note_off_c, 14, 61, 64
15, 208671, Note_on_c, 14, 63, 84
15, 208751, Note_off_c, 14, 63, 64
15, 208793, Note_on_c, 14, 65, 78
15, 208907, Note_off_c, 14, 65, 64
15, 209044, Note_on_c, 14, 53, 93
15, 209216, Note_off_c, 14, 53, 64
15, 209281, Note_on_c, 14, 60, 93
15, 209375, Note_off_c, 14, 60, 64
15, 209399, Note_on_c, 14, 61, 85
15, 209502, Note_off_c, 14, 61, 64
15, 209519, Note_on_c, 14, 63, 78
15, 209613, Note_off_c, 14, 63, 64
15, 209760, Note_on_c, 14, 61, 69
15, 210690, Note_off_c, 14, 61, 64
15, 214073, Note_on_c, 14, 73, 96
15, 214173, Note_off_c, 14, 73, 64
15, 214310, Note_on_c, 14, 73, 81
15, 214411, Note_off_c, 14, 73, 64
15, 214550, Note_on_c, 14, 73, 81
15, 214657, Note_off_c, 14, 73, 64
15, 214795, Note_on_c, 14, 73, 81
15, 214937, Note_off_c, 14, 73, 64
15, 215036, Note_on_c, 14, 73, 81
15, 215132, Note_off_c, 14, 73, 64
15, 215277, Note_on_c, 14, 73, 81
15, 215373, Note_off_c, 14, 73, 64
15, 215514, Note_on_c, 14, 73, 81
15, 215716, Note_off_c, 14, 73, 64
15, 215761, Note_on_c, 14, 75, 87
15, 215844, Note_off_c, 14, 75, 64
15, 215873, Note_on_c, 14, 73, 85
15, 215966, Note_off_c, 14, 73, 64
15, 215987, Note_on_c, 14, 71, 81
15, 216106, Note_off_c, 14, 71, 64
15, 216107, Note_on_c, 14, 70, 81
15, 216188, Note_off_c, 14, 70, 64
15, 216230, Note_on_c, 14, 71, 81
15, 216346, Note_off_c, 14, 71, 64
15, 216477, Note_on_c, 14, 68, 81
15, 216572, Note_off_c, 14, 68, 64
15, 217080, Note_on_c, 14, 61, 106
15, 217172, Note_off_c, 14, 61, 64
15, 217197, Note_on_c, 14, 64, 115
15, 217294, Note_off_c, 14, 64, 64
15, 217313, Note_on_c, 14, 68, 92
15, 217400, Note_off_c, 14, 68, 64
15, 217427, Note_on_c, 14, 64, 85
15, 217527, Note_off_c, 14, 64, 64
15, 217545, Note_on_c, 14, 61, 93
15, 217646, Note_off_c, 14, 61, 64
15, 217673, Note_on_c, 14, 70, 93
15, 217829, Note_off_c, 14, 70, 64
15, 217914, Note_on_c, 14, 70, 93
15, 218042, Note_off_c, 14, 70, 64
15, 218155, Note_on_c, 14, 70, 89
15, 218278, Note_off_c, 14, 70, 64
15, 218399, Note_on_c, 14, 70, 85
15, 218494, Note_off_c, 14, 70, 64
15, 218515, Note_on_c, 14, 59, 93
15, 218602, Note_off_c, 14, 59, 64
15, 218632, Note_on_c, 14, 63, 101
15, 218723, Note_off_c, 14, 63, 64
15, 218748, Note_on_c, 14, 66, 96
15, 218830, Note_off_c, 14, 66, 64
15, 218866, Note_on_c, 14, 63, 89
15, 218953, Note_off_c, 14, 63, 64
15, 218982, Note_on_c, 14, 59, 93
15, 219071, Note_off_c, 14, 59, 64
15, 219107, Note_on_c, 14, 68, 92
15, 219270, Note_off_c, 14, 68, 64
15, 219353, Note_on_c, 14, 68, 87
15, 219463, Note_off_c, 14, 68, 64
15, 219591, Note_on_c, 14, 68, 82
15, 219693, Note_off_c, 14, 68, 64
15, 228480, Note_on_c, 14, 66, 81
15, 228587, Note_off_c, 14, 66, 64
15, 228712, Note_on_c, 14, 71, 81
15, 228783, Note_off_c, 14, 71, 64
15, 228955, Note_on_c, 14, 75, 81
15, 229018, Note_off_c, 14, 75, 64
15, 229195, Note_on_c, 14, 68, 81
15, 229303, Note_off_c, 14, 68, 64
15, 229434, Note_on_c, 14, 71, 81
15, 229503, Note_off_c, 14, 71, 64
15, 229681, Note_on_c, 14, 75, 81
15, 229748, Note_off_c, 14, 75, 64
15, 229919, Note_on_c, 14, 66, 81
15, 230038, Note_off_c, 14, 66, 64
15, 230154, Note_on_c, 14, 71, 81
15, 230221, Note_off_c, 14, 71, 64
15, 230398, Note_on_c, 14, 75, 81
15, 230475, Note_off_c, 14, 75, 64
15, 230639, Note_on_c, 14, 64, 81
15, 230757, Note_off_c, 14, 64, 64
15, 230875, Note_on_c, 14, 71, 81
15, 230940, Note_off_c, 14, 71, 64
15, 231116, Note_on_c, 14, 75, 81
15, 231185, Note_off_c, 14, 75, 64
15, 231351, Note_on_c, 14, 66, 81
15, 231489, Note_off_c, 14, 66, 64
15, 231594, Note_on_c, 14, 71, 81
15, 231662, Note_off_c, 14, 71, 64
15, 231837, Note_on_c, 14, 75, 81
15, 231922, Note_off_c, 14, 75, 64
15, 232075, Note_on_c, 14, 68, 81
15, 232225, Note_off_c, 14, 68, 64
15, 232311, Note_on_c, 14, 71, 81
15, 232370, Note_off_c, 14, 71, 64
15, 232552, Note_on_c, 14, 75, 81
15, 232628, Note_off_c, 14, 75, 64
15, 232801, Note_on_c, 14, 66, 81
15, 232954, Note_off_c, 14, 66, 64
15, 233034, Note_on_c, 14, 71, 81
15, 233099, Note_off_c, 14, 71, 64
15, 233277, Note_on_c, 14, 70, 81
15, 233352, Note_off_c, 14, 70, 64
15, 233519, Note_on_c, 14, 71, 81
15, 233608, Note_off_c, 14, 71, 64
15, 239040, Note_on_c, 14, 66, 96
15, 239133, Note_off_c, 14, 66, 64
15, 239276, Note_on_c, 14, 66, 88
15, 239401, Note_off_c, 14, 66, 64
15, 239511, Note_on_c, 14, 66, 87
15, 239611, Note_off_c, 14, 66, 64
15, 239753, Note_on_c, 14, 66, 98
15, 239816, Note_off_c, 14, 66, 64
15, 244320, Note_on_c, 14, 66, 75
15, 244491, Note_off_c, 14, 66, 64
15, 244557, Note_on_c, 14, 70, 81
15, 244654, Note_off_c, 14, 70, 64
15, 244791, Note_on_c, 14, 73, 81
15, 244874, Note_off_c, 14, 73, 64
15, 245033, Note_on_c, 14, 65, 64
15, 245165, Note_off_c, 14, 65, 64
15, 245272, Note_on_c, 14, 68, 81
15, 245349, Note_off_c, 14, 68, 64
15, 245517, Note_on_c, 14, 73, 81
15, 245594, Note_off_c, 14, 73, 64
15, 245755, Note_on_c, 14, 66, 81
15, 245898, Note_off_c, 14, 66, 64
15, 245996, Note_on_c, 14, 70, 81
15, 246080, Note_off_c, 14, 70, 64
15, 246239, Note_on_c, 14, 73, 81
15, 246343, Note_off_c, 14, 73, 64
15, 246482, Note_on_c, 14, 61, 81
15, 246602, Note_off_c, 14, 61, 64
15, 246715, Note_on_c, 14, 68, 81
15, 246785, Note_off_c, 14, 68, 64
15, 246959, Note_on_c, 14, 73, 81
15, 247020, Note_off_c, 14, 73, 64
15, 247204, Note_on_c, 14, 54, 96
15, 247310, Note_off_c, 14, 54, 64
15, 247320, Note_on_c, 14, 53, 80
15, 247380, Note_off_c, 14, 53, 64
15, 247433, Note_on_c, 14, 54, 81
15, 247503, Note_off_c, 14, 54, 64
15, 247553, Note_on_c, 14, 56, 89
15, 247618, Note_off_c, 14, 56, 64
15, 247670, Note_on_c, 14, 58, 94
15, 247736, Note_off_c, 14, 58, 64
15, 247786, Note_on_c, 14, 59, 81
15, 247855, Note_off_c, 14, 59, 64
15, 247914, Note_on_c, 14, 61, 92
15, 247991, Note_off_c, 14, 61, 64
15, 248030, Note_on_c, 14, 63, 81
15, 248103, Note_off_c, 14, 63, 64
15, 248151, Note_on_c, 14, 61, 84
15, 248218, Note_off_c, 14, 61, 64
15, 248270, Note_on_c, 14, 59, 85
15, 248345, Note_off_c, 14, 59, 64
15, 248388, Note_on_c, 14, 58, 85
15, 248460, Note_off_c, 14, 58, 64
15, 248505, Note_on_c, 14, 56, 85
15, 248573, Note_off_c, 14, 56, 64
15, 248631, Note_on_c, 14, 54, 89
15, 248760, Note_off_c, 14, 54, 64
15, 248873, Note_on_c, 14, 58, 87
15, 248961, Note_off_c, 14, 58, 64
15, 249112, Note_on_c, 14, 61, 92
15, 249205, Note_off_c, 14, 61, 64
15, 249353, Note_on_c, 14, 65, 95
15, 249471, Note_off_c, 14, 65, 64
15, 249596, Note_on_c, 14, 68, 88
15, 249688, Note_off_c, 14, 68, 64
15, 249834, Note_on_c, 14, 61, 85
15, 249936, Note_off_c, 14, 61, 64
15, 250080, Note_on_c, 14, 70, 82
15, 250182, Note_off_c, 14, 70, 64
15, 250319, Note_on_c, 14, 70, 87
15, 250427, Note_off_c, 14, 70, 64
15, 250555, Note_on_c, 14, 70, 85
15, 250672, Note_off_c, 14, 70, 64
15, 250799, Note_on_c, 14, 70, 82
15, 250912, Note_off_c, 14, 70, 64
15, 251038, Note_on_c, 14, 70, 87
15, 251151, Note_off_c, 14, 70, 64
15, 251276, Note_on_c, 14, 70, 87
15, 251380, Note_off_c, 14, 70, 64
15, 251515, Note_on_c, 14, 68, 96
15, 251641, Note_off_c, 14, 68, 64
15, 251755, Note_on_c, 14, 68, 91
15, 251873, Note_off_c, 14, 68, 64
15, 252002, Note_on_c, 14, 68, 89
15, 252100, Note_off_c, 14, 68, 64
15, 252239, Note_on_c, 14, 68, 89
15, 252368, Note_off_c, 14, 68, 64
15, 252483, Note_on_c, 14, 68, 98
15, 252556, Note_off_c, 14, 68, 64
15, 252718, Note_on_c, 14, 68, 96
15, 252812, Note_off_c, 14, 68, 64
15, 252958, Note_on_c, 14, 66, 101
15, 253088, Note_off_c, 14, 66, 64
15, 253199, Note_on_c, 14, 66, 93
15, 253300, Note_off_c, 14, 66, 64
15, 253439, Note_on_c, 14, 66, 94
15, 253534, Note_off_c, 14, 66, 64
15, 253676, Note_on_c, 14, 66, 93
15, 253805, Note_off_c, 14, 66, 64
15, 253916, Note_on_c, 14, 66, 91
15, 254005, Note_off_c, 14, 66, 64
15, 254157, Note_on_c, 14, 66, 101
15, 254233, Note_off_c, 14, 66, 64
15, 261840, Note_on_c, 14, 54, 67
15, 261914, Note_off_c, 14, 54, 64
15, 262077, Note_on_c, 14, 54, 70
15, 262154, Note_off_c, 14, 54, 64
15, 262316, Note_on_c, 14, 54, 70
15, 262396, Note_off_c, 14, 54, 64
15, 262556, Note_on_c, 14, 54, 73
15, 262630, Note_off_c, 14, 54, 64
15, 262793, Note_on_c, 14, 54, 73
15, 262873, Note_off_c, 14, 54, 64
15, 263035, Note_on_c, 14, 54, 80
15, 263170, Note_off_c, 14, 54, 64
15, 263271, Note_on_c, 14, 54, 67
15, 263360, Note_off_c, 14, 54, 64
15, 263509, Note_on_c, 14, 54, 72
15, 263589, Note_off_c, 14, 54, 64
15, 263752, Note_on_c, 14, 54, 70
15, 263837, Note_off_c, 14, 54, 64
15, 263993, Note_on_c, 14, 54, 72
15, 264076, Note_off_c, 14, 54, 64
15, 264233, Note_on_c, 14, 54, 70
15, 264324, Note_off_c, 14, 54, 64
15, 264476, Note_on_c, 14, 61, 77
15, 264599, Note_off_c, 14, 61, 64
15, 264715, Note_on_c, 14, 61, 65
15, 264798, Note_off_c, 14, 61, 64
15, 264957, Note_on_c, 14, 61, 64
15, 265035, Note_off_c, 14, 61, 64
15, 265197, Note_on_c, 14, 61, 61
15, 265266, Note_off_c, 14, 61, 64
15, 265440, Note_on_c, 14, 61, 64
15, 265502, Note_off_c, 14, 61, 64
15, 265679, Note_on_c, 14, 61, 64
15, 265745, Note_off_c, 14, 61, 64
15, 265919, Note_on_c, 14, 61, 80
15, 266085, Note_off_c, 14, 61, 64
15, 266159, Note_on_c, 14, 58, 93
15, 266234, Note_off_c, 14, 58, 64
15, 266270, Note_on_c, 14, 59, 82
15, 266340, Note_off_c, 14, 59, 64
15, 266391, Note_on_c, 14, 61, 92
15, 266479, Note_off_c, 14, 61, 64
15, 266638, Note_on_c, 14, 49, 62
15, 266848, Note_off_c, 14, 49, 64
15, 266881, Note_on_c, 14, 56, 75
15, 266974, Note_off_c, 14, 56, 64
15, 267121, Note_on_c, 14, 59, 78
15, 267185, Note_off_c, 14, 59, 64
15, 267359, Note_on_c, 14, 58, 68
15, 268601, Note_off_c, 14, 58, 64
15, 268800, Note_on_c, 14, 68, 56
15, 268910, Note_off_c, 14, 68, 64
15, 269031, Note_on_c, 14, 68, 69
15, 269141, Note_off_c, 14, 68, 64
15, 269267, Note_on_c, 14, 68, 71
15, 269373, Note_off_c, 14, 68, 64
15, 269513, Note_on_c, 14, 68, 81
15, 269637, Note_off_c, 14, 68, 64
15, 269753, Note_on_c, 14, 68, 81
15, 269851, Note_off_c, 14, 68, 64
15, 269993, Note_on_c, 14, 68, 81
15, 270099, Note_off_c, 14, 68, 64
15, 270237, Note_on_c, 14, 68, 81
15, 270355, Note_off_c, 14, 68, 64
15, 270479, Note_on_c, 14, 68, 81
15, 270576, Note_off_c, 14, 68, 64
15, 270717, Note_on_c, 14, 68, 81
15, 270823, Note_off_c, 14, 68, 64
15, 270959, Note_on_c, 14, 68, 81
15, 271066, Note_off_c, 14, 68, 64
15, 271195, Note_on_c, 14, 68, 81
15, 271286, Note_off_c, 14, 68, 64
15, 271434, Note_on_c, 14, 68, 81
15, 271525, Note_off_c, 14, 68, 64
15, 271675, Note_on_c, 14, 66, 109
15, 271755, Note_off_c, 14, 66, 64
15, 271789, Note_on_c, 14, 65, 102
15, 271854, Note_off_c, 14, 65, 64
15, 271911, Note_on_c, 14, 63, 94
15, 271983, Note_off_c, 14, 63, 64
15, 272028, Note_on_c, 14, 65, 89
15, 272103, Note_off_c, 14, 65, 64
15, 272149, Note_on_c, 14, 66, 89
15, 272232, Note_off_c, 14, 66, 64
15, 272267, Note_on_c, 14, 68, 109
15, 272343, Note_off_c, 14, 68, 64
15, 272395, Note_on_c, 14, 70, 109
15, 272496, Note_off_c, 14, 70, 64
15, 272513, Note_on_c, 14, 71, 81
15, 272594, Note_off_c, 14, 71, 64
15, 272632, Note_on_c, 14, 70, 87
15, 272704, Note_off_c, 14, 70, 64
15, 272751, Note_on_c, 14, 68, 93
15, 272827, Note_off_c, 14, 68, 64
15, 272870, Note_on_c, 14, 66, 88
15, 272968, Note_off_c, 14, 66, 64
15, 272993, Note_on_c, 14, 65, 95
15, 273070, Note_off_c, 14, 65, 64
15, 273117, Note_on_c, 14, 66, 92
15, 273211, Note_off_c, 14, 66, 64
15, 273238, Note_on_c, 14, 70, 96
15, 273314, Note_off_c, 14, 70, 64
15, 273358, Note_on_c, 14, 68, 87
15, 273442, Note_off_c, 14, 68, 64
15, 273474, Note_on_c, 14, 66, 93
15, 273560, Note_off_c, 14, 66, 64
15, 273595, Note_on_c, 14, 65, 93
15, 273663, Note_off_c, 14, 65, 64
15, 273711, Note_on_c, 14, 63, 94
15, 273785, Note_off_c, 14, 63, 64
15, 273838, Note_on_c, 14, 62, 107
15, 273924, Note_off_c, 14, 62, 64
15, 273954, Note_on_c, 14, 63, 92
15, 274029, Note_off_c, 14, 63, 64
15, 274073, Note_on_c, 14, 62, 102
15, 274145, Note_off_c, 14, 62, 64
15, 274191, Note_on_c, 14, 60, 95
15, 274252, Note_off_c, 14, 60, 64
15, 274313, Note_on_c, 14, 58, 89
15, 274381, Note_off_c, 14, 58, 64
15, 274433, Note_on_c, 14, 56, 81
15, 274505, Note_off_c, 14, 56, 64
15, 274560, Note_on_c, 14, 54, 81
15, 274685, Note_off_c, 14, 54, 64
15, 274793, Note_on_c, 14, 63, 73
15, 274902, Note_off_c, 14, 63, 64
15, 275035, Note_on_c, 14, 63, 69
15, 275147, Note_off_c, 14, 63, 64
15, 275273, Note_on_c, 14, 63, 47
15, 275377, Note_off_c, 14, 63, 64
15, 275519, Note_on_c, 14, 63, 68
15, 275627, Note_off_c, 14, 63, 64
15, 275755, Note_on_c, 14, 63, 69
15, 275868, Note_off_c, 14, 63, 64
15, 275993, Note_on_c, 14, 63, 80
15, 276096, Note_off_c, 14, 63, 64
15, 276235, Note_on_c, 14, 63, 62
15, 276335, Note_off_c, 14, 63, 64
15, 276471, Note_on_c, 14, 63, 52
15, 276583, Note_off_c, 14, 63, 64
15, 276723, Note_on_c, 14, 63, 74
15, 276832, Note_off_c, 14, 63, 64
15, 276961, Note_on_c, 14, 63, 71
15, 277073, Note_off_c, 14, 63, 64
15, 277197, Note_on_c, 14, 63, 69
15, 277300, Note_off_c, 14, 63, 64
15, 277434, Note_on_c, 14, 63, 75
15, 277555, Note_off_c, 14, 63, 64
15, 277675, Note_on_c, 14, 63, 81
15, 277781, Note_off_c, 14, 63, 64
15, 277913, Note_on_c, 14, 63, 81
15, 278021, Note_off_c, 14, 63, 64
15, 278162, Note_on_c, 14, 63, 81
15, 278277, Note_off_c, 14, 63, 64
15, 278403, Note_on_c, 14, 63, 81
15, 278511, Note_off_c, 14, 63, 64
15, 278638, Note_on_c, 14, 63, 81
15, 278747, Note_off_c, 14, 63, 64
15, 278877, Note_on_c, 14, 66, 94
15, 278994, Note_off_c, 14, 66, 64
15, 279114, Note_on_c, 14, 70, 92
15, 279217, Note_off_c, 14, 70, 64
15, 279354, Note_on_c, 14, 65, 95
15, 279448, Note_off_c, 14, 65, 64
15, 279595, Note_on_c, 14, 66, 81
15, 279863, Note_off_c, 14, 66, 64
15, 280318, Note_on_c, 14, 63, 84
15, 280460, Note_off_c, 14, 63, 64
15, 280563, Note_on_c, 14, 66, 81
15, 280655, Note_off_c, 14, 66, 64
15, 280796, Note_on_c, 14, 70, 81
15, 280895, Note_off_c, 14, 70, 64
15, 281039, Note_on_c, 14, 62, 75
15, 281186, Note_off_c, 14, 62, 64
15, 281282, Note_on_c, 14, 65, 74
15, 281362, Note_off_c, 14, 65, 64
15, 281517, Note_on_c, 14, 70, 81
15, 281599, Note_off_c, 14, 70, 64
15, 281755, Note_on_c, 14, 63, 81
15, 281892, Note_off_c, 14, 63, 64
15, 281992, Note_on_c, 14, 66, 81
15, 282093, Note_off_c, 14, 66, 64
15, 282236, Note_on_c, 14, 70, 81
15, 282324, Note_off_c, 14, 70, 64
15, 282476, Note_on_c, 14, 58, 87
15, 282629, Note_off_c, 14, 58, 64
15, 282716, Note_on_c, 14, 65, 72
15, 282808, Note_off_c, 14, 65, 64
15, 282957, Note_on_c, 14, 70, 81
15, 283045, Note_off_c, 14, 70, 64
15, 283205, Note_on_c, 14, 63, 54
15, 283291, Note_off_c, 14, 63, 64
15, 283320, Note_on_c, 14, 62, 60
15, 283385, Note_off_c, 14, 62, 64
15, 283435, Note_on_c, 14, 63, 49
15, 283509, Note_off_c, 14, 63, 64
15, 283551, Note_on_c, 14, 65, 60
15, 283613, Note_off_c, 14, 65, 64
15, 283668, Note_on_c, 14, 66, 47
15, 283745, Note_off_c, 14, 66, 64
15, 283784, Note_on_c, 14, 68, 51
15, 283853, Note_off_c, 14, 68, 64
15, 283911, Note_on_c, 14, 70, 60
15, 284005, Note_off_c, 14, 70, 64
15, 284022, Note_on_c, 14, 71, 44
15, 284115, Note_off_c, 14, 71, 64
15, 284142, Note_on_c, 14, 70, 45
15, 284210, Note_off_c, 14, 70, 64
15, 284261, Note_on_c, 14, 68, 48
15, 284335, Note_off_c, 14, 68, 64
15, 284382, Note_on_c, 14, 66, 44
15, 284474, Note_off_c, 14, 66, 64
15, 284504, Note_on_c, 14, 65, 42
15, 284579, Note_off_c, 14, 65, 64
15, 284635, Note_on_c, 14, 63, 47
15, 284778, Note_off_c, 14, 63, 64
15, 284877, Note_on_c, 14, 66, 81
15, 284970, Note_off_c, 14, 66, 64
15, 285115, Note_on_c, 14, 58, 81
15, 285216, Note_off_c, 14, 58, 64
15, 285360, Note_on_c, 14, 65, 91
15, 285501, Note_off_c, 14, 65, 64
15, 285603, Note_on_c, 14, 68, 81
15, 285693, Note_off_c, 14, 68, 64
15, 285837, Note_on_c, 14, 58, 81
15, 285921, Note_off_c, 14, 58, 64
15, 286072, Note_on_c, 14, 66, 81
15, 286213, Note_off_c, 14, 66, 64
15, 286317, Note_on_c, 14, 66, 82
15, 286441, Note_off_c, 14, 66, 64
15, 286559, Note_on_c, 14, 66, 81
15, 286678, Note_off_c, 14, 66, 64
15, 286799, Note_on_c, 14, 66, 81
15, 286925, Note_off_c, 14, 66, 64
15, 287041, Note_on_c, 14, 66, 81
15, 287161, Note_off_c, 14, 66, 64
15, 287279, Note_on_c, 14, 66, 81
15, 287384, Note_off_c, 14, 66, 64
15, 287514, Note_on_c, 14, 65, 91
15, 287650, Note_off_c, 14, 65, 64
15, 287758, Note_on_c, 14, 65, 72
15, 287867, Note_off_c, 14, 65, 64
15, 287994, Note_on_c, 14, 65, 73
15, 288115, Note_off_c, 14, 65, 64
15, 288236, Note_on_c, 14, 65, 85
15, 288365, Note_off_c, 14, 65, 64
15, 288478, Note_on_c, 14, 65, 93
15, 288597, Note_off_c, 14, 65, 64
15, 288717, Note_on_c, 14, 65, 87
15, 288832, Note_off_c, 14, 65, 64
15, 288959, Note_on_c, 14, 63, 98
15, 289086, Note_off_c, 14, 63, 64
15, 289200, Note_on_c, 14, 63, 82
15, 289322, Note_off_c, 14, 63, 64
15, 289443, Note_on_c, 14, 63, 87
15, 289548, Note_off_c, 14, 63, 64
15, 289684, Note_on_c, 14, 63, 87
15, 289803, Note_off_c, 14, 63, 64
15, 289921, Note_on_c, 14, 63, 84
15, 290025, Note_off_c, 14, 63, 64
15, 290158, Note_on_c, 14, 63, 82
15, 290252, Note_off_c, 14, 63, 64
15, 290395, Note_on_c, 14, 61, 98
15, 290545, Note_off_c, 14, 61, 64
15, 290639, Note_on_c, 14, 65, 102
15, 290734, Note_off_c, 14, 65, 64
15, 290877, Note_on_c, 14, 70, 91
15, 290984, Note_off_c, 14, 70, 64
15, 291118, Note_on_c, 14, 60, 102
15, 291283, Note_off_c, 14, 60, 64
15, 291361, Note_on_c, 14, 63, 77
15, 291456, Note_off_c, 14, 63, 64
15, 291595, Note_on_c, 14, 69, 102
15, 291679, Note_off_c, 14, 69, 64
15, 291840, Note_on_c, 14, 58, 102
15, 291942, Note_off_c, 14, 58, 64
15, 291958, Note_on_c, 14, 57, 102
15, 292040, Note_off_c, 14, 57, 64
15, 292075, Note_on_c, 14, 58, 91
15, 292159, Note_off_c, 14, 58, 64
15, 292195, Note_on_c, 14, 60, 112
15, 292270, Note_off_c, 14, 60, 64
15, 292315, Note_on_c, 14, 61, 87
15, 292397, Note_off_c, 14, 61, 64
15, 292433, Note_on_c, 14, 63, 102
15, 292512, Note_off_c, 14, 63, 64
15, 292557, Note_on_c, 14, 65, 117
15, 292642, Note_off_c, 14, 65, 64
15, 292676, Note_on_c, 14, 66, 98
15, 292766, Note_off_c, 14, 66, 64
15, 292793, Note_on_c, 14, 65, 91
15, 292868, Note_off_c, 14, 65, 64
15, 292913, Note_on_c, 14, 63, 81
15, 292996, Note_off_c, 14, 63, 64
15, 293032, Note_on_c, 14, 61, 85
15, 293123, Note_off_c, 14, 61, 64
15, 293151, Note_on_c, 14, 60, 107
15, 293229, Note_off_c, 14, 60, 64
15, 293273, Note_on_c, 14, 61, 93
15, 293437, Note_off_c, 14, 61, 64
15, 293515, Note_on_c, 14, 65, 107
15, 293633, Note_off_c, 14, 65, 64
15, 293751, Note_on_c, 14, 70, 106
15, 293899, Note_off_c, 14, 70, 64
15, 293997, Note_on_c, 14, 69, 121
15, 294095, Note_off_c, 14, 69, 64
15, 294113, Note_on_c, 14, 70, 84
15, 294215, Note_off_c, 14, 70, 64
15, 294235, Note_on_c, 14, 69, 102
15, 294315, Note_off_c, 14, 69, 64
15, 294354, Note_on_c, 14, 67, 91
15, 294445, Note_off_c, 14, 67, 64
15, 294474, Note_on_c, 14, 65, 99
15, 294557, Note_off_c, 14, 65, 64
15, 294595, Note_on_c, 14, 63, 93
15, 294663, Note_off_c, 14, 63, 64
15, 294711, Note_on_c, 14, 61, 81
15, 294852, Note_off_c, 14, 61, 64
15, 295200, Note_on_c, 14, 65, 87
15, 295311, Note_off_c, 14, 65, 64
15, 295438, Note_on_c, 14, 65, 85
15, 295547, Note_off_c, 14, 65, 64
15, 295674, Note_on_c, 14, 65, 81
15, 295783, Note_off_c, 14, 65, 64
15, 295913, Note_on_c, 14, 65, 91
15, 296008, Note_off_c, 14, 65, 64
15, 304800, Note_on_c, 14, 69, 102
15, 304887, Note_off_c, 14, 69, 64
15, 304916, Note_on_c, 14, 72, 82
15, 305003, Note_off_c, 14, 72, 64
15, 305031, Note_on_c, 14, 65, 82
15, 305111, Note_off_c, 14, 65, 64
15, 305147, Note_on_c, 14, 72, 80
15, 305223, Note_off_c, 14, 72, 64
15, 305269, Note_on_c, 14, 69, 99
15, 305348, Note_off_c, 14, 69, 64
15, 305384, Note_on_c, 14, 72, 95
15, 305467, Note_off_c, 14, 72, 64
15, 305511, Note_on_c, 14, 70, 93
15, 305620, Note_off_c, 14, 70, 64
15, 305631, Note_on_c, 14, 73, 81
15, 305712, Note_off_c, 14, 73, 64
15, 305750, Note_on_c, 14, 65, 82
15, 305831, Note_off_c, 14, 65, 64
15, 305868, Note_on_c, 14, 73, 81
15, 305944, Note_off_c, 14, 73, 64
15, 305989, Note_on_c, 14, 70, 94
15, 306059, Note_off_c, 14, 70, 64
15, 306106, Note_on_c, 14, 73, 89
15, 306176, Note_off_c, 14, 73, 64
15, 306232, Note_on_c, 14, 72, 107
15, 306326, Note_off_c, 14, 72, 64
15, 306347, Note_on_c, 14, 75, 87
15, 306429, Note_off_c, 14, 75, 64
15, 306465, Note_on_c, 14, 65, 77
15, 306535, Note_off_c, 14, 65, 64
15, 306584, Note_on_c, 14, 75, 82
15, 306651, Note_off_c, 14, 75, 64
15, 306707, Note_on_c, 14, 72, 99
15, 306784, Note_off_c, 14, 72, 64
15, 306826, Note_on_c, 14, 75, 85
15, 306896, Note_off_c, 14, 75, 64
15, 306952, Note_on_c, 14, 72, 112
15, 307053, Note_off_c, 14, 72, 64
15, 307071, Note_on_c, 14, 75, 87
15, 307150, Note_off_c, 14, 75, 64
15, 307190, Note_on_c, 14, 65, 87
15, 307262, Note_off_c, 14, 65, 64
15, 307307, Note_on_c, 14, 75, 85
15, 307374, Note_off_c, 14, 75, 64
15, 307429, Note_on_c, 14, 72, 91
15, 307493, Note_off_c, 14, 72, 64
15, 307547, Note_on_c, 14, 75, 91
15, 307625, Note_off_c, 14, 75, 64
15, 307674, Note_on_c, 14, 74, 54
15, 307761, Note_off_c, 14, 74, 64
15, 307920, Note_on_c, 14, 58, 55
15, 308025, Note_off_c, 14, 58, 64
15, 308155, Note_on_c, 14, 58, 55
15, 308251, Note_off_c, 14, 58, 64
15, 308395, Note_on_c, 14, 58, 65
15, 308515, Note_off_c, 14, 58, 64
15, 308634, Note_on_c, 14, 58, 55
15, 308728, Note_off_c, 14, 58, 64
15, 308870, Note_on_c, 14, 58, 55
15, 308964, Note_off_c, 14, 58, 64
15, 309120, Note_on_c, 14, 58, 46
15, 309211, Note_off_c, 14, 58, 64
15, 309354, Note_on_c, 14, 58, 55
15, 309440, Note_off_c, 14, 58, 64
15, 309589, Note_on_c, 14, 58, 55
15, 309671, Note_off_c, 14, 58, 64
15, 309832, Note_on_c, 14, 58, 65
15, 309905, Note_off_c, 14, 58, 64
15, 310073, Note_on_c, 14, 58, 55
15, 310149, Note_off_c, 14, 58, 64
15, 310311, Note_on_c, 14, 58, 55
15, 310381, Note_off_c, 14, 58, 64
15, 310559, Note_on_c, 14, 65, 56
15, 310653, Note_off_c, 14, 65, 64
15, 310797, Note_on_c, 14, 65, 50
15, 310875, Note_off_c, 14, 65, 64
15, 311033, Note_on_c, 14, 65, 54
15, 311105, Note_off_c, 14, 65, 64
15, 311276, Note_on_c, 14, 65, 57
15, 311364, Note_off_c, 14, 65, 64
15, 311517, Note_on_c, 14, 65, 62
15, 311605, Note_off_c, 14, 65, 64
15, 311755, Note_on_c, 14, 65, 70
15, 311850, Note_off_c, 14, 65, 64
15, 311999, Note_on_c, 14, 65, 102
15, 312092, Note_off_c, 14, 65, 64
15, 312115, Note_on_c, 14, 63, 81
15, 312203, Note_off_c, 14, 63, 64
15, 312235, Note_on_c, 14, 61, 87
15, 312340, Note_off_c, 14, 61, 64
15, 312351, Note_on_c, 14, 63, 84
15, 312431, Note_off_c, 14, 63, 64
15, 312473, Note_on_c, 14, 65, 78
15, 312587, Note_off_c, 14, 65, 64
15, 312724, Note_on_c, 14, 53, 93
15, 312896, Note_off_c, 14, 53, 64
15, 312961, Note_on_c, 14, 60, 93
15, 313055, Note_off_c, 14, 60, 64
15, 313079, Note_on_c, 14, 61, 85
15, 313182, Note_off_c, 14, 61, 64
15, 313199, Note_on_c, 14, 63, 78
15, 313293, Note_off_c, 14, 63, 64
15, 313440, Note_on_c, 14, 61, 69
15, 314370, Note_off_c, 14, 61, 64
15, 317753, Note_on_c, 14, 73, 96
15, 317853, Note_off_c, 14, 73, 64
15, 317990, Note_on_c, 14, 73, 81
15, 318091, Note_off_c, 14, 73, 64
15, 318230, Note_on_c, 14, 73, 81
15, 318337, Note_off_c, 14, 73, 64
15, 318475, Note_on_c, 14, 73, 81
15, 318617, Note_off_c, 14, 73, 64
15, 318716, Note_on_c, 14, 73, 81
15, 318812, Note_off_c, 14, 73, 64
15, 318957, Note_on_c, 14, 73, 81
15, 319053, Note_off_c, 14, 73, 64
15, 319194, Note_on_c, 14, 73, 81
15, 319396, Note_off_c, 14, 73, 64
15, 319441, Note_on_c, 14, 75, 87
15, 319524, Note_off_c, 14, 75, 64
15, 319553, Note_on_c, 14, 73, 85
15, 319646, Note_off_c, 14, 73, 64
15, 319667, Note_on_c, 14, 71, 81
15, 319786, Note_off_c, 14, 71, 64
15, 319787, Note_on_c, 14, 70, 81
15, 319868, Note_off_c, 14, 70, 64
15, 319910, Note_on_c, 14, 71, 81
15, 320026, Note_off_c, 14, 71, 64
15, 320157, Note_on_c, 14, 68, 81
15, 320252, Note_off_c, 14, 68, 64
15, 320760, Note_on_c, 14, 61, 106
15, 320852, Note_off_c, 14, 61, 64
15, 320877, Note_on_c, 14, 64, 115
15, 320974, Note_off_c, 14, 64, 64
15, 320993, Note_on_c, 14, 68, 92
15, 321080, Note_off_c, 14, 68, 64
15, 321107, Note_on_c, 14, 64, 85
15, 321207, Note_off_c, 14, 64, 64
15, 321225, Note_on_c, 14, 61, 93
15, 321326, Note_off_c, 14, 61, 64
15, 321353, Note_on_c, 14, 70, 93
15, 321509, Note_off_c, 14, 70, 64
15, 321594, Note_on_c, 14, 70, 93
15, 321722, Note_off_c, 14, 70, 64
15, 321835, Note_on_c, 14, 70, 89
15, 321958, Note_off_c, 14, 70, 64
15, 322079, Note_on_c, 14, 70, 85
15, 322174, Note_off_c, 14, 70, 64
15, 322195, Note_on_c, 14, 59, 93
15, 322282, Note_off_c, 14, 59, 64
15, 322312, Note_on_c, 14, 63, 101
15, 322403, Note_off_c, 14, 63, 64
15, 322428, Note_on_c, 14, 66, 96
15, 322510, Note_off_c, 14, 66, 64
15, 322546, Note_on_c, 14, 63, 89
15, 322633, Note_off_c, 14, 63, 64
15, 322662, Note_on_c, 14, 59, 93
15, 322751, Note_off_c, 14, 59, 64
15, 322787, Note_on_c, 14, 68, 92
15, 322950, Note_off_c, 14, 68, 64
15, 323033, Note_on_c, 14, 68, 87
15, 323143, Note_off_c, 14, 68, 64
15, 323271, Note_on_c, 14, 68, 82
15, 323373, Note_off_c, 14, 68, 64
15, 332160, Note_on_c, 14, 66, 81
15, 332267, Note_off_c, 14, 66, 64
15, 332392, Note_on_c, 14, 71, 81
15, 332463, Note_off_c, 14, 71, 64
15, 332635, Note_on_c, 14, 75, 81
15, 332698, Note_off_c, 14, 75, 64
15, 332875, Note_on_c, 14, 68, 81
15, 332983, Note_off_c, 14, 68, 64
15, 333114, Note_on_c, 14, 71, 81
15, 333183, Note_off_c, 14, 71, 64
15, 333361, Note_on_c, 14, 75, 81
15, 333428, Note_off_c, 14, 75, 64
15, 333599, Note_on_c, 14, 66, 81
15, 333718, Note_off_c, 14, 66, 64
15, 333834, Note_on_c, 14, 71, 81
15, 333901, Note_off_c, 14, 71, 64
15, 334078, Note_on_c, 14, 75, 81
15, 334155, Note_off_c, 14, 75, 64
15, 334319, Note_on_c, 14, 64, 81
15, 334437, Note_off_c, 14, 64, 64
15, 334555, Note_on_c, 14, 71, 81
15, 334620, Note_off_c, 14, 71, 64
15, 334796, Note_on_c, 14, 75, 81
15, 334865, Note_off_c, 14, 75, 64
15, 335031, Note_on_c, 14, 66, 81
15, 335169, Note_off_c, 14, 66, 64
15, 335274, Note_on_c, 14, 71, 81
15, 335342, Note_off_c, 14, 71, 64
15, 335517, Note_on_c, 14, 75, 81
15, 335602, Note_off_c, 14, 75, 64
15, 335755, Note_on_c, 14, 68, 81
15, 335905, Note_off_c, 14, 68, 64
15, 335991, Note_on_c, 14, 71, 81
15, 336050, Note_off_c, 14, 71, 64
15, 336232, Note_on_c, 14, 75, 81
15, 336308, Note_off_c, 14, 75, 64
15, 336481, Note_on_c, 14, 66, 81
15, 336634, Note_off_c, 14, 66, 64
15, 336714, Note_on_c, 14, 71, 81
15, 336779, Note_off_c, 14, 71, 64
15, 336957, Note_on_c, 14, 70, 81
15, 337032, Note_off_c, 14, 70, 64
15, 337199, Note_on_c, 14, 71, 81
15, 337288, Note_off_c, 14, 71, 64
15, 342720, Note_on_c, 14, 66, 96
15, 342813, Note_off_c, 14, 66, 64
15, 342956, Note_on_c, 14, 66, 88
15, 343081, Note_off_c, 14, 66, 64
15, 343191, Note_on_c, 14, 66, 87
15, 343291, Note_off_c, 14, 66, 64
15, 343433, Note_on_c, 14, 66, 98
15, 343496, Note_off_c, 14, 66, 64
15, 348000, Note_on_c, 14, 66, 75
15, 348171, Note_off_c, 14, 66, 64
15, 348237, Note_on_c, 14, 70, 81
15, 348334, Note_off_c, 14, 70, 64
15, 348471, Note_on_c, 14, 73, 81
15, 348554, Note_off_c, 14, 73, 64
15, 348713, Note_on_c, 14, 65, 64
15, 348845, Note_off_c, 14, 65, 64
15, 348952, Note_on_c, 14, 68, 81
15, 349029, Note_off_c, 14, 68, 64
15, 349197, Note_on_c, 14, 73, 81
15, 349274, Note_off_c, 14, 73, 64
15, 349435, Note_on_c, 14, 66, 81
15, 349578, Note_off_c, 14, 66, 64
15, 349676, Note_on_c, 14, 70, 81
15, 349760, Note_off_c, 14, 70, 64
15, 349919, Note_on_c, 14, 73, 81
15, 350023, Note_off_c, 14, 73, 64
15, 350162, Note_on_c, 14, 61, 81
15, 350282, Note_off_c, 14, 61, 64
15, 350395, Note_on_c, 14, 68, 81
15, 350465, Note_off_c, 14, 68, 64
15, 350639, Note_on_c, 14, 73, 81
15, 350700, Note_off_c, 14, 73, 64
15, 350884, Note_on_c, 14, 54, 96
15, 350990, Note_off_c, 14, 54, 64
15, 351000, Note_on_c, 14, 53, 80
15, 351060, Note_off_c, 14, 53, 64
15, 351113, Note_on_c, 14, 54, 81
15, 351183, Note_off_c, 14, 54, 64
15, 351233, Note_on_c, 14, 56, 89
15, 351298, Note_off_c, 14, 56, 64
15, 351350, Note_on_c, 14, 58, 94
15, 351416, Note_off_c, 14, 58, 64
15, 351466, Note_on_c, 14, 59, 81
15, 351535, Note_off_c, 14, 59, 64
15, 351594, Note_on_c, 14, 61, 92
15, 351671, Note_off_c, 14, 61, 64
15, 351710, Note_on_c, 14, 63, 81
15, 351783, Note_off_c, 14, 63, 64
15, 351831, Note_on_c, 14, 61, 84
15, 351898, Note_off_c, 14, 61, 64
15, 351950, Note_on_c, 14, 59, 85
15, 352025, Note_off_c, 14, 59, 64
15, 352068, Note_on_c, 14, 58, 85
15, 352140, Note_off_c, 14, 58, 64
15, 352185, Note_on_c, 14, 56, 85
15, 352253, Note_off_c, 14, 56, 64
15, 352311, Note_on_c, 14, 54, 89
15, 352440, Note_off_c, 14, 54, 64
15, 352553, Note_on_c, 14, 58, 87
15, 352641, Note_off_c, 14, 58, 64
15, 352792, Note_on_c, 14, 61, 92
15, 352885, Note_off_c, 14, 61, 64
15, 353033, Note_on_c, 14, 65, 95
15, 353151, Note_off_c, 14, 65, 64
15, 353276, Note_on_c, 14, 68, 88
15, 353368, Note_off_c, 14, 68, 64
15, 353514, Note_on_c, 14, 61, 85
15, 353616, Note_off_c, 14, 61, 64
15, 353760, Note_on_c, 14, 70, 82
15, 353862, Note_off_c, 14, 70, 64
15, 353999, Note_on_c, 14, 70, 87
15, 354107, Note_off_c, 14, 70, 64
15, 354235, Note_on_c, 14, 70, 85
15, 354352, Note_off_c, 14, 70, 64
15, 354479, Note_on_c, 14, 70, 82
15, 354592, Note_off_c, 14, 70, 64
15, 354718, Note_on_c, 14, 70, 87
15, 354831, Note_off_c, 14, 70, 64
15, 354956, Note_on_c, 14, 70, 87
15, 355060, Note_off_c, 14, 70, 64
15, 355195, Note_on_c, 14, 68, 96
15, 355321, Note_off_c, 14, 68, 64
15, 355435, Note_on_c, 14, 68, 91
15, 355553, Note_off_c, 14, 68, 64
15, 355682, Note_on_c, 14, 68, 89
15, 355780, Note_off_c, 14, 68, 64
15, 355919, Note_on_c, 14, 68, 89
15, 356048, Note_off_c, 14, 68, 64
15, 356163, Note_on_c, 14, 68, 98
15, 356236, Note_off_c, 14, 68, 64
15, 356398, Note_on_c, 14, 68, 96
15, 356492, Note_off_c, 14, 68, 64
15, 356638, Note_on_c, 14, 66, 101
15, 356768, Note_off_c, 14, 66, 64
15, 356879, Note_on_c, 14, 66, 93
15, 356980, Note_off_c, 14, 66, 64
15, 357119, Note_on_c, 14, 66, 94
15, 357214, Note_off_c, 14, 66, 64
15, 357356, Note_on_c, 14, 66, 93
15, 357485, Note_off_c, 14, 66, 64
15, 357596, Note_on_c, 14, 66, 91
15, 357685, Note_off_c, 14, 66, 64
15, 357837, Note_on_c, 14, 66, 101
15, 357913, Note_off_c, 14, 66, 64
15, 365520, Note_on_c, 14, 54, 67
15, 365594, Note_off_c, 14, 54, 64
15, 365757, Note_on_c, 14, 54, 70
15, 365834, Note_off_c, 14, 54, 64
15, 365996, Note_on_c, 14, 54, 70
15, 366076, Note_off_c, 14, 54, 64
15, 366236, Note_on_c, 14, 54, 73
15, 366310, Note_off_c, 14, 54, 64
15, 366473, Note_on_c, 14, 54, 73
15, 366553, Note_off_c, 14, 54, 64
15, 366715, Note_on_c, 14, 54, 80
15, 366850, Note_off_c, 14, 54, 64
15, 366951, Note_on_c, 14, 54, 67
15, 367040, Note_off_c, 14, 54, 64
15, 367189, Note_on_c, 14, 54, 72
15, 367269, Note_off_c, 14, 54, 64
15, 367432, Note_on_c, 14, 54, 70
15, 367517, Note_off_c, 14, 54, 64
15, 367673, Note_on_c, 14, 54, 72
15, 367756, Note_off_c, 14, 54, 64
15, 367913, Note_on_c, 14, 54, 70
15, 368004, Note_off_c, 14, 54, 64
15, 368156, Note_on_c, 14, 61, 77
15, 368279, Note_off_c, 14, 61, 64
15, 368395, Note_on_c, 14, 61, 65
15, 368478, Note_off_c, 14, 61, 64
15, 368637, Note_on_c, 14, 61, 64
15, 368715, Note_off_c, 14, 61, 64
15, 368877, Note_on_c, 14, 61, 61
15, 368946, Note_off_c, 14, 61, 64
15, 369120, Note_on_c, 14, 61, 64
15, 369182, Note_off_c, 14, 61, 64
15, 369359, Note_on_c, 14, 61, 64
15, 369425, Note_off_c, 14, 61, 64
15, 369599, Note_on_c, 14, 61, 80
15, 369765, Note_off_c, 14, 61, 64
15, 369839, Note_on_c, 14, 58, 93
15, 369914, Note_off_c, 14, 58, 64
15, 369950, Note_on_c, 14, 59, 82
15, 370020, Note_off_c, 14, 59, 64
15, 370071, Note_on_c, 14, 61, 92
15, 370159, Note_off_c, 14, 61, 64
15, 370318, Note_on_c, 14, 49, 62
15, 370528, Note_off_c, 14, 49, 64
15, 370561, Note_on_c, 14, 56, 75
15, 370654, Note_off_c, 14, 56, 64
15, 370801, Note_on_c, 14, 59, 78
15, 370865, Note_off_c, 14, 59, 64
15, 371039, Note_on_c, 14, 58, 68
15, 372281, Note_off_c, 14, 58, 64
15, 378240, End_track
16, 0, Start_track
16, 0, Instrument_name_t, "SC88-A"
16, 0, Title_t, "vc.uni"
16, 1440, Control_c, 15, 101, 0
16, 1450, Control_c, 15, 100, 0
16, 1450, Control_c, 15, 6, 0
16, 1470, Control_c, 15, 0, 0
16, 1480, Control_c, 15, 32, 1
16, 1490, Program_c, 15, 41
16, 1500, Control_c, 15, 10, 94
16, 1510, Control_c, 15, 11, 105
16, 1520, Control_c, 15, 7, 120
16, 1530, Control_c, 15, 93, 0
16, 1540, Control_c, 15, 91, 0
16, 1550, Pitch_bend_c, 15, 8192
16, 1560, Control_c, 15, 1, 0
16, 1570, Control_c, 15, 64, 0
16, 1580, Control_c, 15, 91, 64
16, 1590, Control_c, 15, 99, 1
16, 1600, Control_c, 15, 98, 32
16, 1610, Control_c, 15, 6, 70
16, 1620, Control_c, 15, 98, 33
16, 1630, Control_c, 15, 6, 64
16, 1640, Control_c, 15, 98, 99
16, 1650, Control_c, 15, 6, 65
16, 1660, Control_c, 15, 98, 100
16, 1670, Control_c, 15, 6, 64
16, 1680, Control_c, 15, 98, 102
16, 1690, Control_c, 15, 6, 64
16, 89390, Note_on_c, 15, 47, 56
16, 92573, Note_on_c, 15, 46, 56
16, 92581, Note_off_c, 15, 47, 64
16, 95453, Note_off_c, 15, 46, 64
16, 100320, Note_on_c, 15, 54, 81
16, 100426, Note_off_c, 15, 54, 64
16, 100441, Note_on_c, 15, 53, 67
16, 100516, Note_off_c, 15, 53, 64
16, 100556, Note_on_c, 15, 54, 81
16, 100644, Note_off_c, 15, 54, 64
16, 100675, Note_on_c, 15, 56, 81
16, 100749, Note_off_c, 15, 56, 64
16, 100794, Note_on_c, 15, 58, 81
16, 100866, Note_off_c, 15, 58, 64
16, 100910, Note_on_c, 15, 59, 81
16, 100975, Note_off_c, 15, 59, 64
16, 101037, Note_on_c, 15, 61, 81
16, 101131, Note_off_c, 15, 61, 64
16, 101159, Note_on_c, 15, 63, 81
16, 101243, Note_off_c, 15, 63, 64
16, 101275, Note_on_c, 15, 61, 81
16, 101347, Note_off_c, 15, 61, 64
16, 101391, Note_on_c, 15, 59, 81
16, 101456, Note_off_c, 15, 59, 64
16, 101510, Note_on_c, 15, 58, 81
16, 101580, Note_off_c, 15, 58, 64
16, 101627, Note_on_c, 15, 56, 81
16, 101695, Note_off_c, 15, 56, 64
16, 101753, Note_on_c, 15, 54, 81
16, 101850, Note_off_c, 15, 54, 64
16, 101868, Note_on_c, 15, 53, 74
16, 101945, Note_off_c, 15, 53, 64
16, 101987, Note_on_c, 15, 54, 81
16, 102078, Note_off_c, 15, 54, 64
16, 102109, Note_on_c, 15, 56, 81
16, 102174, Note_off_c, 15, 56, 64
16, 102231, Note_on_c, 15, 58, 81
16, 102301, Note_off_c, 15, 58, 64
16, 102351, Note_on_c, 15, 54, 82
16, 102438, Note_off_c, 15, 54, 64
16, 102473, Note_on_c, 15, 59, 81
16, 102569, Note_off_c, 15, 59, 64
16, 102593, Note_on_c, 15, 61, 81
16, 102669, Note_off_c, 15, 61, 64
16, 102711, Note_on_c, 15, 59, 81
16, 102785, Note_off_c, 15, 59, 64
16, 102826, Note_on_c, 15, 58, 81
16, 102897, Note_off_c, 15, 58, 64
16, 102948, Note_on_c, 15, 56, 81
16, 103022, Note_off_c, 15, 56, 64
16, 103071, Note_on_c, 15, 54, 81
16, 103141, Note_off_c, 15, 54, 64
16, 103196, Note_on_c, 15, 53, 73
16, 103294, Note_off_c, 15, 53, 64
16, 103314, Note_on_c, 15, 51, 81
16, 103397, Note_off_c, 15, 51, 64
16, 103429, Note_on_c, 15, 53, 75
16, 103494, Note_off_c, 15, 53, 64
16, 103549, Note_on_c, 15, 54, 81
16, 103621, Note_off_c, 15, 54, 64
16, 103667, Note_on_c, 15, 56, 81
16, 103736, Note_off_c, 15, 56, 64
16, 103786, Note_on_c, 15, 53, 69
16, 103853, Note_off_c, 15, 53, 64
16, 103911, Note_on_c, 15, 58, 81
16, 103993, Note_off_c, 15, 58, 64
16, 104032, Note_on_c, 15, 60, 75
16, 104111, Note_off_c, 15, 60, 64
16, 104149, Note_on_c, 15, 58, 81
16, 104219, Note_off_c, 15, 58, 64
16, 104267, Note_on_c, 15, 56, 82
16, 104333, Note_off_c, 15, 56, 64
16, 104389, Note_on_c, 15, 54, 81
16, 104462, Note_off_c, 15, 54, 64
16, 104506, Note_on_c, 15, 53, 73
16, 104561, Note_off_c, 15, 53, 64
16, 104629, Note_on_c, 15, 51, 81
16, 104731, Note_off_c, 15, 51, 64
16, 104749, Note_on_c, 15, 49, 82
16, 104823, Note_off_c, 15, 49, 64
16, 104868, Note_on_c, 15, 51, 85
16, 104938, Note_off_c, 15, 51, 64
16, 104985, Note_on_c, 15, 53, 81
16, 105057, Note_off_c, 15, 53, 64
16, 105104, Note_on_c, 15, 54, 81
16, 105173, Note_off_c, 15, 54, 64
16, 105224, Note_on_c, 15, 51, 87
16, 105296, Note_off_c, 15, 51, 64
16, 105352, Note_on_c, 15, 56, 91
16, 105455, Note_off_c, 15, 56, 64
16, 105474, Note_on_c, 15, 58, 81
16, 105536, Note_off_c, 15, 58, 64
16, 105592, Note_on_c, 15, 56, 81
16, 105661, Note_off_c, 15, 56, 64
16, 105708, Note_on_c, 15, 54, 85
16, 105784, Note_off_c, 15, 54, 64
16, 105829, Note_on_c, 15, 53, 78
16, 105901, Note_off_c, 15, 53, 64
16, 105945, Note_on_c, 15, 51, 81
16, 106019, Note_off_c, 15, 51, 64
16, 106070, Note_on_c, 15, 49, 81
16, 106234, Note_off_c, 15, 49, 64
16, 106782, Note_on_c, 15, 44, 66
16, 106986, Note_off_c, 15, 44, 64
16, 107506, Note_on_c, 15, 37, 81
16, 107686, Note_off_c, 15, 37, 64
16, 108228, Note_on_c, 15, 44, 81
16, 108424, Note_off_c, 15, 44, 64
16, 108948, Note_on_c, 15, 49, 81
16, 109101, Note_off_c, 15, 49, 64
16, 109203, Note_on_c, 15, 53, 71
16, 109294, Note_off_c, 15, 53, 64
16, 109437, Note_on_c, 15, 56, 81
16, 109538, Note_off_c, 15, 56, 64
16, 109676, Note_on_c, 15, 44, 75
16, 109814, Note_off_c, 15, 44, 64
16, 109918, Note_on_c, 15, 51, 81
16, 109999, Note_off_c, 15, 51, 64
16, 110156, Note_on_c, 15, 56, 81
16, 110229, Note_off_c, 15, 56, 64
16, 110398, Note_on_c, 15, 49, 81
16, 110513, Note_on_c, 15, 48, 73
16, 110516, Note_off_c, 15, 49, 64
16, 110582, Note_off_c, 15, 48, 64
16, 110635, Note_on_c, 15, 49, 81
16, 110717, Note_off_c, 15, 49, 64
16, 110755, Note_on_c, 15, 51, 82
16, 110818, Note_off_c, 15, 51, 64
16, 110872, Note_on_c, 15, 53, 82
16, 110954, Note_off_c, 15, 53, 64
16, 110989, Note_on_c, 15, 54, 81
16, 111059, Note_off_c, 15, 54, 64
16, 111112, Note_on_c, 15, 56, 81
16, 111195, Note_off_c, 15, 56, 64
16, 111231, Note_on_c, 15, 58, 81
16, 111302, Note_off_c, 15, 58, 64
16, 111351, Note_on_c, 15, 56, 81
16, 111420, Note_off_c, 15, 56, 64
16, 111467, Note_on_c, 15, 54, 81
16, 111540, Note_off_c, 15, 54, 64
16, 111587, Note_on_c, 15, 53, 78
16, 111658, Note_off_c, 15, 53, 64
16, 111703, Note_on_c, 15, 51, 81
16, 111773, Note_off_c, 15, 51, 64
16, 111833, Note_on_c, 15, 49, 81
16, 111931, Note_off_c, 15, 49, 64
16, 111947, Note_on_c, 15, 48, 78
16, 112025, Note_off_c, 15, 48, 64
16, 112069, Note_on_c, 15, 49, 81
16, 112155, Note_off_c, 15, 49, 64
16, 112188, Note_on_c, 15, 51, 81
16, 112256, Note_off_c, 15, 51, 64
16, 112315, Note_on_c, 15, 53, 67
16, 112376, Note_off_c, 15, 53, 64
16, 112424, Note_on_c, 15, 49, 81
16, 112505, Note_off_c, 15, 49, 64
16, 112549, Note_on_c, 15, 54, 81
16, 112639, Note_off_c, 15, 54, 64
16, 112667, Note_on_c, 15, 56, 81
16, 112738, Note_off_c, 15, 56, 64
16, 112787, Note_on_c, 15, 54, 81
16, 112861, Note_off_c, 15, 54, 64
16, 112907, Note_on_c, 15, 53, 74
16, 112988, Note_off_c, 15, 53, 64
16, 113026, Note_on_c, 15, 51, 81
16, 113106, Note_off_c, 15, 51, 64
16, 113147, Note_on_c, 15, 49, 81
16, 113209, Note_off_c, 15, 49, 64
16, 113268, Note_on_c, 15, 48, 74
16, 113364, Note_off_c, 15, 48, 64
16, 113389, Note_on_c, 15, 46, 81
16, 113463, Note_off_c, 15, 46, 64
16, 113507, Note_on_c, 15, 48, 77
16, 113573, Note_off_c, 15, 48, 64
16, 113624, Note_on_c, 15, 49, 81
16, 113700, Note_off_c, 15, 49, 64
16, 113746, Note_on_c, 15, 51, 81
16, 113818, Note_off_c, 15, 51, 64
16, 113865, Note_on_c, 15, 48, 81
16, 113943, Note_off_c, 15, 48, 64
16, 113990, Note_on_c, 15, 53, 81
16, 114068, Note_off_c, 15, 53, 64
16, 114109, Note_on_c, 15, 54, 87
16, 114179, Note_off_c, 15, 54, 64
16, 114225, Note_on_c, 15, 53, 74
16, 114291, Note_off_c, 15, 53, 64
16, 114344, Note_on_c, 15, 51, 81
16, 114418, Note_off_c, 15, 51, 64
16, 114461, Note_on_c, 15, 49, 81
16, 114534, Note_off_c, 15, 49, 64
16, 114581, Note_on_c, 15, 48, 85
16, 114641, Note_off_c, 15, 48, 64
16, 114709, Note_on_c, 15, 46, 81
16, 114810, Note_off_c, 15, 46, 64
16, 114830, Note_on_c, 15, 44, 81
16, 114905, Note_off_c, 15, 44, 64
16, 114947, Note_on_c, 15, 46, 84
16, 115013, Note_off_c, 15, 46, 64
16, 115063, Note_on_c, 15, 48, 73
16, 115132, Note_off_c, 15, 48, 64
16, 115184, Note_on_c, 15, 49, 81
16, 115264, Note_off_c, 15, 49, 64
16, 115306, Note_on_c, 15, 46, 82
16, 115377, Note_off_c, 15, 46, 64
16, 115428, Note_on_c, 15, 51, 85
16, 115514, Note_off_c, 15, 51, 64
16, 115548, Note_on_c, 15, 53, 69
16, 115622, Note_off_c, 15, 53, 64
16, 115667, Note_on_c, 15, 51, 81
16, 115742, Note_off_c, 15, 51, 64
16, 115785, Note_on_c, 15, 49, 81
16, 115853, Note_off_c, 15, 49, 64
16, 115905, Note_on_c, 15, 48, 80
16, 115975, Note_off_c, 15, 48, 64
16, 116020, Note_on_c, 15, 46, 81
16, 116095, Note_off_c, 15, 46, 64
16, 116151, Note_on_c, 15, 44, 81
16, 116331, Note_off_c, 15, 44, 64
16, 116401, Note_on_c, 15, 44, 61
16, 116492, Note_off_c, 15, 44, 64
16, 116631, Note_on_c, 15, 44, 78
16, 116751, Note_off_c, 15, 44, 64
16, 116874, Note_on_c, 15, 44, 81
16, 116994, Note_off_c, 15, 44, 64
16, 117110, Note_on_c, 15, 44, 81
16, 117249, Note_off_c, 15, 44, 64
16, 117346, Note_on_c, 15, 44, 81
16, 117517, Note_off_c, 15, 44, 64
16, 117593, Note_on_c, 15, 44, 81
16, 117770, Note_off_c, 15, 44, 64
16, 117833, Note_on_c, 15, 44, 81
16, 117997, Note_off_c, 15, 44, 64
16, 118071, Note_on_c, 15, 44, 81
16, 118247, Note_off_c, 15, 44, 64
16, 118313, Note_on_c, 15, 44, 81
16, 118487, Note_off_c, 15, 44, 64
16, 118553, Note_on_c, 15, 44, 81
16, 118700, Note_off_c, 15, 44, 64
16, 118788, Note_on_c, 15, 44, 81
16, 118942, Note_off_c, 15, 44, 64
16, 119034, Note_on_c, 15, 44, 81
16, 119186, Note_off_c, 15, 44, 64
16, 119279, Note_on_c, 15, 44, 81
16, 119405, Note_off_c, 15, 44, 64
16, 119515, Note_on_c, 15, 44, 81
16, 119639, Note_off_c, 15, 44, 64
16, 119752, Note_on_c, 15, 44, 81
16, 119906, Note_off_c, 15, 44, 64
16, 119997, Note_on_c, 15, 44, 87
16, 120119, Note_off_c, 15, 44, 64
16, 120235, Note_on_c, 15, 44, 94
16, 120353, Note_off_c, 15, 44, 64
16, 120473, Note_on_c, 15, 44, 93
16, 120612, Note_off_c, 15, 44, 64
16, 120719, Note_on_c, 15, 44, 93
16, 120840, Note_off_c, 15, 44, 64
16, 120957, Note_on_c, 15, 44, 93
16, 121064, Note_off_c, 15, 44, 64
16, 121198, Note_on_c, 15, 44, 94
16, 121338, Note_off_c, 15, 44, 64
16, 121437, Note_on_c, 15, 44, 82
16, 121525, Note_off_c, 15, 44, 64
16, 121673, Note_on_c, 15, 44, 87
16, 121768, Note_off_c, 15, 44, 64
16, 121917, Note_on_c, 15, 44, 87
16, 122057, Note_off_c, 15, 44, 64
16, 122157, Note_on_c, 15, 48, 87
16, 122257, Note_off_c, 15, 48, 64
16, 122395, Note_on_c, 15, 51, 87
16, 122495, Note_off_c, 15, 51, 64
16, 122635, Note_on_c, 15, 48, 85
16, 122774, Note_off_c, 15, 48, 64
16, 122873, Note_on_c, 15, 51, 81
16, 122963, Note_off_c, 15, 51, 64
16, 123117, Note_on_c, 15, 56, 81
16, 123199, Note_off_c, 15, 56, 64
16, 123357, Note_on_c, 15, 49, 93
16, 123479, Note_off_c, 15, 49, 64
16, 123595, Note_on_c, 15, 53, 77
16, 123687, Note_off_c, 15, 53, 64
16, 123830, Note_on_c, 15, 56, 82
16, 123914, Note_off_c, 15, 56, 64
16, 124077, Note_on_c, 15, 53, 82
16, 124200, Note_off_c, 15, 53, 64
16, 124311, Note_on_c, 15, 56, 91
16, 124410, Note_off_c, 15, 56, 64
16, 124555, Note_on_c, 15, 61, 85
16, 124644, Note_off_c, 15, 61, 64
16, 124804, Note_on_c, 15, 42, 102
16, 125020, Note_off_c, 15, 42, 64
16, 126237, Note_on_c, 15, 54, 84
16, 126493, Note_off_c, 15, 54, 64
16, 127674, Note_on_c, 15, 53, 85
16, 127828, Note_off_c, 15, 53, 64
16, 127918, Note_on_c, 15, 51, 84
16, 128012, Note_off_c, 15, 51, 64
16, 128158, Note_on_c, 15, 49, 92
16, 128248, Note_off_c, 15, 49, 64
16, 128401, Note_on_c, 15, 56, 84
16, 128712, Note_off_c, 15, 56, 64
16, 128876, Note_on_c, 15, 44, 81
16, 128946, Note_off_c, 15, 44, 64
16, 129121, Note_on_c, 15, 37, 82
16, 130347, Note_off_c, 15, 37, 64
16, 134880, Note_on_c, 15, 54, 81
16, 134986, Note_off_c, 15, 54, 64
16, 135001, Note_on_c, 15, 53, 67
16, 135076, Note_off_c, 15, 53, 64
16, 135116, Note_on_c, 15, 54, 81
16, 135204, Note_off_c, 15, 54, 64
16, 135235, Note_on_c, 15, 56, 81
16, 135309, Note_off_c, 15, 56, 64
16, 135354, Note_on_c, 15, 58, 81
16, 135426, Note_off_c, 15, 58, 64
16, 135470, Note_on_c, 15, 59, 81
16, 135535, Note_off_c, 15, 59, 64
16, 135597, Note_on_c, 15, 61, 81
16, 135691, Note_off_c, 15, 61, 64
16, 135719, Note_on_c, 15, 63, 81
16, 135803, Note_off_c, 15, 63, 64
16, 135835, Note_on_c, 15, 61, 81
16, 135907, Note_off_c, 15, 61, 64
16, 135951, Note_on_c, 15, 59, 81
16, 136016, Note_off_c, 15, 59, 64
16, 136070, Note_on_c, 15, 58, 81
16, 136140, Note_off_c, 15, 58, 64
16, 136187, Note_on_c, 15, 56, 81
16, 136255, Note_off_c, 15, 56, 64
16, 136313, Note_on_c, 15, 54, 81
16, 136410, Note_off_c, 15, 54, 64
16, 136428, Note_on_c, 15, 53, 74
16, 136505, Note_off_c, 15, 53, 64
16, 136547, Note_on_c, 15, 54, 81
16, 136638, Note_off_c, 15, 54, 64
16, 136669, Note_on_c, 15, 56, 81
16, 136734, Note_off_c, 15, 56, 64
16, 136791, Note_on_c, 15, 58, 81
16, 136861, Note_off_c, 15, 58, 64
16, 136911, Note_on_c, 15, 54, 82
16, 136998, Note_off_c, 15, 54, 64
16, 137033, Note_on_c, 15, 59, 81
16, 137129, Note_off_c, 15, 59, 64
16, 137153, Note_on_c, 15, 61, 81
16, 137229, Note_off_c, 15, 61, 64
16, 137271, Note_on_c, 15, 59, 81
16, 137345, Note_off_c, 15, 59, 64
16, 137386, Note_on_c, 15, 58, 81
16, 137457, Note_off_c, 15, 58, 64
16, 137508, Note_on_c, 15, 56, 81
16, 137582, Note_off_c, 15, 56, 64
16, 137631, Note_on_c, 15, 54, 81
16, 137701, Note_off_c, 15, 54, 64
16, 137756, Note_on_c, 15, 53, 73
16, 137854, Note_off_c, 15, 53, 64
16, 137874, Note_on_c, 15, 51, 81
16, 137957, Note_off_c, 15, 51, 64
16, 137989, Note_on_c, 15, 53, 75
16, 138054, Note_off_c, 15, 53, 64
16, 138109, Note_on_c, 15, 54, 81
16, 138181, Note_off_c, 15, 54, 64
16, 138227, Note_on_c, 15, 56, 81
16, 138296, Note_off_c, 15, 56, 64
16, 138346, Note_on_c, 15, 53, 69
16, 138413, Note_off_c, 15, 53, 64
16, 138471, Note_on_c, 15, 58, 81
16, 138553, Note_off_c, 15, 58, 64
16, 138592, Note_on_c, 15, 60, 75
16, 138671, Note_off_c, 15, 60, 64
16, 138709, Note_on_c, 15, 58, 81
16, 138779, Note_off_c, 15, 58, 64
16, 138827, Note_on_c, 15, 56, 82
16, 138893, Note_off_c, 15, 56, 64
16, 138949, Note_on_c, 15, 54, 81
16, 139022, Note_off_c, 15, 54, 64
16, 139066, Note_on_c, 15, 53, 73
16, 139121, Note_off_c, 15, 53, 64
16, 139189, Note_on_c, 15, 51, 81
16, 139291, Note_off_c, 15, 51, 64
16, 139309, Note_on_c, 15, 49, 82
16, 139383, Note_off_c, 15, 49, 64
16, 139428, Note_on_c, 15, 51, 85
16, 139498, Note_off_c, 15, 51, 64
16, 139545, Note_on_c, 15, 53, 81
16, 139617, Note_off_c, 15, 53, 64
16, 139664, Note_on_c, 15, 54, 81
16, 139733, Note_off_c, 15, 54, 64
16, 139784, Note_on_c, 15, 51, 87
16, 139856, Note_off_c, 15, 51, 64
16, 139912, Note_on_c, 15, 56, 91
16, 140015, Note_off_c, 15, 56, 64
16, 140034, Note_on_c, 15, 58, 81
16, 140096, Note_off_c, 15, 58, 64
16, 140152, Note_on_c, 15, 56, 81
16, 140221, Note_off_c, 15, 56, 64
16, 140268, Note_on_c, 15, 54, 85
16, 140344, Note_off_c, 15, 54, 64
16, 140389, Note_on_c, 15, 53, 78
16, 140461, Note_off_c, 15, 53, 64
16, 140505, Note_on_c, 15, 51, 81
16, 140579, Note_off_c, 15, 51, 64
16, 140630, Note_on_c, 15, 49, 81
16, 140794, Note_off_c, 15, 49, 64
16, 141342, Note_on_c, 15, 44, 66
16, 141546, Note_off_c, 15, 44, 64
16, 142066, Note_on_c, 15, 37, 81
16, 142246, Note_off_c, 15, 37, 64
16, 142788, Note_on_c, 15, 44, 81
16, 142984, Note_off_c, 15, 44, 64
16, 143508, Note_on_c, 15, 49, 81
16, 143661, Note_off_c, 15, 49, 64
16, 143763, Note_on_c, 15, 53, 71
16, 143854, Note_off_c, 15, 53, 64
16, 143997, Note_on_c, 15, 56, 81
16, 144098, Note_off_c, 15, 56, 64
16, 144236, Note_on_c, 15, 44, 75
16, 144374, Note_off_c, 15, 44, 64
16, 144478, Note_on_c, 15, 51, 81
16, 144559, Note_off_c, 15, 51, 64
16, 144716, Note_on_c, 15, 56, 81
16, 144789, Note_off_c, 15, 56, 64
16, 144958, Note_on_c, 15, 49, 81
16, 145073, Note_on_c, 15, 48, 73
16, 145076, Note_off_c, 15, 49, 64
16, 145142, Note_off_c, 15, 48, 64
16, 145195, Note_on_c, 15, 49, 81
16, 145277, Note_off_c, 15, 49, 64
16, 145315, Note_on_c, 15, 51, 82
16, 145378, Note_off_c, 15, 51, 64
16, 145432, Note_on_c, 15, 53, 82
16, 145514, Note_off_c, 15, 53, 64
16, 145549, Note_on_c, 15, 54, 81
16, 145619, Note_off_c, 15, 54, 64
16, 145672, Note_on_c, 15, 56, 81
16, 145755, Note_off_c, 15, 56, 64
16, 145791, Note_on_c, 15, 58, 81
16, 145862, Note_off_c, 15, 58, 64
16, 145911, Note_on_c, 15, 56, 81
16, 145980, Note_off_c, 15, 56, 64
16, 146027, Note_on_c, 15, 54, 81
16, 146100, Note_off_c, 15, 54, 64
16, 146147, Note_on_c, 15, 53, 78
16, 146218, Note_off_c, 15, 53, 64
16, 146263, Note_on_c, 15, 51, 81
16, 146333, Note_off_c, 15, 51, 64
16, 146393, Note_on_c, 15, 49, 81
16, 146491, Note_off_c, 15, 49, 64
16, 146507, Note_on_c, 15, 48, 78
16, 146585, Note_off_c, 15, 48, 64
16, 146629, Note_on_c, 15, 49, 81
16, 146715, Note_off_c, 15, 49, 64
16, 146748, Note_on_c, 15, 51, 81
16, 146816, Note_off_c, 15, 51, 64
16, 146875, Note_on_c, 15, 53, 67
16, 146936, Note_off_c, 15, 53, 64
16, 146984, Note_on_c, 15, 49, 81
16, 147065, Note_off_c, 15, 49, 64
16, 147109, Note_on_c, 15, 54, 81
16, 147199, Note_off_c, 15, 54, 64
16, 147227, Note_on_c, 15, 56, 81
16, 147298, Note_off_c, 15, 56, 64
16, 147347, Note_on_c, 15, 54, 81
16, 147421, Note_off_c, 15, 54, 64
16, 147467, Note_on_c, 15, 53, 74
16, 147548, Note_off_c, 15, 53, 64
16, 147586, Note_on_c, 15, 51, 81
16, 147666, Note_off_c, 15, 51, 64
16, 147707, Note_on_c, 15, 49, 81
16, 147769, Note_off_c, 15, 49, 64
16, 147828, Note_on_c, 15, 48, 74
16, 147924, Note_off_c, 15, 48, 64
16, 147949, Note_on_c, 15, 46, 81
16, 148023, Note_off_c, 15, 46, 64
16, 148067, Note_on_c, 15, 48, 77
16, 148133, Note_off_c, 15, 48, 64
16, 148184, Note_on_c, 15, 49, 81
16, 148260, Note_off_c, 15, 49, 64
16, 148306, Note_on_c, 15, 51, 81
16, 148378, Note_off_c, 15, 51, 64
16, 148425, Note_on_c, 15, 48, 81
16, 148503, Note_off_c, 15, 48, 64
16, 148550, Note_on_c, 15, 53, 81
16, 148628, Note_off_c, 15, 53, 64
16, 148669, Note_on_c, 15, 54, 87
16, 148739, Note_off_c, 15, 54, 64
16, 148785, Note_on_c, 15, 53, 74
16, 148851, Note_off_c, 15, 53, 64
16, 148904, Note_on_c, 15, 51, 81
16, 148978, Note_off_c, 15, 51, 64
16, 149021, Note_on_c, 15, 49, 81
16, 149094, Note_off_c, 15, 49, 64
16, 149141, Note_on_c, 15, 48, 85
16, 149201, Note_off_c, 15, 48, 64
16, 149269, Note_on_c, 15, 46, 81
16, 149370, Note_off_c, 15, 46, 64
16, 149390, Note_on_c, 15, 44, 81
16, 149465, Note_off_c, 15, 44, 64
16, 149507, Note_on_c, 15, 46, 84
16, 149573, Note_off_c, 15, 46, 64
16, 149623, Note_on_c, 15, 48, 73
16, 149692, Note_off_c, 15, 48, 64
16, 149744, Note_on_c, 15, 49, 81
16, 149824, Note_off_c, 15, 49, 64
16, 149866, Note_on_c, 15, 46, 82
16, 149937, Note_off_c, 15, 46, 64
16, 149988, Note_on_c, 15, 51, 85
16, 150074, Note_off_c, 15, 51, 64
16, 150108, Note_on_c, 15, 53, 69
16, 150182, Note_off_c, 15, 53, 64
16, 150227, Note_on_c, 15, 51, 81
16, 150302, Note_off_c, 15, 51, 64
16, 150345, Note_on_c, 15, 49, 81
16, 150413, Note_off_c, 15, 49, 64
16, 150465, Note_on_c, 15, 48, 80
16, 150535, Note_off_c, 15, 48, 64
16, 150580, Note_on_c, 15, 46, 81
16, 150655, Note_off_c, 15, 46, 64
16, 150711, Note_on_c, 15, 44, 81
16, 150891, Note_off_c, 15, 44, 64
16, 150961, Note_on_c, 15, 44, 61
16, 151052, Note_off_c, 15, 44, 64
16, 151191, Note_on_c, 15, 44, 78
16, 151311, Note_off_c, 15, 44, 64
16, 151434, Note_on_c, 15, 44, 81
16, 151554, Note_off_c, 15, 44, 64
16, 151670, Note_on_c, 15, 44, 81
16, 151809, Note_off_c, 15, 44, 64
16, 151906, Note_on_c, 15, 44, 81
16, 152077, Note_off_c, 15, 44, 64
16, 152153, Note_on_c, 15, 44, 81
16, 152330, Note_off_c, 15, 44, 64
16, 152393, Note_on_c, 15, 44, 81
16, 152557, Note_off_c, 15, 44, 64
16, 152631, Note_on_c, 15, 44, 81
16, 152807, Note_off_c, 15, 44, 64
16, 152873, Note_on_c, 15, 44, 81
16, 153047, Note_off_c, 15, 44, 64
16, 153113, Note_on_c, 15, 44, 81
16, 153260, Note_off_c, 15, 44, 64
16, 153348, Note_on_c, 15, 44, 81
16, 153502, Note_off_c, 15, 44, 64
16, 153594, Note_on_c, 15, 44, 81
16, 153746, Note_off_c, 15, 44, 64
16, 153839, Note_on_c, 15, 44, 81
16, 153965, Note_off_c, 15, 44, 64
16, 154075, Note_on_c, 15, 44, 81
16, 154199, Note_off_c, 15, 44, 64
16, 154312, Note_on_c, 15, 44, 81
16, 154466, Note_off_c, 15, 44, 64
16, 154557, Note_on_c, 15, 44, 87
16, 154679, Note_off_c, 15, 44, 64
16, 154795, Note_on_c, 15, 44, 94
16, 154913, Note_off_c, 15, 44, 64
16, 155033, Note_on_c, 15, 44, 93
16, 155172, Note_off_c, 15, 44, 64
16, 155279, Note_on_c, 15, 44, 93
16, 155400, Note_off_c, 15, 44, 64
16, 155517, Note_on_c, 15, 44, 93
16, 155624, Note_off_c, 15, 44, 64
16, 155758, Note_on_c, 15, 44, 94
16, 155898, Note_off_c, 15, 44, 64
16, 155997, Note_on_c, 15, 44, 82
16, 156085, Note_off_c, 15, 44, 64
16, 156233, Note_on_c, 15, 44, 87
16, 156328, Note_off_c, 15, 44, 64
16, 156477, Note_on_c, 15, 44, 87
16, 156617, Note_off_c, 15, 44, 64
16, 156717, Note_on_c, 15, 48, 87
16, 156817, Note_off_c, 15, 48, 64
16, 156955, Note_on_c, 15, 51, 87
16, 157055, Note_off_c, 15, 51, 64
16, 157195, Note_on_c, 15, 48, 85
16, 157334, Note_off_c, 15, 48, 64
16, 157433, Note_on_c, 15, 51, 81
16, 157523, Note_off_c, 15, 51, 64
16, 157677, Note_on_c, 15, 56, 81
16, 157759, Note_off_c, 15, 56, 64
16, 157917, Note_on_c, 15, 49, 93
16, 158039, Note_off_c, 15, 49, 64
16, 158155, Note_on_c, 15, 53, 77
16, 158247, Note_off_c, 15, 53, 64
16, 158390, Note_on_c, 15, 56, 82
16, 158474, Note_off_c, 15, 56, 64
16, 158637, Note_on_c, 15, 53, 82
16, 158760, Note_off_c, 15, 53, 64
16, 158871, Note_on_c, 15, 56, 91
16, 158970, Note_off_c, 15, 56, 64
16, 159115, Note_on_c, 15, 61, 85
16, 159204, Note_off_c, 15, 61, 64
16, 159364, Note_on_c, 15, 42, 102
16, 159580, Note_off_c, 15, 42, 64
16, 160797, Note_on_c, 15, 54, 84
16, 161053, Note_off_c, 15, 54, 64
16, 162234, Note_on_c, 15, 53, 85
16, 162388, Note_off_c, 15, 53, 64
16, 162478, Note_on_c, 15, 51, 84
16, 162572, Note_off_c, 15, 51, 64
16, 162718, Note_on_c, 15, 49, 92
16, 162808, Note_off_c, 15, 49, 64
16, 162961, Note_on_c, 15, 56, 84
16, 163272, Note_off_c, 15, 56, 64
16, 163436, Note_on_c, 15, 44, 81
16, 163506, Note_off_c, 15, 44, 64
16, 163681, Note_on_c, 15, 37, 82
16, 164907, Note_off_c, 15, 37, 64
16, 165120, Note_on_c, 15, 49, 80
16, 165203, Note_off_c, 15, 49, 64
16, 165238, Note_on_c, 15, 48, 74
16, 165298, Note_off_c, 15, 48, 64
16, 165358, Note_on_c, 15, 49, 81
16, 165429, Note_off_c, 15, 49, 64
16, 165473, Note_on_c, 15, 51, 81
16, 165534, Note_off_c, 15, 51, 64
16, 165590, Note_on_c, 15, 53, 84
16, 165649, Note_off_c, 15, 53, 64
16, 165709, Note_on_c, 15, 54, 81
16, 165785, Note_off_c, 15, 54, 64
16, 165831, Note_on_c, 15, 56, 81
16, 165898, Note_off_c, 15, 56, 64
16, 165952, Note_on_c, 15, 58, 81
16, 166020, Note_off_c, 15, 58, 64
16, 166072, Note_on_c, 15, 56, 81
16, 166136, Note_off_c, 15, 56, 64
16, 166198, Note_on_c, 15, 54, 81
16, 166253, Note_off_c, 15, 54, 64
16, 166316, Note_on_c, 15, 53, 72
16, 166365, Note_off_c, 15, 53, 64
16, 166435, Note_on_c, 15, 51, 81
16, 166491, Note_off_c, 15, 51, 64
16, 166556, Note_on_c, 15, 53, 87
16, 166623, Note_off_c, 15, 53, 64
16, 166679, Note_on_c, 15, 56, 81
16, 166735, Note_off_c, 15, 56, 64
16, 166795, Note_on_c, 15, 54, 81
16, 166860, Note_off_c, 15, 54, 64
16, 166913, Note_on_c, 15, 53, 78
16, 166976, Note_off_c, 15, 53, 64
16, 167032, Note_on_c, 15, 51, 81
16, 167102, Note_off_c, 15, 51, 64
16, 167152, Note_on_c, 15, 49, 81
16, 167221, Note_off_c, 15, 49, 64
16, 167274, Note_on_c, 15, 48, 91
16, 167350, Note_off_c, 15, 48, 64
16, 167394, Note_on_c, 15, 51, 81
16, 167460, Note_off_c, 15, 51, 64
16, 167515, Note_on_c, 15, 49, 81
16, 167583, Note_off_c, 15, 49, 64
16, 167634, Note_on_c, 15, 48, 80
16, 167705, Note_off_c, 15, 48, 64
16, 167756, Note_on_c, 15, 46, 81
16, 167826, Note_off_c, 15, 46, 64
16, 167879, Note_on_c, 15, 44, 81
16, 167942, Note_off_c, 15, 44, 64
16, 167997, Note_on_c, 15, 51, 81
16, 168103, Note_off_c, 15, 51, 64
16, 168241, Note_on_c, 15, 54, 82
16, 168330, Note_off_c, 15, 54, 64
16, 168473, Note_on_c, 15, 58, 81
16, 168562, Note_off_c, 15, 58, 64
16, 168722, Note_on_c, 15, 50, 99
16, 168825, Note_off_c, 15, 50, 64
16, 168957, Note_on_c, 15, 53, 78
16, 169049, Note_off_c, 15, 53, 64
16, 169199, Note_on_c, 15, 58, 84
16, 169296, Note_off_c, 15, 58, 64
16, 169437, Note_on_c, 15, 51, 84
16, 169534, Note_off_c, 15, 51, 64
16, 169676, Note_on_c, 15, 54, 81
16, 169763, Note_off_c, 15, 54, 64
16, 169917, Note_on_c, 15, 58, 81
16, 170002, Note_off_c, 15, 58, 64
16, 170158, Note_on_c, 15, 46, 81
16, 170268, Note_off_c, 15, 46, 64
16, 170395, Note_on_c, 15, 53, 74
16, 170479, Note_off_c, 15, 53, 64
16, 170638, Note_on_c, 15, 58, 81
16, 170706, Note_off_c, 15, 58, 64
16, 170877, Note_on_c, 15, 42, 59
16, 171066, Note_off_c, 15, 42, 64
16, 171599, Note_on_c, 15, 44, 72
16, 171765, Note_off_c, 15, 44, 64
16, 172310, Note_on_c, 15, 46, 81
16, 172516, Note_off_c, 15, 46, 64
16, 173033, Note_on_c, 15, 47, 80
16, 173232, Note_off_c, 15, 47, 64
16, 173758, Note_on_c, 15, 42, 72
16, 173968, Note_off_c, 15, 42, 64
16, 174477, Note_on_c, 15, 44, 81
16, 174693, Note_off_c, 15, 44, 64
16, 175196, Note_on_c, 15, 46, 81
16, 175323, Note_off_c, 15, 46, 64
16, 175437, Note_on_c, 15, 44, 81
16, 175527, Note_off_c, 15, 44, 64
16, 175684, Note_on_c, 15, 46, 81
16, 175760, Note_off_c, 15, 46, 64
16, 175922, Note_on_c, 15, 39, 101
16, 176057, Note_off_c, 15, 39, 64
16, 176159, Note_on_c, 15, 42, 81
16, 176237, Note_off_c, 15, 42, 64
16, 176399, Note_on_c, 15, 46, 81
16, 176465, Note_off_c, 15, 46, 64
16, 176637, Note_on_c, 15, 51, 69
16, 176874, Note_off_c, 15, 51, 64
16, 180960, Note_on_c, 15, 51, 63
16, 181059, Note_off_c, 15, 51, 64
16, 181084, Note_on_c, 15, 50, 63
16, 181144, Note_off_c, 15, 50, 64
16, 181200, Note_on_c, 15, 51, 81
16, 181276, Note_off_c, 15, 51, 64
16, 181315, Note_on_c, 15, 53, 69
16, 181375, Note_off_c, 15, 53, 64
16, 181433, Note_on_c, 15, 54, 81
16, 181511, Note_off_c, 15, 54, 64
16, 181553, Note_on_c, 15, 56, 81
16, 181625, Note_off_c, 15, 56, 64
16, 181677, Note_on_c, 15, 58, 81
16, 181758, Note_off_c, 15, 58, 64
16, 181795, Note_on_c, 15, 59, 81
16, 181865, Note_off_c, 15, 59, 64
16, 181914, Note_on_c, 15, 58, 81
16, 181973, Note_off_c, 15, 58, 64
16, 182032, Note_on_c, 15, 56, 81
16, 182098, Note_off_c, 15, 56, 64
16, 182153, Note_on_c, 15, 54, 81
16, 182220, Note_off_c, 15, 54, 64
16, 182271, Note_on_c, 15, 53, 73
16, 182329, Note_off_c, 15, 53, 64
16, 182393, Note_on_c, 15, 51, 81
16, 182483, Note_off_c, 15, 51, 64
16, 182512, Note_on_c, 15, 50, 78
16, 182572, Note_off_c, 15, 50, 64
16, 182630, Note_on_c, 15, 51, 81
16, 182708, Note_off_c, 15, 51, 64
16, 182751, Note_on_c, 15, 53, 69
16, 182818, Note_off_c, 15, 53, 64
16, 182873, Note_on_c, 15, 54, 81
16, 182938, Note_off_c, 15, 54, 64
16, 182992, Note_on_c, 15, 51, 81
16, 183069, Note_off_c, 15, 51, 64
16, 183116, Note_on_c, 15, 56, 82
16, 183192, Note_off_c, 15, 56, 64
16, 183235, Note_on_c, 15, 58, 81
16, 183301, Note_off_c, 15, 58, 64
16, 183353, Note_on_c, 15, 56, 81
16, 183416, Note_off_c, 15, 56, 64
16, 183471, Note_on_c, 15, 54, 81
16, 183536, Note_off_c, 15, 54, 64
16, 183591, Note_on_c, 15, 53, 81
16, 183644, Note_off_c, 15, 53, 64
16, 183708, Note_on_c, 15, 51, 81
16, 183770, Note_off_c, 15, 51, 64
16, 183829, Note_on_c, 15, 49, 81
16, 183920, Note_off_c, 15, 49, 64
16, 183953, Note_on_c, 15, 48, 81
16, 184013, Note_off_c, 15, 48, 64
16, 184072, Note_on_c, 15, 49, 81
16, 184146, Note_off_c, 15, 49, 64
16, 184189, Note_on_c, 15, 51, 81
16, 184252, Note_off_c, 15, 51, 64
16, 184311, Note_on_c, 15, 53, 80
16, 184372, Note_off_c, 15, 53, 64
16, 184432, Note_on_c, 15, 49, 81
16, 184500, Note_off_c, 15, 49, 64
16, 184552, Note_on_c, 15, 54, 81
16, 184633, Note_off_c, 15, 54, 64
16, 184674, Note_on_c, 15, 56, 81
16, 184734, Note_off_c, 15, 56, 64
16, 184791, Note_on_c, 15, 54, 81
16, 184859, Note_off_c, 15, 54, 64
16, 184909, Note_on_c, 15, 53, 80
16, 184982, Note_off_c, 15, 53, 64
16, 185027, Note_on_c, 15, 51, 81
16, 185101, Note_off_c, 15, 51, 64
16, 185154, Note_on_c, 15, 49, 81
16, 185212, Note_off_c, 15, 49, 64
16, 185275, Note_on_c, 15, 48, 84
16, 185338, Note_off_c, 15, 48, 64
16, 185393, Note_on_c, 15, 46, 82
16, 185454, Note_off_c, 15, 46, 64
16, 185511, Note_on_c, 15, 48, 82
16, 185582, Note_off_c, 15, 48, 64
16, 185628, Note_on_c, 15, 49, 81
16, 185698, Note_off_c, 15, 49, 64
16, 185752, Note_on_c, 15, 51, 81
16, 185809, Note_off_c, 15, 51, 64
16, 185873, Note_on_c, 15, 48, 80
16, 185938, Note_off_c, 15, 48, 64
16, 185992, Note_on_c, 15, 53, 84
16, 186074, Note_off_c, 15, 53, 64
16, 186114, Note_on_c, 15, 54, 82
16, 186174, Note_off_c, 15, 54, 64
16, 186229, Note_on_c, 15, 53, 84
16, 186293, Note_off_c, 15, 53, 64
16, 186346, Note_on_c, 15, 51, 81
16, 186417, Note_off_c, 15, 51, 64
16, 186466, Note_on_c, 15, 49, 81
16, 186539, Note_off_c, 15, 49, 64
16, 186589, Note_on_c, 15, 48, 84
16, 186647, Note_off_c, 15, 48, 64
16, 186713, Note_on_c, 15, 46, 81
16, 186906, Note_off_c, 15, 46, 64
16, 187441, Note_on_c, 15, 41, 73
16, 187602, Note_off_c, 15, 41, 64
16, 188156, Note_on_c, 15, 46, 81
16, 188352, Note_off_c, 15, 46, 64
16, 188874, Note_on_c, 15, 53, 69
16, 189048, Note_off_c, 15, 53, 64
16, 189596, Note_on_c, 15, 46, 81
16, 189713, Note_off_c, 15, 46, 64
16, 189841, Note_on_c, 15, 49, 81
16, 189928, Note_off_c, 15, 49, 64
16, 190070, Note_on_c, 15, 53, 71
16, 190153, Note_off_c, 15, 53, 64
16, 190313, Note_on_c, 15, 45, 71
16, 190424, Note_off_c, 15, 45, 64
16, 190560, Note_on_c, 15, 48, 81
16, 190628, Note_off_c, 15, 48, 64
16, 190798, Note_on_c, 15, 53, 71
16, 190853, Note_off_c, 15, 53, 64
16, 191040, Note_on_c, 15, 46, 81
16, 191146, Note_off_c, 15, 46, 64
16, 191158, Note_on_c, 15, 45, 91
16, 191221, Note_off_c, 15, 45, 64
16, 191275, Note_on_c, 15, 46, 91
16, 191354, Note_off_c, 15, 46, 64
16, 191393, Note_on_c, 15, 48, 95
16, 191461, Note_off_c, 15, 48, 64
16, 191511, Note_on_c, 15, 49, 81
16, 191588, Note_off_c, 15, 49, 64
16, 191632, Note_on_c, 15, 51, 88
16, 191708, Note_off_c, 15, 51, 64
16, 191756, Note_on_c, 15, 53, 107
16, 191837, Note_off_c, 15, 53, 64
16, 191872, Note_on_c, 15, 54, 85
16, 191949, Note_off_c, 15, 54, 64
16, 191993, Note_on_c, 15, 53, 85
16, 192050, Note_off_c, 15, 53, 64
16, 192114, Note_on_c, 15, 51, 81
16, 192184, Note_off_c, 15, 51, 64
16, 192230, Note_on_c, 15, 49, 85
16, 192307, Note_off_c, 15, 49, 64
16, 192347, Note_on_c, 15, 48, 87
16, 192422, Note_off_c, 15, 48, 64
16, 192473, Note_on_c, 15, 46, 94
16, 192563, Note_off_c, 15, 46, 64
16, 192591, Note_on_c, 15, 45, 84
16, 192679, Note_off_c, 15, 45, 64
16, 192711, Note_on_c, 15, 46, 82
16, 192795, Note_off_c, 15, 46, 64
16, 192832, Note_on_c, 15, 48, 93
16, 192887, Note_off_c, 15, 48, 64
16, 192957, Note_on_c, 15, 49, 85
16, 193029, Note_off_c, 15, 49, 64
16, 193074, Note_on_c, 15, 46, 89
16, 193145, Note_off_c, 15, 46, 64
16, 193197, Note_on_c, 15, 51, 101
16, 193302, Note_off_c, 15, 51, 64
16, 193314, Note_on_c, 15, 53, 89
16, 193366, Note_off_c, 15, 53, 64
16, 193432, Note_on_c, 15, 51, 84
16, 193510, Note_off_c, 15, 51, 64
16, 193549, Note_on_c, 15, 49, 82
16, 193626, Note_off_c, 15, 49, 64
16, 193670, Note_on_c, 15, 48, 95
16, 193725, Note_off_c, 15, 48, 64
16, 193784, Note_on_c, 15, 46, 81
16, 193853, Note_off_c, 15, 46, 64
16, 193911, Note_on_c, 15, 44, 89
16, 194006, Note_off_c, 15, 44, 64
16, 194033, Note_on_c, 15, 43, 85
16, 194095, Note_off_c, 15, 43, 64
16, 194153, Note_on_c, 15, 44, 81
16, 194231, Note_off_c, 15, 44, 64
16, 194270, Note_on_c, 15, 46, 89
16, 194342, Note_off_c, 15, 46, 64
16, 194390, Note_on_c, 15, 48, 93
16, 194464, Note_off_c, 15, 48, 64
16, 194509, Note_on_c, 15, 44, 85
16, 194587, Note_off_c, 15, 44, 64
16, 194633, Note_on_c, 15, 49, 94
16, 194731, Note_off_c, 15, 49, 64
16, 194751, Note_on_c, 15, 51, 81
16, 194852, Note_off_c, 15, 51, 64
16, 194873, Note_on_c, 15, 49, 81
16, 194948, Note_off_c, 15, 49, 64
16, 194989, Note_on_c, 15, 48, 85
16, 195046, Note_off_c, 15, 48, 64
16, 195109, Note_on_c, 15, 46, 81
16, 195187, Note_off_c, 15, 46, 64
16, 195226, Note_on_c, 15, 44, 81
16, 195313, Note_off_c, 15, 44, 64
16, 195351, Note_on_c, 15, 42, 102
16, 195434, Note_off_c, 15, 42, 64
16, 195469, Note_on_c, 15, 41, 85
16, 195543, Note_off_c, 15, 41, 64
16, 195588, Note_on_c, 15, 42, 82
16, 195659, Note_off_c, 15, 42, 64
16, 195705, Note_on_c, 15, 44, 84
16, 195781, Note_off_c, 15, 44, 64
16, 195829, Note_on_c, 15, 46, 81
16, 195891, Note_off_c, 15, 46, 64
16, 195948, Note_on_c, 15, 42, 78
16, 196014, Note_off_c, 15, 42, 64
16, 196071, Note_on_c, 15, 48, 107
16, 196159, Note_off_c, 15, 48, 64
16, 196192, Note_on_c, 15, 49, 81
16, 196259, Note_off_c, 15, 49, 64
16, 196307, Note_on_c, 15, 48, 75
16, 196377, Note_off_c, 15, 48, 64
16, 196422, Note_on_c, 15, 46, 81
16, 196507, Note_off_c, 15, 46, 64
16, 196545, Note_on_c, 15, 45, 72
16, 196637, Note_off_c, 15, 45, 64
16, 196665, Note_on_c, 15, 43, 72
16, 196735, Note_off_c, 15, 43, 64
16, 196795, Note_on_c, 15, 41, 75
16, 196894, Note_off_c, 15, 41, 64
16, 197028, Note_on_c, 15, 41, 71
16, 197159, Note_off_c, 15, 41, 64
16, 197271, Note_on_c, 15, 41, 74
16, 197409, Note_off_c, 15, 41, 64
16, 197514, Note_on_c, 15, 41, 75
16, 197624, Note_off_c, 15, 41, 64
16, 197755, Note_on_c, 15, 41, 71
16, 197884, Note_off_c, 15, 41, 64
16, 197997, Note_on_c, 15, 41, 74
16, 198111, Note_off_c, 15, 41, 64
16, 198233, Note_on_c, 15, 41, 87
16, 198358, Note_off_c, 15, 41, 64
16, 198469, Note_on_c, 15, 41, 69
16, 198600, Note_off_c, 15, 41, 64
16, 198713, Note_on_c, 15, 41, 75
16, 198836, Note_off_c, 15, 41, 64
16, 198954, Note_on_c, 15, 41, 91
16, 199094, Note_off_c, 15, 41, 64
16, 199202, Note_on_c, 15, 41, 78
16, 199313, Note_off_c, 15, 41, 64
16, 199435, Note_on_c, 15, 41, 75
16, 199549, Note_off_c, 15, 41, 64
16, 199673, Note_on_c, 15, 41, 117
16, 199788, Note_off_c, 15, 41, 64
16, 199915, Note_on_c, 15, 41, 72
16, 200009, Note_off_c, 15, 41, 64
16, 200152, Note_on_c, 15, 41, 73
16, 200262, Note_off_c, 15, 41, 64
16, 200393, Note_on_c, 15, 41, 107
16, 200524, Note_off_c, 15, 41, 64
16, 200637, Note_on_c, 15, 41, 71
16, 200740, Note_off_c, 15, 41, 64
16, 200874, Note_on_c, 15, 41, 80
16, 200983, Note_off_c, 15, 41, 64
16, 201115, Note_on_c, 15, 41, 112
16, 201226, Note_off_c, 15, 41, 64
16, 201357, Note_on_c, 15, 41, 73
16, 201450, Note_off_c, 15, 41, 64
16, 201591, Note_on_c, 15, 41, 73
16, 201687, Note_off_c, 15, 41, 64
16, 201835, Note_on_c, 15, 41, 99
16, 201951, Note_off_c, 15, 41, 64
16, 202074, Note_on_c, 15, 41, 74
16, 202169, Note_off_c, 15, 41, 64
16, 202312, Note_on_c, 15, 41, 80
16, 202403, Note_off_c, 15, 41, 64
16, 202560, Note_on_c, 15, 41, 107
16, 202670, Note_off_c, 15, 41, 64
16, 202797, Note_on_c, 15, 45, 80
16, 202875, Note_off_c, 15, 45, 64
16, 203035, Note_on_c, 15, 48, 89
16, 203105, Note_off_c, 15, 48, 64
16, 203278, Note_on_c, 15, 45, 102
16, 203384, Note_off_c, 15, 45, 64
16, 203517, Note_on_c, 15, 48, 95
16, 203583, Note_off_c, 15, 48, 64
16, 203753, Note_on_c, 15, 53, 91
16, 203822, Note_off_c, 15, 53, 64
16, 203997, Note_on_c, 15, 46, 106
16, 204124, Note_off_c, 15, 46, 64
16, 204243, Note_on_c, 15, 50, 99
16, 204324, Note_off_c, 15, 50, 64
16, 204480, Note_on_c, 15, 53, 95
16, 204551, Note_off_c, 15, 53, 64
16, 204720, Note_on_c, 15, 50, 117
16, 204834, Note_off_c, 15, 50, 64
16, 204960, Note_on_c, 15, 53, 99
16, 205030, Note_off_c, 15, 53, 64
16, 205197, Note_on_c, 15, 58, 94
16, 205280, Note_off_c, 15, 58, 64
16, 205441, Note_on_c, 15, 39, 115
16, 205729, Note_off_c, 15, 39, 64
16, 206881, Note_on_c, 15, 51, 81
16, 207132, Note_off_c, 15, 51, 64
16, 208319, Note_on_c, 15, 49, 109
16, 208457, Note_off_c, 15, 49, 64
16, 208568, Note_on_c, 15, 48, 87
16, 208628, Note_off_c, 15, 48, 64
16, 208802, Note_on_c, 15, 46, 87
16, 208877, Note_off_c, 15, 46, 64
16, 209038, Note_on_c, 15, 53, 99
16, 209275, Note_off_c, 15, 53, 64
16, 209517, Note_on_c, 15, 41, 99
16, 209602, Note_off_c, 15, 41, 64
16, 209757, Note_on_c, 15, 46, 81
16, 209896, Note_off_c, 15, 46, 64
16, 210003, Note_on_c, 15, 49, 101
16, 210081, Note_off_c, 15, 49, 64
16, 210241, Note_on_c, 15, 53, 102
16, 210325, Note_off_c, 15, 53, 64
16, 210475, Note_on_c, 15, 58, 89
16, 210683, Note_off_c, 15, 58, 64
16, 210719, Note_on_c, 15, 56, 91
16, 210782, Note_off_c, 15, 56, 64
16, 210833, Note_on_c, 15, 54, 82
16, 210903, Note_off_c, 15, 54, 64
16, 210951, Note_on_c, 15, 53, 89
16, 211014, Note_off_c, 15, 53, 64
16, 211069, Note_on_c, 15, 51, 81
16, 211144, Note_off_c, 15, 51, 64
16, 211200, Note_on_c, 15, 50, 95
16, 211291, Note_off_c, 15, 50, 64
16, 211437, Note_on_c, 15, 53, 72
16, 211500, Note_off_c, 15, 53, 64
16, 211670, Note_on_c, 15, 58, 81
16, 211743, Note_off_c, 15, 58, 64
16, 211913, Note_on_c, 15, 46, 81
16, 212039, Note_off_c, 15, 46, 64
16, 212153, Note_on_c, 15, 53, 73
16, 212224, Note_off_c, 15, 53, 64
16, 212389, Note_on_c, 15, 58, 81
16, 212479, Note_off_c, 15, 58, 64
16, 212632, Note_on_c, 15, 51, 87
16, 212776, Note_off_c, 15, 51, 64
16, 212873, Note_on_c, 15, 54, 93
16, 212960, Note_off_c, 15, 54, 64
16, 213110, Note_on_c, 15, 58, 96
16, 213198, Note_off_c, 15, 58, 64
16, 213347, Note_on_c, 15, 63, 109
16, 213565, Note_off_c, 15, 63, 64
16, 213595, Note_on_c, 15, 61, 93
16, 213687, Note_off_c, 15, 61, 64
16, 213712, Note_on_c, 15, 59, 87
16, 213801, Note_off_c, 15, 59, 64
16, 213829, Note_on_c, 15, 58, 91
16, 213899, Note_off_c, 15, 58, 64
16, 213946, Note_on_c, 15, 56, 84
16, 214024, Note_off_c, 15, 56, 64
16, 214071, Note_on_c, 15, 55, 102
16, 214205, Note_off_c, 15, 55, 64
16, 214315, Note_on_c, 15, 58, 92
16, 214402, Note_off_c, 15, 58, 64
16, 214556, Note_on_c, 15, 63, 81
16, 214652, Note_off_c, 15, 63, 64
16, 214806, Note_on_c, 15, 51, 101
16, 214931, Note_off_c, 15, 51, 64
16, 215046, Note_on_c, 15, 58, 98
16, 215142, Note_off_c, 15, 58, 64
16, 215279, Note_on_c, 15, 63, 94
16, 215376, Note_off_c, 15, 63, 64
16, 215515, Note_on_c, 15, 44, 102
16, 215636, Note_off_c, 15, 44, 64
16, 215755, Note_on_c, 15, 47, 106
16, 215854, Note_off_c, 15, 47, 64
16, 215995, Note_on_c, 15, 51, 91
16, 216092, Note_off_c, 15, 51, 64
16, 216240, Note_on_c, 15, 56, 112
16, 216340, Note_off_c, 15, 56, 64
16, 216356, Note_on_c, 15, 58, 96
16, 216411, Note_off_c, 15, 58, 64
16, 216471, Note_on_c, 15, 56, 94
16, 216538, Note_off_c, 15, 56, 64
16, 216588, Note_on_c, 15, 54, 92
16, 216656, Note_off_c, 15, 54, 64
16, 216709, Note_on_c, 15, 52, 94
16, 216773, Note_off_c, 15, 52, 64
16, 216827, Note_on_c, 15, 51, 94
16, 216883, Note_off_c, 15, 51, 64
16, 216952, Note_on_c, 15, 49, 94
16, 217084, Note_off_c, 15, 49, 64
16, 217191, Note_on_c, 15, 56, 87
16, 217257, Note_off_c, 15, 56, 64
16, 217431, Note_on_c, 15, 61, 87
16, 217496, Note_off_c, 15, 61, 64
16, 217675, Note_on_c, 15, 54, 81
16, 217811, Note_off_c, 15, 54, 64
16, 217922, Note_on_c, 15, 49, 118
16, 217994, Note_off_c, 15, 49, 64
16, 218160, Note_on_c, 15, 42, 112
16, 218223, Note_off_c, 15, 42, 64
16, 218398, Note_on_c, 15, 47, 118
16, 218543, Note_off_c, 15, 47, 64
16, 218643, Note_on_c, 15, 54, 89
16, 218695, Note_off_c, 15, 54, 64
16, 218878, Note_on_c, 15, 59, 91
16, 218942, Note_off_c, 15, 59, 64
16, 219115, Note_on_c, 15, 52, 87
16, 219264, Note_off_c, 15, 52, 64
16, 219356, Note_on_c, 15, 47, 120
16, 219438, Note_off_c, 15, 47, 64
16, 219591, Note_on_c, 15, 40, 109
16, 219661, Note_off_c, 15, 40, 64
16, 219840, Note_on_c, 15, 52, 49
16, 220043, Note_off_c, 15, 52, 64
16, 220560, Note_on_c, 15, 51, 61
16, 220774, Note_off_c, 15, 51, 64
16, 221283, Note_on_c, 15, 49, 81
16, 221488, Note_off_c, 15, 49, 64
16, 221995, Note_on_c, 15, 47, 81
16, 222187, Note_off_c, 15, 47, 64
16, 222715, Note_on_c, 15, 46, 92
16, 222829, Note_off_c, 15, 46, 64
16, 222955, Note_on_c, 15, 49, 92
16, 223033, Note_off_c, 15, 49, 64
16, 223194, Note_on_c, 15, 54, 101
16, 223287, Note_off_c, 15, 54, 64
16, 223432, Note_on_c, 15, 47, 118
16, 223549, Note_off_c, 15, 47, 64
16, 223674, Note_on_c, 15, 51, 106
16, 223757, Note_off_c, 15, 51, 64
16, 223911, Note_on_c, 15, 54, 101
16, 224011, Note_off_c, 15, 54, 64
16, 224163, Note_on_c, 15, 46, 118
16, 224247, Note_off_c, 15, 46, 64
16, 224276, Note_on_c, 15, 49, 101
16, 224358, Note_off_c, 15, 49, 64
16, 224397, Note_on_c, 15, 42, 96
16, 224467, Note_off_c, 15, 42, 64
16, 224516, Note_on_c, 15, 49, 101
16, 224579, Note_off_c, 15, 49, 64
16, 224635, Note_on_c, 15, 46, 102
16, 224712, Note_off_c, 15, 46, 64
16, 224753, Note_on_c, 15, 49, 106
16, 224812, Note_off_c, 15, 49, 64
16, 224878, Note_on_c, 15, 47, 115
16, 224976, Note_off_c, 15, 47, 64
16, 224996, Note_on_c, 15, 51, 94
16, 225073, Note_off_c, 15, 51, 64
16, 225115, Note_on_c, 15, 42, 98
16, 225188, Note_off_c, 15, 42, 64
16, 225240, Note_on_c, 15, 51, 106
16, 225306, Note_off_c, 15, 51, 64
16, 225357, Note_on_c, 15, 47, 94
16, 225423, Note_off_c, 15, 47, 64
16, 225471, Note_on_c, 15, 51, 101
16, 225557, Note_off_c, 15, 51, 64
16, 225600, Note_on_c, 15, 41, 121
16, 225718, Note_off_c, 15, 41, 64
16, 225839, Note_on_c, 15, 41, 89
16, 225915, Note_off_c, 15, 41, 64
16, 226075, Note_on_c, 15, 41, 80
16, 226148, Note_off_c, 15, 41, 64
16, 226319, Note_on_c, 15, 41, 89
16, 226381, Note_off_c, 15, 41, 64
16, 226556, Note_on_c, 15, 41, 78
16, 226611, Note_off_c, 15, 41, 64
16, 226795, Note_on_c, 15, 41, 84
16, 226852, Note_off_c, 15, 41, 64
16, 227042, Note_on_c, 15, 40, 121
16, 227179, Note_off_c, 15, 40, 64
16, 227285, Note_on_c, 15, 40, 84
16, 227347, Note_off_c, 15, 40, 64
16, 227515, Note_on_c, 15, 40, 81
16, 227572, Note_off_c, 15, 40, 64
16, 227753, Note_on_c, 15, 40, 81
16, 227816, Note_off_c, 15, 40, 64
16, 227994, Note_on_c, 15, 40, 81
16, 228054, Note_off_c, 15, 40, 64
16, 228232, Note_on_c, 15, 40, 81
16, 228297, Note_off_c, 15, 40, 64
16, 228476, Note_on_c, 15, 39, 75
16, 228656, Note_off_c, 15, 39, 64
16, 229194, Note_on_c, 15, 40, 45
16, 229386, Note_off_c, 15, 40, 64
16, 229915, Note_on_c, 15, 42, 48
16, 230136, Note_off_c, 15, 42, 64
16, 230635, Note_on_c, 15, 44, 63
16, 230874, Note_off_c, 15, 44, 64
16, 231365, Note_on_c, 15, 39, 64
16, 231604, Note_off_c, 15, 39, 64
16, 232081, Note_on_c, 15, 40, 71
16, 232318, Note_off_c, 15, 40, 64
16, 232798, Note_on_c, 15, 42, 84
16, 232933, Note_off_c, 15, 42, 64
16, 233042, Note_on_c, 15, 40, 101
16, 233153, Note_off_c, 15, 40, 64
16, 233283, Note_on_c, 15, 42, 89
16, 233360, Note_off_c, 15, 42, 64
16, 233528, Note_on_c, 15, 35, 81
16, 233832, Note_off_c, 15, 35, 64
16, 233993, Note_on_c, 15, 37, 81
16, 234075, Note_off_c, 15, 37, 64
16, 234241, Note_on_c, 15, 39, 98
16, 234349, Note_off_c, 15, 39, 64
16, 234479, Note_on_c, 15, 37, 96
16, 234584, Note_off_c, 15, 37, 64
16, 234723, Note_on_c, 15, 35, 96
16, 234822, Note_off_c, 15, 35, 64
16, 234962, Note_on_c, 15, 42, 93
16, 235085, Note_off_c, 15, 42, 64
16, 235205, Note_on_c, 15, 44, 98
16, 235305, Note_off_c, 15, 44, 64
16, 235439, Note_on_c, 15, 46, 96
16, 235538, Note_off_c, 15, 46, 64
16, 235688, Note_on_c, 15, 47, 82
16, 235914, Note_off_c, 15, 47, 64
16, 236395, Note_on_c, 15, 54, 81
16, 236637, Note_off_c, 15, 54, 64
16, 237116, Note_on_c, 15, 47, 81
16, 237347, Note_off_c, 15, 47, 64
16, 237841, Note_on_c, 15, 42, 84
16, 238073, Note_off_c, 15, 42, 64
16, 238555, Note_on_c, 15, 47, 112
16, 238632, Note_off_c, 15, 47, 64
16, 238676, Note_on_c, 15, 46, 102
16, 238745, Note_off_c, 15, 46, 64
16, 238794, Note_on_c, 15, 47, 115
16, 238859, Note_off_c, 15, 47, 64
16, 238911, Note_on_c, 15, 49, 102
16, 238979, Note_off_c, 15, 49, 64
16, 239031, Note_on_c, 15, 51, 102
16, 239089, Note_off_c, 15, 51, 64
16, 239150, Note_on_c, 15, 52, 96
16, 239210, Note_off_c, 15, 52, 64
16, 239273, Note_on_c, 15, 54, 112
16, 239355, Note_off_c, 15, 54, 64
16, 239394, Note_on_c, 15, 56, 82
16, 239452, Note_off_c, 15, 56, 64
16, 239513, Note_on_c, 15, 54, 87
16, 239565, Note_off_c, 15, 54, 64
16, 239633, Note_on_c, 15, 52, 92
16, 239684, Note_off_c, 15, 52, 64
16, 239753, Note_on_c, 15, 51, 92
16, 239809, Note_off_c, 15, 51, 64
16, 239873, Note_on_c, 15, 49, 87
16, 239928, Note_off_c, 15, 49, 64
16, 239996, Note_on_c, 15, 47, 118
16, 240087, Note_off_c, 15, 47, 64
16, 240116, Note_on_c, 15, 46, 84
16, 240186, Note_off_c, 15, 46, 64
16, 240235, Note_on_c, 15, 47, 109
16, 240304, Note_off_c, 15, 47, 64
16, 240355, Note_on_c, 15, 49, 101
16, 240420, Note_off_c, 15, 49, 64
16, 240478, Note_on_c, 15, 51, 87
16, 240536, Note_off_c, 15, 51, 64
16, 240592, Note_on_c, 15, 47, 88
16, 240657, Note_off_c, 15, 47, 64
16, 240711, Note_on_c, 15, 53, 117
16, 240789, Note_off_c, 15, 53, 64
16, 240833, Note_on_c, 15, 54, 101
16, 240903, Note_off_c, 15, 54, 64
16, 240952, Note_on_c, 15, 53, 93
16, 241013, Note_off_c, 15, 53, 64
16, 241071, Note_on_c, 15, 51, 88
16, 241141, Note_off_c, 15, 51, 64
16, 241190, Note_on_c, 15, 49, 96
16, 241265, Note_off_c, 15, 49, 64
16, 241311, Note_on_c, 15, 47, 102
16, 241376, Note_off_c, 15, 47, 64
16, 241434, Note_on_c, 15, 46, 115
16, 241527, Note_off_c, 15, 46, 64
16, 241550, Note_on_c, 15, 44, 87
16, 241628, Note_off_c, 15, 44, 64
16, 241670, Note_on_c, 15, 46, 98
16, 241741, Note_off_c, 15, 46, 64
16, 241787, Note_on_c, 15, 47, 98
16, 241854, Note_off_c, 15, 47, 64
16, 241907, Note_on_c, 15, 49, 92
16, 241978, Note_off_c, 15, 49, 64
16, 242026, Note_on_c, 15, 46, 92
16, 242103, Note_off_c, 15, 46, 64
16, 242155, Note_on_c, 15, 51, 112
16, 242241, Note_off_c, 15, 51, 64
16, 242272, Note_on_c, 15, 53, 95
16, 242327, Note_off_c, 15, 53, 64
16, 242390, Note_on_c, 15, 51, 96
16, 242470, Note_off_c, 15, 51, 64
16, 242504, Note_on_c, 15, 49, 91
16, 242577, Note_off_c, 15, 49, 64
16, 242628, Note_on_c, 15, 47, 102
16, 242701, Note_off_c, 15, 47, 64
16, 242746, Note_on_c, 15, 46, 93
16, 242820, Note_off_c, 15, 46, 64
16, 242874, Note_on_c, 15, 44, 96
16, 242961, Note_off_c, 15, 44, 64
16, 242993, Note_on_c, 15, 42, 93
16, 243068, Note_off_c, 15, 42, 64
16, 243112, Note_on_c, 15, 44, 87
16, 243189, Note_off_c, 15, 44, 64
16, 243229, Note_on_c, 15, 46, 91
16, 243302, Note_off_c, 15, 46, 64
16, 243346, Note_on_c, 15, 47, 93
16, 243425, Note_off_c, 15, 47, 64
16, 243467, Note_on_c, 15, 44, 93
16, 243539, Note_off_c, 15, 44, 64
16, 243592, Note_on_c, 15, 49, 109
16, 243688, Note_off_c, 15, 49, 64
16, 243716, Note_on_c, 15, 51, 82
16, 243784, Note_off_c, 15, 51, 64
16, 243836, Note_on_c, 15, 49, 88
16, 243910, Note_off_c, 15, 49, 64
16, 243950, Note_on_c, 15, 47, 87
16, 244020, Note_off_c, 15, 47, 64
16, 244069, Note_on_c, 15, 46, 94
16, 244131, Note_off_c, 15, 46, 64
16, 244184, Note_on_c, 15, 44, 87
16, 244251, Note_off_c, 15, 44, 64
16, 244311, Note_on_c, 15, 42, 87
16, 244538, Note_off_c, 15, 42, 64
16, 245027, Note_on_c, 15, 37, 81
16, 245227, Note_off_c, 15, 37, 64
16, 245753, Note_on_c, 15, 42, 81
16, 245947, Note_off_c, 15, 42, 64
16, 246474, Note_on_c, 15, 49, 81
16, 246644, Note_off_c, 15, 49, 64
16, 247195, Note_on_c, 15, 54, 115
16, 247338, Note_off_c, 15, 54, 64
16, 247435, Note_on_c, 15, 58, 115
16, 247508, Note_off_c, 15, 58, 64
16, 247675, Note_on_c, 15, 61, 106
16, 247760, Note_off_c, 15, 61, 64
16, 247915, Note_on_c, 15, 49, 107
16, 248034, Note_off_c, 15, 49, 64
16, 248157, Note_on_c, 15, 56, 94
16, 248234, Note_off_c, 15, 56, 64
16, 248397, Note_on_c, 15, 61, 93
16, 248484, Note_off_c, 15, 61, 64
16, 248640, Note_on_c, 15, 42, 101
16, 248732, Note_off_c, 15, 42, 64
16, 248761, Note_on_c, 15, 41, 95
16, 248817, Note_off_c, 15, 41, 64
16, 248877, Note_on_c, 15, 42, 81
16, 248951, Note_off_c, 15, 42, 64
16, 248994, Note_on_c, 15, 44, 87
16, 249055, Note_off_c, 15, 44, 64
16, 249112, Note_on_c, 15, 46, 93
16, 249164, Note_off_c, 15, 46, 64
16, 249227, Note_on_c, 15, 47, 87
16, 249290, Note_off_c, 15, 47, 64
16, 249354, Note_on_c, 15, 49, 98
16, 249442, Note_off_c, 15, 49, 64
16, 249475, Note_on_c, 15, 51, 82
16, 249540, Note_off_c, 15, 51, 64
16, 249594, Note_on_c, 15, 49, 85
16, 249662, Note_off_c, 15, 49, 64
16, 249712, Note_on_c, 15, 47, 96
16, 249771, Note_off_c, 15, 47, 64
16, 249819, Note_on_c, 15, 25, 57
16, 249834, Note_on_c, 15, 46, 96
16, 249860, Note_off_c, 15, 25, 64
16, 249903, Note_off_c, 15, 46, 64
16, 249951, Note_on_c, 15, 44, 89
16, 250019, Note_off_c, 15, 44, 64
16, 250073, Note_on_c, 15, 42, 101
16, 250169, Note_off_c, 15, 42, 64
16, 250193, Note_on_c, 15, 41, 95
16, 250254, Note_off_c, 15, 41, 64
16, 250309, Note_on_c, 15, 42, 81
16, 250382, Note_off_c, 15, 42, 64
16, 250427, Note_on_c, 15, 44, 93
16, 250495, Note_off_c, 15, 44, 64
16, 250547, Note_on_c, 15, 46, 93
16, 250614, Note_off_c, 15, 46, 64
16, 250666, Note_on_c, 15, 42, 88
16, 250752, Note_off_c, 15, 42, 64
16, 250797, Note_on_c, 15, 47, 117
16, 250872, Note_off_c, 15, 47, 64
16, 250912, Note_on_c, 15, 49, 88
16, 250975, Note_off_c, 15, 49, 64
16, 251032, Note_on_c, 15, 47, 91
16, 251101, Note_off_c, 15, 47, 64
16, 251151, Note_on_c, 15, 46, 98
16, 251214, Note_off_c, 15, 46, 64
16, 251267, Note_on_c, 15, 44, 87
16, 251342, Note_off_c, 15, 44, 64
16, 251385, Note_on_c, 15, 42, 89
16, 251452, Note_off_c, 15, 42, 64
16, 251510, Note_on_c, 15, 41, 112
16, 251597, Note_off_c, 15, 41, 64
16, 251629, Note_on_c, 15, 39, 87
16, 251706, Note_off_c, 15, 39, 64
16, 251750, Note_on_c, 15, 41, 107
16, 251813, Note_off_c, 15, 41, 64
16, 251869, Note_on_c, 15, 42, 82
16, 251936, Note_off_c, 15, 42, 64
16, 251989, Note_on_c, 15, 44, 87
16, 252053, Note_off_c, 15, 44, 64
16, 252109, Note_on_c, 15, 41, 102
16, 252163, Note_off_c, 15, 41, 64
16, 252233, Note_on_c, 15, 46, 112
16, 252325, Note_off_c, 15, 46, 64
16, 252354, Note_on_c, 15, 47, 81
16, 252429, Note_off_c, 15, 47, 64
16, 252472, Note_on_c, 15, 46, 93
16, 252539, Note_off_c, 15, 46, 64
16, 252591, Note_on_c, 15, 44, 94
16, 252652, Note_off_c, 15, 44, 64
16, 252707, Note_on_c, 15, 42, 85
16, 252790, Note_off_c, 15, 42, 64
16, 252830, Note_on_c, 15, 41, 102
16, 252883, Note_off_c, 15, 41, 64
16, 252953, Note_on_c, 15, 39, 96
16, 253041, Note_off_c, 15, 39, 64
16, 253071, Note_on_c, 15, 37, 91
16, 253147, Note_off_c, 15, 37, 64
16, 253190, Note_on_c, 15, 39, 101
16, 253259, Note_off_c, 15, 39, 64
16, 253309, Note_on_c, 15, 41, 95
16, 253374, Note_off_c, 15, 41, 64
16, 253429, Note_on_c, 15, 42, 88
16, 253494, Note_off_c, 15, 42, 64
16, 253547, Note_on_c, 15, 39, 101
16, 253610, Note_off_c, 15, 39, 64
16, 253672, Note_on_c, 15, 44, 109
16, 253761, Note_off_c, 15, 44, 64
16, 253791, Note_on_c, 15, 46, 81
16, 253849, Note_off_c, 15, 46, 64
16, 253910, Note_on_c, 15, 44, 82
16, 253971, Note_off_c, 15, 44, 64
16, 254029, Note_on_c, 15, 42, 89
16, 254090, Note_off_c, 15, 42, 64
16, 254150, Note_on_c, 15, 41, 91
16, 254214, Note_off_c, 15, 41, 64
16, 254267, Note_on_c, 15, 39, 81
16, 254336, Note_off_c, 15, 39, 64
16, 254397, Note_on_c, 15, 37, 102
16, 254495, Note_off_c, 15, 37, 64
16, 254631, Note_on_c, 15, 37, 81
16, 254703, Note_off_c, 15, 37, 64
16, 254871, Note_on_c, 15, 37, 81
16, 254942, Note_off_c, 15, 37, 64
16, 255108, Note_on_c, 15, 37, 81
16, 255205, Note_off_c, 15, 37, 64
16, 255350, Note_on_c, 15, 37, 81
16, 255451, Note_off_c, 15, 37, 64
16, 255590, Note_on_c, 15, 37, 81
16, 255722, Note_off_c, 15, 37, 64
16, 255837, Note_on_c, 15, 37, 81
16, 255942, Note_off_c, 15, 37, 64
16, 256071, Note_on_c, 15, 37, 81
16, 256184, Note_off_c, 15, 37, 64
16, 256313, Note_on_c, 15, 37, 81
16, 256421, Note_off_c, 15, 37, 64
16, 256550, Note_on_c, 15, 37, 81
16, 256669, Note_off_c, 15, 37, 64
16, 256794, Note_on_c, 15, 37, 81
16, 256899, Note_off_c, 15, 37, 64
16, 257035, Note_on_c, 15, 37, 81
16, 257144, Note_off_c, 15, 37, 64
16, 257273, Note_on_c, 15, 37, 81
16, 257392, Note_off_c, 15, 37, 64
16, 257512, Note_on_c, 15, 37, 81
16, 257611, Note_off_c, 15, 37, 64
16, 257751, Note_on_c, 15, 37, 81
16, 257864, Note_off_c, 15, 37, 64
16, 257995, Note_on_c, 15, 37, 81
16, 258107, Note_off_c, 15, 37, 64
16, 258233, Note_on_c, 15, 37, 81
16, 258333, Note_off_c, 15, 37, 64
16, 258473, Note_on_c, 15, 37, 85
16, 258578, Note_off_c, 15, 37, 64
16, 258718, Note_on_c, 15, 37, 92
16, 258837, Note_off_c, 15, 37, 64
16, 258962, Note_on_c, 15, 37, 93
16, 259064, Note_off_c, 15, 37, 64
16, 259198, Note_on_c, 15, 37, 96
16, 259307, Note_off_c, 15, 37, 64
16, 259438, Note_on_c, 15, 37, 98
16, 259552, Note_off_c, 15, 37, 64
16, 259673, Note_on_c, 15, 37, 92
16, 259772, Note_off_c, 15, 37, 64
16, 259909, Note_on_c, 15, 37, 98
16, 260003, Note_off_c, 15, 37, 64
16, 260153, Note_on_c, 15, 37, 109
16, 260304, Note_off_c, 15, 37, 64
16, 260399, Note_on_c, 15, 41, 102
16, 260504, Note_off_c, 15, 41, 64
16, 260637, Note_on_c, 15, 44, 96
16, 260729, Note_off_c, 15, 44, 64
16, 260874, Note_on_c, 15, 41, 99
16, 260991, Note_off_c, 15, 41, 64
16, 261115, Note_on_c, 15, 44, 98
16, 261224, Note_off_c, 15, 44, 64
16, 261357, Note_on_c, 15, 49, 101
16, 261465, Note_off_c, 15, 49, 64
16, 261597, Note_on_c, 15, 42, 106
16, 261732, Note_off_c, 15, 42, 64
16, 261838, Note_on_c, 15, 46, 102
16, 261930, Note_off_c, 15, 46, 64
16, 262076, Note_on_c, 15, 49, 92
16, 262169, Note_off_c, 15, 49, 64
16, 262313, Note_on_c, 15, 46, 87
16, 262441, Note_off_c, 15, 46, 64
16, 262554, Note_on_c, 15, 49, 101
16, 262628, Note_off_c, 15, 49, 64
16, 262788, Note_on_c, 15, 54, 101
16, 262868, Note_off_c, 15, 54, 64
16, 263039, Note_on_c, 15, 35, 102
16, 263291, Note_off_c, 15, 35, 64
16, 264474, Note_on_c, 15, 47, 91
16, 264748, Note_off_c, 15, 47, 64
16, 265910, Note_on_c, 15, 46, 118
16, 266030, Note_off_c, 15, 46, 64
16, 266156, Note_on_c, 15, 44, 85
16, 266220, Note_off_c, 15, 44, 64
16, 266399, Note_on_c, 15, 42, 89
16, 266470, Note_off_c, 15, 42, 64
16, 266639, Note_on_c, 15, 49, 88
16, 266879, Note_off_c, 15, 49, 64
16, 267114, Note_on_c, 15, 37, 88
16, 267174, Note_off_c, 15, 37, 64
16, 267354, Note_on_c, 15, 42, 81
16, 268690, Note_off_c, 15, 42, 64
16, 268800, Note_on_c, 15, 49, 80
16, 268883, Note_off_c, 15, 49, 64
16, 268918, Note_on_c, 15, 48, 74
16, 268978, Note_off_c, 15, 48, 64
16, 269038, Note_on_c, 15, 49, 81
16, 269109, Note_off_c, 15, 49, 64
16, 269153, Note_on_c, 15, 51, 81
16, 269214, Note_off_c, 15, 51, 64
16, 269270, Note_on_c, 15, 53, 84
16, 269329, Note_off_c, 15, 53, 64
16, 269389, Note_on_c, 15, 54, 81
16, 269465, Note_off_c, 15, 54, 64
16, 269511, Note_on_c, 15, 56, 81
16, 269578, Note_off_c, 15, 56, 64
16, 269632, Note_on_c, 15, 58, 81
16, 269700, Note_off_c, 15, 58, 64
16, 269752, Note_on_c, 15, 56, 81
16, 269816, Note_off_c, 15, 56, 64
16, 269878, Note_on_c, 15, 54, 81
16, 269933, Note_off_c, 15, 54, 64
16, 269996, Note_on_c, 15, 53, 72
16, 270045, Note_off_c, 15, 53, 64
16, 270115, Note_on_c, 15, 51, 81
16, 270171, Note_off_c, 15, 51, 64
16, 270236, Note_on_c, 15, 53, 87
16, 270303, Note_off_c, 15, 53, 64
16, 270359, Note_on_c, 15, 56, 81
16, 270415, Note_off_c, 15, 56, 64
16, 270475, Note_on_c, 15, 54, 81
16, 270540, Note_off_c, 15, 54, 64
16, 270593, Note_on_c, 15, 53, 78
16, 270656, Note_off_c, 15, 53, 64
16, 270712, Note_on_c, 15, 51, 81
16, 270782, Note_off_c, 15, 51, 64
16, 270832, Note_on_c, 15, 49, 81
16, 270901, Note_off_c, 15, 49, 64
16, 270954, Note_on_c, 15, 48, 91
16, 271030, Note_off_c, 15, 48, 64
16, 271074, Note_on_c, 15, 51, 81
16, 271140, Note_off_c, 15, 51, 64
16, 271195, Note_on_c, 15, 49, 81
16, 271263, Note_off_c, 15, 49, 64
16, 271314, Note_on_c, 15, 48, 80
16, 271385, Note_off_c, 15, 48, 64
16, 271436, Note_on_c, 15, 46, 81
16, 271506, Note_off_c, 15, 46, 64
16, 271559, Note_on_c, 15, 44, 81
16, 271622, Note_off_c, 15, 44, 64
16, 271677, Note_on_c, 15, 51, 81
16, 271783, Note_off_c, 15, 51, 64
16, 271921, Note_on_c, 15, 54, 82
16, 272010, Note_off_c, 15, 54, 64
16, 272153, Note_on_c, 15, 58, 81
16, 272242, Note_off_c, 15, 58, 64
16, 272402, Note_on_c, 15, 50, 99
16, 272505, Note_off_c, 15, 50, 64
16, 272637, Note_on_c, 15, 53, 78
16, 272729, Note_off_c, 15, 53, 64
16, 272879, Note_on_c, 15, 58, 84
16, 272976, Note_off_c, 15, 58, 64
16, 273117, Note_on_c, 15, 51, 84
16, 273214, Note_off_c, 15, 51, 64
16, 273356, Note_on_c, 15, 54, 81
16, 273443, Note_off_c, 15, 54, 64
16, 273597, Note_on_c, 15, 58, 81
16, 273682, Note_off_c, 15, 58, 64
16, 273838, Note_on_c, 15, 46, 81
16, 273948, Note_off_c, 15, 46, 64
16, 274075, Note_on_c, 15, 53, 74
16, 274159, Note_off_c, 15, 53, 64
16, 274318, Note_on_c, 15, 58, 81
16, 274386, Note_off_c, 15, 58, 64
16, 274557, Note_on_c, 15, 42, 59
16, 274746, Note_off_c, 15, 42, 64
16, 275279, Note_on_c, 15, 44, 72
16, 275445, Note_off_c, 15, 44, 64
16, 275990, Note_on_c, 15, 46, 81
16, 276196, Note_off_c, 15, 46, 64
16, 276713, Note_on_c, 15, 47, 80
16, 276912, Note_off_c, 15, 47, 64
16, 277438, Note_on_c, 15, 42, 72
16, 277648, Note_off_c, 15, 42, 64
16, 278157, Note_on_c, 15, 44, 81
16, 278373, Note_off_c, 15, 44, 64
16, 278876, Note_on_c, 15, 46, 81
16, 279003, Note_off_c, 15, 46, 64
16, 279117, Note_on_c, 15, 44, 81
16, 279207, Note_off_c, 15, 44, 64
16, 279364, Note_on_c, 15, 46, 81
16, 279440, Note_off_c, 15, 46, 64
16, 279602, Note_on_c, 15, 39, 101
16, 279737, Note_off_c, 15, 39, 64
16, 279839, Note_on_c, 15, 42, 81
16, 279917, Note_off_c, 15, 42, 64
16, 280079, Note_on_c, 15, 46, 81
16, 280145, Note_off_c, 15, 46, 64
16, 280317, Note_on_c, 15, 51, 69
16, 280554, Note_off_c, 15, 51, 64
16, 284640, Note_on_c, 15, 51, 63
16, 284739, Note_off_c, 15, 51, 64
16, 284764, Note_on_c, 15, 50, 63
16, 284824, Note_off_c, 15, 50, 64
16, 284880, Note_on_c, 15, 51, 81
16, 284956, Note_off_c, 15, 51, 64
16, 284995, Note_on_c, 15, 53, 69
16, 285055, Note_off_c, 15, 53, 64
16, 285113, Note_on_c, 15, 54, 81
16, 285191, Note_off_c, 15, 54, 64
16, 285233, Note_on_c, 15, 56, 81
16, 285305, Note_off_c, 15, 56, 64
16, 285357, Note_on_c, 15, 58, 81
16, 285438, Note_off_c, 15, 58, 64
16, 285475, Note_on_c, 15, 59, 81
16, 285545, Note_off_c, 15, 59, 64
16, 285594, Note_on_c, 15, 58, 81
16, 285653, Note_off_c, 15, 58, 64
16, 285712, Note_on_c, 15, 56, 81
16, 285778, Note_off_c, 15, 56, 64
16, 285833, Note_on_c, 15, 54, 81
16, 285900, Note_off_c, 15, 54, 64
16, 285951, Note_on_c, 15, 53, 73
16, 286009, Note_off_c, 15, 53, 64
16, 286073, Note_on_c, 15, 51, 81
16, 286163, Note_off_c, 15, 51, 64
16, 286192, Note_on_c, 15, 50, 78
16, 286252, Note_off_c, 15, 50, 64
16, 286310, Note_on_c, 15, 51, 81
16, 286388, Note_off_c, 15, 51, 64
16, 286431, Note_on_c, 15, 53, 69
16, 286498, Note_off_c, 15, 53, 64
16, 286553, Note_on_c, 15, 54, 81
16, 286618, Note_off_c, 15, 54, 64
16, 286672, Note_on_c, 15, 51, 81
16, 286749, Note_off_c, 15, 51, 64
16, 286796, Note_on_c, 15, 56, 82
16, 286872, Note_off_c, 15, 56, 64
16, 286915, Note_on_c, 15, 58, 81
16, 286981, Note_off_c, 15, 58, 64
16, 287033, Note_on_c, 15, 56, 81
16, 287096, Note_off_c, 15, 56, 64
16, 287151, Note_on_c, 15, 54, 81
16, 287216, Note_off_c, 15, 54, 64
16, 287271, Note_on_c, 15, 53, 81
16, 287324, Note_off_c, 15, 53, 64
16, 287388, Note_on_c, 15, 51, 81
16, 287450, Note_off_c, 15, 51, 64
16, 287509, Note_on_c, 15, 49, 81
16, 287600, Note_off_c, 15, 49, 64
16, 287633, Note_on_c, 15, 48, 81
16, 287693, Note_off_c, 15, 48, 64
16, 287752, Note_on_c, 15, 49, 81
16, 287826, Note_off_c, 15, 49, 64
16, 287869, Note_on_c, 15, 51, 81
16, 287932, Note_off_c, 15, 51, 64
16, 287991, Note_on_c, 15, 53, 80
16, 288052, Note_off_c, 15, 53, 64
16, 288112, Note_on_c, 15, 49, 81
16, 288180, Note_off_c, 15, 49, 64
16, 288232, Note_on_c, 15, 54, 81
16, 288313, Note_off_c, 15, 54, 64
16, 288354, Note_on_c, 15, 56, 81
16, 288414, Note_off_c, 15, 56, 64
16, 288471, Note_on_c, 15, 54, 81
16, 288539, Note_off_c, 15, 54, 64
16, 288589, Note_on_c, 15, 53, 80
16, 288662, Note_off_c, 15, 53, 64
16, 288707, Note_on_c, 15, 51, 81
16, 288781, Note_off_c, 15, 51, 64
16, 288834, Note_on_c, 15, 49, 81
16, 288892, Note_off_c, 15, 49, 64
16, 288955, Note_on_c, 15, 48, 84
16, 289018, Note_off_c, 15, 48, 64
16, 289073, Note_on_c, 15, 46, 82
16, 289134, Note_off_c, 15, 46, 64
16, 289191, Note_on_c, 15, 48, 82
16, 289262, Note_off_c, 15, 48, 64
16, 289308, Note_on_c, 15, 49, 81
16, 289378, Note_off_c, 15, 49, 64
16, 289432, Note_on_c, 15, 51, 81
16, 289489, Note_off_c, 15, 51, 64
16, 289553, Note_on_c, 15, 48, 80
16, 289618, Note_off_c, 15, 48, 64
16, 289672, Note_on_c, 15, 53, 84
16, 289754, Note_off_c, 15, 53, 64
16, 289794, Note_on_c, 15, 54, 82
16, 289854, Note_off_c, 15, 54, 64
16, 289909, Note_on_c, 15, 53, 84
16, 289973, Note_off_c, 15, 53, 64
16, 290026, Note_on_c, 15, 51, 81
16, 290097, Note_off_c, 15, 51, 64
16, 290146, Note_on_c, 15, 49, 81
16, 290219, Note_off_c, 15, 49, 64
16, 290269, Note_on_c, 15, 48, 84
16, 290327, Note_off_c, 15, 48, 64
16, 290393, Note_on_c, 15, 46, 81
16, 290586, Note_off_c, 15, 46, 64
16, 291121, Note_on_c, 15, 41, 73
16, 291282, Note_off_c, 15, 41, 64
16, 291836, Note_on_c, 15, 46, 81
16, 292032, Note_off_c, 15, 46, 64
16, 292554, Note_on_c, 15, 53, 69
16, 292728, Note_off_c, 15, 53, 64
16, 293276, Note_on_c, 15, 46, 81
16, 293393, Note_off_c, 15, 46, 64
16, 293521, Note_on_c, 15, 49, 81
16, 293608, Note_off_c, 15, 49, 64
16, 293750, Note_on_c, 15, 53, 71
16, 293833, Note_off_c, 15, 53, 64
16, 293993, Note_on_c, 15, 45, 71
16, 294104, Note_off_c, 15, 45, 64
16, 294240, Note_on_c, 15, 48, 81
16, 294308, Note_off_c, 15, 48, 64
16, 294478, Note_on_c, 15, 53, 71
16, 294533, Note_off_c, 15, 53, 64
16, 294720, Note_on_c, 15, 46, 81
16, 294826, Note_off_c, 15, 46, 64
16, 294838, Note_on_c, 15, 45, 91
16, 294901, Note_off_c, 15, 45, 64
16, 294955, Note_on_c, 15, 46, 91
16, 295034, Note_off_c, 15, 46, 64
16, 295073, Note_on_c, 15, 48, 95
16, 295141, Note_off_c, 15, 48, 64
16, 295191, Note_on_c, 15, 49, 81
16, 295268, Note_off_c, 15, 49, 64
16, 295312, Note_on_c, 15, 51, 88
16, 295388, Note_off_c, 15, 51, 64
16, 295436, Note_on_c, 15, 53, 107
16, 295517, Note_off_c, 15, 53, 64
16, 295552, Note_on_c, 15, 54, 85
16, 295629, Note_off_c, 15, 54, 64
16, 295673, Note_on_c, 15, 53, 85
16, 295730, Note_off_c, 15, 53, 64
16, 295794, Note_on_c, 15, 51, 81
16, 295864, Note_off_c, 15, 51, 64
16, 295910, Note_on_c, 15, 49, 85
16, 295987, Note_off_c, 15, 49, 64
16, 296027, Note_on_c, 15, 48, 87
16, 296102, Note_off_c, 15, 48, 64
16, 296153, Note_on_c, 15, 46, 94
16, 296243, Note_off_c, 15, 46, 64
16, 296271, Note_on_c, 15, 45, 84
16, 296359, Note_off_c, 15, 45, 64
16, 296391, Note_on_c, 15, 46, 82
16, 296475, Note_off_c, 15, 46, 64
16, 296512, Note_on_c, 15, 48, 93
16, 296567, Note_off_c, 15, 48, 64
16, 296637, Note_on_c, 15, 49, 85
16, 296709, Note_off_c, 15, 49, 64
16, 296754, Note_on_c, 15, 46, 89
16, 296825, Note_off_c, 15, 46, 64
16, 296877, Note_on_c, 15, 51, 101
16, 296982, Note_off_c, 15, 51, 64
16, 296994, Note_on_c, 15, 53, 89
16, 297046, Note_off_c, 15, 53, 64
16, 297112, Note_on_c, 15, 51, 84
16, 297190, Note_off_c, 15, 51, 64
16, 297229, Note_on_c, 15, 49, 82
16, 297306, Note_off_c, 15, 49, 64
16, 297350, Note_on_c, 15, 48, 95
16, 297405, Note_off_c, 15, 48, 64
16, 297464, Note_on_c, 15, 46, 81
16, 297533, Note_off_c, 15, 46, 64
16, 297591, Note_on_c, 15, 44, 89
16, 297686, Note_off_c, 15, 44, 64
16, 297713, Note_on_c, 15, 43, 85
16, 297775, Note_off_c, 15, 43, 64
16, 297833, Note_on_c, 15, 44, 81
16, 297911, Note_off_c, 15, 44, 64
16, 297950, Note_on_c, 15, 46, 89
16, 298022, Note_off_c, 15, 46, 64
16, 298070, Note_on_c, 15, 48, 93
16, 298144, Note_off_c, 15, 48, 64
16, 298189, Note_on_c, 15, 44, 85
16, 298267, Note_off_c, 15, 44, 64
16, 298313, Note_on_c, 15, 49, 94
16, 298411, Note_off_c, 15, 49, 64
16, 298431, Note_on_c, 15, 51, 81
16, 298532, Note_off_c, 15, 51, 64
16, 298553, Note_on_c, 15, 49, 81
16, 298628, Note_off_c, 15, 49, 64
16, 298669, Note_on_c, 15, 48, 85
16, 298726, Note_off_c, 15, 48, 64
16, 298789, Note_on_c, 15, 46, 81
16, 298867, Note_off_c, 15, 46, 64
16, 298906, Note_on_c, 15, 44, 81
16, 298993, Note_off_c, 15, 44, 64
16, 299031, Note_on_c, 15, 42, 102
16, 299114, Note_off_c, 15, 42, 64
16, 299149, Note_on_c, 15, 41, 85
16, 299223, Note_off_c, 15, 41, 64
16, 299268, Note_on_c, 15, 42, 82
16, 299339, Note_off_c, 15, 42, 64
16, 299385, Note_on_c, 15, 44, 84
16, 299461, Note_off_c, 15, 44, 64
16, 299509, Note_on_c, 15, 46, 81
16, 299571, Note_off_c, 15, 46, 64
16, 299628, Note_on_c, 15, 42, 78
16, 299694, Note_off_c, 15, 42, 64
16, 299751, Note_on_c, 15, 48, 107
16, 299839, Note_off_c, 15, 48, 64
16, 299872, Note_on_c, 15, 49, 81
16, 299939, Note_off_c, 15, 49, 64
16, 299987, Note_on_c, 15, 48, 75
16, 300057, Note_off_c, 15, 48, 64
16, 300102, Note_on_c, 15, 46, 81
16, 300187, Note_off_c, 15, 46, 64
16, 300225, Note_on_c, 15, 45, 72
16, 300317, Note_off_c, 15, 45, 64
16, 300345, Note_on_c, 15, 43, 72
16, 300415, Note_off_c, 15, 43, 64
16, 300475, Note_on_c, 15, 41, 75
16, 300574, Note_off_c, 15, 41, 64
16, 300708, Note_on_c, 15, 41, 71
16, 300839, Note_off_c, 15, 41, 64
16, 300951, Note_on_c, 15, 41, 74
16, 301089, Note_off_c, 15, 41, 64
16, 301194, Note_on_c, 15, 41, 75
16, 301304, Note_off_c, 15, 41, 64
16, 301435, Note_on_c, 15, 41, 71
16, 301564, Note_off_c, 15, 41, 64
16, 301677, Note_on_c, 15, 41, 74
16, 301791, Note_off_c, 15, 41, 64
16, 301913, Note_on_c, 15, 41, 87
16, 302038, Note_off_c, 15, 41, 64
16, 302149, Note_on_c, 15, 41, 69
16, 302280, Note_off_c, 15, 41, 64
16, 302393, Note_on_c, 15, 41, 75
16, 302516, Note_off_c, 15, 41, 64
16, 302634, Note_on_c, 15, 41, 91
16, 302774, Note_off_c, 15, 41, 64
16, 302882, Note_on_c, 15, 41, 78
16, 302993, Note_off_c, 15, 41, 64
16, 303115, Note_on_c, 15, 41, 75
16, 303229, Note_off_c, 15, 41, 64
16, 303353, Note_on_c, 15, 41, 117
16, 303468, Note_off_c, 15, 41, 64
16, 303595, Note_on_c, 15, 41, 72
16, 303689, Note_off_c, 15, 41, 64
16, 303832, Note_on_c, 15, 41, 73
16, 303942, Note_off_c, 15, 41, 64
16, 304073, Note_on_c, 15, 41, 107
16, 304204, Note_off_c, 15, 41, 64
16, 304317, Note_on_c, 15, 41, 71
16, 304420, Note_off_c, 15, 41, 64
16, 304554, Note_on_c, 15, 41, 80
16, 304663, Note_off_c, 15, 41, 64
16, 304795, Note_on_c, 15, 41, 112
16, 304906, Note_off_c, 15, 41, 64
16, 305037, Note_on_c, 15, 41, 73
16, 305130, Note_off_c, 15, 41, 64
16, 305271, Note_on_c, 15, 41, 73
16, 305367, Note_off_c, 15, 41, 64
16, 305515, Note_on_c, 15, 41, 99
16, 305631, Note_off_c, 15, 41, 64
16, 305754, Note_on_c, 15, 41, 74
16, 305849, Note_off_c, 15, 41, 64
16, 305992, Note_on_c, 15, 41, 80
16, 306083, Note_off_c, 15, 41, 64
16, 306240, Note_on_c, 15, 41, 107
16, 306350, Note_off_c, 15, 41, 64
16, 306477, Note_on_c, 15, 45, 80
16, 306555, Note_off_c, 15, 45, 64
16, 306715, Note_on_c, 15, 48, 89
16, 306785, Note_off_c, 15, 48, 64
16, 306958, Note_on_c, 15, 45, 102
16, 307064, Note_off_c, 15, 45, 64
16, 307197, Note_on_c, 15, 48, 95
16, 307263, Note_off_c, 15, 48, 64
16, 307433, Note_on_c, 15, 53, 91
16, 307502, Note_off_c, 15, 53, 64
16, 307677, Note_on_c, 15, 46, 106
16, 307804, Note_off_c, 15, 46, 64
16, 307923, Note_on_c, 15, 50, 99
16, 308004, Note_off_c, 15, 50, 64
16, 308160, Note_on_c, 15, 53, 95
16, 308231, Note_off_c, 15, 53, 64
16, 308400, Note_on_c, 15, 50, 117
16, 308514, Note_off_c, 15, 50, 64
16, 308640, Note_on_c, 15, 53, 99
16, 308710, Note_off_c, 15, 53, 64
16, 308877, Note_on_c, 15, 58, 94
16, 308960, Note_off_c, 15, 58, 64
16, 309121, Note_on_c, 15, 39, 115
16, 309409, Note_off_c, 15, 39, 64
16, 310561, Note_on_c, 15, 51, 81
16, 310812, Note_off_c, 15, 51, 64
16, 311999, Note_on_c, 15, 49, 109
16, 312137, Note_off_c, 15, 49, 64
16, 312248, Note_on_c, 15, 48, 87
16, 312308, Note_off_c, 15, 48, 64
16, 312482, Note_on_c, 15, 46, 87
16, 312557, Note_off_c, 15, 46, 64
16, 312718, Note_on_c, 15, 53, 99
16, 312955, Note_off_c, 15, 53, 64
16, 313197, Note_on_c, 15, 41, 99
16, 313282, Note_off_c, 15, 41, 64
16, 313437, Note_on_c, 15, 46, 81
16, 313576, Note_off_c, 15, 46, 64
16, 313683, Note_on_c, 15, 49, 101
16, 313761, Note_off_c, 15, 49, 64
16, 313921, Note_on_c, 15, 53, 102
16, 314005, Note_off_c, 15, 53, 64
16, 314155, Note_on_c, 15, 58, 89
16, 314363, Note_off_c, 15, 58, 64
16, 314399, Note_on_c, 15, 56, 91
16, 314462, Note_off_c, 15, 56, 64
16, 314513, Note_on_c, 15, 54, 82
16, 314583, Note_off_c, 15, 54, 64
16, 314631, Note_on_c, 15, 53, 89
16, 314694, Note_off_c, 15, 53, 64
16, 314749, Note_on_c, 15, 51, 81
16, 314824, Note_off_c, 15, 51, 64
16, 314880, Note_on_c, 15, 50, 95
16, 314971, Note_off_c, 15, 50, 64
16, 315117, Note_on_c, 15, 53, 72
16, 315180, Note_off_c, 15, 53, 64
16, 315350, Note_on_c, 15, 58, 81
16, 315423, Note_off_c, 15, 58, 64
16, 315593, Note_on_c, 15, 46, 81
16, 315719, Note_off_c, 15, 46, 64
16, 315833, Note_on_c, 15, 53, 73
16, 315904, Note_off_c, 15, 53, 64
16, 316069, Note_on_c, 15, 58, 81
16, 316159, Note_off_c, 15, 58, 64
16, 316312, Note_on_c, 15, 51, 87
16, 316456, Note_off_c, 15, 51, 64
16, 316553, Note_on_c, 15, 54, 93
16, 316640, Note_off_c, 15, 54, 64
16, 316790, Note_on_c, 15, 58, 96
16, 316878, Note_off_c, 15, 58, 64
16, 317027, Note_on_c, 15, 63, 109
16, 317245, Note_off_c, 15, 63, 64
16, 317275, Note_on_c, 15, 61, 93
16, 317367, Note_off_c, 15, 61, 64
16, 317392, Note_on_c, 15, 59, 87
16, 317481, Note_off_c, 15, 59, 64
16, 317509, Note_on_c, 15, 58, 91
16, 317579, Note_off_c, 15, 58, 64
16, 317626, Note_on_c, 15, 56, 84
16, 317704, Note_off_c, 15, 56, 64
16, 317751, Note_on_c, 15, 55, 102
16, 317885, Note_off_c, 15, 55, 64
16, 317995, Note_on_c, 15, 58, 92
16, 318082, Note_off_c, 15, 58, 64
16, 318236, Note_on_c, 15, 63, 81
16, 318332, Note_off_c, 15, 63, 64
16, 318486, Note_on_c, 15, 51, 101
16, 318611, Note_off_c, 15, 51, 64
16, 318726, Note_on_c, 15, 58, 98
16, 318822, Note_off_c, 15, 58, 64
16, 318959, Note_on_c, 15, 63, 94
16, 319056, Note_off_c, 15, 63, 64
16, 319195, Note_on_c, 15, 44, 102
16, 319316, Note_off_c, 15, 44, 64
16, 319435, Note_on_c, 15, 47, 106
16, 319534, Note_off_c, 15, 47, 64
16, 319675, Note_on_c, 15, 51, 91
16, 319772, Note_off_c, 15, 51, 64
16, 319920, Note_on_c, 15, 56, 112
16, 320020, Note_off_c, 15, 56, 64
16, 320036, Note_on_c, 15, 58, 96
16, 320091, Note_off_c, 15, 58, 64
16, 320151, Note_on_c, 15, 56, 94
16, 320218, Note_off_c, 15, 56, 64
16, 320268, Note_on_c, 15, 54, 92
16, 320336, Note_off_c, 15, 54, 64
16, 320389, Note_on_c, 15, 52, 94
16, 320453, Note_off_c, 15, 52, 64
16, 320507, Note_on_c, 15, 51, 94
16, 320563, Note_off_c, 15, 51, 64
16, 320632, Note_on_c, 15, 49, 94
16, 320764, Note_off_c, 15, 49, 64
16, 320871, Note_on_c, 15, 56, 87
16, 320937, Note_off_c, 15, 56, 64
16, 321111, Note_on_c, 15, 61, 87
16, 321176, Note_off_c, 15, 61, 64
16, 321355, Note_on_c, 15, 54, 81
16, 321491, Note_off_c, 15, 54, 64
16, 321602, Note_on_c, 15, 49, 118
16, 321674, Note_off_c, 15, 49, 64
16, 321840, Note_on_c, 15, 42, 112
16, 321903, Note_off_c, 15, 42, 64
16, 322078, Note_on_c, 15, 47, 118
16, 322223, Note_off_c, 15, 47, 64
16, 322323, Note_on_c, 15, 54, 89
16, 322375, Note_off_c, 15, 54, 64
16, 322558, Note_on_c, 15, 59, 91
16, 322622, Note_off_c, 15, 59, 64
16, 322795, Note_on_c, 15, 52, 87
16, 322944, Note_off_c, 15, 52, 64
16, 323036, Note_on_c, 15, 47, 120
16, 323118, Note_off_c, 15, 47, 64
16, 323271, Note_on_c, 15, 40, 109
16, 323341, Note_off_c, 15, 40, 64
16, 323520, Note_on_c, 15, 52, 49
16, 323723, Note_off_c, 15, 52, 64
16, 324240, Note_on_c, 15, 51, 61
16, 324454, Note_off_c, 15, 51, 64
16, 324963, Note_on_c, 15, 49, 81
16, 325168, Note_off_c, 15, 49, 64
16, 325675, Note_on_c, 15, 47, 81
16, 325867, Note_off_c, 15, 47, 64
16, 326395, Note_on_c, 15, 46, 92
16, 326509, Note_off_c, 15, 46, 64
16, 326635, Note_on_c, 15, 49, 92
16, 326713, Note_off_c, 15, 49, 64
16, 326874, Note_on_c, 15, 54, 101
16, 326967, Note_off_c, 15, 54, 64
16, 327112, Note_on_c, 15, 47, 118
16, 327229, Note_off_c, 15, 47, 64
16, 327354, Note_on_c, 15, 51, 106
16, 327437, Note_off_c, 15, 51, 64
16, 327591, Note_on_c, 15, 54, 101
16, 327691, Note_off_c, 15, 54, 64
16, 327843, Note_on_c, 15, 46, 118
16, 327927, Note_off_c, 15, 46, 64
16, 327956, Note_on_c, 15, 49, 101
16, 328038, Note_off_c, 15, 49, 64
16, 328077, Note_on_c, 15, 42, 96
16, 328147, Note_off_c, 15, 42, 64
16, 328196, Note_on_c, 15, 49, 101
16, 328259, Note_off_c, 15, 49, 64
16, 328315, Note_on_c, 15, 46, 102
16, 328392, Note_off_c, 15, 46, 64
16, 328433, Note_on_c, 15, 49, 106
16, 328492, Note_off_c, 15, 49, 64
16, 328558, Note_on_c, 15, 47, 115
16, 328656, Note_off_c, 15, 47, 64
16, 328676, Note_on_c, 15, 51, 94
16, 328753, Note_off_c, 15, 51, 64
16, 328795, Note_on_c, 15, 42, 98
16, 328868, Note_off_c, 15, 42, 64
16, 328920, Note_on_c, 15, 51, 106
16, 328986, Note_off_c, 15, 51, 64
16, 329037, Note_on_c, 15, 47, 94
16, 329103, Note_off_c, 15, 47, 64
16, 329151, Note_on_c, 15, 51, 101
16, 329237, Note_off_c, 15, 51, 64
16, 329280, Note_on_c, 15, 41, 121
16, 329398, Note_off_c, 15, 41, 64
16, 329519, Note_on_c, 15, 41, 89
16, 329595, Note_off_c, 15, 41, 64
16, 329755, Note_on_c, 15, 41, 80
16, 329828, Note_off_c, 15, 41, 64
16, 329999, Note_on_c, 15, 41, 89
16, 330061, Note_off_c, 15, 41, 64
16, 330236, Note_on_c, 15, 41, 78
16, 330291, Note_off_c, 15, 41, 64
16, 330475, Note_on_c, 15, 41, 84
16, 330532, Note_off_c, 15, 41, 64
16, 330722, Note_on_c, 15, 40, 121
16, 330859, Note_off_c, 15, 40, 64
16, 330965, Note_on_c, 15, 40, 84
16, 331027, Note_off_c, 15, 40, 64
16, 331195, Note_on_c, 15, 40, 81
16, 331252, Note_off_c, 15, 40, 64
16, 331433, Note_on_c, 15, 40, 81
16, 331496, Note_off_c, 15, 40, 64
16, 331674, Note_on_c, 15, 40, 81
16, 331734, Note_off_c, 15, 40, 64
16, 331912, Note_on_c, 15, 40, 81
16, 331977, Note_off_c, 15, 40, 64
16, 332156, Note_on_c, 15, 39, 75
16, 332336, Note_off_c, 15, 39, 64
16, 332874, Note_on_c, 15, 40, 45
16, 333066, Note_off_c, 15, 40, 64
16, 333595, Note_on_c, 15, 42, 48
16, 333816, Note_off_c, 15, 42, 64
16, 334315, Note_on_c, 15, 44, 63
16, 334554, Note_off_c, 15, 44, 64
16, 335045, Note_on_c, 15, 39, 64
16, 335284, Note_off_c, 15, 39, 64
16, 335761, Note_on_c, 15, 40, 71
16, 335998, Note_off_c, 15, 40, 64
16, 336478, Note_on_c, 15, 42, 84
16, 336613, Note_off_c, 15, 42, 64
16, 336722, Note_on_c, 15, 40, 101
16, 336833, Note_off_c, 15, 40, 64
16, 336963, Note_on_c, 15, 42, 89
16, 337040, Note_off_c, 15, 42, 64
16, 337208, Note_on_c, 15, 35, 81
16, 337512, Note_off_c, 15, 35, 64
16, 337673, Note_on_c, 15, 37, 81
16, 337755, Note_off_c, 15, 37, 64
16, 337921, Note_on_c, 15, 39, 98
16, 338029, Note_off_c, 15, 39, 64
16, 338159, Note_on_c, 15, 37, 96
16, 338264, Note_off_c, 15, 37, 64
16, 338403, Note_on_c, 15, 35, 96
16, 338502, Note_off_c, 15, 35, 64
16, 338642, Note_on_c, 15, 42, 93
16, 338765, Note_off_c, 15, 42, 64
16, 338885, Note_on_c, 15, 44, 98
16, 338985, Note_off_c, 15, 44, 64
16, 339119, Note_on_c, 15, 46, 96
16, 339218, Note_off_c, 15, 46, 64
16, 339368, Note_on_c, 15, 47, 82
16, 339594, Note_off_c, 15, 47, 64
16, 340075, Note_on_c, 15, 54, 81
16, 340317, Note_off_c, 15, 54, 64
16, 340796, Note_on_c, 15, 47, 81
16, 341027, Note_off_c, 15, 47, 64
16, 341521, Note_on_c, 15, 42, 84
16, 341753, Note_off_c, 15, 42, 64
16, 342235, Note_on_c, 15, 47, 112
16, 342312, Note_off_c, 15, 47, 64
16, 342356, Note_on_c, 15, 46, 102
16, 342425, Note_off_c, 15, 46, 64
16, 342474, Note_on_c, 15, 47, 115
16, 342539, Note_off_c, 15, 47, 64
16, 342591, Note_on_c, 15, 49, 102
16, 342659, Note_off_c, 15, 49, 64
16, 342711, Note_on_c, 15, 51, 102
16, 342769, Note_off_c, 15, 51, 64
16, 342830, Note_on_c, 15, 52, 96
16, 342890, Note_off_c, 15, 52, 64
16, 342953, Note_on_c, 15, 54, 112
16, 343035, Note_off_c, 15, 54, 64
16, 343074, Note_on_c, 15, 56, 82
16, 343132, Note_off_c, 15, 56, 64
16, 343193, Note_on_c, 15, 54, 87
16, 343245, Note_off_c, 15, 54, 64
16, 343313, Note_on_c, 15, 52, 92
16, 343364, Note_off_c, 15, 52, 64
16, 343433, Note_on_c, 15, 51, 92
16, 343489, Note_off_c, 15, 51, 64
16, 343553, Note_on_c, 15, 49, 87
16, 343608, Note_off_c, 15, 49, 64
16, 343676, Note_on_c, 15, 47, 118
16, 343767, Note_off_c, 15, 47, 64
16, 343796, Note_on_c, 15, 46, 84
16, 343866, Note_off_c, 15, 46, 64
16, 343915, Note_on_c, 15, 47, 109
16, 343984, Note_off_c, 15, 47, 64
16, 344035, Note_on_c, 15, 49, 101
16, 344100, Note_off_c, 15, 49, 64
16, 344158, Note_on_c, 15, 51, 87
16, 344216, Note_off_c, 15, 51, 64
16, 344272, Note_on_c, 15, 47, 88
16, 344337, Note_off_c, 15, 47, 64
16, 344391, Note_on_c, 15, 53, 117
16, 344469, Note_off_c, 15, 53, 64
16, 344513, Note_on_c, 15, 54, 101
16, 344583, Note_off_c, 15, 54, 64
16, 344632, Note_on_c, 15, 53, 93
16, 344693, Note_off_c, 15, 53, 64
16, 344751, Note_on_c, 15, 51, 88
16, 344821, Note_off_c, 15, 51, 64
16, 344870, Note_on_c, 15, 49, 96
16, 344945, Note_off_c, 15, 49, 64
16, 344991, Note_on_c, 15, 47, 102
16, 345056, Note_off_c, 15, 47, 64
16, 345114, Note_on_c, 15, 46, 115
16, 345207, Note_off_c, 15, 46, 64
16, 345230, Note_on_c, 15, 44, 87
16, 345308, Note_off_c, 15, 44, 64
16, 345350, Note_on_c, 15, 46, 98
16, 345421, Note_off_c, 15, 46, 64
16, 345467, Note_on_c, 15, 47, 98
16, 345534, Note_off_c, 15, 47, 64
16, 345587, Note_on_c, 15, 49, 92
16, 345658, Note_off_c, 15, 49, 64
16, 345706, Note_on_c, 15, 46, 92
16, 345783, Note_off_c, 15, 46, 64
16, 345835, Note_on_c, 15, 51, 112
16, 345921, Note_off_c, 15, 51, 64
16, 345952, Note_on_c, 15, 53, 95
16, 346007, Note_off_c, 15, 53, 64
16, 346070, Note_on_c, 15, 51, 96
16, 346150, Note_off_c, 15, 51, 64
16, 346184, Note_on_c, 15, 49, 91
16, 346257, Note_off_c, 15, 49, 64
16, 346308, Note_on_c, 15, 47, 102
16, 346381, Note_off_c, 15, 47, 64
16, 346426, Note_on_c, 15, 46, 93
16, 346500, Note_off_c, 15, 46, 64
16, 346554, Note_on_c, 15, 44, 96
16, 346641, Note_off_c, 15, 44, 64
16, 346673, Note_on_c, 15, 42, 93
16, 346748, Note_off_c, 15, 42, 64
16, 346792, Note_on_c, 15, 44, 87
16, 346869, Note_off_c, 15, 44, 64
16, 346909, Note_on_c, 15, 46, 91
16, 346982, Note_off_c, 15, 46, 64
16, 347026, Note_on_c, 15, 47, 93
16, 347105, Note_off_c, 15, 47, 64
16, 347147, Note_on_c, 15, 44, 93
16, 347219, Note_off_c, 15, 44, 64
16, 347272, Note_on_c, 15, 49, 109
16, 347368, Note_off_c, 15, 49, 64
16, 347396, Note_on_c, 15, 51, 82
16, 347464, Note_off_c, 15, 51, 64
16, 347516, Note_on_c, 15, 49, 88
16, 347590, Note_off_c, 15, 49, 64
16, 347630, Note_on_c, 15, 47, 87
16, 347700, Note_off_c, 15, 47, 64
16, 347749, Note_on_c, 15, 46, 94
16, 347811, Note_off_c, 15, 46, 64
16, 347864, Note_on_c, 15, 44, 87
16, 347931, Note_off_c, 15, 44, 64
16, 347991, Note_on_c, 15, 42, 87
16, 348218, Note_off_c, 15, 42, 64
16, 348707, Note_on_c, 15, 37, 81
16, 348907, Note_off_c, 15, 37, 64
16, 349433, Note_on_c, 15, 42, 81
16, 349627, Note_off_c, 15, 42, 64
16, 350154, Note_on_c, 15, 49, 81
16, 350324, Note_off_c, 15, 49, 64
16, 350875, Note_on_c, 15, 54, 115
16, 351018, Note_off_c, 15, 54, 64
16, 351115, Note_on_c, 15, 58, 115
16, 351188, Note_off_c, 15, 58, 64
16, 351355, Note_on_c, 15, 61, 106
16, 351440, Note_off_c, 15, 61, 64
16, 351595, Note_on_c, 15, 49, 107
16, 351714, Note_off_c, 15, 49, 64
16, 351837, Note_on_c, 15, 56, 94
16, 351914, Note_off_c, 15, 56, 64
16, 352077, Note_on_c, 15, 61, 93
16, 352164, Note_off_c, 15, 61, 64
16, 352320, Note_on_c, 15, 42, 101
16, 352412, Note_off_c, 15, 42, 64
16, 352441, Note_on_c, 15, 41, 95
16, 352497, Note_off_c, 15, 41, 64
16, 352557, Note_on_c, 15, 42, 81
16, 352631, Note_off_c, 15, 42, 64
16, 352674, Note_on_c, 15, 44, 87
16, 352735, Note_off_c, 15, 44, 64
16, 352792, Note_on_c, 15, 46, 93
16, 352844, Note_off_c, 15, 46, 64
16, 352907, Note_on_c, 15, 47, 87
16, 352970, Note_off_c, 15, 47, 64
16, 353034, Note_on_c, 15, 49, 98
16, 353122, Note_off_c, 15, 49, 64
16, 353155, Note_on_c, 15, 51, 82
16, 353220, Note_off_c, 15, 51, 64
16, 353274, Note_on_c, 15, 49, 85
16, 353342, Note_off_c, 15, 49, 64
16, 353392, Note_on_c, 15, 47, 96
16, 353451, Note_off_c, 15, 47, 64
16, 353499, Note_on_c, 15, 25, 57
16, 353514, Note_on_c, 15, 46, 96
16, 353540, Note_off_c, 15, 25, 64
16, 353583, Note_off_c, 15, 46, 64
16, 353631, Note_on_c, 15, 44, 89
16, 353699, Note_off_c, 15, 44, 64
16, 353753, Note_on_c, 15, 42, 101
16, 353849, Note_off_c, 15, 42, 64
16, 353873, Note_on_c, 15, 41, 95
16, 353934, Note_off_c, 15, 41, 64
16, 353989, Note_on_c, 15, 42, 81
16, 354062, Note_off_c, 15, 42, 64
16, 354107, Note_on_c, 15, 44, 93
16, 354175, Note_off_c, 15, 44, 64
16, 354227, Note_on_c, 15, 46, 93
16, 354294, Note_off_c, 15, 46, 64
16, 354346, Note_on_c, 15, 42, 88
16, 354432, Note_off_c, 15, 42, 64
16, 354477, Note_on_c, 15, 47, 117
16, 354552, Note_off_c, 15, 47, 64
16, 354592, Note_on_c, 15, 49, 88
16, 354655, Note_off_c, 15, 49, 64
16, 354712, Note_on_c, 15, 47, 91
16, 354781, Note_off_c, 15, 47, 64
16, 354831, Note_on_c, 15, 46, 98
16, 354894, Note_off_c, 15, 46, 64
16, 354947, Note_on_c, 15, 44, 87
16, 355022, Note_off_c, 15, 44, 64
16, 355065, Note_on_c, 15, 42, 89
16, 355132, Note_off_c, 15, 42, 64
16, 355190, Note_on_c, 15, 41, 112
16, 355277, Note_off_c, 15, 41, 64
16, 355309, Note_on_c, 15, 39, 87
16, 355386, Note_off_c, 15, 39, 64
16, 355430, Note_on_c, 15, 41, 107
16, 355493, Note_off_c, 15, 41, 64
16, 355549, Note_on_c, 15, 42, 82
16, 355616, Note_off_c, 15, 42, 64
16, 355669, Note_on_c, 15, 44, 87
16, 355733, Note_off_c, 15, 44, 64
16, 355789, Note_on_c, 15, 41, 102
16, 355843, Note_off_c, 15, 41, 64
16, 355913, Note_on_c, 15, 46, 112
16, 356005, Note_off_c, 15, 46, 64
16, 356034, Note_on_c, 15, 47, 81
16, 356109, Note_off_c, 15, 47, 64
16, 356152, Note_on_c, 15, 46, 93
16, 356219, Note_off_c, 15, 46, 64
16, 356271, Note_on_c, 15, 44, 94
16, 356332, Note_off_c, 15, 44, 64
16, 356387, Note_on_c, 15, 42, 85
16, 356470, Note_off_c, 15, 42, 64
16, 356510, Note_on_c, 15, 41, 102
16, 356563, Note_off_c, 15, 41, 64
16, 356633, Note_on_c, 15, 39, 96
16, 356721, Note_off_c, 15, 39, 64
16, 356751, Note_on_c, 15, 37, 91
16, 356827, Note_off_c, 15, 37, 64
16, 356870, Note_on_c, 15, 39, 101
16, 356939, Note_off_c, 15, 39, 64
16, 356989, Note_on_c, 15, 41, 95
16, 357054, Note_off_c, 15, 41, 64
16, 357109, Note_on_c, 15, 42, 88
16, 357174, Note_off_c, 15, 42, 64
16, 357227, Note_on_c, 15, 39, 101
16, 357290, Note_off_c, 15, 39, 64
16, 357352, Note_on_c, 15, 44, 109
16, 357441, Note_off_c, 15, 44, 64
16, 357471, Note_on_c, 15, 46, 81
16, 357529, Note_off_c, 15, 46, 64
16, 357590, Note_on_c, 15, 44, 82
16, 357651, Note_off_c, 15, 44, 64
16, 357709, Note_on_c, 15, 42, 89
16, 357770, Note_off_c, 15, 42, 64
16, 357830, Note_on_c, 15, 41, 91
16, 357894, Note_off_c, 15, 41, 64
16, 357947, Note_on_c, 15, 39, 81
16, 358016, Note_off_c, 15, 39, 64
16, 358077, Note_on_c, 15, 37, 102
16, 358175, Note_off_c, 15, 37, 64
16, 358311, Note_on_c, 15, 37, 81
16, 358383, Note_off_c, 15, 37, 64
16, 358551, Note_on_c, 15, 37, 81
16, 358622, Note_off_c, 15, 37, 64
16, 358788, Note_on_c, 15, 37, 81
16, 358885, Note_off_c, 15, 37, 64
16, 359030, Note_on_c, 15, 37, 81
16, 359131, Note_off_c, 15, 37, 64
16, 359270, Note_on_c, 15, 37, 81
16, 359402, Note_off_c, 15, 37, 64
16, 359517, Note_on_c, 15, 37, 81
16, 359622, Note_off_c, 15, 37, 64
16, 359751, Note_on_c, 15, 37, 81
16, 359864, Note_off_c, 15, 37, 64
16, 359993, Note_on_c, 15, 37, 81
16, 360101, Note_off_c, 15, 37, 64
16, 360230, Note_on_c, 15, 37, 81
16, 360349, Note_off_c, 15, 37, 64
16, 360474, Note_on_c, 15, 37, 81
16, 360579, Note_off_c, 15, 37, 64
16, 360715, Note_on_c, 15, 37, 81
16, 360824, Note_off_c, 15, 37, 64
16, 360953, Note_on_c, 15, 37, 81
16, 361072, Note_off_c, 15, 37, 64
16, 361192, Note_on_c, 15, 37, 81
16, 361291, Note_off_c, 15, 37, 64
16, 361431, Note_on_c, 15, 37, 81
16, 361544, Note_off_c, 15, 37, 64
16, 361675, Note_on_c, 15, 37, 81
16, 361787, Note_off_c, 15, 37, 64
16, 361913, Note_on_c, 15, 37, 81
16, 362013, Note_off_c, 15, 37, 64
16, 362153, Note_on_c, 15, 37, 85
16, 362258, Note_off_c, 15, 37, 64
16, 362398, Note_on_c, 15, 37, 92
16, 362517, Note_off_c, 15, 37, 64
16, 362642, Note_on_c, 15, 37, 93
16, 362744, Note_off_c, 15, 37, 64
16, 362878, Note_on_c, 15, 37, 96
16, 362987, Note_off_c, 15, 37, 64
16, 363118, Note_on_c, 15, 37, 98
16, 363232, Note_off_c, 15, 37, 64
16, 363353, Note_on_c, 15, 37, 92
16, 363452, Note_off_c, 15, 37, 64
16, 363589, Note_on_c, 15, 37, 98
16, 363683, Note_off_c, 15, 37, 64
16, 363833, Note_on_c, 15, 37, 109
16, 363984, Note_off_c, 15, 37, 64
16, 364079, Note_on_c, 15, 41, 102
16, 364184, Note_off_c, 15, 41, 64
16, 364317, Note_on_c, 15, 44, 96
16, 364409, Note_off_c, 15, 44, 64
16, 364554, Note_on_c, 15, 41, 99
16, 364671, Note_off_c, 15, 41, 64
16, 364795, Note_on_c, 15, 44, 98
16, 364904, Note_off_c, 15, 44, 64
16, 365037, Note_on_c, 15, 49, 101
16, 365145, Note_off_c, 15, 49, 64
16, 365277, Note_on_c, 15, 42, 106
16, 365412, Note_off_c, 15, 42, 64
16, 365518, Note_on_c, 15, 46, 102
16, 365610, Note_off_c, 15, 46, 64
16, 365756, Note_on_c, 15, 49, 92
16, 365849, Note_off_c, 15, 49, 64
16, 365993, Note_on_c, 15, 46, 87
16, 366121, Note_off_c, 15, 46, 64
16, 366234, Note_on_c, 15, 49, 101
16, 366308, Note_off_c, 15, 49, 64
16, 366468, Note_on_c, 15, 54, 101
16, 366548, Note_off_c, 15, 54, 64
16, 366719, Note_on_c, 15, 35, 102
16, 366971, Note_off_c, 15, 35, 64
16, 368154, Note_on_c, 15, 47, 91
16, 368428, Note_off_c, 15, 47, 64
16, 369590, Note_on_c, 15, 46, 118
16, 369710, Note_off_c, 15, 46, 64
16, 369836, Note_on_c, 15, 44, 85
16, 369900, Note_off_c, 15, 44, 64
16, 370079, Note_on_c, 15, 42, 89
16, 370150, Note_off_c, 15, 42, 64
16, 370319, Note_on_c, 15, 49, 88
16, 370559, Note_off_c, 15, 49, 64
16, 370794, Note_on_c, 15, 37, 88
16, 370854, Note_off_c, 15, 37, 64
16, 371034, Note_on_c, 15, 42, 81
16, 372370, Note_off_c, 15, 42, 64
16, 378240, End_track
0, 0, End_of_file
