0, 0, Header, 1, 4, 480
1, 0, Start_track
1, 0, Title_t, "untitled"
1, 0, Time_signature, 3, 2, 24, 8
1, 0, Key_signature, -1, "major"
1, 0, Tempo, 600000
1, 45120, Tempo, 597015
1, 45124, Tempo, 600000
1, 45192, Tempo, 597015
1, 45360, Tempo, 600000
1, 45404, Tempo, 603015
1, 45464, Tempo, 600000
1, 45544, Tempo, 603015
1, 45564, Tempo, 606061
1, 45944, Tempo, 603015
1, 46100, Tempo, 598922
1, 46120, Tempo, 601926
1, 46140, Tempo, 604961
1, 46160, Tempo, 608026
1, 46180, Tempo, 611122
1, 46200, Tempo, 614251
1, 46220, Tempo, 617411
1, 46240, Tempo, 620604
1, 46260, Tempo, 623830
1, 46280, Tempo, 627090
1, 46300, Tempo, 630385
1, 46320, Tempo, 633714
1, 46340, Tempo, 637078
1, 46360, Tempo, 640478
1, 46380, Tempo, 647389
1, 46400, Tempo, 650900
1, 46420, Tempo, 654450
1, 46440, Tempo, 658039
1, 46460, Tempo, 661667
1, 46480, Tempo, 665336
1, 46500, Tempo, 669045
1, 46520, Tempo, 672797
1, 46540, Tempo, 676590
1, 46560, Tempo, 680426
1, 46580, Tempo, 684307
1, 46600, Tempo, 688231
1, 46620, Tempo, 692201
1, 46640, Tempo, 700280
1, 46660, Tempo, 704391
1, 46680, Tempo, 708550
1, 46700, Tempo, 712758
1, 46720, Tempo, 717017
1, 46740, Tempo, 721327
1, 46760, Tempo, 725689
1, 46780, Tempo, 730105
1, 46800, Tempo, 734574
1, 46820, Tempo, 739098
1, 46840, Tempo, 743679
1, 46860, Tempo, 748316
1, 46880, Tempo, 753012
1, 46900, Tempo, 762583
1, 46920, Tempo, 767460
1, 46940, Tempo, 772400
1, 46960, Tempo, 777403
1, 46980, Tempo, 782473
1, 47000, Tempo, 787608
1, 47020, Tempo, 792812
1, 47040, Tempo, 798085
1, 47060, Tempo, 803428
1, 47080, Tempo, 808843
1, 47100, Tempo, 814332
1, 47120, Tempo, 819896
1, 47140, Tempo, 825537
1, 47160, Tempo, 837054
1, 47180, Tempo, 842933
1, 47200, Tempo, 848896
1, 47220, Tempo, 854944
1, 47240, Tempo, 861079
1, 47260, Tempo, 867303
1, 47280, Tempo, 873617
1, 47300, Tempo, 880023
1, 47320, Tempo, 886525
1, 47340, Tempo, 893123
1, 47360, Tempo, 899820
1, 47380, Tempo, 906618
1, 47400, Tempo, 913520
1, 47420, Tempo, 927644
1, 47440, Tempo, 934871
1, 47460, Tempo, 942211
1, 47480, Tempo, 949668
1, 47500, Tempo, 957243
1, 47520, Tempo, 964940
1, 47540, Tempo, 972763
1, 47560, Tempo, 980713
1, 47580, Tempo, 988794
1, 47600, Tempo, 997009
1, 47620, Tempo, 1005362
1, 47640, Tempo, 1013856
1, 47660, Tempo, 1022495
1, 47680, Tempo, 1040222
1, 47700, Tempo, 1049318
1, 47720, Tempo, 1058574
1, 47740, Tempo, 1067996
1, 47760, Tempo, 1077586
1, 47780, Tempo, 1087350
1, 47800, Tempo, 1097293
1, 47820, Tempo, 1107420
1, 47840, Tempo, 1117735
1, 47860, Tempo, 1128244
1, 47880, Tempo, 1138952
1, 47900, Tempo, 1149866
1, 47920, Tempo, 1160991
1, 47940, Tempo, 1183899
1, 47952, Tempo, 1212121
1, 47972, Tempo, 1224490
1, 48004, Tempo, 1237113
1, 48032, Tempo, 1250000
1, 48060, Tempo, 1263158
1, 48104, Tempo, 1276596
1, 48104, End_track
2, 0, Start_track
2, 0, Title_t, "FLUTE"
2, 0, Program_c, 0, 0
2, 0, Control_c, 0, 7, 100
2, 0, Control_c, 0, 10, 39
2, 0, Control_c, 0, 7, 89
2, 0, Control_c, 0, 93, 95
2, 120, Control_c, 0, 7, 109
2, 240, Note_on_c, 0, 65, 64
2, 360, Note_on_c, 0, 65, 0
2, 440, Control_c, 0, 7, 110
2, 480, Note_on_c, 0, 69, 64
2, 600, Note_on_c, 0, 69, 0
2, 720, Note_on_c, 0, 65, 64
2, 840, Note_on_c, 0, 65, 0
2, 960, Note_on_c, 0, 72, 64
2, 1080, Note_on_c, 0, 72, 0
2, 1200, Note_on_c, 0, 65, 64
2, 1320, Note_on_c, 0, 65, 0
2, 1440, Note_on_c, 0, 77, 64
2, 1560, Note_on_c, 0, 77, 0
2, 1680, Note_on_c, 0, 76, 64
2, 1800, Note_on_c, 0, 76, 0
2, 1800, Note_on_c, 0, 74, 64
2, 1920, Note_on_c, 0, 74, 0
2, 1920, Note_on_c, 0, 72, 64
2, 2040, Note_on_c, 0, 72, 0
2, 2040, Note_on_c, 0, 74, 64
2, 2160, Note_on_c, 0, 74, 0
2, 2160, Note_on_c, 0, 72, 64
2, 2280, Note_on_c, 0, 72, 0
2, 2280, Note_on_c, 0, 70, 64
2, 2400, Note_on_c, 0, 70, 0
2, 2400, Note_on_c, 0, 69, 64
2, 2520, Note_on_c, 0, 69, 0
2, 2520, Note_on_c, 0, 70, 64
2, 2640, Note_on_c, 0, 70, 0
2, 2640, Note_on_c, 0, 69, 64
2, 2760, Note_on_c, 0, 69, 0
2, 2760, Note_on_c, 0, 67, 64
2, 2880, Note_on_c, 0, 67, 0
2, 2880, Note_on_c, 0, 65, 64
2, 3120, Note_on_c, 0, 65, 0
2, 3120, Note_on_c, 0, 69, 64
2, 3240, Note_on_c, 0, 69, 0
2, 3360, Note_on_c, 0, 72, 64
2, 3480, Note_on_c, 0, 72, 0
2, 3600, Note_on_c, 0, 69, 64
2, 3720, Note_on_c, 0, 69, 0
2, 3840, Note_on_c, 0, 77, 64
2, 3960, Note_on_c, 0, 77, 0
2, 4080, Note_on_c, 0, 72, 64
2, 4200, Note_on_c, 0, 72, 0
2, 4320, Note_on_c, 0, 81, 64
2, 4440, Note_on_c, 0, 81, 0
2, 4440, Note_on_c, 0, 84, 64
2, 4560, Note_on_c, 0, 84, 0
2, 4560, Note_on_c, 0, 82, 64
2, 4680, Note_on_c, 0, 82, 0
2, 4680, Note_on_c, 0, 84, 64
2, 4800, Note_on_c, 0, 84, 0
2, 4800, Note_on_c, 0, 81, 64
2, 4920, Note_on_c, 0, 81, 0
2, 4920, Note_on_c, 0, 84, 64
2, 5040, Note_on_c, 0, 84, 0
2, 5040, Note_on_c, 0, 82, 64
2, 5160, Note_on_c, 0, 82, 0
2, 5160, Note_on_c, 0, 84, 64
2, 5280, Note_on_c, 0, 84, 0
2, 5280, Note_on_c, 0, 81, 64
2, 5400, Note_on_c, 0, 81, 0
2, 5400, Note_on_c, 0, 84, 64
2, 5520, Note_on_c, 0, 84, 0
2, 5520, Note_on_c, 0, 82, 64
2, 5640, Note_on_c, 0, 82, 0
2, 5640, Note_on_c, 0, 84, 64
2, 5760, Note_on_c, 0, 84, 0
2, 5760, Note_on_c, 0, 77, 64
2, 5880, Note_on_c, 0, 77, 0
2, 5880, Note_on_c, 0, 81, 64
2, 6000, Note_on_c, 0, 81, 0
2, 6000, Note_on_c, 0, 79, 64
2, 6120, Note_on_c, 0, 79, 0
2, 6120, Note_on_c, 0, 81, 64
2, 6240, Note_on_c, 0, 81, 0
2, 6240, Note_on_c, 0, 77, 64
2, 6360, Note_on_c, 0, 77, 0
2, 6360, Note_on_c, 0, 81, 64
2, 6480, Note_on_c, 0, 81, 0
2, 6480, Note_on_c, 0, 79, 64
2, 6600, Note_on_c, 0, 79, 0
2, 6600, Note_on_c, 0, 81, 64
2, 6720, Note_on_c, 0, 81, 0
2, 6720, Note_on_c, 0, 77, 64
2, 6840, Note_on_c, 0, 77, 0
2, 6840, Note_on_c, 0, 81, 64
2, 6960, Note_on_c, 0, 81, 0
2, 6960, Note_on_c, 0, 79, 64
2, 7080, Note_on_c, 0, 79, 0
2, 7080, Note_on_c, 0, 81, 64
2, 7200, Note_on_c, 0, 81, 0
2, 7200, Note_on_c, 0, 74, 64
2, 7320, Note_on_c, 0, 74, 0
2, 7320, Note_on_c, 0, 77, 64
2, 7440, Note_on_c, 0, 77, 0
2, 7440, Note_on_c, 0, 76, 64
2, 7560, Note_on_c, 0, 76, 0
2, 7560, Note_on_c, 0, 77, 64
2, 7680, Note_on_c, 0, 77, 0
2, 7680, Note_on_c, 0, 74, 64
2, 7800, Note_on_c, 0, 74, 0
2, 7800, Note_on_c, 0, 77, 64
2, 7920, Note_on_c, 0, 77, 0
2, 7920, Note_on_c, 0, 76, 64
2, 8040, Note_on_c, 0, 76, 0
2, 8040, Note_on_c, 0, 77, 64
2, 8160, Note_on_c, 0, 77, 0
2, 8160, Note_on_c, 0, 74, 64
2, 8280, Note_on_c, 0, 74, 0
2, 8280, Note_on_c, 0, 77, 64
2, 8400, Note_on_c, 0, 77, 0
2, 8400, Note_on_c, 0, 76, 64
2, 8520, Note_on_c, 0, 76, 0
2, 8520, Note_on_c, 0, 77, 64
2, 8640, Note_on_c, 0, 77, 0
2, 8640, Note_on_c, 0, 71, 64
2, 8760, Note_on_c, 0, 71, 0
2, 8880, Note_on_c, 0, 67, 64
2, 9000, Note_on_c, 0, 67, 0
2, 9120, Note_on_c, 0, 74, 64
2, 9240, Note_on_c, 0, 74, 0
2, 9360, Note_on_c, 0, 71, 64
2, 9480, Note_on_c, 0, 71, 0
2, 9600, Note_on_c, 0, 77, 64
2, 9720, Note_on_c, 0, 77, 0
2, 9840, Note_on_c, 0, 71, 64
2, 9960, Note_on_c, 0, 71, 0
2, 10080, Note_on_c, 0, 79, 64
2, 10200, Note_on_c, 0, 79, 0
2, 10200, Note_on_c, 0, 81, 64
2, 10320, Note_on_c, 0, 81, 0
2, 10320, Note_on_c, 0, 79, 64
2, 10440, Note_on_c, 0, 79, 0
2, 10440, Note_on_c, 0, 77, 64
2, 10560, Note_on_c, 0, 77, 0
2, 10560, Note_on_c, 0, 76, 64
2, 10680, Note_on_c, 0, 76, 0
2, 10680, Note_on_c, 0, 77, 64
2, 10800, Note_on_c, 0, 77, 0
2, 10800, Note_on_c, 0, 76, 64
2, 10920, Note_on_c, 0, 76, 0
2, 10920, Note_on_c, 0, 74, 64
2, 11040, Note_on_c, 0, 74, 0
2, 11040, Note_on_c, 0, 72, 64
2, 11160, Note_on_c, 0, 72, 0
2, 11160, Note_on_c, 0, 74, 64
2, 11280, Note_on_c, 0, 74, 0
2, 11280, Note_on_c, 0, 72, 64
2, 11400, Note_on_c, 0, 72, 0
2, 11400, Note_on_c, 0, 70, 64
2, 11520, Note_on_c, 0, 70, 0
2, 11520, Note_on_c, 0, 69, 64
2, 11640, Note_on_c, 0, 69, 0
2, 11760, Note_on_c, 0, 74, 64
2, 11880, Note_on_c, 0, 74, 0
2, 11880, Note_on_c, 0, 72, 64
2, 12000, Note_on_c, 0, 72, 0
2, 12000, Note_on_c, 0, 71, 64
2, 12120, Note_on_c, 0, 71, 0
2, 12120, Note_on_c, 0, 72, 64
2, 12240, Note_on_c, 0, 72, 0
2, 12240, Note_on_c, 0, 71, 64
2, 12360, Note_on_c, 0, 71, 0
2, 12360, Note_on_c, 0, 69, 64
2, 12360, Control_c, 0, 7, 102
2, 12400, Control_c, 0, 7, 101
2, 12440, Control_c, 0, 7, 99
2, 12480, Note_on_c, 0, 69, 0
2, 12480, Note_on_c, 0, 67, 64
2, 12480, Control_c, 0, 7, 97
2, 12520, Control_c, 0, 7, 96
2, 12560, Control_c, 0, 7, 94
2, 12600, Note_on_c, 0, 67, 0
2, 12600, Note_on_c, 0, 69, 64
2, 12600, Control_c, 0, 7, 92
2, 12640, Control_c, 0, 7, 91
2, 12680, Control_c, 0, 7, 89
2, 12720, Note_on_c, 0, 69, 0
2, 12720, Note_on_c, 0, 67, 64
2, 12720, Control_c, 0, 7, 87
2, 12760, Control_c, 0, 7, 86
2, 12800, Control_c, 0, 7, 84
2, 12840, Note_on_c, 0, 67, 0
2, 12840, Note_on_c, 0, 65, 64
2, 12840, Control_c, 0, 7, 82
2, 12880, Control_c, 0, 7, 81
2, 12920, Control_c, 0, 7, 79
2, 12960, Note_on_c, 0, 65, 0
2, 12960, Note_on_c, 0, 64, 64
2, 12960, Control_c, 0, 7, 77
2, 13000, Control_c, 0, 7, 75
2, 13080, Note_on_c, 0, 64, 0
2, 13080, Note_on_c, 0, 65, 64
2, 13200, Note_on_c, 0, 65, 0
2, 13200, Note_on_c, 0, 64, 64
2, 13320, Note_on_c, 0, 64, 0
2, 13320, Note_on_c, 0, 62, 64
2, 13440, Note_on_c, 0, 62, 0
2, 13440, Note_on_c, 0, 60, 64
2, 13560, Note_on_c, 0, 60, 0
2, 13680, Note_on_c, 0, 72, 64
2, 13800, Note_on_c, 0, 72, 0
2, 13800, Note_on_c, 0, 71, 64
2, 13920, Note_on_c, 0, 71, 0
2, 13920, Note_on_c, 0, 72, 64
2, 14040, Note_on_c, 0, 72, 0
2, 14160, Note_on_c, 0, 64, 64
2, 14280, Note_on_c, 0, 64, 0
2, 14400, Note_on_c, 0, 65, 64
2, 14520, Note_on_c, 0, 65, 0
2, 14640, Note_on_c, 0, 72, 64
2, 14760, Note_on_c, 0, 72, 0
2, 14880, Note_on_c, 0, 64, 64
2, 15000, Note_on_c, 0, 64, 0
2, 15120, Note_on_c, 0, 72, 64
2, 15240, Note_on_c, 0, 72, 0
2, 15360, Note_on_c, 0, 62, 64
2, 15480, Note_on_c, 0, 62, 0
2, 15600, Note_on_c, 0, 71, 64
2, 15720, Note_on_c, 0, 71, 0
2, 15840, Note_on_c, 0, 72, 90
2, 16320, Note_on_c, 0, 72, 0
2, 17280, Control_c, 0, 7, 76
2, 17520, Note_on_c, 0, 72, 64
2, 17520, Control_c, 0, 7, 77
2, 17640, Note_on_c, 0, 72, 0
2, 17760, Note_on_c, 0, 76, 64
2, 17760, Control_c, 0, 7, 78
2, 17880, Note_on_c, 0, 76, 0
2, 18000, Note_on_c, 0, 72, 64
2, 18000, Control_c, 0, 7, 79
2, 18120, Note_on_c, 0, 72, 0
2, 18240, Note_on_c, 0, 79, 64
2, 18240, Control_c, 0, 7, 80
2, 18360, Note_on_c, 0, 79, 0
2, 18480, Note_on_c, 0, 72, 64
2, 18480, Control_c, 0, 7, 81
2, 18600, Note_on_c, 0, 72, 0
2, 18720, Note_on_c, 0, 84, 64
2, 18720, Control_c, 0, 7, 82
2, 18960, Note_on_c, 0, 84, 0
2, 18960, Note_on_c, 0, 83, 64
2, 18960, Control_c, 0, 7, 83
2, 19080, Note_on_c, 0, 83, 0
2, 19080, Note_on_c, 0, 81, 64
2, 19200, Note_on_c, 0, 81, 0
2, 19200, Note_on_c, 0, 79, 64
2, 19200, Control_c, 0, 7, 84
2, 19320, Note_on_c, 0, 79, 0
2, 19320, Note_on_c, 0, 81, 64
2, 19440, Note_on_c, 0, 81, 0
2, 19440, Note_on_c, 0, 79, 64
2, 19440, Control_c, 0, 7, 85
2, 19560, Note_on_c, 0, 79, 0
2, 19560, Note_on_c, 0, 77, 64
2, 19680, Note_on_c, 0, 77, 0
2, 19680, Note_on_c, 0, 76, 64
2, 19680, Control_c, 0, 7, 86
2, 19800, Note_on_c, 0, 76, 0
2, 19800, Note_on_c, 0, 77, 64
2, 19920, Note_on_c, 0, 77, 0
2, 19920, Note_on_c, 0, 76, 64
2, 19920, Control_c, 0, 7, 87
2, 20040, Note_on_c, 0, 76, 0
2, 20040, Note_on_c, 0, 74, 64
2, 20160, Note_on_c, 0, 74, 0
2, 20160, Note_on_c, 0, 72, 64
2, 20160, Control_c, 0, 7, 88
2, 20280, Note_on_c, 0, 72, 0
2, 20280, Note_on_c, 0, 70, 64
2, 20400, Note_on_c, 0, 70, 0
2, 20400, Note_on_c, 0, 72, 64
2, 20400, Control_c, 0, 7, 89
2, 20520, Note_on_c, 0, 72, 0
2, 20520, Note_on_c, 0, 81, 64
2, 20640, Note_on_c, 0, 81, 0
2, 20640, Note_on_c, 0, 72, 64
2, 20640, Control_c, 0, 7, 90
2, 20760, Note_on_c, 0, 72, 0
2, 20760, Note_on_c, 0, 81, 64
2, 20880, Note_on_c, 0, 81, 0
2, 20880, Note_on_c, 0, 70, 64
2, 20880, Control_c, 0, 7, 91
2, 21000, Note_on_c, 0, 70, 0
2, 21000, Note_on_c, 0, 81, 64
2, 21120, Note_on_c, 0, 81, 0
2, 21120, Note_on_c, 0, 72, 64
2, 21120, Control_c, 0, 7, 92
2, 21240, Note_on_c, 0, 72, 0
2, 21240, Note_on_c, 0, 81, 64
2, 21360, Note_on_c, 0, 81, 0
2, 21360, Note_on_c, 0, 69, 64
2, 21360, Control_c, 0, 7, 93
2, 21480, Note_on_c, 0, 69, 0
2, 21480, Note_on_c, 0, 81, 64
2, 21560, Control_c, 0, 7, 94
2, 21600, Note_on_c, 0, 81, 0
2, 21600, Note_on_c, 0, 70, 64
2, 21720, Note_on_c, 0, 70, 0
2, 21800, Control_c, 0, 7, 95
2, 21840, Note_on_c, 0, 67, 64
2, 21960, Note_on_c, 0, 67, 0
2, 22040, Control_c, 0, 7, 96
2, 22080, Note_on_c, 0, 70, 64
2, 22200, Note_on_c, 0, 70, 0
2, 22280, Control_c, 0, 7, 97
2, 22320, Note_on_c, 0, 67, 64
2, 22440, Note_on_c, 0, 67, 0
2, 22520, Control_c, 0, 7, 98
2, 22560, Note_on_c, 0, 74, 64
2, 22680, Note_on_c, 0, 74, 0
2, 22760, Control_c, 0, 7, 99
2, 22800, Note_on_c, 0, 67, 64
2, 22920, Note_on_c, 0, 67, 0
2, 23000, Control_c, 0, 7, 100
2, 23040, Note_on_c, 0, 79, 64
2, 23160, Note_on_c, 0, 79, 0
2, 23240, Control_c, 0, 7, 101
2, 23280, Note_on_c, 0, 77, 64
2, 23400, Note_on_c, 0, 77, 0
2, 23400, Note_on_c, 0, 75, 64
2, 23480, Control_c, 0, 7, 102
2, 23520, Note_on_c, 0, 75, 0
2, 23520, Note_on_c, 0, 74, 64
2, 23640, Note_on_c, 0, 74, 0
2, 23640, Note_on_c, 0, 75, 64
2, 23720, Control_c, 0, 7, 103
2, 23760, Note_on_c, 0, 75, 0
2, 23760, Note_on_c, 0, 74, 64
2, 23880, Note_on_c, 0, 74, 0
2, 23880, Note_on_c, 0, 72, 64
2, 23960, Control_c, 0, 7, 104
2, 24000, Note_on_c, 0, 72, 0
2, 24000, Note_on_c, 0, 70, 64
2, 24120, Note_on_c, 0, 70, 0
2, 24120, Note_on_c, 0, 72, 64
2, 24200, Control_c, 0, 7, 105
2, 24240, Note_on_c, 0, 72, 0
2, 24240, Note_on_c, 0, 70, 64
2, 24360, Note_on_c, 0, 70, 0
2, 24360, Note_on_c, 0, 69, 64
2, 24440, Control_c, 0, 7, 106
2, 24480, Note_on_c, 0, 69, 0
2, 24480, Note_on_c, 0, 67, 64
2, 24600, Note_on_c, 0, 67, 0
2, 24680, Control_c, 0, 7, 107
2, 24720, Note_on_c, 0, 70, 64
2, 24840, Note_on_c, 0, 70, 0
2, 24920, Control_c, 0, 7, 108
2, 24960, Note_on_c, 0, 74, 64
2, 25080, Note_on_c, 0, 74, 0
2, 25160, Control_c, 0, 7, 109
2, 25200, Note_on_c, 0, 70, 64
2, 25320, Note_on_c, 0, 70, 0
2, 25400, Control_c, 0, 7, 110
2, 25440, Note_on_c, 0, 79, 64
2, 25560, Note_on_c, 0, 79, 0
2, 25640, Control_c, 0, 7, 111
2, 25680, Note_on_c, 0, 74, 64
2, 25800, Note_on_c, 0, 74, 0
2, 25840, Control_c, 0, 7, 112
2, 25920, Note_on_c, 0, 82, 64
2, 26040, Note_on_c, 0, 82, 0
2, 26160, Note_on_c, 0, 73, 64
2, 26280, Note_on_c, 0, 73, 0
2, 26400, Note_on_c, 0, 82, 64
2, 26520, Note_on_c, 0, 82, 0
2, 26640, Note_on_c, 0, 73, 64
2, 26760, Note_on_c, 0, 73, 0
2, 26880, Note_on_c, 0, 84, 64
2, 27000, Note_on_c, 0, 84, 0
2, 27120, Note_on_c, 0, 73, 64
2, 27240, Note_on_c, 0, 73, 0
2, 27360, Note_on_c, 0, 74, 64
2, 27480, Note_on_c, 0, 74, 0
2, 27600, Note_on_c, 0, 69, 64
2, 27720, Note_on_c, 0, 69, 0
2, 27840, Note_on_c, 0, 77, 64
2, 27960, Note_on_c, 0, 77, 0
2, 28080, Note_on_c, 0, 74, 64
2, 28200, Note_on_c, 0, 74, 0
2, 28320, Note_on_c, 0, 81, 64
2, 28440, Note_on_c, 0, 81, 0
2, 28560, Note_on_c, 0, 77, 64
2, 28680, Note_on_c, 0, 77, 0
2, 28800, Note_on_c, 0, 79, 64
2, 28920, Note_on_c, 0, 79, 0
2, 28920, Note_on_c, 0, 77, 64
2, 29040, Note_on_c, 0, 77, 0
2, 29040, Note_on_c, 0, 79, 64
2, 29160, Note_on_c, 0, 79, 0
2, 29160, Note_on_c, 0, 82, 64
2, 29280, Note_on_c, 0, 82, 0
2, 29280, Note_on_c, 0, 72, 64
2, 29400, Note_on_c, 0, 72, 0
2, 29400, Note_on_c, 0, 82, 64
2, 29520, Note_on_c, 0, 82, 0
2, 29520, Note_on_c, 0, 74, 64
2, 29640, Note_on_c, 0, 74, 0
2, 29640, Note_on_c, 0, 82, 64
2, 29760, Note_on_c, 0, 82, 0
2, 29760, Note_on_c, 0, 76, 64
2, 29880, Note_on_c, 0, 76, 0
2, 29880, Note_on_c, 0, 82, 64
2, 30000, Note_on_c, 0, 82, 0
2, 30000, Note_on_c, 0, 72, 64
2, 30120, Note_on_c, 0, 72, 0
2, 30120, Note_on_c, 0, 82, 64
2, 30240, Note_on_c, 0, 82, 0
2, 30240, Note_on_c, 0, 77, 64
2, 30360, Note_on_c, 0, 77, 0
2, 30360, Note_on_c, 0, 76, 64
2, 30480, Note_on_c, 0, 76, 0
2, 30480, Note_on_c, 0, 77, 64
2, 30600, Note_on_c, 0, 77, 0
2, 30600, Note_on_c, 0, 81, 64
2, 30720, Note_on_c, 0, 81, 0
2, 30720, Note_on_c, 0, 71, 64
2, 30840, Note_on_c, 0, 71, 0
2, 30840, Note_on_c, 0, 81, 64
2, 30960, Note_on_c, 0, 81, 0
2, 30960, Note_on_c, 0, 73, 64
2, 31080, Note_on_c, 0, 73, 0
2, 31080, Note_on_c, 0, 81, 64
2, 31200, Note_on_c, 0, 81, 0
2, 31200, Note_on_c, 0, 74, 64
2, 31320, Note_on_c, 0, 74, 0
2, 31320, Note_on_c, 0, 81, 64
2, 31440, Note_on_c, 0, 81, 0
2, 31440, Note_on_c, 0, 71, 64
2, 31560, Note_on_c, 0, 71, 0
2, 31560, Note_on_c, 0, 81, 64
2, 31680, Note_on_c, 0, 81, 0
2, 31680, Note_on_c, 0, 76, 64
2, 31800, Note_on_c, 0, 76, 0
2, 31800, Note_on_c, 0, 74, 64
2, 31920, Note_on_c, 0, 74, 0
2, 31920, Note_on_c, 0, 76, 64
2, 32040, Note_on_c, 0, 76, 0
2, 32040, Note_on_c, 0, 79, 64
2, 32160, Note_on_c, 0, 79, 0
2, 32160, Note_on_c, 0, 69, 64
2, 32280, Note_on_c, 0, 69, 0
2, 32280, Note_on_c, 0, 79, 64
2, 32400, Note_on_c, 0, 79, 0
2, 32400, Note_on_c, 0, 71, 64
2, 32520, Note_on_c, 0, 71, 0
2, 32520, Note_on_c, 0, 79, 64
2, 32640, Note_on_c, 0, 79, 0
2, 32640, Note_on_c, 0, 73, 64
2, 32760, Note_on_c, 0, 73, 0
2, 32760, Note_on_c, 0, 79, 64
2, 32880, Note_on_c, 0, 79, 0
2, 32880, Note_on_c, 0, 69, 64
2, 33000, Note_on_c, 0, 69, 0
2, 33000, Note_on_c, 0, 79, 64
2, 33120, Note_on_c, 0, 79, 0
2, 33120, Note_on_c, 0, 77, 64
2, 33360, Note_on_c, 0, 77, 0
2, 33360, Note_on_c, 0, 74, 64
2, 33480, Note_on_c, 0, 74, 0
2, 33600, Note_on_c, 0, 70, 64
2, 33720, Note_on_c, 0, 70, 0
2, 33840, Note_on_c, 0, 74, 64
2, 33960, Note_on_c, 0, 74, 0
2, 34080, Note_on_c, 0, 67, 64
2, 34200, Note_on_c, 0, 67, 0
2, 34320, Note_on_c, 0, 77, 64
2, 34440, Note_on_c, 0, 77, 0
2, 34560, Note_on_c, 0, 76, 64
2, 34680, Note_on_c, 0, 76, 0
2, 34800, Note_on_c, 0, 72, 64
2, 34920, Note_on_c, 0, 72, 0
2, 35040, Note_on_c, 0, 69, 64
2, 35160, Note_on_c, 0, 69, 0
2, 35280, Note_on_c, 0, 72, 64
2, 35400, Note_on_c, 0, 72, 0
2, 35520, Note_on_c, 0, 65, 64
2, 35640, Note_on_c, 0, 65, 0
2, 35760, Note_on_c, 0, 75, 64
2, 35880, Note_on_c, 0, 75, 0
2, 36000, Note_on_c, 0, 74, 64
2, 36040, Control_c, 0, 7, 107
2, 36080, Control_c, 0, 7, 105
2, 36120, Note_on_c, 0, 74, 0
2, 36120, Note_on_c, 0, 77, 64
2, 36120, Control_c, 0, 7, 103
2, 36160, Control_c, 0, 7, 100
2, 36200, Control_c, 0, 7, 98
2, 36240, Note_on_c, 0, 77, 0
2, 36240, Note_on_c, 0, 75, 64
2, 36240, Control_c, 0, 7, 96
2, 36280, Control_c, 0, 7, 93
2, 36320, Control_c, 0, 7, 91
2, 36360, Note_on_c, 0, 75, 0
2, 36360, Note_on_c, 0, 77, 64
2, 36360, Control_c, 0, 7, 89
2, 36400, Control_c, 0, 7, 86
2, 36440, Control_c, 0, 7, 84
2, 36480, Note_on_c, 0, 77, 0
2, 36480, Note_on_c, 0, 74, 64
2, 36480, Control_c, 0, 7, 82
2, 36520, Control_c, 0, 7, 79
2, 36560, Control_c, 0, 7, 77
2, 36600, Note_on_c, 0, 74, 0
2, 36600, Note_on_c, 0, 77, 64
2, 36600, Control_c, 0, 7, 75
2, 36640, Control_c, 0, 7, 72
2, 36720, Note_on_c, 0, 77, 0
2, 36720, Note_on_c, 0, 75, 64
2, 36840, Note_on_c, 0, 75, 0
2, 36840, Note_on_c, 0, 77, 64
2, 36960, Note_on_c, 0, 77, 0
2, 36960, Note_on_c, 0, 74, 64
2, 37080, Note_on_c, 0, 74, 0
2, 37080, Note_on_c, 0, 77, 64
2, 37200, Note_on_c, 0, 77, 0
2, 37200, Note_on_c, 0, 75, 64
2, 37320, Note_on_c, 0, 75, 0
2, 37320, Note_on_c, 0, 77, 64
2, 37440, Note_on_c, 0, 77, 0
2, 37440, Note_on_c, 0, 70, 64
2, 37560, Note_on_c, 0, 70, 0
2, 37560, Note_on_c, 0, 74, 64
2, 37680, Note_on_c, 0, 74, 0
2, 37680, Note_on_c, 0, 72, 64
2, 37800, Note_on_c, 0, 72, 0
2, 37800, Note_on_c, 0, 74, 64
2, 37920, Note_on_c, 0, 74, 0
2, 37920, Note_on_c, 0, 70, 64
2, 38040, Note_on_c, 0, 70, 0
2, 38040, Note_on_c, 0, 74, 64
2, 38160, Note_on_c, 0, 74, 0
2, 38160, Note_on_c, 0, 72, 64
2, 38280, Note_on_c, 0, 72, 0
2, 38280, Note_on_c, 0, 74, 64
2, 38400, Note_on_c, 0, 74, 0
2, 38400, Note_on_c, 0, 70, 64
2, 38520, Note_on_c, 0, 70, 0
2, 38520, Note_on_c, 0, 74, 64
2, 38640, Note_on_c, 0, 74, 0
2, 38640, Note_on_c, 0, 72, 64
2, 38760, Note_on_c, 0, 72, 0
2, 38760, Note_on_c, 0, 74, 64
2, 38880, Note_on_c, 0, 74, 0
2, 38880, Note_on_c, 0, 67, 64
2, 39000, Note_on_c, 0, 67, 0
2, 39000, Note_on_c, 0, 70, 64
2, 39120, Note_on_c, 0, 70, 0
2, 39120, Note_on_c, 0, 69, 64
2, 39240, Note_on_c, 0, 69, 0
2, 39240, Note_on_c, 0, 70, 64
2, 39360, Note_on_c, 0, 70, 0
2, 39360, Note_on_c, 0, 67, 64
2, 39480, Note_on_c, 0, 67, 0
2, 39480, Note_on_c, 0, 70, 64
2, 39600, Note_on_c, 0, 70, 0
2, 39600, Note_on_c, 0, 69, 64
2, 39720, Note_on_c, 0, 69, 0
2, 39720, Note_on_c, 0, 70, 64
2, 39840, Note_on_c, 0, 70, 0
2, 39840, Note_on_c, 0, 67, 64
2, 39960, Note_on_c, 0, 67, 0
2, 39960, Note_on_c, 0, 70, 64
2, 40080, Note_on_c, 0, 70, 0
2, 40080, Note_on_c, 0, 69, 64
2, 40200, Note_on_c, 0, 69, 0
2, 40200, Note_on_c, 0, 70, 64
2, 40320, Note_on_c, 0, 70, 0
2, 40320, Note_on_c, 0, 64, 64
2, 40360, Control_c, 0, 7, 76
2, 40440, Note_on_c, 0, 64, 0
2, 40440, Control_c, 0, 7, 77
2, 40520, Control_c, 0, 7, 78
2, 40560, Note_on_c, 0, 60, 64
2, 40600, Control_c, 0, 7, 79
2, 40680, Note_on_c, 0, 60, 0
2, 40680, Control_c, 0, 7, 80
2, 40760, Control_c, 0, 7, 81
2, 40800, Note_on_c, 0, 67, 64
2, 40840, Control_c, 0, 7, 82
2, 40920, Note_on_c, 0, 67, 0
2, 40920, Control_c, 0, 7, 83
2, 40960, Control_c, 0, 7, 84
2, 41040, Note_on_c, 0, 64, 64
2, 41040, Control_c, 0, 7, 85
2, 41120, Control_c, 0, 7, 86
2, 41160, Note_on_c, 0, 64, 0
2, 41200, Control_c, 0, 7, 87
2, 41280, Note_on_c, 0, 70, 64
2, 41280, Control_c, 0, 7, 88
2, 41360, Control_c, 0, 7, 89
2, 41400, Note_on_c, 0, 70, 0
2, 41440, Control_c, 0, 7, 90
2, 41520, Note_on_c, 0, 67, 64
2, 41520, Control_c, 0, 7, 91
2, 41560, Control_c, 0, 7, 92
2, 41640, Note_on_c, 0, 67, 0
2, 41640, Control_c, 0, 7, 93
2, 41720, Control_c, 0, 7, 94
2, 41760, Note_on_c, 0, 72, 64
2, 41800, Control_c, 0, 7, 95
2, 41880, Note_on_c, 0, 72, 0
2, 41880, Note_on_c, 0, 74, 64
2, 41880, Control_c, 0, 7, 96
2, 41960, Control_c, 0, 7, 97
2, 42000, Note_on_c, 0, 74, 0
2, 42000, Note_on_c, 0, 72, 64
2, 42040, Control_c, 0, 7, 98
2, 42080, Control_c, 0, 7, 99
2, 42120, Note_on_c, 0, 72, 0
2, 42120, Note_on_c, 0, 70, 64
2, 42160, Control_c, 0, 7, 100
2, 42240, Note_on_c, 0, 70, 0
2, 42240, Note_on_c, 0, 69, 64
2, 42240, Control_c, 0, 7, 101
2, 42320, Control_c, 0, 7, 102
2, 42360, Note_on_c, 0, 69, 0
2, 42360, Note_on_c, 0, 70, 64
2, 42400, Control_c, 0, 7, 103
2, 42480, Note_on_c, 0, 70, 0
2, 42480, Note_on_c, 0, 69, 64
2, 42480, Control_c, 0, 7, 104
2, 42560, Control_c, 0, 7, 105
2, 42600, Note_on_c, 0, 69, 0
2, 42600, Note_on_c, 0, 67, 64
2, 42640, Control_c, 0, 7, 106
2, 42680, Control_c, 0, 7, 107
2, 42720, Note_on_c, 0, 67, 0
2, 42720, Note_on_c, 0, 65, 64
2, 42760, Control_c, 0, 7, 108
2, 42840, Note_on_c, 0, 65, 0
2, 42840, Note_on_c, 0, 67, 64
2, 42840, Control_c, 0, 7, 109
2, 42920, Control_c, 0, 7, 110
2, 42960, Note_on_c, 0, 67, 0
2, 42960, Note_on_c, 0, 65, 64
2, 43000, Control_c, 0, 7, 111
2, 43080, Note_on_c, 0, 65, 0
2, 43080, Note_on_c, 0, 63, 64
2, 43080, Control_c, 0, 7, 112
2, 43160, Control_c, 0, 7, 113
2, 43200, Note_on_c, 0, 63, 0
2, 43200, Note_on_c, 0, 62, 64
2, 43200, Control_c, 0, 7, 114
2, 43440, Note_on_c, 0, 62, 0
2, 43440, Note_on_c, 0, 67, 64
2, 43560, Note_on_c, 0, 67, 0
2, 43560, Note_on_c, 0, 65, 64
2, 43680, Note_on_c, 0, 65, 0
2, 43680, Note_on_c, 0, 64, 64
2, 43800, Note_on_c, 0, 64, 0
2, 43800, Note_on_c, 0, 65, 64
2, 43920, Note_on_c, 0, 65, 0
2, 43920, Note_on_c, 0, 64, 64
2, 44040, Note_on_c, 0, 64, 0
2, 44040, Note_on_c, 0, 62, 64
2, 44160, Note_on_c, 0, 62, 0
2, 44160, Note_on_c, 0, 60, 64
2, 44280, Note_on_c, 0, 60, 0
2, 44280, Note_on_c, 0, 62, 64
2, 44400, Note_on_c, 0, 62, 0
2, 44400, Note_on_c, 0, 60, 64
2, 44520, Note_on_c, 0, 60, 0
2, 44520, Note_on_c, 0, 58, 64
2, 44640, Note_on_c, 0, 58, 0
2, 44640, Note_on_c, 0, 57, 64
2, 44760, Note_on_c, 0, 57, 0
2, 44760, Note_on_c, 0, 58, 64
2, 44880, Note_on_c, 0, 58, 0
2, 44880, Note_on_c, 0, 57, 64
2, 45000, Note_on_c, 0, 57, 0
2, 45000, Note_on_c, 0, 55, 64
2, 45120, Note_on_c, 0, 55, 0
2, 45120, Note_on_c, 0, 53, 64
2, 45240, Note_on_c, 0, 53, 0
2, 45360, Note_on_c, 0, 65, 64
2, 45480, Note_on_c, 0, 65, 0
2, 45480, Note_on_c, 0, 64, 64
2, 45520, Control_c, 0, 7, 110
2, 45560, Control_c, 0, 7, 109
2, 45600, Note_on_c, 0, 64, 0
2, 45600, Note_on_c, 0, 65, 64
2, 45600, Control_c, 0, 7, 107
2, 45640, Control_c, 0, 7, 105
2, 45680, Control_c, 0, 7, 104
2, 45720, Note_on_c, 0, 65, 0
2, 45720, Control_c, 0, 7, 102
2, 45760, Control_c, 0, 7, 100
2, 45800, Control_c, 0, 7, 98
2, 45840, Note_on_c, 0, 57, 64
2, 45840, Control_c, 0, 7, 97
2, 45880, Control_c, 0, 7, 95
2, 45920, Control_c, 0, 7, 93
2, 45960, Note_on_c, 0, 57, 0
2, 45960, Control_c, 0, 7, 91
2, 46000, Control_c, 0, 7, 90
2, 46040, Control_c, 0, 7, 88
2, 46080, Note_on_c, 0, 58, 64
2, 46080, Control_c, 0, 7, 86
2, 46120, Control_c, 0, 7, 84
2, 46200, Note_on_c, 0, 58, 0
2, 46320, Note_on_c, 0, 65, 64
2, 46440, Note_on_c, 0, 65, 0
2, 46560, Note_on_c, 0, 57, 64
2, 46680, Note_on_c, 0, 57, 0
2, 46800, Note_on_c, 0, 65, 64
2, 46920, Note_on_c, 0, 65, 0
2, 47040, Note_on_c, 0, 55, 64
2, 47280, Note_on_c, 0, 55, 0
2, 47280, Note_on_c, 0, 64, 64
2, 47400, Note_on_c, 0, 64, 0
2, 47520, Note_on_c, 0, 65, 90
2, 48000, Note_on_c, 0, 65, 0
2, 48000, End_track
3, 0, Start_track
3, 0, Title_t, "BASSOON"
3, 0, Program_c, 2, 0
3, 0, Control_c, 2, 7, 100
3, 0, Control_c, 2, 10, 94
3, 0, Control_c, 2, 7, 100
3, 120, Control_c, 2, 7, 109
3, 1680, Note_on_c, 2, 41, 64
3, 1800, Note_on_c, 2, 41, 0
3, 1920, Note_on_c, 2, 45, 64
3, 2040, Note_on_c, 2, 45, 0
3, 2160, Note_on_c, 2, 41, 64
3, 2280, Note_on_c, 2, 41, 0
3, 2400, Note_on_c, 2, 48, 64
3, 2520, Note_on_c, 2, 48, 0
3, 2640, Note_on_c, 2, 41, 64
3, 2760, Note_on_c, 2, 41, 0
3, 2880, Note_on_c, 2, 53, 64
3, 3000, Note_on_c, 2, 53, 0
3, 3120, Note_on_c, 2, 52, 64
3, 3240, Note_on_c, 2, 52, 0
3, 3240, Note_on_c, 2, 50, 64
3, 3360, Note_on_c, 2, 50, 0
3, 3360, Note_on_c, 2, 48, 64
3, 3480, Note_on_c, 2, 48, 0
3, 3480, Note_on_c, 2, 50, 64
3, 3600, Note_on_c, 2, 50, 0
3, 3600, Note_on_c, 2, 48, 64
3, 3720, Note_on_c, 2, 48, 0
3, 3720, Note_on_c, 2, 46, 64
3, 3840, Note_on_c, 2, 46, 0
3, 3840, Note_on_c, 2, 45, 64
3, 3960, Note_on_c, 2, 45, 0
3, 3960, Note_on_c, 2, 46, 64
3, 4080, Note_on_c, 2, 46, 0
3, 4080, Note_on_c, 2, 45, 64
3, 4200, Note_on_c, 2, 45, 0
3, 4200, Note_on_c, 2, 43, 64
3, 4320, Note_on_c, 2, 43, 0
3, 4320, Note_on_c, 2, 41, 64
3, 4440, Note_on_c, 2, 41, 0
3, 4560, Note_on_c, 2, 45, 64
3, 4680, Note_on_c, 2, 45, 0
3, 4800, Note_on_c, 2, 48, 64
3, 4920, Note_on_c, 2, 48, 0
3, 5040, Note_on_c, 2, 45, 64
3, 5160, Note_on_c, 2, 45, 0
3, 5280, Note_on_c, 2, 53, 64
3, 5400, Note_on_c, 2, 53, 0
3, 5520, Note_on_c, 2, 48, 64
3, 5640, Note_on_c, 2, 48, 0
3, 5760, Note_on_c, 2, 57, 64
3, 5880, Note_on_c, 2, 57, 0
3, 5880, Note_on_c, 2, 60, 64
3, 6000, Note_on_c, 2, 60, 0
3, 6000, Note_on_c, 2, 58, 64
3, 6120, Note_on_c, 2, 58, 0
3, 6120, Note_on_c, 2, 60, 64
3, 6240, Note_on_c, 2, 60, 0
3, 6240, Note_on_c, 2, 57, 64
3, 6360, Note_on_c, 2, 57, 0
3, 6360, Note_on_c, 2, 60, 64
3, 6480, Note_on_c, 2, 60, 0
3, 6480, Note_on_c, 2, 58, 64
3, 6600, Note_on_c, 2, 58, 0
3, 6600, Note_on_c, 2, 60, 64
3, 6720, Note_on_c, 2, 60, 0
3, 6720, Note_on_c, 2, 57, 64
3, 6840, Note_on_c, 2, 57, 0
3, 6840, Note_on_c, 2, 60, 64
3, 6960, Note_on_c, 2, 60, 0
3, 6960, Note_on_c, 2, 58, 64
3, 7080, Note_on_c, 2, 58, 0
3, 7080, Note_on_c, 2, 60, 64
3, 7200, Note_on_c, 2, 60, 0
3, 7200, Note_on_c, 2, 53, 64
3, 7320, Note_on_c, 2, 53, 0
3, 7320, Note_on_c, 2, 57, 64
3, 7440, Note_on_c, 2, 57, 0
3, 7440, Note_on_c, 2, 55, 64
3, 7560, Note_on_c, 2, 55, 0
3, 7560, Note_on_c, 2, 57, 64
3, 7680, Note_on_c, 2, 57, 0
3, 7680, Note_on_c, 2, 53, 64
3, 7800, Note_on_c, 2, 53, 0
3, 7800, Note_on_c, 2, 57, 64
3, 7920, Note_on_c, 2, 57, 0
3, 7920, Note_on_c, 2, 55, 64
3, 8040, Note_on_c, 2, 55, 0
3, 8040, Note_on_c, 2, 57, 64
3, 8160, Note_on_c, 2, 57, 0
3, 8160, Note_on_c, 2, 53, 64
3, 8280, Note_on_c, 2, 53, 0
3, 8280, Note_on_c, 2, 57, 64
3, 8400, Note_on_c, 2, 57, 0
3, 8400, Note_on_c, 2, 55, 64
3, 8520, Note_on_c, 2, 55, 0
3, 8520, Note_on_c, 2, 57, 64
3, 8640, Note_on_c, 2, 57, 0
3, 8640, Note_on_c, 2, 50, 64
3, 8760, Note_on_c, 2, 50, 0
3, 8760, Note_on_c, 2, 53, 64
3, 8880, Note_on_c, 2, 53, 0
3, 8880, Note_on_c, 2, 52, 64
3, 9000, Note_on_c, 2, 52, 0
3, 9000, Note_on_c, 2, 53, 64
3, 9120, Note_on_c, 2, 53, 0
3, 9120, Note_on_c, 2, 50, 64
3, 9240, Note_on_c, 2, 50, 0
3, 9240, Note_on_c, 2, 53, 64
3, 9360, Note_on_c, 2, 53, 0
3, 9360, Note_on_c, 2, 52, 64
3, 9480, Note_on_c, 2, 52, 0
3, 9480, Note_on_c, 2, 53, 64
3, 9600, Note_on_c, 2, 53, 0
3, 9600, Note_on_c, 2, 50, 64
3, 9720, Note_on_c, 2, 50, 0
3, 9720, Note_on_c, 2, 53, 64
3, 9840, Note_on_c, 2, 53, 0
3, 9840, Note_on_c, 2, 52, 64
3, 9960, Note_on_c, 2, 52, 0
3, 9960, Note_on_c, 2, 53, 64
3, 10080, Note_on_c, 2, 53, 0
3, 10080, Note_on_c, 2, 47, 64
3, 10200, Note_on_c, 2, 47, 0
3, 10320, Note_on_c, 2, 43, 64
3, 10440, Note_on_c, 2, 43, 0
3, 10560, Note_on_c, 2, 48, 64
3, 10680, Note_on_c, 2, 48, 0
3, 10800, Note_on_c, 2, 43, 64
3, 10920, Note_on_c, 2, 43, 0
3, 11040, Note_on_c, 2, 52, 64
3, 11160, Note_on_c, 2, 52, 0
3, 11280, Note_on_c, 2, 48, 64
3, 11400, Note_on_c, 2, 48, 0
3, 11520, Note_on_c, 2, 53, 64
3, 11520, Control_c, 2, 7, 111
3, 11560, Control_c, 2, 7, 110
3, 11600, Control_c, 2, 7, 109
3, 11640, Note_on_c, 2, 53, 0
3, 11640, Note_on_c, 2, 55, 64
3, 11640, Control_c, 2, 7, 108
3, 11680, Control_c, 2, 7, 107
3, 11720, Control_c, 2, 7, 106
3, 11760, Note_on_c, 2, 55, 0
3, 11760, Note_on_c, 2, 53, 64
3, 11760, Control_c, 2, 7, 105
3, 11800, Control_c, 2, 7, 104
3, 11840, Control_c, 2, 7, 103
3, 11880, Note_on_c, 2, 53, 0
3, 11880, Note_on_c, 2, 52, 64
3, 11880, Control_c, 2, 7, 102
3, 11920, Control_c, 2, 7, 101
3, 11960, Control_c, 2, 7, 100
3, 12000, Note_on_c, 2, 52, 0
3, 12000, Note_on_c, 2, 50, 64
3, 12000, Control_c, 2, 7, 99
3, 12040, Control_c, 2, 7, 98
3, 12080, Control_c, 2, 7, 97
3, 12120, Note_on_c, 2, 50, 0
3, 12120, Note_on_c, 2, 52, 64
3, 12120, Control_c, 2, 7, 96
3, 12160, Control_c, 2, 7, 95
3, 12200, Control_c, 2, 7, 94
3, 12240, Note_on_c, 2, 52, 0
3, 12240, Note_on_c, 2, 50, 64
3, 12240, Control_c, 2, 7, 93
3, 12280, Control_c, 2, 7, 92
3, 12320, Control_c, 2, 7, 91
3, 12360, Note_on_c, 2, 50, 0
3, 12360, Note_on_c, 2, 48, 64
3, 12360, Control_c, 2, 7, 90
3, 12400, Control_c, 2, 7, 89
3, 12440, Control_c, 2, 7, 88
3, 12480, Note_on_c, 2, 48, 0
3, 12480, Note_on_c, 2, 47, 64
3, 12480, Control_c, 2, 7, 87
3, 12520, Control_c, 2, 7, 86
3, 12560, Control_c, 2, 7, 85
3, 12600, Note_on_c, 2, 47, 0
3, 12600, Note_on_c, 2, 48, 64
3, 12600, Control_c, 2, 7, 84
3, 12640, Control_c, 2, 7, 83
3, 12680, Control_c, 2, 7, 82
3, 12720, Note_on_c, 2, 48, 0
3, 12720, Note_on_c, 2, 47, 64
3, 12720, Control_c, 2, 7, 81
3, 12760, Control_c, 2, 7, 80
3, 12800, Control_c, 2, 7, 79
3, 12840, Note_on_c, 2, 47, 0
3, 12840, Note_on_c, 2, 45, 64
3, 12960, Note_on_c, 2, 45, 0
3, 12960, Note_on_c, 2, 43, 64
3, 13080, Note_on_c, 2, 43, 0
3, 13200, Note_on_c, 2, 60, 64
3, 13320, Note_on_c, 2, 60, 0
3, 13320, Note_on_c, 2, 59, 64
3, 13440, Note_on_c, 2, 59, 0
3, 13440, Note_on_c, 2, 57, 64
3, 13560, Note_on_c, 2, 57, 0
3, 13560, Note_on_c, 2, 59, 64
3, 13680, Note_on_c, 2, 59, 0
3, 13680, Note_on_c, 2, 57, 64
3, 13800, Note_on_c, 2, 57, 0
3, 13800, Note_on_c, 2, 55, 64
3, 13920, Note_on_c, 2, 55, 0
3, 13920, Note_on_c, 2, 53, 64
3, 14040, Note_on_c, 2, 53, 0
3, 14040, Note_on_c, 2, 55, 64
3, 14160, Note_on_c, 2, 55, 0
3, 14160, Note_on_c, 2, 53, 64
3, 14280, Note_on_c, 2, 53, 0
3, 14280, Note_on_c, 2, 52, 64
3, 14400, Note_on_c, 2, 52, 0
3, 14400, Note_on_c, 2, 50, 64
3, 14520, Note_on_c, 2, 50, 0
3, 14520, Note_on_c, 2, 52, 64
3, 14640, Note_on_c, 2, 52, 0
3, 14640, Note_on_c, 2, 50, 64
3, 14760, Note_on_c, 2, 50, 0
3, 14760, Note_on_c, 2, 48, 64
3, 14880, Note_on_c, 2, 48, 0
3, 14880, Note_on_c, 2, 55, 64
3, 15000, Note_on_c, 2, 55, 0
3, 15000, Note_on_c, 2, 53, 64
3, 15120, Note_on_c, 2, 53, 0
3, 15120, Note_on_c, 2, 52, 64
3, 15240, Note_on_c, 2, 52, 0
3, 15240, Note_on_c, 2, 53, 64
3, 15360, Note_on_c, 2, 53, 0
3, 15360, Note_on_c, 2, 55, 64
3, 15480, Note_on_c, 2, 55, 0
3, 15600, Note_on_c, 2, 43, 64
3, 15720, Note_on_c, 2, 43, 0
3, 16080, Note_on_c, 2, 48, 64
3, 16200, Note_on_c, 2, 48, 0
3, 16320, Note_on_c, 2, 52, 64
3, 16440, Note_on_c, 2, 52, 0
3, 16560, Note_on_c, 2, 48, 64
3, 16680, Note_on_c, 2, 48, 0
3, 16800, Note_on_c, 2, 55, 64
3, 16920, Note_on_c, 2, 55, 0
3, 17040, Note_on_c, 2, 48, 64
3, 17160, Note_on_c, 2, 48, 0
3, 17280, Note_on_c, 2, 60, 64
3, 17400, Note_on_c, 2, 60, 0
3, 17520, Note_on_c, 2, 59, 64
3, 17640, Note_on_c, 2, 59, 0
3, 17640, Note_on_c, 2, 57, 64
3, 17760, Note_on_c, 2, 57, 0
3, 17760, Note_on_c, 2, 55, 64
3, 17880, Note_on_c, 2, 55, 0
3, 17880, Note_on_c, 2, 57, 64
3, 18000, Note_on_c, 2, 57, 0
3, 18000, Note_on_c, 2, 55, 64
3, 18120, Note_on_c, 2, 55, 0
3, 18120, Note_on_c, 2, 53, 64
3, 18240, Note_on_c, 2, 53, 0
3, 18240, Note_on_c, 2, 52, 64
3, 18360, Note_on_c, 2, 52, 0
3, 18360, Note_on_c, 2, 53, 64
3, 18480, Note_on_c, 2, 53, 0
3, 18480, Note_on_c, 2, 52, 64
3, 18600, Note_on_c, 2, 52, 0
3, 18600, Note_on_c, 2, 50, 64
3, 18680, Control_c, 2, 7, 79
3, 18720, Note_on_c, 2, 50, 0
3, 18720, Note_on_c, 2, 48, 64
3, 18920, Control_c, 2, 7, 80
3, 18960, Note_on_c, 2, 48, 0
3, 18960, Note_on_c, 2, 40, 64
3, 19080, Note_on_c, 2, 40, 0
3, 19160, Control_c, 2, 7, 81
3, 19200, Note_on_c, 2, 43, 64
3, 19320, Note_on_c, 2, 43, 0
3, 19360, Control_c, 2, 7, 82
3, 19440, Note_on_c, 2, 40, 64
3, 19560, Note_on_c, 2, 40, 0
3, 19600, Control_c, 2, 7, 83
3, 19680, Note_on_c, 2, 48, 64
3, 19800, Note_on_c, 2, 48, 0
3, 19800, Control_c, 2, 7, 84
3, 19920, Note_on_c, 2, 43, 64
3, 20040, Control_c, 2, 7, 85
3, 20160, Note_on_c, 2, 43, 0
3, 20160, Note_on_c, 2, 51, 64
3, 20240, Control_c, 2, 7, 86
3, 20280, Note_on_c, 2, 51, 0
3, 20400, Note_on_c, 2, 42, 64
3, 20480, Control_c, 2, 7, 87
3, 20520, Note_on_c, 2, 42, 0
3, 20640, Note_on_c, 2, 51, 64
3, 20680, Control_c, 2, 7, 88
3, 20760, Note_on_c, 2, 51, 0
3, 20880, Note_on_c, 2, 42, 64
3, 20920, Control_c, 2, 7, 89
3, 21000, Note_on_c, 2, 42, 0
3, 21120, Note_on_c, 2, 51, 64
3, 21120, Control_c, 2, 7, 90
3, 21240, Note_on_c, 2, 51, 0
3, 21360, Note_on_c, 2, 42, 64
3, 21360, Control_c, 2, 7, 91
3, 21480, Note_on_c, 2, 42, 0
3, 21560, Control_c, 2, 7, 92
3, 21600, Note_on_c, 2, 43, 64
3, 21720, Note_on_c, 2, 43, 0
3, 21800, Control_c, 2, 7, 93
3, 21840, Note_on_c, 2, 53, 64
3, 21960, Note_on_c, 2, 53, 0
3, 21960, Note_on_c, 2, 51, 64
3, 22000, Control_c, 2, 7, 94
3, 22080, Note_on_c, 2, 51, 0
3, 22080, Note_on_c, 2, 50, 64
3, 22200, Note_on_c, 2, 50, 0
3, 22200, Note_on_c, 2, 51, 64
3, 22240, Control_c, 2, 7, 95
3, 22320, Note_on_c, 2, 51, 0
3, 22320, Note_on_c, 2, 50, 64
3, 22440, Note_on_c, 2, 50, 0
3, 22440, Note_on_c, 2, 48, 64
3, 22440, Control_c, 2, 7, 96
3, 22560, Note_on_c, 2, 48, 0
3, 22560, Note_on_c, 2, 46, 64
3, 22680, Note_on_c, 2, 46, 0
3, 22680, Note_on_c, 2, 48, 64
3, 22680, Control_c, 2, 7, 97
3, 22800, Note_on_c, 2, 48, 0
3, 22800, Note_on_c, 2, 46, 64
3, 22880, Control_c, 2, 7, 98
3, 22920, Note_on_c, 2, 46, 0
3, 22920, Note_on_c, 2, 45, 64
3, 23040, Note_on_c, 2, 45, 0
3, 23040, Note_on_c, 2, 43, 64
3, 23120, Control_c, 2, 7, 99
3, 23160, Note_on_c, 2, 43, 0
3, 23280, Note_on_c, 2, 43, 64
3, 23320, Control_c, 2, 7, 100
3, 23400, Note_on_c, 2, 43, 0
3, 23520, Note_on_c, 2, 46, 64
3, 23560, Control_c, 2, 7, 101
3, 23640, Note_on_c, 2, 46, 0
3, 23760, Note_on_c, 2, 43, 64
3, 23760, Control_c, 2, 7, 102
3, 23880, Note_on_c, 2, 43, 0
3, 24000, Note_on_c, 2, 50, 64
3, 24000, Control_c, 2, 7, 103
3, 24120, Note_on_c, 2, 50, 0
3, 24200, Control_c, 2, 7, 104
3, 24240, Note_on_c, 2, 43, 64
3, 24360, Note_on_c, 2, 43, 0
3, 24440, Control_c, 2, 7, 105
3, 24480, Note_on_c, 2, 55, 64
3, 24600, Note_on_c, 2, 55, 0
3, 24640, Control_c, 2, 7, 106
3, 24720, Note_on_c, 2, 53, 64
3, 24840, Note_on_c, 2, 53, 0
3, 24840, Note_on_c, 2, 51, 64
3, 24880, Control_c, 2, 7, 107
3, 24960, Note_on_c, 2, 51, 0
3, 24960, Note_on_c, 2, 50, 64
3, 25080, Note_on_c, 2, 50, 0
3, 25080, Note_on_c, 2, 51, 64
3, 25080, Control_c, 2, 7, 108
3, 25200, Note_on_c, 2, 51, 0
3, 25200, Note_on_c, 2, 50, 64
3, 25320, Note_on_c, 2, 50, 0
3, 25320, Note_on_c, 2, 48, 64
3, 25320, Control_c, 2, 7, 109
3, 25440, Note_on_c, 2, 48, 0
3, 25440, Note_on_c, 2, 46, 64
3, 25520, Control_c, 2, 7, 110
3, 25560, Note_on_c, 2, 46, 0
3, 25560, Note_on_c, 2, 48, 64
3, 25680, Note_on_c, 2, 48, 0
3, 25680, Note_on_c, 2, 46, 64
3, 25760, Control_c, 2, 7, 111
3, 25800, Note_on_c, 2, 46, 0
3, 25800, Note_on_c, 2, 45, 64
3, 25920, Note_on_c, 2, 45, 0
3, 25920, Note_on_c, 2, 43, 64
3, 25960, Control_c, 2, 7, 112
3, 26040, Note_on_c, 2, 43, 0
3, 26040, Note_on_c, 2, 41, 64
3, 26160, Note_on_c, 2, 41, 0
3, 26160, Note_on_c, 2, 43, 64
3, 26280, Note_on_c, 2, 43, 0
3, 26280, Note_on_c, 2, 52, 64
3, 26400, Note_on_c, 2, 52, 0
3, 26400, Note_on_c, 2, 43, 64
3, 26520, Note_on_c, 2, 43, 0
3, 26520, Note_on_c, 2, 52, 64
3, 26640, Note_on_c, 2, 52, 0
3, 26640, Note_on_c, 2, 41, 64
3, 26760, Note_on_c, 2, 41, 0
3, 26760, Note_on_c, 2, 52, 64
3, 26880, Note_on_c, 2, 52, 0
3, 26880, Note_on_c, 2, 43, 64
3, 27000, Note_on_c, 2, 43, 0
3, 27000, Note_on_c, 2, 52, 64
3, 27120, Note_on_c, 2, 52, 0
3, 27120, Note_on_c, 2, 40, 64
3, 27240, Note_on_c, 2, 40, 0
3, 27240, Note_on_c, 2, 52, 64
3, 27360, Note_on_c, 2, 52, 0
3, 27360, Note_on_c, 2, 41, 64
3, 27480, Note_on_c, 2, 41, 0
3, 27480, Note_on_c, 2, 40, 64
3, 27600, Note_on_c, 2, 40, 0
3, 27600, Note_on_c, 2, 41, 64
3, 27720, Note_on_c, 2, 41, 0
3, 27720, Note_on_c, 2, 50, 64
3, 27840, Note_on_c, 2, 50, 0
3, 27840, Note_on_c, 2, 41, 64
3, 27960, Note_on_c, 2, 41, 0
3, 27960, Note_on_c, 2, 50, 64
3, 28080, Note_on_c, 2, 50, 0
3, 28080, Note_on_c, 2, 40, 64
3, 28200, Note_on_c, 2, 40, 0
3, 28200, Note_on_c, 2, 50, 64
3, 28320, Note_on_c, 2, 50, 0
3, 28320, Note_on_c, 2, 41, 64
3, 28440, Note_on_c, 2, 41, 0
3, 28440, Note_on_c, 2, 50, 64
3, 28560, Note_on_c, 2, 50, 0
3, 28560, Note_on_c, 2, 38, 64
3, 28680, Note_on_c, 2, 38, 0
3, 28680, Note_on_c, 2, 50, 64
3, 28800, Note_on_c, 2, 50, 0
3, 28800, Note_on_c, 2, 46, 64
3, 28920, Note_on_c, 2, 46, 0
3, 29040, Note_on_c, 2, 55, 64
3, 29160, Note_on_c, 2, 55, 0
3, 29280, Note_on_c, 2, 52, 64
3, 29400, Note_on_c, 2, 52, 0
3, 29520, Note_on_c, 2, 55, 64
3, 29640, Note_on_c, 2, 55, 0
3, 29760, Note_on_c, 2, 48, 64
3, 29880, Note_on_c, 2, 48, 0
3, 30000, Note_on_c, 2, 52, 64
3, 30120, Note_on_c, 2, 52, 0
3, 30240, Note_on_c, 2, 45, 64
3, 30360, Note_on_c, 2, 45, 0
3, 30480, Note_on_c, 2, 53, 64
3, 30600, Note_on_c, 2, 53, 0
3, 30720, Note_on_c, 2, 50, 64
3, 30840, Note_on_c, 2, 50, 0
3, 30960, Note_on_c, 2, 53, 64
3, 31080, Note_on_c, 2, 53, 0
3, 31200, Note_on_c, 2, 47, 64
3, 31320, Note_on_c, 2, 47, 0
3, 31440, Note_on_c, 2, 50, 64
3, 31560, Note_on_c, 2, 50, 0
3, 31680, Note_on_c, 2, 43, 64
3, 31800, Note_on_c, 2, 43, 0
3, 31920, Note_on_c, 2, 52, 64
3, 32040, Note_on_c, 2, 52, 0
3, 32160, Note_on_c, 2, 49, 64
3, 32280, Note_on_c, 2, 49, 0
3, 32400, Note_on_c, 2, 52, 64
3, 32520, Note_on_c, 2, 52, 0
3, 32640, Note_on_c, 2, 45, 64
3, 32760, Note_on_c, 2, 45, 0
3, 32880, Note_on_c, 2, 49, 64
3, 33000, Note_on_c, 2, 49, 0
3, 33120, Note_on_c, 2, 41, 64
3, 33240, Note_on_c, 2, 41, 0
3, 33240, Note_on_c, 2, 50, 64
3, 33360, Note_on_c, 2, 50, 0
3, 33360, Note_on_c, 2, 48, 64
3, 33480, Note_on_c, 2, 48, 0
3, 33480, Note_on_c, 2, 50, 64
3, 33600, Note_on_c, 2, 50, 0
3, 33600, Note_on_c, 2, 43, 64
3, 33720, Note_on_c, 2, 43, 0
3, 33720, Note_on_c, 2, 50, 64
3, 33840, Note_on_c, 2, 50, 0
3, 33840, Note_on_c, 2, 45, 64
3, 33960, Note_on_c, 2, 45, 0
3, 33960, Note_on_c, 2, 50, 64
3, 34080, Note_on_c, 2, 50, 0
3, 34080, Note_on_c, 2, 46, 64
3, 34200, Note_on_c, 2, 46, 0
3, 34200, Note_on_c, 2, 50, 64
3, 34320, Note_on_c, 2, 50, 0
3, 34320, Note_on_c, 2, 43, 64
3, 34440, Note_on_c, 2, 43, 0
3, 34440, Note_on_c, 2, 50, 64
3, 34560, Note_on_c, 2, 50, 0
3, 34560, Note_on_c, 2, 36, 64
3, 34680, Note_on_c, 2, 36, 0
3, 34680, Note_on_c, 2, 48, 64
3, 34800, Note_on_c, 2, 48, 0
3, 34800, Note_on_c, 2, 46, 64
3, 34920, Note_on_c, 2, 46, 0
3, 34920, Note_on_c, 2, 48, 64
3, 35040, Note_on_c, 2, 48, 0
3, 35040, Note_on_c, 2, 41, 64
3, 35160, Note_on_c, 2, 41, 0
3, 35160, Note_on_c, 2, 48, 64
3, 35280, Note_on_c, 2, 48, 0
3, 35280, Note_on_c, 2, 43, 64
3, 35400, Note_on_c, 2, 43, 0
3, 35400, Note_on_c, 2, 48, 64
3, 35520, Note_on_c, 2, 48, 0
3, 35520, Note_on_c, 2, 45, 64
3, 35640, Note_on_c, 2, 45, 0
3, 35640, Note_on_c, 2, 48, 64
3, 35760, Note_on_c, 2, 48, 0
3, 35760, Note_on_c, 2, 41, 64
3, 35880, Note_on_c, 2, 41, 0
3, 35880, Note_on_c, 2, 48, 64
3, 35960, Control_c, 2, 7, 106
3, 36000, Note_on_c, 2, 48, 0
3, 36000, Note_on_c, 2, 46, 64
3, 36040, Control_c, 2, 7, 105
3, 36080, Control_c, 2, 7, 104
3, 36120, Note_on_c, 2, 46, 0
3, 36120, Control_c, 2, 7, 103
3, 36160, Control_c, 2, 7, 102
3, 36240, Note_on_c, 2, 50, 64
3, 36240, Control_c, 2, 7, 101
3, 36280, Control_c, 2, 7, 100
3, 36320, Control_c, 2, 7, 99
3, 36360, Note_on_c, 2, 50, 0
3, 36360, Control_c, 2, 7, 98
3, 36400, Control_c, 2, 7, 97
3, 36480, Note_on_c, 2, 53, 64
3, 36480, Control_c, 2, 7, 96
3, 36520, Control_c, 2, 7, 95
3, 36560, Control_c, 2, 7, 94
3, 36600, Note_on_c, 2, 53, 0
3, 36600, Control_c, 2, 7, 93
3, 36640, Control_c, 2, 7, 92
3, 36720, Note_on_c, 2, 50, 64
3, 36720, Control_c, 2, 7, 91
3, 36760, Control_c, 2, 7, 90
3, 36800, Control_c, 2, 7, 89
3, 36840, Note_on_c, 2, 50, 0
3, 36840, Control_c, 2, 7, 88
3, 36920, Control_c, 2, 7, 87
3, 36960, Note_on_c, 2, 58, 64
3, 36960, Control_c, 2, 7, 86
3, 37000, Control_c, 2, 7, 85
3, 37040, Control_c, 2, 7, 84
3, 37080, Note_on_c, 2, 58, 0
3, 37080, Control_c, 2, 7, 83
3, 37160, Control_c, 2, 7, 82
3, 37200, Note_on_c, 2, 41, 64
3, 37200, Control_c, 2, 7, 81
3, 37240, Control_c, 2, 7, 80
3, 37280, Control_c, 2, 7, 79
3, 37320, Note_on_c, 2, 41, 0
3, 37320, Control_c, 2, 7, 78
3, 37440, Note_on_c, 2, 50, 64
3, 37560, Note_on_c, 2, 50, 0
3, 37560, Note_on_c, 2, 53, 64
3, 37680, Note_on_c, 2, 53, 0
3, 37680, Note_on_c, 2, 51, 64
3, 37800, Note_on_c, 2, 51, 0
3, 37800, Note_on_c, 2, 53, 64
3, 37920, Note_on_c, 2, 53, 0
3, 37920, Note_on_c, 2, 50, 64
3, 38040, Note_on_c, 2, 50, 0
3, 38040, Note_on_c, 2, 53, 64
3, 38160, Note_on_c, 2, 53, 0
3, 38160, Note_on_c, 2, 51, 64
3, 38280, Note_on_c, 2, 51, 0
3, 38280, Note_on_c, 2, 53, 64
3, 38400, Note_on_c, 2, 53, 0
3, 38400, Note_on_c, 2, 50, 64
3, 38520, Note_on_c, 2, 50, 0
3, 38520, Note_on_c, 2, 53, 64
3, 38640, Note_on_c, 2, 53, 0
3, 38640, Note_on_c, 2, 51, 64
3, 38760, Note_on_c, 2, 51, 0
3, 38760, Note_on_c, 2, 53, 64
3, 38880, Note_on_c, 2, 53, 0
3, 38880, Note_on_c, 2, 46, 64
3, 39000, Note_on_c, 2, 46, 0
3, 39000, Note_on_c, 2, 50, 64
3, 39120, Note_on_c, 2, 50, 0
3, 39120, Note_on_c, 2, 48, 64
3, 39240, Note_on_c, 2, 48, 0
3, 39240, Note_on_c, 2, 50, 64
3, 39360, Note_on_c, 2, 50, 0
3, 39360, Note_on_c, 2, 46, 64
3, 39480, Note_on_c, 2, 46, 0
3, 39480, Note_on_c, 2, 50, 64
3, 39600, Note_on_c, 2, 50, 0
3, 39600, Note_on_c, 2, 48, 64
3, 39720, Note_on_c, 2, 48, 0
3, 39720, Note_on_c, 2, 50, 64
3, 39840, Note_on_c, 2, 50, 0
3, 39840, Note_on_c, 2, 46, 64
3, 39960, Note_on_c, 2, 46, 0
3, 39960, Note_on_c, 2, 50, 64
3, 40080, Note_on_c, 2, 50, 0
3, 40080, Note_on_c, 2, 48, 64
3, 40200, Note_on_c, 2, 48, 0
3, 40200, Note_on_c, 2, 50, 64
3, 40320, Note_on_c, 2, 50, 0
3, 40320, Note_on_c, 2, 43, 64
3, 40400, Control_c, 2, 7, 80
3, 40440, Note_on_c, 2, 43, 0
3, 40440, Note_on_c, 2, 46, 64
3, 40520, Control_c, 2, 7, 81
3, 40560, Note_on_c, 2, 46, 0
3, 40560, Note_on_c, 2, 45, 64
3, 40600, Control_c, 2, 7, 82
3, 40680, Note_on_c, 2, 45, 0
3, 40680, Note_on_c, 2, 46, 64
3, 40680, Control_c, 2, 7, 83
3, 40760, Control_c, 2, 7, 84
3, 40800, Note_on_c, 2, 46, 0
3, 40800, Note_on_c, 2, 43, 64
3, 40880, Control_c, 2, 7, 85
3, 40920, Note_on_c, 2, 43, 0
3, 40920, Note_on_c, 2, 46, 64
3, 40960, Control_c, 2, 7, 86
3, 41040, Note_on_c, 2, 46, 0
3, 41040, Note_on_c, 2, 45, 64
3, 41040, Control_c, 2, 7, 87
3, 41120, Control_c, 2, 7, 88
3, 41160, Note_on_c, 2, 45, 0
3, 41160, Note_on_c, 2, 46, 64
3, 41240, Control_c, 2, 7, 89
3, 41280, Note_on_c, 2, 46, 0
3, 41280, Note_on_c, 2, 43, 64
3, 41320, Control_c, 2, 7, 90
3, 41400, Note_on_c, 2, 43, 0
3, 41400, Note_on_c, 2, 46, 64
3, 41400, Control_c, 2, 7, 91
3, 41480, Control_c, 2, 7, 92
3, 41520, Note_on_c, 2, 46, 0
3, 41520, Note_on_c, 2, 45, 64
3, 41600, Control_c, 2, 7, 93
3, 41640, Note_on_c, 2, 45, 0
3, 41640, Note_on_c, 2, 46, 64
3, 41680, Control_c, 2, 7, 94
3, 41760, Note_on_c, 2, 46, 0
3, 41760, Note_on_c, 2, 40, 64
3, 41760, Control_c, 2, 7, 95
3, 41840, Control_c, 2, 7, 96
3, 41880, Note_on_c, 2, 40, 0
3, 41920, Control_c, 2, 7, 97
3, 42000, Note_on_c, 2, 48, 64
3, 42040, Control_c, 2, 7, 98
3, 42120, Note_on_c, 2, 48, 0
3, 42120, Control_c, 2, 7, 99
3, 42200, Control_c, 2, 7, 100
3, 42240, Note_on_c, 2, 53, 64
3, 42280, Control_c, 2, 7, 101
3, 42360, Note_on_c, 2, 53, 0
3, 42400, Control_c, 2, 7, 102
3, 42480, Note_on_c, 2, 48, 64
3, 42480, Control_c, 2, 7, 103
3, 42560, Control_c, 2, 7, 104
3, 42600, Note_on_c, 2, 48, 0
3, 42640, Control_c, 2, 7, 105
3, 42720, Note_on_c, 2, 57, 64
3, 42760, Control_c, 2, 7, 106
3, 42840, Note_on_c, 2, 57, 0
3, 42840, Control_c, 2, 7, 107
3, 42920, Control_c, 2, 7, 108
3, 42960, Note_on_c, 2, 53, 64
3, 43000, Control_c, 2, 7, 109
3, 43080, Note_on_c, 2, 53, 0
3, 43080, Control_c, 2, 7, 110
3, 43200, Note_on_c, 2, 58, 64
3, 43320, Note_on_c, 2, 58, 0
3, 43320, Note_on_c, 2, 60, 64
3, 43440, Note_on_c, 2, 60, 0
3, 43440, Note_on_c, 2, 58, 64
3, 43560, Note_on_c, 2, 58, 0
3, 43560, Note_on_c, 2, 57, 64
3, 43680, Note_on_c, 2, 57, 0
3, 43680, Note_on_c, 2, 55, 64
3, 43800, Note_on_c, 2, 55, 0
3, 43800, Note_on_c, 2, 57, 64
3, 43920, Note_on_c, 2, 57, 0
3, 43920, Note_on_c, 2, 55, 64
3, 44040, Note_on_c, 2, 55, 0
3, 44040, Note_on_c, 2, 53, 64
3, 44160, Note_on_c, 2, 53, 0
3, 44160, Note_on_c, 2, 52, 64
3, 44280, Note_on_c, 2, 52, 0
3, 44280, Note_on_c, 2, 53, 64
3, 44400, Note_on_c, 2, 53, 0
3, 44400, Note_on_c, 2, 52, 64
3, 44520, Note_on_c, 2, 52, 0
3, 44520, Note_on_c, 2, 50, 64
3, 44560, Control_c, 2, 7, 109
3, 44640, Note_on_c, 2, 50, 0
3, 44640, Note_on_c, 2, 48, 64
3, 44640, Control_c, 2, 7, 108
3, 44680, Control_c, 2, 7, 107
3, 44760, Control_c, 2, 7, 106
3, 44800, Control_c, 2, 7, 105
3, 44880, Note_on_c, 2, 48, 0
3, 44880, Note_on_c, 2, 53, 64
3, 44880, Control_c, 2, 7, 104
3, 44920, Control_c, 2, 7, 103
3, 45000, Note_on_c, 2, 53, 0
3, 45000, Note_on_c, 2, 52, 64
3, 45000, Control_c, 2, 7, 102
3, 45040, Control_c, 2, 7, 101
3, 45120, Note_on_c, 2, 52, 0
3, 45120, Note_on_c, 2, 50, 64
3, 45120, Control_c, 2, 7, 100
3, 45160, Control_c, 2, 7, 99
3, 45240, Note_on_c, 2, 50, 0
3, 45240, Note_on_c, 2, 52, 64
3, 45240, Control_c, 2, 7, 98
3, 45280, Control_c, 2, 7, 97
3, 45320, Control_c, 2, 7, 96
3, 45360, Note_on_c, 2, 52, 0
3, 45360, Note_on_c, 2, 50, 64
3, 45400, Control_c, 2, 7, 95
3, 45440, Control_c, 2, 7, 94
3, 45480, Note_on_c, 2, 50, 0
3, 45480, Note_on_c, 2, 48, 64
3, 45520, Control_c, 2, 7, 93
3, 45560, Control_c, 2, 7, 92
3, 45600, Note_on_c, 2, 48, 0
3, 45600, Note_on_c, 2, 46, 64
3, 45640, Control_c, 2, 7, 91
3, 45680, Control_c, 2, 7, 90
3, 45720, Note_on_c, 2, 46, 0
3, 45720, Note_on_c, 2, 48, 64
3, 45760, Control_c, 2, 7, 89
3, 45800, Control_c, 2, 7, 88
3, 45840, Note_on_c, 2, 48, 0
3, 45840, Note_on_c, 2, 46, 64
3, 45880, Control_c, 2, 7, 87
3, 45920, Control_c, 2, 7, 86
3, 45960, Note_on_c, 2, 46, 0
3, 45960, Note_on_c, 2, 45, 64
3, 45960, Control_c, 2, 7, 85
3, 46040, Control_c, 2, 7, 84
3, 46080, Note_on_c, 2, 45, 0
3, 46080, Note_on_c, 2, 43, 64
3, 46080, Control_c, 2, 7, 83
3, 46160, Control_c, 2, 7, 82
3, 46200, Note_on_c, 2, 43, 0
3, 46200, Note_on_c, 2, 45, 64
3, 46200, Control_c, 2, 7, 81
3, 46280, Control_c, 2, 7, 80
3, 46320, Note_on_c, 2, 45, 0
3, 46320, Note_on_c, 2, 43, 64
3, 46320, Control_c, 2, 7, 79
3, 46400, Control_c, 2, 7, 78
3, 46440, Note_on_c, 2, 43, 0
3, 46440, Note_on_c, 2, 41, 64
3, 46440, Control_c, 2, 7, 77
3, 46520, Control_c, 2, 7, 76
3, 46560, Note_on_c, 2, 41, 0
3, 46560, Note_on_c, 2, 48, 64
3, 46560, Control_c, 2, 7, 75
3, 46600, Control_c, 2, 7, 74
3, 46680, Note_on_c, 2, 48, 0
3, 46680, Note_on_c, 2, 46, 64
3, 46800, Note_on_c, 2, 46, 0
3, 46800, Note_on_c, 2, 45, 64
3, 46920, Note_on_c, 2, 45, 0
3, 46920, Note_on_c, 2, 46, 64
3, 47040, Note_on_c, 2, 46, 0
3, 47040, Note_on_c, 2, 48, 64
3, 47160, Note_on_c, 2, 48, 0
3, 47280, Note_on_c, 2, 36, 64
3, 47400, Note_on_c, 2, 36, 0
3, 47520, Note_on_c, 2, 41, 90
3, 48000, Note_on_c, 2, 41, 0
3, 48000, End_track
4, 0, Start_track
4, 0, End_track
0, 0, End_of_file
