0, 0, Header, 1, 16, 1024
1, 0, Start_track
1, 0, Time_signature, 1, 2, 24, 8
1, 0, Key_signature, 2, "major"
1, 0, Tempo, 625000
1, 0, Title_t, "Bach's B minor Mass: 19. Sanctus"
1, 0, Copyright_t, "seq. by David Siu      dss@po.cwru.edu"
1, 1024, Time_signature, 4, 2, 24, 8
1, 1024, Tempo, 967741
1, 189398, Tempo, 1000000
1, 190138, Tempo, 1016949
1, 190730, Tempo, 1034482
1, 191322, Tempo, 1052631
1, 191914, Tempo, 1071428
1, 192506, Tempo, 1090909
1, 193302, Tempo, 1578947
1, 193536, Time_signature, 3, 3, 36, 8
1, 193536, Tempo, 631578
1, 376162, Tempo, 645161
1, 376310, Tempo, 666666
1, 376458, Tempo, 697674
1, 376606, Tempo, 731707
1, 376754, Tempo, 769230
1, 376902, Tempo, 810810
1, 377050, Tempo, 857142
1, 377198, Tempo, 909090
1, 377346, Tempo, 967741
1, 377494, Tempo, 1034482
1, 377642, Tempo, 1111111
1, 379392, End_track
2, 0, Start_track
2, 0, Title_t, "Alto II"
2, 0, Program_c, 13, 52
2, 0, Control_c, 13, 121, 127
2, 0, Control_c, 13, 91, 127
2, 0, Control_c, 13, 1, 10
2, 0, Control_c, 13, 10, 80
2, 1024, Note_on_c, 13, 66, 108
2, 1365, Note_on_c, 13, 66, 0
2, 1365, Note_on_c, 13, 67, 101
2, 1707, Note_on_c, 13, 67, 0
2, 1707, Note_on_c, 13, 69, 104
2, 2048, Note_on_c, 13, 69, 0
2, 2048, Note_on_c, 13, 69, 106
2, 2918, Note_on_c, 13, 69, 0
2, 5120, Note_on_c, 13, 66, 109
2, 5461, Note_on_c, 13, 66, 0
2, 5461, Note_on_c, 13, 67, 100
2, 5803, Note_on_c, 13, 67, 0
2, 5803, Note_on_c, 13, 69, 103
2, 6144, Note_on_c, 13, 69, 0
2, 6144, Note_on_c, 13, 69, 107
2, 7014, Note_on_c, 13, 69, 0
2, 9216, Note_on_c, 13, 67, 107
2, 9557, Note_on_c, 13, 67, 0
2, 9557, Note_on_c, 13, 69, 98
2, 9899, Note_on_c, 13, 69, 0
2, 9899, Note_on_c, 13, 71, 102
2, 10240, Note_on_c, 13, 71, 0
2, 10240, Note_on_c, 13, 71, 105
2, 11110, Note_on_c, 13, 71, 0
2, 17408, Note_on_c, 13, 66, 99
2, 17749, Note_on_c, 13, 66, 0
2, 17749, Note_on_c, 13, 67, 97
2, 18091, Note_on_c, 13, 67, 0
2, 18091, Note_on_c, 13, 69, 97
2, 18432, Note_on_c, 13, 69, 0
2, 18432, Note_on_c, 13, 62, 97
2, 18773, Note_on_c, 13, 62, 0
2, 18773, Note_on_c, 13, 64, 97
2, 19115, Note_on_c, 13, 64, 0
2, 19115, Note_on_c, 13, 66, 97
2, 19456, Note_on_c, 13, 66, 0
2, 19456, Note_on_c, 13, 64, 97
2, 20037, Note_on_c, 13, 64, 0
2, 20139, Note_on_c, 13, 64, 97
2, 20480, Note_on_c, 13, 64, 0
2, 20480, Note_on_c, 13, 61, 97
2, 21350, Note_on_c, 13, 61, 0
2, 21504, Note_on_c, 13, 62, 97
2, 22374, Note_on_c, 13, 62, 0
2, 22528, Note_on_c, 13, 64, 97
2, 23398, Note_on_c, 13, 64, 0
2, 23552, Note_on_c, 13, 64, 98
2, 24133, Note_on_c, 13, 64, 0
2, 24235, Note_on_c, 13, 64, 101
2, 24576, Note_on_c, 13, 64, 0
2, 24576, Note_on_c, 13, 64, 103
2, 25446, Note_on_c, 13, 64, 0
2, 25600, Note_on_c, 13, 73, 108
2, 26470, Note_on_c, 13, 73, 0
2, 26624, Note_on_c, 13, 69, 105
2, 27494, Note_on_c, 13, 69, 0
2, 27648, Note_on_c, 13, 64, 94
2, 27989, Note_on_c, 13, 64, 0
2, 27989, Note_on_c, 13, 62, 96
2, 28331, Note_on_c, 13, 62, 0
2, 28331, Note_on_c, 13, 64, 98
2, 28672, Note_on_c, 13, 64, 0
2, 28672, Note_on_c, 13, 68, 100
2, 29013, Note_on_c, 13, 68, 0
2, 29013, Note_on_c, 13, 66, 102
2, 29355, Note_on_c, 13, 66, 0
2, 29355, Note_on_c, 13, 68, 104
2, 29696, Note_on_c, 13, 68, 0
2, 29696, Note_on_c, 13, 69, 106
2, 30566, Note_on_c, 13, 69, 0
2, 30720, Note_on_c, 13, 64, 104
2, 31590, Note_on_c, 13, 64, 0
2, 31744, Note_on_c, 13, 66, 93
2, 32085, Note_on_c, 13, 66, 0
2, 32085, Note_on_c, 13, 64, 95
2, 32427, Note_on_c, 13, 64, 0
2, 32427, Note_on_c, 13, 66, 97
2, 32768, Note_on_c, 13, 66, 0
2, 32768, Note_on_c, 13, 67, 100
2, 33109, Note_on_c, 13, 67, 0
2, 33109, Note_on_c, 13, 66, 102
2, 33451, Note_on_c, 13, 66, 0
2, 33451, Note_on_c, 13, 67, 104
2, 33792, Note_on_c, 13, 67, 0
2, 33792, Note_on_c, 13, 69, 106
2, 34662, Note_on_c, 13, 69, 0
2, 34816, Note_on_c, 13, 66, 100
2, 35686, Note_on_c, 13, 66, 0
2, 35840, Note_on_c, 13, 62, 57
2, 36181, Note_on_c, 13, 62, 0
2, 36181, Note_on_c, 13, 61, 57
2, 36523, Note_on_c, 13, 61, 0
2, 36523, Note_on_c, 13, 62, 57
2, 36864, Note_on_c, 13, 62, 0
2, 36864, Note_on_c, 13, 64, 57
2, 37205, Note_on_c, 13, 64, 0
2, 37205, Note_on_c, 13, 62, 57
2, 37547, Note_on_c, 13, 62, 0
2, 37547, Note_on_c, 13, 64, 57
2, 37888, Note_on_c, 13, 64, 0
2, 37888, Note_on_c, 13, 68, 57
2, 38229, Note_on_c, 13, 68, 0
2, 38229, Note_on_c, 13, 66, 57
2, 38571, Note_on_c, 13, 66, 0
2, 38571, Note_on_c, 13, 68, 57
2, 38912, Note_on_c, 13, 68, 0
2, 38912, Note_on_c, 13, 62, 57
2, 39253, Note_on_c, 13, 62, 0
2, 39253, Note_on_c, 13, 61, 57
2, 39595, Note_on_c, 13, 61, 0
2, 39595, Note_on_c, 13, 62, 57
2, 39936, Note_on_c, 13, 62, 0
2, 39936, Note_on_c, 13, 64, 59
2, 40277, Note_on_c, 13, 64, 0
2, 40277, Note_on_c, 13, 62, 65
2, 40619, Note_on_c, 13, 62, 0
2, 40619, Note_on_c, 13, 64, 72
2, 40960, Note_on_c, 13, 64, 0
2, 40960, Note_on_c, 13, 66, 78
2, 41301, Note_on_c, 13, 66, 0
2, 41301, Note_on_c, 13, 64, 84
2, 41643, Note_on_c, 13, 64, 0
2, 41643, Note_on_c, 13, 66, 91
2, 41984, Note_on_c, 13, 66, 0
2, 41984, Note_on_c, 13, 69, 97
2, 43349, Note_on_c, 13, 69, 0
2, 43349, Note_on_c, 13, 67, 96
2, 43691, Note_on_c, 13, 67, 0
2, 43691, Note_on_c, 13, 69, 96
2, 44032, Note_on_c, 13, 69, 0
2, 44032, Note_on_c, 13, 66, 96
2, 44373, Note_on_c, 13, 66, 0
2, 44373, Note_on_c, 13, 64, 96
2, 44715, Note_on_c, 13, 64, 0
2, 44715, Note_on_c, 13, 62, 96
2, 45056, Note_on_c, 13, 62, 0
2, 45056, Note_on_c, 13, 71, 96
2, 45397, Note_on_c, 13, 71, 0
2, 45397, Note_on_c, 13, 69, 96
2, 45739, Note_on_c, 13, 69, 0
2, 45739, Note_on_c, 13, 71, 96
2, 46080, Note_on_c, 13, 71, 0
2, 46080, Note_on_c, 13, 67, 96
2, 46421, Note_on_c, 13, 67, 0
2, 46421, Note_on_c, 13, 66, 96
2, 46763, Note_on_c, 13, 66, 0
2, 46763, Note_on_c, 13, 64, 96
2, 47104, Note_on_c, 13, 64, 0
2, 47104, Note_on_c, 13, 69, 96
2, 47685, Note_on_c, 13, 69, 0
2, 47787, Note_on_c, 13, 69, 96
2, 48128, Note_on_c, 13, 69, 0
2, 48128, Note_on_c, 13, 69, 96
2, 48709, Note_on_c, 13, 69, 0
2, 48811, Note_on_c, 13, 69, 99
2, 49152, Note_on_c, 13, 69, 0
2, 49152, Note_on_c, 13, 69, 101
2, 50022, Note_on_c, 13, 69, 0
2, 50176, Note_on_c, 13, 66, 106
2, 50517, Note_on_c, 13, 66, 0
2, 50517, Note_on_c, 13, 67, 97
2, 50859, Note_on_c, 13, 67, 0
2, 50859, Note_on_c, 13, 69, 100
2, 51200, Note_on_c, 13, 69, 0
2, 51200, Note_on_c, 13, 69, 104
2, 52070, Note_on_c, 13, 69, 0
2, 52224, Note_on_c, 13, 69, 92
2, 52565, Note_on_c, 13, 69, 0
2, 52565, Note_on_c, 13, 71, 94
2, 52907, Note_on_c, 13, 71, 0
2, 52907, Note_on_c, 13, 69, 96
2, 53248, Note_on_c, 13, 69, 0
2, 53248, Note_on_c, 13, 67, 98
2, 53589, Note_on_c, 13, 67, 0
2, 53589, Note_on_c, 13, 69, 100
2, 53931, Note_on_c, 13, 69, 0
2, 53931, Note_on_c, 13, 67, 102
2, 54272, Note_on_c, 13, 67, 0
2, 54272, Note_on_c, 13, 66, 104
2, 54613, Note_on_c, 13, 66, 0
2, 54613, Note_on_c, 13, 67, 96
2, 54955, Note_on_c, 13, 67, 0
2, 54955, Note_on_c, 13, 69, 100
2, 55296, Note_on_c, 13, 69, 0
2, 55296, Note_on_c, 13, 69, 103
2, 56166, Note_on_c, 13, 69, 0
2, 56320, Note_on_c, 13, 67, 90
2, 56661, Note_on_c, 13, 67, 0
2, 56661, Note_on_c, 13, 69, 92
2, 57003, Note_on_c, 13, 69, 0
2, 57003, Note_on_c, 13, 67, 94
2, 57344, Note_on_c, 13, 67, 0
2, 57344, Note_on_c, 13, 66, 97
2, 57685, Note_on_c, 13, 66, 0
2, 57685, Note_on_c, 13, 67, 99
2, 58027, Note_on_c, 13, 67, 0
2, 58027, Note_on_c, 13, 66, 102
2, 58368, Note_on_c, 13, 66, 0
2, 58368, Note_on_c, 13, 71, 104
2, 59238, Note_on_c, 13, 71, 0
2, 59392, Note_on_c, 13, 67, 102
2, 60262, Note_on_c, 13, 67, 0
2, 60416, Note_on_c, 13, 69, 54
2, 65536, Note_on_c, 13, 69, 0
2, 65536, Note_on_c, 13, 69, 72
2, 66406, Note_on_c, 13, 69, 0
2, 66560, Note_on_c, 13, 66, 88
2, 72704, Note_on_c, 13, 66, 0
2, 72704, Note_on_c, 13, 61, 88
2, 74588, Note_on_c, 13, 61, 0
2, 74752, Note_on_c, 13, 62, 100
2, 80896, Note_on_c, 13, 62, 0
2, 80896, Note_on_c, 13, 66, 99
2, 82780, Note_on_c, 13, 66, 0
2, 82944, Note_on_c, 13, 59, 80
2, 89088, Note_on_c, 13, 59, 0
2, 89088, Note_on_c, 13, 63, 80
2, 90972, Note_on_c, 13, 63, 0
2, 91136, Note_on_c, 13, 67, 55
2, 91477, Note_on_c, 13, 67, 0
2, 91477, Note_on_c, 13, 66, 49
2, 91819, Note_on_c, 13, 66, 0
2, 91819, Note_on_c, 13, 67, 49
2, 92160, Note_on_c, 13, 67, 0
2, 92160, Note_on_c, 13, 61, 49
2, 92501, Note_on_c, 13, 61, 0
2, 92501, Note_on_c, 13, 62, 49
2, 92843, Note_on_c, 13, 62, 0
2, 92843, Note_on_c, 13, 64, 49
2, 93184, Note_on_c, 13, 64, 0
2, 93184, Note_on_c, 13, 66, 49
2, 93525, Note_on_c, 13, 66, 0
2, 93525, Note_on_c, 13, 68, 49
2, 93867, Note_on_c, 13, 68, 0
2, 93867, Note_on_c, 13, 70, 49
2, 94208, Note_on_c, 13, 70, 0
2, 94208, Note_on_c, 13, 71, 49
2, 94549, Note_on_c, 13, 71, 0
2, 94549, Note_on_c, 13, 70, 49
2, 94891, Note_on_c, 13, 70, 0
2, 94891, Note_on_c, 13, 71, 49
2, 95232, Note_on_c, 13, 71, 0
2, 95232, Note_on_c, 13, 64, 49
2, 95573, Note_on_c, 13, 64, 0
2, 95573, Note_on_c, 13, 66, 49
2, 95915, Note_on_c, 13, 66, 0
2, 95915, Note_on_c, 13, 67, 49
2, 96256, Note_on_c, 13, 67, 0
2, 96256, Note_on_c, 13, 66, 49
2, 96597, Note_on_c, 13, 66, 0
2, 96597, Note_on_c, 13, 67, 49
2, 96939, Note_on_c, 13, 67, 0
2, 96939, Note_on_c, 13, 64, 49
2, 97280, Note_on_c, 13, 64, 0
2, 97280, Note_on_c, 13, 62, 48
2, 97621, Note_on_c, 13, 62, 0
2, 97621, Note_on_c, 13, 61, 47
2, 97963, Note_on_c, 13, 61, 0
2, 97963, Note_on_c, 13, 62, 46
2, 98304, Note_on_c, 13, 62, 0
2, 98304, Note_on_c, 13, 59, 44
2, 98645, Note_on_c, 13, 59, 0
2, 98645, Note_on_c, 13, 61, 43
2, 98987, Note_on_c, 13, 61, 0
2, 98987, Note_on_c, 13, 62, 42
2, 99328, Note_on_c, 13, 62, 0
2, 99328, Note_on_c, 13, 64, 40
2, 99669, Note_on_c, 13, 64, 0
2, 99669, Note_on_c, 13, 63, 40
2, 100011, Note_on_c, 13, 63, 0
2, 100011, Note_on_c, 13, 64, 40
2, 100352, Note_on_c, 13, 64, 0
2, 100352, Note_on_c, 13, 67, 40
2, 100693, Note_on_c, 13, 67, 0
2, 100693, Note_on_c, 13, 66, 40
2, 101035, Note_on_c, 13, 66, 0
2, 101035, Note_on_c, 13, 67, 40
2, 101376, Note_on_c, 13, 67, 0
2, 101376, Note_on_c, 13, 71, 40
2, 102246, Note_on_c, 13, 71, 0
2, 102400, Note_on_c, 13, 64, 40
2, 103270, Note_on_c, 13, 64, 0
2, 103424, Note_on_c, 13, 64, 40
2, 104294, Note_on_c, 13, 64, 0
2, 104448, Note_on_c, 13, 61, 40
2, 105318, Note_on_c, 13, 61, 0
2, 105472, Note_on_c, 13, 73, 40
2, 105813, Note_on_c, 13, 73, 0
2, 105813, Note_on_c, 13, 74, 40
2, 106155, Note_on_c, 13, 74, 0
2, 106155, Note_on_c, 13, 73, 40
2, 106496, Note_on_c, 13, 73, 0
2, 106496, Note_on_c, 13, 69, 40
2, 106837, Note_on_c, 13, 69, 0
2, 106837, Note_on_c, 13, 71, 40
2, 107179, Note_on_c, 13, 71, 0
2, 107179, Note_on_c, 13, 69, 40
2, 107520, Note_on_c, 13, 69, 0
2, 107520, Note_on_c, 13, 66, 40
2, 107861, Note_on_c, 13, 66, 0
2, 107861, Note_on_c, 13, 64, 40
2, 108203, Note_on_c, 13, 64, 0
2, 108203, Note_on_c, 13, 66, 40
2, 108544, Note_on_c, 13, 66, 0
2, 108544, Note_on_c, 13, 69, 40
2, 108885, Note_on_c, 13, 69, 0
2, 108885, Note_on_c, 13, 67, 40
2, 109227, Note_on_c, 13, 67, 0
2, 109227, Note_on_c, 13, 69, 40
2, 109568, Note_on_c, 13, 69, 0
2, 109568, Note_on_c, 13, 74, 40
2, 110438, Note_on_c, 13, 74, 0
2, 110592, Note_on_c, 13, 66, 40
2, 111462, Note_on_c, 13, 66, 0
2, 111616, Note_on_c, 13, 67, 40
2, 112486, Note_on_c, 13, 67, 0
2, 112640, Note_on_c, 13, 71, 41
2, 113221, Note_on_c, 13, 71, 0
2, 113323, Note_on_c, 13, 64, 42
2, 113664, Note_on_c, 13, 64, 0
2, 113664, Note_on_c, 13, 66, 43
2, 114245, Note_on_c, 13, 66, 0
2, 114347, Note_on_c, 13, 67, 44
2, 114688, Note_on_c, 13, 67, 0
2, 114688, Note_on_c, 13, 69, 45
2, 115269, Note_on_c, 13, 69, 0
2, 115371, Note_on_c, 13, 62, 46
2, 115712, Note_on_c, 13, 62, 0
2, 115712, Note_on_c, 13, 67, 46
2, 116293, Note_on_c, 13, 67, 0
2, 116395, Note_on_c, 13, 59, 47
2, 116736, Note_on_c, 13, 59, 0
2, 116736, Note_on_c, 13, 61, 48
2, 117317, Note_on_c, 13, 61, 0
2, 117419, Note_on_c, 13, 64, 49
2, 117760, Note_on_c, 13, 64, 0
2, 117760, Note_on_c, 13, 66, 50
2, 118341, Note_on_c, 13, 66, 0
2, 118443, Note_on_c, 13, 66, 51
2, 118784, Note_on_c, 13, 66, 0
2, 118784, Note_on_c, 13, 66, 51
2, 119654, Note_on_c, 13, 66, 0
2, 124928, Note_on_c, 13, 67, 52
2, 126293, Note_on_c, 13, 67, 0
2, 126293, Note_on_c, 13, 69, 52
2, 126635, Note_on_c, 13, 69, 0
2, 126635, Note_on_c, 13, 67, 52
2, 126976, Note_on_c, 13, 67, 0
2, 126976, Note_on_c, 13, 66, 52
2, 127317, Note_on_c, 13, 66, 0
2, 127317, Note_on_c, 13, 67, 52
2, 127659, Note_on_c, 13, 67, 0
2, 127659, Note_on_c, 13, 64, 52
2, 128000, Note_on_c, 13, 64, 0
2, 128000, Note_on_c, 13, 62, 52
2, 128870, Note_on_c, 13, 62, 0
2, 129024, Note_on_c, 13, 62, 52
2, 129894, Note_on_c, 13, 62, 0
2, 131072, Note_on_c, 13, 64, 61
2, 132437, Note_on_c, 13, 64, 0
2, 132437, Note_on_c, 13, 62, 73
2, 132779, Note_on_c, 13, 62, 0
2, 132779, Note_on_c, 13, 64, 74
2, 133120, Note_on_c, 13, 64, 0
2, 133120, Note_on_c, 13, 66, 75
2, 134485, Note_on_c, 13, 66, 0
2, 134485, Note_on_c, 13, 64, 79
2, 134827, Note_on_c, 13, 64, 0
2, 134827, Note_on_c, 13, 66, 80
2, 135168, Note_on_c, 13, 66, 0
2, 135168, Note_on_c, 13, 68, 81
2, 136533, Note_on_c, 13, 68, 0
2, 136533, Note_on_c, 13, 66, 84
2, 136875, Note_on_c, 13, 66, 0
2, 136875, Note_on_c, 13, 68, 85
2, 137216, Note_on_c, 13, 68, 0
2, 137216, Note_on_c, 13, 69, 86
2, 138581, Note_on_c, 13, 69, 0
2, 138581, Note_on_c, 13, 68, 90
2, 138923, Note_on_c, 13, 68, 0
2, 138923, Note_on_c, 13, 69, 91
2, 139264, Note_on_c, 13, 69, 0
2, 139264, Note_on_c, 13, 71, 92
2, 139845, Note_on_c, 13, 71, 0
2, 139947, Note_on_c, 13, 68, 93
2, 140288, Note_on_c, 13, 68, 0
2, 140288, Note_on_c, 13, 61, 94
2, 146432, Note_on_c, 13, 61, 0
2, 146432, Note_on_c, 13, 65, 94
2, 148316, Note_on_c, 13, 65, 0
2, 148480, Note_on_c, 13, 61, 94
2, 152576, Note_on_c, 13, 61, 0
2, 152576, Note_on_c, 13, 66, 94
2, 154624, Note_on_c, 13, 66, 0
2, 154624, Note_on_c, 13, 67, 94
2, 156508, Note_on_c, 13, 67, 0
2, 156672, Note_on_c, 13, 66, 94
2, 162816, Note_on_c, 13, 66, 0
2, 162816, Note_on_c, 13, 61, 84
2, 164700, Note_on_c, 13, 61, 0
2, 164864, Note_on_c, 13, 71, 58
2, 165734, Note_on_c, 13, 71, 0
2, 165888, Note_on_c, 13, 66, 58
2, 166758, Note_on_c, 13, 66, 0
2, 166912, Note_on_c, 13, 74, 58
2, 167253, Note_on_c, 13, 74, 0
2, 167253, Note_on_c, 13, 76, 58
2, 167595, Note_on_c, 13, 76, 0
2, 167595, Note_on_c, 13, 74, 58
2, 167936, Note_on_c, 13, 74, 0
2, 167936, Note_on_c, 13, 71, 58
2, 168277, Note_on_c, 13, 71, 0
2, 168277, Note_on_c, 13, 73, 58
2, 168619, Note_on_c, 13, 73, 0
2, 168619, Note_on_c, 13, 71, 58
2, 168960, Note_on_c, 13, 71, 0
2, 168960, Note_on_c, 13, 68, 58
2, 169301, Note_on_c, 13, 68, 0
2, 169301, Note_on_c, 13, 66, 58
2, 169643, Note_on_c, 13, 66, 0
2, 169643, Note_on_c, 13, 68, 58
2, 169984, Note_on_c, 13, 68, 0
2, 169984, Note_on_c, 13, 71, 58
2, 170325, Note_on_c, 13, 71, 0
2, 170325, Note_on_c, 13, 69, 58
2, 170667, Note_on_c, 13, 69, 0
2, 170667, Note_on_c, 13, 71, 58
2, 171008, Note_on_c, 13, 71, 0
2, 171008, Note_on_c, 13, 76, 58
2, 171878, Note_on_c, 13, 76, 0
2, 172032, Note_on_c, 13, 68, 58
2, 172902, Note_on_c, 13, 68, 0
2, 173056, Note_on_c, 13, 69, 58
2, 173926, Note_on_c, 13, 69, 0
2, 174080, Note_on_c, 13, 64, 58
2, 174950, Note_on_c, 13, 64, 0
2, 175104, Note_on_c, 13, 73, 58
2, 175445, Note_on_c, 13, 73, 0
2, 175445, Note_on_c, 13, 74, 58
2, 175787, Note_on_c, 13, 74, 0
2, 175787, Note_on_c, 13, 73, 58
2, 176128, Note_on_c, 13, 73, 0
2, 176128, Note_on_c, 13, 69, 58
2, 176469, Note_on_c, 13, 69, 0
2, 176469, Note_on_c, 13, 71, 58
2, 176811, Note_on_c, 13, 71, 0
2, 176811, Note_on_c, 13, 69, 58
2, 177152, Note_on_c, 13, 69, 0
2, 177152, Note_on_c, 13, 66, 64
2, 178022, Note_on_c, 13, 66, 0
2, 178176, Note_on_c, 13, 62, 62
2, 179046, Note_on_c, 13, 62, 0
2, 179200, Note_on_c, 13, 61, 66
2, 179781, Note_on_c, 13, 61, 0
2, 179883, Note_on_c, 13, 61, 68
2, 180224, Note_on_c, 13, 61, 0
2, 180224, Note_on_c, 13, 61, 69
2, 181094, Note_on_c, 13, 61, 0
2, 181248, Note_on_c, 13, 71, 73
2, 182118, Note_on_c, 13, 71, 0
2, 182272, Note_on_c, 13, 71, 76
2, 183142, Note_on_c, 13, 71, 0
2, 183296, Note_on_c, 13, 71, 80
2, 183877, Note_on_c, 13, 71, 0
2, 183979, Note_on_c, 13, 71, 83
2, 184320, Note_on_c, 13, 71, 0
2, 184320, Note_on_c, 13, 71, 84
2, 185190, Note_on_c, 13, 71, 0
2, 185344, Note_on_c, 13, 68, 87
2, 185925, Note_on_c, 13, 68, 0
2, 186027, Note_on_c, 13, 68, 89
2, 186368, Note_on_c, 13, 68, 0
2, 186368, Note_on_c, 13, 68, 90
2, 187238, Note_on_c, 13, 68, 0
2, 187392, Note_on_c, 13, 66, 92
2, 188262, Note_on_c, 13, 66, 0
2, 188416, Note_on_c, 13, 62, 94
2, 189286, Note_on_c, 13, 62, 0
2, 189440, Note_on_c, 13, 61, 96
2, 190805, Note_on_c, 13, 61, 0
2, 190805, Note_on_c, 13, 62, 99
2, 191147, Note_on_c, 13, 62, 0
2, 191147, Note_on_c, 13, 59, 99
2, 191488, Note_on_c, 13, 59, 0
2, 191488, Note_on_c, 13, 61, 100
2, 193024, Note_on_c, 13, 61, 0
2, 193024, Note_on_c, 13, 61, 100
2, 193280, Note_on_c, 13, 61, 0
2, 193536, Note_on_c, 13, 61, 100
2, 193792, Note_on_c, 13, 61, 0
2, 202752, Note_on_c, 13, 62, 52
2, 203008, Note_on_c, 13, 62, 0
2, 203264, Note_on_c, 13, 62, 49
2, 203520, Note_on_c, 13, 62, 0
2, 203776, Note_on_c, 13, 62, 49
2, 204032, Note_on_c, 13, 62, 0
2, 204288, Note_on_c, 13, 71, 52
2, 204544, Note_on_c, 13, 71, 0
2, 204800, Note_on_c, 13, 71, 49
2, 205056, Note_on_c, 13, 71, 0
2, 205312, Note_on_c, 13, 71, 49
2, 205568, Note_on_c, 13, 71, 0
2, 205824, Note_on_c, 13, 64, 53
2, 206336, Note_on_c, 13, 64, 0
2, 206336, Note_on_c, 13, 64, 48
2, 206592, Note_on_c, 13, 64, 0
2, 206848, Note_on_c, 13, 66, 48
2, 207104, Note_on_c, 13, 66, 0
2, 207104, Note_on_c, 13, 67, 48
2, 207360, Note_on_c, 13, 67, 0
2, 207360, Note_on_c, 13, 69, 48
2, 207616, Note_on_c, 13, 69, 0
2, 207616, Note_on_c, 13, 71, 48
2, 207872, Note_on_c, 13, 71, 0
2, 207872, Note_on_c, 13, 73, 48
2, 208128, Note_on_c, 13, 73, 0
2, 208128, Note_on_c, 13, 71, 48
2, 208384, Note_on_c, 13, 71, 0
2, 208384, Note_on_c, 13, 69, 48
2, 208640, Note_on_c, 13, 69, 0
2, 208640, Note_on_c, 13, 67, 48
2, 208896, Note_on_c, 13, 67, 0
2, 208896, Note_on_c, 13, 66, 48
2, 209152, Note_on_c, 13, 66, 0
2, 209408, Note_on_c, 13, 64, 48
2, 209664, Note_on_c, 13, 64, 0
2, 209664, Note_on_c, 13, 62, 48
2, 209920, Note_on_c, 13, 62, 0
2, 209920, Note_on_c, 13, 69, 48
2, 210688, Note_on_c, 13, 69, 0
2, 210688, Note_on_c, 13, 71, 48
2, 210944, Note_on_c, 13, 71, 0
2, 210944, Note_on_c, 13, 68, 48
2, 211712, Note_on_c, 13, 68, 0
2, 211712, Note_on_c, 13, 69, 48
2, 211968, Note_on_c, 13, 69, 0
2, 211968, Note_on_c, 13, 69, 48
2, 212224, Note_on_c, 13, 69, 0
2, 212480, Note_on_c, 13, 73, 44
2, 212736, Note_on_c, 13, 73, 0
2, 212736, Note_on_c, 13, 74, 45
2, 212992, Note_on_c, 13, 74, 0
2, 212992, Note_on_c, 13, 73, 45
2, 213248, Note_on_c, 13, 73, 0
2, 213248, Note_on_c, 13, 71, 46
2, 213504, Note_on_c, 13, 71, 0
2, 213504, Note_on_c, 13, 69, 46
2, 213760, Note_on_c, 13, 69, 0
2, 213760, Note_on_c, 13, 67, 46
2, 214016, Note_on_c, 13, 67, 0
2, 214016, Note_on_c, 13, 66, 47
2, 214272, Note_on_c, 13, 66, 0
2, 214272, Note_on_c, 13, 67, 47
2, 214528, Note_on_c, 13, 67, 0
2, 214528, Note_on_c, 13, 69, 48
2, 214784, Note_on_c, 13, 69, 0
2, 214784, Note_on_c, 13, 66, 48
2, 215040, Note_on_c, 13, 66, 0
2, 215040, Note_on_c, 13, 67, 49
2, 215296, Note_on_c, 13, 67, 0
2, 215296, Note_on_c, 13, 69, 49
2, 215552, Note_on_c, 13, 69, 0
2, 215552, Note_on_c, 13, 71, 49
2, 215808, Note_on_c, 13, 71, 0
2, 215808, Note_on_c, 13, 72, 50
2, 216064, Note_on_c, 13, 72, 0
2, 216064, Note_on_c, 13, 71, 50
2, 216320, Note_on_c, 13, 71, 0
2, 216320, Note_on_c, 13, 69, 51
2, 216576, Note_on_c, 13, 69, 0
2, 216576, Note_on_c, 13, 67, 51
2, 216832, Note_on_c, 13, 67, 0
2, 216832, Note_on_c, 13, 66, 52
2, 217088, Note_on_c, 13, 66, 0
2, 217088, Note_on_c, 13, 64, 52
2, 217344, Note_on_c, 13, 64, 0
2, 217344, Note_on_c, 13, 66, 52
2, 217600, Note_on_c, 13, 66, 0
2, 217600, Note_on_c, 13, 67, 53
2, 217856, Note_on_c, 13, 67, 0
2, 217856, Note_on_c, 13, 64, 53
2, 218112, Note_on_c, 13, 64, 0
2, 218112, Note_on_c, 13, 69, 54
2, 218368, Note_on_c, 13, 69, 0
2, 218368, Note_on_c, 13, 66, 54
2, 218624, Note_on_c, 13, 66, 0
2, 218624, Note_on_c, 13, 67, 55
2, 218880, Note_on_c, 13, 67, 0
2, 218880, Note_on_c, 13, 69, 55
2, 219136, Note_on_c, 13, 69, 0
2, 219136, Note_on_c, 13, 71, 56
2, 219392, Note_on_c, 13, 71, 0
2, 219392, Note_on_c, 13, 69, 56
2, 219648, Note_on_c, 13, 69, 0
2, 219648, Note_on_c, 13, 67, 56
2, 219904, Note_on_c, 13, 67, 0
2, 219904, Note_on_c, 13, 66, 57
2, 220160, Note_on_c, 13, 66, 0
2, 220160, Note_on_c, 13, 64, 57
2, 220416, Note_on_c, 13, 64, 0
2, 220416, Note_on_c, 13, 69, 58
2, 220672, Note_on_c, 13, 69, 0
2, 220672, Note_on_c, 13, 67, 58
2, 220928, Note_on_c, 13, 67, 0
2, 220928, Note_on_c, 13, 69, 59
2, 221184, Note_on_c, 13, 69, 0
2, 221184, Note_on_c, 13, 66, 60
2, 221440, Note_on_c, 13, 66, 0
2, 221696, Note_on_c, 13, 62, 62
2, 221952, Note_on_c, 13, 62, 0
2, 222208, Note_on_c, 13, 69, 63
2, 222464, Note_on_c, 13, 69, 0
2, 222464, Note_on_c, 13, 67, 63
2, 222720, Note_on_c, 13, 67, 0
2, 222720, Note_on_c, 13, 66, 64
2, 222976, Note_on_c, 13, 66, 0
2, 222976, Note_on_c, 13, 64, 64
2, 223232, Note_on_c, 13, 64, 0
2, 223232, Note_on_c, 13, 62, 65
2, 223488, Note_on_c, 13, 62, 0
2, 223488, Note_on_c, 13, 64, 65
2, 223744, Note_on_c, 13, 64, 0
2, 223744, Note_on_c, 13, 66, 66
2, 224000, Note_on_c, 13, 66, 0
2, 224000, Note_on_c, 13, 62, 67
2, 224256, Note_on_c, 13, 62, 0
2, 224256, Note_on_c, 13, 64, 67
2, 224512, Note_on_c, 13, 64, 0
2, 224512, Note_on_c, 13, 66, 68
2, 224768, Note_on_c, 13, 66, 0
2, 224768, Note_on_c, 13, 67, 68
2, 225024, Note_on_c, 13, 67, 0
2, 225024, Note_on_c, 13, 69, 69
2, 225280, Note_on_c, 13, 69, 0
2, 225280, Note_on_c, 13, 67, 69
2, 225536, Note_on_c, 13, 67, 0
2, 225536, Note_on_c, 13, 66, 70
2, 225792, Note_on_c, 13, 66, 0
2, 225792, Note_on_c, 13, 64, 71
2, 226048, Note_on_c, 13, 64, 0
2, 226048, Note_on_c, 13, 62, 71
2, 226304, Note_on_c, 13, 62, 0
2, 226304, Note_on_c, 13, 61, 72
2, 226560, Note_on_c, 13, 61, 0
2, 226560, Note_on_c, 13, 62, 72
2, 226816, Note_on_c, 13, 62, 0
2, 226816, Note_on_c, 13, 64, 73
2, 226918, Note_on_c, 13, 64, 0
2, 226918, Note_on_c, 13, 66, 73
2, 227021, Note_on_c, 13, 66, 0
2, 227021, Note_on_c, 13, 64, 73
2, 227123, Note_on_c, 13, 64, 0
2, 227123, Note_on_c, 13, 66, 73
2, 227226, Note_on_c, 13, 66, 0
2, 227226, Note_on_c, 13, 64, 74
2, 227328, Note_on_c, 13, 64, 0
2, 227328, Note_on_c, 13, 66, 74
2, 228096, Note_on_c, 13, 66, 0
2, 228096, Note_on_c, 13, 67, 77
2, 228224, Note_on_c, 13, 67, 0
2, 228224, Note_on_c, 13, 66, 78
2, 228352, Note_on_c, 13, 66, 0
2, 228352, Note_on_c, 13, 64, 78
2, 228608, Note_on_c, 13, 64, 0
2, 228608, Note_on_c, 13, 66, 79
2, 228864, Note_on_c, 13, 66, 0
2, 228864, Note_on_c, 13, 68, 80
2, 229120, Note_on_c, 13, 68, 0
2, 229120, Note_on_c, 13, 66, 81
2, 229376, Note_on_c, 13, 66, 0
2, 229376, Note_on_c, 13, 68, 82
2, 229632, Note_on_c, 13, 68, 0
2, 229632, Note_on_c, 13, 69, 83
2, 229888, Note_on_c, 13, 69, 0
2, 229888, Note_on_c, 13, 68, 84
2, 230144, Note_on_c, 13, 68, 0
2, 230144, Note_on_c, 13, 66, 84
2, 230400, Note_on_c, 13, 66, 0
2, 230400, Note_on_c, 13, 64, 89
2, 230912, Note_on_c, 13, 64, 0
2, 230912, Note_on_c, 13, 61, 89
2, 231168, Note_on_c, 13, 61, 0
2, 231424, Note_on_c, 13, 57, 89
2, 231680, Note_on_c, 13, 57, 0
2, 232448, Note_on_c, 13, 73, 89
2, 232704, Note_on_c, 13, 73, 0
2, 232704, Note_on_c, 13, 71, 89
2, 232960, Note_on_c, 13, 71, 0
2, 232960, Note_on_c, 13, 69, 89
2, 233216, Note_on_c, 13, 69, 0
2, 233216, Note_on_c, 13, 73, 89
2, 233472, Note_on_c, 13, 73, 0
2, 233472, Note_on_c, 13, 71, 89
2, 233728, Note_on_c, 13, 71, 0
2, 233984, Note_on_c, 13, 71, 89
2, 234240, Note_on_c, 13, 71, 0
2, 234496, Note_on_c, 13, 71, 89
2, 234752, Note_on_c, 13, 71, 0
2, 235008, Note_on_c, 13, 71, 89
2, 235264, Note_on_c, 13, 71, 0
2, 235520, Note_on_c, 13, 59, 89
2, 235776, Note_on_c, 13, 59, 0
2, 236032, Note_on_c, 13, 64, 89
2, 236288, Note_on_c, 13, 64, 0
2, 236288, Note_on_c, 13, 66, 89
2, 236544, Note_on_c, 13, 66, 0
2, 236544, Note_on_c, 13, 67, 89
2, 236800, Note_on_c, 13, 67, 0
2, 236800, Note_on_c, 13, 64, 89
2, 237056, Note_on_c, 13, 64, 0
2, 237056, Note_on_c, 13, 66, 89
2, 237312, Note_on_c, 13, 66, 0
2, 237312, Note_on_c, 13, 67, 89
2, 237568, Note_on_c, 13, 67, 0
2, 237568, Note_on_c, 13, 69, 89
2, 237824, Note_on_c, 13, 69, 0
2, 238080, Note_on_c, 13, 62, 89
2, 238336, Note_on_c, 13, 62, 0
2, 238592, Note_on_c, 13, 64, 89
2, 239104, Note_on_c, 13, 64, 0
2, 239104, Note_on_c, 13, 57, 89
2, 239360, Note_on_c, 13, 57, 0
2, 239616, Note_on_c, 13, 62, 89
2, 239872, Note_on_c, 13, 62, 0
2, 245760, Note_on_c, 13, 64, 82
2, 246016, Note_on_c, 13, 64, 0
2, 246272, Note_on_c, 13, 69, 82
2, 246528, Note_on_c, 13, 69, 0
2, 246784, Note_on_c, 13, 69, 82
2, 247040, Note_on_c, 13, 69, 0
2, 247296, Note_on_c, 13, 67, 82
2, 247552, Note_on_c, 13, 67, 0
2, 247808, Note_on_c, 13, 67, 82
2, 248064, Note_on_c, 13, 67, 0
2, 249344, Note_on_c, 13, 63, 52
2, 249600, Note_on_c, 13, 63, 0
2, 249600, Note_on_c, 13, 64, 52
2, 249856, Note_on_c, 13, 64, 0
2, 249856, Note_on_c, 13, 66, 52
2, 250112, Note_on_c, 13, 66, 0
2, 250112, Note_on_c, 13, 63, 52
2, 250368, Note_on_c, 13, 63, 0
2, 250368, Note_on_c, 13, 64, 52
2, 250624, Note_on_c, 13, 64, 0
2, 250624, Note_on_c, 13, 66, 52
2, 250880, Note_on_c, 13, 66, 0
2, 250880, Note_on_c, 13, 63, 52
2, 251136, Note_on_c, 13, 63, 0
2, 251136, Note_on_c, 13, 64, 52
2, 251392, Note_on_c, 13, 64, 0
2, 251392, Note_on_c, 13, 66, 52
2, 251648, Note_on_c, 13, 66, 0
2, 251648, Note_on_c, 13, 63, 52
2, 251904, Note_on_c, 13, 63, 0
2, 251904, Note_on_c, 13, 64, 52
2, 252160, Note_on_c, 13, 64, 0
2, 252160, Note_on_c, 13, 66, 52
2, 252416, Note_on_c, 13, 66, 0
2, 252416, Note_on_c, 13, 67, 52
2, 252672, Note_on_c, 13, 67, 0
2, 252672, Note_on_c, 13, 66, 52
2, 252928, Note_on_c, 13, 66, 0
2, 252928, Note_on_c, 13, 64, 52
2, 253184, Note_on_c, 13, 64, 0
2, 253184, Note_on_c, 13, 66, 52
2, 253440, Note_on_c, 13, 66, 0
2, 253440, Note_on_c, 13, 63, 82
2, 253696, Note_on_c, 13, 63, 0
2, 253696, Note_on_c, 13, 61, 82
2, 253952, Note_on_c, 13, 61, 0
2, 253952, Note_on_c, 13, 63, 82
2, 254208, Note_on_c, 13, 63, 0
2, 254208, Note_on_c, 13, 64, 82
2, 254464, Note_on_c, 13, 64, 0
2, 254464, Note_on_c, 13, 66, 82
2, 254720, Note_on_c, 13, 66, 0
2, 254720, Note_on_c, 13, 63, 82
2, 254976, Note_on_c, 13, 63, 0
2, 254976, Note_on_c, 13, 59, 82
2, 255232, Note_on_c, 13, 59, 0
2, 255488, Note_on_c, 13, 59, 82
2, 255744, Note_on_c, 13, 59, 0
2, 256000, Note_on_c, 13, 67, 82
2, 257024, Note_on_c, 13, 67, 0
2, 257024, Note_on_c, 13, 66, 82
2, 257280, Note_on_c, 13, 66, 0
2, 257280, Note_on_c, 13, 64, 82
2, 257536, Note_on_c, 13, 64, 0
2, 257536, Note_on_c, 13, 66, 82
2, 257792, Note_on_c, 13, 66, 0
2, 257792, Note_on_c, 13, 67, 82
2, 258048, Note_on_c, 13, 67, 0
2, 258048, Note_on_c, 13, 69, 82
2, 258560, Note_on_c, 13, 69, 0
2, 258560, Note_on_c, 13, 66, 82
2, 258816, Note_on_c, 13, 66, 0
2, 259072, Note_on_c, 13, 66, 82
2, 259328, Note_on_c, 13, 66, 0
2, 259584, Note_on_c, 13, 66, 82
2, 260352, Note_on_c, 13, 66, 0
2, 260352, Note_on_c, 13, 67, 82
2, 260608, Note_on_c, 13, 67, 0
2, 260608, Note_on_c, 13, 64, 82
2, 260864, Note_on_c, 13, 64, 0
2, 260864, Note_on_c, 13, 63, 83
2, 261120, Note_on_c, 13, 63, 0
2, 261120, Note_on_c, 13, 64, 84
2, 261632, Note_on_c, 13, 64, 0
2, 261632, Note_on_c, 13, 59, 87
2, 262656, Note_on_c, 13, 59, 0
2, 262656, Note_on_c, 13, 59, 95
2, 262912, Note_on_c, 13, 59, 0
2, 263168, Note_on_c, 13, 64, 48
2, 263424, Note_on_c, 13, 64, 0
2, 263424, Note_on_c, 13, 66, 48
2, 263680, Note_on_c, 13, 66, 0
2, 263680, Note_on_c, 13, 67, 48
2, 263936, Note_on_c, 13, 67, 0
2, 263936, Note_on_c, 13, 64, 48
2, 264192, Note_on_c, 13, 64, 0
2, 264192, Note_on_c, 13, 69, 48
2, 264448, Note_on_c, 13, 69, 0
2, 264704, Note_on_c, 13, 61, 48
2, 264960, Note_on_c, 13, 61, 0
2, 264960, Note_on_c, 13, 62, 48
2, 265216, Note_on_c, 13, 62, 0
2, 265216, Note_on_c, 13, 64, 48
2, 265472, Note_on_c, 13, 64, 0
2, 265472, Note_on_c, 13, 61, 48
2, 265728, Note_on_c, 13, 61, 0
2, 265728, Note_on_c, 13, 62, 48
2, 267520, Note_on_c, 13, 62, 0
2, 267776, Note_on_c, 13, 67, 48
2, 268032, Note_on_c, 13, 67, 0
2, 269312, Note_on_c, 13, 61, 53
2, 269568, Note_on_c, 13, 61, 0
2, 269568, Note_on_c, 13, 62, 55
2, 269824, Note_on_c, 13, 62, 0
2, 269824, Note_on_c, 13, 64, 58
2, 270080, Note_on_c, 13, 64, 0
2, 270080, Note_on_c, 13, 61, 60
2, 270336, Note_on_c, 13, 61, 0
2, 270336, Note_on_c, 13, 66, 64
2, 270848, Note_on_c, 13, 66, 0
2, 270848, Note_on_c, 13, 58, 64
2, 271104, Note_on_c, 13, 58, 0
2, 271104, Note_on_c, 13, 59, 64
2, 271360, Note_on_c, 13, 59, 0
2, 271360, Note_on_c, 13, 61, 64
2, 271616, Note_on_c, 13, 61, 0
2, 271616, Note_on_c, 13, 58, 64
2, 271872, Note_on_c, 13, 58, 0
2, 271872, Note_on_c, 13, 62, 64
2, 273920, Note_on_c, 13, 62, 0
2, 273920, Note_on_c, 13, 61, 64
2, 274176, Note_on_c, 13, 61, 0
2, 274176, Note_on_c, 13, 59, 64
2, 274432, Note_on_c, 13, 59, 0
2, 274432, Note_on_c, 13, 61, 64
2, 276736, Note_on_c, 13, 61, 0
2, 276736, Note_on_c, 13, 58, 64
2, 276992, Note_on_c, 13, 58, 0
2, 276992, Note_on_c, 13, 59, 64
2, 277248, Note_on_c, 13, 59, 0
2, 277248, Note_on_c, 13, 61, 64
2, 277504, Note_on_c, 13, 61, 0
2, 277504, Note_on_c, 13, 62, 64
2, 277760, Note_on_c, 13, 62, 0
2, 277760, Note_on_c, 13, 61, 64
2, 278016, Note_on_c, 13, 61, 0
2, 278016, Note_on_c, 13, 62, 64
2, 278272, Note_on_c, 13, 62, 0
2, 278272, Note_on_c, 13, 59, 64
2, 278528, Note_on_c, 13, 59, 0
2, 278528, Note_on_c, 13, 66, 64
2, 278784, Note_on_c, 13, 66, 0
2, 279040, Note_on_c, 13, 64, 64
2, 279296, Note_on_c, 13, 64, 0
2, 279552, Note_on_c, 13, 62, 64
2, 279808, Note_on_c, 13, 62, 0
2, 280064, Note_on_c, 13, 59, 38
2, 280320, Note_on_c, 13, 59, 0
2, 280320, Note_on_c, 13, 61, 38
2, 280576, Note_on_c, 13, 61, 0
2, 280576, Note_on_c, 13, 62, 38
2, 280832, Note_on_c, 13, 62, 0
2, 280832, Note_on_c, 13, 59, 38
2, 281088, Note_on_c, 13, 59, 0
2, 281088, Note_on_c, 13, 66, 38
2, 281344, Note_on_c, 13, 66, 0
2, 281600, Note_on_c, 13, 66, 38
2, 281856, Note_on_c, 13, 66, 0
2, 282112, Note_on_c, 13, 66, 38
2, 282368, Note_on_c, 13, 66, 0
2, 282624, Note_on_c, 13, 71, 38
2, 282880, Note_on_c, 13, 71, 0
2, 283136, Note_on_c, 13, 66, 38
2, 283392, Note_on_c, 13, 66, 0
2, 283648, Note_on_c, 13, 66, 38
2, 283904, Note_on_c, 13, 66, 0
2, 284160, Note_on_c, 13, 62, 38
2, 284416, Note_on_c, 13, 62, 0
2, 284416, Note_on_c, 13, 61, 38
2, 284672, Note_on_c, 13, 61, 0
2, 284672, Note_on_c, 13, 59, 38
2, 284928, Note_on_c, 13, 59, 0
2, 284928, Note_on_c, 13, 61, 38
2, 285184, Note_on_c, 13, 61, 0
2, 285184, Note_on_c, 13, 62, 38
2, 285440, Note_on_c, 13, 62, 0
2, 285440, Note_on_c, 13, 59, 38
2, 285696, Note_on_c, 13, 59, 0
2, 285696, Note_on_c, 13, 66, 39
2, 286208, Note_on_c, 13, 66, 0
2, 286208, Note_on_c, 13, 54, 42
2, 286464, Note_on_c, 13, 54, 0
2, 287744, Note_on_c, 13, 62, 52
2, 288000, Note_on_c, 13, 62, 0
2, 288000, Note_on_c, 13, 64, 53
2, 288256, Note_on_c, 13, 64, 0
2, 288256, Note_on_c, 13, 66, 55
2, 288512, Note_on_c, 13, 66, 0
2, 288512, Note_on_c, 13, 62, 57
2, 288768, Note_on_c, 13, 62, 0
2, 288768, Note_on_c, 13, 69, 58
2, 289024, Note_on_c, 13, 69, 0
2, 289280, Note_on_c, 13, 69, 62
2, 289536, Note_on_c, 13, 69, 0
2, 289792, Note_on_c, 13, 69, 65
2, 290048, Note_on_c, 13, 69, 0
2, 290304, Note_on_c, 13, 74, 68
2, 290560, Note_on_c, 13, 74, 0
2, 290816, Note_on_c, 13, 69, 72
2, 291072, Note_on_c, 13, 69, 0
2, 291328, Note_on_c, 13, 69, 75
2, 291584, Note_on_c, 13, 69, 0
2, 291840, Note_on_c, 13, 66, 78
2, 292096, Note_on_c, 13, 66, 0
2, 292096, Note_on_c, 13, 64, 80
2, 292352, Note_on_c, 13, 64, 0
2, 292352, Note_on_c, 13, 62, 81
2, 292608, Note_on_c, 13, 62, 0
2, 292608, Note_on_c, 13, 64, 83
2, 292864, Note_on_c, 13, 64, 0
2, 292864, Note_on_c, 13, 66, 85
2, 293120, Note_on_c, 13, 66, 0
2, 293120, Note_on_c, 13, 62, 86
2, 293376, Note_on_c, 13, 62, 0
2, 293376, Note_on_c, 13, 69, 88
2, 293888, Note_on_c, 13, 69, 0
2, 293888, Note_on_c, 13, 57, 88
2, 294144, Note_on_c, 13, 57, 0
2, 296960, Note_on_c, 13, 67, 88
2, 297216, Note_on_c, 13, 67, 0
2, 297216, Note_on_c, 13, 66, 88
2, 297472, Note_on_c, 13, 66, 0
2, 297472, Note_on_c, 13, 67, 88
2, 297728, Note_on_c, 13, 67, 0
2, 297728, Note_on_c, 13, 69, 88
2, 297984, Note_on_c, 13, 69, 0
2, 297984, Note_on_c, 13, 71, 88
2, 298240, Note_on_c, 13, 71, 0
2, 298240, Note_on_c, 13, 72, 88
2, 298496, Note_on_c, 13, 72, 0
2, 298496, Note_on_c, 13, 71, 89
2, 298752, Note_on_c, 13, 71, 0
2, 298752, Note_on_c, 13, 69, 89
2, 299008, Note_on_c, 13, 69, 0
2, 299008, Note_on_c, 13, 67, 90
2, 299264, Note_on_c, 13, 67, 0
2, 299264, Note_on_c, 13, 66, 91
2, 299520, Note_on_c, 13, 66, 0
2, 299520, Note_on_c, 13, 64, 92
2, 299776, Note_on_c, 13, 64, 0
2, 299776, Note_on_c, 13, 61, 93
2, 300032, Note_on_c, 13, 61, 0
2, 300032, Note_on_c, 13, 62, 93
2, 300288, Note_on_c, 13, 62, 0
2, 300288, Note_on_c, 13, 64, 94
2, 300544, Note_on_c, 13, 64, 0
2, 300544, Note_on_c, 13, 66, 95
2, 300800, Note_on_c, 13, 66, 0
2, 301056, Note_on_c, 13, 64, 96
2, 301568, Note_on_c, 13, 64, 0
2, 301568, Note_on_c, 13, 57, 98
2, 301824, Note_on_c, 13, 57, 0
2, 302592, Note_on_c, 13, 62, 56
2, 302848, Note_on_c, 13, 62, 0
2, 303104, Note_on_c, 13, 62, 50
2, 303360, Note_on_c, 13, 62, 0
2, 303616, Note_on_c, 13, 62, 50
2, 303872, Note_on_c, 13, 62, 0
2, 304128, Note_on_c, 13, 71, 57
2, 304384, Note_on_c, 13, 71, 0
2, 304640, Note_on_c, 13, 71, 50
2, 304896, Note_on_c, 13, 71, 0
2, 305152, Note_on_c, 13, 71, 50
2, 305408, Note_on_c, 13, 71, 0
2, 305664, Note_on_c, 13, 64, 56
2, 306176, Note_on_c, 13, 64, 0
2, 306176, Note_on_c, 13, 64, 50
2, 306432, Note_on_c, 13, 64, 0
2, 306688, Note_on_c, 13, 66, 49
2, 306944, Note_on_c, 13, 66, 0
2, 306944, Note_on_c, 13, 67, 50
2, 307200, Note_on_c, 13, 67, 0
2, 307200, Note_on_c, 13, 69, 51
2, 307456, Note_on_c, 13, 69, 0
2, 307456, Note_on_c, 13, 71, 52
2, 307712, Note_on_c, 13, 71, 0
2, 307712, Note_on_c, 13, 73, 53
2, 307968, Note_on_c, 13, 73, 0
2, 307968, Note_on_c, 13, 74, 54
2, 308224, Note_on_c, 13, 74, 0
2, 308224, Note_on_c, 13, 73, 55
2, 308480, Note_on_c, 13, 73, 0
2, 308480, Note_on_c, 13, 71, 56
2, 308736, Note_on_c, 13, 71, 0
2, 308736, Note_on_c, 13, 66, 57
2, 308992, Note_on_c, 13, 66, 0
2, 309248, Note_on_c, 13, 64, 58
2, 309504, Note_on_c, 13, 64, 0
2, 309504, Note_on_c, 13, 62, 58
2, 309760, Note_on_c, 13, 62, 0
2, 309760, Note_on_c, 13, 69, 58
2, 310528, Note_on_c, 13, 69, 0
2, 310528, Note_on_c, 13, 71, 58
2, 310784, Note_on_c, 13, 71, 0
2, 310784, Note_on_c, 13, 68, 58
2, 311552, Note_on_c, 13, 68, 0
2, 311552, Note_on_c, 13, 69, 58
2, 311808, Note_on_c, 13, 69, 0
2, 311808, Note_on_c, 13, 69, 58
2, 312064, Note_on_c, 13, 69, 0
2, 312320, Note_on_c, 13, 73, 54
2, 312576, Note_on_c, 13, 73, 0
2, 312576, Note_on_c, 13, 74, 55
2, 312832, Note_on_c, 13, 74, 0
2, 312832, Note_on_c, 13, 73, 55
2, 313088, Note_on_c, 13, 73, 0
2, 313088, Note_on_c, 13, 71, 56
2, 313344, Note_on_c, 13, 71, 0
2, 313344, Note_on_c, 13, 69, 56
2, 313600, Note_on_c, 13, 69, 0
2, 313600, Note_on_c, 13, 67, 57
2, 313856, Note_on_c, 13, 67, 0
2, 313856, Note_on_c, 13, 66, 57
2, 314112, Note_on_c, 13, 66, 0
2, 314112, Note_on_c, 13, 67, 58
2, 314368, Note_on_c, 13, 67, 0
2, 314368, Note_on_c, 13, 69, 58
2, 314624, Note_on_c, 13, 69, 0
2, 314624, Note_on_c, 13, 66, 59
2, 314880, Note_on_c, 13, 66, 0
2, 314880, Note_on_c, 13, 67, 59
2, 315136, Note_on_c, 13, 67, 0
2, 315136, Note_on_c, 13, 69, 60
2, 315392, Note_on_c, 13, 69, 0
2, 315392, Note_on_c, 13, 71, 60
2, 315648, Note_on_c, 13, 71, 0
2, 315648, Note_on_c, 13, 73, 61
2, 315904, Note_on_c, 13, 73, 0
2, 315904, Note_on_c, 13, 71, 61
2, 316160, Note_on_c, 13, 71, 0
2, 316160, Note_on_c, 13, 69, 62
2, 316416, Note_on_c, 13, 69, 0
2, 316416, Note_on_c, 13, 67, 63
2, 316672, Note_on_c, 13, 67, 0
2, 316672, Note_on_c, 13, 66, 64
2, 316928, Note_on_c, 13, 66, 0
2, 316928, Note_on_c, 13, 64, 66
2, 317184, Note_on_c, 13, 64, 0
2, 317184, Note_on_c, 13, 66, 68
2, 317440, Note_on_c, 13, 66, 0
2, 317440, Note_on_c, 13, 67, 69
2, 317542, Note_on_c, 13, 67, 0
2, 317542, Note_on_c, 13, 69, 70
2, 317645, Note_on_c, 13, 69, 0
2, 317645, Note_on_c, 13, 67, 71
2, 317747, Note_on_c, 13, 67, 0
2, 317747, Note_on_c, 13, 69, 71
2, 317850, Note_on_c, 13, 69, 0
2, 317850, Note_on_c, 13, 67, 72
2, 317952, Note_on_c, 13, 67, 0
2, 317952, Note_on_c, 13, 69, 73
2, 318720, Note_on_c, 13, 69, 0
2, 318720, Note_on_c, 13, 67, 77
2, 318976, Note_on_c, 13, 67, 0
2, 318976, Note_on_c, 13, 66, 78
2, 319232, Note_on_c, 13, 66, 0
2, 319232, Note_on_c, 13, 67, 79
2, 319488, Note_on_c, 13, 67, 0
2, 319488, Note_on_c, 13, 69, 80
2, 319744, Note_on_c, 13, 69, 0
2, 319744, Note_on_c, 13, 67, 82
2, 320000, Note_on_c, 13, 67, 0
2, 320000, Note_on_c, 13, 69, 83
2, 320256, Note_on_c, 13, 69, 0
2, 320256, Note_on_c, 13, 71, 84
2, 320512, Note_on_c, 13, 71, 0
2, 320512, Note_on_c, 13, 69, 85
2, 320768, Note_on_c, 13, 69, 0
2, 320768, Note_on_c, 13, 67, 86
2, 321024, Note_on_c, 13, 67, 0
2, 321024, Note_on_c, 13, 66, 87
2, 321536, Note_on_c, 13, 66, 0
2, 321536, Note_on_c, 13, 62, 87
2, 321792, Note_on_c, 13, 62, 0
2, 322048, Note_on_c, 13, 62, 87
2, 322304, Note_on_c, 13, 62, 0
2, 322304, Note_on_c, 13, 64, 87
2, 322560, Note_on_c, 13, 64, 0
2, 322560, Note_on_c, 13, 66, 87
2, 322816, Note_on_c, 13, 66, 0
2, 322816, Note_on_c, 13, 67, 87
2, 323072, Note_on_c, 13, 67, 0
2, 323072, Note_on_c, 13, 69, 87
2, 323328, Note_on_c, 13, 69, 0
2, 323328, Note_on_c, 13, 67, 87
2, 323584, Note_on_c, 13, 67, 0
2, 323584, Note_on_c, 13, 66, 87
2, 323840, Note_on_c, 13, 66, 0
2, 323840, Note_on_c, 13, 69, 87
2, 324096, Note_on_c, 13, 69, 0
2, 324096, Note_on_c, 13, 67, 87
2, 324352, Note_on_c, 13, 67, 0
2, 324608, Note_on_c, 13, 67, 87
2, 324864, Note_on_c, 13, 67, 0
2, 325120, Note_on_c, 13, 67, 87
2, 325376, Note_on_c, 13, 67, 0
2, 325632, Note_on_c, 13, 67, 87
2, 325888, Note_on_c, 13, 67, 0
2, 325888, Note_on_c, 13, 64, 87
2, 326144, Note_on_c, 13, 64, 0
2, 326144, Note_on_c, 13, 69, 87
2, 326400, Note_on_c, 13, 69, 0
2, 326400, Note_on_c, 13, 67, 87
2, 326656, Note_on_c, 13, 67, 0
2, 326656, Note_on_c, 13, 69, 87
2, 327424, Note_on_c, 13, 69, 0
2, 327424, Note_on_c, 13, 66, 87
2, 327680, Note_on_c, 13, 66, 0
2, 327680, Note_on_c, 13, 67, 87
2, 327936, Note_on_c, 13, 67, 0
2, 327936, Note_on_c, 13, 69, 87
2, 328192, Note_on_c, 13, 69, 0
2, 328192, Note_on_c, 13, 67, 87
2, 328448, Note_on_c, 13, 67, 0
2, 328448, Note_on_c, 13, 69, 86
2, 328704, Note_on_c, 13, 69, 0
2, 328704, Note_on_c, 13, 71, 87
2, 328960, Note_on_c, 13, 71, 0
2, 328960, Note_on_c, 13, 69, 87
2, 329216, Note_on_c, 13, 69, 0
2, 329216, Note_on_c, 13, 69, 87
2, 330240, Note_on_c, 13, 69, 0
2, 330240, Note_on_c, 13, 67, 87
2, 330496, Note_on_c, 13, 67, 0
2, 330752, Note_on_c, 13, 67, 46
2, 331008, Note_on_c, 13, 67, 0
2, 331008, Note_on_c, 13, 69, 46
2, 331264, Note_on_c, 13, 69, 0
2, 331264, Note_on_c, 13, 71, 47
2, 331520, Note_on_c, 13, 71, 0
2, 331520, Note_on_c, 13, 67, 48
2, 331776, Note_on_c, 13, 67, 0
2, 331776, Note_on_c, 13, 64, 48
2, 332032, Note_on_c, 13, 64, 0
2, 332032, Note_on_c, 13, 62, 49
2, 332288, Note_on_c, 13, 62, 0
2, 332288, Note_on_c, 13, 64, 49
2, 332544, Note_on_c, 13, 64, 0
2, 332544, Note_on_c, 13, 66, 50
2, 332800, Note_on_c, 13, 66, 0
2, 332800, Note_on_c, 13, 67, 50
2, 333056, Note_on_c, 13, 67, 0
2, 333056, Note_on_c, 13, 64, 51
2, 333312, Note_on_c, 13, 64, 0
2, 333312, Note_on_c, 13, 69, 51
2, 333568, Note_on_c, 13, 69, 0
2, 333568, Note_on_c, 13, 67, 52
2, 333824, Note_on_c, 13, 67, 0
2, 333824, Note_on_c, 13, 66, 52
2, 334080, Note_on_c, 13, 66, 0
2, 334080, Note_on_c, 13, 64, 53
2, 334336, Note_on_c, 13, 64, 0
2, 334336, Note_on_c, 13, 62, 54
2, 334592, Note_on_c, 13, 62, 0
2, 334592, Note_on_c, 13, 66, 54
2, 334848, Note_on_c, 13, 66, 0
2, 334848, Note_on_c, 13, 67, 55
2, 336640, Note_on_c, 13, 67, 0
2, 336640, Note_on_c, 13, 69, 59
2, 336896, Note_on_c, 13, 69, 0
2, 336896, Note_on_c, 13, 71, 59
2, 337408, Note_on_c, 13, 71, 0
2, 337408, Note_on_c, 13, 59, 60
2, 337920, Note_on_c, 13, 59, 0
2, 337920, Note_on_c, 13, 64, 61
2, 338432, Note_on_c, 13, 64, 0
2, 338432, Note_on_c, 13, 71, 62
2, 338944, Note_on_c, 13, 71, 0
2, 338944, Note_on_c, 13, 69, 63
2, 339968, Note_on_c, 13, 69, 0
2, 339968, Note_on_c, 13, 62, 67
2, 340224, Note_on_c, 13, 62, 0
2, 340224, Note_on_c, 13, 64, 68
2, 340480, Note_on_c, 13, 64, 0
2, 340480, Note_on_c, 13, 66, 69
2, 340736, Note_on_c, 13, 66, 0
2, 340736, Note_on_c, 13, 62, 71
2, 340992, Note_on_c, 13, 62, 0
2, 340992, Note_on_c, 13, 59, 72
2, 341248, Note_on_c, 13, 59, 0
2, 341248, Note_on_c, 13, 64, 74
2, 341504, Note_on_c, 13, 64, 0
2, 341504, Note_on_c, 13, 66, 75
2, 341760, Note_on_c, 13, 66, 0
2, 341760, Note_on_c, 13, 67, 76
2, 342016, Note_on_c, 13, 67, 0
2, 342016, Note_on_c, 13, 69, 78
2, 342272, Note_on_c, 13, 69, 0
2, 342272, Note_on_c, 13, 71, 79
2, 342528, Note_on_c, 13, 71, 0
2, 342528, Note_on_c, 13, 69, 80
2, 344320, Note_on_c, 13, 69, 0
2, 344576, Note_on_c, 13, 66, 91
2, 344832, Note_on_c, 13, 66, 0
2, 345088, Note_on_c, 13, 66, 94
2, 345344, Note_on_c, 13, 66, 0
2, 345600, Note_on_c, 13, 64, 96
2, 345856, Note_on_c, 13, 64, 0
2, 346112, Note_on_c, 13, 61, 99
2, 346368, Note_on_c, 13, 61, 0
2, 347136, Note_on_c, 13, 66, 103
2, 347392, Note_on_c, 13, 66, 0
2, 347648, Note_on_c, 13, 66, 98
2, 347904, Note_on_c, 13, 66, 0
2, 348160, Note_on_c, 13, 66, 98
2, 348416, Note_on_c, 13, 66, 0
2, 348672, Note_on_c, 13, 67, 98
2, 348928, Note_on_c, 13, 67, 0
2, 349184, Note_on_c, 13, 71, 98
2, 349440, Note_on_c, 13, 71, 0
2, 349696, Note_on_c, 13, 71, 98
2, 349952, Note_on_c, 13, 71, 0
2, 350208, Note_on_c, 13, 71, 98
2, 350720, Note_on_c, 13, 71, 0
2, 350720, Note_on_c, 13, 59, 98
2, 350976, Note_on_c, 13, 59, 0
2, 351232, Note_on_c, 13, 59, 98
2, 351488, Note_on_c, 13, 59, 0
2, 351744, Note_on_c, 13, 61, 97
2, 352000, Note_on_c, 13, 61, 0
2, 352256, Note_on_c, 13, 64, 99
2, 352512, Note_on_c, 13, 64, 0
2, 352768, Note_on_c, 13, 57, 98
2, 353024, Note_on_c, 13, 57, 0
2, 353280, Note_on_c, 13, 62, 95
2, 353792, Note_on_c, 13, 62, 0
2, 353792, Note_on_c, 13, 64, 89
2, 354816, Note_on_c, 13, 64, 0
2, 354816, Note_on_c, 13, 66, 59
2, 355072, Note_on_c, 13, 66, 0
2, 355328, Note_on_c, 13, 62, 61
2, 355840, Note_on_c, 13, 62, 0
2, 355840, Note_on_c, 13, 66, 63
2, 356352, Note_on_c, 13, 66, 0
2, 356352, Note_on_c, 13, 67, 65
2, 356608, Note_on_c, 13, 67, 0
2, 356864, Note_on_c, 13, 64, 67
2, 357120, Note_on_c, 13, 64, 0
2, 357376, Note_on_c, 13, 68, 70
2, 357632, Note_on_c, 13, 68, 0
2, 357888, Note_on_c, 13, 69, 72
2, 358400, Note_on_c, 13, 69, 0
2, 358400, Note_on_c, 13, 66, 74
2, 358656, Note_on_c, 13, 66, 0
2, 358912, Note_on_c, 13, 70, 76
2, 359168, Note_on_c, 13, 70, 0
2, 359424, Note_on_c, 13, 71, 78
2, 359936, Note_on_c, 13, 71, 0
2, 359936, Note_on_c, 13, 67, 80
2, 360192, Note_on_c, 13, 67, 0
2, 360448, Note_on_c, 13, 71, 82
2, 360704, Note_on_c, 13, 71, 0
2, 360960, Note_on_c, 13, 73, 84
2, 361216, Note_on_c, 13, 73, 0
2, 361472, Note_on_c, 13, 64, 86
2, 361728, Note_on_c, 13, 64, 0
2, 361984, Note_on_c, 13, 64, 89
2, 362240, Note_on_c, 13, 64, 0
2, 362496, Note_on_c, 13, 66, 91
2, 362752, Note_on_c, 13, 66, 0
2, 363008, Note_on_c, 13, 62, 93
2, 363264, Note_on_c, 13, 62, 0
2, 363520, Note_on_c, 13, 62, 95
2, 363776, Note_on_c, 13, 62, 0
2, 364032, Note_on_c, 13, 64, 102
2, 365568, Note_on_c, 13, 64, 0
2, 365568, Note_on_c, 13, 62, 104
2, 366080, Note_on_c, 13, 62, 0
2, 366080, Note_on_c, 13, 64, 105
2, 366592, Note_on_c, 13, 64, 0
2, 366592, Note_on_c, 13, 61, 105
2, 367104, Note_on_c, 13, 61, 0
2, 367104, Note_on_c, 13, 57, 106
2, 367616, Note_on_c, 13, 57, 0
2, 367616, Note_on_c, 13, 62, 107
2, 368128, Note_on_c, 13, 62, 0
2, 368128, Note_on_c, 13, 69, 108
2, 368640, Note_on_c, 13, 69, 0
2, 368640, Note_on_c, 13, 64, 108
2, 369664, Note_on_c, 13, 64, 0
2, 369664, Note_on_c, 13, 57, 110
2, 369920, Note_on_c, 13, 57, 0
2, 370176, Note_on_c, 13, 69, 111
2, 370432, Note_on_c, 13, 69, 0
2, 370688, Note_on_c, 13, 69, 111
2, 370944, Note_on_c, 13, 69, 0
2, 371200, Note_on_c, 13, 69, 112
2, 371456, Note_on_c, 13, 69, 0
2, 371712, Note_on_c, 13, 66, 113
2, 371968, Note_on_c, 13, 66, 0
2, 372224, Note_on_c, 13, 66, 114
2, 372480, Note_on_c, 13, 66, 0
2, 372736, Note_on_c, 13, 66, 114
2, 372992, Note_on_c, 13, 66, 0
2, 373248, Note_on_c, 13, 59, 115
2, 373760, Note_on_c, 13, 59, 0
2, 373760, Note_on_c, 13, 64, 116
2, 374016, Note_on_c, 13, 64, 0
2, 374272, Note_on_c, 13, 64, 117
2, 374528, Note_on_c, 13, 64, 0
2, 374784, Note_on_c, 13, 69, 117
2, 375296, Note_on_c, 13, 69, 0
2, 375296, Note_on_c, 13, 64, 118
2, 375552, Note_on_c, 13, 64, 0
2, 375808, Note_on_c, 13, 66, 119
2, 376064, Note_on_c, 13, 66, 0
2, 376320, Note_on_c, 13, 67, 120
2, 376576, Note_on_c, 13, 67, 0
2, 376832, Note_on_c, 13, 67, 121
2, 377856, Note_on_c, 13, 67, 0
2, 377856, Note_on_c, 13, 66, 123
2, 379392, Control_c, 13, 121, 127
2, 379392, Note_on_c, 13, 66, 0
2, 379392, End_track
3, 0, Start_track
3, 0, Title_t, "Trumpet I"
3, 0, Program_c, 0, 56
3, 0, Control_c, 0, 121, 127
3, 0, Control_c, 0, 91, 127
3, 0, Control_c, 0, 1, 10
3, 0, Control_c, 0, 10, 30
3, 1024, Note_on_c, 0, 78, 108
3, 1365, Note_on_c, 0, 78, 0
3, 1365, Note_on_c, 0, 79, 101
3, 1707, Note_on_c, 0, 79, 0
3, 1707, Note_on_c, 0, 81, 104
3, 2048, Note_on_c, 0, 81, 0
3, 2048, Note_on_c, 0, 81, 106
3, 2918, Note_on_c, 0, 81, 0
3, 5120, Note_on_c, 0, 78, 109
3, 5461, Note_on_c, 0, 78, 0
3, 5461, Note_on_c, 0, 79, 100
3, 5803, Note_on_c, 0, 79, 0
3, 5803, Note_on_c, 0, 81, 103
3, 6144, Note_on_c, 0, 81, 0
3, 6144, Note_on_c, 0, 81, 107
3, 7014, Note_on_c, 0, 81, 0
3, 9216, Note_on_c, 0, 83, 107
3, 9557, Note_on_c, 0, 83, 0
3, 9557, Note_on_c, 0, 84, 98
3, 9899, Note_on_c, 0, 84, 0
3, 9899, Note_on_c, 0, 86, 102
3, 10240, Note_on_c, 0, 86, 0
3, 10240, Note_on_c, 0, 86, 105
3, 11110, Note_on_c, 0, 86, 0
3, 17408, Note_on_c, 0, 86, 99
3, 18278, Note_on_c, 0, 86, 0
3, 18432, Note_on_c, 0, 83, 97
3, 19302, Note_on_c, 0, 83, 0
3, 21504, Note_on_c, 0, 86, 97
3, 22374, Note_on_c, 0, 86, 0
3, 22528, Note_on_c, 0, 83, 97
3, 23398, Note_on_c, 0, 83, 0
3, 23552, Note_on_c, 0, 85, 98
3, 24422, Note_on_c, 0, 85, 0
3, 25600, Note_on_c, 0, 85, 108
3, 26470, Note_on_c, 0, 85, 0
3, 26624, Note_on_c, 0, 81, 105
3, 27494, Note_on_c, 0, 81, 0
3, 29696, Note_on_c, 0, 85, 106
3, 30566, Note_on_c, 0, 85, 0
3, 30720, Note_on_c, 0, 81, 104
3, 31590, Note_on_c, 0, 81, 0
3, 33792, Note_on_c, 0, 86, 106
3, 34662, Note_on_c, 0, 86, 0
3, 34816, Note_on_c, 0, 81, 100
3, 35686, Note_on_c, 0, 81, 0
3, 41984, Note_on_c, 0, 85, 97
3, 42854, Note_on_c, 0, 85, 0
3, 43008, Note_on_c, 0, 81, 96
3, 43878, Note_on_c, 0, 81, 0
3, 46080, Note_on_c, 0, 88, 96
3, 46950, Note_on_c, 0, 88, 0
3, 47104, Note_on_c, 0, 85, 96
3, 47974, Note_on_c, 0, 85, 0
3, 48128, Note_on_c, 0, 86, 96
3, 48998, Note_on_c, 0, 86, 0
3, 50176, Note_on_c, 0, 78, 106
3, 50517, Note_on_c, 0, 78, 0
3, 50517, Note_on_c, 0, 79, 97
3, 50859, Note_on_c, 0, 79, 0
3, 50859, Note_on_c, 0, 81, 100
3, 51200, Note_on_c, 0, 81, 0
3, 51200, Note_on_c, 0, 81, 104
3, 52070, Note_on_c, 0, 81, 0
3, 54272, Note_on_c, 0, 78, 104
3, 54613, Note_on_c, 0, 78, 0
3, 54613, Note_on_c, 0, 79, 96
3, 54955, Note_on_c, 0, 79, 0
3, 54955, Note_on_c, 0, 81, 100
3, 55296, Note_on_c, 0, 81, 0
3, 55296, Note_on_c, 0, 81, 103
3, 56166, Note_on_c, 0, 81, 0
3, 58368, Note_on_c, 0, 83, 104
3, 58709, Note_on_c, 0, 83, 0
3, 58709, Note_on_c, 0, 84, 94
3, 59051, Note_on_c, 0, 84, 0
3, 59051, Note_on_c, 0, 86, 98
3, 59392, Note_on_c, 0, 86, 0
3, 59392, Note_on_c, 0, 86, 102
3, 60262, Note_on_c, 0, 86, 0
3, 66560, Note_on_c, 0, 86, 88
3, 67430, Note_on_c, 0, 86, 0
3, 67584, Note_on_c, 0, 81, 88
3, 68454, Note_on_c, 0, 81, 0
3, 74752, Note_on_c, 0, 86, 100
3, 75622, Note_on_c, 0, 86, 0
3, 75776, Note_on_c, 0, 83, 97
3, 76646, Note_on_c, 0, 83, 0
3, 82944, Note_on_c, 0, 86, 80
3, 83814, Note_on_c, 0, 86, 0
3, 83968, Note_on_c, 0, 83, 80
3, 84838, Note_on_c, 0, 83, 0
3, 140288, Note_on_c, 0, 85, 94
3, 141158, Note_on_c, 0, 85, 0
3, 141312, Note_on_c, 0, 81, 95
3, 142182, Note_on_c, 0, 81, 0
3, 148480, Note_on_c, 0, 85, 94
3, 149350, Note_on_c, 0, 85, 0
3, 149504, Note_on_c, 0, 81, 93
3, 150374, Note_on_c, 0, 81, 0
3, 156672, Note_on_c, 0, 74, 94
3, 157013, Note_on_c, 0, 74, 0
3, 157013, Note_on_c, 0, 76, 88
3, 157355, Note_on_c, 0, 76, 0
3, 157355, Note_on_c, 0, 78, 91
3, 157696, Note_on_c, 0, 78, 0
3, 157696, Note_on_c, 0, 74, 94
3, 158037, Note_on_c, 0, 74, 0
3, 158037, Note_on_c, 0, 76, 94
3, 158379, Note_on_c, 0, 76, 0
3, 158379, Note_on_c, 0, 78, 94
3, 158720, Note_on_c, 0, 78, 0
3, 158720, Note_on_c, 0, 74, 94
3, 159061, Note_on_c, 0, 74, 0
3, 159061, Note_on_c, 0, 76, 94
3, 159403, Note_on_c, 0, 76, 0
3, 159403, Note_on_c, 0, 78, 94
3, 159744, Note_on_c, 0, 78, 0
3, 159744, Note_on_c, 0, 74, 94
3, 160085, Note_on_c, 0, 74, 0
3, 160085, Note_on_c, 0, 76, 94
3, 160427, Note_on_c, 0, 76, 0
3, 160427, Note_on_c, 0, 78, 94
3, 160768, Note_on_c, 0, 78, 0
3, 160768, Note_on_c, 0, 74, 94
3, 161109, Note_on_c, 0, 74, 0
3, 161109, Note_on_c, 0, 76, 93
3, 161451, Note_on_c, 0, 76, 0
3, 161451, Note_on_c, 0, 78, 91
3, 161792, Note_on_c, 0, 78, 0
3, 161792, Note_on_c, 0, 74, 90
3, 162133, Note_on_c, 0, 74, 0
3, 162133, Note_on_c, 0, 76, 89
3, 162475, Note_on_c, 0, 76, 0
3, 162475, Note_on_c, 0, 78, 87
3, 162816, Note_on_c, 0, 78, 0
3, 162816, Note_on_c, 0, 78, 84
3, 163686, Note_on_c, 0, 78, 0
3, 230400, Note_on_c, 0, 85, 89
3, 230656, Note_on_c, 0, 85, 0
3, 231936, Note_on_c, 0, 85, 89
3, 232192, Note_on_c, 0, 85, 0
3, 233472, Note_on_c, 0, 86, 89
3, 233728, Note_on_c, 0, 86, 0
3, 237568, Note_on_c, 0, 86, 89
3, 237824, Note_on_c, 0, 86, 0
3, 238080, Note_on_c, 0, 81, 89
3, 238336, Note_on_c, 0, 81, 0
3, 238592, Note_on_c, 0, 81, 89
3, 238848, Note_on_c, 0, 81, 0
3, 239104, Note_on_c, 0, 81, 89
3, 239360, Note_on_c, 0, 81, 0
3, 239616, Note_on_c, 0, 81, 89
3, 239872, Note_on_c, 0, 81, 0
3, 280064, Note_on_c, 0, 78, 38
3, 280320, Note_on_c, 0, 78, 0
3, 280576, Note_on_c, 0, 78, 38
3, 280832, Note_on_c, 0, 78, 0
3, 281088, Note_on_c, 0, 78, 38
3, 281216, Note_on_c, 0, 78, 0
3, 281216, Note_on_c, 0, 79, 38
3, 281344, Note_on_c, 0, 79, 0
3, 281344, Note_on_c, 0, 78, 38
3, 281429, Note_on_c, 0, 78, 0
3, 281429, Note_on_c, 0, 79, 38
3, 281515, Note_on_c, 0, 79, 0
3, 281515, Note_on_c, 0, 78, 38
3, 281600, Note_on_c, 0, 78, 0
3, 281600, Note_on_c, 0, 78, 38
3, 281685, Note_on_c, 0, 78, 0
3, 281685, Note_on_c, 0, 79, 38
3, 281771, Note_on_c, 0, 79, 0
3, 281771, Note_on_c, 0, 78, 38
3, 281856, Note_on_c, 0, 78, 0
3, 281856, Note_on_c, 0, 79, 38
3, 281941, Note_on_c, 0, 79, 0
3, 281941, Note_on_c, 0, 78, 38
3, 282027, Note_on_c, 0, 78, 0
3, 282027, Note_on_c, 0, 79, 38
3, 282112, Note_on_c, 0, 79, 0
3, 282112, Note_on_c, 0, 78, 38
3, 282197, Note_on_c, 0, 78, 0
3, 282197, Note_on_c, 0, 79, 38
3, 282283, Note_on_c, 0, 79, 0
3, 282283, Note_on_c, 0, 78, 38
3, 282368, Note_on_c, 0, 78, 0
3, 282368, Note_on_c, 0, 79, 38
3, 282453, Note_on_c, 0, 79, 0
3, 282453, Note_on_c, 0, 78, 38
3, 282539, Note_on_c, 0, 78, 0
3, 282539, Note_on_c, 0, 79, 38
3, 282624, Note_on_c, 0, 79, 0
3, 282624, Note_on_c, 0, 78, 38
3, 282709, Note_on_c, 0, 78, 0
3, 282709, Note_on_c, 0, 79, 38
3, 282795, Note_on_c, 0, 79, 0
3, 282795, Note_on_c, 0, 78, 38
3, 282880, Note_on_c, 0, 78, 0
3, 282880, Note_on_c, 0, 79, 38
3, 282965, Note_on_c, 0, 79, 0
3, 282965, Note_on_c, 0, 78, 38
3, 283051, Note_on_c, 0, 78, 0
3, 283051, Note_on_c, 0, 79, 38
3, 283136, Note_on_c, 0, 79, 0
3, 283136, Note_on_c, 0, 78, 38
3, 283221, Note_on_c, 0, 78, 0
3, 283221, Note_on_c, 0, 79, 38
3, 283307, Note_on_c, 0, 79, 0
3, 283307, Note_on_c, 0, 78, 38
3, 283392, Note_on_c, 0, 78, 0
3, 283392, Note_on_c, 0, 79, 38
3, 283477, Note_on_c, 0, 79, 0
3, 283477, Note_on_c, 0, 78, 38
3, 283563, Note_on_c, 0, 78, 0
3, 283563, Note_on_c, 0, 79, 38
3, 283648, Note_on_c, 0, 79, 0
3, 283648, Note_on_c, 0, 78, 38
3, 283733, Note_on_c, 0, 78, 0
3, 283733, Note_on_c, 0, 79, 38
3, 283819, Note_on_c, 0, 79, 0
3, 283819, Note_on_c, 0, 78, 38
3, 283904, Note_on_c, 0, 78, 0
3, 283904, Note_on_c, 0, 79, 38
3, 283989, Note_on_c, 0, 79, 0
3, 283989, Note_on_c, 0, 78, 38
3, 284075, Note_on_c, 0, 78, 0
3, 284075, Note_on_c, 0, 79, 38
3, 284160, Note_on_c, 0, 79, 0
3, 284160, Note_on_c, 0, 78, 38
3, 284245, Note_on_c, 0, 78, 0
3, 284245, Note_on_c, 0, 79, 38
3, 284331, Note_on_c, 0, 79, 0
3, 284331, Note_on_c, 0, 78, 38
3, 284416, Note_on_c, 0, 78, 0
3, 284416, Note_on_c, 0, 79, 38
3, 284501, Note_on_c, 0, 79, 0
3, 284501, Note_on_c, 0, 78, 38
3, 284587, Note_on_c, 0, 78, 0
3, 284587, Note_on_c, 0, 79, 38
3, 284672, Note_on_c, 0, 79, 0
3, 284672, Note_on_c, 0, 78, 38
3, 284757, Note_on_c, 0, 78, 0
3, 284757, Note_on_c, 0, 79, 38
3, 284843, Note_on_c, 0, 79, 0
3, 284843, Note_on_c, 0, 78, 38
3, 284928, Note_on_c, 0, 78, 0
3, 284928, Note_on_c, 0, 79, 38
3, 285013, Note_on_c, 0, 79, 0
3, 285013, Note_on_c, 0, 78, 38
3, 285099, Note_on_c, 0, 78, 0
3, 285099, Note_on_c, 0, 79, 38
3, 285184, Note_on_c, 0, 79, 0
3, 285184, Note_on_c, 0, 78, 38
3, 285269, Note_on_c, 0, 78, 0
3, 285269, Note_on_c, 0, 79, 38
3, 285355, Note_on_c, 0, 79, 0
3, 285355, Note_on_c, 0, 78, 38
3, 285440, Note_on_c, 0, 78, 0
3, 285440, Note_on_c, 0, 79, 38
3, 285525, Note_on_c, 0, 79, 0
3, 285525, Note_on_c, 0, 78, 38
3, 285611, Note_on_c, 0, 78, 0
3, 285611, Note_on_c, 0, 79, 38
3, 285696, Note_on_c, 0, 79, 0
3, 285696, Note_on_c, 0, 78, 39
3, 285781, Note_on_c, 0, 78, 0
3, 285781, Note_on_c, 0, 79, 39
3, 285867, Note_on_c, 0, 79, 0
3, 285867, Note_on_c, 0, 78, 40
3, 285952, Note_on_c, 0, 78, 0
3, 285952, Note_on_c, 0, 79, 40
3, 286037, Note_on_c, 0, 79, 0
3, 286037, Note_on_c, 0, 78, 41
3, 286123, Note_on_c, 0, 78, 0
3, 286123, Note_on_c, 0, 79, 41
3, 286208, Note_on_c, 0, 79, 0
3, 286208, Note_on_c, 0, 78, 42
3, 286293, Note_on_c, 0, 78, 0
3, 286293, Note_on_c, 0, 79, 43
3, 286379, Note_on_c, 0, 79, 0
3, 286379, Note_on_c, 0, 78, 43
3, 286464, Note_on_c, 0, 78, 0
3, 286464, Note_on_c, 0, 79, 44
3, 286549, Note_on_c, 0, 79, 0
3, 286549, Note_on_c, 0, 78, 44
3, 286635, Note_on_c, 0, 78, 0
3, 286635, Note_on_c, 0, 79, 45
3, 286720, Note_on_c, 0, 79, 0
3, 286720, Note_on_c, 0, 78, 45
3, 286805, Note_on_c, 0, 78, 0
3, 286805, Note_on_c, 0, 79, 46
3, 286891, Note_on_c, 0, 79, 0
3, 286891, Note_on_c, 0, 78, 46
3, 286976, Note_on_c, 0, 78, 0
3, 286976, Note_on_c, 0, 79, 47
3, 287061, Note_on_c, 0, 79, 0
3, 287061, Note_on_c, 0, 78, 47
3, 287147, Note_on_c, 0, 78, 0
3, 287147, Note_on_c, 0, 79, 48
3, 287232, Note_on_c, 0, 79, 0
3, 287232, Note_on_c, 0, 78, 49
3, 287488, Note_on_c, 0, 78, 0
3, 287488, Note_on_c, 0, 76, 50
3, 287744, Note_on_c, 0, 76, 0
3, 287744, Note_on_c, 0, 78, 52
3, 288000, Note_on_c, 0, 78, 0
3, 288000, Note_on_c, 0, 79, 53
3, 288256, Note_on_c, 0, 79, 0
3, 288256, Note_on_c, 0, 81, 55
3, 288512, Note_on_c, 0, 81, 0
3, 288512, Note_on_c, 0, 83, 57
3, 288768, Note_on_c, 0, 83, 0
3, 288768, Note_on_c, 0, 81, 58
3, 288896, Note_on_c, 0, 81, 0
3, 288896, Note_on_c, 0, 83, 59
3, 289024, Note_on_c, 0, 83, 0
3, 289024, Note_on_c, 0, 81, 60
3, 289109, Note_on_c, 0, 81, 0
3, 289109, Note_on_c, 0, 83, 61
3, 289195, Note_on_c, 0, 83, 0
3, 289195, Note_on_c, 0, 81, 61
3, 289280, Note_on_c, 0, 81, 0
3, 289280, Note_on_c, 0, 81, 62
3, 289365, Note_on_c, 0, 81, 0
3, 289365, Note_on_c, 0, 83, 62
3, 289451, Note_on_c, 0, 83, 0
3, 289451, Note_on_c, 0, 81, 63
3, 289536, Note_on_c, 0, 81, 0
3, 289536, Note_on_c, 0, 83, 63
3, 289621, Note_on_c, 0, 83, 0
3, 289621, Note_on_c, 0, 81, 64
3, 289707, Note_on_c, 0, 81, 0
3, 289707, Note_on_c, 0, 83, 64
3, 289792, Note_on_c, 0, 83, 0
3, 289792, Note_on_c, 0, 81, 65
3, 289877, Note_on_c, 0, 81, 0
3, 289877, Note_on_c, 0, 83, 66
3, 289963, Note_on_c, 0, 83, 0
3, 289963, Note_on_c, 0, 81, 66
3, 290048, Note_on_c, 0, 81, 0
3, 290048, Note_on_c, 0, 83, 67
3, 290133, Note_on_c, 0, 83, 0
3, 290133, Note_on_c, 0, 81, 67
3, 290219, Note_on_c, 0, 81, 0
3, 290219, Note_on_c, 0, 83, 68
3, 290304, Note_on_c, 0, 83, 0
3, 290304, Note_on_c, 0, 81, 68
3, 290389, Note_on_c, 0, 81, 0
3, 290389, Note_on_c, 0, 83, 69
3, 290475, Note_on_c, 0, 83, 0
3, 290475, Note_on_c, 0, 81, 69
3, 290560, Note_on_c, 0, 81, 0
3, 290560, Note_on_c, 0, 83, 70
3, 290645, Note_on_c, 0, 83, 0
3, 290645, Note_on_c, 0, 81, 70
3, 290731, Note_on_c, 0, 81, 0
3, 290731, Note_on_c, 0, 83, 71
3, 290816, Note_on_c, 0, 83, 0
3, 290816, Note_on_c, 0, 81, 72
3, 290901, Note_on_c, 0, 81, 0
3, 290901, Note_on_c, 0, 83, 72
3, 290987, Note_on_c, 0, 83, 0
3, 290987, Note_on_c, 0, 81, 73
3, 291072, Note_on_c, 0, 81, 0
3, 291072, Note_on_c, 0, 83, 73
3, 291157, Note_on_c, 0, 83, 0
3, 291157, Note_on_c, 0, 81, 74
3, 291243, Note_on_c, 0, 81, 0
3, 291243, Note_on_c, 0, 83, 74
3, 291328, Note_on_c, 0, 83, 0
3, 291328, Note_on_c, 0, 81, 75
3, 291413, Note_on_c, 0, 81, 0
3, 291413, Note_on_c, 0, 83, 75
3, 291499, Note_on_c, 0, 83, 0
3, 291499, Note_on_c, 0, 81, 76
3, 291584, Note_on_c, 0, 81, 0
3, 291584, Note_on_c, 0, 83, 76
3, 291669, Note_on_c, 0, 83, 0
3, 291669, Note_on_c, 0, 81, 77
3, 291755, Note_on_c, 0, 81, 0
3, 291755, Note_on_c, 0, 83, 78
3, 291840, Note_on_c, 0, 83, 0
3, 291840, Note_on_c, 0, 81, 78
3, 291925, Note_on_c, 0, 81, 0
3, 291925, Note_on_c, 0, 83, 79
3, 292011, Note_on_c, 0, 83, 0
3, 292011, Note_on_c, 0, 81, 79
3, 292096, Note_on_c, 0, 81, 0
3, 292096, Note_on_c, 0, 83, 80
3, 292181, Note_on_c, 0, 83, 0
3, 292181, Note_on_c, 0, 81, 80
3, 292267, Note_on_c, 0, 81, 0
3, 292267, Note_on_c, 0, 83, 81
3, 292352, Note_on_c, 0, 83, 0
3, 292352, Note_on_c, 0, 81, 81
3, 292437, Note_on_c, 0, 81, 0
3, 292437, Note_on_c, 0, 83, 82
3, 292523, Note_on_c, 0, 83, 0
3, 292523, Note_on_c, 0, 81, 82
3, 292608, Note_on_c, 0, 81, 0
3, 292608, Note_on_c, 0, 83, 83
3, 292693, Note_on_c, 0, 83, 0
3, 292693, Note_on_c, 0, 81, 84
3, 292779, Note_on_c, 0, 81, 0
3, 292779, Note_on_c, 0, 83, 84
3, 292864, Note_on_c, 0, 83, 0
3, 292864, Note_on_c, 0, 81, 85
3, 292949, Note_on_c, 0, 81, 0
3, 292949, Note_on_c, 0, 83, 85
3, 293035, Note_on_c, 0, 83, 0
3, 293035, Note_on_c, 0, 81, 86
3, 293120, Note_on_c, 0, 81, 0
3, 293120, Note_on_c, 0, 83, 86
3, 293205, Note_on_c, 0, 83, 0
3, 293205, Note_on_c, 0, 81, 87
3, 293291, Note_on_c, 0, 81, 0
3, 293291, Note_on_c, 0, 83, 87
3, 293376, Note_on_c, 0, 83, 0
3, 293376, Note_on_c, 0, 81, 88
3, 293461, Note_on_c, 0, 81, 0
3, 293461, Note_on_c, 0, 83, 88
3, 293547, Note_on_c, 0, 83, 0
3, 293547, Note_on_c, 0, 81, 88
3, 293632, Note_on_c, 0, 81, 0
3, 293632, Note_on_c, 0, 83, 88
3, 293717, Note_on_c, 0, 83, 0
3, 293717, Note_on_c, 0, 81, 88
3, 293803, Note_on_c, 0, 81, 0
3, 293803, Note_on_c, 0, 83, 88
3, 293888, Note_on_c, 0, 83, 0
3, 293888, Note_on_c, 0, 81, 88
3, 293973, Note_on_c, 0, 81, 0
3, 293973, Note_on_c, 0, 83, 88
3, 294059, Note_on_c, 0, 83, 0
3, 294059, Note_on_c, 0, 81, 88
3, 294144, Note_on_c, 0, 81, 0
3, 294144, Note_on_c, 0, 83, 88
3, 294229, Note_on_c, 0, 83, 0
3, 294229, Note_on_c, 0, 81, 88
3, 294315, Note_on_c, 0, 81, 0
3, 294315, Note_on_c, 0, 83, 88
3, 294400, Note_on_c, 0, 83, 0
3, 294400, Note_on_c, 0, 81, 88
3, 294485, Note_on_c, 0, 81, 0
3, 294485, Note_on_c, 0, 83, 88
3, 294571, Note_on_c, 0, 83, 0
3, 294571, Note_on_c, 0, 81, 88
3, 294656, Note_on_c, 0, 81, 0
3, 294656, Note_on_c, 0, 83, 88
3, 294741, Note_on_c, 0, 83, 0
3, 294741, Note_on_c, 0, 81, 88
3, 294827, Note_on_c, 0, 81, 0
3, 294827, Note_on_c, 0, 83, 88
3, 294912, Note_on_c, 0, 83, 0
3, 294912, Note_on_c, 0, 81, 88
3, 294997, Note_on_c, 0, 81, 0
3, 294997, Note_on_c, 0, 83, 88
3, 295083, Note_on_c, 0, 83, 0
3, 295083, Note_on_c, 0, 81, 88
3, 295168, Note_on_c, 0, 81, 0
3, 295168, Note_on_c, 0, 83, 88
3, 295253, Note_on_c, 0, 83, 0
3, 295253, Note_on_c, 0, 81, 88
3, 295339, Note_on_c, 0, 81, 0
3, 295339, Note_on_c, 0, 83, 88
3, 295424, Note_on_c, 0, 83, 0
3, 295424, Note_on_c, 0, 81, 88
3, 295509, Note_on_c, 0, 81, 0
3, 295509, Note_on_c, 0, 83, 88
3, 295595, Note_on_c, 0, 83, 0
3, 295595, Note_on_c, 0, 81, 88
3, 295680, Note_on_c, 0, 81, 0
3, 295680, Note_on_c, 0, 83, 88
3, 295765, Note_on_c, 0, 83, 0
3, 295765, Note_on_c, 0, 81, 88
3, 295851, Note_on_c, 0, 81, 0
3, 295851, Note_on_c, 0, 83, 88
3, 295936, Note_on_c, 0, 83, 0
3, 295936, Note_on_c, 0, 81, 88
3, 296021, Note_on_c, 0, 81, 0
3, 296021, Note_on_c, 0, 83, 88
3, 296107, Note_on_c, 0, 83, 0
3, 296107, Note_on_c, 0, 81, 88
3, 296192, Note_on_c, 0, 81, 0
3, 296192, Note_on_c, 0, 83, 88
3, 296277, Note_on_c, 0, 83, 0
3, 296277, Note_on_c, 0, 81, 88
3, 296363, Note_on_c, 0, 81, 0
3, 296363, Note_on_c, 0, 83, 88
3, 296448, Note_on_c, 0, 83, 0
3, 296448, Note_on_c, 0, 81, 88
3, 296533, Note_on_c, 0, 81, 0
3, 296533, Note_on_c, 0, 83, 88
3, 296619, Note_on_c, 0, 83, 0
3, 296619, Note_on_c, 0, 81, 88
3, 296704, Note_on_c, 0, 81, 0
3, 296704, Note_on_c, 0, 83, 88
3, 296789, Note_on_c, 0, 83, 0
3, 296789, Note_on_c, 0, 81, 88
3, 296875, Note_on_c, 0, 81, 0
3, 296875, Note_on_c, 0, 83, 88
3, 296960, Note_on_c, 0, 83, 0
3, 296960, Note_on_c, 0, 81, 88
3, 297045, Note_on_c, 0, 81, 0
3, 297045, Note_on_c, 0, 83, 88
3, 297131, Note_on_c, 0, 83, 0
3, 297131, Note_on_c, 0, 81, 88
3, 297216, Note_on_c, 0, 81, 0
3, 297216, Note_on_c, 0, 83, 88
3, 297301, Note_on_c, 0, 83, 0
3, 297301, Note_on_c, 0, 81, 88
3, 297387, Note_on_c, 0, 81, 0
3, 297387, Note_on_c, 0, 83, 88
3, 297472, Note_on_c, 0, 83, 0
3, 297472, Note_on_c, 0, 81, 88
3, 297557, Note_on_c, 0, 81, 0
3, 297557, Note_on_c, 0, 83, 88
3, 297643, Note_on_c, 0, 83, 0
3, 297643, Note_on_c, 0, 81, 88
3, 297728, Note_on_c, 0, 81, 0
3, 297728, Note_on_c, 0, 83, 88
3, 297813, Note_on_c, 0, 83, 0
3, 297813, Note_on_c, 0, 81, 88
3, 297899, Note_on_c, 0, 81, 0
3, 297899, Note_on_c, 0, 83, 88
3, 297984, Note_on_c, 0, 83, 0
3, 297984, Note_on_c, 0, 79, 88
3, 300288, Note_on_c, 0, 79, 0
3, 300288, Note_on_c, 0, 81, 94
3, 300544, Note_on_c, 0, 81, 0
3, 300544, Note_on_c, 0, 78, 95
3, 301312, Note_on_c, 0, 78, 0
3, 301312, Note_on_c, 0, 76, 97
3, 301568, Note_on_c, 0, 76, 0
3, 301568, Note_on_c, 0, 78, 98
3, 301696, Note_on_c, 0, 78, 0
3, 301696, Note_on_c, 0, 76, 98
3, 301824, Note_on_c, 0, 76, 0
3, 301824, Note_on_c, 0, 78, 99
3, 301952, Note_on_c, 0, 78, 0
3, 301952, Note_on_c, 0, 76, 99
3, 302080, Note_on_c, 0, 76, 0
3, 302080, Note_on_c, 0, 78, 100
3, 302208, Note_on_c, 0, 78, 0
3, 302208, Note_on_c, 0, 76, 100
3, 302336, Note_on_c, 0, 76, 0
3, 302336, Note_on_c, 0, 74, 100
3, 302592, Note_on_c, 0, 74, 0
3, 302592, Note_on_c, 0, 74, 102
3, 302848, Note_on_c, 0, 74, 0
3, 321024, Note_on_c, 0, 78, 87
3, 321280, Note_on_c, 0, 78, 0
3, 321536, Note_on_c, 0, 78, 87
3, 321792, Note_on_c, 0, 78, 0
3, 322048, Note_on_c, 0, 78, 87
3, 322304, Note_on_c, 0, 78, 0
3, 322560, Note_on_c, 0, 86, 87
3, 322816, Note_on_c, 0, 86, 0
3, 323072, Note_on_c, 0, 86, 87
3, 323328, Note_on_c, 0, 86, 0
3, 323584, Note_on_c, 0, 86, 87
3, 323840, Note_on_c, 0, 86, 0
3, 324096, Note_on_c, 0, 79, 87
3, 324608, Note_on_c, 0, 79, 0
3, 324608, Note_on_c, 0, 79, 87
3, 324864, Note_on_c, 0, 79, 0
3, 325120, Note_on_c, 0, 81, 87
3, 325376, Note_on_c, 0, 81, 0
3, 325376, Note_on_c, 0, 83, 87
3, 325632, Note_on_c, 0, 83, 0
3, 325632, Note_on_c, 0, 84, 87
3, 325888, Note_on_c, 0, 84, 0
3, 325888, Note_on_c, 0, 86, 87
3, 326144, Note_on_c, 0, 86, 0
3, 326144, Note_on_c, 0, 88, 87
3, 326400, Note_on_c, 0, 88, 0
3, 326400, Note_on_c, 0, 86, 87
3, 326656, Note_on_c, 0, 86, 0
3, 326656, Note_on_c, 0, 84, 87
3, 326912, Note_on_c, 0, 84, 0
3, 326912, Note_on_c, 0, 83, 87
3, 327168, Note_on_c, 0, 83, 0
3, 327168, Note_on_c, 0, 81, 87
3, 327424, Note_on_c, 0, 81, 0
3, 327680, Note_on_c, 0, 79, 87
3, 327936, Note_on_c, 0, 79, 0
3, 327936, Note_on_c, 0, 78, 87
3, 328192, Note_on_c, 0, 78, 0
3, 328192, Note_on_c, 0, 83, 87
3, 328960, Note_on_c, 0, 83, 0
3, 328960, Note_on_c, 0, 84, 87
3, 329216, Note_on_c, 0, 84, 0
3, 329216, Note_on_c, 0, 83, 87
3, 329344, Note_on_c, 0, 83, 0
3, 329344, Note_on_c, 0, 81, 87
3, 329472, Note_on_c, 0, 81, 0
3, 329472, Note_on_c, 0, 83, 87
3, 329600, Note_on_c, 0, 83, 0
3, 329600, Note_on_c, 0, 81, 87
3, 329728, Note_on_c, 0, 81, 0
3, 329728, Note_on_c, 0, 83, 87
3, 329856, Note_on_c, 0, 83, 0
3, 329856, Note_on_c, 0, 81, 87
3, 329984, Note_on_c, 0, 81, 0
3, 329984, Note_on_c, 0, 83, 87
3, 330240, Note_on_c, 0, 83, 0
3, 330240, Note_on_c, 0, 83, 87
3, 330496, Note_on_c, 0, 83, 0
3, 347136, Note_on_c, 0, 74, 103
3, 347392, Note_on_c, 0, 74, 0
3, 347648, Note_on_c, 0, 74, 98
3, 347904, Note_on_c, 0, 74, 0
3, 348160, Note_on_c, 0, 74, 98
3, 348416, Note_on_c, 0, 74, 0
3, 348672, Note_on_c, 0, 83, 98
3, 348928, Note_on_c, 0, 83, 0
3, 349184, Note_on_c, 0, 83, 98
3, 349440, Note_on_c, 0, 83, 0
3, 349696, Note_on_c, 0, 83, 98
3, 349952, Note_on_c, 0, 83, 0
3, 350208, Note_on_c, 0, 76, 98
3, 350720, Note_on_c, 0, 76, 0
3, 350720, Note_on_c, 0, 76, 98
3, 350976, Note_on_c, 0, 76, 0
3, 351232, Note_on_c, 0, 78, 98
3, 351488, Note_on_c, 0, 78, 0
3, 351488, Note_on_c, 0, 79, 98
3, 351744, Note_on_c, 0, 79, 0
3, 351744, Note_on_c, 0, 81, 97
3, 352000, Note_on_c, 0, 81, 0
3, 352000, Note_on_c, 0, 83, 98
3, 352256, Note_on_c, 0, 83, 0
3, 352256, Note_on_c, 0, 85, 99
3, 352512, Note_on_c, 0, 85, 0
3, 352512, Note_on_c, 0, 83, 99
3, 352768, Note_on_c, 0, 83, 0
3, 352768, Note_on_c, 0, 81, 98
3, 353024, Note_on_c, 0, 81, 0
3, 353024, Note_on_c, 0, 79, 98
3, 353280, Note_on_c, 0, 79, 0
3, 353280, Note_on_c, 0, 78, 95
3, 353536, Note_on_c, 0, 78, 0
3, 353536, Note_on_c, 0, 79, 92
3, 353792, Note_on_c, 0, 79, 0
3, 353792, Note_on_c, 0, 78, 89
3, 353920, Note_on_c, 0, 78, 0
3, 353920, Note_on_c, 0, 76, 87
3, 354048, Note_on_c, 0, 76, 0
3, 354048, Note_on_c, 0, 78, 85
3, 354176, Note_on_c, 0, 78, 0
3, 354176, Note_on_c, 0, 76, 84
3, 354304, Note_on_c, 0, 76, 0
3, 354304, Note_on_c, 0, 78, 82
3, 354432, Note_on_c, 0, 78, 0
3, 354432, Note_on_c, 0, 76, 80
3, 354560, Note_on_c, 0, 76, 0
3, 354560, Note_on_c, 0, 74, 79
3, 354816, Note_on_c, 0, 74, 0
3, 354816, Note_on_c, 0, 74, 59
3, 354944, Note_on_c, 0, 74, 0
3, 354944, Note_on_c, 0, 76, 59
3, 355072, Note_on_c, 0, 76, 0
3, 355072, Note_on_c, 0, 74, 60
3, 355200, Note_on_c, 0, 74, 0
3, 355200, Note_on_c, 0, 76, 60
3, 355328, Note_on_c, 0, 76, 0
3, 355328, Note_on_c, 0, 74, 61
3, 355456, Note_on_c, 0, 74, 0
3, 355456, Note_on_c, 0, 76, 62
3, 355584, Note_on_c, 0, 76, 0
3, 355584, Note_on_c, 0, 74, 62
3, 355712, Note_on_c, 0, 74, 0
3, 355712, Note_on_c, 0, 76, 63
3, 355840, Note_on_c, 0, 76, 0
3, 355840, Note_on_c, 0, 74, 63
3, 355968, Note_on_c, 0, 74, 0
3, 355968, Note_on_c, 0, 76, 64
3, 356096, Note_on_c, 0, 76, 0
3, 356096, Note_on_c, 0, 74, 64
3, 356224, Note_on_c, 0, 74, 0
3, 356224, Note_on_c, 0, 76, 65
3, 356352, Note_on_c, 0, 76, 0
3, 356352, Note_on_c, 0, 74, 65
3, 356480, Note_on_c, 0, 74, 0
3, 356480, Note_on_c, 0, 76, 66
3, 356608, Note_on_c, 0, 76, 0
3, 356608, Note_on_c, 0, 74, 66
3, 356736, Note_on_c, 0, 74, 0
3, 356736, Note_on_c, 0, 76, 67
3, 356864, Note_on_c, 0, 76, 0
3, 356864, Note_on_c, 0, 76, 67
3, 356992, Note_on_c, 0, 76, 0
3, 356992, Note_on_c, 0, 78, 68
3, 357120, Note_on_c, 0, 78, 0
3, 357120, Note_on_c, 0, 76, 68
3, 357248, Note_on_c, 0, 76, 0
3, 357248, Note_on_c, 0, 78, 69
3, 357376, Note_on_c, 0, 78, 0
3, 357376, Note_on_c, 0, 76, 70
3, 357504, Note_on_c, 0, 76, 0
3, 357504, Note_on_c, 0, 78, 70
3, 357632, Note_on_c, 0, 78, 0
3, 357632, Note_on_c, 0, 76, 71
3, 357760, Note_on_c, 0, 76, 0
3, 357760, Note_on_c, 0, 78, 71
3, 357888, Note_on_c, 0, 78, 0
3, 357888, Note_on_c, 0, 76, 72
3, 358016, Note_on_c, 0, 76, 0
3, 358016, Note_on_c, 0, 78, 72
3, 358144, Note_on_c, 0, 78, 0
3, 358144, Note_on_c, 0, 76, 73
3, 358272, Note_on_c, 0, 76, 0
3, 358272, Note_on_c, 0, 78, 73
3, 358400, Note_on_c, 0, 78, 0
3, 358400, Note_on_c, 0, 78, 74
3, 358528, Note_on_c, 0, 78, 0
3, 358528, Note_on_c, 0, 79, 74
3, 358656, Note_on_c, 0, 79, 0
3, 358656, Note_on_c, 0, 78, 75
3, 358784, Note_on_c, 0, 78, 0
3, 358784, Note_on_c, 0, 79, 75
3, 358912, Note_on_c, 0, 79, 0
3, 358912, Note_on_c, 0, 78, 76
3, 359040, Note_on_c, 0, 78, 0
3, 359040, Note_on_c, 0, 79, 76
3, 359168, Note_on_c, 0, 79, 0
3, 359168, Note_on_c, 0, 78, 77
3, 359296, Note_on_c, 0, 78, 0
3, 359296, Note_on_c, 0, 79, 77
3, 359424, Note_on_c, 0, 79, 0
3, 359424, Note_on_c, 0, 78, 78
3, 359552, Note_on_c, 0, 78, 0
3, 359552, Note_on_c, 0, 79, 79
3, 359680, Note_on_c, 0, 79, 0
3, 359680, Note_on_c, 0, 78, 79
3, 359808, Note_on_c, 0, 78, 0
3, 359808, Note_on_c, 0, 79, 80
3, 359936, Note_on_c, 0, 79, 0
3, 359936, Note_on_c, 0, 79, 80
3, 360064, Note_on_c, 0, 79, 0
3, 360064, Note_on_c, 0, 81, 81
3, 360192, Note_on_c, 0, 81, 0
3, 360192, Note_on_c, 0, 79, 81
3, 360320, Note_on_c, 0, 79, 0
3, 360320, Note_on_c, 0, 81, 82
3, 360448, Note_on_c, 0, 81, 0
3, 360448, Note_on_c, 0, 79, 82
3, 360576, Note_on_c, 0, 79, 0
3, 360576, Note_on_c, 0, 81, 83
3, 360704, Note_on_c, 0, 81, 0
3, 360704, Note_on_c, 0, 79, 83
3, 360832, Note_on_c, 0, 79, 0
3, 360832, Note_on_c, 0, 81, 84
3, 360960, Note_on_c, 0, 81, 0
3, 360960, Note_on_c, 0, 79, 84
3, 361088, Note_on_c, 0, 79, 0
3, 361088, Note_on_c, 0, 81, 85
3, 361216, Note_on_c, 0, 81, 0
3, 361216, Note_on_c, 0, 79, 85
3, 361344, Note_on_c, 0, 79, 0
3, 361344, Note_on_c, 0, 81, 86
3, 361472, Note_on_c, 0, 81, 0
3, 361472, Note_on_c, 0, 81, 86
3, 361600, Note_on_c, 0, 81, 0
3, 361600, Note_on_c, 0, 83, 87
3, 361728, Note_on_c, 0, 83, 0
3, 361728, Note_on_c, 0, 81, 88
3, 361856, Note_on_c, 0, 81, 0
3, 361856, Note_on_c, 0, 83, 88
3, 361984, Note_on_c, 0, 83, 0
3, 361984, Note_on_c, 0, 81, 89
3, 362112, Note_on_c, 0, 81, 0
3, 362112, Note_on_c, 0, 83, 89
3, 362240, Note_on_c, 0, 83, 0
3, 362240, Note_on_c, 0, 81, 90
3, 362368, Note_on_c, 0, 81, 0
3, 362368, Note_on_c, 0, 83, 90
3, 362496, Note_on_c, 0, 83, 0
3, 362496, Note_on_c, 0, 81, 91
3, 362624, Note_on_c, 0, 81, 0
3, 362624, Note_on_c, 0, 83, 91
3, 362752, Note_on_c, 0, 83, 0
3, 362752, Note_on_c, 0, 81, 92
3, 362880, Note_on_c, 0, 81, 0
3, 362880, Note_on_c, 0, 83, 92
3, 363008, Note_on_c, 0, 83, 0
3, 363008, Note_on_c, 0, 81, 93
3, 363136, Note_on_c, 0, 81, 0
3, 363136, Note_on_c, 0, 83, 93
3, 363264, Note_on_c, 0, 83, 0
3, 363264, Note_on_c, 0, 81, 94
3, 363392, Note_on_c, 0, 81, 0
3, 363392, Note_on_c, 0, 83, 94
3, 363520, Note_on_c, 0, 83, 0
3, 363520, Note_on_c, 0, 81, 95
3, 363648, Note_on_c, 0, 81, 0
3, 364032, Note_on_c, 0, 69, 102
3, 364288, Note_on_c, 0, 69, 0
3, 364544, Note_on_c, 0, 69, 102
3, 364800, Note_on_c, 0, 69, 0
3, 365056, Note_on_c, 0, 69, 103
3, 365312, Note_on_c, 0, 69, 0
3, 365568, Note_on_c, 0, 74, 104
3, 365824, Note_on_c, 0, 74, 0
3, 366080, Note_on_c, 0, 69, 105
3, 366336, Note_on_c, 0, 69, 0
3, 366592, Note_on_c, 0, 69, 105
3, 366848, Note_on_c, 0, 69, 0
3, 367104, Note_on_c, 0, 66, 106
3, 367360, Note_on_c, 0, 66, 0
3, 367616, Note_on_c, 0, 62, 107
3, 367872, Note_on_c, 0, 62, 0
3, 368128, Note_on_c, 0, 66, 108
3, 368384, Note_on_c, 0, 66, 0
3, 368640, Note_on_c, 0, 69, 108
3, 368896, Note_on_c, 0, 69, 0
3, 370176, Note_on_c, 0, 81, 111
3, 370432, Note_on_c, 0, 81, 0
3, 371712, Note_on_c, 0, 81, 113
3, 371968, Note_on_c, 0, 81, 0
3, 373248, Note_on_c, 0, 79, 115
3, 373504, Note_on_c, 0, 79, 0
3, 374784, Note_on_c, 0, 79, 117
3, 375552, Note_on_c, 0, 79, 0
3, 375552, Note_on_c, 0, 76, 119
3, 375808, Note_on_c, 0, 76, 0
3, 375808, Note_on_c, 0, 78, 119
3, 376576, Note_on_c, 0, 78, 0
3, 376576, Note_on_c, 0, 79, 121
3, 376832, Note_on_c, 0, 79, 0
3, 376832, Note_on_c, 0, 78, 121
3, 376896, Note_on_c, 0, 78, 0
3, 376896, Note_on_c, 0, 76, 121
3, 376960, Note_on_c, 0, 76, 0
3, 376960, Note_on_c, 0, 78, 121
3, 377024, Note_on_c, 0, 78, 0
3, 377024, Note_on_c, 0, 76, 122
3, 377088, Note_on_c, 0, 76, 0
3, 377088, Note_on_c, 0, 78, 122
3, 377152, Note_on_c, 0, 78, 0
3, 377152, Note_on_c, 0, 76, 122
3, 377216, Note_on_c, 0, 76, 0
3, 377216, Note_on_c, 0, 78, 122
3, 377280, Note_on_c, 0, 78, 0
3, 377280, Note_on_c, 0, 76, 122
3, 377344, Note_on_c, 0, 76, 0
3, 377344, Note_on_c, 0, 78, 122
3, 377408, Note_on_c, 0, 78, 0
3, 377408, Note_on_c, 0, 76, 122
3, 377472, Note_on_c, 0, 76, 0
3, 377472, Note_on_c, 0, 78, 122
3, 377536, Note_on_c, 0, 78, 0
3, 377536, Note_on_c, 0, 76, 122
3, 377600, Note_on_c, 0, 76, 0
3, 377600, Note_on_c, 0, 74, 123
3, 377856, Note_on_c, 0, 74, 0
3, 377856, Note_on_c, 0, 74, 123
3, 379392, Control_c, 0, 121, 127
3, 379392, Note_on_c, 0, 74, 0
3, 379392, End_track
4, 0, Start_track
4, 0, Title_t, "Timpani"
4, 0, Program_c, 2, 47
4, 0, Control_c, 2, 121, 127
4, 0, Control_c, 2, 91, 127
4, 0, Control_c, 2, 10, 90
4, 1024, Note_on_c, 2, 50, 108
4, 1536, Note_on_c, 2, 50, 0
4, 1536, Note_on_c, 2, 50, 102
4, 1664, Note_on_c, 2, 50, 0
4, 1664, Note_on_c, 2, 50, 103
4, 1792, Note_on_c, 2, 50, 0
4, 1792, Note_on_c, 2, 50, 104
4, 1920, Note_on_c, 2, 50, 0
4, 1920, Note_on_c, 2, 50, 105
4, 2048, Note_on_c, 2, 50, 0
4, 2048, Note_on_c, 2, 50, 106
4, 2918, Note_on_c, 2, 50, 0
4, 5120, Note_on_c, 2, 50, 109
4, 5632, Note_on_c, 2, 50, 0
4, 5632, Note_on_c, 2, 50, 101
4, 5760, Note_on_c, 2, 50, 0
4, 5760, Note_on_c, 2, 50, 103
4, 5888, Note_on_c, 2, 50, 0
4, 5888, Note_on_c, 2, 50, 104
4, 6016, Note_on_c, 2, 50, 0
4, 6016, Note_on_c, 2, 50, 105
4, 6144, Note_on_c, 2, 50, 0
4, 6144, Note_on_c, 2, 50, 107
4, 7014, Note_on_c, 2, 50, 0
4, 9216, Note_on_c, 2, 50, 107
4, 9728, Note_on_c, 2, 50, 0
4, 9728, Note_on_c, 2, 50, 100
4, 9856, Note_on_c, 2, 50, 0
4, 9856, Note_on_c, 2, 50, 101
4, 9984, Note_on_c, 2, 50, 0
4, 9984, Note_on_c, 2, 50, 103
4, 10112, Note_on_c, 2, 50, 0
4, 10112, Note_on_c, 2, 50, 104
4, 10240, Note_on_c, 2, 50, 0
4, 10240, Note_on_c, 2, 50, 105
4, 11110, Note_on_c, 2, 50, 0
4, 17408, Note_on_c, 2, 50, 99
4, 17920, Note_on_c, 2, 50, 0
4, 17920, Note_on_c, 2, 50, 97
4, 18048, Note_on_c, 2, 50, 0
4, 18048, Note_on_c, 2, 50, 97
4, 18176, Note_on_c, 2, 50, 0
4, 18176, Note_on_c, 2, 50, 97
4, 18304, Note_on_c, 2, 50, 0
4, 18304, Note_on_c, 2, 50, 97
4, 18432, Note_on_c, 2, 50, 0
4, 18432, Note_on_c, 2, 50, 97
4, 19302, Note_on_c, 2, 50, 0
4, 21504, Note_on_c, 2, 50, 97
4, 22016, Note_on_c, 2, 50, 0
4, 22016, Note_on_c, 2, 50, 97
4, 22144, Note_on_c, 2, 50, 0
4, 22144, Note_on_c, 2, 50, 97
4, 22272, Note_on_c, 2, 50, 0
4, 22272, Note_on_c, 2, 50, 97
4, 22400, Note_on_c, 2, 50, 0
4, 22400, Note_on_c, 2, 50, 97
4, 22528, Note_on_c, 2, 50, 0
4, 22528, Note_on_c, 2, 50, 97
4, 23040, Note_on_c, 2, 50, 0
4, 23552, Note_on_c, 2, 45, 98
4, 24064, Note_on_c, 2, 45, 0
4, 24064, Note_on_c, 2, 45, 100
4, 24192, Note_on_c, 2, 45, 0
4, 24192, Note_on_c, 2, 45, 101
4, 24320, Note_on_c, 2, 45, 0
4, 24320, Note_on_c, 2, 45, 101
4, 24448, Note_on_c, 2, 45, 0
4, 24448, Note_on_c, 2, 45, 102
4, 24576, Note_on_c, 2, 45, 0
4, 24576, Note_on_c, 2, 45, 103
4, 25088, Note_on_c, 2, 45, 0
4, 25600, Note_on_c, 2, 45, 108
4, 26112, Note_on_c, 2, 45, 0
4, 26112, Note_on_c, 2, 45, 99
4, 26240, Note_on_c, 2, 45, 0
4, 26240, Note_on_c, 2, 45, 101
4, 26368, Note_on_c, 2, 45, 0
4, 26368, Note_on_c, 2, 45, 102
4, 26496, Note_on_c, 2, 45, 0
4, 26496, Note_on_c, 2, 45, 104
4, 26624, Note_on_c, 2, 45, 0
4, 26624, Note_on_c, 2, 45, 105
4, 27494, Note_on_c, 2, 45, 0
4, 29696, Note_on_c, 2, 45, 106
4, 30208, Note_on_c, 2, 45, 0
4, 30208, Note_on_c, 2, 45, 98
4, 30336, Note_on_c, 2, 45, 0
4, 30336, Note_on_c, 2, 45, 100
4, 30464, Note_on_c, 2, 45, 0
4, 30464, Note_on_c, 2, 45, 101
4, 30592, Note_on_c, 2, 45, 0
4, 30592, Note_on_c, 2, 45, 102
4, 30720, Note_on_c, 2, 45, 0
4, 30720, Note_on_c, 2, 45, 104
4, 31590, Note_on_c, 2, 45, 0
4, 33792, Note_on_c, 2, 45, 106
4, 34304, Note_on_c, 2, 45, 0
4, 34304, Note_on_c, 2, 45, 95
4, 34432, Note_on_c, 2, 45, 0
4, 34432, Note_on_c, 2, 45, 97
4, 34560, Note_on_c, 2, 45, 0
4, 34560, Note_on_c, 2, 45, 98
4, 34688, Note_on_c, 2, 45, 0
4, 34688, Note_on_c, 2, 45, 99
4, 34816, Note_on_c, 2, 45, 0
4, 34816, Note_on_c, 2, 45, 100
4, 35686, Note_on_c, 2, 45, 0
4, 41984, Note_on_c, 2, 45, 97
4, 42496, Note_on_c, 2, 45, 0
4, 42496, Note_on_c, 2, 45, 96
4, 42624, Note_on_c, 2, 45, 0
4, 42624, Note_on_c, 2, 45, 96
4, 42752, Note_on_c, 2, 45, 0
4, 42752, Note_on_c, 2, 45, 96
4, 42880, Note_on_c, 2, 45, 0
4, 42880, Note_on_c, 2, 45, 96
4, 43008, Note_on_c, 2, 45, 0
4, 43008, Note_on_c, 2, 45, 96
4, 43878, Note_on_c, 2, 45, 0
4, 46080, Note_on_c, 2, 45, 96
4, 46592, Note_on_c, 2, 45, 0
4, 46592, Note_on_c, 2, 45, 96
4, 46720, Note_on_c, 2, 45, 0
4, 46720, Note_on_c, 2, 45, 96
4, 46848, Note_on_c, 2, 45, 0
4, 46848, Note_on_c, 2, 45, 96
4, 46976, Note_on_c, 2, 45, 0
4, 46976, Note_on_c, 2, 45, 96
4, 47104, Note_on_c, 2, 45, 0
4, 47104, Note_on_c, 2, 45, 96
4, 47974, Note_on_c, 2, 45, 0
4, 48128, Note_on_c, 2, 50, 96
4, 48640, Note_on_c, 2, 50, 0
4, 48640, Note_on_c, 2, 50, 98
4, 48768, Note_on_c, 2, 50, 0
4, 48768, Note_on_c, 2, 50, 99
4, 48896, Note_on_c, 2, 50, 0
4, 48896, Note_on_c, 2, 50, 100
4, 49024, Note_on_c, 2, 50, 0
4, 49024, Note_on_c, 2, 50, 100
4, 49152, Note_on_c, 2, 50, 0
4, 49152, Note_on_c, 2, 50, 101
4, 50022, Note_on_c, 2, 50, 0
4, 50176, Note_on_c, 2, 50, 106
4, 50688, Note_on_c, 2, 50, 0
4, 50688, Note_on_c, 2, 50, 99
4, 50816, Note_on_c, 2, 50, 0
4, 50816, Note_on_c, 2, 50, 100
4, 50944, Note_on_c, 2, 50, 0
4, 50944, Note_on_c, 2, 50, 101
4, 51072, Note_on_c, 2, 50, 0
4, 51072, Note_on_c, 2, 50, 103
4, 51200, Note_on_c, 2, 50, 0
4, 51200, Note_on_c, 2, 50, 104
4, 52070, Note_on_c, 2, 50, 0
4, 54272, Note_on_c, 2, 50, 104
4, 54784, Note_on_c, 2, 50, 0
4, 54784, Note_on_c, 2, 50, 98
4, 54912, Note_on_c, 2, 50, 0
4, 54912, Note_on_c, 2, 50, 99
4, 55040, Note_on_c, 2, 50, 0
4, 55040, Note_on_c, 2, 50, 101
4, 55168, Note_on_c, 2, 50, 0
4, 55168, Note_on_c, 2, 50, 102
4, 55296, Note_on_c, 2, 50, 0
4, 55296, Note_on_c, 2, 50, 103
4, 56166, Note_on_c, 2, 50, 0
4, 58368, Note_on_c, 2, 50, 104
4, 58880, Note_on_c, 2, 50, 0
4, 58880, Note_on_c, 2, 50, 96
4, 59008, Note_on_c, 2, 50, 0
4, 59008, Note_on_c, 2, 50, 98
4, 59136, Note_on_c, 2, 50, 0
4, 59136, Note_on_c, 2, 50, 99
4, 59264, Note_on_c, 2, 50, 0
4, 59264, Note_on_c, 2, 50, 100
4, 59392, Note_on_c, 2, 50, 0
4, 59392, Note_on_c, 2, 50, 102
4, 60262, Note_on_c, 2, 50, 0
4, 66560, Note_on_c, 2, 50, 88
4, 67072, Note_on_c, 2, 50, 0
4, 67072, Note_on_c, 2, 50, 83
4, 67200, Note_on_c, 2, 50, 0
4, 67200, Note_on_c, 2, 50, 84
4, 67328, Note_on_c, 2, 50, 0
4, 67328, Note_on_c, 2, 50, 85
4, 67456, Note_on_c, 2, 50, 0
4, 67456, Note_on_c, 2, 50, 86
4, 67584, Note_on_c, 2, 50, 0
4, 67584, Note_on_c, 2, 50, 88
4, 68454, Note_on_c, 2, 50, 0
4, 74752, Note_on_c, 2, 50, 100
4, 75264, Note_on_c, 2, 50, 0
4, 75264, Note_on_c, 2, 50, 93
4, 75392, Note_on_c, 2, 50, 0
4, 75392, Note_on_c, 2, 50, 94
4, 75520, Note_on_c, 2, 50, 0
4, 75520, Note_on_c, 2, 50, 95
4, 75648, Note_on_c, 2, 50, 0
4, 75648, Note_on_c, 2, 50, 96
4, 75776, Note_on_c, 2, 50, 0
4, 75776, Note_on_c, 2, 50, 97
4, 76646, Note_on_c, 2, 50, 0
4, 82944, Note_on_c, 2, 50, 80
4, 83456, Note_on_c, 2, 50, 0
4, 83456, Note_on_c, 2, 50, 80
4, 83584, Note_on_c, 2, 50, 0
4, 83584, Note_on_c, 2, 50, 80
4, 83712, Note_on_c, 2, 50, 0
4, 83712, Note_on_c, 2, 50, 80
4, 83840, Note_on_c, 2, 50, 0
4, 83840, Note_on_c, 2, 50, 80
4, 83968, Note_on_c, 2, 50, 0
4, 83968, Note_on_c, 2, 50, 80
4, 84838, Note_on_c, 2, 50, 0
4, 140288, Note_on_c, 2, 45, 94
4, 140800, Note_on_c, 2, 45, 0
4, 140800, Note_on_c, 2, 45, 90
4, 140928, Note_on_c, 2, 45, 0
4, 140928, Note_on_c, 2, 45, 91
4, 141056, Note_on_c, 2, 45, 0
4, 141056, Note_on_c, 2, 45, 92
4, 141184, Note_on_c, 2, 45, 0
4, 141184, Note_on_c, 2, 45, 94
4, 141312, Note_on_c, 2, 45, 0
4, 141312, Note_on_c, 2, 45, 95
4, 142182, Note_on_c, 2, 45, 0
4, 148480, Note_on_c, 2, 45, 94
4, 148992, Note_on_c, 2, 45, 0
4, 148992, Note_on_c, 2, 45, 89
4, 149120, Note_on_c, 2, 45, 0
4, 149120, Note_on_c, 2, 45, 90
4, 149248, Note_on_c, 2, 45, 0
4, 149248, Note_on_c, 2, 45, 91
4, 149376, Note_on_c, 2, 45, 0
4, 149376, Note_on_c, 2, 45, 92
4, 149504, Note_on_c, 2, 45, 0
4, 149504, Note_on_c, 2, 45, 93
4, 150374, Note_on_c, 2, 45, 0
4, 156672, Note_on_c, 2, 50, 94
4, 157184, Note_on_c, 2, 50, 0
4, 157184, Note_on_c, 2, 50, 90
4, 157312, Note_on_c, 2, 50, 0
4, 157312, Note_on_c, 2, 50, 91
4, 157440, Note_on_c, 2, 50, 0
4, 157440, Note_on_c, 2, 50, 92
4, 157568, Note_on_c, 2, 50, 0
4, 157568, Note_on_c, 2, 50, 93
4, 157696, Note_on_c, 2, 50, 0
4, 157696, Note_on_c, 2, 50, 94
4, 158566, Note_on_c, 2, 50, 0
4, 230400, Note_on_c, 2, 45, 89
4, 230656, Note_on_c, 2, 45, 0
4, 231936, Note_on_c, 2, 45, 89
4, 232192, Note_on_c, 2, 45, 0
4, 233472, Note_on_c, 2, 50, 89
4, 233728, Note_on_c, 2, 50, 0
4, 237568, Note_on_c, 2, 50, 89
4, 237824, Note_on_c, 2, 50, 0
4, 237824, Note_on_c, 2, 50, 89
4, 238080, Note_on_c, 2, 50, 0
4, 238080, Note_on_c, 2, 50, 89
4, 238336, Note_on_c, 2, 50, 0
4, 238592, Note_on_c, 2, 45, 89
4, 238848, Note_on_c, 2, 45, 0
4, 238848, Note_on_c, 2, 45, 89
4, 239104, Note_on_c, 2, 45, 0
4, 239104, Note_on_c, 2, 45, 89
4, 239360, Note_on_c, 2, 45, 0
4, 239360, Note_on_c, 2, 45, 89
4, 239616, Note_on_c, 2, 45, 0
4, 239616, Note_on_c, 2, 50, 89
4, 239872, Note_on_c, 2, 50, 0
4, 293376, Note_on_c, 2, 45, 88
4, 293632, Note_on_c, 2, 45, 0
4, 293888, Note_on_c, 2, 45, 88
4, 294144, Note_on_c, 2, 45, 0
4, 294144, Note_on_c, 2, 45, 88
4, 294400, Note_on_c, 2, 45, 0
4, 294400, Note_on_c, 2, 45, 88
4, 294656, Note_on_c, 2, 45, 0
4, 294656, Note_on_c, 2, 45, 88
4, 294912, Note_on_c, 2, 45, 0
4, 294912, Note_on_c, 2, 50, 88
4, 295168, Note_on_c, 2, 50, 0
4, 299520, Note_on_c, 2, 45, 92
4, 299776, Note_on_c, 2, 45, 0
4, 300544, Note_on_c, 2, 50, 95
4, 300800, Note_on_c, 2, 50, 0
4, 300800, Note_on_c, 2, 50, 96
4, 301056, Note_on_c, 2, 50, 0
4, 301056, Note_on_c, 2, 50, 96
4, 301312, Note_on_c, 2, 50, 0
4, 301568, Note_on_c, 2, 45, 98
4, 301824, Note_on_c, 2, 45, 0
4, 301824, Note_on_c, 2, 45, 99
4, 302080, Note_on_c, 2, 45, 0
4, 302080, Note_on_c, 2, 45, 100
4, 302336, Note_on_c, 2, 45, 0
4, 302336, Note_on_c, 2, 45, 100
4, 302592, Note_on_c, 2, 45, 0
4, 302592, Note_on_c, 2, 50, 102
4, 302848, Note_on_c, 2, 50, 0
4, 321024, Note_on_c, 2, 50, 87
4, 321280, Note_on_c, 2, 50, 0
4, 322560, Note_on_c, 2, 50, 87
4, 322816, Note_on_c, 2, 50, 0
4, 327168, Note_on_c, 2, 50, 87
4, 327424, Note_on_c, 2, 50, 0
4, 328192, Note_on_c, 2, 50, 87
4, 328448, Note_on_c, 2, 50, 0
4, 328448, Note_on_c, 2, 50, 86
4, 328704, Note_on_c, 2, 50, 0
4, 328704, Note_on_c, 2, 50, 87
4, 328960, Note_on_c, 2, 50, 0
4, 329216, Note_on_c, 2, 50, 87
4, 329472, Note_on_c, 2, 50, 0
4, 329472, Note_on_c, 2, 50, 87
4, 329728, Note_on_c, 2, 50, 0
4, 329728, Note_on_c, 2, 50, 87
4, 329984, Note_on_c, 2, 50, 0
4, 329984, Note_on_c, 2, 50, 87
4, 330240, Note_on_c, 2, 50, 0
4, 330240, Note_on_c, 2, 50, 87
4, 330496, Note_on_c, 2, 50, 0
4, 347136, Note_on_c, 2, 50, 103
4, 347392, Note_on_c, 2, 50, 0
4, 347648, Note_on_c, 2, 50, 98
4, 347904, Note_on_c, 2, 50, 0
4, 348160, Note_on_c, 2, 50, 98
4, 348416, Note_on_c, 2, 50, 0
4, 348672, Note_on_c, 2, 50, 98
4, 348928, Note_on_c, 2, 50, 0
4, 351744, Note_on_c, 2, 45, 97
4, 352000, Note_on_c, 2, 45, 0
4, 352768, Note_on_c, 2, 50, 98
4, 353024, Note_on_c, 2, 50, 0
4, 353024, Note_on_c, 2, 50, 98
4, 353280, Note_on_c, 2, 50, 0
4, 353280, Note_on_c, 2, 50, 95
4, 353536, Note_on_c, 2, 50, 0
4, 353792, Note_on_c, 2, 45, 89
4, 354048, Note_on_c, 2, 45, 0
4, 354048, Note_on_c, 2, 45, 85
4, 354304, Note_on_c, 2, 45, 0
4, 354304, Note_on_c, 2, 45, 82
4, 354560, Note_on_c, 2, 45, 0
4, 354560, Note_on_c, 2, 45, 79
4, 354816, Note_on_c, 2, 45, 0
4, 354816, Note_on_c, 2, 50, 59
4, 355072, Note_on_c, 2, 50, 0
4, 364032, Note_on_c, 2, 45, 102
4, 364288, Note_on_c, 2, 45, 0
4, 364544, Note_on_c, 2, 45, 102
4, 364800, Note_on_c, 2, 45, 0
4, 365056, Note_on_c, 2, 45, 103
4, 365312, Note_on_c, 2, 45, 0
4, 365568, Note_on_c, 2, 50, 104
4, 365824, Note_on_c, 2, 50, 0
4, 366080, Note_on_c, 2, 45, 105
4, 366336, Note_on_c, 2, 45, 0
4, 366592, Note_on_c, 2, 45, 105
4, 366848, Note_on_c, 2, 45, 0
4, 367104, Note_on_c, 2, 50, 106
4, 367360, Note_on_c, 2, 50, 0
4, 367616, Note_on_c, 2, 50, 107
4, 367872, Note_on_c, 2, 50, 0
4, 367872, Note_on_c, 2, 50, 107
4, 368128, Note_on_c, 2, 50, 0
4, 368128, Note_on_c, 2, 50, 108
4, 368384, Note_on_c, 2, 50, 0
4, 368384, Note_on_c, 2, 50, 108
4, 368640, Note_on_c, 2, 50, 0
4, 368640, Note_on_c, 2, 45, 108
4, 368896, Note_on_c, 2, 45, 0
4, 369152, Note_on_c, 2, 45, 109
4, 369408, Note_on_c, 2, 45, 0
4, 369664, Note_on_c, 2, 45, 110
4, 369920, Note_on_c, 2, 45, 0
4, 370176, Note_on_c, 2, 45, 111
4, 370432, Note_on_c, 2, 45, 0
4, 371712, Note_on_c, 2, 50, 113
4, 371968, Note_on_c, 2, 50, 0
4, 374784, Note_on_c, 2, 45, 117
4, 375040, Note_on_c, 2, 45, 0
4, 375296, Note_on_c, 2, 45, 118
4, 375552, Note_on_c, 2, 45, 0
4, 375552, Note_on_c, 2, 45, 119
4, 375808, Note_on_c, 2, 45, 0
4, 375808, Note_on_c, 2, 50, 119
4, 376064, Note_on_c, 2, 50, 0
4, 376064, Note_on_c, 2, 50, 120
4, 376320, Note_on_c, 2, 50, 0
4, 376320, Note_on_c, 2, 50, 120
4, 376576, Note_on_c, 2, 50, 0
4, 376832, Note_on_c, 2, 45, 121
4, 377088, Note_on_c, 2, 45, 0
4, 377088, Note_on_c, 2, 45, 122
4, 377344, Note_on_c, 2, 45, 0
4, 377344, Note_on_c, 2, 45, 122
4, 377600, Note_on_c, 2, 45, 0
4, 377600, Note_on_c, 2, 45, 123
4, 377856, Note_on_c, 2, 45, 0
4, 377856, Note_on_c, 2, 50, 123
4, 379392, Control_c, 2, 121, 127
4, 379392, Note_on_c, 2, 50, 0
4, 379392, End_track
5, 0, Start_track
5, 0, Title_t, "Trumpet II and III"
5, 0, Program_c, 1, 56
5, 0, Control_c, 1, 121, 127
5, 0, Control_c, 1, 91, 127
5, 0, Control_c, 1, 1, 10
5, 0, Control_c, 1, 10, 50
5, 1024, Note_on_c, 1, 74, 108
5, 1024, Note_on_c, 1, 69, 108
5, 1365, Note_on_c, 1, 74, 0
5, 1365, Note_on_c, 1, 76, 101
5, 1707, Note_on_c, 1, 76, 0
5, 1707, Note_on_c, 1, 78, 104
5, 1894, Note_on_c, 1, 69, 0
5, 2048, Note_on_c, 1, 78, 0
5, 2048, Note_on_c, 1, 78, 106
5, 2048, Note_on_c, 1, 74, 106
5, 2918, Note_on_c, 1, 78, 0
5, 2918, Note_on_c, 1, 74, 0
5, 5120, Note_on_c, 1, 74, 109
5, 5120, Note_on_c, 1, 69, 109
5, 5461, Note_on_c, 1, 74, 0
5, 5461, Note_on_c, 1, 76, 100
5, 5803, Note_on_c, 1, 76, 0
5, 5803, Note_on_c, 1, 78, 103
5, 5990, Note_on_c, 1, 69, 0
5, 6144, Note_on_c, 1, 78, 0
5, 6144, Note_on_c, 1, 78, 107
5, 6144, Note_on_c, 1, 74, 107
5, 7014, Note_on_c, 1, 78, 0
5, 7014, Note_on_c, 1, 74, 0
5, 9216, Note_on_c, 1, 79, 107
5, 9216, Note_on_c, 1, 74, 107
5, 9557, Note_on_c, 1, 79, 0
5, 9557, Note_on_c, 1, 81, 98
5, 9899, Note_on_c, 1, 81, 0
5, 9899, Note_on_c, 1, 83, 102
5, 10086, Note_on_c, 1, 74, 0
5, 10240, Note_on_c, 1, 83, 0
5, 10240, Note_on_c, 1, 83, 105
5, 10240, Note_on_c, 1, 79, 105
5, 11110, Note_on_c, 1, 83, 0
5, 11110, Note_on_c, 1, 79, 0
5, 17408, Note_on_c, 1, 81, 99
5, 17408, Note_on_c, 1, 78, 99
5, 18278, Note_on_c, 1, 81, 0
5, 18278, Note_on_c, 1, 78, 0
5, 18432, Note_on_c, 1, 78, 97
5, 18432, Note_on_c, 1, 74, 97
5, 19302, Note_on_c, 1, 78, 0
5, 19302, Note_on_c, 1, 74, 0
5, 21504, Note_on_c, 1, 83, 97
5, 21504, Note_on_c, 1, 78, 97
5, 22374, Note_on_c, 1, 83, 0
5, 22374, Note_on_c, 1, 78, 0
5, 22528, Note_on_c, 1, 80, 97
5, 22528, Note_on_c, 1, 76, 97
5, 23398, Note_on_c, 1, 80, 0
5, 23398, Note_on_c, 1, 76, 0
5, 23552, Note_on_c, 1, 81, 98
5, 23552, Note_on_c, 1, 76, 98
5, 24422, Note_on_c, 1, 81, 0
5, 24422, Note_on_c, 1, 76, 0
5, 25600, Note_on_c, 1, 81, 108
5, 25600, Note_on_c, 1, 76, 108
5, 26470, Note_on_c, 1, 81, 0
5, 26470, Note_on_c, 1, 76, 0
5, 26624, Note_on_c, 1, 76, 105
5, 26624, Note_on_c, 1, 69, 105
5, 27494, Note_on_c, 1, 76, 0
5, 27494, Note_on_c, 1, 69, 0
5, 29696, Note_on_c, 1, 81, 106
5, 29696, Note_on_c, 1, 76, 106
5, 30566, Note_on_c, 1, 81, 0
5, 30566, Note_on_c, 1, 76, 0
5, 30720, Note_on_c, 1, 76, 104
5, 30720, Note_on_c, 1, 69, 104
5, 31590, Note_on_c, 1, 76, 0
5, 31590, Note_on_c, 1, 69, 0
5, 33792, Note_on_c, 1, 81, 106
5, 33792, Note_on_c, 1, 78, 106
5, 34662, Note_on_c, 1, 81, 0
5, 34662, Note_on_c, 1, 78, 0
5, 34816, Note_on_c, 1, 78, 100
5, 34816, Note_on_c, 1, 74, 100
5, 35686, Note_on_c, 1, 78, 0
5, 35686, Note_on_c, 1, 74, 0
5, 41984, Note_on_c, 1, 81, 97
5, 41984, Note_on_c, 1, 76, 97
5, 42854, Note_on_c, 1, 81, 0
5, 42854, Note_on_c, 1, 76, 0
5, 43008, Note_on_c, 1, 76, 96
5, 43008, Note_on_c, 1, 69, 96
5, 43878, Note_on_c, 1, 76, 0
5, 43878, Note_on_c, 1, 69, 0
5, 46080, Note_on_c, 1, 79, 96
5, 46080, Note_on_c, 1, 76, 96
5, 46950, Note_on_c, 1, 79, 0
5, 46950, Note_on_c, 1, 76, 0
5, 47104, Note_on_c, 1, 81, 96
5, 47104, Note_on_c, 1, 76, 96
5, 47974, Note_on_c, 1, 81, 0
5, 47974, Note_on_c, 1, 76, 0
5, 48128, Note_on_c, 1, 81, 96
5, 48128, Note_on_c, 1, 78, 96
5, 48998, Note_on_c, 1, 81, 0
5, 48998, Note_on_c, 1, 78, 0
5, 50176, Note_on_c, 1, 74, 106
5, 50176, Note_on_c, 1, 69, 106
5, 50517, Note_on_c, 1, 74, 0
5, 50517, Note_on_c, 1, 76, 97
5, 50859, Note_on_c, 1, 76, 0
5, 50859, Note_on_c, 1, 78, 100
5, 51046, Note_on_c, 1, 69, 0
5, 51200, Note_on_c, 1, 78, 0
5, 51200, Note_on_c, 1, 78, 104
5, 51200, Note_on_c, 1, 74, 104
5, 52070, Note_on_c, 1, 78, 0
5, 52070, Note_on_c, 1, 74, 0
5, 54272, Note_on_c, 1, 74, 104
5, 54272, Note_on_c, 1, 69, 104
5, 54613, Note_on_c, 1, 74, 0
5, 54613, Note_on_c, 1, 76, 96
5, 54955, Note_on_c, 1, 76, 0
5, 54955, Note_on_c, 1, 78, 100
5, 55142, Note_on_c, 1, 69, 0
5, 55296, Note_on_c, 1, 78, 0
5, 55296, Note_on_c, 1, 78, 103
5, 55296, Note_on_c, 1, 74, 103
5, 56166, Note_on_c, 1, 78, 0
5, 56166, Note_on_c, 1, 74, 0
5, 58368, Note_on_c, 1, 79, 104
5, 58368, Note_on_c, 1, 74, 104
5, 58709, Note_on_c, 1, 79, 0
5, 58709, Note_on_c, 1, 81, 94
5, 59051, Note_on_c, 1, 81, 0
5, 59051, Note_on_c, 1, 83, 98
5, 59238, Note_on_c, 1, 74, 0
5, 59392, Note_on_c, 1, 83, 0
5, 59392, Note_on_c, 1, 83, 102
5, 59392, Note_on_c, 1, 79, 102
5, 60262, Note_on_c, 1, 83, 0
5, 60262, Note_on_c, 1, 79, 0
5, 66560, Note_on_c, 1, 81, 88
5, 66560, Note_on_c, 1, 78, 88
5, 67430, Note_on_c, 1, 81, 0
5, 67430, Note_on_c, 1, 78, 0
5, 67584, Note_on_c, 1, 78, 88
5, 67584, Note_on_c, 1, 74, 88
5, 68454, Note_on_c, 1, 78, 0
5, 68454, Note_on_c, 1, 74, 0
5, 74752, Note_on_c, 1, 83, 100
5, 74752, Note_on_c, 1, 78, 100
5, 75622, Note_on_c, 1, 83, 0
5, 75622, Note_on_c, 1, 78, 0
5, 75776, Note_on_c, 1, 78, 97
5, 75776, Note_on_c, 1, 74, 97
5, 76646, Note_on_c, 1, 78, 0
5, 76646, Note_on_c, 1, 74, 0
5, 82944, Note_on_c, 1, 83, 80
5, 82944, Note_on_c, 1, 79, 80
5, 83814, Note_on_c, 1, 83, 0
5, 83814, Note_on_c, 1, 79, 0
5, 83968, Note_on_c, 1, 79, 80
5, 83968, Note_on_c, 1, 74, 80
5, 84838, Note_on_c, 1, 79, 0
5, 84838, Note_on_c, 1, 74, 0
5, 140288, Note_on_c, 1, 81, 94
5, 140288, Note_on_c, 1, 76, 94
5, 141158, Note_on_c, 1, 81, 0
5, 141158, Note_on_c, 1, 76, 0
5, 141312, Note_on_c, 1, 76, 95
5, 141312, Note_on_c, 1, 69, 95
5, 142182, Note_on_c, 1, 76, 0
5, 142182, Note_on_c, 1, 69, 0
5, 148480, Note_on_c, 1, 81, 94
5, 148480, Note_on_c, 1, 78, 94
5, 149350, Note_on_c, 1, 81, 0
5, 149350, Note_on_c, 1, 78, 0
5, 149504, Note_on_c, 1, 78, 93
5, 149504, Note_on_c, 1, 66, 93
5, 150374, Note_on_c, 1, 78, 0
5, 150374, Note_on_c, 1, 66, 0
5, 156672, Note_on_c, 1, 81, 94
5, 156672, Note_on_c, 1, 78, 94
5, 157542, Note_on_c, 1, 81, 0
5, 157542, Note_on_c, 1, 78, 0
5, 157696, Note_on_c, 1, 78, 94
5, 157696, Note_on_c, 1, 69, 94
5, 158566, Note_on_c, 1, 78, 0
5, 158566, Note_on_c, 1, 69, 0
5, 230400, Note_on_c, 1, 81, 89
5, 230400, Note_on_c, 1, 76, 89
5, 230656, Note_on_c, 1, 81, 0
5, 230656, Note_on_c, 1, 76, 0
5, 231936, Note_on_c, 1, 81, 89
5, 231936, Note_on_c, 1, 78, 89
5, 232192, Note_on_c, 1, 81, 0
5, 232192, Note_on_c, 1, 78, 0
5, 233472, Note_on_c, 1, 78, 89
5, 233472, Note_on_c, 1, 74, 89
5, 233728, Note_on_c, 1, 78, 0
5, 233728, Note_on_c, 1, 74, 0
5, 237568, Note_on_c, 1, 81, 89
5, 237568, Note_on_c, 1, 78, 89
5, 237824, Note_on_c, 1, 81, 0
5, 237824, Note_on_c, 1, 79, 89
5, 237824, Note_on_c, 1, 78, 0
5, 237824, Note_on_c, 1, 76, 89
5, 238080, Note_on_c, 1, 79, 0
5, 238080, Note_on_c, 1, 76, 0
5, 238080, Note_on_c, 1, 78, 89
5, 238080, Note_on_c, 1, 74, 89
5, 238336, Note_on_c, 1, 78, 0
5, 238336, Note_on_c, 1, 74, 0
5, 238336, Note_on_c, 1, 69, 89
5, 238592, Note_on_c, 1, 79, 89
5, 238592, Note_on_c, 1, 69, 0
5, 238592, Note_on_c, 1, 76, 89
5, 238848, Note_on_c, 1, 79, 0
5, 238848, Note_on_c, 1, 76, 0
5, 239104, Note_on_c, 1, 76, 89
5, 239104, Note_on_c, 1, 69, 89
5, 239360, Note_on_c, 1, 76, 0
5, 239360, Note_on_c, 1, 69, 0
5, 239616, Note_on_c, 1, 78, 89
5, 239616, Note_on_c, 1, 69, 89
5, 239872, Note_on_c, 1, 78, 0
5, 239872, Note_on_c, 1, 69, 0
5, 293376, Note_on_c, 1, 76, 88
5, 293376, Note_on_c, 1, 69, 88
5, 293632, Note_on_c, 1, 76, 0
5, 293632, Note_on_c, 1, 69, 0
5, 293888, Note_on_c, 1, 81, 88
5, 293888, Note_on_c, 1, 76, 88
5, 294144, Note_on_c, 1, 81, 0
5, 294144, Note_on_c, 1, 76, 0
5, 294400, Note_on_c, 1, 76, 88
5, 294400, Note_on_c, 1, 69, 88
5, 294656, Note_on_c, 1, 76, 0
5, 294656, Note_on_c, 1, 69, 0
5, 294912, Note_on_c, 1, 74, 88
5, 294912, Note_on_c, 1, 66, 88
5, 295168, Note_on_c, 1, 74, 0
5, 295168, Note_on_c, 1, 66, 0
5, 299520, Note_on_c, 1, 76, 92
5, 299520, Note_on_c, 1, 69, 92
5, 299776, Note_on_c, 1, 76, 0
5, 299776, Note_on_c, 1, 69, 0
5, 300544, Note_on_c, 1, 74, 95
5, 300544, Note_on_c, 1, 62, 95
5, 301312, Note_on_c, 1, 74, 0
5, 301312, Note_on_c, 1, 62, 0
5, 301568, Note_on_c, 1, 69, 98
5, 301568, Note_on_c, 1, 69, 98
5, 301824, Note_on_c, 1, 69, 0
5, 301824, Note_on_c, 1, 69, 99
5, 301824, Note_on_c, 1, 69, 0
5, 301824, Note_on_c, 1, 69, 99
5, 302080, Note_on_c, 1, 69, 0
5, 302080, Note_on_c, 1, 69, 100
5, 302080, Note_on_c, 1, 69, 0
5, 302080, Note_on_c, 1, 69, 100
5, 302336, Note_on_c, 1, 69, 0
5, 302336, Note_on_c, 1, 69, 100
5, 302336, Note_on_c, 1, 69, 0
5, 302336, Note_on_c, 1, 69, 100
5, 302592, Note_on_c, 1, 69, 0
5, 302592, Note_on_c, 1, 69, 0
5, 302592, Note_on_c, 1, 69, 102
5, 302592, Note_on_c, 1, 66, 102
5, 302848, Note_on_c, 1, 69, 0
5, 302848, Note_on_c, 1, 66, 0
5, 321024, Note_on_c, 1, 74, 87
5, 321024, Note_on_c, 1, 69, 87
5, 321280, Note_on_c, 1, 74, 0
5, 321280, Note_on_c, 1, 69, 0
5, 322560, Note_on_c, 1, 78, 87
5, 322560, Note_on_c, 1, 62, 87
5, 322816, Note_on_c, 1, 78, 0
5, 322816, Note_on_c, 1, 62, 0
5, 324096, Note_on_c, 1, 83, 87
5, 324096, Note_on_c, 1, 76, 87
5, 324352, Note_on_c, 1, 83, 0
5, 324352, Note_on_c, 1, 76, 0
5, 325632, Note_on_c, 1, 81, 87
5, 325632, Note_on_c, 1, 76, 87
5, 325888, Note_on_c, 1, 81, 0
5, 325888, Note_on_c, 1, 76, 0
5, 327168, Note_on_c, 1, 81, 87
5, 327168, Note_on_c, 1, 74, 87
5, 327424, Note_on_c, 1, 81, 0
5, 327424, Note_on_c, 1, 74, 0
5, 328192, Note_on_c, 1, 79, 87
5, 328192, Note_on_c, 1, 74, 87
5, 328448, Note_on_c, 1, 79, 0
5, 328448, Note_on_c, 1, 74, 0
5, 328704, Note_on_c, 1, 74, 87
5, 328704, Note_on_c, 1, 62, 87
5, 328960, Note_on_c, 1, 74, 0
5, 328960, Note_on_c, 1, 62, 0
5, 329216, Note_on_c, 1, 74, 87
5, 329216, Note_on_c, 1, 62, 87
5, 329472, Note_on_c, 1, 74, 0
5, 329472, Note_on_c, 1, 74, 87
5, 329472, Note_on_c, 1, 62, 0
5, 329472, Note_on_c, 1, 62, 87
5, 329728, Note_on_c, 1, 74, 0
5, 329728, Note_on_c, 1, 74, 87
5, 329728, Note_on_c, 1, 62, 0
5, 329728, Note_on_c, 1, 62, 87
5, 329984, Note_on_c, 1, 74, 0
5, 329984, Note_on_c, 1, 74, 87
5, 329984, Note_on_c, 1, 62, 0
5, 329984, Note_on_c, 1, 62, 87
5, 330240, Note_on_c, 1, 74, 0
5, 330240, Note_on_c, 1, 62, 0
5, 330240, Note_on_c, 1, 74, 87
5, 330240, Note_on_c, 1, 62, 87
5, 330496, Note_on_c, 1, 74, 0
5, 330496, Note_on_c, 1, 62, 0
5, 347136, Note_on_c, 1, 69, 103
5, 347136, Note_on_c, 1, 66, 103
5, 347392, Note_on_c, 1, 69, 0
5, 347392, Note_on_c, 1, 66, 0
5, 347648, Note_on_c, 1, 69, 98
5, 347648, Note_on_c, 1, 66, 98
5, 347904, Note_on_c, 1, 69, 0
5, 347904, Note_on_c, 1, 66, 0
5, 348160, Note_on_c, 1, 69, 98
5, 348160, Note_on_c, 1, 66, 98
5, 348416, Note_on_c, 1, 69, 0
5, 348416, Note_on_c, 1, 66, 0
5, 348672, Note_on_c, 1, 74, 98
5, 348672, Note_on_c, 1, 62, 98
5, 348928, Note_on_c, 1, 74, 0
5, 348928, Note_on_c, 1, 62, 0
5, 350208, Note_on_c, 1, 83, 98
5, 350208, Note_on_c, 1, 76, 98
5, 350464, Note_on_c, 1, 83, 0
5, 350464, Note_on_c, 1, 76, 0
5, 351744, Note_on_c, 1, 76, 97
5, 351744, Note_on_c, 1, 69, 97
5, 352000, Note_on_c, 1, 76, 0
5, 352000, Note_on_c, 1, 69, 0
5, 352256, Note_on_c, 1, 69, 99
5, 352256, Note_on_c, 1, 76, 99
5, 352512, Note_on_c, 1, 69, 0
5, 352512, Note_on_c, 1, 76, 0
5, 352768, Note_on_c, 1, 74, 98
5, 352768, Note_on_c, 1, 69, 98
5, 353536, Note_on_c, 1, 74, 0
5, 353536, Note_on_c, 1, 69, 0
5, 353792, Note_on_c, 1, 69, 89
5, 353792, Note_on_c, 1, 69, 89
5, 354048, Note_on_c, 1, 69, 0
5, 354048, Note_on_c, 1, 69, 85
5, 354048, Note_on_c, 1, 69, 0
5, 354048, Note_on_c, 1, 69, 85
5, 354304, Note_on_c, 1, 69, 0
5, 354304, Note_on_c, 1, 69, 82
5, 354304, Note_on_c, 1, 69, 0
5, 354304, Note_on_c, 1, 69, 82
5, 354560, Note_on_c, 1, 69, 0
5, 354560, Note_on_c, 1, 69, 79
5, 354560, Note_on_c, 1, 69, 0
5, 354560, Note_on_c, 1, 69, 79
5, 354816, Note_on_c, 1, 69, 0
5, 354816, Note_on_c, 1, 69, 0
5, 354816, Note_on_c, 1, 69, 59
5, 354816, Note_on_c, 1, 66, 59
5, 355072, Note_on_c, 1, 69, 0
5, 355072, Note_on_c, 1, 66, 0
5, 364032, Note_on_c, 1, 69, 102
5, 364032, Note_on_c, 1, 69, 102
5, 364288, Note_on_c, 1, 69, 0
5, 364288, Note_on_c, 1, 69, 0
5, 364544, Note_on_c, 1, 69, 102
5, 364544, Note_on_c, 1, 69, 102
5, 364800, Note_on_c, 1, 69, 0
5, 364800, Note_on_c, 1, 69, 0
5, 365056, Note_on_c, 1, 69, 103
5, 365056, Note_on_c, 1, 69, 103
5, 365312, Note_on_c, 1, 69, 0
5, 365312, Note_on_c, 1, 69, 0
5, 365568, Note_on_c, 1, 74, 104
5, 365568, Note_on_c, 1, 74, 104
5, 365824, Note_on_c, 1, 74, 0
5, 365824, Note_on_c, 1, 74, 0
5, 366080, Note_on_c, 1, 69, 105
5, 366080, Note_on_c, 1, 69, 105
5, 366336, Note_on_c, 1, 69, 0
5, 366336, Note_on_c, 1, 69, 0
5, 366592, Note_on_c, 1, 69, 105
5, 366592, Note_on_c, 1, 69, 105
5, 366848, Note_on_c, 1, 69, 0
5, 366848, Note_on_c, 1, 69, 0
5, 367104, Note_on_c, 1, 66, 106
5, 367104, Note_on_c, 1, 66, 106
5, 367360, Note_on_c, 1, 66, 0
5, 367360, Note_on_c, 1, 66, 0
5, 367616, Note_on_c, 1, 62, 107
5, 367616, Note_on_c, 1, 62, 107
5, 367872, Note_on_c, 1, 62, 0
5, 367872, Note_on_c, 1, 62, 0
5, 368128, Note_on_c, 1, 66, 108
5, 368128, Note_on_c, 1, 66, 108
5, 368384, Note_on_c, 1, 66, 0
5, 368384, Note_on_c, 1, 66, 0
5, 368640, Note_on_c, 1, 69, 108
5, 368640, Note_on_c, 1, 69, 108
5, 368896, Note_on_c, 1, 69, 0
5, 368896, Note_on_c, 1, 69, 0
5, 370176, Note_on_c, 1, 78, 111
5, 370176, Note_on_c, 1, 66, 111
5, 370432, Note_on_c, 1, 78, 0
5, 370432, Note_on_c, 1, 66, 0
5, 371712, Note_on_c, 1, 74, 113
5, 371712, Note_on_c, 1, 66, 113
5, 371968, Note_on_c, 1, 74, 0
5, 371968, Note_on_c, 1, 66, 0
5, 373248, Note_on_c, 1, 83, 115
5, 373504, Note_on_c, 1, 83, 0
5, 374784, Note_on_c, 1, 81, 117
5, 374784, Note_on_c, 1, 76, 117
5, 375040, Note_on_c, 1, 81, 0
5, 375040, Note_on_c, 1, 76, 0
5, 375808, Note_on_c, 1, 74, 119
5, 375808, Note_on_c, 1, 69, 119
5, 376064, Note_on_c, 1, 74, 0
5, 376064, Note_on_c, 1, 69, 0
5, 376320, Note_on_c, 1, 74, 120
5, 376320, Note_on_c, 1, 66, 120
5, 376576, Note_on_c, 1, 74, 0
5, 376576, Note_on_c, 1, 66, 0
5, 376576, Note_on_c, 1, 62, 121
5, 376832, Note_on_c, 1, 69, 121
5, 376832, Note_on_c, 1, 62, 0
5, 376832, Note_on_c, 1, 69, 121
5, 377088, Note_on_c, 1, 69, 0
5, 377088, Note_on_c, 1, 69, 0
5, 377344, Note_on_c, 1, 69, 122
5, 377344, Note_on_c, 1, 69, 122
5, 377600, Note_on_c, 1, 69, 0
5, 377600, Note_on_c, 1, 69, 0
5, 377856, Note_on_c, 1, 69, 123
5, 377856, Note_on_c, 1, 66, 123
5, 379392, Control_c, 1, 121, 127
5, 379392, Note_on_c, 1, 69, 0
5, 379392, Note_on_c, 1, 66, 0
5, 379392, End_track
6, 0, Start_track
6, 0, Title_t, "Bassoon"
6, 0, Program_c, 4, 70
6, 0, Control_c, 4, 121, 127
6, 0, Control_c, 4, 91, 127
6, 0, Control_c, 4, 1, 10
6, 0, Control_c, 4, 10, 90
6, 0, Control_c, 4, 11, 90
6, 1024, Note_on_c, 4, 62, 108
6, 1894, Note_on_c, 4, 62, 0
6, 2048, Note_on_c, 4, 50, 106
6, 2918, Note_on_c, 4, 50, 0
6, 5120, Note_on_c, 4, 62, 109
6, 5990, Note_on_c, 4, 62, 0
6, 6144, Note_on_c, 4, 50, 107
6, 7014, Note_on_c, 4, 50, 0
6, 9216, Note_on_c, 4, 62, 107
6, 10086, Note_on_c, 4, 62, 0
6, 10240, Note_on_c, 4, 50, 105
6, 11110, Note_on_c, 4, 50, 0
6, 17408, Note_on_c, 4, 62, 99
6, 18278, Note_on_c, 4, 62, 0
6, 18432, Note_on_c, 4, 50, 97
6, 19302, Note_on_c, 4, 50, 0
6, 19456, Note_on_c, 4, 61, 97
6, 20326, Note_on_c, 4, 61, 0
6, 20480, Note_on_c, 4, 49, 97
6, 21350, Note_on_c, 4, 49, 0
6, 21504, Note_on_c, 4, 59, 97
6, 22374, Note_on_c, 4, 59, 0
6, 22528, Note_on_c, 4, 52, 97
6, 23398, Note_on_c, 4, 52, 0
6, 23552, Note_on_c, 4, 57, 98
6, 24422, Note_on_c, 4, 57, 0
6, 24576, Note_on_c, 4, 45, 103
6, 25446, Note_on_c, 4, 45, 0
6, 25600, Note_on_c, 4, 57, 108
6, 26470, Note_on_c, 4, 57, 0
6, 26624, Note_on_c, 4, 45, 105
6, 27494, Note_on_c, 4, 45, 0
6, 29696, Note_on_c, 4, 57, 106
6, 30566, Note_on_c, 4, 57, 0
6, 30720, Note_on_c, 4, 45, 104
6, 31590, Note_on_c, 4, 45, 0
6, 33792, Note_on_c, 4, 57, 106
6, 34662, Note_on_c, 4, 57, 0
6, 34816, Note_on_c, 4, 45, 100
6, 35686, Note_on_c, 4, 45, 0
6, 41984, Note_on_c, 4, 57, 97
6, 42854, Note_on_c, 4, 57, 0
6, 43008, Note_on_c, 4, 45, 96
6, 43878, Note_on_c, 4, 45, 0
6, 44032, Note_on_c, 4, 59, 96
6, 44902, Note_on_c, 4, 59, 0
6, 45056, Note_on_c, 4, 47, 96
6, 45926, Note_on_c, 4, 47, 0
6, 46080, Note_on_c, 4, 61, 96
6, 46950, Note_on_c, 4, 61, 0
6, 47104, Note_on_c, 4, 57, 96
6, 47974, Note_on_c, 4, 57, 0
6, 48128, Note_on_c, 4, 62, 96
6, 48709, Note_on_c, 4, 62, 0
6, 48811, Note_on_c, 4, 50, 99
6, 49152, Note_on_c, 4, 50, 0
6, 49152, Note_on_c, 4, 54, 101
6, 49733, Note_on_c, 4, 54, 0
6, 49835, Note_on_c, 4, 57, 105
6, 50176, Note_on_c, 4, 57, 0
6, 50176, Note_on_c, 4, 62, 106
6, 51046, Note_on_c, 4, 62, 0
6, 51200, Note_on_c, 4, 50, 104
6, 52070, Note_on_c, 4, 50, 0
6, 54272, Note_on_c, 4, 62, 104
6, 55142, Note_on_c, 4, 62, 0
6, 55296, Note_on_c, 4, 50, 103
6, 56166, Note_on_c, 4, 50, 0
6, 58368, Note_on_c, 4, 62, 104
6, 59238, Note_on_c, 4, 62, 0
6, 59392, Note_on_c, 4, 50, 102
6, 60262, Note_on_c, 4, 50, 0
6, 66560, Note_on_c, 4, 62, 88
6, 67430, Note_on_c, 4, 62, 0
6, 67584, Note_on_c, 4, 50, 88
6, 68454, Note_on_c, 4, 50, 0
6, 68608, Note_on_c, 4, 61, 88
6, 69478, Note_on_c, 4, 61, 0
6, 69632, Note_on_c, 4, 49, 88
6, 70502, Note_on_c, 4, 49, 0
6, 70656, Note_on_c, 4, 59, 88
6, 71526, Note_on_c, 4, 59, 0
6, 71680, Note_on_c, 4, 47, 88
6, 72550, Note_on_c, 4, 47, 0
6, 72704, Note_on_c, 4, 58, 88
6, 73574, Note_on_c, 4, 58, 0
6, 73728, Note_on_c, 4, 46, 93
6, 74598, Note_on_c, 4, 46, 0
6, 74752, Note_on_c, 4, 59, 100
6, 75622, Note_on_c, 4, 59, 0
6, 75776, Note_on_c, 4, 47, 97
6, 76646, Note_on_c, 4, 47, 0
6, 76800, Note_on_c, 4, 57, 99
6, 77670, Note_on_c, 4, 57, 0
6, 77824, Note_on_c, 4, 45, 99
6, 78694, Note_on_c, 4, 45, 0
6, 78848, Note_on_c, 4, 55, 99
6, 79718, Note_on_c, 4, 55, 0
6, 79872, Note_on_c, 4, 43, 99
6, 80742, Note_on_c, 4, 43, 0
6, 80896, Note_on_c, 4, 54, 99
6, 81766, Note_on_c, 4, 54, 0
6, 81920, Note_on_c, 4, 42, 90
6, 82790, Note_on_c, 4, 42, 0
6, 82944, Note_on_c, 4, 55, 80
6, 83814, Note_on_c, 4, 55, 0
6, 83968, Note_on_c, 4, 43, 80
6, 84838, Note_on_c, 4, 43, 0
6, 84992, Note_on_c, 4, 54, 80
6, 85862, Note_on_c, 4, 54, 0
6, 86016, Note_on_c, 4, 42, 80
6, 86886, Note_on_c, 4, 42, 0
6, 87040, Note_on_c, 4, 52, 80
6, 87910, Note_on_c, 4, 52, 0
6, 88064, Note_on_c, 4, 40, 80
6, 88934, Note_on_c, 4, 40, 0
6, 89088, Note_on_c, 4, 51, 80
6, 89958, Note_on_c, 4, 51, 0
6, 90112, Note_on_c, 4, 39, 69
6, 90982, Note_on_c, 4, 39, 0
6, 91136, Note_on_c, 4, 52, 55
6, 92006, Note_on_c, 4, 52, 0
6, 92160, Note_on_c, 4, 40, 49
6, 93030, Note_on_c, 4, 40, 0
6, 93184, Note_on_c, 4, 50, 49
6, 94054, Note_on_c, 4, 50, 0
6, 94208, Note_on_c, 4, 38, 49
6, 95078, Note_on_c, 4, 38, 0
6, 95232, Note_on_c, 4, 49, 49
6, 96102, Note_on_c, 4, 49, 0
6, 96256, Note_on_c, 4, 54, 49
6, 97126, Note_on_c, 4, 54, 0
6, 97280, Note_on_c, 4, 59, 48
6, 98150, Note_on_c, 4, 59, 0
6, 98304, Note_on_c, 4, 47, 44
6, 99174, Note_on_c, 4, 47, 0
6, 99328, Note_on_c, 4, 52, 40
6, 100198, Note_on_c, 4, 52, 0
6, 100352, Note_on_c, 4, 40, 40
6, 101222, Note_on_c, 4, 40, 0
6, 103424, Note_on_c, 4, 57, 40
6, 104294, Note_on_c, 4, 57, 0
6, 104448, Note_on_c, 4, 45, 40
6, 105318, Note_on_c, 4, 45, 0
6, 107520, Note_on_c, 4, 50, 40
6, 108390, Note_on_c, 4, 50, 0
6, 108544, Note_on_c, 4, 38, 40
6, 109414, Note_on_c, 4, 38, 0
6, 111616, Note_on_c, 4, 55, 40
6, 112486, Note_on_c, 4, 55, 0
6, 112640, Note_on_c, 4, 43, 41
6, 113510, Note_on_c, 4, 43, 0
6, 113664, Note_on_c, 4, 54, 43
6, 114534, Note_on_c, 4, 54, 0
6, 114688, Note_on_c, 4, 42, 45
6, 115558, Note_on_c, 4, 42, 0
6, 115712, Note_on_c, 4, 52, 46
6, 116582, Note_on_c, 4, 52, 0
6, 116736, Note_on_c, 4, 45, 48
6, 117606, Note_on_c, 4, 45, 0
6, 117760, Note_on_c, 4, 50, 50
6, 118630, Note_on_c, 4, 50, 0
6, 118784, Note_on_c, 4, 38, 51
6, 119654, Note_on_c, 4, 38, 0
6, 119808, Note_on_c, 4, 52, 52
6, 120678, Note_on_c, 4, 52, 0
6, 120832, Note_on_c, 4, 40, 52
6, 121702, Note_on_c, 4, 40, 0
6, 121856, Note_on_c, 4, 54, 52
6, 122726, Note_on_c, 4, 54, 0
6, 122880, Note_on_c, 4, 42, 52
6, 123750, Note_on_c, 4, 42, 0
6, 123904, Note_on_c, 4, 55, 52
6, 124774, Note_on_c, 4, 55, 0
6, 124928, Note_on_c, 4, 43, 52
6, 125798, Note_on_c, 4, 43, 0
6, 125952, Note_on_c, 4, 57, 52
6, 126822, Note_on_c, 4, 57, 0
6, 126976, Note_on_c, 4, 45, 52
6, 127846, Note_on_c, 4, 45, 0
6, 128000, Note_on_c, 4, 59, 52
6, 128870, Note_on_c, 4, 59, 0
6, 129024, Note_on_c, 4, 47, 52
6, 129894, Note_on_c, 4, 47, 0
6, 130048, Note_on_c, 4, 61, 52
6, 130918, Note_on_c, 4, 61, 0
6, 131072, Note_on_c, 4, 49, 61
6, 131942, Note_on_c, 4, 49, 0
6, 132096, Note_on_c, 4, 50, 72
6, 132966, Note_on_c, 4, 50, 0
6, 133120, Note_on_c, 4, 38, 75
6, 133990, Note_on_c, 4, 38, 0
6, 134144, Note_on_c, 4, 52, 78
6, 135014, Note_on_c, 4, 52, 0
6, 135168, Note_on_c, 4, 40, 81
6, 136038, Note_on_c, 4, 40, 0
6, 136192, Note_on_c, 4, 54, 83
6, 137062, Note_on_c, 4, 54, 0
6, 137216, Note_on_c, 4, 42, 86
6, 138086, Note_on_c, 4, 42, 0
6, 138240, Note_on_c, 4, 56, 89
6, 139110, Note_on_c, 4, 56, 0
6, 139264, Note_on_c, 4, 44, 92
6, 140134, Note_on_c, 4, 44, 0
6, 140288, Note_on_c, 4, 57, 94
6, 141158, Note_on_c, 4, 57, 0
6, 141312, Note_on_c, 4, 45, 95
6, 142182, Note_on_c, 4, 45, 0
6, 142336, Note_on_c, 4, 56, 94
6, 143206, Note_on_c, 4, 56, 0
6, 143360, Note_on_c, 4, 44, 94
6, 144230, Note_on_c, 4, 44, 0
6, 144384, Note_on_c, 4, 54, 94
6, 145254, Note_on_c, 4, 54, 0
6, 145408, Note_on_c, 4, 42, 94
6, 146278, Note_on_c, 4, 42, 0
6, 146432, Note_on_c, 4, 53, 94
6, 147302, Note_on_c, 4, 53, 0
6, 147456, Note_on_c, 4, 41, 94
6, 148326, Note_on_c, 4, 41, 0
6, 148480, Note_on_c, 4, 54, 94
6, 149350, Note_on_c, 4, 54, 0
6, 149504, Note_on_c, 4, 42, 93
6, 150374, Note_on_c, 4, 42, 0
6, 150528, Note_on_c, 4, 52, 94
6, 151398, Note_on_c, 4, 52, 0
6, 151552, Note_on_c, 4, 40, 94
6, 152422, Note_on_c, 4, 40, 0
6, 152576, Note_on_c, 4, 50, 94
6, 153446, Note_on_c, 4, 50, 0
6, 153600, Note_on_c, 4, 38, 94
6, 154470, Note_on_c, 4, 38, 0
6, 154624, Note_on_c, 4, 49, 94
6, 155494, Note_on_c, 4, 49, 0
6, 155648, Note_on_c, 4, 37, 94
6, 156518, Note_on_c, 4, 37, 0
6, 156672, Note_on_c, 4, 62, 94
6, 157542, Note_on_c, 4, 62, 0
6, 157696, Note_on_c, 4, 50, 94
6, 158566, Note_on_c, 4, 50, 0
6, 158720, Note_on_c, 4, 61, 94
6, 159590, Note_on_c, 4, 61, 0
6, 159744, Note_on_c, 4, 49, 94
6, 160614, Note_on_c, 4, 49, 0
6, 160768, Note_on_c, 4, 59, 94
6, 161638, Note_on_c, 4, 59, 0
6, 161792, Note_on_c, 4, 47, 90
6, 162662, Note_on_c, 4, 47, 0
6, 162816, Note_on_c, 4, 58, 84
6, 163686, Note_on_c, 4, 58, 0
6, 163840, Note_on_c, 4, 46, 73
6, 164710, Note_on_c, 4, 46, 0
6, 164864, Note_on_c, 4, 59, 58
6, 165734, Note_on_c, 4, 59, 0
6, 165888, Note_on_c, 4, 47, 58
6, 166758, Note_on_c, 4, 47, 0
6, 168960, Note_on_c, 4, 52, 58
6, 169830, Note_on_c, 4, 52, 0
6, 169984, Note_on_c, 4, 40, 58
6, 170854, Note_on_c, 4, 40, 0
6, 173056, Note_on_c, 4, 57, 58
6, 173926, Note_on_c, 4, 57, 0
6, 174080, Note_on_c, 4, 45, 58
6, 174950, Note_on_c, 4, 45, 0
6, 177152, Note_on_c, 4, 50, 64
6, 177493, Note_on_c, 4, 50, 0
6, 177493, Note_on_c, 4, 49, 59
6, 177835, Note_on_c, 4, 49, 0
6, 177835, Note_on_c, 4, 50, 61
6, 178176, Note_on_c, 4, 50, 0
6, 178176, Note_on_c, 4, 44, 62
6, 178517, Note_on_c, 4, 44, 0
6, 178517, Note_on_c, 4, 45, 63
6, 178859, Note_on_c, 4, 45, 0
6, 178859, Note_on_c, 4, 47, 64
6, 179200, Note_on_c, 4, 47, 0
6, 179200, Note_on_c, 4, 37, 66
6, 179541, Note_on_c, 4, 37, 0
6, 179541, Note_on_c, 4, 39, 67
6, 179883, Note_on_c, 4, 39, 0
6, 179883, Note_on_c, 4, 41, 68
6, 180224, Note_on_c, 4, 41, 0
6, 180224, Note_on_c, 4, 42, 69
6, 180565, Note_on_c, 4, 42, 0
6, 180565, Note_on_c, 4, 44, 70
6, 180907, Note_on_c, 4, 44, 0
6, 180907, Note_on_c, 4, 45, 72
6, 181248, Note_on_c, 4, 45, 0
6, 181248, Note_on_c, 4, 47, 73
6, 181589, Note_on_c, 4, 47, 0
6, 181589, Note_on_c, 4, 45, 74
6, 181931, Note_on_c, 4, 45, 0
6, 181931, Note_on_c, 4, 47, 75
6, 182272, Note_on_c, 4, 47, 0
6, 182272, Note_on_c, 4, 40, 76
6, 182613, Note_on_c, 4, 40, 0
6, 182613, Note_on_c, 4, 42, 78
6, 182955, Note_on_c, 4, 42, 0
6, 182955, Note_on_c, 4, 44, 79
6, 183296, Note_on_c, 4, 44, 0
6, 183296, Note_on_c, 4, 33, 80
6, 183637, Note_on_c, 4, 33, 0
6, 183637, Note_on_c, 4, 35, 81
6, 183979, Note_on_c, 4, 35, 0
6, 183979, Note_on_c, 4, 37, 83
6, 184320, Note_on_c, 4, 37, 0
6, 184320, Note_on_c, 4, 38, 84
6, 184661, Note_on_c, 4, 38, 0
6, 184661, Note_on_c, 4, 40, 85
6, 185003, Note_on_c, 4, 40, 0
6, 185003, Note_on_c, 4, 42, 86
6, 185344, Note_on_c, 4, 42, 0
6, 185344, Note_on_c, 4, 44, 87
6, 185685, Note_on_c, 4, 44, 0
6, 185685, Note_on_c, 4, 42, 88
6, 186027, Note_on_c, 4, 42, 0
6, 186027, Note_on_c, 4, 44, 89
6, 186368, Note_on_c, 4, 44, 0
6, 186368, Note_on_c, 4, 37, 90
6, 186709, Note_on_c, 4, 37, 0
6, 186709, Note_on_c, 4, 39, 90
6, 187051, Note_on_c, 4, 39, 0
6, 187051, Note_on_c, 4, 41, 91
6, 187392, Note_on_c, 4, 41, 0
6, 187392, Note_on_c, 4, 42, 92
6, 187733, Note_on_c, 4, 42, 0
6, 187733, Note_on_c, 4, 44, 92
6, 188075, Note_on_c, 4, 44, 0
6, 188075, Note_on_c, 4, 45, 93
6, 188416, Note_on_c, 4, 45, 0
6, 188416, Note_on_c, 4, 47, 94
6, 188757, Note_on_c, 4, 47, 0
6, 188757, Note_on_c, 4, 49, 95
6, 189099, Note_on_c, 4, 49, 0
6, 189099, Note_on_c, 4, 50, 95
6, 189440, Note_on_c, 4, 50, 0
6, 189440, Note_on_c, 4, 41, 96
6, 190464, Note_on_c, 4, 41, 0
6, 190464, Note_on_c, 4, 42, 98
6, 191334, Note_on_c, 4, 42, 0
6, 191488, Note_on_c, 4, 49, 100
6, 192512, Note_on_c, 4, 49, 0
6, 192512, Note_on_c, 4, 37, 100
6, 193536, Note_on_c, 4, 37, 0
6, 193536, Note_on_c, 4, 42, 100
6, 194560, Note_on_c, 4, 42, 0
6, 195584, Note_on_c, 4, 50, 44
6, 195840, Note_on_c, 4, 50, 0
6, 195840, Note_on_c, 4, 52, 44
6, 196096, Note_on_c, 4, 52, 0
6, 196096, Note_on_c, 4, 54, 44
6, 196352, Note_on_c, 4, 54, 0
6, 196352, Note_on_c, 4, 50, 44
6, 196608, Note_on_c, 4, 50, 0
6, 196608, Note_on_c, 4, 55, 48
6, 196864, Note_on_c, 4, 55, 0
6, 197120, Note_on_c, 4, 43, 44
6, 197376, Note_on_c, 4, 43, 0
6, 198656, Note_on_c, 4, 52, 44
6, 198912, Note_on_c, 4, 52, 0
6, 198912, Note_on_c, 4, 54, 44
6, 199168, Note_on_c, 4, 54, 0
6, 199168, Note_on_c, 4, 55, 44
6, 199424, Note_on_c, 4, 55, 0
6, 199424, Note_on_c, 4, 52, 44
6, 199680, Note_on_c, 4, 52, 0
6, 199680, Note_on_c, 4, 57, 44
6, 199936, Note_on_c, 4, 57, 0
6, 200192, Note_on_c, 4, 54, 44
6, 200448, Note_on_c, 4, 54, 0
6, 200704, Note_on_c, 4, 59, 44
6, 200960, Note_on_c, 4, 59, 0
6, 201216, Note_on_c, 4, 55, 44
6, 201472, Note_on_c, 4, 55, 0
6, 201728, Note_on_c, 4, 57, 44
6, 201984, Note_on_c, 4, 57, 0
6, 202240, Note_on_c, 4, 45, 44
6, 202496, Note_on_c, 4, 45, 0
6, 202752, Note_on_c, 4, 50, 44
6, 203776, Note_on_c, 4, 50, 0
6, 204800, Note_on_c, 4, 55, 44
6, 205056, Note_on_c, 4, 55, 0
6, 205056, Note_on_c, 4, 57, 44
6, 205312, Note_on_c, 4, 57, 0
6, 205312, Note_on_c, 4, 59, 44
6, 205568, Note_on_c, 4, 59, 0
6, 205568, Note_on_c, 4, 55, 44
6, 205824, Note_on_c, 4, 55, 0
6, 205824, Note_on_c, 4, 57, 44
6, 206080, Note_on_c, 4, 57, 0
6, 206336, Note_on_c, 4, 61, 44
6, 206592, Note_on_c, 4, 61, 0
6, 206848, Note_on_c, 4, 57, 44
6, 207104, Note_on_c, 4, 57, 0
6, 207360, Note_on_c, 4, 54, 44
6, 207616, Note_on_c, 4, 54, 0
6, 207872, Note_on_c, 4, 55, 44
6, 208128, Note_on_c, 4, 55, 0
6, 208384, Note_on_c, 4, 57, 44
6, 208640, Note_on_c, 4, 57, 0
6, 208896, Note_on_c, 4, 50, 44
6, 209152, Note_on_c, 4, 50, 0
6, 209408, Note_on_c, 4, 62, 44
6, 209664, Note_on_c, 4, 62, 0
6, 209920, Note_on_c, 4, 61, 44
6, 210176, Note_on_c, 4, 61, 0
6, 210432, Note_on_c, 4, 59, 44
6, 210688, Note_on_c, 4, 59, 0
6, 210944, Note_on_c, 4, 64, 44
6, 211200, Note_on_c, 4, 64, 0
6, 211456, Note_on_c, 4, 52, 44
6, 211712, Note_on_c, 4, 52, 0
6, 211968, Note_on_c, 4, 57, 44
6, 212224, Note_on_c, 4, 57, 0
6, 212480, Note_on_c, 4, 45, 44
6, 212736, Note_on_c, 4, 45, 0
6, 212736, Note_on_c, 4, 47, 45
6, 212992, Note_on_c, 4, 47, 0
6, 212992, Note_on_c, 4, 49, 45
6, 213248, Note_on_c, 4, 49, 0
6, 213248, Note_on_c, 4, 45, 46
6, 213504, Note_on_c, 4, 45, 0
6, 213504, Note_on_c, 4, 50, 46
6, 213760, Note_on_c, 4, 50, 0
6, 214016, Note_on_c, 4, 62, 47
6, 214272, Note_on_c, 4, 62, 0
6, 215552, Note_on_c, 4, 52, 49
6, 215808, Note_on_c, 4, 52, 0
6, 215808, Note_on_c, 4, 51, 50
6, 216064, Note_on_c, 4, 51, 0
6, 216064, Note_on_c, 4, 52, 50
6, 216320, Note_on_c, 4, 52, 0
6, 216320, Note_on_c, 4, 54, 51
6, 216576, Note_on_c, 4, 54, 0
6, 216576, Note_on_c, 4, 55, 51
6, 216832, Note_on_c, 4, 55, 0
6, 217088, Note_on_c, 4, 57, 52
6, 217344, Note_on_c, 4, 57, 0
6, 217600, Note_on_c, 4, 59, 53
6, 217856, Note_on_c, 4, 59, 0
6, 218112, Note_on_c, 4, 57, 54
6, 218368, Note_on_c, 4, 57, 0
6, 218624, Note_on_c, 4, 61, 55
6, 218880, Note_on_c, 4, 61, 0
6, 219136, Note_on_c, 4, 62, 56
6, 219392, Note_on_c, 4, 62, 0
6, 219648, Note_on_c, 4, 55, 56
6, 219904, Note_on_c, 4, 55, 0
6, 220160, Note_on_c, 4, 57, 57
6, 220416, Note_on_c, 4, 57, 0
6, 220672, Note_on_c, 4, 45, 58
6, 220928, Note_on_c, 4, 45, 0
6, 221184, Note_on_c, 4, 50, 60
6, 221440, Note_on_c, 4, 50, 0
6, 221696, Note_on_c, 4, 38, 62
6, 221952, Note_on_c, 4, 38, 0
6, 222208, Note_on_c, 4, 50, 63
6, 222976, Note_on_c, 4, 50, 0
6, 223232, Note_on_c, 4, 54, 65
6, 223488, Note_on_c, 4, 54, 0
6, 223744, Note_on_c, 4, 59, 66
6, 224512, Note_on_c, 4, 59, 0
6, 224768, Note_on_c, 4, 52, 68
6, 225024, Note_on_c, 4, 52, 0
6, 225280, Note_on_c, 4, 57, 69
6, 226048, Note_on_c, 4, 57, 0
6, 226304, Note_on_c, 4, 45, 72
6, 226560, Note_on_c, 4, 45, 0
6, 226816, Note_on_c, 4, 57, 73
6, 227072, Note_on_c, 4, 57, 0
6, 227328, Note_on_c, 4, 50, 74
6, 227584, Note_on_c, 4, 50, 0
6, 227840, Note_on_c, 4, 52, 76
6, 228096, Note_on_c, 4, 52, 0
6, 228352, Note_on_c, 4, 54, 78
6, 228608, Note_on_c, 4, 54, 0
6, 228864, Note_on_c, 4, 52, 80
6, 229120, Note_on_c, 4, 52, 0
6, 229376, Note_on_c, 4, 50, 82
6, 229632, Note_on_c, 4, 50, 0
6, 229888, Note_on_c, 4, 52, 84
6, 230144, Note_on_c, 4, 52, 0
6, 230400, Note_on_c, 4, 45, 89
6, 230656, Note_on_c, 4, 45, 0
6, 230912, Note_on_c, 4, 45, 89
6, 231168, Note_on_c, 4, 45, 0
6, 231424, Note_on_c, 4, 45, 89
6, 231680, Note_on_c, 4, 45, 0
6, 231936, Note_on_c, 4, 54, 89
6, 232192, Note_on_c, 4, 54, 0
6, 232448, Note_on_c, 4, 54, 89
6, 232704, Note_on_c, 4, 54, 0
6, 232960, Note_on_c, 4, 54, 89
6, 233216, Note_on_c, 4, 54, 0
6, 233472, Note_on_c, 4, 47, 89
6, 233984, Note_on_c, 4, 47, 0
6, 233984, Note_on_c, 4, 47, 89
6, 234240, Note_on_c, 4, 47, 0
6, 234496, Note_on_c, 4, 49, 89
6, 234752, Note_on_c, 4, 49, 0
6, 234752, Note_on_c, 4, 50, 89
6, 235008, Note_on_c, 4, 50, 0
6, 235008, Note_on_c, 4, 52, 89
6, 235264, Note_on_c, 4, 52, 0
6, 235264, Note_on_c, 4, 54, 89
6, 235520, Note_on_c, 4, 54, 0
6, 235520, Note_on_c, 4, 55, 89
6, 235776, Note_on_c, 4, 55, 0
6, 235776, Note_on_c, 4, 54, 89
6, 236032, Note_on_c, 4, 54, 0
6, 236032, Note_on_c, 4, 52, 89
6, 236288, Note_on_c, 4, 52, 0
6, 236288, Note_on_c, 4, 50, 89
6, 236544, Note_on_c, 4, 50, 0
6, 236544, Note_on_c, 4, 49, 89
6, 236800, Note_on_c, 4, 49, 0
6, 237056, Note_on_c, 4, 47, 89
6, 237312, Note_on_c, 4, 47, 0
6, 237312, Note_on_c, 4, 45, 89
6, 237568, Note_on_c, 4, 45, 0
6, 237568, Note_on_c, 4, 50, 89
6, 238336, Note_on_c, 4, 50, 0
6, 238336, Note_on_c, 4, 52, 89
6, 238592, Note_on_c, 4, 52, 0
6, 238592, Note_on_c, 4, 49, 89
6, 239360, Note_on_c, 4, 49, 0
6, 239360, Note_on_c, 4, 50, 89
6, 239616, Note_on_c, 4, 50, 0
6, 239616, Note_on_c, 4, 50, 89
6, 239872, Note_on_c, 4, 50, 0
6, 240128, Note_on_c, 4, 54, 86
6, 240384, Note_on_c, 4, 54, 0
6, 240640, Note_on_c, 4, 50, 52
6, 240896, Note_on_c, 4, 50, 0
6, 241152, Note_on_c, 4, 57, 57
6, 241664, Note_on_c, 4, 57, 0
6, 242688, Note_on_c, 4, 57, 57
6, 243200, Note_on_c, 4, 57, 0
6, 244224, Note_on_c, 4, 45, 52
6, 244736, Note_on_c, 4, 45, 0
6, 245760, Note_on_c, 4, 45, 82
6, 246272, Note_on_c, 4, 45, 0
6, 247808, Note_on_c, 4, 52, 82
6, 248064, Note_on_c, 4, 52, 0
6, 248320, Note_on_c, 4, 52, 52
6, 248576, Note_on_c, 4, 52, 0
6, 248832, Note_on_c, 4, 59, 52
6, 249344, Note_on_c, 4, 59, 0
6, 250368, Note_on_c, 4, 59, 52
6, 250880, Note_on_c, 4, 59, 0
6, 251904, Note_on_c, 4, 47, 52
6, 252416, Note_on_c, 4, 47, 0
6, 253440, Note_on_c, 4, 47, 82
6, 253952, Note_on_c, 4, 47, 0
6, 254976, Note_on_c, 4, 52, 82
6, 255232, Note_on_c, 4, 52, 0
6, 255488, Note_on_c, 4, 40, 82
6, 255744, Note_on_c, 4, 40, 0
6, 255744, Note_on_c, 4, 42, 82
6, 256000, Note_on_c, 4, 42, 0
6, 256000, Note_on_c, 4, 43, 82
6, 256256, Note_on_c, 4, 43, 0
6, 256256, Note_on_c, 4, 40, 82
6, 256512, Note_on_c, 4, 40, 0
6, 256512, Note_on_c, 4, 45, 82
6, 256768, Note_on_c, 4, 45, 0
6, 257024, Note_on_c, 4, 45, 82
6, 257280, Note_on_c, 4, 45, 0
6, 257536, Note_on_c, 4, 45, 82
6, 257792, Note_on_c, 4, 45, 0
6, 258048, Note_on_c, 4, 42, 82
6, 258560, Note_on_c, 4, 42, 0
6, 258560, Note_on_c, 4, 42, 82
6, 258816, Note_on_c, 4, 42, 0
6, 259072, Note_on_c, 4, 42, 82
6, 259328, Note_on_c, 4, 42, 0
6, 259584, Note_on_c, 4, 47, 82
6, 259840, Note_on_c, 4, 47, 0
6, 260096, Note_on_c, 4, 43, 82
6, 260352, Note_on_c, 4, 43, 0
6, 260608, Note_on_c, 4, 48, 82
6, 260864, Note_on_c, 4, 48, 0
6, 261120, Note_on_c, 4, 47, 84
6, 261376, Note_on_c, 4, 47, 0
6, 261376, Note_on_c, 4, 45, 85
6, 261632, Note_on_c, 4, 45, 0
6, 261632, Note_on_c, 4, 47, 87
6, 262144, Note_on_c, 4, 47, 0
6, 262144, Note_on_c, 4, 35, 89
6, 262400, Note_on_c, 4, 35, 0
6, 262656, Note_on_c, 4, 40, 95
6, 262912, Note_on_c, 4, 40, 0
6, 264192, Note_on_c, 4, 45, 48
6, 264448, Note_on_c, 4, 45, 0
6, 265728, Note_on_c, 4, 38, 48
6, 265984, Note_on_c, 4, 38, 0
6, 267264, Note_on_c, 4, 43, 48
6, 267520, Note_on_c, 4, 43, 0
6, 268800, Note_on_c, 4, 37, 48
6, 269056, Note_on_c, 4, 37, 0
6, 270336, Note_on_c, 4, 42, 64
6, 270592, Note_on_c, 4, 42, 0
6, 271872, Note_on_c, 4, 47, 64
6, 272128, Note_on_c, 4, 47, 0
6, 272128, Note_on_c, 4, 46, 64
6, 272384, Note_on_c, 4, 46, 0
6, 272384, Note_on_c, 4, 47, 64
6, 272640, Note_on_c, 4, 47, 0
6, 272640, Note_on_c, 4, 49, 64
6, 272896, Note_on_c, 4, 49, 0
6, 272896, Note_on_c, 4, 50, 64
6, 273152, Note_on_c, 4, 50, 0
6, 273152, Note_on_c, 4, 47, 64
6, 273408, Note_on_c, 4, 47, 0
6, 273408, Note_on_c, 4, 52, 64
6, 273664, Note_on_c, 4, 52, 0
6, 273664, Note_on_c, 4, 50, 64
6, 273920, Note_on_c, 4, 50, 0
6, 273920, Note_on_c, 4, 52, 64
6, 274176, Note_on_c, 4, 52, 0
6, 274176, Note_on_c, 4, 54, 64
6, 274432, Note_on_c, 4, 54, 0
6, 274432, Note_on_c, 4, 52, 64
6, 274688, Note_on_c, 4, 52, 0
6, 274688, Note_on_c, 4, 50, 64
6, 274944, Note_on_c, 4, 50, 0
6, 274944, Note_on_c, 4, 49, 64
6, 275200, Note_on_c, 4, 49, 0
6, 275200, Note_on_c, 4, 47, 64
6, 275456, Note_on_c, 4, 47, 0
6, 275456, Note_on_c, 4, 49, 64
6, 275712, Note_on_c, 4, 49, 0
6, 275712, Note_on_c, 4, 50, 64
6, 275968, Note_on_c, 4, 50, 0
6, 275968, Note_on_c, 4, 52, 64
6, 276224, Note_on_c, 4, 52, 0
6, 276224, Note_on_c, 4, 49, 64
6, 276480, Note_on_c, 4, 49, 0
6, 276480, Note_on_c, 4, 54, 64
6, 276736, Note_on_c, 4, 54, 0
6, 276992, Note_on_c, 4, 52, 64
6, 277248, Note_on_c, 4, 52, 0
6, 277504, Note_on_c, 4, 50, 64
6, 277760, Note_on_c, 4, 50, 0
6, 278016, Note_on_c, 4, 52, 64
6, 278528, Note_on_c, 4, 52, 0
6, 278528, Note_on_c, 4, 54, 64
6, 279040, Note_on_c, 4, 54, 0
6, 279040, Note_on_c, 4, 42, 64
6, 279296, Note_on_c, 4, 42, 0
6, 279552, Note_on_c, 4, 47, 64
6, 279808, Note_on_c, 4, 47, 0
6, 281088, Note_on_c, 4, 54, 38
6, 281344, Note_on_c, 4, 54, 0
6, 282624, Note_on_c, 4, 54, 38
6, 282880, Note_on_c, 4, 54, 0
6, 284160, Note_on_c, 4, 42, 38
6, 284416, Note_on_c, 4, 42, 0
6, 285696, Note_on_c, 4, 42, 39
6, 285952, Note_on_c, 4, 42, 0
6, 287232, Note_on_c, 4, 47, 49
6, 287488, Note_on_c, 4, 47, 0
6, 287744, Note_on_c, 4, 59, 52
6, 288000, Note_on_c, 4, 59, 0
6, 288256, Note_on_c, 4, 47, 55
6, 288512, Note_on_c, 4, 47, 0
6, 288768, Note_on_c, 4, 49, 58
6, 289024, Note_on_c, 4, 49, 0
6, 289280, Note_on_c, 4, 57, 62
6, 289536, Note_on_c, 4, 57, 0
6, 290304, Note_on_c, 4, 50, 68
6, 290560, Note_on_c, 4, 50, 0
6, 290816, Note_on_c, 4, 57, 72
6, 291072, Note_on_c, 4, 57, 0
6, 291840, Note_on_c, 4, 45, 78
6, 292096, Note_on_c, 4, 45, 0
6, 292352, Note_on_c, 4, 57, 81
6, 292608, Note_on_c, 4, 57, 0
6, 293376, Note_on_c, 4, 45, 88
6, 293632, Note_on_c, 4, 45, 0
6, 294912, Note_on_c, 4, 50, 88
6, 295168, Note_on_c, 4, 50, 0
6, 296448, Note_on_c, 4, 43, 88
6, 296704, Note_on_c, 4, 43, 0
6, 297984, Note_on_c, 4, 40, 88
6, 298240, Note_on_c, 4, 40, 0
6, 298240, Note_on_c, 4, 38, 88
6, 298496, Note_on_c, 4, 38, 0
6, 298496, Note_on_c, 4, 40, 89
6, 298752, Note_on_c, 4, 40, 0
6, 298752, Note_on_c, 4, 42, 89
6, 299008, Note_on_c, 4, 42, 0
6, 299008, Note_on_c, 4, 43, 90
6, 299264, Note_on_c, 4, 43, 0
6, 299264, Note_on_c, 4, 40, 91
6, 299520, Note_on_c, 4, 40, 0
6, 299520, Note_on_c, 4, 45, 92
6, 299776, Note_on_c, 4, 45, 0
6, 300032, Note_on_c, 4, 42, 93
6, 300288, Note_on_c, 4, 42, 0
6, 300544, Note_on_c, 4, 47, 95
6, 300800, Note_on_c, 4, 47, 0
6, 301056, Note_on_c, 4, 43, 96
6, 301312, Note_on_c, 4, 43, 0
6, 301568, Note_on_c, 4, 45, 98
6, 302080, Note_on_c, 4, 45, 0
6, 302080, Note_on_c, 4, 45, 100
6, 302336, Note_on_c, 4, 45, 0
6, 302592, Note_on_c, 4, 38, 49
6, 302848, Note_on_c, 4, 38, 0
6, 303104, Note_on_c, 4, 50, 44
6, 303360, Note_on_c, 4, 50, 0
6, 303616, Note_on_c, 4, 54, 44
6, 303872, Note_on_c, 4, 54, 0
6, 304128, Note_on_c, 4, 47, 44
6, 304384, Note_on_c, 4, 47, 0
6, 305152, Note_on_c, 4, 59, 44
6, 305920, Note_on_c, 4, 59, 0
6, 306176, Note_on_c, 4, 52, 44
6, 306432, Note_on_c, 4, 52, 0
6, 306688, Note_on_c, 4, 57, 44
6, 307456, Note_on_c, 4, 57, 0
6, 307712, Note_on_c, 4, 52, 45
6, 307968, Note_on_c, 4, 52, 0
6, 308224, Note_on_c, 4, 45, 46
6, 308480, Note_on_c, 4, 45, 0
6, 308736, Note_on_c, 4, 50, 47
6, 308992, Note_on_c, 4, 50, 0
6, 309248, Note_on_c, 4, 52, 48
6, 309504, Note_on_c, 4, 52, 0
6, 309760, Note_on_c, 4, 54, 49
6, 310016, Note_on_c, 4, 54, 0
6, 310272, Note_on_c, 4, 52, 50
6, 310528, Note_on_c, 4, 52, 0
6, 310784, Note_on_c, 4, 50, 51
6, 311040, Note_on_c, 4, 50, 0
6, 311296, Note_on_c, 4, 52, 52
6, 311552, Note_on_c, 4, 52, 0
6, 311808, Note_on_c, 4, 45, 53
6, 312064, Note_on_c, 4, 45, 0
6, 312320, Note_on_c, 4, 57, 54
6, 312576, Note_on_c, 4, 57, 0
6, 312832, Note_on_c, 4, 57, 55
6, 313088, Note_on_c, 4, 57, 0
6, 313344, Note_on_c, 4, 66, 56
6, 313600, Note_on_c, 4, 66, 0
6, 313856, Note_on_c, 4, 66, 57
6, 314112, Note_on_c, 4, 66, 0
6, 314368, Note_on_c, 4, 66, 58
6, 314624, Note_on_c, 4, 66, 0
6, 314880, Note_on_c, 4, 59, 59
6, 315392, Note_on_c, 4, 59, 0
6, 315392, Note_on_c, 4, 59, 60
6, 315648, Note_on_c, 4, 59, 0
6, 315904, Note_on_c, 4, 61, 61
6, 316160, Note_on_c, 4, 61, 0
6, 316160, Note_on_c, 4, 62, 62
6, 316416, Note_on_c, 4, 62, 0
6, 316416, Note_on_c, 4, 64, 63
6, 316672, Note_on_c, 4, 64, 0
6, 316672, Note_on_c, 4, 66, 64
6, 316928, Note_on_c, 4, 66, 0
6, 316928, Note_on_c, 4, 67, 66
6, 317184, Note_on_c, 4, 67, 0
6, 317184, Note_on_c, 4, 66, 68
6, 317440, Note_on_c, 4, 66, 0
6, 317440, Note_on_c, 4, 64, 69
6, 317696, Note_on_c, 4, 64, 0
6, 317696, Note_on_c, 4, 62, 71
6, 317952, Note_on_c, 4, 62, 0
6, 317952, Note_on_c, 4, 61, 73
6, 318208, Note_on_c, 4, 61, 0
6, 318464, Note_on_c, 4, 59, 76
6, 318720, Note_on_c, 4, 59, 0
6, 318720, Note_on_c, 4, 57, 77
6, 318976, Note_on_c, 4, 57, 0
6, 318976, Note_on_c, 4, 62, 78
6, 319744, Note_on_c, 4, 62, 0
6, 319744, Note_on_c, 4, 64, 82
6, 320000, Note_on_c, 4, 64, 0
6, 320000, Note_on_c, 4, 61, 83
6, 320768, Note_on_c, 4, 61, 0
6, 320768, Note_on_c, 4, 62, 86
6, 321024, Note_on_c, 4, 62, 0
6, 321024, Note_on_c, 4, 50, 87
6, 321280, Note_on_c, 4, 50, 0
6, 321536, Note_on_c, 4, 50, 87
6, 321792, Note_on_c, 4, 50, 0
6, 322048, Note_on_c, 4, 50, 87
6, 322304, Note_on_c, 4, 50, 0
6, 322560, Note_on_c, 4, 59, 87
6, 322816, Note_on_c, 4, 59, 0
6, 323072, Note_on_c, 4, 59, 87
6, 323328, Note_on_c, 4, 59, 0
6, 323584, Note_on_c, 4, 59, 87
6, 323840, Note_on_c, 4, 59, 0
6, 324096, Note_on_c, 4, 52, 87
6, 324608, Note_on_c, 4, 52, 0
6, 324608, Note_on_c, 4, 52, 87
6, 324864, Note_on_c, 4, 52, 0
6, 325120, Note_on_c, 4, 54, 87
6, 325376, Note_on_c, 4, 54, 0
6, 325376, Note_on_c, 4, 55, 87
6, 325632, Note_on_c, 4, 55, 0
6, 325632, Note_on_c, 4, 57, 87
6, 325888, Note_on_c, 4, 57, 0
6, 325888, Note_on_c, 4, 59, 87
6, 326144, Note_on_c, 4, 59, 0
6, 326144, Note_on_c, 4, 60, 87
6, 326400, Note_on_c, 4, 60, 0
6, 326400, Note_on_c, 4, 59, 87
6, 326656, Note_on_c, 4, 59, 0
6, 326656, Note_on_c, 4, 57, 87
6, 326912, Note_on_c, 4, 57, 0
6, 326912, Note_on_c, 4, 55, 87
6, 327168, Note_on_c, 4, 55, 0
6, 327168, Note_on_c, 4, 54, 87
6, 327424, Note_on_c, 4, 54, 0
6, 327680, Note_on_c, 4, 52, 87
6, 327936, Note_on_c, 4, 52, 0
6, 327936, Note_on_c, 4, 50, 87
6, 328192, Note_on_c, 4, 50, 0
6, 328192, Note_on_c, 4, 55, 87
6, 328448, Note_on_c, 4, 55, 0
6, 328704, Note_on_c, 4, 43, 87
6, 328960, Note_on_c, 4, 43, 0
6, 329216, Note_on_c, 4, 50, 87
6, 329728, Note_on_c, 4, 50, 0
6, 329728, Note_on_c, 4, 38, 87
6, 329984, Note_on_c, 4, 38, 0
6, 330240, Note_on_c, 4, 43, 87
6, 330496, Note_on_c, 4, 43, 0
6, 330752, Note_on_c, 4, 55, 46
6, 332032, Note_on_c, 4, 55, 0
6, 332288, Note_on_c, 4, 54, 49
6, 332544, Note_on_c, 4, 54, 0
6, 332800, Note_on_c, 4, 52, 50
6, 333056, Note_on_c, 4, 52, 0
6, 333312, Note_on_c, 4, 54, 51
6, 335104, Note_on_c, 4, 54, 0
6, 335360, Note_on_c, 4, 52, 56
6, 335616, Note_on_c, 4, 52, 0
6, 335872, Note_on_c, 4, 50, 57
6, 336128, Note_on_c, 4, 50, 0
6, 336384, Note_on_c, 4, 52, 58
6, 338176, Note_on_c, 4, 52, 0
6, 338432, Note_on_c, 4, 50, 62
6, 338688, Note_on_c, 4, 50, 0
6, 338944, Note_on_c, 4, 49, 63
6, 339200, Note_on_c, 4, 49, 0
6, 339456, Note_on_c, 4, 50, 64
6, 341248, Note_on_c, 4, 50, 0
6, 341504, Note_on_c, 4, 49, 75
6, 341760, Note_on_c, 4, 49, 0
6, 342016, Note_on_c, 4, 47, 78
6, 342272, Note_on_c, 4, 47, 0
6, 342528, Note_on_c, 4, 49, 80
6, 342784, Note_on_c, 4, 49, 0
6, 342784, Note_on_c, 4, 47, 82
6, 343040, Note_on_c, 4, 47, 0
6, 343040, Note_on_c, 4, 45, 83
6, 343296, Note_on_c, 4, 45, 0
6, 343296, Note_on_c, 4, 47, 85
6, 343552, Note_on_c, 4, 47, 0
6, 343552, Note_on_c, 4, 49, 86
6, 343808, Note_on_c, 4, 49, 0
6, 343808, Note_on_c, 4, 45, 87
6, 344064, Note_on_c, 4, 45, 0
6, 344064, Note_on_c, 4, 50, 89
6, 344320, Note_on_c, 4, 50, 0
6, 344320, Note_on_c, 4, 49, 90
6, 344576, Note_on_c, 4, 49, 0
6, 344576, Note_on_c, 4, 50, 91
6, 344832, Note_on_c, 4, 50, 0
6, 344832, Note_on_c, 4, 52, 93
6, 345088, Note_on_c, 4, 52, 0
6, 345088, Note_on_c, 4, 54, 94
6, 345344, Note_on_c, 4, 54, 0
6, 345344, Note_on_c, 4, 55, 96
6, 345600, Note_on_c, 4, 55, 0
6, 345600, Note_on_c, 4, 57, 96
6, 345856, Note_on_c, 4, 57, 0
6, 345856, Note_on_c, 4, 55, 97
6, 346112, Note_on_c, 4, 55, 0
6, 346112, Note_on_c, 4, 57, 99
6, 346368, Note_on_c, 4, 57, 0
6, 346368, Note_on_c, 4, 59, 100
6, 346624, Note_on_c, 4, 59, 0
6, 346624, Note_on_c, 4, 61, 101
6, 346880, Note_on_c, 4, 61, 0
6, 346880, Note_on_c, 4, 57, 102
6, 347136, Note_on_c, 4, 57, 0
6, 347136, Note_on_c, 4, 62, 103
6, 347392, Note_on_c, 4, 62, 0
6, 347392, Note_on_c, 4, 64, 98
6, 347648, Note_on_c, 4, 64, 0
6, 347648, Note_on_c, 4, 62, 98
6, 347904, Note_on_c, 4, 62, 0
6, 347904, Note_on_c, 4, 61, 98
6, 348160, Note_on_c, 4, 61, 0
6, 348160, Note_on_c, 4, 59, 98
6, 348416, Note_on_c, 4, 59, 0
6, 348416, Note_on_c, 4, 57, 98
6, 348672, Note_on_c, 4, 57, 0
6, 348672, Note_on_c, 4, 55, 98
6, 348928, Note_on_c, 4, 55, 0
6, 348928, Note_on_c, 4, 57, 98
6, 349184, Note_on_c, 4, 57, 0
6, 349184, Note_on_c, 4, 55, 98
6, 349440, Note_on_c, 4, 55, 0
6, 349440, Note_on_c, 4, 54, 98
6, 349696, Note_on_c, 4, 54, 0
6, 349696, Note_on_c, 4, 52, 98
6, 349952, Note_on_c, 4, 52, 0
6, 349952, Note_on_c, 4, 50, 98
6, 350208, Note_on_c, 4, 50, 0
6, 350208, Note_on_c, 4, 49, 98
6, 350464, Note_on_c, 4, 49, 0
6, 350464, Note_on_c, 4, 50, 98
6, 350720, Note_on_c, 4, 50, 0
6, 350720, Note_on_c, 4, 52, 98
6, 350976, Note_on_c, 4, 52, 0
6, 350976, Note_on_c, 4, 50, 98
6, 351232, Note_on_c, 4, 50, 0
6, 351232, Note_on_c, 4, 49, 98
6, 351488, Note_on_c, 4, 49, 0
6, 351488, Note_on_c, 4, 47, 98
6, 351744, Note_on_c, 4, 47, 0
6, 351744, Note_on_c, 4, 45, 97
6, 352000, Note_on_c, 4, 45, 0
6, 352000, Note_on_c, 4, 52, 98
6, 352256, Note_on_c, 4, 52, 0
6, 352256, Note_on_c, 4, 57, 99
6, 352512, Note_on_c, 4, 57, 0
6, 352512, Note_on_c, 4, 55, 99
6, 352768, Note_on_c, 4, 55, 0
6, 352768, Note_on_c, 4, 54, 98
6, 353024, Note_on_c, 4, 54, 0
6, 353024, Note_on_c, 4, 52, 98
6, 353280, Note_on_c, 4, 52, 0
6, 353280, Note_on_c, 4, 50, 95
6, 353536, Note_on_c, 4, 50, 0
6, 353792, Note_on_c, 4, 57, 89
6, 354304, Note_on_c, 4, 57, 0
6, 354304, Note_on_c, 4, 45, 82
6, 354560, Note_on_c, 4, 45, 0
6, 354816, Note_on_c, 4, 50, 59
6, 355072, Note_on_c, 4, 50, 0
6, 355328, Note_on_c, 4, 54, 61
6, 355840, Note_on_c, 4, 54, 0
6, 355840, Note_on_c, 4, 50, 63
6, 356352, Note_on_c, 4, 50, 0
6, 356352, Note_on_c, 4, 55, 65
6, 356608, Note_on_c, 4, 55, 0
6, 356864, Note_on_c, 4, 56, 67
6, 357120, Note_on_c, 4, 56, 0
6, 357376, Note_on_c, 4, 52, 70
6, 357632, Note_on_c, 4, 52, 0
6, 357888, Note_on_c, 4, 57, 72
6, 358400, Note_on_c, 4, 57, 0
6, 358400, Note_on_c, 4, 58, 74
6, 358656, Note_on_c, 4, 58, 0
6, 358912, Note_on_c, 4, 54, 76
6, 359168, Note_on_c, 4, 54, 0
6, 359424, Note_on_c, 4, 59, 78
6, 359936, Note_on_c, 4, 59, 0
6, 359936, Note_on_c, 4, 47, 80
6, 360192, Note_on_c, 4, 47, 0
6, 360448, Note_on_c, 4, 43, 82
6, 360704, Note_on_c, 4, 43, 0
6, 360960, Note_on_c, 4, 49, 84
6, 361472, Note_on_c, 4, 49, 0
6, 361472, Note_on_c, 4, 61, 86
6, 361728, Note_on_c, 4, 61, 0
6, 361984, Note_on_c, 4, 57, 89
6, 362240, Note_on_c, 4, 57, 0
6, 362496, Note_on_c, 4, 62, 91
6, 362752, Note_on_c, 4, 62, 0
6, 363008, Note_on_c, 4, 50, 93
6, 363264, Note_on_c, 4, 50, 0
6, 363264, Note_on_c, 4, 52, 94
6, 363520, Note_on_c, 4, 52, 0
6, 363520, Note_on_c, 4, 54, 95
6, 363776, Note_on_c, 4, 54, 0
6, 363776, Note_on_c, 4, 50, 96
6, 364032, Note_on_c, 4, 50, 0
6, 364032, Note_on_c, 4, 57, 102
6, 364288, Note_on_c, 4, 57, 0
6, 365568, Note_on_c, 4, 57, 104
6, 365824, Note_on_c, 4, 57, 0
6, 367104, Note_on_c, 4, 45, 106
6, 367360, Note_on_c, 4, 45, 0
6, 368640, Note_on_c, 4, 45, 108
6, 368896, Note_on_c, 4, 45, 0
6, 369152, Note_on_c, 4, 45, 109
6, 369408, Note_on_c, 4, 45, 0
6, 369664, Note_on_c, 4, 45, 110
6, 369920, Note_on_c, 4, 45, 0
6, 370176, Note_on_c, 4, 54, 111
6, 370432, Note_on_c, 4, 54, 0
6, 370688, Note_on_c, 4, 54, 111
6, 370944, Note_on_c, 4, 54, 0
6, 371200, Note_on_c, 4, 54, 112
6, 371456, Note_on_c, 4, 54, 0
6, 371712, Note_on_c, 4, 47, 113
6, 372224, Note_on_c, 4, 47, 0
6, 372224, Note_on_c, 4, 47, 114
6, 372480, Note_on_c, 4, 47, 0
6, 372736, Note_on_c, 4, 49, 114
6, 372992, Note_on_c, 4, 49, 0
6, 372992, Note_on_c, 4, 50, 115
6, 373248, Note_on_c, 4, 50, 0
6, 373248, Note_on_c, 4, 52, 115
6, 373504, Note_on_c, 4, 52, 0
6, 373504, Note_on_c, 4, 54, 116
6, 373760, Note_on_c, 4, 54, 0
6, 373760, Note_on_c, 4, 55, 116
6, 374016, Note_on_c, 4, 55, 0
6, 374016, Note_on_c, 4, 54, 116
6, 374272, Note_on_c, 4, 54, 0
6, 374272, Note_on_c, 4, 52, 117
6, 374528, Note_on_c, 4, 52, 0
6, 374528, Note_on_c, 4, 50, 117
6, 374784, Note_on_c, 4, 50, 0
6, 374784, Note_on_c, 4, 49, 117
6, 375040, Note_on_c, 4, 49, 0
6, 375296, Note_on_c, 4, 47, 118
6, 375552, Note_on_c, 4, 47, 0
6, 375552, Note_on_c, 4, 45, 119
6, 375808, Note_on_c, 4, 45, 0
6, 375808, Note_on_c, 4, 50, 119
6, 376064, Note_on_c, 4, 50, 0
6, 376320, Note_on_c, 4, 43, 120
6, 376576, Note_on_c, 4, 43, 0
6, 376832, Note_on_c, 4, 45, 121
6, 377856, Note_on_c, 4, 45, 0
6, 377856, Note_on_c, 4, 38, 123
6, 379392, Control_c, 4, 121, 127
6, 379392, Note_on_c, 4, 38, 0
6, 379392, End_track
7, 0, Start_track
7, 0, Title_t, "Violins I & II"
7, 0, Program_c, 5, 48
7, 0, Control_c, 5, 121, 127
7, 0, Control_c, 5, 91, 127
7, 0, Control_c, 5, 1, 10
7, 0, Control_c, 5, 10, 30
7, 0, Control_c, 5, 11, 90
7, 1024, Note_on_c, 5, 81, 108
7, 1024, Note_on_c, 5, 78, 108
7, 1707, Note_on_c, 5, 81, 0
7, 1707, Note_on_c, 5, 78, 104
7, 1707, Note_on_c, 5, 74, 104
7, 2048, Note_on_c, 5, 78, 0
7, 2048, Note_on_c, 5, 81, 106
7, 2048, Note_on_c, 5, 74, 0
7, 2048, Note_on_c, 5, 78, 106
7, 2048, Note_on_c, 5, 78, 0
7, 2731, Note_on_c, 5, 81, 0
7, 2731, Note_on_c, 5, 78, 90
7, 2731, Note_on_c, 5, 74, 90
7, 3072, Note_on_c, 5, 78, 0
7, 3072, Note_on_c, 5, 81, 82
7, 3072, Note_on_c, 5, 74, 0
7, 3072, Note_on_c, 5, 78, 82
7, 3072, Note_on_c, 5, 78, 0
7, 3755, Note_on_c, 5, 81, 0
7, 3755, Note_on_c, 5, 74, 91
7, 3755, Note_on_c, 5, 78, 0
7, 3755, Note_on_c, 5, 69, 91
7, 4096, Note_on_c, 5, 74, 0
7, 4096, Note_on_c, 5, 73, 95
7, 4096, Note_on_c, 5, 69, 0
7, 4096, Note_on_c, 5, 67, 95
7, 4779, Note_on_c, 5, 73, 0
7, 4779, Note_on_c, 5, 79, 104
7, 4779, Note_on_c, 5, 67, 0
7, 4779, Note_on_c, 5, 76, 104
7, 5120, Note_on_c, 5, 79, 0
7, 5120, Note_on_c, 5, 76, 0
7, 5120, Note_on_c, 5, 78, 109
7, 5120, Note_on_c, 5, 74, 109
7, 5803, Note_on_c, 5, 78, 0
7, 5803, Note_on_c, 5, 74, 103
7, 5803, Note_on_c, 5, 69, 103
7, 6144, Note_on_c, 5, 74, 0
7, 6144, Note_on_c, 5, 78, 107
7, 6144, Note_on_c, 5, 69, 0
7, 6144, Note_on_c, 5, 74, 107
7, 6144, Note_on_c, 5, 74, 0
7, 6827, Note_on_c, 5, 78, 0
7, 6827, Note_on_c, 5, 74, 90
7, 6827, Note_on_c, 5, 69, 90
7, 7168, Note_on_c, 5, 74, 0
7, 7168, Note_on_c, 5, 71, 82
7, 7168, Note_on_c, 5, 69, 0
7, 7168, Note_on_c, 5, 67, 82
7, 7168, Note_on_c, 5, 74, 0
7, 7851, Note_on_c, 5, 71, 0
7, 7851, Note_on_c, 5, 79, 90
7, 7851, Note_on_c, 5, 67, 0
7, 7851, Note_on_c, 5, 74, 90
7, 8192, Note_on_c, 5, 79, 0
7, 8192, Note_on_c, 5, 78, 94
7, 8192, Note_on_c, 5, 74, 0
7, 8192, Note_on_c, 5, 72, 94
7, 8875, Note_on_c, 5, 78, 0
7, 8875, Note_on_c, 5, 81, 102
7, 8875, Note_on_c, 5, 72, 0
7, 8875, Note_on_c, 5, 78, 102
7, 9216, Note_on_c, 5, 81, 0
7, 9216, Note_on_c, 5, 78, 0
7, 9216, Note_on_c, 5, 74, 107
7, 9216, Note_on_c, 5, 71, 107
7, 9899, Note_on_c, 5, 74, 0
7, 9899, Note_on_c, 5, 71, 102
7, 9899, Note_on_c, 5, 67, 102
7, 10240, Note_on_c, 5, 71, 0
7, 10240, Note_on_c, 5, 74, 105
7, 10240, Note_on_c, 5, 67, 0
7, 10240, Note_on_c, 5, 71, 105
7, 10240, Note_on_c, 5, 71, 0
7, 10923, Note_on_c, 5, 74, 0
7, 10923, Note_on_c, 5, 71, 74
7, 10923, Note_on_c, 5, 67, 74
7, 11264, Note_on_c, 5, 71, 0
7, 11264, Note_on_c, 5, 79, 65
7, 11264, Note_on_c, 5, 67, 0
7, 11264, Note_on_c, 5, 76, 65
7, 11264, Note_on_c, 5, 71, 0
7, 11520, Note_on_c, 5, 79, 0
7, 11520, Note_on_c, 5, 76, 0
7, 12288, Note_on_c, 5, 78, 55
7, 12288, Note_on_c, 5, 74, 55
7, 12544, Note_on_c, 5, 78, 0
7, 12544, Note_on_c, 5, 74, 0
7, 13312, Note_on_c, 5, 76, 55
7, 13312, Note_on_c, 5, 73, 55
7, 13568, Note_on_c, 5, 76, 0
7, 13568, Note_on_c, 5, 73, 0
7, 14336, Note_on_c, 5, 79, 55
7, 14336, Note_on_c, 5, 76, 55
7, 14592, Note_on_c, 5, 79, 0
7, 14592, Note_on_c, 5, 76, 0
7, 15360, Note_on_c, 5, 78, 54
7, 15360, Note_on_c, 5, 74, 54
7, 15616, Note_on_c, 5, 78, 0
7, 15616, Note_on_c, 5, 74, 0
7, 16384, Note_on_c, 5, 76, 74
7, 16384, Note_on_c, 5, 73, 74
7, 16640, Note_on_c, 5, 76, 0
7, 16640, Note_on_c, 5, 73, 0
7, 17408, Note_on_c, 5, 74, 99
7, 17408, Note_on_c, 5, 69, 99
7, 17749, Note_on_c, 5, 74, 0
7, 17749, Note_on_c, 5, 76, 97
7, 17749, Note_on_c, 5, 69, 0
7, 17749, Note_on_c, 5, 71, 97
7, 18091, Note_on_c, 5, 76, 0
7, 18091, Note_on_c, 5, 78, 97
7, 18091, Note_on_c, 5, 71, 0
7, 18091, Note_on_c, 5, 73, 97
7, 18432, Note_on_c, 5, 78, 0
7, 18432, Note_on_c, 5, 71, 97
7, 18432, Note_on_c, 5, 73, 0
7, 18432, Note_on_c, 5, 74, 97
7, 18773, Note_on_c, 5, 71, 0
7, 18773, Note_on_c, 5, 73, 97
7, 18773, Note_on_c, 5, 74, 0
7, 18773, Note_on_c, 5, 76, 97
7, 19115, Note_on_c, 5, 73, 0
7, 19115, Note_on_c, 5, 74, 97
7, 19115, Note_on_c, 5, 76, 0
7, 19115, Note_on_c, 5, 78, 97
7, 19456, Note_on_c, 5, 74, 0
7, 19456, Note_on_c, 5, 76, 97
7, 19456, Note_on_c, 5, 78, 0
7, 19456, Note_on_c, 5, 68, 97
7, 19797, Note_on_c, 5, 76, 0
7, 19797, Note_on_c, 5, 78, 97
7, 19797, Note_on_c, 5, 68, 0
7, 19797, Note_on_c, 5, 69, 97
7, 20139, Note_on_c, 5, 78, 0
7, 20139, Note_on_c, 5, 80, 97
7, 20139, Note_on_c, 5, 69, 0
7, 20139, Note_on_c, 5, 71, 97
7, 20480, Note_on_c, 5, 80, 0
7, 20480, Note_on_c, 5, 81, 97
7, 20480, Note_on_c, 5, 71, 0
7, 20480, Note_on_c, 5, 73, 97
7, 20821, Note_on_c, 5, 81, 0
7, 20821, Note_on_c, 5, 80, 97
7, 20821, Note_on_c, 5, 73, 0
7, 20821, Note_on_c, 5, 74, 97
7, 21163, Note_on_c, 5, 80, 0
7, 21163, Note_on_c, 5, 81, 97
7, 21163, Note_on_c, 5, 74, 0
7, 21163, Note_on_c, 5, 76, 97
7, 21504, Note_on_c, 5, 81, 0
7, 21504, Note_on_c, 5, 76, 0
7, 21504, Note_on_c, 5, 74, 97
7, 21504, Note_on_c, 5, 66, 97
7, 21845, Note_on_c, 5, 74, 0
7, 21845, Note_on_c, 5, 76, 97
7, 21845, Note_on_c, 5, 66, 0
7, 21845, Note_on_c, 5, 68, 97
7, 22187, Note_on_c, 5, 76, 0
7, 22187, Note_on_c, 5, 78, 97
7, 22187, Note_on_c, 5, 68, 0
7, 22187, Note_on_c, 5, 69, 97
7, 22528, Note_on_c, 5, 78, 0
7, 22528, Note_on_c, 5, 76, 97
7, 22528, Note_on_c, 5, 69, 0
7, 22528, Note_on_c, 5, 71, 97
7, 22869, Note_on_c, 5, 76, 0
7, 22869, Note_on_c, 5, 78, 97
7, 22869, Note_on_c, 5, 71, 0
7, 22869, Note_on_c, 5, 69, 97
7, 23211, Note_on_c, 5, 78, 0
7, 23211, Note_on_c, 5, 74, 97
7, 23211, Note_on_c, 5, 69, 0
7, 23211, Note_on_c, 5, 71, 97
7, 23552, Note_on_c, 5, 74, 0
7, 23552, Note_on_c, 5, 73, 98
7, 23552, Note_on_c, 5, 71, 0
7, 23552, Note_on_c, 5, 69, 98
7, 23893, Note_on_c, 5, 73, 0
7, 23893, Note_on_c, 5, 71, 99
7, 23893, Note_on_c, 5, 69, 0
7, 23893, Note_on_c, 5, 68, 99
7, 24235, Note_on_c, 5, 71, 0
7, 24235, Note_on_c, 5, 73, 101
7, 24235, Note_on_c, 5, 68, 0
7, 24235, Note_on_c, 5, 69, 101
7, 24576, Note_on_c, 5, 73, 0
7, 24576, Note_on_c, 5, 69, 103
7, 24576, Note_on_c, 5, 64, 103
7, 24917, Note_on_c, 5, 69, 0
7, 24917, Note_on_c, 5, 73, 104
7, 24917, Note_on_c, 5, 64, 0
7, 24917, Note_on_c, 5, 69, 104
7, 24917, Note_on_c, 5, 69, 0
7, 25259, Note_on_c, 5, 73, 0
7, 25259, Note_on_c, 5, 76, 106
7, 25259, Note_on_c, 5, 69, 0
7, 25259, Note_on_c, 5, 73, 106
7, 25600, Note_on_c, 5, 76, 0
7, 25600, Note_on_c, 5, 73, 0
7, 25600, Note_on_c, 5, 76, 108
7, 25600, Note_on_c, 5, 73, 108
7, 25941, Note_on_c, 5, 76, 0
7, 25941, Note_on_c, 5, 80, 97
7, 25941, Note_on_c, 5, 73, 0
7, 25941, Note_on_c, 5, 74, 97
7, 26283, Note_on_c, 5, 80, 0
7, 26283, Note_on_c, 5, 81, 101
7, 26283, Note_on_c, 5, 74, 0
7, 26283, Note_on_c, 5, 76, 101
7, 26624, Note_on_c, 5, 81, 0
7, 26624, Note_on_c, 5, 81, 105
7, 26624, Note_on_c, 5, 76, 0
7, 26624, Note_on_c, 5, 76, 105
7, 27494, Note_on_c, 5, 81, 0
7, 27494, Note_on_c, 5, 76, 0
7, 29696, Note_on_c, 5, 76, 106
7, 29696, Note_on_c, 5, 73, 106
7, 30037, Note_on_c, 5, 76, 0
7, 30037, Note_on_c, 5, 80, 96
7, 30037, Note_on_c, 5, 73, 0
7, 30037, Note_on_c, 5, 74, 96
7, 30379, Note_on_c, 5, 80, 0
7, 30379, Note_on_c, 5, 81, 100
7, 30379, Note_on_c, 5, 74, 0
7, 30379, Note_on_c, 5, 76, 100
7, 30720, Note_on_c, 5, 81, 0
7, 30720, Note_on_c, 5, 81, 104
7, 30720, Note_on_c, 5, 76, 0
7, 30720, Note_on_c, 5, 76, 104
7, 31590, Note_on_c, 5, 81, 0
7, 31590, Note_on_c, 5, 76, 0
7, 33792, Note_on_c, 5, 81, 106
7, 33792, Note_on_c, 5, 74, 106
7, 34133, Note_on_c, 5, 81, 0
7, 34133, Note_on_c, 5, 85, 94
7, 34133, Note_on_c, 5, 74, 0
7, 34133, Note_on_c, 5, 76, 94
7, 34475, Note_on_c, 5, 85, 0
7, 34475, Note_on_c, 5, 86, 97
7, 34475, Note_on_c, 5, 76, 0
7, 34475, Note_on_c, 5, 78, 97
7, 34816, Note_on_c, 5, 86, 0
7, 34816, Note_on_c, 5, 86, 100
7, 34816, Note_on_c, 5, 78, 0
7, 34816, Note_on_c, 5, 78, 100
7, 35686, Note_on_c, 5, 86, 0
7, 35686, Note_on_c, 5, 78, 0
7, 41984, Note_on_c, 5, 76, 97
7, 41984, Note_on_c, 5, 73, 97
7, 42565, Note_on_c, 5, 76, 0
7, 42565, Note_on_c, 5, 73, 0
7, 42667, Note_on_c, 5, 73, 96
7, 42667, Note_on_c, 5, 69, 96
7, 43008, Note_on_c, 5, 73, 0
7, 43008, Note_on_c, 5, 78, 96
7, 43008, Note_on_c, 5, 69, 0
7, 43008, Note_on_c, 5, 73, 96
7, 43589, Note_on_c, 5, 78, 0
7, 43589, Note_on_c, 5, 73, 0
7, 43691, Note_on_c, 5, 73, 96
7, 43691, Note_on_c, 5, 66, 96
7, 44032, Note_on_c, 5, 73, 0
7, 44032, Note_on_c, 5, 78, 96
7, 44032, Note_on_c, 5, 66, 0
7, 44032, Note_on_c, 5, 74, 96
7, 44613, Note_on_c, 5, 78, 0
7, 44613, Note_on_c, 5, 74, 0
7, 44715, Note_on_c, 5, 74, 96
7, 44715, Note_on_c, 5, 71, 96
7, 45056, Note_on_c, 5, 74, 0
7, 45056, Note_on_c, 5, 79, 96
7, 45056, Note_on_c, 5, 71, 0
7, 45056, Note_on_c, 5, 74, 96
7, 45637, Note_on_c, 5, 79, 0
7, 45637, Note_on_c, 5, 74, 0
7, 45739, Note_on_c, 5, 74, 96
7, 45739, Note_on_c, 5, 67, 96
7, 46080, Note_on_c, 5, 74, 0
7, 46080, Note_on_c, 5, 67, 0
7, 46080, Note_on_c, 5, 79, 96
7, 46080, Note_on_c, 5, 76, 96
7, 46661, Note_on_c, 5, 79, 0
7, 46661, Note_on_c, 5, 76, 0
7, 46763, Note_on_c, 5, 76, 96
7, 46763, Note_on_c, 5, 73, 96
7, 47104, Note_on_c, 5, 76, 0
7, 47104, Note_on_c, 5, 81, 96
7, 47104, Note_on_c, 5, 73, 0
7, 47104, Note_on_c, 5, 76, 96
7, 47685, Note_on_c, 5, 81, 0
7, 47685, Note_on_c, 5, 76, 0
7, 47787, Note_on_c, 5, 73, 96
7, 47787, Note_on_c, 5, 69, 96
7, 48128, Note_on_c, 5, 73, 0
7, 48128, Note_on_c, 5, 81, 96
7, 48128, Note_on_c, 5, 69, 0
7, 48128, Note_on_c, 5, 78, 96
7, 48709, Note_on_c, 5, 81, 0
7, 48709, Note_on_c, 5, 78, 0
7, 48811, Note_on_c, 5, 78, 99
7, 48811, Note_on_c, 5, 74, 99
7, 49152, Note_on_c, 5, 78, 0
7, 49152, Note_on_c, 5, 86, 101
7, 49152, Note_on_c, 5, 74, 0
7, 49152, Note_on_c, 5, 81, 101
7, 49733, Note_on_c, 5, 86, 0
7, 49733, Note_on_c, 5, 81, 0
7, 49835, Note_on_c, 5, 81, 105
7, 49835, Note_on_c, 5, 73, 105
7, 50176, Note_on_c, 5, 81, 0
7, 50176, Note_on_c, 5, 73, 0
7, 50176, Note_on_c, 5, 81, 106
7, 50176, Note_on_c, 5, 78, 106
7, 50757, Note_on_c, 5, 81, 0
7, 50757, Note_on_c, 5, 78, 0
7, 50859, Note_on_c, 5, 78, 100
7, 50859, Note_on_c, 5, 74, 100
7, 51200, Note_on_c, 5, 78, 0
7, 51200, Note_on_c, 5, 81, 104
7, 51200, Note_on_c, 5, 74, 0
7, 51200, Note_on_c, 5, 78, 104
7, 51781, Note_on_c, 5, 81, 0
7, 51781, Note_on_c, 5, 78, 0
7, 51883, Note_on_c, 5, 78, 90
7, 51883, Note_on_c, 5, 74, 90
7, 52224, Note_on_c, 5, 78, 0
7, 52224, Note_on_c, 5, 81, 92
7, 52224, Note_on_c, 5, 74, 0
7, 52224, Note_on_c, 5, 78, 92
7, 52805, Note_on_c, 5, 81, 0
7, 52805, Note_on_c, 5, 78, 0
7, 52907, Note_on_c, 5, 74, 96
7, 52907, Note_on_c, 5, 69, 96
7, 53248, Note_on_c, 5, 74, 0
7, 53248, Note_on_c, 5, 73, 98
7, 53248, Note_on_c, 5, 69, 0
7, 53248, Note_on_c, 5, 67, 98
7, 53829, Note_on_c, 5, 73, 0
7, 53829, Note_on_c, 5, 67, 0
7, 53931, Note_on_c, 5, 79, 102
7, 53931, Note_on_c, 5, 73, 102
7, 54272, Note_on_c, 5, 79, 0
7, 54272, Note_on_c, 5, 73, 0
7, 54272, Note_on_c, 5, 78, 104
7, 54272, Note_on_c, 5, 69, 104
7, 54853, Note_on_c, 5, 78, 0
7, 54853, Note_on_c, 5, 69, 0
7, 54955, Note_on_c, 5, 74, 100
7, 54955, Note_on_c, 5, 66, 100
7, 55296, Note_on_c, 5, 74, 0
7, 55296, Note_on_c, 5, 78, 103
7, 55296, Note_on_c, 5, 66, 0
7, 55296, Note_on_c, 5, 69, 103
7, 55877, Note_on_c, 5, 78, 0
7, 55877, Note_on_c, 5, 69, 0
7, 55979, Note_on_c, 5, 74, 87
7, 55979, Note_on_c, 5, 66, 87
7, 56320, Note_on_c, 5, 74, 0
7, 56320, Note_on_c, 5, 71, 90
7, 56320, Note_on_c, 5, 66, 0
7, 56320, Note_on_c, 5, 62, 90
7, 56901, Note_on_c, 5, 71, 0
7, 56901, Note_on_c, 5, 62, 0
7, 57003, Note_on_c, 5, 79, 94
7, 57003, Note_on_c, 5, 71, 94
7, 57344, Note_on_c, 5, 79, 0
7, 57344, Note_on_c, 5, 69, 97
7, 57344, Note_on_c, 5, 71, 0
7, 57344, Note_on_c, 5, 60, 97
7, 57925, Note_on_c, 5, 69, 0
7, 57925, Note_on_c, 5, 60, 0
7, 58027, Note_on_c, 5, 78, 102
7, 58027, Note_on_c, 5, 69, 102
7, 58368, Note_on_c, 5, 78, 0
7, 58368, Note_on_c, 5, 69, 0
7, 58368, Note_on_c, 5, 74, 104
7, 58368, Note_on_c, 5, 67, 104
7, 58949, Note_on_c, 5, 74, 0
7, 58949, Note_on_c, 5, 67, 0
7, 59051, Note_on_c, 5, 71, 98
7, 59051, Note_on_c, 5, 62, 98
7, 59392, Note_on_c, 5, 71, 0
7, 59392, Note_on_c, 5, 74, 102
7, 59392, Note_on_c, 5, 62, 0
7, 59392, Note_on_c, 5, 67, 102
7, 59973, Note_on_c, 5, 74, 0
7, 59973, Note_on_c, 5, 67, 0
7, 60075, Note_on_c, 5, 71, 77
7, 60075, Note_on_c, 5, 62, 77
7, 60416, Note_on_c, 5, 71, 0
7, 60416, Note_on_c, 5, 79, 54
7, 60416, Note_on_c, 5, 62, 0
7, 60416, Note_on_c, 5, 76, 54
7, 60672, Note_on_c, 5, 79, 0
7, 60672, Note_on_c, 5, 76, 0
7, 61440, Note_on_c, 5, 78, 54
7, 61440, Note_on_c, 5, 74, 54
7, 61696, Note_on_c, 5, 78, 0
7, 61696, Note_on_c, 5, 74, 0
7, 62464, Note_on_c, 5, 76, 54
7, 62464, Note_on_c, 5, 73, 54
7, 62720, Note_on_c, 5, 76, 0
7, 62720, Note_on_c, 5, 73, 0
7, 63488, Note_on_c, 5, 79, 54
7, 63488, Note_on_c, 5, 76, 54
7, 63744, Note_on_c, 5, 79, 0
7, 63744, Note_on_c, 5, 76, 0
7, 64512, Note_on_c, 5, 78, 56
7, 64512, Note_on_c, 5, 74, 56
7, 64768, Note_on_c, 5, 78, 0
7, 64768, Note_on_c, 5, 74, 0
7, 65536, Note_on_c, 5, 76, 72
7, 65536, Note_on_c, 5, 73, 72
7, 65792, Note_on_c, 5, 76, 0
7, 65792, Note_on_c, 5, 73, 0
7, 66560, Note_on_c, 5, 74, 88
7, 66560, Note_on_c, 5, 69, 88
7, 66901, Note_on_c, 5, 74, 0
7, 66901, Note_on_c, 5, 76, 82
7, 66901, Note_on_c, 5, 69, 0
7, 66901, Note_on_c, 5, 73, 82
7, 67243, Note_on_c, 5, 76, 0
7, 67243, Note_on_c, 5, 78, 85
7, 67243, Note_on_c, 5, 73, 0
7, 67243, Note_on_c, 5, 74, 85
7, 67584, Note_on_c, 5, 78, 0
7, 67584, Note_on_c, 5, 74, 88
7, 67584, Note_on_c, 5, 69, 88
7, 67925, Note_on_c, 5, 74, 0
7, 67925, Note_on_c, 5, 76, 88
7, 67925, Note_on_c, 5, 69, 0
7, 67925, Note_on_c, 5, 73, 88
7, 67925, Note_on_c, 5, 74, 0
7, 68267, Note_on_c, 5, 76, 0
7, 68267, Note_on_c, 5, 78, 88
7, 68267, Note_on_c, 5, 73, 0
7, 68267, Note_on_c, 5, 74, 88
7, 68608, Note_on_c, 5, 78, 0
7, 68608, Note_on_c, 5, 74, 88
7, 68608, Note_on_c, 5, 69, 88
7, 68949, Note_on_c, 5, 74, 0
7, 68949, Note_on_c, 5, 76, 88
7, 68949, Note_on_c, 5, 69, 0
7, 68949, Note_on_c, 5, 73, 88
7, 68949, Note_on_c, 5, 74, 0
7, 69291, Note_on_c, 5, 76, 0
7, 69291, Note_on_c, 5, 78, 88
7, 69291, Note_on_c, 5, 73, 0
7, 69291, Note_on_c, 5, 74, 88
7, 69632, Note_on_c, 5, 78, 0
7, 69632, Note_on_c, 5, 74, 88
7, 69632, Note_on_c, 5, 69, 88
7, 69973, Note_on_c, 5, 74, 0
7, 69973, Note_on_c, 5, 76, 88
7, 69973, Note_on_c, 5, 69, 0
7, 69973, Note_on_c, 5, 73, 88
7, 69973, Note_on_c, 5, 74, 0
7, 70315, Note_on_c, 5, 76, 0
7, 70315, Note_on_c, 5, 78, 88
7, 70315, Note_on_c, 5, 73, 0
7, 70315, Note_on_c, 5, 74, 88
7, 70656, Note_on_c, 5, 78, 0
7, 70656, Note_on_c, 5, 74, 0
7, 70656, Note_on_c, 5, 74, 88
7, 70656, Note_on_c, 5, 71, 88
7, 70997, Note_on_c, 5, 74, 0
7, 70997, Note_on_c, 5, 76, 88
7, 70997, Note_on_c, 5, 71, 0
7, 70997, Note_on_c, 5, 73, 88
7, 71339, Note_on_c, 5, 76, 0
7, 71339, Note_on_c, 5, 78, 88
7, 71339, Note_on_c, 5, 73, 0
7, 71339, Note_on_c, 5, 74, 88
7, 71680, Note_on_c, 5, 78, 0
7, 71680, Note_on_c, 5, 74, 88
7, 71680, Note_on_c, 5, 71, 88
7, 72021, Note_on_c, 5, 74, 0
7, 72021, Note_on_c, 5, 76, 88
7, 72021, Note_on_c, 5, 71, 0
7, 72021, Note_on_c, 5, 73, 88
7, 72021, Note_on_c, 5, 74, 0
7, 72363, Note_on_c, 5, 76, 0
7, 72363, Note_on_c, 5, 78, 88
7, 72363, Note_on_c, 5, 73, 0
7, 72363, Note_on_c, 5, 74, 88
7, 72704, Note_on_c, 5, 78, 0
7, 72704, Note_on_c, 5, 78, 88
7, 72704, Note_on_c, 5, 74, 0
7, 72704, Note_on_c, 5, 73, 88
7, 73574, Note_on_c, 5, 78, 0
7, 73574, Note_on_c, 5, 73, 0
7, 74752, Note_on_c, 5, 74, 100
7, 74752, Note_on_c, 5, 71, 100
7, 75333, Note_on_c, 5, 74, 0
7, 75333, Note_on_c, 5, 71, 0
7, 75435, Note_on_c, 5, 71, 94
7, 75435, Note_on_c, 5, 66, 94
7, 75776, Note_on_c, 5, 71, 0
7, 75776, Note_on_c, 5, 74, 97
7, 75776, Note_on_c, 5, 66, 0
7, 75776, Note_on_c, 5, 71, 97
7, 76357, Note_on_c, 5, 74, 0
7, 76357, Note_on_c, 5, 71, 0
7, 76459, Note_on_c, 5, 71, 99
7, 76459, Note_on_c, 5, 66, 99
7, 76800, Note_on_c, 5, 71, 0
7, 76800, Note_on_c, 5, 78, 99
7, 76800, Note_on_c, 5, 66, 0
7, 76800, Note_on_c, 5, 74, 99
7, 77381, Note_on_c, 5, 78, 0
7, 77381, Note_on_c, 5, 74, 0
7, 77483, Note_on_c, 5, 74, 99
7, 77483, Note_on_c, 5, 71, 99
7, 77824, Note_on_c, 5, 74, 0
7, 77824, Note_on_c, 5, 78, 99
7, 77824, Note_on_c, 5, 71, 0
7, 77824, Note_on_c, 5, 74, 99
7, 78405, Note_on_c, 5, 78, 0
7, 78405, Note_on_c, 5, 74, 0
7, 78507, Note_on_c, 5, 74, 99
7, 78507, Note_on_c, 5, 71, 99
7, 78848, Note_on_c, 5, 74, 0
7, 78848, Note_on_c, 5, 71, 0
7, 78848, Note_on_c, 5, 79, 99
7, 78848, Note_on_c, 5, 74, 99
7, 79429, Note_on_c, 5, 79, 0
7, 79429, Note_on_c, 5, 74, 0
7, 79531, Note_on_c, 5, 74, 99
7, 79531, Note_on_c, 5, 71, 99
7, 79872, Note_on_c, 5, 74, 0
7, 79872, Note_on_c, 5, 79, 99
7, 79872, Note_on_c, 5, 71, 0
7, 79872, Note_on_c, 5, 74, 99
7, 80453, Note_on_c, 5, 79, 0
7, 80453, Note_on_c, 5, 74, 0
7, 80555, Note_on_c, 5, 74, 99
7, 80555, Note_on_c, 5, 71, 99
7, 80896, Note_on_c, 5, 74, 0
7, 80896, Note_on_c, 5, 81, 99
7, 80896, Note_on_c, 5, 71, 0
7, 80896, Note_on_c, 5, 74, 99
7, 81237, Note_on_c, 5, 81, 0
7, 81237, Note_on_c, 5, 76, 97
7, 81237, Note_on_c, 5, 74, 0
7, 81237, Note_on_c, 5, 72, 97
7, 81579, Note_on_c, 5, 76, 0
7, 81579, Note_on_c, 5, 74, 94
7, 81579, Note_on_c, 5, 72, 0
7, 81579, Note_on_c, 5, 71, 94
7, 81920, Note_on_c, 5, 74, 0
7, 81920, Note_on_c, 5, 72, 90
7, 81920, Note_on_c, 5, 71, 0
7, 81920, Note_on_c, 5, 69, 90
7, 82261, Note_on_c, 5, 72, 0
7, 82261, Note_on_c, 5, 71, 87
7, 82261, Note_on_c, 5, 69, 0
7, 82261, Note_on_c, 5, 67, 87
7, 82603, Note_on_c, 5, 71, 0
7, 82603, Note_on_c, 5, 69, 84
7, 82603, Note_on_c, 5, 67, 0
7, 82603, Note_on_c, 5, 69, 84
7, 82944, Note_on_c, 5, 69, 0
7, 82944, Note_on_c, 5, 69, 0
7, 82944, Note_on_c, 5, 67, 80
7, 82944, Note_on_c, 5, 62, 80
7, 83285, Note_on_c, 5, 67, 0
7, 83285, Note_on_c, 5, 69, 80
7, 83285, Note_on_c, 5, 62, 0
7, 83285, Note_on_c, 5, 66, 80
7, 83627, Note_on_c, 5, 69, 0
7, 83627, Note_on_c, 5, 71, 80
7, 83627, Note_on_c, 5, 66, 0
7, 83627, Note_on_c, 5, 67, 80
7, 83968, Note_on_c, 5, 71, 0
7, 83968, Note_on_c, 5, 67, 80
7, 83968, Note_on_c, 5, 62, 80
7, 84309, Note_on_c, 5, 67, 0
7, 84309, Note_on_c, 5, 69, 80
7, 84309, Note_on_c, 5, 62, 0
7, 84309, Note_on_c, 5, 66, 80
7, 84309, Note_on_c, 5, 67, 0
7, 84651, Note_on_c, 5, 69, 0
7, 84651, Note_on_c, 5, 71, 80
7, 84651, Note_on_c, 5, 66, 0
7, 84651, Note_on_c, 5, 67, 80
7, 84992, Note_on_c, 5, 71, 0
7, 84992, Note_on_c, 5, 67, 80
7, 84992, Note_on_c, 5, 62, 80
7, 85333, Note_on_c, 5, 67, 0
7, 85333, Note_on_c, 5, 69, 80
7, 85333, Note_on_c, 5, 62, 0
7, 85333, Note_on_c, 5, 66, 80
7, 85333, Note_on_c, 5, 67, 0
7, 85675, Note_on_c, 5, 69, 0
7, 85675, Note_on_c, 5, 71, 80
7, 85675, Note_on_c, 5, 66, 0
7, 85675, Note_on_c, 5, 67, 80
7, 86016, Note_on_c, 5, 71, 0
7, 86016, Note_on_c, 5, 67, 80
7, 86016, Note_on_c, 5, 62, 80
7, 86357, Note_on_c, 5, 67, 0
7, 86357, Note_on_c, 5, 69, 80
7, 86357, Note_on_c, 5, 62, 0
7, 86357, Note_on_c, 5, 66, 80
7, 86357, Note_on_c, 5, 67, 0
7, 86699, Note_on_c, 5, 69, 0
7, 86699, Note_on_c, 5, 71, 80
7, 86699, Note_on_c, 5, 66, 0
7, 86699, Note_on_c, 5, 67, 80
7, 87040, Note_on_c, 5, 71, 0
7, 87040, Note_on_c, 5, 67, 0
7, 87040, Note_on_c, 5, 67, 80
7, 87040, Note_on_c, 5, 64, 80
7, 87381, Note_on_c, 5, 67, 0
7, 87381, Note_on_c, 5, 69, 80
7, 87381, Note_on_c, 5, 64, 0
7, 87381, Note_on_c, 5, 66, 80
7, 87723, Note_on_c, 5, 69, 0
7, 87723, Note_on_c, 5, 71, 80
7, 87723, Note_on_c, 5, 66, 0
7, 87723, Note_on_c, 5, 67, 80
7, 88064, Note_on_c, 5, 71, 0
7, 88064, Note_on_c, 5, 67, 80
7, 88064, Note_on_c, 5, 64, 80
7, 88405, Note_on_c, 5, 67, 0
7, 88405, Note_on_c, 5, 69, 80
7, 88405, Note_on_c, 5, 64, 0
7, 88405, Note_on_c, 5, 66, 80
7, 88405, Note_on_c, 5, 67, 0
7, 88747, Note_on_c, 5, 69, 0
7, 88747, Note_on_c, 5, 71, 80
7, 88747, Note_on_c, 5, 66, 0
7, 88747, Note_on_c, 5, 67, 80
7, 89088, Note_on_c, 5, 71, 0
7, 89088, Note_on_c, 5, 71, 80
7, 89088, Note_on_c, 5, 67, 0
7, 89088, Note_on_c, 5, 66, 80
7, 89958, Note_on_c, 5, 71, 0
7, 89958, Note_on_c, 5, 66, 0
7, 91136, Note_on_c, 5, 79, 55
7, 91136, Note_on_c, 5, 76, 55
7, 91717, Note_on_c, 5, 79, 0
7, 91717, Note_on_c, 5, 76, 0
7, 91819, Note_on_c, 5, 76, 49
7, 91819, Note_on_c, 5, 71, 49
7, 92160, Note_on_c, 5, 76, 0
7, 92160, Note_on_c, 5, 85, 49
7, 92160, Note_on_c, 5, 71, 0
7, 92160, Note_on_c, 5, 79, 49
7, 92741, Note_on_c, 5, 79, 0
7, 92843, Note_on_c, 5, 76, 49
7, 93184, Note_on_c, 5, 76, 0
7, 93184, Note_on_c, 5, 78, 49
7, 93765, Note_on_c, 5, 85, 0
7, 93765, Note_on_c, 5, 78, 0
7, 93867, Note_on_c, 5, 78, 49
7, 93867, Note_on_c, 5, 74, 49
7, 94208, Note_on_c, 5, 78, 0
7, 94208, Note_on_c, 5, 83, 49
7, 94208, Note_on_c, 5, 74, 0
7, 94208, Note_on_c, 5, 78, 49
7, 94789, Note_on_c, 5, 78, 0
7, 94891, Note_on_c, 5, 74, 49
7, 95232, Note_on_c, 5, 74, 0
7, 95232, Note_on_c, 5, 76, 49
7, 95813, Note_on_c, 5, 83, 0
7, 95813, Note_on_c, 5, 76, 0
7, 95915, Note_on_c, 5, 85, 49
7, 95915, Note_on_c, 5, 73, 49
7, 96256, Note_on_c, 5, 85, 0
7, 96256, Note_on_c, 5, 82, 49
7, 96256, Note_on_c, 5, 73, 0
7, 96256, Note_on_c, 5, 76, 49
7, 96837, Note_on_c, 5, 76, 0
7, 96939, Note_on_c, 5, 73, 49
7, 97126, Note_on_c, 5, 82, 0
7, 97280, Note_on_c, 5, 83, 48
7, 97280, Note_on_c, 5, 73, 0
7, 97280, Note_on_c, 5, 74, 48
7, 97861, Note_on_c, 5, 83, 0
7, 97861, Note_on_c, 5, 74, 0
7, 97963, Note_on_c, 5, 78, 46
7, 97963, Note_on_c, 5, 74, 46
7, 98304, Note_on_c, 5, 78, 0
7, 98304, Note_on_c, 5, 83, 44
7, 98304, Note_on_c, 5, 74, 0
7, 98304, Note_on_c, 5, 78, 44
7, 98885, Note_on_c, 5, 83, 0
7, 98885, Note_on_c, 5, 78, 0
7, 98987, Note_on_c, 5, 78, 42
7, 98987, Note_on_c, 5, 74, 42
7, 99328, Note_on_c, 5, 78, 0
7, 99328, Note_on_c, 5, 74, 0
7, 99328, Note_on_c, 5, 71, 40
7, 99328, Note_on_c, 5, 67, 40
7, 100198, Note_on_c, 5, 71, 0
7, 100198, Note_on_c, 5, 67, 0
7, 103424, Note_on_c, 5, 85, 40
7, 103424, Note_on_c, 5, 76, 40
7, 107520, Note_on_c, 5, 85, 0
7, 107520, Note_on_c, 5, 76, 0
7, 107520, Note_on_c, 5, 84, 40
7, 107520, Note_on_c, 5, 78, 40
7, 111616, Note_on_c, 5, 84, 0
7, 111616, Note_on_c, 5, 78, 0
7, 111616, Note_on_c, 5, 83, 40
7, 111616, Note_on_c, 5, 74, 40
7, 111957, Note_on_c, 5, 83, 0
7, 111957, Note_on_c, 5, 81, 40
7, 111957, Note_on_c, 5, 74, 0
7, 111957, Note_on_c, 5, 76, 40
7, 112299, Note_on_c, 5, 81, 0
7, 112299, Note_on_c, 5, 83, 41
7, 112299, Note_on_c, 5, 76, 0
7, 112299, Note_on_c, 5, 78, 41
7, 112640, Note_on_c, 5, 83, 0
7, 112640, Note_on_c, 5, 76, 41
7, 112640, Note_on_c, 5, 78, 0
7, 112640, Note_on_c, 5, 79, 41
7, 112981, Note_on_c, 5, 76, 0
7, 112981, Note_on_c, 5, 78, 42
7, 112981, Note_on_c, 5, 79, 0
7, 112981, Note_on_c, 5, 81, 42
7, 113323, Note_on_c, 5, 78, 0
7, 113323, Note_on_c, 5, 79, 42
7, 113323, Note_on_c, 5, 81, 0
7, 113323, Note_on_c, 5, 83, 42
7, 113664, Note_on_c, 5, 79, 0
7, 113664, Note_on_c, 5, 81, 43
7, 113664, Note_on_c, 5, 83, 0
7, 113664, Note_on_c, 5, 73, 43
7, 114005, Note_on_c, 5, 81, 0
7, 114005, Note_on_c, 5, 83, 43
7, 114005, Note_on_c, 5, 73, 0
7, 114005, Note_on_c, 5, 74, 43
7, 114347, Note_on_c, 5, 83, 0
7, 114347, Note_on_c, 5, 85, 44
7, 114347, Note_on_c, 5, 74, 0
7, 114347, Note_on_c, 5, 76, 44
7, 114688, Note_on_c, 5, 85, 0
7, 114688, Note_on_c, 5, 86, 45
7, 114688, Note_on_c, 5, 76, 0
7, 114688, Note_on_c, 5, 78, 45
7, 115029, Note_on_c, 5, 86, 0
7, 115029, Note_on_c, 5, 85, 45
7, 115029, Note_on_c, 5, 78, 0
7, 115029, Note_on_c, 5, 79, 45
7, 115371, Note_on_c, 5, 85, 0
7, 115371, Note_on_c, 5, 86, 46
7, 115371, Note_on_c, 5, 79, 0
7, 115371, Note_on_c, 5, 81, 46
7, 115712, Note_on_c, 5, 86, 0
7, 115712, Note_on_c, 5, 81, 0
7, 115712, Note_on_c, 5, 79, 46
7, 115712, Note_on_c, 5, 71, 46
7, 116053, Note_on_c, 5, 79, 0
7, 116053, Note_on_c, 5, 81, 47
7, 116053, Note_on_c, 5, 71, 0
7, 116053, Note_on_c, 5, 73, 47
7, 116395, Note_on_c, 5, 81, 0
7, 116395, Note_on_c, 5, 83, 47
7, 116395, Note_on_c, 5, 73, 0
7, 116395, Note_on_c, 5, 74, 47
7, 116736, Note_on_c, 5, 83, 0
7, 116736, Note_on_c, 5, 81, 48
7, 116736, Note_on_c, 5, 74, 0
7, 116736, Note_on_c, 5, 76, 48
7, 117077, Note_on_c, 5, 81, 0
7, 117077, Note_on_c, 5, 83, 49
7, 117077, Note_on_c, 5, 76, 0
7, 117077, Note_on_c, 5, 74, 49
7, 117419, Note_on_c, 5, 83, 0
7, 117419, Note_on_c, 5, 79, 49
7, 117419, Note_on_c, 5, 74, 0
7, 117419, Note_on_c, 5, 76, 49
7, 117760, Note_on_c, 5, 79, 0
7, 117760, Note_on_c, 5, 78, 50
7, 117760, Note_on_c, 5, 76, 0
7, 117760, Note_on_c, 5, 69, 50
7, 118630, Note_on_c, 5, 78, 0
7, 118630, Note_on_c, 5, 69, 0
7, 122880, Note_on_c, 5, 81, 52
7, 124245, Note_on_c, 5, 81, 0
7, 124245, Note_on_c, 5, 83, 52
7, 124587, Note_on_c, 5, 83, 0
7, 124587, Note_on_c, 5, 81, 52
7, 124928, Note_on_c, 5, 81, 0
7, 124928, Note_on_c, 5, 79, 52
7, 124928, Note_on_c, 5, 71, 52
7, 125269, Note_on_c, 5, 79, 0
7, 125269, Note_on_c, 5, 81, 52
7, 125611, Note_on_c, 5, 81, 0
7, 125611, Note_on_c, 5, 78, 52
7, 125952, Note_on_c, 5, 78, 0
7, 125952, Note_on_c, 5, 76, 52
7, 126293, Note_on_c, 5, 76, 0
7, 126293, Note_on_c, 5, 78, 52
7, 126293, Note_on_c, 5, 71, 0
7, 126293, Note_on_c, 5, 73, 52
7, 126635, Note_on_c, 5, 78, 0
7, 126635, Note_on_c, 5, 79, 52
7, 126635, Note_on_c, 5, 73, 0
7, 126635, Note_on_c, 5, 71, 52
7, 126976, Note_on_c, 5, 79, 0
7, 126976, Note_on_c, 5, 81, 52
7, 126976, Note_on_c, 5, 71, 0
7, 126976, Note_on_c, 5, 69, 52
7, 127317, Note_on_c, 5, 69, 0
7, 127317, Note_on_c, 5, 71, 52
7, 127659, Note_on_c, 5, 71, 0
7, 127659, Note_on_c, 5, 67, 52
7, 127846, Note_on_c, 5, 81, 0
7, 128000, Note_on_c, 5, 67, 0
7, 128000, Note_on_c, 5, 74, 52
7, 128000, Note_on_c, 5, 66, 52
7, 128341, Note_on_c, 5, 66, 0
7, 128341, Note_on_c, 5, 64, 52
7, 128683, Note_on_c, 5, 64, 0
7, 128683, Note_on_c, 5, 66, 52
7, 129024, Note_on_c, 5, 66, 0
7, 129024, Note_on_c, 5, 67, 52
7, 129365, Note_on_c, 5, 74, 0
7, 129365, Note_on_c, 5, 73, 52
7, 129707, Note_on_c, 5, 73, 0
7, 129707, Note_on_c, 5, 74, 52
7, 130048, Note_on_c, 5, 74, 0
7, 130048, Note_on_c, 5, 76, 52
7, 130389, Note_on_c, 5, 67, 0
7, 130389, Note_on_c, 5, 66, 54
7, 130731, Note_on_c, 5, 66, 0
7, 130731, Note_on_c, 5, 67, 58
7, 131072, Note_on_c, 5, 67, 0
7, 131072, Note_on_c, 5, 69, 61
7, 131413, Note_on_c, 5, 76, 0
7, 131413, Note_on_c, 5, 74, 65
7, 131584, Note_on_c, 5, 69, 0
7, 131755, Note_on_c, 5, 74, 0
7, 131755, Note_on_c, 5, 76, 69
7, 132096, Note_on_c, 5, 76, 0
7, 132096, Note_on_c, 5, 78, 72
7, 132096, Note_on_c, 5, 69, 72
7, 132352, Note_on_c, 5, 78, 0
7, 132352, Note_on_c, 5, 69, 0
7, 133120, Note_on_c, 5, 74, 75
7, 133120, Note_on_c, 5, 66, 75
7, 133376, Note_on_c, 5, 74, 0
7, 133376, Note_on_c, 5, 66, 0
7, 134144, Note_on_c, 5, 80, 78
7, 134144, Note_on_c, 5, 76, 78
7, 134400, Note_on_c, 5, 80, 0
7, 134400, Note_on_c, 5, 76, 0
7, 135168, Note_on_c, 5, 76, 81
7, 135168, Note_on_c, 5, 73, 81
7, 135424, Note_on_c, 5, 76, 0
7, 135424, Note_on_c, 5, 73, 0
7, 136192, Note_on_c, 5, 81, 83
7, 136192, Note_on_c, 5, 78, 83
7, 136448, Note_on_c, 5, 81, 0
7, 136448, Note_on_c, 5, 78, 0
7, 137216, Note_on_c, 5, 78, 86
7, 137216, Note_on_c, 5, 74, 86
7, 137472, Note_on_c, 5, 78, 0
7, 137472, Note_on_c, 5, 74, 0
7, 138240, Note_on_c, 5, 83, 89
7, 138240, Note_on_c, 5, 74, 89
7, 138496, Note_on_c, 5, 83, 0
7, 138496, Note_on_c, 5, 74, 0
7, 139264, Note_on_c, 5, 76, 92
7, 139264, Note_on_c, 5, 71, 92
7, 139520, Note_on_c, 5, 76, 0
7, 139520, Note_on_c, 5, 71, 0
7, 140288, Note_on_c, 5, 81, 94
7, 140288, Note_on_c, 5, 76, 94
7, 140629, Note_on_c, 5, 81, 0
7, 140629, Note_on_c, 5, 83, 88
7, 140629, Note_on_c, 5, 76, 0
7, 140629, Note_on_c, 5, 80, 88
7, 140971, Note_on_c, 5, 83, 0
7, 140971, Note_on_c, 5, 85, 91
7, 140971, Note_on_c, 5, 80, 0
7, 140971, Note_on_c, 5, 81, 91
7, 141312, Note_on_c, 5, 85, 0
7, 141312, Note_on_c, 5, 81, 95
7, 141312, Note_on_c, 5, 76, 95
7, 141653, Note_on_c, 5, 81, 0
7, 141653, Note_on_c, 5, 83, 94
7, 141653, Note_on_c, 5, 76, 0
7, 141653, Note_on_c, 5, 80, 94
7, 141653, Note_on_c, 5, 81, 0
7, 141995, Note_on_c, 5, 83, 0
7, 141995, Note_on_c, 5, 85, 94
7, 141995, Note_on_c, 5, 80, 0
7, 141995, Note_on_c, 5, 81, 94
7, 142336, Note_on_c, 5, 85, 0
7, 142336, Note_on_c, 5, 81, 94
7, 142336, Note_on_c, 5, 76, 94
7, 142677, Note_on_c, 5, 81, 0
7, 142677, Note_on_c, 5, 83, 94
7, 142677, Note_on_c, 5, 76, 0
7, 142677, Note_on_c, 5, 80, 94
7, 142677, Note_on_c, 5, 81, 0
7, 143019, Note_on_c, 5, 83, 0
7, 143019, Note_on_c, 5, 85, 94
7, 143019, Note_on_c, 5, 80, 0
7, 143019, Note_on_c, 5, 81, 94
7, 143360, Note_on_c, 5, 85, 0
7, 143360, Note_on_c, 5, 81, 94
7, 143360, Note_on_c, 5, 76, 94
7, 143701, Note_on_c, 5, 81, 0
7, 143701, Note_on_c, 5, 83, 94
7, 143701, Note_on_c, 5, 76, 0
7, 143701, Note_on_c, 5, 80, 94
7, 143701, Note_on_c, 5, 81, 0
7, 144043, Note_on_c, 5, 83, 0
7, 144043, Note_on_c, 5, 85, 94
7, 144043, Note_on_c, 5, 80, 0
7, 144043, Note_on_c, 5, 81, 94
7, 144384, Note_on_c, 5, 85, 0
7, 144384, Note_on_c, 5, 81, 0
7, 144384, Note_on_c, 5, 81, 94
7, 144384, Note_on_c, 5, 78, 94
7, 144725, Note_on_c, 5, 81, 0
7, 144725, Note_on_c, 5, 83, 94
7, 144725, Note_on_c, 5, 78, 0
7, 144725, Note_on_c, 5, 80, 94
7, 145067, Note_on_c, 5, 83, 0
7, 145067, Note_on_c, 5, 85, 94
7, 145067, Note_on_c, 5, 80, 0
7, 145067, Note_on_c, 5, 81, 94
7, 145408, Note_on_c, 5, 85, 0
7, 145408, Note_on_c, 5, 81, 94
7, 145408, Note_on_c, 5, 78, 94
7, 145749, Note_on_c, 5, 81, 0
7, 145749, Note_on_c, 5, 83, 94
7, 145749, Note_on_c, 5, 78, 0
7, 145749, Note_on_c, 5, 80, 94
7, 145749, Note_on_c, 5, 81, 0
7, 146091, Note_on_c, 5, 83, 0
7, 146091, Note_on_c, 5, 85, 94
7, 146091, Note_on_c, 5, 80, 0
7, 146091, Note_on_c, 5, 81, 94
7, 146432, Note_on_c, 5, 85, 0
7, 146432, Note_on_c, 5, 85, 94
7, 146432, Note_on_c, 5, 81, 0
7, 146432, Note_on_c, 5, 80, 94
7, 147302, Note_on_c, 5, 85, 0
7, 147302, Note_on_c, 5, 80, 0
7, 148480, Note_on_c, 5, 69, 94
7, 148480, Note_on_c, 5, 66, 94
7, 149061, Note_on_c, 5, 69, 0
7, 149061, Note_on_c, 5, 66, 0
7, 149163, Note_on_c, 5, 66, 91
7, 149163, Note_on_c, 5, 61, 91
7, 149504, Note_on_c, 5, 66, 0
7, 149504, Note_on_c, 5, 69, 93
7, 149504, Note_on_c, 5, 61, 0
7, 149504, Note_on_c, 5, 66, 93
7, 150085, Note_on_c, 5, 69, 0
7, 150085, Note_on_c, 5, 66, 0
7, 150187, Note_on_c, 5, 66, 94
7, 150187, Note_on_c, 5, 61, 94
7, 150528, Note_on_c, 5, 66, 0
7, 150528, Note_on_c, 5, 73, 94
7, 150528, Note_on_c, 5, 61, 0
7, 150528, Note_on_c, 5, 69, 94
7, 151109, Note_on_c, 5, 73, 0
7, 151109, Note_on_c, 5, 69, 0
7, 151211, Note_on_c, 5, 69, 94
7, 151211, Note_on_c, 5, 66, 94
7, 151552, Note_on_c, 5, 69, 0
7, 151552, Note_on_c, 5, 73, 94
7, 151552, Note_on_c, 5, 66, 0
7, 151552, Note_on_c, 5, 69, 94
7, 152133, Note_on_c, 5, 73, 0
7, 152133, Note_on_c, 5, 69, 0
7, 152235, Note_on_c, 5, 69, 94
7, 152235, Note_on_c, 5, 66, 94
7, 152576, Note_on_c, 5, 69, 0
7, 152576, Note_on_c, 5, 66, 0
7, 152576, Note_on_c, 5, 74, 94
7, 152576, Note_on_c, 5, 69, 94
7, 153157, Note_on_c, 5, 74, 0
7, 153157, Note_on_c, 5, 69, 0
7, 153259, Note_on_c, 5, 69, 94
7, 153259, Note_on_c, 5, 66, 94
7, 153600, Note_on_c, 5, 69, 0
7, 153600, Note_on_c, 5, 74, 94
7, 153600, Note_on_c, 5, 66, 0
7, 153600, Note_on_c, 5, 69, 94
7, 154181, Note_on_c, 5, 74, 0
7, 154181, Note_on_c, 5, 69, 0
7, 154283, Note_on_c, 5, 69, 94
7, 154283, Note_on_c, 5, 66, 94
7, 154624, Note_on_c, 5, 69, 0
7, 154624, Note_on_c, 5, 76, 94
7, 154624, Note_on_c, 5, 66, 0
7, 154624, Note_on_c, 5, 69, 94
7, 154965, Note_on_c, 5, 76, 0
7, 154965, Note_on_c, 5, 83, 94
7, 154965, Note_on_c, 5, 69, 0
7, 154965, Note_on_c, 5, 79, 94
7, 155307, Note_on_c, 5, 83, 0
7, 155307, Note_on_c, 5, 81, 94
7, 155307, Note_on_c, 5, 79, 0
7, 155307, Note_on_c, 5, 78, 94
7, 155648, Note_on_c, 5, 81, 0
7, 155648, Note_on_c, 5, 79, 94
7, 155648, Note_on_c, 5, 78, 0
7, 155648, Note_on_c, 5, 76, 94
7, 155989, Note_on_c, 5, 79, 0
7, 155989, Note_on_c, 5, 78, 94
7, 155989, Note_on_c, 5, 76, 0
7, 155989, Note_on_c, 5, 74, 94
7, 156331, Note_on_c, 5, 78, 0
7, 156331, Note_on_c, 5, 76, 94
7, 156331, Note_on_c, 5, 74, 0
7, 156331, Note_on_c, 5, 76, 94
7, 156672, Note_on_c, 5, 76, 0
7, 156672, Note_on_c, 5, 76, 0
7, 156672, Note_on_c, 5, 74, 94
7, 156672, Note_on_c, 5, 69, 94
7, 157013, Note_on_c, 5, 74, 0
7, 157013, Note_on_c, 5, 76, 88
7, 157013, Note_on_c, 5, 69, 0
7, 157013, Note_on_c, 5, 73, 88
7, 157355, Note_on_c, 5, 76, 0
7, 157355, Note_on_c, 5, 78, 91
7, 157355, Note_on_c, 5, 73, 0
7, 157355, Note_on_c, 5, 74, 91
7, 157696, Note_on_c, 5, 78, 0
7, 157696, Note_on_c, 5, 74, 94
7, 157696, Note_on_c, 5, 69, 94
7, 158037, Note_on_c, 5, 74, 0
7, 158037, Note_on_c, 5, 76, 94
7, 158037, Note_on_c, 5, 69, 0
7, 158037, Note_on_c, 5, 73, 94
7, 158037, Note_on_c, 5, 74, 0
7, 158379, Note_on_c, 5, 76, 0
7, 158379, Note_on_c, 5, 78, 94
7, 158379, Note_on_c, 5, 73, 0
7, 158379, Note_on_c, 5, 74, 94
7, 158720, Note_on_c, 5, 78, 0
7, 158720, Note_on_c, 5, 74, 94
7, 158720, Note_on_c, 5, 69, 94
7, 159061, Note_on_c, 5, 74, 0
7, 159061, Note_on_c, 5, 76, 94
7, 159061, Note_on_c, 5, 69, 0
7, 159061, Note_on_c, 5, 73, 94
7, 159061, Note_on_c, 5, 74, 0
7, 159403, Note_on_c, 5, 76, 0
7, 159403, Note_on_c, 5, 78, 94
7, 159403, Note_on_c, 5, 73, 0
7, 159403, Note_on_c, 5, 74, 94
7, 159744, Note_on_c, 5, 78, 0
7, 159744, Note_on_c, 5, 74, 94
7, 159744, Note_on_c, 5, 69, 94
7, 160085, Note_on_c, 5, 74, 0
7, 160085, Note_on_c, 5, 76, 94
7, 160085, Note_on_c, 5, 69, 0
7, 160085, Note_on_c, 5, 73, 94
7, 160085, Note_on_c, 5, 74, 0
7, 160427, Note_on_c, 5, 76, 0
7, 160427, Note_on_c, 5, 78, 94
7, 160427, Note_on_c, 5, 73, 0
7, 160427, Note_on_c, 5, 74, 94
7, 160768, Note_on_c, 5, 78, 0
7, 160768, Note_on_c, 5, 74, 0
7, 160768, Note_on_c, 5, 74, 94
7, 160768, Note_on_c, 5, 71, 94
7, 161109, Note_on_c, 5, 74, 0
7, 161109, Note_on_c, 5, 76, 93
7, 161109, Note_on_c, 5, 71, 0
7, 161109, Note_on_c, 5, 73, 93
7, 161451, Note_on_c, 5, 76, 0
7, 161451, Note_on_c, 5, 78, 91
7, 161451, Note_on_c, 5, 73, 0
7, 161451, Note_on_c, 5, 74, 91
7, 161792, Note_on_c, 5, 78, 0
7, 161792, Note_on_c, 5, 74, 90
7, 161792, Note_on_c, 5, 71, 90
7, 162133, Note_on_c, 5, 74, 0
7, 162133, Note_on_c, 5, 76, 89
7, 162133, Note_on_c, 5, 71, 0
7, 162133, Note_on_c, 5, 73, 89
7, 162133, Note_on_c, 5, 74, 0
7, 162475, Note_on_c, 5, 76, 0
7, 162475, Note_on_c, 5, 78, 87
7, 162475, Note_on_c, 5, 73, 0
7, 162475, Note_on_c, 5, 74, 87
7, 162816, Note_on_c, 5, 78, 0
7, 162816, Note_on_c, 5, 78, 84
7, 162816, Note_on_c, 5, 74, 0
7, 162816, Note_on_c, 5, 73, 84
7, 163686, Note_on_c, 5, 78, 0
7, 163686, Note_on_c, 5, 73, 0
7, 168960, Note_on_c, 5, 80, 58
7, 168960, Note_on_c, 5, 76, 58
7, 173056, Note_on_c, 5, 80, 0
7, 173056, Note_on_c, 5, 79, 58
7, 177152, Note_on_c, 5, 79, 0
7, 177152, Note_on_c, 5, 76, 0
7, 177152, Note_on_c, 5, 78, 64
7, 177152, Note_on_c, 5, 74, 64
7, 177493, Note_on_c, 5, 78, 0
7, 177493, Note_on_c, 5, 76, 59
7, 177493, Note_on_c, 5, 74, 0
7, 177493, Note_on_c, 5, 76, 59
7, 177835, Note_on_c, 5, 76, 0
7, 177835, Note_on_c, 5, 78, 61
7, 177835, Note_on_c, 5, 76, 0
7, 177835, Note_on_c, 5, 74, 61
7, 178176, Note_on_c, 5, 78, 0
7, 178176, Note_on_c, 5, 86, 62
7, 178176, Note_on_c, 5, 74, 0
7, 178176, Note_on_c, 5, 74, 62
7, 178517, Note_on_c, 5, 74, 0
7, 178517, Note_on_c, 5, 73, 63
7, 178757, Note_on_c, 5, 86, 0
7, 178859, Note_on_c, 5, 78, 64
7, 178859, Note_on_c, 5, 73, 0
7, 178859, Note_on_c, 5, 74, 64
7, 179200, Note_on_c, 5, 78, 0
7, 179200, Note_on_c, 5, 77, 66
7, 179200, Note_on_c, 5, 74, 0
7, 179200, Note_on_c, 5, 73, 66
7, 179541, Note_on_c, 5, 77, 0
7, 179541, Note_on_c, 5, 78, 67
7, 179883, Note_on_c, 5, 78, 0
7, 179883, Note_on_c, 5, 80, 68
7, 180224, Note_on_c, 5, 80, 0
7, 180224, Note_on_c, 5, 73, 69
7, 180565, Note_on_c, 5, 73, 0
7, 180565, Note_on_c, 5, 74, 70
7, 180805, Note_on_c, 5, 73, 0
7, 180907, Note_on_c, 5, 78, 72
7, 180907, Note_on_c, 5, 74, 0
7, 180907, Note_on_c, 5, 73, 72
7, 181248, Note_on_c, 5, 78, 0
7, 181248, Note_on_c, 5, 73, 0
7, 181248, Note_on_c, 5, 74, 73
7, 181248, Note_on_c, 5, 71, 73
7, 181589, Note_on_c, 5, 74, 0
7, 181589, Note_on_c, 5, 73, 74
7, 181589, Note_on_c, 5, 71, 0
7, 181589, Note_on_c, 5, 73, 74
7, 181931, Note_on_c, 5, 73, 0
7, 181931, Note_on_c, 5, 74, 75
7, 181931, Note_on_c, 5, 73, 0
7, 181931, Note_on_c, 5, 71, 75
7, 182272, Note_on_c, 5, 74, 0
7, 182272, Note_on_c, 5, 83, 76
7, 182272, Note_on_c, 5, 71, 0
7, 182272, Note_on_c, 5, 71, 76
7, 182613, Note_on_c, 5, 71, 0
7, 182613, Note_on_c, 5, 69, 78
7, 182853, Note_on_c, 5, 83, 0
7, 182955, Note_on_c, 5, 74, 79
7, 182955, Note_on_c, 5, 69, 0
7, 182955, Note_on_c, 5, 71, 79
7, 183296, Note_on_c, 5, 74, 0
7, 183296, Note_on_c, 5, 73, 80
7, 183296, Note_on_c, 5, 71, 0
7, 183296, Note_on_c, 5, 69, 80
7, 183637, Note_on_c, 5, 73, 0
7, 183637, Note_on_c, 5, 74, 81
7, 183979, Note_on_c, 5, 74, 0
7, 183979, Note_on_c, 5, 76, 83
7, 184320, Note_on_c, 5, 76, 0
7, 184320, Note_on_c, 5, 69, 84
7, 184661, Note_on_c, 5, 69, 0
7, 184661, Note_on_c, 5, 71, 85
7, 184901, Note_on_c, 5, 69, 0
7, 185003, Note_on_c, 5, 74, 86
7, 185003, Note_on_c, 5, 71, 0
7, 185003, Note_on_c, 5, 69, 86
7, 185344, Note_on_c, 5, 74, 0
7, 185344, Note_on_c, 5, 69, 0
7, 185344, Note_on_c, 5, 71, 87
7, 185344, Note_on_c, 5, 68, 87
7, 185685, Note_on_c, 5, 71, 0
7, 185685, Note_on_c, 5, 69, 88
7, 185685, Note_on_c, 5, 68, 0
7, 185685, Note_on_c, 5, 69, 88
7, 186027, Note_on_c, 5, 69, 0
7, 186027, Note_on_c, 5, 71, 89
7, 186027, Note_on_c, 5, 69, 0
7, 186027, Note_on_c, 5, 68, 89
7, 186368, Note_on_c, 5, 71, 0
7, 186368, Note_on_c, 5, 80, 90
7, 186368, Note_on_c, 5, 68, 0
7, 186368, Note_on_c, 5, 68, 90
7, 186949, Note_on_c, 5, 80, 0
7, 186949, Note_on_c, 5, 68, 0
7, 187051, Note_on_c, 5, 71, 91
7, 187051, Note_on_c, 5, 61, 91
7, 187392, Note_on_c, 5, 71, 0
7, 187392, Note_on_c, 5, 69, 92
7, 187392, Note_on_c, 5, 61, 0
7, 187392, Note_on_c, 5, 66, 92
7, 187973, Note_on_c, 5, 69, 0
7, 188075, Note_on_c, 5, 78, 93
7, 188262, Note_on_c, 5, 66, 0
7, 188416, Note_on_c, 5, 78, 0
7, 188416, Note_on_c, 5, 77, 94
7, 188416, Note_on_c, 5, 74, 94
7, 188757, Note_on_c, 5, 77, 0
7, 188757, Note_on_c, 5, 78, 95
7, 189099, Note_on_c, 5, 78, 0
7, 189099, Note_on_c, 5, 80, 95
7, 189286, Note_on_c, 5, 74, 0
7, 189440, Note_on_c, 5, 80, 0
7, 189440, Note_on_c, 5, 80, 96
7, 189440, Note_on_c, 5, 73, 96
7, 189781, Note_on_c, 5, 80, 0
7, 189781, Note_on_c, 5, 81, 97
7, 190123, Note_on_c, 5, 81, 0
7, 190123, Note_on_c, 5, 83, 97
7, 190464, Note_on_c, 5, 83, 0
7, 190464, Note_on_c, 5, 81, 98
7, 190805, Note_on_c, 5, 81, 0
7, 190805, Note_on_c, 5, 83, 99
7, 190805, Note_on_c, 5, 73, 0
7, 190805, Note_on_c, 5, 74, 99
7, 191147, Note_on_c, 5, 83, 0
7, 191147, Note_on_c, 5, 80, 99
7, 191147, Note_on_c, 5, 74, 0
7, 191147, Note_on_c, 5, 71, 99
7, 191488, Note_on_c, 5, 80, 0
7, 191488, Note_on_c, 5, 81, 100
7, 191488, Note_on_c, 5, 71, 0
7, 191488, Note_on_c, 5, 73, 100
7, 191616, Note_on_c, 5, 81, 0
7, 191616, Note_on_c, 5, 80, 100
7, 191744, Note_on_c, 5, 80, 0
7, 191744, Note_on_c, 5, 81, 100
7, 191872, Note_on_c, 5, 81, 0
7, 191872, Note_on_c, 5, 80, 100
7, 192000, Note_on_c, 5, 80, 0
7, 192000, Note_on_c, 5, 81, 100
7, 192128, Note_on_c, 5, 81, 0
7, 192128, Note_on_c, 5, 80, 100
7, 192256, Note_on_c, 5, 80, 0
7, 192256, Note_on_c, 5, 81, 100
7, 192384, Note_on_c, 5, 81, 0
7, 192384, Note_on_c, 5, 80, 100
7, 192512, Note_on_c, 5, 80, 0
7, 192512, Note_on_c, 5, 81, 100
7, 192640, Note_on_c, 5, 81, 0
7, 192640, Note_on_c, 5, 80, 100
7, 192768, Note_on_c, 5, 80, 0
7, 192768, Note_on_c, 5, 81, 100
7, 192896, Note_on_c, 5, 81, 0
7, 192896, Note_on_c, 5, 80, 100
7, 193024, Note_on_c, 5, 80, 0
7, 193024, Note_on_c, 5, 78, 100
7, 193024, Note_on_c, 5, 73, 0
7, 193024, Note_on_c, 5, 73, 100
7, 193280, Note_on_c, 5, 78, 0
7, 193280, Note_on_c, 5, 73, 0
7, 193536, Note_on_c, 5, 78, 100
7, 193536, Note_on_c, 5, 73, 100
7, 193792, Note_on_c, 5, 78, 0
7, 193792, Note_on_c, 5, 73, 0
7, 230912, Note_on_c, 5, 69, 89
7, 230912, Note_on_c, 5, 73, 89
7, 231168, Note_on_c, 5, 69, 0
7, 231168, Note_on_c, 5, 68, 89
7, 231168, Note_on_c, 5, 73, 0
7, 231424, Note_on_c, 5, 68, 0
7, 231424, Note_on_c, 5, 69, 89
7, 231424, Note_on_c, 5, 76, 89
7, 231680, Note_on_c, 5, 69, 0
7, 231680, Note_on_c, 5, 71, 89
7, 231680, Note_on_c, 5, 76, 0
7, 231936, Note_on_c, 5, 71, 0
7, 231936, Note_on_c, 5, 73, 89
7, 231936, Note_on_c, 5, 69, 89
7, 232192, Note_on_c, 5, 73, 0
7, 232192, Note_on_c, 5, 74, 89
7, 232192, Note_on_c, 5, 69, 0
7, 232192, Note_on_c, 5, 71, 89
7, 232448, Note_on_c, 5, 74, 0
7, 232448, Note_on_c, 5, 76, 89
7, 232448, Note_on_c, 5, 71, 0
7, 232448, Note_on_c, 5, 73, 89
7, 232704, Note_on_c, 5, 76, 0
7, 232704, Note_on_c, 5, 74, 89
7, 232704, Note_on_c, 5, 73, 0
7, 232704, Note_on_c, 5, 71, 89
7, 232960, Note_on_c, 5, 74, 0
7, 232960, Note_on_c, 5, 73, 89
7, 232960, Note_on_c, 5, 71, 0
7, 232960, Note_on_c, 5, 69, 89
7, 233216, Note_on_c, 5, 73, 0
7, 233216, Note_on_c, 5, 76, 89
7, 233216, Note_on_c, 5, 69, 0
7, 233216, Note_on_c, 5, 73, 89
7, 233472, Note_on_c, 5, 76, 0
7, 233472, Note_on_c, 5, 73, 0
7, 233472, Note_on_c, 5, 74, 89
7, 233472, Note_on_c, 5, 71, 89
7, 233728, Note_on_c, 5, 74, 0
7, 233728, Note_on_c, 5, 71, 0
7, 233984, Note_on_c, 5, 74, 89
7, 233984, Note_on_c, 5, 71, 89
7, 234240, Note_on_c, 5, 74, 0
7, 234240, Note_on_c, 5, 71, 0
7, 234496, Note_on_c, 5, 74, 89
7, 234496, Note_on_c, 5, 71, 89
7, 234752, Note_on_c, 5, 71, 0
7, 235008, Note_on_c, 5, 71, 89
7, 235264, Note_on_c, 5, 74, 0
7, 235264, Note_on_c, 5, 71, 89
7, 235520, Note_on_c, 5, 71, 0
7, 235520, Note_on_c, 5, 76, 89
7, 235520, Note_on_c, 5, 59, 89
7, 235520, Note_on_c, 5, 71, 0
7, 235776, Note_on_c, 5, 76, 0
7, 235776, Note_on_c, 5, 59, 0
7, 236032, Note_on_c, 5, 76, 89
7, 236032, Note_on_c, 5, 64, 89
7, 236288, Note_on_c, 5, 64, 0
7, 236288, Note_on_c, 5, 66, 89
7, 236544, Note_on_c, 5, 66, 0
7, 236544, Note_on_c, 5, 67, 89
7, 236800, Note_on_c, 5, 76, 0
7, 236800, Note_on_c, 5, 73, 89
7, 236800, Note_on_c, 5, 67, 0
7, 236800, Note_on_c, 5, 64, 89
7, 237056, Note_on_c, 5, 73, 0
7, 237056, Note_on_c, 5, 74, 89
7, 237056, Note_on_c, 5, 64, 0
7, 237056, Note_on_c, 5, 66, 89
7, 237312, Note_on_c, 5, 74, 0
7, 237312, Note_on_c, 5, 76, 89
7, 237312, Note_on_c, 5, 66, 0
7, 237312, Note_on_c, 5, 67, 89
7, 237568, Note_on_c, 5, 76, 0
7, 237568, Note_on_c, 5, 74, 89
7, 237568, Note_on_c, 5, 67, 0
7, 237568, Note_on_c, 5, 69, 89
7, 237824, Note_on_c, 5, 74, 0
7, 237824, Note_on_c, 5, 76, 89
7, 237824, Note_on_c, 5, 69, 0
7, 238080, Note_on_c, 5, 76, 0
7, 238080, Note_on_c, 5, 78, 89
7, 238080, Note_on_c, 5, 62, 89
7, 238336, Note_on_c, 5, 78, 0
7, 238336, Note_on_c, 5, 76, 89
7, 238336, Note_on_c, 5, 62, 0
7, 238592, Note_on_c, 5, 76, 0
7, 238592, Note_on_c, 5, 76, 89
7, 238592, Note_on_c, 5, 64, 89
7, 238720, Note_on_c, 5, 76, 0
7, 238720, Note_on_c, 5, 78, 89
7, 238848, Note_on_c, 5, 78, 0
7, 238848, Note_on_c, 5, 76, 89
7, 238848, Note_on_c, 5, 64, 0
7, 238976, Note_on_c, 5, 76, 0
7, 238976, Note_on_c, 5, 78, 89
7, 239104, Note_on_c, 5, 78, 0
7, 239104, Note_on_c, 5, 76, 89
7, 239104, Note_on_c, 5, 69, 89
7, 239232, Note_on_c, 5, 76, 0
7, 239232, Note_on_c, 5, 78, 89
7, 239360, Note_on_c, 5, 78, 0
7, 239360, Note_on_c, 5, 76, 89
7, 239360, Note_on_c, 5, 69, 0
7, 239488, Note_on_c, 5, 76, 0
7, 239488, Note_on_c, 5, 78, 89
7, 239616, Note_on_c, 5, 78, 0
7, 239616, Note_on_c, 5, 76, 89
7, 239616, Note_on_c, 5, 69, 89
7, 239872, Note_on_c, 5, 76, 0
7, 239872, Note_on_c, 5, 69, 0
7, 240128, Note_on_c, 5, 74, 86
7, 240128, Note_on_c, 5, 57, 86
7, 240384, Note_on_c, 5, 74, 0
7, 240384, Note_on_c, 5, 57, 0
7, 245760, Note_on_c, 5, 73, 82
7, 245760, Note_on_c, 5, 61, 82
7, 246016, Note_on_c, 5, 73, 0
7, 246016, Note_on_c, 5, 61, 0
7, 246272, Note_on_c, 5, 69, 82
7, 246272, Note_on_c, 5, 64, 82
7, 246528, Note_on_c, 5, 69, 0
7, 246528, Note_on_c, 5, 64, 0
7, 246784, Note_on_c, 5, 64, 82
7, 246784, Note_on_c, 5, 69, 82
7, 247040, Note_on_c, 5, 64, 0
7, 247040, Note_on_c, 5, 69, 0
7, 247296, Note_on_c, 5, 64, 82
7, 247296, Note_on_c, 5, 71, 82
7, 247552, Note_on_c, 5, 64, 0
7, 247552, Note_on_c, 5, 71, 0
7, 247808, Note_on_c, 5, 71, 82
7, 247808, Note_on_c, 5, 67, 82
7, 248064, Note_on_c, 5, 71, 0
7, 248064, Note_on_c, 5, 67, 0
7, 254976, Note_on_c, 5, 71, 82
7, 254976, Note_on_c, 5, 67, 82
7, 255232, Note_on_c, 5, 71, 0
7, 255232, Note_on_c, 5, 67, 0
7, 255488, Note_on_c, 5, 79, 82
7, 255488, Note_on_c, 5, 71, 82
7, 255744, Note_on_c, 5, 79, 0
7, 255744, Note_on_c, 5, 71, 0
7, 256000, Note_on_c, 5, 79, 82
7, 256000, Note_on_c, 5, 76, 82
7, 256768, Note_on_c, 5, 79, 0
7, 257024, Note_on_c, 5, 78, 82
7, 257024, Note_on_c, 5, 76, 0
7, 257024, Note_on_c, 5, 69, 82
7, 257280, Note_on_c, 5, 78, 0
7, 257280, Note_on_c, 5, 76, 82
7, 257280, Note_on_c, 5, 69, 0
7, 257280, Note_on_c, 5, 71, 82
7, 257536, Note_on_c, 5, 76, 0
7, 257536, Note_on_c, 5, 78, 82
7, 257536, Note_on_c, 5, 71, 0
7, 257536, Note_on_c, 5, 72, 82
7, 257792, Note_on_c, 5, 78, 0
7, 257792, Note_on_c, 5, 79, 82
7, 258048, Note_on_c, 5, 79, 0
7, 258048, Note_on_c, 5, 81, 82
7, 258560, Note_on_c, 5, 81, 0
7, 258560, Note_on_c, 5, 78, 82
7, 258560, Note_on_c, 5, 72, 0
7, 258560, Note_on_c, 5, 69, 82
7, 258816, Note_on_c, 5, 78, 0
7, 258816, Note_on_c, 5, 69, 0
7, 259072, Note_on_c, 5, 78, 82
7, 259072, Note_on_c, 5, 69, 82
7, 259328, Note_on_c, 5, 78, 0
7, 259328, Note_on_c, 5, 69, 0
7, 259584, Note_on_c, 5, 78, 82
7, 259584, Note_on_c, 5, 78, 82
7, 260352, Note_on_c, 5, 78, 0
7, 260352, Note_on_c, 5, 79, 82
7, 260352, Note_on_c, 5, 78, 0
7, 260352, Note_on_c, 5, 75, 82
7, 260608, Note_on_c, 5, 79, 0
7, 260608, Note_on_c, 5, 76, 82
7, 260608, Note_on_c, 5, 75, 0
7, 260608, Note_on_c, 5, 76, 82
7, 260864, Note_on_c, 5, 76, 0
7, 260864, Note_on_c, 5, 75, 83
7, 260864, Note_on_c, 5, 76, 0
7, 260864, Note_on_c, 5, 69, 83
7, 261120, Note_on_c, 5, 75, 0
7, 261120, Note_on_c, 5, 69, 0
7, 261120, Note_on_c, 5, 76, 84
7, 261120, Note_on_c, 5, 67, 84
7, 261376, Note_on_c, 5, 76, 0
7, 261376, Note_on_c, 5, 67, 0
7, 261376, Note_on_c, 5, 66, 85
7, 261632, Note_on_c, 5, 83, 87
7, 261632, Note_on_c, 5, 66, 0
7, 261632, Note_on_c, 5, 71, 87
7, 261888, Note_on_c, 5, 83, 0
7, 261888, Note_on_c, 5, 71, 0
7, 262144, Note_on_c, 5, 81, 89
7, 262144, Note_on_c, 5, 78, 89
7, 262400, Note_on_c, 5, 81, 0
7, 262400, Note_on_c, 5, 78, 0
7, 262656, Note_on_c, 5, 79, 95
7, 262656, Note_on_c, 5, 76, 95
7, 262912, Note_on_c, 5, 79, 0
7, 262912, Note_on_c, 5, 76, 0
7, 264192, Note_on_c, 5, 79, 48
7, 264192, Note_on_c, 5, 76, 48
7, 264448, Note_on_c, 5, 79, 0
7, 264448, Note_on_c, 5, 76, 0
7, 265728, Note_on_c, 5, 78, 48
7, 265728, Note_on_c, 5, 74, 48
7, 265984, Note_on_c, 5, 78, 0
7, 265984, Note_on_c, 5, 74, 0
7, 267264, Note_on_c, 5, 78, 48
7, 267264, Note_on_c, 5, 74, 48
7, 267520, Note_on_c, 5, 78, 0
7, 267520, Note_on_c, 5, 74, 0
7, 268800, Note_on_c, 5, 76, 48
7, 268800, Note_on_c, 5, 73, 48
7, 269056, Note_on_c, 5, 76, 0
7, 269056, Note_on_c, 5, 73, 0
7, 270336, Note_on_c, 5, 76, 64
7, 270336, Note_on_c, 5, 73, 64
7, 270592, Note_on_c, 5, 76, 0
7, 270592, Note_on_c, 5, 79, 64
7, 270592, Note_on_c, 5, 73, 0
7, 270592, Note_on_c, 5, 74, 64
7, 270848, Note_on_c, 5, 79, 0
7, 270848, Note_on_c, 5, 78, 64
7, 270848, Note_on_c, 5, 74, 0
7, 270848, Note_on_c, 5, 73, 64
7, 271104, Note_on_c, 5, 78, 0
7, 271104, Note_on_c, 5, 76, 64
7, 271104, Note_on_c, 5, 73, 0
7, 271104, Note_on_c, 5, 71, 64
7, 271360, Note_on_c, 5, 76, 0
7, 271360, Note_on_c, 5, 78, 64
7, 271360, Note_on_c, 5, 71, 0
7, 271360, Note_on_c, 5, 70, 64
7, 271616, Note_on_c, 5, 78, 0
7, 271616, Note_on_c, 5, 73, 64
7, 271616, Note_on_c, 5, 70, 0
7, 271616, Note_on_c, 5, 73, 64
7, 271872, Note_on_c, 5, 73, 0
7, 271872, Note_on_c, 5, 73, 0
7, 271872, Note_on_c, 5, 74, 64
7, 271872, Note_on_c, 5, 71, 64
7, 273664, Note_on_c, 5, 74, 0
7, 273664, Note_on_c, 5, 71, 0
7, 273920, Note_on_c, 5, 73, 64
7, 273920, Note_on_c, 5, 73, 64
7, 274176, Note_on_c, 5, 73, 0
7, 274176, Note_on_c, 5, 71, 64
7, 274176, Note_on_c, 5, 73, 0
7, 274176, Note_on_c, 5, 74, 64
7, 274432, Note_on_c, 5, 71, 0
7, 274432, Note_on_c, 5, 73, 64
7, 274432, Note_on_c, 5, 74, 0
7, 274432, Note_on_c, 5, 76, 64
7, 274688, Note_on_c, 5, 73, 0
7, 274688, Note_on_c, 5, 76, 0
7, 274688, Note_on_c, 5, 78, 64
7, 274944, Note_on_c, 5, 78, 0
7, 274944, Note_on_c, 5, 73, 64
7, 274944, Note_on_c, 5, 79, 64
7, 275200, Note_on_c, 5, 79, 0
7, 275200, Note_on_c, 5, 81, 64
7, 275456, Note_on_c, 5, 81, 0
7, 275456, Note_on_c, 5, 79, 64
7, 275712, Note_on_c, 5, 79, 0
7, 275712, Note_on_c, 5, 78, 64
7, 275968, Note_on_c, 5, 78, 0
7, 275968, Note_on_c, 5, 76, 64
7, 276224, Note_on_c, 5, 76, 0
7, 276224, Note_on_c, 5, 74, 64
7, 276480, Note_on_c, 5, 74, 0
7, 276480, Note_on_c, 5, 73, 64
7, 276736, Note_on_c, 5, 73, 0
7, 276736, Note_on_c, 5, 70, 64
7, 276736, Note_on_c, 5, 73, 0
7, 276992, Note_on_c, 5, 70, 0
7, 276992, Note_on_c, 5, 71, 64
7, 276992, Note_on_c, 5, 70, 64
7, 277248, Note_on_c, 5, 71, 0
7, 277248, Note_on_c, 5, 73, 64
7, 277248, Note_on_c, 5, 70, 0
7, 277504, Note_on_c, 5, 73, 0
7, 277504, Note_on_c, 5, 74, 64
7, 277504, Note_on_c, 5, 66, 64
7, 277760, Note_on_c, 5, 74, 0
7, 277760, Note_on_c, 5, 73, 64
7, 277760, Note_on_c, 5, 66, 0
7, 278016, Note_on_c, 5, 73, 0
7, 278016, Note_on_c, 5, 74, 64
7, 278016, Note_on_c, 5, 71, 64
7, 278272, Note_on_c, 5, 74, 0
7, 278272, Note_on_c, 5, 71, 64
7, 278528, Note_on_c, 5, 71, 0
7, 278528, Note_on_c, 5, 78, 64
7, 278528, Note_on_c, 5, 71, 0
7, 278528, Note_on_c, 5, 66, 64
7, 278784, Note_on_c, 5, 78, 0
7, 279040, Note_on_c, 5, 76, 64
7, 279296, Note_on_c, 5, 76, 0
7, 279552, Note_on_c, 5, 66, 0
7, 279552, Note_on_c, 5, 74, 64
7, 279552, Note_on_c, 5, 66, 64
7, 279808, Note_on_c, 5, 74, 0
7, 279808, Note_on_c, 5, 66, 0
7, 285696, Note_on_c, 5, 66, 39
7, 285696, Note_on_c, 5, 61, 39
7, 285952, Note_on_c, 5, 66, 0
7, 285952, Note_on_c, 5, 61, 0
7, 286208, Note_on_c, 5, 73, 42
7, 286208, Note_on_c, 5, 70, 42
7, 286464, Note_on_c, 5, 73, 0
7, 286464, Note_on_c, 5, 70, 0
7, 286720, Note_on_c, 5, 78, 45
7, 286720, Note_on_c, 5, 73, 45
7, 286976, Note_on_c, 5, 78, 0
7, 286976, Note_on_c, 5, 73, 0
7, 287232, Note_on_c, 5, 74, 49
7, 287232, Note_on_c, 5, 71, 49
7, 287488, Note_on_c, 5, 74, 0
7, 287488, Note_on_c, 5, 71, 0
7, 287744, Note_on_c, 5, 71, 52
7, 287744, Note_on_c, 5, 66, 52
7, 288000, Note_on_c, 5, 71, 0
7, 288000, Note_on_c, 5, 66, 0
7, 289792, Note_on_c, 5, 73, 65
7, 289792, Note_on_c, 5, 69, 65
7, 290048, Note_on_c, 5, 73, 0
7, 290048, Note_on_c, 5, 69, 0
7, 290304, Note_on_c, 5, 74, 68
7, 290304, Note_on_c, 5, 69, 68
7, 290560, Note_on_c, 5, 74, 0
7, 290560, Note_on_c, 5, 69, 0
7, 291328, Note_on_c, 5, 76, 75
7, 291328, Note_on_c, 5, 73, 75
7, 291584, Note_on_c, 5, 76, 0
7, 291584, Note_on_c, 5, 73, 0
7, 291840, Note_on_c, 5, 78, 78
7, 291840, Note_on_c, 5, 74, 78
7, 292096, Note_on_c, 5, 78, 0
7, 292096, Note_on_c, 5, 74, 0
7, 292864, Note_on_c, 5, 81, 85
7, 292864, Note_on_c, 5, 78, 85
7, 293120, Note_on_c, 5, 81, 0
7, 293120, Note_on_c, 5, 78, 0
7, 293376, Note_on_c, 5, 85, 88
7, 293376, Note_on_c, 5, 81, 88
7, 293632, Note_on_c, 5, 85, 0
7, 293632, Note_on_c, 5, 81, 0
7, 294400, Note_on_c, 5, 85, 88
7, 294400, Note_on_c, 5, 81, 88
7, 294656, Note_on_c, 5, 85, 0
7, 294656, Note_on_c, 5, 81, 0
7, 294912, Note_on_c, 5, 86, 88
7, 294912, Note_on_c, 5, 81, 88
7, 295168, Note_on_c, 5, 86, 0
7, 295168, Note_on_c, 5, 81, 0
7, 295936, Note_on_c, 5, 81, 88
7, 295936, Note_on_c, 5, 78, 88
7, 296192, Note_on_c, 5, 81, 0
7, 296192, Note_on_c, 5, 78, 0
7, 296448, Note_on_c, 5, 83, 88
7, 296448, Note_on_c, 5, 79, 88
7, 296704, Note_on_c, 5, 83, 0
7, 296704, Note_on_c, 5, 79, 0
7, 296960, Note_on_c, 5, 79, 88
7, 296960, Note_on_c, 5, 71, 88
7, 297216, Note_on_c, 5, 79, 0
7, 297216, Note_on_c, 5, 78, 88
7, 297216, Note_on_c, 5, 71, 0
7, 297472, Note_on_c, 5, 78, 0
7, 297472, Note_on_c, 5, 79, 88
7, 297472, Note_on_c, 5, 71, 88
7, 297728, Note_on_c, 5, 79, 0
7, 297728, Note_on_c, 5, 81, 88
7, 297728, Note_on_c, 5, 71, 0
7, 297984, Note_on_c, 5, 81, 0
7, 297984, Note_on_c, 5, 83, 88
7, 297984, Note_on_c, 5, 71, 88
7, 298240, Note_on_c, 5, 83, 0
7, 298240, Note_on_c, 5, 84, 88
7, 298240, Note_on_c, 5, 71, 0
7, 298240, Note_on_c, 5, 69, 88
7, 298496, Note_on_c, 5, 84, 0
7, 298496, Note_on_c, 5, 83, 89
7, 298496, Note_on_c, 5, 69, 0
7, 298496, Note_on_c, 5, 67, 89
7, 298752, Note_on_c, 5, 83, 0
7, 298752, Note_on_c, 5, 81, 89
7, 298752, Note_on_c, 5, 67, 0
7, 298752, Note_on_c, 5, 69, 89
7, 299008, Note_on_c, 5, 81, 0
7, 299008, Note_on_c, 5, 79, 90
7, 299008, Note_on_c, 5, 69, 0
7, 299008, Note_on_c, 5, 71, 90
7, 299264, Note_on_c, 5, 79, 0
7, 299264, Note_on_c, 5, 78, 91
7, 299264, Note_on_c, 5, 71, 0
7, 299520, Note_on_c, 5, 78, 0
7, 299520, Note_on_c, 5, 76, 92
7, 299520, Note_on_c, 5, 73, 92
7, 299776, Note_on_c, 5, 76, 0
7, 299776, Note_on_c, 5, 73, 93
7, 299776, Note_on_c, 5, 73, 0
7, 300032, Note_on_c, 5, 73, 0
7, 300032, Note_on_c, 5, 74, 93
7, 300288, Note_on_c, 5, 74, 0
7, 300288, Note_on_c, 5, 76, 94
7, 300544, Note_on_c, 5, 76, 0
7, 300544, Note_on_c, 5, 78, 95
7, 300544, Note_on_c, 5, 71, 95
7, 301312, Note_on_c, 5, 78, 0
7, 301312, Note_on_c, 5, 83, 97
7, 301312, Note_on_c, 5, 71, 0
7, 301568, Note_on_c, 5, 83, 0
7, 301568, Note_on_c, 5, 76, 98
7, 301568, Note_on_c, 5, 73, 98
7, 301824, Note_on_c, 5, 76, 0
7, 301824, Note_on_c, 5, 78, 99
7, 302080, Note_on_c, 5, 78, 0
7, 302080, Note_on_c, 5, 79, 100
7, 302080, Note_on_c, 5, 73, 0
7, 302080, Note_on_c, 5, 73, 100
7, 302336, Note_on_c, 5, 79, 0
7, 302336, Note_on_c, 5, 81, 100
7, 302336, Note_on_c, 5, 73, 0
7, 302592, Note_on_c, 5, 81, 0
7, 302592, Note_on_c, 5, 78, 49
7, 302592, Note_on_c, 5, 69, 49
7, 302848, Note_on_c, 5, 78, 0
7, 302848, Note_on_c, 5, 79, 44
7, 302848, Note_on_c, 5, 69, 0
7, 303104, Note_on_c, 5, 79, 0
7, 303104, Note_on_c, 5, 81, 44
7, 303360, Note_on_c, 5, 81, 0
7, 303360, Note_on_c, 5, 83, 44
7, 303616, Note_on_c, 5, 83, 0
7, 303616, Note_on_c, 5, 81, 44
7, 303872, Note_on_c, 5, 81, 0
7, 303872, Note_on_c, 5, 79, 44
7, 304128, Note_on_c, 5, 79, 0
7, 304128, Note_on_c, 5, 78, 44
7, 304384, Note_on_c, 5, 78, 0
7, 304384, Note_on_c, 5, 76, 44
7, 304640, Note_on_c, 5, 76, 0
7, 304640, Note_on_c, 5, 74, 44
7, 304896, Note_on_c, 5, 74, 0
7, 304896, Note_on_c, 5, 76, 44
7, 305152, Note_on_c, 5, 76, 0
7, 305152, Note_on_c, 5, 78, 44
7, 305408, Note_on_c, 5, 78, 0
7, 305408, Note_on_c, 5, 74, 44
7, 305664, Note_on_c, 5, 74, 0
7, 305664, Note_on_c, 5, 76, 44
7, 305920, Note_on_c, 5, 76, 0
7, 305920, Note_on_c, 5, 78, 44
7, 306176, Note_on_c, 5, 78, 0
7, 306176, Note_on_c, 5, 79, 44
7, 306432, Note_on_c, 5, 79, 0
7, 306432, Note_on_c, 5, 81, 44
7, 306688, Note_on_c, 5, 81, 0
7, 306688, Note_on_c, 5, 79, 44
7, 306944, Note_on_c, 5, 79, 0
7, 306944, Note_on_c, 5, 78, 44
7, 307200, Note_on_c, 5, 78, 0
7, 307200, Note_on_c, 5, 76, 44
7, 307456, Note_on_c, 5, 76, 0
7, 307456, Note_on_c, 5, 74, 44
7, 307712, Note_on_c, 5, 74, 0
7, 307712, Note_on_c, 5, 73, 45
7, 307968, Note_on_c, 5, 73, 0
7, 307968, Note_on_c, 5, 74, 45
7, 308224, Note_on_c, 5, 74, 0
7, 308224, Note_on_c, 5, 76, 46
7, 308480, Note_on_c, 5, 76, 0
7, 308480, Note_on_c, 5, 73, 46
7, 308736, Note_on_c, 5, 73, 0
7, 308736, Note_on_c, 5, 74, 47
7, 308992, Note_on_c, 5, 74, 0
7, 308992, Note_on_c, 5, 76, 47
7, 309248, Note_on_c, 5, 76, 0
7, 309248, Note_on_c, 5, 78, 48
7, 309504, Note_on_c, 5, 78, 0
7, 309504, Note_on_c, 5, 79, 48
7, 309760, Note_on_c, 5, 79, 0
7, 309760, Note_on_c, 5, 76, 49
7, 310016, Note_on_c, 5, 76, 0
7, 310016, Note_on_c, 5, 74, 49
7, 310272, Note_on_c, 5, 74, 0
7, 310272, Note_on_c, 5, 73, 50
7, 310528, Note_on_c, 5, 73, 0
7, 310528, Note_on_c, 5, 71, 50
7, 310784, Note_on_c, 5, 71, 0
7, 310784, Note_on_c, 5, 83, 51
7, 311040, Note_on_c, 5, 83, 0
7, 311040, Note_on_c, 5, 81, 52
7, 311296, Note_on_c, 5, 81, 0
7, 311296, Note_on_c, 5, 80, 52
7, 311552, Note_on_c, 5, 80, 0
7, 311552, Note_on_c, 5, 78, 53
7, 311808, Note_on_c, 5, 78, 0
7, 311808, Note_on_c, 5, 76, 53
7, 311808, Note_on_c, 5, 57, 53
7, 312064, Note_on_c, 5, 76, 0
7, 312064, Note_on_c, 5, 74, 54
7, 312064, Note_on_c, 5, 57, 0
7, 312320, Note_on_c, 5, 74, 0
7, 312320, Note_on_c, 5, 73, 54
7, 312320, Note_on_c, 5, 57, 54
7, 312576, Note_on_c, 5, 73, 0
7, 312576, Note_on_c, 5, 71, 55
7, 312576, Note_on_c, 5, 57, 0
7, 312832, Note_on_c, 5, 71, 0
7, 312832, Note_on_c, 5, 73, 55
7, 312832, Note_on_c, 5, 57, 55
7, 313088, Note_on_c, 5, 73, 0
7, 313088, Note_on_c, 5, 76, 56
7, 313088, Note_on_c, 5, 57, 0
7, 313344, Note_on_c, 5, 76, 0
7, 313344, Note_on_c, 5, 81, 56
7, 313344, Note_on_c, 5, 66, 56
7, 313600, Note_on_c, 5, 81, 0
7, 313600, Note_on_c, 5, 66, 0
7, 313856, Note_on_c, 5, 81, 57
7, 313856, Note_on_c, 5, 66, 57
7, 314112, Note_on_c, 5, 81, 0
7, 314112, Note_on_c, 5, 66, 0
7, 314368, Note_on_c, 5, 81, 58
7, 314368, Note_on_c, 5, 66, 58
7, 314624, Note_on_c, 5, 81, 0
7, 314624, Note_on_c, 5, 66, 0
7, 314880, Note_on_c, 5, 74, 59
7, 314880, Note_on_c, 5, 59, 59
7, 315136, Note_on_c, 5, 74, 0
7, 315392, Note_on_c, 5, 74, 60
7, 315392, Note_on_c, 5, 59, 0
7, 315392, Note_on_c, 5, 59, 60
7, 315648, Note_on_c, 5, 74, 0
7, 315648, Note_on_c, 5, 59, 0
7, 315904, Note_on_c, 5, 76, 61
7, 315904, Note_on_c, 5, 61, 61
7, 316160, Note_on_c, 5, 76, 0
7, 316160, Note_on_c, 5, 78, 62
7, 316160, Note_on_c, 5, 61, 0
7, 316160, Note_on_c, 5, 62, 62
7, 316416, Note_on_c, 5, 78, 0
7, 316416, Note_on_c, 5, 62, 0
7, 316416, Note_on_c, 5, 79, 63
7, 316416, Note_on_c, 5, 64, 63
7, 316672, Note_on_c, 5, 79, 0
7, 316672, Note_on_c, 5, 81, 64
7, 316672, Note_on_c, 5, 64, 0
7, 316672, Note_on_c, 5, 66, 64
7, 316928, Note_on_c, 5, 81, 0
7, 316928, Note_on_c, 5, 83, 66
7, 316928, Note_on_c, 5, 66, 0
7, 316928, Note_on_c, 5, 67, 66
7, 317184, Note_on_c, 5, 83, 0
7, 317184, Note_on_c, 5, 81, 68
7, 317184, Note_on_c, 5, 67, 0
7, 317184, Note_on_c, 5, 66, 68
7, 317440, Note_on_c, 5, 81, 0
7, 317440, Note_on_c, 5, 79, 69
7, 317440, Note_on_c, 5, 66, 0
7, 317440, Note_on_c, 5, 64, 69
7, 317696, Note_on_c, 5, 79, 0
7, 317696, Note_on_c, 5, 78, 71
7, 317696, Note_on_c, 5, 64, 0
7, 317696, Note_on_c, 5, 62, 71
7, 317952, Note_on_c, 5, 78, 0
7, 317952, Note_on_c, 5, 62, 0
7, 317952, Note_on_c, 5, 76, 73
7, 317952, Note_on_c, 5, 61, 73
7, 318208, Note_on_c, 5, 76, 0
7, 318208, Note_on_c, 5, 61, 0
7, 318464, Note_on_c, 5, 74, 76
7, 318464, Note_on_c, 5, 59, 76
7, 318720, Note_on_c, 5, 74, 0
7, 318720, Note_on_c, 5, 73, 77
7, 318720, Note_on_c, 5, 59, 0
7, 318720, Note_on_c, 5, 57, 77
7, 318976, Note_on_c, 5, 73, 0
7, 318976, Note_on_c, 5, 78, 78
7, 318976, Note_on_c, 5, 57, 0
7, 318976, Note_on_c, 5, 62, 78
7, 319744, Note_on_c, 5, 78, 0
7, 319744, Note_on_c, 5, 79, 82
7, 319744, Note_on_c, 5, 62, 0
7, 319744, Note_on_c, 5, 64, 82
7, 320000, Note_on_c, 5, 79, 0
7, 320000, Note_on_c, 5, 76, 83
7, 320000, Note_on_c, 5, 64, 0
7, 320000, Note_on_c, 5, 61, 83
7, 320768, Note_on_c, 5, 76, 0
7, 320768, Note_on_c, 5, 78, 86
7, 320768, Note_on_c, 5, 61, 0
7, 320768, Note_on_c, 5, 62, 86
7, 321024, Note_on_c, 5, 78, 0
7, 321024, Note_on_c, 5, 62, 0
7, 321024, Note_on_c, 5, 78, 87
7, 321024, Note_on_c, 5, 62, 87
7, 321280, Note_on_c, 5, 78, 0
7, 321280, Note_on_c, 5, 79, 87
7, 321280, Note_on_c, 5, 62, 0
7, 321536, Note_on_c, 5, 79, 0
7, 321536, Note_on_c, 5, 81, 87
7, 321536, Note_on_c, 5, 78, 87
7, 321792, Note_on_c, 5, 81, 0
7, 321792, Note_on_c, 5, 83, 87
7, 321792, Note_on_c, 5, 78, 0
7, 321792, Note_on_c, 5, 79, 87
7, 322048, Note_on_c, 5, 83, 0
7, 322048, Note_on_c, 5, 81, 87
7, 322048, Note_on_c, 5, 79, 0
7, 322048, Note_on_c, 5, 78, 87
7, 322304, Note_on_c, 5, 81, 0
7, 322304, Note_on_c, 5, 79, 87
7, 322304, Note_on_c, 5, 78, 0
7, 322304, Note_on_c, 5, 76, 87
7, 322560, Note_on_c, 5, 79, 0
7, 322560, Note_on_c, 5, 76, 0
7, 322560, Note_on_c, 5, 78, 87
7, 322560, Note_on_c, 5, 74, 87
7, 322816, Note_on_c, 5, 78, 0
7, 322816, Note_on_c, 5, 76, 87
7, 322816, Note_on_c, 5, 74, 0
7, 322816, Note_on_c, 5, 72, 87
7, 323072, Note_on_c, 5, 76, 0
7, 323072, Note_on_c, 5, 74, 87
7, 323072, Note_on_c, 5, 72, 0
7, 323072, Note_on_c, 5, 71, 87
7, 323328, Note_on_c, 5, 74, 0
7, 323328, Note_on_c, 5, 76, 87
7, 323328, Note_on_c, 5, 71, 0
7, 323328, Note_on_c, 5, 72, 87
7, 323584, Note_on_c, 5, 76, 0
7, 323584, Note_on_c, 5, 78, 87
7, 323584, Note_on_c, 5, 72, 0
7, 323584, Note_on_c, 5, 74, 87
7, 323840, Note_on_c, 5, 78, 0
7, 323840, Note_on_c, 5, 74, 87
7, 323840, Note_on_c, 5, 74, 0
7, 323840, Note_on_c, 5, 71, 87
7, 324096, Note_on_c, 5, 74, 0
7, 324096, Note_on_c, 5, 71, 0
7, 324096, Note_on_c, 5, 76, 87
7, 324096, Note_on_c, 5, 72, 87
7, 324352, Note_on_c, 5, 76, 0
7, 324352, Note_on_c, 5, 78, 87
7, 324352, Note_on_c, 5, 72, 0
7, 324352, Note_on_c, 5, 74, 87
7, 324608, Note_on_c, 5, 78, 0
7, 324608, Note_on_c, 5, 79, 87
7, 324608, Note_on_c, 5, 74, 0
7, 324608, Note_on_c, 5, 76, 87
7, 324864, Note_on_c, 5, 79, 0
7, 324864, Note_on_c, 5, 81, 87
7, 324864, Note_on_c, 5, 76, 0
7, 324864, Note_on_c, 5, 78, 87
7, 325120, Note_on_c, 5, 81, 0
7, 325120, Note_on_c, 5, 79, 87
7, 325120, Note_on_c, 5, 78, 0
7, 325120, Note_on_c, 5, 76, 87
7, 325376, Note_on_c, 5, 79, 0
7, 325376, Note_on_c, 5, 78, 87
7, 325376, Note_on_c, 5, 76, 0
7, 325376, Note_on_c, 5, 74, 87
7, 325632, Note_on_c, 5, 78, 0
7, 325632, Note_on_c, 5, 74, 0
7, 325632, Note_on_c, 5, 76, 87
7, 325632, Note_on_c, 5, 72, 87
7, 325888, Note_on_c, 5, 76, 0
7, 325888, Note_on_c, 5, 74, 87
7, 325888, Note_on_c, 5, 72, 0
7, 325888, Note_on_c, 5, 71, 87
7, 326144, Note_on_c, 5, 74, 0
7, 326144, Note_on_c, 5, 72, 87
7, 326144, Note_on_c, 5, 71, 0
7, 326144, Note_on_c, 5, 69, 87
7, 326400, Note_on_c, 5, 72, 0
7, 326400, Note_on_c, 5, 74, 87
7, 326400, Note_on_c, 5, 69, 0
7, 326400, Note_on_c, 5, 71, 87
7, 326656, Note_on_c, 5, 74, 0
7, 326656, Note_on_c, 5, 76, 87
7, 326656, Note_on_c, 5, 71, 0
7, 326656, Note_on_c, 5, 72, 87
7, 326758, Note_on_c, 5, 76, 0
7, 326758, Note_on_c, 5, 78, 87
7, 326758, Note_on_c, 5, 72, 0
7, 326758, Note_on_c, 5, 74, 87
7, 326861, Note_on_c, 5, 78, 0
7, 326861, Note_on_c, 5, 76, 87
7, 326861, Note_on_c, 5, 74, 0
7, 326861, Note_on_c, 5, 72, 87
7, 326963, Note_on_c, 5, 76, 0
7, 326963, Note_on_c, 5, 78, 87
7, 326963, Note_on_c, 5, 72, 0
7, 326963, Note_on_c, 5, 74, 87
7, 327066, Note_on_c, 5, 78, 0
7, 327066, Note_on_c, 5, 76, 87
7, 327066, Note_on_c, 5, 74, 0
7, 327066, Note_on_c, 5, 72, 87
7, 327168, Note_on_c, 5, 76, 0
7, 327168, Note_on_c, 5, 72, 0
7, 327168, Note_on_c, 5, 78, 87
7, 327168, Note_on_c, 5, 74, 87
7, 327936, Note_on_c, 5, 78, 0
7, 327936, Note_on_c, 5, 76, 87
7, 327936, Note_on_c, 5, 74, 0
7, 327936, Note_on_c, 5, 72, 87
7, 328192, Note_on_c, 5, 76, 0
7, 328192, Note_on_c, 5, 74, 87
7, 328192, Note_on_c, 5, 72, 0
7, 328192, Note_on_c, 5, 71, 87
7, 328448, Note_on_c, 5, 74, 0
7, 328448, Note_on_c, 5, 76, 86
7, 328448, Note_on_c, 5, 71, 0
7, 328448, Note_on_c, 5, 72, 86
7, 328704, Note_on_c, 5, 76, 0
7, 328704, Note_on_c, 5, 72, 0
7, 328704, Note_on_c, 5, 78, 87
7, 328704, Note_on_c, 5, 74, 87
7, 328960, Note_on_c, 5, 78, 0
7, 328960, Note_on_c, 5, 76, 87
7, 328960, Note_on_c, 5, 74, 0
7, 328960, Note_on_c, 5, 72, 87
7, 329216, Note_on_c, 5, 76, 0
7, 329216, Note_on_c, 5, 78, 87
7, 329216, Note_on_c, 5, 72, 0
7, 329216, Note_on_c, 5, 74, 87
7, 329472, Note_on_c, 5, 78, 0
7, 329472, Note_on_c, 5, 79, 87
7, 329472, Note_on_c, 5, 74, 0
7, 329472, Note_on_c, 5, 76, 87
7, 329728, Note_on_c, 5, 79, 0
7, 329728, Note_on_c, 5, 78, 87
7, 329728, Note_on_c, 5, 76, 0
7, 329728, Note_on_c, 5, 74, 87
7, 329984, Note_on_c, 5, 78, 0
7, 329984, Note_on_c, 5, 76, 87
7, 329984, Note_on_c, 5, 74, 0
7, 329984, Note_on_c, 5, 72, 87
7, 330240, Note_on_c, 5, 76, 0
7, 330240, Note_on_c, 5, 72, 0
7, 330240, Note_on_c, 5, 74, 87
7, 330240, Note_on_c, 5, 71, 87
7, 330496, Note_on_c, 5, 74, 0
7, 330496, Note_on_c, 5, 71, 0
7, 332288, Note_on_c, 5, 73, 49
7, 332288, Note_on_c, 5, 69, 49
7, 332544, Note_on_c, 5, 73, 0
7, 332544, Note_on_c, 5, 74, 50
7, 332544, Note_on_c, 5, 69, 0
7, 332544, Note_on_c, 5, 71, 50
7, 332800, Note_on_c, 5, 74, 0
7, 332800, Note_on_c, 5, 76, 50
7, 332800, Note_on_c, 5, 71, 0
7, 332800, Note_on_c, 5, 73, 50
7, 333056, Note_on_c, 5, 76, 0
7, 333056, Note_on_c, 5, 73, 51
7, 333056, Note_on_c, 5, 73, 0
7, 333056, Note_on_c, 5, 69, 51
7, 333312, Note_on_c, 5, 73, 0
7, 333312, Note_on_c, 5, 69, 0
7, 333312, Note_on_c, 5, 81, 51
7, 333312, Note_on_c, 5, 78, 51
7, 333568, Note_on_c, 5, 81, 0
7, 333568, Note_on_c, 5, 78, 0
7, 335360, Note_on_c, 5, 71, 56
7, 335360, Note_on_c, 5, 67, 56
7, 335616, Note_on_c, 5, 71, 0
7, 335616, Note_on_c, 5, 73, 56
7, 335616, Note_on_c, 5, 67, 0
7, 335616, Note_on_c, 5, 69, 56
7, 335872, Note_on_c, 5, 73, 0
7, 335872, Note_on_c, 5, 74, 57
7, 335872, Note_on_c, 5, 69, 0
7, 335872, Note_on_c, 5, 71, 57
7, 336128, Note_on_c, 5, 74, 0
7, 336128, Note_on_c, 5, 71, 57
7, 336128, Note_on_c, 5, 71, 0
7, 336128, Note_on_c, 5, 67, 57
7, 336384, Note_on_c, 5, 71, 0
7, 336384, Note_on_c, 5, 67, 0
7, 336384, Note_on_c, 5, 67, 58
7, 336384, Note_on_c, 5, 64, 58
7, 336640, Note_on_c, 5, 67, 0
7, 336640, Note_on_c, 5, 64, 0
7, 339968, Note_on_c, 5, 74, 67
7, 339968, Note_on_c, 5, 71, 67
7, 340224, Note_on_c, 5, 74, 0
7, 340224, Note_on_c, 5, 76, 68
7, 340224, Note_on_c, 5, 71, 0
7, 340224, Note_on_c, 5, 73, 68
7, 340480, Note_on_c, 5, 76, 0
7, 340480, Note_on_c, 5, 78, 69
7, 340480, Note_on_c, 5, 73, 0
7, 340480, Note_on_c, 5, 74, 69
7, 340736, Note_on_c, 5, 78, 0
7, 340736, Note_on_c, 5, 74, 71
7, 340736, Note_on_c, 5, 74, 0
7, 340736, Note_on_c, 5, 71, 71
7, 340992, Note_on_c, 5, 74, 0
7, 340992, Note_on_c, 5, 71, 0
7, 340992, Note_on_c, 5, 71, 72
7, 340992, Note_on_c, 5, 67, 72
7, 341248, Note_on_c, 5, 71, 0
7, 341248, Note_on_c, 5, 76, 74
7, 341248, Note_on_c, 5, 67, 0
7, 341248, Note_on_c, 5, 71, 74
7, 341504, Note_on_c, 5, 76, 0
7, 341504, Note_on_c, 5, 78, 75
7, 341504, Note_on_c, 5, 71, 0
7, 341504, Note_on_c, 5, 73, 75
7, 341760, Note_on_c, 5, 78, 0
7, 341760, Note_on_c, 5, 79, 76
7, 341760, Note_on_c, 5, 73, 0
7, 341760, Note_on_c, 5, 74, 76
7, 342016, Note_on_c, 5, 79, 0
7, 342016, Note_on_c, 5, 81, 78
7, 342016, Note_on_c, 5, 74, 0
7, 342016, Note_on_c, 5, 76, 78
7, 342272, Note_on_c, 5, 81, 0
7, 342272, Note_on_c, 5, 83, 79
7, 342272, Note_on_c, 5, 76, 0
7, 342272, Note_on_c, 5, 78, 79
7, 342528, Note_on_c, 5, 83, 0
7, 342528, Note_on_c, 5, 78, 0
7, 342528, Note_on_c, 5, 81, 80
7, 342528, Note_on_c, 5, 76, 80
7, 344320, Note_on_c, 5, 81, 0
7, 344320, Note_on_c, 5, 76, 90
7, 344576, Note_on_c, 5, 76, 0
7, 344576, Note_on_c, 5, 78, 91
7, 344576, Note_on_c, 5, 76, 0
7, 344576, Note_on_c, 5, 69, 91
7, 344832, Note_on_c, 5, 78, 0
7, 344832, Note_on_c, 5, 79, 93
7, 344832, Note_on_c, 5, 69, 0
7, 345088, Note_on_c, 5, 79, 0
7, 345088, Note_on_c, 5, 81, 94
7, 345088, Note_on_c, 5, 74, 94
7, 345344, Note_on_c, 5, 81, 0
7, 345344, Note_on_c, 5, 83, 96
7, 345344, Note_on_c, 5, 74, 0
7, 345600, Note_on_c, 5, 83, 0
7, 345600, Note_on_c, 5, 85, 96
7, 345600, Note_on_c, 5, 76, 96
7, 345856, Note_on_c, 5, 85, 0
7, 345856, Note_on_c, 5, 86, 97
7, 345856, Note_on_c, 5, 76, 0
7, 345856, Note_on_c, 5, 78, 97
7, 346112, Note_on_c, 5, 86, 0
7, 346112, Note_on_c, 5, 85, 99
7, 346112, Note_on_c, 5, 78, 0
7, 346112, Note_on_c, 5, 76, 99
7, 346368, Note_on_c, 5, 85, 0
7, 346368, Note_on_c, 5, 83, 100
7, 346368, Note_on_c, 5, 76, 0
7, 346368, Note_on_c, 5, 74, 100
7, 346624, Note_on_c, 5, 83, 0
7, 346624, Note_on_c, 5, 81, 101
7, 346624, Note_on_c, 5, 74, 0
7, 346624, Note_on_c, 5, 76, 101
7, 346880, Note_on_c, 5, 81, 0
7, 346880, Note_on_c, 5, 79, 102
7, 346880, Note_on_c, 5, 76, 0
7, 346880, Note_on_c, 5, 73, 102
7, 347136, Note_on_c, 5, 79, 0
7, 347136, Note_on_c, 5, 73, 0
7, 347136, Note_on_c, 5, 78, 103
7, 347136, Note_on_c, 5, 74, 103
7, 347392, Note_on_c, 5, 78, 0
7, 347392, Note_on_c, 5, 74, 0
7, 347648, Note_on_c, 5, 78, 98
7, 347648, Note_on_c, 5, 74, 98
7, 347904, Note_on_c, 5, 78, 0
7, 347904, Note_on_c, 5, 74, 0
7, 348160, Note_on_c, 5, 78, 98
7, 348160, Note_on_c, 5, 74, 98
7, 348416, Note_on_c, 5, 78, 0
7, 348416, Note_on_c, 5, 74, 0
7, 348672, Note_on_c, 5, 79, 98
7, 348672, Note_on_c, 5, 74, 98
7, 348928, Note_on_c, 5, 79, 0
7, 348928, Note_on_c, 5, 74, 0
7, 349184, Note_on_c, 5, 83, 98
7, 349184, Note_on_c, 5, 74, 98
7, 349440, Note_on_c, 5, 83, 0
7, 349440, Note_on_c, 5, 74, 0
7, 349696, Note_on_c, 5, 83, 98
7, 349696, Note_on_c, 5, 73, 98
7, 349952, Note_on_c, 5, 83, 0
7, 349952, Note_on_c, 5, 73, 0
7, 349952, Note_on_c, 5, 71, 98
7, 350208, Note_on_c, 5, 71, 0
7, 350208, Note_on_c, 5, 83, 98
7, 350208, Note_on_c, 5, 76, 98
7, 350720, Note_on_c, 5, 83, 0
7, 350720, Note_on_c, 5, 71, 98
7, 350720, Note_on_c, 5, 76, 0
7, 350720, Note_on_c, 5, 76, 98
7, 350976, Note_on_c, 5, 71, 0
7, 350976, Note_on_c, 5, 76, 0
7, 351232, Note_on_c, 5, 71, 98
7, 351232, Note_on_c, 5, 64, 98
7, 351488, Note_on_c, 5, 71, 0
7, 351488, Note_on_c, 5, 64, 0
7, 351744, Note_on_c, 5, 73, 97
7, 351744, Note_on_c, 5, 64, 97
7, 352000, Note_on_c, 5, 73, 0
7, 352000, Note_on_c, 5, 64, 0
7, 352256, Note_on_c, 5, 76, 99
7, 352256, Note_on_c, 5, 73, 99
7, 352512, Note_on_c, 5, 76, 0
7, 352512, Note_on_c, 5, 73, 0
7, 352768, Note_on_c, 5, 69, 98
7, 352768, Note_on_c, 5, 74, 98
7, 353024, Note_on_c, 5, 69, 0
7, 353024, Note_on_c, 5, 74, 0
7, 353280, Note_on_c, 5, 74, 95
7, 353280, Note_on_c, 5, 69, 95
7, 353536, Note_on_c, 5, 74, 0
7, 353536, Note_on_c, 5, 69, 0
7, 353792, Note_on_c, 5, 78, 89
7, 353792, Note_on_c, 5, 69, 89
7, 353920, Note_on_c, 5, 78, 0
7, 353920, Note_on_c, 5, 76, 87
7, 354048, Note_on_c, 5, 76, 0
7, 354048, Note_on_c, 5, 78, 85
7, 354176, Note_on_c, 5, 78, 0
7, 354176, Note_on_c, 5, 76, 84
7, 354304, Note_on_c, 5, 76, 0
7, 354304, Note_on_c, 5, 78, 82
7, 354432, Note_on_c, 5, 78, 0
7, 354432, Note_on_c, 5, 76, 80
7, 354560, Note_on_c, 5, 76, 0
7, 354560, Note_on_c, 5, 74, 79
7, 354688, Note_on_c, 5, 74, 0
7, 354688, Note_on_c, 5, 76, 77
7, 354816, Note_on_c, 5, 76, 0
7, 354816, Note_on_c, 5, 69, 0
7, 354816, Note_on_c, 5, 78, 59
7, 354816, Note_on_c, 5, 69, 59
7, 355072, Note_on_c, 5, 78, 0
7, 355072, Note_on_c, 5, 69, 0
7, 355328, Note_on_c, 5, 74, 61
7, 355328, Note_on_c, 5, 69, 61
7, 355840, Note_on_c, 5, 74, 0
7, 355840, Note_on_c, 5, 78, 63
7, 355840, Note_on_c, 5, 69, 0
7, 355840, Note_on_c, 5, 74, 63
7, 356352, Note_on_c, 5, 78, 0
7, 356352, Note_on_c, 5, 79, 65
7, 356608, Note_on_c, 5, 79, 0
7, 356608, Note_on_c, 5, 74, 0
7, 356864, Note_on_c, 5, 76, 67
7, 356864, Note_on_c, 5, 71, 67
7, 357120, Note_on_c, 5, 76, 0
7, 357120, Note_on_c, 5, 71, 0
7, 357376, Note_on_c, 5, 80, 70
7, 357376, Note_on_c, 5, 76, 70
7, 357632, Note_on_c, 5, 80, 0
7, 357888, Note_on_c, 5, 81, 72
7, 358400, Note_on_c, 5, 81, 0
7, 358400, Note_on_c, 5, 78, 74
7, 358400, Note_on_c, 5, 76, 0
7, 358400, Note_on_c, 5, 73, 74
7, 358656, Note_on_c, 5, 78, 0
7, 358656, Note_on_c, 5, 73, 0
7, 358912, Note_on_c, 5, 82, 76
7, 358912, Note_on_c, 5, 78, 76
7, 359168, Note_on_c, 5, 82, 0
7, 359424, Note_on_c, 5, 83, 78
7, 359936, Note_on_c, 5, 83, 0
7, 359936, Note_on_c, 5, 79, 80
7, 359936, Note_on_c, 5, 78, 0
7, 359936, Note_on_c, 5, 74, 80
7, 360192, Note_on_c, 5, 79, 0
7, 360448, Note_on_c, 5, 83, 82
7, 360448, Note_on_c, 5, 74, 0
7, 360448, Note_on_c, 5, 79, 82
7, 360704, Note_on_c, 5, 83, 0
7, 360960, Note_on_c, 5, 88, 84
7, 361216, Note_on_c, 5, 88, 0
7, 361216, Note_on_c, 5, 79, 0
7, 361472, Note_on_c, 5, 81, 86
7, 361472, Note_on_c, 5, 76, 86
7, 361728, Note_on_c, 5, 81, 0
7, 361728, Note_on_c, 5, 76, 0
7, 361984, Note_on_c, 5, 85, 89
7, 361984, Note_on_c, 5, 76, 89
7, 362240, Note_on_c, 5, 85, 0
7, 362240, Note_on_c, 5, 76, 0
7, 362496, Note_on_c, 5, 86, 91
7, 362496, Note_on_c, 5, 78, 91
7, 362752, Note_on_c, 5, 86, 0
7, 362752, Note_on_c, 5, 78, 0
7, 363008, Note_on_c, 5, 78, 93
7, 363008, Note_on_c, 5, 74, 93
7, 363264, Note_on_c, 5, 78, 0
7, 363264, Note_on_c, 5, 79, 94
7, 363264, Note_on_c, 5, 74, 0
7, 363520, Note_on_c, 5, 79, 0
7, 363520, Note_on_c, 5, 81, 95
7, 363520, Note_on_c, 5, 74, 95
7, 363776, Note_on_c, 5, 81, 0
7, 363776, Note_on_c, 5, 78, 96
7, 363776, Note_on_c, 5, 74, 0
7, 364032, Note_on_c, 5, 78, 0
7, 364032, Note_on_c, 5, 79, 102
7, 364032, Note_on_c, 5, 76, 102
7, 364288, Note_on_c, 5, 79, 0
7, 364288, Note_on_c, 5, 76, 0
7, 364544, Note_on_c, 5, 76, 102
7, 364544, Note_on_c, 5, 73, 102
7, 364800, Note_on_c, 5, 76, 0
7, 364800, Note_on_c, 5, 73, 0
7, 365568, Note_on_c, 5, 78, 104
7, 365568, Note_on_c, 5, 74, 104
7, 365824, Note_on_c, 5, 78, 0
7, 365824, Note_on_c, 5, 74, 0
7, 366080, Note_on_c, 5, 81, 105
7, 366080, Note_on_c, 5, 76, 105
7, 366336, Note_on_c, 5, 81, 0
7, 366336, Note_on_c, 5, 76, 0
7, 367104, Note_on_c, 5, 86, 106
7, 367104, Note_on_c, 5, 81, 106
7, 367360, Note_on_c, 5, 86, 0
7, 367360, Note_on_c, 5, 81, 0
7, 367616, Note_on_c, 5, 81, 107
7, 367616, Note_on_c, 5, 78, 107
7, 367872, Note_on_c, 5, 81, 0
7, 367872, Note_on_c, 5, 78, 0
7, 368640, Note_on_c, 5, 81, 108
7, 368640, Note_on_c, 5, 76, 108
7, 368896, Note_on_c, 5, 81, 0
7, 368896, Note_on_c, 5, 76, 0
7, 369152, Note_on_c, 5, 76, 109
7, 369152, Note_on_c, 5, 73, 109
7, 369408, Note_on_c, 5, 76, 0
7, 369408, Note_on_c, 5, 73, 0
7, 369664, Note_on_c, 5, 73, 110
7, 369664, Note_on_c, 5, 69, 110
7, 369920, Note_on_c, 5, 73, 0
7, 369920, Note_on_c, 5, 69, 0
7, 370176, Note_on_c, 5, 81, 111
7, 370176, Note_on_c, 5, 66, 111
7, 370432, Note_on_c, 5, 81, 0
7, 370432, Note_on_c, 5, 66, 0
7, 370688, Note_on_c, 5, 81, 111
7, 370688, Note_on_c, 5, 78, 111
7, 370944, Note_on_c, 5, 81, 0
7, 370944, Note_on_c, 5, 78, 0
7, 371200, Note_on_c, 5, 81, 112
7, 371200, Note_on_c, 5, 78, 112
7, 371456, Note_on_c, 5, 81, 0
7, 371456, Note_on_c, 5, 78, 0
7, 371712, Note_on_c, 5, 78, 113
7, 371712, Note_on_c, 5, 74, 113
7, 371968, Note_on_c, 5, 78, 0
7, 371968, Note_on_c, 5, 74, 0
7, 372224, Note_on_c, 5, 78, 114
7, 372224, Note_on_c, 5, 74, 114
7, 372480, Note_on_c, 5, 78, 0
7, 372480, Note_on_c, 5, 74, 0
7, 372736, Note_on_c, 5, 83, 114
7, 372736, Note_on_c, 5, 74, 114
7, 372992, Note_on_c, 5, 83, 0
7, 372992, Note_on_c, 5, 74, 0
7, 373248, Note_on_c, 5, 83, 115
7, 373248, Note_on_c, 5, 71, 115
7, 373504, Note_on_c, 5, 83, 0
7, 373504, Note_on_c, 5, 71, 0
7, 373760, Note_on_c, 5, 76, 116
7, 373760, Note_on_c, 5, 71, 116
7, 374016, Note_on_c, 5, 76, 0
7, 374016, Note_on_c, 5, 71, 0
7, 374272, Note_on_c, 5, 76, 117
7, 374272, Note_on_c, 5, 71, 117
7, 374528, Note_on_c, 5, 76, 0
7, 374528, Note_on_c, 5, 71, 0
7, 374784, Note_on_c, 5, 76, 117
7, 374784, Note_on_c, 5, 73, 117
7, 375552, Note_on_c, 5, 76, 0
7, 375552, Note_on_c, 5, 85, 119
7, 375552, Note_on_c, 5, 73, 0
7, 375552, Note_on_c, 5, 76, 119
7, 375808, Note_on_c, 5, 85, 0
7, 375808, Note_on_c, 5, 86, 119
7, 375808, Note_on_c, 5, 76, 0
7, 375808, Note_on_c, 5, 74, 119
7, 376064, Note_on_c, 5, 74, 0
7, 376320, Note_on_c, 5, 71, 120
7, 376576, Note_on_c, 5, 86, 0
7, 376576, Note_on_c, 5, 88, 121
7, 376576, Note_on_c, 5, 71, 0
7, 376832, Note_on_c, 5, 88, 0
7, 376832, Note_on_c, 5, 85, 121
7, 376832, Note_on_c, 5, 76, 121
7, 377600, Note_on_c, 5, 85, 0
7, 377600, Note_on_c, 5, 86, 123
7, 377600, Note_on_c, 5, 76, 0
7, 377600, Note_on_c, 5, 78, 123
7, 377856, Note_on_c, 5, 86, 0
7, 377856, Note_on_c, 5, 78, 0
7, 377856, Note_on_c, 5, 86, 123
7, 377856, Note_on_c, 5, 78, 123
7, 379392, Control_c, 5, 121, 127
7, 379392, Note_on_c, 5, 86, 0
7, 379392, Note_on_c, 5, 78, 0
7, 379392, End_track
8, 0, Start_track
8, 0, Title_t, "Viola"
8, 0, Program_c, 6, 48
8, 0, Control_c, 6, 121, 127
8, 0, Control_c, 6, 91, 127
8, 0, Control_c, 6, 1, 10
8, 0, Control_c, 6, 10, 60
8, 0, Control_c, 6, 11, 90
8, 1024, Note_on_c, 6, 74, 108
8, 1707, Note_on_c, 6, 74, 0
8, 1707, Note_on_c, 6, 69, 104
8, 2048, Note_on_c, 6, 69, 0
8, 2048, Note_on_c, 6, 74, 106
8, 2731, Note_on_c, 6, 74, 0
8, 2731, Note_on_c, 6, 69, 90
8, 3072, Note_on_c, 6, 69, 0
8, 3072, Note_on_c, 6, 74, 82
8, 3755, Note_on_c, 6, 74, 0
8, 3755, Note_on_c, 6, 66, 91
8, 4096, Note_on_c, 6, 66, 0
8, 4096, Note_on_c, 6, 64, 95
8, 4779, Note_on_c, 6, 64, 0
8, 4779, Note_on_c, 6, 73, 104
8, 5120, Note_on_c, 6, 73, 0
8, 5120, Note_on_c, 6, 69, 109
8, 5803, Note_on_c, 6, 69, 0
8, 5803, Note_on_c, 6, 66, 103
8, 6144, Note_on_c, 6, 66, 0
8, 6144, Note_on_c, 6, 69, 107
8, 6827, Note_on_c, 6, 69, 0
8, 6827, Note_on_c, 6, 66, 90
8, 7168, Note_on_c, 6, 66, 0
8, 7168, Note_on_c, 6, 62, 82
8, 7851, Note_on_c, 6, 62, 0
8, 7851, Note_on_c, 6, 71, 90
8, 8192, Note_on_c, 6, 71, 0
8, 8192, Note_on_c, 6, 69, 94
8, 8875, Note_on_c, 6, 69, 0
8, 8875, Note_on_c, 6, 62, 102
8, 9216, Note_on_c, 6, 62, 0
8, 9216, Note_on_c, 6, 67, 107
8, 9899, Note_on_c, 6, 67, 0
8, 9899, Note_on_c, 6, 62, 102
8, 10240, Note_on_c, 6, 62, 0
8, 10240, Note_on_c, 6, 67, 105
8, 10923, Note_on_c, 6, 67, 0
8, 10923, Note_on_c, 6, 62, 74
8, 11264, Note_on_c, 6, 62, 0
8, 11264, Note_on_c, 6, 73, 65
8, 11520, Note_on_c, 6, 73, 0
8, 12288, Note_on_c, 6, 69, 55
8, 12544, Note_on_c, 6, 69, 0
8, 13312, Note_on_c, 6, 67, 55
8, 13568, Note_on_c, 6, 67, 0
8, 14336, Note_on_c, 6, 73, 55
8, 14592, Note_on_c, 6, 73, 0
8, 15360, Note_on_c, 6, 69, 54
8, 15616, Note_on_c, 6, 69, 0
8, 16384, Note_on_c, 6, 67, 74
8, 16640, Note_on_c, 6, 67, 0
8, 17408, Note_on_c, 6, 66, 99
8, 17749, Note_on_c, 6, 66, 0
8, 17749, Note_on_c, 6, 67, 97
8, 18091, Note_on_c, 6, 67, 0
8, 18091, Note_on_c, 6, 69, 97
8, 18432, Note_on_c, 6, 69, 0
8, 18432, Note_on_c, 6, 66, 97
8, 19013, Note_on_c, 6, 66, 0
8, 19115, Note_on_c, 6, 71, 97
8, 19456, Note_on_c, 6, 71, 0
8, 19456, Note_on_c, 6, 73, 97
8, 19797, Note_on_c, 6, 73, 0
8, 19797, Note_on_c, 6, 74, 97
8, 20139, Note_on_c, 6, 74, 0
8, 20139, Note_on_c, 6, 76, 97
8, 20480, Note_on_c, 6, 76, 0
8, 20480, Note_on_c, 6, 69, 97
8, 20821, Note_on_c, 6, 69, 0
8, 20821, Note_on_c, 6, 71, 97
8, 21163, Note_on_c, 6, 71, 0
8, 21163, Note_on_c, 6, 73, 97
8, 21504, Note_on_c, 6, 73, 0
8, 21504, Note_on_c, 6, 74, 97
8, 22085, Note_on_c, 6, 74, 0
8, 22187, Note_on_c, 6, 66, 97
8, 22528, Note_on_c, 6, 66, 0
8, 22528, Note_on_c, 6, 68, 97
8, 22869, Note_on_c, 6, 68, 0
8, 22869, Note_on_c, 6, 66, 97
8, 23211, Note_on_c, 6, 66, 0
8, 23211, Note_on_c, 6, 68, 97
8, 23552, Note_on_c, 6, 68, 0
8, 23552, Note_on_c, 6, 64, 98
8, 23893, Note_on_c, 6, 64, 0
8, 23893, Note_on_c, 6, 62, 99
8, 24235, Note_on_c, 6, 62, 0
8, 24235, Note_on_c, 6, 64, 101
8, 24576, Note_on_c, 6, 64, 0
8, 24576, Note_on_c, 6, 61, 103
8, 24917, Note_on_c, 6, 61, 0
8, 24917, Note_on_c, 6, 64, 104
8, 25259, Note_on_c, 6, 64, 0
8, 25259, Note_on_c, 6, 69, 106
8, 25600, Note_on_c, 6, 69, 0
8, 25600, Note_on_c, 6, 69, 108
8, 25941, Note_on_c, 6, 69, 0
8, 25941, Note_on_c, 6, 71, 97
8, 26283, Note_on_c, 6, 71, 0
8, 26283, Note_on_c, 6, 73, 101
8, 26624, Note_on_c, 6, 73, 0
8, 26624, Note_on_c, 6, 73, 105
8, 27494, Note_on_c, 6, 73, 0
8, 29696, Note_on_c, 6, 69, 106
8, 30037, Note_on_c, 6, 69, 0
8, 30037, Note_on_c, 6, 71, 96
8, 30379, Note_on_c, 6, 71, 0
8, 30379, Note_on_c, 6, 73, 100
8, 30720, Note_on_c, 6, 73, 0
8, 30720, Note_on_c, 6, 73, 104
8, 31590, Note_on_c, 6, 73, 0
8, 33792, Note_on_c, 6, 66, 106
8, 34133, Note_on_c, 6, 66, 0
8, 34133, Note_on_c, 6, 67, 94
8, 34475, Note_on_c, 6, 67, 0
8, 34475, Note_on_c, 6, 69, 97
8, 34816, Note_on_c, 6, 69, 0
8, 34816, Note_on_c, 6, 69, 100
8, 35686, Note_on_c, 6, 69, 0
8, 41984, Note_on_c, 6, 69, 97
8, 42565, Note_on_c, 6, 69, 0
8, 42667, Note_on_c, 6, 64, 96
8, 43008, Note_on_c, 6, 64, 0
8, 43008, Note_on_c, 6, 69, 96
8, 43589, Note_on_c, 6, 69, 0
8, 43691, Note_on_c, 6, 61, 96
8, 44032, Note_on_c, 6, 61, 0
8, 44032, Note_on_c, 6, 71, 96
8, 44613, Note_on_c, 6, 71, 0
8, 44715, Note_on_c, 6, 66, 96
8, 45056, Note_on_c, 6, 66, 0
8, 45056, Note_on_c, 6, 71, 96
8, 45637, Note_on_c, 6, 71, 0
8, 45739, Note_on_c, 6, 62, 96
8, 46080, Note_on_c, 6, 62, 0
8, 46080, Note_on_c, 6, 71, 96
8, 46661, Note_on_c, 6, 71, 0
8, 46763, Note_on_c, 6, 67, 96
8, 47104, Note_on_c, 6, 67, 0
8, 47104, Note_on_c, 6, 73, 96
8, 47685, Note_on_c, 6, 73, 0
8, 47787, Note_on_c, 6, 64, 96
8, 48128, Note_on_c, 6, 64, 0
8, 48128, Note_on_c, 6, 74, 96
8, 48709, Note_on_c, 6, 74, 0
8, 48811, Note_on_c, 6, 69, 99
8, 49152, Note_on_c, 6, 69, 0
8, 49152, Note_on_c, 6, 62, 101
8, 49733, Note_on_c, 6, 62, 0
8, 49835, Note_on_c, 6, 76, 105
8, 50176, Note_on_c, 6, 76, 0
8, 50176, Note_on_c, 6, 74, 106
8, 50757, Note_on_c, 6, 74, 0
8, 50859, Note_on_c, 6, 69, 100
8, 51200, Note_on_c, 6, 69, 0
8, 51200, Note_on_c, 6, 74, 104
8, 51781, Note_on_c, 6, 74, 0
8, 51883, Note_on_c, 6, 69, 90
8, 52224, Note_on_c, 6, 69, 0
8, 52224, Note_on_c, 6, 74, 92
8, 52805, Note_on_c, 6, 74, 0
8, 52907, Note_on_c, 6, 66, 96
8, 53248, Note_on_c, 6, 66, 0
8, 53248, Note_on_c, 6, 64, 98
8, 53829, Note_on_c, 6, 64, 0
8, 53931, Note_on_c, 6, 64, 102
8, 54272, Note_on_c, 6, 64, 0
8, 54272, Note_on_c, 6, 62, 104
8, 54853, Note_on_c, 6, 62, 0
8, 54955, Note_on_c, 6, 57, 100
8, 55296, Note_on_c, 6, 57, 0
8, 55296, Note_on_c, 6, 62, 103
8, 55877, Note_on_c, 6, 62, 0
8, 55979, Note_on_c, 6, 69, 87
8, 56320, Note_on_c, 6, 69, 0
8, 56320, Note_on_c, 6, 67, 90
8, 56901, Note_on_c, 6, 67, 0
8, 57003, Note_on_c, 6, 74, 94
8, 57344, Note_on_c, 6, 74, 0
8, 57344, Note_on_c, 6, 66, 97
8, 57925, Note_on_c, 6, 66, 0
8, 58027, Note_on_c, 6, 72, 102
8, 58368, Note_on_c, 6, 72, 0
8, 58368, Note_on_c, 6, 71, 104
8, 58949, Note_on_c, 6, 71, 0
8, 59051, Note_on_c, 6, 67, 98
8, 59392, Note_on_c, 6, 67, 0
8, 59392, Note_on_c, 6, 71, 102
8, 59973, Note_on_c, 6, 71, 0
8, 60075, Note_on_c, 6, 67, 77
8, 60416, Note_on_c, 6, 67, 0
8, 60416, Note_on_c, 6, 73, 54
8, 60672, Note_on_c, 6, 73, 0
8, 61440, Note_on_c, 6, 69, 54
8, 61696, Note_on_c, 6, 69, 0
8, 62464, Note_on_c, 6, 67, 54
8, 62720, Note_on_c, 6, 67, 0
8, 63488, Note_on_c, 6, 73, 54
8, 63744, Note_on_c, 6, 73, 0
8, 64512, Note_on_c, 6, 69, 56
8, 64768, Note_on_c, 6, 69, 0
8, 65536, Note_on_c, 6, 67, 72
8, 65792, Note_on_c, 6, 67, 0
8, 66560, Note_on_c, 6, 66, 88
8, 66901, Note_on_c, 6, 66, 0
8, 66901, Note_on_c, 6, 67, 82
8, 67243, Note_on_c, 6, 67, 0
8, 67243, Note_on_c, 6, 69, 85
8, 67584, Note_on_c, 6, 69, 0
8, 67584, Note_on_c, 6, 66, 88
8, 67925, Note_on_c, 6, 66, 0
8, 67925, Note_on_c, 6, 67, 88
8, 68267, Note_on_c, 6, 67, 0
8, 68267, Note_on_c, 6, 69, 88
8, 68608, Note_on_c, 6, 69, 0
8, 68608, Note_on_c, 6, 66, 88
8, 68949, Note_on_c, 6, 66, 0
8, 68949, Note_on_c, 6, 67, 88
8, 69291, Note_on_c, 6, 67, 0
8, 69291, Note_on_c, 6, 69, 88
8, 69632, Note_on_c, 6, 69, 0
8, 69632, Note_on_c, 6, 66, 88
8, 69973, Note_on_c, 6, 66, 0
8, 69973, Note_on_c, 6, 67, 88
8, 70315, Note_on_c, 6, 67, 0
8, 70315, Note_on_c, 6, 69, 88
8, 70656, Note_on_c, 6, 69, 0
8, 70656, Note_on_c, 6, 66, 88
8, 70997, Note_on_c, 6, 66, 0
8, 70997, Note_on_c, 6, 73, 88
8, 71339, Note_on_c, 6, 73, 0
8, 71339, Note_on_c, 6, 71, 88
8, 71680, Note_on_c, 6, 71, 0
8, 71680, Note_on_c, 6, 66, 88
8, 72021, Note_on_c, 6, 66, 0
8, 72021, Note_on_c, 6, 73, 88
8, 72363, Note_on_c, 6, 73, 0
8, 72363, Note_on_c, 6, 71, 88
8, 72704, Note_on_c, 6, 71, 0
8, 72704, Note_on_c, 6, 66, 88
8, 73574, Note_on_c, 6, 66, 0
8, 74752, Note_on_c, 6, 66, 100
8, 75333, Note_on_c, 6, 66, 0
8, 75435, Note_on_c, 6, 62, 94
8, 75776, Note_on_c, 6, 62, 0
8, 75776, Note_on_c, 6, 66, 97
8, 76357, Note_on_c, 6, 66, 0
8, 76459, Note_on_c, 6, 62, 99
8, 76800, Note_on_c, 6, 62, 0
8, 76800, Note_on_c, 6, 71, 99
8, 77381, Note_on_c, 6, 71, 0
8, 77483, Note_on_c, 6, 66, 99
8, 77824, Note_on_c, 6, 66, 0
8, 77824, Note_on_c, 6, 71, 99
8, 78405, Note_on_c, 6, 71, 0
8, 78507, Note_on_c, 6, 66, 99
8, 78848, Note_on_c, 6, 66, 0
8, 78848, Note_on_c, 6, 71, 99
8, 79429, Note_on_c, 6, 71, 0
8, 79531, Note_on_c, 6, 67, 99
8, 79872, Note_on_c, 6, 67, 0
8, 79872, Note_on_c, 6, 71, 99
8, 80453, Note_on_c, 6, 71, 0
8, 80555, Note_on_c, 6, 67, 99
8, 80896, Note_on_c, 6, 67, 0
8, 80896, Note_on_c, 6, 69, 99
8, 81237, Note_on_c, 6, 69, 0
8, 81237, Note_on_c, 6, 67, 97
8, 81579, Note_on_c, 6, 67, 0
8, 81579, Note_on_c, 6, 66, 94
8, 81920, Note_on_c, 6, 66, 0
8, 81920, Note_on_c, 6, 64, 90
8, 82261, Note_on_c, 6, 64, 0
8, 82261, Note_on_c, 6, 62, 87
8, 82603, Note_on_c, 6, 62, 0
8, 82603, Note_on_c, 6, 60, 84
8, 82944, Note_on_c, 6, 60, 0
8, 82944, Note_on_c, 6, 59, 80
8, 83285, Note_on_c, 6, 59, 0
8, 83285, Note_on_c, 6, 60, 80
8, 83627, Note_on_c, 6, 60, 0
8, 83627, Note_on_c, 6, 62, 80
8, 83968, Note_on_c, 6, 62, 0
8, 83968, Note_on_c, 6, 59, 80
8, 84309, Note_on_c, 6, 59, 0
8, 84309, Note_on_c, 6, 60, 80
8, 84651, Note_on_c, 6, 60, 0
8, 84651, Note_on_c, 6, 62, 80
8, 84992, Note_on_c, 6, 62, 0
8, 84992, Note_on_c, 6, 59, 80
8, 85333, Note_on_c, 6, 59, 0
8, 85333, Note_on_c, 6, 60, 80
8, 85675, Note_on_c, 6, 60, 0
8, 85675, Note_on_c, 6, 62, 80
8, 86016, Note_on_c, 6, 62, 0
8, 86016, Note_on_c, 6, 59, 80
8, 86357, Note_on_c, 6, 59, 0
8, 86357, Note_on_c, 6, 60, 80
8, 86699, Note_on_c, 6, 60, 0
8, 86699, Note_on_c, 6, 62, 80
8, 87040, Note_on_c, 6, 62, 0
8, 87040, Note_on_c, 6, 59, 80
8, 87381, Note_on_c, 6, 59, 0
8, 87381, Note_on_c, 6, 66, 80
8, 87723, Note_on_c, 6, 66, 0
8, 87723, Note_on_c, 6, 64, 80
8, 88064, Note_on_c, 6, 64, 0
8, 88064, Note_on_c, 6, 59, 80
8, 88405, Note_on_c, 6, 59, 0
8, 88405, Note_on_c, 6, 66, 80
8, 88747, Note_on_c, 6, 66, 0
8, 88747, Note_on_c, 6, 64, 80
8, 89088, Note_on_c, 6, 64, 0
8, 89088, Note_on_c, 6, 59, 80
8, 89958, Note_on_c, 6, 59, 0
8, 91136, Note_on_c, 6, 71, 55
8, 91717, Note_on_c, 6, 71, 0
8, 91819, Note_on_c, 6, 67, 49
8, 92160, Note_on_c, 6, 67, 0
8, 92160, Note_on_c, 6, 76, 49
8, 92741, Note_on_c, 6, 76, 0
8, 92843, Note_on_c, 6, 73, 49
8, 93184, Note_on_c, 6, 73, 0
8, 93184, Note_on_c, 6, 74, 49
8, 93765, Note_on_c, 6, 74, 0
8, 93867, Note_on_c, 6, 70, 49
8, 94208, Note_on_c, 6, 70, 0
8, 94208, Note_on_c, 6, 74, 49
8, 94789, Note_on_c, 6, 74, 0
8, 94891, Note_on_c, 6, 71, 49
8, 95232, Note_on_c, 6, 71, 0
8, 95232, Note_on_c, 6, 73, 49
8, 95813, Note_on_c, 6, 73, 0
8, 95915, Note_on_c, 6, 76, 49
8, 96256, Note_on_c, 6, 76, 0
8, 96256, Note_on_c, 6, 73, 49
8, 96837, Note_on_c, 6, 73, 0
8, 96939, Note_on_c, 6, 66, 49
8, 97280, Note_on_c, 6, 66, 0
8, 97280, Note_on_c, 6, 66, 48
8, 97861, Note_on_c, 6, 66, 0
8, 97963, Note_on_c, 6, 71, 46
8, 98304, Note_on_c, 6, 71, 0
8, 98304, Note_on_c, 6, 74, 44
8, 98885, Note_on_c, 6, 74, 0
8, 98987, Note_on_c, 6, 71, 42
8, 99328, Note_on_c, 6, 71, 0
8, 99328, Note_on_c, 6, 59, 40
8, 100198, Note_on_c, 6, 59, 0
8, 103424, Note_on_c, 6, 69, 40
8, 111616, Note_on_c, 6, 69, 0
8, 111616, Note_on_c, 6, 71, 40
8, 111957, Note_on_c, 6, 71, 0
8, 111957, Note_on_c, 6, 73, 40
8, 112299, Note_on_c, 6, 73, 0
8, 112299, Note_on_c, 6, 74, 41
8, 112640, Note_on_c, 6, 74, 0
8, 112640, Note_on_c, 6, 71, 41
8, 113221, Note_on_c, 6, 71, 0
8, 113323, Note_on_c, 6, 64, 42
8, 113664, Note_on_c, 6, 64, 0
8, 113664, Note_on_c, 6, 66, 43
8, 114245, Note_on_c, 6, 66, 0
8, 114347, Note_on_c, 6, 57, 44
8, 114688, Note_on_c, 6, 57, 0
8, 114688, Note_on_c, 6, 62, 45
8, 115029, Note_on_c, 6, 62, 0
8, 115029, Note_on_c, 6, 64, 45
8, 115371, Note_on_c, 6, 64, 0
8, 115371, Note_on_c, 6, 66, 46
8, 115712, Note_on_c, 6, 66, 0
8, 115712, Note_on_c, 6, 67, 46
8, 116293, Note_on_c, 6, 67, 0
8, 116395, Note_on_c, 6, 59, 47
8, 116736, Note_on_c, 6, 59, 0
8, 116736, Note_on_c, 6, 61, 48
8, 117077, Note_on_c, 6, 61, 0
8, 117077, Note_on_c, 6, 59, 49
8, 117419, Note_on_c, 6, 59, 0
8, 117419, Note_on_c, 6, 61, 49
8, 117760, Note_on_c, 6, 61, 0
8, 117760, Note_on_c, 6, 62, 50
8, 118630, Note_on_c, 6, 62, 0
8, 126976, Note_on_c, 6, 73, 52
8, 128341, Note_on_c, 6, 73, 0
8, 128341, Note_on_c, 6, 74, 52
8, 128683, Note_on_c, 6, 74, 0
8, 128683, Note_on_c, 6, 73, 52
8, 129024, Note_on_c, 6, 73, 0
8, 129024, Note_on_c, 6, 71, 52
8, 129365, Note_on_c, 6, 71, 0
8, 129365, Note_on_c, 6, 73, 52
8, 129707, Note_on_c, 6, 73, 0
8, 129707, Note_on_c, 6, 69, 52
8, 130048, Note_on_c, 6, 69, 0
8, 130048, Note_on_c, 6, 76, 52
8, 130560, Note_on_c, 6, 76, 0
8, 131072, Note_on_c, 6, 64, 61
8, 131584, Note_on_c, 6, 64, 0
8, 132096, Note_on_c, 6, 69, 72
8, 132352, Note_on_c, 6, 69, 0
8, 133120, Note_on_c, 6, 71, 75
8, 133376, Note_on_c, 6, 71, 0
8, 134144, Note_on_c, 6, 71, 78
8, 134400, Note_on_c, 6, 71, 0
8, 135168, Note_on_c, 6, 68, 81
8, 135424, Note_on_c, 6, 68, 0
8, 136192, Note_on_c, 6, 73, 83
8, 136448, Note_on_c, 6, 73, 0
8, 137216, Note_on_c, 6, 69, 86
8, 137472, Note_on_c, 6, 69, 0
8, 138240, Note_on_c, 6, 68, 89
8, 138496, Note_on_c, 6, 68, 0
8, 139264, Note_on_c, 6, 68, 92
8, 139520, Note_on_c, 6, 68, 0
8, 140288, Note_on_c, 6, 73, 94
8, 140629, Note_on_c, 6, 73, 0
8, 140629, Note_on_c, 6, 74, 88
8, 140971, Note_on_c, 6, 74, 0
8, 140971, Note_on_c, 6, 76, 91
8, 141312, Note_on_c, 6, 76, 0
8, 141312, Note_on_c, 6, 73, 95
8, 141653, Note_on_c, 6, 73, 0
8, 141653, Note_on_c, 6, 74, 94
8, 141995, Note_on_c, 6, 74, 0
8, 141995, Note_on_c, 6, 76, 94
8, 142336, Note_on_c, 6, 76, 0
8, 142336, Note_on_c, 6, 73, 94
8, 142677, Note_on_c, 6, 73, 0
8, 142677, Note_on_c, 6, 74, 94
8, 143019, Note_on_c, 6, 74, 0
8, 143019, Note_on_c, 6, 76, 94
8, 143360, Note_on_c, 6, 76, 0
8, 143360, Note_on_c, 6, 73, 94
8, 143701, Note_on_c, 6, 73, 0
8, 143701, Note_on_c, 6, 74, 94
8, 144043, Note_on_c, 6, 74, 0
8, 144043, Note_on_c, 6, 76, 94
8, 144384, Note_on_c, 6, 76, 0
8, 144384, Note_on_c, 6, 73, 94
8, 144725, Note_on_c, 6, 73, 0
8, 144725, Note_on_c, 6, 68, 94
8, 145067, Note_on_c, 6, 68, 0
8, 145067, Note_on_c, 6, 66, 94
8, 145408, Note_on_c, 6, 66, 0
8, 145408, Note_on_c, 6, 73, 94
8, 145749, Note_on_c, 6, 73, 0
8, 145749, Note_on_c, 6, 68, 94
8, 146091, Note_on_c, 6, 68, 0
8, 146091, Note_on_c, 6, 66, 94
8, 146432, Note_on_c, 6, 66, 0
8, 146432, Note_on_c, 6, 73, 94
8, 147302, Note_on_c, 6, 73, 0
8, 148480, Note_on_c, 6, 61, 94
8, 149061, Note_on_c, 6, 61, 0
8, 149163, Note_on_c, 6, 57, 91
8, 149504, Note_on_c, 6, 57, 0
8, 149504, Note_on_c, 6, 61, 93
8, 150085, Note_on_c, 6, 61, 0
8, 150187, Note_on_c, 6, 57, 94
8, 150528, Note_on_c, 6, 57, 0
8, 150528, Note_on_c, 6, 66, 94
8, 151109, Note_on_c, 6, 66, 0
8, 151211, Note_on_c, 6, 61, 94
8, 151552, Note_on_c, 6, 61, 0
8, 151552, Note_on_c, 6, 66, 94
8, 152133, Note_on_c, 6, 66, 0
8, 152235, Note_on_c, 6, 61, 94
8, 152576, Note_on_c, 6, 61, 0
8, 152576, Note_on_c, 6, 66, 94
8, 153157, Note_on_c, 6, 66, 0
8, 153259, Note_on_c, 6, 62, 94
8, 153600, Note_on_c, 6, 62, 0
8, 153600, Note_on_c, 6, 66, 94
8, 154181, Note_on_c, 6, 66, 0
8, 154283, Note_on_c, 6, 62, 94
8, 154624, Note_on_c, 6, 62, 0
8, 154624, Note_on_c, 6, 64, 94
8, 154965, Note_on_c, 6, 64, 0
8, 154965, Note_on_c, 6, 62, 94
8, 155307, Note_on_c, 6, 62, 0
8, 155307, Note_on_c, 6, 61, 94
8, 155648, Note_on_c, 6, 61, 0
8, 155648, Note_on_c, 6, 71, 94
8, 155989, Note_on_c, 6, 71, 0
8, 155989, Note_on_c, 6, 69, 94
8, 156331, Note_on_c, 6, 69, 0
8, 156331, Note_on_c, 6, 67, 94
8, 156672, Note_on_c, 6, 67, 0
8, 156672, Note_on_c, 6, 66, 94
8, 157013, Note_on_c, 6, 66, 0
8, 157013, Note_on_c, 6, 67, 88
8, 157355, Note_on_c, 6, 67, 0
8, 157355, Note_on_c, 6, 69, 91
8, 157696, Note_on_c, 6, 69, 0
8, 157696, Note_on_c, 6, 66, 94
8, 158037, Note_on_c, 6, 66, 0
8, 158037, Note_on_c, 6, 67, 94
8, 158379, Note_on_c, 6, 67, 0
8, 158379, Note_on_c, 6, 69, 94
8, 158720, Note_on_c, 6, 69, 0
8, 158720, Note_on_c, 6, 66, 94
8, 159061, Note_on_c, 6, 66, 0
8, 159061, Note_on_c, 6, 67, 94
8, 159403, Note_on_c, 6, 67, 0
8, 159403, Note_on_c, 6, 69, 94
8, 159744, Note_on_c, 6, 69, 0
8, 159744, Note_on_c, 6, 66, 94
8, 160085, Note_on_c, 6, 66, 0
8, 160085, Note_on_c, 6, 67, 94
8, 160427, Note_on_c, 6, 67, 0
8, 160427, Note_on_c, 6, 69, 94
8, 160768, Note_on_c, 6, 69, 0
8, 160768, Note_on_c, 6, 66, 94
8, 161109, Note_on_c, 6, 66, 0
8, 161109, Note_on_c, 6, 73, 93
8, 161451, Note_on_c, 6, 73, 0
8, 161451, Note_on_c, 6, 71, 91
8, 161792, Note_on_c, 6, 71, 0
8, 161792, Note_on_c, 6, 66, 90
8, 162133, Note_on_c, 6, 66, 0
8, 162133, Note_on_c, 6, 73, 89
8, 162475, Note_on_c, 6, 73, 0
8, 162475, Note_on_c, 6, 71, 87
8, 162816, Note_on_c, 6, 71, 0
8, 162816, Note_on_c, 6, 66, 84
8, 163686, Note_on_c, 6, 66, 0
8, 168960, Note_on_c, 6, 71, 58
8, 173056, Note_on_c, 6, 71, 0
8, 173056, Note_on_c, 6, 73, 58
8, 177152, Note_on_c, 6, 73, 0
8, 177152, Note_on_c, 6, 69, 64
8, 178022, Note_on_c, 6, 69, 0
8, 178176, Note_on_c, 6, 71, 62
8, 179046, Note_on_c, 6, 71, 0
8, 179200, Note_on_c, 6, 68, 66
8, 180070, Note_on_c, 6, 68, 0
8, 180224, Note_on_c, 6, 69, 69
8, 181094, Note_on_c, 6, 69, 0
8, 181248, Note_on_c, 6, 66, 73
8, 182118, Note_on_c, 6, 66, 0
8, 182272, Note_on_c, 6, 68, 76
8, 183142, Note_on_c, 6, 68, 0
8, 183296, Note_on_c, 6, 64, 80
8, 184166, Note_on_c, 6, 64, 0
8, 184320, Note_on_c, 6, 66, 84
8, 185190, Note_on_c, 6, 66, 0
8, 185344, Note_on_c, 6, 62, 87
8, 185925, Note_on_c, 6, 62, 0
8, 186027, Note_on_c, 6, 59, 89
8, 186368, Note_on_c, 6, 59, 0
8, 186368, Note_on_c, 6, 65, 90
8, 186949, Note_on_c, 6, 65, 0
8, 187051, Note_on_c, 6, 73, 91
8, 187392, Note_on_c, 6, 73, 0
8, 187392, Note_on_c, 6, 73, 92
8, 187973, Note_on_c, 6, 73, 0
8, 188075, Note_on_c, 6, 66, 93
8, 188416, Note_on_c, 6, 66, 0
8, 188416, Note_on_c, 6, 71, 94
8, 188757, Note_on_c, 6, 71, 0
8, 188757, Note_on_c, 6, 69, 95
8, 189099, Note_on_c, 6, 69, 0
8, 189099, Note_on_c, 6, 68, 95
8, 189440, Note_on_c, 6, 68, 0
8, 189440, Note_on_c, 6, 68, 96
8, 189781, Note_on_c, 6, 68, 0
8, 189781, Note_on_c, 6, 66, 97
8, 190123, Note_on_c, 6, 66, 0
8, 190123, Note_on_c, 6, 65, 97
8, 190464, Note_on_c, 6, 65, 0
8, 190464, Note_on_c, 6, 73, 98
8, 191045, Note_on_c, 6, 73, 0
8, 191147, Note_on_c, 6, 61, 99
8, 191488, Note_on_c, 6, 61, 0
8, 191488, Note_on_c, 6, 61, 100
8, 192069, Note_on_c, 6, 61, 0
8, 192171, Note_on_c, 6, 66, 100
8, 192512, Note_on_c, 6, 66, 0
8, 192512, Note_on_c, 6, 68, 100
8, 192853, Note_on_c, 6, 68, 0
8, 192853, Note_on_c, 6, 66, 100
8, 193195, Note_on_c, 6, 66, 0
8, 193195, Note_on_c, 6, 68, 100
8, 193536, Note_on_c, 6, 68, 0
8, 193536, Note_on_c, 6, 69, 100
8, 193792, Note_on_c, 6, 69, 0
8, 230400, Note_on_c, 6, 57, 89
8, 230656, Note_on_c, 6, 57, 0
8, 230912, Note_on_c, 6, 57, 89
8, 231168, Note_on_c, 6, 57, 0
8, 231424, Note_on_c, 6, 57, 89
8, 231680, Note_on_c, 6, 57, 0
8, 231936, Note_on_c, 6, 66, 89
8, 232192, Note_on_c, 6, 66, 0
8, 232448, Note_on_c, 6, 66, 89
8, 232704, Note_on_c, 6, 66, 0
8, 232960, Note_on_c, 6, 66, 89
8, 233216, Note_on_c, 6, 66, 0
8, 233472, Note_on_c, 6, 59, 89
8, 233984, Note_on_c, 6, 59, 0
8, 233984, Note_on_c, 6, 59, 89
8, 234240, Note_on_c, 6, 59, 0
8, 234496, Note_on_c, 6, 61, 89
8, 234752, Note_on_c, 6, 61, 0
8, 234752, Note_on_c, 6, 62, 89
8, 235008, Note_on_c, 6, 62, 0
8, 235008, Note_on_c, 6, 64, 89
8, 235264, Note_on_c, 6, 64, 0
8, 235264, Note_on_c, 6, 66, 89
8, 235520, Note_on_c, 6, 66, 0
8, 235520, Note_on_c, 6, 67, 89
8, 235776, Note_on_c, 6, 67, 0
8, 235776, Note_on_c, 6, 66, 89
8, 236032, Note_on_c, 6, 66, 0
8, 236032, Note_on_c, 6, 64, 89
8, 236288, Note_on_c, 6, 64, 0
8, 236288, Note_on_c, 6, 62, 89
8, 236544, Note_on_c, 6, 62, 0
8, 236544, Note_on_c, 6, 61, 89
8, 236800, Note_on_c, 6, 61, 0
8, 237056, Note_on_c, 6, 59, 89
8, 237312, Note_on_c, 6, 59, 0
8, 237312, Note_on_c, 6, 57, 89
8, 237568, Note_on_c, 6, 57, 0
8, 237568, Note_on_c, 6, 62, 89
8, 238336, Note_on_c, 6, 62, 0
8, 238336, Note_on_c, 6, 64, 89
8, 238592, Note_on_c, 6, 64, 0
8, 238592, Note_on_c, 6, 61, 89
8, 239360, Note_on_c, 6, 61, 0
8, 239360, Note_on_c, 6, 62, 89
8, 239616, Note_on_c, 6, 62, 0
8, 239616, Note_on_c, 6, 62, 89
8, 239872, Note_on_c, 6, 62, 0
8, 240128, Note_on_c, 6, 66, 86
8, 240384, Note_on_c, 6, 66, 0
8, 245760, Note_on_c, 6, 57, 82
8, 246016, Note_on_c, 6, 57, 0
8, 246272, Note_on_c, 6, 61, 82
8, 246528, Note_on_c, 6, 61, 0
8, 246784, Note_on_c, 6, 64, 82
8, 247040, Note_on_c, 6, 64, 0
8, 247296, Note_on_c, 6, 67, 82
8, 247552, Note_on_c, 6, 67, 0
8, 247808, Note_on_c, 6, 64, 82
8, 248064, Note_on_c, 6, 64, 0
8, 254976, Note_on_c, 6, 71, 82
8, 255232, Note_on_c, 6, 71, 0
8, 255488, Note_on_c, 6, 64, 82
8, 255744, Note_on_c, 6, 64, 0
8, 256000, Note_on_c, 6, 71, 82
8, 256256, Note_on_c, 6, 71, 0
8, 256512, Note_on_c, 6, 73, 82
8, 256768, Note_on_c, 6, 73, 0
8, 257024, Note_on_c, 6, 66, 82
8, 257280, Note_on_c, 6, 66, 0
8, 257280, Note_on_c, 6, 71, 82
8, 257536, Note_on_c, 6, 71, 0
8, 257536, Note_on_c, 6, 69, 82
8, 257792, Note_on_c, 6, 69, 0
8, 257792, Note_on_c, 6, 67, 82
8, 258048, Note_on_c, 6, 67, 0
8, 258048, Note_on_c, 6, 72, 82
8, 258560, Note_on_c, 6, 72, 0
8, 258560, Note_on_c, 6, 72, 82
8, 258816, Note_on_c, 6, 72, 0
8, 259072, Note_on_c, 6, 69, 82
8, 259840, Note_on_c, 6, 69, 0
8, 260096, Note_on_c, 6, 63, 82
8, 260352, Note_on_c, 6, 63, 0
8, 260608, Note_on_c, 6, 67, 82
8, 261376, Note_on_c, 6, 67, 0
8, 261376, Note_on_c, 6, 72, 85
8, 261632, Note_on_c, 6, 72, 0
8, 261632, Note_on_c, 6, 66, 87
8, 261888, Note_on_c, 6, 66, 0
8, 262144, Note_on_c, 6, 75, 89
8, 262400, Note_on_c, 6, 75, 0
8, 262656, Note_on_c, 6, 71, 95
8, 262912, Note_on_c, 6, 71, 0
8, 264192, Note_on_c, 6, 73, 48
8, 264448, Note_on_c, 6, 73, 0
8, 265728, Note_on_c, 6, 69, 48
8, 265984, Note_on_c, 6, 69, 0
8, 267264, Note_on_c, 6, 71, 48
8, 267520, Note_on_c, 6, 71, 0
8, 268800, Note_on_c, 6, 71, 48
8, 269056, Note_on_c, 6, 71, 0
8, 270336, Note_on_c, 6, 70, 64
8, 270592, Note_on_c, 6, 70, 0
8, 270592, Note_on_c, 6, 71, 64
8, 270848, Note_on_c, 6, 71, 0
8, 270848, Note_on_c, 6, 70, 64
8, 271104, Note_on_c, 6, 70, 0
8, 271104, Note_on_c, 6, 68, 64
8, 271360, Note_on_c, 6, 68, 0
8, 271360, Note_on_c, 6, 66, 64
8, 271616, Note_on_c, 6, 66, 0
8, 271616, Note_on_c, 6, 70, 64
8, 271872, Note_on_c, 6, 70, 0
8, 271872, Note_on_c, 6, 66, 64
8, 273408, Note_on_c, 6, 66, 0
8, 273408, Note_on_c, 6, 68, 64
8, 274432, Note_on_c, 6, 68, 0
8, 274432, Note_on_c, 6, 67, 64
8, 274688, Note_on_c, 6, 67, 0
8, 274688, Note_on_c, 6, 66, 64
8, 274944, Note_on_c, 6, 66, 0
8, 274944, Note_on_c, 6, 64, 64
8, 275200, Note_on_c, 6, 64, 0
8, 275456, Note_on_c, 6, 61, 64
8, 275712, Note_on_c, 6, 61, 0
8, 275968, Note_on_c, 6, 73, 64
8, 276736, Note_on_c, 6, 73, 0
8, 276992, Note_on_c, 6, 66, 64
8, 277248, Note_on_c, 6, 66, 0
8, 277504, Note_on_c, 6, 59, 64
8, 277760, Note_on_c, 6, 59, 0
8, 278016, Note_on_c, 6, 67, 64
8, 278528, Note_on_c, 6, 67, 0
8, 278528, Note_on_c, 6, 61, 64
8, 279552, Note_on_c, 6, 61, 0
8, 279552, Note_on_c, 6, 62, 64
8, 279808, Note_on_c, 6, 62, 0
8, 285696, Note_on_c, 6, 58, 39
8, 285952, Note_on_c, 6, 58, 0
8, 286208, Note_on_c, 6, 66, 42
8, 286464, Note_on_c, 6, 66, 0
8, 286720, Note_on_c, 6, 70, 45
8, 286976, Note_on_c, 6, 70, 0
8, 287232, Note_on_c, 6, 66, 49
8, 287488, Note_on_c, 6, 66, 0
8, 287744, Note_on_c, 6, 62, 52
8, 288000, Note_on_c, 6, 62, 0
8, 289792, Note_on_c, 6, 64, 65
8, 290048, Note_on_c, 6, 64, 0
8, 290304, Note_on_c, 6, 66, 68
8, 290560, Note_on_c, 6, 66, 0
8, 291328, Note_on_c, 6, 69, 75
8, 291584, Note_on_c, 6, 69, 0
8, 291840, Note_on_c, 6, 69, 78
8, 292096, Note_on_c, 6, 69, 0
8, 292864, Note_on_c, 6, 74, 85
8, 293120, Note_on_c, 6, 74, 0
8, 293376, Note_on_c, 6, 76, 88
8, 293632, Note_on_c, 6, 76, 0
8, 294400, Note_on_c, 6, 64, 88
8, 294656, Note_on_c, 6, 64, 0
8, 294912, Note_on_c, 6, 66, 88
8, 295168, Note_on_c, 6, 66, 0
8, 295936, Note_on_c, 6, 74, 88
8, 296192, Note_on_c, 6, 74, 0
8, 296448, Note_on_c, 6, 71, 88
8, 296704, Note_on_c, 6, 71, 0
8, 296704, Note_on_c, 6, 62, 88
8, 296960, Note_on_c, 6, 62, 0
8, 296960, Note_on_c, 6, 67, 88
8, 297216, Note_on_c, 6, 67, 0
8, 297216, Note_on_c, 6, 69, 88
8, 297472, Note_on_c, 6, 69, 0
8, 297472, Note_on_c, 6, 67, 88
8, 297728, Note_on_c, 6, 67, 0
8, 297728, Note_on_c, 6, 66, 88
8, 297984, Note_on_c, 6, 66, 0
8, 297984, Note_on_c, 6, 64, 88
8, 299776, Note_on_c, 6, 64, 0
8, 299776, Note_on_c, 6, 57, 93
8, 300032, Note_on_c, 6, 57, 0
8, 300032, Note_on_c, 6, 62, 93
8, 300288, Note_on_c, 6, 62, 0
8, 300288, Note_on_c, 6, 61, 94
8, 300544, Note_on_c, 6, 61, 0
8, 300544, Note_on_c, 6, 59, 95
8, 300800, Note_on_c, 6, 59, 0
8, 300800, Note_on_c, 6, 57, 96
8, 301056, Note_on_c, 6, 57, 0
8, 301056, Note_on_c, 6, 59, 96
8, 301312, Note_on_c, 6, 59, 0
8, 301568, Note_on_c, 6, 64, 98
8, 302080, Note_on_c, 6, 64, 0
8, 302080, Note_on_c, 6, 57, 100
8, 302336, Note_on_c, 6, 57, 0
8, 302592, Note_on_c, 6, 57, 49
8, 302848, Note_on_c, 6, 57, 0
8, 311808, Note_on_c, 6, 57, 53
8, 312064, Note_on_c, 6, 57, 0
8, 312320, Note_on_c, 6, 57, 54
8, 312576, Note_on_c, 6, 57, 0
8, 312832, Note_on_c, 6, 57, 55
8, 313088, Note_on_c, 6, 57, 0
8, 313344, Note_on_c, 6, 66, 56
8, 313600, Note_on_c, 6, 66, 0
8, 313856, Note_on_c, 6, 66, 57
8, 314112, Note_on_c, 6, 66, 0
8, 314368, Note_on_c, 6, 66, 58
8, 314624, Note_on_c, 6, 66, 0
8, 314880, Note_on_c, 6, 59, 59
8, 315392, Note_on_c, 6, 59, 0
8, 315392, Note_on_c, 6, 59, 60
8, 315648, Note_on_c, 6, 59, 0
8, 315904, Note_on_c, 6, 61, 61
8, 316160, Note_on_c, 6, 61, 0
8, 316160, Note_on_c, 6, 62, 62
8, 316416, Note_on_c, 6, 62, 0
8, 316416, Note_on_c, 6, 64, 63
8, 316672, Note_on_c, 6, 64, 0
8, 316672, Note_on_c, 6, 66, 64
8, 316928, Note_on_c, 6, 66, 0
8, 316928, Note_on_c, 6, 67, 66
8, 317184, Note_on_c, 6, 67, 0
8, 317184, Note_on_c, 6, 66, 68
8, 317440, Note_on_c, 6, 66, 0
8, 317440, Note_on_c, 6, 64, 69
8, 317696, Note_on_c, 6, 64, 0
8, 317696, Note_on_c, 6, 62, 71
8, 317952, Note_on_c, 6, 62, 0
8, 317952, Note_on_c, 6, 61, 73
8, 318208, Note_on_c, 6, 61, 0
8, 318464, Note_on_c, 6, 59, 76
8, 318720, Note_on_c, 6, 59, 0
8, 318720, Note_on_c, 6, 57, 77
8, 318976, Note_on_c, 6, 57, 0
8, 318976, Note_on_c, 6, 62, 78
8, 319744, Note_on_c, 6, 62, 0
8, 319744, Note_on_c, 6, 64, 82
8, 320000, Note_on_c, 6, 64, 0
8, 320000, Note_on_c, 6, 61, 83
8, 320768, Note_on_c, 6, 61, 0
8, 320768, Note_on_c, 6, 62, 86
8, 321024, Note_on_c, 6, 62, 0
8, 321024, Note_on_c, 6, 62, 87
8, 321280, Note_on_c, 6, 62, 0
8, 321536, Note_on_c, 6, 62, 87
8, 321792, Note_on_c, 6, 62, 0
8, 322048, Note_on_c, 6, 62, 87
8, 322304, Note_on_c, 6, 62, 0
8, 322560, Note_on_c, 6, 71, 87
8, 322816, Note_on_c, 6, 71, 0
8, 323072, Note_on_c, 6, 71, 87
8, 323328, Note_on_c, 6, 71, 0
8, 323584, Note_on_c, 6, 71, 87
8, 323840, Note_on_c, 6, 71, 0
8, 324096, Note_on_c, 6, 64, 87
8, 324608, Note_on_c, 6, 64, 0
8, 324608, Note_on_c, 6, 64, 87
8, 324864, Note_on_c, 6, 64, 0
8, 325120, Note_on_c, 6, 66, 87
8, 325376, Note_on_c, 6, 66, 0
8, 325376, Note_on_c, 6, 67, 87
8, 325632, Note_on_c, 6, 67, 0
8, 325632, Note_on_c, 6, 69, 87
8, 325888, Note_on_c, 6, 69, 0
8, 325888, Note_on_c, 6, 71, 87
8, 326144, Note_on_c, 6, 71, 0
8, 326144, Note_on_c, 6, 72, 87
8, 326400, Note_on_c, 6, 72, 0
8, 326400, Note_on_c, 6, 71, 87
8, 326656, Note_on_c, 6, 71, 0
8, 326656, Note_on_c, 6, 69, 87
8, 326912, Note_on_c, 6, 69, 0
8, 326912, Note_on_c, 6, 67, 87
8, 327168, Note_on_c, 6, 67, 0
8, 327168, Note_on_c, 6, 66, 87
8, 327424, Note_on_c, 6, 66, 0
8, 327680, Note_on_c, 6, 64, 87
8, 327936, Note_on_c, 6, 64, 0
8, 327936, Note_on_c, 6, 62, 87
8, 328192, Note_on_c, 6, 62, 0
8, 328192, Note_on_c, 6, 67, 87
8, 328960, Note_on_c, 6, 67, 0
8, 328960, Note_on_c, 6, 69, 87
8, 329216, Note_on_c, 6, 69, 0
8, 329216, Note_on_c, 6, 66, 87
8, 329984, Note_on_c, 6, 66, 0
8, 329984, Note_on_c, 6, 67, 87
8, 330240, Note_on_c, 6, 67, 0
8, 330240, Note_on_c, 6, 67, 87
8, 330496, Note_on_c, 6, 67, 0
8, 332288, Note_on_c, 6, 64, 49
8, 332544, Note_on_c, 6, 64, 0
8, 332544, Note_on_c, 6, 66, 50
8, 332800, Note_on_c, 6, 66, 0
8, 332800, Note_on_c, 6, 67, 50
8, 333056, Note_on_c, 6, 67, 0
8, 333056, Note_on_c, 6, 64, 51
8, 333312, Note_on_c, 6, 64, 0
8, 333312, Note_on_c, 6, 74, 51
8, 333568, Note_on_c, 6, 74, 0
8, 335360, Note_on_c, 6, 62, 56
8, 335616, Note_on_c, 6, 62, 0
8, 335616, Note_on_c, 6, 64, 56
8, 335872, Note_on_c, 6, 64, 0
8, 335872, Note_on_c, 6, 66, 57
8, 336128, Note_on_c, 6, 66, 0
8, 336128, Note_on_c, 6, 62, 57
8, 336384, Note_on_c, 6, 62, 0
8, 336384, Note_on_c, 6, 59, 58
8, 336640, Note_on_c, 6, 59, 0
8, 339968, Note_on_c, 6, 66, 67
8, 340224, Note_on_c, 6, 66, 0
8, 340480, Note_on_c, 6, 71, 69
8, 341248, Note_on_c, 6, 71, 0
8, 341248, Note_on_c, 6, 67, 74
8, 341504, Note_on_c, 6, 67, 0
8, 341504, Note_on_c, 6, 69, 75
8, 341760, Note_on_c, 6, 69, 0
8, 341760, Note_on_c, 6, 71, 76
8, 342016, Note_on_c, 6, 71, 0
8, 342016, Note_on_c, 6, 73, 78
8, 342272, Note_on_c, 6, 73, 0
8, 342272, Note_on_c, 6, 74, 79
8, 342528, Note_on_c, 6, 74, 0
8, 342528, Note_on_c, 6, 69, 80
8, 344576, Note_on_c, 6, 69, 0
8, 344576, Note_on_c, 6, 74, 91
8, 344832, Note_on_c, 6, 74, 0
8, 345088, Note_on_c, 6, 62, 94
8, 345344, Note_on_c, 6, 62, 0
8, 345600, Note_on_c, 6, 69, 96
8, 345856, Note_on_c, 6, 69, 0
8, 346112, Note_on_c, 6, 57, 99
8, 346368, Note_on_c, 6, 57, 0
8, 346368, Note_on_c, 6, 59, 100
8, 346624, Note_on_c, 6, 59, 0
8, 346624, Note_on_c, 6, 61, 101
8, 346880, Note_on_c, 6, 61, 0
8, 346880, Note_on_c, 6, 57, 102
8, 347136, Note_on_c, 6, 57, 0
8, 347136, Note_on_c, 6, 62, 103
8, 347392, Note_on_c, 6, 62, 0
8, 347392, Note_on_c, 6, 64, 98
8, 347648, Note_on_c, 6, 64, 0
8, 347648, Note_on_c, 6, 62, 98
8, 347904, Note_on_c, 6, 62, 0
8, 347904, Note_on_c, 6, 61, 98
8, 348160, Note_on_c, 6, 61, 0
8, 348160, Note_on_c, 6, 59, 98
8, 348416, Note_on_c, 6, 59, 0
8, 348416, Note_on_c, 6, 57, 98
8, 348672, Note_on_c, 6, 57, 0
8, 348672, Note_on_c, 6, 55, 98
8, 348928, Note_on_c, 6, 55, 0
8, 348928, Note_on_c, 6, 62, 98
8, 349184, Note_on_c, 6, 62, 0
8, 349184, Note_on_c, 6, 67, 98
8, 349440, Note_on_c, 6, 67, 0
8, 349440, Note_on_c, 6, 66, 98
8, 349696, Note_on_c, 6, 66, 0
8, 349696, Note_on_c, 6, 64, 98
8, 349952, Note_on_c, 6, 64, 0
8, 349952, Note_on_c, 6, 62, 98
8, 350208, Note_on_c, 6, 62, 0
8, 350208, Note_on_c, 6, 61, 98
8, 350464, Note_on_c, 6, 61, 0
8, 350464, Note_on_c, 6, 62, 98
8, 350720, Note_on_c, 6, 62, 0
8, 350720, Note_on_c, 6, 64, 98
8, 350976, Note_on_c, 6, 64, 0
8, 350976, Note_on_c, 6, 62, 98
8, 351232, Note_on_c, 6, 62, 0
8, 351232, Note_on_c, 6, 61, 98
8, 351488, Note_on_c, 6, 61, 0
8, 351488, Note_on_c, 6, 59, 98
8, 351744, Note_on_c, 6, 59, 0
8, 351744, Note_on_c, 6, 57, 97
8, 352000, Note_on_c, 6, 57, 0
8, 352000, Note_on_c, 6, 64, 98
8, 352256, Note_on_c, 6, 64, 0
8, 352256, Note_on_c, 6, 69, 99
8, 352512, Note_on_c, 6, 69, 0
8, 352512, Note_on_c, 6, 67, 99
8, 352768, Note_on_c, 6, 67, 0
8, 352768, Note_on_c, 6, 66, 98
8, 353024, Note_on_c, 6, 66, 0
8, 353024, Note_on_c, 6, 64, 98
8, 353280, Note_on_c, 6, 64, 0
8, 353280, Note_on_c, 6, 62, 95
8, 353536, Note_on_c, 6, 62, 0
8, 353792, Note_on_c, 6, 69, 89
8, 354304, Note_on_c, 6, 69, 0
8, 354304, Note_on_c, 6, 57, 82
8, 354560, Note_on_c, 6, 57, 0
8, 354816, Note_on_c, 6, 62, 59
8, 355072, Note_on_c, 6, 62, 0
8, 355328, Note_on_c, 6, 62, 61
8, 355840, Note_on_c, 6, 62, 0
8, 355840, Note_on_c, 6, 69, 63
8, 356352, Note_on_c, 6, 69, 0
8, 356352, Note_on_c, 6, 71, 65
8, 356608, Note_on_c, 6, 71, 0
8, 356864, Note_on_c, 6, 68, 67
8, 357120, Note_on_c, 6, 68, 0
8, 357376, Note_on_c, 6, 71, 70
8, 357632, Note_on_c, 6, 71, 0
8, 357888, Note_on_c, 6, 73, 72
8, 358400, Note_on_c, 6, 73, 0
8, 358400, Note_on_c, 6, 70, 74
8, 358656, Note_on_c, 6, 70, 0
8, 358912, Note_on_c, 6, 73, 76
8, 359168, Note_on_c, 6, 73, 0
8, 359424, Note_on_c, 6, 74, 78
8, 359936, Note_on_c, 6, 74, 0
8, 359936, Note_on_c, 6, 71, 80
8, 360192, Note_on_c, 6, 71, 0
8, 360448, Note_on_c, 6, 74, 82
8, 360704, Note_on_c, 6, 74, 0
8, 360960, Note_on_c, 6, 76, 84
8, 361216, Note_on_c, 6, 76, 0
8, 361472, Note_on_c, 6, 64, 86
8, 361728, Note_on_c, 6, 64, 0
8, 361984, Note_on_c, 6, 69, 89
8, 362240, Note_on_c, 6, 69, 0
8, 362496, Note_on_c, 6, 69, 91
8, 362752, Note_on_c, 6, 69, 0
8, 363008, Note_on_c, 6, 69, 93
8, 363264, Note_on_c, 6, 69, 0
8, 363520, Note_on_c, 6, 69, 95
8, 363776, Note_on_c, 6, 69, 0
8, 364032, Note_on_c, 6, 57, 102
8, 364288, Note_on_c, 6, 57, 0
8, 364544, Note_on_c, 6, 69, 102
8, 364800, Note_on_c, 6, 69, 0
8, 365568, Note_on_c, 6, 69, 104
8, 365824, Note_on_c, 6, 69, 0
8, 366080, Note_on_c, 6, 73, 105
8, 366336, Note_on_c, 6, 73, 0
8, 367104, Note_on_c, 6, 69, 106
8, 367360, Note_on_c, 6, 69, 0
8, 367616, Note_on_c, 6, 74, 107
8, 367872, Note_on_c, 6, 74, 0
8, 368640, Note_on_c, 6, 73, 108
8, 368896, Note_on_c, 6, 73, 0
8, 369152, Note_on_c, 6, 69, 109
8, 369408, Note_on_c, 6, 69, 0
8, 369664, Note_on_c, 6, 64, 110
8, 369920, Note_on_c, 6, 64, 0
8, 370176, Note_on_c, 6, 61, 111
8, 370432, Note_on_c, 6, 61, 0
8, 370688, Note_on_c, 6, 73, 111
8, 370944, Note_on_c, 6, 73, 0
8, 371200, Note_on_c, 6, 66, 112
8, 371456, Note_on_c, 6, 66, 0
8, 371712, Note_on_c, 6, 66, 113
8, 371968, Note_on_c, 6, 66, 0
8, 372224, Note_on_c, 6, 71, 114
8, 372480, Note_on_c, 6, 71, 0
8, 372736, Note_on_c, 6, 71, 114
8, 372992, Note_on_c, 6, 71, 0
8, 373248, Note_on_c, 6, 67, 115
8, 373504, Note_on_c, 6, 67, 0
8, 373760, Note_on_c, 6, 67, 116
8, 374016, Note_on_c, 6, 67, 0
8, 374272, Note_on_c, 6, 67, 117
8, 374528, Note_on_c, 6, 67, 0
8, 374784, Note_on_c, 6, 69, 117
8, 375552, Note_on_c, 6, 69, 0
8, 375552, Note_on_c, 6, 69, 119
8, 375808, Note_on_c, 6, 69, 0
8, 375808, Note_on_c, 6, 69, 119
8, 376064, Note_on_c, 6, 69, 0
8, 376320, Note_on_c, 6, 67, 120
8, 376576, Note_on_c, 6, 67, 0
8, 376832, Note_on_c, 6, 64, 121
8, 377344, Note_on_c, 6, 64, 0
8, 377344, Note_on_c, 6, 69, 122
8, 377600, Note_on_c, 6, 69, 0
8, 377856, Note_on_c, 6, 69, 123
8, 379392, Control_c, 6, 121, 127
8, 379392, Note_on_c, 6, 69, 0
8, 379392, End_track
9, 0, Start_track
9, 0, Title_t, "Cello"
9, 0, Program_c, 7, 48
9, 0, Control_c, 7, 121, 127
9, 0, Control_c, 7, 91, 127
9, 0, Control_c, 7, 1, 10
9, 0, Control_c, 7, 10, 90
9, 0, Control_c, 7, 11, 90
9, 1024, Note_on_c, 7, 62, 108
9, 1894, Note_on_c, 7, 62, 0
9, 2048, Note_on_c, 7, 50, 106
9, 2918, Note_on_c, 7, 50, 0
9, 5120, Note_on_c, 7, 62, 109
9, 5990, Note_on_c, 7, 62, 0
9, 6144, Note_on_c, 7, 50, 107
9, 7014, Note_on_c, 7, 50, 0
9, 9216, Note_on_c, 7, 62, 107
9, 10086, Note_on_c, 7, 62, 0
9, 10240, Note_on_c, 7, 50, 105
9, 11110, Note_on_c, 7, 50, 0
9, 17408, Note_on_c, 7, 62, 99
9, 18278, Note_on_c, 7, 62, 0
9, 18432, Note_on_c, 7, 50, 97
9, 19302, Note_on_c, 7, 50, 0
9, 19456, Note_on_c, 7, 61, 97
9, 20326, Note_on_c, 7, 61, 0
9, 20480, Note_on_c, 7, 49, 97
9, 21350, Note_on_c, 7, 49, 0
9, 21504, Note_on_c, 7, 59, 97
9, 22374, Note_on_c, 7, 59, 0
9, 22528, Note_on_c, 7, 52, 97
9, 23398, Note_on_c, 7, 52, 0
9, 23552, Note_on_c, 7, 57, 98
9, 24422, Note_on_c, 7, 57, 0
9, 24576, Note_on_c, 7, 45, 103
9, 25446, Note_on_c, 7, 45, 0
9, 25600, Note_on_c, 7, 57, 108
9, 26470, Note_on_c, 7, 57, 0
9, 26624, Note_on_c, 7, 45, 105
9, 27494, Note_on_c, 7, 45, 0
9, 29696, Note_on_c, 7, 57, 106
9, 30566, Note_on_c, 7, 57, 0
9, 30720, Note_on_c, 7, 45, 104
9, 31590, Note_on_c, 7, 45, 0
9, 33792, Note_on_c, 7, 57, 106
9, 34662, Note_on_c, 7, 57, 0
9, 34816, Note_on_c, 7, 45, 100
9, 35686, Note_on_c, 7, 45, 0
9, 41984, Note_on_c, 7, 57, 97
9, 42854, Note_on_c, 7, 57, 0
9, 43008, Note_on_c, 7, 45, 96
9, 43878, Note_on_c, 7, 45, 0
9, 44032, Note_on_c, 7, 59, 96
9, 44902, Note_on_c, 7, 59, 0
9, 45056, Note_on_c, 7, 47, 96
9, 45926, Note_on_c, 7, 47, 0
9, 46080, Note_on_c, 7, 61, 96
9, 46950, Note_on_c, 7, 61, 0
9, 47104, Note_on_c, 7, 57, 96
9, 47974, Note_on_c, 7, 57, 0
9, 48128, Note_on_c, 7, 62, 96
9, 48709, Note_on_c, 7, 62, 0
9, 48811, Note_on_c, 7, 50, 99
9, 49152, Note_on_c, 7, 50, 0
9, 49152, Note_on_c, 7, 54, 101
9, 49733, Note_on_c, 7, 54, 0
9, 49835, Note_on_c, 7, 57, 105
9, 50176, Note_on_c, 7, 57, 0
9, 50176, Note_on_c, 7, 62, 106
9, 51046, Note_on_c, 7, 62, 0
9, 51200, Note_on_c, 7, 50, 104
9, 52070, Note_on_c, 7, 50, 0
9, 54272, Note_on_c, 7, 62, 104
9, 55142, Note_on_c, 7, 62, 0
9, 55296, Note_on_c, 7, 50, 103
9, 56166, Note_on_c, 7, 50, 0
9, 58368, Note_on_c, 7, 62, 104
9, 59238, Note_on_c, 7, 62, 0
9, 59392, Note_on_c, 7, 50, 102
9, 60262, Note_on_c, 7, 50, 0
9, 66560, Note_on_c, 7, 62, 88
9, 67430, Note_on_c, 7, 62, 0
9, 67584, Note_on_c, 7, 50, 88
9, 68454, Note_on_c, 7, 50, 0
9, 68608, Note_on_c, 7, 61, 88
9, 69478, Note_on_c, 7, 61, 0
9, 69632, Note_on_c, 7, 49, 88
9, 70502, Note_on_c, 7, 49, 0
9, 70656, Note_on_c, 7, 59, 88
9, 71526, Note_on_c, 7, 59, 0
9, 71680, Note_on_c, 7, 47, 88
9, 72550, Note_on_c, 7, 47, 0
9, 72704, Note_on_c, 7, 58, 88
9, 73574, Note_on_c, 7, 58, 0
9, 73728, Note_on_c, 7, 46, 93
9, 74598, Note_on_c, 7, 46, 0
9, 74752, Note_on_c, 7, 59, 100
9, 75622, Note_on_c, 7, 59, 0
9, 75776, Note_on_c, 7, 47, 97
9, 76646, Note_on_c, 7, 47, 0
9, 76800, Note_on_c, 7, 57, 99
9, 77670, Note_on_c, 7, 57, 0
9, 77824, Note_on_c, 7, 45, 99
9, 78694, Note_on_c, 7, 45, 0
9, 78848, Note_on_c, 7, 55, 99
9, 79718, Note_on_c, 7, 55, 0
9, 79872, Note_on_c, 7, 43, 99
9, 80742, Note_on_c, 7, 43, 0
9, 80896, Note_on_c, 7, 54, 99
9, 81766, Note_on_c, 7, 54, 0
9, 81920, Note_on_c, 7, 42, 90
9, 82790, Note_on_c, 7, 42, 0
9, 82944, Note_on_c, 7, 55, 80
9, 83814, Note_on_c, 7, 55, 0
9, 83968, Note_on_c, 7, 43, 80
9, 84838, Note_on_c, 7, 43, 0
9, 84992, Note_on_c, 7, 54, 80
9, 85862, Note_on_c, 7, 54, 0
9, 86016, Note_on_c, 7, 42, 80
9, 86886, Note_on_c, 7, 42, 0
9, 87040, Note_on_c, 7, 52, 80
9, 87910, Note_on_c, 7, 52, 0
9, 88064, Note_on_c, 7, 40, 80
9, 88934, Note_on_c, 7, 40, 0
9, 89088, Note_on_c, 7, 51, 80
9, 89958, Note_on_c, 7, 51, 0
9, 90112, Note_on_c, 7, 39, 69
9, 90982, Note_on_c, 7, 39, 0
9, 91136, Note_on_c, 7, 52, 55
9, 92006, Note_on_c, 7, 52, 0
9, 92160, Note_on_c, 7, 40, 49
9, 93030, Note_on_c, 7, 40, 0
9, 93184, Note_on_c, 7, 50, 49
9, 94054, Note_on_c, 7, 50, 0
9, 94208, Note_on_c, 7, 38, 49
9, 95078, Note_on_c, 7, 38, 0
9, 95232, Note_on_c, 7, 49, 49
9, 96102, Note_on_c, 7, 49, 0
9, 96256, Note_on_c, 7, 54, 49
9, 97126, Note_on_c, 7, 54, 0
9, 97280, Note_on_c, 7, 59, 48
9, 98150, Note_on_c, 7, 59, 0
9, 98304, Note_on_c, 7, 47, 44
9, 99174, Note_on_c, 7, 47, 0
9, 99328, Note_on_c, 7, 52, 40
9, 100198, Note_on_c, 7, 52, 0
9, 100352, Note_on_c, 7, 40, 40
9, 101222, Note_on_c, 7, 40, 0
9, 103424, Note_on_c, 7, 57, 40
9, 104294, Note_on_c, 7, 57, 0
9, 104448, Note_on_c, 7, 45, 40
9, 105318, Note_on_c, 7, 45, 0
9, 107520, Note_on_c, 7, 50, 40
9, 108390, Note_on_c, 7, 50, 0
9, 108544, Note_on_c, 7, 38, 40
9, 109414, Note_on_c, 7, 38, 0
9, 111616, Note_on_c, 7, 55, 40
9, 112486, Note_on_c, 7, 55, 0
9, 112640, Note_on_c, 7, 43, 41
9, 113510, Note_on_c, 7, 43, 0
9, 113664, Note_on_c, 7, 54, 43
9, 114534, Note_on_c, 7, 54, 0
9, 114688, Note_on_c, 7, 42, 45
9, 115558, Note_on_c, 7, 42, 0
9, 115712, Note_on_c, 7, 52, 46
9, 116582, Note_on_c, 7, 52, 0
9, 116736, Note_on_c, 7, 45, 48
9, 117606, Note_on_c, 7, 45, 0
9, 117760, Note_on_c, 7, 50, 50
9, 118630, Note_on_c, 7, 50, 0
9, 118784, Note_on_c, 7, 38, 51
9, 119654, Note_on_c, 7, 38, 0
9, 119808, Note_on_c, 7, 52, 52
9, 120678, Note_on_c, 7, 52, 0
9, 120832, Note_on_c, 7, 40, 52
9, 121702, Note_on_c, 7, 40, 0
9, 121856, Note_on_c, 7, 54, 52
9, 122726, Note_on_c, 7, 54, 0
9, 122880, Note_on_c, 7, 42, 52
9, 123750, Note_on_c, 7, 42, 0
9, 123904, Note_on_c, 7, 55, 52
9, 124774, Note_on_c, 7, 55, 0
9, 124928, Note_on_c, 7, 43, 52
9, 125798, Note_on_c, 7, 43, 0
9, 125952, Note_on_c, 7, 57, 52
9, 126822, Note_on_c, 7, 57, 0
9, 126976, Note_on_c, 7, 45, 52
9, 127846, Note_on_c, 7, 45, 0
9, 128000, Note_on_c, 7, 59, 52
9, 128870, Note_on_c, 7, 59, 0
9, 129024, Note_on_c, 7, 47, 52
9, 129894, Note_on_c, 7, 47, 0
9, 130048, Note_on_c, 7, 61, 52
9, 130918, Note_on_c, 7, 61, 0
9, 131072, Note_on_c, 7, 49, 61
9, 131942, Note_on_c, 7, 49, 0
9, 132096, Note_on_c, 7, 50, 72
9, 132966, Note_on_c, 7, 50, 0
9, 133120, Note_on_c, 7, 38, 75
9, 133990, Note_on_c, 7, 38, 0
9, 134144, Note_on_c, 7, 52, 78
9, 135014, Note_on_c, 7, 52, 0
9, 135168, Note_on_c, 7, 40, 81
9, 136038, Note_on_c, 7, 40, 0
9, 136192, Note_on_c, 7, 54, 83
9, 137062, Note_on_c, 7, 54, 0
9, 137216, Note_on_c, 7, 42, 86
9, 138086, Note_on_c, 7, 42, 0
9, 138240, Note_on_c, 7, 56, 89
9, 139110, Note_on_c, 7, 56, 0
9, 139264, Note_on_c, 7, 44, 92
9, 140134, Note_on_c, 7, 44, 0
9, 140288, Note_on_c, 7, 57, 94
9, 141158, Note_on_c, 7, 57, 0
9, 141312, Note_on_c, 7, 45, 95
9, 142182, Note_on_c, 7, 45, 0
9, 142336, Note_on_c, 7, 56, 94
9, 143206, Note_on_c, 7, 56, 0
9, 143360, Note_on_c, 7, 44, 94
9, 144230, Note_on_c, 7, 44, 0
9, 144384, Note_on_c, 7, 54, 94
9, 145254, Note_on_c, 7, 54, 0
9, 145408, Note_on_c, 7, 42, 94
9, 146278, Note_on_c, 7, 42, 0
9, 146432, Note_on_c, 7, 53, 94
9, 147302, Note_on_c, 7, 53, 0
9, 147456, Note_on_c, 7, 41, 94
9, 148326, Note_on_c, 7, 41, 0
9, 148480, Note_on_c, 7, 54, 94
9, 149350, Note_on_c, 7, 54, 0
9, 149504, Note_on_c, 7, 42, 93
9, 150374, Note_on_c, 7, 42, 0
9, 150528, Note_on_c, 7, 52, 94
9, 151398, Note_on_c, 7, 52, 0
9, 151552, Note_on_c, 7, 40, 94
9, 152422, Note_on_c, 7, 40, 0
9, 152576, Note_on_c, 7, 50, 94
9, 153446, Note_on_c, 7, 50, 0
9, 153600, Note_on_c, 7, 38, 94
9, 154470, Note_on_c, 7, 38, 0
9, 154624, Note_on_c, 7, 49, 94
9, 155494, Note_on_c, 7, 49, 0
9, 155648, Note_on_c, 7, 37, 94
9, 156518, Note_on_c, 7, 37, 0
9, 156672, Note_on_c, 7, 62, 94
9, 157542, Note_on_c, 7, 62, 0
9, 157696, Note_on_c, 7, 50, 94
9, 158566, Note_on_c, 7, 50, 0
9, 158720, Note_on_c, 7, 61, 94
9, 159590, Note_on_c, 7, 61, 0
9, 159744, Note_on_c, 7, 49, 94
9, 160614, Note_on_c, 7, 49, 0
9, 160768, Note_on_c, 7, 59, 94
9, 161638, Note_on_c, 7, 59, 0
9, 161792, Note_on_c, 7, 47, 90
9, 162662, Note_on_c, 7, 47, 0
9, 162816, Note_on_c, 7, 58, 84
9, 163686, Note_on_c, 7, 58, 0
9, 163840, Note_on_c, 7, 46, 73
9, 164710, Note_on_c, 7, 46, 0
9, 164864, Note_on_c, 7, 59, 58
9, 165734, Note_on_c, 7, 59, 0
9, 165888, Note_on_c, 7, 47, 58
9, 166758, Note_on_c, 7, 47, 0
9, 168960, Note_on_c, 7, 52, 58
9, 169830, Note_on_c, 7, 52, 0
9, 169984, Note_on_c, 7, 40, 58
9, 170854, Note_on_c, 7, 40, 0
9, 173056, Note_on_c, 7, 57, 58
9, 173926, Note_on_c, 7, 57, 0
9, 174080, Note_on_c, 7, 45, 58
9, 174950, Note_on_c, 7, 45, 0
9, 177152, Note_on_c, 7, 50, 64
9, 177493, Note_on_c, 7, 50, 0
9, 177493, Note_on_c, 7, 49, 59
9, 177835, Note_on_c, 7, 49, 0
9, 177835, Note_on_c, 7, 50, 61
9, 178176, Note_on_c, 7, 50, 0
9, 178176, Note_on_c, 7, 44, 62
9, 178517, Note_on_c, 7, 44, 0
9, 178517, Note_on_c, 7, 45, 63
9, 178859, Note_on_c, 7, 45, 0
9, 178859, Note_on_c, 7, 47, 64
9, 179200, Note_on_c, 7, 47, 0
9, 179200, Note_on_c, 7, 37, 66
9, 179541, Note_on_c, 7, 37, 0
9, 179541, Note_on_c, 7, 39, 67
9, 179883, Note_on_c, 7, 39, 0
9, 179883, Note_on_c, 7, 41, 68
9, 180224, Note_on_c, 7, 41, 0
9, 180224, Note_on_c, 7, 42, 69
9, 180565, Note_on_c, 7, 42, 0
9, 180565, Note_on_c, 7, 44, 70
9, 180907, Note_on_c, 7, 44, 0
9, 180907, Note_on_c, 7, 45, 72
9, 181248, Note_on_c, 7, 45, 0
9, 181248, Note_on_c, 7, 47, 73
9, 181589, Note_on_c, 7, 47, 0
9, 181589, Note_on_c, 7, 45, 74
9, 181931, Note_on_c, 7, 45, 0
9, 181931, Note_on_c, 7, 47, 75
9, 182272, Note_on_c, 7, 47, 0
9, 182272, Note_on_c, 7, 40, 76
9, 182613, Note_on_c, 7, 40, 0
9, 182613, Note_on_c, 7, 42, 78
9, 182955, Note_on_c, 7, 42, 0
9, 182955, Note_on_c, 7, 44, 79
9, 183296, Note_on_c, 7, 44, 0
9, 183296, Note_on_c, 7, 33, 80
9, 183637, Note_on_c, 7, 33, 0
9, 183637, Note_on_c, 7, 35, 81
9, 183979, Note_on_c, 7, 35, 0
9, 183979, Note_on_c, 7, 37, 83
9, 184320, Note_on_c, 7, 37, 0
9, 184320, Note_on_c, 7, 38, 84
9, 184661, Note_on_c, 7, 38, 0
9, 184661, Note_on_c, 7, 40, 85
9, 185003, Note_on_c, 7, 40, 0
9, 185003, Note_on_c, 7, 42, 86
9, 185344, Note_on_c, 7, 42, 0
9, 185344, Note_on_c, 7, 44, 87
9, 185685, Note_on_c, 7, 44, 0
9, 185685, Note_on_c, 7, 42, 88
9, 186027, Note_on_c, 7, 42, 0
9, 186027, Note_on_c, 7, 44, 89
9, 186368, Note_on_c, 7, 44, 0
9, 186368, Note_on_c, 7, 37, 90
9, 186709, Note_on_c, 7, 37, 0
9, 186709, Note_on_c, 7, 39, 90
9, 187051, Note_on_c, 7, 39, 0
9, 187051, Note_on_c, 7, 41, 91
9, 187392, Note_on_c, 7, 41, 0
9, 187392, Note_on_c, 7, 42, 92
9, 187733, Note_on_c, 7, 42, 0
9, 187733, Note_on_c, 7, 44, 92
9, 188075, Note_on_c, 7, 44, 0
9, 188075, Note_on_c, 7, 45, 93
9, 188416, Note_on_c, 7, 45, 0
9, 188416, Note_on_c, 7, 47, 94
9, 188757, Note_on_c, 7, 47, 0
9, 188757, Note_on_c, 7, 49, 95
9, 189099, Note_on_c, 7, 49, 0
9, 189099, Note_on_c, 7, 50, 95
9, 189440, Note_on_c, 7, 50, 0
9, 189440, Note_on_c, 7, 41, 96
9, 190464, Note_on_c, 7, 41, 0
9, 190464, Note_on_c, 7, 42, 98
9, 191334, Note_on_c, 7, 42, 0
9, 191488, Note_on_c, 7, 49, 100
9, 192512, Note_on_c, 7, 49, 0
9, 192512, Note_on_c, 7, 37, 100
9, 193536, Note_on_c, 7, 37, 0
9, 193536, Note_on_c, 7, 42, 100
9, 194560, Note_on_c, 7, 42, 0
9, 195584, Note_on_c, 7, 50, 44
9, 195840, Note_on_c, 7, 50, 0
9, 195840, Note_on_c, 7, 52, 44
9, 196096, Note_on_c, 7, 52, 0
9, 196096, Note_on_c, 7, 54, 44
9, 196352, Note_on_c, 7, 54, 0
9, 196352, Note_on_c, 7, 50, 44
9, 196608, Note_on_c, 7, 50, 0
9, 196608, Note_on_c, 7, 55, 48
9, 196864, Note_on_c, 7, 55, 0
9, 197120, Note_on_c, 7, 43, 44
9, 197376, Note_on_c, 7, 43, 0
9, 198656, Note_on_c, 7, 52, 44
9, 198912, Note_on_c, 7, 52, 0
9, 198912, Note_on_c, 7, 54, 44
9, 199168, Note_on_c, 7, 54, 0
9, 199168, Note_on_c, 7, 55, 44
9, 199424, Note_on_c, 7, 55, 0
9, 199424, Note_on_c, 7, 52, 44
9, 199680, Note_on_c, 7, 52, 0
9, 199680, Note_on_c, 7, 57, 44
9, 199936, Note_on_c, 7, 57, 0
9, 200192, Note_on_c, 7, 54, 44
9, 200448, Note_on_c, 7, 54, 0
9, 200704, Note_on_c, 7, 59, 44
9, 200960, Note_on_c, 7, 59, 0
9, 201216, Note_on_c, 7, 55, 44
9, 201472, Note_on_c, 7, 55, 0
9, 201728, Note_on_c, 7, 57, 44
9, 201984, Note_on_c, 7, 57, 0
9, 202240, Note_on_c, 7, 45, 44
9, 202496, Note_on_c, 7, 45, 0
9, 202752, Note_on_c, 7, 50, 44
9, 203776, Note_on_c, 7, 50, 0
9, 204800, Note_on_c, 7, 55, 44
9, 205056, Note_on_c, 7, 55, 0
9, 205056, Note_on_c, 7, 57, 44
9, 205312, Note_on_c, 7, 57, 0
9, 205312, Note_on_c, 7, 59, 44
9, 205568, Note_on_c, 7, 59, 0
9, 205568, Note_on_c, 7, 55, 44
9, 205824, Note_on_c, 7, 55, 0
9, 205824, Note_on_c, 7, 57, 44
9, 206080, Note_on_c, 7, 57, 0
9, 206336, Note_on_c, 7, 61, 44
9, 206592, Note_on_c, 7, 61, 0
9, 206848, Note_on_c, 7, 57, 44
9, 207104, Note_on_c, 7, 57, 0
9, 207360, Note_on_c, 7, 54, 44
9, 207616, Note_on_c, 7, 54, 0
9, 207872, Note_on_c, 7, 55, 44
9, 208128, Note_on_c, 7, 55, 0
9, 208384, Note_on_c, 7, 57, 44
9, 208640, Note_on_c, 7, 57, 0
9, 208896, Note_on_c, 7, 50, 44
9, 209152, Note_on_c, 7, 50, 0
9, 209408, Note_on_c, 7, 62, 44
9, 209664, Note_on_c, 7, 62, 0
9, 209920, Note_on_c, 7, 61, 44
9, 210176, Note_on_c, 7, 61, 0
9, 210432, Note_on_c, 7, 59, 44
9, 210688, Note_on_c, 7, 59, 0
9, 210944, Note_on_c, 7, 64, 44
9, 211200, Note_on_c, 7, 64, 0
9, 211456, Note_on_c, 7, 52, 44
9, 211712, Note_on_c, 7, 52, 0
9, 211968, Note_on_c, 7, 57, 44
9, 212224, Note_on_c, 7, 57, 0
9, 212480, Note_on_c, 7, 45, 44
9, 212736, Note_on_c, 7, 45, 0
9, 212736, Note_on_c, 7, 47, 45
9, 212992, Note_on_c, 7, 47, 0
9, 212992, Note_on_c, 7, 49, 45
9, 213248, Note_on_c, 7, 49, 0
9, 213248, Note_on_c, 7, 45, 46
9, 213504, Note_on_c, 7, 45, 0
9, 213504, Note_on_c, 7, 50, 46
9, 213760, Note_on_c, 7, 50, 0
9, 214016, Note_on_c, 7, 62, 47
9, 214272, Note_on_c, 7, 62, 0
9, 215552, Note_on_c, 7, 52, 49
9, 215808, Note_on_c, 7, 52, 0
9, 215808, Note_on_c, 7, 51, 50
9, 216064, Note_on_c, 7, 51, 0
9, 216064, Note_on_c, 7, 52, 50
9, 216320, Note_on_c, 7, 52, 0
9, 216320, Note_on_c, 7, 54, 51
9, 216576, Note_on_c, 7, 54, 0
9, 216576, Note_on_c, 7, 55, 51
9, 216832, Note_on_c, 7, 55, 0
9, 217088, Note_on_c, 7, 57, 52
9, 217344, Note_on_c, 7, 57, 0
9, 217600, Note_on_c, 7, 59, 53
9, 217856, Note_on_c, 7, 59, 0
9, 218112, Note_on_c, 7, 57, 54
9, 218368, Note_on_c, 7, 57, 0
9, 218624, Note_on_c, 7, 61, 55
9, 218880, Note_on_c, 7, 61, 0
9, 219136, Note_on_c, 7, 62, 56
9, 219392, Note_on_c, 7, 62, 0
9, 219648, Note_on_c, 7, 55, 56
9, 219904, Note_on_c, 7, 55, 0
9, 220160, Note_on_c, 7, 57, 57
9, 220416, Note_on_c, 7, 57, 0
9, 220672, Note_on_c, 7, 45, 58
9, 220928, Note_on_c, 7, 45, 0
9, 221184, Note_on_c, 7, 50, 60
9, 221440, Note_on_c, 7, 50, 0
9, 221696, Note_on_c, 7, 38, 62
9, 221952, Note_on_c, 7, 38, 0
9, 222208, Note_on_c, 7, 50, 63
9, 222976, Note_on_c, 7, 50, 0
9, 223232, Note_on_c, 7, 54, 65
9, 223488, Note_on_c, 7, 54, 0
9, 223744, Note_on_c, 7, 59, 66
9, 224512, Note_on_c, 7, 59, 0
9, 224768, Note_on_c, 7, 52, 68
9, 225024, Note_on_c, 7, 52, 0
9, 225280, Note_on_c, 7, 57, 69
9, 226048, Note_on_c, 7, 57, 0
9, 226304, Note_on_c, 7, 45, 72
9, 226560, Note_on_c, 7, 45, 0
9, 226816, Note_on_c, 7, 57, 73
9, 227072, Note_on_c, 7, 57, 0
9, 227328, Note_on_c, 7, 50, 74
9, 227584, Note_on_c, 7, 50, 0
9, 227840, Note_on_c, 7, 52, 76
9, 228096, Note_on_c, 7, 52, 0
9, 228352, Note_on_c, 7, 54, 78
9, 228608, Note_on_c, 7, 54, 0
9, 228864, Note_on_c, 7, 52, 80
9, 229120, Note_on_c, 7, 52, 0
9, 229376, Note_on_c, 7, 50, 82
9, 229632, Note_on_c, 7, 50, 0
9, 229888, Note_on_c, 7, 52, 84
9, 230144, Note_on_c, 7, 52, 0
9, 230400, Note_on_c, 7, 45, 89
9, 230656, Note_on_c, 7, 45, 0
9, 230912, Note_on_c, 7, 45, 89
9, 231168, Note_on_c, 7, 45, 0
9, 231424, Note_on_c, 7, 45, 89
9, 231680, Note_on_c, 7, 45, 0
9, 231936, Note_on_c, 7, 54, 89
9, 232192, Note_on_c, 7, 54, 0
9, 232448, Note_on_c, 7, 54, 89
9, 232704, Note_on_c, 7, 54, 0
9, 232960, Note_on_c, 7, 54, 89
9, 233216, Note_on_c, 7, 54, 0
9, 233472, Note_on_c, 7, 47, 89
9, 233984, Note_on_c, 7, 47, 0
9, 233984, Note_on_c, 7, 47, 89
9, 234240, Note_on_c, 7, 47, 0
9, 234496, Note_on_c, 7, 49, 89
9, 234752, Note_on_c, 7, 49, 0
9, 234752, Note_on_c, 7, 50, 89
9, 235008, Note_on_c, 7, 50, 0
9, 235008, Note_on_c, 7, 52, 89
9, 235264, Note_on_c, 7, 52, 0
9, 235264, Note_on_c, 7, 54, 89
9, 235520, Note_on_c, 7, 54, 0
9, 235520, Note_on_c, 7, 55, 89
9, 235776, Note_on_c, 7, 55, 0
9, 235776, Note_on_c, 7, 54, 89
9, 236032, Note_on_c, 7, 54, 0
9, 236032, Note_on_c, 7, 52, 89
9, 236288, Note_on_c, 7, 52, 0
9, 236288, Note_on_c, 7, 50, 89
9, 236544, Note_on_c, 7, 50, 0
9, 236544, Note_on_c, 7, 49, 89
9, 236800, Note_on_c, 7, 49, 0
9, 237056, Note_on_c, 7, 47, 89
9, 237312, Note_on_c, 7, 47, 0
9, 237312, Note_on_c, 7, 45, 89
9, 237568, Note_on_c, 7, 45, 0
9, 237568, Note_on_c, 7, 50, 89
9, 238336, Note_on_c, 7, 50, 0
9, 238336, Note_on_c, 7, 52, 89
9, 238592, Note_on_c, 7, 52, 0
9, 238592, Note_on_c, 7, 49, 89
9, 239360, Note_on_c, 7, 49, 0
9, 239360, Note_on_c, 7, 50, 89
9, 239616, Note_on_c, 7, 50, 0
9, 239616, Note_on_c, 7, 50, 89
9, 239872, Note_on_c, 7, 50, 0
9, 240128, Note_on_c, 7, 54, 86
9, 240384, Note_on_c, 7, 54, 0
9, 240640, Note_on_c, 7, 50, 52
9, 240896, Note_on_c, 7, 50, 0
9, 241152, Note_on_c, 7, 57, 57
9, 241664, Note_on_c, 7, 57, 0
9, 242688, Note_on_c, 7, 57, 57
9, 243200, Note_on_c, 7, 57, 0
9, 244224, Note_on_c, 7, 45, 52
9, 244736, Note_on_c, 7, 45, 0
9, 245760, Note_on_c, 7, 45, 82
9, 246272, Note_on_c, 7, 45, 0
9, 247808, Note_on_c, 7, 52, 82
9, 248064, Note_on_c, 7, 52, 0
9, 248320, Note_on_c, 7, 52, 52
9, 248576, Note_on_c, 7, 52, 0
9, 248832, Note_on_c, 7, 59, 52
9, 249344, Note_on_c, 7, 59, 0
9, 250368, Note_on_c, 7, 59, 52
9, 250880, Note_on_c, 7, 59, 0
9, 251904, Note_on_c, 7, 47, 52
9, 252416, Note_on_c, 7, 47, 0
9, 253440, Note_on_c, 7, 47, 82
9, 253952, Note_on_c, 7, 47, 0
9, 254976, Note_on_c, 7, 52, 82
9, 255232, Note_on_c, 7, 52, 0
9, 255488, Note_on_c, 7, 40, 82
9, 255744, Note_on_c, 7, 40, 0
9, 255744, Note_on_c, 7, 42, 82
9, 256000, Note_on_c, 7, 42, 0
9, 256000, Note_on_c, 7, 43, 82
9, 256256, Note_on_c, 7, 43, 0
9, 256256, Note_on_c, 7, 40, 82
9, 256512, Note_on_c, 7, 40, 0
9, 256512, Note_on_c, 7, 45, 82
9, 256768, Note_on_c, 7, 45, 0
9, 257024, Note_on_c, 7, 45, 82
9, 257280, Note_on_c, 7, 45, 0
9, 257536, Note_on_c, 7, 45, 82
9, 257792, Note_on_c, 7, 45, 0
9, 258048, Note_on_c, 7, 42, 82
9, 258560, Note_on_c, 7, 42, 0
9, 258560, Note_on_c, 7, 42, 82
9, 258816, Note_on_c, 7, 42, 0
9, 259072, Note_on_c, 7, 42, 82
9, 259328, Note_on_c, 7, 42, 0
9, 259584, Note_on_c, 7, 47, 82
9, 259840, Note_on_c, 7, 47, 0
9, 260096, Note_on_c, 7, 43, 82
9, 260352, Note_on_c, 7, 43, 0
9, 260608, Note_on_c, 7, 48, 82
9, 260864, Note_on_c, 7, 48, 0
9, 261120, Note_on_c, 7, 47, 84
9, 261376, Note_on_c, 7, 47, 0
9, 261376, Note_on_c, 7, 45, 85
9, 261632, Note_on_c, 7, 45, 0
9, 261632, Note_on_c, 7, 47, 87
9, 262144, Note_on_c, 7, 47, 0
9, 262144, Note_on_c, 7, 35, 89
9, 262400, Note_on_c, 7, 35, 0
9, 262656, Note_on_c, 7, 40, 95
9, 262912, Note_on_c, 7, 40, 0
9, 264192, Note_on_c, 7, 45, 48
9, 264448, Note_on_c, 7, 45, 0
9, 265728, Note_on_c, 7, 38, 48
9, 265984, Note_on_c, 7, 38, 0
9, 267264, Note_on_c, 7, 43, 48
9, 267520, Note_on_c, 7, 43, 0
9, 268800, Note_on_c, 7, 37, 48
9, 269056, Note_on_c, 7, 37, 0
9, 270336, Note_on_c, 7, 42, 64
9, 270592, Note_on_c, 7, 42, 0
9, 271872, Note_on_c, 7, 47, 64
9, 272128, Note_on_c, 7, 47, 0
9, 272128, Note_on_c, 7, 46, 64
9, 272384, Note_on_c, 7, 46, 0
9, 272384, Note_on_c, 7, 47, 64
9, 272640, Note_on_c, 7, 47, 0
9, 272640, Note_on_c, 7, 49, 64
9, 272896, Note_on_c, 7, 49, 0
9, 272896, Note_on_c, 7, 50, 64
9, 273152, Note_on_c, 7, 50, 0
9, 273152, Note_on_c, 7, 47, 64
9, 273408, Note_on_c, 7, 47, 0
9, 273408, Note_on_c, 7, 52, 64
9, 273664, Note_on_c, 7, 52, 0
9, 273664, Note_on_c, 7, 50, 64
9, 273920, Note_on_c, 7, 50, 0
9, 273920, Note_on_c, 7, 52, 64
9, 274176, Note_on_c, 7, 52, 0
9, 274176, Note_on_c, 7, 54, 64
9, 274432, Note_on_c, 7, 54, 0
9, 274432, Note_on_c, 7, 52, 64
9, 274688, Note_on_c, 7, 52, 0
9, 274688, Note_on_c, 7, 50, 64
9, 274944, Note_on_c, 7, 50, 0
9, 274944, Note_on_c, 7, 49, 64
9, 275200, Note_on_c, 7, 49, 0
9, 275200, Note_on_c, 7, 47, 64
9, 275456, Note_on_c, 7, 47, 0
9, 275456, Note_on_c, 7, 49, 64
9, 275712, Note_on_c, 7, 49, 0
9, 275712, Note_on_c, 7, 50, 64
9, 275968, Note_on_c, 7, 50, 0
9, 275968, Note_on_c, 7, 52, 64
9, 276224, Note_on_c, 7, 52, 0
9, 276224, Note_on_c, 7, 49, 64
9, 276480, Note_on_c, 7, 49, 0
9, 276480, Note_on_c, 7, 54, 64
9, 276736, Note_on_c, 7, 54, 0
9, 276992, Note_on_c, 7, 52, 64
9, 277248, Note_on_c, 7, 52, 0
9, 277504, Note_on_c, 7, 50, 64
9, 277760, Note_on_c, 7, 50, 0
9, 278016, Note_on_c, 7, 52, 64
9, 278528, Note_on_c, 7, 52, 0
9, 278528, Note_on_c, 7, 54, 64
9, 279040, Note_on_c, 7, 54, 0
9, 279040, Note_on_c, 7, 42, 64
9, 279296, Note_on_c, 7, 42, 0
9, 279552, Note_on_c, 7, 47, 64
9, 279808, Note_on_c, 7, 47, 0
9, 281088, Note_on_c, 7, 54, 38
9, 281344, Note_on_c, 7, 54, 0
9, 282624, Note_on_c, 7, 54, 38
9, 282880, Note_on_c, 7, 54, 0
9, 284160, Note_on_c, 7, 42, 38
9, 284416, Note_on_c, 7, 42, 0
9, 285696, Note_on_c, 7, 42, 39
9, 285952, Note_on_c, 7, 42, 0
9, 287232, Note_on_c, 7, 47, 49
9, 287488, Note_on_c, 7, 47, 0
9, 287744, Note_on_c, 7, 59, 52
9, 288000, Note_on_c, 7, 59, 0
9, 288256, Note_on_c, 7, 47, 55
9, 288512, Note_on_c, 7, 47, 0
9, 288768, Note_on_c, 7, 49, 58
9, 289024, Note_on_c, 7, 49, 0
9, 289280, Note_on_c, 7, 57, 62
9, 289536, Note_on_c, 7, 57, 0
9, 290304, Note_on_c, 7, 50, 68
9, 290560, Note_on_c, 7, 50, 0
9, 290816, Note_on_c, 7, 57, 72
9, 291072, Note_on_c, 7, 57, 0
9, 291840, Note_on_c, 7, 45, 78
9, 292096, Note_on_c, 7, 45, 0
9, 292352, Note_on_c, 7, 57, 81
9, 292608, Note_on_c, 7, 57, 0
9, 293376, Note_on_c, 7, 45, 88
9, 293632, Note_on_c, 7, 45, 0
9, 294912, Note_on_c, 7, 50, 88
9, 295168, Note_on_c, 7, 50, 0
9, 296448, Note_on_c, 7, 43, 88
9, 296704, Note_on_c, 7, 43, 0
9, 297984, Note_on_c, 7, 40, 88
9, 298240, Note_on_c, 7, 40, 0
9, 298240, Note_on_c, 7, 38, 88
9, 298496, Note_on_c, 7, 38, 0
9, 298496, Note_on_c, 7, 40, 89
9, 298752, Note_on_c, 7, 40, 0
9, 298752, Note_on_c, 7, 42, 89
9, 299008, Note_on_c, 7, 42, 0
9, 299008, Note_on_c, 7, 43, 90
9, 299264, Note_on_c, 7, 43, 0
9, 299264, Note_on_c, 7, 40, 91
9, 299520, Note_on_c, 7, 40, 0
9, 299520, Note_on_c, 7, 45, 92
9, 299776, Note_on_c, 7, 45, 0
9, 300032, Note_on_c, 7, 42, 93
9, 300288, Note_on_c, 7, 42, 0
9, 300544, Note_on_c, 7, 47, 95
9, 300800, Note_on_c, 7, 47, 0
9, 301056, Note_on_c, 7, 43, 96
9, 301312, Note_on_c, 7, 43, 0
9, 301568, Note_on_c, 7, 45, 98
9, 302080, Note_on_c, 7, 45, 0
9, 302080, Note_on_c, 7, 45, 100
9, 302336, Note_on_c, 7, 45, 0
9, 302592, Note_on_c, 7, 38, 49
9, 302848, Note_on_c, 7, 38, 0
9, 303104, Note_on_c, 7, 50, 44
9, 303360, Note_on_c, 7, 50, 0
9, 303616, Note_on_c, 7, 54, 44
9, 303872, Note_on_c, 7, 54, 0
9, 304128, Note_on_c, 7, 47, 44
9, 304384, Note_on_c, 7, 47, 0
9, 305152, Note_on_c, 7, 59, 44
9, 305920, Note_on_c, 7, 59, 0
9, 306176, Note_on_c, 7, 52, 44
9, 306432, Note_on_c, 7, 52, 0
9, 306688, Note_on_c, 7, 57, 44
9, 307456, Note_on_c, 7, 57, 0
9, 307712, Note_on_c, 7, 52, 45
9, 307968, Note_on_c, 7, 52, 0
9, 308224, Note_on_c, 7, 45, 46
9, 308480, Note_on_c, 7, 45, 0
9, 308736, Note_on_c, 7, 50, 47
9, 308992, Note_on_c, 7, 50, 0
9, 309248, Note_on_c, 7, 52, 48
9, 309504, Note_on_c, 7, 52, 0
9, 309760, Note_on_c, 7, 54, 49
9, 310016, Note_on_c, 7, 54, 0
9, 310272, Note_on_c, 7, 52, 50
9, 310528, Note_on_c, 7, 52, 0
9, 310784, Note_on_c, 7, 50, 51
9, 311040, Note_on_c, 7, 50, 0
9, 311296, Note_on_c, 7, 52, 52
9, 311552, Note_on_c, 7, 52, 0
9, 311808, Note_on_c, 7, 45, 53
9, 312064, Note_on_c, 7, 45, 0
9, 312320, Note_on_c, 7, 57, 54
9, 312576, Note_on_c, 7, 57, 0
9, 312832, Note_on_c, 7, 57, 55
9, 313088, Note_on_c, 7, 57, 0
9, 313344, Note_on_c, 7, 66, 56
9, 313600, Note_on_c, 7, 66, 0
9, 313856, Note_on_c, 7, 66, 57
9, 314112, Note_on_c, 7, 66, 0
9, 314368, Note_on_c, 7, 66, 58
9, 314624, Note_on_c, 7, 66, 0
9, 314880, Note_on_c, 7, 59, 59
9, 315392, Note_on_c, 7, 59, 0
9, 315392, Note_on_c, 7, 59, 60
9, 315648, Note_on_c, 7, 59, 0
9, 315904, Note_on_c, 7, 61, 61
9, 316160, Note_on_c, 7, 61, 0
9, 316160, Note_on_c, 7, 62, 62
9, 316416, Note_on_c, 7, 62, 0
9, 316416, Note_on_c, 7, 64, 63
9, 316672, Note_on_c, 7, 64, 0
9, 316672, Note_on_c, 7, 66, 64
9, 316928, Note_on_c, 7, 66, 0
9, 316928, Note_on_c, 7, 67, 66
9, 317184, Note_on_c, 7, 67, 0
9, 317184, Note_on_c, 7, 66, 68
9, 317440, Note_on_c, 7, 66, 0
9, 317440, Note_on_c, 7, 64, 69
9, 317696, Note_on_c, 7, 64, 0
9, 317696, Note_on_c, 7, 62, 71
9, 317952, Note_on_c, 7, 62, 0
9, 317952, Note_on_c, 7, 61, 73
9, 318208, Note_on_c, 7, 61, 0
9, 318464, Note_on_c, 7, 59, 76
9, 318720, Note_on_c, 7, 59, 0
9, 318720, Note_on_c, 7, 57, 77
9, 318976, Note_on_c, 7, 57, 0
9, 318976, Note_on_c, 7, 62, 78
9, 319744, Note_on_c, 7, 62, 0
9, 319744, Note_on_c, 7, 64, 82
9, 320000, Note_on_c, 7, 64, 0
9, 320000, Note_on_c, 7, 61, 83
9, 320768, Note_on_c, 7, 61, 0
9, 320768, Note_on_c, 7, 62, 86
9, 321024, Note_on_c, 7, 62, 0
9, 321024, Note_on_c, 7, 50, 87
9, 321280, Note_on_c, 7, 50, 0
9, 321536, Note_on_c, 7, 50, 87
9, 321792, Note_on_c, 7, 50, 0
9, 322048, Note_on_c, 7, 50, 87
9, 322304, Note_on_c, 7, 50, 0
9, 322560, Note_on_c, 7, 59, 87
9, 322816, Note_on_c, 7, 59, 0
9, 323072, Note_on_c, 7, 59, 87
9, 323328, Note_on_c, 7, 59, 0
9, 323584, Note_on_c, 7, 59, 87
9, 323840, Note_on_c, 7, 59, 0
9, 324096, Note_on_c, 7, 52, 87
9, 324608, Note_on_c, 7, 52, 0
9, 324608, Note_on_c, 7, 52, 87
9, 324864, Note_on_c, 7, 52, 0
9, 325120, Note_on_c, 7, 54, 87
9, 325376, Note_on_c, 7, 54, 0
9, 325376, Note_on_c, 7, 55, 87
9, 325632, Note_on_c, 7, 55, 0
9, 325632, Note_on_c, 7, 57, 87
9, 325888, Note_on_c, 7, 57, 0
9, 325888, Note_on_c, 7, 59, 87
9, 326144, Note_on_c, 7, 59, 0
9, 326144, Note_on_c, 7, 60, 87
9, 326400, Note_on_c, 7, 60, 0
9, 326400, Note_on_c, 7, 59, 87
9, 326656, Note_on_c, 7, 59, 0
9, 326656, Note_on_c, 7, 57, 87
9, 326912, Note_on_c, 7, 57, 0
9, 326912, Note_on_c, 7, 55, 87
9, 327168, Note_on_c, 7, 55, 0
9, 327168, Note_on_c, 7, 54, 87
9, 327424, Note_on_c, 7, 54, 0
9, 327680, Note_on_c, 7, 52, 87
9, 327936, Note_on_c, 7, 52, 0
9, 327936, Note_on_c, 7, 50, 87
9, 328192, Note_on_c, 7, 50, 0
9, 328192, Note_on_c, 7, 55, 87
9, 328448, Note_on_c, 7, 55, 0
9, 328704, Note_on_c, 7, 43, 87
9, 328960, Note_on_c, 7, 43, 0
9, 329216, Note_on_c, 7, 50, 87
9, 329728, Note_on_c, 7, 50, 0
9, 329728, Note_on_c, 7, 38, 87
9, 329984, Note_on_c, 7, 38, 0
9, 330240, Note_on_c, 7, 43, 87
9, 330496, Note_on_c, 7, 43, 0
9, 330752, Note_on_c, 7, 55, 46
9, 332032, Note_on_c, 7, 55, 0
9, 332288, Note_on_c, 7, 54, 49
9, 332544, Note_on_c, 7, 54, 0
9, 332800, Note_on_c, 7, 52, 50
9, 333056, Note_on_c, 7, 52, 0
9, 333312, Note_on_c, 7, 54, 51
9, 335104, Note_on_c, 7, 54, 0
9, 335360, Note_on_c, 7, 52, 56
9, 335616, Note_on_c, 7, 52, 0
9, 335872, Note_on_c, 7, 50, 57
9, 336128, Note_on_c, 7, 50, 0
9, 336384, Note_on_c, 7, 52, 58
9, 338176, Note_on_c, 7, 52, 0
9, 338432, Note_on_c, 7, 50, 62
9, 338688, Note_on_c, 7, 50, 0
9, 338944, Note_on_c, 7, 49, 63
9, 339200, Note_on_c, 7, 49, 0
9, 339456, Note_on_c, 7, 50, 64
9, 341248, Note_on_c, 7, 50, 0
9, 341504, Note_on_c, 7, 49, 75
9, 341760, Note_on_c, 7, 49, 0
9, 342016, Note_on_c, 7, 47, 78
9, 342272, Note_on_c, 7, 47, 0
9, 342528, Note_on_c, 7, 49, 80
9, 342784, Note_on_c, 7, 49, 0
9, 342784, Note_on_c, 7, 47, 82
9, 343040, Note_on_c, 7, 47, 0
9, 343040, Note_on_c, 7, 45, 83
9, 343296, Note_on_c, 7, 45, 0
9, 343296, Note_on_c, 7, 47, 85
9, 343552, Note_on_c, 7, 47, 0
9, 343552, Note_on_c, 7, 49, 86
9, 343808, Note_on_c, 7, 49, 0
9, 343808, Note_on_c, 7, 45, 87
9, 344064, Note_on_c, 7, 45, 0
9, 344064, Note_on_c, 7, 50, 89
9, 344320, Note_on_c, 7, 50, 0
9, 344320, Note_on_c, 7, 49, 90
9, 344576, Note_on_c, 7, 49, 0
9, 344576, Note_on_c, 7, 50, 91
9, 344832, Note_on_c, 7, 50, 0
9, 344832, Note_on_c, 7, 52, 93
9, 345088, Note_on_c, 7, 52, 0
9, 345088, Note_on_c, 7, 54, 94
9, 345344, Note_on_c, 7, 54, 0
9, 345344, Note_on_c, 7, 55, 96
9, 345600, Note_on_c, 7, 55, 0
9, 345600, Note_on_c, 7, 57, 96
9, 345856, Note_on_c, 7, 57, 0
9, 345856, Note_on_c, 7, 55, 97
9, 346112, Note_on_c, 7, 55, 0
9, 346112, Note_on_c, 7, 57, 99
9, 346368, Note_on_c, 7, 57, 0
9, 346368, Note_on_c, 7, 59, 100
9, 346624, Note_on_c, 7, 59, 0
9, 346624, Note_on_c, 7, 61, 101
9, 346880, Note_on_c, 7, 61, 0
9, 346880, Note_on_c, 7, 57, 102
9, 347136, Note_on_c, 7, 57, 0
9, 347136, Note_on_c, 7, 62, 103
9, 347392, Note_on_c, 7, 62, 0
9, 347392, Note_on_c, 7, 64, 98
9, 347648, Note_on_c, 7, 64, 0
9, 347648, Note_on_c, 7, 62, 98
9, 347904, Note_on_c, 7, 62, 0
9, 347904, Note_on_c, 7, 61, 98
9, 348160, Note_on_c, 7, 61, 0
9, 348160, Note_on_c, 7, 59, 98
9, 348416, Note_on_c, 7, 59, 0
9, 348416, Note_on_c, 7, 57, 98
9, 348672, Note_on_c, 7, 57, 0
9, 348672, Note_on_c, 7, 55, 98
9, 348928, Note_on_c, 7, 55, 0
9, 348928, Note_on_c, 7, 57, 98
9, 349184, Note_on_c, 7, 57, 0
9, 349184, Note_on_c, 7, 55, 98
9, 349440, Note_on_c, 7, 55, 0
9, 349440, Note_on_c, 7, 54, 98
9, 349696, Note_on_c, 7, 54, 0
9, 349696, Note_on_c, 7, 52, 98
9, 349952, Note_on_c, 7, 52, 0
9, 349952, Note_on_c, 7, 50, 98
9, 350208, Note_on_c, 7, 50, 0
9, 350208, Note_on_c, 7, 49, 98
9, 350464, Note_on_c, 7, 49, 0
9, 350464, Note_on_c, 7, 50, 98
9, 350720, Note_on_c, 7, 50, 0
9, 350720, Note_on_c, 7, 52, 98
9, 350976, Note_on_c, 7, 52, 0
9, 350976, Note_on_c, 7, 50, 98
9, 351232, Note_on_c, 7, 50, 0
9, 351232, Note_on_c, 7, 49, 98
9, 351488, Note_on_c, 7, 49, 0
9, 351488, Note_on_c, 7, 47, 98
9, 351744, Note_on_c, 7, 47, 0
9, 351744, Note_on_c, 7, 45, 97
9, 352000, Note_on_c, 7, 45, 0
9, 352000, Note_on_c, 7, 52, 98
9, 352256, Note_on_c, 7, 52, 0
9, 352256, Note_on_c, 7, 57, 99
9, 352512, Note_on_c, 7, 57, 0
9, 352512, Note_on_c, 7, 55, 99
9, 352768, Note_on_c, 7, 55, 0
9, 352768, Note_on_c, 7, 54, 98
9, 353024, Note_on_c, 7, 54, 0
9, 353024, Note_on_c, 7, 52, 98
9, 353280, Note_on_c, 7, 52, 0
9, 353280, Note_on_c, 7, 50, 95
9, 353536, Note_on_c, 7, 50, 0
9, 353792, Note_on_c, 7, 57, 89
9, 354304, Note_on_c, 7, 57, 0
9, 354304, Note_on_c, 7, 45, 82
9, 354560, Note_on_c, 7, 45, 0
9, 354816, Note_on_c, 7, 50, 59
9, 355072, Note_on_c, 7, 50, 0
9, 355328, Note_on_c, 7, 54, 61
9, 355840, Note_on_c, 7, 54, 0
9, 355840, Note_on_c, 7, 50, 63
9, 356352, Note_on_c, 7, 50, 0
9, 356352, Note_on_c, 7, 55, 65
9, 356608, Note_on_c, 7, 55, 0
9, 356864, Note_on_c, 7, 56, 67
9, 357120, Note_on_c, 7, 56, 0
9, 357376, Note_on_c, 7, 52, 70
9, 357632, Note_on_c, 7, 52, 0
9, 357888, Note_on_c, 7, 57, 72
9, 358400, Note_on_c, 7, 57, 0
9, 358400, Note_on_c, 7, 58, 74
9, 358656, Note_on_c, 7, 58, 0
9, 358912, Note_on_c, 7, 54, 76
9, 359168, Note_on_c, 7, 54, 0
9, 359424, Note_on_c, 7, 59, 78
9, 359936, Note_on_c, 7, 59, 0
9, 359936, Note_on_c, 7, 47, 80
9, 360192, Note_on_c, 7, 47, 0
9, 360448, Note_on_c, 7, 43, 82
9, 360704, Note_on_c, 7, 43, 0
9, 360960, Note_on_c, 7, 49, 84
9, 361472, Note_on_c, 7, 49, 0
9, 361472, Note_on_c, 7, 61, 86
9, 361728, Note_on_c, 7, 61, 0
9, 361984, Note_on_c, 7, 57, 89
9, 362240, Note_on_c, 7, 57, 0
9, 362496, Note_on_c, 7, 62, 91
9, 362752, Note_on_c, 7, 62, 0
9, 363008, Note_on_c, 7, 50, 93
9, 363264, Note_on_c, 7, 50, 0
9, 363264, Note_on_c, 7, 52, 94
9, 363520, Note_on_c, 7, 52, 0
9, 363520, Note_on_c, 7, 54, 95
9, 363776, Note_on_c, 7, 54, 0
9, 363776, Note_on_c, 7, 50, 96
9, 364032, Note_on_c, 7, 50, 0
9, 364032, Note_on_c, 7, 57, 102
9, 364288, Note_on_c, 7, 57, 0
9, 365568, Note_on_c, 7, 57, 104
9, 365824, Note_on_c, 7, 57, 0
9, 367104, Note_on_c, 7, 45, 106
9, 367360, Note_on_c, 7, 45, 0
9, 368640, Note_on_c, 7, 45, 108
9, 368896, Note_on_c, 7, 45, 0
9, 369152, Note_on_c, 7, 45, 109
9, 369408, Note_on_c, 7, 45, 0
9, 369664, Note_on_c, 7, 45, 110
9, 369920, Note_on_c, 7, 45, 0
9, 370176, Note_on_c, 7, 54, 111
9, 370432, Note_on_c, 7, 54, 0
9, 370688, Note_on_c, 7, 54, 111
9, 370944, Note_on_c, 7, 54, 0
9, 371200, Note_on_c, 7, 54, 112
9, 371456, Note_on_c, 7, 54, 0
9, 371712, Note_on_c, 7, 47, 113
9, 372224, Note_on_c, 7, 47, 0
9, 372224, Note_on_c, 7, 47, 114
9, 372480, Note_on_c, 7, 47, 0
9, 372736, Note_on_c, 7, 49, 114
9, 372992, Note_on_c, 7, 49, 0
9, 372992, Note_on_c, 7, 50, 115
9, 373248, Note_on_c, 7, 50, 0
9, 373248, Note_on_c, 7, 52, 115
9, 373504, Note_on_c, 7, 52, 0
9, 373504, Note_on_c, 7, 54, 116
9, 373760, Note_on_c, 7, 54, 0
9, 373760, Note_on_c, 7, 55, 116
9, 374016, Note_on_c, 7, 55, 0
9, 374016, Note_on_c, 7, 54, 116
9, 374272, Note_on_c, 7, 54, 0
9, 374272, Note_on_c, 7, 52, 117
9, 374528, Note_on_c, 7, 52, 0
9, 374528, Note_on_c, 7, 50, 117
9, 374784, Note_on_c, 7, 50, 0
9, 374784, Note_on_c, 7, 49, 117
9, 375040, Note_on_c, 7, 49, 0
9, 375296, Note_on_c, 7, 47, 118
9, 375552, Note_on_c, 7, 47, 0
9, 375552, Note_on_c, 7, 45, 119
9, 375808, Note_on_c, 7, 45, 0
9, 375808, Note_on_c, 7, 50, 119
9, 376064, Note_on_c, 7, 50, 0
9, 376320, Note_on_c, 7, 43, 120
9, 376576, Note_on_c, 7, 43, 0
9, 376832, Note_on_c, 7, 45, 121
9, 377856, Note_on_c, 7, 45, 0
9, 377856, Note_on_c, 7, 38, 123
9, 379392, Control_c, 7, 121, 127
9, 379392, Note_on_c, 7, 38, 0
9, 379392, End_track
10, 0, Start_track
10, 0, Title_t, "Soprano I"
10, 0, Program_c, 10, 52
10, 0, Control_c, 10, 121, 127
10, 0, Control_c, 10, 91, 127
10, 0, Control_c, 10, 1, 10
10, 0, Control_c, 10, 10, 20
10, 1024, Note_on_c, 10, 78, 108
10, 1894, Note_on_c, 10, 78, 0
10, 2048, Note_on_c, 10, 74, 106
10, 2918, Note_on_c, 10, 74, 0
10, 3072, Note_on_c, 10, 74, 82
10, 3413, Note_on_c, 10, 74, 0
10, 3413, Note_on_c, 10, 73, 87
10, 3755, Note_on_c, 10, 73, 0
10, 3755, Note_on_c, 10, 74, 91
10, 4096, Note_on_c, 10, 74, 0
10, 4096, Note_on_c, 10, 76, 95
10, 4437, Note_on_c, 10, 76, 0
10, 4437, Note_on_c, 10, 74, 100
10, 4779, Note_on_c, 10, 74, 0
10, 4779, Note_on_c, 10, 76, 104
10, 5120, Note_on_c, 10, 76, 0
10, 5120, Note_on_c, 10, 78, 109
10, 5990, Note_on_c, 10, 78, 0
10, 6144, Note_on_c, 10, 74, 107
10, 7014, Note_on_c, 10, 74, 0
10, 7168, Note_on_c, 10, 76, 82
10, 7509, Note_on_c, 10, 76, 0
10, 7509, Note_on_c, 10, 74, 86
10, 7851, Note_on_c, 10, 74, 0
10, 7851, Note_on_c, 10, 76, 90
10, 8192, Note_on_c, 10, 76, 0
10, 8192, Note_on_c, 10, 78, 94
10, 8533, Note_on_c, 10, 78, 0
10, 8533, Note_on_c, 10, 76, 98
10, 8875, Note_on_c, 10, 76, 0
10, 8875, Note_on_c, 10, 78, 102
10, 9216, Note_on_c, 10, 78, 0
10, 9216, Note_on_c, 10, 79, 107
10, 10086, Note_on_c, 10, 79, 0
10, 10240, Note_on_c, 10, 74, 105
10, 11110, Note_on_c, 10, 74, 0
10, 11264, Note_on_c, 10, 73, 65
10, 11605, Note_on_c, 10, 73, 0
10, 11605, Note_on_c, 10, 71, 55
10, 11947, Note_on_c, 10, 71, 0
10, 11947, Note_on_c, 10, 73, 55
10, 12288, Note_on_c, 10, 73, 0
10, 12288, Note_on_c, 10, 74, 55
10, 12629, Note_on_c, 10, 74, 0
10, 12629, Note_on_c, 10, 73, 55
10, 12971, Note_on_c, 10, 73, 0
10, 12971, Note_on_c, 10, 74, 55
10, 13312, Note_on_c, 10, 74, 0
10, 13312, Note_on_c, 10, 76, 55
10, 13653, Note_on_c, 10, 76, 0
10, 13653, Note_on_c, 10, 74, 55
10, 13995, Note_on_c, 10, 74, 0
10, 13995, Note_on_c, 10, 76, 55
10, 14336, Note_on_c, 10, 76, 0
10, 14336, Note_on_c, 10, 73, 55
10, 14677, Note_on_c, 10, 73, 0
10, 14677, Note_on_c, 10, 71, 55
10, 15019, Note_on_c, 10, 71, 0
10, 15019, Note_on_c, 10, 73, 55
10, 15360, Note_on_c, 10, 73, 0
10, 15360, Note_on_c, 10, 74, 54
10, 15701, Note_on_c, 10, 74, 0
10, 15701, Note_on_c, 10, 73, 61
10, 16043, Note_on_c, 10, 73, 0
10, 16043, Note_on_c, 10, 74, 68
10, 16384, Note_on_c, 10, 74, 0
10, 16384, Note_on_c, 10, 76, 74
10, 16725, Note_on_c, 10, 76, 0
10, 16725, Note_on_c, 10, 74, 81
10, 17067, Note_on_c, 10, 74, 0
10, 17067, Note_on_c, 10, 76, 88
10, 17408, Note_on_c, 10, 76, 0
10, 17408, Note_on_c, 10, 78, 99
10, 17749, Note_on_c, 10, 78, 0
10, 17749, Note_on_c, 10, 76, 97
10, 18091, Note_on_c, 10, 76, 0
10, 18091, Note_on_c, 10, 78, 97
10, 18432, Note_on_c, 10, 78, 0
10, 18432, Note_on_c, 10, 71, 97
10, 18773, Note_on_c, 10, 71, 0
10, 18773, Note_on_c, 10, 73, 97
10, 19115, Note_on_c, 10, 73, 0
10, 19115, Note_on_c, 10, 74, 97
10, 19456, Note_on_c, 10, 74, 0
10, 19456, Note_on_c, 10, 76, 97
10, 19797, Note_on_c, 10, 76, 0
10, 19797, Note_on_c, 10, 78, 97
10, 20139, Note_on_c, 10, 78, 0
10, 20139, Note_on_c, 10, 80, 97
10, 20480, Note_on_c, 10, 80, 0
10, 20480, Note_on_c, 10, 81, 97
10, 20821, Note_on_c, 10, 81, 0
10, 20821, Note_on_c, 10, 80, 97
10, 21163, Note_on_c, 10, 80, 0
10, 21163, Note_on_c, 10, 81, 97
10, 21504, Note_on_c, 10, 81, 0
10, 21504, Note_on_c, 10, 74, 97
10, 21845, Note_on_c, 10, 74, 0
10, 21845, Note_on_c, 10, 76, 97
10, 22187, Note_on_c, 10, 76, 0
10, 22187, Note_on_c, 10, 78, 97
10, 22528, Note_on_c, 10, 78, 0
10, 22528, Note_on_c, 10, 76, 97
10, 22869, Note_on_c, 10, 76, 0
10, 22869, Note_on_c, 10, 78, 97
10, 23211, Note_on_c, 10, 78, 0
10, 23211, Note_on_c, 10, 74, 97
10, 23552, Note_on_c, 10, 74, 0
10, 23552, Note_on_c, 10, 73, 98
10, 23893, Note_on_c, 10, 73, 0
10, 23893, Note_on_c, 10, 71, 99
10, 24235, Note_on_c, 10, 71, 0
10, 24235, Note_on_c, 10, 73, 101
10, 24576, Note_on_c, 10, 73, 0
10, 24576, Note_on_c, 10, 69, 103
10, 24917, Note_on_c, 10, 69, 0
10, 24917, Note_on_c, 10, 73, 104
10, 25259, Note_on_c, 10, 73, 0
10, 25259, Note_on_c, 10, 71, 106
10, 25600, Note_on_c, 10, 71, 0
10, 25600, Note_on_c, 10, 73, 108
10, 25941, Note_on_c, 10, 73, 0
10, 25941, Note_on_c, 10, 74, 97
10, 26283, Note_on_c, 10, 74, 0
10, 26283, Note_on_c, 10, 76, 101
10, 26624, Note_on_c, 10, 76, 0
10, 26624, Note_on_c, 10, 76, 105
10, 27494, Note_on_c, 10, 76, 0
10, 29696, Note_on_c, 10, 73, 106
10, 30037, Note_on_c, 10, 73, 0
10, 30037, Note_on_c, 10, 74, 96
10, 30379, Note_on_c, 10, 74, 0
10, 30379, Note_on_c, 10, 76, 100
10, 30720, Note_on_c, 10, 76, 0
10, 30720, Note_on_c, 10, 76, 104
10, 31590, Note_on_c, 10, 76, 0
10, 33792, Note_on_c, 10, 74, 106
10, 34133, Note_on_c, 10, 74, 0
10, 34133, Note_on_c, 10, 76, 94
10, 34475, Note_on_c, 10, 76, 0
10, 34475, Note_on_c, 10, 78, 97
10, 34816, Note_on_c, 10, 78, 0
10, 34816, Note_on_c, 10, 78, 100
10, 35686, Note_on_c, 10, 78, 0
10, 41984, Note_on_c, 10, 73, 97
10, 42325, Note_on_c, 10, 73, 0
10, 42325, Note_on_c, 10, 74, 96
10, 42667, Note_on_c, 10, 74, 0
10, 42667, Note_on_c, 10, 76, 96
10, 43008, Note_on_c, 10, 76, 0
10, 43008, Note_on_c, 10, 78, 96
10, 43349, Note_on_c, 10, 78, 0
10, 43349, Note_on_c, 10, 76, 96
10, 43691, Note_on_c, 10, 76, 0
10, 43691, Note_on_c, 10, 78, 96
10, 44032, Note_on_c, 10, 78, 0
10, 44032, Note_on_c, 10, 74, 96
10, 44373, Note_on_c, 10, 74, 0
10, 44373, Note_on_c, 10, 76, 96
10, 44715, Note_on_c, 10, 76, 0
10, 44715, Note_on_c, 10, 78, 96
10, 45056, Note_on_c, 10, 78, 0
10, 45056, Note_on_c, 10, 79, 96
10, 45397, Note_on_c, 10, 79, 0
10, 45397, Note_on_c, 10, 78, 96
10, 45739, Note_on_c, 10, 78, 0
10, 45739, Note_on_c, 10, 79, 96
10, 46080, Note_on_c, 10, 79, 0
10, 46080, Note_on_c, 10, 76, 96
10, 46421, Note_on_c, 10, 76, 0
10, 46421, Note_on_c, 10, 78, 96
10, 46763, Note_on_c, 10, 78, 0
10, 46763, Note_on_c, 10, 79, 96
10, 47104, Note_on_c, 10, 79, 0
10, 47104, Note_on_c, 10, 81, 96
10, 47445, Note_on_c, 10, 81, 0
10, 47445, Note_on_c, 10, 79, 96
10, 47787, Note_on_c, 10, 79, 0
10, 47787, Note_on_c, 10, 81, 96
10, 48128, Note_on_c, 10, 81, 0
10, 48128, Note_on_c, 10, 78, 96
10, 48469, Note_on_c, 10, 78, 0
10, 48469, Note_on_c, 10, 76, 97
10, 48811, Note_on_c, 10, 76, 0
10, 48811, Note_on_c, 10, 78, 99
10, 49152, Note_on_c, 10, 78, 0
10, 49152, Note_on_c, 10, 74, 101
10, 49493, Note_on_c, 10, 74, 0
10, 49493, Note_on_c, 10, 78, 103
10, 49835, Note_on_c, 10, 78, 0
10, 49835, Note_on_c, 10, 76, 105
10, 50176, Note_on_c, 10, 76, 0
10, 50176, Note_on_c, 10, 78, 106
10, 51046, Note_on_c, 10, 78, 0
10, 51200, Note_on_c, 10, 74, 104
10, 52070, Note_on_c, 10, 74, 0
10, 54272, Note_on_c, 10, 74, 104
10, 55142, Note_on_c, 10, 74, 0
10, 55296, Note_on_c, 10, 69, 103
10, 56166, Note_on_c, 10, 69, 0
10, 58368, Note_on_c, 10, 79, 104
10, 59238, Note_on_c, 10, 79, 0
10, 59392, Note_on_c, 10, 74, 102
10, 60262, Note_on_c, 10, 74, 0
10, 60416, Note_on_c, 10, 79, 54
10, 60757, Note_on_c, 10, 79, 0
10, 60757, Note_on_c, 10, 81, 54
10, 61099, Note_on_c, 10, 81, 0
10, 61099, Note_on_c, 10, 79, 54
10, 61440, Note_on_c, 10, 79, 0
10, 61440, Note_on_c, 10, 78, 54
10, 61781, Note_on_c, 10, 78, 0
10, 61781, Note_on_c, 10, 79, 54
10, 62123, Note_on_c, 10, 79, 0
10, 62123, Note_on_c, 10, 78, 54
10, 62464, Note_on_c, 10, 78, 0
10, 62464, Note_on_c, 10, 76, 54
10, 62805, Note_on_c, 10, 76, 0
10, 62805, Note_on_c, 10, 78, 54
10, 63147, Note_on_c, 10, 78, 0
10, 63147, Note_on_c, 10, 76, 54
10, 63488, Note_on_c, 10, 76, 0
10, 63488, Note_on_c, 10, 79, 54
10, 63829, Note_on_c, 10, 79, 0
10, 63829, Note_on_c, 10, 81, 54
10, 64171, Note_on_c, 10, 81, 0
10, 64171, Note_on_c, 10, 79, 54
10, 64512, Note_on_c, 10, 79, 0
10, 64512, Note_on_c, 10, 78, 56
10, 64853, Note_on_c, 10, 78, 0
10, 64853, Note_on_c, 10, 79, 61
10, 65195, Note_on_c, 10, 79, 0
10, 65195, Note_on_c, 10, 78, 67
10, 65536, Note_on_c, 10, 78, 0
10, 65536, Note_on_c, 10, 76, 72
10, 65877, Note_on_c, 10, 76, 0
10, 65877, Note_on_c, 10, 78, 77
10, 66219, Note_on_c, 10, 78, 0
10, 66219, Note_on_c, 10, 76, 83
10, 66560, Note_on_c, 10, 76, 0
10, 66560, Note_on_c, 10, 78, 88
10, 72704, Note_on_c, 10, 78, 0
10, 72704, Note_on_c, 10, 78, 88
10, 74588, Note_on_c, 10, 78, 0
10, 74752, Note_on_c, 10, 74, 100
10, 80896, Note_on_c, 10, 74, 0
10, 80896, Note_on_c, 10, 74, 99
10, 82780, Note_on_c, 10, 74, 0
10, 82944, Note_on_c, 10, 74, 80
10, 87040, Note_on_c, 10, 74, 0
10, 87040, Note_on_c, 10, 76, 80
10, 89088, Note_on_c, 10, 76, 0
10, 89088, Note_on_c, 10, 71, 80
10, 90972, Note_on_c, 10, 71, 0
10, 91136, Note_on_c, 10, 76, 55
10, 91717, Note_on_c, 10, 76, 0
10, 91819, Note_on_c, 10, 71, 49
10, 92160, Note_on_c, 10, 71, 0
10, 92160, Note_on_c, 10, 73, 49
10, 93525, Note_on_c, 10, 73, 0
10, 93525, Note_on_c, 10, 71, 49
10, 93867, Note_on_c, 10, 71, 0
10, 93867, Note_on_c, 10, 73, 49
10, 94208, Note_on_c, 10, 73, 0
10, 94208, Note_on_c, 10, 71, 49
10, 95573, Note_on_c, 10, 71, 0
10, 95573, Note_on_c, 10, 70, 49
10, 95915, Note_on_c, 10, 70, 0
10, 95915, Note_on_c, 10, 71, 49
10, 96256, Note_on_c, 10, 71, 0
10, 96256, Note_on_c, 10, 70, 49
10, 96837, Note_on_c, 10, 70, 0
10, 96939, Note_on_c, 10, 70, 49
10, 97280, Note_on_c, 10, 70, 0
10, 97280, Note_on_c, 10, 71, 48
10, 98150, Note_on_c, 10, 71, 0
10, 99328, Note_on_c, 10, 76, 40
10, 100198, Note_on_c, 10, 76, 0
10, 100352, Note_on_c, 10, 71, 40
10, 101222, Note_on_c, 10, 71, 0
10, 101376, Note_on_c, 10, 79, 40
10, 101717, Note_on_c, 10, 79, 0
10, 101717, Note_on_c, 10, 81, 40
10, 102059, Note_on_c, 10, 81, 0
10, 102059, Note_on_c, 10, 79, 40
10, 102400, Note_on_c, 10, 79, 0
10, 102400, Note_on_c, 10, 76, 40
10, 102741, Note_on_c, 10, 76, 0
10, 102741, Note_on_c, 10, 78, 40
10, 103083, Note_on_c, 10, 78, 0
10, 103083, Note_on_c, 10, 76, 40
10, 103424, Note_on_c, 10, 76, 0
10, 103424, Note_on_c, 10, 73, 40
10, 103765, Note_on_c, 10, 73, 0
10, 103765, Note_on_c, 10, 71, 40
10, 104107, Note_on_c, 10, 71, 0
10, 104107, Note_on_c, 10, 73, 40
10, 104448, Note_on_c, 10, 73, 0
10, 104448, Note_on_c, 10, 76, 40
10, 104789, Note_on_c, 10, 76, 0
10, 104789, Note_on_c, 10, 74, 40
10, 105131, Note_on_c, 10, 74, 0
10, 105131, Note_on_c, 10, 76, 40
10, 105472, Note_on_c, 10, 76, 0
10, 105472, Note_on_c, 10, 81, 40
10, 106342, Note_on_c, 10, 81, 0
10, 106496, Note_on_c, 10, 73, 40
10, 107366, Note_on_c, 10, 73, 0
10, 107520, Note_on_c, 10, 74, 40
10, 108390, Note_on_c, 10, 74, 0
10, 108544, Note_on_c, 10, 69, 40
10, 109414, Note_on_c, 10, 69, 0
10, 109568, Note_on_c, 10, 78, 40
10, 109909, Note_on_c, 10, 78, 0
10, 109909, Note_on_c, 10, 79, 40
10, 110251, Note_on_c, 10, 79, 0
10, 110251, Note_on_c, 10, 78, 40
10, 110592, Note_on_c, 10, 78, 0
10, 110592, Note_on_c, 10, 74, 40
10, 110933, Note_on_c, 10, 74, 0
10, 110933, Note_on_c, 10, 76, 40
10, 111275, Note_on_c, 10, 76, 0
10, 111275, Note_on_c, 10, 74, 40
10, 111616, Note_on_c, 10, 74, 0
10, 111616, Note_on_c, 10, 71, 40
10, 111957, Note_on_c, 10, 71, 0
10, 111957, Note_on_c, 10, 73, 40
10, 112299, Note_on_c, 10, 73, 0
10, 112299, Note_on_c, 10, 74, 41
10, 112640, Note_on_c, 10, 74, 0
10, 112640, Note_on_c, 10, 67, 41
10, 112981, Note_on_c, 10, 67, 0
10, 112981, Note_on_c, 10, 69, 42
10, 113323, Note_on_c, 10, 69, 0
10, 113323, Note_on_c, 10, 71, 42
10, 113664, Note_on_c, 10, 71, 0
10, 113664, Note_on_c, 10, 69, 43
10, 114245, Note_on_c, 10, 69, 0
10, 114347, Note_on_c, 10, 69, 44
10, 114688, Note_on_c, 10, 69, 0
10, 114688, Note_on_c, 10, 66, 45
10, 115558, Note_on_c, 10, 66, 0
10, 115712, Note_on_c, 10, 67, 46
10, 116582, Note_on_c, 10, 67, 0
10, 116736, Note_on_c, 10, 69, 48
10, 117606, Note_on_c, 10, 69, 0
10, 117760, Note_on_c, 10, 69, 50
10, 118341, Note_on_c, 10, 69, 0
10, 118443, Note_on_c, 10, 69, 51
10, 118784, Note_on_c, 10, 69, 0
10, 118784, Note_on_c, 10, 69, 51
10, 119654, Note_on_c, 10, 69, 0
10, 129024, Note_on_c, 10, 71, 52
10, 130389, Note_on_c, 10, 71, 0
10, 130389, Note_on_c, 10, 73, 54
10, 130731, Note_on_c, 10, 73, 0
10, 130731, Note_on_c, 10, 71, 58
10, 131072, Note_on_c, 10, 71, 0
10, 131072, Note_on_c, 10, 69, 61
10, 131413, Note_on_c, 10, 69, 0
10, 131413, Note_on_c, 10, 71, 65
10, 131755, Note_on_c, 10, 71, 0
10, 131755, Note_on_c, 10, 67, 69
10, 132096, Note_on_c, 10, 67, 0
10, 132096, Note_on_c, 10, 66, 72
10, 132437, Note_on_c, 10, 66, 0
10, 132437, Note_on_c, 10, 68, 73
10, 132779, Note_on_c, 10, 68, 0
10, 132779, Note_on_c, 10, 69, 74
10, 133120, Note_on_c, 10, 69, 0
10, 133120, Note_on_c, 10, 71, 75
10, 133461, Note_on_c, 10, 71, 0
10, 133461, Note_on_c, 10, 69, 76
10, 133803, Note_on_c, 10, 69, 0
10, 133803, Note_on_c, 10, 71, 77
10, 134144, Note_on_c, 10, 71, 0
10, 134144, Note_on_c, 10, 74, 78
10, 134485, Note_on_c, 10, 74, 0
10, 134485, Note_on_c, 10, 76, 79
10, 134827, Note_on_c, 10, 76, 0
10, 134827, Note_on_c, 10, 74, 80
10, 135168, Note_on_c, 10, 74, 0
10, 135168, Note_on_c, 10, 73, 81
10, 135509, Note_on_c, 10, 73, 0
10, 135509, Note_on_c, 10, 74, 82
10, 135851, Note_on_c, 10, 74, 0
10, 135851, Note_on_c, 10, 71, 82
10, 136192, Note_on_c, 10, 71, 0
10, 136192, Note_on_c, 10, 69, 83
10, 136533, Note_on_c, 10, 69, 0
10, 136533, Note_on_c, 10, 71, 84
10, 136875, Note_on_c, 10, 71, 0
10, 136875, Note_on_c, 10, 73, 85
10, 137216, Note_on_c, 10, 73, 0
10, 137216, Note_on_c, 10, 74, 86
10, 137557, Note_on_c, 10, 74, 0
10, 137557, Note_on_c, 10, 73, 87
10, 137899, Note_on_c, 10, 73, 0
10, 137899, Note_on_c, 10, 74, 88
10, 138240, Note_on_c, 10, 74, 0
10, 138240, Note_on_c, 10, 71, 89
10, 138581, Note_on_c, 10, 71, 0
10, 138581, Note_on_c, 10, 73, 90
10, 138923, Note_on_c, 10, 73, 0
10, 138923, Note_on_c, 10, 74, 91
10, 139264, Note_on_c, 10, 74, 0
10, 139264, Note_on_c, 10, 76, 92
10, 139605, Note_on_c, 10, 76, 0
10, 139605, Note_on_c, 10, 74, 92
10, 139947, Note_on_c, 10, 74, 0
10, 139947, Note_on_c, 10, 76, 93
10, 140288, Note_on_c, 10, 76, 0
10, 140288, Note_on_c, 10, 73, 94
10, 146432, Note_on_c, 10, 73, 0
10, 146432, Note_on_c, 10, 73, 94
10, 148316, Note_on_c, 10, 73, 0
10, 148480, Note_on_c, 10, 73, 94
10, 152576, Note_on_c, 10, 73, 0
10, 152576, Note_on_c, 10, 74, 94
10, 154624, Note_on_c, 10, 74, 0
10, 154624, Note_on_c, 10, 69, 94
10, 156508, Note_on_c, 10, 69, 0
10, 156672, Note_on_c, 10, 78, 94
10, 162816, Note_on_c, 10, 78, 0
10, 162816, Note_on_c, 10, 78, 84
10, 164700, Note_on_c, 10, 78, 0
10, 164864, Note_on_c, 10, 71, 58
10, 165205, Note_on_c, 10, 71, 0
10, 165205, Note_on_c, 10, 70, 58
10, 165547, Note_on_c, 10, 70, 0
10, 165547, Note_on_c, 10, 71, 58
10, 165888, Note_on_c, 10, 71, 0
10, 165888, Note_on_c, 10, 74, 58
10, 166229, Note_on_c, 10, 74, 0
10, 166229, Note_on_c, 10, 73, 58
10, 166571, Note_on_c, 10, 73, 0
10, 166571, Note_on_c, 10, 74, 58
10, 166912, Note_on_c, 10, 74, 0
10, 166912, Note_on_c, 10, 78, 58
10, 167782, Note_on_c, 10, 78, 0
10, 167936, Note_on_c, 10, 71, 58
10, 168806, Note_on_c, 10, 71, 0
10, 168960, Note_on_c, 10, 71, 58
10, 169830, Note_on_c, 10, 71, 0
10, 169984, Note_on_c, 10, 68, 58
10, 170854, Note_on_c, 10, 68, 0
10, 171008, Note_on_c, 10, 80, 58
10, 171349, Note_on_c, 10, 80, 0
10, 171349, Note_on_c, 10, 81, 58
10, 171691, Note_on_c, 10, 81, 0
10, 171691, Note_on_c, 10, 80, 58
10, 172032, Note_on_c, 10, 80, 0
10, 172032, Note_on_c, 10, 76, 58
10, 172373, Note_on_c, 10, 76, 0
10, 172373, Note_on_c, 10, 78, 58
10, 172715, Note_on_c, 10, 78, 0
10, 172715, Note_on_c, 10, 76, 58
10, 173056, Note_on_c, 10, 76, 0
10, 173056, Note_on_c, 10, 73, 58
10, 173397, Note_on_c, 10, 73, 0
10, 173397, Note_on_c, 10, 71, 58
10, 173739, Note_on_c, 10, 71, 0
10, 173739, Note_on_c, 10, 73, 58
10, 174080, Note_on_c, 10, 73, 0
10, 174080, Note_on_c, 10, 76, 58
10, 174421, Note_on_c, 10, 76, 0
10, 174421, Note_on_c, 10, 74, 58
10, 174763, Note_on_c, 10, 74, 0
10, 174763, Note_on_c, 10, 76, 58
10, 175104, Note_on_c, 10, 76, 0
10, 175104, Note_on_c, 10, 81, 58
10, 175974, Note_on_c, 10, 81, 0
10, 176128, Note_on_c, 10, 73, 58
10, 176998, Note_on_c, 10, 73, 0
10, 177152, Note_on_c, 10, 78, 64
10, 178022, Note_on_c, 10, 78, 0
10, 178176, Note_on_c, 10, 78, 62
10, 179046, Note_on_c, 10, 78, 0
10, 179200, Note_on_c, 10, 77, 66
10, 179541, Note_on_c, 10, 77, 0
10, 179541, Note_on_c, 10, 78, 67
10, 179883, Note_on_c, 10, 78, 0
10, 179883, Note_on_c, 10, 80, 68
10, 180224, Note_on_c, 10, 80, 0
10, 180224, Note_on_c, 10, 73, 69
10, 181094, Note_on_c, 10, 73, 0
10, 181248, Note_on_c, 10, 74, 73
10, 182118, Note_on_c, 10, 74, 0
10, 182272, Note_on_c, 10, 74, 76
10, 183142, Note_on_c, 10, 74, 0
10, 183296, Note_on_c, 10, 73, 80
10, 183637, Note_on_c, 10, 73, 0
10, 183637, Note_on_c, 10, 74, 81
10, 183979, Note_on_c, 10, 74, 0
10, 183979, Note_on_c, 10, 76, 83
10, 184320, Note_on_c, 10, 76, 0
10, 184320, Note_on_c, 10, 69, 84
10, 185190, Note_on_c, 10, 69, 0
10, 185344, Note_on_c, 10, 71, 87
10, 186214, Note_on_c, 10, 71, 0
10, 186368, Note_on_c, 10, 71, 90
10, 187238, Note_on_c, 10, 71, 0
10, 187392, Note_on_c, 10, 69, 92
10, 187733, Note_on_c, 10, 69, 0
10, 187733, Note_on_c, 10, 71, 92
10, 188075, Note_on_c, 10, 71, 0
10, 188075, Note_on_c, 10, 73, 93
10, 188416, Note_on_c, 10, 73, 0
10, 188416, Note_on_c, 10, 74, 94
10, 188757, Note_on_c, 10, 74, 0
10, 188757, Note_on_c, 10, 73, 95
10, 189099, Note_on_c, 10, 73, 0
10, 189099, Note_on_c, 10, 71, 95
10, 189440, Note_on_c, 10, 71, 0
10, 189440, Note_on_c, 10, 80, 96
10, 190021, Note_on_c, 10, 80, 0
10, 190123, Note_on_c, 10, 73, 97
10, 190464, Note_on_c, 10, 73, 0
10, 190464, Note_on_c, 10, 78, 98
10, 192512, Note_on_c, 10, 78, 0
10, 192512, Note_on_c, 10, 77, 100
10, 193195, Note_on_c, 10, 77, 0
10, 193195, Note_on_c, 10, 78, 100
10, 193536, Note_on_c, 10, 78, 0
10, 193536, Note_on_c, 10, 78, 100
10, 193792, Note_on_c, 10, 78, 0
10, 211968, Note_on_c, 10, 69, 55
10, 212224, Note_on_c, 10, 69, 0
10, 212480, Note_on_c, 10, 69, 50
10, 212736, Note_on_c, 10, 69, 0
10, 212992, Note_on_c, 10, 69, 50
10, 213248, Note_on_c, 10, 69, 0
10, 213504, Note_on_c, 10, 78, 57
10, 213760, Note_on_c, 10, 78, 0
10, 214016, Note_on_c, 10, 78, 50
10, 214272, Note_on_c, 10, 78, 0
10, 214528, Note_on_c, 10, 78, 50
10, 214784, Note_on_c, 10, 78, 0
10, 215040, Note_on_c, 10, 71, 57
10, 215552, Note_on_c, 10, 71, 0
10, 215552, Note_on_c, 10, 71, 50
10, 215808, Note_on_c, 10, 71, 0
10, 216064, Note_on_c, 10, 73, 50
10, 216320, Note_on_c, 10, 73, 0
10, 216320, Note_on_c, 10, 74, 51
10, 216576, Note_on_c, 10, 74, 0
10, 216576, Note_on_c, 10, 76, 51
10, 216832, Note_on_c, 10, 76, 0
10, 216832, Note_on_c, 10, 78, 52
10, 217088, Note_on_c, 10, 78, 0
10, 217088, Note_on_c, 10, 79, 52
10, 217344, Note_on_c, 10, 79, 0
10, 217344, Note_on_c, 10, 78, 52
10, 217600, Note_on_c, 10, 78, 0
10, 217600, Note_on_c, 10, 76, 53
10, 217856, Note_on_c, 10, 76, 0
10, 217856, Note_on_c, 10, 74, 53
10, 218112, Note_on_c, 10, 74, 0
10, 218112, Note_on_c, 10, 73, 54
10, 218368, Note_on_c, 10, 73, 0
10, 218624, Note_on_c, 10, 71, 55
10, 218880, Note_on_c, 10, 71, 0
10, 218880, Note_on_c, 10, 69, 55
10, 219136, Note_on_c, 10, 69, 0
10, 219136, Note_on_c, 10, 74, 56
10, 219904, Note_on_c, 10, 74, 0
10, 219904, Note_on_c, 10, 76, 57
10, 220160, Note_on_c, 10, 76, 0
10, 220160, Note_on_c, 10, 73, 57
10, 220928, Note_on_c, 10, 73, 0
10, 220928, Note_on_c, 10, 74, 59
10, 221184, Note_on_c, 10, 74, 0
10, 221184, Note_on_c, 10, 74, 60
10, 221440, Note_on_c, 10, 74, 0
10, 221696, Note_on_c, 10, 78, 62
10, 221952, Note_on_c, 10, 78, 0
10, 221952, Note_on_c, 10, 79, 62
10, 222208, Note_on_c, 10, 79, 0
10, 222208, Note_on_c, 10, 78, 63
10, 222464, Note_on_c, 10, 78, 0
10, 222464, Note_on_c, 10, 76, 63
10, 222720, Note_on_c, 10, 76, 0
10, 222720, Note_on_c, 10, 74, 64
10, 222976, Note_on_c, 10, 74, 0
10, 222976, Note_on_c, 10, 73, 64
10, 223232, Note_on_c, 10, 73, 0
10, 223232, Note_on_c, 10, 71, 65
10, 223488, Note_on_c, 10, 71, 0
10, 223488, Note_on_c, 10, 73, 65
10, 223744, Note_on_c, 10, 73, 0
10, 223744, Note_on_c, 10, 74, 66
10, 224000, Note_on_c, 10, 74, 0
10, 224000, Note_on_c, 10, 71, 67
10, 224256, Note_on_c, 10, 71, 0
10, 224256, Note_on_c, 10, 73, 67
10, 224512, Note_on_c, 10, 73, 0
10, 224512, Note_on_c, 10, 74, 68
10, 224768, Note_on_c, 10, 74, 0
10, 224768, Note_on_c, 10, 76, 68
10, 225024, Note_on_c, 10, 76, 0
10, 225024, Note_on_c, 10, 78, 69
10, 225280, Note_on_c, 10, 78, 0
10, 225280, Note_on_c, 10, 76, 69
10, 225536, Note_on_c, 10, 76, 0
10, 225536, Note_on_c, 10, 74, 70
10, 225792, Note_on_c, 10, 74, 0
10, 225792, Note_on_c, 10, 73, 71
10, 226048, Note_on_c, 10, 73, 0
10, 226048, Note_on_c, 10, 71, 71
10, 226304, Note_on_c, 10, 71, 0
10, 226304, Note_on_c, 10, 69, 72
10, 226560, Note_on_c, 10, 69, 0
10, 226816, Note_on_c, 10, 73, 73
10, 227072, Note_on_c, 10, 73, 0
10, 227328, Note_on_c, 10, 74, 74
10, 228096, Note_on_c, 10, 74, 0
10, 228096, Note_on_c, 10, 76, 77
10, 228224, Note_on_c, 10, 76, 0
10, 228224, Note_on_c, 10, 74, 78
10, 228352, Note_on_c, 10, 74, 0
10, 228352, Note_on_c, 10, 73, 78
10, 228608, Note_on_c, 10, 73, 0
10, 228608, Note_on_c, 10, 74, 79
10, 228864, Note_on_c, 10, 74, 0
10, 228864, Note_on_c, 10, 76, 80
10, 229120, Note_on_c, 10, 76, 0
10, 229120, Note_on_c, 10, 74, 81
10, 229376, Note_on_c, 10, 74, 0
10, 229376, Note_on_c, 10, 76, 82
10, 229632, Note_on_c, 10, 76, 0
10, 229632, Note_on_c, 10, 78, 83
10, 229888, Note_on_c, 10, 78, 0
10, 229888, Note_on_c, 10, 76, 84
10, 230144, Note_on_c, 10, 76, 0
10, 230144, Note_on_c, 10, 74, 84
10, 230400, Note_on_c, 10, 74, 0
10, 230400, Note_on_c, 10, 73, 89
10, 230912, Note_on_c, 10, 73, 0
10, 230912, Note_on_c, 10, 69, 89
10, 231168, Note_on_c, 10, 69, 0
10, 231424, Note_on_c, 10, 69, 89
10, 231680, Note_on_c, 10, 69, 0
10, 231680, Note_on_c, 10, 71, 89
10, 231936, Note_on_c, 10, 71, 0
10, 231936, Note_on_c, 10, 73, 89
10, 232192, Note_on_c, 10, 73, 0
10, 232192, Note_on_c, 10, 74, 89
10, 232448, Note_on_c, 10, 74, 0
10, 232448, Note_on_c, 10, 76, 89
10, 232704, Note_on_c, 10, 76, 0
10, 232704, Note_on_c, 10, 74, 89
10, 232960, Note_on_c, 10, 74, 0
10, 232960, Note_on_c, 10, 73, 89
10, 233216, Note_on_c, 10, 73, 0
10, 233216, Note_on_c, 10, 76, 89
10, 233472, Note_on_c, 10, 76, 0
10, 233472, Note_on_c, 10, 74, 89
10, 233728, Note_on_c, 10, 74, 0
10, 233984, Note_on_c, 10, 74, 89
10, 234240, Note_on_c, 10, 74, 0
10, 234496, Note_on_c, 10, 74, 89
10, 234752, Note_on_c, 10, 74, 0
10, 235008, Note_on_c, 10, 74, 89
10, 235264, Note_on_c, 10, 74, 0
10, 235264, Note_on_c, 10, 71, 89
10, 235520, Note_on_c, 10, 71, 0
10, 235520, Note_on_c, 10, 76, 89
10, 235776, Note_on_c, 10, 76, 0
10, 235776, Note_on_c, 10, 74, 89
10, 236032, Note_on_c, 10, 74, 0
10, 236032, Note_on_c, 10, 76, 89
10, 236800, Note_on_c, 10, 76, 0
10, 236800, Note_on_c, 10, 73, 89
10, 237056, Note_on_c, 10, 73, 0
10, 237056, Note_on_c, 10, 74, 89
10, 237312, Note_on_c, 10, 74, 0
10, 237312, Note_on_c, 10, 76, 89
10, 237568, Note_on_c, 10, 76, 0
10, 237568, Note_on_c, 10, 74, 89
10, 237824, Note_on_c, 10, 74, 0
10, 237824, Note_on_c, 10, 76, 89
10, 238080, Note_on_c, 10, 76, 0
10, 238080, Note_on_c, 10, 78, 89
10, 238336, Note_on_c, 10, 78, 0
10, 238336, Note_on_c, 10, 76, 89
10, 238592, Note_on_c, 10, 76, 0
10, 238592, Note_on_c, 10, 76, 89
10, 240128, Note_on_c, 10, 76, 0
10, 240128, Note_on_c, 10, 74, 82
10, 240384, Note_on_c, 10, 74, 0
10, 241664, Note_on_c, 10, 76, 52
10, 241920, Note_on_c, 10, 76, 0
10, 241920, Note_on_c, 10, 78, 52
10, 242176, Note_on_c, 10, 78, 0
10, 242176, Note_on_c, 10, 79, 52
10, 242432, Note_on_c, 10, 79, 0
10, 242432, Note_on_c, 10, 76, 52
10, 242688, Note_on_c, 10, 76, 0
10, 242688, Note_on_c, 10, 78, 57
10, 242944, Note_on_c, 10, 78, 0
10, 242944, Note_on_c, 10, 79, 52
10, 243200, Note_on_c, 10, 79, 0
10, 243200, Note_on_c, 10, 76, 52
10, 243456, Note_on_c, 10, 76, 0
10, 243456, Note_on_c, 10, 78, 52
10, 243712, Note_on_c, 10, 78, 0
10, 243712, Note_on_c, 10, 79, 52
10, 243968, Note_on_c, 10, 79, 0
10, 243968, Note_on_c, 10, 76, 52
10, 244224, Note_on_c, 10, 76, 0
10, 244224, Note_on_c, 10, 78, 52
10, 244480, Note_on_c, 10, 78, 0
10, 244480, Note_on_c, 10, 79, 52
10, 244736, Note_on_c, 10, 79, 0
10, 244736, Note_on_c, 10, 81, 52
10, 244992, Note_on_c, 10, 81, 0
10, 244992, Note_on_c, 10, 79, 52
10, 245248, Note_on_c, 10, 79, 0
10, 245248, Note_on_c, 10, 78, 52
10, 245504, Note_on_c, 10, 78, 0
10, 245504, Note_on_c, 10, 79, 52
10, 245760, Note_on_c, 10, 79, 0
10, 245760, Note_on_c, 10, 76, 82
10, 246016, Note_on_c, 10, 76, 0
10, 246016, Note_on_c, 10, 74, 82
10, 246272, Note_on_c, 10, 74, 0
10, 246272, Note_on_c, 10, 73, 82
10, 246528, Note_on_c, 10, 73, 0
10, 246528, Note_on_c, 10, 74, 82
10, 246784, Note_on_c, 10, 74, 0
10, 246784, Note_on_c, 10, 76, 82
10, 247040, Note_on_c, 10, 76, 0
10, 247040, Note_on_c, 10, 78, 82
10, 247296, Note_on_c, 10, 78, 0
10, 247296, Note_on_c, 10, 79, 82
10, 247552, Note_on_c, 10, 79, 0
10, 247808, Note_on_c, 10, 71, 82
10, 248064, Note_on_c, 10, 71, 0
10, 248320, Note_on_c, 10, 76, 52
10, 248576, Note_on_c, 10, 76, 0
10, 248832, Note_on_c, 10, 76, 52
10, 249344, Note_on_c, 10, 76, 0
10, 249344, Note_on_c, 10, 75, 52
10, 249600, Note_on_c, 10, 75, 0
10, 253440, Note_on_c, 10, 75, 82
10, 253696, Note_on_c, 10, 75, 0
10, 253952, Note_on_c, 10, 78, 82
10, 254208, Note_on_c, 10, 78, 0
10, 254464, Note_on_c, 10, 78, 82
10, 254720, Note_on_c, 10, 78, 0
10, 254976, Note_on_c, 10, 78, 82
10, 255232, Note_on_c, 10, 78, 0
10, 255488, Note_on_c, 10, 76, 82
10, 255744, Note_on_c, 10, 76, 0
10, 256000, Note_on_c, 10, 76, 82
10, 256256, Note_on_c, 10, 76, 0
10, 256512, Note_on_c, 10, 76, 82
10, 257024, Note_on_c, 10, 76, 0
10, 257024, Note_on_c, 10, 78, 82
10, 257280, Note_on_c, 10, 78, 0
10, 257280, Note_on_c, 10, 79, 82
10, 257536, Note_on_c, 10, 79, 0
10, 257536, Note_on_c, 10, 81, 82
10, 258560, Note_on_c, 10, 81, 0
10, 258560, Note_on_c, 10, 75, 82
10, 258816, Note_on_c, 10, 75, 0
10, 259072, Note_on_c, 10, 76, 82
10, 259328, Note_on_c, 10, 76, 0
10, 259584, Note_on_c, 10, 69, 82
10, 260352, Note_on_c, 10, 69, 0
10, 260352, Note_on_c, 10, 71, 82
10, 260608, Note_on_c, 10, 71, 0
10, 260608, Note_on_c, 10, 67, 82
10, 260864, Note_on_c, 10, 67, 0
10, 260864, Note_on_c, 10, 66, 83
10, 261120, Note_on_c, 10, 66, 0
10, 261120, Note_on_c, 10, 67, 84
10, 261376, Note_on_c, 10, 67, 0
10, 261376, Note_on_c, 10, 69, 85
10, 261632, Note_on_c, 10, 69, 0
10, 261632, Note_on_c, 10, 66, 87
10, 262400, Note_on_c, 10, 66, 0
10, 262400, Note_on_c, 10, 64, 90
10, 262656, Note_on_c, 10, 64, 0
10, 262656, Note_on_c, 10, 64, 95
10, 262912, Note_on_c, 10, 64, 0
10, 263168, Note_on_c, 10, 79, 48
10, 264448, Note_on_c, 10, 79, 0
10, 264704, Note_on_c, 10, 76, 48
10, 264960, Note_on_c, 10, 76, 0
10, 265216, Note_on_c, 10, 81, 48
10, 265472, Note_on_c, 10, 81, 0
10, 265728, Note_on_c, 10, 78, 48
10, 267520, Note_on_c, 10, 78, 0
10, 267776, Note_on_c, 10, 74, 48
10, 268032, Note_on_c, 10, 74, 0
10, 268288, Note_on_c, 10, 79, 48
10, 268544, Note_on_c, 10, 79, 0
10, 268800, Note_on_c, 10, 76, 48
10, 269824, Note_on_c, 10, 76, 0
10, 269824, Note_on_c, 10, 76, 46
10, 270080, Note_on_c, 10, 76, 0
10, 270336, Note_on_c, 10, 66, 73
10, 270592, Note_on_c, 10, 66, 0
10, 270848, Note_on_c, 10, 66, 68
10, 271104, Note_on_c, 10, 66, 0
10, 271360, Note_on_c, 10, 66, 68
10, 271616, Note_on_c, 10, 66, 0
10, 271872, Note_on_c, 10, 74, 75
10, 272128, Note_on_c, 10, 74, 0
10, 272384, Note_on_c, 10, 74, 68
10, 272640, Note_on_c, 10, 74, 0
10, 272896, Note_on_c, 10, 74, 68
10, 273152, Note_on_c, 10, 74, 0
10, 273408, Note_on_c, 10, 68, 75
10, 273920, Note_on_c, 10, 68, 0
10, 273920, Note_on_c, 10, 68, 68
10, 274176, Note_on_c, 10, 68, 0
10, 274432, Note_on_c, 10, 70, 68
10, 274688, Note_on_c, 10, 70, 0
10, 274688, Note_on_c, 10, 71, 68
10, 274944, Note_on_c, 10, 71, 0
10, 274944, Note_on_c, 10, 73, 68
10, 275200, Note_on_c, 10, 73, 0
10, 275200, Note_on_c, 10, 74, 69
10, 275456, Note_on_c, 10, 74, 0
10, 275456, Note_on_c, 10, 76, 69
10, 275712, Note_on_c, 10, 76, 0
10, 275712, Note_on_c, 10, 74, 70
10, 275968, Note_on_c, 10, 74, 0
10, 275968, Note_on_c, 10, 73, 70
10, 276224, Note_on_c, 10, 73, 0
10, 276224, Note_on_c, 10, 71, 70
10, 276480, Note_on_c, 10, 71, 0
10, 276480, Note_on_c, 10, 70, 71
10, 276736, Note_on_c, 10, 70, 0
10, 276992, Note_on_c, 10, 68, 72
10, 277248, Note_on_c, 10, 68, 0
10, 277248, Note_on_c, 10, 66, 72
10, 277504, Note_on_c, 10, 66, 0
10, 277504, Note_on_c, 10, 71, 72
10, 278272, Note_on_c, 10, 71, 0
10, 278272, Note_on_c, 10, 73, 73
10, 278528, Note_on_c, 10, 73, 0
10, 278528, Note_on_c, 10, 70, 74
10, 279296, Note_on_c, 10, 70, 0
10, 279296, Note_on_c, 10, 71, 75
10, 279552, Note_on_c, 10, 71, 0
10, 279552, Note_on_c, 10, 71, 75
10, 279808, Note_on_c, 10, 71, 0
10, 285696, Note_on_c, 10, 78, 39
10, 285952, Note_on_c, 10, 78, 0
10, 286208, Note_on_c, 10, 78, 42
10, 286464, Note_on_c, 10, 78, 0
10, 286720, Note_on_c, 10, 78, 45
10, 286976, Note_on_c, 10, 78, 0
10, 287232, Note_on_c, 10, 78, 49
10, 287488, Note_on_c, 10, 78, 0
10, 287744, Note_on_c, 10, 74, 52
10, 288000, Note_on_c, 10, 74, 0
10, 289280, Note_on_c, 10, 73, 62
10, 289536, Note_on_c, 10, 73, 0
10, 289536, Note_on_c, 10, 74, 63
10, 289792, Note_on_c, 10, 74, 0
10, 289792, Note_on_c, 10, 76, 65
10, 290048, Note_on_c, 10, 76, 0
10, 290048, Note_on_c, 10, 73, 67
10, 290304, Note_on_c, 10, 73, 0
10, 290304, Note_on_c, 10, 74, 68
10, 290560, Note_on_c, 10, 74, 0
10, 290560, Note_on_c, 10, 76, 70
10, 290816, Note_on_c, 10, 76, 0
10, 290816, Note_on_c, 10, 73, 72
10, 291072, Note_on_c, 10, 73, 0
10, 291072, Note_on_c, 10, 74, 73
10, 291328, Note_on_c, 10, 74, 0
10, 291328, Note_on_c, 10, 76, 75
10, 291584, Note_on_c, 10, 76, 0
10, 291584, Note_on_c, 10, 73, 76
10, 291840, Note_on_c, 10, 73, 0
10, 291840, Note_on_c, 10, 74, 78
10, 292608, Note_on_c, 10, 74, 0
10, 292608, Note_on_c, 10, 74, 83
10, 292864, Note_on_c, 10, 74, 0
10, 292864, Note_on_c, 10, 69, 85
10, 293120, Note_on_c, 10, 69, 0
10, 293376, Note_on_c, 10, 69, 88
10, 293632, Note_on_c, 10, 69, 0
10, 293888, Note_on_c, 10, 69, 88
10, 294144, Note_on_c, 10, 69, 0
10, 294400, Note_on_c, 10, 69, 88
10, 294656, Note_on_c, 10, 69, 0
10, 294912, Note_on_c, 10, 78, 88
10, 295168, Note_on_c, 10, 78, 0
10, 295424, Note_on_c, 10, 78, 88
10, 295680, Note_on_c, 10, 78, 0
10, 295936, Note_on_c, 10, 78, 88
10, 296192, Note_on_c, 10, 78, 0
10, 296448, Note_on_c, 10, 71, 88
10, 296960, Note_on_c, 10, 71, 0
10, 296960, Note_on_c, 10, 71, 88
10, 297216, Note_on_c, 10, 71, 0
10, 297472, Note_on_c, 10, 73, 88
10, 297728, Note_on_c, 10, 73, 0
10, 297728, Note_on_c, 10, 74, 88
10, 297984, Note_on_c, 10, 74, 0
10, 297984, Note_on_c, 10, 76, 88
10, 298240, Note_on_c, 10, 76, 0
10, 298240, Note_on_c, 10, 78, 88
10, 298496, Note_on_c, 10, 78, 0
10, 298496, Note_on_c, 10, 79, 89
10, 298752, Note_on_c, 10, 79, 0
10, 298752, Note_on_c, 10, 78, 89
10, 299008, Note_on_c, 10, 78, 0
10, 299008, Note_on_c, 10, 76, 90
10, 299264, Note_on_c, 10, 76, 0
10, 299264, Note_on_c, 10, 74, 91
10, 299520, Note_on_c, 10, 74, 0
10, 299520, Note_on_c, 10, 73, 92
10, 299776, Note_on_c, 10, 73, 0
10, 300032, Note_on_c, 10, 71, 93
10, 300288, Note_on_c, 10, 71, 0
10, 300288, Note_on_c, 10, 69, 94
10, 300544, Note_on_c, 10, 69, 0
10, 300544, Note_on_c, 10, 74, 95
10, 301312, Note_on_c, 10, 74, 0
10, 301312, Note_on_c, 10, 76, 97
10, 301568, Note_on_c, 10, 76, 0
10, 301568, Note_on_c, 10, 73, 98
10, 302336, Note_on_c, 10, 73, 0
10, 302336, Note_on_c, 10, 74, 100
10, 302592, Note_on_c, 10, 74, 0
10, 302592, Note_on_c, 10, 74, 102
10, 302848, Note_on_c, 10, 74, 0
10, 303104, Note_on_c, 10, 78, 44
10, 303360, Note_on_c, 10, 78, 0
10, 303360, Note_on_c, 10, 79, 44
10, 303616, Note_on_c, 10, 79, 0
10, 303616, Note_on_c, 10, 78, 44
10, 303872, Note_on_c, 10, 78, 0
10, 303872, Note_on_c, 10, 76, 44
10, 304128, Note_on_c, 10, 76, 0
10, 304128, Note_on_c, 10, 74, 44
10, 304384, Note_on_c, 10, 74, 0
10, 304384, Note_on_c, 10, 73, 44
10, 304640, Note_on_c, 10, 73, 0
10, 304640, Note_on_c, 10, 71, 44
10, 304896, Note_on_c, 10, 71, 0
10, 304896, Note_on_c, 10, 73, 44
10, 305152, Note_on_c, 10, 73, 0
10, 305152, Note_on_c, 10, 74, 44
10, 305408, Note_on_c, 10, 74, 0
10, 305408, Note_on_c, 10, 71, 44
10, 305664, Note_on_c, 10, 71, 0
10, 305664, Note_on_c, 10, 73, 44
10, 305920, Note_on_c, 10, 73, 0
10, 305920, Note_on_c, 10, 74, 44
10, 306176, Note_on_c, 10, 74, 0
10, 306176, Note_on_c, 10, 76, 44
10, 306432, Note_on_c, 10, 76, 0
10, 306432, Note_on_c, 10, 78, 44
10, 306688, Note_on_c, 10, 78, 0
10, 306688, Note_on_c, 10, 76, 44
10, 306944, Note_on_c, 10, 76, 0
10, 306944, Note_on_c, 10, 74, 44
10, 307200, Note_on_c, 10, 74, 0
10, 307200, Note_on_c, 10, 73, 44
10, 307456, Note_on_c, 10, 73, 0
10, 307456, Note_on_c, 10, 71, 44
10, 307712, Note_on_c, 10, 71, 0
10, 307712, Note_on_c, 10, 69, 45
10, 307968, Note_on_c, 10, 69, 0
10, 307968, Note_on_c, 10, 71, 45
10, 308224, Note_on_c, 10, 71, 0
10, 308224, Note_on_c, 10, 73, 46
10, 308480, Note_on_c, 10, 73, 0
10, 308480, Note_on_c, 10, 76, 46
10, 308736, Note_on_c, 10, 76, 0
10, 308736, Note_on_c, 10, 74, 47
10, 308992, Note_on_c, 10, 74, 0
10, 308992, Note_on_c, 10, 73, 47
10, 309248, Note_on_c, 10, 73, 0
10, 309248, Note_on_c, 10, 74, 48
10, 309504, Note_on_c, 10, 74, 0
10, 309504, Note_on_c, 10, 76, 48
10, 309760, Note_on_c, 10, 76, 0
10, 309760, Note_on_c, 10, 73, 49
10, 310016, Note_on_c, 10, 73, 0
10, 310016, Note_on_c, 10, 74, 49
10, 310272, Note_on_c, 10, 74, 0
10, 310272, Note_on_c, 10, 76, 50
10, 310528, Note_on_c, 10, 76, 0
10, 310528, Note_on_c, 10, 74, 50
10, 310784, Note_on_c, 10, 74, 0
10, 310784, Note_on_c, 10, 76, 51
10, 311040, Note_on_c, 10, 76, 0
10, 311040, Note_on_c, 10, 78, 52
10, 311296, Note_on_c, 10, 78, 0
10, 311296, Note_on_c, 10, 76, 52
10, 311552, Note_on_c, 10, 76, 0
10, 311552, Note_on_c, 10, 74, 53
10, 311808, Note_on_c, 10, 74, 0
10, 311808, Note_on_c, 10, 73, 53
10, 312064, Note_on_c, 10, 73, 0
10, 312320, Note_on_c, 10, 69, 54
10, 312576, Note_on_c, 10, 69, 0
10, 312832, Note_on_c, 10, 76, 55
10, 313600, Note_on_c, 10, 76, 0
10, 313856, Note_on_c, 10, 81, 57
10, 314112, Note_on_c, 10, 81, 0
10, 314112, Note_on_c, 10, 79, 58
10, 314368, Note_on_c, 10, 79, 0
10, 314368, Note_on_c, 10, 78, 58
10, 314624, Note_on_c, 10, 78, 0
10, 314624, Note_on_c, 10, 76, 59
10, 314880, Note_on_c, 10, 76, 0
10, 314880, Note_on_c, 10, 74, 59
10, 315136, Note_on_c, 10, 74, 0
10, 315392, Note_on_c, 10, 79, 60
10, 316672, Note_on_c, 10, 79, 0
10, 316928, Note_on_c, 10, 71, 66
10, 317184, Note_on_c, 10, 71, 0
10, 317440, Note_on_c, 10, 76, 69
10, 317696, Note_on_c, 10, 76, 0
10, 317952, Note_on_c, 10, 76, 73
10, 318464, Note_on_c, 10, 76, 0
10, 318464, Note_on_c, 10, 64, 76
10, 318720, Note_on_c, 10, 64, 0
10, 318976, Note_on_c, 10, 74, 78
10, 319232, Note_on_c, 10, 74, 0
10, 319232, Note_on_c, 10, 76, 79
10, 319488, Note_on_c, 10, 76, 0
10, 319488, Note_on_c, 10, 78, 80
10, 319744, Note_on_c, 10, 78, 0
10, 319744, Note_on_c, 10, 76, 82
10, 320000, Note_on_c, 10, 76, 0
10, 320000, Note_on_c, 10, 76, 83
10, 320256, Note_on_c, 10, 76, 0
10, 320256, Note_on_c, 10, 79, 84
10, 320512, Note_on_c, 10, 79, 0
10, 320512, Note_on_c, 10, 78, 85
10, 320768, Note_on_c, 10, 78, 0
10, 320768, Note_on_c, 10, 76, 86
10, 321024, Note_on_c, 10, 76, 0
10, 321024, Note_on_c, 10, 74, 87
10, 321536, Note_on_c, 10, 74, 0
10, 321536, Note_on_c, 10, 69, 87
10, 321792, Note_on_c, 10, 69, 0
10, 322048, Note_on_c, 10, 66, 87
10, 322304, Note_on_c, 10, 66, 0
10, 323072, Note_on_c, 10, 74, 87
10, 323328, Note_on_c, 10, 74, 0
10, 323328, Note_on_c, 10, 72, 87
10, 323584, Note_on_c, 10, 72, 0
10, 323584, Note_on_c, 10, 71, 87
10, 323840, Note_on_c, 10, 71, 0
10, 323840, Note_on_c, 10, 74, 87
10, 324096, Note_on_c, 10, 74, 0
10, 324096, Note_on_c, 10, 79, 87
10, 324352, Note_on_c, 10, 79, 0
10, 324608, Note_on_c, 10, 76, 87
10, 324864, Note_on_c, 10, 76, 0
10, 325120, Note_on_c, 10, 71, 87
10, 325376, Note_on_c, 10, 71, 0
10, 325632, Note_on_c, 10, 72, 87
10, 325888, Note_on_c, 10, 72, 0
10, 325888, Note_on_c, 10, 74, 87
10, 326144, Note_on_c, 10, 74, 0
10, 326144, Note_on_c, 10, 76, 87
10, 326400, Note_on_c, 10, 76, 0
10, 326400, Note_on_c, 10, 74, 87
10, 326656, Note_on_c, 10, 74, 0
10, 326656, Note_on_c, 10, 72, 87
10, 326912, Note_on_c, 10, 72, 0
10, 326912, Note_on_c, 10, 71, 87
10, 327168, Note_on_c, 10, 71, 0
10, 327168, Note_on_c, 10, 69, 87
10, 327424, Note_on_c, 10, 69, 0
10, 327680, Note_on_c, 10, 67, 87
10, 327936, Note_on_c, 10, 67, 0
10, 327936, Note_on_c, 10, 66, 87
10, 328192, Note_on_c, 10, 66, 0
10, 328192, Note_on_c, 10, 71, 87
10, 328960, Note_on_c, 10, 71, 0
10, 328960, Note_on_c, 10, 72, 87
10, 329216, Note_on_c, 10, 72, 0
10, 329216, Note_on_c, 10, 69, 87
10, 329984, Note_on_c, 10, 69, 0
10, 329984, Note_on_c, 10, 71, 87
10, 330240, Note_on_c, 10, 71, 0
10, 330240, Note_on_c, 10, 71, 87
10, 330496, Note_on_c, 10, 71, 0
10, 330752, Note_on_c, 10, 76, 46
10, 331008, Note_on_c, 10, 76, 0
10, 331008, Note_on_c, 10, 78, 46
10, 331264, Note_on_c, 10, 78, 0
10, 331264, Note_on_c, 10, 79, 47
10, 331520, Note_on_c, 10, 79, 0
10, 331520, Note_on_c, 10, 76, 48
10, 331776, Note_on_c, 10, 76, 0
10, 331776, Note_on_c, 10, 81, 48
10, 332288, Note_on_c, 10, 81, 0
10, 332288, Note_on_c, 10, 69, 49
10, 332544, Note_on_c, 10, 69, 0
10, 332544, Note_on_c, 10, 71, 50
10, 332800, Note_on_c, 10, 71, 0
10, 332800, Note_on_c, 10, 73, 50
10, 333056, Note_on_c, 10, 73, 0
10, 333056, Note_on_c, 10, 69, 51
10, 333312, Note_on_c, 10, 69, 0
10, 333312, Note_on_c, 10, 74, 51
10, 333568, Note_on_c, 10, 74, 0
10, 333568, Note_on_c, 10, 73, 52
10, 333824, Note_on_c, 10, 73, 0
10, 333824, Note_on_c, 10, 74, 52
10, 334080, Note_on_c, 10, 74, 0
10, 334080, Note_on_c, 10, 76, 53
10, 334336, Note_on_c, 10, 76, 0
10, 334336, Note_on_c, 10, 78, 54
10, 334592, Note_on_c, 10, 78, 0
10, 334592, Note_on_c, 10, 74, 54
10, 334848, Note_on_c, 10, 74, 0
10, 334848, Note_on_c, 10, 71, 55
10, 335104, Note_on_c, 10, 71, 0
10, 335104, Note_on_c, 10, 69, 55
10, 335360, Note_on_c, 10, 69, 0
10, 335360, Note_on_c, 10, 71, 56
10, 335616, Note_on_c, 10, 71, 0
10, 335616, Note_on_c, 10, 73, 56
10, 335872, Note_on_c, 10, 73, 0
10, 335872, Note_on_c, 10, 74, 57
10, 336128, Note_on_c, 10, 74, 0
10, 336128, Note_on_c, 10, 71, 57
10, 336384, Note_on_c, 10, 71, 0
10, 336384, Note_on_c, 10, 79, 58
10, 336640, Note_on_c, 10, 79, 0
10, 336640, Note_on_c, 10, 78, 59
10, 336896, Note_on_c, 10, 78, 0
10, 336896, Note_on_c, 10, 76, 59
10, 337152, Note_on_c, 10, 76, 0
10, 337152, Note_on_c, 10, 74, 60
10, 337408, Note_on_c, 10, 74, 0
10, 337408, Note_on_c, 10, 73, 60
10, 337664, Note_on_c, 10, 73, 0
10, 337664, Note_on_c, 10, 71, 61
10, 337920, Note_on_c, 10, 71, 0
10, 337920, Note_on_c, 10, 73, 61
10, 338176, Note_on_c, 10, 73, 0
10, 338176, Note_on_c, 10, 74, 62
10, 338432, Note_on_c, 10, 74, 0
10, 338432, Note_on_c, 10, 76, 62
10, 338688, Note_on_c, 10, 76, 0
10, 338688, Note_on_c, 10, 78, 63
10, 338944, Note_on_c, 10, 78, 0
10, 338944, Note_on_c, 10, 79, 63
10, 339200, Note_on_c, 10, 79, 0
10, 339200, Note_on_c, 10, 76, 64
10, 339456, Note_on_c, 10, 76, 0
10, 339456, Note_on_c, 10, 78, 64
10, 339712, Note_on_c, 10, 78, 0
10, 339712, Note_on_c, 10, 76, 65
10, 339968, Note_on_c, 10, 76, 0
10, 339968, Note_on_c, 10, 74, 67
10, 340224, Note_on_c, 10, 74, 0
10, 340224, Note_on_c, 10, 73, 68
10, 340480, Note_on_c, 10, 73, 0
10, 340480, Note_on_c, 10, 71, 69
10, 340736, Note_on_c, 10, 71, 0
10, 340736, Note_on_c, 10, 74, 71
10, 340992, Note_on_c, 10, 74, 0
10, 340992, Note_on_c, 10, 76, 72
10, 342784, Note_on_c, 10, 76, 0
10, 343040, Note_on_c, 10, 73, 83
10, 343296, Note_on_c, 10, 73, 0
10, 343552, Note_on_c, 10, 69, 86
10, 343808, Note_on_c, 10, 69, 0
10, 344064, Note_on_c, 10, 78, 89
10, 344576, Note_on_c, 10, 78, 0
10, 344576, Note_on_c, 10, 74, 91
10, 344832, Note_on_c, 10, 74, 0
10, 345600, Note_on_c, 10, 69, 96
10, 345856, Note_on_c, 10, 69, 0
10, 346112, Note_on_c, 10, 69, 99
10, 346368, Note_on_c, 10, 69, 0
10, 346624, Note_on_c, 10, 69, 101
10, 346880, Note_on_c, 10, 69, 0
10, 347136, Note_on_c, 10, 78, 103
10, 347392, Note_on_c, 10, 78, 0
10, 347648, Note_on_c, 10, 78, 98
10, 347904, Note_on_c, 10, 78, 0
10, 348160, Note_on_c, 10, 78, 98
10, 348416, Note_on_c, 10, 78, 0
10, 348672, Note_on_c, 10, 71, 98
10, 349184, Note_on_c, 10, 71, 0
10, 349184, Note_on_c, 10, 71, 98
10, 349440, Note_on_c, 10, 71, 0
10, 349696, Note_on_c, 10, 73, 98
10, 349952, Note_on_c, 10, 73, 0
10, 349952, Note_on_c, 10, 74, 98
10, 350208, Note_on_c, 10, 74, 0
10, 350208, Note_on_c, 10, 76, 98
10, 350464, Note_on_c, 10, 76, 0
10, 350464, Note_on_c, 10, 78, 98
10, 350720, Note_on_c, 10, 78, 0
10, 350720, Note_on_c, 10, 79, 98
10, 350976, Note_on_c, 10, 79, 0
10, 350976, Note_on_c, 10, 78, 98
10, 351232, Note_on_c, 10, 78, 0
10, 351232, Note_on_c, 10, 76, 98
10, 351488, Note_on_c, 10, 76, 0
10, 351488, Note_on_c, 10, 74, 98
10, 351744, Note_on_c, 10, 74, 0
10, 351744, Note_on_c, 10, 73, 97
10, 352000, Note_on_c, 10, 73, 0
10, 352256, Note_on_c, 10, 71, 99
10, 352512, Note_on_c, 10, 71, 0
10, 352512, Note_on_c, 10, 69, 99
10, 352768, Note_on_c, 10, 69, 0
10, 352768, Note_on_c, 10, 74, 98
10, 353536, Note_on_c, 10, 74, 0
10, 353536, Note_on_c, 10, 76, 92
10, 353792, Note_on_c, 10, 76, 0
10, 353792, Note_on_c, 10, 73, 89
10, 354560, Note_on_c, 10, 73, 0
10, 354560, Note_on_c, 10, 74, 79
10, 354816, Note_on_c, 10, 74, 0
10, 354816, Note_on_c, 10, 74, 59
10, 355072, Note_on_c, 10, 74, 0
10, 355328, Note_on_c, 10, 72, 61
10, 355584, Note_on_c, 10, 72, 0
10, 355584, Note_on_c, 10, 71, 62
10, 355840, Note_on_c, 10, 71, 0
10, 355840, Note_on_c, 10, 72, 63
10, 356096, Note_on_c, 10, 72, 0
10, 356096, Note_on_c, 10, 74, 64
10, 356352, Note_on_c, 10, 74, 0
10, 356352, Note_on_c, 10, 71, 65
10, 356608, Note_on_c, 10, 71, 0
10, 356608, Note_on_c, 10, 73, 66
10, 356864, Note_on_c, 10, 73, 0
10, 356864, Note_on_c, 10, 74, 67
10, 357120, Note_on_c, 10, 74, 0
10, 357120, Note_on_c, 10, 73, 68
10, 357376, Note_on_c, 10, 73, 0
10, 357376, Note_on_c, 10, 74, 70
10, 357632, Note_on_c, 10, 74, 0
10, 357632, Note_on_c, 10, 76, 71
10, 357888, Note_on_c, 10, 76, 0
10, 357888, Note_on_c, 10, 73, 72
10, 358144, Note_on_c, 10, 73, 0
10, 358144, Note_on_c, 10, 74, 73
10, 358400, Note_on_c, 10, 74, 0
10, 358400, Note_on_c, 10, 76, 74
10, 358656, Note_on_c, 10, 76, 0
10, 358656, Note_on_c, 10, 74, 75
10, 358912, Note_on_c, 10, 74, 0
10, 358912, Note_on_c, 10, 76, 76
10, 359168, Note_on_c, 10, 76, 0
10, 359168, Note_on_c, 10, 78, 77
10, 359424, Note_on_c, 10, 78, 0
10, 359424, Note_on_c, 10, 74, 78
10, 359680, Note_on_c, 10, 74, 0
10, 359680, Note_on_c, 10, 76, 79
10, 359936, Note_on_c, 10, 76, 0
10, 359936, Note_on_c, 10, 78, 80
10, 360192, Note_on_c, 10, 78, 0
10, 360192, Note_on_c, 10, 76, 81
10, 360448, Note_on_c, 10, 76, 0
10, 360448, Note_on_c, 10, 78, 82
10, 360704, Note_on_c, 10, 78, 0
10, 360704, Note_on_c, 10, 79, 83
10, 360960, Note_on_c, 10, 79, 0
10, 360960, Note_on_c, 10, 76, 84
10, 361216, Note_on_c, 10, 76, 0
10, 361216, Note_on_c, 10, 78, 85
10, 361472, Note_on_c, 10, 78, 0
10, 361472, Note_on_c, 10, 79, 86
10, 361728, Note_on_c, 10, 79, 0
10, 361728, Note_on_c, 10, 78, 88
10, 361984, Note_on_c, 10, 78, 0
10, 361984, Note_on_c, 10, 79, 89
10, 362240, Note_on_c, 10, 79, 0
10, 362240, Note_on_c, 10, 81, 90
10, 362496, Note_on_c, 10, 81, 0
10, 362496, Note_on_c, 10, 78, 91
10, 362752, Note_on_c, 10, 78, 0
10, 362752, Note_on_c, 10, 79, 92
10, 363008, Note_on_c, 10, 79, 0
10, 363008, Note_on_c, 10, 81, 93
10, 363264, Note_on_c, 10, 81, 0
10, 363264, Note_on_c, 10, 79, 94
10, 363520, Note_on_c, 10, 79, 0
10, 363520, Note_on_c, 10, 78, 95
10, 363776, Note_on_c, 10, 78, 0
10, 363776, Note_on_c, 10, 79, 96
10, 364032, Note_on_c, 10, 79, 0
10, 364032, Note_on_c, 10, 76, 102
10, 364288, Note_on_c, 10, 76, 0
10, 364288, Note_on_c, 10, 74, 102
10, 364544, Note_on_c, 10, 74, 0
10, 364544, Note_on_c, 10, 76, 102
10, 364800, Note_on_c, 10, 76, 0
10, 364800, Note_on_c, 10, 78, 103
10, 365056, Note_on_c, 10, 78, 0
10, 365056, Note_on_c, 10, 79, 103
10, 365312, Note_on_c, 10, 79, 0
10, 365312, Note_on_c, 10, 76, 104
10, 365568, Note_on_c, 10, 76, 0
10, 365568, Note_on_c, 10, 78, 104
10, 365824, Note_on_c, 10, 78, 0
10, 365824, Note_on_c, 10, 79, 104
10, 366080, Note_on_c, 10, 79, 0
10, 366080, Note_on_c, 10, 76, 105
10, 366336, Note_on_c, 10, 76, 0
10, 366336, Note_on_c, 10, 78, 105
10, 366592, Note_on_c, 10, 78, 0
10, 366592, Note_on_c, 10, 79, 105
10, 366848, Note_on_c, 10, 79, 0
10, 366848, Note_on_c, 10, 76, 106
10, 367104, Note_on_c, 10, 76, 0
10, 367104, Note_on_c, 10, 78, 106
10, 367360, Note_on_c, 10, 78, 0
10, 367360, Note_on_c, 10, 79, 107
10, 367616, Note_on_c, 10, 79, 0
10, 367616, Note_on_c, 10, 81, 107
10, 367872, Note_on_c, 10, 81, 0
10, 367872, Note_on_c, 10, 79, 107
10, 368128, Note_on_c, 10, 79, 0
10, 368128, Note_on_c, 10, 78, 108
10, 368384, Note_on_c, 10, 78, 0
10, 368384, Note_on_c, 10, 79, 108
10, 368640, Note_on_c, 10, 79, 0
10, 368640, Note_on_c, 10, 76, 108
10, 368896, Note_on_c, 10, 76, 0
10, 368896, Note_on_c, 10, 73, 109
10, 369152, Note_on_c, 10, 73, 0
10, 369152, Note_on_c, 10, 74, 109
10, 369408, Note_on_c, 10, 74, 0
10, 369408, Note_on_c, 10, 76, 110
10, 369664, Note_on_c, 10, 76, 0
10, 369664, Note_on_c, 10, 78, 110
10, 369920, Note_on_c, 10, 78, 0
10, 369920, Note_on_c, 10, 79, 110
10, 370176, Note_on_c, 10, 79, 0
10, 370176, Note_on_c, 10, 81, 111
10, 370432, Note_on_c, 10, 81, 0
10, 370432, Note_on_c, 10, 79, 111
10, 370688, Note_on_c, 10, 79, 0
10, 370688, Note_on_c, 10, 78, 111
10, 370944, Note_on_c, 10, 78, 0
10, 370944, Note_on_c, 10, 76, 112
10, 371200, Note_on_c, 10, 76, 0
10, 371200, Note_on_c, 10, 74, 112
10, 371456, Note_on_c, 10, 74, 0
10, 371456, Note_on_c, 10, 73, 113
10, 371712, Note_on_c, 10, 73, 0
10, 371712, Note_on_c, 10, 74, 113
10, 371968, Note_on_c, 10, 74, 0
10, 371968, Note_on_c, 10, 71, 113
10, 372224, Note_on_c, 10, 71, 0
10, 372224, Note_on_c, 10, 73, 114
10, 372480, Note_on_c, 10, 73, 0
10, 372480, Note_on_c, 10, 74, 114
10, 372736, Note_on_c, 10, 74, 0
10, 372736, Note_on_c, 10, 76, 114
10, 372992, Note_on_c, 10, 76, 0
10, 372992, Note_on_c, 10, 78, 115
10, 373248, Note_on_c, 10, 78, 0
10, 373248, Note_on_c, 10, 79, 115
10, 373504, Note_on_c, 10, 79, 0
10, 373504, Note_on_c, 10, 78, 116
10, 373760, Note_on_c, 10, 78, 0
10, 373760, Note_on_c, 10, 76, 116
10, 374016, Note_on_c, 10, 76, 0
10, 374016, Note_on_c, 10, 74, 116
10, 374272, Note_on_c, 10, 74, 0
10, 374272, Note_on_c, 10, 73, 117
10, 374528, Note_on_c, 10, 73, 0
10, 374528, Note_on_c, 10, 71, 117
10, 374784, Note_on_c, 10, 71, 0
10, 374784, Note_on_c, 10, 69, 117
10, 375552, Note_on_c, 10, 69, 0
10, 375552, Note_on_c, 10, 79, 119
10, 375808, Note_on_c, 10, 79, 0
10, 375808, Note_on_c, 10, 78, 119
10, 376576, Note_on_c, 10, 78, 0
10, 376576, Note_on_c, 10, 76, 121
10, 376832, Note_on_c, 10, 76, 0
10, 376832, Note_on_c, 10, 76, 121
10, 377600, Note_on_c, 10, 76, 0
10, 377600, Note_on_c, 10, 74, 123
10, 377856, Note_on_c, 10, 74, 0
10, 377856, Note_on_c, 10, 74, 123
10, 379392, Control_c, 10, 121, 127
10, 379392, Note_on_c, 10, 74, 0
10, 379392, End_track
11, 0, Start_track
11, 0, Title_t, "Soprano II"
11, 0, Program_c, 11, 52
11, 0, Control_c, 11, 121, 127
11, 0, Control_c, 11, 91, 127
11, 0, Control_c, 11, 1, 10
11, 0, Control_c, 11, 10, 40
11, 1024, Note_on_c, 11, 74, 108
11, 1894, Note_on_c, 11, 74, 0
11, 2048, Note_on_c, 11, 69, 106
11, 2918, Note_on_c, 11, 69, 0
11, 3072, Note_on_c, 11, 69, 82
11, 3413, Note_on_c, 11, 69, 0
11, 3413, Note_on_c, 11, 67, 87
11, 3755, Note_on_c, 11, 67, 0
11, 3755, Note_on_c, 11, 69, 91
11, 4096, Note_on_c, 11, 69, 0
11, 4096, Note_on_c, 11, 73, 95
11, 4437, Note_on_c, 11, 73, 0
11, 4437, Note_on_c, 11, 71, 100
11, 4779, Note_on_c, 11, 71, 0
11, 4779, Note_on_c, 11, 73, 104
11, 5120, Note_on_c, 11, 73, 0
11, 5120, Note_on_c, 11, 74, 109
11, 5990, Note_on_c, 11, 74, 0
11, 6144, Note_on_c, 11, 69, 107
11, 7014, Note_on_c, 11, 69, 0
11, 7168, Note_on_c, 11, 71, 82
11, 7509, Note_on_c, 11, 71, 0
11, 7509, Note_on_c, 11, 69, 86
11, 7851, Note_on_c, 11, 69, 0
11, 7851, Note_on_c, 11, 71, 90
11, 8192, Note_on_c, 11, 71, 0
11, 8192, Note_on_c, 11, 72, 94
11, 8533, Note_on_c, 11, 72, 0
11, 8533, Note_on_c, 11, 71, 98
11, 8875, Note_on_c, 11, 71, 0
11, 8875, Note_on_c, 11, 72, 102
11, 9216, Note_on_c, 11, 72, 0
11, 9216, Note_on_c, 11, 74, 107
11, 10086, Note_on_c, 11, 74, 0
11, 10240, Note_on_c, 11, 71, 105
11, 11110, Note_on_c, 11, 71, 0
11, 11264, Note_on_c, 11, 67, 65
11, 11605, Note_on_c, 11, 67, 0
11, 11605, Note_on_c, 11, 66, 55
11, 11947, Note_on_c, 11, 66, 0
11, 11947, Note_on_c, 11, 67, 55
11, 12288, Note_on_c, 11, 67, 0
11, 12288, Note_on_c, 11, 69, 55
11, 12629, Note_on_c, 11, 69, 0
11, 12629, Note_on_c, 11, 67, 55
11, 12971, Note_on_c, 11, 67, 0
11, 12971, Note_on_c, 11, 69, 55
11, 13312, Note_on_c, 11, 69, 0
11, 13312, Note_on_c, 11, 73, 55
11, 13653, Note_on_c, 11, 73, 0
11, 13653, Note_on_c, 11, 71, 55
11, 13995, Note_on_c, 11, 71, 0
11, 13995, Note_on_c, 11, 73, 55
11, 14336, Note_on_c, 11, 73, 0
11, 14336, Note_on_c, 11, 67, 55
11, 14677, Note_on_c, 11, 67, 0
11, 14677, Note_on_c, 11, 66, 55
11, 15019, Note_on_c, 11, 66, 0
11, 15019, Note_on_c, 11, 67, 55
11, 15360, Note_on_c, 11, 67, 0
11, 15360, Note_on_c, 11, 69, 54
11, 15701, Note_on_c, 11, 69, 0
11, 15701, Note_on_c, 11, 67, 61
11, 16043, Note_on_c, 11, 67, 0
11, 16043, Note_on_c, 11, 69, 68
11, 16384, Note_on_c, 11, 69, 0
11, 16384, Note_on_c, 11, 71, 74
11, 16725, Note_on_c, 11, 71, 0
11, 16725, Note_on_c, 11, 69, 81
11, 17067, Note_on_c, 11, 69, 0
11, 17067, Note_on_c, 11, 71, 88
11, 17408, Note_on_c, 11, 71, 0
11, 17408, Note_on_c, 11, 74, 99
11, 17989, Note_on_c, 11, 74, 0
11, 18091, Note_on_c, 11, 69, 97
11, 18432, Note_on_c, 11, 69, 0
11, 18432, Note_on_c, 11, 71, 97
11, 19797, Note_on_c, 11, 71, 0
11, 19797, Note_on_c, 11, 69, 97
11, 20139, Note_on_c, 11, 69, 0
11, 20139, Note_on_c, 11, 71, 97
11, 20480, Note_on_c, 11, 71, 0
11, 20480, Note_on_c, 11, 69, 97
11, 21845, Note_on_c, 11, 69, 0
11, 21845, Note_on_c, 11, 68, 97
11, 22187, Note_on_c, 11, 68, 0
11, 22187, Note_on_c, 11, 69, 97
11, 22528, Note_on_c, 11, 69, 0
11, 22528, Note_on_c, 11, 68, 97
11, 23109, Note_on_c, 11, 68, 0
11, 23211, Note_on_c, 11, 69, 97
11, 23552, Note_on_c, 11, 69, 0
11, 23552, Note_on_c, 11, 69, 98
11, 24422, Note_on_c, 11, 69, 0
11, 24576, Note_on_c, 11, 64, 103
11, 24917, Note_on_c, 11, 64, 0
11, 24917, Note_on_c, 11, 69, 104
11, 25259, Note_on_c, 11, 69, 0
11, 25259, Note_on_c, 11, 68, 106
11, 25600, Note_on_c, 11, 68, 0
11, 25600, Note_on_c, 11, 69, 108
11, 25941, Note_on_c, 11, 69, 0
11, 25941, Note_on_c, 11, 71, 97
11, 26283, Note_on_c, 11, 71, 0
11, 26283, Note_on_c, 11, 73, 101
11, 26624, Note_on_c, 11, 73, 0
11, 26624, Note_on_c, 11, 73, 105
11, 27494, Note_on_c, 11, 73, 0
11, 29696, Note_on_c, 11, 69, 106
11, 30037, Note_on_c, 11, 69, 0
11, 30037, Note_on_c, 11, 71, 96
11, 30379, Note_on_c, 11, 71, 0
11, 30379, Note_on_c, 11, 73, 100
11, 30720, Note_on_c, 11, 73, 0
11, 30720, Note_on_c, 11, 73, 104
11, 31590, Note_on_c, 11, 73, 0
11, 33792, Note_on_c, 11, 66, 106
11, 34133, Note_on_c, 11, 66, 0
11, 34133, Note_on_c, 11, 67, 94
11, 34475, Note_on_c, 11, 67, 0
11, 34475, Note_on_c, 11, 69, 97
11, 34816, Note_on_c, 11, 69, 0
11, 34816, Note_on_c, 11, 69, 100
11, 35686, Note_on_c, 11, 69, 0
11, 41984, Note_on_c, 11, 64, 97
11, 42325, Note_on_c, 11, 64, 0
11, 42325, Note_on_c, 11, 66, 96
11, 42667, Note_on_c, 11, 66, 0
11, 42667, Note_on_c, 11, 67, 96
11, 43008, Note_on_c, 11, 67, 0
11, 43008, Note_on_c, 11, 69, 96
11, 44373, Note_on_c, 11, 69, 0
11, 44373, Note_on_c, 11, 67, 96
11, 44715, Note_on_c, 11, 67, 0
11, 44715, Note_on_c, 11, 69, 96
11, 45056, Note_on_c, 11, 69, 0
11, 45056, Note_on_c, 11, 71, 96
11, 46421, Note_on_c, 11, 71, 0
11, 46421, Note_on_c, 11, 69, 96
11, 46763, Note_on_c, 11, 69, 0
11, 46763, Note_on_c, 11, 71, 96
11, 47104, Note_on_c, 11, 71, 0
11, 47104, Note_on_c, 11, 73, 96
11, 47445, Note_on_c, 11, 73, 0
11, 47445, Note_on_c, 11, 71, 96
11, 47787, Note_on_c, 11, 71, 0
11, 47787, Note_on_c, 11, 73, 96
11, 48128, Note_on_c, 11, 73, 0
11, 48128, Note_on_c, 11, 74, 96
11, 48469, Note_on_c, 11, 74, 0
11, 48469, Note_on_c, 11, 73, 97
11, 48811, Note_on_c, 11, 73, 0
11, 48811, Note_on_c, 11, 74, 99
11, 49152, Note_on_c, 11, 74, 0
11, 49152, Note_on_c, 11, 69, 101
11, 49493, Note_on_c, 11, 69, 0
11, 49493, Note_on_c, 11, 74, 103
11, 49835, Note_on_c, 11, 74, 0
11, 49835, Note_on_c, 11, 73, 105
11, 50176, Note_on_c, 11, 73, 0
11, 50176, Note_on_c, 11, 74, 106
11, 51046, Note_on_c, 11, 74, 0
11, 51200, Note_on_c, 11, 69, 104
11, 52070, Note_on_c, 11, 69, 0
11, 54272, Note_on_c, 11, 69, 104
11, 55142, Note_on_c, 11, 69, 0
11, 55296, Note_on_c, 11, 66, 103
11, 56166, Note_on_c, 11, 66, 0
11, 58368, Note_on_c, 11, 74, 104
11, 59238, Note_on_c, 11, 74, 0
11, 59392, Note_on_c, 11, 71, 102
11, 60262, Note_on_c, 11, 71, 0
11, 60416, Note_on_c, 11, 76, 54
11, 60757, Note_on_c, 11, 76, 0
11, 60757, Note_on_c, 11, 78, 54
11, 61099, Note_on_c, 11, 78, 0
11, 61099, Note_on_c, 11, 76, 54
11, 61440, Note_on_c, 11, 76, 0
11, 61440, Note_on_c, 11, 74, 54
11, 61781, Note_on_c, 11, 74, 0
11, 61781, Note_on_c, 11, 76, 54
11, 62123, Note_on_c, 11, 76, 0
11, 62123, Note_on_c, 11, 74, 54
11, 62464, Note_on_c, 11, 74, 0
11, 62464, Note_on_c, 11, 73, 54
11, 62805, Note_on_c, 11, 73, 0
11, 62805, Note_on_c, 11, 74, 54
11, 63147, Note_on_c, 11, 74, 0
11, 63147, Note_on_c, 11, 73, 54
11, 63488, Note_on_c, 11, 73, 0
11, 63488, Note_on_c, 11, 76, 54
11, 63829, Note_on_c, 11, 76, 0
11, 63829, Note_on_c, 11, 78, 54
11, 64171, Note_on_c, 11, 78, 0
11, 64171, Note_on_c, 11, 76, 54
11, 64512, Note_on_c, 11, 76, 0
11, 64512, Note_on_c, 11, 74, 56
11, 64853, Note_on_c, 11, 74, 0
11, 64853, Note_on_c, 11, 76, 61
11, 65195, Note_on_c, 11, 76, 0
11, 65195, Note_on_c, 11, 74, 67
11, 65536, Note_on_c, 11, 74, 0
11, 65536, Note_on_c, 11, 73, 72
11, 65877, Note_on_c, 11, 73, 0
11, 65877, Note_on_c, 11, 74, 77
11, 66219, Note_on_c, 11, 74, 0
11, 66219, Note_on_c, 11, 73, 83
11, 66560, Note_on_c, 11, 73, 0
11, 66560, Note_on_c, 11, 74, 88
11, 72704, Note_on_c, 11, 74, 0
11, 72704, Note_on_c, 11, 73, 88
11, 74588, Note_on_c, 11, 73, 0
11, 74752, Note_on_c, 11, 71, 100
11, 80896, Note_on_c, 11, 71, 0
11, 80896, Note_on_c, 11, 69, 99
11, 82780, Note_on_c, 11, 69, 0
11, 82944, Note_on_c, 11, 71, 80
11, 89088, Note_on_c, 11, 71, 0
11, 89088, Note_on_c, 11, 71, 80
11, 90972, Note_on_c, 11, 71, 0
11, 91136, Note_on_c, 11, 71, 55
11, 92006, Note_on_c, 11, 71, 0
11, 92160, Note_on_c, 11, 70, 49
11, 92501, Note_on_c, 11, 70, 0
11, 92501, Note_on_c, 11, 71, 49
11, 92843, Note_on_c, 11, 71, 0
11, 92843, Note_on_c, 11, 73, 49
11, 93184, Note_on_c, 11, 73, 0
11, 93184, Note_on_c, 11, 74, 49
11, 93765, Note_on_c, 11, 74, 0
11, 93867, Note_on_c, 11, 74, 49
11, 94208, Note_on_c, 11, 74, 0
11, 94208, Note_on_c, 11, 66, 49
11, 95078, Note_on_c, 11, 66, 0
11, 95232, Note_on_c, 11, 67, 49
11, 95813, Note_on_c, 11, 67, 0
11, 95915, Note_on_c, 11, 76, 49
11, 96256, Note_on_c, 11, 76, 0
11, 96256, Note_on_c, 11, 73, 49
11, 97126, Note_on_c, 11, 73, 0
11, 97280, Note_on_c, 11, 71, 48
11, 97861, Note_on_c, 11, 71, 0
11, 97963, Note_on_c, 11, 71, 46
11, 98304, Note_on_c, 11, 71, 0
11, 98304, Note_on_c, 11, 71, 44
11, 99174, Note_on_c, 11, 71, 0
11, 99328, Note_on_c, 11, 71, 40
11, 100198, Note_on_c, 11, 71, 0
11, 100352, Note_on_c, 11, 67, 40
11, 101222, Note_on_c, 11, 67, 0
11, 101376, Note_on_c, 11, 76, 40
11, 101717, Note_on_c, 11, 76, 0
11, 101717, Note_on_c, 11, 78, 40
11, 102059, Note_on_c, 11, 78, 0
11, 102059, Note_on_c, 11, 76, 40
11, 102400, Note_on_c, 11, 76, 0
11, 102400, Note_on_c, 11, 71, 40
11, 102741, Note_on_c, 11, 71, 0
11, 102741, Note_on_c, 11, 73, 40
11, 103083, Note_on_c, 11, 73, 0
11, 103083, Note_on_c, 11, 71, 40
11, 103424, Note_on_c, 11, 71, 0
11, 103424, Note_on_c, 11, 69, 40
11, 103765, Note_on_c, 11, 69, 0
11, 103765, Note_on_c, 11, 67, 40
11, 104107, Note_on_c, 11, 67, 0
11, 104107, Note_on_c, 11, 69, 40
11, 104448, Note_on_c, 11, 69, 0
11, 104448, Note_on_c, 11, 73, 40
11, 104789, Note_on_c, 11, 73, 0
11, 104789, Note_on_c, 11, 71, 40
11, 105131, Note_on_c, 11, 71, 0
11, 105131, Note_on_c, 11, 73, 40
11, 105472, Note_on_c, 11, 73, 0
11, 105472, Note_on_c, 11, 76, 40
11, 106342, Note_on_c, 11, 76, 0
11, 106496, Note_on_c, 11, 69, 40
11, 107366, Note_on_c, 11, 69, 0
11, 107520, Note_on_c, 11, 69, 40
11, 108390, Note_on_c, 11, 69, 0
11, 108544, Note_on_c, 11, 66, 40
11, 109414, Note_on_c, 11, 66, 0
11, 109568, Note_on_c, 11, 74, 40
11, 109909, Note_on_c, 11, 74, 0
11, 109909, Note_on_c, 11, 76, 40
11, 110251, Note_on_c, 11, 76, 0
11, 110251, Note_on_c, 11, 74, 40
11, 110592, Note_on_c, 11, 74, 0
11, 110592, Note_on_c, 11, 69, 40
11, 110933, Note_on_c, 11, 69, 0
11, 110933, Note_on_c, 11, 71, 40
11, 111275, Note_on_c, 11, 71, 0
11, 111275, Note_on_c, 11, 69, 40
11, 111616, Note_on_c, 11, 69, 0
11, 111616, Note_on_c, 11, 71, 40
11, 111957, Note_on_c, 11, 71, 0
11, 111957, Note_on_c, 11, 69, 40
11, 112299, Note_on_c, 11, 69, 0
11, 112299, Note_on_c, 11, 71, 41
11, 112640, Note_on_c, 11, 71, 0
11, 112640, Note_on_c, 11, 64, 41
11, 112981, Note_on_c, 11, 64, 0
11, 112981, Note_on_c, 11, 66, 42
11, 113323, Note_on_c, 11, 66, 0
11, 113323, Note_on_c, 11, 67, 42
11, 113664, Note_on_c, 11, 67, 0
11, 113664, Note_on_c, 11, 69, 43
11, 114005, Note_on_c, 11, 69, 0
11, 114005, Note_on_c, 11, 71, 43
11, 114347, Note_on_c, 11, 71, 0
11, 114347, Note_on_c, 11, 73, 44
11, 114688, Note_on_c, 11, 73, 0
11, 114688, Note_on_c, 11, 74, 45
11, 115029, Note_on_c, 11, 74, 0
11, 115029, Note_on_c, 11, 73, 45
11, 115371, Note_on_c, 11, 73, 0
11, 115371, Note_on_c, 11, 74, 46
11, 115712, Note_on_c, 11, 74, 0
11, 115712, Note_on_c, 11, 67, 46
11, 116053, Note_on_c, 11, 67, 0
11, 116053, Note_on_c, 11, 69, 47
11, 116395, Note_on_c, 11, 69, 0
11, 116395, Note_on_c, 11, 71, 47
11, 116736, Note_on_c, 11, 71, 0
11, 116736, Note_on_c, 11, 69, 48
11, 117077, Note_on_c, 11, 69, 0
11, 117077, Note_on_c, 11, 71, 49
11, 117419, Note_on_c, 11, 71, 0
11, 117419, Note_on_c, 11, 67, 49
11, 117760, Note_on_c, 11, 67, 0
11, 117760, Note_on_c, 11, 66, 50
11, 118101, Note_on_c, 11, 66, 0
11, 118101, Note_on_c, 11, 64, 50
11, 118443, Note_on_c, 11, 64, 0
11, 118443, Note_on_c, 11, 66, 51
11, 118784, Note_on_c, 11, 66, 0
11, 118784, Note_on_c, 11, 62, 51
11, 119125, Note_on_c, 11, 62, 0
11, 119125, Note_on_c, 11, 64, 52
11, 119467, Note_on_c, 11, 64, 0
11, 119467, Note_on_c, 11, 66, 52
11, 119808, Note_on_c, 11, 66, 0
11, 119808, Note_on_c, 11, 67, 52
11, 120678, Note_on_c, 11, 67, 0
11, 120832, Note_on_c, 11, 67, 52
11, 121702, Note_on_c, 11, 67, 0
11, 122880, Note_on_c, 11, 78, 52
11, 124245, Note_on_c, 11, 78, 0
11, 124245, Note_on_c, 11, 79, 52
11, 124587, Note_on_c, 11, 79, 0
11, 124587, Note_on_c, 11, 78, 52
11, 124928, Note_on_c, 11, 78, 0
11, 124928, Note_on_c, 11, 76, 52
11, 125269, Note_on_c, 11, 76, 0
11, 125269, Note_on_c, 11, 78, 52
11, 125611, Note_on_c, 11, 78, 0
11, 125611, Note_on_c, 11, 74, 52
11, 125952, Note_on_c, 11, 74, 0
11, 125952, Note_on_c, 11, 73, 52
11, 126822, Note_on_c, 11, 73, 0
11, 126976, Note_on_c, 11, 73, 52
11, 127846, Note_on_c, 11, 73, 0
11, 129024, Note_on_c, 11, 74, 52
11, 130389, Note_on_c, 11, 74, 0
11, 130389, Note_on_c, 11, 76, 54
11, 130731, Note_on_c, 11, 76, 0
11, 130731, Note_on_c, 11, 74, 58
11, 131072, Note_on_c, 11, 74, 0
11, 131072, Note_on_c, 11, 73, 61
11, 131413, Note_on_c, 11, 73, 0
11, 131413, Note_on_c, 11, 74, 65
11, 131755, Note_on_c, 11, 74, 0
11, 131755, Note_on_c, 11, 71, 69
11, 132096, Note_on_c, 11, 71, 0
11, 132096, Note_on_c, 11, 69, 72
11, 132966, Note_on_c, 11, 69, 0
11, 133120, Note_on_c, 11, 66, 75
11, 133990, Note_on_c, 11, 66, 0
11, 134144, Note_on_c, 11, 71, 78
11, 134725, Note_on_c, 11, 71, 0
11, 134827, Note_on_c, 11, 71, 80
11, 135168, Note_on_c, 11, 71, 0
11, 135168, Note_on_c, 11, 68, 81
11, 136038, Note_on_c, 11, 68, 0
11, 136192, Note_on_c, 11, 73, 83
11, 137062, Note_on_c, 11, 73, 0
11, 137216, Note_on_c, 11, 69, 86
11, 138086, Note_on_c, 11, 69, 0
11, 138240, Note_on_c, 11, 74, 89
11, 138821, Note_on_c, 11, 74, 0
11, 138923, Note_on_c, 11, 74, 91
11, 139264, Note_on_c, 11, 74, 0
11, 139264, Note_on_c, 11, 71, 92
11, 140134, Note_on_c, 11, 71, 0
11, 140288, Note_on_c, 11, 69, 94
11, 146432, Note_on_c, 11, 69, 0
11, 146432, Note_on_c, 11, 68, 94
11, 148316, Note_on_c, 11, 68, 0
11, 148480, Note_on_c, 11, 69, 94
11, 154624, Note_on_c, 11, 69, 0
11, 154624, Note_on_c, 11, 69, 94
11, 156508, Note_on_c, 11, 69, 0
11, 156672, Note_on_c, 11, 74, 94
11, 162816, Note_on_c, 11, 74, 0
11, 162816, Note_on_c, 11, 73, 84
11, 164700, Note_on_c, 11, 73, 0
11, 164864, Note_on_c, 11, 66, 58
11, 165205, Note_on_c, 11, 66, 0
11, 165205, Note_on_c, 11, 64, 58
11, 165547, Note_on_c, 11, 64, 0
11, 165547, Note_on_c, 11, 66, 58
11, 165888, Note_on_c, 11, 66, 0
11, 165888, Note_on_c, 11, 71, 58
11, 166229, Note_on_c, 11, 71, 0
11, 166229, Note_on_c, 11, 70, 58
11, 166571, Note_on_c, 11, 70, 0
11, 166571, Note_on_c, 11, 71, 58
11, 166912, Note_on_c, 11, 71, 0
11, 166912, Note_on_c, 11, 74, 58
11, 167782, Note_on_c, 11, 74, 0
11, 167936, Note_on_c, 11, 66, 58
11, 168806, Note_on_c, 11, 66, 0
11, 168960, Note_on_c, 11, 68, 58
11, 169830, Note_on_c, 11, 68, 0
11, 169984, Note_on_c, 11, 64, 58
11, 170854, Note_on_c, 11, 64, 0
11, 171008, Note_on_c, 11, 74, 58
11, 171349, Note_on_c, 11, 74, 0
11, 171349, Note_on_c, 11, 76, 58
11, 171691, Note_on_c, 11, 76, 0
11, 171691, Note_on_c, 11, 74, 58
11, 172032, Note_on_c, 11, 74, 0
11, 172032, Note_on_c, 11, 71, 58
11, 172373, Note_on_c, 11, 71, 0
11, 172373, Note_on_c, 11, 73, 58
11, 172715, Note_on_c, 11, 73, 0
11, 172715, Note_on_c, 11, 71, 58
11, 173056, Note_on_c, 11, 71, 0
11, 173056, Note_on_c, 11, 69, 58
11, 173397, Note_on_c, 11, 69, 0
11, 173397, Note_on_c, 11, 68, 58
11, 173739, Note_on_c, 11, 68, 0
11, 173739, Note_on_c, 11, 69, 58
11, 174080, Note_on_c, 11, 69, 0
11, 174080, Note_on_c, 11, 73, 58
11, 174421, Note_on_c, 11, 73, 0
11, 174421, Note_on_c, 11, 71, 58
11, 174763, Note_on_c, 11, 71, 0
11, 174763, Note_on_c, 11, 73, 58
11, 175104, Note_on_c, 11, 73, 0
11, 175104, Note_on_c, 11, 76, 58
11, 175974, Note_on_c, 11, 76, 0
11, 176128, Note_on_c, 11, 69, 58
11, 176998, Note_on_c, 11, 69, 0
11, 177152, Note_on_c, 11, 69, 64
11, 178176, Note_on_c, 11, 69, 0
11, 178176, Note_on_c, 11, 71, 62
11, 180224, Note_on_c, 11, 71, 0
11, 180224, Note_on_c, 11, 69, 69
11, 181094, Note_on_c, 11, 69, 0
11, 181248, Note_on_c, 11, 69, 73
11, 182272, Note_on_c, 11, 69, 0
11, 182272, Note_on_c, 11, 68, 76
11, 184320, Note_on_c, 11, 68, 0
11, 184320, Note_on_c, 11, 66, 84
11, 185344, Note_on_c, 11, 66, 0
11, 185344, Note_on_c, 11, 66, 87
11, 186214, Note_on_c, 11, 66, 0
11, 186368, Note_on_c, 11, 65, 90
11, 186709, Note_on_c, 11, 65, 0
11, 186709, Note_on_c, 11, 66, 90
11, 187051, Note_on_c, 11, 66, 0
11, 187051, Note_on_c, 11, 68, 91
11, 187392, Note_on_c, 11, 68, 0
11, 187392, Note_on_c, 11, 69, 92
11, 188262, Note_on_c, 11, 69, 0
11, 188416, Note_on_c, 11, 68, 94
11, 188757, Note_on_c, 11, 68, 0
11, 188757, Note_on_c, 11, 69, 95
11, 189099, Note_on_c, 11, 69, 0
11, 189099, Note_on_c, 11, 71, 95
11, 189440, Note_on_c, 11, 71, 0
11, 189440, Note_on_c, 11, 73, 96
11, 190310, Note_on_c, 11, 73, 0
11, 190464, Note_on_c, 11, 73, 98
11, 191334, Note_on_c, 11, 73, 0
11, 191488, Note_on_c, 11, 73, 100
11, 193024, Note_on_c, 11, 73, 0
11, 193024, Note_on_c, 11, 73, 100
11, 193280, Note_on_c, 11, 73, 0
11, 193536, Note_on_c, 11, 73, 100
11, 193792, Note_on_c, 11, 73, 0
11, 221184, Note_on_c, 11, 66, 74
11, 221440, Note_on_c, 11, 66, 0
11, 221696, Note_on_c, 11, 66, 68
11, 221952, Note_on_c, 11, 66, 0
11, 222208, Note_on_c, 11, 66, 68
11, 222464, Note_on_c, 11, 66, 0
11, 222720, Note_on_c, 11, 74, 77
11, 222976, Note_on_c, 11, 74, 0
11, 223232, Note_on_c, 11, 74, 70
11, 223488, Note_on_c, 11, 74, 0
11, 223744, Note_on_c, 11, 74, 71
11, 224000, Note_on_c, 11, 74, 0
11, 224256, Note_on_c, 11, 67, 76
11, 224768, Note_on_c, 11, 67, 0
11, 224768, Note_on_c, 11, 67, 72
11, 225024, Note_on_c, 11, 67, 0
11, 225280, Note_on_c, 11, 69, 73
11, 225536, Note_on_c, 11, 69, 0
11, 225536, Note_on_c, 11, 71, 73
11, 225792, Note_on_c, 11, 71, 0
11, 225792, Note_on_c, 11, 73, 74
11, 226048, Note_on_c, 11, 73, 0
11, 226048, Note_on_c, 11, 74, 74
11, 226304, Note_on_c, 11, 74, 0
11, 226304, Note_on_c, 11, 76, 75
11, 226560, Note_on_c, 11, 76, 0
11, 226560, Note_on_c, 11, 74, 75
11, 226816, Note_on_c, 11, 74, 0
11, 226816, Note_on_c, 11, 73, 76
11, 227072, Note_on_c, 11, 73, 0
11, 227072, Note_on_c, 11, 71, 77
11, 227328, Note_on_c, 11, 71, 0
11, 227328, Note_on_c, 11, 69, 77
11, 227584, Note_on_c, 11, 69, 0
11, 227840, Note_on_c, 11, 68, 78
11, 228096, Note_on_c, 11, 68, 0
11, 228096, Note_on_c, 11, 66, 79
11, 228352, Note_on_c, 11, 66, 0
11, 228352, Note_on_c, 11, 73, 79
11, 229120, Note_on_c, 11, 73, 0
11, 229120, Note_on_c, 11, 74, 81
11, 229376, Note_on_c, 11, 74, 0
11, 229376, Note_on_c, 11, 71, 81
11, 230144, Note_on_c, 11, 71, 0
11, 230144, Note_on_c, 11, 73, 84
11, 230400, Note_on_c, 11, 73, 0
11, 230400, Note_on_c, 11, 73, 89
11, 230656, Note_on_c, 11, 73, 0
11, 230912, Note_on_c, 11, 76, 89
11, 231168, Note_on_c, 11, 76, 0
11, 231168, Note_on_c, 11, 78, 89
11, 231424, Note_on_c, 11, 78, 0
11, 231424, Note_on_c, 11, 76, 89
11, 231680, Note_on_c, 11, 76, 0
11, 231680, Note_on_c, 11, 74, 89
11, 231936, Note_on_c, 11, 74, 0
11, 231936, Note_on_c, 11, 73, 89
11, 232192, Note_on_c, 11, 73, 0
11, 232192, Note_on_c, 11, 71, 89
11, 232448, Note_on_c, 11, 71, 0
11, 232448, Note_on_c, 11, 69, 89
11, 232704, Note_on_c, 11, 69, 0
11, 232704, Note_on_c, 11, 71, 89
11, 232960, Note_on_c, 11, 71, 0
11, 232960, Note_on_c, 11, 73, 89
11, 233216, Note_on_c, 11, 73, 0
11, 233216, Note_on_c, 11, 69, 89
11, 233472, Note_on_c, 11, 69, 0
11, 233472, Note_on_c, 11, 71, 89
11, 233728, Note_on_c, 11, 71, 0
11, 233728, Note_on_c, 11, 73, 89
11, 233984, Note_on_c, 11, 73, 0
11, 233984, Note_on_c, 11, 74, 89
11, 234240, Note_on_c, 11, 74, 0
11, 234240, Note_on_c, 11, 76, 89
11, 234496, Note_on_c, 11, 76, 0
11, 234496, Note_on_c, 11, 74, 89
11, 234752, Note_on_c, 11, 74, 0
11, 234752, Note_on_c, 11, 73, 89
11, 235008, Note_on_c, 11, 73, 0
11, 235008, Note_on_c, 11, 71, 89
11, 235264, Note_on_c, 11, 71, 0
11, 235264, Note_on_c, 11, 69, 89
11, 235520, Note_on_c, 11, 69, 0
11, 235520, Note_on_c, 11, 67, 89
11, 235776, Note_on_c, 11, 67, 0
11, 235776, Note_on_c, 11, 69, 89
11, 236032, Note_on_c, 11, 69, 0
11, 236032, Note_on_c, 11, 71, 89
11, 236134, Note_on_c, 11, 71, 0
11, 236134, Note_on_c, 11, 73, 89
11, 236237, Note_on_c, 11, 73, 0
11, 236237, Note_on_c, 11, 71, 89
11, 236339, Note_on_c, 11, 71, 0
11, 236339, Note_on_c, 11, 73, 89
11, 236442, Note_on_c, 11, 73, 0
11, 236442, Note_on_c, 11, 71, 89
11, 236544, Note_on_c, 11, 71, 0
11, 236544, Note_on_c, 11, 73, 89
11, 237312, Note_on_c, 11, 73, 0
11, 237312, Note_on_c, 11, 71, 89
11, 237568, Note_on_c, 11, 71, 0
11, 237568, Note_on_c, 11, 69, 89
11, 237824, Note_on_c, 11, 69, 0
11, 237824, Note_on_c, 11, 71, 89
11, 238080, Note_on_c, 11, 71, 0
11, 238080, Note_on_c, 11, 73, 89
11, 238336, Note_on_c, 11, 73, 0
11, 238336, Note_on_c, 11, 71, 89
11, 238592, Note_on_c, 11, 71, 0
11, 238592, Note_on_c, 11, 73, 89
11, 238848, Note_on_c, 11, 73, 0
11, 238848, Note_on_c, 11, 74, 89
11, 239104, Note_on_c, 11, 74, 0
11, 239104, Note_on_c, 11, 73, 89
11, 239360, Note_on_c, 11, 73, 0
11, 239360, Note_on_c, 11, 71, 89
11, 239616, Note_on_c, 11, 71, 0
11, 239616, Note_on_c, 11, 69, 89
11, 240128, Note_on_c, 11, 69, 0
11, 240128, Note_on_c, 11, 66, 82
11, 240384, Note_on_c, 11, 66, 0
11, 241664, Note_on_c, 11, 73, 52
11, 241920, Note_on_c, 11, 73, 0
11, 241920, Note_on_c, 11, 74, 52
11, 242176, Note_on_c, 11, 74, 0
11, 242176, Note_on_c, 11, 76, 52
11, 242432, Note_on_c, 11, 76, 0
11, 242432, Note_on_c, 11, 73, 52
11, 242688, Note_on_c, 11, 73, 0
11, 242688, Note_on_c, 11, 74, 57
11, 242944, Note_on_c, 11, 74, 0
11, 242944, Note_on_c, 11, 76, 52
11, 243200, Note_on_c, 11, 76, 0
11, 243200, Note_on_c, 11, 73, 52
11, 243456, Note_on_c, 11, 73, 0
11, 243456, Note_on_c, 11, 74, 52
11, 243712, Note_on_c, 11, 74, 0
11, 243712, Note_on_c, 11, 76, 52
11, 243968, Note_on_c, 11, 76, 0
11, 243968, Note_on_c, 11, 73, 52
11, 244224, Note_on_c, 11, 73, 0
11, 244224, Note_on_c, 11, 74, 52
11, 244480, Note_on_c, 11, 74, 0
11, 244480, Note_on_c, 11, 76, 52
11, 244736, Note_on_c, 11, 76, 0
11, 244736, Note_on_c, 11, 78, 52
11, 244992, Note_on_c, 11, 78, 0
11, 244992, Note_on_c, 11, 76, 52
11, 245248, Note_on_c, 11, 76, 0
11, 245248, Note_on_c, 11, 74, 52
11, 245504, Note_on_c, 11, 74, 0
11, 245504, Note_on_c, 11, 76, 52
11, 245760, Note_on_c, 11, 76, 0
11, 245760, Note_on_c, 11, 73, 82
11, 246016, Note_on_c, 11, 73, 0
11, 246016, Note_on_c, 11, 71, 82
11, 246272, Note_on_c, 11, 71, 0
11, 246272, Note_on_c, 11, 69, 82
11, 246528, Note_on_c, 11, 69, 0
11, 246528, Note_on_c, 11, 71, 82
11, 246784, Note_on_c, 11, 71, 0
11, 246784, Note_on_c, 11, 73, 82
11, 247040, Note_on_c, 11, 73, 0
11, 247040, Note_on_c, 11, 74, 82
11, 247296, Note_on_c, 11, 74, 0
11, 247296, Note_on_c, 11, 76, 82
11, 247552, Note_on_c, 11, 76, 0
11, 247808, Note_on_c, 11, 67, 82
11, 248064, Note_on_c, 11, 67, 0
11, 248320, Note_on_c, 11, 67, 52
11, 248576, Note_on_c, 11, 67, 0
11, 248832, Note_on_c, 11, 67, 52
11, 249344, Note_on_c, 11, 67, 0
11, 249344, Note_on_c, 11, 66, 52
11, 249600, Note_on_c, 11, 66, 0
11, 253440, Note_on_c, 11, 66, 82
11, 253696, Note_on_c, 11, 66, 0
11, 253952, Note_on_c, 11, 71, 82
11, 254208, Note_on_c, 11, 71, 0
11, 254464, Note_on_c, 11, 71, 82
11, 254720, Note_on_c, 11, 71, 0
11, 254976, Note_on_c, 11, 71, 82
11, 255232, Note_on_c, 11, 71, 0
11, 255488, Note_on_c, 11, 67, 82
11, 255744, Note_on_c, 11, 67, 0
11, 256000, Note_on_c, 11, 67, 82
11, 256256, Note_on_c, 11, 67, 0
11, 256512, Note_on_c, 11, 64, 82
11, 257024, Note_on_c, 11, 64, 0
11, 257024, Note_on_c, 11, 69, 82
11, 257280, Note_on_c, 11, 69, 0
11, 257280, Note_on_c, 11, 71, 82
11, 257536, Note_on_c, 11, 71, 0
11, 257536, Note_on_c, 11, 72, 82
11, 258560, Note_on_c, 11, 72, 0
11, 258560, Note_on_c, 11, 69, 82
11, 258816, Note_on_c, 11, 69, 0
11, 259072, Note_on_c, 11, 69, 82
11, 259328, Note_on_c, 11, 69, 0
11, 259584, Note_on_c, 11, 78, 82
11, 260352, Note_on_c, 11, 78, 0
11, 260352, Note_on_c, 11, 75, 82
11, 260608, Note_on_c, 11, 75, 0
11, 260608, Note_on_c, 11, 76, 82
11, 260864, Note_on_c, 11, 76, 0
11, 260864, Note_on_c, 11, 69, 83
11, 261120, Note_on_c, 11, 69, 0
11, 261120, Note_on_c, 11, 67, 84
11, 261376, Note_on_c, 11, 67, 0
11, 261376, Note_on_c, 11, 66, 85
11, 261632, Note_on_c, 11, 66, 0
11, 261632, Note_on_c, 11, 66, 87
11, 261888, Note_on_c, 11, 66, 0
11, 261888, Note_on_c, 11, 67, 88
11, 262144, Note_on_c, 11, 67, 0
11, 262144, Note_on_c, 11, 69, 89
11, 262400, Note_on_c, 11, 69, 0
11, 262656, Note_on_c, 11, 67, 95
11, 262912, Note_on_c, 11, 67, 0
11, 263168, Note_on_c, 11, 71, 48
11, 263424, Note_on_c, 11, 71, 0
11, 263680, Note_on_c, 11, 76, 48
11, 263936, Note_on_c, 11, 76, 0
11, 264192, Note_on_c, 11, 73, 48
11, 265984, Note_on_c, 11, 73, 0
11, 266240, Note_on_c, 11, 69, 48
11, 266496, Note_on_c, 11, 69, 0
11, 266752, Note_on_c, 11, 74, 48
11, 267008, Note_on_c, 11, 74, 0
11, 267264, Note_on_c, 11, 71, 48
11, 269056, Note_on_c, 11, 71, 0
11, 269056, Note_on_c, 11, 74, 50
11, 269312, Note_on_c, 11, 74, 0
11, 269312, Note_on_c, 11, 73, 53
11, 269568, Note_on_c, 11, 73, 0
11, 269824, Note_on_c, 11, 71, 58
11, 270080, Note_on_c, 11, 71, 0
11, 270336, Note_on_c, 11, 70, 64
11, 271360, Note_on_c, 11, 70, 0
11, 271360, Note_on_c, 11, 70, 64
11, 271616, Note_on_c, 11, 70, 0
11, 271872, Note_on_c, 11, 78, 64
11, 272128, Note_on_c, 11, 78, 0
11, 272384, Note_on_c, 11, 78, 64
11, 272640, Note_on_c, 11, 78, 0
11, 272896, Note_on_c, 11, 78, 64
11, 273152, Note_on_c, 11, 78, 0
11, 273408, Note_on_c, 11, 78, 64
11, 273664, Note_on_c, 11, 78, 0
11, 273920, Note_on_c, 11, 76, 64
11, 274176, Note_on_c, 11, 76, 0
11, 274176, Note_on_c, 11, 74, 64
11, 274432, Note_on_c, 11, 74, 0
11, 274432, Note_on_c, 11, 73, 64
11, 274688, Note_on_c, 11, 73, 0
11, 274688, Note_on_c, 11, 74, 64
11, 274944, Note_on_c, 11, 74, 0
11, 274944, Note_on_c, 11, 76, 64
11, 275456, Note_on_c, 11, 76, 0
11, 275456, Note_on_c, 11, 64, 64
11, 275712, Note_on_c, 11, 64, 0
11, 275968, Note_on_c, 11, 76, 64
11, 276736, Note_on_c, 11, 76, 0
11, 276736, Note_on_c, 11, 73, 64
11, 276992, Note_on_c, 11, 73, 0
11, 276992, Note_on_c, 11, 74, 64
11, 277248, Note_on_c, 11, 74, 0
11, 277248, Note_on_c, 11, 76, 64
11, 277504, Note_on_c, 11, 76, 0
11, 277504, Note_on_c, 11, 78, 64
11, 277760, Note_on_c, 11, 78, 0
11, 277760, Note_on_c, 11, 79, 64
11, 278016, Note_on_c, 11, 79, 0
11, 278016, Note_on_c, 11, 78, 64
11, 278272, Note_on_c, 11, 78, 0
11, 278272, Note_on_c, 11, 76, 64
11, 278528, Note_on_c, 11, 76, 0
11, 278528, Note_on_c, 11, 73, 64
11, 279296, Note_on_c, 11, 73, 0
11, 279296, Note_on_c, 11, 71, 64
11, 279552, Note_on_c, 11, 71, 0
11, 279552, Note_on_c, 11, 71, 64
11, 279808, Note_on_c, 11, 71, 0
11, 281600, Note_on_c, 11, 73, 38
11, 281856, Note_on_c, 11, 73, 0
11, 281856, Note_on_c, 11, 74, 38
11, 282112, Note_on_c, 11, 74, 0
11, 282112, Note_on_c, 11, 76, 38
11, 282368, Note_on_c, 11, 76, 0
11, 282368, Note_on_c, 11, 73, 38
11, 282624, Note_on_c, 11, 73, 0
11, 282624, Note_on_c, 11, 74, 38
11, 282880, Note_on_c, 11, 74, 0
11, 282880, Note_on_c, 11, 76, 38
11, 283136, Note_on_c, 11, 76, 0
11, 283136, Note_on_c, 11, 73, 38
11, 283392, Note_on_c, 11, 73, 0
11, 283392, Note_on_c, 11, 74, 38
11, 283648, Note_on_c, 11, 74, 0
11, 283648, Note_on_c, 11, 76, 38
11, 283904, Note_on_c, 11, 76, 0
11, 283904, Note_on_c, 11, 73, 38
11, 284160, Note_on_c, 11, 73, 0
11, 284160, Note_on_c, 11, 74, 38
11, 284416, Note_on_c, 11, 74, 0
11, 284416, Note_on_c, 11, 76, 38
11, 284672, Note_on_c, 11, 76, 0
11, 284672, Note_on_c, 11, 78, 38
11, 284928, Note_on_c, 11, 78, 0
11, 284928, Note_on_c, 11, 76, 38
11, 285184, Note_on_c, 11, 76, 0
11, 285184, Note_on_c, 11, 74, 38
11, 285440, Note_on_c, 11, 74, 0
11, 285440, Note_on_c, 11, 76, 38
11, 285696, Note_on_c, 11, 76, 0
11, 285696, Note_on_c, 11, 73, 39
11, 285952, Note_on_c, 11, 73, 0
11, 285952, Note_on_c, 11, 74, 40
11, 286208, Note_on_c, 11, 74, 0
11, 286208, Note_on_c, 11, 76, 42
11, 286464, Note_on_c, 11, 76, 0
11, 286464, Note_on_c, 11, 74, 44
11, 286720, Note_on_c, 11, 74, 0
11, 286720, Note_on_c, 11, 73, 45
11, 286976, Note_on_c, 11, 73, 0
11, 286976, Note_on_c, 11, 76, 47
11, 287232, Note_on_c, 11, 76, 0
11, 287232, Note_on_c, 11, 74, 49
11, 287488, Note_on_c, 11, 74, 0
11, 287488, Note_on_c, 11, 76, 50
11, 287744, Note_on_c, 11, 76, 0
11, 287744, Note_on_c, 11, 78, 52
11, 288000, Note_on_c, 11, 78, 0
11, 288000, Note_on_c, 11, 76, 53
11, 288256, Note_on_c, 11, 76, 0
11, 288256, Note_on_c, 11, 74, 55
11, 288512, Note_on_c, 11, 74, 0
11, 288512, Note_on_c, 11, 78, 57
11, 288768, Note_on_c, 11, 78, 0
11, 288768, Note_on_c, 11, 76, 58
11, 289024, Note_on_c, 11, 76, 0
11, 289024, Note_on_c, 11, 74, 60
11, 289280, Note_on_c, 11, 74, 0
11, 289280, Note_on_c, 11, 73, 62
11, 289536, Note_on_c, 11, 73, 0
11, 289536, Note_on_c, 11, 71, 63
11, 289792, Note_on_c, 11, 71, 0
11, 289792, Note_on_c, 11, 73, 65
11, 290048, Note_on_c, 11, 73, 0
11, 290048, Note_on_c, 11, 76, 67
11, 290304, Note_on_c, 11, 76, 0
11, 290304, Note_on_c, 11, 69, 68
11, 290560, Note_on_c, 11, 69, 0
11, 290560, Note_on_c, 11, 67, 70
11, 290816, Note_on_c, 11, 67, 0
11, 290816, Note_on_c, 11, 69, 72
11, 291072, Note_on_c, 11, 69, 0
11, 291072, Note_on_c, 11, 71, 73
11, 291328, Note_on_c, 11, 71, 0
11, 291328, Note_on_c, 11, 73, 75
11, 291584, Note_on_c, 11, 73, 0
11, 291584, Note_on_c, 11, 69, 76
11, 291840, Note_on_c, 11, 69, 0
11, 291840, Note_on_c, 11, 74, 78
11, 292096, Note_on_c, 11, 74, 0
11, 292096, Note_on_c, 11, 76, 80
11, 292352, Note_on_c, 11, 76, 0
11, 292352, Note_on_c, 11, 78, 81
11, 292608, Note_on_c, 11, 78, 0
11, 292608, Note_on_c, 11, 76, 83
11, 292864, Note_on_c, 11, 76, 0
11, 292864, Note_on_c, 11, 74, 85
11, 293120, Note_on_c, 11, 74, 0
11, 293120, Note_on_c, 11, 76, 86
11, 293376, Note_on_c, 11, 76, 0
11, 293376, Note_on_c, 11, 73, 88
11, 293632, Note_on_c, 11, 73, 0
11, 293632, Note_on_c, 11, 71, 88
11, 293888, Note_on_c, 11, 71, 0
11, 293888, Note_on_c, 11, 73, 88
11, 294144, Note_on_c, 11, 73, 0
11, 294144, Note_on_c, 11, 74, 88
11, 294400, Note_on_c, 11, 74, 0
11, 294400, Note_on_c, 11, 76, 88
11, 294656, Note_on_c, 11, 76, 0
11, 294656, Note_on_c, 11, 73, 88
11, 294912, Note_on_c, 11, 73, 0
11, 294912, Note_on_c, 11, 74, 88
11, 296704, Note_on_c, 11, 74, 0
11, 296704, Note_on_c, 11, 78, 88
11, 296960, Note_on_c, 11, 78, 0
11, 296960, Note_on_c, 11, 76, 88
11, 297216, Note_on_c, 11, 76, 0
11, 297216, Note_on_c, 11, 74, 88
11, 297472, Note_on_c, 11, 74, 0
11, 297472, Note_on_c, 11, 76, 88
11, 297728, Note_on_c, 11, 76, 0
11, 297728, Note_on_c, 11, 78, 88
11, 297984, Note_on_c, 11, 78, 0
11, 297984, Note_on_c, 11, 79, 88
11, 298240, Note_on_c, 11, 79, 0
11, 298240, Note_on_c, 11, 78, 88
11, 298496, Note_on_c, 11, 78, 0
11, 298496, Note_on_c, 11, 76, 89
11, 298752, Note_on_c, 11, 76, 0
11, 298752, Note_on_c, 11, 74, 89
11, 299008, Note_on_c, 11, 74, 0
11, 299008, Note_on_c, 11, 73, 90
11, 299264, Note_on_c, 11, 73, 0
11, 299264, Note_on_c, 11, 71, 91
11, 299520, Note_on_c, 11, 71, 0
11, 299520, Note_on_c, 11, 69, 92
11, 299776, Note_on_c, 11, 69, 0
11, 300032, Note_on_c, 11, 71, 93
11, 300288, Note_on_c, 11, 71, 0
11, 300288, Note_on_c, 11, 73, 94
11, 300544, Note_on_c, 11, 73, 0
11, 300544, Note_on_c, 11, 74, 95
11, 300800, Note_on_c, 11, 74, 0
11, 301056, Note_on_c, 11, 71, 96
11, 301568, Note_on_c, 11, 71, 0
11, 301568, Note_on_c, 11, 69, 98
11, 301824, Note_on_c, 11, 69, 0
11, 302592, Note_on_c, 11, 66, 56
11, 302848, Note_on_c, 11, 66, 0
11, 303104, Note_on_c, 11, 66, 50
11, 303360, Note_on_c, 11, 66, 0
11, 303616, Note_on_c, 11, 66, 50
11, 303872, Note_on_c, 11, 66, 0
11, 304128, Note_on_c, 11, 74, 57
11, 304384, Note_on_c, 11, 74, 0
11, 304640, Note_on_c, 11, 74, 50
11, 304896, Note_on_c, 11, 74, 0
11, 305152, Note_on_c, 11, 74, 50
11, 305408, Note_on_c, 11, 74, 0
11, 305664, Note_on_c, 11, 67, 56
11, 306176, Note_on_c, 11, 67, 0
11, 306176, Note_on_c, 11, 67, 50
11, 306432, Note_on_c, 11, 67, 0
11, 306688, Note_on_c, 11, 69, 49
11, 306944, Note_on_c, 11, 69, 0
11, 306944, Note_on_c, 11, 71, 50
11, 307200, Note_on_c, 11, 71, 0
11, 307200, Note_on_c, 11, 73, 51
11, 307456, Note_on_c, 11, 73, 0
11, 307456, Note_on_c, 11, 74, 52
11, 307712, Note_on_c, 11, 74, 0
11, 307712, Note_on_c, 11, 76, 53
11, 307968, Note_on_c, 11, 76, 0
11, 307968, Note_on_c, 11, 74, 54
11, 308224, Note_on_c, 11, 74, 0
11, 308224, Note_on_c, 11, 73, 55
11, 308480, Note_on_c, 11, 73, 0
11, 308480, Note_on_c, 11, 71, 56
11, 308736, Note_on_c, 11, 71, 0
11, 308736, Note_on_c, 11, 69, 57
11, 308992, Note_on_c, 11, 69, 0
11, 309248, Note_on_c, 11, 68, 58
11, 309504, Note_on_c, 11, 68, 0
11, 309504, Note_on_c, 11, 66, 58
11, 309760, Note_on_c, 11, 66, 0
11, 309760, Note_on_c, 11, 73, 58
11, 310528, Note_on_c, 11, 73, 0
11, 310528, Note_on_c, 11, 74, 58
11, 310784, Note_on_c, 11, 74, 0
11, 310784, Note_on_c, 11, 71, 58
11, 311552, Note_on_c, 11, 71, 0
11, 311552, Note_on_c, 11, 73, 58
11, 311808, Note_on_c, 11, 73, 0
11, 311808, Note_on_c, 11, 73, 58
11, 312064, Note_on_c, 11, 73, 0
11, 312320, Note_on_c, 11, 76, 54
11, 312576, Note_on_c, 11, 76, 0
11, 312576, Note_on_c, 11, 78, 55
11, 312832, Note_on_c, 11, 78, 0
11, 312832, Note_on_c, 11, 76, 55
11, 313088, Note_on_c, 11, 76, 0
11, 313088, Note_on_c, 11, 74, 56
11, 313344, Note_on_c, 11, 74, 0
11, 313344, Note_on_c, 11, 73, 56
11, 313600, Note_on_c, 11, 73, 0
11, 313600, Note_on_c, 11, 71, 57
11, 313856, Note_on_c, 11, 71, 0
11, 313856, Note_on_c, 11, 69, 57
11, 314112, Note_on_c, 11, 69, 0
11, 314112, Note_on_c, 11, 71, 58
11, 314368, Note_on_c, 11, 71, 0
11, 314368, Note_on_c, 11, 73, 58
11, 314624, Note_on_c, 11, 73, 0
11, 314624, Note_on_c, 11, 69, 59
11, 314880, Note_on_c, 11, 69, 0
11, 314880, Note_on_c, 11, 71, 59
11, 315136, Note_on_c, 11, 71, 0
11, 315136, Note_on_c, 11, 73, 60
11, 315392, Note_on_c, 11, 73, 0
11, 315392, Note_on_c, 11, 74, 60
11, 315648, Note_on_c, 11, 74, 0
11, 315648, Note_on_c, 11, 76, 61
11, 315904, Note_on_c, 11, 76, 0
11, 315904, Note_on_c, 11, 74, 61
11, 316160, Note_on_c, 11, 74, 0
11, 316160, Note_on_c, 11, 73, 62
11, 316416, Note_on_c, 11, 73, 0
11, 316416, Note_on_c, 11, 71, 63
11, 316672, Note_on_c, 11, 71, 0
11, 316672, Note_on_c, 11, 69, 64
11, 316928, Note_on_c, 11, 69, 0
11, 316928, Note_on_c, 11, 67, 66
11, 317184, Note_on_c, 11, 67, 0
11, 317184, Note_on_c, 11, 69, 68
11, 317440, Note_on_c, 11, 69, 0
11, 317440, Note_on_c, 11, 71, 69
11, 317542, Note_on_c, 11, 71, 0
11, 317542, Note_on_c, 11, 73, 70
11, 317645, Note_on_c, 11, 73, 0
11, 317645, Note_on_c, 11, 71, 71
11, 317747, Note_on_c, 11, 71, 0
11, 317747, Note_on_c, 11, 73, 71
11, 317850, Note_on_c, 11, 73, 0
11, 317850, Note_on_c, 11, 71, 72
11, 317952, Note_on_c, 11, 71, 0
11, 317952, Note_on_c, 11, 73, 73
11, 318720, Note_on_c, 11, 73, 0
11, 318720, Note_on_c, 11, 71, 77
11, 318976, Note_on_c, 11, 71, 0
11, 318976, Note_on_c, 11, 69, 78
11, 319232, Note_on_c, 11, 69, 0
11, 319232, Note_on_c, 11, 71, 79
11, 319488, Note_on_c, 11, 71, 0
11, 319488, Note_on_c, 11, 73, 80
11, 319744, Note_on_c, 11, 73, 0
11, 319744, Note_on_c, 11, 71, 82
11, 320000, Note_on_c, 11, 71, 0
11, 320000, Note_on_c, 11, 73, 83
11, 320256, Note_on_c, 11, 73, 0
11, 320256, Note_on_c, 11, 74, 84
11, 320512, Note_on_c, 11, 74, 0
11, 320512, Note_on_c, 11, 73, 85
11, 320768, Note_on_c, 11, 73, 0
11, 320768, Note_on_c, 11, 71, 86
11, 321024, Note_on_c, 11, 71, 0
11, 321024, Note_on_c, 11, 69, 87
11, 321536, Note_on_c, 11, 69, 0
11, 321536, Note_on_c, 11, 66, 87
11, 321792, Note_on_c, 11, 66, 0
11, 322048, Note_on_c, 11, 62, 87
11, 322304, Note_on_c, 11, 62, 0
11, 323072, Note_on_c, 11, 78, 87
11, 323328, Note_on_c, 11, 78, 0
11, 323328, Note_on_c, 11, 76, 87
11, 323584, Note_on_c, 11, 76, 0
11, 323584, Note_on_c, 11, 74, 87
11, 323840, Note_on_c, 11, 74, 0
11, 323840, Note_on_c, 11, 78, 87
11, 324096, Note_on_c, 11, 78, 0
11, 324096, Note_on_c, 11, 76, 87
11, 324352, Note_on_c, 11, 76, 0
11, 324608, Note_on_c, 11, 76, 87
11, 324864, Note_on_c, 11, 76, 0
11, 325120, Note_on_c, 11, 76, 87
11, 325376, Note_on_c, 11, 76, 0
11, 325632, Note_on_c, 11, 76, 87
11, 326144, Note_on_c, 11, 76, 0
11, 326144, Note_on_c, 11, 64, 87
11, 326656, Note_on_c, 11, 64, 0
11, 326656, Note_on_c, 11, 69, 87
11, 326912, Note_on_c, 11, 69, 0
11, 326912, Note_on_c, 11, 71, 87
11, 327168, Note_on_c, 11, 71, 0
11, 327168, Note_on_c, 11, 72, 87
11, 327424, Note_on_c, 11, 72, 0
11, 327424, Note_on_c, 11, 69, 87
11, 327680, Note_on_c, 11, 69, 0
11, 327680, Note_on_c, 11, 71, 87
11, 327936, Note_on_c, 11, 71, 0
11, 327936, Note_on_c, 11, 72, 87
11, 328192, Note_on_c, 11, 72, 0
11, 328192, Note_on_c, 11, 74, 87
11, 328448, Note_on_c, 11, 74, 0
11, 328704, Note_on_c, 11, 67, 87
11, 328960, Note_on_c, 11, 67, 0
11, 329216, Note_on_c, 11, 69, 87
11, 329728, Note_on_c, 11, 69, 0
11, 329728, Note_on_c, 11, 62, 87
11, 329984, Note_on_c, 11, 62, 0
11, 330240, Note_on_c, 11, 62, 87
11, 330496, Note_on_c, 11, 62, 0
11, 330752, Note_on_c, 11, 71, 46
11, 331008, Note_on_c, 11, 71, 0
11, 331008, Note_on_c, 11, 73, 46
11, 331264, Note_on_c, 11, 73, 0
11, 331264, Note_on_c, 11, 74, 47
11, 331520, Note_on_c, 11, 74, 0
11, 331520, Note_on_c, 11, 71, 48
11, 331776, Note_on_c, 11, 71, 0
11, 331776, Note_on_c, 11, 73, 48
11, 332032, Note_on_c, 11, 73, 0
11, 332032, Note_on_c, 11, 71, 49
11, 332288, Note_on_c, 11, 71, 0
11, 332288, Note_on_c, 11, 73, 49
11, 332544, Note_on_c, 11, 73, 0
11, 332544, Note_on_c, 11, 74, 50
11, 332800, Note_on_c, 11, 74, 0
11, 332800, Note_on_c, 11, 76, 50
11, 333056, Note_on_c, 11, 76, 0
11, 333056, Note_on_c, 11, 73, 51
11, 333312, Note_on_c, 11, 73, 0
11, 333312, Note_on_c, 11, 74, 51
11, 333824, Note_on_c, 11, 74, 0
11, 333824, Note_on_c, 11, 69, 52
11, 334080, Note_on_c, 11, 69, 0
11, 334080, Note_on_c, 11, 67, 53
11, 334336, Note_on_c, 11, 67, 0
11, 334336, Note_on_c, 11, 66, 54
11, 334592, Note_on_c, 11, 66, 0
11, 334592, Note_on_c, 11, 69, 54
11, 334848, Note_on_c, 11, 69, 0
11, 334848, Note_on_c, 11, 67, 55
11, 335104, Note_on_c, 11, 67, 0
11, 335104, Note_on_c, 11, 66, 55
11, 335360, Note_on_c, 11, 66, 0
11, 335360, Note_on_c, 11, 67, 56
11, 335616, Note_on_c, 11, 67, 0
11, 335616, Note_on_c, 11, 69, 56
11, 335872, Note_on_c, 11, 69, 0
11, 335872, Note_on_c, 11, 71, 57
11, 336640, Note_on_c, 11, 71, 0
11, 336640, Note_on_c, 11, 72, 59
11, 336896, Note_on_c, 11, 72, 0
11, 336896, Note_on_c, 11, 71, 59
11, 337152, Note_on_c, 11, 71, 0
11, 337152, Note_on_c, 11, 69, 60
11, 337408, Note_on_c, 11, 69, 0
11, 337408, Note_on_c, 11, 67, 60
11, 337664, Note_on_c, 11, 67, 0
11, 337664, Note_on_c, 11, 66, 61
11, 337920, Note_on_c, 11, 66, 0
11, 337920, Note_on_c, 11, 67, 61
11, 338176, Note_on_c, 11, 67, 0
11, 338176, Note_on_c, 11, 69, 62
11, 338432, Note_on_c, 11, 69, 0
11, 338432, Note_on_c, 11, 71, 62
11, 338688, Note_on_c, 11, 71, 0
11, 338688, Note_on_c, 11, 73, 63
11, 338944, Note_on_c, 11, 73, 0
11, 338944, Note_on_c, 11, 74, 63
11, 339200, Note_on_c, 11, 74, 0
11, 339200, Note_on_c, 11, 76, 64
11, 339456, Note_on_c, 11, 76, 0
11, 339456, Note_on_c, 11, 74, 64
11, 339712, Note_on_c, 11, 74, 0
11, 339968, Note_on_c, 11, 69, 67
11, 340224, Note_on_c, 11, 69, 0
11, 340480, Note_on_c, 11, 66, 69
11, 340736, Note_on_c, 11, 66, 0
11, 340992, Note_on_c, 11, 71, 72
11, 341248, Note_on_c, 11, 71, 0
11, 341248, Note_on_c, 11, 67, 74
11, 341504, Note_on_c, 11, 67, 0
11, 341504, Note_on_c, 11, 69, 75
11, 341760, Note_on_c, 11, 69, 0
11, 341760, Note_on_c, 11, 71, 76
11, 342016, Note_on_c, 11, 71, 0
11, 342016, Note_on_c, 11, 73, 78
11, 342272, Note_on_c, 11, 73, 0
11, 342272, Note_on_c, 11, 74, 79
11, 342528, Note_on_c, 11, 74, 0
11, 342528, Note_on_c, 11, 76, 80
11, 344320, Note_on_c, 11, 76, 0
11, 344576, Note_on_c, 11, 69, 91
11, 344832, Note_on_c, 11, 69, 0
11, 345088, Note_on_c, 11, 74, 94
11, 345344, Note_on_c, 11, 74, 0
11, 345600, Note_on_c, 11, 73, 96
11, 345856, Note_on_c, 11, 73, 0
11, 346112, Note_on_c, 11, 69, 99
11, 346368, Note_on_c, 11, 69, 0
11, 347136, Note_on_c, 11, 74, 103
11, 347392, Note_on_c, 11, 74, 0
11, 347648, Note_on_c, 11, 74, 98
11, 347904, Note_on_c, 11, 74, 0
11, 348160, Note_on_c, 11, 74, 98
11, 348416, Note_on_c, 11, 74, 0
11, 348672, Note_on_c, 11, 74, 98
11, 348928, Note_on_c, 11, 74, 0
11, 349184, Note_on_c, 11, 74, 98
11, 349440, Note_on_c, 11, 74, 0
11, 349696, Note_on_c, 11, 76, 98
11, 349952, Note_on_c, 11, 76, 0
11, 349952, Note_on_c, 11, 78, 98
11, 350208, Note_on_c, 11, 78, 0
11, 350208, Note_on_c, 11, 79, 98
11, 350720, Note_on_c, 11, 79, 0
11, 350720, Note_on_c, 11, 67, 98
11, 350976, Note_on_c, 11, 67, 0
11, 351232, Note_on_c, 11, 67, 98
11, 351488, Note_on_c, 11, 67, 0
11, 351744, Note_on_c, 11, 67, 97
11, 352000, Note_on_c, 11, 67, 0
11, 352256, Note_on_c, 11, 64, 99
11, 352512, Note_on_c, 11, 64, 0
11, 352768, Note_on_c, 11, 66, 98
11, 353024, Note_on_c, 11, 66, 0
11, 353024, Note_on_c, 11, 67, 98
11, 353280, Note_on_c, 11, 67, 0
11, 353280, Note_on_c, 11, 69, 95
11, 353536, Note_on_c, 11, 69, 0
11, 353792, Note_on_c, 11, 69, 89
11, 354816, Note_on_c, 11, 69, 0
11, 354816, Note_on_c, 11, 69, 59
11, 355072, Note_on_c, 11, 69, 0
11, 355328, Note_on_c, 11, 69, 61
11, 355584, Note_on_c, 11, 69, 0
11, 355584, Note_on_c, 11, 67, 62
11, 355840, Note_on_c, 11, 67, 0
11, 355840, Note_on_c, 11, 69, 63
11, 356096, Note_on_c, 11, 69, 0
11, 356096, Note_on_c, 11, 71, 64
11, 356352, Note_on_c, 11, 71, 0
11, 356352, Note_on_c, 11, 67, 65
11, 356608, Note_on_c, 11, 67, 0
11, 356608, Note_on_c, 11, 69, 66
11, 356864, Note_on_c, 11, 69, 0
11, 356864, Note_on_c, 11, 71, 67
11, 357120, Note_on_c, 11, 71, 0
11, 357120, Note_on_c, 11, 69, 68
11, 357376, Note_on_c, 11, 69, 0
11, 357376, Note_on_c, 11, 71, 70
11, 357632, Note_on_c, 11, 71, 0
11, 357632, Note_on_c, 11, 73, 71
11, 357888, Note_on_c, 11, 73, 0
11, 357888, Note_on_c, 11, 69, 72
11, 358144, Note_on_c, 11, 69, 0
11, 358144, Note_on_c, 11, 71, 73
11, 358400, Note_on_c, 11, 71, 0
11, 358400, Note_on_c, 11, 73, 74
11, 358656, Note_on_c, 11, 73, 0
11, 358656, Note_on_c, 11, 71, 75
11, 358912, Note_on_c, 11, 71, 0
11, 358912, Note_on_c, 11, 73, 76
11, 359168, Note_on_c, 11, 73, 0
11, 359168, Note_on_c, 11, 74, 77
11, 359424, Note_on_c, 11, 74, 0
11, 359424, Note_on_c, 11, 71, 78
11, 359680, Note_on_c, 11, 71, 0
11, 359680, Note_on_c, 11, 73, 79
11, 359936, Note_on_c, 11, 73, 0
11, 359936, Note_on_c, 11, 74, 80
11, 360192, Note_on_c, 11, 74, 0
11, 360192, Note_on_c, 11, 73, 81
11, 360448, Note_on_c, 11, 73, 0
11, 360448, Note_on_c, 11, 74, 82
11, 360704, Note_on_c, 11, 74, 0
11, 360704, Note_on_c, 11, 76, 83
11, 360960, Note_on_c, 11, 76, 0
11, 360960, Note_on_c, 11, 73, 84
11, 361216, Note_on_c, 11, 73, 0
11, 361216, Note_on_c, 11, 74, 85
11, 361472, Note_on_c, 11, 74, 0
11, 361472, Note_on_c, 11, 76, 86
11, 361728, Note_on_c, 11, 76, 0
11, 361728, Note_on_c, 11, 74, 88
11, 361984, Note_on_c, 11, 74, 0
11, 361984, Note_on_c, 11, 76, 89
11, 362240, Note_on_c, 11, 76, 0
11, 362240, Note_on_c, 11, 78, 90
11, 362496, Note_on_c, 11, 78, 0
11, 362496, Note_on_c, 11, 74, 91
11, 362752, Note_on_c, 11, 74, 0
11, 362752, Note_on_c, 11, 76, 92
11, 363008, Note_on_c, 11, 76, 0
11, 363008, Note_on_c, 11, 78, 93
11, 363264, Note_on_c, 11, 78, 0
11, 363264, Note_on_c, 11, 76, 94
11, 363520, Note_on_c, 11, 76, 0
11, 363520, Note_on_c, 11, 74, 95
11, 363776, Note_on_c, 11, 74, 0
11, 363776, Note_on_c, 11, 76, 96
11, 364032, Note_on_c, 11, 76, 0
11, 364032, Note_on_c, 11, 73, 102
11, 364288, Note_on_c, 11, 73, 0
11, 364288, Note_on_c, 11, 71, 102
11, 364544, Note_on_c, 11, 71, 0
11, 364544, Note_on_c, 11, 73, 102
11, 364800, Note_on_c, 11, 73, 0
11, 364800, Note_on_c, 11, 74, 103
11, 365056, Note_on_c, 11, 74, 0
11, 365056, Note_on_c, 11, 76, 103
11, 365312, Note_on_c, 11, 76, 0
11, 365312, Note_on_c, 11, 73, 104
11, 365568, Note_on_c, 11, 73, 0
11, 365568, Note_on_c, 11, 74, 104
11, 365824, Note_on_c, 11, 74, 0
11, 365824, Note_on_c, 11, 76, 104
11, 366080, Note_on_c, 11, 76, 0
11, 366080, Note_on_c, 11, 73, 105
11, 366336, Note_on_c, 11, 73, 0
11, 366336, Note_on_c, 11, 74, 105
11, 366592, Note_on_c, 11, 74, 0
11, 366592, Note_on_c, 11, 76, 105
11, 366848, Note_on_c, 11, 76, 0
11, 366848, Note_on_c, 11, 73, 106
11, 367104, Note_on_c, 11, 73, 0
11, 367104, Note_on_c, 11, 74, 106
11, 367360, Note_on_c, 11, 74, 0
11, 367360, Note_on_c, 11, 76, 107
11, 367616, Note_on_c, 11, 76, 0
11, 367616, Note_on_c, 11, 78, 107
11, 367872, Note_on_c, 11, 78, 0
11, 367872, Note_on_c, 11, 76, 107
11, 368128, Note_on_c, 11, 76, 0
11, 368128, Note_on_c, 11, 74, 108
11, 368384, Note_on_c, 11, 74, 0
11, 368384, Note_on_c, 11, 76, 108
11, 368640, Note_on_c, 11, 76, 0
11, 368640, Note_on_c, 11, 73, 108
11, 368896, Note_on_c, 11, 73, 0
11, 368896, Note_on_c, 11, 69, 109
11, 369152, Note_on_c, 11, 69, 0
11, 369152, Note_on_c, 11, 71, 109
11, 369408, Note_on_c, 11, 71, 0
11, 369408, Note_on_c, 11, 73, 110
11, 369664, Note_on_c, 11, 73, 0
11, 369664, Note_on_c, 11, 74, 110
11, 369920, Note_on_c, 11, 74, 0
11, 369920, Note_on_c, 11, 76, 110
11, 370176, Note_on_c, 11, 76, 0
11, 370176, Note_on_c, 11, 78, 111
11, 373760, Note_on_c, 11, 78, 0
11, 373760, Note_on_c, 11, 71, 116
11, 374272, Note_on_c, 11, 71, 0
11, 374272, Note_on_c, 11, 73, 117
11, 374528, Note_on_c, 11, 73, 0
11, 374528, Note_on_c, 11, 74, 117
11, 374784, Note_on_c, 11, 74, 0
11, 374784, Note_on_c, 11, 76, 117
11, 375552, Note_on_c, 11, 76, 0
11, 375552, Note_on_c, 11, 73, 119
11, 375808, Note_on_c, 11, 73, 0
11, 375808, Note_on_c, 11, 74, 119
11, 376576, Note_on_c, 11, 74, 0
11, 376576, Note_on_c, 11, 76, 121
11, 376832, Note_on_c, 11, 76, 0
11, 376832, Note_on_c, 11, 73, 121
11, 377600, Note_on_c, 11, 73, 0
11, 377600, Note_on_c, 11, 74, 123
11, 377856, Note_on_c, 11, 74, 0
11, 377856, Note_on_c, 11, 74, 123
11, 379392, Control_c, 11, 121, 127
11, 379392, Note_on_c, 11, 74, 0
11, 379392, End_track
12, 0, Start_track
12, 0, Title_t, "Alto I"
12, 0, Program_c, 12, 52
12, 0, Control_c, 12, 121, 127
12, 0, Control_c, 12, 91, 127
12, 0, Control_c, 12, 1, 10
12, 0, Control_c, 12, 10, 60
12, 1024, Note_on_c, 12, 69, 108
12, 1894, Note_on_c, 12, 69, 0
12, 2048, Note_on_c, 12, 66, 106
12, 2918, Note_on_c, 12, 66, 0
12, 3072, Note_on_c, 12, 66, 82
12, 3413, Note_on_c, 12, 66, 0
12, 3413, Note_on_c, 12, 64, 87
12, 3755, Note_on_c, 12, 64, 0
12, 3755, Note_on_c, 12, 66, 91
12, 4096, Note_on_c, 12, 66, 0
12, 4096, Note_on_c, 12, 67, 95
12, 4437, Note_on_c, 12, 67, 0
12, 4437, Note_on_c, 12, 66, 100
12, 4779, Note_on_c, 12, 66, 0
12, 4779, Note_on_c, 12, 67, 104
12, 5120, Note_on_c, 12, 67, 0
12, 5120, Note_on_c, 12, 69, 109
12, 5990, Note_on_c, 12, 69, 0
12, 6144, Note_on_c, 12, 66, 107
12, 7014, Note_on_c, 12, 66, 0
12, 7168, Note_on_c, 12, 67, 82
12, 7509, Note_on_c, 12, 67, 0
12, 7509, Note_on_c, 12, 66, 86
12, 7851, Note_on_c, 12, 66, 0
12, 7851, Note_on_c, 12, 67, 90
12, 8192, Note_on_c, 12, 67, 0
12, 8192, Note_on_c, 12, 69, 94
12, 8533, Note_on_c, 12, 69, 0
12, 8533, Note_on_c, 12, 67, 98
12, 8875, Note_on_c, 12, 67, 0
12, 8875, Note_on_c, 12, 69, 102
12, 9216, Note_on_c, 12, 69, 0
12, 9216, Note_on_c, 12, 71, 107
12, 10086, Note_on_c, 12, 71, 0
12, 10240, Note_on_c, 12, 67, 105
12, 11110, Note_on_c, 12, 67, 0
12, 11264, Note_on_c, 12, 64, 65
12, 11605, Note_on_c, 12, 64, 0
12, 11605, Note_on_c, 12, 62, 55
12, 11947, Note_on_c, 12, 62, 0
12, 11947, Note_on_c, 12, 64, 55
12, 12288, Note_on_c, 12, 64, 0
12, 12288, Note_on_c, 12, 66, 55
12, 12629, Note_on_c, 12, 66, 0
12, 12629, Note_on_c, 12, 64, 55
12, 12971, Note_on_c, 12, 64, 0
12, 12971, Note_on_c, 12, 66, 55
12, 13312, Note_on_c, 12, 66, 0
12, 13312, Note_on_c, 12, 67, 55
12, 13653, Note_on_c, 12, 67, 0
12, 13653, Note_on_c, 12, 66, 55
12, 13995, Note_on_c, 12, 66, 0
12, 13995, Note_on_c, 12, 67, 55
12, 14336, Note_on_c, 12, 67, 0
12, 14336, Note_on_c, 12, 64, 55
12, 14677, Note_on_c, 12, 64, 0
12, 14677, Note_on_c, 12, 62, 55
12, 15019, Note_on_c, 12, 62, 0
12, 15019, Note_on_c, 12, 64, 55
12, 15360, Note_on_c, 12, 64, 0
12, 15360, Note_on_c, 12, 66, 54
12, 15701, Note_on_c, 12, 66, 0
12, 15701, Note_on_c, 12, 64, 61
12, 16043, Note_on_c, 12, 64, 0
12, 16043, Note_on_c, 12, 66, 68
12, 16384, Note_on_c, 12, 66, 0
12, 16384, Note_on_c, 12, 67, 74
12, 16725, Note_on_c, 12, 67, 0
12, 16725, Note_on_c, 12, 66, 81
12, 17067, Note_on_c, 12, 66, 0
12, 17067, Note_on_c, 12, 67, 88
12, 17408, Note_on_c, 12, 67, 0
12, 17408, Note_on_c, 12, 69, 99
12, 18278, Note_on_c, 12, 69, 0
12, 18432, Note_on_c, 12, 66, 97
12, 19302, Note_on_c, 12, 66, 0
12, 19456, Note_on_c, 12, 68, 97
12, 20037, Note_on_c, 12, 68, 0
12, 20139, Note_on_c, 12, 68, 97
12, 20480, Note_on_c, 12, 68, 0
12, 20480, Note_on_c, 12, 64, 97
12, 21350, Note_on_c, 12, 64, 0
12, 21504, Note_on_c, 12, 66, 97
12, 22085, Note_on_c, 12, 66, 0
12, 22187, Note_on_c, 12, 74, 97
12, 22528, Note_on_c, 12, 74, 0
12, 22528, Note_on_c, 12, 71, 97
12, 23398, Note_on_c, 12, 71, 0
12, 23552, Note_on_c, 12, 69, 98
12, 24133, Note_on_c, 12, 69, 0
12, 24235, Note_on_c, 12, 69, 101
12, 24576, Note_on_c, 12, 69, 0
12, 24576, Note_on_c, 12, 69, 103
12, 25446, Note_on_c, 12, 69, 0
12, 25600, Note_on_c, 12, 76, 108
12, 26470, Note_on_c, 12, 76, 0
12, 26624, Note_on_c, 12, 73, 105
12, 27494, Note_on_c, 12, 73, 0
12, 27648, Note_on_c, 12, 69, 94
12, 27989, Note_on_c, 12, 69, 0
12, 27989, Note_on_c, 12, 68, 96
12, 28331, Note_on_c, 12, 68, 0
12, 28331, Note_on_c, 12, 69, 98
12, 28672, Note_on_c, 12, 69, 0
12, 28672, Note_on_c, 12, 71, 100
12, 29013, Note_on_c, 12, 71, 0
12, 29013, Note_on_c, 12, 69, 102
12, 29355, Note_on_c, 12, 69, 0
12, 29355, Note_on_c, 12, 71, 104
12, 29696, Note_on_c, 12, 71, 0
12, 29696, Note_on_c, 12, 73, 106
12, 30566, Note_on_c, 12, 73, 0
12, 30720, Note_on_c, 12, 69, 104
12, 31590, Note_on_c, 12, 69, 0
12, 31744, Note_on_c, 12, 71, 93
12, 32085, Note_on_c, 12, 71, 0
12, 32085, Note_on_c, 12, 69, 95
12, 32427, Note_on_c, 12, 69, 0
12, 32427, Note_on_c, 12, 71, 97
12, 32768, Note_on_c, 12, 71, 0
12, 32768, Note_on_c, 12, 73, 100
12, 33109, Note_on_c, 12, 73, 0
12, 33109, Note_on_c, 12, 71, 102
12, 33451, Note_on_c, 12, 71, 0
12, 33451, Note_on_c, 12, 73, 104
12, 33792, Note_on_c, 12, 73, 0
12, 33792, Note_on_c, 12, 74, 106
12, 34662, Note_on_c, 12, 74, 0
12, 34816, Note_on_c, 12, 69, 100
12, 35686, Note_on_c, 12, 69, 0
12, 35840, Note_on_c, 12, 68, 57
12, 36181, Note_on_c, 12, 68, 0
12, 36181, Note_on_c, 12, 66, 57
12, 36523, Note_on_c, 12, 66, 0
12, 36523, Note_on_c, 12, 68, 57
12, 36864, Note_on_c, 12, 68, 0
12, 36864, Note_on_c, 12, 69, 57
12, 37205, Note_on_c, 12, 69, 0
12, 37205, Note_on_c, 12, 68, 57
12, 37547, Note_on_c, 12, 68, 0
12, 37547, Note_on_c, 12, 69, 57
12, 37888, Note_on_c, 12, 69, 0
12, 37888, Note_on_c, 12, 71, 57
12, 38229, Note_on_c, 12, 71, 0
12, 38229, Note_on_c, 12, 69, 57
12, 38571, Note_on_c, 12, 69, 0
12, 38571, Note_on_c, 12, 71, 57
12, 38912, Note_on_c, 12, 71, 0
12, 38912, Note_on_c, 12, 68, 57
12, 39253, Note_on_c, 12, 68, 0
12, 39253, Note_on_c, 12, 66, 57
12, 39595, Note_on_c, 12, 66, 0
12, 39595, Note_on_c, 12, 68, 57
12, 39936, Note_on_c, 12, 68, 0
12, 39936, Note_on_c, 12, 69, 59
12, 40277, Note_on_c, 12, 69, 0
12, 40277, Note_on_c, 12, 68, 65
12, 40619, Note_on_c, 12, 68, 0
12, 40619, Note_on_c, 12, 69, 72
12, 40960, Note_on_c, 12, 69, 0
12, 40960, Note_on_c, 12, 71, 78
12, 41301, Note_on_c, 12, 71, 0
12, 41301, Note_on_c, 12, 69, 84
12, 41643, Note_on_c, 12, 69, 0
12, 41643, Note_on_c, 12, 71, 91
12, 41984, Note_on_c, 12, 71, 0
12, 41984, Note_on_c, 12, 73, 97
12, 43349, Note_on_c, 12, 73, 0
12, 43349, Note_on_c, 12, 71, 96
12, 43691, Note_on_c, 12, 71, 0
12, 43691, Note_on_c, 12, 73, 96
12, 44032, Note_on_c, 12, 73, 0
12, 44032, Note_on_c, 12, 74, 96
12, 45397, Note_on_c, 12, 74, 0
12, 45397, Note_on_c, 12, 73, 96
12, 45739, Note_on_c, 12, 73, 0
12, 45739, Note_on_c, 12, 74, 96
12, 46080, Note_on_c, 12, 74, 0
12, 46080, Note_on_c, 12, 76, 96
12, 47445, Note_on_c, 12, 76, 0
12, 47445, Note_on_c, 12, 74, 96
12, 47787, Note_on_c, 12, 74, 0
12, 47787, Note_on_c, 12, 76, 96
12, 48128, Note_on_c, 12, 76, 0
12, 48128, Note_on_c, 12, 69, 96
12, 48469, Note_on_c, 12, 69, 0
12, 48469, Note_on_c, 12, 67, 97
12, 48811, Note_on_c, 12, 67, 0
12, 48811, Note_on_c, 12, 69, 99
12, 49152, Note_on_c, 12, 69, 0
12, 49152, Note_on_c, 12, 66, 101
12, 49493, Note_on_c, 12, 66, 0
12, 49493, Note_on_c, 12, 69, 103
12, 49835, Note_on_c, 12, 69, 0
12, 49835, Note_on_c, 12, 67, 105
12, 50176, Note_on_c, 12, 67, 0
12, 50176, Note_on_c, 12, 69, 106
12, 51046, Note_on_c, 12, 69, 0
12, 51200, Note_on_c, 12, 66, 104
12, 52070, Note_on_c, 12, 66, 0
12, 54272, Note_on_c, 12, 66, 104
12, 55142, Note_on_c, 12, 66, 0
12, 55296, Note_on_c, 12, 62, 103
12, 56166, Note_on_c, 12, 62, 0
12, 56320, Note_on_c, 12, 71, 90
12, 56661, Note_on_c, 12, 71, 0
12, 56661, Note_on_c, 12, 72, 92
12, 57003, Note_on_c, 12, 72, 0
12, 57003, Note_on_c, 12, 71, 94
12, 57344, Note_on_c, 12, 71, 0
12, 57344, Note_on_c, 12, 69, 97
12, 57685, Note_on_c, 12, 69, 0
12, 57685, Note_on_c, 12, 71, 99
12, 58027, Note_on_c, 12, 71, 0
12, 58027, Note_on_c, 12, 69, 102
12, 58368, Note_on_c, 12, 69, 0
12, 58368, Note_on_c, 12, 67, 104
12, 58709, Note_on_c, 12, 67, 0
12, 58709, Note_on_c, 12, 69, 94
12, 59051, Note_on_c, 12, 69, 0
12, 59051, Note_on_c, 12, 71, 98
12, 59392, Note_on_c, 12, 71, 0
12, 59392, Note_on_c, 12, 71, 102
12, 60262, Note_on_c, 12, 71, 0
12, 60416, Note_on_c, 12, 69, 54
12, 61781, Note_on_c, 12, 69, 0
12, 61781, Note_on_c, 12, 71, 54
12, 62123, Note_on_c, 12, 71, 0
12, 62123, Note_on_c, 12, 69, 54
12, 62464, Note_on_c, 12, 69, 0
12, 62464, Note_on_c, 12, 67, 54
12, 62805, Note_on_c, 12, 67, 0
12, 62805, Note_on_c, 12, 69, 54
12, 63147, Note_on_c, 12, 69, 0
12, 63147, Note_on_c, 12, 67, 54
12, 63488, Note_on_c, 12, 67, 0
12, 63488, Note_on_c, 12, 69, 54
12, 64853, Note_on_c, 12, 69, 0
12, 64853, Note_on_c, 12, 71, 61
12, 65195, Note_on_c, 12, 71, 0
12, 65195, Note_on_c, 12, 69, 67
12, 65536, Note_on_c, 12, 69, 0
12, 65536, Note_on_c, 12, 67, 72
12, 65877, Note_on_c, 12, 67, 0
12, 65877, Note_on_c, 12, 69, 77
12, 66219, Note_on_c, 12, 69, 0
12, 66219, Note_on_c, 12, 67, 83
12, 66560, Note_on_c, 12, 67, 0
12, 66560, Note_on_c, 12, 69, 88
12, 70656, Note_on_c, 12, 69, 0
12, 70656, Note_on_c, 12, 71, 88
12, 72704, Note_on_c, 12, 71, 0
12, 72704, Note_on_c, 12, 66, 88
12, 74588, Note_on_c, 12, 66, 0
12, 74752, Note_on_c, 12, 66, 100
12, 78848, Note_on_c, 12, 66, 0
12, 78848, Note_on_c, 12, 67, 99
12, 80896, Note_on_c, 12, 67, 0
12, 80896, Note_on_c, 12, 62, 99
12, 82780, Note_on_c, 12, 62, 0
12, 82944, Note_on_c, 12, 67, 80
12, 89088, Note_on_c, 12, 67, 0
12, 89088, Note_on_c, 12, 66, 80
12, 90972, Note_on_c, 12, 66, 0
12, 91136, Note_on_c, 12, 67, 55
12, 91477, Note_on_c, 12, 67, 0
12, 91477, Note_on_c, 12, 69, 49
12, 91819, Note_on_c, 12, 69, 0
12, 91819, Note_on_c, 12, 71, 49
12, 92160, Note_on_c, 12, 71, 0
12, 92160, Note_on_c, 12, 64, 49
12, 92501, Note_on_c, 12, 64, 0
12, 92501, Note_on_c, 12, 66, 49
12, 92843, Note_on_c, 12, 66, 0
12, 92843, Note_on_c, 12, 67, 49
12, 93184, Note_on_c, 12, 67, 0
12, 93184, Note_on_c, 12, 66, 49
12, 93765, Note_on_c, 12, 66, 0
12, 93867, Note_on_c, 12, 66, 49
12, 94208, Note_on_c, 12, 66, 0
12, 94208, Note_on_c, 12, 62, 49
12, 94549, Note_on_c, 12, 62, 0
12, 94549, Note_on_c, 12, 64, 49
12, 94891, Note_on_c, 12, 64, 0
12, 94891, Note_on_c, 12, 66, 49
12, 95232, Note_on_c, 12, 66, 0
12, 95232, Note_on_c, 12, 64, 49
12, 95573, Note_on_c, 12, 64, 0
12, 95573, Note_on_c, 12, 62, 49
12, 95915, Note_on_c, 12, 62, 0
12, 95915, Note_on_c, 12, 61, 49
12, 96837, Note_on_c, 12, 61, 0
12, 96939, Note_on_c, 12, 66, 49
12, 97280, Note_on_c, 12, 66, 0
12, 97280, Note_on_c, 12, 66, 48
12, 97861, Note_on_c, 12, 66, 0
12, 97963, Note_on_c, 12, 66, 46
12, 98304, Note_on_c, 12, 66, 0
12, 98304, Note_on_c, 12, 66, 44
12, 99174, Note_on_c, 12, 66, 0
12, 99328, Note_on_c, 12, 67, 40
12, 100198, Note_on_c, 12, 67, 0
12, 100352, Note_on_c, 12, 64, 40
12, 101222, Note_on_c, 12, 64, 0
12, 101376, Note_on_c, 12, 71, 40
12, 101717, Note_on_c, 12, 71, 0
12, 101717, Note_on_c, 12, 72, 40
12, 102059, Note_on_c, 12, 72, 0
12, 102059, Note_on_c, 12, 71, 40
12, 102400, Note_on_c, 12, 71, 0
12, 102400, Note_on_c, 12, 67, 40
12, 102741, Note_on_c, 12, 67, 0
12, 102741, Note_on_c, 12, 69, 40
12, 103083, Note_on_c, 12, 69, 0
12, 103083, Note_on_c, 12, 67, 40
12, 103424, Note_on_c, 12, 67, 0
12, 103424, Note_on_c, 12, 64, 40
12, 103765, Note_on_c, 12, 64, 0
12, 103765, Note_on_c, 12, 62, 40
12, 104107, Note_on_c, 12, 62, 0
12, 104107, Note_on_c, 12, 64, 40
12, 104448, Note_on_c, 12, 64, 0
12, 104448, Note_on_c, 12, 67, 40
12, 104789, Note_on_c, 12, 67, 0
12, 104789, Note_on_c, 12, 66, 40
12, 105131, Note_on_c, 12, 66, 0
12, 105131, Note_on_c, 12, 67, 40
12, 105472, Note_on_c, 12, 67, 0
12, 105472, Note_on_c, 12, 73, 40
12, 106342, Note_on_c, 12, 73, 0
12, 106496, Note_on_c, 12, 64, 40
12, 107366, Note_on_c, 12, 64, 0
12, 107520, Note_on_c, 12, 66, 40
12, 108390, Note_on_c, 12, 66, 0
12, 108544, Note_on_c, 12, 62, 40
12, 109414, Note_on_c, 12, 62, 0
12, 109568, Note_on_c, 12, 69, 40
12, 109909, Note_on_c, 12, 69, 0
12, 109909, Note_on_c, 12, 71, 40
12, 110251, Note_on_c, 12, 71, 0
12, 110251, Note_on_c, 12, 69, 40
12, 110592, Note_on_c, 12, 69, 0
12, 110592, Note_on_c, 12, 66, 40
12, 110933, Note_on_c, 12, 66, 0
12, 110933, Note_on_c, 12, 67, 40
12, 111275, Note_on_c, 12, 67, 0
12, 111275, Note_on_c, 12, 66, 40
12, 111616, Note_on_c, 12, 66, 0
12, 111616, Note_on_c, 12, 62, 40
12, 112197, Note_on_c, 12, 62, 0
12, 112299, Note_on_c, 12, 62, 41
12, 112640, Note_on_c, 12, 62, 0
12, 112640, Note_on_c, 12, 64, 41
12, 114005, Note_on_c, 12, 64, 0
12, 114005, Note_on_c, 12, 62, 43
12, 114347, Note_on_c, 12, 62, 0
12, 114347, Note_on_c, 12, 64, 44
12, 114688, Note_on_c, 12, 64, 0
12, 114688, Note_on_c, 12, 62, 45
12, 116053, Note_on_c, 12, 62, 0
12, 116053, Note_on_c, 12, 61, 47
12, 116395, Note_on_c, 12, 61, 0
12, 116395, Note_on_c, 12, 62, 47
12, 116736, Note_on_c, 12, 62, 0
12, 116736, Note_on_c, 12, 61, 48
12, 117317, Note_on_c, 12, 61, 0
12, 117419, Note_on_c, 12, 61, 49
12, 117760, Note_on_c, 12, 61, 0
12, 117760, Note_on_c, 12, 62, 50
12, 118630, Note_on_c, 12, 62, 0
12, 118784, Note_on_c, 12, 74, 51
12, 120149, Note_on_c, 12, 74, 0
12, 120149, Note_on_c, 12, 76, 52
12, 120491, Note_on_c, 12, 76, 0
12, 120491, Note_on_c, 12, 74, 52
12, 120832, Note_on_c, 12, 74, 0
12, 120832, Note_on_c, 12, 73, 52
12, 121173, Note_on_c, 12, 73, 0
12, 121173, Note_on_c, 12, 74, 52
12, 121515, Note_on_c, 12, 74, 0
12, 121515, Note_on_c, 12, 71, 52
12, 121856, Note_on_c, 12, 71, 0
12, 121856, Note_on_c, 12, 69, 52
12, 122726, Note_on_c, 12, 69, 0
12, 122880, Note_on_c, 12, 69, 52
12, 123750, Note_on_c, 12, 69, 0
12, 124928, Note_on_c, 12, 71, 52
12, 126293, Note_on_c, 12, 71, 0
12, 126293, Note_on_c, 12, 73, 52
12, 126635, Note_on_c, 12, 73, 0
12, 126635, Note_on_c, 12, 71, 52
12, 126976, Note_on_c, 12, 71, 0
12, 126976, Note_on_c, 12, 69, 52
12, 127317, Note_on_c, 12, 69, 0
12, 127317, Note_on_c, 12, 71, 52
12, 127659, Note_on_c, 12, 71, 0
12, 127659, Note_on_c, 12, 67, 52
12, 128000, Note_on_c, 12, 67, 0
12, 128000, Note_on_c, 12, 66, 52
12, 128341, Note_on_c, 12, 66, 0
12, 128341, Note_on_c, 12, 64, 52
12, 128683, Note_on_c, 12, 64, 0
12, 128683, Note_on_c, 12, 66, 52
12, 129024, Note_on_c, 12, 66, 0
12, 129024, Note_on_c, 12, 67, 52
12, 130389, Note_on_c, 12, 67, 0
12, 130389, Note_on_c, 12, 66, 54
12, 130731, Note_on_c, 12, 66, 0
12, 130731, Note_on_c, 12, 67, 58
12, 131072, Note_on_c, 12, 67, 0
12, 131072, Note_on_c, 12, 69, 61
12, 132437, Note_on_c, 12, 69, 0
12, 132437, Note_on_c, 12, 71, 73
12, 132779, Note_on_c, 12, 71, 0
12, 132779, Note_on_c, 12, 73, 74
12, 133120, Note_on_c, 12, 73, 0
12, 133120, Note_on_c, 12, 62, 75
12, 134485, Note_on_c, 12, 62, 0
12, 134485, Note_on_c, 12, 61, 79
12, 134827, Note_on_c, 12, 61, 0
12, 134827, Note_on_c, 12, 62, 80
12, 135168, Note_on_c, 12, 62, 0
12, 135168, Note_on_c, 12, 64, 81
12, 136533, Note_on_c, 12, 64, 0
12, 136533, Note_on_c, 12, 62, 84
12, 136875, Note_on_c, 12, 62, 0
12, 136875, Note_on_c, 12, 64, 85
12, 137216, Note_on_c, 12, 64, 0
12, 137216, Note_on_c, 12, 66, 86
12, 138581, Note_on_c, 12, 66, 0
12, 138581, Note_on_c, 12, 64, 90
12, 138923, Note_on_c, 12, 64, 0
12, 138923, Note_on_c, 12, 66, 91
12, 139264, Note_on_c, 12, 66, 0
12, 139264, Note_on_c, 12, 59, 92
12, 140134, Note_on_c, 12, 59, 0
12, 140288, Note_on_c, 12, 64, 94
12, 144384, Note_on_c, 12, 64, 0
12, 144384, Note_on_c, 12, 66, 94
12, 146432, Note_on_c, 12, 66, 0
12, 146432, Note_on_c, 12, 61, 94
12, 148316, Note_on_c, 12, 61, 0
12, 148480, Note_on_c, 12, 66, 94
12, 154624, Note_on_c, 12, 66, 0
12, 154624, Note_on_c, 12, 64, 94
12, 156508, Note_on_c, 12, 64, 0
12, 156672, Note_on_c, 12, 69, 94
12, 160768, Note_on_c, 12, 69, 0
12, 160768, Note_on_c, 12, 71, 94
12, 162816, Note_on_c, 12, 71, 0
12, 162816, Note_on_c, 12, 66, 84
12, 164700, Note_on_c, 12, 66, 0
12, 164864, Note_on_c, 12, 62, 58
12, 165205, Note_on_c, 12, 62, 0
12, 165205, Note_on_c, 12, 61, 58
12, 165547, Note_on_c, 12, 61, 0
12, 165547, Note_on_c, 12, 62, 58
12, 165888, Note_on_c, 12, 62, 0
12, 165888, Note_on_c, 12, 66, 58
12, 166229, Note_on_c, 12, 66, 0
12, 166229, Note_on_c, 12, 64, 58
12, 166571, Note_on_c, 12, 64, 0
12, 166571, Note_on_c, 12, 66, 58
12, 166912, Note_on_c, 12, 66, 0
12, 166912, Note_on_c, 12, 71, 58
12, 167782, Note_on_c, 12, 71, 0
12, 167936, Note_on_c, 12, 62, 58
12, 168806, Note_on_c, 12, 62, 0
12, 168960, Note_on_c, 12, 64, 58
12, 169830, Note_on_c, 12, 64, 0
12, 169984, Note_on_c, 12, 59, 58
12, 170854, Note_on_c, 12, 59, 0
12, 171008, Note_on_c, 12, 71, 58
12, 171349, Note_on_c, 12, 71, 0
12, 171349, Note_on_c, 12, 73, 58
12, 171691, Note_on_c, 12, 73, 0
12, 171691, Note_on_c, 12, 71, 58
12, 172032, Note_on_c, 12, 71, 0
12, 172032, Note_on_c, 12, 68, 58
12, 172373, Note_on_c, 12, 68, 0
12, 172373, Note_on_c, 12, 69, 58
12, 172715, Note_on_c, 12, 69, 0
12, 172715, Note_on_c, 12, 68, 58
12, 173056, Note_on_c, 12, 68, 0
12, 173056, Note_on_c, 12, 64, 58
12, 173397, Note_on_c, 12, 64, 0
12, 173397, Note_on_c, 12, 62, 58
12, 173739, Note_on_c, 12, 62, 0
12, 173739, Note_on_c, 12, 64, 58
12, 174080, Note_on_c, 12, 64, 0
12, 174080, Note_on_c, 12, 67, 58
12, 174421, Note_on_c, 12, 67, 0
12, 174421, Note_on_c, 12, 66, 58
12, 174763, Note_on_c, 12, 66, 0
12, 174763, Note_on_c, 12, 67, 58
12, 175104, Note_on_c, 12, 67, 0
12, 175104, Note_on_c, 12, 73, 58
12, 175974, Note_on_c, 12, 73, 0
12, 176128, Note_on_c, 12, 64, 58
12, 176998, Note_on_c, 12, 64, 0
12, 177152, Note_on_c, 12, 66, 64
12, 178176, Note_on_c, 12, 66, 0
12, 178176, Note_on_c, 12, 68, 62
12, 180224, Note_on_c, 12, 68, 0
12, 180224, Note_on_c, 12, 66, 69
12, 181094, Note_on_c, 12, 66, 0
12, 181248, Note_on_c, 12, 66, 73
12, 182272, Note_on_c, 12, 66, 0
12, 182272, Note_on_c, 12, 64, 76
12, 184320, Note_on_c, 12, 64, 0
12, 184320, Note_on_c, 12, 62, 84
12, 185344, Note_on_c, 12, 62, 0
12, 185344, Note_on_c, 12, 62, 87
12, 186214, Note_on_c, 12, 62, 0
12, 186368, Note_on_c, 12, 61, 90
12, 187973, Note_on_c, 12, 61, 0
12, 188075, Note_on_c, 12, 66, 93
12, 188416, Note_on_c, 12, 66, 0
12, 188416, Note_on_c, 12, 65, 94
12, 188757, Note_on_c, 12, 65, 0
12, 188757, Note_on_c, 12, 66, 95
12, 189099, Note_on_c, 12, 66, 0
12, 189099, Note_on_c, 12, 68, 95
12, 189781, Note_on_c, 12, 68, 0
12, 189781, Note_on_c, 12, 69, 97
12, 190123, Note_on_c, 12, 69, 0
12, 190123, Note_on_c, 12, 71, 97
12, 190464, Note_on_c, 12, 71, 0
12, 190464, Note_on_c, 12, 69, 98
12, 190805, Note_on_c, 12, 69, 0
12, 190805, Note_on_c, 12, 71, 99
12, 191147, Note_on_c, 12, 71, 0
12, 191147, Note_on_c, 12, 68, 99
12, 191488, Note_on_c, 12, 68, 0
12, 191488, Note_on_c, 12, 68, 100
12, 193024, Note_on_c, 12, 68, 0
12, 193024, Note_on_c, 12, 66, 100
12, 193280, Note_on_c, 12, 66, 0
12, 193536, Note_on_c, 12, 66, 100
12, 193792, Note_on_c, 12, 66, 0
12, 221184, Note_on_c, 12, 62, 72
12, 221440, Note_on_c, 12, 62, 0
12, 221696, Note_on_c, 12, 62, 66
12, 221952, Note_on_c, 12, 62, 0
12, 222208, Note_on_c, 12, 62, 66
12, 222464, Note_on_c, 12, 62, 0
12, 222720, Note_on_c, 12, 71, 72
12, 222976, Note_on_c, 12, 71, 0
12, 223232, Note_on_c, 12, 71, 66
12, 223488, Note_on_c, 12, 71, 0
12, 223744, Note_on_c, 12, 71, 67
12, 224000, Note_on_c, 12, 71, 0
12, 224256, Note_on_c, 12, 64, 67
12, 224768, Note_on_c, 12, 64, 0
12, 224768, Note_on_c, 12, 64, 67
12, 225024, Note_on_c, 12, 64, 0
12, 225280, Note_on_c, 12, 66, 69
12, 225536, Note_on_c, 12, 66, 0
12, 225536, Note_on_c, 12, 67, 70
12, 225792, Note_on_c, 12, 67, 0
12, 225792, Note_on_c, 12, 69, 71
12, 226048, Note_on_c, 12, 69, 0
12, 226048, Note_on_c, 12, 71, 71
12, 226304, Note_on_c, 12, 71, 0
12, 226304, Note_on_c, 12, 73, 72
12, 226560, Note_on_c, 12, 73, 0
12, 226560, Note_on_c, 12, 71, 72
12, 226816, Note_on_c, 12, 71, 0
12, 226816, Note_on_c, 12, 69, 73
12, 227072, Note_on_c, 12, 69, 0
12, 227072, Note_on_c, 12, 67, 73
12, 227328, Note_on_c, 12, 67, 0
12, 227328, Note_on_c, 12, 66, 74
12, 227584, Note_on_c, 12, 66, 0
12, 227840, Note_on_c, 12, 64, 76
12, 228096, Note_on_c, 12, 64, 0
12, 228096, Note_on_c, 12, 62, 77
12, 228352, Note_on_c, 12, 62, 0
12, 228352, Note_on_c, 12, 69, 78
12, 229120, Note_on_c, 12, 69, 0
12, 229120, Note_on_c, 12, 71, 81
12, 229376, Note_on_c, 12, 71, 0
12, 229376, Note_on_c, 12, 68, 82
12, 230144, Note_on_c, 12, 68, 0
12, 230144, Note_on_c, 12, 69, 84
12, 230400, Note_on_c, 12, 69, 0
12, 230400, Note_on_c, 12, 69, 89
12, 230656, Note_on_c, 12, 69, 0
12, 230912, Note_on_c, 12, 73, 89
12, 231168, Note_on_c, 12, 73, 0
12, 231168, Note_on_c, 12, 74, 89
12, 231424, Note_on_c, 12, 74, 0
12, 231424, Note_on_c, 12, 73, 89
12, 231680, Note_on_c, 12, 73, 0
12, 231680, Note_on_c, 12, 71, 89
12, 231936, Note_on_c, 12, 71, 0
12, 231936, Note_on_c, 12, 69, 89
12, 232192, Note_on_c, 12, 69, 0
12, 232192, Note_on_c, 12, 67, 89
12, 232448, Note_on_c, 12, 67, 0
12, 232448, Note_on_c, 12, 66, 89
12, 232704, Note_on_c, 12, 66, 0
12, 232704, Note_on_c, 12, 67, 89
12, 232960, Note_on_c, 12, 67, 0
12, 232960, Note_on_c, 12, 69, 89
12, 233216, Note_on_c, 12, 69, 0
12, 233216, Note_on_c, 12, 66, 89
12, 233472, Note_on_c, 12, 66, 0
12, 233472, Note_on_c, 12, 67, 89
12, 233728, Note_on_c, 12, 67, 0
12, 233728, Note_on_c, 12, 69, 89
12, 233984, Note_on_c, 12, 69, 0
12, 233984, Note_on_c, 12, 71, 89
12, 234240, Note_on_c, 12, 71, 0
12, 234240, Note_on_c, 12, 72, 89
12, 234496, Note_on_c, 12, 72, 0
12, 234496, Note_on_c, 12, 71, 89
12, 234752, Note_on_c, 12, 71, 0
12, 234752, Note_on_c, 12, 69, 89
12, 235008, Note_on_c, 12, 69, 0
12, 235008, Note_on_c, 12, 67, 89
12, 235264, Note_on_c, 12, 67, 0
12, 235264, Note_on_c, 12, 66, 89
12, 235520, Note_on_c, 12, 66, 0
12, 235520, Note_on_c, 12, 64, 89
12, 235776, Note_on_c, 12, 64, 0
12, 235776, Note_on_c, 12, 66, 89
12, 236032, Note_on_c, 12, 66, 0
12, 236032, Note_on_c, 12, 67, 89
12, 236134, Note_on_c, 12, 67, 0
12, 236134, Note_on_c, 12, 69, 89
12, 236237, Note_on_c, 12, 69, 0
12, 236237, Note_on_c, 12, 67, 89
12, 236339, Note_on_c, 12, 67, 0
12, 236339, Note_on_c, 12, 69, 89
12, 236442, Note_on_c, 12, 69, 0
12, 236442, Note_on_c, 12, 67, 89
12, 236544, Note_on_c, 12, 67, 0
12, 236544, Note_on_c, 12, 69, 89
12, 237312, Note_on_c, 12, 69, 0
12, 237312, Note_on_c, 12, 67, 89
12, 237568, Note_on_c, 12, 67, 0
12, 237568, Note_on_c, 12, 66, 89
12, 237824, Note_on_c, 12, 66, 0
12, 237824, Note_on_c, 12, 67, 89
12, 238080, Note_on_c, 12, 67, 0
12, 238080, Note_on_c, 12, 69, 89
12, 238336, Note_on_c, 12, 69, 0
12, 238336, Note_on_c, 12, 67, 89
12, 238592, Note_on_c, 12, 67, 0
12, 238592, Note_on_c, 12, 69, 89
12, 238848, Note_on_c, 12, 69, 0
12, 238848, Note_on_c, 12, 71, 89
12, 239104, Note_on_c, 12, 71, 0
12, 239104, Note_on_c, 12, 69, 89
12, 239360, Note_on_c, 12, 69, 0
12, 239360, Note_on_c, 12, 67, 89
12, 239616, Note_on_c, 12, 67, 0
12, 239616, Note_on_c, 12, 66, 89
12, 239872, Note_on_c, 12, 66, 0
12, 239872, Note_on_c, 12, 67, 88
12, 240128, Note_on_c, 12, 67, 0
12, 240128, Note_on_c, 12, 69, 82
12, 240384, Note_on_c, 12, 69, 0
12, 245760, Note_on_c, 12, 73, 82
12, 246016, Note_on_c, 12, 73, 0
12, 246272, Note_on_c, 12, 73, 82
12, 246528, Note_on_c, 12, 73, 0
12, 246784, Note_on_c, 12, 73, 82
12, 247040, Note_on_c, 12, 73, 0
12, 247296, Note_on_c, 12, 71, 82
12, 247552, Note_on_c, 12, 71, 0
12, 247808, Note_on_c, 12, 71, 82
12, 248064, Note_on_c, 12, 71, 0
12, 249344, Note_on_c, 12, 66, 52
12, 249600, Note_on_c, 12, 66, 0
12, 249600, Note_on_c, 12, 67, 52
12, 249856, Note_on_c, 12, 67, 0
12, 249856, Note_on_c, 12, 69, 52
12, 250112, Note_on_c, 12, 69, 0
12, 250112, Note_on_c, 12, 66, 52
12, 250368, Note_on_c, 12, 66, 0
12, 250368, Note_on_c, 12, 67, 52
12, 250624, Note_on_c, 12, 67, 0
12, 250624, Note_on_c, 12, 69, 52
12, 250880, Note_on_c, 12, 69, 0
12, 250880, Note_on_c, 12, 66, 52
12, 251136, Note_on_c, 12, 66, 0
12, 251136, Note_on_c, 12, 67, 52
12, 251392, Note_on_c, 12, 67, 0
12, 251392, Note_on_c, 12, 69, 52
12, 251648, Note_on_c, 12, 69, 0
12, 251648, Note_on_c, 12, 66, 52
12, 251904, Note_on_c, 12, 66, 0
12, 251904, Note_on_c, 12, 67, 52
12, 252160, Note_on_c, 12, 67, 0
12, 252160, Note_on_c, 12, 69, 52
12, 252416, Note_on_c, 12, 69, 0
12, 252416, Note_on_c, 12, 71, 52
12, 252672, Note_on_c, 12, 71, 0
12, 252672, Note_on_c, 12, 69, 52
12, 252928, Note_on_c, 12, 69, 0
12, 252928, Note_on_c, 12, 67, 52
12, 253184, Note_on_c, 12, 67, 0
12, 253184, Note_on_c, 12, 69, 52
12, 253440, Note_on_c, 12, 69, 0
12, 253440, Note_on_c, 12, 66, 82
12, 253696, Note_on_c, 12, 66, 0
12, 253696, Note_on_c, 12, 64, 82
12, 253952, Note_on_c, 12, 64, 0
12, 253952, Note_on_c, 12, 66, 82
12, 254208, Note_on_c, 12, 66, 0
12, 254208, Note_on_c, 12, 67, 82
12, 254464, Note_on_c, 12, 67, 0
12, 254464, Note_on_c, 12, 69, 82
12, 254720, Note_on_c, 12, 69, 0
12, 254720, Note_on_c, 12, 66, 82
12, 254976, Note_on_c, 12, 66, 0
12, 254976, Note_on_c, 12, 67, 82
12, 255232, Note_on_c, 12, 67, 0
12, 255488, Note_on_c, 12, 64, 82
12, 255744, Note_on_c, 12, 64, 0
12, 256000, Note_on_c, 12, 71, 82
12, 257024, Note_on_c, 12, 71, 0
12, 257024, Note_on_c, 12, 69, 82
12, 257280, Note_on_c, 12, 69, 0
12, 257280, Note_on_c, 12, 67, 82
12, 257536, Note_on_c, 12, 67, 0
12, 257536, Note_on_c, 12, 66, 82
12, 257792, Note_on_c, 12, 66, 0
12, 257792, Note_on_c, 12, 64, 82
12, 258048, Note_on_c, 12, 64, 0
12, 258048, Note_on_c, 12, 63, 82
12, 258560, Note_on_c, 12, 63, 0
12, 258560, Note_on_c, 12, 72, 82
12, 258816, Note_on_c, 12, 72, 0
12, 258816, Note_on_c, 12, 71, 82
12, 259072, Note_on_c, 12, 71, 0
12, 259072, Note_on_c, 12, 72, 82
12, 259840, Note_on_c, 12, 72, 0
12, 259840, Note_on_c, 12, 71, 82
12, 260096, Note_on_c, 12, 71, 0
12, 260096, Note_on_c, 12, 69, 82
12, 260352, Note_on_c, 12, 69, 0
12, 260352, Note_on_c, 12, 67, 82
12, 260608, Note_on_c, 12, 67, 0
12, 260608, Note_on_c, 12, 76, 82
12, 260864, Note_on_c, 12, 76, 0
12, 260864, Note_on_c, 12, 69, 83
12, 261120, Note_on_c, 12, 69, 0
12, 261120, Note_on_c, 12, 71, 84
12, 261376, Note_on_c, 12, 71, 0
12, 261632, Note_on_c, 12, 71, 87
12, 262656, Note_on_c, 12, 71, 0
12, 262656, Note_on_c, 12, 71, 95
12, 262912, Note_on_c, 12, 71, 0
12, 263168, Note_on_c, 12, 67, 48
12, 263424, Note_on_c, 12, 67, 0
12, 263424, Note_on_c, 12, 69, 48
12, 263680, Note_on_c, 12, 69, 0
12, 263680, Note_on_c, 12, 71, 48
12, 263936, Note_on_c, 12, 71, 0
12, 263936, Note_on_c, 12, 67, 48
12, 264192, Note_on_c, 12, 67, 0
12, 264192, Note_on_c, 12, 69, 48
12, 265984, Note_on_c, 12, 69, 0
12, 266240, Note_on_c, 12, 66, 48
12, 266496, Note_on_c, 12, 66, 0
12, 266752, Note_on_c, 12, 62, 48
12, 267008, Note_on_c, 12, 62, 0
12, 267776, Note_on_c, 12, 67, 48
12, 268032, Note_on_c, 12, 67, 0
12, 268032, Note_on_c, 12, 69, 48
12, 268288, Note_on_c, 12, 69, 0
12, 268288, Note_on_c, 12, 71, 48
12, 268544, Note_on_c, 12, 71, 0
12, 268544, Note_on_c, 12, 67, 48
12, 268800, Note_on_c, 12, 67, 0
12, 268800, Note_on_c, 12, 73, 48
12, 269312, Note_on_c, 12, 73, 0
12, 269312, Note_on_c, 12, 64, 53
12, 269568, Note_on_c, 12, 64, 0
12, 269568, Note_on_c, 12, 66, 55
12, 269824, Note_on_c, 12, 66, 0
12, 269824, Note_on_c, 12, 67, 58
12, 270080, Note_on_c, 12, 67, 0
12, 270080, Note_on_c, 12, 64, 60
12, 270336, Note_on_c, 12, 64, 0
12, 270336, Note_on_c, 12, 66, 64
12, 271104, Note_on_c, 12, 66, 0
12, 271104, Note_on_c, 12, 66, 64
12, 271360, Note_on_c, 12, 66, 0
12, 271360, Note_on_c, 12, 66, 64
12, 271616, Note_on_c, 12, 66, 0
12, 271872, Note_on_c, 12, 66, 64
12, 272128, Note_on_c, 12, 66, 0
12, 272384, Note_on_c, 12, 71, 64
12, 272640, Note_on_c, 12, 71, 0
12, 272896, Note_on_c, 12, 71, 64
12, 273152, Note_on_c, 12, 71, 0
12, 273408, Note_on_c, 12, 71, 64
12, 273664, Note_on_c, 12, 71, 0
12, 273920, Note_on_c, 12, 68, 64
12, 274176, Note_on_c, 12, 68, 0
12, 274432, Note_on_c, 12, 64, 64
12, 274688, Note_on_c, 12, 64, 0
12, 274944, Note_on_c, 12, 64, 64
12, 275456, Note_on_c, 12, 64, 0
12, 275456, Note_on_c, 12, 67, 64
12, 275712, Note_on_c, 12, 67, 0
12, 275968, Note_on_c, 12, 67, 64
12, 276224, Note_on_c, 12, 67, 0
12, 276480, Note_on_c, 12, 66, 64
12, 277248, Note_on_c, 12, 66, 0
12, 277248, Note_on_c, 12, 66, 64
12, 277504, Note_on_c, 12, 66, 0
12, 277504, Note_on_c, 12, 66, 64
12, 277760, Note_on_c, 12, 66, 0
12, 278016, Note_on_c, 12, 67, 64
12, 278528, Note_on_c, 12, 67, 0
12, 278528, Note_on_c, 12, 66, 64
12, 279552, Note_on_c, 12, 66, 0
12, 279552, Note_on_c, 12, 66, 64
12, 279808, Note_on_c, 12, 66, 0
12, 281600, Note_on_c, 12, 70, 38
12, 281856, Note_on_c, 12, 70, 0
12, 281856, Note_on_c, 12, 71, 38
12, 282112, Note_on_c, 12, 71, 0
12, 282112, Note_on_c, 12, 73, 38
12, 282368, Note_on_c, 12, 73, 0
12, 282368, Note_on_c, 12, 70, 38
12, 282624, Note_on_c, 12, 70, 0
12, 282624, Note_on_c, 12, 71, 38
12, 282880, Note_on_c, 12, 71, 0
12, 282880, Note_on_c, 12, 73, 38
12, 283136, Note_on_c, 12, 73, 0
12, 283136, Note_on_c, 12, 70, 38
12, 283392, Note_on_c, 12, 70, 0
12, 283392, Note_on_c, 12, 71, 38
12, 283648, Note_on_c, 12, 71, 0
12, 283648, Note_on_c, 12, 73, 38
12, 283904, Note_on_c, 12, 73, 0
12, 283904, Note_on_c, 12, 70, 38
12, 284160, Note_on_c, 12, 70, 0
12, 284160, Note_on_c, 12, 71, 38
12, 284416, Note_on_c, 12, 71, 0
12, 284416, Note_on_c, 12, 73, 38
12, 284672, Note_on_c, 12, 73, 0
12, 284672, Note_on_c, 12, 74, 38
12, 284928, Note_on_c, 12, 74, 0
12, 284928, Note_on_c, 12, 73, 38
12, 285184, Note_on_c, 12, 73, 0
12, 285184, Note_on_c, 12, 71, 38
12, 285440, Note_on_c, 12, 71, 0
12, 285440, Note_on_c, 12, 73, 38
12, 285696, Note_on_c, 12, 73, 0
12, 285696, Note_on_c, 12, 70, 39
12, 285952, Note_on_c, 12, 70, 0
12, 285952, Note_on_c, 12, 71, 40
12, 286208, Note_on_c, 12, 71, 0
12, 286208, Note_on_c, 12, 73, 42
12, 286464, Note_on_c, 12, 73, 0
12, 286464, Note_on_c, 12, 71, 44
12, 286720, Note_on_c, 12, 71, 0
12, 286720, Note_on_c, 12, 70, 45
12, 286976, Note_on_c, 12, 70, 0
12, 286976, Note_on_c, 12, 73, 47
12, 287232, Note_on_c, 12, 73, 0
12, 287232, Note_on_c, 12, 71, 49
12, 287488, Note_on_c, 12, 71, 0
12, 287488, Note_on_c, 12, 73, 50
12, 287744, Note_on_c, 12, 73, 0
12, 287744, Note_on_c, 12, 74, 52
12, 288000, Note_on_c, 12, 74, 0
12, 288000, Note_on_c, 12, 73, 53
12, 288256, Note_on_c, 12, 73, 0
12, 288256, Note_on_c, 12, 71, 55
12, 288512, Note_on_c, 12, 71, 0
12, 288512, Note_on_c, 12, 74, 57
12, 288768, Note_on_c, 12, 74, 0
12, 288768, Note_on_c, 12, 73, 58
12, 289024, Note_on_c, 12, 73, 0
12, 289024, Note_on_c, 12, 71, 60
12, 289280, Note_on_c, 12, 71, 0
12, 289280, Note_on_c, 12, 69, 62
12, 289536, Note_on_c, 12, 69, 0
12, 289536, Note_on_c, 12, 71, 63
12, 289792, Note_on_c, 12, 71, 0
12, 289792, Note_on_c, 12, 67, 65
12, 290048, Note_on_c, 12, 67, 0
12, 290048, Note_on_c, 12, 69, 67
12, 290304, Note_on_c, 12, 69, 0
12, 290304, Note_on_c, 12, 66, 68
12, 290560, Note_on_c, 12, 66, 0
12, 290560, Note_on_c, 12, 67, 70
12, 290816, Note_on_c, 12, 67, 0
12, 290816, Note_on_c, 12, 64, 72
12, 291072, Note_on_c, 12, 64, 0
12, 291072, Note_on_c, 12, 66, 73
12, 291328, Note_on_c, 12, 66, 0
12, 291328, Note_on_c, 12, 67, 75
12, 291584, Note_on_c, 12, 67, 0
12, 291584, Note_on_c, 12, 64, 76
12, 291840, Note_on_c, 12, 64, 0
12, 291840, Note_on_c, 12, 66, 78
12, 292096, Note_on_c, 12, 66, 0
12, 292096, Note_on_c, 12, 67, 80
12, 292352, Note_on_c, 12, 67, 0
12, 292352, Note_on_c, 12, 69, 81
12, 292608, Note_on_c, 12, 69, 0
12, 292608, Note_on_c, 12, 67, 83
12, 292864, Note_on_c, 12, 67, 0
12, 292864, Note_on_c, 12, 66, 85
12, 293120, Note_on_c, 12, 66, 0
12, 293120, Note_on_c, 12, 67, 86
12, 293376, Note_on_c, 12, 67, 0
12, 293376, Note_on_c, 12, 64, 88
12, 294144, Note_on_c, 12, 64, 0
12, 294144, Note_on_c, 12, 64, 88
12, 294400, Note_on_c, 12, 64, 0
12, 294400, Note_on_c, 12, 64, 88
12, 294656, Note_on_c, 12, 64, 0
12, 296960, Note_on_c, 12, 71, 88
12, 297216, Note_on_c, 12, 71, 0
12, 297216, Note_on_c, 12, 72, 88
12, 297472, Note_on_c, 12, 72, 0
12, 297472, Note_on_c, 12, 71, 88
12, 297728, Note_on_c, 12, 71, 0
12, 297728, Note_on_c, 12, 69, 88
12, 297984, Note_on_c, 12, 69, 0
12, 297984, Note_on_c, 12, 67, 88
12, 299776, Note_on_c, 12, 67, 0
12, 299776, Note_on_c, 12, 64, 93
12, 300032, Note_on_c, 12, 64, 0
12, 300032, Note_on_c, 12, 66, 93
12, 300288, Note_on_c, 12, 66, 0
12, 300288, Note_on_c, 12, 67, 94
12, 300544, Note_on_c, 12, 67, 0
12, 300544, Note_on_c, 12, 69, 95
12, 300800, Note_on_c, 12, 69, 0
12, 300800, Note_on_c, 12, 66, 96
12, 301056, Note_on_c, 12, 66, 0
12, 301056, Note_on_c, 12, 67, 96
12, 301312, Note_on_c, 12, 67, 0
12, 301568, Note_on_c, 12, 67, 98
12, 301824, Note_on_c, 12, 67, 0
12, 301824, Note_on_c, 12, 66, 99
12, 302080, Note_on_c, 12, 66, 0
12, 302080, Note_on_c, 12, 67, 100
12, 302336, Note_on_c, 12, 67, 0
12, 302336, Note_on_c, 12, 69, 100
12, 302592, Note_on_c, 12, 69, 0
12, 302592, Note_on_c, 12, 66, 101
12, 303616, Note_on_c, 12, 66, 0
12, 311808, Note_on_c, 12, 61, 66
12, 312064, Note_on_c, 12, 61, 0
12, 312320, Note_on_c, 12, 61, 59
12, 312576, Note_on_c, 12, 61, 0
12, 312832, Note_on_c, 12, 61, 59
12, 313088, Note_on_c, 12, 61, 0
12, 313344, Note_on_c, 12, 69, 66
12, 313600, Note_on_c, 12, 69, 0
12, 313856, Note_on_c, 12, 69, 59
12, 314112, Note_on_c, 12, 69, 0
12, 314368, Note_on_c, 12, 69, 59
12, 314624, Note_on_c, 12, 69, 0
12, 314880, Note_on_c, 12, 62, 65
12, 315392, Note_on_c, 12, 62, 0
12, 315392, Note_on_c, 12, 62, 59
12, 315648, Note_on_c, 12, 62, 0
12, 315904, Note_on_c, 12, 64, 64
12, 316160, Note_on_c, 12, 64, 0
12, 316160, Note_on_c, 12, 66, 66
12, 316416, Note_on_c, 12, 66, 0
12, 316416, Note_on_c, 12, 67, 67
12, 316672, Note_on_c, 12, 67, 0
12, 316672, Note_on_c, 12, 69, 68
12, 316928, Note_on_c, 12, 69, 0
12, 316928, Note_on_c, 12, 71, 70
12, 317184, Note_on_c, 12, 71, 0
12, 317184, Note_on_c, 12, 69, 71
12, 317440, Note_on_c, 12, 69, 0
12, 317440, Note_on_c, 12, 67, 73
12, 317696, Note_on_c, 12, 67, 0
12, 317696, Note_on_c, 12, 66, 74
12, 317952, Note_on_c, 12, 66, 0
12, 317952, Note_on_c, 12, 64, 75
12, 318208, Note_on_c, 12, 64, 0
12, 318464, Note_on_c, 12, 62, 76
12, 318720, Note_on_c, 12, 62, 0
12, 318720, Note_on_c, 12, 61, 77
12, 318976, Note_on_c, 12, 61, 0
12, 318976, Note_on_c, 12, 66, 78
12, 319744, Note_on_c, 12, 66, 0
12, 319744, Note_on_c, 12, 67, 82
12, 320000, Note_on_c, 12, 67, 0
12, 320000, Note_on_c, 12, 64, 83
12, 320768, Note_on_c, 12, 64, 0
12, 320768, Note_on_c, 12, 66, 86
12, 321024, Note_on_c, 12, 66, 0
12, 321024, Note_on_c, 12, 66, 87
12, 321280, Note_on_c, 12, 66, 0
12, 321536, Note_on_c, 12, 69, 87
12, 321792, Note_on_c, 12, 69, 0
12, 321792, Note_on_c, 12, 71, 87
12, 322048, Note_on_c, 12, 71, 0
12, 322048, Note_on_c, 12, 69, 87
12, 322304, Note_on_c, 12, 69, 0
12, 322304, Note_on_c, 12, 67, 87
12, 322560, Note_on_c, 12, 67, 0
12, 322560, Note_on_c, 12, 66, 87
12, 322816, Note_on_c, 12, 66, 0
12, 322816, Note_on_c, 12, 64, 87
12, 323072, Note_on_c, 12, 64, 0
12, 323072, Note_on_c, 12, 62, 87
12, 323328, Note_on_c, 12, 62, 0
12, 323328, Note_on_c, 12, 64, 87
12, 323584, Note_on_c, 12, 64, 0
12, 323584, Note_on_c, 12, 66, 87
12, 323840, Note_on_c, 12, 66, 0
12, 323840, Note_on_c, 12, 62, 87
12, 324096, Note_on_c, 12, 62, 0
12, 324096, Note_on_c, 12, 64, 87
12, 324352, Note_on_c, 12, 64, 0
12, 324352, Note_on_c, 12, 66, 87
12, 324608, Note_on_c, 12, 66, 0
12, 324608, Note_on_c, 12, 67, 87
12, 324864, Note_on_c, 12, 67, 0
12, 324864, Note_on_c, 12, 69, 87
12, 325120, Note_on_c, 12, 69, 0
12, 325120, Note_on_c, 12, 67, 87
12, 325376, Note_on_c, 12, 67, 0
12, 325376, Note_on_c, 12, 66, 87
12, 325632, Note_on_c, 12, 66, 0
12, 325632, Note_on_c, 12, 64, 87
12, 325888, Note_on_c, 12, 64, 0
12, 325888, Note_on_c, 12, 62, 87
12, 326144, Note_on_c, 12, 62, 0
12, 326144, Note_on_c, 12, 60, 87
12, 326400, Note_on_c, 12, 60, 0
12, 326400, Note_on_c, 12, 62, 87
12, 326656, Note_on_c, 12, 62, 0
12, 326656, Note_on_c, 12, 64, 87
12, 326758, Note_on_c, 12, 64, 0
12, 326758, Note_on_c, 12, 66, 87
12, 326861, Note_on_c, 12, 66, 0
12, 326861, Note_on_c, 12, 64, 87
12, 326963, Note_on_c, 12, 64, 0
12, 326963, Note_on_c, 12, 66, 87
12, 327066, Note_on_c, 12, 66, 0
12, 327066, Note_on_c, 12, 64, 87
12, 327168, Note_on_c, 12, 64, 0
12, 327168, Note_on_c, 12, 66, 87
12, 327936, Note_on_c, 12, 66, 0
12, 327936, Note_on_c, 12, 64, 87
12, 328192, Note_on_c, 12, 64, 0
12, 328192, Note_on_c, 12, 62, 87
12, 328448, Note_on_c, 12, 62, 0
12, 328448, Note_on_c, 12, 64, 86
12, 328704, Note_on_c, 12, 64, 0
12, 328704, Note_on_c, 12, 66, 87
12, 328960, Note_on_c, 12, 66, 0
12, 328960, Note_on_c, 12, 64, 87
12, 329216, Note_on_c, 12, 64, 0
12, 329216, Note_on_c, 12, 66, 87
12, 329472, Note_on_c, 12, 66, 0
12, 329472, Note_on_c, 12, 67, 87
12, 329728, Note_on_c, 12, 67, 0
12, 329728, Note_on_c, 12, 66, 87
12, 329984, Note_on_c, 12, 66, 0
12, 329984, Note_on_c, 12, 64, 87
12, 330240, Note_on_c, 12, 64, 0
12, 330240, Note_on_c, 12, 62, 87
12, 330496, Note_on_c, 12, 62, 0
12, 330752, Note_on_c, 12, 59, 46
12, 331008, Note_on_c, 12, 59, 0
12, 333824, Note_on_c, 12, 66, 52
12, 334080, Note_on_c, 12, 66, 0
12, 334080, Note_on_c, 12, 67, 53
12, 334336, Note_on_c, 12, 67, 0
12, 334336, Note_on_c, 12, 69, 54
12, 334592, Note_on_c, 12, 69, 0
12, 334592, Note_on_c, 12, 66, 54
12, 334848, Note_on_c, 12, 66, 0
12, 334848, Note_on_c, 12, 62, 55
12, 335104, Note_on_c, 12, 62, 0
12, 335104, Note_on_c, 12, 61, 55
12, 335360, Note_on_c, 12, 61, 0
12, 335360, Note_on_c, 12, 62, 56
12, 335616, Note_on_c, 12, 62, 0
12, 335616, Note_on_c, 12, 64, 56
12, 335872, Note_on_c, 12, 64, 0
12, 335872, Note_on_c, 12, 66, 57
12, 336128, Note_on_c, 12, 66, 0
12, 336128, Note_on_c, 12, 62, 57
12, 336384, Note_on_c, 12, 62, 0
12, 336384, Note_on_c, 12, 71, 58
12, 336640, Note_on_c, 12, 71, 0
12, 336640, Note_on_c, 12, 69, 59
12, 336896, Note_on_c, 12, 69, 0
12, 336896, Note_on_c, 12, 67, 59
12, 337152, Note_on_c, 12, 67, 0
12, 337152, Note_on_c, 12, 66, 60
12, 337408, Note_on_c, 12, 66, 0
12, 337408, Note_on_c, 12, 64, 60
12, 337664, Note_on_c, 12, 64, 0
12, 337664, Note_on_c, 12, 62, 61
12, 337920, Note_on_c, 12, 62, 0
12, 337920, Note_on_c, 12, 64, 61
12, 338176, Note_on_c, 12, 64, 0
12, 338176, Note_on_c, 12, 66, 62
12, 338432, Note_on_c, 12, 66, 0
12, 338432, Note_on_c, 12, 67, 62
12, 338688, Note_on_c, 12, 67, 0
12, 338688, Note_on_c, 12, 69, 63
12, 338944, Note_on_c, 12, 69, 0
12, 338944, Note_on_c, 12, 71, 63
12, 339200, Note_on_c, 12, 71, 0
12, 339200, Note_on_c, 12, 73, 64
12, 339456, Note_on_c, 12, 73, 0
12, 339456, Note_on_c, 12, 69, 64
12, 339712, Note_on_c, 12, 69, 0
12, 339712, Note_on_c, 12, 67, 65
12, 339968, Note_on_c, 12, 67, 0
12, 339968, Note_on_c, 12, 66, 67
12, 340224, Note_on_c, 12, 66, 0
12, 340224, Note_on_c, 12, 64, 68
12, 340480, Note_on_c, 12, 64, 0
12, 340480, Note_on_c, 12, 62, 69
12, 340736, Note_on_c, 12, 62, 0
12, 340736, Note_on_c, 12, 66, 71
12, 340992, Note_on_c, 12, 66, 0
12, 340992, Note_on_c, 12, 67, 72
12, 343040, Note_on_c, 12, 67, 0
12, 343040, Note_on_c, 12, 69, 83
12, 343296, Note_on_c, 12, 69, 0
12, 343296, Note_on_c, 12, 67, 85
12, 343552, Note_on_c, 12, 67, 0
12, 343552, Note_on_c, 12, 66, 86
12, 343808, Note_on_c, 12, 66, 0
12, 343808, Note_on_c, 12, 64, 87
12, 344064, Note_on_c, 12, 64, 0
12, 344064, Note_on_c, 12, 62, 89
12, 344320, Note_on_c, 12, 62, 0
12, 344576, Note_on_c, 12, 74, 91
12, 344832, Note_on_c, 12, 74, 0
12, 345088, Note_on_c, 12, 69, 94
12, 345344, Note_on_c, 12, 69, 0
12, 345600, Note_on_c, 12, 69, 96
12, 345856, Note_on_c, 12, 69, 0
12, 346112, Note_on_c, 12, 64, 99
12, 346368, Note_on_c, 12, 64, 0
12, 347136, Note_on_c, 12, 69, 103
12, 347392, Note_on_c, 12, 69, 0
12, 347648, Note_on_c, 12, 69, 98
12, 347904, Note_on_c, 12, 69, 0
12, 348160, Note_on_c, 12, 69, 98
12, 348416, Note_on_c, 12, 69, 0
12, 348672, Note_on_c, 12, 71, 98
12, 348928, Note_on_c, 12, 71, 0
12, 349184, Note_on_c, 12, 67, 98
12, 349440, Note_on_c, 12, 67, 0
12, 349696, Note_on_c, 12, 67, 98
12, 349952, Note_on_c, 12, 67, 0
12, 350208, Note_on_c, 12, 67, 98
12, 350720, Note_on_c, 12, 67, 0
12, 350720, Note_on_c, 12, 64, 98
12, 350976, Note_on_c, 12, 64, 0
12, 351232, Note_on_c, 12, 64, 98
12, 351488, Note_on_c, 12, 64, 0
12, 351744, Note_on_c, 12, 64, 97
12, 352512, Note_on_c, 12, 64, 0
12, 352512, Note_on_c, 12, 64, 99
12, 352768, Note_on_c, 12, 64, 0
12, 352768, Note_on_c, 12, 69, 98
12, 353536, Note_on_c, 12, 69, 0
12, 353536, Note_on_c, 12, 67, 92
12, 353792, Note_on_c, 12, 67, 0
12, 353792, Note_on_c, 12, 67, 89
12, 354816, Note_on_c, 12, 67, 0
12, 354816, Note_on_c, 12, 66, 59
12, 355072, Note_on_c, 12, 66, 0
12, 355328, Note_on_c, 12, 69, 61
12, 355840, Note_on_c, 12, 69, 0
12, 355840, Note_on_c, 12, 66, 63
12, 356352, Note_on_c, 12, 66, 0
12, 356352, Note_on_c, 12, 62, 65
12, 356608, Note_on_c, 12, 62, 0
12, 356864, Note_on_c, 12, 71, 67
12, 357120, Note_on_c, 12, 71, 0
12, 357376, Note_on_c, 12, 68, 70
12, 357632, Note_on_c, 12, 68, 0
12, 357888, Note_on_c, 12, 64, 72
12, 358400, Note_on_c, 12, 64, 0
12, 358400, Note_on_c, 12, 73, 74
12, 358656, Note_on_c, 12, 73, 0
12, 358912, Note_on_c, 12, 70, 76
12, 359168, Note_on_c, 12, 70, 0
12, 359424, Note_on_c, 12, 66, 78
12, 359936, Note_on_c, 12, 66, 0
12, 359936, Note_on_c, 12, 74, 80
12, 360448, Note_on_c, 12, 74, 0
12, 360448, Note_on_c, 12, 71, 82
12, 361216, Note_on_c, 12, 71, 0
12, 361472, Note_on_c, 12, 69, 86
12, 361728, Note_on_c, 12, 69, 0
12, 361984, Note_on_c, 12, 69, 89
12, 362240, Note_on_c, 12, 69, 0
12, 362496, Note_on_c, 12, 69, 91
12, 362752, Note_on_c, 12, 69, 0
12, 363008, Note_on_c, 12, 74, 93
12, 363264, Note_on_c, 12, 74, 0
12, 363520, Note_on_c, 12, 69, 95
12, 363776, Note_on_c, 12, 69, 0
12, 364032, Note_on_c, 12, 69, 102
12, 369664, Note_on_c, 12, 69, 0
12, 369664, Note_on_c, 12, 69, 110
12, 369920, Note_on_c, 12, 69, 0
12, 370176, Note_on_c, 12, 73, 111
12, 370432, Note_on_c, 12, 73, 0
12, 370688, Note_on_c, 12, 73, 111
12, 370944, Note_on_c, 12, 73, 0
12, 371200, Note_on_c, 12, 73, 112
12, 371456, Note_on_c, 12, 73, 0
12, 371712, Note_on_c, 12, 71, 113
12, 371968, Note_on_c, 12, 71, 0
12, 372224, Note_on_c, 12, 71, 114
12, 372480, Note_on_c, 12, 71, 0
12, 372736, Note_on_c, 12, 71, 114
12, 372992, Note_on_c, 12, 71, 0
12, 373248, Note_on_c, 12, 71, 115
12, 374272, Note_on_c, 12, 71, 0
12, 374272, Note_on_c, 12, 67, 117
12, 374528, Note_on_c, 12, 67, 0
12, 374784, Note_on_c, 12, 64, 117
12, 375040, Note_on_c, 12, 64, 0
12, 375296, Note_on_c, 12, 69, 118
12, 375552, Note_on_c, 12, 69, 0
12, 375808, Note_on_c, 12, 69, 119
12, 376064, Note_on_c, 12, 69, 0
12, 376320, Note_on_c, 12, 71, 120
12, 376832, Note_on_c, 12, 71, 0
12, 376832, Note_on_c, 12, 69, 121
12, 377856, Note_on_c, 12, 69, 0
12, 377856, Note_on_c, 12, 69, 123
12, 379392, Control_c, 12, 121, 127
12, 379392, Note_on_c, 12, 69, 0
12, 379392, End_track
13, 0, Start_track
13, 0, Title_t, "Tenor"
13, 0, Program_c, 14, 52
13, 0, Control_c, 14, 121, 127
13, 0, Control_c, 14, 91, 127
13, 0, Control_c, 14, 1, 10
13, 0, Control_c, 14, 10, 100
13, 1024, Note_on_c, 14, 62, 108
13, 1365, Note_on_c, 14, 62, 0
13, 1365, Note_on_c, 14, 64, 101
13, 1707, Note_on_c, 14, 64, 0
13, 1707, Note_on_c, 14, 66, 104
13, 2048, Note_on_c, 14, 66, 0
13, 2048, Note_on_c, 14, 66, 106
13, 2918, Note_on_c, 14, 66, 0
13, 5120, Note_on_c, 14, 62, 109
13, 5461, Note_on_c, 14, 62, 0
13, 5461, Note_on_c, 14, 64, 100
13, 5803, Note_on_c, 14, 64, 0
13, 5803, Note_on_c, 14, 66, 103
13, 6144, Note_on_c, 14, 66, 0
13, 6144, Note_on_c, 14, 66, 107
13, 7014, Note_on_c, 14, 66, 0
13, 9216, Note_on_c, 14, 59, 107
13, 9557, Note_on_c, 14, 59, 0
13, 9557, Note_on_c, 14, 60, 98
13, 9899, Note_on_c, 14, 60, 0
13, 9899, Note_on_c, 14, 62, 102
13, 10240, Note_on_c, 14, 62, 0
13, 10240, Note_on_c, 14, 62, 105
13, 11110, Note_on_c, 14, 62, 0
13, 17408, Note_on_c, 14, 57, 99
13, 17749, Note_on_c, 14, 57, 0
13, 17749, Note_on_c, 14, 59, 97
13, 18091, Note_on_c, 14, 59, 0
13, 18091, Note_on_c, 14, 61, 97
13, 18432, Note_on_c, 14, 61, 0
13, 18432, Note_on_c, 14, 62, 97
13, 19013, Note_on_c, 14, 62, 0
13, 19115, Note_on_c, 14, 62, 97
13, 19456, Note_on_c, 14, 62, 0
13, 19456, Note_on_c, 14, 56, 97
13, 20037, Note_on_c, 14, 56, 0
13, 20139, Note_on_c, 14, 56, 97
13, 20480, Note_on_c, 14, 56, 0
13, 20480, Note_on_c, 14, 61, 97
13, 21350, Note_on_c, 14, 61, 0
13, 21504, Note_on_c, 14, 54, 97
13, 22085, Note_on_c, 14, 54, 0
13, 22187, Note_on_c, 14, 54, 97
13, 22528, Note_on_c, 14, 54, 0
13, 22528, Note_on_c, 14, 59, 97
13, 23398, Note_on_c, 14, 59, 0
13, 23552, Note_on_c, 14, 61, 98
13, 24133, Note_on_c, 14, 61, 0
13, 24235, Note_on_c, 14, 61, 101
13, 24576, Note_on_c, 14, 61, 0
13, 24576, Note_on_c, 14, 61, 103
13, 25446, Note_on_c, 14, 61, 0
13, 25600, Note_on_c, 14, 69, 108
13, 26470, Note_on_c, 14, 69, 0
13, 26624, Note_on_c, 14, 64, 105
13, 27494, Note_on_c, 14, 64, 0
13, 27648, Note_on_c, 14, 61, 94
13, 27989, Note_on_c, 14, 61, 0
13, 27989, Note_on_c, 14, 59, 96
13, 28331, Note_on_c, 14, 59, 0
13, 28331, Note_on_c, 14, 61, 98
13, 28672, Note_on_c, 14, 61, 0
13, 28672, Note_on_c, 14, 62, 100
13, 29013, Note_on_c, 14, 62, 0
13, 29013, Note_on_c, 14, 61, 102
13, 29355, Note_on_c, 14, 61, 0
13, 29355, Note_on_c, 14, 62, 104
13, 29696, Note_on_c, 14, 62, 0
13, 29696, Note_on_c, 14, 64, 106
13, 30566, Note_on_c, 14, 64, 0
13, 30720, Note_on_c, 14, 61, 104
13, 31590, Note_on_c, 14, 61, 0
13, 31744, Note_on_c, 14, 62, 93
13, 32085, Note_on_c, 14, 62, 0
13, 32085, Note_on_c, 14, 61, 95
13, 32427, Note_on_c, 14, 61, 0
13, 32427, Note_on_c, 14, 62, 97
13, 32768, Note_on_c, 14, 62, 0
13, 32768, Note_on_c, 14, 64, 100
13, 33109, Note_on_c, 14, 64, 0
13, 33109, Note_on_c, 14, 62, 102
13, 33451, Note_on_c, 14, 62, 0
13, 33451, Note_on_c, 14, 64, 104
13, 33792, Note_on_c, 14, 64, 0
13, 33792, Note_on_c, 14, 66, 106
13, 34662, Note_on_c, 14, 66, 0
13, 34816, Note_on_c, 14, 62, 100
13, 35686, Note_on_c, 14, 62, 0
13, 35840, Note_on_c, 14, 59, 57
13, 36181, Note_on_c, 14, 59, 0
13, 36181, Note_on_c, 14, 57, 57
13, 36523, Note_on_c, 14, 57, 0
13, 36523, Note_on_c, 14, 59, 57
13, 36864, Note_on_c, 14, 59, 0
13, 36864, Note_on_c, 14, 61, 57
13, 37205, Note_on_c, 14, 61, 0
13, 37205, Note_on_c, 14, 59, 57
13, 37547, Note_on_c, 14, 59, 0
13, 37547, Note_on_c, 14, 61, 57
13, 37888, Note_on_c, 14, 61, 0
13, 37888, Note_on_c, 14, 62, 57
13, 38229, Note_on_c, 14, 62, 0
13, 38229, Note_on_c, 14, 61, 57
13, 38571, Note_on_c, 14, 61, 0
13, 38571, Note_on_c, 14, 62, 57
13, 38912, Note_on_c, 14, 62, 0
13, 38912, Note_on_c, 14, 59, 57
13, 39253, Note_on_c, 14, 59, 0
13, 39253, Note_on_c, 14, 57, 57
13, 39595, Note_on_c, 14, 57, 0
13, 39595, Note_on_c, 14, 59, 57
13, 39936, Note_on_c, 14, 59, 0
13, 39936, Note_on_c, 14, 61, 59
13, 40277, Note_on_c, 14, 61, 0
13, 40277, Note_on_c, 14, 59, 65
13, 40619, Note_on_c, 14, 59, 0
13, 40619, Note_on_c, 14, 61, 72
13, 40960, Note_on_c, 14, 61, 0
13, 40960, Note_on_c, 14, 62, 78
13, 41301, Note_on_c, 14, 62, 0
13, 41301, Note_on_c, 14, 61, 84
13, 41643, Note_on_c, 14, 61, 0
13, 41643, Note_on_c, 14, 62, 91
13, 41984, Note_on_c, 14, 62, 0
13, 41984, Note_on_c, 14, 64, 97
13, 42854, Note_on_c, 14, 64, 0
13, 43008, Note_on_c, 14, 61, 96
13, 43878, Note_on_c, 14, 61, 0
13, 44032, Note_on_c, 14, 66, 96
13, 44613, Note_on_c, 14, 66, 0
13, 44715, Note_on_c, 14, 66, 96
13, 45056, Note_on_c, 14, 66, 0
13, 45056, Note_on_c, 14, 62, 96
13, 45926, Note_on_c, 14, 62, 0
13, 46080, Note_on_c, 14, 61, 96
13, 46950, Note_on_c, 14, 61, 0
13, 47104, Note_on_c, 14, 64, 96
13, 47974, Note_on_c, 14, 64, 0
13, 48128, Note_on_c, 14, 66, 96
13, 48709, Note_on_c, 14, 66, 0
13, 48811, Note_on_c, 14, 66, 99
13, 49152, Note_on_c, 14, 66, 0
13, 49152, Note_on_c, 14, 66, 101
13, 50022, Note_on_c, 14, 66, 0
13, 50176, Note_on_c, 14, 62, 106
13, 50517, Note_on_c, 14, 62, 0
13, 50517, Note_on_c, 14, 64, 97
13, 50859, Note_on_c, 14, 64, 0
13, 50859, Note_on_c, 14, 66, 100
13, 51200, Note_on_c, 14, 66, 0
13, 51200, Note_on_c, 14, 66, 104
13, 52070, Note_on_c, 14, 66, 0
13, 52224, Note_on_c, 14, 66, 92
13, 52565, Note_on_c, 14, 66, 0
13, 52565, Note_on_c, 14, 67, 94
13, 52907, Note_on_c, 14, 67, 0
13, 52907, Note_on_c, 14, 66, 96
13, 53248, Note_on_c, 14, 66, 0
13, 53248, Note_on_c, 14, 64, 98
13, 53589, Note_on_c, 14, 64, 0
13, 53589, Note_on_c, 14, 66, 100
13, 53931, Note_on_c, 14, 66, 0
13, 53931, Note_on_c, 14, 64, 102
13, 54272, Note_on_c, 14, 64, 0
13, 54272, Note_on_c, 14, 62, 104
13, 54613, Note_on_c, 14, 62, 0
13, 54613, Note_on_c, 14, 64, 96
13, 54955, Note_on_c, 14, 64, 0
13, 54955, Note_on_c, 14, 66, 100
13, 55296, Note_on_c, 14, 66, 0
13, 55296, Note_on_c, 14, 66, 103
13, 56166, Note_on_c, 14, 66, 0
13, 56320, Note_on_c, 14, 62, 90
13, 56661, Note_on_c, 14, 62, 0
13, 56661, Note_on_c, 14, 64, 92
13, 57003, Note_on_c, 14, 64, 0
13, 57003, Note_on_c, 14, 62, 94
13, 57344, Note_on_c, 14, 62, 0
13, 57344, Note_on_c, 14, 60, 97
13, 57685, Note_on_c, 14, 60, 0
13, 57685, Note_on_c, 14, 62, 99
13, 58027, Note_on_c, 14, 62, 0
13, 58027, Note_on_c, 14, 60, 102
13, 58368, Note_on_c, 14, 60, 0
13, 58368, Note_on_c, 14, 59, 104
13, 58709, Note_on_c, 14, 59, 0
13, 58709, Note_on_c, 14, 60, 94
13, 59051, Note_on_c, 14, 60, 0
13, 59051, Note_on_c, 14, 62, 98
13, 59392, Note_on_c, 14, 62, 0
13, 59392, Note_on_c, 14, 62, 102
13, 60262, Note_on_c, 14, 62, 0
13, 60416, Note_on_c, 14, 57, 54
13, 65536, Note_on_c, 14, 57, 0
13, 65536, Note_on_c, 14, 57, 72
13, 66406, Note_on_c, 14, 57, 0
13, 66560, Note_on_c, 14, 62, 88
13, 72704, Note_on_c, 14, 62, 0
13, 72704, Note_on_c, 14, 66, 88
13, 74588, Note_on_c, 14, 66, 0
13, 74752, Note_on_c, 14, 59, 100
13, 80896, Note_on_c, 14, 59, 0
13, 80896, Note_on_c, 14, 62, 99
13, 82780, Note_on_c, 14, 62, 0
13, 82944, Note_on_c, 14, 55, 80
13, 89088, Note_on_c, 14, 55, 0
13, 89088, Note_on_c, 14, 59, 80
13, 90972, Note_on_c, 14, 59, 0
13, 91136, Note_on_c, 14, 59, 55
13, 91477, Note_on_c, 14, 59, 0
13, 91477, Note_on_c, 14, 61, 49
13, 91819, Note_on_c, 14, 61, 0
13, 91819, Note_on_c, 14, 62, 49
13, 92160, Note_on_c, 14, 62, 0
13, 92160, Note_on_c, 14, 64, 49
13, 92741, Note_on_c, 14, 64, 0
13, 92843, Note_on_c, 14, 64, 49
13, 93184, Note_on_c, 14, 64, 0
13, 93184, Note_on_c, 14, 58, 49
13, 93765, Note_on_c, 14, 58, 0
13, 93867, Note_on_c, 14, 58, 49
13, 94208, Note_on_c, 14, 58, 0
13, 94208, Note_on_c, 14, 62, 49
13, 95078, Note_on_c, 14, 62, 0
13, 95232, Note_on_c, 14, 64, 49
13, 96102, Note_on_c, 14, 64, 0
13, 96256, Note_on_c, 14, 61, 49
13, 97126, Note_on_c, 14, 61, 0
13, 97280, Note_on_c, 14, 62, 48
13, 97861, Note_on_c, 14, 62, 0
13, 97963, Note_on_c, 14, 62, 46
13, 98304, Note_on_c, 14, 62, 0
13, 98304, Note_on_c, 14, 62, 44
13, 99174, Note_on_c, 14, 62, 0
13, 99328, Note_on_c, 14, 59, 40
13, 99669, Note_on_c, 14, 59, 0
13, 99669, Note_on_c, 14, 57, 40
13, 100011, Note_on_c, 14, 57, 0
13, 100011, Note_on_c, 14, 59, 40
13, 100352, Note_on_c, 14, 59, 0
13, 100352, Note_on_c, 14, 64, 40
13, 100693, Note_on_c, 14, 64, 0
13, 100693, Note_on_c, 14, 63, 40
13, 101035, Note_on_c, 14, 63, 0
13, 101035, Note_on_c, 14, 64, 40
13, 101376, Note_on_c, 14, 64, 0
13, 101376, Note_on_c, 14, 67, 40
13, 102246, Note_on_c, 14, 67, 0
13, 102400, Note_on_c, 14, 59, 40
13, 103270, Note_on_c, 14, 59, 0
13, 103424, Note_on_c, 14, 61, 40
13, 104294, Note_on_c, 14, 61, 0
13, 104448, Note_on_c, 14, 57, 40
13, 105318, Note_on_c, 14, 57, 0
13, 105472, Note_on_c, 14, 67, 40
13, 105813, Note_on_c, 14, 67, 0
13, 105813, Note_on_c, 14, 69, 40
13, 106155, Note_on_c, 14, 69, 0
13, 106155, Note_on_c, 14, 67, 40
13, 106496, Note_on_c, 14, 67, 0
13, 106496, Note_on_c, 14, 64, 40
13, 106837, Note_on_c, 14, 64, 0
13, 106837, Note_on_c, 14, 66, 40
13, 107179, Note_on_c, 14, 66, 0
13, 107179, Note_on_c, 14, 64, 40
13, 107520, Note_on_c, 14, 64, 0
13, 107520, Note_on_c, 14, 62, 40
13, 107861, Note_on_c, 14, 62, 0
13, 107861, Note_on_c, 14, 61, 40
13, 108203, Note_on_c, 14, 61, 0
13, 108203, Note_on_c, 14, 62, 40
13, 108544, Note_on_c, 14, 62, 0
13, 108544, Note_on_c, 14, 66, 40
13, 108885, Note_on_c, 14, 66, 0
13, 108885, Note_on_c, 14, 64, 40
13, 109227, Note_on_c, 14, 64, 0
13, 109227, Note_on_c, 14, 66, 40
13, 109568, Note_on_c, 14, 66, 0
13, 109568, Note_on_c, 14, 69, 40
13, 110438, Note_on_c, 14, 69, 0
13, 110592, Note_on_c, 14, 57, 40
13, 111462, Note_on_c, 14, 57, 0
13, 111616, Note_on_c, 14, 59, 40
13, 112486, Note_on_c, 14, 59, 0
13, 112640, Note_on_c, 14, 59, 41
13, 113510, Note_on_c, 14, 59, 0
13, 113664, Note_on_c, 14, 61, 43
13, 114245, Note_on_c, 14, 61, 0
13, 114347, Note_on_c, 14, 61, 44
13, 114688, Note_on_c, 14, 61, 0
13, 114688, Note_on_c, 14, 57, 45
13, 115558, Note_on_c, 14, 57, 0
13, 115712, Note_on_c, 14, 59, 46
13, 116293, Note_on_c, 14, 59, 0
13, 116395, Note_on_c, 14, 67, 47
13, 116736, Note_on_c, 14, 67, 0
13, 116736, Note_on_c, 14, 64, 48
13, 117606, Note_on_c, 14, 64, 0
13, 117760, Note_on_c, 14, 62, 50
13, 118341, Note_on_c, 14, 62, 0
13, 118443, Note_on_c, 14, 62, 51
13, 118784, Note_on_c, 14, 62, 0
13, 118784, Note_on_c, 14, 62, 51
13, 119654, Note_on_c, 14, 62, 0
13, 120832, Note_on_c, 14, 64, 52
13, 122197, Note_on_c, 14, 64, 0
13, 122197, Note_on_c, 14, 66, 52
13, 122539, Note_on_c, 14, 66, 0
13, 122539, Note_on_c, 14, 64, 52
13, 122880, Note_on_c, 14, 64, 0
13, 122880, Note_on_c, 14, 62, 52
13, 123221, Note_on_c, 14, 62, 0
13, 123221, Note_on_c, 14, 64, 52
13, 123563, Note_on_c, 14, 64, 0
13, 123563, Note_on_c, 14, 61, 52
13, 123904, Note_on_c, 14, 61, 0
13, 123904, Note_on_c, 14, 59, 52
13, 124774, Note_on_c, 14, 59, 0
13, 124928, Note_on_c, 14, 59, 52
13, 125798, Note_on_c, 14, 59, 0
13, 126976, Note_on_c, 14, 61, 52
13, 128341, Note_on_c, 14, 61, 0
13, 128341, Note_on_c, 14, 62, 52
13, 128683, Note_on_c, 14, 62, 0
13, 128683, Note_on_c, 14, 61, 52
13, 129024, Note_on_c, 14, 61, 0
13, 129024, Note_on_c, 14, 59, 52
13, 129365, Note_on_c, 14, 59, 0
13, 129365, Note_on_c, 14, 61, 52
13, 129707, Note_on_c, 14, 61, 0
13, 129707, Note_on_c, 14, 57, 52
13, 130048, Note_on_c, 14, 57, 0
13, 130048, Note_on_c, 14, 64, 52
13, 130918, Note_on_c, 14, 64, 0
13, 131072, Note_on_c, 14, 64, 61
13, 131942, Note_on_c, 14, 64, 0
13, 132096, Note_on_c, 14, 62, 72
13, 133461, Note_on_c, 14, 62, 0
13, 133461, Note_on_c, 14, 64, 76
13, 133803, Note_on_c, 14, 64, 0
13, 133803, Note_on_c, 14, 62, 77
13, 134144, Note_on_c, 14, 62, 0
13, 134144, Note_on_c, 14, 59, 78
13, 134485, Note_on_c, 14, 59, 0
13, 134485, Note_on_c, 14, 57, 79
13, 134827, Note_on_c, 14, 57, 0
13, 134827, Note_on_c, 14, 56, 80
13, 135168, Note_on_c, 14, 56, 0
13, 135168, Note_on_c, 14, 61, 81
13, 135509, Note_on_c, 14, 61, 0
13, 135509, Note_on_c, 14, 62, 82
13, 135851, Note_on_c, 14, 62, 0
13, 135851, Note_on_c, 14, 61, 82
13, 136192, Note_on_c, 14, 61, 0
13, 136192, Note_on_c, 14, 61, 83
13, 136533, Note_on_c, 14, 61, 0
13, 136533, Note_on_c, 14, 59, 84
13, 136875, Note_on_c, 14, 59, 0
13, 136875, Note_on_c, 14, 57, 85
13, 137216, Note_on_c, 14, 57, 0
13, 137216, Note_on_c, 14, 62, 86
13, 137797, Note_on_c, 14, 62, 0
13, 137899, Note_on_c, 14, 62, 88
13, 138240, Note_on_c, 14, 62, 0
13, 138240, Note_on_c, 14, 62, 89
13, 138581, Note_on_c, 14, 62, 0
13, 138581, Note_on_c, 14, 61, 90
13, 138923, Note_on_c, 14, 61, 0
13, 138923, Note_on_c, 14, 59, 91
13, 139264, Note_on_c, 14, 59, 0
13, 139264, Note_on_c, 14, 64, 92
13, 140134, Note_on_c, 14, 64, 0
13, 140288, Note_on_c, 14, 57, 94
13, 146432, Note_on_c, 14, 57, 0
13, 146432, Note_on_c, 14, 61, 94
13, 148316, Note_on_c, 14, 61, 0
13, 148480, Note_on_c, 14, 57, 94
13, 154624, Note_on_c, 14, 57, 0
13, 154624, Note_on_c, 14, 64, 94
13, 156508, Note_on_c, 14, 64, 0
13, 156672, Note_on_c, 14, 62, 94
13, 162816, Note_on_c, 14, 62, 0
13, 162816, Note_on_c, 14, 66, 84
13, 164700, Note_on_c, 14, 66, 0
13, 164864, Note_on_c, 14, 66, 58
13, 165734, Note_on_c, 14, 66, 0
13, 165888, Note_on_c, 14, 62, 58
13, 166758, Note_on_c, 14, 62, 0
13, 166912, Note_on_c, 14, 66, 58
13, 167253, Note_on_c, 14, 66, 0
13, 167253, Note_on_c, 14, 67, 58
13, 167595, Note_on_c, 14, 67, 0
13, 167595, Note_on_c, 14, 66, 58
13, 167936, Note_on_c, 14, 66, 0
13, 167936, Note_on_c, 14, 66, 58
13, 168277, Note_on_c, 14, 66, 0
13, 168277, Note_on_c, 14, 67, 58
13, 168619, Note_on_c, 14, 67, 0
13, 168619, Note_on_c, 14, 66, 58
13, 168960, Note_on_c, 14, 66, 0
13, 168960, Note_on_c, 14, 64, 58
13, 169301, Note_on_c, 14, 64, 0
13, 169301, Note_on_c, 14, 62, 58
13, 169643, Note_on_c, 14, 62, 0
13, 169643, Note_on_c, 14, 64, 58
13, 169984, Note_on_c, 14, 64, 0
13, 169984, Note_on_c, 14, 68, 58
13, 170325, Note_on_c, 14, 68, 0
13, 170325, Note_on_c, 14, 66, 58
13, 170667, Note_on_c, 14, 66, 0
13, 170667, Note_on_c, 14, 68, 58
13, 171008, Note_on_c, 14, 68, 0
13, 171008, Note_on_c, 14, 68, 58
13, 171878, Note_on_c, 14, 68, 0
13, 172032, Note_on_c, 14, 59, 58
13, 172902, Note_on_c, 14, 59, 0
13, 173056, Note_on_c, 14, 61, 58
13, 173926, Note_on_c, 14, 61, 0
13, 174080, Note_on_c, 14, 57, 58
13, 174950, Note_on_c, 14, 57, 0
13, 175104, Note_on_c, 14, 64, 58
13, 175445, Note_on_c, 14, 64, 0
13, 175445, Note_on_c, 14, 66, 58
13, 175787, Note_on_c, 14, 66, 0
13, 175787, Note_on_c, 14, 64, 58
13, 176128, Note_on_c, 14, 64, 0
13, 176128, Note_on_c, 14, 64, 58
13, 176469, Note_on_c, 14, 64, 0
13, 176469, Note_on_c, 14, 66, 58
13, 176811, Note_on_c, 14, 66, 0
13, 176811, Note_on_c, 14, 64, 58
13, 177152, Note_on_c, 14, 64, 0
13, 177152, Note_on_c, 14, 62, 64
13, 178022, Note_on_c, 14, 62, 0
13, 178176, Note_on_c, 14, 59, 62
13, 179046, Note_on_c, 14, 59, 0
13, 179200, Note_on_c, 14, 56, 66
13, 179781, Note_on_c, 14, 56, 0
13, 179883, Note_on_c, 14, 56, 68
13, 180224, Note_on_c, 14, 56, 0
13, 180224, Note_on_c, 14, 56, 69
13, 181094, Note_on_c, 14, 56, 0
13, 181248, Note_on_c, 14, 59, 73
13, 182118, Note_on_c, 14, 59, 0
13, 182272, Note_on_c, 14, 59, 76
13, 183142, Note_on_c, 14, 59, 0
13, 183296, Note_on_c, 14, 61, 80
13, 183877, Note_on_c, 14, 61, 0
13, 183979, Note_on_c, 14, 61, 83
13, 184320, Note_on_c, 14, 61, 0
13, 184320, Note_on_c, 14, 61, 84
13, 185190, Note_on_c, 14, 61, 0
13, 185344, Note_on_c, 14, 59, 87
13, 185925, Note_on_c, 14, 59, 0
13, 186027, Note_on_c, 14, 59, 89
13, 186368, Note_on_c, 14, 59, 0
13, 186368, Note_on_c, 14, 61, 90
13, 187238, Note_on_c, 14, 61, 0
13, 187392, Note_on_c, 14, 61, 92
13, 188262, Note_on_c, 14, 61, 0
13, 188416, Note_on_c, 14, 59, 94
13, 189286, Note_on_c, 14, 59, 0
13, 189440, Note_on_c, 14, 59, 96
13, 189781, Note_on_c, 14, 59, 0
13, 189781, Note_on_c, 14, 57, 97
13, 190123, Note_on_c, 14, 57, 0
13, 190123, Note_on_c, 14, 56, 97
13, 190464, Note_on_c, 14, 56, 0
13, 190464, Note_on_c, 14, 54, 98
13, 190805, Note_on_c, 14, 54, 0
13, 190805, Note_on_c, 14, 53, 99
13, 191147, Note_on_c, 14, 53, 0
13, 191147, Note_on_c, 14, 54, 99
13, 191488, Note_on_c, 14, 54, 0
13, 191488, Note_on_c, 14, 56, 100
13, 191829, Note_on_c, 14, 56, 0
13, 191829, Note_on_c, 14, 59, 100
13, 192171, Note_on_c, 14, 59, 0
13, 192171, Note_on_c, 14, 57, 100
13, 192512, Note_on_c, 14, 57, 0
13, 192512, Note_on_c, 14, 59, 100
13, 193382, Note_on_c, 14, 59, 0
13, 193536, Note_on_c, 14, 57, 48
13, 193792, Note_on_c, 14, 57, 0
13, 194048, Note_on_c, 14, 57, 44
13, 194304, Note_on_c, 14, 57, 0
13, 194560, Note_on_c, 14, 57, 44
13, 194816, Note_on_c, 14, 57, 0
13, 195072, Note_on_c, 14, 66, 49
13, 195328, Note_on_c, 14, 66, 0
13, 195584, Note_on_c, 14, 66, 44
13, 195840, Note_on_c, 14, 66, 0
13, 196096, Note_on_c, 14, 66, 44
13, 196352, Note_on_c, 14, 66, 0
13, 196608, Note_on_c, 14, 59, 48
13, 197120, Note_on_c, 14, 59, 0
13, 197120, Note_on_c, 14, 59, 44
13, 197376, Note_on_c, 14, 59, 0
13, 197632, Note_on_c, 14, 61, 44
13, 197888, Note_on_c, 14, 61, 0
13, 197888, Note_on_c, 14, 62, 44
13, 198144, Note_on_c, 14, 62, 0
13, 198144, Note_on_c, 14, 64, 44
13, 198400, Note_on_c, 14, 64, 0
13, 198400, Note_on_c, 14, 66, 44
13, 198656, Note_on_c, 14, 66, 0
13, 198656, Note_on_c, 14, 67, 44
13, 198912, Note_on_c, 14, 67, 0
13, 198912, Note_on_c, 14, 66, 44
13, 199168, Note_on_c, 14, 66, 0
13, 199168, Note_on_c, 14, 64, 44
13, 199424, Note_on_c, 14, 64, 0
13, 199424, Note_on_c, 14, 62, 44
13, 199680, Note_on_c, 14, 62, 0
13, 199680, Note_on_c, 14, 61, 44
13, 199936, Note_on_c, 14, 61, 0
13, 200192, Note_on_c, 14, 59, 44
13, 200448, Note_on_c, 14, 59, 0
13, 200448, Note_on_c, 14, 57, 44
13, 200704, Note_on_c, 14, 57, 0
13, 200704, Note_on_c, 14, 62, 44
13, 201472, Note_on_c, 14, 62, 0
13, 201472, Note_on_c, 14, 64, 44
13, 201728, Note_on_c, 14, 64, 0
13, 201728, Note_on_c, 14, 61, 44
13, 202496, Note_on_c, 14, 61, 0
13, 202496, Note_on_c, 14, 62, 44
13, 202752, Note_on_c, 14, 62, 0
13, 202752, Note_on_c, 14, 62, 44
13, 203008, Note_on_c, 14, 62, 0
13, 203264, Note_on_c, 14, 66, 44
13, 203520, Note_on_c, 14, 66, 0
13, 203520, Note_on_c, 14, 67, 44
13, 203776, Note_on_c, 14, 67, 0
13, 203776, Note_on_c, 14, 66, 44
13, 204032, Note_on_c, 14, 66, 0
13, 204032, Note_on_c, 14, 64, 44
13, 204288, Note_on_c, 14, 64, 0
13, 204288, Note_on_c, 14, 62, 44
13, 204544, Note_on_c, 14, 62, 0
13, 204544, Note_on_c, 14, 61, 44
13, 204800, Note_on_c, 14, 61, 0
13, 204800, Note_on_c, 14, 59, 44
13, 205056, Note_on_c, 14, 59, 0
13, 205056, Note_on_c, 14, 61, 44
13, 205312, Note_on_c, 14, 61, 0
13, 205312, Note_on_c, 14, 62, 44
13, 205568, Note_on_c, 14, 62, 0
13, 205568, Note_on_c, 14, 59, 44
13, 205824, Note_on_c, 14, 59, 0
13, 205824, Note_on_c, 14, 61, 44
13, 206080, Note_on_c, 14, 61, 0
13, 206080, Note_on_c, 14, 62, 44
13, 206336, Note_on_c, 14, 62, 0
13, 206336, Note_on_c, 14, 64, 44
13, 206592, Note_on_c, 14, 64, 0
13, 206592, Note_on_c, 14, 66, 44
13, 206848, Note_on_c, 14, 66, 0
13, 206848, Note_on_c, 14, 64, 44
13, 207104, Note_on_c, 14, 64, 0
13, 207104, Note_on_c, 14, 62, 44
13, 207360, Note_on_c, 14, 62, 0
13, 207360, Note_on_c, 14, 61, 44
13, 207616, Note_on_c, 14, 61, 0
13, 207616, Note_on_c, 14, 59, 44
13, 207872, Note_on_c, 14, 59, 0
13, 207872, Note_on_c, 14, 57, 44
13, 208128, Note_on_c, 14, 57, 0
13, 208128, Note_on_c, 14, 59, 44
13, 208384, Note_on_c, 14, 59, 0
13, 208384, Note_on_c, 14, 61, 44
13, 208640, Note_on_c, 14, 61, 0
13, 208640, Note_on_c, 14, 57, 44
13, 208896, Note_on_c, 14, 57, 0
13, 208896, Note_on_c, 14, 62, 44
13, 209152, Note_on_c, 14, 62, 0
13, 209152, Note_on_c, 14, 61, 44
13, 209408, Note_on_c, 14, 61, 0
13, 209408, Note_on_c, 14, 62, 44
13, 209664, Note_on_c, 14, 62, 0
13, 209664, Note_on_c, 14, 64, 44
13, 209920, Note_on_c, 14, 64, 0
13, 209920, Note_on_c, 14, 66, 44
13, 210176, Note_on_c, 14, 66, 0
13, 210176, Note_on_c, 14, 64, 44
13, 210432, Note_on_c, 14, 64, 0
13, 210432, Note_on_c, 14, 62, 44
13, 210688, Note_on_c, 14, 62, 0
13, 210688, Note_on_c, 14, 61, 44
13, 210944, Note_on_c, 14, 61, 0
13, 210944, Note_on_c, 14, 59, 44
13, 211200, Note_on_c, 14, 59, 0
13, 211200, Note_on_c, 14, 64, 44
13, 211456, Note_on_c, 14, 64, 0
13, 211456, Note_on_c, 14, 62, 44
13, 211712, Note_on_c, 14, 62, 0
13, 211712, Note_on_c, 14, 64, 44
13, 211968, Note_on_c, 14, 64, 0
13, 211968, Note_on_c, 14, 61, 44
13, 212224, Note_on_c, 14, 61, 0
13, 212224, Note_on_c, 14, 62, 44
13, 212480, Note_on_c, 14, 62, 0
13, 212480, Note_on_c, 14, 64, 44
13, 212736, Note_on_c, 14, 64, 0
13, 212992, Note_on_c, 14, 57, 45
13, 213248, Note_on_c, 14, 57, 0
13, 214016, Note_on_c, 14, 62, 47
13, 214272, Note_on_c, 14, 62, 0
13, 214272, Note_on_c, 14, 64, 47
13, 214528, Note_on_c, 14, 64, 0
13, 214528, Note_on_c, 14, 66, 48
13, 214784, Note_on_c, 14, 66, 0
13, 214784, Note_on_c, 14, 62, 48
13, 215040, Note_on_c, 14, 62, 0
13, 215040, Note_on_c, 14, 67, 49
13, 215296, Note_on_c, 14, 67, 0
13, 215552, Note_on_c, 14, 67, 49
13, 215808, Note_on_c, 14, 67, 0
13, 216064, Note_on_c, 14, 67, 50
13, 216320, Note_on_c, 14, 67, 0
13, 216576, Note_on_c, 14, 67, 51
13, 218368, Note_on_c, 14, 67, 0
13, 218624, Note_on_c, 14, 64, 55
13, 218880, Note_on_c, 14, 64, 0
13, 219136, Note_on_c, 14, 66, 56
13, 219392, Note_on_c, 14, 66, 0
13, 219648, Note_on_c, 14, 59, 56
13, 219904, Note_on_c, 14, 59, 0
13, 219904, Note_on_c, 14, 55, 57
13, 220160, Note_on_c, 14, 55, 0
13, 220160, Note_on_c, 14, 57, 57
13, 221184, Note_on_c, 14, 57, 0
13, 221184, Note_on_c, 14, 50, 60
13, 221440, Note_on_c, 14, 50, 0
13, 221696, Note_on_c, 14, 57, 62
13, 221952, Note_on_c, 14, 57, 0
13, 221952, Note_on_c, 14, 59, 62
13, 222208, Note_on_c, 14, 59, 0
13, 222208, Note_on_c, 14, 61, 63
13, 222464, Note_on_c, 14, 61, 0
13, 222464, Note_on_c, 14, 57, 63
13, 222720, Note_on_c, 14, 57, 0
13, 222720, Note_on_c, 14, 62, 64
13, 222976, Note_on_c, 14, 62, 0
13, 222976, Note_on_c, 14, 64, 64
13, 223232, Note_on_c, 14, 64, 0
13, 223232, Note_on_c, 14, 66, 65
13, 223488, Note_on_c, 14, 66, 0
13, 223488, Note_on_c, 14, 64, 65
13, 223744, Note_on_c, 14, 64, 0
13, 223744, Note_on_c, 14, 62, 66
13, 224000, Note_on_c, 14, 62, 0
13, 224000, Note_on_c, 14, 66, 67
13, 224256, Note_on_c, 14, 66, 0
13, 224256, Note_on_c, 14, 67, 67
13, 224512, Note_on_c, 14, 67, 0
13, 224512, Note_on_c, 14, 66, 68
13, 224768, Note_on_c, 14, 66, 0
13, 224768, Note_on_c, 14, 64, 68
13, 225024, Note_on_c, 14, 64, 0
13, 225024, Note_on_c, 14, 62, 69
13, 225280, Note_on_c, 14, 62, 0
13, 225280, Note_on_c, 14, 61, 69
13, 225536, Note_on_c, 14, 61, 0
13, 225536, Note_on_c, 14, 62, 70
13, 225792, Note_on_c, 14, 62, 0
13, 225792, Note_on_c, 14, 64, 71
13, 226048, Note_on_c, 14, 64, 0
13, 226048, Note_on_c, 14, 66, 71
13, 226304, Note_on_c, 14, 66, 0
13, 226304, Note_on_c, 14, 67, 72
13, 226560, Note_on_c, 14, 67, 0
13, 226560, Note_on_c, 14, 64, 72
13, 226816, Note_on_c, 14, 64, 0
13, 226816, Note_on_c, 14, 69, 73
13, 227072, Note_on_c, 14, 69, 0
13, 227328, Note_on_c, 14, 62, 74
13, 227840, Note_on_c, 14, 62, 0
13, 227840, Note_on_c, 14, 59, 76
13, 228096, Note_on_c, 14, 59, 0
13, 230400, Note_on_c, 14, 61, 102
13, 230656, Note_on_c, 14, 61, 0
13, 230912, Note_on_c, 14, 61, 95
13, 231168, Note_on_c, 14, 61, 0
13, 231424, Note_on_c, 14, 61, 95
13, 231680, Note_on_c, 14, 61, 0
13, 231936, Note_on_c, 14, 69, 102
13, 232192, Note_on_c, 14, 69, 0
13, 232448, Note_on_c, 14, 69, 95
13, 232704, Note_on_c, 14, 69, 0
13, 232960, Note_on_c, 14, 69, 95
13, 233216, Note_on_c, 14, 69, 0
13, 233472, Note_on_c, 14, 62, 101
13, 233984, Note_on_c, 14, 62, 0
13, 233984, Note_on_c, 14, 62, 95
13, 234240, Note_on_c, 14, 62, 0
13, 234496, Note_on_c, 14, 64, 95
13, 234752, Note_on_c, 14, 64, 0
13, 234752, Note_on_c, 14, 66, 95
13, 235008, Note_on_c, 14, 66, 0
13, 235008, Note_on_c, 14, 67, 95
13, 235264, Note_on_c, 14, 67, 0
13, 235264, Note_on_c, 14, 69, 95
13, 235520, Note_on_c, 14, 69, 0
13, 235520, Note_on_c, 14, 71, 95
13, 235776, Note_on_c, 14, 71, 0
13, 235776, Note_on_c, 14, 69, 95
13, 236032, Note_on_c, 14, 69, 0
13, 236032, Note_on_c, 14, 67, 95
13, 236288, Note_on_c, 14, 67, 0
13, 236288, Note_on_c, 14, 66, 95
13, 236544, Note_on_c, 14, 66, 0
13, 236544, Note_on_c, 14, 64, 95
13, 236800, Note_on_c, 14, 64, 0
13, 237056, Note_on_c, 14, 62, 95
13, 237312, Note_on_c, 14, 62, 0
13, 237312, Note_on_c, 14, 61, 95
13, 237568, Note_on_c, 14, 61, 0
13, 237568, Note_on_c, 14, 66, 95
13, 238336, Note_on_c, 14, 66, 0
13, 238336, Note_on_c, 14, 67, 95
13, 238592, Note_on_c, 14, 67, 0
13, 238592, Note_on_c, 14, 64, 95
13, 239360, Note_on_c, 14, 64, 0
13, 239360, Note_on_c, 14, 66, 95
13, 239616, Note_on_c, 14, 66, 0
13, 239616, Note_on_c, 14, 66, 95
13, 239872, Note_on_c, 14, 66, 0
13, 245760, Note_on_c, 14, 57, 82
13, 246016, Note_on_c, 14, 57, 0
13, 246272, Note_on_c, 14, 61, 82
13, 246528, Note_on_c, 14, 61, 0
13, 246784, Note_on_c, 14, 57, 82
13, 247040, Note_on_c, 14, 57, 0
13, 247296, Note_on_c, 14, 64, 82
13, 247552, Note_on_c, 14, 64, 0
13, 247808, Note_on_c, 14, 64, 82
13, 248064, Note_on_c, 14, 64, 0
13, 253440, Note_on_c, 14, 59, 82
13, 253696, Note_on_c, 14, 59, 0
13, 253952, Note_on_c, 14, 59, 82
13, 254208, Note_on_c, 14, 59, 0
13, 254464, Note_on_c, 14, 59, 82
13, 254720, Note_on_c, 14, 59, 0
13, 254976, Note_on_c, 14, 67, 82
13, 255232, Note_on_c, 14, 67, 0
13, 255488, Note_on_c, 14, 67, 82
13, 255744, Note_on_c, 14, 67, 0
13, 256000, Note_on_c, 14, 67, 82
13, 256256, Note_on_c, 14, 67, 0
13, 256512, Note_on_c, 14, 61, 82
13, 256768, Note_on_c, 14, 61, 0
13, 257024, Note_on_c, 14, 61, 82
13, 257280, Note_on_c, 14, 61, 0
13, 257536, Note_on_c, 14, 63, 82
13, 257792, Note_on_c, 14, 63, 0
13, 257792, Note_on_c, 14, 64, 82
13, 258048, Note_on_c, 14, 64, 0
13, 258048, Note_on_c, 14, 66, 82
13, 258304, Note_on_c, 14, 66, 0
13, 258304, Note_on_c, 14, 67, 82
13, 258560, Note_on_c, 14, 67, 0
13, 258560, Note_on_c, 14, 69, 82
13, 258816, Note_on_c, 14, 69, 0
13, 258816, Note_on_c, 14, 67, 82
13, 259072, Note_on_c, 14, 67, 0
13, 259072, Note_on_c, 14, 66, 82
13, 259328, Note_on_c, 14, 66, 0
13, 259328, Note_on_c, 14, 64, 82
13, 259584, Note_on_c, 14, 64, 0
13, 259584, Note_on_c, 14, 63, 82
13, 259840, Note_on_c, 14, 63, 0
13, 260096, Note_on_c, 14, 61, 82
13, 260352, Note_on_c, 14, 61, 0
13, 260352, Note_on_c, 14, 59, 82
13, 260608, Note_on_c, 14, 59, 0
13, 260608, Note_on_c, 14, 64, 82
13, 261376, Note_on_c, 14, 64, 0
13, 261376, Note_on_c, 14, 66, 85
13, 261632, Note_on_c, 14, 66, 0
13, 261632, Note_on_c, 14, 63, 87
13, 262400, Note_on_c, 14, 63, 0
13, 262400, Note_on_c, 14, 64, 90
13, 262656, Note_on_c, 14, 64, 0
13, 262656, Note_on_c, 14, 64, 95
13, 262912, Note_on_c, 14, 64, 0
13, 264704, Note_on_c, 14, 57, 48
13, 264960, Note_on_c, 14, 57, 0
13, 264960, Note_on_c, 14, 59, 48
13, 265216, Note_on_c, 14, 59, 0
13, 265216, Note_on_c, 14, 61, 48
13, 265472, Note_on_c, 14, 61, 0
13, 265472, Note_on_c, 14, 57, 48
13, 265728, Note_on_c, 14, 57, 0
13, 265728, Note_on_c, 14, 62, 48
13, 265984, Note_on_c, 14, 62, 0
13, 266240, Note_on_c, 14, 54, 48
13, 266496, Note_on_c, 14, 54, 0
13, 266496, Note_on_c, 14, 55, 48
13, 266752, Note_on_c, 14, 55, 0
13, 266752, Note_on_c, 14, 57, 48
13, 267008, Note_on_c, 14, 57, 0
13, 267008, Note_on_c, 14, 54, 48
13, 267264, Note_on_c, 14, 54, 0
13, 267264, Note_on_c, 14, 59, 48
13, 267520, Note_on_c, 14, 59, 0
13, 267776, Note_on_c, 14, 62, 48
13, 268032, Note_on_c, 14, 62, 0
13, 270848, Note_on_c, 14, 54, 64
13, 271104, Note_on_c, 14, 54, 0
13, 271104, Note_on_c, 14, 56, 64
13, 271360, Note_on_c, 14, 56, 0
13, 271360, Note_on_c, 14, 58, 64
13, 271616, Note_on_c, 14, 58, 0
13, 271616, Note_on_c, 14, 54, 64
13, 271872, Note_on_c, 14, 54, 0
13, 271872, Note_on_c, 14, 59, 64
13, 273920, Note_on_c, 14, 59, 0
13, 273920, Note_on_c, 14, 61, 64
13, 274176, Note_on_c, 14, 61, 0
13, 274176, Note_on_c, 14, 62, 64
13, 274432, Note_on_c, 14, 62, 0
13, 274432, Note_on_c, 14, 64, 64
13, 274688, Note_on_c, 14, 64, 0
13, 274688, Note_on_c, 14, 66, 64
13, 274944, Note_on_c, 14, 66, 0
13, 274944, Note_on_c, 14, 67, 64
13, 275200, Note_on_c, 14, 67, 0
13, 275200, Note_on_c, 14, 69, 64
13, 275456, Note_on_c, 14, 69, 0
13, 275456, Note_on_c, 14, 67, 64
13, 275712, Note_on_c, 14, 67, 0
13, 275712, Note_on_c, 14, 66, 64
13, 275968, Note_on_c, 14, 66, 0
13, 275968, Note_on_c, 14, 64, 64
13, 276224, Note_on_c, 14, 64, 0
13, 276224, Note_on_c, 14, 62, 64
13, 276480, Note_on_c, 14, 62, 0
13, 276480, Note_on_c, 14, 61, 64
13, 276736, Note_on_c, 14, 61, 0
13, 276992, Note_on_c, 14, 58, 64
13, 277248, Note_on_c, 14, 58, 0
13, 277504, Note_on_c, 14, 54, 64
13, 277760, Note_on_c, 14, 54, 0
13, 278016, Note_on_c, 14, 59, 64
13, 278528, Note_on_c, 14, 59, 0
13, 278528, Note_on_c, 14, 54, 64
13, 279552, Note_on_c, 14, 54, 0
13, 279552, Note_on_c, 14, 54, 64
13, 279808, Note_on_c, 14, 54, 0
13, 285696, Note_on_c, 14, 66, 39
13, 285952, Note_on_c, 14, 66, 0
13, 286208, Note_on_c, 14, 58, 42
13, 286464, Note_on_c, 14, 58, 0
13, 286720, Note_on_c, 14, 66, 45
13, 286976, Note_on_c, 14, 66, 0
13, 287232, Note_on_c, 14, 62, 49
13, 287488, Note_on_c, 14, 62, 0
13, 287744, Note_on_c, 14, 59, 52
13, 288000, Note_on_c, 14, 59, 0
13, 295424, Note_on_c, 14, 62, 88
13, 295680, Note_on_c, 14, 62, 0
13, 295680, Note_on_c, 14, 64, 88
13, 295936, Note_on_c, 14, 64, 0
13, 295936, Note_on_c, 14, 66, 88
13, 296192, Note_on_c, 14, 66, 0
13, 296192, Note_on_c, 14, 62, 88
13, 296448, Note_on_c, 14, 62, 0
13, 296448, Note_on_c, 14, 67, 88
13, 296704, Note_on_c, 14, 67, 0
13, 296704, Note_on_c, 14, 66, 88
13, 296960, Note_on_c, 14, 66, 0
13, 296960, Note_on_c, 14, 67, 88
13, 297216, Note_on_c, 14, 67, 0
13, 297216, Note_on_c, 14, 69, 88
13, 297472, Note_on_c, 14, 69, 0
13, 297472, Note_on_c, 14, 67, 88
13, 297728, Note_on_c, 14, 67, 0
13, 297728, Note_on_c, 14, 66, 88
13, 297984, Note_on_c, 14, 66, 0
13, 297984, Note_on_c, 14, 64, 88
13, 299776, Note_on_c, 14, 64, 0
13, 299776, Note_on_c, 14, 57, 93
13, 300032, Note_on_c, 14, 57, 0
13, 300032, Note_on_c, 14, 62, 93
13, 300288, Note_on_c, 14, 62, 0
13, 300288, Note_on_c, 14, 61, 94
13, 300544, Note_on_c, 14, 61, 0
13, 300544, Note_on_c, 14, 59, 95
13, 300800, Note_on_c, 14, 59, 0
13, 300800, Note_on_c, 14, 57, 96
13, 301056, Note_on_c, 14, 57, 0
13, 301056, Note_on_c, 14, 59, 96
13, 301312, Note_on_c, 14, 59, 0
13, 301312, Note_on_c, 14, 67, 97
13, 301568, Note_on_c, 14, 67, 0
13, 301568, Note_on_c, 14, 64, 98
13, 302080, Note_on_c, 14, 64, 0
13, 302080, Note_on_c, 14, 57, 100
13, 302336, Note_on_c, 14, 57, 0
13, 302592, Note_on_c, 14, 57, 101
13, 303616, Note_on_c, 14, 57, 0
13, 311808, Note_on_c, 14, 57, 66
13, 312064, Note_on_c, 14, 57, 0
13, 312320, Note_on_c, 14, 57, 59
13, 312576, Note_on_c, 14, 57, 0
13, 312832, Note_on_c, 14, 57, 59
13, 313088, Note_on_c, 14, 57, 0
13, 313344, Note_on_c, 14, 66, 66
13, 313600, Note_on_c, 14, 66, 0
13, 313856, Note_on_c, 14, 66, 59
13, 314112, Note_on_c, 14, 66, 0
13, 314368, Note_on_c, 14, 66, 59
13, 314624, Note_on_c, 14, 66, 0
13, 314880, Note_on_c, 14, 59, 65
13, 315392, Note_on_c, 14, 59, 0
13, 315392, Note_on_c, 14, 59, 59
13, 315648, Note_on_c, 14, 59, 0
13, 315904, Note_on_c, 14, 61, 64
13, 316160, Note_on_c, 14, 61, 0
13, 316160, Note_on_c, 14, 62, 66
13, 316416, Note_on_c, 14, 62, 0
13, 316416, Note_on_c, 14, 64, 67
13, 316672, Note_on_c, 14, 64, 0
13, 316672, Note_on_c, 14, 66, 68
13, 316928, Note_on_c, 14, 66, 0
13, 316928, Note_on_c, 14, 67, 70
13, 317184, Note_on_c, 14, 67, 0
13, 317184, Note_on_c, 14, 66, 71
13, 317440, Note_on_c, 14, 66, 0
13, 317440, Note_on_c, 14, 64, 73
13, 317696, Note_on_c, 14, 64, 0
13, 317696, Note_on_c, 14, 62, 74
13, 317952, Note_on_c, 14, 62, 0
13, 317952, Note_on_c, 14, 61, 75
13, 318208, Note_on_c, 14, 61, 0
13, 318464, Note_on_c, 14, 59, 76
13, 318720, Note_on_c, 14, 59, 0
13, 318720, Note_on_c, 14, 57, 77
13, 318976, Note_on_c, 14, 57, 0
13, 318976, Note_on_c, 14, 62, 78
13, 319744, Note_on_c, 14, 62, 0
13, 319744, Note_on_c, 14, 64, 82
13, 320000, Note_on_c, 14, 64, 0
13, 320000, Note_on_c, 14, 61, 83
13, 320768, Note_on_c, 14, 61, 0
13, 320768, Note_on_c, 14, 62, 86
13, 321024, Note_on_c, 14, 62, 0
13, 321024, Note_on_c, 14, 62, 87
13, 321280, Note_on_c, 14, 62, 0
13, 321536, Note_on_c, 14, 66, 87
13, 321792, Note_on_c, 14, 66, 0
13, 321792, Note_on_c, 14, 67, 87
13, 322048, Note_on_c, 14, 67, 0
13, 322048, Note_on_c, 14, 66, 87
13, 322304, Note_on_c, 14, 66, 0
13, 322304, Note_on_c, 14, 64, 87
13, 322560, Note_on_c, 14, 64, 0
13, 322560, Note_on_c, 14, 62, 87
13, 322816, Note_on_c, 14, 62, 0
13, 322816, Note_on_c, 14, 60, 87
13, 323072, Note_on_c, 14, 60, 0
13, 323072, Note_on_c, 14, 59, 87
13, 323328, Note_on_c, 14, 59, 0
13, 323328, Note_on_c, 14, 60, 87
13, 323584, Note_on_c, 14, 60, 0
13, 323584, Note_on_c, 14, 62, 87
13, 323840, Note_on_c, 14, 62, 0
13, 323840, Note_on_c, 14, 59, 87
13, 324096, Note_on_c, 14, 59, 0
13, 324096, Note_on_c, 14, 60, 87
13, 324352, Note_on_c, 14, 60, 0
13, 324352, Note_on_c, 14, 62, 87
13, 324608, Note_on_c, 14, 62, 0
13, 324608, Note_on_c, 14, 64, 87
13, 324864, Note_on_c, 14, 64, 0
13, 324864, Note_on_c, 14, 66, 87
13, 325120, Note_on_c, 14, 66, 0
13, 325120, Note_on_c, 14, 64, 87
13, 325376, Note_on_c, 14, 64, 0
13, 325376, Note_on_c, 14, 62, 87
13, 325632, Note_on_c, 14, 62, 0
13, 325632, Note_on_c, 14, 60, 87
13, 325888, Note_on_c, 14, 60, 0
13, 325888, Note_on_c, 14, 59, 87
13, 326144, Note_on_c, 14, 59, 0
13, 326144, Note_on_c, 14, 57, 87
13, 326400, Note_on_c, 14, 57, 0
13, 326400, Note_on_c, 14, 59, 87
13, 326656, Note_on_c, 14, 59, 0
13, 326656, Note_on_c, 14, 60, 87
13, 326758, Note_on_c, 14, 60, 0
13, 326758, Note_on_c, 14, 62, 87
13, 326861, Note_on_c, 14, 62, 0
13, 326861, Note_on_c, 14, 60, 87
13, 326963, Note_on_c, 14, 60, 0
13, 326963, Note_on_c, 14, 62, 87
13, 327066, Note_on_c, 14, 62, 0
13, 327066, Note_on_c, 14, 60, 87
13, 327168, Note_on_c, 14, 60, 0
13, 327168, Note_on_c, 14, 62, 87
13, 327936, Note_on_c, 14, 62, 0
13, 327936, Note_on_c, 14, 60, 87
13, 328192, Note_on_c, 14, 60, 0
13, 328192, Note_on_c, 14, 59, 87
13, 328448, Note_on_c, 14, 59, 0
13, 328448, Note_on_c, 14, 60, 86
13, 328704, Note_on_c, 14, 60, 0
13, 328704, Note_on_c, 14, 62, 87
13, 328960, Note_on_c, 14, 62, 0
13, 328960, Note_on_c, 14, 60, 87
13, 329216, Note_on_c, 14, 60, 0
13, 329216, Note_on_c, 14, 62, 87
13, 329472, Note_on_c, 14, 62, 0
13, 329472, Note_on_c, 14, 64, 87
13, 329728, Note_on_c, 14, 64, 0
13, 329728, Note_on_c, 14, 62, 87
13, 329984, Note_on_c, 14, 62, 0
13, 329984, Note_on_c, 14, 60, 87
13, 330240, Note_on_c, 14, 60, 0
13, 330240, Note_on_c, 14, 59, 87
13, 330496, Note_on_c, 14, 59, 0
13, 330752, Note_on_c, 14, 62, 46
13, 331008, Note_on_c, 14, 62, 0
13, 331776, Note_on_c, 14, 57, 48
13, 333824, Note_on_c, 14, 57, 0
13, 333824, Note_on_c, 14, 50, 52
13, 334336, Note_on_c, 14, 50, 0
13, 334336, Note_on_c, 14, 62, 54
13, 335104, Note_on_c, 14, 62, 0
13, 335360, Note_on_c, 14, 59, 56
13, 335616, Note_on_c, 14, 59, 0
13, 335872, Note_on_c, 14, 59, 57
13, 336128, Note_on_c, 14, 59, 0
13, 336384, Note_on_c, 14, 64, 58
13, 336640, Note_on_c, 14, 64, 0
13, 336640, Note_on_c, 14, 66, 59
13, 336896, Note_on_c, 14, 66, 0
13, 336896, Note_on_c, 14, 67, 59
13, 337408, Note_on_c, 14, 67, 0
13, 337408, Note_on_c, 14, 55, 60
13, 338176, Note_on_c, 14, 55, 0
13, 338432, Note_on_c, 14, 52, 62
13, 338688, Note_on_c, 14, 52, 0
13, 338944, Note_on_c, 14, 52, 63
13, 339200, Note_on_c, 14, 52, 0
13, 339456, Note_on_c, 14, 57, 64
13, 339712, Note_on_c, 14, 57, 0
13, 339968, Note_on_c, 14, 59, 67
13, 340224, Note_on_c, 14, 59, 0
13, 340224, Note_on_c, 14, 61, 68
13, 340480, Note_on_c, 14, 61, 0
13, 340480, Note_on_c, 14, 62, 69
13, 340736, Note_on_c, 14, 62, 0
13, 340736, Note_on_c, 14, 59, 71
13, 340992, Note_on_c, 14, 59, 0
13, 340992, Note_on_c, 14, 55, 72
13, 341248, Note_on_c, 14, 55, 0
13, 341248, Note_on_c, 14, 59, 74
13, 341504, Note_on_c, 14, 59, 0
13, 341504, Note_on_c, 14, 61, 75
13, 341760, Note_on_c, 14, 61, 0
13, 341760, Note_on_c, 14, 62, 76
13, 342016, Note_on_c, 14, 62, 0
13, 342016, Note_on_c, 14, 64, 78
13, 342272, Note_on_c, 14, 64, 0
13, 342272, Note_on_c, 14, 66, 79
13, 342528, Note_on_c, 14, 66, 0
13, 342528, Note_on_c, 14, 64, 80
13, 342784, Note_on_c, 14, 64, 0
13, 342784, Note_on_c, 14, 62, 82
13, 343040, Note_on_c, 14, 62, 0
13, 343040, Note_on_c, 14, 64, 83
13, 343552, Note_on_c, 14, 64, 0
13, 343552, Note_on_c, 14, 61, 86
13, 344064, Note_on_c, 14, 61, 0
13, 344064, Note_on_c, 14, 57, 89
13, 344320, Note_on_c, 14, 57, 0
13, 344576, Note_on_c, 14, 57, 91
13, 344832, Note_on_c, 14, 57, 0
13, 345088, Note_on_c, 14, 57, 94
13, 345344, Note_on_c, 14, 57, 0
13, 345600, Note_on_c, 14, 57, 96
13, 345856, Note_on_c, 14, 57, 0
13, 346112, Note_on_c, 14, 61, 99
13, 346368, Note_on_c, 14, 61, 0
13, 347136, Note_on_c, 14, 62, 103
13, 347392, Note_on_c, 14, 62, 0
13, 347648, Note_on_c, 14, 62, 98
13, 347904, Note_on_c, 14, 62, 0
13, 348160, Note_on_c, 14, 62, 98
13, 348416, Note_on_c, 14, 62, 0
13, 348672, Note_on_c, 14, 62, 98
13, 348928, Note_on_c, 14, 62, 0
13, 349184, Note_on_c, 14, 62, 98
13, 349440, Note_on_c, 14, 62, 0
13, 349696, Note_on_c, 14, 61, 98
13, 349952, Note_on_c, 14, 61, 0
13, 349952, Note_on_c, 14, 59, 98
13, 350208, Note_on_c, 14, 59, 0
13, 350208, Note_on_c, 14, 64, 98
13, 351232, Note_on_c, 14, 64, 0
13, 351232, Note_on_c, 14, 52, 98
13, 351488, Note_on_c, 14, 52, 0
13, 351744, Note_on_c, 14, 52, 97
13, 352256, Note_on_c, 14, 52, 0
13, 352256, Note_on_c, 14, 61, 99
13, 352512, Note_on_c, 14, 61, 0
13, 352768, Note_on_c, 14, 62, 98
13, 353024, Note_on_c, 14, 62, 0
13, 353280, Note_on_c, 14, 57, 95
13, 353536, Note_on_c, 14, 57, 0
13, 353792, Note_on_c, 14, 57, 89
13, 354816, Note_on_c, 14, 57, 0
13, 354816, Note_on_c, 14, 57, 59
13, 355072, Note_on_c, 14, 57, 0
13, 355328, Note_on_c, 14, 57, 61
13, 355840, Note_on_c, 14, 57, 0
13, 355840, Note_on_c, 14, 62, 63
13, 356608, Note_on_c, 14, 62, 0
13, 356864, Note_on_c, 14, 59, 67
13, 357120, Note_on_c, 14, 59, 0
13, 357376, Note_on_c, 14, 64, 70
13, 357632, Note_on_c, 14, 64, 0
13, 357888, Note_on_c, 14, 64, 72
13, 358400, Note_on_c, 14, 64, 0
13, 358400, Note_on_c, 14, 61, 74
13, 358656, Note_on_c, 14, 61, 0
13, 358912, Note_on_c, 14, 66, 76
13, 359168, Note_on_c, 14, 66, 0
13, 359424, Note_on_c, 14, 66, 78
13, 359936, Note_on_c, 14, 66, 0
13, 359936, Note_on_c, 14, 62, 80
13, 360448, Note_on_c, 14, 62, 0
13, 360448, Note_on_c, 14, 67, 82
13, 361216, Note_on_c, 14, 67, 0
13, 361472, Note_on_c, 14, 64, 86
13, 361728, Note_on_c, 14, 64, 0
13, 361984, Note_on_c, 14, 61, 89
13, 362240, Note_on_c, 14, 61, 0
13, 362496, Note_on_c, 14, 62, 91
13, 362752, Note_on_c, 14, 62, 0
13, 363008, Note_on_c, 14, 57, 93
13, 363264, Note_on_c, 14, 57, 0
13, 363520, Note_on_c, 14, 57, 95
13, 363776, Note_on_c, 14, 57, 0
13, 364032, Note_on_c, 14, 57, 102
13, 369664, Note_on_c, 14, 57, 0
13, 369664, Note_on_c, 14, 57, 110
13, 369920, Note_on_c, 14, 57, 0
13, 370176, Note_on_c, 14, 61, 111
13, 370432, Note_on_c, 14, 61, 0
13, 370688, Note_on_c, 14, 61, 111
13, 370944, Note_on_c, 14, 61, 0
13, 371200, Note_on_c, 14, 66, 112
13, 371456, Note_on_c, 14, 66, 0
13, 371712, Note_on_c, 14, 62, 113
13, 371968, Note_on_c, 14, 62, 0
13, 372224, Note_on_c, 14, 62, 114
13, 372480, Note_on_c, 14, 62, 0
13, 372736, Note_on_c, 14, 59, 114
13, 372992, Note_on_c, 14, 59, 0
13, 373248, Note_on_c, 14, 55, 115
13, 373760, Note_on_c, 14, 55, 0
13, 373760, Note_on_c, 14, 59, 116
13, 374016, Note_on_c, 14, 59, 0
13, 374272, Note_on_c, 14, 64, 117
13, 374528, Note_on_c, 14, 64, 0
13, 374784, Note_on_c, 14, 64, 117
13, 375808, Note_on_c, 14, 64, 0
13, 375808, Note_on_c, 14, 62, 119
13, 376064, Note_on_c, 14, 62, 0
13, 376320, Note_on_c, 14, 59, 120
13, 376576, Note_on_c, 14, 59, 0
13, 376832, Note_on_c, 14, 64, 121
13, 377344, Note_on_c, 14, 64, 0
13, 377344, Note_on_c, 14, 57, 122
13, 377600, Note_on_c, 14, 57, 0
13, 377856, Note_on_c, 14, 57, 123
13, 379392, Control_c, 14, 121, 127
13, 379392, Note_on_c, 14, 57, 0
13, 379392, End_track
14, 0, Start_track
14, 0, Title_t, "Bass"
14, 0, Program_c, 15, 52
14, 0, Control_c, 15, 121, 127
14, 0, Control_c, 15, 91, 127
14, 0, Control_c, 15, 1, 10
14, 0, Control_c, 15, 10, 120
14, 1024, Note_on_c, 15, 62, 108
14, 1894, Note_on_c, 15, 62, 0
14, 2048, Note_on_c, 15, 50, 106
14, 2918, Note_on_c, 15, 50, 0
14, 5120, Note_on_c, 15, 62, 109
14, 5990, Note_on_c, 15, 62, 0
14, 6144, Note_on_c, 15, 50, 107
14, 7014, Note_on_c, 15, 50, 0
14, 9216, Note_on_c, 15, 62, 107
14, 10086, Note_on_c, 15, 62, 0
14, 10240, Note_on_c, 15, 50, 105
14, 11110, Note_on_c, 15, 50, 0
14, 17408, Note_on_c, 15, 62, 99
14, 18278, Note_on_c, 15, 62, 0
14, 18432, Note_on_c, 15, 50, 97
14, 19302, Note_on_c, 15, 50, 0
14, 19456, Note_on_c, 15, 61, 97
14, 20037, Note_on_c, 15, 61, 0
14, 20139, Note_on_c, 15, 61, 97
14, 20480, Note_on_c, 15, 61, 0
14, 20480, Note_on_c, 15, 49, 97
14, 21350, Note_on_c, 15, 49, 0
14, 21504, Note_on_c, 15, 59, 97
14, 22374, Note_on_c, 15, 59, 0
14, 22528, Note_on_c, 15, 52, 97
14, 23398, Note_on_c, 15, 52, 0
14, 23552, Note_on_c, 15, 57, 98
14, 24133, Note_on_c, 15, 57, 0
14, 24235, Note_on_c, 15, 57, 101
14, 24576, Note_on_c, 15, 57, 0
14, 24576, Note_on_c, 15, 57, 103
14, 25446, Note_on_c, 15, 57, 0
14, 25600, Note_on_c, 15, 57, 108
14, 26470, Note_on_c, 15, 57, 0
14, 26624, Note_on_c, 15, 45, 105
14, 27494, Note_on_c, 15, 45, 0
14, 29696, Note_on_c, 15, 57, 106
14, 30566, Note_on_c, 15, 57, 0
14, 30720, Note_on_c, 15, 45, 104
14, 31590, Note_on_c, 15, 45, 0
14, 33792, Note_on_c, 15, 57, 106
14, 34662, Note_on_c, 15, 57, 0
14, 34816, Note_on_c, 15, 45, 100
14, 35686, Note_on_c, 15, 45, 0
14, 41984, Note_on_c, 15, 57, 97
14, 42854, Note_on_c, 15, 57, 0
14, 43008, Note_on_c, 15, 45, 96
14, 43878, Note_on_c, 15, 45, 0
14, 44032, Note_on_c, 15, 59, 96
14, 44613, Note_on_c, 15, 59, 0
14, 44715, Note_on_c, 15, 59, 96
14, 45056, Note_on_c, 15, 59, 0
14, 45056, Note_on_c, 15, 47, 96
14, 45926, Note_on_c, 15, 47, 0
14, 46080, Note_on_c, 15, 61, 96
14, 46950, Note_on_c, 15, 61, 0
14, 47104, Note_on_c, 15, 57, 96
14, 47974, Note_on_c, 15, 57, 0
14, 48128, Note_on_c, 15, 62, 96
14, 48709, Note_on_c, 15, 62, 0
14, 48811, Note_on_c, 15, 62, 99
14, 49152, Note_on_c, 15, 62, 0
14, 49152, Note_on_c, 15, 62, 101
14, 50022, Note_on_c, 15, 62, 0
14, 50176, Note_on_c, 15, 62, 106
14, 51046, Note_on_c, 15, 62, 0
14, 51200, Note_on_c, 15, 50, 104
14, 52070, Note_on_c, 15, 50, 0
14, 54272, Note_on_c, 15, 62, 104
14, 55142, Note_on_c, 15, 62, 0
14, 55296, Note_on_c, 15, 50, 103
14, 56166, Note_on_c, 15, 50, 0
14, 58368, Note_on_c, 15, 62, 104
14, 59238, Note_on_c, 15, 62, 0
14, 59392, Note_on_c, 15, 50, 102
14, 60262, Note_on_c, 15, 50, 0
14, 66560, Note_on_c, 15, 62, 88
14, 67430, Note_on_c, 15, 62, 0
14, 67584, Note_on_c, 15, 50, 88
14, 68454, Note_on_c, 15, 50, 0
14, 68608, Note_on_c, 15, 61, 88
14, 69189, Note_on_c, 15, 61, 0
14, 69291, Note_on_c, 15, 61, 88
14, 69632, Note_on_c, 15, 61, 0
14, 69632, Note_on_c, 15, 49, 88
14, 70502, Note_on_c, 15, 49, 0
14, 70656, Note_on_c, 15, 59, 88
14, 71526, Note_on_c, 15, 59, 0
14, 71680, Note_on_c, 15, 47, 88
14, 72550, Note_on_c, 15, 47, 0
14, 72704, Note_on_c, 15, 58, 88
14, 73285, Note_on_c, 15, 58, 0
14, 73387, Note_on_c, 15, 58, 91
14, 73728, Note_on_c, 15, 58, 0
14, 73728, Note_on_c, 15, 58, 93
14, 74598, Note_on_c, 15, 58, 0
14, 74752, Note_on_c, 15, 59, 100
14, 75622, Note_on_c, 15, 59, 0
14, 75776, Note_on_c, 15, 47, 97
14, 76646, Note_on_c, 15, 47, 0
14, 76800, Note_on_c, 15, 57, 99
14, 77381, Note_on_c, 15, 57, 0
14, 77483, Note_on_c, 15, 57, 99
14, 77824, Note_on_c, 15, 57, 0
14, 77824, Note_on_c, 15, 45, 99
14, 78694, Note_on_c, 15, 45, 0
14, 78848, Note_on_c, 15, 55, 99
14, 79718, Note_on_c, 15, 55, 0
14, 79872, Note_on_c, 15, 43, 99
14, 80742, Note_on_c, 15, 43, 0
14, 80896, Note_on_c, 15, 54, 99
14, 81477, Note_on_c, 15, 54, 0
14, 81579, Note_on_c, 15, 54, 94
14, 81920, Note_on_c, 15, 54, 0
14, 81920, Note_on_c, 15, 54, 90
14, 82790, Note_on_c, 15, 54, 0
14, 82944, Note_on_c, 15, 55, 80
14, 83814, Note_on_c, 15, 55, 0
14, 83968, Note_on_c, 15, 43, 80
14, 84838, Note_on_c, 15, 43, 0
14, 84992, Note_on_c, 15, 54, 80
14, 85573, Note_on_c, 15, 54, 0
14, 85675, Note_on_c, 15, 54, 80
14, 86016, Note_on_c, 15, 54, 0
14, 86016, Note_on_c, 15, 42, 80
14, 86886, Note_on_c, 15, 42, 0
14, 87040, Note_on_c, 15, 52, 80
14, 87910, Note_on_c, 15, 52, 0
14, 88064, Note_on_c, 15, 40, 80
14, 88934, Note_on_c, 15, 40, 0
14, 89088, Note_on_c, 15, 51, 80
14, 89669, Note_on_c, 15, 51, 0
14, 89771, Note_on_c, 15, 51, 73
14, 90112, Note_on_c, 15, 51, 0
14, 90112, Note_on_c, 15, 51, 69
14, 90982, Note_on_c, 15, 51, 0
14, 91136, Note_on_c, 15, 64, 55
14, 92006, Note_on_c, 15, 64, 0
14, 92160, Note_on_c, 15, 52, 49
14, 93030, Note_on_c, 15, 52, 0
14, 93184, Note_on_c, 15, 62, 49
14, 93765, Note_on_c, 15, 62, 0
14, 93867, Note_on_c, 15, 62, 49
14, 94208, Note_on_c, 15, 62, 0
14, 94208, Note_on_c, 15, 50, 49
14, 95078, Note_on_c, 15, 50, 0
14, 95232, Note_on_c, 15, 61, 49
14, 96102, Note_on_c, 15, 61, 0
14, 96256, Note_on_c, 15, 54, 49
14, 97126, Note_on_c, 15, 54, 0
14, 97280, Note_on_c, 15, 59, 48
14, 97861, Note_on_c, 15, 59, 0
14, 97963, Note_on_c, 15, 59, 46
14, 98304, Note_on_c, 15, 59, 0
14, 98304, Note_on_c, 15, 59, 44
14, 99174, Note_on_c, 15, 59, 0
14, 99328, Note_on_c, 15, 55, 40
14, 99669, Note_on_c, 15, 55, 0
14, 99669, Note_on_c, 15, 54, 40
14, 100011, Note_on_c, 15, 54, 0
14, 100011, Note_on_c, 15, 55, 40
14, 100352, Note_on_c, 15, 55, 0
14, 100352, Note_on_c, 15, 59, 40
14, 100693, Note_on_c, 15, 59, 0
14, 100693, Note_on_c, 15, 57, 40
14, 101035, Note_on_c, 15, 57, 0
14, 101035, Note_on_c, 15, 59, 40
14, 101376, Note_on_c, 15, 59, 0
14, 101376, Note_on_c, 15, 64, 40
14, 102246, Note_on_c, 15, 64, 0
14, 102400, Note_on_c, 15, 55, 40
14, 103270, Note_on_c, 15, 55, 0
14, 103424, Note_on_c, 15, 57, 40
14, 104294, Note_on_c, 15, 57, 0
14, 104448, Note_on_c, 15, 52, 40
14, 105318, Note_on_c, 15, 52, 0
14, 105472, Note_on_c, 15, 52, 40
14, 105813, Note_on_c, 15, 52, 0
14, 105813, Note_on_c, 15, 54, 40
14, 106155, Note_on_c, 15, 54, 0
14, 106155, Note_on_c, 15, 52, 40
14, 106496, Note_on_c, 15, 52, 0
14, 106496, Note_on_c, 15, 61, 40
14, 106837, Note_on_c, 15, 61, 0
14, 106837, Note_on_c, 15, 62, 40
14, 107179, Note_on_c, 15, 62, 0
14, 107179, Note_on_c, 15, 61, 40
14, 107520, Note_on_c, 15, 61, 0
14, 107520, Note_on_c, 15, 57, 40
14, 107861, Note_on_c, 15, 57, 0
14, 107861, Note_on_c, 15, 55, 40
14, 108203, Note_on_c, 15, 55, 0
14, 108203, Note_on_c, 15, 57, 40
14, 108544, Note_on_c, 15, 57, 0
14, 108544, Note_on_c, 15, 60, 40
14, 108885, Note_on_c, 15, 60, 0
14, 108885, Note_on_c, 15, 59, 40
14, 109227, Note_on_c, 15, 59, 0
14, 109227, Note_on_c, 15, 60, 40
14, 109568, Note_on_c, 15, 60, 0
14, 109568, Note_on_c, 15, 54, 40
14, 110438, Note_on_c, 15, 54, 0
14, 110592, Note_on_c, 15, 50, 40
14, 111462, Note_on_c, 15, 50, 0
14, 111616, Note_on_c, 15, 55, 40
14, 112486, Note_on_c, 15, 55, 0
14, 112640, Note_on_c, 15, 43, 41
14, 113510, Note_on_c, 15, 43, 0
14, 113664, Note_on_c, 15, 54, 43
14, 114245, Note_on_c, 15, 54, 0
14, 114347, Note_on_c, 15, 54, 44
14, 114688, Note_on_c, 15, 54, 0
14, 114688, Note_on_c, 15, 42, 45
14, 115558, Note_on_c, 15, 42, 0
14, 115712, Note_on_c, 15, 52, 46
14, 116582, Note_on_c, 15, 52, 0
14, 116736, Note_on_c, 15, 45, 48
14, 117606, Note_on_c, 15, 45, 0
14, 117760, Note_on_c, 15, 50, 50
14, 118341, Note_on_c, 15, 50, 0
14, 118443, Note_on_c, 15, 50, 51
14, 118784, Note_on_c, 15, 50, 0
14, 118784, Note_on_c, 15, 50, 51
14, 119654, Note_on_c, 15, 50, 0
14, 126976, Note_on_c, 15, 57, 52
14, 128341, Note_on_c, 15, 57, 0
14, 128341, Note_on_c, 15, 59, 52
14, 128683, Note_on_c, 15, 59, 0
14, 128683, Note_on_c, 15, 57, 52
14, 129024, Note_on_c, 15, 57, 0
14, 129024, Note_on_c, 15, 55, 52
14, 129365, Note_on_c, 15, 55, 0
14, 129365, Note_on_c, 15, 57, 52
14, 129707, Note_on_c, 15, 57, 0
14, 129707, Note_on_c, 15, 54, 52
14, 130048, Note_on_c, 15, 54, 0
14, 130048, Note_on_c, 15, 52, 52
14, 130918, Note_on_c, 15, 52, 0
14, 131072, Note_on_c, 15, 45, 61
14, 131942, Note_on_c, 15, 45, 0
14, 132096, Note_on_c, 15, 62, 72
14, 132966, Note_on_c, 15, 62, 0
14, 133120, Note_on_c, 15, 50, 75
14, 133990, Note_on_c, 15, 50, 0
14, 134144, Note_on_c, 15, 64, 78
14, 134725, Note_on_c, 15, 64, 0
14, 134827, Note_on_c, 15, 64, 80
14, 135168, Note_on_c, 15, 64, 0
14, 135168, Note_on_c, 15, 52, 81
14, 136038, Note_on_c, 15, 52, 0
14, 136192, Note_on_c, 15, 54, 83
14, 137062, Note_on_c, 15, 54, 0
14, 137216, Note_on_c, 15, 42, 86
14, 138086, Note_on_c, 15, 42, 0
14, 138240, Note_on_c, 15, 56, 89
14, 138821, Note_on_c, 15, 56, 0
14, 138923, Note_on_c, 15, 56, 91
14, 139264, Note_on_c, 15, 56, 0
14, 139264, Note_on_c, 15, 56, 92
14, 140134, Note_on_c, 15, 56, 0
14, 140288, Note_on_c, 15, 57, 94
14, 141158, Note_on_c, 15, 57, 0
14, 141312, Note_on_c, 15, 45, 95
14, 142182, Note_on_c, 15, 45, 0
14, 142336, Note_on_c, 15, 56, 94
14, 142917, Note_on_c, 15, 56, 0
14, 143019, Note_on_c, 15, 56, 94
14, 143360, Note_on_c, 15, 56, 0
14, 143360, Note_on_c, 15, 44, 94
14, 144230, Note_on_c, 15, 44, 0
14, 144384, Note_on_c, 15, 54, 94
14, 145254, Note_on_c, 15, 54, 0
14, 145408, Note_on_c, 15, 42, 94
14, 146278, Note_on_c, 15, 42, 0
14, 146432, Note_on_c, 15, 53, 94
14, 147013, Note_on_c, 15, 53, 0
14, 147115, Note_on_c, 15, 53, 94
14, 147456, Note_on_c, 15, 53, 0
14, 147456, Note_on_c, 15, 53, 94
14, 148326, Note_on_c, 15, 53, 0
14, 148480, Note_on_c, 15, 54, 94
14, 149350, Note_on_c, 15, 54, 0
14, 149504, Note_on_c, 15, 42, 93
14, 150374, Note_on_c, 15, 42, 0
14, 150528, Note_on_c, 15, 52, 94
14, 151109, Note_on_c, 15, 52, 0
14, 151211, Note_on_c, 15, 52, 94
14, 151552, Note_on_c, 15, 52, 0
14, 151552, Note_on_c, 15, 52, 94
14, 152422, Note_on_c, 15, 52, 0
14, 152576, Note_on_c, 15, 62, 94
14, 153446, Note_on_c, 15, 62, 0
14, 153600, Note_on_c, 15, 50, 94
14, 154470, Note_on_c, 15, 50, 0
14, 154624, Note_on_c, 15, 61, 94
14, 155205, Note_on_c, 15, 61, 0
14, 155307, Note_on_c, 15, 61, 94
14, 155648, Note_on_c, 15, 61, 0
14, 155648, Note_on_c, 15, 61, 94
14, 156518, Note_on_c, 15, 61, 0
14, 156672, Note_on_c, 15, 62, 94
14, 157542, Note_on_c, 15, 62, 0
14, 157696, Note_on_c, 15, 50, 94
14, 158566, Note_on_c, 15, 50, 0
14, 158720, Note_on_c, 15, 61, 94
14, 159301, Note_on_c, 15, 61, 0
14, 159403, Note_on_c, 15, 61, 94
14, 159744, Note_on_c, 15, 61, 0
14, 159744, Note_on_c, 15, 49, 94
14, 160614, Note_on_c, 15, 49, 0
14, 160768, Note_on_c, 15, 59, 94
14, 161638, Note_on_c, 15, 59, 0
14, 161792, Note_on_c, 15, 47, 90
14, 162662, Note_on_c, 15, 47, 0
14, 162816, Note_on_c, 15, 58, 84
14, 163397, Note_on_c, 15, 58, 0
14, 163499, Note_on_c, 15, 58, 77
14, 163840, Note_on_c, 15, 58, 0
14, 163840, Note_on_c, 15, 58, 73
14, 164710, Note_on_c, 15, 58, 0
14, 164864, Note_on_c, 15, 62, 58
14, 165734, Note_on_c, 15, 62, 0
14, 165888, Note_on_c, 15, 59, 58
14, 166758, Note_on_c, 15, 59, 0
14, 166912, Note_on_c, 15, 59, 58
14, 167253, Note_on_c, 15, 59, 0
14, 167253, Note_on_c, 15, 58, 58
14, 167595, Note_on_c, 15, 58, 0
14, 167595, Note_on_c, 15, 59, 58
14, 167936, Note_on_c, 15, 59, 0
14, 167936, Note_on_c, 15, 62, 58
14, 168277, Note_on_c, 15, 62, 0
14, 168277, Note_on_c, 15, 64, 58
14, 168619, Note_on_c, 15, 64, 0
14, 168619, Note_on_c, 15, 62, 58
14, 168960, Note_on_c, 15, 62, 0
14, 168960, Note_on_c, 15, 59, 58
14, 169301, Note_on_c, 15, 59, 0
14, 169301, Note_on_c, 15, 57, 58
14, 169643, Note_on_c, 15, 57, 0
14, 169643, Note_on_c, 15, 59, 58
14, 169984, Note_on_c, 15, 59, 0
14, 169984, Note_on_c, 15, 62, 58
14, 170325, Note_on_c, 15, 62, 0
14, 170325, Note_on_c, 15, 61, 58
14, 170667, Note_on_c, 15, 61, 0
14, 170667, Note_on_c, 15, 62, 58
14, 171008, Note_on_c, 15, 62, 0
14, 171008, Note_on_c, 15, 59, 58
14, 171878, Note_on_c, 15, 59, 0
14, 172032, Note_on_c, 15, 52, 58
14, 172902, Note_on_c, 15, 52, 0
14, 173056, Note_on_c, 15, 52, 58
14, 173926, Note_on_c, 15, 52, 0
14, 174080, Note_on_c, 15, 49, 58
14, 174950, Note_on_c, 15, 49, 0
14, 175104, Note_on_c, 15, 57, 58
14, 175445, Note_on_c, 15, 57, 0
14, 175445, Note_on_c, 15, 55, 58
14, 175787, Note_on_c, 15, 55, 0
14, 175787, Note_on_c, 15, 57, 58
14, 176128, Note_on_c, 15, 57, 0
14, 176128, Note_on_c, 15, 61, 58
14, 176469, Note_on_c, 15, 61, 0
14, 176469, Note_on_c, 15, 62, 58
14, 176811, Note_on_c, 15, 62, 0
14, 176811, Note_on_c, 15, 61, 58
14, 177152, Note_on_c, 15, 61, 0
14, 177152, Note_on_c, 15, 62, 64
14, 177493, Note_on_c, 15, 62, 0
14, 177493, Note_on_c, 15, 61, 59
14, 177835, Note_on_c, 15, 61, 0
14, 177835, Note_on_c, 15, 62, 61
14, 178176, Note_on_c, 15, 62, 0
14, 178176, Note_on_c, 15, 56, 62
14, 178517, Note_on_c, 15, 56, 0
14, 178517, Note_on_c, 15, 57, 63
14, 178859, Note_on_c, 15, 57, 0
14, 178859, Note_on_c, 15, 59, 64
14, 179200, Note_on_c, 15, 59, 0
14, 179200, Note_on_c, 15, 49, 66
14, 179541, Note_on_c, 15, 49, 0
14, 179541, Note_on_c, 15, 51, 67
14, 179883, Note_on_c, 15, 51, 0
14, 179883, Note_on_c, 15, 53, 68
14, 180224, Note_on_c, 15, 53, 0
14, 180224, Note_on_c, 15, 54, 69
14, 180565, Note_on_c, 15, 54, 0
14, 180565, Note_on_c, 15, 56, 70
14, 180907, Note_on_c, 15, 56, 0
14, 180907, Note_on_c, 15, 57, 72
14, 181248, Note_on_c, 15, 57, 0
14, 181248, Note_on_c, 15, 59, 73
14, 181589, Note_on_c, 15, 59, 0
14, 181589, Note_on_c, 15, 57, 74
14, 181931, Note_on_c, 15, 57, 0
14, 181931, Note_on_c, 15, 59, 75
14, 182272, Note_on_c, 15, 59, 0
14, 182272, Note_on_c, 15, 52, 76
14, 182613, Note_on_c, 15, 52, 0
14, 182613, Note_on_c, 15, 54, 78
14, 182955, Note_on_c, 15, 54, 0
14, 182955, Note_on_c, 15, 56, 79
14, 183296, Note_on_c, 15, 56, 0
14, 183296, Note_on_c, 15, 45, 80
14, 183637, Note_on_c, 15, 45, 0
14, 183637, Note_on_c, 15, 47, 81
14, 183979, Note_on_c, 15, 47, 0
14, 183979, Note_on_c, 15, 49, 83
14, 184320, Note_on_c, 15, 49, 0
14, 184320, Note_on_c, 15, 50, 84
14, 184661, Note_on_c, 15, 50, 0
14, 184661, Note_on_c, 15, 52, 85
14, 185003, Note_on_c, 15, 52, 0
14, 185003, Note_on_c, 15, 54, 86
14, 185344, Note_on_c, 15, 54, 0
14, 185344, Note_on_c, 15, 56, 87
14, 185685, Note_on_c, 15, 56, 0
14, 185685, Note_on_c, 15, 54, 88
14, 186027, Note_on_c, 15, 54, 0
14, 186027, Note_on_c, 15, 56, 89
14, 186368, Note_on_c, 15, 56, 0
14, 186368, Note_on_c, 15, 49, 90
14, 186709, Note_on_c, 15, 49, 0
14, 186709, Note_on_c, 15, 51, 90
14, 187051, Note_on_c, 15, 51, 0
14, 187051, Note_on_c, 15, 53, 91
14, 187392, Note_on_c, 15, 53, 0
14, 187392, Note_on_c, 15, 54, 92
14, 187733, Note_on_c, 15, 54, 0
14, 187733, Note_on_c, 15, 56, 92
14, 188075, Note_on_c, 15, 56, 0
14, 188075, Note_on_c, 15, 57, 93
14, 188416, Note_on_c, 15, 57, 0
14, 188416, Note_on_c, 15, 59, 94
14, 188757, Note_on_c, 15, 59, 0
14, 188757, Note_on_c, 15, 61, 95
14, 189099, Note_on_c, 15, 61, 0
14, 189099, Note_on_c, 15, 62, 95
14, 189440, Note_on_c, 15, 62, 0
14, 189440, Note_on_c, 15, 53, 96
14, 190464, Note_on_c, 15, 53, 0
14, 190464, Note_on_c, 15, 54, 98
14, 191334, Note_on_c, 15, 54, 0
14, 191488, Note_on_c, 15, 61, 100
14, 192512, Note_on_c, 15, 61, 0
14, 192512, Note_on_c, 15, 49, 100
14, 193536, Note_on_c, 15, 49, 0
14, 193536, Note_on_c, 15, 54, 100
14, 193792, Note_on_c, 15, 54, 0
14, 230400, Note_on_c, 15, 45, 100
14, 230656, Note_on_c, 15, 45, 0
14, 230912, Note_on_c, 15, 45, 96
14, 231168, Note_on_c, 15, 45, 0
14, 231424, Note_on_c, 15, 45, 96
14, 231680, Note_on_c, 15, 45, 0
14, 231936, Note_on_c, 15, 54, 101
14, 232192, Note_on_c, 15, 54, 0
14, 232448, Note_on_c, 15, 54, 96
14, 232704, Note_on_c, 15, 54, 0
14, 232960, Note_on_c, 15, 54, 96
14, 233216, Note_on_c, 15, 54, 0
14, 233472, Note_on_c, 15, 47, 100
14, 233984, Note_on_c, 15, 47, 0
14, 233984, Note_on_c, 15, 47, 96
14, 234240, Note_on_c, 15, 47, 0
14, 234496, Note_on_c, 15, 49, 96
14, 234752, Note_on_c, 15, 49, 0
14, 234752, Note_on_c, 15, 50, 96
14, 235008, Note_on_c, 15, 50, 0
14, 235008, Note_on_c, 15, 52, 96
14, 235264, Note_on_c, 15, 52, 0
14, 235264, Note_on_c, 15, 54, 96
14, 235520, Note_on_c, 15, 54, 0
14, 235520, Note_on_c, 15, 55, 96
14, 235776, Note_on_c, 15, 55, 0
14, 235776, Note_on_c, 15, 54, 96
14, 236032, Note_on_c, 15, 54, 0
14, 236032, Note_on_c, 15, 52, 96
14, 236288, Note_on_c, 15, 52, 0
14, 236288, Note_on_c, 15, 50, 96
14, 236544, Note_on_c, 15, 50, 0
14, 236544, Note_on_c, 15, 49, 96
14, 236800, Note_on_c, 15, 49, 0
14, 237056, Note_on_c, 15, 47, 96
14, 237312, Note_on_c, 15, 47, 0
14, 237312, Note_on_c, 15, 45, 96
14, 237568, Note_on_c, 15, 45, 0
14, 237568, Note_on_c, 15, 50, 96
14, 238336, Note_on_c, 15, 50, 0
14, 238336, Note_on_c, 15, 52, 96
14, 238592, Note_on_c, 15, 52, 0
14, 238592, Note_on_c, 15, 49, 96
14, 239360, Note_on_c, 15, 49, 0
14, 239360, Note_on_c, 15, 50, 96
14, 239616, Note_on_c, 15, 50, 0
14, 239616, Note_on_c, 15, 50, 95
14, 239872, Note_on_c, 15, 50, 0
14, 240128, Note_on_c, 15, 50, 52
14, 240384, Note_on_c, 15, 50, 0
14, 240384, Note_on_c, 15, 52, 52
14, 240640, Note_on_c, 15, 52, 0
14, 240640, Note_on_c, 15, 54, 52
14, 240896, Note_on_c, 15, 54, 0
14, 240896, Note_on_c, 15, 50, 52
14, 241152, Note_on_c, 15, 50, 0
14, 241152, Note_on_c, 15, 57, 57
14, 241408, Note_on_c, 15, 57, 0
14, 241664, Note_on_c, 15, 57, 52
14, 241920, Note_on_c, 15, 57, 0
14, 242176, Note_on_c, 15, 57, 52
14, 242432, Note_on_c, 15, 57, 0
14, 242688, Note_on_c, 15, 62, 57
14, 242944, Note_on_c, 15, 62, 0
14, 243200, Note_on_c, 15, 57, 52
14, 243456, Note_on_c, 15, 57, 0
14, 243712, Note_on_c, 15, 57, 52
14, 243968, Note_on_c, 15, 57, 0
14, 244224, Note_on_c, 15, 54, 52
14, 244480, Note_on_c, 15, 54, 0
14, 244480, Note_on_c, 15, 52, 52
14, 244736, Note_on_c, 15, 52, 0
14, 244736, Note_on_c, 15, 50, 52
14, 244992, Note_on_c, 15, 50, 0
14, 244992, Note_on_c, 15, 52, 52
14, 245248, Note_on_c, 15, 52, 0
14, 245248, Note_on_c, 15, 54, 52
14, 245504, Note_on_c, 15, 54, 0
14, 245504, Note_on_c, 15, 50, 52
14, 245760, Note_on_c, 15, 50, 0
14, 245760, Note_on_c, 15, 57, 82
14, 246016, Note_on_c, 15, 57, 0
14, 246272, Note_on_c, 15, 45, 82
14, 246528, Note_on_c, 15, 45, 0
14, 247808, Note_on_c, 15, 52, 82
14, 248064, Note_on_c, 15, 52, 0
14, 248064, Note_on_c, 15, 54, 69
14, 248320, Note_on_c, 15, 54, 0
14, 248320, Note_on_c, 15, 55, 52
14, 248576, Note_on_c, 15, 55, 0
14, 248576, Note_on_c, 15, 52, 52
14, 248832, Note_on_c, 15, 52, 0
14, 248832, Note_on_c, 15, 59, 52
14, 249088, Note_on_c, 15, 59, 0
14, 249344, Note_on_c, 15, 59, 52
14, 249600, Note_on_c, 15, 59, 0
14, 249856, Note_on_c, 15, 59, 52
14, 250112, Note_on_c, 15, 59, 0
14, 250368, Note_on_c, 15, 64, 52
14, 250624, Note_on_c, 15, 64, 0
14, 250880, Note_on_c, 15, 59, 52
14, 251136, Note_on_c, 15, 59, 0
14, 251392, Note_on_c, 15, 59, 52
14, 251648, Note_on_c, 15, 59, 0
14, 251904, Note_on_c, 15, 55, 52
14, 252160, Note_on_c, 15, 55, 0
14, 252160, Note_on_c, 15, 54, 52
14, 252416, Note_on_c, 15, 54, 0
14, 252416, Note_on_c, 15, 52, 52
14, 252672, Note_on_c, 15, 52, 0
14, 252672, Note_on_c, 15, 54, 52
14, 252928, Note_on_c, 15, 54, 0
14, 252928, Note_on_c, 15, 55, 52
14, 253184, Note_on_c, 15, 55, 0
14, 253184, Note_on_c, 15, 52, 52
14, 253440, Note_on_c, 15, 52, 0
14, 253440, Note_on_c, 15, 59, 82
14, 253952, Note_on_c, 15, 59, 0
14, 253952, Note_on_c, 15, 47, 82
14, 254208, Note_on_c, 15, 47, 0
14, 255488, Note_on_c, 15, 52, 82
14, 255744, Note_on_c, 15, 52, 0
14, 255744, Note_on_c, 15, 54, 82
14, 256000, Note_on_c, 15, 54, 0
14, 256000, Note_on_c, 15, 55, 82
14, 256256, Note_on_c, 15, 55, 0
14, 256256, Note_on_c, 15, 52, 82
14, 256512, Note_on_c, 15, 52, 0
14, 256512, Note_on_c, 15, 57, 82
14, 256768, Note_on_c, 15, 57, 0
14, 257024, Note_on_c, 15, 57, 82
14, 257280, Note_on_c, 15, 57, 0
14, 257536, Note_on_c, 15, 57, 82
14, 257792, Note_on_c, 15, 57, 0
14, 258048, Note_on_c, 15, 54, 82
14, 258560, Note_on_c, 15, 54, 0
14, 258560, Note_on_c, 15, 54, 82
14, 258816, Note_on_c, 15, 54, 0
14, 259072, Note_on_c, 15, 54, 82
14, 259328, Note_on_c, 15, 54, 0
14, 259584, Note_on_c, 15, 59, 82
14, 259840, Note_on_c, 15, 59, 0
14, 260096, Note_on_c, 15, 55, 82
14, 260352, Note_on_c, 15, 55, 0
14, 260608, Note_on_c, 15, 60, 82
14, 260864, Note_on_c, 15, 60, 0
14, 261120, Note_on_c, 15, 59, 84
14, 261376, Note_on_c, 15, 59, 0
14, 261376, Note_on_c, 15, 57, 85
14, 261632, Note_on_c, 15, 57, 0
14, 261632, Note_on_c, 15, 59, 87
14, 262144, Note_on_c, 15, 59, 0
14, 262144, Note_on_c, 15, 47, 89
14, 262400, Note_on_c, 15, 47, 0
14, 262656, Note_on_c, 15, 52, 95
14, 262912, Note_on_c, 15, 52, 0
14, 266240, Note_on_c, 15, 50, 48
14, 266496, Note_on_c, 15, 50, 0
14, 266496, Note_on_c, 15, 52, 48
14, 266752, Note_on_c, 15, 52, 0
14, 266752, Note_on_c, 15, 54, 48
14, 267008, Note_on_c, 15, 54, 0
14, 267008, Note_on_c, 15, 50, 48
14, 267264, Note_on_c, 15, 50, 0
14, 267264, Note_on_c, 15, 55, 48
14, 267520, Note_on_c, 15, 55, 0
14, 267776, Note_on_c, 15, 43, 48
14, 268032, Note_on_c, 15, 43, 0
14, 272384, Note_on_c, 15, 47, 64
14, 272640, Note_on_c, 15, 47, 0
14, 272640, Note_on_c, 15, 49, 64
14, 272896, Note_on_c, 15, 49, 0
14, 272896, Note_on_c, 15, 50, 64
14, 273152, Note_on_c, 15, 50, 0
14, 273152, Note_on_c, 15, 47, 64
14, 273408, Note_on_c, 15, 47, 0
14, 273408, Note_on_c, 15, 52, 64
14, 273664, Note_on_c, 15, 52, 0
14, 273664, Note_on_c, 15, 50, 64
14, 273920, Note_on_c, 15, 50, 0
14, 273920, Note_on_c, 15, 52, 64
14, 274176, Note_on_c, 15, 52, 0
14, 274176, Note_on_c, 15, 54, 64
14, 274432, Note_on_c, 15, 54, 0
14, 274432, Note_on_c, 15, 52, 64
14, 274688, Note_on_c, 15, 52, 0
14, 274688, Note_on_c, 15, 50, 64
14, 274944, Note_on_c, 15, 50, 0
14, 274944, Note_on_c, 15, 49, 64
14, 275200, Note_on_c, 15, 49, 0
14, 275200, Note_on_c, 15, 47, 64
14, 275456, Note_on_c, 15, 47, 0
14, 275456, Note_on_c, 15, 49, 64
14, 275712, Note_on_c, 15, 49, 0
14, 275712, Note_on_c, 15, 50, 64
14, 275968, Note_on_c, 15, 50, 0
14, 275968, Note_on_c, 15, 52, 64
14, 276224, Note_on_c, 15, 52, 0
14, 276224, Note_on_c, 15, 49, 64
14, 276480, Note_on_c, 15, 49, 0
14, 276480, Note_on_c, 15, 54, 64
14, 276736, Note_on_c, 15, 54, 0
14, 276992, Note_on_c, 15, 52, 64
14, 277248, Note_on_c, 15, 52, 0
14, 277504, Note_on_c, 15, 50, 64
14, 277760, Note_on_c, 15, 50, 0
14, 278016, Note_on_c, 15, 52, 64
14, 278528, Note_on_c, 15, 52, 0
14, 278528, Note_on_c, 15, 54, 64
14, 279040, Note_on_c, 15, 54, 0
14, 279040, Note_on_c, 15, 42, 64
14, 279296, Note_on_c, 15, 42, 0
14, 279552, Note_on_c, 15, 47, 64
14, 279808, Note_on_c, 15, 47, 0
14, 286208, Note_on_c, 15, 54, 42
14, 286464, Note_on_c, 15, 54, 0
14, 286464, Note_on_c, 15, 56, 44
14, 286720, Note_on_c, 15, 56, 0
14, 286720, Note_on_c, 15, 58, 45
14, 286976, Note_on_c, 15, 58, 0
14, 286976, Note_on_c, 15, 54, 47
14, 287232, Note_on_c, 15, 54, 0
14, 287232, Note_on_c, 15, 59, 49
14, 287488, Note_on_c, 15, 59, 0
14, 287744, Note_on_c, 15, 47, 52
14, 288000, Note_on_c, 15, 47, 0
14, 293888, Note_on_c, 15, 57, 88
14, 294144, Note_on_c, 15, 57, 0
14, 294144, Note_on_c, 15, 59, 88
14, 294400, Note_on_c, 15, 59, 0
14, 294400, Note_on_c, 15, 61, 88
14, 294656, Note_on_c, 15, 61, 0
14, 294656, Note_on_c, 15, 57, 88
14, 294912, Note_on_c, 15, 57, 0
14, 294912, Note_on_c, 15, 62, 88
14, 295680, Note_on_c, 15, 62, 0
14, 295680, Note_on_c, 15, 50, 88
14, 295936, Note_on_c, 15, 50, 0
14, 295936, Note_on_c, 15, 50, 88
14, 296192, Note_on_c, 15, 50, 0
14, 298496, Note_on_c, 15, 52, 89
14, 298752, Note_on_c, 15, 52, 0
14, 298752, Note_on_c, 15, 54, 89
14, 299008, Note_on_c, 15, 54, 0
14, 299008, Note_on_c, 15, 55, 90
14, 299264, Note_on_c, 15, 55, 0
14, 299264, Note_on_c, 15, 52, 91
14, 299520, Note_on_c, 15, 52, 0
14, 299520, Note_on_c, 15, 57, 92
14, 300032, Note_on_c, 15, 57, 0
14, 300032, Note_on_c, 15, 54, 93
14, 300288, Note_on_c, 15, 54, 0
14, 300544, Note_on_c, 15, 59, 95
14, 300800, Note_on_c, 15, 59, 0
14, 301056, Note_on_c, 15, 55, 96
14, 301312, Note_on_c, 15, 55, 0
14, 301568, Note_on_c, 15, 57, 98
14, 302080, Note_on_c, 15, 57, 0
14, 302080, Note_on_c, 15, 45, 100
14, 302336, Note_on_c, 15, 45, 0
14, 321024, Note_on_c, 15, 50, 97
14, 321280, Note_on_c, 15, 50, 0
14, 321536, Note_on_c, 15, 50, 90
14, 321792, Note_on_c, 15, 50, 0
14, 322048, Note_on_c, 15, 50, 90
14, 322304, Note_on_c, 15, 50, 0
14, 322560, Note_on_c, 15, 59, 96
14, 322816, Note_on_c, 15, 59, 0
14, 323072, Note_on_c, 15, 59, 90
14, 323328, Note_on_c, 15, 59, 0
14, 323584, Note_on_c, 15, 59, 90
14, 323840, Note_on_c, 15, 59, 0
14, 324096, Note_on_c, 15, 52, 96
14, 324608, Note_on_c, 15, 52, 0
14, 324608, Note_on_c, 15, 52, 90
14, 324864, Note_on_c, 15, 52, 0
14, 325120, Note_on_c, 15, 54, 90
14, 325376, Note_on_c, 15, 54, 0
14, 325376, Note_on_c, 15, 55, 90
14, 325632, Note_on_c, 15, 55, 0
14, 325632, Note_on_c, 15, 57, 91
14, 325888, Note_on_c, 15, 57, 0
14, 325888, Note_on_c, 15, 59, 91
14, 326144, Note_on_c, 15, 59, 0
14, 326144, Note_on_c, 15, 60, 91
14, 326400, Note_on_c, 15, 60, 0
14, 326400, Note_on_c, 15, 59, 92
14, 326656, Note_on_c, 15, 59, 0
14, 326656, Note_on_c, 15, 57, 92
14, 326912, Note_on_c, 15, 57, 0
14, 326912, Note_on_c, 15, 55, 93
14, 327168, Note_on_c, 15, 55, 0
14, 327168, Note_on_c, 15, 54, 93
14, 327424, Note_on_c, 15, 54, 0
14, 327680, Note_on_c, 15, 52, 94
14, 327936, Note_on_c, 15, 52, 0
14, 327936, Note_on_c, 15, 50, 94
14, 328192, Note_on_c, 15, 50, 0
14, 328192, Note_on_c, 15, 55, 95
14, 328960, Note_on_c, 15, 55, 0
14, 328960, Note_on_c, 15, 57, 96
14, 329216, Note_on_c, 15, 57, 0
14, 329216, Note_on_c, 15, 54, 97
14, 329984, Note_on_c, 15, 54, 0
14, 329984, Note_on_c, 15, 55, 98
14, 330240, Note_on_c, 15, 55, 0
14, 330240, Note_on_c, 15, 55, 98
14, 330496, Note_on_c, 15, 55, 0
14, 330752, Note_on_c, 15, 55, 46
14, 332032, Note_on_c, 15, 55, 0
14, 332288, Note_on_c, 15, 54, 49
14, 332544, Note_on_c, 15, 54, 0
14, 332800, Note_on_c, 15, 52, 50
14, 333056, Note_on_c, 15, 52, 0
14, 333312, Note_on_c, 15, 54, 51
14, 335104, Note_on_c, 15, 54, 0
14, 335360, Note_on_c, 15, 52, 56
14, 335616, Note_on_c, 15, 52, 0
14, 335872, Note_on_c, 15, 50, 57
14, 336128, Note_on_c, 15, 50, 0
14, 336384, Note_on_c, 15, 52, 58
14, 338176, Note_on_c, 15, 52, 0
14, 338432, Note_on_c, 15, 50, 62
14, 338688, Note_on_c, 15, 50, 0
14, 338944, Note_on_c, 15, 49, 63
14, 339200, Note_on_c, 15, 49, 0
14, 339456, Note_on_c, 15, 50, 64
14, 341248, Note_on_c, 15, 50, 0
14, 341504, Note_on_c, 15, 49, 75
14, 341760, Note_on_c, 15, 49, 0
14, 342016, Note_on_c, 15, 47, 78
14, 342272, Note_on_c, 15, 47, 0
14, 342528, Note_on_c, 15, 49, 80
14, 342784, Note_on_c, 15, 49, 0
14, 342784, Note_on_c, 15, 47, 82
14, 343040, Note_on_c, 15, 47, 0
14, 343040, Note_on_c, 15, 45, 83
14, 343296, Note_on_c, 15, 45, 0
14, 343296, Note_on_c, 15, 47, 85
14, 343552, Note_on_c, 15, 47, 0
14, 343552, Note_on_c, 15, 49, 86
14, 343808, Note_on_c, 15, 49, 0
14, 343808, Note_on_c, 15, 45, 87
14, 344064, Note_on_c, 15, 45, 0
14, 344064, Note_on_c, 15, 50, 89
14, 344320, Note_on_c, 15, 50, 0
14, 344320, Note_on_c, 15, 49, 90
14, 344576, Note_on_c, 15, 49, 0
14, 344576, Note_on_c, 15, 50, 91
14, 344832, Note_on_c, 15, 50, 0
14, 344832, Note_on_c, 15, 52, 93
14, 345088, Note_on_c, 15, 52, 0
14, 345088, Note_on_c, 15, 54, 94
14, 345344, Note_on_c, 15, 54, 0
14, 345344, Note_on_c, 15, 55, 96
14, 345600, Note_on_c, 15, 55, 0
14, 345600, Note_on_c, 15, 57, 96
14, 345856, Note_on_c, 15, 57, 0
14, 345856, Note_on_c, 15, 55, 97
14, 346112, Note_on_c, 15, 55, 0
14, 346112, Note_on_c, 15, 57, 99
14, 346368, Note_on_c, 15, 57, 0
14, 346368, Note_on_c, 15, 59, 100
14, 346624, Note_on_c, 15, 59, 0
14, 346624, Note_on_c, 15, 61, 101
14, 346880, Note_on_c, 15, 61, 0
14, 346880, Note_on_c, 15, 57, 102
14, 347136, Note_on_c, 15, 57, 0
14, 347136, Note_on_c, 15, 62, 103
14, 347392, Note_on_c, 15, 62, 0
14, 347392, Note_on_c, 15, 64, 98
14, 347648, Note_on_c, 15, 64, 0
14, 347648, Note_on_c, 15, 62, 98
14, 347904, Note_on_c, 15, 62, 0
14, 347904, Note_on_c, 15, 61, 98
14, 348160, Note_on_c, 15, 61, 0
14, 348160, Note_on_c, 15, 59, 98
14, 348416, Note_on_c, 15, 59, 0
14, 348416, Note_on_c, 15, 57, 98
14, 348672, Note_on_c, 15, 57, 0
14, 348672, Note_on_c, 15, 55, 98
14, 348928, Note_on_c, 15, 55, 0
14, 348928, Note_on_c, 15, 57, 98
14, 349184, Note_on_c, 15, 57, 0
14, 349184, Note_on_c, 15, 55, 98
14, 349440, Note_on_c, 15, 55, 0
14, 349440, Note_on_c, 15, 54, 98
14, 349696, Note_on_c, 15, 54, 0
14, 349696, Note_on_c, 15, 52, 98
14, 349952, Note_on_c, 15, 52, 0
14, 349952, Note_on_c, 15, 50, 98
14, 350208, Note_on_c, 15, 50, 0
14, 350208, Note_on_c, 15, 49, 98
14, 350464, Note_on_c, 15, 49, 0
14, 350464, Note_on_c, 15, 50, 98
14, 350720, Note_on_c, 15, 50, 0
14, 350720, Note_on_c, 15, 52, 98
14, 350976, Note_on_c, 15, 52, 0
14, 350976, Note_on_c, 15, 50, 98
14, 351232, Note_on_c, 15, 50, 0
14, 351232, Note_on_c, 15, 49, 98
14, 351488, Note_on_c, 15, 49, 0
14, 351488, Note_on_c, 15, 47, 98
14, 351744, Note_on_c, 15, 47, 0
14, 351744, Note_on_c, 15, 45, 97
14, 352000, Note_on_c, 15, 45, 0
14, 352000, Note_on_c, 15, 52, 98
14, 352256, Note_on_c, 15, 52, 0
14, 352256, Note_on_c, 15, 57, 99
14, 352512, Note_on_c, 15, 57, 0
14, 352512, Note_on_c, 15, 55, 99
14, 352768, Note_on_c, 15, 55, 0
14, 352768, Note_on_c, 15, 54, 98
14, 353024, Note_on_c, 15, 54, 0
14, 353024, Note_on_c, 15, 52, 98
14, 353280, Note_on_c, 15, 52, 0
14, 353280, Note_on_c, 15, 50, 95
14, 353536, Note_on_c, 15, 50, 0
14, 353792, Note_on_c, 15, 57, 89
14, 354304, Note_on_c, 15, 57, 0
14, 354304, Note_on_c, 15, 45, 82
14, 354560, Note_on_c, 15, 45, 0
14, 354816, Note_on_c, 15, 50, 59
14, 355072, Note_on_c, 15, 50, 0
14, 355328, Note_on_c, 15, 54, 61
14, 355840, Note_on_c, 15, 54, 0
14, 355840, Note_on_c, 15, 50, 63
14, 356352, Note_on_c, 15, 50, 0
14, 356352, Note_on_c, 15, 55, 65
14, 356608, Note_on_c, 15, 55, 0
14, 356864, Note_on_c, 15, 56, 67
14, 357120, Note_on_c, 15, 56, 0
14, 357376, Note_on_c, 15, 52, 70
14, 357632, Note_on_c, 15, 52, 0
14, 357888, Note_on_c, 15, 57, 72
14, 358400, Note_on_c, 15, 57, 0
14, 358400, Note_on_c, 15, 58, 74
14, 358656, Note_on_c, 15, 58, 0
14, 358912, Note_on_c, 15, 54, 76
14, 359168, Note_on_c, 15, 54, 0
14, 359424, Note_on_c, 15, 59, 78
14, 359936, Note_on_c, 15, 59, 0
14, 359936, Note_on_c, 15, 47, 80
14, 360192, Note_on_c, 15, 47, 0
14, 360448, Note_on_c, 15, 43, 82
14, 360704, Note_on_c, 15, 43, 0
14, 360960, Note_on_c, 15, 49, 84
14, 361472, Note_on_c, 15, 49, 0
14, 361472, Note_on_c, 15, 61, 86
14, 361728, Note_on_c, 15, 61, 0
14, 361984, Note_on_c, 15, 57, 89
14, 362240, Note_on_c, 15, 57, 0
14, 362496, Note_on_c, 15, 62, 91
14, 362752, Note_on_c, 15, 62, 0
14, 363008, Note_on_c, 15, 50, 93
14, 363264, Note_on_c, 15, 50, 0
14, 363264, Note_on_c, 15, 52, 94
14, 363520, Note_on_c, 15, 52, 0
14, 363520, Note_on_c, 15, 54, 95
14, 363776, Note_on_c, 15, 54, 0
14, 363776, Note_on_c, 15, 50, 96
14, 364032, Note_on_c, 15, 50, 0
14, 364032, Note_on_c, 15, 57, 102
14, 364288, Note_on_c, 15, 57, 0
14, 364544, Note_on_c, 15, 57, 102
14, 364800, Note_on_c, 15, 57, 0
14, 365056, Note_on_c, 15, 57, 103
14, 365312, Note_on_c, 15, 57, 0
14, 365568, Note_on_c, 15, 62, 104
14, 365824, Note_on_c, 15, 62, 0
14, 366080, Note_on_c, 15, 57, 105
14, 366336, Note_on_c, 15, 57, 0
14, 366592, Note_on_c, 15, 57, 105
14, 366848, Note_on_c, 15, 57, 0
14, 367104, Note_on_c, 15, 54, 106
14, 367360, Note_on_c, 15, 54, 0
14, 367360, Note_on_c, 15, 52, 107
14, 367616, Note_on_c, 15, 52, 0
14, 367616, Note_on_c, 15, 50, 107
14, 367872, Note_on_c, 15, 50, 0
14, 367872, Note_on_c, 15, 52, 107
14, 368128, Note_on_c, 15, 52, 0
14, 368128, Note_on_c, 15, 54, 108
14, 368384, Note_on_c, 15, 54, 0
14, 368384, Note_on_c, 15, 55, 108
14, 368640, Note_on_c, 15, 55, 0
14, 368640, Note_on_c, 15, 57, 108
14, 368896, Note_on_c, 15, 57, 0
14, 369152, Note_on_c, 15, 45, 109
14, 369408, Note_on_c, 15, 45, 0
14, 369664, Note_on_c, 15, 45, 110
14, 369920, Note_on_c, 15, 45, 0
14, 370176, Note_on_c, 15, 54, 111
14, 370432, Note_on_c, 15, 54, 0
14, 370688, Note_on_c, 15, 54, 111
14, 370944, Note_on_c, 15, 54, 0
14, 371200, Note_on_c, 15, 54, 112
14, 371456, Note_on_c, 15, 54, 0
14, 371712, Note_on_c, 15, 47, 113
14, 372224, Note_on_c, 15, 47, 0
14, 372224, Note_on_c, 15, 47, 114
14, 372480, Note_on_c, 15, 47, 0
14, 372736, Note_on_c, 15, 49, 114
14, 372992, Note_on_c, 15, 49, 0
14, 372992, Note_on_c, 15, 50, 115
14, 373248, Note_on_c, 15, 50, 0
14, 373248, Note_on_c, 15, 52, 115
14, 373504, Note_on_c, 15, 52, 0
14, 373504, Note_on_c, 15, 54, 116
14, 373760, Note_on_c, 15, 54, 0
14, 373760, Note_on_c, 15, 55, 116
14, 374016, Note_on_c, 15, 55, 0
14, 374016, Note_on_c, 15, 54, 116
14, 374272, Note_on_c, 15, 54, 0
14, 374272, Note_on_c, 15, 52, 117
14, 374528, Note_on_c, 15, 52, 0
14, 374528, Note_on_c, 15, 50, 117
14, 374784, Note_on_c, 15, 50, 0
14, 374784, Note_on_c, 15, 49, 117
14, 375040, Note_on_c, 15, 49, 0
14, 375296, Note_on_c, 15, 47, 118
14, 375552, Note_on_c, 15, 47, 0
14, 375552, Note_on_c, 15, 45, 119
14, 375808, Note_on_c, 15, 45, 0
14, 375808, Note_on_c, 15, 50, 119
14, 376064, Note_on_c, 15, 50, 0
14, 376320, Note_on_c, 15, 55, 120
14, 376576, Note_on_c, 15, 55, 0
14, 376832, Note_on_c, 15, 57, 121
14, 377344, Note_on_c, 15, 57, 0
14, 377344, Note_on_c, 15, 45, 122
14, 377600, Note_on_c, 15, 45, 0
14, 377856, Note_on_c, 15, 50, 123
14, 379392, Control_c, 15, 121, 127
14, 379392, Note_on_c, 15, 50, 0
14, 379392, End_track
15, 0, Start_track
15, 0, Title_t, "Organ"
15, 0, Program_c, 8, 20
15, 0, Control_c, 8, 121, 127
15, 0, Control_c, 8, 91, 127
15, 0, Control_c, 8, 1, 10
15, 0, Control_c, 8, 10, 110
15, 0, Control_c, 8, 11, 80
15, 1024, Note_on_c, 8, 62, 108
15, 1894, Note_on_c, 8, 62, 0
15, 2048, Note_on_c, 8, 50, 106
15, 2918, Note_on_c, 8, 50, 0
15, 5120, Note_on_c, 8, 62, 109
15, 5990, Note_on_c, 8, 62, 0
15, 6144, Note_on_c, 8, 50, 107
15, 7014, Note_on_c, 8, 50, 0
15, 9216, Note_on_c, 8, 62, 107
15, 10086, Note_on_c, 8, 62, 0
15, 10240, Note_on_c, 8, 50, 105
15, 11110, Note_on_c, 8, 50, 0
15, 17408, Note_on_c, 8, 62, 99
15, 18278, Note_on_c, 8, 62, 0
15, 18432, Note_on_c, 8, 50, 97
15, 19302, Note_on_c, 8, 50, 0
15, 19456, Note_on_c, 8, 61, 97
15, 20326, Note_on_c, 8, 61, 0
15, 20480, Note_on_c, 8, 49, 97
15, 21350, Note_on_c, 8, 49, 0
15, 21504, Note_on_c, 8, 59, 97
15, 22374, Note_on_c, 8, 59, 0
15, 22528, Note_on_c, 8, 52, 97
15, 23398, Note_on_c, 8, 52, 0
15, 23552, Note_on_c, 8, 57, 98
15, 24422, Note_on_c, 8, 57, 0
15, 24576, Note_on_c, 8, 45, 103
15, 25446, Note_on_c, 8, 45, 0
15, 25600, Note_on_c, 8, 57, 108
15, 26470, Note_on_c, 8, 57, 0
15, 26624, Note_on_c, 8, 45, 105
15, 27494, Note_on_c, 8, 45, 0
15, 29696, Note_on_c, 8, 57, 106
15, 30566, Note_on_c, 8, 57, 0
15, 30720, Note_on_c, 8, 45, 104
15, 31590, Note_on_c, 8, 45, 0
15, 33792, Note_on_c, 8, 57, 106
15, 34662, Note_on_c, 8, 57, 0
15, 34816, Note_on_c, 8, 45, 100
15, 35686, Note_on_c, 8, 45, 0
15, 41984, Note_on_c, 8, 57, 97
15, 42854, Note_on_c, 8, 57, 0
15, 43008, Note_on_c, 8, 45, 96
15, 43878, Note_on_c, 8, 45, 0
15, 44032, Note_on_c, 8, 59, 96
15, 44902, Note_on_c, 8, 59, 0
15, 45056, Note_on_c, 8, 47, 96
15, 45926, Note_on_c, 8, 47, 0
15, 46080, Note_on_c, 8, 61, 96
15, 46950, Note_on_c, 8, 61, 0
15, 47104, Note_on_c, 8, 57, 96
15, 47974, Note_on_c, 8, 57, 0
15, 48128, Note_on_c, 8, 62, 96
15, 48709, Note_on_c, 8, 62, 0
15, 48811, Note_on_c, 8, 50, 99
15, 49152, Note_on_c, 8, 50, 0
15, 49152, Note_on_c, 8, 54, 101
15, 49733, Note_on_c, 8, 54, 0
15, 49835, Note_on_c, 8, 57, 105
15, 50176, Note_on_c, 8, 57, 0
15, 50176, Note_on_c, 8, 62, 106
15, 51046, Note_on_c, 8, 62, 0
15, 51200, Note_on_c, 8, 50, 104
15, 52070, Note_on_c, 8, 50, 0
15, 54272, Note_on_c, 8, 62, 104
15, 55142, Note_on_c, 8, 62, 0
15, 55296, Note_on_c, 8, 50, 103
15, 56166, Note_on_c, 8, 50, 0
15, 58368, Note_on_c, 8, 62, 104
15, 59238, Note_on_c, 8, 62, 0
15, 59392, Note_on_c, 8, 50, 102
15, 60262, Note_on_c, 8, 50, 0
15, 66560, Note_on_c, 8, 62, 88
15, 67430, Note_on_c, 8, 62, 0
15, 67584, Note_on_c, 8, 50, 88
15, 68454, Note_on_c, 8, 50, 0
15, 68608, Note_on_c, 8, 61, 88
15, 69478, Note_on_c, 8, 61, 0
15, 69632, Note_on_c, 8, 49, 88
15, 70502, Note_on_c, 8, 49, 0
15, 70656, Note_on_c, 8, 59, 88
15, 71526, Note_on_c, 8, 59, 0
15, 71680, Note_on_c, 8, 47, 88
15, 72550, Note_on_c, 8, 47, 0
15, 72704, Note_on_c, 8, 58, 88
15, 73574, Note_on_c, 8, 58, 0
15, 73728, Note_on_c, 8, 46, 93
15, 74598, Note_on_c, 8, 46, 0
15, 74752, Note_on_c, 8, 59, 100
15, 75622, Note_on_c, 8, 59, 0
15, 75776, Note_on_c, 8, 47, 97
15, 76646, Note_on_c, 8, 47, 0
15, 76800, Note_on_c, 8, 57, 99
15, 77670, Note_on_c, 8, 57, 0
15, 77824, Note_on_c, 8, 45, 99
15, 78694, Note_on_c, 8, 45, 0
15, 78848, Note_on_c, 8, 55, 99
15, 79718, Note_on_c, 8, 55, 0
15, 79872, Note_on_c, 8, 43, 99
15, 80742, Note_on_c, 8, 43, 0
15, 80896, Note_on_c, 8, 54, 99
15, 81766, Note_on_c, 8, 54, 0
15, 81920, Note_on_c, 8, 42, 90
15, 82790, Note_on_c, 8, 42, 0
15, 82944, Note_on_c, 8, 55, 80
15, 83814, Note_on_c, 8, 55, 0
15, 83968, Note_on_c, 8, 43, 80
15, 84838, Note_on_c, 8, 43, 0
15, 84992, Note_on_c, 8, 54, 80
15, 85862, Note_on_c, 8, 54, 0
15, 86016, Note_on_c, 8, 42, 80
15, 86886, Note_on_c, 8, 42, 0
15, 87040, Note_on_c, 8, 52, 80
15, 87910, Note_on_c, 8, 52, 0
15, 88064, Note_on_c, 8, 40, 80
15, 88934, Note_on_c, 8, 40, 0
15, 89088, Note_on_c, 8, 51, 80
15, 89958, Note_on_c, 8, 51, 0
15, 90112, Note_on_c, 8, 39, 69
15, 90982, Note_on_c, 8, 39, 0
15, 91136, Note_on_c, 8, 52, 55
15, 92006, Note_on_c, 8, 52, 0
15, 92160, Note_on_c, 8, 40, 49
15, 93030, Note_on_c, 8, 40, 0
15, 93184, Note_on_c, 8, 50, 49
15, 94054, Note_on_c, 8, 50, 0
15, 94208, Note_on_c, 8, 38, 49
15, 95078, Note_on_c, 8, 38, 0
15, 95232, Note_on_c, 8, 49, 49
15, 96102, Note_on_c, 8, 49, 0
15, 96256, Note_on_c, 8, 54, 49
15, 97126, Note_on_c, 8, 54, 0
15, 97280, Note_on_c, 8, 59, 48
15, 98150, Note_on_c, 8, 59, 0
15, 98304, Note_on_c, 8, 47, 44
15, 99174, Note_on_c, 8, 47, 0
15, 99328, Note_on_c, 8, 52, 40
15, 100198, Note_on_c, 8, 52, 0
15, 100352, Note_on_c, 8, 40, 40
15, 101222, Note_on_c, 8, 40, 0
15, 103424, Note_on_c, 8, 57, 40
15, 104294, Note_on_c, 8, 57, 0
15, 104448, Note_on_c, 8, 45, 40
15, 105318, Note_on_c, 8, 45, 0
15, 107520, Note_on_c, 8, 50, 40
15, 108390, Note_on_c, 8, 50, 0
15, 108544, Note_on_c, 8, 38, 40
15, 109414, Note_on_c, 8, 38, 0
15, 111616, Note_on_c, 8, 55, 40
15, 112486, Note_on_c, 8, 55, 0
15, 112640, Note_on_c, 8, 43, 41
15, 113510, Note_on_c, 8, 43, 0
15, 113664, Note_on_c, 8, 54, 43
15, 114534, Note_on_c, 8, 54, 0
15, 114688, Note_on_c, 8, 42, 45
15, 115558, Note_on_c, 8, 42, 0
15, 115712, Note_on_c, 8, 52, 46
15, 116582, Note_on_c, 8, 52, 0
15, 116736, Note_on_c, 8, 45, 48
15, 117606, Note_on_c, 8, 45, 0
15, 117760, Note_on_c, 8, 50, 50
15, 118630, Note_on_c, 8, 50, 0
15, 118784, Note_on_c, 8, 38, 51
15, 119654, Note_on_c, 8, 38, 0
15, 119808, Note_on_c, 8, 52, 52
15, 120678, Note_on_c, 8, 52, 0
15, 120832, Note_on_c, 8, 40, 52
15, 121702, Note_on_c, 8, 40, 0
15, 121856, Note_on_c, 8, 54, 52
15, 122726, Note_on_c, 8, 54, 0
15, 122880, Note_on_c, 8, 42, 52
15, 123750, Note_on_c, 8, 42, 0
15, 123904, Note_on_c, 8, 55, 52
15, 124774, Note_on_c, 8, 55, 0
15, 124928, Note_on_c, 8, 43, 52
15, 125798, Note_on_c, 8, 43, 0
15, 125952, Note_on_c, 8, 57, 52
15, 126822, Note_on_c, 8, 57, 0
15, 126976, Note_on_c, 8, 45, 52
15, 127846, Note_on_c, 8, 45, 0
15, 128000, Note_on_c, 8, 59, 52
15, 128870, Note_on_c, 8, 59, 0
15, 129024, Note_on_c, 8, 47, 52
15, 129894, Note_on_c, 8, 47, 0
15, 130048, Note_on_c, 8, 61, 52
15, 130918, Note_on_c, 8, 61, 0
15, 131072, Note_on_c, 8, 49, 61
15, 131942, Note_on_c, 8, 49, 0
15, 132096, Note_on_c, 8, 50, 72
15, 132966, Note_on_c, 8, 50, 0
15, 133120, Note_on_c, 8, 38, 75
15, 133990, Note_on_c, 8, 38, 0
15, 134144, Note_on_c, 8, 52, 78
15, 135014, Note_on_c, 8, 52, 0
15, 135168, Note_on_c, 8, 40, 81
15, 136038, Note_on_c, 8, 40, 0
15, 136192, Note_on_c, 8, 54, 83
15, 137062, Note_on_c, 8, 54, 0
15, 137216, Note_on_c, 8, 42, 86
15, 138086, Note_on_c, 8, 42, 0
15, 138240, Note_on_c, 8, 56, 89
15, 139110, Note_on_c, 8, 56, 0
15, 139264, Note_on_c, 8, 44, 92
15, 140134, Note_on_c, 8, 44, 0
15, 140288, Note_on_c, 8, 57, 94
15, 141158, Note_on_c, 8, 57, 0
15, 141312, Note_on_c, 8, 45, 95
15, 142182, Note_on_c, 8, 45, 0
15, 142336, Note_on_c, 8, 56, 94
15, 143206, Note_on_c, 8, 56, 0
15, 143360, Note_on_c, 8, 44, 94
15, 144230, Note_on_c, 8, 44, 0
15, 144384, Note_on_c, 8, 54, 94
15, 145254, Note_on_c, 8, 54, 0
15, 145408, Note_on_c, 8, 42, 94
15, 146278, Note_on_c, 8, 42, 0
15, 146432, Note_on_c, 8, 53, 94
15, 147302, Note_on_c, 8, 53, 0
15, 147456, Note_on_c, 8, 41, 94
15, 148326, Note_on_c, 8, 41, 0
15, 148480, Note_on_c, 8, 54, 94
15, 149350, Note_on_c, 8, 54, 0
15, 149504, Note_on_c, 8, 42, 93
15, 150374, Note_on_c, 8, 42, 0
15, 150528, Note_on_c, 8, 52, 94
15, 151398, Note_on_c, 8, 52, 0
15, 151552, Note_on_c, 8, 40, 94
15, 152422, Note_on_c, 8, 40, 0
15, 152576, Note_on_c, 8, 50, 94
15, 153446, Note_on_c, 8, 50, 0
15, 153600, Note_on_c, 8, 38, 94
15, 154470, Note_on_c, 8, 38, 0
15, 154624, Note_on_c, 8, 49, 94
15, 155494, Note_on_c, 8, 49, 0
15, 155648, Note_on_c, 8, 37, 94
15, 156518, Note_on_c, 8, 37, 0
15, 156672, Note_on_c, 8, 62, 94
15, 157542, Note_on_c, 8, 62, 0
15, 157696, Note_on_c, 8, 50, 94
15, 158566, Note_on_c, 8, 50, 0
15, 158720, Note_on_c, 8, 61, 94
15, 159590, Note_on_c, 8, 61, 0
15, 159744, Note_on_c, 8, 49, 94
15, 160614, Note_on_c, 8, 49, 0
15, 160768, Note_on_c, 8, 59, 94
15, 161638, Note_on_c, 8, 59, 0
15, 161792, Note_on_c, 8, 47, 90
15, 162662, Note_on_c, 8, 47, 0
15, 162816, Note_on_c, 8, 58, 84
15, 163686, Note_on_c, 8, 58, 0
15, 163840, Note_on_c, 8, 46, 73
15, 164710, Note_on_c, 8, 46, 0
15, 164864, Note_on_c, 8, 59, 58
15, 165734, Note_on_c, 8, 59, 0
15, 165888, Note_on_c, 8, 47, 58
15, 166758, Note_on_c, 8, 47, 0
15, 168960, Note_on_c, 8, 52, 58
15, 169830, Note_on_c, 8, 52, 0
15, 169984, Note_on_c, 8, 40, 58
15, 170854, Note_on_c, 8, 40, 0
15, 173056, Note_on_c, 8, 57, 58
15, 173926, Note_on_c, 8, 57, 0
15, 174080, Note_on_c, 8, 45, 58
15, 174950, Note_on_c, 8, 45, 0
15, 177152, Note_on_c, 8, 50, 64
15, 177493, Note_on_c, 8, 50, 0
15, 177493, Note_on_c, 8, 49, 59
15, 177835, Note_on_c, 8, 49, 0
15, 177835, Note_on_c, 8, 50, 61
15, 178176, Note_on_c, 8, 50, 0
15, 178176, Note_on_c, 8, 44, 62
15, 178517, Note_on_c, 8, 44, 0
15, 178517, Note_on_c, 8, 45, 63
15, 178859, Note_on_c, 8, 45, 0
15, 178859, Note_on_c, 8, 47, 64
15, 179200, Note_on_c, 8, 47, 0
15, 179200, Note_on_c, 8, 37, 66
15, 179541, Note_on_c, 8, 37, 0
15, 179541, Note_on_c, 8, 39, 67
15, 179883, Note_on_c, 8, 39, 0
15, 179883, Note_on_c, 8, 41, 68
15, 180224, Note_on_c, 8, 41, 0
15, 180224, Note_on_c, 8, 42, 69
15, 180565, Note_on_c, 8, 42, 0
15, 180565, Note_on_c, 8, 44, 70
15, 180907, Note_on_c, 8, 44, 0
15, 180907, Note_on_c, 8, 45, 72
15, 181248, Note_on_c, 8, 45, 0
15, 181248, Note_on_c, 8, 47, 73
15, 181589, Note_on_c, 8, 47, 0
15, 181589, Note_on_c, 8, 45, 74
15, 181931, Note_on_c, 8, 45, 0
15, 181931, Note_on_c, 8, 47, 75
15, 182272, Note_on_c, 8, 47, 0
15, 182272, Note_on_c, 8, 40, 76
15, 182613, Note_on_c, 8, 40, 0
15, 182613, Note_on_c, 8, 42, 78
15, 182955, Note_on_c, 8, 42, 0
15, 182955, Note_on_c, 8, 44, 79
15, 183296, Note_on_c, 8, 44, 0
15, 183296, Note_on_c, 8, 33, 80
15, 183637, Note_on_c, 8, 33, 0
15, 183637, Note_on_c, 8, 35, 81
15, 183979, Note_on_c, 8, 35, 0
15, 183979, Note_on_c, 8, 37, 83
15, 184320, Note_on_c, 8, 37, 0
15, 184320, Note_on_c, 8, 38, 84
15, 184661, Note_on_c, 8, 38, 0
15, 184661, Note_on_c, 8, 40, 85
15, 185003, Note_on_c, 8, 40, 0
15, 185003, Note_on_c, 8, 42, 86
15, 185344, Note_on_c, 8, 42, 0
15, 185344, Note_on_c, 8, 44, 87
15, 185685, Note_on_c, 8, 44, 0
15, 185685, Note_on_c, 8, 42, 88
15, 186027, Note_on_c, 8, 42, 0
15, 186027, Note_on_c, 8, 44, 89
15, 186368, Note_on_c, 8, 44, 0
15, 186368, Note_on_c, 8, 37, 90
15, 186709, Note_on_c, 8, 37, 0
15, 186709, Note_on_c, 8, 39, 90
15, 187051, Note_on_c, 8, 39, 0
15, 187051, Note_on_c, 8, 41, 91
15, 187392, Note_on_c, 8, 41, 0
15, 187392, Note_on_c, 8, 42, 92
15, 187733, Note_on_c, 8, 42, 0
15, 187733, Note_on_c, 8, 44, 92
15, 188075, Note_on_c, 8, 44, 0
15, 188075, Note_on_c, 8, 45, 93
15, 188416, Note_on_c, 8, 45, 0
15, 188416, Note_on_c, 8, 47, 94
15, 188757, Note_on_c, 8, 47, 0
15, 188757, Note_on_c, 8, 49, 95
15, 189099, Note_on_c, 8, 49, 0
15, 189099, Note_on_c, 8, 50, 95
15, 189440, Note_on_c, 8, 50, 0
15, 189440, Note_on_c, 8, 41, 96
15, 190464, Note_on_c, 8, 41, 0
15, 190464, Note_on_c, 8, 42, 98
15, 191334, Note_on_c, 8, 42, 0
15, 191488, Note_on_c, 8, 49, 100
15, 192512, Note_on_c, 8, 49, 0
15, 192512, Note_on_c, 8, 37, 100
15, 193536, Note_on_c, 8, 37, 0
15, 193536, Note_on_c, 8, 69, 100
15, 193536, Note_on_c, 8, 73, 100
15, 193536, Note_on_c, 8, 78, 100
15, 193536, Note_on_c, 8, 42, 100
15, 193792, Note_on_c, 8, 69, 0
15, 193792, Note_on_c, 8, 73, 0
15, 193792, Note_on_c, 8, 78, 0
15, 194560, Note_on_c, 8, 42, 0
15, 195072, Note_on_c, 8, 57, 49
15, 195072, Note_on_c, 8, 62, 49
15, 195072, Note_on_c, 8, 66, 49
15, 195328, Note_on_c, 8, 57, 0
15, 195328, Note_on_c, 8, 62, 0
15, 195328, Note_on_c, 8, 66, 0
15, 195584, Note_on_c, 8, 50, 44
15, 195840, Note_on_c, 8, 50, 0
15, 195840, Note_on_c, 8, 52, 44
15, 196096, Note_on_c, 8, 52, 0
15, 196096, Note_on_c, 8, 54, 44
15, 196352, Note_on_c, 8, 54, 0
15, 196352, Note_on_c, 8, 50, 44
15, 196608, Note_on_c, 8, 50, 0
15, 196608, Note_on_c, 8, 62, 48
15, 196608, Note_on_c, 8, 67, 48
15, 196608, Note_on_c, 8, 71, 48
15, 196608, Note_on_c, 8, 55, 48
15, 196864, Note_on_c, 8, 62, 0
15, 196864, Note_on_c, 8, 67, 0
15, 196864, Note_on_c, 8, 71, 0
15, 196864, Note_on_c, 8, 55, 0
15, 197120, Note_on_c, 8, 43, 44
15, 197376, Note_on_c, 8, 43, 0
15, 198144, Note_on_c, 8, 55, 44
15, 198144, Note_on_c, 8, 59, 44
15, 198144, Note_on_c, 8, 64, 44
15, 198400, Note_on_c, 8, 55, 0
15, 198400, Note_on_c, 8, 59, 0
15, 198400, Note_on_c, 8, 64, 0
15, 198656, Note_on_c, 8, 52, 44
15, 198912, Note_on_c, 8, 52, 0
15, 198912, Note_on_c, 8, 54, 44
15, 199168, Note_on_c, 8, 54, 0
15, 199168, Note_on_c, 8, 55, 44
15, 199424, Note_on_c, 8, 55, 0
15, 199424, Note_on_c, 8, 52, 44
15, 199680, Note_on_c, 8, 52, 0
15, 199680, Note_on_c, 8, 67, 44
15, 199680, Note_on_c, 8, 73, 44
15, 199680, Note_on_c, 8, 57, 44
15, 199936, Note_on_c, 8, 67, 0
15, 199936, Note_on_c, 8, 73, 0
15, 199936, Note_on_c, 8, 57, 0
15, 200192, Note_on_c, 8, 54, 44
15, 200448, Note_on_c, 8, 54, 0
15, 200704, Note_on_c, 8, 66, 44
15, 200704, Note_on_c, 8, 74, 44
15, 200704, Note_on_c, 8, 59, 44
15, 200960, Note_on_c, 8, 66, 0
15, 200960, Note_on_c, 8, 74, 0
15, 200960, Note_on_c, 8, 59, 0
15, 201216, Note_on_c, 8, 62, 44
15, 201216, Note_on_c, 8, 64, 44
15, 201216, Note_on_c, 8, 71, 44
15, 201216, Note_on_c, 8, 55, 44
15, 201472, Note_on_c, 8, 62, 0
15, 201472, Note_on_c, 8, 64, 0
15, 201472, Note_on_c, 8, 71, 0
15, 201472, Note_on_c, 8, 55, 0
15, 201728, Note_on_c, 8, 61, 44
15, 201728, Note_on_c, 8, 64, 44
15, 201728, Note_on_c, 8, 69, 44
15, 201728, Note_on_c, 8, 57, 44
15, 201984, Note_on_c, 8, 61, 0
15, 201984, Note_on_c, 8, 64, 0
15, 201984, Note_on_c, 8, 69, 0
15, 201984, Note_on_c, 8, 57, 0
15, 202240, Note_on_c, 8, 55, 44
15, 202240, Note_on_c, 8, 57, 44
15, 202240, Note_on_c, 8, 61, 44
15, 202240, Note_on_c, 8, 45, 44
15, 202496, Note_on_c, 8, 55, 0
15, 202496, Note_on_c, 8, 57, 0
15, 202496, Note_on_c, 8, 61, 0
15, 202496, Note_on_c, 8, 45, 0
15, 202752, Note_on_c, 8, 54, 44
15, 202752, Note_on_c, 8, 57, 44
15, 202752, Note_on_c, 8, 62, 44
15, 202752, Note_on_c, 8, 50, 44
15, 203264, Note_on_c, 8, 54, 0
15, 203264, Note_on_c, 8, 57, 0
15, 203264, Note_on_c, 8, 62, 0
15, 203776, Note_on_c, 8, 50, 0
15, 204288, Note_on_c, 8, 62, 44
15, 204288, Note_on_c, 8, 67, 44
15, 204288, Note_on_c, 8, 71, 44
15, 204544, Note_on_c, 8, 62, 0
15, 204544, Note_on_c, 8, 67, 0
15, 204544, Note_on_c, 8, 71, 0
15, 204800, Note_on_c, 8, 55, 44
15, 205056, Note_on_c, 8, 55, 0
15, 205056, Note_on_c, 8, 57, 44
15, 205312, Note_on_c, 8, 57, 0
15, 205312, Note_on_c, 8, 59, 44
15, 205568, Note_on_c, 8, 59, 0
15, 205568, Note_on_c, 8, 55, 44
15, 205824, Note_on_c, 8, 55, 0
15, 205824, Note_on_c, 8, 61, 44
15, 205824, Note_on_c, 8, 64, 44
15, 205824, Note_on_c, 8, 57, 44
15, 206080, Note_on_c, 8, 61, 0
15, 206080, Note_on_c, 8, 64, 0
15, 206080, Note_on_c, 8, 57, 0
15, 206336, Note_on_c, 8, 61, 44
15, 206592, Note_on_c, 8, 61, 0
15, 206848, Note_on_c, 8, 57, 44
15, 207104, Note_on_c, 8, 57, 0
15, 207360, Note_on_c, 8, 61, 44
15, 207360, Note_on_c, 8, 69, 44
15, 207360, Note_on_c, 8, 54, 44
15, 207616, Note_on_c, 8, 61, 0
15, 207616, Note_on_c, 8, 69, 0
15, 207616, Note_on_c, 8, 54, 0
15, 207872, Note_on_c, 8, 55, 44
15, 208128, Note_on_c, 8, 55, 0
15, 208384, Note_on_c, 8, 57, 44
15, 208640, Note_on_c, 8, 57, 0
15, 208896, Note_on_c, 8, 62, 44
15, 208896, Note_on_c, 8, 66, 44
15, 208896, Note_on_c, 8, 69, 44
15, 208896, Note_on_c, 8, 50, 44
15, 209152, Note_on_c, 8, 62, 0
15, 209152, Note_on_c, 8, 66, 0
15, 209152, Note_on_c, 8, 69, 0
15, 209152, Note_on_c, 8, 50, 0
15, 209408, Note_on_c, 8, 62, 44
15, 209664, Note_on_c, 8, 62, 0
15, 209920, Note_on_c, 8, 61, 44
15, 210176, Note_on_c, 8, 61, 0
15, 210432, Note_on_c, 8, 66, 44
15, 210432, Note_on_c, 8, 69, 44
15, 210432, Note_on_c, 8, 59, 44
15, 210688, Note_on_c, 8, 59, 0
15, 210944, Note_on_c, 8, 66, 0
15, 210944, Note_on_c, 8, 69, 0
15, 210944, Note_on_c, 8, 62, 44
15, 210944, Note_on_c, 8, 68, 44
15, 210944, Note_on_c, 8, 64, 44
15, 211200, Note_on_c, 8, 62, 0
15, 211200, Note_on_c, 8, 68, 0
15, 211200, Note_on_c, 8, 64, 0
15, 211456, Note_on_c, 8, 52, 44
15, 211712, Note_on_c, 8, 52, 0
15, 211968, Note_on_c, 8, 61, 44
15, 211968, Note_on_c, 8, 69, 44
15, 211968, Note_on_c, 8, 57, 44
15, 212224, Note_on_c, 8, 61, 0
15, 212224, Note_on_c, 8, 69, 0
15, 212224, Note_on_c, 8, 57, 0
15, 212480, Note_on_c, 8, 45, 44
15, 212736, Note_on_c, 8, 45, 0
15, 212736, Note_on_c, 8, 47, 45
15, 212992, Note_on_c, 8, 47, 0
15, 212992, Note_on_c, 8, 49, 45
15, 213248, Note_on_c, 8, 49, 0
15, 213248, Note_on_c, 8, 45, 46
15, 213504, Note_on_c, 8, 45, 0
15, 213504, Note_on_c, 8, 69, 46
15, 213504, Note_on_c, 8, 74, 46
15, 213504, Note_on_c, 8, 78, 46
15, 213504, Note_on_c, 8, 50, 46
15, 213760, Note_on_c, 8, 69, 0
15, 213760, Note_on_c, 8, 74, 0
15, 213760, Note_on_c, 8, 78, 0
15, 213760, Note_on_c, 8, 50, 0
15, 214016, Note_on_c, 8, 62, 47
15, 214272, Note_on_c, 8, 62, 0
15, 215040, Note_on_c, 8, 64, 49
15, 215040, Note_on_c, 8, 67, 49
15, 215040, Note_on_c, 8, 71, 49
15, 215296, Note_on_c, 8, 64, 0
15, 215296, Note_on_c, 8, 67, 0
15, 215296, Note_on_c, 8, 71, 0
15, 215552, Note_on_c, 8, 52, 49
15, 215808, Note_on_c, 8, 52, 0
15, 215808, Note_on_c, 8, 51, 50
15, 216064, Note_on_c, 8, 51, 0
15, 216064, Note_on_c, 8, 52, 50
15, 216320, Note_on_c, 8, 52, 0
15, 216320, Note_on_c, 8, 54, 51
15, 216576, Note_on_c, 8, 54, 0
15, 216576, Note_on_c, 8, 64, 51
15, 216576, Note_on_c, 8, 67, 51
15, 216576, Note_on_c, 8, 71, 51
15, 216576, Note_on_c, 8, 55, 51
15, 216832, Note_on_c, 8, 64, 0
15, 216832, Note_on_c, 8, 67, 0
15, 216832, Note_on_c, 8, 71, 0
15, 216832, Note_on_c, 8, 55, 0
15, 217088, Note_on_c, 8, 57, 52
15, 217344, Note_on_c, 8, 57, 0
15, 217600, Note_on_c, 8, 59, 53
15, 217856, Note_on_c, 8, 59, 0
15, 218112, Note_on_c, 8, 67, 54
15, 218112, Note_on_c, 8, 69, 54
15, 218112, Note_on_c, 8, 76, 54
15, 218112, Note_on_c, 8, 57, 54
15, 218368, Note_on_c, 8, 67, 0
15, 218368, Note_on_c, 8, 69, 0
15, 218368, Note_on_c, 8, 76, 0
15, 218368, Note_on_c, 8, 57, 0
15, 218624, Note_on_c, 8, 61, 55
15, 218880, Note_on_c, 8, 61, 0
15, 219136, Note_on_c, 8, 66, 56
15, 219136, Note_on_c, 8, 69, 56
15, 219136, Note_on_c, 8, 74, 56
15, 219136, Note_on_c, 8, 62, 56
15, 219392, Note_on_c, 8, 66, 0
15, 219392, Note_on_c, 8, 69, 0
15, 219392, Note_on_c, 8, 74, 0
15, 219392, Note_on_c, 8, 62, 0
15, 219648, Note_on_c, 8, 64, 56
15, 219648, Note_on_c, 8, 71, 56
15, 219648, Note_on_c, 8, 74, 56
15, 219648, Note_on_c, 8, 55, 56
15, 219904, Note_on_c, 8, 55, 0
15, 220160, Note_on_c, 8, 64, 0
15, 220160, Note_on_c, 8, 71, 0
15, 220160, Note_on_c, 8, 74, 0
15, 220160, Note_on_c, 8, 64, 57
15, 220160, Note_on_c, 8, 67, 57
15, 220160, Note_on_c, 8, 69, 57
15, 220160, Note_on_c, 8, 73, 57
15, 220160, Note_on_c, 8, 57, 57
15, 220416, Note_on_c, 8, 64, 0
15, 220416, Note_on_c, 8, 67, 0
15, 220416, Note_on_c, 8, 69, 0
15, 220416, Note_on_c, 8, 73, 0
15, 220416, Note_on_c, 8, 57, 0
15, 220672, Note_on_c, 8, 45, 58
15, 220928, Note_on_c, 8, 45, 0
15, 221184, Note_on_c, 8, 62, 60
15, 221184, Note_on_c, 8, 66, 60
15, 221184, Note_on_c, 8, 69, 60
15, 221184, Note_on_c, 8, 74, 60
15, 221184, Note_on_c, 8, 50, 60
15, 221440, Note_on_c, 8, 62, 0
15, 221440, Note_on_c, 8, 66, 0
15, 221440, Note_on_c, 8, 69, 0
15, 221440, Note_on_c, 8, 74, 0
15, 221440, Note_on_c, 8, 50, 0
15, 221696, Note_on_c, 8, 38, 62
15, 221952, Note_on_c, 8, 38, 0
15, 222208, Note_on_c, 8, 50, 63
15, 222720, Note_on_c, 8, 62, 64
15, 222720, Note_on_c, 8, 66, 64
15, 222720, Note_on_c, 8, 71, 64
15, 222720, Note_on_c, 8, 74, 64
15, 222976, Note_on_c, 8, 62, 0
15, 222976, Note_on_c, 8, 66, 0
15, 222976, Note_on_c, 8, 71, 0
15, 222976, Note_on_c, 8, 74, 0
15, 222976, Note_on_c, 8, 50, 0
15, 223232, Note_on_c, 8, 54, 65
15, 223488, Note_on_c, 8, 54, 0
15, 223744, Note_on_c, 8, 59, 66
15, 224256, Note_on_c, 8, 64, 67
15, 224256, Note_on_c, 8, 67, 67
15, 224256, Note_on_c, 8, 73, 67
15, 224512, Note_on_c, 8, 64, 0
15, 224512, Note_on_c, 8, 67, 0
15, 224512, Note_on_c, 8, 73, 0
15, 224512, Note_on_c, 8, 59, 0
15, 224768, Note_on_c, 8, 52, 68
15, 225024, Note_on_c, 8, 52, 0
15, 225280, Note_on_c, 8, 57, 69
15, 225792, Note_on_c, 8, 64, 71
15, 225792, Note_on_c, 8, 67, 71
15, 225792, Note_on_c, 8, 73, 71
15, 226048, Note_on_c, 8, 64, 0
15, 226048, Note_on_c, 8, 67, 0
15, 226048, Note_on_c, 8, 73, 0
15, 226048, Note_on_c, 8, 57, 0
15, 226304, Note_on_c, 8, 45, 72
15, 226560, Note_on_c, 8, 45, 0
15, 226816, Note_on_c, 8, 57, 73
15, 227072, Note_on_c, 8, 57, 0
15, 227328, Note_on_c, 8, 66, 74
15, 227328, Note_on_c, 8, 69, 74
15, 227328, Note_on_c, 8, 74, 74
15, 227328, Note_on_c, 8, 50, 74
15, 227584, Note_on_c, 8, 66, 0
15, 227584, Note_on_c, 8, 69, 0
15, 227584, Note_on_c, 8, 74, 0
15, 227584, Note_on_c, 8, 50, 0
15, 227840, Note_on_c, 8, 52, 76
15, 228096, Note_on_c, 8, 52, 0
15, 228352, Note_on_c, 8, 69, 78
15, 228352, Note_on_c, 8, 73, 78
15, 228352, Note_on_c, 8, 54, 78
15, 228480, Note_on_c, 8, 69, 0
15, 228480, Note_on_c, 8, 73, 0
15, 228608, Note_on_c, 8, 74, 79
15, 228608, Note_on_c, 8, 54, 0
15, 228736, Note_on_c, 8, 74, 0
15, 228864, Note_on_c, 8, 68, 80
15, 228864, Note_on_c, 8, 76, 80
15, 228864, Note_on_c, 8, 52, 80
15, 229120, Note_on_c, 8, 68, 0
15, 229120, Note_on_c, 8, 76, 0
15, 229120, Note_on_c, 8, 52, 0
15, 229376, Note_on_c, 8, 50, 82
15, 229632, Note_on_c, 8, 50, 0
15, 229888, Note_on_c, 8, 62, 84
15, 229888, Note_on_c, 8, 68, 84
15, 229888, Note_on_c, 8, 52, 84
15, 230016, Note_on_c, 8, 62, 0
15, 230016, Note_on_c, 8, 68, 0
15, 230144, Note_on_c, 8, 69, 84
15, 230144, Note_on_c, 8, 52, 0
15, 230272, Note_on_c, 8, 69, 0
15, 230400, Note_on_c, 8, 61, 89
15, 230400, Note_on_c, 8, 69, 89
15, 230400, Note_on_c, 8, 45, 89
15, 230656, Note_on_c, 8, 61, 0
15, 230656, Note_on_c, 8, 69, 0
15, 230656, Note_on_c, 8, 45, 0
15, 230912, Note_on_c, 8, 45, 89
15, 231168, Note_on_c, 8, 45, 0
15, 231424, Note_on_c, 8, 45, 89
15, 231680, Note_on_c, 8, 45, 0
15, 231936, Note_on_c, 8, 54, 89
15, 232192, Note_on_c, 8, 54, 0
15, 232448, Note_on_c, 8, 54, 89
15, 232704, Note_on_c, 8, 54, 0
15, 232960, Note_on_c, 8, 54, 89
15, 233216, Note_on_c, 8, 54, 0
15, 233472, Note_on_c, 8, 47, 89
15, 233984, Note_on_c, 8, 47, 0
15, 233984, Note_on_c, 8, 47, 89
15, 234240, Note_on_c, 8, 47, 0
15, 234496, Note_on_c, 8, 49, 89
15, 234752, Note_on_c, 8, 49, 0
15, 234752, Note_on_c, 8, 50, 89
15, 235008, Note_on_c, 8, 50, 0
15, 235008, Note_on_c, 8, 52, 89
15, 235264, Note_on_c, 8, 52, 0
15, 235264, Note_on_c, 8, 54, 89
15, 235520, Note_on_c, 8, 54, 0
15, 235520, Note_on_c, 8, 55, 89
15, 235776, Note_on_c, 8, 55, 0
15, 235776, Note_on_c, 8, 54, 89
15, 236032, Note_on_c, 8, 54, 0
15, 236032, Note_on_c, 8, 52, 89
15, 236288, Note_on_c, 8, 52, 0
15, 236288, Note_on_c, 8, 50, 89
15, 236544, Note_on_c, 8, 50, 0
15, 236544, Note_on_c, 8, 49, 89
15, 236800, Note_on_c, 8, 49, 0
15, 237056, Note_on_c, 8, 47, 89
15, 237312, Note_on_c, 8, 47, 0
15, 237312, Note_on_c, 8, 45, 89
15, 237568, Note_on_c, 8, 45, 0
15, 237568, Note_on_c, 8, 50, 89
15, 238336, Note_on_c, 8, 50, 0
15, 238336, Note_on_c, 8, 52, 89
15, 238592, Note_on_c, 8, 52, 0
15, 238592, Note_on_c, 8, 49, 89
15, 239360, Note_on_c, 8, 49, 0
15, 239360, Note_on_c, 8, 50, 89
15, 239616, Note_on_c, 8, 50, 0
15, 239616, Note_on_c, 8, 50, 89
15, 239872, Note_on_c, 8, 50, 0
15, 240128, Note_on_c, 8, 54, 51
15, 240384, Note_on_c, 8, 54, 0
15, 240640, Note_on_c, 8, 50, 52
15, 240896, Note_on_c, 8, 50, 0
15, 241152, Note_on_c, 8, 69, 57
15, 241152, Note_on_c, 8, 73, 57
15, 241152, Note_on_c, 8, 76, 57
15, 241152, Note_on_c, 8, 57, 57
15, 241664, Note_on_c, 8, 69, 0
15, 241664, Note_on_c, 8, 73, 0
15, 241664, Note_on_c, 8, 76, 0
15, 241664, Note_on_c, 8, 57, 0
15, 242688, Note_on_c, 8, 69, 57
15, 242688, Note_on_c, 8, 74, 57
15, 242688, Note_on_c, 8, 78, 57
15, 242688, Note_on_c, 8, 57, 57
15, 243200, Note_on_c, 8, 69, 0
15, 243200, Note_on_c, 8, 74, 0
15, 243200, Note_on_c, 8, 78, 0
15, 243200, Note_on_c, 8, 57, 0
15, 244224, Note_on_c, 8, 69, 52
15, 244224, Note_on_c, 8, 74, 52
15, 244224, Note_on_c, 8, 78, 52
15, 244224, Note_on_c, 8, 45, 52
15, 244736, Note_on_c, 8, 69, 0
15, 244736, Note_on_c, 8, 74, 0
15, 244736, Note_on_c, 8, 78, 0
15, 244736, Note_on_c, 8, 45, 0
15, 245760, Note_on_c, 8, 73, 82
15, 245760, Note_on_c, 8, 76, 82
15, 245760, Note_on_c, 8, 81, 82
15, 245760, Note_on_c, 8, 45, 82
15, 246016, Note_on_c, 8, 73, 0
15, 246016, Note_on_c, 8, 76, 0
15, 246016, Note_on_c, 8, 81, 0
15, 246272, Note_on_c, 8, 69, 82
15, 246272, Note_on_c, 8, 73, 82
15, 246272, Note_on_c, 8, 76, 82
15, 246272, Note_on_c, 8, 45, 0
15, 246528, Note_on_c, 8, 69, 0
15, 246528, Note_on_c, 8, 73, 0
15, 246528, Note_on_c, 8, 76, 0
15, 246784, Note_on_c, 8, 64, 82
15, 246784, Note_on_c, 8, 69, 82
15, 246784, Note_on_c, 8, 73, 82
15, 247040, Note_on_c, 8, 64, 0
15, 247040, Note_on_c, 8, 69, 0
15, 247040, Note_on_c, 8, 73, 0
15, 247296, Note_on_c, 8, 64, 82
15, 247296, Note_on_c, 8, 67, 82
15, 247296, Note_on_c, 8, 71, 82
15, 247552, Note_on_c, 8, 64, 0
15, 247552, Note_on_c, 8, 67, 0
15, 247552, Note_on_c, 8, 71, 0
15, 247808, Note_on_c, 8, 52, 82
15, 248064, Note_on_c, 8, 52, 0
15, 248320, Note_on_c, 8, 52, 52
15, 248576, Note_on_c, 8, 52, 0
15, 248832, Note_on_c, 8, 67, 52
15, 248832, Note_on_c, 8, 71, 52
15, 248832, Note_on_c, 8, 76, 52
15, 248832, Note_on_c, 8, 59, 52
15, 249344, Note_on_c, 8, 67, 0
15, 249344, Note_on_c, 8, 71, 0
15, 249344, Note_on_c, 8, 76, 0
15, 249344, Note_on_c, 8, 66, 52
15, 249344, Note_on_c, 8, 71, 52
15, 249344, Note_on_c, 8, 75, 52
15, 249344, Note_on_c, 8, 59, 0
15, 249600, Note_on_c, 8, 66, 0
15, 249600, Note_on_c, 8, 71, 0
15, 249600, Note_on_c, 8, 75, 0
15, 250368, Note_on_c, 8, 64, 52
15, 250368, Note_on_c, 8, 67, 52
15, 250368, Note_on_c, 8, 59, 52
15, 250880, Note_on_c, 8, 64, 0
15, 250880, Note_on_c, 8, 67, 0
15, 250880, Note_on_c, 8, 59, 0
15, 251904, Note_on_c, 8, 64, 52
15, 251904, Note_on_c, 8, 67, 52
15, 251904, Note_on_c, 8, 47, 52
15, 252416, Note_on_c, 8, 64, 0
15, 252416, Note_on_c, 8, 67, 0
15, 252416, Note_on_c, 8, 47, 0
15, 253440, Note_on_c, 8, 66, 82
15, 253440, Note_on_c, 8, 71, 82
15, 253440, Note_on_c, 8, 75, 82
15, 253440, Note_on_c, 8, 47, 82
15, 253696, Note_on_c, 8, 66, 0
15, 253696, Note_on_c, 8, 71, 0
15, 253696, Note_on_c, 8, 75, 0
15, 253952, Note_on_c, 8, 71, 82
15, 253952, Note_on_c, 8, 75, 82
15, 253952, Note_on_c, 8, 78, 82
15, 253952, Note_on_c, 8, 47, 0
15, 254208, Note_on_c, 8, 71, 0
15, 254208, Note_on_c, 8, 75, 0
15, 254208, Note_on_c, 8, 78, 0
15, 254976, Note_on_c, 8, 52, 82
15, 255232, Note_on_c, 8, 52, 0
15, 255488, Note_on_c, 8, 40, 82
15, 255744, Note_on_c, 8, 40, 0
15, 255744, Note_on_c, 8, 42, 82
15, 256000, Note_on_c, 8, 42, 0
15, 256000, Note_on_c, 8, 43, 82
15, 256256, Note_on_c, 8, 43, 0
15, 256256, Note_on_c, 8, 40, 82
15, 256512, Note_on_c, 8, 40, 0
15, 256512, Note_on_c, 8, 45, 82
15, 256768, Note_on_c, 8, 45, 0
15, 257024, Note_on_c, 8, 45, 82
15, 257280, Note_on_c, 8, 45, 0
15, 257536, Note_on_c, 8, 45, 82
15, 257792, Note_on_c, 8, 45, 0
15, 258048, Note_on_c, 8, 42, 82
15, 258560, Note_on_c, 8, 42, 0
15, 258560, Note_on_c, 8, 42, 82
15, 258816, Note_on_c, 8, 42, 0
15, 259072, Note_on_c, 8, 42, 82
15, 259328, Note_on_c, 8, 42, 0
15, 259584, Note_on_c, 8, 47, 82
15, 259840, Note_on_c, 8, 47, 0
15, 260096, Note_on_c, 8, 43, 82
15, 260352, Note_on_c, 8, 43, 0
15, 260608, Note_on_c, 8, 48, 82
15, 260864, Note_on_c, 8, 48, 0
15, 261120, Note_on_c, 8, 47, 84
15, 261376, Note_on_c, 8, 47, 0
15, 261376, Note_on_c, 8, 45, 85
15, 261632, Note_on_c, 8, 45, 0
15, 261632, Note_on_c, 8, 47, 87
15, 262144, Note_on_c, 8, 47, 0
15, 262144, Note_on_c, 8, 35, 89
15, 262400, Note_on_c, 8, 35, 0
15, 262656, Note_on_c, 8, 40, 95
15, 262912, Note_on_c, 8, 40, 0
15, 264192, Note_on_c, 8, 45, 48
15, 264448, Note_on_c, 8, 45, 0
15, 265728, Note_on_c, 8, 38, 48
15, 265984, Note_on_c, 8, 38, 0
15, 267264, Note_on_c, 8, 43, 48
15, 267520, Note_on_c, 8, 43, 0
15, 268800, Note_on_c, 8, 37, 48
15, 269056, Note_on_c, 8, 37, 0
15, 270336, Note_on_c, 8, 42, 64
15, 270592, Note_on_c, 8, 42, 0
15, 271872, Note_on_c, 8, 47, 64
15, 272128, Note_on_c, 8, 47, 0
15, 272128, Note_on_c, 8, 46, 64
15, 272384, Note_on_c, 8, 46, 0
15, 272384, Note_on_c, 8, 47, 64
15, 272640, Note_on_c, 8, 47, 0
15, 272640, Note_on_c, 8, 49, 64
15, 272896, Note_on_c, 8, 49, 0
15, 272896, Note_on_c, 8, 50, 64
15, 273152, Note_on_c, 8, 50, 0
15, 273152, Note_on_c, 8, 47, 64
15, 273408, Note_on_c, 8, 47, 0
15, 273408, Note_on_c, 8, 52, 64
15, 273664, Note_on_c, 8, 52, 0
15, 273664, Note_on_c, 8, 50, 64
15, 273920, Note_on_c, 8, 50, 0
15, 273920, Note_on_c, 8, 52, 64
15, 274176, Note_on_c, 8, 52, 0
15, 274176, Note_on_c, 8, 54, 64
15, 274432, Note_on_c, 8, 54, 0
15, 274432, Note_on_c, 8, 52, 64
15, 274688, Note_on_c, 8, 52, 0
15, 274688, Note_on_c, 8, 50, 64
15, 274944, Note_on_c, 8, 50, 0
15, 274944, Note_on_c, 8, 49, 64
15, 275200, Note_on_c, 8, 49, 0
15, 275200, Note_on_c, 8, 47, 64
15, 275456, Note_on_c, 8, 47, 0
15, 275456, Note_on_c, 8, 49, 64
15, 275712, Note_on_c, 8, 49, 0
15, 275712, Note_on_c, 8, 50, 64
15, 275968, Note_on_c, 8, 50, 0
15, 275968, Note_on_c, 8, 52, 64
15, 276224, Note_on_c, 8, 52, 0
15, 276224, Note_on_c, 8, 49, 64
15, 276480, Note_on_c, 8, 49, 0
15, 276480, Note_on_c, 8, 54, 64
15, 276736, Note_on_c, 8, 54, 0
15, 276992, Note_on_c, 8, 52, 64
15, 277248, Note_on_c, 8, 52, 0
15, 277504, Note_on_c, 8, 50, 64
15, 277760, Note_on_c, 8, 50, 0
15, 278016, Note_on_c, 8, 52, 64
15, 278528, Note_on_c, 8, 52, 0
15, 278528, Note_on_c, 8, 54, 64
15, 279040, Note_on_c, 8, 54, 0
15, 279040, Note_on_c, 8, 42, 64
15, 279296, Note_on_c, 8, 42, 0
15, 279552, Note_on_c, 8, 47, 64
15, 279808, Note_on_c, 8, 47, 0
15, 281088, Note_on_c, 8, 58, 38
15, 281088, Note_on_c, 8, 61, 38
15, 281088, Note_on_c, 8, 54, 38
15, 281344, Note_on_c, 8, 58, 0
15, 281344, Note_on_c, 8, 61, 0
15, 281344, Note_on_c, 8, 54, 0
15, 282624, Note_on_c, 8, 59, 38
15, 282624, Note_on_c, 8, 62, 38
15, 282624, Note_on_c, 8, 54, 38
15, 282880, Note_on_c, 8, 59, 0
15, 282880, Note_on_c, 8, 62, 0
15, 282880, Note_on_c, 8, 54, 0
15, 284160, Note_on_c, 8, 54, 38
15, 284160, Note_on_c, 8, 59, 38
15, 284160, Note_on_c, 8, 62, 38
15, 284160, Note_on_c, 8, 42, 38
15, 284416, Note_on_c, 8, 54, 0
15, 284416, Note_on_c, 8, 59, 0
15, 284416, Note_on_c, 8, 62, 0
15, 284416, Note_on_c, 8, 42, 0
15, 285696, Note_on_c, 8, 54, 39
15, 285696, Note_on_c, 8, 58, 39
15, 285696, Note_on_c, 8, 61, 39
15, 285696, Note_on_c, 8, 42, 39
15, 285952, Note_on_c, 8, 54, 0
15, 285952, Note_on_c, 8, 58, 0
15, 285952, Note_on_c, 8, 61, 0
15, 285952, Note_on_c, 8, 42, 0
15, 287232, Note_on_c, 8, 47, 49
15, 287488, Note_on_c, 8, 47, 0
15, 287744, Note_on_c, 8, 59, 52
15, 288000, Note_on_c, 8, 59, 0
15, 288256, Note_on_c, 8, 47, 55
15, 288512, Note_on_c, 8, 47, 0
15, 288768, Note_on_c, 8, 49, 58
15, 289024, Note_on_c, 8, 49, 0
15, 289280, Note_on_c, 8, 57, 62
15, 289536, Note_on_c, 8, 57, 0
15, 290304, Note_on_c, 8, 50, 68
15, 290560, Note_on_c, 8, 50, 0
15, 290816, Note_on_c, 8, 57, 72
15, 291072, Note_on_c, 8, 57, 0
15, 291840, Note_on_c, 8, 45, 78
15, 292096, Note_on_c, 8, 45, 0
15, 292352, Note_on_c, 8, 57, 81
15, 292608, Note_on_c, 8, 57, 0
15, 293376, Note_on_c, 8, 45, 88
15, 293632, Note_on_c, 8, 45, 0
15, 294912, Note_on_c, 8, 50, 88
15, 295168, Note_on_c, 8, 50, 0
15, 296448, Note_on_c, 8, 43, 88
15, 296704, Note_on_c, 8, 43, 0
15, 297984, Note_on_c, 8, 40, 88
15, 298240, Note_on_c, 8, 40, 0
15, 298240, Note_on_c, 8, 38, 88
15, 298496, Note_on_c, 8, 38, 0
15, 298496, Note_on_c, 8, 40, 89
15, 298752, Note_on_c, 8, 40, 0
15, 298752, Note_on_c, 8, 42, 89
15, 299008, Note_on_c, 8, 42, 0
15, 299008, Note_on_c, 8, 43, 90
15, 299264, Note_on_c, 8, 43, 0
15, 299264, Note_on_c, 8, 40, 91
15, 299520, Note_on_c, 8, 40, 0
15, 299520, Note_on_c, 8, 45, 92
15, 299776, Note_on_c, 8, 45, 0
15, 300032, Note_on_c, 8, 42, 93
15, 300288, Note_on_c, 8, 42, 0
15, 300544, Note_on_c, 8, 47, 95
15, 300800, Note_on_c, 8, 47, 0
15, 301056, Note_on_c, 8, 43, 96
15, 301312, Note_on_c, 8, 43, 0
15, 301568, Note_on_c, 8, 45, 98
15, 302080, Note_on_c, 8, 45, 0
15, 302080, Note_on_c, 8, 45, 100
15, 302336, Note_on_c, 8, 45, 0
15, 302592, Note_on_c, 8, 38, 102
15, 302848, Note_on_c, 8, 38, 0
15, 303104, Note_on_c, 8, 50, 44
15, 303360, Note_on_c, 8, 50, 0
15, 303616, Note_on_c, 8, 54, 44
15, 303872, Note_on_c, 8, 54, 0
15, 304128, Note_on_c, 8, 47, 44
15, 304384, Note_on_c, 8, 47, 0
15, 305152, Note_on_c, 8, 59, 44
15, 305920, Note_on_c, 8, 59, 0
15, 306176, Note_on_c, 8, 52, 44
15, 306432, Note_on_c, 8, 52, 0
15, 306688, Note_on_c, 8, 57, 44
15, 307456, Note_on_c, 8, 57, 0
15, 307712, Note_on_c, 8, 52, 45
15, 307968, Note_on_c, 8, 52, 0
15, 308224, Note_on_c, 8, 45, 46
15, 308480, Note_on_c, 8, 45, 0
15, 308736, Note_on_c, 8, 50, 47
15, 308992, Note_on_c, 8, 50, 0
15, 309248, Note_on_c, 8, 52, 48
15, 309504, Note_on_c, 8, 52, 0
15, 309760, Note_on_c, 8, 54, 49
15, 310016, Note_on_c, 8, 54, 0
15, 310272, Note_on_c, 8, 52, 50
15, 310528, Note_on_c, 8, 52, 0
15, 310784, Note_on_c, 8, 50, 51
15, 311040, Note_on_c, 8, 50, 0
15, 311296, Note_on_c, 8, 52, 52
15, 311552, Note_on_c, 8, 52, 0
15, 311808, Note_on_c, 8, 45, 53
15, 312064, Note_on_c, 8, 45, 0
15, 312320, Note_on_c, 8, 57, 54
15, 312576, Note_on_c, 8, 57, 0
15, 312832, Note_on_c, 8, 57, 55
15, 313088, Note_on_c, 8, 57, 0
15, 313344, Note_on_c, 8, 66, 56
15, 313600, Note_on_c, 8, 66, 0
15, 313856, Note_on_c, 8, 66, 57
15, 314112, Note_on_c, 8, 66, 0
15, 314368, Note_on_c, 8, 66, 58
15, 314624, Note_on_c, 8, 66, 0
15, 314880, Note_on_c, 8, 59, 59
15, 315392, Note_on_c, 8, 59, 0
15, 315392, Note_on_c, 8, 59, 60
15, 315648, Note_on_c, 8, 59, 0
15, 315904, Note_on_c, 8, 61, 61
15, 316160, Note_on_c, 8, 61, 0
15, 316160, Note_on_c, 8, 62, 62
15, 316416, Note_on_c, 8, 62, 0
15, 316416, Note_on_c, 8, 64, 63
15, 316672, Note_on_c, 8, 64, 0
15, 316672, Note_on_c, 8, 66, 64
15, 316928, Note_on_c, 8, 66, 0
15, 316928, Note_on_c, 8, 67, 66
15, 317184, Note_on_c, 8, 67, 0
15, 317184, Note_on_c, 8, 66, 68
15, 317440, Note_on_c, 8, 66, 0
15, 317440, Note_on_c, 8, 64, 69
15, 317696, Note_on_c, 8, 64, 0
15, 317696, Note_on_c, 8, 62, 71
15, 317952, Note_on_c, 8, 62, 0
15, 317952, Note_on_c, 8, 61, 73
15, 318208, Note_on_c, 8, 61, 0
15, 318464, Note_on_c, 8, 59, 76
15, 318720, Note_on_c, 8, 59, 0
15, 318720, Note_on_c, 8, 57, 77
15, 318976, Note_on_c, 8, 57, 0
15, 318976, Note_on_c, 8, 62, 78
15, 319744, Note_on_c, 8, 62, 0
15, 319744, Note_on_c, 8, 64, 82
15, 320000, Note_on_c, 8, 64, 0
15, 320000, Note_on_c, 8, 61, 83
15, 320768, Note_on_c, 8, 61, 0
15, 320768, Note_on_c, 8, 62, 86
15, 321024, Note_on_c, 8, 62, 0
15, 321024, Note_on_c, 8, 50, 87
15, 321280, Note_on_c, 8, 50, 0
15, 321536, Note_on_c, 8, 50, 87
15, 321792, Note_on_c, 8, 50, 0
15, 322048, Note_on_c, 8, 50, 87
15, 322304, Note_on_c, 8, 50, 0
15, 322560, Note_on_c, 8, 59, 87
15, 322816, Note_on_c, 8, 59, 0
15, 323072, Note_on_c, 8, 59, 87
15, 323328, Note_on_c, 8, 59, 0
15, 323584, Note_on_c, 8, 59, 87
15, 323840, Note_on_c, 8, 59, 0
15, 324096, Note_on_c, 8, 52, 87
15, 324608, Note_on_c, 8, 52, 0
15, 324608, Note_on_c, 8, 52, 87
15, 324864, Note_on_c, 8, 52, 0
15, 325120, Note_on_c, 8, 54, 87
15, 325376, Note_on_c, 8, 54, 0
15, 325376, Note_on_c, 8, 55, 87
15, 325632, Note_on_c, 8, 55, 0
15, 325632, Note_on_c, 8, 57, 87
15, 325888, Note_on_c, 8, 57, 0
15, 325888, Note_on_c, 8, 59, 87
15, 326144, Note_on_c, 8, 59, 0
15, 326144, Note_on_c, 8, 60, 87
15, 326400, Note_on_c, 8, 60, 0
15, 326400, Note_on_c, 8, 59, 87
15, 326656, Note_on_c, 8, 59, 0
15, 326656, Note_on_c, 8, 57, 87
15, 326912, Note_on_c, 8, 57, 0
15, 326912, Note_on_c, 8, 55, 87
15, 327168, Note_on_c, 8, 55, 0
15, 327168, Note_on_c, 8, 54, 87
15, 327424, Note_on_c, 8, 54, 0
15, 327680, Note_on_c, 8, 52, 87
15, 327936, Note_on_c, 8, 52, 0
15, 327936, Note_on_c, 8, 50, 87
15, 328192, Note_on_c, 8, 50, 0
15, 328192, Note_on_c, 8, 55, 87
15, 328448, Note_on_c, 8, 55, 0
15, 328704, Note_on_c, 8, 43, 87
15, 328960, Note_on_c, 8, 43, 0
15, 329216, Note_on_c, 8, 50, 87
15, 329728, Note_on_c, 8, 50, 0
15, 329728, Note_on_c, 8, 38, 87
15, 329984, Note_on_c, 8, 38, 0
15, 330240, Note_on_c, 8, 43, 87
15, 330496, Note_on_c, 8, 43, 0
15, 330752, Note_on_c, 8, 55, 46
15, 332032, Note_on_c, 8, 55, 0
15, 332288, Note_on_c, 8, 54, 49
15, 332544, Note_on_c, 8, 54, 0
15, 332800, Note_on_c, 8, 52, 50
15, 333056, Note_on_c, 8, 52, 0
15, 333312, Note_on_c, 8, 54, 51
15, 335104, Note_on_c, 8, 54, 0
15, 335360, Note_on_c, 8, 52, 56
15, 335616, Note_on_c, 8, 52, 0
15, 335872, Note_on_c, 8, 50, 57
15, 336128, Note_on_c, 8, 50, 0
15, 336384, Note_on_c, 8, 52, 58
15, 338176, Note_on_c, 8, 52, 0
15, 338432, Note_on_c, 8, 50, 62
15, 338688, Note_on_c, 8, 50, 0
15, 338944, Note_on_c, 8, 49, 63
15, 339200, Note_on_c, 8, 49, 0
15, 339456, Note_on_c, 8, 50, 64
15, 341248, Note_on_c, 8, 50, 0
15, 341504, Note_on_c, 8, 49, 75
15, 341760, Note_on_c, 8, 49, 0
15, 342016, Note_on_c, 8, 47, 78
15, 342272, Note_on_c, 8, 47, 0
15, 342528, Note_on_c, 8, 49, 80
15, 342784, Note_on_c, 8, 49, 0
15, 342784, Note_on_c, 8, 47, 82
15, 343040, Note_on_c, 8, 47, 0
15, 343040, Note_on_c, 8, 45, 83
15, 343296, Note_on_c, 8, 45, 0
15, 343296, Note_on_c, 8, 47, 85
15, 343552, Note_on_c, 8, 47, 0
15, 343552, Note_on_c, 8, 49, 86
15, 343808, Note_on_c, 8, 49, 0
15, 343808, Note_on_c, 8, 45, 87
15, 344064, Note_on_c, 8, 45, 0
15, 344064, Note_on_c, 8, 50, 89
15, 344320, Note_on_c, 8, 50, 0
15, 344320, Note_on_c, 8, 49, 90
15, 344576, Note_on_c, 8, 49, 0
15, 344576, Note_on_c, 8, 50, 91
15, 344832, Note_on_c, 8, 50, 0
15, 344832, Note_on_c, 8, 52, 93
15, 345088, Note_on_c, 8, 52, 0
15, 345088, Note_on_c, 8, 54, 94
15, 345344, Note_on_c, 8, 54, 0
15, 345344, Note_on_c, 8, 55, 96
15, 345600, Note_on_c, 8, 55, 0
15, 345600, Note_on_c, 8, 57, 96
15, 345856, Note_on_c, 8, 57, 0
15, 345856, Note_on_c, 8, 55, 97
15, 346112, Note_on_c, 8, 55, 0
15, 346112, Note_on_c, 8, 57, 99
15, 346368, Note_on_c, 8, 57, 0
15, 346368, Note_on_c, 8, 59, 100
15, 346624, Note_on_c, 8, 59, 0
15, 346624, Note_on_c, 8, 61, 101
15, 346880, Note_on_c, 8, 61, 0
15, 346880, Note_on_c, 8, 57, 102
15, 347136, Note_on_c, 8, 57, 0
15, 347136, Note_on_c, 8, 62, 103
15, 347392, Note_on_c, 8, 62, 0
15, 347392, Note_on_c, 8, 64, 98
15, 347648, Note_on_c, 8, 64, 0
15, 347648, Note_on_c, 8, 62, 98
15, 347904, Note_on_c, 8, 62, 0
15, 347904, Note_on_c, 8, 61, 98
15, 348160, Note_on_c, 8, 61, 0
15, 348160, Note_on_c, 8, 59, 98
15, 348416, Note_on_c, 8, 59, 0
15, 348416, Note_on_c, 8, 57, 98
15, 348672, Note_on_c, 8, 57, 0
15, 348672, Note_on_c, 8, 55, 98
15, 348928, Note_on_c, 8, 55, 0
15, 348928, Note_on_c, 8, 57, 98
15, 349184, Note_on_c, 8, 57, 0
15, 349184, Note_on_c, 8, 55, 98
15, 349440, Note_on_c, 8, 55, 0
15, 349440, Note_on_c, 8, 54, 98
15, 349696, Note_on_c, 8, 54, 0
15, 349696, Note_on_c, 8, 52, 98
15, 349952, Note_on_c, 8, 52, 0
15, 349952, Note_on_c, 8, 50, 98
15, 350208, Note_on_c, 8, 50, 0
15, 350208, Note_on_c, 8, 49, 98
15, 350464, Note_on_c, 8, 49, 0
15, 350464, Note_on_c, 8, 50, 98
15, 350720, Note_on_c, 8, 50, 0
15, 350720, Note_on_c, 8, 52, 98
15, 350976, Note_on_c, 8, 52, 0
15, 350976, Note_on_c, 8, 50, 98
15, 351232, Note_on_c, 8, 50, 0
15, 351232, Note_on_c, 8, 49, 98
15, 351488, Note_on_c, 8, 49, 0
15, 351488, Note_on_c, 8, 47, 98
15, 351744, Note_on_c, 8, 47, 0
15, 351744, Note_on_c, 8, 45, 97
15, 352000, Note_on_c, 8, 45, 0
15, 352000, Note_on_c, 8, 52, 98
15, 352256, Note_on_c, 8, 52, 0
15, 352256, Note_on_c, 8, 57, 99
15, 352512, Note_on_c, 8, 57, 0
15, 352512, Note_on_c, 8, 55, 99
15, 352768, Note_on_c, 8, 55, 0
15, 352768, Note_on_c, 8, 54, 98
15, 353024, Note_on_c, 8, 54, 0
15, 353024, Note_on_c, 8, 52, 98
15, 353280, Note_on_c, 8, 52, 0
15, 353280, Note_on_c, 8, 50, 95
15, 353536, Note_on_c, 8, 50, 0
15, 353792, Note_on_c, 8, 57, 89
15, 354304, Note_on_c, 8, 57, 0
15, 354304, Note_on_c, 8, 45, 82
15, 354560, Note_on_c, 8, 45, 0
15, 354816, Note_on_c, 8, 50, 59
15, 355072, Note_on_c, 8, 50, 0
15, 355328, Note_on_c, 8, 54, 61
15, 355840, Note_on_c, 8, 54, 0
15, 355840, Note_on_c, 8, 50, 63
15, 356352, Note_on_c, 8, 50, 0
15, 356352, Note_on_c, 8, 55, 65
15, 356608, Note_on_c, 8, 55, 0
15, 356864, Note_on_c, 8, 56, 67
15, 357120, Note_on_c, 8, 56, 0
15, 357376, Note_on_c, 8, 52, 70
15, 357632, Note_on_c, 8, 52, 0
15, 357888, Note_on_c, 8, 57, 72
15, 358400, Note_on_c, 8, 57, 0
15, 358400, Note_on_c, 8, 58, 74
15, 358656, Note_on_c, 8, 58, 0
15, 358912, Note_on_c, 8, 54, 76
15, 359168, Note_on_c, 8, 54, 0
15, 359424, Note_on_c, 8, 59, 78
15, 359936, Note_on_c, 8, 59, 0
15, 359936, Note_on_c, 8, 47, 80
15, 360192, Note_on_c, 8, 47, 0
15, 360448, Note_on_c, 8, 43, 82
15, 360704, Note_on_c, 8, 43, 0
15, 360960, Note_on_c, 8, 49, 84
15, 361472, Note_on_c, 8, 49, 0
15, 361472, Note_on_c, 8, 61, 86
15, 361728, Note_on_c, 8, 61, 0
15, 361984, Note_on_c, 8, 57, 89
15, 362240, Note_on_c, 8, 57, 0
15, 362496, Note_on_c, 8, 62, 91
15, 362752, Note_on_c, 8, 62, 0
15, 363008, Note_on_c, 8, 50, 93
15, 363264, Note_on_c, 8, 50, 0
15, 363264, Note_on_c, 8, 52, 94
15, 363520, Note_on_c, 8, 52, 0
15, 363520, Note_on_c, 8, 54, 95
15, 363776, Note_on_c, 8, 54, 0
15, 363776, Note_on_c, 8, 50, 96
15, 364032, Note_on_c, 8, 50, 0
15, 364032, Note_on_c, 8, 57, 102
15, 364288, Note_on_c, 8, 57, 0
15, 365568, Note_on_c, 8, 57, 104
15, 365824, Note_on_c, 8, 57, 0
15, 367104, Note_on_c, 8, 45, 106
15, 367360, Note_on_c, 8, 45, 0
15, 368640, Note_on_c, 8, 45, 108
15, 368896, Note_on_c, 8, 45, 0
15, 369152, Note_on_c, 8, 45, 109
15, 369408, Note_on_c, 8, 45, 0
15, 369664, Note_on_c, 8, 45, 110
15, 369920, Note_on_c, 8, 45, 0
15, 370176, Note_on_c, 8, 54, 111
15, 370432, Note_on_c, 8, 54, 0
15, 370688, Note_on_c, 8, 54, 111
15, 370944, Note_on_c, 8, 54, 0
15, 371200, Note_on_c, 8, 54, 112
15, 371456, Note_on_c, 8, 54, 0
15, 371712, Note_on_c, 8, 47, 113
15, 372224, Note_on_c, 8, 47, 0
15, 372224, Note_on_c, 8, 47, 114
15, 372480, Note_on_c, 8, 47, 0
15, 372736, Note_on_c, 8, 49, 114
15, 372992, Note_on_c, 8, 49, 0
15, 372992, Note_on_c, 8, 50, 115
15, 373248, Note_on_c, 8, 50, 0
15, 373248, Note_on_c, 8, 52, 115
15, 373504, Note_on_c, 8, 52, 0
15, 373504, Note_on_c, 8, 54, 116
15, 373760, Note_on_c, 8, 54, 0
15, 373760, Note_on_c, 8, 55, 116
15, 374016, Note_on_c, 8, 55, 0
15, 374016, Note_on_c, 8, 54, 116
15, 374272, Note_on_c, 8, 54, 0
15, 374272, Note_on_c, 8, 52, 117
15, 374528, Note_on_c, 8, 52, 0
15, 374528, Note_on_c, 8, 50, 117
15, 374784, Note_on_c, 8, 50, 0
15, 374784, Note_on_c, 8, 49, 117
15, 375040, Note_on_c, 8, 49, 0
15, 375296, Note_on_c, 8, 47, 118
15, 375552, Note_on_c, 8, 47, 0
15, 375552, Note_on_c, 8, 45, 119
15, 375808, Note_on_c, 8, 45, 0
15, 375808, Note_on_c, 8, 50, 119
15, 376064, Note_on_c, 8, 50, 0
15, 376320, Note_on_c, 8, 43, 120
15, 376576, Note_on_c, 8, 43, 0
15, 376832, Note_on_c, 8, 45, 121
15, 377856, Note_on_c, 8, 45, 0
15, 377856, Note_on_c, 8, 38, 123
15, 379392, Control_c, 8, 121, 127
15, 379392, Note_on_c, 8, 38, 0
15, 379392, End_track
16, 0, Start_track
16, 0, Title_t, "Oboe"
16, 0, Program_c, 3, 68
16, 0, Control_c, 3, 121, 127
16, 0, Control_c, 3, 91, 127
16, 0, Control_c, 3, 1, 10
16, 0, Control_c, 3, 10, 30
16, 0, Control_c, 3, 11, 90
16, 1024, Note_on_c, 3, 78, 108
16, 1024, Note_on_c, 3, 74, 108
16, 1024, Note_on_c, 3, 69, 108
16, 1894, Note_on_c, 3, 78, 0
16, 1894, Note_on_c, 3, 74, 0
16, 1894, Note_on_c, 3, 69, 0
16, 2048, Note_on_c, 3, 74, 106
16, 2048, Note_on_c, 3, 69, 106
16, 2048, Note_on_c, 3, 66, 106
16, 2918, Note_on_c, 3, 74, 0
16, 2918, Note_on_c, 3, 69, 0
16, 2918, Note_on_c, 3, 66, 0
16, 5120, Note_on_c, 3, 81, 109
16, 5120, Note_on_c, 3, 78, 109
16, 5120, Note_on_c, 3, 74, 109
16, 5990, Note_on_c, 3, 81, 0
16, 5990, Note_on_c, 3, 78, 0
16, 5990, Note_on_c, 3, 74, 0
16, 6144, Note_on_c, 3, 78, 107
16, 6144, Note_on_c, 3, 74, 107
16, 6144, Note_on_c, 3, 69, 107
16, 7014, Note_on_c, 3, 78, 0
16, 7014, Note_on_c, 3, 74, 0
16, 7014, Note_on_c, 3, 69, 0
16, 9216, Note_on_c, 3, 86, 107
16, 9216, Note_on_c, 3, 83, 107
16, 9216, Note_on_c, 3, 79, 107
16, 10086, Note_on_c, 3, 86, 0
16, 10086, Note_on_c, 3, 83, 0
16, 10086, Note_on_c, 3, 79, 0
16, 10240, Note_on_c, 3, 83, 105
16, 10240, Note_on_c, 3, 79, 105
16, 10240, Note_on_c, 3, 74, 105
16, 11110, Note_on_c, 3, 83, 0
16, 11110, Note_on_c, 3, 79, 0
16, 11110, Note_on_c, 3, 74, 0
16, 17408, Note_on_c, 3, 81, 99
16, 17408, Note_on_c, 3, 78, 99
16, 17408, Note_on_c, 3, 74, 99
16, 17989, Note_on_c, 3, 81, 0
16, 17989, Note_on_c, 3, 78, 0
16, 17989, Note_on_c, 3, 74, 0
16, 18091, Note_on_c, 3, 78, 97
16, 18091, Note_on_c, 3, 74, 97
16, 18091, Note_on_c, 3, 69, 97
16, 18432, Note_on_c, 3, 78, 0
16, 18432, Note_on_c, 3, 83, 97
16, 18432, Note_on_c, 3, 74, 0
16, 18432, Note_on_c, 3, 78, 97
16, 18432, Note_on_c, 3, 69, 0
16, 18432, Note_on_c, 3, 74, 97
16, 19013, Note_on_c, 3, 78, 0
16, 19013, Note_on_c, 3, 74, 0
16, 19115, Note_on_c, 3, 74, 97
16, 19115, Note_on_c, 3, 71, 97
16, 19456, Note_on_c, 3, 74, 0
16, 19456, Note_on_c, 3, 76, 97
16, 19456, Note_on_c, 3, 71, 0
16, 19456, Note_on_c, 3, 73, 97
16, 20037, Note_on_c, 3, 83, 0
16, 20037, Note_on_c, 3, 76, 0
16, 20037, Note_on_c, 3, 73, 0
16, 20139, Note_on_c, 3, 76, 97
16, 20139, Note_on_c, 3, 73, 97
16, 20139, Note_on_c, 3, 68, 97
16, 20480, Note_on_c, 3, 76, 0
16, 20480, Note_on_c, 3, 81, 97
16, 20480, Note_on_c, 3, 73, 0
16, 20480, Note_on_c, 3, 76, 97
16, 20480, Note_on_c, 3, 68, 0
16, 20480, Note_on_c, 3, 73, 97
16, 21061, Note_on_c, 3, 76, 0
16, 21061, Note_on_c, 3, 73, 0
16, 21163, Note_on_c, 3, 73, 97
16, 21163, Note_on_c, 3, 69, 97
16, 21504, Note_on_c, 3, 73, 0
16, 21504, Note_on_c, 3, 69, 0
16, 21504, Note_on_c, 3, 74, 97
16, 21504, Note_on_c, 3, 71, 97
16, 22085, Note_on_c, 3, 81, 0
16, 22085, Note_on_c, 3, 74, 0
16, 22085, Note_on_c, 3, 71, 0
16, 22187, Note_on_c, 3, 83, 97
16, 22187, Note_on_c, 3, 71, 97
16, 22187, Note_on_c, 3, 66, 97
16, 22528, Note_on_c, 3, 83, 0
16, 22528, Note_on_c, 3, 80, 97
16, 22528, Note_on_c, 3, 71, 0
16, 22528, Note_on_c, 3, 74, 97
16, 22528, Note_on_c, 3, 66, 0
16, 22528, Note_on_c, 3, 71, 97
16, 23109, Note_on_c, 3, 74, 0
16, 23109, Note_on_c, 3, 71, 0
16, 23211, Note_on_c, 3, 71, 97
16, 23211, Note_on_c, 3, 64, 97
16, 23398, Note_on_c, 3, 80, 0
16, 23552, Note_on_c, 3, 81, 98
16, 23552, Note_on_c, 3, 71, 0
16, 23552, Note_on_c, 3, 73, 98
16, 23552, Note_on_c, 3, 64, 0
16, 23552, Note_on_c, 3, 64, 98
16, 24133, Note_on_c, 3, 81, 0
16, 24133, Note_on_c, 3, 73, 0
16, 24133, Note_on_c, 3, 64, 0
16, 24235, Note_on_c, 3, 76, 101
16, 24235, Note_on_c, 3, 73, 101
16, 24235, Note_on_c, 3, 69, 101
16, 24576, Note_on_c, 3, 76, 0
16, 24576, Note_on_c, 3, 81, 103
16, 24576, Note_on_c, 3, 73, 0
16, 24576, Note_on_c, 3, 76, 103
16, 24576, Note_on_c, 3, 69, 0
16, 24576, Note_on_c, 3, 73, 103
16, 25157, Note_on_c, 3, 81, 0
16, 25157, Note_on_c, 3, 76, 0
16, 25157, Note_on_c, 3, 73, 0
16, 25259, Note_on_c, 3, 76, 106
16, 25259, Note_on_c, 3, 73, 106
16, 25259, Note_on_c, 3, 69, 106
16, 25600, Note_on_c, 3, 76, 0
16, 25600, Note_on_c, 3, 73, 0
16, 25600, Note_on_c, 3, 69, 0
16, 25600, Note_on_c, 3, 76, 108
16, 25600, Note_on_c, 3, 73, 108
16, 25600, Note_on_c, 3, 69, 108
16, 26181, Note_on_c, 3, 76, 0
16, 26181, Note_on_c, 3, 73, 0
16, 26181, Note_on_c, 3, 69, 0
16, 26283, Note_on_c, 3, 73, 101
16, 26283, Note_on_c, 3, 69, 101
16, 26283, Note_on_c, 3, 64, 101
16, 26624, Note_on_c, 3, 73, 0
16, 26624, Note_on_c, 3, 76, 105
16, 26624, Note_on_c, 3, 69, 0
16, 26624, Note_on_c, 3, 73, 105
16, 26624, Note_on_c, 3, 64, 0
16, 26624, Note_on_c, 3, 69, 105
16, 27205, Note_on_c, 3, 76, 0
16, 27205, Note_on_c, 3, 73, 0
16, 27205, Note_on_c, 3, 69, 0
16, 27307, Note_on_c, 3, 73, 92
16, 27307, Note_on_c, 3, 69, 92
16, 27307, Note_on_c, 3, 64, 92
16, 27648, Note_on_c, 3, 73, 0
16, 27648, Note_on_c, 3, 76, 94
16, 27648, Note_on_c, 3, 69, 0
16, 27648, Note_on_c, 3, 73, 94
16, 27648, Note_on_c, 3, 64, 0
16, 27648, Note_on_c, 3, 64, 94
16, 28229, Note_on_c, 3, 76, 0
16, 28229, Note_on_c, 3, 73, 0
16, 28229, Note_on_c, 3, 64, 0
16, 28331, Note_on_c, 3, 69, 98
16, 28331, Note_on_c, 3, 64, 98
16, 28331, Note_on_c, 3, 73, 98
16, 28672, Note_on_c, 3, 69, 0
16, 28672, Note_on_c, 3, 68, 100
16, 28672, Note_on_c, 3, 64, 0
16, 28672, Note_on_c, 3, 62, 100
16, 28672, Note_on_c, 3, 73, 0
16, 28672, Note_on_c, 3, 71, 100
16, 29253, Note_on_c, 3, 68, 0
16, 29253, Note_on_c, 3, 62, 0
16, 29253, Note_on_c, 3, 71, 0
16, 29355, Note_on_c, 3, 74, 104
16, 29355, Note_on_c, 3, 71, 104
16, 29355, Note_on_c, 3, 68, 104
16, 29696, Note_on_c, 3, 74, 0
16, 29696, Note_on_c, 3, 71, 0
16, 29696, Note_on_c, 3, 68, 0
16, 29696, Note_on_c, 3, 73, 106
16, 29696, Note_on_c, 3, 69, 106
16, 29696, Note_on_c, 3, 64, 106
16, 30277, Note_on_c, 3, 73, 0
16, 30277, Note_on_c, 3, 69, 0
16, 30277, Note_on_c, 3, 64, 0
16, 30379, Note_on_c, 3, 69, 100
16, 30379, Note_on_c, 3, 64, 100
16, 30379, Note_on_c, 3, 73, 100
16, 30720, Note_on_c, 3, 69, 0
16, 30720, Note_on_c, 3, 73, 104
16, 30720, Note_on_c, 3, 64, 0
16, 30720, Note_on_c, 3, 69, 104
16, 30720, Note_on_c, 3, 64, 104
16, 31301, Note_on_c, 3, 73, 0
16, 31301, Note_on_c, 3, 69, 0
16, 31301, Note_on_c, 3, 64, 0
16, 31301, Note_on_c, 3, 73, 0
16, 31403, Note_on_c, 3, 69, 91
16, 31403, Note_on_c, 3, 64, 91
16, 31403, Note_on_c, 3, 73, 91
16, 31744, Note_on_c, 3, 69, 0
16, 31744, Note_on_c, 3, 66, 93
16, 31744, Note_on_c, 3, 64, 0
16, 31744, Note_on_c, 3, 62, 93
16, 31744, Note_on_c, 3, 73, 0
16, 31744, Note_on_c, 3, 69, 93
16, 32325, Note_on_c, 3, 66, 0
16, 32325, Note_on_c, 3, 62, 0
16, 32325, Note_on_c, 3, 69, 0
16, 32427, Note_on_c, 3, 74, 97
16, 32427, Note_on_c, 3, 69, 97
16, 32427, Note_on_c, 3, 66, 97
16, 32768, Note_on_c, 3, 74, 0
16, 32768, Note_on_c, 3, 73, 100
16, 32768, Note_on_c, 3, 69, 0
16, 32768, Note_on_c, 3, 67, 100
16, 32768, Note_on_c, 3, 66, 0
16, 32768, Note_on_c, 3, 64, 100
16, 33349, Note_on_c, 3, 73, 0
16, 33349, Note_on_c, 3, 67, 0
16, 33349, Note_on_c, 3, 64, 0
16, 33451, Note_on_c, 3, 76, 104
16, 33451, Note_on_c, 3, 73, 104
16, 33451, Note_on_c, 3, 76, 104
16, 33792, Note_on_c, 3, 76, 0
16, 33792, Note_on_c, 3, 73, 0
16, 33792, Note_on_c, 3, 76, 0
16, 33792, Note_on_c, 3, 81, 106
16, 33792, Note_on_c, 3, 78, 106
16, 33792, Note_on_c, 3, 74, 106
16, 34373, Note_on_c, 3, 81, 0
16, 34373, Note_on_c, 3, 78, 0
16, 34373, Note_on_c, 3, 74, 0
16, 34475, Note_on_c, 3, 78, 97
16, 34475, Note_on_c, 3, 74, 97
16, 34475, Note_on_c, 3, 69, 97
16, 34816, Note_on_c, 3, 78, 0
16, 34816, Note_on_c, 3, 81, 100
16, 34816, Note_on_c, 3, 74, 0
16, 34816, Note_on_c, 3, 78, 100
16, 34816, Note_on_c, 3, 69, 0
16, 34816, Note_on_c, 3, 74, 100
16, 35397, Note_on_c, 3, 81, 0
16, 35397, Note_on_c, 3, 78, 0
16, 35397, Note_on_c, 3, 74, 0
16, 35499, Note_on_c, 3, 78, 81
16, 35499, Note_on_c, 3, 74, 81
16, 35499, Note_on_c, 3, 69, 81
16, 35840, Note_on_c, 3, 78, 0
16, 35840, Note_on_c, 3, 86, 57
16, 35840, Note_on_c, 3, 74, 0
16, 35840, Note_on_c, 3, 83, 57
16, 35840, Note_on_c, 3, 69, 0
16, 35840, Note_on_c, 3, 68, 57
16, 36096, Note_on_c, 3, 86, 0
16, 36096, Note_on_c, 3, 83, 0
16, 36096, Note_on_c, 3, 68, 0
16, 36864, Note_on_c, 3, 85, 57
16, 36864, Note_on_c, 3, 81, 57
16, 36864, Note_on_c, 3, 76, 57
16, 37120, Note_on_c, 3, 85, 0
16, 37120, Note_on_c, 3, 81, 0
16, 37120, Note_on_c, 3, 76, 0
16, 37888, Note_on_c, 3, 83, 57
16, 37888, Note_on_c, 3, 80, 57
16, 37888, Note_on_c, 3, 74, 57
16, 38144, Note_on_c, 3, 83, 0
16, 38144, Note_on_c, 3, 80, 0
16, 38144, Note_on_c, 3, 74, 0
16, 38912, Note_on_c, 3, 86, 57
16, 38912, Note_on_c, 3, 83, 57
16, 38912, Note_on_c, 3, 80, 57
16, 39168, Note_on_c, 3, 86, 0
16, 39168, Note_on_c, 3, 83, 0
16, 39168, Note_on_c, 3, 80, 0
16, 39936, Note_on_c, 3, 85, 59
16, 39936, Note_on_c, 3, 81, 59
16, 39936, Note_on_c, 3, 76, 59
16, 40192, Note_on_c, 3, 85, 0
16, 40192, Note_on_c, 3, 81, 0
16, 40192, Note_on_c, 3, 76, 0
16, 40960, Note_on_c, 3, 83, 78
16, 40960, Note_on_c, 3, 80, 78
16, 40960, Note_on_c, 3, 74, 78
16, 41216, Note_on_c, 3, 83, 0
16, 41216, Note_on_c, 3, 80, 0
16, 41216, Note_on_c, 3, 74, 0
16, 41984, Note_on_c, 3, 73, 97
16, 41984, Note_on_c, 3, 76, 97
16, 41984, Note_on_c, 3, 64, 97
16, 42325, Note_on_c, 3, 73, 0
16, 42325, Note_on_c, 3, 74, 96
16, 42325, Note_on_c, 3, 76, 0
16, 42325, Note_on_c, 3, 69, 96
16, 42325, Note_on_c, 3, 64, 0
16, 42325, Note_on_c, 3, 66, 96
16, 42667, Note_on_c, 3, 74, 0
16, 42667, Note_on_c, 3, 76, 96
16, 42667, Note_on_c, 3, 69, 0
16, 42667, Note_on_c, 3, 71, 96
16, 42667, Note_on_c, 3, 66, 0
16, 42667, Note_on_c, 3, 67, 96
16, 43008, Note_on_c, 3, 76, 0
16, 43008, Note_on_c, 3, 78, 96
16, 43008, Note_on_c, 3, 71, 0
16, 43008, Note_on_c, 3, 73, 96
16, 43008, Note_on_c, 3, 67, 0
16, 43008, Note_on_c, 3, 69, 96
16, 43349, Note_on_c, 3, 78, 0
16, 43349, Note_on_c, 3, 76, 96
16, 43349, Note_on_c, 3, 73, 0
16, 43349, Note_on_c, 3, 71, 96
16, 43349, Note_on_c, 3, 69, 0
16, 43349, Note_on_c, 3, 67, 96
16, 43691, Note_on_c, 3, 76, 0
16, 43691, Note_on_c, 3, 78, 96
16, 43691, Note_on_c, 3, 71, 0
16, 43691, Note_on_c, 3, 73, 96
16, 43691, Note_on_c, 3, 67, 0
16, 43691, Note_on_c, 3, 69, 96
16, 44032, Note_on_c, 3, 78, 0
16, 44032, Note_on_c, 3, 74, 96
16, 44032, Note_on_c, 3, 73, 0
16, 44032, Note_on_c, 3, 74, 96
16, 44032, Note_on_c, 3, 69, 0
16, 44032, Note_on_c, 3, 66, 96
16, 44373, Note_on_c, 3, 74, 0
16, 44373, Note_on_c, 3, 76, 96
16, 44373, Note_on_c, 3, 74, 0
16, 44373, Note_on_c, 3, 71, 96
16, 44373, Note_on_c, 3, 66, 0
16, 44373, Note_on_c, 3, 67, 96
16, 44715, Note_on_c, 3, 76, 0
16, 44715, Note_on_c, 3, 78, 96
16, 44715, Note_on_c, 3, 71, 0
16, 44715, Note_on_c, 3, 73, 96
16, 44715, Note_on_c, 3, 67, 0
16, 44715, Note_on_c, 3, 69, 96
16, 45056, Note_on_c, 3, 78, 0
16, 45056, Note_on_c, 3, 79, 96
16, 45056, Note_on_c, 3, 73, 0
16, 45056, Note_on_c, 3, 74, 96
16, 45056, Note_on_c, 3, 69, 0
16, 45056, Note_on_c, 3, 71, 96
16, 45397, Note_on_c, 3, 79, 0
16, 45397, Note_on_c, 3, 78, 96
16, 45397, Note_on_c, 3, 74, 0
16, 45397, Note_on_c, 3, 73, 96
16, 45397, Note_on_c, 3, 71, 0
16, 45397, Note_on_c, 3, 69, 96
16, 45739, Note_on_c, 3, 78, 0
16, 45739, Note_on_c, 3, 79, 96
16, 45739, Note_on_c, 3, 73, 0
16, 45739, Note_on_c, 3, 74, 96
16, 45739, Note_on_c, 3, 69, 0
16, 45739, Note_on_c, 3, 71, 96
16, 46080, Note_on_c, 3, 79, 0
16, 46080, Note_on_c, 3, 74, 0
16, 46080, Note_on_c, 3, 76, 96
16, 46080, Note_on_c, 3, 76, 96
16, 46421, Note_on_c, 3, 76, 0
16, 46421, Note_on_c, 3, 78, 96
16, 46421, Note_on_c, 3, 76, 0
16, 46421, Note_on_c, 3, 73, 96
16, 46421, Note_on_c, 3, 71, 0
16, 46421, Note_on_c, 3, 69, 96
16, 46763, Note_on_c, 3, 78, 0
16, 46763, Note_on_c, 3, 79, 96
16, 46763, Note_on_c, 3, 73, 0
16, 46763, Note_on_c, 3, 74, 96
16, 46763, Note_on_c, 3, 69, 0
16, 46763, Note_on_c, 3, 71, 96
16, 47104, Note_on_c, 3, 79, 0
16, 47104, Note_on_c, 3, 81, 96
16, 47104, Note_on_c, 3, 74, 0
16, 47104, Note_on_c, 3, 76, 96
16, 47104, Note_on_c, 3, 71, 0
16, 47104, Note_on_c, 3, 73, 96
16, 47445, Note_on_c, 3, 81, 0
16, 47445, Note_on_c, 3, 79, 96
16, 47445, Note_on_c, 3, 76, 0
16, 47445, Note_on_c, 3, 74, 96
16, 47445, Note_on_c, 3, 73, 0
16, 47445, Note_on_c, 3, 71, 96
16, 47787, Note_on_c, 3, 79, 0
16, 47787, Note_on_c, 3, 81, 96
16, 47787, Note_on_c, 3, 74, 0
16, 47787, Note_on_c, 3, 76, 96
16, 47787, Note_on_c, 3, 71, 0
16, 47787, Note_on_c, 3, 73, 96
16, 48128, Note_on_c, 3, 81, 0
16, 48128, Note_on_c, 3, 78, 96
16, 48128, Note_on_c, 3, 76, 0
16, 48128, Note_on_c, 3, 74, 96
16, 48128, Note_on_c, 3, 73, 0
16, 48128, Note_on_c, 3, 69, 96
16, 48469, Note_on_c, 3, 78, 0
16, 48469, Note_on_c, 3, 76, 97
16, 48469, Note_on_c, 3, 74, 0
16, 48469, Note_on_c, 3, 73, 97
16, 48469, Note_on_c, 3, 69, 0
16, 48469, Note_on_c, 3, 67, 97
16, 48811, Note_on_c, 3, 76, 0
16, 48811, Note_on_c, 3, 78, 99
16, 48811, Note_on_c, 3, 73, 0
16, 48811, Note_on_c, 3, 74, 99
16, 48811, Note_on_c, 3, 67, 0
16, 48811, Note_on_c, 3, 69, 99
16, 49152, Note_on_c, 3, 78, 0
16, 49152, Note_on_c, 3, 74, 101
16, 49152, Note_on_c, 3, 69, 101
16, 49152, Note_on_c, 3, 66, 101
16, 49493, Note_on_c, 3, 74, 0
16, 49493, Note_on_c, 3, 78, 103
16, 49493, Note_on_c, 3, 69, 0
16, 49493, Note_on_c, 3, 74, 103
16, 49493, Note_on_c, 3, 66, 0
16, 49493, Note_on_c, 3, 69, 0
16, 49493, Note_on_c, 3, 74, 0
16, 49493, Note_on_c, 3, 69, 103
16, 49835, Note_on_c, 3, 78, 0
16, 49835, Note_on_c, 3, 79, 105
16, 49835, Note_on_c, 3, 74, 0
16, 49835, Note_on_c, 3, 76, 105
16, 49835, Note_on_c, 3, 69, 0
16, 49835, Note_on_c, 3, 73, 105
16, 50176, Note_on_c, 3, 79, 0
16, 50176, Note_on_c, 3, 76, 0
16, 50176, Note_on_c, 3, 73, 0
16, 50176, Note_on_c, 3, 81, 106
16, 50176, Note_on_c, 3, 78, 106
16, 50176, Note_on_c, 3, 74, 106
16, 51046, Note_on_c, 3, 81, 0
16, 51046, Note_on_c, 3, 78, 0
16, 51046, Note_on_c, 3, 74, 0
16, 51200, Note_on_c, 3, 78, 104
16, 51200, Note_on_c, 3, 74, 104
16, 51200, Note_on_c, 3, 69, 104
16, 52070, Note_on_c, 3, 78, 0
16, 52070, Note_on_c, 3, 74, 0
16, 52070, Note_on_c, 3, 69, 0
16, 52224, Note_on_c, 3, 74, 92
16, 52224, Note_on_c, 3, 69, 92
16, 52224, Note_on_c, 3, 66, 92
16, 52565, Note_on_c, 3, 74, 0
16, 52565, Note_on_c, 3, 73, 94
16, 52565, Note_on_c, 3, 69, 0
16, 52565, Note_on_c, 3, 67, 94
16, 52565, Note_on_c, 3, 66, 0
16, 52565, Note_on_c, 3, 64, 94
16, 52907, Note_on_c, 3, 73, 0
16, 52907, Note_on_c, 3, 74, 96
16, 52907, Note_on_c, 3, 67, 0
16, 52907, Note_on_c, 3, 69, 96
16, 52907, Note_on_c, 3, 64, 0
16, 52907, Note_on_c, 3, 66, 96
16, 53248, Note_on_c, 3, 74, 0
16, 53248, Note_on_c, 3, 76, 98
16, 53248, Note_on_c, 3, 69, 0
16, 53248, Note_on_c, 3, 73, 98
16, 53248, Note_on_c, 3, 66, 0
16, 53248, Note_on_c, 3, 67, 98
16, 53589, Note_on_c, 3, 76, 0
16, 53589, Note_on_c, 3, 74, 100
16, 53589, Note_on_c, 3, 73, 0
16, 53589, Note_on_c, 3, 71, 100
16, 53589, Note_on_c, 3, 67, 0
16, 53589, Note_on_c, 3, 66, 100
16, 53931, Note_on_c, 3, 74, 0
16, 53931, Note_on_c, 3, 76, 102
16, 53931, Note_on_c, 3, 71, 0
16, 53931, Note_on_c, 3, 73, 102
16, 53931, Note_on_c, 3, 66, 0
16, 53931, Note_on_c, 3, 67, 102
16, 54272, Note_on_c, 3, 76, 0
16, 54272, Note_on_c, 3, 73, 0
16, 54272, Note_on_c, 3, 67, 0
16, 54272, Note_on_c, 3, 78, 104
16, 54272, Note_on_c, 3, 74, 104
16, 54272, Note_on_c, 3, 69, 104
16, 55142, Note_on_c, 3, 78, 0
16, 55142, Note_on_c, 3, 74, 0
16, 55142, Note_on_c, 3, 69, 0
16, 55296, Note_on_c, 3, 74, 103
16, 55296, Note_on_c, 3, 69, 103
16, 55296, Note_on_c, 3, 66, 103
16, 56166, Note_on_c, 3, 74, 0
16, 56166, Note_on_c, 3, 69, 0
16, 56166, Note_on_c, 3, 66, 0
16, 56320, Note_on_c, 3, 76, 90
16, 56320, Note_on_c, 3, 71, 90
16, 56320, Note_on_c, 3, 67, 90
16, 56661, Note_on_c, 3, 76, 0
16, 56661, Note_on_c, 3, 74, 92
16, 56661, Note_on_c, 3, 71, 0
16, 56661, Note_on_c, 3, 69, 92
16, 56661, Note_on_c, 3, 67, 0
16, 56661, Note_on_c, 3, 66, 92
16, 57003, Note_on_c, 3, 74, 0
16, 57003, Note_on_c, 3, 76, 94
16, 57003, Note_on_c, 3, 69, 0
16, 57003, Note_on_c, 3, 71, 94
16, 57003, Note_on_c, 3, 66, 0
16, 57003, Note_on_c, 3, 67, 94
16, 57344, Note_on_c, 3, 76, 0
16, 57344, Note_on_c, 3, 78, 97
16, 57344, Note_on_c, 3, 71, 0
16, 57344, Note_on_c, 3, 72, 97
16, 57344, Note_on_c, 3, 67, 0
16, 57344, Note_on_c, 3, 69, 97
16, 57685, Note_on_c, 3, 78, 0
16, 57685, Note_on_c, 3, 76, 99
16, 57685, Note_on_c, 3, 72, 0
16, 57685, Note_on_c, 3, 71, 99
16, 57685, Note_on_c, 3, 69, 0
16, 57685, Note_on_c, 3, 67, 99
16, 58027, Note_on_c, 3, 76, 0
16, 58027, Note_on_c, 3, 78, 102
16, 58027, Note_on_c, 3, 71, 0
16, 58027, Note_on_c, 3, 72, 102
16, 58027, Note_on_c, 3, 67, 0
16, 58027, Note_on_c, 3, 69, 102
16, 58368, Note_on_c, 3, 78, 0
16, 58368, Note_on_c, 3, 72, 0
16, 58368, Note_on_c, 3, 69, 0
16, 58368, Note_on_c, 3, 79, 104
16, 58368, Note_on_c, 3, 74, 104
16, 58368, Note_on_c, 3, 71, 104
16, 59238, Note_on_c, 3, 79, 0
16, 59238, Note_on_c, 3, 74, 0
16, 59238, Note_on_c, 3, 71, 0
16, 59392, Note_on_c, 3, 74, 102
16, 59392, Note_on_c, 3, 71, 102
16, 59392, Note_on_c, 3, 67, 102
16, 60262, Note_on_c, 3, 74, 0
16, 60262, Note_on_c, 3, 71, 0
16, 60262, Note_on_c, 3, 67, 0
16, 60416, Note_on_c, 3, 73, 54
16, 60416, Note_on_c, 3, 67, 54
16, 60416, Note_on_c, 3, 64, 54
16, 60757, Note_on_c, 3, 73, 0
16, 60757, Note_on_c, 3, 71, 54
16, 60757, Note_on_c, 3, 67, 0
16, 60757, Note_on_c, 3, 66, 54
16, 60757, Note_on_c, 3, 64, 0
16, 60757, Note_on_c, 3, 62, 54
16, 61099, Note_on_c, 3, 71, 0
16, 61099, Note_on_c, 3, 73, 54
16, 61099, Note_on_c, 3, 66, 0
16, 61099, Note_on_c, 3, 67, 54
16, 61099, Note_on_c, 3, 62, 0
16, 61099, Note_on_c, 3, 64, 54
16, 61440, Note_on_c, 3, 73, 0
16, 61440, Note_on_c, 3, 74, 54
16, 61440, Note_on_c, 3, 67, 0
16, 61440, Note_on_c, 3, 69, 54
16, 61440, Note_on_c, 3, 64, 0
16, 61440, Note_on_c, 3, 66, 54
16, 61781, Note_on_c, 3, 74, 0
16, 61781, Note_on_c, 3, 73, 54
16, 61781, Note_on_c, 3, 69, 0
16, 61781, Note_on_c, 3, 67, 54
16, 61781, Note_on_c, 3, 66, 0
16, 61781, Note_on_c, 3, 64, 54
16, 62123, Note_on_c, 3, 73, 0
16, 62123, Note_on_c, 3, 74, 54
16, 62123, Note_on_c, 3, 67, 0
16, 62123, Note_on_c, 3, 69, 54
16, 62123, Note_on_c, 3, 64, 0
16, 62123, Note_on_c, 3, 66, 54
16, 62464, Note_on_c, 3, 74, 0
16, 62464, Note_on_c, 3, 69, 0
16, 62464, Note_on_c, 3, 66, 0
16, 62464, Note_on_c, 3, 76, 54
16, 62464, Note_on_c, 3, 73, 54
16, 62464, Note_on_c, 3, 67, 54
16, 62805, Note_on_c, 3, 76, 0
16, 62805, Note_on_c, 3, 74, 54
16, 62805, Note_on_c, 3, 73, 0
16, 62805, Note_on_c, 3, 71, 54
16, 62805, Note_on_c, 3, 67, 0
16, 62805, Note_on_c, 3, 66, 54
16, 63147, Note_on_c, 3, 74, 0
16, 63147, Note_on_c, 3, 76, 54
16, 63147, Note_on_c, 3, 71, 0
16, 63147, Note_on_c, 3, 73, 54
16, 63147, Note_on_c, 3, 66, 0
16, 63147, Note_on_c, 3, 67, 54
16, 63488, Note_on_c, 3, 76, 0
16, 63488, Note_on_c, 3, 73, 54
16, 63488, Note_on_c, 3, 67, 54
16, 63488, Note_on_c, 3, 64, 54
16, 63829, Note_on_c, 3, 73, 0
16, 63829, Note_on_c, 3, 71, 54
16, 63829, Note_on_c, 3, 67, 0
16, 63829, Note_on_c, 3, 66, 54
16, 63829, Note_on_c, 3, 64, 0
16, 63829, Note_on_c, 3, 67, 0
16, 63829, Note_on_c, 3, 73, 0
16, 63829, Note_on_c, 3, 62, 54
16, 64171, Note_on_c, 3, 71, 0
16, 64171, Note_on_c, 3, 73, 54
16, 64171, Note_on_c, 3, 66, 0
16, 64171, Note_on_c, 3, 67, 54
16, 64171, Note_on_c, 3, 62, 0
16, 64171, Note_on_c, 3, 64, 54
16, 64512, Note_on_c, 3, 73, 0
16, 64512, Note_on_c, 3, 74, 56
16, 64512, Note_on_c, 3, 67, 0
16, 64512, Note_on_c, 3, 69, 56
16, 64512, Note_on_c, 3, 64, 0
16, 64512, Note_on_c, 3, 66, 56
16, 64853, Note_on_c, 3, 74, 0
16, 64853, Note_on_c, 3, 73, 61
16, 64853, Note_on_c, 3, 69, 0
16, 64853, Note_on_c, 3, 67, 61
16, 64853, Note_on_c, 3, 66, 0
16, 64853, Note_on_c, 3, 64, 61
16, 65195, Note_on_c, 3, 73, 0
16, 65195, Note_on_c, 3, 74, 67
16, 65195, Note_on_c, 3, 67, 0
16, 65195, Note_on_c, 3, 69, 67
16, 65195, Note_on_c, 3, 64, 0
16, 65195, Note_on_c, 3, 66, 67
16, 65536, Note_on_c, 3, 74, 0
16, 65536, Note_on_c, 3, 76, 72
16, 65536, Note_on_c, 3, 69, 0
16, 65536, Note_on_c, 3, 71, 72
16, 65536, Note_on_c, 3, 66, 0
16, 65536, Note_on_c, 3, 67, 72
16, 65877, Note_on_c, 3, 76, 0
16, 65877, Note_on_c, 3, 74, 77
16, 65877, Note_on_c, 3, 71, 0
16, 65877, Note_on_c, 3, 69, 77
16, 65877, Note_on_c, 3, 67, 0
16, 65877, Note_on_c, 3, 66, 77
16, 66219, Note_on_c, 3, 74, 0
16, 66219, Note_on_c, 3, 76, 83
16, 66219, Note_on_c, 3, 69, 0
16, 66219, Note_on_c, 3, 71, 83
16, 66219, Note_on_c, 3, 66, 0
16, 66219, Note_on_c, 3, 67, 83
16, 66560, Note_on_c, 3, 76, 0
16, 66560, Note_on_c, 3, 71, 0
16, 66560, Note_on_c, 3, 67, 0
16, 66560, Note_on_c, 3, 78, 88
16, 66560, Note_on_c, 3, 74, 88
16, 66560, Note_on_c, 3, 69, 88
16, 67141, Note_on_c, 3, 78, 0
16, 67141, Note_on_c, 3, 74, 0
16, 67141, Note_on_c, 3, 69, 0
16, 67243, Note_on_c, 3, 74, 85
16, 67243, Note_on_c, 3, 69, 85
16, 67243, Note_on_c, 3, 66, 85
16, 67584, Note_on_c, 3, 74, 0
16, 67584, Note_on_c, 3, 78, 88
16, 67584, Note_on_c, 3, 69, 0
16, 67584, Note_on_c, 3, 74, 88
16, 67584, Note_on_c, 3, 66, 0
16, 67584, Note_on_c, 3, 69, 88
16, 68165, Note_on_c, 3, 78, 0
16, 68165, Note_on_c, 3, 74, 0
16, 68165, Note_on_c, 3, 69, 0
16, 68267, Note_on_c, 3, 74, 88
16, 68267, Note_on_c, 3, 69, 88
16, 68267, Note_on_c, 3, 66, 88
16, 68608, Note_on_c, 3, 74, 0
16, 68608, Note_on_c, 3, 81, 88
16, 68608, Note_on_c, 3, 69, 0
16, 68608, Note_on_c, 3, 78, 88
16, 68608, Note_on_c, 3, 66, 0
16, 68608, Note_on_c, 3, 74, 88
16, 69189, Note_on_c, 3, 81, 0
16, 69189, Note_on_c, 3, 78, 0
16, 69189, Note_on_c, 3, 74, 0
16, 69291, Note_on_c, 3, 78, 88
16, 69291, Note_on_c, 3, 74, 88
16, 69291, Note_on_c, 3, 69, 88
16, 69632, Note_on_c, 3, 78, 0
16, 69632, Note_on_c, 3, 81, 88
16, 69632, Note_on_c, 3, 74, 0
16, 69632, Note_on_c, 3, 78, 88
16, 69632, Note_on_c, 3, 69, 0
16, 69632, Note_on_c, 3, 74, 88
16, 70213, Note_on_c, 3, 81, 0
16, 70213, Note_on_c, 3, 78, 0
16, 70213, Note_on_c, 3, 74, 0
16, 70315, Note_on_c, 3, 78, 88
16, 70315, Note_on_c, 3, 74, 88
16, 70315, Note_on_c, 3, 69, 88
16, 70656, Note_on_c, 3, 78, 0
16, 70656, Note_on_c, 3, 74, 0
16, 70656, Note_on_c, 3, 69, 0
16, 70656, Note_on_c, 3, 83, 88
16, 70656, Note_on_c, 3, 78, 88
16, 70656, Note_on_c, 3, 74, 88
16, 71237, Note_on_c, 3, 83, 0
16, 71237, Note_on_c, 3, 78, 0
16, 71237, Note_on_c, 3, 74, 0
16, 71339, Note_on_c, 3, 78, 88
16, 71339, Note_on_c, 3, 74, 88
16, 71339, Note_on_c, 3, 71, 88
16, 71680, Note_on_c, 3, 78, 0
16, 71680, Note_on_c, 3, 83, 88
16, 71680, Note_on_c, 3, 74, 0
16, 71680, Note_on_c, 3, 78, 88
16, 71680, Note_on_c, 3, 71, 0
16, 71680, Note_on_c, 3, 74, 88
16, 72261, Note_on_c, 3, 83, 0
16, 72261, Note_on_c, 3, 78, 0
16, 72261, Note_on_c, 3, 74, 0
16, 72363, Note_on_c, 3, 78, 88
16, 72363, Note_on_c, 3, 74, 88
16, 72363, Note_on_c, 3, 71, 88
16, 72704, Note_on_c, 3, 78, 0
16, 72704, Note_on_c, 3, 85, 88
16, 72704, Note_on_c, 3, 74, 0
16, 72704, Note_on_c, 3, 78, 88
16, 72704, Note_on_c, 3, 71, 0
16, 72704, Note_on_c, 3, 73, 88
16, 73045, Note_on_c, 3, 85, 0
16, 73045, Note_on_c, 3, 79, 89
16, 73045, Note_on_c, 3, 78, 0
16, 73045, Note_on_c, 3, 76, 89
16, 73045, Note_on_c, 3, 73, 0
16, 73045, Note_on_c, 3, 71, 89
16, 73387, Note_on_c, 3, 79, 0
16, 73387, Note_on_c, 3, 78, 91
16, 73387, Note_on_c, 3, 76, 0
16, 73387, Note_on_c, 3, 74, 91
16, 73387, Note_on_c, 3, 71, 0
16, 73387, Note_on_c, 3, 70, 91
16, 73728, Note_on_c, 3, 78, 0
16, 73728, Note_on_c, 3, 76, 93
16, 73728, Note_on_c, 3, 74, 0
16, 73728, Note_on_c, 3, 73, 93
16, 73728, Note_on_c, 3, 70, 0
16, 73728, Note_on_c, 3, 67, 93
16, 74069, Note_on_c, 3, 76, 0
16, 74069, Note_on_c, 3, 74, 96
16, 74069, Note_on_c, 3, 73, 0
16, 74069, Note_on_c, 3, 71, 96
16, 74069, Note_on_c, 3, 67, 0
16, 74069, Note_on_c, 3, 66, 96
16, 74411, Note_on_c, 3, 74, 0
16, 74411, Note_on_c, 3, 73, 98
16, 74411, Note_on_c, 3, 71, 0
16, 74411, Note_on_c, 3, 73, 98
16, 74411, Note_on_c, 3, 66, 0
16, 74411, Note_on_c, 3, 64, 98
16, 74752, Note_on_c, 3, 73, 0
16, 74752, Note_on_c, 3, 73, 0
16, 74752, Note_on_c, 3, 64, 0
16, 74752, Note_on_c, 3, 71, 100
16, 74752, Note_on_c, 3, 66, 100
16, 74752, Note_on_c, 3, 62, 100
16, 75093, Note_on_c, 3, 71, 0
16, 75093, Note_on_c, 3, 73, 91
16, 75093, Note_on_c, 3, 66, 0
16, 75093, Note_on_c, 3, 70, 91
16, 75093, Note_on_c, 3, 62, 0
16, 75093, Note_on_c, 3, 64, 91
16, 75435, Note_on_c, 3, 73, 0
16, 75435, Note_on_c, 3, 74, 94
16, 75435, Note_on_c, 3, 70, 0
16, 75435, Note_on_c, 3, 71, 94
16, 75435, Note_on_c, 3, 64, 0
16, 75435, Note_on_c, 3, 66, 94
16, 75776, Note_on_c, 3, 74, 0
16, 75776, Note_on_c, 3, 71, 97
16, 75776, Note_on_c, 3, 71, 0
16, 75776, Note_on_c, 3, 66, 97
16, 75776, Note_on_c, 3, 66, 0
16, 75776, Note_on_c, 3, 62, 97
16, 76117, Note_on_c, 3, 71, 0
16, 76117, Note_on_c, 3, 73, 99
16, 76117, Note_on_c, 3, 66, 0
16, 76117, Note_on_c, 3, 70, 99
16, 76117, Note_on_c, 3, 62, 0
16, 76117, Note_on_c, 3, 64, 99
16, 76459, Note_on_c, 3, 73, 0
16, 76459, Note_on_c, 3, 74, 99
16, 76459, Note_on_c, 3, 70, 0
16, 76459, Note_on_c, 3, 71, 99
16, 76459, Note_on_c, 3, 64, 0
16, 76459, Note_on_c, 3, 66, 99
16, 76800, Note_on_c, 3, 74, 0
16, 76800, Note_on_c, 3, 71, 99
16, 76800, Note_on_c, 3, 71, 0
16, 76800, Note_on_c, 3, 66, 99
16, 76800, Note_on_c, 3, 66, 0
16, 76800, Note_on_c, 3, 62, 99
16, 77141, Note_on_c, 3, 71, 0
16, 77141, Note_on_c, 3, 73, 99
16, 77141, Note_on_c, 3, 66, 0
16, 77141, Note_on_c, 3, 69, 99
16, 77141, Note_on_c, 3, 62, 0
16, 77141, Note_on_c, 3, 64, 99
16, 77483, Note_on_c, 3, 73, 0
16, 77483, Note_on_c, 3, 74, 99
16, 77483, Note_on_c, 3, 69, 0
16, 77483, Note_on_c, 3, 71, 99
16, 77483, Note_on_c, 3, 64, 0
16, 77483, Note_on_c, 3, 66, 99
16, 77824, Note_on_c, 3, 74, 0
16, 77824, Note_on_c, 3, 71, 99
16, 77824, Note_on_c, 3, 71, 0
16, 77824, Note_on_c, 3, 66, 99
16, 77824, Note_on_c, 3, 66, 0
16, 77824, Note_on_c, 3, 62, 99
16, 78165, Note_on_c, 3, 71, 0
16, 78165, Note_on_c, 3, 73, 99
16, 78165, Note_on_c, 3, 66, 0
16, 78165, Note_on_c, 3, 69, 99
16, 78165, Note_on_c, 3, 62, 0
16, 78165, Note_on_c, 3, 64, 99
16, 78507, Note_on_c, 3, 73, 0
16, 78507, Note_on_c, 3, 74, 99
16, 78507, Note_on_c, 3, 69, 0
16, 78507, Note_on_c, 3, 71, 99
16, 78507, Note_on_c, 3, 64, 0
16, 78507, Note_on_c, 3, 66, 99
16, 78848, Note_on_c, 3, 74, 0
16, 78848, Note_on_c, 3, 71, 0
16, 78848, Note_on_c, 3, 66, 0
16, 78848, Note_on_c, 3, 71, 99
16, 78848, Note_on_c, 3, 67, 99
16, 78848, Note_on_c, 3, 62, 99
16, 79189, Note_on_c, 3, 71, 0
16, 79189, Note_on_c, 3, 73, 99
16, 79189, Note_on_c, 3, 67, 0
16, 79189, Note_on_c, 3, 69, 99
16, 79189, Note_on_c, 3, 62, 0
16, 79189, Note_on_c, 3, 69, 99
16, 79531, Note_on_c, 3, 73, 0
16, 79531, Note_on_c, 3, 74, 99
16, 79531, Note_on_c, 3, 69, 0
16, 79531, Note_on_c, 3, 71, 99
16, 79531, Note_on_c, 3, 69, 0
16, 79531, Note_on_c, 3, 67, 99
16, 79872, Note_on_c, 3, 74, 0
16, 79872, Note_on_c, 3, 71, 99
16, 79872, Note_on_c, 3, 71, 0
16, 79872, Note_on_c, 3, 67, 99
16, 79872, Note_on_c, 3, 67, 0
16, 79872, Note_on_c, 3, 62, 99
16, 80213, Note_on_c, 3, 71, 0
16, 80213, Note_on_c, 3, 73, 99
16, 80213, Note_on_c, 3, 67, 0
16, 80213, Note_on_c, 3, 69, 99
16, 80213, Note_on_c, 3, 62, 0
16, 80213, Note_on_c, 3, 69, 99
16, 80555, Note_on_c, 3, 73, 0
16, 80555, Note_on_c, 3, 74, 99
16, 80555, Note_on_c, 3, 69, 0
16, 80555, Note_on_c, 3, 71, 99
16, 80555, Note_on_c, 3, 69, 0
16, 80555, Note_on_c, 3, 67, 99
16, 80896, Note_on_c, 3, 74, 0
16, 80896, Note_on_c, 3, 74, 99
16, 80896, Note_on_c, 3, 71, 0
16, 80896, Note_on_c, 3, 69, 99
16, 80896, Note_on_c, 3, 67, 0
16, 80896, Note_on_c, 3, 62, 99
16, 81766, Note_on_c, 3, 74, 0
16, 81766, Note_on_c, 3, 69, 0
16, 81766, Note_on_c, 3, 62, 0
16, 82944, Note_on_c, 3, 71, 80
16, 82944, Note_on_c, 3, 67, 80
16, 82944, Note_on_c, 3, 62, 80
16, 83525, Note_on_c, 3, 71, 0
16, 83525, Note_on_c, 3, 67, 0
16, 83525, Note_on_c, 3, 62, 0
16, 83627, Note_on_c, 3, 67, 80
16, 83627, Note_on_c, 3, 62, 80
16, 83627, Note_on_c, 3, 71, 80
16, 83968, Note_on_c, 3, 67, 0
16, 83968, Note_on_c, 3, 71, 80
16, 83968, Note_on_c, 3, 62, 0
16, 83968, Note_on_c, 3, 67, 80
16, 83968, Note_on_c, 3, 71, 0
16, 83968, Note_on_c, 3, 62, 80
16, 84549, Note_on_c, 3, 71, 0
16, 84549, Note_on_c, 3, 67, 0
16, 84549, Note_on_c, 3, 62, 0
16, 84651, Note_on_c, 3, 67, 80
16, 84651, Note_on_c, 3, 62, 80
16, 84651, Note_on_c, 3, 71, 80
16, 84992, Note_on_c, 3, 67, 0
16, 84992, Note_on_c, 3, 74, 80
16, 84992, Note_on_c, 3, 62, 0
16, 84992, Note_on_c, 3, 71, 80
16, 84992, Note_on_c, 3, 71, 0
16, 84992, Note_on_c, 3, 67, 80
16, 85573, Note_on_c, 3, 74, 0
16, 85573, Note_on_c, 3, 71, 0
16, 85573, Note_on_c, 3, 67, 0
16, 85675, Note_on_c, 3, 71, 80
16, 85675, Note_on_c, 3, 67, 80
16, 85675, Note_on_c, 3, 62, 80
16, 86016, Note_on_c, 3, 71, 0
16, 86016, Note_on_c, 3, 74, 80
16, 86016, Note_on_c, 3, 67, 0
16, 86016, Note_on_c, 3, 71, 80
16, 86016, Note_on_c, 3, 62, 0
16, 86016, Note_on_c, 3, 67, 80
16, 86597, Note_on_c, 3, 74, 0
16, 86597, Note_on_c, 3, 71, 0
16, 86597, Note_on_c, 3, 67, 0
16, 86699, Note_on_c, 3, 71, 80
16, 86699, Note_on_c, 3, 67, 80
16, 86699, Note_on_c, 3, 62, 80
16, 87040, Note_on_c, 3, 71, 0
16, 87040, Note_on_c, 3, 67, 0
16, 87040, Note_on_c, 3, 62, 0
16, 87040, Note_on_c, 3, 76, 80
16, 87040, Note_on_c, 3, 71, 80
16, 87040, Note_on_c, 3, 67, 80
16, 87621, Note_on_c, 3, 76, 0
16, 87621, Note_on_c, 3, 71, 0
16, 87621, Note_on_c, 3, 67, 0
16, 87723, Note_on_c, 3, 71, 80
16, 87723, Note_on_c, 3, 67, 80
16, 87723, Note_on_c, 3, 64, 80
16, 88064, Note_on_c, 3, 71, 0
16, 88064, Note_on_c, 3, 76, 80
16, 88064, Note_on_c, 3, 67, 0
16, 88064, Note_on_c, 3, 71, 80
16, 88064, Note_on_c, 3, 64, 0
16, 88064, Note_on_c, 3, 67, 80
16, 88645, Note_on_c, 3, 76, 0
16, 88645, Note_on_c, 3, 71, 0
16, 88645, Note_on_c, 3, 67, 0
16, 88747, Note_on_c, 3, 71, 80
16, 88747, Note_on_c, 3, 67, 80
16, 88747, Note_on_c, 3, 64, 80
16, 89088, Note_on_c, 3, 71, 0
16, 89088, Note_on_c, 3, 78, 80
16, 89088, Note_on_c, 3, 67, 0
16, 89088, Note_on_c, 3, 71, 80
16, 89088, Note_on_c, 3, 64, 0
16, 89088, Note_on_c, 3, 66, 80
16, 89429, Note_on_c, 3, 78, 0
16, 89429, Note_on_c, 3, 84, 77
16, 89429, Note_on_c, 3, 71, 0
16, 89429, Note_on_c, 3, 81, 77
16, 89429, Note_on_c, 3, 66, 0
16, 89429, Note_on_c, 3, 64, 77
16, 89771, Note_on_c, 3, 84, 0
16, 89771, Note_on_c, 3, 83, 73
16, 89771, Note_on_c, 3, 81, 0
16, 89771, Note_on_c, 3, 79, 73
16, 89771, Note_on_c, 3, 64, 0
16, 89771, Note_on_c, 3, 63, 73
16, 90112, Note_on_c, 3, 83, 0
16, 90112, Note_on_c, 3, 81, 69
16, 90112, Note_on_c, 3, 79, 0
16, 90112, Note_on_c, 3, 78, 69
16, 90112, Note_on_c, 3, 63, 0
16, 90112, Note_on_c, 3, 72, 69
16, 90453, Note_on_c, 3, 81, 0
16, 90453, Note_on_c, 3, 79, 65
16, 90453, Note_on_c, 3, 78, 0
16, 90453, Note_on_c, 3, 76, 65
16, 90453, Note_on_c, 3, 72, 0
16, 90453, Note_on_c, 3, 71, 65
16, 90795, Note_on_c, 3, 79, 0
16, 90795, Note_on_c, 3, 78, 61
16, 90795, Note_on_c, 3, 76, 0
16, 90795, Note_on_c, 3, 78, 61
16, 90795, Note_on_c, 3, 71, 0
16, 90795, Note_on_c, 3, 69, 61
16, 91136, Note_on_c, 3, 78, 0
16, 91136, Note_on_c, 3, 78, 0
16, 91136, Note_on_c, 3, 69, 0
16, 91136, Note_on_c, 3, 76, 55
16, 91136, Note_on_c, 3, 71, 55
16, 91136, Note_on_c, 3, 67, 55
16, 91477, Note_on_c, 3, 76, 0
16, 91477, Note_on_c, 3, 78, 49
16, 91477, Note_on_c, 3, 71, 0
16, 91477, Note_on_c, 3, 73, 49
16, 91477, Note_on_c, 3, 67, 0
16, 91477, Note_on_c, 3, 69, 49
16, 91819, Note_on_c, 3, 78, 0
16, 91819, Note_on_c, 3, 79, 49
16, 91819, Note_on_c, 3, 73, 0
16, 91819, Note_on_c, 3, 74, 49
16, 91819, Note_on_c, 3, 69, 0
16, 91819, Note_on_c, 3, 71, 49
16, 92160, Note_on_c, 3, 79, 0
16, 92160, Note_on_c, 3, 73, 49
16, 92160, Note_on_c, 3, 74, 0
16, 92160, Note_on_c, 3, 76, 49
16, 92160, Note_on_c, 3, 71, 0
16, 92160, Note_on_c, 3, 67, 49
16, 92501, Note_on_c, 3, 73, 0
16, 92501, Note_on_c, 3, 74, 49
16, 92501, Note_on_c, 3, 76, 0
16, 92501, Note_on_c, 3, 78, 49
16, 92741, Note_on_c, 3, 67, 0
16, 92843, Note_on_c, 3, 74, 0
16, 92843, Note_on_c, 3, 76, 49
16, 92843, Note_on_c, 3, 78, 0
16, 92843, Note_on_c, 3, 79, 49
16, 92843, Note_on_c, 3, 73, 49
16, 93184, Note_on_c, 3, 76, 0
16, 93184, Note_on_c, 3, 78, 49
16, 93184, Note_on_c, 3, 79, 0
16, 93184, Note_on_c, 3, 70, 49
16, 93184, Note_on_c, 3, 73, 0
16, 93184, Note_on_c, 3, 74, 49
16, 93525, Note_on_c, 3, 78, 0
16, 93525, Note_on_c, 3, 80, 49
16, 93525, Note_on_c, 3, 70, 0
16, 93525, Note_on_c, 3, 71, 49
16, 93525, Note_on_c, 3, 74, 0
16, 93525, Note_on_c, 3, 76, 49
16, 93867, Note_on_c, 3, 80, 0
16, 93867, Note_on_c, 3, 82, 49
16, 93867, Note_on_c, 3, 71, 0
16, 93867, Note_on_c, 3, 73, 49
16, 93867, Note_on_c, 3, 76, 0
16, 93867, Note_on_c, 3, 78, 49
16, 94208, Note_on_c, 3, 82, 0
16, 94208, Note_on_c, 3, 83, 49
16, 94208, Note_on_c, 3, 73, 0
16, 94208, Note_on_c, 3, 74, 49
16, 94208, Note_on_c, 3, 78, 0
16, 94208, Note_on_c, 3, 71, 49
16, 94549, Note_on_c, 3, 83, 0
16, 94549, Note_on_c, 3, 82, 49
16, 94549, Note_on_c, 3, 74, 0
16, 94549, Note_on_c, 3, 76, 49
16, 94549, Note_on_c, 3, 71, 0
16, 94549, Note_on_c, 3, 73, 49
16, 94891, Note_on_c, 3, 82, 0
16, 94891, Note_on_c, 3, 83, 49
16, 94891, Note_on_c, 3, 76, 0
16, 94891, Note_on_c, 3, 78, 49
16, 94891, Note_on_c, 3, 73, 0
16, 94891, Note_on_c, 3, 74, 49
16, 95232, Note_on_c, 3, 83, 0
16, 95232, Note_on_c, 3, 78, 0
16, 95232, Note_on_c, 3, 74, 0
16, 95232, Note_on_c, 3, 76, 49
16, 95232, Note_on_c, 3, 79, 49
16, 95232, Note_on_c, 3, 76, 49
16, 95573, Note_on_c, 3, 76, 0
16, 95573, Note_on_c, 3, 78, 49
16, 95573, Note_on_c, 3, 79, 0
16, 95573, Note_on_c, 3, 70, 49
16, 95813, Note_on_c, 3, 76, 0
16, 95915, Note_on_c, 3, 78, 0
16, 95915, Note_on_c, 3, 79, 49
16, 95915, Note_on_c, 3, 70, 0
16, 95915, Note_on_c, 3, 71, 49
16, 95915, Note_on_c, 3, 64, 49
16, 96256, Note_on_c, 3, 79, 0
16, 96256, Note_on_c, 3, 78, 49
16, 96256, Note_on_c, 3, 71, 0
16, 96256, Note_on_c, 3, 73, 49
16, 96256, Note_on_c, 3, 64, 0
16, 96256, Note_on_c, 3, 70, 49
16, 96597, Note_on_c, 3, 78, 0
16, 96597, Note_on_c, 3, 79, 49
16, 96597, Note_on_c, 3, 73, 0
16, 96597, Note_on_c, 3, 71, 49
16, 96597, Note_on_c, 3, 70, 0
16, 96597, Note_on_c, 3, 71, 49
16, 96939, Note_on_c, 3, 79, 0
16, 96939, Note_on_c, 3, 76, 49
16, 96939, Note_on_c, 3, 71, 0
16, 96939, Note_on_c, 3, 73, 49
16, 96939, Note_on_c, 3, 71, 0
16, 96939, Note_on_c, 3, 70, 49
16, 97280, Note_on_c, 3, 76, 0
16, 97280, Note_on_c, 3, 74, 48
16, 97280, Note_on_c, 3, 73, 0
16, 97280, Note_on_c, 3, 71, 48
16, 97280, Note_on_c, 3, 70, 0
16, 97280, Note_on_c, 3, 66, 48
16, 97621, Note_on_c, 3, 74, 0
16, 97621, Note_on_c, 3, 73, 47
16, 97621, Note_on_c, 3, 71, 0
16, 97621, Note_on_c, 3, 70, 47
16, 97621, Note_on_c, 3, 66, 0
16, 97621, Note_on_c, 3, 64, 47
16, 97963, Note_on_c, 3, 73, 0
16, 97963, Note_on_c, 3, 74, 46
16, 97963, Note_on_c, 3, 70, 0
16, 97963, Note_on_c, 3, 71, 46
16, 97963, Note_on_c, 3, 64, 0
16, 97963, Note_on_c, 3, 66, 46
16, 98304, Note_on_c, 3, 74, 0
16, 98304, Note_on_c, 3, 71, 44
16, 98304, Note_on_c, 3, 71, 0
16, 98304, Note_on_c, 3, 66, 44
16, 98304, Note_on_c, 3, 66, 0
16, 98304, Note_on_c, 3, 62, 44
16, 98645, Note_on_c, 3, 71, 0
16, 98645, Note_on_c, 3, 74, 43
16, 98645, Note_on_c, 3, 66, 0
16, 98645, Note_on_c, 3, 71, 43
16, 98645, Note_on_c, 3, 62, 0
16, 98645, Note_on_c, 3, 66, 43
16, 98987, Note_on_c, 3, 74, 0
16, 98987, Note_on_c, 3, 78, 42
16, 98987, Note_on_c, 3, 71, 0
16, 98987, Note_on_c, 3, 74, 42
16, 98987, Note_on_c, 3, 66, 0
16, 98987, Note_on_c, 3, 71, 42
16, 99328, Note_on_c, 3, 78, 0
16, 99328, Note_on_c, 3, 74, 0
16, 99328, Note_on_c, 3, 71, 0
16, 99328, Note_on_c, 3, 79, 40
16, 99328, Note_on_c, 3, 76, 40
16, 99328, Note_on_c, 3, 71, 40
16, 103424, Note_on_c, 3, 71, 0
16, 103424, Note_on_c, 3, 69, 40
16, 107520, Note_on_c, 3, 79, 0
16, 107520, Note_on_c, 3, 76, 0
16, 107520, Note_on_c, 3, 78, 40
16, 107520, Note_on_c, 3, 74, 40
16, 111616, Note_on_c, 3, 69, 0
16, 111616, Note_on_c, 3, 67, 40
16, 112197, Note_on_c, 3, 78, 0
16, 112197, Note_on_c, 3, 74, 0
16, 112197, Note_on_c, 3, 67, 0
16, 112299, Note_on_c, 3, 71, 41
16, 112299, Note_on_c, 3, 67, 41
16, 112299, Note_on_c, 3, 62, 41
16, 112640, Note_on_c, 3, 71, 0
16, 112640, Note_on_c, 3, 76, 41
16, 112640, Note_on_c, 3, 67, 0
16, 112640, Note_on_c, 3, 71, 41
16, 112640, Note_on_c, 3, 62, 0
16, 112640, Note_on_c, 3, 67, 41
16, 113221, Note_on_c, 3, 71, 0
16, 113221, Note_on_c, 3, 67, 0
16, 113323, Note_on_c, 3, 67, 42
16, 113323, Note_on_c, 3, 64, 42
16, 113664, Note_on_c, 3, 67, 0
16, 113664, Note_on_c, 3, 69, 43
16, 113664, Note_on_c, 3, 64, 0
16, 113664, Note_on_c, 3, 66, 43
16, 114245, Note_on_c, 3, 76, 0
16, 114245, Note_on_c, 3, 69, 0
16, 114245, Note_on_c, 3, 66, 0
16, 114347, Note_on_c, 3, 69, 44
16, 114347, Note_on_c, 3, 66, 44
16, 114347, Note_on_c, 3, 73, 44
16, 114688, Note_on_c, 3, 69, 0
16, 114688, Note_on_c, 3, 74, 45
16, 114688, Note_on_c, 3, 66, 0
16, 114688, Note_on_c, 3, 69, 45
16, 114688, Note_on_c, 3, 73, 0
16, 114688, Note_on_c, 3, 66, 45
16, 115269, Note_on_c, 3, 69, 0
16, 115269, Note_on_c, 3, 66, 0
16, 115371, Note_on_c, 3, 66, 46
16, 115371, Note_on_c, 3, 62, 46
16, 115712, Note_on_c, 3, 66, 0
16, 115712, Note_on_c, 3, 62, 0
16, 115712, Note_on_c, 3, 67, 46
16, 115712, Note_on_c, 3, 64, 46
16, 116293, Note_on_c, 3, 74, 0
16, 116293, Note_on_c, 3, 67, 0
16, 116293, Note_on_c, 3, 64, 0
16, 116395, Note_on_c, 3, 76, 47
16, 116395, Note_on_c, 3, 64, 47
16, 116395, Note_on_c, 3, 67, 47
16, 116736, Note_on_c, 3, 76, 0
16, 116736, Note_on_c, 3, 73, 48
16, 116736, Note_on_c, 3, 64, 0
16, 116736, Note_on_c, 3, 67, 48
16, 116736, Note_on_c, 3, 67, 0
16, 116736, Note_on_c, 3, 64, 48
16, 117317, Note_on_c, 3, 67, 0
16, 117317, Note_on_c, 3, 64, 0
16, 117419, Note_on_c, 3, 64, 49
16, 117419, Note_on_c, 3, 69, 49
16, 117606, Note_on_c, 3, 73, 0
16, 117760, Note_on_c, 3, 74, 50
16, 117760, Note_on_c, 3, 64, 0
16, 117760, Note_on_c, 3, 66, 50
16, 117760, Note_on_c, 3, 69, 0
16, 117760, Note_on_c, 3, 69, 50
16, 118341, Note_on_c, 3, 74, 0
16, 118341, Note_on_c, 3, 66, 0
16, 118341, Note_on_c, 3, 69, 0
16, 118443, Note_on_c, 3, 69, 51
16, 118443, Note_on_c, 3, 62, 51
16, 118443, Note_on_c, 3, 66, 51
16, 118784, Note_on_c, 3, 69, 0
16, 118784, Note_on_c, 3, 78, 51
16, 118784, Note_on_c, 3, 62, 0
16, 118784, Note_on_c, 3, 74, 51
16, 118784, Note_on_c, 3, 66, 0
16, 118784, Note_on_c, 3, 62, 51
16, 119125, Note_on_c, 3, 62, 0
16, 119125, Note_on_c, 3, 64, 52
16, 119467, Note_on_c, 3, 64, 0
16, 119467, Note_on_c, 3, 66, 52
16, 119808, Note_on_c, 3, 66, 0
16, 119808, Note_on_c, 3, 67, 52
16, 120149, Note_on_c, 3, 78, 0
16, 120149, Note_on_c, 3, 79, 52
16, 120149, Note_on_c, 3, 74, 0
16, 120149, Note_on_c, 3, 76, 52
16, 120149, Note_on_c, 3, 67, 0
16, 120149, Note_on_c, 3, 71, 52
16, 120491, Note_on_c, 3, 79, 0
16, 120491, Note_on_c, 3, 78, 52
16, 120491, Note_on_c, 3, 76, 0
16, 120491, Note_on_c, 3, 74, 52
16, 120491, Note_on_c, 3, 71, 0
16, 120491, Note_on_c, 3, 69, 52
16, 120832, Note_on_c, 3, 78, 0
16, 120832, Note_on_c, 3, 76, 52
16, 120832, Note_on_c, 3, 74, 0
16, 120832, Note_on_c, 3, 73, 52
16, 120832, Note_on_c, 3, 69, 0
16, 120832, Note_on_c, 3, 67, 52
16, 121173, Note_on_c, 3, 76, 0
16, 121173, Note_on_c, 3, 78, 52
16, 121173, Note_on_c, 3, 73, 0
16, 121173, Note_on_c, 3, 74, 52
16, 121515, Note_on_c, 3, 78, 0
16, 121515, Note_on_c, 3, 74, 52
16, 121515, Note_on_c, 3, 74, 0
16, 121515, Note_on_c, 3, 71, 52
16, 121856, Note_on_c, 3, 74, 0
16, 121856, Note_on_c, 3, 73, 52
16, 121856, Note_on_c, 3, 71, 0
16, 121856, Note_on_c, 3, 69, 52
16, 122197, Note_on_c, 3, 73, 0
16, 122197, Note_on_c, 3, 74, 52
16, 122197, Note_on_c, 3, 67, 0
16, 122197, Note_on_c, 3, 69, 52
16, 122539, Note_on_c, 3, 74, 0
16, 122539, Note_on_c, 3, 76, 52
16, 122539, Note_on_c, 3, 69, 0
16, 122539, Note_on_c, 3, 67, 52
16, 122726, Note_on_c, 3, 69, 0
16, 122880, Note_on_c, 3, 76, 0
16, 122880, Note_on_c, 3, 69, 52
16, 122880, Note_on_c, 3, 78, 52
16, 122880, Note_on_c, 3, 67, 0
16, 122880, Note_on_c, 3, 66, 52
16, 123221, Note_on_c, 3, 66, 0
16, 123221, Note_on_c, 3, 67, 52
16, 123563, Note_on_c, 3, 67, 0
16, 123563, Note_on_c, 3, 64, 52
16, 123750, Note_on_c, 3, 69, 0
16, 123904, Note_on_c, 3, 64, 0
16, 123904, Note_on_c, 3, 62, 52
16, 124245, Note_on_c, 3, 78, 0
16, 124245, Note_on_c, 3, 79, 52
16, 124587, Note_on_c, 3, 79, 0
16, 124587, Note_on_c, 3, 78, 52
16, 124774, Note_on_c, 3, 62, 0
16, 124928, Note_on_c, 3, 78, 0
16, 124928, Note_on_c, 3, 76, 52
16, 124928, Note_on_c, 3, 71, 52
16, 125269, Note_on_c, 3, 76, 0
16, 125269, Note_on_c, 3, 78, 52
16, 125611, Note_on_c, 3, 78, 0
16, 125611, Note_on_c, 3, 74, 52
16, 125952, Note_on_c, 3, 74, 0
16, 125952, Note_on_c, 3, 73, 52
16, 126293, Note_on_c, 3, 71, 0
16, 126293, Note_on_c, 3, 73, 52
16, 126635, Note_on_c, 3, 73, 0
16, 126635, Note_on_c, 3, 71, 52
16, 126976, Note_on_c, 3, 71, 0
16, 126976, Note_on_c, 3, 69, 52
16, 127317, Note_on_c, 3, 73, 0
16, 127317, Note_on_c, 3, 71, 52
16, 127317, Note_on_c, 3, 69, 0
16, 127317, Note_on_c, 3, 71, 52
16, 127659, Note_on_c, 3, 71, 0
16, 127659, Note_on_c, 3, 73, 52
16, 127659, Note_on_c, 3, 71, 0
16, 127659, Note_on_c, 3, 67, 52
16, 128000, Note_on_c, 3, 73, 0
16, 128000, Note_on_c, 3, 67, 0
16, 128000, Note_on_c, 3, 74, 52
16, 128000, Note_on_c, 3, 66, 52
16, 128341, Note_on_c, 3, 66, 0
16, 128341, Note_on_c, 3, 64, 52
16, 128683, Note_on_c, 3, 64, 0
16, 128683, Note_on_c, 3, 66, 52
16, 129024, Note_on_c, 3, 71, 52
16, 129024, Note_on_c, 3, 66, 0
16, 129024, Note_on_c, 3, 67, 52
16, 129365, Note_on_c, 3, 74, 0
16, 129365, Note_on_c, 3, 73, 52
16, 129707, Note_on_c, 3, 73, 0
16, 129707, Note_on_c, 3, 74, 52
16, 130048, Note_on_c, 3, 74, 0
16, 130048, Note_on_c, 3, 76, 52
16, 130389, Note_on_c, 3, 71, 0
16, 130389, Note_on_c, 3, 73, 54
16, 130389, Note_on_c, 3, 67, 0
16, 130389, Note_on_c, 3, 66, 54
16, 130731, Note_on_c, 3, 73, 0
16, 130731, Note_on_c, 3, 71, 58
16, 130731, Note_on_c, 3, 66, 0
16, 130731, Note_on_c, 3, 67, 58
16, 131072, Note_on_c, 3, 71, 0
16, 131072, Note_on_c, 3, 69, 61
16, 131072, Note_on_c, 3, 67, 0
16, 131072, Note_on_c, 3, 69, 61
16, 131413, Note_on_c, 3, 69, 0
16, 131413, Note_on_c, 3, 71, 65
16, 131413, Note_on_c, 3, 76, 0
16, 131413, Note_on_c, 3, 74, 65
16, 131755, Note_on_c, 3, 71, 0
16, 131755, Note_on_c, 3, 67, 69
16, 131755, Note_on_c, 3, 74, 0
16, 131755, Note_on_c, 3, 76, 69
16, 132096, Note_on_c, 3, 67, 0
16, 132096, Note_on_c, 3, 76, 0
16, 132096, Note_on_c, 3, 66, 72
16, 132096, Note_on_c, 3, 78, 72
16, 132437, Note_on_c, 3, 66, 0
16, 132437, Note_on_c, 3, 68, 73
16, 132437, Note_on_c, 3, 69, 0
16, 132437, Note_on_c, 3, 62, 73
16, 132677, Note_on_c, 3, 78, 0
16, 132779, Note_on_c, 3, 68, 0
16, 132779, Note_on_c, 3, 69, 74
16, 132779, Note_on_c, 3, 76, 74
16, 132779, Note_on_c, 3, 62, 0
16, 132779, Note_on_c, 3, 64, 74
16, 133120, Note_on_c, 3, 69, 0
16, 133120, Note_on_c, 3, 71, 75
16, 133120, Note_on_c, 3, 76, 0
16, 133120, Note_on_c, 3, 74, 75
16, 133120, Note_on_c, 3, 64, 0
16, 133120, Note_on_c, 3, 66, 75
16, 133461, Note_on_c, 3, 71, 0
16, 133461, Note_on_c, 3, 69, 76
16, 133461, Note_on_c, 3, 74, 0
16, 133461, Note_on_c, 3, 73, 76
16, 133461, Note_on_c, 3, 66, 0
16, 133461, Note_on_c, 3, 64, 76
16, 133803, Note_on_c, 3, 69, 0
16, 133803, Note_on_c, 3, 71, 77
16, 133803, Note_on_c, 3, 73, 0
16, 133803, Note_on_c, 3, 74, 77
16, 133803, Note_on_c, 3, 64, 0
16, 133803, Note_on_c, 3, 66, 77
16, 134144, Note_on_c, 3, 71, 0
16, 134144, Note_on_c, 3, 68, 78
16, 134144, Note_on_c, 3, 74, 0
16, 134144, Note_on_c, 3, 71, 78
16, 134144, Note_on_c, 3, 66, 0
16, 134144, Note_on_c, 3, 68, 78
16, 134485, Note_on_c, 3, 68, 0
16, 134485, Note_on_c, 3, 69, 79
16, 134485, Note_on_c, 3, 71, 0
16, 134485, Note_on_c, 3, 73, 79
16, 134485, Note_on_c, 3, 68, 0
16, 134485, Note_on_c, 3, 64, 79
16, 134827, Note_on_c, 3, 69, 0
16, 134827, Note_on_c, 3, 71, 80
16, 134827, Note_on_c, 3, 73, 0
16, 134827, Note_on_c, 3, 74, 80
16, 134827, Note_on_c, 3, 64, 0
16, 134827, Note_on_c, 3, 66, 80
16, 135168, Note_on_c, 3, 71, 0
16, 135168, Note_on_c, 3, 73, 81
16, 135168, Note_on_c, 3, 74, 0
16, 135168, Note_on_c, 3, 76, 81
16, 135168, Note_on_c, 3, 66, 0
16, 135168, Note_on_c, 3, 68, 81
16, 135509, Note_on_c, 3, 73, 0
16, 135509, Note_on_c, 3, 71, 82
16, 135509, Note_on_c, 3, 76, 0
16, 135509, Note_on_c, 3, 74, 82
16, 135509, Note_on_c, 3, 68, 0
16, 135509, Note_on_c, 3, 66, 82
16, 135851, Note_on_c, 3, 71, 0
16, 135851, Note_on_c, 3, 73, 82
16, 135851, Note_on_c, 3, 74, 0
16, 135851, Note_on_c, 3, 76, 82
16, 135851, Note_on_c, 3, 66, 0
16, 135851, Note_on_c, 3, 68, 82
16, 136192, Note_on_c, 3, 73, 0
16, 136192, Note_on_c, 3, 76, 0
16, 136192, Note_on_c, 3, 68, 0
16, 136192, Note_on_c, 3, 69, 83
16, 136192, Note_on_c, 3, 73, 83
16, 136192, Note_on_c, 3, 69, 83
16, 136533, Note_on_c, 3, 69, 0
16, 136533, Note_on_c, 3, 71, 84
16, 136533, Note_on_c, 3, 73, 0
16, 136533, Note_on_c, 3, 74, 84
16, 136533, Note_on_c, 3, 69, 0
16, 136533, Note_on_c, 3, 66, 84
16, 136875, Note_on_c, 3, 71, 0
16, 136875, Note_on_c, 3, 73, 85
16, 136875, Note_on_c, 3, 74, 0
16, 136875, Note_on_c, 3, 76, 85
16, 136875, Note_on_c, 3, 66, 0
16, 136875, Note_on_c, 3, 68, 85
16, 137216, Note_on_c, 3, 73, 0
16, 137216, Note_on_c, 3, 74, 86
16, 137216, Note_on_c, 3, 76, 0
16, 137216, Note_on_c, 3, 78, 86
16, 137216, Note_on_c, 3, 68, 0
16, 137216, Note_on_c, 3, 69, 86
16, 137557, Note_on_c, 3, 74, 0
16, 137557, Note_on_c, 3, 73, 87
16, 137557, Note_on_c, 3, 78, 0
16, 137557, Note_on_c, 3, 76, 87
16, 137557, Note_on_c, 3, 69, 0
16, 137557, Note_on_c, 3, 68, 87
16, 137899, Note_on_c, 3, 73, 0
16, 137899, Note_on_c, 3, 74, 88
16, 137899, Note_on_c, 3, 76, 0
16, 137899, Note_on_c, 3, 78, 88
16, 137899, Note_on_c, 3, 68, 0
16, 137899, Note_on_c, 3, 69, 88
16, 138240, Note_on_c, 3, 74, 0
16, 138240, Note_on_c, 3, 71, 89
16, 138240, Note_on_c, 3, 78, 0
16, 138240, Note_on_c, 3, 74, 89
16, 138240, Note_on_c, 3, 69, 0
16, 138240, Note_on_c, 3, 71, 89
16, 138581, Note_on_c, 3, 71, 0
16, 138581, Note_on_c, 3, 73, 90
16, 138581, Note_on_c, 3, 74, 0
16, 138581, Note_on_c, 3, 76, 90
16, 138581, Note_on_c, 3, 71, 0
16, 138581, Note_on_c, 3, 68, 90
16, 138923, Note_on_c, 3, 73, 0
16, 138923, Note_on_c, 3, 74, 91
16, 138923, Note_on_c, 3, 76, 0
16, 138923, Note_on_c, 3, 78, 91
16, 138923, Note_on_c, 3, 68, 0
16, 138923, Note_on_c, 3, 69, 91
16, 139264, Note_on_c, 3, 74, 0
16, 139264, Note_on_c, 3, 76, 92
16, 139264, Note_on_c, 3, 78, 0
16, 139264, Note_on_c, 3, 71, 92
16, 139264, Note_on_c, 3, 69, 0
16, 139264, Note_on_c, 3, 71, 92
16, 139605, Note_on_c, 3, 76, 0
16, 139605, Note_on_c, 3, 74, 92
16, 139845, Note_on_c, 3, 71, 0
16, 139947, Note_on_c, 3, 74, 0
16, 139947, Note_on_c, 3, 76, 93
16, 139947, Note_on_c, 3, 64, 93
16, 140134, Note_on_c, 3, 71, 0
16, 140288, Note_on_c, 3, 76, 0
16, 140288, Note_on_c, 3, 64, 0
16, 140288, Note_on_c, 3, 73, 94
16, 140288, Note_on_c, 3, 69, 94
16, 140288, Note_on_c, 3, 64, 94
16, 140869, Note_on_c, 3, 73, 0
16, 140869, Note_on_c, 3, 69, 0
16, 140869, Note_on_c, 3, 64, 0
16, 140971, Note_on_c, 3, 69, 91
16, 140971, Note_on_c, 3, 64, 91
16, 140971, Note_on_c, 3, 73, 91
16, 141312, Note_on_c, 3, 69, 0
16, 141312, Note_on_c, 3, 73, 95
16, 141312, Note_on_c, 3, 64, 0
16, 141312, Note_on_c, 3, 69, 95
16, 141312, Note_on_c, 3, 73, 0
16, 141312, Note_on_c, 3, 64, 95
16, 141893, Note_on_c, 3, 73, 0
16, 141893, Note_on_c, 3, 69, 0
16, 141893, Note_on_c, 3, 64, 0
16, 141995, Note_on_c, 3, 69, 94
16, 141995, Note_on_c, 3, 64, 94
16, 141995, Note_on_c, 3, 73, 94
16, 142336, Note_on_c, 3, 69, 0
16, 142336, Note_on_c, 3, 76, 94
16, 142336, Note_on_c, 3, 64, 0
16, 142336, Note_on_c, 3, 73, 94
16, 142336, Note_on_c, 3, 73, 0
16, 142336, Note_on_c, 3, 69, 94
16, 142917, Note_on_c, 3, 76, 0
16, 142917, Note_on_c, 3, 73, 0
16, 142917, Note_on_c, 3, 69, 0
16, 143019, Note_on_c, 3, 73, 94
16, 143019, Note_on_c, 3, 69, 94
16, 143019, Note_on_c, 3, 64, 94
16, 143360, Note_on_c, 3, 73, 0
16, 143360, Note_on_c, 3, 76, 94
16, 143360, Note_on_c, 3, 69, 0
16, 143360, Note_on_c, 3, 73, 94
16, 143360, Note_on_c, 3, 64, 0
16, 143360, Note_on_c, 3, 69, 94
16, 143941, Note_on_c, 3, 76, 0
16, 143941, Note_on_c, 3, 73, 0
16, 143941, Note_on_c, 3, 69, 0
16, 144043, Note_on_c, 3, 73, 94
16, 144043, Note_on_c, 3, 69, 94
16, 144043, Note_on_c, 3, 64, 94
16, 144384, Note_on_c, 3, 73, 0
16, 144384, Note_on_c, 3, 69, 0
16, 144384, Note_on_c, 3, 64, 0
16, 144384, Note_on_c, 3, 78, 94
16, 144384, Note_on_c, 3, 73, 94
16, 144384, Note_on_c, 3, 69, 94
16, 144965, Note_on_c, 3, 78, 0
16, 144965, Note_on_c, 3, 73, 0
16, 144965, Note_on_c, 3, 69, 0
16, 145067, Note_on_c, 3, 73, 94
16, 145067, Note_on_c, 3, 69, 94
16, 145067, Note_on_c, 3, 66, 94
16, 145408, Note_on_c, 3, 73, 0
16, 145408, Note_on_c, 3, 78, 94
16, 145408, Note_on_c, 3, 69, 0
16, 145408, Note_on_c, 3, 73, 94
16, 145408, Note_on_c, 3, 66, 0
16, 145408, Note_on_c, 3, 69, 94
16, 145989, Note_on_c, 3, 78, 0
16, 145989, Note_on_c, 3, 73, 0
16, 145989, Note_on_c, 3, 69, 0
16, 146091, Note_on_c, 3, 73, 94
16, 146091, Note_on_c, 3, 69, 94
16, 146091, Note_on_c, 3, 66, 94
16, 146432, Note_on_c, 3, 73, 0
16, 146432, Note_on_c, 3, 80, 94
16, 146432, Note_on_c, 3, 69, 0
16, 146432, Note_on_c, 3, 73, 94
16, 146432, Note_on_c, 3, 66, 0
16, 146432, Note_on_c, 3, 68, 94
16, 146773, Note_on_c, 3, 80, 0
16, 146773, Note_on_c, 3, 86, 94
16, 146773, Note_on_c, 3, 73, 0
16, 146773, Note_on_c, 3, 83, 94
16, 146773, Note_on_c, 3, 68, 0
16, 146773, Note_on_c, 3, 66, 94
16, 147115, Note_on_c, 3, 86, 0
16, 147115, Note_on_c, 3, 85, 94
16, 147115, Note_on_c, 3, 83, 0
16, 147115, Note_on_c, 3, 81, 94
16, 147115, Note_on_c, 3, 66, 0
16, 147115, Note_on_c, 3, 65, 94
16, 147456, Note_on_c, 3, 85, 0
16, 147456, Note_on_c, 3, 83, 94
16, 147456, Note_on_c, 3, 81, 0
16, 147456, Note_on_c, 3, 80, 94
16, 147456, Note_on_c, 3, 65, 0
16, 147456, Note_on_c, 3, 74, 94
16, 147797, Note_on_c, 3, 83, 0
16, 147797, Note_on_c, 3, 81, 94
16, 147797, Note_on_c, 3, 80, 0
16, 147797, Note_on_c, 3, 78, 94
16, 147797, Note_on_c, 3, 74, 0
16, 147797, Note_on_c, 3, 73, 94
16, 148139, Note_on_c, 3, 81, 0
16, 148139, Note_on_c, 3, 80, 94
16, 148139, Note_on_c, 3, 78, 0
16, 148139, Note_on_c, 3, 80, 94
16, 148139, Note_on_c, 3, 73, 0
16, 148139, Note_on_c, 3, 71, 94
16, 148480, Note_on_c, 3, 80, 0
16, 148480, Note_on_c, 3, 80, 0
16, 148480, Note_on_c, 3, 71, 0
16, 148480, Note_on_c, 3, 78, 94
16, 148480, Note_on_c, 3, 73, 94
16, 148480, Note_on_c, 3, 69, 94
16, 148821, Note_on_c, 3, 78, 0
16, 148821, Note_on_c, 3, 80, 88
16, 148821, Note_on_c, 3, 73, 0
16, 148821, Note_on_c, 3, 77, 88
16, 148821, Note_on_c, 3, 69, 0
16, 148821, Note_on_c, 3, 71, 88
16, 149163, Note_on_c, 3, 80, 0
16, 149163, Note_on_c, 3, 81, 91
16, 149163, Note_on_c, 3, 77, 0
16, 149163, Note_on_c, 3, 78, 91
16, 149163, Note_on_c, 3, 71, 0
16, 149163, Note_on_c, 3, 73, 91
16, 149504, Note_on_c, 3, 81, 0
16, 149504, Note_on_c, 3, 78, 93
16, 149504, Note_on_c, 3, 78, 0
16, 149504, Note_on_c, 3, 73, 93
16, 149504, Note_on_c, 3, 73, 0
16, 149504, Note_on_c, 3, 69, 93
16, 149845, Note_on_c, 3, 78, 0
16, 149845, Note_on_c, 3, 80, 94
16, 149845, Note_on_c, 3, 73, 0
16, 149845, Note_on_c, 3, 77, 94
16, 149845, Note_on_c, 3, 69, 0
16, 149845, Note_on_c, 3, 71, 94
16, 150187, Note_on_c, 3, 80, 0
16, 150187, Note_on_c, 3, 81, 94
16, 150187, Note_on_c, 3, 77, 0
16, 150187, Note_on_c, 3, 78, 94
16, 150187, Note_on_c, 3, 71, 0
16, 150187, Note_on_c, 3, 73, 94
16, 150528, Note_on_c, 3, 81, 0
16, 150528, Note_on_c, 3, 78, 94
16, 150528, Note_on_c, 3, 78, 0
16, 150528, Note_on_c, 3, 73, 94
16, 150528, Note_on_c, 3, 73, 0
16, 150528, Note_on_c, 3, 69, 94
16, 150869, Note_on_c, 3, 78, 0
16, 150869, Note_on_c, 3, 80, 94
16, 150869, Note_on_c, 3, 73, 0
16, 150869, Note_on_c, 3, 76, 94
16, 150869, Note_on_c, 3, 69, 0
16, 150869, Note_on_c, 3, 71, 94
16, 151211, Note_on_c, 3, 80, 0
16, 151211, Note_on_c, 3, 81, 94
16, 151211, Note_on_c, 3, 76, 0
16, 151211, Note_on_c, 3, 78, 94
16, 151211, Note_on_c, 3, 71, 0
16, 151211, Note_on_c, 3, 73, 94
16, 151552, Note_on_c, 3, 81, 0
16, 151552, Note_on_c, 3, 78, 94
16, 151552, Note_on_c, 3, 78, 0
16, 151552, Note_on_c, 3, 73, 94
16, 151552, Note_on_c, 3, 73, 0
16, 151552, Note_on_c, 3, 69, 94
16, 151893, Note_on_c, 3, 78, 0
16, 151893, Note_on_c, 3, 80, 94
16, 151893, Note_on_c, 3, 73, 0
16, 151893, Note_on_c, 3, 76, 94
16, 151893, Note_on_c, 3, 69, 0
16, 151893, Note_on_c, 3, 71, 94
16, 152235, Note_on_c, 3, 80, 0
16, 152235, Note_on_c, 3, 81, 94
16, 152235, Note_on_c, 3, 76, 0
16, 152235, Note_on_c, 3, 78, 94
16, 152235, Note_on_c, 3, 71, 0
16, 152235, Note_on_c, 3, 73, 94
16, 152576, Note_on_c, 3, 81, 0
16, 152576, Note_on_c, 3, 78, 0
16, 152576, Note_on_c, 3, 73, 0
16, 152576, Note_on_c, 3, 78, 94
16, 152576, Note_on_c, 3, 74, 94
16, 152576, Note_on_c, 3, 69, 94
16, 152917, Note_on_c, 3, 78, 0
16, 152917, Note_on_c, 3, 80, 94
16, 152917, Note_on_c, 3, 74, 0
16, 152917, Note_on_c, 3, 76, 94
16, 152917, Note_on_c, 3, 69, 0
16, 152917, Note_on_c, 3, 76, 94
16, 153259, Note_on_c, 3, 80, 0
16, 153259, Note_on_c, 3, 81, 94
16, 153259, Note_on_c, 3, 76, 0
16, 153259, Note_on_c, 3, 78, 94
16, 153259, Note_on_c, 3, 76, 0
16, 153259, Note_on_c, 3, 74, 94
16, 153600, Note_on_c, 3, 81, 0
16, 153600, Note_on_c, 3, 78, 94
16, 153600, Note_on_c, 3, 78, 0
16, 153600, Note_on_c, 3, 74, 94
16, 153600, Note_on_c, 3, 74, 0
16, 153600, Note_on_c, 3, 69, 94
16, 153941, Note_on_c, 3, 78, 0
16, 153941, Note_on_c, 3, 80, 94
16, 153941, Note_on_c, 3, 74, 0
16, 153941, Note_on_c, 3, 76, 94
16, 153941, Note_on_c, 3, 69, 0
16, 153941, Note_on_c, 3, 76, 94
16, 154283, Note_on_c, 3, 80, 0
16, 154283, Note_on_c, 3, 81, 94
16, 154283, Note_on_c, 3, 76, 0
16, 154283, Note_on_c, 3, 78, 94
16, 154283, Note_on_c, 3, 76, 0
16, 154283, Note_on_c, 3, 74, 94
16, 154624, Note_on_c, 3, 81, 0
16, 154624, Note_on_c, 3, 78, 0
16, 154624, Note_on_c, 3, 74, 0
16, 156672, Note_on_c, 3, 78, 94
16, 156672, Note_on_c, 3, 74, 94
16, 156672, Note_on_c, 3, 69, 94
16, 157253, Note_on_c, 3, 78, 0
16, 157253, Note_on_c, 3, 74, 0
16, 157253, Note_on_c, 3, 69, 0
16, 157355, Note_on_c, 3, 74, 91
16, 157355, Note_on_c, 3, 69, 91
16, 157355, Note_on_c, 3, 66, 91
16, 157696, Note_on_c, 3, 74, 0
16, 157696, Note_on_c, 3, 78, 94
16, 157696, Note_on_c, 3, 69, 0
16, 157696, Note_on_c, 3, 74, 94
16, 157696, Note_on_c, 3, 66, 0
16, 157696, Note_on_c, 3, 69, 94
16, 158277, Note_on_c, 3, 78, 0
16, 158277, Note_on_c, 3, 74, 0
16, 158277, Note_on_c, 3, 69, 0
16, 158379, Note_on_c, 3, 74, 94
16, 158379, Note_on_c, 3, 69, 94
16, 158379, Note_on_c, 3, 66, 94
16, 158720, Note_on_c, 3, 74, 0
16, 158720, Note_on_c, 3, 81, 94
16, 158720, Note_on_c, 3, 69, 0
16, 158720, Note_on_c, 3, 78, 94
16, 158720, Note_on_c, 3, 66, 0
16, 158720, Note_on_c, 3, 74, 94
16, 159301, Note_on_c, 3, 81, 0
16, 159301, Note_on_c, 3, 78, 0
16, 159301, Note_on_c, 3, 74, 0
16, 159403, Note_on_c, 3, 78, 94
16, 159403, Note_on_c, 3, 74, 94
16, 159403, Note_on_c, 3, 69, 94
16, 159744, Note_on_c, 3, 78, 0
16, 159744, Note_on_c, 3, 81, 94
16, 159744, Note_on_c, 3, 74, 0
16, 159744, Note_on_c, 3, 78, 94
16, 159744, Note_on_c, 3, 69, 0
16, 159744, Note_on_c, 3, 74, 94
16, 160325, Note_on_c, 3, 81, 0
16, 160325, Note_on_c, 3, 78, 0
16, 160325, Note_on_c, 3, 74, 0
16, 160427, Note_on_c, 3, 78, 94
16, 160427, Note_on_c, 3, 74, 94
16, 160427, Note_on_c, 3, 69, 94
16, 160768, Note_on_c, 3, 78, 0
16, 160768, Note_on_c, 3, 74, 0
16, 160768, Note_on_c, 3, 69, 0
16, 160768, Note_on_c, 3, 83, 94
16, 160768, Note_on_c, 3, 78, 94
16, 160768, Note_on_c, 3, 74, 94
16, 161349, Note_on_c, 3, 83, 0
16, 161349, Note_on_c, 3, 78, 0
16, 161349, Note_on_c, 3, 74, 0
16, 161451, Note_on_c, 3, 78, 91
16, 161451, Note_on_c, 3, 74, 91
16, 161451, Note_on_c, 3, 71, 91
16, 161792, Note_on_c, 3, 78, 0
16, 161792, Note_on_c, 3, 83, 90
16, 161792, Note_on_c, 3, 74, 0
16, 161792, Note_on_c, 3, 78, 90
16, 161792, Note_on_c, 3, 71, 0
16, 161792, Note_on_c, 3, 74, 90
16, 162373, Note_on_c, 3, 83, 0
16, 162373, Note_on_c, 3, 78, 0
16, 162373, Note_on_c, 3, 74, 0
16, 162475, Note_on_c, 3, 78, 87
16, 162475, Note_on_c, 3, 74, 87
16, 162475, Note_on_c, 3, 71, 87
16, 162816, Note_on_c, 3, 78, 0
16, 162816, Note_on_c, 3, 85, 84
16, 162816, Note_on_c, 3, 74, 0
16, 162816, Note_on_c, 3, 78, 84
16, 162816, Note_on_c, 3, 71, 0
16, 162816, Note_on_c, 3, 73, 84
16, 163157, Note_on_c, 3, 85, 0
16, 163157, Note_on_c, 3, 79, 80
16, 163157, Note_on_c, 3, 78, 0
16, 163157, Note_on_c, 3, 76, 80
16, 163157, Note_on_c, 3, 73, 0
16, 163157, Note_on_c, 3, 71, 80
16, 163499, Note_on_c, 3, 79, 0
16, 163499, Note_on_c, 3, 78, 77
16, 163499, Note_on_c, 3, 76, 0
16, 163499, Note_on_c, 3, 74, 77
16, 163499, Note_on_c, 3, 71, 0
16, 163499, Note_on_c, 3, 70, 77
16, 163840, Note_on_c, 3, 78, 0
16, 163840, Note_on_c, 3, 76, 73
16, 163840, Note_on_c, 3, 74, 0
16, 163840, Note_on_c, 3, 73, 73
16, 163840, Note_on_c, 3, 70, 0
16, 163840, Note_on_c, 3, 67, 73
16, 164181, Note_on_c, 3, 76, 0
16, 164181, Note_on_c, 3, 74, 70
16, 164181, Note_on_c, 3, 73, 0
16, 164181, Note_on_c, 3, 71, 70
16, 164181, Note_on_c, 3, 67, 0
16, 164181, Note_on_c, 3, 66, 70
16, 164523, Note_on_c, 3, 74, 0
16, 164523, Note_on_c, 3, 73, 66
16, 164523, Note_on_c, 3, 71, 0
16, 164523, Note_on_c, 3, 73, 66
16, 164523, Note_on_c, 3, 66, 0
16, 164523, Note_on_c, 3, 64, 66
16, 164864, Note_on_c, 3, 73, 0
16, 164864, Note_on_c, 3, 73, 0
16, 164864, Note_on_c, 3, 64, 0
16, 164864, Note_on_c, 3, 74, 58
16, 164864, Note_on_c, 3, 71, 58
16, 164864, Note_on_c, 3, 66, 58
16, 168960, Note_on_c, 3, 66, 0
16, 168960, Note_on_c, 3, 64, 58
16, 173056, Note_on_c, 3, 74, 0
16, 173056, Note_on_c, 3, 71, 0
16, 173056, Note_on_c, 3, 73, 58
16, 173056, Note_on_c, 3, 69, 58
16, 177152, Note_on_c, 3, 64, 0
16, 177152, Note_on_c, 3, 66, 64
16, 178176, Note_on_c, 3, 73, 0
16, 178176, Note_on_c, 3, 71, 62
16, 178176, Note_on_c, 3, 69, 0
16, 178176, Note_on_c, 3, 68, 62
16, 178176, Note_on_c, 3, 66, 0
16, 178176, Note_on_c, 3, 68, 62
16, 180224, Note_on_c, 3, 71, 0
16, 180224, Note_on_c, 3, 69, 69
16, 180224, Note_on_c, 3, 68, 0
16, 180224, Note_on_c, 3, 66, 69
16, 180224, Note_on_c, 3, 68, 0
16, 180224, Note_on_c, 3, 69, 69
16, 180565, Note_on_c, 3, 69, 0
16, 180565, Note_on_c, 3, 71, 70
16, 180907, Note_on_c, 3, 71, 0
16, 180907, Note_on_c, 3, 73, 72
16, 181248, Note_on_c, 3, 73, 0
16, 181248, Note_on_c, 3, 74, 73
16, 181829, Note_on_c, 3, 74, 0
16, 181931, Note_on_c, 3, 62, 75
16, 182272, Note_on_c, 3, 69, 0
16, 182272, Note_on_c, 3, 68, 76
16, 182272, Note_on_c, 3, 66, 0
16, 182272, Note_on_c, 3, 64, 76
16, 182272, Note_on_c, 3, 62, 0
16, 182272, Note_on_c, 3, 64, 76
16, 184320, Note_on_c, 3, 68, 0
16, 184320, Note_on_c, 3, 66, 84
16, 184320, Note_on_c, 3, 64, 0
16, 184320, Note_on_c, 3, 62, 84
16, 184320, Note_on_c, 3, 64, 0
16, 184320, Note_on_c, 3, 66, 84
16, 184661, Note_on_c, 3, 66, 0
16, 184661, Note_on_c, 3, 68, 85
16, 185003, Note_on_c, 3, 68, 0
16, 185003, Note_on_c, 3, 69, 86
16, 185344, Note_on_c, 3, 69, 0
16, 185344, Note_on_c, 3, 71, 87
16, 185925, Note_on_c, 3, 62, 0
16, 186027, Note_on_c, 3, 74, 89
16, 186214, Note_on_c, 3, 66, 0
16, 186368, Note_on_c, 3, 65, 90
16, 186368, Note_on_c, 3, 74, 0
16, 186368, Note_on_c, 3, 73, 90
16, 186709, Note_on_c, 3, 65, 0
16, 186709, Note_on_c, 3, 66, 90
16, 187051, Note_on_c, 3, 66, 0
16, 187051, Note_on_c, 3, 68, 91
16, 187392, Note_on_c, 3, 68, 0
16, 187392, Note_on_c, 3, 69, 92
16, 187392, Note_on_c, 3, 71, 0
16, 187392, Note_on_c, 3, 69, 92
16, 187733, Note_on_c, 3, 69, 0
16, 187733, Note_on_c, 3, 71, 92
16, 188075, Note_on_c, 3, 71, 0
16, 188075, Note_on_c, 3, 73, 93
16, 188262, Note_on_c, 3, 69, 0
16, 188416, Note_on_c, 3, 73, 0
16, 188416, Note_on_c, 3, 74, 94
16, 188416, Note_on_c, 3, 73, 0
16, 188416, Note_on_c, 3, 71, 94
16, 188416, Note_on_c, 3, 68, 94
16, 188757, Note_on_c, 3, 74, 0
16, 188757, Note_on_c, 3, 73, 95
16, 188757, Note_on_c, 3, 68, 0
16, 188757, Note_on_c, 3, 69, 95
16, 189099, Note_on_c, 3, 73, 0
16, 189099, Note_on_c, 3, 71, 95
16, 189099, Note_on_c, 3, 69, 0
16, 189099, Note_on_c, 3, 71, 95
16, 189440, Note_on_c, 3, 71, 0
16, 189440, Note_on_c, 3, 71, 0
16, 189440, Note_on_c, 3, 80, 96
16, 189440, Note_on_c, 3, 73, 96
16, 189781, Note_on_c, 3, 71, 0
16, 189781, Note_on_c, 3, 69, 97
16, 190021, Note_on_c, 3, 80, 0
16, 190123, Note_on_c, 3, 73, 97
16, 190123, Note_on_c, 3, 69, 0
16, 190123, Note_on_c, 3, 68, 97
16, 190310, Note_on_c, 3, 73, 0
16, 190464, Note_on_c, 3, 73, 0
16, 190464, Note_on_c, 3, 78, 98
16, 190464, Note_on_c, 3, 68, 0
16, 190464, Note_on_c, 3, 66, 98
16, 190464, Note_on_c, 3, 73, 98
16, 190805, Note_on_c, 3, 66, 0
16, 190805, Note_on_c, 3, 65, 99
16, 191147, Note_on_c, 3, 65, 0
16, 191147, Note_on_c, 3, 66, 99
16, 191334, Note_on_c, 3, 73, 0
16, 191488, Note_on_c, 3, 66, 0
16, 191488, Note_on_c, 3, 68, 100
16, 191488, Note_on_c, 3, 73, 100
16, 191829, Note_on_c, 3, 68, 0
16, 191829, Note_on_c, 3, 71, 100
16, 192171, Note_on_c, 3, 71, 0
16, 192171, Note_on_c, 3, 69, 100
16, 192512, Note_on_c, 3, 78, 0
16, 192512, Note_on_c, 3, 77, 100
16, 192512, Note_on_c, 3, 69, 0
16, 192512, Note_on_c, 3, 71, 100
16, 193536, Note_on_c, 3, 77, 0
16, 193536, Note_on_c, 3, 71, 0
16, 193536, Note_on_c, 3, 73, 0
16, 193536, Note_on_c, 3, 78, 100
16, 193536, Note_on_c, 3, 69, 100
16, 193536, Note_on_c, 3, 73, 100
16, 193792, Note_on_c, 3, 78, 0
16, 193792, Note_on_c, 3, 69, 0
16, 193792, Note_on_c, 3, 73, 0
16, 230400, Note_on_c, 3, 73, 89
16, 230656, Note_on_c, 3, 73, 0
16, 230912, Note_on_c, 3, 73, 89
16, 230912, Note_on_c, 3, 76, 89
16, 230912, Note_on_c, 3, 73, 89
16, 231168, Note_on_c, 3, 73, 0
16, 231168, Note_on_c, 3, 76, 0
16, 231168, Note_on_c, 3, 78, 89
16, 231168, Note_on_c, 3, 73, 0
16, 231168, Note_on_c, 3, 74, 89
16, 231424, Note_on_c, 3, 73, 89
16, 231424, Note_on_c, 3, 78, 0
16, 231424, Note_on_c, 3, 76, 89
16, 231424, Note_on_c, 3, 74, 0
16, 231424, Note_on_c, 3, 73, 89
16, 231680, Note_on_c, 3, 73, 0
16, 231680, Note_on_c, 3, 76, 0
16, 231680, Note_on_c, 3, 74, 89
16, 231680, Note_on_c, 3, 73, 0
16, 231680, Note_on_c, 3, 71, 89
16, 231936, Note_on_c, 3, 74, 0
16, 231936, Note_on_c, 3, 71, 0
16, 231936, Note_on_c, 3, 81, 89
16, 231936, Note_on_c, 3, 73, 89
16, 231936, Note_on_c, 3, 69, 89
16, 232192, Note_on_c, 3, 81, 0
16, 232192, Note_on_c, 3, 73, 0
16, 232192, Note_on_c, 3, 71, 89
16, 232192, Note_on_c, 3, 69, 0
16, 232192, Note_on_c, 3, 67, 89
16, 232448, Note_on_c, 3, 81, 89
16, 232448, Note_on_c, 3, 71, 0
16, 232448, Note_on_c, 3, 69, 89
16, 232448, Note_on_c, 3, 67, 0
16, 232448, Note_on_c, 3, 66, 89
16, 232704, Note_on_c, 3, 81, 0
16, 232704, Note_on_c, 3, 69, 0
16, 232704, Note_on_c, 3, 71, 89
16, 232704, Note_on_c, 3, 66, 0
16, 232704, Note_on_c, 3, 67, 89
16, 232960, Note_on_c, 3, 81, 89
16, 232960, Note_on_c, 3, 71, 0
16, 232960, Note_on_c, 3, 73, 89
16, 232960, Note_on_c, 3, 67, 0
16, 232960, Note_on_c, 3, 69, 89
16, 233216, Note_on_c, 3, 81, 0
16, 233216, Note_on_c, 3, 73, 0
16, 233216, Note_on_c, 3, 69, 89
16, 233216, Note_on_c, 3, 69, 0
16, 233216, Note_on_c, 3, 66, 89
16, 233472, Note_on_c, 3, 69, 0
16, 233472, Note_on_c, 3, 66, 0
16, 233472, Note_on_c, 3, 74, 89
16, 233472, Note_on_c, 3, 71, 89
16, 233472, Note_on_c, 3, 67, 89
16, 233728, Note_on_c, 3, 71, 0
16, 233728, Note_on_c, 3, 73, 89
16, 233728, Note_on_c, 3, 67, 0
16, 233728, Note_on_c, 3, 69, 89
16, 233984, Note_on_c, 3, 74, 0
16, 233984, Note_on_c, 3, 74, 89
16, 233984, Note_on_c, 3, 73, 0
16, 233984, Note_on_c, 3, 74, 89
16, 233984, Note_on_c, 3, 69, 0
16, 233984, Note_on_c, 3, 71, 89
16, 234240, Note_on_c, 3, 74, 0
16, 234240, Note_on_c, 3, 74, 0
16, 234240, Note_on_c, 3, 76, 89
16, 234240, Note_on_c, 3, 71, 0
16, 234240, Note_on_c, 3, 72, 89
16, 234496, Note_on_c, 3, 76, 89
16, 234496, Note_on_c, 3, 76, 0
16, 234496, Note_on_c, 3, 74, 89
16, 234496, Note_on_c, 3, 72, 0
16, 234496, Note_on_c, 3, 71, 89
16, 234752, Note_on_c, 3, 76, 0
16, 234752, Note_on_c, 3, 78, 89
16, 234752, Note_on_c, 3, 74, 0
16, 234752, Note_on_c, 3, 73, 89
16, 234752, Note_on_c, 3, 71, 0
16, 234752, Note_on_c, 3, 69, 89
16, 235008, Note_on_c, 3, 78, 0
16, 235008, Note_on_c, 3, 73, 0
16, 235008, Note_on_c, 3, 69, 0
16, 235008, Note_on_c, 3, 79, 89
16, 235008, Note_on_c, 3, 71, 89
16, 235008, Note_on_c, 3, 67, 89
16, 235264, Note_on_c, 3, 79, 0
16, 235264, Note_on_c, 3, 81, 89
16, 235264, Note_on_c, 3, 71, 0
16, 235264, Note_on_c, 3, 69, 89
16, 235264, Note_on_c, 3, 67, 0
16, 235264, Note_on_c, 3, 66, 89
16, 235520, Note_on_c, 3, 81, 0
16, 235520, Note_on_c, 3, 83, 89
16, 235520, Note_on_c, 3, 69, 0
16, 235520, Note_on_c, 3, 67, 89
16, 235520, Note_on_c, 3, 66, 0
16, 235520, Note_on_c, 3, 64, 89
16, 235776, Note_on_c, 3, 83, 0
16, 235776, Note_on_c, 3, 81, 89
16, 235776, Note_on_c, 3, 67, 0
16, 235776, Note_on_c, 3, 69, 89
16, 235776, Note_on_c, 3, 64, 0
16, 235776, Note_on_c, 3, 66, 89
16, 236032, Note_on_c, 3, 81, 0
16, 236032, Note_on_c, 3, 79, 89
16, 236032, Note_on_c, 3, 69, 0
16, 236032, Note_on_c, 3, 71, 89
16, 236032, Note_on_c, 3, 66, 0
16, 236032, Note_on_c, 3, 67, 89
16, 236134, Note_on_c, 3, 71, 0
16, 236134, Note_on_c, 3, 73, 89
16, 236134, Note_on_c, 3, 67, 0
16, 236134, Note_on_c, 3, 69, 89
16, 236237, Note_on_c, 3, 73, 0
16, 236237, Note_on_c, 3, 71, 89
16, 236237, Note_on_c, 3, 69, 0
16, 236237, Note_on_c, 3, 67, 89
16, 236288, Note_on_c, 3, 79, 0
16, 236288, Note_on_c, 3, 78, 89
16, 236339, Note_on_c, 3, 71, 0
16, 236339, Note_on_c, 3, 73, 89
16, 236339, Note_on_c, 3, 67, 0
16, 236339, Note_on_c, 3, 69, 89
16, 236442, Note_on_c, 3, 73, 0
16, 236442, Note_on_c, 3, 71, 89
16, 236442, Note_on_c, 3, 69, 0
16, 236442, Note_on_c, 3, 67, 89
16, 236544, Note_on_c, 3, 78, 0
16, 236544, Note_on_c, 3, 71, 0
16, 236544, Note_on_c, 3, 67, 0
16, 236544, Note_on_c, 3, 76, 89
16, 236544, Note_on_c, 3, 73, 89
16, 236544, Note_on_c, 3, 69, 89
16, 236800, Note_on_c, 3, 76, 0
16, 237056, Note_on_c, 3, 74, 89
16, 237312, Note_on_c, 3, 74, 0
16, 237312, Note_on_c, 3, 73, 89
16, 237312, Note_on_c, 3, 73, 0
16, 237312, Note_on_c, 3, 71, 89
16, 237312, Note_on_c, 3, 69, 0
16, 237312, Note_on_c, 3, 67, 89
16, 237568, Note_on_c, 3, 73, 0
16, 237568, Note_on_c, 3, 78, 89
16, 237568, Note_on_c, 3, 71, 0
16, 237568, Note_on_c, 3, 69, 89
16, 237568, Note_on_c, 3, 67, 0
16, 237568, Note_on_c, 3, 66, 89
16, 237824, Note_on_c, 3, 69, 0
16, 237824, Note_on_c, 3, 71, 89
16, 237824, Note_on_c, 3, 66, 0
16, 237824, Note_on_c, 3, 67, 89
16, 238080, Note_on_c, 3, 71, 0
16, 238080, Note_on_c, 3, 67, 0
16, 238080, Note_on_c, 3, 73, 89
16, 238080, Note_on_c, 3, 69, 89
16, 238336, Note_on_c, 3, 78, 0
16, 238336, Note_on_c, 3, 79, 89
16, 238336, Note_on_c, 3, 73, 0
16, 238336, Note_on_c, 3, 71, 89
16, 238336, Note_on_c, 3, 69, 0
16, 238336, Note_on_c, 3, 67, 89
16, 238592, Note_on_c, 3, 79, 0
16, 238592, Note_on_c, 3, 76, 89
16, 238592, Note_on_c, 3, 71, 0
16, 238592, Note_on_c, 3, 73, 89
16, 238592, Note_on_c, 3, 67, 0
16, 238592, Note_on_c, 3, 69, 89
16, 238848, Note_on_c, 3, 73, 0
16, 238848, Note_on_c, 3, 74, 89
16, 238848, Note_on_c, 3, 69, 0
16, 238848, Note_on_c, 3, 71, 89
16, 239104, Note_on_c, 3, 74, 0
16, 239104, Note_on_c, 3, 73, 89
16, 239104, Note_on_c, 3, 71, 0
16, 239104, Note_on_c, 3, 69, 89
16, 239360, Note_on_c, 3, 76, 0
16, 239360, Note_on_c, 3, 78, 89
16, 239360, Note_on_c, 3, 73, 0
16, 239360, Note_on_c, 3, 71, 89
16, 239360, Note_on_c, 3, 69, 0
16, 239360, Note_on_c, 3, 67, 89
16, 239616, Note_on_c, 3, 78, 0
16, 239616, Note_on_c, 3, 71, 0
16, 239616, Note_on_c, 3, 67, 0
16, 239616, Note_on_c, 3, 78, 89
16, 239616, Note_on_c, 3, 69, 89
16, 239616, Note_on_c, 3, 66, 89
16, 239872, Note_on_c, 3, 78, 0
16, 239872, Note_on_c, 3, 79, 88
16, 239872, Note_on_c, 3, 69, 0
16, 239872, Note_on_c, 3, 66, 0
16, 240128, Note_on_c, 3, 79, 0
16, 240128, Note_on_c, 3, 81, 86
16, 240128, Note_on_c, 3, 78, 86
16, 240128, Note_on_c, 3, 74, 86
16, 240384, Note_on_c, 3, 81, 0
16, 240384, Note_on_c, 3, 78, 0
16, 240384, Note_on_c, 3, 74, 0
16, 245760, Note_on_c, 3, 81, 82
16, 245760, Note_on_c, 3, 76, 82
16, 245760, Note_on_c, 3, 73, 82
16, 246016, Note_on_c, 3, 81, 0
16, 246016, Note_on_c, 3, 76, 0
16, 246016, Note_on_c, 3, 73, 0
16, 246272, Note_on_c, 3, 76, 82
16, 246272, Note_on_c, 3, 73, 82
16, 246272, Note_on_c, 3, 69, 82
16, 246528, Note_on_c, 3, 76, 0
16, 246528, Note_on_c, 3, 73, 0
16, 246528, Note_on_c, 3, 69, 0
16, 246784, Note_on_c, 3, 73, 82
16, 246784, Note_on_c, 3, 69, 82
16, 246784, Note_on_c, 3, 64, 82
16, 247040, Note_on_c, 3, 73, 0
16, 247040, Note_on_c, 3, 69, 0
16, 247040, Note_on_c, 3, 64, 0
16, 247296, Note_on_c, 3, 71, 82
16, 247296, Note_on_c, 3, 67, 82
16, 247296, Note_on_c, 3, 64, 82
16, 247552, Note_on_c, 3, 71, 0
16, 247552, Note_on_c, 3, 67, 0
16, 247552, Note_on_c, 3, 64, 0
16, 247808, Note_on_c, 3, 79, 82
16, 247808, Note_on_c, 3, 76, 82
16, 247808, Note_on_c, 3, 71, 82
16, 248064, Note_on_c, 3, 79, 0
16, 248064, Note_on_c, 3, 76, 0
16, 248064, Note_on_c, 3, 71, 0
16, 253440, Note_on_c, 3, 71, 82
16, 253440, Note_on_c, 3, 75, 82
16, 253440, Note_on_c, 3, 66, 82
16, 253696, Note_on_c, 3, 71, 0
16, 253696, Note_on_c, 3, 75, 0
16, 253696, Note_on_c, 3, 66, 0
16, 253952, Note_on_c, 3, 71, 82
16, 253952, Note_on_c, 3, 78, 82
16, 253952, Note_on_c, 3, 75, 82
16, 254208, Note_on_c, 3, 71, 0
16, 254208, Note_on_c, 3, 78, 0
16, 254208, Note_on_c, 3, 75, 0
16, 254464, Note_on_c, 3, 71, 82
16, 254464, Note_on_c, 3, 78, 82
16, 254464, Note_on_c, 3, 75, 82
16, 254720, Note_on_c, 3, 71, 0
16, 254720, Note_on_c, 3, 78, 0
16, 254720, Note_on_c, 3, 75, 0
16, 254976, Note_on_c, 3, 79, 82
16, 254976, Note_on_c, 3, 78, 82
16, 254976, Note_on_c, 3, 71, 82
16, 255232, Note_on_c, 3, 79, 0
16, 255232, Note_on_c, 3, 78, 0
16, 255232, Note_on_c, 3, 71, 0
16, 255488, Note_on_c, 3, 79, 82
16, 255488, Note_on_c, 3, 76, 82
16, 255488, Note_on_c, 3, 71, 82
16, 255744, Note_on_c, 3, 79, 0
16, 255744, Note_on_c, 3, 76, 0
16, 255744, Note_on_c, 3, 71, 0
16, 256000, Note_on_c, 3, 79, 82
16, 256000, Note_on_c, 3, 76, 82
16, 256000, Note_on_c, 3, 71, 82
16, 256256, Note_on_c, 3, 79, 0
16, 256256, Note_on_c, 3, 76, 0
16, 256512, Note_on_c, 3, 73, 82
16, 256512, Note_on_c, 3, 76, 82
16, 257024, Note_on_c, 3, 73, 0
16, 257024, Note_on_c, 3, 73, 82
16, 257024, Note_on_c, 3, 76, 0
16, 257024, Note_on_c, 3, 78, 82
16, 257024, Note_on_c, 3, 71, 0
16, 257024, Note_on_c, 3, 69, 82
16, 257280, Note_on_c, 3, 73, 0
16, 257280, Note_on_c, 3, 78, 0
16, 257280, Note_on_c, 3, 79, 82
16, 257280, Note_on_c, 3, 69, 0
16, 257280, Note_on_c, 3, 67, 82
16, 257536, Note_on_c, 3, 75, 82
16, 257536, Note_on_c, 3, 79, 0
16, 257536, Note_on_c, 3, 81, 82
16, 257536, Note_on_c, 3, 67, 0
16, 257536, Note_on_c, 3, 66, 82
16, 257792, Note_on_c, 3, 75, 0
16, 257792, Note_on_c, 3, 76, 82
16, 257792, Note_on_c, 3, 66, 0
16, 257792, Note_on_c, 3, 64, 82
16, 258048, Note_on_c, 3, 76, 0
16, 258048, Note_on_c, 3, 64, 0
16, 258048, Note_on_c, 3, 78, 82
16, 258048, Note_on_c, 3, 63, 82
16, 258304, Note_on_c, 3, 78, 0
16, 258304, Note_on_c, 3, 79, 82
16, 258560, Note_on_c, 3, 79, 0
16, 258560, Note_on_c, 3, 81, 82
16, 258560, Note_on_c, 3, 75, 82
16, 258560, Note_on_c, 3, 63, 0
16, 258560, Note_on_c, 3, 72, 82
16, 258816, Note_on_c, 3, 81, 0
16, 258816, Note_on_c, 3, 79, 82
16, 258816, Note_on_c, 3, 75, 0
16, 258816, Note_on_c, 3, 72, 0
16, 258816, Note_on_c, 3, 81, 0
16, 258816, Note_on_c, 3, 71, 82
16, 259072, Note_on_c, 3, 79, 0
16, 259072, Note_on_c, 3, 78, 82
16, 259072, Note_on_c, 3, 76, 82
16, 259072, Note_on_c, 3, 71, 0
16, 259072, Note_on_c, 3, 72, 82
16, 259328, Note_on_c, 3, 78, 0
16, 259328, Note_on_c, 3, 76, 82
16, 259584, Note_on_c, 3, 76, 0
16, 259584, Note_on_c, 3, 76, 0
16, 259584, Note_on_c, 3, 75, 82
16, 259584, Note_on_c, 3, 69, 82
16, 259840, Note_on_c, 3, 75, 0
16, 259840, Note_on_c, 3, 72, 0
16, 259840, Note_on_c, 3, 71, 82
16, 260096, Note_on_c, 3, 73, 82
16, 260096, Note_on_c, 3, 71, 0
16, 260096, Note_on_c, 3, 69, 82
16, 260352, Note_on_c, 3, 73, 0
16, 260352, Note_on_c, 3, 71, 82
16, 260352, Note_on_c, 3, 69, 0
16, 260352, Note_on_c, 3, 71, 82
16, 260352, Note_on_c, 3, 69, 0
16, 260352, Note_on_c, 3, 67, 82
16, 260608, Note_on_c, 3, 71, 0
16, 260608, Note_on_c, 3, 76, 82
16, 260608, Note_on_c, 3, 71, 0
16, 260608, Note_on_c, 3, 67, 82
16, 260608, Note_on_c, 3, 76, 82
16, 260864, Note_on_c, 3, 67, 0
16, 260864, Note_on_c, 3, 66, 83
16, 260864, Note_on_c, 3, 76, 0
16, 260864, Note_on_c, 3, 67, 0
16, 260864, Note_on_c, 3, 69, 83
16, 261120, Note_on_c, 3, 66, 0
16, 261120, Note_on_c, 3, 69, 0
16, 261120, Note_on_c, 3, 67, 84
16, 261120, Note_on_c, 3, 71, 84
16, 261376, Note_on_c, 3, 76, 0
16, 261376, Note_on_c, 3, 78, 85
16, 261376, Note_on_c, 3, 67, 0
16, 261376, Note_on_c, 3, 69, 85
16, 261376, Note_on_c, 3, 71, 0
16, 261632, Note_on_c, 3, 78, 0
16, 261632, Note_on_c, 3, 75, 87
16, 261632, Note_on_c, 3, 69, 0
16, 261632, Note_on_c, 3, 66, 87
16, 261632, Note_on_c, 3, 71, 87
16, 262400, Note_on_c, 3, 75, 0
16, 262400, Note_on_c, 3, 76, 90
16, 262400, Note_on_c, 3, 66, 0
16, 262400, Note_on_c, 3, 67, 90
16, 262656, Note_on_c, 3, 76, 0
16, 262656, Note_on_c, 3, 67, 0
16, 262656, Note_on_c, 3, 71, 0
16, 262656, Note_on_c, 3, 76, 95
16, 262656, Note_on_c, 3, 67, 95
16, 262656, Note_on_c, 3, 71, 95
16, 262912, Note_on_c, 3, 76, 0
16, 262912, Note_on_c, 3, 67, 0
16, 262912, Note_on_c, 3, 71, 0
16, 270336, Note_on_c, 3, 66, 64
16, 270592, Note_on_c, 3, 66, 0
16, 270848, Note_on_c, 3, 66, 64
16, 271104, Note_on_c, 3, 66, 0
16, 271360, Note_on_c, 3, 66, 64
16, 271616, Note_on_c, 3, 66, 0
16, 271872, Note_on_c, 3, 78, 64
16, 271872, Note_on_c, 3, 74, 64
16, 271872, Note_on_c, 3, 71, 64
16, 272128, Note_on_c, 3, 78, 0
16, 272128, Note_on_c, 3, 74, 0
16, 272128, Note_on_c, 3, 71, 0
16, 272384, Note_on_c, 3, 78, 64
16, 272384, Note_on_c, 3, 74, 64
16, 272384, Note_on_c, 3, 71, 64
16, 272640, Note_on_c, 3, 78, 0
16, 272640, Note_on_c, 3, 74, 0
16, 272640, Note_on_c, 3, 71, 0
16, 272896, Note_on_c, 3, 78, 64
16, 272896, Note_on_c, 3, 74, 64
16, 272896, Note_on_c, 3, 71, 64
16, 273152, Note_on_c, 3, 78, 0
16, 273152, Note_on_c, 3, 74, 0
16, 273152, Note_on_c, 3, 71, 0
16, 273408, Note_on_c, 3, 78, 64
16, 273408, Note_on_c, 3, 68, 64
16, 273408, Note_on_c, 3, 71, 64
16, 273664, Note_on_c, 3, 78, 0
16, 273664, Note_on_c, 3, 71, 0
16, 273920, Note_on_c, 3, 76, 64
16, 273920, Note_on_c, 3, 68, 0
16, 273920, Note_on_c, 3, 68, 64
16, 273920, Note_on_c, 3, 68, 64
16, 274176, Note_on_c, 3, 76, 0
16, 274176, Note_on_c, 3, 74, 64
16, 274176, Note_on_c, 3, 68, 0
16, 274176, Note_on_c, 3, 68, 0
16, 274432, Note_on_c, 3, 74, 0
16, 274432, Note_on_c, 3, 73, 64
16, 274432, Note_on_c, 3, 70, 64
16, 274432, Note_on_c, 3, 64, 64
16, 274688, Note_on_c, 3, 73, 0
16, 274688, Note_on_c, 3, 74, 64
16, 274688, Note_on_c, 3, 70, 0
16, 274688, Note_on_c, 3, 71, 64
16, 274944, Note_on_c, 3, 74, 0
16, 274944, Note_on_c, 3, 71, 0
16, 274944, Note_on_c, 3, 76, 64
16, 274944, Note_on_c, 3, 73, 64
16, 275200, Note_on_c, 3, 76, 0
16, 275200, Note_on_c, 3, 73, 0
16, 275200, Note_on_c, 3, 74, 64
16, 275200, Note_on_c, 3, 64, 0
16, 275456, Note_on_c, 3, 64, 64
16, 275456, Note_on_c, 3, 74, 0
16, 275456, Note_on_c, 3, 76, 64
16, 275456, Note_on_c, 3, 67, 64
16, 275712, Note_on_c, 3, 64, 0
16, 275712, Note_on_c, 3, 76, 0
16, 275712, Note_on_c, 3, 74, 64
16, 275712, Note_on_c, 3, 67, 0
16, 275968, Note_on_c, 3, 76, 64
16, 275968, Note_on_c, 3, 74, 0
16, 275968, Note_on_c, 3, 73, 64
16, 275968, Note_on_c, 3, 67, 64
16, 276224, Note_on_c, 3, 73, 0
16, 276224, Note_on_c, 3, 71, 64
16, 276224, Note_on_c, 3, 67, 0
16, 276480, Note_on_c, 3, 71, 0
16, 276480, Note_on_c, 3, 70, 64
16, 276480, Note_on_c, 3, 66, 64
16, 276736, Note_on_c, 3, 76, 0
16, 276736, Note_on_c, 3, 73, 64
16, 276736, Note_on_c, 3, 70, 0
16, 276992, Note_on_c, 3, 73, 0
16, 276992, Note_on_c, 3, 74, 64
16, 276992, Note_on_c, 3, 68, 64
16, 277248, Note_on_c, 3, 74, 0
16, 277248, Note_on_c, 3, 76, 64
16, 277248, Note_on_c, 3, 68, 0
16, 277248, Note_on_c, 3, 66, 64
16, 277248, Note_on_c, 3, 66, 64
16, 277504, Note_on_c, 3, 76, 0
16, 277504, Note_on_c, 3, 78, 64
16, 277504, Note_on_c, 3, 66, 0
16, 277504, Note_on_c, 3, 71, 64
16, 277504, Note_on_c, 3, 66, 0
16, 277504, Note_on_c, 3, 66, 0
16, 277504, Note_on_c, 3, 66, 64
16, 277760, Note_on_c, 3, 78, 0
16, 277760, Note_on_c, 3, 79, 64
16, 277760, Note_on_c, 3, 66, 0
16, 278016, Note_on_c, 3, 79, 0
16, 278016, Note_on_c, 3, 78, 64
16, 278016, Note_on_c, 3, 67, 64
16, 278272, Note_on_c, 3, 78, 0
16, 278272, Note_on_c, 3, 76, 64
16, 278272, Note_on_c, 3, 71, 0
16, 278272, Note_on_c, 3, 73, 64
16, 278528, Note_on_c, 3, 76, 0
16, 278528, Note_on_c, 3, 74, 64
16, 278528, Note_on_c, 3, 73, 0
16, 278528, Note_on_c, 3, 70, 64
16, 278528, Note_on_c, 3, 67, 0
16, 278528, Note_on_c, 3, 66, 64
16, 278656, Note_on_c, 3, 74, 0
16, 278656, Note_on_c, 3, 73, 64
16, 278784, Note_on_c, 3, 73, 0
16, 278784, Note_on_c, 3, 74, 64
16, 278912, Note_on_c, 3, 74, 0
16, 278912, Note_on_c, 3, 73, 64
16, 279040, Note_on_c, 3, 73, 0
16, 279040, Note_on_c, 3, 74, 64
16, 279168, Note_on_c, 3, 74, 0
16, 279168, Note_on_c, 3, 73, 64
16, 279296, Note_on_c, 3, 73, 0
16, 279296, Note_on_c, 3, 71, 64
16, 279296, Note_on_c, 3, 70, 0
16, 279296, Note_on_c, 3, 71, 64
16, 279552, Note_on_c, 3, 71, 0
16, 279552, Note_on_c, 3, 71, 0
16, 279552, Note_on_c, 3, 66, 0
16, 279552, Note_on_c, 3, 71, 64
16, 279552, Note_on_c, 3, 71, 64
16, 279552, Note_on_c, 3, 66, 64
16, 279808, Note_on_c, 3, 71, 0
16, 279808, Note_on_c, 3, 71, 0
16, 279808, Note_on_c, 3, 66, 0
16, 285696, Note_on_c, 3, 82, 39
16, 285696, Note_on_c, 3, 78, 39
16, 285696, Note_on_c, 3, 73, 39
16, 285952, Note_on_c, 3, 82, 0
16, 285952, Note_on_c, 3, 78, 0
16, 285952, Note_on_c, 3, 73, 0
16, 286208, Note_on_c, 3, 78, 42
16, 286208, Note_on_c, 3, 73, 42
16, 286208, Note_on_c, 3, 70, 42
16, 286464, Note_on_c, 3, 78, 0
16, 286464, Note_on_c, 3, 73, 0
16, 286464, Note_on_c, 3, 70, 0
16, 286720, Note_on_c, 3, 73, 45
16, 286720, Note_on_c, 3, 70, 45
16, 286720, Note_on_c, 3, 66, 45
16, 286976, Note_on_c, 3, 73, 0
16, 286976, Note_on_c, 3, 70, 0
16, 286976, Note_on_c, 3, 66, 0
16, 287232, Note_on_c, 3, 74, 49
16, 287232, Note_on_c, 3, 71, 49
16, 287232, Note_on_c, 3, 66, 49
16, 287488, Note_on_c, 3, 74, 0
16, 287488, Note_on_c, 3, 71, 0
16, 287488, Note_on_c, 3, 66, 0
16, 287744, Note_on_c, 3, 83, 52
16, 287744, Note_on_c, 3, 78, 52
16, 287744, Note_on_c, 3, 74, 52
16, 288000, Note_on_c, 3, 83, 0
16, 288000, Note_on_c, 3, 78, 0
16, 288000, Note_on_c, 3, 74, 0
16, 289280, Note_on_c, 3, 81, 62
16, 289280, Note_on_c, 3, 76, 62
16, 289280, Note_on_c, 3, 73, 62
16, 289536, Note_on_c, 3, 81, 0
16, 289536, Note_on_c, 3, 76, 0
16, 289536, Note_on_c, 3, 73, 0
16, 289792, Note_on_c, 3, 76, 65
16, 289792, Note_on_c, 3, 73, 65
16, 289792, Note_on_c, 3, 69, 65
16, 290048, Note_on_c, 3, 76, 0
16, 290048, Note_on_c, 3, 73, 0
16, 290048, Note_on_c, 3, 69, 0
16, 290816, Note_on_c, 3, 73, 72
16, 290816, Note_on_c, 3, 69, 72
16, 290816, Note_on_c, 3, 64, 72
16, 291072, Note_on_c, 3, 73, 0
16, 291072, Note_on_c, 3, 69, 0
16, 291072, Note_on_c, 3, 64, 0
16, 291328, Note_on_c, 3, 69, 75
16, 291328, Note_on_c, 3, 64, 75
16, 291328, Note_on_c, 3, 67, 75
16, 291584, Note_on_c, 3, 69, 0
16, 291584, Note_on_c, 3, 64, 0
16, 291584, Note_on_c, 3, 67, 0
16, 292352, Note_on_c, 3, 81, 81
16, 292352, Note_on_c, 3, 78, 81
16, 292352, Note_on_c, 3, 74, 81
16, 292608, Note_on_c, 3, 81, 0
16, 292608, Note_on_c, 3, 78, 0
16, 292608, Note_on_c, 3, 74, 0
16, 292864, Note_on_c, 3, 78, 85
16, 292864, Note_on_c, 3, 74, 85
16, 292864, Note_on_c, 3, 69, 85
16, 293120, Note_on_c, 3, 78, 0
16, 293120, Note_on_c, 3, 74, 0
16, 293120, Note_on_c, 3, 69, 0
16, 293888, Note_on_c, 3, 73, 88
16, 293888, Note_on_c, 3, 69, 88
16, 293888, Note_on_c, 3, 64, 88
16, 294144, Note_on_c, 3, 73, 0
16, 294144, Note_on_c, 3, 69, 0
16, 294144, Note_on_c, 3, 64, 0
16, 294400, Note_on_c, 3, 69, 88
16, 294400, Note_on_c, 3, 76, 88
16, 294400, Note_on_c, 3, 73, 88
16, 294656, Note_on_c, 3, 69, 0
16, 294656, Note_on_c, 3, 76, 0
16, 294656, Note_on_c, 3, 73, 0
16, 294912, Note_on_c, 3, 78, 88
16, 294912, Note_on_c, 3, 74, 88
16, 294912, Note_on_c, 3, 69, 88
16, 295168, Note_on_c, 3, 78, 0
16, 295168, Note_on_c, 3, 74, 0
16, 295168, Note_on_c, 3, 69, 0
16, 295424, Note_on_c, 3, 78, 88
16, 295424, Note_on_c, 3, 69, 88
16, 295424, Note_on_c, 3, 66, 88
16, 295680, Note_on_c, 3, 78, 0
16, 295680, Note_on_c, 3, 69, 0
16, 295680, Note_on_c, 3, 66, 0
16, 295680, Note_on_c, 3, 67, 88
16, 295936, Note_on_c, 3, 78, 88
16, 295936, Note_on_c, 3, 74, 88
16, 295936, Note_on_c, 3, 67, 0
16, 295936, Note_on_c, 3, 69, 88
16, 296192, Note_on_c, 3, 78, 0
16, 296192, Note_on_c, 3, 69, 0
16, 296192, Note_on_c, 3, 66, 88
16, 296448, Note_on_c, 3, 66, 0
16, 296448, Note_on_c, 3, 71, 88
16, 296448, Note_on_c, 3, 71, 88
16, 296704, Note_on_c, 3, 74, 0
16, 296704, Note_on_c, 3, 78, 88
16, 296704, Note_on_c, 3, 71, 0
16, 296704, Note_on_c, 3, 69, 88
16, 296960, Note_on_c, 3, 71, 0
16, 296960, Note_on_c, 3, 71, 88
16, 296960, Note_on_c, 3, 78, 0
16, 296960, Note_on_c, 3, 76, 88
16, 296960, Note_on_c, 3, 69, 0
16, 296960, Note_on_c, 3, 71, 88
16, 297216, Note_on_c, 3, 71, 0
16, 297216, Note_on_c, 3, 76, 0
16, 297216, Note_on_c, 3, 74, 88
16, 297216, Note_on_c, 3, 71, 0
16, 297216, Note_on_c, 3, 69, 88
16, 297472, Note_on_c, 3, 73, 88
16, 297472, Note_on_c, 3, 74, 0
16, 297472, Note_on_c, 3, 76, 88
16, 297472, Note_on_c, 3, 69, 0
16, 297472, Note_on_c, 3, 71, 88
16, 297728, Note_on_c, 3, 73, 0
16, 297728, Note_on_c, 3, 74, 88
16, 297728, Note_on_c, 3, 76, 0
16, 297728, Note_on_c, 3, 78, 88
16, 297728, Note_on_c, 3, 71, 0
16, 297728, Note_on_c, 3, 69, 88
16, 297984, Note_on_c, 3, 74, 0
16, 297984, Note_on_c, 3, 78, 0
16, 297984, Note_on_c, 3, 69, 0
16, 297984, Note_on_c, 3, 76, 88
16, 297984, Note_on_c, 3, 79, 88
16, 297984, Note_on_c, 3, 67, 88
16, 298240, Note_on_c, 3, 76, 0
16, 298240, Note_on_c, 3, 78, 88
16, 298240, Note_on_c, 3, 79, 0
16, 298240, Note_on_c, 3, 78, 88
16, 298496, Note_on_c, 3, 78, 0
16, 298496, Note_on_c, 3, 79, 89
16, 298496, Note_on_c, 3, 78, 0
16, 298496, Note_on_c, 3, 76, 89
16, 298752, Note_on_c, 3, 79, 0
16, 298752, Note_on_c, 3, 78, 89
16, 298752, Note_on_c, 3, 76, 0
16, 298752, Note_on_c, 3, 74, 89
16, 299008, Note_on_c, 3, 78, 0
16, 299008, Note_on_c, 3, 76, 90
16, 299008, Note_on_c, 3, 74, 0
16, 299008, Note_on_c, 3, 73, 90
16, 299264, Note_on_c, 3, 76, 0
16, 299264, Note_on_c, 3, 74, 91
16, 299264, Note_on_c, 3, 73, 0
16, 299264, Note_on_c, 3, 71, 91
16, 299520, Note_on_c, 3, 74, 0
16, 299520, Note_on_c, 3, 71, 0
16, 299520, Note_on_c, 3, 73, 92
16, 299520, Note_on_c, 3, 69, 92
16, 299776, Note_on_c, 3, 73, 0
16, 299776, Note_on_c, 3, 69, 0
16, 299776, Note_on_c, 3, 67, 0
16, 299776, Note_on_c, 3, 64, 93
16, 300032, Note_on_c, 3, 71, 93
16, 300032, Note_on_c, 3, 71, 93
16, 300032, Note_on_c, 3, 64, 0
16, 300032, Note_on_c, 3, 66, 93
16, 300288, Note_on_c, 3, 71, 0
16, 300288, Note_on_c, 3, 69, 94
16, 300288, Note_on_c, 3, 71, 0
16, 300288, Note_on_c, 3, 73, 94
16, 300288, Note_on_c, 3, 66, 0
16, 300288, Note_on_c, 3, 67, 94
16, 300544, Note_on_c, 3, 69, 0
16, 300544, Note_on_c, 3, 74, 95
16, 300544, Note_on_c, 3, 73, 0
16, 300544, Note_on_c, 3, 74, 95
16, 300544, Note_on_c, 3, 67, 0
16, 300544, Note_on_c, 3, 69, 95
16, 300800, Note_on_c, 3, 74, 0
16, 300800, Note_on_c, 3, 69, 0
16, 300800, Note_on_c, 3, 66, 96
16, 301056, Note_on_c, 3, 66, 0
16, 301056, Note_on_c, 3, 71, 96
16, 301056, Note_on_c, 3, 67, 96
16, 301312, Note_on_c, 3, 74, 0
16, 301312, Note_on_c, 3, 76, 97
16, 301312, Note_on_c, 3, 67, 0
16, 301568, Note_on_c, 3, 76, 0
16, 301568, Note_on_c, 3, 73, 98
16, 301568, Note_on_c, 3, 71, 0
16, 301568, Note_on_c, 3, 69, 98
16, 301824, Note_on_c, 3, 69, 0
16, 302336, Note_on_c, 3, 73, 0
16, 302336, Note_on_c, 3, 74, 100
16, 302592, Note_on_c, 3, 74, 0
16, 302592, Note_on_c, 3, 74, 49
16, 302592, Note_on_c, 3, 66, 49
16, 302592, Note_on_c, 3, 62, 49
16, 302848, Note_on_c, 3, 74, 0
16, 302848, Note_on_c, 3, 76, 44
16, 302848, Note_on_c, 3, 66, 0
16, 302848, Note_on_c, 3, 62, 0
16, 303104, Note_on_c, 3, 76, 0
16, 303104, Note_on_c, 3, 78, 44
16, 303104, Note_on_c, 3, 66, 44
16, 303104, Note_on_c, 3, 62, 44
16, 303360, Note_on_c, 3, 78, 0
16, 303360, Note_on_c, 3, 79, 44
16, 303360, Note_on_c, 3, 66, 0
16, 303360, Note_on_c, 3, 62, 0
16, 303616, Note_on_c, 3, 79, 0
16, 303616, Note_on_c, 3, 78, 44
16, 303616, Note_on_c, 3, 66, 44
16, 303616, Note_on_c, 3, 62, 44
16, 303872, Note_on_c, 3, 78, 0
16, 303872, Note_on_c, 3, 76, 44
16, 303872, Note_on_c, 3, 66, 0
16, 303872, Note_on_c, 3, 62, 0
16, 304128, Note_on_c, 3, 76, 0
16, 304128, Note_on_c, 3, 74, 44
16, 304128, Note_on_c, 3, 74, 44
16, 304128, Note_on_c, 3, 71, 44
16, 304384, Note_on_c, 3, 74, 0
16, 304384, Note_on_c, 3, 73, 44
16, 304384, Note_on_c, 3, 74, 0
16, 304384, Note_on_c, 3, 71, 0
16, 304640, Note_on_c, 3, 73, 0
16, 304640, Note_on_c, 3, 71, 44
16, 304640, Note_on_c, 3, 74, 44
16, 304640, Note_on_c, 3, 71, 44
16, 304896, Note_on_c, 3, 71, 0
16, 304896, Note_on_c, 3, 73, 44
16, 304896, Note_on_c, 3, 74, 0
16, 304896, Note_on_c, 3, 71, 0
16, 305152, Note_on_c, 3, 73, 0
16, 305152, Note_on_c, 3, 74, 44
16, 305152, Note_on_c, 3, 74, 44
16, 305152, Note_on_c, 3, 71, 44
16, 305408, Note_on_c, 3, 74, 0
16, 305408, Note_on_c, 3, 71, 44
16, 305408, Note_on_c, 3, 74, 0
16, 305408, Note_on_c, 3, 71, 0
16, 305664, Note_on_c, 3, 71, 0
16, 305664, Note_on_c, 3, 73, 44
16, 305664, Note_on_c, 3, 67, 44
16, 305664, Note_on_c, 3, 64, 44
16, 305920, Note_on_c, 3, 73, 0
16, 305920, Note_on_c, 3, 74, 44
16, 306176, Note_on_c, 3, 74, 0
16, 306176, Note_on_c, 3, 76, 44
16, 306176, Note_on_c, 3, 67, 0
16, 306176, Note_on_c, 3, 67, 44
16, 306176, Note_on_c, 3, 64, 0
16, 306176, Note_on_c, 3, 64, 44
16, 306432, Note_on_c, 3, 76, 0
16, 306432, Note_on_c, 3, 78, 44
16, 306432, Note_on_c, 3, 67, 0
16, 306432, Note_on_c, 3, 64, 0
16, 306688, Note_on_c, 3, 78, 0
16, 306688, Note_on_c, 3, 76, 44
16, 306688, Note_on_c, 3, 69, 44
16, 306688, Note_on_c, 3, 66, 44
16, 306944, Note_on_c, 3, 76, 0
16, 306944, Note_on_c, 3, 74, 44
16, 306944, Note_on_c, 3, 69, 0
16, 306944, Note_on_c, 3, 71, 44
16, 306944, Note_on_c, 3, 66, 0
16, 306944, Note_on_c, 3, 67, 44
16, 307200, Note_on_c, 3, 74, 0
16, 307200, Note_on_c, 3, 71, 0
16, 307200, Note_on_c, 3, 67, 0
16, 307200, Note_on_c, 3, 73, 44
16, 307200, Note_on_c, 3, 73, 44
16, 307200, Note_on_c, 3, 69, 44
16, 307456, Note_on_c, 3, 73, 0
16, 307456, Note_on_c, 3, 71, 44
16, 307456, Note_on_c, 3, 73, 0
16, 307456, Note_on_c, 3, 74, 44
16, 307456, Note_on_c, 3, 69, 0
16, 307456, Note_on_c, 3, 71, 44
16, 307712, Note_on_c, 3, 71, 0
16, 307712, Note_on_c, 3, 69, 45
16, 307712, Note_on_c, 3, 74, 0
16, 307712, Note_on_c, 3, 76, 45
16, 307712, Note_on_c, 3, 71, 0
16, 307712, Note_on_c, 3, 73, 45
16, 307968, Note_on_c, 3, 69, 0
16, 307968, Note_on_c, 3, 71, 45
16, 307968, Note_on_c, 3, 76, 0
16, 307968, Note_on_c, 3, 74, 45
16, 307968, Note_on_c, 3, 73, 0
16, 307968, Note_on_c, 3, 74, 45
16, 308224, Note_on_c, 3, 71, 0
16, 308224, Note_on_c, 3, 73, 46
16, 308224, Note_on_c, 3, 74, 0
16, 308224, Note_on_c, 3, 73, 46
16, 308224, Note_on_c, 3, 74, 0
16, 308224, Note_on_c, 3, 73, 46
16, 308480, Note_on_c, 3, 73, 0
16, 308480, Note_on_c, 3, 76, 46
16, 308480, Note_on_c, 3, 73, 0
16, 308480, Note_on_c, 3, 71, 46
16, 308480, Note_on_c, 3, 73, 0
16, 308480, Note_on_c, 3, 71, 46
16, 308736, Note_on_c, 3, 76, 0
16, 308736, Note_on_c, 3, 71, 0
16, 308736, Note_on_c, 3, 71, 0
16, 308736, Note_on_c, 3, 74, 47
16, 308736, Note_on_c, 3, 69, 47
16, 308736, Note_on_c, 3, 66, 47
16, 308992, Note_on_c, 3, 74, 0
16, 308992, Note_on_c, 3, 73, 47
16, 308992, Note_on_c, 3, 69, 0
16, 308992, Note_on_c, 3, 66, 0
16, 309248, Note_on_c, 3, 73, 0
16, 309248, Note_on_c, 3, 74, 48
16, 309248, Note_on_c, 3, 68, 48
16, 309248, Note_on_c, 3, 64, 48
16, 309504, Note_on_c, 3, 74, 0
16, 309504, Note_on_c, 3, 76, 48
16, 309504, Note_on_c, 3, 68, 0
16, 309504, Note_on_c, 3, 66, 48
16, 309504, Note_on_c, 3, 64, 0
16, 309504, Note_on_c, 3, 62, 48
16, 309760, Note_on_c, 3, 76, 0
16, 309760, Note_on_c, 3, 73, 49
16, 309760, Note_on_c, 3, 66, 0
16, 309760, Note_on_c, 3, 73, 49
16, 309760, Note_on_c, 3, 62, 0
16, 309760, Note_on_c, 3, 69, 49
16, 310016, Note_on_c, 3, 73, 0
16, 310016, Note_on_c, 3, 74, 49
16, 310272, Note_on_c, 3, 74, 0
16, 310272, Note_on_c, 3, 76, 50
16, 310528, Note_on_c, 3, 76, 0
16, 310528, Note_on_c, 3, 74, 50
16, 310528, Note_on_c, 3, 73, 0
16, 310528, Note_on_c, 3, 74, 50
16, 310528, Note_on_c, 3, 69, 0
16, 310528, Note_on_c, 3, 71, 50
16, 310784, Note_on_c, 3, 74, 0
16, 310784, Note_on_c, 3, 76, 51
16, 310784, Note_on_c, 3, 74, 0
16, 310784, Note_on_c, 3, 71, 51
16, 310784, Note_on_c, 3, 71, 0
16, 310784, Note_on_c, 3, 68, 51
16, 311040, Note_on_c, 3, 76, 0
16, 311040, Note_on_c, 3, 78, 52
16, 311296, Note_on_c, 3, 78, 0
16, 311296, Note_on_c, 3, 76, 52
16, 311552, Note_on_c, 3, 76, 0
16, 311552, Note_on_c, 3, 74, 53
16, 311552, Note_on_c, 3, 71, 0
16, 311552, Note_on_c, 3, 73, 53
16, 311552, Note_on_c, 3, 68, 0
16, 311552, Note_on_c, 3, 69, 53
16, 311808, Note_on_c, 3, 74, 0
16, 311808, Note_on_c, 3, 73, 0
16, 311808, Note_on_c, 3, 69, 0
16, 311808, Note_on_c, 3, 73, 53
16, 311808, Note_on_c, 3, 73, 53
16, 311808, Note_on_c, 3, 69, 53
16, 312064, Note_on_c, 3, 73, 0
16, 312064, Note_on_c, 3, 74, 54
16, 312064, Note_on_c, 3, 69, 0
16, 312064, Note_on_c, 3, 71, 54
16, 312320, Note_on_c, 3, 73, 0
16, 312320, Note_on_c, 3, 69, 54
16, 312320, Note_on_c, 3, 74, 0
16, 312320, Note_on_c, 3, 76, 54
16, 312320, Note_on_c, 3, 71, 0
16, 312320, Note_on_c, 3, 73, 54
16, 312576, Note_on_c, 3, 69, 0
16, 312576, Note_on_c, 3, 76, 0
16, 312576, Note_on_c, 3, 78, 55
16, 312576, Note_on_c, 3, 73, 0
16, 312576, Note_on_c, 3, 74, 55
16, 312832, Note_on_c, 3, 76, 55
16, 312832, Note_on_c, 3, 78, 0
16, 312832, Note_on_c, 3, 76, 55
16, 312832, Note_on_c, 3, 74, 0
16, 312832, Note_on_c, 3, 73, 55
16, 313088, Note_on_c, 3, 76, 0
16, 313088, Note_on_c, 3, 74, 56
16, 313088, Note_on_c, 3, 73, 0
16, 313088, Note_on_c, 3, 71, 56
16, 313344, Note_on_c, 3, 74, 0
16, 313344, Note_on_c, 3, 71, 0
16, 313344, Note_on_c, 3, 73, 56
16, 313344, Note_on_c, 3, 69, 56
16, 313600, Note_on_c, 3, 76, 0
16, 313600, Note_on_c, 3, 73, 0
16, 313600, Note_on_c, 3, 71, 57
16, 313600, Note_on_c, 3, 69, 0
16, 313600, Note_on_c, 3, 67, 57
16, 313856, Note_on_c, 3, 81, 57
16, 313856, Note_on_c, 3, 71, 0
16, 313856, Note_on_c, 3, 69, 57
16, 313856, Note_on_c, 3, 67, 0
16, 313856, Note_on_c, 3, 66, 57
16, 314112, Note_on_c, 3, 81, 0
16, 314112, Note_on_c, 3, 79, 58
16, 314112, Note_on_c, 3, 69, 0
16, 314112, Note_on_c, 3, 71, 58
16, 314112, Note_on_c, 3, 66, 0
16, 314112, Note_on_c, 3, 67, 58
16, 314368, Note_on_c, 3, 79, 0
16, 314368, Note_on_c, 3, 78, 58
16, 314368, Note_on_c, 3, 71, 0
16, 314368, Note_on_c, 3, 73, 58
16, 314368, Note_on_c, 3, 67, 0
16, 314368, Note_on_c, 3, 69, 58
16, 314624, Note_on_c, 3, 78, 0
16, 314624, Note_on_c, 3, 76, 59
16, 314624, Note_on_c, 3, 73, 0
16, 314624, Note_on_c, 3, 69, 59
16, 314624, Note_on_c, 3, 69, 0
16, 314624, Note_on_c, 3, 66, 59
16, 314880, Note_on_c, 3, 76, 0
16, 314880, Note_on_c, 3, 69, 0
16, 314880, Note_on_c, 3, 66, 0
16, 314880, Note_on_c, 3, 74, 59
16, 314880, Note_on_c, 3, 71, 59
16, 314880, Note_on_c, 3, 67, 59
16, 315136, Note_on_c, 3, 71, 0
16, 315136, Note_on_c, 3, 73, 60
16, 315136, Note_on_c, 3, 67, 0
16, 315136, Note_on_c, 3, 69, 60
16, 315392, Note_on_c, 3, 74, 0
16, 315392, Note_on_c, 3, 79, 60
16, 315392, Note_on_c, 3, 73, 0
16, 315392, Note_on_c, 3, 74, 60
16, 315392, Note_on_c, 3, 69, 0
16, 315392, Note_on_c, 3, 71, 60
16, 315648, Note_on_c, 3, 74, 0
16, 315648, Note_on_c, 3, 76, 61
16, 315648, Note_on_c, 3, 71, 0
16, 315648, Note_on_c, 3, 73, 61
16, 315904, Note_on_c, 3, 76, 0
16, 315904, Note_on_c, 3, 74, 61
16, 315904, Note_on_c, 3, 73, 0
16, 315904, Note_on_c, 3, 71, 61
16, 316160, Note_on_c, 3, 74, 0
16, 316160, Note_on_c, 3, 73, 62
16, 316160, Note_on_c, 3, 71, 0
16, 316160, Note_on_c, 3, 69, 62
16, 316416, Note_on_c, 3, 73, 0
16, 316416, Note_on_c, 3, 69, 0
16, 316416, Note_on_c, 3, 71, 63
16, 316416, Note_on_c, 3, 67, 63
16, 316672, Note_on_c, 3, 79, 0
16, 316672, Note_on_c, 3, 71, 0
16, 316672, Note_on_c, 3, 69, 64
16, 316672, Note_on_c, 3, 67, 0
16, 316672, Note_on_c, 3, 66, 64
16, 316928, Note_on_c, 3, 71, 66
16, 316928, Note_on_c, 3, 69, 0
16, 316928, Note_on_c, 3, 67, 66
16, 316928, Note_on_c, 3, 66, 0
16, 316928, Note_on_c, 3, 64, 66
16, 317184, Note_on_c, 3, 71, 0
16, 317184, Note_on_c, 3, 67, 0
16, 317184, Note_on_c, 3, 69, 68
16, 317184, Note_on_c, 3, 64, 0
16, 317184, Note_on_c, 3, 66, 68
16, 317440, Note_on_c, 3, 76, 69
16, 317440, Note_on_c, 3, 69, 0
16, 317440, Note_on_c, 3, 71, 69
16, 317440, Note_on_c, 3, 66, 0
16, 317440, Note_on_c, 3, 67, 69
16, 317542, Note_on_c, 3, 71, 0
16, 317542, Note_on_c, 3, 73, 70
16, 317542, Note_on_c, 3, 67, 0
16, 317542, Note_on_c, 3, 69, 70
16, 317645, Note_on_c, 3, 73, 0
16, 317645, Note_on_c, 3, 71, 71
16, 317645, Note_on_c, 3, 69, 0
16, 317645, Note_on_c, 3, 67, 71
16, 317696, Note_on_c, 3, 76, 0
16, 317747, Note_on_c, 3, 71, 0
16, 317747, Note_on_c, 3, 73, 71
16, 317747, Note_on_c, 3, 67, 0
16, 317747, Note_on_c, 3, 69, 71
16, 317850, Note_on_c, 3, 73, 0
16, 317850, Note_on_c, 3, 71, 72
16, 317850, Note_on_c, 3, 69, 0
16, 317850, Note_on_c, 3, 67, 72
16, 317952, Note_on_c, 3, 71, 0
16, 317952, Note_on_c, 3, 67, 0
16, 317952, Note_on_c, 3, 76, 73
16, 317952, Note_on_c, 3, 73, 73
16, 317952, Note_on_c, 3, 69, 73
16, 318464, Note_on_c, 3, 76, 0
16, 318464, Note_on_c, 3, 64, 76
16, 318720, Note_on_c, 3, 64, 0
16, 318720, Note_on_c, 3, 73, 0
16, 318720, Note_on_c, 3, 71, 77
16, 318720, Note_on_c, 3, 69, 0
16, 318720, Note_on_c, 3, 67, 77
16, 318976, Note_on_c, 3, 74, 78
16, 318976, Note_on_c, 3, 71, 0
16, 318976, Note_on_c, 3, 69, 78
16, 318976, Note_on_c, 3, 67, 0
16, 318976, Note_on_c, 3, 66, 78
16, 319232, Note_on_c, 3, 74, 0
16, 319232, Note_on_c, 3, 76, 79
16, 319232, Note_on_c, 3, 69, 0
16, 319232, Note_on_c, 3, 71, 79
16, 319232, Note_on_c, 3, 66, 0
16, 319232, Note_on_c, 3, 67, 79
16, 319488, Note_on_c, 3, 76, 0
16, 319488, Note_on_c, 3, 71, 0
16, 319488, Note_on_c, 3, 67, 0
16, 319488, Note_on_c, 3, 78, 80
16, 319488, Note_on_c, 3, 73, 80
16, 319488, Note_on_c, 3, 69, 80
16, 319744, Note_on_c, 3, 78, 0
16, 319744, Note_on_c, 3, 83, 82
16, 319744, Note_on_c, 3, 73, 0
16, 319744, Note_on_c, 3, 71, 82
16, 319744, Note_on_c, 3, 69, 0
16, 319744, Note_on_c, 3, 67, 82
16, 320000, Note_on_c, 3, 83, 0
16, 320000, Note_on_c, 3, 76, 83
16, 320000, Note_on_c, 3, 71, 0
16, 320000, Note_on_c, 3, 73, 83
16, 320000, Note_on_c, 3, 67, 0
16, 320000, Note_on_c, 3, 69, 83
16, 320256, Note_on_c, 3, 76, 0
16, 320256, Note_on_c, 3, 79, 84
16, 320256, Note_on_c, 3, 73, 0
16, 320256, Note_on_c, 3, 74, 84
16, 320256, Note_on_c, 3, 69, 0
16, 320256, Note_on_c, 3, 71, 84
16, 320512, Note_on_c, 3, 79, 0
16, 320512, Note_on_c, 3, 78, 85
16, 320512, Note_on_c, 3, 74, 0
16, 320512, Note_on_c, 3, 73, 85
16, 320512, Note_on_c, 3, 71, 0
16, 320512, Note_on_c, 3, 69, 85
16, 320768, Note_on_c, 3, 78, 0
16, 320768, Note_on_c, 3, 76, 86
16, 320768, Note_on_c, 3, 73, 0
16, 320768, Note_on_c, 3, 71, 86
16, 320768, Note_on_c, 3, 69, 0
16, 320768, Note_on_c, 3, 67, 86
16, 321024, Note_on_c, 3, 76, 0
16, 321024, Note_on_c, 3, 71, 0
16, 321024, Note_on_c, 3, 67, 0
16, 321024, Note_on_c, 3, 74, 87
16, 321024, Note_on_c, 3, 69, 87
16, 321024, Note_on_c, 3, 66, 87
16, 321536, Note_on_c, 3, 74, 0
16, 321536, Note_on_c, 3, 69, 87
16, 321536, Note_on_c, 3, 69, 0
16, 321536, Note_on_c, 3, 66, 87
16, 321536, Note_on_c, 3, 66, 0
16, 321536, Note_on_c, 3, 62, 87
16, 321792, Note_on_c, 3, 69, 0
16, 321792, Note_on_c, 3, 66, 0
16, 321792, Note_on_c, 3, 62, 0
16, 322048, Note_on_c, 3, 66, 87
16, 322048, Note_on_c, 3, 62, 87
16, 322048, Note_on_c, 3, 69, 87
16, 322304, Note_on_c, 3, 66, 0
16, 322304, Note_on_c, 3, 62, 0
16, 322304, Note_on_c, 3, 69, 0
16, 323072, Note_on_c, 3, 74, 87
16, 323072, Note_on_c, 3, 78, 87
16, 323072, Note_on_c, 3, 71, 87
16, 323328, Note_on_c, 3, 74, 0
16, 323328, Note_on_c, 3, 72, 87
16, 323328, Note_on_c, 3, 78, 0
16, 323328, Note_on_c, 3, 76, 87
16, 323328, Note_on_c, 3, 71, 0
16, 323584, Note_on_c, 3, 72, 0
16, 323584, Note_on_c, 3, 71, 87
16, 323584, Note_on_c, 3, 76, 0
16, 323584, Note_on_c, 3, 74, 87
16, 323584, Note_on_c, 3, 71, 87
16, 323840, Note_on_c, 3, 71, 0
16, 323840, Note_on_c, 3, 74, 87
16, 323840, Note_on_c, 3, 74, 0
16, 323840, Note_on_c, 3, 78, 87
16, 323840, Note_on_c, 3, 71, 0
16, 324096, Note_on_c, 3, 74, 0
16, 324096, Note_on_c, 3, 78, 0
16, 324096, Note_on_c, 3, 79, 87
16, 324096, Note_on_c, 3, 76, 87
16, 324352, Note_on_c, 3, 79, 0
16, 324352, Note_on_c, 3, 76, 0
16, 324608, Note_on_c, 3, 79, 87
16, 324608, Note_on_c, 3, 76, 87
16, 324608, Note_on_c, 3, 71, 87
16, 324864, Note_on_c, 3, 79, 0
16, 324864, Note_on_c, 3, 76, 0
16, 324864, Note_on_c, 3, 71, 0
16, 325120, Note_on_c, 3, 79, 87
16, 325120, Note_on_c, 3, 76, 87
16, 325120, Note_on_c, 3, 71, 87
16, 325376, Note_on_c, 3, 79, 0
16, 325376, Note_on_c, 3, 76, 0
16, 325376, Note_on_c, 3, 71, 0
16, 325632, Note_on_c, 3, 79, 87
16, 325632, Note_on_c, 3, 76, 87
16, 325888, Note_on_c, 3, 79, 0
16, 325888, Note_on_c, 3, 76, 87
16, 325888, Note_on_c, 3, 76, 0
16, 326144, Note_on_c, 3, 76, 0
16, 326144, Note_on_c, 3, 81, 87
16, 326144, Note_on_c, 3, 64, 87
16, 326144, Note_on_c, 3, 72, 87
16, 326400, Note_on_c, 3, 81, 0
16, 326400, Note_on_c, 3, 79, 87
16, 326400, Note_on_c, 3, 64, 0
16, 326400, Note_on_c, 3, 72, 0
16, 326656, Note_on_c, 3, 79, 0
16, 326656, Note_on_c, 3, 81, 87
16, 326656, Note_on_c, 3, 69, 87
16, 326656, Note_on_c, 3, 72, 87
16, 326912, Note_on_c, 3, 69, 0
16, 326912, Note_on_c, 3, 71, 87
16, 326912, Note_on_c, 3, 72, 0
16, 327168, Note_on_c, 3, 71, 0
16, 327168, Note_on_c, 3, 72, 87
16, 327424, Note_on_c, 3, 81, 0
16, 327424, Note_on_c, 3, 78, 87
16, 327424, Note_on_c, 3, 72, 0
16, 327424, Note_on_c, 3, 69, 87
16, 327680, Note_on_c, 3, 78, 0
16, 327680, Note_on_c, 3, 79, 87
16, 327680, Note_on_c, 3, 69, 0
16, 327680, Note_on_c, 3, 71, 87
16, 327680, Note_on_c, 3, 62, 87
16, 327936, Note_on_c, 3, 79, 0
16, 327936, Note_on_c, 3, 81, 87
16, 327936, Note_on_c, 3, 71, 0
16, 327936, Note_on_c, 3, 72, 87
16, 327936, Note_on_c, 3, 62, 0
16, 328192, Note_on_c, 3, 81, 0
16, 328192, Note_on_c, 3, 79, 87
16, 328192, Note_on_c, 3, 72, 0
16, 328192, Note_on_c, 3, 74, 87
16, 328192, Note_on_c, 3, 71, 87
16, 328448, Note_on_c, 3, 79, 0
16, 328448, Note_on_c, 3, 81, 86
16, 328448, Note_on_c, 3, 71, 0
16, 328704, Note_on_c, 3, 81, 0
16, 328704, Note_on_c, 3, 83, 87
16, 328704, Note_on_c, 3, 67, 87
16, 328960, Note_on_c, 3, 83, 0
16, 328960, Note_on_c, 3, 81, 87
16, 328960, Note_on_c, 3, 74, 0
16, 328960, Note_on_c, 3, 67, 0
16, 329216, Note_on_c, 3, 81, 0
16, 329216, Note_on_c, 3, 83, 87
16, 329216, Note_on_c, 3, 72, 87
16, 329216, Note_on_c, 3, 69, 87
16, 329344, Note_on_c, 3, 83, 0
16, 329344, Note_on_c, 3, 81, 87
16, 329472, Note_on_c, 3, 81, 0
16, 329472, Note_on_c, 3, 83, 87
16, 329472, Note_on_c, 3, 72, 0
16, 329472, Note_on_c, 3, 71, 87
16, 329600, Note_on_c, 3, 83, 0
16, 329600, Note_on_c, 3, 81, 87
16, 329728, Note_on_c, 3, 81, 0
16, 329728, Note_on_c, 3, 83, 87
16, 329728, Note_on_c, 3, 71, 0
16, 329728, Note_on_c, 3, 72, 87
16, 329728, Note_on_c, 3, 69, 0
16, 329728, Note_on_c, 3, 62, 87
16, 329856, Note_on_c, 3, 83, 0
16, 329856, Note_on_c, 3, 81, 87
16, 329984, Note_on_c, 3, 81, 0
16, 329984, Note_on_c, 3, 79, 87
16, 329984, Note_on_c, 3, 72, 0
16, 329984, Note_on_c, 3, 74, 87
16, 329984, Note_on_c, 3, 62, 0
16, 330112, Note_on_c, 3, 79, 0
16, 330112, Note_on_c, 3, 81, 87
16, 330240, Note_on_c, 3, 81, 0
16, 330240, Note_on_c, 3, 74, 0
16, 330240, Note_on_c, 3, 79, 87
16, 330240, Note_on_c, 3, 62, 87
16, 330240, Note_on_c, 3, 71, 87
16, 330496, Note_on_c, 3, 79, 0
16, 330496, Note_on_c, 3, 62, 0
16, 330496, Note_on_c, 3, 71, 0
16, 330752, Note_on_c, 3, 76, 46
16, 330752, Note_on_c, 3, 71, 46
16, 330752, Note_on_c, 3, 67, 46
16, 331008, Note_on_c, 3, 76, 0
16, 331008, Note_on_c, 3, 78, 46
16, 331008, Note_on_c, 3, 71, 0
16, 331008, Note_on_c, 3, 73, 46
16, 331008, Note_on_c, 3, 67, 0
16, 331008, Note_on_c, 3, 69, 46
16, 331264, Note_on_c, 3, 78, 0
16, 331264, Note_on_c, 3, 79, 47
16, 331264, Note_on_c, 3, 73, 0
16, 331264, Note_on_c, 3, 74, 47
16, 331264, Note_on_c, 3, 69, 0
16, 331264, Note_on_c, 3, 71, 47
16, 331520, Note_on_c, 3, 79, 0
16, 331520, Note_on_c, 3, 76, 48
16, 331520, Note_on_c, 3, 74, 0
16, 331520, Note_on_c, 3, 71, 48
16, 331520, Note_on_c, 3, 71, 0
16, 331520, Note_on_c, 3, 67, 48
16, 331776, Note_on_c, 3, 76, 0
16, 331776, Note_on_c, 3, 71, 0
16, 331776, Note_on_c, 3, 67, 0
16, 331776, Note_on_c, 3, 81, 48
16, 331776, Note_on_c, 3, 73, 48
16, 331776, Note_on_c, 3, 64, 48
16, 332032, Note_on_c, 3, 81, 0
16, 332032, Note_on_c, 3, 73, 0
16, 332032, Note_on_c, 3, 64, 0
16, 333824, Note_on_c, 3, 74, 52
16, 333824, Note_on_c, 3, 69, 52
16, 333824, Note_on_c, 3, 66, 52
16, 334080, Note_on_c, 3, 74, 0
16, 334080, Note_on_c, 3, 76, 53
16, 334080, Note_on_c, 3, 69, 0
16, 334080, Note_on_c, 3, 71, 53
16, 334080, Note_on_c, 3, 66, 0
16, 334080, Note_on_c, 3, 67, 53
16, 334336, Note_on_c, 3, 76, 0
16, 334336, Note_on_c, 3, 78, 54
16, 334336, Note_on_c, 3, 71, 0
16, 334336, Note_on_c, 3, 72, 54
16, 334336, Note_on_c, 3, 67, 0
16, 334336, Note_on_c, 3, 69, 54
16, 334592, Note_on_c, 3, 78, 0
16, 334592, Note_on_c, 3, 74, 54
16, 334592, Note_on_c, 3, 72, 0
16, 334592, Note_on_c, 3, 69, 54
16, 334592, Note_on_c, 3, 69, 0
16, 334592, Note_on_c, 3, 66, 54
16, 334848, Note_on_c, 3, 74, 0
16, 334848, Note_on_c, 3, 69, 0
16, 334848, Note_on_c, 3, 66, 0
16, 334848, Note_on_c, 3, 71, 55
16, 334848, Note_on_c, 3, 67, 55
16, 334848, Note_on_c, 3, 62, 55
16, 335104, Note_on_c, 3, 71, 0
16, 335104, Note_on_c, 3, 67, 0
16, 335104, Note_on_c, 3, 62, 0
16, 336384, Note_on_c, 3, 79, 58
16, 336384, Note_on_c, 3, 76, 58
16, 336384, Note_on_c, 3, 71, 58
16, 336640, Note_on_c, 3, 79, 0
16, 336640, Note_on_c, 3, 78, 59
16, 336640, Note_on_c, 3, 76, 0
16, 336640, Note_on_c, 3, 72, 59
16, 336640, Note_on_c, 3, 71, 0
16, 336640, Note_on_c, 3, 69, 59
16, 336896, Note_on_c, 3, 78, 0
16, 336896, Note_on_c, 3, 76, 59
16, 336896, Note_on_c, 3, 72, 0
16, 336896, Note_on_c, 3, 71, 59
16, 336896, Note_on_c, 3, 69, 0
16, 336896, Note_on_c, 3, 67, 59
16, 337152, Note_on_c, 3, 76, 0
16, 337152, Note_on_c, 3, 74, 60
16, 337152, Note_on_c, 3, 71, 0
16, 337152, Note_on_c, 3, 69, 60
16, 337152, Note_on_c, 3, 67, 0
16, 337152, Note_on_c, 3, 66, 60
16, 337408, Note_on_c, 3, 74, 0
16, 337408, Note_on_c, 3, 73, 60
16, 337408, Note_on_c, 3, 69, 0
16, 337408, Note_on_c, 3, 67, 60
16, 337408, Note_on_c, 3, 66, 0
16, 337408, Note_on_c, 3, 64, 60
16, 337664, Note_on_c, 3, 73, 0
16, 337664, Note_on_c, 3, 71, 61
16, 337664, Note_on_c, 3, 67, 0
16, 337664, Note_on_c, 3, 66, 61
16, 337664, Note_on_c, 3, 64, 0
16, 337664, Note_on_c, 3, 62, 61
16, 337920, Note_on_c, 3, 71, 0
16, 337920, Note_on_c, 3, 66, 0
16, 337920, Note_on_c, 3, 62, 0
16, 337920, Note_on_c, 3, 73, 61
16, 337920, Note_on_c, 3, 67, 61
16, 337920, Note_on_c, 3, 64, 61
16, 338176, Note_on_c, 3, 73, 0
16, 338176, Note_on_c, 3, 74, 62
16, 338176, Note_on_c, 3, 67, 0
16, 338176, Note_on_c, 3, 69, 62
16, 338176, Note_on_c, 3, 64, 0
16, 338176, Note_on_c, 3, 66, 62
16, 338432, Note_on_c, 3, 74, 0
16, 338432, Note_on_c, 3, 76, 62
16, 338432, Note_on_c, 3, 69, 0
16, 338432, Note_on_c, 3, 71, 62
16, 338432, Note_on_c, 3, 66, 0
16, 338432, Note_on_c, 3, 67, 62
16, 338688, Note_on_c, 3, 76, 0
16, 338688, Note_on_c, 3, 78, 63
16, 338688, Note_on_c, 3, 71, 0
16, 338688, Note_on_c, 3, 73, 63
16, 338688, Note_on_c, 3, 67, 0
16, 338688, Note_on_c, 3, 69, 63
16, 338944, Note_on_c, 3, 78, 0
16, 338944, Note_on_c, 3, 79, 63
16, 338944, Note_on_c, 3, 73, 0
16, 338944, Note_on_c, 3, 74, 63
16, 338944, Note_on_c, 3, 69, 0
16, 338944, Note_on_c, 3, 71, 63
16, 339200, Note_on_c, 3, 79, 0
16, 339200, Note_on_c, 3, 76, 64
16, 339200, Note_on_c, 3, 74, 0
16, 339200, Note_on_c, 3, 76, 64
16, 339200, Note_on_c, 3, 71, 0
16, 339200, Note_on_c, 3, 73, 64
16, 339456, Note_on_c, 3, 76, 0
16, 339456, Note_on_c, 3, 76, 0
16, 339456, Note_on_c, 3, 73, 0
16, 339456, Note_on_c, 3, 78, 64
16, 339456, Note_on_c, 3, 74, 64
16, 339456, Note_on_c, 3, 69, 64
16, 339712, Note_on_c, 3, 78, 0
16, 339712, Note_on_c, 3, 76, 65
16, 339712, Note_on_c, 3, 74, 0
16, 339712, Note_on_c, 3, 71, 65
16, 339712, Note_on_c, 3, 69, 0
16, 339712, Note_on_c, 3, 67, 65
16, 339968, Note_on_c, 3, 76, 0
16, 339968, Note_on_c, 3, 74, 67
16, 339968, Note_on_c, 3, 71, 0
16, 339968, Note_on_c, 3, 69, 67
16, 339968, Note_on_c, 3, 67, 0
16, 339968, Note_on_c, 3, 66, 67
16, 340224, Note_on_c, 3, 74, 0
16, 340224, Note_on_c, 3, 73, 68
16, 340224, Note_on_c, 3, 69, 0
16, 340224, Note_on_c, 3, 67, 68
16, 340224, Note_on_c, 3, 66, 0
16, 340224, Note_on_c, 3, 64, 68
16, 340480, Note_on_c, 3, 73, 0
16, 340480, Note_on_c, 3, 71, 69
16, 340480, Note_on_c, 3, 67, 0
16, 340480, Note_on_c, 3, 66, 69
16, 340480, Note_on_c, 3, 64, 0
16, 340480, Note_on_c, 3, 62, 69
16, 340736, Note_on_c, 3, 71, 0
16, 340736, Note_on_c, 3, 74, 71
16, 340736, Note_on_c, 3, 66, 0
16, 340736, Note_on_c, 3, 69, 71
16, 340736, Note_on_c, 3, 62, 0
16, 340736, Note_on_c, 3, 66, 71
16, 340992, Note_on_c, 3, 74, 0
16, 340992, Note_on_c, 3, 69, 0
16, 340992, Note_on_c, 3, 66, 0
16, 340992, Note_on_c, 3, 76, 72
16, 340992, Note_on_c, 3, 71, 72
16, 340992, Note_on_c, 3, 67, 72
16, 342528, Note_on_c, 3, 71, 0
16, 342528, Note_on_c, 3, 64, 80
16, 342784, Note_on_c, 3, 76, 0
16, 342784, Note_on_c, 3, 64, 0
16, 342784, Note_on_c, 3, 67, 0
16, 343040, Note_on_c, 3, 73, 83
16, 343040, Note_on_c, 3, 76, 83
16, 343040, Note_on_c, 3, 69, 83
16, 343296, Note_on_c, 3, 73, 0
16, 343296, Note_on_c, 3, 76, 0
16, 343296, Note_on_c, 3, 69, 0
16, 343296, Note_on_c, 3, 67, 85
16, 343552, Note_on_c, 3, 69, 86
16, 343552, Note_on_c, 3, 81, 86
16, 343552, Note_on_c, 3, 67, 0
16, 343552, Note_on_c, 3, 66, 86
16, 343808, Note_on_c, 3, 69, 0
16, 343808, Note_on_c, 3, 66, 0
16, 343808, Note_on_c, 3, 64, 87
16, 344064, Note_on_c, 3, 64, 0
16, 344064, Note_on_c, 3, 78, 89
16, 344064, Note_on_c, 3, 62, 89
16, 344576, Note_on_c, 3, 78, 0
16, 344576, Note_on_c, 3, 74, 91
16, 344576, Note_on_c, 3, 81, 0
16, 344576, Note_on_c, 3, 78, 91
16, 344576, Note_on_c, 3, 62, 0
16, 344576, Note_on_c, 3, 74, 91
16, 344832, Note_on_c, 3, 74, 0
16, 344832, Note_on_c, 3, 78, 0
16, 344832, Note_on_c, 3, 74, 0
16, 345088, Note_on_c, 3, 74, 94
16, 345088, Note_on_c, 3, 69, 94
16, 345344, Note_on_c, 3, 74, 0
16, 345344, Note_on_c, 3, 69, 0
16, 345600, Note_on_c, 3, 69, 96
16, 345600, Note_on_c, 3, 73, 96
16, 345600, Note_on_c, 3, 69, 96
16, 345856, Note_on_c, 3, 69, 0
16, 345856, Note_on_c, 3, 73, 0
16, 345856, Note_on_c, 3, 69, 0
16, 346112, Note_on_c, 3, 69, 99
16, 346112, Note_on_c, 3, 69, 99
16, 346112, Note_on_c, 3, 64, 99
16, 346368, Note_on_c, 3, 69, 0
16, 346368, Note_on_c, 3, 69, 0
16, 346368, Note_on_c, 3, 64, 0
16, 346624, Note_on_c, 3, 69, 101
16, 346880, Note_on_c, 3, 69, 0
16, 347136, Note_on_c, 3, 78, 103
16, 347136, Note_on_c, 3, 74, 103
16, 347136, Note_on_c, 3, 69, 103
16, 347392, Note_on_c, 3, 78, 0
16, 347392, Note_on_c, 3, 74, 0
16, 347392, Note_on_c, 3, 69, 0
16, 347648, Note_on_c, 3, 78, 98
16, 347648, Note_on_c, 3, 74, 98
16, 347648, Note_on_c, 3, 69, 98
16, 347904, Note_on_c, 3, 78, 0
16, 347904, Note_on_c, 3, 74, 0
16, 347904, Note_on_c, 3, 69, 0
16, 348160, Note_on_c, 3, 78, 98
16, 348160, Note_on_c, 3, 74, 98
16, 348160, Note_on_c, 3, 69, 98
16, 348416, Note_on_c, 3, 78, 0
16, 348416, Note_on_c, 3, 74, 0
16, 348416, Note_on_c, 3, 69, 0
16, 348672, Note_on_c, 3, 71, 98
16, 348672, Note_on_c, 3, 74, 98
16, 348672, Note_on_c, 3, 71, 98
16, 348928, Note_on_c, 3, 74, 0
16, 348928, Note_on_c, 3, 71, 0
16, 349184, Note_on_c, 3, 71, 0
16, 349184, Note_on_c, 3, 71, 98
16, 349184, Note_on_c, 3, 74, 98
16, 349184, Note_on_c, 3, 67, 98
16, 349440, Note_on_c, 3, 71, 0
16, 349440, Note_on_c, 3, 74, 0
16, 349440, Note_on_c, 3, 67, 0
16, 349696, Note_on_c, 3, 73, 98
16, 349696, Note_on_c, 3, 76, 98
16, 349696, Note_on_c, 3, 67, 98
16, 349952, Note_on_c, 3, 73, 0
16, 349952, Note_on_c, 3, 74, 98
16, 349952, Note_on_c, 3, 76, 0
16, 349952, Note_on_c, 3, 78, 98
16, 349952, Note_on_c, 3, 67, 0
16, 350208, Note_on_c, 3, 74, 0
16, 350208, Note_on_c, 3, 78, 0
16, 350208, Note_on_c, 3, 76, 98
16, 350208, Note_on_c, 3, 79, 98
16, 350208, Note_on_c, 3, 67, 98
16, 350464, Note_on_c, 3, 76, 0
16, 350464, Note_on_c, 3, 78, 98
16, 350720, Note_on_c, 3, 78, 0
16, 350720, Note_on_c, 3, 79, 98
16, 350720, Note_on_c, 3, 79, 0
16, 350720, Note_on_c, 3, 67, 98
16, 350720, Note_on_c, 3, 67, 0
16, 350720, Note_on_c, 3, 64, 98
16, 350976, Note_on_c, 3, 79, 0
16, 350976, Note_on_c, 3, 78, 98
16, 350976, Note_on_c, 3, 67, 0
16, 350976, Note_on_c, 3, 64, 0
16, 351232, Note_on_c, 3, 78, 0
16, 351232, Note_on_c, 3, 76, 98
16, 351232, Note_on_c, 3, 67, 98
16, 351232, Note_on_c, 3, 64, 98
16, 351488, Note_on_c, 3, 76, 0
16, 351488, Note_on_c, 3, 74, 98
16, 351488, Note_on_c, 3, 67, 0
16, 351488, Note_on_c, 3, 64, 0
16, 351744, Note_on_c, 3, 74, 0
16, 351744, Note_on_c, 3, 73, 97
16, 351744, Note_on_c, 3, 67, 97
16, 351744, Note_on_c, 3, 64, 97
16, 352000, Note_on_c, 3, 73, 0
16, 352000, Note_on_c, 3, 67, 0
16, 352256, Note_on_c, 3, 71, 99
16, 352256, Note_on_c, 3, 64, 99
16, 352512, Note_on_c, 3, 71, 0
16, 352512, Note_on_c, 3, 69, 99
16, 352512, Note_on_c, 3, 64, 0
16, 352512, Note_on_c, 3, 64, 0
16, 352512, Note_on_c, 3, 64, 99
16, 352768, Note_on_c, 3, 69, 0
16, 352768, Note_on_c, 3, 74, 98
16, 352768, Note_on_c, 3, 66, 98
16, 352768, Note_on_c, 3, 64, 0
16, 352768, Note_on_c, 3, 69, 98
16, 353024, Note_on_c, 3, 66, 0
16, 353024, Note_on_c, 3, 67, 98
16, 353280, Note_on_c, 3, 67, 0
16, 353280, Note_on_c, 3, 69, 95
16, 353536, Note_on_c, 3, 74, 0
16, 353536, Note_on_c, 3, 76, 92
16, 353536, Note_on_c, 3, 69, 0
16, 353536, Note_on_c, 3, 69, 0
16, 353536, Note_on_c, 3, 67, 92
16, 353792, Note_on_c, 3, 76, 0
16, 353792, Note_on_c, 3, 73, 89
16, 353792, Note_on_c, 3, 69, 89
16, 353792, Note_on_c, 3, 67, 0
16, 353792, Note_on_c, 3, 69, 89
16, 353920, Note_on_c, 3, 69, 0
16, 353920, Note_on_c, 3, 67, 87
16, 354048, Note_on_c, 3, 67, 0
16, 354048, Note_on_c, 3, 69, 85
16, 354176, Note_on_c, 3, 69, 0
16, 354176, Note_on_c, 3, 67, 84
16, 354304, Note_on_c, 3, 67, 0
16, 354304, Note_on_c, 3, 69, 82
16, 354432, Note_on_c, 3, 69, 0
16, 354432, Note_on_c, 3, 67, 80
16, 354560, Note_on_c, 3, 73, 0
16, 354560, Note_on_c, 3, 74, 79
16, 354560, Note_on_c, 3, 67, 0
16, 354560, Note_on_c, 3, 69, 79
16, 354688, Note_on_c, 3, 69, 0
16, 354688, Note_on_c, 3, 67, 77
16, 354816, Note_on_c, 3, 74, 0
16, 354816, Note_on_c, 3, 69, 0
16, 354816, Note_on_c, 3, 67, 0
16, 354816, Note_on_c, 3, 74, 59
16, 354816, Note_on_c, 3, 69, 59
16, 354816, Note_on_c, 3, 66, 59
16, 355072, Note_on_c, 3, 74, 0
16, 355072, Note_on_c, 3, 76, 60
16, 355072, Note_on_c, 3, 69, 0
16, 355072, Note_on_c, 3, 67, 60
16, 355072, Note_on_c, 3, 66, 0
16, 355328, Note_on_c, 3, 76, 0
16, 355328, Note_on_c, 3, 72, 61
16, 355328, Note_on_c, 3, 67, 0
16, 355328, Note_on_c, 3, 69, 61
16, 355328, Note_on_c, 3, 69, 61
16, 355584, Note_on_c, 3, 72, 0
16, 355584, Note_on_c, 3, 71, 62
16, 355584, Note_on_c, 3, 69, 0
16, 355584, Note_on_c, 3, 67, 62
16, 355840, Note_on_c, 3, 71, 0
16, 355840, Note_on_c, 3, 72, 63
16, 355840, Note_on_c, 3, 67, 0
16, 355840, Note_on_c, 3, 69, 63
16, 355840, Note_on_c, 3, 69, 0
16, 355840, Note_on_c, 3, 66, 63
16, 356096, Note_on_c, 3, 72, 0
16, 356096, Note_on_c, 3, 74, 64
16, 356096, Note_on_c, 3, 69, 0
16, 356096, Note_on_c, 3, 71, 64
16, 356352, Note_on_c, 3, 74, 0
16, 356352, Note_on_c, 3, 71, 0
16, 356352, Note_on_c, 3, 66, 0
16, 356352, Note_on_c, 3, 71, 65
16, 356352, Note_on_c, 3, 67, 65
16, 356352, Note_on_c, 3, 62, 65
16, 356608, Note_on_c, 3, 71, 0
16, 356608, Note_on_c, 3, 73, 66
16, 356608, Note_on_c, 3, 67, 0
16, 356608, Note_on_c, 3, 69, 66
16, 356608, Note_on_c, 3, 62, 0
16, 356864, Note_on_c, 3, 73, 0
16, 356864, Note_on_c, 3, 74, 67
16, 356864, Note_on_c, 3, 69, 0
16, 356864, Note_on_c, 3, 71, 67
16, 356864, Note_on_c, 3, 71, 67
16, 357120, Note_on_c, 3, 74, 0
16, 357120, Note_on_c, 3, 73, 68
16, 357120, Note_on_c, 3, 71, 0
16, 357120, Note_on_c, 3, 69, 68
16, 357120, Note_on_c, 3, 71, 0
16, 357376, Note_on_c, 3, 73, 0
16, 357376, Note_on_c, 3, 74, 70
16, 357376, Note_on_c, 3, 69, 0
16, 357376, Note_on_c, 3, 71, 70
16, 357376, Note_on_c, 3, 68, 70
16, 357632, Note_on_c, 3, 74, 0
16, 357632, Note_on_c, 3, 76, 71
16, 357632, Note_on_c, 3, 71, 0
16, 357632, Note_on_c, 3, 73, 71
16, 357632, Note_on_c, 3, 68, 0
16, 357888, Note_on_c, 3, 76, 0
16, 357888, Note_on_c, 3, 73, 0
16, 357888, Note_on_c, 3, 73, 72
16, 357888, Note_on_c, 3, 69, 72
16, 357888, Note_on_c, 3, 64, 72
16, 358144, Note_on_c, 3, 73, 0
16, 358144, Note_on_c, 3, 74, 73
16, 358144, Note_on_c, 3, 69, 0
16, 358144, Note_on_c, 3, 71, 73
16, 358400, Note_on_c, 3, 74, 0
16, 358400, Note_on_c, 3, 76, 74
16, 358400, Note_on_c, 3, 71, 0
16, 358400, Note_on_c, 3, 73, 74
16, 358400, Note_on_c, 3, 64, 0
16, 358400, Note_on_c, 3, 73, 74
16, 358656, Note_on_c, 3, 76, 0
16, 358656, Note_on_c, 3, 74, 75
16, 358656, Note_on_c, 3, 73, 0
16, 358656, Note_on_c, 3, 71, 75
16, 358656, Note_on_c, 3, 73, 0
16, 358912, Note_on_c, 3, 74, 0
16, 358912, Note_on_c, 3, 76, 76
16, 358912, Note_on_c, 3, 71, 0
16, 358912, Note_on_c, 3, 73, 76
16, 358912, Note_on_c, 3, 70, 76
16, 359168, Note_on_c, 3, 76, 0
16, 359168, Note_on_c, 3, 78, 77
16, 359168, Note_on_c, 3, 73, 0
16, 359168, Note_on_c, 3, 74, 77
16, 359168, Note_on_c, 3, 70, 0
16, 359424, Note_on_c, 3, 78, 0
16, 359424, Note_on_c, 3, 74, 0
16, 359424, Note_on_c, 3, 74, 78
16, 359424, Note_on_c, 3, 71, 78
16, 359424, Note_on_c, 3, 66, 78
16, 359680, Note_on_c, 3, 74, 0
16, 359680, Note_on_c, 3, 76, 79
16, 359680, Note_on_c, 3, 71, 0
16, 359680, Note_on_c, 3, 73, 79
16, 359936, Note_on_c, 3, 76, 0
16, 359936, Note_on_c, 3, 78, 80
16, 359936, Note_on_c, 3, 73, 0
16, 359936, Note_on_c, 3, 74, 80
16, 359936, Note_on_c, 3, 66, 0
16, 359936, Note_on_c, 3, 74, 80
16, 360192, Note_on_c, 3, 78, 0
16, 360192, Note_on_c, 3, 76, 81
16, 360192, Note_on_c, 3, 74, 0
16, 360192, Note_on_c, 3, 73, 81
16, 360448, Note_on_c, 3, 76, 0
16, 360448, Note_on_c, 3, 78, 82
16, 360448, Note_on_c, 3, 73, 0
16, 360448, Note_on_c, 3, 74, 82
16, 360448, Note_on_c, 3, 74, 0
16, 360448, Note_on_c, 3, 71, 82
16, 360704, Note_on_c, 3, 78, 0
16, 360704, Note_on_c, 3, 79, 83
16, 360704, Note_on_c, 3, 74, 0
16, 360704, Note_on_c, 3, 76, 83
16, 360960, Note_on_c, 3, 79, 0
16, 360960, Note_on_c, 3, 76, 0
16, 360960, Note_on_c, 3, 76, 84
16, 360960, Note_on_c, 3, 73, 84
16, 361216, Note_on_c, 3, 76, 0
16, 361216, Note_on_c, 3, 78, 85
16, 361216, Note_on_c, 3, 73, 0
16, 361216, Note_on_c, 3, 74, 85
16, 361216, Note_on_c, 3, 71, 0
16, 361472, Note_on_c, 3, 78, 0
16, 361472, Note_on_c, 3, 79, 86
16, 361472, Note_on_c, 3, 74, 0
16, 361472, Note_on_c, 3, 76, 86
16, 361472, Note_on_c, 3, 69, 86
16, 361728, Note_on_c, 3, 79, 0
16, 361728, Note_on_c, 3, 78, 88
16, 361728, Note_on_c, 3, 76, 0
16, 361728, Note_on_c, 3, 74, 88
16, 361728, Note_on_c, 3, 69, 0
16, 361984, Note_on_c, 3, 78, 0
16, 361984, Note_on_c, 3, 79, 89
16, 361984, Note_on_c, 3, 74, 0
16, 361984, Note_on_c, 3, 76, 89
16, 361984, Note_on_c, 3, 69, 89
16, 362240, Note_on_c, 3, 79, 0
16, 362240, Note_on_c, 3, 81, 90
16, 362240, Note_on_c, 3, 76, 0
16, 362240, Note_on_c, 3, 78, 90
16, 362240, Note_on_c, 3, 69, 0
16, 362496, Note_on_c, 3, 81, 0
16, 362496, Note_on_c, 3, 78, 0
16, 362496, Note_on_c, 3, 78, 91
16, 362496, Note_on_c, 3, 74, 91
16, 362496, Note_on_c, 3, 69, 91
16, 362752, Note_on_c, 3, 78, 0
16, 362752, Note_on_c, 3, 79, 92
16, 362752, Note_on_c, 3, 74, 0
16, 362752, Note_on_c, 3, 76, 92
16, 362752, Note_on_c, 3, 69, 0
16, 363008, Note_on_c, 3, 79, 0
16, 363008, Note_on_c, 3, 81, 93
16, 363008, Note_on_c, 3, 76, 0
16, 363008, Note_on_c, 3, 78, 93
16, 363008, Note_on_c, 3, 74, 93
16, 363264, Note_on_c, 3, 81, 0
16, 363264, Note_on_c, 3, 79, 94
16, 363264, Note_on_c, 3, 78, 0
16, 363264, Note_on_c, 3, 76, 94
16, 363264, Note_on_c, 3, 74, 0
16, 363520, Note_on_c, 3, 79, 0
16, 363520, Note_on_c, 3, 78, 95
16, 363520, Note_on_c, 3, 76, 0
16, 363520, Note_on_c, 3, 74, 95
16, 363520, Note_on_c, 3, 69, 95
16, 363776, Note_on_c, 3, 78, 0
16, 363776, Note_on_c, 3, 79, 96
16, 363776, Note_on_c, 3, 74, 0
16, 363776, Note_on_c, 3, 76, 96
16, 363776, Note_on_c, 3, 69, 0
16, 364032, Note_on_c, 3, 79, 0
16, 364032, Note_on_c, 3, 76, 0
16, 364032, Note_on_c, 3, 76, 102
16, 364032, Note_on_c, 3, 73, 102
16, 364032, Note_on_c, 3, 69, 102
16, 364288, Note_on_c, 3, 76, 0
16, 364288, Note_on_c, 3, 74, 102
16, 364288, Note_on_c, 3, 73, 0
16, 364288, Note_on_c, 3, 71, 102
16, 364544, Note_on_c, 3, 74, 0
16, 364544, Note_on_c, 3, 76, 102
16, 364544, Note_on_c, 3, 71, 0
16, 364544, Note_on_c, 3, 73, 102
16, 364800, Note_on_c, 3, 76, 0
16, 364800, Note_on_c, 3, 78, 103
16, 364800, Note_on_c, 3, 73, 0
16, 364800, Note_on_c, 3, 74, 103
16, 365056, Note_on_c, 3, 78, 0
16, 365056, Note_on_c, 3, 79, 103
16, 365056, Note_on_c, 3, 74, 0
16, 365056, Note_on_c, 3, 76, 103
16, 365312, Note_on_c, 3, 79, 0
16, 365312, Note_on_c, 3, 76, 104
16, 365312, Note_on_c, 3, 76, 0
16, 365312, Note_on_c, 3, 73, 104
16, 365568, Note_on_c, 3, 76, 0
16, 365568, Note_on_c, 3, 73, 0
16, 365568, Note_on_c, 3, 78, 104
16, 365568, Note_on_c, 3, 74, 104
16, 365824, Note_on_c, 3, 78, 0
16, 365824, Note_on_c, 3, 79, 104
16, 365824, Note_on_c, 3, 74, 0
16, 365824, Note_on_c, 3, 76, 104
16, 366080, Note_on_c, 3, 79, 0
16, 366080, Note_on_c, 3, 76, 105
16, 366080, Note_on_c, 3, 76, 0
16, 366080, Note_on_c, 3, 73, 105
16, 366336, Note_on_c, 3, 76, 0
16, 366336, Note_on_c, 3, 78, 105
16, 366336, Note_on_c, 3, 73, 0
16, 366336, Note_on_c, 3, 74, 105
16, 366592, Note_on_c, 3, 78, 0
16, 366592, Note_on_c, 3, 79, 105
16, 366592, Note_on_c, 3, 74, 0
16, 366592, Note_on_c, 3, 76, 105
16, 366848, Note_on_c, 3, 79, 0
16, 366848, Note_on_c, 3, 76, 106
16, 366848, Note_on_c, 3, 76, 0
16, 366848, Note_on_c, 3, 73, 106
16, 367104, Note_on_c, 3, 76, 0
16, 367104, Note_on_c, 3, 73, 0
16, 367104, Note_on_c, 3, 78, 106
16, 367104, Note_on_c, 3, 74, 106
16, 367360, Note_on_c, 3, 78, 0
16, 367360, Note_on_c, 3, 79, 107
16, 367360, Note_on_c, 3, 74, 0
16, 367360, Note_on_c, 3, 76, 107
16, 367616, Note_on_c, 3, 79, 0
16, 367616, Note_on_c, 3, 81, 107
16, 367616, Note_on_c, 3, 76, 0
16, 367616, Note_on_c, 3, 78, 107
16, 367872, Note_on_c, 3, 81, 0
16, 367872, Note_on_c, 3, 79, 107
16, 367872, Note_on_c, 3, 78, 0
16, 367872, Note_on_c, 3, 76, 107
16, 368128, Note_on_c, 3, 79, 0
16, 368128, Note_on_c, 3, 78, 108
16, 368128, Note_on_c, 3, 76, 0
16, 368128, Note_on_c, 3, 74, 108
16, 368384, Note_on_c, 3, 78, 0
16, 368384, Note_on_c, 3, 79, 108
16, 368384, Note_on_c, 3, 74, 0
16, 368384, Note_on_c, 3, 76, 108
16, 368640, Note_on_c, 3, 79, 0
16, 368640, Note_on_c, 3, 76, 0
16, 368640, Note_on_c, 3, 76, 108
16, 368640, Note_on_c, 3, 73, 108
16, 368896, Note_on_c, 3, 76, 0
16, 368896, Note_on_c, 3, 73, 109
16, 368896, Note_on_c, 3, 73, 0
16, 368896, Note_on_c, 3, 69, 109
16, 369152, Note_on_c, 3, 73, 0
16, 369152, Note_on_c, 3, 74, 109
16, 369152, Note_on_c, 3, 69, 0
16, 369152, Note_on_c, 3, 71, 109
16, 369408, Note_on_c, 3, 74, 0
16, 369408, Note_on_c, 3, 76, 110
16, 369408, Note_on_c, 3, 71, 0
16, 369408, Note_on_c, 3, 73, 110
16, 369664, Note_on_c, 3, 76, 0
16, 369664, Note_on_c, 3, 78, 110
16, 369664, Note_on_c, 3, 73, 0
16, 369664, Note_on_c, 3, 74, 110
16, 369664, Note_on_c, 3, 69, 0
16, 369664, Note_on_c, 3, 69, 110
16, 369920, Note_on_c, 3, 78, 0
16, 369920, Note_on_c, 3, 79, 110
16, 369920, Note_on_c, 3, 74, 0
16, 369920, Note_on_c, 3, 76, 110
16, 369920, Note_on_c, 3, 69, 0
16, 370176, Note_on_c, 3, 79, 0
16, 370176, Note_on_c, 3, 76, 0
16, 370176, Note_on_c, 3, 81, 111
16, 370176, Note_on_c, 3, 78, 111
16, 370176, Note_on_c, 3, 73, 111
16, 370432, Note_on_c, 3, 81, 0
16, 370432, Note_on_c, 3, 79, 111
16, 370688, Note_on_c, 3, 79, 0
16, 370688, Note_on_c, 3, 78, 111
16, 370944, Note_on_c, 3, 78, 0
16, 370944, Note_on_c, 3, 76, 112
16, 371200, Note_on_c, 3, 76, 0
16, 371200, Note_on_c, 3, 74, 112
16, 371456, Note_on_c, 3, 74, 0
16, 371456, Note_on_c, 3, 73, 113
16, 371712, Note_on_c, 3, 73, 0
16, 371712, Note_on_c, 3, 73, 0
16, 371712, Note_on_c, 3, 74, 113
16, 371712, Note_on_c, 3, 71, 113
16, 371968, Note_on_c, 3, 74, 0
16, 371968, Note_on_c, 3, 71, 113
16, 372224, Note_on_c, 3, 71, 0
16, 372224, Note_on_c, 3, 73, 114
16, 372480, Note_on_c, 3, 73, 0
16, 372480, Note_on_c, 3, 74, 114
16, 372736, Note_on_c, 3, 74, 0
16, 372736, Note_on_c, 3, 76, 114
16, 372992, Note_on_c, 3, 76, 0
16, 372992, Note_on_c, 3, 78, 115
16, 373248, Note_on_c, 3, 78, 0
16, 373248, Note_on_c, 3, 79, 115
16, 373504, Note_on_c, 3, 79, 0
16, 373504, Note_on_c, 3, 78, 116
16, 373760, Note_on_c, 3, 78, 0
16, 373760, Note_on_c, 3, 76, 116
16, 373760, Note_on_c, 3, 78, 0
16, 373760, Note_on_c, 3, 71, 116
16, 374016, Note_on_c, 3, 76, 0
16, 374016, Note_on_c, 3, 74, 116
16, 374272, Note_on_c, 3, 74, 0
16, 374272, Note_on_c, 3, 73, 117
16, 374272, Note_on_c, 3, 71, 0
16, 374272, Note_on_c, 3, 73, 117
16, 374272, Note_on_c, 3, 71, 0
16, 374272, Note_on_c, 3, 67, 117
16, 374528, Note_on_c, 3, 73, 0
16, 374528, Note_on_c, 3, 71, 117
16, 374528, Note_on_c, 3, 73, 0
16, 374528, Note_on_c, 3, 74, 117
16, 374528, Note_on_c, 3, 67, 0
16, 374784, Note_on_c, 3, 71, 0
16, 374784, Note_on_c, 3, 74, 0
16, 374784, Note_on_c, 3, 69, 117
16, 374784, Note_on_c, 3, 76, 117
16, 374784, Note_on_c, 3, 64, 117
16, 375552, Note_on_c, 3, 69, 0
16, 375552, Note_on_c, 3, 79, 119
16, 375552, Note_on_c, 3, 76, 0
16, 375552, Note_on_c, 3, 73, 119
16, 375808, Note_on_c, 3, 79, 0
16, 375808, Note_on_c, 3, 78, 119
16, 375808, Note_on_c, 3, 73, 0
16, 375808, Note_on_c, 3, 69, 119
16, 375808, Note_on_c, 3, 64, 0
16, 375808, Note_on_c, 3, 66, 119
16, 376064, Note_on_c, 3, 69, 0
16, 376064, Note_on_c, 3, 66, 0
16, 376320, Note_on_c, 3, 71, 120
16, 376320, Note_on_c, 3, 67, 120
16, 376576, Note_on_c, 3, 78, 0
16, 376576, Note_on_c, 3, 76, 121
16, 376576, Note_on_c, 3, 71, 0
16, 376576, Note_on_c, 3, 67, 0
16, 376832, Note_on_c, 3, 76, 0
16, 376832, Note_on_c, 3, 76, 121
16, 376832, Note_on_c, 3, 69, 121
16, 376832, Note_on_c, 3, 69, 121
16, 376896, Note_on_c, 3, 69, 0
16, 376896, Note_on_c, 3, 67, 121
16, 376960, Note_on_c, 3, 67, 0
16, 376960, Note_on_c, 3, 69, 121
16, 377024, Note_on_c, 3, 69, 0
16, 377024, Note_on_c, 3, 67, 122
16, 377088, Note_on_c, 3, 67, 0
16, 377088, Note_on_c, 3, 69, 122
16, 377152, Note_on_c, 3, 69, 0
16, 377152, Note_on_c, 3, 67, 122
16, 377216, Note_on_c, 3, 67, 0
16, 377216, Note_on_c, 3, 69, 122
16, 377280, Note_on_c, 3, 69, 0
16, 377280, Note_on_c, 3, 67, 122
16, 377344, Note_on_c, 3, 67, 0
16, 377344, Note_on_c, 3, 69, 122
16, 377408, Note_on_c, 3, 69, 0
16, 377408, Note_on_c, 3, 67, 122
16, 377472, Note_on_c, 3, 67, 0
16, 377472, Note_on_c, 3, 69, 122
16, 377536, Note_on_c, 3, 69, 0
16, 377536, Note_on_c, 3, 67, 122
16, 377600, Note_on_c, 3, 76, 0
16, 377600, Note_on_c, 3, 74, 123
16, 377600, Note_on_c, 3, 67, 0
16, 377600, Note_on_c, 3, 69, 123
16, 377664, Note_on_c, 3, 69, 0
16, 377664, Note_on_c, 3, 67, 123
16, 377728, Note_on_c, 3, 67, 0
16, 377728, Note_on_c, 3, 69, 123
16, 377792, Note_on_c, 3, 69, 0
16, 377792, Note_on_c, 3, 67, 123
16, 377856, Note_on_c, 3, 74, 0
16, 377856, Note_on_c, 3, 69, 0
16, 377856, Note_on_c, 3, 67, 0
16, 377856, Note_on_c, 3, 74, 123
16, 377856, Note_on_c, 3, 69, 123
16, 377856, Note_on_c, 3, 66, 123
16, 379392, Control_c, 3, 121, 127
16, 379392, Note_on_c, 3, 74, 0
16, 379392, Note_on_c, 3, 69, 0
16, 379392, Note_on_c, 3, 66, 0
16, 379392, End_track
0, 0, End_of_file
