0, 0, Header, 0, 1, 48
1, 0, Start_track
1, 0, Title_t, "J.S.Bach Concert for Harpsichord, Two Recorders and Orchestra F major BWV1057 3. Allegro assai"
1, 0, Time_signature, 2, 1, 24, 8
1, 0, Channel_prefix, 0
1, 0, Copyright_t, "Copyright 2002 by KCN"
1, 0, Channel_prefix, 0
1, 0, Title_t, "Flauto I"
1, 0, Channel_prefix, 0
1, 0, Instrument_name_t, "Recorder"
1, 0, System_exclusive, 5, 126, 127, 9, 1, 247
1, 0, MIDI_port, 0
1, 0, Tempo, 375000
1, 0, Program_c, 0, 74
1, 0, Control_c, 0, 7, 90
1, 0, Channel_prefix, 1
1, 0, Title_t, "Flauto II"
1, 0, Channel_prefix, 1
1, 0, Instrument_name_t, "Recorder"
1, 0, MIDI_port, 0
1, 0, Program_c, 1, 74
1, 0, Control_c, 1, 7, 90
1, 0, Channel_prefix, 2
1, 0, Title_t, "Violino I"
1, 0, Channel_prefix, 2
1, 0, Instrument_name_t, "String Ensemble 1"
1, 0, MIDI_port, 0
1, 0, Program_c, 2, 48
1, 0, Control_c, 2, 7, 110
1, 0, Channel_prefix, 3
1, 0, Title_t, "Violino II"
1, 0, Channel_prefix, 3
1, 0, Instrument_name_t, "String Ensemble 1"
1, 0, MIDI_port, 0
1, 0, Program_c, 3, 48
1, 0, Control_c, 3, 7, 110
1, 0, Channel_prefix, 4
1, 0, Title_t, "Viola"
1, 0, Channel_prefix, 4
1, 0, Instrument_name_t, "String Ensemble 1"
1, 0, MIDI_port, 0
1, 0, Program_c, 4, 48
1, 0, Control_c, 4, 7, 110
1, 0, Note_on_c, 4, 60, 96
1, 0, Channel_prefix, 5
1, 0, Title_t, "Continuo(Violoncello)"
1, 0, Channel_prefix, 5
1, 0, Instrument_name_t, "Cello"
1, 0, MIDI_port, 0
1, 0, Program_c, 5, 42
1, 0, Channel_prefix, 6
1, 0, Title_t, "Continuo(Violone)"
1, 0, Channel_prefix, 6
1, 0, Instrument_name_t, "Contrabass"
1, 0, MIDI_port, 0
1, 0, Program_c, 6, 43
1, 0, Channel_prefix, 7
1, 0, Title_t, "Cembalo certato"
1, 0, Channel_prefix, 7
1, 0, Instrument_name_t, "Harpsichord"
1, 0, MIDI_port, 0
1, 0, Program_c, 7, 6
1, 0, Channel_prefix, 8
1, 0, Title_t, "Cembalo certato"
1, 0, Channel_prefix, 8
1, 0, Instrument_name_t, "Harpsichord"
1, 0, MIDI_port, 0
1, 0, Program_c, 7, 6
1, 0, Note_on_c, 7, 60, 96
1, 0, MIDI_port, 0
1, 0, Program_c, 8, 6
1, 0, MIDI_port, 0
1, 0, Program_c, 8, 6
1, 48, Note_on_c, 8, 53, 96
1, 69, Note_off_c, 8, 53, 0
1, 72, Note_on_c, 8, 55, 96
1, 84, Note_off_c, 4, 60, 0
1, 84, Note_off_c, 7, 60, 0
1, 93, Note_off_c, 8, 55, 0
1, 96, Note_on_c, 4, 65, 96
1, 96, Note_on_c, 7, 65, 96
1, 96, Note_on_c, 8, 57, 96
1, 117, Note_off_c, 8, 57, 0
1, 120, Note_on_c, 8, 55, 96
1, 141, Note_off_c, 8, 55, 0
1, 144, Note_on_c, 8, 57, 96
1, 165, Note_off_c, 8, 57, 0
1, 168, Note_on_c, 8, 53, 96
1, 189, Note_off_c, 8, 53, 0
1, 192, Note_on_c, 8, 55, 96
1, 213, Note_off_c, 8, 55, 0
1, 216, Note_on_c, 8, 53, 96
1, 222, Note_off_c, 4, 65, 0
1, 222, Note_off_c, 7, 65, 0
1, 237, Note_off_c, 8, 53, 0
1, 240, Note_on_c, 4, 64, 96
1, 240, Note_on_c, 7, 64, 96
1, 240, Note_on_c, 8, 55, 96
1, 261, Note_off_c, 4, 64, 0
1, 261, Note_off_c, 7, 64, 0
1, 261, Note_off_c, 8, 55, 0
1, 264, Note_on_c, 4, 65, 96
1, 264, Note_on_c, 7, 65, 96
1, 264, Note_on_c, 8, 57, 96
1, 285, Note_off_c, 4, 65, 0
1, 285, Note_off_c, 7, 65, 0
1, 285, Note_off_c, 8, 57, 0
1, 288, Note_on_c, 4, 67, 96
1, 288, Note_on_c, 7, 67, 96
1, 288, Note_on_c, 8, 58, 96
1, 309, Note_off_c, 8, 58, 0
1, 312, Note_on_c, 8, 57, 96
1, 330, Note_off_c, 4, 67, 0
1, 330, Note_off_c, 7, 67, 0
1, 333, Note_off_c, 8, 57, 0
1, 336, Note_on_c, 4, 65, 96
1, 336, Note_on_c, 7, 65, 96
1, 336, Note_on_c, 8, 58, 96
1, 357, Note_off_c, 4, 65, 0
1, 357, Note_off_c, 7, 65, 0
1, 357, Note_off_c, 8, 58, 0
1, 360, Note_on_c, 4, 64, 96
1, 360, Note_on_c, 7, 64, 96
1, 360, Note_on_c, 8, 55, 96
1, 381, Note_off_c, 4, 64, 0
1, 381, Note_off_c, 7, 64, 0
1, 381, Note_off_c, 8, 55, 0
1, 384, Note_on_c, 4, 65, 96
1, 384, Note_on_c, 7, 65, 96
1, 384, Note_on_c, 8, 57, 96
1, 426, Note_off_c, 4, 65, 0
1, 426, Note_off_c, 7, 65, 0
1, 432, Note_on_c, 4, 60, 96
1, 432, Note_on_c, 7, 60, 96
1, 468, Note_off_c, 8, 57, 0
1, 474, Note_off_c, 4, 60, 0
1, 474, Note_off_c, 7, 60, 0
1, 480, Note_on_c, 4, 62, 96
1, 480, Note_on_c, 7, 62, 96
1, 480, Note_on_c, 8, 55, 96
1, 504, Note_off_c, 8, 55, 0
1, 504, Note_on_c, 8, 53, 96
1, 522, Note_off_c, 4, 62, 0
1, 522, Note_off_c, 7, 62, 0
1, 525, Note_off_c, 8, 53, 0
1, 528, Note_on_c, 4, 57, 96
1, 528, Note_on_c, 7, 57, 96
1, 528, Note_on_c, 8, 52, 96
1, 552, Note_off_c, 8, 52, 0
1, 552, Note_on_c, 8, 50, 96
1, 570, Note_off_c, 4, 57, 0
1, 570, Note_off_c, 7, 57, 0
1, 573, Note_off_c, 8, 50, 0
1, 576, Note_on_c, 4, 58, 96
1, 576, Note_on_c, 7, 58, 96
1, 576, Note_on_c, 8, 55, 96
1, 618, Note_off_c, 4, 58, 0
1, 618, Note_off_c, 7, 58, 0
1, 618, Note_off_c, 8, 55, 0
1, 624, Note_on_c, 4, 55, 96
1, 624, Note_on_c, 7, 55, 96
1, 624, Note_on_c, 8, 53, 96
1, 648, Note_off_c, 8, 53, 0
1, 648, Note_on_c, 8, 52, 96
1, 666, Note_off_c, 4, 55, 0
1, 666, Note_off_c, 7, 55, 0
1, 669, Note_off_c, 8, 52, 0
1, 672, Note_on_c, 4, 60, 96
1, 672, Note_on_c, 7, 60, 96
1, 672, Note_on_c, 8, 53, 96
1, 696, Note_off_c, 8, 53, 0
1, 696, Note_on_c, 8, 52, 96
1, 714, Note_off_c, 4, 60, 0
1, 714, Note_off_c, 7, 60, 0
1, 717, Note_off_c, 8, 52, 0
1, 720, Note_on_c, 4, 55, 96
1, 720, Note_on_c, 7, 55, 96
1, 720, Note_on_c, 8, 50, 96
1, 744, Note_off_c, 8, 50, 0
1, 744, Note_on_c, 8, 48, 96
1, 762, Note_off_c, 4, 55, 0
1, 762, Note_off_c, 7, 55, 0
1, 765, Note_off_c, 8, 48, 0
1, 768, Note_on_c, 3, 65, 96
1, 768, Note_on_c, 4, 57, 96
1, 768, Note_on_c, 7, 65, 96
1, 768, Note_on_c, 7, 57, 96
1, 768, Note_on_c, 8, 53, 96
1, 789, Note_off_c, 8, 53, 0
1, 792, Note_on_c, 8, 55, 96
1, 810, Note_off_c, 4, 57, 0
1, 810, Note_off_c, 7, 57, 0
1, 813, Note_off_c, 8, 55, 0
1, 816, Note_on_c, 4, 53, 96
1, 816, Note_on_c, 8, 57, 96
1, 837, Note_off_c, 4, 53, 0
1, 837, Note_off_c, 8, 57, 0
1, 840, Note_on_c, 4, 55, 96
1, 840, Note_on_c, 8, 58, 96
1, 852, Note_off_c, 3, 65, 0
1, 852, Note_off_c, 7, 65, 0
1, 861, Note_off_c, 4, 55, 0
1, 861, Note_off_c, 8, 58, 0
1, 864, Note_on_c, 3, 72, 96
1, 864, Note_on_c, 4, 57, 96
1, 864, Note_on_c, 7, 72, 96
1, 864, Note_on_c, 8, 57, 96
1, 888, Note_off_c, 8, 57, 0
1, 888, Note_on_c, 8, 55, 96
1, 906, Note_off_c, 4, 57, 0
1, 912, Note_on_c, 4, 59, 96
1, 912, Note_on_c, 7, 67, 96
1, 912, Note_off_c, 8, 55, 0
1, 912, Note_on_c, 8, 53, 96
1, 933, Note_off_c, 4, 59, 0
1, 936, Note_on_c, 4, 60, 96
1, 936, Note_off_c, 8, 53, 0
1, 936, Note_on_c, 8, 52, 96
1, 954, Note_off_c, 7, 67, 0
1, 957, Note_off_c, 4, 60, 0
1, 957, Note_off_c, 8, 52, 0
1, 960, Note_on_c, 4, 62, 96
1, 960, Note_on_c, 7, 65, 96
1, 960, Note_on_c, 8, 50, 96
1, 990, Note_off_c, 3, 72, 0
1, 990, Note_off_c, 7, 72, 0
1, 1002, Note_off_c, 4, 62, 0
1, 1008, Note_on_c, 3, 71, 96
1, 1008, Note_on_c, 4, 64, 96
1, 1008, Note_on_c, 7, 71, 96
1, 1029, Note_off_c, 3, 71, 0
1, 1029, Note_off_c, 7, 71, 0
1, 1032, Note_on_c, 3, 72, 96
1, 1032, Note_on_c, 7, 72, 96
1, 1044, Note_off_c, 8, 50, 0
1, 1050, Note_off_c, 4, 64, 0
1, 1053, Note_off_c, 3, 72, 0
1, 1053, Note_off_c, 7, 72, 0
1, 1056, Note_on_c, 3, 74, 96
1, 1056, Note_on_c, 4, 65, 96
1, 1056, Note_on_c, 7, 74, 96
1, 1056, Note_on_c, 8, 55, 96
1, 1086, Note_off_c, 7, 65, 0
1, 1098, Note_off_c, 3, 74, 0
1, 1098, Note_off_c, 4, 65, 0
1, 1098, Note_off_c, 7, 74, 0
1, 1104, Note_on_c, 3, 72, 96
1, 1104, Note_on_c, 4, 67, 96
1, 1104, Note_on_c, 7, 72, 96
1, 1104, Note_on_c, 7, 64, 96
1, 1125, Note_off_c, 3, 72, 0
1, 1125, Note_off_c, 7, 72, 0
1, 1125, Note_off_c, 7, 64, 0
1, 1128, Note_on_c, 3, 71, 96
1, 1128, Note_on_c, 7, 71, 96
1, 1128, Note_on_c, 7, 62, 96
1, 1140, Note_off_c, 8, 55, 0
1, 1146, Note_off_c, 4, 67, 0
1, 1149, Note_off_c, 3, 71, 0
1, 1149, Note_off_c, 7, 71, 0
1, 1149, Note_off_c, 7, 62, 0
1, 1152, Note_on_c, 3, 72, 96
1, 1152, Note_on_c, 4, 69, 96
1, 1152, Note_on_c, 7, 72, 96
1, 1152, Note_on_c, 7, 64, 96
1, 1152, Note_on_c, 8, 48, 96
1, 1194, Note_off_c, 3, 72, 0
1, 1194, Note_off_c, 4, 69, 0
1, 1194, Note_off_c, 7, 72, 0
1, 1200, Note_on_c, 3, 67, 96
1, 1200, Note_on_c, 4, 71, 96
1, 1200, Note_on_c, 7, 67, 96
1, 1236, Note_off_c, 7, 64, 0
1, 1236, Note_off_c, 8, 48, 0
1, 1242, Note_off_c, 3, 67, 0
1, 1242, Note_off_c, 4, 71, 0
1, 1242, Note_off_c, 7, 67, 0
1, 1248, Note_on_c, 3, 69, 96
1, 1248, Note_on_c, 4, 72, 96
1, 1248, Note_on_c, 7, 69, 96
1, 1248, Note_on_c, 7, 72, 96
1, 1272, Note_on_c, 8, 48, 96
1, 1290, Note_off_c, 3, 69, 0
1, 1290, Note_off_c, 7, 69, 0
1, 1293, Note_off_c, 8, 48, 0
1, 1296, Note_on_c, 3, 64, 96
1, 1296, Note_on_c, 7, 64, 96
1, 1296, Note_on_c, 8, 47, 96
1, 1317, Note_off_c, 8, 47, 0
1, 1320, Note_on_c, 8, 48, 96
1, 1338, Note_off_c, 3, 64, 0
1, 1338, Note_off_c, 7, 64, 0
1, 1341, Note_off_c, 8, 48, 0
1, 1344, Note_on_c, 3, 65, 96
1, 1344, Note_on_c, 7, 65, 96
1, 1344, Note_on_c, 8, 50, 96
1, 1368, Note_off_c, 8, 50, 0
1, 1368, Note_on_c, 8, 52, 96
1, 1386, Note_off_c, 3, 65, 0
1, 1386, Note_off_c, 7, 65, 0
1, 1392, Note_on_c, 3, 62, 96
1, 1392, Note_on_c, 7, 62, 96
1, 1392, Note_off_c, 8, 52, 0
1, 1392, Note_on_c, 8, 53, 96
1, 1416, Note_off_c, 4, 72, 0
1, 1416, Note_off_c, 7, 72, 0
1, 1416, Note_off_c, 8, 53, 0
1, 1416, Note_on_c, 8, 55, 96
1, 1434, Note_off_c, 3, 62, 0
1, 1434, Note_off_c, 7, 62, 0
1, 1437, Note_off_c, 8, 55, 0
1, 1440, Note_on_c, 3, 67, 96
1, 1440, Note_on_c, 4, 71, 96
1, 1440, Note_on_c, 7, 67, 96
1, 1440, Note_on_c, 7, 71, 96
1, 1440, Note_on_c, 8, 53, 96
1, 1464, Note_off_c, 8, 53, 0
1, 1464, Note_on_c, 8, 52, 96
1, 1482, Note_off_c, 3, 67, 0
1, 1482, Note_off_c, 7, 67, 0
1, 1488, Note_on_c, 3, 62, 96
1, 1488, Note_on_c, 7, 62, 96
1, 1488, Note_off_c, 8, 52, 0
1, 1488, Note_on_c, 8, 53, 96
1, 1512, Note_off_c, 8, 53, 0
1, 1512, Note_on_c, 8, 55, 96
1, 1524, Note_off_c, 4, 71, 0
1, 1524, Note_off_c, 7, 71, 0
1, 1530, Note_off_c, 3, 62, 0
1, 1530, Note_off_c, 7, 62, 0
1, 1533, Note_off_c, 8, 55, 0
1, 1536, Note_on_c, 3, 64, 96
1, 1536, Note_on_c, 4, 72, 96
1, 1536, Note_on_c, 7, 64, 96
1, 1536, Note_on_c, 7, 72, 96
1, 1536, Note_on_c, 8, 48, 96
1, 1557, Note_off_c, 7, 64, 0
1, 1560, Note_on_c, 7, 62, 96
1, 1578, Note_off_c, 3, 64, 0
1, 1578, Note_off_c, 8, 48, 0
1, 1581, Note_off_c, 7, 62, 0
1, 1584, Note_on_c, 3, 60, 96
1, 1584, Note_on_c, 7, 64, 96
1, 1584, Note_on_c, 8, 55, 96
1, 1605, Note_off_c, 3, 60, 0
1, 1605, Note_off_c, 7, 64, 0
1, 1608, Note_on_c, 3, 62, 96
1, 1608, Note_on_c, 7, 65, 96
1, 1620, Note_off_c, 4, 72, 0
1, 1620, Note_off_c, 7, 72, 0
1, 1626, Note_off_c, 8, 55, 0
1, 1629, Note_off_c, 3, 62, 0
1, 1629, Note_off_c, 7, 65, 0
1, 1632, Note_on_c, 3, 64, 96
1, 1632, Note_on_c, 4, 60, 96
1, 1632, Note_on_c, 7, 64, 96
1, 1632, Note_on_c, 8, 60, 96
1, 1653, Note_off_c, 7, 64, 0
1, 1656, Note_on_c, 7, 67, 96
1, 1674, Note_off_c, 3, 64, 0
1, 1677, Note_off_c, 7, 67, 0
1, 1680, Note_on_c, 3, 62, 96
1, 1680, Note_on_c, 7, 65, 96
1, 1701, Note_off_c, 3, 62, 0
1, 1701, Note_off_c, 7, 65, 0
1, 1704, Note_on_c, 3, 60, 96
1, 1704, Note_on_c, 7, 64, 96
1, 1725, Note_off_c, 3, 60, 0
1, 1725, Note_off_c, 7, 64, 0
1, 1728, Note_on_c, 3, 62, 96
1, 1728, Note_on_c, 7, 62, 96
1, 1770, Note_off_c, 3, 62, 0
1, 1770, Note_off_c, 7, 62, 0
1, 1776, Note_on_c, 3, 64, 96
1, 1776, Note_on_c, 7, 64, 96
1, 1797, Note_off_c, 3, 64, 0
1, 1797, Note_off_c, 7, 64, 0
1, 1800, Note_on_c, 3, 65, 96
1, 1800, Note_off_c, 4, 60, 0
1, 1800, Note_on_c, 7, 65, 96
1, 1800, Note_off_c, 8, 60, 0
1, 1821, Note_off_c, 3, 65, 0
1, 1821, Note_off_c, 7, 65, 0
1, 1824, Note_on_c, 3, 67, 96
1, 1824, Note_on_c, 4, 58, 96
1, 1824, Note_on_c, 7, 67, 96
1, 1824, Note_on_c, 8, 58, 96
1, 1866, Note_off_c, 3, 67, 0
1, 1866, Note_off_c, 7, 67, 0
1, 1872, Note_on_c, 3, 69, 96
1, 1872, Note_on_c, 7, 69, 96
1, 1893, Note_off_c, 3, 69, 0
1, 1893, Note_off_c, 7, 69, 0
1, 1896, Note_on_c, 3, 70, 96
1, 1896, Note_on_c, 7, 70, 96
1, 1917, Note_off_c, 3, 70, 0
1, 1917, Note_off_c, 7, 70, 0
1, 1920, Note_on_c, 2, 72, 96
1, 1920, Note_on_c, 3, 64, 96
1, 1920, Note_on_c, 7, 72, 96
1, 1920, Note_on_c, 7, 64, 96
1, 1962, Note_off_c, 3, 64, 0
1, 1962, Note_off_c, 7, 64, 0
1, 1968, Note_on_c, 3, 65, 96
1, 1968, Note_on_c, 7, 67, 96
1, 1989, Note_off_c, 3, 65, 0
1, 1992, Note_on_c, 3, 67, 96
1, 1992, Note_off_c, 4, 58, 0
1, 1992, Note_off_c, 8, 58, 0
1, 2004, Note_off_c, 2, 72, 0
1, 2004, Note_off_c, 7, 72, 0
1, 2010, Note_off_c, 7, 67, 0
1, 2013, Note_off_c, 3, 67, 0
1, 2016, Note_on_c, 2, 77, 96
1, 2016, Note_on_c, 3, 69, 96
1, 2016, Note_on_c, 4, 57, 96
1, 2016, Note_on_c, 7, 77, 96
1, 2016, Note_on_c, 7, 60, 96
1, 2016, Note_on_c, 8, 57, 96
1, 2058, Note_off_c, 3, 69, 0
1, 2058, Note_off_c, 7, 60, 0
1, 2064, Note_on_c, 3, 67, 96
1, 2064, Note_on_c, 7, 72, 96
1, 2085, Note_off_c, 3, 67, 0
1, 2088, Note_on_c, 3, 65, 96
1, 2100, Note_off_c, 4, 57, 0
1, 2100, Note_off_c, 8, 57, 0
1, 2106, Note_off_c, 7, 72, 0
1, 2109, Note_off_c, 3, 65, 0
1, 2112, Note_on_c, 3, 70, 96
1, 2112, Note_on_c, 4, 55, 96
1, 2112, Note_on_c, 7, 70, 96
1, 2112, Note_on_c, 8, 55, 96
1, 2142, Note_off_c, 2, 77, 0
1, 2142, Note_off_c, 7, 77, 0
1, 2154, Note_off_c, 3, 70, 0
1, 2160, Note_on_c, 2, 76, 96
1, 2160, Note_on_c, 3, 67, 96
1, 2160, Note_on_c, 7, 76, 96
1, 2181, Note_off_c, 2, 76, 0
1, 2181, Note_off_c, 3, 67, 0
1, 2181, Note_off_c, 7, 76, 0
1, 2184, Note_on_c, 2, 77, 96
1, 2184, Note_on_c, 3, 69, 96
1, 2184, Note_on_c, 7, 77, 96
1, 2196, Note_off_c, 4, 55, 0
1, 2196, Note_off_c, 8, 55, 0
1, 2205, Note_off_c, 2, 77, 0
1, 2205, Note_off_c, 3, 69, 0
1, 2205, Note_off_c, 7, 77, 0
1, 2208, Note_on_c, 2, 79, 96
1, 2208, Note_on_c, 3, 70, 96
1, 2208, Note_on_c, 4, 60, 96
1, 2208, Note_on_c, 7, 79, 96
1, 2208, Note_on_c, 8, 60, 96
1, 2238, Note_off_c, 7, 70, 0
1, 2250, Note_off_c, 2, 79, 0
1, 2250, Note_off_c, 3, 70, 0
1, 2250, Note_off_c, 7, 79, 0
1, 2256, Note_on_c, 2, 77, 96
1, 2256, Note_on_c, 3, 69, 96
1, 2256, Note_on_c, 7, 77, 96
1, 2256, Note_on_c, 7, 69, 96
1, 2277, Note_off_c, 2, 77, 0
1, 2277, Note_off_c, 3, 69, 0
1, 2277, Note_off_c, 7, 77, 0
1, 2277, Note_off_c, 7, 69, 0
1, 2280, Note_on_c, 2, 76, 96
1, 2280, Note_on_c, 3, 67, 96
1, 2280, Note_on_c, 7, 76, 96
1, 2280, Note_on_c, 7, 67, 96
1, 2292, Note_off_c, 4, 60, 0
1, 2292, Note_off_c, 8, 60, 0
1, 2301, Note_off_c, 2, 76, 0
1, 2301, Note_off_c, 3, 67, 0
1, 2301, Note_off_c, 7, 76, 0
1, 2301, Note_off_c, 7, 67, 0
1, 2304, Note_on_c, 2, 77, 96
1, 2304, Note_on_c, 3, 69, 96
1, 2304, Note_on_c, 4, 53, 96
1, 2304, Note_on_c, 7, 77, 96
1, 2304, Note_on_c, 7, 69, 96
1, 2328, Note_on_c, 8, 53, 96
1, 2346, Note_off_c, 2, 77, 0
1, 2346, Note_off_c, 4, 53, 0
1, 2346, Note_off_c, 7, 77, 0
1, 2349, Note_off_c, 8, 53, 0
1, 2352, Note_on_c, 2, 72, 96
1, 2352, Note_on_c, 4, 55, 96
1, 2352, Note_on_c, 7, 72, 96
1, 2352, Note_on_c, 8, 55, 96
1, 2373, Note_off_c, 4, 55, 0
1, 2373, Note_off_c, 8, 55, 0
1, 2376, Note_on_c, 4, 57, 96
1, 2376, Note_on_c, 8, 57, 96
1, 2388, Note_off_c, 3, 69, 0
1, 2388, Note_off_c, 7, 69, 0
1, 2394, Note_off_c, 2, 72, 0
1, 2394, Note_off_c, 7, 72, 0
1, 2397, Note_off_c, 4, 57, 0
1, 2397, Note_off_c, 8, 57, 0
1, 2400, Note_on_c, 2, 74, 96
1, 2400, Note_on_c, 3, 65, 96
1, 2400, Note_on_c, 4, 58, 96
1, 2400, Note_on_c, 7, 74, 96
1, 2400, Note_on_c, 7, 65, 96
1, 2400, Note_on_c, 8, 58, 96
1, 2421, Note_off_c, 8, 58, 0
1, 2424, Note_on_c, 8, 62, 96
1, 2442, Note_off_c, 2, 74, 0
1, 2442, Note_off_c, 4, 58, 0
1, 2442, Note_off_c, 7, 74, 0
1, 2445, Note_off_c, 8, 62, 0
1, 2448, Note_on_c, 2, 69, 96
1, 2448, Note_on_c, 4, 60, 96
1, 2448, Note_on_c, 7, 69, 96
1, 2448, Note_on_c, 8, 60, 96
1, 2469, Note_off_c, 4, 60, 0
1, 2469, Note_off_c, 8, 60, 0
1, 2472, Note_on_c, 4, 62, 96
1, 2472, Note_on_c, 8, 62, 96
1, 2490, Note_off_c, 2, 69, 0
1, 2490, Note_off_c, 7, 69, 0
1, 2493, Note_off_c, 4, 62, 0
1, 2493, Note_off_c, 8, 62, 0
1, 2496, Note_on_c, 2, 70, 96
1, 2496, Note_on_c, 4, 55, 96
1, 2496, Note_on_c, 7, 70, 96
1, 2520, Note_on_c, 8, 55, 96
1, 2538, Note_off_c, 2, 70, 0
1, 2538, Note_off_c, 4, 55, 0
1, 2538, Note_off_c, 7, 70, 0
1, 2541, Note_off_c, 8, 55, 0
1, 2544, Note_on_c, 2, 67, 96
1, 2544, Note_on_c, 4, 57, 96
1, 2544, Note_on_c, 7, 67, 96
1, 2544, Note_on_c, 8, 57, 96
1, 2565, Note_off_c, 4, 57, 0
1, 2565, Note_off_c, 8, 57, 0
1, 2568, Note_off_c, 3, 65, 0
1, 2568, Note_on_c, 4, 58, 96
1, 2568, Note_off_c, 7, 65, 0
1, 2568, Note_on_c, 8, 58, 96
1, 2586, Note_off_c, 2, 67, 0
1, 2586, Note_off_c, 7, 67, 0
1, 2589, Note_off_c, 4, 58, 0
1, 2589, Note_off_c, 8, 58, 0
1, 2592, Note_on_c, 2, 72, 96
1, 2592, Note_on_c, 3, 64, 96
1, 2592, Note_on_c, 4, 60, 96
1, 2592, Note_on_c, 7, 72, 96
1, 2592, Note_on_c, 7, 64, 96
1, 2592, Note_on_c, 8, 60, 96
1, 2613, Note_off_c, 8, 60, 0
1, 2616, Note_on_c, 8, 57, 96
1, 2634, Note_off_c, 2, 72, 0
1, 2634, Note_off_c, 3, 64, 0
1, 2634, Note_off_c, 4, 60, 0
1, 2634, Note_off_c, 7, 72, 0
1, 2637, Note_off_c, 8, 57, 0
1, 2640, Note_on_c, 2, 67, 96
1, 2640, Note_on_c, 3, 67, 96
1, 2640, Note_on_c, 4, 62, 96
1, 2640, Note_on_c, 7, 67, 96
1, 2640, Note_on_c, 8, 58, 96
1, 2661, Note_off_c, 4, 62, 0
1, 2661, Note_off_c, 8, 58, 0
1, 2664, Note_on_c, 4, 64, 96
1, 2664, Note_on_c, 8, 60, 96
1, 2676, Note_off_c, 7, 64, 0
1, 2682, Note_off_c, 2, 67, 0
1, 2682, Note_off_c, 7, 67, 0
1, 2685, Note_off_c, 4, 64, 0
1, 2685, Note_off_c, 8, 60, 0
1, 2688, Note_on_c, 2, 69, 96
1, 2688, Note_on_c, 4, 65, 96
1, 2688, Note_on_c, 5, 53, 96
1, 2688, Note_on_c, 6, 41, 96
1, 2688, Note_on_c, 7, 69, 96
1, 2688, Note_on_c, 7, 65, 96
1, 2688, Note_on_c, 8, 53, 96
1, 2709, Note_off_c, 7, 69, 0
1, 2712, Note_on_c, 7, 67, 96
1, 2724, Note_off_c, 3, 67, 0
1, 2730, Note_off_c, 2, 69, 0
1, 2730, Note_off_c, 4, 65, 0
1, 2730, Note_off_c, 7, 65, 0
1, 2733, Note_off_c, 7, 67, 0
1, 2736, Note_on_c, 2, 65, 96
1, 2736, Note_on_c, 3, 69, 96
1, 2736, Note_on_c, 4, 60, 96
1, 2736, Note_on_c, 7, 65, 96
1, 2757, Note_off_c, 2, 65, 0
1, 2757, Note_off_c, 3, 69, 0
1, 2760, Note_on_c, 2, 67, 96
1, 2760, Note_on_c, 3, 67, 96
1, 2760, Note_on_c, 7, 67, 96
1, 2772, Note_off_c, 5, 53, 0
1, 2772, Note_off_c, 6, 41, 0
1, 2772, Note_off_c, 8, 53, 0
1, 2781, Note_off_c, 2, 67, 0
1, 2781, Note_off_c, 3, 67, 0
1, 2781, Note_off_c, 7, 67, 0
1, 2784, Note_on_c, 2, 69, 96
1, 2784, Note_on_c, 3, 65, 96
1, 2784, Note_on_c, 5, 60, 96
1, 2784, Note_on_c, 6, 48, 96
1, 2784, Note_on_c, 7, 69, 96
1, 2784, Note_on_c, 8, 60, 96
1, 2805, Note_off_c, 7, 69, 0
1, 2808, Note_on_c, 7, 69, 96
1, 2820, Note_off_c, 4, 60, 0
1, 2820, Note_off_c, 7, 65, 0
1, 2826, Note_off_c, 2, 69, 0
1, 2826, Note_off_c, 3, 65, 0
1, 2829, Note_off_c, 7, 69, 0
1, 2832, Note_on_c, 2, 71, 96
1, 2832, Note_on_c, 3, 64, 96
1, 2832, Note_on_c, 4, 62, 96
1, 2832, Note_on_c, 7, 71, 96
1, 2832, Note_on_c, 7, 64, 96
1, 2853, Note_off_c, 2, 71, 0
1, 2853, Note_off_c, 4, 62, 0
1, 2853, Note_off_c, 7, 71, 0
1, 2856, Note_on_c, 2, 72, 96
1, 2856, Note_on_c, 4, 64, 96
1, 2856, Note_on_c, 7, 72, 96
1, 2874, Note_off_c, 3, 64, 0
1, 2874, Note_off_c, 7, 64, 0
1, 2877, Note_off_c, 2, 72, 0
1, 2877, Note_off_c, 4, 64, 0
1, 2877, Note_off_c, 7, 72, 0
1, 2880, Note_on_c, 2, 74, 96
1, 2880, Note_on_c, 3, 62, 96
1, 2880, Note_on_c, 4, 65, 96
1, 2880, Note_on_c, 7, 74, 96
1, 2880, Note_on_c, 7, 65, 96
1, 2910, Note_off_c, 5, 60, 0
1, 2910, Note_off_c, 6, 48, 0
1, 2910, Note_off_c, 8, 60, 0
1, 2922, Note_off_c, 2, 74, 0
1, 2922, Note_off_c, 4, 65, 0
1, 2922, Note_off_c, 7, 74, 0
1, 2922, Note_off_c, 7, 65, 0
1, 2928, Note_on_c, 2, 76, 96
1, 2928, Note_on_c, 4, 67, 96
1, 2928, Note_on_c, 5, 59, 96
1, 2928, Note_on_c, 6, 47, 96
1, 2928, Note_on_c, 7, 76, 96
1, 2928, Note_on_c, 8, 59, 96
1, 2949, Note_off_c, 4, 67, 0
1, 2949, Note_off_c, 5, 59, 0
1, 2949, Note_off_c, 6, 47, 0
1, 2949, Note_off_c, 8, 59, 0
1, 2952, Note_on_c, 4, 69, 96
1, 2952, Note_on_c, 5, 60, 96
1, 2952, Note_on_c, 6, 48, 96
1, 2952, Note_on_c, 8, 60, 96
1, 2964, Note_off_c, 3, 62, 0
1, 2970, Note_off_c, 2, 76, 0
1, 2970, Note_off_c, 7, 76, 0
1, 2973, Note_off_c, 4, 69, 0
1, 2973, Note_off_c, 5, 60, 0
1, 2973, Note_off_c, 6, 48, 0
1, 2973, Note_off_c, 8, 60, 0
1, 2976, Note_on_c, 2, 77, 96
1, 2976, Note_on_c, 3, 74, 96
1, 2976, Note_on_c, 4, 59, 96
1, 2976, Note_on_c, 5, 62, 96
1, 2976, Note_on_c, 6, 50, 96
1, 2976, Note_on_c, 7, 77, 96
1, 2976, Note_on_c, 7, 71, 96
1, 2976, Note_on_c, 8, 62, 96
1, 3018, Note_off_c, 2, 77, 0
1, 3018, Note_off_c, 4, 59, 0
1, 3018, Note_off_c, 5, 62, 0
1, 3018, Note_off_c, 6, 50, 0
1, 3018, Note_off_c, 7, 77, 0
1, 3018, Note_off_c, 7, 71, 0
1, 3018, Note_off_c, 8, 62, 0
1, 3024, Note_on_c, 2, 79, 96
1, 3024, Note_on_c, 4, 62, 96
1, 3024, Note_on_c, 5, 60, 96
1, 3024, Note_on_c, 6, 48, 96
1, 3024, Note_on_c, 7, 79, 96
1, 3024, Note_on_c, 7, 74, 96
1, 3024, Note_on_c, 8, 60, 96
1, 3045, Note_off_c, 5, 60, 0
1, 3045, Note_off_c, 6, 48, 0
1, 3045, Note_off_c, 8, 60, 0
1, 3048, Note_on_c, 5, 59, 96
1, 3048, Note_on_c, 6, 47, 96
1, 3048, Note_on_c, 8, 59, 96
1, 3066, Note_off_c, 2, 79, 0
1, 3066, Note_off_c, 4, 62, 0
1, 3066, Note_off_c, 7, 79, 0
1, 3069, Note_off_c, 5, 59, 0
1, 3069, Note_off_c, 6, 47, 0
1, 3069, Note_off_c, 8, 59, 0
1, 3072, Note_on_c, 2, 76, 96
1, 3072, Note_on_c, 4, 55, 96
1, 3072, Note_on_c, 5, 60, 96
1, 3072, Note_on_c, 6, 48, 96
1, 3072, Note_on_c, 7, 76, 96
1, 3072, Note_on_c, 8, 60, 96
1, 3102, Note_off_c, 3, 74, 0
1, 3108, Note_off_c, 7, 74, 0
1, 3114, Note_off_c, 2, 76, 0
1, 3114, Note_off_c, 5, 60, 0
1, 3114, Note_off_c, 6, 48, 0
1, 3114, Note_off_c, 7, 76, 0
1, 3114, Note_off_c, 8, 60, 0
1, 3120, Note_on_c, 2, 79, 96
1, 3120, Note_on_c, 3, 72, 96
1, 3120, Note_on_c, 5, 55, 96
1, 3120, Note_on_c, 6, 43, 96
1, 3120, Note_on_c, 7, 79, 96
1, 3120, Note_on_c, 7, 72, 96
1, 3120, Note_on_c, 8, 55, 96
1, 3141, Note_off_c, 3, 72, 0
1, 3141, Note_off_c, 7, 72, 0
1, 3144, Note_on_c, 3, 71, 96
1, 3144, Note_on_c, 7, 71, 96
1, 3156, Note_off_c, 4, 55, 0
1, 3162, Note_off_c, 2, 79, 0
1, 3162, Note_off_c, 5, 55, 0
1, 3162, Note_off_c, 6, 43, 0
1, 3162, Note_off_c, 7, 79, 0
1, 3162, Note_off_c, 8, 55, 0
1, 3165, Note_off_c, 3, 71, 0
1, 3165, Note_off_c, 7, 71, 0
1, 3168, Note_on_c, 2, 72, 96
1, 3168, Note_on_c, 3, 72, 96
1, 3168, Note_on_c, 4, 64, 96
1, 3168, Note_on_c, 5, 57, 96
1, 3168, Note_on_c, 6, 45, 96
1, 3168, Note_on_c, 7, 72, 96
1, 3168, Note_on_c, 8, 57, 96
1, 3210, Note_off_c, 3, 72, 0
1, 3210, Note_off_c, 5, 57, 0
1, 3210, Note_off_c, 6, 45, 0
1, 3210, Note_off_c, 8, 57, 0
1, 3216, Note_on_c, 3, 67, 96
1, 3216, Note_on_c, 5, 52, 96
1, 3216, Note_on_c, 6, 40, 96
1, 3216, Note_on_c, 7, 67, 96
1, 3216, Note_on_c, 8, 52, 96
1, 3252, Note_off_c, 4, 64, 0
1, 3258, Note_off_c, 3, 67, 0
1, 3258, Note_off_c, 5, 52, 0
1, 3258, Note_off_c, 6, 40, 0
1, 3258, Note_off_c, 7, 67, 0
1, 3258, Note_off_c, 8, 52, 0
1, 3264, Note_on_c, 3, 69, 96
1, 3264, Note_on_c, 4, 62, 96
1, 3264, Note_on_c, 5, 53, 96
1, 3264, Note_on_c, 6, 41, 96
1, 3264, Note_on_c, 7, 69, 96
1, 3264, Note_on_c, 8, 53, 96
1, 3285, Note_off_c, 7, 69, 0
1, 3288, Note_on_c, 7, 67, 96
1, 3306, Note_off_c, 3, 69, 0
1, 3306, Note_off_c, 5, 53, 0
1, 3306, Note_off_c, 6, 41, 0
1, 3306, Note_off_c, 8, 53, 0
1, 3309, Note_off_c, 7, 67, 0
1, 3312, Note_on_c, 3, 65, 96
1, 3312, Note_on_c, 5, 50, 96
1, 3312, Note_on_c, 6, 38, 96
1, 3312, Note_on_c, 7, 65, 96
1, 3312, Note_on_c, 8, 50, 96
1, 3333, Note_off_c, 7, 65, 0
1, 3336, Note_off_c, 2, 72, 0
1, 3336, Note_off_c, 7, 72, 0
1, 3336, Note_on_c, 7, 64, 96
1, 3354, Note_off_c, 3, 65, 0
1, 3354, Note_off_c, 5, 50, 0
1, 3354, Note_off_c, 6, 38, 0
1, 3354, Note_off_c, 8, 50, 0
1, 3357, Note_off_c, 7, 64, 0
1, 3360, Note_on_c, 2, 71, 96
1, 3360, Note_on_c, 3, 62, 96
1, 3360, Note_on_c, 5, 55, 96
1, 3360, Note_on_c, 6, 43, 96
1, 3360, Note_on_c, 7, 71, 96
1, 3360, Note_on_c, 7, 62, 96
1, 3360, Note_on_c, 8, 55, 96
1, 3381, Note_off_c, 7, 62, 0
1, 3384, Note_on_c, 7, 64, 96
1, 3402, Note_off_c, 3, 62, 0
1, 3402, Note_off_c, 5, 55, 0
1, 3402, Note_off_c, 6, 43, 0
1, 3402, Note_off_c, 8, 55, 0
1, 3405, Note_off_c, 7, 64, 0
1, 3408, Note_on_c, 3, 65, 96
1, 3408, Note_on_c, 5, 50, 96
1, 3408, Note_on_c, 6, 38, 96
1, 3408, Note_on_c, 7, 65, 96
1, 3408, Note_on_c, 8, 50, 96
1, 3429, Note_off_c, 7, 65, 0
1, 3432, Note_off_c, 4, 62, 0
1, 3432, Note_on_c, 7, 62, 96
1, 3444, Note_off_c, 2, 71, 0
1, 3444, Note_off_c, 7, 71, 0
1, 3450, Note_off_c, 3, 65, 0
1, 3450, Note_off_c, 5, 50, 0
1, 3450, Note_off_c, 6, 38, 0
1, 3450, Note_off_c, 8, 50, 0
1, 3453, Note_off_c, 7, 62, 0
1, 3456, Note_on_c, 2, 72, 96
1, 3456, Note_on_c, 3, 67, 96
1, 3456, Note_on_c, 4, 60, 96
1, 3456, Note_on_c, 5, 52, 96
1, 3456, Note_on_c, 6, 40, 96
1, 3456, Note_on_c, 7, 72, 96
1, 3456, Note_on_c, 7, 67, 96
1, 3456, Note_on_c, 8, 52, 96
1, 3477, Note_off_c, 7, 67, 0
1, 3477, Note_off_c, 8, 52, 0
1, 3480, Note_on_c, 7, 65, 96
1, 3480, Note_on_c, 8, 50, 96
1, 3498, Note_off_c, 2, 72, 0
1, 3498, Note_off_c, 3, 67, 0
1, 3498, Note_off_c, 4, 60, 0
1, 3498, Note_off_c, 5, 52, 0
1, 3498, Note_off_c, 6, 40, 0
1, 3498, Note_off_c, 7, 72, 0
1, 3501, Note_off_c, 7, 65, 0
1, 3501, Note_off_c, 8, 50, 0
1, 3504, Note_on_c, 2, 67, 96
1, 3504, Note_on_c, 3, 64, 96
1, 3504, Note_on_c, 4, 67, 96
1, 3504, Note_on_c, 5, 48, 96
1, 3504, Note_on_c, 6, 36, 96
1, 3504, Note_on_c, 7, 67, 96
1, 3504, Note_on_c, 7, 64, 96
1, 3504, Note_on_c, 8, 48, 96
1, 3525, Note_off_c, 3, 64, 0
1, 3525, Note_off_c, 4, 67, 0
1, 3525, Note_off_c, 5, 48, 0
1, 3525, Note_off_c, 6, 36, 0
1, 3525, Note_off_c, 7, 64, 0
1, 3525, Note_off_c, 8, 48, 0
1, 3528, Note_on_c, 3, 65, 96
1, 3528, Note_on_c, 4, 65, 96
1, 3528, Note_on_c, 5, 50, 96
1, 3528, Note_on_c, 6, 38, 96
1, 3528, Note_on_c, 7, 65, 96
1, 3528, Note_on_c, 8, 50, 96
1, 3546, Note_off_c, 2, 67, 0
1, 3546, Note_off_c, 7, 67, 0
1, 3549, Note_off_c, 3, 65, 0
1, 3549, Note_off_c, 4, 65, 0
1, 3549, Note_off_c, 5, 50, 0
1, 3549, Note_off_c, 6, 38, 0
1, 3549, Note_off_c, 7, 65, 0
1, 3549, Note_off_c, 8, 50, 0
1, 3552, Note_on_c, 2, 72, 96
1, 3552, Note_on_c, 3, 67, 96
1, 3552, Note_on_c, 4, 64, 96
1, 3552, Note_on_c, 5, 52, 96
1, 3552, Note_on_c, 6, 40, 96
1, 3552, Note_on_c, 7, 72, 96
1, 3552, Note_on_c, 7, 67, 96
1, 3552, Note_on_c, 8, 52, 96
1, 3573, Note_off_c, 8, 52, 0
1, 3576, Note_on_c, 8, 55, 96
1, 3594, Note_off_c, 3, 67, 0
1, 3594, Note_off_c, 4, 64, 0
1, 3594, Note_off_c, 5, 52, 0
1, 3594, Note_off_c, 6, 40, 0
1, 3594, Note_off_c, 7, 67, 0
1, 3597, Note_off_c, 8, 55, 0
1, 3600, Note_on_c, 3, 69, 96
1, 3600, Note_on_c, 4, 62, 96
1, 3600, Note_on_c, 5, 54, 96
1, 3600, Note_on_c, 6, 42, 96
1, 3600, Note_on_c, 7, 69, 96
1, 3600, Note_on_c, 8, 54, 96
1, 3621, Note_off_c, 8, 54, 0
1, 3624, Note_on_c, 8, 57, 96
1, 3642, Note_off_c, 4, 62, 0
1, 3642, Note_off_c, 5, 54, 0
1, 3642, Note_off_c, 6, 42, 0
1, 3645, Note_off_c, 8, 57, 0
1, 3648, Note_on_c, 4, 62, 96
1, 3648, Note_on_c, 5, 55, 96
1, 3648, Note_on_c, 6, 43, 96
1, 3648, Note_on_c, 8, 55, 96
1, 3648, Note_on_c, 8, 62, 96
1, 3678, Note_off_c, 2, 72, 0
1, 3678, Note_off_c, 7, 72, 0
1, 3684, Note_off_c, 3, 69, 0
1, 3684, Note_off_c, 7, 69, 0
1, 3690, Note_off_c, 5, 55, 0
1, 3690, Note_off_c, 6, 43, 0
1, 3690, Note_off_c, 8, 55, 0
1, 3696, Note_on_c, 2, 70, 96
1, 3696, Note_on_c, 3, 67, 96
1, 3696, Note_on_c, 5, 50, 96
1, 3696, Note_on_c, 6, 38, 96
1, 3696, Note_on_c, 7, 70, 96
1, 3696, Note_on_c, 7, 67, 96
1, 3696, Note_on_c, 8, 50, 96
1, 3717, Note_off_c, 2, 70, 0
1, 3717, Note_off_c, 3, 67, 0
1, 3717, Note_off_c, 7, 70, 0
1, 3717, Note_off_c, 7, 67, 0
1, 3720, Note_on_c, 2, 69, 96
1, 3720, Note_on_c, 3, 66, 96
1, 3720, Note_on_c, 7, 69, 96
1, 3720, Note_on_c, 7, 66, 96
1, 3738, Note_off_c, 5, 50, 0
1, 3738, Note_off_c, 6, 38, 0
1, 3738, Note_off_c, 8, 50, 0
1, 3741, Note_off_c, 2, 69, 0
1, 3741, Note_off_c, 3, 66, 0
1, 3741, Note_off_c, 7, 69, 0
1, 3741, Note_off_c, 7, 66, 0
1, 3744, Note_on_c, 2, 70, 96
1, 3744, Note_on_c, 3, 67, 96
1, 3744, Note_on_c, 5, 55, 96
1, 3744, Note_on_c, 6, 43, 96
1, 3744, Note_on_c, 7, 70, 96
1, 3744, Note_on_c, 7, 67, 96
1, 3744, Note_on_c, 8, 55, 96
1, 3774, Note_off_c, 4, 62, 0
1, 3774, Note_off_c, 8, 62, 0
1, 3786, Note_off_c, 2, 70, 0
1, 3786, Note_off_c, 3, 67, 0
1, 3786, Note_off_c, 7, 70, 0
1, 3786, Note_off_c, 7, 67, 0
1, 3792, Note_on_c, 2, 72, 96
1, 3792, Note_on_c, 3, 69, 96
1, 3792, Note_on_c, 4, 60, 96
1, 3792, Note_on_c, 7, 72, 96
1, 3792, Note_on_c, 7, 69, 96
1, 3792, Note_on_c, 8, 64, 96
1, 3813, Note_off_c, 4, 60, 0
1, 3816, Note_on_c, 4, 58, 96
1, 3834, Note_off_c, 2, 72, 0
1, 3834, Note_off_c, 3, 69, 0
1, 3834, Note_off_c, 7, 72, 0
1, 3834, Note_off_c, 7, 69, 0
1, 3834, Note_off_c, 8, 64, 0
1, 3837, Note_off_c, 4, 58, 0
1, 3840, Note_on_c, 2, 74, 96
1, 3840, Note_on_c, 3, 62, 96
1, 3840, Note_on_c, 4, 57, 96
1, 3840, Note_on_c, 7, 74, 96
1, 3840, Note_on_c, 7, 69, 96
1, 3840, Note_on_c, 8, 62, 96
1, 3861, Note_off_c, 3, 62, 0
1, 3864, Note_on_c, 3, 64, 96
1, 3870, Note_off_c, 5, 55, 0
1, 3870, Note_off_c, 6, 43, 0
1, 3870, Note_off_c, 8, 55, 0
1, 3882, Note_off_c, 2, 74, 0
1, 3882, Note_off_c, 4, 57, 0
1, 3882, Note_off_c, 7, 74, 0
1, 3882, Note_off_c, 7, 69, 0
1, 3885, Note_off_c, 3, 64, 0
1, 3888, Note_on_c, 2, 69, 96
1, 3888, Note_on_c, 3, 65, 96
1, 3888, Note_on_c, 4, 69, 96
1, 3888, Note_on_c, 5, 53, 96
1, 3888, Note_on_c, 6, 41, 96
1, 3888, Note_on_c, 7, 69, 96
1, 3888, Note_on_c, 8, 53, 96
1, 3909, Note_off_c, 3, 65, 0
1, 3909, Note_off_c, 4, 69, 0
1, 3909, Note_off_c, 5, 53, 0
1, 3909, Note_off_c, 6, 41, 0
1, 3909, Note_off_c, 8, 53, 0
1, 3912, Note_on_c, 3, 67, 96
1, 3912, Note_on_c, 4, 67, 96
1, 3912, Note_on_c, 5, 52, 96
1, 3912, Note_on_c, 6, 40, 96
1, 3912, Note_on_c, 8, 52, 96
1, 3924, Note_off_c, 8, 62, 0
1, 3930, Note_off_c, 2, 69, 0
1, 3933, Note_off_c, 3, 67, 0
1, 3933, Note_off_c, 4, 67, 0
1, 3933, Note_off_c, 5, 52, 0
1, 3933, Note_off_c, 6, 40, 0
1, 3933, Note_off_c, 8, 52, 0
1, 3936, Note_on_c, 2, 74, 96
1, 3936, Note_on_c, 3, 69, 96
1, 3936, Note_on_c, 4, 65, 96
1, 3936, Note_on_c, 5, 53, 96
1, 3936, Note_on_c, 6, 41, 96
1, 3936, Note_on_c, 7, 74, 96
1, 3936, Note_on_c, 8, 53, 96
1, 3957, Note_off_c, 8, 53, 0
1, 3960, Note_on_c, 8, 57, 96
1, 3972, Note_off_c, 7, 69, 0
1, 3978, Note_off_c, 3, 69, 0
1, 3978, Note_off_c, 4, 65, 0
1, 3978, Note_off_c, 5, 53, 0
1, 3978, Note_off_c, 6, 41, 0
1, 3981, Note_off_c, 8, 57, 0
1, 3984, Note_on_c, 3, 70, 96
1, 3984, Note_on_c, 4, 64, 96
1, 3984, Note_on_c, 5, 55, 96
1, 3984, Note_on_c, 6, 43, 96
1, 3984, Note_on_c, 7, 70, 96
1, 3984, Note_on_c, 8, 55, 96
1, 4005, Note_off_c, 8, 55, 0
1, 4008, Note_on_c, 8, 58, 96
1, 4026, Note_off_c, 3, 70, 0
1, 4026, Note_off_c, 4, 64, 0
1, 4026, Note_off_c, 5, 55, 0
1, 4026, Note_off_c, 6, 43, 0
1, 4026, Note_off_c, 7, 70, 0
1, 4029, Note_off_c, 8, 58, 0
1, 4032, Note_on_c, 3, 64, 96
1, 4032, Note_on_c, 4, 69, 96
1, 4032, Note_on_c, 5, 57, 96
1, 4032, Note_on_c, 6, 45, 96
1, 4032, Note_on_c, 7, 64, 96
1, 4032, Note_on_c, 8, 57, 96
1, 4062, Note_off_c, 2, 74, 0
1, 4062, Note_off_c, 7, 74, 0
1, 4074, Note_off_c, 5, 57, 0
1, 4074, Note_off_c, 6, 45, 0
1, 4074, Note_off_c, 8, 57, 0
1, 4080, Note_on_c, 2, 72, 96
1, 4080, Note_on_c, 5, 52, 96
1, 4080, Note_on_c, 6, 40, 96
1, 4080, Note_on_c, 7, 72, 96
1, 4080, Note_on_c, 8, 52, 96
1, 4101, Note_off_c, 2, 72, 0
1, 4101, Note_off_c, 7, 72, 0
1, 4104, Note_on_c, 2, 70, 96
1, 4104, Note_on_c, 7, 70, 96
1, 4122, Note_off_c, 5, 52, 0
1, 4122, Note_off_c, 6, 40, 0
1, 4122, Note_off_c, 8, 52, 0
1, 4125, Note_off_c, 2, 70, 0
1, 4125, Note_off_c, 7, 70, 0
1, 4128, Note_on_c, 2, 72, 96
1, 4128, Note_on_c, 5, 57, 96
1, 4128, Note_on_c, 6, 45, 96
1, 4128, Note_on_c, 7, 72, 96
1, 4128, Note_on_c, 8, 57, 96
1, 4158, Note_off_c, 3, 64, 0
1, 4158, Note_off_c, 4, 69, 0
1, 4158, Note_off_c, 7, 64, 0
1, 4170, Note_off_c, 2, 72, 0
1, 4170, Note_off_c, 7, 72, 0
1, 4176, Note_on_c, 2, 74, 96
1, 4176, Note_on_c, 3, 65, 96
1, 4176, Note_on_c, 4, 70, 96
1, 4176, Note_on_c, 7, 74, 96
1, 4176, Note_on_c, 7, 65, 96
1, 4197, Note_off_c, 2, 74, 0
1, 4197, Note_off_c, 3, 65, 0
1, 4197, Note_off_c, 7, 74, 0
1, 4197, Note_off_c, 7, 65, 0
1, 4200, Note_on_c, 2, 76, 96
1, 4200, Note_on_c, 3, 67, 96
1, 4200, Note_on_c, 7, 76, 96
1, 4200, Note_on_c, 7, 67, 96
1, 4218, Note_off_c, 4, 70, 0
1, 4221, Note_off_c, 2, 76, 0
1, 4221, Note_off_c, 3, 67, 0
1, 4221, Note_off_c, 7, 76, 0
1, 4221, Note_off_c, 7, 67, 0
1, 4224, Note_on_c, 0, 77, 96
1, 4224, Note_on_c, 1, 77, 96
1, 4224, Note_on_c, 2, 77, 96
1, 4224, Note_on_c, 3, 69, 96
1, 4224, Note_on_c, 4, 72, 96
1, 4224, Note_on_c, 7, 77, 96
1, 4224, Note_on_c, 7, 69, 96
1, 4224, Note_on_c, 8, 72, 96
1, 4254, Note_off_c, 5, 57, 0
1, 4254, Note_off_c, 6, 45, 0
1, 4254, Note_off_c, 8, 57, 0
1, 4266, Note_off_c, 4, 72, 0
1, 4272, Note_on_c, 4, 57, 96
1, 4272, Note_on_c, 5, 41, 96
1, 4272, Note_on_c, 6, 29, 96
1, 4272, Note_on_c, 8, 41, 96
1, 4293, Note_off_c, 4, 57, 0
1, 4293, Note_off_c, 5, 41, 0
1, 4293, Note_off_c, 6, 29, 0
1, 4293, Note_off_c, 8, 41, 0
1, 4296, Note_on_c, 4, 59, 96
1, 4296, Note_on_c, 5, 43, 96
1, 4296, Note_on_c, 6, 31, 96
1, 4296, Note_on_c, 8, 43, 96
1, 4308, Note_off_c, 0, 77, 0
1, 4308, Note_off_c, 1, 77, 0
1, 4308, Note_off_c, 2, 77, 0
1, 4308, Note_off_c, 3, 69, 0
1, 4308, Note_off_c, 7, 77, 0
1, 4317, Note_off_c, 4, 59, 0
1, 4317, Note_off_c, 5, 43, 0
1, 4317, Note_off_c, 6, 31, 0
1, 4317, Note_off_c, 8, 43, 0
1, 4320, Note_on_c, 0, 84, 96
1, 4320, Note_on_c, 1, 84, 96
1, 4320, Note_on_c, 2, 76, 96
1, 4320, Note_on_c, 3, 69, 96
1, 4320, Note_on_c, 4, 60, 96
1, 4320, Note_on_c, 5, 45, 96
1, 4320, Note_on_c, 6, 33, 96
1, 4320, Note_on_c, 7, 76, 96
1, 4320, Note_on_c, 8, 45, 96
1, 4350, Note_off_c, 7, 69, 0
1, 4362, Note_off_c, 4, 60, 0
1, 4362, Note_off_c, 5, 45, 0
1, 4362, Note_off_c, 6, 33, 0
1, 4362, Note_off_c, 8, 45, 0
1, 4368, Note_on_c, 4, 62, 96
1, 4368, Note_on_c, 5, 47, 96
1, 4368, Note_on_c, 6, 35, 96
1, 4368, Note_on_c, 7, 67, 96
1, 4368, Note_on_c, 8, 47, 96
1, 4389, Note_off_c, 4, 62, 0
1, 4389, Note_off_c, 5, 47, 0
1, 4389, Note_off_c, 6, 35, 0
1, 4389, Note_off_c, 8, 47, 0
1, 4392, Note_on_c, 4, 64, 96
1, 4392, Note_on_c, 5, 48, 96
1, 4392, Note_on_c, 6, 36, 96
1, 4392, Note_on_c, 8, 48, 96
1, 4404, Note_off_c, 2, 76, 0
1, 4404, Note_off_c, 7, 76, 0
1, 4410, Note_off_c, 7, 67, 0
1, 4413, Note_off_c, 4, 64, 0
1, 4413, Note_off_c, 5, 48, 0
1, 4413, Note_off_c, 6, 36, 0
1, 4413, Note_off_c, 8, 48, 0
1, 4416, Note_on_c, 2, 74, 96
1, 4416, Note_on_c, 4, 65, 96
1, 4416, Note_on_c, 5, 50, 96
1, 4416, Note_on_c, 6, 38, 96
1, 4416, Note_on_c, 7, 74, 96
1, 4416, Note_on_c, 7, 65, 96
1, 4416, Note_on_c, 8, 50, 96
1, 4446, Note_off_c, 0, 84, 0
1, 4446, Note_off_c, 1, 84, 0
1, 4458, Note_off_c, 5, 50, 0
1, 4458, Note_off_c, 6, 38, 0
1, 4458, Note_off_c, 8, 50, 0
1, 4464, Note_on_c, 0, 83, 96
1, 4464, Note_on_c, 1, 83, 96
1, 4464, Note_on_c, 5, 52, 96
1, 4464, Note_on_c, 6, 40, 96
1, 4464, Note_on_c, 8, 52, 96
1, 4485, Note_off_c, 0, 83, 0
1, 4485, Note_off_c, 1, 83, 0
1, 4488, Note_on_c, 0, 84, 96
1, 4488, Note_on_c, 1, 84, 96
1, 4488, Note_off_c, 3, 69, 0
1, 4488, Note_off_c, 8, 72, 0
1, 4500, Note_off_c, 4, 65, 0
1, 4506, Note_off_c, 5, 52, 0
1, 4506, Note_off_c, 6, 40, 0
1, 4506, Note_off_c, 8, 52, 0
1, 4509, Note_off_c, 0, 84, 0
1, 4509, Note_off_c, 1, 84, 0
1, 4512, Note_on_c, 0, 86, 96
1, 4512, Note_on_c, 1, 86, 96
1, 4512, Note_on_c, 3, 67, 96
1, 4512, Note_on_c, 4, 59, 96
1, 4512, Note_on_c, 5, 53, 96
1, 4512, Note_on_c, 6, 41, 96
1, 4512, Note_on_c, 8, 53, 96
1, 4512, Note_on_c, 8, 71, 96
1, 4554, Note_off_c, 0, 86, 0
1, 4554, Note_off_c, 1, 86, 0
1, 4554, Note_off_c, 5, 53, 0
1, 4554, Note_off_c, 6, 41, 0
1, 4554, Note_off_c, 8, 53, 0
1, 4560, Note_on_c, 0, 84, 96
1, 4560, Note_on_c, 1, 84, 96
1, 4560, Note_on_c, 5, 55, 96
1, 4560, Note_on_c, 6, 43, 96
1, 4560, Note_on_c, 8, 55, 96
1, 4581, Note_off_c, 0, 84, 0
1, 4581, Note_off_c, 1, 84, 0
1, 4584, Note_on_c, 0, 83, 96
1, 4584, Note_on_c, 1, 83, 96
1, 4584, Note_off_c, 2, 74, 0
1, 4584, Note_off_c, 7, 74, 0
1, 4584, Note_off_c, 7, 65, 0
1, 4596, Note_off_c, 4, 59, 0
1, 4596, Note_off_c, 8, 71, 0
1, 4602, Note_off_c, 5, 55, 0
1, 4602, Note_off_c, 6, 43, 0
1, 4602, Note_off_c, 8, 55, 0
1, 4605, Note_off_c, 0, 83, 0
1, 4605, Note_off_c, 1, 83, 0
1, 4608, Note_on_c, 0, 84, 96
1, 4608, Note_on_c, 1, 84, 96
1, 4608, Note_on_c, 2, 72, 96
1, 4608, Note_on_c, 4, 57, 96
1, 4608, Note_on_c, 5, 57, 96
1, 4608, Note_on_c, 6, 45, 96
1, 4608, Note_on_c, 7, 72, 96
1, 4608, Note_on_c, 7, 64, 96
1, 4608, Note_on_c, 8, 57, 96
1, 4608, Note_on_c, 8, 69, 96
1, 4638, Note_off_c, 3, 67, 0
1, 4650, Note_off_c, 0, 84, 0
1, 4650, Note_off_c, 1, 84, 0
1, 4650, Note_off_c, 4, 57, 0
1, 4650, Note_off_c, 5, 57, 0
1, 4650, Note_off_c, 6, 45, 0
1, 4650, Note_off_c, 7, 64, 0
1, 4650, Note_off_c, 8, 57, 0
1, 4650, Note_off_c, 8, 69, 0
1, 4656, Note_on_c, 0, 79, 96
1, 4656, Note_on_c, 1, 79, 96
1, 4656, Note_on_c, 3, 65, 96
1, 4656, Note_on_c, 4, 62, 96
1, 4656, Note_on_c, 5, 59, 96
1, 4656, Note_on_c, 6, 47, 96
1, 4656, Note_on_c, 7, 62, 96
1, 4656, Note_on_c, 8, 59, 96
1, 4692, Note_off_c, 2, 72, 0
1, 4692, Note_off_c, 7, 72, 0
1, 4698, Note_off_c, 0, 79, 0
1, 4698, Note_off_c, 1, 79, 0
1, 4698, Note_off_c, 3, 65, 0
1, 4698, Note_off_c, 4, 62, 0
1, 4698, Note_off_c, 5, 59, 0
1, 4698, Note_off_c, 6, 47, 0
1, 4698, Note_off_c, 7, 62, 0
1, 4698, Note_off_c, 8, 59, 0
1, 4704, Note_on_c, 0, 81, 96
1, 4704, Note_on_c, 1, 81, 96
1, 4704, Note_on_c, 3, 64, 96
1, 4704, Note_on_c, 4, 60, 96
1, 4704, Note_on_c, 5, 60, 96
1, 4704, Note_on_c, 6, 48, 96
1, 4704, Note_on_c, 7, 64, 96
1, 4704, Note_on_c, 8, 60, 96
1, 4728, Note_on_c, 2, 72, 96
1, 4728, Note_on_c, 7, 72, 96
1, 4746, Note_off_c, 0, 81, 0
1, 4746, Note_off_c, 1, 81, 0
1, 4746, Note_off_c, 3, 64, 0
1, 4746, Note_off_c, 4, 60, 0
1, 4749, Note_off_c, 2, 72, 0
1, 4749, Note_off_c, 7, 72, 0
1, 4752, Note_on_c, 0, 76, 96
1, 4752, Note_on_c, 1, 76, 96
1, 4752, Note_on_c, 2, 71, 96
1, 4752, Note_on_c, 3, 69, 96
1, 4752, Note_on_c, 4, 64, 96
1, 4752, Note_on_c, 7, 71, 96
1, 4773, Note_off_c, 2, 71, 0
1, 4773, Note_off_c, 7, 71, 0
1, 4776, Note_on_c, 2, 72, 96
1, 4776, Note_on_c, 7, 72, 96
1, 4788, Note_off_c, 7, 64, 0
1, 4794, Note_off_c, 0, 76, 0
1, 4794, Note_off_c, 1, 76, 0
1, 4794, Note_off_c, 4, 64, 0
1, 4797, Note_off_c, 2, 72, 0
1, 4797, Note_off_c, 7, 72, 0
1, 4800, Note_on_c, 0, 77, 96
1, 4800, Note_on_c, 1, 77, 96
1, 4800, Note_on_c, 2, 74, 96
1, 4800, Note_on_c, 4, 62, 96
1, 4800, Note_on_c, 7, 74, 96
1, 4800, Note_on_c, 7, 62, 96
1, 4821, Note_off_c, 2, 74, 0
1, 4821, Note_off_c, 7, 74, 0
1, 4824, Note_on_c, 2, 72, 96
1, 4824, Note_on_c, 7, 72, 96
1, 4836, Note_off_c, 3, 69, 0
1, 4842, Note_off_c, 0, 77, 0
1, 4842, Note_off_c, 1, 77, 0
1, 4842, Note_off_c, 4, 62, 0
1, 4845, Note_off_c, 2, 72, 0
1, 4845, Note_off_c, 7, 72, 0
1, 4848, Note_on_c, 0, 74, 96
1, 4848, Note_on_c, 1, 74, 96
1, 4848, Note_on_c, 2, 74, 96
1, 4848, Note_on_c, 3, 65, 96
1, 4848, Note_on_c, 4, 69, 96
1, 4848, Note_on_c, 7, 74, 96
1, 4869, Note_off_c, 2, 74, 0
1, 4869, Note_off_c, 7, 74, 0
1, 4872, Note_on_c, 2, 76, 96
1, 4872, Note_off_c, 5, 60, 0
1, 4872, Note_off_c, 6, 48, 0
1, 4872, Note_on_c, 7, 76, 96
1, 4872, Note_off_c, 8, 60, 0
1, 4890, Note_off_c, 0, 74, 0
1, 4890, Note_off_c, 1, 74, 0
1, 4890, Note_off_c, 3, 65, 0
1, 4890, Note_off_c, 4, 69, 0
1, 4893, Note_off_c, 2, 76, 0
1, 4893, Note_off_c, 7, 76, 0
1, 4896, Note_on_c, 0, 79, 96
1, 4896, Note_on_c, 1, 79, 96
1, 4896, Note_on_c, 2, 74, 96
1, 4896, Note_on_c, 3, 62, 96
1, 4896, Note_on_c, 4, 67, 96
1, 4896, Note_on_c, 5, 59, 96
1, 4896, Note_on_c, 6, 47, 96
1, 4896, Note_on_c, 7, 74, 96
1, 4896, Note_on_c, 8, 59, 96
1, 4917, Note_off_c, 2, 74, 0
1, 4917, Note_off_c, 7, 74, 0
1, 4920, Note_on_c, 2, 76, 96
1, 4920, Note_on_c, 7, 76, 96
1, 4938, Note_off_c, 0, 79, 0
1, 4938, Note_off_c, 1, 79, 0
1, 4938, Note_off_c, 3, 62, 0
1, 4941, Note_off_c, 2, 76, 0
1, 4941, Note_off_c, 7, 76, 0
1, 4944, Note_on_c, 0, 74, 96
1, 4944, Note_on_c, 1, 74, 96
1, 4944, Note_on_c, 2, 77, 96
1, 4944, Note_on_c, 3, 67, 96
1, 4944, Note_on_c, 7, 77, 96
1, 4965, Note_off_c, 2, 77, 0
1, 4965, Note_off_c, 7, 77, 0
1, 4968, Note_on_c, 2, 79, 96
1, 4968, Note_on_c, 7, 79, 96
1, 4968, Note_off_c, 7, 62, 0
1, 4980, Note_off_c, 4, 67, 0
1, 4980, Note_off_c, 5, 59, 0
1, 4980, Note_off_c, 6, 47, 0
1, 4980, Note_off_c, 8, 59, 0
1, 4986, Note_off_c, 0, 74, 0
1, 4986, Note_off_c, 1, 74, 0
1, 4989, Note_off_c, 2, 79, 0
1, 4989, Note_off_c, 7, 79, 0
1, 4992, Note_on_c, 0, 76, 96
1, 4992, Note_on_c, 1, 76, 96
1, 4992, Note_on_c, 2, 76, 96
1, 4992, Note_on_c, 4, 60, 96
1, 4992, Note_on_c, 5, 60, 96
1, 4992, Note_on_c, 6, 48, 96
1, 4992, Note_on_c, 7, 76, 96
1, 4992, Note_on_c, 8, 60, 96
1, 5028, Note_off_c, 3, 67, 0
1, 5034, Note_off_c, 0, 76, 0
1, 5034, Note_off_c, 1, 76, 0
1, 5034, Note_off_c, 2, 76, 0
1, 5034, Note_off_c, 5, 60, 0
1, 5034, Note_off_c, 6, 48, 0
1, 5034, Note_off_c, 7, 76, 0
1, 5034, Note_off_c, 8, 60, 0
1, 5040, Note_on_c, 0, 72, 96
1, 5040, Note_on_c, 1, 72, 96
1, 5040, Note_on_c, 2, 79, 96
1, 5040, Note_on_c, 3, 64, 96
1, 5040, Note_on_c, 5, 59, 96
1, 5040, Note_on_c, 6, 47, 96
1, 5040, Note_on_c, 7, 79, 96
1, 5040, Note_on_c, 8, 59, 96
1, 5076, Note_off_c, 4, 60, 0
1, 5082, Note_off_c, 0, 72, 0
1, 5082, Note_off_c, 1, 72, 0
1, 5082, Note_off_c, 2, 79, 0
1, 5082, Note_off_c, 3, 64, 0
1, 5082, Note_off_c, 5, 59, 0
1, 5082, Note_off_c, 6, 47, 0
1, 5082, Note_off_c, 7, 79, 0
1, 5082, Note_off_c, 8, 59, 0
1, 5088, Note_on_c, 2, 84, 96
1, 5088, Note_on_c, 3, 60, 96
1, 5088, Note_on_c, 4, 64, 96
1, 5088, Note_on_c, 5, 57, 96
1, 5088, Note_on_c, 6, 45, 96
1, 5088, Note_on_c, 7, 84, 96
1, 5088, Note_on_c, 7, 81, 96
1, 5088, Note_on_c, 7, 76, 96
1, 5088, Note_on_c, 8, 57, 96
1, 5112, Note_on_c, 0, 72, 96
1, 5112, Note_on_c, 1, 72, 96
1, 5130, Note_off_c, 3, 60, 0
1, 5130, Note_off_c, 5, 57, 0
1, 5130, Note_off_c, 6, 45, 0
1, 5130, Note_off_c, 8, 57, 0
1, 5133, Note_off_c, 0, 72, 0
1, 5133, Note_off_c, 1, 72, 0
1, 5136, Note_on_c, 0, 71, 96
1, 5136, Note_on_c, 1, 71, 96
1, 5136, Note_on_c, 3, 64, 96
1, 5136, Note_on_c, 5, 55, 96
1, 5136, Note_on_c, 6, 43, 96
1, 5136, Note_on_c, 8, 55, 96
1, 5157, Note_off_c, 0, 71, 0
1, 5157, Note_off_c, 1, 71, 0
1, 5160, Note_on_c, 0, 72, 96
1, 5160, Note_on_c, 1, 72, 96
1, 5172, Note_off_c, 4, 64, 0
1, 5172, Note_off_c, 7, 76, 0
1, 5178, Note_off_c, 3, 64, 0
1, 5178, Note_off_c, 5, 55, 0
1, 5178, Note_off_c, 6, 43, 0
1, 5178, Note_off_c, 8, 55, 0
1, 5181, Note_off_c, 0, 72, 0
1, 5181, Note_off_c, 1, 72, 0
1, 5184, Note_on_c, 0, 74, 96
1, 5184, Note_on_c, 1, 74, 96
1, 5184, Note_on_c, 3, 69, 96
1, 5184, Note_on_c, 4, 65, 96
1, 5184, Note_on_c, 5, 53, 96
1, 5184, Note_on_c, 6, 41, 96
1, 5184, Note_on_c, 7, 74, 96
1, 5184, Note_on_c, 8, 53, 96
1, 5205, Note_off_c, 0, 74, 0
1, 5205, Note_off_c, 1, 74, 0
1, 5208, Note_on_c, 0, 72, 96
1, 5208, Note_on_c, 1, 72, 96
1, 5226, Note_off_c, 3, 69, 0
1, 5226, Note_off_c, 5, 53, 0
1, 5226, Note_off_c, 6, 41, 0
1, 5226, Note_off_c, 8, 53, 0
1, 5229, Note_off_c, 0, 72, 0
1, 5229, Note_off_c, 1, 72, 0
1, 5232, Note_on_c, 0, 74, 96
1, 5232, Note_on_c, 1, 74, 96
1, 5232, Note_on_c, 3, 74, 96
1, 5232, Note_on_c, 5, 50, 96
1, 5232, Note_on_c, 6, 38, 96
1, 5232, Note_on_c, 8, 50, 96
1, 5253, Note_off_c, 0, 74, 0
1, 5253, Note_off_c, 1, 74, 0
1, 5256, Note_on_c, 0, 76, 96
1, 5256, Note_on_c, 1, 76, 96
1, 5256, Note_off_c, 2, 84, 0
1, 5256, Note_off_c, 7, 84, 0
1, 5256, Note_off_c, 7, 81, 0
1, 5268, Note_off_c, 4, 65, 0
1, 5274, Note_off_c, 5, 50, 0
1, 5274, Note_off_c, 6, 38, 0
1, 5274, Note_off_c, 8, 50, 0
1, 5277, Note_off_c, 0, 76, 0
1, 5277, Note_off_c, 1, 76, 0
1, 5280, Note_on_c, 0, 74, 96
1, 5280, Note_on_c, 1, 74, 96
1, 5280, Note_on_c, 2, 82, 96
1, 5280, Note_on_c, 4, 67, 96
1, 5280, Note_on_c, 5, 55, 96
1, 5280, Note_on_c, 6, 43, 96
1, 5280, Note_on_c, 7, 82, 96
1, 5280, Note_on_c, 7, 79, 96
1, 5280, Note_on_c, 8, 55, 96
1, 5295, Note_off_c, 3, 74, 0
1, 5301, Note_off_c, 0, 74, 0
1, 5301, Note_off_c, 1, 74, 0
1, 5304, Note_on_c, 0, 76, 96
1, 5304, Note_on_c, 1, 76, 96
1, 5304, Note_on_c, 3, 72, 96
1, 5322, Note_off_c, 5, 55, 0
1, 5322, Note_off_c, 6, 43, 0
1, 5322, Note_off_c, 8, 55, 0
1, 5325, Note_off_c, 0, 76, 0
1, 5325, Note_off_c, 1, 76, 0
1, 5325, Note_off_c, 3, 72, 0
1, 5328, Note_on_c, 0, 77, 96
1, 5328, Note_on_c, 1, 77, 96
1, 5328, Note_on_c, 3, 74, 96
1, 5328, Note_on_c, 5, 43, 96
1, 5328, Note_on_c, 6, 31, 96
1, 5328, Note_on_c, 8, 43, 96
1, 5349, Note_off_c, 0, 77, 0
1, 5349, Note_off_c, 1, 77, 0
1, 5349, Note_off_c, 3, 74, 0
1, 5352, Note_on_c, 0, 79, 96
1, 5352, Note_on_c, 1, 79, 96
1, 5352, Note_on_c, 3, 76, 96
1, 5352, Note_off_c, 7, 74, 0
1, 5370, Note_off_c, 5, 43, 0
1, 5370, Note_off_c, 6, 31, 0
1, 5370, Note_off_c, 8, 43, 0
1, 5373, Note_off_c, 0, 79, 0
1, 5373, Note_off_c, 1, 79, 0
1, 5373, Note_off_c, 3, 76, 0
1, 5376, Note_on_c, 0, 76, 96
1, 5376, Note_on_c, 1, 76, 96
1, 5376, Note_on_c, 3, 72, 96
1, 5376, Note_on_c, 5, 48, 96
1, 5376, Note_on_c, 6, 36, 96
1, 5376, Note_on_c, 7, 76, 96
1, 5376, Note_on_c, 8, 48, 96
1, 5397, Note_off_c, 0, 76, 0
1, 5397, Note_off_c, 1, 76, 0
1, 5400, Note_on_c, 0, 77, 96
1, 5400, Note_on_c, 1, 77, 96
1, 5418, Note_off_c, 5, 48, 0
1, 5418, Note_off_c, 6, 36, 0
1, 5418, Note_off_c, 8, 48, 0
1, 5421, Note_off_c, 0, 77, 0
1, 5421, Note_off_c, 1, 77, 0
1, 5424, Note_on_c, 0, 74, 96
1, 5424, Note_on_c, 1, 74, 96
1, 5424, Note_on_c, 5, 46, 96
1, 5424, Note_on_c, 6, 34, 96
1, 5424, Note_on_c, 8, 46, 96
1, 5445, Note_off_c, 0, 74, 0
1, 5445, Note_off_c, 1, 74, 0
1, 5445, Note_off_c, 5, 46, 0
1, 5445, Note_off_c, 6, 34, 0
1, 5445, Note_off_c, 8, 46, 0
1, 5448, Note_on_c, 0, 76, 96
1, 5448, Note_on_c, 1, 76, 96
1, 5448, Note_off_c, 2, 82, 0
1, 5448, Note_off_c, 4, 67, 0
1, 5448, Note_on_c, 5, 48, 96
1, 5448, Note_on_c, 6, 36, 96
1, 5448, Note_off_c, 7, 82, 0
1, 5448, Note_off_c, 7, 79, 0
1, 5448, Note_on_c, 8, 48, 96
1, 5460, Note_off_c, 3, 72, 0
1, 5460, Note_off_c, 7, 76, 0
1, 5469, Note_off_c, 0, 76, 0
1, 5469, Note_off_c, 1, 76, 0
1, 5469, Note_off_c, 5, 48, 0
1, 5469, Note_off_c, 6, 36, 0
1, 5469, Note_off_c, 8, 48, 0
1, 5472, Note_on_c, 0, 77, 96
1, 5472, Note_on_c, 1, 77, 96
1, 5472, Note_on_c, 2, 81, 96
1, 5472, Note_on_c, 4, 65, 96
1, 5472, Note_on_c, 5, 50, 96
1, 5472, Note_on_c, 6, 38, 96
1, 5472, Note_on_c, 7, 81, 96
1, 5472, Note_on_c, 7, 81, 96
1, 5472, Note_on_c, 8, 50, 96
1, 5472, Note_on_c, 8, 77, 96
1, 5493, Note_off_c, 0, 77, 0
1, 5493, Note_off_c, 1, 77, 0
1, 5496, Note_on_c, 0, 79, 96
1, 5496, Note_on_c, 1, 79, 96
1, 5496, Note_on_c, 3, 65, 96
1, 5514, Note_off_c, 5, 50, 0
1, 5514, Note_off_c, 6, 38, 0
1, 5514, Note_off_c, 8, 50, 0
1, 5517, Note_off_c, 0, 79, 0
1, 5517, Note_off_c, 1, 79, 0
1, 5517, Note_off_c, 3, 65, 0
1, 5520, Note_on_c, 0, 76, 96
1, 5520, Note_on_c, 1, 76, 96
1, 5520, Note_on_c, 3, 67, 96
1, 5520, Note_on_c, 5, 48, 96
1, 5520, Note_on_c, 6, 36, 96
1, 5520, Note_on_c, 8, 48, 96
1, 5541, Note_off_c, 0, 76, 0
1, 5541, Note_off_c, 1, 76, 0
1, 5541, Note_off_c, 3, 67, 0
1, 5544, Note_on_c, 0, 77, 96
1, 5544, Note_on_c, 1, 77, 96
1, 5544, Note_on_c, 3, 69, 96
1, 5556, Note_off_c, 2, 81, 0
1, 5556, Note_off_c, 7, 81, 0
1, 5556, Note_off_c, 7, 81, 0
1, 5562, Note_off_c, 5, 48, 0
1, 5562, Note_off_c, 6, 36, 0
1, 5562, Note_off_c, 8, 48, 0
1, 5565, Note_off_c, 0, 77, 0
1, 5565, Note_off_c, 1, 77, 0
1, 5565, Note_off_c, 3, 69, 0
1, 5568, Note_on_c, 0, 79, 96
1, 5568, Note_on_c, 1, 79, 96
1, 5568, Note_on_c, 2, 79, 96
1, 5568, Note_on_c, 3, 70, 96
1, 5568, Note_on_c, 5, 46, 96
1, 5568, Note_on_c, 6, 34, 96
1, 5568, Note_on_c, 7, 79, 96
1, 5568, Note_on_c, 7, 74, 96
1, 5568, Note_on_c, 8, 46, 96
1, 5589, Note_off_c, 0, 79, 0
1, 5589, Note_off_c, 1, 79, 0
1, 5589, Note_off_c, 3, 70, 0
1, 5592, Note_on_c, 0, 77, 96
1, 5592, Note_on_c, 1, 77, 96
1, 5592, Note_on_c, 3, 69, 96
1, 5598, Note_off_c, 4, 65, 0
1, 5610, Note_off_c, 5, 46, 0
1, 5610, Note_off_c, 6, 34, 0
1, 5610, Note_off_c, 7, 74, 0
1, 5610, Note_off_c, 8, 46, 0
1, 5613, Note_off_c, 0, 77, 0
1, 5613, Note_off_c, 1, 77, 0
1, 5613, Note_off_c, 3, 69, 0
1, 5616, Note_on_c, 0, 79, 96
1, 5616, Note_on_c, 1, 79, 96
1, 5616, Note_on_c, 3, 70, 96
1, 5616, Note_on_c, 4, 63, 96
1, 5616, Note_on_c, 5, 43, 96
1, 5616, Note_on_c, 6, 31, 96
1, 5616, Note_on_c, 7, 70, 96
1, 5616, Note_on_c, 8, 43, 96
1, 5637, Note_off_c, 0, 79, 0
1, 5637, Note_off_c, 1, 79, 0
1, 5637, Note_off_c, 3, 70, 0
1, 5637, Note_off_c, 4, 63, 0
1, 5640, Note_on_c, 0, 81, 96
1, 5640, Note_on_c, 1, 81, 96
1, 5640, Note_on_c, 3, 72, 96
1, 5640, Note_on_c, 4, 62, 96
1, 5640, Note_off_c, 8, 77, 0
1, 5658, Note_off_c, 5, 43, 0
1, 5658, Note_off_c, 6, 31, 0
1, 5658, Note_off_c, 7, 70, 0
1, 5658, Note_off_c, 8, 43, 0
1, 5661, Note_off_c, 0, 81, 0
1, 5661, Note_off_c, 1, 81, 0
1, 5661, Note_off_c, 3, 72, 0
1, 5661, Note_off_c, 4, 62, 0
1, 5664, Note_on_c, 0, 79, 96
1, 5664, Note_on_c, 1, 79, 96
1, 5664, Note_on_c, 3, 70, 96
1, 5664, Note_on_c, 4, 63, 96
1, 5664, Note_on_c, 5, 48, 96
1, 5664, Note_on_c, 6, 36, 96
1, 5664, Note_on_c, 7, 72, 96
1, 5664, Note_on_c, 7, 67, 96
1, 5664, Note_on_c, 8, 48, 96
1, 5664, Note_on_c, 8, 75, 96
1, 5685, Note_off_c, 0, 79, 0
1, 5685, Note_off_c, 1, 79, 0
1, 5688, Note_on_c, 0, 81, 96
1, 5688, Note_on_c, 1, 81, 96
1, 5706, Note_off_c, 3, 70, 0
1, 5706, Note_off_c, 5, 48, 0
1, 5706, Note_off_c, 6, 36, 0
1, 5706, Note_off_c, 8, 48, 0
1, 5709, Note_off_c, 0, 81, 0
1, 5709, Note_off_c, 1, 81, 0
1, 5712, Note_on_c, 0, 82, 96
1, 5712, Note_on_c, 1, 82, 96
1, 5712, Note_on_c, 3, 67, 96
1, 5712, Note_on_c, 5, 36, 96
1, 5712, Note_on_c, 6, 24, 96
1, 5712, Note_on_c, 8, 36, 96
1, 5733, Note_off_c, 0, 82, 0
1, 5733, Note_off_c, 1, 82, 0
1, 5736, Note_on_c, 0, 84, 96
1, 5736, Note_on_c, 1, 84, 96
1, 5736, Note_off_c, 2, 79, 0
1, 5736, Note_off_c, 7, 79, 0
1, 5748, Note_off_c, 7, 72, 0
1, 5748, Note_off_c, 7, 67, 0
1, 5754, Note_off_c, 3, 67, 0
1, 5754, Note_off_c, 5, 36, 0
1, 5754, Note_off_c, 6, 24, 0
1, 5754, Note_off_c, 8, 36, 0
1, 5757, Note_off_c, 0, 84, 0
1, 5757, Note_off_c, 1, 84, 0
1, 5760, Note_on_c, 0, 81, 96
1, 5760, Note_on_c, 1, 81, 96
1, 5760, Note_on_c, 2, 77, 96
1, 5760, Note_on_c, 3, 69, 96
1, 5760, Note_on_c, 5, 41, 96
1, 5760, Note_on_c, 6, 29, 96
1, 5760, Note_on_c, 7, 77, 96
1, 5760, Note_on_c, 7, 69, 96
1, 5760, Note_on_c, 8, 41, 96
1, 5781, Note_off_c, 0, 81, 0
1, 5781, Note_off_c, 1, 81, 0
1, 5781, Note_off_c, 2, 77, 0
1, 5784, Note_on_c, 0, 82, 96
1, 5784, Note_on_c, 1, 82, 96
1, 5784, Note_on_c, 2, 79, 96
1, 5790, Note_off_c, 4, 63, 0
1, 5802, Note_off_c, 3, 69, 0
1, 5802, Note_off_c, 5, 41, 0
1, 5802, Note_off_c, 6, 29, 0
1, 5802, Note_off_c, 8, 41, 0
1, 5805, Note_off_c, 0, 82, 0
1, 5805, Note_off_c, 1, 82, 0
1, 5805, Note_off_c, 2, 79, 0
1, 5808, Note_on_c, 0, 79, 96
1, 5808, Note_on_c, 1, 79, 96
1, 5808, Note_on_c, 2, 75, 96
1, 5808, Note_on_c, 3, 72, 96
1, 5808, Note_on_c, 4, 57, 96
1, 5808, Note_on_c, 5, 53, 96
1, 5808, Note_on_c, 6, 41, 96
1, 5808, Note_on_c, 8, 53, 96
1, 5829, Note_off_c, 0, 79, 0
1, 5829, Note_off_c, 1, 79, 0
1, 5829, Note_off_c, 2, 75, 0
1, 5832, Note_on_c, 0, 81, 96
1, 5832, Note_on_c, 1, 81, 96
1, 5832, Note_on_c, 2, 77, 96
1, 5832, Note_off_c, 8, 75, 0
1, 5844, Note_off_c, 7, 77, 0
1, 5844, Note_off_c, 7, 69, 0
1, 5850, Note_off_c, 3, 72, 0
1, 5850, Note_off_c, 4, 57, 0
1, 5850, Note_off_c, 5, 53, 0
1, 5850, Note_off_c, 6, 41, 0
1, 5850, Note_off_c, 8, 53, 0
1, 5853, Note_off_c, 0, 81, 0
1, 5853, Note_off_c, 1, 81, 0
1, 5853, Note_off_c, 2, 77, 0
1, 5856, Note_on_c, 0, 82, 96
1, 5856, Note_on_c, 1, 82, 96
1, 5856, Note_on_c, 2, 74, 96
1, 5856, Note_on_c, 3, 70, 96
1, 5856, Note_on_c, 4, 62, 96
1, 5856, Note_on_c, 5, 55, 96
1, 5856, Note_on_c, 6, 43, 96
1, 5856, Note_on_c, 7, 74, 96
1, 5856, Note_on_c, 7, 70, 96
1, 5856, Note_on_c, 8, 55, 96
1, 5877, Note_off_c, 2, 74, 0
1, 5877, Note_off_c, 7, 74, 0
1, 5880, Note_on_c, 2, 76, 96
1, 5880, Note_on_c, 7, 76, 96
1, 5898, Note_off_c, 3, 70, 0
1, 5898, Note_off_c, 4, 62, 0
1, 5898, Note_off_c, 5, 55, 0
1, 5898, Note_off_c, 6, 43, 0
1, 5898, Note_off_c, 7, 70, 0
1, 5898, Note_off_c, 8, 55, 0
1, 5901, Note_off_c, 2, 76, 0
1, 5901, Note_off_c, 7, 76, 0
1, 5904, Note_on_c, 2, 77, 96
1, 5904, Note_on_c, 3, 74, 96
1, 5904, Note_on_c, 4, 58, 96
1, 5904, Note_on_c, 5, 50, 96
1, 5904, Note_on_c, 6, 38, 96
1, 5904, Note_on_c, 7, 77, 96
1, 5904, Note_on_c, 8, 50, 96
1, 5904, Note_on_c, 8, 53, 96
1, 5925, Note_off_c, 2, 77, 0
1, 5925, Note_off_c, 7, 77, 0
1, 5928, Note_on_c, 2, 79, 96
1, 5928, Note_on_c, 7, 79, 96
1, 5946, Note_off_c, 3, 74, 0
1, 5946, Note_off_c, 4, 58, 0
1, 5946, Note_off_c, 5, 50, 0
1, 5946, Note_off_c, 6, 38, 0
1, 5946, Note_off_c, 8, 50, 0
1, 5946, Note_off_c, 8, 53, 0
1, 5949, Note_off_c, 2, 79, 0
1, 5949, Note_off_c, 7, 79, 0
1, 5952, Note_on_c, 2, 72, 96
1, 5952, Note_on_c, 3, 67, 96
1, 5952, Note_on_c, 4, 60, 96
1, 5952, Note_on_c, 5, 52, 96
1, 5952, Note_on_c, 6, 40, 96
1, 5952, Note_on_c, 7, 72, 96
1, 5952, Note_on_c, 8, 52, 96
1, 5952, Note_on_c, 8, 55, 96
1, 5973, Note_off_c, 2, 72, 0
1, 5973, Note_off_c, 7, 72, 0
1, 5976, Note_on_c, 2, 70, 96
1, 5976, Note_on_c, 7, 70, 96
1, 5994, Note_off_c, 3, 67, 0
1, 5994, Note_off_c, 4, 60, 0
1, 5994, Note_off_c, 5, 52, 0
1, 5994, Note_off_c, 6, 40, 0
1, 5994, Note_off_c, 8, 52, 0
1, 5997, Note_off_c, 2, 70, 0
1, 5997, Note_off_c, 7, 70, 0
1, 6000, Note_on_c, 2, 72, 96
1, 6000, Note_on_c, 3, 79, 96
1, 6000, Note_on_c, 4, 64, 96
1, 6000, Note_on_c, 5, 48, 96
1, 6000, Note_on_c, 6, 36, 96
1, 6000, Note_on_c, 7, 72, 96
1, 6000, Note_on_c, 8, 48, 96
1, 6021, Note_off_c, 2, 72, 0
1, 6021, Note_off_c, 7, 72, 0
1, 6024, Note_off_c, 0, 82, 0
1, 6024, Note_off_c, 1, 82, 0
1, 6024, Note_on_c, 2, 74, 96
1, 6024, Note_on_c, 7, 74, 96
1, 6036, Note_off_c, 8, 55, 0
1, 6042, Note_off_c, 4, 64, 0
1, 6042, Note_off_c, 5, 48, 0
1, 6042, Note_off_c, 6, 36, 0
1, 6042, Note_off_c, 8, 48, 0
1, 6045, Note_off_c, 2, 74, 0
1, 6045, Note_off_c, 7, 74, 0
1, 6048, Note_on_c, 0, 81, 96
1, 6048, Note_on_c, 1, 81, 96
1, 6048, Note_on_c, 2, 72, 96
1, 6048, Note_on_c, 4, 65, 96
1, 6048, Note_on_c, 5, 53, 96
1, 6048, Note_on_c, 6, 41, 96
1, 6048, Note_on_c, 7, 72, 96
1, 6048, Note_on_c, 8, 53, 96
1, 6048, Note_on_c, 8, 57, 96
1, 6069, Note_off_c, 2, 72, 0
1, 6069, Note_off_c, 7, 72, 0
1, 6072, Note_on_c, 2, 74, 96
1, 6072, Note_on_c, 7, 74, 96
1, 6084, Note_off_c, 3, 79, 0
1, 6090, Note_off_c, 5, 53, 0
1, 6090, Note_off_c, 6, 41, 0
1, 6090, Note_off_c, 8, 53, 0
1, 6093, Note_off_c, 2, 74, 0
1, 6093, Note_off_c, 7, 74, 0
1, 6096, Note_on_c, 2, 76, 96
1, 6096, Note_on_c, 3, 72, 96
1, 6096, Note_on_c, 5, 52, 96
1, 6096, Note_on_c, 6, 40, 96
1, 6096, Note_on_c, 7, 76, 96
1, 6096, Note_on_c, 8, 52, 96
1, 6117, Note_off_c, 2, 76, 0
1, 6117, Note_off_c, 7, 76, 0
1, 6120, Note_on_c, 2, 77, 96
1, 6120, Note_on_c, 7, 77, 96
1, 6132, Note_off_c, 8, 57, 0
1, 6138, Note_off_c, 3, 72, 0
1, 6138, Note_off_c, 5, 52, 0
1, 6138, Note_off_c, 6, 40, 0
1, 6138, Note_off_c, 8, 52, 0
1, 6141, Note_off_c, 2, 77, 0
1, 6141, Note_off_c, 7, 77, 0
1, 6144, Note_on_c, 2, 70, 96
1, 6144, Note_on_c, 3, 77, 96
1, 6144, Note_on_c, 5, 50, 96
1, 6144, Note_on_c, 6, 38, 96
1, 6144, Note_on_c, 7, 70, 96
1, 6144, Note_on_c, 8, 50, 96
1, 6144, Note_on_c, 8, 62, 96
1, 6165, Note_off_c, 2, 70, 0
1, 6165, Note_off_c, 7, 70, 0
1, 6168, Note_on_c, 2, 69, 96
1, 6168, Note_on_c, 7, 69, 96
1, 6174, Note_off_c, 4, 65, 0
1, 6186, Note_off_c, 3, 77, 0
1, 6186, Note_off_c, 5, 50, 0
1, 6186, Note_off_c, 6, 38, 0
1, 6186, Note_off_c, 8, 50, 0
1, 6189, Note_off_c, 2, 69, 0
1, 6189, Note_off_c, 7, 69, 0
1, 6192, Note_on_c, 2, 70, 96
1, 6192, Note_on_c, 3, 74, 96
1, 6192, Note_on_c, 4, 67, 96
1, 6192, Note_on_c, 5, 55, 96
1, 6192, Note_on_c, 6, 43, 96
1, 6192, Note_on_c, 7, 70, 96
1, 6192, Note_on_c, 8, 55, 96
1, 6213, Note_off_c, 2, 70, 0
1, 6213, Note_off_c, 4, 67, 0
1, 6213, Note_off_c, 7, 70, 0
1, 6216, Note_off_c, 0, 81, 0
1, 6216, Note_off_c, 1, 81, 0
1, 6216, Note_on_c, 2, 72, 96
1, 6216, Note_on_c, 4, 69, 96
1, 6216, Note_on_c, 7, 72, 96
1, 6228, Note_off_c, 8, 62, 0
1, 6234, Note_off_c, 3, 74, 0
1, 6234, Note_off_c, 5, 55, 0
1, 6234, Note_off_c, 6, 43, 0
1, 6234, Note_off_c, 8, 55, 0
1, 6237, Note_off_c, 2, 72, 0
1, 6237, Note_off_c, 4, 69, 0
1, 6237, Note_off_c, 7, 72, 0
1, 6240, Note_on_c, 0, 79, 96
1, 6240, Note_on_c, 1, 79, 96
1, 6240, Note_on_c, 2, 70, 96
1, 6240, Note_on_c, 3, 79, 96
1, 6240, Note_on_c, 4, 70, 96
1, 6240, Note_on_c, 5, 52, 96
1, 6240, Note_on_c, 6, 40, 96
1, 6240, Note_on_c, 7, 70, 96
1, 6240, Note_on_c, 8, 52, 96
1, 6240, Note_on_c, 8, 55, 96
1, 6261, Note_off_c, 2, 70, 0
1, 6261, Note_off_c, 7, 70, 0
1, 6264, Note_on_c, 2, 74, 96
1, 6264, Note_on_c, 7, 74, 96
1, 6282, Note_off_c, 3, 79, 0
1, 6282, Note_off_c, 4, 70, 0
1, 6282, Note_off_c, 5, 52, 0
1, 6282, Note_off_c, 6, 40, 0
1, 6282, Note_off_c, 8, 52, 0
1, 6282, Note_off_c, 8, 55, 0
1, 6285, Note_off_c, 2, 74, 0
1, 6285, Note_off_c, 7, 74, 0
1, 6288, Note_on_c, 2, 72, 96
1, 6288, Note_on_c, 3, 76, 96
1, 6288, Note_on_c, 4, 69, 96
1, 6288, Note_on_c, 5, 48, 96
1, 6288, Note_on_c, 6, 36, 96
1, 6288, Note_on_c, 7, 72, 96
1, 6288, Note_on_c, 8, 48, 96
1, 6288, Note_on_c, 8, 60, 96
1, 6309, Note_off_c, 2, 72, 0
1, 6309, Note_off_c, 4, 69, 0
1, 6309, Note_off_c, 7, 72, 0
1, 6312, Note_on_c, 2, 70, 96
1, 6312, Note_on_c, 4, 67, 96
1, 6312, Note_on_c, 7, 70, 96
1, 6330, Note_off_c, 3, 76, 0
1, 6330, Note_off_c, 5, 48, 0
1, 6330, Note_off_c, 6, 36, 0
1, 6330, Note_off_c, 8, 48, 0
1, 6330, Note_off_c, 8, 60, 0
1, 6333, Note_off_c, 2, 70, 0
1, 6333, Note_off_c, 4, 67, 0
1, 6333, Note_off_c, 7, 70, 0
1, 6336, Note_on_c, 2, 69, 96
1, 6336, Note_on_c, 3, 72, 96
1, 6336, Note_on_c, 4, 69, 96
1, 6336, Note_on_c, 5, 53, 96
1, 6336, Note_on_c, 6, 41, 96
1, 6336, Note_on_c, 7, 69, 96
1, 6336, Note_on_c, 8, 53, 96
1, 6336, Note_on_c, 8, 60, 96
1, 6357, Note_off_c, 2, 69, 0
1, 6357, Note_off_c, 7, 69, 0
1, 6360, Note_on_c, 2, 67, 96
1, 6360, Note_on_c, 7, 67, 96
1, 6378, Note_off_c, 3, 72, 0
1, 6378, Note_off_c, 4, 69, 0
1, 6378, Note_off_c, 5, 53, 0
1, 6378, Note_off_c, 6, 41, 0
1, 6378, Note_off_c, 8, 53, 0
1, 6381, Note_off_c, 2, 67, 0
1, 6381, Note_off_c, 7, 67, 0
1, 6384, Note_on_c, 2, 69, 96
1, 6384, Note_on_c, 3, 76, 96
1, 6384, Note_on_c, 4, 72, 96
1, 6384, Note_on_c, 5, 48, 96
1, 6384, Note_on_c, 6, 36, 96
1, 6384, Note_on_c, 7, 69, 96
1, 6384, Note_on_c, 8, 48, 96
1, 6405, Note_off_c, 2, 69, 0
1, 6405, Note_off_c, 7, 69, 0
1, 6408, Note_off_c, 0, 79, 0
1, 6408, Note_off_c, 1, 79, 0
1, 6408, Note_on_c, 2, 70, 96
1, 6408, Note_on_c, 7, 70, 96
1, 6420, Note_off_c, 8, 60, 0
1, 6426, Note_off_c, 3, 76, 0
1, 6426, Note_off_c, 4, 72, 0
1, 6426, Note_off_c, 5, 48, 0
1, 6426, Note_off_c, 6, 36, 0
1, 6426, Note_off_c, 8, 48, 0
1, 6429, Note_off_c, 2, 70, 0
1, 6429, Note_off_c, 7, 70, 0
1, 6432, Note_on_c, 0, 77, 96
1, 6432, Note_on_c, 1, 77, 96
1, 6432, Note_on_c, 2, 69, 96
1, 6432, Note_on_c, 3, 77, 96
1, 6432, Note_on_c, 4, 65, 96
1, 6432, Note_on_c, 5, 50, 96
1, 6432, Note_on_c, 6, 38, 96
1, 6432, Note_on_c, 7, 69, 96
1, 6432, Note_on_c, 8, 50, 96
1, 6432, Note_on_c, 8, 53, 96
1, 6453, Note_off_c, 2, 69, 0
1, 6453, Note_off_c, 7, 69, 0
1, 6456, Note_on_c, 2, 70, 96
1, 6456, Note_on_c, 7, 70, 96
1, 6474, Note_off_c, 3, 77, 0
1, 6474, Note_off_c, 4, 65, 0
1, 6474, Note_off_c, 5, 50, 0
1, 6474, Note_off_c, 6, 38, 0
1, 6474, Note_off_c, 8, 50, 0
1, 6477, Note_off_c, 2, 70, 0
1, 6477, Note_off_c, 7, 70, 0
1, 6480, Note_on_c, 2, 72, 96
1, 6480, Note_on_c, 3, 72, 96
1, 6480, Note_on_c, 4, 69, 96
1, 6480, Note_on_c, 5, 45, 96
1, 6480, Note_on_c, 6, 33, 96
1, 6480, Note_on_c, 7, 72, 96
1, 6480, Note_on_c, 8, 45, 96
1, 6501, Note_off_c, 2, 72, 0
1, 6501, Note_off_c, 7, 72, 0
1, 6504, Note_on_c, 2, 74, 96
1, 6504, Note_on_c, 7, 74, 96
1, 6516, Note_off_c, 8, 53, 0
1, 6522, Note_off_c, 3, 72, 0
1, 6522, Note_off_c, 4, 69, 0
1, 6522, Note_off_c, 5, 45, 0
1, 6522, Note_off_c, 6, 33, 0
1, 6522, Note_off_c, 8, 45, 0
1, 6525, Note_off_c, 2, 74, 0
1, 6525, Note_off_c, 7, 74, 0
1, 6528, Note_on_c, 2, 67, 96
1, 6528, Note_on_c, 3, 74, 96
1, 6528, Note_on_c, 4, 62, 96
1, 6528, Note_on_c, 5, 46, 96
1, 6528, Note_on_c, 6, 34, 96
1, 6528, Note_on_c, 7, 69, 96
1, 6528, Note_on_c, 8, 46, 96
1, 6528, Note_on_c, 8, 50, 96
1, 6540, Note_off_c, 7, 69, 0
1, 6540, Note_on_c, 7, 67, 96
1, 6549, Note_off_c, 3, 74, 0
1, 6552, Note_on_c, 3, 72, 96
1, 6552, Note_off_c, 7, 67, 0
1, 6552, Note_on_c, 7, 69, 96
1, 6558, Note_off_c, 0, 77, 0
1, 6558, Note_off_c, 1, 77, 0
1, 6564, Note_off_c, 7, 69, 0
1, 6564, Note_on_c, 7, 67, 96
1, 6570, Note_off_c, 5, 46, 0
1, 6570, Note_off_c, 6, 34, 0
1, 6570, Note_off_c, 8, 46, 0
1, 6573, Note_off_c, 3, 72, 0
1, 6576, Note_on_c, 0, 79, 96
1, 6576, Note_on_c, 1, 79, 96
1, 6576, Note_on_c, 3, 70, 96
1, 6576, Note_on_c, 5, 43, 96
1, 6576, Note_on_c, 6, 31, 96
1, 6576, Note_off_c, 7, 67, 0
1, 6576, Note_on_c, 7, 69, 96
1, 6576, Note_on_c, 8, 43, 96
1, 6588, Note_off_c, 7, 69, 0
1, 6588, Note_on_c, 7, 67, 96
1, 6597, Note_off_c, 0, 79, 0
1, 6597, Note_off_c, 1, 79, 0
1, 6597, Note_off_c, 3, 70, 0
1, 6600, Note_on_c, 0, 77, 96
1, 6600, Note_on_c, 1, 77, 96
1, 6600, Note_on_c, 3, 69, 96
1, 6600, Note_off_c, 7, 67, 0
1, 6600, Note_on_c, 7, 69, 96
1, 6612, Note_off_c, 4, 62, 0
1, 6612, Note_off_c, 7, 69, 0
1, 6612, Note_on_c, 7, 67, 96
1, 6612, Note_off_c, 8, 50, 0
1, 6618, Note_off_c, 5, 43, 0
1, 6618, Note_off_c, 6, 31, 0
1, 6618, Note_off_c, 8, 43, 0
1, 6621, Note_off_c, 0, 77, 0
1, 6621, Note_off_c, 1, 77, 0
1, 6621, Note_off_c, 3, 69, 0
1, 6624, Note_on_c, 0, 76, 96
1, 6624, Note_on_c, 1, 76, 96
1, 6624, Note_on_c, 3, 67, 96
1, 6624, Note_on_c, 4, 64, 96
1, 6624, Note_on_c, 5, 48, 96
1, 6624, Note_on_c, 6, 36, 96
1, 6624, Note_off_c, 7, 67, 0
1, 6624, Note_on_c, 7, 69, 96
1, 6624, Note_on_c, 8, 48, 96
1, 6624, Note_on_c, 8, 52, 96
1, 6636, Note_off_c, 7, 69, 0
1, 6636, Note_on_c, 7, 67, 96
1, 6645, Note_off_c, 0, 76, 0
1, 6645, Note_off_c, 1, 76, 0
1, 6645, Note_off_c, 3, 67, 0
1, 6648, Note_on_c, 0, 77, 96
1, 6648, Note_on_c, 1, 77, 96
1, 6648, Note_on_c, 3, 69, 96
1, 6648, Note_off_c, 7, 67, 0
1, 6648, Note_on_c, 7, 69, 96
1, 6660, Note_off_c, 7, 69, 0
1, 6660, Note_on_c, 7, 67, 96
1, 6666, Note_off_c, 5, 48, 0
1, 6666, Note_off_c, 6, 36, 0
1, 6666, Note_off_c, 8, 48, 0
1, 6669, Note_off_c, 0, 77, 0
1, 6669, Note_off_c, 1, 77, 0
1, 6669, Note_off_c, 3, 69, 0
1, 6672, Note_on_c, 0, 74, 96
1, 6672, Note_on_c, 1, 74, 96
1, 6672, Note_on_c, 3, 70, 96
1, 6672, Note_on_c, 5, 43, 96
1, 6672, Note_on_c, 6, 31, 96
1, 6672, Note_off_c, 7, 67, 0
1, 6672, Note_on_c, 7, 69, 96
1, 6672, Note_on_c, 8, 43, 96
1, 6684, Note_off_c, 7, 69, 0
1, 6684, Note_on_c, 7, 67, 96
1, 6693, Note_off_c, 0, 74, 0
1, 6693, Note_off_c, 1, 74, 0
1, 6693, Note_off_c, 3, 70, 0
1, 6696, Note_on_c, 0, 76, 96
1, 6696, Note_on_c, 1, 76, 96
1, 6696, Note_on_c, 3, 72, 96
1, 6696, Note_off_c, 7, 67, 0
1, 6696, Note_on_c, 7, 69, 96
1, 6708, Note_off_c, 7, 69, 0
1, 6708, Note_on_c, 7, 67, 96
1, 6708, Note_off_c, 8, 52, 0
1, 6714, Note_off_c, 5, 43, 0
1, 6714, Note_off_c, 6, 31, 0
1, 6714, Note_off_c, 8, 43, 0
1, 6717, Note_off_c, 0, 76, 0
1, 6717, Note_off_c, 1, 76, 0
1, 6717, Note_off_c, 3, 72, 0
1, 6720, Note_on_c, 0, 72, 96
1, 6720, Note_on_c, 1, 72, 96
1, 6720, Note_on_c, 3, 69, 96
1, 6720, Note_on_c, 5, 45, 96
1, 6720, Note_on_c, 6, 33, 96
1, 6720, Note_off_c, 7, 67, 0
1, 6720, Note_on_c, 7, 69, 96
1, 6720, Note_on_c, 8, 45, 96
1, 6720, Note_on_c, 8, 57, 96
1, 6732, Note_off_c, 7, 69, 0
1, 6732, Note_on_c, 7, 67, 96
1, 6744, Note_off_c, 2, 67, 0
1, 6750, Note_off_c, 4, 64, 0
1, 6763, Note_off_c, 7, 67, 0
1, 6768, Note_on_c, 2, 65, 96
1, 6768, Note_on_c, 4, 69, 96
1, 6768, Note_on_c, 7, 65, 96
1, 6789, Note_off_c, 2, 65, 0
1, 6789, Note_off_c, 4, 69, 0
1, 6789, Note_off_c, 7, 65, 0
1, 6792, Note_on_c, 2, 64, 96
1, 6792, Note_on_c, 4, 67, 96
1, 6792, Note_on_c, 7, 64, 96
1, 6804, Note_off_c, 0, 72, 0
1, 6804, Note_off_c, 1, 72, 0
1, 6804, Note_off_c, 5, 45, 0
1, 6804, Note_off_c, 6, 33, 0
1, 6804, Note_off_c, 8, 45, 0
1, 6813, Note_off_c, 2, 64, 0
1, 6813, Note_off_c, 4, 67, 0
1, 6813, Note_off_c, 7, 64, 0
1, 6816, Note_on_c, 0, 77, 96
1, 6816, Note_on_c, 1, 77, 96
1, 6816, Note_on_c, 2, 65, 96
1, 6816, Note_on_c, 4, 65, 96
1, 6816, Note_on_c, 5, 50, 96
1, 6816, Note_on_c, 6, 38, 96
1, 6816, Note_on_c, 7, 65, 96
1, 6816, Note_on_c, 8, 50, 96
1, 6846, Note_off_c, 8, 57, 0
1, 6858, Note_off_c, 2, 65, 0
1, 6858, Note_off_c, 4, 65, 0
1, 6858, Note_off_c, 7, 65, 0
1, 6864, Note_on_c, 2, 67, 96
1, 6864, Note_on_c, 4, 64, 96
1, 6864, Note_on_c, 7, 67, 96
1, 6864, Note_on_c, 8, 53, 96
1, 6885, Note_off_c, 2, 67, 0
1, 6885, Note_off_c, 4, 64, 0
1, 6885, Note_off_c, 7, 67, 0
1, 6888, Note_on_c, 2, 69, 96
1, 6888, Note_off_c, 3, 69, 0
1, 6888, Note_on_c, 4, 65, 96
1, 6888, Note_on_c, 7, 69, 96
1, 6900, Note_off_c, 5, 50, 0
1, 6900, Note_off_c, 6, 38, 0
1, 6900, Note_off_c, 8, 50, 0
1, 6906, Note_off_c, 8, 53, 0
1, 6909, Note_off_c, 2, 69, 0
1, 6909, Note_off_c, 4, 65, 0
1, 6909, Note_off_c, 7, 69, 0
1, 6912, Note_on_c, 2, 70, 96
1, 6912, Note_on_c, 3, 67, 96
1, 6912, Note_on_c, 4, 62, 96
1, 6912, Note_on_c, 5, 43, 96
1, 6912, Note_on_c, 6, 31, 96
1, 6912, Note_on_c, 7, 70, 96
1, 6912, Note_on_c, 8, 43, 96
1, 6912, Note_on_c, 8, 55, 96
1, 6942, Note_off_c, 0, 77, 0
1, 6942, Note_off_c, 1, 77, 0
1, 6954, Note_off_c, 2, 70, 0
1, 6954, Note_off_c, 4, 62, 0
1, 6954, Note_off_c, 7, 70, 0
1, 6960, Note_on_c, 0, 76, 96
1, 6960, Note_on_c, 1, 76, 96
1, 6960, Note_on_c, 2, 67, 96
1, 6960, Note_on_c, 4, 67, 96
1, 6960, Note_on_c, 7, 67, 96
1, 6981, Note_off_c, 0, 76, 0
1, 6981, Note_off_c, 1, 76, 0
1, 6981, Note_off_c, 2, 67, 0
1, 6981, Note_off_c, 4, 67, 0
1, 6981, Note_off_c, 7, 67, 0
1, 6984, Note_on_c, 0, 77, 96
1, 6984, Note_on_c, 1, 77, 96
1, 6984, Note_on_c, 2, 69, 96
1, 6984, Note_on_c, 4, 65, 96
1, 6984, Note_on_c, 7, 69, 96
1, 6996, Note_off_c, 5, 43, 0
1, 6996, Note_off_c, 6, 31, 0
1, 6996, Note_off_c, 8, 43, 0
1, 7005, Note_off_c, 0, 77, 0
1, 7005, Note_off_c, 1, 77, 0
1, 7005, Note_off_c, 2, 69, 0
1, 7005, Note_off_c, 4, 65, 0
1, 7005, Note_off_c, 7, 69, 0
1, 7008, Note_on_c, 0, 79, 96
1, 7008, Note_on_c, 1, 79, 96
1, 7008, Note_on_c, 2, 70, 96
1, 7008, Note_on_c, 4, 64, 96
1, 7008, Note_on_c, 5, 48, 96
1, 7008, Note_on_c, 6, 36, 96
1, 7008, Note_on_c, 7, 70, 96
1, 7008, Note_on_c, 8, 48, 96
1, 7029, Note_off_c, 4, 64, 0
1, 7032, Note_on_c, 4, 62, 96
1, 7038, Note_off_c, 8, 55, 0
1, 7050, Note_off_c, 0, 79, 0
1, 7050, Note_off_c, 1, 79, 0
1, 7050, Note_off_c, 2, 70, 0
1, 7050, Note_off_c, 7, 70, 0
1, 7053, Note_off_c, 4, 62, 0
1, 7056, Note_on_c, 0, 77, 96
1, 7056, Note_on_c, 1, 77, 96
1, 7056, Note_on_c, 2, 69, 96
1, 7056, Note_on_c, 4, 60, 96
1, 7056, Note_on_c, 7, 69, 96
1, 7056, Note_on_c, 8, 60, 96
1, 7077, Note_off_c, 0, 77, 0
1, 7077, Note_off_c, 1, 77, 0
1, 7077, Note_off_c, 2, 69, 0
1, 7077, Note_off_c, 7, 69, 0
1, 7080, Note_on_c, 0, 76, 96
1, 7080, Note_on_c, 1, 76, 96
1, 7080, Note_on_c, 2, 67, 96
1, 7080, Note_off_c, 3, 67, 0
1, 7080, Note_on_c, 7, 67, 96
1, 7092, Note_off_c, 5, 48, 0
1, 7092, Note_off_c, 6, 36, 0
1, 7092, Note_off_c, 8, 48, 0
1, 7101, Note_off_c, 0, 76, 0
1, 7101, Note_off_c, 1, 76, 0
1, 7101, Note_off_c, 2, 67, 0
1, 7101, Note_off_c, 7, 67, 0
1, 7104, Note_on_c, 0, 77, 96
1, 7104, Note_on_c, 1, 77, 96
1, 7104, Note_on_c, 2, 69, 96
1, 7104, Note_on_c, 3, 65, 96
1, 7104, Note_on_c, 5, 41, 96
1, 7104, Note_on_c, 6, 29, 96
1, 7104, Note_on_c, 7, 69, 96
1, 7104, Note_on_c, 8, 41, 96
1, 7119, Note_off_c, 4, 60, 0
1, 7119, Note_off_c, 8, 60, 0
1, 7125, Note_off_c, 3, 65, 0
1, 7128, Note_on_c, 3, 64, 96
1, 7128, Note_on_c, 4, 60, 96
1, 7128, Note_on_c, 8, 58, 96
1, 7146, Note_off_c, 0, 77, 0
1, 7146, Note_off_c, 1, 77, 0
1, 7149, Note_off_c, 3, 64, 0
1, 7149, Note_off_c, 4, 60, 0
1, 7149, Note_off_c, 8, 58, 0
1, 7152, Note_on_c, 0, 72, 96
1, 7152, Note_on_c, 1, 72, 96
1, 7152, Note_on_c, 3, 65, 96
1, 7152, Note_on_c, 4, 62, 96
1, 7152, Note_on_c, 8, 57, 96
1, 7173, Note_off_c, 3, 65, 0
1, 7173, Note_off_c, 4, 62, 0
1, 7173, Note_off_c, 8, 57, 0
1, 7176, Note_on_c, 3, 67, 96
1, 7176, Note_on_c, 4, 64, 96
1, 7176, Note_on_c, 8, 55, 96
1, 7188, Note_off_c, 2, 69, 0
1, 7188, Note_off_c, 5, 41, 0
1, 7188, Note_off_c, 6, 29, 0
1, 7188, Note_off_c, 7, 69, 0
1, 7188, Note_off_c, 8, 41, 0
1, 7194, Note_off_c, 0, 72, 0
1, 7194, Note_off_c, 1, 72, 0
1, 7197, Note_off_c, 3, 67, 0
1, 7197, Note_off_c, 4, 64, 0
1, 7197, Note_off_c, 8, 55, 0
1, 7200, Note_on_c, 0, 74, 96
1, 7200, Note_on_c, 1, 74, 96
1, 7200, Note_on_c, 3, 69, 96
1, 7200, Note_on_c, 4, 65, 96
1, 7200, Note_on_c, 5, 53, 96
1, 7200, Note_on_c, 6, 41, 96
1, 7200, Note_on_c, 8, 53, 96
1, 7221, Note_off_c, 3, 69, 0
1, 7221, Note_off_c, 4, 65, 0
1, 7224, Note_on_c, 3, 70, 96
1, 7224, Note_on_c, 4, 67, 96
1, 7242, Note_off_c, 0, 74, 0
1, 7242, Note_off_c, 1, 74, 0
1, 7245, Note_off_c, 3, 70, 0
1, 7245, Note_off_c, 4, 67, 0
1, 7248, Note_on_c, 0, 69, 96
1, 7248, Note_on_c, 1, 69, 96
1, 7248, Note_on_c, 2, 72, 96
1, 7248, Note_on_c, 3, 72, 96
1, 7248, Note_on_c, 4, 69, 96
1, 7248, Note_on_c, 7, 72, 96
1, 7248, Note_on_c, 7, 69, 96
1, 7248, Note_on_c, 8, 65, 96
1, 7269, Note_off_c, 3, 72, 0
1, 7269, Note_off_c, 4, 69, 0
1, 7272, Note_on_c, 3, 74, 96
1, 7272, Note_on_c, 4, 70, 96
1, 7290, Note_off_c, 0, 69, 0
1, 7290, Note_off_c, 1, 69, 0
1, 7290, Note_off_c, 2, 72, 0
1, 7290, Note_off_c, 7, 72, 0
1, 7290, Note_off_c, 7, 69, 0
1, 7290, Note_off_c, 8, 65, 0
1, 7293, Note_off_c, 3, 74, 0
1, 7293, Note_off_c, 4, 70, 0
1, 7296, Note_on_c, 0, 70, 96
1, 7296, Note_on_c, 1, 70, 96
1, 7296, Note_on_c, 2, 74, 96
1, 7296, Note_on_c, 3, 70, 96
1, 7296, Note_on_c, 4, 67, 96
1, 7296, Note_on_c, 7, 74, 96
1, 7296, Note_on_c, 7, 67, 96
1, 7296, Note_on_c, 8, 58, 96
1, 7317, Note_off_c, 3, 70, 0
1, 7320, Note_on_c, 3, 72, 96
1, 7338, Note_off_c, 0, 70, 0
1, 7338, Note_off_c, 1, 70, 0
1, 7338, Note_off_c, 2, 74, 0
1, 7338, Note_off_c, 7, 74, 0
1, 7341, Note_off_c, 3, 72, 0
1, 7344, Note_on_c, 0, 67, 96
1, 7344, Note_on_c, 1, 67, 96
1, 7344, Note_on_c, 2, 76, 96
1, 7344, Note_on_c, 3, 70, 96
1, 7344, Note_on_c, 7, 76, 96
1, 7365, Note_off_c, 2, 76, 0
1, 7365, Note_off_c, 3, 70, 0
1, 7365, Note_off_c, 7, 76, 0
1, 7368, Note_on_c, 2, 77, 96
1, 7368, Note_on_c, 3, 69, 96
1, 7368, Note_off_c, 5, 53, 0
1, 7368, Note_off_c, 6, 41, 0
1, 7368, Note_on_c, 7, 77, 96
1, 7368, Note_off_c, 8, 53, 0
1, 7386, Note_off_c, 0, 67, 0
1, 7386, Note_off_c, 1, 67, 0
1, 7389, Note_off_c, 2, 77, 0
1, 7389, Note_off_c, 3, 69, 0
1, 7389, Note_off_c, 7, 77, 0
1, 7392, Note_on_c, 0, 72, 96
1, 7392, Note_on_c, 1, 72, 96
1, 7392, Note_on_c, 2, 79, 96
1, 7392, Note_on_c, 3, 67, 96
1, 7392, Note_on_c, 5, 52, 96
1, 7392, Note_on_c, 6, 40, 96
1, 7392, Note_on_c, 7, 79, 96
1, 7392, Note_on_c, 8, 52, 96
1, 7401, Note_off_c, 4, 67, 0
1, 7413, Note_off_c, 3, 67, 0
1, 7416, Note_on_c, 3, 69, 96
1, 7416, Note_on_c, 4, 65, 96
1, 7422, Note_off_c, 8, 58, 0
1, 7434, Note_off_c, 0, 72, 0
1, 7434, Note_off_c, 1, 72, 0
1, 7437, Note_off_c, 3, 69, 0
1, 7437, Note_off_c, 4, 65, 0
1, 7440, Note_on_c, 0, 67, 96
1, 7440, Note_on_c, 1, 67, 96
1, 7440, Note_on_c, 3, 70, 96
1, 7440, Note_on_c, 4, 64, 96
1, 7440, Note_on_c, 8, 60, 96
1, 7461, Note_off_c, 3, 70, 0
1, 7461, Note_off_c, 4, 64, 0
1, 7464, Note_on_c, 3, 72, 96
1, 7464, Note_on_c, 4, 62, 96
1, 7464, Note_off_c, 7, 67, 0
1, 7476, Note_off_c, 5, 52, 0
1, 7476, Note_off_c, 6, 40, 0
1, 7476, Note_off_c, 8, 52, 0
1, 7482, Note_off_c, 0, 67, 0
1, 7482, Note_off_c, 1, 67, 0
1, 7485, Note_off_c, 3, 72, 0
1, 7485, Note_off_c, 4, 62, 0
1, 7488, Note_on_c, 0, 69, 96
1, 7488, Note_on_c, 1, 69, 96
1, 7488, Note_on_c, 3, 69, 96
1, 7488, Note_on_c, 4, 60, 96
1, 7488, Note_on_c, 5, 53, 96
1, 7488, Note_on_c, 6, 41, 96
1, 7488, Note_on_c, 7, 69, 96
1, 7488, Note_on_c, 8, 53, 96
1, 7509, Note_off_c, 0, 69, 0
1, 7509, Note_off_c, 1, 69, 0
1, 7509, Note_off_c, 3, 69, 0
1, 7512, Note_on_c, 0, 70, 96
1, 7512, Note_on_c, 1, 70, 96
1, 7512, Note_on_c, 3, 67, 96
1, 7518, Note_off_c, 2, 79, 0
1, 7518, Note_off_c, 7, 79, 0
1, 7524, Note_off_c, 8, 60, 0
1, 7530, Note_off_c, 4, 60, 0
1, 7530, Note_off_c, 5, 53, 0
1, 7530, Note_off_c, 6, 41, 0
1, 7530, Note_off_c, 8, 53, 0
1, 7533, Note_off_c, 0, 70, 0
1, 7533, Note_off_c, 1, 70, 0
1, 7533, Note_off_c, 3, 67, 0
1, 7536, Note_on_c, 0, 72, 96
1, 7536, Note_on_c, 1, 72, 96
1, 7536, Note_on_c, 2, 77, 96
1, 7536, Note_on_c, 3, 69, 96
1, 7536, Note_on_c, 4, 65, 96
1, 7536, Note_on_c, 5, 46, 96
1, 7536, Note_on_c, 6, 34, 96
1, 7536, Note_on_c, 7, 77, 96
1, 7536, Note_on_c, 8, 46, 96
1, 7536, Note_on_c, 8, 74, 96
1, 7557, Note_off_c, 0, 72, 0
1, 7557, Note_off_c, 1, 72, 0
1, 7557, Note_off_c, 3, 69, 0
1, 7560, Note_on_c, 0, 74, 96
1, 7560, Note_on_c, 1, 74, 96
1, 7560, Note_on_c, 3, 70, 96
1, 7572, Note_off_c, 7, 69, 0
1, 7578, Note_off_c, 4, 65, 0
1, 7578, Note_off_c, 5, 46, 0
1, 7578, Note_off_c, 6, 34, 0
1, 7578, Note_off_c, 8, 46, 0
1, 7578, Note_off_c, 8, 74, 0
1, 7581, Note_off_c, 0, 74, 0
1, 7581, Note_off_c, 1, 74, 0
1, 7581, Note_off_c, 3, 70, 0
1, 7584, Note_on_c, 0, 67, 96
1, 7584, Note_on_c, 1, 67, 96
1, 7584, Note_on_c, 3, 67, 96
1, 7584, Note_on_c, 4, 72, 96
1, 7584, Note_on_c, 5, 48, 96
1, 7584, Note_on_c, 6, 36, 96
1, 7584, Note_on_c, 7, 67, 96
1, 7584, Note_on_c, 8, 48, 96
1, 7584, Note_on_c, 8, 72, 96
1, 7620, Note_off_c, 2, 77, 0
1, 7620, Note_off_c, 7, 77, 0
1, 7626, Note_off_c, 3, 67, 0
1, 7626, Note_off_c, 4, 72, 0
1, 7626, Note_off_c, 5, 48, 0
1, 7626, Note_off_c, 6, 36, 0
1, 7626, Note_off_c, 8, 72, 0
1, 7632, Note_on_c, 2, 76, 96
1, 7632, Note_on_c, 3, 72, 96
1, 7632, Note_on_c, 4, 67, 96
1, 7632, Note_on_c, 5, 36, 96
1, 7632, Note_on_c, 6, 24, 96
1, 7632, Note_on_c, 7, 76, 96
1, 7632, Note_on_c, 7, 70, 96
1, 7632, Note_on_c, 8, 36, 96
1, 7647, Note_off_c, 0, 67, 0
1, 7647, Note_off_c, 1, 67, 0
1, 7656, Note_on_c, 0, 65, 96
1, 7656, Note_on_c, 1, 65, 96
1, 7668, Note_off_c, 7, 67, 0
1, 7674, Note_off_c, 2, 76, 0
1, 7674, Note_off_c, 3, 72, 0
1, 7674, Note_off_c, 4, 67, 0
1, 7674, Note_off_c, 5, 36, 0
1, 7674, Note_off_c, 6, 24, 0
1, 7674, Note_off_c, 7, 76, 0
1, 7674, Note_off_c, 7, 70, 0
1, 7674, Note_off_c, 8, 36, 0
1, 7677, Note_off_c, 0, 65, 0
1, 7677, Note_off_c, 1, 65, 0
1, 7680, Note_on_c, 0, 65, 96
1, 7680, Note_on_c, 1, 65, 96
1, 7680, Note_on_c, 2, 77, 96
1, 7680, Note_on_c, 3, 72, 96
1, 7680, Note_on_c, 4, 69, 96
1, 7680, Note_on_c, 5, 41, 96
1, 7680, Note_on_c, 6, 29, 96
1, 7680, Note_on_c, 7, 77, 96
1, 7680, Note_on_c, 7, 69, 96
1, 7680, Note_on_c, 7, 65, 96
1, 7680, Note_on_c, 8, 41, 96
1, 7701, Note_off_c, 7, 77, 0
1, 7701, Note_off_c, 7, 69, 0
1, 7701, Note_off_c, 7, 65, 0
1, 7704, Note_on_c, 7, 72, 96
1, 7710, Note_off_c, 8, 48, 0
1, 7722, Note_off_c, 8, 41, 0
1, 7725, Note_off_c, 7, 72, 0
1, 7728, Note_on_c, 7, 69, 96
1, 7749, Note_off_c, 7, 69, 0
1, 7752, Note_on_c, 7, 77, 96
1, 7764, Note_off_c, 0, 65, 0
1, 7764, Note_off_c, 1, 65, 0
1, 7764, Note_off_c, 2, 77, 0
1, 7764, Note_off_c, 3, 72, 0
1, 7764, Note_off_c, 4, 69, 0
1, 7764, Note_off_c, 5, 41, 0
1, 7764, Note_off_c, 6, 29, 0
1, 7773, Note_off_c, 7, 77, 0
1, 7776, Note_on_c, 7, 72, 96
1, 7797, Note_off_c, 7, 72, 0
1, 7800, Note_on_c, 7, 69, 96
1, 7821, Note_off_c, 7, 69, 0
1, 7824, Note_on_c, 7, 65, 96
1, 7845, Note_off_c, 7, 65, 0
1, 7848, Note_on_c, 7, 72, 96
1, 7869, Note_off_c, 7, 72, 0
1, 7872, Note_on_c, 7, 69, 96
1, 7893, Note_off_c, 7, 69, 0
1, 7896, Note_on_c, 7, 65, 96
1, 7917, Note_off_c, 7, 65, 0
1, 7920, Note_on_c, 7, 60, 96
1, 7941, Note_off_c, 7, 60, 0
1, 7944, Note_on_c, 7, 69, 96
1, 7965, Note_off_c, 7, 69, 0
1, 7968, Note_on_c, 7, 65, 96
1, 7989, Note_off_c, 7, 65, 0
1, 7992, Note_on_c, 7, 60, 96
1, 8013, Note_off_c, 7, 60, 0
1, 8016, Note_on_c, 7, 57, 96
1, 8037, Note_off_c, 7, 57, 0
1, 8040, Note_on_c, 7, 60, 96
1, 8061, Note_off_c, 7, 60, 0
1, 8064, Note_on_c, 0, 72, 96
1, 8064, Note_on_c, 8, 53, 96
1, 8088, Note_on_c, 7, 57, 96
1, 8106, Note_off_c, 8, 53, 0
1, 8109, Note_off_c, 7, 57, 0
1, 8112, Note_on_c, 7, 58, 96
1, 8112, Note_on_c, 8, 52, 96
1, 8133, Note_off_c, 7, 58, 0
1, 8136, Note_on_c, 7, 60, 96
1, 8148, Note_off_c, 0, 72, 0
1, 8154, Note_off_c, 8, 52, 0
1, 8157, Note_off_c, 7, 60, 0
1, 8160, Note_on_c, 0, 77, 96
1, 8160, Note_on_c, 7, 62, 96
1, 8160, Note_on_c, 8, 50, 96
1, 8181, Note_off_c, 7, 62, 0
1, 8184, Note_on_c, 7, 64, 96
1, 8202, Note_off_c, 8, 50, 0
1, 8205, Note_off_c, 7, 64, 0
1, 8208, Note_on_c, 7, 65, 96
1, 8208, Note_on_c, 8, 48, 96
1, 8229, Note_off_c, 7, 65, 0
1, 8232, Note_on_c, 7, 57, 96
1, 8250, Note_off_c, 8, 48, 0
1, 8253, Note_off_c, 7, 57, 0
1, 8256, Note_on_c, 7, 55, 96
1, 8256, Note_on_c, 8, 46, 96
1, 8277, Note_off_c, 7, 55, 0
1, 8280, Note_on_c, 7, 58, 96
1, 8286, Note_off_c, 0, 77, 0
1, 8298, Note_off_c, 8, 46, 0
1, 8301, Note_off_c, 7, 58, 0
1, 8304, Note_on_c, 0, 76, 96
1, 8304, Note_on_c, 7, 60, 96
1, 8304, Note_on_c, 8, 43, 96
1, 8325, Note_off_c, 0, 76, 0
1, 8325, Note_off_c, 7, 60, 0
1, 8328, Note_on_c, 0, 77, 96
1, 8328, Note_on_c, 7, 62, 96
1, 8346, Note_off_c, 8, 43, 0
1, 8349, Note_off_c, 0, 77, 0
1, 8349, Note_off_c, 7, 62, 0
1, 8352, Note_on_c, 0, 79, 96
1, 8352, Note_on_c, 7, 64, 96
1, 8352, Note_on_c, 8, 48, 96
1, 8373, Note_off_c, 7, 64, 0
1, 8376, Note_on_c, 7, 65, 96
1, 8394, Note_off_c, 0, 79, 0
1, 8394, Note_off_c, 8, 48, 0
1, 8397, Note_off_c, 7, 65, 0
1, 8400, Note_on_c, 0, 77, 96
1, 8400, Note_on_c, 7, 67, 96
1, 8400, Note_on_c, 8, 36, 96
1, 8421, Note_off_c, 0, 77, 0
1, 8421, Note_off_c, 7, 67, 0
1, 8424, Note_on_c, 0, 76, 96
1, 8424, Note_on_c, 7, 58, 96
1, 8442, Note_off_c, 8, 36, 0
1, 8445, Note_off_c, 0, 76, 0
1, 8445, Note_off_c, 7, 58, 0
1, 8448, Note_on_c, 0, 77, 96
1, 8448, Note_on_c, 1, 72, 96
1, 8448, Note_on_c, 7, 57, 96
1, 8448, Note_on_c, 8, 41, 96
1, 8469, Note_off_c, 7, 57, 0
1, 8472, Note_on_c, 7, 60, 96
1, 8490, Note_off_c, 0, 77, 0
1, 8490, Note_off_c, 8, 41, 0
1, 8493, Note_off_c, 7, 60, 0
1, 8496, Note_on_c, 0, 72, 96
1, 8496, Note_on_c, 7, 62, 96
1, 8517, Note_off_c, 7, 62, 0
1, 8520, Note_on_c, 7, 64, 96
1, 8532, Note_off_c, 1, 72, 0
1, 8538, Note_off_c, 0, 72, 0
1, 8541, Note_off_c, 7, 64, 0
1, 8544, Note_on_c, 0, 74, 96
1, 8544, Note_on_c, 1, 77, 96
1, 8544, Note_on_c, 7, 65, 96
1, 8565, Note_off_c, 7, 65, 0
1, 8568, Note_on_c, 7, 67, 96
1, 8586, Note_off_c, 0, 74, 0
1, 8589, Note_off_c, 7, 67, 0
1, 8592, Note_on_c, 0, 69, 96
1, 8592, Note_on_c, 7, 69, 96
1, 8592, Note_on_c, 8, 53, 96
1, 8613, Note_off_c, 7, 69, 0
1, 8616, Note_on_c, 7, 63, 96
1, 8634, Note_off_c, 0, 69, 0
1, 8634, Note_off_c, 8, 53, 0
1, 8637, Note_off_c, 7, 63, 0
1, 8640, Note_on_c, 0, 70, 96
1, 8640, Note_on_c, 7, 62, 96
1, 8640, Note_on_c, 8, 55, 96
1, 8661, Note_off_c, 7, 62, 0
1, 8664, Note_on_c, 7, 65, 96
1, 8670, Note_off_c, 1, 77, 0
1, 8682, Note_off_c, 0, 70, 0
1, 8682, Note_off_c, 8, 55, 0
1, 8685, Note_off_c, 7, 65, 0
1, 8688, Note_on_c, 0, 67, 96
1, 8688, Note_on_c, 1, 76, 96
1, 8688, Note_on_c, 7, 67, 96
1, 8688, Note_on_c, 8, 53, 96
1, 8709, Note_off_c, 1, 76, 0
1, 8709, Note_off_c, 7, 67, 0
1, 8712, Note_on_c, 1, 77, 96
1, 8712, Note_on_c, 7, 69, 96
1, 8730, Note_off_c, 0, 67, 0
1, 8730, Note_off_c, 8, 53, 0
1, 8733, Note_off_c, 1, 77, 0
1, 8733, Note_off_c, 7, 69, 0
1, 8736, Note_on_c, 0, 72, 96
1, 8736, Note_on_c, 1, 79, 96
1, 8736, Note_on_c, 7, 70, 96
1, 8736, Note_on_c, 8, 52, 96
1, 8757, Note_off_c, 7, 70, 0
1, 8760, Note_on_c, 7, 74, 96
1, 8778, Note_off_c, 0, 72, 0
1, 8778, Note_off_c, 1, 79, 0
1, 8778, Note_off_c, 8, 52, 0
1, 8781, Note_off_c, 7, 74, 0
1, 8784, Note_on_c, 0, 67, 96
1, 8784, Note_on_c, 1, 77, 96
1, 8784, Note_on_c, 7, 72, 96
1, 8784, Note_on_c, 8, 48, 96
1, 8805, Note_off_c, 1, 77, 0
1, 8805, Note_off_c, 7, 72, 0
1, 8808, Note_on_c, 1, 76, 96
1, 8808, Note_on_c, 7, 70, 96
1, 8826, Note_off_c, 0, 67, 0
1, 8826, Note_off_c, 8, 48, 0
1, 8829, Note_off_c, 1, 76, 0
1, 8829, Note_off_c, 7, 70, 0
1, 8832, Note_on_c, 0, 69, 96
1, 8832, Note_on_c, 1, 77, 96
1, 8832, Note_on_c, 7, 69, 96
1, 8832, Note_on_c, 8, 53, 96
1, 8853, Note_off_c, 1, 77, 0
1, 8853, Note_off_c, 7, 69, 0
1, 8853, Note_off_c, 8, 53, 0
1, 8856, Note_on_c, 1, 76, 96
1, 8856, Note_on_c, 7, 72, 96
1, 8856, Note_on_c, 8, 55, 96
1, 8877, Note_off_c, 1, 76, 0
1, 8877, Note_off_c, 7, 72, 0
1, 8877, Note_off_c, 8, 55, 0
1, 8880, Note_on_c, 1, 77, 96
1, 8880, Note_on_c, 7, 74, 96
1, 8880, Note_on_c, 8, 53, 96
1, 8901, Note_off_c, 1, 77, 0
1, 8901, Note_off_c, 7, 74, 0
1, 8901, Note_off_c, 8, 53, 0
1, 8904, Note_on_c, 1, 79, 96
1, 8904, Note_on_c, 7, 76, 96
1, 8904, Note_on_c, 8, 52, 96
1, 8916, Note_off_c, 0, 69, 0
1, 8925, Note_off_c, 1, 79, 0
1, 8925, Note_off_c, 7, 76, 0
1, 8925, Note_off_c, 8, 52, 0
1, 8928, Note_on_c, 0, 81, 96
1, 8928, Note_on_c, 1, 81, 96
1, 8928, Note_on_c, 7, 77, 96
1, 8928, Note_on_c, 8, 50, 96
1, 8949, Note_off_c, 1, 81, 0
1, 8949, Note_off_c, 7, 77, 0
1, 8949, Note_off_c, 8, 50, 0
1, 8952, Note_on_c, 1, 79, 96
1, 8952, Note_on_c, 7, 79, 96
1, 8952, Note_on_c, 8, 52, 96
1, 8973, Note_off_c, 1, 79, 0
1, 8973, Note_off_c, 7, 79, 0
1, 8973, Note_off_c, 8, 52, 0
1, 8976, Note_on_c, 1, 77, 96
1, 8976, Note_on_c, 7, 81, 96
1, 8976, Note_on_c, 8, 53, 96
1, 8997, Note_off_c, 1, 77, 0
1, 8997, Note_off_c, 7, 81, 0
1, 9000, Note_on_c, 1, 76, 96
1, 9000, Note_on_c, 7, 72, 96
1, 9021, Note_off_c, 1, 76, 0
1, 9021, Note_off_c, 7, 72, 0
1, 9024, Note_on_c, 1, 74, 96
1, 9024, Note_on_c, 7, 71, 96
1, 9045, Note_off_c, 7, 71, 0
1, 9048, Note_on_c, 7, 81, 96
1, 9058, Note_off_c, 7, 81, 0
1, 9060, Note_on_c, 7, 79, 96
1, 9060, Note_off_c, 8, 53, 0
1, 9066, Note_off_c, 1, 74, 0
1, 9070, Note_off_c, 7, 79, 0
1, 9072, Note_on_c, 1, 77, 96
1, 9072, Note_on_c, 7, 77, 96
1, 9072, Note_on_c, 8, 47, 96
1, 9082, Note_off_c, 7, 77, 0
1, 9084, Note_on_c, 7, 76, 96
1, 9094, Note_off_c, 7, 76, 0
1, 9096, Note_on_c, 7, 74, 96
1, 9106, Note_off_c, 7, 74, 0
1, 9108, Note_on_c, 7, 72, 96
1, 9114, Note_off_c, 1, 77, 0
1, 9114, Note_off_c, 8, 47, 0
1, 9118, Note_off_c, 7, 72, 0
1, 9120, Note_on_c, 1, 74, 96
1, 9120, Note_on_c, 7, 71, 96
1, 9141, Note_off_c, 7, 71, 0
1, 9144, Note_on_c, 7, 77, 96
1, 9162, Note_off_c, 1, 74, 0
1, 9165, Note_off_c, 7, 77, 0
1, 9168, Note_on_c, 1, 71, 96
1, 9168, Note_on_c, 7, 74, 96
1, 9168, Note_on_c, 8, 50, 96
1, 9189, Note_off_c, 7, 74, 0
1, 9192, Note_off_c, 0, 81, 0
1, 9192, Note_on_c, 7, 71, 96
1, 9210, Note_off_c, 1, 71, 0
1, 9213, Note_off_c, 7, 71, 0
1, 9216, Note_on_c, 0, 79, 96
1, 9216, Note_on_c, 7, 64, 96
1, 9231, Note_off_c, 8, 50, 0
1, 9237, Note_off_c, 7, 64, 0
1, 9240, Note_on_c, 1, 74, 96
1, 9240, Note_on_c, 7, 71, 96
1, 9240, Note_on_c, 8, 53, 96
1, 9261, Note_off_c, 1, 74, 0
1, 9261, Note_off_c, 7, 71, 0
1, 9261, Note_off_c, 8, 53, 0
1, 9264, Note_on_c, 1, 76, 96
1, 9264, Note_on_c, 7, 72, 96
1, 9264, Note_on_c, 8, 52, 96
1, 9285, Note_off_c, 1, 76, 0
1, 9285, Note_off_c, 7, 72, 0
1, 9285, Note_off_c, 8, 52, 0
1, 9288, Note_on_c, 1, 77, 96
1, 9288, Note_on_c, 7, 74, 96
1, 9288, Note_on_c, 8, 50, 96
1, 9309, Note_off_c, 1, 77, 0
1, 9309, Note_off_c, 7, 74, 0
1, 9309, Note_off_c, 8, 50, 0
1, 9312, Note_on_c, 1, 79, 96
1, 9312, Note_on_c, 7, 76, 96
1, 9312, Note_on_c, 8, 48, 96
1, 9333, Note_off_c, 1, 79, 0
1, 9333, Note_off_c, 7, 76, 0
1, 9333, Note_off_c, 8, 48, 0
1, 9336, Note_on_c, 1, 77, 96
1, 9336, Note_on_c, 7, 77, 96
1, 9336, Note_on_c, 8, 50, 96
1, 9357, Note_off_c, 1, 77, 0
1, 9357, Note_off_c, 7, 77, 0
1, 9357, Note_off_c, 8, 50, 0
1, 9360, Note_on_c, 1, 76, 96
1, 9360, Note_on_c, 7, 79, 96
1, 9360, Note_on_c, 8, 52, 96
1, 9381, Note_off_c, 1, 76, 0
1, 9381, Note_off_c, 7, 79, 0
1, 9384, Note_on_c, 1, 74, 96
1, 9384, Note_on_c, 7, 71, 96
1, 9405, Note_off_c, 1, 74, 0
1, 9405, Note_off_c, 7, 71, 0
1, 9408, Note_on_c, 1, 72, 96
1, 9408, Note_on_c, 7, 69, 96
1, 9429, Note_off_c, 7, 69, 0
1, 9432, Note_on_c, 7, 79, 96
1, 9442, Note_off_c, 7, 79, 0
1, 9444, Note_on_c, 7, 77, 96
1, 9444, Note_off_c, 8, 52, 0
1, 9450, Note_off_c, 1, 72, 0
1, 9454, Note_off_c, 7, 77, 0
1, 9456, Note_on_c, 1, 76, 96
1, 9456, Note_on_c, 7, 76, 96
1, 9456, Note_on_c, 8, 45, 96
1, 9466, Note_off_c, 7, 76, 0
1, 9468, Note_on_c, 7, 74, 96
1, 9478, Note_off_c, 7, 74, 0
1, 9480, Note_on_c, 7, 72, 96
1, 9490, Note_off_c, 7, 72, 0
1, 9492, Note_on_c, 7, 71, 96
1, 9498, Note_off_c, 1, 76, 0
1, 9498, Note_off_c, 8, 45, 0
1, 9502, Note_off_c, 7, 71, 0
1, 9504, Note_on_c, 1, 72, 96
1, 9504, Note_on_c, 7, 69, 96
1, 9525, Note_off_c, 7, 69, 0
1, 9528, Note_on_c, 7, 76, 96
1, 9546, Note_off_c, 1, 72, 0
1, 9549, Note_off_c, 7, 76, 0
1, 9552, Note_on_c, 1, 69, 96
1, 9552, Note_on_c, 7, 72, 96
1, 9552, Note_on_c, 8, 48, 96
1, 9573, Note_off_c, 7, 72, 0
1, 9576, Note_off_c, 0, 79, 0
1, 9576, Note_on_c, 7, 69, 96
1, 9594, Note_off_c, 1, 69, 0
1, 9597, Note_off_c, 7, 69, 0
1, 9600, Note_on_c, 0, 77, 96
1, 9600, Note_on_c, 7, 62, 96
1, 9615, Note_off_c, 8, 48, 0
1, 9621, Note_off_c, 7, 62, 0
1, 9624, Note_on_c, 1, 72, 96
1, 9624, Note_on_c, 7, 69, 96
1, 9624, Note_on_c, 8, 52, 96
1, 9645, Note_off_c, 1, 72, 0
1, 9645, Note_off_c, 7, 69, 0
1, 9645, Note_off_c, 8, 52, 0
1, 9648, Note_on_c, 1, 74, 96
1, 9648, Note_on_c, 7, 71, 96
1, 9648, Note_on_c, 8, 50, 96
1, 9669, Note_off_c, 1, 74, 0
1, 9669, Note_off_c, 7, 71, 0
1, 9669, Note_off_c, 8, 50, 0
1, 9672, Note_on_c, 1, 76, 96
1, 9672, Note_on_c, 7, 72, 96
1, 9672, Note_on_c, 8, 48, 96
1, 9693, Note_off_c, 1, 76, 0
1, 9693, Note_off_c, 7, 72, 0
1, 9693, Note_off_c, 8, 48, 0
1, 9696, Note_on_c, 1, 77, 96
1, 9696, Note_on_c, 7, 74, 96
1, 9696, Note_on_c, 8, 47, 96
1, 9717, Note_off_c, 1, 77, 0
1, 9717, Note_off_c, 7, 74, 0
1, 9717, Note_off_c, 8, 47, 0
1, 9720, Note_on_c, 1, 76, 96
1, 9720, Note_on_c, 7, 76, 96
1, 9720, Note_on_c, 8, 48, 96
1, 9741, Note_off_c, 1, 76, 0
1, 9741, Note_off_c, 7, 76, 0
1, 9741, Note_off_c, 8, 48, 0
1, 9744, Note_on_c, 1, 74, 96
1, 9744, Note_on_c, 7, 77, 96
1, 9744, Note_on_c, 8, 50, 96
1, 9765, Note_off_c, 1, 74, 0
1, 9765, Note_off_c, 7, 77, 0
1, 9768, Note_on_c, 1, 72, 96
1, 9768, Note_on_c, 7, 69, 96
1, 9789, Note_off_c, 1, 72, 0
1, 9789, Note_off_c, 7, 69, 0
1, 9792, Note_on_c, 1, 71, 96
1, 9792, Note_on_c, 7, 67, 96
1, 9813, Note_off_c, 7, 67, 0
1, 9816, Note_on_c, 7, 77, 96
1, 9826, Note_off_c, 7, 77, 0
1, 9828, Note_on_c, 7, 76, 96
1, 9828, Note_off_c, 8, 50, 0
1, 9834, Note_off_c, 1, 71, 0
1, 9838, Note_off_c, 7, 76, 0
1, 9840, Note_on_c, 1, 74, 96
1, 9840, Note_on_c, 7, 74, 96
1, 9840, Note_on_c, 8, 43, 96
1, 9850, Note_off_c, 7, 74, 0
1, 9852, Note_on_c, 7, 72, 96
1, 9862, Note_off_c, 7, 72, 0
1, 9864, Note_on_c, 7, 71, 96
1, 9874, Note_off_c, 7, 71, 0
1, 9876, Note_on_c, 7, 69, 96
1, 9882, Note_off_c, 1, 74, 0
1, 9882, Note_off_c, 8, 43, 0
1, 9886, Note_off_c, 7, 69, 0
1, 9888, Note_on_c, 1, 71, 96
1, 9888, Note_on_c, 7, 67, 96
1, 9909, Note_off_c, 7, 67, 0
1, 9912, Note_on_c, 7, 74, 96
1, 9930, Note_off_c, 1, 71, 0
1, 9933, Note_off_c, 7, 74, 0
1, 9936, Note_on_c, 1, 67, 96
1, 9936, Note_on_c, 7, 71, 96
1, 9936, Note_on_c, 8, 55, 96
1, 9957, Note_off_c, 7, 71, 0
1, 9960, Note_off_c, 0, 77, 0
1, 9960, Note_on_c, 7, 67, 96
1, 9978, Note_off_c, 1, 67, 0
1, 9978, Note_off_c, 8, 55, 0
1, 9981, Note_off_c, 7, 67, 0
1, 9984, Note_on_c, 0, 76, 96
1, 9984, Note_on_c, 1, 79, 96
1, 9984, Note_on_c, 8, 60, 96
1, 10008, Note_on_c, 7, 64, 96
1, 10026, Note_off_c, 8, 60, 0
1, 10029, Note_off_c, 7, 64, 0
1, 10032, Note_on_c, 7, 65, 96
1, 10032, Note_on_c, 8, 59, 96
1, 10053, Note_off_c, 7, 65, 0
1, 10056, Note_on_c, 7, 67, 96
1, 10068, Note_off_c, 0, 76, 0
1, 10068, Note_off_c, 1, 79, 0
1, 10074, Note_off_c, 8, 59, 0
1, 10077, Note_off_c, 7, 67, 0
1, 10080, Note_on_c, 1, 84, 96
1, 10080, Note_on_c, 7, 69, 96
1, 10080, Note_on_c, 8, 57, 96
1, 10101, Note_off_c, 7, 69, 0
1, 10104, Note_on_c, 7, 71, 96
1, 10122, Note_off_c, 8, 57, 0
1, 10125, Note_off_c, 7, 71, 0
1, 10128, Note_on_c, 7, 72, 96
1, 10128, Note_on_c, 8, 55, 96
1, 10149, Note_off_c, 7, 72, 0
1, 10152, Note_on_c, 7, 64, 96
1, 10170, Note_off_c, 8, 55, 0
1, 10173, Note_off_c, 7, 64, 0
1, 10176, Note_on_c, 7, 62, 96
1, 10176, Note_on_c, 8, 53, 96
1, 10197, Note_off_c, 7, 62, 0
1, 10200, Note_on_c, 7, 65, 96
1, 10206, Note_off_c, 1, 84, 0
1, 10218, Note_off_c, 8, 53, 0
1, 10221, Note_off_c, 7, 65, 0
1, 10224, Note_on_c, 1, 83, 96
1, 10224, Note_on_c, 7, 67, 96
1, 10224, Note_on_c, 8, 50, 96
1, 10245, Note_off_c, 1, 83, 0
1, 10245, Note_off_c, 7, 67, 0
1, 10248, Note_on_c, 1, 84, 96
1, 10248, Note_on_c, 7, 69, 96
1, 10266, Note_off_c, 8, 50, 0
1, 10269, Note_off_c, 1, 84, 0
1, 10269, Note_off_c, 7, 69, 0
1, 10272, Note_on_c, 1, 86, 96
1, 10272, Note_on_c, 7, 71, 96
1, 10272, Note_on_c, 8, 55, 96
1, 10293, Note_off_c, 7, 71, 0
1, 10296, Note_on_c, 7, 72, 96
1, 10314, Note_off_c, 1, 86, 0
1, 10314, Note_off_c, 8, 55, 0
1, 10317, Note_off_c, 7, 72, 0
1, 10320, Note_on_c, 1, 84, 96
1, 10320, Note_on_c, 7, 74, 96
1, 10320, Note_on_c, 8, 43, 96
1, 10341, Note_off_c, 1, 84, 0
1, 10341, Note_off_c, 7, 74, 0
1, 10344, Note_on_c, 1, 83, 96
1, 10344, Note_on_c, 7, 65, 96
1, 10362, Note_off_c, 8, 43, 0
1, 10365, Note_off_c, 1, 83, 0
1, 10365, Note_off_c, 7, 65, 0
1, 10368, Note_on_c, 0, 79, 96
1, 10368, Note_on_c, 1, 84, 96
1, 10368, Note_on_c, 7, 64, 96
1, 10368, Note_on_c, 8, 48, 96
1, 10389, Note_off_c, 7, 64, 0
1, 10392, Note_on_c, 7, 67, 96
1, 10410, Note_off_c, 1, 84, 0
1, 10410, Note_off_c, 8, 48, 0
1, 10413, Note_off_c, 7, 67, 0
1, 10416, Note_on_c, 1, 79, 96
1, 10416, Note_on_c, 7, 69, 96
1, 10437, Note_off_c, 7, 69, 0
1, 10440, Note_on_c, 7, 71, 96
1, 10452, Note_off_c, 0, 79, 0
1, 10458, Note_off_c, 1, 79, 0
1, 10461, Note_off_c, 7, 71, 0
1, 10464, Note_on_c, 0, 84, 96
1, 10464, Note_on_c, 1, 81, 96
1, 10464, Note_on_c, 7, 72, 96
1, 10485, Note_off_c, 7, 72, 0
1, 10488, Note_on_c, 7, 74, 96
1, 10506, Note_off_c, 1, 81, 0
1, 10509, Note_off_c, 7, 74, 0
1, 10512, Note_on_c, 1, 76, 96
1, 10512, Note_on_c, 7, 76, 96
1, 10512, Note_on_c, 8, 60, 96
1, 10533, Note_off_c, 7, 76, 0
1, 10536, Note_on_c, 7, 70, 96
1, 10554, Note_off_c, 1, 76, 0
1, 10554, Note_off_c, 8, 60, 0
1, 10557, Note_off_c, 7, 70, 0
1, 10560, Note_on_c, 1, 77, 96
1, 10560, Note_on_c, 7, 69, 96
1, 10560, Note_on_c, 8, 62, 96
1, 10581, Note_off_c, 7, 69, 0
1, 10584, Note_on_c, 7, 72, 96
1, 10590, Note_off_c, 0, 84, 0
1, 10602, Note_off_c, 1, 77, 0
1, 10602, Note_off_c, 8, 62, 0
1, 10605, Note_off_c, 7, 72, 0
1, 10608, Note_on_c, 0, 83, 96
1, 10608, Note_on_c, 1, 74, 96
1, 10608, Note_on_c, 7, 74, 96
1, 10608, Note_on_c, 8, 60, 96
1, 10629, Note_off_c, 0, 83, 0
1, 10629, Note_off_c, 7, 74, 0
1, 10632, Note_on_c, 0, 84, 96
1, 10632, Note_on_c, 7, 76, 96
1, 10650, Note_off_c, 1, 74, 0
1, 10650, Note_off_c, 8, 60, 0
1, 10653, Note_off_c, 0, 84, 0
1, 10653, Note_off_c, 7, 76, 0
1, 10656, Note_on_c, 0, 86, 96
1, 10656, Note_on_c, 1, 79, 96
1, 10656, Note_on_c, 7, 77, 96
1, 10656, Note_on_c, 8, 59, 96
1, 10677, Note_off_c, 7, 77, 0
1, 10680, Note_on_c, 7, 81, 96
1, 10698, Note_off_c, 0, 86, 0
1, 10698, Note_off_c, 1, 79, 0
1, 10698, Note_off_c, 8, 59, 0
1, 10701, Note_off_c, 7, 81, 0
1, 10704, Note_on_c, 0, 84, 96
1, 10704, Note_on_c, 1, 74, 96
1, 10704, Note_on_c, 7, 79, 96
1, 10704, Note_on_c, 8, 55, 96
1, 10725, Note_off_c, 0, 84, 0
1, 10725, Note_off_c, 7, 79, 0
1, 10728, Note_on_c, 0, 83, 96
1, 10728, Note_on_c, 7, 77, 96
1, 10746, Note_off_c, 1, 74, 0
1, 10746, Note_off_c, 8, 55, 0
1, 10749, Note_off_c, 0, 83, 0
1, 10749, Note_off_c, 7, 77, 0
1, 10752, Note_on_c, 0, 84, 96
1, 10752, Note_on_c, 1, 76, 96
1, 10752, Note_on_c, 7, 76, 96
1, 10752, Note_on_c, 8, 60, 96
1, 10773, Note_off_c, 0, 84, 0
1, 10773, Note_off_c, 7, 76, 0
1, 10773, Note_off_c, 8, 60, 0
1, 10776, Note_on_c, 0, 83, 96
1, 10776, Note_on_c, 7, 67, 96
1, 10776, Note_on_c, 8, 62, 96
1, 10797, Note_off_c, 0, 83, 0
1, 10797, Note_off_c, 7, 67, 0
1, 10797, Note_off_c, 8, 62, 0
1, 10800, Note_on_c, 0, 84, 96
1, 10800, Note_on_c, 7, 69, 96
1, 10800, Note_on_c, 8, 60, 96
1, 10821, Note_off_c, 0, 84, 0
1, 10821, Note_off_c, 7, 69, 0
1, 10821, Note_off_c, 8, 60, 0
1, 10824, Note_on_c, 0, 86, 96
1, 10824, Note_on_c, 7, 71, 96
1, 10824, Note_on_c, 8, 59, 96
1, 10845, Note_off_c, 0, 86, 0
1, 10845, Note_off_c, 7, 71, 0
1, 10845, Note_off_c, 8, 59, 0
1, 10848, Note_on_c, 0, 88, 96
1, 10848, Note_on_c, 7, 72, 96
1, 10848, Note_on_c, 8, 57, 96
1, 10869, Note_off_c, 0, 88, 0
1, 10869, Note_off_c, 7, 72, 0
1, 10869, Note_off_c, 8, 57, 0
1, 10872, Note_on_c, 0, 86, 96
1, 10872, Note_on_c, 7, 74, 96
1, 10872, Note_on_c, 8, 59, 96
1, 10893, Note_off_c, 0, 86, 0
1, 10893, Note_off_c, 7, 74, 0
1, 10893, Note_off_c, 8, 59, 0
1, 10896, Note_on_c, 0, 84, 96
1, 10896, Note_on_c, 7, 76, 96
1, 10896, Note_on_c, 8, 60, 96
1, 10917, Note_off_c, 0, 84, 0
1, 10917, Note_off_c, 7, 76, 0
1, 10920, Note_on_c, 0, 83, 96
1, 10920, Note_on_c, 7, 67, 96
1, 10941, Note_off_c, 0, 83, 0
1, 10941, Note_off_c, 7, 67, 0
1, 10944, Note_on_c, 0, 81, 96
1, 10944, Note_on_c, 7, 66, 96
1, 10965, Note_off_c, 7, 66, 0
1, 10968, Note_on_c, 7, 76, 96
1, 10978, Note_off_c, 7, 76, 0
1, 10980, Note_on_c, 7, 74, 96
1, 10980, Note_off_c, 8, 60, 0
1, 10986, Note_off_c, 0, 81, 0
1, 10990, Note_off_c, 7, 74, 0
1, 10992, Note_on_c, 0, 84, 96
1, 10992, Note_on_c, 7, 72, 96
1, 10992, Note_on_c, 8, 54, 96
1, 11002, Note_off_c, 7, 72, 0
1, 11004, Note_on_c, 7, 71, 96
1, 11014, Note_off_c, 7, 71, 0
1, 11016, Note_on_c, 7, 69, 96
1, 11026, Note_off_c, 7, 69, 0
1, 11028, Note_on_c, 7, 67, 96
1, 11034, Note_off_c, 0, 84, 0
1, 11034, Note_off_c, 8, 54, 0
1, 11038, Note_off_c, 7, 67, 0
1, 11040, Note_on_c, 0, 81, 96
1, 11040, Note_on_c, 7, 66, 96
1, 11061, Note_off_c, 7, 66, 0
1, 11064, Note_on_c, 7, 72, 96
1, 11082, Note_off_c, 0, 81, 0
1, 11085, Note_off_c, 7, 72, 0
1, 11088, Note_on_c, 0, 78, 96
1, 11088, Note_on_c, 7, 69, 96
1, 11088, Note_on_c, 8, 57, 96
1, 11109, Note_off_c, 7, 69, 0
1, 11112, Note_off_c, 1, 76, 0
1, 11112, Note_on_c, 7, 66, 96
1, 11130, Note_off_c, 0, 78, 0
1, 11133, Note_off_c, 7, 66, 0
1, 11136, Note_on_c, 1, 74, 96
1, 11136, Note_on_c, 7, 59, 96
1, 11151, Note_off_c, 8, 57, 0
1, 11157, Note_off_c, 7, 59, 0
1, 11160, Note_on_c, 0, 81, 96
1, 11160, Note_on_c, 7, 66, 96
1, 11160, Note_on_c, 8, 60, 96
1, 11181, Note_off_c, 0, 81, 0
1, 11181, Note_off_c, 7, 66, 0
1, 11181, Note_off_c, 8, 60, 0
1, 11184, Note_on_c, 0, 83, 96
1, 11184, Note_on_c, 7, 67, 96
1, 11184, Note_on_c, 8, 59, 96
1, 11205, Note_off_c, 0, 83, 0
1, 11205, Note_off_c, 7, 67, 0
1, 11205, Note_off_c, 8, 59, 0
1, 11208, Note_on_c, 0, 84, 96
1, 11208, Note_on_c, 7, 69, 96
1, 11208, Note_on_c, 8, 57, 96
1, 11229, Note_off_c, 0, 84, 0
1, 11229, Note_off_c, 7, 69, 0
1, 11229, Note_off_c, 8, 57, 0
1, 11232, Note_on_c, 0, 86, 96
1, 11232, Note_on_c, 7, 71, 96
1, 11232, Note_on_c, 8, 55, 96
1, 11253, Note_off_c, 0, 86, 0
1, 11253, Note_off_c, 7, 71, 0
1, 11253, Note_off_c, 8, 55, 0
1, 11256, Note_on_c, 0, 84, 96
1, 11256, Note_on_c, 7, 72, 96
1, 11256, Note_on_c, 8, 57, 96
1, 11277, Note_off_c, 0, 84, 0
1, 11277, Note_off_c, 7, 72, 0
1, 11277, Note_off_c, 8, 57, 0
1, 11280, Note_on_c, 0, 83, 96
1, 11280, Note_on_c, 7, 74, 96
1, 11280, Note_on_c, 8, 59, 96
1, 11301, Note_off_c, 0, 83, 0
1, 11301, Note_off_c, 7, 74, 0
1, 11304, Note_on_c, 0, 81, 96
1, 11304, Note_on_c, 7, 66, 96
1, 11325, Note_off_c, 0, 81, 0
1, 11325, Note_off_c, 7, 66, 0
1, 11328, Note_on_c, 0, 79, 96
1, 11328, Note_on_c, 7, 64, 96
1, 11349, Note_off_c, 7, 64, 0
1, 11352, Note_on_c, 7, 74, 96
1, 11362, Note_off_c, 7, 74, 0
1, 11364, Note_on_c, 7, 72, 96
1, 11364, Note_off_c, 8, 59, 0
1, 11370, Note_off_c, 0, 79, 0
1, 11374, Note_off_c, 7, 72, 0
1, 11376, Note_on_c, 0, 83, 96
1, 11376, Note_on_c, 7, 71, 96
1, 11376, Note_on_c, 8, 52, 96
1, 11386, Note_off_c, 7, 71, 0
1, 11388, Note_on_c, 7, 69, 96
1, 11398, Note_off_c, 7, 69, 0
1, 11400, Note_on_c, 7, 67, 96
1, 11410, Note_off_c, 7, 67, 0
1, 11412, Note_on_c, 7, 66, 96
1, 11418, Note_off_c, 0, 83, 0
1, 11418, Note_off_c, 8, 52, 0
1, 11422, Note_off_c, 7, 66, 0
1, 11424, Note_on_c, 0, 79, 96
1, 11424, Note_on_c, 7, 64, 96
1, 11445, Note_off_c, 7, 64, 0
1, 11448, Note_on_c, 7, 71, 96
1, 11466, Note_off_c, 0, 79, 0
1, 11469, Note_off_c, 7, 71, 0
1, 11472, Note_on_c, 0, 76, 96
1, 11472, Note_on_c, 7, 67, 96
1, 11472, Note_on_c, 8, 55, 96
1, 11493, Note_off_c, 7, 67, 0
1, 11496, Note_off_c, 1, 74, 0
1, 11496, Note_on_c, 7, 64, 96
1, 11514, Note_off_c, 0, 76, 0
1, 11517, Note_off_c, 7, 64, 0
1, 11520, Note_on_c, 1, 72, 96
1, 11520, Note_on_c, 7, 57, 96
1, 11535, Note_off_c, 8, 55, 0
1, 11541, Note_off_c, 7, 57, 0
1, 11544, Note_on_c, 0, 79, 96
1, 11544, Note_on_c, 7, 64, 96
1, 11544, Note_on_c, 8, 59, 96
1, 11565, Note_off_c, 0, 79, 0
1, 11565, Note_off_c, 7, 64, 0
1, 11565, Note_off_c, 8, 59, 0
1, 11568, Note_on_c, 0, 81, 96
1, 11568, Note_on_c, 7, 66, 96
1, 11568, Note_on_c, 8, 57, 96
1, 11589, Note_off_c, 0, 81, 0
1, 11589, Note_off_c, 7, 66, 0
1, 11589, Note_off_c, 8, 57, 0
1, 11592, Note_on_c, 0, 83, 96
1, 11592, Note_on_c, 7, 67, 96
1, 11592, Note_on_c, 8, 55, 96
1, 11613, Note_off_c, 0, 83, 0
1, 11613, Note_off_c, 7, 67, 0
1, 11613, Note_off_c, 8, 55, 0
1, 11616, Note_on_c, 0, 84, 96
1, 11616, Note_on_c, 7, 69, 96
1, 11616, Note_on_c, 8, 54, 96
1, 11637, Note_off_c, 0, 84, 0
1, 11637, Note_off_c, 7, 69, 0
1, 11637, Note_off_c, 8, 54, 0
1, 11640, Note_on_c, 0, 83, 96
1, 11640, Note_on_c, 7, 71, 96
1, 11640, Note_on_c, 8, 55, 96
1, 11661, Note_off_c, 0, 83, 0
1, 11661, Note_off_c, 7, 71, 0
1, 11661, Note_off_c, 8, 55, 0
1, 11664, Note_on_c, 0, 81, 96
1, 11664, Note_on_c, 7, 72, 96
1, 11664, Note_on_c, 8, 57, 96
1, 11685, Note_off_c, 0, 81, 0
1, 11685, Note_off_c, 7, 72, 0
1, 11688, Note_on_c, 0, 79, 96
1, 11688, Note_on_c, 7, 64, 96
1, 11709, Note_off_c, 0, 79, 0
1, 11709, Note_off_c, 7, 64, 0
1, 11712, Note_on_c, 0, 78, 96
1, 11712, Note_on_c, 7, 62, 96
1, 11733, Note_off_c, 7, 62, 0
1, 11736, Note_on_c, 7, 72, 96
1, 11746, Note_off_c, 7, 72, 0
1, 11748, Note_on_c, 7, 71, 96
1, 11748, Note_off_c, 8, 57, 0
1, 11754, Note_off_c, 0, 78, 0
1, 11758, Note_off_c, 7, 71, 0
1, 11760, Note_on_c, 0, 81, 96
1, 11760, Note_on_c, 7, 69, 96
1, 11760, Note_on_c, 8, 50, 96
1, 11770, Note_off_c, 7, 69, 0
1, 11772, Note_on_c, 7, 67, 96
1, 11782, Note_off_c, 7, 67, 0
1, 11784, Note_on_c, 7, 66, 96
1, 11794, Note_off_c, 7, 66, 0
1, 11796, Note_on_c, 7, 64, 96
1, 11802, Note_off_c, 0, 81, 0
1, 11802, Note_off_c, 8, 50, 0
1, 11806, Note_off_c, 7, 64, 0
1, 11808, Note_on_c, 0, 78, 96
1, 11808, Note_on_c, 7, 62, 96
1, 11829, Note_off_c, 7, 62, 0
1, 11832, Note_on_c, 7, 69, 96
1, 11850, Note_off_c, 0, 78, 0
1, 11853, Note_off_c, 7, 69, 0
1, 11856, Note_on_c, 0, 74, 96
1, 11856, Note_on_c, 7, 66, 96
1, 11856, Note_on_c, 8, 50, 96
1, 11877, Note_off_c, 7, 66, 0
1, 11880, Note_off_c, 1, 72, 0
1, 11880, Note_on_c, 7, 62, 96
1, 11898, Note_off_c, 0, 74, 0
1, 11898, Note_off_c, 8, 50, 0
1, 11901, Note_off_c, 7, 62, 0
1, 11904, Note_on_c, 1, 71, 96
1, 11904, Note_on_c, 8, 55, 96
1, 11928, Note_on_c, 0, 74, 96
1, 11946, Note_off_c, 8, 55, 0
1, 11949, Note_off_c, 0, 74, 0
1, 11952, Note_on_c, 0, 76, 96
1, 11952, Note_on_c, 2, 74, 96
1, 11952, Note_on_c, 7, 74, 96
1, 11952, Note_on_c, 8, 43, 96
1, 11973, Note_off_c, 0, 76, 0
1, 11976, Note_on_c, 0, 77, 96
1, 11988, Note_off_c, 1, 71, 0
1, 11994, Note_off_c, 2, 74, 0
1, 11994, Note_off_c, 7, 74, 0
1, 11994, Note_off_c, 8, 43, 0
1, 11997, Note_off_c, 0, 77, 0
1, 12000, Note_on_c, 0, 79, 96
1, 12000, Note_on_c, 1, 79, 96
1, 12000, Note_on_c, 2, 76, 96
1, 12000, Note_on_c, 7, 79, 96
1, 12000, Note_on_c, 7, 76, 96
1, 12024, Note_on_c, 8, 55, 96
1, 12042, Note_off_c, 2, 76, 0
1, 12042, Note_off_c, 7, 76, 0
1, 12045, Note_off_c, 8, 55, 0
1, 12048, Note_on_c, 2, 71, 96
1, 12048, Note_on_c, 7, 71, 96
1, 12048, Note_on_c, 8, 54, 96
1, 12069, Note_off_c, 8, 54, 0
1, 12072, Note_on_c, 8, 55, 96
1, 12090, Note_off_c, 2, 71, 0
1, 12090, Note_off_c, 7, 71, 0
1, 12093, Note_off_c, 8, 55, 0
1, 12096, Note_on_c, 2, 72, 96
1, 12096, Note_on_c, 7, 72, 96
1, 12096, Note_on_c, 8, 57, 96
1, 12117, Note_off_c, 8, 57, 0
1, 12120, Note_on_c, 8, 59, 96
1, 12138, Note_off_c, 2, 72, 0
1, 12138, Note_off_c, 7, 72, 0
1, 12141, Note_off_c, 8, 59, 0
1, 12144, Note_on_c, 2, 69, 96
1, 12144, Note_on_c, 7, 69, 96
1, 12144, Note_on_c, 8, 60, 96
1, 12168, Note_off_c, 0, 79, 0
1, 12168, Note_off_c, 1, 79, 0
1, 12168, Note_off_c, 7, 79, 0
1, 12186, Note_off_c, 2, 69, 0
1, 12186, Note_off_c, 7, 69, 0
1, 12186, Note_off_c, 8, 60, 0
1, 12192, Note_on_c, 0, 77, 96
1, 12192, Note_on_c, 1, 77, 96
1, 12192, Note_on_c, 2, 74, 96
1, 12192, Note_on_c, 7, 77, 96
1, 12192, Note_on_c, 7, 74, 96
1, 12216, Note_on_c, 8, 62, 96
1, 12234, Note_off_c, 2, 74, 0
1, 12234, Note_off_c, 7, 74, 0
1, 12237, Note_off_c, 8, 62, 0
1, 12240, Note_on_c, 2, 69, 96
1, 12240, Note_on_c, 7, 69, 96
1, 12240, Note_on_c, 8, 60, 96
1, 12261, Note_off_c, 8, 60, 0
1, 12264, Note_on_c, 8, 62, 96
1, 12282, Note_off_c, 2, 69, 0
1, 12282, Note_off_c, 7, 69, 0
1, 12285, Note_off_c, 8, 62, 0
1, 12288, Note_on_c, 2, 71, 96
1, 12288, Note_on_c, 7, 71, 96
1, 12288, Note_on_c, 8, 55, 96
1, 12330, Note_off_c, 2, 71, 0
1, 12330, Note_off_c, 8, 55, 0
1, 12336, Note_on_c, 2, 67, 96
1, 12336, Note_on_c, 3, 67, 96
1, 12336, Note_on_c, 8, 67, 96
1, 12360, Note_off_c, 0, 77, 0
1, 12360, Note_off_c, 1, 77, 0
1, 12360, Note_off_c, 7, 77, 0
1, 12372, Note_off_c, 7, 71, 0
1, 12378, Note_off_c, 2, 67, 0
1, 12378, Note_off_c, 3, 67, 0
1, 12378, Note_off_c, 8, 67, 0
1, 12384, Note_on_c, 0, 76, 96
1, 12384, Note_on_c, 1, 76, 96
1, 12384, Note_on_c, 2, 72, 96
1, 12384, Note_on_c, 3, 69, 96
1, 12384, Note_on_c, 7, 76, 96
1, 12384, Note_on_c, 7, 72, 96
1, 12384, Note_on_c, 8, 69, 96
1, 12426, Note_off_c, 3, 69, 0
1, 12426, Note_off_c, 8, 69, 0
1, 12432, Note_on_c, 3, 64, 96
1, 12432, Note_on_c, 8, 64, 96
1, 12468, Note_off_c, 0, 76, 0
1, 12468, Note_off_c, 1, 76, 0
1, 12468, Note_off_c, 7, 76, 0
1, 12468, Note_off_c, 7, 72, 0
1, 12474, Note_off_c, 3, 64, 0
1, 12474, Note_off_c, 8, 64, 0
1, 12480, Note_on_c, 0, 74, 96
1, 12480, Note_on_c, 1, 74, 96
1, 12480, Note_on_c, 3, 65, 96
1, 12480, Note_on_c, 7, 74, 96
1, 12480, Note_on_c, 7, 72, 96
1, 12480, Note_on_c, 8, 65, 96
1, 12522, Note_off_c, 3, 65, 0
1, 12522, Note_off_c, 8, 65, 0
1, 12528, Note_on_c, 3, 62, 96
1, 12528, Note_on_c, 8, 62, 96
1, 12552, Note_off_c, 2, 72, 0
1, 12564, Note_off_c, 7, 72, 0
1, 12570, Note_off_c, 3, 62, 0
1, 12570, Note_off_c, 8, 62, 0
1, 12576, Note_on_c, 2, 71, 96
1, 12576, Note_on_c, 3, 67, 96
1, 12576, Note_on_c, 7, 71, 96
1, 12576, Note_on_c, 8, 67, 96
1, 12618, Note_off_c, 3, 67, 0
1, 12618, Note_off_c, 8, 67, 0
1, 12624, Note_on_c, 3, 62, 96
1, 12624, Note_on_c, 8, 62, 96
1, 12660, Note_off_c, 2, 71, 0
1, 12660, Note_off_c, 7, 71, 0
1, 12666, Note_off_c, 3, 62, 0
1, 12666, Note_off_c, 8, 62, 0
1, 12672, Note_on_c, 2, 76, 96
1, 12672, Note_on_c, 3, 64, 96
1, 12672, Note_on_c, 5, 36, 96
1, 12672, Note_on_c, 6, 24, 96
1, 12672, Note_on_c, 7, 76, 96
1, 12672, Note_on_c, 8, 36, 96
1, 12672, Note_on_c, 8, 67, 96
1, 12672, Note_on_c, 8, 64, 96
1, 12693, Note_off_c, 3, 64, 0
1, 12696, Note_on_c, 3, 67, 96
1, 12717, Note_off_c, 3, 67, 0
1, 12720, Note_on_c, 3, 69, 96
1, 12720, Note_on_c, 4, 67, 96
1, 12741, Note_off_c, 3, 69, 0
1, 12744, Note_off_c, 0, 74, 0
1, 12744, Note_off_c, 1, 74, 0
1, 12744, Note_on_c, 3, 71, 96
1, 12744, Note_off_c, 7, 74, 0
1, 12756, Note_off_c, 5, 36, 0
1, 12756, Note_off_c, 6, 24, 0
1, 12756, Note_off_c, 8, 36, 0
1, 12762, Note_off_c, 4, 67, 0
1, 12765, Note_off_c, 3, 71, 0
1, 12768, Note_on_c, 0, 72, 96
1, 12768, Note_on_c, 1, 72, 96
1, 12768, Note_on_c, 3, 72, 96
1, 12768, Note_on_c, 4, 69, 96
1, 12768, Note_on_c, 5, 48, 96
1, 12768, Note_on_c, 6, 36, 96
1, 12768, Note_on_c, 7, 72, 96
1, 12768, Note_on_c, 8, 48, 96
1, 12789, Note_off_c, 3, 72, 0
1, 12792, Note_on_c, 3, 71, 96
1, 12810, Note_off_c, 4, 69, 0
1, 12813, Note_off_c, 3, 71, 0
1, 12816, Note_on_c, 3, 69, 96
1, 12816, Note_on_c, 4, 64, 96
1, 12837, Note_off_c, 3, 69, 0
1, 12840, Note_off_c, 2, 76, 0
1, 12840, Note_on_c, 3, 67, 96
1, 12840, Note_off_c, 7, 76, 0
1, 12840, Note_off_c, 8, 67, 0
1, 12840, Note_off_c, 8, 64, 0
1, 12852, Note_off_c, 0, 72, 0
1, 12852, Note_off_c, 1, 72, 0
1, 12852, Note_off_c, 7, 72, 0
1, 12858, Note_off_c, 4, 64, 0
1, 12861, Note_off_c, 3, 67, 0
1, 12864, Note_on_c, 0, 77, 96
1, 12864, Note_on_c, 1, 77, 96
1, 12864, Note_on_c, 2, 74, 96
1, 12864, Note_on_c, 3, 69, 96
1, 12864, Note_on_c, 4, 65, 96
1, 12864, Note_on_c, 7, 74, 96
1, 12864, Note_on_c, 7, 69, 96
1, 12864, Note_on_c, 8, 65, 96
1, 12885, Note_off_c, 3, 69, 0
1, 12888, Note_on_c, 3, 65, 96
1, 12894, Note_off_c, 5, 48, 0
1, 12894, Note_off_c, 6, 36, 0
1, 12894, Note_off_c, 8, 48, 0
1, 12906, Note_off_c, 4, 65, 0
1, 12909, Note_off_c, 3, 65, 0
1, 12912, Note_on_c, 3, 67, 96
1, 12912, Note_on_c, 4, 62, 96
1, 12912, Note_on_c, 5, 47, 96
1, 12912, Note_on_c, 6, 35, 96
1, 12912, Note_on_c, 8, 47, 96
1, 12933, Note_off_c, 3, 67, 0
1, 12933, Note_off_c, 4, 62, 0
1, 12933, Note_off_c, 5, 47, 0
1, 12933, Note_off_c, 6, 35, 0
1, 12933, Note_off_c, 8, 47, 0
1, 12936, Note_on_c, 3, 69, 96
1, 12936, Note_on_c, 4, 64, 96
1, 12936, Note_on_c, 5, 48, 96
1, 12936, Note_on_c, 6, 36, 96
1, 12936, Note_on_c, 8, 48, 96
1, 12948, Note_off_c, 7, 69, 0
1, 12957, Note_off_c, 3, 69, 0
1, 12957, Note_off_c, 4, 64, 0
1, 12957, Note_off_c, 5, 48, 0
1, 12957, Note_off_c, 6, 36, 0
1, 12957, Note_off_c, 8, 48, 0
1, 12960, Note_on_c, 3, 71, 96
1, 12960, Note_on_c, 4, 65, 96
1, 12960, Note_on_c, 5, 50, 96
1, 12960, Note_on_c, 6, 38, 96
1, 12960, Note_on_c, 7, 71, 96
1, 12960, Note_on_c, 8, 50, 96
1, 12981, Note_off_c, 3, 71, 0
1, 12984, Note_on_c, 3, 72, 96
1, 12990, Note_off_c, 8, 65, 0
1, 13002, Note_off_c, 4, 65, 0
1, 13002, Note_off_c, 5, 50, 0
1, 13002, Note_off_c, 6, 38, 0
1, 13002, Note_off_c, 8, 50, 0
1, 13005, Note_off_c, 3, 72, 0
1, 13008, Note_on_c, 3, 74, 96
1, 13008, Note_on_c, 4, 62, 96
1, 13008, Note_on_c, 5, 48, 96
1, 13008, Note_on_c, 6, 36, 96
1, 13008, Note_on_c, 8, 48, 96
1, 13008, Note_on_c, 8, 67, 96
1, 13029, Note_off_c, 3, 74, 0
1, 13029, Note_off_c, 5, 48, 0
1, 13029, Note_off_c, 6, 36, 0
1, 13029, Note_off_c, 8, 48, 0
1, 13032, Note_off_c, 0, 77, 0
1, 13032, Note_off_c, 1, 77, 0
1, 13032, Note_on_c, 3, 67, 96
1, 13032, Note_on_c, 5, 47, 96
1, 13032, Note_on_c, 6, 35, 96
1, 13032, Note_on_c, 8, 47, 96
1, 13044, Note_off_c, 7, 71, 0
1, 13050, Note_off_c, 4, 62, 0
1, 13050, Note_off_c, 8, 67, 0
1, 13053, Note_off_c, 3, 67, 0
1, 13053, Note_off_c, 5, 47, 0
1, 13053, Note_off_c, 6, 35, 0
1, 13053, Note_off_c, 8, 47, 0
1, 13056, Note_on_c, 0, 76, 96
1, 13056, Note_on_c, 1, 76, 96
1, 13056, Note_on_c, 3, 79, 96
1, 13056, Note_on_c, 4, 55, 96
1, 13056, Note_on_c, 5, 48, 96
1, 13056, Note_on_c, 6, 36, 96
1, 13056, Note_on_c, 7, 67, 96
1, 13056, Note_on_c, 8, 48, 96
1, 13056, Note_on_c, 8, 64, 96
1, 13077, Note_off_c, 3, 79, 0
1, 13080, Note_on_c, 3, 67, 96
1, 13098, Note_off_c, 4, 55, 0
1, 13098, Note_off_c, 5, 48, 0
1, 13098, Note_off_c, 6, 36, 0
1, 13098, Note_off_c, 8, 48, 0
1, 13101, Note_off_c, 3, 67, 0
1, 13104, Note_on_c, 3, 69, 96
1, 13104, Note_on_c, 4, 62, 96
1, 13104, Note_on_c, 5, 43, 96
1, 13104, Note_on_c, 6, 31, 96
1, 13104, Note_on_c, 8, 43, 96
1, 13125, Note_off_c, 3, 69, 0
1, 13128, Note_off_c, 2, 74, 0
1, 13128, Note_on_c, 3, 71, 96
1, 13128, Note_off_c, 7, 74, 0
1, 13146, Note_off_c, 4, 62, 0
1, 13146, Note_off_c, 5, 43, 0
1, 13146, Note_off_c, 6, 31, 0
1, 13146, Note_off_c, 8, 43, 0
1, 13149, Note_off_c, 3, 71, 0
1, 13152, Note_on_c, 2, 72, 96
1, 13152, Note_on_c, 3, 72, 96
1, 13152, Note_on_c, 4, 69, 96
1, 13152, Note_on_c, 5, 45, 96
1, 13152, Note_on_c, 6, 33, 96
1, 13152, Note_on_c, 7, 72, 96
1, 13152, Note_on_c, 8, 45, 96
1, 13173, Note_off_c, 3, 72, 0
1, 13176, Note_on_c, 3, 74, 96
1, 13194, Note_off_c, 4, 69, 0
1, 13194, Note_off_c, 5, 45, 0
1, 13194, Note_off_c, 6, 33, 0
1, 13194, Note_off_c, 8, 45, 0
1, 13197, Note_off_c, 3, 74, 0
1, 13200, Note_on_c, 3, 76, 96
1, 13200, Note_on_c, 4, 67, 96
1, 13200, Note_on_c, 5, 40, 96
1, 13200, Note_on_c, 6, 28, 96
1, 13200, Note_on_c, 8, 40, 96
1, 13221, Note_off_c, 3, 76, 0
1, 13224, Note_off_c, 0, 76, 0
1, 13224, Note_off_c, 1, 76, 0
1, 13224, Note_on_c, 3, 72, 96
1, 13224, Note_off_c, 7, 67, 0
1, 13224, Note_off_c, 8, 64, 0
1, 13242, Note_off_c, 4, 67, 0
1, 13242, Note_off_c, 5, 40, 0
1, 13242, Note_off_c, 6, 28, 0
1, 13242, Note_off_c, 8, 40, 0
1, 13245, Note_off_c, 3, 72, 0
1, 13248, Note_on_c, 0, 74, 96
1, 13248, Note_on_c, 1, 74, 96
1, 13248, Note_on_c, 3, 69, 96
1, 13248, Note_on_c, 4, 69, 96
1, 13248, Note_on_c, 5, 41, 96
1, 13248, Note_on_c, 6, 29, 96
1, 13248, Note_on_c, 7, 69, 96
1, 13248, Note_on_c, 8, 41, 96
1, 13248, Note_on_c, 8, 62, 96
1, 13269, Note_off_c, 3, 69, 0
1, 13272, Note_on_c, 3, 65, 96
1, 13290, Note_off_c, 4, 69, 0
1, 13290, Note_off_c, 5, 41, 0
1, 13290, Note_off_c, 6, 29, 0
1, 13290, Note_off_c, 8, 41, 0
1, 13293, Note_off_c, 3, 65, 0
1, 13296, Note_on_c, 3, 67, 96
1, 13296, Note_on_c, 4, 65, 96
1, 13296, Note_on_c, 5, 38, 96
1, 13296, Note_on_c, 6, 26, 96
1, 13296, Note_on_c, 8, 38, 96
1, 13317, Note_off_c, 3, 67, 0
1, 13317, Note_off_c, 4, 65, 0
1, 13320, Note_off_c, 2, 72, 0
1, 13320, Note_on_c, 3, 69, 96
1, 13320, Note_on_c, 4, 64, 96
1, 13320, Note_off_c, 7, 72, 0
1, 13332, Note_off_c, 7, 69, 0
1, 13338, Note_off_c, 5, 38, 0
1, 13338, Note_off_c, 6, 26, 0
1, 13338, Note_off_c, 8, 38, 0
1, 13341, Note_off_c, 3, 69, 0
1, 13341, Note_off_c, 4, 64, 0
1, 13344, Note_on_c, 2, 70, 96
1, 13344, Note_on_c, 3, 70, 96
1, 13344, Note_on_c, 4, 62, 96
1, 13344, Note_on_c, 5, 43, 96
1, 13344, Note_on_c, 6, 31, 96
1, 13344, Note_on_c, 7, 70, 96
1, 13344, Note_on_c, 7, 67, 96
1, 13344, Note_on_c, 8, 43, 96
1, 13365, Note_off_c, 3, 70, 0
1, 13368, Note_on_c, 3, 72, 96
1, 13386, Note_off_c, 4, 62, 0
1, 13386, Note_off_c, 5, 43, 0
1, 13386, Note_off_c, 6, 31, 0
1, 13386, Note_off_c, 8, 43, 0
1, 13389, Note_off_c, 3, 72, 0
1, 13392, Note_on_c, 3, 74, 96
1, 13392, Note_on_c, 4, 65, 96
1, 13392, Note_on_c, 5, 38, 96
1, 13392, Note_on_c, 6, 26, 96
1, 13392, Note_on_c, 8, 38, 96
1, 13413, Note_off_c, 3, 74, 0
1, 13416, Note_off_c, 0, 74, 0
1, 13416, Note_off_c, 1, 74, 0
1, 13416, Note_on_c, 3, 70, 96
1, 13416, Note_off_c, 8, 62, 0
1, 13434, Note_off_c, 4, 65, 0
1, 13434, Note_off_c, 5, 38, 0
1, 13434, Note_off_c, 6, 26, 0
1, 13434, Note_off_c, 8, 38, 0
1, 13437, Note_off_c, 3, 70, 0
1, 13440, Note_on_c, 0, 72, 96
1, 13440, Note_on_c, 1, 72, 96
1, 13440, Note_on_c, 3, 67, 96
1, 13440, Note_on_c, 4, 67, 96
1, 13440, Note_on_c, 5, 40, 96
1, 13440, Note_on_c, 6, 28, 96
1, 13440, Note_on_c, 8, 40, 96
1, 13440, Note_on_c, 8, 60, 96
1, 13461, Note_off_c, 4, 67, 0
1, 13464, Note_on_c, 4, 60, 96
1, 13482, Note_off_c, 5, 40, 0
1, 13482, Note_off_c, 6, 28, 0
1, 13482, Note_off_c, 8, 40, 0
1, 13485, Note_off_c, 4, 60, 0
1, 13488, Note_on_c, 4, 62, 96
1, 13488, Note_on_c, 5, 48, 96
1, 13488, Note_on_c, 6, 36, 96
1, 13488, Note_on_c, 8, 48, 96
1, 13509, Note_off_c, 4, 62, 0
1, 13512, Note_off_c, 2, 70, 0
1, 13512, Note_on_c, 4, 64, 96
1, 13512, Note_off_c, 7, 70, 0
1, 13512, Note_off_c, 7, 67, 0
1, 13524, Note_off_c, 0, 72, 0
1, 13524, Note_off_c, 1, 72, 0
1, 13524, Note_off_c, 3, 67, 0
1, 13524, Note_off_c, 8, 60, 0
1, 13530, Note_off_c, 5, 48, 0
1, 13530, Note_off_c, 6, 36, 0
1, 13530, Note_off_c, 8, 48, 0
1, 13533, Note_off_c, 4, 64, 0
1, 13536, Note_on_c, 0, 77, 96
1, 13536, Note_on_c, 1, 77, 96
1, 13536, Note_on_c, 2, 69, 96
1, 13536, Note_on_c, 3, 62, 96
1, 13536, Note_on_c, 4, 65, 96
1, 13536, Note_on_c, 5, 50, 96
1, 13536, Note_on_c, 6, 38, 96
1, 13536, Note_on_c, 7, 69, 96
1, 13536, Note_on_c, 7, 65, 96
1, 13536, Note_on_c, 8, 50, 96
1, 13557, Note_off_c, 4, 65, 0
1, 13560, Note_on_c, 4, 67, 96
1, 13578, Note_off_c, 3, 62, 0
1, 13578, Note_off_c, 5, 50, 0
1, 13578, Note_off_c, 6, 38, 0
1, 13578, Note_off_c, 8, 50, 0
1, 13581, Note_off_c, 4, 67, 0
1, 13584, Note_on_c, 3, 60, 96
1, 13584, Note_on_c, 4, 69, 96
1, 13584, Note_on_c, 5, 45, 96
1, 13584, Note_on_c, 6, 33, 96
1, 13584, Note_on_c, 8, 45, 96
1, 13605, Note_off_c, 4, 69, 0
1, 13608, Note_on_c, 4, 65, 96
1, 13620, Note_off_c, 2, 69, 0
1, 13620, Note_off_c, 7, 69, 0
1, 13626, Note_off_c, 3, 60, 0
1, 13626, Note_off_c, 5, 45, 0
1, 13626, Note_off_c, 6, 33, 0
1, 13626, Note_off_c, 8, 45, 0
1, 13629, Note_off_c, 4, 65, 0
1, 13632, Note_on_c, 2, 67, 96
1, 13632, Note_on_c, 3, 62, 96
1, 13632, Note_on_c, 4, 62, 96
1, 13632, Note_on_c, 5, 47, 96
1, 13632, Note_on_c, 6, 35, 96
1, 13632, Note_on_c, 7, 67, 96
1, 13632, Note_on_c, 8, 47, 96
1, 13632, Note_on_c, 8, 62, 96
1, 13653, Note_off_c, 3, 62, 0
1, 13653, Note_off_c, 4, 62, 0
1, 13656, Note_on_c, 3, 65, 96
1, 13656, Note_on_c, 4, 59, 96
1, 13674, Note_off_c, 5, 47, 0
1, 13674, Note_off_c, 6, 35, 0
1, 13674, Note_off_c, 8, 47, 0
1, 13677, Note_off_c, 3, 65, 0
1, 13677, Note_off_c, 4, 59, 0
1, 13680, Note_on_c, 3, 64, 96
1, 13680, Note_on_c, 4, 61, 96
1, 13680, Note_on_c, 5, 43, 96
1, 13680, Note_on_c, 6, 31, 96
1, 13680, Note_on_c, 8, 43, 96
1, 13701, Note_off_c, 3, 64, 0
1, 13701, Note_off_c, 4, 61, 0
1, 13704, Note_off_c, 0, 77, 0
1, 13704, Note_off_c, 1, 77, 0
1, 13704, Note_on_c, 3, 62, 96
1, 13704, Note_on_c, 4, 62, 96
1, 13704, Note_off_c, 7, 65, 0
1, 13716, Note_off_c, 8, 62, 0
1, 13722, Note_off_c, 5, 43, 0
1, 13722, Note_off_c, 6, 31, 0
1, 13722, Note_off_c, 8, 43, 0
1, 13725, Note_off_c, 3, 62, 0
1, 13725, Note_off_c, 4, 62, 0
1, 13728, Note_on_c, 0, 76, 96
1, 13728, Note_on_c, 1, 76, 96
1, 13728, Note_on_c, 3, 69, 96
1, 13728, Note_on_c, 4, 64, 96
1, 13728, Note_on_c, 5, 49, 96
1, 13728, Note_on_c, 6, 37, 96
1, 13728, Note_on_c, 7, 64, 96
1, 13728, Note_on_c, 8, 49, 96
1, 13728, Note_on_c, 8, 57, 96
1, 13749, Note_off_c, 4, 64, 0
1, 13752, Note_on_c, 4, 61, 96
1, 13770, Note_off_c, 5, 49, 0
1, 13770, Note_off_c, 6, 37, 0
1, 13770, Note_off_c, 8, 49, 0
1, 13773, Note_off_c, 4, 61, 0
1, 13776, Note_on_c, 4, 62, 96
1, 13776, Note_on_c, 5, 45, 96
1, 13776, Note_on_c, 6, 33, 96
1, 13776, Note_on_c, 8, 45, 96
1, 13797, Note_off_c, 4, 62, 0
1, 13800, Note_off_c, 2, 67, 0
1, 13800, Note_on_c, 4, 64, 96
1, 13800, Note_off_c, 7, 67, 0
1, 13818, Note_off_c, 5, 45, 0
1, 13818, Note_off_c, 6, 33, 0
1, 13818, Note_off_c, 8, 45, 0
1, 13821, Note_off_c, 4, 64, 0
1, 13824, Note_on_c, 2, 65, 96
1, 13824, Note_on_c, 4, 65, 96
1, 13824, Note_on_c, 5, 50, 96
1, 13824, Note_on_c, 6, 38, 96
1, 13824, Note_on_c, 7, 65, 96
1, 13824, Note_on_c, 8, 50, 96
1, 13845, Note_off_c, 4, 65, 0
1, 13848, Note_on_c, 4, 57, 96
1, 13854, Note_off_c, 3, 69, 0
1, 13866, Note_off_c, 5, 50, 0
1, 13866, Note_off_c, 6, 38, 0
1, 13866, Note_off_c, 8, 50, 0
1, 13869, Note_off_c, 4, 57, 0
1, 13872, Note_on_c, 3, 67, 96
1, 13872, Note_on_c, 4, 59, 96
1, 13872, Note_on_c, 5, 45, 96
1, 13872, Note_on_c, 6, 33, 96
1, 13872, Note_on_c, 8, 45, 96
1, 13893, Note_off_c, 4, 59, 0
1, 13896, Note_off_c, 0, 76, 0
1, 13896, Note_off_c, 1, 76, 0
1, 13896, Note_on_c, 4, 61, 96
1, 13896, Note_off_c, 7, 64, 0
1, 13896, Note_off_c, 8, 57, 0
1, 13914, Note_off_c, 3, 67, 0
1, 13914, Note_off_c, 5, 45, 0
1, 13914, Note_off_c, 6, 33, 0
1, 13914, Note_off_c, 8, 45, 0
1, 13917, Note_off_c, 4, 61, 0
1, 13920, Note_on_c, 0, 74, 96
1, 13920, Note_on_c, 1, 74, 96
1, 13920, Note_on_c, 3, 65, 96
1, 13920, Note_on_c, 4, 62, 96
1, 13920, Note_on_c, 5, 46, 96
1, 13920, Note_on_c, 6, 34, 96
1, 13920, Note_on_c, 7, 62, 96
1, 13920, Note_on_c, 8, 46, 96
1, 13920, Note_on_c, 8, 62, 96
1, 13941, Note_off_c, 3, 65, 0
1, 13941, Note_off_c, 4, 62, 0
1, 13944, Note_on_c, 3, 67, 96
1, 13944, Note_on_c, 4, 64, 96
1, 13962, Note_off_c, 5, 46, 0
1, 13962, Note_off_c, 6, 34, 0
1, 13962, Note_off_c, 8, 46, 0
1, 13965, Note_off_c, 3, 67, 0
1, 13965, Note_off_c, 4, 64, 0
1, 13968, Note_on_c, 3, 69, 96
1, 13968, Note_on_c, 4, 65, 96
1, 13968, Note_on_c, 5, 41, 96
1, 13968, Note_on_c, 6, 29, 96
1, 13968, Note_on_c, 8, 41, 96
1, 13989, Note_off_c, 3, 69, 0
1, 13989, Note_off_c, 4, 65, 0
1, 13992, Note_off_c, 2, 65, 0
1, 13992, Note_on_c, 3, 65, 96
1, 13992, Note_on_c, 4, 62, 96
1, 13992, Note_off_c, 7, 65, 0
1, 14004, Note_off_c, 8, 62, 0
1, 14010, Note_off_c, 5, 41, 0
1, 14010, Note_off_c, 6, 29, 0
1, 14010, Note_off_c, 8, 41, 0
1, 14013, Note_off_c, 3, 65, 0
1, 14013, Note_off_c, 4, 62, 0
1, 14016, Note_on_c, 2, 64, 96
1, 14016, Note_on_c, 3, 70, 96
1, 14016, Note_on_c, 4, 58, 96
1, 14016, Note_on_c, 5, 43, 96
1, 14016, Note_on_c, 6, 31, 96
1, 14016, Note_on_c, 7, 64, 96
1, 14016, Note_on_c, 8, 43, 96
1, 14016, Note_on_c, 8, 58, 96
1, 14037, Note_off_c, 4, 58, 0
1, 14040, Note_on_c, 4, 55, 96
1, 14058, Note_off_c, 3, 70, 0
1, 14058, Note_off_c, 5, 43, 0
1, 14058, Note_off_c, 6, 31, 0
1, 14058, Note_off_c, 8, 43, 0
1, 14061, Note_off_c, 4, 55, 0
1, 14064, Note_on_c, 3, 67, 96
1, 14064, Note_on_c, 4, 57, 96
1, 14064, Note_on_c, 5, 40, 96
1, 14064, Note_on_c, 6, 28, 96
1, 14064, Note_on_c, 8, 40, 96
1, 14085, Note_off_c, 4, 57, 0
1, 14088, Note_off_c, 0, 74, 0
1, 14088, Note_off_c, 1, 74, 0
1, 14088, Note_on_c, 4, 58, 96
1, 14088, Note_off_c, 7, 62, 0
1, 14100, Note_off_c, 8, 58, 0
1, 14106, Note_off_c, 3, 67, 0
1, 14106, Note_off_c, 5, 40, 0
1, 14106, Note_off_c, 6, 28, 0
1, 14106, Note_off_c, 8, 40, 0
1, 14109, Note_off_c, 4, 58, 0
1, 14112, Note_on_c, 0, 72, 96
1, 14112, Note_on_c, 1, 72, 96
1, 14112, Note_on_c, 3, 64, 96
1, 14112, Note_on_c, 4, 60, 96
1, 14112, Note_on_c, 5, 45, 96
1, 14112, Note_on_c, 6, 33, 96
1, 14112, Note_on_c, 7, 60, 96
1, 14112, Note_on_c, 8, 45, 96
1, 14112, Note_on_c, 8, 57, 96
1, 14133, Note_off_c, 3, 64, 0
1, 14133, Note_off_c, 4, 60, 0
1, 14136, Note_on_c, 3, 65, 96
1, 14136, Note_on_c, 4, 62, 96
1, 14154, Note_off_c, 5, 45, 0
1, 14154, Note_off_c, 6, 33, 0
1, 14154, Note_off_c, 8, 45, 0
1, 14157, Note_off_c, 3, 65, 0
1, 14157, Note_off_c, 4, 62, 0
1, 14160, Note_on_c, 3, 67, 96
1, 14160, Note_on_c, 4, 64, 96
1, 14160, Note_on_c, 5, 40, 96
1, 14160, Note_on_c, 6, 28, 96
1, 14160, Note_on_c, 8, 40, 96
1, 14181, Note_off_c, 3, 67, 0
1, 14181, Note_off_c, 4, 64, 0
1, 14184, Note_off_c, 2, 64, 0
1, 14184, Note_on_c, 3, 64, 96
1, 14184, Note_on_c, 4, 60, 96
1, 14184, Note_off_c, 7, 64, 0
1, 14202, Note_off_c, 5, 40, 0
1, 14202, Note_off_c, 6, 28, 0
1, 14202, Note_off_c, 8, 40, 0
1, 14205, Note_off_c, 3, 64, 0
1, 14205, Note_off_c, 4, 60, 0
1, 14208, Note_on_c, 2, 62, 96
1, 14208, Note_on_c, 3, 69, 96
1, 14208, Note_on_c, 4, 57, 96
1, 14208, Note_on_c, 5, 42, 96
1, 14208, Note_on_c, 6, 30, 96
1, 14208, Note_on_c, 7, 62, 96
1, 14208, Note_on_c, 8, 42, 96
1, 14229, Note_off_c, 3, 69, 0
1, 14229, Note_off_c, 4, 57, 0
1, 14232, Note_on_c, 3, 62, 96
1, 14232, Note_on_c, 4, 60, 96
1, 14250, Note_off_c, 5, 42, 0
1, 14250, Note_off_c, 6, 30, 0
1, 14250, Note_off_c, 8, 42, 0
1, 14253, Note_off_c, 3, 62, 0
1, 14253, Note_off_c, 4, 60, 0
1, 14256, Note_on_c, 3, 64, 96
1, 14256, Note_on_c, 4, 58, 96
1, 14256, Note_on_c, 5, 50, 96
1, 14256, Note_on_c, 6, 38, 96
1, 14256, Note_on_c, 8, 50, 96
1, 14277, Note_off_c, 3, 64, 0
1, 14277, Note_off_c, 4, 58, 0
1, 14280, Note_off_c, 0, 72, 0
1, 14280, Note_off_c, 1, 72, 0
1, 14280, Note_on_c, 3, 66, 96
1, 14280, Note_on_c, 4, 57, 96
1, 14280, Note_off_c, 7, 60, 0
1, 14280, Note_off_c, 8, 57, 0
1, 14292, Note_off_c, 2, 62, 0
1, 14292, Note_off_c, 7, 62, 0
1, 14298, Note_off_c, 5, 50, 0
1, 14298, Note_off_c, 6, 38, 0
1, 14298, Note_off_c, 8, 50, 0
1, 14301, Note_off_c, 3, 66, 0
1, 14301, Note_off_c, 4, 57, 0
1, 14304, Note_on_c, 0, 70, 96
1, 14304, Note_on_c, 1, 70, 96
1, 14304, Note_on_c, 2, 67, 96
1, 14304, Note_on_c, 3, 67, 96
1, 14304, Note_on_c, 4, 55, 96
1, 14304, Note_on_c, 5, 51, 96
1, 14304, Note_on_c, 6, 39, 96
1, 14304, Note_on_c, 7, 67, 96
1, 14304, Note_on_c, 7, 58, 96
1, 14304, Note_on_c, 8, 51, 96
1, 14304, Note_on_c, 8, 55, 96
1, 14325, Note_off_c, 3, 67, 0
1, 14328, Note_on_c, 3, 69, 96
1, 14346, Note_off_c, 4, 55, 0
1, 14346, Note_off_c, 5, 51, 0
1, 14346, Note_off_c, 6, 39, 0
1, 14346, Note_off_c, 8, 51, 0
1, 14349, Note_off_c, 3, 69, 0
1, 14352, Note_on_c, 3, 70, 96
1, 14352, Note_on_c, 4, 62, 96
1, 14352, Note_on_c, 5, 46, 96
1, 14352, Note_on_c, 6, 34, 96
1, 14352, Note_on_c, 8, 46, 96
1, 14373, Note_off_c, 3, 70, 0
1, 14376, Note_on_c, 3, 67, 96
1, 14388, Note_off_c, 0, 70, 0
1, 14388, Note_off_c, 1, 70, 0
1, 14388, Note_off_c, 7, 58, 0
1, 14388, Note_off_c, 8, 55, 0
1, 14394, Note_off_c, 4, 62, 0
1, 14394, Note_off_c, 5, 46, 0
1, 14394, Note_off_c, 6, 34, 0
1, 14394, Note_off_c, 8, 46, 0
1, 14397, Note_off_c, 3, 67, 0
1, 14400, Note_on_c, 0, 69, 96
1, 14400, Note_on_c, 1, 69, 96
1, 14400, Note_on_c, 3, 63, 96
1, 14400, Note_on_c, 4, 63, 96
1, 14400, Note_on_c, 5, 48, 96
1, 14400, Note_on_c, 6, 36, 96
1, 14400, Note_on_c, 7, 63, 96
1, 14400, Note_on_c, 8, 48, 96
1, 14400, Note_on_c, 8, 57, 96
1, 14421, Note_off_c, 3, 63, 0
1, 14424, Note_on_c, 3, 60, 96
1, 14442, Note_off_c, 4, 63, 0
1, 14442, Note_off_c, 5, 48, 0
1, 14442, Note_off_c, 6, 36, 0
1, 14442, Note_off_c, 8, 48, 0
1, 14445, Note_off_c, 3, 60, 0
1, 14448, Note_on_c, 3, 62, 96
1, 14448, Note_on_c, 4, 60, 96
1, 14448, Note_on_c, 5, 45, 96
1, 14448, Note_on_c, 6, 33, 96
1, 14448, Note_on_c, 8, 45, 96
1, 14469, Note_off_c, 3, 62, 0
1, 14472, Note_off_c, 2, 67, 0
1, 14472, Note_on_c, 3, 63, 96
1, 14472, Note_off_c, 7, 67, 0
1, 14484, Note_off_c, 7, 63, 0
1, 14490, Note_off_c, 4, 60, 0
1, 14490, Note_off_c, 5, 45, 0
1, 14490, Note_off_c, 6, 33, 0
1, 14490, Note_off_c, 8, 45, 0
1, 14493, Note_off_c, 3, 63, 0
1, 14496, Note_on_c, 2, 65, 96
1, 14496, Note_on_c, 3, 65, 96
1, 14496, Note_on_c, 4, 57, 96
1, 14496, Note_on_c, 5, 50, 96
1, 14496, Note_on_c, 6, 38, 96
1, 14496, Note_on_c, 7, 65, 96
1, 14496, Note_on_c, 7, 62, 96
1, 14496, Note_on_c, 8, 50, 96
1, 14517, Note_off_c, 3, 65, 0
1, 14517, Note_off_c, 4, 57, 0
1, 14520, Note_on_c, 3, 67, 96
1, 14520, Note_on_c, 4, 58, 96
1, 14538, Note_off_c, 5, 50, 0
1, 14538, Note_off_c, 6, 38, 0
1, 14538, Note_off_c, 8, 50, 0
1, 14541, Note_off_c, 3, 67, 0
1, 14541, Note_off_c, 4, 58, 0
1, 14544, Note_on_c, 3, 69, 96
1, 14544, Note_on_c, 4, 60, 96
1, 14544, Note_on_c, 5, 45, 96
1, 14544, Note_on_c, 6, 33, 96
1, 14544, Note_on_c, 8, 45, 96
1, 14565, Note_off_c, 3, 69, 0
1, 14565, Note_off_c, 4, 60, 0
1, 14568, Note_off_c, 0, 69, 0
1, 14568, Note_off_c, 1, 69, 0
1, 14568, Note_on_c, 3, 65, 96
1, 14568, Note_on_c, 4, 57, 96
1, 14568, Note_off_c, 8, 57, 0
1, 14586, Note_off_c, 5, 45, 0
1, 14586, Note_off_c, 6, 33, 0
1, 14586, Note_off_c, 8, 45, 0
1, 14589, Note_off_c, 3, 65, 0
1, 14589, Note_off_c, 4, 57, 0
1, 14592, Note_on_c, 0, 67, 96
1, 14592, Note_on_c, 1, 67, 96
1, 14592, Note_on_c, 3, 62, 96
1, 14592, Note_on_c, 4, 62, 96
1, 14592, Note_on_c, 5, 47, 96
1, 14592, Note_on_c, 6, 35, 96
1, 14592, Note_on_c, 8, 47, 96
1, 14592, Note_on_c, 8, 55, 96
1, 14613, Note_off_c, 4, 62, 0
1, 14616, Note_on_c, 4, 65, 96
1, 14634, Note_off_c, 3, 62, 0
1, 14634, Note_off_c, 5, 47, 0
1, 14634, Note_off_c, 6, 35, 0
1, 14634, Note_off_c, 8, 47, 0
1, 14637, Note_off_c, 4, 65, 0
1, 14640, Note_on_c, 3, 71, 96
1, 14640, Note_on_c, 4, 64, 96
1, 14640, Note_on_c, 5, 55, 96
1, 14640, Note_on_c, 6, 43, 96
1, 14640, Note_off_c, 8, 55, 0
1, 14640, Note_on_c, 8, 55, 96
1, 14661, Note_off_c, 4, 64, 0
1, 14664, Note_off_c, 2, 65, 0
1, 14664, Note_on_c, 4, 62, 96
1, 14664, Note_off_c, 7, 65, 0
1, 14664, Note_off_c, 7, 62, 0
1, 14676, Note_off_c, 0, 67, 0
1, 14676, Note_off_c, 1, 67, 0
1, 14682, Note_off_c, 3, 71, 0
1, 14682, Note_off_c, 5, 55, 0
1, 14682, Note_off_c, 6, 43, 0
1, 14682, Note_off_c, 8, 55, 0
1, 14685, Note_off_c, 4, 62, 0
1, 14688, Note_on_c, 0, 72, 96
1, 14688, Note_on_c, 1, 72, 96
1, 14688, Note_on_c, 2, 64, 96
1, 14688, Note_on_c, 3, 72, 96
1, 14688, Note_on_c, 4, 60, 96
1, 14688, Note_on_c, 5, 57, 96
1, 14688, Note_on_c, 6, 45, 96
1, 14688, Note_on_c, 7, 64, 96
1, 14688, Note_on_c, 7, 60, 96
1, 14688, Note_on_c, 8, 57, 96
1, 14709, Note_off_c, 4, 60, 0
1, 14712, Note_on_c, 4, 62, 96
1, 14730, Note_off_c, 3, 72, 0
1, 14730, Note_off_c, 5, 57, 0
1, 14730, Note_off_c, 6, 45, 0
1, 14730, Note_off_c, 8, 57, 0
1, 14733, Note_off_c, 4, 62, 0
1, 14736, Note_on_c, 3, 67, 96
1, 14736, Note_on_c, 4, 64, 96
1, 14736, Note_on_c, 5, 52, 96
1, 14736, Note_on_c, 6, 40, 96
1, 14736, Note_on_c, 8, 52, 96
1, 14757, Note_off_c, 4, 64, 0
1, 14760, Note_on_c, 4, 60, 96
1, 14772, Note_off_c, 2, 64, 0
1, 14772, Note_off_c, 7, 64, 0
1, 14778, Note_off_c, 3, 67, 0
1, 14778, Note_off_c, 5, 52, 0
1, 14778, Note_off_c, 6, 40, 0
1, 14778, Note_off_c, 8, 52, 0
1, 14781, Note_off_c, 4, 60, 0
1, 14784, Note_on_c, 2, 62, 96
1, 14784, Note_on_c, 3, 69, 96
1, 14784, Note_on_c, 4, 57, 96
1, 14784, Note_on_c, 5, 53, 96
1, 14784, Note_on_c, 6, 41, 96
1, 14784, Note_on_c, 7, 62, 96
1, 14784, Note_on_c, 8, 53, 96
1, 14805, Note_off_c, 4, 57, 0
1, 14808, Note_on_c, 4, 53, 96
1, 14826, Note_off_c, 3, 69, 0
1, 14826, Note_off_c, 5, 53, 0
1, 14826, Note_off_c, 6, 41, 0
1, 14826, Note_off_c, 8, 53, 0
1, 14829, Note_off_c, 4, 53, 0
1, 14832, Note_on_c, 3, 65, 96
1, 14832, Note_on_c, 4, 55, 96
1, 14832, Note_on_c, 5, 50, 96
1, 14832, Note_on_c, 6, 38, 96
1, 14832, Note_on_c, 8, 50, 96
1, 14853, Note_off_c, 4, 55, 0
1, 14856, Note_off_c, 0, 72, 0
1, 14856, Note_off_c, 1, 72, 0
1, 14856, Note_on_c, 4, 57, 96
1, 14856, Note_off_c, 7, 60, 0
1, 14874, Note_off_c, 3, 65, 0
1, 14874, Note_off_c, 5, 50, 0
1, 14874, Note_off_c, 6, 38, 0
1, 14874, Note_off_c, 8, 50, 0
1, 14877, Note_off_c, 4, 57, 0
1, 14880, Note_on_c, 0, 70, 96
1, 14880, Note_on_c, 1, 70, 96
1, 14880, Note_on_c, 3, 62, 96
1, 14880, Note_on_c, 4, 58, 96
1, 14880, Note_on_c, 5, 55, 96
1, 14880, Note_on_c, 6, 43, 96
1, 14880, Note_on_c, 7, 58, 96
1, 14880, Note_on_c, 8, 55, 96
1, 14901, Note_off_c, 3, 62, 0
1, 14901, Note_off_c, 4, 58, 0
1, 14904, Note_on_c, 3, 64, 96
1, 14904, Note_on_c, 4, 60, 96
1, 14922, Note_off_c, 5, 55, 0
1, 14922, Note_off_c, 6, 43, 0
1, 14922, Note_off_c, 8, 55, 0
1, 14925, Note_off_c, 3, 64, 0
1, 14925, Note_off_c, 4, 60, 0
1, 14928, Note_on_c, 3, 65, 96
1, 14928, Note_on_c, 4, 62, 96
1, 14928, Note_on_c, 5, 50, 96
1, 14928, Note_on_c, 6, 38, 96
1, 14928, Note_on_c, 8, 50, 96
1, 14949, Note_off_c, 3, 65, 0
1, 14949, Note_off_c, 4, 62, 0
1, 14952, Note_off_c, 2, 62, 0
1, 14952, Note_on_c, 3, 62, 96
1, 14952, Note_on_c, 4, 58, 96
1, 14952, Note_off_c, 7, 62, 0
1, 14964, Note_off_c, 7, 58, 0
1, 14970, Note_off_c, 5, 50, 0
1, 14970, Note_off_c, 6, 38, 0
1, 14970, Note_off_c, 8, 50, 0
1, 14973, Note_off_c, 3, 62, 0
1, 14973, Note_off_c, 4, 58, 0
1, 14976, Note_on_c, 2, 72, 96
1, 14976, Note_on_c, 3, 67, 96
1, 14976, Note_on_c, 4, 55, 96
1, 14976, Note_on_c, 5, 52, 96
1, 14976, Note_on_c, 6, 40, 96
1, 14976, Note_on_c, 7, 72, 96
1, 14976, Note_on_c, 7, 67, 96
1, 14976, Note_on_c, 7, 60, 96
1, 14976, Note_on_c, 8, 52, 96
1, 14997, Note_off_c, 3, 67, 0
1, 14997, Note_off_c, 4, 55, 0
1, 15000, Note_on_c, 3, 70, 96
1, 15000, Note_on_c, 4, 67, 96
1, 15018, Note_off_c, 5, 52, 0
1, 15018, Note_off_c, 6, 40, 0
1, 15018, Note_off_c, 7, 67, 0
1, 15018, Note_off_c, 7, 60, 0
1, 15018, Note_off_c, 8, 52, 0
1, 15021, Note_off_c, 3, 70, 0
1, 15021, Note_off_c, 4, 67, 0
1, 15024, Note_on_c, 3, 69, 96
1, 15024, Note_on_c, 4, 65, 96
1, 15024, Note_on_c, 5, 48, 96
1, 15024, Note_on_c, 6, 36, 96
1, 15024, Note_on_c, 7, 70, 96
1, 15024, Note_on_c, 7, 67, 96
1, 15024, Note_on_c, 8, 48, 96
1, 15045, Note_off_c, 3, 69, 0
1, 15045, Note_off_c, 4, 65, 0
1, 15048, Note_off_c, 0, 70, 0
1, 15048, Note_off_c, 1, 70, 0
1, 15048, Note_on_c, 3, 67, 96
1, 15048, Note_on_c, 4, 64, 96
1, 15060, Note_off_c, 2, 72, 0
1, 15060, Note_off_c, 7, 72, 0
1, 15066, Note_off_c, 5, 48, 0
1, 15066, Note_off_c, 6, 36, 0
1, 15066, Note_off_c, 7, 70, 0
1, 15066, Note_off_c, 7, 67, 0
1, 15066, Note_off_c, 8, 48, 0
1, 15069, Note_off_c, 3, 67, 0
1, 15069, Note_off_c, 4, 64, 0
1, 15072, Note_on_c, 0, 69, 96
1, 15072, Note_on_c, 1, 69, 96
1, 15072, Note_on_c, 2, 77, 96
1, 15072, Note_on_c, 3, 65, 96
1, 15072, Note_on_c, 4, 65, 96
1, 15072, Note_on_c, 5, 50, 96
1, 15072, Note_on_c, 6, 38, 96
1, 15072, Note_on_c, 7, 77, 96
1, 15072, Note_on_c, 7, 69, 96
1, 15072, Note_on_c, 7, 65, 96
1, 15072, Note_on_c, 8, 50, 96
1, 15093, Note_off_c, 3, 65, 0
1, 15096, Note_on_c, 3, 67, 96
1, 15114, Note_off_c, 4, 65, 0
1, 15114, Note_off_c, 5, 50, 0
1, 15114, Note_off_c, 6, 38, 0
1, 15114, Note_off_c, 8, 50, 0
1, 15117, Note_off_c, 3, 67, 0
1, 15120, Note_on_c, 3, 69, 96
1, 15120, Note_on_c, 4, 60, 96
1, 15120, Note_on_c, 5, 45, 96
1, 15120, Note_on_c, 6, 33, 96
1, 15120, Note_on_c, 8, 45, 96
1, 15141, Note_off_c, 3, 69, 0
1, 15144, Note_on_c, 3, 65, 96
1, 15156, Note_off_c, 0, 69, 0
1, 15156, Note_off_c, 1, 69, 0
1, 15156, Note_off_c, 7, 69, 0
1, 15156, Note_off_c, 7, 65, 0
1, 15162, Note_off_c, 4, 60, 0
1, 15162, Note_off_c, 5, 45, 0
1, 15162, Note_off_c, 6, 33, 0
1, 15162, Note_off_c, 8, 45, 0
1, 15165, Note_off_c, 3, 65, 0
1, 15168, Note_on_c, 0, 67, 96
1, 15168, Note_on_c, 1, 67, 96
1, 15168, Note_on_c, 3, 62, 96
1, 15168, Note_on_c, 4, 62, 96
1, 15168, Note_on_c, 5, 46, 96
1, 15168, Note_on_c, 6, 34, 96
1, 15168, Note_on_c, 7, 67, 96
1, 15168, Note_on_c, 8, 46, 96
1, 15189, Note_off_c, 3, 62, 0
1, 15192, Note_on_c, 3, 65, 96
1, 15198, Note_off_c, 2, 77, 0
1, 15198, Note_off_c, 7, 77, 0
1, 15210, Note_off_c, 4, 62, 0
1, 15210, Note_off_c, 5, 46, 0
1, 15210, Note_off_c, 6, 34, 0
1, 15210, Note_off_c, 8, 46, 0
1, 15213, Note_off_c, 3, 65, 0
1, 15216, Note_on_c, 2, 76, 96
1, 15216, Note_on_c, 3, 67, 96
1, 15216, Note_on_c, 4, 58, 96
1, 15216, Note_on_c, 5, 43, 96
1, 15216, Note_on_c, 6, 31, 96
1, 15216, Note_on_c, 7, 76, 96
1, 15216, Note_on_c, 8, 43, 96
1, 15237, Note_off_c, 2, 76, 0
1, 15237, Note_off_c, 3, 67, 0
1, 15237, Note_off_c, 7, 76, 0
1, 15240, Note_on_c, 2, 77, 96
1, 15240, Note_on_c, 3, 69, 96
1, 15240, Note_on_c, 7, 77, 96
1, 15258, Note_off_c, 4, 58, 0
1, 15258, Note_off_c, 5, 43, 0
1, 15258, Note_off_c, 6, 31, 0
1, 15258, Note_off_c, 8, 43, 0
1, 15261, Note_off_c, 2, 77, 0
1, 15261, Note_off_c, 3, 69, 0
1, 15261, Note_off_c, 7, 77, 0
1, 15264, Note_on_c, 2, 79, 96
1, 15264, Note_on_c, 3, 70, 96
1, 15264, Note_on_c, 4, 55, 96
1, 15264, Note_on_c, 5, 48, 96
1, 15264, Note_on_c, 6, 36, 96
1, 15264, Note_on_c, 7, 79, 96
1, 15264, Note_on_c, 8, 48, 96
1, 15285, Note_off_c, 3, 70, 0
1, 15285, Note_off_c, 4, 55, 0
1, 15288, Note_on_c, 3, 74, 96
1, 15288, Note_on_c, 4, 58, 96
1, 15306, Note_off_c, 2, 79, 0
1, 15306, Note_off_c, 5, 48, 0
1, 15306, Note_off_c, 6, 36, 0
1, 15306, Note_off_c, 7, 79, 0
1, 15306, Note_off_c, 8, 48, 0
1, 15309, Note_off_c, 3, 74, 0
1, 15309, Note_off_c, 4, 58, 0
1, 15312, Note_on_c, 2, 77, 96
1, 15312, Note_on_c, 3, 72, 96
1, 15312, Note_on_c, 4, 57, 96
1, 15312, Note_on_c, 5, 43, 96
1, 15312, Note_on_c, 6, 31, 96
1, 15312, Note_on_c, 7, 77, 96
1, 15312, Note_on_c, 8, 43, 96
1, 15333, Note_off_c, 2, 77, 0
1, 15333, Note_off_c, 3, 72, 0
1, 15333, Note_off_c, 4, 57, 0
1, 15333, Note_off_c, 7, 77, 0
1, 15336, Note_off_c, 0, 67, 0
1, 15336, Note_off_c, 1, 67, 0
1, 15336, Note_on_c, 2, 76, 96
1, 15336, Note_on_c, 3, 70, 96
1, 15336, Note_on_c, 4, 55, 96
1, 15336, Note_on_c, 7, 76, 96
1, 15336, Note_off_c, 7, 67, 0
1, 15354, Note_off_c, 5, 43, 0
1, 15354, Note_off_c, 6, 31, 0
1, 15354, Note_off_c, 8, 43, 0
1, 15357, Note_off_c, 2, 76, 0
1, 15357, Note_off_c, 3, 70, 0
1, 15357, Note_off_c, 4, 55, 0
1, 15357, Note_off_c, 7, 76, 0
1, 15360, Note_on_c, 0, 65, 96
1, 15360, Note_on_c, 1, 65, 96
1, 15360, Note_on_c, 2, 77, 96
1, 15360, Note_on_c, 3, 69, 96
1, 15360, Note_on_c, 4, 60, 96
1, 15360, Note_on_c, 5, 45, 96
1, 15360, Note_on_c, 6, 33, 96
1, 15360, Note_on_c, 7, 77, 96
1, 15360, Note_on_c, 7, 72, 96
1, 15360, Note_on_c, 7, 65, 96
1, 15360, Note_on_c, 8, 45, 96
1, 15381, Note_off_c, 3, 69, 0
1, 15381, Note_off_c, 4, 60, 0
1, 15381, Note_off_c, 5, 45, 0
1, 15381, Note_off_c, 6, 33, 0
1, 15381, Note_off_c, 8, 45, 0
1, 15384, Note_on_c, 3, 64, 96
1, 15384, Note_on_c, 4, 58, 96
1, 15384, Note_on_c, 5, 43, 96
1, 15384, Note_on_c, 6, 31, 96
1, 15384, Note_on_c, 8, 43, 96
1, 15402, Note_off_c, 2, 77, 0
1, 15402, Note_off_c, 7, 77, 0
1, 15402, Note_off_c, 7, 72, 0
1, 15402, Note_off_c, 7, 65, 0
1, 15405, Note_off_c, 3, 64, 0
1, 15405, Note_off_c, 4, 58, 0
1, 15405, Note_off_c, 5, 43, 0
1, 15405, Note_off_c, 6, 31, 0
1, 15405, Note_off_c, 8, 43, 0
1, 15408, Note_on_c, 2, 72, 96
1, 15408, Note_on_c, 3, 65, 96
1, 15408, Note_on_c, 4, 57, 96
1, 15408, Note_on_c, 5, 41, 96
1, 15408, Note_on_c, 6, 29, 96
1, 15408, Note_on_c, 7, 72, 96
1, 15408, Note_on_c, 8, 41, 96
1, 15429, Note_off_c, 3, 65, 0
1, 15429, Note_off_c, 4, 57, 0
1, 15429, Note_off_c, 5, 41, 0
1, 15429, Note_off_c, 6, 29, 0
1, 15429, Note_off_c, 8, 41, 0
1, 15432, Note_on_c, 3, 67, 96
1, 15432, Note_on_c, 4, 55, 96
1, 15432, Note_on_c, 5, 40, 96
1, 15432, Note_on_c, 6, 28, 96
1, 15432, Note_on_c, 8, 40, 96
1, 15444, Note_off_c, 0, 65, 0
1, 15444, Note_off_c, 1, 65, 0
1, 15450, Note_off_c, 2, 72, 0
1, 15450, Note_off_c, 7, 72, 0
1, 15453, Note_off_c, 3, 67, 0
1, 15453, Note_off_c, 4, 55, 0
1, 15453, Note_off_c, 5, 40, 0
1, 15453, Note_off_c, 6, 28, 0
1, 15453, Note_off_c, 8, 40, 0
1, 15456, Note_on_c, 0, 77, 96
1, 15456, Note_on_c, 1, 77, 96
1, 15456, Note_on_c, 2, 74, 96
1, 15456, Note_on_c, 3, 69, 96
1, 15456, Note_on_c, 4, 53, 96
1, 15456, Note_on_c, 5, 38, 96
1, 15456, Note_on_c, 6, 26, 96
1, 15456, Note_on_c, 7, 74, 96
1, 15456, Note_on_c, 8, 38, 96
1, 15477, Note_off_c, 4, 53, 0
1, 15477, Note_off_c, 5, 38, 0
1, 15477, Note_off_c, 6, 26, 0
1, 15477, Note_off_c, 8, 38, 0
1, 15480, Note_on_c, 4, 55, 96
1, 15480, Note_on_c, 5, 40, 96
1, 15480, Note_on_c, 6, 28, 96
1, 15480, Note_on_c, 8, 40, 96
1, 15498, Note_off_c, 2, 74, 0
1, 15498, Note_off_c, 3, 69, 0
1, 15498, Note_off_c, 7, 74, 0
1, 15501, Note_off_c, 4, 55, 0
1, 15501, Note_off_c, 5, 40, 0
1, 15501, Note_off_c, 6, 28, 0
1, 15501, Note_off_c, 8, 40, 0
1, 15504, Note_on_c, 2, 69, 96
1, 15504, Note_on_c, 3, 74, 96
1, 15504, Note_on_c, 4, 57, 96
1, 15504, Note_on_c, 5, 41, 96
1, 15504, Note_on_c, 6, 29, 96
1, 15504, Note_on_c, 7, 69, 96
1, 15504, Note_on_c, 7, 62, 96
1, 15504, Note_on_c, 8, 41, 96
1, 15525, Note_off_c, 3, 74, 0
1, 15525, Note_off_c, 4, 57, 0
1, 15525, Note_off_c, 5, 41, 0
1, 15525, Note_off_c, 6, 29, 0
1, 15525, Note_off_c, 8, 41, 0
1, 15528, Note_on_c, 3, 72, 96
1, 15528, Note_on_c, 4, 53, 96
1, 15528, Note_on_c, 5, 38, 96
1, 15528, Note_on_c, 6, 26, 96
1, 15528, Note_on_c, 8, 38, 96
1, 15546, Note_off_c, 2, 69, 0
1, 15546, Note_off_c, 7, 69, 0
1, 15549, Note_off_c, 3, 72, 0
1, 15549, Note_off_c, 4, 53, 0
1, 15549, Note_off_c, 5, 38, 0
1, 15549, Note_off_c, 6, 26, 0
1, 15549, Note_off_c, 8, 38, 0
1, 15552, Note_on_c, 2, 70, 96
1, 15552, Note_on_c, 3, 70, 96
1, 15552, Note_on_c, 4, 50, 96
1, 15552, Note_on_c, 5, 43, 96
1, 15552, Note_on_c, 6, 31, 96
1, 15552, Note_on_c, 7, 70, 96
1, 15552, Note_on_c, 8, 43, 96
1, 15573, Note_off_c, 3, 70, 0
1, 15576, Note_on_c, 3, 72, 96
1, 15582, Note_off_c, 0, 77, 0
1, 15582, Note_off_c, 1, 77, 0
1, 15588, Note_off_c, 7, 62, 0
1, 15594, Note_off_c, 2, 70, 0
1, 15594, Note_off_c, 5, 43, 0
1, 15594, Note_off_c, 6, 31, 0
1, 15594, Note_off_c, 7, 70, 0
1, 15594, Note_off_c, 8, 43, 0
1, 15597, Note_off_c, 3, 72, 0
1, 15600, Note_on_c, 0, 79, 96
1, 15600, Note_on_c, 1, 79, 96
1, 15600, Note_on_c, 2, 67, 96
1, 15600, Note_on_c, 3, 70, 96
1, 15600, Note_on_c, 5, 48, 96
1, 15600, Note_on_c, 6, 36, 96
1, 15600, Note_on_c, 7, 67, 96
1, 15600, Note_on_c, 7, 64, 96
1, 15600, Note_on_c, 8, 48, 96
1, 15621, Note_off_c, 0, 79, 0
1, 15621, Note_off_c, 1, 79, 0
1, 15621, Note_off_c, 3, 70, 0
1, 15621, Note_off_c, 7, 64, 0
1, 15624, Note_on_c, 0, 77, 96
1, 15624, Note_on_c, 1, 77, 96
1, 15624, Note_on_c, 3, 69, 96
1, 15624, Note_on_c, 7, 62, 96
1, 15636, Note_off_c, 4, 50, 0
1, 15642, Note_off_c, 2, 67, 0
1, 15642, Note_off_c, 7, 67, 0
1, 15645, Note_off_c, 0, 77, 0
1, 15645, Note_off_c, 1, 77, 0
1, 15645, Note_off_c, 3, 69, 0
1, 15645, Note_off_c, 7, 62, 0
1, 15648, Note_on_c, 0, 76, 96
1, 15648, Note_on_c, 1, 76, 96
1, 15648, Note_on_c, 2, 72, 96
1, 15648, Note_on_c, 3, 67, 96
1, 15648, Note_on_c, 4, 55, 96
1, 15648, Note_on_c, 7, 72, 96
1, 15648, Note_on_c, 7, 64, 96
1, 15669, Note_off_c, 0, 76, 0
1, 15669, Note_off_c, 1, 76, 0
1, 15672, Note_on_c, 0, 77, 96
1, 15672, Note_on_c, 1, 77, 96
1, 15684, Note_off_c, 5, 48, 0
1, 15684, Note_off_c, 6, 36, 0
1, 15684, Note_off_c, 8, 48, 0
1, 15690, Note_off_c, 2, 72, 0
1, 15690, Note_off_c, 3, 67, 0
1, 15690, Note_off_c, 7, 72, 0
1, 15690, Note_off_c, 7, 64, 0
1, 15693, Note_off_c, 0, 77, 0
1, 15693, Note_off_c, 1, 77, 0
1, 15696, Note_on_c, 0, 74, 96
1, 15696, Note_on_c, 1, 74, 96
1, 15696, Note_on_c, 2, 67, 96
1, 15696, Note_on_c, 3, 72, 96
1, 15696, Note_on_c, 5, 46, 96
1, 15696, Note_on_c, 6, 34, 96
1, 15696, Note_on_c, 7, 67, 96
1, 15696, Note_on_c, 7, 64, 96
1, 15696, Note_on_c, 8, 46, 96
1, 15717, Note_off_c, 0, 74, 0
1, 15717, Note_off_c, 1, 74, 0
1, 15720, Note_on_c, 0, 76, 96
1, 15720, Note_on_c, 1, 76, 96
1, 15732, Note_off_c, 4, 55, 0
1, 15738, Note_off_c, 2, 67, 0
1, 15738, Note_off_c, 5, 46, 0
1, 15738, Note_off_c, 6, 34, 0
1, 15738, Note_off_c, 7, 67, 0
1, 15738, Note_off_c, 7, 64, 0
1, 15738, Note_off_c, 8, 46, 0
1, 15741, Note_off_c, 0, 76, 0
1, 15741, Note_off_c, 1, 76, 0
1, 15744, Note_on_c, 0, 77, 96
1, 15744, Note_on_c, 1, 77, 96
1, 15744, Note_on_c, 2, 69, 96
1, 15744, Note_on_c, 4, 53, 96
1, 15744, Note_on_c, 5, 45, 96
1, 15744, Note_on_c, 6, 33, 96
1, 15744, Note_on_c, 7, 69, 96
1, 15744, Note_on_c, 7, 65, 96
1, 15744, Note_on_c, 7, 60, 96
1, 15744, Note_on_c, 8, 45, 96
1, 15759, Note_off_c, 3, 72, 0
1, 15765, Note_off_c, 0, 77, 0
1, 15765, Note_off_c, 1, 77, 0
1, 15768, Note_on_c, 0, 72, 96
1, 15768, Note_on_c, 1, 72, 96
1, 15768, Note_on_c, 3, 70, 96
1, 15786, Note_off_c, 2, 69, 0
1, 15786, Note_off_c, 4, 53, 0
1, 15786, Note_off_c, 7, 69, 0
1, 15786, Note_off_c, 7, 65, 0
1, 15786, Note_off_c, 7, 60, 0
1, 15789, Note_off_c, 0, 72, 0
1, 15789, Note_off_c, 1, 72, 0
1, 15789, Note_off_c, 3, 70, 0
1, 15792, Note_on_c, 0, 74, 96
1, 15792, Note_on_c, 1, 74, 96
1, 15792, Note_on_c, 2, 81, 96
1, 15792, Note_on_c, 3, 69, 96
1, 15792, Note_on_c, 4, 65, 96
1, 15792, Note_on_c, 7, 81, 96
1, 15813, Note_off_c, 0, 74, 0
1, 15813, Note_off_c, 1, 74, 0
1, 15813, Note_off_c, 3, 69, 0
1, 15813, Note_off_c, 4, 65, 0
1, 15816, Note_on_c, 0, 76, 96
1, 15816, Note_on_c, 1, 76, 96
1, 15816, Note_on_c, 3, 67, 96
1, 15816, Note_on_c, 4, 64, 96
1, 15828, Note_off_c, 5, 45, 0
1, 15828, Note_off_c, 6, 33, 0
1, 15828, Note_off_c, 8, 45, 0
1, 15834, Note_off_c, 2, 81, 0
1, 15834, Note_off_c, 7, 81, 0
1, 15837, Note_off_c, 0, 76, 0
1, 15837, Note_off_c, 1, 76, 0
1, 15837, Note_off_c, 3, 67, 0
1, 15837, Note_off_c, 4, 64, 0
1, 15840, Note_on_c, 0, 77, 96
1, 15840, Note_on_c, 1, 77, 96
1, 15840, Note_on_c, 2, 82, 96
1, 15840, Note_on_c, 3, 65, 96
1, 15840, Note_on_c, 4, 62, 96
1, 15840, Note_on_c, 5, 50, 96
1, 15840, Note_on_c, 6, 38, 96
1, 15840, Note_on_c, 7, 82, 96
1, 15840, Note_on_c, 7, 58, 96
1, 15840, Note_on_c, 8, 50, 96
1, 15840, Note_on_c, 8, 53, 96
1, 15861, Note_off_c, 0, 77, 0
1, 15861, Note_off_c, 1, 77, 0
1, 15861, Note_off_c, 3, 65, 0
1, 15861, Note_off_c, 4, 62, 0
1, 15864, Note_on_c, 0, 79, 96
1, 15864, Note_on_c, 1, 79, 96
1, 15864, Note_on_c, 3, 64, 96
1, 15864, Note_on_c, 4, 60, 96
1, 15882, Note_off_c, 2, 82, 0
1, 15882, Note_off_c, 7, 82, 0
1, 15885, Note_off_c, 0, 79, 0
1, 15885, Note_off_c, 1, 79, 0
1, 15885, Note_off_c, 3, 64, 0
1, 15885, Note_off_c, 4, 60, 0
1, 15888, Note_on_c, 0, 81, 96
1, 15888, Note_on_c, 1, 81, 96
1, 15888, Note_on_c, 2, 77, 96
1, 15888, Note_on_c, 3, 62, 96
1, 15888, Note_on_c, 4, 58, 96
1, 15888, Note_on_c, 7, 77, 96
1, 15909, Note_off_c, 0, 81, 0
1, 15909, Note_off_c, 1, 81, 0
1, 15909, Note_off_c, 3, 62, 0
1, 15909, Note_off_c, 4, 58, 0
1, 15912, Note_on_c, 0, 77, 96
1, 15912, Note_on_c, 1, 77, 96
1, 15912, Note_on_c, 3, 65, 96
1, 15912, Note_on_c, 4, 57, 96
1, 15924, Note_off_c, 8, 53, 0
1, 15930, Note_off_c, 2, 77, 0
1, 15930, Note_off_c, 7, 77, 0
1, 15933, Note_off_c, 0, 77, 0
1, 15933, Note_off_c, 1, 77, 0
1, 15933, Note_off_c, 3, 65, 0
1, 15933, Note_off_c, 4, 57, 0
1, 15936, Note_on_c, 0, 82, 96
1, 15936, Note_on_c, 1, 82, 96
1, 15936, Note_on_c, 2, 79, 96
1, 15936, Note_on_c, 3, 64, 96
1, 15936, Note_on_c, 4, 55, 96
1, 15936, Note_on_c, 7, 79, 96
1, 15936, Note_on_c, 8, 52, 96
1, 15957, Note_off_c, 0, 82, 0
1, 15957, Note_off_c, 1, 82, 0
1, 15960, Note_on_c, 0, 81, 96
1, 15960, Note_on_c, 1, 81, 96
1, 15978, Note_off_c, 2, 79, 0
1, 15978, Note_off_c, 3, 64, 0
1, 15978, Note_off_c, 4, 55, 0
1, 15978, Note_off_c, 7, 79, 0
1, 15981, Note_off_c, 0, 81, 0
1, 15981, Note_off_c, 1, 81, 0
1, 15984, Note_on_c, 0, 79, 96
1, 15984, Note_on_c, 1, 79, 96
1, 15984, Note_on_c, 2, 76, 96
1, 15984, Note_on_c, 3, 67, 96
1, 15984, Note_on_c, 4, 58, 96
1, 15984, Note_on_c, 7, 76, 96
1, 16005, Note_off_c, 0, 79, 0
1, 16005, Note_off_c, 1, 79, 0
1, 16008, Note_on_c, 0, 77, 96
1, 16008, Note_on_c, 1, 77, 96
1, 16008, Note_off_c, 5, 50, 0
1, 16008, Note_off_c, 6, 38, 0
1, 16008, Note_off_c, 7, 58, 0
1, 16008, Note_off_c, 8, 50, 0
1, 16026, Note_off_c, 2, 76, 0
1, 16026, Note_off_c, 3, 67, 0
1, 16026, Note_off_c, 4, 58, 0
1, 16026, Note_off_c, 7, 76, 0
1, 16029, Note_off_c, 0, 77, 0
1, 16029, Note_off_c, 1, 77, 0
1, 16032, Note_on_c, 0, 76, 96
1, 16032, Note_on_c, 1, 76, 96
1, 16032, Note_on_c, 2, 81, 96
1, 16032, Note_on_c, 3, 69, 96
1, 16032, Note_on_c, 4, 60, 96
1, 16032, Note_on_c, 5, 48, 96
1, 16032, Note_on_c, 6, 36, 96
1, 16032, Note_on_c, 7, 81, 96
1, 16032, Note_on_c, 7, 57, 96
1, 16032, Note_on_c, 8, 48, 96
1, 16053, Note_off_c, 0, 76, 0
1, 16053, Note_off_c, 1, 76, 0
1, 16056, Note_on_c, 0, 81, 96
1, 16056, Note_on_c, 1, 81, 96
1, 16074, Note_off_c, 2, 81, 0
1, 16074, Note_off_c, 3, 69, 0
1, 16074, Note_off_c, 4, 60, 0
1, 16074, Note_off_c, 7, 81, 0
1, 16077, Note_off_c, 0, 81, 0
1, 16077, Note_off_c, 1, 81, 0
1, 16080, Note_on_c, 0, 79, 96
1, 16080, Note_on_c, 1, 79, 96
1, 16080, Note_on_c, 2, 76, 96
1, 16080, Note_on_c, 3, 72, 96
1, 16080, Note_on_c, 4, 64, 96
1, 16080, Note_on_c, 7, 76, 96
1, 16101, Note_off_c, 0, 79, 0
1, 16101, Note_off_c, 1, 79, 0
1, 16104, Note_on_c, 0, 81, 96
1, 16104, Note_on_c, 1, 81, 96
1, 16104, Note_off_c, 8, 52, 0
1, 16122, Note_off_c, 2, 76, 0
1, 16122, Note_off_c, 3, 72, 0
1, 16122, Note_off_c, 4, 64, 0
1, 16122, Note_off_c, 7, 76, 0
1, 16125, Note_off_c, 0, 81, 0
1, 16125, Note_off_c, 1, 81, 0
1, 16128, Note_on_c, 0, 74, 96
1, 16128, Note_on_c, 1, 74, 96
1, 16128, Note_on_c, 2, 77, 96
1, 16128, Note_on_c, 3, 74, 96
1, 16128, Note_on_c, 4, 69, 96
1, 16128, Note_on_c, 7, 77, 96
1, 16128, Note_on_c, 8, 50, 96
1, 16149, Note_off_c, 0, 74, 0
1, 16149, Note_off_c, 1, 74, 0
1, 16152, Note_on_c, 0, 77, 96
1, 16152, Note_on_c, 1, 77, 96
1, 16170, Note_off_c, 2, 77, 0
1, 16170, Note_off_c, 4, 69, 0
1, 16170, Note_off_c, 7, 77, 0
1, 16173, Note_off_c, 0, 77, 0
1, 16173, Note_off_c, 1, 77, 0
1, 16176, Note_on_c, 0, 79, 96
1, 16176, Note_on_c, 1, 79, 96
1, 16176, Note_on_c, 2, 74, 96
1, 16176, Note_on_c, 4, 65, 96
1, 16176, Note_on_c, 7, 74, 96
1, 16197, Note_off_c, 0, 79, 0
1, 16197, Note_off_c, 1, 79, 0
1, 16200, Note_on_c, 0, 81, 96
1, 16200, Note_on_c, 1, 81, 96
1, 16200, Note_off_c, 5, 48, 0
1, 16200, Note_off_c, 6, 36, 0
1, 16200, Note_off_c, 7, 57, 0
1, 16200, Note_off_c, 8, 48, 0
1, 16218, Note_off_c, 2, 74, 0
1, 16218, Note_off_c, 4, 65, 0
1, 16218, Note_off_c, 7, 74, 0
1, 16221, Note_off_c, 0, 81, 0
1, 16221, Note_off_c, 1, 81, 0
1, 16224, Note_on_c, 0, 79, 96
1, 16224, Note_on_c, 1, 79, 96
1, 16224, Note_on_c, 2, 79, 96
1, 16224, Note_on_c, 4, 62, 96
1, 16224, Note_on_c, 5, 46, 96
1, 16224, Note_on_c, 6, 34, 96
1, 16224, Note_on_c, 7, 79, 96
1, 16224, Note_on_c, 8, 55, 96
1, 16224, Note_on_c, 8, 46, 96
1, 16245, Note_off_c, 0, 79, 0
1, 16245, Note_off_c, 1, 79, 0
1, 16248, Note_on_c, 0, 77, 96
1, 16248, Note_on_c, 1, 77, 96
1, 16248, Note_on_c, 7, 77, 96
1, 16254, Note_off_c, 3, 74, 0
1, 16266, Note_off_c, 4, 62, 0
1, 16269, Note_off_c, 0, 77, 0
1, 16269, Note_off_c, 1, 77, 0
1, 16269, Note_off_c, 7, 77, 0
1, 16272, Note_on_c, 0, 76, 96
1, 16272, Note_on_c, 1, 76, 96
1, 16272, Note_on_c, 3, 73, 96
1, 16272, Note_on_c, 4, 70, 96
1, 16272, Note_on_c, 7, 76, 96
1, 16293, Note_off_c, 0, 76, 0
1, 16293, Note_off_c, 1, 76, 0
1, 16293, Note_off_c, 3, 73, 0
1, 16293, Note_off_c, 7, 76, 0
1, 16296, Note_on_c, 0, 74, 96
1, 16296, Note_on_c, 1, 74, 96
1, 16296, Note_on_c, 3, 74, 96
1, 16296, Note_on_c, 7, 74, 96
1, 16296, Note_off_c, 8, 50, 0
1, 16308, Note_off_c, 5, 46, 0
1, 16308, Note_off_c, 6, 34, 0
1, 16308, Note_off_c, 8, 55, 0
1, 16308, Note_off_c, 8, 46, 0
1, 16314, Note_off_c, 4, 70, 0
1, 16317, Note_off_c, 0, 74, 0
1, 16317, Note_off_c, 1, 74, 0
1, 16317, Note_off_c, 3, 74, 0
1, 16317, Note_off_c, 7, 74, 0
1, 16320, Note_on_c, 0, 73, 96
1, 16320, Note_on_c, 1, 73, 96
1, 16320, Note_on_c, 3, 76, 96
1, 16320, Note_on_c, 4, 64, 96
1, 16320, Note_on_c, 5, 45, 96
1, 16320, Note_on_c, 6, 33, 96
1, 16320, Note_on_c, 7, 73, 96
1, 16320, Note_on_c, 8, 45, 96
1, 16320, Note_on_c, 8, 57, 96
1, 16341, Note_off_c, 3, 76, 0
1, 16344, Note_on_c, 3, 73, 96
1, 16350, Note_off_c, 2, 79, 0
1, 16350, Note_off_c, 7, 79, 0
1, 16362, Note_off_c, 0, 73, 0
1, 16362, Note_off_c, 1, 73, 0
1, 16362, Note_off_c, 4, 64, 0
1, 16362, Note_off_c, 5, 45, 0
1, 16362, Note_off_c, 6, 33, 0
1, 16362, Note_off_c, 7, 73, 0
1, 16362, Note_off_c, 8, 45, 0
1, 16365, Note_off_c, 3, 73, 0
1, 16368, Note_on_c, 0, 74, 96
1, 16368, Note_on_c, 1, 74, 96
1, 16368, Note_on_c, 2, 77, 96
1, 16368, Note_on_c, 3, 69, 96
1, 16368, Note_on_c, 4, 62, 96
1, 16368, Note_on_c, 5, 50, 96
1, 16368, Note_on_c, 6, 38, 96
1, 16368, Note_on_c, 7, 77, 96
1, 16368, Note_on_c, 7, 74, 96
1, 16368, Note_on_c, 8, 50, 96
1, 16389, Note_off_c, 0, 74, 0
1, 16389, Note_off_c, 1, 74, 0
1, 16389, Note_off_c, 2, 77, 0
1, 16389, Note_off_c, 7, 77, 0
1, 16389, Note_off_c, 7, 74, 0
1, 16392, Note_on_c, 0, 76, 96
1, 16392, Note_on_c, 1, 76, 96
1, 16392, Note_on_c, 2, 79, 96
1, 16392, Note_on_c, 7, 79, 96
1, 16392, Note_on_c, 7, 76, 96
1, 16404, Note_off_c, 8, 57, 0
1, 16410, Note_off_c, 4, 62, 0
1, 16410, Note_off_c, 5, 50, 0
1, 16410, Note_off_c, 6, 38, 0
1, 16410, Note_off_c, 8, 50, 0
1, 16413, Note_off_c, 0, 76, 0
1, 16413, Note_off_c, 1, 76, 0
1, 16413, Note_off_c, 2, 79, 0
1, 16413, Note_off_c, 7, 79, 0
1, 16413, Note_off_c, 7, 76, 0
1, 16416, Note_on_c, 0, 73, 96
1, 16416, Note_on_c, 1, 73, 96
1, 16416, Note_on_c, 2, 76, 96
1, 16416, Note_on_c, 4, 64, 96
1, 16416, Note_on_c, 5, 57, 96
1, 16416, Note_on_c, 6, 45, 96
1, 16416, Note_on_c, 7, 77, 96
1, 16416, Note_on_c, 7, 73, 96
1, 16416, Note_on_c, 8, 57, 96
1, 16428, Note_off_c, 7, 77, 0
1, 16428, Note_on_c, 7, 76, 96
1, 16440, Note_off_c, 7, 76, 0
1, 16440, Note_on_c, 7, 77, 96
1, 16452, Note_off_c, 3, 69, 0
1, 16452, Note_off_c, 7, 77, 0
1, 16452, Note_on_c, 7, 76, 96
1, 16458, Note_off_c, 4, 64, 0
1, 16458, Note_off_c, 5, 57, 0
1, 16458, Note_off_c, 6, 45, 0
1, 16464, Note_on_c, 3, 64, 96
1, 16464, Note_on_c, 4, 69, 96
1, 16464, Note_on_c, 5, 45, 96
1, 16464, Note_on_c, 6, 33, 96
1, 16464, Note_off_c, 7, 76, 0
1, 16464, Note_on_c, 7, 77, 96
1, 16464, Note_on_c, 8, 45, 96
1, 16476, Note_off_c, 7, 77, 0
1, 16476, Note_on_c, 7, 76, 96
1, 16479, Note_off_c, 0, 73, 0
1, 16479, Note_off_c, 1, 73, 0
1, 16479, Note_off_c, 2, 76, 0
1, 16486, Note_off_c, 7, 76, 0
1, 16488, Note_on_c, 0, 74, 96
1, 16488, Note_on_c, 1, 74, 96
1, 16488, Note_on_c, 2, 74, 96
1, 16488, Note_on_c, 7, 74, 96
1, 16500, Note_off_c, 7, 73, 0
1, 16500, Note_off_c, 8, 57, 0
1, 16506, Note_off_c, 3, 64, 0
1, 16506, Note_off_c, 4, 69, 0
1, 16506, Note_off_c, 5, 45, 0
1, 16506, Note_off_c, 6, 33, 0
1, 16506, Note_off_c, 8, 45, 0
1, 16509, Note_off_c, 0, 74, 0
1, 16509, Note_off_c, 1, 74, 0
1, 16509, Note_off_c, 2, 74, 0
1, 16509, Note_off_c, 7, 74, 0
1, 16512, Note_on_c, 0, 74, 96
1, 16512, Note_on_c, 1, 74, 96
1, 16512, Note_on_c, 2, 74, 96
1, 16512, Note_on_c, 3, 65, 96
1, 16512, Note_on_c, 4, 69, 96
1, 16512, Note_on_c, 5, 38, 96
1, 16512, Note_on_c, 6, 26, 96
1, 16512, Note_on_c, 7, 74, 96
1, 16512, Note_on_c, 8, 38, 96
1, 16512, Note_on_c, 8, 50, 96
1, 16533, Note_off_c, 7, 74, 0
1, 16536, Note_on_c, 7, 69, 96
1, 16557, Note_off_c, 7, 69, 0
1, 16560, Note_on_c, 7, 74, 96
1, 16581, Note_off_c, 7, 74, 0
1, 16584, Note_on_c, 7, 77, 96
1, 16596, Note_off_c, 0, 74, 0
1, 16596, Note_off_c, 1, 74, 0
1, 16596, Note_off_c, 2, 74, 0
1, 16596, Note_off_c, 3, 65, 0
1, 16596, Note_off_c, 4, 69, 0
1, 16596, Note_off_c, 5, 38, 0
1, 16596, Note_off_c, 6, 26, 0
1, 16596, Note_off_c, 8, 38, 0
1, 16596, Note_off_c, 8, 50, 0
1, 16605, Note_off_c, 7, 77, 0
1, 16608, Note_on_c, 7, 81, 96
1, 16629, Note_off_c, 7, 81, 0
1, 16632, Note_on_c, 7, 77, 96
1, 16653, Note_off_c, 7, 77, 0
1, 16656, Note_on_c, 7, 76, 96
1, 16677, Note_off_c, 7, 76, 0
1, 16680, Note_on_c, 7, 74, 96
1, 16701, Note_off_c, 7, 74, 0
1, 16704, Note_on_c, 7, 73, 96
1, 16704, Note_on_c, 8, 57, 96
1, 16725, Note_off_c, 7, 73, 0
1, 16728, Note_on_c, 7, 76, 96
1, 16749, Note_off_c, 7, 76, 0
1, 16752, Note_on_c, 7, 73, 96
1, 16773, Note_off_c, 7, 73, 0
1, 16776, Note_on_c, 7, 69, 96
1, 16788, Note_off_c, 8, 57, 0
1, 16797, Note_off_c, 7, 69, 0
1, 16800, Note_on_c, 7, 64, 96
1, 16800, Note_on_c, 8, 45, 96
1, 16821, Note_off_c, 7, 64, 0
1, 16824, Note_on_c, 7, 67, 96
1, 16845, Note_off_c, 7, 67, 0
1, 16848, Note_on_c, 7, 65, 96
1, 16869, Note_off_c, 7, 65, 0
1, 16872, Note_on_c, 7, 64, 96
1, 16884, Note_off_c, 8, 45, 0
1, 16893, Note_off_c, 7, 64, 0
1, 16896, Note_on_c, 7, 65, 96
1, 16896, Note_on_c, 8, 50, 96
1, 16917, Note_off_c, 7, 65, 0
1, 16920, Note_on_c, 7, 69, 96
1, 16941, Note_off_c, 7, 69, 0
1, 16944, Note_on_c, 7, 74, 96
1, 16965, Note_off_c, 7, 74, 0
1, 16968, Note_on_c, 7, 77, 96
1, 16980, Note_off_c, 8, 50, 0
1, 16989, Note_off_c, 7, 77, 0
1, 16992, Note_on_c, 7, 81, 96
1, 17013, Note_off_c, 7, 81, 0
1, 17016, Note_on_c, 7, 77, 96
1, 17037, Note_off_c, 7, 77, 0
1, 17040, Note_on_c, 7, 76, 96
1, 17061, Note_off_c, 7, 76, 0
1, 17064, Note_on_c, 7, 74, 96
1, 17085, Note_off_c, 7, 74, 0
1, 17088, Note_on_c, 7, 73, 96
1, 17088, Note_on_c, 8, 57, 96
1, 17109, Note_off_c, 7, 73, 0
1, 17112, Note_on_c, 7, 76, 96
1, 17133, Note_off_c, 7, 76, 0
1, 17136, Note_on_c, 7, 73, 96
1, 17157, Note_off_c, 7, 73, 0
1, 17160, Note_on_c, 7, 69, 96
1, 17172, Note_off_c, 8, 57, 0
1, 17181, Note_off_c, 7, 69, 0
1, 17184, Note_on_c, 7, 64, 96
1, 17184, Note_on_c, 8, 45, 96
1, 17205, Note_off_c, 7, 64, 0
1, 17208, Note_on_c, 7, 67, 96
1, 17229, Note_off_c, 7, 67, 0
1, 17232, Note_on_c, 7, 65, 96
1, 17253, Note_off_c, 7, 65, 0
1, 17256, Note_on_c, 7, 64, 96
1, 17268, Note_off_c, 8, 45, 0
1, 17277, Note_off_c, 7, 64, 0
1, 17280, Note_on_c, 7, 65, 96
1, 17280, Note_on_c, 8, 50, 96
1, 17301, Note_off_c, 7, 65, 0
1, 17304, Note_on_c, 7, 62, 96
1, 17325, Note_off_c, 7, 62, 0
1, 17328, Note_on_c, 7, 65, 96
1, 17349, Note_off_c, 7, 65, 0
1, 17352, Note_on_c, 7, 69, 96
1, 17364, Note_off_c, 8, 50, 0
1, 17373, Note_off_c, 7, 69, 0
1, 17376, Note_on_c, 7, 74, 96
1, 17397, Note_off_c, 7, 74, 0
1, 17400, Note_on_c, 7, 77, 96
1, 17421, Note_off_c, 7, 77, 0
1, 17424, Note_on_c, 7, 81, 96
1, 17445, Note_off_c, 7, 81, 0
1, 17448, Note_on_c, 7, 72, 96
1, 17469, Note_off_c, 7, 72, 0
1, 17472, Note_on_c, 7, 71, 96
1, 17472, Note_on_c, 8, 55, 96
1, 17493, Note_off_c, 7, 71, 0
1, 17496, Note_on_c, 7, 74, 96
1, 17517, Note_off_c, 7, 74, 0
1, 17520, Note_on_c, 7, 71, 96
1, 17541, Note_off_c, 7, 71, 0
1, 17544, Note_on_c, 7, 67, 96
1, 17556, Note_off_c, 8, 55, 0
1, 17565, Note_off_c, 7, 67, 0
1, 17568, Note_on_c, 7, 62, 96
1, 17568, Note_on_c, 8, 43, 96
1, 17589, Note_off_c, 7, 62, 0
1, 17592, Note_on_c, 7, 65, 96
1, 17613, Note_off_c, 7, 65, 0
1, 17616, Note_on_c, 7, 64, 96
1, 17637, Note_off_c, 7, 64, 0
1, 17640, Note_on_c, 7, 62, 96
1, 17652, Note_off_c, 8, 43, 0
1, 17661, Note_off_c, 7, 62, 0
1, 17664, Note_on_c, 7, 64, 96
1, 17664, Note_on_c, 8, 48, 96
1, 17685, Note_off_c, 7, 64, 0
1, 17688, Note_on_c, 7, 60, 96
1, 17709, Note_off_c, 7, 60, 0
1, 17712, Note_on_c, 7, 64, 96
1, 17733, Note_off_c, 7, 64, 0
1, 17736, Note_on_c, 7, 67, 96
1, 17748, Note_off_c, 8, 48, 0
1, 17757, Note_off_c, 7, 67, 0
1, 17760, Note_on_c, 7, 72, 96
1, 17781, Note_off_c, 7, 72, 0
1, 17784, Note_on_c, 7, 76, 96
1, 17805, Note_off_c, 7, 76, 0
1, 17808, Note_on_c, 7, 79, 96
1, 17829, Note_off_c, 7, 79, 0
1, 17832, Note_on_c, 7, 72, 96
1, 17853, Note_off_c, 7, 72, 0
1, 17856, Note_on_c, 7, 71, 96
1, 17856, Note_on_c, 8, 55, 96
1, 17877, Note_off_c, 7, 71, 0
1, 17880, Note_on_c, 7, 74, 96
1, 17901, Note_off_c, 7, 74, 0
1, 17904, Note_on_c, 7, 71, 96
1, 17925, Note_off_c, 7, 71, 0
1, 17928, Note_on_c, 7, 67, 96
1, 17940, Note_off_c, 8, 55, 0
1, 17949, Note_off_c, 7, 67, 0
1, 17952, Note_on_c, 7, 62, 96
1, 17952, Note_on_c, 8, 43, 96
1, 17973, Note_off_c, 7, 62, 0
1, 17976, Note_on_c, 7, 65, 96
1, 17997, Note_off_c, 7, 65, 0
1, 18000, Note_on_c, 7, 64, 96
1, 18021, Note_off_c, 7, 64, 0
1, 18024, Note_on_c, 7, 62, 96
1, 18036, Note_off_c, 8, 43, 0
1, 18045, Note_off_c, 7, 62, 0
1, 18048, Note_on_c, 5, 48, 96
1, 18048, Note_on_c, 6, 36, 96
1, 18048, Note_on_c, 7, 64, 96
1, 18048, Note_on_c, 8, 48, 96
1, 18069, Note_off_c, 7, 64, 0
1, 18072, Note_on_c, 7, 67, 96
1, 18093, Note_off_c, 7, 67, 0
1, 18096, Note_on_c, 2, 76, 96
1, 18096, Note_on_c, 3, 70, 96
1, 18096, Note_on_c, 4, 67, 96
1, 18096, Note_on_c, 7, 64, 96
1, 18117, Note_off_c, 7, 64, 0
1, 18120, Note_on_c, 7, 60, 96
1, 18132, Note_off_c, 5, 48, 0
1, 18132, Note_off_c, 6, 36, 0
1, 18132, Note_off_c, 8, 48, 0
1, 18141, Note_off_c, 7, 60, 0
1, 18144, Note_off_c, 2, 76, 0
1, 18144, Note_on_c, 2, 76, 96
1, 18144, Note_off_c, 3, 70, 0
1, 18144, Note_on_c, 3, 70, 96
1, 18144, Note_off_c, 4, 67, 0
1, 18144, Note_on_c, 4, 67, 96
1, 18144, Note_on_c, 7, 67, 96
1, 18154, Note_off_c, 7, 67, 0
1, 18156, Note_on_c, 7, 65, 96
1, 18166, Note_off_c, 7, 65, 0
1, 18168, Note_on_c, 7, 64, 96
1, 18178, Note_off_c, 7, 64, 0
1, 18180, Note_on_c, 7, 62, 96
1, 18190, Note_off_c, 7, 62, 0
1, 18192, Note_off_c, 2, 76, 0
1, 18192, Note_on_c, 2, 76, 96
1, 18192, Note_off_c, 3, 70, 0
1, 18192, Note_on_c, 3, 70, 96
1, 18192, Note_off_c, 4, 67, 0
1, 18192, Note_on_c, 4, 67, 96
1, 18192, Note_on_c, 7, 60, 96
1, 18213, Note_off_c, 7, 60, 0
1, 18216, Note_on_c, 7, 67, 96
1, 18234, Note_off_c, 2, 76, 0
1, 18234, Note_off_c, 3, 70, 0
1, 18234, Note_off_c, 4, 67, 0
1, 18237, Note_off_c, 7, 67, 0
1, 18240, Note_on_c, 5, 48, 96
1, 18240, Note_on_c, 6, 36, 96
1, 18240, Note_on_c, 7, 58, 96
1, 18240, Note_on_c, 8, 48, 96
1, 18261, Note_off_c, 7, 58, 0
1, 18264, Note_on_c, 7, 67, 96
1, 18285, Note_off_c, 7, 67, 0
1, 18288, Note_on_c, 2, 76, 96
1, 18288, Note_on_c, 3, 70, 96
1, 18288, Note_on_c, 4, 67, 96
1, 18288, Note_on_c, 7, 64, 96
1, 18309, Note_off_c, 7, 64, 0
1, 18312, Note_on_c, 7, 58, 96
1, 18324, Note_off_c, 5, 48, 0
1, 18324, Note_off_c, 6, 36, 0
1, 18324, Note_off_c, 8, 48, 0
1, 18333, Note_off_c, 7, 58, 0
1, 18336, Note_off_c, 2, 76, 0
1, 18336, Note_on_c, 2, 76, 96
1, 18336, Note_off_c, 3, 70, 0
1, 18336, Note_on_c, 3, 70, 96
1, 18336, Note_off_c, 4, 67, 0
1, 18336, Note_on_c, 4, 67, 96
1, 18336, Note_on_c, 5, 36, 96
1, 18336, Note_on_c, 6, 24, 96
1, 18336, Note_on_c, 7, 67, 96
1, 18336, Note_on_c, 8, 36, 96
1, 18346, Note_off_c, 7, 67, 0
1, 18348, Note_on_c, 7, 65, 96
1, 18358, Note_off_c, 7, 65, 0
1, 18360, Note_on_c, 7, 64, 96
1, 18370, Note_off_c, 7, 64, 0
1, 18372, Note_on_c, 7, 62, 96
1, 18382, Note_off_c, 7, 62, 0
1, 18384, Note_off_c, 2, 76, 0
1, 18384, Note_on_c, 2, 76, 96
1, 18384, Note_off_c, 3, 70, 0
1, 18384, Note_on_c, 3, 70, 96
1, 18384, Note_off_c, 4, 67, 0
1, 18384, Note_on_c, 4, 67, 96
1, 18384, Note_on_c, 7, 60, 96
1, 18394, Note_off_c, 7, 60, 0
1, 18396, Note_on_c, 7, 58, 96
1, 18406, Note_off_c, 7, 58, 0
1, 18408, Note_on_c, 7, 57, 96
1, 18418, Note_off_c, 7, 57, 0
1, 18420, Note_off_c, 5, 36, 0
1, 18420, Note_off_c, 6, 24, 0
1, 18420, Note_on_c, 7, 55, 96
1, 18420, Note_off_c, 8, 36, 0
1, 18426, Note_off_c, 2, 76, 0
1, 18426, Note_off_c, 3, 70, 0
1, 18426, Note_off_c, 4, 67, 0
1, 18430, Note_off_c, 7, 55, 0
1, 18432, Note_on_c, 2, 77, 96
1, 18432, Note_on_c, 3, 69, 96
1, 18432, Note_on_c, 4, 65, 96
1, 18432, Note_on_c, 5, 41, 96
1, 18432, Note_on_c, 6, 29, 96
1, 18432, Note_on_c, 7, 57, 96
1, 18432, Note_on_c, 8, 41, 96
1, 18453, Note_off_c, 7, 57, 0
1, 18456, Note_on_c, 7, 72, 96
1, 18474, Note_off_c, 2, 77, 0
1, 18474, Note_off_c, 3, 69, 0
1, 18474, Note_off_c, 4, 65, 0
1, 18477, Note_off_c, 7, 72, 0
1, 18480, Note_on_c, 0, 81, 96
1, 18480, Note_on_c, 1, 75, 96
1, 18480, Note_on_c, 7, 69, 96
1, 18501, Note_off_c, 7, 69, 0
1, 18504, Note_on_c, 7, 65, 96
1, 18516, Note_off_c, 5, 41, 0
1, 18516, Note_off_c, 6, 29, 0
1, 18516, Note_off_c, 8, 41, 0
1, 18525, Note_off_c, 7, 65, 0
1, 18528, Note_off_c, 0, 81, 0
1, 18528, Note_on_c, 0, 81, 96
1, 18528, Note_off_c, 1, 75, 0
1, 18528, Note_on_c, 1, 75, 96
1, 18528, Note_on_c, 7, 72, 96
1, 18538, Note_off_c, 7, 72, 0
1, 18540, Note_on_c, 7, 70, 96
1, 18550, Note_off_c, 7, 70, 0
1, 18552, Note_on_c, 7, 69, 96
1, 18562, Note_off_c, 7, 69, 0
1, 18564, Note_on_c, 7, 67, 96
1, 18574, Note_off_c, 7, 67, 0
1, 18576, Note_off_c, 0, 81, 0
1, 18576, Note_on_c, 0, 81, 96
1, 18576, Note_off_c, 1, 75, 0
1, 18576, Note_on_c, 1, 75, 96
1, 18576, Note_on_c, 7, 65, 96
1, 18597, Note_off_c, 7, 65, 0
1, 18600, Note_on_c, 7, 72, 96
1, 18618, Note_off_c, 0, 81, 0
1, 18618, Note_off_c, 1, 75, 0
1, 18621, Note_off_c, 7, 72, 0
1, 18624, Note_on_c, 7, 63, 96
1, 18624, Note_on_c, 8, 53, 96
1, 18645, Note_off_c, 7, 63, 0
1, 18648, Note_on_c, 7, 72, 96
1, 18669, Note_off_c, 7, 72, 0
1, 18672, Note_on_c, 0, 81, 96
1, 18672, Note_on_c, 1, 75, 96
1, 18672, Note_on_c, 7, 69, 96
1, 18693, Note_off_c, 7, 69, 0
1, 18696, Note_on_c, 7, 63, 96
1, 18708, Note_off_c, 8, 53, 0
1, 18717, Note_off_c, 7, 63, 0
1, 18720, Note_off_c, 0, 81, 0
1, 18720, Note_on_c, 0, 81, 96
1, 18720, Note_off_c, 1, 75, 0
1, 18720, Note_on_c, 1, 75, 96
1, 18720, Note_on_c, 7, 72, 96
1, 18720, Note_on_c, 8, 41, 96
1, 18730, Note_off_c, 7, 72, 0
1, 18732, Note_on_c, 7, 70, 96
1, 18742, Note_off_c, 7, 70, 0
1, 18744, Note_on_c, 7, 69, 96
1, 18754, Note_off_c, 7, 69, 0
1, 18756, Note_on_c, 7, 67, 96
1, 18766, Note_off_c, 7, 67, 0
1, 18768, Note_off_c, 0, 81, 0
1, 18768, Note_on_c, 0, 81, 96
1, 18768, Note_off_c, 1, 75, 0
1, 18768, Note_on_c, 1, 75, 96
1, 18768, Note_on_c, 7, 65, 96
1, 18778, Note_off_c, 7, 65, 0
1, 18780, Note_on_c, 7, 63, 96
1, 18790, Note_off_c, 7, 63, 0
1, 18792, Note_on_c, 7, 62, 96
1, 18802, Note_off_c, 7, 62, 0
1, 18804, Note_on_c, 7, 60, 96
1, 18804, Note_off_c, 8, 41, 0
1, 18810, Note_off_c, 0, 81, 0
1, 18810, Note_off_c, 1, 75, 0
1, 18814, Note_off_c, 7, 60, 0
1, 18816, Note_on_c, 0, 81, 96
1, 18816, Note_on_c, 1, 74, 96
1, 18816, Note_on_c, 5, 42, 96
1, 18816, Note_on_c, 6, 30, 96
1, 18816, Note_on_c, 7, 62, 96
1, 18816, Note_on_c, 8, 42, 96
1, 18837, Note_off_c, 7, 62, 0
1, 18840, Note_on_c, 7, 69, 96
1, 18861, Note_off_c, 7, 69, 0
1, 18864, Note_on_c, 2, 72, 96
1, 18864, Note_on_c, 3, 69, 96
1, 18864, Note_on_c, 4, 62, 96
1, 18864, Note_on_c, 7, 66, 96
1, 18885, Note_off_c, 7, 66, 0
1, 18888, Note_on_c, 7, 62, 96
1, 18900, Note_off_c, 0, 81, 0
1, 18900, Note_off_c, 1, 74, 0
1, 18900, Note_off_c, 5, 42, 0
1, 18900, Note_off_c, 6, 30, 0
1, 18900, Note_off_c, 8, 42, 0
1, 18909, Note_off_c, 7, 62, 0
1, 18912, Note_off_c, 2, 72, 0
1, 18912, Note_on_c, 2, 72, 96
1, 18912, Note_off_c, 3, 69, 0
1, 18912, Note_on_c, 3, 69, 96
1, 18912, Note_off_c, 4, 62, 0
1, 18912, Note_on_c, 4, 62, 96
1, 18912, Note_on_c, 7, 69, 96
1, 18922, Note_off_c, 7, 69, 0
1, 18924, Note_on_c, 7, 67, 96
1, 18934, Note_off_c, 7, 67, 0
1, 18936, Note_on_c, 7, 66, 96
1, 18946, Note_off_c, 7, 66, 0
1, 18948, Note_on_c, 7, 64, 96
1, 18958, Note_off_c, 7, 64, 0
1, 18960, Note_on_c, 0, 81, 96
1, 18960, Note_on_c, 1, 74, 96
1, 18960, Note_off_c, 2, 72, 0
1, 18960, Note_on_c, 2, 72, 96
1, 18960, Note_off_c, 3, 69, 0
1, 18960, Note_on_c, 3, 69, 96
1, 18960, Note_off_c, 4, 62, 0
1, 18960, Note_on_c, 4, 62, 96
1, 18960, Note_on_c, 7, 62, 96
1, 18981, Note_off_c, 7, 62, 0
1, 18984, Note_on_c, 7, 69, 96
1, 19002, Note_off_c, 2, 72, 0
1, 19002, Note_off_c, 3, 69, 0
1, 19002, Note_off_c, 4, 62, 0
1, 19005, Note_off_c, 7, 69, 0
1, 19008, Note_off_c, 0, 81, 0
1, 19008, Note_on_c, 0, 81, 96
1, 19008, Note_off_c, 1, 74, 0
1, 19008, Note_on_c, 1, 74, 96
1, 19008, Note_on_c, 5, 42, 96
1, 19008, Note_on_c, 6, 30, 96
1, 19008, Note_on_c, 7, 60, 96
1, 19008, Note_on_c, 8, 42, 96
1, 19029, Note_off_c, 7, 60, 0
1, 19032, Note_on_c, 7, 69, 96
1, 19053, Note_off_c, 7, 69, 0
1, 19056, Note_off_c, 0, 81, 0
1, 19056, Note_on_c, 0, 81, 96
1, 19056, Note_off_c, 1, 74, 0
1, 19056, Note_on_c, 1, 74, 96
1, 19056, Note_on_c, 2, 72, 96
1, 19056, Note_on_c, 3, 69, 96
1, 19056, Note_on_c, 4, 62, 96
1, 19056, Note_on_c, 7, 66, 96
1, 19077, Note_off_c, 7, 66, 0
1, 19080, Note_on_c, 7, 60, 96
1, 19092, Note_off_c, 5, 42, 0
1, 19092, Note_off_c, 6, 30, 0
1, 19092, Note_off_c, 8, 42, 0
1, 19098, Note_off_c, 0, 81, 0
1, 19098, Note_off_c, 1, 74, 0
1, 19101, Note_off_c, 7, 60, 0
1, 19104, Note_off_c, 2, 72, 0
1, 19104, Note_on_c, 2, 72, 96
1, 19104, Note_off_c, 3, 69, 0
1, 19104, Note_on_c, 3, 66, 96
1, 19104, Note_off_c, 4, 62, 0
1, 19104, Note_on_c, 4, 62, 96
1, 19104, Note_on_c, 5, 38, 96
1, 19104, Note_on_c, 6, 26, 96
1, 19104, Note_on_c, 7, 69, 96
1, 19104, Note_on_c, 8, 38, 96
1, 19114, Note_off_c, 7, 69, 0
1, 19116, Note_on_c, 7, 67, 96
1, 19126, Note_off_c, 7, 67, 0
1, 19128, Note_on_c, 7, 66, 96
1, 19138, Note_off_c, 7, 66, 0
1, 19140, Note_on_c, 7, 64, 96
1, 19150, Note_off_c, 7, 64, 0
1, 19152, Note_on_c, 0, 81, 96
1, 19152, Note_on_c, 1, 74, 96
1, 19152, Note_off_c, 2, 72, 0
1, 19152, Note_on_c, 2, 72, 96
1, 19152, Note_off_c, 3, 66, 0
1, 19152, Note_on_c, 3, 66, 96
1, 19152, Note_off_c, 4, 62, 0
1, 19152, Note_on_c, 4, 62, 96
1, 19152, Note_on_c, 7, 62, 96
1, 19162, Note_off_c, 7, 62, 0
1, 19164, Note_on_c, 7, 60, 96
1, 19174, Note_off_c, 7, 60, 0
1, 19176, Note_on_c, 7, 58, 96
1, 19186, Note_off_c, 7, 58, 0
1, 19188, Note_off_c, 5, 38, 0
1, 19188, Note_off_c, 6, 26, 0
1, 19188, Note_on_c, 7, 57, 96
1, 19188, Note_off_c, 8, 38, 0
1, 19194, Note_off_c, 0, 81, 0
1, 19194, Note_off_c, 1, 74, 0
1, 19194, Note_off_c, 2, 72, 0
1, 19194, Note_off_c, 3, 66, 0
1, 19194, Note_off_c, 4, 62, 0
1, 19198, Note_off_c, 7, 57, 0
1, 19200, Note_on_c, 0, 79, 96
1, 19200, Note_on_c, 1, 74, 96
1, 19200, Note_on_c, 2, 70, 96
1, 19200, Note_on_c, 3, 67, 96
1, 19200, Note_on_c, 4, 62, 96
1, 19200, Note_on_c, 5, 43, 96
1, 19200, Note_on_c, 6, 31, 96
1, 19200, Note_on_c, 7, 58, 96
1, 19200, Note_on_c, 8, 43, 96
1, 19210, Note_off_c, 7, 58, 0
1, 19212, Note_on_c, 7, 62, 96
1, 19222, Note_off_c, 7, 62, 0
1, 19224, Note_on_c, 7, 64, 96
1, 19234, Note_off_c, 7, 64, 0
1, 19236, Note_on_c, 7, 66, 96
1, 19242, Note_off_c, 5, 43, 0
1, 19242, Note_off_c, 6, 31, 0
1, 19242, Note_off_c, 8, 43, 0
1, 19246, Note_off_c, 7, 66, 0
1, 19248, Note_on_c, 5, 45, 96
1, 19248, Note_on_c, 7, 67, 96
1, 19258, Note_off_c, 7, 67, 0
1, 19260, Note_on_c, 7, 69, 96
1, 19270, Note_off_c, 7, 69, 0
1, 19272, Note_on_c, 7, 70, 96
1, 19282, Note_off_c, 7, 70, 0
1, 19284, Note_off_c, 0, 79, 0
1, 19284, Note_off_c, 1, 74, 0
1, 19284, Note_off_c, 2, 70, 0
1, 19284, Note_off_c, 3, 67, 0
1, 19284, Note_off_c, 4, 62, 0
1, 19284, Note_on_c, 7, 72, 96
1, 19290, Note_off_c, 5, 45, 0
1, 19294, Note_off_c, 7, 72, 0
1, 19296, Note_on_c, 5, 46, 96
1, 19296, Note_on_c, 8, 74, 96
1, 19306, Note_off_c, 8, 74, 0
1, 19308, Note_on_c, 8, 75, 96
1, 19318, Note_off_c, 8, 75, 0
1, 19320, Note_on_c, 8, 74, 96
1, 19330, Note_off_c, 8, 74, 0
1, 19332, Note_on_c, 8, 72, 96
1, 19338, Note_off_c, 5, 46, 0
1, 19342, Note_off_c, 8, 72, 0
1, 19344, Note_on_c, 5, 43, 96
1, 19344, Note_on_c, 7, 70, 96
1, 19354, Note_off_c, 7, 70, 0
1, 19356, Note_on_c, 8, 69, 96
1, 19366, Note_off_c, 8, 69, 0
1, 19368, Note_on_c, 8, 67, 96
1, 19378, Note_off_c, 8, 67, 0
1, 19380, Note_on_c, 8, 65, 96
1, 19386, Note_off_c, 5, 43, 0
1, 19390, Note_off_c, 8, 65, 0
1, 19392, Note_on_c, 5, 49, 96
1, 19392, Note_on_c, 8, 64, 96
1, 19402, Note_off_c, 8, 64, 0
1, 19404, Note_on_c, 8, 62, 96
1, 19414, Note_off_c, 8, 62, 0
1, 19416, Note_on_c, 8, 61, 96
1, 19426, Note_off_c, 8, 61, 0
1, 19428, Note_on_c, 8, 62, 96
1, 19438, Note_off_c, 8, 62, 0
1, 19440, Note_on_c, 8, 64, 96
1, 19450, Note_off_c, 8, 64, 0
1, 19452, Note_on_c, 8, 65, 96
1, 19462, Note_off_c, 8, 65, 0
1, 19464, Note_on_c, 8, 67, 96
1, 19474, Note_off_c, 8, 67, 0
1, 19476, Note_off_c, 5, 49, 0
1, 19476, Note_on_c, 7, 69, 96
1, 19486, Note_off_c, 7, 69, 0
1, 19488, Note_on_c, 7, 71, 96
1, 19498, Note_off_c, 7, 71, 0
1, 19500, Note_on_c, 7, 73, 96
1, 19510, Note_off_c, 7, 73, 0
1, 19512, Note_on_c, 7, 74, 96
1, 19522, Note_off_c, 7, 74, 0
1, 19524, Note_on_c, 7, 76, 96
1, 19534, Note_off_c, 7, 76, 0
1, 19536, Note_on_c, 5, 45, 96
1, 19536, Note_on_c, 7, 74, 96
1, 19546, Note_off_c, 7, 74, 0
1, 19548, Note_on_c, 7, 73, 96
1, 19558, Note_off_c, 7, 73, 0
1, 19560, Note_on_c, 7, 71, 96
1, 19570, Note_off_c, 7, 71, 0
1, 19572, Note_on_c, 7, 69, 96
1, 19578, Note_off_c, 5, 45, 0
1, 19582, Note_off_c, 7, 69, 0
1, 19584, Note_on_c, 5, 50, 96
1, 19584, Note_on_c, 7, 77, 96
1, 19594, Note_off_c, 7, 77, 0
1, 19596, Note_on_c, 8, 62, 96
1, 19606, Note_off_c, 8, 62, 0
1, 19608, Note_on_c, 8, 64, 96
1, 19618, Note_off_c, 8, 64, 0
1, 19620, Note_on_c, 8, 65, 96
1, 19626, Note_off_c, 5, 50, 0
1, 19630, Note_off_c, 8, 65, 0
1, 19632, Note_on_c, 5, 52, 96
1, 19632, Note_on_c, 8, 67, 96
1, 19642, Note_off_c, 8, 67, 0
1, 19644, Note_on_c, 8, 69, 96
1, 19654, Note_off_c, 8, 69, 0
1, 19656, Note_on_c, 7, 71, 96
1, 19666, Note_off_c, 7, 71, 0
1, 19668, Note_on_c, 7, 73, 96
1, 19674, Note_off_c, 5, 52, 0
1, 19678, Note_off_c, 7, 73, 0
1, 19680, Note_on_c, 5, 53, 96
1, 19680, Note_on_c, 7, 74, 96
1, 19690, Note_off_c, 7, 74, 0
1, 19692, Note_on_c, 7, 76, 96
1, 19702, Note_off_c, 7, 76, 0
1, 19704, Note_on_c, 7, 77, 96
1, 19714, Note_off_c, 7, 77, 0
1, 19716, Note_on_c, 7, 76, 96
1, 19722, Note_off_c, 5, 53, 0
1, 19726, Note_off_c, 7, 76, 0
1, 19728, Note_on_c, 5, 58, 96
1, 19728, Note_on_c, 7, 74, 96
1, 19738, Note_off_c, 7, 74, 0
1, 19740, Note_on_c, 7, 72, 96
1, 19750, Note_off_c, 7, 72, 0
1, 19752, Note_on_c, 7, 70, 96
1, 19762, Note_off_c, 7, 70, 0
1, 19764, Note_on_c, 8, 69, 96
1, 19770, Note_off_c, 5, 58, 0
1, 19774, Note_off_c, 8, 69, 0
1, 19776, Note_on_c, 5, 52, 96
1, 19776, Note_on_c, 8, 67, 96
1, 19786, Note_off_c, 8, 67, 0
1, 19788, Note_on_c, 8, 64, 96
1, 19798, Note_off_c, 8, 64, 0
1, 19800, Note_on_c, 8, 65, 96
1, 19810, Note_off_c, 8, 65, 0
1, 19812, Note_on_c, 8, 67, 96
1, 19818, Note_off_c, 5, 52, 0
1, 19822, Note_off_c, 8, 67, 0
1, 19824, Note_on_c, 5, 53, 96
1, 19824, Note_on_c, 8, 69, 96
1, 19834, Note_off_c, 8, 69, 0
1, 19836, Note_on_c, 8, 71, 96
1, 19846, Note_off_c, 8, 71, 0
1, 19848, Note_on_c, 7, 72, 96
1, 19858, Note_off_c, 7, 72, 0
1, 19860, Note_on_c, 7, 74, 96
1, 19866, Note_off_c, 5, 53, 0
1, 19870, Note_off_c, 7, 74, 0
1, 19872, Note_on_c, 5, 55, 96
1, 19872, Note_on_c, 7, 76, 96
1, 19882, Note_off_c, 7, 76, 0
1, 19884, Note_on_c, 7, 77, 96
1, 19894, Note_off_c, 7, 77, 0
1, 19896, Note_on_c, 7, 79, 96
1, 19906, Note_off_c, 7, 79, 0
1, 19908, Note_on_c, 7, 77, 96
1, 19914, Note_off_c, 5, 55, 0
1, 19918, Note_off_c, 7, 77, 0
1, 19920, Note_on_c, 5, 60, 96
1, 19920, Note_on_c, 7, 76, 96
1, 19930, Note_off_c, 7, 76, 0
1, 19932, Note_on_c, 7, 74, 96
1, 19942, Note_off_c, 7, 74, 0
1, 19944, Note_on_c, 7, 72, 96
1, 19954, Note_off_c, 7, 72, 0
1, 19956, Note_on_c, 8, 70, 96
1, 19962, Note_off_c, 5, 60, 0
1, 19966, Note_off_c, 8, 70, 0
1, 19968, Note_on_c, 2, 65, 96
1, 19968, Note_on_c, 5, 53, 96
1, 19968, Note_on_c, 8, 69, 96
1, 19978, Note_off_c, 8, 69, 0
1, 19980, Note_on_c, 8, 72, 96
1, 19990, Note_off_c, 8, 72, 0
1, 19992, Note_on_c, 8, 74, 96
1, 20002, Note_off_c, 8, 74, 0
1, 20004, Note_on_c, 8, 76, 96
1, 20014, Note_off_c, 8, 76, 0
1, 20016, Note_on_c, 8, 77, 96
1, 20026, Note_off_c, 8, 77, 0
1, 20028, Note_on_c, 7, 79, 96
1, 20038, Note_off_c, 7, 79, 0
1, 20040, Note_on_c, 7, 81, 96
1, 20050, Note_off_c, 7, 81, 0
1, 20052, Note_off_c, 2, 65, 0
1, 20052, Note_off_c, 5, 53, 0
1, 20052, Note_on_c, 7, 82, 96
1, 20062, Note_off_c, 7, 82, 0
1, 20064, Note_on_c, 2, 72, 96
1, 20064, Note_on_c, 5, 45, 96
1, 20064, Note_on_c, 7, 84, 96
1, 20074, Note_off_c, 7, 84, 0
1, 20076, Note_on_c, 7, 82, 96
1, 20086, Note_off_c, 7, 82, 0
1, 20088, Note_on_c, 7, 81, 96
1, 20098, Note_off_c, 7, 81, 0
1, 20100, Note_on_c, 7, 79, 96
1, 20110, Note_off_c, 7, 79, 0
1, 20112, Note_on_c, 7, 77, 96
1, 20122, Note_off_c, 7, 77, 0
1, 20124, Note_on_c, 8, 75, 96
1, 20134, Note_off_c, 8, 75, 0
1, 20136, Note_on_c, 8, 74, 96
1, 20146, Note_off_c, 8, 74, 0
1, 20148, Note_off_c, 5, 45, 0
1, 20148, Note_on_c, 8, 72, 96
1, 20158, Note_off_c, 8, 72, 0
1, 20160, Note_on_c, 3, 58, 96
1, 20160, Note_on_c, 5, 46, 96
1, 20160, Note_on_c, 8, 74, 96
1, 20170, Note_off_c, 8, 74, 0
1, 20172, Note_on_c, 7, 75, 96
1, 20182, Note_off_c, 7, 75, 0
1, 20184, Note_on_c, 7, 72, 96
1, 20190, Note_off_c, 2, 72, 0
1, 20194, Note_off_c, 7, 72, 0
1, 20196, Note_on_c, 7, 75, 96
1, 20206, Note_off_c, 7, 75, 0
1, 20208, Note_on_c, 2, 69, 96
1, 20208, Note_on_c, 8, 74, 96
1, 20218, Note_off_c, 8, 74, 0
1, 20220, Note_on_c, 7, 75, 96
1, 20229, Note_off_c, 2, 69, 0
1, 20230, Note_off_c, 7, 75, 0
1, 20232, Note_on_c, 2, 70, 96
1, 20232, Note_on_c, 7, 72, 96
1, 20242, Note_off_c, 7, 72, 0
1, 20244, Note_off_c, 3, 58, 0
1, 20244, Note_off_c, 5, 46, 0
1, 20244, Note_on_c, 7, 75, 96
1, 20253, Note_off_c, 2, 70, 0
1, 20254, Note_off_c, 7, 75, 0
1, 20256, Note_on_c, 2, 72, 96
1, 20256, Note_on_c, 3, 65, 96
1, 20256, Note_on_c, 8, 74, 96
1, 20266, Note_off_c, 8, 74, 0
1, 20268, Note_on_c, 7, 74, 96
1, 20278, Note_off_c, 7, 74, 0
1, 20280, Note_on_c, 7, 84, 96
1, 20290, Note_off_c, 7, 84, 0
1, 20292, Note_on_c, 7, 74, 96
1, 20298, Note_off_c, 2, 72, 0
1, 20302, Note_off_c, 7, 74, 0
1, 20304, Note_on_c, 2, 70, 96
1, 20304, Note_on_c, 8, 65, 96
1, 20314, Note_off_c, 8, 65, 0
1, 20316, Note_on_c, 7, 74, 96
1, 20325, Note_off_c, 2, 70, 0
1, 20326, Note_off_c, 7, 74, 0
1, 20328, Note_on_c, 2, 69, 96
1, 20328, Note_on_c, 7, 84, 96
1, 20338, Note_off_c, 7, 84, 0
1, 20340, Note_on_c, 7, 74, 96
1, 20349, Note_off_c, 2, 69, 0
1, 20350, Note_off_c, 7, 74, 0
1, 20352, Note_on_c, 2, 70, 96
1, 20352, Note_on_c, 5, 43, 96
1, 20352, Note_on_c, 8, 74, 96
1, 20362, Note_off_c, 8, 74, 0
1, 20364, Note_on_c, 7, 75, 96
1, 20374, Note_off_c, 7, 75, 0
1, 20376, Note_on_c, 7, 72, 96
1, 20382, Note_off_c, 3, 65, 0
1, 20386, Note_off_c, 7, 72, 0
1, 20388, Note_on_c, 7, 75, 96
1, 20394, Note_off_c, 2, 70, 0
1, 20398, Note_off_c, 7, 75, 0
1, 20400, Note_on_c, 2, 65, 96
1, 20400, Note_on_c, 3, 62, 96
1, 20400, Note_on_c, 8, 74, 96
1, 20410, Note_off_c, 8, 74, 0
1, 20412, Note_on_c, 7, 75, 96
1, 20421, Note_off_c, 3, 62, 0
1, 20422, Note_off_c, 7, 75, 0
1, 20424, Note_on_c, 3, 64, 96
1, 20424, Note_on_c, 7, 72, 96
1, 20434, Note_off_c, 7, 72, 0
1, 20436, Note_off_c, 5, 43, 0
1, 20436, Note_on_c, 7, 75, 96
1, 20442, Note_off_c, 2, 65, 0
1, 20445, Note_off_c, 3, 64, 0
1, 20446, Note_off_c, 7, 75, 0
1, 20448, Note_on_c, 2, 70, 96
1, 20448, Note_on_c, 3, 65, 96
1, 20448, Note_on_c, 8, 74, 96
1, 20458, Note_off_c, 8, 74, 0
1, 20460, Note_on_c, 7, 74, 96
1, 20470, Note_off_c, 7, 74, 0
1, 20472, Note_on_c, 7, 82, 96
1, 20482, Note_off_c, 7, 82, 0
1, 20484, Note_on_c, 7, 74, 96
1, 20490, Note_off_c, 3, 65, 0
1, 20494, Note_off_c, 7, 74, 0
1, 20496, Note_on_c, 3, 64, 96
1, 20496, Note_on_c, 8, 67, 96
1, 20506, Note_off_c, 8, 67, 0
1, 20508, Note_on_c, 7, 74, 96
1, 20517, Note_off_c, 3, 64, 0
1, 20518, Note_off_c, 7, 74, 0
1, 20520, Note_on_c, 3, 62, 96
1, 20520, Note_on_c, 7, 82, 96
1, 20530, Note_off_c, 7, 82, 0
1, 20532, Note_on_c, 7, 74, 96
1, 20541, Note_off_c, 3, 62, 0
1, 20542, Note_off_c, 7, 74, 0
1, 20544, Note_on_c, 3, 64, 96
1, 20544, Note_on_c, 5, 48, 96
1, 20544, Note_on_c, 8, 72, 96
1, 20554, Note_off_c, 8, 72, 0
1, 20556, Note_on_c, 7, 74, 96
1, 20566, Note_off_c, 7, 74, 0
1, 20568, Note_on_c, 7, 70, 96
1, 20574, Note_off_c, 2, 70, 0
1, 20578, Note_off_c, 7, 70, 0
1, 20580, Note_on_c, 7, 74, 96
1, 20586, Note_off_c, 3, 64, 0
1, 20590, Note_off_c, 7, 74, 0
1, 20592, Note_on_c, 2, 67, 96
1, 20592, Note_on_c, 3, 70, 96
1, 20592, Note_on_c, 8, 72, 96
1, 20602, Note_off_c, 8, 72, 0
1, 20604, Note_on_c, 7, 74, 96
1, 20613, Note_off_c, 2, 67, 0
1, 20614, Note_off_c, 7, 74, 0
1, 20616, Note_on_c, 2, 69, 96
1, 20616, Note_on_c, 7, 70, 96
1, 20626, Note_off_c, 7, 70, 0
1, 20628, Note_off_c, 5, 48, 0
1, 20628, Note_on_c, 7, 74, 96
1, 20634, Note_off_c, 3, 70, 0
1, 20637, Note_off_c, 2, 69, 0
1, 20638, Note_off_c, 7, 74, 0
1, 20640, Note_on_c, 2, 70, 96
1, 20640, Note_on_c, 3, 64, 96
1, 20640, Note_on_c, 8, 72, 96
1, 20650, Note_off_c, 8, 72, 0
1, 20652, Note_on_c, 7, 82, 96
1, 20662, Note_off_c, 7, 82, 0
1, 20664, Note_on_c, 7, 72, 96
1, 20674, Note_off_c, 7, 72, 0
1, 20676, Note_on_c, 7, 82, 96
1, 20682, Note_off_c, 2, 70, 0
1, 20686, Note_off_c, 7, 82, 0
1, 20688, Note_on_c, 2, 69, 96
1, 20688, Note_on_c, 8, 64, 96
1, 20698, Note_off_c, 8, 64, 0
1, 20700, Note_on_c, 7, 82, 96
1, 20709, Note_off_c, 2, 69, 0
1, 20710, Note_off_c, 7, 82, 0
1, 20712, Note_on_c, 2, 67, 96
1, 20712, Note_on_c, 7, 72, 96
1, 20722, Note_off_c, 7, 72, 0
1, 20724, Note_off_c, 3, 64, 0
1, 20724, Note_on_c, 7, 82, 96
1, 20733, Note_off_c, 2, 67, 0
1, 20734, Note_off_c, 7, 82, 0
1, 20736, Note_on_c, 2, 69, 96
1, 20736, Note_on_c, 3, 63, 96
1, 20736, Note_on_c, 5, 41, 96
1, 20736, Note_on_c, 8, 72, 96
1, 20746, Note_off_c, 8, 72, 0
1, 20748, Note_on_c, 7, 74, 96
1, 20758, Note_off_c, 7, 74, 0
1, 20760, Note_on_c, 7, 70, 96
1, 20770, Note_off_c, 7, 70, 0
1, 20772, Note_on_c, 7, 74, 96
1, 20778, Note_off_c, 2, 69, 0
1, 20778, Note_off_c, 3, 63, 0
1, 20782, Note_off_c, 7, 74, 0
1, 20784, Note_on_c, 2, 75, 96
1, 20784, Note_on_c, 3, 60, 96
1, 20784, Note_on_c, 8, 72, 96
1, 20794, Note_off_c, 8, 72, 0
1, 20796, Note_on_c, 7, 74, 96
1, 20805, Note_off_c, 3, 60, 0
1, 20806, Note_off_c, 7, 74, 0
1, 20808, Note_on_c, 3, 62, 96
1, 20808, Note_on_c, 7, 70, 96
1, 20818, Note_off_c, 7, 70, 0
1, 20820, Note_off_c, 5, 41, 0
1, 20820, Note_on_c, 7, 74, 96
1, 20826, Note_off_c, 2, 75, 0
1, 20829, Note_off_c, 3, 62, 0
1, 20830, Note_off_c, 7, 74, 0
1, 20832, Note_on_c, 2, 69, 96
1, 20832, Note_on_c, 3, 63, 96
1, 20832, Note_on_c, 8, 72, 96
1, 20842, Note_off_c, 8, 72, 0
1, 20844, Note_on_c, 7, 72, 96
1, 20854, Note_off_c, 7, 72, 0
1, 20856, Note_on_c, 7, 81, 96
1, 20866, Note_off_c, 7, 81, 0
1, 20868, Note_on_c, 7, 72, 96
1, 20874, Note_off_c, 3, 63, 0
1, 20878, Note_off_c, 7, 72, 0
1, 20880, Note_on_c, 3, 62, 96
1, 20880, Note_on_c, 8, 65, 96
1, 20890, Note_off_c, 8, 65, 0
1, 20892, Note_on_c, 7, 72, 96
1, 20901, Note_off_c, 3, 62, 0
1, 20902, Note_off_c, 7, 72, 0
1, 20904, Note_on_c, 3, 60, 96
1, 20904, Note_on_c, 7, 81, 96
1, 20914, Note_off_c, 7, 81, 0
1, 20916, Note_on_c, 7, 72, 96
1, 20925, Note_off_c, 3, 60, 0
1, 20926, Note_off_c, 7, 72, 0
1, 20928, Note_on_c, 3, 62, 96
1, 20928, Note_on_c, 5, 46, 96
1, 20928, Note_on_c, 8, 70, 96
1, 20938, Note_off_c, 8, 70, 0
1, 20940, Note_on_c, 7, 72, 96
1, 20950, Note_off_c, 7, 72, 0
1, 20952, Note_on_c, 7, 69, 96
1, 20958, Note_off_c, 2, 69, 0
1, 20962, Note_off_c, 7, 69, 0
1, 20964, Note_on_c, 7, 72, 96
1, 20970, Note_off_c, 3, 62, 0
1, 20974, Note_off_c, 7, 72, 0
1, 20976, Note_on_c, 2, 66, 96
1, 20976, Note_on_c, 3, 69, 96
1, 20976, Note_on_c, 8, 70, 96
1, 20986, Note_off_c, 8, 70, 0
1, 20988, Note_on_c, 7, 72, 96
1, 20997, Note_off_c, 2, 66, 0
1, 20998, Note_off_c, 7, 72, 0
1, 21000, Note_on_c, 2, 67, 96
1, 21000, Note_on_c, 7, 69, 96
1, 21010, Note_off_c, 7, 69, 0
1, 21012, Note_off_c, 5, 46, 0
1, 21012, Note_on_c, 7, 72, 96
1, 21018, Note_off_c, 3, 69, 0
1, 21021, Note_off_c, 2, 67, 0
1, 21022, Note_off_c, 7, 72, 0
1, 21024, Note_on_c, 2, 69, 96
1, 21024, Note_on_c, 3, 62, 96
1, 21024, Note_on_c, 8, 70, 96
1, 21034, Note_off_c, 8, 70, 0
1, 21036, Note_on_c, 7, 81, 96
1, 21046, Note_off_c, 7, 81, 0
1, 21048, Note_on_c, 7, 70, 96
1, 21058, Note_off_c, 7, 70, 0
1, 21060, Note_on_c, 7, 81, 96
1, 21066, Note_off_c, 2, 69, 0
1, 21070, Note_off_c, 7, 81, 0
1, 21072, Note_on_c, 2, 67, 96
1, 21072, Note_on_c, 8, 62, 96
1, 21082, Note_off_c, 8, 62, 0
1, 21084, Note_on_c, 7, 81, 96
1, 21093, Note_off_c, 2, 67, 0
1, 21094, Note_off_c, 7, 81, 0
1, 21096, Note_on_c, 2, 66, 96
1, 21096, Note_on_c, 7, 70, 96
1, 21106, Note_off_c, 7, 70, 0
1, 21108, Note_on_c, 7, 81, 96
1, 21117, Note_off_c, 2, 66, 0
1, 21118, Note_off_c, 7, 81, 0
1, 21120, Note_on_c, 2, 67, 96
1, 21120, Note_on_c, 5, 46, 96
1, 21120, Note_on_c, 8, 70, 96
1, 21130, Note_off_c, 8, 70, 0
1, 21132, Note_on_c, 7, 72, 96
1, 21142, Note_off_c, 7, 72, 0
1, 21144, Note_on_c, 7, 69, 96
1, 21150, Note_off_c, 3, 62, 0
1, 21154, Note_off_c, 7, 69, 0
1, 21156, Note_on_c, 7, 72, 96
1, 21162, Note_off_c, 2, 67, 0
1, 21166, Note_off_c, 7, 72, 0
1, 21168, Note_on_c, 2, 62, 96
1, 21168, Note_on_c, 3, 58, 96
1, 21168, Note_on_c, 8, 70, 96
1, 21178, Note_off_c, 8, 70, 0
1, 21180, Note_on_c, 7, 72, 96
1, 21189, Note_off_c, 3, 58, 0
1, 21190, Note_off_c, 7, 72, 0
1, 21192, Note_on_c, 3, 60, 96
1, 21192, Note_on_c, 7, 69, 96
1, 21202, Note_off_c, 7, 69, 0
1, 21204, Note_off_c, 5, 46, 0
1, 21204, Note_on_c, 7, 72, 96
1, 21210, Note_off_c, 2, 62, 0
1, 21213, Note_off_c, 3, 60, 0
1, 21214, Note_off_c, 7, 72, 0
1, 21216, Note_on_c, 2, 67, 96
1, 21216, Note_on_c, 3, 62, 96
1, 21216, Note_on_c, 5, 43, 96
1, 21216, Note_on_c, 8, 70, 96
1, 21226, Note_off_c, 8, 70, 0
1, 21228, Note_on_c, 7, 70, 96
1, 21238, Note_off_c, 7, 70, 0
1, 21240, Note_on_c, 7, 79, 96
1, 21250, Note_off_c, 7, 79, 0
1, 21252, Note_on_c, 7, 70, 96
1, 21258, Note_off_c, 3, 62, 0
1, 21262, Note_off_c, 7, 70, 0
1, 21264, Note_on_c, 3, 60, 96
1, 21264, Note_on_c, 8, 62, 96
1, 21274, Note_off_c, 8, 62, 0
1, 21276, Note_on_c, 7, 70, 96
1, 21285, Note_off_c, 3, 60, 0
1, 21286, Note_off_c, 7, 70, 0
1, 21288, Note_on_c, 3, 58, 96
1, 21288, Note_on_c, 7, 79, 96
1, 21298, Note_off_c, 7, 79, 0
1, 21300, Note_off_c, 5, 43, 0
1, 21300, Note_on_c, 7, 70, 96
1, 21309, Note_off_c, 3, 58, 0
1, 21310, Note_off_c, 7, 70, 0
1, 21312, Note_on_c, 3, 57, 96
1, 21312, Note_on_c, 5, 50, 96
1, 21312, Note_on_c, 8, 69, 96
1, 21322, Note_off_c, 8, 69, 0
1, 21324, Note_on_c, 7, 70, 96
1, 21334, Note_off_c, 7, 70, 0
1, 21336, Note_on_c, 7, 67, 96
1, 21342, Note_off_c, 2, 67, 0
1, 21346, Note_off_c, 7, 67, 0
1, 21348, Note_on_c, 7, 70, 96
1, 21354, Note_off_c, 3, 57, 0
1, 21358, Note_off_c, 7, 70, 0
1, 21360, Note_on_c, 2, 64, 96
1, 21360, Note_on_c, 3, 61, 96
1, 21360, Note_on_c, 8, 69, 96
1, 21370, Note_off_c, 8, 69, 0
1, 21372, Note_on_c, 7, 70, 96
1, 21381, Note_off_c, 2, 64, 0
1, 21381, Note_off_c, 3, 61, 0
1, 21382, Note_off_c, 7, 70, 0
1, 21384, Note_on_c, 2, 65, 96
1, 21384, Note_on_c, 3, 62, 96
1, 21384, Note_on_c, 7, 67, 96
1, 21394, Note_off_c, 7, 67, 0
1, 21396, Note_on_c, 7, 70, 96
1, 21405, Note_off_c, 2, 65, 0
1, 21405, Note_off_c, 3, 62, 0
1, 21406, Note_off_c, 7, 70, 0
1, 21408, Note_on_c, 2, 67, 96
1, 21408, Note_on_c, 3, 64, 96
1, 21408, Note_on_c, 8, 69, 96
1, 21418, Note_off_c, 8, 69, 0
1, 21420, Note_on_c, 7, 79, 96
1, 21430, Note_off_c, 7, 79, 0
1, 21432, Note_on_c, 7, 69, 96
1, 21442, Note_off_c, 7, 69, 0
1, 21444, Note_on_c, 7, 79, 96
1, 21450, Note_off_c, 2, 67, 0
1, 21450, Note_off_c, 3, 64, 0
1, 21454, Note_off_c, 7, 79, 0
1, 21456, Note_on_c, 2, 65, 96
1, 21456, Note_on_c, 3, 62, 96
1, 21456, Note_on_c, 8, 62, 96
1, 21466, Note_off_c, 8, 62, 0
1, 21468, Note_on_c, 7, 79, 96
1, 21477, Note_off_c, 2, 65, 0
1, 21477, Note_off_c, 3, 62, 0
1, 21478, Note_off_c, 7, 79, 0
1, 21480, Note_on_c, 2, 64, 96
1, 21480, Note_on_c, 3, 61, 96
1, 21480, Note_on_c, 7, 69, 96
1, 21490, Note_off_c, 7, 69, 0
1, 21492, Note_on_c, 7, 79, 96
1, 21501, Note_off_c, 2, 64, 0
1, 21501, Note_off_c, 3, 61, 0
1, 21502, Note_off_c, 7, 79, 0
1, 21504, Note_on_c, 2, 65, 96
1, 21504, Note_on_c, 3, 62, 96
1, 21504, Note_on_c, 8, 69, 96
1, 21514, Note_off_c, 8, 69, 0
1, 21516, Note_on_c, 7, 70, 96
1, 21526, Note_off_c, 7, 70, 0
1, 21528, Note_off_c, 5, 50, 0
1, 21528, Note_on_c, 7, 67, 96
1, 21538, Note_off_c, 7, 67, 0
1, 21540, Note_on_c, 7, 70, 96
1, 21550, Note_off_c, 7, 70, 0
1, 21552, Note_on_c, 5, 38, 96
1, 21552, Note_on_c, 8, 69, 96
1, 21562, Note_off_c, 8, 69, 0
1, 21564, Note_on_c, 7, 70, 96
1, 21574, Note_off_c, 7, 70, 0
1, 21576, Note_on_c, 7, 67, 96
1, 21586, Note_off_c, 7, 67, 0
1, 21588, Note_off_c, 2, 65, 0
1, 21588, Note_off_c, 3, 62, 0
1, 21588, Note_on_c, 7, 70, 96
1, 21594, Note_off_c, 5, 38, 0
1, 21598, Note_off_c, 7, 70, 0
1, 21600, Note_on_c, 5, 50, 96
1, 21600, Note_on_c, 8, 69, 96
1, 21610, Note_off_c, 8, 69, 0
1, 21612, Note_on_c, 7, 69, 96
1, 21622, Note_off_c, 7, 69, 0
1, 21624, Note_on_c, 7, 77, 96
1, 21634, Note_off_c, 7, 77, 0
1, 21636, Note_on_c, 7, 69, 96
1, 21642, Note_off_c, 5, 50, 0
1, 21646, Note_off_c, 7, 69, 0
1, 21648, Note_on_c, 5, 48, 96
1, 21648, Note_on_c, 8, 62, 96
1, 21658, Note_off_c, 8, 62, 0
1, 21660, Note_on_c, 7, 69, 96
1, 21670, Note_off_c, 7, 69, 0
1, 21672, Note_on_c, 7, 77, 96
1, 21682, Note_off_c, 7, 77, 0
1, 21684, Note_on_c, 7, 69, 96
1, 21690, Note_off_c, 5, 48, 0
1, 21694, Note_off_c, 7, 69, 0
1, 21696, Note_on_c, 5, 47, 96
1, 21696, Note_on_c, 8, 67, 96
1, 21706, Note_off_c, 8, 67, 0
1, 21708, Note_on_c, 7, 69, 96
1, 21718, Note_off_c, 7, 69, 0
1, 21720, Note_on_c, 7, 65, 96
1, 21730, Note_off_c, 7, 65, 0
1, 21732, Note_on_c, 7, 69, 96
1, 21738, Note_off_c, 5, 47, 0
1, 21742, Note_off_c, 7, 69, 0
1, 21744, Note_on_c, 5, 45, 96
1, 21744, Note_on_c, 8, 67, 96
1, 21754, Note_off_c, 8, 67, 0
1, 21756, Note_on_c, 7, 69, 96
1, 21766, Note_off_c, 7, 69, 0
1, 21768, Note_on_c, 7, 65, 96
1, 21778, Note_off_c, 7, 65, 0
1, 21780, Note_on_c, 7, 69, 96
1, 21786, Note_off_c, 5, 45, 0
1, 21790, Note_off_c, 7, 69, 0
1, 21792, Note_on_c, 5, 47, 96
1, 21792, Note_on_c, 8, 67, 96
1, 21802, Note_off_c, 8, 67, 0
1, 21804, Note_on_c, 7, 77, 96
1, 21814, Note_off_c, 7, 77, 0
1, 21816, Note_on_c, 7, 67, 96
1, 21826, Note_off_c, 7, 67, 0
1, 21828, Note_on_c, 7, 77, 96
1, 21834, Note_off_c, 5, 47, 0
1, 21838, Note_off_c, 7, 77, 0
1, 21840, Note_on_c, 5, 55, 96
1, 21840, Note_on_c, 8, 59, 96
1, 21850, Note_off_c, 8, 59, 0
1, 21852, Note_on_c, 7, 77, 96
1, 21862, Note_off_c, 7, 77, 0
1, 21864, Note_on_c, 7, 67, 96
1, 21874, Note_off_c, 7, 67, 0
1, 21876, Note_on_c, 7, 77, 96
1, 21882, Note_off_c, 5, 55, 0
1, 21886, Note_off_c, 7, 77, 0
1, 21888, Note_on_c, 5, 49, 96
1, 21888, Note_on_c, 8, 67, 96
1, 21898, Note_off_c, 8, 67, 0
1, 21900, Note_on_c, 7, 69, 96
1, 21910, Note_off_c, 7, 69, 0
1, 21912, Note_on_c, 7, 65, 96
1, 21922, Note_off_c, 7, 65, 0
1, 21924, Note_on_c, 7, 69, 96
1, 21930, Note_off_c, 5, 49, 0
1, 21934, Note_off_c, 7, 69, 0
1, 21936, Note_on_c, 5, 47, 96
1, 21936, Note_on_c, 8, 67, 96
1, 21946, Note_off_c, 8, 67, 0
1, 21948, Note_on_c, 7, 69, 96
1, 21958, Note_off_c, 7, 69, 0
1, 21960, Note_on_c, 7, 65, 96
1, 21970, Note_off_c, 7, 65, 0
1, 21972, Note_on_c, 7, 69, 96
1, 21978, Note_off_c, 5, 47, 0
1, 21982, Note_off_c, 7, 69, 0
1, 21984, Note_on_c, 5, 49, 96
1, 21984, Note_on_c, 8, 67, 96
1, 21994, Note_off_c, 8, 67, 0
1, 21996, Note_on_c, 7, 67, 96
1, 22006, Note_off_c, 7, 67, 0
1, 22008, Note_on_c, 7, 76, 96
1, 22018, Note_off_c, 7, 76, 0
1, 22020, Note_on_c, 7, 67, 96
1, 22026, Note_off_c, 5, 49, 0
1, 22030, Note_off_c, 7, 67, 0
1, 22032, Note_on_c, 5, 57, 96
1, 22032, Note_on_c, 8, 61, 96
1, 22042, Note_off_c, 8, 61, 0
1, 22044, Note_on_c, 7, 67, 96
1, 22054, Note_off_c, 7, 67, 0
1, 22056, Note_on_c, 7, 76, 96
1, 22066, Note_off_c, 7, 76, 0
1, 22068, Note_on_c, 7, 67, 96
1, 22074, Note_off_c, 5, 57, 0
1, 22078, Note_off_c, 7, 67, 0
1, 22080, Note_on_c, 5, 50, 96
1, 22080, Note_on_c, 8, 65, 96
1, 22090, Note_off_c, 8, 65, 0
1, 22092, Note_on_c, 7, 67, 96
1, 22102, Note_off_c, 7, 67, 0
1, 22104, Note_on_c, 7, 64, 96
1, 22114, Note_off_c, 7, 64, 0
1, 22116, Note_on_c, 7, 67, 96
1, 22122, Note_off_c, 5, 50, 0
1, 22126, Note_off_c, 7, 67, 0
1, 22128, Note_on_c, 5, 57, 96
1, 22128, Note_on_c, 8, 65, 96
1, 22138, Note_off_c, 8, 65, 0
1, 22140, Note_on_c, 7, 67, 96
1, 22150, Note_off_c, 7, 67, 0
1, 22152, Note_on_c, 7, 64, 96
1, 22162, Note_off_c, 7, 64, 0
1, 22164, Note_on_c, 7, 67, 96
1, 22170, Note_off_c, 5, 57, 0
1, 22174, Note_off_c, 7, 67, 0
1, 22176, Note_on_c, 5, 62, 96
1, 22176, Note_on_c, 8, 65, 96
1, 22186, Note_off_c, 8, 65, 0
1, 22188, Note_on_c, 7, 76, 96
1, 22198, Note_off_c, 7, 76, 0
1, 22200, Note_on_c, 7, 65, 96
1, 22210, Note_off_c, 7, 65, 0
1, 22212, Note_on_c, 7, 76, 96
1, 22218, Note_off_c, 5, 62, 0
1, 22222, Note_off_c, 7, 76, 0
1, 22224, Note_on_c, 5, 60, 96
1, 22224, Note_on_c, 8, 57, 96
1, 22234, Note_off_c, 8, 57, 0
1, 22236, Note_on_c, 7, 76, 96
1, 22246, Note_off_c, 7, 76, 0
1, 22248, Note_on_c, 7, 65, 96
1, 22258, Note_off_c, 7, 65, 0
1, 22260, Note_on_c, 7, 76, 96
1, 22266, Note_off_c, 5, 60, 0
1, 22270, Note_off_c, 7, 76, 0
1, 22272, Note_on_c, 5, 58, 96
1, 22272, Note_on_c, 8, 65, 96
1, 22282, Note_off_c, 8, 65, 0
1, 22284, Note_on_c, 7, 67, 96
1, 22294, Note_off_c, 7, 67, 0
1, 22296, Note_on_c, 7, 64, 96
1, 22306, Note_off_c, 7, 64, 0
1, 22308, Note_on_c, 7, 67, 96
1, 22314, Note_off_c, 5, 58, 0
1, 22318, Note_off_c, 7, 67, 0
1, 22320, Note_on_c, 5, 53, 96
1, 22320, Note_on_c, 8, 65, 96
1, 22330, Note_off_c, 8, 65, 0
1, 22332, Note_on_c, 7, 67, 96
1, 22342, Note_off_c, 7, 67, 0
1, 22344, Note_on_c, 7, 64, 96
1, 22354, Note_off_c, 7, 64, 0
1, 22356, Note_on_c, 7, 67, 96
1, 22362, Note_off_c, 5, 53, 0
1, 22366, Note_off_c, 7, 67, 0
1, 22368, Note_on_c, 5, 58, 96
1, 22368, Note_on_c, 8, 65, 96
1, 22378, Note_off_c, 8, 65, 0
1, 22380, Note_on_c, 7, 65, 96
1, 22390, Note_off_c, 7, 65, 0
1, 22392, Note_on_c, 7, 74, 96
1, 22402, Note_off_c, 7, 74, 0
1, 22404, Note_on_c, 7, 65, 96
1, 22410, Note_off_c, 5, 58, 0
1, 22414, Note_off_c, 7, 65, 0
1, 22416, Note_on_c, 5, 57, 96
1, 22416, Note_on_c, 8, 58, 96
1, 22426, Note_off_c, 8, 58, 0
1, 22428, Note_on_c, 7, 65, 96
1, 22438, Note_off_c, 7, 65, 0
1, 22440, Note_on_c, 7, 74, 96
1, 22450, Note_off_c, 7, 74, 0
1, 22452, Note_on_c, 7, 65, 96
1, 22458, Note_off_c, 5, 57, 0
1, 22462, Note_off_c, 7, 65, 0
1, 22464, Note_on_c, 5, 55, 96
1, 22464, Note_on_c, 8, 64, 96
1, 22474, Note_off_c, 8, 64, 0
1, 22476, Note_on_c, 7, 65, 96
1, 22486, Note_off_c, 7, 65, 0
1, 22488, Note_on_c, 7, 62, 96
1, 22498, Note_off_c, 7, 62, 0
1, 22500, Note_on_c, 7, 65, 96
1, 22506, Note_off_c, 5, 55, 0
1, 22510, Note_off_c, 7, 65, 0
1, 22512, Note_on_c, 5, 53, 96
1, 22512, Note_on_c, 8, 64, 96
1, 22522, Note_off_c, 8, 64, 0
1, 22524, Note_on_c, 7, 65, 96
1, 22534, Note_off_c, 7, 65, 0
1, 22536, Note_on_c, 7, 62, 96
1, 22546, Note_off_c, 7, 62, 0
1, 22548, Note_on_c, 7, 65, 96
1, 22554, Note_off_c, 5, 53, 0
1, 22558, Note_off_c, 7, 65, 0
1, 22560, Note_on_c, 5, 55, 96
1, 22560, Note_on_c, 8, 64, 96
1, 22570, Note_off_c, 8, 64, 0
1, 22572, Note_on_c, 7, 74, 96
1, 22582, Note_off_c, 7, 74, 0
1, 22584, Note_on_c, 7, 64, 96
1, 22594, Note_off_c, 7, 64, 0
1, 22596, Note_on_c, 7, 74, 96
1, 22602, Note_off_c, 5, 55, 0
1, 22606, Note_off_c, 7, 74, 0
1, 22608, Note_on_c, 5, 52, 96
1, 22608, Note_on_c, 8, 55, 96
1, 22618, Note_off_c, 8, 55, 0
1, 22620, Note_on_c, 7, 74, 96
1, 22630, Note_off_c, 7, 74, 0
1, 22632, Note_on_c, 7, 64, 96
1, 22642, Note_off_c, 7, 64, 0
1, 22644, Note_on_c, 7, 74, 96
1, 22650, Note_off_c, 5, 52, 0
1, 22654, Note_off_c, 7, 74, 0
1, 22656, Note_on_c, 5, 57, 96
1, 22656, Note_on_c, 8, 64, 96
1, 22666, Note_off_c, 8, 64, 0
1, 22668, Note_on_c, 7, 65, 96
1, 22678, Note_off_c, 7, 65, 0
1, 22680, Note_on_c, 7, 62, 96
1, 22690, Note_off_c, 7, 62, 0
1, 22692, Note_on_c, 7, 65, 96
1, 22698, Note_off_c, 5, 57, 0
1, 22702, Note_off_c, 7, 65, 0
1, 22704, Note_on_c, 5, 45, 96
1, 22704, Note_on_c, 8, 64, 96
1, 22714, Note_off_c, 8, 64, 0
1, 22716, Note_on_c, 7, 65, 96
1, 22726, Note_off_c, 7, 65, 0
1, 22728, Note_on_c, 7, 62, 96
1, 22738, Note_off_c, 7, 62, 0
1, 22740, Note_on_c, 7, 65, 96
1, 22746, Note_off_c, 5, 45, 0
1, 22750, Note_off_c, 7, 65, 0
1, 22752, Note_on_c, 5, 57, 96
1, 22752, Note_on_c, 8, 64, 96
1, 22762, Note_off_c, 8, 64, 0
1, 22764, Note_on_c, 7, 64, 96
1, 22774, Note_off_c, 7, 64, 0
1, 22776, Note_on_c, 7, 72, 96
1, 22786, Note_off_c, 7, 72, 0
1, 22788, Note_on_c, 7, 64, 96
1, 22794, Note_off_c, 5, 57, 0
1, 22798, Note_off_c, 7, 64, 0
1, 22800, Note_on_c, 5, 55, 96
1, 22800, Note_on_c, 8, 57, 96
1, 22810, Note_off_c, 8, 57, 0
1, 22812, Note_on_c, 7, 64, 96
1, 22822, Note_off_c, 7, 64, 0
1, 22824, Note_on_c, 7, 72, 96
1, 22834, Note_off_c, 7, 72, 0
1, 22836, Note_on_c, 7, 64, 96
1, 22842, Note_off_c, 5, 55, 0
1, 22846, Note_off_c, 7, 64, 0
1, 22848, Note_on_c, 5, 54, 96
1, 22848, Note_on_c, 7, 62, 96
1, 22848, Note_on_c, 8, 54, 96
1, 22869, Note_off_c, 7, 62, 0
1, 22872, Note_on_c, 7, 81, 96
1, 22890, Note_off_c, 8, 54, 0
1, 22893, Note_off_c, 7, 81, 0
1, 22896, Note_on_c, 7, 78, 96
1, 22917, Note_off_c, 7, 78, 0
1, 22920, Note_on_c, 7, 74, 96
1, 22932, Note_off_c, 5, 54, 0
1, 22941, Note_off_c, 7, 74, 0
1, 22944, Note_on_c, 7, 75, 96
1, 22965, Note_off_c, 7, 75, 0
1, 22968, Note_on_c, 7, 72, 96
1, 22968, Note_on_c, 8, 57, 96
1, 22989, Note_off_c, 7, 72, 0
1, 22989, Note_off_c, 8, 57, 0
1, 22992, Note_on_c, 7, 69, 96
1, 22992, Note_on_c, 8, 54, 96
1, 23013, Note_off_c, 7, 69, 0
1, 23013, Note_off_c, 8, 54, 0
1, 23016, Note_on_c, 7, 74, 96
1, 23016, Note_on_c, 8, 50, 96
1, 23037, Note_off_c, 7, 74, 0
1, 23037, Note_off_c, 8, 50, 0
1, 23040, Note_on_c, 7, 70, 96
1, 23040, Note_on_c, 8, 55, 96
1, 23061, Note_off_c, 7, 70, 0
1, 23064, Note_on_c, 7, 79, 96
1, 23082, Note_off_c, 8, 55, 0
1, 23085, Note_off_c, 7, 79, 0
1, 23088, Note_on_c, 5, 55, 96
1, 23088, Note_on_c, 7, 74, 96
1, 23109, Note_off_c, 7, 74, 0
1, 23112, Note_on_c, 7, 70, 96
1, 23133, Note_off_c, 7, 70, 0
1, 23136, Note_off_c, 5, 55, 0
1, 23136, Note_on_c, 5, 55, 96
1, 23136, Note_on_c, 7, 74, 96
1, 23157, Note_off_c, 7, 74, 0
1, 23160, Note_on_c, 7, 70, 96
1, 23160, Note_on_c, 8, 55, 96
1, 23181, Note_off_c, 7, 70, 0
1, 23181, Note_off_c, 8, 55, 0
1, 23184, Note_off_c, 5, 55, 0
1, 23184, Note_on_c, 5, 55, 96
1, 23184, Note_on_c, 7, 65, 96
1, 23184, Note_on_c, 8, 50, 96
1, 23205, Note_off_c, 7, 65, 0
1, 23205, Note_off_c, 8, 50, 0
1, 23208, Note_on_c, 7, 68, 96
1, 23208, Note_on_c, 8, 46, 96
1, 23226, Note_off_c, 5, 55, 0
1, 23229, Note_off_c, 7, 68, 0
1, 23229, Note_off_c, 8, 46, 0
1, 23232, Note_on_c, 7, 67, 96
1, 23232, Note_on_c, 8, 51, 96
1, 23253, Note_off_c, 7, 67, 0
1, 23256, Note_on_c, 7, 75, 96
1, 23274, Note_off_c, 8, 51, 0
1, 23277, Note_off_c, 7, 75, 0
1, 23280, Note_on_c, 5, 55, 96
1, 23280, Note_on_c, 7, 70, 96
1, 23301, Note_off_c, 7, 70, 0
1, 23304, Note_on_c, 7, 67, 96
1, 23325, Note_off_c, 7, 67, 0
1, 23328, Note_off_c, 5, 55, 0
1, 23328, Note_on_c, 5, 55, 96
1, 23328, Note_on_c, 7, 70, 96
1, 23349, Note_off_c, 7, 70, 0
1, 23352, Note_on_c, 7, 67, 96
1, 23352, Note_on_c, 8, 51, 96
1, 23373, Note_off_c, 7, 67, 0
1, 23373, Note_off_c, 8, 51, 0
1, 23376, Note_off_c, 5, 55, 0
1, 23376, Note_on_c, 5, 55, 96
1, 23376, Note_on_c, 7, 62, 96
1, 23376, Note_on_c, 8, 46, 96
1, 23397, Note_off_c, 7, 62, 0
1, 23397, Note_off_c, 8, 46, 0
1, 23400, Note_on_c, 7, 65, 96
1, 23400, Note_on_c, 8, 44, 96
1, 23418, Note_off_c, 5, 55, 0
1, 23421, Note_off_c, 7, 65, 0
1, 23421, Note_off_c, 8, 44, 0
1, 23424, Note_on_c, 7, 63, 96
1, 23424, Note_on_c, 8, 43, 96
1, 23445, Note_off_c, 7, 63, 0
1, 23448, Note_on_c, 7, 55, 96
1, 23466, Note_off_c, 8, 43, 0
1, 23469, Note_off_c, 7, 55, 0
1, 23472, Note_on_c, 5, 55, 96
1, 23472, Note_on_c, 7, 58, 96
1, 23493, Note_off_c, 7, 58, 0
1, 23496, Note_on_c, 7, 63, 96
1, 23517, Note_off_c, 7, 63, 0
1, 23520, Note_off_c, 5, 55, 0
1, 23520, Note_on_c, 5, 55, 96
1, 23520, Note_on_c, 7, 67, 96
1, 23541, Note_off_c, 7, 67, 0
1, 23544, Note_on_c, 7, 70, 96
1, 23544, Note_on_c, 8, 43, 96
1, 23565, Note_off_c, 7, 70, 0
1, 23565, Note_off_c, 8, 43, 0
1, 23568, Note_off_c, 5, 55, 0
1, 23568, Note_on_c, 5, 55, 96
1, 23568, Note_on_c, 7, 67, 96
1, 23568, Note_on_c, 8, 46, 96
1, 23589, Note_off_c, 7, 67, 0
1, 23589, Note_off_c, 8, 46, 0
1, 23592, Note_on_c, 7, 63, 96
1, 23592, Note_on_c, 8, 43, 96
1, 23610, Note_off_c, 5, 55, 0
1, 23613, Note_off_c, 7, 63, 0
1, 23613, Note_off_c, 8, 43, 0
1, 23616, Note_on_c, 5, 55, 96
1, 23616, Note_on_c, 7, 61, 96
1, 23616, Note_on_c, 8, 45, 96
1, 23637, Note_off_c, 7, 61, 0
1, 23640, Note_on_c, 7, 64, 96
1, 23658, Note_off_c, 5, 55, 0
1, 23658, Note_off_c, 8, 45, 0
1, 23661, Note_off_c, 7, 64, 0
1, 23664, Note_on_c, 5, 52, 96
1, 23664, Note_on_c, 7, 67, 96
1, 23685, Note_off_c, 7, 67, 0
1, 23688, Note_on_c, 7, 70, 96
1, 23706, Note_off_c, 5, 52, 0
1, 23709, Note_off_c, 7, 70, 0
1, 23712, Note_on_c, 5, 49, 96
1, 23712, Note_on_c, 7, 76, 96
1, 23733, Note_off_c, 7, 76, 0
1, 23736, Note_on_c, 7, 69, 96
1, 23736, Note_on_c, 8, 52, 96
1, 23754, Note_off_c, 5, 49, 0
1, 23757, Note_off_c, 7, 69, 0
1, 23757, Note_off_c, 8, 52, 0
1, 23760, Note_on_c, 5, 45, 96
1, 23760, Note_on_c, 7, 70, 96
1, 23760, Note_on_c, 8, 50, 96
1, 23781, Note_off_c, 7, 70, 0
1, 23781, Note_off_c, 8, 50, 0
1, 23784, Note_on_c, 7, 67, 96
1, 23784, Note_on_c, 8, 49, 96
1, 23802, Note_off_c, 5, 45, 0
1, 23805, Note_off_c, 7, 67, 0
1, 23805, Note_off_c, 8, 49, 0
1, 23808, Note_on_c, 5, 50, 96
1, 23808, Note_on_c, 7, 65, 96
1, 23808, Note_on_c, 8, 50, 96
1, 23829, Note_off_c, 7, 65, 0
1, 23832, Note_on_c, 7, 62, 96
1, 23850, Note_off_c, 8, 50, 0
1, 23853, Note_off_c, 7, 62, 0
1, 23856, Note_on_c, 7, 65, 96
1, 23856, Note_on_c, 8, 38, 96
1, 23877, Note_off_c, 7, 65, 0
1, 23880, Note_on_c, 7, 69, 96
1, 23892, Note_off_c, 5, 50, 0
1, 23898, Note_off_c, 8, 38, 0
1, 23901, Note_off_c, 7, 69, 0
1, 23904, Note_on_c, 7, 73, 96
1, 23925, Note_off_c, 7, 73, 0
1, 23928, Note_on_c, 7, 74, 96
1, 23949, Note_off_c, 7, 74, 0
1, 23952, Note_on_c, 5, 50, 96
1, 23952, Note_on_c, 7, 77, 96
1, 23952, Note_on_c, 8, 50, 96
1, 23973, Note_off_c, 5, 50, 0
1, 23973, Note_off_c, 7, 77, 0
1, 23973, Note_off_c, 8, 50, 0
1, 23976, Note_on_c, 5, 52, 96
1, 23976, Note_on_c, 7, 80, 96
1, 23976, Note_on_c, 8, 52, 96
1, 23997, Note_off_c, 5, 52, 0
1, 23997, Note_off_c, 7, 80, 0
1, 23997, Note_off_c, 8, 52, 0
1, 24000, Note_on_c, 5, 53, 96
1, 24000, Note_on_c, 7, 81, 96
1, 24000, Note_on_c, 8, 53, 96
1, 24042, Note_off_c, 5, 53, 0
1, 24042, Note_off_c, 7, 81, 0
1, 24042, Note_off_c, 8, 53, 0
1, 24048, Note_on_c, 5, 55, 96
1, 24048, Note_on_c, 7, 74, 96
1, 24048, Note_on_c, 8, 57, 96
1, 24060, Note_off_c, 8, 57, 0
1, 24060, Note_on_c, 8, 55, 96
1, 24072, Note_off_c, 8, 55, 0
1, 24072, Note_on_c, 8, 53, 96
1, 24084, Note_off_c, 8, 53, 0
1, 24084, Note_on_c, 8, 55, 96
1, 24090, Note_off_c, 5, 55, 0
1, 24090, Note_off_c, 7, 74, 0
1, 24094, Note_off_c, 8, 55, 0
1, 24096, Note_on_c, 5, 57, 96
1, 24096, Note_on_c, 7, 69, 96
1, 24096, Note_on_c, 8, 57, 96
1, 24138, Note_off_c, 5, 57, 0
1, 24138, Note_off_c, 7, 69, 0
1, 24138, Note_off_c, 8, 57, 0
1, 24144, Note_on_c, 5, 45, 96
1, 24144, Note_on_c, 7, 73, 96
1, 24144, Note_on_c, 8, 45, 96
1, 24186, Note_off_c, 5, 45, 0
1, 24186, Note_off_c, 7, 73, 0
1, 24186, Note_off_c, 8, 45, 0
1, 24192, Note_on_c, 2, 69, 96
1, 24192, Note_on_c, 5, 50, 96
1, 24192, Note_on_c, 7, 74, 96
1, 24192, Note_on_c, 7, 69, 96
1, 24192, Note_on_c, 7, 65, 96
1, 24192, Note_on_c, 8, 50, 96
1, 24234, Note_off_c, 5, 50, 0
1, 24234, Note_off_c, 8, 50, 0
1, 24240, Note_on_c, 5, 62, 96
1, 24240, Note_on_c, 8, 62, 96
1, 24261, Note_off_c, 5, 62, 0
1, 24261, Note_off_c, 8, 62, 0
1, 24264, Note_on_c, 5, 60, 96
1, 24264, Note_on_c, 8, 60, 96
1, 24276, Note_off_c, 2, 69, 0
1, 24276, Note_off_c, 7, 74, 0
1, 24276, Note_off_c, 7, 69, 0
1, 24276, Note_off_c, 7, 65, 0
1, 24285, Note_off_c, 5, 60, 0
1, 24285, Note_off_c, 8, 60, 0
1, 24288, Note_on_c, 2, 74, 96
1, 24288, Note_on_c, 5, 58, 96
1, 24288, Note_on_c, 7, 74, 96
1, 24288, Note_on_c, 8, 58, 96
1, 24309, Note_off_c, 8, 58, 0
1, 24312, Note_on_c, 3, 62, 96
1, 24312, Note_on_c, 8, 57, 96
1, 24330, Note_off_c, 5, 58, 0
1, 24333, Note_off_c, 3, 62, 0
1, 24333, Note_off_c, 8, 57, 0
1, 24336, Note_on_c, 3, 61, 96
1, 24336, Note_on_c, 5, 57, 96
1, 24336, Note_on_c, 8, 58, 96
1, 24357, Note_off_c, 3, 61, 0
1, 24357, Note_off_c, 8, 58, 0
1, 24360, Note_on_c, 3, 62, 96
1, 24360, Note_on_c, 8, 57, 96
1, 24378, Note_off_c, 5, 57, 0
1, 24381, Note_off_c, 3, 62, 0
1, 24381, Note_off_c, 8, 57, 0
1, 24384, Note_on_c, 3, 64, 96
1, 24384, Note_on_c, 5, 55, 96
1, 24384, Note_on_c, 8, 55, 96
1, 24405, Note_off_c, 3, 64, 0
1, 24405, Note_off_c, 8, 55, 0
1, 24408, Note_on_c, 3, 62, 96
1, 24408, Note_on_c, 8, 53, 96
1, 24414, Note_off_c, 2, 74, 0
1, 24414, Note_off_c, 7, 74, 0
1, 24426, Note_off_c, 5, 55, 0
1, 24429, Note_off_c, 3, 62, 0
1, 24429, Note_off_c, 8, 53, 0
1, 24432, Note_on_c, 2, 73, 96
1, 24432, Note_on_c, 3, 64, 96
1, 24432, Note_on_c, 5, 52, 96
1, 24432, Note_on_c, 7, 73, 96
1, 24432, Note_on_c, 8, 55, 96
1, 24453, Note_off_c, 2, 73, 0
1, 24453, Note_off_c, 3, 64, 0
1, 24453, Note_off_c, 7, 73, 0
1, 24453, Note_off_c, 8, 55, 0
1, 24456, Note_on_c, 2, 74, 96
1, 24456, Note_on_c, 3, 65, 96
1, 24456, Note_on_c, 7, 74, 96
1, 24456, Note_on_c, 8, 53, 96
1, 24474, Note_off_c, 5, 52, 0
1, 24477, Note_off_c, 2, 74, 0
1, 24477, Note_off_c, 3, 65, 0
1, 24477, Note_off_c, 7, 74, 0
1, 24477, Note_off_c, 8, 53, 0
1, 24480, Note_on_c, 2, 76, 96
1, 24480, Note_on_c, 3, 67, 96
1, 24480, Note_on_c, 5, 57, 96
1, 24480, Note_on_c, 7, 76, 96
1, 24480, Note_on_c, 8, 52, 96
1, 24501, Note_off_c, 3, 67, 0
1, 24504, Note_on_c, 3, 65, 96
1, 24522, Note_off_c, 2, 76, 0
1, 24522, Note_off_c, 5, 57, 0
1, 24522, Note_off_c, 7, 76, 0
1, 24522, Note_off_c, 8, 52, 0
1, 24525, Note_off_c, 3, 65, 0
1, 24528, Note_on_c, 2, 74, 96
1, 24528, Note_on_c, 3, 67, 96
1, 24528, Note_on_c, 5, 45, 96
1, 24528, Note_on_c, 7, 74, 96
1, 24528, Note_on_c, 8, 57, 96
1, 24549, Note_off_c, 2, 74, 0
1, 24549, Note_off_c, 3, 67, 0
1, 24549, Note_off_c, 7, 74, 0
1, 24552, Note_on_c, 2, 73, 96
1, 24552, Note_on_c, 3, 64, 96
1, 24552, Note_on_c, 7, 73, 96
1, 24570, Note_off_c, 5, 45, 0
1, 24570, Note_off_c, 8, 57, 0
1, 24573, Note_off_c, 2, 73, 0
1, 24573, Note_off_c, 3, 64, 0
1, 24573, Note_off_c, 7, 73, 0
1, 24576, Note_on_c, 2, 74, 96
1, 24576, Note_on_c, 3, 65, 96
1, 24576, Note_on_c, 5, 38, 96
1, 24576, Note_on_c, 6, 26, 96
1, 24576, Note_on_c, 7, 74, 96
1, 24576, Note_on_c, 8, 50, 96
1, 24597, Note_off_c, 3, 65, 0
1, 24600, Note_on_c, 3, 67, 96
1, 24600, Note_on_c, 4, 70, 96
1, 24618, Note_off_c, 2, 74, 0
1, 24618, Note_off_c, 7, 74, 0
1, 24621, Note_off_c, 3, 67, 0
1, 24621, Note_off_c, 4, 70, 0
1, 24624, Note_on_c, 2, 69, 96
1, 24624, Note_on_c, 3, 65, 96
1, 24624, Note_on_c, 4, 69, 96
1, 24624, Note_on_c, 7, 69, 96
1, 24645, Note_off_c, 3, 65, 0
1, 24645, Note_off_c, 4, 69, 0
1, 24648, Note_on_c, 3, 64, 96
1, 24648, Note_on_c, 4, 67, 96
1, 24666, Note_off_c, 2, 69, 0
1, 24666, Note_off_c, 7, 69, 0
1, 24669, Note_off_c, 3, 64, 0
1, 24669, Note_off_c, 4, 67, 0
1, 24672, Note_on_c, 2, 70, 96
1, 24672, Note_on_c, 3, 62, 96
1, 24672, Note_on_c, 4, 65, 96
1, 24672, Note_on_c, 7, 70, 96
1, 24672, Note_on_c, 8, 62, 96
1, 24693, Note_off_c, 4, 65, 0
1, 24696, Note_on_c, 4, 64, 96
1, 24714, Note_off_c, 2, 70, 0
1, 24714, Note_off_c, 3, 62, 0
1, 24714, Note_off_c, 7, 70, 0
1, 24717, Note_off_c, 4, 64, 0
1, 24720, Note_on_c, 2, 65, 96
1, 24720, Note_on_c, 3, 74, 96
1, 24720, Note_on_c, 4, 62, 96
1, 24720, Note_on_c, 7, 65, 96
1, 24741, Note_off_c, 4, 62, 0
1, 24744, Note_on_c, 4, 60, 96
1, 24744, Note_off_c, 5, 38, 0
1, 24744, Note_off_c, 6, 26, 0
1, 24744, Note_off_c, 8, 50, 0
1, 24762, Note_off_c, 2, 65, 0
1, 24762, Note_off_c, 7, 65, 0
1, 24765, Note_off_c, 4, 60, 0
1, 24768, Note_on_c, 2, 67, 96
1, 24768, Note_on_c, 4, 58, 96
1, 24768, Note_on_c, 5, 40, 96
1, 24768, Note_on_c, 6, 28, 96
1, 24768, Note_on_c, 7, 67, 96
1, 24768, Note_on_c, 8, 52, 96
1, 24789, Note_off_c, 4, 58, 0
1, 24792, Note_on_c, 4, 57, 96
1, 24798, Note_off_c, 8, 62, 0
1, 24804, Note_off_c, 3, 74, 0
1, 24810, Note_off_c, 2, 67, 0
1, 24810, Note_off_c, 5, 40, 0
1, 24810, Note_off_c, 6, 28, 0
1, 24810, Note_off_c, 7, 67, 0
1, 24810, Note_off_c, 8, 52, 0
1, 24813, Note_off_c, 4, 57, 0
1, 24816, Note_on_c, 2, 64, 96
1, 24816, Note_on_c, 3, 76, 96
1, 24816, Note_on_c, 4, 55, 96
1, 24816, Note_on_c, 5, 45, 96
1, 24816, Note_on_c, 6, 33, 96
1, 24816, Note_on_c, 7, 64, 96
1, 24816, Note_on_c, 8, 57, 96
1, 24816, Note_on_c, 8, 61, 96
1, 24837, Note_off_c, 3, 76, 0
1, 24837, Note_off_c, 4, 55, 0
1, 24837, Note_off_c, 8, 61, 0
1, 24840, Note_on_c, 3, 74, 96
1, 24840, Note_on_c, 4, 53, 96
1, 24840, Note_on_c, 8, 59, 96
1, 24858, Note_off_c, 2, 64, 0
1, 24858, Note_off_c, 7, 64, 0
1, 24861, Note_off_c, 3, 74, 0
1, 24861, Note_off_c, 4, 53, 0
1, 24861, Note_off_c, 8, 59, 0
1, 24864, Note_on_c, 2, 69, 96
1, 24864, Note_on_c, 3, 73, 96
1, 24864, Note_on_c, 4, 52, 96
1, 24864, Note_on_c, 7, 69, 96
1, 24864, Note_on_c, 8, 61, 96
1, 24885, Note_off_c, 3, 73, 0
1, 24885, Note_off_c, 4, 52, 0
1, 24888, Note_on_c, 3, 74, 96
1, 24888, Note_on_c, 4, 53, 96
1, 24900, Note_off_c, 5, 45, 0
1, 24900, Note_off_c, 6, 33, 0
1, 24900, Note_off_c, 8, 57, 0
1, 24906, Note_off_c, 2, 69, 0
1, 24906, Note_off_c, 7, 69, 0
1, 24909, Note_off_c, 3, 74, 0
1, 24909, Note_off_c, 4, 53, 0
1, 24912, Note_on_c, 2, 64, 96
1, 24912, Note_on_c, 3, 71, 96
1, 24912, Note_on_c, 4, 55, 96
1, 24912, Note_on_c, 5, 43, 96
1, 24912, Note_on_c, 6, 31, 96
1, 24912, Note_on_c, 7, 64, 96
1, 24912, Note_on_c, 8, 55, 96
1, 24933, Note_off_c, 3, 71, 0
1, 24933, Note_off_c, 4, 55, 0
1, 24936, Note_on_c, 3, 73, 96
1, 24936, Note_on_c, 4, 52, 96
1, 24948, Note_off_c, 8, 61, 0
1, 24954, Note_off_c, 2, 64, 0
1, 24954, Note_off_c, 5, 43, 0
1, 24954, Note_off_c, 6, 31, 0
1, 24954, Note_off_c, 7, 64, 0
1, 24954, Note_off_c, 8, 55, 0
1, 24957, Note_off_c, 3, 73, 0
1, 24957, Note_off_c, 4, 52, 0
1, 24960, Note_on_c, 0, 74, 96
1, 24960, Note_on_c, 1, 74, 96
1, 24960, Note_on_c, 2, 65, 96
1, 24960, Note_on_c, 3, 74, 96
1, 24960, Note_on_c, 4, 57, 96
1, 24960, Note_on_c, 5, 41, 96
1, 24960, Note_on_c, 6, 29, 96
1, 24960, Note_on_c, 7, 65, 96
1, 24960, Note_on_c, 8, 53, 96
1, 24960, Note_on_c, 8, 62, 96
1, 24981, Note_off_c, 2, 65, 0
1, 24981, Note_off_c, 7, 65, 0
1, 24981, Note_off_c, 8, 53, 0
1, 24981, Note_off_c, 8, 62, 0
1, 24984, Note_on_c, 2, 67, 96
1, 24984, Note_on_c, 7, 67, 96
1, 24984, Note_on_c, 8, 52, 96
1, 25002, Note_off_c, 3, 74, 0
1, 25002, Note_off_c, 4, 57, 0
1, 25002, Note_off_c, 5, 41, 0
1, 25002, Note_off_c, 6, 29, 0
1, 25005, Note_off_c, 2, 67, 0
1, 25005, Note_off_c, 7, 67, 0
1, 25005, Note_off_c, 8, 52, 0
1, 25008, Note_on_c, 2, 69, 96
1, 25008, Note_on_c, 3, 72, 96
1, 25008, Note_on_c, 4, 55, 96
1, 25008, Note_on_c, 5, 53, 96
1, 25008, Note_on_c, 6, 41, 96
1, 25008, Note_on_c, 7, 69, 96
1, 25008, Note_on_c, 8, 53, 96
1, 25029, Note_off_c, 2, 69, 0
1, 25029, Note_off_c, 3, 72, 0
1, 25029, Note_off_c, 5, 53, 0
1, 25029, Note_off_c, 6, 41, 0
1, 25029, Note_off_c, 7, 69, 0
1, 25029, Note_off_c, 8, 53, 0
1, 25032, Note_on_c, 2, 71, 96
1, 25032, Note_on_c, 3, 71, 96
1, 25032, Note_on_c, 5, 55, 96
1, 25032, Note_on_c, 6, 43, 96
1, 25032, Note_on_c, 7, 71, 96
1, 25032, Note_on_c, 8, 55, 96
1, 25044, Note_off_c, 0, 74, 0
1, 25044, Note_off_c, 1, 74, 0
1, 25050, Note_off_c, 4, 55, 0
1, 25053, Note_off_c, 2, 71, 0
1, 25053, Note_off_c, 3, 71, 0
1, 25053, Note_off_c, 5, 55, 0
1, 25053, Note_off_c, 6, 43, 0
1, 25053, Note_off_c, 7, 71, 0
1, 25053, Note_off_c, 8, 55, 0
1, 25056, Note_on_c, 0, 81, 96
1, 25056, Note_on_c, 1, 81, 96
1, 25056, Note_on_c, 2, 72, 96
1, 25056, Note_on_c, 3, 69, 96
1, 25056, Note_on_c, 4, 57, 96
1, 25056, Note_on_c, 5, 53, 96
1, 25056, Note_on_c, 6, 41, 96
1, 25056, Note_on_c, 7, 72, 96
1, 25056, Note_on_c, 8, 53, 96
1, 25077, Note_off_c, 2, 72, 0
1, 25077, Note_off_c, 7, 72, 0
1, 25077, Note_off_c, 8, 53, 0
1, 25080, Note_on_c, 2, 71, 96
1, 25080, Note_on_c, 7, 71, 96
1, 25080, Note_on_c, 8, 55, 96
1, 25098, Note_off_c, 3, 69, 0
1, 25098, Note_off_c, 4, 57, 0
1, 25098, Note_off_c, 5, 53, 0
1, 25098, Note_off_c, 6, 41, 0
1, 25101, Note_off_c, 2, 71, 0
1, 25101, Note_off_c, 7, 71, 0
1, 25101, Note_off_c, 8, 55, 0
1, 25104, Note_on_c, 2, 72, 96
1, 25104, Note_on_c, 3, 76, 96
1, 25104, Note_on_c, 4, 55, 96
1, 25104, Note_on_c, 5, 52, 96
1, 25104, Note_on_c, 6, 40, 96
1, 25104, Note_on_c, 7, 72, 96
1, 25104, Note_on_c, 8, 52, 96
1, 25125, Note_off_c, 2, 72, 0
1, 25125, Note_off_c, 7, 72, 0
1, 25125, Note_off_c, 8, 52, 0
1, 25128, Note_on_c, 2, 69, 96
1, 25128, Note_on_c, 7, 69, 96
1, 25128, Note_on_c, 8, 53, 96
1, 25146, Note_off_c, 3, 76, 0
1, 25146, Note_off_c, 4, 55, 0
1, 25146, Note_off_c, 5, 52, 0
1, 25146, Note_off_c, 6, 40, 0
1, 25149, Note_off_c, 2, 69, 0
1, 25149, Note_off_c, 7, 69, 0
1, 25149, Note_off_c, 8, 53, 0
1, 25152, Note_on_c, 2, 71, 96
1, 25152, Note_on_c, 3, 77, 96
1, 25152, Note_on_c, 4, 53, 96
1, 25152, Note_on_c, 5, 50, 96
1, 25152, Note_on_c, 6, 38, 96
1, 25152, Note_on_c, 7, 71, 96
1, 25152, Note_on_c, 8, 50, 96
1, 25173, Note_off_c, 2, 71, 0
1, 25173, Note_off_c, 7, 71, 0
1, 25176, Note_on_c, 2, 69, 96
1, 25176, Note_on_c, 7, 69, 96
1, 25182, Note_off_c, 0, 81, 0
1, 25182, Note_off_c, 1, 81, 0
1, 25194, Note_off_c, 3, 77, 0
1, 25194, Note_off_c, 4, 53, 0
1, 25194, Note_off_c, 5, 50, 0
1, 25194, Note_off_c, 6, 38, 0
1, 25194, Note_off_c, 8, 50, 0
1, 25197, Note_off_c, 2, 69, 0
1, 25197, Note_off_c, 7, 69, 0
1, 25200, Note_on_c, 0, 80, 96
1, 25200, Note_on_c, 1, 80, 96
1, 25200, Note_on_c, 2, 71, 96
1, 25200, Note_on_c, 3, 74, 96
1, 25200, Note_on_c, 4, 65, 96
1, 25200, Note_on_c, 5, 47, 96
1, 25200, Note_on_c, 6, 35, 96
1, 25200, Note_on_c, 7, 71, 96
1, 25200, Note_on_c, 8, 47, 96
1, 25221, Note_off_c, 0, 80, 0
1, 25221, Note_off_c, 1, 80, 0
1, 25221, Note_off_c, 2, 71, 0
1, 25221, Note_off_c, 7, 71, 0
1, 25224, Note_on_c, 0, 81, 96
1, 25224, Note_on_c, 1, 81, 96
1, 25224, Note_on_c, 2, 72, 96
1, 25224, Note_on_c, 7, 72, 96
1, 25242, Note_off_c, 3, 74, 0
1, 25242, Note_off_c, 4, 65, 0
1, 25242, Note_off_c, 5, 47, 0
1, 25242, Note_off_c, 6, 35, 0
1, 25242, Note_off_c, 8, 47, 0
1, 25245, Note_off_c, 0, 81, 0
1, 25245, Note_off_c, 1, 81, 0
1, 25245, Note_off_c, 2, 72, 0
1, 25245, Note_off_c, 7, 72, 0
1, 25248, Note_on_c, 0, 83, 96
1, 25248, Note_on_c, 1, 83, 96
1, 25248, Note_on_c, 2, 74, 96
1, 25248, Note_on_c, 3, 71, 96
1, 25248, Note_on_c, 4, 64, 96
1, 25248, Note_on_c, 5, 52, 96
1, 25248, Note_on_c, 6, 40, 96
1, 25248, Note_on_c, 7, 74, 96
1, 25248, Note_on_c, 8, 52, 96
1, 25269, Note_off_c, 2, 74, 0
1, 25269, Note_off_c, 7, 74, 0
1, 25272, Note_on_c, 2, 72, 96
1, 25272, Note_on_c, 7, 72, 96
1, 25290, Note_off_c, 0, 83, 0
1, 25290, Note_off_c, 1, 83, 0
1, 25290, Note_off_c, 3, 71, 0
1, 25290, Note_off_c, 4, 64, 0
1, 25290, Note_off_c, 5, 52, 0
1, 25290, Note_off_c, 6, 40, 0
1, 25290, Note_off_c, 8, 52, 0
1, 25293, Note_off_c, 2, 72, 0
1, 25293, Note_off_c, 7, 72, 0
1, 25296, Note_on_c, 0, 81, 96
1, 25296, Note_on_c, 1, 81, 96
1, 25296, Note_on_c, 2, 74, 96
1, 25296, Note_on_c, 3, 76, 96
1, 25296, Note_on_c, 4, 59, 96
1, 25296, Note_on_c, 5, 40, 96
1, 25296, Note_on_c, 6, 28, 96
1, 25296, Note_on_c, 7, 74, 96
1, 25296, Note_on_c, 8, 40, 96
1, 25317, Note_off_c, 0, 81, 0
1, 25317, Note_off_c, 1, 81, 0
1, 25317, Note_off_c, 2, 74, 0
1, 25317, Note_off_c, 7, 74, 0
1, 25320, Note_on_c, 0, 80, 96
1, 25320, Note_on_c, 1, 80, 96
1, 25320, Note_on_c, 2, 71, 96
1, 25320, Note_on_c, 7, 71, 96
1, 25338, Note_off_c, 4, 59, 0
1, 25338, Note_off_c, 5, 40, 0
1, 25338, Note_off_c, 6, 28, 0
1, 25338, Note_off_c, 8, 40, 0
1, 25341, Note_off_c, 0, 80, 0
1, 25341, Note_off_c, 1, 80, 0
1, 25341, Note_off_c, 2, 71, 0
1, 25341, Note_off_c, 7, 71, 0
1, 25344, Note_on_c, 0, 81, 96
1, 25344, Note_on_c, 1, 81, 96
1, 25344, Note_on_c, 2, 72, 96
1, 25344, Note_on_c, 4, 57, 96
1, 25344, Note_on_c, 5, 45, 96
1, 25344, Note_on_c, 6, 33, 96
1, 25344, Note_on_c, 7, 72, 96
1, 25344, Note_on_c, 8, 45, 96
1, 25359, Note_off_c, 3, 76, 0
1, 25365, Note_off_c, 2, 72, 0
1, 25365, Note_off_c, 7, 72, 0
1, 25368, Note_on_c, 2, 74, 96
1, 25368, Note_on_c, 3, 77, 96
1, 25368, Note_on_c, 7, 74, 96
1, 25386, Note_off_c, 0, 81, 0
1, 25386, Note_off_c, 1, 81, 0
1, 25386, Note_off_c, 8, 45, 0
1, 25389, Note_off_c, 2, 74, 0
1, 25389, Note_off_c, 3, 77, 0
1, 25389, Note_off_c, 7, 74, 0
1, 25392, Note_on_c, 0, 76, 96
1, 25392, Note_on_c, 1, 76, 96
1, 25392, Note_on_c, 2, 72, 96
1, 25392, Note_on_c, 3, 76, 96
1, 25392, Note_on_c, 7, 72, 96
1, 25392, Note_on_c, 8, 57, 96
1, 25413, Note_off_c, 2, 72, 0
1, 25413, Note_off_c, 3, 76, 0
1, 25413, Note_off_c, 7, 72, 0
1, 25416, Note_on_c, 2, 71, 96
1, 25416, Note_on_c, 3, 74, 96
1, 25416, Note_on_c, 7, 71, 96
1, 25434, Note_off_c, 0, 76, 0
1, 25434, Note_off_c, 1, 76, 0
1, 25437, Note_off_c, 2, 71, 0
1, 25437, Note_off_c, 3, 74, 0
1, 25437, Note_off_c, 7, 71, 0
1, 25440, Note_on_c, 0, 77, 96
1, 25440, Note_on_c, 1, 77, 96
1, 25440, Note_on_c, 2, 69, 96
1, 25440, Note_on_c, 3, 72, 96
1, 25440, Note_on_c, 7, 69, 96
1, 25455, Note_off_c, 8, 57, 0
1, 25461, Note_off_c, 3, 72, 0
1, 25464, Note_on_c, 3, 71, 96
1, 25464, Note_on_c, 8, 59, 96
1, 25482, Note_off_c, 0, 77, 0
1, 25482, Note_off_c, 1, 77, 0
1, 25482, Note_off_c, 2, 69, 0
1, 25482, Note_off_c, 7, 69, 0
1, 25485, Note_off_c, 3, 71, 0
1, 25485, Note_off_c, 8, 59, 0
1, 25488, Note_on_c, 0, 72, 96
1, 25488, Note_on_c, 1, 72, 96
1, 25488, Note_on_c, 2, 81, 96
1, 25488, Note_on_c, 3, 69, 96
1, 25488, Note_on_c, 7, 81, 96
1, 25488, Note_on_c, 8, 60, 96
1, 25509, Note_off_c, 3, 69, 0
1, 25509, Note_off_c, 8, 60, 0
1, 25512, Note_on_c, 3, 67, 96
1, 25512, Note_off_c, 4, 57, 0
1, 25512, Note_off_c, 5, 45, 0
1, 25512, Note_off_c, 6, 33, 0
1, 25512, Note_on_c, 8, 57, 96
1, 25530, Note_off_c, 0, 72, 0
1, 25530, Note_off_c, 1, 72, 0
1, 25533, Note_off_c, 3, 67, 0
1, 25533, Note_off_c, 8, 57, 0
1, 25536, Note_on_c, 0, 74, 96
1, 25536, Note_on_c, 1, 74, 96
1, 25536, Note_on_c, 3, 65, 96
1, 25536, Note_on_c, 4, 59, 96
1, 25536, Note_on_c, 8, 59, 96
1, 25557, Note_off_c, 3, 65, 0
1, 25560, Note_on_c, 3, 64, 96
1, 25572, Note_off_c, 2, 81, 0
1, 25572, Note_off_c, 7, 81, 0
1, 25578, Note_off_c, 0, 74, 0
1, 25578, Note_off_c, 1, 74, 0
1, 25578, Note_off_c, 4, 59, 0
1, 25578, Note_off_c, 8, 59, 0
1, 25581, Note_off_c, 3, 64, 0
1, 25584, Note_on_c, 0, 71, 96
1, 25584, Note_on_c, 1, 71, 96
1, 25584, Note_on_c, 2, 83, 96
1, 25584, Note_on_c, 3, 62, 96
1, 25584, Note_on_c, 4, 64, 96
1, 25584, Note_on_c, 7, 83, 96
1, 25584, Note_on_c, 8, 52, 96
1, 25605, Note_off_c, 2, 83, 0
1, 25605, Note_off_c, 3, 62, 0
1, 25605, Note_off_c, 7, 83, 0
1, 25608, Note_on_c, 2, 81, 96
1, 25608, Note_on_c, 3, 60, 96
1, 25608, Note_on_c, 7, 81, 96
1, 25626, Note_off_c, 0, 71, 0
1, 25626, Note_off_c, 1, 71, 0
1, 25626, Note_off_c, 8, 52, 0
1, 25629, Note_off_c, 2, 81, 0
1, 25629, Note_off_c, 3, 60, 0
1, 25629, Note_off_c, 7, 81, 0
1, 25632, Note_on_c, 0, 76, 96
1, 25632, Note_on_c, 1, 76, 96
1, 25632, Note_on_c, 2, 80, 96
1, 25632, Note_on_c, 3, 59, 96
1, 25632, Note_on_c, 7, 80, 96
1, 25632, Note_on_c, 8, 64, 96
1, 25653, Note_off_c, 2, 80, 0
1, 25653, Note_off_c, 3, 59, 0
1, 25653, Note_off_c, 7, 80, 0
1, 25656, Note_on_c, 2, 81, 96
1, 25656, Note_on_c, 3, 60, 96
1, 25656, Note_on_c, 7, 81, 96
1, 25668, Note_off_c, 4, 64, 0
1, 25674, Note_off_c, 0, 76, 0
1, 25674, Note_off_c, 1, 76, 0
1, 25674, Note_off_c, 8, 64, 0
1, 25677, Note_off_c, 2, 81, 0
1, 25677, Note_off_c, 3, 60, 0
1, 25677, Note_off_c, 7, 81, 0
1, 25680, Note_on_c, 0, 71, 96
1, 25680, Note_on_c, 1, 71, 96
1, 25680, Note_on_c, 2, 78, 96
1, 25680, Note_on_c, 3, 62, 96
1, 25680, Note_on_c, 4, 62, 96
1, 25680, Note_on_c, 7, 78, 96
1, 25680, Note_on_c, 8, 62, 96
1, 25701, Note_off_c, 2, 78, 0
1, 25701, Note_off_c, 3, 62, 0
1, 25701, Note_off_c, 7, 78, 0
1, 25704, Note_on_c, 2, 80, 96
1, 25704, Note_on_c, 3, 64, 96
1, 25704, Note_on_c, 7, 80, 96
1, 25722, Note_off_c, 0, 71, 0
1, 25722, Note_off_c, 1, 71, 0
1, 25722, Note_off_c, 4, 62, 0
1, 25722, Note_off_c, 8, 62, 0
1, 25725, Note_off_c, 2, 80, 0
1, 25725, Note_off_c, 3, 64, 0
1, 25725, Note_off_c, 7, 80, 0
1, 25728, Note_on_c, 0, 73, 96
1, 25728, Note_on_c, 1, 73, 96
1, 25728, Note_on_c, 2, 81, 96
1, 25728, Note_on_c, 3, 57, 96
1, 25728, Note_on_c, 4, 61, 96
1, 25728, Note_on_c, 5, 45, 96
1, 25728, Note_on_c, 6, 33, 96
1, 25728, Note_on_c, 7, 81, 96
1, 25728, Note_on_c, 8, 61, 96
1, 25749, Note_off_c, 2, 81, 0
1, 25749, Note_off_c, 7, 81, 0
1, 25752, Note_on_c, 2, 82, 96
1, 25752, Note_on_c, 7, 82, 96
1, 25770, Note_off_c, 0, 73, 0
1, 25770, Note_off_c, 1, 73, 0
1, 25770, Note_off_c, 3, 57, 0
1, 25770, Note_off_c, 8, 61, 0
1, 25773, Note_off_c, 2, 82, 0
1, 25773, Note_off_c, 7, 82, 0
1, 25776, Note_on_c, 0, 76, 96
1, 25776, Note_on_c, 1, 76, 96
1, 25776, Note_on_c, 2, 81, 96
1, 25776, Note_on_c, 3, 69, 96
1, 25776, Note_on_c, 7, 81, 96
1, 25776, Note_on_c, 8, 45, 96
1, 25797, Note_off_c, 2, 81, 0
1, 25797, Note_off_c, 7, 81, 0
1, 25800, Note_on_c, 2, 79, 96
1, 25800, Note_on_c, 7, 79, 96
1, 25812, Note_off_c, 4, 61, 0
1, 25812, Note_off_c, 5, 45, 0
1, 25812, Note_off_c, 6, 33, 0
1, 25818, Note_off_c, 0, 76, 0
1, 25818, Note_off_c, 1, 76, 0
1, 25818, Note_off_c, 8, 45, 0
1, 25821, Note_off_c, 2, 79, 0
1, 25821, Note_off_c, 7, 79, 0
1, 25824, Note_on_c, 0, 77, 96
1, 25824, Note_on_c, 1, 77, 96
1, 25824, Note_on_c, 2, 77, 96
1, 25824, Note_on_c, 4, 62, 96
1, 25824, Note_on_c, 5, 50, 96
1, 25824, Note_on_c, 6, 38, 96
1, 25824, Note_on_c, 7, 77, 96
1, 25824, Note_on_c, 8, 50, 96
1, 25824, Note_on_c, 8, 57, 96
1, 25824, Note_on_c, 8, 53, 96
1, 25845, Note_off_c, 2, 77, 0
1, 25845, Note_off_c, 7, 77, 0
1, 25848, Note_on_c, 2, 76, 96
1, 25848, Note_on_c, 7, 76, 96
1, 25860, Note_off_c, 3, 69, 0
1, 25866, Note_off_c, 0, 77, 0
1, 25866, Note_off_c, 1, 77, 0
1, 25869, Note_off_c, 2, 76, 0
1, 25869, Note_off_c, 7, 76, 0
1, 25872, Note_on_c, 0, 81, 96
1, 25872, Note_on_c, 1, 81, 96
1, 25872, Note_on_c, 2, 74, 96
1, 25872, Note_on_c, 3, 65, 96
1, 25872, Note_on_c, 7, 74, 96
1, 25893, Note_off_c, 2, 74, 0
1, 25893, Note_off_c, 7, 74, 0
1, 25896, Note_on_c, 2, 72, 96
1, 25896, Note_on_c, 7, 72, 96
1, 25908, Note_off_c, 4, 62, 0
1, 25908, Note_off_c, 8, 57, 0
1, 25908, Note_off_c, 8, 53, 0
1, 25914, Note_off_c, 0, 81, 0
1, 25914, Note_off_c, 1, 81, 0
1, 25914, Note_off_c, 3, 65, 0
1, 25917, Note_off_c, 2, 72, 0
1, 25917, Note_off_c, 7, 72, 0
1, 25920, Note_on_c, 0, 79, 96
1, 25920, Note_on_c, 1, 79, 96
1, 25920, Note_on_c, 2, 70, 96
1, 25920, Note_on_c, 3, 70, 96
1, 25920, Note_on_c, 4, 64, 96
1, 25920, Note_on_c, 7, 70, 96
1, 25920, Note_on_c, 8, 55, 96
1, 25941, Note_off_c, 2, 70, 0
1, 25941, Note_off_c, 7, 70, 0
1, 25944, Note_on_c, 2, 69, 96
1, 25944, Note_on_c, 7, 69, 96
1, 25950, Note_off_c, 5, 50, 0
1, 25950, Note_off_c, 6, 38, 0
1, 25950, Note_off_c, 8, 50, 0
1, 25962, Note_off_c, 0, 79, 0
1, 25962, Note_off_c, 1, 79, 0
1, 25962, Note_off_c, 4, 64, 0
1, 25962, Note_off_c, 8, 55, 0
1, 25965, Note_off_c, 2, 69, 0
1, 25965, Note_off_c, 7, 69, 0
1, 25968, Note_on_c, 0, 82, 96
1, 25968, Note_on_c, 1, 82, 96
1, 25968, Note_on_c, 2, 67, 96
1, 25968, Note_on_c, 4, 67, 96
1, 25968, Note_on_c, 5, 49, 96
1, 25968, Note_on_c, 6, 37, 96
1, 25968, Note_on_c, 7, 67, 96
1, 25968, Note_on_c, 8, 49, 96
1, 25989, Note_off_c, 2, 67, 0
1, 25989, Note_off_c, 5, 49, 0
1, 25989, Note_off_c, 6, 37, 0
1, 25989, Note_off_c, 7, 67, 0
1, 25989, Note_off_c, 8, 49, 0
1, 25992, Note_on_c, 2, 65, 96
1, 25992, Note_on_c, 5, 50, 96
1, 25992, Note_on_c, 6, 38, 96
1, 25992, Note_on_c, 7, 65, 96
1, 25992, Note_on_c, 8, 50, 96
1, 26004, Note_off_c, 3, 70, 0
1, 26010, Note_off_c, 0, 82, 0
1, 26010, Note_off_c, 1, 82, 0
1, 26013, Note_off_c, 2, 65, 0
1, 26013, Note_off_c, 5, 50, 0
1, 26013, Note_off_c, 6, 38, 0
1, 26013, Note_off_c, 7, 65, 0
1, 26013, Note_off_c, 8, 50, 0
1, 26016, Note_on_c, 0, 73, 96
1, 26016, Note_on_c, 1, 73, 96
1, 26016, Note_on_c, 2, 64, 96
1, 26016, Note_on_c, 3, 69, 96
1, 26016, Note_on_c, 5, 52, 96
1, 26016, Note_on_c, 6, 40, 96
1, 26016, Note_on_c, 7, 64, 96
1, 26016, Note_on_c, 8, 52, 96
1, 26037, Note_off_c, 2, 64, 0
1, 26037, Note_off_c, 7, 64, 0
1, 26040, Note_on_c, 2, 65, 96
1, 26040, Note_on_c, 7, 65, 96
1, 26052, Note_off_c, 4, 67, 0
1, 26058, Note_off_c, 0, 73, 0
1, 26058, Note_off_c, 1, 73, 0
1, 26058, Note_off_c, 5, 52, 0
1, 26058, Note_off_c, 6, 40, 0
1, 26058, Note_off_c, 8, 52, 0
1, 26061, Note_off_c, 2, 65, 0
1, 26061, Note_off_c, 7, 65, 0
1, 26064, Note_on_c, 0, 76, 96
1, 26064, Note_on_c, 1, 76, 96
1, 26064, Note_on_c, 2, 67, 96
1, 26064, Note_on_c, 4, 64, 96
1, 26064, Note_on_c, 5, 50, 96
1, 26064, Note_on_c, 6, 38, 96
1, 26064, Note_on_c, 7, 67, 96
1, 26064, Note_on_c, 8, 50, 96
1, 26085, Note_off_c, 2, 67, 0
1, 26085, Note_off_c, 5, 50, 0
1, 26085, Note_off_c, 6, 38, 0
1, 26085, Note_off_c, 7, 67, 0
1, 26085, Note_off_c, 8, 50, 0
1, 26088, Note_on_c, 2, 69, 96
1, 26088, Note_on_c, 5, 49, 96
1, 26088, Note_on_c, 6, 37, 96
1, 26088, Note_on_c, 7, 69, 96
1, 26088, Note_on_c, 8, 49, 96
1, 26106, Note_off_c, 0, 76, 0
1, 26106, Note_off_c, 1, 76, 0
1, 26106, Note_off_c, 4, 64, 0
1, 26109, Note_off_c, 2, 69, 0
1, 26109, Note_off_c, 5, 49, 0
1, 26109, Note_off_c, 6, 37, 0
1, 26109, Note_off_c, 7, 69, 0
1, 26109, Note_off_c, 8, 49, 0
1, 26112, Note_on_c, 0, 69, 96
1, 26112, Note_on_c, 1, 69, 96
1, 26112, Note_on_c, 2, 65, 96
1, 26112, Note_on_c, 4, 65, 96
1, 26112, Note_on_c, 5, 50, 96
1, 26112, Note_on_c, 6, 38, 96
1, 26112, Note_on_c, 7, 65, 96
1, 26112, Note_on_c, 8, 50, 96
1, 26121, Note_off_c, 3, 69, 0
1, 26133, Note_off_c, 2, 65, 0
1, 26133, Note_off_c, 7, 65, 0
1, 26136, Note_on_c, 2, 67, 96
1, 26136, Note_on_c, 3, 70, 96
1, 26136, Note_on_c, 7, 67, 96
1, 26154, Note_off_c, 0, 69, 0
1, 26154, Note_off_c, 1, 69, 0
1, 26154, Note_off_c, 4, 65, 0
1, 26154, Note_off_c, 5, 50, 0
1, 26154, Note_off_c, 6, 38, 0
1, 26154, Note_off_c, 8, 50, 0
1, 26157, Note_off_c, 2, 67, 0
1, 26157, Note_off_c, 3, 70, 0
1, 26157, Note_off_c, 7, 67, 0
1, 26160, Note_on_c, 0, 73, 96
1, 26160, Note_on_c, 1, 73, 96
1, 26160, Note_on_c, 2, 69, 96
1, 26160, Note_on_c, 3, 69, 96
1, 26160, Note_on_c, 4, 64, 96
1, 26160, Note_on_c, 5, 45, 96
1, 26160, Note_on_c, 6, 33, 96
1, 26160, Note_on_c, 7, 69, 96
1, 26160, Note_on_c, 8, 45, 96
1, 26181, Note_off_c, 2, 69, 0
1, 26181, Note_off_c, 3, 69, 0
1, 26181, Note_off_c, 7, 69, 0
1, 26184, Note_on_c, 2, 65, 96
1, 26184, Note_on_c, 3, 67, 96
1, 26184, Note_on_c, 7, 65, 96
1, 26202, Note_off_c, 0, 73, 0
1, 26202, Note_off_c, 1, 73, 0
1, 26202, Note_off_c, 4, 64, 0
1, 26202, Note_off_c, 5, 45, 0
1, 26202, Note_off_c, 6, 33, 0
1, 26202, Note_off_c, 8, 45, 0
1, 26205, Note_off_c, 2, 65, 0
1, 26205, Note_off_c, 3, 67, 0
1, 26205, Note_off_c, 7, 65, 0
1, 26208, Note_on_c, 0, 74, 96
1, 26208, Note_on_c, 1, 74, 96
1, 26208, Note_on_c, 2, 62, 96
1, 26208, Note_on_c, 3, 65, 96
1, 26208, Note_on_c, 4, 62, 96
1, 26208, Note_on_c, 5, 46, 96
1, 26208, Note_on_c, 6, 34, 96
1, 26208, Note_on_c, 7, 74, 96
1, 26208, Note_on_c, 7, 62, 96
1, 26208, Note_on_c, 8, 46, 96
1, 26229, Note_off_c, 3, 65, 0
1, 26232, Note_on_c, 3, 69, 96
1, 26250, Note_off_c, 4, 62, 0
1, 26250, Note_off_c, 5, 46, 0
1, 26250, Note_off_c, 6, 34, 0
1, 26250, Note_off_c, 8, 46, 0
1, 26253, Note_off_c, 3, 69, 0
1, 26256, Note_on_c, 3, 74, 96
1, 26256, Note_on_c, 4, 69, 96
1, 26256, Note_on_c, 5, 41, 96
1, 26256, Note_on_c, 6, 29, 96
1, 26256, Note_on_c, 8, 41, 96
1, 26277, Note_off_c, 3, 74, 0
1, 26280, Note_on_c, 3, 72, 96
1, 26292, Note_off_c, 2, 62, 0
1, 26292, Note_off_c, 7, 62, 0
1, 26298, Note_off_c, 4, 69, 0
1, 26298, Note_off_c, 5, 41, 0
1, 26298, Note_off_c, 6, 29, 0
1, 26298, Note_off_c, 8, 41, 0
1, 26301, Note_off_c, 3, 72, 0
1, 26304, Note_on_c, 2, 76, 96
1, 26304, Note_on_c, 3, 70, 96
1, 26304, Note_on_c, 4, 67, 96
1, 26304, Note_on_c, 5, 43, 96
1, 26304, Note_on_c, 6, 31, 96
1, 26304, Note_on_c, 7, 76, 96
1, 26304, Note_on_c, 8, 43, 96
1, 26304, Note_on_c, 8, 71, 96
1, 26325, Note_off_c, 3, 70, 0
1, 26325, Note_off_c, 4, 67, 0
1, 26328, Note_on_c, 3, 69, 96
1, 26328, Note_on_c, 4, 69, 96
1, 26346, Note_off_c, 5, 43, 0
1, 26346, Note_off_c, 6, 31, 0
1, 26346, Note_off_c, 8, 43, 0
1, 26349, Note_off_c, 3, 69, 0
1, 26349, Note_off_c, 4, 69, 0
1, 26352, Note_on_c, 3, 67, 96
1, 26352, Note_on_c, 4, 70, 96
1, 26352, Note_on_c, 5, 40, 96
1, 26352, Note_on_c, 6, 28, 96
1, 26352, Note_on_c, 8, 40, 96
1, 26373, Note_off_c, 3, 67, 0
1, 26376, Note_off_c, 0, 74, 0
1, 26376, Note_off_c, 1, 74, 0
1, 26376, Note_on_c, 3, 65, 96
1, 26376, Note_off_c, 7, 74, 0
1, 26388, Note_off_c, 8, 71, 0
1, 26394, Note_off_c, 4, 70, 0
1, 26394, Note_off_c, 5, 40, 0
1, 26394, Note_off_c, 6, 28, 0
1, 26394, Note_off_c, 8, 40, 0
1, 26397, Note_off_c, 3, 65, 0
1, 26400, Note_on_c, 0, 72, 96
1, 26400, Note_on_c, 1, 72, 96
1, 26400, Note_on_c, 3, 64, 96
1, 26400, Note_on_c, 4, 69, 96
1, 26400, Note_on_c, 5, 45, 96
1, 26400, Note_on_c, 6, 33, 96
1, 26400, Note_on_c, 7, 72, 96
1, 26400, Note_on_c, 7, 69, 96
1, 26400, Note_on_c, 8, 45, 96
1, 26421, Note_off_c, 3, 64, 0
1, 26421, Note_off_c, 4, 69, 0
1, 26424, Note_on_c, 3, 62, 96
1, 26424, Note_on_c, 4, 70, 96
1, 26442, Note_off_c, 5, 45, 0
1, 26442, Note_off_c, 6, 33, 0
1, 26442, Note_off_c, 8, 45, 0
1, 26445, Note_off_c, 3, 62, 0
1, 26445, Note_off_c, 4, 70, 0
1, 26448, Note_on_c, 3, 60, 96
1, 26448, Note_on_c, 4, 72, 96
1, 26448, Note_on_c, 5, 45, 96
1, 26448, Note_on_c, 6, 33, 96
1, 26448, Note_on_c, 8, 57, 96
1, 26469, Note_off_c, 3, 60, 0
1, 26472, Note_off_c, 2, 76, 0
1, 26472, Note_on_c, 3, 58, 96
1, 26472, Note_off_c, 7, 76, 0
1, 26490, Note_off_c, 4, 72, 0
1, 26490, Note_off_c, 5, 45, 0
1, 26490, Note_off_c, 6, 33, 0
1, 26490, Note_off_c, 8, 57, 0
1, 26493, Note_off_c, 3, 58, 0
1, 26496, Note_on_c, 2, 78, 96
1, 26496, Note_on_c, 3, 57, 96
1, 26496, Note_on_c, 4, 74, 96
1, 26496, Note_on_c, 5, 38, 96
1, 26496, Note_on_c, 6, 26, 96
1, 26496, Note_on_c, 7, 78, 96
1, 26496, Note_on_c, 8, 62, 96
1, 26517, Note_off_c, 4, 74, 0
1, 26520, Note_on_c, 4, 72, 96
1, 26538, Note_off_c, 3, 57, 0
1, 26538, Note_off_c, 5, 38, 0
1, 26538, Note_off_c, 6, 26, 0
1, 26538, Note_off_c, 8, 62, 0
1, 26541, Note_off_c, 4, 72, 0
1, 26544, Note_on_c, 3, 62, 96
1, 26544, Note_on_c, 4, 70, 96
1, 26544, Note_on_c, 5, 50, 96
1, 26544, Note_on_c, 6, 38, 96
1, 26544, Note_on_c, 8, 50, 96
1, 26565, Note_off_c, 4, 70, 0
1, 26568, Note_off_c, 0, 72, 0
1, 26568, Note_off_c, 1, 72, 0
1, 26568, Note_on_c, 4, 69, 96
1, 26568, Note_off_c, 7, 72, 0
1, 26568, Note_off_c, 7, 69, 0
1, 26580, Note_off_c, 2, 78, 0
1, 26580, Note_off_c, 7, 78, 0
1, 26586, Note_off_c, 3, 62, 0
1, 26586, Note_off_c, 5, 50, 0
1, 26586, Note_off_c, 6, 38, 0
1, 26586, Note_off_c, 8, 50, 0
1, 26589, Note_off_c, 4, 69, 0
1, 26592, Note_on_c, 0, 70, 96
1, 26592, Note_on_c, 1, 70, 96
1, 26592, Note_on_c, 2, 79, 96
1, 26592, Note_on_c, 3, 67, 96
1, 26592, Note_on_c, 4, 67, 96
1, 26592, Note_on_c, 5, 51, 96
1, 26592, Note_on_c, 6, 39, 96
1, 26592, Note_on_c, 7, 70, 96
1, 26592, Note_on_c, 7, 67, 96
1, 26592, Note_on_c, 7, 79, 96
1, 26592, Note_on_c, 8, 51, 96
1, 26613, Note_off_c, 4, 67, 0
1, 26616, Note_on_c, 4, 65, 96
1, 26634, Note_off_c, 3, 67, 0
1, 26634, Note_off_c, 5, 51, 0
1, 26634, Note_off_c, 6, 39, 0
1, 26634, Note_off_c, 8, 51, 0
1, 26637, Note_off_c, 4, 65, 0
1, 26640, Note_on_c, 3, 70, 96
1, 26640, Note_on_c, 4, 63, 96
1, 26640, Note_on_c, 5, 46, 96
1, 26640, Note_on_c, 6, 34, 96
1, 26640, Note_on_c, 8, 46, 96
1, 26661, Note_off_c, 4, 63, 0
1, 26664, Note_on_c, 4, 62, 96
1, 26676, Note_off_c, 0, 70, 0
1, 26676, Note_off_c, 1, 70, 0
1, 26676, Note_off_c, 7, 70, 0
1, 26676, Note_off_c, 7, 67, 0
1, 26682, Note_off_c, 3, 70, 0
1, 26682, Note_off_c, 5, 46, 0
1, 26682, Note_off_c, 6, 34, 0
1, 26682, Note_off_c, 8, 46, 0
1, 26685, Note_off_c, 4, 62, 0
1, 26688, Note_on_c, 0, 81, 96
1, 26688, Note_on_c, 1, 81, 96
1, 26688, Note_on_c, 3, 75, 96
1, 26688, Note_on_c, 4, 60, 96
1, 26688, Note_on_c, 5, 48, 96
1, 26688, Note_on_c, 6, 36, 96
1, 26688, Note_on_c, 7, 75, 96
1, 26688, Note_on_c, 7, 69, 96
1, 26688, Note_on_c, 8, 48, 96
1, 26709, Note_off_c, 3, 75, 0
1, 26712, Note_on_c, 3, 74, 96
1, 26730, Note_off_c, 4, 60, 0
1, 26730, Note_off_c, 5, 48, 0
1, 26730, Note_off_c, 6, 36, 0
1, 26730, Note_off_c, 8, 48, 0
1, 26733, Note_off_c, 3, 74, 0
1, 26736, Note_on_c, 3, 72, 96
1, 26736, Note_on_c, 4, 63, 96
1, 26736, Note_on_c, 5, 45, 96
1, 26736, Note_on_c, 6, 33, 96
1, 26736, Note_on_c, 8, 45, 96
1, 26757, Note_off_c, 3, 72, 0
1, 26760, Note_off_c, 2, 79, 0
1, 26760, Note_on_c, 3, 70, 96
1, 26760, Note_off_c, 7, 79, 0
1, 26772, Note_off_c, 7, 75, 0
1, 26772, Note_off_c, 7, 69, 0
1, 26778, Note_off_c, 4, 63, 0
1, 26778, Note_off_c, 5, 45, 0
1, 26778, Note_off_c, 6, 33, 0
1, 26778, Note_off_c, 8, 45, 0
1, 26781, Note_off_c, 3, 70, 0
1, 26784, Note_on_c, 2, 77, 96
1, 26784, Note_on_c, 3, 69, 96
1, 26784, Note_on_c, 4, 65, 96
1, 26784, Note_on_c, 5, 50, 96
1, 26784, Note_on_c, 6, 38, 96
1, 26784, Note_on_c, 7, 74, 96
1, 26784, Note_on_c, 7, 69, 96
1, 26784, Note_on_c, 7, 77, 96
1, 26784, Note_on_c, 8, 50, 96
1, 26805, Note_off_c, 3, 69, 0
1, 26808, Note_on_c, 3, 67, 96
1, 26826, Note_off_c, 4, 65, 0
1, 26826, Note_off_c, 5, 50, 0
1, 26826, Note_off_c, 6, 38, 0
1, 26826, Note_off_c, 8, 50, 0
1, 26829, Note_off_c, 3, 67, 0
1, 26832, Note_on_c, 3, 65, 96
1, 26832, Note_on_c, 4, 69, 96
1, 26832, Note_on_c, 5, 38, 96
1, 26832, Note_on_c, 6, 26, 96
1, 26832, Note_on_c, 8, 38, 96
1, 26853, Note_off_c, 3, 65, 0
1, 26856, Note_off_c, 0, 81, 0
1, 26856, Note_off_c, 1, 81, 0
1, 26856, Note_on_c, 3, 64, 96
1, 26868, Note_off_c, 7, 74, 0
1, 26868, Note_off_c, 7, 69, 0
1, 26874, Note_off_c, 4, 69, 0
1, 26874, Note_off_c, 5, 38, 0
1, 26874, Note_off_c, 6, 26, 0
1, 26874, Note_off_c, 8, 38, 0
1, 26877, Note_off_c, 3, 64, 0
1, 26880, Note_on_c, 0, 83, 96
1, 26880, Note_on_c, 1, 83, 96
1, 26880, Note_on_c, 3, 62, 96
1, 26880, Note_on_c, 4, 67, 96
1, 26880, Note_on_c, 5, 43, 96
1, 26880, Note_on_c, 6, 31, 96
1, 26880, Note_on_c, 7, 71, 96
1, 26880, Note_on_c, 7, 67, 96
1, 26880, Note_on_c, 8, 43, 96
1, 26901, Note_off_c, 4, 67, 0
1, 26904, Note_on_c, 4, 65, 96
1, 26922, Note_off_c, 3, 62, 0
1, 26922, Note_off_c, 5, 43, 0
1, 26922, Note_off_c, 6, 31, 0
1, 26922, Note_off_c, 8, 43, 0
1, 26925, Note_off_c, 4, 65, 0
1, 26928, Note_on_c, 3, 67, 96
1, 26928, Note_on_c, 4, 64, 96
1, 26928, Note_on_c, 5, 55, 96
1, 26928, Note_on_c, 6, 43, 96
1, 26928, Note_on_c, 8, 55, 96
1, 26949, Note_off_c, 4, 64, 0
1, 26952, Note_off_c, 2, 77, 0
1, 26952, Note_on_c, 4, 62, 96
1, 26952, Note_off_c, 7, 77, 0
1, 26964, Note_off_c, 0, 83, 0
1, 26964, Note_off_c, 1, 83, 0
1, 26964, Note_off_c, 7, 71, 0
1, 26964, Note_off_c, 7, 67, 0
1, 26970, Note_off_c, 3, 67, 0
1, 26970, Note_off_c, 5, 55, 0
1, 26970, Note_off_c, 6, 43, 0
1, 26970, Note_off_c, 8, 55, 0
1, 26973, Note_off_c, 4, 62, 0
1, 26976, Note_on_c, 0, 84, 96
1, 26976, Note_on_c, 1, 84, 96
1, 26976, Note_on_c, 2, 76, 96
1, 26976, Note_on_c, 3, 72, 96
1, 26976, Note_on_c, 4, 60, 96
1, 26976, Note_on_c, 5, 57, 96
1, 26976, Note_on_c, 6, 45, 96
1, 26976, Note_on_c, 7, 72, 96
1, 26976, Note_on_c, 7, 76, 96
1, 26976, Note_on_c, 8, 57, 96
1, 26997, Note_off_c, 4, 60, 0
1, 27000, Note_on_c, 4, 58, 96
1, 27018, Note_off_c, 3, 72, 0
1, 27018, Note_off_c, 5, 57, 0
1, 27018, Note_off_c, 6, 45, 0
1, 27018, Note_off_c, 8, 57, 0
1, 27021, Note_off_c, 4, 58, 0
1, 27024, Note_on_c, 3, 76, 96
1, 27024, Note_on_c, 4, 57, 96
1, 27024, Note_on_c, 5, 52, 96
1, 27024, Note_on_c, 6, 40, 96
1, 27024, Note_on_c, 8, 52, 96
1, 27045, Note_off_c, 4, 57, 0
1, 27048, Note_on_c, 4, 55, 96
1, 27060, Note_off_c, 2, 76, 0
1, 27060, Note_off_c, 7, 76, 0
1, 27066, Note_off_c, 3, 76, 0
1, 27066, Note_off_c, 5, 52, 0
1, 27066, Note_off_c, 6, 40, 0
1, 27066, Note_off_c, 8, 52, 0
1, 27069, Note_off_c, 4, 55, 0
1, 27072, Note_on_c, 2, 74, 96
1, 27072, Note_on_c, 3, 69, 96
1, 27072, Note_on_c, 4, 53, 96
1, 27072, Note_on_c, 5, 53, 96
1, 27072, Note_on_c, 6, 41, 96
1, 27072, Note_on_c, 7, 74, 96
1, 27072, Note_on_c, 8, 53, 96
1, 27072, Note_on_c, 8, 69, 96
1, 27093, Note_off_c, 3, 69, 0
1, 27096, Note_on_c, 3, 67, 96
1, 27114, Note_off_c, 4, 53, 0
1, 27114, Note_off_c, 5, 53, 0
1, 27114, Note_off_c, 6, 41, 0
1, 27114, Note_off_c, 8, 53, 0
1, 27117, Note_off_c, 3, 67, 0
1, 27120, Note_on_c, 3, 65, 96
1, 27120, Note_on_c, 4, 57, 96
1, 27120, Note_on_c, 5, 50, 96
1, 27120, Note_on_c, 6, 38, 96
1, 27120, Note_on_c, 8, 50, 96
1, 27141, Note_off_c, 3, 65, 0
1, 27144, Note_off_c, 0, 84, 0
1, 27144, Note_off_c, 1, 84, 0
1, 27144, Note_on_c, 3, 64, 96
1, 27144, Note_off_c, 7, 72, 0
1, 27156, Note_off_c, 8, 69, 0
1, 27162, Note_off_c, 4, 57, 0
1, 27162, Note_off_c, 5, 50, 0
1, 27162, Note_off_c, 6, 38, 0
1, 27162, Note_off_c, 8, 50, 0
1, 27165, Note_off_c, 3, 64, 0
1, 27168, Note_on_c, 0, 83, 96
1, 27168, Note_on_c, 1, 83, 96
1, 27168, Note_on_c, 3, 62, 96
1, 27168, Note_on_c, 4, 59, 96
1, 27168, Note_on_c, 5, 55, 96
1, 27168, Note_on_c, 6, 43, 96
1, 27168, Note_on_c, 7, 71, 96
1, 27168, Note_on_c, 8, 55, 96
1, 27168, Note_on_c, 8, 67, 96
1, 27189, Note_off_c, 3, 62, 0
1, 27192, Note_on_c, 3, 64, 96
1, 27210, Note_off_c, 4, 59, 0
1, 27210, Note_off_c, 5, 55, 0
1, 27210, Note_off_c, 6, 43, 0
1, 27210, Note_off_c, 8, 55, 0
1, 27213, Note_off_c, 3, 64, 0
1, 27216, Note_on_c, 3, 66, 96
1, 27216, Note_on_c, 4, 62, 96
1, 27216, Note_on_c, 5, 43, 96
1, 27216, Note_on_c, 6, 31, 96
1, 27216, Note_on_c, 8, 43, 96
1, 27237, Note_off_c, 3, 66, 0
1, 27240, Note_off_c, 2, 74, 0
1, 27240, Note_on_c, 3, 67, 96
1, 27240, Note_off_c, 7, 74, 0
1, 27252, Note_off_c, 0, 83, 0
1, 27252, Note_off_c, 1, 83, 0
1, 27252, Note_off_c, 8, 67, 0
1, 27258, Note_off_c, 4, 62, 0
1, 27258, Note_off_c, 5, 43, 0
1, 27258, Note_off_c, 6, 31, 0
1, 27258, Note_off_c, 8, 43, 0
1, 27261, Note_off_c, 3, 67, 0
1, 27264, Note_on_c, 0, 81, 96
1, 27264, Note_on_c, 1, 81, 96
1, 27264, Note_on_c, 2, 75, 96
1, 27264, Note_on_c, 3, 69, 96
1, 27264, Note_on_c, 4, 66, 96
1, 27264, Note_on_c, 5, 42, 96
1, 27264, Note_on_c, 6, 30, 96
1, 27264, Note_on_c, 7, 69, 96
1, 27264, Note_on_c, 8, 42, 96
1, 27264, Note_on_c, 8, 75, 96
1, 27285, Note_off_c, 4, 66, 0
1, 27288, Note_on_c, 4, 69, 96
1, 27306, Note_off_c, 3, 69, 0
1, 27306, Note_off_c, 5, 42, 0
1, 27306, Note_off_c, 6, 30, 0
1, 27306, Note_off_c, 8, 42, 0
1, 27309, Note_off_c, 4, 69, 0
1, 27312, Note_on_c, 3, 63, 96
1, 27312, Note_on_c, 4, 67, 96
1, 27312, Note_on_c, 5, 47, 96
1, 27312, Note_on_c, 6, 35, 96
1, 27312, Note_on_c, 8, 47, 96
1, 27333, Note_off_c, 4, 67, 0
1, 27336, Note_on_c, 4, 66, 96
1, 27336, Note_off_c, 7, 71, 0
1, 27348, Note_off_c, 0, 81, 0
1, 27348, Note_off_c, 1, 81, 0
1, 27348, Note_off_c, 2, 75, 0
1, 27348, Note_off_c, 7, 69, 0
1, 27348, Note_off_c, 8, 75, 0
1, 27354, Note_off_c, 3, 63, 0
1, 27354, Note_off_c, 5, 47, 0
1, 27354, Note_off_c, 6, 35, 0
1, 27354, Note_off_c, 8, 47, 0
1, 27357, Note_off_c, 4, 66, 0
1, 27360, Note_on_c, 0, 79, 96
1, 27360, Note_on_c, 1, 79, 96
1, 27360, Note_on_c, 2, 76, 96
1, 27360, Note_on_c, 3, 67, 96
1, 27360, Note_on_c, 4, 64, 96
1, 27360, Note_on_c, 5, 48, 96
1, 27360, Note_on_c, 6, 36, 96
1, 27360, Note_on_c, 7, 76, 96
1, 27360, Note_on_c, 7, 67, 96
1, 27360, Note_on_c, 8, 48, 96
1, 27360, Note_on_c, 8, 64, 96
1, 27381, Note_off_c, 4, 64, 0
1, 27384, Note_on_c, 4, 62, 96
1, 27402, Note_off_c, 3, 67, 0
1, 27402, Note_off_c, 5, 48, 0
1, 27402, Note_off_c, 6, 36, 0
1, 27402, Note_off_c, 8, 48, 0
1, 27405, Note_off_c, 4, 62, 0
1, 27408, Note_on_c, 3, 71, 96
1, 27408, Note_on_c, 4, 60, 96
1, 27408, Note_on_c, 5, 43, 96
1, 27408, Note_on_c, 6, 31, 96
1, 27408, Note_on_c, 8, 43, 96
1, 27429, Note_off_c, 4, 60, 0
1, 27432, Note_on_c, 4, 59, 96
1, 27444, Note_off_c, 0, 79, 0
1, 27444, Note_off_c, 1, 79, 0
1, 27444, Note_off_c, 7, 67, 0
1, 27444, Note_off_c, 8, 64, 0
1, 27450, Note_off_c, 3, 71, 0
1, 27450, Note_off_c, 5, 43, 0
1, 27450, Note_off_c, 6, 31, 0
1, 27450, Note_off_c, 8, 43, 0
1, 27453, Note_off_c, 4, 59, 0
1, 27456, Note_on_c, 0, 78, 96
1, 27456, Note_on_c, 1, 78, 96
1, 27456, Note_on_c, 3, 72, 96
1, 27456, Note_on_c, 4, 57, 96
1, 27456, Note_on_c, 5, 45, 96
1, 27456, Note_on_c, 6, 33, 96
1, 27456, Note_on_c, 7, 66, 96
1, 27456, Note_on_c, 8, 45, 96
1, 27456, Note_on_c, 8, 72, 96
1, 27477, Note_off_c, 3, 72, 0
1, 27480, Note_on_c, 3, 71, 96
1, 27498, Note_off_c, 4, 57, 0
1, 27498, Note_off_c, 5, 45, 0
1, 27498, Note_off_c, 6, 33, 0
1, 27498, Note_off_c, 8, 45, 0
1, 27501, Note_off_c, 3, 71, 0
1, 27504, Note_on_c, 3, 69, 96
1, 27504, Note_on_c, 4, 60, 96
1, 27504, Note_on_c, 5, 42, 96
1, 27504, Note_on_c, 6, 30, 96
1, 27504, Note_on_c, 8, 42, 96
1, 27525, Note_off_c, 3, 69, 0
1, 27528, Note_off_c, 2, 76, 0
1, 27528, Note_on_c, 3, 67, 96
1, 27528, Note_off_c, 7, 76, 0
1, 27540, Note_off_c, 8, 72, 0
1, 27546, Note_off_c, 4, 60, 0
1, 27546, Note_off_c, 5, 42, 0
1, 27546, Note_off_c, 6, 30, 0
1, 27546, Note_off_c, 8, 42, 0
1, 27549, Note_off_c, 3, 67, 0
1, 27552, Note_on_c, 2, 74, 96
1, 27552, Note_on_c, 3, 66, 96
1, 27552, Note_on_c, 4, 62, 96
1, 27552, Note_on_c, 5, 47, 96
1, 27552, Note_on_c, 6, 35, 96
1, 27552, Note_on_c, 7, 74, 96
1, 27552, Note_on_c, 8, 47, 96
1, 27552, Note_on_c, 8, 71, 96
1, 27573, Note_off_c, 3, 66, 0
1, 27576, Note_on_c, 3, 64, 96
1, 27594, Note_off_c, 4, 62, 0
1, 27594, Note_off_c, 5, 47, 0
1, 27594, Note_off_c, 6, 35, 0
1, 27594, Note_off_c, 8, 47, 0
1, 27597, Note_off_c, 3, 64, 0
1, 27600, Note_on_c, 3, 62, 96
1, 27600, Note_on_c, 4, 66, 96
1, 27600, Note_on_c, 5, 47, 96
1, 27600, Note_on_c, 6, 35, 96
1, 27600, Note_on_c, 8, 59, 96
1, 27621, Note_off_c, 3, 62, 0
1, 27624, Note_off_c, 0, 78, 0
1, 27624, Note_off_c, 1, 78, 0
1, 27624, Note_on_c, 3, 60, 96
1, 27624, Note_off_c, 7, 66, 0
1, 27642, Note_off_c, 4, 66, 0
1, 27642, Note_off_c, 5, 47, 0
1, 27642, Note_off_c, 6, 35, 0
1, 27642, Note_off_c, 8, 59, 0
1, 27645, Note_off_c, 3, 60, 0
1, 27648, Note_on_c, 0, 80, 96
1, 27648, Note_on_c, 1, 80, 96
1, 27648, Note_on_c, 3, 59, 96
1, 27648, Note_on_c, 4, 64, 96
1, 27648, Note_on_c, 5, 40, 96
1, 27648, Note_on_c, 6, 28, 96
1, 27648, Note_on_c, 7, 68, 96
1, 27648, Note_on_c, 8, 64, 96
1, 27669, Note_off_c, 4, 64, 0
1, 27672, Note_on_c, 4, 62, 96
1, 27690, Note_off_c, 3, 59, 0
1, 27690, Note_off_c, 5, 40, 0
1, 27690, Note_off_c, 6, 28, 0
1, 27690, Note_off_c, 8, 64, 0
1, 27693, Note_off_c, 4, 62, 0
1, 27696, Note_on_c, 3, 64, 96
1, 27696, Note_on_c, 4, 60, 96
1, 27696, Note_on_c, 5, 52, 96
1, 27696, Note_on_c, 6, 40, 96
1, 27696, Note_on_c, 8, 52, 96
1, 27717, Note_off_c, 4, 60, 0
1, 27720, Note_off_c, 2, 74, 0
1, 27720, Note_on_c, 4, 59, 96
1, 27720, Note_off_c, 7, 74, 0
1, 27720, Note_off_c, 8, 71, 0
1, 27732, Note_off_c, 0, 80, 0
1, 27732, Note_off_c, 1, 80, 0
1, 27732, Note_off_c, 7, 68, 0
1, 27738, Note_off_c, 3, 64, 0
1, 27738, Note_off_c, 5, 52, 0
1, 27738, Note_off_c, 6, 40, 0
1, 27738, Note_off_c, 8, 52, 0
1, 27741, Note_off_c, 4, 59, 0
1, 27744, Note_on_c, 0, 81, 96
1, 27744, Note_on_c, 1, 81, 96
1, 27744, Note_on_c, 2, 72, 96
1, 27744, Note_on_c, 3, 69, 96
1, 27744, Note_on_c, 4, 57, 96
1, 27744, Note_on_c, 5, 53, 96
1, 27744, Note_on_c, 6, 41, 96
1, 27744, Note_on_c, 7, 72, 96
1, 27744, Note_on_c, 8, 53, 96
1, 27744, Note_on_c, 8, 69, 96
1, 27765, Note_off_c, 4, 57, 0
1, 27768, Note_on_c, 4, 55, 96
1, 27786, Note_off_c, 3, 69, 0
1, 27786, Note_off_c, 5, 53, 0
1, 27786, Note_off_c, 6, 41, 0
1, 27786, Note_off_c, 8, 53, 0
1, 27789, Note_off_c, 4, 55, 0
1, 27792, Note_on_c, 3, 72, 96
1, 27792, Note_on_c, 4, 53, 96
1, 27792, Note_on_c, 5, 48, 96
1, 27792, Note_on_c, 6, 36, 96
1, 27792, Note_on_c, 8, 48, 96
1, 27813, Note_off_c, 4, 53, 0
1, 27816, Note_on_c, 4, 52, 96
1, 27828, Note_off_c, 2, 72, 0
1, 27828, Note_off_c, 7, 72, 0
1, 27834, Note_off_c, 3, 72, 0
1, 27834, Note_off_c, 5, 48, 0
1, 27834, Note_off_c, 6, 36, 0
1, 27834, Note_off_c, 8, 48, 0
1, 27837, Note_off_c, 4, 52, 0
1, 27840, Note_on_c, 2, 71, 96
1, 27840, Note_on_c, 3, 77, 96
1, 27840, Note_on_c, 4, 50, 96
1, 27840, Note_on_c, 5, 50, 96
1, 27840, Note_on_c, 6, 38, 96
1, 27840, Note_on_c, 7, 71, 96
1, 27840, Note_on_c, 7, 65, 96
1, 27840, Note_on_c, 8, 50, 96
1, 27861, Note_off_c, 3, 77, 0
1, 27864, Note_on_c, 3, 76, 96
1, 27882, Note_off_c, 4, 50, 0
1, 27882, Note_off_c, 5, 50, 0
1, 27882, Note_off_c, 6, 38, 0
1, 27882, Note_off_c, 8, 50, 0
1, 27885, Note_off_c, 3, 76, 0
1, 27888, Note_on_c, 3, 74, 96
1, 27888, Note_on_c, 4, 62, 96
1, 27888, Note_on_c, 5, 47, 96
1, 27888, Note_on_c, 6, 35, 96
1, 27888, Note_on_c, 8, 47, 96
1, 27909, Note_off_c, 3, 74, 0
1, 27912, Note_off_c, 0, 81, 0
1, 27912, Note_off_c, 1, 81, 0
1, 27912, Note_on_c, 3, 72, 96
1, 27912, Note_off_c, 8, 69, 0
1, 27924, Note_off_c, 7, 65, 0
1, 27930, Note_off_c, 5, 47, 0
1, 27930, Note_off_c, 6, 35, 0
1, 27930, Note_off_c, 8, 47, 0
1, 27933, Note_off_c, 3, 72, 0
1, 27936, Note_on_c, 0, 80, 96
1, 27936, Note_on_c, 1, 80, 96
1, 27936, Note_on_c, 3, 71, 96
1, 27936, Note_on_c, 5, 52, 96
1, 27936, Note_on_c, 6, 40, 96
1, 27936, Note_on_c, 7, 64, 96
1, 27936, Note_on_c, 8, 52, 96
1, 27936, Note_on_c, 8, 68, 96
1, 27957, Note_off_c, 3, 71, 0
1, 27960, Note_on_c, 3, 69, 96
1, 27972, Note_off_c, 4, 62, 0
1, 27978, Note_off_c, 0, 80, 0
1, 27978, Note_off_c, 1, 80, 0
1, 27978, Note_off_c, 5, 52, 0
1, 27978, Note_off_c, 6, 40, 0
1, 27978, Note_off_c, 8, 52, 0
1, 27981, Note_off_c, 3, 69, 0
1, 27984, Note_on_c, 0, 83, 96
1, 27984, Note_on_c, 1, 83, 96
1, 27984, Note_on_c, 3, 68, 96
1, 27984, Note_on_c, 4, 59, 96
1, 27984, Note_on_c, 5, 50, 96
1, 27984, Note_on_c, 6, 38, 96
1, 27984, Note_on_c, 8, 50, 96
1, 28005, Note_off_c, 3, 68, 0
1, 28008, Note_on_c, 3, 71, 96
1, 28026, Note_off_c, 0, 83, 0
1, 28026, Note_off_c, 1, 83, 0
1, 28026, Note_off_c, 4, 59, 0
1, 28026, Note_off_c, 5, 50, 0
1, 28026, Note_off_c, 6, 38, 0
1, 28026, Note_off_c, 8, 50, 0
1, 28029, Note_off_c, 3, 71, 0
1, 28032, Note_on_c, 0, 76, 96
1, 28032, Note_on_c, 1, 76, 96
1, 28032, Note_on_c, 3, 76, 96
1, 28032, Note_on_c, 4, 60, 96
1, 28032, Note_on_c, 5, 48, 96
1, 28032, Note_on_c, 6, 36, 96
1, 28032, Note_on_c, 8, 48, 96
1, 28053, Note_off_c, 4, 60, 0
1, 28056, Note_on_c, 4, 65, 96
1, 28074, Note_off_c, 3, 76, 0
1, 28074, Note_off_c, 5, 48, 0
1, 28074, Note_off_c, 6, 36, 0
1, 28074, Note_off_c, 8, 48, 0
1, 28077, Note_off_c, 4, 65, 0
1, 28080, Note_on_c, 3, 68, 96
1, 28080, Note_on_c, 4, 64, 96
1, 28080, Note_on_c, 5, 47, 96
1, 28080, Note_on_c, 6, 35, 96
1, 28080, Note_on_c, 8, 47, 96
1, 28101, Note_off_c, 4, 64, 0
1, 28104, Note_off_c, 2, 71, 0
1, 28104, Note_on_c, 4, 62, 96
1, 28104, Note_off_c, 7, 71, 0
1, 28104, Note_off_c, 8, 68, 0
1, 28122, Note_off_c, 3, 68, 0
1, 28122, Note_off_c, 5, 47, 0
1, 28122, Note_off_c, 6, 35, 0
1, 28122, Note_off_c, 8, 47, 0
1, 28125, Note_off_c, 4, 62, 0
1, 28128, Note_on_c, 2, 69, 96
1, 28128, Note_on_c, 3, 69, 96
1, 28128, Note_on_c, 4, 60, 96
1, 28128, Note_on_c, 5, 48, 96
1, 28128, Note_on_c, 6, 36, 96
1, 28128, Note_on_c, 7, 69, 96
1, 28128, Note_on_c, 8, 48, 96
1, 28149, Note_off_c, 4, 60, 0
1, 28152, Note_on_c, 4, 62, 96
1, 28170, Note_off_c, 2, 69, 0
1, 28170, Note_off_c, 5, 48, 0
1, 28170, Note_off_c, 6, 36, 0
1, 28170, Note_off_c, 7, 69, 0
1, 28170, Note_off_c, 8, 48, 0
1, 28173, Note_off_c, 4, 62, 0
1, 28176, Note_on_c, 2, 72, 96
1, 28176, Note_on_c, 4, 64, 96
1, 28176, Note_on_c, 5, 45, 96
1, 28176, Note_on_c, 6, 33, 96
1, 28176, Note_on_c, 7, 72, 96
1, 28176, Note_on_c, 8, 45, 96
1, 28197, Note_off_c, 4, 64, 0
1, 28200, Note_on_c, 4, 60, 96
1, 28218, Note_off_c, 2, 72, 0
1, 28218, Note_off_c, 5, 45, 0
1, 28218, Note_off_c, 6, 33, 0
1, 28218, Note_off_c, 7, 72, 0
1, 28218, Note_off_c, 8, 45, 0
1, 28221, Note_off_c, 4, 60, 0
1, 28224, Note_on_c, 2, 66, 96
1, 28224, Note_on_c, 4, 57, 96
1, 28224, Note_on_c, 5, 50, 96
1, 28224, Note_on_c, 6, 38, 96
1, 28224, Note_on_c, 7, 66, 96
1, 28224, Note_on_c, 8, 50, 96
1, 28233, Note_off_c, 3, 69, 0
1, 28248, Note_on_c, 3, 71, 96
1, 28266, Note_off_c, 2, 66, 0
1, 28266, Note_off_c, 5, 50, 0
1, 28266, Note_off_c, 6, 38, 0
1, 28266, Note_off_c, 7, 66, 0
1, 28266, Note_off_c, 8, 50, 0
1, 28269, Note_off_c, 3, 71, 0
1, 28272, Note_on_c, 2, 72, 96
1, 28272, Note_on_c, 3, 69, 96
1, 28272, Note_on_c, 5, 48, 96
1, 28272, Note_on_c, 6, 36, 96
1, 28272, Note_on_c, 7, 72, 96
1, 28272, Note_off_c, 7, 64, 0
1, 28272, Note_on_c, 7, 57, 96
1, 28272, Note_on_c, 8, 48, 96
1, 28293, Note_off_c, 3, 69, 0
1, 28296, Note_off_c, 0, 76, 0
1, 28296, Note_off_c, 1, 76, 0
1, 28296, Note_on_c, 3, 67, 96
1, 28308, Note_off_c, 4, 57, 0
1, 28314, Note_off_c, 2, 72, 0
1, 28314, Note_off_c, 5, 48, 0
1, 28314, Note_off_c, 6, 36, 0
1, 28314, Note_off_c, 7, 72, 0
1, 28314, Note_off_c, 7, 57, 0
1, 28314, Note_off_c, 8, 48, 0
1, 28317, Note_off_c, 3, 67, 0
1, 28320, Note_on_c, 0, 74, 96
1, 28320, Note_on_c, 1, 74, 96
1, 28320, Note_on_c, 2, 71, 96
1, 28320, Note_on_c, 3, 66, 96
1, 28320, Note_on_c, 4, 59, 96
1, 28320, Note_on_c, 5, 50, 96
1, 28320, Note_on_c, 6, 38, 96
1, 28320, Note_on_c, 7, 71, 96
1, 28320, Note_on_c, 7, 62, 96
1, 28320, Note_on_c, 8, 50, 96
1, 28341, Note_off_c, 3, 66, 0
1, 28344, Note_on_c, 3, 68, 96
1, 28362, Note_off_c, 0, 74, 0
1, 28362, Note_off_c, 1, 74, 0
1, 28362, Note_off_c, 2, 71, 0
1, 28362, Note_off_c, 5, 50, 0
1, 28362, Note_off_c, 6, 38, 0
1, 28362, Note_off_c, 7, 71, 0
1, 28362, Note_off_c, 8, 50, 0
1, 28365, Note_off_c, 3, 68, 0
1, 28368, Note_on_c, 0, 77, 96
1, 28368, Note_on_c, 1, 77, 96
1, 28368, Note_on_c, 2, 69, 96
1, 28368, Note_on_c, 3, 69, 96
1, 28368, Note_on_c, 5, 47, 96
1, 28368, Note_on_c, 6, 35, 96
1, 28368, Note_on_c, 7, 69, 96
1, 28368, Note_on_c, 8, 47, 96
1, 28389, Note_off_c, 3, 69, 0
1, 28392, Note_on_c, 3, 66, 96
1, 28404, Note_off_c, 7, 62, 0
1, 28410, Note_off_c, 0, 77, 0
1, 28410, Note_off_c, 1, 77, 0
1, 28410, Note_off_c, 2, 69, 0
1, 28410, Note_off_c, 5, 47, 0
1, 28410, Note_off_c, 6, 35, 0
1, 28410, Note_off_c, 7, 69, 0
1, 28410, Note_off_c, 8, 47, 0
1, 28413, Note_off_c, 3, 66, 0
1, 28416, Note_on_c, 0, 71, 96
1, 28416, Note_on_c, 1, 71, 96
1, 28416, Note_on_c, 2, 68, 96
1, 28416, Note_on_c, 3, 68, 96
1, 28416, Note_on_c, 5, 52, 96
1, 28416, Note_on_c, 6, 40, 96
1, 28416, Note_on_c, 7, 68, 96
1, 28416, Note_on_c, 7, 59, 96
1, 28416, Note_on_c, 8, 52, 96
1, 28437, Note_off_c, 3, 68, 0
1, 28440, Note_on_c, 3, 66, 96
1, 28446, Note_off_c, 4, 59, 0
1, 28458, Note_off_c, 0, 71, 0
1, 28458, Note_off_c, 1, 71, 0
1, 28458, Note_off_c, 2, 68, 0
1, 28458, Note_off_c, 5, 52, 0
1, 28458, Note_off_c, 6, 40, 0
1, 28458, Note_off_c, 7, 68, 0
1, 28458, Note_off_c, 8, 52, 0
1, 28461, Note_off_c, 3, 66, 0
1, 28464, Note_on_c, 0, 77, 96
1, 28464, Note_on_c, 1, 77, 96
1, 28464, Note_on_c, 2, 69, 96
1, 28464, Note_on_c, 3, 64, 96
1, 28464, Note_on_c, 4, 60, 96
1, 28464, Note_on_c, 5, 50, 96
1, 28464, Note_on_c, 6, 38, 96
1, 28464, Note_on_c, 7, 69, 96
1, 28464, Note_on_c, 8, 50, 96
1, 28485, Note_off_c, 3, 64, 0
1, 28485, Note_off_c, 4, 60, 0
1, 28488, Note_on_c, 3, 66, 96
1, 28488, Note_on_c, 4, 62, 96
1, 28500, Note_off_c, 7, 59, 0
1, 28506, Note_off_c, 0, 77, 0
1, 28506, Note_off_c, 1, 77, 0
1, 28506, Note_off_c, 2, 69, 0
1, 28506, Note_off_c, 5, 50, 0
1, 28506, Note_off_c, 6, 38, 0
1, 28506, Note_off_c, 7, 69, 0
1, 28506, Note_off_c, 8, 50, 0
1, 28509, Note_off_c, 3, 66, 0
1, 28509, Note_off_c, 4, 62, 0
1, 28512, Note_on_c, 0, 76, 96
1, 28512, Note_on_c, 1, 76, 96
1, 28512, Note_on_c, 2, 71, 96
1, 28512, Note_on_c, 3, 68, 96
1, 28512, Note_on_c, 4, 64, 96
1, 28512, Note_on_c, 5, 48, 96
1, 28512, Note_on_c, 6, 36, 96
1, 28512, Note_on_c, 7, 71, 96
1, 28512, Note_on_c, 7, 68, 96
1, 28512, Note_on_c, 7, 64, 96
1, 28512, Note_on_c, 8, 48, 96
1, 28533, Note_off_c, 3, 68, 0
1, 28536, Note_on_c, 3, 69, 96
1, 28554, Note_off_c, 0, 76, 0
1, 28554, Note_off_c, 1, 76, 0
1, 28554, Note_off_c, 5, 48, 0
1, 28554, Note_off_c, 6, 36, 0
1, 28554, Note_off_c, 8, 48, 0
1, 28557, Note_off_c, 3, 69, 0
1, 28560, Note_on_c, 0, 74, 96
1, 28560, Note_on_c, 1, 74, 96
1, 28560, Note_on_c, 3, 71, 96
1, 28560, Note_on_c, 5, 47, 96
1, 28560, Note_on_c, 6, 35, 96
1, 28560, Note_on_c, 8, 47, 96
1, 28581, Note_off_c, 3, 71, 0
1, 28584, Note_on_c, 3, 68, 96
1, 28602, Note_off_c, 0, 74, 0
1, 28602, Note_off_c, 1, 74, 0
1, 28602, Note_off_c, 5, 47, 0
1, 28602, Note_off_c, 6, 35, 0
1, 28602, Note_off_c, 8, 47, 0
1, 28605, Note_off_c, 3, 68, 0
1, 28608, Note_on_c, 0, 72, 96
1, 28608, Note_on_c, 1, 72, 96
1, 28608, Note_on_c, 3, 64, 96
1, 28608, Note_on_c, 5, 45, 96
1, 28608, Note_on_c, 6, 33, 96
1, 28608, Note_on_c, 8, 45, 96
1, 28617, Note_off_c, 4, 64, 0
1, 28632, Note_on_c, 4, 65, 96
1, 28650, Note_off_c, 0, 72, 0
1, 28650, Note_off_c, 1, 72, 0
1, 28650, Note_off_c, 5, 45, 0
1, 28650, Note_off_c, 6, 33, 0
1, 28650, Note_off_c, 8, 45, 0
1, 28653, Note_off_c, 4, 65, 0
1, 28656, Note_on_c, 0, 74, 96
1, 28656, Note_on_c, 1, 74, 96
1, 28656, Note_on_c, 4, 64, 96
1, 28656, Note_on_c, 5, 47, 96
1, 28656, Note_on_c, 6, 35, 96
1, 28656, Note_on_c, 8, 47, 96
1, 28677, Note_off_c, 4, 64, 0
1, 28680, Note_off_c, 2, 71, 0
1, 28680, Note_on_c, 4, 62, 96
1, 28680, Note_off_c, 7, 71, 0
1, 28680, Note_off_c, 7, 68, 0
1, 28680, Note_off_c, 7, 64, 0
1, 28698, Note_off_c, 0, 74, 0
1, 28698, Note_off_c, 1, 74, 0
1, 28698, Note_off_c, 5, 47, 0
1, 28698, Note_off_c, 6, 35, 0
1, 28698, Note_off_c, 8, 47, 0
1, 28701, Note_off_c, 4, 62, 0
1, 28704, Note_on_c, 0, 76, 96
1, 28704, Note_on_c, 1, 76, 96
1, 28704, Note_on_c, 2, 69, 96
1, 28704, Note_on_c, 4, 60, 96
1, 28704, Note_on_c, 5, 48, 96
1, 28704, Note_on_c, 6, 36, 96
1, 28704, Note_on_c, 7, 69, 96
1, 28704, Note_on_c, 7, 64, 96
1, 28704, Note_on_c, 7, 60, 96
1, 28704, Note_on_c, 8, 48, 96
1, 28725, Note_off_c, 4, 60, 0
1, 28728, Note_on_c, 4, 59, 96
1, 28746, Note_off_c, 0, 76, 0
1, 28746, Note_off_c, 1, 76, 0
1, 28746, Note_off_c, 5, 48, 0
1, 28746, Note_off_c, 6, 36, 0
1, 28746, Note_off_c, 8, 48, 0
1, 28749, Note_off_c, 4, 59, 0
1, 28752, Note_on_c, 0, 77, 96
1, 28752, Note_on_c, 1, 77, 96
1, 28752, Note_on_c, 4, 57, 96
1, 28752, Note_on_c, 5, 50, 96
1, 28752, Note_on_c, 6, 38, 96
1, 28752, Note_on_c, 8, 50, 96
1, 28773, Note_off_c, 4, 57, 0
1, 28776, Note_on_c, 4, 59, 96
1, 28794, Note_off_c, 0, 77, 0
1, 28794, Note_off_c, 1, 77, 0
1, 28794, Note_off_c, 5, 50, 0
1, 28794, Note_off_c, 6, 38, 0
1, 28794, Note_off_c, 8, 50, 0
1, 28797, Note_off_c, 4, 59, 0
1, 28800, Note_on_c, 0, 72, 96
1, 28800, Note_on_c, 1, 72, 96
1, 28800, Note_on_c, 4, 60, 96
1, 28800, Note_on_c, 5, 52, 96
1, 28800, Note_on_c, 6, 40, 96
1, 28800, Note_on_c, 8, 52, 96
1, 28821, Note_off_c, 4, 60, 0
1, 28824, Note_off_c, 3, 64, 0
1, 28824, Note_on_c, 4, 62, 96
1, 28842, Note_off_c, 5, 52, 0
1, 28842, Note_off_c, 6, 40, 0
1, 28842, Note_off_c, 8, 52, 0
1, 28845, Note_off_c, 4, 62, 0
1, 28848, Note_on_c, 3, 57, 96
1, 28848, Note_on_c, 4, 64, 96
1, 28848, Note_on_c, 5, 50, 96
1, 28848, Note_on_c, 6, 38, 96
1, 28848, Note_on_c, 8, 50, 96
1, 28869, Note_off_c, 4, 64, 0
1, 28872, Note_off_c, 2, 69, 0
1, 28872, Note_on_c, 4, 65, 96
1, 28872, Note_off_c, 7, 69, 0
1, 28872, Note_off_c, 7, 64, 0
1, 28872, Note_off_c, 7, 60, 0
1, 28884, Note_off_c, 0, 72, 0
1, 28884, Note_off_c, 1, 72, 0
1, 28890, Note_off_c, 3, 57, 0
1, 28890, Note_off_c, 5, 50, 0
1, 28890, Note_off_c, 6, 38, 0
1, 28890, Note_off_c, 8, 50, 0
1, 28893, Note_off_c, 4, 65, 0
1, 28896, Note_on_c, 0, 71, 96
1, 28896, Note_on_c, 1, 71, 96
1, 28896, Note_on_c, 2, 68, 96
1, 28896, Note_on_c, 3, 64, 96
1, 28896, Note_on_c, 4, 59, 96
1, 28896, Note_on_c, 5, 52, 96
1, 28896, Note_on_c, 6, 40, 96
1, 28896, Note_on_c, 7, 68, 96
1, 28896, Note_on_c, 7, 64, 96
1, 28896, Note_on_c, 7, 62, 96
1, 28896, Note_on_c, 8, 52, 96
1, 28917, Note_off_c, 4, 59, 0
1, 28920, Note_on_c, 4, 60, 96
1, 28938, Note_off_c, 5, 52, 0
1, 28938, Note_off_c, 6, 40, 0
1, 28938, Note_off_c, 8, 52, 0
1, 28941, Note_off_c, 4, 60, 0
1, 28944, Note_on_c, 4, 62, 96
1, 28944, Note_on_c, 5, 40, 96
1, 28944, Note_on_c, 6, 28, 96
1, 28944, Note_on_c, 8, 40, 96
1, 28965, Note_off_c, 4, 62, 0
1, 28968, Note_on_c, 4, 64, 96
1, 28980, Note_off_c, 0, 71, 0
1, 28980, Note_off_c, 1, 71, 0
1, 28980, Note_off_c, 2, 68, 0
1, 28980, Note_off_c, 7, 68, 0
1, 28980, Note_off_c, 7, 64, 0
1, 28980, Note_off_c, 7, 62, 0
1, 28986, Note_off_c, 5, 40, 0
1, 28986, Note_off_c, 6, 28, 0
1, 28986, Note_off_c, 8, 40, 0
1, 28989, Note_off_c, 4, 64, 0
1, 28992, Note_on_c, 0, 69, 96
1, 28992, Note_on_c, 1, 69, 96
1, 28992, Note_on_c, 2, 69, 96
1, 28992, Note_on_c, 4, 60, 96
1, 28992, Note_on_c, 5, 45, 96
1, 28992, Note_on_c, 6, 33, 96
1, 28992, Note_on_c, 7, 69, 96
1, 28992, Note_on_c, 8, 45, 96
1, 29002, Note_off_c, 7, 69, 0
1, 29004, Note_on_c, 7, 81, 96
1, 29014, Note_off_c, 7, 81, 0
1, 29016, Note_on_c, 7, 79, 96
1, 29026, Note_off_c, 7, 79, 0
1, 29028, Note_on_c, 7, 77, 96
1, 29038, Note_off_c, 7, 77, 0
1, 29040, Note_on_c, 7, 76, 96
1, 29050, Note_off_c, 7, 76, 0
1, 29052, Note_on_c, 7, 74, 96
1, 29062, Note_off_c, 7, 74, 0
1, 29064, Note_off_c, 3, 64, 0
1, 29064, Note_on_c, 7, 72, 96
1, 29074, Note_off_c, 7, 72, 0
1, 29076, Note_off_c, 0, 69, 0
1, 29076, Note_off_c, 1, 69, 0
1, 29076, Note_off_c, 2, 69, 0
1, 29076, Note_off_c, 4, 60, 0
1, 29076, Note_off_c, 5, 45, 0
1, 29076, Note_off_c, 6, 33, 0
1, 29076, Note_on_c, 7, 71, 96
1, 29076, Note_off_c, 8, 45, 0
1, 29086, Note_off_c, 7, 71, 0
1, 29088, Note_on_c, 0, 81, 96
1, 29088, Note_on_c, 1, 72, 96
1, 29088, Note_on_c, 7, 69, 96
1, 29109, Note_off_c, 7, 69, 0
1, 29112, Note_on_c, 7, 76, 96
1, 29133, Note_off_c, 7, 76, 0
1, 29136, Note_on_c, 2, 76, 96
1, 29136, Note_on_c, 3, 72, 96
1, 29136, Note_on_c, 4, 57, 96
1, 29136, Note_on_c, 7, 72, 96
1, 29157, Note_off_c, 7, 72, 0
1, 29160, Note_on_c, 7, 69, 96
1, 29178, Note_off_c, 2, 76, 0
1, 29178, Note_off_c, 3, 72, 0
1, 29178, Note_off_c, 4, 57, 0
1, 29181, Note_off_c, 7, 69, 0
1, 29184, Note_on_c, 2, 78, 96
1, 29184, Note_on_c, 3, 69, 96
1, 29184, Note_on_c, 4, 62, 96
1, 29184, Note_on_c, 7, 62, 96
1, 29214, Note_off_c, 0, 81, 0
1, 29214, Note_off_c, 1, 72, 0
1, 29226, Note_off_c, 2, 78, 0
1, 29226, Note_off_c, 7, 62, 0
1, 29232, Note_on_c, 0, 78, 96
1, 29232, Note_on_c, 1, 69, 96
1, 29232, Note_on_c, 2, 81, 96
1, 29232, Note_on_c, 5, 50, 96
1, 29232, Note_on_c, 6, 38, 96
1, 29232, Note_on_c, 7, 81, 96
1, 29232, Note_on_c, 8, 50, 96
1, 29253, Note_off_c, 0, 78, 0
1, 29253, Note_off_c, 1, 69, 0
1, 29256, Note_on_c, 0, 79, 96
1, 29256, Note_on_c, 1, 70, 96
1, 29268, Note_off_c, 3, 69, 0
1, 29268, Note_off_c, 4, 62, 0
1, 29274, Note_off_c, 2, 81, 0
1, 29274, Note_off_c, 5, 50, 0
1, 29274, Note_off_c, 6, 38, 0
1, 29274, Note_off_c, 7, 81, 0
1, 29274, Note_off_c, 8, 50, 0
1, 29277, Note_off_c, 0, 79, 0
1, 29277, Note_off_c, 1, 70, 0
1, 29280, Note_on_c, 0, 81, 96
1, 29280, Note_on_c, 1, 72, 96
1, 29280, Note_on_c, 2, 74, 96
1, 29280, Note_on_c, 5, 48, 96
1, 29280, Note_on_c, 6, 36, 96
1, 29280, Note_on_c, 7, 74, 96
1, 29280, Note_on_c, 8, 48, 96
1, 29322, Note_off_c, 0, 81, 0
1, 29322, Note_off_c, 1, 72, 0
1, 29322, Note_off_c, 2, 74, 0
1, 29322, Note_off_c, 5, 48, 0
1, 29322, Note_off_c, 6, 36, 0
1, 29322, Note_off_c, 7, 74, 0
1, 29322, Note_off_c, 8, 48, 0
1, 29328, Note_on_c, 0, 79, 96
1, 29328, Note_on_c, 1, 70, 96
1, 29328, Note_on_c, 2, 78, 96
1, 29328, Note_on_c, 3, 69, 96
1, 29328, Note_on_c, 4, 62, 96
1, 29328, Note_on_c, 5, 50, 96
1, 29328, Note_on_c, 6, 38, 96
1, 29328, Note_on_c, 7, 79, 96
1, 29328, Note_on_c, 8, 50, 96
1, 29340, Note_off_c, 7, 79, 0
1, 29340, Note_on_c, 7, 78, 96
1, 29349, Note_off_c, 0, 79, 0
1, 29349, Note_off_c, 1, 70, 0
1, 29352, Note_on_c, 0, 78, 96
1, 29352, Note_on_c, 1, 69, 96
1, 29352, Note_off_c, 7, 78, 0
1, 29352, Note_on_c, 7, 76, 96
1, 29364, Note_off_c, 7, 76, 0
1, 29364, Note_on_c, 7, 78, 96
1, 29370, Note_off_c, 2, 78, 0
1, 29370, Note_off_c, 3, 69, 0
1, 29370, Note_off_c, 4, 62, 0
1, 29370, Note_off_c, 5, 50, 0
1, 29370, Note_off_c, 6, 38, 0
1, 29370, Note_off_c, 8, 50, 0
1, 29373, Note_off_c, 0, 78, 0
1, 29373, Note_off_c, 1, 69, 0
1, 29374, Note_off_c, 7, 78, 0
1, 29376, Note_on_c, 0, 79, 96
1, 29376, Note_on_c, 1, 70, 96
1, 29376, Note_on_c, 2, 79, 96
1, 29376, Note_on_c, 3, 70, 96
1, 29376, Note_on_c, 4, 62, 96
1, 29376, Note_on_c, 5, 43, 96
1, 29376, Note_on_c, 6, 31, 96
1, 29376, Note_on_c, 7, 67, 96
1, 29376, Note_on_c, 8, 43, 96
1, 29386, Note_off_c, 7, 67, 0
1, 29388, Note_on_c, 7, 79, 96
1, 29398, Note_off_c, 7, 79, 0
1, 29400, Note_on_c, 7, 77, 96
1, 29410, Note_off_c, 7, 77, 0
1, 29412, Note_on_c, 7, 75, 96
1, 29422, Note_off_c, 7, 75, 0
1, 29424, Note_on_c, 7, 74, 96
1, 29434, Note_off_c, 7, 74, 0
1, 29436, Note_on_c, 7, 72, 96
1, 29446, Note_off_c, 7, 72, 0
1, 29448, Note_on_c, 7, 70, 96
1, 29458, Note_off_c, 7, 70, 0
1, 29460, Note_off_c, 0, 79, 0
1, 29460, Note_off_c, 1, 70, 0
1, 29460, Note_off_c, 2, 79, 0
1, 29460, Note_off_c, 3, 70, 0
1, 29460, Note_off_c, 4, 62, 0
1, 29460, Note_off_c, 5, 43, 0
1, 29460, Note_off_c, 6, 31, 0
1, 29460, Note_on_c, 7, 69, 96
1, 29460, Note_off_c, 8, 43, 0
1, 29470, Note_off_c, 7, 69, 0
1, 29472, Note_on_c, 0, 79, 96
1, 29472, Note_on_c, 1, 70, 96
1, 29472, Note_on_c, 7, 67, 96
1, 29493, Note_off_c, 7, 67, 0
1, 29496, Note_on_c, 7, 74, 96
1, 29517, Note_off_c, 7, 74, 0
1, 29520, Note_on_c, 2, 74, 96
1, 29520, Note_on_c, 3, 70, 96
1, 29520, Note_on_c, 4, 55, 96
1, 29520, Note_on_c, 7, 70, 96
1, 29541, Note_off_c, 7, 70, 0
1, 29544, Note_on_c, 7, 67, 96
1, 29562, Note_off_c, 2, 74, 0
1, 29562, Note_off_c, 3, 70, 0
1, 29562, Note_off_c, 4, 55, 0
1, 29565, Note_off_c, 7, 67, 0
1, 29568, Note_on_c, 2, 76, 96
1, 29568, Note_on_c, 3, 67, 96
1, 29568, Note_on_c, 4, 60, 96
1, 29568, Note_on_c, 7, 60, 96
1, 29598, Note_off_c, 0, 79, 0
1, 29598, Note_off_c, 1, 70, 0
1, 29610, Note_off_c, 2, 76, 0
1, 29610, Note_off_c, 7, 60, 0
1, 29616, Note_on_c, 0, 76, 96
1, 29616, Note_on_c, 1, 67, 96
1, 29616, Note_on_c, 2, 79, 96
1, 29616, Note_on_c, 5, 48, 96
1, 29616, Note_on_c, 6, 36, 96
1, 29616, Note_on_c, 7, 79, 96
1, 29616, Note_on_c, 8, 48, 96
1, 29637, Note_off_c, 0, 76, 0
1, 29637, Note_off_c, 1, 67, 0
1, 29640, Note_on_c, 0, 77, 96
1, 29640, Note_on_c, 1, 69, 96
1, 29652, Note_off_c, 3, 67, 0
1, 29652, Note_off_c, 4, 60, 0
1, 29658, Note_off_c, 2, 79, 0
1, 29658, Note_off_c, 5, 48, 0
1, 29658, Note_off_c, 6, 36, 0
1, 29658, Note_off_c, 7, 79, 0
1, 29658, Note_off_c, 8, 48, 0
1, 29661, Note_off_c, 0, 77, 0
1, 29661, Note_off_c, 1, 69, 0
1, 29664, Note_on_c, 0, 79, 96
1, 29664, Note_on_c, 1, 70, 96
1, 29664, Note_on_c, 2, 72, 96
1, 29664, Note_on_c, 5, 46, 96
1, 29664, Note_on_c, 6, 34, 96
1, 29664, Note_on_c, 7, 72, 96
1, 29664, Note_on_c, 8, 46, 96
1, 29706, Note_off_c, 0, 79, 0
1, 29706, Note_off_c, 1, 70, 0
1, 29706, Note_off_c, 2, 72, 0
1, 29706, Note_off_c, 5, 46, 0
1, 29706, Note_off_c, 6, 34, 0
1, 29706, Note_off_c, 7, 72, 0
1, 29706, Note_off_c, 8, 46, 0
1, 29712, Note_on_c, 0, 77, 96
1, 29712, Note_on_c, 1, 69, 96
1, 29712, Note_on_c, 2, 76, 96
1, 29712, Note_on_c, 3, 67, 96
1, 29712, Note_on_c, 4, 60, 96
1, 29712, Note_on_c, 5, 48, 96
1, 29712, Note_on_c, 6, 36, 96
1, 29712, Note_on_c, 7, 77, 96
1, 29712, Note_on_c, 8, 48, 96
1, 29724, Note_off_c, 7, 77, 0
1, 29724, Note_on_c, 7, 76, 96
1, 29733, Note_off_c, 0, 77, 0
1, 29733, Note_off_c, 1, 69, 0
1, 29736, Note_on_c, 0, 76, 96
1, 29736, Note_on_c, 1, 67, 96
1, 29736, Note_off_c, 7, 76, 0
1, 29736, Note_on_c, 7, 74, 96
1, 29748, Note_off_c, 7, 74, 0
1, 29748, Note_on_c, 7, 76, 96
1, 29754, Note_off_c, 2, 76, 0
1, 29754, Note_off_c, 3, 67, 0
1, 29754, Note_off_c, 4, 60, 0
1, 29754, Note_off_c, 5, 48, 0
1, 29754, Note_off_c, 6, 36, 0
1, 29754, Note_off_c, 8, 48, 0
1, 29757, Note_off_c, 0, 76, 0
1, 29757, Note_off_c, 1, 67, 0
1, 29758, Note_off_c, 7, 76, 0
1, 29760, Note_on_c, 0, 77, 96
1, 29760, Note_on_c, 1, 69, 96
1, 29760, Note_on_c, 2, 77, 96
1, 29760, Note_on_c, 3, 69, 96
1, 29760, Note_on_c, 4, 60, 96
1, 29760, Note_on_c, 5, 41, 96
1, 29760, Note_on_c, 6, 29, 96
1, 29760, Note_on_c, 7, 65, 96
1, 29760, Note_on_c, 8, 41, 96
1, 29770, Note_off_c, 7, 65, 0
1, 29772, Note_on_c, 7, 77, 96
1, 29782, Note_off_c, 7, 77, 0
1, 29784, Note_on_c, 7, 76, 96
1, 29794, Note_off_c, 7, 76, 0
1, 29796, Note_on_c, 7, 74, 96
1, 29806, Note_off_c, 7, 74, 0
1, 29808, Note_on_c, 7, 72, 96
1, 29818, Note_off_c, 7, 72, 0
1, 29820, Note_on_c, 7, 70, 96
1, 29830, Note_off_c, 7, 70, 0
1, 29832, Note_on_c, 7, 69, 96
1, 29842, Note_off_c, 7, 69, 0
1, 29844, Note_off_c, 2, 77, 0
1, 29844, Note_off_c, 3, 69, 0
1, 29844, Note_off_c, 4, 60, 0
1, 29844, Note_off_c, 5, 41, 0
1, 29844, Note_off_c, 6, 29, 0
1, 29844, Note_on_c, 7, 67, 96
1, 29844, Note_off_c, 8, 41, 0
1, 29854, Note_off_c, 7, 67, 0
1, 29856, Note_on_c, 7, 65, 96
1, 29877, Note_off_c, 7, 65, 0
1, 29880, Note_on_c, 7, 72, 96
1, 29901, Note_off_c, 7, 72, 0
1, 29904, Note_on_c, 2, 72, 96
1, 29904, Note_on_c, 3, 69, 96
1, 29904, Note_on_c, 4, 65, 96
1, 29904, Note_on_c, 7, 69, 96
1, 29925, Note_off_c, 7, 69, 0
1, 29928, Note_on_c, 7, 65, 96
1, 29946, Note_off_c, 2, 72, 0
1, 29946, Note_off_c, 3, 69, 0
1, 29946, Note_off_c, 4, 65, 0
1, 29949, Note_off_c, 7, 65, 0
1, 29952, Note_on_c, 2, 77, 96
1, 29952, Note_on_c, 3, 69, 96
1, 29952, Note_on_c, 4, 62, 96
1, 29952, Note_on_c, 7, 62, 96
1, 29962, Note_off_c, 7, 62, 0
1, 29964, Note_on_c, 7, 74, 96
1, 29974, Note_off_c, 7, 74, 0
1, 29976, Note_on_c, 7, 72, 96
1, 29986, Note_off_c, 7, 72, 0
1, 29988, Note_on_c, 7, 70, 96
1, 29994, Note_off_c, 2, 77, 0
1, 29994, Note_off_c, 3, 69, 0
1, 29994, Note_off_c, 4, 62, 0
1, 29998, Note_off_c, 7, 70, 0
1, 30000, Note_on_c, 2, 81, 96
1, 30000, Note_on_c, 3, 74, 96
1, 30000, Note_on_c, 4, 65, 96
1, 30000, Note_on_c, 7, 69, 96
1, 30010, Note_off_c, 7, 69, 0
1, 30012, Note_on_c, 7, 67, 96
1, 30022, Note_off_c, 7, 67, 0
1, 30024, Note_on_c, 7, 65, 96
1, 30034, Note_off_c, 7, 65, 0
1, 30036, Note_on_c, 7, 64, 96
1, 30042, Note_off_c, 2, 81, 0
1, 30042, Note_off_c, 3, 74, 0
1, 30042, Note_off_c, 4, 65, 0
1, 30046, Note_off_c, 7, 64, 0
1, 30048, Note_on_c, 2, 77, 96
1, 30048, Note_on_c, 3, 69, 96
1, 30048, Note_on_c, 4, 62, 96
1, 30048, Note_on_c, 7, 62, 96
1, 30069, Note_off_c, 7, 62, 0
1, 30072, Note_on_c, 7, 69, 96
1, 30090, Note_off_c, 2, 77, 0
1, 30090, Note_off_c, 3, 69, 0
1, 30090, Note_off_c, 4, 62, 0
1, 30093, Note_off_c, 7, 69, 0
1, 30096, Note_on_c, 2, 74, 96
1, 30096, Note_on_c, 3, 69, 96
1, 30096, Note_on_c, 4, 65, 96
1, 30096, Note_on_c, 7, 65, 96
1, 30117, Note_off_c, 7, 65, 0
1, 30120, Note_off_c, 1, 69, 0
1, 30120, Note_on_c, 7, 62, 96
1, 30138, Note_off_c, 2, 74, 0
1, 30138, Note_off_c, 3, 69, 0
1, 30138, Note_off_c, 4, 65, 0
1, 30141, Note_off_c, 7, 62, 0
1, 30144, Note_on_c, 1, 67, 96
1, 30144, Note_on_c, 2, 79, 96
1, 30144, Note_on_c, 3, 74, 96
1, 30144, Note_on_c, 4, 59, 96
1, 30144, Note_on_c, 7, 59, 96
1, 30154, Note_off_c, 7, 59, 0
1, 30156, Note_on_c, 7, 67, 96
1, 30166, Note_off_c, 7, 67, 0
1, 30168, Note_off_c, 0, 77, 0
1, 30168, Note_on_c, 7, 65, 96
1, 30178, Note_off_c, 7, 65, 0
1, 30180, Note_on_c, 7, 64, 96
1, 30186, Note_off_c, 1, 67, 0
1, 30186, Note_off_c, 2, 79, 0
1, 30186, Note_off_c, 3, 74, 0
1, 30186, Note_off_c, 4, 59, 0
1, 30190, Note_off_c, 7, 64, 0
1, 30192, Note_on_c, 0, 74, 96
1, 30192, Note_on_c, 1, 71, 96
1, 30192, Note_on_c, 2, 74, 96
1, 30192, Note_on_c, 3, 71, 96
1, 30192, Note_on_c, 4, 67, 96
1, 30192, Note_on_c, 5, 43, 96
1, 30192, Note_on_c, 6, 31, 96
1, 30192, Note_on_c, 7, 62, 96
1, 30192, Note_on_c, 8, 43, 96
1, 30202, Note_off_c, 7, 62, 0
1, 30204, Note_on_c, 7, 60, 96
1, 30213, Note_off_c, 0, 74, 0
1, 30213, Note_off_c, 1, 71, 0
1, 30214, Note_off_c, 7, 60, 0
1, 30216, Note_on_c, 0, 76, 96
1, 30216, Note_on_c, 1, 72, 96
1, 30216, Note_on_c, 7, 59, 96
1, 30226, Note_off_c, 7, 59, 0
1, 30228, Note_on_c, 7, 57, 96
1, 30234, Note_off_c, 2, 74, 0
1, 30234, Note_off_c, 3, 71, 0
1, 30234, Note_off_c, 4, 67, 0
1, 30234, Note_off_c, 5, 43, 0
1, 30234, Note_off_c, 6, 31, 0
1, 30234, Note_off_c, 8, 43, 0
1, 30237, Note_off_c, 0, 76, 0
1, 30237, Note_off_c, 1, 72, 0
1, 30238, Note_off_c, 7, 57, 0
1, 30240, Note_on_c, 0, 77, 96
1, 30240, Note_on_c, 1, 74, 96
1, 30240, Note_on_c, 2, 67, 96
1, 30240, Note_on_c, 3, 71, 96
1, 30240, Note_on_c, 4, 62, 96
1, 30240, Note_on_c, 5, 41, 96
1, 30240, Note_on_c, 6, 29, 96
1, 30240, Note_on_c, 7, 55, 96
1, 30240, Note_on_c, 8, 41, 96
1, 30282, Note_off_c, 0, 77, 0
1, 30282, Note_off_c, 1, 74, 0
1, 30282, Note_off_c, 2, 67, 0
1, 30282, Note_off_c, 3, 71, 0
1, 30282, Note_off_c, 4, 62, 0
1, 30282, Note_off_c, 5, 41, 0
1, 30282, Note_off_c, 6, 29, 0
1, 30282, Note_off_c, 7, 55, 0
1, 30282, Note_off_c, 8, 41, 0
1, 30288, Note_on_c, 0, 76, 96
1, 30288, Note_on_c, 1, 72, 96
1, 30288, Note_on_c, 2, 71, 96
1, 30288, Note_on_c, 3, 67, 96
1, 30288, Note_on_c, 4, 62, 96
1, 30288, Note_on_c, 5, 43, 96
1, 30288, Note_on_c, 6, 31, 96
1, 30288, Note_on_c, 7, 79, 96
1, 30288, Note_on_c, 8, 43, 96
1, 30309, Note_off_c, 0, 76, 0
1, 30309, Note_off_c, 1, 72, 0
1, 30312, Note_on_c, 0, 74, 96
1, 30312, Note_on_c, 1, 71, 96
1, 30330, Note_off_c, 2, 71, 0
1, 30330, Note_off_c, 3, 67, 0
1, 30330, Note_off_c, 4, 62, 0
1, 30330, Note_off_c, 5, 43, 0
1, 30330, Note_off_c, 6, 31, 0
1, 30330, Note_off_c, 7, 79, 0
1, 30330, Note_off_c, 8, 43, 0
1, 30333, Note_off_c, 0, 74, 0
1, 30333, Note_off_c, 1, 71, 0
1, 30336, Note_on_c, 0, 76, 96
1, 30336, Note_on_c, 1, 72, 96
1, 30336, Note_on_c, 2, 72, 96
1, 30336, Note_on_c, 3, 67, 96
1, 30336, Note_on_c, 4, 60, 96
1, 30336, Note_on_c, 5, 36, 96
1, 30336, Note_on_c, 6, 24, 96
1, 30336, Note_on_c, 7, 76, 96
1, 30336, Note_on_c, 8, 36, 96
1, 30357, Note_off_c, 0, 76, 0
1, 30357, Note_off_c, 7, 76, 0
1, 30360, Note_on_c, 0, 72, 96
1, 30360, Note_on_c, 7, 72, 80
1, 30381, Note_off_c, 0, 72, 0
1, 30381, Note_off_c, 7, 72, 0
1, 30384, Note_on_c, 0, 74, 96
1, 30384, Note_on_c, 7, 70, 80
1, 30405, Note_off_c, 0, 74, 0
1, 30405, Note_off_c, 7, 70, 0
1, 30408, Note_on_c, 0, 76, 96
1, 30408, Note_on_c, 7, 72, 80
1, 30420, Note_off_c, 1, 72, 0
1, 30420, Note_off_c, 2, 72, 0
1, 30420, Note_off_c, 3, 67, 0
1, 30420, Note_off_c, 4, 60, 0
1, 30420, Note_off_c, 5, 36, 0
1, 30420, Note_off_c, 6, 24, 0
1, 30420, Note_off_c, 8, 36, 0
1, 30429, Note_off_c, 0, 76, 0
1, 30429, Note_off_c, 7, 72, 0
1, 30432, Note_on_c, 0, 77, 96
1, 30432, Note_on_c, 7, 69, 80
1, 30456, Note_on_c, 1, 65, 96
1, 30456, Note_on_c, 8, 50, 80
1, 30474, Note_off_c, 7, 69, 0
1, 30477, Note_off_c, 1, 65, 0
1, 30477, Note_off_c, 8, 50, 0
1, 30480, Note_on_c, 1, 67, 96
1, 30480, Note_on_c, 7, 74, 80
1, 30480, Note_on_c, 8, 52, 80
1, 30501, Note_off_c, 1, 67, 0
1, 30501, Note_off_c, 8, 52, 0
1, 30504, Note_on_c, 1, 69, 96
1, 30504, Note_on_c, 8, 53, 80
1, 30525, Note_off_c, 1, 69, 0
1, 30525, Note_off_c, 8, 53, 0
1, 30528, Note_on_c, 1, 70, 96
1, 30528, Note_on_c, 8, 55, 80
1, 30537, Note_off_c, 0, 77, 0
1, 30543, Note_off_c, 7, 74, 0
1, 30549, Note_off_c, 8, 55, 0
1, 30552, Note_on_c, 0, 74, 96
1, 30552, Note_on_c, 7, 77, 80
1, 30552, Note_on_c, 8, 57, 80
1, 30573, Note_off_c, 0, 74, 0
1, 30573, Note_off_c, 7, 77, 0
1, 30573, Note_off_c, 8, 57, 0
1, 30576, Note_on_c, 0, 76, 96
1, 30576, Note_on_c, 7, 76, 80
1, 30576, Note_on_c, 8, 55, 80
1, 30597, Note_off_c, 0, 76, 0
1, 30597, Note_off_c, 7, 76, 0
1, 30597, Note_off_c, 8, 55, 0
1, 30600, Note_on_c, 0, 77, 96
1, 30600, Note_on_c, 7, 74, 80
1, 30600, Note_on_c, 8, 53, 80
1, 30621, Note_off_c, 0, 77, 0
1, 30621, Note_off_c, 7, 74, 0
1, 30621, Note_off_c, 8, 53, 0
1, 30624, Note_on_c, 0, 79, 96
1, 30624, Note_on_c, 7, 72, 80
1, 30624, Note_on_c, 8, 52, 80
1, 30633, Note_off_c, 1, 70, 0
1, 30645, Note_off_c, 7, 72, 0
1, 30648, Note_on_c, 1, 67, 96
1, 30648, Note_on_c, 7, 70, 80
1, 30666, Note_off_c, 0, 79, 0
1, 30666, Note_off_c, 8, 52, 0
1, 30669, Note_off_c, 1, 67, 0
1, 30669, Note_off_c, 7, 70, 0
1, 30672, Note_on_c, 0, 77, 96
1, 30672, Note_on_c, 1, 69, 96
1, 30672, Note_on_c, 7, 69, 80
1, 30672, Note_on_c, 8, 53, 80
1, 30693, Note_off_c, 0, 77, 0
1, 30693, Note_off_c, 1, 69, 0
1, 30693, Note_off_c, 7, 69, 0
1, 30693, Note_off_c, 8, 53, 0
1, 30696, Note_on_c, 0, 76, 96
1, 30696, Note_on_c, 1, 70, 96
1, 30696, Note_on_c, 7, 67, 80
1, 30696, Note_on_c, 8, 55, 80
1, 30717, Note_off_c, 0, 76, 0
1, 30717, Note_off_c, 1, 70, 0
1, 30717, Note_off_c, 7, 67, 0
1, 30717, Note_off_c, 8, 55, 0
1, 30720, Note_on_c, 0, 77, 96
1, 30720, Note_on_c, 1, 72, 96
1, 30720, Note_on_c, 7, 65, 80
1, 30720, Note_on_c, 8, 57, 80
1, 30741, Note_off_c, 8, 57, 0
1, 30744, Note_on_c, 8, 55, 80
1, 30762, Note_off_c, 0, 77, 0
1, 30762, Note_off_c, 1, 72, 0
1, 30762, Note_off_c, 7, 65, 0
1, 30765, Note_off_c, 8, 55, 0
1, 30768, Note_on_c, 0, 72, 96
1, 30768, Note_on_c, 1, 70, 96
1, 30768, Note_on_c, 7, 77, 80
1, 30768, Note_on_c, 8, 53, 80
1, 30789, Note_off_c, 1, 70, 0
1, 30789, Note_off_c, 8, 53, 0
1, 30792, Note_on_c, 1, 69, 96
1, 30792, Note_on_c, 8, 52, 80
1, 30810, Note_off_c, 0, 72, 0
1, 30813, Note_off_c, 1, 69, 0
1, 30813, Note_off_c, 8, 52, 0
1, 30816, Note_on_c, 0, 74, 96
1, 30816, Note_on_c, 1, 70, 96
1, 30816, Note_on_c, 8, 50, 80
1, 30831, Note_off_c, 7, 77, 0
1, 30837, Note_off_c, 8, 50, 0
1, 30840, Note_on_c, 7, 76, 80
1, 30840, Note_on_c, 8, 48, 80
1, 30858, Note_off_c, 0, 74, 0
1, 30858, Note_off_c, 1, 70, 0
1, 30861, Note_off_c, 7, 76, 0
1, 30861, Note_off_c, 8, 48, 0
1, 30864, Note_on_c, 0, 69, 96
1, 30864, Note_on_c, 1, 77, 96
1, 30864, Note_on_c, 7, 74, 80
1, 30864, Note_on_c, 8, 46, 80
1, 30885, Note_off_c, 7, 74, 0
1, 30885, Note_off_c, 8, 46, 0
1, 30888, Note_on_c, 7, 72, 80
1, 30888, Note_on_c, 8, 45, 80
1, 30906, Note_off_c, 0, 69, 0
1, 30906, Note_off_c, 1, 77, 0
1, 30909, Note_off_c, 7, 72, 0
1, 30909, Note_off_c, 8, 45, 0
1, 30912, Note_on_c, 0, 70, 96
1, 30912, Note_on_c, 1, 79, 96
1, 30912, Note_on_c, 7, 74, 80
1, 30912, Note_on_c, 8, 43, 80
1, 30933, Note_off_c, 0, 70, 0
1, 30933, Note_off_c, 8, 43, 0
1, 30936, Note_on_c, 0, 67, 96
1, 30936, Note_on_c, 8, 53, 80
1, 30954, Note_off_c, 1, 79, 0
1, 30954, Note_off_c, 7, 74, 0
1, 30957, Note_off_c, 0, 67, 0
1, 30957, Note_off_c, 8, 53, 0
1, 30960, Note_on_c, 0, 69, 96
1, 30960, Note_on_c, 1, 74, 96
1, 30960, Note_on_c, 7, 79, 80
1, 30960, Note_on_c, 8, 52, 80
1, 30981, Note_off_c, 0, 69, 0
1, 30981, Note_off_c, 8, 52, 0
1, 30984, Note_on_c, 0, 70, 96
1, 30984, Note_on_c, 8, 50, 80
1, 31002, Note_off_c, 1, 74, 0
1, 31005, Note_off_c, 0, 70, 0
1, 31005, Note_off_c, 8, 50, 0
1, 31008, Note_on_c, 0, 72, 96
1, 31008, Note_on_c, 1, 76, 96
1, 31008, Note_on_c, 8, 48, 80
1, 31023, Note_off_c, 7, 79, 0
1, 31029, Note_off_c, 1, 76, 0
1, 31029, Note_off_c, 8, 48, 0
1, 31032, Note_on_c, 1, 72, 96
1, 31032, Note_on_c, 7, 76, 80
1, 31032, Note_on_c, 8, 46, 80
1, 31050, Note_off_c, 0, 72, 0
1, 31053, Note_off_c, 1, 72, 0
1, 31053, Note_off_c, 7, 76, 0
1, 31053, Note_off_c, 8, 46, 0
1, 31056, Note_on_c, 0, 70, 96
1, 31056, Note_on_c, 1, 74, 96
1, 31056, Note_on_c, 7, 77, 80
1, 31056, Note_on_c, 8, 45, 80
1, 31077, Note_off_c, 1, 74, 0
1, 31077, Note_off_c, 7, 77, 0
1, 31077, Note_off_c, 8, 45, 0
1, 31080, Note_on_c, 1, 76, 96
1, 31080, Note_on_c, 7, 79, 80
1, 31080, Note_on_c, 8, 43, 80
1, 31098, Note_off_c, 0, 70, 0
1, 31101, Note_off_c, 1, 76, 0
1, 31101, Note_off_c, 7, 79, 0
1, 31101, Note_off_c, 8, 43, 0
1, 31104, Note_on_c, 0, 69, 96
1, 31104, Note_on_c, 1, 77, 96
1, 31104, Note_on_c, 7, 72, 80
1, 31104, Note_on_c, 8, 41, 80
1, 31125, Note_off_c, 0, 69, 0
1, 31125, Note_off_c, 1, 77, 0
1, 31125, Note_off_c, 7, 72, 0
1, 31128, Note_on_c, 0, 77, 96
1, 31128, Note_on_c, 1, 75, 96
1, 31128, Note_on_c, 7, 81, 80
1, 31149, Note_off_c, 0, 77, 0
1, 31149, Note_off_c, 1, 75, 0
1, 31149, Note_off_c, 7, 81, 0
1, 31152, Note_on_c, 0, 79, 96
1, 31152, Note_on_c, 1, 74, 96
1, 31152, Note_on_c, 7, 82, 80
1, 31173, Note_off_c, 0, 79, 0
1, 31173, Note_off_c, 1, 74, 0
1, 31173, Note_off_c, 7, 82, 0
1, 31176, Note_on_c, 0, 81, 96
1, 31176, Note_on_c, 1, 72, 96
1, 31176, Note_on_c, 7, 84, 80
1, 31188, Note_off_c, 8, 41, 0
1, 31197, Note_off_c, 0, 81, 0
1, 31197, Note_off_c, 1, 72, 0
1, 31197, Note_off_c, 7, 84, 0
1, 31200, Note_on_c, 0, 82, 96
1, 31200, Note_on_c, 1, 74, 96
1, 31200, Note_on_c, 7, 82, 80
1, 31221, Note_off_c, 1, 74, 0
1, 31221, Note_off_c, 7, 82, 0
1, 31224, Note_on_c, 1, 70, 96
1, 31224, Note_on_c, 7, 79, 80
1, 31224, Note_on_c, 8, 55, 80
1, 31245, Note_off_c, 1, 70, 0
1, 31245, Note_off_c, 7, 79, 0
1, 31245, Note_off_c, 8, 55, 0
1, 31248, Note_on_c, 1, 72, 96
1, 31248, Note_on_c, 7, 77, 80
1, 31248, Note_on_c, 8, 57, 80
1, 31269, Note_off_c, 1, 72, 0
1, 31269, Note_off_c, 7, 77, 0
1, 31269, Note_off_c, 8, 57, 0
1, 31272, Note_on_c, 1, 74, 96
1, 31272, Note_on_c, 7, 79, 80
1, 31272, Note_on_c, 8, 58, 80
1, 31293, Note_off_c, 1, 74, 0
1, 31293, Note_off_c, 7, 79, 0
1, 31293, Note_off_c, 8, 58, 0
1, 31296, Note_on_c, 1, 75, 96
1, 31296, Note_on_c, 7, 75, 80
1, 31296, Note_on_c, 8, 60, 80
1, 31305, Note_off_c, 0, 82, 0
1, 31317, Note_off_c, 7, 75, 0
1, 31317, Note_off_c, 8, 60, 0
1, 31320, Note_on_c, 0, 79, 96
1, 31320, Note_on_c, 7, 82, 80
1, 31320, Note_on_c, 8, 62, 80
1, 31341, Note_off_c, 0, 79, 0
1, 31341, Note_off_c, 7, 82, 0
1, 31341, Note_off_c, 8, 62, 0
1, 31344, Note_on_c, 0, 81, 96
1, 31344, Note_on_c, 7, 81, 80
1, 31344, Note_on_c, 8, 60, 80
1, 31365, Note_off_c, 0, 81, 0
1, 31365, Note_off_c, 7, 81, 0
1, 31365, Note_off_c, 8, 60, 0
1, 31368, Note_on_c, 0, 82, 96
1, 31368, Note_on_c, 7, 79, 80
1, 31368, Note_on_c, 8, 58, 80
1, 31389, Note_off_c, 0, 82, 0
1, 31389, Note_off_c, 7, 79, 0
1, 31389, Note_off_c, 8, 58, 0
1, 31392, Note_on_c, 0, 84, 96
1, 31392, Note_on_c, 7, 77, 80
1, 31392, Note_on_c, 8, 57, 80
1, 31401, Note_off_c, 1, 75, 0
1, 31413, Note_off_c, 7, 77, 0
1, 31416, Note_on_c, 1, 72, 96
1, 31416, Note_on_c, 7, 75, 80
1, 31434, Note_off_c, 0, 84, 0
1, 31434, Note_off_c, 8, 57, 0
1, 31437, Note_off_c, 1, 72, 0
1, 31437, Note_off_c, 7, 75, 0
1, 31440, Note_on_c, 0, 82, 96
1, 31440, Note_on_c, 1, 74, 96
1, 31440, Note_on_c, 7, 74, 80
1, 31440, Note_on_c, 8, 58, 80
1, 31461, Note_off_c, 0, 82, 0
1, 31461, Note_off_c, 1, 74, 0
1, 31461, Note_off_c, 7, 74, 0
1, 31461, Note_off_c, 8, 58, 0
1, 31464, Note_on_c, 0, 81, 96
1, 31464, Note_on_c, 1, 75, 96
1, 31464, Note_on_c, 7, 72, 80
1, 31464, Note_on_c, 8, 60, 80
1, 31485, Note_off_c, 0, 81, 0
1, 31485, Note_off_c, 1, 75, 0
1, 31485, Note_off_c, 7, 72, 0
1, 31485, Note_off_c, 8, 60, 0
1, 31488, Note_on_c, 0, 82, 96
1, 31488, Note_on_c, 1, 77, 96
1, 31488, Note_on_c, 7, 70, 80
1, 31488, Note_on_c, 8, 62, 80
1, 31509, Note_off_c, 8, 62, 0
1, 31512, Note_on_c, 8, 60, 80
1, 31530, Note_off_c, 0, 82, 0
1, 31530, Note_off_c, 1, 77, 0
1, 31530, Note_off_c, 7, 70, 0
1, 31533, Note_off_c, 8, 60, 0
1, 31536, Note_on_c, 0, 77, 96
1, 31536, Note_on_c, 1, 75, 96
1, 31536, Note_on_c, 7, 82, 80
1, 31536, Note_on_c, 8, 58, 80
1, 31557, Note_off_c, 1, 75, 0
1, 31557, Note_off_c, 8, 58, 0
1, 31560, Note_on_c, 1, 74, 96
1, 31560, Note_on_c, 8, 57, 80
1, 31578, Note_off_c, 0, 77, 0
1, 31581, Note_off_c, 1, 74, 0
1, 31581, Note_off_c, 8, 57, 0
1, 31584, Note_on_c, 0, 79, 96
1, 31584, Note_on_c, 1, 75, 96
1, 31584, Note_on_c, 8, 55, 80
1, 31599, Note_off_c, 7, 82, 0
1, 31605, Note_off_c, 8, 55, 0
1, 31608, Note_on_c, 7, 81, 80
1, 31608, Note_on_c, 8, 53, 80
1, 31626, Note_off_c, 0, 79, 0
1, 31626, Note_off_c, 1, 75, 0
1, 31629, Note_off_c, 7, 81, 0
1, 31629, Note_off_c, 8, 53, 0
1, 31632, Note_on_c, 0, 74, 96
1, 31632, Note_on_c, 1, 70, 96
1, 31632, Note_on_c, 7, 79, 80
1, 31632, Note_on_c, 8, 51, 80
1, 31653, Note_off_c, 7, 79, 0
1, 31653, Note_off_c, 8, 51, 0
1, 31656, Note_on_c, 7, 77, 80
1, 31656, Note_on_c, 8, 50, 80
1, 31674, Note_off_c, 0, 74, 0
1, 31674, Note_off_c, 1, 70, 0
1, 31677, Note_off_c, 7, 77, 0
1, 31677, Note_off_c, 8, 50, 0
1, 31680, Note_on_c, 0, 75, 96
1, 31680, Note_on_c, 1, 72, 96
1, 31680, Note_on_c, 7, 79, 80
1, 31680, Note_on_c, 8, 48, 80
1, 31701, Note_off_c, 0, 75, 0
1, 31701, Note_off_c, 8, 48, 0
1, 31704, Note_on_c, 0, 72, 96
1, 31704, Note_on_c, 8, 58, 80
1, 31722, Note_off_c, 1, 72, 0
1, 31722, Note_off_c, 7, 79, 0
1, 31725, Note_off_c, 0, 72, 0
1, 31725, Note_off_c, 8, 58, 0
1, 31728, Note_on_c, 0, 74, 96
1, 31728, Note_on_c, 1, 67, 96
1, 31728, Note_on_c, 7, 84, 80
1, 31728, Note_on_c, 8, 57, 80
1, 31749, Note_off_c, 0, 74, 0
1, 31749, Note_off_c, 8, 57, 0
1, 31752, Note_on_c, 0, 75, 96
1, 31752, Note_on_c, 8, 55, 80
1, 31770, Note_off_c, 1, 67, 0
1, 31773, Note_off_c, 0, 75, 0
1, 31773, Note_off_c, 8, 55, 0
1, 31776, Note_on_c, 0, 77, 96
1, 31776, Note_on_c, 1, 69, 96
1, 31776, Note_on_c, 8, 53, 80
1, 31791, Note_off_c, 7, 84, 0
1, 31797, Note_off_c, 1, 69, 0
1, 31797, Note_off_c, 8, 53, 0
1, 31800, Note_on_c, 1, 65, 96
1, 31800, Note_on_c, 7, 81, 80
1, 31800, Note_on_c, 8, 51, 80
1, 31818, Note_off_c, 0, 77, 0
1, 31821, Note_off_c, 1, 65, 0
1, 31821, Note_off_c, 7, 81, 0
1, 31821, Note_off_c, 8, 51, 0
1, 31824, Note_on_c, 0, 75, 96
1, 31824, Note_on_c, 1, 67, 96
1, 31824, Note_on_c, 7, 82, 80
1, 31824, Note_on_c, 8, 50, 80
1, 31845, Note_off_c, 1, 67, 0
1, 31845, Note_off_c, 7, 82, 0
1, 31845, Note_off_c, 8, 50, 0
1, 31848, Note_on_c, 1, 69, 96
1, 31848, Note_on_c, 7, 84, 80
1, 31848, Note_on_c, 8, 48, 80
1, 31866, Note_off_c, 0, 75, 0
1, 31869, Note_off_c, 1, 69, 0
1, 31869, Note_off_c, 7, 84, 0
1, 31869, Note_off_c, 8, 48, 0
1, 31872, Note_on_c, 0, 74, 96
1, 31872, Note_on_c, 1, 70, 96
1, 31872, Note_on_c, 7, 86, 80
1, 31872, Note_on_c, 8, 46, 80
1, 31893, Note_off_c, 0, 74, 0
1, 31893, Note_off_c, 1, 70, 0
1, 31893, Note_off_c, 7, 86, 0
1, 31896, Note_on_c, 0, 77, 96
1, 31896, Note_on_c, 1, 74, 96
1, 31896, Note_on_c, 7, 82, 80
1, 31917, Note_off_c, 0, 77, 0
1, 31917, Note_off_c, 1, 74, 0
1, 31920, Note_on_c, 0, 75, 96
1, 31920, Note_on_c, 1, 72, 96
1, 31920, Note_off_c, 7, 82, 0
1, 31920, Note_on_c, 7, 81, 80
1, 31941, Note_off_c, 0, 75, 0
1, 31941, Note_off_c, 1, 72, 0
1, 31944, Note_on_c, 0, 74, 96
1, 31944, Note_on_c, 1, 70, 96
1, 31944, Note_off_c, 7, 81, 0
1, 31944, Note_on_c, 7, 82, 80
1, 31956, Note_off_c, 8, 46, 0
1, 31965, Note_off_c, 0, 74, 0
1, 31965, Note_off_c, 1, 70, 0
1, 31965, Note_off_c, 7, 82, 0
1, 31968, Note_on_c, 0, 72, 96
1, 31968, Note_on_c, 1, 69, 96
1, 31968, Note_on_c, 7, 84, 80
1, 31968, Note_on_c, 8, 53, 80
1, 31989, Note_off_c, 0, 72, 0
1, 31989, Note_off_c, 1, 69, 0
1, 31989, Note_off_c, 7, 84, 0
1, 31992, Note_on_c, 0, 75, 96
1, 31992, Note_on_c, 1, 72, 96
1, 31992, Note_on_c, 7, 81, 80
1, 32013, Note_off_c, 0, 75, 0
1, 32013, Note_off_c, 1, 72, 0
1, 32016, Note_on_c, 0, 74, 96
1, 32016, Note_on_c, 1, 70, 96
1, 32016, Note_off_c, 7, 81, 0
1, 32016, Note_on_c, 7, 79, 80
1, 32037, Note_off_c, 0, 74, 0
1, 32037, Note_off_c, 1, 70, 0
1, 32040, Note_on_c, 0, 72, 96
1, 32040, Note_on_c, 1, 69, 96
1, 32040, Note_off_c, 7, 79, 0
1, 32040, Note_on_c, 7, 81, 80
1, 32061, Note_off_c, 0, 72, 0
1, 32061, Note_off_c, 1, 69, 0
1, 32061, Note_off_c, 7, 81, 0
1, 32064, Note_on_c, 0, 70, 96
1, 32064, Note_on_c, 1, 67, 96
1, 32064, Note_on_c, 7, 74, 80
1, 32085, Note_off_c, 0, 70, 0
1, 32088, Note_on_c, 0, 69, 96
1, 32094, Note_off_c, 8, 53, 0
1, 32106, Note_off_c, 1, 67, 0
1, 32106, Note_off_c, 7, 74, 0
1, 32109, Note_off_c, 0, 69, 0
1, 32112, Note_on_c, 0, 67, 96
1, 32112, Note_on_c, 1, 72, 96
1, 32112, Note_on_c, 7, 82, 80
1, 32112, Note_on_c, 8, 52, 80
1, 32133, Note_off_c, 0, 67, 0
1, 32133, Note_off_c, 1, 72, 0
1, 32133, Note_off_c, 8, 52, 0
1, 32136, Note_on_c, 0, 69, 96
1, 32136, Note_on_c, 1, 74, 96
1, 32136, Note_on_c, 8, 53, 80
1, 32157, Note_off_c, 0, 69, 0
1, 32157, Note_off_c, 1, 74, 0
1, 32157, Note_off_c, 8, 53, 0
1, 32160, Note_on_c, 0, 70, 96
1, 32160, Note_on_c, 1, 76, 96
1, 32160, Note_on_c, 8, 55, 80
1, 32181, Note_off_c, 0, 70, 0
1, 32181, Note_off_c, 1, 76, 0
1, 32184, Note_on_c, 0, 69, 96
1, 32184, Note_on_c, 1, 77, 96
1, 32196, Note_off_c, 7, 82, 0
1, 32202, Note_off_c, 8, 55, 0
1, 32205, Note_off_c, 0, 69, 0
1, 32205, Note_off_c, 1, 77, 0
1, 32208, Note_on_c, 0, 70, 96
1, 32208, Note_on_c, 1, 79, 96
1, 32208, Note_on_c, 7, 72, 80
1, 32208, Note_on_c, 8, 53, 80
1, 32229, Note_off_c, 0, 70, 0
1, 32229, Note_off_c, 8, 53, 0
1, 32232, Note_on_c, 0, 67, 96
1, 32232, Note_on_c, 8, 52, 80
1, 32253, Note_off_c, 0, 67, 0
1, 32253, Note_off_c, 8, 52, 0
1, 32256, Note_on_c, 0, 69, 96
1, 32256, Note_on_c, 8, 53, 80
1, 32271, Note_off_c, 1, 79, 0
1, 32271, Note_off_c, 7, 72, 0
1, 32280, Note_on_c, 1, 77, 96
1, 32280, Note_on_c, 7, 74, 80
1, 32298, Note_off_c, 8, 53, 0
1, 32301, Note_off_c, 1, 77, 0
1, 32301, Note_off_c, 7, 74, 0
1, 32304, Note_on_c, 1, 79, 96
1, 32304, Note_on_c, 7, 76, 80
1, 32304, Note_on_c, 8, 48, 80
1, 32325, Note_off_c, 1, 79, 0
1, 32325, Note_off_c, 7, 76, 0
1, 32328, Note_on_c, 1, 76, 96
1, 32328, Note_on_c, 7, 72, 80
1, 32346, Note_off_c, 8, 48, 0
1, 32349, Note_off_c, 1, 76, 0
1, 32349, Note_off_c, 7, 72, 0
1, 32352, Note_on_c, 1, 77, 96
1, 32352, Note_on_c, 7, 69, 80
1, 32352, Note_on_c, 8, 50, 80
1, 32361, Note_off_c, 0, 69, 0
1, 32373, Note_off_c, 7, 69, 0
1, 32376, Note_on_c, 0, 70, 96
1, 32376, Note_on_c, 7, 67, 80
1, 32394, Note_off_c, 8, 50, 0
1, 32397, Note_off_c, 0, 70, 0
1, 32397, Note_off_c, 7, 67, 0
1, 32400, Note_on_c, 0, 72, 96
1, 32400, Note_on_c, 7, 69, 80
1, 32400, Note_on_c, 8, 45, 80
1, 32421, Note_off_c, 0, 72, 0
1, 32421, Note_off_c, 7, 69, 0
1, 32424, Note_on_c, 0, 74, 96
1, 32424, Note_on_c, 7, 65, 80
1, 32442, Note_off_c, 8, 45, 0
1, 32445, Note_off_c, 0, 74, 0
1, 32445, Note_off_c, 7, 65, 0
1, 32448, Note_on_c, 0, 67, 96
1, 32448, Note_on_c, 7, 74, 80
1, 32448, Note_on_c, 8, 47, 80
1, 32457, Note_off_c, 1, 77, 0
1, 32472, Note_on_c, 1, 75, 96
1, 32490, Note_off_c, 8, 47, 0
1, 32493, Note_off_c, 1, 75, 0
1, 32496, Note_on_c, 1, 77, 96
1, 32496, Note_on_c, 8, 45, 80
1, 32517, Note_off_c, 1, 77, 0
1, 32517, Note_off_c, 8, 45, 0
1, 32520, Note_on_c, 1, 74, 96
1, 32520, Note_on_c, 8, 47, 80
1, 32541, Note_off_c, 1, 74, 0
1, 32541, Note_off_c, 8, 47, 0
1, 32544, Note_on_c, 1, 75, 96
1, 32544, Note_on_c, 8, 48, 80
1, 32553, Note_off_c, 0, 67, 0
1, 32553, Note_off_c, 7, 74, 0
1, 32568, Note_on_c, 0, 69, 96
1, 32568, Note_on_c, 7, 72, 80
1, 32586, Note_off_c, 8, 48, 0
1, 32589, Note_off_c, 0, 69, 0
1, 32589, Note_off_c, 7, 72, 0
1, 32592, Note_on_c, 0, 70, 96
1, 32592, Note_on_c, 7, 74, 80
1, 32592, Note_on_c, 8, 43, 80
1, 32613, Note_off_c, 0, 70, 0
1, 32613, Note_off_c, 7, 74, 0
1, 32616, Note_on_c, 0, 72, 96
1, 32616, Note_on_c, 7, 75, 80
1, 32634, Note_off_c, 8, 43, 0
1, 32637, Note_off_c, 0, 72, 0
1, 32637, Note_off_c, 7, 75, 0
1, 32640, Note_on_c, 0, 65, 96
1, 32640, Note_on_c, 7, 72, 80
1, 32640, Note_on_c, 8, 45, 80
1, 32649, Note_off_c, 1, 75, 0
1, 32661, Note_off_c, 7, 72, 0
1, 32664, Note_on_c, 1, 74, 96
1, 32664, Note_on_c, 7, 70, 80
1, 32682, Note_off_c, 8, 45, 0
1, 32685, Note_off_c, 1, 74, 0
1, 32685, Note_off_c, 7, 70, 0
1, 32688, Note_on_c, 1, 75, 96
1, 32688, Note_on_c, 7, 72, 80
1, 32688, Note_on_c, 8, 41, 80
1, 32709, Note_off_c, 1, 75, 0
1, 32709, Note_off_c, 7, 72, 0
1, 32712, Note_on_c, 1, 72, 96
1, 32712, Note_on_c, 7, 69, 80
1, 32724, Note_off_c, 0, 65, 0
1, 32730, Note_off_c, 8, 41, 0
1, 32733, Note_off_c, 1, 72, 0
1, 32733, Note_off_c, 7, 69, 0
1, 32736, Note_on_c, 0, 77, 96
1, 32736, Note_on_c, 1, 74, 96
1, 32736, Note_on_c, 7, 70, 80
1, 32736, Note_on_c, 8, 46, 80
1, 32757, Note_off_c, 1, 74, 0
1, 32760, Note_on_c, 1, 72, 96
1, 32778, Note_off_c, 8, 46, 0
1, 32781, Note_off_c, 1, 72, 0
1, 32784, Note_on_c, 1, 70, 96
1, 32784, Note_on_c, 8, 38, 80
1, 32805, Note_off_c, 1, 70, 0
1, 32808, Note_on_c, 1, 69, 96
1, 32826, Note_off_c, 8, 38, 0
1, 32829, Note_off_c, 1, 69, 0
1, 32832, Note_on_c, 1, 67, 96
1, 32832, Note_on_c, 8, 39, 80
1, 32841, Note_off_c, 0, 77, 0
1, 32856, Note_on_c, 0, 75, 96
1, 32874, Note_off_c, 1, 67, 0
1, 32874, Note_off_c, 8, 39, 0
1, 32877, Note_off_c, 0, 75, 0
1, 32880, Note_on_c, 0, 74, 96
1, 32880, Note_on_c, 1, 69, 96
1, 32880, Note_on_c, 8, 41, 80
1, 32901, Note_off_c, 0, 74, 0
1, 32904, Note_on_c, 0, 77, 96
1, 32922, Note_off_c, 1, 69, 0
1, 32922, Note_off_c, 8, 41, 0
1, 32925, Note_off_c, 0, 77, 0
1, 32928, Note_on_c, 0, 75, 96
1, 32928, Note_on_c, 1, 70, 96
1, 32928, Note_off_c, 7, 70, 0
1, 32928, Note_on_c, 8, 43, 80
1, 32940, Note_on_c, 7, 69, 80
1, 32949, Note_off_c, 0, 75, 0
1, 32950, Note_off_c, 7, 69, 0
1, 32952, Note_on_c, 0, 74, 96
1, 32952, Note_on_c, 7, 70, 80
1, 32970, Note_off_c, 1, 70, 0
1, 32970, Note_off_c, 8, 43, 0
1, 32973, Note_off_c, 0, 74, 0
1, 32973, Note_off_c, 7, 70, 0
1, 32976, Note_on_c, 0, 72, 96
1, 32976, Note_on_c, 1, 75, 96
1, 32976, Note_on_c, 7, 79, 80
1, 32976, Note_on_c, 8, 39, 80
1, 32997, Note_off_c, 0, 72, 0
1, 33000, Note_on_c, 0, 70, 96
1, 33018, Note_off_c, 8, 39, 0
1, 33021, Note_off_c, 0, 70, 0
1, 33024, Note_on_c, 0, 69, 96
1, 33024, Note_on_c, 8, 41, 80
1, 33039, Note_off_c, 1, 75, 0
1, 33048, Note_on_c, 1, 74, 96
1, 33060, Note_off_c, 7, 79, 0
1, 33066, Note_off_c, 0, 69, 0
1, 33066, Note_off_c, 8, 41, 0
1, 33069, Note_off_c, 1, 74, 0
1, 33072, Note_on_c, 0, 77, 96
1, 33072, Note_on_c, 1, 72, 96
1, 33072, Note_on_c, 7, 77, 80
1, 33072, Note_on_c, 8, 53, 80
1, 33093, Note_off_c, 1, 72, 0
1, 33096, Note_on_c, 1, 75, 96
1, 33114, Note_off_c, 0, 77, 0
1, 33114, Note_off_c, 8, 53, 0
1, 33117, Note_off_c, 1, 75, 0
1, 33120, Note_on_c, 0, 70, 96
1, 33120, Note_on_c, 1, 74, 96
1, 33120, Note_on_c, 8, 55, 80
1, 33135, Note_off_c, 7, 77, 0
1, 33141, Note_off_c, 0, 70, 0
1, 33141, Note_off_c, 1, 74, 0
1, 33144, Note_on_c, 0, 72, 96
1, 33144, Note_on_c, 1, 72, 96
1, 33144, Note_on_c, 7, 75, 80
1, 33162, Note_off_c, 8, 55, 0
1, 33165, Note_off_c, 0, 72, 0
1, 33165, Note_off_c, 1, 72, 0
1, 33165, Note_off_c, 7, 75, 0
1, 33168, Note_on_c, 0, 74, 96
1, 33168, Note_on_c, 1, 70, 96
1, 33168, Note_on_c, 7, 77, 80
1, 33168, Note_on_c, 8, 50, 80
1, 33189, Note_off_c, 0, 74, 0
1, 33189, Note_off_c, 1, 70, 0
1, 33189, Note_off_c, 7, 77, 0
1, 33192, Note_on_c, 0, 70, 96
1, 33192, Note_on_c, 1, 74, 96
1, 33192, Note_on_c, 7, 74, 80
1, 33210, Note_off_c, 8, 50, 0
1, 33213, Note_off_c, 0, 70, 0
1, 33213, Note_off_c, 1, 74, 0
1, 33213, Note_off_c, 7, 74, 0
1, 33216, Note_on_c, 0, 67, 96
1, 33216, Note_on_c, 1, 72, 96
1, 33216, Note_on_c, 7, 79, 80
1, 33216, Note_on_c, 8, 51, 80
1, 33237, Note_off_c, 0, 67, 0
1, 33237, Note_off_c, 1, 72, 0
1, 33237, Note_off_c, 7, 79, 0
1, 33240, Note_on_c, 0, 69, 96
1, 33240, Note_on_c, 1, 75, 96
1, 33240, Note_on_c, 7, 72, 80
1, 33258, Note_off_c, 8, 51, 0
1, 33261, Note_off_c, 0, 69, 0
1, 33261, Note_off_c, 1, 75, 0
1, 33261, Note_off_c, 7, 72, 0
1, 33264, Note_on_c, 0, 70, 96
1, 33264, Note_on_c, 1, 74, 96
1, 33264, Note_on_c, 7, 74, 80
1, 33264, Note_on_c, 8, 48, 80
1, 33285, Note_off_c, 0, 70, 0
1, 33285, Note_off_c, 1, 74, 0
1, 33285, Note_off_c, 7, 74, 0
1, 33288, Note_on_c, 0, 72, 96
1, 33288, Note_on_c, 1, 72, 96
1, 33288, Note_on_c, 7, 75, 80
1, 33306, Note_off_c, 8, 48, 0
1, 33309, Note_off_c, 0, 72, 0
1, 33309, Note_off_c, 1, 72, 0
1, 33309, Note_off_c, 7, 75, 0
1, 33312, Note_on_c, 0, 69, 96
1, 33312, Note_on_c, 1, 72, 96
1, 33312, Note_on_c, 7, 77, 80
1, 33312, Note_on_c, 8, 53, 80
1, 33333, Note_off_c, 7, 77, 0
1, 33336, Note_on_c, 7, 79, 80
1, 33354, Note_off_c, 8, 53, 0
1, 33357, Note_off_c, 7, 79, 0
1, 33360, Note_on_c, 7, 77, 80
1, 33360, Note_on_c, 8, 41, 80
1, 33375, Note_off_c, 0, 69, 0
1, 33375, Note_off_c, 1, 72, 0
1, 33381, Note_off_c, 7, 77, 0
1, 33384, Note_on_c, 0, 70, 96
1, 33384, Note_on_c, 1, 70, 96
1, 33384, Note_on_c, 7, 75, 80
1, 33402, Note_off_c, 8, 41, 0
1, 33405, Note_off_c, 0, 70, 0
1, 33405, Note_off_c, 1, 70, 0
1, 33405, Note_off_c, 7, 75, 0
1, 33408, Note_on_c, 0, 70, 96
1, 33408, Note_on_c, 1, 70, 96
1, 33408, Note_on_c, 2, 70, 96
1, 33408, Note_on_c, 3, 74, 96
1, 33408, Note_on_c, 5, 46, 96
1, 33408, Note_on_c, 6, 34, 96
1, 33408, Note_on_c, 7, 74, 96
1, 33408, Note_on_c, 7, 70, 96
1, 33408, Note_on_c, 8, 46, 96
1, 33432, Note_on_c, 4, 65, 96
1, 33453, Note_off_c, 4, 65, 0
1, 33456, Note_on_c, 4, 63, 96
1, 33477, Note_off_c, 4, 63, 0
1, 33480, Note_on_c, 4, 65, 96
1, 33492, Note_off_c, 0, 70, 0
1, 33492, Note_off_c, 1, 70, 0
1, 33492, Note_off_c, 2, 70, 0
1, 33492, Note_off_c, 3, 74, 0
1, 33492, Note_off_c, 5, 46, 0
1, 33492, Note_off_c, 6, 34, 0
1, 33492, Note_off_c, 7, 74, 0
1, 33492, Note_off_c, 7, 70, 0
1, 33492, Note_off_c, 8, 46, 0
1, 33501, Note_off_c, 4, 65, 0
1, 33504, Note_on_c, 2, 82, 96
1, 33504, Note_on_c, 4, 67, 96
1, 33504, Note_on_c, 7, 82, 96
1, 33528, Note_on_c, 3, 74, 96
1, 33528, Note_on_c, 5, 46, 96
1, 33528, Note_on_c, 6, 34, 96
1, 33528, Note_on_c, 7, 79, 96
1, 33528, Note_on_c, 8, 46, 96
1, 33549, Note_off_c, 3, 74, 0
1, 33549, Note_off_c, 5, 46, 0
1, 33549, Note_off_c, 6, 34, 0
1, 33549, Note_off_c, 7, 79, 0
1, 33549, Note_off_c, 8, 46, 0
1, 33552, Note_on_c, 3, 72, 96
1, 33552, Note_on_c, 5, 45, 96
1, 33552, Note_on_c, 6, 33, 96
1, 33552, Note_on_c, 7, 77, 96
1, 33552, Note_on_c, 8, 45, 96
1, 33573, Note_off_c, 3, 72, 0
1, 33573, Note_off_c, 5, 45, 0
1, 33573, Note_off_c, 6, 33, 0
1, 33573, Note_off_c, 7, 77, 0
1, 33573, Note_off_c, 8, 45, 0
1, 33576, Note_on_c, 3, 74, 96
1, 33576, Note_on_c, 5, 46, 96
1, 33576, Note_on_c, 6, 34, 96
1, 33576, Note_on_c, 7, 79, 96
1, 33576, Note_on_c, 8, 46, 96
1, 33597, Note_off_c, 3, 74, 0
1, 33597, Note_off_c, 5, 46, 0
1, 33597, Note_off_c, 6, 34, 0
1, 33597, Note_off_c, 7, 79, 0
1, 33597, Note_off_c, 8, 46, 0
1, 33600, Note_on_c, 3, 75, 96
1, 33600, Note_on_c, 5, 48, 96
1, 33600, Note_on_c, 6, 36, 96
1, 33600, Note_on_c, 7, 75, 96
1, 33600, Note_on_c, 8, 48, 96
1, 33621, Note_off_c, 3, 75, 0
1, 33621, Note_off_c, 5, 48, 0
1, 33621, Note_off_c, 6, 36, 0
1, 33621, Note_off_c, 8, 48, 0
1, 33624, Note_on_c, 3, 77, 96
1, 33624, Note_on_c, 5, 46, 96
1, 33624, Note_on_c, 6, 34, 96
1, 33624, Note_on_c, 8, 46, 96
1, 33630, Note_off_c, 2, 82, 0
1, 33630, Note_off_c, 4, 67, 0
1, 33630, Note_off_c, 7, 82, 0
1, 33645, Note_off_c, 3, 77, 0
1, 33645, Note_off_c, 5, 46, 0
1, 33645, Note_off_c, 6, 34, 0
1, 33645, Note_off_c, 8, 46, 0
1, 33648, Note_on_c, 2, 81, 96
1, 33648, Note_on_c, 3, 75, 96
1, 33648, Note_on_c, 4, 60, 96
1, 33648, Note_on_c, 5, 48, 96
1, 33648, Note_on_c, 6, 36, 96
1, 33648, Note_on_c, 7, 81, 96
1, 33648, Note_on_c, 8, 48, 96
1, 33669, Note_off_c, 2, 81, 0
1, 33669, Note_off_c, 3, 75, 0
1, 33669, Note_off_c, 5, 48, 0
1, 33669, Note_off_c, 6, 36, 0
1, 33669, Note_off_c, 7, 81, 0
1, 33669, Note_off_c, 8, 48, 0
1, 33672, Note_on_c, 2, 82, 96
1, 33672, Note_on_c, 3, 74, 96
1, 33672, Note_on_c, 5, 50, 96
1, 33672, Note_on_c, 6, 38, 96
1, 33672, Note_on_c, 7, 82, 96
1, 33672, Note_on_c, 8, 50, 96
1, 33684, Note_off_c, 7, 75, 0
1, 33690, Note_off_c, 4, 60, 0
1, 33693, Note_off_c, 2, 82, 0
1, 33693, Note_off_c, 3, 74, 0
1, 33693, Note_off_c, 5, 50, 0
1, 33693, Note_off_c, 6, 38, 0
1, 33693, Note_off_c, 7, 82, 0
1, 33693, Note_off_c, 8, 50, 0
1, 33696, Note_on_c, 2, 84, 96
1, 33696, Note_on_c, 3, 72, 96
1, 33696, Note_on_c, 4, 65, 96
1, 33696, Note_on_c, 5, 51, 96
1, 33696, Note_on_c, 6, 39, 96
1, 33696, Note_on_c, 7, 84, 96
1, 33696, Note_on_c, 7, 81, 96
1, 33696, Note_on_c, 7, 77, 96
1, 33696, Note_on_c, 7, 72, 96
1, 33696, Note_on_c, 8, 51, 96
1, 33717, Note_off_c, 5, 51, 0
1, 33717, Note_off_c, 6, 39, 0
1, 33717, Note_off_c, 8, 51, 0
1, 33720, Note_on_c, 5, 50, 96
1, 33720, Note_on_c, 6, 38, 96
1, 33720, Note_on_c, 8, 50, 96
1, 33738, Note_off_c, 2, 84, 0
1, 33738, Note_off_c, 3, 72, 0
1, 33738, Note_off_c, 7, 84, 0
1, 33738, Note_off_c, 7, 81, 0
1, 33738, Note_off_c, 7, 77, 0
1, 33738, Note_off_c, 7, 72, 0
1, 33741, Note_off_c, 5, 50, 0
1, 33741, Note_off_c, 6, 38, 0
1, 33741, Note_off_c, 8, 50, 0
1, 33744, Note_on_c, 2, 82, 96
1, 33744, Note_on_c, 3, 77, 96
1, 33744, Note_on_c, 5, 51, 96
1, 33744, Note_on_c, 6, 39, 96
1, 33744, Note_on_c, 7, 82, 96
1, 33744, Note_on_c, 8, 51, 96
1, 33765, Note_off_c, 2, 82, 0
1, 33765, Note_off_c, 5, 51, 0
1, 33765, Note_off_c, 6, 39, 0
1, 33765, Note_off_c, 7, 82, 0
1, 33765, Note_off_c, 8, 51, 0
1, 33768, Note_on_c, 2, 81, 96
1, 33768, Note_on_c, 5, 48, 96
1, 33768, Note_on_c, 6, 36, 96
1, 33768, Note_on_c, 7, 81, 96
1, 33768, Note_on_c, 8, 48, 96
1, 33789, Note_off_c, 2, 81, 0
1, 33789, Note_off_c, 5, 48, 0
1, 33789, Note_off_c, 6, 36, 0
1, 33789, Note_off_c, 7, 81, 0
1, 33789, Note_off_c, 8, 48, 0
1, 33792, Note_on_c, 2, 82, 96
1, 33792, Note_on_c, 5, 50, 96
1, 33792, Note_on_c, 6, 38, 96
1, 33792, Note_on_c, 7, 82, 96
1, 33792, Note_on_c, 8, 50, 96
1, 33801, Note_off_c, 4, 65, 0
1, 33807, Note_off_c, 3, 77, 0
1, 33816, Note_on_c, 3, 79, 96
1, 33816, Note_on_c, 4, 63, 96
1, 33834, Note_off_c, 2, 82, 0
1, 33834, Note_off_c, 5, 50, 0
1, 33834, Note_off_c, 6, 38, 0
1, 33834, Note_off_c, 7, 82, 0
1, 33834, Note_off_c, 8, 50, 0
1, 33837, Note_off_c, 3, 79, 0
1, 33837, Note_off_c, 4, 63, 0
1, 33840, Note_on_c, 2, 77, 96
1, 33840, Note_on_c, 3, 77, 96
1, 33840, Note_on_c, 4, 62, 96
1, 33840, Note_on_c, 5, 46, 96
1, 33840, Note_on_c, 6, 34, 96
1, 33840, Note_on_c, 7, 77, 96
1, 33840, Note_on_c, 8, 46, 96
1, 33861, Note_off_c, 3, 77, 0
1, 33861, Note_off_c, 4, 62, 0
1, 33864, Note_on_c, 3, 75, 96
1, 33864, Note_on_c, 4, 60, 96
1, 33882, Note_off_c, 2, 77, 0
1, 33882, Note_off_c, 5, 46, 0
1, 33882, Note_off_c, 6, 34, 0
1, 33882, Note_off_c, 7, 77, 0
1, 33882, Note_off_c, 8, 46, 0
1, 33885, Note_off_c, 3, 75, 0
1, 33885, Note_off_c, 4, 60, 0
1, 33888, Note_on_c, 2, 79, 96
1, 33888, Note_on_c, 3, 74, 96
1, 33888, Note_on_c, 4, 58, 96
1, 33888, Note_on_c, 5, 58, 96
1, 33888, Note_on_c, 6, 46, 96
1, 33888, Note_on_c, 7, 79, 96
1, 33888, Note_on_c, 7, 62, 96
1, 33888, Note_on_c, 8, 58, 96
1, 33909, Note_off_c, 3, 74, 0
1, 33909, Note_off_c, 4, 58, 0
1, 33912, Note_on_c, 3, 72, 96
1, 33912, Note_on_c, 4, 57, 96
1, 33930, Note_off_c, 2, 79, 0
1, 33930, Note_off_c, 7, 79, 0
1, 33933, Note_off_c, 3, 72, 0
1, 33933, Note_off_c, 4, 57, 0
1, 33936, Note_on_c, 2, 74, 96
1, 33936, Note_on_c, 3, 70, 96
1, 33936, Note_on_c, 4, 55, 96
1, 33936, Note_on_c, 7, 74, 96
1, 33957, Note_off_c, 3, 70, 0
1, 33960, Note_on_c, 3, 69, 96
1, 33972, Note_off_c, 7, 62, 0
1, 33978, Note_off_c, 2, 74, 0
1, 33978, Note_off_c, 4, 55, 0
1, 33978, Note_off_c, 7, 74, 0
1, 33981, Note_off_c, 3, 69, 0
1, 33984, Note_on_c, 2, 75, 96
1, 33984, Note_on_c, 3, 67, 96
1, 33984, Note_on_c, 4, 60, 96
1, 33984, Note_on_c, 7, 75, 96
1, 33984, Note_on_c, 7, 67, 96
1, 34005, Note_off_c, 3, 67, 0
1, 34008, Note_on_c, 3, 65, 96
1, 34026, Note_off_c, 2, 75, 0
1, 34026, Note_off_c, 4, 60, 0
1, 34026, Note_off_c, 7, 75, 0
1, 34029, Note_off_c, 3, 65, 0
1, 34032, Note_on_c, 2, 72, 96
1, 34032, Note_on_c, 3, 63, 96
1, 34032, Note_on_c, 4, 67, 96
1, 34032, Note_on_c, 7, 72, 96
1, 34053, Note_off_c, 3, 63, 0
1, 34056, Note_on_c, 3, 62, 96
1, 34056, Note_off_c, 5, 58, 0
1, 34056, Note_off_c, 6, 46, 0
1, 34056, Note_off_c, 8, 58, 0
1, 34068, Note_off_c, 7, 67, 0
1, 34074, Note_off_c, 2, 72, 0
1, 34074, Note_off_c, 4, 67, 0
1, 34074, Note_off_c, 7, 72, 0
1, 34077, Note_off_c, 3, 62, 0
1, 34080, Note_on_c, 2, 77, 96
1, 34080, Note_on_c, 3, 60, 96
1, 34080, Note_on_c, 4, 65, 96
1, 34080, Note_on_c, 5, 57, 96
1, 34080, Note_on_c, 6, 45, 96
1, 34080, Note_on_c, 7, 77, 96
1, 34080, Note_on_c, 7, 60, 96
1, 34080, Note_on_c, 8, 57, 96
1, 34101, Note_off_c, 3, 60, 0
1, 34104, Note_on_c, 3, 62, 96
1, 34122, Note_off_c, 2, 77, 0
1, 34122, Note_off_c, 7, 77, 0
1, 34125, Note_off_c, 3, 62, 0
1, 34128, Note_on_c, 2, 72, 96
1, 34128, Note_on_c, 3, 63, 96
1, 34128, Note_on_c, 7, 72, 96
1, 34149, Note_off_c, 3, 63, 0
1, 34152, Note_on_c, 3, 65, 96
1, 34164, Note_off_c, 5, 57, 0
1, 34164, Note_off_c, 6, 45, 0
1, 34164, Note_off_c, 7, 60, 0
1, 34164, Note_off_c, 8, 57, 0
1, 34170, Note_off_c, 2, 72, 0
1, 34170, Note_off_c, 7, 72, 0
1, 34173, Note_off_c, 3, 65, 0
1, 34176, Note_on_c, 0, 77, 96
1, 34176, Note_on_c, 2, 74, 96
1, 34176, Note_on_c, 3, 58, 96
1, 34176, Note_on_c, 5, 58, 96
1, 34176, Note_on_c, 6, 46, 96
1, 34176, Note_on_c, 7, 74, 96
1, 34176, Note_on_c, 8, 58, 96
1, 34197, Note_off_c, 7, 74, 0
1, 34200, Note_on_c, 7, 62, 96
1, 34218, Note_off_c, 3, 58, 0
1, 34218, Note_off_c, 5, 58, 0
1, 34218, Note_off_c, 6, 46, 0
1, 34218, Note_off_c, 8, 58, 0
1, 34221, Note_off_c, 7, 62, 0
1, 34224, Note_on_c, 3, 62, 96
1, 34224, Note_on_c, 5, 57, 96
1, 34224, Note_on_c, 6, 45, 96
1, 34224, Note_on_c, 7, 63, 96
1, 34224, Note_on_c, 8, 57, 96
1, 34245, Note_off_c, 7, 63, 0
1, 34248, Note_off_c, 4, 65, 0
1, 34248, Note_on_c, 7, 65, 96
1, 34260, Note_off_c, 0, 77, 0
1, 34266, Note_off_c, 3, 62, 0
1, 34266, Note_off_c, 5, 57, 0
1, 34266, Note_off_c, 6, 45, 0
1, 34266, Note_off_c, 8, 57, 0
1, 34269, Note_off_c, 7, 65, 0
1, 34272, Note_on_c, 0, 82, 96
1, 34272, Note_on_c, 3, 67, 96
1, 34272, Note_on_c, 4, 58, 96
1, 34272, Note_on_c, 5, 55, 96
1, 34272, Note_on_c, 6, 43, 96
1, 34272, Note_on_c, 7, 67, 96
1, 34272, Note_on_c, 8, 55, 96
1, 34281, Note_off_c, 2, 74, 0
1, 34293, Note_off_c, 7, 67, 0
1, 34296, Note_on_c, 2, 72, 96
1, 34296, Note_on_c, 7, 69, 96
1, 34314, Note_off_c, 5, 55, 0
1, 34314, Note_off_c, 6, 43, 0
1, 34314, Note_off_c, 8, 55, 0
1, 34317, Note_off_c, 2, 72, 0
1, 34317, Note_off_c, 7, 69, 0
1, 34320, Note_on_c, 2, 74, 96
1, 34320, Note_on_c, 5, 53, 96
1, 34320, Note_on_c, 6, 41, 96
1, 34320, Note_on_c, 7, 70, 96
1, 34320, Note_on_c, 8, 53, 96
1, 34341, Note_off_c, 2, 74, 0
1, 34341, Note_off_c, 7, 70, 0
1, 34344, Note_on_c, 2, 70, 96
1, 34344, Note_on_c, 7, 62, 96
1, 34356, Note_off_c, 4, 58, 0
1, 34362, Note_off_c, 5, 53, 0
1, 34362, Note_off_c, 6, 41, 0
1, 34362, Note_off_c, 8, 53, 0
1, 34365, Note_off_c, 2, 70, 0
1, 34365, Note_off_c, 7, 62, 0
1, 34368, Note_on_c, 2, 72, 96
1, 34368, Note_on_c, 4, 63, 96
1, 34368, Note_on_c, 5, 51, 96
1, 34368, Note_on_c, 6, 39, 96
1, 34368, Note_on_c, 7, 60, 96
1, 34368, Note_on_c, 8, 51, 96
1, 34389, Note_off_c, 7, 60, 0
1, 34392, Note_on_c, 7, 63, 96
1, 34398, Note_off_c, 0, 82, 0
1, 34410, Note_off_c, 5, 51, 0
1, 34410, Note_off_c, 6, 39, 0
1, 34410, Note_off_c, 8, 51, 0
1, 34413, Note_off_c, 7, 63, 0
1, 34416, Note_on_c, 0, 81, 96
1, 34416, Note_on_c, 5, 48, 96
1, 34416, Note_on_c, 6, 36, 96
1, 34416, Note_on_c, 7, 65, 96
1, 34416, Note_on_c, 8, 48, 96
1, 34437, Note_off_c, 0, 81, 0
1, 34437, Note_off_c, 7, 65, 0
1, 34440, Note_on_c, 0, 82, 96
1, 34440, Note_off_c, 3, 67, 0
1, 34440, Note_on_c, 7, 67, 96
1, 34452, Note_off_c, 4, 63, 0
1, 34458, Note_off_c, 5, 48, 0
1, 34458, Note_off_c, 6, 36, 0
1, 34458, Note_off_c, 8, 48, 0
1, 34461, Note_off_c, 0, 82, 0
1, 34461, Note_off_c, 7, 67, 0
1, 34464, Note_on_c, 0, 84, 96
1, 34464, Note_on_c, 3, 65, 96
1, 34464, Note_on_c, 4, 57, 96
1, 34464, Note_on_c, 5, 53, 96
1, 34464, Note_on_c, 6, 41, 96
1, 34464, Note_on_c, 7, 69, 96
1, 34464, Note_on_c, 8, 53, 96
1, 34473, Note_off_c, 2, 72, 0
1, 34485, Note_off_c, 7, 69, 0
1, 34488, Note_on_c, 2, 74, 96
1, 34488, Note_on_c, 7, 70, 96
1, 34506, Note_off_c, 0, 84, 0
1, 34506, Note_off_c, 5, 53, 0
1, 34506, Note_off_c, 6, 41, 0
1, 34506, Note_off_c, 8, 53, 0
1, 34509, Note_off_c, 2, 74, 0
1, 34509, Note_off_c, 7, 70, 0
1, 34512, Note_on_c, 0, 82, 96
1, 34512, Note_on_c, 2, 75, 96
1, 34512, Note_on_c, 5, 41, 96
1, 34512, Note_on_c, 6, 29, 96
1, 34512, Note_on_c, 7, 72, 96
1, 34512, Note_on_c, 8, 41, 96
1, 34533, Note_off_c, 0, 82, 0
1, 34533, Note_off_c, 2, 75, 0
1, 34533, Note_off_c, 7, 72, 0
1, 34536, Note_on_c, 0, 81, 96
1, 34536, Note_on_c, 2, 72, 96
1, 34536, Note_on_c, 7, 63, 96
1, 34548, Note_off_c, 4, 57, 0
1, 34554, Note_off_c, 5, 41, 0
1, 34554, Note_off_c, 6, 29, 0
1, 34554, Note_off_c, 8, 41, 0
1, 34557, Note_off_c, 0, 81, 0
1, 34557, Note_off_c, 2, 72, 0
1, 34557, Note_off_c, 7, 63, 0
1, 34560, Note_on_c, 0, 82, 96
1, 34560, Note_on_c, 1, 77, 96
1, 34560, Note_on_c, 2, 74, 96
1, 34560, Note_on_c, 4, 53, 96
1, 34560, Note_on_c, 5, 46, 96
1, 34560, Note_on_c, 6, 34, 96
1, 34560, Note_on_c, 7, 62, 96
1, 34560, Note_on_c, 8, 46, 96
1, 34581, Note_off_c, 7, 62, 0
1, 34584, Note_on_c, 7, 65, 96
1, 34590, Note_off_c, 3, 65, 0
1, 34602, Note_off_c, 0, 82, 0
1, 34602, Note_off_c, 2, 74, 0
1, 34602, Note_off_c, 4, 53, 0
1, 34602, Note_off_c, 5, 46, 0
1, 34602, Note_off_c, 6, 34, 0
1, 34602, Note_off_c, 8, 46, 0
1, 34605, Note_off_c, 7, 65, 0
1, 34608, Note_on_c, 0, 77, 96
1, 34608, Note_on_c, 2, 77, 96
1, 34608, Note_on_c, 3, 70, 96
1, 34608, Note_on_c, 4, 65, 96
1, 34608, Note_on_c, 5, 50, 96
1, 34608, Note_on_c, 6, 38, 96
1, 34608, Note_on_c, 7, 67, 96
1, 34608, Note_on_c, 8, 50, 96
1, 34629, Note_off_c, 7, 67, 0
1, 34632, Note_on_c, 7, 69, 96
1, 34644, Note_off_c, 1, 77, 0
1, 34650, Note_off_c, 0, 77, 0
1, 34650, Note_off_c, 2, 77, 0
1, 34650, Note_off_c, 3, 70, 0
1, 34650, Note_off_c, 4, 65, 0
1, 34650, Note_off_c, 5, 50, 0
1, 34650, Note_off_c, 6, 38, 0
1, 34650, Note_off_c, 8, 50, 0
1, 34653, Note_off_c, 7, 69, 0
1, 34656, Note_on_c, 0, 79, 96
1, 34656, Note_on_c, 1, 82, 96
1, 34656, Note_on_c, 2, 70, 96
1, 34656, Note_on_c, 3, 74, 96
1, 34656, Note_on_c, 4, 62, 96
1, 34656, Note_on_c, 5, 43, 96
1, 34656, Note_on_c, 6, 31, 96
1, 34656, Note_on_c, 7, 70, 96
1, 34656, Note_on_c, 8, 43, 96
1, 34677, Note_off_c, 7, 70, 0
1, 34680, Note_on_c, 7, 72, 96
1, 34698, Note_off_c, 0, 79, 0
1, 34698, Note_off_c, 2, 70, 0
1, 34698, Note_off_c, 3, 74, 0
1, 34698, Note_off_c, 4, 62, 0
1, 34698, Note_off_c, 5, 43, 0
1, 34698, Note_off_c, 6, 31, 0
1, 34698, Note_off_c, 8, 43, 0
1, 34701, Note_off_c, 7, 72, 0
1, 34704, Note_on_c, 0, 74, 96
1, 34704, Note_on_c, 2, 79, 96
1, 34704, Note_on_c, 3, 62, 96
1, 34704, Note_on_c, 4, 58, 96
1, 34704, Note_on_c, 5, 46, 96
1, 34704, Note_on_c, 6, 34, 96
1, 34704, Note_on_c, 7, 74, 96
1, 34704, Note_on_c, 8, 46, 96
1, 34725, Note_off_c, 7, 74, 0
1, 34728, Note_on_c, 7, 68, 96
1, 34746, Note_off_c, 0, 74, 0
1, 34746, Note_off_c, 2, 79, 0
1, 34746, Note_off_c, 3, 62, 0
1, 34746, Note_off_c, 4, 58, 0
1, 34746, Note_off_c, 5, 46, 0
1, 34746, Note_off_c, 6, 34, 0
1, 34746, Note_off_c, 8, 46, 0
1, 34749, Note_off_c, 7, 68, 0
1, 34752, Note_on_c, 0, 75, 96
1, 34752, Note_on_c, 2, 75, 96
1, 34752, Note_on_c, 3, 67, 96
1, 34752, Note_on_c, 4, 55, 96
1, 34752, Note_on_c, 5, 36, 96
1, 34752, Note_on_c, 6, 24, 96
1, 34752, Note_on_c, 7, 67, 96
1, 34752, Note_on_c, 8, 36, 96
1, 34773, Note_off_c, 7, 67, 0
1, 34776, Note_on_c, 7, 70, 96
1, 34782, Note_off_c, 1, 82, 0
1, 34794, Note_off_c, 0, 75, 0
1, 34797, Note_off_c, 7, 70, 0
1, 34800, Note_on_c, 0, 72, 96
1, 34800, Note_on_c, 1, 81, 96
1, 34800, Note_on_c, 7, 72, 96
1, 34821, Note_off_c, 1, 81, 0
1, 34821, Note_off_c, 7, 72, 0
1, 34824, Note_on_c, 1, 82, 96
1, 34824, Note_on_c, 7, 74, 96
1, 34836, Note_off_c, 2, 75, 0
1, 34836, Note_off_c, 3, 67, 0
1, 34836, Note_off_c, 4, 55, 0
1, 34836, Note_off_c, 5, 36, 0
1, 34836, Note_off_c, 6, 24, 0
1, 34836, Note_off_c, 8, 36, 0
1, 34842, Note_off_c, 0, 72, 0
1, 34845, Note_off_c, 1, 82, 0
1, 34845, Note_off_c, 7, 74, 0
1, 34848, Note_on_c, 0, 77, 96
1, 34848, Note_on_c, 1, 84, 96
1, 34848, Note_on_c, 7, 75, 96
1, 34869, Note_off_c, 7, 75, 0
1, 34872, Note_on_c, 7, 79, 96
1, 34890, Note_off_c, 0, 77, 0
1, 34890, Note_off_c, 1, 84, 0
1, 34893, Note_off_c, 7, 79, 0
1, 34896, Note_on_c, 0, 72, 96
1, 34896, Note_on_c, 1, 82, 96
1, 34896, Note_on_c, 2, 72, 96
1, 34896, Note_on_c, 3, 69, 96
1, 34896, Note_on_c, 4, 53, 96
1, 34896, Note_on_c, 5, 41, 96
1, 34896, Note_on_c, 6, 29, 96
1, 34896, Note_on_c, 7, 77, 96
1, 34896, Note_on_c, 7, 53, 96
1, 34896, Note_on_c, 8, 41, 96
1, 34917, Note_off_c, 1, 82, 0
1, 34917, Note_off_c, 7, 77, 0
1, 34920, Note_on_c, 1, 81, 96
1, 34920, Note_on_c, 7, 75, 96
1, 34938, Note_off_c, 0, 72, 0
1, 34938, Note_off_c, 2, 72, 0
1, 34938, Note_off_c, 3, 69, 0
1, 34938, Note_off_c, 4, 53, 0
1, 34938, Note_off_c, 5, 41, 0
1, 34938, Note_off_c, 6, 29, 0
1, 34938, Note_off_c, 7, 53, 0
1, 34938, Note_off_c, 8, 41, 0
1, 34941, Note_off_c, 1, 81, 0
1, 34941, Note_off_c, 7, 75, 0
1, 34944, Note_on_c, 0, 74, 96
1, 34944, Note_on_c, 1, 82, 96
1, 34944, Note_on_c, 2, 70, 96
1, 34944, Note_on_c, 3, 62, 96
1, 34944, Note_on_c, 4, 53, 96
1, 34944, Note_on_c, 5, 46, 96
1, 34944, Note_on_c, 6, 34, 96
1, 34944, Note_on_c, 7, 74, 96
1, 34944, Note_on_c, 7, 58, 96
1, 34944, Note_on_c, 8, 46, 96
1, 34965, Note_off_c, 1, 82, 0
1, 34965, Note_off_c, 7, 74, 0
1, 34965, Note_off_c, 7, 58, 0
1, 34968, Note_on_c, 1, 81, 96
1, 34968, Note_on_c, 7, 77, 96
1, 34968, Note_on_c, 7, 60, 96
1, 34986, Note_off_c, 8, 46, 0
1, 34989, Note_off_c, 1, 81, 0
1, 34989, Note_off_c, 7, 77, 0
1, 34989, Note_off_c, 7, 60, 0
1, 34992, Note_on_c, 1, 82, 96
1, 34992, Note_on_c, 7, 79, 96
1, 34992, Note_on_c, 7, 58, 96
1, 35013, Note_off_c, 1, 82, 0
1, 35013, Note_off_c, 7, 79, 0
1, 35013, Note_off_c, 7, 58, 0
1, 35016, Note_on_c, 1, 84, 96
1, 35016, Note_on_c, 7, 81, 96
1, 35016, Note_on_c, 7, 57, 96
1, 35028, Note_off_c, 2, 70, 0
1, 35028, Note_off_c, 3, 62, 0
1, 35028, Note_off_c, 4, 53, 0
1, 35028, Note_off_c, 5, 46, 0
1, 35028, Note_off_c, 6, 34, 0
1, 35037, Note_off_c, 1, 84, 0
1, 35037, Note_off_c, 7, 81, 0
1, 35037, Note_off_c, 7, 57, 0
1, 35040, Note_on_c, 1, 86, 96
1, 35040, Note_on_c, 7, 82, 96
1, 35040, Note_on_c, 8, 55, 96
1, 35061, Note_off_c, 1, 86, 0
1, 35061, Note_off_c, 7, 82, 0
1, 35061, Note_off_c, 8, 55, 0
1, 35064, Note_on_c, 1, 84, 96
1, 35064, Note_on_c, 7, 84, 96
1, 35064, Note_on_c, 8, 57, 96
1, 35085, Note_off_c, 1, 84, 0
1, 35085, Note_off_c, 7, 84, 0
1, 35085, Note_off_c, 8, 57, 0
1, 35088, Note_on_c, 1, 82, 96
1, 35088, Note_on_c, 7, 86, 96
1, 35088, Note_on_c, 8, 58, 96
1, 35109, Note_off_c, 1, 82, 0
1, 35109, Note_off_c, 7, 86, 0
1, 35112, Note_on_c, 1, 81, 96
1, 35112, Note_on_c, 7, 77, 96
1, 35133, Note_off_c, 1, 81, 0
1, 35133, Note_off_c, 7, 77, 0
1, 35136, Note_on_c, 1, 79, 96
1, 35136, Note_on_c, 7, 76, 96
1, 35157, Note_off_c, 7, 76, 0
1, 35160, Note_on_c, 7, 86, 96
1, 35170, Note_off_c, 7, 86, 0
1, 35172, Note_on_c, 7, 84, 96
1, 35172, Note_off_c, 8, 58, 0
1, 35178, Note_off_c, 1, 79, 0
1, 35182, Note_off_c, 7, 84, 0
1, 35184, Note_on_c, 1, 82, 96
1, 35184, Note_on_c, 7, 82, 96
1, 35184, Note_on_c, 8, 52, 96
1, 35194, Note_off_c, 7, 82, 0
1, 35196, Note_on_c, 7, 81, 96
1, 35206, Note_off_c, 7, 81, 0
1, 35208, Note_on_c, 7, 79, 96
1, 35218, Note_off_c, 7, 79, 0
1, 35220, Note_on_c, 7, 77, 96
1, 35226, Note_off_c, 1, 82, 0
1, 35226, Note_off_c, 8, 52, 0
1, 35230, Note_off_c, 7, 77, 0
1, 35232, Note_on_c, 1, 79, 96
1, 35232, Note_on_c, 7, 76, 96
1, 35253, Note_off_c, 7, 76, 0
1, 35256, Note_on_c, 7, 82, 96
1, 35274, Note_off_c, 1, 79, 0
1, 35277, Note_off_c, 7, 82, 0
1, 35280, Note_on_c, 1, 76, 96
1, 35280, Note_on_c, 7, 79, 96
1, 35280, Note_on_c, 8, 55, 96
1, 35301, Note_off_c, 7, 79, 0
1, 35304, Note_off_c, 0, 74, 0
1, 35304, Note_on_c, 7, 76, 96
1, 35322, Note_off_c, 1, 76, 0
1, 35325, Note_off_c, 7, 76, 0
1, 35328, Note_on_c, 0, 72, 96
1, 35328, Note_on_c, 7, 69, 96
1, 35343, Note_off_c, 8, 55, 0
1, 35349, Note_off_c, 7, 69, 0
1, 35352, Note_on_c, 1, 79, 96
1, 35352, Note_on_c, 7, 76, 96
1, 35352, Note_on_c, 8, 58, 96
1, 35373, Note_off_c, 1, 79, 0
1, 35373, Note_off_c, 7, 76, 0
1, 35373, Note_off_c, 8, 58, 0
1, 35376, Note_on_c, 1, 81, 96
1, 35376, Note_on_c, 7, 77, 96
1, 35376, Note_on_c, 8, 57, 96
1, 35397, Note_off_c, 1, 81, 0
1, 35397, Note_off_c, 7, 77, 0
1, 35397, Note_off_c, 8, 57, 0
1, 35400, Note_on_c, 1, 82, 96
1, 35400, Note_on_c, 7, 79, 96
1, 35400, Note_on_c, 8, 55, 96
1, 35421, Note_off_c, 1, 82, 0
1, 35421, Note_off_c, 7, 79, 0
1, 35421, Note_off_c, 8, 55, 0
1, 35424, Note_on_c, 1, 84, 96
1, 35424, Note_on_c, 7, 81, 96
1, 35424, Note_on_c, 8, 53, 96
1, 35445, Note_off_c, 1, 84, 0
1, 35445, Note_off_c, 7, 81, 0
1, 35445, Note_off_c, 8, 53, 0
1, 35448, Note_on_c, 1, 82, 96
1, 35448, Note_on_c, 7, 82, 96
1, 35448, Note_on_c, 8, 55, 96
1, 35469, Note_off_c, 1, 82, 0
1, 35469, Note_off_c, 7, 82, 0
1, 35469, Note_off_c, 8, 55, 0
1, 35472, Note_on_c, 1, 81, 96
1, 35472, Note_on_c, 7, 84, 96
1, 35472, Note_on_c, 8, 57, 96
1, 35493, Note_off_c, 1, 81, 0
1, 35493, Note_off_c, 7, 84, 0
1, 35496, Note_on_c, 1, 79, 96
1, 35496, Note_on_c, 7, 76, 96
1, 35517, Note_off_c, 1, 79, 0
1, 35517, Note_off_c, 7, 76, 0
1, 35520, Note_on_c, 1, 77, 96
1, 35520, Note_on_c, 7, 74, 96
1, 35541, Note_off_c, 7, 74, 0
1, 35544, Note_on_c, 7, 84, 96
1, 35554, Note_off_c, 7, 84, 0
1, 35556, Note_on_c, 7, 82, 96
1, 35556, Note_off_c, 8, 57, 0
1, 35562, Note_off_c, 1, 77, 0
1, 35566, Note_off_c, 7, 82, 0
1, 35568, Note_on_c, 1, 81, 96
1, 35568, Note_on_c, 7, 81, 96
1, 35568, Note_on_c, 8, 50, 96
1, 35578, Note_off_c, 7, 81, 0
1, 35580, Note_on_c, 7, 79, 96
1, 35590, Note_off_c, 7, 79, 0
1, 35592, Note_on_c, 7, 77, 96
1, 35602, Note_off_c, 7, 77, 0
1, 35604, Note_on_c, 7, 76, 96
1, 35610, Note_off_c, 1, 81, 0
1, 35610, Note_off_c, 8, 50, 0
1, 35614, Note_off_c, 7, 76, 0
1, 35616, Note_on_c, 1, 77, 96
1, 35616, Note_on_c, 7, 74, 96
1, 35637, Note_off_c, 7, 74, 0
1, 35640, Note_on_c, 7, 81, 96
1, 35658, Note_off_c, 1, 77, 0
1, 35661, Note_off_c, 7, 81, 0
1, 35664, Note_on_c, 1, 74, 96
1, 35664, Note_on_c, 7, 77, 96
1, 35664, Note_on_c, 8, 53, 96
1, 35685, Note_off_c, 7, 77, 0
1, 35688, Note_off_c, 0, 72, 0
1, 35688, Note_on_c, 7, 74, 96
1, 35706, Note_off_c, 1, 74, 0
1, 35709, Note_off_c, 7, 74, 0
1, 35712, Note_on_c, 0, 70, 96
1, 35712, Note_on_c, 7, 67, 96
1, 35727, Note_off_c, 8, 53, 0
1, 35733, Note_off_c, 7, 67, 0
1, 35736, Note_on_c, 1, 77, 96
1, 35736, Note_on_c, 7, 74, 96
1, 35736, Note_on_c, 8, 57, 96
1, 35757, Note_off_c, 1, 77, 0
1, 35757, Note_off_c, 7, 74, 0
1, 35757, Note_off_c, 8, 57, 0
1, 35760, Note_on_c, 1, 79, 96
1, 35760, Note_on_c, 7, 76, 96
1, 35760, Note_on_c, 8, 55, 96
1, 35781, Note_off_c, 1, 79, 0
1, 35781, Note_off_c, 7, 76, 0
1, 35781, Note_off_c, 8, 55, 0
1, 35784, Note_on_c, 1, 81, 96
1, 35784, Note_on_c, 7, 77, 96
1, 35784, Note_on_c, 8, 53, 96
1, 35805, Note_off_c, 1, 81, 0
1, 35805, Note_off_c, 7, 77, 0
1, 35805, Note_off_c, 8, 53, 0
1, 35808, Note_on_c, 1, 82, 96
1, 35808, Note_on_c, 7, 79, 96
1, 35808, Note_on_c, 8, 52, 96
1, 35829, Note_off_c, 1, 82, 0
1, 35829, Note_off_c, 7, 79, 0
1, 35829, Note_off_c, 8, 52, 0
1, 35832, Note_on_c, 1, 81, 96
1, 35832, Note_on_c, 7, 81, 96
1, 35832, Note_on_c, 8, 53, 96
1, 35853, Note_off_c, 1, 81, 0
1, 35853, Note_off_c, 7, 81, 0
1, 35853, Note_off_c, 8, 53, 0
1, 35856, Note_on_c, 1, 79, 96
1, 35856, Note_on_c, 7, 82, 96
1, 35856, Note_on_c, 8, 55, 96
1, 35877, Note_off_c, 1, 79, 0
1, 35877, Note_off_c, 7, 82, 0
1, 35880, Note_on_c, 1, 77, 96
1, 35880, Note_on_c, 7, 74, 96
1, 35901, Note_off_c, 1, 77, 0
1, 35901, Note_off_c, 7, 74, 0
1, 35904, Note_on_c, 1, 76, 96
1, 35904, Note_on_c, 7, 72, 96
1, 35925, Note_off_c, 7, 72, 0
1, 35928, Note_on_c, 7, 82, 96
1, 35938, Note_off_c, 7, 82, 0
1, 35940, Note_on_c, 7, 81, 96
1, 35940, Note_off_c, 8, 55, 0
1, 35946, Note_off_c, 1, 76, 0
1, 35950, Note_off_c, 7, 81, 0
1, 35952, Note_on_c, 1, 79, 96
1, 35952, Note_on_c, 7, 79, 96
1, 35952, Note_on_c, 8, 48, 96
1, 35962, Note_off_c, 7, 79, 0
1, 35964, Note_on_c, 7, 77, 96
1, 35974, Note_off_c, 7, 77, 0
1, 35976, Note_on_c, 7, 76, 96
1, 35986, Note_off_c, 7, 76, 0
1, 35988, Note_on_c, 7, 74, 96
1, 35994, Note_off_c, 1, 79, 0
1, 35994, Note_off_c, 8, 48, 0
1, 35998, Note_off_c, 7, 74, 0
1, 36000, Note_on_c, 1, 76, 96
1, 36000, Note_on_c, 7, 72, 96
1, 36021, Note_off_c, 7, 72, 0
1, 36024, Note_on_c, 7, 79, 96
1, 36042, Note_off_c, 1, 76, 0
1, 36045, Note_off_c, 7, 79, 0
1, 36048, Note_on_c, 1, 72, 96
1, 36048, Note_on_c, 7, 76, 96
1, 36069, Note_off_c, 7, 76, 0
1, 36072, Note_off_c, 0, 70, 0
1, 36072, Note_on_c, 7, 72, 96
1, 36090, Note_off_c, 1, 72, 0
1, 36093, Note_off_c, 7, 72, 0
1, 36096, Note_on_c, 0, 69, 96
1, 36096, Note_on_c, 1, 77, 96
1, 36096, Note_on_c, 2, 72, 96
1, 36096, Note_on_c, 3, 69, 96
1, 36096, Note_on_c, 5, 41, 96
1, 36096, Note_on_c, 6, 29, 96
1, 36096, Note_on_c, 7, 65, 96
1, 36096, Note_on_c, 7, 53, 96
1, 36096, Note_on_c, 7, 48, 96
1, 36096, Note_on_c, 7, 45, 96
1, 36096, Note_on_c, 8, 41, 96
1, 36120, Note_on_c, 4, 60, 96
1, 36141, Note_off_c, 4, 60, 0
1, 36144, Note_on_c, 4, 58, 96
1, 36165, Note_off_c, 4, 58, 0
1, 36168, Note_on_c, 4, 60, 96
1, 36180, Note_off_c, 0, 69, 0
1, 36180, Note_off_c, 1, 77, 0
1, 36180, Note_off_c, 2, 72, 0
1, 36180, Note_off_c, 3, 69, 0
1, 36180, Note_off_c, 5, 41, 0
1, 36180, Note_off_c, 6, 29, 0
1, 36180, Note_off_c, 7, 65, 0
1, 36180, Note_off_c, 7, 53, 0
1, 36180, Note_off_c, 7, 48, 0
1, 36180, Note_off_c, 7, 45, 0
1, 36180, Note_off_c, 8, 41, 0
1, 36189, Note_off_c, 4, 60, 0
1, 36192, Note_on_c, 2, 77, 96
1, 36192, Note_on_c, 4, 62, 96
1, 36192, Note_on_c, 7, 77, 96
1, 36216, Note_on_c, 3, 69, 96
1, 36216, Note_on_c, 5, 41, 96
1, 36216, Note_on_c, 6, 29, 96
1, 36216, Note_on_c, 7, 74, 96
1, 36216, Note_on_c, 8, 41, 96
1, 36237, Note_off_c, 3, 69, 0
1, 36237, Note_off_c, 5, 41, 0
1, 36237, Note_off_c, 6, 29, 0
1, 36237, Note_off_c, 7, 74, 0
1, 36237, Note_off_c, 8, 41, 0
1, 36240, Note_on_c, 3, 67, 96
1, 36240, Note_on_c, 5, 40, 96
1, 36240, Note_on_c, 6, 28, 96
1, 36240, Note_on_c, 7, 72, 96
1, 36240, Note_on_c, 8, 40, 96
1, 36261, Note_off_c, 3, 67, 0
1, 36261, Note_off_c, 5, 40, 0
1, 36261, Note_off_c, 6, 28, 0
1, 36261, Note_off_c, 7, 72, 0
1, 36261, Note_off_c, 8, 40, 0
1, 36264, Note_on_c, 3, 69, 96
1, 36264, Note_on_c, 5, 41, 96
1, 36264, Note_on_c, 6, 29, 96
1, 36264, Note_on_c, 7, 74, 96
1, 36264, Note_on_c, 8, 41, 96
1, 36285, Note_off_c, 3, 69, 0
1, 36285, Note_off_c, 5, 41, 0
1, 36285, Note_off_c, 6, 29, 0
1, 36285, Note_off_c, 7, 74, 0
1, 36285, Note_off_c, 8, 41, 0
1, 36288, Note_on_c, 3, 70, 96
1, 36288, Note_on_c, 5, 43, 96
1, 36288, Note_on_c, 6, 31, 96
1, 36288, Note_on_c, 7, 70, 96
1, 36288, Note_on_c, 8, 43, 96
1, 36309, Note_off_c, 3, 70, 0
1, 36309, Note_off_c, 5, 43, 0
1, 36309, Note_off_c, 6, 31, 0
1, 36309, Note_off_c, 8, 43, 0
1, 36312, Note_on_c, 3, 72, 96
1, 36312, Note_on_c, 5, 41, 96
1, 36312, Note_on_c, 6, 29, 96
1, 36312, Note_on_c, 8, 41, 96
1, 36318, Note_off_c, 2, 77, 0
1, 36318, Note_off_c, 4, 62, 0
1, 36318, Note_off_c, 7, 77, 0
1, 36333, Note_off_c, 3, 72, 0
1, 36333, Note_off_c, 5, 41, 0
1, 36333, Note_off_c, 6, 29, 0
1, 36333, Note_off_c, 8, 41, 0
1, 36336, Note_on_c, 2, 76, 96
1, 36336, Note_on_c, 3, 70, 96
1, 36336, Note_on_c, 4, 55, 96
1, 36336, Note_on_c, 5, 43, 96
1, 36336, Note_on_c, 6, 31, 96
1, 36336, Note_on_c, 7, 76, 96
1, 36336, Note_on_c, 8, 43, 96
1, 36357, Note_off_c, 2, 76, 0
1, 36357, Note_off_c, 3, 70, 0
1, 36357, Note_off_c, 5, 43, 0
1, 36357, Note_off_c, 6, 31, 0
1, 36357, Note_off_c, 7, 76, 0
1, 36357, Note_off_c, 8, 43, 0
1, 36360, Note_on_c, 2, 77, 96
1, 36360, Note_on_c, 3, 69, 96
1, 36360, Note_on_c, 5, 45, 96
1, 36360, Note_on_c, 6, 33, 96
1, 36360, Note_on_c, 7, 77, 96
1, 36360, Note_on_c, 8, 45, 96
1, 36372, Note_off_c, 7, 70, 0
1, 36378, Note_off_c, 4, 55, 0
1, 36381, Note_off_c, 2, 77, 0
1, 36381, Note_off_c, 3, 69, 0
1, 36381, Note_off_c, 5, 45, 0
1, 36381, Note_off_c, 6, 33, 0
1, 36381, Note_off_c, 7, 77, 0
1, 36381, Note_off_c, 8, 45, 0
1, 36384, Note_on_c, 2, 79, 96
1, 36384, Note_on_c, 3, 67, 96
1, 36384, Note_on_c, 4, 60, 96
1, 36384, Note_on_c, 5, 46, 96
1, 36384, Note_on_c, 6, 34, 96
1, 36384, Note_on_c, 7, 79, 96
1, 36384, Note_on_c, 7, 76, 96
1, 36384, Note_on_c, 7, 72, 96
1, 36384, Note_on_c, 7, 67, 96
1, 36384, Note_on_c, 8, 46, 96
1, 36405, Note_off_c, 5, 46, 0
1, 36405, Note_off_c, 6, 34, 0
1, 36405, Note_off_c, 8, 46, 0
1, 36408, Note_on_c, 5, 45, 96
1, 36408, Note_on_c, 6, 33, 96
1, 36408, Note_on_c, 8, 45, 96
1, 36426, Note_off_c, 2, 79, 0
1, 36426, Note_off_c, 3, 67, 0
1, 36426, Note_off_c, 7, 79, 0
1, 36426, Note_off_c, 7, 76, 0
1, 36426, Note_off_c, 7, 72, 0
1, 36426, Note_off_c, 7, 67, 0
1, 36429, Note_off_c, 5, 45, 0
1, 36429, Note_off_c, 6, 33, 0
1, 36429, Note_off_c, 8, 45, 0
1, 36432, Note_on_c, 2, 77, 96
1, 36432, Note_on_c, 3, 72, 96
1, 36432, Note_on_c, 5, 46, 96
1, 36432, Note_on_c, 6, 34, 96
1, 36432, Note_on_c, 7, 77, 96
1, 36432, Note_on_c, 8, 46, 96
1, 36453, Note_off_c, 2, 77, 0
1, 36453, Note_off_c, 5, 46, 0
1, 36453, Note_off_c, 6, 34, 0
1, 36453, Note_off_c, 7, 77, 0
1, 36453, Note_off_c, 8, 46, 0
1, 36456, Note_on_c, 2, 76, 96
1, 36456, Note_on_c, 5, 43, 96
1, 36456, Note_on_c, 6, 31, 96
1, 36456, Note_on_c, 7, 76, 96
1, 36456, Note_on_c, 8, 43, 96
1, 36477, Note_off_c, 2, 76, 0
1, 36477, Note_off_c, 5, 43, 0
1, 36477, Note_off_c, 6, 31, 0
1, 36477, Note_off_c, 7, 76, 0
1, 36477, Note_off_c, 8, 43, 0
1, 36480, Note_on_c, 2, 77, 96
1, 36480, Note_on_c, 5, 45, 96
1, 36480, Note_on_c, 6, 33, 96
1, 36480, Note_on_c, 7, 77, 96
1, 36480, Note_on_c, 8, 45, 96
1, 36489, Note_off_c, 4, 60, 0
1, 36495, Note_off_c, 3, 72, 0
1, 36504, Note_on_c, 3, 74, 96
1, 36504, Note_on_c, 4, 70, 96
1, 36522, Note_off_c, 2, 77, 0
1, 36522, Note_off_c, 5, 45, 0
1, 36522, Note_off_c, 6, 33, 0
1, 36522, Note_off_c, 7, 77, 0
1, 36522, Note_off_c, 8, 45, 0
1, 36525, Note_off_c, 3, 74, 0
1, 36525, Note_off_c, 4, 70, 0
1, 36528, Note_on_c, 2, 72, 96
1, 36528, Note_on_c, 3, 72, 96
1, 36528, Note_on_c, 4, 69, 96
1, 36528, Note_on_c, 5, 41, 96
1, 36528, Note_on_c, 6, 29, 96
1, 36528, Note_on_c, 7, 72, 96
1, 36528, Note_on_c, 8, 41, 96
1, 36549, Note_off_c, 3, 72, 0
1, 36549, Note_off_c, 4, 69, 0
1, 36552, Note_on_c, 3, 70, 96
1, 36552, Note_on_c, 4, 67, 96
1, 36570, Note_off_c, 2, 72, 0
1, 36570, Note_off_c, 5, 41, 0
1, 36570, Note_off_c, 6, 29, 0
1, 36570, Note_off_c, 7, 72, 0
1, 36570, Note_off_c, 8, 41, 0
1, 36573, Note_off_c, 3, 70, 0
1, 36573, Note_off_c, 4, 67, 0
1, 36576, Note_on_c, 2, 74, 96
1, 36576, Note_on_c, 3, 69, 96
1, 36576, Note_on_c, 4, 65, 96
1, 36576, Note_on_c, 5, 53, 96
1, 36576, Note_on_c, 6, 41, 96
1, 36576, Note_on_c, 7, 74, 96
1, 36576, Note_on_c, 7, 55, 96
1, 36576, Note_on_c, 8, 53, 96
1, 36597, Note_off_c, 3, 69, 0
1, 36597, Note_off_c, 4, 65, 0
1, 36600, Note_on_c, 3, 67, 96
1, 36600, Note_on_c, 4, 64, 96
1, 36618, Note_off_c, 2, 74, 0
1, 36618, Note_off_c, 7, 74, 0
1, 36621, Note_off_c, 3, 67, 0
1, 36621, Note_off_c, 4, 64, 0
1, 36624, Note_on_c, 2, 69, 96
1, 36624, Note_on_c, 3, 65, 96
1, 36624, Note_on_c, 4, 62, 96
1, 36624, Note_on_c, 7, 69, 96
1, 36645, Note_off_c, 3, 65, 0
1, 36648, Note_on_c, 3, 64, 96
1, 36660, Note_off_c, 7, 55, 0
1, 36666, Note_off_c, 2, 69, 0
1, 36666, Note_off_c, 4, 62, 0
1, 36666, Note_off_c, 7, 69, 0
1, 36669, Note_off_c, 3, 64, 0
1, 36672, Note_on_c, 2, 70, 96
1, 36672, Note_on_c, 3, 62, 96
1, 36672, Note_on_c, 4, 67, 96
1, 36672, Note_on_c, 7, 70, 96
1, 36672, Note_on_c, 7, 62, 96
1, 36693, Note_off_c, 3, 62, 0
1, 36696, Note_on_c, 3, 72, 96
1, 36714, Note_off_c, 2, 70, 0
1, 36714, Note_off_c, 4, 67, 0
1, 36714, Note_off_c, 7, 70, 0
1, 36717, Note_off_c, 3, 72, 0
1, 36720, Note_on_c, 2, 67, 96
1, 36720, Note_on_c, 3, 70, 96
1, 36720, Note_on_c, 4, 62, 96
1, 36720, Note_on_c, 7, 67, 96
1, 36741, Note_off_c, 3, 70, 0
1, 36744, Note_on_c, 3, 69, 96
1, 36744, Note_off_c, 5, 53, 0
1, 36744, Note_off_c, 6, 41, 0
1, 36744, Note_off_c, 8, 53, 0
1, 36756, Note_off_c, 7, 62, 0
1, 36762, Note_off_c, 2, 67, 0
1, 36762, Note_off_c, 4, 62, 0
1, 36762, Note_off_c, 7, 67, 0
1, 36765, Note_off_c, 3, 69, 0
1, 36768, Note_on_c, 2, 72, 96
1, 36768, Note_on_c, 3, 67, 96
1, 36768, Note_on_c, 4, 64, 96
1, 36768, Note_on_c, 5, 52, 96
1, 36768, Note_on_c, 6, 40, 96
1, 36768, Note_on_c, 7, 72, 96
1, 36768, Note_on_c, 7, 55, 96
1, 36768, Note_on_c, 8, 52, 96
1, 36789, Note_off_c, 3, 67, 0
1, 36792, Note_on_c, 3, 69, 96
1, 36810, Note_off_c, 2, 72, 0
1, 36810, Note_off_c, 4, 64, 0
1, 36810, Note_off_c, 7, 72, 0
1, 36813, Note_off_c, 3, 69, 0
1, 36816, Note_on_c, 2, 67, 96
1, 36816, Note_on_c, 3, 70, 96
1, 36816, Note_on_c, 4, 60, 96
1, 36816, Note_on_c, 7, 67, 96
1, 36837, Note_off_c, 3, 70, 0
1, 36840, Note_on_c, 3, 72, 96
1, 36852, Note_off_c, 5, 52, 0
1, 36852, Note_off_c, 6, 40, 0
1, 36852, Note_off_c, 7, 55, 0
1, 36852, Note_off_c, 8, 52, 0
1, 36858, Note_off_c, 2, 67, 0
1, 36858, Note_off_c, 4, 60, 0
1, 36858, Note_off_c, 7, 67, 0
1, 36861, Note_off_c, 3, 72, 0
1, 36864, Note_on_c, 1, 72, 96
1, 36864, Note_on_c, 2, 69, 96
1, 36864, Note_on_c, 3, 65, 96
1, 36864, Note_on_c, 4, 60, 96
1, 36864, Note_on_c, 5, 53, 96
1, 36864, Note_on_c, 6, 41, 96
1, 36864, Note_on_c, 7, 69, 96
1, 36864, Note_on_c, 8, 53, 96
1, 36885, Note_off_c, 7, 69, 0
1, 36888, Note_on_c, 7, 57, 96
1, 36906, Note_off_c, 3, 65, 0
1, 36906, Note_off_c, 5, 53, 0
1, 36906, Note_off_c, 6, 41, 0
1, 36906, Note_off_c, 8, 53, 0
1, 36909, Note_off_c, 7, 57, 0
1, 36912, Note_on_c, 3, 69, 96
1, 36912, Note_on_c, 5, 52, 96
1, 36912, Note_on_c, 6, 40, 96
1, 36912, Note_on_c, 7, 58, 96
1, 36912, Note_on_c, 8, 52, 96
1, 36933, Note_off_c, 7, 58, 0
1, 36936, Note_on_c, 7, 60, 96
1, 36948, Note_off_c, 1, 72, 0
1, 36948, Note_off_c, 4, 60, 0
1, 36954, Note_off_c, 3, 69, 0
1, 36954, Note_off_c, 5, 52, 0
1, 36954, Note_off_c, 6, 40, 0
1, 36954, Note_off_c, 8, 52, 0
1, 36957, Note_off_c, 7, 60, 0
1, 36960, Note_on_c, 1, 77, 96
1, 36960, Note_on_c, 3, 74, 96
1, 36960, Note_on_c, 4, 53, 96
1, 36960, Note_on_c, 5, 50, 96
1, 36960, Note_on_c, 6, 38, 96
1, 36960, Note_on_c, 7, 62, 96
1, 36960, Note_on_c, 8, 50, 96
1, 36969, Note_off_c, 2, 69, 0
1, 36981, Note_off_c, 7, 62, 0
1, 36984, Note_on_c, 2, 67, 96
1, 36984, Note_on_c, 7, 64, 96
1, 37002, Note_off_c, 5, 50, 0
1, 37002, Note_off_c, 6, 38, 0
1, 37002, Note_off_c, 8, 50, 0
1, 37005, Note_off_c, 2, 67, 0
1, 37005, Note_off_c, 7, 64, 0
1, 37008, Note_on_c, 2, 69, 96
1, 37008, Note_on_c, 5, 48, 96
1, 37008, Note_on_c, 6, 36, 96
1, 37008, Note_on_c, 7, 65, 96
1, 37008, Note_on_c, 8, 48, 96
1, 37029, Note_off_c, 2, 69, 0
1, 37029, Note_off_c, 7, 65, 0
1, 37032, Note_on_c, 2, 65, 96
1, 37032, Note_on_c, 7, 57, 96
1, 37044, Note_off_c, 4, 53, 0
1, 37050, Note_off_c, 5, 48, 0
1, 37050, Note_off_c, 6, 36, 0
1, 37050, Note_off_c, 8, 48, 0
1, 37053, Note_off_c, 2, 65, 0
1, 37053, Note_off_c, 7, 57, 0
1, 37056, Note_on_c, 2, 67, 96
1, 37056, Note_on_c, 4, 58, 96
1, 37056, Note_on_c, 5, 46, 96
1, 37056, Note_on_c, 6, 34, 96
1, 37056, Note_on_c, 7, 55, 96
1, 37056, Note_on_c, 8, 46, 96
1, 37077, Note_off_c, 7, 55, 0
1, 37080, Note_on_c, 7, 58, 96
1, 37086, Note_off_c, 1, 77, 0
1, 37098, Note_off_c, 5, 46, 0
1, 37098, Note_off_c, 6, 34, 0
1, 37098, Note_off_c, 8, 46, 0
1, 37101, Note_off_c, 7, 58, 0
1, 37104, Note_on_c, 1, 76, 96
1, 37104, Note_on_c, 5, 43, 96
1, 37104, Note_on_c, 6, 31, 96
1, 37104, Note_on_c, 7, 60, 96
1, 37104, Note_on_c, 8, 43, 96
1, 37125, Note_off_c, 1, 76, 0
1, 37125, Note_off_c, 7, 60, 0
1, 37128, Note_on_c, 1, 77, 96
1, 37128, Note_off_c, 3, 74, 0
1, 37128, Note_on_c, 7, 62, 96
1, 37140, Note_off_c, 4, 58, 0
1, 37146, Note_off_c, 5, 43, 0
1, 37146, Note_off_c, 6, 31, 0
1, 37146, Note_off_c, 8, 43, 0
1, 37149, Note_off_c, 1, 77, 0
1, 37149, Note_off_c, 7, 62, 0
1, 37152, Note_on_c, 1, 79, 96
1, 37152, Note_on_c, 3, 72, 96
1, 37152, Note_on_c, 4, 52, 96
1, 37152, Note_on_c, 5, 48, 96
1, 37152, Note_on_c, 6, 36, 96
1, 37152, Note_on_c, 7, 64, 96
1, 37152, Note_on_c, 8, 48, 96
1, 37161, Note_off_c, 2, 67, 0
1, 37173, Note_off_c, 7, 64, 0
1, 37176, Note_on_c, 2, 69, 96
1, 37176, Note_on_c, 7, 65, 96
1, 37194, Note_off_c, 1, 79, 0
1, 37194, Note_off_c, 5, 48, 0
1, 37194, Note_off_c, 6, 36, 0
1, 37194, Note_off_c, 8, 48, 0
1, 37197, Note_off_c, 2, 69, 0
1, 37197, Note_off_c, 7, 65, 0
1, 37200, Note_on_c, 1, 77, 96
1, 37200, Note_on_c, 2, 70, 96
1, 37200, Note_on_c, 5, 36, 96
1, 37200, Note_on_c, 6, 24, 96
1, 37200, Note_on_c, 7, 67, 96
1, 37200, Note_on_c, 8, 36, 96
1, 37221, Note_off_c, 1, 77, 0
1, 37221, Note_off_c, 2, 70, 0
1, 37221, Note_off_c, 7, 67, 0
1, 37224, Note_on_c, 1, 76, 96
1, 37224, Note_on_c, 2, 67, 96
1, 37224, Note_on_c, 7, 58, 96
1, 37236, Note_off_c, 4, 52, 0
1, 37242, Note_off_c, 5, 36, 0
1, 37242, Note_off_c, 6, 24, 0
1, 37242, Note_off_c, 8, 36, 0
1, 37245, Note_off_c, 1, 76, 0
1, 37245, Note_off_c, 2, 67, 0
1, 37245, Note_off_c, 7, 58, 0
1, 37248, Note_on_c, 0, 72, 96
1, 37248, Note_on_c, 1, 77, 96
1, 37248, Note_on_c, 2, 69, 96
1, 37248, Note_on_c, 4, 48, 96
1, 37248, Note_on_c, 5, 41, 96
1, 37248, Note_on_c, 6, 29, 96
1, 37248, Note_on_c, 7, 57, 96
1, 37248, Note_on_c, 8, 41, 96
1, 37269, Note_off_c, 7, 57, 0
1, 37272, Note_on_c, 7, 60, 96
1, 37278, Note_off_c, 3, 72, 0
1, 37290, Note_off_c, 1, 77, 0
1, 37290, Note_off_c, 2, 69, 0
1, 37290, Note_off_c, 4, 48, 0
1, 37290, Note_off_c, 5, 41, 0
1, 37290, Note_off_c, 6, 29, 0
1, 37290, Note_off_c, 8, 41, 0
1, 37293, Note_off_c, 7, 60, 0
1, 37296, Note_on_c, 1, 72, 96
1, 37296, Note_on_c, 2, 72, 96
1, 37296, Note_on_c, 3, 65, 96
1, 37296, Note_on_c, 4, 60, 96
1, 37296, Note_on_c, 5, 45, 96
1, 37296, Note_on_c, 6, 33, 96
1, 37296, Note_on_c, 7, 62, 96
1, 37296, Note_on_c, 8, 45, 96
1, 37317, Note_off_c, 7, 62, 0
1, 37320, Note_on_c, 7, 64, 96
1, 37332, Note_off_c, 0, 72, 0
1, 37338, Note_off_c, 1, 72, 0
1, 37338, Note_off_c, 2, 72, 0
1, 37338, Note_off_c, 3, 65, 0
1, 37338, Note_off_c, 4, 60, 0
1, 37338, Note_off_c, 5, 45, 0
1, 37338, Note_off_c, 6, 33, 0
1, 37338, Note_off_c, 8, 45, 0
1, 37341, Note_off_c, 7, 64, 0
1, 37344, Note_on_c, 0, 77, 96
1, 37344, Note_on_c, 1, 74, 96
1, 37344, Note_on_c, 2, 65, 96
1, 37344, Note_on_c, 3, 69, 96
1, 37344, Note_on_c, 4, 57, 96
1, 37344, Note_on_c, 5, 38, 96
1, 37344, Note_on_c, 6, 26, 96
1, 37344, Note_on_c, 7, 65, 96
1, 37344, Note_on_c, 8, 38, 96
1, 37365, Note_off_c, 7, 65, 0
1, 37368, Note_on_c, 7, 67, 96
1, 37386, Note_off_c, 1, 74, 0
1, 37386, Note_off_c, 2, 65, 0
1, 37386, Note_off_c, 3, 69, 0
1, 37386, Note_off_c, 4, 57, 0
1, 37386, Note_off_c, 5, 38, 0
1, 37386, Note_off_c, 6, 26, 0
1, 37386, Note_off_c, 8, 38, 0
1, 37389, Note_off_c, 7, 67, 0
1, 37392, Note_on_c, 1, 69, 96
1, 37392, Note_on_c, 2, 74, 96
1, 37392, Note_on_c, 3, 57, 96
1, 37392, Note_on_c, 4, 53, 96
1, 37392, Note_on_c, 5, 41, 96
1, 37392, Note_on_c, 6, 29, 96
1, 37392, Note_on_c, 7, 69, 96
1, 37392, Note_on_c, 8, 41, 96
1, 37413, Note_off_c, 7, 69, 0
1, 37416, Note_on_c, 7, 63, 96
1, 37434, Note_off_c, 1, 69, 0
1, 37434, Note_off_c, 2, 74, 0
1, 37434, Note_off_c, 3, 57, 0
1, 37434, Note_off_c, 4, 53, 0
1, 37434, Note_off_c, 5, 41, 0
1, 37434, Note_off_c, 6, 29, 0
1, 37434, Note_off_c, 8, 41, 0
1, 37437, Note_off_c, 7, 63, 0
1, 37440, Note_on_c, 1, 70, 96
1, 37440, Note_on_c, 2, 70, 96
1, 37440, Note_on_c, 3, 62, 96
1, 37440, Note_on_c, 4, 50, 96
1, 37440, Note_on_c, 5, 43, 96
1, 37440, Note_on_c, 6, 31, 96
1, 37440, Note_on_c, 7, 62, 96
1, 37440, Note_on_c, 8, 43, 96
1, 37461, Note_off_c, 7, 62, 0
1, 37464, Note_on_c, 7, 65, 96
1, 37470, Note_off_c, 0, 77, 0
1, 37482, Note_off_c, 1, 70, 0
1, 37485, Note_off_c, 7, 65, 0
1, 37488, Note_on_c, 0, 76, 96
1, 37488, Note_on_c, 1, 67, 96
1, 37488, Note_on_c, 7, 67, 96
1, 37509, Note_off_c, 0, 76, 0
1, 37509, Note_off_c, 7, 67, 0
1, 37512, Note_on_c, 0, 77, 96
1, 37512, Note_on_c, 7, 69, 96
1, 37524, Note_off_c, 2, 70, 0
1, 37524, Note_off_c, 3, 62, 0
1, 37524, Note_off_c, 4, 50, 0
1, 37524, Note_off_c, 5, 43, 0
1, 37524, Note_off_c, 6, 31, 0
1, 37524, Note_off_c, 8, 43, 0
1, 37530, Note_off_c, 1, 67, 0
1, 37533, Note_off_c, 0, 77, 0
1, 37533, Note_off_c, 7, 69, 0
1, 37536, Note_on_c, 0, 79, 96
1, 37536, Note_on_c, 1, 72, 96
1, 37536, Note_on_c, 7, 70, 96
1, 37557, Note_off_c, 7, 70, 0
1, 37560, Note_on_c, 7, 74, 96
1, 37578, Note_off_c, 0, 79, 0
1, 37578, Note_off_c, 1, 72, 0
1, 37581, Note_off_c, 7, 74, 0
1, 37584, Note_on_c, 0, 77, 96
1, 37584, Note_on_c, 1, 67, 96
1, 37584, Note_on_c, 2, 67, 96
1, 37584, Note_on_c, 3, 64, 96
1, 37584, Note_on_c, 4, 48, 96
1, 37584, Note_on_c, 5, 36, 96
1, 37584, Note_on_c, 6, 24, 96
1, 37584, Note_on_c, 7, 72, 96
1, 37584, Note_on_c, 8, 48, 96
1, 37584, Note_on_c, 8, 36, 96
1, 37605, Note_off_c, 0, 77, 0
1, 37605, Note_off_c, 7, 72, 0
1, 37608, Note_on_c, 0, 76, 96
1, 37608, Note_on_c, 7, 70, 96
1, 37626, Note_off_c, 1, 67, 0
1, 37626, Note_off_c, 2, 67, 0
1, 37626, Note_off_c, 3, 64, 0
1, 37626, Note_off_c, 4, 48, 0
1, 37626, Note_off_c, 5, 36, 0
1, 37626, Note_off_c, 6, 24, 0
1, 37626, Note_off_c, 8, 48, 0
1, 37626, Note_off_c, 8, 36, 0
1, 37629, Note_off_c, 0, 76, 0
1, 37629, Note_off_c, 7, 70, 0
1, 37632, Note_on_c, 0, 77, 96
1, 37632, Note_on_c, 1, 69, 96
1, 37632, Note_on_c, 2, 65, 96
1, 37632, Note_on_c, 3, 57, 96
1, 37632, Note_on_c, 4, 48, 96
1, 37632, Note_on_c, 5, 41, 96
1, 37632, Note_on_c, 6, 29, 96
1, 37632, Note_on_c, 7, 69, 96
1, 37632, Note_on_c, 8, 53, 96
1, 37632, Note_on_c, 8, 41, 96
1, 37653, Note_off_c, 0, 77, 0
1, 37653, Note_off_c, 7, 69, 0
1, 37653, Note_off_c, 8, 53, 0
1, 37653, Note_off_c, 8, 41, 0
1, 37656, Note_on_c, 0, 76, 96
1, 37656, Note_on_c, 7, 72, 96
1, 37656, Note_on_c, 8, 55, 96
1, 37677, Note_off_c, 0, 76, 0
1, 37677, Note_off_c, 7, 72, 0
1, 37677, Note_off_c, 8, 55, 0
1, 37680, Note_on_c, 0, 77, 96
1, 37680, Note_on_c, 7, 74, 96
1, 37680, Note_on_c, 8, 53, 96
1, 37701, Note_off_c, 0, 77, 0
1, 37701, Note_off_c, 7, 74, 0
1, 37701, Note_off_c, 8, 53, 0
1, 37704, Note_on_c, 0, 79, 96
1, 37704, Note_on_c, 7, 76, 96
1, 37704, Note_on_c, 8, 52, 96
1, 37716, Note_off_c, 1, 69, 0
1, 37716, Note_off_c, 2, 65, 0
1, 37716, Note_off_c, 3, 57, 0
1, 37716, Note_off_c, 4, 48, 0
1, 37716, Note_off_c, 5, 41, 0
1, 37716, Note_off_c, 6, 29, 0
1, 37725, Note_off_c, 0, 79, 0
1, 37725, Note_off_c, 7, 76, 0
1, 37725, Note_off_c, 8, 52, 0
1, 37728, Note_on_c, 0, 81, 96
1, 37728, Note_on_c, 1, 81, 96
1, 37728, Note_on_c, 7, 77, 96
1, 37728, Note_on_c, 8, 50, 96
1, 37749, Note_off_c, 0, 81, 0
1, 37749, Note_off_c, 7, 77, 0
1, 37749, Note_off_c, 8, 50, 0
1, 37752, Note_on_c, 0, 79, 96
1, 37752, Note_on_c, 7, 79, 96
1, 37752, Note_on_c, 8, 52, 96
1, 37773, Note_off_c, 0, 79, 0
1, 37773, Note_off_c, 7, 79, 0
1, 37773, Note_off_c, 8, 52, 0
1, 37776, Note_on_c, 0, 77, 96
1, 37776, Note_on_c, 7, 81, 96
1, 37776, Note_on_c, 8, 53, 96
1, 37797, Note_off_c, 0, 77, 0
1, 37797, Note_off_c, 7, 81, 0
1, 37800, Note_on_c, 0, 76, 96
1, 37800, Note_on_c, 7, 72, 96
1, 37821, Note_off_c, 0, 76, 0
1, 37821, Note_off_c, 7, 72, 0
1, 37824, Note_on_c, 0, 74, 96
1, 37824, Note_on_c, 7, 71, 96
1, 37845, Note_off_c, 7, 71, 0
1, 37848, Note_on_c, 7, 81, 96
1, 37858, Note_off_c, 7, 81, 0
1, 37860, Note_on_c, 7, 79, 96
1, 37860, Note_off_c, 8, 53, 0
1, 37866, Note_off_c, 0, 74, 0
1, 37870, Note_off_c, 7, 79, 0
1, 37872, Note_on_c, 0, 77, 96
1, 37872, Note_on_c, 7, 77, 96
1, 37872, Note_on_c, 8, 47, 96
1, 37882, Note_off_c, 7, 77, 0
1, 37884, Note_on_c, 7, 76, 96
1, 37894, Note_off_c, 7, 76, 0
1, 37896, Note_on_c, 7, 74, 96
1, 37906, Note_off_c, 7, 74, 0
1, 37908, Note_on_c, 7, 72, 96
1, 37914, Note_off_c, 0, 77, 0
1, 37914, Note_off_c, 8, 47, 0
1, 37918, Note_off_c, 7, 72, 0
1, 37920, Note_on_c, 0, 74, 96
1, 37920, Note_on_c, 7, 71, 96
1, 37941, Note_off_c, 7, 71, 0
1, 37944, Note_on_c, 7, 77, 96
1, 37962, Note_off_c, 0, 74, 0
1, 37965, Note_off_c, 7, 77, 0
1, 37968, Note_on_c, 0, 71, 96
1, 37968, Note_on_c, 7, 74, 96
1, 37968, Note_on_c, 8, 50, 96
1, 37989, Note_off_c, 7, 74, 0
1, 37992, Note_off_c, 1, 81, 0
1, 37992, Note_on_c, 7, 71, 96
1, 38010, Note_off_c, 0, 71, 0
1, 38013, Note_off_c, 7, 71, 0
1, 38016, Note_on_c, 1, 79, 96
1, 38016, Note_on_c, 7, 64, 96
1, 38031, Note_off_c, 8, 50, 0
1, 38037, Note_off_c, 7, 64, 0
1, 38040, Note_on_c, 0, 74, 96
1, 38040, Note_on_c, 7, 71, 96
1, 38040, Note_on_c, 8, 53, 96
1, 38061, Note_off_c, 0, 74, 0
1, 38061, Note_off_c, 7, 71, 0
1, 38061, Note_off_c, 8, 53, 0
1, 38064, Note_on_c, 0, 76, 96
1, 38064, Note_on_c, 7, 72, 96
1, 38064, Note_on_c, 8, 52, 96
1, 38085, Note_off_c, 0, 76, 0
1, 38085, Note_off_c, 7, 72, 0
1, 38085, Note_off_c, 8, 52, 0
1, 38088, Note_on_c, 0, 77, 96
1, 38088, Note_on_c, 7, 74, 96
1, 38088, Note_on_c, 8, 50, 96
1, 38109, Note_off_c, 0, 77, 0
1, 38109, Note_off_c, 7, 74, 0
1, 38109, Note_off_c, 8, 50, 0
1, 38112, Note_on_c, 0, 79, 96
1, 38112, Note_on_c, 7, 76, 96
1, 38112, Note_on_c, 8, 48, 96
1, 38133, Note_off_c, 0, 79, 0
1, 38133, Note_off_c, 7, 76, 0
1, 38133, Note_off_c, 8, 48, 0
1, 38136, Note_on_c, 0, 77, 96
1, 38136, Note_on_c, 7, 77, 96
1, 38136, Note_on_c, 8, 50, 96
1, 38157, Note_off_c, 0, 77, 0
1, 38157, Note_off_c, 7, 77, 0
1, 38157, Note_off_c, 8, 50, 0
1, 38160, Note_on_c, 0, 76, 96
1, 38160, Note_on_c, 7, 79, 96
1, 38160, Note_on_c, 8, 52, 96
1, 38181, Note_off_c, 0, 76, 0
1, 38181, Note_off_c, 7, 79, 0
1, 38184, Note_on_c, 0, 74, 96
1, 38184, Note_on_c, 7, 71, 96
1, 38205, Note_off_c, 0, 74, 0
1, 38205, Note_off_c, 7, 71, 0
1, 38208, Note_on_c, 0, 72, 96
1, 38208, Note_on_c, 7, 69, 96
1, 38229, Note_off_c, 7, 69, 0
1, 38232, Note_on_c, 7, 79, 96
1, 38242, Note_off_c, 7, 79, 0
1, 38244, Note_on_c, 7, 77, 96
1, 38244, Note_off_c, 8, 52, 0
1, 38250, Note_off_c, 0, 72, 0
1, 38254, Note_off_c, 7, 77, 0
1, 38256, Note_on_c, 0, 76, 96
1, 38256, Note_on_c, 7, 76, 96
1, 38256, Note_on_c, 8, 45, 96
1, 38266, Note_off_c, 7, 76, 0
1, 38268, Note_on_c, 7, 74, 96
1, 38278, Note_off_c, 7, 74, 0
1, 38280, Note_on_c, 7, 72, 96
1, 38290, Note_off_c, 7, 72, 0
1, 38292, Note_on_c, 7, 71, 96
1, 38298, Note_off_c, 0, 76, 0
1, 38298, Note_off_c, 8, 45, 0
1, 38302, Note_off_c, 7, 71, 0
1, 38304, Note_on_c, 0, 72, 96
1, 38304, Note_on_c, 7, 69, 96
1, 38325, Note_off_c, 7, 69, 0
1, 38328, Note_on_c, 7, 76, 96
1, 38346, Note_off_c, 0, 72, 0
1, 38349, Note_off_c, 7, 76, 0
1, 38352, Note_on_c, 0, 69, 96
1, 38352, Note_on_c, 7, 72, 96
1, 38352, Note_on_c, 8, 48, 96
1, 38373, Note_off_c, 7, 72, 0
1, 38376, Note_off_c, 1, 79, 0
1, 38376, Note_on_c, 7, 69, 96
1, 38394, Note_off_c, 0, 69, 0
1, 38397, Note_off_c, 7, 69, 0
1, 38400, Note_on_c, 1, 77, 96
1, 38400, Note_on_c, 7, 62, 96
1, 38415, Note_off_c, 8, 48, 0
1, 38421, Note_off_c, 7, 62, 0
1, 38424, Note_on_c, 0, 72, 96
1, 38424, Note_on_c, 7, 69, 96
1, 38424, Note_on_c, 8, 52, 96
1, 38445, Note_off_c, 0, 72, 0
1, 38445, Note_off_c, 7, 69, 0
1, 38445, Note_off_c, 8, 52, 0
1, 38448, Note_on_c, 0, 74, 96
1, 38448, Note_on_c, 7, 71, 96
1, 38448, Note_on_c, 8, 50, 96
1, 38469, Note_off_c, 0, 74, 0
1, 38469, Note_off_c, 7, 71, 0
1, 38469, Note_off_c, 8, 50, 0
1, 38472, Note_on_c, 0, 76, 96
1, 38472, Note_on_c, 7, 72, 96
1, 38472, Note_on_c, 8, 48, 96
1, 38493, Note_off_c, 0, 76, 0
1, 38493, Note_off_c, 7, 72, 0
1, 38493, Note_off_c, 8, 48, 0
1, 38496, Note_on_c, 0, 77, 96
1, 38496, Note_on_c, 7, 74, 96
1, 38496, Note_on_c, 8, 47, 96
1, 38517, Note_off_c, 0, 77, 0
1, 38517, Note_off_c, 7, 74, 0
1, 38517, Note_off_c, 8, 47, 0
1, 38520, Note_on_c, 0, 76, 96
1, 38520, Note_on_c, 7, 76, 96
1, 38520, Note_on_c, 8, 48, 96
1, 38541, Note_off_c, 0, 76, 0
1, 38541, Note_off_c, 7, 76, 0
1, 38541, Note_off_c, 8, 48, 0
1, 38544, Note_on_c, 0, 74, 96
1, 38544, Note_on_c, 7, 77, 96
1, 38544, Note_on_c, 8, 50, 96
1, 38565, Note_off_c, 0, 74, 0
1, 38565, Note_off_c, 7, 77, 0
1, 38568, Note_on_c, 0, 72, 96
1, 38568, Note_on_c, 7, 69, 96
1, 38589, Note_off_c, 0, 72, 0
1, 38589, Note_off_c, 7, 69, 0
1, 38592, Note_on_c, 0, 71, 96
1, 38592, Note_on_c, 7, 67, 96
1, 38613, Note_off_c, 7, 67, 0
1, 38616, Note_on_c, 7, 77, 96
1, 38626, Note_off_c, 7, 77, 0
1, 38628, Note_on_c, 7, 76, 96
1, 38628, Note_off_c, 8, 50, 0
1, 38634, Note_off_c, 0, 71, 0
1, 38638, Note_off_c, 7, 76, 0
1, 38640, Note_on_c, 0, 74, 96
1, 38640, Note_on_c, 7, 74, 96
1, 38640, Note_on_c, 8, 43, 96
1, 38650, Note_off_c, 7, 74, 0
1, 38652, Note_on_c, 7, 72, 96
1, 38662, Note_off_c, 7, 72, 0
1, 38664, Note_on_c, 7, 71, 96
1, 38674, Note_off_c, 7, 71, 0
1, 38676, Note_on_c, 7, 69, 96
1, 38682, Note_off_c, 0, 74, 0
1, 38682, Note_off_c, 8, 43, 0
1, 38686, Note_off_c, 7, 69, 0
1, 38688, Note_on_c, 0, 71, 96
1, 38688, Note_on_c, 7, 67, 96
1, 38709, Note_off_c, 7, 67, 0
1, 38712, Note_on_c, 7, 74, 96
1, 38730, Note_off_c, 0, 71, 0
1, 38733, Note_off_c, 7, 74, 0
1, 38736, Note_on_c, 0, 67, 96
1, 38736, Note_on_c, 7, 71, 96
1, 38736, Note_on_c, 8, 43, 96
1, 38757, Note_off_c, 7, 71, 0
1, 38760, Note_off_c, 1, 77, 0
1, 38760, Note_on_c, 7, 67, 96
1, 38778, Note_off_c, 0, 67, 0
1, 38778, Note_off_c, 8, 43, 0
1, 38781, Note_off_c, 7, 67, 0
1, 38784, Note_on_c, 1, 76, 96
1, 38784, Note_on_c, 7, 60, 96
1, 38784, Note_on_c, 8, 48, 96
1, 38808, Note_on_c, 0, 79, 96
1, 38826, Note_off_c, 7, 60, 0
1, 38826, Note_off_c, 8, 48, 0
1, 38829, Note_off_c, 0, 79, 0
1, 38832, Note_on_c, 0, 81, 96
1, 38832, Note_on_c, 2, 79, 96
1, 38832, Note_on_c, 7, 79, 96
1, 38832, Note_on_c, 8, 36, 96
1, 38853, Note_off_c, 0, 81, 0
1, 38856, Note_on_c, 0, 82, 96
1, 38868, Note_off_c, 1, 76, 0
1, 38874, Note_off_c, 2, 79, 0
1, 38874, Note_off_c, 7, 79, 0
1, 38874, Note_off_c, 8, 36, 0
1, 38877, Note_off_c, 0, 82, 0
1, 38880, Note_on_c, 0, 84, 96
1, 38880, Note_on_c, 1, 84, 96
1, 38880, Note_on_c, 2, 81, 96
1, 38880, Note_on_c, 7, 84, 96
1, 38880, Note_on_c, 7, 81, 96
1, 38904, Note_on_c, 8, 48, 96
1, 38922, Note_off_c, 2, 81, 0
1, 38922, Note_off_c, 7, 81, 0
1, 38925, Note_off_c, 8, 48, 0
1, 38928, Note_on_c, 2, 76, 96
1, 38928, Note_on_c, 7, 76, 96
1, 38928, Note_on_c, 8, 47, 96
1, 38949, Note_off_c, 8, 47, 0
1, 38952, Note_on_c, 8, 48, 96
1, 38970, Note_off_c, 2, 76, 0
1, 38970, Note_off_c, 7, 76, 0
1, 38973, Note_off_c, 8, 48, 0
1, 38976, Note_on_c, 2, 77, 96
1, 38976, Note_on_c, 7, 77, 96
1, 38976, Note_on_c, 8, 50, 96
1, 38997, Note_off_c, 8, 50, 0
1, 39000, Note_on_c, 8, 52, 96
1, 39018, Note_off_c, 2, 77, 0
1, 39018, Note_off_c, 7, 77, 0
1, 39021, Note_off_c, 8, 52, 0
1, 39024, Note_on_c, 2, 74, 96
1, 39024, Note_on_c, 7, 74, 96
1, 39024, Note_on_c, 8, 53, 96
1, 39048, Note_off_c, 0, 84, 0
1, 39048, Note_off_c, 1, 84, 0
1, 39048, Note_off_c, 7, 84, 0
1, 39066, Note_off_c, 2, 74, 0
1, 39066, Note_off_c, 7, 74, 0
1, 39066, Note_off_c, 8, 53, 0
1, 39072, Note_on_c, 0, 82, 96
1, 39072, Note_on_c, 1, 82, 96
1, 39072, Note_on_c, 2, 79, 96
1, 39072, Note_on_c, 7, 82, 96
1, 39072, Note_on_c, 7, 79, 96
1, 39096, Note_on_c, 8, 55, 96
1, 39114, Note_off_c, 2, 79, 0
1, 39114, Note_off_c, 7, 79, 0
1, 39117, Note_off_c, 8, 55, 0
1, 39120, Note_on_c, 2, 74, 96
1, 39120, Note_on_c, 7, 74, 96
1, 39120, Note_on_c, 8, 53, 96
1, 39141, Note_off_c, 8, 53, 0
1, 39144, Note_on_c, 8, 55, 96
1, 39162, Note_off_c, 2, 74, 0
1, 39162, Note_off_c, 7, 74, 0
1, 39165, Note_off_c, 8, 55, 0
1, 39168, Note_on_c, 2, 76, 96
1, 39168, Note_on_c, 7, 76, 96
1, 39168, Note_on_c, 8, 48, 96
1, 39210, Note_off_c, 2, 76, 0
1, 39210, Note_off_c, 8, 48, 0
1, 39216, Note_on_c, 2, 72, 96
1, 39216, Note_on_c, 3, 72, 96
1, 39216, Note_on_c, 8, 72, 96
1, 39240, Note_off_c, 0, 82, 0
1, 39240, Note_off_c, 1, 82, 0
1, 39240, Note_off_c, 7, 82, 0
1, 39252, Note_off_c, 7, 76, 0
1, 39258, Note_off_c, 2, 72, 0
1, 39258, Note_off_c, 3, 72, 0
1, 39258, Note_off_c, 8, 72, 0
1, 39264, Note_on_c, 0, 81, 96
1, 39264, Note_on_c, 1, 81, 96
1, 39264, Note_on_c, 2, 77, 96
1, 39264, Note_on_c, 3, 74, 96
1, 39264, Note_on_c, 7, 81, 96
1, 39264, Note_on_c, 7, 77, 96
1, 39264, Note_on_c, 8, 74, 96
1, 39306, Note_off_c, 3, 74, 0
1, 39306, Note_off_c, 8, 74, 0
1, 39312, Note_on_c, 3, 69, 96
1, 39312, Note_on_c, 8, 69, 96
1, 39348, Note_off_c, 0, 81, 0
1, 39348, Note_off_c, 1, 81, 0
1, 39348, Note_off_c, 7, 81, 0
1, 39354, Note_off_c, 3, 69, 0
1, 39354, Note_off_c, 8, 69, 0
1, 39360, Note_on_c, 0, 79, 96
1, 39360, Note_on_c, 1, 79, 96
1, 39360, Note_on_c, 3, 70, 96
1, 39360, Note_on_c, 7, 79, 96
1, 39360, Note_on_c, 8, 70, 96
1, 39402, Note_off_c, 3, 70, 0
1, 39402, Note_off_c, 8, 70, 0
1, 39408, Note_on_c, 3, 67, 96
1, 39408, Note_on_c, 8, 67, 96
1, 39432, Note_off_c, 2, 77, 0
1, 39432, Note_off_c, 7, 77, 0
1, 39450, Note_off_c, 3, 67, 0
1, 39450, Note_off_c, 8, 67, 0
1, 39456, Note_on_c, 2, 76, 96
1, 39456, Note_on_c, 3, 72, 96
1, 39456, Note_on_c, 7, 76, 96
1, 39456, Note_on_c, 8, 72, 96
1, 39498, Note_off_c, 3, 72, 0
1, 39498, Note_off_c, 8, 72, 0
1, 39504, Note_on_c, 3, 67, 96
1, 39504, Note_on_c, 8, 67, 96
1, 39540, Note_off_c, 2, 76, 0
1, 39540, Note_off_c, 7, 76, 0
1, 39546, Note_off_c, 3, 67, 0
1, 39546, Note_off_c, 8, 67, 0
1, 39552, Note_on_c, 2, 81, 96
1, 39552, Note_on_c, 3, 69, 96
1, 39552, Note_on_c, 5, 41, 96
1, 39552, Note_on_c, 6, 29, 96
1, 39552, Note_on_c, 7, 72, 96
1, 39552, Note_on_c, 8, 41, 96
1, 39552, Note_on_c, 8, 69, 96
1, 39573, Note_off_c, 3, 69, 0
1, 39576, Note_on_c, 3, 72, 96
1, 39597, Note_off_c, 3, 72, 0
1, 39600, Note_on_c, 3, 74, 96
1, 39600, Note_on_c, 4, 60, 96
1, 39621, Note_off_c, 3, 74, 0
1, 39624, Note_off_c, 0, 79, 0
1, 39624, Note_off_c, 1, 79, 0
1, 39624, Note_on_c, 3, 76, 96
1, 39624, Note_off_c, 7, 79, 0
1, 39636, Note_off_c, 5, 41, 0
1, 39636, Note_off_c, 6, 29, 0
1, 39636, Note_off_c, 8, 41, 0
1, 39642, Note_off_c, 4, 60, 0
1, 39645, Note_off_c, 3, 76, 0
1, 39648, Note_on_c, 0, 77, 96
1, 39648, Note_on_c, 1, 77, 96
1, 39648, Note_on_c, 3, 77, 96
1, 39648, Note_on_c, 4, 62, 96
1, 39648, Note_on_c, 5, 53, 96
1, 39648, Note_on_c, 6, 41, 96
1, 39648, Note_on_c, 7, 77, 96
1, 39648, Note_on_c, 8, 53, 96
1, 39669, Note_off_c, 3, 77, 0
1, 39672, Note_on_c, 3, 76, 96
1, 39690, Note_off_c, 4, 62, 0
1, 39693, Note_off_c, 3, 76, 0
1, 39696, Note_on_c, 3, 74, 96
1, 39696, Note_on_c, 4, 57, 96
1, 39717, Note_off_c, 3, 74, 0
1, 39720, Note_off_c, 2, 81, 0
1, 39720, Note_on_c, 3, 72, 96
1, 39720, Note_off_c, 7, 72, 0
1, 39720, Note_off_c, 8, 69, 0
1, 39732, Note_off_c, 0, 77, 0
1, 39732, Note_off_c, 1, 77, 0
1, 39732, Note_off_c, 7, 77, 0
1, 39738, Note_off_c, 4, 57, 0
1, 39741, Note_off_c, 3, 72, 0
1, 39744, Note_on_c, 0, 82, 96
1, 39744, Note_on_c, 1, 82, 96
1, 39744, Note_on_c, 2, 79, 96
1, 39744, Note_on_c, 3, 74, 96
1, 39744, Note_on_c, 4, 58, 96
1, 39744, Note_on_c, 7, 79, 96
1, 39744, Note_on_c, 7, 74, 96
1, 39744, Note_on_c, 8, 70, 96
1, 39765, Note_off_c, 3, 74, 0
1, 39768, Note_on_c, 3, 70, 96
1, 39774, Note_off_c, 5, 53, 0
1, 39774, Note_off_c, 6, 41, 0
1, 39774, Note_off_c, 8, 53, 0
1, 39786, Note_off_c, 4, 58, 0
1, 39789, Note_off_c, 3, 70, 0
1, 39792, Note_on_c, 3, 72, 96
1, 39792, Note_on_c, 4, 55, 96
1, 39792, Note_on_c, 5, 52, 96
1, 39792, Note_on_c, 6, 40, 96
1, 39792, Note_on_c, 8, 52, 96
1, 39813, Note_off_c, 3, 72, 0
1, 39813, Note_off_c, 4, 55, 0
1, 39813, Note_off_c, 5, 52, 0
1, 39813, Note_off_c, 6, 40, 0
1, 39813, Note_off_c, 8, 52, 0
1, 39816, Note_on_c, 3, 74, 96
1, 39816, Note_on_c, 4, 57, 96
1, 39816, Note_on_c, 5, 53, 96
1, 39816, Note_on_c, 6, 41, 96
1, 39816, Note_on_c, 8, 53, 96
1, 39828, Note_off_c, 7, 74, 0
1, 39837, Note_off_c, 3, 74, 0
1, 39837, Note_off_c, 4, 57, 0
1, 39837, Note_off_c, 5, 53, 0
1, 39837, Note_off_c, 6, 41, 0
1, 39837, Note_off_c, 8, 53, 0
1, 39840, Note_on_c, 3, 76, 96
1, 39840, Note_on_c, 4, 58, 96
1, 39840, Note_on_c, 5, 55, 96
1, 39840, Note_on_c, 6, 43, 96
1, 39840, Note_on_c, 7, 76, 96
1, 39840, Note_on_c, 8, 55, 96
1, 39861, Note_off_c, 3, 76, 0
1, 39864, Note_on_c, 3, 77, 96
1, 39870, Note_off_c, 8, 70, 0
1, 39882, Note_off_c, 4, 58, 0
1, 39882, Note_off_c, 5, 55, 0
1, 39882, Note_off_c, 6, 43, 0
1, 39882, Note_off_c, 8, 55, 0
1, 39885, Note_off_c, 3, 77, 0
1, 39888, Note_on_c, 3, 79, 96
1, 39888, Note_on_c, 4, 55, 96
1, 39888, Note_on_c, 5, 53, 96
1, 39888, Note_on_c, 6, 41, 96
1, 39888, Note_on_c, 8, 53, 96
1, 39888, Note_on_c, 8, 72, 96
1, 39909, Note_off_c, 3, 79, 0
1, 39909, Note_off_c, 5, 53, 0
1, 39909, Note_off_c, 6, 41, 0
1, 39909, Note_off_c, 8, 53, 0
1, 39912, Note_off_c, 0, 82, 0
1, 39912, Note_off_c, 1, 82, 0
1, 39912, Note_on_c, 3, 76, 96
1, 39912, Note_on_c, 5, 52, 96
1, 39912, Note_on_c, 6, 40, 96
1, 39912, Note_on_c, 8, 52, 96
1, 39924, Note_off_c, 7, 76, 0
1, 39930, Note_off_c, 4, 55, 0
1, 39930, Note_off_c, 8, 72, 0
1, 39933, Note_off_c, 3, 76, 0
1, 39933, Note_off_c, 5, 52, 0
1, 39933, Note_off_c, 6, 40, 0
1, 39933, Note_off_c, 8, 52, 0
1, 39936, Note_on_c, 0, 81, 96
1, 39936, Note_on_c, 1, 81, 96
1, 39936, Note_on_c, 3, 72, 96
1, 39936, Note_on_c, 4, 57, 96
1, 39936, Note_on_c, 5, 53, 96
1, 39936, Note_on_c, 6, 41, 96
1, 39936, Note_on_c, 7, 72, 96
1, 39936, Note_on_c, 8, 53, 96
1, 39936, Note_on_c, 8, 69, 96
1, 39957, Note_off_c, 4, 57, 0
1, 39960, Note_on_c, 4, 60, 96
1, 39978, Note_off_c, 3, 72, 0
1, 39978, Note_off_c, 5, 53, 0
1, 39978, Note_off_c, 6, 41, 0
1, 39978, Note_off_c, 8, 53, 0
1, 39981, Note_off_c, 4, 60, 0
1, 39984, Note_on_c, 3, 69, 96
1, 39984, Note_on_c, 4, 62, 96
1, 39984, Note_on_c, 5, 48, 96
1, 39984, Note_on_c, 6, 36, 96
1, 39984, Note_on_c, 8, 48, 96
1, 40005, Note_off_c, 4, 62, 0
1, 40008, Note_off_c, 2, 79, 0
1, 40008, Note_on_c, 4, 64, 96
1, 40008, Note_off_c, 7, 79, 0
1, 40026, Note_off_c, 3, 69, 0
1, 40026, Note_off_c, 5, 48, 0
1, 40026, Note_off_c, 6, 36, 0
1, 40026, Note_off_c, 8, 48, 0
1, 40029, Note_off_c, 4, 64, 0
1, 40032, Note_on_c, 2, 77, 96
1, 40032, Note_on_c, 3, 74, 96
1, 40032, Note_on_c, 4, 65, 96
1, 40032, Note_on_c, 5, 50, 96
1, 40032, Note_on_c, 6, 38, 96
1, 40032, Note_on_c, 7, 77, 96
1, 40032, Note_on_c, 8, 50, 96
1, 40053, Note_off_c, 4, 65, 0
1, 40056, Note_on_c, 4, 67, 96
1, 40074, Note_off_c, 3, 74, 0
1, 40074, Note_off_c, 5, 50, 0
1, 40074, Note_off_c, 6, 38, 0
1, 40074, Note_off_c, 8, 50, 0
1, 40077, Note_off_c, 4, 67, 0
1, 40080, Note_on_c, 3, 72, 96
1, 40080, Note_on_c, 4, 69, 96
1, 40080, Note_on_c, 5, 45, 96
1, 40080, Note_on_c, 6, 33, 96
1, 40080, Note_on_c, 8, 45, 96
1, 40101, Note_off_c, 4, 69, 0
1, 40104, Note_off_c, 0, 81, 0
1, 40104, Note_off_c, 1, 81, 0
1, 40104, Note_on_c, 4, 65, 96
1, 40104, Note_off_c, 7, 72, 0
1, 40104, Note_off_c, 8, 69, 0
1, 40122, Note_off_c, 3, 72, 0
1, 40122, Note_off_c, 5, 45, 0
1, 40122, Note_off_c, 6, 33, 0
1, 40122, Note_off_c, 8, 45, 0
1, 40125, Note_off_c, 4, 65, 0
1, 40128, Note_on_c, 0, 79, 96
1, 40128, Note_on_c, 1, 79, 96
1, 40128, Note_on_c, 3, 74, 96
1, 40128, Note_on_c, 4, 62, 96
1, 40128, Note_on_c, 5, 46, 96
1, 40128, Note_on_c, 6, 34, 96
1, 40128, Note_on_c, 7, 74, 96
1, 40128, Note_on_c, 8, 46, 96
1, 40128, Note_on_c, 8, 67, 96
1, 40149, Note_off_c, 4, 62, 0
1, 40152, Note_on_c, 4, 58, 96
1, 40170, Note_off_c, 3, 74, 0
1, 40170, Note_off_c, 5, 46, 0
1, 40170, Note_off_c, 6, 34, 0
1, 40170, Note_off_c, 8, 46, 0
1, 40173, Note_off_c, 4, 58, 0
1, 40176, Note_on_c, 3, 70, 96
1, 40176, Note_on_c, 4, 60, 96
1, 40176, Note_on_c, 5, 43, 96
1, 40176, Note_on_c, 6, 31, 96
1, 40176, Note_on_c, 8, 43, 96
1, 40197, Note_off_c, 3, 70, 0
1, 40197, Note_off_c, 4, 60, 0
1, 40200, Note_off_c, 2, 77, 0
1, 40200, Note_on_c, 3, 69, 96
1, 40200, Note_on_c, 4, 62, 96
1, 40200, Note_off_c, 7, 77, 0
1, 40212, Note_off_c, 7, 74, 0
1, 40218, Note_off_c, 5, 43, 0
1, 40218, Note_off_c, 6, 31, 0
1, 40218, Note_off_c, 8, 43, 0
1, 40221, Note_off_c, 3, 69, 0
1, 40221, Note_off_c, 4, 62, 0
1, 40224, Note_on_c, 2, 75, 96
1, 40224, Note_on_c, 3, 67, 96
1, 40224, Note_on_c, 4, 63, 96
1, 40224, Note_on_c, 5, 48, 96
1, 40224, Note_on_c, 6, 36, 96
1, 40224, Note_on_c, 7, 75, 96
1, 40224, Note_on_c, 7, 72, 96
1, 40224, Note_on_c, 8, 48, 96
1, 40245, Note_off_c, 4, 63, 0
1, 40248, Note_on_c, 4, 65, 96
1, 40266, Note_off_c, 3, 67, 0
1, 40266, Note_off_c, 5, 48, 0
1, 40266, Note_off_c, 6, 36, 0
1, 40266, Note_off_c, 8, 48, 0
1, 40269, Note_off_c, 4, 65, 0
1, 40272, Note_on_c, 3, 70, 96
1, 40272, Note_on_c, 4, 67, 96
1, 40272, Note_on_c, 5, 43, 96
1, 40272, Note_on_c, 6, 31, 96
1, 40272, Note_on_c, 8, 43, 96
1, 40293, Note_off_c, 4, 67, 0
1, 40296, Note_off_c, 0, 79, 0
1, 40296, Note_off_c, 1, 79, 0
1, 40296, Note_on_c, 4, 63, 96
1, 40296, Note_off_c, 8, 67, 0
1, 40314, Note_off_c, 3, 70, 0
1, 40314, Note_off_c, 5, 43, 0
1, 40314, Note_off_c, 6, 31, 0
1, 40314, Note_off_c, 8, 43, 0
1, 40317, Note_off_c, 4, 63, 0
1, 40320, Note_on_c, 0, 77, 96
1, 40320, Note_on_c, 1, 77, 96
1, 40320, Note_on_c, 3, 72, 96
1, 40320, Note_on_c, 4, 60, 96
1, 40320, Note_on_c, 5, 45, 96
1, 40320, Note_on_c, 6, 33, 96
1, 40320, Note_on_c, 8, 45, 96
1, 40320, Note_on_c, 8, 65, 96
1, 40341, Note_off_c, 3, 72, 0
1, 40344, Note_on_c, 3, 65, 96
1, 40362, Note_off_c, 5, 45, 0
1, 40362, Note_off_c, 6, 33, 0
1, 40362, Note_off_c, 8, 45, 0
1, 40365, Note_off_c, 3, 65, 0
1, 40368, Note_on_c, 3, 67, 96
1, 40368, Note_on_c, 5, 53, 96
1, 40368, Note_on_c, 6, 41, 96
1, 40368, Note_on_c, 8, 53, 96
1, 40389, Note_off_c, 3, 67, 0
1, 40392, Note_off_c, 2, 75, 0
1, 40392, Note_on_c, 3, 69, 96
1, 40392, Note_off_c, 7, 75, 0
1, 40392, Note_off_c, 7, 72, 0
1, 40404, Note_off_c, 0, 77, 0
1, 40404, Note_off_c, 1, 77, 0
1, 40404, Note_off_c, 4, 60, 0
1, 40404, Note_off_c, 8, 65, 0
1, 40410, Note_off_c, 5, 53, 0
1, 40410, Note_off_c, 6, 41, 0
1, 40410, Note_off_c, 8, 53, 0
1, 40413, Note_off_c, 3, 69, 0
1, 40416, Note_on_c, 0, 82, 96
1, 40416, Note_on_c, 1, 82, 96
1, 40416, Note_on_c, 2, 74, 96
1, 40416, Note_on_c, 3, 70, 96
1, 40416, Note_on_c, 4, 55, 96
1, 40416, Note_on_c, 5, 55, 96
1, 40416, Note_on_c, 6, 43, 96
1, 40416, Note_on_c, 7, 74, 96
1, 40416, Note_on_c, 7, 70, 96
1, 40416, Note_on_c, 8, 55, 96
1, 40437, Note_off_c, 3, 70, 0
1, 40440, Note_on_c, 3, 72, 96
1, 40458, Note_off_c, 4, 55, 0
1, 40458, Note_off_c, 5, 55, 0
1, 40458, Note_off_c, 6, 43, 0
1, 40458, Note_off_c, 8, 55, 0
1, 40461, Note_off_c, 3, 72, 0
1, 40464, Note_on_c, 3, 74, 96
1, 40464, Note_on_c, 4, 53, 96
1, 40464, Note_on_c, 5, 50, 96
1, 40464, Note_on_c, 6, 38, 96
1, 40464, Note_on_c, 8, 50, 96
1, 40485, Note_off_c, 3, 74, 0
1, 40488, Note_on_c, 3, 70, 96
1, 40500, Note_off_c, 2, 74, 0
1, 40500, Note_off_c, 7, 74, 0
1, 40506, Note_off_c, 4, 53, 0
1, 40506, Note_off_c, 5, 50, 0
1, 40506, Note_off_c, 6, 38, 0
1, 40506, Note_off_c, 8, 50, 0
1, 40509, Note_off_c, 3, 70, 0
1, 40512, Note_on_c, 2, 72, 96
1, 40512, Note_on_c, 3, 67, 96
1, 40512, Note_on_c, 4, 55, 96
1, 40512, Note_on_c, 5, 52, 96
1, 40512, Note_on_c, 6, 40, 96
1, 40512, Note_on_c, 7, 72, 96
1, 40512, Note_on_c, 8, 52, 96
1, 40512, Note_on_c, 8, 67, 96
1, 40533, Note_off_c, 3, 67, 0
1, 40533, Note_off_c, 4, 55, 0
1, 40536, Note_on_c, 3, 64, 96
1, 40536, Note_on_c, 4, 58, 96
1, 40554, Note_off_c, 5, 52, 0
1, 40554, Note_off_c, 6, 40, 0
1, 40554, Note_off_c, 8, 52, 0
1, 40557, Note_off_c, 3, 64, 0
1, 40557, Note_off_c, 4, 58, 0
1, 40560, Note_on_c, 3, 66, 96
1, 40560, Note_on_c, 4, 57, 96
1, 40560, Note_on_c, 5, 48, 96
1, 40560, Note_on_c, 6, 36, 96
1, 40560, Note_on_c, 8, 48, 96
1, 40581, Note_off_c, 3, 66, 0
1, 40581, Note_off_c, 4, 57, 0
1, 40584, Note_off_c, 0, 82, 0
1, 40584, Note_off_c, 1, 82, 0
1, 40584, Note_on_c, 3, 67, 96
1, 40584, Note_on_c, 4, 55, 96
1, 40584, Note_off_c, 7, 70, 0
1, 40596, Note_off_c, 8, 67, 0
1, 40602, Note_off_c, 5, 48, 0
1, 40602, Note_off_c, 6, 36, 0
1, 40602, Note_off_c, 8, 48, 0
1, 40605, Note_off_c, 3, 67, 0
1, 40605, Note_off_c, 4, 55, 0
1, 40608, Note_on_c, 0, 81, 96
1, 40608, Note_on_c, 1, 81, 96
1, 40608, Note_on_c, 3, 69, 96
1, 40608, Note_on_c, 4, 62, 96
1, 40608, Note_on_c, 5, 54, 96
1, 40608, Note_on_c, 6, 42, 96
1, 40608, Note_on_c, 7, 69, 96
1, 40608, Note_on_c, 8, 54, 96
1, 40608, Note_on_c, 8, 62, 96
1, 40629, Note_off_c, 3, 69, 0
1, 40632, Note_on_c, 3, 66, 96
1, 40650, Note_off_c, 5, 54, 0
1, 40650, Note_off_c, 6, 42, 0
1, 40650, Note_off_c, 8, 54, 0
1, 40653, Note_off_c, 3, 66, 0
1, 40656, Note_on_c, 3, 67, 96
1, 40656, Note_on_c, 5, 50, 96
1, 40656, Note_on_c, 6, 38, 96
1, 40656, Note_on_c, 8, 50, 96
1, 40677, Note_off_c, 3, 67, 0
1, 40680, Note_off_c, 2, 72, 0
1, 40680, Note_on_c, 3, 69, 96
1, 40680, Note_off_c, 7, 72, 0
1, 40698, Note_off_c, 5, 50, 0
1, 40698, Note_off_c, 6, 38, 0
1, 40698, Note_off_c, 8, 50, 0
1, 40701, Note_off_c, 3, 69, 0
1, 40704, Note_on_c, 2, 70, 96
1, 40704, Note_on_c, 3, 70, 96
1, 40704, Note_on_c, 5, 55, 96
1, 40704, Note_on_c, 6, 43, 96
1, 40704, Note_on_c, 7, 70, 96
1, 40704, Note_on_c, 8, 55, 96
1, 40725, Note_off_c, 3, 70, 0
1, 40728, Note_on_c, 3, 62, 96
1, 40734, Note_off_c, 4, 62, 0
1, 40746, Note_off_c, 5, 55, 0
1, 40746, Note_off_c, 6, 43, 0
1, 40746, Note_off_c, 8, 55, 0
1, 40749, Note_off_c, 3, 62, 0
1, 40752, Note_on_c, 3, 64, 96
1, 40752, Note_on_c, 4, 60, 96
1, 40752, Note_on_c, 5, 50, 96
1, 40752, Note_on_c, 6, 38, 96
1, 40752, Note_on_c, 8, 50, 96
1, 40773, Note_off_c, 3, 64, 0
1, 40776, Note_off_c, 0, 81, 0
1, 40776, Note_off_c, 1, 81, 0
1, 40776, Note_on_c, 3, 66, 96
1, 40776, Note_off_c, 7, 69, 0
1, 40776, Note_off_c, 8, 62, 0
1, 40794, Note_off_c, 4, 60, 0
1, 40794, Note_off_c, 5, 50, 0
1, 40794, Note_off_c, 6, 38, 0
1, 40794, Note_off_c, 8, 50, 0
1, 40797, Note_off_c, 3, 66, 0
1, 40800, Note_on_c, 0, 79, 96
1, 40800, Note_on_c, 1, 79, 96
1, 40800, Note_on_c, 3, 67, 96
1, 40800, Note_on_c, 4, 58, 96
1, 40800, Note_on_c, 5, 51, 96
1, 40800, Note_on_c, 6, 39, 96
1, 40800, Note_on_c, 7, 67, 96
1, 40800, Note_on_c, 8, 51, 96
1, 40821, Note_off_c, 3, 67, 0
1, 40821, Note_off_c, 4, 58, 0
1, 40824, Note_on_c, 3, 69, 96
1, 40824, Note_on_c, 4, 60, 96
1, 40842, Note_off_c, 5, 51, 0
1, 40842, Note_off_c, 6, 39, 0
1, 40842, Note_off_c, 8, 51, 0
1, 40845, Note_off_c, 3, 69, 0
1, 40845, Note_off_c, 4, 60, 0
1, 40848, Note_on_c, 3, 70, 96
1, 40848, Note_on_c, 4, 62, 96
1, 40848, Note_on_c, 5, 46, 96
1, 40848, Note_on_c, 6, 34, 96
1, 40848, Note_on_c, 8, 46, 96
1, 40869, Note_off_c, 3, 70, 0
1, 40869, Note_off_c, 4, 62, 0
1, 40872, Note_off_c, 2, 70, 0
1, 40872, Note_on_c, 3, 67, 96
1, 40872, Note_on_c, 4, 58, 96
1, 40872, Note_off_c, 7, 70, 0
1, 40890, Note_off_c, 5, 46, 0
1, 40890, Note_off_c, 6, 34, 0
1, 40890, Note_off_c, 8, 46, 0
1, 40893, Note_off_c, 3, 67, 0
1, 40893, Note_off_c, 4, 58, 0
1, 40896, Note_on_c, 2, 69, 96
1, 40896, Note_on_c, 3, 63, 96
1, 40896, Note_on_c, 4, 63, 96
1, 40896, Note_on_c, 5, 48, 96
1, 40896, Note_on_c, 6, 36, 96
1, 40896, Note_on_c, 7, 69, 96
1, 40896, Note_on_c, 8, 48, 96
1, 40896, Note_on_c, 8, 63, 96
1, 40917, Note_off_c, 3, 63, 0
1, 40920, Note_on_c, 3, 60, 96
1, 40938, Note_off_c, 4, 63, 0
1, 40938, Note_off_c, 5, 48, 0
1, 40938, Note_off_c, 6, 36, 0
1, 40938, Note_off_c, 8, 48, 0
1, 40941, Note_off_c, 3, 60, 0
1, 40944, Note_on_c, 3, 62, 96
1, 40944, Note_on_c, 4, 60, 96
1, 40944, Note_on_c, 5, 45, 96
1, 40944, Note_on_c, 6, 33, 96
1, 40944, Note_on_c, 8, 45, 96
1, 40965, Note_off_c, 3, 62, 0
1, 40968, Note_off_c, 0, 79, 0
1, 40968, Note_off_c, 1, 79, 0
1, 40968, Note_on_c, 3, 63, 96
1, 40968, Note_off_c, 7, 67, 0
1, 40980, Note_off_c, 8, 63, 0
1, 40986, Note_off_c, 4, 60, 0
1, 40986, Note_off_c, 5, 45, 0
1, 40986, Note_off_c, 6, 33, 0
1, 40986, Note_off_c, 8, 45, 0
1, 40989, Note_off_c, 3, 63, 0
1, 40992, Note_on_c, 0, 77, 96
1, 40992, Note_on_c, 1, 77, 96
1, 40992, Note_on_c, 3, 65, 96
1, 40992, Note_on_c, 4, 57, 96
1, 40992, Note_on_c, 5, 50, 96
1, 40992, Note_on_c, 6, 38, 96
1, 40992, Note_on_c, 7, 65, 96
1, 40992, Note_on_c, 8, 50, 96
1, 40992, Note_on_c, 8, 62, 96
1, 41013, Note_off_c, 3, 65, 0
1, 41013, Note_off_c, 4, 57, 0
1, 41016, Note_on_c, 3, 67, 96
1, 41016, Note_on_c, 4, 58, 96
1, 41034, Note_off_c, 5, 50, 0
1, 41034, Note_off_c, 6, 38, 0
1, 41034, Note_off_c, 8, 50, 0
1, 41037, Note_off_c, 3, 67, 0
1, 41037, Note_off_c, 4, 58, 0
1, 41040, Note_on_c, 3, 69, 96
1, 41040, Note_on_c, 4, 60, 96
1, 41040, Note_on_c, 5, 45, 96
1, 41040, Note_on_c, 6, 33, 96
1, 41040, Note_on_c, 8, 45, 96
1, 41061, Note_off_c, 3, 69, 0
1, 41061, Note_off_c, 4, 60, 0
1, 41064, Note_off_c, 2, 69, 0
1, 41064, Note_on_c, 3, 65, 96
1, 41064, Note_on_c, 4, 57, 96
1, 41064, Note_off_c, 7, 69, 0
1, 41082, Note_off_c, 5, 45, 0
1, 41082, Note_off_c, 6, 33, 0
1, 41082, Note_off_c, 8, 45, 0
1, 41085, Note_off_c, 3, 65, 0
1, 41085, Note_off_c, 4, 57, 0
1, 41088, Note_on_c, 2, 67, 96
1, 41088, Note_on_c, 3, 62, 96
1, 41088, Note_on_c, 4, 62, 96
1, 41088, Note_on_c, 5, 47, 96
1, 41088, Note_on_c, 6, 35, 96
1, 41088, Note_on_c, 7, 67, 96
1, 41088, Note_on_c, 8, 47, 96
1, 41109, Note_off_c, 3, 62, 0
1, 41109, Note_off_c, 4, 62, 0
1, 41112, Note_on_c, 3, 65, 96
1, 41112, Note_on_c, 4, 55, 96
1, 41130, Note_off_c, 5, 47, 0
1, 41130, Note_off_c, 6, 35, 0
1, 41130, Note_off_c, 8, 47, 0
1, 41133, Note_off_c, 3, 65, 0
1, 41133, Note_off_c, 4, 55, 0
1, 41136, Note_on_c, 3, 64, 96
1, 41136, Note_on_c, 4, 57, 96
1, 41136, Note_on_c, 5, 55, 96
1, 41136, Note_on_c, 6, 43, 96
1, 41136, Note_on_c, 8, 55, 96
1, 41157, Note_off_c, 3, 64, 0
1, 41157, Note_off_c, 4, 57, 0
1, 41160, Note_off_c, 0, 77, 0
1, 41160, Note_off_c, 1, 77, 0
1, 41160, Note_on_c, 3, 62, 96
1, 41160, Note_on_c, 4, 59, 96
1, 41160, Note_off_c, 7, 65, 0
1, 41160, Note_off_c, 8, 62, 0
1, 41172, Note_off_c, 2, 67, 0
1, 41172, Note_off_c, 7, 67, 0
1, 41178, Note_off_c, 5, 55, 0
1, 41178, Note_off_c, 6, 43, 0
1, 41178, Note_off_c, 8, 55, 0
1, 41181, Note_off_c, 3, 62, 0
1, 41181, Note_off_c, 4, 59, 0
1, 41184, Note_on_c, 0, 76, 96
1, 41184, Note_on_c, 1, 76, 96
1, 41184, Note_on_c, 2, 72, 96
1, 41184, Note_on_c, 3, 60, 96
1, 41184, Note_on_c, 4, 60, 96
1, 41184, Note_on_c, 5, 57, 96
1, 41184, Note_on_c, 6, 45, 96
1, 41184, Note_on_c, 7, 72, 96
1, 41184, Note_on_c, 7, 64, 96
1, 41184, Note_on_c, 8, 57, 96
1, 41184, Note_on_c, 8, 60, 96
1, 41205, Note_off_c, 4, 60, 0
1, 41208, Note_on_c, 4, 62, 96
1, 41226, Note_off_c, 3, 60, 0
1, 41226, Note_off_c, 5, 57, 0
1, 41226, Note_off_c, 6, 45, 0
1, 41226, Note_off_c, 8, 57, 0
1, 41229, Note_off_c, 4, 62, 0
1, 41232, Note_on_c, 3, 67, 96
1, 41232, Note_on_c, 4, 64, 96
1, 41232, Note_on_c, 5, 52, 96
1, 41232, Note_on_c, 6, 40, 96
1, 41232, Note_on_c, 8, 52, 96
1, 41253, Note_off_c, 4, 64, 0
1, 41256, Note_on_c, 4, 60, 96
1, 41268, Note_off_c, 0, 76, 0
1, 41268, Note_off_c, 1, 76, 0
1, 41268, Note_off_c, 7, 64, 0
1, 41268, Note_off_c, 8, 60, 0
1, 41274, Note_off_c, 3, 67, 0
1, 41274, Note_off_c, 5, 52, 0
1, 41274, Note_off_c, 6, 40, 0
1, 41274, Note_off_c, 8, 52, 0
1, 41277, Note_off_c, 4, 60, 0
1, 41280, Note_on_c, 0, 74, 96
1, 41280, Note_on_c, 1, 74, 96
1, 41280, Note_on_c, 3, 69, 96
1, 41280, Note_on_c, 4, 57, 96
1, 41280, Note_on_c, 5, 53, 96
1, 41280, Note_on_c, 6, 41, 96
1, 41280, Note_on_c, 7, 69, 96
1, 41280, Note_on_c, 8, 53, 96
1, 41280, Note_on_c, 8, 62, 96
1, 41301, Note_off_c, 4, 57, 0
1, 41304, Note_on_c, 4, 53, 96
1, 41322, Note_off_c, 3, 69, 0
1, 41322, Note_off_c, 5, 53, 0
1, 41322, Note_off_c, 6, 41, 0
1, 41322, Note_off_c, 8, 53, 0
1, 41325, Note_off_c, 4, 53, 0
1, 41328, Note_on_c, 3, 65, 96
1, 41328, Note_on_c, 4, 55, 96
1, 41328, Note_on_c, 5, 50, 96
1, 41328, Note_on_c, 6, 38, 96
1, 41328, Note_on_c, 8, 50, 96
1, 41349, Note_off_c, 4, 55, 0
1, 41352, Note_off_c, 2, 72, 0
1, 41352, Note_on_c, 4, 57, 96
1, 41352, Note_off_c, 7, 72, 0
1, 41364, Note_off_c, 7, 69, 0
1, 41370, Note_off_c, 3, 65, 0
1, 41370, Note_off_c, 5, 50, 0
1, 41370, Note_off_c, 6, 38, 0
1, 41370, Note_off_c, 8, 50, 0
1, 41373, Note_off_c, 4, 57, 0
1, 41376, Note_on_c, 2, 70, 96
1, 41376, Note_on_c, 3, 62, 96
1, 41376, Note_on_c, 4, 58, 96
1, 41376, Note_on_c, 5, 55, 96
1, 41376, Note_on_c, 6, 43, 96
1, 41376, Note_on_c, 7, 70, 96
1, 41376, Note_on_c, 7, 67, 96
1, 41376, Note_on_c, 8, 55, 96
1, 41397, Note_off_c, 3, 62, 0
1, 41397, Note_off_c, 4, 58, 0
1, 41400, Note_on_c, 3, 64, 96
1, 41400, Note_on_c, 4, 60, 96
1, 41418, Note_off_c, 5, 55, 0
1, 41418, Note_off_c, 6, 43, 0
1, 41418, Note_off_c, 8, 55, 0
1, 41421, Note_off_c, 3, 64, 0
1, 41421, Note_off_c, 4, 60, 0
1, 41424, Note_on_c, 3, 65, 96
1, 41424, Note_on_c, 4, 62, 96
1, 41424, Note_on_c, 5, 50, 96
1, 41424, Note_on_c, 6, 38, 96
1, 41424, Note_on_c, 8, 53, 96
1, 41445, Note_off_c, 3, 65, 0
1, 41445, Note_off_c, 4, 62, 0
1, 41448, Note_off_c, 0, 74, 0
1, 41448, Note_off_c, 1, 74, 0
1, 41448, Note_on_c, 3, 62, 96
1, 41448, Note_on_c, 4, 58, 96
1, 41448, Note_off_c, 8, 62, 0
1, 41466, Note_off_c, 5, 50, 0
1, 41466, Note_off_c, 6, 38, 0
1, 41466, Note_off_c, 8, 53, 0
1, 41469, Note_off_c, 3, 62, 0
1, 41469, Note_off_c, 4, 58, 0
1, 41472, Note_on_c, 0, 72, 96
1, 41472, Note_on_c, 1, 72, 96
1, 41472, Note_on_c, 3, 67, 96
1, 41472, Note_on_c, 4, 55, 96
1, 41472, Note_on_c, 5, 52, 96
1, 41472, Note_on_c, 6, 40, 96
1, 41472, Note_on_c, 8, 52, 96
1, 41472, Note_on_c, 8, 60, 96
1, 41493, Note_off_c, 3, 67, 0
1, 41496, Note_on_c, 3, 70, 96
1, 41514, Note_off_c, 4, 55, 0
1, 41514, Note_off_c, 5, 52, 0
1, 41514, Note_off_c, 6, 40, 0
1, 41514, Note_off_c, 8, 52, 0
1, 41517, Note_off_c, 3, 70, 0
1, 41520, Note_on_c, 3, 69, 96
1, 41520, Note_on_c, 4, 64, 96
1, 41520, Note_on_c, 5, 48, 96
1, 41520, Note_on_c, 6, 36, 96
1, 41520, Note_on_c, 8, 48, 96
1, 41541, Note_off_c, 3, 69, 0
1, 41544, Note_off_c, 2, 70, 0
1, 41544, Note_on_c, 3, 67, 96
1, 41544, Note_off_c, 7, 70, 0
1, 41544, Note_off_c, 7, 67, 0
1, 41556, Note_off_c, 0, 72, 0
1, 41556, Note_off_c, 1, 72, 0
1, 41556, Note_off_c, 8, 60, 0
1, 41562, Note_off_c, 4, 64, 0
1, 41562, Note_off_c, 5, 48, 0
1, 41562, Note_off_c, 6, 36, 0
1, 41562, Note_off_c, 8, 48, 0
1, 41565, Note_off_c, 3, 67, 0
1, 41568, Note_on_c, 0, 77, 96
1, 41568, Note_on_c, 1, 77, 96
1, 41568, Note_on_c, 2, 69, 96
1, 41568, Note_on_c, 3, 65, 96
1, 41568, Note_on_c, 4, 65, 96
1, 41568, Note_on_c, 5, 50, 96
1, 41568, Note_on_c, 6, 38, 96
1, 41568, Note_on_c, 7, 69, 96
1, 41568, Note_on_c, 7, 65, 96
1, 41568, Note_on_c, 8, 53, 96
1, 41589, Note_off_c, 3, 65, 0
1, 41592, Note_on_c, 3, 67, 96
1, 41610, Note_off_c, 4, 65, 0
1, 41610, Note_off_c, 5, 50, 0
1, 41610, Note_off_c, 6, 38, 0
1, 41610, Note_off_c, 8, 53, 0
1, 41613, Note_off_c, 3, 67, 0
1, 41616, Note_on_c, 3, 69, 96
1, 41616, Note_on_c, 4, 60, 96
1, 41616, Note_on_c, 5, 45, 96
1, 41616, Note_on_c, 6, 33, 96
1, 41616, Note_on_c, 8, 45, 96
1, 41637, Note_off_c, 3, 69, 0
1, 41640, Note_on_c, 3, 65, 96
1, 41652, Note_off_c, 2, 69, 0
1, 41652, Note_off_c, 7, 69, 0
1, 41658, Note_off_c, 4, 60, 0
1, 41658, Note_off_c, 5, 45, 0
1, 41658, Note_off_c, 6, 33, 0
1, 41658, Note_off_c, 8, 45, 0
1, 41661, Note_off_c, 3, 65, 0
1, 41664, Note_on_c, 2, 67, 96
1, 41664, Note_on_c, 3, 62, 96
1, 41664, Note_on_c, 4, 62, 96
1, 41664, Note_on_c, 5, 46, 96
1, 41664, Note_on_c, 6, 34, 96
1, 41664, Note_on_c, 7, 67, 96
1, 41664, Note_on_c, 8, 46, 96
1, 41664, Note_on_c, 8, 62, 96
1, 41685, Note_off_c, 3, 62, 0
1, 41688, Note_on_c, 3, 58, 96
1, 41706, Note_off_c, 4, 62, 0
1, 41706, Note_off_c, 5, 46, 0
1, 41706, Note_off_c, 6, 34, 0
1, 41706, Note_off_c, 8, 46, 0
1, 41709, Note_off_c, 3, 58, 0
1, 41712, Note_on_c, 3, 60, 96
1, 41712, Note_on_c, 4, 58, 96
1, 41712, Note_on_c, 5, 43, 96
1, 41712, Note_on_c, 6, 31, 96
1, 41712, Note_on_c, 8, 43, 96
1, 41733, Note_off_c, 3, 60, 0
1, 41736, Note_off_c, 0, 77, 0
1, 41736, Note_off_c, 1, 77, 0
1, 41736, Note_on_c, 3, 62, 96
1, 41736, Note_off_c, 7, 65, 0
1, 41748, Note_off_c, 8, 62, 0
1, 41754, Note_off_c, 4, 58, 0
1, 41754, Note_off_c, 5, 43, 0
1, 41754, Note_off_c, 6, 31, 0
1, 41754, Note_off_c, 8, 43, 0
1, 41757, Note_off_c, 3, 62, 0
1, 41760, Note_on_c, 0, 76, 96
1, 41760, Note_on_c, 1, 76, 96
1, 41760, Note_on_c, 3, 64, 96
1, 41760, Note_on_c, 4, 55, 96
1, 41760, Note_on_c, 5, 48, 96
1, 41760, Note_on_c, 6, 36, 96
1, 41760, Note_on_c, 7, 64, 96
1, 41760, Note_on_c, 8, 48, 96
1, 41760, Note_on_c, 8, 60, 96
1, 41781, Note_off_c, 3, 64, 0
1, 41781, Note_off_c, 4, 55, 0
1, 41784, Note_on_c, 3, 65, 96
1, 41784, Note_on_c, 4, 57, 96
1, 41802, Note_off_c, 5, 48, 0
1, 41802, Note_off_c, 6, 36, 0
1, 41802, Note_off_c, 8, 48, 0
1, 41802, Note_off_c, 8, 60, 0
1, 41805, Note_off_c, 3, 65, 0
1, 41805, Note_off_c, 4, 57, 0
1, 41808, Note_on_c, 3, 67, 96
1, 41808, Note_on_c, 4, 58, 96
1, 41808, Note_on_c, 5, 36, 96
1, 41808, Note_on_c, 6, 24, 96
1, 41808, Note_on_c, 8, 36, 96
1, 41808, Note_on_c, 8, 58, 96
1, 41829, Note_off_c, 3, 67, 0
1, 41829, Note_off_c, 4, 58, 0
1, 41832, Note_off_c, 2, 67, 0
1, 41832, Note_on_c, 3, 64, 96
1, 41832, Note_on_c, 4, 55, 96
1, 41832, Note_off_c, 7, 67, 0
1, 41844, Note_off_c, 0, 76, 0
1, 41844, Note_off_c, 1, 76, 0
1, 41844, Note_off_c, 7, 64, 0
1, 41850, Note_off_c, 5, 36, 0
1, 41850, Note_off_c, 6, 24, 0
1, 41850, Note_off_c, 8, 36, 0
1, 41850, Note_off_c, 8, 58, 0
1, 41853, Note_off_c, 3, 64, 0
1, 41853, Note_off_c, 4, 55, 0
1, 41856, Note_on_c, 0, 77, 96
1, 41856, Note_on_c, 1, 77, 96
1, 41856, Note_on_c, 2, 65, 96
1, 41856, Note_on_c, 3, 60, 96
1, 41856, Note_on_c, 4, 57, 96
1, 41856, Note_on_c, 5, 41, 96
1, 41856, Note_on_c, 6, 29, 96
1, 41856, Note_on_c, 7, 65, 96
1, 41856, Note_on_c, 8, 41, 96
1, 41856, Note_on_c, 8, 57, 96
1, 41868, Note_on_c, 7, 77, 96
1, 41877, Note_off_c, 7, 65, 0
1, 41877, Note_off_c, 8, 57, 0
1, 41878, Note_off_c, 7, 77, 0
1, 41880, Note_on_c, 7, 75, 96
1, 41890, Note_off_c, 7, 75, 0
1, 41892, Note_on_c, 7, 74, 96
1, 41898, Note_off_c, 0, 77, 0
1, 41902, Note_off_c, 7, 74, 0
1, 41904, Note_on_c, 0, 72, 96
1, 41904, Note_on_c, 7, 72, 96
1, 41914, Note_off_c, 7, 72, 0
1, 41916, Note_on_c, 7, 70, 96
1, 41925, Note_off_c, 0, 72, 0
1, 41926, Note_off_c, 7, 70, 0
1, 41928, Note_on_c, 0, 74, 96
1, 41928, Note_on_c, 7, 69, 96
1, 41938, Note_off_c, 7, 69, 0
1, 41940, Note_off_c, 1, 77, 0
1, 41940, Note_off_c, 2, 65, 0
1, 41940, Note_off_c, 3, 60, 0
1, 41940, Note_off_c, 4, 57, 0
1, 41940, Note_on_c, 7, 67, 96
1, 41949, Note_off_c, 0, 74, 0
1, 41950, Note_off_c, 7, 67, 0
1, 41952, Note_on_c, 0, 75, 96
1, 41952, Note_on_c, 1, 69, 96
1, 41952, Note_on_c, 7, 65, 96
1, 41962, Note_off_c, 7, 65, 0
1, 41964, Note_on_c, 7, 72, 96
1, 41974, Note_off_c, 7, 72, 0
1, 41976, Note_on_c, 7, 70, 96
1, 41986, Note_off_c, 7, 70, 0
1, 41988, Note_on_c, 7, 69, 96
1, 41998, Note_off_c, 7, 69, 0
1, 42000, Note_on_c, 2, 72, 96
1, 42000, Note_on_c, 3, 69, 96
1, 42000, Note_on_c, 4, 65, 96
1, 42000, Note_on_c, 7, 67, 96
1, 42010, Note_off_c, 7, 67, 0
1, 42012, Note_on_c, 7, 65, 96
1, 42021, Note_off_c, 2, 72, 0
1, 42022, Note_off_c, 7, 65, 0
1, 42024, Note_on_c, 2, 74, 96
1, 42024, Note_on_c, 7, 63, 96
1, 42034, Note_off_c, 7, 63, 0
1, 42036, Note_on_c, 7, 62, 96
1, 42042, Note_off_c, 3, 69, 0
1, 42042, Note_off_c, 4, 65, 0
1, 42045, Note_off_c, 2, 74, 0
1, 42046, Note_off_c, 7, 62, 0
1, 42048, Note_on_c, 2, 75, 96
1, 42048, Note_on_c, 3, 69, 96
1, 42048, Note_on_c, 4, 60, 96
1, 42048, Note_on_c, 7, 60, 96
1, 42058, Note_off_c, 7, 60, 0
1, 42060, Note_on_c, 7, 65, 96
1, 42070, Note_off_c, 7, 65, 0
1, 42072, Note_on_c, 7, 63, 96
1, 42078, Note_off_c, 0, 75, 0
1, 42078, Note_off_c, 1, 69, 0
1, 42082, Note_off_c, 7, 63, 0
1, 42084, Note_on_c, 7, 62, 96
1, 42094, Note_off_c, 7, 62, 0
1, 42096, Note_on_c, 0, 72, 96
1, 42096, Note_on_c, 1, 69, 96
1, 42096, Note_on_c, 7, 60, 96
1, 42106, Note_off_c, 7, 60, 0
1, 42108, Note_on_c, 7, 58, 96
1, 42117, Note_off_c, 0, 72, 0
1, 42117, Note_off_c, 1, 69, 0
1, 42118, Note_off_c, 7, 58, 0
1, 42120, Note_on_c, 0, 74, 96
1, 42120, Note_on_c, 1, 70, 96
1, 42120, Note_on_c, 7, 57, 96
1, 42130, Note_off_c, 7, 57, 0
1, 42132, Note_off_c, 2, 75, 0
1, 42132, Note_off_c, 3, 69, 0
1, 42132, Note_off_c, 4, 60, 0
1, 42132, Note_on_c, 7, 55, 96
1, 42141, Note_off_c, 0, 74, 0
1, 42141, Note_off_c, 1, 70, 0
1, 42142, Note_off_c, 7, 55, 0
1, 42144, Note_on_c, 0, 75, 96
1, 42144, Note_on_c, 1, 72, 96
1, 42144, Note_on_c, 7, 53, 96
1, 42168, Note_off_c, 8, 41, 0
1, 42186, Note_off_c, 0, 75, 0
1, 42186, Note_off_c, 1, 72, 0
1, 42192, Note_on_c, 0, 74, 96
1, 42192, Note_on_c, 1, 70, 96
1, 42192, Note_on_c, 8, 41, 96
1, 42213, Note_off_c, 0, 74, 0
1, 42213, Note_off_c, 1, 70, 0
1, 42216, Note_on_c, 0, 72, 96
1, 42216, Note_on_c, 1, 69, 96
1, 42228, Note_off_c, 7, 53, 0
1, 42234, Note_off_c, 8, 41, 0
1, 42237, Note_off_c, 0, 72, 0
1, 42237, Note_off_c, 1, 69, 0
1, 42240, Note_on_c, 0, 74, 96
1, 42240, Note_on_c, 1, 70, 96
1, 42240, Note_on_c, 8, 53, 96
1, 42252, Note_on_c, 7, 82, 96
1, 42252, Note_off_c, 8, 53, 0
1, 42252, Note_on_c, 8, 51, 96
1, 42262, Note_off_c, 7, 82, 0
1, 42264, Note_on_c, 7, 81, 96
1, 42264, Note_off_c, 8, 51, 0
1, 42264, Note_on_c, 8, 53, 96
1, 42274, Note_off_c, 7, 81, 0
1, 42276, Note_on_c, 7, 79, 96
1, 42286, Note_off_c, 7, 79, 0
1, 42288, Note_on_c, 2, 70, 96
1, 42288, Note_on_c, 3, 65, 96
1, 42288, Note_on_c, 4, 62, 96
1, 42288, Note_on_c, 7, 77, 96
1, 42298, Note_off_c, 7, 77, 0
1, 42300, Note_on_c, 7, 75, 96
1, 42309, Note_off_c, 2, 70, 0
1, 42309, Note_off_c, 4, 62, 0
1, 42310, Note_off_c, 7, 75, 0
1, 42312, Note_on_c, 2, 72, 96
1, 42312, Note_on_c, 4, 63, 96
1, 42312, Note_on_c, 7, 74, 96
1, 42322, Note_off_c, 7, 74, 0
1, 42324, Note_off_c, 0, 74, 0
1, 42324, Note_off_c, 1, 70, 0
1, 42324, Note_on_c, 7, 72, 96
1, 42330, Note_off_c, 3, 65, 0
1, 42333, Note_off_c, 2, 72, 0
1, 42333, Note_off_c, 4, 63, 0
1, 42334, Note_off_c, 7, 72, 0
1, 42336, Note_on_c, 2, 74, 96
1, 42336, Note_on_c, 3, 70, 96
1, 42336, Note_on_c, 4, 65, 96
1, 42336, Note_on_c, 7, 70, 96
1, 42346, Note_off_c, 7, 70, 0
1, 42348, Note_on_c, 7, 77, 96
1, 42358, Note_off_c, 7, 77, 0
1, 42360, Note_on_c, 7, 75, 96
1, 42370, Note_off_c, 7, 75, 0
1, 42372, Note_on_c, 7, 74, 96
1, 42382, Note_off_c, 7, 74, 0
1, 42384, Note_on_c, 0, 70, 96
1, 42384, Note_on_c, 1, 65, 96
1, 42384, Note_on_c, 7, 72, 96
1, 42394, Note_off_c, 7, 72, 0
1, 42396, Note_on_c, 7, 70, 96
1, 42405, Note_off_c, 0, 70, 0
1, 42406, Note_off_c, 7, 70, 0
1, 42408, Note_on_c, 0, 72, 96
1, 42408, Note_on_c, 7, 69, 96
1, 42418, Note_off_c, 7, 69, 0
1, 42420, Note_on_c, 7, 67, 96
1, 42426, Note_off_c, 1, 65, 0
1, 42429, Note_off_c, 0, 72, 0
1, 42430, Note_off_c, 7, 67, 0
1, 42432, Note_on_c, 0, 74, 96
1, 42432, Note_on_c, 1, 70, 96
1, 42432, Note_on_c, 7, 65, 96
1, 42442, Note_off_c, 7, 65, 0
1, 42444, Note_on_c, 7, 70, 96
1, 42454, Note_off_c, 7, 70, 0
1, 42456, Note_on_c, 7, 69, 96
1, 42462, Note_off_c, 2, 74, 0
1, 42462, Note_off_c, 3, 70, 0
1, 42462, Note_off_c, 4, 65, 0
1, 42466, Note_off_c, 7, 69, 0
1, 42468, Note_on_c, 7, 67, 96
1, 42478, Note_off_c, 7, 67, 0
1, 42480, Note_on_c, 2, 70, 96
1, 42480, Note_on_c, 3, 70, 96
1, 42480, Note_on_c, 4, 62, 96
1, 42480, Note_on_c, 7, 65, 96
1, 42490, Note_off_c, 7, 65, 0
1, 42492, Note_on_c, 7, 63, 96
1, 42501, Note_off_c, 2, 70, 0
1, 42501, Note_off_c, 3, 70, 0
1, 42501, Note_off_c, 4, 62, 0
1, 42502, Note_off_c, 7, 63, 0
1, 42504, Note_on_c, 2, 72, 96
1, 42504, Note_on_c, 3, 69, 96
1, 42504, Note_on_c, 4, 63, 96
1, 42504, Note_on_c, 7, 62, 96
1, 42514, Note_off_c, 7, 62, 0
1, 42516, Note_off_c, 0, 74, 0
1, 42516, Note_off_c, 1, 70, 0
1, 42516, Note_on_c, 7, 60, 96
1, 42525, Note_off_c, 2, 72, 0
1, 42525, Note_off_c, 3, 69, 0
1, 42525, Note_off_c, 4, 63, 0
1, 42526, Note_off_c, 7, 60, 0
1, 42528, Note_on_c, 2, 74, 96
1, 42528, Note_on_c, 3, 70, 96
1, 42528, Note_on_c, 4, 65, 96
1, 42528, Note_on_c, 7, 58, 96
1, 42552, Note_off_c, 8, 53, 0
1, 42570, Note_off_c, 2, 74, 0
1, 42570, Note_off_c, 3, 70, 0
1, 42570, Note_off_c, 4, 65, 0
1, 42576, Note_on_c, 2, 72, 96
1, 42576, Note_on_c, 3, 72, 96
1, 42576, Note_on_c, 4, 63, 96
1, 42576, Note_on_c, 8, 41, 96
1, 42597, Note_off_c, 2, 72, 0
1, 42597, Note_off_c, 3, 72, 0
1, 42597, Note_off_c, 4, 63, 0
1, 42600, Note_on_c, 2, 70, 96
1, 42600, Note_on_c, 3, 74, 96
1, 42600, Note_on_c, 4, 62, 96
1, 42612, Note_off_c, 7, 58, 0
1, 42618, Note_off_c, 8, 41, 0
1, 42621, Note_off_c, 2, 70, 0
1, 42621, Note_off_c, 3, 74, 0
1, 42621, Note_off_c, 4, 62, 0
1, 42624, Note_on_c, 2, 76, 96
1, 42624, Note_on_c, 3, 67, 96
1, 42624, Note_on_c, 4, 70, 96
1, 42624, Note_on_c, 8, 53, 96
1, 42636, Note_off_c, 8, 53, 0
1, 42636, Note_on_c, 8, 52, 96
1, 42648, Note_on_c, 7, 82, 96
1, 42648, Note_off_c, 8, 52, 0
1, 42648, Note_on_c, 8, 53, 96
1, 42658, Note_off_c, 7, 82, 0
1, 42660, Note_on_c, 7, 81, 96
1, 42670, Note_off_c, 7, 81, 0
1, 42672, Note_on_c, 0, 79, 96
1, 42672, Note_on_c, 1, 76, 96
1, 42672, Note_on_c, 7, 79, 96
1, 42682, Note_off_c, 7, 79, 0
1, 42684, Note_on_c, 7, 77, 96
1, 42693, Note_off_c, 0, 79, 0
1, 42693, Note_off_c, 1, 76, 0
1, 42694, Note_off_c, 7, 77, 0
1, 42696, Note_on_c, 0, 81, 96
1, 42696, Note_on_c, 1, 77, 96
1, 42696, Note_on_c, 7, 76, 96
1, 42706, Note_off_c, 7, 76, 0
1, 42708, Note_off_c, 2, 76, 0
1, 42708, Note_off_c, 3, 67, 0
1, 42708, Note_off_c, 4, 70, 0
1, 42708, Note_on_c, 7, 74, 96
1, 42717, Note_off_c, 0, 81, 0
1, 42717, Note_off_c, 1, 77, 0
1, 42718, Note_off_c, 7, 74, 0
1, 42720, Note_on_c, 0, 82, 96
1, 42720, Note_on_c, 1, 79, 96
1, 42720, Note_on_c, 7, 72, 96
1, 42730, Note_off_c, 7, 72, 0
1, 42732, Note_on_c, 7, 79, 96
1, 42742, Note_off_c, 7, 79, 0
1, 42744, Note_on_c, 7, 77, 96
1, 42754, Note_off_c, 7, 77, 0
1, 42756, Note_on_c, 7, 76, 96
1, 42766, Note_off_c, 7, 76, 0
1, 42768, Note_on_c, 2, 79, 96
1, 42768, Note_on_c, 3, 76, 96
1, 42768, Note_on_c, 4, 70, 96
1, 42768, Note_on_c, 7, 74, 96
1, 42778, Note_off_c, 7, 74, 0
1, 42780, Note_on_c, 7, 72, 96
1, 42790, Note_off_c, 7, 72, 0
1, 42792, Note_on_c, 7, 70, 96
1, 42802, Note_off_c, 7, 70, 0
1, 42804, Note_on_c, 7, 69, 96
1, 42810, Note_off_c, 2, 79, 0
1, 42810, Note_off_c, 3, 76, 0
1, 42810, Note_off_c, 4, 70, 0
1, 42814, Note_off_c, 7, 69, 0
1, 42816, Note_on_c, 2, 76, 96
1, 42816, Note_on_c, 3, 72, 96
1, 42816, Note_on_c, 4, 67, 96
1, 42816, Note_on_c, 7, 67, 96
1, 42826, Note_off_c, 7, 67, 0
1, 42828, Note_on_c, 7, 72, 96
1, 42838, Note_off_c, 7, 72, 0
1, 42840, Note_on_c, 7, 70, 96
1, 42846, Note_off_c, 0, 82, 0
1, 42846, Note_off_c, 1, 79, 0
1, 42850, Note_off_c, 7, 70, 0
1, 42852, Note_on_c, 7, 69, 96
1, 42858, Note_off_c, 2, 76, 0
1, 42858, Note_off_c, 3, 72, 0
1, 42858, Note_off_c, 4, 67, 0
1, 42862, Note_off_c, 7, 69, 0
1, 42864, Note_on_c, 0, 79, 96
1, 42864, Note_on_c, 1, 76, 96
1, 42864, Note_on_c, 2, 79, 96
1, 42864, Note_on_c, 3, 70, 96
1, 42864, Note_on_c, 4, 55, 96
1, 42864, Note_on_c, 7, 67, 96
1, 42874, Note_off_c, 7, 67, 0
1, 42876, Note_on_c, 7, 65, 96
1, 42885, Note_off_c, 0, 79, 0
1, 42885, Note_off_c, 1, 76, 0
1, 42886, Note_off_c, 7, 65, 0
1, 42888, Note_on_c, 0, 81, 96
1, 42888, Note_on_c, 1, 77, 96
1, 42888, Note_on_c, 7, 64, 96
1, 42898, Note_off_c, 7, 64, 0
1, 42900, Note_on_c, 7, 62, 96
1, 42900, Note_off_c, 8, 53, 0
1, 42906, Note_off_c, 2, 79, 0
1, 42906, Note_off_c, 3, 70, 0
1, 42906, Note_off_c, 4, 55, 0
1, 42909, Note_off_c, 0, 81, 0
1, 42909, Note_off_c, 1, 77, 0
1, 42910, Note_off_c, 7, 62, 0
1, 42912, Note_on_c, 0, 82, 96
1, 42912, Note_on_c, 1, 79, 96
1, 42912, Note_on_c, 2, 76, 96
1, 42912, Note_on_c, 3, 67, 96
1, 42912, Note_on_c, 4, 60, 96
1, 42912, Note_on_c, 7, 60, 96
1, 42954, Note_off_c, 0, 82, 0
1, 42954, Note_off_c, 1, 79, 0
1, 42954, Note_off_c, 2, 76, 0
1, 42954, Note_off_c, 3, 67, 0
1, 42954, Note_off_c, 4, 60, 0
1, 42960, Note_on_c, 0, 81, 96
1, 42960, Note_on_c, 1, 77, 96
1, 42960, Note_on_c, 2, 72, 96
1, 42960, Note_on_c, 3, 70, 96
1, 42960, Note_on_c, 4, 67, 96
1, 42960, Note_on_c, 8, 41, 96
1, 42981, Note_off_c, 0, 81, 0
1, 42981, Note_off_c, 1, 77, 0
1, 42984, Note_on_c, 0, 79, 96
1, 42984, Note_on_c, 1, 76, 96
1, 42996, Note_off_c, 7, 60, 0
1, 43002, Note_off_c, 2, 72, 0
1, 43002, Note_off_c, 3, 70, 0
1, 43002, Note_off_c, 4, 67, 0
1, 43002, Note_off_c, 8, 41, 0
1, 43005, Note_off_c, 0, 79, 0
1, 43005, Note_off_c, 1, 76, 0
1, 43008, Note_on_c, 0, 81, 96
1, 43008, Note_on_c, 1, 77, 96
1, 43008, Note_on_c, 2, 77, 96
1, 43008, Note_on_c, 3, 69, 96
1, 43008, Note_on_c, 4, 65, 96
1, 43008, Note_off_c, 5, 41, 0
1, 43008, Note_off_c, 6, 29, 0
1, 43008, Note_on_c, 7, 72, 96
1, 43008, Note_on_c, 7, 69, 96
1, 43008, Note_on_c, 7, 65, 96
1, 43008, Note_on_c, 8, 53, 96
1, 43029, Note_off_c, 8, 53, 0
1, 43032, Note_on_c, 5, 43, 96
1, 43032, Note_on_c, 6, 31, 96
1, 43032, Note_on_c, 8, 55, 96
1, 43050, Note_off_c, 2, 77, 0
1, 43053, Note_off_c, 5, 43, 0
1, 43053, Note_off_c, 6, 31, 0
1, 43053, Note_off_c, 8, 55, 0
1, 43056, Note_on_c, 2, 72, 96
1, 43056, Note_on_c, 5, 41, 96
1, 43056, Note_on_c, 6, 29, 96
1, 43056, Note_on_c, 8, 53, 96
1, 43077, Note_off_c, 5, 41, 0
1, 43077, Note_off_c, 6, 29, 0
1, 43077, Note_off_c, 8, 53, 0
1, 43080, Note_on_c, 5, 40, 96
1, 43080, Note_on_c, 6, 28, 96
1, 43080, Note_on_c, 8, 52, 96
1, 43092, Note_off_c, 0, 81, 0
1, 43092, Note_off_c, 1, 77, 0
1, 43092, Note_off_c, 7, 72, 0
1, 43092, Note_off_c, 7, 69, 0
1, 43092, Note_off_c, 7, 65, 0
1, 43098, Note_off_c, 2, 72, 0
1, 43101, Note_off_c, 5, 40, 0
1, 43101, Note_off_c, 6, 28, 0
1, 43101, Note_off_c, 8, 52, 0
1, 43104, Note_on_c, 0, 77, 96
1, 43104, Note_on_c, 1, 77, 96
1, 43104, Note_on_c, 2, 77, 96
1, 43104, Note_on_c, 5, 38, 96
1, 43104, Note_on_c, 6, 26, 96
1, 43104, Note_on_c, 7, 77, 96
1, 43104, Note_on_c, 7, 74, 96
1, 43104, Note_on_c, 7, 69, 96
1, 43104, Note_on_c, 8, 50, 96
1, 43113, Note_off_c, 4, 65, 0
1, 43125, Note_off_c, 5, 38, 0
1, 43125, Note_off_c, 6, 26, 0
1, 43125, Note_off_c, 8, 50, 0
1, 43128, Note_on_c, 4, 64, 96
1, 43128, Note_on_c, 5, 48, 96
1, 43128, Note_on_c, 6, 36, 96
1, 43128, Note_on_c, 8, 48, 96
1, 43134, Note_off_c, 3, 69, 0
1, 43149, Note_off_c, 4, 64, 0
1, 43149, Note_off_c, 5, 48, 0
1, 43149, Note_off_c, 6, 36, 0
1, 43149, Note_off_c, 8, 48, 0
1, 43152, Note_on_c, 3, 70, 96
1, 43152, Note_on_c, 4, 62, 96
1, 43152, Note_on_c, 5, 46, 96
1, 43152, Note_on_c, 6, 34, 96
1, 43152, Note_on_c, 8, 46, 96
1, 43173, Note_off_c, 3, 70, 0
1, 43173, Note_off_c, 4, 62, 0
1, 43173, Note_off_c, 5, 46, 0
1, 43173, Note_off_c, 6, 34, 0
1, 43173, Note_off_c, 8, 46, 0
1, 43176, Note_on_c, 3, 72, 96
1, 43176, Note_on_c, 4, 60, 96
1, 43176, Note_on_c, 5, 45, 96
1, 43176, Note_on_c, 6, 33, 96
1, 43176, Note_on_c, 8, 45, 96
1, 43188, Note_off_c, 0, 77, 0
1, 43188, Note_off_c, 1, 77, 0
1, 43188, Note_off_c, 7, 74, 0
1, 43188, Note_off_c, 7, 69, 0
1, 43197, Note_off_c, 3, 72, 0
1, 43197, Note_off_c, 4, 60, 0
1, 43197, Note_off_c, 5, 45, 0
1, 43197, Note_off_c, 6, 33, 0
1, 43197, Note_off_c, 8, 45, 0
1, 43200, Note_on_c, 0, 82, 96
1, 43200, Note_on_c, 1, 82, 96
1, 43200, Note_on_c, 3, 74, 96
1, 43200, Note_on_c, 4, 58, 96
1, 43200, Note_on_c, 5, 43, 96
1, 43200, Note_on_c, 6, 31, 96
1, 43200, Note_on_c, 7, 70, 96
1, 43200, Note_on_c, 8, 43, 96
1, 43221, Note_off_c, 3, 74, 0
1, 43221, Note_off_c, 5, 43, 0
1, 43221, Note_off_c, 6, 31, 0
1, 43221, Note_off_c, 8, 43, 0
1, 43224, Note_on_c, 3, 72, 96
1, 43224, Note_on_c, 5, 57, 96
1, 43224, Note_on_c, 6, 45, 96
1, 43224, Note_on_c, 8, 57, 96
1, 43230, Note_off_c, 2, 77, 0
1, 43230, Note_off_c, 7, 77, 0
1, 43242, Note_off_c, 4, 58, 0
1, 43245, Note_off_c, 3, 72, 0
1, 43245, Note_off_c, 5, 57, 0
1, 43245, Note_off_c, 6, 45, 0
1, 43245, Note_off_c, 8, 57, 0
1, 43248, Note_on_c, 2, 76, 96
1, 43248, Note_on_c, 3, 70, 96
1, 43248, Note_on_c, 4, 55, 96
1, 43248, Note_on_c, 5, 55, 96
1, 43248, Note_on_c, 6, 43, 96
1, 43248, Note_on_c, 7, 76, 96
1, 43248, Note_on_c, 8, 55, 96
1, 43269, Note_off_c, 2, 76, 0
1, 43269, Note_off_c, 3, 70, 0
1, 43269, Note_off_c, 5, 55, 0
1, 43269, Note_off_c, 6, 43, 0
1, 43269, Note_off_c, 7, 76, 0
1, 43269, Note_off_c, 8, 55, 0
1, 43272, Note_on_c, 2, 77, 96
1, 43272, Note_on_c, 3, 74, 96
1, 43272, Note_on_c, 5, 53, 96
1, 43272, Note_on_c, 6, 41, 96
1, 43272, Note_on_c, 7, 77, 96
1, 43272, Note_on_c, 8, 53, 96
1, 43290, Note_off_c, 4, 55, 0
1, 43293, Note_off_c, 2, 77, 0
1, 43293, Note_off_c, 3, 74, 0
1, 43293, Note_off_c, 5, 53, 0
1, 43293, Note_off_c, 6, 41, 0
1, 43293, Note_off_c, 7, 77, 0
1, 43293, Note_off_c, 8, 53, 0
1, 43296, Note_on_c, 2, 79, 96
1, 43296, Note_on_c, 3, 72, 96
1, 43296, Note_on_c, 4, 60, 96
1, 43296, Note_on_c, 5, 52, 96
1, 43296, Note_on_c, 6, 40, 96
1, 43296, Note_on_c, 7, 79, 96
1, 43296, Note_on_c, 8, 52, 96
1, 43317, Note_off_c, 5, 52, 0
1, 43317, Note_off_c, 6, 40, 0
1, 43317, Note_off_c, 8, 52, 0
1, 43320, Note_on_c, 5, 62, 96
1, 43320, Note_on_c, 6, 50, 96
1, 43320, Note_on_c, 8, 50, 96
1, 43326, Note_off_c, 0, 82, 0
1, 43326, Note_off_c, 1, 82, 0
1, 43326, Note_off_c, 7, 70, 0
1, 43338, Note_off_c, 2, 79, 0
1, 43338, Note_off_c, 7, 79, 0
1, 43341, Note_off_c, 5, 62, 0
1, 43341, Note_off_c, 6, 50, 0
1, 43341, Note_off_c, 8, 50, 0
1, 43344, Note_on_c, 0, 81, 96
1, 43344, Note_on_c, 1, 81, 96
1, 43344, Note_on_c, 2, 77, 96
1, 43344, Note_on_c, 5, 60, 96
1, 43344, Note_on_c, 6, 48, 96
1, 43344, Note_on_c, 7, 77, 96
1, 43344, Note_on_c, 7, 69, 96
1, 43344, Note_on_c, 8, 48, 96
1, 43365, Note_off_c, 0, 81, 0
1, 43365, Note_off_c, 1, 81, 0
1, 43365, Note_off_c, 2, 77, 0
1, 43365, Note_off_c, 5, 60, 0
1, 43365, Note_off_c, 6, 48, 0
1, 43365, Note_off_c, 7, 77, 0
1, 43365, Note_off_c, 7, 69, 0
1, 43365, Note_off_c, 8, 48, 0
1, 43368, Note_on_c, 0, 82, 96
1, 43368, Note_on_c, 1, 82, 96
1, 43368, Note_on_c, 2, 76, 96
1, 43368, Note_on_c, 5, 58, 96
1, 43368, Note_on_c, 6, 46, 96
1, 43368, Note_on_c, 7, 76, 96
1, 43368, Note_on_c, 7, 67, 96
1, 43368, Note_on_c, 8, 46, 96
1, 43389, Note_off_c, 0, 82, 0
1, 43389, Note_off_c, 1, 82, 0
1, 43389, Note_off_c, 2, 76, 0
1, 43389, Note_off_c, 5, 58, 0
1, 43389, Note_off_c, 6, 46, 0
1, 43389, Note_off_c, 7, 76, 0
1, 43389, Note_off_c, 7, 67, 0
1, 43389, Note_off_c, 8, 46, 0
1, 43392, Note_on_c, 0, 84, 96
1, 43392, Note_on_c, 1, 84, 96
1, 43392, Note_on_c, 2, 77, 96
1, 43392, Note_on_c, 5, 57, 96
1, 43392, Note_on_c, 6, 45, 96
1, 43392, Note_on_c, 7, 77, 96
1, 43392, Note_on_c, 7, 72, 96
1, 43392, Note_on_c, 7, 65, 96
1, 43392, Note_on_c, 8, 45, 96
1, 43413, Note_off_c, 5, 57, 0
1, 43413, Note_off_c, 6, 45, 0
1, 43413, Note_off_c, 8, 45, 0
1, 43416, Note_on_c, 5, 55, 96
1, 43416, Note_on_c, 6, 43, 96
1, 43416, Note_on_c, 8, 55, 96
1, 43422, Note_off_c, 3, 72, 0
1, 43422, Note_off_c, 4, 60, 0
1, 43434, Note_off_c, 0, 84, 0
1, 43434, Note_off_c, 1, 84, 0
1, 43434, Note_off_c, 2, 77, 0
1, 43434, Note_off_c, 7, 77, 0
1, 43434, Note_off_c, 7, 72, 0
1, 43434, Note_off_c, 7, 65, 0
1, 43437, Note_off_c, 5, 55, 0
1, 43437, Note_off_c, 6, 43, 0
1, 43437, Note_off_c, 8, 55, 0
1, 43440, Note_on_c, 0, 82, 96
1, 43440, Note_on_c, 1, 82, 96
1, 43440, Note_on_c, 2, 72, 96
1, 43440, Note_on_c, 3, 77, 96
1, 43440, Note_on_c, 4, 69, 96
1, 43440, Note_on_c, 5, 53, 96
1, 43440, Note_on_c, 6, 41, 96
1, 43440, Note_on_c, 7, 72, 96
1, 43440, Note_on_c, 8, 53, 96
1, 43461, Note_off_c, 0, 82, 0
1, 43461, Note_off_c, 1, 82, 0
1, 43461, Note_off_c, 5, 53, 0
1, 43461, Note_off_c, 6, 41, 0
1, 43461, Note_off_c, 8, 53, 0
1, 43464, Note_on_c, 0, 81, 96
1, 43464, Note_on_c, 1, 81, 96
1, 43464, Note_on_c, 5, 51, 96
1, 43464, Note_on_c, 6, 39, 96
1, 43464, Note_on_c, 8, 51, 96
1, 43482, Note_off_c, 2, 72, 0
1, 43482, Note_off_c, 3, 77, 0
1, 43482, Note_off_c, 4, 69, 0
1, 43482, Note_off_c, 7, 72, 0
1, 43485, Note_off_c, 0, 81, 0
1, 43485, Note_off_c, 1, 81, 0
1, 43485, Note_off_c, 5, 51, 0
1, 43485, Note_off_c, 6, 39, 0
1, 43485, Note_off_c, 8, 51, 0
1, 43488, Note_on_c, 0, 82, 96
1, 43488, Note_on_c, 1, 82, 96
1, 43488, Note_on_c, 2, 74, 96
1, 43488, Note_on_c, 3, 70, 96
1, 43488, Note_on_c, 4, 65, 96
1, 43488, Note_on_c, 5, 50, 96
1, 43488, Note_on_c, 6, 38, 96
1, 43488, Note_on_c, 7, 74, 96
1, 43488, Note_on_c, 8, 50, 96
1, 43509, Note_off_c, 5, 50, 0
1, 43509, Note_off_c, 6, 38, 0
1, 43509, Note_off_c, 8, 50, 0
1, 43512, Note_on_c, 5, 48, 96
1, 43512, Note_on_c, 6, 36, 96
1, 43512, Note_on_c, 8, 48, 96
1, 43530, Note_off_c, 0, 82, 0
1, 43530, Note_off_c, 1, 82, 0
1, 43530, Note_off_c, 2, 74, 0
1, 43530, Note_off_c, 3, 70, 0
1, 43530, Note_off_c, 4, 65, 0
1, 43530, Note_off_c, 7, 74, 0
1, 43533, Note_off_c, 5, 48, 0
1, 43533, Note_off_c, 6, 36, 0
1, 43533, Note_off_c, 8, 48, 0
1, 43536, Note_on_c, 0, 77, 96
1, 43536, Note_on_c, 1, 77, 96
1, 43536, Note_on_c, 2, 69, 96
1, 43536, Note_on_c, 3, 74, 96
1, 43536, Note_on_c, 4, 69, 96
1, 43536, Note_on_c, 5, 46, 96
1, 43536, Note_on_c, 6, 34, 96
1, 43536, Note_on_c, 7, 69, 96
1, 43536, Note_on_c, 7, 65, 96
1, 43536, Note_on_c, 7, 62, 96
1, 43536, Note_on_c, 8, 46, 96
1, 43557, Note_off_c, 5, 46, 0
1, 43557, Note_off_c, 6, 34, 0
1, 43557, Note_off_c, 8, 46, 0
1, 43560, Note_on_c, 5, 45, 96
1, 43560, Note_on_c, 6, 33, 96
1, 43560, Note_on_c, 8, 45, 96
1, 43578, Note_off_c, 0, 77, 0
1, 43578, Note_off_c, 1, 77, 0
1, 43578, Note_off_c, 2, 69, 0
1, 43578, Note_off_c, 3, 74, 0
1, 43578, Note_off_c, 4, 69, 0
1, 43578, Note_off_c, 7, 69, 0
1, 43578, Note_off_c, 7, 65, 0
1, 43578, Note_off_c, 7, 62, 0
1, 43581, Note_off_c, 5, 45, 0
1, 43581, Note_off_c, 6, 33, 0
1, 43581, Note_off_c, 8, 45, 0
1, 43584, Note_on_c, 0, 79, 96
1, 43584, Note_on_c, 1, 79, 96
1, 43584, Note_on_c, 2, 70, 96
1, 43584, Note_on_c, 3, 70, 96
1, 43584, Note_on_c, 4, 62, 96
1, 43584, Note_on_c, 5, 43, 96
1, 43584, Note_on_c, 6, 31, 96
1, 43584, Note_on_c, 7, 70, 96
1, 43584, Note_on_c, 7, 67, 96
1, 43584, Note_on_c, 7, 62, 96
1, 43584, Note_on_c, 8, 43, 96
1, 43605, Note_off_c, 5, 43, 0
1, 43605, Note_off_c, 6, 31, 0
1, 43605, Note_off_c, 8, 43, 0
1, 43608, Note_on_c, 5, 53, 96
1, 43608, Note_on_c, 6, 41, 96
1, 43608, Note_on_c, 8, 53, 96
1, 43626, Note_off_c, 0, 79, 0
1, 43626, Note_off_c, 1, 79, 0
1, 43626, Note_off_c, 2, 70, 0
1, 43626, Note_off_c, 3, 70, 0
1, 43626, Note_off_c, 4, 62, 0
1, 43626, Note_off_c, 7, 70, 0
1, 43626, Note_off_c, 7, 67, 0
1, 43626, Note_off_c, 7, 62, 0
1, 43629, Note_off_c, 5, 53, 0
1, 43629, Note_off_c, 6, 41, 0
1, 43629, Note_off_c, 8, 53, 0
1, 43632, Note_on_c, 0, 74, 96
1, 43632, Note_on_c, 1, 74, 96
1, 43632, Note_on_c, 2, 67, 96
1, 43632, Note_on_c, 3, 74, 96
1, 43632, Note_on_c, 4, 67, 96
1, 43632, Note_on_c, 5, 52, 96
1, 43632, Note_on_c, 6, 40, 96
1, 43632, Note_on_c, 7, 67, 96
1, 43632, Note_on_c, 8, 52, 96
1, 43653, Note_off_c, 5, 52, 0
1, 43653, Note_off_c, 6, 40, 0
1, 43653, Note_off_c, 8, 52, 0
1, 43656, Note_on_c, 5, 50, 96
1, 43656, Note_on_c, 6, 38, 96
1, 43656, Note_on_c, 8, 50, 96
1, 43674, Note_off_c, 0, 74, 0
1, 43674, Note_off_c, 1, 74, 0
1, 43674, Note_off_c, 2, 67, 0
1, 43674, Note_off_c, 3, 74, 0
1, 43674, Note_off_c, 4, 67, 0
1, 43674, Note_off_c, 7, 67, 0
1, 43677, Note_off_c, 5, 50, 0
1, 43677, Note_off_c, 6, 38, 0
1, 43677, Note_off_c, 8, 50, 0
1, 43680, Note_on_c, 0, 76, 96
1, 43680, Note_on_c, 1, 76, 96
1, 43680, Note_on_c, 2, 72, 96
1, 43680, Note_on_c, 3, 67, 96
1, 43680, Note_on_c, 4, 64, 96
1, 43680, Note_on_c, 5, 48, 96
1, 43680, Note_on_c, 6, 36, 96
1, 43680, Note_on_c, 7, 72, 96
1, 43680, Note_on_c, 8, 48, 96
1, 43701, Note_off_c, 5, 48, 0
1, 43701, Note_off_c, 6, 36, 0
1, 43701, Note_off_c, 8, 48, 0
1, 43704, Note_on_c, 5, 46, 96
1, 43704, Note_on_c, 6, 34, 96
1, 43704, Note_on_c, 8, 46, 96
1, 43722, Note_off_c, 0, 76, 0
1, 43722, Note_off_c, 1, 76, 0
1, 43722, Note_off_c, 2, 72, 0
1, 43722, Note_off_c, 3, 67, 0
1, 43722, Note_off_c, 4, 64, 0
1, 43722, Note_off_c, 7, 72, 0
1, 43725, Note_off_c, 5, 46, 0
1, 43725, Note_off_c, 6, 34, 0
1, 43725, Note_off_c, 8, 46, 0
1, 43728, Note_on_c, 0, 72, 96
1, 43728, Note_on_c, 1, 72, 96
1, 43728, Note_on_c, 2, 67, 96
1, 43728, Note_on_c, 3, 72, 96
1, 43728, Note_on_c, 4, 67, 96
1, 43728, Note_on_c, 5, 45, 96
1, 43728, Note_on_c, 6, 33, 96
1, 43728, Note_on_c, 7, 67, 96
1, 43728, Note_on_c, 7, 64, 96
1, 43728, Note_on_c, 7, 60, 96
1, 43728, Note_on_c, 8, 45, 96
1, 43749, Note_off_c, 5, 45, 0
1, 43749, Note_off_c, 6, 33, 0
1, 43749, Note_off_c, 8, 45, 0
1, 43752, Note_on_c, 5, 43, 96
1, 43752, Note_on_c, 6, 31, 96
1, 43752, Note_on_c, 8, 43, 96
1, 43770, Note_off_c, 0, 72, 0
1, 43770, Note_off_c, 1, 72, 0
1, 43770, Note_off_c, 2, 67, 0
1, 43770, Note_off_c, 3, 72, 0
1, 43770, Note_off_c, 4, 67, 0
1, 43770, Note_off_c, 7, 67, 0
1, 43770, Note_off_c, 7, 64, 0
1, 43770, Note_off_c, 7, 60, 0
1, 43773, Note_off_c, 5, 43, 0
1, 43773, Note_off_c, 6, 31, 0
1, 43773, Note_off_c, 8, 43, 0
1, 43776, Note_on_c, 0, 77, 96
1, 43776, Note_on_c, 1, 77, 96
1, 43776, Note_on_c, 2, 69, 96
1, 43776, Note_on_c, 3, 69, 96
1, 43776, Note_on_c, 4, 60, 96
1, 43776, Note_on_c, 5, 41, 96
1, 43776, Note_on_c, 6, 29, 96
1, 43776, Note_on_c, 7, 69, 96
1, 43776, Note_on_c, 7, 65, 96
1, 43776, Note_on_c, 7, 60, 96
1, 43776, Note_on_c, 8, 41, 96
1, 43824, Note_off_c, 0, 77, 0
1, 43824, Note_off_c, 1, 77, 0
1, 43824, Note_off_c, 2, 69, 0
1, 43824, Note_off_c, 3, 69, 0
1, 43824, Note_off_c, 4, 60, 0
1, 43824, Note_off_c, 5, 41, 0
1, 43824, Note_off_c, 6, 29, 0
1, 43824, Note_off_c, 7, 69, 0
1, 43824, Note_off_c, 8, 41, 0
1, 43860, Note_off_c, 7, 65, 0
1, 43860, Note_off_c, 7, 60, 0
1, 43872, Note_on_c, 0, 77, 96
1, 43872, Note_on_c, 1, 77, 96
1, 43872, Note_on_c, 2, 71, 96
1, 43872, Note_on_c, 3, 65, 96
1, 43872, Note_on_c, 4, 62, 96
1, 43872, Note_on_c, 5, 38, 96
1, 43872, Note_on_c, 6, 26, 96
1, 43872, Note_on_c, 7, 77, 96
1, 43872, Note_on_c, 7, 74, 96
1, 43872, Note_on_c, 7, 71, 96
1, 43872, Note_on_c, 7, 65, 96
1, 43872, Note_on_c, 8, 38, 96
1, 43920, Note_off_c, 0, 77, 0
1, 43920, Note_off_c, 1, 77, 0
1, 43920, Note_off_c, 2, 71, 0
1, 43920, Note_off_c, 3, 65, 0
1, 43920, Note_off_c, 4, 62, 0
1, 43920, Note_off_c, 5, 38, 0
1, 43920, Note_off_c, 6, 26, 0
1, 43920, Note_off_c, 7, 77, 0
1, 43920, Note_off_c, 8, 38, 0
1, 43956, Note_off_c, 7, 74, 0
1, 43956, Note_off_c, 7, 71, 0
1, 43956, Note_off_c, 7, 65, 0
1, 44016, Note_on_c, 0, 74, 96
1, 44016, Note_on_c, 1, 74, 96
1, 44016, Note_on_c, 2, 71, 96
1, 44016, Note_on_c, 3, 67, 96
1, 44016, Note_on_c, 4, 62, 96
1, 44016, Note_on_c, 5, 43, 96
1, 44016, Note_on_c, 6, 31, 96
1, 44016, Note_on_c, 7, 74, 96
1, 44016, Note_on_c, 7, 71, 96
1, 44016, Note_on_c, 8, 43, 96
1, 44037, Note_off_c, 0, 74, 0
1, 44037, Note_off_c, 1, 74, 0
1, 44037, Note_off_c, 2, 71, 0
1, 44037, Note_off_c, 7, 74, 0
1, 44037, Note_off_c, 7, 71, 0
1, 44040, Note_on_c, 0, 76, 96
1, 44040, Note_on_c, 1, 76, 96
1, 44040, Note_on_c, 2, 72, 96
1, 44040, Note_on_c, 7, 76, 96
1, 44040, Note_on_c, 7, 72, 96
1, 44058, Note_off_c, 3, 67, 0
1, 44058, Note_off_c, 4, 62, 0
1, 44058, Note_off_c, 5, 43, 0
1, 44058, Note_off_c, 6, 31, 0
1, 44058, Note_off_c, 8, 43, 0
1, 44061, Note_off_c, 0, 76, 0
1, 44061, Note_off_c, 1, 76, 0
1, 44061, Note_off_c, 2, 72, 0
1, 44061, Note_off_c, 7, 76, 0
1, 44061, Note_off_c, 7, 72, 0
1, 44064, Note_on_c, 0, 77, 96
1, 44064, Note_on_c, 1, 77, 96
1, 44064, Note_on_c, 2, 74, 96
1, 44064, Note_on_c, 3, 69, 96
1, 44064, Note_on_c, 4, 62, 96
1, 44064, Note_on_c, 5, 41, 96
1, 44064, Note_on_c, 6, 29, 96
1, 44064, Note_on_c, 7, 77, 96
1, 44064, Note_on_c, 7, 74, 96
1, 44064, Note_on_c, 8, 41, 96
1, 44106, Note_off_c, 0, 77, 0
1, 44106, Note_off_c, 1, 77, 0
1, 44106, Note_off_c, 2, 74, 0
1, 44106, Note_off_c, 3, 69, 0
1, 44106, Note_off_c, 4, 62, 0
1, 44106, Note_off_c, 5, 41, 0
1, 44106, Note_off_c, 6, 29, 0
1, 44106, Note_off_c, 7, 77, 0
1, 44106, Note_off_c, 7, 74, 0
1, 44106, Note_off_c, 8, 41, 0
1, 44112, Note_on_c, 0, 76, 96
1, 44112, Note_on_c, 1, 76, 96
1, 44112, Note_on_c, 2, 72, 96
1, 44112, Note_on_c, 3, 67, 96
1, 44112, Note_on_c, 4, 67, 96
1, 44112, Note_on_c, 5, 43, 96
1, 44112, Note_on_c, 6, 31, 96
1, 44112, Note_on_c, 7, 76, 96
1, 44112, Note_on_c, 7, 72, 96
1, 44112, Note_on_c, 8, 43, 96
1, 44133, Note_off_c, 0, 76, 0
1, 44133, Note_off_c, 1, 76, 0
1, 44133, Note_off_c, 2, 72, 0
1, 44133, Note_off_c, 7, 76, 0
1, 44133, Note_off_c, 7, 72, 0
1, 44136, Note_on_c, 0, 74, 96
1, 44136, Note_on_c, 1, 74, 96
1, 44136, Note_on_c, 2, 71, 96
1, 44136, Note_on_c, 7, 74, 96
1, 44136, Note_on_c, 7, 71, 96
1, 44154, Note_off_c, 3, 67, 0
1, 44154, Note_off_c, 4, 67, 0
1, 44154, Note_off_c, 5, 43, 0
1, 44154, Note_off_c, 6, 31, 0
1, 44154, Note_off_c, 8, 43, 0
1, 44157, Note_off_c, 0, 74, 0
1, 44157, Note_off_c, 1, 74, 0
1, 44157, Note_off_c, 2, 71, 0
1, 44157, Note_off_c, 7, 74, 0
1, 44157, Note_off_c, 7, 71, 0
1, 44160, Note_on_c, 0, 76, 96
1, 44160, Note_on_c, 1, 76, 96
1, 44160, Note_on_c, 2, 72, 96
1, 44160, Note_on_c, 3, 67, 96
1, 44160, Note_on_c, 4, 64, 96
1, 44160, Note_on_c, 5, 36, 96
1, 44160, Note_on_c, 6, 24, 96
1, 44160, Note_on_c, 7, 76, 96
1, 44160, Note_on_c, 7, 72, 96
1, 44160, Note_on_c, 7, 67, 96
1, 44160, Note_on_c, 8, 36, 96
1, 44208, Note_off_c, 0, 76, 0
1, 44208, Note_off_c, 1, 76, 0
1, 44208, Note_off_c, 2, 72, 0
1, 44208, Note_off_c, 3, 67, 0
1, 44208, Note_off_c, 4, 64, 0
1, 44208, Note_off_c, 5, 36, 0
1, 44208, Note_off_c, 6, 24, 0
1, 44208, Note_off_c, 7, 76, 0
1, 44208, Note_off_c, 8, 36, 0
1, 44244, Note_off_c, 7, 72, 0
1, 44244, Note_off_c, 7, 67, 0
1, 44256, Note_on_c, 0, 75, 96
1, 44256, Note_on_c, 1, 75, 96
1, 44256, Note_on_c, 2, 69, 96
1, 44256, Note_on_c, 3, 65, 96
1, 44256, Note_on_c, 4, 60, 96
1, 44256, Note_on_c, 5, 41, 96
1, 44256, Note_on_c, 6, 29, 96
1, 44256, Note_on_c, 7, 75, 96
1, 44256, Note_on_c, 7, 72, 96
1, 44256, Note_on_c, 7, 69, 96
1, 44256, Note_on_c, 7, 65, 96
1, 44256, Note_on_c, 8, 53, 96
1, 44256, Note_on_c, 8, 48, 96
1, 44256, Note_on_c, 8, 41, 96
1, 44304, Note_off_c, 0, 75, 0
1, 44304, Note_off_c, 1, 75, 0
1, 44304, Note_off_c, 2, 69, 0
1, 44304, Note_off_c, 3, 65, 0
1, 44304, Note_off_c, 4, 60, 0
1, 44304, Note_off_c, 5, 41, 0
1, 44304, Note_off_c, 6, 29, 0
1, 44304, Note_off_c, 7, 75, 0
1, 44304, Note_off_c, 8, 53, 0
1, 44304, Note_off_c, 8, 48, 0
1, 44304, Note_off_c, 8, 41, 0
1, 44340, Note_off_c, 7, 72, 0
1, 44340, Note_off_c, 7, 69, 0
1, 44340, Note_off_c, 7, 65, 0
1, 44400, Note_on_c, 0, 72, 96
1, 44400, Note_on_c, 1, 72, 96
1, 44400, Note_on_c, 2, 69, 96
1, 44400, Note_on_c, 3, 65, 96
1, 44400, Note_on_c, 4, 60, 96
1, 44400, Note_on_c, 5, 53, 96
1, 44400, Note_on_c, 6, 41, 96
1, 44400, Note_on_c, 7, 72, 96
1, 44400, Note_on_c, 7, 69, 96
1, 44400, Note_on_c, 8, 53, 96
1, 44421, Note_off_c, 0, 72, 0
1, 44421, Note_off_c, 1, 72, 0
1, 44421, Note_off_c, 2, 69, 0
1, 44421, Note_off_c, 7, 72, 0
1, 44421, Note_off_c, 7, 69, 0
1, 44424, Note_on_c, 0, 74, 96
1, 44424, Note_on_c, 1, 74, 96
1, 44424, Note_on_c, 2, 70, 96
1, 44424, Note_on_c, 7, 74, 96
1, 44424, Note_on_c, 7, 70, 96
1, 44442, Note_off_c, 3, 65, 0
1, 44442, Note_off_c, 4, 60, 0
1, 44442, Note_off_c, 5, 53, 0
1, 44442, Note_off_c, 6, 41, 0
1, 44442, Note_off_c, 8, 53, 0
1, 44445, Note_off_c, 0, 74, 0
1, 44445, Note_off_c, 1, 74, 0
1, 44445, Note_off_c, 2, 70, 0
1, 44445, Note_off_c, 7, 74, 0
1, 44445, Note_off_c, 7, 70, 0
1, 44448, Note_on_c, 0, 75, 96
1, 44448, Note_on_c, 1, 75, 96
1, 44448, Note_on_c, 2, 72, 96
1, 44448, Note_on_c, 3, 67, 96
1, 44448, Note_on_c, 4, 60, 96
1, 44448, Note_on_c, 5, 51, 96
1, 44448, Note_on_c, 6, 39, 96
1, 44448, Note_on_c, 7, 75, 96
1, 44448, Note_on_c, 7, 72, 96
1, 44448, Note_on_c, 8, 51, 96
1, 44490, Note_off_c, 0, 75, 0
1, 44490, Note_off_c, 1, 75, 0
1, 44490, Note_off_c, 2, 72, 0
1, 44490, Note_off_c, 3, 67, 0
1, 44490, Note_off_c, 4, 60, 0
1, 44490, Note_off_c, 5, 51, 0
1, 44490, Note_off_c, 6, 39, 0
1, 44490, Note_off_c, 7, 75, 0
1, 44490, Note_off_c, 7, 72, 0
1, 44490, Note_off_c, 8, 51, 0
1, 44496, Note_on_c, 0, 74, 96
1, 44496, Note_on_c, 1, 74, 96
1, 44496, Note_on_c, 2, 70, 96
1, 44496, Note_on_c, 3, 65, 96
1, 44496, Note_on_c, 4, 65, 96
1, 44496, Note_on_c, 5, 53, 96
1, 44496, Note_on_c, 6, 41, 96
1, 44496, Note_on_c, 7, 74, 96
1, 44496, Note_on_c, 7, 70, 96
1, 44496, Note_on_c, 8, 53, 96
1, 44517, Note_off_c, 0, 74, 0
1, 44517, Note_off_c, 1, 74, 0
1, 44517, Note_off_c, 2, 70, 0
1, 44517, Note_off_c, 7, 74, 0
1, 44517, Note_off_c, 7, 70, 0
1, 44520, Note_on_c, 0, 72, 96
1, 44520, Note_on_c, 1, 72, 96
1, 44520, Note_on_c, 2, 69, 96
1, 44520, Note_on_c, 7, 72, 96
1, 44520, Note_on_c, 7, 69, 96
1, 44538, Note_off_c, 3, 65, 0
1, 44538, Note_off_c, 4, 65, 0
1, 44538, Note_off_c, 5, 53, 0
1, 44538, Note_off_c, 6, 41, 0
1, 44538, Note_off_c, 8, 53, 0
1, 44541, Note_off_c, 0, 72, 0
1, 44541, Note_off_c, 1, 72, 0
1, 44541, Note_off_c, 2, 69, 0
1, 44541, Note_off_c, 7, 72, 0
1, 44541, Note_off_c, 7, 69, 0
1, 44544, Note_on_c, 0, 74, 96
1, 44544, Note_on_c, 1, 74, 96
1, 44544, Note_on_c, 2, 70, 96
1, 44544, Note_on_c, 3, 65, 96
1, 44544, Note_on_c, 4, 62, 96
1, 44544, Note_on_c, 5, 46, 96
1, 44544, Note_on_c, 6, 34, 96
1, 44544, Note_on_c, 7, 74, 96
1, 44544, Note_on_c, 7, 70, 96
1, 44544, Note_on_c, 8, 46, 96
1, 44592, Note_off_c, 0, 74, 0
1, 44592, Note_off_c, 1, 74, 0
1, 44592, Note_off_c, 2, 70, 0
1, 44592, Note_off_c, 3, 65, 0
1, 44592, Note_off_c, 4, 62, 0
1, 44592, Note_off_c, 5, 46, 0
1, 44592, Note_off_c, 6, 34, 0
1, 44592, Note_off_c, 7, 74, 0
1, 44592, Note_off_c, 8, 46, 0
1, 44628, Note_off_c, 7, 70, 0
1, 44640, Note_on_c, 0, 84, 96
1, 44640, Note_on_c, 1, 84, 96
1, 44640, Note_on_c, 2, 78, 96
1, 44640, Note_on_c, 3, 69, 96
1, 44640, Note_on_c, 4, 63, 96
1, 44640, Note_on_c, 5, 45, 96
1, 44640, Note_on_c, 6, 33, 96
1, 44640, Note_on_c, 7, 84, 96
1, 44640, Note_on_c, 7, 82, 96
1, 44640, Note_on_c, 7, 77, 96
1, 44640, Note_on_c, 7, 72, 96
1, 44640, Note_on_c, 8, 45, 96
1, 44688, Note_off_c, 0, 84, 0
1, 44688, Note_off_c, 1, 84, 0
1, 44688, Note_off_c, 2, 78, 0
1, 44688, Note_off_c, 3, 69, 0
1, 44688, Note_off_c, 4, 63, 0
1, 44688, Note_off_c, 5, 45, 0
1, 44688, Note_off_c, 6, 33, 0
1, 44688, Note_off_c, 7, 84, 0
1, 44688, Note_off_c, 8, 45, 0
1, 44724, Note_off_c, 7, 82, 0
1, 44724, Note_off_c, 7, 77, 0
1, 44724, Note_off_c, 7, 72, 0
1, 44784, Note_on_c, 0, 81, 96
1, 44784, Note_on_c, 1, 81, 96
1, 44784, Note_on_c, 2, 78, 96
1, 44784, Note_on_c, 3, 69, 96
1, 44784, Note_on_c, 4, 62, 96
1, 44784, Note_on_c, 5, 50, 96
1, 44784, Note_on_c, 6, 38, 96
1, 44784, Note_on_c, 7, 81, 96
1, 44784, Note_on_c, 7, 78, 96
1, 44784, Note_on_c, 8, 50, 96
1, 44805, Note_off_c, 0, 81, 0
1, 44805, Note_off_c, 1, 81, 0
1, 44805, Note_off_c, 2, 78, 0
1, 44805, Note_off_c, 7, 81, 0
1, 44805, Note_off_c, 7, 78, 0
1, 44808, Note_on_c, 0, 82, 96
1, 44808, Note_on_c, 1, 82, 96
1, 44808, Note_on_c, 2, 79, 96
1, 44808, Note_on_c, 7, 82, 96
1, 44808, Note_on_c, 7, 79, 96
1, 44826, Note_off_c, 3, 69, 0
1, 44826, Note_off_c, 4, 62, 0
1, 44826, Note_off_c, 5, 50, 0
1, 44826, Note_off_c, 6, 38, 0
1, 44826, Note_off_c, 8, 50, 0
1, 44829, Note_off_c, 0, 82, 0
1, 44829, Note_off_c, 1, 82, 0
1, 44829, Note_off_c, 2, 79, 0
1, 44829, Note_off_c, 7, 82, 0
1, 44829, Note_off_c, 7, 79, 0
1, 44832, Note_on_c, 0, 84, 96
1, 44832, Note_on_c, 1, 84, 96
1, 44832, Note_on_c, 2, 81, 96
1, 44832, Note_on_c, 3, 69, 96
1, 44832, Note_on_c, 4, 63, 96
1, 44832, Note_on_c, 5, 48, 96
1, 44832, Note_on_c, 6, 36, 96
1, 44832, Note_on_c, 7, 84, 96
1, 44832, Note_on_c, 7, 81, 96
1, 44832, Note_on_c, 8, 48, 96
1, 44874, Note_off_c, 0, 84, 0
1, 44874, Note_off_c, 1, 84, 0
1, 44874, Note_off_c, 2, 81, 0
1, 44874, Note_off_c, 3, 69, 0
1, 44874, Note_off_c, 4, 63, 0
1, 44874, Note_off_c, 5, 48, 0
1, 44874, Note_off_c, 6, 36, 0
1, 44874, Note_off_c, 7, 84, 0
1, 44874, Note_off_c, 7, 81, 0
1, 44874, Note_off_c, 8, 48, 0
1, 44880, Note_on_c, 0, 82, 96
1, 44880, Note_on_c, 1, 82, 96
1, 44880, Note_on_c, 2, 79, 96
1, 44880, Note_on_c, 3, 74, 96
1, 44880, Note_on_c, 4, 62, 96
1, 44880, Note_on_c, 5, 50, 96
1, 44880, Note_on_c, 6, 38, 96
1, 44880, Note_on_c, 7, 82, 96
1, 44880, Note_on_c, 7, 79, 96
1, 44880, Note_on_c, 8, 50, 96
1, 44901, Note_off_c, 0, 82, 0
1, 44901, Note_off_c, 1, 82, 0
1, 44901, Note_off_c, 2, 79, 0
1, 44901, Note_off_c, 7, 82, 0
1, 44901, Note_off_c, 7, 79, 0
1, 44904, Note_on_c, 0, 81, 96
1, 44904, Note_on_c, 1, 81, 96
1, 44904, Note_on_c, 2, 78, 96
1, 44904, Note_on_c, 7, 81, 96
1, 44904, Note_on_c, 7, 78, 96
1, 44922, Note_off_c, 3, 74, 0
1, 44922, Note_off_c, 4, 62, 0
1, 44922, Note_off_c, 5, 50, 0
1, 44922, Note_off_c, 6, 38, 0
1, 44922, Note_off_c, 8, 50, 0
1, 44925, Note_off_c, 0, 81, 0
1, 44925, Note_off_c, 1, 81, 0
1, 44925, Note_off_c, 2, 78, 0
1, 44925, Note_off_c, 7, 81, 0
1, 44925, Note_off_c, 7, 78, 0
1, 44928, Note_on_c, 0, 82, 96
1, 44928, Note_on_c, 1, 82, 96
1, 44928, Note_on_c, 2, 79, 96
1, 44928, Note_on_c, 3, 74, 96
1, 44928, Note_on_c, 4, 62, 96
1, 44928, Note_on_c, 5, 43, 96
1, 44928, Note_on_c, 6, 31, 96
1, 44928, Note_on_c, 7, 82, 96
1, 44928, Note_on_c, 7, 79, 96
1, 44928, Note_on_c, 8, 43, 96
1, 44970, Note_off_c, 0, 82, 0
1, 44970, Note_off_c, 1, 82, 0
1, 44970, Note_off_c, 2, 79, 0
1, 44970, Note_off_c, 3, 74, 0
1, 44970, Note_off_c, 4, 62, 0
1, 44970, Note_off_c, 5, 43, 0
1, 44970, Note_off_c, 6, 31, 0
1, 44970, Note_off_c, 7, 82, 0
1, 44970, Note_off_c, 7, 79, 0
1, 44970, Note_off_c, 8, 43, 0
1, 44976, Note_on_c, 0, 79, 96
1, 44976, Note_on_c, 1, 79, 96
1, 44976, Note_on_c, 2, 76, 96
1, 44976, Note_on_c, 3, 72, 96
1, 44976, Note_on_c, 4, 64, 96
1, 44976, Note_on_c, 5, 48, 96
1, 44976, Note_on_c, 6, 36, 96
1, 44976, Note_on_c, 7, 79, 96
1, 44976, Note_on_c, 7, 76, 96
1, 44976, Note_on_c, 8, 48, 96
1, 44997, Note_off_c, 0, 79, 0
1, 44997, Note_off_c, 1, 79, 0
1, 44997, Note_off_c, 2, 76, 0
1, 44997, Note_off_c, 7, 79, 0
1, 44997, Note_off_c, 7, 76, 0
1, 45000, Note_on_c, 0, 81, 96
1, 45000, Note_on_c, 1, 81, 96
1, 45000, Note_on_c, 2, 77, 96
1, 45000, Note_on_c, 7, 81, 96
1, 45000, Note_on_c, 7, 77, 96
1, 45018, Note_off_c, 3, 72, 0
1, 45018, Note_off_c, 4, 64, 0
1, 45018, Note_off_c, 5, 48, 0
1, 45018, Note_off_c, 6, 36, 0
1, 45018, Note_off_c, 8, 48, 0
1, 45021, Note_off_c, 0, 81, 0
1, 45021, Note_off_c, 1, 81, 0
1, 45021, Note_off_c, 2, 77, 0
1, 45021, Note_off_c, 7, 81, 0
1, 45021, Note_off_c, 7, 77, 0
1, 45024, Note_on_c, 0, 82, 96
1, 45024, Note_on_c, 1, 82, 96
1, 45024, Note_on_c, 2, 79, 96
1, 45024, Note_on_c, 3, 74, 96
1, 45024, Note_on_c, 4, 62, 96
1, 45024, Note_on_c, 5, 46, 96
1, 45024, Note_on_c, 6, 34, 96
1, 45024, Note_on_c, 7, 82, 96
1, 45024, Note_on_c, 7, 79, 96
1, 45024, Note_on_c, 8, 46, 96
1, 45066, Note_off_c, 0, 82, 0
1, 45066, Note_off_c, 1, 82, 0
1, 45066, Note_off_c, 2, 79, 0
1, 45066, Note_off_c, 3, 74, 0
1, 45066, Note_off_c, 4, 62, 0
1, 45066, Note_off_c, 5, 46, 0
1, 45066, Note_off_c, 6, 34, 0
1, 45066, Note_off_c, 7, 82, 0
1, 45066, Note_off_c, 7, 79, 0
1, 45066, Note_off_c, 8, 46, 0
1, 45072, Note_on_c, 0, 81, 96
1, 45072, Note_on_c, 1, 81, 96
1, 45072, Note_on_c, 2, 77, 96
1, 45072, Note_on_c, 3, 72, 96
1, 45072, Note_on_c, 4, 64, 96
1, 45072, Note_on_c, 5, 48, 96
1, 45072, Note_on_c, 6, 36, 96
1, 45072, Note_on_c, 7, 81, 96
1, 45072, Note_on_c, 7, 77, 96
1, 45072, Note_on_c, 8, 48, 96
1, 45093, Note_off_c, 0, 81, 0
1, 45093, Note_off_c, 1, 81, 0
1, 45093, Note_off_c, 2, 77, 0
1, 45093, Note_off_c, 7, 81, 0
1, 45093, Note_off_c, 7, 77, 0
1, 45096, Note_on_c, 0, 79, 96
1, 45096, Note_on_c, 1, 79, 96
1, 45096, Note_on_c, 2, 76, 96
1, 45096, Note_on_c, 7, 79, 96
1, 45096, Note_on_c, 7, 76, 96
1, 45114, Note_off_c, 3, 72, 0
1, 45114, Note_off_c, 4, 64, 0
1, 45114, Note_off_c, 5, 48, 0
1, 45114, Note_off_c, 6, 36, 0
1, 45114, Note_off_c, 8, 48, 0
1, 45117, Note_off_c, 0, 79, 0
1, 45117, Note_off_c, 1, 79, 0
1, 45117, Note_off_c, 2, 76, 0
1, 45117, Note_off_c, 7, 79, 0
1, 45117, Note_off_c, 7, 76, 0
1, 45120, Note_on_c, 0, 81, 96
1, 45120, Note_on_c, 1, 81, 96
1, 45120, Note_on_c, 2, 77, 96
1, 45120, Note_on_c, 3, 72, 96
1, 45120, Note_on_c, 4, 60, 96
1, 45120, Note_on_c, 5, 41, 96
1, 45120, Note_on_c, 6, 29, 96
1, 45120, Note_on_c, 7, 81, 96
1, 45120, Note_on_c, 7, 77, 96
1, 45120, Note_on_c, 8, 41, 96
1, 45141, Note_off_c, 2, 77, 0
1, 45144, Note_on_c, 2, 75, 96
1, 45162, Note_off_c, 0, 81, 0
1, 45162, Note_off_c, 1, 81, 0
1, 45162, Note_off_c, 3, 72, 0
1, 45162, Note_off_c, 4, 60, 0
1, 45162, Note_off_c, 5, 41, 0
1, 45162, Note_off_c, 6, 29, 0
1, 45162, Note_off_c, 7, 81, 0
1, 45162, Note_off_c, 7, 77, 0
1, 45162, Note_off_c, 8, 41, 0
1, 45165, Note_off_c, 2, 75, 0
1, 45168, Note_on_c, 0, 82, 96
1, 45168, Note_on_c, 1, 82, 96
1, 45168, Note_on_c, 2, 74, 96
1, 45168, Note_on_c, 3, 65, 96
1, 45168, Note_on_c, 4, 62, 96
1, 45168, Note_on_c, 5, 46, 96
1, 45168, Note_on_c, 6, 34, 96
1, 45168, Note_on_c, 7, 82, 96
1, 45168, Note_on_c, 7, 74, 96
1, 45168, Note_on_c, 8, 46, 96
1, 45189, Note_off_c, 0, 82, 0
1, 45189, Note_off_c, 1, 82, 0
1, 45189, Note_off_c, 2, 74, 0
1, 45189, Note_off_c, 4, 62, 0
1, 45189, Note_off_c, 5, 46, 0
1, 45189, Note_off_c, 6, 34, 0
1, 45189, Note_off_c, 7, 82, 0
1, 45189, Note_off_c, 7, 74, 0
1, 45189, Note_off_c, 8, 46, 0
1, 45192, Note_on_c, 0, 81, 96
1, 45192, Note_on_c, 1, 81, 96
1, 45192, Note_on_c, 2, 72, 96
1, 45192, Note_on_c, 4, 64, 96
1, 45192, Note_on_c, 5, 48, 96
1, 45192, Note_on_c, 6, 36, 96
1, 45192, Note_on_c, 7, 81, 96
1, 45192, Note_on_c, 7, 72, 96
1, 45192, Note_on_c, 8, 48, 96
1, 45210, Note_off_c, 3, 65, 0
1, 45213, Note_off_c, 0, 81, 0
1, 45213, Note_off_c, 1, 81, 0
1, 45213, Note_off_c, 2, 72, 0
1, 45213, Note_off_c, 4, 64, 0
1, 45213, Note_off_c, 5, 48, 0
1, 45213, Note_off_c, 6, 36, 0
1, 45213, Note_off_c, 7, 81, 0
1, 45213, Note_off_c, 7, 72, 0
1, 45213, Note_off_c, 8, 48, 0
1, 45216, Note_on_c, 0, 79, 96
1, 45216, Note_on_c, 1, 79, 96
1, 45216, Note_on_c, 2, 70, 96
1, 45216, Note_on_c, 3, 70, 96
1, 45216, Note_on_c, 4, 65, 96
1, 45216, Note_on_c, 5, 50, 96
1, 45216, Note_on_c, 6, 38, 96
1, 45216, Note_on_c, 7, 79, 96
1, 45216, Note_on_c, 7, 70, 96
1, 45216, Note_on_c, 8, 50, 96
1, 45237, Note_off_c, 0, 79, 0
1, 45237, Note_off_c, 1, 79, 0
1, 45237, Note_off_c, 2, 70, 0
1, 45237, Note_off_c, 3, 70, 0
1, 45237, Note_off_c, 7, 79, 0
1, 45240, Note_on_c, 0, 81, 96
1, 45240, Note_on_c, 1, 81, 96
1, 45240, Note_on_c, 2, 72, 96
1, 45240, Note_on_c, 3, 69, 96
1, 45240, Note_on_c, 7, 81, 96
1, 45258, Note_off_c, 4, 65, 0
1, 45258, Note_off_c, 5, 50, 0
1, 45258, Note_off_c, 6, 38, 0
1, 45258, Note_off_c, 8, 50, 0
1, 45261, Note_off_c, 0, 81, 0
1, 45261, Note_off_c, 1, 81, 0
1, 45261, Note_off_c, 2, 72, 0
1, 45261, Note_off_c, 3, 69, 0
1, 45261, Note_off_c, 7, 81, 0
1, 45264, Note_on_c, 0, 79, 96
1, 45264, Note_on_c, 1, 79, 96
1, 45264, Note_on_c, 2, 74, 96
1, 45264, Note_on_c, 3, 70, 96
1, 45264, Note_on_c, 4, 62, 96
1, 45264, Note_on_c, 5, 46, 96
1, 45264, Note_on_c, 6, 34, 96
1, 45264, Note_on_c, 7, 79, 96
1, 45264, Note_on_c, 8, 46, 96
1, 45285, Note_off_c, 0, 79, 0
1, 45285, Note_off_c, 1, 79, 0
1, 45285, Note_off_c, 2, 74, 0
1, 45285, Note_off_c, 7, 79, 0
1, 45288, Note_on_c, 0, 77, 96
1, 45288, Note_on_c, 1, 77, 96
1, 45288, Note_on_c, 2, 70, 96
1, 45288, Note_on_c, 7, 77, 96
1, 45306, Note_off_c, 4, 62, 0
1, 45306, Note_off_c, 5, 46, 0
1, 45306, Note_off_c, 6, 34, 0
1, 45306, Note_off_c, 8, 46, 0
1, 45309, Note_off_c, 0, 77, 0
1, 45309, Note_off_c, 1, 77, 0
1, 45309, Note_off_c, 2, 70, 0
1, 45309, Note_off_c, 7, 77, 0
1, 45312, Note_on_c, 0, 76, 96
1, 45312, Note_on_c, 1, 76, 96
1, 45312, Note_on_c, 2, 67, 96
1, 45312, Note_on_c, 4, 67, 96
1, 45312, Note_on_c, 5, 48, 96
1, 45312, Note_on_c, 6, 36, 96
1, 45312, Note_on_c, 7, 76, 96
1, 45312, Note_on_c, 8, 48, 96
1, 45312, Note_on_c, 8, 55, 96
1, 45327, Note_off_c, 3, 70, 0
1, 45333, Note_off_c, 0, 76, 0
1, 45333, Note_off_c, 1, 76, 0
1, 45333, Note_off_c, 7, 76, 0
1, 45336, Note_on_c, 0, 77, 96
1, 45336, Note_on_c, 1, 77, 96
1, 45336, Note_on_c, 3, 69, 96
1, 45336, Note_on_c, 7, 77, 96
1, 45354, Note_off_c, 2, 67, 0
1, 45354, Note_off_c, 4, 67, 0
1, 45357, Note_off_c, 0, 77, 0
1, 45357, Note_off_c, 1, 77, 0
1, 45357, Note_off_c, 3, 69, 0
1, 45357, Note_off_c, 7, 77, 0
1, 45360, Note_on_c, 0, 79, 96
1, 45360, Note_on_c, 1, 79, 96
1, 45360, Note_on_c, 2, 72, 96
1, 45360, Note_on_c, 3, 70, 96
1, 45360, Note_on_c, 4, 64, 96
1, 45360, Note_on_c, 7, 79, 96
1, 45381, Note_off_c, 0, 79, 0
1, 45381, Note_off_c, 1, 79, 0
1, 45381, Note_off_c, 3, 70, 0
1, 45381, Note_off_c, 7, 79, 0
1, 45384, Note_on_c, 0, 76, 96
1, 45384, Note_on_c, 1, 76, 96
1, 45384, Note_on_c, 3, 67, 96
1, 45384, Note_on_c, 7, 76, 96
1, 45384, Note_off_c, 7, 70, 0
1, 45396, Note_off_c, 5, 48, 0
1, 45396, Note_off_c, 6, 36, 0
1, 45396, Note_off_c, 8, 48, 0
1, 45396, Note_off_c, 8, 55, 0
1, 45402, Note_off_c, 4, 64, 0
1, 45405, Note_off_c, 0, 76, 0
1, 45405, Note_off_c, 1, 76, 0
1, 45405, Note_off_c, 3, 67, 0
1, 45405, Note_off_c, 7, 76, 0
1, 45408, Note_on_c, 0, 72, 96
1, 45408, Note_on_c, 1, 72, 96
1, 45408, Note_on_c, 3, 69, 96
1, 45408, Note_on_c, 4, 65, 96
1, 45408, Note_on_c, 5, 53, 96
1, 45408, Note_on_c, 6, 41, 96
1, 45408, Note_on_c, 7, 72, 96
1, 45408, Note_on_c, 7, 69, 96
1, 45408, Note_on_c, 8, 53, 96
1, 45408, Note_on_c, 8, 57, 96
1, 45423, Note_off_c, 2, 72, 0
1, 45429, Note_off_c, 3, 69, 0
1, 45429, Note_off_c, 7, 72, 0
1, 45432, Note_on_c, 2, 70, 96
1, 45432, Note_on_c, 3, 77, 96
1, 45432, Note_on_c, 7, 70, 96
1, 45450, Note_off_c, 4, 65, 0
1, 45450, Note_off_c, 7, 69, 0
1, 45453, Note_off_c, 2, 70, 0
1, 45453, Note_off_c, 3, 77, 0
1, 45453, Note_off_c, 7, 70, 0
1, 45456, Note_on_c, 2, 72, 96
1, 45456, Note_on_c, 3, 76, 96
1, 45456, Note_on_c, 4, 69, 96
1, 45456, Note_on_c, 7, 72, 96
1, 45477, Note_off_c, 2, 72, 0
1, 45477, Note_off_c, 3, 76, 0
1, 45477, Note_off_c, 7, 72, 0
1, 45480, Note_on_c, 2, 69, 96
1, 45480, Note_on_c, 3, 77, 96
1, 45480, Note_on_c, 7, 69, 96
1, 45492, Note_off_c, 0, 72, 0
1, 45492, Note_off_c, 1, 72, 0
1, 45492, Note_off_c, 8, 57, 0
1, 45498, Note_off_c, 4, 69, 0
1, 45501, Note_off_c, 2, 69, 0
1, 45501, Note_off_c, 3, 77, 0
1, 45501, Note_off_c, 7, 69, 0
1, 45504, Note_on_c, 2, 70, 96
1, 45504, Note_on_c, 3, 67, 96
1, 45504, Note_on_c, 4, 62, 96
1, 45504, Note_on_c, 7, 70, 96
1, 45504, Note_on_c, 8, 55, 96
1, 45525, Note_off_c, 2, 70, 0
1, 45525, Note_off_c, 7, 70, 0
1, 45528, Note_on_c, 2, 69, 96
1, 45528, Note_on_c, 7, 69, 96
1, 45534, Note_off_c, 5, 53, 0
1, 45534, Note_off_c, 6, 41, 0
1, 45534, Note_off_c, 8, 53, 0
1, 45546, Note_off_c, 4, 62, 0
1, 45549, Note_off_c, 2, 69, 0
1, 45549, Note_off_c, 7, 69, 0
1, 45552, Note_on_c, 2, 67, 96
1, 45552, Note_on_c, 4, 67, 96
1, 45552, Note_on_c, 5, 52, 96
1, 45552, Note_on_c, 6, 40, 96
1, 45552, Note_on_c, 7, 67, 96
1, 45552, Note_on_c, 8, 52, 96
1, 45573, Note_off_c, 2, 67, 0
1, 45573, Note_off_c, 5, 52, 0
1, 45573, Note_off_c, 6, 40, 0
1, 45573, Note_off_c, 7, 67, 0
1, 45573, Note_off_c, 8, 52, 0
1, 45576, Note_on_c, 2, 69, 96
1, 45576, Note_on_c, 5, 53, 96
1, 45576, Note_on_c, 6, 41, 96
1, 45576, Note_on_c, 7, 69, 96
1, 45576, Note_on_c, 8, 53, 96
1, 45588, Note_off_c, 3, 67, 0
1, 45588, Note_off_c, 8, 55, 0
1, 45594, Note_off_c, 4, 67, 0
1, 45597, Note_off_c, 2, 69, 0
1, 45597, Note_off_c, 5, 53, 0
1, 45597, Note_off_c, 6, 41, 0
1, 45597, Note_off_c, 7, 69, 0
1, 45597, Note_off_c, 8, 53, 0
1, 45600, Note_on_c, 2, 70, 96
1, 45600, Note_on_c, 3, 79, 96
1, 45600, Note_on_c, 4, 64, 96
1, 45600, Note_on_c, 5, 55, 96
1, 45600, Note_on_c, 6, 43, 96
1, 45600, Note_on_c, 7, 70, 96
1, 45600, Note_on_c, 8, 55, 96
1, 45621, Note_off_c, 2, 70, 0
1, 45621, Note_off_c, 7, 70, 0
1, 45624, Note_on_c, 2, 69, 96
1, 45624, Note_on_c, 7, 69, 96
1, 45642, Note_off_c, 4, 64, 0
1, 45642, Note_off_c, 5, 55, 0
1, 45642, Note_off_c, 6, 43, 0
1, 45642, Note_off_c, 8, 55, 0
1, 45645, Note_off_c, 2, 69, 0
1, 45645, Note_off_c, 7, 69, 0
1, 45648, Note_on_c, 2, 70, 96
1, 45648, Note_on_c, 4, 67, 96
1, 45648, Note_on_c, 5, 53, 96
1, 45648, Note_on_c, 6, 41, 96
1, 45648, Note_on_c, 7, 70, 96
1, 45648, Note_on_c, 8, 53, 96
1, 45669, Note_off_c, 2, 70, 0
1, 45669, Note_off_c, 5, 53, 0
1, 45669, Note_off_c, 6, 41, 0
1, 45669, Note_off_c, 7, 70, 0
1, 45669, Note_off_c, 8, 53, 0
1, 45672, Note_on_c, 2, 67, 96
1, 45672, Note_on_c, 5, 52, 96
1, 45672, Note_on_c, 6, 40, 96
1, 45672, Note_on_c, 7, 67, 96
1, 45672, Note_on_c, 8, 52, 96
1, 45690, Note_off_c, 4, 67, 0
1, 45693, Note_off_c, 2, 67, 0
1, 45693, Note_off_c, 5, 52, 0
1, 45693, Note_off_c, 6, 40, 0
1, 45693, Note_off_c, 7, 67, 0
1, 45693, Note_off_c, 8, 52, 0
1, 45696, Note_on_c, 0, 72, 96
1, 45696, Note_on_c, 1, 72, 96
1, 45696, Note_on_c, 2, 69, 96
1, 45696, Note_on_c, 4, 60, 96
1, 45696, Note_on_c, 5, 53, 96
1, 45696, Note_on_c, 6, 41, 96
1, 45696, Note_on_c, 7, 72, 96
1, 45696, Note_on_c, 7, 69, 96
1, 45696, Note_on_c, 7, 65, 96
1, 45696, Note_on_c, 8, 53, 96
1, 45705, Note_off_c, 3, 79, 0
1, 45720, Note_on_c, 3, 77, 96
1, 45738, Note_off_c, 4, 60, 0
1, 45738, Note_off_c, 5, 53, 0
1, 45738, Note_off_c, 6, 41, 0
1, 45738, Note_off_c, 8, 53, 0
1, 45741, Note_off_c, 3, 77, 0
1, 45744, Note_on_c, 3, 79, 96
1, 45744, Note_on_c, 4, 57, 96
1, 45744, Note_on_c, 5, 48, 96
1, 45744, Note_on_c, 6, 36, 96
1, 45744, Note_on_c, 8, 48, 96
1, 45765, Note_off_c, 3, 79, 0
1, 45768, Note_on_c, 3, 76, 96
1, 45780, Note_off_c, 0, 72, 0
1, 45780, Note_off_c, 1, 72, 0
1, 45780, Note_off_c, 2, 69, 0
1, 45780, Note_off_c, 7, 72, 0
1, 45780, Note_off_c, 7, 69, 0
1, 45780, Note_off_c, 7, 65, 0
1, 45786, Note_off_c, 4, 57, 0
1, 45786, Note_off_c, 5, 48, 0
1, 45786, Note_off_c, 6, 36, 0
1, 45786, Note_off_c, 8, 48, 0
1, 45789, Note_off_c, 3, 76, 0
1, 45792, Note_on_c, 0, 77, 96
1, 45792, Note_on_c, 1, 77, 96
1, 45792, Note_on_c, 3, 77, 96
1, 45792, Note_on_c, 4, 62, 96
1, 45792, Note_on_c, 5, 50, 96
1, 45792, Note_on_c, 6, 38, 96
1, 45792, Note_on_c, 7, 77, 96
1, 45792, Note_on_c, 8, 50, 96
1, 45813, Note_off_c, 3, 77, 0
1, 45816, Note_on_c, 3, 76, 96
1, 45834, Note_off_c, 4, 62, 0
1, 45834, Note_off_c, 5, 50, 0
1, 45834, Note_off_c, 6, 38, 0
1, 45834, Note_off_c, 8, 50, 0
1, 45837, Note_off_c, 3, 76, 0
1, 45840, Note_on_c, 2, 77, 96
1, 45840, Note_on_c, 3, 77, 96
1, 45840, Note_on_c, 4, 60, 96
1, 45840, Note_on_c, 5, 45, 96
1, 45840, Note_on_c, 6, 33, 96
1, 45840, Note_on_c, 7, 72, 96
1, 45840, Note_on_c, 7, 69, 96
1, 45840, Note_on_c, 8, 45, 96
1, 45861, Note_off_c, 3, 77, 0
1, 45864, Note_on_c, 3, 72, 96
1, 45882, Note_off_c, 2, 77, 0
1, 45882, Note_off_c, 4, 60, 0
1, 45882, Note_off_c, 5, 45, 0
1, 45882, Note_off_c, 6, 33, 0
1, 45882, Note_off_c, 7, 72, 0
1, 45882, Note_off_c, 7, 69, 0
1, 45882, Note_off_c, 8, 45, 0
1, 45885, Note_off_c, 3, 72, 0
1, 45888, Note_on_c, 2, 79, 96
1, 45888, Note_on_c, 3, 74, 96
1, 45888, Note_on_c, 4, 58, 96
1, 45888, Note_on_c, 5, 46, 96
1, 45888, Note_on_c, 6, 34, 96
1, 45888, Note_on_c, 7, 74, 96
1, 45888, Note_on_c, 8, 46, 96
1, 45888, Note_on_c, 8, 67, 96
1, 45909, Note_off_c, 2, 79, 0
1, 45909, Note_off_c, 3, 74, 0
1, 45912, Note_on_c, 2, 81, 96
1, 45912, Note_on_c, 3, 72, 96
1, 45918, Note_off_c, 0, 77, 0
1, 45918, Note_off_c, 1, 77, 0
1, 45918, Note_off_c, 7, 77, 0
1, 45930, Note_off_c, 5, 46, 0
1, 45930, Note_off_c, 6, 34, 0
1, 45930, Note_off_c, 7, 74, 0
1, 45930, Note_off_c, 8, 46, 0
1, 45933, Note_off_c, 2, 81, 0
1, 45933, Note_off_c, 3, 72, 0
1, 45936, Note_on_c, 0, 76, 96
1, 45936, Note_on_c, 1, 76, 96
1, 45936, Note_on_c, 2, 79, 96
1, 45936, Note_on_c, 3, 70, 96
1, 45936, Note_on_c, 5, 43, 96
1, 45936, Note_on_c, 6, 31, 96
1, 45936, Note_on_c, 7, 76, 96
1, 45936, Note_on_c, 8, 43, 96
1, 45957, Note_off_c, 0, 76, 0
1, 45957, Note_off_c, 1, 76, 0
1, 45957, Note_off_c, 2, 79, 0
1, 45957, Note_off_c, 3, 70, 0
1, 45957, Note_off_c, 7, 76, 0
1, 45960, Note_on_c, 0, 77, 96
1, 45960, Note_on_c, 1, 77, 96
1, 45960, Note_on_c, 2, 81, 96
1, 45960, Note_on_c, 3, 69, 96
1, 45960, Note_on_c, 7, 77, 96
1, 45978, Note_off_c, 5, 43, 0
1, 45978, Note_off_c, 6, 31, 0
1, 45978, Note_off_c, 8, 43, 0
1, 45981, Note_off_c, 0, 77, 0
1, 45981, Note_off_c, 1, 77, 0
1, 45981, Note_off_c, 2, 81, 0
1, 45981, Note_off_c, 3, 69, 0
1, 45981, Note_off_c, 7, 77, 0
1, 45984, Note_on_c, 0, 79, 96
1, 45984, Note_on_c, 1, 79, 96
1, 45984, Note_on_c, 2, 82, 96
1, 45984, Note_on_c, 3, 67, 96
1, 45984, Note_on_c, 5, 48, 96
1, 45984, Note_on_c, 6, 36, 96
1, 45984, Note_on_c, 7, 79, 96
1, 45984, Note_on_c, 8, 48, 96
1, 45993, Note_off_c, 4, 58, 0
1, 46005, Note_off_c, 2, 82, 0
1, 46008, Note_on_c, 2, 81, 96
1, 46008, Note_on_c, 4, 64, 96
1, 46026, Note_off_c, 0, 79, 0
1, 46026, Note_off_c, 1, 79, 0
1, 46026, Note_off_c, 3, 67, 0
1, 46026, Note_off_c, 5, 48, 0
1, 46026, Note_off_c, 6, 36, 0
1, 46026, Note_off_c, 7, 79, 0
1, 46026, Note_off_c, 8, 48, 0
1, 46029, Note_off_c, 2, 81, 0
1, 46029, Note_off_c, 4, 64, 0
1, 46032, Note_on_c, 0, 77, 96
1, 46032, Note_on_c, 1, 77, 96
1, 46032, Note_on_c, 2, 82, 96
1, 46032, Note_on_c, 3, 70, 96
1, 46032, Note_on_c, 4, 65, 96
1, 46032, Note_on_c, 5, 43, 96
1, 46032, Note_on_c, 6, 31, 96
1, 46032, Note_on_c, 7, 77, 96
1, 46032, Note_on_c, 8, 43, 96
1, 46053, Note_off_c, 0, 77, 0
1, 46053, Note_off_c, 1, 77, 0
1, 46053, Note_off_c, 2, 82, 0
1, 46053, Note_off_c, 4, 65, 0
1, 46053, Note_off_c, 7, 77, 0
1, 46056, Note_on_c, 0, 76, 96
1, 46056, Note_on_c, 1, 76, 96
1, 46056, Note_on_c, 2, 79, 96
1, 46056, Note_on_c, 4, 67, 96
1, 46056, Note_on_c, 7, 76, 96
1, 46056, Note_off_c, 8, 67, 0
1, 46074, Note_off_c, 3, 70, 0
1, 46074, Note_off_c, 5, 43, 0
1, 46074, Note_off_c, 6, 31, 0
1, 46074, Note_off_c, 8, 43, 0
1, 46077, Note_off_c, 0, 76, 0
1, 46077, Note_off_c, 1, 76, 0
1, 46077, Note_off_c, 2, 79, 0
1, 46077, Note_off_c, 4, 67, 0
1, 46077, Note_off_c, 7, 76, 0
1, 46080, Note_on_c, 0, 77, 96
1, 46080, Note_on_c, 1, 77, 96
1, 46080, Note_on_c, 2, 84, 96
1, 46080, Note_on_c, 3, 69, 96
1, 46080, Note_on_c, 4, 60, 96
1, 46080, Note_on_c, 5, 45, 96
1, 46080, Note_on_c, 6, 33, 96
1, 46080, Note_on_c, 7, 77, 96
1, 46080, Note_on_c, 7, 72, 96
1, 46080, Note_on_c, 8, 45, 96
1, 46101, Note_off_c, 3, 69, 0
1, 46104, Note_on_c, 3, 70, 96
1, 46122, Note_off_c, 0, 77, 0
1, 46122, Note_off_c, 1, 77, 0
1, 46122, Note_off_c, 2, 84, 0
1, 46122, Note_off_c, 4, 60, 0
1, 46122, Note_off_c, 5, 45, 0
1, 46122, Note_off_c, 6, 33, 0
1, 46122, Note_off_c, 7, 77, 0
1, 46122, Note_off_c, 7, 72, 0
1, 46122, Note_off_c, 8, 45, 0
1, 46125, Note_off_c, 3, 70, 0
1, 46128, Note_on_c, 0, 72, 96
1, 46128, Note_on_c, 1, 72, 96
1, 46128, Note_on_c, 2, 76, 96
1, 46128, Note_on_c, 3, 72, 96
1, 46128, Note_on_c, 4, 69, 96
1, 46128, Note_on_c, 5, 57, 96
1, 46128, Note_on_c, 6, 45, 96
1, 46128, Note_on_c, 7, 72, 96
1, 46128, Note_on_c, 7, 64, 96
1, 46128, Note_on_c, 8, 57, 96
1, 46149, Note_off_c, 3, 72, 0
1, 46152, Note_on_c, 3, 70, 96
1, 46170, Note_off_c, 0, 72, 0
1, 46170, Note_off_c, 1, 72, 0
1, 46170, Note_off_c, 2, 76, 0
1, 46170, Note_off_c, 4, 69, 0
1, 46170, Note_off_c, 5, 57, 0
1, 46170, Note_off_c, 6, 45, 0
1, 46170, Note_off_c, 7, 72, 0
1, 46170, Note_off_c, 7, 64, 0
1, 46170, Note_off_c, 8, 57, 0
1, 46173, Note_off_c, 3, 70, 0
1, 46176, Note_on_c, 0, 74, 96
1, 46176, Note_on_c, 1, 74, 96
1, 46176, Note_on_c, 2, 77, 96
1, 46176, Note_on_c, 3, 69, 96
1, 46176, Note_on_c, 4, 62, 96
1, 46176, Note_on_c, 5, 53, 96
1, 46176, Note_on_c, 6, 41, 96
1, 46176, Note_on_c, 7, 74, 96
1, 46176, Note_on_c, 7, 65, 96
1, 46176, Note_on_c, 8, 53, 96
1, 46197, Note_off_c, 3, 69, 0
1, 46200, Note_on_c, 3, 67, 96
1, 46218, Note_off_c, 0, 74, 0
1, 46218, Note_off_c, 1, 74, 0
1, 46218, Note_off_c, 4, 62, 0
1, 46218, Note_off_c, 5, 53, 0
1, 46218, Note_off_c, 6, 41, 0
1, 46218, Note_off_c, 7, 74, 0
1, 46218, Note_off_c, 8, 53, 0
1, 46221, Note_off_c, 3, 67, 0
1, 46224, Note_on_c, 0, 69, 96
1, 46224, Note_on_c, 1, 69, 96
1, 46224, Note_on_c, 3, 65, 96
1, 46224, Note_on_c, 4, 65, 96
1, 46224, Note_on_c, 5, 50, 96
1, 46224, Note_on_c, 6, 38, 96
1, 46224, Note_on_c, 7, 69, 96
1, 46224, Note_on_c, 8, 50, 96
1, 46245, Note_off_c, 3, 65, 0
1, 46248, Note_on_c, 3, 64, 96
1, 46266, Note_off_c, 0, 69, 0
1, 46266, Note_off_c, 1, 69, 0
1, 46266, Note_off_c, 4, 65, 0
1, 46266, Note_off_c, 5, 50, 0
1, 46266, Note_off_c, 6, 38, 0
1, 46266, Note_off_c, 7, 69, 0
1, 46266, Note_off_c, 8, 50, 0
1, 46269, Note_off_c, 3, 64, 0
1, 46272, Note_on_c, 0, 70, 96
1, 46272, Note_on_c, 1, 70, 96
1, 46272, Note_on_c, 3, 62, 96
1, 46272, Note_on_c, 4, 67, 96
1, 46272, Note_on_c, 5, 43, 96
1, 46272, Note_on_c, 6, 31, 96
1, 46272, Note_on_c, 7, 70, 96
1, 46272, Note_on_c, 8, 43, 96
1, 46281, Note_off_c, 2, 77, 0
1, 46293, Note_off_c, 3, 62, 0
1, 46296, Note_on_c, 2, 79, 96
1, 46296, Note_on_c, 3, 72, 96
1, 46302, Note_off_c, 7, 65, 0
1, 46314, Note_off_c, 0, 70, 0
1, 46314, Note_off_c, 1, 70, 0
1, 46314, Note_off_c, 4, 67, 0
1, 46314, Note_off_c, 5, 43, 0
1, 46314, Note_off_c, 6, 31, 0
1, 46314, Note_off_c, 7, 70, 0
1, 46314, Note_off_c, 8, 43, 0
1, 46317, Note_off_c, 2, 79, 0
1, 46317, Note_off_c, 3, 72, 0
1, 46320, Note_on_c, 0, 67, 96
1, 46320, Note_on_c, 1, 67, 96
1, 46320, Note_on_c, 2, 76, 96
1, 46320, Note_on_c, 3, 70, 96
1, 46320, Note_on_c, 4, 62, 96
1, 46320, Note_on_c, 5, 55, 96
1, 46320, Note_on_c, 6, 43, 96
1, 46320, Note_on_c, 7, 67, 96
1, 46320, Note_on_c, 7, 58, 96
1, 46320, Note_on_c, 8, 55, 96
1, 46341, Note_off_c, 2, 76, 0
1, 46341, Note_off_c, 3, 70, 0
1, 46344, Note_on_c, 2, 77, 96
1, 46344, Note_on_c, 3, 69, 96
1, 46362, Note_off_c, 0, 67, 0
1, 46362, Note_off_c, 1, 67, 0
1, 46362, Note_off_c, 4, 62, 0
1, 46362, Note_off_c, 5, 55, 0
1, 46362, Note_off_c, 6, 43, 0
1, 46362, Note_off_c, 7, 67, 0
1, 46362, Note_off_c, 7, 58, 0
1, 46362, Note_off_c, 8, 55, 0
1, 46365, Note_off_c, 2, 77, 0
1, 46365, Note_off_c, 3, 69, 0
1, 46368, Note_on_c, 0, 72, 96
1, 46368, Note_on_c, 1, 72, 96
1, 46368, Note_on_c, 2, 79, 96
1, 46368, Note_on_c, 3, 67, 96
1, 46368, Note_on_c, 4, 64, 96
1, 46368, Note_on_c, 5, 52, 96
1, 46368, Note_on_c, 6, 40, 96
1, 46368, Note_on_c, 7, 72, 96
1, 46368, Note_on_c, 7, 55, 96
1, 46368, Note_on_c, 8, 52, 96
1, 46389, Note_off_c, 2, 79, 0
1, 46389, Note_off_c, 3, 67, 0
1, 46392, Note_on_c, 2, 77, 96
1, 46392, Note_on_c, 3, 69, 96
1, 46410, Note_off_c, 0, 72, 0
1, 46410, Note_off_c, 1, 72, 0
1, 46410, Note_off_c, 4, 64, 0
1, 46410, Note_off_c, 5, 52, 0
1, 46410, Note_off_c, 6, 40, 0
1, 46410, Note_off_c, 7, 72, 0
1, 46410, Note_off_c, 7, 55, 0
1, 46410, Note_off_c, 8, 52, 0
1, 46413, Note_off_c, 2, 77, 0
1, 46413, Note_off_c, 3, 69, 0
1, 46416, Note_on_c, 0, 67, 96
1, 46416, Note_on_c, 1, 67, 96
1, 46416, Note_on_c, 2, 79, 96
1, 46416, Note_on_c, 3, 70, 96
1, 46416, Note_on_c, 4, 67, 96
1, 46416, Note_on_c, 5, 48, 96
1, 46416, Note_on_c, 6, 36, 96
1, 46416, Note_on_c, 7, 67, 96
1, 46416, Note_on_c, 7, 64, 96
1, 46416, Note_on_c, 8, 48, 96
1, 46437, Note_off_c, 2, 79, 0
1, 46437, Note_off_c, 3, 70, 0
1, 46440, Note_on_c, 2, 76, 96
1, 46440, Note_on_c, 3, 72, 96
1, 46458, Note_off_c, 0, 67, 0
1, 46458, Note_off_c, 1, 67, 0
1, 46458, Note_off_c, 4, 67, 0
1, 46458, Note_off_c, 5, 48, 0
1, 46458, Note_off_c, 6, 36, 0
1, 46458, Note_off_c, 7, 67, 0
1, 46458, Note_off_c, 7, 64, 0
1, 46458, Note_off_c, 8, 48, 0
1, 46461, Note_off_c, 2, 76, 0
1, 46461, Note_off_c, 3, 72, 0
1, 46464, Note_on_c, 0, 69, 96
1, 46464, Note_on_c, 1, 69, 96
1, 46464, Note_on_c, 2, 77, 96
1, 46464, Note_on_c, 3, 69, 96
1, 46464, Note_on_c, 4, 60, 96
1, 46464, Note_on_c, 5, 53, 96
1, 46464, Note_on_c, 6, 41, 96
1, 46464, Note_on_c, 7, 69, 96
1, 46464, Note_on_c, 7, 60, 96
1, 46464, Note_on_c, 8, 53, 96
1, 46506, Note_off_c, 5, 53, 0
1, 46506, Note_off_c, 6, 41, 0
1, 46506, Note_off_c, 7, 60, 0
1, 46506, Note_off_c, 8, 53, 0
1, 46512, Note_on_c, 5, 46, 96
1, 46512, Note_on_c, 6, 34, 96
1, 46512, Note_on_c, 7, 62, 96
1, 46512, Note_on_c, 8, 46, 96
1, 46527, Note_off_c, 0, 69, 0
1, 46527, Note_off_c, 1, 69, 0
1, 46527, Note_off_c, 2, 77, 0
1, 46527, Note_off_c, 3, 69, 0
1, 46527, Note_off_c, 4, 60, 0
1, 46527, Note_off_c, 7, 69, 0
1, 46536, Note_on_c, 0, 70, 96
1, 46536, Note_on_c, 1, 70, 96
1, 46536, Note_on_c, 2, 79, 96
1, 46536, Note_on_c, 3, 67, 96
1, 46536, Note_on_c, 4, 62, 96
1, 46536, Note_on_c, 7, 70, 96
1, 46554, Note_off_c, 5, 46, 0
1, 46554, Note_off_c, 6, 34, 0
1, 46554, Note_off_c, 7, 62, 0
1, 46554, Note_off_c, 8, 46, 0
1, 46557, Note_off_c, 0, 70, 0
1, 46557, Note_off_c, 1, 70, 0
1, 46557, Note_off_c, 2, 79, 0
1, 46557, Note_off_c, 3, 67, 0
1, 46557, Note_off_c, 4, 62, 0
1, 46557, Note_off_c, 7, 70, 0
1, 46560, Note_on_c, 0, 67, 96
1, 46560, Note_on_c, 1, 67, 96
1, 46560, Note_on_c, 2, 76, 96
1, 46560, Note_on_c, 3, 67, 96
1, 46560, Note_on_c, 4, 60, 96
1, 46560, Note_on_c, 5, 48, 96
1, 46560, Note_on_c, 6, 36, 96
1, 46560, Note_on_c, 7, 67, 96
1, 46560, Note_on_c, 7, 64, 96
1, 46560, Note_on_c, 8, 48, 96
1, 46602, Note_off_c, 5, 48, 0
1, 46602, Note_off_c, 6, 36, 0
1, 46602, Note_off_c, 8, 48, 0
1, 46608, Note_on_c, 5, 36, 96
1, 46608, Note_on_c, 6, 24, 96
1, 46608, Note_on_c, 8, 36, 96
1, 46623, Note_off_c, 0, 67, 0
1, 46623, Note_off_c, 1, 67, 0
1, 46623, Note_off_c, 2, 76, 0
1, 46623, Note_off_c, 3, 67, 0
1, 46623, Note_off_c, 4, 60, 0
1, 46623, Note_off_c, 7, 67, 0
1, 46632, Note_on_c, 0, 65, 96
1, 46632, Note_on_c, 1, 65, 96
1, 46632, Note_on_c, 2, 77, 96
1, 46632, Note_on_c, 3, 69, 96
1, 46632, Note_on_c, 4, 60, 96
1, 46632, Note_on_c, 7, 65, 96
1, 46644, Note_off_c, 7, 64, 0
1, 46650, Note_off_c, 5, 36, 0
1, 46650, Note_off_c, 6, 24, 0
1, 46650, Note_off_c, 8, 36, 0
1, 46653, Note_off_c, 0, 65, 0
1, 46653, Note_off_c, 1, 65, 0
1, 46653, Note_off_c, 2, 77, 0
1, 46653, Note_off_c, 3, 69, 0
1, 46653, Note_off_c, 4, 60, 0
1, 46653, Note_off_c, 7, 65, 0
1, 46656, Note_on_c, 0, 65, 96
1, 46656, Note_on_c, 1, 65, 96
1, 46656, Note_on_c, 2, 77, 96
1, 46656, Note_on_c, 3, 69, 96
1, 46656, Note_on_c, 4, 60, 96
1, 46656, Note_on_c, 5, 41, 96
1, 46656, Note_on_c, 6, 29, 96
1, 46656, Note_on_c, 7, 65, 96
1, 46656, Note_on_c, 7, 60, 96
1, 46656, Note_on_c, 7, 57, 96
1, 46656, Note_on_c, 8, 41, 96
1, 46848, Note_off_c, 0, 65, 0
1, 46848, Note_off_c, 1, 65, 0
1, 46848, Note_off_c, 2, 77, 0
1, 46848, Note_off_c, 3, 69, 0
1, 46848, Note_off_c, 4, 60, 0
1, 46848, Note_off_c, 5, 41, 0
1, 46848, Note_off_c, 6, 29, 0
1, 46848, Note_off_c, 7, 65, 0
1, 46848, Note_off_c, 7, 60, 0
1, 46848, Note_off_c, 7, 57, 0
1, 46848, Note_off_c, 8, 41, 0
1, 47424, End_track
0, 0, End_of_file
