0, 0, Header, 1, 4, 384
1, 0, Start_track
1, 0, Tempo, 571420
1, 0, Time_signature, 4, 2, 24, 8
1, 265728, Tempo, 600000
1, 268800, Tempo, 631570
1, 273408, Tempo, 1714280
1, 309888, Tempo, 2000000
1, 310272, Tempo, 1000000
1, 311808, Tempo, 571420
1, 311808, Time_signature, 3, 2, 24, 8
1, 512256, Tempo, 600000
1, 515712, Tempo, 631570
1, 516864, Tempo, 666660
1, 518016, Tempo, 545450
1, 518016, Time_signature, 4, 2, 24, 8
1, 675456, Tempo, 600000
1, 676224, Time_signature, 3, 2, 24, 8
1, 683136, Tempo, 2000000
1, 684288, End_track
2, 0, Start_track
2, 0, Title_t, "Track 1"
2, 0, Program_c, 0, 19
2, 0, Note_on_c, 0, 60, 92
2, 384, Note_off_c, 0, 60, 64
2, 384, Note_on_c, 0, 60, 92
2, 768, Note_off_c, 0, 60, 64
2, 768, Note_on_c, 0, 60, 92
2, 1152, Note_off_c, 0, 60, 64
2, 1536, Note_on_c, 0, 60, 92
2, 1920, Note_off_c, 0, 60, 64
2, 1920, Note_on_c, 0, 60, 92
2, 2304, Note_off_c, 0, 60, 64
2, 2304, Note_on_c, 0, 60, 92
2, 2496, Note_off_c, 0, 60, 64
2, 2496, Note_on_c, 0, 62, 92
2, 2592, Note_off_c, 0, 62, 64
2, 2592, Note_on_c, 0, 64, 92
2, 2688, Note_off_c, 0, 64, 64
2, 2688, Note_on_c, 0, 65, 92
2, 2784, Note_off_c, 0, 65, 64
2, 2784, Note_on_c, 0, 67, 92
2, 2880, Note_off_c, 0, 67, 64
2, 2880, Note_on_c, 0, 69, 92
2, 2976, Note_off_c, 0, 69, 64
2, 2976, Note_on_c, 0, 71, 92
2, 3072, Note_off_c, 0, 71, 64
2, 3072, Note_on_c, 0, 72, 92
2, 3264, Note_off_c, 0, 72, 64
2, 3264, Note_on_c, 0, 60, 92
2, 3456, Note_off_c, 0, 60, 64
2, 3456, Note_on_c, 0, 60, 92
2, 3648, Note_off_c, 0, 60, 64
2, 3648, Note_on_c, 0, 60, 92
2, 3840, Note_off_c, 0, 60, 64
2, 3840, Note_on_c, 0, 60, 92
2, 4032, Note_off_c, 0, 60, 64
2, 4032, Note_on_c, 0, 62, 92
2, 4128, Note_off_c, 0, 62, 64
2, 4128, Note_on_c, 0, 64, 92
2, 4224, Note_off_c, 0, 64, 64
2, 4224, Note_on_c, 0, 65, 92
2, 4320, Note_off_c, 0, 65, 64
2, 4320, Note_on_c, 0, 67, 92
2, 4416, Note_off_c, 0, 67, 64
2, 4416, Note_on_c, 0, 69, 92
2, 4512, Note_off_c, 0, 69, 64
2, 4512, Note_on_c, 0, 71, 92
2, 4608, Note_off_c, 0, 71, 64
2, 4608, Note_on_c, 0, 72, 92
2, 4800, Note_off_c, 0, 72, 64
2, 4800, Note_on_c, 0, 60, 92
2, 4992, Note_off_c, 0, 60, 64
2, 4992, Note_on_c, 0, 60, 92
2, 5184, Note_off_c, 0, 60, 64
2, 5184, Note_on_c, 0, 60, 92
2, 5376, Note_off_c, 0, 60, 64
2, 5376, Note_on_c, 0, 60, 92
2, 5568, Note_off_c, 0, 60, 64
2, 5568, Note_on_c, 0, 62, 92
2, 5664, Note_off_c, 0, 62, 64
2, 5664, Note_on_c, 0, 64, 92
2, 5760, Note_off_c, 0, 64, 64
2, 5760, Note_on_c, 0, 65, 92
2, 5856, Note_off_c, 0, 65, 64
2, 5856, Note_on_c, 0, 67, 92
2, 5952, Note_off_c, 0, 67, 64
2, 5952, Note_on_c, 0, 69, 92
2, 6048, Note_off_c, 0, 69, 64
2, 6048, Note_on_c, 0, 71, 92
2, 6144, Note_off_c, 0, 71, 64
2, 6144, Note_on_c, 0, 72, 92
2, 6240, Note_off_c, 0, 72, 64
2, 6240, Note_on_c, 0, 74, 92
2, 6336, Note_off_c, 0, 74, 64
2, 6336, Note_on_c, 0, 76, 92
2, 6432, Note_off_c, 0, 76, 64
2, 6432, Note_on_c, 0, 77, 92
2, 6528, Note_off_c, 0, 77, 64
2, 6528, Note_on_c, 0, 79, 92
2, 6720, Note_off_c, 0, 79, 64
2, 6720, Note_on_c, 0, 72, 92
2, 6720, Note_on_c, 0, 76, 92
2, 6720, Note_on_c, 0, 79, 92
2, 6912, Note_off_c, 0, 79, 64
2, 6912, Note_off_c, 0, 76, 64
2, 6912, Note_off_c, 0, 72, 64
2, 6912, Note_on_c, 0, 72, 92
2, 6912, Note_on_c, 0, 77, 92
2, 6912, Note_on_c, 0, 81, 92
2, 7104, Note_off_c, 0, 81, 64
2, 7104, Note_off_c, 0, 77, 64
2, 7104, Note_off_c, 0, 72, 64
2, 7104, Note_on_c, 0, 72, 92
2, 7104, Note_on_c, 0, 76, 92
2, 7104, Note_on_c, 0, 79, 92
2, 7296, Note_off_c, 0, 79, 64
2, 7296, Note_off_c, 0, 76, 64
2, 7296, Note_off_c, 0, 72, 64
2, 7296, Note_on_c, 0, 72, 92
2, 7296, Note_on_c, 0, 77, 92
2, 7296, Note_on_c, 0, 81, 92
2, 7488, Note_off_c, 0, 81, 64
2, 7488, Note_off_c, 0, 77, 64
2, 7488, Note_off_c, 0, 72, 64
2, 7488, Note_on_c, 0, 72, 92
2, 7488, Note_on_c, 0, 76, 92
2, 7488, Note_on_c, 0, 79, 92
2, 7680, Note_off_c, 0, 79, 64
2, 7680, Note_off_c, 0, 76, 64
2, 7680, Note_off_c, 0, 72, 64
2, 7680, Note_on_c, 0, 72, 92
2, 7776, Note_off_c, 0, 72, 64
2, 7776, Note_on_c, 0, 74, 92
2, 7872, Note_off_c, 0, 74, 64
2, 7872, Note_on_c, 0, 76, 92
2, 7968, Note_off_c, 0, 76, 64
2, 7968, Note_on_c, 0, 77, 92
2, 8064, Note_off_c, 0, 77, 64
2, 8064, Note_on_c, 0, 79, 92
2, 8256, Note_off_c, 0, 79, 64
2, 8256, Note_on_c, 0, 72, 92
2, 8256, Note_on_c, 0, 76, 92
2, 8256, Note_on_c, 0, 79, 92
2, 8448, Note_off_c, 0, 79, 64
2, 8448, Note_off_c, 0, 76, 64
2, 8448, Note_off_c, 0, 72, 64
2, 8448, Note_on_c, 0, 72, 92
2, 8448, Note_on_c, 0, 77, 92
2, 8448, Note_on_c, 0, 81, 92
2, 8640, Note_off_c, 0, 81, 64
2, 8640, Note_off_c, 0, 77, 64
2, 8640, Note_off_c, 0, 72, 64
2, 8640, Note_on_c, 0, 72, 92
2, 8640, Note_on_c, 0, 76, 92
2, 8640, Note_on_c, 0, 79, 92
2, 8832, Note_off_c, 0, 79, 64
2, 8832, Note_off_c, 0, 76, 64
2, 8832, Note_off_c, 0, 72, 64
2, 8832, Note_on_c, 0, 72, 92
2, 8832, Note_on_c, 0, 77, 92
2, 8832, Note_on_c, 0, 81, 92
2, 9024, Note_off_c, 0, 81, 64
2, 9024, Note_off_c, 0, 77, 64
2, 9024, Note_off_c, 0, 72, 64
2, 9024, Note_on_c, 0, 72, 92
2, 9024, Note_on_c, 0, 76, 92
2, 9024, Note_on_c, 0, 79, 92
2, 9216, Note_off_c, 0, 79, 64
2, 9216, Note_off_c, 0, 76, 64
2, 9216, Note_off_c, 0, 72, 64
2, 9216, Note_on_c, 0, 72, 92
2, 9312, Note_off_c, 0, 72, 64
2, 9312, Note_on_c, 0, 74, 92
2, 9408, Note_off_c, 0, 74, 64
2, 9408, Note_on_c, 0, 76, 92
2, 9504, Note_off_c, 0, 76, 64
2, 9504, Note_on_c, 0, 77, 92
2, 9600, Note_off_c, 0, 77, 64
2, 9600, Note_on_c, 0, 76, 92
2, 9600, Note_on_c, 0, 79, 92
2, 9792, Note_off_c, 0, 79, 64
2, 9792, Note_off_c, 0, 76, 64
2, 9792, Note_on_c, 0, 74, 92
2, 9792, Note_on_c, 0, 77, 92
2, 9888, Note_off_c, 0, 77, 64
2, 9888, Note_off_c, 0, 74, 64
2, 9888, Note_on_c, 0, 72, 92
2, 9888, Note_on_c, 0, 76, 92
2, 9984, Note_off_c, 0, 76, 64
2, 9984, Note_off_c, 0, 72, 64
2, 9984, Note_on_c, 0, 71, 92
2, 9984, Note_on_c, 0, 74, 92
2, 10176, Note_off_c, 0, 74, 64
2, 10176, Note_off_c, 0, 71, 64
2, 10176, Note_on_c, 0, 67, 92
2, 10368, Note_off_c, 0, 67, 64
2, 10560, Note_on_c, 0, 83, 92
2, 10560, Note_on_c, 0, 79, 92
2, 10560, Note_on_c, 0, 74, 92
2, 10752, Note_off_c, 0, 74, 64
2, 10752, Note_off_c, 0, 79, 64
2, 10752, Note_off_c, 0, 83, 64
2, 10752, Note_on_c, 0, 72, 92
2, 10752, Note_on_c, 0, 79, 92
2, 10752, Note_on_c, 0, 84, 92
2, 10944, Note_off_c, 0, 84, 64
2, 10944, Note_off_c, 0, 79, 64
2, 10944, Note_off_c, 0, 72, 64
2, 10944, Note_on_c, 0, 74, 92
2, 10944, Note_on_c, 0, 79, 92
2, 10944, Note_on_c, 0, 83, 92
2, 11136, Note_off_c, 0, 83, 64
2, 11136, Note_off_c, 0, 79, 64
2, 11136, Note_off_c, 0, 74, 64
2, 11136, Note_on_c, 0, 72, 92
2, 11136, Note_on_c, 0, 79, 92
2, 11136, Note_on_c, 0, 84, 92
2, 11328, Note_off_c, 0, 84, 64
2, 11328, Note_off_c, 0, 79, 64
2, 11328, Note_off_c, 0, 72, 64
2, 11328, Note_on_c, 0, 74, 92
2, 11328, Note_on_c, 0, 79, 92
2, 11328, Note_on_c, 0, 83, 92
2, 11520, Note_off_c, 0, 83, 64
2, 11520, Note_off_c, 0, 79, 64
2, 11520, Note_off_c, 0, 74, 64
2, 12096, Note_on_c, 0, 83, 92
2, 12096, Note_on_c, 0, 79, 92
2, 12096, Note_on_c, 0, 74, 92
2, 12288, Note_off_c, 0, 74, 64
2, 12288, Note_off_c, 0, 79, 64
2, 12288, Note_off_c, 0, 83, 64
2, 12288, Note_on_c, 0, 72, 92
2, 12288, Note_on_c, 0, 79, 92
2, 12288, Note_on_c, 0, 84, 92
2, 12480, Note_off_c, 0, 84, 64
2, 12480, Note_off_c, 0, 79, 64
2, 12480, Note_off_c, 0, 72, 64
2, 12480, Note_on_c, 0, 74, 92
2, 12480, Note_on_c, 0, 79, 92
2, 12480, Note_on_c, 0, 83, 92
2, 12672, Note_off_c, 0, 83, 64
2, 12672, Note_off_c, 0, 79, 64
2, 12672, Note_off_c, 0, 74, 64
2, 12672, Note_on_c, 0, 72, 92
2, 12672, Note_on_c, 0, 79, 92
2, 12672, Note_on_c, 0, 84, 92
2, 12864, Note_off_c, 0, 84, 64
2, 12864, Note_off_c, 0, 79, 64
2, 12864, Note_off_c, 0, 72, 64
2, 12864, Note_on_c, 0, 74, 92
2, 12864, Note_on_c, 0, 79, 92
2, 12864, Note_on_c, 0, 83, 92
2, 13056, Note_off_c, 0, 83, 64
2, 13056, Note_off_c, 0, 79, 64
2, 13056, Note_off_c, 0, 74, 64
2, 13440, Note_on_c, 0, 74, 92
2, 13440, Note_on_c, 0, 79, 92
2, 13440, Note_on_c, 0, 83, 92
2, 13632, Note_off_c, 0, 83, 64
2, 13632, Note_off_c, 0, 79, 64
2, 13632, Note_off_c, 0, 74, 64
2, 13632, Note_on_c, 0, 74, 92
2, 13632, Note_on_c, 0, 79, 92
2, 13632, Note_on_c, 0, 83, 92
2, 13824, Note_off_c, 0, 83, 64
2, 13824, Note_off_c, 0, 79, 64
2, 13824, Note_off_c, 0, 74, 64
2, 13824, Note_on_c, 0, 72, 92
2, 13824, Note_on_c, 0, 79, 92
2, 13824, Note_on_c, 0, 84, 92
2, 13920, Note_off_c, 0, 72, 64
2, 13920, Note_on_c, 0, 74, 92
2, 14016, Note_off_c, 0, 74, 64
2, 14016, Note_off_c, 0, 84, 64
2, 14016, Note_off_c, 0, 79, 64
2, 14016, Note_on_c, 0, 76, 92
2, 14112, Note_off_c, 0, 76, 64
2, 14112, Note_on_c, 0, 77, 92
2, 14208, Note_off_c, 0, 77, 64
2, 14208, Note_on_c, 0, 79, 92
2, 14400, Note_off_c, 0, 79, 64
2, 14400, Note_on_c, 0, 72, 92
2, 14592, Note_off_c, 0, 72, 64
2, 14592, Note_on_c, 0, 72, 92
2, 14688, Note_off_c, 0, 72, 64
2, 14688, Note_on_c, 0, 74, 92
2, 14784, Note_off_c, 0, 74, 64
2, 14784, Note_on_c, 0, 76, 92
2, 14880, Note_off_c, 0, 76, 64
2, 14880, Note_on_c, 0, 77, 92
2, 14976, Note_off_c, 0, 77, 64
2, 14976, Note_on_c, 0, 79, 92
2, 15168, Note_off_c, 0, 79, 64
2, 15168, Note_on_c, 0, 70, 92
2, 15360, Note_off_c, 0, 70, 64
2, 15360, Note_on_c, 0, 72, 92
2, 15456, Note_off_c, 0, 72, 64
2, 15456, Note_on_c, 0, 74, 92
2, 15552, Note_off_c, 0, 74, 64
2, 15552, Note_on_c, 0, 76, 92
2, 15648, Note_off_c, 0, 76, 64
2, 15648, Note_on_c, 0, 77, 92
2, 15744, Note_off_c, 0, 77, 64
2, 15744, Note_on_c, 0, 79, 92
2, 15936, Note_off_c, 0, 79, 64
2, 15936, Note_on_c, 0, 70, 92
2, 16128, Note_off_c, 0, 70, 64
2, 16128, Note_on_c, 0, 69, 92
2, 16224, Note_off_c, 0, 69, 64
2, 16224, Note_on_c, 0, 70, 92
2, 16320, Note_off_c, 0, 70, 64
2, 16320, Note_on_c, 0, 72, 92
2, 16416, Note_off_c, 0, 72, 64
2, 16416, Note_on_c, 0, 70, 92
2, 16512, Note_off_c, 0, 70, 64
2, 16512, Note_on_c, 0, 69, 92
2, 16608, Note_off_c, 0, 69, 64
2, 16608, Note_on_c, 0, 70, 92
2, 16704, Note_off_c, 0, 70, 64
2, 16704, Note_on_c, 0, 72, 92
2, 16800, Note_off_c, 0, 72, 64
2, 16800, Note_on_c, 0, 69, 92
2, 16896, Note_off_c, 0, 69, 64
2, 16896, Note_on_c, 0, 74, 92
2, 16992, Note_off_c, 0, 74, 64
2, 16992, Note_on_c, 0, 76, 92
2, 17088, Note_off_c, 0, 76, 64
2, 17088, Note_on_c, 0, 78, 92
2, 17184, Note_off_c, 0, 78, 64
2, 17184, Note_on_c, 0, 79, 92
2, 17280, Note_off_c, 0, 79, 64
2, 17280, Note_on_c, 0, 81, 92
2, 17472, Note_off_c, 0, 81, 64
2, 17472, Note_on_c, 0, 74, 92
2, 17664, Note_off_c, 0, 74, 64
2, 17664, Note_on_c, 0, 74, 92
2, 17760, Note_off_c, 0, 74, 64
2, 17760, Note_on_c, 0, 76, 92
2, 17856, Note_off_c, 0, 76, 64
2, 17856, Note_on_c, 0, 78, 92
2, 17952, Note_off_c, 0, 78, 64
2, 17952, Note_on_c, 0, 79, 92
2, 18048, Note_off_c, 0, 79, 64
2, 18048, Note_on_c, 0, 81, 92
2, 18240, Note_off_c, 0, 81, 64
2, 18240, Note_on_c, 0, 72, 92
2, 18432, Note_off_c, 0, 72, 64
2, 18432, Note_on_c, 0, 74, 92
2, 18528, Note_off_c, 0, 74, 64
2, 18528, Note_on_c, 0, 76, 92
2, 18624, Note_off_c, 0, 76, 64
2, 18624, Note_on_c, 0, 78, 92
2, 18720, Note_off_c, 0, 78, 64
2, 18720, Note_on_c, 0, 79, 92
2, 18816, Note_off_c, 0, 79, 64
2, 18816, Note_on_c, 0, 81, 92
2, 19008, Note_off_c, 0, 81, 64
2, 19008, Note_on_c, 0, 72, 92
2, 19200, Note_off_c, 0, 72, 64
2, 19200, Note_on_c, 0, 71, 92
2, 19296, Note_off_c, 0, 71, 64
2, 19296, Note_on_c, 0, 72, 92
2, 19392, Note_off_c, 0, 72, 64
2, 19392, Note_on_c, 0, 74, 92
2, 19488, Note_off_c, 0, 74, 64
2, 19488, Note_on_c, 0, 72, 92
2, 19584, Note_off_c, 0, 72, 64
2, 19584, Note_on_c, 0, 71, 92
2, 19680, Note_off_c, 0, 71, 64
2, 19680, Note_on_c, 0, 72, 92
2, 19776, Note_off_c, 0, 72, 64
2, 19776, Note_on_c, 0, 74, 92
2, 19872, Note_off_c, 0, 74, 64
2, 19872, Note_on_c, 0, 72, 92
2, 19968, Note_off_c, 0, 72, 64
2, 19968, Note_on_c, 0, 71, 92
2, 20064, Note_off_c, 0, 71, 64
2, 20064, Note_on_c, 0, 72, 92
2, 20160, Note_off_c, 0, 72, 64
2, 20160, Note_on_c, 0, 74, 92
2, 20256, Note_off_c, 0, 74, 64
2, 20256, Note_on_c, 0, 76, 92
2, 20352, Note_off_c, 0, 76, 64
2, 20352, Note_on_c, 0, 71, 92
2, 20352, Note_on_c, 0, 74, 92
2, 20352, Note_on_c, 0, 77, 92
2, 20544, Note_off_c, 0, 77, 64
2, 20544, Note_off_c, 0, 74, 64
2, 20544, Note_off_c, 0, 71, 64
2, 20544, Note_on_c, 0, 71, 92
2, 20544, Note_on_c, 0, 74, 92
2, 20544, Note_on_c, 0, 77, 92
2, 20736, Note_off_c, 0, 77, 64
2, 20736, Note_off_c, 0, 74, 64
2, 20736, Note_off_c, 0, 71, 64
2, 20736, Note_on_c, 0, 71, 92
2, 20736, Note_on_c, 0, 74, 92
2, 20736, Note_on_c, 0, 77, 92
2, 20928, Note_off_c, 0, 77, 64
2, 20928, Note_off_c, 0, 74, 64
2, 20928, Note_off_c, 0, 71, 64
2, 20928, Note_on_c, 0, 74, 92
2, 21120, Note_off_c, 0, 74, 64
2, 21120, Note_on_c, 0, 71, 92
2, 21312, Note_off_c, 0, 71, 64
2, 21312, Note_on_c, 0, 67, 92
2, 21504, Note_off_c, 0, 67, 64
2, 21504, Note_on_c, 0, 71, 92
2, 21504, Note_on_c, 0, 74, 92
2, 21504, Note_on_c, 0, 77, 92
2, 21888, Note_off_c, 0, 77, 64
2, 21888, Note_off_c, 0, 74, 64
2, 21888, Note_off_c, 0, 71, 64
2, 22272, Note_on_c, 0, 77, 92
2, 22464, Note_off_c, 0, 77, 64
2, 22464, Note_on_c, 0, 74, 92
2, 22656, Note_off_c, 0, 74, 64
2, 22656, Note_on_c, 0, 71, 92
2, 22848, Note_off_c, 0, 71, 64
2, 22848, Note_on_c, 0, 67, 92
2, 23040, Note_off_c, 0, 67, 64
2, 23040, Note_on_c, 0, 71, 92
2, 23040, Note_on_c, 0, 74, 92
2, 23040, Note_on_c, 0, 77, 92
2, 23424, Note_off_c, 0, 77, 64
2, 23424, Note_off_c, 0, 74, 64
2, 23424, Note_off_c, 0, 71, 64
2, 23808, Note_on_c, 0, 75, 92
2, 24000, Note_off_c, 0, 75, 64
2, 24000, Note_on_c, 0, 72, 92
2, 24192, Note_off_c, 0, 72, 64
2, 24192, Note_on_c, 0, 67, 92
2, 24384, Note_off_c, 0, 67, 64
2, 24384, Note_on_c, 0, 63, 92
2, 24576, Note_off_c, 0, 63, 64
2, 24576, Note_on_c, 0, 67, 92
2, 24576, Note_on_c, 0, 72, 92
2, 24576, Note_on_c, 0, 75, 92
2, 24960, Note_off_c, 0, 75, 64
2, 24960, Note_off_c, 0, 72, 64
2, 24960, Note_off_c, 0, 67, 64
2, 25344, Note_on_c, 0, 75, 92
2, 25536, Note_off_c, 0, 75, 64
2, 25536, Note_on_c, 0, 72, 92
2, 25728, Note_off_c, 0, 72, 64
2, 25728, Note_on_c, 0, 67, 92
2, 25920, Note_off_c, 0, 67, 64
2, 25920, Note_on_c, 0, 63, 92
2, 26112, Note_off_c, 0, 63, 64
2, 26112, Note_on_c, 0, 67, 92
2, 26112, Note_on_c, 0, 72, 92
2, 26112, Note_on_c, 0, 75, 92
2, 26496, Note_off_c, 0, 75, 64
2, 26496, Note_off_c, 0, 72, 64
2, 26496, Note_off_c, 0, 67, 64
2, 26880, Note_on_c, 0, 72, 92
2, 27072, Note_on_c, 0, 80, 92
2, 27264, Note_off_c, 0, 80, 64
2, 27264, Note_off_c, 0, 72, 64
2, 27264, Note_on_c, 0, 79, 92
2, 27456, Note_off_c, 0, 79, 64
2, 27456, Note_on_c, 0, 74, 92
2, 27456, Note_on_c, 0, 78, 92
2, 27648, Note_off_c, 0, 78, 64
2, 27648, Note_off_c, 0, 74, 64
2, 27648, Note_on_c, 0, 71, 92
2, 27840, Note_on_c, 0, 79, 92
2, 28032, Note_off_c, 0, 79, 64
2, 28032, Note_off_c, 0, 71, 64
2, 28032, Note_on_c, 0, 77, 92
2, 28224, Note_off_c, 0, 77, 64
2, 28224, Note_on_c, 0, 72, 92
2, 28224, Note_on_c, 0, 76, 92
2, 28416, Note_off_c, 0, 76, 64
2, 28416, Note_off_c, 0, 72, 64
2, 28416, Note_on_c, 0, 69, 92
2, 28608, Note_on_c, 0, 77, 92
2, 28800, Note_off_c, 0, 77, 64
2, 28800, Note_off_c, 0, 69, 64
2, 28800, Note_on_c, 0, 75, 92
2, 28992, Note_off_c, 0, 75, 64
2, 28992, Note_on_c, 0, 70, 92
2, 28992, Note_on_c, 0, 74, 92
2, 29184, Note_off_c, 0, 74, 64
2, 29184, Note_off_c, 0, 70, 64
2, 29184, Note_on_c, 0, 67, 92
2, 29376, Note_on_c, 0, 75, 92
2, 29568, Note_off_c, 0, 75, 64
2, 29568, Note_off_c, 0, 67, 64
2, 29568, Note_on_c, 0, 74, 92
2, 29760, Note_off_c, 0, 74, 64
2, 29760, Note_on_c, 0, 68, 92
2, 29760, Note_on_c, 0, 72, 92
2, 29952, Note_off_c, 0, 72, 64
2, 29952, Note_off_c, 0, 68, 64
2, 29952, Note_on_c, 0, 65, 92
2, 30144, Note_on_c, 0, 73, 92
2, 30336, Note_off_c, 0, 73, 64
2, 30336, Note_off_c, 0, 65, 64
2, 30336, Note_on_c, 0, 72, 92
2, 30528, Note_off_c, 0, 72, 64
2, 30528, Note_on_c, 0, 67, 92
2, 30528, Note_on_c, 0, 71, 92
2, 30720, Note_off_c, 0, 71, 64
2, 30720, Note_off_c, 0, 67, 64
2, 30720, Note_on_c, 0, 64, 92
2, 30720, Note_on_c, 0, 72, 92
2, 30816, Note_off_c, 0, 72, 64
2, 30816, Note_on_c, 0, 74, 92
2, 30912, Note_off_c, 0, 74, 64
2, 30912, Note_off_c, 0, 64, 64
2, 30912, Note_on_c, 0, 67, 92
2, 30912, Note_on_c, 0, 76, 92
2, 31008, Note_off_c, 0, 76, 64
2, 31008, Note_on_c, 0, 77, 92
2, 31104, Note_off_c, 0, 77, 64
2, 31104, Note_off_c, 0, 67, 64
2, 31104, Note_on_c, 0, 79, 92
2, 31104, Note_on_c, 0, 60, 92
2, 31200, Note_off_c, 0, 60, 64
2, 31200, Note_on_c, 0, 62, 92
2, 31296, Note_off_c, 0, 62, 64
2, 31296, Note_off_c, 0, 79, 64
2, 31296, Note_on_c, 0, 72, 92
2, 31296, Note_on_c, 0, 64, 92
2, 31392, Note_off_c, 0, 64, 64
2, 31392, Note_on_c, 0, 65, 92
2, 31488, Note_off_c, 0, 65, 64
2, 31488, Note_off_c, 0, 72, 64
2, 31488, Note_on_c, 0, 64, 92
2, 31488, Note_on_c, 0, 67, 92
2, 31680, Note_off_c, 0, 67, 64
2, 31680, Note_off_c, 0, 64, 64
2, 31680, Note_on_c, 0, 72, 92
2, 31872, Note_off_c, 0, 72, 64
2, 31872, Note_on_c, 0, 62, 92
2, 31872, Note_on_c, 0, 65, 92
2, 32064, Note_off_c, 0, 65, 64
2, 32064, Note_off_c, 0, 62, 64
2, 32064, Note_on_c, 0, 71, 92
2, 32256, Note_off_c, 0, 71, 64
2, 32256, Note_on_c, 0, 60, 92
2, 32256, Note_on_c, 0, 64, 92
2, 32256, Note_on_c, 0, 67, 92
2, 32256, Note_on_c, 0, 72, 92
2, 32640, Note_off_c, 0, 72, 64
2, 32640, Note_off_c, 0, 67, 64
2, 32640, Note_off_c, 0, 64, 64
2, 32640, Note_off_c, 0, 60, 64
2, 33024, Note_on_c, 0, 72, 92
2, 33216, Note_on_c, 0, 80, 92
2, 33408, Note_off_c, 0, 80, 64
2, 33408, Note_off_c, 0, 72, 64
2, 33408, Note_on_c, 0, 79, 92
2, 33600, Note_off_c, 0, 79, 64
2, 33600, Note_on_c, 0, 74, 92
2, 33600, Note_on_c, 0, 78, 92
2, 33792, Note_off_c, 0, 78, 64
2, 33792, Note_off_c, 0, 74, 64
2, 33792, Note_on_c, 0, 71, 92
2, 33984, Note_on_c, 0, 79, 92
2, 34176, Note_off_c, 0, 79, 64
2, 34176, Note_off_c, 0, 71, 64
2, 34176, Note_on_c, 0, 77, 92
2, 34368, Note_off_c, 0, 77, 64
2, 34368, Note_on_c, 0, 72, 92
2, 34368, Note_on_c, 0, 76, 92
2, 34560, Note_off_c, 0, 76, 64
2, 34560, Note_off_c, 0, 72, 64
2, 34560, Note_on_c, 0, 69, 92
2, 34752, Note_on_c, 0, 77, 92
2, 34944, Note_off_c, 0, 77, 64
2, 34944, Note_off_c, 0, 69, 64
2, 34944, Note_on_c, 0, 75, 92
2, 35136, Note_off_c, 0, 75, 64
2, 35136, Note_on_c, 0, 70, 92
2, 35136, Note_on_c, 0, 74, 92
2, 35328, Note_off_c, 0, 74, 64
2, 35328, Note_off_c, 0, 70, 64
2, 35328, Note_on_c, 0, 67, 92
2, 35520, Note_on_c, 0, 75, 92
2, 35712, Note_off_c, 0, 75, 64
2, 35712, Note_off_c, 0, 67, 64
2, 35712, Note_on_c, 0, 74, 92
2, 35904, Note_off_c, 0, 74, 64
2, 35904, Note_on_c, 0, 68, 92
2, 35904, Note_on_c, 0, 72, 92
2, 36096, Note_off_c, 0, 72, 64
2, 36096, Note_off_c, 0, 68, 64
2, 36096, Note_on_c, 0, 65, 92
2, 36288, Note_on_c, 0, 73, 92
2, 36480, Note_off_c, 0, 73, 64
2, 36480, Note_off_c, 0, 65, 64
2, 36480, Note_on_c, 0, 72, 92
2, 36672, Note_off_c, 0, 72, 64
2, 36672, Note_on_c, 0, 67, 92
2, 36672, Note_on_c, 0, 71, 92
2, 36864, Note_off_c, 0, 71, 64
2, 36864, Note_off_c, 0, 67, 64
2, 36864, Note_on_c, 0, 72, 92
2, 36864, Note_on_c, 0, 64, 92
2, 36960, Note_off_c, 0, 72, 64
2, 36960, Note_on_c, 0, 74, 92
2, 37056, Note_off_c, 0, 74, 64
2, 37056, Note_off_c, 0, 64, 64
2, 37056, Note_on_c, 0, 76, 92
2, 37056, Note_on_c, 0, 67, 92
2, 37152, Note_off_c, 0, 76, 64
2, 37152, Note_on_c, 0, 77, 92
2, 37248, Note_off_c, 0, 77, 64
2, 37248, Note_off_c, 0, 67, 64
2, 37248, Note_on_c, 0, 60, 92
2, 37248, Note_on_c, 0, 79, 92
2, 37344, Note_off_c, 0, 60, 64
2, 37344, Note_on_c, 0, 62, 92
2, 37440, Note_off_c, 0, 62, 64
2, 37440, Note_off_c, 0, 79, 64
2, 37440, Note_on_c, 0, 64, 92
2, 37440, Note_on_c, 0, 72, 92
2, 37536, Note_off_c, 0, 64, 64
2, 37536, Note_on_c, 0, 65, 92
2, 37632, Note_off_c, 0, 65, 64
2, 37632, Note_off_c, 0, 72, 64
2, 37632, Note_on_c, 0, 64, 92
2, 37632, Note_on_c, 0, 67, 92
2, 37824, Note_off_c, 0, 67, 64
2, 37824, Note_off_c, 0, 64, 64
2, 37824, Note_on_c, 0, 72, 92
2, 38016, Note_off_c, 0, 72, 64
2, 38016, Note_on_c, 0, 62, 92
2, 38016, Note_on_c, 0, 65, 92
2, 38208, Note_off_c, 0, 65, 64
2, 38208, Note_off_c, 0, 62, 64
2, 38208, Note_on_c, 0, 71, 92
2, 38400, Note_off_c, 0, 71, 64
2, 38400, Note_on_c, 0, 60, 92
2, 38400, Note_on_c, 0, 64, 92
2, 38400, Note_on_c, 0, 67, 92
2, 38400, Note_on_c, 0, 72, 92
2, 38784, Note_off_c, 0, 72, 64
2, 38784, Note_off_c, 0, 67, 64
2, 38784, Note_off_c, 0, 64, 64
2, 38784, Note_off_c, 0, 60, 64
2, 41472, Note_on_c, 0, 60, 92
2, 41472, Note_on_c, 0, 64, 92
2, 41664, Note_off_c, 0, 64, 64
2, 41664, Note_off_c, 0, 60, 64
2, 41664, Note_on_c, 0, 62, 92
2, 41664, Note_on_c, 0, 65, 92
2, 41856, Note_off_c, 0, 65, 64
2, 41856, Note_off_c, 0, 62, 64
2, 41856, Note_on_c, 0, 64, 92
2, 41856, Note_on_c, 0, 67, 92
2, 42048, Note_off_c, 0, 67, 64
2, 42048, Note_off_c, 0, 64, 64
2, 42048, Note_on_c, 0, 62, 92
2, 42048, Note_on_c, 0, 65, 92
2, 42240, Note_off_c, 0, 65, 64
2, 42240, Note_off_c, 0, 62, 64
2, 42240, Note_on_c, 0, 60, 92
2, 42240, Note_on_c, 0, 64, 92
2, 42432, Note_off_c, 0, 64, 64
2, 42432, Note_off_c, 0, 60, 64
2, 42432, Note_on_c, 0, 62, 92
2, 42432, Note_on_c, 0, 65, 92
2, 42624, Note_off_c, 0, 65, 64
2, 42624, Note_off_c, 0, 62, 64
2, 42624, Note_on_c, 0, 64, 92
2, 42624, Note_on_c, 0, 67, 92
2, 42816, Note_off_c, 0, 67, 64
2, 42816, Note_off_c, 0, 64, 64
2, 42816, Note_on_c, 0, 60, 92
2, 42816, Note_on_c, 0, 64, 92
2, 43008, Note_off_c, 0, 64, 64
2, 43008, Note_off_c, 0, 60, 64
2, 43008, Note_on_c, 0, 59, 92
2, 43008, Note_on_c, 0, 62, 92
2, 43200, Note_off_c, 0, 62, 64
2, 43200, Note_off_c, 0, 59, 64
2, 46080, Note_on_c, 0, 55, 92
2, 46080, Note_on_c, 0, 59, 92
2, 46272, Note_off_c, 0, 59, 64
2, 46272, Note_off_c, 0, 55, 64
2, 46272, Note_on_c, 0, 57, 92
2, 46272, Note_on_c, 0, 60, 92
2, 46464, Note_off_c, 0, 60, 64
2, 46464, Note_off_c, 0, 57, 64
2, 46464, Note_on_c, 0, 59, 92
2, 46464, Note_on_c, 0, 62, 92
2, 46656, Note_off_c, 0, 62, 64
2, 46656, Note_off_c, 0, 59, 64
2, 46656, Note_on_c, 0, 57, 92
2, 46656, Note_on_c, 0, 60, 92
2, 46848, Note_off_c, 0, 60, 64
2, 46848, Note_off_c, 0, 57, 64
2, 46848, Note_on_c, 0, 55, 92
2, 46848, Note_on_c, 0, 59, 92
2, 47040, Note_off_c, 0, 59, 64
2, 47040, Note_off_c, 0, 55, 64
2, 47040, Note_on_c, 0, 57, 92
2, 47040, Note_on_c, 0, 60, 92
2, 47232, Note_off_c, 0, 60, 64
2, 47232, Note_off_c, 0, 57, 64
2, 47232, Note_on_c, 0, 59, 92
2, 47232, Note_on_c, 0, 62, 92
2, 47424, Note_off_c, 0, 62, 64
2, 47424, Note_off_c, 0, 59, 64
2, 47424, Note_on_c, 0, 55, 92
2, 47424, Note_on_c, 0, 59, 92
2, 47616, Note_off_c, 0, 59, 64
2, 47616, Note_off_c, 0, 55, 64
2, 47616, Note_on_c, 0, 60, 92
2, 47616, Note_on_c, 0, 64, 92
2, 48000, Note_off_c, 0, 64, 64
2, 48000, Note_off_c, 0, 60, 64
2, 49152, Note_on_c, 0, 60, 92
2, 49152, Note_on_c, 0, 64, 92
2, 49344, Note_off_c, 0, 64, 64
2, 49344, Note_off_c, 0, 60, 64
2, 49344, Note_on_c, 0, 62, 92
2, 49344, Note_on_c, 0, 65, 92
2, 49536, Note_off_c, 0, 65, 64
2, 49536, Note_off_c, 0, 62, 64
2, 49536, Note_on_c, 0, 64, 92
2, 49536, Note_on_c, 0, 67, 92
2, 49728, Note_off_c, 0, 67, 64
2, 49728, Note_off_c, 0, 64, 64
2, 49728, Note_on_c, 0, 62, 92
2, 49728, Note_on_c, 0, 65, 92
2, 49920, Note_off_c, 0, 65, 64
2, 49920, Note_off_c, 0, 62, 64
2, 49920, Note_on_c, 0, 60, 92
2, 49920, Note_on_c, 0, 64, 92
2, 50112, Note_off_c, 0, 64, 64
2, 50112, Note_off_c, 0, 60, 64
2, 50112, Note_on_c, 0, 62, 92
2, 50112, Note_on_c, 0, 65, 92
2, 50304, Note_off_c, 0, 65, 64
2, 50304, Note_off_c, 0, 62, 64
2, 50304, Note_on_c, 0, 64, 92
2, 50304, Note_on_c, 0, 67, 92
2, 50496, Note_off_c, 0, 67, 64
2, 50496, Note_off_c, 0, 64, 64
2, 50496, Note_on_c, 0, 60, 92
2, 50496, Note_on_c, 0, 64, 92
2, 50688, Note_off_c, 0, 64, 64
2, 50688, Note_off_c, 0, 60, 64
2, 50688, Note_on_c, 0, 59, 92
2, 50688, Note_on_c, 0, 62, 92
2, 51072, Note_off_c, 0, 62, 64
2, 51072, Note_off_c, 0, 59, 64
2, 52224, Note_on_c, 0, 67, 92
2, 52224, Note_on_c, 0, 71, 92
2, 52416, Note_off_c, 0, 71, 64
2, 52416, Note_off_c, 0, 67, 64
2, 52416, Note_on_c, 0, 69, 92
2, 52416, Note_on_c, 0, 72, 92
2, 52608, Note_off_c, 0, 72, 64
2, 52608, Note_off_c, 0, 69, 64
2, 52608, Note_on_c, 0, 71, 92
2, 52608, Note_on_c, 0, 74, 92
2, 52800, Note_off_c, 0, 74, 64
2, 52800, Note_off_c, 0, 71, 64
2, 52800, Note_on_c, 0, 69, 92
2, 52800, Note_on_c, 0, 72, 92
2, 52992, Note_off_c, 0, 72, 64
2, 52992, Note_off_c, 0, 69, 64
2, 52992, Note_on_c, 0, 67, 92
2, 52992, Note_on_c, 0, 71, 92
2, 53184, Note_off_c, 0, 71, 64
2, 53184, Note_off_c, 0, 67, 64
2, 53184, Note_on_c, 0, 69, 92
2, 53184, Note_on_c, 0, 72, 92
2, 53376, Note_off_c, 0, 72, 64
2, 53376, Note_off_c, 0, 69, 64
2, 53376, Note_on_c, 0, 71, 92
2, 53376, Note_on_c, 0, 74, 92
2, 53568, Note_off_c, 0, 74, 64
2, 53568, Note_off_c, 0, 71, 64
2, 53568, Note_on_c, 0, 67, 92
2, 53568, Note_on_c, 0, 71, 92
2, 53760, Note_off_c, 0, 71, 64
2, 53760, Note_off_c, 0, 67, 64
2, 53760, Note_on_c, 0, 66, 92
2, 53760, Note_on_c, 0, 69, 92
2, 54144, Note_off_c, 0, 69, 64
2, 54144, Note_off_c, 0, 66, 64
2, 55296, Note_on_c, 0, 62, 92
2, 55296, Note_on_c, 0, 66, 92
2, 55488, Note_off_c, 0, 66, 64
2, 55488, Note_off_c, 0, 62, 64
2, 55488, Note_on_c, 0, 64, 92
2, 55488, Note_on_c, 0, 67, 92
2, 55680, Note_off_c, 0, 67, 64
2, 55680, Note_off_c, 0, 64, 64
2, 55680, Note_on_c, 0, 66, 92
2, 55680, Note_on_c, 0, 69, 92
2, 55872, Note_off_c, 0, 69, 64
2, 55872, Note_off_c, 0, 66, 64
2, 55872, Note_on_c, 0, 64, 92
2, 55872, Note_on_c, 0, 67, 92
2, 56064, Note_off_c, 0, 67, 64
2, 56064, Note_off_c, 0, 64, 64
2, 56064, Note_on_c, 0, 62, 92
2, 56064, Note_on_c, 0, 66, 92
2, 56256, Note_off_c, 0, 66, 64
2, 56256, Note_off_c, 0, 62, 64
2, 56256, Note_on_c, 0, 64, 92
2, 56256, Note_on_c, 0, 67, 92
2, 56448, Note_off_c, 0, 67, 64
2, 56448, Note_off_c, 0, 64, 64
2, 56448, Note_on_c, 0, 66, 92
2, 56448, Note_on_c, 0, 69, 92
2, 56640, Note_off_c, 0, 69, 64
2, 56640, Note_off_c, 0, 66, 64
2, 56640, Note_on_c, 0, 62, 92
2, 56640, Note_on_c, 0, 66, 92
2, 56832, Note_off_c, 0, 66, 64
2, 56832, Note_off_c, 0, 62, 64
2, 56832, Note_on_c, 0, 67, 92
2, 56832, Note_on_c, 0, 71, 92
2, 57024, Note_off_c, 0, 71, 64
2, 57024, Note_off_c, 0, 67, 64
2, 58368, Note_on_c, 0, 67, 92
2, 58368, Note_on_c, 0, 71, 92
2, 58560, Note_off_c, 0, 71, 64
2, 58560, Note_off_c, 0, 67, 64
2, 58560, Note_on_c, 0, 69, 92
2, 58560, Note_on_c, 0, 72, 92
2, 58752, Note_off_c, 0, 72, 64
2, 58752, Note_off_c, 0, 69, 64
2, 58752, Note_on_c, 0, 71, 92
2, 58752, Note_on_c, 0, 74, 92
2, 58944, Note_off_c, 0, 74, 64
2, 58944, Note_off_c, 0, 71, 64
2, 58944, Note_on_c, 0, 69, 92
2, 58944, Note_on_c, 0, 72, 92
2, 59136, Note_off_c, 0, 72, 64
2, 59136, Note_off_c, 0, 69, 64
2, 59136, Note_on_c, 0, 67, 92
2, 59136, Note_on_c, 0, 71, 92
2, 59328, Note_off_c, 0, 71, 64
2, 59328, Note_off_c, 0, 67, 64
2, 59328, Note_on_c, 0, 69, 92
2, 59328, Note_on_c, 0, 72, 92
2, 59520, Note_off_c, 0, 72, 64
2, 59520, Note_off_c, 0, 69, 64
2, 59520, Note_on_c, 0, 71, 92
2, 59520, Note_on_c, 0, 74, 92
2, 59712, Note_off_c, 0, 74, 64
2, 59712, Note_off_c, 0, 71, 64
2, 59712, Note_on_c, 0, 69, 92
2, 59712, Note_on_c, 0, 72, 92
2, 59904, Note_off_c, 0, 72, 64
2, 59904, Note_off_c, 0, 69, 64
2, 59904, Note_on_c, 0, 67, 92
2, 59904, Note_on_c, 0, 71, 92
2, 60096, Note_off_c, 0, 71, 64
2, 60096, Note_off_c, 0, 67, 64
2, 60768, Note_on_c, 0, 67, 92
2, 60864, Note_off_c, 0, 67, 64
2, 60960, Note_on_c, 0, 67, 92
2, 61056, Note_off_c, 0, 67, 64
2, 61152, Note_on_c, 0, 67, 92
2, 61248, Note_off_c, 0, 67, 64
2, 61248, Note_on_c, 0, 62, 92
2, 61344, Note_off_c, 0, 62, 64
2, 61344, Note_on_c, 0, 67, 92
2, 61440, Note_off_c, 0, 67, 64
2, 61536, Note_on_c, 0, 67, 92
2, 61632, Note_off_c, 0, 67, 64
2, 61632, Note_on_c, 0, 62, 92
2, 61728, Note_off_c, 0, 62, 64
2, 61728, Note_on_c, 0, 67, 92
2, 61824, Note_off_c, 0, 67, 64
2, 61920, Note_on_c, 0, 67, 92
2, 62016, Note_off_c, 0, 67, 64
2, 62016, Note_on_c, 0, 62, 92
2, 62112, Note_off_c, 0, 62, 64
2, 62112, Note_on_c, 0, 67, 92
2, 62208, Note_off_c, 0, 67, 64
2, 62304, Note_on_c, 0, 67, 92
2, 62400, Note_off_c, 0, 67, 64
2, 62400, Note_on_c, 0, 67, 92
2, 62496, Note_off_c, 0, 67, 64
2, 62496, Note_on_c, 0, 67, 92
2, 62592, Note_off_c, 0, 67, 64
2, 62592, Note_on_c, 0, 67, 92
2, 62688, Note_off_c, 0, 67, 64
2, 62688, Note_on_c, 0, 67, 92
2, 62784, Note_off_c, 0, 67, 64
2, 62784, Note_on_c, 0, 67, 92
2, 62880, Note_off_c, 0, 67, 64
2, 62880, Note_on_c, 0, 67, 92
2, 62976, Note_off_c, 0, 67, 64
2, 63072, Note_on_c, 0, 71, 92
2, 63168, Note_off_c, 0, 71, 64
2, 63168, Note_on_c, 0, 67, 92
2, 63264, Note_off_c, 0, 67, 64
2, 63264, Note_on_c, 0, 71, 92
2, 63360, Note_off_c, 0, 71, 64
2, 63456, Note_on_c, 0, 71, 92
2, 63552, Note_off_c, 0, 71, 64
2, 63552, Note_on_c, 0, 67, 92
2, 63648, Note_off_c, 0, 67, 64
2, 63648, Note_on_c, 0, 71, 92
2, 63744, Note_off_c, 0, 71, 64
2, 63840, Note_on_c, 0, 71, 92
2, 63936, Note_off_c, 0, 71, 64
2, 63936, Note_on_c, 0, 67, 92
2, 64032, Note_off_c, 0, 67, 64
2, 64032, Note_on_c, 0, 71, 92
2, 64128, Note_off_c, 0, 71, 64
2, 64224, Note_on_c, 0, 71, 92
2, 64320, Note_off_c, 0, 71, 64
2, 64320, Note_on_c, 0, 67, 92
2, 64416, Note_off_c, 0, 67, 64
2, 64416, Note_on_c, 0, 71, 92
2, 64512, Note_off_c, 0, 71, 64
2, 64608, Note_on_c, 0, 71, 92
2, 64704, Note_off_c, 0, 71, 64
2, 64704, Note_on_c, 0, 71, 92
2, 64800, Note_off_c, 0, 71, 64
2, 64800, Note_on_c, 0, 71, 92
2, 64896, Note_off_c, 0, 71, 64
2, 64896, Note_on_c, 0, 71, 92
2, 64992, Note_off_c, 0, 71, 64
2, 64992, Note_on_c, 0, 71, 92
2, 65088, Note_off_c, 0, 71, 64
2, 65088, Note_on_c, 0, 71, 92
2, 65184, Note_off_c, 0, 71, 64
2, 65184, Note_on_c, 0, 71, 92
2, 65280, Note_off_c, 0, 71, 64
2, 65376, Note_on_c, 0, 74, 92
2, 65472, Note_off_c, 0, 74, 64
2, 65472, Note_on_c, 0, 71, 92
2, 65568, Note_off_c, 0, 71, 64
2, 65568, Note_on_c, 0, 74, 92
2, 65664, Note_off_c, 0, 74, 64
2, 65760, Note_on_c, 0, 74, 92
2, 65856, Note_off_c, 0, 74, 64
2, 65856, Note_on_c, 0, 71, 92
2, 65952, Note_off_c, 0, 71, 64
2, 65952, Note_on_c, 0, 74, 92
2, 66048, Note_off_c, 0, 74, 64
2, 66144, Note_on_c, 0, 74, 92
2, 66240, Note_off_c, 0, 74, 64
2, 66240, Note_on_c, 0, 71, 92
2, 66336, Note_off_c, 0, 71, 64
2, 66336, Note_on_c, 0, 74, 92
2, 66432, Note_off_c, 0, 74, 64
2, 66528, Note_on_c, 0, 74, 92
2, 66624, Note_off_c, 0, 74, 64
2, 66624, Note_on_c, 0, 71, 92
2, 66720, Note_off_c, 0, 71, 64
2, 66720, Note_on_c, 0, 74, 92
2, 66816, Note_off_c, 0, 74, 64
2, 66912, Note_on_c, 0, 74, 92
2, 67008, Note_off_c, 0, 74, 64
2, 67008, Note_on_c, 0, 74, 92
2, 67104, Note_off_c, 0, 74, 64
2, 67104, Note_on_c, 0, 74, 92
2, 67200, Note_off_c, 0, 74, 64
2, 67200, Note_on_c, 0, 74, 92
2, 67296, Note_off_c, 0, 74, 64
2, 67296, Note_on_c, 0, 74, 92
2, 67392, Note_off_c, 0, 74, 64
2, 67392, Note_on_c, 0, 74, 92
2, 67488, Note_off_c, 0, 74, 64
2, 67488, Note_on_c, 0, 74, 92
2, 67584, Note_off_c, 0, 74, 64
2, 67680, Note_on_c, 0, 79, 92
2, 67776, Note_off_c, 0, 79, 64
2, 67776, Note_on_c, 0, 74, 92
2, 67872, Note_off_c, 0, 74, 64
2, 67872, Note_on_c, 0, 79, 92
2, 67968, Note_off_c, 0, 79, 64
2, 68064, Note_on_c, 0, 79, 92
2, 68160, Note_off_c, 0, 79, 64
2, 68160, Note_on_c, 0, 74, 92
2, 68256, Note_off_c, 0, 74, 64
2, 68256, Note_on_c, 0, 79, 92
2, 68352, Note_off_c, 0, 79, 64
2, 68448, Note_on_c, 0, 79, 92
2, 68544, Note_off_c, 0, 79, 64
2, 68544, Note_on_c, 0, 74, 92
2, 68640, Note_off_c, 0, 74, 64
2, 68640, Note_on_c, 0, 79, 92
2, 68736, Note_off_c, 0, 79, 64
2, 68832, Note_on_c, 0, 79, 92
2, 68928, Note_off_c, 0, 79, 64
2, 68928, Note_on_c, 0, 74, 92
2, 69024, Note_off_c, 0, 74, 64
2, 69024, Note_on_c, 0, 79, 92
2, 69120, Note_off_c, 0, 79, 64
2, 69216, Note_on_c, 0, 77, 92
2, 69312, Note_off_c, 0, 77, 64
2, 69312, Note_on_c, 0, 74, 92
2, 69408, Note_off_c, 0, 74, 64
2, 69408, Note_on_c, 0, 77, 92
2, 69504, Note_off_c, 0, 77, 64
2, 69600, Note_on_c, 0, 77, 92
2, 69696, Note_off_c, 0, 77, 64
2, 69696, Note_on_c, 0, 74, 92
2, 69792, Note_off_c, 0, 74, 64
2, 69792, Note_on_c, 0, 77, 92
2, 69888, Note_off_c, 0, 77, 64
2, 69984, Note_on_c, 0, 77, 92
2, 70080, Note_off_c, 0, 77, 64
2, 70080, Note_on_c, 0, 74, 92
2, 70176, Note_off_c, 0, 74, 64
2, 70176, Note_on_c, 0, 77, 92
2, 70272, Note_off_c, 0, 77, 64
2, 70368, Note_on_c, 0, 77, 92
2, 70464, Note_off_c, 0, 77, 64
2, 70464, Note_on_c, 0, 74, 92
2, 70560, Note_off_c, 0, 74, 64
2, 70560, Note_on_c, 0, 77, 92
2, 70656, Note_off_c, 0, 77, 64
2, 70752, Note_on_c, 0, 76, 92
2, 70848, Note_off_c, 0, 76, 64
2, 70848, Note_on_c, 0, 72, 92
2, 70944, Note_off_c, 0, 72, 64
2, 70944, Note_on_c, 0, 76, 92
2, 71040, Note_off_c, 0, 76, 64
2, 71136, Note_on_c, 0, 76, 92
2, 71232, Note_off_c, 0, 76, 64
2, 71232, Note_on_c, 0, 72, 92
2, 71328, Note_off_c, 0, 72, 64
2, 71328, Note_on_c, 0, 76, 92
2, 71424, Note_off_c, 0, 76, 64
2, 71520, Note_on_c, 0, 76, 92
2, 71616, Note_off_c, 0, 76, 64
2, 71616, Note_on_c, 0, 72, 92
2, 71712, Note_off_c, 0, 72, 64
2, 71712, Note_on_c, 0, 76, 92
2, 71808, Note_off_c, 0, 76, 64
2, 71904, Note_on_c, 0, 76, 92
2, 72000, Note_off_c, 0, 76, 64
2, 72000, Note_on_c, 0, 72, 92
2, 72096, Note_off_c, 0, 72, 64
2, 72096, Note_on_c, 0, 76, 92
2, 72192, Note_off_c, 0, 76, 64
2, 72288, Note_on_c, 0, 74, 92
2, 72384, Note_off_c, 0, 74, 64
2, 72384, Note_on_c, 0, 71, 92
2, 72480, Note_off_c, 0, 71, 64
2, 72480, Note_on_c, 0, 74, 92
2, 72576, Note_off_c, 0, 74, 64
2, 72672, Note_on_c, 0, 74, 92
2, 72768, Note_off_c, 0, 74, 64
2, 72768, Note_on_c, 0, 71, 92
2, 72864, Note_off_c, 0, 71, 64
2, 72864, Note_on_c, 0, 74, 92
2, 72960, Note_off_c, 0, 74, 64
2, 73056, Note_on_c, 0, 74, 92
2, 73152, Note_off_c, 0, 74, 64
2, 73152, Note_on_c, 0, 71, 92
2, 73248, Note_off_c, 0, 71, 64
2, 73248, Note_on_c, 0, 74, 92
2, 73344, Note_off_c, 0, 74, 64
2, 73440, Note_on_c, 0, 74, 92
2, 73536, Note_off_c, 0, 74, 64
2, 73536, Note_on_c, 0, 71, 92
2, 73632, Note_off_c, 0, 71, 64
2, 73632, Note_on_c, 0, 74, 92
2, 73728, Note_off_c, 0, 74, 64
2, 73824, Note_on_c, 0, 72, 92
2, 73920, Note_off_c, 0, 72, 64
2, 73920, Note_on_c, 0, 69, 92
2, 74016, Note_off_c, 0, 69, 64
2, 74016, Note_on_c, 0, 72, 92
2, 74112, Note_off_c, 0, 72, 64
2, 74208, Note_on_c, 0, 72, 92
2, 74304, Note_off_c, 0, 72, 64
2, 74304, Note_on_c, 0, 69, 92
2, 74400, Note_off_c, 0, 69, 64
2, 74400, Note_on_c, 0, 72, 92
2, 74496, Note_off_c, 0, 72, 64
2, 74592, Note_on_c, 0, 72, 92
2, 74688, Note_off_c, 0, 72, 64
2, 74688, Note_on_c, 0, 69, 92
2, 74784, Note_off_c, 0, 69, 64
2, 74784, Note_on_c, 0, 72, 92
2, 74880, Note_off_c, 0, 72, 64
2, 74976, Note_on_c, 0, 72, 92
2, 75072, Note_off_c, 0, 72, 64
2, 75072, Note_on_c, 0, 69, 92
2, 75168, Note_off_c, 0, 69, 64
2, 75168, Note_on_c, 0, 72, 92
2, 75264, Note_off_c, 0, 72, 64
2, 75360, Note_on_c, 0, 71, 92
2, 75456, Note_off_c, 0, 71, 64
2, 75456, Note_on_c, 0, 67, 92
2, 75552, Note_off_c, 0, 67, 64
2, 75552, Note_on_c, 0, 71, 92
2, 75648, Note_off_c, 0, 71, 64
2, 75744, Note_on_c, 0, 71, 92
2, 75840, Note_off_c, 0, 71, 64
2, 75840, Note_on_c, 0, 67, 92
2, 75936, Note_off_c, 0, 67, 64
2, 75936, Note_on_c, 0, 71, 92
2, 76032, Note_off_c, 0, 71, 64
2, 76128, Note_on_c, 0, 71, 92
2, 76224, Note_off_c, 0, 71, 64
2, 76224, Note_on_c, 0, 67, 92
2, 76320, Note_off_c, 0, 67, 64
2, 76320, Note_on_c, 0, 71, 92
2, 76416, Note_off_c, 0, 71, 64
2, 76512, Note_on_c, 0, 71, 92
2, 76608, Note_off_c, 0, 71, 64
2, 76608, Note_on_c, 0, 67, 92
2, 76704, Note_off_c, 0, 67, 64
2, 76704, Note_on_c, 0, 71, 92
2, 76800, Note_off_c, 0, 71, 64
2, 76800, Note_on_c, 0, 67, 92
2, 76896, Note_off_c, 0, 67, 64
2, 77088, Note_on_c, 0, 67, 92
2, 77184, Note_off_c, 0, 67, 64
2, 77184, Note_on_c, 0, 67, 92
2, 77280, Note_off_c, 0, 67, 64
2, 77280, Note_on_c, 0, 71, 92
2, 77376, Note_off_c, 0, 71, 64
2, 77376, Note_on_c, 0, 69, 92
2, 77472, Note_off_c, 0, 69, 64
2, 77472, Note_on_c, 0, 71, 92
2, 77568, Note_off_c, 0, 71, 64
2, 77568, Note_on_c, 0, 67, 92
2, 77664, Note_off_c, 0, 67, 64
2, 77856, Note_on_c, 0, 67, 92
2, 77952, Note_off_c, 0, 67, 64
2, 77952, Note_on_c, 0, 67, 92
2, 78048, Note_off_c, 0, 67, 64
2, 78048, Note_on_c, 0, 71, 92
2, 78144, Note_off_c, 0, 71, 64
2, 78144, Note_on_c, 0, 69, 92
2, 78240, Note_off_c, 0, 69, 64
2, 78240, Note_on_c, 0, 67, 92
2, 78336, Note_off_c, 0, 67, 64
2, 78336, Note_on_c, 0, 69, 92
2, 78432, Note_off_c, 0, 69, 64
2, 78624, Note_on_c, 0, 69, 92
2, 78720, Note_off_c, 0, 69, 64
2, 78720, Note_on_c, 0, 69, 92
2, 78816, Note_off_c, 0, 69, 64
2, 78816, Note_on_c, 0, 72, 92
2, 78912, Note_off_c, 0, 72, 64
2, 78912, Note_on_c, 0, 71, 92
2, 79008, Note_off_c, 0, 71, 64
2, 79008, Note_on_c, 0, 69, 92
2, 79104, Note_off_c, 0, 69, 64
2, 79104, Note_on_c, 0, 71, 92
2, 79200, Note_off_c, 0, 71, 64
2, 79392, Note_on_c, 0, 71, 92
2, 79488, Note_off_c, 0, 71, 64
2, 79488, Note_on_c, 0, 71, 92
2, 79584, Note_off_c, 0, 71, 64
2, 79584, Note_on_c, 0, 74, 92
2, 79680, Note_off_c, 0, 74, 64
2, 79680, Note_on_c, 0, 72, 92
2, 79776, Note_off_c, 0, 72, 64
2, 79776, Note_on_c, 0, 71, 92
2, 79872, Note_off_c, 0, 71, 64
2, 79872, Note_on_c, 0, 72, 92
2, 79968, Note_off_c, 0, 72, 64
2, 80160, Note_on_c, 0, 72, 92
2, 80256, Note_off_c, 0, 72, 64
2, 80256, Note_on_c, 0, 72, 92
2, 80352, Note_off_c, 0, 72, 64
2, 80352, Note_on_c, 0, 76, 92
2, 80448, Note_off_c, 0, 76, 64
2, 80448, Note_on_c, 0, 74, 92
2, 80544, Note_off_c, 0, 74, 64
2, 80544, Note_on_c, 0, 72, 92
2, 80640, Note_off_c, 0, 72, 64
2, 80640, Note_on_c, 0, 74, 92
2, 80736, Note_off_c, 0, 74, 64
2, 80928, Note_on_c, 0, 74, 92
2, 81024, Note_off_c, 0, 74, 64
2, 81024, Note_on_c, 0, 74, 92
2, 81120, Note_off_c, 0, 74, 64
2, 81120, Note_on_c, 0, 78, 92
2, 81216, Note_off_c, 0, 78, 64
2, 81216, Note_on_c, 0, 76, 92
2, 81312, Note_off_c, 0, 76, 64
2, 81312, Note_on_c, 0, 74, 92
2, 81408, Note_off_c, 0, 74, 64
2, 81408, Note_on_c, 0, 76, 92
2, 81504, Note_off_c, 0, 76, 64
2, 81696, Note_on_c, 0, 76, 92
2, 81792, Note_off_c, 0, 76, 64
2, 81792, Note_on_c, 0, 76, 92
2, 81888, Note_off_c, 0, 76, 64
2, 81888, Note_on_c, 0, 79, 92
2, 81984, Note_off_c, 0, 79, 64
2, 81984, Note_on_c, 0, 78, 92
2, 82080, Note_off_c, 0, 78, 64
2, 82080, Note_on_c, 0, 76, 92
2, 82176, Note_off_c, 0, 76, 64
2, 82176, Note_on_c, 0, 78, 92
2, 82272, Note_off_c, 0, 78, 64
2, 82464, Note_on_c, 0, 78, 92
2, 82560, Note_off_c, 0, 78, 64
2, 82560, Note_on_c, 0, 78, 92
2, 82656, Note_off_c, 0, 78, 64
2, 82656, Note_on_c, 0, 81, 92
2, 82752, Note_off_c, 0, 81, 64
2, 82752, Note_on_c, 0, 79, 92
2, 82848, Note_off_c, 0, 79, 64
2, 82848, Note_on_c, 0, 78, 92
2, 82944, Note_off_c, 0, 78, 64
2, 82944, Note_on_c, 0, 79, 92
2, 83040, Note_off_c, 0, 79, 64
2, 83040, Note_on_c, 0, 62, 92
2, 83136, Note_off_c, 0, 62, 64
2, 83136, Note_on_c, 0, 67, 92
2, 83232, Note_off_c, 0, 67, 64
2, 83232, Note_on_c, 0, 62, 92
2, 83328, Note_off_c, 0, 62, 64
2, 83328, Note_on_c, 0, 67, 92
2, 83424, Note_off_c, 0, 67, 64
2, 83424, Note_on_c, 0, 62, 92
2, 83520, Note_off_c, 0, 62, 64
2, 83520, Note_on_c, 0, 67, 92
2, 83616, Note_off_c, 0, 67, 64
2, 83616, Note_on_c, 0, 62, 92
2, 83712, Note_off_c, 0, 62, 64
2, 83712, Note_on_c, 0, 67, 92
2, 83808, Note_off_c, 0, 67, 64
2, 83808, Note_on_c, 0, 62, 92
2, 83904, Note_off_c, 0, 62, 64
2, 83904, Note_on_c, 0, 71, 92
2, 83904, Note_on_c, 0, 67, 92
2, 84000, Note_off_c, 0, 67, 64
2, 84000, Note_on_c, 0, 62, 92
2, 84096, Note_off_c, 0, 62, 64
2, 84096, Note_off_c, 0, 71, 64
2, 84096, Note_on_c, 0, 69, 92
2, 84096, Note_on_c, 0, 66, 92
2, 84192, Note_off_c, 0, 66, 64
2, 84192, Note_on_c, 0, 62, 92
2, 84288, Note_off_c, 0, 62, 64
2, 84288, Note_off_c, 0, 69, 64
2, 84288, Note_on_c, 0, 67, 92
2, 84288, Note_on_c, 0, 64, 92
2, 84384, Note_off_c, 0, 64, 64
2, 84384, Note_on_c, 0, 62, 92
2, 84480, Note_off_c, 0, 62, 64
2, 84480, Note_off_c, 0, 67, 64
2, 84480, Note_on_c, 0, 69, 92
2, 84480, Note_on_c, 0, 66, 92
2, 84576, Note_off_c, 0, 66, 64
2, 84576, Note_on_c, 0, 62, 92
2, 84672, Note_off_c, 0, 62, 64
2, 84672, Note_off_c, 0, 69, 64
2, 84672, Note_on_c, 0, 72, 92
2, 84672, Note_on_c, 0, 69, 92
2, 84768, Note_off_c, 0, 69, 64
2, 84768, Note_on_c, 0, 62, 92
2, 84864, Note_off_c, 0, 62, 64
2, 84864, Note_off_c, 0, 72, 64
2, 84864, Note_on_c, 0, 71, 92
2, 84864, Note_on_c, 0, 67, 92
2, 84960, Note_off_c, 0, 67, 64
2, 84960, Note_on_c, 0, 62, 92
2, 85056, Note_off_c, 0, 62, 64
2, 85056, Note_off_c, 0, 71, 64
2, 85056, Note_on_c, 0, 69, 92
2, 85056, Note_on_c, 0, 66, 92
2, 85152, Note_off_c, 0, 66, 64
2, 85152, Note_on_c, 0, 62, 92
2, 85248, Note_off_c, 0, 62, 64
2, 85248, Note_off_c, 0, 69, 64
2, 85248, Note_on_c, 0, 71, 92
2, 85248, Note_on_c, 0, 67, 92
2, 85344, Note_off_c, 0, 67, 64
2, 85344, Note_on_c, 0, 62, 92
2, 85440, Note_off_c, 0, 62, 64
2, 85440, Note_off_c, 0, 71, 64
2, 85440, Note_on_c, 0, 74, 92
2, 85440, Note_on_c, 0, 71, 92
2, 85536, Note_off_c, 0, 71, 64
2, 85536, Note_on_c, 0, 62, 92
2, 85632, Note_off_c, 0, 62, 64
2, 85632, Note_off_c, 0, 74, 64
2, 85632, Note_on_c, 0, 72, 92
2, 85632, Note_on_c, 0, 69, 92
2, 85728, Note_off_c, 0, 69, 64
2, 85728, Note_on_c, 0, 62, 92
2, 85824, Note_off_c, 0, 62, 64
2, 85824, Note_off_c, 0, 72, 64
2, 85824, Note_on_c, 0, 71, 92
2, 85824, Note_on_c, 0, 67, 92
2, 85920, Note_off_c, 0, 67, 64
2, 85920, Note_on_c, 0, 62, 92
2, 86016, Note_off_c, 0, 62, 64
2, 86016, Note_off_c, 0, 71, 64
2, 86016, Note_on_c, 0, 69, 92
2, 86016, Note_on_c, 0, 72, 92
2, 86112, Note_off_c, 0, 69, 64
2, 86112, Note_on_c, 0, 62, 92
2, 86208, Note_off_c, 0, 62, 64
2, 86208, Note_off_c, 0, 72, 64
2, 86208, Note_on_c, 0, 72, 92
2, 86208, Note_on_c, 0, 76, 92
2, 86304, Note_off_c, 0, 72, 64
2, 86304, Note_on_c, 0, 62, 92
2, 86400, Note_off_c, 0, 62, 64
2, 86400, Note_off_c, 0, 76, 64
2, 86400, Note_on_c, 0, 71, 92
2, 86400, Note_on_c, 0, 74, 92
2, 86496, Note_off_c, 0, 71, 64
2, 86496, Note_on_c, 0, 62, 92
2, 86592, Note_off_c, 0, 62, 64
2, 86592, Note_off_c, 0, 74, 64
2, 86592, Note_on_c, 0, 69, 92
2, 86592, Note_on_c, 0, 72, 92
2, 86688, Note_off_c, 0, 69, 64
2, 86688, Note_on_c, 0, 62, 92
2, 86784, Note_off_c, 0, 62, 64
2, 86784, Note_off_c, 0, 72, 64
2, 86784, Note_on_c, 0, 71, 92
2, 86784, Note_on_c, 0, 74, 92
2, 86880, Note_off_c, 0, 74, 64
2, 86880, Note_off_c, 0, 71, 64
2, 86880, Note_on_c, 0, 67, 92
2, 86976, Note_off_c, 0, 67, 64
2, 86976, Note_on_c, 0, 66, 92
2, 87072, Note_off_c, 0, 66, 64
2, 87072, Note_on_c, 0, 64, 92
2, 87168, Note_off_c, 0, 64, 64
2, 87168, Note_on_c, 0, 62, 92
2, 87264, Note_off_c, 0, 62, 64
2, 87264, Note_on_c, 0, 60, 92
2, 87360, Note_off_c, 0, 60, 64
2, 88896, Note_on_c, 0, 71, 92
2, 88896, Note_on_c, 0, 67, 92
2, 89088, Note_off_c, 0, 67, 64
2, 89088, Note_off_c, 0, 71, 64
2, 89088, Note_on_c, 0, 67, 92
2, 89088, Note_on_c, 0, 72, 92
2, 89280, Note_off_c, 0, 72, 64
2, 89280, Note_off_c, 0, 67, 64
2, 89280, Note_on_c, 0, 67, 92
2, 89280, Note_on_c, 0, 71, 92
2, 89472, Note_off_c, 0, 71, 64
2, 89472, Note_off_c, 0, 67, 64
2, 89472, Note_on_c, 0, 67, 92
2, 89472, Note_on_c, 0, 72, 92
2, 89664, Note_off_c, 0, 72, 64
2, 89664, Note_off_c, 0, 67, 64
2, 89664, Note_on_c, 0, 67, 92
2, 89664, Note_on_c, 0, 71, 92
2, 89856, Note_off_c, 0, 71, 64
2, 89856, Note_off_c, 0, 67, 64
2, 90432, Note_on_c, 0, 71, 92
2, 90432, Note_on_c, 0, 67, 92
2, 90624, Note_off_c, 0, 67, 64
2, 90624, Note_off_c, 0, 71, 64
2, 90624, Note_on_c, 0, 67, 92
2, 90624, Note_on_c, 0, 72, 92
2, 90816, Note_off_c, 0, 72, 64
2, 90816, Note_off_c, 0, 67, 64
2, 90816, Note_on_c, 0, 67, 92
2, 90816, Note_on_c, 0, 71, 92
2, 91008, Note_off_c, 0, 71, 64
2, 91008, Note_off_c, 0, 67, 64
2, 91008, Note_on_c, 0, 67, 92
2, 91008, Note_on_c, 0, 72, 92
2, 91200, Note_off_c, 0, 72, 64
2, 91200, Note_off_c, 0, 67, 64
2, 91200, Note_on_c, 0, 67, 92
2, 91200, Note_on_c, 0, 71, 92
2, 91392, Note_off_c, 0, 71, 64
2, 91392, Note_off_c, 0, 67, 64
2, 91584, Note_on_c, 0, 67, 92
2, 91680, Note_off_c, 0, 67, 64
2, 91680, Note_on_c, 0, 69, 92
2, 91776, Note_off_c, 0, 69, 64
2, 91776, Note_on_c, 0, 71, 92
2, 91776, Note_on_c, 0, 67, 92
2, 91872, Note_off_c, 0, 71, 64
2, 91872, Note_on_c, 0, 72, 92
2, 91968, Note_off_c, 0, 72, 64
2, 91968, Note_off_c, 0, 67, 64
2, 91968, Note_on_c, 0, 74, 92
2, 91968, Note_on_c, 0, 67, 92
2, 92064, Note_off_c, 0, 74, 64
2, 92064, Note_on_c, 0, 71, 92
2, 92160, Note_off_c, 0, 71, 64
2, 92160, Note_off_c, 0, 67, 64
2, 92160, Note_on_c, 0, 72, 92
2, 92160, Note_on_c, 0, 67, 92
2, 92256, Note_off_c, 0, 72, 64
2, 92256, Note_on_c, 0, 74, 92
2, 92352, Note_off_c, 0, 74, 64
2, 92352, Note_off_c, 0, 67, 64
2, 92352, Note_on_c, 0, 76, 92
2, 92448, Note_off_c, 0, 76, 64
2, 92448, Note_on_c, 0, 77, 92
2, 92544, Note_off_c, 0, 77, 64
2, 92544, Note_on_c, 0, 79, 92
2, 92736, Note_off_c, 0, 79, 64
2, 92736, Note_on_c, 0, 72, 92
2, 92736, Note_on_c, 0, 76, 92
2, 92736, Note_on_c, 0, 79, 92
2, 92928, Note_off_c, 0, 79, 64
2, 92928, Note_off_c, 0, 76, 64
2, 92928, Note_off_c, 0, 72, 64
2, 92928, Note_on_c, 0, 81, 92
2, 92928, Note_on_c, 0, 77, 92
2, 92928, Note_on_c, 0, 72, 92
2, 93120, Note_off_c, 0, 72, 64
2, 93120, Note_off_c, 0, 77, 64
2, 93120, Note_off_c, 0, 81, 64
2, 93120, Note_on_c, 0, 79, 92
2, 93120, Note_on_c, 0, 76, 92
2, 93120, Note_on_c, 0, 72, 92
2, 93312, Note_off_c, 0, 72, 64
2, 93312, Note_off_c, 0, 76, 64
2, 93312, Note_off_c, 0, 79, 64
2, 93312, Note_on_c, 0, 81, 92
2, 93312, Note_on_c, 0, 77, 92
2, 93312, Note_on_c, 0, 72, 92
2, 93504, Note_off_c, 0, 72, 64
2, 93504, Note_off_c, 0, 77, 64
2, 93504, Note_off_c, 0, 81, 64
2, 93504, Note_on_c, 0, 79, 92
2, 93504, Note_on_c, 0, 76, 92
2, 93504, Note_on_c, 0, 72, 92
2, 93696, Note_off_c, 0, 72, 64
2, 93696, Note_off_c, 0, 76, 64
2, 93696, Note_off_c, 0, 79, 64
2, 93696, Note_on_c, 0, 72, 92
2, 93792, Note_off_c, 0, 72, 64
2, 93792, Note_on_c, 0, 74, 92
2, 93888, Note_off_c, 0, 74, 64
2, 93888, Note_on_c, 0, 76, 92
2, 93984, Note_off_c, 0, 76, 64
2, 93984, Note_on_c, 0, 77, 92
2, 94080, Note_off_c, 0, 77, 64
2, 94080, Note_on_c, 0, 79, 92
2, 94272, Note_off_c, 0, 79, 64
2, 94272, Note_on_c, 0, 72, 92
2, 94272, Note_on_c, 0, 76, 92
2, 94272, Note_on_c, 0, 79, 92
2, 94464, Note_off_c, 0, 79, 64
2, 94464, Note_off_c, 0, 76, 64
2, 94464, Note_off_c, 0, 72, 64
2, 94464, Note_on_c, 0, 72, 92
2, 94464, Note_on_c, 0, 77, 92
2, 94464, Note_on_c, 0, 81, 92
2, 94656, Note_off_c, 0, 81, 64
2, 94656, Note_off_c, 0, 77, 64
2, 94656, Note_off_c, 0, 72, 64
2, 94656, Note_on_c, 0, 72, 92
2, 94656, Note_on_c, 0, 76, 92
2, 94656, Note_on_c, 0, 79, 92
2, 94848, Note_off_c, 0, 79, 64
2, 94848, Note_off_c, 0, 76, 64
2, 94848, Note_off_c, 0, 72, 64
2, 94848, Note_on_c, 0, 72, 92
2, 94848, Note_on_c, 0, 77, 92
2, 94848, Note_on_c, 0, 81, 92
2, 95040, Note_off_c, 0, 81, 64
2, 95040, Note_off_c, 0, 77, 64
2, 95040, Note_off_c, 0, 72, 64
2, 95040, Note_on_c, 0, 72, 92
2, 95040, Note_on_c, 0, 76, 92
2, 95040, Note_on_c, 0, 79, 92
2, 95232, Note_off_c, 0, 79, 64
2, 95232, Note_off_c, 0, 76, 64
2, 95232, Note_off_c, 0, 72, 64
2, 95232, Note_on_c, 0, 72, 92
2, 95328, Note_off_c, 0, 72, 64
2, 95328, Note_on_c, 0, 74, 92
2, 95424, Note_off_c, 0, 74, 64
2, 95424, Note_on_c, 0, 76, 92
2, 95520, Note_off_c, 0, 76, 64
2, 95520, Note_on_c, 0, 77, 92
2, 95616, Note_off_c, 0, 77, 64
2, 95616, Note_on_c, 0, 74, 92
2, 95616, Note_on_c, 0, 79, 92
2, 95712, Note_off_c, 0, 79, 64
2, 95712, Note_on_c, 0, 81, 92
2, 95808, Note_off_c, 0, 81, 64
2, 95808, Note_off_c, 0, 74, 64
2, 95808, Note_on_c, 0, 74, 92
2, 95808, Note_on_c, 0, 79, 92
2, 95904, Note_off_c, 0, 79, 64
2, 95904, Note_on_c, 0, 77, 92
2, 96000, Note_off_c, 0, 77, 64
2, 96000, Note_off_c, 0, 74, 64
2, 96000, Note_on_c, 0, 72, 92
2, 96000, Note_on_c, 0, 76, 92
2, 96096, Note_off_c, 0, 76, 64
2, 96096, Note_on_c, 0, 77, 92
2, 96192, Note_off_c, 0, 77, 64
2, 96192, Note_off_c, 0, 72, 64
2, 96192, Note_on_c, 0, 79, 92
2, 96288, Note_off_c, 0, 79, 64
2, 96288, Note_on_c, 0, 77, 92
2, 96384, Note_off_c, 0, 77, 64
2, 96384, Note_on_c, 0, 76, 92
2, 96480, Note_off_c, 0, 76, 64
2, 96480, Note_on_c, 0, 74, 92
2, 96576, Note_off_c, 0, 74, 64
2, 96576, Note_on_c, 0, 72, 92
2, 96672, Note_off_c, 0, 72, 64
2, 96672, Note_on_c, 0, 71, 92
2, 96768, Note_off_c, 0, 71, 64
2, 96768, Note_on_c, 0, 64, 92
2, 96768, Note_on_c, 0, 72, 92
2, 96864, Note_off_c, 0, 72, 64
2, 96864, Note_off_c, 0, 64, 64
2, 96864, Note_on_c, 0, 65, 92
2, 96864, Note_on_c, 0, 74, 92
2, 96960, Note_off_c, 0, 74, 64
2, 96960, Note_off_c, 0, 65, 64
2, 96960, Note_on_c, 0, 67, 92
2, 96960, Note_on_c, 0, 76, 92
2, 97056, Note_off_c, 0, 76, 64
2, 97056, Note_off_c, 0, 67, 64
2, 97056, Note_on_c, 0, 65, 92
2, 97056, Note_on_c, 0, 74, 92
2, 97152, Note_off_c, 0, 74, 64
2, 97152, Note_off_c, 0, 65, 64
2, 97152, Note_on_c, 0, 64, 92
2, 97152, Note_on_c, 0, 72, 92
2, 97248, Note_off_c, 0, 72, 64
2, 97248, Note_off_c, 0, 64, 64
2, 97248, Note_on_c, 0, 62, 92
2, 97248, Note_on_c, 0, 71, 92
2, 97344, Note_off_c, 0, 71, 64
2, 97344, Note_off_c, 0, 62, 64
2, 97344, Note_on_c, 0, 60, 92
2, 97344, Note_on_c, 0, 69, 92
2, 97440, Note_off_c, 0, 69, 64
2, 97440, Note_off_c, 0, 60, 64
2, 97440, Note_on_c, 0, 67, 92
2, 97536, Note_off_c, 0, 67, 64
2, 97536, Note_on_c, 0, 77, 92
2, 97632, Note_off_c, 0, 77, 64
2, 97632, Note_on_c, 0, 79, 92
2, 97728, Note_off_c, 0, 79, 64
2, 97728, Note_on_c, 0, 81, 92
2, 97824, Note_off_c, 0, 81, 64
2, 97824, Note_on_c, 0, 79, 92
2, 97920, Note_off_c, 0, 79, 64
2, 97920, Note_on_c, 0, 77, 92
2, 98016, Note_off_c, 0, 77, 64
2, 98016, Note_on_c, 0, 76, 92
2, 98112, Note_off_c, 0, 76, 64
2, 98112, Note_on_c, 0, 74, 92
2, 98208, Note_off_c, 0, 74, 64
2, 98208, Note_on_c, 0, 72, 92
2, 98304, Note_off_c, 0, 72, 64
2, 98304, Note_on_c, 0, 65, 92
2, 98304, Note_on_c, 0, 74, 92
2, 98400, Note_off_c, 0, 74, 64
2, 98400, Note_off_c, 0, 65, 64
2, 98400, Note_on_c, 0, 67, 92
2, 98400, Note_on_c, 0, 76, 92
2, 98496, Note_off_c, 0, 76, 64
2, 98496, Note_off_c, 0, 67, 64
2, 98496, Note_on_c, 0, 69, 92
2, 98496, Note_on_c, 0, 77, 92
2, 98592, Note_off_c, 0, 77, 64
2, 98592, Note_off_c, 0, 69, 64
2, 98592, Note_on_c, 0, 67, 92
2, 98592, Note_on_c, 0, 76, 92
2, 98688, Note_off_c, 0, 76, 64
2, 98688, Note_off_c, 0, 67, 64
2, 98688, Note_on_c, 0, 65, 92
2, 98688, Note_on_c, 0, 74, 92
2, 98784, Note_off_c, 0, 74, 64
2, 98784, Note_off_c, 0, 65, 64
2, 98784, Note_on_c, 0, 64, 92
2, 98784, Note_on_c, 0, 72, 92
2, 98880, Note_off_c, 0, 72, 64
2, 98880, Note_off_c, 0, 64, 64
2, 98880, Note_on_c, 0, 62, 92
2, 98880, Note_on_c, 0, 71, 92
2, 98976, Note_off_c, 0, 71, 64
2, 98976, Note_off_c, 0, 62, 64
2, 98976, Note_on_c, 0, 60, 92
2, 98976, Note_on_c, 0, 69, 92
2, 99072, Note_off_c, 0, 69, 64
2, 99072, Note_off_c, 0, 60, 64
2, 99072, Note_on_c, 0, 64, 92
2, 99168, Note_off_c, 0, 64, 64
2, 99168, Note_on_c, 0, 68, 92
2, 99264, Note_off_c, 0, 68, 64
2, 99264, Note_on_c, 0, 74, 92
2, 99360, Note_off_c, 0, 74, 64
2, 99360, Note_on_c, 0, 68, 92
2, 99456, Note_off_c, 0, 68, 64
2, 99456, Note_on_c, 0, 64, 92
2, 99552, Note_off_c, 0, 64, 64
2, 99552, Note_on_c, 0, 68, 92
2, 99648, Note_off_c, 0, 68, 64
2, 99648, Note_on_c, 0, 74, 92
2, 99744, Note_off_c, 0, 74, 64
2, 99744, Note_on_c, 0, 68, 92
2, 99840, Note_off_c, 0, 68, 64
2, 99840, Note_on_c, 0, 64, 92
2, 99936, Note_off_c, 0, 64, 64
2, 99936, Note_on_c, 0, 68, 92
2, 100032, Note_off_c, 0, 68, 64
2, 100032, Note_on_c, 0, 74, 92
2, 100128, Note_off_c, 0, 74, 64
2, 100128, Note_on_c, 0, 77, 92
2, 100224, Note_off_c, 0, 77, 64
2, 100224, Note_on_c, 0, 76, 92
2, 100320, Note_off_c, 0, 76, 64
2, 100320, Note_on_c, 0, 74, 92
2, 100416, Note_off_c, 0, 74, 64
2, 100416, Note_on_c, 0, 72, 92
2, 100512, Note_off_c, 0, 72, 64
2, 100512, Note_on_c, 0, 71, 92
2, 100608, Note_off_c, 0, 71, 64
2, 100608, Note_on_c, 0, 72, 92
2, 100704, Note_off_c, 0, 72, 64
2, 100704, Note_on_c, 0, 69, 92
2, 100800, Note_off_c, 0, 69, 64
2, 100800, Note_on_c, 0, 70, 92
2, 100896, Note_off_c, 0, 70, 64
2, 100896, Note_on_c, 0, 72, 92
2, 100992, Note_off_c, 0, 72, 64
2, 100992, Note_on_c, 0, 66, 92
2, 101088, Note_off_c, 0, 66, 64
2, 101088, Note_on_c, 0, 69, 92
2, 101184, Note_off_c, 0, 69, 64
2, 101184, Note_on_c, 0, 70, 92
2, 101280, Note_off_c, 0, 70, 64
2, 101280, Note_on_c, 0, 72, 92
2, 101376, Note_off_c, 0, 72, 64
2, 101376, Note_on_c, 0, 62, 92
2, 101472, Note_off_c, 0, 62, 64
2, 101472, Note_on_c, 0, 69, 92
2, 101568, Note_off_c, 0, 69, 64
2, 101568, Note_on_c, 0, 70, 92
2, 101664, Note_off_c, 0, 70, 64
2, 101664, Note_on_c, 0, 72, 92
2, 101760, Note_off_c, 0, 72, 64
2, 101760, Note_on_c, 0, 66, 92
2, 101856, Note_off_c, 0, 66, 64
2, 101856, Note_on_c, 0, 69, 92
2, 101952, Note_off_c, 0, 69, 64
2, 101952, Note_on_c, 0, 70, 92
2, 102048, Note_off_c, 0, 70, 64
2, 102048, Note_on_c, 0, 72, 92
2, 102144, Note_off_c, 0, 72, 64
2, 102144, Note_on_c, 0, 62, 92
2, 102240, Note_off_c, 0, 62, 64
2, 102240, Note_on_c, 0, 69, 92
2, 102336, Note_off_c, 0, 69, 64
2, 102336, Note_on_c, 0, 70, 92
2, 102432, Note_off_c, 0, 70, 64
2, 102432, Note_on_c, 0, 72, 92
2, 102528, Note_off_c, 0, 72, 64
2, 102528, Note_on_c, 0, 74, 92
2, 102624, Note_off_c, 0, 74, 64
2, 102624, Note_on_c, 0, 72, 92
2, 102720, Note_off_c, 0, 72, 64
2, 102720, Note_on_c, 0, 70, 92
2, 102816, Note_off_c, 0, 70, 64
2, 102816, Note_on_c, 0, 69, 92
2, 102912, Note_off_c, 0, 69, 64
2, 102912, Note_on_c, 0, 70, 92
2, 103008, Note_off_c, 0, 70, 64
2, 103008, Note_on_c, 0, 67, 92
2, 103104, Note_off_c, 0, 67, 64
2, 103104, Note_on_c, 0, 69, 92
2, 103200, Note_off_c, 0, 69, 64
2, 103200, Note_on_c, 0, 70, 92
2, 103296, Note_off_c, 0, 70, 64
2, 103296, Note_on_c, 0, 64, 92
2, 103392, Note_off_c, 0, 64, 64
2, 103392, Note_on_c, 0, 67, 92
2, 103488, Note_off_c, 0, 67, 64
2, 103488, Note_on_c, 0, 69, 92
2, 103584, Note_off_c, 0, 69, 64
2, 103584, Note_on_c, 0, 70, 92
2, 103680, Note_off_c, 0, 70, 64
2, 103680, Note_on_c, 0, 60, 92
2, 103776, Note_off_c, 0, 60, 64
2, 103776, Note_on_c, 0, 67, 92
2, 103872, Note_off_c, 0, 67, 64
2, 103872, Note_on_c, 0, 69, 92
2, 103968, Note_off_c, 0, 69, 64
2, 103968, Note_on_c, 0, 70, 92
2, 104064, Note_off_c, 0, 70, 64
2, 104064, Note_on_c, 0, 64, 92
2, 104160, Note_off_c, 0, 64, 64
2, 104160, Note_on_c, 0, 67, 92
2, 104256, Note_off_c, 0, 67, 64
2, 104256, Note_on_c, 0, 69, 92
2, 104352, Note_off_c, 0, 69, 64
2, 104352, Note_on_c, 0, 70, 92
2, 104448, Note_off_c, 0, 70, 64
2, 104448, Note_on_c, 0, 60, 92
2, 104544, Note_off_c, 0, 60, 64
2, 104544, Note_on_c, 0, 67, 92
2, 104640, Note_off_c, 0, 67, 64
2, 104640, Note_on_c, 0, 69, 92
2, 104736, Note_off_c, 0, 69, 64
2, 104736, Note_on_c, 0, 70, 92
2, 104832, Note_off_c, 0, 70, 64
2, 104832, Note_on_c, 0, 72, 92
2, 104928, Note_off_c, 0, 72, 64
2, 104928, Note_on_c, 0, 70, 92
2, 105024, Note_off_c, 0, 70, 64
2, 105024, Note_on_c, 0, 69, 92
2, 105120, Note_off_c, 0, 69, 64
2, 105120, Note_on_c, 0, 67, 92
2, 105216, Note_off_c, 0, 67, 64
2, 105216, Note_on_c, 0, 69, 92
2, 105312, Note_off_c, 0, 69, 64
2, 105312, Note_on_c, 0, 65, 92
2, 105408, Note_off_c, 0, 65, 64
2, 105408, Note_on_c, 0, 64, 92
2, 105504, Note_off_c, 0, 64, 64
2, 105504, Note_on_c, 0, 65, 92
2, 105600, Note_off_c, 0, 65, 64
2, 105600, Note_on_c, 0, 69, 92
2, 105696, Note_off_c, 0, 69, 64
2, 105696, Note_on_c, 0, 72, 92
2, 105792, Note_off_c, 0, 72, 64
2, 105792, Note_on_c, 0, 70, 92
2, 105888, Note_off_c, 0, 70, 64
2, 105888, Note_on_c, 0, 72, 92
2, 105984, Note_off_c, 0, 72, 64
2, 105984, Note_on_c, 0, 75, 92
2, 106080, Note_off_c, 0, 75, 64
2, 106080, Note_on_c, 0, 72, 92
2, 106176, Note_off_c, 0, 72, 64
2, 106176, Note_on_c, 0, 70, 92
2, 106272, Note_off_c, 0, 70, 64
2, 106272, Note_on_c, 0, 72, 92
2, 106368, Note_off_c, 0, 72, 64
2, 106368, Note_on_c, 0, 69, 92
2, 106464, Note_off_c, 0, 69, 64
2, 106464, Note_on_c, 0, 72, 92
2, 106560, Note_off_c, 0, 72, 64
2, 106560, Note_on_c, 0, 70, 92
2, 106656, Note_off_c, 0, 70, 64
2, 106656, Note_on_c, 0, 72, 92
2, 106752, Note_off_c, 0, 72, 64
2, 106752, Note_on_c, 0, 75, 92
2, 106848, Note_off_c, 0, 75, 64
2, 106848, Note_on_c, 0, 72, 92
2, 106944, Note_off_c, 0, 72, 64
2, 106944, Note_on_c, 0, 70, 92
2, 107040, Note_off_c, 0, 70, 64
2, 107040, Note_on_c, 0, 72, 92
2, 107136, Note_off_c, 0, 72, 64
2, 107136, Note_on_c, 0, 69, 92
2, 107232, Note_off_c, 0, 69, 64
2, 107232, Note_on_c, 0, 72, 92
2, 107328, Note_off_c, 0, 72, 64
2, 107328, Note_on_c, 0, 70, 92
2, 107424, Note_off_c, 0, 70, 64
2, 107424, Note_on_c, 0, 72, 92
2, 107520, Note_off_c, 0, 72, 64
2, 107520, Note_on_c, 0, 75, 92
2, 107616, Note_off_c, 0, 75, 64
2, 107616, Note_on_c, 0, 72, 92
2, 107712, Note_off_c, 0, 72, 64
2, 107712, Note_on_c, 0, 70, 92
2, 107808, Note_off_c, 0, 70, 64
2, 107808, Note_on_c, 0, 72, 92
2, 107904, Note_off_c, 0, 72, 64
2, 107904, Note_on_c, 0, 74, 92
2, 108000, Note_off_c, 0, 74, 64
2, 108000, Note_on_c, 0, 72, 92
2, 108096, Note_off_c, 0, 72, 64
2, 108096, Note_on_c, 0, 70, 92
2, 108192, Note_off_c, 0, 70, 64
2, 108192, Note_on_c, 0, 69, 92
2, 108288, Note_off_c, 0, 69, 64
2, 108288, Note_on_c, 0, 70, 92
2, 108384, Note_off_c, 0, 70, 64
2, 108384, Note_on_c, 0, 67, 92
2, 108480, Note_off_c, 0, 67, 64
2, 108480, Note_on_c, 0, 70, 92
2, 108576, Note_off_c, 0, 70, 64
2, 108576, Note_on_c, 0, 74, 92
2, 108672, Note_off_c, 0, 74, 64
2, 108672, Note_on_c, 0, 79, 92
2, 108768, Note_off_c, 0, 79, 64
2, 108768, Note_on_c, 0, 77, 92
2, 108864, Note_off_c, 0, 77, 64
2, 108864, Note_on_c, 0, 76, 92
2, 108960, Note_off_c, 0, 76, 64
2, 108960, Note_on_c, 0, 74, 92
2, 109056, Note_off_c, 0, 74, 64
2, 109056, Note_on_c, 0, 73, 92
2, 109152, Note_off_c, 0, 73, 64
2, 109152, Note_on_c, 0, 69, 92
2, 109248, Note_off_c, 0, 69, 64
2, 109248, Note_on_c, 0, 67, 92
2, 109344, Note_off_c, 0, 67, 64
2, 109344, Note_on_c, 0, 69, 92
2, 109440, Note_off_c, 0, 69, 64
2, 109440, Note_on_c, 0, 73, 92
2, 109536, Note_off_c, 0, 73, 64
2, 109536, Note_on_c, 0, 76, 92
2, 109632, Note_off_c, 0, 76, 64
2, 109632, Note_on_c, 0, 74, 92
2, 109728, Note_off_c, 0, 74, 64
2, 109728, Note_on_c, 0, 76, 92
2, 109824, Note_off_c, 0, 76, 64
2, 109824, Note_on_c, 0, 79, 92
2, 109920, Note_off_c, 0, 79, 64
2, 109920, Note_on_c, 0, 76, 92
2, 110016, Note_off_c, 0, 76, 64
2, 110016, Note_on_c, 0, 74, 92
2, 110112, Note_off_c, 0, 74, 64
2, 110112, Note_on_c, 0, 76, 92
2, 110208, Note_off_c, 0, 76, 64
2, 110208, Note_on_c, 0, 69, 92
2, 110304, Note_off_c, 0, 69, 64
2, 110304, Note_on_c, 0, 76, 92
2, 110400, Note_off_c, 0, 76, 64
2, 110400, Note_on_c, 0, 74, 92
2, 110496, Note_off_c, 0, 74, 64
2, 110496, Note_on_c, 0, 76, 92
2, 110592, Note_off_c, 0, 76, 64
2, 110592, Note_on_c, 0, 79, 92
2, 110688, Note_off_c, 0, 79, 64
2, 110688, Note_on_c, 0, 76, 92
2, 110784, Note_off_c, 0, 76, 64
2, 110784, Note_on_c, 0, 74, 92
2, 110880, Note_off_c, 0, 74, 64
2, 110880, Note_on_c, 0, 76, 92
2, 110976, Note_off_c, 0, 76, 64
2, 110976, Note_on_c, 0, 69, 92
2, 111072, Note_off_c, 0, 69, 64
2, 111072, Note_on_c, 0, 76, 92
2, 111168, Note_off_c, 0, 76, 64
2, 111168, Note_on_c, 0, 74, 92
2, 111264, Note_off_c, 0, 74, 64
2, 111264, Note_on_c, 0, 76, 92
2, 111360, Note_off_c, 0, 76, 64
2, 111360, Note_on_c, 0, 79, 92
2, 111456, Note_off_c, 0, 79, 64
2, 111456, Note_on_c, 0, 69, 92
2, 111552, Note_off_c, 0, 69, 64
2, 111552, Note_on_c, 0, 67, 92
2, 111648, Note_off_c, 0, 67, 64
2, 111648, Note_on_c, 0, 69, 92
2, 111744, Note_off_c, 0, 69, 64
2, 111744, Note_on_c, 0, 81, 92
2, 111840, Note_off_c, 0, 81, 64
2, 111840, Note_on_c, 0, 79, 92
2, 111936, Note_off_c, 0, 79, 64
2, 111936, Note_on_c, 0, 77, 92
2, 112032, Note_off_c, 0, 77, 64
2, 112032, Note_on_c, 0, 76, 92
2, 112128, Note_off_c, 0, 76, 64
2, 112128, Note_on_c, 0, 77, 92
2, 112224, Note_off_c, 0, 77, 64
2, 112224, Note_on_c, 0, 74, 92
2, 112272, Note_off_c, 0, 74, 64
2, 112272, Note_on_c, 0, 76, 92
2, 112320, Note_off_c, 0, 76, 64
2, 112320, Note_on_c, 0, 77, 92
2, 112416, Note_off_c, 0, 77, 64
2, 112416, Note_on_c, 0, 81, 92
2, 112512, Note_off_c, 0, 81, 64
2, 112512, Note_on_c, 0, 77, 92
2, 112608, Note_off_c, 0, 77, 64
2, 112608, Note_on_c, 0, 74, 92
2, 112704, Note_off_c, 0, 74, 64
2, 112704, Note_on_c, 0, 77, 92
2, 112800, Note_off_c, 0, 77, 64
2, 112800, Note_on_c, 0, 81, 92
2, 112896, Note_off_c, 0, 81, 64
2, 112896, Note_on_c, 0, 77, 92
2, 112992, Note_off_c, 0, 77, 64
2, 112992, Note_on_c, 0, 74, 92
2, 113088, Note_off_c, 0, 74, 64
2, 113088, Note_on_c, 0, 77, 92
2, 113184, Note_off_c, 0, 77, 64
2, 113184, Note_on_c, 0, 81, 92
2, 113280, Note_off_c, 0, 81, 64
2, 113280, Note_on_c, 0, 77, 92
2, 113376, Note_off_c, 0, 77, 64
2, 113376, Note_on_c, 0, 74, 92
2, 113472, Note_off_c, 0, 74, 64
2, 113472, Note_on_c, 0, 77, 92
2, 113568, Note_off_c, 0, 77, 64
2, 113568, Note_on_c, 0, 81, 92
2, 113664, Note_off_c, 0, 81, 64
2, 113664, Note_on_c, 0, 74, 92
2, 113760, Note_off_c, 0, 74, 64
2, 113760, Note_on_c, 0, 70, 92
2, 113856, Note_off_c, 0, 70, 64
2, 113856, Note_on_c, 0, 74, 92
2, 113952, Note_off_c, 0, 74, 64
2, 113952, Note_on_c, 0, 81, 92
2, 114048, Note_off_c, 0, 81, 64
2, 114048, Note_on_c, 0, 74, 92
2, 114144, Note_off_c, 0, 74, 64
2, 114144, Note_on_c, 0, 70, 92
2, 114240, Note_off_c, 0, 70, 64
2, 114240, Note_on_c, 0, 74, 92
2, 114336, Note_off_c, 0, 74, 64
2, 114336, Note_on_c, 0, 81, 92
2, 114432, Note_off_c, 0, 81, 64
2, 114432, Note_on_c, 0, 74, 92
2, 114528, Note_off_c, 0, 74, 64
2, 114528, Note_on_c, 0, 70, 92
2, 114624, Note_off_c, 0, 70, 64
2, 114624, Note_on_c, 0, 74, 92
2, 114720, Note_off_c, 0, 74, 64
2, 114720, Note_on_c, 0, 81, 92
2, 114816, Note_off_c, 0, 81, 64
2, 114816, Note_on_c, 0, 74, 92
2, 114912, Note_off_c, 0, 74, 64
2, 114912, Note_on_c, 0, 70, 92
2, 115008, Note_off_c, 0, 70, 64
2, 115008, Note_on_c, 0, 74, 92
2, 115104, Note_off_c, 0, 74, 64
2, 115104, Note_on_c, 0, 81, 92
2, 115200, Note_off_c, 0, 81, 64
2, 115200, Note_on_c, 0, 74, 92
2, 115296, Note_off_c, 0, 74, 64
2, 115296, Note_on_c, 0, 70, 92
2, 115392, Note_off_c, 0, 70, 64
2, 115392, Note_on_c, 0, 74, 92
2, 115488, Note_off_c, 0, 74, 64
2, 115488, Note_on_c, 0, 79, 92
2, 115584, Note_off_c, 0, 79, 64
2, 115584, Note_on_c, 0, 74, 92
2, 115680, Note_off_c, 0, 74, 64
2, 115680, Note_on_c, 0, 70, 92
2, 115776, Note_off_c, 0, 70, 64
2, 115776, Note_on_c, 0, 74, 92
2, 115872, Note_off_c, 0, 74, 64
2, 115872, Note_on_c, 0, 79, 92
2, 115968, Note_off_c, 0, 79, 64
2, 115968, Note_on_c, 0, 74, 92
2, 116064, Note_off_c, 0, 74, 64
2, 116064, Note_on_c, 0, 70, 92
2, 116160, Note_off_c, 0, 70, 64
2, 116160, Note_on_c, 0, 74, 92
2, 116256, Note_off_c, 0, 74, 64
2, 116256, Note_on_c, 0, 79, 92
2, 116352, Note_off_c, 0, 79, 64
2, 116352, Note_on_c, 0, 74, 92
2, 116448, Note_off_c, 0, 74, 64
2, 116448, Note_on_c, 0, 70, 92
2, 116544, Note_off_c, 0, 70, 64
2, 116544, Note_on_c, 0, 74, 92
2, 116640, Note_off_c, 0, 74, 64
2, 116640, Note_on_c, 0, 79, 92
2, 116736, Note_off_c, 0, 79, 64
2, 116736, Note_on_c, 0, 73, 92
2, 116928, Note_off_c, 0, 73, 64
2, 116928, Note_on_c, 0, 69, 92
2, 117120, Note_off_c, 0, 69, 64
2, 117312, Note_on_c, 0, 69, 92
2, 117504, Note_off_c, 0, 69, 64
2, 117504, Note_on_c, 0, 70, 92
2, 117696, Note_off_c, 0, 70, 64
2, 117696, Note_on_c, 0, 69, 92
2, 117888, Note_off_c, 0, 69, 64
2, 117888, Note_on_c, 0, 75, 92
2, 118080, Note_off_c, 0, 75, 64
2, 118080, Note_on_c, 0, 74, 92
2, 118272, Note_off_c, 0, 74, 64
2, 118272, Note_on_c, 0, 70, 92
2, 118464, Note_off_c, 0, 70, 64
2, 118464, Note_on_c, 0, 69, 92
2, 118656, Note_off_c, 0, 69, 64
2, 118656, Note_on_c, 0, 77, 92
2, 118848, Note_off_c, 0, 77, 64
2, 118848, Note_on_c, 0, 76, 92
2, 119040, Note_off_c, 0, 76, 64
2, 119040, Note_on_c, 0, 70, 92
2, 119232, Note_off_c, 0, 70, 64
2, 119232, Note_on_c, 0, 69, 92
2, 119424, Note_off_c, 0, 69, 64
2, 119424, Note_on_c, 0, 79, 92
2, 119616, Note_off_c, 0, 79, 64
2, 119616, Note_on_c, 0, 77, 92
2, 119808, Note_off_c, 0, 77, 64
2, 119808, Note_on_c, 0, 70, 92
2, 120000, Note_off_c, 0, 70, 64
2, 120000, Note_on_c, 0, 69, 92
2, 120192, Note_off_c, 0, 69, 64
2, 120192, Note_on_c, 0, 81, 92
2, 120384, Note_off_c, 0, 81, 64
2, 120384, Note_on_c, 0, 80, 92
2, 120576, Note_off_c, 0, 80, 64
2, 120576, Note_on_c, 0, 81, 92
2, 120768, Note_off_c, 0, 81, 64
2, 120768, Note_on_c, 0, 79, 92
2, 120864, Note_off_c, 0, 79, 64
2, 120864, Note_on_c, 0, 77, 92
2, 120960, Note_off_c, 0, 77, 64
2, 120960, Note_on_c, 0, 76, 92
2, 121056, Note_off_c, 0, 76, 64
2, 121056, Note_on_c, 0, 74, 92
2, 121152, Note_off_c, 0, 74, 64
2, 121152, Note_on_c, 0, 73, 92
2, 121248, Note_off_c, 0, 73, 64
2, 121248, Note_on_c, 0, 71, 92
2, 121344, Note_off_c, 0, 71, 64
2, 121344, Note_on_c, 0, 69, 92
2, 121440, Note_off_c, 0, 69, 64
2, 121440, Note_on_c, 0, 74, 92
2, 121536, Note_off_c, 0, 74, 64
2, 121536, Note_on_c, 0, 77, 92
2, 121632, Note_off_c, 0, 77, 64
2, 121632, Note_on_c, 0, 81, 92
2, 121728, Note_off_c, 0, 81, 64
2, 121728, Note_on_c, 0, 82, 92
2, 121824, Note_off_c, 0, 82, 64
2, 121824, Note_on_c, 0, 81, 92
2, 121920, Note_off_c, 0, 81, 64
2, 121920, Note_on_c, 0, 80, 92
2, 122016, Note_off_c, 0, 80, 64
2, 122016, Note_on_c, 0, 81, 92
2, 122112, Note_off_c, 0, 81, 64
2, 122112, Note_on_c, 0, 74, 92
2, 122352, Note_off_c, 0, 74, 64
2, 122352, Note_on_c, 0, 73, 92
2, 122400, Note_off_c, 0, 73, 64
2, 122400, Note_on_c, 0, 71, 92
2, 122448, Note_off_c, 0, 71, 64
2, 122448, Note_on_c, 0, 73, 92
2, 122496, Note_off_c, 0, 73, 64
2, 122496, Note_on_c, 0, 73, 92
2, 122544, Note_off_c, 0, 73, 64
2, 122544, Note_on_c, 0, 74, 92
2, 122592, Note_off_c, 0, 74, 64
2, 122592, Note_on_c, 0, 73, 92
2, 122784, Note_off_c, 0, 73, 64
2, 122784, Note_on_c, 0, 74, 92
2, 122880, Note_off_c, 0, 74, 64
2, 122880, Note_on_c, 0, 74, 92
2, 122976, Note_off_c, 0, 74, 64
2, 122976, Note_on_c, 0, 76, 92
2, 123072, Note_off_c, 0, 76, 64
2, 123072, Note_on_c, 0, 77, 92
2, 123168, Note_off_c, 0, 77, 64
2, 123168, Note_on_c, 0, 79, 92
2, 123264, Note_off_c, 0, 79, 64
2, 123264, Note_on_c, 0, 81, 92
2, 123456, Note_off_c, 0, 81, 64
2, 123456, Note_on_c, 0, 74, 92
2, 123456, Note_on_c, 0, 77, 92
2, 123456, Note_on_c, 0, 81, 92
2, 123648, Note_off_c, 0, 81, 64
2, 123648, Note_off_c, 0, 77, 64
2, 123648, Note_off_c, 0, 74, 64
2, 123648, Note_on_c, 0, 74, 92
2, 123648, Note_on_c, 0, 79, 92
2, 123648, Note_on_c, 0, 82, 92
2, 123840, Note_off_c, 0, 82, 64
2, 123840, Note_off_c, 0, 79, 64
2, 123840, Note_off_c, 0, 74, 64
2, 123840, Note_on_c, 0, 74, 92
2, 123840, Note_on_c, 0, 77, 92
2, 123840, Note_on_c, 0, 81, 92
2, 124032, Note_off_c, 0, 81, 64
2, 124032, Note_off_c, 0, 77, 64
2, 124032, Note_off_c, 0, 74, 64
2, 124032, Note_on_c, 0, 74, 92
2, 124032, Note_on_c, 0, 79, 92
2, 124032, Note_on_c, 0, 82, 92
2, 124224, Note_off_c, 0, 82, 64
2, 124224, Note_off_c, 0, 79, 64
2, 124224, Note_off_c, 0, 74, 64
2, 124224, Note_on_c, 0, 74, 92
2, 124224, Note_on_c, 0, 77, 92
2, 124224, Note_on_c, 0, 81, 92
2, 124416, Note_off_c, 0, 81, 64
2, 124416, Note_off_c, 0, 77, 64
2, 124416, Note_off_c, 0, 74, 64
2, 124416, Note_on_c, 0, 74, 92
2, 124512, Note_off_c, 0, 74, 64
2, 124512, Note_on_c, 0, 76, 92
2, 124608, Note_off_c, 0, 76, 64
2, 124608, Note_on_c, 0, 77, 92
2, 124704, Note_off_c, 0, 77, 64
2, 124704, Note_on_c, 0, 79, 92
2, 124800, Note_off_c, 0, 79, 64
2, 124800, Note_on_c, 0, 81, 92
2, 124992, Note_off_c, 0, 81, 64
2, 124992, Note_on_c, 0, 74, 92
2, 124992, Note_on_c, 0, 77, 92
2, 124992, Note_on_c, 0, 81, 92
2, 125184, Note_off_c, 0, 81, 64
2, 125184, Note_off_c, 0, 77, 64
2, 125184, Note_off_c, 0, 74, 64
2, 125184, Note_on_c, 0, 74, 92
2, 125184, Note_on_c, 0, 79, 92
2, 125184, Note_on_c, 0, 82, 92
2, 125376, Note_off_c, 0, 82, 64
2, 125376, Note_off_c, 0, 79, 64
2, 125376, Note_off_c, 0, 74, 64
2, 125376, Note_on_c, 0, 74, 92
2, 125376, Note_on_c, 0, 77, 92
2, 125376, Note_on_c, 0, 81, 92
2, 125568, Note_off_c, 0, 81, 64
2, 125568, Note_off_c, 0, 77, 64
2, 125568, Note_off_c, 0, 74, 64
2, 125568, Note_on_c, 0, 74, 92
2, 125568, Note_on_c, 0, 79, 92
2, 125568, Note_on_c, 0, 82, 92
2, 125760, Note_off_c, 0, 82, 64
2, 125760, Note_off_c, 0, 79, 64
2, 125760, Note_off_c, 0, 74, 64
2, 125760, Note_on_c, 0, 74, 92
2, 125760, Note_on_c, 0, 77, 92
2, 125760, Note_on_c, 0, 81, 92
2, 125952, Note_off_c, 0, 81, 64
2, 125952, Note_off_c, 0, 77, 64
2, 125952, Note_off_c, 0, 74, 64
2, 125952, Note_on_c, 0, 74, 92
2, 126048, Note_off_c, 0, 74, 64
2, 126048, Note_on_c, 0, 76, 92
2, 126144, Note_off_c, 0, 76, 64
2, 126144, Note_on_c, 0, 77, 92
2, 126240, Note_off_c, 0, 77, 64
2, 126240, Note_on_c, 0, 79, 92
2, 126336, Note_off_c, 0, 79, 64
2, 126336, Note_on_c, 0, 77, 92
2, 126336, Note_on_c, 0, 81, 92
2, 126528, Note_off_c, 0, 81, 64
2, 126528, Note_off_c, 0, 77, 64
2, 126528, Note_on_c, 0, 76, 92
2, 126528, Note_on_c, 0, 79, 92
2, 126624, Note_off_c, 0, 79, 64
2, 126624, Note_off_c, 0, 76, 64
2, 126624, Note_on_c, 0, 74, 92
2, 126624, Note_on_c, 0, 77, 92
2, 126720, Note_off_c, 0, 77, 64
2, 126720, Note_off_c, 0, 74, 64
2, 126720, Note_on_c, 0, 73, 92
2, 126720, Note_on_c, 0, 76, 92
2, 127104, Note_off_c, 0, 76, 64
2, 127104, Note_off_c, 0, 73, 64
2, 127296, Note_on_c, 0, 69, 92
2, 127296, Note_on_c, 0, 73, 92
2, 127488, Note_off_c, 0, 73, 64
2, 127488, Note_off_c, 0, 69, 64
2, 127488, Note_on_c, 0, 69, 92
2, 127488, Note_on_c, 0, 74, 92
2, 127680, Note_off_c, 0, 74, 64
2, 127680, Note_off_c, 0, 69, 64
2, 127680, Note_on_c, 0, 69, 92
2, 127680, Note_on_c, 0, 73, 92
2, 127872, Note_off_c, 0, 73, 64
2, 127872, Note_off_c, 0, 69, 64
2, 127872, Note_on_c, 0, 69, 92
2, 127872, Note_on_c, 0, 74, 92
2, 128064, Note_off_c, 0, 74, 64
2, 128064, Note_off_c, 0, 69, 64
2, 128064, Note_on_c, 0, 69, 92
2, 128064, Note_on_c, 0, 73, 92
2, 128256, Note_off_c, 0, 73, 64
2, 128256, Note_off_c, 0, 69, 64
2, 128832, Note_on_c, 0, 69, 92
2, 128832, Note_on_c, 0, 73, 92
2, 129024, Note_off_c, 0, 73, 64
2, 129024, Note_off_c, 0, 69, 64
2, 129024, Note_on_c, 0, 69, 92
2, 129024, Note_on_c, 0, 74, 92
2, 129216, Note_off_c, 0, 74, 64
2, 129216, Note_off_c, 0, 69, 64
2, 129216, Note_on_c, 0, 69, 92
2, 129216, Note_on_c, 0, 73, 92
2, 129408, Note_off_c, 0, 73, 64
2, 129408, Note_off_c, 0, 69, 64
2, 129408, Note_on_c, 0, 69, 92
2, 129408, Note_on_c, 0, 74, 92
2, 129600, Note_off_c, 0, 74, 64
2, 129600, Note_off_c, 0, 69, 64
2, 129600, Note_on_c, 0, 69, 92
2, 129600, Note_on_c, 0, 73, 92
2, 129792, Note_off_c, 0, 73, 64
2, 129792, Note_off_c, 0, 69, 64
2, 129984, Note_on_c, 0, 69, 92
2, 130080, Note_off_c, 0, 69, 64
2, 130080, Note_on_c, 0, 71, 92
2, 130176, Note_off_c, 0, 71, 64
2, 130176, Note_on_c, 0, 69, 92
2, 130176, Note_on_c, 0, 73, 92
2, 130272, Note_off_c, 0, 73, 64
2, 130272, Note_on_c, 0, 74, 92
2, 130368, Note_off_c, 0, 74, 64
2, 130368, Note_off_c, 0, 69, 64
2, 130368, Note_on_c, 0, 69, 92
2, 130368, Note_on_c, 0, 76, 92
2, 130464, Note_off_c, 0, 76, 64
2, 130464, Note_on_c, 0, 73, 92
2, 130560, Note_off_c, 0, 73, 64
2, 130560, Note_off_c, 0, 69, 64
2, 130560, Note_on_c, 0, 69, 92
2, 130560, Note_on_c, 0, 74, 92
2, 130752, Note_off_c, 0, 74, 64
2, 130752, Note_on_c, 0, 74, 92
2, 130944, Note_off_c, 0, 74, 64
2, 130944, Note_off_c, 0, 69, 64
2, 130944, Note_on_c, 0, 77, 92
2, 131136, Note_off_c, 0, 77, 64
2, 131136, Note_on_c, 0, 81, 92
2, 131328, Note_off_c, 0, 81, 64
2, 131328, Note_on_c, 0, 81, 92
2, 131616, Note_off_c, 0, 81, 64
2, 131616, Note_on_c, 0, 79, 92
2, 131712, Note_off_c, 0, 79, 64
2, 131712, Note_on_c, 0, 77, 92
2, 131808, Note_off_c, 0, 77, 64
2, 131808, Note_on_c, 0, 76, 92
2, 131904, Note_off_c, 0, 76, 64
2, 131904, Note_on_c, 0, 74, 92
2, 132000, Note_off_c, 0, 74, 64
2, 132000, Note_on_c, 0, 72, 92
2, 132096, Note_off_c, 0, 72, 64
2, 132096, Note_on_c, 0, 74, 92
2, 132288, Note_off_c, 0, 74, 64
2, 132288, Note_on_c, 0, 70, 92
2, 132480, Note_off_c, 0, 70, 64
2, 132480, Note_on_c, 0, 74, 92
2, 132672, Note_off_c, 0, 74, 64
2, 132672, Note_on_c, 0, 79, 92
2, 132864, Note_off_c, 0, 79, 64
2, 132864, Note_on_c, 0, 79, 92
2, 133152, Note_off_c, 0, 79, 64
2, 133152, Note_on_c, 0, 77, 92
2, 133248, Note_off_c, 0, 77, 64
2, 133248, Note_on_c, 0, 76, 92
2, 133344, Note_off_c, 0, 76, 64
2, 133344, Note_on_c, 0, 74, 92
2, 133440, Note_off_c, 0, 74, 64
2, 133440, Note_on_c, 0, 72, 92
2, 133536, Note_off_c, 0, 72, 64
2, 133536, Note_on_c, 0, 70, 92
2, 133632, Note_off_c, 0, 70, 64
2, 133632, Note_on_c, 0, 72, 92
2, 133824, Note_off_c, 0, 72, 64
2, 133824, Note_on_c, 0, 69, 92
2, 134016, Note_off_c, 0, 69, 64
2, 134016, Note_on_c, 0, 72, 92
2, 134208, Note_off_c, 0, 72, 64
2, 134208, Note_on_c, 0, 77, 92
2, 134400, Note_off_c, 0, 77, 64
2, 134400, Note_on_c, 0, 77, 92
2, 134688, Note_off_c, 0, 77, 64
2, 134688, Note_on_c, 0, 76, 92
2, 134784, Note_off_c, 0, 76, 64
2, 134784, Note_on_c, 0, 74, 92
2, 134880, Note_off_c, 0, 74, 64
2, 134880, Note_on_c, 0, 72, 92
2, 134976, Note_off_c, 0, 72, 64
2, 134976, Note_on_c, 0, 70, 92
2, 135072, Note_off_c, 0, 70, 64
2, 135072, Note_on_c, 0, 69, 92
2, 135168, Note_off_c, 0, 69, 64
2, 135168, Note_on_c, 0, 70, 92
2, 135360, Note_off_c, 0, 70, 64
2, 135360, Note_on_c, 0, 67, 92
2, 135552, Note_off_c, 0, 67, 64
2, 135552, Note_on_c, 0, 70, 92
2, 135744, Note_off_c, 0, 70, 64
2, 135744, Note_on_c, 0, 75, 92
2, 135936, Note_off_c, 0, 75, 64
2, 135936, Note_on_c, 0, 75, 92
2, 136224, Note_off_c, 0, 75, 64
2, 136224, Note_on_c, 0, 74, 92
2, 136320, Note_off_c, 0, 74, 64
2, 136320, Note_on_c, 0, 72, 92
2, 136416, Note_off_c, 0, 72, 64
2, 136416, Note_on_c, 0, 70, 92
2, 136512, Note_off_c, 0, 70, 64
2, 136512, Note_on_c, 0, 69, 92
2, 136608, Note_off_c, 0, 69, 64
2, 136608, Note_on_c, 0, 67, 92
2, 136704, Note_off_c, 0, 67, 64
2, 136704, Note_on_c, 0, 69, 92
2, 136896, Note_off_c, 0, 69, 64
2, 136896, Note_on_c, 0, 65, 92
2, 137088, Note_off_c, 0, 65, 64
2, 137088, Note_on_c, 0, 69, 92
2, 137280, Note_off_c, 0, 69, 64
2, 137280, Note_on_c, 0, 74, 92
2, 137472, Note_off_c, 0, 74, 64
2, 137472, Note_on_c, 0, 74, 92
2, 137760, Note_off_c, 0, 74, 64
2, 137760, Note_on_c, 0, 76, 92
2, 137856, Note_off_c, 0, 76, 64
2, 137856, Note_on_c, 0, 74, 92
2, 137952, Note_off_c, 0, 74, 64
2, 137952, Note_on_c, 0, 72, 92
2, 138048, Note_off_c, 0, 72, 64
2, 138048, Note_on_c, 0, 71, 92
2, 138144, Note_off_c, 0, 71, 64
2, 138144, Note_on_c, 0, 69, 92
2, 138240, Note_off_c, 0, 69, 64
2, 138240, Note_on_c, 0, 80, 92
2, 138432, Note_off_c, 0, 80, 64
2, 138432, Note_on_c, 0, 76, 92
2, 138624, Note_off_c, 0, 76, 64
2, 138624, Note_on_c, 0, 81, 92
2, 138816, Note_off_c, 0, 81, 64
2, 138816, Note_on_c, 0, 76, 92
2, 139008, Note_off_c, 0, 76, 64
2, 139008, Note_on_c, 0, 77, 92
2, 139200, Note_off_c, 0, 77, 64
2, 139200, Note_on_c, 0, 76, 92
2, 139392, Note_off_c, 0, 76, 64
2, 139392, Note_on_c, 0, 81, 92
2, 139584, Note_off_c, 0, 81, 64
2, 139584, Note_on_c, 0, 76, 92
2, 139776, Note_off_c, 0, 76, 64
2, 139776, Note_on_c, 0, 77, 92
2, 139968, Note_off_c, 0, 77, 64
2, 139968, Note_on_c, 0, 76, 92
2, 140160, Note_off_c, 0, 76, 64
2, 140160, Note_on_c, 0, 81, 92
2, 140352, Note_off_c, 0, 81, 64
2, 140352, Note_on_c, 0, 72, 92
2, 140544, Note_off_c, 0, 72, 64
2, 140544, Note_on_c, 0, 74, 92
2, 140544, Note_on_c, 0, 71, 92
2, 140736, Note_off_c, 0, 71, 64
2, 140736, Note_off_c, 0, 74, 64
2, 140736, Note_on_c, 0, 81, 92
2, 140928, Note_off_c, 0, 81, 64
2, 140928, Note_on_c, 0, 71, 92
2, 140928, Note_on_c, 0, 74, 92
2, 141120, Note_off_c, 0, 74, 64
2, 141120, Note_off_c, 0, 71, 64
2, 141120, Note_on_c, 0, 80, 92
2, 141312, Note_off_c, 0, 80, 64
2, 141312, Note_on_c, 0, 69, 92
2, 141312, Note_on_c, 0, 72, 92
2, 141312, Note_on_c, 0, 81, 92
2, 141408, Note_off_c, 0, 81, 64
2, 141408, Note_off_c, 0, 72, 64
2, 141408, Note_off_c, 0, 69, 64
2, 141408, Note_on_c, 0, 69, 92
2, 141504, Note_off_c, 0, 69, 64
2, 141504, Note_on_c, 0, 71, 92
2, 141600, Note_off_c, 0, 71, 64
2, 141600, Note_on_c, 0, 72, 92
2, 141696, Note_off_c, 0, 72, 64
2, 141696, Note_on_c, 0, 72, 92
2, 141792, Note_off_c, 0, 72, 64
2, 141792, Note_on_c, 0, 71, 92
2, 141888, Note_off_c, 0, 71, 64
2, 141888, Note_on_c, 0, 69, 92
2, 141984, Note_off_c, 0, 69, 64
2, 141984, Note_on_c, 0, 72, 92
2, 142080, Note_off_c, 0, 72, 64
2, 142080, Note_on_c, 0, 64, 92
2, 142176, Note_off_c, 0, 64, 64
2, 142176, Note_on_c, 0, 69, 92
2, 142272, Note_off_c, 0, 69, 64
2, 142272, Note_on_c, 0, 71, 92
2, 142368, Note_off_c, 0, 71, 64
2, 142368, Note_on_c, 0, 72, 92
2, 142464, Note_off_c, 0, 72, 64
2, 142464, Note_on_c, 0, 72, 92
2, 142560, Note_off_c, 0, 72, 64
2, 142560, Note_on_c, 0, 71, 92
2, 142656, Note_off_c, 0, 71, 64
2, 142656, Note_on_c, 0, 69, 92
2, 142752, Note_off_c, 0, 69, 64
2, 142752, Note_on_c, 0, 72, 92
2, 142848, Note_off_c, 0, 72, 64
2, 142848, Note_on_c, 0, 65, 92
2, 142944, Note_off_c, 0, 65, 64
2, 142944, Note_on_c, 0, 69, 92
2, 143040, Note_off_c, 0, 69, 64
2, 143040, Note_on_c, 0, 71, 92
2, 143136, Note_off_c, 0, 71, 64
2, 143136, Note_on_c, 0, 72, 92
2, 143232, Note_off_c, 0, 72, 64
2, 143232, Note_on_c, 0, 72, 92
2, 143328, Note_off_c, 0, 72, 64
2, 143328, Note_on_c, 0, 71, 92
2, 143424, Note_off_c, 0, 71, 64
2, 143424, Note_on_c, 0, 69, 92
2, 143520, Note_off_c, 0, 69, 64
2, 143520, Note_on_c, 0, 72, 92
2, 143616, Note_off_c, 0, 72, 64
2, 143616, Note_on_c, 0, 64, 92
2, 143712, Note_off_c, 0, 64, 64
2, 143712, Note_on_c, 0, 69, 92
2, 143808, Note_off_c, 0, 69, 64
2, 143808, Note_on_c, 0, 71, 92
2, 143904, Note_off_c, 0, 71, 64
2, 143904, Note_on_c, 0, 72, 92
2, 144000, Note_off_c, 0, 72, 64
2, 144000, Note_on_c, 0, 72, 92
2, 144096, Note_off_c, 0, 72, 64
2, 144096, Note_on_c, 0, 71, 92
2, 144192, Note_off_c, 0, 71, 64
2, 144192, Note_on_c, 0, 69, 92
2, 144288, Note_off_c, 0, 69, 64
2, 144288, Note_on_c, 0, 72, 92
2, 144384, Note_off_c, 0, 72, 64
2, 144384, Note_on_c, 0, 62, 92
2, 144480, Note_off_c, 0, 62, 64
2, 144480, Note_on_c, 0, 62, 92
2, 144576, Note_off_c, 0, 62, 64
2, 144576, Note_on_c, 0, 64, 92
2, 144672, Note_off_c, 0, 64, 64
2, 144672, Note_on_c, 0, 65, 92
2, 144768, Note_off_c, 0, 65, 64
2, 144768, Note_on_c, 0, 65, 92
2, 144864, Note_off_c, 0, 65, 64
2, 144864, Note_on_c, 0, 64, 92
2, 144960, Note_off_c, 0, 64, 64
2, 144960, Note_on_c, 0, 62, 92
2, 145056, Note_off_c, 0, 62, 64
2, 145056, Note_on_c, 0, 65, 92
2, 145152, Note_off_c, 0, 65, 64
2, 145152, Note_on_c, 0, 59, 92
2, 145248, Note_off_c, 0, 59, 64
2, 145248, Note_on_c, 0, 62, 92
2, 145344, Note_off_c, 0, 62, 64
2, 145344, Note_on_c, 0, 64, 92
2, 145440, Note_off_c, 0, 64, 64
2, 145440, Note_on_c, 0, 65, 92
2, 145536, Note_off_c, 0, 65, 64
2, 145536, Note_on_c, 0, 65, 92
2, 145632, Note_off_c, 0, 65, 64
2, 145632, Note_on_c, 0, 64, 92
2, 145728, Note_off_c, 0, 64, 64
2, 145728, Note_on_c, 0, 62, 92
2, 145824, Note_off_c, 0, 62, 64
2, 145824, Note_on_c, 0, 65, 92
2, 145920, Note_off_c, 0, 65, 64
2, 145920, Note_on_c, 0, 56, 92
2, 146016, Note_off_c, 0, 56, 64
2, 146016, Note_on_c, 0, 62, 92
2, 146112, Note_off_c, 0, 62, 64
2, 146112, Note_on_c, 0, 64, 92
2, 146208, Note_off_c, 0, 64, 64
2, 146208, Note_on_c, 0, 65, 92
2, 146304, Note_off_c, 0, 65, 64
2, 146304, Note_on_c, 0, 65, 92
2, 146400, Note_off_c, 0, 65, 64
2, 146400, Note_on_c, 0, 64, 92
2, 146496, Note_off_c, 0, 64, 64
2, 146496, Note_on_c, 0, 62, 92
2, 146592, Note_off_c, 0, 62, 64
2, 146592, Note_on_c, 0, 65, 92
2, 146688, Note_off_c, 0, 65, 64
2, 146688, Note_on_c, 0, 56, 92
2, 146784, Note_off_c, 0, 56, 64
2, 146784, Note_on_c, 0, 62, 92
2, 146880, Note_off_c, 0, 62, 64
2, 146880, Note_on_c, 0, 64, 92
2, 146976, Note_off_c, 0, 64, 64
2, 146976, Note_on_c, 0, 65, 92
2, 147072, Note_off_c, 0, 65, 64
2, 147072, Note_on_c, 0, 65, 92
2, 147168, Note_off_c, 0, 65, 64
2, 147168, Note_on_c, 0, 64, 92
2, 147264, Note_off_c, 0, 64, 64
2, 147264, Note_on_c, 0, 62, 92
2, 147360, Note_off_c, 0, 62, 64
2, 147360, Note_on_c, 0, 64, 92
2, 147456, Note_off_c, 0, 64, 64
2, 147456, Note_on_c, 0, 52, 92
2, 147552, Note_off_c, 0, 52, 64
2, 147552, Note_on_c, 0, 57, 92
2, 147648, Note_off_c, 0, 57, 64
2, 147648, Note_on_c, 0, 59, 92
2, 147744, Note_off_c, 0, 59, 64
2, 147744, Note_on_c, 0, 60, 92
2, 147840, Note_off_c, 0, 60, 64
2, 147840, Note_on_c, 0, 60, 92
2, 147936, Note_off_c, 0, 60, 64
2, 147936, Note_on_c, 0, 59, 92
2, 148032, Note_off_c, 0, 59, 64
2, 148032, Note_on_c, 0, 57, 92
2, 148128, Note_off_c, 0, 57, 64
2, 148128, Note_on_c, 0, 60, 92
2, 148224, Note_off_c, 0, 60, 64
2, 148224, Note_on_c, 0, 52, 92
2, 148320, Note_off_c, 0, 52, 64
2, 148320, Note_on_c, 0, 57, 92
2, 148416, Note_off_c, 0, 57, 64
2, 148416, Note_on_c, 0, 59, 92
2, 148512, Note_off_c, 0, 59, 64
2, 148512, Note_on_c, 0, 60, 92
2, 148608, Note_off_c, 0, 60, 64
2, 148608, Note_on_c, 0, 60, 92
2, 148704, Note_off_c, 0, 60, 64
2, 148704, Note_on_c, 0, 59, 92
2, 148800, Note_off_c, 0, 59, 64
2, 148800, Note_on_c, 0, 57, 92
2, 148896, Note_off_c, 0, 57, 64
2, 148896, Note_on_c, 0, 60, 92
2, 148992, Note_off_c, 0, 60, 64
2, 148992, Note_on_c, 0, 54, 92
2, 149088, Note_off_c, 0, 54, 64
2, 149088, Note_on_c, 0, 57, 92
2, 149184, Note_off_c, 0, 57, 64
2, 149184, Note_on_c, 0, 58, 92
2, 149280, Note_off_c, 0, 58, 64
2, 149280, Note_on_c, 0, 60, 92
2, 149376, Note_off_c, 0, 60, 64
2, 149376, Note_on_c, 0, 60, 92
2, 149472, Note_off_c, 0, 60, 64
2, 149472, Note_on_c, 0, 58, 92
2, 149568, Note_off_c, 0, 58, 64
2, 149568, Note_on_c, 0, 57, 92
2, 149664, Note_off_c, 0, 57, 64
2, 149664, Note_on_c, 0, 60, 92
2, 149760, Note_off_c, 0, 60, 64
2, 149760, Note_on_c, 0, 50, 92
2, 149856, Note_off_c, 0, 50, 64
2, 149856, Note_on_c, 0, 57, 92
2, 149952, Note_off_c, 0, 57, 64
2, 149952, Note_on_c, 0, 58, 92
2, 150048, Note_off_c, 0, 58, 64
2, 150048, Note_on_c, 0, 60, 92
2, 150144, Note_off_c, 0, 60, 64
2, 150144, Note_on_c, 0, 60, 92
2, 150240, Note_off_c, 0, 60, 64
2, 150240, Note_on_c, 0, 58, 92
2, 150336, Note_off_c, 0, 58, 64
2, 150336, Note_on_c, 0, 57, 92
2, 150432, Note_off_c, 0, 57, 64
2, 150432, Note_on_c, 0, 60, 92
2, 150528, Note_off_c, 0, 60, 64
2, 150528, Note_on_c, 0, 55, 92
2, 150624, Note_off_c, 0, 55, 64
2, 150624, Note_on_c, 0, 58, 92
2, 150720, Note_off_c, 0, 58, 64
2, 150720, Note_on_c, 0, 60, 92
2, 150816, Note_off_c, 0, 60, 64
2, 150816, Note_on_c, 0, 62, 92
2, 150912, Note_off_c, 0, 62, 64
2, 150912, Note_on_c, 0, 62, 92
2, 151008, Note_off_c, 0, 62, 64
2, 151008, Note_on_c, 0, 60, 92
2, 151104, Note_off_c, 0, 60, 64
2, 151104, Note_on_c, 0, 58, 92
2, 151200, Note_off_c, 0, 58, 64
2, 151200, Note_on_c, 0, 62, 92
2, 151296, Note_off_c, 0, 62, 64
2, 151296, Note_on_c, 0, 55, 92
2, 151392, Note_off_c, 0, 55, 64
2, 151392, Note_on_c, 0, 59, 92
2, 151488, Note_off_c, 0, 59, 64
2, 151488, Note_on_c, 0, 60, 92
2, 151584, Note_off_c, 0, 60, 64
2, 151584, Note_on_c, 0, 62, 92
2, 151680, Note_off_c, 0, 62, 64
2, 151680, Note_on_c, 0, 62, 92
2, 151776, Note_off_c, 0, 62, 64
2, 151776, Note_on_c, 0, 60, 92
2, 151872, Note_off_c, 0, 60, 64
2, 151872, Note_on_c, 0, 59, 92
2, 151968, Note_off_c, 0, 59, 64
2, 151968, Note_on_c, 0, 62, 92
2, 152064, Note_off_c, 0, 62, 64
2, 152064, Note_on_c, 0, 55, 92
2, 152160, Note_off_c, 0, 55, 64
2, 152160, Note_on_c, 0, 60, 92
2, 152256, Note_off_c, 0, 60, 64
2, 152256, Note_on_c, 0, 62, 92
2, 152352, Note_off_c, 0, 62, 64
2, 152352, Note_on_c, 0, 64, 92
2, 152448, Note_off_c, 0, 64, 64
2, 152448, Note_on_c, 0, 64, 92
2, 152544, Note_off_c, 0, 64, 64
2, 152544, Note_on_c, 0, 62, 92
2, 152640, Note_off_c, 0, 62, 64
2, 152640, Note_on_c, 0, 60, 92
2, 152736, Note_off_c, 0, 60, 64
2, 152736, Note_on_c, 0, 64, 92
2, 152832, Note_off_c, 0, 64, 64
2, 152832, Note_on_c, 0, 55, 92
2, 152928, Note_off_c, 0, 55, 64
2, 152928, Note_on_c, 0, 61, 92
2, 153024, Note_off_c, 0, 61, 64
2, 153024, Note_on_c, 0, 62, 92
2, 153120, Note_off_c, 0, 62, 64
2, 153120, Note_on_c, 0, 64, 92
2, 153216, Note_off_c, 0, 64, 64
2, 153216, Note_on_c, 0, 64, 92
2, 153312, Note_off_c, 0, 64, 64
2, 153312, Note_on_c, 0, 62, 92
2, 153408, Note_off_c, 0, 62, 64
2, 153408, Note_on_c, 0, 61, 92
2, 153504, Note_off_c, 0, 61, 64
2, 153504, Note_on_c, 0, 64, 92
2, 153600, Note_off_c, 0, 64, 64
2, 153600, Note_on_c, 0, 62, 92
2, 153696, Note_off_c, 0, 62, 64
2, 153696, Note_on_c, 0, 65, 92
2, 153792, Note_off_c, 0, 65, 64
2, 153792, Note_on_c, 0, 67, 92
2, 153888, Note_off_c, 0, 67, 64
2, 153888, Note_on_c, 0, 69, 92
2, 153984, Note_off_c, 0, 69, 64
2, 153984, Note_on_c, 0, 69, 92
2, 154080, Note_off_c, 0, 69, 64
2, 154080, Note_on_c, 0, 67, 92
2, 154176, Note_off_c, 0, 67, 64
2, 154176, Note_on_c, 0, 65, 92
2, 154272, Note_off_c, 0, 65, 64
2, 154272, Note_on_c, 0, 69, 92
2, 154368, Note_off_c, 0, 69, 64
2, 154368, Note_on_c, 0, 62, 92
2, 154464, Note_off_c, 0, 62, 64
2, 154464, Note_on_c, 0, 65, 92
2, 154560, Note_off_c, 0, 65, 64
2, 154560, Note_on_c, 0, 62, 92
2, 154560, Note_on_c, 0, 67, 92
2, 154656, Note_off_c, 0, 67, 64
2, 154656, Note_on_c, 0, 69, 92
2, 154752, Note_off_c, 0, 69, 64
2, 154752, Note_off_c, 0, 62, 64
2, 154752, Note_on_c, 0, 65, 92
2, 154752, Note_on_c, 0, 69, 92
2, 154848, Note_off_c, 0, 69, 64
2, 154848, Note_on_c, 0, 67, 92
2, 154944, Note_off_c, 0, 67, 64
2, 154944, Note_off_c, 0, 65, 64
2, 154944, Note_on_c, 0, 62, 92
2, 154944, Note_on_c, 0, 65, 92
2, 155040, Note_off_c, 0, 65, 64
2, 155040, Note_on_c, 0, 69, 92
2, 155136, Note_off_c, 0, 69, 64
2, 155136, Note_off_c, 0, 62, 64
2, 155136, Note_on_c, 0, 60, 92
2, 155232, Note_off_c, 0, 60, 64
2, 155232, Note_on_c, 0, 66, 92
2, 155328, Note_off_c, 0, 66, 64
2, 155328, Note_on_c, 0, 60, 92
2, 155328, Note_on_c, 0, 67, 92
2, 155424, Note_off_c, 0, 67, 64
2, 155424, Note_on_c, 0, 69, 92
2, 155520, Note_off_c, 0, 69, 64
2, 155520, Note_off_c, 0, 60, 64
2, 155520, Note_on_c, 0, 66, 92
2, 155520, Note_on_c, 0, 69, 92
2, 155616, Note_off_c, 0, 69, 64
2, 155616, Note_on_c, 0, 67, 92
2, 155712, Note_off_c, 0, 67, 64
2, 155712, Note_off_c, 0, 66, 64
2, 155712, Note_on_c, 0, 60, 92
2, 155712, Note_on_c, 0, 66, 92
2, 155808, Note_off_c, 0, 66, 64
2, 155808, Note_on_c, 0, 69, 92
2, 155904, Note_off_c, 0, 69, 64
2, 155904, Note_off_c, 0, 60, 64
2, 155904, Note_on_c, 0, 60, 92
2, 156000, Note_off_c, 0, 60, 64
2, 156000, Note_on_c, 0, 66, 92
2, 156096, Note_off_c, 0, 66, 64
2, 156096, Note_on_c, 0, 62, 92
2, 156096, Note_on_c, 0, 67, 92
2, 156192, Note_off_c, 0, 67, 64
2, 156192, Note_on_c, 0, 69, 92
2, 156288, Note_off_c, 0, 69, 64
2, 156288, Note_off_c, 0, 62, 64
2, 156288, Note_on_c, 0, 66, 92
2, 156288, Note_on_c, 0, 69, 92
2, 156384, Note_off_c, 0, 69, 64
2, 156384, Note_on_c, 0, 67, 92
2, 156480, Note_off_c, 0, 67, 64
2, 156480, Note_off_c, 0, 66, 64
2, 156480, Note_on_c, 0, 62, 92
2, 156480, Note_on_c, 0, 66, 92
2, 156576, Note_off_c, 0, 66, 64
2, 156576, Note_on_c, 0, 69, 92
2, 156672, Note_off_c, 0, 69, 64
2, 156672, Note_off_c, 0, 62, 64
2, 156672, Note_on_c, 0, 62, 92
2, 156768, Note_off_c, 0, 62, 64
2, 156768, Note_on_c, 0, 67, 92
2, 156864, Note_off_c, 0, 67, 64
2, 156864, Note_on_c, 0, 62, 92
2, 156864, Note_on_c, 0, 69, 92
2, 156960, Note_off_c, 0, 69, 64
2, 156960, Note_on_c, 0, 70, 92
2, 157056, Note_off_c, 0, 70, 64
2, 157056, Note_off_c, 0, 62, 64
2, 157056, Note_on_c, 0, 67, 92
2, 157056, Note_on_c, 0, 70, 92
2, 157152, Note_off_c, 0, 70, 64
2, 157152, Note_on_c, 0, 69, 92
2, 157248, Note_off_c, 0, 69, 64
2, 157248, Note_off_c, 0, 67, 64
2, 157248, Note_on_c, 0, 62, 92
2, 157248, Note_on_c, 0, 67, 92
2, 157344, Note_off_c, 0, 67, 64
2, 157344, Note_on_c, 0, 70, 92
2, 157440, Note_off_c, 0, 70, 64
2, 157440, Note_off_c, 0, 62, 64
2, 157440, Note_on_c, 0, 62, 92
2, 157536, Note_off_c, 0, 62, 64
2, 157536, Note_on_c, 0, 67, 92
2, 157632, Note_off_c, 0, 67, 64
2, 157632, Note_on_c, 0, 62, 92
2, 157632, Note_on_c, 0, 69, 92
2, 157728, Note_off_c, 0, 69, 64
2, 157728, Note_on_c, 0, 70, 92
2, 157824, Note_off_c, 0, 70, 64
2, 157824, Note_off_c, 0, 62, 64
2, 157824, Note_on_c, 0, 67, 92
2, 157824, Note_on_c, 0, 70, 92
2, 157920, Note_off_c, 0, 70, 64
2, 157920, Note_on_c, 0, 69, 92
2, 158016, Note_off_c, 0, 69, 64
2, 158016, Note_off_c, 0, 67, 64
2, 158016, Note_on_c, 0, 62, 92
2, 158016, Note_on_c, 0, 67, 92
2, 158112, Note_off_c, 0, 67, 64
2, 158112, Note_on_c, 0, 70, 92
2, 158208, Note_off_c, 0, 70, 64
2, 158208, Note_off_c, 0, 62, 64
2, 158208, Note_on_c, 0, 62, 92
2, 158304, Note_off_c, 0, 62, 64
2, 158304, Note_on_c, 0, 68, 92
2, 158400, Note_off_c, 0, 68, 64
2, 158400, Note_on_c, 0, 62, 92
2, 158400, Note_on_c, 0, 69, 92
2, 158496, Note_off_c, 0, 69, 64
2, 158496, Note_on_c, 0, 71, 92
2, 158592, Note_off_c, 0, 71, 64
2, 158592, Note_off_c, 0, 62, 64
2, 158592, Note_on_c, 0, 68, 92
2, 158592, Note_on_c, 0, 71, 92
2, 158688, Note_off_c, 0, 71, 64
2, 158688, Note_on_c, 0, 69, 92
2, 158784, Note_off_c, 0, 69, 64
2, 158784, Note_off_c, 0, 68, 64
2, 158784, Note_on_c, 0, 62, 92
2, 158784, Note_on_c, 0, 68, 92
2, 158880, Note_off_c, 0, 68, 64
2, 158880, Note_on_c, 0, 71, 92
2, 158976, Note_off_c, 0, 71, 64
2, 158976, Note_off_c, 0, 62, 64
2, 158976, Note_on_c, 0, 62, 92
2, 159072, Note_off_c, 0, 62, 64
2, 159072, Note_on_c, 0, 68, 92
2, 159168, Note_off_c, 0, 68, 64
2, 159168, Note_on_c, 0, 62, 92
2, 159168, Note_on_c, 0, 69, 92
2, 159264, Note_off_c, 0, 69, 64
2, 159264, Note_on_c, 0, 71, 92
2, 159360, Note_off_c, 0, 71, 64
2, 159360, Note_off_c, 0, 62, 64
2, 159360, Note_on_c, 0, 68, 92
2, 159360, Note_on_c, 0, 71, 92
2, 159456, Note_off_c, 0, 71, 64
2, 159456, Note_on_c, 0, 69, 92
2, 159552, Note_off_c, 0, 69, 64
2, 159552, Note_off_c, 0, 68, 64
2, 159552, Note_on_c, 0, 62, 92
2, 159552, Note_on_c, 0, 68, 92
2, 159648, Note_off_c, 0, 68, 64
2, 159648, Note_on_c, 0, 71, 92
2, 159744, Note_off_c, 0, 71, 64
2, 159744, Note_off_c, 0, 62, 64
2, 159744, Note_on_c, 0, 69, 92
2, 159872, Note_off_c, 0, 69, 64
2, 159872, Note_on_c, 0, 68, 92
2, 160000, Note_off_c, 0, 68, 64
2, 160000, Note_on_c, 0, 69, 92
2, 160128, Note_off_c, 0, 69, 64
2, 160128, Note_on_c, 0, 69, 92
2, 160256, Note_off_c, 0, 69, 64
2, 160256, Note_on_c, 0, 68, 92
2, 160384, Note_off_c, 0, 68, 64
2, 160384, Note_on_c, 0, 69, 92
2, 160512, Note_off_c, 0, 69, 64
2, 160512, Note_on_c, 0, 69, 92
2, 160640, Note_off_c, 0, 69, 64
2, 160640, Note_on_c, 0, 68, 92
2, 160768, Note_off_c, 0, 68, 64
2, 160768, Note_on_c, 0, 69, 92
2, 160896, Note_off_c, 0, 69, 64
2, 160896, Note_on_c, 0, 69, 92
2, 161024, Note_off_c, 0, 69, 64
2, 161024, Note_on_c, 0, 68, 92
2, 161152, Note_off_c, 0, 68, 64
2, 161152, Note_on_c, 0, 69, 92
2, 161280, Note_off_c, 0, 69, 64
2, 161280, Note_on_c, 0, 70, 92
2, 161408, Note_off_c, 0, 70, 64
2, 161408, Note_on_c, 0, 69, 92
2, 161536, Note_off_c, 0, 69, 64
2, 161536, Note_on_c, 0, 70, 92
2, 161664, Note_off_c, 0, 70, 64
2, 161664, Note_on_c, 0, 62, 92
2, 161664, Note_on_c, 0, 70, 92
2, 161792, Note_off_c, 0, 70, 64
2, 161792, Note_off_c, 0, 62, 64
2, 161792, Note_on_c, 0, 61, 92
2, 161792, Note_on_c, 0, 69, 92
2, 161920, Note_off_c, 0, 69, 64
2, 161920, Note_off_c, 0, 61, 64
2, 161920, Note_on_c, 0, 62, 92
2, 161920, Note_on_c, 0, 70, 92
2, 162048, Note_off_c, 0, 70, 64
2, 162048, Note_off_c, 0, 62, 64
2, 162048, Note_on_c, 0, 70, 92
2, 162176, Note_off_c, 0, 70, 64
2, 162176, Note_on_c, 0, 69, 92
2, 162304, Note_off_c, 0, 69, 64
2, 162304, Note_on_c, 0, 70, 92
2, 162432, Note_off_c, 0, 70, 64
2, 162432, Note_on_c, 0, 67, 92
2, 162432, Note_on_c, 0, 70, 92
2, 162560, Note_off_c, 0, 70, 64
2, 162560, Note_off_c, 0, 67, 64
2, 162560, Note_on_c, 0, 66, 92
2, 162560, Note_on_c, 0, 69, 92
2, 162688, Note_off_c, 0, 69, 64
2, 162688, Note_off_c, 0, 66, 64
2, 162688, Note_on_c, 0, 67, 92
2, 162688, Note_on_c, 0, 70, 92
2, 162816, Note_off_c, 0, 70, 64
2, 162816, Note_off_c, 0, 67, 64
2, 162816, Note_on_c, 0, 74, 92
2, 162944, Note_off_c, 0, 74, 64
2, 162944, Note_on_c, 0, 73, 92
2, 163072, Note_off_c, 0, 73, 64
2, 163072, Note_on_c, 0, 74, 92
2, 163200, Note_off_c, 0, 74, 64
2, 163200, Note_on_c, 0, 65, 92
2, 163200, Note_on_c, 0, 74, 92
2, 163328, Note_off_c, 0, 74, 64
2, 163328, Note_off_c, 0, 65, 64
2, 163328, Note_on_c, 0, 64, 92
2, 163328, Note_on_c, 0, 73, 92
2, 163456, Note_off_c, 0, 73, 64
2, 163456, Note_off_c, 0, 64, 64
2, 163456, Note_on_c, 0, 65, 92
2, 163456, Note_on_c, 0, 74, 92
2, 163584, Note_off_c, 0, 74, 64
2, 163584, Note_off_c, 0, 65, 64
2, 163584, Note_on_c, 0, 74, 92
2, 163712, Note_off_c, 0, 74, 64
2, 163712, Note_on_c, 0, 73, 92
2, 163840, Note_off_c, 0, 73, 64
2, 163840, Note_on_c, 0, 74, 92
2, 163968, Note_off_c, 0, 74, 64
2, 163968, Note_on_c, 0, 70, 92
2, 163968, Note_on_c, 0, 74, 92
2, 164096, Note_off_c, 0, 74, 64
2, 164096, Note_off_c, 0, 70, 64
2, 164096, Note_on_c, 0, 69, 92
2, 164096, Note_on_c, 0, 73, 92
2, 164224, Note_off_c, 0, 73, 64
2, 164224, Note_off_c, 0, 69, 64
2, 164224, Note_on_c, 0, 70, 92
2, 164224, Note_on_c, 0, 74, 92
2, 164352, Note_off_c, 0, 74, 64
2, 164352, Note_off_c, 0, 70, 64
2, 164352, Note_on_c, 0, 74, 92
2, 164480, Note_off_c, 0, 74, 64
2, 164480, Note_on_c, 0, 73, 92
2, 164608, Note_off_c, 0, 73, 64
2, 164608, Note_on_c, 0, 74, 92
2, 164736, Note_off_c, 0, 74, 64
2, 164736, Note_on_c, 0, 67, 92
2, 164736, Note_on_c, 0, 76, 92
2, 164864, Note_off_c, 0, 76, 64
2, 164864, Note_off_c, 0, 67, 64
2, 164864, Note_on_c, 0, 65, 92
2, 164864, Note_on_c, 0, 74, 92
2, 164992, Note_off_c, 0, 74, 64
2, 164992, Note_off_c, 0, 65, 64
2, 164992, Note_on_c, 0, 64, 92
2, 164992, Note_on_c, 0, 73, 92
2, 165120, Note_off_c, 0, 73, 64
2, 165120, Note_off_c, 0, 64, 64
2, 165120, Note_on_c, 0, 65, 92
2, 165120, Note_on_c, 0, 74, 92
2, 165248, Note_off_c, 0, 74, 64
2, 165248, Note_on_c, 0, 73, 92
2, 165312, Note_off_c, 0, 65, 64
2, 165376, Note_off_c, 0, 73, 64
2, 165376, Note_on_c, 0, 74, 92
2, 165504, Note_off_c, 0, 74, 64
2, 165504, Note_on_c, 0, 64, 92
2, 165504, Note_on_c, 0, 72, 92
2, 165632, Note_off_c, 0, 72, 64
2, 165632, Note_on_c, 0, 71, 92
2, 165696, Note_off_c, 0, 64, 64
2, 165760, Note_off_c, 0, 71, 64
2, 165760, Note_on_c, 0, 72, 92
2, 165888, Note_off_c, 0, 72, 64
2, 165888, Note_on_c, 0, 70, 92
2, 165888, Note_on_c, 0, 62, 92
2, 166016, Note_off_c, 0, 70, 64
2, 166016, Note_on_c, 0, 69, 92
2, 166080, Note_off_c, 0, 62, 64
2, 166144, Note_off_c, 0, 69, 64
2, 166144, Note_on_c, 0, 70, 92
2, 166272, Note_off_c, 0, 70, 64
2, 166272, Note_on_c, 0, 69, 92
2, 166272, Note_on_c, 0, 60, 92
2, 166400, Note_off_c, 0, 69, 64
2, 166400, Note_on_c, 0, 68, 92
2, 166464, Note_off_c, 0, 60, 64
2, 166528, Note_off_c, 0, 68, 64
2, 166528, Note_on_c, 0, 69, 92
2, 166656, Note_off_c, 0, 69, 64
2, 166656, Note_on_c, 0, 68, 92
2, 166656, Note_on_c, 0, 59, 92
2, 166784, Note_off_c, 0, 59, 64
2, 166784, Note_off_c, 0, 68, 64
2, 166784, Note_on_c, 0, 60, 92
2, 166784, Note_on_c, 0, 71, 92
2, 166912, Note_off_c, 0, 71, 64
2, 166912, Note_off_c, 0, 60, 64
2, 166912, Note_on_c, 0, 62, 92
2, 166912, Note_on_c, 0, 69, 92
2, 167040, Note_off_c, 0, 69, 64
2, 167040, Note_off_c, 0, 62, 64
2, 167040, Note_on_c, 0, 68, 92
2, 167040, Note_on_c, 0, 64, 92
2, 167168, Note_off_c, 0, 64, 64
2, 167168, Note_off_c, 0, 68, 64
2, 167168, Note_on_c, 0, 66, 92
2, 167168, Note_on_c, 0, 69, 92
2, 167296, Note_off_c, 0, 69, 64
2, 167296, Note_off_c, 0, 66, 64
2, 167296, Note_on_c, 0, 68, 92
2, 167296, Note_on_c, 0, 71, 92
2, 167424, Note_off_c, 0, 71, 64
2, 167424, Note_off_c, 0, 68, 64
2, 167424, Note_on_c, 0, 69, 92
2, 167424, Note_on_c, 0, 72, 92
2, 167552, Note_off_c, 0, 72, 64
2, 167552, Note_on_c, 0, 71, 92
2, 167616, Note_off_c, 0, 69, 64
2, 167680, Note_off_c, 0, 71, 64
2, 167680, Note_on_c, 0, 69, 92
2, 167808, Note_off_c, 0, 69, 64
2, 167808, Note_on_c, 0, 67, 92
2, 167936, Note_off_c, 0, 67, 64
2, 167936, Note_on_c, 0, 66, 92
2, 168064, Note_off_c, 0, 66, 64
2, 168064, Note_on_c, 0, 64, 92
2, 168192, Note_off_c, 0, 64, 64
2, 168192, Note_on_c, 0, 63, 92
2, 168320, Note_off_c, 0, 63, 64
2, 168320, Note_on_c, 0, 71, 92
2, 168448, Note_off_c, 0, 71, 64
2, 168448, Note_on_c, 0, 69, 92
2, 168576, Note_off_c, 0, 69, 64
2, 168576, Note_on_c, 0, 67, 92
2, 168704, Note_off_c, 0, 67, 64
2, 168704, Note_on_c, 0, 66, 92
2, 168832, Note_off_c, 0, 66, 64
2, 168832, Note_on_c, 0, 64, 92
2, 168960, Note_off_c, 0, 64, 64
2, 168960, Note_on_c, 0, 63, 92
2, 169008, Note_off_c, 0, 63, 64
2, 169008, Note_on_c, 0, 64, 92
2, 169056, Note_off_c, 0, 64, 64
2, 169056, Note_on_c, 0, 63, 92
2, 169536, Note_off_c, 0, 63, 64
2, 169536, Note_on_c, 0, 64, 92
2, 169728, Note_off_c, 0, 64, 64
2, 169728, Note_on_c, 0, 55, 92
2, 169728, Note_on_c, 0, 59, 92
2, 169728, Note_on_c, 0, 64, 92
2, 170112, Note_off_c, 0, 64, 64
2, 170112, Note_off_c, 0, 59, 64
2, 170112, Note_off_c, 0, 55, 64
2, 170304, Note_on_c, 0, 71, 92
2, 170304, Note_on_c, 0, 76, 92
2, 170304, Note_on_c, 0, 79, 92
2, 170496, Note_off_c, 0, 79, 64
2, 170496, Note_off_c, 0, 76, 64
2, 170496, Note_off_c, 0, 71, 64
2, 170496, Note_on_c, 0, 69, 92
2, 170496, Note_on_c, 0, 76, 92
2, 170496, Note_on_c, 0, 81, 92
2, 170688, Note_off_c, 0, 81, 64
2, 170688, Note_off_c, 0, 76, 64
2, 170688, Note_off_c, 0, 69, 64
2, 170688, Note_on_c, 0, 71, 92
2, 170688, Note_on_c, 0, 76, 92
2, 170688, Note_on_c, 0, 79, 92
2, 170880, Note_off_c, 0, 79, 64
2, 170880, Note_off_c, 0, 76, 64
2, 170880, Note_off_c, 0, 71, 64
2, 170880, Note_on_c, 0, 69, 92
2, 170880, Note_on_c, 0, 76, 92
2, 170880, Note_on_c, 0, 81, 92
2, 171072, Note_off_c, 0, 81, 64
2, 171072, Note_off_c, 0, 76, 64
2, 171072, Note_off_c, 0, 69, 64
2, 171072, Note_on_c, 0, 71, 92
2, 171072, Note_on_c, 0, 76, 92
2, 171072, Note_on_c, 0, 79, 92
2, 171264, Note_off_c, 0, 79, 64
2, 171264, Note_off_c, 0, 76, 64
2, 171264, Note_off_c, 0, 71, 64
2, 171456, Note_on_c, 0, 76, 92
2, 171552, Note_off_c, 0, 76, 64
2, 171552, Note_on_c, 0, 78, 92
2, 171648, Note_off_c, 0, 78, 64
2, 171648, Note_on_c, 0, 80, 92
2, 171648, Note_on_c, 0, 76, 92
2, 171744, Note_off_c, 0, 80, 64
2, 171744, Note_on_c, 0, 81, 92
2, 171840, Note_off_c, 0, 81, 64
2, 171840, Note_off_c, 0, 76, 64
2, 171840, Note_on_c, 0, 83, 92
2, 171840, Note_on_c, 0, 76, 92
2, 171936, Note_off_c, 0, 83, 64
2, 171936, Note_on_c, 0, 80, 92
2, 172032, Note_off_c, 0, 80, 64
2, 172032, Note_off_c, 0, 76, 64
2, 172032, Note_on_c, 0, 69, 92
2, 172032, Note_on_c, 0, 76, 92
2, 172032, Note_on_c, 0, 81, 92
2, 172128, Note_off_c, 0, 69, 64
2, 172128, Note_on_c, 0, 71, 92
2, 172224, Note_off_c, 0, 71, 64
2, 172224, Note_off_c, 0, 81, 64
2, 172224, Note_off_c, 0, 76, 64
2, 172224, Note_on_c, 0, 72, 92
2, 172320, Note_off_c, 0, 72, 64
2, 172320, Note_on_c, 0, 74, 92
2, 172416, Note_off_c, 0, 74, 64
2, 172416, Note_on_c, 0, 76, 92
2, 172608, Note_off_c, 0, 76, 64
2, 172608, Note_on_c, 0, 69, 92
2, 172608, Note_on_c, 0, 72, 92
2, 172608, Note_on_c, 0, 76, 92
2, 172800, Note_off_c, 0, 76, 64
2, 172800, Note_off_c, 0, 72, 64
2, 172800, Note_off_c, 0, 69, 64
2, 172800, Note_on_c, 0, 69, 92
2, 172800, Note_on_c, 0, 74, 92
2, 172800, Note_on_c, 0, 77, 92
2, 172992, Note_off_c, 0, 77, 64
2, 172992, Note_off_c, 0, 74, 64
2, 172992, Note_off_c, 0, 69, 64
2, 172992, Note_on_c, 0, 69, 92
2, 172992, Note_on_c, 0, 72, 92
2, 172992, Note_on_c, 0, 76, 92
2, 173184, Note_off_c, 0, 76, 64
2, 173184, Note_off_c, 0, 72, 64
2, 173184, Note_off_c, 0, 69, 64
2, 173184, Note_on_c, 0, 69, 92
2, 173184, Note_on_c, 0, 74, 92
2, 173184, Note_on_c, 0, 77, 92
2, 173376, Note_off_c, 0, 77, 64
2, 173376, Note_off_c, 0, 74, 64
2, 173376, Note_off_c, 0, 69, 64
2, 173376, Note_on_c, 0, 69, 92
2, 173376, Note_on_c, 0, 72, 92
2, 173376, Note_on_c, 0, 76, 92
2, 173568, Note_off_c, 0, 76, 64
2, 173568, Note_off_c, 0, 72, 64
2, 173568, Note_off_c, 0, 69, 64
2, 173568, Note_on_c, 0, 69, 92
2, 173664, Note_off_c, 0, 69, 64
2, 173664, Note_on_c, 0, 71, 92
2, 173760, Note_off_c, 0, 71, 64
2, 173760, Note_on_c, 0, 73, 92
2, 173856, Note_off_c, 0, 73, 64
2, 173856, Note_on_c, 0, 74, 92
2, 173952, Note_off_c, 0, 74, 64
2, 173952, Note_on_c, 0, 69, 92
2, 173952, Note_on_c, 0, 76, 92
2, 174048, Note_off_c, 0, 76, 64
2, 174048, Note_on_c, 0, 78, 92
2, 174144, Note_off_c, 0, 78, 64
2, 174144, Note_off_c, 0, 69, 64
2, 174144, Note_on_c, 0, 69, 92
2, 174144, Note_on_c, 0, 79, 92
2, 174240, Note_off_c, 0, 79, 64
2, 174240, Note_on_c, 0, 76, 92
2, 174336, Note_off_c, 0, 76, 64
2, 174336, Note_off_c, 0, 69, 64
2, 174336, Note_on_c, 0, 69, 92
2, 174336, Note_on_c, 0, 74, 92
2, 174336, Note_on_c, 0, 78, 92
2, 174720, Note_off_c, 0, 78, 64
2, 174720, Note_off_c, 0, 74, 64
2, 174720, Note_off_c, 0, 69, 64
2, 174912, Note_on_c, 0, 69, 92
2, 174912, Note_on_c, 0, 74, 92
2, 174912, Note_on_c, 0, 78, 92
2, 175104, Note_off_c, 0, 78, 64
2, 175104, Note_off_c, 0, 74, 64
2, 175104, Note_off_c, 0, 69, 64
2, 175104, Note_on_c, 0, 79, 92
2, 175104, Note_on_c, 0, 74, 92
2, 175104, Note_on_c, 0, 67, 92
2, 175296, Note_off_c, 0, 67, 64
2, 175296, Note_off_c, 0, 74, 64
2, 175296, Note_off_c, 0, 79, 64
2, 175296, Note_on_c, 0, 78, 92
2, 175296, Note_on_c, 0, 74, 92
2, 175296, Note_on_c, 0, 69, 92
2, 175488, Note_off_c, 0, 69, 64
2, 175488, Note_off_c, 0, 74, 64
2, 175488, Note_off_c, 0, 78, 64
2, 175488, Note_on_c, 0, 79, 92
2, 175488, Note_on_c, 0, 74, 92
2, 175488, Note_on_c, 0, 67, 92
2, 175680, Note_off_c, 0, 67, 64
2, 175680, Note_off_c, 0, 74, 64
2, 175680, Note_off_c, 0, 79, 64
2, 175680, Note_on_c, 0, 78, 92
2, 175680, Note_on_c, 0, 74, 92
2, 175680, Note_on_c, 0, 69, 92
2, 175872, Note_off_c, 0, 69, 64
2, 175872, Note_off_c, 0, 74, 64
2, 175872, Note_off_c, 0, 78, 64
2, 176064, Note_on_c, 0, 74, 92
2, 176160, Note_off_c, 0, 74, 64
2, 176160, Note_on_c, 0, 76, 92
2, 176256, Note_off_c, 0, 76, 64
2, 176256, Note_on_c, 0, 74, 92
2, 176256, Note_on_c, 0, 78, 92
2, 176352, Note_off_c, 0, 78, 64
2, 176352, Note_on_c, 0, 79, 92
2, 176448, Note_off_c, 0, 79, 64
2, 176448, Note_off_c, 0, 74, 64
2, 176448, Note_on_c, 0, 74, 92
2, 176448, Note_on_c, 0, 81, 92
2, 176544, Note_off_c, 0, 81, 64
2, 176544, Note_on_c, 0, 78, 92
2, 176640, Note_off_c, 0, 78, 64
2, 176640, Note_off_c, 0, 74, 64
2, 176640, Note_on_c, 0, 74, 92
2, 176640, Note_on_c, 0, 79, 92
2, 176640, Note_on_c, 0, 67, 92
2, 176736, Note_off_c, 0, 67, 64
2, 176736, Note_on_c, 0, 69, 92
2, 176832, Note_off_c, 0, 69, 64
2, 176832, Note_off_c, 0, 79, 64
2, 176832, Note_off_c, 0, 74, 64
2, 176832, Note_on_c, 0, 71, 92
2, 176928, Note_off_c, 0, 71, 64
2, 176928, Note_on_c, 0, 72, 92
2, 177024, Note_off_c, 0, 72, 64
2, 177024, Note_on_c, 0, 74, 92
2, 177216, Note_off_c, 0, 74, 64
2, 177216, Note_on_c, 0, 67, 92
2, 177216, Note_on_c, 0, 71, 92
2, 177216, Note_on_c, 0, 74, 92
2, 177408, Note_off_c, 0, 74, 64
2, 177408, Note_off_c, 0, 71, 64
2, 177408, Note_off_c, 0, 67, 64
2, 177408, Note_on_c, 0, 67, 92
2, 177408, Note_on_c, 0, 72, 92
2, 177408, Note_on_c, 0, 76, 92
2, 177600, Note_off_c, 0, 76, 64
2, 177600, Note_off_c, 0, 72, 64
2, 177600, Note_off_c, 0, 67, 64
2, 177600, Note_on_c, 0, 67, 92
2, 177600, Note_on_c, 0, 71, 92
2, 177600, Note_on_c, 0, 74, 92
2, 177792, Note_off_c, 0, 74, 64
2, 177792, Note_off_c, 0, 71, 64
2, 177792, Note_off_c, 0, 67, 64
2, 177792, Note_on_c, 0, 67, 92
2, 177792, Note_on_c, 0, 72, 92
2, 177792, Note_on_c, 0, 76, 92
2, 177984, Note_off_c, 0, 76, 64
2, 177984, Note_off_c, 0, 72, 64
2, 177984, Note_off_c, 0, 67, 64
2, 177984, Note_on_c, 0, 67, 92
2, 177984, Note_on_c, 0, 71, 92
2, 177984, Note_on_c, 0, 74, 92
2, 178176, Note_off_c, 0, 74, 64
2, 178176, Note_off_c, 0, 71, 64
2, 178176, Note_off_c, 0, 67, 64
2, 178176, Note_on_c, 0, 67, 92
2, 178272, Note_off_c, 0, 67, 64
2, 178272, Note_on_c, 0, 69, 92
2, 178368, Note_off_c, 0, 69, 64
2, 178368, Note_on_c, 0, 71, 92
2, 178464, Note_off_c, 0, 71, 64
2, 178464, Note_on_c, 0, 72, 92
2, 178560, Note_off_c, 0, 72, 64
2, 178560, Note_on_c, 0, 67, 92
2, 178560, Note_on_c, 0, 74, 92
2, 178656, Note_off_c, 0, 74, 64
2, 178656, Note_on_c, 0, 76, 92
2, 178752, Note_off_c, 0, 76, 64
2, 178752, Note_off_c, 0, 67, 64
2, 178752, Note_on_c, 0, 67, 92
2, 178752, Note_on_c, 0, 77, 92
2, 178848, Note_off_c, 0, 77, 64
2, 178848, Note_on_c, 0, 74, 92
2, 178944, Note_off_c, 0, 74, 64
2, 178944, Note_off_c, 0, 67, 64
2, 178944, Note_on_c, 0, 67, 92
2, 178944, Note_on_c, 0, 76, 92
2, 179040, Note_off_c, 0, 76, 64
2, 179040, Note_on_c, 0, 77, 92
2, 179136, Note_off_c, 0, 77, 64
2, 179136, Note_off_c, 0, 67, 64
2, 179136, Note_on_c, 0, 79, 92
2, 179232, Note_off_c, 0, 79, 64
2, 179232, Note_on_c, 0, 77, 92
2, 179328, Note_off_c, 0, 77, 64
2, 179328, Note_on_c, 0, 76, 92
2, 179520, Note_off_c, 0, 76, 64
2, 179520, Note_on_c, 0, 74, 92
2, 179712, Note_off_c, 0, 74, 64
2, 179712, Note_on_c, 0, 72, 92
2, 179904, Note_off_c, 0, 72, 64
2, 179904, Note_on_c, 0, 70, 92
2, 180096, Note_off_c, 0, 70, 64
2, 180096, Note_on_c, 0, 69, 92
2, 180288, Note_off_c, 0, 69, 64
2, 180288, Note_on_c, 0, 67, 92
2, 180480, Note_off_c, 0, 67, 64
2, 180480, Note_on_c, 0, 69, 92
2, 181248, Note_off_c, 0, 69, 64
2, 181248, Note_on_c, 0, 78, 92
2, 181344, Note_off_c, 0, 78, 64
2, 181344, Note_on_c, 0, 79, 92
2, 181440, Note_off_c, 0, 79, 64
2, 181440, Note_on_c, 0, 81, 92
2, 181536, Note_off_c, 0, 81, 64
2, 181536, Note_on_c, 0, 79, 92
2, 181632, Note_off_c, 0, 79, 64
2, 181632, Note_on_c, 0, 78, 92
2, 181824, Note_off_c, 0, 78, 64
2, 181824, Note_on_c, 0, 76, 92
2, 182016, Note_off_c, 0, 76, 64
2, 182016, Note_on_c, 0, 74, 92
2, 182208, Note_off_c, 0, 74, 64
2, 182208, Note_on_c, 0, 72, 92
2, 182400, Note_off_c, 0, 72, 64
2, 182400, Note_on_c, 0, 71, 92
2, 182592, Note_off_c, 0, 71, 64
2, 182592, Note_on_c, 0, 69, 92
2, 182784, Note_off_c, 0, 69, 64
2, 182784, Note_on_c, 0, 71, 92
2, 183552, Note_off_c, 0, 71, 64
2, 183552, Note_on_c, 0, 80, 92
2, 183648, Note_off_c, 0, 80, 64
2, 183648, Note_on_c, 0, 81, 92
2, 183744, Note_off_c, 0, 81, 64
2, 183744, Note_on_c, 0, 83, 92
2, 183840, Note_off_c, 0, 83, 64
2, 183840, Note_on_c, 0, 81, 92
2, 183936, Note_off_c, 0, 81, 64
2, 183936, Note_on_c, 0, 80, 92
2, 184128, Note_off_c, 0, 80, 64
2, 184128, Note_on_c, 0, 78, 92
2, 184320, Note_off_c, 0, 78, 64
2, 184320, Note_on_c, 0, 76, 92
2, 184512, Note_off_c, 0, 76, 64
2, 184512, Note_on_c, 0, 74, 92
2, 184704, Note_off_c, 0, 74, 64
2, 184704, Note_on_c, 0, 72, 92
2, 184896, Note_off_c, 0, 72, 64
2, 184896, Note_on_c, 0, 71, 92
2, 185088, Note_off_c, 0, 71, 64
2, 185088, Note_on_c, 0, 72, 92
2, 185856, Note_off_c, 0, 72, 64
2, 185856, Note_on_c, 0, 81, 92
2, 185952, Note_off_c, 0, 81, 64
2, 185952, Note_on_c, 0, 83, 92
2, 186048, Note_off_c, 0, 83, 64
2, 186048, Note_on_c, 0, 84, 92
2, 186144, Note_off_c, 0, 84, 64
2, 186144, Note_on_c, 0, 83, 92
2, 186240, Note_off_c, 0, 83, 64
2, 186240, Note_on_c, 0, 81, 92
2, 186432, Note_off_c, 0, 81, 64
2, 186432, Note_on_c, 0, 79, 92
2, 186624, Note_off_c, 0, 79, 64
2, 186624, Note_on_c, 0, 77, 92
2, 186816, Note_off_c, 0, 77, 64
2, 186816, Note_on_c, 0, 76, 92
2, 187008, Note_off_c, 0, 76, 64
2, 187008, Note_on_c, 0, 74, 92
2, 187200, Note_off_c, 0, 74, 64
2, 187200, Note_on_c, 0, 73, 92
2, 187392, Note_off_c, 0, 73, 64
2, 187392, Note_on_c, 0, 74, 92
2, 187488, Note_off_c, 0, 74, 64
2, 187488, Note_on_c, 0, 73, 92
2, 187584, Note_off_c, 0, 73, 64
2, 187584, Note_on_c, 0, 74, 92
2, 187680, Note_off_c, 0, 74, 64
2, 187680, Note_on_c, 0, 77, 92
2, 187776, Note_off_c, 0, 77, 64
2, 187776, Note_on_c, 0, 77, 92
2, 187824, Note_off_c, 0, 77, 64
2, 187824, Note_on_c, 0, 76, 92
2, 187872, Note_off_c, 0, 76, 64
2, 187872, Note_on_c, 0, 77, 92
2, 187920, Note_off_c, 0, 77, 64
2, 187920, Note_on_c, 0, 76, 92
2, 187968, Note_off_c, 0, 76, 64
2, 187968, Note_on_c, 0, 74, 92
2, 188160, Note_off_c, 0, 74, 64
2, 188160, Note_on_c, 0, 72, 92
2, 188256, Note_off_c, 0, 72, 64
2, 188256, Note_on_c, 0, 71, 92
2, 188352, Note_off_c, 0, 71, 64
2, 188352, Note_on_c, 0, 72, 92
2, 188448, Note_off_c, 0, 72, 64
2, 188448, Note_on_c, 0, 76, 92
2, 188544, Note_off_c, 0, 76, 64
2, 188544, Note_on_c, 0, 76, 92
2, 188592, Note_off_c, 0, 76, 64
2, 188592, Note_on_c, 0, 74, 92
2, 188640, Note_off_c, 0, 74, 64
2, 188640, Note_on_c, 0, 76, 92
2, 188688, Note_off_c, 0, 76, 64
2, 188688, Note_on_c, 0, 74, 92
2, 188736, Note_off_c, 0, 74, 64
2, 188736, Note_on_c, 0, 72, 92
2, 188928, Note_off_c, 0, 72, 64
2, 188928, Note_on_c, 0, 71, 92
2, 189024, Note_off_c, 0, 71, 64
2, 189024, Note_on_c, 0, 69, 92
2, 189120, Note_off_c, 0, 69, 64
2, 189120, Note_on_c, 0, 71, 92
2, 189216, Note_off_c, 0, 71, 64
2, 189216, Note_on_c, 0, 74, 92
2, 189312, Note_off_c, 0, 74, 64
2, 189312, Note_on_c, 0, 74, 92
2, 189360, Note_off_c, 0, 74, 64
2, 189360, Note_on_c, 0, 72, 92
2, 189408, Note_off_c, 0, 72, 64
2, 189408, Note_on_c, 0, 74, 92
2, 189456, Note_off_c, 0, 74, 64
2, 189456, Note_on_c, 0, 72, 92
2, 189504, Note_off_c, 0, 72, 64
2, 189504, Note_on_c, 0, 71, 92
2, 189696, Note_off_c, 0, 71, 64
2, 189696, Note_on_c, 0, 69, 92
2, 189792, Note_off_c, 0, 69, 64
2, 189792, Note_on_c, 0, 71, 92
2, 189888, Note_off_c, 0, 71, 64
2, 189888, Note_on_c, 0, 72, 92
2, 189984, Note_off_c, 0, 72, 64
2, 189984, Note_on_c, 0, 74, 92
2, 190080, Note_off_c, 0, 74, 64
2, 190080, Note_on_c, 0, 76, 92
2, 190176, Note_off_c, 0, 76, 64
2, 190176, Note_on_c, 0, 77, 92
2, 190272, Note_off_c, 0, 77, 64
2, 190272, Note_on_c, 0, 79, 92
2, 190368, Note_off_c, 0, 79, 64
2, 190368, Note_on_c, 0, 81, 92
2, 190464, Note_off_c, 0, 81, 64
2, 190464, Note_on_c, 0, 71, 92
2, 190464, Note_on_c, 0, 74, 92
2, 190560, Note_off_c, 0, 74, 64
2, 190560, Note_off_c, 0, 71, 64
2, 190560, Note_on_c, 0, 72, 92
2, 190560, Note_on_c, 0, 76, 92
2, 190656, Note_off_c, 0, 76, 64
2, 190656, Note_off_c, 0, 72, 64
2, 190656, Note_on_c, 0, 72, 92
2, 190656, Note_on_c, 0, 76, 92
2, 190752, Note_off_c, 0, 76, 64
2, 190752, Note_off_c, 0, 72, 64
2, 190752, Note_on_c, 0, 74, 92
2, 190752, Note_on_c, 0, 77, 92
2, 190848, Note_off_c, 0, 77, 64
2, 190848, Note_off_c, 0, 74, 64
2, 190848, Note_on_c, 0, 74, 92
2, 190848, Note_on_c, 0, 77, 92
2, 190944, Note_off_c, 0, 77, 64
2, 190944, Note_off_c, 0, 74, 64
2, 190944, Note_on_c, 0, 72, 92
2, 190944, Note_on_c, 0, 76, 92
2, 191040, Note_off_c, 0, 76, 64
2, 191040, Note_off_c, 0, 72, 64
2, 191040, Note_on_c, 0, 72, 92
2, 191040, Note_on_c, 0, 76, 92
2, 191136, Note_off_c, 0, 76, 64
2, 191136, Note_off_c, 0, 72, 64
2, 191136, Note_on_c, 0, 71, 92
2, 191136, Note_on_c, 0, 74, 92
2, 191232, Note_off_c, 0, 74, 64
2, 191232, Note_off_c, 0, 71, 64
2, 191232, Note_on_c, 0, 71, 92
2, 191232, Note_on_c, 0, 74, 92
2, 191328, Note_off_c, 0, 74, 64
2, 191328, Note_off_c, 0, 71, 64
2, 191328, Note_on_c, 0, 72, 92
2, 191328, Note_on_c, 0, 76, 92
2, 191424, Note_off_c, 0, 76, 64
2, 191424, Note_off_c, 0, 72, 64
2, 191424, Note_on_c, 0, 72, 92
2, 191424, Note_on_c, 0, 76, 92
2, 191520, Note_off_c, 0, 76, 64
2, 191520, Note_off_c, 0, 72, 64
2, 191520, Note_on_c, 0, 74, 92
2, 191520, Note_on_c, 0, 77, 92
2, 191616, Note_off_c, 0, 77, 64
2, 191616, Note_off_c, 0, 74, 64
2, 191616, Note_on_c, 0, 74, 92
2, 191616, Note_on_c, 0, 77, 92
2, 191712, Note_off_c, 0, 77, 64
2, 191712, Note_off_c, 0, 74, 64
2, 191712, Note_on_c, 0, 72, 92
2, 191712, Note_on_c, 0, 76, 92
2, 191808, Note_off_c, 0, 76, 64
2, 191808, Note_off_c, 0, 72, 64
2, 191808, Note_on_c, 0, 72, 92
2, 191808, Note_on_c, 0, 76, 92
2, 191904, Note_off_c, 0, 76, 64
2, 191904, Note_off_c, 0, 72, 64
2, 191904, Note_on_c, 0, 71, 92
2, 191904, Note_on_c, 0, 74, 92
2, 192000, Note_off_c, 0, 74, 64
2, 192000, Note_off_c, 0, 71, 64
2, 192000, Note_on_c, 0, 74, 92
2, 192000, Note_on_c, 0, 71, 92
2, 192096, Note_off_c, 0, 71, 64
2, 192096, Note_off_c, 0, 74, 64
2, 192096, Note_on_c, 0, 72, 92
2, 192096, Note_on_c, 0, 76, 92
2, 192192, Note_off_c, 0, 76, 64
2, 192192, Note_off_c, 0, 72, 64
2, 192192, Note_on_c, 0, 72, 92
2, 192192, Note_on_c, 0, 76, 92
2, 192288, Note_off_c, 0, 76, 64
2, 192288, Note_off_c, 0, 72, 64
2, 192288, Note_on_c, 0, 74, 92
2, 192288, Note_on_c, 0, 77, 92
2, 192384, Note_off_c, 0, 77, 64
2, 192384, Note_off_c, 0, 74, 64
2, 192384, Note_on_c, 0, 74, 92
2, 192384, Note_on_c, 0, 77, 92
2, 192480, Note_off_c, 0, 77, 64
2, 192480, Note_off_c, 0, 74, 64
2, 192480, Note_on_c, 0, 72, 92
2, 192480, Note_on_c, 0, 76, 92
2, 192576, Note_off_c, 0, 76, 64
2, 192576, Note_off_c, 0, 72, 64
2, 192576, Note_on_c, 0, 72, 92
2, 192576, Note_on_c, 0, 76, 92
2, 192672, Note_off_c, 0, 76, 64
2, 192672, Note_off_c, 0, 72, 64
2, 192672, Note_on_c, 0, 71, 92
2, 192672, Note_on_c, 0, 74, 92
2, 192768, Note_off_c, 0, 74, 64
2, 192768, Note_off_c, 0, 71, 64
2, 192768, Note_on_c, 0, 71, 92
2, 192768, Note_on_c, 0, 74, 92
2, 192960, Note_off_c, 0, 74, 64
2, 192960, Note_on_c, 0, 67, 92
2, 193152, Note_off_c, 0, 67, 64
2, 193152, Note_off_c, 0, 71, 64
2, 193344, Note_on_c, 0, 60, 92
2, 193344, Note_on_c, 0, 64, 92
2, 193536, Note_off_c, 0, 64, 64
2, 193536, Note_off_c, 0, 60, 64
2, 193536, Note_on_c, 0, 59, 92
2, 193536, Note_on_c, 0, 62, 92
2, 193632, Note_off_c, 0, 62, 64
2, 193632, Note_off_c, 0, 59, 64
2, 193632, Note_on_c, 0, 60, 92
2, 193632, Note_on_c, 0, 64, 92
2, 193728, Note_off_c, 0, 64, 64
2, 193728, Note_off_c, 0, 60, 64
2, 193728, Note_on_c, 0, 60, 92
2, 193728, Note_on_c, 0, 64, 92
2, 193824, Note_off_c, 0, 64, 64
2, 193824, Note_off_c, 0, 60, 64
2, 193824, Note_on_c, 0, 62, 92
2, 193824, Note_on_c, 0, 65, 92
2, 193920, Note_off_c, 0, 65, 64
2, 193920, Note_off_c, 0, 62, 64
2, 193920, Note_on_c, 0, 62, 92
2, 193920, Note_on_c, 0, 65, 92
2, 194016, Note_off_c, 0, 65, 64
2, 194016, Note_off_c, 0, 62, 64
2, 194016, Note_on_c, 0, 60, 92
2, 194016, Note_on_c, 0, 64, 92
2, 194112, Note_off_c, 0, 64, 64
2, 194112, Note_off_c, 0, 60, 64
2, 194112, Note_on_c, 0, 60, 92
2, 194112, Note_on_c, 0, 64, 92
2, 194208, Note_off_c, 0, 64, 64
2, 194208, Note_off_c, 0, 60, 64
2, 194208, Note_on_c, 0, 59, 92
2, 194208, Note_on_c, 0, 62, 92
2, 194304, Note_off_c, 0, 62, 64
2, 194304, Note_off_c, 0, 59, 64
2, 194304, Note_on_c, 0, 59, 92
2, 194304, Note_on_c, 0, 62, 92
2, 194400, Note_off_c, 0, 62, 64
2, 194400, Note_off_c, 0, 59, 64
2, 194400, Note_on_c, 0, 60, 92
2, 194400, Note_on_c, 0, 64, 92
2, 194496, Note_off_c, 0, 64, 64
2, 194496, Note_off_c, 0, 60, 64
2, 194496, Note_on_c, 0, 60, 92
2, 194496, Note_on_c, 0, 64, 92
2, 194592, Note_off_c, 0, 64, 64
2, 194592, Note_off_c, 0, 60, 64
2, 194592, Note_on_c, 0, 62, 92
2, 194592, Note_on_c, 0, 65, 92
2, 194688, Note_off_c, 0, 65, 64
2, 194688, Note_off_c, 0, 62, 64
2, 194688, Note_on_c, 0, 62, 92
2, 194688, Note_on_c, 0, 65, 92
2, 194784, Note_off_c, 0, 65, 64
2, 194784, Note_off_c, 0, 62, 64
2, 194784, Note_on_c, 0, 60, 92
2, 194784, Note_on_c, 0, 64, 92
2, 194880, Note_off_c, 0, 64, 64
2, 194880, Note_off_c, 0, 60, 64
2, 194880, Note_on_c, 0, 60, 92
2, 194880, Note_on_c, 0, 64, 92
2, 194976, Note_off_c, 0, 64, 64
2, 194976, Note_off_c, 0, 60, 64
2, 194976, Note_on_c, 0, 59, 92
2, 194976, Note_on_c, 0, 62, 92
2, 195072, Note_off_c, 0, 62, 64
2, 195072, Note_off_c, 0, 59, 64
2, 195072, Note_on_c, 0, 59, 92
2, 195072, Note_on_c, 0, 62, 92
2, 195168, Note_off_c, 0, 62, 64
2, 195168, Note_off_c, 0, 59, 64
2, 195168, Note_on_c, 0, 60, 92
2, 195168, Note_on_c, 0, 64, 92
2, 195264, Note_off_c, 0, 64, 64
2, 195264, Note_off_c, 0, 60, 64
2, 195264, Note_on_c, 0, 60, 92
2, 195264, Note_on_c, 0, 64, 92
2, 195360, Note_off_c, 0, 64, 64
2, 195360, Note_off_c, 0, 60, 64
2, 195360, Note_on_c, 0, 62, 92
2, 195360, Note_on_c, 0, 65, 92
2, 195456, Note_off_c, 0, 65, 64
2, 195456, Note_off_c, 0, 62, 64
2, 195456, Note_on_c, 0, 62, 92
2, 195456, Note_on_c, 0, 65, 92
2, 195552, Note_off_c, 0, 65, 64
2, 195552, Note_off_c, 0, 62, 64
2, 195552, Note_on_c, 0, 60, 92
2, 195552, Note_on_c, 0, 64, 92
2, 195648, Note_off_c, 0, 64, 64
2, 195648, Note_off_c, 0, 60, 64
2, 195648, Note_on_c, 0, 60, 92
2, 195648, Note_on_c, 0, 64, 92
2, 195744, Note_off_c, 0, 64, 64
2, 195744, Note_off_c, 0, 60, 64
2, 195744, Note_on_c, 0, 59, 92
2, 195744, Note_on_c, 0, 62, 92
2, 195840, Note_off_c, 0, 62, 64
2, 195840, Note_off_c, 0, 59, 64
2, 195840, Note_on_c, 0, 59, 92
2, 195840, Note_on_c, 0, 62, 92
2, 195936, Note_off_c, 0, 62, 64
2, 195936, Note_off_c, 0, 59, 64
2, 195936, Note_on_c, 0, 67, 92
2, 196032, Note_off_c, 0, 67, 64
2, 196032, Note_on_c, 0, 55, 92
2, 196128, Note_off_c, 0, 55, 64
2, 196128, Note_on_c, 0, 57, 92
2, 196224, Note_off_c, 0, 57, 64
2, 196224, Note_on_c, 0, 59, 92
2, 196320, Note_off_c, 0, 59, 64
2, 196320, Note_on_c, 0, 60, 92
2, 196416, Note_off_c, 0, 60, 64
2, 196416, Note_on_c, 0, 62, 92
2, 196512, Note_off_c, 0, 62, 64
2, 196512, Note_on_c, 0, 64, 92
2, 196608, Note_off_c, 0, 64, 64
2, 196608, Note_on_c, 0, 65, 92
2, 196704, Note_off_c, 0, 65, 64
2, 196704, Note_on_c, 0, 67, 92
2, 196800, Note_off_c, 0, 67, 64
2, 196800, Note_on_c, 0, 55, 92
2, 196896, Note_off_c, 0, 55, 64
2, 196896, Note_on_c, 0, 57, 92
2, 196992, Note_off_c, 0, 57, 64
2, 196992, Note_on_c, 0, 59, 92
2, 197088, Note_off_c, 0, 59, 64
2, 197088, Note_on_c, 0, 60, 92
2, 197184, Note_off_c, 0, 60, 64
2, 197184, Note_on_c, 0, 62, 92
2, 197280, Note_off_c, 0, 62, 64
2, 197280, Note_on_c, 0, 64, 92
2, 197376, Note_off_c, 0, 64, 64
2, 197376, Note_on_c, 0, 65, 92
2, 197472, Note_off_c, 0, 65, 64
2, 197472, Note_on_c, 0, 67, 92
2, 197568, Note_off_c, 0, 67, 64
2, 197568, Note_on_c, 0, 65, 92
2, 197664, Note_off_c, 0, 65, 64
2, 197664, Note_on_c, 0, 67, 92
2, 197760, Note_off_c, 0, 67, 64
2, 197760, Note_on_c, 0, 55, 92
2, 197856, Note_off_c, 0, 55, 64
2, 197856, Note_on_c, 0, 65, 92
2, 197952, Note_off_c, 0, 65, 64
2, 197952, Note_on_c, 0, 64, 92
2, 198048, Note_off_c, 0, 64, 64
2, 198048, Note_on_c, 0, 62, 92
2, 198144, Note_off_c, 0, 62, 64
2, 198144, Note_on_c, 0, 64, 92
2, 198240, Note_off_c, 0, 64, 64
2, 198240, Note_on_c, 0, 60, 92
2, 198336, Note_off_c, 0, 60, 64
2, 198336, Note_on_c, 0, 48, 92
2, 198432, Note_off_c, 0, 48, 64
2, 198432, Note_on_c, 0, 50, 92
2, 198528, Note_off_c, 0, 50, 64
2, 198528, Note_on_c, 0, 52, 92
2, 198624, Note_off_c, 0, 52, 64
2, 198624, Note_on_c, 0, 53, 92
2, 198720, Note_off_c, 0, 53, 64
2, 198720, Note_on_c, 0, 55, 92
2, 198816, Note_off_c, 0, 55, 64
2, 198816, Note_on_c, 0, 57, 92
2, 198912, Note_off_c, 0, 57, 64
2, 198912, Note_on_c, 0, 58, 92
2, 199008, Note_off_c, 0, 58, 64
2, 199008, Note_on_c, 0, 60, 92
2, 199104, Note_off_c, 0, 60, 64
2, 199104, Note_on_c, 0, 48, 92
2, 199200, Note_off_c, 0, 48, 64
2, 199200, Note_on_c, 0, 50, 92
2, 199296, Note_off_c, 0, 50, 64
2, 199296, Note_on_c, 0, 52, 92
2, 199392, Note_off_c, 0, 52, 64
2, 199392, Note_on_c, 0, 53, 92
2, 199488, Note_off_c, 0, 53, 64
2, 199488, Note_on_c, 0, 55, 92
2, 199584, Note_off_c, 0, 55, 64
2, 199584, Note_on_c, 0, 57, 92
2, 199680, Note_off_c, 0, 57, 64
2, 199680, Note_on_c, 0, 58, 92
2, 199776, Note_off_c, 0, 58, 64
2, 199776, Note_on_c, 0, 60, 92
2, 199872, Note_off_c, 0, 60, 64
2, 199872, Note_on_c, 0, 58, 92
2, 199968, Note_off_c, 0, 58, 64
2, 199968, Note_on_c, 0, 60, 92
2, 200064, Note_off_c, 0, 60, 64
2, 200064, Note_on_c, 0, 48, 92
2, 200160, Note_off_c, 0, 48, 64
2, 200160, Note_on_c, 0, 58, 92
2, 200256, Note_off_c, 0, 58, 64
2, 200256, Note_on_c, 0, 57, 92
2, 200352, Note_off_c, 0, 57, 64
2, 200352, Note_on_c, 0, 55, 92
2, 200448, Note_off_c, 0, 55, 64
2, 200448, Note_on_c, 0, 57, 92
2, 200544, Note_off_c, 0, 57, 64
2, 200544, Note_on_c, 0, 69, 92
2, 200640, Note_off_c, 0, 69, 64
2, 200640, Note_on_c, 0, 67, 92
2, 200736, Note_off_c, 0, 67, 64
2, 200736, Note_on_c, 0, 69, 92
2, 200832, Note_off_c, 0, 69, 64
2, 200832, Note_on_c, 0, 65, 92
2, 200928, Note_off_c, 0, 65, 64
2, 200928, Note_on_c, 0, 67, 92
2, 201024, Note_off_c, 0, 67, 64
2, 201024, Note_on_c, 0, 64, 92
2, 201120, Note_off_c, 0, 64, 64
2, 201120, Note_on_c, 0, 65, 92
2, 201216, Note_off_c, 0, 65, 64
2, 201216, Note_on_c, 0, 62, 92
2, 201312, Note_off_c, 0, 62, 64
2, 201312, Note_on_c, 0, 65, 92
2, 201408, Note_off_c, 0, 65, 64
2, 201408, Note_on_c, 0, 64, 92
2, 201504, Note_off_c, 0, 64, 64
2, 201504, Note_on_c, 0, 65, 92
2, 201600, Note_off_c, 0, 65, 64
2, 201600, Note_on_c, 0, 62, 92
2, 201696, Note_off_c, 0, 62, 64
2, 201696, Note_on_c, 0, 64, 92
2, 201792, Note_off_c, 0, 64, 64
2, 201792, Note_on_c, 0, 60, 92
2, 201888, Note_off_c, 0, 60, 64
2, 201888, Note_on_c, 0, 62, 92
2, 201984, Note_off_c, 0, 62, 64
2, 201984, Note_on_c, 0, 59, 92
2, 202080, Note_off_c, 0, 59, 64
2, 202080, Note_on_c, 0, 67, 92
2, 202176, Note_off_c, 0, 67, 64
2, 202176, Note_on_c, 0, 55, 92
2, 202272, Note_off_c, 0, 55, 64
2, 202272, Note_on_c, 0, 57, 92
2, 202368, Note_off_c, 0, 57, 64
2, 202368, Note_on_c, 0, 59, 92
2, 202464, Note_off_c, 0, 59, 64
2, 202464, Note_on_c, 0, 60, 92
2, 202560, Note_off_c, 0, 60, 64
2, 202560, Note_on_c, 0, 62, 92
2, 202656, Note_off_c, 0, 62, 64
2, 202656, Note_on_c, 0, 64, 92
2, 202752, Note_off_c, 0, 64, 64
2, 202752, Note_on_c, 0, 65, 92
2, 202848, Note_off_c, 0, 65, 64
2, 202848, Note_on_c, 0, 67, 92
2, 202944, Note_off_c, 0, 67, 64
2, 202944, Note_on_c, 0, 55, 92
2, 203040, Note_off_c, 0, 55, 64
2, 203040, Note_on_c, 0, 57, 92
2, 203136, Note_off_c, 0, 57, 64
2, 203136, Note_on_c, 0, 59, 92
2, 203232, Note_off_c, 0, 59, 64
2, 203232, Note_on_c, 0, 60, 92
2, 203328, Note_off_c, 0, 60, 64
2, 203328, Note_on_c, 0, 62, 92
2, 203424, Note_off_c, 0, 62, 64
2, 203424, Note_on_c, 0, 64, 92
2, 203520, Note_off_c, 0, 64, 64
2, 203520, Note_on_c, 0, 65, 92
2, 203616, Note_off_c, 0, 65, 64
2, 203616, Note_on_c, 0, 67, 92
2, 203712, Note_off_c, 0, 67, 64
2, 203712, Note_on_c, 0, 65, 92
2, 203808, Note_off_c, 0, 65, 64
2, 203808, Note_on_c, 0, 67, 92
2, 203904, Note_off_c, 0, 67, 64
2, 203904, Note_on_c, 0, 55, 92
2, 204000, Note_off_c, 0, 55, 64
2, 204000, Note_on_c, 0, 65, 92
2, 204096, Note_off_c, 0, 65, 64
2, 204096, Note_on_c, 0, 64, 92
2, 204192, Note_off_c, 0, 64, 64
2, 204192, Note_on_c, 0, 62, 92
2, 204288, Note_off_c, 0, 62, 64
2, 204288, Note_on_c, 0, 64, 92
2, 204384, Note_off_c, 0, 64, 64
2, 204384, Note_on_c, 0, 72, 92
2, 204480, Note_off_c, 0, 72, 64
2, 204480, Note_on_c, 0, 60, 92
2, 204576, Note_off_c, 0, 60, 64
2, 204576, Note_on_c, 0, 62, 92
2, 204672, Note_off_c, 0, 62, 64
2, 204672, Note_on_c, 0, 64, 92
2, 204768, Note_off_c, 0, 64, 64
2, 204768, Note_on_c, 0, 65, 92
2, 204864, Note_off_c, 0, 65, 64
2, 204864, Note_on_c, 0, 67, 92
2, 204960, Note_off_c, 0, 67, 64
2, 204960, Note_on_c, 0, 69, 92
2, 205056, Note_off_c, 0, 69, 64
2, 205056, Note_on_c, 0, 70, 92
2, 205152, Note_off_c, 0, 70, 64
2, 205152, Note_on_c, 0, 72, 92
2, 205248, Note_off_c, 0, 72, 64
2, 205248, Note_on_c, 0, 60, 92
2, 205344, Note_off_c, 0, 60, 64
2, 205344, Note_on_c, 0, 62, 92
2, 205440, Note_off_c, 0, 62, 64
2, 205440, Note_on_c, 0, 64, 92
2, 205536, Note_off_c, 0, 64, 64
2, 205536, Note_on_c, 0, 65, 92
2, 205632, Note_off_c, 0, 65, 64
2, 205632, Note_on_c, 0, 67, 92
2, 205728, Note_off_c, 0, 67, 64
2, 205728, Note_on_c, 0, 69, 92
2, 205824, Note_off_c, 0, 69, 64
2, 205824, Note_on_c, 0, 70, 92
2, 205920, Note_off_c, 0, 70, 64
2, 205920, Note_on_c, 0, 72, 92
2, 206016, Note_off_c, 0, 72, 64
2, 206016, Note_on_c, 0, 70, 92
2, 206112, Note_off_c, 0, 70, 64
2, 206112, Note_on_c, 0, 72, 92
2, 206208, Note_off_c, 0, 72, 64
2, 206208, Note_on_c, 0, 60, 92
2, 206304, Note_off_c, 0, 60, 64
2, 206304, Note_on_c, 0, 70, 92
2, 206400, Note_off_c, 0, 70, 64
2, 206400, Note_on_c, 0, 69, 92
2, 206496, Note_off_c, 0, 69, 64
2, 206496, Note_on_c, 0, 67, 92
2, 206592, Note_off_c, 0, 67, 64
2, 206592, Note_on_c, 0, 69, 92
2, 206688, Note_off_c, 0, 69, 64
2, 206688, Note_on_c, 0, 74, 92
2, 206784, Note_off_c, 0, 74, 64
2, 206784, Note_on_c, 0, 62, 92
2, 206880, Note_off_c, 0, 62, 64
2, 206880, Note_on_c, 0, 64, 92
2, 206976, Note_off_c, 0, 64, 64
2, 206976, Note_on_c, 0, 66, 92
2, 207072, Note_off_c, 0, 66, 64
2, 207072, Note_on_c, 0, 67, 92
2, 207168, Note_off_c, 0, 67, 64
2, 207168, Note_on_c, 0, 69, 92
2, 207264, Note_off_c, 0, 69, 64
2, 207264, Note_on_c, 0, 71, 92
2, 207360, Note_off_c, 0, 71, 64
2, 207360, Note_on_c, 0, 72, 92
2, 207456, Note_off_c, 0, 72, 64
2, 207456, Note_on_c, 0, 74, 92
2, 207552, Note_off_c, 0, 74, 64
2, 207552, Note_on_c, 0, 62, 92
2, 207648, Note_off_c, 0, 62, 64
2, 207648, Note_on_c, 0, 64, 92
2, 207744, Note_off_c, 0, 64, 64
2, 207744, Note_on_c, 0, 66, 92
2, 207840, Note_off_c, 0, 66, 64
2, 207840, Note_on_c, 0, 67, 92
2, 207936, Note_off_c, 0, 67, 64
2, 207936, Note_on_c, 0, 69, 92
2, 208032, Note_off_c, 0, 69, 64
2, 208032, Note_on_c, 0, 71, 92
2, 208128, Note_off_c, 0, 71, 64
2, 208128, Note_on_c, 0, 72, 92
2, 208224, Note_off_c, 0, 72, 64
2, 208224, Note_on_c, 0, 74, 92
2, 208320, Note_off_c, 0, 74, 64
2, 208320, Note_on_c, 0, 72, 92
2, 208416, Note_off_c, 0, 72, 64
2, 208416, Note_on_c, 0, 74, 92
2, 208512, Note_off_c, 0, 74, 64
2, 208512, Note_on_c, 0, 62, 92
2, 208608, Note_off_c, 0, 62, 64
2, 208608, Note_on_c, 0, 72, 92
2, 208704, Note_off_c, 0, 72, 64
2, 208704, Note_on_c, 0, 71, 92
2, 208800, Note_off_c, 0, 71, 64
2, 208800, Note_on_c, 0, 69, 92
2, 208896, Note_off_c, 0, 69, 64
2, 208896, Note_on_c, 0, 71, 92
2, 208992, Note_off_c, 0, 71, 64
2, 208992, Note_on_c, 0, 67, 92
2, 209088, Note_off_c, 0, 67, 64
2, 209088, Note_on_c, 0, 69, 92
2, 209184, Note_off_c, 0, 69, 64
2, 209184, Note_on_c, 0, 67, 92
2, 209280, Note_off_c, 0, 67, 64
2, 209280, Note_on_c, 0, 57, 92
2, 209376, Note_off_c, 0, 57, 64
2, 209376, Note_on_c, 0, 67, 92
2, 209472, Note_off_c, 0, 67, 64
2, 209472, Note_on_c, 0, 69, 92
2, 209568, Note_off_c, 0, 69, 64
2, 209568, Note_on_c, 0, 67, 92
2, 209664, Note_off_c, 0, 67, 64
2, 209664, Note_on_c, 0, 59, 92
2, 209760, Note_off_c, 0, 59, 64
2, 209760, Note_on_c, 0, 67, 92
2, 209856, Note_off_c, 0, 67, 64
2, 209856, Note_on_c, 0, 69, 92
2, 209952, Note_off_c, 0, 69, 64
2, 209952, Note_on_c, 0, 67, 92
2, 210048, Note_off_c, 0, 67, 64
2, 210048, Note_on_c, 0, 55, 92
2, 210144, Note_off_c, 0, 55, 64
2, 210144, Note_on_c, 0, 67, 92
2, 210240, Note_off_c, 0, 67, 64
2, 210240, Note_on_c, 0, 69, 92
2, 210336, Note_off_c, 0, 69, 64
2, 210336, Note_on_c, 0, 67, 92
2, 210432, Note_off_c, 0, 67, 64
2, 210528, Note_on_c, 0, 67, 92
2, 210624, Note_off_c, 0, 67, 64
2, 210624, Note_on_c, 0, 69, 92
2, 210720, Note_off_c, 0, 69, 64
2, 210720, Note_on_c, 0, 67, 92
2, 210816, Note_off_c, 0, 67, 64
2, 210912, Note_on_c, 0, 67, 92
2, 211008, Note_off_c, 0, 67, 64
2, 211008, Note_on_c, 0, 69, 92
2, 211104, Note_off_c, 0, 69, 64
2, 211104, Note_on_c, 0, 67, 92
2, 211200, Note_off_c, 0, 67, 64
2, 211296, Note_on_c, 0, 67, 92
2, 211392, Note_off_c, 0, 67, 64
2, 211392, Note_on_c, 0, 69, 92
2, 211488, Note_off_c, 0, 69, 64
2, 211488, Note_on_c, 0, 67, 92
2, 211584, Note_off_c, 0, 67, 64
2, 211680, Note_on_c, 0, 69, 92
2, 211776, Note_off_c, 0, 69, 64
2, 211776, Note_on_c, 0, 71, 92
2, 211872, Note_off_c, 0, 71, 64
2, 211872, Note_on_c, 0, 69, 92
2, 211968, Note_off_c, 0, 69, 64
2, 211968, Note_on_c, 0, 60, 92
2, 212064, Note_off_c, 0, 60, 64
2, 212064, Note_on_c, 0, 69, 92
2, 212160, Note_off_c, 0, 69, 64
2, 212160, Note_on_c, 0, 71, 92
2, 212256, Note_off_c, 0, 71, 64
2, 212256, Note_on_c, 0, 69, 92
2, 212352, Note_off_c, 0, 69, 64
2, 212352, Note_on_c, 0, 59, 92
2, 212448, Note_off_c, 0, 59, 64
2, 212448, Note_on_c, 0, 69, 92
2, 212544, Note_off_c, 0, 69, 64
2, 212544, Note_on_c, 0, 71, 92
2, 212640, Note_off_c, 0, 71, 64
2, 212640, Note_on_c, 0, 69, 92
2, 212736, Note_off_c, 0, 69, 64
2, 212736, Note_on_c, 0, 60, 92
2, 212832, Note_off_c, 0, 60, 64
2, 212832, Note_on_c, 0, 69, 92
2, 212928, Note_off_c, 0, 69, 64
2, 212928, Note_on_c, 0, 71, 92
2, 213024, Note_off_c, 0, 71, 64
2, 213024, Note_on_c, 0, 69, 92
2, 213120, Note_off_c, 0, 69, 64
2, 213120, Note_on_c, 0, 57, 92
2, 213216, Note_off_c, 0, 57, 64
2, 213216, Note_on_c, 0, 69, 92
2, 213312, Note_off_c, 0, 69, 64
2, 213312, Note_on_c, 0, 71, 92
2, 213408, Note_off_c, 0, 71, 64
2, 213408, Note_on_c, 0, 69, 92
2, 213504, Note_off_c, 0, 69, 64
2, 213600, Note_on_c, 0, 69, 92
2, 213696, Note_off_c, 0, 69, 64
2, 213696, Note_on_c, 0, 71, 92
2, 213792, Note_off_c, 0, 71, 64
2, 213792, Note_on_c, 0, 69, 92
2, 213888, Note_off_c, 0, 69, 64
2, 213984, Note_on_c, 0, 69, 92
2, 214080, Note_off_c, 0, 69, 64
2, 214080, Note_on_c, 0, 71, 92
2, 214176, Note_off_c, 0, 71, 64
2, 214176, Note_on_c, 0, 69, 92
2, 214272, Note_off_c, 0, 69, 64
2, 214368, Note_on_c, 0, 69, 92
2, 214464, Note_off_c, 0, 69, 64
2, 214464, Note_on_c, 0, 71, 92
2, 214560, Note_off_c, 0, 71, 64
2, 214560, Note_on_c, 0, 69, 92
2, 214656, Note_off_c, 0, 69, 64
2, 214752, Note_on_c, 0, 71, 92
2, 214848, Note_off_c, 0, 71, 64
2, 214848, Note_on_c, 0, 72, 92
2, 214944, Note_off_c, 0, 72, 64
2, 214944, Note_on_c, 0, 71, 92
2, 215040, Note_off_c, 0, 71, 64
2, 215040, Note_on_c, 0, 62, 92
2, 215136, Note_off_c, 0, 62, 64
2, 215136, Note_on_c, 0, 71, 92
2, 215232, Note_off_c, 0, 71, 64
2, 215232, Note_on_c, 0, 72, 92
2, 215328, Note_off_c, 0, 72, 64
2, 215328, Note_on_c, 0, 71, 92
2, 215424, Note_off_c, 0, 71, 64
2, 215424, Note_on_c, 0, 60, 92
2, 215520, Note_off_c, 0, 60, 64
2, 215520, Note_on_c, 0, 71, 92
2, 215616, Note_off_c, 0, 71, 64
2, 215616, Note_on_c, 0, 72, 92
2, 215712, Note_off_c, 0, 72, 64
2, 215712, Note_on_c, 0, 71, 92
2, 215808, Note_off_c, 0, 71, 64
2, 215808, Note_on_c, 0, 62, 92
2, 215904, Note_off_c, 0, 62, 64
2, 215904, Note_on_c, 0, 71, 92
2, 216000, Note_off_c, 0, 71, 64
2, 216000, Note_on_c, 0, 72, 92
2, 216096, Note_off_c, 0, 72, 64
2, 216096, Note_on_c, 0, 71, 92
2, 216192, Note_off_c, 0, 71, 64
2, 216192, Note_on_c, 0, 59, 92
2, 216288, Note_off_c, 0, 59, 64
2, 216288, Note_on_c, 0, 71, 92
2, 216384, Note_off_c, 0, 71, 64
2, 216384, Note_on_c, 0, 72, 92
2, 216480, Note_off_c, 0, 72, 64
2, 216480, Note_on_c, 0, 71, 92
2, 216576, Note_off_c, 0, 71, 64
2, 216672, Note_on_c, 0, 71, 92
2, 216768, Note_off_c, 0, 71, 64
2, 216768, Note_on_c, 0, 72, 92
2, 216864, Note_off_c, 0, 72, 64
2, 216864, Note_on_c, 0, 71, 92
2, 216960, Note_off_c, 0, 71, 64
2, 217056, Note_on_c, 0, 71, 92
2, 217152, Note_off_c, 0, 71, 64
2, 217152, Note_on_c, 0, 72, 92
2, 217248, Note_off_c, 0, 72, 64
2, 217248, Note_on_c, 0, 71, 92
2, 217344, Note_off_c, 0, 71, 64
2, 217440, Note_on_c, 0, 71, 92
2, 217536, Note_off_c, 0, 71, 64
2, 217536, Note_on_c, 0, 72, 92
2, 217632, Note_off_c, 0, 72, 64
2, 217632, Note_on_c, 0, 71, 92
2, 217728, Note_off_c, 0, 71, 64
2, 217824, Note_on_c, 0, 72, 92
2, 217920, Note_off_c, 0, 72, 64
2, 217920, Note_on_c, 0, 74, 92
2, 218016, Note_off_c, 0, 74, 64
2, 218016, Note_on_c, 0, 72, 92
2, 218112, Note_off_c, 0, 72, 64
2, 218112, Note_on_c, 0, 64, 92
2, 218208, Note_off_c, 0, 64, 64
2, 218208, Note_on_c, 0, 72, 92
2, 218304, Note_off_c, 0, 72, 64
2, 218304, Note_on_c, 0, 74, 92
2, 218400, Note_off_c, 0, 74, 64
2, 218400, Note_on_c, 0, 72, 92
2, 218496, Note_off_c, 0, 72, 64
2, 218496, Note_on_c, 0, 62, 92
2, 218592, Note_off_c, 0, 62, 64
2, 218592, Note_on_c, 0, 72, 92
2, 218688, Note_off_c, 0, 72, 64
2, 218688, Note_on_c, 0, 74, 92
2, 218784, Note_off_c, 0, 74, 64
2, 218784, Note_on_c, 0, 72, 92
2, 218880, Note_off_c, 0, 72, 64
2, 218880, Note_on_c, 0, 64, 92
2, 218976, Note_off_c, 0, 64, 64
2, 218976, Note_on_c, 0, 72, 92
2, 219072, Note_off_c, 0, 72, 64
2, 219072, Note_on_c, 0, 74, 92
2, 219168, Note_off_c, 0, 74, 64
2, 219168, Note_on_c, 0, 72, 92
2, 219264, Note_off_c, 0, 72, 64
2, 219264, Note_on_c, 0, 60, 92
2, 219360, Note_off_c, 0, 60, 64
2, 219360, Note_on_c, 0, 72, 92
2, 219456, Note_off_c, 0, 72, 64
2, 219456, Note_on_c, 0, 74, 92
2, 219552, Note_off_c, 0, 74, 64
2, 219552, Note_on_c, 0, 72, 92
2, 219648, Note_off_c, 0, 72, 64
2, 219648, Note_on_c, 0, 65, 92
2, 219744, Note_off_c, 0, 65, 64
2, 219744, Note_on_c, 0, 69, 92
2, 219840, Note_off_c, 0, 69, 64
2, 219840, Note_on_c, 0, 64, 92
2, 219936, Note_off_c, 0, 64, 64
2, 219936, Note_on_c, 0, 69, 92
2, 220032, Note_off_c, 0, 69, 64
2, 220032, Note_on_c, 0, 65, 92
2, 220128, Note_off_c, 0, 65, 64
2, 220128, Note_on_c, 0, 69, 92
2, 220224, Note_off_c, 0, 69, 64
2, 220224, Note_on_c, 0, 62, 92
2, 220320, Note_off_c, 0, 62, 64
2, 220320, Note_on_c, 0, 69, 92
2, 220416, Note_off_c, 0, 69, 64
2, 220416, Note_on_c, 0, 65, 92
2, 220512, Note_off_c, 0, 65, 64
2, 220512, Note_on_c, 0, 69, 92
2, 220608, Note_off_c, 0, 69, 64
2, 220608, Note_on_c, 0, 64, 92
2, 220704, Note_off_c, 0, 64, 64
2, 220704, Note_on_c, 0, 69, 92
2, 220800, Note_off_c, 0, 69, 64
2, 220800, Note_on_c, 0, 65, 92
2, 220896, Note_off_c, 0, 65, 64
2, 220896, Note_on_c, 0, 69, 92
2, 220992, Note_off_c, 0, 69, 64
2, 220992, Note_on_c, 0, 62, 92
2, 221088, Note_off_c, 0, 62, 64
2, 221088, Note_on_c, 0, 69, 92
2, 221184, Note_off_c, 0, 69, 64
2, 221184, Note_on_c, 0, 66, 92
2, 221280, Note_off_c, 0, 66, 64
2, 221280, Note_on_c, 0, 74, 92
2, 221376, Note_off_c, 0, 74, 64
2, 221376, Note_on_c, 0, 76, 92
2, 221472, Note_off_c, 0, 76, 64
2, 221472, Note_on_c, 0, 74, 92
2, 221568, Note_off_c, 0, 74, 64
2, 221568, Note_on_c, 0, 64, 92
2, 221664, Note_off_c, 0, 64, 64
2, 221664, Note_on_c, 0, 74, 92
2, 221760, Note_off_c, 0, 74, 64
2, 221760, Note_on_c, 0, 76, 92
2, 221856, Note_off_c, 0, 76, 64
2, 221856, Note_on_c, 0, 74, 92
2, 221952, Note_off_c, 0, 74, 64
2, 221952, Note_on_c, 0, 66, 92
2, 222048, Note_off_c, 0, 66, 64
2, 222048, Note_on_c, 0, 74, 92
2, 222144, Note_off_c, 0, 74, 64
2, 222144, Note_on_c, 0, 76, 92
2, 222240, Note_off_c, 0, 76, 64
2, 222240, Note_on_c, 0, 74, 92
2, 222336, Note_off_c, 0, 74, 64
2, 222336, Note_on_c, 0, 62, 92
2, 222432, Note_off_c, 0, 62, 64
2, 222432, Note_on_c, 0, 74, 92
2, 222528, Note_off_c, 0, 74, 64
2, 222528, Note_on_c, 0, 76, 92
2, 222624, Note_off_c, 0, 76, 64
2, 222624, Note_on_c, 0, 74, 92
2, 222720, Note_off_c, 0, 74, 64
2, 222720, Note_on_c, 0, 67, 92
2, 222816, Note_off_c, 0, 67, 64
2, 222816, Note_on_c, 0, 71, 92
2, 222912, Note_off_c, 0, 71, 64
2, 222912, Note_on_c, 0, 66, 92
2, 223008, Note_off_c, 0, 66, 64
2, 223008, Note_on_c, 0, 71, 92
2, 223104, Note_off_c, 0, 71, 64
2, 223104, Note_on_c, 0, 67, 92
2, 223200, Note_off_c, 0, 67, 64
2, 223200, Note_on_c, 0, 71, 92
2, 223296, Note_off_c, 0, 71, 64
2, 223296, Note_on_c, 0, 64, 92
2, 223392, Note_off_c, 0, 64, 64
2, 223392, Note_on_c, 0, 71, 92
2, 223488, Note_off_c, 0, 71, 64
2, 223488, Note_on_c, 0, 67, 92
2, 223584, Note_off_c, 0, 67, 64
2, 223584, Note_on_c, 0, 71, 92
2, 223680, Note_off_c, 0, 71, 64
2, 223680, Note_on_c, 0, 66, 92
2, 223776, Note_off_c, 0, 66, 64
2, 223776, Note_on_c, 0, 71, 92
2, 223872, Note_off_c, 0, 71, 64
2, 223872, Note_on_c, 0, 67, 92
2, 223968, Note_off_c, 0, 67, 64
2, 223968, Note_on_c, 0, 71, 92
2, 224064, Note_off_c, 0, 71, 64
2, 224064, Note_on_c, 0, 64, 92
2, 224160, Note_off_c, 0, 64, 64
2, 224160, Note_on_c, 0, 71, 92
2, 224256, Note_off_c, 0, 71, 64
2, 224256, Note_on_c, 0, 68, 92
2, 224352, Note_off_c, 0, 68, 64
2, 224352, Note_on_c, 0, 76, 92
2, 224448, Note_off_c, 0, 76, 64
2, 224448, Note_on_c, 0, 77, 92
2, 224544, Note_off_c, 0, 77, 64
2, 224544, Note_on_c, 0, 76, 92
2, 224640, Note_off_c, 0, 76, 64
2, 224640, Note_on_c, 0, 66, 92
2, 224736, Note_off_c, 0, 66, 64
2, 224736, Note_on_c, 0, 76, 92
2, 224832, Note_off_c, 0, 76, 64
2, 224832, Note_on_c, 0, 77, 92
2, 224928, Note_off_c, 0, 77, 64
2, 224928, Note_on_c, 0, 76, 92
2, 225024, Note_off_c, 0, 76, 64
2, 225024, Note_on_c, 0, 68, 92
2, 225120, Note_off_c, 0, 68, 64
2, 225120, Note_on_c, 0, 76, 92
2, 225216, Note_off_c, 0, 76, 64
2, 225216, Note_on_c, 0, 77, 92
2, 225312, Note_off_c, 0, 77, 64
2, 225312, Note_on_c, 0, 76, 92
2, 225408, Note_off_c, 0, 76, 64
2, 225408, Note_on_c, 0, 64, 92
2, 225504, Note_off_c, 0, 64, 64
2, 225504, Note_on_c, 0, 76, 92
2, 225600, Note_off_c, 0, 76, 64
2, 225600, Note_on_c, 0, 77, 92
2, 225696, Note_off_c, 0, 77, 64
2, 225696, Note_on_c, 0, 76, 92
2, 225792, Note_off_c, 0, 76, 64
2, 225792, Note_on_c, 0, 69, 92
2, 225888, Note_off_c, 0, 69, 64
2, 225888, Note_on_c, 0, 72, 92
2, 225984, Note_off_c, 0, 72, 64
2, 225984, Note_on_c, 0, 67, 92
2, 226080, Note_off_c, 0, 67, 64
2, 226080, Note_on_c, 0, 72, 92
2, 226176, Note_off_c, 0, 72, 64
2, 226176, Note_on_c, 0, 69, 92
2, 226272, Note_off_c, 0, 69, 64
2, 226272, Note_on_c, 0, 72, 92
2, 226368, Note_off_c, 0, 72, 64
2, 226368, Note_on_c, 0, 65, 92
2, 226464, Note_off_c, 0, 65, 64
2, 226464, Note_on_c, 0, 72, 92
2, 226560, Note_off_c, 0, 72, 64
2, 226560, Note_on_c, 0, 69, 92
2, 226656, Note_off_c, 0, 69, 64
2, 226656, Note_on_c, 0, 72, 92
2, 226752, Note_off_c, 0, 72, 64
2, 226752, Note_on_c, 0, 67, 92
2, 226848, Note_off_c, 0, 67, 64
2, 226848, Note_on_c, 0, 72, 92
2, 226944, Note_off_c, 0, 72, 64
2, 226944, Note_on_c, 0, 69, 92
2, 227040, Note_off_c, 0, 69, 64
2, 227040, Note_on_c, 0, 72, 92
2, 227136, Note_off_c, 0, 72, 64
2, 227136, Note_on_c, 0, 65, 92
2, 227232, Note_off_c, 0, 65, 64
2, 227232, Note_on_c, 0, 72, 92
2, 227328, Note_off_c, 0, 72, 64
2, 227328, Note_on_c, 0, 69, 92
2, 227424, Note_off_c, 0, 69, 64
2, 227424, Note_on_c, 0, 77, 92
2, 227520, Note_off_c, 0, 77, 64
2, 227520, Note_on_c, 0, 79, 92
2, 227616, Note_off_c, 0, 79, 64
2, 227616, Note_on_c, 0, 77, 92
2, 227712, Note_off_c, 0, 77, 64
2, 227712, Note_on_c, 0, 67, 92
2, 227808, Note_off_c, 0, 67, 64
2, 227808, Note_on_c, 0, 77, 92
2, 227904, Note_off_c, 0, 77, 64
2, 227904, Note_on_c, 0, 79, 92
2, 228000, Note_off_c, 0, 79, 64
2, 228000, Note_on_c, 0, 77, 92
2, 228096, Note_off_c, 0, 77, 64
2, 228096, Note_on_c, 0, 69, 92
2, 228192, Note_off_c, 0, 69, 64
2, 228192, Note_on_c, 0, 77, 92
2, 228288, Note_off_c, 0, 77, 64
2, 228288, Note_on_c, 0, 79, 92
2, 228384, Note_off_c, 0, 79, 64
2, 228384, Note_on_c, 0, 77, 92
2, 228480, Note_off_c, 0, 77, 64
2, 228480, Note_on_c, 0, 65, 92
2, 228576, Note_off_c, 0, 65, 64
2, 228576, Note_on_c, 0, 77, 92
2, 228672, Note_off_c, 0, 77, 64
2, 228672, Note_on_c, 0, 79, 92
2, 228768, Note_off_c, 0, 79, 64
2, 228768, Note_on_c, 0, 77, 92
2, 228864, Note_off_c, 0, 77, 64
2, 228864, Note_on_c, 0, 71, 92
2, 228960, Note_off_c, 0, 71, 64
2, 228960, Note_on_c, 0, 79, 92
2, 229056, Note_off_c, 0, 79, 64
2, 229056, Note_on_c, 0, 81, 92
2, 229152, Note_off_c, 0, 81, 64
2, 229152, Note_on_c, 0, 79, 92
2, 229248, Note_off_c, 0, 79, 64
2, 229248, Note_on_c, 0, 69, 92
2, 229344, Note_off_c, 0, 69, 64
2, 229344, Note_on_c, 0, 79, 92
2, 229440, Note_off_c, 0, 79, 64
2, 229440, Note_on_c, 0, 81, 92
2, 229536, Note_off_c, 0, 81, 64
2, 229536, Note_on_c, 0, 79, 92
2, 229632, Note_off_c, 0, 79, 64
2, 229632, Note_on_c, 0, 71, 92
2, 229728, Note_off_c, 0, 71, 64
2, 229728, Note_on_c, 0, 79, 92
2, 229824, Note_off_c, 0, 79, 64
2, 229824, Note_on_c, 0, 81, 92
2, 229920, Note_off_c, 0, 81, 64
2, 229920, Note_on_c, 0, 79, 92
2, 230016, Note_off_c, 0, 79, 64
2, 230016, Note_on_c, 0, 67, 92
2, 230112, Note_off_c, 0, 67, 64
2, 230112, Note_on_c, 0, 79, 92
2, 230208, Note_off_c, 0, 79, 64
2, 230208, Note_on_c, 0, 81, 92
2, 230304, Note_off_c, 0, 81, 64
2, 230304, Note_on_c, 0, 79, 92
2, 230400, Note_off_c, 0, 79, 64
2, 230400, Note_on_c, 0, 72, 92
2, 230496, Note_off_c, 0, 72, 64
2, 230496, Note_on_c, 0, 79, 92
2, 230592, Note_off_c, 0, 79, 64
2, 230592, Note_on_c, 0, 81, 92
2, 230688, Note_off_c, 0, 81, 64
2, 230688, Note_on_c, 0, 79, 92
2, 230784, Note_off_c, 0, 79, 64
2, 230784, Note_on_c, 0, 71, 92
2, 230880, Note_off_c, 0, 71, 64
2, 230880, Note_on_c, 0, 79, 92
2, 230976, Note_off_c, 0, 79, 64
2, 230976, Note_on_c, 0, 81, 92
2, 231072, Note_off_c, 0, 81, 64
2, 231072, Note_on_c, 0, 79, 92
2, 231168, Note_off_c, 0, 79, 64
2, 231168, Note_on_c, 0, 72, 92
2, 231264, Note_off_c, 0, 72, 64
2, 231264, Note_on_c, 0, 79, 92
2, 231360, Note_off_c, 0, 79, 64
2, 231360, Note_on_c, 0, 81, 92
2, 231456, Note_off_c, 0, 81, 64
2, 231456, Note_on_c, 0, 79, 92
2, 231552, Note_off_c, 0, 79, 64
2, 231552, Note_on_c, 0, 69, 92
2, 231648, Note_off_c, 0, 69, 64
2, 231648, Note_on_c, 0, 79, 92
2, 231744, Note_off_c, 0, 79, 64
2, 231744, Note_on_c, 0, 81, 92
2, 231840, Note_off_c, 0, 81, 64
2, 231840, Note_on_c, 0, 79, 92
2, 231936, Note_off_c, 0, 79, 64
2, 231936, Note_on_c, 0, 71, 92
2, 232032, Note_off_c, 0, 71, 64
2, 232032, Note_on_c, 0, 79, 92
2, 232128, Note_off_c, 0, 79, 64
2, 232128, Note_on_c, 0, 81, 92
2, 232224, Note_off_c, 0, 81, 64
2, 232224, Note_on_c, 0, 79, 92
2, 232320, Note_off_c, 0, 79, 64
2, 232320, Note_on_c, 0, 69, 92
2, 232416, Note_off_c, 0, 69, 64
2, 232416, Note_on_c, 0, 79, 92
2, 232512, Note_off_c, 0, 79, 64
2, 232512, Note_on_c, 0, 81, 92
2, 232608, Note_off_c, 0, 81, 64
2, 232608, Note_on_c, 0, 79, 92
2, 232704, Note_off_c, 0, 79, 64
2, 232704, Note_on_c, 0, 71, 92
2, 232800, Note_off_c, 0, 71, 64
2, 232800, Note_on_c, 0, 79, 92
2, 232896, Note_off_c, 0, 79, 64
2, 232896, Note_on_c, 0, 81, 92
2, 232992, Note_off_c, 0, 81, 64
2, 232992, Note_on_c, 0, 79, 92
2, 233088, Note_off_c, 0, 79, 64
2, 233088, Note_on_c, 0, 67, 92
2, 233184, Note_off_c, 0, 67, 64
2, 233184, Note_on_c, 0, 79, 92
2, 233280, Note_off_c, 0, 79, 64
2, 233280, Note_on_c, 0, 81, 92
2, 233376, Note_off_c, 0, 81, 64
2, 233376, Note_on_c, 0, 79, 92
2, 233472, Note_off_c, 0, 79, 64
2, 233472, Note_on_c, 0, 69, 92
2, 233568, Note_off_c, 0, 69, 64
2, 233568, Note_on_c, 0, 79, 92
2, 233664, Note_off_c, 0, 79, 64
2, 233664, Note_on_c, 0, 81, 92
2, 233760, Note_off_c, 0, 81, 64
2, 233760, Note_on_c, 0, 79, 92
2, 233856, Note_off_c, 0, 79, 64
2, 233856, Note_on_c, 0, 67, 92
2, 233952, Note_off_c, 0, 67, 64
2, 233952, Note_on_c, 0, 79, 92
2, 234048, Note_off_c, 0, 79, 64
2, 234048, Note_on_c, 0, 81, 92
2, 234144, Note_off_c, 0, 81, 64
2, 234144, Note_on_c, 0, 79, 92
2, 234240, Note_off_c, 0, 79, 64
2, 234240, Note_on_c, 0, 69, 92
2, 234336, Note_off_c, 0, 69, 64
2, 234336, Note_on_c, 0, 79, 92
2, 234432, Note_off_c, 0, 79, 64
2, 234432, Note_on_c, 0, 81, 92
2, 234528, Note_off_c, 0, 81, 64
2, 234528, Note_on_c, 0, 79, 92
2, 234624, Note_off_c, 0, 79, 64
2, 234624, Note_on_c, 0, 65, 92
2, 234720, Note_off_c, 0, 65, 64
2, 234720, Note_on_c, 0, 79, 92
2, 234816, Note_off_c, 0, 79, 64
2, 234816, Note_on_c, 0, 81, 92
2, 234912, Note_off_c, 0, 81, 64
2, 234912, Note_on_c, 0, 79, 92
2, 235008, Note_off_c, 0, 79, 64
2, 235008, Note_on_c, 0, 67, 92
2, 235104, Note_off_c, 0, 67, 64
2, 235104, Note_on_c, 0, 79, 92
2, 235200, Note_off_c, 0, 79, 64
2, 235200, Note_on_c, 0, 81, 92
2, 235296, Note_off_c, 0, 81, 64
2, 235296, Note_on_c, 0, 79, 92
2, 235392, Note_off_c, 0, 79, 64
2, 235392, Note_on_c, 0, 65, 92
2, 235488, Note_off_c, 0, 65, 64
2, 235488, Note_on_c, 0, 79, 92
2, 235584, Note_off_c, 0, 79, 64
2, 235584, Note_on_c, 0, 81, 92
2, 235680, Note_off_c, 0, 81, 64
2, 235680, Note_on_c, 0, 79, 92
2, 235776, Note_off_c, 0, 79, 64
2, 235776, Note_on_c, 0, 67, 92
2, 235872, Note_off_c, 0, 67, 64
2, 235872, Note_on_c, 0, 79, 92
2, 235968, Note_off_c, 0, 79, 64
2, 235968, Note_on_c, 0, 81, 92
2, 236064, Note_off_c, 0, 81, 64
2, 236064, Note_on_c, 0, 79, 92
2, 236160, Note_off_c, 0, 79, 64
2, 236160, Note_on_c, 0, 64, 92
2, 236256, Note_off_c, 0, 64, 64
2, 236256, Note_on_c, 0, 79, 92
2, 236352, Note_off_c, 0, 79, 64
2, 236352, Note_on_c, 0, 81, 92
2, 236448, Note_off_c, 0, 81, 64
2, 236448, Note_on_c, 0, 79, 92
2, 236544, Note_off_c, 0, 79, 64
2, 236544, Note_on_c, 0, 65, 92
2, 236640, Note_off_c, 0, 65, 64
2, 236640, Note_on_c, 0, 79, 92
2, 236736, Note_off_c, 0, 79, 64
2, 236736, Note_on_c, 0, 81, 92
2, 236832, Note_off_c, 0, 81, 64
2, 236832, Note_on_c, 0, 79, 92
2, 236928, Note_off_c, 0, 79, 64
2, 236928, Note_on_c, 0, 64, 92
2, 237024, Note_off_c, 0, 64, 64
2, 237024, Note_on_c, 0, 79, 92
2, 237120, Note_off_c, 0, 79, 64
2, 237120, Note_on_c, 0, 81, 92
2, 237216, Note_off_c, 0, 81, 64
2, 237216, Note_on_c, 0, 79, 92
2, 237312, Note_off_c, 0, 79, 64
2, 237312, Note_on_c, 0, 65, 92
2, 237408, Note_off_c, 0, 65, 64
2, 237408, Note_on_c, 0, 79, 92
2, 237504, Note_off_c, 0, 79, 64
2, 237504, Note_on_c, 0, 81, 92
2, 237600, Note_off_c, 0, 81, 64
2, 237600, Note_on_c, 0, 79, 92
2, 237696, Note_off_c, 0, 79, 64
2, 237696, Note_on_c, 0, 62, 92
2, 237792, Note_off_c, 0, 62, 64
2, 237792, Note_on_c, 0, 79, 92
2, 237888, Note_off_c, 0, 79, 64
2, 237888, Note_on_c, 0, 81, 92
2, 237984, Note_off_c, 0, 81, 64
2, 237984, Note_on_c, 0, 79, 92
2, 238080, Note_off_c, 0, 79, 64
2, 238080, Note_on_c, 0, 64, 92
2, 238176, Note_off_c, 0, 64, 64
2, 238176, Note_on_c, 0, 79, 92
2, 238272, Note_off_c, 0, 79, 64
2, 238272, Note_on_c, 0, 67, 92
2, 238368, Note_off_c, 0, 67, 64
2, 238368, Note_on_c, 0, 79, 92
2, 238464, Note_off_c, 0, 79, 64
2, 238464, Note_on_c, 0, 65, 92
2, 238560, Note_off_c, 0, 65, 64
2, 238560, Note_on_c, 0, 79, 92
2, 238656, Note_off_c, 0, 79, 64
2, 238656, Note_on_c, 0, 64, 92
2, 238752, Note_off_c, 0, 64, 64
2, 238752, Note_on_c, 0, 79, 92
2, 238848, Note_off_c, 0, 79, 64
2, 238848, Note_on_c, 0, 62, 92
2, 238944, Note_off_c, 0, 62, 64
2, 238944, Note_on_c, 0, 79, 92
2, 239040, Note_off_c, 0, 79, 64
2, 239040, Note_on_c, 0, 60, 92
2, 239136, Note_off_c, 0, 60, 64
2, 239136, Note_on_c, 0, 79, 92
2, 239232, Note_off_c, 0, 79, 64
2, 239328, Note_on_c, 0, 79, 92
2, 239424, Note_off_c, 0, 79, 64
2, 239520, Note_on_c, 0, 79, 92
2, 239616, Note_off_c, 0, 79, 64
2, 239616, Note_on_c, 0, 81, 92
2, 239664, Note_off_c, 0, 81, 64
2, 239664, Note_on_c, 0, 79, 92
2, 239712, Note_off_c, 0, 79, 64
2, 239712, Note_on_c, 0, 81, 92
2, 239712, Note_on_c, 0, 67, 92
2, 239760, Note_off_c, 0, 81, 64
2, 239760, Note_on_c, 0, 79, 92
2, 239808, Note_off_c, 0, 79, 64
2, 239808, Note_off_c, 0, 67, 64
2, 239808, Note_on_c, 0, 81, 92
2, 239856, Note_off_c, 0, 81, 64
2, 239856, Note_on_c, 0, 79, 92
2, 239904, Note_off_c, 0, 79, 64
2, 239904, Note_on_c, 0, 81, 92
2, 239904, Note_on_c, 0, 67, 92
2, 239952, Note_off_c, 0, 81, 64
2, 239952, Note_on_c, 0, 79, 92
2, 240000, Note_off_c, 0, 79, 64
2, 240000, Note_off_c, 0, 67, 64
2, 240000, Note_on_c, 0, 81, 92
2, 240048, Note_off_c, 0, 81, 64
2, 240048, Note_on_c, 0, 79, 92
2, 240096, Note_off_c, 0, 79, 64
2, 240096, Note_on_c, 0, 81, 92
2, 240096, Note_on_c, 0, 67, 92
2, 240144, Note_off_c, 0, 81, 64
2, 240144, Note_on_c, 0, 79, 92
2, 240192, Note_off_c, 0, 79, 64
2, 240192, Note_off_c, 0, 67, 64
2, 240192, Note_on_c, 0, 81, 92
2, 240240, Note_off_c, 0, 81, 64
2, 240240, Note_on_c, 0, 79, 92
2, 240288, Note_off_c, 0, 79, 64
2, 240288, Note_on_c, 0, 81, 92
2, 240288, Note_on_c, 0, 67, 92
2, 240336, Note_off_c, 0, 81, 64
2, 240336, Note_on_c, 0, 79, 92
2, 240384, Note_off_c, 0, 79, 64
2, 240384, Note_off_c, 0, 67, 64
2, 240384, Note_on_c, 0, 81, 92
2, 240384, Note_on_c, 0, 62, 92
2, 240432, Note_off_c, 0, 81, 64
2, 240432, Note_on_c, 0, 79, 92
2, 240480, Note_off_c, 0, 79, 64
2, 240480, Note_off_c, 0, 62, 64
2, 240480, Note_on_c, 0, 81, 92
2, 240480, Note_on_c, 0, 67, 92
2, 240528, Note_off_c, 0, 81, 64
2, 240528, Note_on_c, 0, 79, 92
2, 240576, Note_off_c, 0, 79, 64
2, 240576, Note_off_c, 0, 67, 64
2, 240576, Note_on_c, 0, 81, 92
2, 240576, Note_on_c, 0, 62, 92
2, 240624, Note_off_c, 0, 81, 64
2, 240624, Note_on_c, 0, 79, 92
2, 240672, Note_off_c, 0, 79, 64
2, 240672, Note_off_c, 0, 62, 64
2, 240672, Note_on_c, 0, 81, 92
2, 240672, Note_on_c, 0, 67, 92
2, 240720, Note_off_c, 0, 81, 64
2, 240720, Note_on_c, 0, 79, 92
2, 240768, Note_off_c, 0, 79, 64
2, 240768, Note_off_c, 0, 67, 64
2, 240768, Note_on_c, 0, 81, 92
2, 240816, Note_off_c, 0, 81, 64
2, 240816, Note_on_c, 0, 79, 92
2, 240864, Note_off_c, 0, 79, 64
2, 240864, Note_on_c, 0, 81, 92
2, 240864, Note_on_c, 0, 67, 92
2, 240912, Note_off_c, 0, 81, 64
2, 240912, Note_on_c, 0, 79, 92
2, 240960, Note_off_c, 0, 79, 64
2, 240960, Note_off_c, 0, 67, 64
2, 240960, Note_on_c, 0, 81, 92
2, 241008, Note_off_c, 0, 81, 64
2, 241008, Note_on_c, 0, 79, 92
2, 241056, Note_off_c, 0, 79, 64
2, 241056, Note_on_c, 0, 81, 92
2, 241056, Note_on_c, 0, 67, 92
2, 241104, Note_off_c, 0, 81, 64
2, 241104, Note_on_c, 0, 79, 92
2, 241152, Note_off_c, 0, 79, 64
2, 241152, Note_off_c, 0, 67, 64
2, 241152, Note_on_c, 0, 81, 92
2, 241200, Note_off_c, 0, 81, 64
2, 241200, Note_on_c, 0, 79, 92
2, 241248, Note_off_c, 0, 79, 64
2, 241248, Note_on_c, 0, 81, 92
2, 241248, Note_on_c, 0, 67, 92
2, 241296, Note_off_c, 0, 81, 64
2, 241296, Note_on_c, 0, 79, 92
2, 241344, Note_off_c, 0, 79, 64
2, 241344, Note_off_c, 0, 67, 64
2, 241344, Note_on_c, 0, 81, 92
2, 241392, Note_off_c, 0, 81, 64
2, 241392, Note_on_c, 0, 79, 92
2, 241440, Note_off_c, 0, 79, 64
2, 241440, Note_on_c, 0, 81, 92
2, 241440, Note_on_c, 0, 67, 92
2, 241488, Note_off_c, 0, 81, 64
2, 241488, Note_on_c, 0, 79, 92
2, 241536, Note_off_c, 0, 79, 64
2, 241536, Note_off_c, 0, 67, 64
2, 241536, Note_on_c, 0, 81, 92
2, 241584, Note_off_c, 0, 81, 64
2, 241584, Note_on_c, 0, 79, 92
2, 241632, Note_off_c, 0, 79, 64
2, 241632, Note_on_c, 0, 81, 92
2, 241632, Note_on_c, 0, 67, 92
2, 241680, Note_off_c, 0, 81, 64
2, 241680, Note_on_c, 0, 79, 92
2, 241728, Note_off_c, 0, 79, 64
2, 241728, Note_off_c, 0, 67, 64
2, 241728, Note_on_c, 0, 81, 92
2, 241776, Note_off_c, 0, 81, 64
2, 241776, Note_on_c, 0, 79, 92
2, 241824, Note_off_c, 0, 79, 64
2, 241824, Note_on_c, 0, 81, 92
2, 241824, Note_on_c, 0, 67, 92
2, 241872, Note_off_c, 0, 81, 64
2, 241872, Note_on_c, 0, 79, 92
2, 241920, Note_off_c, 0, 79, 64
2, 241920, Note_off_c, 0, 67, 64
2, 241920, Note_on_c, 0, 81, 92
2, 241920, Note_on_c, 0, 62, 92
2, 241968, Note_off_c, 0, 81, 64
2, 241968, Note_on_c, 0, 79, 92
2, 242016, Note_off_c, 0, 79, 64
2, 242016, Note_off_c, 0, 62, 64
2, 242016, Note_on_c, 0, 81, 92
2, 242016, Note_on_c, 0, 67, 92
2, 242064, Note_off_c, 0, 81, 64
2, 242064, Note_on_c, 0, 79, 92
2, 242112, Note_off_c, 0, 79, 64
2, 242112, Note_off_c, 0, 67, 64
2, 242112, Note_on_c, 0, 81, 92
2, 242112, Note_on_c, 0, 62, 92
2, 242160, Note_off_c, 0, 81, 64
2, 242160, Note_on_c, 0, 79, 92
2, 242208, Note_off_c, 0, 79, 64
2, 242208, Note_off_c, 0, 62, 64
2, 242208, Note_on_c, 0, 81, 92
2, 242208, Note_on_c, 0, 67, 92
2, 242256, Note_off_c, 0, 81, 64
2, 242256, Note_on_c, 0, 79, 92
2, 242304, Note_off_c, 0, 79, 64
2, 242304, Note_off_c, 0, 67, 64
2, 242304, Note_on_c, 0, 81, 92
2, 242352, Note_off_c, 0, 81, 64
2, 242352, Note_on_c, 0, 79, 92
2, 242400, Note_off_c, 0, 79, 64
2, 242400, Note_on_c, 0, 81, 92
2, 242400, Note_on_c, 0, 67, 92
2, 242448, Note_off_c, 0, 81, 64
2, 242448, Note_on_c, 0, 79, 92
2, 242496, Note_off_c, 0, 79, 64
2, 242496, Note_off_c, 0, 67, 64
2, 242496, Note_on_c, 0, 81, 92
2, 242544, Note_off_c, 0, 81, 64
2, 242544, Note_on_c, 0, 79, 92
2, 242592, Note_off_c, 0, 79, 64
2, 242592, Note_on_c, 0, 81, 92
2, 242592, Note_on_c, 0, 67, 92
2, 242640, Note_off_c, 0, 81, 64
2, 242640, Note_on_c, 0, 79, 92
2, 242688, Note_off_c, 0, 79, 64
2, 242688, Note_off_c, 0, 67, 64
2, 242688, Note_on_c, 0, 81, 92
2, 242736, Note_off_c, 0, 81, 64
2, 242736, Note_on_c, 0, 79, 92
2, 242784, Note_off_c, 0, 79, 64
2, 242784, Note_on_c, 0, 81, 92
2, 242784, Note_on_c, 0, 67, 92
2, 242832, Note_off_c, 0, 81, 64
2, 242832, Note_on_c, 0, 79, 92
2, 242880, Note_off_c, 0, 79, 64
2, 242880, Note_off_c, 0, 67, 64
2, 242880, Note_on_c, 0, 81, 92
2, 242928, Note_off_c, 0, 81, 64
2, 242928, Note_on_c, 0, 79, 92
2, 242976, Note_off_c, 0, 79, 64
2, 242976, Note_on_c, 0, 81, 92
2, 242976, Note_on_c, 0, 67, 92
2, 243024, Note_off_c, 0, 81, 64
2, 243024, Note_on_c, 0, 79, 92
2, 243072, Note_off_c, 0, 79, 64
2, 243072, Note_off_c, 0, 67, 64
2, 243072, Note_on_c, 0, 81, 92
2, 243072, Note_on_c, 0, 60, 92
2, 243120, Note_off_c, 0, 81, 64
2, 243120, Note_on_c, 0, 79, 92
2, 243168, Note_off_c, 0, 79, 64
2, 243168, Note_off_c, 0, 60, 64
2, 243168, Note_on_c, 0, 81, 92
2, 243168, Note_on_c, 0, 67, 92
2, 243216, Note_off_c, 0, 81, 64
2, 243216, Note_on_c, 0, 79, 92
2, 243264, Note_off_c, 0, 79, 64
2, 243264, Note_off_c, 0, 67, 64
2, 243264, Note_on_c, 0, 81, 92
2, 243264, Note_on_c, 0, 60, 92
2, 243312, Note_off_c, 0, 81, 64
2, 243312, Note_on_c, 0, 79, 92
2, 243360, Note_off_c, 0, 79, 64
2, 243360, Note_off_c, 0, 60, 64
2, 243360, Note_on_c, 0, 81, 92
2, 243360, Note_on_c, 0, 67, 92
2, 243408, Note_off_c, 0, 81, 64
2, 243408, Note_on_c, 0, 79, 92
2, 243456, Note_off_c, 0, 79, 64
2, 243456, Note_off_c, 0, 67, 64
2, 243456, Note_on_c, 0, 81, 92
2, 243456, Note_on_c, 0, 64, 92
2, 243504, Note_off_c, 0, 81, 64
2, 243504, Note_on_c, 0, 79, 92
2, 243552, Note_off_c, 0, 79, 64
2, 243552, Note_off_c, 0, 64, 64
2, 243552, Note_on_c, 0, 81, 92
2, 243552, Note_on_c, 0, 67, 92
2, 243600, Note_off_c, 0, 81, 64
2, 243600, Note_on_c, 0, 79, 92
2, 243648, Note_off_c, 0, 79, 64
2, 243648, Note_off_c, 0, 67, 64
2, 243648, Note_on_c, 0, 81, 92
2, 243648, Note_on_c, 0, 64, 92
2, 243696, Note_off_c, 0, 81, 64
2, 243696, Note_on_c, 0, 79, 92
2, 243744, Note_off_c, 0, 79, 64
2, 243744, Note_off_c, 0, 64, 64
2, 243744, Note_on_c, 0, 81, 92
2, 243744, Note_on_c, 0, 67, 92
2, 243792, Note_off_c, 0, 81, 64
2, 243792, Note_on_c, 0, 79, 92
2, 243840, Note_off_c, 0, 79, 64
2, 243840, Note_off_c, 0, 67, 64
2, 243840, Note_on_c, 0, 81, 92
2, 243840, Note_on_c, 0, 60, 92
2, 243888, Note_off_c, 0, 81, 64
2, 243888, Note_on_c, 0, 79, 92
2, 243936, Note_off_c, 0, 79, 64
2, 243936, Note_off_c, 0, 60, 64
2, 243936, Note_on_c, 0, 81, 92
2, 243936, Note_on_c, 0, 67, 92
2, 243984, Note_off_c, 0, 81, 64
2, 243984, Note_on_c, 0, 79, 92
2, 244032, Note_off_c, 0, 79, 64
2, 244032, Note_off_c, 0, 67, 64
2, 244032, Note_on_c, 0, 81, 92
2, 244032, Note_on_c, 0, 60, 92
2, 244080, Note_off_c, 0, 81, 64
2, 244080, Note_on_c, 0, 79, 92
2, 244128, Note_off_c, 0, 79, 64
2, 244128, Note_off_c, 0, 60, 64
2, 244128, Note_on_c, 0, 81, 92
2, 244128, Note_on_c, 0, 67, 92
2, 244176, Note_off_c, 0, 81, 64
2, 244176, Note_on_c, 0, 79, 92
2, 244224, Note_off_c, 0, 79, 64
2, 244224, Note_off_c, 0, 67, 64
2, 244224, Note_on_c, 0, 81, 92
2, 244272, Note_off_c, 0, 81, 64
2, 244272, Note_on_c, 0, 79, 92
2, 244320, Note_off_c, 0, 79, 64
2, 244320, Note_on_c, 0, 81, 92
2, 244320, Note_on_c, 0, 67, 92
2, 244368, Note_off_c, 0, 81, 64
2, 244368, Note_on_c, 0, 79, 92
2, 244416, Note_off_c, 0, 79, 64
2, 244416, Note_off_c, 0, 67, 64
2, 244416, Note_on_c, 0, 81, 92
2, 244464, Note_off_c, 0, 81, 64
2, 244464, Note_on_c, 0, 79, 92
2, 244512, Note_off_c, 0, 79, 64
2, 244512, Note_on_c, 0, 81, 92
2, 244512, Note_on_c, 0, 67, 92
2, 244560, Note_off_c, 0, 81, 64
2, 244560, Note_on_c, 0, 79, 92
2, 244608, Note_off_c, 0, 79, 64
2, 244608, Note_off_c, 0, 67, 64
2, 244608, Note_on_c, 0, 81, 92
2, 244608, Note_on_c, 0, 60, 92
2, 244656, Note_off_c, 0, 81, 64
2, 244656, Note_on_c, 0, 79, 92
2, 244704, Note_off_c, 0, 79, 64
2, 244704, Note_off_c, 0, 60, 64
2, 244704, Note_on_c, 0, 81, 92
2, 244704, Note_on_c, 0, 67, 92
2, 244752, Note_off_c, 0, 81, 64
2, 244752, Note_on_c, 0, 79, 92
2, 244800, Note_off_c, 0, 79, 64
2, 244800, Note_off_c, 0, 67, 64
2, 244800, Note_on_c, 0, 81, 92
2, 244800, Note_on_c, 0, 60, 92
2, 244848, Note_off_c, 0, 81, 64
2, 244848, Note_on_c, 0, 79, 92
2, 244896, Note_off_c, 0, 79, 64
2, 244896, Note_off_c, 0, 60, 64
2, 244896, Note_on_c, 0, 81, 92
2, 244896, Note_on_c, 0, 67, 92
2, 244944, Note_off_c, 0, 81, 64
2, 244944, Note_on_c, 0, 79, 92
2, 244992, Note_off_c, 0, 79, 64
2, 244992, Note_off_c, 0, 67, 64
2, 244992, Note_on_c, 0, 81, 92
2, 244992, Note_on_c, 0, 64, 92
2, 245040, Note_off_c, 0, 81, 64
2, 245040, Note_on_c, 0, 79, 92
2, 245088, Note_off_c, 0, 79, 64
2, 245088, Note_off_c, 0, 64, 64
2, 245088, Note_on_c, 0, 81, 92
2, 245088, Note_on_c, 0, 67, 92
2, 245136, Note_off_c, 0, 81, 64
2, 245136, Note_on_c, 0, 79, 92
2, 245184, Note_off_c, 0, 79, 64
2, 245184, Note_off_c, 0, 67, 64
2, 245184, Note_on_c, 0, 81, 92
2, 245184, Note_on_c, 0, 64, 92
2, 245232, Note_off_c, 0, 81, 64
2, 245232, Note_on_c, 0, 79, 92
2, 245280, Note_off_c, 0, 79, 64
2, 245280, Note_off_c, 0, 64, 64
2, 245280, Note_on_c, 0, 81, 92
2, 245280, Note_on_c, 0, 67, 92
2, 245328, Note_off_c, 0, 81, 64
2, 245328, Note_on_c, 0, 79, 92
2, 245376, Note_off_c, 0, 79, 64
2, 245376, Note_off_c, 0, 67, 64
2, 245376, Note_on_c, 0, 81, 92
2, 245376, Note_on_c, 0, 60, 92
2, 245424, Note_off_c, 0, 81, 64
2, 245424, Note_on_c, 0, 79, 92
2, 245472, Note_off_c, 0, 79, 64
2, 245472, Note_off_c, 0, 60, 64
2, 245472, Note_on_c, 0, 81, 92
2, 245472, Note_on_c, 0, 67, 92
2, 245520, Note_off_c, 0, 81, 64
2, 245520, Note_on_c, 0, 79, 92
2, 245568, Note_off_c, 0, 79, 64
2, 245568, Note_off_c, 0, 67, 64
2, 245568, Note_on_c, 0, 81, 92
2, 245568, Note_on_c, 0, 60, 92
2, 245616, Note_off_c, 0, 81, 64
2, 245616, Note_on_c, 0, 79, 92
2, 245664, Note_off_c, 0, 79, 64
2, 245664, Note_off_c, 0, 60, 64
2, 245664, Note_on_c, 0, 81, 92
2, 245664, Note_on_c, 0, 67, 92
2, 245712, Note_off_c, 0, 81, 64
2, 245712, Note_on_c, 0, 79, 92
2, 245760, Note_off_c, 0, 79, 64
2, 245760, Note_off_c, 0, 67, 64
2, 245760, Note_on_c, 0, 81, 92
2, 245808, Note_off_c, 0, 81, 64
2, 245808, Note_on_c, 0, 79, 92
2, 245856, Note_off_c, 0, 79, 64
2, 245856, Note_on_c, 0, 81, 92
2, 245856, Note_on_c, 0, 67, 92
2, 245904, Note_off_c, 0, 81, 64
2, 245904, Note_on_c, 0, 79, 92
2, 245952, Note_off_c, 0, 79, 64
2, 245952, Note_off_c, 0, 67, 64
2, 245952, Note_on_c, 0, 81, 92
2, 246000, Note_off_c, 0, 81, 64
2, 246000, Note_on_c, 0, 79, 92
2, 246048, Note_off_c, 0, 79, 64
2, 246048, Note_on_c, 0, 81, 92
2, 246048, Note_on_c, 0, 67, 92
2, 246096, Note_off_c, 0, 81, 64
2, 246096, Note_on_c, 0, 79, 92
2, 246144, Note_off_c, 0, 79, 64
2, 246144, Note_off_c, 0, 67, 64
2, 246144, Note_on_c, 0, 81, 92
2, 246144, Note_on_c, 0, 62, 92
2, 246192, Note_off_c, 0, 81, 64
2, 246192, Note_on_c, 0, 79, 92
2, 246240, Note_off_c, 0, 79, 64
2, 246240, Note_off_c, 0, 62, 64
2, 246240, Note_on_c, 0, 81, 92
2, 246240, Note_on_c, 0, 67, 92
2, 246288, Note_off_c, 0, 81, 64
2, 246288, Note_on_c, 0, 79, 92
2, 246336, Note_off_c, 0, 79, 64
2, 246336, Note_off_c, 0, 67, 64
2, 246336, Note_on_c, 0, 81, 92
2, 246336, Note_on_c, 0, 62, 92
2, 246384, Note_off_c, 0, 81, 64
2, 246384, Note_on_c, 0, 79, 92
2, 246432, Note_off_c, 0, 79, 64
2, 246432, Note_off_c, 0, 62, 64
2, 246432, Note_on_c, 0, 81, 92
2, 246432, Note_on_c, 0, 67, 92
2, 246480, Note_off_c, 0, 81, 64
2, 246480, Note_on_c, 0, 79, 92
2, 246528, Note_off_c, 0, 79, 64
2, 246528, Note_off_c, 0, 67, 64
2, 246528, Note_on_c, 0, 81, 92
2, 246528, Note_on_c, 0, 65, 92
2, 246576, Note_off_c, 0, 81, 64
2, 246576, Note_on_c, 0, 79, 92
2, 246624, Note_off_c, 0, 79, 64
2, 246624, Note_off_c, 0, 65, 64
2, 246624, Note_on_c, 0, 81, 92
2, 246624, Note_on_c, 0, 67, 92
2, 246672, Note_off_c, 0, 81, 64
2, 246672, Note_on_c, 0, 79, 92
2, 246720, Note_off_c, 0, 79, 64
2, 246720, Note_off_c, 0, 67, 64
2, 246720, Note_on_c, 0, 81, 92
2, 246720, Note_on_c, 0, 65, 92
2, 246768, Note_off_c, 0, 81, 64
2, 246768, Note_on_c, 0, 79, 92
2, 246816, Note_off_c, 0, 79, 64
2, 246816, Note_off_c, 0, 65, 64
2, 246816, Note_on_c, 0, 81, 92
2, 246816, Note_on_c, 0, 67, 92
2, 246864, Note_off_c, 0, 81, 64
2, 246864, Note_on_c, 0, 79, 92
2, 246912, Note_off_c, 0, 79, 64
2, 246912, Note_off_c, 0, 67, 64
2, 246912, Note_on_c, 0, 81, 92
2, 246912, Note_on_c, 0, 62, 92
2, 246960, Note_off_c, 0, 81, 64
2, 246960, Note_on_c, 0, 79, 92
2, 247008, Note_off_c, 0, 79, 64
2, 247008, Note_off_c, 0, 62, 64
2, 247008, Note_on_c, 0, 81, 92
2, 247008, Note_on_c, 0, 67, 92
2, 247056, Note_off_c, 0, 81, 64
2, 247056, Note_on_c, 0, 79, 92
2, 247104, Note_off_c, 0, 79, 64
2, 247104, Note_off_c, 0, 67, 64
2, 247104, Note_on_c, 0, 81, 92
2, 247104, Note_on_c, 0, 62, 92
2, 247152, Note_off_c, 0, 81, 64
2, 247152, Note_on_c, 0, 79, 92
2, 247200, Note_off_c, 0, 79, 64
2, 247200, Note_off_c, 0, 62, 64
2, 247200, Note_on_c, 0, 81, 92
2, 247200, Note_on_c, 0, 67, 92
2, 247248, Note_off_c, 0, 81, 64
2, 247248, Note_on_c, 0, 79, 92
2, 247296, Note_off_c, 0, 79, 64
2, 247296, Note_off_c, 0, 67, 64
2, 247296, Note_on_c, 0, 81, 92
2, 247344, Note_off_c, 0, 81, 64
2, 247344, Note_on_c, 0, 79, 92
2, 247392, Note_off_c, 0, 79, 64
2, 247392, Note_on_c, 0, 81, 92
2, 247392, Note_on_c, 0, 67, 92
2, 247440, Note_off_c, 0, 81, 64
2, 247440, Note_on_c, 0, 79, 92
2, 247488, Note_off_c, 0, 79, 64
2, 247488, Note_off_c, 0, 67, 64
2, 247488, Note_on_c, 0, 81, 92
2, 247536, Note_off_c, 0, 81, 64
2, 247536, Note_on_c, 0, 79, 92
2, 247584, Note_off_c, 0, 79, 64
2, 247584, Note_on_c, 0, 81, 92
2, 247584, Note_on_c, 0, 67, 92
2, 247632, Note_off_c, 0, 81, 64
2, 247632, Note_on_c, 0, 79, 92
2, 247680, Note_off_c, 0, 79, 64
2, 247680, Note_off_c, 0, 67, 64
2, 247680, Note_on_c, 0, 81, 92
2, 247680, Note_on_c, 0, 62, 92
2, 247728, Note_off_c, 0, 81, 64
2, 247728, Note_on_c, 0, 79, 92
2, 247776, Note_off_c, 0, 79, 64
2, 247776, Note_off_c, 0, 62, 64
2, 247776, Note_on_c, 0, 81, 92
2, 247776, Note_on_c, 0, 67, 92
2, 247824, Note_off_c, 0, 81, 64
2, 247824, Note_on_c, 0, 79, 92
2, 247872, Note_off_c, 0, 79, 64
2, 247872, Note_off_c, 0, 67, 64
2, 247872, Note_on_c, 0, 81, 92
2, 247872, Note_on_c, 0, 62, 92
2, 247920, Note_off_c, 0, 81, 64
2, 247920, Note_on_c, 0, 79, 92
2, 247968, Note_off_c, 0, 79, 64
2, 247968, Note_off_c, 0, 62, 64
2, 247968, Note_on_c, 0, 81, 92
2, 247968, Note_on_c, 0, 67, 92
2, 248016, Note_off_c, 0, 81, 64
2, 248016, Note_on_c, 0, 79, 92
2, 248064, Note_off_c, 0, 79, 64
2, 248064, Note_off_c, 0, 67, 64
2, 248064, Note_on_c, 0, 81, 92
2, 248064, Note_on_c, 0, 65, 92
2, 248112, Note_off_c, 0, 81, 64
2, 248112, Note_on_c, 0, 79, 92
2, 248160, Note_off_c, 0, 79, 64
2, 248160, Note_off_c, 0, 65, 64
2, 248160, Note_on_c, 0, 81, 92
2, 248160, Note_on_c, 0, 67, 92
2, 248208, Note_off_c, 0, 81, 64
2, 248208, Note_on_c, 0, 79, 92
2, 248256, Note_off_c, 0, 79, 64
2, 248256, Note_off_c, 0, 67, 64
2, 248256, Note_on_c, 0, 81, 92
2, 248256, Note_on_c, 0, 65, 92
2, 248304, Note_off_c, 0, 81, 64
2, 248304, Note_on_c, 0, 79, 92
2, 248352, Note_off_c, 0, 79, 64
2, 248352, Note_off_c, 0, 65, 64
2, 248352, Note_on_c, 0, 81, 92
2, 248352, Note_on_c, 0, 67, 92
2, 248400, Note_off_c, 0, 81, 64
2, 248400, Note_on_c, 0, 79, 92
2, 248448, Note_off_c, 0, 79, 64
2, 248448, Note_off_c, 0, 67, 64
2, 248448, Note_on_c, 0, 81, 92
2, 248448, Note_on_c, 0, 62, 92
2, 248496, Note_off_c, 0, 81, 64
2, 248496, Note_on_c, 0, 79, 92
2, 248544, Note_off_c, 0, 79, 64
2, 248544, Note_off_c, 0, 62, 64
2, 248544, Note_on_c, 0, 81, 92
2, 248544, Note_on_c, 0, 67, 92
2, 248592, Note_off_c, 0, 81, 64
2, 248592, Note_on_c, 0, 79, 92
2, 248640, Note_off_c, 0, 79, 64
2, 248640, Note_off_c, 0, 67, 64
2, 248640, Note_on_c, 0, 81, 92
2, 248640, Note_on_c, 0, 62, 92
2, 248688, Note_off_c, 0, 81, 64
2, 248688, Note_on_c, 0, 79, 92
2, 248736, Note_off_c, 0, 79, 64
2, 248736, Note_off_c, 0, 62, 64
2, 248736, Note_on_c, 0, 81, 92
2, 248736, Note_on_c, 0, 67, 92
2, 248784, Note_off_c, 0, 81, 64
2, 248784, Note_on_c, 0, 79, 92
2, 248832, Note_off_c, 0, 79, 64
2, 248832, Note_off_c, 0, 67, 64
2, 248832, Note_on_c, 0, 81, 92
2, 248880, Note_off_c, 0, 81, 64
2, 248880, Note_on_c, 0, 79, 92
2, 248928, Note_off_c, 0, 79, 64
2, 248928, Note_on_c, 0, 81, 92
2, 248928, Note_on_c, 0, 67, 92
2, 248976, Note_off_c, 0, 81, 64
2, 248976, Note_on_c, 0, 79, 92
2, 249024, Note_off_c, 0, 79, 64
2, 249024, Note_off_c, 0, 67, 64
2, 249024, Note_on_c, 0, 81, 92
2, 249072, Note_off_c, 0, 81, 64
2, 249072, Note_on_c, 0, 79, 92
2, 249120, Note_off_c, 0, 79, 64
2, 249120, Note_on_c, 0, 81, 92
2, 249120, Note_on_c, 0, 67, 92
2, 249168, Note_off_c, 0, 81, 64
2, 249168, Note_on_c, 0, 79, 92
2, 249216, Note_off_c, 0, 79, 64
2, 249216, Note_off_c, 0, 67, 64
2, 249216, Note_on_c, 0, 67, 92
2, 249312, Note_off_c, 0, 67, 64
2, 249312, Note_on_c, 0, 79, 92
2, 249408, Note_off_c, 0, 79, 64
2, 249408, Note_on_c, 0, 67, 92
2, 249504, Note_off_c, 0, 67, 64
2, 249504, Note_on_c, 0, 77, 92
2, 249600, Note_off_c, 0, 77, 64
2, 249600, Note_on_c, 0, 67, 92
2, 249696, Note_off_c, 0, 67, 64
2, 249696, Note_on_c, 0, 76, 92
2, 249792, Note_off_c, 0, 76, 64
2, 249792, Note_on_c, 0, 67, 92
2, 249888, Note_off_c, 0, 67, 64
2, 249888, Note_on_c, 0, 74, 92
2, 249984, Note_off_c, 0, 74, 64
2, 249984, Note_on_c, 0, 67, 92
2, 250080, Note_off_c, 0, 67, 64
2, 250080, Note_on_c, 0, 72, 92
2, 250176, Note_off_c, 0, 72, 64
2, 250176, Note_on_c, 0, 67, 92
2, 250272, Note_off_c, 0, 67, 64
2, 250272, Note_on_c, 0, 71, 92
2, 250368, Note_off_c, 0, 71, 64
2, 250368, Note_on_c, 0, 67, 92
2, 250464, Note_off_c, 0, 67, 64
2, 250464, Note_on_c, 0, 69, 92
2, 250560, Note_off_c, 0, 69, 64
2, 250560, Note_on_c, 0, 67, 92
2, 250656, Note_off_c, 0, 67, 64
2, 250656, Note_on_c, 0, 69, 92
2, 250752, Note_off_c, 0, 69, 64
2, 250752, Note_on_c, 0, 67, 92
2, 250848, Note_off_c, 0, 67, 64
2, 250848, Note_on_c, 0, 69, 92
2, 250944, Note_off_c, 0, 69, 64
2, 250944, Note_on_c, 0, 67, 92
2, 251040, Note_off_c, 0, 67, 64
2, 251040, Note_on_c, 0, 69, 92
2, 251136, Note_off_c, 0, 69, 64
2, 251136, Note_on_c, 0, 65, 92
2, 251232, Note_off_c, 0, 65, 64
2, 251232, Note_on_c, 0, 69, 92
2, 251328, Note_off_c, 0, 69, 64
2, 251328, Note_on_c, 0, 65, 92
2, 251424, Note_off_c, 0, 65, 64
2, 251424, Note_on_c, 0, 69, 92
2, 251520, Note_off_c, 0, 69, 64
2, 251520, Note_on_c, 0, 65, 92
2, 251616, Note_off_c, 0, 65, 64
2, 251616, Note_on_c, 0, 69, 92
2, 251712, Note_off_c, 0, 69, 64
2, 251712, Note_on_c, 0, 65, 92
2, 251808, Note_off_c, 0, 65, 64
2, 251808, Note_on_c, 0, 69, 92
2, 251904, Note_off_c, 0, 69, 64
2, 251904, Note_on_c, 0, 65, 92
2, 252000, Note_off_c, 0, 65, 64
2, 252000, Note_on_c, 0, 71, 92
2, 252096, Note_off_c, 0, 71, 64
2, 252096, Note_on_c, 0, 65, 92
2, 252192, Note_off_c, 0, 65, 64
2, 252192, Note_on_c, 0, 71, 92
2, 252288, Note_off_c, 0, 71, 64
2, 252288, Note_on_c, 0, 62, 92
2, 252384, Note_off_c, 0, 62, 64
2, 252384, Note_on_c, 0, 71, 92
2, 252480, Note_off_c, 0, 71, 64
2, 252480, Note_on_c, 0, 62, 92
2, 252576, Note_off_c, 0, 62, 64
2, 252576, Note_on_c, 0, 71, 92
2, 252672, Note_off_c, 0, 71, 64
2, 252672, Note_on_c, 0, 67, 92
2, 252768, Note_off_c, 0, 67, 64
2, 252768, Note_on_c, 0, 71, 92
2, 252864, Note_off_c, 0, 71, 64
2, 252864, Note_on_c, 0, 67, 92
2, 252960, Note_off_c, 0, 67, 64
2, 252960, Note_on_c, 0, 71, 92
2, 253056, Note_off_c, 0, 71, 64
2, 253056, Note_on_c, 0, 62, 92
2, 253152, Note_off_c, 0, 62, 64
2, 253152, Note_on_c, 0, 71, 92
2, 253248, Note_off_c, 0, 71, 64
2, 253248, Note_on_c, 0, 62, 92
2, 253344, Note_off_c, 0, 62, 64
2, 253344, Note_on_c, 0, 71, 92
2, 253440, Note_off_c, 0, 71, 64
2, 253536, Note_on_c, 0, 71, 92
2, 253632, Note_off_c, 0, 71, 64
2, 253728, Note_on_c, 0, 71, 92
2, 253824, Note_off_c, 0, 71, 64
2, 253824, Note_on_c, 0, 62, 92
2, 253920, Note_off_c, 0, 62, 64
2, 253920, Note_on_c, 0, 71, 92
2, 254016, Note_off_c, 0, 71, 64
2, 254016, Note_on_c, 0, 62, 92
2, 254112, Note_off_c, 0, 62, 64
2, 254112, Note_on_c, 0, 71, 92
2, 254208, Note_off_c, 0, 71, 64
2, 254208, Note_on_c, 0, 67, 92
2, 254304, Note_off_c, 0, 67, 64
2, 254304, Note_on_c, 0, 71, 92
2, 254400, Note_off_c, 0, 71, 64
2, 254400, Note_on_c, 0, 67, 92
2, 254496, Note_off_c, 0, 67, 64
2, 254496, Note_on_c, 0, 71, 92
2, 254592, Note_off_c, 0, 71, 64
2, 254592, Note_on_c, 0, 62, 92
2, 254688, Note_off_c, 0, 62, 64
2, 254688, Note_on_c, 0, 71, 92
2, 254784, Note_off_c, 0, 71, 64
2, 254784, Note_on_c, 0, 62, 92
2, 254880, Note_off_c, 0, 62, 64
2, 254880, Note_on_c, 0, 71, 92
2, 254976, Note_off_c, 0, 71, 64
2, 255072, Note_on_c, 0, 72, 92
2, 255168, Note_off_c, 0, 72, 64
2, 255264, Note_on_c, 0, 72, 92
2, 255360, Note_off_c, 0, 72, 64
2, 255360, Note_on_c, 0, 64, 92
2, 255456, Note_off_c, 0, 64, 64
2, 255456, Note_on_c, 0, 72, 92
2, 255552, Note_off_c, 0, 72, 64
2, 255552, Note_on_c, 0, 64, 92
2, 255648, Note_off_c, 0, 64, 64
2, 255648, Note_on_c, 0, 72, 92
2, 255744, Note_off_c, 0, 72, 64
2, 255744, Note_on_c, 0, 67, 92
2, 255840, Note_off_c, 0, 67, 64
2, 255840, Note_on_c, 0, 72, 92
2, 255936, Note_off_c, 0, 72, 64
2, 255936, Note_on_c, 0, 67, 92
2, 256032, Note_off_c, 0, 67, 64
2, 256032, Note_on_c, 0, 72, 92
2, 256128, Note_off_c, 0, 72, 64
2, 256128, Note_on_c, 0, 64, 92
2, 256224, Note_off_c, 0, 64, 64
2, 256224, Note_on_c, 0, 72, 92
2, 256320, Note_off_c, 0, 72, 64
2, 256320, Note_on_c, 0, 64, 92
2, 256416, Note_off_c, 0, 64, 64
2, 256416, Note_on_c, 0, 72, 92
2, 256512, Note_off_c, 0, 72, 64
2, 256608, Note_on_c, 0, 72, 92
2, 256704, Note_off_c, 0, 72, 64
2, 256800, Note_on_c, 0, 72, 92
2, 256896, Note_off_c, 0, 72, 64
2, 256896, Note_on_c, 0, 64, 92
2, 256992, Note_off_c, 0, 64, 64
2, 256992, Note_on_c, 0, 72, 92
2, 257088, Note_off_c, 0, 72, 64
2, 257088, Note_on_c, 0, 64, 92
2, 257184, Note_off_c, 0, 64, 64
2, 257184, Note_on_c, 0, 72, 92
2, 257280, Note_off_c, 0, 72, 64
2, 257280, Note_on_c, 0, 67, 92
2, 257376, Note_off_c, 0, 67, 64
2, 257376, Note_on_c, 0, 72, 92
2, 257472, Note_off_c, 0, 72, 64
2, 257472, Note_on_c, 0, 67, 92
2, 257568, Note_off_c, 0, 67, 64
2, 257568, Note_on_c, 0, 72, 92
2, 257664, Note_off_c, 0, 72, 64
2, 257664, Note_on_c, 0, 64, 92
2, 257760, Note_off_c, 0, 64, 64
2, 257760, Note_on_c, 0, 72, 92
2, 257856, Note_off_c, 0, 72, 64
2, 257856, Note_on_c, 0, 64, 92
2, 257952, Note_off_c, 0, 64, 64
2, 257952, Note_on_c, 0, 72, 92
2, 258048, Note_off_c, 0, 72, 64
2, 258144, Note_on_c, 0, 72, 92
2, 258240, Note_off_c, 0, 72, 64
2, 258336, Note_on_c, 0, 72, 92
2, 258432, Note_off_c, 0, 72, 64
2, 258432, Note_on_c, 0, 63, 92
2, 258528, Note_off_c, 0, 63, 64
2, 258528, Note_on_c, 0, 72, 92
2, 258624, Note_off_c, 0, 72, 64
2, 258624, Note_on_c, 0, 63, 92
2, 258720, Note_off_c, 0, 63, 64
2, 258720, Note_on_c, 0, 72, 92
2, 258816, Note_off_c, 0, 72, 64
2, 258816, Note_on_c, 0, 67, 92
2, 258912, Note_off_c, 0, 67, 64
2, 258912, Note_on_c, 0, 72, 92
2, 259008, Note_off_c, 0, 72, 64
2, 259008, Note_on_c, 0, 67, 92
2, 259104, Note_off_c, 0, 67, 64
2, 259104, Note_on_c, 0, 72, 92
2, 259200, Note_off_c, 0, 72, 64
2, 259200, Note_on_c, 0, 63, 92
2, 259296, Note_off_c, 0, 63, 64
2, 259296, Note_on_c, 0, 72, 92
2, 259392, Note_off_c, 0, 72, 64
2, 259392, Note_on_c, 0, 63, 92
2, 259488, Note_off_c, 0, 63, 64
2, 259488, Note_on_c, 0, 72, 92
2, 259584, Note_off_c, 0, 72, 64
2, 259680, Note_on_c, 0, 72, 92
2, 259776, Note_off_c, 0, 72, 64
2, 259872, Note_on_c, 0, 72, 92
2, 259968, Note_off_c, 0, 72, 64
2, 259968, Note_on_c, 0, 63, 92
2, 260064, Note_off_c, 0, 63, 64
2, 260064, Note_on_c, 0, 72, 92
2, 260160, Note_off_c, 0, 72, 64
2, 260160, Note_on_c, 0, 63, 92
2, 260256, Note_off_c, 0, 63, 64
2, 260256, Note_on_c, 0, 72, 92
2, 260352, Note_off_c, 0, 72, 64
2, 260352, Note_on_c, 0, 67, 92
2, 260448, Note_off_c, 0, 67, 64
2, 260448, Note_on_c, 0, 72, 92
2, 260544, Note_off_c, 0, 72, 64
2, 260544, Note_on_c, 0, 67, 92
2, 260640, Note_off_c, 0, 67, 64
2, 260640, Note_on_c, 0, 72, 92
2, 260736, Note_off_c, 0, 72, 64
2, 260736, Note_on_c, 0, 63, 92
2, 260832, Note_off_c, 0, 63, 64
2, 260832, Note_on_c, 0, 72, 92
2, 260928, Note_off_c, 0, 72, 64
2, 260928, Note_on_c, 0, 63, 92
2, 261024, Note_off_c, 0, 63, 64
2, 261024, Note_on_c, 0, 72, 92
2, 261120, Note_off_c, 0, 72, 64
2, 261216, Note_on_c, 0, 72, 92
2, 261312, Note_off_c, 0, 72, 64
2, 261408, Note_on_c, 0, 72, 92
2, 261504, Note_off_c, 0, 72, 64
2, 261504, Note_on_c, 0, 62, 92
2, 261600, Note_off_c, 0, 62, 64
2, 261600, Note_on_c, 0, 72, 92
2, 261696, Note_off_c, 0, 72, 64
2, 261696, Note_on_c, 0, 62, 92
2, 261792, Note_off_c, 0, 62, 64
2, 261792, Note_on_c, 0, 72, 92
2, 261888, Note_off_c, 0, 72, 64
2, 261888, Note_on_c, 0, 67, 92
2, 261984, Note_off_c, 0, 67, 64
2, 261984, Note_on_c, 0, 72, 92
2, 262080, Note_off_c, 0, 72, 64
2, 262080, Note_on_c, 0, 67, 92
2, 262176, Note_off_c, 0, 67, 64
2, 262176, Note_on_c, 0, 72, 92
2, 262272, Note_off_c, 0, 72, 64
2, 262272, Note_on_c, 0, 62, 92
2, 262368, Note_off_c, 0, 62, 64
2, 262368, Note_on_c, 0, 72, 92
2, 262464, Note_off_c, 0, 72, 64
2, 262464, Note_on_c, 0, 62, 92
2, 262560, Note_off_c, 0, 62, 64
2, 262560, Note_on_c, 0, 72, 92
2, 262656, Note_off_c, 0, 72, 64
2, 262752, Note_on_c, 0, 71, 92
2, 262848, Note_off_c, 0, 71, 64
2, 262944, Note_on_c, 0, 71, 92
2, 263040, Note_off_c, 0, 71, 64
2, 263040, Note_on_c, 0, 62, 92
2, 263136, Note_off_c, 0, 62, 64
2, 263136, Note_on_c, 0, 71, 92
2, 263232, Note_off_c, 0, 71, 64
2, 263232, Note_on_c, 0, 62, 92
2, 263328, Note_off_c, 0, 62, 64
2, 263328, Note_on_c, 0, 71, 92
2, 263424, Note_off_c, 0, 71, 64
2, 263424, Note_on_c, 0, 67, 92
2, 263520, Note_off_c, 0, 67, 64
2, 263520, Note_on_c, 0, 71, 92
2, 263616, Note_off_c, 0, 71, 64
2, 263616, Note_on_c, 0, 67, 92
2, 263712, Note_off_c, 0, 67, 64
2, 263712, Note_on_c, 0, 71, 92
2, 263808, Note_off_c, 0, 71, 64
2, 263808, Note_on_c, 0, 62, 92
2, 263904, Note_off_c, 0, 62, 64
2, 263904, Note_on_c, 0, 71, 92
2, 264000, Note_off_c, 0, 71, 64
2, 264000, Note_on_c, 0, 62, 92
2, 264096, Note_off_c, 0, 62, 64
2, 264096, Note_on_c, 0, 71, 92
2, 264192, Note_off_c, 0, 71, 64
2, 264288, Note_on_c, 0, 71, 92
2, 264384, Note_off_c, 0, 71, 64
2, 264480, Note_on_c, 0, 71, 92
2, 264576, Note_off_c, 0, 71, 64
2, 264576, Note_on_c, 0, 62, 92
2, 264672, Note_off_c, 0, 62, 64
2, 264672, Note_on_c, 0, 71, 92
2, 264768, Note_off_c, 0, 71, 64
2, 264768, Note_on_c, 0, 62, 92
2, 264864, Note_off_c, 0, 62, 64
2, 264864, Note_on_c, 0, 71, 92
2, 264960, Note_off_c, 0, 71, 64
2, 264960, Note_on_c, 0, 67, 92
2, 265056, Note_off_c, 0, 67, 64
2, 265056, Note_on_c, 0, 71, 92
2, 265152, Note_off_c, 0, 71, 64
2, 265152, Note_on_c, 0, 67, 92
2, 265248, Note_off_c, 0, 67, 64
2, 265248, Note_on_c, 0, 71, 92
2, 265344, Note_off_c, 0, 71, 64
2, 265344, Note_on_c, 0, 62, 92
2, 265440, Note_off_c, 0, 62, 64
2, 265440, Note_on_c, 0, 71, 92
2, 265536, Note_off_c, 0, 71, 64
2, 265536, Note_on_c, 0, 62, 92
2, 265632, Note_off_c, 0, 62, 64
2, 265632, Note_on_c, 0, 71, 92
2, 265728, Note_off_c, 0, 71, 64
2, 265728, Note_on_c, 0, 72, 92
2, 265824, Note_off_c, 0, 72, 64
2, 265824, Note_on_c, 0, 74, 92
2, 265920, Note_off_c, 0, 74, 64
2, 265920, Note_on_c, 0, 76, 92
2, 266016, Note_off_c, 0, 76, 64
2, 266016, Note_on_c, 0, 77, 92
2, 266112, Note_off_c, 0, 77, 64
2, 266112, Note_on_c, 0, 79, 92
2, 266304, Note_off_c, 0, 79, 64
2, 266304, Note_on_c, 0, 72, 92
2, 266496, Note_off_c, 0, 72, 64
2, 266496, Note_on_c, 0, 72, 92
2, 266592, Note_off_c, 0, 72, 64
2, 266592, Note_on_c, 0, 74, 92
2, 266688, Note_off_c, 0, 74, 64
2, 266688, Note_on_c, 0, 76, 92
2, 266784, Note_off_c, 0, 76, 64
2, 266784, Note_on_c, 0, 77, 92
2, 266880, Note_off_c, 0, 77, 64
2, 266880, Note_on_c, 0, 79, 92
2, 267072, Note_off_c, 0, 79, 64
2, 267072, Note_on_c, 0, 72, 92
2, 267264, Note_off_c, 0, 72, 64
2, 267264, Note_on_c, 0, 72, 92
2, 267360, Note_off_c, 0, 72, 64
2, 267360, Note_on_c, 0, 74, 92
2, 267456, Note_off_c, 0, 74, 64
2, 267456, Note_on_c, 0, 76, 92
2, 267552, Note_off_c, 0, 76, 64
2, 267552, Note_on_c, 0, 77, 92
2, 267648, Note_off_c, 0, 77, 64
2, 267648, Note_on_c, 0, 79, 92
2, 267840, Note_off_c, 0, 79, 64
2, 267840, Note_on_c, 0, 72, 92
2, 268032, Note_off_c, 0, 72, 64
2, 268032, Note_on_c, 0, 64, 92
2, 268032, Note_on_c, 0, 67, 92
2, 268224, Note_off_c, 0, 67, 64
2, 268224, Note_off_c, 0, 64, 64
2, 268224, Note_on_c, 0, 72, 92
2, 268416, Note_off_c, 0, 72, 64
2, 268416, Note_on_c, 0, 62, 92
2, 268416, Note_on_c, 0, 65, 92
2, 268608, Note_off_c, 0, 65, 64
2, 268608, Note_off_c, 0, 62, 64
2, 268608, Note_on_c, 0, 71, 92
2, 268800, Note_off_c, 0, 71, 64
2, 268800, Note_on_c, 0, 60, 92
2, 268896, Note_off_c, 0, 60, 64
2, 268896, Note_on_c, 0, 62, 92
2, 268992, Note_off_c, 0, 62, 64
2, 268992, Note_on_c, 0, 64, 92
2, 269088, Note_off_c, 0, 64, 64
2, 269088, Note_on_c, 0, 65, 92
2, 269184, Note_off_c, 0, 65, 64
2, 269184, Note_on_c, 0, 67, 92
2, 269376, Note_off_c, 0, 67, 64
2, 269376, Note_on_c, 0, 60, 92
2, 269568, Note_off_c, 0, 60, 64
2, 269568, Note_on_c, 0, 60, 92
2, 269664, Note_off_c, 0, 60, 64
2, 269664, Note_on_c, 0, 62, 92
2, 269760, Note_off_c, 0, 62, 64
2, 269760, Note_on_c, 0, 64, 92
2, 269856, Note_off_c, 0, 64, 64
2, 269856, Note_on_c, 0, 65, 92
2, 269952, Note_off_c, 0, 65, 64
2, 269952, Note_on_c, 0, 67, 92
2, 270144, Note_off_c, 0, 67, 64
2, 270144, Note_on_c, 0, 60, 92
2, 270336, Note_off_c, 0, 60, 64
2, 270336, Note_on_c, 0, 60, 92
2, 270432, Note_off_c, 0, 60, 64
2, 270432, Note_on_c, 0, 62, 92
2, 270528, Note_off_c, 0, 62, 64
2, 270528, Note_on_c, 0, 64, 92
2, 270624, Note_off_c, 0, 64, 64
2, 270624, Note_on_c, 0, 65, 92
2, 270720, Note_off_c, 0, 65, 64
2, 270720, Note_on_c, 0, 67, 92
2, 270912, Note_off_c, 0, 67, 64
2, 270912, Note_on_c, 0, 60, 92
2, 271104, Note_off_c, 0, 60, 64
2, 271104, Note_on_c, 0, 65, 92
2, 271296, Note_off_c, 0, 65, 64
2, 271296, Note_on_c, 0, 62, 92
2, 271488, Note_off_c, 0, 62, 64
2, 271488, Note_on_c, 0, 67, 92
2, 271680, Note_off_c, 0, 67, 64
2, 271680, Note_on_c, 0, 55, 92
2, 271872, Note_off_c, 0, 55, 64
2, 271872, Note_on_c, 0, 60, 92
2, 273408, Note_off_c, 0, 60, 64
2, 275136, Note_on_c, 0, 57, 92
2, 275328, Note_off_c, 0, 57, 64
2, 275328, Note_on_c, 0, 60, 92
2, 275520, Note_off_c, 0, 60, 64
2, 275520, Note_on_c, 0, 64, 92
2, 275712, Note_off_c, 0, 64, 64
2, 275712, Note_on_c, 0, 65, 92
2, 276096, Note_off_c, 0, 65, 64
2, 276096, Note_on_c, 0, 67, 92
2, 276120, Note_off_c, 0, 67, 64
2, 276120, Note_on_c, 0, 65, 92
2, 276144, Note_off_c, 0, 65, 64
2, 276144, Note_on_c, 0, 67, 92
2, 276168, Note_off_c, 0, 67, 64
2, 276168, Note_on_c, 0, 65, 92
2, 276192, Note_off_c, 0, 65, 64
2, 276192, Note_on_c, 0, 67, 92
2, 276216, Note_off_c, 0, 67, 64
2, 276216, Note_on_c, 0, 65, 92
2, 276240, Note_off_c, 0, 65, 64
2, 276240, Note_on_c, 0, 67, 92
2, 276264, Note_off_c, 0, 67, 64
2, 276264, Note_on_c, 0, 65, 92
2, 276288, Note_off_c, 0, 65, 64
2, 276288, Note_on_c, 0, 65, 92
2, 276336, Note_off_c, 0, 65, 64
2, 276336, Note_on_c, 0, 67, 92
2, 276384, Note_off_c, 0, 67, 64
2, 276384, Note_on_c, 0, 69, 92
2, 276432, Note_off_c, 0, 69, 64
2, 276432, Note_on_c, 0, 65, 92
2, 276480, Note_off_c, 0, 65, 64
2, 276480, Note_on_c, 0, 62, 92
2, 276528, Note_off_c, 0, 62, 64
2, 276528, Note_on_c, 0, 64, 92
2, 276576, Note_off_c, 0, 64, 64
2, 276576, Note_on_c, 0, 65, 92
2, 276624, Note_off_c, 0, 65, 64
2, 276624, Note_on_c, 0, 62, 92
2, 276672, Note_off_c, 0, 62, 64
2, 276672, Note_on_c, 0, 59, 92
2, 276720, Note_off_c, 0, 59, 64
2, 276720, Note_on_c, 0, 60, 92
2, 276768, Note_off_c, 0, 60, 64
2, 276768, Note_on_c, 0, 62, 92
2, 276816, Note_off_c, 0, 62, 64
2, 276816, Note_on_c, 0, 59, 92
2, 276864, Note_off_c, 0, 59, 64
2, 276864, Note_on_c, 0, 56, 92
2, 276912, Note_off_c, 0, 56, 64
2, 276912, Note_on_c, 0, 57, 92
2, 276960, Note_off_c, 0, 57, 64
2, 276960, Note_on_c, 0, 59, 92
2, 277008, Note_off_c, 0, 59, 64
2, 277008, Note_on_c, 0, 56, 92
2, 277056, Note_off_c, 0, 56, 64
2, 277056, Note_on_c, 0, 50, 92
2, 277104, Note_off_c, 0, 50, 64
2, 277104, Note_on_c, 0, 52, 92
2, 277152, Note_off_c, 0, 52, 64
2, 277152, Note_on_c, 0, 53, 92
2, 277200, Note_off_c, 0, 53, 64
2, 277200, Note_on_c, 0, 50, 92
2, 277248, Note_off_c, 0, 50, 64
2, 277248, Note_on_c, 0, 47, 92
2, 277296, Note_off_c, 0, 47, 64
2, 277296, Note_on_c, 0, 48, 92
2, 277344, Note_off_c, 0, 48, 64
2, 277344, Note_on_c, 0, 50, 92
2, 277392, Note_off_c, 0, 50, 64
2, 277392, Note_on_c, 0, 47, 92
2, 277440, Note_off_c, 0, 47, 64
2, 277440, Note_on_c, 0, 44, 92
2, 277632, Note_off_c, 0, 44, 64
2, 277632, Note_on_c, 0, 71, 92
2, 277728, Note_off_c, 0, 71, 64
2, 277728, Note_on_c, 0, 74, 92
2, 277776, Note_off_c, 0, 74, 64
2, 277776, Note_on_c, 0, 72, 92
2, 277824, Note_off_c, 0, 72, 64
2, 277824, Note_on_c, 0, 74, 92
2, 278112, Note_off_c, 0, 74, 64
2, 278112, Note_on_c, 0, 72, 92
2, 278208, Note_off_c, 0, 72, 64
2, 278208, Note_on_c, 0, 72, 92
2, 278232, Note_off_c, 0, 72, 64
2, 278232, Note_on_c, 0, 71, 92
2, 278256, Note_off_c, 0, 71, 64
2, 278256, Note_on_c, 0, 72, 92
2, 278280, Note_off_c, 0, 72, 64
2, 278280, Note_on_c, 0, 71, 92
2, 278304, Note_off_c, 0, 71, 64
2, 278304, Note_on_c, 0, 69, 92
2, 278352, Note_off_c, 0, 69, 64
2, 278352, Note_on_c, 0, 68, 92
2, 278400, Note_off_c, 0, 68, 64
2, 278400, Note_on_c, 0, 65, 92
2, 278880, Note_off_c, 0, 65, 64
2, 278880, Note_on_c, 0, 64, 92
2, 278976, Note_off_c, 0, 64, 64
2, 278976, Note_on_c, 0, 62, 92
2, 279072, Note_off_c, 0, 62, 64
2, 279072, Note_on_c, 0, 60, 92
2, 279120, Note_off_c, 0, 60, 64
2, 279120, Note_on_c, 0, 59, 92
2, 279168, Note_off_c, 0, 59, 64
2, 279168, Note_on_c, 0, 57, 92
2, 279264, Note_off_c, 0, 57, 64
2, 279264, Note_on_c, 0, 56, 92
2, 279360, Note_off_c, 0, 56, 64
2, 279360, Note_on_c, 0, 57, 92
2, 279456, Note_off_c, 0, 57, 64
2, 279456, Note_on_c, 0, 56, 92
2, 279504, Note_off_c, 0, 56, 64
2, 279504, Note_on_c, 0, 57, 92
2, 279552, Note_off_c, 0, 57, 64
2, 279552, Note_on_c, 0, 57, 92
2, 280368, Note_off_c, 0, 57, 64
2, 280368, Note_on_c, 0, 59, 92
2, 280416, Note_off_c, 0, 59, 64
2, 280416, Note_on_c, 0, 60, 92
2, 280464, Note_off_c, 0, 60, 64
2, 280464, Note_on_c, 0, 59, 92
2, 280488, Note_off_c, 0, 59, 64
2, 280488, Note_on_c, 0, 57, 92
2, 280512, Note_off_c, 0, 57, 64
2, 280512, Note_on_c, 0, 60, 92
2, 280560, Note_off_c, 0, 60, 64
2, 280560, Note_on_c, 0, 62, 92
2, 280608, Note_off_c, 0, 62, 64
2, 280608, Note_on_c, 0, 64, 92
2, 280656, Note_off_c, 0, 64, 64
2, 280656, Note_on_c, 0, 62, 92
2, 280680, Note_off_c, 0, 62, 64
2, 280680, Note_on_c, 0, 60, 92
2, 280704, Note_off_c, 0, 60, 64
2, 280704, Note_on_c, 0, 64, 92
2, 280752, Note_off_c, 0, 64, 64
2, 280752, Note_on_c, 0, 66, 92
2, 280800, Note_off_c, 0, 66, 64
2, 280800, Note_on_c, 0, 68, 92
2, 280848, Note_off_c, 0, 68, 64
2, 280848, Note_on_c, 0, 66, 92
2, 280872, Note_off_c, 0, 66, 64
2, 280872, Note_on_c, 0, 64, 92
2, 280896, Note_off_c, 0, 64, 64
2, 280896, Note_on_c, 0, 69, 92
2, 280944, Note_off_c, 0, 69, 64
2, 280944, Note_on_c, 0, 71, 92
2, 280992, Note_off_c, 0, 71, 64
2, 280992, Note_on_c, 0, 72, 92
2, 281040, Note_off_c, 0, 72, 64
2, 281040, Note_on_c, 0, 71, 92
2, 281064, Note_off_c, 0, 71, 64
2, 281064, Note_on_c, 0, 69, 92
2, 281088, Note_off_c, 0, 69, 64
2, 281088, Note_on_c, 0, 76, 92
2, 281376, Note_off_c, 0, 76, 64
2, 281376, Note_on_c, 0, 74, 92
2, 281472, Note_off_c, 0, 74, 64
2, 281472, Note_on_c, 0, 72, 92
2, 281568, Note_off_c, 0, 72, 64
2, 281568, Note_on_c, 0, 74, 92
2, 281664, Note_off_c, 0, 74, 64
2, 281664, Note_on_c, 0, 72, 92
2, 281712, Note_off_c, 0, 72, 64
2, 281712, Note_on_c, 0, 71, 92
2, 281760, Note_off_c, 0, 71, 64
2, 281760, Note_on_c, 0, 70, 92
2, 281808, Note_off_c, 0, 70, 64
2, 281808, Note_on_c, 0, 71, 92
2, 281856, Note_off_c, 0, 71, 64
2, 281856, Note_on_c, 0, 70, 92
2, 282288, Note_off_c, 0, 70, 64
2, 282288, Note_on_c, 0, 71, 92
2, 282336, Note_off_c, 0, 71, 64
2, 282336, Note_on_c, 0, 70, 92
2, 282384, Note_off_c, 0, 70, 64
2, 282384, Note_on_c, 0, 71, 92
2, 282432, Note_off_c, 0, 71, 64
2, 282432, Note_on_c, 0, 71, 92
2, 282480, Note_off_c, 0, 71, 64
2, 282480, Note_on_c, 0, 73, 92
2, 282528, Note_off_c, 0, 73, 64
2, 282528, Note_on_c, 0, 71, 92
2, 282576, Note_off_c, 0, 71, 64
2, 282576, Note_on_c, 0, 73, 92
2, 282624, Note_off_c, 0, 73, 64
2, 282624, Note_on_c, 0, 73, 92
2, 282720, Note_off_c, 0, 73, 64
2, 282720, Note_on_c, 0, 64, 92
2, 282864, Note_off_c, 0, 64, 64
2, 282864, Note_on_c, 0, 67, 92
2, 282912, Note_off_c, 0, 67, 64
2, 282912, Note_on_c, 0, 66, 92
2, 282960, Note_off_c, 0, 66, 64
2, 282960, Note_on_c, 0, 64, 92
2, 282984, Note_off_c, 0, 64, 64
2, 282984, Note_on_c, 0, 74, 92
2, 283008, Note_off_c, 0, 74, 64
2, 283008, Note_on_c, 0, 73, 92
2, 283104, Note_off_c, 0, 73, 64
2, 283104, Note_on_c, 0, 73, 92
2, 283128, Note_off_c, 0, 73, 64
2, 283128, Note_on_c, 0, 71, 92
2, 283152, Note_off_c, 0, 71, 64
2, 283152, Note_on_c, 0, 73, 92
2, 283176, Note_off_c, 0, 73, 64
2, 283176, Note_on_c, 0, 71, 92
2, 283200, Note_off_c, 0, 71, 64
2, 283200, Note_on_c, 0, 70, 92
2, 283296, Note_off_c, 0, 70, 64
2, 283296, Note_on_c, 0, 71, 92
2, 283392, Note_off_c, 0, 71, 64
2, 283392, Note_on_c, 0, 71, 92
2, 284208, Note_off_c, 0, 71, 64
2, 284208, Note_on_c, 0, 71, 92
2, 284256, Note_off_c, 0, 71, 64
2, 284256, Note_on_c, 0, 69, 92
2, 284304, Note_off_c, 0, 69, 64
2, 284304, Note_on_c, 0, 67, 92
2, 284352, Note_off_c, 0, 67, 64
2, 284352, Note_on_c, 0, 66, 92
2, 284400, Note_off_c, 0, 66, 64
2, 284400, Note_on_c, 0, 67, 92
2, 284448, Note_off_c, 0, 67, 64
2, 284448, Note_on_c, 0, 66, 92
2, 284496, Note_off_c, 0, 66, 64
2, 284496, Note_on_c, 0, 64, 92
2, 284544, Note_off_c, 0, 64, 64
2, 284544, Note_on_c, 0, 62, 92
2, 284592, Note_off_c, 0, 62, 64
2, 284592, Note_on_c, 0, 67, 92
2, 284640, Note_off_c, 0, 67, 64
2, 284640, Note_on_c, 0, 66, 92
2, 284688, Note_off_c, 0, 66, 64
2, 284688, Note_on_c, 0, 64, 92
2, 284736, Note_off_c, 0, 64, 64
2, 284736, Note_on_c, 0, 62, 92
2, 284784, Note_off_c, 0, 62, 64
2, 284784, Note_on_c, 0, 64, 92
2, 284832, Note_off_c, 0, 64, 64
2, 284832, Note_on_c, 0, 62, 92
2, 284880, Note_off_c, 0, 62, 64
2, 284880, Note_on_c, 0, 61, 92
2, 284928, Note_off_c, 0, 61, 64
2, 284928, Note_on_c, 0, 59, 92
2, 284976, Note_off_c, 0, 59, 64
2, 284976, Note_on_c, 0, 64, 92
2, 285024, Note_off_c, 0, 64, 64
2, 285024, Note_on_c, 0, 62, 92
2, 285072, Note_off_c, 0, 62, 64
2, 285072, Note_on_c, 0, 61, 92
2, 285120, Note_off_c, 0, 61, 64
2, 285120, Note_on_c, 0, 59, 92
2, 285168, Note_off_c, 0, 59, 64
2, 285168, Note_on_c, 0, 61, 92
2, 285216, Note_off_c, 0, 61, 64
2, 285216, Note_on_c, 0, 59, 92
2, 285264, Note_off_c, 0, 59, 64
2, 285264, Note_on_c, 0, 57, 92
2, 285312, Note_off_c, 0, 57, 64
2, 285312, Note_on_c, 0, 55, 92
2, 285360, Note_off_c, 0, 55, 64
2, 285360, Note_on_c, 0, 57, 92
2, 285408, Note_off_c, 0, 57, 64
2, 285408, Note_on_c, 0, 55, 92
2, 285456, Note_off_c, 0, 55, 64
2, 285456, Note_on_c, 0, 54, 92
2, 285504, Note_off_c, 0, 54, 64
2, 285504, Note_on_c, 0, 52, 92
2, 285528, Note_off_c, 0, 52, 64
2, 285528, Note_on_c, 0, 54, 92
2, 285552, Note_off_c, 0, 54, 64
2, 285552, Note_on_c, 0, 52, 92
2, 285576, Note_off_c, 0, 52, 64
2, 285576, Note_on_c, 0, 50, 92
2, 285600, Note_off_c, 0, 50, 64
2, 285600, Note_on_c, 0, 49, 92
2, 285624, Note_off_c, 0, 49, 64
2, 285624, Note_on_c, 0, 47, 92
2, 285648, Note_off_c, 0, 47, 64
2, 285648, Note_on_c, 0, 46, 92
2, 285672, Note_off_c, 0, 46, 64
2, 285672, Note_on_c, 0, 47, 92
2, 285696, Note_off_c, 0, 47, 64
2, 286080, Note_on_c, 0, 47, 92
2, 286144, Note_off_c, 0, 47, 64
2, 286144, Note_on_c, 0, 50, 92
2, 286208, Note_off_c, 0, 50, 64
2, 286208, Note_on_c, 0, 54, 92
2, 286272, Note_off_c, 0, 54, 64
2, 286272, Note_on_c, 0, 59, 92
2, 286336, Note_off_c, 0, 59, 64
2, 286336, Note_on_c, 0, 62, 92
2, 286400, Note_off_c, 0, 62, 64
2, 286400, Note_on_c, 0, 66, 92
2, 286464, Note_off_c, 0, 66, 64
2, 286464, Note_on_c, 0, 69, 92
2, 286488, Note_off_c, 0, 69, 64
2, 286488, Note_on_c, 0, 67, 92
2, 286512, Note_off_c, 0, 67, 64
2, 286512, Note_on_c, 0, 69, 92
2, 286608, Note_off_c, 0, 69, 64
2, 286608, Note_on_c, 0, 69, 92
2, 286656, Note_off_c, 0, 69, 64
2, 286656, Note_on_c, 0, 69, 92
2, 286680, Note_off_c, 0, 69, 64
2, 286680, Note_on_c, 0, 67, 92
2, 286704, Note_off_c, 0, 67, 64
2, 286704, Note_on_c, 0, 69, 92
2, 286800, Note_off_c, 0, 69, 64
2, 286800, Note_on_c, 0, 69, 92
2, 286848, Note_off_c, 0, 69, 64
2, 286848, Note_on_c, 0, 71, 92
2, 286872, Note_off_c, 0, 71, 64
2, 286872, Note_on_c, 0, 69, 92
2, 286896, Note_off_c, 0, 69, 64
2, 286896, Note_on_c, 0, 71, 92
2, 286920, Note_off_c, 0, 71, 64
2, 286920, Note_on_c, 0, 69, 92
2, 286944, Note_off_c, 0, 69, 64
2, 286944, Note_on_c, 0, 71, 92
2, 286968, Note_off_c, 0, 71, 64
2, 286968, Note_on_c, 0, 69, 92
2, 286992, Note_off_c, 0, 69, 64
2, 286992, Note_on_c, 0, 68, 92
2, 287040, Note_off_c, 0, 68, 64
2, 287040, Note_on_c, 0, 69, 92
2, 287136, Note_off_c, 0, 69, 64
2, 287136, Note_on_c, 0, 71, 92
2, 287184, Note_off_c, 0, 71, 64
2, 287184, Note_on_c, 0, 72, 92
2, 287232, Note_off_c, 0, 72, 64
2, 287232, Note_on_c, 0, 72, 92
2, 287664, Note_off_c, 0, 72, 64
2, 287664, Note_on_c, 0, 72, 92
2, 287712, Note_off_c, 0, 72, 64
2, 287712, Note_on_c, 0, 71, 92
2, 287760, Note_off_c, 0, 71, 64
2, 287760, Note_on_c, 0, 72, 92
2, 287808, Note_off_c, 0, 72, 64
2, 287808, Note_on_c, 0, 66, 92
2, 287856, Note_off_c, 0, 66, 64
2, 287856, Note_on_c, 0, 69, 92
2, 287904, Note_off_c, 0, 69, 64
2, 287904, Note_on_c, 0, 67, 92
2, 287952, Note_off_c, 0, 67, 64
2, 287952, Note_on_c, 0, 69, 92
2, 288000, Note_off_c, 0, 69, 64
2, 288000, Note_on_c, 0, 63, 92
2, 288048, Note_off_c, 0, 63, 64
2, 288048, Note_on_c, 0, 66, 92
2, 288096, Note_off_c, 0, 66, 64
2, 288096, Note_on_c, 0, 64, 92
2, 288144, Note_off_c, 0, 64, 64
2, 288144, Note_on_c, 0, 66, 92
2, 288192, Note_off_c, 0, 66, 64
2, 288192, Note_on_c, 0, 57, 92
2, 288240, Note_off_c, 0, 57, 64
2, 288240, Note_on_c, 0, 60, 92
2, 288288, Note_off_c, 0, 60, 64
2, 288288, Note_on_c, 0, 59, 92
2, 288336, Note_off_c, 0, 59, 64
2, 288336, Note_on_c, 0, 60, 92
2, 288384, Note_off_c, 0, 60, 64
2, 288384, Note_on_c, 0, 54, 92
2, 288432, Note_off_c, 0, 54, 64
2, 288432, Note_on_c, 0, 57, 92
2, 288480, Note_off_c, 0, 57, 64
2, 288480, Note_on_c, 0, 55, 92
2, 288528, Note_off_c, 0, 55, 64
2, 288528, Note_on_c, 0, 57, 92
2, 288576, Note_off_c, 0, 57, 64
2, 288576, Note_on_c, 0, 51, 92
2, 288624, Note_off_c, 0, 51, 64
2, 288624, Note_on_c, 0, 54, 92
2, 288672, Note_off_c, 0, 54, 64
2, 288672, Note_on_c, 0, 52, 92
2, 288720, Note_off_c, 0, 52, 64
2, 288720, Note_on_c, 0, 54, 92
2, 288768, Note_off_c, 0, 54, 64
2, 288768, Note_on_c, 0, 45, 92
2, 289056, Note_off_c, 0, 45, 64
2, 289056, Note_on_c, 0, 51, 92
2, 289088, Note_off_c, 0, 51, 64
2, 289088, Note_on_c, 0, 52, 92
2, 289120, Note_off_c, 0, 52, 64
2, 289120, Note_on_c, 0, 54, 92
2, 289152, Note_off_c, 0, 54, 64
2, 289152, Note_on_c, 0, 54, 92
2, 289184, Note_off_c, 0, 54, 64
2, 289184, Note_on_c, 0, 55, 92
2, 289216, Note_off_c, 0, 55, 64
2, 289216, Note_on_c, 0, 57, 92
2, 289248, Note_off_c, 0, 57, 64
2, 289248, Note_on_c, 0, 57, 92
2, 289280, Note_off_c, 0, 57, 64
2, 289280, Note_on_c, 0, 59, 92
2, 289312, Note_off_c, 0, 59, 64
2, 289312, Note_on_c, 0, 60, 92
2, 289344, Note_off_c, 0, 60, 64
2, 289344, Note_on_c, 0, 66, 92
2, 289376, Note_off_c, 0, 66, 64
2, 289376, Note_on_c, 0, 67, 92
2, 289408, Note_off_c, 0, 67, 64
2, 289408, Note_on_c, 0, 69, 92
2, 289440, Note_off_c, 0, 69, 64
2, 289440, Note_on_c, 0, 69, 92
2, 289472, Note_off_c, 0, 69, 64
2, 289472, Note_on_c, 0, 71, 92
2, 289504, Note_off_c, 0, 71, 64
2, 289504, Note_on_c, 0, 72, 92
2, 289536, Note_off_c, 0, 72, 64
2, 289536, Note_on_c, 0, 72, 92
2, 289560, Note_off_c, 0, 72, 64
2, 289560, Note_on_c, 0, 71, 92
2, 289584, Note_off_c, 0, 71, 64
2, 289584, Note_on_c, 0, 72, 92
2, 289608, Note_off_c, 0, 72, 64
2, 289608, Note_on_c, 0, 71, 92
2, 289632, Note_off_c, 0, 71, 64
2, 289632, Note_on_c, 0, 72, 92
2, 289656, Note_off_c, 0, 72, 64
2, 289656, Note_on_c, 0, 71, 92
2, 289680, Note_off_c, 0, 71, 64
2, 289680, Note_on_c, 0, 72, 92
2, 289704, Note_off_c, 0, 72, 64
2, 289704, Note_on_c, 0, 71, 92
2, 289728, Note_off_c, 0, 71, 64
2, 289728, Note_on_c, 0, 72, 92
2, 289752, Note_off_c, 0, 72, 64
2, 289752, Note_on_c, 0, 71, 92
2, 289776, Note_off_c, 0, 71, 64
2, 289776, Note_on_c, 0, 72, 92
2, 289800, Note_off_c, 0, 72, 64
2, 289800, Note_on_c, 0, 71, 92
2, 289824, Note_off_c, 0, 71, 64
2, 289824, Note_on_c, 0, 69, 92
2, 289920, Note_off_c, 0, 69, 64
2, 289920, Note_on_c, 0, 67, 92
2, 290016, Note_off_c, 0, 67, 64
2, 290016, Note_on_c, 0, 66, 92
2, 290112, Note_off_c, 0, 66, 64
2, 290112, Note_on_c, 0, 64, 92
2, 290208, Note_off_c, 0, 64, 64
2, 290208, Note_on_c, 0, 63, 92
2, 290256, Note_off_c, 0, 63, 64
2, 290256, Note_on_c, 0, 64, 92
2, 290304, Note_off_c, 0, 64, 64
2, 290304, Note_on_c, 0, 64, 92
2, 290496, Note_off_c, 0, 64, 64
2, 290496, Note_on_c, 0, 52, 92
2, 290640, Note_off_c, 0, 52, 64
2, 290640, Note_on_c, 0, 51, 92
2, 290688, Note_off_c, 0, 51, 64
2, 290688, Note_on_c, 0, 52, 92
2, 290784, Note_off_c, 0, 52, 64
2, 290784, Note_on_c, 0, 54, 92
2, 290880, Note_off_c, 0, 54, 64
2, 290880, Note_on_c, 0, 55, 92
2, 290976, Note_off_c, 0, 55, 64
2, 290976, Note_on_c, 0, 57, 92
2, 291072, Note_off_c, 0, 57, 64
2, 291072, Note_on_c, 0, 59, 92
2, 291168, Note_off_c, 0, 59, 64
2, 291168, Note_on_c, 0, 61, 92
2, 291264, Note_off_c, 0, 61, 64
2, 291264, Note_on_c, 0, 63, 92
2, 291360, Note_off_c, 0, 63, 64
2, 291360, Note_on_c, 0, 64, 92
2, 291456, Note_off_c, 0, 64, 64
2, 291456, Note_on_c, 0, 66, 92
2, 291552, Note_off_c, 0, 66, 64
2, 291552, Note_on_c, 0, 67, 92
2, 291648, Note_off_c, 0, 67, 64
2, 291648, Note_on_c, 0, 69, 92
2, 291744, Note_off_c, 0, 69, 64
2, 291744, Note_on_c, 0, 71, 92
2, 291792, Note_off_c, 0, 71, 64
2, 291792, Note_on_c, 0, 72, 92
2, 291816, Note_off_c, 0, 72, 64
2, 291816, Note_on_c, 0, 74, 92
2, 291840, Note_off_c, 0, 74, 64
2, 291840, Note_on_c, 0, 74, 92
2, 291936, Note_off_c, 0, 74, 64
2, 291936, Note_on_c, 0, 71, 92
2, 291984, Note_off_c, 0, 71, 64
2, 291984, Note_on_c, 0, 72, 92
2, 292032, Note_off_c, 0, 72, 64
2, 292032, Note_on_c, 0, 74, 92
2, 292128, Note_off_c, 0, 74, 64
2, 292128, Note_on_c, 0, 72, 92
2, 292224, Note_off_c, 0, 72, 64
2, 292224, Note_on_c, 0, 71, 92
2, 292320, Note_off_c, 0, 71, 64
2, 292320, Note_on_c, 0, 69, 92
2, 292416, Note_off_c, 0, 69, 64
2, 292416, Note_on_c, 0, 68, 92
2, 292512, Note_off_c, 0, 68, 64
2, 292512, Note_on_c, 0, 66, 92
2, 292560, Note_off_c, 0, 66, 64
2, 292560, Note_on_c, 0, 64, 92
2, 292608, Note_off_c, 0, 64, 64
2, 292608, Note_on_c, 0, 62, 92
2, 292704, Note_off_c, 0, 62, 64
2, 292704, Note_on_c, 0, 59, 92
2, 292752, Note_off_c, 0, 59, 64
2, 292752, Note_on_c, 0, 60, 92
2, 292800, Note_off_c, 0, 60, 64
2, 292800, Note_on_c, 0, 62, 92
2, 292896, Note_off_c, 0, 62, 64
2, 292896, Note_on_c, 0, 60, 92
2, 292992, Note_off_c, 0, 60, 64
2, 292992, Note_on_c, 0, 59, 92
2, 293088, Note_off_c, 0, 59, 64
2, 293088, Note_on_c, 0, 57, 92
2, 293184, Note_off_c, 0, 57, 64
2, 293184, Note_on_c, 0, 56, 92
2, 293280, Note_off_c, 0, 56, 64
2, 293280, Note_on_c, 0, 54, 92
2, 293328, Note_off_c, 0, 54, 64
2, 293328, Note_on_c, 0, 52, 92
2, 293376, Note_off_c, 0, 52, 64
2, 293376, Note_on_c, 0, 50, 92
2, 293520, Note_off_c, 0, 50, 64
2, 293520, Note_on_c, 0, 59, 92
2, 293568, Note_off_c, 0, 59, 64
2, 293568, Note_on_c, 0, 60, 92
2, 293664, Note_off_c, 0, 60, 64
2, 293664, Note_on_c, 0, 62, 92
2, 293760, Note_off_c, 0, 62, 64
2, 293760, Note_on_c, 0, 60, 92
2, 293952, Note_off_c, 0, 60, 64
2, 293952, Note_on_c, 0, 60, 92
2, 293976, Note_off_c, 0, 60, 64
2, 293976, Note_on_c, 0, 59, 92
2, 294000, Note_off_c, 0, 59, 64
2, 294000, Note_on_c, 0, 60, 92
2, 294024, Note_off_c, 0, 60, 64
2, 294024, Note_on_c, 0, 59, 92
2, 294048, Note_off_c, 0, 59, 64
2, 294048, Note_on_c, 0, 57, 92
2, 294144, Note_off_c, 0, 57, 64
2, 294144, Note_on_c, 0, 56, 92
2, 294288, Note_off_c, 0, 56, 64
2, 294288, Note_on_c, 0, 62, 92
2, 294336, Note_off_c, 0, 62, 64
2, 294336, Note_on_c, 0, 64, 92
2, 294432, Note_off_c, 0, 64, 64
2, 294432, Note_on_c, 0, 65, 92
2, 294528, Note_off_c, 0, 65, 64
2, 294528, Note_on_c, 0, 64, 92
2, 294624, Note_off_c, 0, 64, 64
2, 294624, Note_on_c, 0, 62, 92
2, 294720, Note_off_c, 0, 62, 64
2, 294720, Note_on_c, 0, 62, 92
2, 294744, Note_off_c, 0, 62, 64
2, 294744, Note_on_c, 0, 60, 92
2, 294768, Note_off_c, 0, 60, 64
2, 294768, Note_on_c, 0, 62, 92
2, 294792, Note_off_c, 0, 62, 64
2, 294792, Note_on_c, 0, 60, 92
2, 294816, Note_off_c, 0, 60, 64
2, 294816, Note_on_c, 0, 59, 92
2, 294864, Note_off_c, 0, 59, 64
2, 294864, Note_on_c, 0, 57, 92
2, 294912, Note_off_c, 0, 57, 64
2, 294912, Note_on_c, 0, 56, 92
2, 295056, Note_off_c, 0, 56, 64
2, 295056, Note_on_c, 0, 68, 92
2, 295104, Note_off_c, 0, 68, 64
2, 295104, Note_on_c, 0, 69, 92
2, 295200, Note_off_c, 0, 69, 64
2, 295200, Note_on_c, 0, 71, 92
2, 295296, Note_off_c, 0, 71, 64
2, 295296, Note_on_c, 0, 69, 92
2, 295392, Note_off_c, 0, 69, 64
2, 295392, Note_on_c, 0, 68, 92
2, 295488, Note_off_c, 0, 68, 64
2, 295488, Note_on_c, 0, 68, 92
2, 295512, Note_off_c, 0, 68, 64
2, 295512, Note_on_c, 0, 66, 92
2, 295536, Note_off_c, 0, 66, 64
2, 295536, Note_on_c, 0, 68, 92
2, 295560, Note_off_c, 0, 68, 64
2, 295560, Note_on_c, 0, 66, 92
2, 295584, Note_off_c, 0, 66, 64
2, 295584, Note_on_c, 0, 64, 92
2, 295632, Note_off_c, 0, 64, 64
2, 295632, Note_on_c, 0, 62, 92
2, 295680, Note_off_c, 0, 62, 64
2, 295680, Note_on_c, 0, 56, 92
2, 295824, Note_off_c, 0, 56, 64
2, 295824, Note_on_c, 0, 62, 92
2, 295872, Note_off_c, 0, 62, 64
2, 295872, Note_on_c, 0, 64, 92
2, 295968, Note_off_c, 0, 64, 64
2, 295968, Note_on_c, 0, 65, 92
2, 296064, Note_off_c, 0, 65, 64
2, 296064, Note_on_c, 0, 64, 92
2, 296160, Note_off_c, 0, 64, 64
2, 296160, Note_on_c, 0, 62, 92
2, 296256, Note_off_c, 0, 62, 64
2, 296256, Note_on_c, 0, 60, 92
2, 296352, Note_off_c, 0, 60, 64
2, 296352, Note_on_c, 0, 59, 92
2, 296400, Note_off_c, 0, 59, 64
2, 296400, Note_on_c, 0, 60, 92
2, 296448, Note_off_c, 0, 60, 64
2, 296448, Note_on_c, 0, 60, 92
2, 296640, Note_off_c, 0, 60, 64
2, 296640, Note_on_c, 0, 59, 92
2, 296664, Note_off_c, 0, 59, 64
2, 296664, Note_on_c, 0, 57, 92
2, 296688, Note_off_c, 0, 57, 64
2, 296688, Note_on_c, 0, 59, 92
2, 296712, Note_off_c, 0, 59, 64
2, 296712, Note_on_c, 0, 57, 92
2, 296736, Note_off_c, 0, 57, 64
2, 296736, Note_on_c, 0, 59, 92
2, 296760, Note_off_c, 0, 59, 64
2, 296760, Note_on_c, 0, 57, 92
2, 296784, Note_off_c, 0, 57, 64
2, 296784, Note_on_c, 0, 59, 92
2, 296808, Note_off_c, 0, 59, 64
2, 296808, Note_on_c, 0, 57, 92
2, 296880, Note_off_c, 0, 57, 64
2, 296880, Note_on_c, 0, 56, 92
2, 296928, Note_off_c, 0, 56, 64
2, 296928, Note_on_c, 0, 57, 92
2, 296976, Note_off_c, 0, 57, 64
2, 296976, Note_on_c, 0, 59, 92
2, 297024, Note_off_c, 0, 59, 64
2, 297024, Note_on_c, 0, 60, 92
2, 297072, Note_off_c, 0, 60, 64
2, 297072, Note_on_c, 0, 62, 92
2, 297120, Note_off_c, 0, 62, 64
2, 297120, Note_on_c, 0, 64, 92
2, 297168, Note_off_c, 0, 64, 64
2, 297168, Note_on_c, 0, 65, 92
2, 297192, Note_off_c, 0, 65, 64
2, 297192, Note_on_c, 0, 67, 92
2, 297216, Note_off_c, 0, 67, 64
2, 297216, Note_on_c, 0, 69, 92
2, 297408, Note_off_c, 0, 69, 64
2, 297408, Note_on_c, 0, 59, 92
2, 297432, Note_off_c, 0, 59, 64
2, 297432, Note_on_c, 0, 57, 92
2, 297456, Note_off_c, 0, 57, 64
2, 297456, Note_on_c, 0, 59, 92
2, 297480, Note_off_c, 0, 59, 64
2, 297480, Note_on_c, 0, 57, 92
2, 297504, Note_off_c, 0, 57, 64
2, 297504, Note_on_c, 0, 59, 92
2, 297528, Note_off_c, 0, 59, 64
2, 297528, Note_on_c, 0, 57, 92
2, 297552, Note_off_c, 0, 57, 64
2, 297552, Note_on_c, 0, 59, 92
2, 297576, Note_off_c, 0, 59, 64
2, 297576, Note_on_c, 0, 57, 92
2, 297648, Note_off_c, 0, 57, 64
2, 297648, Note_on_c, 0, 55, 92
2, 297696, Note_off_c, 0, 55, 64
2, 297696, Note_on_c, 0, 57, 92
2, 297744, Note_off_c, 0, 57, 64
2, 297744, Note_on_c, 0, 59, 92
2, 297792, Note_off_c, 0, 59, 64
2, 297792, Note_on_c, 0, 61, 92
2, 297840, Note_off_c, 0, 61, 64
2, 297840, Note_on_c, 0, 62, 92
2, 297888, Note_off_c, 0, 62, 64
2, 297888, Note_on_c, 0, 64, 92
2, 297912, Note_off_c, 0, 64, 64
2, 297912, Note_on_c, 0, 65, 92
2, 297936, Note_off_c, 0, 65, 64
2, 297936, Note_on_c, 0, 67, 92
2, 297960, Note_off_c, 0, 67, 64
2, 297960, Note_on_c, 0, 69, 92
2, 297984, Note_off_c, 0, 69, 64
2, 297984, Note_on_c, 0, 70, 92
2, 298464, Note_off_c, 0, 70, 64
2, 298464, Note_on_c, 0, 69, 92
2, 298560, Note_off_c, 0, 69, 64
2, 298560, Note_on_c, 0, 67, 92
2, 298656, Note_off_c, 0, 67, 64
2, 298656, Note_on_c, 0, 65, 92
2, 298680, Note_off_c, 0, 65, 64
2, 298680, Note_on_c, 0, 67, 92
2, 298704, Note_off_c, 0, 67, 64
2, 298704, Note_on_c, 0, 64, 92
2, 298752, Note_off_c, 0, 64, 64
2, 298752, Note_on_c, 0, 74, 92
2, 298776, Note_off_c, 0, 74, 64
2, 298776, Note_on_c, 0, 73, 92
2, 298800, Note_off_c, 0, 73, 64
2, 298800, Note_on_c, 0, 74, 92
2, 298824, Note_off_c, 0, 74, 64
2, 298824, Note_on_c, 0, 73, 92
2, 298848, Note_off_c, 0, 73, 64
2, 298848, Note_on_c, 0, 74, 92
2, 298872, Note_off_c, 0, 74, 64
2, 298872, Note_on_c, 0, 73, 92
2, 298896, Note_off_c, 0, 73, 64
2, 298896, Note_on_c, 0, 74, 92
2, 298920, Note_off_c, 0, 74, 64
2, 298920, Note_on_c, 0, 73, 92
2, 298944, Note_off_c, 0, 73, 64
2, 298944, Note_on_c, 0, 74, 92
2, 298968, Note_off_c, 0, 74, 64
2, 298968, Note_on_c, 0, 73, 92
2, 298992, Note_off_c, 0, 73, 64
2, 298992, Note_on_c, 0, 74, 92
2, 299016, Note_off_c, 0, 74, 64
2, 299016, Note_on_c, 0, 73, 92
2, 299040, Note_off_c, 0, 73, 64
2, 299040, Note_on_c, 0, 74, 92
2, 299064, Note_off_c, 0, 74, 64
2, 299064, Note_on_c, 0, 73, 92
2, 299088, Note_off_c, 0, 73, 64
2, 299088, Note_on_c, 0, 74, 92
2, 299112, Note_off_c, 0, 74, 64
2, 299112, Note_on_c, 0, 73, 92
2, 299184, Note_off_c, 0, 73, 64
2, 299184, Note_on_c, 0, 71, 92
2, 299232, Note_off_c, 0, 71, 64
2, 299232, Note_on_c, 0, 69, 92
2, 299280, Note_off_c, 0, 69, 64
2, 299280, Note_on_c, 0, 67, 92
2, 299328, Note_off_c, 0, 67, 64
2, 299328, Note_on_c, 0, 65, 92
2, 299376, Note_off_c, 0, 65, 64
2, 299376, Note_on_c, 0, 64, 92
2, 299424, Note_off_c, 0, 64, 64
2, 299424, Note_on_c, 0, 62, 92
2, 299472, Note_off_c, 0, 62, 64
2, 299472, Note_on_c, 0, 61, 92
2, 299496, Note_off_c, 0, 61, 64
2, 299496, Note_on_c, 0, 62, 92
2, 299520, Note_off_c, 0, 62, 64
2, 299520, Note_on_c, 0, 62, 92
2, 299544, Note_off_c, 0, 62, 64
2, 299544, Note_on_c, 0, 61, 92
2, 299568, Note_off_c, 0, 61, 64
2, 299568, Note_on_c, 0, 62, 92
2, 299712, Note_off_c, 0, 62, 64
2, 299712, Note_on_c, 0, 62, 92
2, 299904, Note_off_c, 0, 62, 64
2, 299904, Note_on_c, 0, 62, 92
2, 299928, Note_off_c, 0, 62, 64
2, 299928, Note_on_c, 0, 61, 92
2, 299952, Note_off_c, 0, 61, 64
2, 299952, Note_on_c, 0, 62, 92
2, 300096, Note_off_c, 0, 62, 64
2, 300096, Note_on_c, 0, 62, 92
2, 300288, Note_off_c, 0, 62, 64
2, 300288, Note_on_c, 0, 74, 92
2, 300384, Note_off_c, 0, 74, 64
2, 300384, Note_on_c, 0, 72, 92
2, 300480, Note_off_c, 0, 72, 64
2, 300480, Note_on_c, 0, 72, 92
2, 300504, Note_off_c, 0, 72, 64
2, 300504, Note_on_c, 0, 71, 92
2, 300528, Note_off_c, 0, 71, 64
2, 300528, Note_on_c, 0, 72, 92
2, 300552, Note_off_c, 0, 72, 64
2, 300552, Note_on_c, 0, 71, 92
2, 300576, Note_off_c, 0, 71, 64
2, 300576, Note_on_c, 0, 69, 92
2, 300624, Note_off_c, 0, 69, 64
2, 300624, Note_on_c, 0, 68, 92
2, 300672, Note_off_c, 0, 68, 64
2, 300672, Note_on_c, 0, 69, 92
2, 300720, Note_off_c, 0, 69, 64
2, 300720, Note_on_c, 0, 68, 92
2, 300768, Note_off_c, 0, 68, 64
2, 300768, Note_on_c, 0, 69, 92
2, 300816, Note_off_c, 0, 69, 64
2, 300816, Note_on_c, 0, 71, 92
2, 300864, Note_off_c, 0, 71, 64
2, 300864, Note_on_c, 0, 69, 92
2, 300912, Note_off_c, 0, 69, 64
2, 300912, Note_on_c, 0, 68, 92
2, 300960, Note_off_c, 0, 68, 64
2, 300960, Note_on_c, 0, 66, 92
2, 300984, Note_off_c, 0, 66, 64
2, 300984, Note_on_c, 0, 64, 92
2, 301008, Note_off_c, 0, 64, 64
2, 301008, Note_on_c, 0, 63, 92
2, 301032, Note_off_c, 0, 63, 64
2, 301032, Note_on_c, 0, 64, 92
2, 301056, Note_off_c, 0, 64, 64
2, 301056, Note_on_c, 0, 64, 92
2, 301296, Note_off_c, 0, 64, 64
2, 301296, Note_on_c, 0, 62, 92
2, 301344, Note_off_c, 0, 62, 64
2, 301344, Note_on_c, 0, 64, 92
2, 301392, Note_off_c, 0, 64, 64
2, 301392, Note_on_c, 0, 65, 92
2, 301440, Note_off_c, 0, 65, 64
2, 301440, Note_on_c, 0, 64, 92
2, 301488, Note_off_c, 0, 64, 64
2, 301488, Note_on_c, 0, 62, 92
2, 301536, Note_off_c, 0, 62, 64
2, 301536, Note_on_c, 0, 60, 92
2, 301584, Note_off_c, 0, 60, 64
2, 301584, Note_on_c, 0, 59, 92
2, 301632, Note_off_c, 0, 59, 64
2, 301632, Note_on_c, 0, 60, 92
2, 301680, Note_off_c, 0, 60, 64
2, 301680, Note_on_c, 0, 59, 92
2, 301728, Note_off_c, 0, 59, 64
2, 301728, Note_on_c, 0, 60, 92
2, 301776, Note_off_c, 0, 60, 64
2, 301776, Note_on_c, 0, 59, 92
2, 301800, Note_off_c, 0, 59, 64
2, 301800, Note_on_c, 0, 60, 92
2, 301824, Note_off_c, 0, 60, 64
2, 301824, Note_on_c, 0, 60, 92
2, 302064, Note_off_c, 0, 60, 64
2, 302064, Note_on_c, 0, 59, 92
2, 302112, Note_off_c, 0, 59, 64
2, 302112, Note_on_c, 0, 60, 92
2, 302160, Note_off_c, 0, 60, 64
2, 302160, Note_on_c, 0, 62, 92
2, 302208, Note_off_c, 0, 62, 64
2, 302208, Note_on_c, 0, 60, 92
2, 302256, Note_off_c, 0, 60, 64
2, 302256, Note_on_c, 0, 59, 92
2, 302304, Note_off_c, 0, 59, 64
2, 302304, Note_on_c, 0, 57, 92
2, 302352, Note_off_c, 0, 57, 64
2, 302352, Note_on_c, 0, 56, 92
2, 302400, Note_off_c, 0, 56, 64
2, 302400, Note_on_c, 0, 57, 92
2, 302448, Note_off_c, 0, 57, 64
2, 302448, Note_on_c, 0, 56, 92
2, 302496, Note_off_c, 0, 56, 64
2, 302496, Note_on_c, 0, 57, 92
2, 302544, Note_off_c, 0, 57, 64
2, 302544, Note_on_c, 0, 56, 92
2, 302568, Note_off_c, 0, 56, 64
2, 302568, Note_on_c, 0, 57, 92
2, 302592, Note_off_c, 0, 57, 64
2, 302592, Note_on_c, 0, 57, 92
2, 302640, Note_off_c, 0, 57, 64
2, 302640, Note_on_c, 0, 60, 92
2, 302688, Note_off_c, 0, 60, 64
2, 302688, Note_on_c, 0, 59, 92
2, 302736, Note_off_c, 0, 59, 64
2, 302736, Note_on_c, 0, 57, 92
2, 302784, Note_off_c, 0, 57, 64
2, 302784, Note_on_c, 0, 59, 92
2, 302832, Note_off_c, 0, 59, 64
2, 302832, Note_on_c, 0, 64, 92
2, 302880, Note_off_c, 0, 64, 64
2, 302880, Note_on_c, 0, 68, 92
2, 302928, Note_off_c, 0, 68, 64
2, 302928, Note_on_c, 0, 69, 92
2, 302952, Note_off_c, 0, 69, 64
2, 302952, Note_on_c, 0, 60, 92
2, 302976, Note_off_c, 0, 60, 64
2, 302976, Note_on_c, 0, 57, 92
2, 303000, Note_off_c, 0, 57, 64
2, 303000, Note_on_c, 0, 59, 92
2, 303024, Note_off_c, 0, 59, 64
2, 303024, Note_on_c, 0, 59, 92
2, 303264, Note_off_c, 0, 59, 64
2, 303264, Note_on_c, 0, 57, 92
2, 303360, Note_off_c, 0, 57, 64
2, 303360, Note_on_c, 0, 50, 92
2, 303792, Note_off_c, 0, 50, 64
2, 303792, Note_on_c, 0, 57, 92
2, 303840, Note_off_c, 0, 57, 64
2, 303840, Note_on_c, 0, 55, 92
2, 303888, Note_off_c, 0, 55, 64
2, 303888, Note_on_c, 0, 53, 92
2, 303936, Note_off_c, 0, 53, 64
2, 303936, Note_on_c, 0, 52, 92
2, 303984, Note_off_c, 0, 52, 64
2, 303984, Note_on_c, 0, 50, 92
2, 304032, Note_off_c, 0, 50, 64
2, 304032, Note_on_c, 0, 53, 92
2, 304080, Note_off_c, 0, 53, 64
2, 304080, Note_on_c, 0, 57, 92
2, 304104, Note_off_c, 0, 57, 64
2, 304104, Note_on_c, 0, 58, 92
2, 304128, Note_off_c, 0, 58, 64
2, 304128, Note_on_c, 0, 58, 92
2, 304560, Note_off_c, 0, 58, 64
2, 304560, Note_on_c, 0, 57, 92
2, 304608, Note_off_c, 0, 57, 64
2, 304608, Note_on_c, 0, 55, 92
2, 304656, Note_off_c, 0, 55, 64
2, 304656, Note_on_c, 0, 53, 92
2, 304704, Note_off_c, 0, 53, 64
2, 304704, Note_on_c, 0, 52, 92
2, 304752, Note_off_c, 0, 52, 64
2, 304752, Note_on_c, 0, 50, 92
2, 304800, Note_off_c, 0, 50, 64
2, 304800, Note_on_c, 0, 53, 92
2, 304848, Note_off_c, 0, 53, 64
2, 304848, Note_on_c, 0, 58, 92
2, 304872, Note_off_c, 0, 58, 64
2, 304872, Note_on_c, 0, 62, 92
2, 304896, Note_off_c, 0, 62, 64
2, 304896, Note_on_c, 0, 68, 92
2, 305328, Note_off_c, 0, 68, 64
2, 305328, Note_on_c, 0, 69, 92
2, 305376, Note_off_c, 0, 69, 64
2, 305376, Note_on_c, 0, 66, 92
2, 305472, Note_off_c, 0, 66, 64
2, 305472, Note_on_c, 0, 64, 92
2, 305520, Note_off_c, 0, 64, 64
2, 305520, Note_on_c, 0, 65, 92
2, 305568, Note_off_c, 0, 65, 64
2, 305568, Note_on_c, 0, 62, 92
2, 305664, Note_off_c, 0, 62, 64
2, 305664, Note_on_c, 0, 60, 92
2, 305712, Note_off_c, 0, 60, 64
2, 305712, Note_on_c, 0, 59, 92
2, 305760, Note_off_c, 0, 59, 64
2, 305760, Note_on_c, 0, 57, 92
2, 305856, Note_off_c, 0, 57, 64
2, 305856, Note_on_c, 0, 69, 92
2, 306096, Note_off_c, 0, 69, 64
2, 306096, Note_on_c, 0, 70, 92
2, 306144, Note_off_c, 0, 70, 64
2, 306144, Note_on_c, 0, 67, 92
2, 306240, Note_off_c, 0, 67, 64
2, 306240, Note_on_c, 0, 65, 92
2, 306288, Note_off_c, 0, 65, 64
2, 306288, Note_on_c, 0, 67, 92
2, 306336, Note_off_c, 0, 67, 64
2, 306336, Note_on_c, 0, 64, 92
2, 306432, Note_off_c, 0, 64, 64
2, 306432, Note_on_c, 0, 62, 92
2, 306480, Note_off_c, 0, 62, 64
2, 306480, Note_on_c, 0, 60, 92
2, 306528, Note_off_c, 0, 60, 64
2, 306528, Note_on_c, 0, 59, 92
2, 306624, Note_off_c, 0, 59, 64
2, 306624, Note_on_c, 0, 71, 92
2, 306864, Note_off_c, 0, 71, 64
2, 306864, Note_on_c, 0, 72, 92
2, 306912, Note_off_c, 0, 72, 64
2, 306912, Note_on_c, 0, 69, 92
2, 307008, Note_off_c, 0, 69, 64
2, 307008, Note_on_c, 0, 68, 92
2, 307056, Note_off_c, 0, 68, 64
2, 307056, Note_on_c, 0, 69, 92
2, 307104, Note_off_c, 0, 69, 64
2, 307104, Note_on_c, 0, 65, 92
2, 307200, Note_off_c, 0, 65, 64
2, 307200, Note_on_c, 0, 64, 92
2, 307248, Note_off_c, 0, 64, 64
2, 307248, Note_on_c, 0, 62, 92
2, 307296, Note_off_c, 0, 62, 64
2, 307296, Note_on_c, 0, 60, 92
2, 307392, Note_off_c, 0, 60, 64
2, 307392, Note_on_c, 0, 72, 92
2, 307584, Note_off_c, 0, 72, 64
2, 307584, Note_on_c, 0, 74, 92
2, 307608, Note_off_c, 0, 74, 64
2, 307608, Note_on_c, 0, 73, 92
2, 307632, Note_off_c, 0, 73, 64
2, 307632, Note_on_c, 0, 74, 92
2, 307656, Note_off_c, 0, 74, 64
2, 307656, Note_on_c, 0, 73, 92
2, 307680, Note_off_c, 0, 73, 64
2, 307680, Note_on_c, 0, 74, 92
2, 307704, Note_off_c, 0, 74, 64
2, 307704, Note_on_c, 0, 73, 92
2, 307728, Note_off_c, 0, 73, 64
2, 307728, Note_on_c, 0, 74, 92
2, 307752, Note_off_c, 0, 74, 64
2, 307752, Note_on_c, 0, 73, 92
2, 307776, Note_off_c, 0, 73, 64
2, 307776, Note_on_c, 0, 74, 92
2, 307800, Note_off_c, 0, 74, 64
2, 307800, Note_on_c, 0, 73, 92
2, 307824, Note_off_c, 0, 73, 64
2, 307824, Note_on_c, 0, 74, 92
2, 307848, Note_off_c, 0, 74, 64
2, 307848, Note_on_c, 0, 73, 92
2, 307872, Note_off_c, 0, 73, 64
2, 307872, Note_on_c, 0, 71, 92
2, 307920, Note_off_c, 0, 71, 64
2, 307920, Note_on_c, 0, 73, 92
2, 307968, Note_off_c, 0, 73, 64
2, 307968, Note_on_c, 0, 74, 92
2, 308160, Note_off_c, 0, 74, 64
2, 308160, Note_on_c, 0, 69, 92
2, 308208, Note_off_c, 0, 69, 64
2, 308208, Note_on_c, 0, 68, 92
2, 308256, Note_off_c, 0, 68, 64
2, 308256, Note_on_c, 0, 69, 92
2, 308304, Note_off_c, 0, 69, 64
2, 308304, Note_on_c, 0, 68, 92
2, 308328, Note_off_c, 0, 68, 64
2, 308328, Note_on_c, 0, 69, 92
2, 308352, Note_off_c, 0, 69, 64
2, 308352, Note_on_c, 0, 69, 92
2, 308544, Note_off_c, 0, 69, 64
2, 308544, Note_on_c, 0, 64, 92
2, 308592, Note_off_c, 0, 64, 64
2, 308592, Note_on_c, 0, 63, 92
2, 308640, Note_off_c, 0, 63, 64
2, 308640, Note_on_c, 0, 64, 92
2, 308688, Note_off_c, 0, 64, 64
2, 308688, Note_on_c, 0, 63, 92
2, 308712, Note_off_c, 0, 63, 64
2, 308712, Note_on_c, 0, 64, 92
2, 308736, Note_off_c, 0, 64, 64
2, 308736, Note_on_c, 0, 64, 92
2, 308832, Note_off_c, 0, 64, 64
2, 308832, Note_on_c, 0, 59, 92
2, 308928, Note_off_c, 0, 59, 64
2, 308928, Note_on_c, 0, 60, 92
2, 308976, Note_off_c, 0, 60, 64
2, 308976, Note_on_c, 0, 56, 92
2, 309024, Note_off_c, 0, 56, 64
2, 309024, Note_on_c, 0, 57, 92
2, 309072, Note_off_c, 0, 57, 64
2, 309072, Note_on_c, 0, 62, 92
2, 309120, Note_off_c, 0, 62, 64
2, 309120, Note_on_c, 0, 59, 92
2, 309408, Note_off_c, 0, 59, 64
2, 309408, Note_on_c, 0, 57, 92
2, 309504, Note_off_c, 0, 57, 64
2, 309504, Note_on_c, 0, 57, 92
2, 309600, Note_off_c, 0, 57, 64
2, 309600, Note_on_c, 0, 60, 92
2, 309648, Note_off_c, 0, 60, 64
2, 309648, Note_on_c, 0, 59, 92
2, 309696, Note_off_c, 0, 59, 64
2, 309696, Note_on_c, 0, 57, 92
2, 309744, Note_off_c, 0, 57, 64
2, 309744, Note_on_c, 0, 60, 92
2, 309792, Note_off_c, 0, 60, 64
2, 309792, Note_on_c, 0, 59, 92
2, 309840, Note_off_c, 0, 59, 64
2, 309840, Note_on_c, 0, 57, 92
2, 309888, Note_off_c, 0, 57, 64
2, 309888, Note_on_c, 0, 60, 92
2, 309952, Note_off_c, 0, 60, 64
2, 309952, Note_on_c, 0, 64, 92
2, 310016, Note_off_c, 0, 64, 64
2, 310016, Note_on_c, 0, 68, 92
2, 310080, Note_off_c, 0, 68, 64
2, 310080, Note_on_c, 0, 69, 92
2, 310144, Note_off_c, 0, 69, 64
2, 310144, Note_on_c, 0, 68, 92
2, 310208, Note_off_c, 0, 68, 64
2, 310208, Note_on_c, 0, 69, 92
2, 310272, Note_off_c, 0, 69, 64
2, 311808, Note_on_c, 0, 72, 92
2, 312000, Note_off_c, 0, 72, 64
2, 312000, Note_on_c, 0, 72, 92
2, 312192, Note_off_c, 0, 72, 64
2, 312192, Note_on_c, 0, 67, 92
2, 312384, Note_off_c, 0, 67, 64
2, 312384, Note_on_c, 0, 67, 92
2, 312576, Note_off_c, 0, 67, 64
2, 312576, Note_on_c, 0, 64, 92
2, 312768, Note_off_c, 0, 64, 64
2, 312768, Note_on_c, 0, 64, 92
2, 312960, Note_off_c, 0, 64, 64
2, 312960, Note_on_c, 0, 60, 92
2, 313344, Note_off_c, 0, 60, 64
2, 313344, Note_on_c, 0, 64, 92
2, 313344, Note_on_c, 0, 60, 92
2, 313728, Note_off_c, 0, 60, 64
2, 313728, Note_off_c, 0, 64, 64
2, 313728, Note_on_c, 0, 67, 92
2, 313728, Note_on_c, 0, 64, 92
2, 313728, Note_on_c, 0, 60, 92
2, 314112, Note_off_c, 0, 60, 64
2, 314112, Note_off_c, 0, 64, 64
2, 314112, Note_off_c, 0, 67, 64
2, 314112, Note_on_c, 0, 64, 92
2, 314112, Note_on_c, 0, 67, 92
2, 314112, Note_on_c, 0, 72, 92
2, 314304, Note_off_c, 0, 72, 64
2, 314304, Note_off_c, 0, 67, 64
2, 314304, Note_off_c, 0, 64, 64
2, 314304, Note_on_c, 0, 72, 92
2, 314496, Note_off_c, 0, 72, 64
2, 314496, Note_on_c, 0, 67, 92
2, 314688, Note_off_c, 0, 67, 64
2, 314688, Note_on_c, 0, 67, 92
2, 314880, Note_off_c, 0, 67, 64
2, 314880, Note_on_c, 0, 64, 92
2, 315072, Note_off_c, 0, 64, 64
2, 315072, Note_on_c, 0, 64, 92
2, 315264, Note_off_c, 0, 64, 64
2, 315264, Note_on_c, 0, 60, 92
2, 315648, Note_off_c, 0, 60, 64
2, 315648, Note_on_c, 0, 64, 92
2, 315648, Note_on_c, 0, 60, 92
2, 316032, Note_off_c, 0, 60, 64
2, 316032, Note_off_c, 0, 64, 64
2, 316032, Note_on_c, 0, 67, 92
2, 316032, Note_on_c, 0, 64, 92
2, 316032, Note_on_c, 0, 60, 92
2, 316416, Note_off_c, 0, 60, 64
2, 316416, Note_off_c, 0, 64, 64
2, 316416, Note_off_c, 0, 67, 64
2, 316416, Note_on_c, 0, 64, 92
2, 316416, Note_on_c, 0, 67, 92
2, 316416, Note_on_c, 0, 72, 92
2, 316608, Note_off_c, 0, 72, 64
2, 316608, Note_off_c, 0, 67, 64
2, 316608, Note_off_c, 0, 64, 64
2, 316608, Note_on_c, 0, 72, 92
2, 316800, Note_off_c, 0, 72, 64
2, 316800, Note_on_c, 0, 76, 92
2, 316992, Note_off_c, 0, 76, 64
2, 316992, Note_on_c, 0, 76, 92
2, 317184, Note_off_c, 0, 76, 64
2, 317184, Note_on_c, 0, 79, 92
2, 317376, Note_off_c, 0, 79, 64
2, 317376, Note_on_c, 0, 79, 92
2, 317568, Note_off_c, 0, 79, 64
2, 317568, Note_on_c, 0, 67, 92
2, 317952, Note_off_c, 0, 67, 64
2, 317952, Note_on_c, 0, 71, 92
2, 317952, Note_on_c, 0, 67, 92
2, 318336, Note_off_c, 0, 67, 64
2, 318336, Note_off_c, 0, 71, 64
2, 318336, Note_on_c, 0, 74, 92
2, 318336, Note_on_c, 0, 71, 92
2, 318336, Note_on_c, 0, 67, 92
2, 318720, Note_off_c, 0, 67, 64
2, 318720, Note_off_c, 0, 71, 64
2, 318720, Note_off_c, 0, 74, 64
2, 318720, Note_on_c, 0, 71, 92
2, 318720, Note_on_c, 0, 74, 92
2, 318720, Note_on_c, 0, 79, 92
2, 318912, Note_off_c, 0, 79, 64
2, 318912, Note_off_c, 0, 74, 64
2, 318912, Note_off_c, 0, 71, 64
2, 318912, Note_on_c, 0, 79, 92
2, 319104, Note_off_c, 0, 79, 64
2, 319104, Note_on_c, 0, 74, 92
2, 319296, Note_off_c, 0, 74, 64
2, 319296, Note_on_c, 0, 74, 92
2, 319488, Note_off_c, 0, 74, 64
2, 319488, Note_on_c, 0, 71, 92
2, 319680, Note_off_c, 0, 71, 64
2, 319680, Note_on_c, 0, 71, 92
2, 319872, Note_off_c, 0, 71, 64
2, 319872, Note_on_c, 0, 67, 92
2, 320256, Note_off_c, 0, 67, 64
2, 320256, Note_on_c, 0, 71, 92
2, 320256, Note_on_c, 0, 67, 92
2, 320640, Note_off_c, 0, 67, 64
2, 320640, Note_off_c, 0, 71, 64
2, 320640, Note_on_c, 0, 74, 92
2, 320640, Note_on_c, 0, 71, 92
2, 320640, Note_on_c, 0, 67, 92
2, 321024, Note_off_c, 0, 67, 64
2, 321024, Note_off_c, 0, 71, 64
2, 321024, Note_off_c, 0, 74, 64
2, 321024, Note_on_c, 0, 71, 92
2, 321024, Note_on_c, 0, 74, 92
2, 321024, Note_on_c, 0, 79, 92
2, 321216, Note_off_c, 0, 79, 64
2, 321216, Note_off_c, 0, 74, 64
2, 321216, Note_off_c, 0, 71, 64
2, 321216, Note_on_c, 0, 79, 92
2, 321408, Note_off_c, 0, 79, 64
2, 321408, Note_on_c, 0, 74, 92
2, 321600, Note_off_c, 0, 74, 64
2, 321600, Note_on_c, 0, 74, 92
2, 321792, Note_off_c, 0, 74, 64
2, 321792, Note_on_c, 0, 71, 92
2, 321984, Note_off_c, 0, 71, 64
2, 321984, Note_on_c, 0, 71, 92
2, 322176, Note_off_c, 0, 71, 64
2, 322176, Note_on_c, 0, 67, 92
2, 322176, Note_on_c, 0, 64, 92
2, 322560, Note_off_c, 0, 64, 64
2, 322560, Note_off_c, 0, 67, 64
2, 322560, Note_on_c, 0, 72, 92
2, 322560, Note_on_c, 0, 67, 92
2, 322560, Note_on_c, 0, 64, 92
2, 322944, Note_off_c, 0, 64, 64
2, 322944, Note_off_c, 0, 67, 64
2, 322944, Note_off_c, 0, 72, 64
2, 322944, Note_on_c, 0, 76, 92
2, 322944, Note_on_c, 0, 72, 92
2, 322944, Note_on_c, 0, 67, 92
2, 323328, Note_off_c, 0, 67, 64
2, 323328, Note_off_c, 0, 72, 64
2, 323328, Note_off_c, 0, 76, 64
2, 323328, Note_on_c, 0, 72, 92
2, 323520, Note_off_c, 0, 72, 64
2, 323520, Note_on_c, 0, 72, 92
2, 323712, Note_off_c, 0, 72, 64
2, 323712, Note_on_c, 0, 69, 92
2, 323904, Note_off_c, 0, 69, 64
2, 323904, Note_on_c, 0, 69, 92
2, 324096, Note_off_c, 0, 69, 64
2, 324096, Note_on_c, 0, 65, 92
2, 324288, Note_off_c, 0, 65, 64
2, 324288, Note_on_c, 0, 65, 92
2, 324480, Note_off_c, 0, 65, 64
2, 324480, Note_on_c, 0, 66, 92
2, 324480, Note_on_c, 0, 69, 92
2, 324864, Note_off_c, 0, 69, 64
2, 324864, Note_off_c, 0, 66, 64
2, 324864, Note_on_c, 0, 74, 92
2, 324864, Note_on_c, 0, 66, 92
2, 324864, Note_on_c, 0, 69, 92
2, 325248, Note_off_c, 0, 69, 64
2, 325248, Note_off_c, 0, 66, 64
2, 325248, Note_off_c, 0, 74, 64
2, 325248, Note_on_c, 0, 78, 92
2, 325248, Note_on_c, 0, 74, 92
2, 325248, Note_on_c, 0, 69, 92
2, 325632, Note_off_c, 0, 69, 64
2, 325632, Note_off_c, 0, 74, 64
2, 325632, Note_off_c, 0, 78, 64
2, 325632, Note_on_c, 0, 74, 92
2, 325824, Note_off_c, 0, 74, 64
2, 325824, Note_on_c, 0, 74, 92
2, 326016, Note_off_c, 0, 74, 64
2, 326016, Note_on_c, 0, 71, 92
2, 326208, Note_off_c, 0, 71, 64
2, 326208, Note_on_c, 0, 71, 92
2, 326400, Note_off_c, 0, 71, 64
2, 326400, Note_on_c, 0, 67, 92
2, 326592, Note_off_c, 0, 67, 64
2, 326592, Note_on_c, 0, 67, 92
2, 326784, Note_off_c, 0, 67, 64
2, 326784, Note_on_c, 0, 71, 92
2, 327168, Note_off_c, 0, 71, 64
2, 327168, Note_on_c, 0, 76, 92
2, 327168, Note_on_c, 0, 71, 92
2, 327552, Note_off_c, 0, 71, 64
2, 327552, Note_off_c, 0, 76, 64
2, 327552, Note_on_c, 0, 80, 92
2, 327552, Note_on_c, 0, 76, 92
2, 327552, Note_on_c, 0, 71, 92
2, 327936, Note_off_c, 0, 71, 64
2, 327936, Note_off_c, 0, 76, 64
2, 327936, Note_off_c, 0, 80, 64
2, 327936, Note_on_c, 0, 76, 92
2, 328128, Note_off_c, 0, 76, 64
2, 328128, Note_on_c, 0, 76, 92
2, 328320, Note_off_c, 0, 76, 64
2, 328320, Note_on_c, 0, 72, 92
2, 328512, Note_off_c, 0, 72, 64
2, 328512, Note_on_c, 0, 72, 92
2, 328704, Note_off_c, 0, 72, 64
2, 328704, Note_on_c, 0, 69, 92
2, 328896, Note_off_c, 0, 69, 64
2, 328896, Note_on_c, 0, 69, 92
2, 329088, Note_off_c, 0, 69, 64
2, 329088, Note_on_c, 0, 72, 92
2, 329088, Note_on_c, 0, 69, 92
2, 329472, Note_off_c, 0, 69, 64
2, 329472, Note_off_c, 0, 72, 64
2, 329472, Note_on_c, 0, 77, 92
2, 329472, Note_on_c, 0, 72, 92
2, 329472, Note_on_c, 0, 69, 92
2, 329856, Note_off_c, 0, 69, 64
2, 329856, Note_off_c, 0, 72, 64
2, 329856, Note_off_c, 0, 77, 64
2, 329856, Note_on_c, 0, 81, 92
2, 329856, Note_on_c, 0, 77, 92
2, 329856, Note_on_c, 0, 72, 92
2, 330240, Note_off_c, 0, 72, 64
2, 330240, Note_off_c, 0, 77, 64
2, 330240, Note_off_c, 0, 81, 64
2, 330240, Note_on_c, 0, 71, 92
2, 330240, Note_on_c, 0, 74, 92
2, 330240, Note_on_c, 0, 77, 92
2, 330432, Note_off_c, 0, 77, 64
2, 330432, Note_off_c, 0, 74, 64
2, 330432, Note_off_c, 0, 71, 64
2, 330432, Note_on_c, 0, 77, 92
2, 330624, Note_off_c, 0, 77, 64
2, 330624, Note_on_c, 0, 74, 92
2, 330816, Note_off_c, 0, 74, 64
2, 330816, Note_on_c, 0, 74, 92
2, 331008, Note_off_c, 0, 74, 64
2, 331008, Note_on_c, 0, 71, 92
2, 331200, Note_off_c, 0, 71, 64
2, 331200, Note_on_c, 0, 71, 92
2, 331392, Note_off_c, 0, 71, 64
2, 331392, Note_on_c, 0, 67, 92
2, 331776, Note_off_c, 0, 67, 64
2, 331776, Note_on_c, 0, 71, 92
2, 331776, Note_on_c, 0, 67, 92
2, 332160, Note_off_c, 0, 67, 64
2, 332160, Note_off_c, 0, 71, 64
2, 332160, Note_on_c, 0, 74, 92
2, 332160, Note_on_c, 0, 71, 92
2, 332160, Note_on_c, 0, 67, 92
2, 332544, Note_off_c, 0, 67, 64
2, 332544, Note_off_c, 0, 71, 64
2, 332544, Note_off_c, 0, 74, 64
2, 332544, Note_on_c, 0, 67, 92
2, 332544, Note_on_c, 0, 71, 92
2, 332544, Note_on_c, 0, 74, 92
2, 332544, Note_on_c, 0, 77, 92
2, 332736, Note_off_c, 0, 77, 64
2, 332736, Note_off_c, 0, 74, 64
2, 332736, Note_off_c, 0, 71, 64
2, 332736, Note_off_c, 0, 67, 64
2, 332736, Note_on_c, 0, 77, 92
2, 332928, Note_off_c, 0, 77, 64
2, 332928, Note_on_c, 0, 74, 92
2, 333120, Note_off_c, 0, 74, 64
2, 333120, Note_on_c, 0, 74, 92
2, 333312, Note_off_c, 0, 74, 64
2, 333312, Note_on_c, 0, 71, 92
2, 333504, Note_off_c, 0, 71, 64
2, 333504, Note_on_c, 0, 71, 92
2, 333696, Note_off_c, 0, 71, 64
2, 333696, Note_on_c, 0, 67, 92
2, 334080, Note_off_c, 0, 67, 64
2, 334080, Note_on_c, 0, 71, 92
2, 334080, Note_on_c, 0, 67, 92
2, 334464, Note_off_c, 0, 67, 64
2, 334464, Note_off_c, 0, 71, 64
2, 334464, Note_on_c, 0, 74, 92
2, 334464, Note_on_c, 0, 71, 92
2, 334464, Note_on_c, 0, 67, 92
2, 334848, Note_off_c, 0, 67, 64
2, 334848, Note_off_c, 0, 71, 64
2, 334848, Note_off_c, 0, 74, 64
2, 334848, Note_on_c, 0, 72, 92
2, 334848, Note_on_c, 0, 67, 92
2, 334848, Note_on_c, 0, 76, 92
2, 335040, Note_off_c, 0, 76, 64
2, 335040, Note_off_c, 0, 67, 64
2, 335040, Note_off_c, 0, 72, 64
2, 335040, Note_on_c, 0, 72, 92
2, 335232, Note_off_c, 0, 72, 64
2, 335232, Note_on_c, 0, 67, 92
2, 335424, Note_off_c, 0, 67, 64
2, 335424, Note_on_c, 0, 67, 92
2, 335616, Note_off_c, 0, 67, 64
2, 335616, Note_on_c, 0, 64, 92
2, 335808, Note_off_c, 0, 64, 64
2, 335808, Note_on_c, 0, 64, 92
2, 336000, Note_off_c, 0, 64, 64
2, 336000, Note_on_c, 0, 69, 92
2, 336192, Note_off_c, 0, 69, 64
2, 336192, Note_on_c, 0, 69, 92
2, 336384, Note_off_c, 0, 69, 64
2, 336384, Note_on_c, 0, 65, 92
2, 336576, Note_off_c, 0, 65, 64
2, 336576, Note_on_c, 0, 65, 92
2, 336768, Note_off_c, 0, 65, 64
2, 336768, Note_on_c, 0, 62, 92
2, 336960, Note_off_c, 0, 62, 64
2, 336960, Note_on_c, 0, 62, 92
2, 337152, Note_off_c, 0, 62, 64
2, 337152, Note_on_c, 0, 65, 92
2, 337344, Note_off_c, 0, 65, 64
2, 337344, Note_on_c, 0, 65, 92
2, 337536, Note_off_c, 0, 65, 64
2, 337536, Note_on_c, 0, 62, 92
2, 337728, Note_off_c, 0, 62, 64
2, 337728, Note_on_c, 0, 62, 92
2, 337920, Note_off_c, 0, 62, 64
2, 337920, Note_on_c, 0, 59, 92
2, 338112, Note_off_c, 0, 59, 64
2, 338112, Note_on_c, 0, 59, 92
2, 338304, Note_off_c, 0, 59, 64
2, 338304, Note_on_c, 0, 55, 92
2, 338928, Note_off_c, 0, 55, 64
2, 338928, Note_on_c, 0, 57, 92
2, 338976, Note_off_c, 0, 57, 64
2, 338976, Note_on_c, 0, 59, 92
2, 339024, Note_off_c, 0, 59, 64
2, 339024, Note_on_c, 0, 60, 92
2, 339072, Note_off_c, 0, 60, 64
2, 339072, Note_on_c, 0, 62, 92
2, 339120, Note_off_c, 0, 62, 64
2, 339120, Note_on_c, 0, 64, 92
2, 339168, Note_off_c, 0, 64, 64
2, 339168, Note_on_c, 0, 65, 92
2, 339216, Note_off_c, 0, 65, 64
2, 339216, Note_on_c, 0, 67, 92
2, 339264, Note_off_c, 0, 67, 64
2, 339264, Note_on_c, 0, 69, 92
2, 339312, Note_off_c, 0, 69, 64
2, 339312, Note_on_c, 0, 71, 92
2, 339360, Note_off_c, 0, 71, 64
2, 339360, Note_on_c, 0, 72, 92
2, 339408, Note_off_c, 0, 72, 64
2, 339408, Note_on_c, 0, 74, 92
2, 339456, Note_off_c, 0, 74, 64
2, 339456, Note_on_c, 0, 76, 92
2, 339456, Note_on_c, 0, 72, 92
2, 339456, Note_on_c, 0, 67, 92
2, 339840, Note_off_c, 0, 67, 64
2, 339840, Note_off_c, 0, 72, 64
2, 339840, Note_off_c, 0, 76, 64
2, 339840, Note_on_c, 0, 67, 92
2, 339840, Note_on_c, 0, 71, 92
2, 339840, Note_on_c, 0, 74, 92
2, 339840, Note_on_c, 0, 77, 92
2, 340224, Note_off_c, 0, 77, 64
2, 340224, Note_off_c, 0, 74, 64
2, 340224, Note_off_c, 0, 71, 64
2, 340224, Note_off_c, 0, 67, 64
2, 340224, Note_on_c, 0, 67, 92
2, 340224, Note_on_c, 0, 71, 92
2, 340224, Note_on_c, 0, 74, 92
2, 340608, Note_off_c, 0, 74, 64
2, 340608, Note_off_c, 0, 71, 64
2, 340608, Note_off_c, 0, 67, 64
2, 340608, Note_on_c, 0, 76, 92
2, 340608, Note_on_c, 0, 72, 92
2, 340608, Note_on_c, 0, 67, 92
2, 340992, Note_off_c, 0, 67, 64
2, 340992, Note_off_c, 0, 72, 64
2, 340992, Note_off_c, 0, 76, 64
2, 341760, Note_on_c, 0, 60, 92
2, 341760, Note_on_c, 0, 64, 92
2, 342144, Note_off_c, 0, 64, 64
2, 342144, Note_off_c, 0, 60, 64
2, 342144, Note_on_c, 0, 59, 92
2, 342144, Note_on_c, 0, 62, 92
2, 342144, Note_on_c, 0, 65, 92
2, 342528, Note_off_c, 0, 65, 64
2, 342528, Note_off_c, 0, 62, 64
2, 342528, Note_off_c, 0, 59, 64
2, 342528, Note_on_c, 0, 59, 92
2, 342528, Note_on_c, 0, 62, 92
2, 342912, Note_off_c, 0, 62, 64
2, 342912, Note_off_c, 0, 59, 64
2, 342912, Note_on_c, 0, 64, 92
2, 342912, Note_on_c, 0, 60, 92
2, 343296, Note_off_c, 0, 60, 64
2, 343296, Note_off_c, 0, 64, 64
2, 344064, Note_on_c, 0, 76, 92
2, 344064, Note_on_c, 0, 72, 92
2, 344064, Note_on_c, 0, 67, 92
2, 344448, Note_off_c, 0, 67, 64
2, 344448, Note_off_c, 0, 72, 64
2, 344448, Note_off_c, 0, 76, 64
2, 344448, Note_on_c, 0, 77, 92
2, 344448, Note_on_c, 0, 74, 92
2, 344448, Note_on_c, 0, 71, 92
2, 344448, Note_on_c, 0, 67, 92
2, 344832, Note_off_c, 0, 67, 64
2, 344832, Note_off_c, 0, 71, 64
2, 344832, Note_off_c, 0, 74, 64
2, 344832, Note_off_c, 0, 77, 64
2, 344832, Note_on_c, 0, 74, 92
2, 344832, Note_on_c, 0, 71, 92
2, 344832, Note_on_c, 0, 67, 92
2, 345216, Note_off_c, 0, 67, 64
2, 345216, Note_off_c, 0, 71, 64
2, 345216, Note_off_c, 0, 74, 64
2, 345216, Note_on_c, 0, 76, 92
2, 345216, Note_on_c, 0, 72, 92
2, 345216, Note_on_c, 0, 67, 92
2, 345600, Note_off_c, 0, 67, 64
2, 345600, Note_off_c, 0, 72, 64
2, 345600, Note_off_c, 0, 76, 64
2, 346368, Note_on_c, 0, 64, 92
2, 346368, Note_on_c, 0, 60, 92
2, 346752, Note_off_c, 0, 60, 64
2, 346752, Note_off_c, 0, 64, 64
2, 346752, Note_on_c, 0, 65, 92
2, 346752, Note_on_c, 0, 62, 92
2, 346752, Note_on_c, 0, 59, 92
2, 347136, Note_off_c, 0, 59, 64
2, 347136, Note_off_c, 0, 62, 64
2, 347136, Note_off_c, 0, 65, 64
2, 347136, Note_on_c, 0, 62, 92
2, 347136, Note_on_c, 0, 59, 92
2, 347520, Note_off_c, 0, 59, 64
2, 347520, Note_off_c, 0, 62, 64
2, 347520, Note_on_c, 0, 64, 92
2, 347520, Note_on_c, 0, 60, 92
2, 347712, Note_off_c, 0, 60, 64
2, 347712, Note_off_c, 0, 64, 64
2, 347712, Note_on_c, 0, 60, 92
2, 347808, Note_off_c, 0, 60, 64
2, 347808, Note_on_c, 0, 62, 92
2, 347904, Note_off_c, 0, 62, 64
2, 347904, Note_on_c, 0, 64, 92
2, 347952, Note_off_c, 0, 64, 64
2, 347952, Note_on_c, 0, 62, 92
2, 348000, Note_off_c, 0, 62, 64
2, 348000, Note_on_c, 0, 64, 92
2, 348048, Note_off_c, 0, 64, 64
2, 348048, Note_on_c, 0, 62, 92
2, 348096, Note_off_c, 0, 62, 64
2, 348096, Note_on_c, 0, 64, 92
2, 348144, Note_off_c, 0, 64, 64
2, 348144, Note_on_c, 0, 62, 92
2, 348192, Note_off_c, 0, 62, 64
2, 348192, Note_on_c, 0, 64, 92
2, 348240, Note_off_c, 0, 64, 64
2, 348240, Note_on_c, 0, 62, 92
2, 348288, Note_off_c, 0, 62, 64
2, 348288, Note_on_c, 0, 64, 92
2, 348336, Note_off_c, 0, 64, 64
2, 348336, Note_on_c, 0, 62, 92
2, 348384, Note_off_c, 0, 62, 64
2, 348384, Note_on_c, 0, 64, 92
2, 348432, Note_off_c, 0, 64, 64
2, 348432, Note_on_c, 0, 62, 92
2, 348480, Note_off_c, 0, 62, 64
2, 348480, Note_on_c, 0, 60, 92
2, 348576, Note_off_c, 0, 60, 64
2, 348576, Note_on_c, 0, 62, 92
2, 348672, Note_off_c, 0, 62, 64
2, 348672, Note_on_c, 0, 64, 92
2, 348864, Note_off_c, 0, 64, 64
2, 348864, Note_on_c, 0, 60, 92
2, 349056, Note_off_c, 0, 60, 64
2, 349056, Note_on_c, 0, 59, 92
2, 349248, Note_off_c, 0, 59, 64
2, 349248, Note_on_c, 0, 60, 92
2, 349440, Note_off_c, 0, 60, 64
2, 349440, Note_on_c, 0, 57, 92
2, 349632, Note_off_c, 0, 57, 64
2, 349632, Note_on_c, 0, 60, 92
2, 349824, Note_off_c, 0, 60, 64
2, 349824, Note_on_c, 0, 55, 92
2, 350016, Note_off_c, 0, 55, 64
2, 350016, Note_on_c, 0, 60, 92
2, 350112, Note_off_c, 0, 60, 64
2, 350112, Note_on_c, 0, 62, 92
2, 350208, Note_off_c, 0, 62, 64
2, 350208, Note_on_c, 0, 64, 92
2, 350256, Note_off_c, 0, 64, 64
2, 350256, Note_on_c, 0, 62, 92
2, 350304, Note_off_c, 0, 62, 64
2, 350304, Note_on_c, 0, 64, 92
2, 350352, Note_off_c, 0, 64, 64
2, 350352, Note_on_c, 0, 62, 92
2, 350400, Note_off_c, 0, 62, 64
2, 350400, Note_on_c, 0, 64, 92
2, 350448, Note_off_c, 0, 64, 64
2, 350448, Note_on_c, 0, 62, 92
2, 350496, Note_off_c, 0, 62, 64
2, 350496, Note_on_c, 0, 64, 92
2, 350544, Note_off_c, 0, 64, 64
2, 350544, Note_on_c, 0, 62, 92
2, 350592, Note_off_c, 0, 62, 64
2, 350592, Note_on_c, 0, 64, 92
2, 350640, Note_off_c, 0, 64, 64
2, 350640, Note_on_c, 0, 62, 92
2, 350688, Note_off_c, 0, 62, 64
2, 350688, Note_on_c, 0, 64, 92
2, 350736, Note_off_c, 0, 64, 64
2, 350736, Note_on_c, 0, 62, 92
2, 350784, Note_off_c, 0, 62, 64
2, 350784, Note_on_c, 0, 60, 92
2, 350880, Note_off_c, 0, 60, 64
2, 350880, Note_on_c, 0, 62, 92
2, 350976, Note_off_c, 0, 62, 64
2, 350976, Note_on_c, 0, 64, 92
2, 351168, Note_off_c, 0, 64, 64
2, 351168, Note_on_c, 0, 60, 92
2, 351360, Note_off_c, 0, 60, 64
2, 351360, Note_on_c, 0, 59, 92
2, 351552, Note_off_c, 0, 59, 64
2, 351552, Note_on_c, 0, 60, 92
2, 351744, Note_off_c, 0, 60, 64
2, 351744, Note_on_c, 0, 57, 92
2, 351936, Note_off_c, 0, 57, 64
2, 351936, Note_on_c, 0, 60, 92
2, 352128, Note_off_c, 0, 60, 64
2, 352128, Note_on_c, 0, 55, 92
2, 352320, Note_off_c, 0, 55, 64
2, 352320, Note_on_c, 0, 60, 92
2, 352416, Note_off_c, 0, 60, 64
2, 352416, Note_on_c, 0, 62, 92
2, 352512, Note_off_c, 0, 62, 64
2, 352512, Note_on_c, 0, 64, 92
2, 352560, Note_off_c, 0, 64, 64
2, 352560, Note_on_c, 0, 62, 92
2, 352608, Note_off_c, 0, 62, 64
2, 352608, Note_on_c, 0, 64, 92
2, 352656, Note_off_c, 0, 64, 64
2, 352656, Note_on_c, 0, 62, 92
2, 352704, Note_off_c, 0, 62, 64
2, 352704, Note_on_c, 0, 64, 92
2, 352752, Note_off_c, 0, 64, 64
2, 352752, Note_on_c, 0, 62, 92
2, 352800, Note_off_c, 0, 62, 64
2, 352800, Note_on_c, 0, 64, 92
2, 352848, Note_off_c, 0, 64, 64
2, 352848, Note_on_c, 0, 62, 92
2, 352896, Note_off_c, 0, 62, 64
2, 352896, Note_on_c, 0, 64, 92
2, 352944, Note_off_c, 0, 64, 64
2, 352944, Note_on_c, 0, 62, 92
2, 352992, Note_off_c, 0, 62, 64
2, 352992, Note_on_c, 0, 64, 92
2, 353040, Note_off_c, 0, 64, 64
2, 353040, Note_on_c, 0, 62, 92
2, 353088, Note_off_c, 0, 62, 64
2, 353088, Note_on_c, 0, 60, 92
2, 353184, Note_off_c, 0, 60, 64
2, 353184, Note_on_c, 0, 62, 92
2, 353280, Note_off_c, 0, 62, 64
2, 353280, Note_on_c, 0, 64, 92
2, 353568, Note_off_c, 0, 64, 64
2, 353568, Note_on_c, 0, 62, 92
2, 353664, Note_off_c, 0, 62, 64
2, 353664, Note_on_c, 0, 60, 92
2, 353952, Note_off_c, 0, 60, 64
2, 353952, Note_on_c, 0, 62, 92
2, 354048, Note_off_c, 0, 62, 64
2, 354048, Note_on_c, 0, 64, 92
2, 354336, Note_off_c, 0, 64, 64
2, 354336, Note_on_c, 0, 65, 92
2, 354432, Note_off_c, 0, 65, 64
2, 354432, Note_on_c, 0, 67, 92
2, 354816, Note_off_c, 0, 67, 64
2, 354816, Note_on_c, 0, 65, 92
2, 354912, Note_off_c, 0, 65, 64
2, 354912, Note_on_c, 0, 67, 92
2, 355008, Note_off_c, 0, 67, 64
2, 355008, Note_on_c, 0, 69, 92
2, 355104, Note_off_c, 0, 69, 64
2, 355104, Note_on_c, 0, 70, 92
2, 355200, Note_off_c, 0, 70, 64
2, 355200, Note_on_c, 0, 70, 92
2, 355296, Note_off_c, 0, 70, 64
2, 355296, Note_on_c, 0, 69, 92
2, 355392, Note_off_c, 0, 69, 64
2, 355392, Note_on_c, 0, 67, 92
2, 355488, Note_off_c, 0, 67, 64
2, 355488, Note_on_c, 0, 65, 92
2, 355536, Note_off_c, 0, 65, 64
2, 355536, Note_on_c, 0, 64, 92
2, 355584, Note_off_c, 0, 64, 64
2, 355584, Note_on_c, 0, 65, 92
2, 355776, Note_off_c, 0, 65, 64
2, 355776, Note_on_c, 0, 65, 92
2, 355824, Note_off_c, 0, 65, 64
2, 355824, Note_on_c, 0, 64, 92
2, 355872, Note_off_c, 0, 64, 64
2, 355872, Note_on_c, 0, 65, 92
2, 355920, Note_off_c, 0, 65, 64
2, 355920, Note_on_c, 0, 64, 92
2, 355968, Note_off_c, 0, 64, 64
2, 355968, Note_on_c, 0, 65, 92
2, 356016, Note_off_c, 0, 65, 64
2, 356016, Note_on_c, 0, 64, 92
2, 356064, Note_off_c, 0, 64, 64
2, 356064, Note_on_c, 0, 65, 92
2, 356112, Note_off_c, 0, 65, 64
2, 356112, Note_on_c, 0, 64, 92
2, 356160, Note_off_c, 0, 64, 64
2, 356160, Note_on_c, 0, 65, 92
2, 356208, Note_off_c, 0, 65, 64
2, 356208, Note_on_c, 0, 64, 92
2, 356256, Note_off_c, 0, 64, 64
2, 356256, Note_on_c, 0, 65, 92
2, 356304, Note_off_c, 0, 65, 64
2, 356304, Note_on_c, 0, 64, 92
2, 356352, Note_off_c, 0, 64, 64
2, 356352, Note_on_c, 0, 62, 92
2, 356736, Note_off_c, 0, 62, 64
2, 356736, Note_on_c, 0, 67, 92
2, 356928, Note_off_c, 0, 67, 64
2, 356928, Note_on_c, 0, 69, 92
2, 357024, Note_off_c, 0, 69, 64
2, 357024, Note_on_c, 0, 71, 92
2, 357120, Note_off_c, 0, 71, 64
2, 357120, Note_on_c, 0, 72, 92
2, 357168, Note_off_c, 0, 72, 64
2, 357168, Note_on_c, 0, 71, 92
2, 357216, Note_off_c, 0, 71, 64
2, 357216, Note_on_c, 0, 72, 92
2, 357264, Note_off_c, 0, 72, 64
2, 357264, Note_on_c, 0, 71, 92
2, 357312, Note_off_c, 0, 71, 64
2, 357312, Note_on_c, 0, 72, 92
2, 357360, Note_off_c, 0, 72, 64
2, 357360, Note_on_c, 0, 71, 92
2, 357408, Note_off_c, 0, 71, 64
2, 357408, Note_on_c, 0, 72, 92
2, 357456, Note_off_c, 0, 72, 64
2, 357456, Note_on_c, 0, 71, 92
2, 357504, Note_off_c, 0, 71, 64
2, 357504, Note_on_c, 0, 72, 92
2, 357552, Note_off_c, 0, 72, 64
2, 357552, Note_on_c, 0, 71, 92
2, 357600, Note_off_c, 0, 71, 64
2, 357600, Note_on_c, 0, 72, 92
2, 357648, Note_off_c, 0, 72, 64
2, 357648, Note_on_c, 0, 71, 92
2, 357696, Note_off_c, 0, 71, 64
2, 357696, Note_on_c, 0, 69, 92
2, 357792, Note_off_c, 0, 69, 64
2, 357792, Note_on_c, 0, 71, 92
2, 357888, Note_off_c, 0, 71, 64
2, 357888, Note_on_c, 0, 72, 92
2, 358080, Note_off_c, 0, 72, 64
2, 358080, Note_on_c, 0, 67, 92
2, 358272, Note_off_c, 0, 67, 64
2, 358272, Note_on_c, 0, 64, 92
2, 358464, Note_off_c, 0, 64, 64
2, 358464, Note_on_c, 0, 67, 92
2, 358656, Note_off_c, 0, 67, 64
2, 358656, Note_on_c, 0, 62, 92
2, 358848, Note_off_c, 0, 62, 64
2, 358848, Note_on_c, 0, 67, 92
2, 359040, Note_off_c, 0, 67, 64
2, 359040, Note_on_c, 0, 60, 92
2, 359136, Note_off_c, 0, 60, 64
2, 359136, Note_on_c, 0, 67, 92
2, 359232, Note_off_c, 0, 67, 64
2, 359232, Note_on_c, 0, 69, 92
2, 359328, Note_off_c, 0, 69, 64
2, 359328, Note_on_c, 0, 71, 92
2, 359424, Note_off_c, 0, 71, 64
2, 359424, Note_on_c, 0, 72, 92
2, 359472, Note_off_c, 0, 72, 64
2, 359472, Note_on_c, 0, 71, 92
2, 359520, Note_off_c, 0, 71, 64
2, 359520, Note_on_c, 0, 72, 92
2, 359568, Note_off_c, 0, 72, 64
2, 359568, Note_on_c, 0, 71, 92
2, 359616, Note_off_c, 0, 71, 64
2, 359616, Note_on_c, 0, 72, 92
2, 359664, Note_off_c, 0, 72, 64
2, 359664, Note_on_c, 0, 71, 92
2, 359712, Note_off_c, 0, 71, 64
2, 359712, Note_on_c, 0, 72, 92
2, 359760, Note_off_c, 0, 72, 64
2, 359760, Note_on_c, 0, 71, 92
2, 359808, Note_off_c, 0, 71, 64
2, 359808, Note_on_c, 0, 72, 92
2, 359856, Note_off_c, 0, 72, 64
2, 359856, Note_on_c, 0, 71, 92
2, 359904, Note_off_c, 0, 71, 64
2, 359904, Note_on_c, 0, 72, 92
2, 359952, Note_off_c, 0, 72, 64
2, 359952, Note_on_c, 0, 71, 92
2, 360000, Note_off_c, 0, 71, 64
2, 360000, Note_on_c, 0, 69, 92
2, 360096, Note_off_c, 0, 69, 64
2, 360096, Note_on_c, 0, 71, 92
2, 360192, Note_off_c, 0, 71, 64
2, 360192, Note_on_c, 0, 72, 92
2, 360384, Note_off_c, 0, 72, 64
2, 360384, Note_on_c, 0, 67, 92
2, 360576, Note_off_c, 0, 67, 64
2, 360576, Note_on_c, 0, 64, 92
2, 360768, Note_off_c, 0, 64, 64
2, 360768, Note_on_c, 0, 67, 92
2, 360960, Note_off_c, 0, 67, 64
2, 360960, Note_on_c, 0, 62, 92
2, 361152, Note_off_c, 0, 62, 64
2, 361152, Note_on_c, 0, 67, 92
2, 361344, Note_off_c, 0, 67, 64
2, 361344, Note_on_c, 0, 60, 92
2, 361536, Note_off_c, 0, 60, 64
2, 361536, Note_on_c, 0, 67, 92
2, 361632, Note_off_c, 0, 67, 64
2, 361632, Note_on_c, 0, 69, 92
2, 361728, Note_off_c, 0, 69, 64
2, 361728, Note_on_c, 0, 70, 92
2, 361776, Note_off_c, 0, 70, 64
2, 361776, Note_on_c, 0, 69, 92
2, 361824, Note_off_c, 0, 69, 64
2, 361824, Note_on_c, 0, 70, 92
2, 361872, Note_off_c, 0, 70, 64
2, 361872, Note_on_c, 0, 69, 92
2, 361920, Note_off_c, 0, 69, 64
2, 361920, Note_on_c, 0, 70, 92
2, 361968, Note_off_c, 0, 70, 64
2, 361968, Note_on_c, 0, 69, 92
2, 362016, Note_off_c, 0, 69, 64
2, 362016, Note_on_c, 0, 70, 92
2, 362064, Note_off_c, 0, 70, 64
2, 362064, Note_on_c, 0, 69, 92
2, 362112, Note_off_c, 0, 69, 64
2, 362112, Note_on_c, 0, 70, 92
2, 362160, Note_off_c, 0, 70, 64
2, 362160, Note_on_c, 0, 69, 92
2, 362208, Note_off_c, 0, 69, 64
2, 362208, Note_on_c, 0, 70, 92
2, 362256, Note_off_c, 0, 70, 64
2, 362256, Note_on_c, 0, 69, 92
2, 362304, Note_off_c, 0, 69, 64
2, 362304, Note_on_c, 0, 67, 92
2, 362400, Note_off_c, 0, 67, 64
2, 362400, Note_on_c, 0, 69, 92
2, 362496, Note_off_c, 0, 69, 64
2, 362496, Note_on_c, 0, 70, 92
2, 362688, Note_off_c, 0, 70, 64
2, 362688, Note_on_c, 0, 67, 92
2, 362880, Note_off_c, 0, 67, 64
2, 362880, Note_on_c, 0, 64, 92
2, 363072, Note_off_c, 0, 64, 64
2, 363072, Note_on_c, 0, 67, 92
2, 363264, Note_off_c, 0, 67, 64
2, 363264, Note_on_c, 0, 62, 92
2, 363456, Note_off_c, 0, 62, 64
2, 363456, Note_on_c, 0, 67, 92
2, 363648, Note_off_c, 0, 67, 64
2, 363648, Note_on_c, 0, 60, 92
2, 363840, Note_off_c, 0, 60, 64
2, 363840, Note_on_c, 0, 67, 92
2, 364032, Note_off_c, 0, 67, 64
2, 364032, Note_on_c, 0, 72, 92
2, 364512, Note_off_c, 0, 72, 64
2, 364512, Note_on_c, 0, 70, 92
2, 364608, Note_off_c, 0, 70, 64
2, 364608, Note_on_c, 0, 69, 92
2, 364704, Note_off_c, 0, 69, 64
2, 364704, Note_on_c, 0, 70, 92
2, 364800, Note_off_c, 0, 70, 64
2, 364800, Note_on_c, 0, 70, 92
2, 364992, Note_off_c, 0, 70, 64
2, 364992, Note_on_c, 0, 69, 92
2, 365952, Note_off_c, 0, 69, 64
2, 365952, Note_on_c, 0, 69, 92
2, 366144, Note_off_c, 0, 69, 64
2, 366144, Note_on_c, 0, 71, 92
2, 366240, Note_off_c, 0, 71, 64
2, 366240, Note_on_c, 0, 73, 92
2, 366336, Note_off_c, 0, 73, 64
2, 366336, Note_on_c, 0, 74, 92
2, 366384, Note_off_c, 0, 74, 64
2, 366384, Note_on_c, 0, 73, 92
2, 366432, Note_off_c, 0, 73, 64
2, 366432, Note_on_c, 0, 74, 92
2, 366480, Note_off_c, 0, 74, 64
2, 366480, Note_on_c, 0, 73, 92
2, 366528, Note_off_c, 0, 73, 64
2, 366528, Note_on_c, 0, 74, 92
2, 366576, Note_off_c, 0, 74, 64
2, 366576, Note_on_c, 0, 73, 92
2, 366624, Note_off_c, 0, 73, 64
2, 366624, Note_on_c, 0, 74, 92
2, 366672, Note_off_c, 0, 74, 64
2, 366672, Note_on_c, 0, 73, 92
2, 366720, Note_off_c, 0, 73, 64
2, 366720, Note_on_c, 0, 74, 92
2, 366768, Note_off_c, 0, 74, 64
2, 366768, Note_on_c, 0, 73, 92
2, 366816, Note_off_c, 0, 73, 64
2, 366816, Note_on_c, 0, 74, 92
2, 366864, Note_off_c, 0, 74, 64
2, 366864, Note_on_c, 0, 73, 92
2, 366912, Note_off_c, 0, 73, 64
2, 366912, Note_on_c, 0, 71, 92
2, 367008, Note_off_c, 0, 71, 64
2, 367008, Note_on_c, 0, 73, 92
2, 367104, Note_off_c, 0, 73, 64
2, 367104, Note_on_c, 0, 74, 92
2, 367296, Note_off_c, 0, 74, 64
2, 367296, Note_on_c, 0, 69, 92
2, 367488, Note_off_c, 0, 69, 64
2, 367488, Note_on_c, 0, 66, 92
2, 367680, Note_off_c, 0, 66, 64
2, 367680, Note_on_c, 0, 69, 92
2, 367872, Note_off_c, 0, 69, 64
2, 367872, Note_on_c, 0, 64, 92
2, 368064, Note_off_c, 0, 64, 64
2, 368064, Note_on_c, 0, 69, 92
2, 368256, Note_off_c, 0, 69, 64
2, 368256, Note_on_c, 0, 62, 92
2, 368352, Note_off_c, 0, 62, 64
2, 368352, Note_on_c, 0, 69, 92
2, 368448, Note_off_c, 0, 69, 64
2, 368448, Note_on_c, 0, 71, 92
2, 368544, Note_off_c, 0, 71, 64
2, 368544, Note_on_c, 0, 73, 92
2, 368640, Note_off_c, 0, 73, 64
2, 368640, Note_on_c, 0, 74, 92
2, 368688, Note_off_c, 0, 74, 64
2, 368688, Note_on_c, 0, 73, 92
2, 368736, Note_off_c, 0, 73, 64
2, 368736, Note_on_c, 0, 74, 92
2, 368784, Note_off_c, 0, 74, 64
2, 368784, Note_on_c, 0, 73, 92
2, 368832, Note_off_c, 0, 73, 64
2, 368832, Note_on_c, 0, 74, 92
2, 368880, Note_off_c, 0, 74, 64
2, 368880, Note_on_c, 0, 73, 92
2, 368928, Note_off_c, 0, 73, 64
2, 368928, Note_on_c, 0, 74, 92
2, 368976, Note_off_c, 0, 74, 64
2, 368976, Note_on_c, 0, 73, 92
2, 369024, Note_off_c, 0, 73, 64
2, 369024, Note_on_c, 0, 74, 92
2, 369072, Note_off_c, 0, 74, 64
2, 369072, Note_on_c, 0, 73, 92
2, 369120, Note_off_c, 0, 73, 64
2, 369120, Note_on_c, 0, 74, 92
2, 369168, Note_off_c, 0, 74, 64
2, 369168, Note_on_c, 0, 73, 92
2, 369216, Note_off_c, 0, 73, 64
2, 369216, Note_on_c, 0, 71, 92
2, 369312, Note_off_c, 0, 71, 64
2, 369312, Note_on_c, 0, 73, 92
2, 369408, Note_off_c, 0, 73, 64
2, 369408, Note_on_c, 0, 74, 92
2, 369600, Note_off_c, 0, 74, 64
2, 369600, Note_on_c, 0, 69, 92
2, 369792, Note_off_c, 0, 69, 64
2, 369792, Note_on_c, 0, 66, 92
2, 369984, Note_off_c, 0, 66, 64
2, 369984, Note_on_c, 0, 69, 92
2, 370176, Note_off_c, 0, 69, 64
2, 370176, Note_on_c, 0, 64, 92
2, 370368, Note_off_c, 0, 64, 64
2, 370368, Note_on_c, 0, 69, 92
2, 370560, Note_off_c, 0, 69, 64
2, 370560, Note_on_c, 0, 62, 92
2, 370752, Note_off_c, 0, 62, 64
2, 370752, Note_on_c, 0, 69, 92
2, 370848, Note_off_c, 0, 69, 64
2, 370848, Note_on_c, 0, 71, 92
2, 370944, Note_off_c, 0, 71, 64
2, 370944, Note_on_c, 0, 72, 92
2, 370992, Note_off_c, 0, 72, 64
2, 370992, Note_on_c, 0, 71, 92
2, 371040, Note_off_c, 0, 71, 64
2, 371040, Note_on_c, 0, 72, 92
2, 371088, Note_off_c, 0, 72, 64
2, 371088, Note_on_c, 0, 71, 92
2, 371136, Note_off_c, 0, 71, 64
2, 371136, Note_on_c, 0, 72, 92
2, 371184, Note_off_c, 0, 72, 64
2, 371184, Note_on_c, 0, 71, 92
2, 371232, Note_off_c, 0, 71, 64
2, 371232, Note_on_c, 0, 72, 92
2, 371280, Note_off_c, 0, 72, 64
2, 371280, Note_on_c, 0, 71, 92
2, 371328, Note_off_c, 0, 71, 64
2, 371328, Note_on_c, 0, 72, 92
2, 371376, Note_off_c, 0, 72, 64
2, 371376, Note_on_c, 0, 71, 92
2, 371424, Note_off_c, 0, 71, 64
2, 371424, Note_on_c, 0, 72, 92
2, 371472, Note_off_c, 0, 72, 64
2, 371472, Note_on_c, 0, 71, 92
2, 371520, Note_off_c, 0, 71, 64
2, 371520, Note_on_c, 0, 69, 92
2, 371616, Note_off_c, 0, 69, 64
2, 371616, Note_on_c, 0, 71, 92
2, 371712, Note_off_c, 0, 71, 64
2, 371712, Note_on_c, 0, 72, 92
2, 371904, Note_off_c, 0, 72, 64
2, 371904, Note_on_c, 0, 69, 92
2, 372096, Note_off_c, 0, 69, 64
2, 372096, Note_on_c, 0, 66, 92
2, 372288, Note_off_c, 0, 66, 64
2, 372288, Note_on_c, 0, 69, 92
2, 372480, Note_off_c, 0, 69, 64
2, 372480, Note_on_c, 0, 64, 92
2, 372672, Note_off_c, 0, 64, 64
2, 372672, Note_on_c, 0, 69, 92
2, 372864, Note_off_c, 0, 69, 64
2, 372864, Note_on_c, 0, 62, 92
2, 373056, Note_off_c, 0, 62, 64
2, 373056, Note_on_c, 0, 69, 92
2, 373248, Note_off_c, 0, 69, 64
2, 373248, Note_on_c, 0, 74, 92
2, 373728, Note_off_c, 0, 74, 64
2, 373728, Note_on_c, 0, 72, 92
2, 373824, Note_off_c, 0, 72, 64
2, 373824, Note_on_c, 0, 71, 92
2, 373920, Note_off_c, 0, 71, 64
2, 373920, Note_on_c, 0, 72, 92
2, 374016, Note_off_c, 0, 72, 64
2, 374016, Note_on_c, 0, 72, 92
2, 374208, Note_off_c, 0, 72, 64
2, 374208, Note_on_c, 0, 71, 92
2, 374880, Note_off_c, 0, 71, 64
2, 374880, Note_on_c, 0, 67, 92
2, 374976, Note_off_c, 0, 67, 64
2, 374976, Note_on_c, 0, 69, 92
2, 375072, Note_off_c, 0, 69, 64
2, 375072, Note_on_c, 0, 71, 92
2, 375168, Note_off_c, 0, 71, 64
2, 375168, Note_on_c, 0, 72, 92
2, 375264, Note_off_c, 0, 72, 64
2, 375264, Note_on_c, 0, 71, 92
2, 375360, Note_off_c, 0, 71, 64
2, 375360, Note_on_c, 0, 69, 92
2, 375456, Note_off_c, 0, 69, 64
2, 375456, Note_on_c, 0, 67, 92
2, 375552, Note_off_c, 0, 67, 64
2, 375552, Note_on_c, 0, 72, 92
2, 375648, Note_off_c, 0, 72, 64
2, 375648, Note_on_c, 0, 71, 92
2, 375744, Note_off_c, 0, 71, 64
2, 375744, Note_on_c, 0, 69, 92
2, 375840, Note_off_c, 0, 69, 64
2, 375840, Note_on_c, 0, 67, 92
2, 375936, Note_off_c, 0, 67, 64
2, 375936, Note_on_c, 0, 72, 92
2, 376032, Note_off_c, 0, 72, 64
2, 376032, Note_on_c, 0, 71, 92
2, 376128, Note_off_c, 0, 71, 64
2, 376128, Note_on_c, 0, 69, 92
2, 376224, Note_off_c, 0, 69, 64
2, 376224, Note_on_c, 0, 67, 92
2, 376320, Note_off_c, 0, 67, 64
2, 376320, Note_on_c, 0, 69, 92
2, 376416, Note_off_c, 0, 69, 64
2, 376416, Note_on_c, 0, 67, 92
2, 376512, Note_off_c, 0, 67, 64
2, 376512, Note_on_c, 0, 65, 92
2, 376608, Note_off_c, 0, 65, 64
2, 376608, Note_on_c, 0, 64, 92
2, 376704, Note_off_c, 0, 64, 64
2, 376704, Note_on_c, 0, 69, 92
2, 376800, Note_off_c, 0, 69, 64
2, 376800, Note_on_c, 0, 67, 92
2, 376896, Note_off_c, 0, 67, 64
2, 376896, Note_on_c, 0, 65, 92
2, 376992, Note_off_c, 0, 65, 64
2, 376992, Note_on_c, 0, 64, 92
2, 377088, Note_off_c, 0, 64, 64
2, 377088, Note_on_c, 0, 69, 92
2, 377184, Note_off_c, 0, 69, 64
2, 377184, Note_on_c, 0, 67, 92
2, 377280, Note_off_c, 0, 67, 64
2, 377280, Note_on_c, 0, 65, 92
2, 377376, Note_off_c, 0, 65, 64
2, 377376, Note_on_c, 0, 64, 92
2, 377472, Note_off_c, 0, 64, 64
2, 377472, Note_on_c, 0, 65, 92
2, 377568, Note_off_c, 0, 65, 64
2, 377568, Note_on_c, 0, 64, 92
2, 377664, Note_off_c, 0, 64, 64
2, 377664, Note_on_c, 0, 62, 92
2, 377760, Note_off_c, 0, 62, 64
2, 377760, Note_on_c, 0, 60, 92
2, 377856, Note_off_c, 0, 60, 64
2, 377856, Note_on_c, 0, 65, 92
2, 377952, Note_off_c, 0, 65, 64
2, 377952, Note_on_c, 0, 64, 92
2, 378048, Note_off_c, 0, 64, 64
2, 378048, Note_on_c, 0, 62, 92
2, 378144, Note_off_c, 0, 62, 64
2, 378144, Note_on_c, 0, 60, 92
2, 378240, Note_off_c, 0, 60, 64
2, 378240, Note_on_c, 0, 62, 92
2, 378336, Note_off_c, 0, 62, 64
2, 378336, Note_on_c, 0, 60, 92
2, 378432, Note_off_c, 0, 60, 64
2, 378432, Note_on_c, 0, 59, 92
2, 378528, Note_off_c, 0, 59, 64
2, 378528, Note_on_c, 0, 57, 92
2, 378624, Note_off_c, 0, 57, 64
2, 378624, Note_on_c, 0, 57, 92
2, 378672, Note_off_c, 0, 57, 64
2, 378672, Note_on_c, 0, 55, 92
2, 378720, Note_off_c, 0, 55, 64
2, 378720, Note_on_c, 0, 57, 92
2, 378768, Note_off_c, 0, 57, 64
2, 378768, Note_on_c, 0, 55, 92
2, 378816, Note_off_c, 0, 55, 64
2, 378816, Note_on_c, 0, 57, 92
2, 378864, Note_off_c, 0, 57, 64
2, 378864, Note_on_c, 0, 55, 92
2, 378912, Note_off_c, 0, 55, 64
2, 378912, Note_on_c, 0, 57, 92
2, 378960, Note_off_c, 0, 57, 64
2, 378960, Note_on_c, 0, 55, 92
2, 379008, Note_off_c, 0, 55, 64
2, 379008, Note_on_c, 0, 57, 92
2, 379056, Note_off_c, 0, 57, 64
2, 379056, Note_on_c, 0, 55, 92
2, 379104, Note_off_c, 0, 55, 64
2, 379104, Note_on_c, 0, 57, 92
2, 379152, Note_off_c, 0, 57, 64
2, 379152, Note_on_c, 0, 55, 92
2, 379200, Note_off_c, 0, 55, 64
2, 379200, Note_on_c, 0, 57, 92
2, 379248, Note_off_c, 0, 57, 64
2, 379248, Note_on_c, 0, 55, 92
2, 379296, Note_off_c, 0, 55, 64
2, 379296, Note_on_c, 0, 57, 92
2, 379344, Note_off_c, 0, 57, 64
2, 379344, Note_on_c, 0, 55, 92
2, 379392, Note_off_c, 0, 55, 64
2, 379392, Note_on_c, 0, 57, 92
2, 379440, Note_off_c, 0, 57, 64
2, 379440, Note_on_c, 0, 55, 92
2, 379488, Note_off_c, 0, 55, 64
2, 379488, Note_on_c, 0, 57, 92
2, 379536, Note_off_c, 0, 57, 64
2, 379536, Note_on_c, 0, 55, 92
2, 379584, Note_off_c, 0, 55, 64
2, 379584, Note_on_c, 0, 57, 92
2, 379632, Note_off_c, 0, 57, 64
2, 379632, Note_on_c, 0, 55, 92
2, 379680, Note_off_c, 0, 55, 64
2, 379680, Note_on_c, 0, 57, 92
2, 379728, Note_off_c, 0, 57, 64
2, 379728, Note_on_c, 0, 55, 92
2, 379776, Note_off_c, 0, 55, 64
2, 379776, Note_on_c, 0, 72, 92
2, 380160, Note_off_c, 0, 72, 64
2, 380160, Note_on_c, 0, 72, 92
2, 380208, Note_off_c, 0, 72, 64
2, 380208, Note_on_c, 0, 70, 92
2, 380256, Note_off_c, 0, 70, 64
2, 380256, Note_on_c, 0, 72, 92
2, 380304, Note_off_c, 0, 72, 64
2, 380304, Note_on_c, 0, 70, 92
2, 380352, Note_off_c, 0, 70, 64
2, 380352, Note_on_c, 0, 72, 92
2, 380400, Note_off_c, 0, 72, 64
2, 380400, Note_on_c, 0, 70, 92
2, 380448, Note_off_c, 0, 70, 64
2, 380448, Note_on_c, 0, 72, 92
2, 380496, Note_off_c, 0, 72, 64
2, 380496, Note_on_c, 0, 70, 92
2, 380544, Note_off_c, 0, 70, 64
2, 380544, Note_on_c, 0, 69, 92
2, 380928, Note_off_c, 0, 69, 64
2, 380928, Note_on_c, 0, 70, 92
2, 381312, Note_off_c, 0, 70, 64
2, 381312, Note_on_c, 0, 70, 92
2, 381360, Note_off_c, 0, 70, 64
2, 381360, Note_on_c, 0, 69, 92
2, 381408, Note_off_c, 0, 69, 64
2, 381408, Note_on_c, 0, 70, 92
2, 381456, Note_off_c, 0, 70, 64
2, 381456, Note_on_c, 0, 69, 92
2, 381504, Note_off_c, 0, 69, 64
2, 381504, Note_on_c, 0, 70, 92
2, 381552, Note_off_c, 0, 70, 64
2, 381552, Note_on_c, 0, 69, 92
2, 381600, Note_off_c, 0, 69, 64
2, 381600, Note_on_c, 0, 70, 92
2, 381648, Note_off_c, 0, 70, 64
2, 381648, Note_on_c, 0, 69, 92
2, 381696, Note_off_c, 0, 69, 64
2, 381696, Note_on_c, 0, 67, 92
2, 382080, Note_off_c, 0, 67, 64
2, 382080, Note_on_c, 0, 69, 92
2, 382656, Note_off_c, 0, 69, 64
2, 382656, Note_on_c, 0, 71, 92
2, 382848, Note_off_c, 0, 71, 64
2, 382848, Note_on_c, 0, 72, 92
2, 383136, Note_off_c, 0, 72, 64
2, 383136, Note_on_c, 0, 71, 92
2, 383232, Note_off_c, 0, 71, 64
2, 383232, Note_on_c, 0, 72, 92
2, 383520, Note_off_c, 0, 72, 64
2, 383520, Note_on_c, 0, 60, 92
2, 383616, Note_off_c, 0, 60, 64
2, 383616, Note_on_c, 0, 60, 92
2, 383664, Note_off_c, 0, 60, 64
2, 383664, Note_on_c, 0, 62, 92
2, 383712, Note_off_c, 0, 62, 64
2, 383712, Note_on_c, 0, 64, 92
2, 383808, Note_off_c, 0, 64, 64
2, 383808, Note_on_c, 0, 64, 92
2, 383856, Note_off_c, 0, 64, 64
2, 383856, Note_on_c, 0, 62, 92
2, 383904, Note_off_c, 0, 62, 64
2, 383904, Note_on_c, 0, 64, 92
2, 383952, Note_off_c, 0, 64, 64
2, 383952, Note_on_c, 0, 62, 92
2, 384000, Note_off_c, 0, 62, 64
2, 384000, Note_on_c, 0, 64, 92
2, 384048, Note_off_c, 0, 64, 64
2, 384048, Note_on_c, 0, 62, 92
2, 384096, Note_off_c, 0, 62, 64
2, 384096, Note_on_c, 0, 64, 92
2, 384144, Note_off_c, 0, 64, 64
2, 384144, Note_on_c, 0, 62, 92
2, 384192, Note_off_c, 0, 62, 64
2, 384192, Note_on_c, 0, 64, 92
2, 384240, Note_off_c, 0, 64, 64
2, 384240, Note_on_c, 0, 62, 92
2, 384288, Note_off_c, 0, 62, 64
2, 384288, Note_on_c, 0, 64, 92
2, 384336, Note_off_c, 0, 64, 64
2, 384336, Note_on_c, 0, 62, 92
2, 384384, Note_off_c, 0, 62, 64
2, 384384, Note_on_c, 0, 72, 92
2, 384576, Note_off_c, 0, 72, 64
2, 384576, Note_on_c, 0, 72, 92
2, 384768, Note_off_c, 0, 72, 64
2, 384768, Note_on_c, 0, 67, 92
2, 384960, Note_off_c, 0, 67, 64
2, 384960, Note_on_c, 0, 67, 92
2, 385152, Note_off_c, 0, 67, 64
2, 385152, Note_on_c, 0, 64, 92
2, 385344, Note_off_c, 0, 64, 64
2, 385344, Note_on_c, 0, 64, 92
2, 385536, Note_off_c, 0, 64, 64
2, 385536, Note_on_c, 0, 60, 92
2, 385920, Note_off_c, 0, 60, 64
2, 385920, Note_on_c, 0, 64, 92
2, 385920, Note_on_c, 0, 60, 92
2, 386304, Note_off_c, 0, 60, 64
2, 386304, Note_off_c, 0, 64, 64
2, 386304, Note_on_c, 0, 64, 92
2, 386304, Note_on_c, 0, 60, 92
2, 386304, Note_on_c, 0, 67, 92
2, 386688, Note_off_c, 0, 67, 64
2, 386688, Note_off_c, 0, 60, 64
2, 386688, Note_off_c, 0, 64, 64
2, 386688, Note_on_c, 0, 72, 92
2, 386688, Note_on_c, 0, 67, 92
2, 386688, Note_on_c, 0, 64, 92
2, 386880, Note_off_c, 0, 64, 64
2, 386880, Note_off_c, 0, 67, 64
2, 386880, Note_off_c, 0, 72, 64
2, 386880, Note_on_c, 0, 72, 92
2, 387072, Note_off_c, 0, 72, 64
2, 387072, Note_on_c, 0, 76, 92
2, 387264, Note_off_c, 0, 76, 64
2, 387264, Note_on_c, 0, 76, 92
2, 387456, Note_off_c, 0, 76, 64
2, 387456, Note_on_c, 0, 79, 92
2, 387648, Note_off_c, 0, 79, 64
2, 387648, Note_on_c, 0, 79, 92
2, 387840, Note_off_c, 0, 79, 64
2, 387840, Note_on_c, 0, 67, 92
2, 388224, Note_off_c, 0, 67, 64
2, 388224, Note_on_c, 0, 67, 92
2, 388224, Note_on_c, 0, 71, 92
2, 388608, Note_off_c, 0, 71, 64
2, 388608, Note_off_c, 0, 67, 64
2, 388608, Note_on_c, 0, 67, 92
2, 388608, Note_on_c, 0, 71, 92
2, 388608, Note_on_c, 0, 74, 92
2, 388992, Note_off_c, 0, 74, 64
2, 388992, Note_off_c, 0, 71, 64
2, 388992, Note_off_c, 0, 67, 64
2, 388992, Note_on_c, 0, 79, 92
2, 388992, Note_on_c, 0, 74, 92
2, 388992, Note_on_c, 0, 71, 92
2, 389184, Note_off_c, 0, 71, 64
2, 389184, Note_off_c, 0, 74, 64
2, 389184, Note_off_c, 0, 79, 64
2, 389184, Note_on_c, 0, 79, 92
2, 389376, Note_off_c, 0, 79, 64
2, 389376, Note_on_c, 0, 74, 92
2, 389568, Note_off_c, 0, 74, 64
2, 389568, Note_on_c, 0, 74, 92
2, 389760, Note_off_c, 0, 74, 64
2, 389760, Note_on_c, 0, 71, 92
2, 389952, Note_off_c, 0, 71, 64
2, 389952, Note_on_c, 0, 71, 92
2, 390144, Note_off_c, 0, 71, 64
2, 390144, Note_on_c, 0, 67, 92
2, 390528, Note_off_c, 0, 67, 64
2, 390528, Note_on_c, 0, 67, 92
2, 390528, Note_on_c, 0, 71, 92
2, 390912, Note_off_c, 0, 71, 64
2, 390912, Note_off_c, 0, 67, 64
2, 390912, Note_on_c, 0, 67, 92
2, 390912, Note_on_c, 0, 71, 92
2, 390912, Note_on_c, 0, 74, 92
2, 391296, Note_off_c, 0, 74, 64
2, 391296, Note_off_c, 0, 71, 64
2, 391296, Note_off_c, 0, 67, 64
2, 391296, Note_on_c, 0, 79, 92
2, 391296, Note_on_c, 0, 74, 92
2, 391296, Note_on_c, 0, 71, 92
2, 391488, Note_off_c, 0, 71, 64
2, 391488, Note_off_c, 0, 74, 64
2, 391488, Note_off_c, 0, 79, 64
2, 391488, Note_on_c, 0, 79, 92
2, 391680, Note_off_c, 0, 79, 64
2, 391680, Note_on_c, 0, 74, 92
2, 391680, Note_on_c, 0, 71, 92
2, 391872, Note_off_c, 0, 71, 64
2, 391872, Note_off_c, 0, 74, 64
2, 391872, Note_on_c, 0, 74, 92
2, 391872, Note_on_c, 0, 71, 92
2, 392064, Note_off_c, 0, 71, 64
2, 392064, Note_off_c, 0, 74, 64
2, 392064, Note_on_c, 0, 71, 92
2, 392064, Note_on_c, 0, 67, 92
2, 392256, Note_off_c, 0, 67, 64
2, 392256, Note_off_c, 0, 71, 64
2, 392256, Note_on_c, 0, 71, 92
2, 392256, Note_on_c, 0, 67, 92
2, 392448, Note_off_c, 0, 67, 64
2, 392448, Note_off_c, 0, 71, 64
2, 392448, Note_on_c, 0, 79, 92
2, 392448, Note_on_c, 0, 74, 92
2, 392640, Note_off_c, 0, 74, 64
2, 392640, Note_off_c, 0, 79, 64
2, 392640, Note_on_c, 0, 79, 92
2, 392640, Note_on_c, 0, 74, 92
2, 392832, Note_off_c, 0, 74, 64
2, 392832, Note_off_c, 0, 79, 64
2, 392832, Note_on_c, 0, 74, 92
2, 392832, Note_on_c, 0, 71, 92
2, 393024, Note_off_c, 0, 71, 64
2, 393024, Note_off_c, 0, 74, 64
2, 393024, Note_on_c, 0, 74, 92
2, 393024, Note_on_c, 0, 71, 92
2, 393216, Note_off_c, 0, 71, 64
2, 393216, Note_off_c, 0, 74, 64
2, 393216, Note_on_c, 0, 71, 92
2, 393216, Note_on_c, 0, 67, 92
2, 393408, Note_off_c, 0, 67, 64
2, 393408, Note_off_c, 0, 71, 64
2, 393408, Note_on_c, 0, 71, 92
2, 393408, Note_on_c, 0, 67, 92
2, 393600, Note_off_c, 0, 67, 64
2, 393600, Note_off_c, 0, 71, 64
2, 393600, Note_on_c, 0, 79, 92
2, 393600, Note_on_c, 0, 76, 92
2, 393792, Note_off_c, 0, 76, 64
2, 393792, Note_off_c, 0, 79, 64
2, 393792, Note_on_c, 0, 79, 92
2, 393792, Note_on_c, 0, 76, 92
2, 393984, Note_off_c, 0, 76, 64
2, 393984, Note_off_c, 0, 79, 64
2, 393984, Note_on_c, 0, 76, 92
2, 393984, Note_on_c, 0, 72, 92
2, 394176, Note_off_c, 0, 72, 64
2, 394176, Note_off_c, 0, 76, 64
2, 394176, Note_on_c, 0, 76, 92
2, 394176, Note_on_c, 0, 72, 92
2, 394368, Note_off_c, 0, 72, 64
2, 394368, Note_off_c, 0, 76, 64
2, 394368, Note_on_c, 0, 69, 92
2, 394368, Note_on_c, 0, 67, 92
2, 394560, Note_off_c, 0, 67, 64
2, 394560, Note_off_c, 0, 69, 64
2, 394560, Note_on_c, 0, 69, 92
2, 394560, Note_on_c, 0, 67, 92
2, 394752, Note_off_c, 0, 67, 64
2, 394752, Note_off_c, 0, 69, 64
2, 394752, Note_on_c, 0, 79, 92
2, 394752, Note_on_c, 0, 76, 92
2, 394944, Note_off_c, 0, 76, 64
2, 394944, Note_off_c, 0, 79, 64
2, 394944, Note_on_c, 0, 79, 92
2, 394944, Note_on_c, 0, 76, 92
2, 395136, Note_off_c, 0, 76, 64
2, 395136, Note_off_c, 0, 79, 64
2, 395136, Note_on_c, 0, 76, 92
2, 395136, Note_on_c, 0, 72, 92
2, 395328, Note_off_c, 0, 72, 64
2, 395328, Note_off_c, 0, 76, 64
2, 395328, Note_on_c, 0, 76, 92
2, 395328, Note_on_c, 0, 72, 92
2, 395520, Note_off_c, 0, 72, 64
2, 395520, Note_off_c, 0, 76, 64
2, 395520, Note_on_c, 0, 69, 92
2, 395520, Note_on_c, 0, 67, 92
2, 395712, Note_off_c, 0, 67, 64
2, 395712, Note_off_c, 0, 69, 64
2, 395712, Note_on_c, 0, 69, 92
2, 395712, Note_on_c, 0, 67, 92
2, 395904, Note_off_c, 0, 67, 64
2, 395904, Note_off_c, 0, 69, 64
2, 395904, Note_on_c, 0, 78, 92
2, 395904, Note_on_c, 0, 74, 92
2, 396096, Note_off_c, 0, 74, 64
2, 396096, Note_off_c, 0, 78, 64
2, 396096, Note_on_c, 0, 78, 92
2, 396096, Note_on_c, 0, 74, 92
2, 396288, Note_off_c, 0, 74, 64
2, 396288, Note_off_c, 0, 78, 64
2, 396288, Note_on_c, 0, 74, 92
2, 396288, Note_on_c, 0, 69, 92
2, 396480, Note_off_c, 0, 69, 64
2, 396480, Note_off_c, 0, 74, 64
2, 396480, Note_on_c, 0, 74, 92
2, 396480, Note_on_c, 0, 69, 92
2, 396672, Note_off_c, 0, 69, 64
2, 396672, Note_off_c, 0, 74, 64
2, 396672, Note_on_c, 0, 69, 92
2, 396672, Note_on_c, 0, 66, 92
2, 396864, Note_off_c, 0, 66, 64
2, 396864, Note_off_c, 0, 69, 64
2, 396864, Note_on_c, 0, 69, 92
2, 396864, Note_on_c, 0, 66, 92
2, 397056, Note_off_c, 0, 66, 64
2, 397056, Note_off_c, 0, 69, 64
2, 397056, Note_on_c, 0, 78, 92
2, 397056, Note_on_c, 0, 74, 92
2, 397248, Note_off_c, 0, 74, 64
2, 397248, Note_off_c, 0, 78, 64
2, 397248, Note_on_c, 0, 78, 92
2, 397248, Note_on_c, 0, 74, 92
2, 397440, Note_off_c, 0, 74, 64
2, 397440, Note_off_c, 0, 78, 64
2, 397440, Note_on_c, 0, 74, 92
2, 397440, Note_on_c, 0, 69, 92
2, 397632, Note_off_c, 0, 69, 64
2, 397632, Note_off_c, 0, 74, 64
2, 397632, Note_on_c, 0, 74, 92
2, 397632, Note_on_c, 0, 69, 92
2, 397824, Note_off_c, 0, 69, 64
2, 397824, Note_off_c, 0, 74, 64
2, 397824, Note_on_c, 0, 69, 92
2, 397824, Note_on_c, 0, 66, 92
2, 398016, Note_off_c, 0, 66, 64
2, 398016, Note_off_c, 0, 69, 64
2, 398016, Note_on_c, 0, 69, 92
2, 398016, Note_on_c, 0, 66, 92
2, 398208, Note_off_c, 0, 66, 64
2, 398208, Note_off_c, 0, 69, 64
2, 398208, Note_on_c, 0, 79, 92
2, 398208, Note_on_c, 0, 74, 92
2, 398208, Note_on_c, 0, 71, 92
2, 398592, Note_off_c, 0, 71, 64
2, 398592, Note_off_c, 0, 74, 64
2, 398592, Note_off_c, 0, 79, 64
2, 399360, Note_on_c, 0, 78, 92
2, 399360, Note_on_c, 0, 74, 92
2, 399360, Note_on_c, 0, 69, 92
2, 399744, Note_off_c, 0, 69, 64
2, 399744, Note_off_c, 0, 74, 64
2, 399744, Note_off_c, 0, 78, 64
2, 400512, Note_on_c, 0, 83, 92
2, 400512, Note_on_c, 0, 79, 92
2, 400512, Note_on_c, 0, 74, 92
2, 400896, Note_off_c, 0, 74, 64
2, 400896, Note_off_c, 0, 79, 64
2, 400896, Note_off_c, 0, 83, 64
2, 401664, Note_on_c, 0, 81, 92
2, 401664, Note_on_c, 0, 78, 92
2, 401664, Note_on_c, 0, 74, 92
2, 402048, Note_off_c, 0, 74, 64
2, 402048, Note_off_c, 0, 78, 64
2, 402048, Note_off_c, 0, 81, 64
2, 402816, Note_on_c, 0, 79, 92
2, 402816, Note_on_c, 0, 74, 92
2, 402816, Note_on_c, 0, 71, 92
2, 403200, Note_off_c, 0, 71, 64
2, 403200, Note_off_c, 0, 74, 64
2, 403200, Note_off_c, 0, 79, 64
2, 403968, Note_on_c, 0, 78, 92
2, 403968, Note_on_c, 0, 74, 92
2, 403968, Note_on_c, 0, 69, 92
2, 404160, Note_off_c, 0, 69, 64
2, 404160, Note_off_c, 0, 74, 64
2, 404160, Note_off_c, 0, 78, 64
2, 404448, Note_on_c, 0, 71, 92
2, 404544, Note_off_c, 0, 71, 64
2, 404544, Note_on_c, 0, 72, 92
2, 404640, Note_off_c, 0, 72, 64
2, 404640, Note_on_c, 0, 74, 92
2, 404736, Note_off_c, 0, 74, 64
2, 404736, Note_on_c, 0, 62, 92
2, 404832, Note_off_c, 0, 62, 64
2, 404832, Note_on_c, 0, 71, 92
2, 404928, Note_off_c, 0, 71, 64
2, 404928, Note_on_c, 0, 72, 92
2, 405024, Note_off_c, 0, 72, 64
2, 405024, Note_on_c, 0, 74, 92
2, 405120, Note_off_c, 0, 74, 64
2, 405120, Note_on_c, 0, 62, 92
2, 405216, Note_off_c, 0, 62, 64
2, 405216, Note_on_c, 0, 71, 92
2, 405312, Note_off_c, 0, 71, 64
2, 405312, Note_on_c, 0, 72, 92
2, 405408, Note_off_c, 0, 72, 64
2, 405408, Note_on_c, 0, 74, 92
2, 405504, Note_off_c, 0, 74, 64
2, 405504, Note_on_c, 0, 62, 92
2, 405600, Note_off_c, 0, 62, 64
2, 405600, Note_on_c, 0, 71, 92
2, 405696, Note_off_c, 0, 71, 64
2, 405696, Note_on_c, 0, 72, 92
2, 405792, Note_off_c, 0, 72, 64
2, 405792, Note_on_c, 0, 74, 92
2, 405888, Note_off_c, 0, 74, 64
2, 405888, Note_on_c, 0, 62, 92
2, 405984, Note_off_c, 0, 62, 64
2, 405984, Note_on_c, 0, 74, 92
2, 406080, Note_off_c, 0, 74, 64
2, 406080, Note_on_c, 0, 72, 92
2, 406176, Note_off_c, 0, 72, 64
2, 406176, Note_on_c, 0, 71, 92
2, 406272, Note_off_c, 0, 71, 64
2, 406272, Note_on_c, 0, 72, 92
2, 406368, Note_off_c, 0, 72, 64
2, 406368, Note_on_c, 0, 69, 92
2, 406464, Note_off_c, 0, 69, 64
2, 406464, Note_on_c, 0, 71, 92
2, 406560, Note_off_c, 0, 71, 64
2, 406560, Note_on_c, 0, 72, 92
2, 406656, Note_off_c, 0, 72, 64
2, 406656, Note_on_c, 0, 62, 92
2, 406752, Note_off_c, 0, 62, 64
2, 406752, Note_on_c, 0, 69, 92
2, 406848, Note_off_c, 0, 69, 64
2, 406848, Note_on_c, 0, 71, 92
2, 406944, Note_off_c, 0, 71, 64
2, 406944, Note_on_c, 0, 72, 92
2, 407040, Note_off_c, 0, 72, 64
2, 407040, Note_on_c, 0, 62, 92
2, 407136, Note_off_c, 0, 62, 64
2, 407136, Note_on_c, 0, 69, 92
2, 407232, Note_off_c, 0, 69, 64
2, 407232, Note_on_c, 0, 71, 92
2, 407328, Note_off_c, 0, 71, 64
2, 407328, Note_on_c, 0, 72, 92
2, 407424, Note_off_c, 0, 72, 64
2, 407424, Note_on_c, 0, 62, 92
2, 407520, Note_off_c, 0, 62, 64
2, 407520, Note_on_c, 0, 69, 92
2, 407616, Note_off_c, 0, 69, 64
2, 407616, Note_on_c, 0, 71, 92
2, 407712, Note_off_c, 0, 71, 64
2, 407712, Note_on_c, 0, 72, 92
2, 407808, Note_off_c, 0, 72, 64
2, 407808, Note_on_c, 0, 62, 92
2, 407904, Note_off_c, 0, 62, 64
2, 407904, Note_on_c, 0, 69, 92
2, 408000, Note_off_c, 0, 69, 64
2, 408000, Note_on_c, 0, 71, 92
2, 408096, Note_off_c, 0, 71, 64
2, 408096, Note_on_c, 0, 72, 92
2, 408192, Note_off_c, 0, 72, 64
2, 408192, Note_on_c, 0, 62, 92
2, 408288, Note_off_c, 0, 62, 64
2, 408288, Note_on_c, 0, 72, 92
2, 408384, Note_off_c, 0, 72, 64
2, 408384, Note_on_c, 0, 71, 92
2, 408480, Note_off_c, 0, 71, 64
2, 408480, Note_on_c, 0, 69, 92
2, 408576, Note_off_c, 0, 69, 64
2, 408576, Note_on_c, 0, 71, 92
2, 408672, Note_off_c, 0, 71, 64
2, 408672, Note_on_c, 0, 71, 92
2, 408768, Note_off_c, 0, 71, 64
2, 408768, Note_on_c, 0, 72, 92
2, 408864, Note_off_c, 0, 72, 64
2, 408864, Note_on_c, 0, 74, 92
2, 408960, Note_off_c, 0, 74, 64
2, 408960, Note_on_c, 0, 62, 92
2, 409056, Note_off_c, 0, 62, 64
2, 409056, Note_on_c, 0, 71, 92
2, 409152, Note_off_c, 0, 71, 64
2, 409152, Note_on_c, 0, 72, 92
2, 409248, Note_off_c, 0, 72, 64
2, 409248, Note_on_c, 0, 74, 92
2, 409344, Note_off_c, 0, 74, 64
2, 409344, Note_on_c, 0, 62, 92
2, 409440, Note_off_c, 0, 62, 64
2, 409440, Note_on_c, 0, 71, 92
2, 409536, Note_off_c, 0, 71, 64
2, 409536, Note_on_c, 0, 72, 92
2, 409632, Note_off_c, 0, 72, 64
2, 409632, Note_on_c, 0, 74, 92
2, 409728, Note_off_c, 0, 74, 64
2, 409728, Note_on_c, 0, 62, 92
2, 409824, Note_off_c, 0, 62, 64
2, 409824, Note_on_c, 0, 71, 92
2, 409920, Note_off_c, 0, 71, 64
2, 409920, Note_on_c, 0, 72, 92
2, 410016, Note_off_c, 0, 72, 64
2, 410016, Note_on_c, 0, 74, 92
2, 410112, Note_off_c, 0, 74, 64
2, 410112, Note_on_c, 0, 62, 92
2, 410208, Note_off_c, 0, 62, 64
2, 410208, Note_on_c, 0, 71, 92
2, 410304, Note_off_c, 0, 71, 64
2, 410304, Note_on_c, 0, 72, 92
2, 410400, Note_off_c, 0, 72, 64
2, 410400, Note_on_c, 0, 74, 92
2, 410496, Note_off_c, 0, 74, 64
2, 410496, Note_on_c, 0, 62, 92
2, 410592, Note_off_c, 0, 62, 64
2, 410592, Note_on_c, 0, 74, 92
2, 410688, Note_off_c, 0, 74, 64
2, 410688, Note_on_c, 0, 72, 92
2, 410784, Note_off_c, 0, 72, 64
2, 410784, Note_on_c, 0, 71, 92
2, 410880, Note_off_c, 0, 71, 64
2, 410880, Note_on_c, 0, 72, 92
2, 410976, Note_off_c, 0, 72, 64
2, 410976, Note_on_c, 0, 69, 92
2, 411072, Note_off_c, 0, 69, 64
2, 411072, Note_on_c, 0, 71, 92
2, 411168, Note_off_c, 0, 71, 64
2, 411168, Note_on_c, 0, 72, 92
2, 411264, Note_off_c, 0, 72, 64
2, 411264, Note_on_c, 0, 62, 92
2, 411360, Note_off_c, 0, 62, 64
2, 411360, Note_on_c, 0, 69, 92
2, 411456, Note_off_c, 0, 69, 64
2, 411456, Note_on_c, 0, 71, 92
2, 411552, Note_off_c, 0, 71, 64
2, 411552, Note_on_c, 0, 72, 92
2, 411648, Note_off_c, 0, 72, 64
2, 411648, Note_on_c, 0, 62, 92
2, 411744, Note_off_c, 0, 62, 64
2, 411744, Note_on_c, 0, 69, 92
2, 411840, Note_off_c, 0, 69, 64
2, 411840, Note_on_c, 0, 71, 92
2, 411936, Note_off_c, 0, 71, 64
2, 411936, Note_on_c, 0, 72, 92
2, 412032, Note_off_c, 0, 72, 64
2, 412032, Note_on_c, 0, 62, 92
2, 412128, Note_off_c, 0, 62, 64
2, 412128, Note_on_c, 0, 69, 92
2, 412224, Note_off_c, 0, 69, 64
2, 412224, Note_on_c, 0, 71, 92
2, 412320, Note_off_c, 0, 71, 64
2, 412320, Note_on_c, 0, 72, 92
2, 412416, Note_off_c, 0, 72, 64
2, 412416, Note_on_c, 0, 62, 92
2, 412512, Note_off_c, 0, 62, 64
2, 412512, Note_on_c, 0, 69, 92
2, 412608, Note_off_c, 0, 69, 64
2, 412608, Note_on_c, 0, 71, 92
2, 412704, Note_off_c, 0, 71, 64
2, 412704, Note_on_c, 0, 72, 92
2, 412800, Note_off_c, 0, 72, 64
2, 412800, Note_on_c, 0, 62, 92
2, 412896, Note_off_c, 0, 62, 64
2, 412896, Note_on_c, 0, 72, 92
2, 412992, Note_off_c, 0, 72, 64
2, 412992, Note_on_c, 0, 71, 92
2, 413088, Note_off_c, 0, 71, 64
2, 413088, Note_on_c, 0, 69, 92
2, 413184, Note_off_c, 0, 69, 64
2, 413184, Note_on_c, 0, 71, 92
2, 413376, Note_off_c, 0, 71, 64
2, 414336, Note_on_c, 0, 74, 92
2, 414720, Note_off_c, 0, 74, 64
2, 414720, Note_on_c, 0, 72, 92
2, 414912, Note_off_c, 0, 72, 64
2, 414912, Note_on_c, 0, 71, 92
2, 415104, Note_off_c, 0, 71, 64
2, 415104, Note_on_c, 0, 69, 92
2, 415296, Note_off_c, 0, 69, 64
2, 415296, Note_on_c, 0, 67, 92
2, 415488, Note_off_c, 0, 67, 64
2, 415488, Note_on_c, 0, 65, 92
2, 415872, Note_off_c, 0, 65, 64
2, 415872, Note_on_c, 0, 74, 92
2, 416256, Note_off_c, 0, 74, 64
2, 416256, Note_on_c, 0, 65, 92
2, 416640, Note_off_c, 0, 65, 64
2, 416640, Note_on_c, 0, 64, 92
2, 416736, Note_off_c, 0, 64, 64
2, 416736, Note_on_c, 0, 65, 92
2, 416832, Note_off_c, 0, 65, 64
2, 416832, Note_on_c, 0, 67, 92
2, 417024, Note_off_c, 0, 67, 64
2, 417024, Note_on_c, 0, 65, 92
2, 417072, Note_off_c, 0, 65, 64
2, 417072, Note_on_c, 0, 67, 92
2, 417120, Note_off_c, 0, 67, 64
2, 417120, Note_on_c, 0, 65, 92
2, 417408, Note_off_c, 0, 65, 64
2, 417408, Note_on_c, 0, 64, 92
2, 417792, Note_off_c, 0, 64, 64
2, 417792, Note_on_c, 0, 76, 92
2, 418176, Note_off_c, 0, 76, 64
2, 418176, Note_on_c, 0, 74, 92
2, 418368, Note_off_c, 0, 74, 64
2, 418368, Note_on_c, 0, 72, 92
2, 418560, Note_off_c, 0, 72, 64
2, 418560, Note_on_c, 0, 71, 92
2, 418752, Note_off_c, 0, 71, 64
2, 418752, Note_on_c, 0, 69, 92
2, 418944, Note_off_c, 0, 69, 64
2, 418944, Note_on_c, 0, 67, 92
2, 419328, Note_off_c, 0, 67, 64
2, 419328, Note_on_c, 0, 76, 92
2, 419712, Note_off_c, 0, 76, 64
2, 419712, Note_on_c, 0, 67, 92
2, 420096, Note_off_c, 0, 67, 64
2, 420096, Note_on_c, 0, 66, 92
2, 420192, Note_off_c, 0, 66, 64
2, 420192, Note_on_c, 0, 67, 92
2, 420288, Note_off_c, 0, 67, 64
2, 420288, Note_on_c, 0, 69, 92
2, 420480, Note_off_c, 0, 69, 64
2, 420480, Note_on_c, 0, 67, 92
2, 420528, Note_off_c, 0, 67, 64
2, 420528, Note_on_c, 0, 69, 92
2, 420576, Note_off_c, 0, 69, 64
2, 420576, Note_on_c, 0, 67, 92
2, 420864, Note_off_c, 0, 67, 64
2, 420864, Note_on_c, 0, 66, 92
2, 421248, Note_off_c, 0, 66, 64
2, 421344, Note_on_c, 0, 66, 92
2, 421440, Note_off_c, 0, 66, 64
2, 421440, Note_on_c, 0, 62, 92
2, 421536, Note_off_c, 0, 62, 64
2, 421536, Note_on_c, 0, 61, 92
2, 421632, Note_off_c, 0, 61, 64
2, 421632, Note_on_c, 0, 62, 92
2, 421728, Note_off_c, 0, 62, 64
2, 421728, Note_on_c, 0, 66, 92
2, 421824, Note_off_c, 0, 66, 64
2, 421824, Note_on_c, 0, 62, 92
2, 421920, Note_off_c, 0, 62, 64
2, 421920, Note_on_c, 0, 61, 92
2, 422016, Note_off_c, 0, 61, 64
2, 422016, Note_on_c, 0, 62, 92
2, 422112, Note_off_c, 0, 62, 64
2, 422112, Note_on_c, 0, 66, 92
2, 422208, Note_off_c, 0, 66, 64
2, 422208, Note_on_c, 0, 62, 92
2, 422304, Note_off_c, 0, 62, 64
2, 422304, Note_on_c, 0, 61, 92
2, 422400, Note_off_c, 0, 61, 64
2, 422400, Note_on_c, 0, 62, 92
2, 422496, Note_off_c, 0, 62, 64
2, 422496, Note_on_c, 0, 66, 92
2, 422592, Note_off_c, 0, 66, 64
2, 422592, Note_on_c, 0, 62, 92
2, 422688, Note_off_c, 0, 62, 64
2, 422688, Note_on_c, 0, 61, 92
2, 422784, Note_off_c, 0, 61, 64
2, 422784, Note_on_c, 0, 62, 92
2, 422880, Note_off_c, 0, 62, 64
2, 422880, Note_on_c, 0, 66, 92
2, 422976, Note_off_c, 0, 66, 64
2, 422976, Note_on_c, 0, 62, 92
2, 423072, Note_off_c, 0, 62, 64
2, 423072, Note_on_c, 0, 61, 92
2, 423168, Note_off_c, 0, 61, 64
2, 423168, Note_on_c, 0, 62, 92
2, 423264, Note_off_c, 0, 62, 64
2, 423264, Note_on_c, 0, 66, 92
2, 423360, Note_off_c, 0, 66, 64
2, 423360, Note_on_c, 0, 62, 92
2, 423456, Note_off_c, 0, 62, 64
2, 423456, Note_on_c, 0, 61, 92
2, 423552, Note_off_c, 0, 61, 64
2, 423552, Note_on_c, 0, 62, 92
2, 423648, Note_off_c, 0, 62, 64
2, 423648, Note_on_c, 0, 64, 92
2, 423744, Note_off_c, 0, 64, 64
2, 423744, Note_on_c, 0, 62, 92
2, 423840, Note_off_c, 0, 62, 64
2, 423840, Note_on_c, 0, 61, 92
2, 423936, Note_off_c, 0, 61, 64
2, 423936, Note_on_c, 0, 62, 92
2, 424032, Note_off_c, 0, 62, 64
2, 424032, Note_on_c, 0, 64, 92
2, 424128, Note_off_c, 0, 64, 64
2, 424128, Note_on_c, 0, 62, 92
2, 424224, Note_off_c, 0, 62, 64
2, 424224, Note_on_c, 0, 61, 92
2, 424320, Note_off_c, 0, 61, 64
2, 424320, Note_on_c, 0, 62, 92
2, 424416, Note_off_c, 0, 62, 64
2, 424416, Note_on_c, 0, 64, 92
2, 424512, Note_off_c, 0, 64, 64
2, 424512, Note_on_c, 0, 62, 92
2, 424608, Note_off_c, 0, 62, 64
2, 424608, Note_on_c, 0, 61, 92
2, 424704, Note_off_c, 0, 61, 64
2, 424704, Note_on_c, 0, 62, 92
2, 424800, Note_off_c, 0, 62, 64
2, 424800, Note_on_c, 0, 64, 92
2, 424896, Note_off_c, 0, 64, 64
2, 424896, Note_on_c, 0, 62, 92
2, 424992, Note_off_c, 0, 62, 64
2, 424992, Note_on_c, 0, 61, 92
2, 425088, Note_off_c, 0, 61, 64
2, 425088, Note_on_c, 0, 62, 92
2, 425184, Note_off_c, 0, 62, 64
2, 425184, Note_on_c, 0, 64, 92
2, 425280, Note_off_c, 0, 64, 64
2, 425280, Note_on_c, 0, 62, 92
2, 425376, Note_off_c, 0, 62, 64
2, 425376, Note_on_c, 0, 61, 92
2, 425472, Note_off_c, 0, 61, 64
2, 425472, Note_on_c, 0, 62, 92
2, 425568, Note_off_c, 0, 62, 64
2, 425568, Note_on_c, 0, 64, 92
2, 425664, Note_off_c, 0, 64, 64
2, 425664, Note_on_c, 0, 62, 92
2, 425760, Note_off_c, 0, 62, 64
2, 425760, Note_on_c, 0, 59, 92
2, 425856, Note_off_c, 0, 59, 64
2, 425856, Note_on_c, 0, 60, 92
2, 425952, Note_off_c, 0, 60, 64
2, 425952, Note_on_c, 0, 64, 92
2, 426048, Note_off_c, 0, 64, 64
2, 426048, Note_on_c, 0, 60, 92
2, 426144, Note_off_c, 0, 60, 64
2, 426144, Note_on_c, 0, 59, 92
2, 426240, Note_off_c, 0, 59, 64
2, 426240, Note_on_c, 0, 60, 92
2, 426336, Note_off_c, 0, 60, 64
2, 426336, Note_on_c, 0, 64, 92
2, 426432, Note_off_c, 0, 64, 64
2, 426432, Note_on_c, 0, 60, 92
2, 426528, Note_off_c, 0, 60, 64
2, 426528, Note_on_c, 0, 59, 92
2, 426624, Note_off_c, 0, 59, 64
2, 426624, Note_on_c, 0, 60, 92
2, 426720, Note_off_c, 0, 60, 64
2, 426720, Note_on_c, 0, 64, 92
2, 426816, Note_off_c, 0, 64, 64
2, 426816, Note_on_c, 0, 60, 92
2, 426912, Note_off_c, 0, 60, 64
2, 426912, Note_on_c, 0, 59, 92
2, 427008, Note_off_c, 0, 59, 64
2, 427008, Note_on_c, 0, 60, 92
2, 427104, Note_off_c, 0, 60, 64
2, 427104, Note_on_c, 0, 69, 92
2, 427200, Note_off_c, 0, 69, 64
2, 427200, Note_on_c, 0, 60, 92
2, 427296, Note_off_c, 0, 60, 64
2, 427296, Note_on_c, 0, 59, 92
2, 427392, Note_off_c, 0, 59, 64
2, 427392, Note_on_c, 0, 60, 92
2, 427488, Note_off_c, 0, 60, 64
2, 427488, Note_on_c, 0, 69, 92
2, 427584, Note_off_c, 0, 69, 64
2, 427584, Note_on_c, 0, 60, 92
2, 427680, Note_off_c, 0, 60, 64
2, 427680, Note_on_c, 0, 59, 92
2, 427776, Note_off_c, 0, 59, 64
2, 427776, Note_on_c, 0, 60, 92
2, 427872, Note_off_c, 0, 60, 64
2, 427872, Note_on_c, 0, 69, 92
2, 427968, Note_off_c, 0, 69, 64
2, 427968, Note_on_c, 0, 60, 92
2, 428064, Note_off_c, 0, 60, 64
2, 428064, Note_on_c, 0, 57, 92
2, 428160, Note_off_c, 0, 57, 64
2, 428160, Note_on_c, 0, 62, 92
2, 428256, Note_off_c, 0, 62, 64
2, 428256, Note_on_c, 0, 69, 92
2, 428352, Note_off_c, 0, 69, 64
2, 428352, Note_on_c, 0, 62, 92
2, 428448, Note_off_c, 0, 62, 64
2, 428448, Note_on_c, 0, 59, 92
2, 428544, Note_off_c, 0, 59, 64
2, 428544, Note_on_c, 0, 62, 92
2, 428640, Note_off_c, 0, 62, 64
2, 428640, Note_on_c, 0, 69, 92
2, 428736, Note_off_c, 0, 69, 64
2, 428736, Note_on_c, 0, 62, 92
2, 428832, Note_off_c, 0, 62, 64
2, 428832, Note_on_c, 0, 59, 92
2, 428928, Note_off_c, 0, 59, 64
2, 428928, Note_on_c, 0, 62, 92
2, 429024, Note_off_c, 0, 62, 64
2, 429024, Note_on_c, 0, 69, 92
2, 429120, Note_off_c, 0, 69, 64
2, 429120, Note_on_c, 0, 62, 92
2, 429216, Note_off_c, 0, 62, 64
2, 429216, Note_on_c, 0, 59, 92
2, 429312, Note_off_c, 0, 59, 64
2, 429312, Note_on_c, 0, 62, 92
2, 429408, Note_off_c, 0, 62, 64
2, 429408, Note_on_c, 0, 69, 92
2, 429504, Note_off_c, 0, 69, 64
2, 429504, Note_on_c, 0, 62, 92
2, 429600, Note_off_c, 0, 62, 64
2, 429600, Note_on_c, 0, 59, 92
2, 429696, Note_off_c, 0, 59, 64
2, 429696, Note_on_c, 0, 62, 92
2, 429792, Note_off_c, 0, 62, 64
2, 429792, Note_on_c, 0, 69, 92
2, 429888, Note_off_c, 0, 69, 64
2, 429888, Note_on_c, 0, 62, 92
2, 429984, Note_off_c, 0, 62, 64
2, 429984, Note_on_c, 0, 59, 92
2, 430080, Note_off_c, 0, 59, 64
2, 430080, Note_on_c, 0, 62, 92
2, 430176, Note_off_c, 0, 62, 64
2, 430176, Note_on_c, 0, 69, 92
2, 430272, Note_off_c, 0, 69, 64
2, 430272, Note_on_c, 0, 62, 92
2, 430368, Note_off_c, 0, 62, 64
2, 430368, Note_on_c, 0, 59, 92
2, 430464, Note_off_c, 0, 59, 64
2, 430464, Note_on_c, 0, 62, 92
2, 430560, Note_off_c, 0, 62, 64
2, 430560, Note_on_c, 0, 67, 92
2, 430656, Note_off_c, 0, 67, 64
2, 430656, Note_on_c, 0, 62, 92
2, 430752, Note_off_c, 0, 62, 64
2, 430752, Note_on_c, 0, 59, 92
2, 430848, Note_off_c, 0, 59, 64
2, 430848, Note_on_c, 0, 62, 92
2, 430944, Note_off_c, 0, 62, 64
2, 430944, Note_on_c, 0, 67, 92
2, 431040, Note_off_c, 0, 67, 64
2, 431040, Note_on_c, 0, 62, 92
2, 431136, Note_off_c, 0, 62, 64
2, 431136, Note_on_c, 0, 59, 92
2, 431232, Note_off_c, 0, 59, 64
2, 431232, Note_on_c, 0, 62, 92
2, 431328, Note_off_c, 0, 62, 64
2, 431328, Note_on_c, 0, 67, 92
2, 431424, Note_off_c, 0, 67, 64
2, 431424, Note_on_c, 0, 62, 92
2, 431520, Note_off_c, 0, 62, 64
2, 431520, Note_on_c, 0, 59, 92
2, 431616, Note_off_c, 0, 59, 64
2, 431616, Note_on_c, 0, 62, 92
2, 431712, Note_off_c, 0, 62, 64
2, 431712, Note_on_c, 0, 67, 92
2, 431808, Note_off_c, 0, 67, 64
2, 431808, Note_on_c, 0, 62, 92
2, 431904, Note_off_c, 0, 62, 64
2, 431904, Note_on_c, 0, 59, 92
2, 432000, Note_off_c, 0, 59, 64
2, 432000, Note_on_c, 0, 62, 92
2, 432096, Note_off_c, 0, 62, 64
2, 432096, Note_on_c, 0, 67, 92
2, 432192, Note_off_c, 0, 67, 64
2, 432192, Note_on_c, 0, 62, 92
2, 432288, Note_off_c, 0, 62, 64
2, 432288, Note_on_c, 0, 59, 92
2, 432384, Note_off_c, 0, 59, 64
2, 432384, Note_on_c, 0, 62, 92
2, 432480, Note_off_c, 0, 62, 64
2, 432480, Note_on_c, 0, 67, 92
2, 432576, Note_off_c, 0, 67, 64
2, 432576, Note_on_c, 0, 62, 92
2, 432672, Note_off_c, 0, 62, 64
2, 432672, Note_on_c, 0, 59, 92
2, 432768, Note_off_c, 0, 59, 64
2, 432768, Note_on_c, 0, 62, 92
2, 432864, Note_off_c, 0, 62, 64
2, 432864, Note_on_c, 0, 67, 92
2, 432960, Note_off_c, 0, 67, 64
2, 432960, Note_on_c, 0, 62, 92
2, 433056, Note_off_c, 0, 62, 64
2, 433056, Note_on_c, 0, 58, 92
2, 433152, Note_off_c, 0, 58, 64
2, 433152, Note_on_c, 0, 62, 92
2, 433248, Note_off_c, 0, 62, 64
2, 433248, Note_on_c, 0, 67, 92
2, 433344, Note_off_c, 0, 67, 64
2, 433344, Note_on_c, 0, 62, 92
2, 433440, Note_off_c, 0, 62, 64
2, 433440, Note_on_c, 0, 58, 92
2, 433536, Note_off_c, 0, 58, 64
2, 433536, Note_on_c, 0, 62, 92
2, 433632, Note_off_c, 0, 62, 64
2, 433632, Note_on_c, 0, 67, 92
2, 433728, Note_off_c, 0, 67, 64
2, 433728, Note_on_c, 0, 62, 92
2, 433824, Note_off_c, 0, 62, 64
2, 433824, Note_on_c, 0, 58, 92
2, 433920, Note_off_c, 0, 58, 64
2, 433920, Note_on_c, 0, 62, 92
2, 434016, Note_off_c, 0, 62, 64
2, 434016, Note_on_c, 0, 67, 92
2, 434112, Note_off_c, 0, 67, 64
2, 434112, Note_on_c, 0, 62, 92
2, 434208, Note_off_c, 0, 62, 64
2, 434208, Note_on_c, 0, 58, 92
2, 434304, Note_off_c, 0, 58, 64
2, 434304, Note_on_c, 0, 62, 92
2, 434400, Note_off_c, 0, 62, 64
2, 434400, Note_on_c, 0, 67, 92
2, 434496, Note_off_c, 0, 67, 64
2, 434496, Note_on_c, 0, 62, 92
2, 434592, Note_off_c, 0, 62, 64
2, 434592, Note_on_c, 0, 58, 92
2, 434688, Note_off_c, 0, 58, 64
2, 434688, Note_on_c, 0, 62, 92
2, 434784, Note_off_c, 0, 62, 64
2, 434784, Note_on_c, 0, 67, 92
2, 434880, Note_off_c, 0, 67, 64
2, 434880, Note_on_c, 0, 62, 92
2, 434976, Note_off_c, 0, 62, 64
2, 434976, Note_on_c, 0, 58, 92
2, 435072, Note_off_c, 0, 58, 64
2, 435072, Note_on_c, 0, 60, 92
2, 435168, Note_off_c, 0, 60, 64
2, 435168, Note_on_c, 0, 67, 92
2, 435264, Note_off_c, 0, 67, 64
2, 435264, Note_on_c, 0, 60, 92
2, 435360, Note_off_c, 0, 60, 64
2, 435360, Note_on_c, 0, 57, 92
2, 435456, Note_off_c, 0, 57, 64
2, 435456, Note_on_c, 0, 60, 92
2, 435552, Note_off_c, 0, 60, 64
2, 435552, Note_on_c, 0, 67, 92
2, 435648, Note_off_c, 0, 67, 64
2, 435648, Note_on_c, 0, 60, 92
2, 435744, Note_off_c, 0, 60, 64
2, 435744, Note_on_c, 0, 57, 92
2, 435840, Note_off_c, 0, 57, 64
2, 435840, Note_on_c, 0, 60, 92
2, 435936, Note_off_c, 0, 60, 64
2, 435936, Note_on_c, 0, 67, 92
2, 436032, Note_off_c, 0, 67, 64
2, 436032, Note_on_c, 0, 60, 92
2, 436128, Note_off_c, 0, 60, 64
2, 436128, Note_on_c, 0, 57, 92
2, 436224, Note_off_c, 0, 57, 64
2, 436224, Note_on_c, 0, 60, 92
2, 436320, Note_off_c, 0, 60, 64
2, 436320, Note_on_c, 0, 67, 92
2, 436416, Note_off_c, 0, 67, 64
2, 436416, Note_on_c, 0, 60, 92
2, 436512, Note_off_c, 0, 60, 64
2, 436512, Note_on_c, 0, 57, 92
2, 436608, Note_off_c, 0, 57, 64
2, 436608, Note_on_c, 0, 60, 92
2, 436704, Note_off_c, 0, 60, 64
2, 436704, Note_on_c, 0, 67, 92
2, 436800, Note_off_c, 0, 67, 64
2, 436800, Note_on_c, 0, 60, 92
2, 436896, Note_off_c, 0, 60, 64
2, 436896, Note_on_c, 0, 57, 92
2, 436992, Note_off_c, 0, 57, 64
2, 436992, Note_on_c, 0, 60, 92
2, 437088, Note_off_c, 0, 60, 64
2, 437088, Note_on_c, 0, 67, 92
2, 437184, Note_off_c, 0, 67, 64
2, 437184, Note_on_c, 0, 60, 92
2, 437280, Note_off_c, 0, 60, 64
2, 437280, Note_on_c, 0, 57, 92
2, 437376, Note_off_c, 0, 57, 64
2, 437376, Note_on_c, 0, 60, 92
2, 437472, Note_off_c, 0, 60, 64
2, 437472, Note_on_c, 0, 66, 92
2, 437568, Note_off_c, 0, 66, 64
2, 437568, Note_on_c, 0, 60, 92
2, 437664, Note_off_c, 0, 60, 64
2, 437664, Note_on_c, 0, 57, 92
2, 437760, Note_off_c, 0, 57, 64
2, 437760, Note_on_c, 0, 60, 92
2, 437856, Note_off_c, 0, 60, 64
2, 437856, Note_on_c, 0, 66, 92
2, 437952, Note_off_c, 0, 66, 64
2, 437952, Note_on_c, 0, 60, 92
2, 438048, Note_off_c, 0, 60, 64
2, 438048, Note_on_c, 0, 57, 92
2, 438144, Note_off_c, 0, 57, 64
2, 438144, Note_on_c, 0, 60, 92
2, 438240, Note_off_c, 0, 60, 64
2, 438240, Note_on_c, 0, 66, 92
2, 438336, Note_off_c, 0, 66, 64
2, 438336, Note_on_c, 0, 60, 92
2, 438432, Note_off_c, 0, 60, 64
2, 438432, Note_on_c, 0, 57, 92
2, 438528, Note_off_c, 0, 57, 64
2, 438528, Note_on_c, 0, 60, 92
2, 438624, Note_off_c, 0, 60, 64
2, 438624, Note_on_c, 0, 66, 92
2, 438720, Note_off_c, 0, 66, 64
2, 438720, Note_on_c, 0, 60, 92
2, 438816, Note_off_c, 0, 60, 64
2, 438816, Note_on_c, 0, 57, 92
2, 438912, Note_off_c, 0, 57, 64
2, 438912, Note_on_c, 0, 60, 92
2, 439008, Note_off_c, 0, 60, 64
2, 439008, Note_on_c, 0, 66, 92
2, 439104, Note_off_c, 0, 66, 64
2, 439104, Note_on_c, 0, 60, 92
2, 439200, Note_off_c, 0, 60, 64
2, 439200, Note_on_c, 0, 57, 92
2, 439296, Note_off_c, 0, 57, 64
2, 439296, Note_on_c, 0, 60, 92
2, 439392, Note_off_c, 0, 60, 64
2, 439392, Note_on_c, 0, 66, 92
2, 439488, Note_off_c, 0, 66, 64
2, 439488, Note_on_c, 0, 60, 92
2, 439584, Note_off_c, 0, 60, 64
2, 439584, Note_on_c, 0, 57, 92
2, 439680, Note_off_c, 0, 57, 64
2, 439680, Note_on_c, 0, 79, 92
2, 439872, Note_off_c, 0, 79, 64
2, 439872, Note_on_c, 0, 79, 92
2, 440064, Note_off_c, 0, 79, 64
2, 440064, Note_on_c, 0, 74, 92
2, 440256, Note_off_c, 0, 74, 64
2, 440256, Note_on_c, 0, 74, 92
2, 440448, Note_off_c, 0, 74, 64
2, 440448, Note_on_c, 0, 71, 92
2, 440640, Note_off_c, 0, 71, 64
2, 440640, Note_on_c, 0, 71, 92
2, 440832, Note_off_c, 0, 71, 64
2, 440832, Note_on_c, 0, 67, 92
2, 441216, Note_off_c, 0, 67, 64
2, 441216, Note_on_c, 0, 67, 92
2, 441216, Note_on_c, 0, 71, 92
2, 441600, Note_off_c, 0, 71, 64
2, 441600, Note_off_c, 0, 67, 64
2, 441600, Note_on_c, 0, 67, 92
2, 441600, Note_on_c, 0, 71, 92
2, 441600, Note_on_c, 0, 74, 92
2, 441984, Note_off_c, 0, 74, 64
2, 441984, Note_off_c, 0, 71, 64
2, 441984, Note_off_c, 0, 67, 64
2, 441984, Note_on_c, 0, 60, 92
2, 442368, Note_off_c, 0, 60, 64
2, 442368, Note_on_c, 0, 60, 92
2, 442368, Note_on_c, 0, 64, 92
2, 442752, Note_off_c, 0, 64, 64
2, 442752, Note_off_c, 0, 60, 64
2, 442752, Note_on_c, 0, 60, 92
2, 442752, Note_on_c, 0, 64, 92
2, 442752, Note_on_c, 0, 67, 92
2, 443136, Note_off_c, 0, 67, 64
2, 443136, Note_off_c, 0, 64, 64
2, 443136, Note_off_c, 0, 60, 64
2, 443136, Note_on_c, 0, 67, 92
2, 443136, Note_on_c, 0, 64, 92
2, 443136, Note_on_c, 0, 72, 92
2, 443328, Note_off_c, 0, 72, 64
2, 443328, Note_off_c, 0, 64, 64
2, 443328, Note_off_c, 0, 67, 64
2, 443328, Note_on_c, 0, 72, 92
2, 443520, Note_off_c, 0, 72, 64
2, 443520, Note_on_c, 0, 67, 92
2, 443712, Note_off_c, 0, 67, 64
2, 443712, Note_on_c, 0, 67, 92
2, 443904, Note_off_c, 0, 67, 64
2, 443904, Note_on_c, 0, 64, 92
2, 444096, Note_off_c, 0, 64, 64
2, 444096, Note_on_c, 0, 64, 92
2, 444288, Note_off_c, 0, 64, 64
2, 444288, Note_on_c, 0, 81, 92
2, 444480, Note_off_c, 0, 81, 64
2, 444480, Note_on_c, 0, 81, 92
2, 444672, Note_off_c, 0, 81, 64
2, 444672, Note_on_c, 0, 76, 92
2, 444864, Note_off_c, 0, 76, 64
2, 444864, Note_on_c, 0, 76, 92
2, 445056, Note_off_c, 0, 76, 64
2, 445056, Note_on_c, 0, 73, 92
2, 445248, Note_off_c, 0, 73, 64
2, 445248, Note_on_c, 0, 73, 92
2, 445440, Note_off_c, 0, 73, 64
2, 445440, Note_on_c, 0, 69, 92
2, 445632, Note_off_c, 0, 69, 64
2, 445632, Note_on_c, 0, 69, 92
2, 445824, Note_off_c, 0, 69, 64
2, 445824, Note_on_c, 0, 73, 92
2, 445824, Note_on_c, 0, 69, 92
2, 446208, Note_off_c, 0, 69, 64
2, 446208, Note_off_c, 0, 73, 64
2, 446208, Note_on_c, 0, 73, 92
2, 446208, Note_on_c, 0, 69, 92
2, 446208, Note_on_c, 0, 76, 92
2, 446592, Note_off_c, 0, 76, 64
2, 446592, Note_off_c, 0, 69, 64
2, 446592, Note_off_c, 0, 73, 64
2, 446592, Note_on_c, 0, 62, 92
2, 446976, Note_off_c, 0, 62, 64
2, 446976, Note_on_c, 0, 62, 92
2, 446976, Note_on_c, 0, 66, 92
2, 447360, Note_off_c, 0, 66, 64
2, 447360, Note_off_c, 0, 62, 64
2, 447360, Note_on_c, 0, 62, 92
2, 447360, Note_on_c, 0, 66, 92
2, 447360, Note_on_c, 0, 69, 92
2, 447744, Note_off_c, 0, 69, 64
2, 447744, Note_off_c, 0, 66, 64
2, 447744, Note_off_c, 0, 62, 64
2, 447744, Note_on_c, 0, 66, 92
2, 447744, Note_on_c, 0, 69, 92
2, 447744, Note_on_c, 0, 74, 92
2, 447936, Note_off_c, 0, 74, 64
2, 447936, Note_off_c, 0, 69, 64
2, 447936, Note_off_c, 0, 66, 64
2, 447936, Note_on_c, 0, 74, 92
2, 448128, Note_off_c, 0, 74, 64
2, 448128, Note_on_c, 0, 69, 92
2, 448320, Note_off_c, 0, 69, 64
2, 448320, Note_on_c, 0, 69, 92
2, 448512, Note_off_c, 0, 69, 64
2, 448512, Note_on_c, 0, 66, 92
2, 448704, Note_off_c, 0, 66, 64
2, 448704, Note_on_c, 0, 66, 92
2, 448896, Note_off_c, 0, 66, 64
2, 448896, Note_on_c, 0, 83, 92
2, 449088, Note_off_c, 0, 83, 64
2, 449088, Note_on_c, 0, 83, 92
2, 449280, Note_off_c, 0, 83, 64
2, 449280, Note_on_c, 0, 78, 92
2, 449472, Note_off_c, 0, 78, 64
2, 449472, Note_on_c, 0, 78, 92
2, 449664, Note_off_c, 0, 78, 64
2, 449664, Note_on_c, 0, 75, 92
2, 449856, Note_off_c, 0, 75, 64
2, 449856, Note_on_c, 0, 75, 92
2, 450048, Note_off_c, 0, 75, 64
2, 450048, Note_on_c, 0, 71, 92
2, 450240, Note_off_c, 0, 71, 64
2, 450240, Note_on_c, 0, 71, 92
2, 450432, Note_off_c, 0, 71, 64
2, 450432, Note_on_c, 0, 71, 92
2, 450432, Note_on_c, 0, 75, 92
2, 450816, Note_off_c, 0, 75, 64
2, 450816, Note_off_c, 0, 71, 64
2, 450816, Note_on_c, 0, 71, 92
2, 450816, Note_on_c, 0, 75, 92
2, 450816, Note_on_c, 0, 78, 92
2, 451200, Note_off_c, 0, 78, 64
2, 451200, Note_off_c, 0, 75, 64
2, 451200, Note_off_c, 0, 71, 64
2, 451200, Note_on_c, 0, 64, 92
2, 451584, Note_off_c, 0, 64, 64
2, 451584, Note_on_c, 0, 64, 92
2, 451584, Note_on_c, 0, 67, 92
2, 451968, Note_off_c, 0, 67, 64
2, 451968, Note_off_c, 0, 64, 64
2, 451968, Note_on_c, 0, 64, 92
2, 451968, Note_on_c, 0, 67, 92
2, 451968, Note_on_c, 0, 71, 92
2, 452352, Note_off_c, 0, 71, 64
2, 452352, Note_off_c, 0, 67, 64
2, 452352, Note_off_c, 0, 64, 64
2, 452352, Note_on_c, 0, 76, 92
2, 452352, Note_on_c, 0, 71, 92
2, 452352, Note_on_c, 0, 67, 92
2, 452544, Note_off_c, 0, 67, 64
2, 452544, Note_off_c, 0, 71, 64
2, 452544, Note_off_c, 0, 76, 64
2, 452544, Note_on_c, 0, 76, 92
2, 452544, Note_on_c, 0, 71, 92
2, 452544, Note_on_c, 0, 67, 92
2, 452736, Note_off_c, 0, 67, 64
2, 452736, Note_off_c, 0, 71, 64
2, 452736, Note_off_c, 0, 76, 64
2, 452736, Note_on_c, 0, 71, 92
2, 452736, Note_on_c, 0, 67, 92
2, 452928, Note_off_c, 0, 67, 64
2, 452928, Note_off_c, 0, 71, 64
2, 452928, Note_on_c, 0, 71, 92
2, 452928, Note_on_c, 0, 67, 92
2, 453120, Note_off_c, 0, 67, 64
2, 453120, Note_off_c, 0, 71, 64
2, 453120, Note_on_c, 0, 67, 92
2, 453120, Note_on_c, 0, 64, 92
2, 453312, Note_off_c, 0, 64, 64
2, 453312, Note_off_c, 0, 67, 64
2, 453312, Note_on_c, 0, 67, 92
2, 453312, Note_on_c, 0, 64, 92
2, 453504, Note_off_c, 0, 64, 64
2, 453504, Note_off_c, 0, 67, 64
2, 453504, Note_on_c, 0, 76, 92
2, 453504, Note_on_c, 0, 72, 92
2, 453696, Note_off_c, 0, 72, 64
2, 453696, Note_off_c, 0, 76, 64
2, 453696, Note_on_c, 0, 76, 92
2, 453696, Note_on_c, 0, 72, 92
2, 453888, Note_off_c, 0, 72, 64
2, 453888, Note_off_c, 0, 76, 64
2, 453888, Note_on_c, 0, 72, 92
2, 453888, Note_on_c, 0, 69, 92
2, 454080, Note_off_c, 0, 69, 64
2, 454080, Note_off_c, 0, 72, 64
2, 454080, Note_on_c, 0, 72, 92
2, 454080, Note_on_c, 0, 69, 92
2, 454272, Note_off_c, 0, 69, 64
2, 454272, Note_off_c, 0, 72, 64
2, 454272, Note_on_c, 0, 66, 92
2, 454272, Note_on_c, 0, 64, 92
2, 454464, Note_off_c, 0, 64, 64
2, 454464, Note_off_c, 0, 66, 64
2, 454464, Note_on_c, 0, 66, 92
2, 454464, Note_on_c, 0, 64, 92
2, 454656, Note_off_c, 0, 64, 64
2, 454656, Note_off_c, 0, 66, 64
2, 454656, Note_on_c, 0, 75, 92
2, 454656, Note_on_c, 0, 71, 92
2, 454848, Note_off_c, 0, 71, 64
2, 454848, Note_off_c, 0, 75, 64
2, 454848, Note_on_c, 0, 75, 92
2, 454848, Note_on_c, 0, 71, 92
2, 455040, Note_off_c, 0, 71, 64
2, 455040, Note_off_c, 0, 75, 64
2, 455040, Note_on_c, 0, 71, 92
2, 455040, Note_on_c, 0, 66, 92
2, 455232, Note_off_c, 0, 66, 64
2, 455232, Note_off_c, 0, 71, 64
2, 455232, Note_on_c, 0, 71, 92
2, 455232, Note_on_c, 0, 66, 92
2, 455424, Note_off_c, 0, 66, 64
2, 455424, Note_off_c, 0, 71, 64
2, 455424, Note_on_c, 0, 66, 92
2, 455424, Note_on_c, 0, 63, 92
2, 455616, Note_off_c, 0, 63, 64
2, 455616, Note_off_c, 0, 66, 64
2, 455616, Note_on_c, 0, 66, 92
2, 455616, Note_on_c, 0, 63, 92
2, 455808, Note_off_c, 0, 63, 64
2, 455808, Note_off_c, 0, 66, 64
2, 455808, Note_on_c, 0, 76, 92
2, 455808, Note_on_c, 0, 71, 92
2, 455808, Note_on_c, 0, 67, 92
2, 455808, Note_on_c, 0, 64, 92
2, 456000, Note_off_c, 0, 64, 64
2, 456000, Note_off_c, 0, 67, 64
2, 456000, Note_off_c, 0, 71, 64
2, 456000, Note_off_c, 0, 76, 64
2, 456000, Note_on_c, 0, 67, 92
2, 456192, Note_off_c, 0, 67, 64
2, 456192, Note_on_c, 0, 71, 92
2, 456384, Note_off_c, 0, 71, 64
2, 456384, Note_on_c, 0, 71, 92
2, 456576, Note_off_c, 0, 71, 64
2, 456576, Note_on_c, 0, 76, 92
2, 456768, Note_off_c, 0, 76, 64
2, 456768, Note_on_c, 0, 76, 92
2, 456960, Note_off_c, 0, 76, 64
2, 456960, Note_on_c, 0, 69, 92
2, 457152, Note_off_c, 0, 69, 64
2, 457152, Note_on_c, 0, 69, 92
2, 457344, Note_off_c, 0, 69, 64
2, 457344, Note_on_c, 0, 72, 92
2, 457536, Note_off_c, 0, 72, 64
2, 457536, Note_on_c, 0, 72, 92
2, 457728, Note_off_c, 0, 72, 64
2, 457728, Note_on_c, 0, 78, 92
2, 457920, Note_off_c, 0, 78, 64
2, 457920, Note_on_c, 0, 78, 92
2, 458112, Note_off_c, 0, 78, 64
2, 458112, Note_on_c, 0, 71, 92
2, 458304, Note_off_c, 0, 71, 64
2, 458304, Note_on_c, 0, 71, 92
2, 458496, Note_off_c, 0, 71, 64
2, 458496, Note_on_c, 0, 75, 92
2, 458688, Note_off_c, 0, 75, 64
2, 458688, Note_on_c, 0, 75, 92
2, 458880, Note_off_c, 0, 75, 64
2, 458880, Note_on_c, 0, 78, 92
2, 459072, Note_off_c, 0, 78, 64
2, 459072, Note_on_c, 0, 78, 92
2, 459264, Note_off_c, 0, 78, 64
2, 459264, Note_on_c, 0, 71, 92
2, 459456, Note_off_c, 0, 71, 64
2, 459456, Note_on_c, 0, 71, 92
2, 459648, Note_off_c, 0, 71, 64
2, 459648, Note_on_c, 0, 76, 92
2, 459840, Note_off_c, 0, 76, 64
2, 459840, Note_on_c, 0, 76, 92
2, 460032, Note_off_c, 0, 76, 64
2, 460032, Note_on_c, 0, 79, 92
2, 460224, Note_off_c, 0, 79, 64
2, 460224, Note_on_c, 0, 79, 92
2, 460416, Note_off_c, 0, 79, 64
2, 460416, Note_on_c, 0, 79, 92
2, 460416, Note_on_c, 0, 71, 92
2, 460608, Note_off_c, 0, 71, 64
2, 460608, Note_off_c, 0, 79, 64
2, 460800, Note_on_c, 0, 79, 92
2, 460800, Note_on_c, 0, 71, 92
2, 460992, Note_off_c, 0, 71, 64
2, 460992, Note_off_c, 0, 79, 64
2, 461184, Note_on_c, 0, 79, 92
2, 461184, Note_on_c, 0, 71, 92
2, 461376, Note_off_c, 0, 71, 64
2, 461376, Note_off_c, 0, 79, 64
2, 461568, Note_on_c, 0, 76, 92
2, 461568, Note_on_c, 0, 72, 92
2, 461760, Note_off_c, 0, 72, 64
2, 461760, Note_off_c, 0, 76, 64
2, 461952, Note_on_c, 0, 76, 92
2, 461952, Note_on_c, 0, 72, 92
2, 462144, Note_off_c, 0, 72, 64
2, 462144, Note_off_c, 0, 76, 64
2, 462336, Note_on_c, 0, 76, 92
2, 462336, Note_on_c, 0, 72, 92
2, 462528, Note_off_c, 0, 72, 64
2, 462528, Note_off_c, 0, 76, 64
2, 462720, Note_on_c, 0, 81, 92
2, 462720, Note_on_c, 0, 74, 92
2, 462912, Note_off_c, 0, 74, 64
2, 462912, Note_off_c, 0, 81, 64
2, 463104, Note_on_c, 0, 81, 92
2, 463104, Note_on_c, 0, 74, 92
2, 463296, Note_off_c, 0, 74, 64
2, 463296, Note_off_c, 0, 81, 64
2, 463488, Note_on_c, 0, 81, 92
2, 463488, Note_on_c, 0, 74, 92
2, 463680, Note_off_c, 0, 74, 64
2, 463680, Note_off_c, 0, 81, 64
2, 463872, Note_on_c, 0, 78, 92
2, 463872, Note_on_c, 0, 75, 92
2, 464064, Note_off_c, 0, 75, 64
2, 464064, Note_off_c, 0, 78, 64
2, 464256, Note_on_c, 0, 78, 92
2, 464256, Note_on_c, 0, 75, 92
2, 464448, Note_off_c, 0, 75, 64
2, 464448, Note_off_c, 0, 78, 64
2, 464640, Note_on_c, 0, 78, 92
2, 464640, Note_on_c, 0, 75, 92
2, 464832, Note_off_c, 0, 75, 64
2, 464832, Note_off_c, 0, 78, 64
2, 465024, Note_on_c, 0, 83, 92
2, 465024, Note_on_c, 0, 76, 92
2, 465216, Note_off_c, 0, 76, 64
2, 465216, Note_off_c, 0, 83, 64
2, 465408, Note_on_c, 0, 83, 92
2, 465408, Note_on_c, 0, 76, 92
2, 465600, Note_off_c, 0, 76, 64
2, 465600, Note_off_c, 0, 83, 64
2, 465792, Note_on_c, 0, 83, 92
2, 465792, Note_on_c, 0, 76, 92
2, 465984, Note_off_c, 0, 76, 64
2, 465984, Note_off_c, 0, 83, 64
2, 466176, Note_on_c, 0, 79, 92
2, 466176, Note_on_c, 0, 76, 92
2, 466368, Note_off_c, 0, 76, 64
2, 466368, Note_off_c, 0, 79, 64
2, 466560, Note_on_c, 0, 79, 92
2, 466560, Note_on_c, 0, 76, 92
2, 466752, Note_off_c, 0, 76, 64
2, 466752, Note_off_c, 0, 79, 64
2, 466944, Note_on_c, 0, 79, 92
2, 466944, Note_on_c, 0, 76, 92
2, 467136, Note_off_c, 0, 76, 64
2, 467136, Note_off_c, 0, 79, 64
2, 467328, Note_on_c, 0, 84, 92
2, 467328, Note_on_c, 0, 78, 92
2, 467520, Note_off_c, 0, 78, 64
2, 467520, Note_off_c, 0, 84, 64
2, 467712, Note_on_c, 0, 84, 92
2, 467712, Note_on_c, 0, 78, 92
2, 467904, Note_off_c, 0, 78, 64
2, 467904, Note_off_c, 0, 84, 64
2, 468096, Note_on_c, 0, 84, 92
2, 468096, Note_on_c, 0, 78, 92
2, 468288, Note_off_c, 0, 78, 64
2, 468288, Note_off_c, 0, 84, 64
2, 468480, Note_on_c, 0, 84, 92
2, 468480, Note_on_c, 0, 78, 92
2, 468672, Note_off_c, 0, 78, 64
2, 468672, Note_off_c, 0, 84, 64
2, 468864, Note_on_c, 0, 84, 92
2, 468864, Note_on_c, 0, 78, 92
2, 469056, Note_off_c, 0, 78, 64
2, 469056, Note_off_c, 0, 84, 64
2, 469248, Note_on_c, 0, 84, 92
2, 469248, Note_on_c, 0, 78, 92
2, 469440, Note_off_c, 0, 78, 64
2, 469440, Note_off_c, 0, 84, 64
2, 469632, Note_on_c, 0, 83, 92
2, 469632, Note_on_c, 0, 79, 92
2, 469824, Note_off_c, 0, 79, 64
2, 469824, Note_off_c, 0, 83, 64
2, 470016, Note_on_c, 0, 83, 92
2, 470016, Note_on_c, 0, 79, 92
2, 470208, Note_off_c, 0, 79, 64
2, 470208, Note_off_c, 0, 83, 64
2, 470400, Note_on_c, 0, 83, 92
2, 470400, Note_on_c, 0, 79, 92
2, 470592, Note_off_c, 0, 79, 64
2, 470592, Note_off_c, 0, 83, 64
2, 470784, Note_on_c, 0, 81, 92
2, 470784, Note_on_c, 0, 79, 92
2, 470976, Note_off_c, 0, 79, 64
2, 470976, Note_off_c, 0, 81, 64
2, 471168, Note_on_c, 0, 81, 92
2, 471168, Note_on_c, 0, 79, 92
2, 471360, Note_off_c, 0, 79, 64
2, 471360, Note_off_c, 0, 81, 64
2, 471552, Note_on_c, 0, 81, 92
2, 471552, Note_on_c, 0, 79, 92
2, 471744, Note_off_c, 0, 79, 64
2, 471744, Note_off_c, 0, 81, 64
2, 471936, Note_on_c, 0, 81, 92
2, 471936, Note_on_c, 0, 78, 92
2, 472128, Note_off_c, 0, 78, 64
2, 472128, Note_off_c, 0, 81, 64
2, 472320, Note_on_c, 0, 81, 92
2, 472320, Note_on_c, 0, 78, 92
2, 472512, Note_off_c, 0, 78, 64
2, 472512, Note_off_c, 0, 81, 64
2, 472704, Note_on_c, 0, 81, 92
2, 472704, Note_on_c, 0, 78, 92
2, 472896, Note_off_c, 0, 78, 64
2, 472896, Note_off_c, 0, 81, 64
2, 473088, Note_on_c, 0, 79, 92
2, 473088, Note_on_c, 0, 74, 92
2, 473088, Note_on_c, 0, 71, 92
2, 473088, Note_on_c, 0, 67, 92
2, 473280, Note_off_c, 0, 67, 64
2, 473280, Note_off_c, 0, 71, 64
2, 473280, Note_off_c, 0, 74, 64
2, 473280, Note_off_c, 0, 79, 64
2, 474240, Note_on_c, 0, 71, 92
2, 474336, Note_off_c, 0, 71, 64
2, 474336, Note_on_c, 0, 79, 92
2, 474432, Note_off_c, 0, 79, 64
2, 474432, Note_on_c, 0, 78, 92
2, 474528, Note_off_c, 0, 78, 64
2, 474528, Note_on_c, 0, 79, 92
2, 474624, Note_off_c, 0, 79, 64
2, 474624, Note_on_c, 0, 71, 92
2, 474816, Note_off_c, 0, 71, 64
2, 474816, Note_on_c, 0, 71, 92
2, 475008, Note_off_c, 0, 71, 64
2, 475008, Note_on_c, 0, 69, 92
2, 475200, Note_off_c, 0, 69, 64
2, 475200, Note_on_c, 0, 69, 92
2, 475392, Note_off_c, 0, 69, 64
2, 475392, Note_on_c, 0, 67, 92
2, 475584, Note_off_c, 0, 67, 64
2, 475584, Note_on_c, 0, 69, 92
2, 475776, Note_off_c, 0, 69, 64
2, 475776, Note_on_c, 0, 71, 92
2, 475968, Note_off_c, 0, 71, 64
2, 475968, Note_on_c, 0, 69, 92
2, 476160, Note_off_c, 0, 69, 64
2, 476160, Note_on_c, 0, 71, 92
2, 476352, Note_off_c, 0, 71, 64
2, 476352, Note_on_c, 0, 67, 92
2, 476544, Note_off_c, 0, 67, 64
2, 476544, Note_on_c, 0, 69, 92
2, 476640, Note_off_c, 0, 69, 64
2, 476640, Note_on_c, 0, 78, 92
2, 476736, Note_off_c, 0, 78, 64
2, 476736, Note_on_c, 0, 76, 92
2, 476832, Note_off_c, 0, 76, 64
2, 476832, Note_on_c, 0, 78, 92
2, 476928, Note_off_c, 0, 78, 64
2, 476928, Note_on_c, 0, 69, 92
2, 477120, Note_off_c, 0, 69, 64
2, 477120, Note_on_c, 0, 69, 92
2, 477312, Note_off_c, 0, 69, 64
2, 477312, Note_on_c, 0, 67, 92
2, 477504, Note_off_c, 0, 67, 64
2, 477504, Note_on_c, 0, 67, 92
2, 477696, Note_off_c, 0, 67, 64
2, 477696, Note_on_c, 0, 66, 92
2, 477888, Note_off_c, 0, 66, 64
2, 477888, Note_on_c, 0, 67, 92
2, 478080, Note_off_c, 0, 67, 64
2, 478080, Note_on_c, 0, 69, 92
2, 478272, Note_off_c, 0, 69, 64
2, 478272, Note_on_c, 0, 67, 92
2, 478464, Note_off_c, 0, 67, 64
2, 478464, Note_on_c, 0, 69, 92
2, 478656, Note_off_c, 0, 69, 64
2, 478656, Note_on_c, 0, 66, 92
2, 478848, Note_off_c, 0, 66, 64
2, 478848, Note_on_c, 0, 67, 92
2, 478944, Note_off_c, 0, 67, 64
2, 478944, Note_on_c, 0, 76, 92
2, 479040, Note_off_c, 0, 76, 64
2, 479040, Note_on_c, 0, 74, 92
2, 479136, Note_off_c, 0, 74, 64
2, 479136, Note_on_c, 0, 76, 92
2, 479232, Note_off_c, 0, 76, 64
2, 479232, Note_on_c, 0, 67, 92
2, 479424, Note_off_c, 0, 67, 64
2, 479424, Note_on_c, 0, 67, 92
2, 479616, Note_off_c, 0, 67, 64
2, 479616, Note_on_c, 0, 66, 92
2, 479808, Note_off_c, 0, 66, 64
2, 479808, Note_on_c, 0, 66, 92
2, 480000, Note_off_c, 0, 66, 64
2, 480000, Note_on_c, 0, 64, 92
2, 480192, Note_off_c, 0, 64, 64
2, 480192, Note_on_c, 0, 66, 92
2, 480384, Note_off_c, 0, 66, 64
2, 480384, Note_on_c, 0, 67, 92
2, 480576, Note_off_c, 0, 67, 64
2, 480576, Note_on_c, 0, 66, 92
2, 480768, Note_off_c, 0, 66, 64
2, 480768, Note_on_c, 0, 67, 92
2, 480960, Note_off_c, 0, 67, 64
2, 480960, Note_on_c, 0, 64, 92
2, 481152, Note_off_c, 0, 64, 64
2, 481152, Note_on_c, 0, 66, 92
2, 481248, Note_off_c, 0, 66, 64
2, 481248, Note_on_c, 0, 74, 92
2, 481344, Note_off_c, 0, 74, 64
2, 481344, Note_on_c, 0, 72, 92
2, 481440, Note_off_c, 0, 72, 64
2, 481440, Note_on_c, 0, 74, 92
2, 481536, Note_off_c, 0, 74, 64
2, 481536, Note_on_c, 0, 66, 92
2, 481728, Note_off_c, 0, 66, 64
2, 481728, Note_on_c, 0, 66, 92
2, 481920, Note_off_c, 0, 66, 64
2, 481920, Note_on_c, 0, 64, 92
2, 482112, Note_off_c, 0, 64, 64
2, 482112, Note_on_c, 0, 64, 92
2, 482304, Note_off_c, 0, 64, 64
2, 482304, Note_on_c, 0, 62, 92
2, 482496, Note_off_c, 0, 62, 64
2, 482496, Note_on_c, 0, 64, 92
2, 482688, Note_off_c, 0, 64, 64
2, 482688, Note_on_c, 0, 66, 92
2, 482880, Note_off_c, 0, 66, 64
2, 482880, Note_on_c, 0, 64, 92
2, 483072, Note_off_c, 0, 64, 64
2, 483072, Note_on_c, 0, 66, 92
2, 483264, Note_off_c, 0, 66, 64
2, 483264, Note_on_c, 0, 62, 92
2, 483456, Note_off_c, 0, 62, 64
2, 483456, Note_on_c, 0, 64, 92
2, 483552, Note_off_c, 0, 64, 64
2, 483552, Note_on_c, 0, 72, 92
2, 483648, Note_off_c, 0, 72, 64
2, 483648, Note_on_c, 0, 71, 92
2, 483744, Note_off_c, 0, 71, 64
2, 483744, Note_on_c, 0, 72, 92
2, 483840, Note_off_c, 0, 72, 64
2, 483840, Note_on_c, 0, 64, 92
2, 483936, Note_off_c, 0, 64, 64
2, 483936, Note_on_c, 0, 67, 92
2, 484032, Note_off_c, 0, 67, 64
2, 484032, Note_on_c, 0, 64, 92
2, 484128, Note_off_c, 0, 64, 64
2, 484128, Note_on_c, 0, 67, 92
2, 484224, Note_off_c, 0, 67, 64
2, 484224, Note_on_c, 0, 62, 92
2, 484320, Note_off_c, 0, 62, 64
2, 484320, Note_on_c, 0, 67, 92
2, 484416, Note_off_c, 0, 67, 64
2, 484416, Note_on_c, 0, 62, 92
2, 484512, Note_off_c, 0, 62, 64
2, 484512, Note_on_c, 0, 67, 92
2, 484608, Note_off_c, 0, 67, 64
2, 484608, Note_on_c, 0, 64, 92
2, 484704, Note_off_c, 0, 64, 64
2, 484704, Note_on_c, 0, 67, 92
2, 484800, Note_off_c, 0, 67, 64
2, 484800, Note_on_c, 0, 64, 92
2, 484896, Note_off_c, 0, 64, 64
2, 484896, Note_on_c, 0, 67, 92
2, 484992, Note_off_c, 0, 67, 64
2, 484992, Note_on_c, 0, 60, 92
2, 485088, Note_off_c, 0, 60, 64
2, 485088, Note_on_c, 0, 67, 92
2, 485184, Note_off_c, 0, 67, 64
2, 485184, Note_on_c, 0, 62, 92
2, 485280, Note_off_c, 0, 62, 64
2, 485280, Note_on_c, 0, 67, 92
2, 485376, Note_off_c, 0, 67, 64
2, 485376, Note_on_c, 0, 64, 92
2, 485472, Note_off_c, 0, 64, 64
2, 485472, Note_on_c, 0, 67, 92
2, 485568, Note_off_c, 0, 67, 64
2, 485568, Note_on_c, 0, 60, 92
2, 485664, Note_off_c, 0, 60, 64
2, 485664, Note_on_c, 0, 67, 92
2, 485760, Note_off_c, 0, 67, 64
2, 485760, Note_on_c, 0, 59, 92
2, 485856, Note_off_c, 0, 59, 64
2, 485856, Note_on_c, 0, 62, 92
2, 485952, Note_off_c, 0, 62, 64
2, 485952, Note_on_c, 0, 57, 92
2, 486048, Note_off_c, 0, 57, 64
2, 486048, Note_on_c, 0, 62, 92
2, 486144, Note_off_c, 0, 62, 64
2, 486144, Note_on_c, 0, 55, 92
2, 486240, Note_off_c, 0, 55, 64
2, 486240, Note_on_c, 0, 62, 92
2, 486336, Note_off_c, 0, 62, 64
2, 486336, Note_on_c, 0, 57, 92
2, 486432, Note_off_c, 0, 57, 64
2, 486432, Note_on_c, 0, 62, 92
2, 486528, Note_off_c, 0, 62, 64
2, 486528, Note_on_c, 0, 59, 92
2, 486624, Note_off_c, 0, 59, 64
2, 486624, Note_on_c, 0, 62, 92
2, 486720, Note_off_c, 0, 62, 64
2, 486720, Note_on_c, 0, 55, 92
2, 486816, Note_off_c, 0, 55, 64
2, 486816, Note_on_c, 0, 62, 92
2, 486912, Note_off_c, 0, 62, 64
2, 486912, Note_on_c, 0, 64, 92
2, 487008, Note_off_c, 0, 64, 64
2, 487008, Note_on_c, 0, 67, 92
2, 487104, Note_off_c, 0, 67, 64
2, 487104, Note_on_c, 0, 62, 92
2, 487200, Note_off_c, 0, 62, 64
2, 487200, Note_on_c, 0, 67, 92
2, 487296, Note_off_c, 0, 67, 64
2, 487296, Note_on_c, 0, 60, 92
2, 487392, Note_off_c, 0, 60, 64
2, 487392, Note_on_c, 0, 67, 92
2, 487488, Note_off_c, 0, 67, 64
2, 487488, Note_on_c, 0, 62, 92
2, 487584, Note_off_c, 0, 62, 64
2, 487584, Note_on_c, 0, 67, 92
2, 487680, Note_off_c, 0, 67, 64
2, 487680, Note_on_c, 0, 64, 92
2, 487776, Note_off_c, 0, 64, 64
2, 487776, Note_on_c, 0, 67, 92
2, 487872, Note_off_c, 0, 67, 64
2, 487872, Note_on_c, 0, 60, 92
2, 487968, Note_off_c, 0, 60, 64
2, 487968, Note_on_c, 0, 67, 92
2, 488064, Note_off_c, 0, 67, 64
2, 488064, Note_on_c, 0, 59, 92
2, 488256, Note_off_c, 0, 59, 64
2, 488256, Note_on_c, 0, 67, 92
2, 488448, Note_off_c, 0, 67, 64
2, 488448, Note_on_c, 0, 65, 92
2, 488640, Note_off_c, 0, 65, 64
2, 488640, Note_on_c, 0, 64, 92
2, 488832, Note_off_c, 0, 64, 64
2, 488832, Note_on_c, 0, 62, 92
2, 489024, Note_off_c, 0, 62, 64
2, 489024, Note_on_c, 0, 60, 92
2, 489216, Note_off_c, 0, 60, 64
2, 489216, Note_on_c, 0, 58, 92
2, 489600, Note_off_c, 0, 58, 64
2, 489600, Note_on_c, 0, 60, 92
2, 489648, Note_off_c, 0, 60, 64
2, 489648, Note_on_c, 0, 58, 92
2, 489696, Note_off_c, 0, 58, 64
2, 489696, Note_on_c, 0, 60, 92
2, 489744, Note_off_c, 0, 60, 64
2, 489744, Note_on_c, 0, 58, 92
2, 489792, Note_off_c, 0, 58, 64
2, 489792, Note_on_c, 0, 60, 92
2, 489840, Note_off_c, 0, 60, 64
2, 489840, Note_on_c, 0, 58, 92
2, 489888, Note_off_c, 0, 58, 64
2, 489888, Note_on_c, 0, 60, 92
2, 489936, Note_off_c, 0, 60, 64
2, 489936, Note_on_c, 0, 58, 92
2, 489984, Note_off_c, 0, 58, 64
2, 489984, Note_on_c, 0, 60, 92
2, 490032, Note_off_c, 0, 60, 64
2, 490032, Note_on_c, 0, 58, 92
2, 490080, Note_off_c, 0, 58, 64
2, 490080, Note_on_c, 0, 60, 92
2, 490128, Note_off_c, 0, 60, 64
2, 490128, Note_on_c, 0, 58, 92
2, 490176, Note_off_c, 0, 58, 64
2, 490176, Note_on_c, 0, 60, 92
2, 490224, Note_off_c, 0, 60, 64
2, 490224, Note_on_c, 0, 58, 92
2, 490272, Note_off_c, 0, 58, 64
2, 490272, Note_on_c, 0, 60, 92
2, 490320, Note_off_c, 0, 60, 64
2, 490320, Note_on_c, 0, 58, 92
2, 490368, Note_off_c, 0, 58, 64
2, 490368, Note_on_c, 0, 57, 92
2, 490560, Note_off_c, 0, 57, 64
2, 490560, Note_on_c, 0, 69, 92
2, 490752, Note_off_c, 0, 69, 64
2, 490752, Note_on_c, 0, 67, 92
2, 490944, Note_off_c, 0, 67, 64
2, 490944, Note_on_c, 0, 66, 92
2, 491136, Note_off_c, 0, 66, 64
2, 491136, Note_on_c, 0, 64, 92
2, 491328, Note_off_c, 0, 64, 64
2, 491328, Note_on_c, 0, 62, 92
2, 491520, Note_off_c, 0, 62, 64
2, 491520, Note_on_c, 0, 60, 92
2, 491904, Note_off_c, 0, 60, 64
2, 491904, Note_on_c, 0, 62, 92
2, 491952, Note_off_c, 0, 62, 64
2, 491952, Note_on_c, 0, 60, 92
2, 492000, Note_off_c, 0, 60, 64
2, 492000, Note_on_c, 0, 62, 92
2, 492048, Note_off_c, 0, 62, 64
2, 492048, Note_on_c, 0, 60, 92
2, 492096, Note_off_c, 0, 60, 64
2, 492096, Note_on_c, 0, 62, 92
2, 492144, Note_off_c, 0, 62, 64
2, 492144, Note_on_c, 0, 60, 92
2, 492192, Note_off_c, 0, 60, 64
2, 492192, Note_on_c, 0, 62, 92
2, 492240, Note_off_c, 0, 62, 64
2, 492240, Note_on_c, 0, 60, 92
2, 492288, Note_off_c, 0, 60, 64
2, 492288, Note_on_c, 0, 62, 92
2, 492336, Note_off_c, 0, 62, 64
2, 492336, Note_on_c, 0, 60, 92
2, 492384, Note_off_c, 0, 60, 64
2, 492384, Note_on_c, 0, 62, 92
2, 492432, Note_off_c, 0, 62, 64
2, 492432, Note_on_c, 0, 60, 92
2, 492480, Note_off_c, 0, 60, 64
2, 492480, Note_on_c, 0, 62, 92
2, 492528, Note_off_c, 0, 62, 64
2, 492528, Note_on_c, 0, 60, 92
2, 492576, Note_off_c, 0, 60, 64
2, 492576, Note_on_c, 0, 62, 92
2, 492624, Note_off_c, 0, 62, 64
2, 492624, Note_on_c, 0, 60, 92
2, 492672, Note_off_c, 0, 60, 64
2, 492672, Note_on_c, 0, 59, 92
2, 492864, Note_off_c, 0, 59, 64
2, 492864, Note_on_c, 0, 55, 92
2, 492960, Note_off_c, 0, 55, 64
2, 492960, Note_on_c, 0, 57, 92
2, 493056, Note_off_c, 0, 57, 64
2, 493056, Note_on_c, 0, 59, 92
2, 493152, Note_off_c, 0, 59, 64
2, 493152, Note_on_c, 0, 60, 92
2, 493248, Note_off_c, 0, 60, 64
2, 493248, Note_on_c, 0, 62, 92
2, 493344, Note_off_c, 0, 62, 64
2, 493344, Note_on_c, 0, 64, 92
2, 493440, Note_off_c, 0, 64, 64
2, 493440, Note_on_c, 0, 65, 92
2, 493632, Note_off_c, 0, 65, 64
2, 493632, Note_on_c, 0, 62, 92
2, 493824, Note_off_c, 0, 62, 64
2, 493824, Note_on_c, 0, 63, 92
2, 494016, Note_off_c, 0, 63, 64
2, 494016, Note_on_c, 0, 60, 92
2, 494208, Note_off_c, 0, 60, 64
2, 494208, Note_on_c, 0, 62, 92
2, 494400, Note_off_c, 0, 62, 64
2, 494400, Note_on_c, 0, 63, 92
2, 494592, Note_off_c, 0, 63, 64
2, 494592, Note_on_c, 0, 65, 92
2, 494784, Note_off_c, 0, 65, 64
2, 494784, Note_on_c, 0, 66, 92
2, 494976, Note_off_c, 0, 66, 64
2, 494976, Note_on_c, 0, 67, 92
2, 495168, Note_off_c, 0, 67, 64
2, 495168, Note_on_c, 0, 65, 92
2, 495264, Note_off_c, 0, 65, 64
2, 495264, Note_on_c, 0, 63, 92
2, 495360, Note_off_c, 0, 63, 64
2, 495360, Note_on_c, 0, 62, 92
2, 495552, Note_off_c, 0, 62, 64
2, 495552, Note_on_c, 0, 60, 92
2, 495744, Note_off_c, 0, 60, 64
2, 495744, Note_on_c, 0, 59, 92
2, 495936, Note_off_c, 0, 59, 64
2, 495936, Note_on_c, 0, 57, 92
2, 496128, Note_off_c, 0, 57, 64
2, 496128, Note_on_c, 0, 55, 92
2, 496320, Note_off_c, 0, 55, 64
2, 496320, Note_on_c, 0, 67, 92
2, 496512, Note_off_c, 0, 67, 64
2, 496512, Note_on_c, 0, 68, 92
2, 496704, Note_off_c, 0, 68, 64
2, 496704, Note_on_c, 0, 69, 92
2, 496896, Note_off_c, 0, 69, 64
2, 496896, Note_on_c, 0, 70, 92
2, 497088, Note_off_c, 0, 70, 64
2, 497088, Note_on_c, 0, 71, 92
2, 497280, Note_off_c, 0, 71, 64
2, 497280, Note_on_c, 0, 72, 92
2, 497472, Note_off_c, 0, 72, 64
2, 497472, Note_on_c, 0, 65, 92
2, 497664, Note_off_c, 0, 65, 64
2, 497664, Note_on_c, 0, 65, 92
2, 497760, Note_off_c, 0, 65, 64
2, 497760, Note_on_c, 0, 67, 92
2, 497856, Note_off_c, 0, 67, 64
2, 497856, Note_on_c, 0, 68, 92
2, 497952, Note_off_c, 0, 68, 64
2, 497952, Note_on_c, 0, 68, 92
2, 498000, Note_off_c, 0, 68, 64
2, 498000, Note_on_c, 0, 67, 92
2, 498048, Note_off_c, 0, 67, 64
2, 498048, Note_on_c, 0, 68, 92
2, 498096, Note_off_c, 0, 68, 64
2, 498096, Note_on_c, 0, 67, 92
2, 498144, Note_off_c, 0, 67, 64
2, 498144, Note_on_c, 0, 68, 92
2, 498192, Note_off_c, 0, 68, 64
2, 498192, Note_on_c, 0, 67, 92
2, 498240, Note_off_c, 0, 67, 64
2, 498240, Note_on_c, 0, 65, 92
2, 498432, Note_off_c, 0, 65, 64
2, 498432, Note_on_c, 0, 63, 92
2, 498624, Note_off_c, 0, 63, 64
2, 499584, Note_on_c, 0, 72, 92
2, 499776, Note_off_c, 0, 72, 64
2, 499776, Note_on_c, 0, 72, 92
2, 499968, Note_off_c, 0, 72, 64
2, 499968, Note_on_c, 0, 67, 92
2, 500160, Note_off_c, 0, 67, 64
2, 500160, Note_on_c, 0, 67, 92
2, 500352, Note_off_c, 0, 67, 64
2, 500352, Note_on_c, 0, 64, 92
2, 500544, Note_off_c, 0, 64, 64
2, 500544, Note_on_c, 0, 64, 92
2, 500736, Note_off_c, 0, 64, 64
2, 500736, Note_on_c, 0, 60, 92
2, 501120, Note_off_c, 0, 60, 64
2, 501120, Note_on_c, 0, 60, 92
2, 501120, Note_on_c, 0, 64, 92
2, 501504, Note_off_c, 0, 64, 64
2, 501504, Note_off_c, 0, 60, 64
2, 501504, Note_on_c, 0, 60, 92
2, 501504, Note_on_c, 0, 64, 92
2, 501504, Note_on_c, 0, 67, 92
2, 501888, Note_off_c, 0, 67, 64
2, 501888, Note_off_c, 0, 64, 64
2, 501888, Note_off_c, 0, 60, 64
2, 501888, Note_on_c, 0, 72, 92
2, 501888, Note_on_c, 0, 67, 92
2, 501888, Note_on_c, 0, 64, 92
2, 501888, Note_on_c, 0, 60, 92
2, 502080, Note_off_c, 0, 60, 64
2, 502080, Note_off_c, 0, 64, 64
2, 502080, Note_off_c, 0, 67, 64
2, 502080, Note_off_c, 0, 72, 64
2, 502080, Note_on_c, 0, 72, 92
2, 502272, Note_off_c, 0, 72, 64
2, 502272, Note_on_c, 0, 76, 92
2, 502464, Note_off_c, 0, 76, 64
2, 502464, Note_on_c, 0, 76, 92
2, 502656, Note_off_c, 0, 76, 64
2, 502656, Note_on_c, 0, 79, 92
2, 502848, Note_off_c, 0, 79, 64
2, 502848, Note_on_c, 0, 79, 92
2, 503040, Note_off_c, 0, 79, 64
2, 503040, Note_on_c, 0, 67, 92
2, 503424, Note_off_c, 0, 67, 64
2, 503424, Note_on_c, 0, 67, 92
2, 503424, Note_on_c, 0, 71, 92
2, 503808, Note_off_c, 0, 71, 64
2, 503808, Note_off_c, 0, 67, 64
2, 503808, Note_on_c, 0, 67, 92
2, 503808, Note_on_c, 0, 71, 92
2, 503808, Note_on_c, 0, 74, 92
2, 504192, Note_off_c, 0, 74, 64
2, 504192, Note_off_c, 0, 71, 64
2, 504192, Note_off_c, 0, 67, 64
2, 504192, Note_on_c, 0, 79, 92
2, 504192, Note_on_c, 0, 74, 92
2, 504192, Note_on_c, 0, 71, 92
2, 504384, Note_off_c, 0, 71, 64
2, 504384, Note_off_c, 0, 74, 64
2, 504384, Note_off_c, 0, 79, 64
2, 504384, Note_on_c, 0, 79, 92
2, 504576, Note_off_c, 0, 79, 64
2, 504576, Note_on_c, 0, 74, 92
2, 504768, Note_off_c, 0, 74, 64
2, 504768, Note_on_c, 0, 74, 92
2, 504960, Note_off_c, 0, 74, 64
2, 504960, Note_on_c, 0, 71, 92
2, 505152, Note_off_c, 0, 71, 64
2, 505152, Note_on_c, 0, 71, 92
2, 505344, Note_off_c, 0, 71, 64
2, 505344, Note_on_c, 0, 67, 92
2, 505728, Note_off_c, 0, 67, 64
2, 505728, Note_on_c, 0, 67, 92
2, 505728, Note_on_c, 0, 71, 92
2, 506112, Note_off_c, 0, 71, 64
2, 506112, Note_off_c, 0, 67, 64
2, 506112, Note_on_c, 0, 67, 92
2, 506112, Note_on_c, 0, 71, 92
2, 506112, Note_on_c, 0, 74, 92
2, 506496, Note_off_c, 0, 74, 64
2, 506496, Note_off_c, 0, 71, 64
2, 506496, Note_off_c, 0, 67, 64
2, 506496, Note_on_c, 0, 71, 92
2, 506496, Note_on_c, 0, 67, 92
2, 506496, Note_on_c, 0, 77, 92
2, 506688, Note_off_c, 0, 77, 64
2, 506688, Note_off_c, 0, 67, 64
2, 506688, Note_off_c, 0, 71, 64
2, 506688, Note_on_c, 0, 77, 92
2, 506880, Note_off_c, 0, 77, 64
2, 506880, Note_on_c, 0, 74, 92
2, 507072, Note_off_c, 0, 74, 64
2, 507072, Note_on_c, 0, 74, 92
2, 507264, Note_off_c, 0, 74, 64
2, 507264, Note_on_c, 0, 71, 92
2, 507456, Note_off_c, 0, 71, 64
2, 507456, Note_on_c, 0, 71, 92
2, 507648, Note_off_c, 0, 71, 64
2, 507648, Note_on_c, 0, 67, 92
2, 508032, Note_off_c, 0, 67, 64
2, 508032, Note_on_c, 0, 67, 92
2, 508032, Note_on_c, 0, 71, 92
2, 508416, Note_off_c, 0, 71, 64
2, 508416, Note_off_c, 0, 67, 64
2, 508416, Note_on_c, 0, 67, 92
2, 508416, Note_on_c, 0, 71, 92
2, 508416, Note_on_c, 0, 74, 92
2, 508800, Note_off_c, 0, 74, 64
2, 508800, Note_off_c, 0, 71, 64
2, 508800, Note_off_c, 0, 67, 64
2, 508800, Note_on_c, 0, 76, 92
2, 508800, Note_on_c, 0, 72, 92
2, 508800, Note_on_c, 0, 67, 92
2, 508992, Note_off_c, 0, 67, 64
2, 508992, Note_off_c, 0, 72, 64
2, 508992, Note_off_c, 0, 76, 64
2, 508992, Note_on_c, 0, 72, 92
2, 509184, Note_off_c, 0, 72, 64
2, 509184, Note_on_c, 0, 67, 92
2, 509376, Note_off_c, 0, 67, 64
2, 509376, Note_on_c, 0, 67, 92
2, 509568, Note_off_c, 0, 67, 64
2, 509568, Note_on_c, 0, 64, 92
2, 509760, Note_off_c, 0, 64, 64
2, 509760, Note_on_c, 0, 64, 92
2, 509952, Note_off_c, 0, 64, 64
2, 509952, Note_on_c, 0, 69, 92
2, 510144, Note_off_c, 0, 69, 64
2, 510144, Note_on_c, 0, 69, 92
2, 510336, Note_off_c, 0, 69, 64
2, 510336, Note_on_c, 0, 65, 92
2, 510528, Note_off_c, 0, 65, 64
2, 510528, Note_on_c, 0, 65, 92
2, 510720, Note_off_c, 0, 65, 64
2, 510720, Note_on_c, 0, 62, 92
2, 510912, Note_off_c, 0, 62, 64
2, 510912, Note_on_c, 0, 62, 92
2, 511104, Note_off_c, 0, 62, 64
2, 511104, Note_on_c, 0, 65, 92
2, 511296, Note_off_c, 0, 65, 64
2, 511296, Note_on_c, 0, 65, 92
2, 511488, Note_off_c, 0, 65, 64
2, 511488, Note_on_c, 0, 62, 92
2, 511680, Note_off_c, 0, 62, 64
2, 511680, Note_on_c, 0, 62, 92
2, 511872, Note_off_c, 0, 62, 64
2, 511872, Note_on_c, 0, 59, 92
2, 512064, Note_off_c, 0, 59, 64
2, 512064, Note_on_c, 0, 59, 92
2, 512256, Note_off_c, 0, 59, 64
2, 512256, Note_on_c, 0, 55, 92
2, 512352, Note_off_c, 0, 55, 64
2, 512352, Note_on_c, 0, 67, 92
2, 512448, Note_off_c, 0, 67, 64
2, 512448, Note_on_c, 0, 65, 92
2, 512544, Note_off_c, 0, 65, 64
2, 512544, Note_on_c, 0, 64, 92
2, 512640, Note_off_c, 0, 64, 64
2, 512640, Note_on_c, 0, 62, 92
2, 512736, Note_off_c, 0, 62, 64
2, 512736, Note_on_c, 0, 60, 92
2, 512832, Note_off_c, 0, 60, 64
2, 512832, Note_on_c, 0, 59, 92
2, 512928, Note_off_c, 0, 59, 64
2, 512928, Note_on_c, 0, 57, 92
2, 513024, Note_off_c, 0, 57, 64
2, 513408, Note_on_c, 0, 76, 92
2, 513408, Note_on_c, 0, 72, 92
2, 513408, Note_on_c, 0, 67, 92
2, 513408, Note_on_c, 0, 64, 92
2, 513792, Note_off_c, 0, 64, 64
2, 513792, Note_off_c, 0, 67, 64
2, 513792, Note_off_c, 0, 72, 64
2, 513792, Note_off_c, 0, 76, 64
2, 513792, Note_on_c, 0, 77, 92
2, 513792, Note_on_c, 0, 74, 92
2, 513792, Note_on_c, 0, 71, 92
2, 513792, Note_on_c, 0, 67, 92
2, 514176, Note_off_c, 0, 67, 64
2, 514176, Note_off_c, 0, 71, 64
2, 514176, Note_off_c, 0, 74, 64
2, 514176, Note_off_c, 0, 77, 64
2, 514176, Note_on_c, 0, 74, 92
2, 514176, Note_on_c, 0, 71, 92
2, 514176, Note_on_c, 0, 67, 92
2, 514560, Note_off_c, 0, 67, 64
2, 514560, Note_off_c, 0, 71, 64
2, 514560, Note_off_c, 0, 74, 64
2, 514560, Note_on_c, 0, 76, 92
2, 514560, Note_on_c, 0, 72, 92
2, 514560, Note_on_c, 0, 67, 92
2, 514944, Note_off_c, 0, 67, 64
2, 514944, Note_off_c, 0, 72, 64
2, 514944, Note_off_c, 0, 76, 64
2, 515712, Note_on_c, 0, 64, 92
2, 515712, Note_on_c, 0, 60, 92
2, 516096, Note_off_c, 0, 60, 64
2, 516096, Note_off_c, 0, 64, 64
2, 516096, Note_on_c, 0, 65, 92
2, 516096, Note_on_c, 0, 62, 92
2, 516096, Note_on_c, 0, 59, 92
2, 516480, Note_off_c, 0, 59, 64
2, 516480, Note_off_c, 0, 62, 64
2, 516480, Note_off_c, 0, 65, 64
2, 516480, Note_on_c, 0, 62, 92
2, 516480, Note_on_c, 0, 59, 92
2, 516864, Note_off_c, 0, 59, 64
2, 516864, Note_off_c, 0, 62, 64
2, 516864, Note_on_c, 0, 64, 92
2, 516864, Note_on_c, 0, 60, 92
2, 517248, Note_off_c, 0, 60, 64
2, 517248, Note_off_c, 0, 64, 64
2, 519168, Note_on_c, 0, 60, 92
2, 519264, Note_off_c, 0, 60, 64
2, 519264, Note_on_c, 0, 62, 92
2, 519360, Note_off_c, 0, 62, 64
2, 519360, Note_on_c, 0, 64, 92
2, 519456, Note_off_c, 0, 64, 64
2, 519456, Note_on_c, 0, 65, 92
2, 519552, Note_off_c, 0, 65, 64
2, 519552, Note_on_c, 0, 67, 92
2, 519648, Note_off_c, 0, 67, 64
2, 519648, Note_on_c, 0, 60, 92
2, 519744, Note_off_c, 0, 60, 64
2, 519744, Note_on_c, 0, 62, 92
2, 519840, Note_off_c, 0, 62, 64
2, 519840, Note_on_c, 0, 64, 92
2, 519936, Note_off_c, 0, 64, 64
2, 519936, Note_on_c, 0, 65, 92
2, 520032, Note_off_c, 0, 65, 64
2, 520032, Note_on_c, 0, 67, 92
2, 520128, Note_off_c, 0, 67, 64
2, 520128, Note_on_c, 0, 69, 92
2, 520224, Note_off_c, 0, 69, 64
2, 520224, Note_on_c, 0, 71, 92
2, 520320, Note_off_c, 0, 71, 64
2, 520320, Note_on_c, 0, 72, 92
2, 520608, Note_off_c, 0, 72, 64
2, 520608, Note_on_c, 0, 67, 92
2, 520704, Note_off_c, 0, 67, 64
2, 520704, Note_on_c, 0, 72, 92
2, 520800, Note_off_c, 0, 72, 64
2, 520800, Note_on_c, 0, 64, 92
2, 520896, Note_off_c, 0, 64, 64
2, 520896, Note_on_c, 0, 65, 92
2, 520992, Note_off_c, 0, 65, 64
2, 520992, Note_on_c, 0, 62, 92
2, 521088, Note_off_c, 0, 62, 64
2, 521088, Note_on_c, 0, 64, 92
2, 521184, Note_off_c, 0, 64, 64
2, 521184, Note_on_c, 0, 62, 92
2, 521280, Note_off_c, 0, 62, 64
2, 521280, Note_on_c, 0, 60, 92
2, 521376, Note_off_c, 0, 60, 64
2, 521376, Note_on_c, 0, 67, 92
2, 521472, Note_off_c, 0, 67, 64
2, 521472, Note_on_c, 0, 72, 92
2, 521568, Note_off_c, 0, 72, 64
2, 521568, Note_on_c, 0, 64, 92
2, 521664, Note_off_c, 0, 64, 64
2, 521664, Note_on_c, 0, 65, 92
2, 521760, Note_off_c, 0, 65, 64
2, 521760, Note_on_c, 0, 62, 92
2, 521856, Note_off_c, 0, 62, 64
2, 521856, Note_on_c, 0, 64, 92
2, 521952, Note_off_c, 0, 64, 64
2, 521952, Note_on_c, 0, 62, 92
2, 522048, Note_off_c, 0, 62, 64
2, 522048, Note_on_c, 0, 60, 92
2, 522144, Note_off_c, 0, 60, 64
2, 522144, Note_on_c, 0, 67, 92
2, 522240, Note_off_c, 0, 67, 64
2, 522240, Note_on_c, 0, 72, 92
2, 522336, Note_off_c, 0, 72, 64
2, 522336, Note_on_c, 0, 64, 92
2, 522432, Note_off_c, 0, 64, 64
2, 522432, Note_on_c, 0, 65, 92
2, 522528, Note_off_c, 0, 65, 64
2, 522528, Note_on_c, 0, 62, 92
2, 522624, Note_off_c, 0, 62, 64
2, 522624, Note_on_c, 0, 64, 92
2, 522720, Note_off_c, 0, 64, 64
2, 522720, Note_on_c, 0, 62, 92
2, 522816, Note_off_c, 0, 62, 64
2, 522816, Note_on_c, 0, 60, 92
2, 522912, Note_off_c, 0, 60, 64
2, 525216, Note_on_c, 0, 62, 92
2, 525312, Note_off_c, 0, 62, 64
2, 525312, Note_on_c, 0, 67, 92
2, 525408, Note_off_c, 0, 67, 64
2, 525984, Note_on_c, 0, 62, 92
2, 526080, Note_off_c, 0, 62, 64
2, 526080, Note_on_c, 0, 67, 92
2, 526176, Note_off_c, 0, 67, 64
2, 526752, Note_on_c, 0, 62, 92
2, 526848, Note_off_c, 0, 62, 64
2, 526848, Note_on_c, 0, 67, 92
2, 526944, Note_off_c, 0, 67, 64
2, 533664, Note_on_c, 0, 67, 92
2, 533760, Note_off_c, 0, 67, 64
2, 534048, Note_on_c, 0, 67, 92
2, 534144, Note_off_c, 0, 67, 64
2, 534432, Note_on_c, 0, 67, 92
2, 534528, Note_off_c, 0, 67, 64
2, 534816, Note_on_c, 0, 67, 92
2, 534912, Note_off_c, 0, 67, 64
2, 534912, Note_on_c, 0, 64, 92
2, 535008, Note_off_c, 0, 64, 64
2, 535008, Note_on_c, 0, 60, 92
2, 535104, Note_off_c, 0, 60, 64
2, 535104, Note_on_c, 0, 64, 92
2, 535200, Note_off_c, 0, 64, 64
2, 535200, Note_on_c, 0, 72, 92
2, 535296, Note_off_c, 0, 72, 64
2, 535296, Note_on_c, 0, 64, 92
2, 535392, Note_off_c, 0, 64, 64
2, 535392, Note_on_c, 0, 60, 92
2, 535488, Note_off_c, 0, 60, 64
2, 535488, Note_on_c, 0, 64, 92
2, 535584, Note_off_c, 0, 64, 64
2, 535584, Note_on_c, 0, 72, 92
2, 535680, Note_off_c, 0, 72, 64
2, 535680, Note_on_c, 0, 64, 92
2, 535776, Note_off_c, 0, 64, 64
2, 535776, Note_on_c, 0, 60, 92
2, 535872, Note_off_c, 0, 60, 64
2, 535872, Note_on_c, 0, 64, 92
2, 535968, Note_off_c, 0, 64, 64
2, 535968, Note_on_c, 0, 72, 92
2, 536064, Note_off_c, 0, 72, 64
2, 536064, Note_on_c, 0, 64, 92
2, 536160, Note_off_c, 0, 64, 64
2, 536160, Note_on_c, 0, 60, 92
2, 536256, Note_off_c, 0, 60, 64
2, 536256, Note_on_c, 0, 64, 92
2, 536352, Note_off_c, 0, 64, 64
2, 536352, Note_on_c, 0, 72, 92
2, 536448, Note_off_c, 0, 72, 64
2, 536736, Note_on_c, 0, 65, 92
2, 536832, Note_off_c, 0, 65, 64
2, 537120, Note_on_c, 0, 65, 92
2, 537216, Note_off_c, 0, 65, 64
2, 537504, Note_on_c, 0, 65, 92
2, 537600, Note_off_c, 0, 65, 64
2, 537888, Note_on_c, 0, 65, 92
2, 537984, Note_off_c, 0, 65, 64
2, 537984, Note_on_c, 0, 66, 92
2, 538080, Note_off_c, 0, 66, 64
2, 538080, Note_on_c, 0, 62, 92
2, 538176, Note_off_c, 0, 62, 64
2, 538176, Note_on_c, 0, 66, 92
2, 538272, Note_off_c, 0, 66, 64
2, 538272, Note_on_c, 0, 74, 92
2, 538368, Note_off_c, 0, 74, 64
2, 538368, Note_on_c, 0, 66, 92
2, 538464, Note_off_c, 0, 66, 64
2, 538464, Note_on_c, 0, 62, 92
2, 538560, Note_off_c, 0, 62, 64
2, 538560, Note_on_c, 0, 66, 92
2, 538656, Note_off_c, 0, 66, 64
2, 538656, Note_on_c, 0, 74, 92
2, 538752, Note_off_c, 0, 74, 64
2, 538752, Note_on_c, 0, 66, 92
2, 538848, Note_off_c, 0, 66, 64
2, 538848, Note_on_c, 0, 62, 92
2, 538944, Note_off_c, 0, 62, 64
2, 538944, Note_on_c, 0, 66, 92
2, 539040, Note_off_c, 0, 66, 64
2, 539040, Note_on_c, 0, 74, 92
2, 539136, Note_off_c, 0, 74, 64
2, 539136, Note_on_c, 0, 66, 92
2, 539232, Note_off_c, 0, 66, 64
2, 539232, Note_on_c, 0, 62, 92
2, 539328, Note_off_c, 0, 62, 64
2, 539328, Note_on_c, 0, 66, 92
2, 539424, Note_off_c, 0, 66, 64
2, 539424, Note_on_c, 0, 74, 92
2, 539520, Note_off_c, 0, 74, 64
2, 539808, Note_on_c, 0, 67, 92
2, 539904, Note_off_c, 0, 67, 64
2, 540192, Note_on_c, 0, 67, 92
2, 540288, Note_off_c, 0, 67, 64
2, 540576, Note_on_c, 0, 67, 92
2, 540672, Note_off_c, 0, 67, 64
2, 540960, Note_on_c, 0, 67, 92
2, 541056, Note_off_c, 0, 67, 64
2, 542880, Note_on_c, 0, 65, 92
2, 542976, Note_off_c, 0, 65, 64
2, 543264, Note_on_c, 0, 65, 92
2, 543360, Note_off_c, 0, 65, 64
2, 543648, Note_on_c, 0, 65, 92
2, 543744, Note_off_c, 0, 65, 64
2, 544032, Note_on_c, 0, 65, 92
2, 544128, Note_off_c, 0, 65, 64
2, 544416, Note_on_c, 0, 67, 92
2, 544512, Note_off_c, 0, 67, 64
2, 544800, Note_on_c, 0, 67, 92
2, 544896, Note_off_c, 0, 67, 64
2, 545184, Note_on_c, 0, 67, 92
2, 545280, Note_off_c, 0, 67, 64
2, 545568, Note_on_c, 0, 67, 92
2, 545664, Note_off_c, 0, 67, 64
2, 545664, Note_on_c, 0, 62, 92
2, 545856, Note_off_c, 0, 62, 64
2, 545856, Note_on_c, 0, 64, 92
2, 545952, Note_off_c, 0, 64, 64
2, 545952, Note_on_c, 0, 62, 92
2, 546048, Note_off_c, 0, 62, 64
2, 546048, Note_on_c, 0, 64, 92
2, 546240, Note_off_c, 0, 64, 64
2, 546240, Note_on_c, 0, 64, 92
2, 546432, Note_off_c, 0, 64, 64
2, 546432, Note_on_c, 0, 64, 92
2, 546624, Note_off_c, 0, 64, 64
2, 546624, Note_on_c, 0, 62, 92
2, 546816, Note_off_c, 0, 62, 64
2, 546816, Note_on_c, 0, 62, 92
2, 547008, Note_off_c, 0, 62, 64
2, 547008, Note_on_c, 0, 67, 92
2, 547200, Note_off_c, 0, 67, 64
2, 547200, Note_on_c, 0, 62, 92
2, 547392, Note_off_c, 0, 62, 64
2, 547392, Note_on_c, 0, 64, 92
2, 547488, Note_off_c, 0, 64, 64
2, 547488, Note_on_c, 0, 62, 92
2, 547584, Note_off_c, 0, 62, 64
2, 547584, Note_on_c, 0, 64, 92
2, 547776, Note_off_c, 0, 64, 64
2, 547776, Note_on_c, 0, 64, 92
2, 547968, Note_off_c, 0, 64, 64
2, 547968, Note_on_c, 0, 64, 92
2, 548160, Note_off_c, 0, 64, 64
2, 548160, Note_on_c, 0, 62, 92
2, 548352, Note_off_c, 0, 62, 64
2, 548352, Note_on_c, 0, 62, 92
2, 548544, Note_off_c, 0, 62, 64
2, 551616, Note_on_c, 0, 67, 92
2, 551616, Note_on_c, 0, 64, 92
2, 551808, Note_off_c, 0, 64, 64
2, 551808, Note_off_c, 0, 67, 64
2, 551808, Note_on_c, 0, 69, 92
2, 551808, Note_on_c, 0, 65, 92
2, 552000, Note_off_c, 0, 65, 64
2, 552000, Note_off_c, 0, 69, 64
2, 552000, Note_on_c, 0, 67, 92
2, 552000, Note_on_c, 0, 64, 92
2, 552192, Note_off_c, 0, 64, 64
2, 552192, Note_off_c, 0, 67, 64
2, 552192, Note_on_c, 0, 67, 92
2, 552192, Note_on_c, 0, 64, 92
2, 552384, Note_off_c, 0, 64, 64
2, 552384, Note_off_c, 0, 67, 64
2, 552384, Note_on_c, 0, 72, 92
2, 552384, Note_on_c, 0, 64, 92
2, 552576, Note_off_c, 0, 64, 64
2, 552576, Note_off_c, 0, 72, 64
2, 552576, Note_on_c, 0, 64, 92
2, 552576, Note_on_c, 0, 67, 92
2, 552768, Note_off_c, 0, 67, 64
2, 552768, Note_off_c, 0, 64, 64
2, 552768, Note_on_c, 0, 69, 92
2, 552768, Note_on_c, 0, 65, 92
2, 552864, Note_off_c, 0, 65, 64
2, 552864, Note_off_c, 0, 69, 64
2, 552864, Note_on_c, 0, 67, 92
2, 552864, Note_on_c, 0, 64, 92
2, 552960, Note_off_c, 0, 64, 64
2, 552960, Note_off_c, 0, 67, 64
2, 552960, Note_on_c, 0, 69, 92
2, 552960, Note_on_c, 0, 65, 92
2, 553152, Note_off_c, 0, 65, 64
2, 553152, Note_off_c, 0, 69, 64
2, 553152, Note_on_c, 0, 69, 92
2, 553152, Note_on_c, 0, 65, 92
2, 553344, Note_off_c, 0, 65, 64
2, 553344, Note_off_c, 0, 69, 64
2, 553344, Note_on_c, 0, 69, 92
2, 553344, Note_on_c, 0, 65, 92
2, 553536, Note_off_c, 0, 65, 64
2, 553536, Note_off_c, 0, 69, 64
2, 553536, Note_on_c, 0, 67, 92
2, 553536, Note_on_c, 0, 64, 92
2, 553728, Note_off_c, 0, 64, 64
2, 553728, Note_off_c, 0, 67, 64
2, 553728, Note_on_c, 0, 67, 92
2, 553728, Note_on_c, 0, 64, 92
2, 553920, Note_off_c, 0, 64, 64
2, 553920, Note_off_c, 0, 67, 64
2, 553920, Note_on_c, 0, 72, 92
2, 553920, Note_on_c, 0, 64, 92
2, 554112, Note_off_c, 0, 64, 64
2, 554112, Note_off_c, 0, 72, 64
2, 554112, Note_on_c, 0, 64, 92
2, 554112, Note_on_c, 0, 67, 92
2, 554304, Note_off_c, 0, 67, 64
2, 554304, Note_off_c, 0, 64, 64
2, 554304, Note_on_c, 0, 69, 92
2, 554304, Note_on_c, 0, 65, 92
2, 554400, Note_off_c, 0, 65, 64
2, 554400, Note_off_c, 0, 69, 64
2, 554400, Note_on_c, 0, 67, 92
2, 554400, Note_on_c, 0, 64, 92
2, 554496, Note_off_c, 0, 64, 64
2, 554496, Note_off_c, 0, 67, 64
2, 554496, Note_on_c, 0, 69, 92
2, 554496, Note_on_c, 0, 65, 92
2, 554688, Note_off_c, 0, 65, 64
2, 554688, Note_off_c, 0, 69, 64
2, 554688, Note_on_c, 0, 69, 92
2, 554688, Note_on_c, 0, 65, 92
2, 554880, Note_off_c, 0, 65, 64
2, 554880, Note_off_c, 0, 69, 64
2, 554880, Note_on_c, 0, 65, 92
2, 554880, Note_on_c, 0, 69, 92
2, 555072, Note_off_c, 0, 69, 64
2, 555072, Note_off_c, 0, 65, 64
2, 555072, Note_on_c, 0, 64, 92
2, 555072, Note_on_c, 0, 67, 92
2, 555264, Note_off_c, 0, 67, 64
2, 555264, Note_off_c, 0, 64, 64
2, 555264, Note_on_c, 0, 64, 92
2, 555264, Note_on_c, 0, 67, 92
2, 555456, Note_off_c, 0, 67, 64
2, 555456, Note_off_c, 0, 64, 64
2, 555456, Note_on_c, 0, 60, 92
2, 555648, Note_off_c, 0, 60, 64
2, 555648, Note_on_c, 0, 55, 92
2, 555840, Note_off_c, 0, 55, 64
2, 555840, Note_on_c, 0, 57, 92
2, 555936, Note_off_c, 0, 57, 64
2, 555936, Note_on_c, 0, 55, 92
2, 556032, Note_off_c, 0, 55, 64
2, 556032, Note_on_c, 0, 57, 92
2, 556224, Note_off_c, 0, 57, 64
2, 556224, Note_on_c, 0, 57, 92
2, 556416, Note_off_c, 0, 57, 64
2, 556416, Note_on_c, 0, 57, 92
2, 556608, Note_off_c, 0, 57, 64
2, 556608, Note_on_c, 0, 55, 92
2, 556800, Note_off_c, 0, 55, 64
2, 556800, Note_on_c, 0, 55, 92
2, 556992, Note_off_c, 0, 55, 64
2, 556992, Note_on_c, 0, 60, 92
2, 557184, Note_off_c, 0, 60, 64
2, 557184, Note_on_c, 0, 55, 92
2, 557376, Note_off_c, 0, 55, 64
2, 557376, Note_on_c, 0, 57, 92
2, 557472, Note_off_c, 0, 57, 64
2, 557472, Note_on_c, 0, 55, 92
2, 557568, Note_off_c, 0, 55, 64
2, 557568, Note_on_c, 0, 57, 92
2, 557760, Note_off_c, 0, 57, 64
2, 557760, Note_on_c, 0, 57, 92
2, 557952, Note_off_c, 0, 57, 64
2, 557952, Note_on_c, 0, 57, 92
2, 558144, Note_off_c, 0, 57, 64
2, 558144, Note_on_c, 0, 55, 92
2, 558336, Note_off_c, 0, 55, 64
2, 558336, Note_on_c, 0, 64, 92
2, 558432, Note_off_c, 0, 64, 64
2, 558720, Note_on_c, 0, 60, 92
2, 558912, Note_off_c, 0, 60, 64
2, 558912, Note_on_c, 0, 60, 92
2, 559104, Note_off_c, 0, 60, 64
2, 559104, Note_on_c, 0, 58, 92
2, 559296, Note_off_c, 0, 58, 64
2, 559296, Note_on_c, 0, 58, 92
2, 559488, Note_off_c, 0, 58, 64
2, 559488, Note_on_c, 0, 58, 92
2, 559680, Note_off_c, 0, 58, 64
2, 559680, Note_on_c, 0, 57, 92
2, 559872, Note_off_c, 0, 57, 64
2, 559872, Note_on_c, 0, 62, 92
2, 559968, Note_off_c, 0, 62, 64
2, 560256, Note_on_c, 0, 62, 92
2, 560448, Note_off_c, 0, 62, 64
2, 560448, Note_on_c, 0, 62, 92
2, 560640, Note_off_c, 0, 62, 64
2, 560640, Note_on_c, 0, 60, 92
2, 560832, Note_off_c, 0, 60, 64
2, 560832, Note_on_c, 0, 60, 92
2, 561024, Note_off_c, 0, 60, 64
2, 561024, Note_on_c, 0, 60, 92
2, 561216, Note_off_c, 0, 60, 64
2, 561216, Note_on_c, 0, 59, 92
2, 561408, Note_off_c, 0, 59, 64
2, 561408, Note_on_c, 0, 67, 92
2, 561504, Note_off_c, 0, 67, 64
2, 561792, Note_on_c, 0, 67, 92
2, 561984, Note_off_c, 0, 67, 64
2, 561984, Note_on_c, 0, 67, 92
2, 562176, Note_off_c, 0, 67, 64
2, 562176, Note_on_c, 0, 65, 92
2, 562368, Note_off_c, 0, 65, 64
2, 562368, Note_on_c, 0, 65, 92
2, 562560, Note_off_c, 0, 65, 64
2, 562560, Note_on_c, 0, 65, 92
2, 562752, Note_off_c, 0, 65, 64
2, 562752, Note_on_c, 0, 64, 92
2, 562944, Note_off_c, 0, 64, 64
2, 562944, Note_on_c, 0, 64, 92
2, 563040, Note_off_c, 0, 64, 64
2, 563040, Note_on_c, 0, 67, 92
2, 563136, Note_off_c, 0, 67, 64
2, 563136, Note_on_c, 0, 65, 92
2, 563232, Note_off_c, 0, 65, 64
2, 563232, Note_on_c, 0, 67, 92
2, 563328, Note_off_c, 0, 67, 64
2, 563328, Note_on_c, 0, 60, 92
2, 563424, Note_off_c, 0, 60, 64
2, 563424, Note_on_c, 0, 67, 92
2, 563520, Note_off_c, 0, 67, 64
2, 563520, Note_on_c, 0, 65, 92
2, 563616, Note_off_c, 0, 65, 64
2, 563616, Note_on_c, 0, 67, 92
2, 563712, Note_off_c, 0, 67, 64
2, 563712, Note_on_c, 0, 60, 92
2, 563760, Note_off_c, 0, 60, 64
2, 563760, Note_on_c, 0, 58, 92
2, 563808, Note_off_c, 0, 58, 64
2, 563808, Note_on_c, 0, 60, 92
2, 563856, Note_off_c, 0, 60, 64
2, 563856, Note_on_c, 0, 58, 92
2, 563904, Note_off_c, 0, 58, 64
2, 563904, Note_on_c, 0, 60, 92
2, 563952, Note_off_c, 0, 60, 64
2, 563952, Note_on_c, 0, 58, 92
2, 564000, Note_off_c, 0, 58, 64
2, 564000, Note_on_c, 0, 60, 92
2, 564048, Note_off_c, 0, 60, 64
2, 564048, Note_on_c, 0, 58, 92
2, 564096, Note_off_c, 0, 58, 64
2, 564096, Note_on_c, 0, 57, 92
2, 564192, Note_off_c, 0, 57, 64
2, 564192, Note_on_c, 0, 69, 92
2, 564288, Note_off_c, 0, 69, 64
2, 564288, Note_on_c, 0, 67, 92
2, 564384, Note_off_c, 0, 67, 64
2, 564384, Note_on_c, 0, 69, 92
2, 564480, Note_off_c, 0, 69, 64
2, 564480, Note_on_c, 0, 62, 92
2, 564528, Note_off_c, 0, 62, 64
2, 564528, Note_on_c, 0, 60, 92
2, 564576, Note_off_c, 0, 60, 64
2, 564576, Note_on_c, 0, 62, 92
2, 564624, Note_off_c, 0, 62, 64
2, 564624, Note_on_c, 0, 60, 92
2, 564672, Note_off_c, 0, 60, 64
2, 564672, Note_on_c, 0, 62, 92
2, 564720, Note_off_c, 0, 62, 64
2, 564720, Note_on_c, 0, 60, 92
2, 564768, Note_off_c, 0, 60, 64
2, 564768, Note_on_c, 0, 62, 92
2, 564816, Note_off_c, 0, 62, 64
2, 564816, Note_on_c, 0, 60, 92
2, 564864, Note_off_c, 0, 60, 64
2, 564864, Note_on_c, 0, 59, 92
2, 564960, Note_off_c, 0, 59, 64
2, 564960, Note_on_c, 0, 71, 92
2, 565056, Note_off_c, 0, 71, 64
2, 565056, Note_on_c, 0, 69, 92
2, 565152, Note_off_c, 0, 69, 64
2, 565152, Note_on_c, 0, 71, 92
2, 565248, Note_off_c, 0, 71, 64
2, 565248, Note_on_c, 0, 64, 92
2, 565296, Note_off_c, 0, 64, 64
2, 565296, Note_on_c, 0, 62, 92
2, 565344, Note_off_c, 0, 62, 64
2, 565344, Note_on_c, 0, 64, 92
2, 565392, Note_off_c, 0, 64, 64
2, 565392, Note_on_c, 0, 62, 92
2, 565440, Note_off_c, 0, 62, 64
2, 565440, Note_on_c, 0, 64, 92
2, 565488, Note_off_c, 0, 64, 64
2, 565488, Note_on_c, 0, 62, 92
2, 565536, Note_off_c, 0, 62, 64
2, 565536, Note_on_c, 0, 64, 92
2, 565584, Note_off_c, 0, 64, 64
2, 565584, Note_on_c, 0, 62, 92
2, 565632, Note_off_c, 0, 62, 64
2, 565632, Note_on_c, 0, 60, 92
2, 565728, Note_off_c, 0, 60, 64
2, 565728, Note_on_c, 0, 72, 92
2, 565824, Note_off_c, 0, 72, 64
2, 565824, Note_on_c, 0, 71, 92
2, 565920, Note_off_c, 0, 71, 64
2, 565920, Note_on_c, 0, 72, 92
2, 566016, Note_off_c, 0, 72, 64
2, 566016, Note_on_c, 0, 65, 92
2, 566064, Note_off_c, 0, 65, 64
2, 566064, Note_on_c, 0, 64, 92
2, 566112, Note_off_c, 0, 64, 64
2, 566112, Note_on_c, 0, 65, 92
2, 566160, Note_off_c, 0, 65, 64
2, 566160, Note_on_c, 0, 64, 92
2, 566208, Note_off_c, 0, 64, 64
2, 566208, Note_on_c, 0, 65, 92
2, 566256, Note_off_c, 0, 65, 64
2, 566256, Note_on_c, 0, 64, 92
2, 566304, Note_off_c, 0, 64, 64
2, 566304, Note_on_c, 0, 65, 92
2, 566352, Note_off_c, 0, 65, 64
2, 566352, Note_on_c, 0, 64, 92
2, 566400, Note_off_c, 0, 64, 64
2, 566400, Note_on_c, 0, 62, 92
2, 566496, Note_off_c, 0, 62, 64
2, 566496, Note_on_c, 0, 74, 92
2, 566592, Note_off_c, 0, 74, 64
2, 566592, Note_on_c, 0, 72, 92
2, 566688, Note_off_c, 0, 72, 64
2, 566688, Note_on_c, 0, 74, 92
2, 566784, Note_off_c, 0, 74, 64
2, 566784, Note_on_c, 0, 67, 92
2, 566832, Note_off_c, 0, 67, 64
2, 566832, Note_on_c, 0, 65, 92
2, 566880, Note_off_c, 0, 65, 64
2, 566880, Note_on_c, 0, 67, 92
2, 566928, Note_off_c, 0, 67, 64
2, 566928, Note_on_c, 0, 65, 92
2, 566976, Note_off_c, 0, 65, 64
2, 566976, Note_on_c, 0, 67, 92
2, 567024, Note_off_c, 0, 67, 64
2, 567024, Note_on_c, 0, 65, 92
2, 567072, Note_off_c, 0, 65, 64
2, 567072, Note_on_c, 0, 67, 92
2, 567120, Note_off_c, 0, 67, 64
2, 567120, Note_on_c, 0, 65, 92
2, 567168, Note_off_c, 0, 65, 64
2, 567168, Note_on_c, 0, 64, 92
2, 567264, Note_off_c, 0, 64, 64
2, 567264, Note_on_c, 0, 76, 92
2, 567360, Note_off_c, 0, 76, 64
2, 567360, Note_on_c, 0, 74, 92
2, 567456, Note_off_c, 0, 74, 64
2, 567456, Note_on_c, 0, 76, 92
2, 567552, Note_off_c, 0, 76, 64
2, 567552, Note_on_c, 0, 69, 92
2, 567600, Note_off_c, 0, 69, 64
2, 567600, Note_on_c, 0, 67, 92
2, 567648, Note_off_c, 0, 67, 64
2, 567648, Note_on_c, 0, 69, 92
2, 567696, Note_off_c, 0, 69, 64
2, 567696, Note_on_c, 0, 67, 92
2, 567744, Note_off_c, 0, 67, 64
2, 567744, Note_on_c, 0, 69, 92
2, 567792, Note_off_c, 0, 69, 64
2, 567792, Note_on_c, 0, 67, 92
2, 567840, Note_off_c, 0, 67, 64
2, 567840, Note_on_c, 0, 69, 92
2, 567888, Note_off_c, 0, 69, 64
2, 567888, Note_on_c, 0, 67, 92
2, 567936, Note_off_c, 0, 67, 64
2, 567936, Note_on_c, 0, 65, 92
2, 568032, Note_off_c, 0, 65, 64
2, 568032, Note_on_c, 0, 77, 92
2, 568128, Note_off_c, 0, 77, 64
2, 568128, Note_on_c, 0, 76, 92
2, 568224, Note_off_c, 0, 76, 64
2, 568224, Note_on_c, 0, 77, 92
2, 568320, Note_off_c, 0, 77, 64
2, 568320, Note_on_c, 0, 71, 92
2, 568368, Note_off_c, 0, 71, 64
2, 568368, Note_on_c, 0, 69, 92
2, 568416, Note_off_c, 0, 69, 64
2, 568416, Note_on_c, 0, 71, 92
2, 568464, Note_off_c, 0, 71, 64
2, 568464, Note_on_c, 0, 69, 92
2, 568512, Note_off_c, 0, 69, 64
2, 568512, Note_on_c, 0, 71, 92
2, 568560, Note_off_c, 0, 71, 64
2, 568560, Note_on_c, 0, 69, 92
2, 568608, Note_off_c, 0, 69, 64
2, 568608, Note_on_c, 0, 71, 92
2, 568656, Note_off_c, 0, 71, 64
2, 568656, Note_on_c, 0, 69, 92
2, 568704, Note_off_c, 0, 69, 64
2, 568704, Note_on_c, 0, 67, 92
2, 568800, Note_on_c, 0, 66, 92
2, 568848, Note_off_c, 0, 66, 64
2, 568848, Note_on_c, 0, 64, 92
2, 568896, Note_off_c, 0, 64, 64
2, 568896, Note_on_c, 0, 62, 92
2, 568944, Note_off_c, 0, 62, 64
2, 568944, Note_on_c, 0, 60, 92
2, 568992, Note_off_c, 0, 60, 64
2, 569088, Note_off_c, 0, 67, 64
2, 569280, Note_on_c, 0, 79, 92
2, 569472, Note_off_c, 0, 79, 64
2, 569472, Note_on_c, 0, 79, 92
2, 569664, Note_off_c, 0, 79, 64
2, 569664, Note_on_c, 0, 74, 92
2, 569856, Note_off_c, 0, 74, 64
2, 569856, Note_on_c, 0, 74, 92
2, 570048, Note_off_c, 0, 74, 64
2, 570048, Note_on_c, 0, 79, 92
2, 570240, Note_off_c, 0, 79, 64
2, 570240, Note_on_c, 0, 79, 92
2, 570336, Note_off_c, 0, 79, 64
2, 570336, Note_on_c, 0, 74, 92
2, 570432, Note_off_c, 0, 74, 64
2, 570432, Note_on_c, 0, 79, 92
2, 570528, Note_off_c, 0, 79, 64
2, 570528, Note_on_c, 0, 74, 92
2, 570624, Note_off_c, 0, 74, 64
2, 570624, Note_on_c, 0, 79, 92
2, 570720, Note_off_c, 0, 79, 64
2, 570720, Note_on_c, 0, 74, 92
2, 570816, Note_off_c, 0, 74, 64
2, 570816, Note_on_c, 0, 79, 92
2, 570912, Note_off_c, 0, 79, 64
2, 570912, Note_on_c, 0, 74, 92
2, 571008, Note_off_c, 0, 74, 64
2, 571008, Note_on_c, 0, 77, 92
2, 571056, Note_off_c, 0, 77, 64
2, 571056, Note_on_c, 0, 76, 92
2, 571104, Note_off_c, 0, 76, 64
2, 571104, Note_on_c, 0, 77, 92
2, 571152, Note_off_c, 0, 77, 64
2, 571152, Note_on_c, 0, 76, 92
2, 571200, Note_off_c, 0, 76, 64
2, 571200, Note_on_c, 0, 77, 92
2, 571248, Note_off_c, 0, 77, 64
2, 571248, Note_on_c, 0, 76, 92
2, 571296, Note_off_c, 0, 76, 64
2, 571296, Note_on_c, 0, 77, 92
2, 571344, Note_off_c, 0, 77, 64
2, 571344, Note_on_c, 0, 76, 92
2, 571392, Note_off_c, 0, 76, 64
2, 571392, Note_on_c, 0, 74, 92
2, 571584, Note_off_c, 0, 74, 64
2, 571584, Note_on_c, 0, 79, 92
2, 571776, Note_off_c, 0, 79, 64
2, 571776, Note_on_c, 0, 77, 92
2, 571824, Note_off_c, 0, 77, 64
2, 571824, Note_on_c, 0, 76, 92
2, 571872, Note_off_c, 0, 76, 64
2, 571872, Note_on_c, 0, 77, 92
2, 571920, Note_off_c, 0, 77, 64
2, 571920, Note_on_c, 0, 76, 92
2, 571968, Note_off_c, 0, 76, 64
2, 571968, Note_on_c, 0, 77, 92
2, 572016, Note_off_c, 0, 77, 64
2, 572016, Note_on_c, 0, 76, 92
2, 572064, Note_off_c, 0, 76, 64
2, 572064, Note_on_c, 0, 77, 92
2, 572112, Note_off_c, 0, 77, 64
2, 572112, Note_on_c, 0, 76, 92
2, 572160, Note_off_c, 0, 76, 64
2, 572160, Note_on_c, 0, 74, 92
2, 572352, Note_off_c, 0, 74, 64
2, 572352, Note_on_c, 0, 79, 92
2, 572544, Note_off_c, 0, 79, 64
2, 572544, Note_on_c, 0, 77, 92
2, 572592, Note_off_c, 0, 77, 64
2, 572592, Note_on_c, 0, 76, 92
2, 572640, Note_off_c, 0, 76, 64
2, 572640, Note_on_c, 0, 77, 92
2, 572688, Note_off_c, 0, 77, 64
2, 572688, Note_on_c, 0, 76, 92
2, 572736, Note_off_c, 0, 76, 64
2, 572736, Note_on_c, 0, 77, 92
2, 572784, Note_off_c, 0, 77, 64
2, 572784, Note_on_c, 0, 76, 92
2, 572832, Note_off_c, 0, 76, 64
2, 572832, Note_on_c, 0, 77, 92
2, 572880, Note_off_c, 0, 77, 64
2, 572880, Note_on_c, 0, 76, 92
2, 572928, Note_off_c, 0, 76, 64
2, 572928, Note_on_c, 0, 74, 92
2, 573120, Note_off_c, 0, 74, 64
2, 573120, Note_on_c, 0, 79, 92
2, 573312, Note_off_c, 0, 79, 64
2, 573312, Note_on_c, 0, 79, 92
2, 573408, Note_off_c, 0, 79, 64
2, 573408, Note_on_c, 0, 74, 92
2, 573504, Note_off_c, 0, 74, 64
2, 573504, Note_on_c, 0, 79, 92
2, 573600, Note_off_c, 0, 79, 64
2, 573600, Note_on_c, 0, 74, 92
2, 573696, Note_off_c, 0, 74, 64
2, 573696, Note_on_c, 0, 79, 92
2, 573792, Note_off_c, 0, 79, 64
2, 573792, Note_on_c, 0, 74, 92
2, 573888, Note_off_c, 0, 74, 64
2, 573888, Note_on_c, 0, 79, 92
2, 573984, Note_off_c, 0, 79, 64
2, 573984, Note_on_c, 0, 74, 92
2, 574080, Note_off_c, 0, 74, 64
2, 574080, Note_on_c, 0, 77, 92
2, 574128, Note_off_c, 0, 77, 64
2, 574128, Note_on_c, 0, 75, 92
2, 574176, Note_off_c, 0, 75, 64
2, 574176, Note_on_c, 0, 77, 92
2, 574224, Note_off_c, 0, 77, 64
2, 574224, Note_on_c, 0, 75, 92
2, 574272, Note_off_c, 0, 75, 64
2, 574272, Note_on_c, 0, 77, 92
2, 574320, Note_off_c, 0, 77, 64
2, 574320, Note_on_c, 0, 75, 92
2, 574368, Note_off_c, 0, 75, 64
2, 574368, Note_on_c, 0, 77, 92
2, 574416, Note_off_c, 0, 77, 64
2, 574416, Note_on_c, 0, 75, 92
2, 574464, Note_off_c, 0, 75, 64
2, 574464, Note_on_c, 0, 74, 92
2, 574656, Note_off_c, 0, 74, 64
2, 574656, Note_on_c, 0, 79, 92
2, 574848, Note_off_c, 0, 79, 64
2, 574848, Note_on_c, 0, 77, 92
2, 574896, Note_off_c, 0, 77, 64
2, 574896, Note_on_c, 0, 75, 92
2, 574944, Note_off_c, 0, 75, 64
2, 574944, Note_on_c, 0, 77, 92
2, 574992, Note_off_c, 0, 77, 64
2, 574992, Note_on_c, 0, 75, 92
2, 575040, Note_off_c, 0, 75, 64
2, 575040, Note_on_c, 0, 77, 92
2, 575088, Note_off_c, 0, 77, 64
2, 575088, Note_on_c, 0, 75, 92
2, 575136, Note_off_c, 0, 75, 64
2, 575136, Note_on_c, 0, 77, 92
2, 575184, Note_off_c, 0, 77, 64
2, 575184, Note_on_c, 0, 75, 92
2, 575232, Note_off_c, 0, 75, 64
2, 575232, Note_on_c, 0, 74, 92
2, 575424, Note_off_c, 0, 74, 64
2, 575424, Note_on_c, 0, 79, 92
2, 575616, Note_off_c, 0, 79, 64
2, 575616, Note_on_c, 0, 77, 92
2, 575664, Note_off_c, 0, 77, 64
2, 575664, Note_on_c, 0, 75, 92
2, 575712, Note_off_c, 0, 75, 64
2, 575712, Note_on_c, 0, 77, 92
2, 575760, Note_off_c, 0, 77, 64
2, 575760, Note_on_c, 0, 75, 92
2, 575808, Note_off_c, 0, 75, 64
2, 575808, Note_on_c, 0, 77, 92
2, 575856, Note_off_c, 0, 77, 64
2, 575856, Note_on_c, 0, 75, 92
2, 575904, Note_off_c, 0, 75, 64
2, 575904, Note_on_c, 0, 77, 92
2, 575952, Note_off_c, 0, 77, 64
2, 575952, Note_on_c, 0, 75, 92
2, 576000, Note_off_c, 0, 75, 64
2, 576000, Note_on_c, 0, 74, 92
2, 576192, Note_off_c, 0, 74, 64
2, 576192, Note_on_c, 0, 74, 92
2, 576384, Note_off_c, 0, 74, 64
2, 576384, Note_on_c, 0, 79, 92
2, 576480, Note_off_c, 0, 79, 64
2, 576480, Note_on_c, 0, 77, 92
2, 576576, Note_off_c, 0, 77, 64
2, 576576, Note_on_c, 0, 75, 92
2, 576672, Note_off_c, 0, 75, 64
2, 576672, Note_on_c, 0, 74, 92
2, 576768, Note_off_c, 0, 74, 64
2, 576768, Note_on_c, 0, 79, 92
2, 576864, Note_off_c, 0, 79, 64
2, 576864, Note_on_c, 0, 77, 92
2, 576960, Note_off_c, 0, 77, 64
2, 576960, Note_on_c, 0, 75, 92
2, 577056, Note_off_c, 0, 75, 64
2, 577056, Note_on_c, 0, 74, 92
2, 577152, Note_off_c, 0, 74, 64
2, 577152, Note_on_c, 0, 79, 92
2, 577248, Note_off_c, 0, 79, 64
2, 577248, Note_on_c, 0, 77, 92
2, 577344, Note_off_c, 0, 77, 64
2, 577344, Note_on_c, 0, 75, 92
2, 577440, Note_off_c, 0, 75, 64
2, 577440, Note_on_c, 0, 74, 92
2, 577536, Note_off_c, 0, 74, 64
2, 577536, Note_on_c, 0, 79, 92
2, 577632, Note_off_c, 0, 79, 64
2, 577632, Note_on_c, 0, 77, 92
2, 577728, Note_off_c, 0, 77, 64
2, 577728, Note_on_c, 0, 75, 92
2, 577824, Note_off_c, 0, 75, 64
2, 577824, Note_on_c, 0, 74, 92
2, 577920, Note_off_c, 0, 74, 64
2, 577920, Note_on_c, 0, 72, 92
2, 578016, Note_off_c, 0, 72, 64
2, 578016, Note_on_c, 0, 70, 92
2, 578112, Note_off_c, 0, 70, 64
2, 578112, Note_on_c, 0, 69, 92
2, 578208, Note_off_c, 0, 69, 64
2, 578208, Note_on_c, 0, 67, 92
2, 578304, Note_off_c, 0, 67, 64
2, 578304, Note_on_c, 0, 72, 92
2, 578400, Note_off_c, 0, 72, 64
2, 578400, Note_on_c, 0, 70, 92
2, 578496, Note_off_c, 0, 70, 64
2, 578496, Note_on_c, 0, 69, 92
2, 578592, Note_off_c, 0, 69, 64
2, 578592, Note_on_c, 0, 67, 92
2, 578688, Note_off_c, 0, 67, 64
2, 578688, Note_on_c, 0, 77, 92
2, 578784, Note_off_c, 0, 77, 64
2, 578784, Note_on_c, 0, 75, 92
2, 578880, Note_off_c, 0, 75, 64
2, 578880, Note_on_c, 0, 74, 92
2, 578976, Note_off_c, 0, 74, 64
2, 578976, Note_on_c, 0, 72, 92
2, 579072, Note_off_c, 0, 72, 64
2, 579072, Note_on_c, 0, 77, 92
2, 579168, Note_off_c, 0, 77, 64
2, 579168, Note_on_c, 0, 75, 92
2, 579264, Note_off_c, 0, 75, 64
2, 579264, Note_on_c, 0, 74, 92
2, 579360, Note_off_c, 0, 74, 64
2, 579360, Note_on_c, 0, 72, 92
2, 579456, Note_off_c, 0, 72, 64
2, 579456, Note_on_c, 0, 70, 92
2, 579552, Note_off_c, 0, 70, 64
2, 579552, Note_on_c, 0, 68, 92
2, 579648, Note_off_c, 0, 68, 64
2, 579648, Note_on_c, 0, 67, 92
2, 579744, Note_off_c, 0, 67, 64
2, 579744, Note_on_c, 0, 65, 92
2, 579840, Note_off_c, 0, 65, 64
2, 579840, Note_on_c, 0, 70, 92
2, 579936, Note_off_c, 0, 70, 64
2, 579936, Note_on_c, 0, 68, 92
2, 580032, Note_off_c, 0, 68, 64
2, 580032, Note_on_c, 0, 67, 92
2, 580128, Note_off_c, 0, 67, 64
2, 580128, Note_on_c, 0, 65, 92
2, 580224, Note_off_c, 0, 65, 64
2, 580224, Note_on_c, 0, 75, 92
2, 580320, Note_off_c, 0, 75, 64
2, 580320, Note_on_c, 0, 74, 92
2, 580416, Note_off_c, 0, 74, 64
2, 580416, Note_on_c, 0, 72, 92
2, 580512, Note_off_c, 0, 72, 64
2, 580512, Note_on_c, 0, 70, 92
2, 580608, Note_off_c, 0, 70, 64
2, 580608, Note_on_c, 0, 75, 92
2, 580704, Note_off_c, 0, 75, 64
2, 580704, Note_on_c, 0, 74, 92
2, 580800, Note_off_c, 0, 74, 64
2, 580800, Note_on_c, 0, 72, 92
2, 580896, Note_off_c, 0, 72, 64
2, 580896, Note_on_c, 0, 70, 92
2, 580992, Note_off_c, 0, 70, 64
2, 580992, Note_on_c, 0, 68, 92
2, 581088, Note_off_c, 0, 68, 64
2, 581088, Note_on_c, 0, 67, 92
2, 581184, Note_off_c, 0, 67, 64
2, 581184, Note_on_c, 0, 65, 92
2, 581280, Note_off_c, 0, 65, 64
2, 581280, Note_on_c, 0, 63, 92
2, 581376, Note_off_c, 0, 63, 64
2, 581376, Note_on_c, 0, 68, 92
2, 581472, Note_off_c, 0, 68, 64
2, 581472, Note_on_c, 0, 67, 92
2, 581568, Note_off_c, 0, 67, 64
2, 581568, Note_on_c, 0, 65, 92
2, 581664, Note_off_c, 0, 65, 64
2, 581664, Note_on_c, 0, 63, 92
2, 581760, Note_off_c, 0, 63, 64
2, 581760, Note_on_c, 0, 74, 92
2, 581856, Note_off_c, 0, 74, 64
2, 581856, Note_on_c, 0, 72, 92
2, 581952, Note_off_c, 0, 72, 64
2, 581952, Note_on_c, 0, 71, 92
2, 582048, Note_off_c, 0, 71, 64
2, 582048, Note_on_c, 0, 69, 92
2, 582144, Note_off_c, 0, 69, 64
2, 582144, Note_on_c, 0, 74, 92
2, 582240, Note_off_c, 0, 74, 64
2, 582240, Note_on_c, 0, 72, 92
2, 582336, Note_off_c, 0, 72, 64
2, 582336, Note_on_c, 0, 71, 92
2, 582432, Note_off_c, 0, 71, 64
2, 582432, Note_on_c, 0, 69, 92
2, 582528, Note_off_c, 0, 69, 64
2, 582528, Note_on_c, 0, 71, 92
2, 582624, Note_off_c, 0, 71, 64
2, 582624, Note_on_c, 0, 69, 92
2, 582720, Note_off_c, 0, 69, 64
2, 582720, Note_on_c, 0, 71, 92
2, 582816, Note_off_c, 0, 71, 64
2, 582816, Note_on_c, 0, 69, 92
2, 582912, Note_off_c, 0, 69, 64
2, 582912, Note_on_c, 0, 67, 92
2, 583104, Note_off_c, 0, 67, 64
2, 583104, Note_on_c, 0, 67, 92
2, 583296, Note_off_c, 0, 67, 64
2, 583296, Note_on_c, 0, 68, 92
2, 583424, Note_off_c, 0, 68, 64
2, 583424, Note_on_c, 0, 67, 92
2, 583552, Note_off_c, 0, 67, 64
2, 583552, Note_on_c, 0, 68, 92
2, 583680, Note_off_c, 0, 68, 64
2, 583680, Note_on_c, 0, 68, 92
2, 583808, Note_off_c, 0, 68, 64
2, 583808, Note_on_c, 0, 70, 92
2, 583936, Note_off_c, 0, 70, 64
2, 583936, Note_on_c, 0, 72, 92
2, 584064, Note_off_c, 0, 72, 64
2, 584064, Note_on_c, 0, 69, 92
2, 584192, Note_off_c, 0, 69, 64
2, 584192, Note_on_c, 0, 67, 92
2, 584320, Note_off_c, 0, 67, 64
2, 584320, Note_on_c, 0, 69, 92
2, 584448, Note_off_c, 0, 69, 64
2, 584448, Note_on_c, 0, 69, 92
2, 584576, Note_off_c, 0, 69, 64
2, 584576, Note_on_c, 0, 70, 92
2, 584704, Note_off_c, 0, 70, 64
2, 584704, Note_on_c, 0, 72, 92
2, 584832, Note_off_c, 0, 72, 64
2, 584832, Note_on_c, 0, 70, 92
2, 584960, Note_off_c, 0, 70, 64
2, 584960, Note_on_c, 0, 69, 92
2, 585088, Note_off_c, 0, 69, 64
2, 585088, Note_on_c, 0, 70, 92
2, 585216, Note_off_c, 0, 70, 64
2, 585216, Note_on_c, 0, 70, 92
2, 585344, Note_off_c, 0, 70, 64
2, 585344, Note_on_c, 0, 72, 92
2, 585472, Note_off_c, 0, 72, 64
2, 585472, Note_on_c, 0, 74, 92
2, 585600, Note_off_c, 0, 74, 64
2, 585600, Note_on_c, 0, 71, 92
2, 585728, Note_off_c, 0, 71, 64
2, 585728, Note_on_c, 0, 69, 92
2, 585856, Note_off_c, 0, 69, 64
2, 585856, Note_on_c, 0, 71, 92
2, 585984, Note_off_c, 0, 71, 64
2, 585984, Note_on_c, 0, 71, 92
2, 586112, Note_off_c, 0, 71, 64
2, 586112, Note_on_c, 0, 72, 92
2, 586240, Note_off_c, 0, 72, 64
2, 586240, Note_on_c, 0, 74, 92
2, 586368, Note_off_c, 0, 74, 64
2, 586368, Note_on_c, 0, 72, 92
2, 586496, Note_off_c, 0, 72, 64
2, 586496, Note_on_c, 0, 71, 92
2, 586624, Note_off_c, 0, 71, 64
2, 586624, Note_on_c, 0, 72, 92
2, 586752, Note_off_c, 0, 72, 64
2, 586752, Note_on_c, 0, 72, 92
2, 586880, Note_off_c, 0, 72, 64
2, 586880, Note_on_c, 0, 73, 92
2, 587008, Note_off_c, 0, 73, 64
2, 587008, Note_on_c, 0, 75, 92
2, 587136, Note_off_c, 0, 75, 64
2, 587136, Note_on_c, 0, 73, 92
2, 587264, Note_off_c, 0, 73, 64
2, 587264, Note_on_c, 0, 72, 92
2, 587392, Note_off_c, 0, 72, 64
2, 587392, Note_on_c, 0, 73, 92
2, 587520, Note_off_c, 0, 73, 64
2, 587520, Note_on_c, 0, 73, 92
2, 587648, Note_off_c, 0, 73, 64
2, 587648, Note_on_c, 0, 75, 92
2, 587776, Note_off_c, 0, 75, 64
2, 587776, Note_on_c, 0, 77, 92
2, 587904, Note_off_c, 0, 77, 64
2, 587904, Note_on_c, 0, 74, 92
2, 588032, Note_off_c, 0, 74, 64
2, 588032, Note_on_c, 0, 72, 92
2, 588160, Note_off_c, 0, 72, 64
2, 588160, Note_on_c, 0, 74, 92
2, 588288, Note_off_c, 0, 74, 64
2, 588288, Note_on_c, 0, 74, 92
2, 588416, Note_off_c, 0, 74, 64
2, 588416, Note_on_c, 0, 75, 92
2, 588544, Note_off_c, 0, 75, 64
2, 588544, Note_on_c, 0, 77, 92
2, 588672, Note_off_c, 0, 77, 64
2, 588672, Note_on_c, 0, 75, 92
2, 588800, Note_off_c, 0, 75, 64
2, 588800, Note_on_c, 0, 74, 92
2, 588928, Note_off_c, 0, 74, 64
2, 588928, Note_on_c, 0, 75, 92
2, 589056, Note_off_c, 0, 75, 64
2, 589056, Note_on_c, 0, 77, 92
2, 589184, Note_off_c, 0, 77, 64
2, 589184, Note_on_c, 0, 75, 92
2, 589312, Note_off_c, 0, 75, 64
2, 589312, Note_on_c, 0, 77, 92
2, 589440, Note_off_c, 0, 77, 64
2, 589440, Note_on_c, 0, 79, 92
2, 589536, Note_off_c, 0, 79, 64
2, 589536, Note_on_c, 0, 77, 92
2, 589584, Note_off_c, 0, 77, 64
2, 589584, Note_on_c, 0, 75, 92
2, 589632, Note_off_c, 0, 75, 64
2, 589632, Note_on_c, 0, 74, 92
2, 589680, Note_off_c, 0, 74, 64
2, 589680, Note_on_c, 0, 72, 92
2, 589728, Note_off_c, 0, 72, 64
2, 589728, Note_on_c, 0, 71, 92
2, 589776, Note_off_c, 0, 71, 64
2, 589776, Note_on_c, 0, 69, 92
2, 589824, Note_off_c, 0, 69, 64
2, 589824, Note_on_c, 0, 67, 92
2, 589920, Note_off_c, 0, 67, 64
2, 589920, Note_on_c, 0, 66, 92
2, 589968, Note_off_c, 0, 66, 64
2, 589968, Note_on_c, 0, 64, 92
2, 590016, Note_off_c, 0, 64, 64
2, 590016, Note_on_c, 0, 62, 92
2, 590016, Note_on_c, 0, 79, 92
2, 590064, Note_off_c, 0, 62, 64
2, 590064, Note_on_c, 0, 60, 92
2, 590112, Note_off_c, 0, 60, 64
2, 590208, Note_off_c, 0, 79, 64
2, 590208, Note_on_c, 0, 79, 92
2, 590336, Note_off_c, 0, 79, 64
2, 590336, Note_on_c, 0, 67, 92
2, 590464, Note_off_c, 0, 67, 64
2, 590464, Note_on_c, 0, 79, 92
2, 590592, Note_off_c, 0, 79, 64
2, 590592, Note_on_c, 0, 79, 92
2, 590720, Note_off_c, 0, 79, 64
2, 590720, Note_on_c, 0, 67, 92
2, 590848, Note_off_c, 0, 67, 64
2, 590848, Note_on_c, 0, 79, 92
2, 590976, Note_off_c, 0, 79, 64
2, 590976, Note_on_c, 0, 77, 92
2, 591104, Note_off_c, 0, 77, 64
2, 591104, Note_on_c, 0, 67, 92
2, 591232, Note_off_c, 0, 67, 64
2, 591232, Note_on_c, 0, 77, 92
2, 591360, Note_off_c, 0, 77, 64
2, 591360, Note_on_c, 0, 77, 92
2, 591488, Note_off_c, 0, 77, 64
2, 591488, Note_on_c, 0, 67, 92
2, 591616, Note_off_c, 0, 67, 64
2, 591616, Note_on_c, 0, 77, 92
2, 591744, Note_off_c, 0, 77, 64
2, 591744, Note_on_c, 0, 76, 92
2, 591872, Note_off_c, 0, 76, 64
2, 591872, Note_on_c, 0, 67, 92
2, 592000, Note_off_c, 0, 67, 64
2, 592000, Note_on_c, 0, 76, 92
2, 592128, Note_off_c, 0, 76, 64
2, 592128, Note_on_c, 0, 76, 92
2, 592256, Note_off_c, 0, 76, 64
2, 592256, Note_on_c, 0, 67, 92
2, 592384, Note_off_c, 0, 67, 64
2, 592384, Note_on_c, 0, 76, 92
2, 592512, Note_off_c, 0, 76, 64
2, 592512, Note_on_c, 0, 74, 92
2, 592640, Note_off_c, 0, 74, 64
2, 592640, Note_on_c, 0, 67, 92
2, 592768, Note_off_c, 0, 67, 64
2, 592768, Note_on_c, 0, 74, 92
2, 592896, Note_off_c, 0, 74, 64
2, 592896, Note_on_c, 0, 76, 92
2, 593024, Note_off_c, 0, 76, 64
2, 593024, Note_on_c, 0, 67, 92
2, 593152, Note_off_c, 0, 67, 64
2, 593152, Note_on_c, 0, 76, 92
2, 593280, Note_off_c, 0, 76, 64
2, 593280, Note_on_c, 0, 77, 92
2, 593408, Note_off_c, 0, 77, 64
2, 593408, Note_on_c, 0, 67, 92
2, 593536, Note_off_c, 0, 67, 64
2, 593536, Note_on_c, 0, 77, 92
2, 593664, Note_off_c, 0, 77, 64
2, 593664, Note_on_c, 0, 79, 92
2, 593792, Note_off_c, 0, 79, 64
2, 593792, Note_on_c, 0, 67, 92
2, 593920, Note_off_c, 0, 67, 64
2, 593920, Note_on_c, 0, 79, 92
2, 594048, Note_off_c, 0, 79, 64
2, 594048, Note_on_c, 0, 77, 92
2, 594176, Note_off_c, 0, 77, 64
2, 594176, Note_on_c, 0, 67, 92
2, 594304, Note_off_c, 0, 67, 64
2, 594304, Note_on_c, 0, 77, 92
2, 594432, Note_off_c, 0, 77, 64
2, 594432, Note_on_c, 0, 76, 92
2, 594560, Note_off_c, 0, 76, 64
2, 594560, Note_on_c, 0, 67, 92
2, 594688, Note_off_c, 0, 67, 64
2, 594688, Note_on_c, 0, 76, 92
2, 594816, Note_off_c, 0, 76, 64
2, 594816, Note_on_c, 0, 74, 92
2, 594944, Note_off_c, 0, 74, 64
2, 594944, Note_on_c, 0, 67, 92
2, 595072, Note_off_c, 0, 67, 64
2, 595072, Note_on_c, 0, 74, 92
2, 595200, Note_off_c, 0, 74, 64
2, 595200, Note_on_c, 0, 76, 92
2, 595328, Note_off_c, 0, 76, 64
2, 595328, Note_on_c, 0, 67, 92
2, 595456, Note_off_c, 0, 67, 64
2, 595456, Note_on_c, 0, 76, 92
2, 595584, Note_off_c, 0, 76, 64
2, 595584, Note_on_c, 0, 77, 92
2, 595712, Note_off_c, 0, 77, 64
2, 595712, Note_on_c, 0, 67, 92
2, 595840, Note_off_c, 0, 67, 64
2, 595840, Note_on_c, 0, 77, 92
2, 595968, Note_off_c, 0, 77, 64
2, 595968, Note_on_c, 0, 79, 92
2, 596096, Note_off_c, 0, 79, 64
2, 596096, Note_on_c, 0, 67, 92
2, 596224, Note_off_c, 0, 67, 64
2, 596224, Note_on_c, 0, 79, 92
2, 596352, Note_off_c, 0, 79, 64
2, 596352, Note_on_c, 0, 77, 92
2, 596480, Note_off_c, 0, 77, 64
2, 596480, Note_on_c, 0, 67, 92
2, 596608, Note_off_c, 0, 67, 64
2, 596608, Note_on_c, 0, 77, 92
2, 596736, Note_off_c, 0, 77, 64
2, 596736, Note_on_c, 0, 76, 92
2, 596864, Note_off_c, 0, 76, 64
2, 596864, Note_on_c, 0, 67, 92
2, 596992, Note_off_c, 0, 67, 64
2, 596992, Note_on_c, 0, 76, 92
2, 597120, Note_off_c, 0, 76, 64
2, 597120, Note_on_c, 0, 74, 92
2, 597248, Note_off_c, 0, 74, 64
2, 597248, Note_on_c, 0, 79, 92
2, 597376, Note_off_c, 0, 79, 64
2, 597376, Note_on_c, 0, 77, 92
2, 597504, Note_off_c, 0, 77, 64
2, 597504, Note_on_c, 0, 76, 92
2, 597632, Note_off_c, 0, 76, 64
2, 597632, Note_on_c, 0, 77, 92
2, 597760, Note_off_c, 0, 77, 64
2, 597760, Note_on_c, 0, 79, 92
2, 597888, Note_off_c, 0, 79, 64
2, 597888, Note_on_c, 0, 67, 92
2, 598016, Note_off_c, 0, 67, 64
2, 598016, Note_on_c, 0, 77, 92
2, 598144, Note_off_c, 0, 77, 64
2, 598144, Note_on_c, 0, 76, 92
2, 598272, Note_off_c, 0, 76, 64
2, 598272, Note_on_c, 0, 74, 92
2, 598400, Note_off_c, 0, 74, 64
2, 598400, Note_on_c, 0, 76, 92
2, 598528, Note_off_c, 0, 76, 64
2, 598528, Note_on_c, 0, 77, 92
2, 598656, Note_off_c, 0, 77, 64
2, 598656, Note_on_c, 0, 67, 92
2, 598784, Note_off_c, 0, 67, 64
2, 598784, Note_on_c, 0, 79, 92
2, 598912, Note_off_c, 0, 79, 64
2, 598912, Note_on_c, 0, 77, 92
2, 599040, Note_off_c, 0, 77, 64
2, 599040, Note_on_c, 0, 76, 92
2, 599168, Note_off_c, 0, 76, 64
2, 599168, Note_on_c, 0, 77, 92
2, 599296, Note_off_c, 0, 77, 64
2, 599296, Note_on_c, 0, 79, 92
2, 599424, Note_off_c, 0, 79, 64
2, 599424, Note_on_c, 0, 67, 92
2, 599552, Note_off_c, 0, 67, 64
2, 599552, Note_on_c, 0, 77, 92
2, 599680, Note_off_c, 0, 77, 64
2, 599680, Note_on_c, 0, 76, 92
2, 599808, Note_off_c, 0, 76, 64
2, 599808, Note_on_c, 0, 74, 92
2, 599936, Note_off_c, 0, 74, 64
2, 599936, Note_on_c, 0, 76, 92
2, 600064, Note_off_c, 0, 76, 64
2, 600064, Note_on_c, 0, 77, 92
2, 600192, Note_off_c, 0, 77, 64
2, 600192, Note_on_c, 0, 67, 92
2, 600320, Note_off_c, 0, 67, 64
2, 600320, Note_on_c, 0, 79, 92
2, 600448, Note_off_c, 0, 79, 64
2, 600448, Note_on_c, 0, 77, 92
2, 600576, Note_off_c, 0, 77, 64
2, 600576, Note_on_c, 0, 76, 92
2, 600704, Note_off_c, 0, 76, 64
2, 600704, Note_on_c, 0, 77, 92
2, 600832, Note_off_c, 0, 77, 64
2, 600832, Note_on_c, 0, 79, 92
2, 600960, Note_off_c, 0, 79, 64
2, 600960, Note_on_c, 0, 67, 92
2, 601088, Note_off_c, 0, 67, 64
2, 601088, Note_on_c, 0, 77, 92
2, 601216, Note_off_c, 0, 77, 64
2, 601216, Note_on_c, 0, 76, 92
2, 601344, Note_off_c, 0, 76, 64
2, 601344, Note_on_c, 0, 74, 92
2, 601472, Note_off_c, 0, 74, 64
2, 601472, Note_on_c, 0, 76, 92
2, 601600, Note_off_c, 0, 76, 64
2, 601600, Note_on_c, 0, 77, 92
2, 601728, Note_off_c, 0, 77, 64
2, 601728, Note_on_c, 0, 67, 92
2, 601824, Note_off_c, 0, 67, 64
2, 601824, Note_on_c, 0, 79, 92
2, 601920, Note_off_c, 0, 79, 64
2, 601920, Note_on_c, 0, 67, 92
2, 602016, Note_off_c, 0, 67, 64
2, 602016, Note_on_c, 0, 79, 92
2, 602112, Note_off_c, 0, 79, 64
2, 602112, Note_on_c, 0, 69, 92
2, 602208, Note_off_c, 0, 69, 64
2, 602208, Note_on_c, 0, 79, 92
2, 602304, Note_off_c, 0, 79, 64
2, 602304, Note_on_c, 0, 69, 92
2, 602400, Note_off_c, 0, 69, 64
2, 602400, Note_on_c, 0, 79, 92
2, 602496, Note_off_c, 0, 79, 64
2, 602496, Note_on_c, 0, 71, 92
2, 602592, Note_off_c, 0, 71, 64
2, 602592, Note_on_c, 0, 79, 92
2, 602688, Note_off_c, 0, 79, 64
2, 602688, Note_on_c, 0, 71, 92
2, 602784, Note_off_c, 0, 71, 64
2, 602784, Note_on_c, 0, 79, 92
2, 602880, Note_off_c, 0, 79, 64
2, 602880, Note_on_c, 0, 67, 92
2, 602976, Note_off_c, 0, 67, 64
2, 602976, Note_on_c, 0, 79, 92
2, 603072, Note_off_c, 0, 79, 64
2, 603072, Note_on_c, 0, 67, 92
2, 603168, Note_off_c, 0, 67, 64
2, 603168, Note_on_c, 0, 79, 92
2, 603264, Note_off_c, 0, 79, 64
2, 603264, Note_on_c, 0, 65, 92
2, 603360, Note_off_c, 0, 65, 64
2, 603360, Note_on_c, 0, 79, 92
2, 603456, Note_off_c, 0, 79, 64
2, 603456, Note_on_c, 0, 65, 92
2, 603552, Note_off_c, 0, 65, 64
2, 603552, Note_on_c, 0, 79, 92
2, 603648, Note_off_c, 0, 79, 64
2, 603648, Note_on_c, 0, 67, 92
2, 603744, Note_off_c, 0, 67, 64
2, 603744, Note_on_c, 0, 79, 92
2, 603840, Note_off_c, 0, 79, 64
2, 603840, Note_on_c, 0, 67, 92
2, 603936, Note_off_c, 0, 67, 64
2, 603936, Note_on_c, 0, 79, 92
2, 604032, Note_off_c, 0, 79, 64
2, 604032, Note_on_c, 0, 69, 92
2, 604128, Note_off_c, 0, 69, 64
2, 604128, Note_on_c, 0, 79, 92
2, 604224, Note_off_c, 0, 79, 64
2, 604224, Note_on_c, 0, 69, 92
2, 604320, Note_off_c, 0, 69, 64
2, 604320, Note_on_c, 0, 79, 92
2, 604416, Note_off_c, 0, 79, 64
2, 604416, Note_on_c, 0, 65, 92
2, 604512, Note_off_c, 0, 65, 64
2, 604512, Note_on_c, 0, 79, 92
2, 604608, Note_off_c, 0, 79, 64
2, 604608, Note_on_c, 0, 65, 92
2, 604704, Note_off_c, 0, 65, 64
2, 604704, Note_on_c, 0, 79, 92
2, 604800, Note_off_c, 0, 79, 64
2, 604800, Note_on_c, 0, 64, 92
2, 604896, Note_off_c, 0, 64, 64
2, 604896, Note_on_c, 0, 79, 92
2, 604992, Note_off_c, 0, 79, 64
2, 604992, Note_on_c, 0, 64, 92
2, 605088, Note_off_c, 0, 64, 64
2, 605088, Note_on_c, 0, 79, 92
2, 605184, Note_off_c, 0, 79, 64
2, 605184, Note_on_c, 0, 65, 92
2, 605280, Note_off_c, 0, 65, 64
2, 605280, Note_on_c, 0, 79, 92
2, 605376, Note_off_c, 0, 79, 64
2, 605376, Note_on_c, 0, 65, 92
2, 605472, Note_off_c, 0, 65, 64
2, 605472, Note_on_c, 0, 79, 92
2, 605568, Note_off_c, 0, 79, 64
2, 605568, Note_on_c, 0, 67, 92
2, 605664, Note_off_c, 0, 67, 64
2, 605664, Note_on_c, 0, 79, 92
2, 605760, Note_off_c, 0, 79, 64
2, 605760, Note_on_c, 0, 67, 92
2, 605856, Note_off_c, 0, 67, 64
2, 605856, Note_on_c, 0, 79, 92
2, 605952, Note_off_c, 0, 79, 64
2, 605952, Note_on_c, 0, 64, 92
2, 606048, Note_off_c, 0, 64, 64
2, 606048, Note_on_c, 0, 79, 92
2, 606144, Note_off_c, 0, 79, 64
2, 606144, Note_on_c, 0, 64, 92
2, 606240, Note_off_c, 0, 64, 64
2, 606240, Note_on_c, 0, 79, 92
2, 606336, Note_off_c, 0, 79, 64
2, 606336, Note_on_c, 0, 62, 92
2, 606432, Note_off_c, 0, 62, 64
2, 606432, Note_on_c, 0, 79, 92
2, 606528, Note_off_c, 0, 79, 64
2, 606528, Note_on_c, 0, 62, 92
2, 606624, Note_off_c, 0, 62, 64
2, 606624, Note_on_c, 0, 79, 92
2, 606720, Note_off_c, 0, 79, 64
2, 606720, Note_on_c, 0, 64, 92
2, 606816, Note_off_c, 0, 64, 64
2, 606816, Note_on_c, 0, 79, 92
2, 606912, Note_off_c, 0, 79, 64
2, 606912, Note_on_c, 0, 64, 92
2, 607008, Note_off_c, 0, 64, 64
2, 607008, Note_on_c, 0, 79, 92
2, 607104, Note_off_c, 0, 79, 64
2, 607104, Note_on_c, 0, 65, 92
2, 607200, Note_off_c, 0, 65, 64
2, 607200, Note_on_c, 0, 79, 92
2, 607296, Note_off_c, 0, 79, 64
2, 607296, Note_on_c, 0, 65, 92
2, 607392, Note_off_c, 0, 65, 64
2, 607392, Note_on_c, 0, 79, 92
2, 607488, Note_off_c, 0, 79, 64
2, 607488, Note_on_c, 0, 62, 92
2, 607584, Note_off_c, 0, 62, 64
2, 607584, Note_on_c, 0, 79, 92
2, 607680, Note_off_c, 0, 79, 64
2, 607680, Note_on_c, 0, 62, 92
2, 607776, Note_off_c, 0, 62, 64
2, 607776, Note_on_c, 0, 79, 92
2, 607872, Note_off_c, 0, 79, 64
2, 607872, Note_on_c, 0, 64, 92
2, 607968, Note_off_c, 0, 64, 64
2, 607968, Note_on_c, 0, 79, 92
2, 608064, Note_off_c, 0, 79, 64
2, 608064, Note_on_c, 0, 65, 92
2, 608160, Note_off_c, 0, 65, 64
2, 608160, Note_on_c, 0, 79, 92
2, 608256, Note_off_c, 0, 79, 64
2, 608256, Note_on_c, 0, 67, 92
2, 608352, Note_off_c, 0, 67, 64
2, 608352, Note_on_c, 0, 79, 92
2, 608448, Note_off_c, 0, 79, 64
2, 608448, Note_on_c, 0, 64, 92
2, 608544, Note_off_c, 0, 64, 64
2, 608544, Note_on_c, 0, 79, 92
2, 608640, Note_off_c, 0, 79, 64
2, 608640, Note_on_c, 0, 65, 92
2, 608736, Note_off_c, 0, 65, 64
2, 608736, Note_on_c, 0, 79, 92
2, 608832, Note_off_c, 0, 79, 64
2, 608832, Note_on_c, 0, 67, 92
2, 608928, Note_off_c, 0, 67, 64
2, 608928, Note_on_c, 0, 79, 92
2, 609024, Note_off_c, 0, 79, 64
2, 609024, Note_on_c, 0, 69, 92
2, 609120, Note_off_c, 0, 69, 64
2, 609120, Note_on_c, 0, 79, 92
2, 609216, Note_off_c, 0, 79, 64
2, 609216, Note_on_c, 0, 65, 92
2, 609312, Note_off_c, 0, 65, 64
2, 609312, Note_on_c, 0, 79, 92
2, 609408, Note_off_c, 0, 79, 64
2, 609408, Note_on_c, 0, 67, 92
2, 609504, Note_off_c, 0, 67, 64
2, 609504, Note_on_c, 0, 79, 92
2, 609600, Note_off_c, 0, 79, 64
2, 609600, Note_on_c, 0, 69, 92
2, 609696, Note_off_c, 0, 69, 64
2, 609696, Note_on_c, 0, 79, 92
2, 609792, Note_off_c, 0, 79, 64
2, 609792, Note_on_c, 0, 71, 92
2, 609888, Note_off_c, 0, 71, 64
2, 609888, Note_on_c, 0, 79, 92
2, 609984, Note_off_c, 0, 79, 64
2, 609984, Note_on_c, 0, 67, 92
2, 610080, Note_off_c, 0, 67, 64
2, 610080, Note_on_c, 0, 79, 92
2, 610176, Note_off_c, 0, 79, 64
2, 610176, Note_on_c, 0, 72, 92
2, 610272, Note_off_c, 0, 72, 64
2, 610272, Note_on_c, 0, 79, 92
2, 610368, Note_off_c, 0, 79, 64
2, 610368, Note_on_c, 0, 71, 92
2, 610464, Note_off_c, 0, 71, 64
2, 610464, Note_on_c, 0, 79, 92
2, 610560, Note_off_c, 0, 79, 64
2, 610560, Note_on_c, 0, 72, 92
2, 610656, Note_off_c, 0, 72, 64
2, 610656, Note_on_c, 0, 79, 92
2, 610752, Note_off_c, 0, 79, 64
2, 610752, Note_on_c, 0, 69, 92
2, 610848, Note_off_c, 0, 69, 64
2, 610848, Note_on_c, 0, 79, 92
2, 610944, Note_off_c, 0, 79, 64
2, 610944, Note_on_c, 0, 71, 92
2, 611040, Note_off_c, 0, 71, 64
2, 611040, Note_on_c, 0, 79, 92
2, 611136, Note_off_c, 0, 79, 64
2, 611136, Note_on_c, 0, 69, 92
2, 611232, Note_off_c, 0, 69, 64
2, 611232, Note_on_c, 0, 79, 92
2, 611328, Note_off_c, 0, 79, 64
2, 611328, Note_on_c, 0, 71, 92
2, 611424, Note_off_c, 0, 71, 64
2, 611424, Note_on_c, 0, 79, 92
2, 611520, Note_off_c, 0, 79, 64
2, 611520, Note_on_c, 0, 67, 92
2, 611616, Note_off_c, 0, 67, 64
2, 611616, Note_on_c, 0, 79, 92
2, 611712, Note_off_c, 0, 79, 64
2, 611712, Note_on_c, 0, 72, 92
2, 611808, Note_off_c, 0, 72, 64
2, 611808, Note_on_c, 0, 79, 92
2, 611904, Note_off_c, 0, 79, 64
2, 611904, Note_on_c, 0, 71, 92
2, 612000, Note_off_c, 0, 71, 64
2, 612000, Note_on_c, 0, 79, 92
2, 612096, Note_off_c, 0, 79, 64
2, 612096, Note_on_c, 0, 72, 92
2, 612192, Note_off_c, 0, 72, 64
2, 612192, Note_on_c, 0, 79, 92
2, 612288, Note_off_c, 0, 79, 64
2, 612288, Note_on_c, 0, 69, 92
2, 612384, Note_off_c, 0, 69, 64
2, 612384, Note_on_c, 0, 79, 92
2, 612480, Note_off_c, 0, 79, 64
2, 612480, Note_on_c, 0, 71, 92
2, 612576, Note_off_c, 0, 71, 64
2, 612576, Note_on_c, 0, 79, 92
2, 612672, Note_off_c, 0, 79, 64
2, 612672, Note_on_c, 0, 69, 92
2, 612768, Note_off_c, 0, 69, 64
2, 612768, Note_on_c, 0, 79, 92
2, 612864, Note_off_c, 0, 79, 64
2, 612864, Note_on_c, 0, 71, 92
2, 612960, Note_off_c, 0, 71, 64
2, 612960, Note_on_c, 0, 79, 92
2, 613056, Note_off_c, 0, 79, 64
2, 613056, Note_on_c, 0, 67, 92
2, 613152, Note_off_c, 0, 67, 64
2, 613152, Note_on_c, 0, 79, 92
2, 613248, Note_off_c, 0, 79, 64
2, 613248, Note_on_c, 0, 72, 92
2, 613344, Note_off_c, 0, 72, 64
2, 613344, Note_on_c, 0, 79, 92
2, 613440, Note_off_c, 0, 79, 64
2, 613440, Note_on_c, 0, 71, 92
2, 613536, Note_off_c, 0, 71, 64
2, 613536, Note_on_c, 0, 79, 92
2, 613632, Note_off_c, 0, 79, 64
2, 613632, Note_on_c, 0, 72, 92
2, 613728, Note_off_c, 0, 72, 64
2, 613728, Note_on_c, 0, 79, 92
2, 613824, Note_off_c, 0, 79, 64
2, 613824, Note_on_c, 0, 69, 92
2, 613920, Note_off_c, 0, 69, 64
2, 613920, Note_on_c, 0, 79, 92
2, 614016, Note_off_c, 0, 79, 64
2, 614016, Note_on_c, 0, 71, 92
2, 614112, Note_off_c, 0, 71, 64
2, 614112, Note_on_c, 0, 79, 92
2, 614208, Note_off_c, 0, 79, 64
2, 614208, Note_on_c, 0, 69, 92
2, 614304, Note_off_c, 0, 69, 64
2, 614304, Note_on_c, 0, 79, 92
2, 614400, Note_off_c, 0, 79, 64
2, 614400, Note_on_c, 0, 71, 92
2, 614496, Note_off_c, 0, 71, 64
2, 614496, Note_on_c, 0, 79, 92
2, 614592, Note_off_c, 0, 79, 64
2, 614592, Note_on_c, 0, 69, 92
2, 614688, Note_off_c, 0, 69, 64
2, 614688, Note_on_c, 0, 79, 92
2, 614784, Note_off_c, 0, 79, 64
2, 614784, Note_on_c, 0, 67, 92
2, 614880, Note_off_c, 0, 67, 64
2, 614880, Note_on_c, 0, 74, 92
2, 614976, Note_off_c, 0, 74, 64
2, 614976, Note_on_c, 0, 74, 92
2, 615072, Note_off_c, 0, 74, 64
2, 615072, Note_on_c, 0, 74, 92
2, 615168, Note_off_c, 0, 74, 64
2, 615168, Note_on_c, 0, 74, 92
2, 615264, Note_off_c, 0, 74, 64
2, 615264, Note_on_c, 0, 74, 92
2, 615360, Note_off_c, 0, 74, 64
2, 615360, Note_on_c, 0, 74, 92
2, 615456, Note_off_c, 0, 74, 64
2, 615456, Note_on_c, 0, 74, 92
2, 615552, Note_off_c, 0, 74, 64
2, 615552, Note_on_c, 0, 79, 92
2, 615648, Note_off_c, 0, 79, 64
2, 615648, Note_on_c, 0, 74, 92
2, 615744, Note_off_c, 0, 74, 64
2, 615744, Note_on_c, 0, 74, 92
2, 615840, Note_off_c, 0, 74, 64
2, 615840, Note_on_c, 0, 74, 92
2, 615936, Note_off_c, 0, 74, 64
2, 615936, Note_on_c, 0, 71, 92
2, 616032, Note_off_c, 0, 71, 64
2, 616032, Note_on_c, 0, 74, 92
2, 616128, Note_off_c, 0, 74, 64
2, 616128, Note_on_c, 0, 74, 92
2, 616224, Note_off_c, 0, 74, 64
2, 616224, Note_on_c, 0, 74, 92
2, 616320, Note_off_c, 0, 74, 64
2, 616320, Note_on_c, 0, 67, 92
2, 616416, Note_off_c, 0, 67, 64
2, 616416, Note_on_c, 0, 74, 92
2, 616512, Note_off_c, 0, 74, 64
2, 616512, Note_on_c, 0, 74, 92
2, 616608, Note_off_c, 0, 74, 64
2, 616608, Note_on_c, 0, 74, 92
2, 616704, Note_off_c, 0, 74, 64
2, 616704, Note_on_c, 0, 74, 92
2, 616800, Note_off_c, 0, 74, 64
2, 616800, Note_on_c, 0, 74, 92
2, 616896, Note_off_c, 0, 74, 64
2, 616896, Note_on_c, 0, 74, 92
2, 616992, Note_off_c, 0, 74, 64
2, 616992, Note_on_c, 0, 74, 92
2, 617088, Note_off_c, 0, 74, 64
2, 617088, Note_on_c, 0, 79, 92
2, 617184, Note_off_c, 0, 79, 64
2, 617184, Note_on_c, 0, 74, 92
2, 617280, Note_off_c, 0, 74, 64
2, 617280, Note_on_c, 0, 74, 92
2, 617376, Note_off_c, 0, 74, 64
2, 617376, Note_on_c, 0, 74, 92
2, 617472, Note_off_c, 0, 74, 64
2, 617472, Note_on_c, 0, 71, 92
2, 617568, Note_off_c, 0, 71, 64
2, 617568, Note_on_c, 0, 74, 92
2, 617664, Note_off_c, 0, 74, 64
2, 617664, Note_on_c, 0, 74, 92
2, 617760, Note_off_c, 0, 74, 64
2, 617760, Note_on_c, 0, 74, 92
2, 617856, Note_off_c, 0, 74, 64
2, 617856, Note_on_c, 0, 67, 92
2, 617952, Note_off_c, 0, 67, 64
2, 617952, Note_on_c, 0, 79, 92
2, 618048, Note_off_c, 0, 79, 64
2, 618048, Note_on_c, 0, 74, 92
2, 618144, Note_off_c, 0, 74, 64
2, 618144, Note_on_c, 0, 71, 92
2, 618240, Note_off_c, 0, 71, 64
2, 618240, Note_on_c, 0, 67, 92
2, 618336, Note_off_c, 0, 67, 64
2, 618336, Note_on_c, 0, 79, 92
2, 618432, Note_off_c, 0, 79, 64
2, 618432, Note_on_c, 0, 74, 92
2, 618528, Note_off_c, 0, 74, 64
2, 618528, Note_on_c, 0, 71, 92
2, 618624, Note_off_c, 0, 71, 64
2, 618624, Note_on_c, 0, 67, 92
2, 618720, Note_off_c, 0, 67, 64
2, 618720, Note_on_c, 0, 79, 92
2, 618816, Note_off_c, 0, 79, 64
2, 618816, Note_on_c, 0, 74, 92
2, 618912, Note_off_c, 0, 74, 64
2, 618912, Note_on_c, 0, 71, 92
2, 619008, Note_off_c, 0, 71, 64
2, 619008, Note_on_c, 0, 67, 92
2, 619104, Note_off_c, 0, 67, 64
2, 619104, Note_on_c, 0, 79, 92
2, 619200, Note_off_c, 0, 79, 64
2, 619200, Note_on_c, 0, 74, 92
2, 619296, Note_off_c, 0, 74, 64
2, 619296, Note_on_c, 0, 71, 92
2, 619392, Note_off_c, 0, 71, 64
2, 619392, Note_on_c, 0, 67, 92
2, 619488, Note_off_c, 0, 67, 64
2, 619488, Note_on_c, 0, 79, 92
2, 619584, Note_off_c, 0, 79, 64
2, 619584, Note_on_c, 0, 74, 92
2, 619680, Note_off_c, 0, 74, 64
2, 619680, Note_on_c, 0, 68, 92
2, 619776, Note_off_c, 0, 68, 64
2, 619776, Note_on_c, 0, 67, 92
2, 619872, Note_off_c, 0, 67, 64
2, 619872, Note_on_c, 0, 79, 92
2, 619968, Note_off_c, 0, 79, 64
2, 619968, Note_on_c, 0, 74, 92
2, 620064, Note_off_c, 0, 74, 64
2, 620064, Note_on_c, 0, 68, 92
2, 620160, Note_off_c, 0, 68, 64
2, 620160, Note_on_c, 0, 67, 92
2, 620256, Note_off_c, 0, 67, 64
2, 620256, Note_on_c, 0, 79, 92
2, 620352, Note_off_c, 0, 79, 64
2, 620352, Note_on_c, 0, 74, 92
2, 620448, Note_off_c, 0, 74, 64
2, 620448, Note_on_c, 0, 68, 92
2, 620544, Note_off_c, 0, 68, 64
2, 620544, Note_on_c, 0, 67, 92
2, 620640, Note_off_c, 0, 67, 64
2, 620640, Note_on_c, 0, 79, 92
2, 620736, Note_off_c, 0, 79, 64
2, 620736, Note_on_c, 0, 74, 92
2, 620832, Note_off_c, 0, 74, 64
2, 620832, Note_on_c, 0, 68, 92
2, 620928, Note_off_c, 0, 68, 64
2, 620928, Note_on_c, 0, 67, 92
2, 621024, Note_off_c, 0, 67, 64
2, 621024, Note_on_c, 0, 77, 92
2, 621120, Note_off_c, 0, 77, 64
2, 621120, Note_on_c, 0, 74, 92
2, 621216, Note_off_c, 0, 74, 64
2, 621216, Note_on_c, 0, 68, 92
2, 621312, Note_off_c, 0, 68, 64
2, 621312, Note_on_c, 0, 67, 92
2, 621408, Note_off_c, 0, 67, 64
2, 621408, Note_on_c, 0, 77, 92
2, 621504, Note_off_c, 0, 77, 64
2, 621504, Note_on_c, 0, 74, 92
2, 621600, Note_off_c, 0, 74, 64
2, 621600, Note_on_c, 0, 68, 92
2, 621696, Note_off_c, 0, 68, 64
2, 621696, Note_on_c, 0, 67, 92
2, 621792, Note_off_c, 0, 67, 64
2, 621792, Note_on_c, 0, 77, 92
2, 621888, Note_off_c, 0, 77, 64
2, 621888, Note_on_c, 0, 74, 92
2, 621984, Note_off_c, 0, 74, 64
2, 621984, Note_on_c, 0, 68, 92
2, 622080, Note_off_c, 0, 68, 64
2, 622080, Note_on_c, 0, 67, 92
2, 622176, Note_off_c, 0, 67, 64
2, 622176, Note_on_c, 0, 77, 92
2, 622272, Note_off_c, 0, 77, 64
2, 622272, Note_on_c, 0, 74, 92
2, 622368, Note_off_c, 0, 74, 64
2, 622368, Note_on_c, 0, 68, 92
2, 622464, Note_off_c, 0, 68, 64
2, 622464, Note_on_c, 0, 67, 92
2, 622560, Note_off_c, 0, 67, 64
2, 622560, Note_on_c, 0, 77, 92
2, 622656, Note_off_c, 0, 77, 64
2, 622656, Note_on_c, 0, 74, 92
2, 622752, Note_off_c, 0, 74, 64
2, 622752, Note_on_c, 0, 71, 92
2, 622848, Note_off_c, 0, 71, 64
2, 622848, Note_on_c, 0, 67, 92
2, 622944, Note_off_c, 0, 67, 64
2, 622944, Note_on_c, 0, 77, 92
2, 623040, Note_off_c, 0, 77, 64
2, 623040, Note_on_c, 0, 74, 92
2, 623136, Note_off_c, 0, 74, 64
2, 623136, Note_on_c, 0, 71, 92
2, 623232, Note_off_c, 0, 71, 64
2, 623232, Note_on_c, 0, 67, 92
2, 623328, Note_off_c, 0, 67, 64
2, 623328, Note_on_c, 0, 77, 92
2, 623424, Note_off_c, 0, 77, 64
2, 623424, Note_on_c, 0, 74, 92
2, 623520, Note_off_c, 0, 74, 64
2, 623520, Note_on_c, 0, 71, 92
2, 623616, Note_off_c, 0, 71, 64
2, 623616, Note_on_c, 0, 67, 92
2, 623712, Note_off_c, 0, 67, 64
2, 623712, Note_on_c, 0, 77, 92
2, 623808, Note_off_c, 0, 77, 64
2, 623808, Note_on_c, 0, 74, 92
2, 623904, Note_off_c, 0, 74, 64
2, 623904, Note_on_c, 0, 71, 92
2, 624000, Note_off_c, 0, 71, 64
2, 624000, Note_on_c, 0, 67, 92
2, 624096, Note_off_c, 0, 67, 64
2, 624096, Note_on_c, 0, 79, 92
2, 624192, Note_off_c, 0, 79, 64
2, 624192, Note_on_c, 0, 76, 92
2, 624288, Note_off_c, 0, 76, 64
2, 624288, Note_on_c, 0, 72, 92
2, 624384, Note_off_c, 0, 72, 64
2, 624384, Note_on_c, 0, 67, 92
2, 624480, Note_off_c, 0, 67, 64
2, 624480, Note_on_c, 0, 79, 92
2, 624576, Note_off_c, 0, 79, 64
2, 624576, Note_on_c, 0, 76, 92
2, 624672, Note_off_c, 0, 76, 64
2, 624672, Note_on_c, 0, 72, 92
2, 624768, Note_off_c, 0, 72, 64
2, 624768, Note_on_c, 0, 67, 92
2, 624864, Note_off_c, 0, 67, 64
2, 624864, Note_on_c, 0, 79, 92
2, 624960, Note_off_c, 0, 79, 64
2, 624960, Note_on_c, 0, 76, 92
2, 625056, Note_off_c, 0, 76, 64
2, 625056, Note_on_c, 0, 72, 92
2, 625152, Note_off_c, 0, 72, 64
2, 625152, Note_on_c, 0, 67, 92
2, 625248, Note_off_c, 0, 67, 64
2, 625248, Note_on_c, 0, 79, 92
2, 625344, Note_off_c, 0, 79, 64
2, 625344, Note_on_c, 0, 76, 92
2, 625440, Note_off_c, 0, 76, 64
2, 625440, Note_on_c, 0, 72, 92
2, 625536, Note_off_c, 0, 72, 64
2, 625536, Note_on_c, 0, 67, 92
2, 625632, Note_off_c, 0, 67, 64
2, 625632, Note_on_c, 0, 79, 92
2, 625728, Note_off_c, 0, 79, 64
2, 625728, Note_on_c, 0, 76, 92
2, 625824, Note_off_c, 0, 76, 64
2, 625824, Note_on_c, 0, 70, 92
2, 625920, Note_off_c, 0, 70, 64
2, 625920, Note_on_c, 0, 67, 92
2, 626016, Note_off_c, 0, 67, 64
2, 626016, Note_on_c, 0, 79, 92
2, 626112, Note_off_c, 0, 79, 64
2, 626112, Note_on_c, 0, 76, 92
2, 626208, Note_off_c, 0, 76, 64
2, 626208, Note_on_c, 0, 70, 92
2, 626304, Note_off_c, 0, 70, 64
2, 626304, Note_on_c, 0, 67, 92
2, 626400, Note_off_c, 0, 67, 64
2, 626400, Note_on_c, 0, 79, 92
2, 626496, Note_off_c, 0, 79, 64
2, 626496, Note_on_c, 0, 76, 92
2, 626592, Note_off_c, 0, 76, 64
2, 626592, Note_on_c, 0, 70, 92
2, 626688, Note_off_c, 0, 70, 64
2, 626688, Note_on_c, 0, 67, 92
2, 626784, Note_off_c, 0, 67, 64
2, 626784, Note_on_c, 0, 79, 92
2, 626880, Note_off_c, 0, 79, 64
2, 626880, Note_on_c, 0, 76, 92
2, 626976, Note_off_c, 0, 76, 64
2, 626976, Note_on_c, 0, 70, 92
2, 627072, Note_off_c, 0, 70, 64
2, 627072, Note_on_c, 0, 65, 92
2, 627168, Note_off_c, 0, 65, 64
2, 627168, Note_on_c, 0, 77, 92
2, 627264, Note_off_c, 0, 77, 64
2, 627264, Note_on_c, 0, 72, 92
2, 627360, Note_off_c, 0, 72, 64
2, 627360, Note_on_c, 0, 69, 92
2, 627456, Note_off_c, 0, 69, 64
2, 627456, Note_on_c, 0, 65, 92
2, 627552, Note_off_c, 0, 65, 64
2, 627552, Note_on_c, 0, 77, 92
2, 627648, Note_off_c, 0, 77, 64
2, 627648, Note_on_c, 0, 72, 92
2, 627744, Note_off_c, 0, 72, 64
2, 627744, Note_on_c, 0, 69, 92
2, 627840, Note_off_c, 0, 69, 64
2, 627840, Note_on_c, 0, 65, 92
2, 627936, Note_off_c, 0, 65, 64
2, 627936, Note_on_c, 0, 77, 92
2, 628032, Note_off_c, 0, 77, 64
2, 628032, Note_on_c, 0, 72, 92
2, 628128, Note_off_c, 0, 72, 64
2, 628128, Note_on_c, 0, 69, 92
2, 628224, Note_off_c, 0, 69, 64
2, 628224, Note_on_c, 0, 65, 92
2, 628320, Note_off_c, 0, 65, 64
2, 628320, Note_on_c, 0, 77, 92
2, 628416, Note_off_c, 0, 77, 64
2, 628416, Note_on_c, 0, 72, 92
2, 628512, Note_off_c, 0, 72, 64
2, 628512, Note_on_c, 0, 69, 92
2, 628608, Note_off_c, 0, 69, 64
2, 628608, Note_on_c, 0, 65, 92
2, 628704, Note_off_c, 0, 65, 64
2, 628704, Note_on_c, 0, 77, 92
2, 628800, Note_off_c, 0, 77, 64
2, 628800, Note_on_c, 0, 72, 92
2, 628896, Note_off_c, 0, 72, 64
2, 628896, Note_on_c, 0, 66, 92
2, 628992, Note_off_c, 0, 66, 64
2, 628992, Note_on_c, 0, 65, 92
2, 629088, Note_off_c, 0, 65, 64
2, 629088, Note_on_c, 0, 77, 92
2, 629184, Note_off_c, 0, 77, 64
2, 629184, Note_on_c, 0, 72, 92
2, 629280, Note_off_c, 0, 72, 64
2, 629280, Note_on_c, 0, 66, 92
2, 629376, Note_off_c, 0, 66, 64
2, 629376, Note_on_c, 0, 65, 92
2, 629472, Note_off_c, 0, 65, 64
2, 629472, Note_on_c, 0, 77, 92
2, 629568, Note_off_c, 0, 77, 64
2, 629568, Note_on_c, 0, 72, 92
2, 629664, Note_off_c, 0, 72, 64
2, 629664, Note_on_c, 0, 66, 92
2, 629760, Note_off_c, 0, 66, 64
2, 629760, Note_on_c, 0, 65, 92
2, 629856, Note_off_c, 0, 65, 64
2, 629856, Note_on_c, 0, 77, 92
2, 629952, Note_off_c, 0, 77, 64
2, 629952, Note_on_c, 0, 72, 92
2, 630048, Note_off_c, 0, 72, 64
2, 630048, Note_on_c, 0, 66, 92
2, 630144, Note_off_c, 0, 66, 64
2, 630144, Note_on_c, 0, 65, 92
2, 630240, Note_off_c, 0, 65, 64
2, 630240, Note_on_c, 0, 75, 92
2, 630336, Note_off_c, 0, 75, 64
2, 630336, Note_on_c, 0, 72, 92
2, 630432, Note_off_c, 0, 72, 64
2, 630432, Note_on_c, 0, 66, 92
2, 630528, Note_off_c, 0, 66, 64
2, 630528, Note_on_c, 0, 65, 92
2, 630624, Note_off_c, 0, 65, 64
2, 630624, Note_on_c, 0, 75, 92
2, 630720, Note_off_c, 0, 75, 64
2, 630720, Note_on_c, 0, 72, 92
2, 630816, Note_off_c, 0, 72, 64
2, 630816, Note_on_c, 0, 66, 92
2, 630912, Note_off_c, 0, 66, 64
2, 630912, Note_on_c, 0, 65, 92
2, 631008, Note_off_c, 0, 65, 64
2, 631008, Note_on_c, 0, 75, 92
2, 631104, Note_off_c, 0, 75, 64
2, 631104, Note_on_c, 0, 72, 92
2, 631200, Note_off_c, 0, 72, 64
2, 631200, Note_on_c, 0, 66, 92
2, 631296, Note_off_c, 0, 66, 64
2, 631296, Note_on_c, 0, 65, 92
2, 631392, Note_off_c, 0, 65, 64
2, 631392, Note_on_c, 0, 75, 92
2, 631488, Note_off_c, 0, 75, 64
2, 631488, Note_on_c, 0, 72, 92
2, 631584, Note_off_c, 0, 72, 64
2, 631584, Note_on_c, 0, 66, 92
2, 631680, Note_off_c, 0, 66, 64
2, 631680, Note_on_c, 0, 65, 92
2, 631776, Note_off_c, 0, 65, 64
2, 631776, Note_on_c, 0, 75, 92
2, 631872, Note_off_c, 0, 75, 64
2, 631872, Note_on_c, 0, 72, 92
2, 631968, Note_off_c, 0, 72, 64
2, 631968, Note_on_c, 0, 69, 92
2, 632064, Note_off_c, 0, 69, 64
2, 632064, Note_on_c, 0, 65, 92
2, 632160, Note_off_c, 0, 65, 64
2, 632160, Note_on_c, 0, 75, 92
2, 632256, Note_off_c, 0, 75, 64
2, 632256, Note_on_c, 0, 72, 92
2, 632352, Note_off_c, 0, 72, 64
2, 632352, Note_on_c, 0, 69, 92
2, 632448, Note_off_c, 0, 69, 64
2, 632448, Note_on_c, 0, 65, 92
2, 632544, Note_off_c, 0, 65, 64
2, 632544, Note_on_c, 0, 75, 92
2, 632640, Note_off_c, 0, 75, 64
2, 632640, Note_on_c, 0, 72, 92
2, 632736, Note_off_c, 0, 72, 64
2, 632736, Note_on_c, 0, 69, 92
2, 632832, Note_off_c, 0, 69, 64
2, 632832, Note_on_c, 0, 65, 92
2, 632928, Note_off_c, 0, 65, 64
2, 632928, Note_on_c, 0, 75, 92
2, 633024, Note_off_c, 0, 75, 64
2, 633024, Note_on_c, 0, 72, 92
2, 633120, Note_off_c, 0, 72, 64
2, 633120, Note_on_c, 0, 69, 92
2, 633216, Note_off_c, 0, 69, 64
2, 633216, Note_on_c, 0, 65, 92
2, 633312, Note_off_c, 0, 65, 64
2, 633312, Note_on_c, 0, 77, 92
2, 633408, Note_off_c, 0, 77, 64
2, 633408, Note_on_c, 0, 74, 92
2, 633504, Note_off_c, 0, 74, 64
2, 633504, Note_on_c, 0, 70, 92
2, 633600, Note_off_c, 0, 70, 64
2, 633600, Note_on_c, 0, 65, 92
2, 633696, Note_off_c, 0, 65, 64
2, 633696, Note_on_c, 0, 77, 92
2, 633792, Note_off_c, 0, 77, 64
2, 633792, Note_on_c, 0, 74, 92
2, 633888, Note_off_c, 0, 74, 64
2, 633888, Note_on_c, 0, 70, 92
2, 633984, Note_off_c, 0, 70, 64
2, 633984, Note_on_c, 0, 65, 92
2, 634080, Note_off_c, 0, 65, 64
2, 634080, Note_on_c, 0, 77, 92
2, 634176, Note_off_c, 0, 77, 64
2, 634176, Note_on_c, 0, 74, 92
2, 634272, Note_off_c, 0, 74, 64
2, 634272, Note_on_c, 0, 70, 92
2, 634368, Note_off_c, 0, 70, 64
2, 634368, Note_on_c, 0, 65, 92
2, 634464, Note_off_c, 0, 65, 64
2, 634464, Note_on_c, 0, 77, 92
2, 634560, Note_off_c, 0, 77, 64
2, 634560, Note_on_c, 0, 74, 92
2, 634656, Note_off_c, 0, 74, 64
2, 634656, Note_on_c, 0, 70, 92
2, 634752, Note_off_c, 0, 70, 64
2, 634752, Note_on_c, 0, 65, 92
2, 634848, Note_off_c, 0, 65, 64
2, 634848, Note_on_c, 0, 77, 92
2, 634944, Note_off_c, 0, 77, 64
2, 634944, Note_on_c, 0, 74, 92
2, 635040, Note_off_c, 0, 74, 64
2, 635040, Note_on_c, 0, 68, 92
2, 635136, Note_off_c, 0, 68, 64
2, 635136, Note_on_c, 0, 65, 92
2, 635232, Note_off_c, 0, 65, 64
2, 635232, Note_on_c, 0, 77, 92
2, 635328, Note_off_c, 0, 77, 64
2, 635328, Note_on_c, 0, 74, 92
2, 635424, Note_off_c, 0, 74, 64
2, 635424, Note_on_c, 0, 68, 92
2, 635520, Note_off_c, 0, 68, 64
2, 635520, Note_on_c, 0, 65, 92
2, 635616, Note_off_c, 0, 65, 64
2, 635616, Note_on_c, 0, 77, 92
2, 635712, Note_off_c, 0, 77, 64
2, 635712, Note_on_c, 0, 74, 92
2, 635808, Note_off_c, 0, 74, 64
2, 635808, Note_on_c, 0, 68, 92
2, 635904, Note_off_c, 0, 68, 64
2, 635904, Note_on_c, 0, 65, 92
2, 636000, Note_off_c, 0, 65, 64
2, 636000, Note_on_c, 0, 77, 92
2, 636096, Note_off_c, 0, 77, 64
2, 636096, Note_on_c, 0, 74, 92
2, 636192, Note_off_c, 0, 74, 64
2, 636192, Note_on_c, 0, 68, 92
2, 636288, Note_off_c, 0, 68, 64
2, 636288, Note_on_c, 0, 63, 92
2, 636384, Note_off_c, 0, 63, 64
2, 636384, Note_on_c, 0, 75, 92
2, 636480, Note_off_c, 0, 75, 64
2, 636480, Note_on_c, 0, 70, 92
2, 636576, Note_off_c, 0, 70, 64
2, 636576, Note_on_c, 0, 67, 92
2, 636672, Note_off_c, 0, 67, 64
2, 636672, Note_on_c, 0, 63, 92
2, 636768, Note_off_c, 0, 63, 64
2, 636768, Note_on_c, 0, 75, 92
2, 636864, Note_off_c, 0, 75, 64
2, 636864, Note_on_c, 0, 70, 92
2, 636960, Note_off_c, 0, 70, 64
2, 636960, Note_on_c, 0, 67, 92
2, 637056, Note_off_c, 0, 67, 64
2, 637056, Note_on_c, 0, 63, 92
2, 637152, Note_off_c, 0, 63, 64
2, 637152, Note_on_c, 0, 75, 92
2, 637248, Note_off_c, 0, 75, 64
2, 637248, Note_on_c, 0, 70, 92
2, 637344, Note_off_c, 0, 70, 64
2, 637344, Note_on_c, 0, 67, 92
2, 637440, Note_off_c, 0, 67, 64
2, 637440, Note_on_c, 0, 63, 92
2, 637536, Note_off_c, 0, 63, 64
2, 637536, Note_on_c, 0, 75, 92
2, 637632, Note_off_c, 0, 75, 64
2, 637632, Note_on_c, 0, 70, 92
2, 637728, Note_off_c, 0, 70, 64
2, 637728, Note_on_c, 0, 67, 92
2, 637824, Note_off_c, 0, 67, 64
2, 637824, Note_on_c, 0, 63, 92
2, 637920, Note_off_c, 0, 63, 64
2, 637920, Note_on_c, 0, 75, 92
2, 638016, Note_off_c, 0, 75, 64
2, 638016, Note_on_c, 0, 70, 92
2, 638112, Note_off_c, 0, 70, 64
2, 638112, Note_on_c, 0, 64, 92
2, 638208, Note_off_c, 0, 64, 64
2, 638208, Note_on_c, 0, 63, 92
2, 638304, Note_off_c, 0, 63, 64
2, 638304, Note_on_c, 0, 75, 92
2, 638400, Note_off_c, 0, 75, 64
2, 638400, Note_on_c, 0, 70, 92
2, 638496, Note_off_c, 0, 70, 64
2, 638496, Note_on_c, 0, 64, 92
2, 638592, Note_off_c, 0, 64, 64
2, 638592, Note_on_c, 0, 63, 92
2, 638688, Note_off_c, 0, 63, 64
2, 638688, Note_on_c, 0, 75, 92
2, 638784, Note_off_c, 0, 75, 64
2, 638784, Note_on_c, 0, 70, 92
2, 638880, Note_off_c, 0, 70, 64
2, 638880, Note_on_c, 0, 64, 92
2, 638976, Note_off_c, 0, 64, 64
2, 638976, Note_on_c, 0, 63, 92
2, 639072, Note_off_c, 0, 63, 64
2, 639072, Note_on_c, 0, 75, 92
2, 639168, Note_off_c, 0, 75, 64
2, 639168, Note_on_c, 0, 70, 92
2, 639264, Note_off_c, 0, 70, 64
2, 639264, Note_on_c, 0, 64, 92
2, 639360, Note_off_c, 0, 64, 64
2, 639360, Note_on_c, 0, 63, 92
2, 639456, Note_off_c, 0, 63, 64
2, 639456, Note_on_c, 0, 73, 92
2, 639552, Note_off_c, 0, 73, 64
2, 639552, Note_on_c, 0, 70, 92
2, 639648, Note_off_c, 0, 70, 64
2, 639648, Note_on_c, 0, 64, 92
2, 639744, Note_off_c, 0, 64, 64
2, 639744, Note_on_c, 0, 63, 92
2, 639840, Note_off_c, 0, 63, 64
2, 639840, Note_on_c, 0, 73, 92
2, 639936, Note_off_c, 0, 73, 64
2, 639936, Note_on_c, 0, 70, 92
2, 640032, Note_off_c, 0, 70, 64
2, 640032, Note_on_c, 0, 64, 92
2, 640128, Note_off_c, 0, 64, 64
2, 640128, Note_on_c, 0, 63, 92
2, 640224, Note_off_c, 0, 63, 64
2, 640224, Note_on_c, 0, 73, 92
2, 640320, Note_off_c, 0, 73, 64
2, 640320, Note_on_c, 0, 70, 92
2, 640416, Note_off_c, 0, 70, 64
2, 640416, Note_on_c, 0, 64, 92
2, 640512, Note_off_c, 0, 64, 64
2, 640512, Note_on_c, 0, 63, 92
2, 640608, Note_off_c, 0, 63, 64
2, 640608, Note_on_c, 0, 73, 92
2, 640704, Note_off_c, 0, 73, 64
2, 640704, Note_on_c, 0, 70, 92
2, 640800, Note_off_c, 0, 70, 64
2, 640800, Note_on_c, 0, 64, 92
2, 640896, Note_off_c, 0, 64, 64
2, 640896, Note_on_c, 0, 63, 92
2, 640992, Note_off_c, 0, 63, 64
2, 640992, Note_on_c, 0, 73, 92
2, 641088, Note_off_c, 0, 73, 64
2, 641088, Note_on_c, 0, 70, 92
2, 641184, Note_off_c, 0, 70, 64
2, 641184, Note_on_c, 0, 67, 92
2, 641280, Note_off_c, 0, 67, 64
2, 641280, Note_on_c, 0, 63, 92
2, 641376, Note_off_c, 0, 63, 64
2, 641376, Note_on_c, 0, 73, 92
2, 641472, Note_off_c, 0, 73, 64
2, 641472, Note_on_c, 0, 70, 92
2, 641568, Note_off_c, 0, 70, 64
2, 641568, Note_on_c, 0, 67, 92
2, 641664, Note_off_c, 0, 67, 64
2, 641664, Note_on_c, 0, 63, 92
2, 641760, Note_off_c, 0, 63, 64
2, 641760, Note_on_c, 0, 73, 92
2, 641856, Note_off_c, 0, 73, 64
2, 641856, Note_on_c, 0, 70, 92
2, 641952, Note_off_c, 0, 70, 64
2, 641952, Note_on_c, 0, 67, 92
2, 642048, Note_off_c, 0, 67, 64
2, 642048, Note_on_c, 0, 63, 92
2, 642144, Note_off_c, 0, 63, 64
2, 642144, Note_on_c, 0, 73, 92
2, 642240, Note_off_c, 0, 73, 64
2, 642240, Note_on_c, 0, 70, 92
2, 642336, Note_off_c, 0, 70, 64
2, 642336, Note_on_c, 0, 67, 92
2, 642432, Note_off_c, 0, 67, 64
2, 642432, Note_on_c, 0, 63, 92
2, 642528, Note_off_c, 0, 63, 64
2, 642528, Note_on_c, 0, 68, 92
2, 642624, Note_off_c, 0, 68, 64
2, 642624, Note_on_c, 0, 63, 92
2, 642720, Note_off_c, 0, 63, 64
2, 642720, Note_on_c, 0, 60, 92
2, 642816, Note_off_c, 0, 60, 64
2, 642912, Note_on_c, 0, 68, 92
2, 643008, Note_off_c, 0, 68, 64
2, 643008, Note_on_c, 0, 63, 92
2, 643104, Note_off_c, 0, 63, 64
2, 643104, Note_on_c, 0, 60, 92
2, 643200, Note_off_c, 0, 60, 64
2, 643296, Note_on_c, 0, 68, 92
2, 643392, Note_off_c, 0, 68, 64
2, 643392, Note_on_c, 0, 63, 92
2, 643488, Note_off_c, 0, 63, 64
2, 643488, Note_on_c, 0, 60, 92
2, 643584, Note_off_c, 0, 60, 64
2, 643680, Note_on_c, 0, 68, 92
2, 643776, Note_off_c, 0, 68, 64
2, 643776, Note_on_c, 0, 63, 92
2, 643872, Note_off_c, 0, 63, 64
2, 643872, Note_on_c, 0, 60, 92
2, 643968, Note_off_c, 0, 60, 64
2, 644064, Note_on_c, 0, 68, 92
2, 644160, Note_off_c, 0, 68, 64
2, 644160, Note_on_c, 0, 63, 92
2, 644256, Note_off_c, 0, 63, 64
2, 644256, Note_on_c, 0, 57, 92
2, 644352, Note_off_c, 0, 57, 64
2, 644448, Note_on_c, 0, 68, 92
2, 644544, Note_off_c, 0, 68, 64
2, 644544, Note_on_c, 0, 63, 92
2, 644640, Note_off_c, 0, 63, 64
2, 644640, Note_on_c, 0, 57, 92
2, 644736, Note_off_c, 0, 57, 64
2, 644832, Note_on_c, 0, 68, 92
2, 644928, Note_off_c, 0, 68, 64
2, 644928, Note_on_c, 0, 63, 92
2, 645024, Note_off_c, 0, 63, 64
2, 645024, Note_on_c, 0, 57, 92
2, 645120, Note_off_c, 0, 57, 64
2, 645216, Note_on_c, 0, 68, 92
2, 645312, Note_off_c, 0, 68, 64
2, 645312, Note_on_c, 0, 63, 92
2, 645408, Note_off_c, 0, 63, 64
2, 645408, Note_on_c, 0, 57, 92
2, 645504, Note_off_c, 0, 57, 64
2, 645600, Note_on_c, 0, 66, 92
2, 645696, Note_off_c, 0, 66, 64
2, 645696, Note_on_c, 0, 63, 92
2, 645792, Note_off_c, 0, 63, 64
2, 645792, Note_on_c, 0, 57, 92
2, 645888, Note_off_c, 0, 57, 64
2, 645984, Note_on_c, 0, 66, 92
2, 646080, Note_off_c, 0, 66, 64
2, 646080, Note_on_c, 0, 63, 92
2, 646176, Note_off_c, 0, 63, 64
2, 646176, Note_on_c, 0, 57, 92
2, 646272, Note_off_c, 0, 57, 64
2, 646368, Note_on_c, 0, 66, 92
2, 646464, Note_off_c, 0, 66, 64
2, 646464, Note_on_c, 0, 63, 92
2, 646560, Note_off_c, 0, 63, 64
2, 646560, Note_on_c, 0, 57, 92
2, 646656, Note_off_c, 0, 57, 64
2, 646752, Note_on_c, 0, 66, 92
2, 646848, Note_off_c, 0, 66, 64
2, 646848, Note_on_c, 0, 63, 92
2, 646944, Note_off_c, 0, 63, 64
2, 646944, Note_on_c, 0, 57, 92
2, 647040, Note_off_c, 0, 57, 64
2, 647136, Note_on_c, 0, 66, 92
2, 647232, Note_off_c, 0, 66, 64
2, 647232, Note_on_c, 0, 63, 92
2, 647328, Note_off_c, 0, 63, 64
2, 647328, Note_on_c, 0, 60, 92
2, 647424, Note_off_c, 0, 60, 64
2, 647520, Note_on_c, 0, 66, 92
2, 647616, Note_off_c, 0, 66, 64
2, 647616, Note_on_c, 0, 63, 92
2, 647712, Note_off_c, 0, 63, 64
2, 647712, Note_on_c, 0, 60, 92
2, 647808, Note_off_c, 0, 60, 64
2, 647904, Note_on_c, 0, 66, 92
2, 648000, Note_off_c, 0, 66, 64
2, 648000, Note_on_c, 0, 63, 92
2, 648096, Note_off_c, 0, 63, 64
2, 648096, Note_on_c, 0, 60, 92
2, 648192, Note_off_c, 0, 60, 64
2, 648288, Note_on_c, 0, 66, 92
2, 648384, Note_off_c, 0, 66, 64
2, 648384, Note_on_c, 0, 63, 92
2, 648480, Note_off_c, 0, 63, 64
2, 648480, Note_on_c, 0, 60, 92
2, 648576, Note_off_c, 0, 60, 64
2, 654816, Note_on_c, 0, 61, 92
2, 654912, Note_off_c, 0, 61, 64
2, 655200, Note_on_c, 0, 61, 92
2, 655296, Note_off_c, 0, 61, 64
2, 655584, Note_on_c, 0, 61, 92
2, 655680, Note_off_c, 0, 61, 64
2, 655968, Note_on_c, 0, 61, 92
2, 656064, Note_off_c, 0, 61, 64
2, 656352, Note_on_c, 0, 63, 92
2, 656448, Note_off_c, 0, 63, 64
2, 656736, Note_on_c, 0, 63, 92
2, 656832, Note_off_c, 0, 63, 64
2, 657120, Note_on_c, 0, 61, 92
2, 657216, Note_off_c, 0, 61, 64
2, 657504, Note_on_c, 0, 61, 92
2, 657600, Note_off_c, 0, 61, 64
2, 657888, Note_on_c, 0, 63, 92
2, 657984, Note_off_c, 0, 63, 64
2, 658272, Note_on_c, 0, 63, 92
2, 658368, Note_off_c, 0, 63, 64
2, 658656, Note_on_c, 0, 63, 92
2, 658752, Note_off_c, 0, 63, 64
2, 659040, Note_on_c, 0, 63, 92
2, 659136, Note_off_c, 0, 63, 64
2, 659424, Note_on_c, 0, 65, 92
2, 659520, Note_off_c, 0, 65, 64
2, 659808, Note_on_c, 0, 65, 92
2, 659904, Note_off_c, 0, 65, 64
2, 660192, Note_on_c, 0, 63, 92
2, 660288, Note_off_c, 0, 63, 64
2, 660576, Note_on_c, 0, 63, 92
2, 660672, Note_off_c, 0, 63, 64
2, 660960, Note_on_c, 0, 65, 92
2, 661056, Note_off_c, 0, 65, 64
2, 661056, Note_on_c, 0, 62, 92
2, 661152, Note_off_c, 0, 62, 64
2, 661152, Note_on_c, 0, 58, 92
2, 661248, Note_off_c, 0, 58, 64
2, 661344, Note_on_c, 0, 65, 92
2, 661440, Note_off_c, 0, 65, 64
2, 661440, Note_on_c, 0, 62, 92
2, 661536, Note_off_c, 0, 62, 64
2, 661536, Note_on_c, 0, 58, 92
2, 661632, Note_off_c, 0, 58, 64
2, 661728, Note_on_c, 0, 65, 92
2, 661824, Note_off_c, 0, 65, 64
2, 661824, Note_on_c, 0, 62, 92
2, 661920, Note_off_c, 0, 62, 64
2, 661920, Note_on_c, 0, 58, 92
2, 662016, Note_off_c, 0, 58, 64
2, 662112, Note_on_c, 0, 65, 92
2, 662208, Note_off_c, 0, 65, 64
2, 662208, Note_on_c, 0, 62, 92
2, 662304, Note_off_c, 0, 62, 64
2, 662304, Note_on_c, 0, 58, 92
2, 662400, Note_off_c, 0, 58, 64
2, 662496, Note_on_c, 0, 67, 92
2, 662592, Note_off_c, 0, 67, 64
2, 662592, Note_on_c, 0, 62, 92
2, 662688, Note_off_c, 0, 62, 64
2, 662688, Note_on_c, 0, 59, 92
2, 662784, Note_off_c, 0, 59, 64
2, 662880, Note_on_c, 0, 67, 92
2, 662976, Note_off_c, 0, 67, 64
2, 662976, Note_on_c, 0, 62, 92
2, 663072, Note_off_c, 0, 62, 64
2, 663072, Note_on_c, 0, 59, 92
2, 663168, Note_off_c, 0, 59, 64
2, 663264, Note_on_c, 0, 65, 92
2, 663360, Note_off_c, 0, 65, 64
2, 663360, Note_on_c, 0, 62, 92
2, 663456, Note_off_c, 0, 62, 64
2, 663456, Note_on_c, 0, 59, 92
2, 663552, Note_off_c, 0, 59, 64
2, 663648, Note_on_c, 0, 65, 92
2, 663744, Note_off_c, 0, 65, 64
2, 663744, Note_on_c, 0, 62, 92
2, 663840, Note_off_c, 0, 62, 64
2, 663840, Note_on_c, 0, 59, 92
2, 663936, Note_off_c, 0, 59, 64
2, 664032, Note_on_c, 0, 67, 92
2, 664128, Note_off_c, 0, 67, 64
2, 664128, Note_on_c, 0, 63, 92
2, 664224, Note_off_c, 0, 63, 64
2, 664224, Note_on_c, 0, 60, 92
2, 664320, Note_off_c, 0, 60, 64
2, 664416, Note_on_c, 0, 67, 92
2, 664512, Note_off_c, 0, 67, 64
2, 664512, Note_on_c, 0, 63, 92
2, 664608, Note_off_c, 0, 63, 64
2, 664608, Note_on_c, 0, 60, 92
2, 664704, Note_off_c, 0, 60, 64
2, 664800, Note_on_c, 0, 67, 92
2, 664896, Note_off_c, 0, 67, 64
2, 664896, Note_on_c, 0, 64, 92
2, 664992, Note_off_c, 0, 64, 64
2, 664992, Note_on_c, 0, 58, 92
2, 665088, Note_off_c, 0, 58, 64
2, 665184, Note_on_c, 0, 67, 92
2, 665280, Note_off_c, 0, 67, 64
2, 665280, Note_on_c, 0, 64, 92
2, 665376, Note_off_c, 0, 64, 64
2, 665376, Note_on_c, 0, 58, 92
2, 665472, Note_off_c, 0, 58, 64
2, 665568, Note_on_c, 0, 68, 92
2, 665664, Note_off_c, 0, 68, 64
2, 665664, Note_on_c, 0, 65, 92
2, 665760, Note_off_c, 0, 65, 64
2, 665760, Note_on_c, 0, 60, 92
2, 665856, Note_off_c, 0, 60, 64
2, 665952, Note_on_c, 0, 68, 92
2, 666048, Note_off_c, 0, 68, 64
2, 666048, Note_on_c, 0, 65, 92
2, 666144, Note_off_c, 0, 65, 64
2, 666144, Note_on_c, 0, 60, 92
2, 666240, Note_off_c, 0, 60, 64
2, 666336, Note_on_c, 0, 69, 92
2, 666432, Note_off_c, 0, 69, 64
2, 666432, Note_on_c, 0, 66, 92
2, 666528, Note_off_c, 0, 66, 64
2, 666528, Note_on_c, 0, 60, 92
2, 666624, Note_off_c, 0, 60, 64
2, 666720, Note_on_c, 0, 69, 92
2, 666816, Note_off_c, 0, 69, 64
2, 666816, Note_on_c, 0, 66, 92
2, 666912, Note_off_c, 0, 66, 64
2, 666912, Note_on_c, 0, 60, 92
2, 667008, Note_off_c, 0, 60, 64
2, 667104, Note_on_c, 0, 67, 92
2, 667200, Note_off_c, 0, 67, 64
2, 667200, Note_on_c, 0, 62, 92
2, 667296, Note_off_c, 0, 62, 64
2, 667296, Note_on_c, 0, 59, 92
2, 667392, Note_off_c, 0, 59, 64
2, 667488, Note_on_c, 0, 67, 92
2, 667584, Note_off_c, 0, 67, 64
2, 667584, Note_on_c, 0, 62, 92
2, 667680, Note_off_c, 0, 62, 64
2, 667680, Note_on_c, 0, 59, 92
2, 667776, Note_off_c, 0, 59, 64
2, 667872, Note_on_c, 0, 67, 92
2, 667968, Note_off_c, 0, 67, 64
2, 667968, Note_on_c, 0, 64, 92
2, 668064, Note_off_c, 0, 64, 64
2, 668064, Note_on_c, 0, 60, 92
2, 668160, Note_off_c, 0, 60, 64
2, 668256, Note_on_c, 0, 67, 92
2, 668352, Note_off_c, 0, 67, 64
2, 668352, Note_on_c, 0, 64, 92
2, 668448, Note_off_c, 0, 64, 64
2, 668448, Note_on_c, 0, 60, 92
2, 668544, Note_off_c, 0, 60, 64
2, 668640, Note_on_c, 0, 67, 92
2, 668736, Note_off_c, 0, 67, 64
2, 668736, Note_on_c, 0, 62, 92
2, 668832, Note_off_c, 0, 62, 64
2, 668832, Note_on_c, 0, 59, 92
2, 668928, Note_off_c, 0, 59, 64
2, 669024, Note_on_c, 0, 67, 92
2, 669120, Note_off_c, 0, 67, 64
2, 669120, Note_on_c, 0, 62, 92
2, 669216, Note_off_c, 0, 62, 64
2, 669216, Note_on_c, 0, 59, 92
2, 669312, Note_off_c, 0, 59, 64
2, 669408, Note_on_c, 0, 67, 92
2, 669504, Note_off_c, 0, 67, 64
2, 669504, Note_on_c, 0, 64, 92
2, 669600, Note_off_c, 0, 64, 64
2, 669600, Note_on_c, 0, 60, 92
2, 669696, Note_off_c, 0, 60, 64
2, 669792, Note_on_c, 0, 67, 92
2, 669888, Note_off_c, 0, 67, 64
2, 669888, Note_on_c, 0, 64, 92
2, 669984, Note_off_c, 0, 64, 64
2, 669984, Note_on_c, 0, 60, 92
2, 670080, Note_off_c, 0, 60, 64
2, 670176, Note_on_c, 0, 67, 92
2, 670272, Note_off_c, 0, 67, 64
2, 670272, Note_on_c, 0, 62, 92
2, 670368, Note_off_c, 0, 62, 64
2, 670368, Note_on_c, 0, 59, 92
2, 670464, Note_off_c, 0, 59, 64
2, 670560, Note_on_c, 0, 67, 92
2, 670656, Note_off_c, 0, 67, 64
2, 670656, Note_on_c, 0, 62, 92
2, 670752, Note_off_c, 0, 62, 64
2, 670752, Note_on_c, 0, 59, 92
2, 670848, Note_off_c, 0, 59, 64
2, 670944, Note_on_c, 0, 72, 92
2, 671040, Note_off_c, 0, 72, 64
2, 671040, Note_on_c, 0, 67, 92
2, 671136, Note_off_c, 0, 67, 64
2, 671136, Note_on_c, 0, 64, 92
2, 671232, Note_off_c, 0, 64, 64
2, 671328, Note_on_c, 0, 72, 92
2, 671424, Note_off_c, 0, 72, 64
2, 671424, Note_on_c, 0, 67, 92
2, 671520, Note_off_c, 0, 67, 64
2, 671520, Note_on_c, 0, 64, 92
2, 671616, Note_off_c, 0, 64, 64
2, 671712, Note_on_c, 0, 72, 92
2, 671808, Note_off_c, 0, 72, 64
2, 671808, Note_on_c, 0, 67, 92
2, 671904, Note_off_c, 0, 67, 64
2, 671904, Note_on_c, 0, 64, 92
2, 672000, Note_off_c, 0, 64, 64
2, 672096, Note_on_c, 0, 72, 92
2, 672192, Note_off_c, 0, 72, 64
2, 672192, Note_on_c, 0, 67, 92
2, 672288, Note_off_c, 0, 67, 64
2, 672288, Note_on_c, 0, 64, 92
2, 672384, Note_off_c, 0, 64, 64
2, 672480, Note_on_c, 0, 72, 92
2, 672576, Note_off_c, 0, 72, 64
2, 672576, Note_on_c, 0, 67, 92
2, 672672, Note_off_c, 0, 67, 64
2, 672672, Note_on_c, 0, 62, 92
2, 672768, Note_off_c, 0, 62, 64
2, 672864, Note_on_c, 0, 72, 92
2, 672960, Note_off_c, 0, 72, 64
2, 672960, Note_on_c, 0, 67, 92
2, 673056, Note_off_c, 0, 67, 64
2, 673056, Note_on_c, 0, 62, 92
2, 673152, Note_off_c, 0, 62, 64
2, 673248, Note_on_c, 0, 72, 92
2, 673344, Note_off_c, 0, 72, 64
2, 673344, Note_on_c, 0, 67, 92
2, 673440, Note_off_c, 0, 67, 64
2, 673440, Note_on_c, 0, 62, 92
2, 673536, Note_off_c, 0, 62, 64
2, 673632, Note_on_c, 0, 72, 92
2, 673728, Note_off_c, 0, 72, 64
2, 673728, Note_on_c, 0, 67, 92
2, 673824, Note_off_c, 0, 67, 64
2, 673824, Note_on_c, 0, 62, 92
2, 673920, Note_off_c, 0, 62, 64
2, 674016, Note_on_c, 0, 71, 92
2, 674112, Note_off_c, 0, 71, 64
2, 674112, Note_on_c, 0, 67, 92
2, 674208, Note_off_c, 0, 67, 64
2, 674208, Note_on_c, 0, 62, 92
2, 674304, Note_off_c, 0, 62, 64
2, 674400, Note_on_c, 0, 71, 92
2, 674496, Note_off_c, 0, 71, 64
2, 674496, Note_on_c, 0, 67, 92
2, 674592, Note_off_c, 0, 67, 64
2, 674592, Note_on_c, 0, 62, 92
2, 674688, Note_off_c, 0, 62, 64
2, 674784, Note_on_c, 0, 71, 92
2, 674880, Note_off_c, 0, 71, 64
2, 674880, Note_on_c, 0, 67, 92
2, 674976, Note_off_c, 0, 67, 64
2, 674976, Note_on_c, 0, 62, 92
2, 675072, Note_off_c, 0, 62, 64
2, 675168, Note_on_c, 0, 71, 92
2, 675264, Note_off_c, 0, 71, 64
2, 675264, Note_on_c, 0, 67, 92
2, 675360, Note_off_c, 0, 67, 64
2, 675360, Note_on_c, 0, 62, 92
2, 675456, Note_off_c, 0, 62, 64
2, 676224, Note_on_c, 0, 72, 92
2, 676416, Note_off_c, 0, 72, 64
2, 676416, Note_on_c, 0, 72, 92
2, 676608, Note_off_c, 0, 72, 64
2, 676608, Note_on_c, 0, 67, 92
2, 676800, Note_off_c, 0, 67, 64
2, 676800, Note_on_c, 0, 67, 92
2, 676992, Note_off_c, 0, 67, 64
2, 676992, Note_on_c, 0, 64, 92
2, 677184, Note_off_c, 0, 64, 64
2, 677184, Note_on_c, 0, 64, 92
2, 677376, Note_off_c, 0, 64, 64
2, 677376, Note_on_c, 0, 69, 92
2, 677568, Note_off_c, 0, 69, 64
2, 677568, Note_on_c, 0, 69, 92
2, 677760, Note_off_c, 0, 69, 64
2, 677760, Note_on_c, 0, 65, 92
2, 677952, Note_off_c, 0, 65, 64
2, 677952, Note_on_c, 0, 65, 92
2, 678144, Note_off_c, 0, 65, 64
2, 678144, Note_on_c, 0, 62, 92
2, 678336, Note_off_c, 0, 62, 64
2, 678336, Note_on_c, 0, 62, 92
2, 678528, Note_off_c, 0, 62, 64
2, 678528, Note_on_c, 0, 67, 92
2, 678720, Note_off_c, 0, 67, 64
2, 678720, Note_on_c, 0, 67, 92
2, 678912, Note_off_c, 0, 67, 64
2, 678912, Note_on_c, 0, 64, 92
2, 679104, Note_off_c, 0, 64, 64
2, 679104, Note_on_c, 0, 64, 92
2, 679296, Note_off_c, 0, 64, 64
2, 679296, Note_on_c, 0, 60, 92
2, 679488, Note_off_c, 0, 60, 64
2, 679488, Note_on_c, 0, 60, 92
2, 679680, Note_off_c, 0, 60, 64
2, 679680, Note_on_c, 0, 55, 92
2, 680064, Note_off_c, 0, 55, 64
2, 680064, Note_on_c, 0, 55, 92
2, 680448, Note_off_c, 0, 55, 64
2, 680448, Note_on_c, 0, 55, 92
2, 680832, Note_off_c, 0, 55, 64
2, 680832, Note_on_c, 0, 60, 92
2, 681024, Note_off_c, 0, 60, 64
2, 681024, Note_on_c, 0, 62, 92
2, 681216, Note_off_c, 0, 62, 64
2, 681216, Note_on_c, 0, 64, 92
2, 681408, Note_off_c, 0, 64, 64
2, 681408, Note_on_c, 0, 65, 92
2, 681600, Note_off_c, 0, 65, 64
2, 681600, Note_on_c, 0, 67, 92
2, 681984, Note_off_c, 0, 67, 64
2, 681984, Note_on_c, 0, 67, 92
2, 681984, Note_on_c, 0, 76, 92
2, 681984, Note_on_c, 0, 72, 92
2, 682368, Note_off_c, 0, 72, 64
2, 682368, Note_off_c, 0, 76, 64
2, 682368, Note_off_c, 0, 67, 64
2, 682368, Note_on_c, 0, 67, 92
2, 682368, Note_on_c, 0, 71, 92
2, 682368, Note_on_c, 0, 74, 92
2, 682368, Note_on_c, 0, 77, 92
2, 682752, Note_off_c, 0, 77, 64
2, 682752, Note_off_c, 0, 74, 64
2, 682752, Note_off_c, 0, 71, 64
2, 682752, Note_off_c, 0, 67, 64
2, 682752, Note_on_c, 0, 67, 92
2, 682752, Note_on_c, 0, 71, 92
2, 682752, Note_on_c, 0, 74, 92
2, 683136, Note_off_c, 0, 74, 64
2, 683136, Note_off_c, 0, 71, 64
2, 683136, Note_off_c, 0, 67, 64
2, 683136, Note_on_c, 0, 67, 92
2, 683136, Note_on_c, 0, 76, 92
2, 683136, Note_on_c, 0, 72, 92
2, 683520, Note_off_c, 0, 72, 64
2, 683520, Note_off_c, 0, 76, 64
2, 683520, Note_off_c, 0, 67, 64
2, 684288, End_track
3, 0, Start_track
3, 0, Title_t, "Track 2"
3, 768, Note_on_c, 0, 48, 92
3, 1152, Note_off_c, 0, 48, 64
3, 1152, Note_on_c, 0, 48, 92
3, 1536, Note_off_c, 0, 48, 64
3, 1536, Note_on_c, 0, 48, 92
3, 1920, Note_off_c, 0, 48, 64
3, 2304, Note_on_c, 0, 48, 92
3, 2688, Note_off_c, 0, 48, 64
3, 2688, Note_on_c, 0, 48, 92
3, 3072, Note_off_c, 0, 48, 64
3, 3072, Note_on_c, 0, 48, 92
3, 3264, Note_off_c, 0, 48, 64
3, 3264, Note_on_c, 0, 50, 92
3, 3360, Note_off_c, 0, 50, 64
3, 3360, Note_on_c, 0, 52, 92
3, 3456, Note_off_c, 0, 52, 64
3, 3456, Note_on_c, 0, 53, 92
3, 3552, Note_off_c, 0, 53, 64
3, 3552, Note_on_c, 0, 55, 92
3, 3648, Note_off_c, 0, 55, 64
3, 3648, Note_on_c, 0, 57, 92
3, 3744, Note_off_c, 0, 57, 64
3, 3744, Note_on_c, 0, 59, 92
3, 3840, Note_off_c, 0, 59, 64
3, 3840, Note_on_c, 0, 60, 92
3, 4032, Note_off_c, 0, 60, 64
3, 4032, Note_on_c, 0, 48, 92
3, 4224, Note_off_c, 0, 48, 64
3, 4224, Note_on_c, 0, 48, 92
3, 4416, Note_off_c, 0, 48, 64
3, 4416, Note_on_c, 0, 48, 92
3, 4608, Note_off_c, 0, 48, 64
3, 4608, Note_on_c, 0, 48, 92
3, 4800, Note_off_c, 0, 48, 64
3, 4800, Note_on_c, 0, 50, 92
3, 4896, Note_off_c, 0, 50, 64
3, 4896, Note_on_c, 0, 52, 92
3, 4992, Note_off_c, 0, 52, 64
3, 4992, Note_on_c, 0, 53, 92
3, 5088, Note_off_c, 0, 53, 64
3, 5088, Note_on_c, 0, 55, 92
3, 5184, Note_off_c, 0, 55, 64
3, 5184, Note_on_c, 0, 57, 92
3, 5280, Note_off_c, 0, 57, 64
3, 5280, Note_on_c, 0, 59, 92
3, 5376, Note_off_c, 0, 59, 64
3, 5376, Note_on_c, 0, 60, 92
3, 5568, Note_off_c, 0, 60, 64
3, 5568, Note_on_c, 0, 48, 92
3, 5760, Note_off_c, 0, 48, 64
3, 5760, Note_on_c, 0, 48, 92
3, 5952, Note_off_c, 0, 48, 64
3, 5952, Note_on_c, 0, 48, 92
3, 6144, Note_off_c, 0, 48, 64
3, 6144, Note_on_c, 0, 48, 92
3, 6528, Note_off_c, 0, 48, 64
3, 6720, Note_on_c, 0, 67, 92
3, 6720, Note_on_c, 0, 60, 92
3, 6912, Note_off_c, 0, 60, 64
3, 6912, Note_off_c, 0, 67, 64
3, 6912, Note_on_c, 0, 65, 92
3, 6912, Note_on_c, 0, 60, 92
3, 7104, Note_off_c, 0, 60, 64
3, 7104, Note_off_c, 0, 65, 64
3, 7104, Note_on_c, 0, 67, 92
3, 7104, Note_on_c, 0, 60, 92
3, 7296, Note_off_c, 0, 60, 64
3, 7296, Note_off_c, 0, 67, 64
3, 7296, Note_on_c, 0, 65, 92
3, 7296, Note_on_c, 0, 60, 92
3, 7488, Note_off_c, 0, 60, 64
3, 7488, Note_off_c, 0, 65, 64
3, 7488, Note_on_c, 0, 67, 92
3, 7488, Note_on_c, 0, 60, 92
3, 7680, Note_off_c, 0, 60, 64
3, 7680, Note_off_c, 0, 67, 64
3, 8256, Note_on_c, 0, 67, 92
3, 8256, Note_on_c, 0, 60, 92
3, 8448, Note_off_c, 0, 60, 64
3, 8448, Note_off_c, 0, 67, 64
3, 8448, Note_on_c, 0, 65, 92
3, 8448, Note_on_c, 0, 60, 92
3, 8640, Note_off_c, 0, 60, 64
3, 8640, Note_off_c, 0, 65, 64
3, 8640, Note_on_c, 0, 67, 92
3, 8640, Note_on_c, 0, 60, 92
3, 8832, Note_off_c, 0, 60, 64
3, 8832, Note_off_c, 0, 67, 64
3, 8832, Note_on_c, 0, 65, 92
3, 8832, Note_on_c, 0, 60, 92
3, 9024, Note_off_c, 0, 60, 64
3, 9024, Note_off_c, 0, 65, 64
3, 9024, Note_on_c, 0, 67, 92
3, 9024, Note_on_c, 0, 60, 92
3, 9216, Note_off_c, 0, 60, 64
3, 9216, Note_off_c, 0, 67, 64
3, 9600, Note_on_c, 0, 67, 92
3, 9600, Note_on_c, 0, 64, 92
3, 9600, Note_on_c, 0, 60, 92
3, 9792, Note_off_c, 0, 60, 64
3, 9792, Note_off_c, 0, 64, 64
3, 9792, Note_off_c, 0, 67, 64
3, 9792, Note_on_c, 0, 69, 92
3, 9792, Note_on_c, 0, 65, 92
3, 9792, Note_on_c, 0, 60, 92
3, 9984, Note_off_c, 0, 60, 64
3, 9984, Note_off_c, 0, 65, 64
3, 9984, Note_off_c, 0, 69, 64
3, 9984, Note_on_c, 0, 67, 92
3, 9984, Note_on_c, 0, 62, 92
3, 9984, Note_on_c, 0, 55, 92
3, 10080, Note_off_c, 0, 55, 64
3, 10080, Note_on_c, 0, 57, 92
3, 10176, Note_off_c, 0, 57, 64
3, 10176, Note_off_c, 0, 62, 64
3, 10176, Note_off_c, 0, 67, 64
3, 10176, Note_on_c, 0, 59, 92
3, 10272, Note_off_c, 0, 59, 64
3, 10272, Note_on_c, 0, 60, 92
3, 10368, Note_off_c, 0, 60, 64
3, 10368, Note_on_c, 0, 62, 92
3, 10560, Note_off_c, 0, 62, 64
3, 10560, Note_on_c, 0, 62, 92
3, 10752, Note_off_c, 0, 62, 64
3, 10752, Note_on_c, 0, 64, 92
3, 10944, Note_off_c, 0, 64, 64
3, 10944, Note_on_c, 0, 62, 92
3, 11136, Note_off_c, 0, 62, 64
3, 11136, Note_on_c, 0, 64, 92
3, 11328, Note_off_c, 0, 64, 64
3, 11328, Note_on_c, 0, 62, 92
3, 11520, Note_off_c, 0, 62, 64
3, 11520, Note_on_c, 0, 55, 92
3, 11616, Note_off_c, 0, 55, 64
3, 11616, Note_on_c, 0, 57, 92
3, 11712, Note_off_c, 0, 57, 64
3, 11712, Note_on_c, 0, 59, 92
3, 11808, Note_off_c, 0, 59, 64
3, 11808, Note_on_c, 0, 60, 92
3, 11904, Note_off_c, 0, 60, 64
3, 11904, Note_on_c, 0, 62, 92
3, 12096, Note_off_c, 0, 62, 64
3, 12096, Note_on_c, 0, 62, 92
3, 12288, Note_off_c, 0, 62, 64
3, 12288, Note_on_c, 0, 64, 92
3, 12480, Note_off_c, 0, 64, 64
3, 12480, Note_on_c, 0, 62, 92
3, 12672, Note_off_c, 0, 62, 64
3, 12672, Note_on_c, 0, 64, 92
3, 12864, Note_off_c, 0, 64, 64
3, 12864, Note_on_c, 0, 62, 92
3, 13056, Note_off_c, 0, 62, 64
3, 13056, Note_on_c, 0, 55, 92
3, 13152, Note_off_c, 0, 55, 64
3, 13152, Note_on_c, 0, 57, 92
3, 13248, Note_off_c, 0, 57, 64
3, 13248, Note_on_c, 0, 59, 92
3, 13344, Note_off_c, 0, 59, 64
3, 13344, Note_on_c, 0, 60, 92
3, 13440, Note_off_c, 0, 60, 64
3, 13440, Note_on_c, 0, 62, 92
3, 13536, Note_off_c, 0, 62, 64
3, 13536, Note_on_c, 0, 64, 92
3, 13632, Note_off_c, 0, 64, 64
3, 13632, Note_on_c, 0, 65, 92
3, 13728, Note_off_c, 0, 65, 64
3, 13728, Note_on_c, 0, 62, 92
3, 13824, Note_off_c, 0, 62, 64
3, 13824, Note_on_c, 0, 64, 92
3, 14016, Note_off_c, 0, 64, 64
3, 14016, Note_on_c, 0, 60, 92
3, 14208, Note_off_c, 0, 60, 64
3, 14208, Note_on_c, 0, 60, 92
3, 14304, Note_off_c, 0, 60, 64
3, 14304, Note_on_c, 0, 62, 92
3, 14400, Note_off_c, 0, 62, 64
3, 14400, Note_on_c, 0, 64, 92
3, 14496, Note_off_c, 0, 64, 64
3, 14496, Note_on_c, 0, 65, 92
3, 14592, Note_off_c, 0, 65, 64
3, 14592, Note_on_c, 0, 64, 92
3, 14592, Note_on_c, 0, 67, 92
3, 14784, Note_off_c, 0, 67, 64
3, 14784, Note_off_c, 0, 64, 64
3, 14784, Note_on_c, 0, 58, 92
3, 14976, Note_off_c, 0, 58, 64
3, 14976, Note_on_c, 0, 60, 92
3, 15072, Note_off_c, 0, 60, 64
3, 15072, Note_on_c, 0, 62, 92
3, 15168, Note_off_c, 0, 62, 64
3, 15168, Note_on_c, 0, 64, 92
3, 15264, Note_off_c, 0, 64, 64
3, 15264, Note_on_c, 0, 65, 92
3, 15360, Note_off_c, 0, 65, 64
3, 15360, Note_on_c, 0, 64, 92
3, 15360, Note_on_c, 0, 67, 92
3, 15552, Note_off_c, 0, 67, 64
3, 15552, Note_off_c, 0, 64, 64
3, 15552, Note_on_c, 0, 58, 92
3, 15744, Note_off_c, 0, 58, 64
3, 15744, Note_on_c, 0, 64, 92
3, 15744, Note_on_c, 0, 60, 92
3, 15840, Note_off_c, 0, 64, 64
3, 15840, Note_on_c, 0, 65, 92
3, 15936, Note_off_c, 0, 65, 64
3, 15936, Note_off_c, 0, 60, 64
3, 15936, Note_on_c, 0, 67, 92
3, 15936, Note_on_c, 0, 60, 92
3, 16032, Note_off_c, 0, 67, 64
3, 16032, Note_on_c, 0, 64, 92
3, 16128, Note_off_c, 0, 64, 64
3, 16128, Note_off_c, 0, 60, 64
3, 16128, Note_on_c, 0, 65, 92
3, 16128, Note_on_c, 0, 60, 92
3, 16320, Note_off_c, 0, 60, 64
3, 16320, Note_off_c, 0, 65, 64
3, 16320, Note_on_c, 0, 60, 92
3, 16512, Note_off_c, 0, 60, 64
3, 16512, Note_on_c, 0, 53, 92
3, 16608, Note_off_c, 0, 53, 64
3, 16608, Note_on_c, 0, 55, 92
3, 16704, Note_off_c, 0, 55, 64
3, 16704, Note_on_c, 0, 57, 92
3, 16800, Note_off_c, 0, 57, 64
3, 16800, Note_on_c, 0, 53, 92
3, 16896, Note_off_c, 0, 53, 64
3, 16896, Note_on_c, 0, 66, 92
3, 16896, Note_on_c, 0, 57, 92
3, 17088, Note_off_c, 0, 57, 64
3, 17088, Note_off_c, 0, 66, 64
3, 17280, Note_on_c, 0, 62, 92
3, 17376, Note_off_c, 0, 62, 64
3, 17376, Note_on_c, 0, 64, 92
3, 17472, Note_off_c, 0, 64, 64
3, 17472, Note_on_c, 0, 66, 92
3, 17568, Note_off_c, 0, 66, 64
3, 17568, Note_on_c, 0, 67, 92
3, 17664, Note_off_c, 0, 67, 64
3, 17664, Note_on_c, 0, 69, 92
3, 17664, Note_on_c, 0, 66, 92
3, 17856, Note_off_c, 0, 66, 64
3, 17856, Note_off_c, 0, 69, 64
3, 17856, Note_on_c, 0, 60, 92
3, 18048, Note_off_c, 0, 60, 64
3, 18048, Note_on_c, 0, 62, 92
3, 18144, Note_off_c, 0, 62, 64
3, 18144, Note_on_c, 0, 64, 92
3, 18240, Note_off_c, 0, 64, 64
3, 18240, Note_on_c, 0, 66, 92
3, 18336, Note_off_c, 0, 66, 64
3, 18336, Note_on_c, 0, 67, 92
3, 18432, Note_off_c, 0, 67, 64
3, 18432, Note_on_c, 0, 66, 92
3, 18432, Note_on_c, 0, 69, 92
3, 18624, Note_off_c, 0, 69, 64
3, 18624, Note_off_c, 0, 66, 64
3, 18624, Note_on_c, 0, 60, 92
3, 18816, Note_off_c, 0, 60, 64
3, 18816, Note_on_c, 0, 66, 92
3, 18816, Note_on_c, 0, 62, 92
3, 18912, Note_off_c, 0, 66, 64
3, 18912, Note_on_c, 0, 67, 92
3, 19008, Note_off_c, 0, 67, 64
3, 19008, Note_off_c, 0, 62, 64
3, 19008, Note_on_c, 0, 69, 92
3, 19008, Note_on_c, 0, 62, 92
3, 19104, Note_off_c, 0, 69, 64
3, 19104, Note_on_c, 0, 66, 92
3, 19200, Note_off_c, 0, 66, 64
3, 19200, Note_off_c, 0, 62, 64
3, 19200, Note_on_c, 0, 67, 92
3, 19200, Note_on_c, 0, 62, 92
3, 19392, Note_off_c, 0, 62, 64
3, 19392, Note_off_c, 0, 67, 64
3, 19392, Note_on_c, 0, 62, 92
3, 19584, Note_off_c, 0, 62, 64
3, 19584, Note_on_c, 0, 55, 92
3, 19680, Note_off_c, 0, 55, 64
3, 19680, Note_on_c, 0, 57, 92
3, 19776, Note_off_c, 0, 57, 64
3, 19776, Note_on_c, 0, 59, 92
3, 19872, Note_off_c, 0, 59, 64
3, 19872, Note_on_c, 0, 57, 92
3, 19968, Note_off_c, 0, 57, 64
3, 19968, Note_on_c, 0, 55, 92
3, 20064, Note_off_c, 0, 55, 64
3, 20064, Note_on_c, 0, 57, 92
3, 20160, Note_off_c, 0, 57, 64
3, 20160, Note_on_c, 0, 59, 92
3, 20256, Note_off_c, 0, 59, 64
3, 20256, Note_on_c, 0, 60, 92
3, 20352, Note_off_c, 0, 60, 64
3, 20352, Note_on_c, 0, 62, 92
3, 20448, Note_off_c, 0, 62, 64
3, 20448, Note_on_c, 0, 64, 92
3, 20544, Note_off_c, 0, 64, 64
3, 20544, Note_on_c, 0, 65, 92
3, 20640, Note_off_c, 0, 65, 64
3, 20640, Note_on_c, 0, 62, 92
3, 20736, Note_off_c, 0, 62, 64
3, 20736, Note_on_c, 0, 67, 92
3, 20832, Note_off_c, 0, 67, 64
3, 20832, Note_on_c, 0, 62, 92
3, 20928, Note_off_c, 0, 62, 64
3, 20928, Note_on_c, 0, 59, 92
3, 21024, Note_off_c, 0, 59, 64
3, 21024, Note_on_c, 0, 62, 92
3, 21120, Note_off_c, 0, 62, 64
3, 21120, Note_on_c, 0, 67, 92
3, 21216, Note_off_c, 0, 67, 64
3, 21216, Note_on_c, 0, 62, 92
3, 21312, Note_off_c, 0, 62, 64
3, 21312, Note_on_c, 0, 59, 92
3, 21408, Note_off_c, 0, 59, 64
3, 21408, Note_on_c, 0, 62, 92
3, 21504, Note_off_c, 0, 62, 64
3, 21504, Note_on_c, 0, 67, 92
3, 21600, Note_off_c, 0, 67, 64
3, 21600, Note_on_c, 0, 62, 92
3, 21696, Note_off_c, 0, 62, 64
3, 21696, Note_on_c, 0, 59, 92
3, 21792, Note_off_c, 0, 59, 64
3, 21792, Note_on_c, 0, 62, 92
3, 21888, Note_off_c, 0, 62, 64
3, 21888, Note_on_c, 0, 67, 92
3, 21984, Note_off_c, 0, 67, 64
3, 21984, Note_on_c, 0, 62, 92
3, 22080, Note_off_c, 0, 62, 64
3, 22080, Note_on_c, 0, 59, 92
3, 22176, Note_off_c, 0, 59, 64
3, 22176, Note_on_c, 0, 62, 92
3, 22272, Note_off_c, 0, 62, 64
3, 22272, Note_on_c, 0, 67, 92
3, 22368, Note_off_c, 0, 67, 64
3, 22368, Note_on_c, 0, 62, 92
3, 22464, Note_off_c, 0, 62, 64
3, 22464, Note_on_c, 0, 59, 92
3, 22560, Note_off_c, 0, 59, 64
3, 22560, Note_on_c, 0, 62, 92
3, 22656, Note_off_c, 0, 62, 64
3, 22656, Note_on_c, 0, 67, 92
3, 22752, Note_off_c, 0, 67, 64
3, 22752, Note_on_c, 0, 62, 92
3, 22848, Note_off_c, 0, 62, 64
3, 22848, Note_on_c, 0, 59, 92
3, 22944, Note_off_c, 0, 59, 64
3, 22944, Note_on_c, 0, 62, 92
3, 23040, Note_off_c, 0, 62, 64
3, 23040, Note_on_c, 0, 67, 92
3, 23232, Note_off_c, 0, 67, 64
3, 23232, Note_on_c, 0, 65, 92
3, 23328, Note_off_c, 0, 65, 64
3, 23328, Note_on_c, 0, 64, 92
3, 23424, Note_off_c, 0, 64, 64
3, 23424, Note_on_c, 0, 62, 92
3, 23520, Note_off_c, 0, 62, 64
3, 23520, Note_on_c, 0, 60, 92
3, 23616, Note_off_c, 0, 60, 64
3, 23616, Note_on_c, 0, 59, 92
3, 23712, Note_off_c, 0, 59, 64
3, 23712, Note_on_c, 0, 57, 92
3, 23808, Note_off_c, 0, 57, 64
3, 23808, Note_on_c, 0, 55, 92
3, 23904, Note_off_c, 0, 55, 64
3, 23904, Note_on_c, 0, 60, 92
3, 24000, Note_off_c, 0, 60, 64
3, 24000, Note_on_c, 0, 55, 92
3, 24096, Note_off_c, 0, 55, 64
3, 24096, Note_on_c, 0, 51, 92
3, 24192, Note_off_c, 0, 51, 64
3, 24192, Note_on_c, 0, 55, 92
3, 24288, Note_off_c, 0, 55, 64
3, 24288, Note_on_c, 0, 60, 92
3, 24384, Note_off_c, 0, 60, 64
3, 24384, Note_on_c, 0, 55, 92
3, 24480, Note_off_c, 0, 55, 64
3, 24480, Note_on_c, 0, 51, 92
3, 24576, Note_off_c, 0, 51, 64
3, 24576, Note_on_c, 0, 55, 92
3, 24672, Note_off_c, 0, 55, 64
3, 24672, Note_on_c, 0, 60, 92
3, 24768, Note_off_c, 0, 60, 64
3, 24768, Note_on_c, 0, 59, 92
3, 24864, Note_off_c, 0, 59, 64
3, 24864, Note_on_c, 0, 57, 92
3, 24960, Note_off_c, 0, 57, 64
3, 24960, Note_on_c, 0, 55, 92
3, 25056, Note_off_c, 0, 55, 64
3, 25056, Note_on_c, 0, 53, 92
3, 25152, Note_off_c, 0, 53, 64
3, 25152, Note_on_c, 0, 51, 92
3, 25248, Note_off_c, 0, 51, 64
3, 25248, Note_on_c, 0, 50, 92
3, 25344, Note_off_c, 0, 50, 64
3, 25344, Note_on_c, 0, 48, 92
3, 25440, Note_off_c, 0, 48, 64
3, 25440, Note_on_c, 0, 51, 92
3, 25536, Note_off_c, 0, 51, 64
3, 25536, Note_on_c, 0, 55, 92
3, 25632, Note_off_c, 0, 55, 64
3, 25632, Note_on_c, 0, 51, 92
3, 25728, Note_off_c, 0, 51, 64
3, 25728, Note_on_c, 0, 48, 92
3, 25824, Note_off_c, 0, 48, 64
3, 25824, Note_on_c, 0, 51, 92
3, 25920, Note_off_c, 0, 51, 64
3, 25920, Note_on_c, 0, 55, 92
3, 26016, Note_off_c, 0, 55, 64
3, 26016, Note_on_c, 0, 51, 92
3, 26112, Note_off_c, 0, 51, 64
3, 26112, Note_on_c, 0, 48, 92
3, 26304, Note_off_c, 0, 48, 64
3, 26304, Note_on_c, 0, 47, 92
3, 26400, Note_off_c, 0, 47, 64
3, 26400, Note_on_c, 0, 45, 92
3, 26496, Note_off_c, 0, 45, 64
3, 26496, Note_on_c, 0, 43, 92
3, 26592, Note_off_c, 0, 43, 64
3, 26592, Note_on_c, 0, 41, 92
3, 26688, Note_off_c, 0, 41, 64
3, 26688, Note_on_c, 0, 39, 92
3, 26784, Note_off_c, 0, 39, 64
3, 26784, Note_on_c, 0, 38, 92
3, 26880, Note_off_c, 0, 38, 64
3, 26880, Note_on_c, 0, 36, 92
3, 27264, Note_off_c, 0, 36, 64
3, 31488, Note_on_c, 0, 48, 92
3, 31584, Note_off_c, 0, 48, 64
3, 31584, Note_on_c, 0, 50, 92
3, 31680, Note_off_c, 0, 50, 64
3, 31680, Note_on_c, 0, 52, 92
3, 31776, Note_off_c, 0, 52, 64
3, 31776, Note_on_c, 0, 53, 92
3, 31872, Note_off_c, 0, 53, 64
3, 31872, Note_on_c, 0, 55, 92
3, 32064, Note_off_c, 0, 55, 64
3, 32064, Note_on_c, 0, 43, 92
3, 32256, Note_off_c, 0, 43, 64
3, 32256, Note_on_c, 0, 36, 92
3, 32352, Note_off_c, 0, 36, 64
3, 32352, Note_on_c, 0, 38, 92
3, 32448, Note_off_c, 0, 38, 64
3, 32448, Note_on_c, 0, 40, 92
3, 32544, Note_off_c, 0, 40, 64
3, 32544, Note_on_c, 0, 41, 92
3, 32640, Note_off_c, 0, 41, 64
3, 32640, Note_on_c, 0, 43, 92
3, 32736, Note_off_c, 0, 43, 64
3, 32736, Note_on_c, 0, 45, 92
3, 32832, Note_off_c, 0, 45, 64
3, 32832, Note_on_c, 0, 47, 92
3, 32928, Note_off_c, 0, 47, 64
3, 32928, Note_on_c, 0, 43, 92
3, 33024, Note_off_c, 0, 43, 64
3, 33024, Note_on_c, 0, 48, 92
3, 33408, Note_off_c, 0, 48, 64
3, 37632, Note_on_c, 0, 48, 92
3, 37728, Note_off_c, 0, 48, 64
3, 37728, Note_on_c, 0, 50, 92
3, 37824, Note_off_c, 0, 50, 64
3, 37824, Note_on_c, 0, 52, 92
3, 37920, Note_off_c, 0, 52, 64
3, 37920, Note_on_c, 0, 53, 92
3, 38016, Note_off_c, 0, 53, 64
3, 38016, Note_on_c, 0, 55, 92
3, 38208, Note_off_c, 0, 55, 64
3, 38208, Note_on_c, 0, 43, 92
3, 38400, Note_off_c, 0, 43, 64
3, 38400, Note_on_c, 0, 48, 92
3, 38448, Note_off_c, 0, 48, 64
3, 38448, Note_on_c, 0, 50, 92
3, 38496, Note_off_c, 0, 50, 64
3, 38496, Note_on_c, 0, 52, 92
3, 38544, Note_off_c, 0, 52, 64
3, 38544, Note_on_c, 0, 53, 92
3, 38592, Note_off_c, 0, 53, 64
3, 38592, Note_on_c, 0, 55, 92
3, 38688, Note_off_c, 0, 55, 64
3, 38688, Note_on_c, 0, 52, 92
3, 38784, Note_off_c, 0, 52, 64
3, 38784, Note_on_c, 0, 50, 92
3, 38880, Note_off_c, 0, 50, 64
3, 38880, Note_on_c, 0, 53, 92
3, 38976, Note_off_c, 0, 53, 64
3, 38976, Note_on_c, 0, 55, 92
3, 39072, Note_off_c, 0, 55, 64
3, 39072, Note_on_c, 0, 53, 92
3, 39168, Note_off_c, 0, 53, 64
3, 39168, Note_on_c, 0, 52, 92
3, 39264, Note_off_c, 0, 52, 64
3, 39264, Note_on_c, 0, 53, 92
3, 39360, Note_off_c, 0, 53, 64
3, 39360, Note_on_c, 0, 55, 92
3, 39456, Note_off_c, 0, 55, 64
3, 39456, Note_on_c, 0, 53, 92
3, 39552, Note_off_c, 0, 53, 64
3, 39552, Note_on_c, 0, 50, 92
3, 39648, Note_off_c, 0, 50, 64
3, 39648, Note_on_c, 0, 53, 92
3, 39744, Note_off_c, 0, 53, 64
3, 39744, Note_on_c, 0, 55, 92
3, 39840, Note_off_c, 0, 55, 64
3, 39840, Note_on_c, 0, 53, 92
3, 39936, Note_off_c, 0, 53, 64
3, 39936, Note_on_c, 0, 48, 92
3, 39984, Note_off_c, 0, 48, 64
3, 39984, Note_on_c, 0, 50, 92
3, 40032, Note_off_c, 0, 50, 64
3, 40032, Note_on_c, 0, 52, 92
3, 40080, Note_off_c, 0, 52, 64
3, 40080, Note_on_c, 0, 53, 92
3, 40128, Note_off_c, 0, 53, 64
3, 40128, Note_on_c, 0, 55, 92
3, 40224, Note_off_c, 0, 55, 64
3, 40224, Note_on_c, 0, 52, 92
3, 40320, Note_off_c, 0, 52, 64
3, 40320, Note_on_c, 0, 50, 92
3, 40416, Note_off_c, 0, 50, 64
3, 40416, Note_on_c, 0, 53, 92
3, 40512, Note_off_c, 0, 53, 64
3, 40512, Note_on_c, 0, 55, 92
3, 40608, Note_off_c, 0, 55, 64
3, 40608, Note_on_c, 0, 53, 92
3, 40704, Note_off_c, 0, 53, 64
3, 40704, Note_on_c, 0, 52, 92
3, 40800, Note_off_c, 0, 52, 64
3, 40800, Note_on_c, 0, 53, 92
3, 40896, Note_off_c, 0, 53, 64
3, 40896, Note_on_c, 0, 55, 92
3, 40992, Note_off_c, 0, 55, 64
3, 40992, Note_on_c, 0, 53, 92
3, 41088, Note_off_c, 0, 53, 64
3, 41088, Note_on_c, 0, 50, 92
3, 41184, Note_off_c, 0, 50, 64
3, 41184, Note_on_c, 0, 53, 92
3, 41280, Note_off_c, 0, 53, 64
3, 41280, Note_on_c, 0, 55, 92
3, 41376, Note_off_c, 0, 55, 64
3, 41376, Note_on_c, 0, 53, 92
3, 41472, Note_off_c, 0, 53, 64
3, 41472, Note_on_c, 0, 48, 92
3, 41568, Note_on_c, 0, 55, 92
3, 41664, Note_off_c, 0, 55, 64
3, 41664, Note_on_c, 0, 50, 92
3, 41760, Note_off_c, 0, 50, 64
3, 41760, Note_on_c, 0, 55, 92
3, 41856, Note_off_c, 0, 55, 64
3, 41856, Note_on_c, 0, 52, 92
3, 41952, Note_off_c, 0, 52, 64
3, 41952, Note_on_c, 0, 55, 92
3, 42048, Note_off_c, 0, 55, 64
3, 42048, Note_on_c, 0, 50, 92
3, 42144, Note_off_c, 0, 50, 64
3, 42144, Note_on_c, 0, 55, 92
3, 42240, Note_off_c, 0, 55, 64
3, 42240, Note_off_c, 0, 48, 64
3, 42240, Note_on_c, 0, 48, 92
3, 42336, Note_on_c, 0, 55, 92
3, 42432, Note_off_c, 0, 55, 64
3, 42432, Note_on_c, 0, 50, 92
3, 42528, Note_off_c, 0, 50, 64
3, 42528, Note_on_c, 0, 55, 92
3, 42624, Note_off_c, 0, 55, 64
3, 42624, Note_on_c, 0, 52, 92
3, 42720, Note_off_c, 0, 52, 64
3, 42720, Note_on_c, 0, 55, 92
3, 42816, Note_off_c, 0, 55, 64
3, 42816, Note_off_c, 0, 48, 64
3, 42816, Note_on_c, 0, 48, 92
3, 42912, Note_on_c, 0, 55, 92
3, 43008, Note_off_c, 0, 55, 64
3, 43008, Note_off_c, 0, 48, 64
3, 43008, Note_on_c, 0, 43, 92
3, 43104, Note_off_c, 0, 43, 64
3, 43104, Note_on_c, 0, 50, 92
3, 43200, Note_off_c, 0, 50, 64
3, 43200, Note_on_c, 0, 55, 92
3, 43296, Note_off_c, 0, 55, 64
3, 43296, Note_on_c, 0, 50, 92
3, 43392, Note_off_c, 0, 50, 64
3, 43392, Note_on_c, 0, 45, 92
3, 43488, Note_off_c, 0, 45, 64
3, 43488, Note_on_c, 0, 50, 92
3, 43584, Note_off_c, 0, 50, 64
3, 43584, Note_on_c, 0, 55, 92
3, 43680, Note_off_c, 0, 55, 64
3, 43680, Note_on_c, 0, 50, 92
3, 43776, Note_off_c, 0, 50, 64
3, 43776, Note_on_c, 0, 47, 92
3, 43872, Note_off_c, 0, 47, 64
3, 43872, Note_on_c, 0, 50, 92
3, 43968, Note_off_c, 0, 50, 64
3, 43968, Note_on_c, 0, 55, 92
3, 44064, Note_off_c, 0, 55, 64
3, 44064, Note_on_c, 0, 50, 92
3, 44160, Note_off_c, 0, 50, 64
3, 44160, Note_on_c, 0, 45, 92
3, 44256, Note_off_c, 0, 45, 64
3, 44256, Note_on_c, 0, 50, 92
3, 44352, Note_off_c, 0, 50, 64
3, 44352, Note_on_c, 0, 55, 92
3, 44448, Note_off_c, 0, 55, 64
3, 44448, Note_on_c, 0, 50, 92
3, 44544, Note_off_c, 0, 50, 64
3, 44544, Note_on_c, 0, 43, 92
3, 44640, Note_off_c, 0, 43, 64
3, 44640, Note_on_c, 0, 50, 92
3, 44736, Note_off_c, 0, 50, 64
3, 44736, Note_on_c, 0, 55, 92
3, 44832, Note_off_c, 0, 55, 64
3, 44832, Note_on_c, 0, 50, 92
3, 44928, Note_off_c, 0, 50, 64
3, 44928, Note_on_c, 0, 45, 92
3, 45024, Note_off_c, 0, 45, 64
3, 45024, Note_on_c, 0, 50, 92
3, 45120, Note_off_c, 0, 50, 64
3, 45120, Note_on_c, 0, 55, 92
3, 45216, Note_off_c, 0, 55, 64
3, 45216, Note_on_c, 0, 50, 92
3, 45312, Note_off_c, 0, 50, 64
3, 45312, Note_on_c, 0, 47, 92
3, 45408, Note_off_c, 0, 47, 64
3, 45408, Note_on_c, 0, 50, 92
3, 45504, Note_off_c, 0, 50, 64
3, 45504, Note_on_c, 0, 55, 92
3, 45600, Note_off_c, 0, 55, 64
3, 45600, Note_on_c, 0, 50, 92
3, 45696, Note_off_c, 0, 50, 64
3, 45696, Note_on_c, 0, 45, 92
3, 45792, Note_off_c, 0, 45, 64
3, 45792, Note_on_c, 0, 50, 92
3, 45888, Note_off_c, 0, 50, 64
3, 45888, Note_on_c, 0, 55, 92
3, 45984, Note_off_c, 0, 55, 64
3, 45984, Note_on_c, 0, 50, 92
3, 46080, Note_off_c, 0, 50, 64
3, 46080, Note_on_c, 0, 43, 92
3, 46176, Note_on_c, 0, 50, 92
3, 46272, Note_off_c, 0, 50, 64
3, 46272, Note_on_c, 0, 45, 92
3, 46368, Note_off_c, 0, 45, 64
3, 46368, Note_on_c, 0, 50, 92
3, 46464, Note_off_c, 0, 50, 64
3, 46464, Note_on_c, 0, 47, 92
3, 46560, Note_off_c, 0, 47, 64
3, 46560, Note_on_c, 0, 50, 92
3, 46656, Note_off_c, 0, 50, 64
3, 46656, Note_on_c, 0, 45, 92
3, 46752, Note_off_c, 0, 45, 64
3, 46752, Note_on_c, 0, 50, 92
3, 46848, Note_off_c, 0, 50, 64
3, 46848, Note_off_c, 0, 43, 64
3, 46848, Note_on_c, 0, 43, 92
3, 46944, Note_on_c, 0, 50, 92
3, 47040, Note_off_c, 0, 50, 64
3, 47040, Note_on_c, 0, 45, 92
3, 47136, Note_off_c, 0, 45, 64
3, 47136, Note_on_c, 0, 50, 92
3, 47232, Note_off_c, 0, 50, 64
3, 47232, Note_on_c, 0, 47, 92
3, 47328, Note_off_c, 0, 47, 64
3, 47328, Note_on_c, 0, 50, 92
3, 47424, Note_off_c, 0, 50, 64
3, 47424, Note_off_c, 0, 43, 64
3, 47424, Note_on_c, 0, 43, 92
3, 47520, Note_on_c, 0, 50, 92
3, 47616, Note_off_c, 0, 50, 64
3, 47616, Note_off_c, 0, 43, 64
3, 47616, Note_on_c, 0, 48, 92
3, 47664, Note_off_c, 0, 48, 64
3, 47664, Note_on_c, 0, 50, 92
3, 47712, Note_off_c, 0, 50, 64
3, 47712, Note_on_c, 0, 52, 92
3, 47760, Note_off_c, 0, 52, 64
3, 47760, Note_on_c, 0, 53, 92
3, 47808, Note_off_c, 0, 53, 64
3, 47808, Note_on_c, 0, 55, 92
3, 47904, Note_off_c, 0, 55, 64
3, 47904, Note_on_c, 0, 52, 92
3, 48000, Note_off_c, 0, 52, 64
3, 48000, Note_on_c, 0, 50, 92
3, 48096, Note_off_c, 0, 50, 64
3, 48096, Note_on_c, 0, 53, 92
3, 48192, Note_off_c, 0, 53, 64
3, 48192, Note_on_c, 0, 55, 92
3, 48288, Note_off_c, 0, 55, 64
3, 48288, Note_on_c, 0, 53, 92
3, 48384, Note_off_c, 0, 53, 64
3, 48384, Note_on_c, 0, 52, 92
3, 48480, Note_off_c, 0, 52, 64
3, 48480, Note_on_c, 0, 53, 92
3, 48576, Note_off_c, 0, 53, 64
3, 48576, Note_on_c, 0, 55, 92
3, 48672, Note_off_c, 0, 55, 64
3, 48672, Note_on_c, 0, 53, 92
3, 48768, Note_off_c, 0, 53, 64
3, 48768, Note_on_c, 0, 50, 92
3, 48864, Note_off_c, 0, 50, 64
3, 48864, Note_on_c, 0, 53, 92
3, 48960, Note_off_c, 0, 53, 64
3, 48960, Note_on_c, 0, 55, 92
3, 49056, Note_off_c, 0, 55, 64
3, 49056, Note_on_c, 0, 53, 92
3, 49152, Note_off_c, 0, 53, 64
3, 49152, Note_on_c, 0, 48, 92
3, 49248, Note_on_c, 0, 55, 92
3, 49344, Note_off_c, 0, 55, 64
3, 49344, Note_on_c, 0, 50, 92
3, 49440, Note_off_c, 0, 50, 64
3, 49440, Note_on_c, 0, 55, 92
3, 49536, Note_off_c, 0, 55, 64
3, 49536, Note_on_c, 0, 52, 92
3, 49632, Note_off_c, 0, 52, 64
3, 49632, Note_on_c, 0, 55, 92
3, 49728, Note_off_c, 0, 55, 64
3, 49728, Note_on_c, 0, 50, 92
3, 49824, Note_off_c, 0, 50, 64
3, 49824, Note_on_c, 0, 55, 92
3, 49920, Note_off_c, 0, 55, 64
3, 49920, Note_off_c, 0, 48, 64
3, 49920, Note_on_c, 0, 48, 92
3, 50016, Note_on_c, 0, 55, 92
3, 50112, Note_off_c, 0, 55, 64
3, 50112, Note_on_c, 0, 50, 92
3, 50208, Note_off_c, 0, 50, 64
3, 50208, Note_on_c, 0, 55, 92
3, 50304, Note_off_c, 0, 55, 64
3, 50304, Note_on_c, 0, 52, 92
3, 50400, Note_off_c, 0, 52, 64
3, 50400, Note_on_c, 0, 55, 92
3, 50496, Note_off_c, 0, 55, 64
3, 50496, Note_off_c, 0, 48, 64
3, 50496, Note_on_c, 0, 48, 92
3, 50592, Note_on_c, 0, 55, 92
3, 50688, Note_off_c, 0, 55, 64
3, 50688, Note_off_c, 0, 48, 64
3, 50688, Note_on_c, 0, 55, 92
3, 50736, Note_off_c, 0, 55, 64
3, 50736, Note_on_c, 0, 57, 92
3, 50784, Note_off_c, 0, 57, 64
3, 50784, Note_on_c, 0, 59, 92
3, 50832, Note_off_c, 0, 59, 64
3, 50832, Note_on_c, 0, 60, 92
3, 50880, Note_off_c, 0, 60, 64
3, 50880, Note_on_c, 0, 62, 92
3, 50976, Note_off_c, 0, 62, 64
3, 50976, Note_on_c, 0, 59, 92
3, 51072, Note_off_c, 0, 59, 64
3, 51072, Note_on_c, 0, 57, 92
3, 51168, Note_off_c, 0, 57, 64
3, 51168, Note_on_c, 0, 60, 92
3, 51264, Note_off_c, 0, 60, 64
3, 51264, Note_on_c, 0, 62, 92
3, 51360, Note_off_c, 0, 62, 64
3, 51360, Note_on_c, 0, 60, 92
3, 51456, Note_off_c, 0, 60, 64
3, 51456, Note_on_c, 0, 59, 92
3, 51552, Note_off_c, 0, 59, 64
3, 51552, Note_on_c, 0, 60, 92
3, 51648, Note_off_c, 0, 60, 64
3, 51648, Note_on_c, 0, 62, 92
3, 51744, Note_off_c, 0, 62, 64
3, 51744, Note_on_c, 0, 60, 92
3, 51840, Note_off_c, 0, 60, 64
3, 51840, Note_on_c, 0, 57, 92
3, 51936, Note_off_c, 0, 57, 64
3, 51936, Note_on_c, 0, 60, 92
3, 52032, Note_off_c, 0, 60, 64
3, 52032, Note_on_c, 0, 62, 92
3, 52128, Note_off_c, 0, 62, 64
3, 52128, Note_on_c, 0, 60, 92
3, 52224, Note_off_c, 0, 60, 64
3, 52224, Note_on_c, 0, 55, 92
3, 52320, Note_on_c, 0, 62, 92
3, 52416, Note_off_c, 0, 62, 64
3, 52416, Note_on_c, 0, 57, 92
3, 52512, Note_off_c, 0, 57, 64
3, 52512, Note_on_c, 0, 62, 92
3, 52608, Note_off_c, 0, 62, 64
3, 52608, Note_on_c, 0, 59, 92
3, 52704, Note_off_c, 0, 59, 64
3, 52704, Note_on_c, 0, 62, 92
3, 52800, Note_off_c, 0, 62, 64
3, 52800, Note_on_c, 0, 57, 92
3, 52896, Note_off_c, 0, 57, 64
3, 52896, Note_on_c, 0, 62, 92
3, 52992, Note_off_c, 0, 62, 64
3, 52992, Note_off_c, 0, 55, 64
3, 52992, Note_on_c, 0, 55, 92
3, 53088, Note_on_c, 0, 62, 92
3, 53184, Note_off_c, 0, 62, 64
3, 53184, Note_on_c, 0, 57, 92
3, 53280, Note_off_c, 0, 57, 64
3, 53280, Note_on_c, 0, 62, 92
3, 53376, Note_off_c, 0, 62, 64
3, 53376, Note_on_c, 0, 59, 92
3, 53472, Note_off_c, 0, 59, 64
3, 53472, Note_on_c, 0, 62, 92
3, 53568, Note_off_c, 0, 62, 64
3, 53568, Note_off_c, 0, 55, 64
3, 53568, Note_on_c, 0, 55, 92
3, 53664, Note_on_c, 0, 62, 92
3, 53760, Note_off_c, 0, 62, 64
3, 53760, Note_off_c, 0, 55, 64
3, 53760, Note_on_c, 0, 50, 92
3, 53856, Note_off_c, 0, 50, 64
3, 53856, Note_on_c, 0, 57, 92
3, 53952, Note_off_c, 0, 57, 64
3, 53952, Note_on_c, 0, 62, 92
3, 54048, Note_off_c, 0, 62, 64
3, 54048, Note_on_c, 0, 57, 92
3, 54144, Note_off_c, 0, 57, 64
3, 54144, Note_on_c, 0, 52, 92
3, 54240, Note_off_c, 0, 52, 64
3, 54240, Note_on_c, 0, 57, 92
3, 54336, Note_off_c, 0, 57, 64
3, 54336, Note_on_c, 0, 62, 92
3, 54432, Note_off_c, 0, 62, 64
3, 54432, Note_on_c, 0, 57, 92
3, 54528, Note_off_c, 0, 57, 64
3, 54528, Note_on_c, 0, 54, 92
3, 54624, Note_off_c, 0, 54, 64
3, 54624, Note_on_c, 0, 57, 92
3, 54720, Note_off_c, 0, 57, 64
3, 54720, Note_on_c, 0, 62, 92
3, 54816, Note_off_c, 0, 62, 64
3, 54816, Note_on_c, 0, 57, 92
3, 54912, Note_off_c, 0, 57, 64
3, 54912, Note_on_c, 0, 52, 92
3, 55008, Note_off_c, 0, 52, 64
3, 55008, Note_on_c, 0, 57, 92
3, 55104, Note_off_c, 0, 57, 64
3, 55104, Note_on_c, 0, 62, 92
3, 55200, Note_off_c, 0, 62, 64
3, 55200, Note_on_c, 0, 57, 92
3, 55296, Note_off_c, 0, 57, 64
3, 55296, Note_on_c, 0, 50, 92
3, 55392, Note_on_c, 0, 57, 92
3, 55488, Note_off_c, 0, 57, 64
3, 55488, Note_on_c, 0, 52, 92
3, 55584, Note_off_c, 0, 52, 64
3, 55584, Note_on_c, 0, 57, 92
3, 55680, Note_off_c, 0, 57, 64
3, 55680, Note_on_c, 0, 54, 92
3, 55776, Note_off_c, 0, 54, 64
3, 55776, Note_on_c, 0, 57, 92
3, 55872, Note_off_c, 0, 57, 64
3, 55872, Note_on_c, 0, 52, 92
3, 55968, Note_off_c, 0, 52, 64
3, 55968, Note_on_c, 0, 57, 92
3, 56064, Note_off_c, 0, 57, 64
3, 56064, Note_off_c, 0, 50, 64
3, 56064, Note_on_c, 0, 50, 92
3, 56160, Note_on_c, 0, 57, 92
3, 56256, Note_off_c, 0, 57, 64
3, 56256, Note_on_c, 0, 52, 92
3, 56352, Note_off_c, 0, 52, 64
3, 56352, Note_on_c, 0, 57, 92
3, 56448, Note_off_c, 0, 57, 64
3, 56448, Note_on_c, 0, 54, 92
3, 56544, Note_off_c, 0, 54, 64
3, 56544, Note_on_c, 0, 57, 92
3, 56640, Note_off_c, 0, 57, 64
3, 56640, Note_off_c, 0, 50, 64
3, 56640, Note_on_c, 0, 50, 92
3, 56736, Note_on_c, 0, 57, 92
3, 56832, Note_off_c, 0, 57, 64
3, 56832, Note_off_c, 0, 50, 64
3, 56832, Note_on_c, 0, 55, 92
3, 56880, Note_off_c, 0, 55, 64
3, 56880, Note_on_c, 0, 57, 92
3, 56928, Note_off_c, 0, 57, 64
3, 56928, Note_on_c, 0, 59, 92
3, 56976, Note_off_c, 0, 59, 64
3, 56976, Note_on_c, 0, 60, 92
3, 57024, Note_off_c, 0, 60, 64
3, 57024, Note_on_c, 0, 62, 92
3, 57120, Note_off_c, 0, 62, 64
3, 57120, Note_on_c, 0, 59, 92
3, 57216, Note_off_c, 0, 59, 64
3, 57216, Note_on_c, 0, 57, 92
3, 57312, Note_off_c, 0, 57, 64
3, 57312, Note_on_c, 0, 60, 92
3, 57408, Note_off_c, 0, 60, 64
3, 57408, Note_on_c, 0, 62, 92
3, 57504, Note_off_c, 0, 62, 64
3, 57504, Note_on_c, 0, 60, 92
3, 57600, Note_off_c, 0, 60, 64
3, 57600, Note_on_c, 0, 59, 92
3, 57696, Note_off_c, 0, 59, 64
3, 57696, Note_on_c, 0, 60, 92
3, 57792, Note_off_c, 0, 60, 64
3, 57792, Note_on_c, 0, 62, 92
3, 57888, Note_off_c, 0, 62, 64
3, 57888, Note_on_c, 0, 60, 92
3, 57984, Note_off_c, 0, 60, 64
3, 57984, Note_on_c, 0, 57, 92
3, 58080, Note_off_c, 0, 57, 64
3, 58080, Note_on_c, 0, 60, 92
3, 58176, Note_off_c, 0, 60, 64
3, 58176, Note_on_c, 0, 62, 92
3, 58272, Note_off_c, 0, 62, 64
3, 58272, Note_on_c, 0, 60, 92
3, 58368, Note_off_c, 0, 60, 64
3, 58368, Note_on_c, 0, 55, 92
3, 58464, Note_on_c, 0, 62, 92
3, 58560, Note_off_c, 0, 62, 64
3, 58560, Note_on_c, 0, 57, 92
3, 58656, Note_off_c, 0, 57, 64
3, 58656, Note_on_c, 0, 62, 92
3, 58752, Note_off_c, 0, 62, 64
3, 58752, Note_on_c, 0, 59, 92
3, 58848, Note_off_c, 0, 59, 64
3, 58848, Note_on_c, 0, 62, 92
3, 58944, Note_off_c, 0, 62, 64
3, 58944, Note_on_c, 0, 57, 92
3, 59040, Note_off_c, 0, 57, 64
3, 59040, Note_on_c, 0, 62, 92
3, 59136, Note_off_c, 0, 62, 64
3, 59136, Note_off_c, 0, 55, 64
3, 59136, Note_on_c, 0, 55, 92
3, 59232, Note_on_c, 0, 62, 92
3, 59328, Note_off_c, 0, 62, 64
3, 59328, Note_on_c, 0, 57, 92
3, 59424, Note_off_c, 0, 57, 64
3, 59424, Note_on_c, 0, 62, 92
3, 59520, Note_off_c, 0, 62, 64
3, 59520, Note_on_c, 0, 59, 92
3, 59616, Note_off_c, 0, 59, 64
3, 59616, Note_on_c, 0, 62, 92
3, 59712, Note_off_c, 0, 62, 64
3, 59712, Note_on_c, 0, 57, 92
3, 59808, Note_off_c, 0, 57, 64
3, 59808, Note_on_c, 0, 62, 92
3, 59904, Note_off_c, 0, 62, 64
3, 59904, Note_off_c, 0, 55, 64
3, 59904, Note_on_c, 0, 55, 92
3, 60000, Note_off_c, 0, 55, 64
3, 60000, Note_on_c, 0, 62, 92
3, 60096, Note_off_c, 0, 62, 64
3, 60096, Note_on_c, 0, 62, 92
3, 60192, Note_off_c, 0, 62, 64
3, 60192, Note_on_c, 0, 62, 92
3, 60288, Note_off_c, 0, 62, 64
3, 60288, Note_on_c, 0, 62, 92
3, 60384, Note_off_c, 0, 62, 64
3, 60384, Note_on_c, 0, 62, 92
3, 60480, Note_off_c, 0, 62, 64
3, 60480, Note_on_c, 0, 62, 92
3, 60576, Note_off_c, 0, 62, 64
3, 60576, Note_on_c, 0, 62, 92
3, 60672, Note_off_c, 0, 62, 64
3, 60672, Note_on_c, 0, 62, 92
3, 60768, Note_off_c, 0, 62, 64
3, 60864, Note_on_c, 0, 62, 92
3, 60960, Note_off_c, 0, 62, 64
3, 61056, Note_on_c, 0, 55, 92
3, 61152, Note_off_c, 0, 55, 64
3, 61440, Note_on_c, 0, 55, 92
3, 61536, Note_off_c, 0, 55, 64
3, 61824, Note_on_c, 0, 55, 92
3, 61920, Note_off_c, 0, 55, 64
3, 62208, Note_on_c, 0, 55, 92
3, 62304, Note_off_c, 0, 55, 64
3, 62976, Note_on_c, 0, 55, 92
3, 63072, Note_off_c, 0, 55, 64
3, 63360, Note_on_c, 0, 55, 92
3, 63456, Note_off_c, 0, 55, 64
3, 63744, Note_on_c, 0, 55, 92
3, 63840, Note_off_c, 0, 55, 64
3, 64128, Note_on_c, 0, 55, 92
3, 64224, Note_off_c, 0, 55, 64
3, 64512, Note_on_c, 0, 55, 92
3, 64608, Note_off_c, 0, 55, 64
3, 65280, Note_on_c, 0, 55, 92
3, 65376, Note_off_c, 0, 55, 64
3, 65664, Note_on_c, 0, 55, 92
3, 65760, Note_off_c, 0, 55, 64
3, 66048, Note_on_c, 0, 55, 92
3, 66144, Note_off_c, 0, 55, 64
3, 66432, Note_on_c, 0, 55, 92
3, 66528, Note_off_c, 0, 55, 64
3, 66816, Note_on_c, 0, 55, 92
3, 66912, Note_off_c, 0, 55, 64
3, 67584, Note_on_c, 0, 55, 92
3, 67680, Note_off_c, 0, 55, 64
3, 67968, Note_on_c, 0, 55, 92
3, 68064, Note_off_c, 0, 55, 64
3, 68352, Note_on_c, 0, 55, 92
3, 68448, Note_off_c, 0, 55, 64
3, 68736, Note_on_c, 0, 55, 92
3, 68832, Note_off_c, 0, 55, 64
3, 69120, Note_on_c, 0, 55, 92
3, 69216, Note_off_c, 0, 55, 64
3, 69504, Note_on_c, 0, 55, 92
3, 69600, Note_off_c, 0, 55, 64
3, 69888, Note_on_c, 0, 55, 92
3, 69984, Note_off_c, 0, 55, 64
3, 70272, Note_on_c, 0, 55, 92
3, 70368, Note_off_c, 0, 55, 64
3, 70656, Note_on_c, 0, 55, 92
3, 70752, Note_off_c, 0, 55, 64
3, 71040, Note_on_c, 0, 55, 92
3, 71136, Note_off_c, 0, 55, 64
3, 71424, Note_on_c, 0, 55, 92
3, 71520, Note_off_c, 0, 55, 64
3, 71808, Note_on_c, 0, 55, 92
3, 71904, Note_off_c, 0, 55, 64
3, 72192, Note_on_c, 0, 55, 92
3, 72288, Note_off_c, 0, 55, 64
3, 72576, Note_on_c, 0, 55, 92
3, 72672, Note_off_c, 0, 55, 64
3, 72960, Note_on_c, 0, 55, 92
3, 73056, Note_off_c, 0, 55, 64
3, 73344, Note_on_c, 0, 55, 92
3, 73440, Note_off_c, 0, 55, 64
3, 73728, Note_on_c, 0, 55, 92
3, 73824, Note_off_c, 0, 55, 64
3, 74112, Note_on_c, 0, 55, 92
3, 74208, Note_off_c, 0, 55, 64
3, 74496, Note_on_c, 0, 55, 92
3, 74592, Note_off_c, 0, 55, 64
3, 74880, Note_on_c, 0, 55, 92
3, 74976, Note_off_c, 0, 55, 64
3, 75264, Note_on_c, 0, 55, 92
3, 75360, Note_off_c, 0, 55, 64
3, 75648, Note_on_c, 0, 55, 92
3, 75744, Note_off_c, 0, 55, 64
3, 76032, Note_on_c, 0, 55, 92
3, 76128, Note_off_c, 0, 55, 64
3, 76416, Note_on_c, 0, 55, 92
3, 76512, Note_off_c, 0, 55, 64
3, 76896, Note_on_c, 0, 62, 92
3, 76992, Note_off_c, 0, 62, 64
3, 76992, Note_on_c, 0, 55, 92
3, 77088, Note_off_c, 0, 55, 64
3, 77664, Note_on_c, 0, 59, 92
3, 77760, Note_off_c, 0, 59, 64
3, 77760, Note_on_c, 0, 55, 92
3, 77856, Note_off_c, 0, 55, 64
3, 78432, Note_on_c, 0, 60, 92
3, 78528, Note_off_c, 0, 60, 64
3, 78528, Note_on_c, 0, 55, 92
3, 78624, Note_off_c, 0, 55, 64
3, 79200, Note_on_c, 0, 62, 92
3, 79296, Note_off_c, 0, 62, 64
3, 79296, Note_on_c, 0, 55, 92
3, 79392, Note_off_c, 0, 55, 64
3, 79968, Note_on_c, 0, 64, 92
3, 80064, Note_off_c, 0, 64, 64
3, 80064, Note_on_c, 0, 55, 92
3, 80160, Note_off_c, 0, 55, 64
3, 80736, Note_on_c, 0, 66, 92
3, 80832, Note_off_c, 0, 66, 64
3, 80832, Note_on_c, 0, 55, 92
3, 80928, Note_off_c, 0, 55, 64
3, 81504, Note_on_c, 0, 67, 92
3, 81600, Note_off_c, 0, 67, 64
3, 81600, Note_on_c, 0, 55, 92
3, 81696, Note_off_c, 0, 55, 64
3, 82272, Note_on_c, 0, 69, 92
3, 82368, Note_off_c, 0, 69, 64
3, 82368, Note_on_c, 0, 55, 92
3, 82464, Note_off_c, 0, 55, 64
3, 87360, Note_on_c, 0, 59, 92
3, 87456, Note_off_c, 0, 59, 64
3, 87456, Note_on_c, 0, 57, 92
3, 87552, Note_off_c, 0, 57, 64
3, 87552, Note_on_c, 0, 55, 92
3, 87648, Note_off_c, 0, 55, 64
3, 87648, Note_on_c, 0, 55, 92
3, 87744, Note_off_c, 0, 55, 64
3, 87744, Note_on_c, 0, 54, 92
3, 87840, Note_off_c, 0, 54, 64
3, 87840, Note_on_c, 0, 52, 92
3, 87936, Note_off_c, 0, 52, 64
3, 87936, Note_on_c, 0, 50, 92
3, 88032, Note_off_c, 0, 50, 64
3, 88032, Note_on_c, 0, 48, 92
3, 88128, Note_off_c, 0, 48, 64
3, 88128, Note_on_c, 0, 47, 92
3, 88224, Note_off_c, 0, 47, 64
3, 88224, Note_on_c, 0, 45, 92
3, 88320, Note_off_c, 0, 45, 64
3, 88320, Note_on_c, 0, 43, 92
3, 88320, Note_on_c, 0, 55, 92
3, 88416, Note_off_c, 0, 55, 64
3, 88416, Note_on_c, 0, 57, 92
3, 88512, Note_off_c, 0, 57, 64
3, 88512, Note_off_c, 0, 43, 64
3, 88512, Note_on_c, 0, 59, 92
3, 88608, Note_off_c, 0, 59, 64
3, 88608, Note_on_c, 0, 60, 92
3, 88704, Note_off_c, 0, 60, 64
3, 88704, Note_on_c, 0, 62, 92
3, 88896, Note_off_c, 0, 62, 64
3, 88896, Note_on_c, 0, 62, 92
3, 89088, Note_off_c, 0, 62, 64
3, 89088, Note_on_c, 0, 64, 92
3, 89280, Note_off_c, 0, 64, 64
3, 89280, Note_on_c, 0, 62, 92
3, 89472, Note_off_c, 0, 62, 64
3, 89472, Note_on_c, 0, 64, 92
3, 89664, Note_off_c, 0, 64, 64
3, 89664, Note_on_c, 0, 62, 92
3, 89856, Note_off_c, 0, 62, 64
3, 89856, Note_on_c, 0, 55, 92
3, 89952, Note_off_c, 0, 55, 64
3, 89952, Note_on_c, 0, 57, 92
3, 90048, Note_off_c, 0, 57, 64
3, 90048, Note_on_c, 0, 59, 92
3, 90144, Note_off_c, 0, 59, 64
3, 90144, Note_on_c, 0, 60, 92
3, 90240, Note_off_c, 0, 60, 64
3, 90240, Note_on_c, 0, 62, 92
3, 90432, Note_off_c, 0, 62, 64
3, 90432, Note_on_c, 0, 62, 92
3, 90624, Note_off_c, 0, 62, 64
3, 90624, Note_on_c, 0, 64, 92
3, 90816, Note_off_c, 0, 64, 64
3, 90816, Note_on_c, 0, 62, 92
3, 91008, Note_off_c, 0, 62, 64
3, 91008, Note_on_c, 0, 64, 92
3, 91200, Note_off_c, 0, 64, 64
3, 91200, Note_on_c, 0, 62, 92
3, 91392, Note_off_c, 0, 62, 64
3, 91392, Note_on_c, 0, 55, 92
3, 91488, Note_off_c, 0, 55, 64
3, 91488, Note_on_c, 0, 57, 92
3, 91584, Note_off_c, 0, 57, 64
3, 91584, Note_on_c, 0, 59, 92
3, 91680, Note_off_c, 0, 59, 64
3, 91680, Note_on_c, 0, 60, 92
3, 91776, Note_off_c, 0, 60, 64
3, 91776, Note_on_c, 0, 62, 92
3, 91872, Note_off_c, 0, 62, 64
3, 91872, Note_on_c, 0, 64, 92
3, 91968, Note_off_c, 0, 64, 64
3, 91968, Note_on_c, 0, 65, 92
3, 92064, Note_off_c, 0, 65, 64
3, 92064, Note_on_c, 0, 62, 92
3, 92160, Note_off_c, 0, 62, 64
3, 92160, Note_on_c, 0, 64, 92
3, 92544, Note_off_c, 0, 64, 64
3, 92736, Note_on_c, 0, 67, 92
3, 92736, Note_on_c, 0, 60, 92
3, 92928, Note_off_c, 0, 60, 64
3, 92928, Note_off_c, 0, 67, 64
3, 92928, Note_on_c, 0, 65, 92
3, 92928, Note_on_c, 0, 60, 92
3, 93120, Note_off_c, 0, 60, 64
3, 93120, Note_off_c, 0, 65, 64
3, 93120, Note_on_c, 0, 67, 92
3, 93120, Note_on_c, 0, 60, 92
3, 93312, Note_off_c, 0, 60, 64
3, 93312, Note_off_c, 0, 67, 64
3, 93312, Note_on_c, 0, 65, 92
3, 93312, Note_on_c, 0, 60, 92
3, 93504, Note_off_c, 0, 60, 64
3, 93504, Note_off_c, 0, 65, 64
3, 93504, Note_on_c, 0, 67, 92
3, 93504, Note_on_c, 0, 60, 92
3, 93696, Note_off_c, 0, 60, 64
3, 93696, Note_off_c, 0, 67, 64
3, 94272, Note_on_c, 0, 67, 92
3, 94272, Note_on_c, 0, 60, 92
3, 94464, Note_off_c, 0, 60, 64
3, 94464, Note_off_c, 0, 67, 64
3, 94464, Note_on_c, 0, 65, 92
3, 94464, Note_on_c, 0, 60, 92
3, 94656, Note_off_c, 0, 60, 64
3, 94656, Note_off_c, 0, 65, 64
3, 94656, Note_on_c, 0, 67, 92
3, 94656, Note_on_c, 0, 60, 92
3, 94848, Note_off_c, 0, 60, 64
3, 94848, Note_off_c, 0, 67, 64
3, 94848, Note_on_c, 0, 65, 92
3, 94848, Note_on_c, 0, 60, 92
3, 95040, Note_off_c, 0, 60, 64
3, 95040, Note_off_c, 0, 65, 64
3, 95040, Note_on_c, 0, 67, 92
3, 95040, Note_on_c, 0, 60, 92
3, 95232, Note_off_c, 0, 60, 64
3, 95232, Note_off_c, 0, 67, 64
3, 95616, Note_on_c, 0, 67, 92
3, 95616, Note_on_c, 0, 59, 92
3, 95808, Note_off_c, 0, 59, 64
3, 95808, Note_off_c, 0, 67, 64
3, 95808, Note_on_c, 0, 67, 92
3, 95808, Note_on_c, 0, 59, 92
3, 96000, Note_off_c, 0, 59, 64
3, 96000, Note_off_c, 0, 67, 64
3, 96000, Note_on_c, 0, 67, 92
3, 96000, Note_on_c, 0, 60, 92
3, 96192, Note_off_c, 0, 60, 64
3, 96192, Note_off_c, 0, 67, 64
3, 97440, Note_on_c, 0, 59, 92
3, 97536, Note_off_c, 0, 59, 64
3, 97536, Note_on_c, 0, 57, 92
3, 97728, Note_off_c, 0, 57, 64
3, 99072, Note_on_c, 0, 52, 92
3, 99072, Note_on_c, 0, 56, 92
3, 99072, Note_on_c, 0, 59, 92
3, 99264, Note_off_c, 0, 59, 64
3, 99264, Note_off_c, 0, 56, 64
3, 99264, Note_off_c, 0, 52, 64
3, 99456, Note_on_c, 0, 52, 92
3, 99456, Note_on_c, 0, 56, 92
3, 99456, Note_on_c, 0, 59, 92
3, 99648, Note_off_c, 0, 59, 64
3, 99648, Note_off_c, 0, 56, 64
3, 99648, Note_off_c, 0, 52, 64
3, 99840, Note_on_c, 0, 52, 92
3, 99840, Note_on_c, 0, 56, 92
3, 99840, Note_on_c, 0, 59, 92
3, 100032, Note_off_c, 0, 59, 64
3, 100032, Note_off_c, 0, 56, 64
3, 100032, Note_off_c, 0, 52, 64
3, 100224, Note_on_c, 0, 56, 92
3, 100224, Note_on_c, 0, 52, 92
3, 100224, Note_on_c, 0, 59, 92
3, 100416, Note_off_c, 0, 59, 64
3, 100416, Note_off_c, 0, 52, 64
3, 100416, Note_off_c, 0, 56, 64
3, 100608, Note_on_c, 0, 45, 92
3, 100608, Note_on_c, 0, 52, 92
3, 100608, Note_on_c, 0, 57, 92
3, 100992, Note_off_c, 0, 57, 64
3, 100992, Note_off_c, 0, 52, 64
3, 100992, Note_off_c, 0, 45, 64
3, 101376, Note_on_c, 0, 50, 92
3, 101376, Note_on_c, 0, 54, 92
3, 101376, Note_on_c, 0, 57, 92
3, 101568, Note_off_c, 0, 57, 64
3, 101568, Note_off_c, 0, 54, 64
3, 101568, Note_off_c, 0, 50, 64
3, 101760, Note_on_c, 0, 50, 92
3, 101760, Note_on_c, 0, 54, 92
3, 101760, Note_on_c, 0, 57, 92
3, 101952, Note_off_c, 0, 57, 64
3, 101952, Note_off_c, 0, 54, 64
3, 101952, Note_off_c, 0, 50, 64
3, 102144, Note_on_c, 0, 50, 92
3, 102144, Note_on_c, 0, 54, 92
3, 102144, Note_on_c, 0, 57, 92
3, 102336, Note_off_c, 0, 57, 64
3, 102336, Note_off_c, 0, 54, 64
3, 102336, Note_off_c, 0, 50, 64
3, 102528, Note_on_c, 0, 50, 92
3, 102528, Note_on_c, 0, 54, 92
3, 102528, Note_on_c, 0, 57, 92
3, 102720, Note_off_c, 0, 57, 64
3, 102720, Note_off_c, 0, 54, 64
3, 102720, Note_off_c, 0, 50, 64
3, 102912, Note_on_c, 0, 43, 92
3, 102912, Note_on_c, 0, 50, 92
3, 102912, Note_on_c, 0, 55, 92
3, 103296, Note_off_c, 0, 55, 64
3, 103296, Note_off_c, 0, 50, 64
3, 103296, Note_off_c, 0, 43, 64
3, 103680, Note_on_c, 0, 48, 92
3, 103680, Note_on_c, 0, 52, 92
3, 103680, Note_on_c, 0, 55, 92
3, 103872, Note_off_c, 0, 55, 64
3, 103872, Note_off_c, 0, 52, 64
3, 103872, Note_off_c, 0, 48, 64
3, 104064, Note_on_c, 0, 48, 92
3, 104064, Note_on_c, 0, 52, 92
3, 104064, Note_on_c, 0, 55, 92
3, 104256, Note_off_c, 0, 55, 64
3, 104256, Note_off_c, 0, 52, 64
3, 104256, Note_off_c, 0, 48, 64
3, 104448, Note_on_c, 0, 48, 92
3, 104448, Note_on_c, 0, 52, 92
3, 104448, Note_on_c, 0, 55, 92
3, 104640, Note_off_c, 0, 55, 64
3, 104640, Note_off_c, 0, 52, 64
3, 104640, Note_off_c, 0, 48, 64
3, 104832, Note_on_c, 0, 48, 92
3, 104832, Note_on_c, 0, 52, 92
3, 104832, Note_on_c, 0, 55, 92
3, 105024, Note_off_c, 0, 55, 64
3, 105024, Note_off_c, 0, 52, 64
3, 105024, Note_off_c, 0, 48, 64
3, 105216, Note_on_c, 0, 41, 92
3, 105216, Note_on_c, 0, 48, 92
3, 105216, Note_on_c, 0, 53, 92
3, 105600, Note_off_c, 0, 53, 64
3, 105600, Note_off_c, 0, 48, 64
3, 105600, Note_off_c, 0, 41, 64
3, 105984, Note_on_c, 0, 54, 92
3, 105984, Note_on_c, 0, 57, 92
3, 105984, Note_on_c, 0, 60, 92
3, 106176, Note_off_c, 0, 60, 64
3, 106176, Note_off_c, 0, 57, 64
3, 106176, Note_off_c, 0, 54, 64
3, 106368, Note_on_c, 0, 54, 92
3, 106368, Note_on_c, 0, 57, 92
3, 106368, Note_on_c, 0, 60, 92
3, 106560, Note_off_c, 0, 60, 64
3, 106560, Note_off_c, 0, 57, 64
3, 106560, Note_off_c, 0, 54, 64
3, 106752, Note_on_c, 0, 54, 92
3, 106752, Note_on_c, 0, 57, 92
3, 106752, Note_on_c, 0, 60, 92
3, 106944, Note_off_c, 0, 60, 64
3, 106944, Note_off_c, 0, 57, 64
3, 106944, Note_off_c, 0, 54, 64
3, 107136, Note_on_c, 0, 54, 92
3, 107136, Note_on_c, 0, 57, 92
3, 107136, Note_on_c, 0, 60, 92
3, 107328, Note_off_c, 0, 60, 64
3, 107328, Note_off_c, 0, 57, 64
3, 107328, Note_off_c, 0, 54, 64
3, 107520, Note_on_c, 0, 54, 92
3, 107520, Note_on_c, 0, 57, 92
3, 107520, Note_on_c, 0, 60, 92
3, 107712, Note_off_c, 0, 60, 64
3, 107712, Note_off_c, 0, 57, 64
3, 107712, Note_off_c, 0, 54, 64
3, 107904, Note_on_c, 0, 54, 92
3, 107904, Note_on_c, 0, 57, 92
3, 107904, Note_on_c, 0, 62, 92
3, 108096, Note_off_c, 0, 62, 64
3, 108096, Note_off_c, 0, 57, 64
3, 108096, Note_off_c, 0, 54, 64
3, 108288, Note_on_c, 0, 67, 92
3, 108288, Note_on_c, 0, 55, 92
3, 108288, Note_on_c, 0, 62, 92
3, 108672, Note_off_c, 0, 62, 64
3, 108672, Note_off_c, 0, 55, 64
3, 108672, Note_off_c, 0, 67, 64
3, 109056, Note_on_c, 0, 67, 92
3, 109056, Note_on_c, 0, 64, 92
3, 109056, Note_on_c, 0, 57, 92
3, 109248, Note_off_c, 0, 57, 64
3, 109248, Note_off_c, 0, 64, 64
3, 109248, Note_off_c, 0, 67, 64
3, 109440, Note_on_c, 0, 64, 92
3, 109440, Note_on_c, 0, 67, 92
3, 109440, Note_on_c, 0, 57, 92
3, 109632, Note_off_c, 0, 57, 64
3, 109632, Note_off_c, 0, 67, 64
3, 109632, Note_off_c, 0, 64, 64
3, 109824, Note_on_c, 0, 61, 92
3, 109824, Note_on_c, 0, 64, 92
3, 109824, Note_on_c, 0, 57, 92
3, 110016, Note_off_c, 0, 57, 64
3, 110016, Note_off_c, 0, 64, 64
3, 110016, Note_off_c, 0, 61, 64
3, 110208, Note_on_c, 0, 64, 92
3, 110208, Note_on_c, 0, 61, 92
3, 110208, Note_on_c, 0, 57, 92
3, 110400, Note_off_c, 0, 57, 64
3, 110400, Note_off_c, 0, 61, 64
3, 110400, Note_off_c, 0, 64, 64
3, 110592, Note_on_c, 0, 61, 92
3, 110592, Note_on_c, 0, 64, 92
3, 110592, Note_on_c, 0, 57, 92
3, 110784, Note_off_c, 0, 57, 64
3, 110784, Note_off_c, 0, 64, 64
3, 110784, Note_off_c, 0, 61, 64
3, 110976, Note_on_c, 0, 64, 92
3, 110976, Note_on_c, 0, 61, 92
3, 110976, Note_on_c, 0, 57, 92
3, 111168, Note_off_c, 0, 57, 64
3, 111168, Note_off_c, 0, 61, 64
3, 111168, Note_off_c, 0, 64, 64
3, 111360, Note_on_c, 0, 45, 92
3, 111360, Note_on_c, 0, 49, 92
3, 111360, Note_on_c, 0, 57, 92
3, 111552, Note_off_c, 0, 57, 64
3, 111552, Note_off_c, 0, 49, 64
3, 111552, Note_off_c, 0, 45, 64
3, 111744, Note_on_c, 0, 45, 92
3, 111744, Note_on_c, 0, 49, 92
3, 111744, Note_on_c, 0, 57, 92
3, 111936, Note_off_c, 0, 57, 64
3, 111936, Note_off_c, 0, 49, 64
3, 111936, Note_off_c, 0, 45, 64
3, 112128, Note_on_c, 0, 50, 92
3, 112128, Note_on_c, 0, 53, 92
3, 112128, Note_on_c, 0, 57, 92
3, 112320, Note_off_c, 0, 57, 64
3, 112320, Note_off_c, 0, 53, 64
3, 112320, Note_off_c, 0, 50, 64
3, 112512, Note_on_c, 0, 50, 92
3, 112512, Note_on_c, 0, 53, 92
3, 112512, Note_on_c, 0, 57, 92
3, 112704, Note_off_c, 0, 57, 64
3, 112704, Note_off_c, 0, 53, 64
3, 112704, Note_off_c, 0, 50, 64
3, 112896, Note_on_c, 0, 50, 92
3, 112896, Note_on_c, 0, 53, 92
3, 112896, Note_on_c, 0, 57, 92
3, 113088, Note_off_c, 0, 57, 64
3, 113088, Note_off_c, 0, 53, 64
3, 113088, Note_off_c, 0, 50, 64
3, 113280, Note_on_c, 0, 50, 92
3, 113280, Note_on_c, 0, 53, 92
3, 113280, Note_on_c, 0, 57, 92
3, 113472, Note_off_c, 0, 57, 64
3, 113472, Note_off_c, 0, 53, 64
3, 113472, Note_off_c, 0, 50, 64
3, 113664, Note_on_c, 0, 46, 92
3, 113664, Note_on_c, 0, 53, 92
3, 113664, Note_on_c, 0, 58, 92
3, 113856, Note_off_c, 0, 58, 64
3, 113856, Note_off_c, 0, 53, 64
3, 113856, Note_off_c, 0, 46, 64
3, 114048, Note_on_c, 0, 46, 92
3, 114048, Note_on_c, 0, 53, 92
3, 114048, Note_on_c, 0, 58, 92
3, 114240, Note_off_c, 0, 58, 64
3, 114240, Note_off_c, 0, 53, 64
3, 114240, Note_off_c, 0, 46, 64
3, 114432, Note_on_c, 0, 53, 92
3, 114432, Note_on_c, 0, 50, 92
3, 114432, Note_on_c, 0, 46, 92
3, 114624, Note_off_c, 0, 46, 64
3, 114624, Note_off_c, 0, 50, 64
3, 114624, Note_off_c, 0, 53, 64
3, 114816, Note_on_c, 0, 53, 92
3, 114816, Note_on_c, 0, 50, 92
3, 114816, Note_on_c, 0, 46, 92
3, 115008, Note_off_c, 0, 46, 64
3, 115008, Note_off_c, 0, 50, 64
3, 115008, Note_off_c, 0, 53, 64
3, 115200, Note_on_c, 0, 50, 92
3, 115200, Note_on_c, 0, 55, 92
3, 115200, Note_on_c, 0, 46, 92
3, 115392, Note_off_c, 0, 46, 64
3, 115392, Note_off_c, 0, 55, 64
3, 115392, Note_off_c, 0, 50, 64
3, 115584, Note_on_c, 0, 50, 92
3, 115584, Note_on_c, 0, 55, 92
3, 115584, Note_on_c, 0, 46, 92
3, 115776, Note_off_c, 0, 46, 64
3, 115776, Note_off_c, 0, 55, 64
3, 115776, Note_off_c, 0, 50, 64
3, 115968, Note_on_c, 0, 43, 92
3, 115968, Note_on_c, 0, 55, 92
3, 115968, Note_on_c, 0, 46, 92
3, 116160, Note_off_c, 0, 46, 64
3, 116160, Note_off_c, 0, 55, 64
3, 116160, Note_off_c, 0, 43, 64
3, 116352, Note_on_c, 0, 43, 92
3, 116352, Note_on_c, 0, 55, 92
3, 116352, Note_on_c, 0, 46, 92
3, 116544, Note_off_c, 0, 46, 64
3, 116544, Note_off_c, 0, 55, 64
3, 116544, Note_off_c, 0, 43, 64
3, 116736, Note_on_c, 0, 45, 92
3, 116736, Note_on_c, 0, 52, 92
3, 117120, Note_off_c, 0, 52, 64
3, 117120, Note_off_c, 0, 45, 64
3, 117312, Note_on_c, 0, 53, 92
3, 117312, Note_on_c, 0, 50, 92
3, 117504, Note_off_c, 0, 50, 64
3, 117504, Note_off_c, 0, 53, 64
3, 117504, Note_on_c, 0, 49, 92
3, 117504, Note_on_c, 0, 52, 92
3, 117504, Note_on_c, 0, 55, 92
3, 117696, Note_off_c, 0, 55, 64
3, 117696, Note_off_c, 0, 52, 64
3, 117696, Note_off_c, 0, 49, 64
3, 117696, Note_on_c, 0, 50, 92
3, 117696, Note_on_c, 0, 53, 92
3, 117888, Note_off_c, 0, 53, 64
3, 117888, Note_off_c, 0, 50, 64
3, 118272, Note_on_c, 0, 49, 92
3, 118272, Note_on_c, 0, 52, 92
3, 118272, Note_on_c, 0, 55, 92
3, 118464, Note_off_c, 0, 55, 64
3, 118464, Note_off_c, 0, 52, 64
3, 118464, Note_off_c, 0, 49, 64
3, 118464, Note_on_c, 0, 50, 92
3, 118464, Note_on_c, 0, 53, 92
3, 118656, Note_off_c, 0, 53, 64
3, 118656, Note_off_c, 0, 50, 64
3, 119040, Note_on_c, 0, 49, 92
3, 119040, Note_on_c, 0, 52, 92
3, 119040, Note_on_c, 0, 55, 92
3, 119232, Note_off_c, 0, 55, 64
3, 119232, Note_off_c, 0, 52, 64
3, 119232, Note_off_c, 0, 49, 64
3, 119232, Note_on_c, 0, 50, 92
3, 119232, Note_on_c, 0, 53, 92
3, 119424, Note_off_c, 0, 53, 64
3, 119424, Note_off_c, 0, 50, 64
3, 119808, Note_on_c, 0, 49, 92
3, 119808, Note_on_c, 0, 52, 92
3, 119808, Note_on_c, 0, 55, 92
3, 120000, Note_off_c, 0, 55, 64
3, 120000, Note_off_c, 0, 52, 64
3, 120000, Note_off_c, 0, 49, 64
3, 120000, Note_on_c, 0, 50, 92
3, 120000, Note_on_c, 0, 53, 92
3, 120192, Note_off_c, 0, 53, 64
3, 120192, Note_off_c, 0, 50, 64
3, 120384, Note_on_c, 0, 52, 92
3, 120384, Note_on_c, 0, 59, 92
3, 120576, Note_off_c, 0, 59, 64
3, 120576, Note_off_c, 0, 52, 64
3, 120576, Note_on_c, 0, 49, 92
3, 120576, Note_on_c, 0, 52, 92
3, 120768, Note_off_c, 0, 52, 64
3, 120768, Note_off_c, 0, 49, 64
3, 120768, Note_on_c, 0, 50, 92
3, 120768, Note_on_c, 0, 53, 92
3, 120960, Note_off_c, 0, 53, 64
3, 120960, Note_off_c, 0, 50, 64
3, 120960, Note_on_c, 0, 52, 92
3, 120960, Note_on_c, 0, 55, 92
3, 121344, Note_off_c, 0, 55, 64
3, 121344, Note_off_c, 0, 52, 64
3, 121344, Note_on_c, 0, 53, 92
3, 121344, Note_on_c, 0, 57, 92
3, 121536, Note_off_c, 0, 57, 64
3, 121536, Note_on_c, 0, 62, 92
3, 121728, Note_off_c, 0, 62, 64
3, 121728, Note_off_c, 0, 53, 64
3, 121728, Note_on_c, 0, 52, 92
3, 121728, Note_on_c, 0, 61, 92
3, 121920, Note_off_c, 0, 61, 64
3, 121920, Note_off_c, 0, 52, 64
3, 121920, Note_on_c, 0, 50, 92
3, 121920, Note_on_c, 0, 62, 92
3, 122112, Note_off_c, 0, 62, 64
3, 122112, Note_off_c, 0, 50, 64
3, 122112, Note_on_c, 0, 64, 92
3, 122112, Note_on_c, 0, 57, 92
3, 122304, Note_off_c, 0, 64, 64
3, 122304, Note_on_c, 0, 65, 92
3, 122496, Note_off_c, 0, 65, 64
3, 122496, Note_on_c, 0, 67, 92
3, 122880, Note_off_c, 0, 67, 64
3, 122880, Note_off_c, 0, 57, 64
3, 122880, Note_on_c, 0, 65, 92
3, 122880, Note_on_c, 0, 62, 92
3, 123264, Note_off_c, 0, 62, 64
3, 123264, Note_off_c, 0, 65, 64
3, 123456, Note_on_c, 0, 69, 92
3, 123456, Note_on_c, 0, 62, 92
3, 123648, Note_off_c, 0, 62, 64
3, 123648, Note_off_c, 0, 69, 64
3, 123648, Note_on_c, 0, 67, 92
3, 123648, Note_on_c, 0, 62, 92
3, 123840, Note_off_c, 0, 62, 64
3, 123840, Note_off_c, 0, 67, 64
3, 123840, Note_on_c, 0, 69, 92
3, 123840, Note_on_c, 0, 62, 92
3, 124032, Note_off_c, 0, 62, 64
3, 124032, Note_off_c, 0, 69, 64
3, 124032, Note_on_c, 0, 67, 92
3, 124032, Note_on_c, 0, 62, 92
3, 124224, Note_off_c, 0, 62, 64
3, 124224, Note_off_c, 0, 67, 64
3, 124224, Note_on_c, 0, 69, 92
3, 124224, Note_on_c, 0, 62, 92
3, 124416, Note_off_c, 0, 62, 64
3, 124416, Note_off_c, 0, 69, 64
3, 124992, Note_on_c, 0, 69, 92
3, 124992, Note_on_c, 0, 62, 92
3, 125184, Note_off_c, 0, 62, 64
3, 125184, Note_off_c, 0, 69, 64
3, 125184, Note_on_c, 0, 67, 92
3, 125184, Note_on_c, 0, 62, 92
3, 125376, Note_off_c, 0, 62, 64
3, 125376, Note_off_c, 0, 67, 64
3, 125376, Note_on_c, 0, 69, 92
3, 125376, Note_on_c, 0, 62, 92
3, 125568, Note_off_c, 0, 62, 64
3, 125568, Note_off_c, 0, 69, 64
3, 125568, Note_on_c, 0, 67, 92
3, 125568, Note_on_c, 0, 62, 92
3, 125760, Note_off_c, 0, 62, 64
3, 125760, Note_off_c, 0, 67, 64
3, 125760, Note_on_c, 0, 69, 92
3, 125760, Note_on_c, 0, 62, 92
3, 125952, Note_off_c, 0, 62, 64
3, 125952, Note_off_c, 0, 69, 64
3, 126336, Note_on_c, 0, 69, 92
3, 126336, Note_on_c, 0, 65, 92
3, 126336, Note_on_c, 0, 62, 92
3, 126528, Note_off_c, 0, 62, 64
3, 126528, Note_off_c, 0, 65, 64
3, 126528, Note_off_c, 0, 69, 64
3, 126528, Note_on_c, 0, 67, 92
3, 126528, Note_on_c, 0, 70, 92
3, 126528, Note_on_c, 0, 62, 92
3, 126720, Note_off_c, 0, 62, 64
3, 126720, Note_off_c, 0, 70, 64
3, 126720, Note_off_c, 0, 67, 64
3, 126720, Note_on_c, 0, 69, 92
3, 126720, Note_on_c, 0, 64, 92
3, 126720, Note_on_c, 0, 57, 92
3, 126816, Note_off_c, 0, 57, 64
3, 126816, Note_on_c, 0, 59, 92
3, 126912, Note_off_c, 0, 59, 64
3, 126912, Note_on_c, 0, 61, 92
3, 127008, Note_off_c, 0, 61, 64
3, 127008, Note_on_c, 0, 62, 92
3, 127104, Note_off_c, 0, 62, 64
3, 127104, Note_off_c, 0, 64, 64
3, 127104, Note_off_c, 0, 69, 64
3, 127104, Note_on_c, 0, 64, 92
3, 127296, Note_off_c, 0, 64, 64
3, 127296, Note_on_c, 0, 64, 92
3, 127488, Note_off_c, 0, 64, 64
3, 127488, Note_on_c, 0, 65, 92
3, 127680, Note_off_c, 0, 65, 64
3, 127680, Note_on_c, 0, 64, 92
3, 127872, Note_off_c, 0, 64, 64
3, 127872, Note_on_c, 0, 65, 92
3, 128064, Note_off_c, 0, 65, 64
3, 128064, Note_on_c, 0, 64, 92
3, 128256, Note_off_c, 0, 64, 64
3, 128256, Note_on_c, 0, 57, 92
3, 128352, Note_off_c, 0, 57, 64
3, 128352, Note_on_c, 0, 59, 92
3, 128448, Note_off_c, 0, 59, 64
3, 128448, Note_on_c, 0, 61, 92
3, 128544, Note_off_c, 0, 61, 64
3, 128544, Note_on_c, 0, 62, 92
3, 128640, Note_off_c, 0, 62, 64
3, 128640, Note_on_c, 0, 64, 92
3, 128832, Note_off_c, 0, 64, 64
3, 128832, Note_on_c, 0, 64, 92
3, 129024, Note_off_c, 0, 64, 64
3, 129024, Note_on_c, 0, 65, 92
3, 129216, Note_off_c, 0, 65, 64
3, 129216, Note_on_c, 0, 64, 92
3, 129408, Note_off_c, 0, 64, 64
3, 129408, Note_on_c, 0, 65, 92
3, 129600, Note_off_c, 0, 65, 64
3, 129600, Note_on_c, 0, 64, 92
3, 129792, Note_off_c, 0, 64, 64
3, 129792, Note_on_c, 0, 57, 92
3, 129888, Note_off_c, 0, 57, 64
3, 129888, Note_on_c, 0, 59, 92
3, 129984, Note_off_c, 0, 59, 64
3, 129984, Note_on_c, 0, 61, 92
3, 130080, Note_off_c, 0, 61, 64
3, 130080, Note_on_c, 0, 62, 92
3, 130176, Note_off_c, 0, 62, 64
3, 130176, Note_on_c, 0, 64, 92
3, 130272, Note_off_c, 0, 64, 64
3, 130272, Note_on_c, 0, 65, 92
3, 130368, Note_off_c, 0, 65, 64
3, 130368, Note_on_c, 0, 67, 92
3, 130464, Note_off_c, 0, 67, 64
3, 130464, Note_on_c, 0, 64, 92
3, 130560, Note_off_c, 0, 64, 64
3, 130560, Note_on_c, 0, 65, 92
3, 130944, Note_off_c, 0, 65, 64
3, 131520, Note_on_c, 0, 62, 92
3, 131712, Note_off_c, 0, 62, 64
3, 131712, Note_on_c, 0, 65, 92
3, 131904, Note_off_c, 0, 65, 64
3, 131904, Note_on_c, 0, 69, 92
3, 132096, Note_off_c, 0, 69, 64
3, 132096, Note_on_c, 0, 69, 92
3, 132384, Note_off_c, 0, 69, 64
3, 132384, Note_on_c, 0, 67, 92
3, 132480, Note_off_c, 0, 67, 64
3, 132480, Note_on_c, 0, 65, 92
3, 132576, Note_off_c, 0, 65, 64
3, 132576, Note_on_c, 0, 64, 92
3, 132672, Note_off_c, 0, 64, 64
3, 132672, Note_on_c, 0, 62, 92
3, 132768, Note_off_c, 0, 62, 64
3, 132768, Note_on_c, 0, 60, 92
3, 132864, Note_off_c, 0, 60, 64
3, 132864, Note_on_c, 0, 62, 92
3, 133056, Note_off_c, 0, 62, 64
3, 133056, Note_on_c, 0, 58, 92
3, 133248, Note_off_c, 0, 58, 64
3, 133248, Note_on_c, 0, 62, 92
3, 133440, Note_off_c, 0, 62, 64
3, 133440, Note_on_c, 0, 67, 92
3, 133632, Note_off_c, 0, 67, 64
3, 133632, Note_on_c, 0, 67, 92
3, 133920, Note_off_c, 0, 67, 64
3, 133920, Note_on_c, 0, 65, 92
3, 134016, Note_off_c, 0, 65, 64
3, 134016, Note_on_c, 0, 64, 92
3, 134112, Note_off_c, 0, 64, 64
3, 134112, Note_on_c, 0, 62, 92
3, 134208, Note_off_c, 0, 62, 64
3, 134208, Note_on_c, 0, 60, 92
3, 134304, Note_off_c, 0, 60, 64
3, 134304, Note_on_c, 0, 58, 92
3, 134400, Note_off_c, 0, 58, 64
3, 134400, Note_on_c, 0, 60, 92
3, 134592, Note_off_c, 0, 60, 64
3, 134592, Note_on_c, 0, 57, 92
3, 134784, Note_off_c, 0, 57, 64
3, 134784, Note_on_c, 0, 60, 92
3, 134976, Note_off_c, 0, 60, 64
3, 134976, Note_on_c, 0, 65, 92
3, 135168, Note_off_c, 0, 65, 64
3, 135168, Note_on_c, 0, 65, 92
3, 135456, Note_off_c, 0, 65, 64
3, 135456, Note_on_c, 0, 64, 92
3, 135552, Note_off_c, 0, 64, 64
3, 135552, Note_on_c, 0, 62, 92
3, 135648, Note_off_c, 0, 62, 64
3, 135648, Note_on_c, 0, 60, 92
3, 135744, Note_off_c, 0, 60, 64
3, 135744, Note_on_c, 0, 58, 92
3, 135840, Note_off_c, 0, 58, 64
3, 135840, Note_on_c, 0, 57, 92
3, 135936, Note_off_c, 0, 57, 64
3, 135936, Note_on_c, 0, 58, 92
3, 136128, Note_off_c, 0, 58, 64
3, 136128, Note_on_c, 0, 55, 92
3, 136320, Note_off_c, 0, 55, 64
3, 136320, Note_on_c, 0, 58, 92
3, 136512, Note_off_c, 0, 58, 64
3, 136512, Note_on_c, 0, 63, 92
3, 136704, Note_off_c, 0, 63, 64
3, 136704, Note_on_c, 0, 63, 92
3, 136992, Note_off_c, 0, 63, 64
3, 136992, Note_on_c, 0, 62, 92
3, 137088, Note_off_c, 0, 62, 64
3, 137088, Note_on_c, 0, 60, 92
3, 137184, Note_off_c, 0, 60, 64
3, 137184, Note_on_c, 0, 58, 92
3, 137280, Note_off_c, 0, 58, 64
3, 137280, Note_on_c, 0, 57, 92
3, 137376, Note_off_c, 0, 57, 64
3, 137376, Note_on_c, 0, 55, 92
3, 137472, Note_off_c, 0, 55, 64
3, 137472, Note_on_c, 0, 57, 92
3, 137664, Note_off_c, 0, 57, 64
3, 137664, Note_on_c, 0, 53, 92
3, 137856, Note_off_c, 0, 53, 64
3, 137856, Note_on_c, 0, 57, 92
3, 138048, Note_off_c, 0, 57, 64
3, 138048, Note_on_c, 0, 62, 92
3, 138240, Note_off_c, 0, 62, 64
3, 138240, Note_on_c, 0, 59, 92
3, 138624, Note_off_c, 0, 59, 64
3, 138816, Note_on_c, 0, 69, 92
3, 138816, Note_on_c, 0, 60, 92
3, 139008, Note_off_c, 0, 60, 64
3, 139008, Note_off_c, 0, 69, 64
3, 139008, Note_on_c, 0, 69, 92
3, 139008, Note_on_c, 0, 62, 92
3, 139200, Note_off_c, 0, 62, 64
3, 139200, Note_off_c, 0, 69, 64
3, 139200, Note_on_c, 0, 69, 92
3, 139200, Note_on_c, 0, 60, 92
3, 139392, Note_off_c, 0, 60, 64
3, 139392, Note_off_c, 0, 69, 64
3, 139584, Note_on_c, 0, 69, 92
3, 139584, Note_on_c, 0, 60, 92
3, 139776, Note_off_c, 0, 60, 64
3, 139776, Note_off_c, 0, 69, 64
3, 139776, Note_on_c, 0, 69, 92
3, 139776, Note_on_c, 0, 62, 92
3, 139968, Note_off_c, 0, 62, 64
3, 139968, Note_off_c, 0, 69, 64
3, 139968, Note_on_c, 0, 69, 92
3, 139968, Note_on_c, 0, 60, 92
3, 140160, Note_off_c, 0, 60, 64
3, 140160, Note_off_c, 0, 69, 64
3, 140160, Note_on_c, 0, 69, 92
3, 140160, Note_on_c, 0, 64, 92
3, 140352, Note_off_c, 0, 64, 64
3, 140352, Note_off_c, 0, 69, 64
3, 140352, Note_on_c, 0, 69, 92
3, 140352, Note_on_c, 0, 64, 92
3, 140544, Note_off_c, 0, 64, 64
3, 140544, Note_off_c, 0, 69, 64
3, 140544, Note_on_c, 0, 65, 92
3, 140544, Note_on_c, 0, 62, 92
3, 140736, Note_off_c, 0, 62, 64
3, 140736, Note_off_c, 0, 65, 64
3, 140736, Note_on_c, 0, 65, 92
3, 140736, Note_on_c, 0, 62, 92
3, 140928, Note_off_c, 0, 62, 64
3, 140928, Note_off_c, 0, 65, 64
3, 140928, Note_on_c, 0, 64, 92
3, 140928, Note_on_c, 0, 59, 92
3, 141120, Note_off_c, 0, 59, 64
3, 141120, Note_off_c, 0, 64, 64
3, 141120, Note_on_c, 0, 64, 92
3, 141120, Note_on_c, 0, 59, 92
3, 141312, Note_off_c, 0, 59, 64
3, 141312, Note_off_c, 0, 64, 64
3, 141312, Note_on_c, 0, 64, 92
3, 141312, Note_on_c, 0, 60, 92
3, 141504, Note_off_c, 0, 60, 64
3, 141504, Note_off_c, 0, 64, 64
3, 141504, Note_on_c, 0, 64, 92
3, 141696, Note_off_c, 0, 64, 64
3, 141696, Note_on_c, 0, 69, 92
3, 141888, Note_off_c, 0, 69, 64
3, 141888, Note_on_c, 0, 64, 92
3, 142080, Note_off_c, 0, 64, 64
3, 142272, Note_on_c, 0, 64, 92
3, 142464, Note_off_c, 0, 64, 64
3, 142464, Note_on_c, 0, 69, 92
3, 142656, Note_off_c, 0, 69, 64
3, 142656, Note_on_c, 0, 64, 92
3, 142848, Note_off_c, 0, 64, 64
3, 143040, Note_on_c, 0, 65, 92
3, 143232, Note_off_c, 0, 65, 64
3, 143232, Note_on_c, 0, 69, 92
3, 143424, Note_off_c, 0, 69, 64
3, 143424, Note_on_c, 0, 65, 92
3, 143616, Note_off_c, 0, 65, 64
3, 143808, Note_on_c, 0, 64, 92
3, 144000, Note_off_c, 0, 64, 64
3, 144000, Note_on_c, 0, 69, 92
3, 144192, Note_off_c, 0, 69, 64
3, 144192, Note_on_c, 0, 64, 92
3, 144384, Note_off_c, 0, 64, 64
3, 144576, Note_on_c, 0, 59, 92
3, 144768, Note_off_c, 0, 59, 64
3, 144768, Note_on_c, 0, 62, 92
3, 144960, Note_off_c, 0, 62, 64
3, 144960, Note_on_c, 0, 59, 92
3, 145152, Note_off_c, 0, 59, 64
3, 145344, Note_on_c, 0, 59, 92
3, 145536, Note_off_c, 0, 59, 64
3, 145536, Note_on_c, 0, 62, 92
3, 145728, Note_off_c, 0, 62, 64
3, 145728, Note_on_c, 0, 59, 92
3, 145920, Note_off_c, 0, 59, 64
3, 146112, Note_on_c, 0, 59, 92
3, 146304, Note_off_c, 0, 59, 64
3, 146304, Note_on_c, 0, 62, 92
3, 146496, Note_off_c, 0, 62, 64
3, 146496, Note_on_c, 0, 59, 92
3, 146688, Note_off_c, 0, 59, 64
3, 146880, Note_on_c, 0, 59, 92
3, 147072, Note_off_c, 0, 59, 64
3, 147072, Note_on_c, 0, 62, 92
3, 147264, Note_off_c, 0, 62, 64
3, 147264, Note_on_c, 0, 56, 92
3, 147456, Note_off_c, 0, 56, 64
3, 147648, Note_on_c, 0, 52, 92
3, 147840, Note_off_c, 0, 52, 64
3, 147840, Note_on_c, 0, 57, 92
3, 148032, Note_off_c, 0, 57, 64
3, 148032, Note_on_c, 0, 52, 92
3, 148224, Note_off_c, 0, 52, 64
3, 148416, Note_on_c, 0, 52, 92
3, 148608, Note_off_c, 0, 52, 64
3, 148608, Note_on_c, 0, 57, 92
3, 148800, Note_off_c, 0, 57, 64
3, 148800, Note_on_c, 0, 52, 92
3, 148992, Note_off_c, 0, 52, 64
3, 149184, Note_on_c, 0, 54, 92
3, 149376, Note_off_c, 0, 54, 64
3, 149376, Note_on_c, 0, 57, 92
3, 149568, Note_off_c, 0, 57, 64
3, 149568, Note_on_c, 0, 54, 92
3, 149760, Note_off_c, 0, 54, 64
3, 149952, Note_on_c, 0, 54, 92
3, 150144, Note_off_c, 0, 54, 64
3, 150144, Note_on_c, 0, 57, 92
3, 150336, Note_off_c, 0, 57, 64
3, 150336, Note_on_c, 0, 54, 92
3, 150528, Note_off_c, 0, 54, 64
3, 150720, Note_on_c, 0, 55, 92
3, 150912, Note_off_c, 0, 55, 64
3, 150912, Note_on_c, 0, 58, 92
3, 151104, Note_off_c, 0, 58, 64
3, 151104, Note_on_c, 0, 55, 92
3, 151296, Note_off_c, 0, 55, 64
3, 151488, Note_on_c, 0, 55, 92
3, 151680, Note_off_c, 0, 55, 64
3, 151680, Note_on_c, 0, 59, 92
3, 151872, Note_off_c, 0, 59, 64
3, 151872, Note_on_c, 0, 55, 92
3, 152064, Note_off_c, 0, 55, 64
3, 152256, Note_on_c, 0, 55, 92
3, 152448, Note_off_c, 0, 55, 64
3, 152448, Note_on_c, 0, 60, 92
3, 152640, Note_off_c, 0, 60, 64
3, 152640, Note_on_c, 0, 55, 92
3, 152832, Note_off_c, 0, 55, 64
3, 153024, Note_on_c, 0, 55, 92
3, 153216, Note_off_c, 0, 55, 64
3, 153216, Note_on_c, 0, 61, 92
3, 153408, Note_off_c, 0, 61, 64
3, 153408, Note_on_c, 0, 55, 92
3, 153600, Note_off_c, 0, 55, 64
3, 153792, Note_on_c, 0, 57, 92
3, 153984, Note_off_c, 0, 57, 64
3, 153984, Note_on_c, 0, 62, 92
3, 154176, Note_off_c, 0, 62, 64
3, 154176, Note_on_c, 0, 57, 92
3, 154368, Note_off_c, 0, 57, 64
3, 159936, Note_on_c, 0, 57, 92
3, 160128, Note_off_c, 0, 57, 64
3, 160128, Note_on_c, 0, 60, 92
3, 160256, Note_off_c, 0, 60, 64
3, 160256, Note_on_c, 0, 59, 92
3, 160384, Note_off_c, 0, 59, 64
3, 160384, Note_on_c, 0, 60, 92
3, 160512, Note_off_c, 0, 60, 64
3, 160896, Note_on_c, 0, 61, 92
3, 161024, Note_off_c, 0, 61, 64
3, 161024, Note_on_c, 0, 59, 92
3, 161152, Note_off_c, 0, 59, 64
3, 161152, Note_on_c, 0, 61, 92
3, 161280, Note_off_c, 0, 61, 64
3, 167808, Note_on_c, 0, 57, 92
3, 168000, Note_off_c, 0, 57, 64
3, 168192, Note_on_c, 0, 59, 92
3, 168320, Note_off_c, 0, 59, 64
3, 168320, Note_on_c, 0, 61, 92
3, 168448, Note_off_c, 0, 61, 64
3, 168448, Note_on_c, 0, 63, 92
3, 168576, Note_off_c, 0, 63, 64
3, 168576, Note_on_c, 0, 64, 92
3, 168864, Note_off_c, 0, 64, 64
3, 168864, Note_on_c, 0, 57, 92
3, 168960, Note_off_c, 0, 57, 64
3, 168960, Note_on_c, 0, 57, 92
3, 169728, Note_off_c, 0, 57, 64
3, 169728, Note_on_c, 0, 52, 92
3, 169824, Note_off_c, 0, 52, 64
3, 169824, Note_on_c, 0, 54, 92
3, 169920, Note_off_c, 0, 54, 64
3, 169920, Note_on_c, 0, 55, 92
3, 170016, Note_off_c, 0, 55, 64
3, 170016, Note_on_c, 0, 57, 92
3, 170112, Note_off_c, 0, 57, 64
3, 170112, Note_on_c, 0, 59, 92
3, 170304, Note_off_c, 0, 59, 64
3, 170304, Note_on_c, 0, 59, 92
3, 170496, Note_off_c, 0, 59, 64
3, 170496, Note_on_c, 0, 60, 92
3, 170688, Note_off_c, 0, 60, 64
3, 170688, Note_on_c, 0, 59, 92
3, 170880, Note_off_c, 0, 59, 64
3, 170880, Note_on_c, 0, 60, 92
3, 171072, Note_off_c, 0, 60, 64
3, 171072, Note_on_c, 0, 59, 92
3, 171264, Note_off_c, 0, 59, 64
3, 171264, Note_on_c, 0, 52, 92
3, 171360, Note_off_c, 0, 52, 64
3, 171360, Note_on_c, 0, 54, 92
3, 171456, Note_off_c, 0, 54, 64
3, 171456, Note_on_c, 0, 56, 92
3, 171552, Note_off_c, 0, 56, 64
3, 171552, Note_on_c, 0, 57, 92
3, 171648, Note_off_c, 0, 57, 64
3, 171648, Note_on_c, 0, 59, 92
3, 171744, Note_off_c, 0, 59, 64
3, 171744, Note_on_c, 0, 60, 92
3, 171840, Note_off_c, 0, 60, 64
3, 171840, Note_on_c, 0, 62, 92
3, 171936, Note_off_c, 0, 62, 64
3, 171936, Note_on_c, 0, 59, 92
3, 172032, Note_off_c, 0, 59, 64
3, 172032, Note_on_c, 0, 60, 92
3, 172416, Note_off_c, 0, 60, 64
3, 172608, Note_on_c, 0, 64, 92
3, 172608, Note_on_c, 0, 57, 92
3, 172800, Note_off_c, 0, 57, 64
3, 172800, Note_off_c, 0, 64, 64
3, 172800, Note_on_c, 0, 62, 92
3, 172800, Note_on_c, 0, 57, 92
3, 172992, Note_off_c, 0, 57, 64
3, 172992, Note_off_c, 0, 62, 64
3, 172992, Note_on_c, 0, 64, 92
3, 172992, Note_on_c, 0, 57, 92
3, 173184, Note_off_c, 0, 57, 64
3, 173184, Note_off_c, 0, 64, 64
3, 173184, Note_on_c, 0, 62, 92
3, 173184, Note_on_c, 0, 57, 92
3, 173376, Note_off_c, 0, 57, 64
3, 173376, Note_off_c, 0, 62, 64
3, 173376, Note_on_c, 0, 64, 92
3, 173376, Note_on_c, 0, 57, 92
3, 173568, Note_off_c, 0, 57, 64
3, 173568, Note_off_c, 0, 64, 64
3, 173760, Note_on_c, 0, 57, 92
3, 173856, Note_off_c, 0, 57, 64
3, 173856, Note_on_c, 0, 59, 92
3, 173952, Note_off_c, 0, 59, 64
3, 173952, Note_on_c, 0, 61, 92
3, 174048, Note_off_c, 0, 61, 64
3, 174048, Note_on_c, 0, 62, 92
3, 174144, Note_off_c, 0, 62, 64
3, 174144, Note_on_c, 0, 64, 92
3, 174240, Note_off_c, 0, 64, 64
3, 174240, Note_on_c, 0, 61, 92
3, 174336, Note_off_c, 0, 61, 64
3, 174336, Note_on_c, 0, 62, 92
3, 174336, Note_on_c, 0, 50, 92
3, 174432, Note_off_c, 0, 50, 64
3, 174432, Note_on_c, 0, 52, 92
3, 174528, Note_off_c, 0, 52, 64
3, 174528, Note_on_c, 0, 54, 92
3, 174624, Note_off_c, 0, 54, 64
3, 174624, Note_on_c, 0, 55, 92
3, 174720, Note_off_c, 0, 55, 64
3, 174720, Note_off_c, 0, 62, 64
3, 174720, Note_on_c, 0, 57, 92
3, 174912, Note_off_c, 0, 57, 64
3, 174912, Note_on_c, 0, 57, 92
3, 175104, Note_off_c, 0, 57, 64
3, 175104, Note_on_c, 0, 59, 92
3, 175296, Note_off_c, 0, 59, 64
3, 175296, Note_on_c, 0, 57, 92
3, 175488, Note_off_c, 0, 57, 64
3, 175488, Note_on_c, 0, 59, 92
3, 175680, Note_off_c, 0, 59, 64
3, 175680, Note_on_c, 0, 57, 92
3, 175872, Note_off_c, 0, 57, 64
3, 175872, Note_on_c, 0, 50, 92
3, 175968, Note_off_c, 0, 50, 64
3, 175968, Note_on_c, 0, 52, 92
3, 176064, Note_off_c, 0, 52, 64
3, 176064, Note_on_c, 0, 54, 92
3, 176160, Note_off_c, 0, 54, 64
3, 176160, Note_on_c, 0, 55, 92
3, 176256, Note_off_c, 0, 55, 64
3, 176256, Note_on_c, 0, 57, 92
3, 176352, Note_off_c, 0, 57, 64
3, 176352, Note_on_c, 0, 59, 92
3, 176448, Note_off_c, 0, 59, 64
3, 176448, Note_on_c, 0, 60, 92
3, 176544, Note_off_c, 0, 60, 64
3, 176544, Note_on_c, 0, 57, 92
3, 176640, Note_off_c, 0, 57, 64
3, 176640, Note_on_c, 0, 59, 92
3, 176832, Note_off_c, 0, 59, 64
3, 177216, Note_on_c, 0, 62, 92
3, 177216, Note_on_c, 0, 55, 92
3, 177408, Note_off_c, 0, 55, 64
3, 177408, Note_off_c, 0, 62, 64
3, 177408, Note_on_c, 0, 60, 92
3, 177408, Note_on_c, 0, 55, 92
3, 177600, Note_off_c, 0, 55, 64
3, 177600, Note_off_c, 0, 60, 64
3, 177600, Note_on_c, 0, 62, 92
3, 177600, Note_on_c, 0, 55, 92
3, 177792, Note_off_c, 0, 55, 64
3, 177792, Note_off_c, 0, 62, 64
3, 177792, Note_on_c, 0, 60, 92
3, 177792, Note_on_c, 0, 55, 92
3, 177984, Note_off_c, 0, 55, 64
3, 177984, Note_off_c, 0, 60, 64
3, 177984, Note_on_c, 0, 62, 92
3, 177984, Note_on_c, 0, 55, 92
3, 178176, Note_off_c, 0, 55, 64
3, 178176, Note_off_c, 0, 62, 64
3, 178368, Note_on_c, 0, 55, 92
3, 178464, Note_off_c, 0, 55, 64
3, 178464, Note_on_c, 0, 57, 92
3, 178560, Note_off_c, 0, 57, 64
3, 178560, Note_on_c, 0, 59, 92
3, 178656, Note_off_c, 0, 59, 64
3, 178656, Note_on_c, 0, 60, 92
3, 178752, Note_off_c, 0, 60, 64
3, 178752, Note_on_c, 0, 62, 92
3, 178848, Note_off_c, 0, 62, 64
3, 178848, Note_on_c, 0, 59, 92
3, 178944, Note_off_c, 0, 59, 64
3, 178944, Note_on_c, 0, 60, 92
3, 179136, Note_off_c, 0, 60, 64
3, 179712, Note_on_c, 0, 52, 92
3, 180096, Note_off_c, 0, 52, 64
3, 180480, Note_on_c, 0, 53, 92
3, 180576, Note_off_c, 0, 53, 64
3, 180576, Note_on_c, 0, 55, 92
3, 180624, Note_off_c, 0, 55, 64
3, 180624, Note_on_c, 0, 57, 92
3, 180672, Note_off_c, 0, 57, 64
3, 180672, Note_on_c, 0, 58, 92
3, 180720, Note_off_c, 0, 58, 64
3, 180720, Note_on_c, 0, 60, 92
3, 180768, Note_off_c, 0, 60, 64
3, 180768, Note_on_c, 0, 62, 92
3, 180816, Note_off_c, 0, 62, 64
3, 180816, Note_on_c, 0, 64, 92
3, 180864, Note_off_c, 0, 64, 64
3, 180864, Note_on_c, 0, 65, 92
3, 180960, Note_off_c, 0, 65, 64
3, 180960, Note_on_c, 0, 60, 92
3, 181056, Note_off_c, 0, 60, 64
3, 181056, Note_on_c, 0, 57, 92
3, 181152, Note_off_c, 0, 57, 64
3, 181152, Note_on_c, 0, 53, 92
3, 181248, Note_off_c, 0, 53, 64
3, 181248, Note_on_c, 0, 38, 92
3, 181632, Note_off_c, 0, 38, 64
3, 182016, Note_on_c, 0, 54, 92
3, 182400, Note_off_c, 0, 54, 64
3, 182784, Note_on_c, 0, 55, 92
3, 182880, Note_off_c, 0, 55, 64
3, 182880, Note_on_c, 0, 57, 92
3, 182928, Note_off_c, 0, 57, 64
3, 182928, Note_on_c, 0, 59, 92
3, 182976, Note_off_c, 0, 59, 64
3, 182976, Note_on_c, 0, 60, 92
3, 183024, Note_off_c, 0, 60, 64
3, 183024, Note_on_c, 0, 62, 92
3, 183072, Note_off_c, 0, 62, 64
3, 183072, Note_on_c, 0, 64, 92
3, 183120, Note_off_c, 0, 64, 64
3, 183120, Note_on_c, 0, 66, 92
3, 183168, Note_off_c, 0, 66, 64
3, 183168, Note_on_c, 0, 67, 92
3, 183264, Note_off_c, 0, 67, 64
3, 183264, Note_on_c, 0, 62, 92
3, 183360, Note_off_c, 0, 62, 64
3, 183360, Note_on_c, 0, 59, 92
3, 183456, Note_off_c, 0, 59, 64
3, 183456, Note_on_c, 0, 55, 92
3, 183552, Note_off_c, 0, 55, 64
3, 183552, Note_on_c, 0, 40, 92
3, 183936, Note_off_c, 0, 40, 64
3, 184320, Note_on_c, 0, 56, 92
3, 184704, Note_off_c, 0, 56, 64
3, 185088, Note_on_c, 0, 57, 92
3, 185184, Note_off_c, 0, 57, 64
3, 185184, Note_on_c, 0, 59, 92
3, 185232, Note_off_c, 0, 59, 64
3, 185232, Note_on_c, 0, 60, 92
3, 185280, Note_off_c, 0, 60, 64
3, 185280, Note_on_c, 0, 62, 92
3, 185328, Note_off_c, 0, 62, 64
3, 185328, Note_on_c, 0, 64, 92
3, 185376, Note_off_c, 0, 64, 64
3, 185376, Note_on_c, 0, 66, 92
3, 185424, Note_off_c, 0, 66, 64
3, 185424, Note_on_c, 0, 68, 92
3, 185472, Note_off_c, 0, 68, 64
3, 185472, Note_on_c, 0, 69, 92
3, 185568, Note_off_c, 0, 69, 64
3, 185568, Note_on_c, 0, 64, 92
3, 185664, Note_off_c, 0, 64, 64
3, 185664, Note_on_c, 0, 60, 92
3, 185760, Note_off_c, 0, 60, 64
3, 185760, Note_on_c, 0, 57, 92
3, 185856, Note_off_c, 0, 57, 64
3, 185856, Note_on_c, 0, 41, 92
3, 186240, Note_off_c, 0, 41, 64
3, 186624, Note_on_c, 0, 57, 92
3, 187008, Note_off_c, 0, 57, 64
3, 187392, Note_on_c, 0, 59, 92
3, 187584, Note_off_c, 0, 59, 64
3, 187584, Note_on_c, 0, 57, 92
3, 187776, Note_off_c, 0, 57, 64
3, 187776, Note_on_c, 0, 56, 92
3, 187968, Note_off_c, 0, 56, 64
3, 187968, Note_on_c, 0, 52, 92
3, 188160, Note_off_c, 0, 52, 64
3, 188160, Note_on_c, 0, 57, 92
3, 188352, Note_off_c, 0, 57, 64
3, 188352, Note_on_c, 0, 55, 92
3, 188544, Note_off_c, 0, 55, 64
3, 188544, Note_on_c, 0, 54, 92
3, 188736, Note_off_c, 0, 54, 64
3, 188736, Note_on_c, 0, 50, 92
3, 188928, Note_off_c, 0, 50, 64
3, 188928, Note_on_c, 0, 55, 92
3, 189120, Note_off_c, 0, 55, 64
3, 189120, Note_on_c, 0, 53, 92
3, 189312, Note_off_c, 0, 53, 64
3, 189312, Note_on_c, 0, 52, 92
3, 189504, Note_off_c, 0, 52, 64
3, 189504, Note_on_c, 0, 48, 92
3, 189696, Note_off_c, 0, 48, 64
3, 189696, Note_on_c, 0, 53, 92
3, 190080, Note_off_c, 0, 53, 64
3, 190464, Note_on_c, 0, 55, 92
3, 190848, Note_off_c, 0, 55, 64
3, 191040, Note_on_c, 0, 48, 92
3, 191232, Note_off_c, 0, 48, 64
3, 191232, Note_on_c, 0, 55, 92
3, 191616, Note_off_c, 0, 55, 64
3, 191808, Note_on_c, 0, 48, 92
3, 192000, Note_off_c, 0, 48, 64
3, 192000, Note_on_c, 0, 55, 92
3, 192384, Note_off_c, 0, 55, 64
3, 192576, Note_on_c, 0, 48, 92
3, 192768, Note_off_c, 0, 48, 64
3, 192768, Note_on_c, 0, 55, 92
3, 192864, Note_off_c, 0, 55, 64
3, 192864, Note_on_c, 0, 53, 92
3, 192960, Note_off_c, 0, 53, 64
3, 192960, Note_on_c, 0, 55, 92
3, 193056, Note_off_c, 0, 55, 64
3, 193056, Note_on_c, 0, 53, 92
3, 193152, Note_off_c, 0, 53, 64
3, 193152, Note_on_c, 0, 52, 92
3, 193248, Note_off_c, 0, 52, 64
3, 193248, Note_on_c, 0, 50, 92
3, 193344, Note_off_c, 0, 50, 64
3, 193344, Note_on_c, 0, 52, 92
3, 193440, Note_off_c, 0, 52, 64
3, 193440, Note_on_c, 0, 48, 92
3, 193536, Note_off_c, 0, 48, 64
3, 193536, Note_on_c, 0, 43, 92
3, 193920, Note_off_c, 0, 43, 64
3, 194112, Note_on_c, 0, 36, 92
3, 194304, Note_off_c, 0, 36, 64
3, 194304, Note_on_c, 0, 43, 92
3, 194688, Note_off_c, 0, 43, 64
3, 194880, Note_on_c, 0, 36, 92
3, 195072, Note_off_c, 0, 36, 64
3, 195072, Note_on_c, 0, 43, 92
3, 195456, Note_off_c, 0, 43, 64
3, 195648, Note_on_c, 0, 36, 92
3, 195840, Note_off_c, 0, 36, 64
3, 195840, Note_on_c, 0, 43, 92
3, 196032, Note_off_c, 0, 43, 64
3, 196032, Note_on_c, 0, 62, 92
3, 196032, Note_on_c, 0, 59, 92
3, 196224, Note_off_c, 0, 59, 64
3, 196224, Note_off_c, 0, 62, 64
3, 196224, Note_on_c, 0, 67, 92
3, 196224, Note_on_c, 0, 62, 92
3, 196416, Note_off_c, 0, 62, 64
3, 196416, Note_off_c, 0, 67, 64
3, 196416, Note_on_c, 0, 62, 92
3, 196416, Note_on_c, 0, 59, 92
3, 196608, Note_off_c, 0, 59, 64
3, 196608, Note_off_c, 0, 62, 64
3, 196800, Note_on_c, 0, 62, 92
3, 196800, Note_on_c, 0, 59, 92
3, 196992, Note_off_c, 0, 59, 64
3, 196992, Note_off_c, 0, 62, 64
3, 196992, Note_on_c, 0, 67, 92
3, 196992, Note_on_c, 0, 62, 92
3, 197184, Note_off_c, 0, 62, 64
3, 197184, Note_off_c, 0, 67, 64
3, 197184, Note_on_c, 0, 62, 92
3, 197184, Note_on_c, 0, 59, 92
3, 197376, Note_off_c, 0, 59, 64
3, 197376, Note_off_c, 0, 62, 64
3, 197568, Note_on_c, 0, 65, 92
3, 197568, Note_on_c, 0, 62, 92
3, 197760, Note_off_c, 0, 62, 64
3, 197760, Note_off_c, 0, 65, 64
3, 197760, Note_on_c, 0, 62, 92
3, 197760, Note_on_c, 0, 59, 92
3, 197952, Note_off_c, 0, 59, 64
3, 197952, Note_off_c, 0, 62, 64
3, 197952, Note_on_c, 0, 59, 92
3, 197952, Note_on_c, 0, 55, 92
3, 198144, Note_off_c, 0, 55, 64
3, 198144, Note_off_c, 0, 59, 64
3, 198336, Note_on_c, 0, 52, 92
3, 198336, Note_on_c, 0, 55, 92
3, 198528, Note_off_c, 0, 55, 64
3, 198528, Note_off_c, 0, 52, 64
3, 198528, Note_on_c, 0, 55, 92
3, 198528, Note_on_c, 0, 60, 92
3, 198720, Note_off_c, 0, 60, 64
3, 198720, Note_off_c, 0, 55, 64
3, 198720, Note_on_c, 0, 52, 92
3, 198720, Note_on_c, 0, 55, 92
3, 198912, Note_off_c, 0, 55, 64
3, 198912, Note_off_c, 0, 52, 64
3, 199104, Note_on_c, 0, 52, 92
3, 199104, Note_on_c, 0, 55, 92
3, 199296, Note_off_c, 0, 55, 64
3, 199296, Note_off_c, 0, 52, 64
3, 199296, Note_on_c, 0, 55, 92
3, 199296, Note_on_c, 0, 60, 92
3, 199488, Note_off_c, 0, 60, 64
3, 199488, Note_off_c, 0, 55, 64
3, 199488, Note_on_c, 0, 52, 92
3, 199488, Note_on_c, 0, 55, 92
3, 199680, Note_off_c, 0, 55, 64
3, 199680, Note_off_c, 0, 52, 64
3, 199872, Note_on_c, 0, 58, 92
3, 199872, Note_on_c, 0, 55, 92
3, 200064, Note_off_c, 0, 55, 64
3, 200064, Note_off_c, 0, 58, 64
3, 200064, Note_on_c, 0, 55, 92
3, 200064, Note_on_c, 0, 52, 92
3, 200256, Note_off_c, 0, 52, 64
3, 200256, Note_off_c, 0, 55, 64
3, 200256, Note_on_c, 0, 52, 92
3, 200256, Note_on_c, 0, 48, 92
3, 200448, Note_off_c, 0, 48, 64
3, 200448, Note_off_c, 0, 52, 64
3, 200640, Note_on_c, 0, 65, 92
3, 200640, Note_on_c, 0, 60, 92
3, 200832, Note_off_c, 0, 60, 64
3, 200832, Note_off_c, 0, 65, 64
3, 200832, Note_on_c, 0, 60, 92
3, 200832, Note_on_c, 0, 57, 92
3, 201024, Note_off_c, 0, 57, 64
3, 201024, Note_off_c, 0, 60, 64
3, 201024, Note_on_c, 0, 57, 92
3, 201024, Note_on_c, 0, 53, 92
3, 201216, Note_off_c, 0, 53, 64
3, 201216, Note_off_c, 0, 57, 64
3, 201408, Note_on_c, 0, 57, 92
3, 201408, Note_on_c, 0, 62, 92
3, 201600, Note_off_c, 0, 62, 64
3, 201600, Note_off_c, 0, 57, 64
3, 201600, Note_on_c, 0, 53, 92
3, 201600, Note_on_c, 0, 57, 92
3, 201792, Note_off_c, 0, 57, 64
3, 201792, Note_off_c, 0, 53, 64
3, 201792, Note_on_c, 0, 50, 92
3, 201792, Note_on_c, 0, 53, 92
3, 201984, Note_off_c, 0, 53, 64
3, 201984, Note_off_c, 0, 50, 64
3, 202176, Note_on_c, 0, 59, 92
3, 202176, Note_on_c, 0, 62, 92
3, 202368, Note_off_c, 0, 62, 64
3, 202368, Note_off_c, 0, 59, 64
3, 202368, Note_on_c, 0, 62, 92
3, 202368, Note_on_c, 0, 67, 92
3, 202560, Note_off_c, 0, 67, 64
3, 202560, Note_off_c, 0, 62, 64
3, 202560, Note_on_c, 0, 59, 92
3, 202560, Note_on_c, 0, 62, 92
3, 202752, Note_off_c, 0, 62, 64
3, 202752, Note_off_c, 0, 59, 64
3, 202944, Note_on_c, 0, 59, 92
3, 202944, Note_on_c, 0, 62, 92
3, 203136, Note_off_c, 0, 62, 64
3, 203136, Note_off_c, 0, 59, 64
3, 203136, Note_on_c, 0, 67, 92
3, 203136, Note_on_c, 0, 62, 92
3, 203328, Note_off_c, 0, 62, 64
3, 203328, Note_off_c, 0, 67, 64
3, 203328, Note_on_c, 0, 59, 92
3, 203328, Note_on_c, 0, 62, 92
3, 203520, Note_off_c, 0, 62, 64
3, 203520, Note_off_c, 0, 59, 64
3, 203712, Note_on_c, 0, 65, 92
3, 203712, Note_on_c, 0, 62, 92
3, 203904, Note_off_c, 0, 62, 64
3, 203904, Note_off_c, 0, 65, 64
3, 203904, Note_on_c, 0, 59, 92
3, 203904, Note_on_c, 0, 62, 92
3, 204096, Note_off_c, 0, 62, 64
3, 204096, Note_off_c, 0, 59, 64
3, 204096, Note_on_c, 0, 55, 92
3, 204096, Note_on_c, 0, 59, 92
3, 204288, Note_off_c, 0, 59, 64
3, 204288, Note_off_c, 0, 55, 64
3, 204480, Note_on_c, 0, 64, 92
3, 204480, Note_on_c, 0, 67, 92
3, 204672, Note_off_c, 0, 67, 64
3, 204672, Note_off_c, 0, 64, 64
3, 204672, Note_on_c, 0, 67, 92
3, 204672, Note_on_c, 0, 72, 92
3, 204864, Note_off_c, 0, 72, 64
3, 204864, Note_off_c, 0, 67, 64
3, 204864, Note_on_c, 0, 64, 92
3, 204864, Note_on_c, 0, 67, 92
3, 205056, Note_off_c, 0, 67, 64
3, 205056, Note_off_c, 0, 64, 64
3, 205248, Note_on_c, 0, 64, 92
3, 205248, Note_on_c, 0, 67, 92
3, 205440, Note_off_c, 0, 67, 64
3, 205440, Note_off_c, 0, 64, 64
3, 205440, Note_on_c, 0, 72, 92
3, 205440, Note_on_c, 0, 67, 92
3, 205632, Note_off_c, 0, 67, 64
3, 205632, Note_off_c, 0, 72, 64
3, 205632, Note_on_c, 0, 64, 92
3, 205632, Note_on_c, 0, 67, 92
3, 205824, Note_off_c, 0, 67, 64
3, 205824, Note_off_c, 0, 64, 64
3, 206016, Note_on_c, 0, 67, 92
3, 206016, Note_on_c, 0, 70, 92
3, 206208, Note_off_c, 0, 70, 64
3, 206208, Note_off_c, 0, 67, 64
3, 206208, Note_on_c, 0, 64, 92
3, 206208, Note_on_c, 0, 67, 92
3, 206400, Note_off_c, 0, 67, 64
3, 206400, Note_off_c, 0, 64, 64
3, 206400, Note_on_c, 0, 60, 92
3, 206400, Note_on_c, 0, 64, 92
3, 206592, Note_off_c, 0, 64, 64
3, 206592, Note_off_c, 0, 60, 64
3, 206784, Note_on_c, 0, 66, 92
3, 206784, Note_on_c, 0, 69, 92
3, 206976, Note_off_c, 0, 69, 64
3, 206976, Note_off_c, 0, 66, 64
3, 206976, Note_on_c, 0, 69, 92
3, 206976, Note_on_c, 0, 74, 92
3, 207168, Note_off_c, 0, 74, 64
3, 207168, Note_off_c, 0, 69, 64
3, 207168, Note_on_c, 0, 66, 92
3, 207168, Note_on_c, 0, 69, 92
3, 207360, Note_off_c, 0, 69, 64
3, 207360, Note_off_c, 0, 66, 64
3, 207552, Note_on_c, 0, 66, 92
3, 207552, Note_on_c, 0, 69, 92
3, 207744, Note_off_c, 0, 69, 64
3, 207744, Note_off_c, 0, 66, 64
3, 207744, Note_on_c, 0, 74, 92
3, 207744, Note_on_c, 0, 69, 92
3, 207936, Note_off_c, 0, 69, 64
3, 207936, Note_off_c, 0, 74, 64
3, 207936, Note_on_c, 0, 66, 92
3, 207936, Note_on_c, 0, 69, 92
3, 208128, Note_off_c, 0, 69, 64
3, 208128, Note_off_c, 0, 66, 64
3, 208320, Note_on_c, 0, 69, 92
3, 208320, Note_on_c, 0, 72, 92
3, 208512, Note_off_c, 0, 72, 64
3, 208512, Note_off_c, 0, 69, 64
3, 208512, Note_on_c, 0, 66, 92
3, 208512, Note_on_c, 0, 69, 92
3, 208704, Note_off_c, 0, 69, 64
3, 208704, Note_off_c, 0, 66, 64
3, 208704, Note_on_c, 0, 62, 92
3, 208704, Note_on_c, 0, 66, 92
3, 208896, Note_off_c, 0, 66, 64
3, 208896, Note_off_c, 0, 62, 64
3, 208896, Note_on_c, 0, 64, 92
3, 208896, Note_on_c, 0, 67, 92
3, 209280, Note_off_c, 0, 67, 64
3, 209280, Note_off_c, 0, 64, 64
3, 210432, Note_on_c, 0, 52, 92
3, 210528, Note_off_c, 0, 52, 64
3, 210816, Note_on_c, 0, 50, 92
3, 210912, Note_off_c, 0, 50, 64
3, 211200, Note_on_c, 0, 52, 92
3, 211296, Note_off_c, 0, 52, 64
3, 211584, Note_on_c, 0, 48, 92
3, 211680, Note_off_c, 0, 48, 64
3, 213504, Note_on_c, 0, 54, 92
3, 213600, Note_off_c, 0, 54, 64
3, 213888, Note_on_c, 0, 52, 92
3, 213984, Note_off_c, 0, 52, 64
3, 214272, Note_on_c, 0, 54, 92
3, 214368, Note_off_c, 0, 54, 64
3, 214656, Note_on_c, 0, 50, 92
3, 214752, Note_off_c, 0, 50, 64
3, 216576, Note_on_c, 0, 55, 92
3, 216672, Note_off_c, 0, 55, 64
3, 216960, Note_on_c, 0, 54, 92
3, 217056, Note_off_c, 0, 54, 64
3, 217344, Note_on_c, 0, 55, 92
3, 217440, Note_off_c, 0, 55, 64
3, 217728, Note_on_c, 0, 52, 92
3, 217824, Note_off_c, 0, 52, 64
3, 239232, Note_on_c, 0, 59, 92
3, 239328, Note_off_c, 0, 59, 64
3, 239424, Note_on_c, 0, 57, 92
3, 239520, Note_off_c, 0, 57, 64
3, 239616, Note_on_c, 0, 55, 92
3, 239712, Note_off_c, 0, 55, 64
3, 239808, Note_on_c, 0, 55, 92
3, 239904, Note_off_c, 0, 55, 64
3, 240000, Note_on_c, 0, 59, 92
3, 240096, Note_off_c, 0, 59, 64
3, 240192, Note_on_c, 0, 59, 92
3, 240288, Note_off_c, 0, 59, 64
3, 240768, Note_on_c, 0, 59, 92
3, 240864, Note_off_c, 0, 59, 64
3, 240960, Note_on_c, 0, 59, 92
3, 241056, Note_off_c, 0, 59, 64
3, 241152, Note_on_c, 0, 55, 92
3, 241248, Note_off_c, 0, 55, 64
3, 241344, Note_on_c, 0, 55, 92
3, 241440, Note_off_c, 0, 55, 64
3, 241536, Note_on_c, 0, 59, 92
3, 241632, Note_off_c, 0, 59, 64
3, 241728, Note_on_c, 0, 59, 92
3, 241824, Note_off_c, 0, 59, 64
3, 242304, Note_on_c, 0, 59, 92
3, 242400, Note_off_c, 0, 59, 64
3, 242496, Note_on_c, 0, 59, 92
3, 242592, Note_off_c, 0, 59, 64
3, 242688, Note_on_c, 0, 55, 92
3, 242784, Note_off_c, 0, 55, 64
3, 242880, Note_on_c, 0, 55, 92
3, 242976, Note_off_c, 0, 55, 64
3, 244224, Note_on_c, 0, 55, 92
3, 244320, Note_off_c, 0, 55, 64
3, 244416, Note_on_c, 0, 55, 92
3, 244512, Note_off_c, 0, 55, 64
3, 245760, Note_on_c, 0, 55, 92
3, 245856, Note_off_c, 0, 55, 64
3, 245952, Note_on_c, 0, 55, 92
3, 246048, Note_off_c, 0, 55, 64
3, 247296, Note_on_c, 0, 55, 92
3, 247392, Note_off_c, 0, 55, 64
3, 247488, Note_on_c, 0, 55, 92
3, 247584, Note_off_c, 0, 55, 64
3, 248832, Note_on_c, 0, 55, 92
3, 248928, Note_off_c, 0, 55, 64
3, 249024, Note_on_c, 0, 55, 92
3, 249120, Note_off_c, 0, 55, 64
3, 253440, Note_on_c, 0, 55, 92
3, 253536, Note_off_c, 0, 55, 64
3, 253632, Note_on_c, 0, 55, 92
3, 253728, Note_off_c, 0, 55, 64
3, 254976, Note_on_c, 0, 55, 92
3, 255072, Note_off_c, 0, 55, 64
3, 255168, Note_on_c, 0, 55, 92
3, 255264, Note_off_c, 0, 55, 64
3, 256512, Note_on_c, 0, 55, 92
3, 256608, Note_off_c, 0, 55, 64
3, 256704, Note_on_c, 0, 55, 92
3, 256800, Note_off_c, 0, 55, 64
3, 258048, Note_on_c, 0, 55, 92
3, 258144, Note_off_c, 0, 55, 64
3, 258240, Note_on_c, 0, 55, 92
3, 258336, Note_off_c, 0, 55, 64
3, 259584, Note_on_c, 0, 55, 92
3, 259680, Note_off_c, 0, 55, 64
3, 259776, Note_on_c, 0, 55, 92
3, 259872, Note_off_c, 0, 55, 64
3, 261120, Note_on_c, 0, 55, 92
3, 261216, Note_off_c, 0, 55, 64
3, 261312, Note_on_c, 0, 55, 92
3, 261408, Note_off_c, 0, 55, 64
3, 262656, Note_on_c, 0, 55, 92
3, 262752, Note_off_c, 0, 55, 64
3, 262848, Note_on_c, 0, 55, 92
3, 262944, Note_off_c, 0, 55, 64
3, 264192, Note_on_c, 0, 55, 92
3, 264288, Note_off_c, 0, 55, 64
3, 264384, Note_on_c, 0, 55, 92
3, 264480, Note_off_c, 0, 55, 64
3, 265728, Note_on_c, 0, 72, 92
3, 265728, Note_on_c, 0, 64, 92
3, 265920, Note_off_c, 0, 64, 64
3, 265920, Note_off_c, 0, 72, 64
3, 266112, Note_on_c, 0, 60, 92
3, 266208, Note_off_c, 0, 60, 64
3, 266208, Note_on_c, 0, 62, 92
3, 266304, Note_off_c, 0, 62, 64
3, 266304, Note_on_c, 0, 64, 92
3, 266400, Note_off_c, 0, 64, 64
3, 266400, Note_on_c, 0, 65, 92
3, 266496, Note_off_c, 0, 65, 64
3, 266496, Note_on_c, 0, 64, 92
3, 266496, Note_on_c, 0, 67, 92
3, 266688, Note_off_c, 0, 67, 64
3, 266688, Note_off_c, 0, 64, 64
3, 266688, Note_on_c, 0, 60, 92
3, 266880, Note_off_c, 0, 60, 64
3, 266880, Note_on_c, 0, 60, 92
3, 266976, Note_off_c, 0, 60, 64
3, 266976, Note_on_c, 0, 62, 92
3, 267072, Note_off_c, 0, 62, 64
3, 267072, Note_on_c, 0, 64, 92
3, 267168, Note_off_c, 0, 64, 64
3, 267168, Note_on_c, 0, 65, 92
3, 267264, Note_off_c, 0, 65, 64
3, 267264, Note_on_c, 0, 64, 92
3, 267264, Note_on_c, 0, 67, 92
3, 267456, Note_off_c, 0, 67, 64
3, 267456, Note_off_c, 0, 64, 64
3, 267456, Note_on_c, 0, 60, 92
3, 267648, Note_off_c, 0, 60, 64
3, 267648, Note_on_c, 0, 48, 92
3, 267744, Note_off_c, 0, 48, 64
3, 267744, Note_on_c, 0, 50, 92
3, 267840, Note_off_c, 0, 50, 64
3, 267840, Note_on_c, 0, 52, 92
3, 267936, Note_off_c, 0, 52, 64
3, 267936, Note_on_c, 0, 53, 92
3, 268032, Note_off_c, 0, 53, 64
3, 268032, Note_on_c, 0, 55, 92
3, 268128, Note_off_c, 0, 55, 64
3, 268128, Note_on_c, 0, 53, 92
3, 268224, Note_off_c, 0, 53, 64
3, 268224, Note_on_c, 0, 52, 92
3, 268320, Note_off_c, 0, 52, 64
3, 268320, Note_on_c, 0, 53, 92
3, 268416, Note_off_c, 0, 53, 64
3, 268416, Note_on_c, 0, 55, 92
3, 268512, Note_off_c, 0, 55, 64
3, 268512, Note_on_c, 0, 52, 92
3, 268608, Note_off_c, 0, 52, 64
3, 268608, Note_on_c, 0, 53, 92
3, 268704, Note_off_c, 0, 53, 64
3, 268704, Note_on_c, 0, 55, 92
3, 268800, Note_off_c, 0, 55, 64
3, 268800, Note_on_c, 0, 48, 92
3, 268896, Note_off_c, 0, 48, 64
3, 268896, Note_on_c, 0, 50, 92
3, 268992, Note_off_c, 0, 50, 64
3, 268992, Note_on_c, 0, 52, 92
3, 269088, Note_off_c, 0, 52, 64
3, 269088, Note_on_c, 0, 53, 92
3, 269184, Note_off_c, 0, 53, 64
3, 269184, Note_on_c, 0, 55, 92
3, 269376, Note_off_c, 0, 55, 64
3, 269376, Note_on_c, 0, 48, 92
3, 269568, Note_off_c, 0, 48, 64
3, 269568, Note_on_c, 0, 48, 92
3, 269664, Note_off_c, 0, 48, 64
3, 269664, Note_on_c, 0, 50, 92
3, 269760, Note_off_c, 0, 50, 64
3, 269760, Note_on_c, 0, 52, 92
3, 269856, Note_off_c, 0, 52, 64
3, 269856, Note_on_c, 0, 53, 92
3, 269952, Note_off_c, 0, 53, 64
3, 269952, Note_on_c, 0, 55, 92
3, 270144, Note_off_c, 0, 55, 64
3, 270144, Note_on_c, 0, 48, 92
3, 270336, Note_off_c, 0, 48, 64
3, 270336, Note_on_c, 0, 48, 92
3, 270432, Note_off_c, 0, 48, 64
3, 270432, Note_on_c, 0, 50, 92
3, 270528, Note_off_c, 0, 50, 64
3, 270528, Note_on_c, 0, 52, 92
3, 270624, Note_off_c, 0, 52, 64
3, 270624, Note_on_c, 0, 53, 92
3, 270720, Note_off_c, 0, 53, 64
3, 270720, Note_on_c, 0, 55, 92
3, 270912, Note_off_c, 0, 55, 64
3, 270912, Note_on_c, 0, 48, 92
3, 271104, Note_off_c, 0, 48, 64
3, 271104, Note_on_c, 0, 53, 92
3, 271296, Note_off_c, 0, 53, 64
3, 271296, Note_on_c, 0, 50, 92
3, 271488, Note_off_c, 0, 50, 64
3, 271488, Note_on_c, 0, 55, 92
3, 271680, Note_off_c, 0, 55, 64
3, 271680, Note_on_c, 0, 43, 92
3, 271872, Note_off_c, 0, 43, 64
3, 271872, Note_on_c, 0, 48, 92
3, 273408, Note_off_c, 0, 48, 64
3, 274944, Note_on_c, 0, 64, 92
3, 274944, Note_on_c, 0, 60, 92
3, 274944, Note_on_c, 0, 57, 92
3, 275328, Note_off_c, 0, 57, 64
3, 275328, Note_off_c, 0, 60, 64
3, 275328, Note_off_c, 0, 64, 64
3, 275712, Note_on_c, 0, 59, 92
3, 275712, Note_on_c, 0, 62, 92
3, 276096, Note_off_c, 0, 62, 64
3, 276096, Note_off_c, 0, 59, 64
3, 279168, Note_on_c, 0, 62, 92
3, 279168, Note_on_c, 0, 52, 92
3, 279168, Note_on_c, 0, 59, 92
3, 279552, Note_off_c, 0, 59, 64
3, 279552, Note_off_c, 0, 52, 64
3, 279552, Note_off_c, 0, 62, 64
3, 279552, Note_on_c, 0, 52, 92
3, 279552, Note_on_c, 0, 57, 92
3, 279552, Note_on_c, 0, 60, 92
3, 279936, Note_off_c, 0, 60, 64
3, 279936, Note_off_c, 0, 57, 64
3, 279936, Note_off_c, 0, 52, 64
3, 281088, Note_on_c, 0, 57, 92
3, 281088, Note_on_c, 0, 64, 92
3, 281088, Note_on_c, 0, 60, 92
3, 281472, Note_off_c, 0, 60, 64
3, 281472, Note_off_c, 0, 64, 64
3, 281472, Note_off_c, 0, 57, 64
3, 281856, Note_on_c, 0, 64, 92
3, 281856, Note_on_c, 0, 61, 92
3, 281856, Note_on_c, 0, 54, 92
3, 282240, Note_off_c, 0, 54, 64
3, 282240, Note_off_c, 0, 61, 64
3, 282240, Note_off_c, 0, 64, 64
3, 283392, Note_on_c, 0, 62, 92
3, 283392, Note_on_c, 0, 59, 92
3, 283392, Note_on_c, 0, 54, 92
3, 283776, Note_off_c, 0, 54, 64
3, 283776, Note_off_c, 0, 59, 64
3, 283776, Note_off_c, 0, 62, 64
3, 285696, Note_on_c, 0, 54, 92
3, 285696, Note_on_c, 0, 59, 92
3, 285696, Note_on_c, 0, 62, 92
3, 286080, Note_off_c, 0, 62, 64
3, 286080, Note_off_c, 0, 59, 64
3, 286080, Note_off_c, 0, 54, 64
3, 286464, Note_on_c, 0, 63, 92
3, 286464, Note_on_c, 0, 60, 92
3, 286464, Note_on_c, 0, 57, 92
3, 286848, Note_off_c, 0, 57, 64
3, 286848, Note_off_c, 0, 60, 64
3, 286848, Note_off_c, 0, 63, 64
3, 287232, Note_on_c, 0, 54, 92
3, 287232, Note_on_c, 0, 57, 92
3, 287232, Note_on_c, 0, 66, 92
3, 287616, Note_off_c, 0, 66, 64
3, 287616, Note_off_c, 0, 57, 64
3, 287616, Note_off_c, 0, 54, 64
3, 290304, Note_on_c, 0, 64, 92
3, 290304, Note_on_c, 0, 59, 92
3, 290304, Note_on_c, 0, 55, 92
3, 290688, Note_off_c, 0, 55, 64
3, 290688, Note_off_c, 0, 59, 64
3, 290688, Note_off_c, 0, 64, 64
3, 291840, Note_on_c, 0, 64, 92
3, 291840, Note_on_c, 0, 59, 92
3, 291840, Note_on_c, 0, 52, 92
3, 292224, Note_off_c, 0, 52, 64
3, 292224, Note_off_c, 0, 59, 64
3, 292224, Note_off_c, 0, 64, 64
3, 296448, Note_on_c, 0, 57, 92
3, 296448, Note_on_c, 0, 60, 92
3, 296448, Note_on_c, 0, 64, 92
3, 296832, Note_off_c, 0, 64, 64
3, 296832, Note_off_c, 0, 60, 64
3, 296832, Note_off_c, 0, 57, 64
3, 297216, Note_on_c, 0, 52, 92
3, 297216, Note_on_c, 0, 57, 92
3, 297216, Note_on_c, 0, 64, 92
3, 297600, Note_off_c, 0, 64, 64
3, 297600, Note_off_c, 0, 57, 64
3, 297600, Note_off_c, 0, 52, 64
3, 297984, Note_on_c, 0, 52, 92
3, 297984, Note_on_c, 0, 55, 92
3, 297984, Note_on_c, 0, 64, 92
3, 298368, Note_off_c, 0, 64, 64
3, 298368, Note_off_c, 0, 55, 64
3, 298368, Note_off_c, 0, 52, 64
3, 298752, Note_on_c, 0, 55, 92
3, 298752, Note_on_c, 0, 57, 92
3, 298752, Note_on_c, 0, 64, 92
3, 299136, Note_off_c, 0, 64, 64
3, 299136, Note_off_c, 0, 57, 64
3, 299136, Note_off_c, 0, 55, 64
3, 299520, Note_on_c, 0, 57, 92
3, 299520, Note_on_c, 0, 53, 92
3, 299520, Note_on_c, 0, 62, 92
3, 299904, Note_off_c, 0, 62, 64
3, 299904, Note_off_c, 0, 53, 64
3, 299904, Note_off_c, 0, 57, 64
3, 301056, Note_on_c, 0, 52, 92
3, 301056, Note_on_c, 0, 59, 92
3, 301056, Note_on_c, 0, 64, 92
3, 301440, Note_off_c, 0, 64, 64
3, 301440, Note_off_c, 0, 59, 64
3, 301440, Note_off_c, 0, 52, 64
3, 301824, Note_on_c, 0, 57, 92
3, 301824, Note_on_c, 0, 60, 92
3, 301824, Note_on_c, 0, 64, 92
3, 302208, Note_off_c, 0, 64, 64
3, 302208, Note_off_c, 0, 60, 64
3, 302208, Note_off_c, 0, 57, 64
3, 302976, Note_on_c, 0, 57, 92
3, 302976, Note_on_c, 0, 59, 92
3, 302976, Note_on_c, 0, 64, 92
3, 303168, Note_off_c, 0, 59, 64
3, 303168, Note_off_c, 0, 57, 64
3, 303168, Note_on_c, 0, 56, 92
3, 303168, Note_on_c, 0, 60, 92
3, 303360, Note_off_c, 0, 60, 64
3, 303360, Note_off_c, 0, 56, 64
3, 303360, Note_off_c, 0, 64, 64
3, 303360, Note_on_c, 0, 57, 92
3, 303360, Note_on_c, 0, 62, 92
3, 303744, Note_off_c, 0, 62, 64
3, 303744, Note_off_c, 0, 57, 64
3, 304128, Note_on_c, 0, 58, 92
3, 304128, Note_on_c, 0, 62, 92
3, 304128, Note_on_c, 0, 65, 92
3, 304512, Note_off_c, 0, 65, 64
3, 304512, Note_off_c, 0, 62, 64
3, 304512, Note_off_c, 0, 58, 64
3, 304896, Note_on_c, 0, 59, 92
3, 304896, Note_on_c, 0, 62, 92
3, 304896, Note_on_c, 0, 64, 92
3, 305280, Note_off_c, 0, 64, 64
3, 305280, Note_off_c, 0, 62, 64
3, 305280, Note_off_c, 0, 59, 64
3, 305568, Note_on_c, 0, 65, 92
3, 305664, Note_off_c, 0, 65, 64
3, 305664, Note_on_c, 0, 64, 92
3, 305760, Note_off_c, 0, 64, 64
3, 305760, Note_on_c, 0, 62, 92
3, 305856, Note_off_c, 0, 62, 64
3, 305856, Note_on_c, 0, 60, 92
3, 305952, Note_off_c, 0, 60, 64
3, 305952, Note_on_c, 0, 59, 92
3, 306048, Note_off_c, 0, 59, 64
3, 306048, Note_on_c, 0, 57, 92
3, 306240, Note_off_c, 0, 57, 64
3, 306240, Note_on_c, 0, 69, 92
3, 306528, Note_off_c, 0, 69, 64
3, 306528, Note_on_c, 0, 67, 92
3, 306624, Note_off_c, 0, 67, 64
3, 306624, Note_on_c, 0, 65, 92
3, 306720, Note_off_c, 0, 65, 64
3, 306720, Note_on_c, 0, 64, 92
3, 306816, Note_off_c, 0, 64, 64
3, 306816, Note_on_c, 0, 62, 92
3, 306864, Note_off_c, 0, 62, 64
3, 306864, Note_on_c, 0, 60, 92
3, 306912, Note_off_c, 0, 60, 64
3, 306912, Note_on_c, 0, 59, 92
3, 307008, Note_off_c, 0, 59, 64
3, 307008, Note_on_c, 0, 71, 92
3, 307296, Note_off_c, 0, 71, 64
3, 307296, Note_on_c, 0, 68, 92
3, 307392, Note_off_c, 0, 68, 64
3, 307392, Note_on_c, 0, 69, 92
3, 307488, Note_off_c, 0, 69, 64
3, 307488, Note_on_c, 0, 64, 92
3, 307584, Note_off_c, 0, 64, 64
3, 307584, Note_on_c, 0, 67, 92
3, 307680, Note_off_c, 0, 67, 64
3, 307680, Note_on_c, 0, 70, 92
3, 307776, Note_off_c, 0, 70, 64
3, 307776, Note_on_c, 0, 69, 92
3, 307872, Note_off_c, 0, 69, 64
3, 307872, Note_on_c, 0, 67, 92
3, 307968, Note_off_c, 0, 67, 64
3, 307968, Note_on_c, 0, 66, 92
3, 308064, Note_off_c, 0, 66, 64
3, 308064, Note_on_c, 0, 65, 92
3, 308160, Note_off_c, 0, 65, 64
3, 308160, Note_on_c, 0, 64, 92
3, 308256, Note_off_c, 0, 64, 64
3, 308256, Note_on_c, 0, 62, 92
3, 308352, Note_off_c, 0, 62, 64
3, 308352, Note_on_c, 0, 61, 92
3, 308448, Note_off_c, 0, 61, 64
3, 308448, Note_on_c, 0, 60, 92
3, 308544, Note_off_c, 0, 60, 64
3, 308544, Note_on_c, 0, 59, 92
3, 308640, Note_off_c, 0, 59, 64
3, 308640, Note_on_c, 0, 57, 92
3, 308736, Note_off_c, 0, 57, 64
3, 308736, Note_on_c, 0, 56, 92
3, 308832, Note_on_c, 0, 62, 92
3, 308928, Note_off_c, 0, 62, 64
3, 308928, Note_off_c, 0, 56, 64
3, 308928, Note_on_c, 0, 57, 92
3, 308928, Note_on_c, 0, 60, 92
3, 309024, Note_off_c, 0, 60, 64
3, 309024, Note_on_c, 0, 62, 92
3, 309120, Note_off_c, 0, 62, 64
3, 309120, Note_on_c, 0, 64, 92
3, 309312, Note_off_c, 0, 64, 64
3, 309312, Note_off_c, 0, 57, 64
3, 309312, Note_on_c, 0, 62, 92
3, 309312, Note_on_c, 0, 56, 92
3, 309504, Note_off_c, 0, 56, 64
3, 309504, Note_off_c, 0, 62, 64
3, 309504, Note_on_c, 0, 60, 92
3, 309504, Note_on_c, 0, 57, 92
3, 309504, Note_on_c, 0, 52, 92
3, 310272, Note_off_c, 0, 52, 64
3, 310272, Note_off_c, 0, 57, 64
3, 310272, Note_off_c, 0, 60, 64
3, 312960, Note_on_c, 0, 60, 92
3, 313152, Note_off_c, 0, 60, 64
3, 313152, Note_on_c, 0, 60, 92
3, 313344, Note_off_c, 0, 60, 64
3, 313344, Note_on_c, 0, 55, 92
3, 313536, Note_off_c, 0, 55, 64
3, 313536, Note_on_c, 0, 55, 92
3, 313728, Note_off_c, 0, 55, 64
3, 313728, Note_on_c, 0, 52, 92
3, 313920, Note_off_c, 0, 52, 64
3, 313920, Note_on_c, 0, 52, 92
3, 314112, Note_off_c, 0, 52, 64
3, 314112, Note_on_c, 0, 48, 92
3, 314496, Note_off_c, 0, 48, 64
3, 314496, Note_on_c, 0, 52, 92
3, 314496, Note_on_c, 0, 48, 92
3, 314880, Note_off_c, 0, 48, 64
3, 314880, Note_off_c, 0, 52, 64
3, 314880, Note_on_c, 0, 55, 92
3, 314880, Note_on_c, 0, 52, 92
3, 314880, Note_on_c, 0, 48, 92
3, 315264, Note_off_c, 0, 48, 64
3, 315264, Note_off_c, 0, 52, 64
3, 315264, Note_off_c, 0, 55, 64
3, 315264, Note_on_c, 0, 52, 92
3, 315264, Note_on_c, 0, 55, 92
3, 315264, Note_on_c, 0, 60, 92
3, 315456, Note_off_c, 0, 60, 64
3, 315456, Note_off_c, 0, 55, 64
3, 315456, Note_off_c, 0, 52, 64
3, 315456, Note_on_c, 0, 60, 92
3, 315648, Note_off_c, 0, 60, 64
3, 315648, Note_on_c, 0, 55, 92
3, 315840, Note_off_c, 0, 55, 64
3, 315840, Note_on_c, 0, 55, 92
3, 316032, Note_off_c, 0, 55, 64
3, 316032, Note_on_c, 0, 52, 92
3, 316224, Note_off_c, 0, 52, 64
3, 316224, Note_on_c, 0, 52, 92
3, 316416, Note_off_c, 0, 52, 64
3, 316416, Note_on_c, 0, 48, 92
3, 316800, Note_off_c, 0, 48, 64
3, 316800, Note_on_c, 0, 55, 92
3, 316800, Note_on_c, 0, 48, 92
3, 317184, Note_off_c, 0, 48, 64
3, 317184, Note_off_c, 0, 55, 64
3, 317184, Note_on_c, 0, 52, 92
3, 317184, Note_on_c, 0, 60, 92
3, 317184, Note_on_c, 0, 55, 92
3, 317568, Note_off_c, 0, 55, 64
3, 317568, Note_off_c, 0, 60, 64
3, 317568, Note_off_c, 0, 52, 64
3, 317568, Note_on_c, 0, 67, 92
3, 317760, Note_off_c, 0, 67, 64
3, 317760, Note_on_c, 0, 67, 92
3, 317952, Note_off_c, 0, 67, 64
3, 317952, Note_on_c, 0, 62, 92
3, 318144, Note_off_c, 0, 62, 64
3, 318144, Note_on_c, 0, 62, 92
3, 318336, Note_off_c, 0, 62, 64
3, 318336, Note_on_c, 0, 59, 92
3, 318528, Note_off_c, 0, 59, 64
3, 318528, Note_on_c, 0, 59, 92
3, 318720, Note_off_c, 0, 59, 64
3, 318720, Note_on_c, 0, 55, 92
3, 319104, Note_off_c, 0, 55, 64
3, 319104, Note_on_c, 0, 59, 92
3, 319104, Note_on_c, 0, 55, 92
3, 319488, Note_off_c, 0, 55, 64
3, 319488, Note_off_c, 0, 59, 64
3, 319488, Note_on_c, 0, 62, 92
3, 319488, Note_on_c, 0, 59, 92
3, 319488, Note_on_c, 0, 55, 92
3, 319872, Note_off_c, 0, 55, 64
3, 319872, Note_off_c, 0, 59, 64
3, 319872, Note_off_c, 0, 62, 64
3, 319872, Note_on_c, 0, 67, 92
3, 320064, Note_off_c, 0, 67, 64
3, 320064, Note_on_c, 0, 67, 92
3, 320256, Note_off_c, 0, 67, 64
3, 320256, Note_on_c, 0, 62, 92
3, 320448, Note_off_c, 0, 62, 64
3, 320448, Note_on_c, 0, 62, 92
3, 320640, Note_off_c, 0, 62, 64
3, 320640, Note_on_c, 0, 59, 92
3, 320832, Note_off_c, 0, 59, 64
3, 320832, Note_on_c, 0, 59, 92
3, 321024, Note_off_c, 0, 59, 64
3, 321024, Note_on_c, 0, 55, 92
3, 321408, Note_off_c, 0, 55, 64
3, 321408, Note_on_c, 0, 59, 92
3, 321408, Note_on_c, 0, 55, 92
3, 321792, Note_off_c, 0, 55, 64
3, 321792, Note_off_c, 0, 59, 64
3, 321792, Note_on_c, 0, 62, 92
3, 321792, Note_on_c, 0, 59, 92
3, 321792, Note_on_c, 0, 55, 92
3, 322176, Note_off_c, 0, 55, 64
3, 322176, Note_off_c, 0, 59, 64
3, 322176, Note_off_c, 0, 62, 64
3, 322176, Note_on_c, 0, 60, 92
3, 322368, Note_off_c, 0, 60, 64
3, 322368, Note_on_c, 0, 60, 92
3, 322560, Note_off_c, 0, 60, 64
3, 322560, Note_on_c, 0, 55, 92
3, 322752, Note_off_c, 0, 55, 64
3, 322752, Note_on_c, 0, 55, 92
3, 322944, Note_off_c, 0, 55, 64
3, 322944, Note_on_c, 0, 52, 92
3, 323136, Note_off_c, 0, 52, 64
3, 323136, Note_on_c, 0, 52, 92
3, 323328, Note_off_c, 0, 52, 64
3, 323328, Note_on_c, 0, 53, 92
3, 323328, Note_on_c, 0, 57, 92
3, 323712, Note_off_c, 0, 57, 64
3, 323712, Note_off_c, 0, 53, 64
3, 323712, Note_on_c, 0, 53, 92
3, 323712, Note_on_c, 0, 57, 92
3, 323712, Note_on_c, 0, 60, 92
3, 324096, Note_off_c, 0, 60, 64
3, 324096, Note_off_c, 0, 57, 64
3, 324096, Note_off_c, 0, 53, 64
3, 324096, Note_on_c, 0, 53, 92
3, 324096, Note_on_c, 0, 57, 92
3, 324096, Note_on_c, 0, 60, 92
3, 324480, Note_off_c, 0, 60, 64
3, 324480, Note_off_c, 0, 57, 64
3, 324480, Note_off_c, 0, 53, 64
3, 324480, Note_on_c, 0, 62, 92
3, 324672, Note_off_c, 0, 62, 64
3, 324672, Note_on_c, 0, 62, 92
3, 324864, Note_off_c, 0, 62, 64
3, 324864, Note_on_c, 0, 57, 92
3, 325056, Note_off_c, 0, 57, 64
3, 325056, Note_on_c, 0, 57, 92
3, 325248, Note_off_c, 0, 57, 64
3, 325248, Note_on_c, 0, 54, 92
3, 325440, Note_off_c, 0, 54, 64
3, 325440, Note_on_c, 0, 54, 92
3, 325632, Note_off_c, 0, 54, 64
3, 325632, Note_on_c, 0, 55, 92
3, 325632, Note_on_c, 0, 59, 92
3, 326016, Note_off_c, 0, 59, 64
3, 326016, Note_off_c, 0, 55, 64
3, 326016, Note_on_c, 0, 62, 92
3, 326016, Note_on_c, 0, 55, 92
3, 326016, Note_on_c, 0, 59, 92
3, 326400, Note_off_c, 0, 59, 64
3, 326400, Note_off_c, 0, 55, 64
3, 326400, Note_off_c, 0, 62, 64
3, 326400, Note_on_c, 0, 62, 92
3, 326400, Note_on_c, 0, 55, 92
3, 326400, Note_on_c, 0, 59, 92
3, 326784, Note_off_c, 0, 59, 64
3, 326784, Note_off_c, 0, 55, 64
3, 326784, Note_off_c, 0, 62, 64
3, 326784, Note_on_c, 0, 64, 92
3, 326976, Note_off_c, 0, 64, 64
3, 326976, Note_on_c, 0, 64, 92
3, 327168, Note_off_c, 0, 64, 64
3, 327168, Note_on_c, 0, 59, 92
3, 327360, Note_off_c, 0, 59, 64
3, 327360, Note_on_c, 0, 59, 92
3, 327552, Note_off_c, 0, 59, 64
3, 327552, Note_on_c, 0, 56, 92
3, 327744, Note_off_c, 0, 56, 64
3, 327744, Note_on_c, 0, 56, 92
3, 327936, Note_off_c, 0, 56, 64
3, 327936, Note_on_c, 0, 60, 92
3, 327936, Note_on_c, 0, 57, 92
3, 328320, Note_off_c, 0, 57, 64
3, 328320, Note_off_c, 0, 60, 64
3, 328320, Note_on_c, 0, 64, 92
3, 328320, Note_on_c, 0, 60, 92
3, 328320, Note_on_c, 0, 57, 92
3, 328704, Note_off_c, 0, 57, 64
3, 328704, Note_off_c, 0, 60, 64
3, 328704, Note_off_c, 0, 64, 64
3, 328704, Note_on_c, 0, 64, 92
3, 328704, Note_on_c, 0, 60, 92
3, 328704, Note_on_c, 0, 57, 92
3, 329088, Note_off_c, 0, 57, 64
3, 329088, Note_off_c, 0, 60, 64
3, 329088, Note_off_c, 0, 64, 64
3, 329088, Note_on_c, 0, 65, 92
3, 329280, Note_off_c, 0, 65, 64
3, 329280, Note_on_c, 0, 65, 92
3, 329472, Note_off_c, 0, 65, 64
3, 329472, Note_on_c, 0, 60, 92
3, 329664, Note_off_c, 0, 60, 64
3, 329664, Note_on_c, 0, 60, 92
3, 329856, Note_off_c, 0, 60, 64
3, 329856, Note_on_c, 0, 57, 92
3, 330048, Note_off_c, 0, 57, 64
3, 330048, Note_on_c, 0, 57, 92
3, 330240, Note_off_c, 0, 57, 64
3, 330240, Note_on_c, 0, 55, 92
3, 330624, Note_off_c, 0, 55, 64
3, 330624, Note_on_c, 0, 59, 92
3, 330624, Note_on_c, 0, 55, 92
3, 331008, Note_off_c, 0, 55, 64
3, 331008, Note_off_c, 0, 59, 64
3, 331008, Note_on_c, 0, 62, 92
3, 331008, Note_on_c, 0, 59, 92
3, 331008, Note_on_c, 0, 55, 92
3, 331392, Note_off_c, 0, 55, 64
3, 331392, Note_off_c, 0, 59, 64
3, 331392, Note_off_c, 0, 62, 64
3, 331392, Note_on_c, 0, 65, 92
3, 331584, Note_off_c, 0, 65, 64
3, 331584, Note_on_c, 0, 65, 92
3, 331776, Note_off_c, 0, 65, 64
3, 331776, Note_on_c, 0, 62, 92
3, 331968, Note_off_c, 0, 62, 64
3, 331968, Note_on_c, 0, 62, 92
3, 332160, Note_off_c, 0, 62, 64
3, 332160, Note_on_c, 0, 59, 92
3, 332352, Note_off_c, 0, 59, 64
3, 332352, Note_on_c, 0, 59, 92
3, 332544, Note_off_c, 0, 59, 64
3, 332544, Note_on_c, 0, 55, 92
3, 332928, Note_off_c, 0, 55, 64
3, 332928, Note_on_c, 0, 59, 92
3, 332928, Note_on_c, 0, 55, 92
3, 333312, Note_off_c, 0, 55, 64
3, 333312, Note_off_c, 0, 59, 64
3, 333312, Note_on_c, 0, 62, 92
3, 333312, Note_on_c, 0, 59, 92
3, 333312, Note_on_c, 0, 55, 92
3, 333696, Note_off_c, 0, 55, 64
3, 333696, Note_off_c, 0, 59, 64
3, 333696, Note_off_c, 0, 62, 64
3, 333696, Note_on_c, 0, 65, 92
3, 333888, Note_off_c, 0, 65, 64
3, 333888, Note_on_c, 0, 65, 92
3, 334080, Note_off_c, 0, 65, 64
3, 334080, Note_on_c, 0, 62, 92
3, 334272, Note_off_c, 0, 62, 64
3, 334272, Note_on_c, 0, 62, 92
3, 334464, Note_off_c, 0, 62, 64
3, 334464, Note_on_c, 0, 59, 92
3, 334656, Note_off_c, 0, 59, 64
3, 334656, Note_on_c, 0, 59, 92
3, 334848, Note_off_c, 0, 59, 64
3, 334848, Note_on_c, 0, 60, 92
3, 335040, Note_off_c, 0, 60, 64
3, 335040, Note_on_c, 0, 60, 92
3, 335232, Note_off_c, 0, 60, 64
3, 335232, Note_on_c, 0, 55, 92
3, 335424, Note_off_c, 0, 55, 64
3, 335424, Note_on_c, 0, 55, 92
3, 335616, Note_off_c, 0, 55, 64
3, 335616, Note_on_c, 0, 52, 92
3, 335808, Note_off_c, 0, 52, 64
3, 335808, Note_on_c, 0, 52, 92
3, 336000, Note_off_c, 0, 52, 64
3, 336000, Note_on_c, 0, 57, 92
3, 336192, Note_off_c, 0, 57, 64
3, 336192, Note_on_c, 0, 57, 92
3, 336384, Note_off_c, 0, 57, 64
3, 336384, Note_on_c, 0, 53, 92
3, 336576, Note_off_c, 0, 53, 64
3, 336576, Note_on_c, 0, 53, 92
3, 336768, Note_off_c, 0, 53, 64
3, 336768, Note_on_c, 0, 50, 92
3, 336960, Note_off_c, 0, 50, 64
3, 336960, Note_on_c, 0, 50, 92
3, 337152, Note_off_c, 0, 50, 64
3, 337152, Note_on_c, 0, 53, 92
3, 337344, Note_off_c, 0, 53, 64
3, 337344, Note_on_c, 0, 53, 92
3, 337536, Note_off_c, 0, 53, 64
3, 337536, Note_on_c, 0, 50, 92
3, 337728, Note_off_c, 0, 50, 64
3, 337728, Note_on_c, 0, 50, 92
3, 337920, Note_off_c, 0, 50, 64
3, 337920, Note_on_c, 0, 47, 92
3, 338112, Note_off_c, 0, 47, 64
3, 338112, Note_on_c, 0, 47, 92
3, 338304, Note_off_c, 0, 47, 64
3, 338304, Note_on_c, 0, 43, 92
3, 338688, Note_off_c, 0, 43, 64
3, 339456, Note_on_c, 0, 64, 92
3, 339456, Note_on_c, 0, 60, 92
3, 339456, Note_on_c, 0, 55, 92
3, 339840, Note_off_c, 0, 55, 64
3, 339840, Note_off_c, 0, 60, 64
3, 339840, Note_off_c, 0, 64, 64
3, 339840, Note_on_c, 0, 62, 92
3, 339840, Note_on_c, 0, 59, 92
3, 339840, Note_on_c, 0, 55, 92
3, 340224, Note_off_c, 0, 55, 64
3, 340224, Note_off_c, 0, 59, 64
3, 340224, Note_off_c, 0, 62, 64
3, 340224, Note_on_c, 0, 65, 92
3, 340224, Note_on_c, 0, 62, 92
3, 340224, Note_on_c, 0, 55, 92
3, 340608, Note_off_c, 0, 55, 64
3, 340608, Note_off_c, 0, 62, 64
3, 340608, Note_off_c, 0, 65, 64
3, 340608, Note_on_c, 0, 64, 92
3, 340608, Note_on_c, 0, 55, 92
3, 340608, Note_on_c, 0, 60, 92
3, 340800, Note_off_c, 0, 60, 64
3, 340800, Note_off_c, 0, 55, 64
3, 340800, Note_off_c, 0, 64, 64
3, 340800, Note_on_c, 0, 60, 92
3, 340992, Note_off_c, 0, 60, 64
3, 340992, Note_on_c, 0, 55, 92
3, 341184, Note_off_c, 0, 55, 64
3, 341184, Note_on_c, 0, 55, 92
3, 341376, Note_off_c, 0, 55, 64
3, 341376, Note_on_c, 0, 52, 92
3, 341568, Note_off_c, 0, 52, 64
3, 341568, Note_on_c, 0, 52, 92
3, 341760, Note_off_c, 0, 52, 64
3, 341760, Note_on_c, 0, 48, 92
3, 341760, Note_on_c, 0, 52, 92
3, 341760, Note_on_c, 0, 55, 92
3, 342144, Note_off_c, 0, 55, 64
3, 342144, Note_off_c, 0, 52, 64
3, 342144, Note_off_c, 0, 48, 64
3, 342144, Note_on_c, 0, 47, 92
3, 342144, Note_on_c, 0, 50, 92
3, 342144, Note_on_c, 0, 55, 92
3, 342528, Note_off_c, 0, 55, 64
3, 342528, Note_off_c, 0, 50, 64
3, 342528, Note_off_c, 0, 47, 64
3, 342528, Note_on_c, 0, 50, 92
3, 342528, Note_on_c, 0, 53, 92
3, 342528, Note_on_c, 0, 55, 92
3, 342912, Note_off_c, 0, 55, 64
3, 342912, Note_off_c, 0, 53, 64
3, 342912, Note_off_c, 0, 50, 64
3, 342912, Note_on_c, 0, 48, 92
3, 342912, Note_on_c, 0, 52, 92
3, 342912, Note_on_c, 0, 55, 92
3, 342912, Note_on_c, 0, 60, 92
3, 343104, Note_off_c, 0, 60, 64
3, 343104, Note_off_c, 0, 55, 64
3, 343104, Note_off_c, 0, 52, 64
3, 343104, Note_off_c, 0, 48, 64
3, 343104, Note_on_c, 0, 60, 92
3, 343296, Note_off_c, 0, 60, 64
3, 343296, Note_on_c, 0, 55, 92
3, 343488, Note_off_c, 0, 55, 64
3, 343488, Note_on_c, 0, 55, 92
3, 343680, Note_off_c, 0, 55, 64
3, 343680, Note_on_c, 0, 52, 92
3, 343872, Note_off_c, 0, 52, 64
3, 343872, Note_on_c, 0, 52, 92
3, 344064, Note_off_c, 0, 52, 64
3, 344064, Note_on_c, 0, 64, 92
3, 344064, Note_on_c, 0, 60, 92
3, 344064, Note_on_c, 0, 55, 92
3, 344448, Note_off_c, 0, 55, 64
3, 344448, Note_off_c, 0, 60, 64
3, 344448, Note_off_c, 0, 64, 64
3, 344448, Note_on_c, 0, 62, 92
3, 344448, Note_on_c, 0, 59, 92
3, 344448, Note_on_c, 0, 55, 92
3, 344832, Note_off_c, 0, 55, 64
3, 344832, Note_off_c, 0, 59, 64
3, 344832, Note_off_c, 0, 62, 64
3, 344832, Note_on_c, 0, 65, 92
3, 344832, Note_on_c, 0, 62, 92
3, 344832, Note_on_c, 0, 55, 92
3, 345216, Note_off_c, 0, 55, 64
3, 345216, Note_off_c, 0, 62, 64
3, 345216, Note_off_c, 0, 65, 64
3, 345216, Note_on_c, 0, 64, 92
3, 345216, Note_on_c, 0, 55, 92
3, 345216, Note_on_c, 0, 60, 92
3, 345408, Note_off_c, 0, 60, 64
3, 345408, Note_on_c, 0, 60, 92
3, 345600, Note_off_c, 0, 60, 64
3, 345600, Note_off_c, 0, 55, 64
3, 345600, Note_off_c, 0, 64, 64
3, 345600, Note_on_c, 0, 55, 92
3, 345792, Note_off_c, 0, 55, 64
3, 345792, Note_on_c, 0, 55, 92
3, 345984, Note_off_c, 0, 55, 64
3, 345984, Note_on_c, 0, 52, 92
3, 346176, Note_off_c, 0, 52, 64
3, 346176, Note_on_c, 0, 52, 92
3, 346368, Note_off_c, 0, 52, 64
3, 346368, Note_on_c, 0, 48, 92
3, 346368, Note_on_c, 0, 52, 92
3, 346368, Note_on_c, 0, 55, 92
3, 346752, Note_off_c, 0, 55, 64
3, 346752, Note_off_c, 0, 52, 64
3, 346752, Note_off_c, 0, 48, 64
3, 346752, Note_on_c, 0, 50, 92
3, 346752, Note_on_c, 0, 47, 92
3, 346752, Note_on_c, 0, 55, 92
3, 347136, Note_off_c, 0, 55, 64
3, 347136, Note_off_c, 0, 47, 64
3, 347136, Note_off_c, 0, 50, 64
3, 347136, Note_on_c, 0, 50, 92
3, 347136, Note_on_c, 0, 53, 92
3, 347136, Note_on_c, 0, 55, 92
3, 347520, Note_off_c, 0, 55, 64
3, 347520, Note_off_c, 0, 53, 64
3, 347520, Note_off_c, 0, 50, 64
3, 347520, Note_on_c, 0, 48, 92
3, 347520, Note_on_c, 0, 52, 92
3, 347520, Note_on_c, 0, 55, 92
3, 347616, Note_off_c, 0, 48, 64
3, 347616, Note_on_c, 0, 48, 92
3, 347712, Note_off_c, 0, 48, 64
3, 347712, Note_off_c, 0, 55, 64
3, 347712, Note_off_c, 0, 52, 64
3, 347712, Note_on_c, 0, 47, 92
3, 347808, Note_off_c, 0, 47, 64
3, 347808, Note_on_c, 0, 45, 92
3, 347904, Note_off_c, 0, 45, 64
3, 347904, Note_on_c, 0, 43, 92
3, 348000, Note_off_c, 0, 43, 64
3, 348000, Note_on_c, 0, 48, 92
3, 348096, Note_off_c, 0, 48, 64
3, 348096, Note_on_c, 0, 47, 92
3, 348192, Note_off_c, 0, 47, 64
3, 348192, Note_on_c, 0, 45, 92
3, 348288, Note_off_c, 0, 45, 64
3, 348288, Note_on_c, 0, 43, 92
3, 348384, Note_off_c, 0, 43, 64
3, 348384, Note_on_c, 0, 41, 92
3, 348480, Note_off_c, 0, 41, 64
3, 348480, Note_on_c, 0, 40, 92
3, 348576, Note_off_c, 0, 40, 64
3, 348576, Note_on_c, 0, 38, 92
3, 348672, Note_off_c, 0, 38, 64
3, 348672, Note_on_c, 0, 36, 92
3, 349056, Note_off_c, 0, 36, 64
3, 349920, Note_on_c, 0, 48, 92
3, 350016, Note_off_c, 0, 48, 64
3, 350016, Note_on_c, 0, 47, 92
3, 350112, Note_off_c, 0, 47, 64
3, 350112, Note_on_c, 0, 45, 92
3, 350208, Note_off_c, 0, 45, 64
3, 350208, Note_on_c, 0, 43, 92
3, 350304, Note_off_c, 0, 43, 64
3, 350304, Note_on_c, 0, 48, 92
3, 350400, Note_off_c, 0, 48, 64
3, 350400, Note_on_c, 0, 47, 92
3, 350496, Note_off_c, 0, 47, 64
3, 350496, Note_on_c, 0, 45, 92
3, 350592, Note_off_c, 0, 45, 64
3, 350592, Note_on_c, 0, 43, 92
3, 350688, Note_off_c, 0, 43, 64
3, 350688, Note_on_c, 0, 41, 92
3, 350784, Note_off_c, 0, 41, 64
3, 350784, Note_on_c, 0, 40, 92
3, 350880, Note_off_c, 0, 40, 64
3, 350880, Note_on_c, 0, 38, 92
3, 350976, Note_off_c, 0, 38, 64
3, 350976, Note_on_c, 0, 36, 92
3, 351360, Note_off_c, 0, 36, 64
3, 352224, Note_on_c, 0, 48, 92
3, 352320, Note_off_c, 0, 48, 64
3, 352320, Note_on_c, 0, 47, 92
3, 352416, Note_off_c, 0, 47, 64
3, 352416, Note_on_c, 0, 45, 92
3, 352512, Note_off_c, 0, 45, 64
3, 352512, Note_on_c, 0, 43, 92
3, 352608, Note_off_c, 0, 43, 64
3, 352608, Note_on_c, 0, 48, 92
3, 352704, Note_off_c, 0, 48, 64
3, 352704, Note_on_c, 0, 47, 92
3, 352800, Note_off_c, 0, 47, 64
3, 352800, Note_on_c, 0, 45, 92
3, 352896, Note_off_c, 0, 45, 64
3, 352896, Note_on_c, 0, 43, 92
3, 352992, Note_off_c, 0, 43, 64
3, 352992, Note_on_c, 0, 41, 92
3, 353088, Note_off_c, 0, 41, 64
3, 353088, Note_on_c, 0, 40, 92
3, 353184, Note_off_c, 0, 40, 64
3, 353184, Note_on_c, 0, 38, 92
3, 353280, Note_off_c, 0, 38, 64
3, 353280, Note_on_c, 0, 36, 92
3, 353664, Note_off_c, 0, 36, 64
3, 354048, Note_on_c, 0, 38, 92
3, 354432, Note_off_c, 0, 38, 64
3, 354432, Note_on_c, 0, 40, 92
3, 354816, Note_off_c, 0, 40, 64
3, 355200, Note_on_c, 0, 41, 92
3, 355584, Note_off_c, 0, 41, 64
3, 355584, Note_on_c, 0, 43, 92
3, 355776, Note_off_c, 0, 43, 64
3, 355776, Note_on_c, 0, 45, 92
3, 355872, Note_off_c, 0, 45, 64
3, 355872, Note_on_c, 0, 47, 92
3, 355968, Note_off_c, 0, 47, 64
3, 355968, Note_on_c, 0, 48, 92
3, 356064, Note_off_c, 0, 48, 64
3, 356064, Note_on_c, 0, 50, 92
3, 356160, Note_off_c, 0, 50, 64
3, 356160, Note_on_c, 0, 52, 92
3, 356256, Note_off_c, 0, 52, 64
3, 356256, Note_on_c, 0, 54, 92
3, 356352, Note_off_c, 0, 54, 64
3, 356352, Note_on_c, 0, 55, 92
3, 356448, Note_off_c, 0, 55, 64
3, 356448, Note_on_c, 0, 50, 92
3, 356544, Note_off_c, 0, 50, 64
3, 356544, Note_on_c, 0, 47, 92
3, 356640, Note_off_c, 0, 47, 64
3, 356640, Note_on_c, 0, 50, 92
3, 356736, Note_off_c, 0, 50, 64
3, 356736, Note_on_c, 0, 43, 92
3, 356832, Note_off_c, 0, 43, 64
3, 356832, Note_on_c, 0, 60, 92
3, 356928, Note_off_c, 0, 60, 64
3, 356928, Note_on_c, 0, 59, 92
3, 357024, Note_off_c, 0, 59, 64
3, 357024, Note_on_c, 0, 57, 92
3, 357120, Note_off_c, 0, 57, 64
3, 357120, Note_on_c, 0, 55, 92
3, 357216, Note_off_c, 0, 55, 64
3, 357216, Note_on_c, 0, 60, 92
3, 357312, Note_off_c, 0, 60, 64
3, 357312, Note_on_c, 0, 59, 92
3, 357408, Note_off_c, 0, 59, 64
3, 357408, Note_on_c, 0, 57, 92
3, 357504, Note_off_c, 0, 57, 64
3, 357504, Note_on_c, 0, 55, 92
3, 357600, Note_off_c, 0, 55, 64
3, 357600, Note_on_c, 0, 53, 92
3, 357696, Note_off_c, 0, 53, 64
3, 357696, Note_on_c, 0, 52, 92
3, 357792, Note_off_c, 0, 52, 64
3, 357792, Note_on_c, 0, 50, 92
3, 357888, Note_off_c, 0, 50, 64
3, 357888, Note_on_c, 0, 48, 92
3, 358272, Note_off_c, 0, 48, 64
3, 359136, Note_on_c, 0, 60, 92
3, 359232, Note_off_c, 0, 60, 64
3, 359232, Note_on_c, 0, 59, 92
3, 359328, Note_off_c, 0, 59, 64
3, 359328, Note_on_c, 0, 57, 92
3, 359424, Note_off_c, 0, 57, 64
3, 359424, Note_on_c, 0, 55, 92
3, 359520, Note_off_c, 0, 55, 64
3, 359520, Note_on_c, 0, 60, 92
3, 359616, Note_off_c, 0, 60, 64
3, 359616, Note_on_c, 0, 59, 92
3, 359712, Note_off_c, 0, 59, 64
3, 359712, Note_on_c, 0, 57, 92
3, 359808, Note_off_c, 0, 57, 64
3, 359808, Note_on_c, 0, 55, 92
3, 359904, Note_off_c, 0, 55, 64
3, 359904, Note_on_c, 0, 53, 92
3, 360000, Note_off_c, 0, 53, 64
3, 360000, Note_on_c, 0, 52, 92
3, 360096, Note_off_c, 0, 52, 64
3, 360096, Note_on_c, 0, 50, 92
3, 360192, Note_off_c, 0, 50, 64
3, 360192, Note_on_c, 0, 48, 92
3, 360576, Note_off_c, 0, 48, 64
3, 361440, Note_on_c, 0, 60, 92
3, 361536, Note_off_c, 0, 60, 64
3, 361536, Note_on_c, 0, 58, 92
3, 361632, Note_off_c, 0, 58, 64
3, 361632, Note_on_c, 0, 57, 92
3, 361728, Note_off_c, 0, 57, 64
3, 361728, Note_on_c, 0, 55, 92
3, 361824, Note_off_c, 0, 55, 64
3, 361824, Note_on_c, 0, 60, 92
3, 361920, Note_off_c, 0, 60, 64
3, 361920, Note_on_c, 0, 58, 92
3, 362016, Note_off_c, 0, 58, 64
3, 362016, Note_on_c, 0, 57, 92
3, 362112, Note_off_c, 0, 57, 64
3, 362112, Note_on_c, 0, 55, 92
3, 362208, Note_off_c, 0, 55, 64
3, 362208, Note_on_c, 0, 53, 92
3, 362304, Note_off_c, 0, 53, 64
3, 362304, Note_on_c, 0, 52, 92
3, 362400, Note_off_c, 0, 52, 64
3, 362400, Note_on_c, 0, 50, 92
3, 362496, Note_off_c, 0, 50, 64
3, 362496, Note_on_c, 0, 48, 92
3, 362880, Note_off_c, 0, 48, 64
3, 363264, Note_on_c, 0, 50, 92
3, 363648, Note_off_c, 0, 50, 64
3, 363648, Note_on_c, 0, 52, 92
3, 364032, Note_off_c, 0, 52, 64
3, 364224, Note_on_c, 0, 48, 92
3, 364416, Note_off_c, 0, 48, 64
3, 364416, Note_on_c, 0, 50, 92
3, 364608, Note_off_c, 0, 50, 64
3, 364608, Note_on_c, 0, 52, 92
3, 364800, Note_off_c, 0, 52, 64
3, 364800, Note_on_c, 0, 53, 92
3, 364896, Note_off_c, 0, 53, 64
3, 364896, Note_on_c, 0, 48, 92
3, 364992, Note_off_c, 0, 48, 64
3, 364992, Note_on_c, 0, 50, 92
3, 365088, Note_off_c, 0, 50, 64
3, 365088, Note_on_c, 0, 52, 92
3, 365184, Note_off_c, 0, 52, 64
3, 365184, Note_on_c, 0, 53, 92
3, 365280, Note_off_c, 0, 53, 64
3, 365280, Note_on_c, 0, 55, 92
3, 365376, Note_off_c, 0, 55, 64
3, 365376, Note_on_c, 0, 57, 92
3, 365472, Note_off_c, 0, 57, 64
3, 365472, Note_on_c, 0, 58, 92
3, 365568, Note_off_c, 0, 58, 64
3, 365568, Note_on_c, 0, 60, 92
3, 365664, Note_off_c, 0, 60, 64
3, 365664, Note_on_c, 0, 57, 92
3, 365760, Note_off_c, 0, 57, 64
3, 365760, Note_on_c, 0, 53, 92
3, 365856, Note_off_c, 0, 53, 64
3, 365856, Note_on_c, 0, 57, 92
3, 365952, Note_off_c, 0, 57, 64
3, 365952, Note_on_c, 0, 50, 92
3, 366048, Note_off_c, 0, 50, 64
3, 366048, Note_on_c, 0, 62, 92
3, 366144, Note_off_c, 0, 62, 64
3, 366144, Note_on_c, 0, 61, 92
3, 366240, Note_off_c, 0, 61, 64
3, 366240, Note_on_c, 0, 59, 92
3, 366336, Note_off_c, 0, 59, 64
3, 366336, Note_on_c, 0, 57, 92
3, 366432, Note_off_c, 0, 57, 64
3, 366432, Note_on_c, 0, 62, 92
3, 366528, Note_off_c, 0, 62, 64
3, 366528, Note_on_c, 0, 61, 92
3, 366624, Note_off_c, 0, 61, 64
3, 366624, Note_on_c, 0, 59, 92
3, 366720, Note_off_c, 0, 59, 64
3, 366720, Note_on_c, 0, 57, 92
3, 366816, Note_off_c, 0, 57, 64
3, 366816, Note_on_c, 0, 55, 92
3, 366912, Note_off_c, 0, 55, 64
3, 366912, Note_on_c, 0, 54, 92
3, 367008, Note_off_c, 0, 54, 64
3, 367008, Note_on_c, 0, 52, 92
3, 367104, Note_off_c, 0, 52, 64
3, 367104, Note_on_c, 0, 50, 92
3, 367488, Note_off_c, 0, 50, 64
3, 368352, Note_on_c, 0, 62, 92
3, 368448, Note_off_c, 0, 62, 64
3, 368448, Note_on_c, 0, 61, 92
3, 368544, Note_off_c, 0, 61, 64
3, 368544, Note_on_c, 0, 59, 92
3, 368640, Note_off_c, 0, 59, 64
3, 368640, Note_on_c, 0, 57, 92
3, 368736, Note_off_c, 0, 57, 64
3, 368736, Note_on_c, 0, 62, 92
3, 368832, Note_off_c, 0, 62, 64
3, 368832, Note_on_c, 0, 61, 92
3, 368928, Note_off_c, 0, 61, 64
3, 368928, Note_on_c, 0, 59, 92
3, 369024, Note_off_c, 0, 59, 64
3, 369024, Note_on_c, 0, 57, 92
3, 369120, Note_off_c, 0, 57, 64
3, 369120, Note_on_c, 0, 55, 92
3, 369216, Note_off_c, 0, 55, 64
3, 369216, Note_on_c, 0, 54, 92
3, 369312, Note_off_c, 0, 54, 64
3, 369312, Note_on_c, 0, 52, 92
3, 369408, Note_off_c, 0, 52, 64
3, 369408, Note_on_c, 0, 50, 92
3, 369792, Note_off_c, 0, 50, 64
3, 370656, Note_on_c, 0, 62, 92
3, 370752, Note_off_c, 0, 62, 64
3, 370752, Note_on_c, 0, 60, 92
3, 370848, Note_off_c, 0, 60, 64
3, 370848, Note_on_c, 0, 59, 92
3, 370944, Note_off_c, 0, 59, 64
3, 370944, Note_on_c, 0, 57, 92
3, 371040, Note_off_c, 0, 57, 64
3, 371040, Note_on_c, 0, 62, 92
3, 371136, Note_off_c, 0, 62, 64
3, 371136, Note_on_c, 0, 60, 92
3, 371232, Note_off_c, 0, 60, 64
3, 371232, Note_on_c, 0, 59, 92
3, 371328, Note_off_c, 0, 59, 64
3, 371328, Note_on_c, 0, 57, 92
3, 371424, Note_off_c, 0, 57, 64
3, 371424, Note_on_c, 0, 55, 92
3, 371520, Note_off_c, 0, 55, 64
3, 371520, Note_on_c, 0, 54, 92
3, 371616, Note_off_c, 0, 54, 64
3, 371616, Note_on_c, 0, 52, 92
3, 371712, Note_off_c, 0, 52, 64
3, 371712, Note_on_c, 0, 50, 92
3, 372096, Note_off_c, 0, 50, 64
3, 372480, Note_on_c, 0, 52, 92
3, 372864, Note_off_c, 0, 52, 64
3, 372864, Note_on_c, 0, 54, 92
3, 373248, Note_off_c, 0, 54, 64
3, 373440, Note_on_c, 0, 50, 92
3, 373632, Note_off_c, 0, 50, 64
3, 373632, Note_on_c, 0, 52, 92
3, 373824, Note_off_c, 0, 52, 64
3, 373824, Note_on_c, 0, 54, 92
3, 374016, Note_off_c, 0, 54, 64
3, 374016, Note_on_c, 0, 55, 92
3, 374208, Note_off_c, 0, 55, 64
3, 374208, Note_on_c, 0, 57, 92
3, 374304, Note_off_c, 0, 57, 64
3, 374304, Note_on_c, 0, 59, 92
3, 374400, Note_off_c, 0, 59, 64
3, 374400, Note_on_c, 0, 60, 92
3, 374496, Note_off_c, 0, 60, 64
3, 374496, Note_on_c, 0, 62, 92
3, 374592, Note_off_c, 0, 62, 64
3, 374592, Note_on_c, 0, 64, 92
3, 374688, Note_off_c, 0, 64, 64
3, 374688, Note_on_c, 0, 66, 92
3, 374784, Note_off_c, 0, 66, 64
3, 374784, Note_on_c, 0, 67, 92
3, 374976, Note_off_c, 0, 67, 64
3, 374976, Note_on_c, 0, 55, 92
3, 375168, Note_off_c, 0, 55, 64
3, 375168, Note_on_c, 0, 52, 92
3, 375552, Note_off_c, 0, 52, 64
3, 375744, Note_on_c, 0, 48, 92
3, 375936, Note_off_c, 0, 48, 64
3, 375936, Note_on_c, 0, 50, 92
3, 376128, Note_off_c, 0, 50, 64
3, 376128, Note_on_c, 0, 52, 92
3, 376320, Note_off_c, 0, 52, 64
3, 376320, Note_on_c, 0, 53, 92
3, 376704, Note_off_c, 0, 53, 64
3, 376896, Note_on_c, 0, 45, 92
3, 377088, Note_off_c, 0, 45, 64
3, 377088, Note_on_c, 0, 47, 92
3, 377280, Note_off_c, 0, 47, 64
3, 377280, Note_on_c, 0, 48, 92
3, 377472, Note_off_c, 0, 48, 64
3, 377472, Note_on_c, 0, 50, 92
3, 377856, Note_off_c, 0, 50, 64
3, 378048, Note_on_c, 0, 38, 92
3, 378240, Note_off_c, 0, 38, 64
3, 378240, Note_on_c, 0, 40, 92
3, 378432, Note_off_c, 0, 40, 64
3, 378432, Note_on_c, 0, 41, 92
3, 378624, Note_off_c, 0, 41, 64
3, 378624, Note_on_c, 0, 43, 92
3, 378720, Note_off_c, 0, 43, 64
3, 378720, Note_on_c, 0, 45, 92
3, 378816, Note_off_c, 0, 45, 64
3, 378816, Note_on_c, 0, 47, 92
3, 378912, Note_off_c, 0, 47, 64
3, 378912, Note_on_c, 0, 48, 92
3, 379008, Note_off_c, 0, 48, 64
3, 379008, Note_on_c, 0, 50, 92
3, 379104, Note_off_c, 0, 50, 64
3, 379104, Note_on_c, 0, 48, 92
3, 379200, Note_off_c, 0, 48, 64
3, 379200, Note_on_c, 0, 47, 92
3, 379296, Note_off_c, 0, 47, 64
3, 379296, Note_on_c, 0, 45, 92
3, 379392, Note_off_c, 0, 45, 64
3, 379392, Note_on_c, 0, 43, 92
3, 379488, Note_off_c, 0, 43, 64
3, 379488, Note_on_c, 0, 41, 92
3, 379584, Note_off_c, 0, 41, 64
3, 379584, Note_on_c, 0, 40, 92
3, 379680, Note_off_c, 0, 40, 64
3, 379680, Note_on_c, 0, 38, 92
3, 379776, Note_off_c, 0, 38, 64
3, 379776, Note_on_c, 0, 36, 92
3, 379872, Note_off_c, 0, 36, 64
3, 379872, Note_on_c, 0, 38, 92
3, 379968, Note_off_c, 0, 38, 64
3, 379968, Note_on_c, 0, 40, 92
3, 380064, Note_off_c, 0, 40, 64
3, 380064, Note_on_c, 0, 41, 92
3, 380160, Note_off_c, 0, 41, 64
3, 380160, Note_on_c, 0, 36, 92
3, 380256, Note_off_c, 0, 36, 64
3, 380256, Note_on_c, 0, 38, 92
3, 380352, Note_off_c, 0, 38, 64
3, 380352, Note_on_c, 0, 40, 92
3, 380448, Note_off_c, 0, 40, 64
3, 380448, Note_on_c, 0, 41, 92
3, 380544, Note_off_c, 0, 41, 64
3, 380544, Note_on_c, 0, 36, 92
3, 380640, Note_off_c, 0, 36, 64
3, 380640, Note_on_c, 0, 38, 92
3, 380736, Note_off_c, 0, 38, 64
3, 380736, Note_on_c, 0, 40, 92
3, 380832, Note_off_c, 0, 40, 64
3, 380832, Note_on_c, 0, 41, 92
3, 380928, Note_off_c, 0, 41, 64
3, 380928, Note_on_c, 0, 36, 92
3, 381024, Note_off_c, 0, 36, 64
3, 381024, Note_on_c, 0, 38, 92
3, 381120, Note_off_c, 0, 38, 64
3, 381120, Note_on_c, 0, 40, 92
3, 381216, Note_off_c, 0, 40, 64
3, 381216, Note_on_c, 0, 41, 92
3, 381312, Note_off_c, 0, 41, 64
3, 381312, Note_on_c, 0, 36, 92
3, 381408, Note_off_c, 0, 36, 64
3, 381408, Note_on_c, 0, 41, 92
3, 381504, Note_off_c, 0, 41, 64
3, 381504, Note_on_c, 0, 43, 92
3, 381600, Note_off_c, 0, 43, 64
3, 381600, Note_on_c, 0, 45, 92
3, 381696, Note_off_c, 0, 45, 64
3, 381696, Note_on_c, 0, 36, 92
3, 381792, Note_off_c, 0, 36, 64
3, 381792, Note_on_c, 0, 43, 92
3, 381888, Note_off_c, 0, 43, 64
3, 381888, Note_on_c, 0, 45, 92
3, 381984, Note_off_c, 0, 45, 64
3, 381984, Note_on_c, 0, 46, 92
3, 382080, Note_off_c, 0, 46, 64
3, 382080, Note_on_c, 0, 41, 92
3, 382176, Note_off_c, 0, 41, 64
3, 382176, Note_on_c, 0, 48, 92
3, 382272, Note_off_c, 0, 48, 64
3, 382272, Note_on_c, 0, 50, 92
3, 382368, Note_off_c, 0, 50, 64
3, 382368, Note_on_c, 0, 52, 92
3, 382464, Note_off_c, 0, 52, 64
3, 382464, Note_on_c, 0, 53, 92
3, 382560, Note_off_c, 0, 53, 64
3, 382560, Note_on_c, 0, 52, 92
3, 382656, Note_off_c, 0, 52, 64
3, 382656, Note_on_c, 0, 53, 92
3, 382752, Note_off_c, 0, 53, 64
3, 382752, Note_on_c, 0, 50, 92
3, 382848, Note_off_c, 0, 50, 64
3, 382848, Note_on_c, 0, 52, 92
3, 382944, Note_off_c, 0, 52, 64
3, 382944, Note_on_c, 0, 50, 92
3, 383040, Note_off_c, 0, 50, 64
3, 383040, Note_on_c, 0, 52, 92
3, 383136, Note_off_c, 0, 52, 64
3, 383136, Note_on_c, 0, 48, 92
3, 383232, Note_off_c, 0, 48, 64
3, 383232, Note_on_c, 0, 57, 92
3, 383328, Note_off_c, 0, 57, 64
3, 383328, Note_on_c, 0, 55, 92
3, 383424, Note_off_c, 0, 55, 64
3, 383424, Note_on_c, 0, 57, 92
3, 383520, Note_off_c, 0, 57, 64
3, 383520, Note_on_c, 0, 53, 92
3, 383616, Note_off_c, 0, 53, 64
3, 383616, Note_on_c, 0, 55, 92
3, 383712, Note_off_c, 0, 55, 64
3, 383712, Note_on_c, 0, 60, 92
3, 383808, Note_off_c, 0, 60, 64
3, 383808, Note_on_c, 0, 59, 92
3, 383904, Note_off_c, 0, 59, 64
3, 383904, Note_on_c, 0, 60, 92
3, 384000, Note_off_c, 0, 60, 64
3, 384000, Note_on_c, 0, 55, 92
3, 384096, Note_off_c, 0, 55, 64
3, 384096, Note_on_c, 0, 59, 92
3, 384192, Note_off_c, 0, 59, 64
3, 384192, Note_on_c, 0, 57, 92
3, 384288, Note_off_c, 0, 57, 64
3, 384288, Note_on_c, 0, 59, 92
3, 384384, Note_off_c, 0, 59, 64
3, 384384, Note_on_c, 0, 60, 92
3, 384768, Note_off_c, 0, 60, 64
3, 385536, Note_on_c, 0, 60, 92
3, 385728, Note_off_c, 0, 60, 64
3, 385728, Note_on_c, 0, 60, 92
3, 385920, Note_off_c, 0, 60, 64
3, 385920, Note_on_c, 0, 55, 92
3, 386112, Note_off_c, 0, 55, 64
3, 386112, Note_on_c, 0, 55, 92
3, 386304, Note_off_c, 0, 55, 64
3, 386304, Note_on_c, 0, 52, 92
3, 386496, Note_off_c, 0, 52, 64
3, 386496, Note_on_c, 0, 52, 92
3, 386688, Note_off_c, 0, 52, 64
3, 386688, Note_on_c, 0, 55, 92
3, 387072, Note_off_c, 0, 55, 64
3, 387072, Note_on_c, 0, 60, 92
3, 387072, Note_on_c, 0, 55, 92
3, 387456, Note_off_c, 0, 55, 64
3, 387456, Note_off_c, 0, 60, 64
3, 387456, Note_on_c, 0, 64, 92
3, 387456, Note_on_c, 0, 60, 92
3, 387456, Note_on_c, 0, 55, 92
3, 387840, Note_off_c, 0, 55, 64
3, 387840, Note_off_c, 0, 60, 64
3, 387840, Note_off_c, 0, 64, 64
3, 387840, Note_on_c, 0, 67, 92
3, 388032, Note_off_c, 0, 67, 64
3, 388032, Note_on_c, 0, 67, 92
3, 388224, Note_off_c, 0, 67, 64
3, 388224, Note_on_c, 0, 62, 92
3, 388416, Note_off_c, 0, 62, 64
3, 388416, Note_on_c, 0, 62, 92
3, 388608, Note_off_c, 0, 62, 64
3, 388608, Note_on_c, 0, 59, 92
3, 388800, Note_off_c, 0, 59, 64
3, 388800, Note_on_c, 0, 59, 92
3, 388992, Note_off_c, 0, 59, 64
3, 388992, Note_on_c, 0, 55, 92
3, 389376, Note_off_c, 0, 55, 64
3, 389376, Note_on_c, 0, 59, 92
3, 389376, Note_on_c, 0, 55, 92
3, 389760, Note_off_c, 0, 55, 64
3, 389760, Note_off_c, 0, 59, 64
3, 389760, Note_on_c, 0, 62, 92
3, 389760, Note_on_c, 0, 59, 92
3, 389760, Note_on_c, 0, 55, 92
3, 390144, Note_off_c, 0, 55, 64
3, 390144, Note_off_c, 0, 59, 64
3, 390144, Note_off_c, 0, 62, 64
3, 390144, Note_on_c, 0, 67, 92
3, 390336, Note_off_c, 0, 67, 64
3, 390336, Note_on_c, 0, 67, 92
3, 390528, Note_off_c, 0, 67, 64
3, 390528, Note_on_c, 0, 62, 92
3, 390720, Note_off_c, 0, 62, 64
3, 390720, Note_on_c, 0, 62, 92
3, 390912, Note_off_c, 0, 62, 64
3, 390912, Note_on_c, 0, 59, 92
3, 391104, Note_off_c, 0, 59, 64
3, 391104, Note_on_c, 0, 59, 92
3, 391296, Note_off_c, 0, 59, 64
3, 391296, Note_on_c, 0, 55, 92
3, 391680, Note_off_c, 0, 55, 64
3, 391680, Note_on_c, 0, 67, 92
3, 391872, Note_off_c, 0, 67, 64
3, 391872, Note_on_c, 0, 67, 92
3, 392064, Note_off_c, 0, 67, 64
3, 392064, Note_on_c, 0, 62, 92
3, 392256, Note_off_c, 0, 62, 64
3, 392256, Note_on_c, 0, 62, 92
3, 392448, Note_off_c, 0, 62, 64
3, 392448, Note_on_c, 0, 59, 92
3, 392640, Note_off_c, 0, 59, 64
3, 392640, Note_on_c, 0, 59, 92
3, 392832, Note_off_c, 0, 59, 64
3, 392832, Note_on_c, 0, 67, 92
3, 393024, Note_off_c, 0, 67, 64
3, 393024, Note_on_c, 0, 67, 92
3, 393216, Note_off_c, 0, 67, 64
3, 393216, Note_on_c, 0, 62, 92
3, 393408, Note_off_c, 0, 62, 64
3, 393408, Note_on_c, 0, 62, 92
3, 393600, Note_off_c, 0, 62, 64
3, 393600, Note_on_c, 0, 57, 92
3, 393792, Note_off_c, 0, 57, 64
3, 393792, Note_on_c, 0, 57, 92
3, 393984, Note_off_c, 0, 57, 64
3, 393984, Note_on_c, 0, 67, 92
3, 394176, Note_off_c, 0, 67, 64
3, 394176, Note_on_c, 0, 67, 92
3, 394368, Note_off_c, 0, 67, 64
3, 394368, Note_on_c, 0, 64, 92
3, 394560, Note_off_c, 0, 64, 64
3, 394560, Note_on_c, 0, 64, 92
3, 394752, Note_off_c, 0, 64, 64
3, 394752, Note_on_c, 0, 57, 92
3, 394944, Note_off_c, 0, 57, 64
3, 394944, Note_on_c, 0, 57, 92
3, 395136, Note_off_c, 0, 57, 64
3, 395136, Note_on_c, 0, 67, 92
3, 395328, Note_off_c, 0, 67, 64
3, 395328, Note_on_c, 0, 67, 92
3, 395520, Note_off_c, 0, 67, 64
3, 395520, Note_on_c, 0, 64, 92
3, 395712, Note_off_c, 0, 64, 64
3, 395712, Note_on_c, 0, 64, 92
3, 395904, Note_off_c, 0, 64, 64
3, 395904, Note_on_c, 0, 57, 92
3, 396096, Note_off_c, 0, 57, 64
3, 396096, Note_on_c, 0, 57, 92
3, 396288, Note_off_c, 0, 57, 64
3, 396288, Note_on_c, 0, 66, 92
3, 396480, Note_off_c, 0, 66, 64
3, 396480, Note_on_c, 0, 66, 92
3, 396672, Note_off_c, 0, 66, 64
3, 396672, Note_on_c, 0, 62, 92
3, 396864, Note_off_c, 0, 62, 64
3, 396864, Note_on_c, 0, 62, 92
3, 397056, Note_off_c, 0, 62, 64
3, 397056, Note_on_c, 0, 57, 92
3, 397248, Note_off_c, 0, 57, 64
3, 397248, Note_on_c, 0, 57, 92
3, 397440, Note_off_c, 0, 57, 64
3, 397440, Note_on_c, 0, 66, 92
3, 397632, Note_off_c, 0, 66, 64
3, 397632, Note_on_c, 0, 66, 92
3, 397824, Note_off_c, 0, 66, 64
3, 397824, Note_on_c, 0, 62, 92
3, 398016, Note_off_c, 0, 62, 64
3, 398016, Note_on_c, 0, 62, 92
3, 398208, Note_off_c, 0, 62, 64
3, 398208, Note_on_c, 0, 43, 92
3, 398304, Note_off_c, 0, 43, 64
3, 398304, Note_on_c, 0, 45, 92
3, 398400, Note_off_c, 0, 45, 64
3, 398400, Note_on_c, 0, 47, 92
3, 398496, Note_off_c, 0, 47, 64
3, 398496, Note_on_c, 0, 45, 92
3, 398592, Note_off_c, 0, 45, 64
3, 398592, Note_on_c, 0, 43, 92
3, 398688, Note_off_c, 0, 43, 64
3, 398688, Note_on_c, 0, 45, 92
3, 398784, Note_off_c, 0, 45, 64
3, 398784, Note_on_c, 0, 47, 92
3, 398880, Note_off_c, 0, 47, 64
3, 398880, Note_on_c, 0, 45, 92
3, 398976, Note_off_c, 0, 45, 64
3, 398976, Note_on_c, 0, 43, 92
3, 399072, Note_off_c, 0, 43, 64
3, 399072, Note_on_c, 0, 45, 92
3, 399168, Note_off_c, 0, 45, 64
3, 399168, Note_on_c, 0, 47, 92
3, 399264, Note_off_c, 0, 47, 64
3, 399264, Note_on_c, 0, 48, 92
3, 399360, Note_off_c, 0, 48, 64
3, 399360, Note_on_c, 0, 50, 92
3, 399456, Note_off_c, 0, 50, 64
3, 399456, Note_on_c, 0, 52, 92
3, 399552, Note_off_c, 0, 52, 64
3, 399552, Note_on_c, 0, 54, 92
3, 399648, Note_off_c, 0, 54, 64
3, 399648, Note_on_c, 0, 52, 92
3, 399744, Note_off_c, 0, 52, 64
3, 399744, Note_on_c, 0, 50, 92
3, 399840, Note_off_c, 0, 50, 64
3, 399840, Note_on_c, 0, 52, 92
3, 399936, Note_off_c, 0, 52, 64
3, 399936, Note_on_c, 0, 54, 92
3, 400032, Note_off_c, 0, 54, 64
3, 400032, Note_on_c, 0, 52, 92
3, 400128, Note_off_c, 0, 52, 64
3, 400128, Note_on_c, 0, 50, 92
3, 400224, Note_off_c, 0, 50, 64
3, 400224, Note_on_c, 0, 52, 92
3, 400320, Note_off_c, 0, 52, 64
3, 400320, Note_on_c, 0, 54, 92
3, 400416, Note_off_c, 0, 54, 64
3, 400416, Note_on_c, 0, 50, 92
3, 400512, Note_off_c, 0, 50, 64
3, 400512, Note_on_c, 0, 55, 92
3, 400608, Note_off_c, 0, 55, 64
3, 400608, Note_on_c, 0, 57, 92
3, 400704, Note_off_c, 0, 57, 64
3, 400704, Note_on_c, 0, 59, 92
3, 400800, Note_off_c, 0, 59, 64
3, 400800, Note_on_c, 0, 57, 92
3, 400896, Note_off_c, 0, 57, 64
3, 400896, Note_on_c, 0, 55, 92
3, 400992, Note_off_c, 0, 55, 64
3, 400992, Note_on_c, 0, 57, 92
3, 401088, Note_off_c, 0, 57, 64
3, 401088, Note_on_c, 0, 59, 92
3, 401184, Note_off_c, 0, 59, 64
3, 401184, Note_on_c, 0, 57, 92
3, 401280, Note_off_c, 0, 57, 64
3, 401280, Note_on_c, 0, 55, 92
3, 401376, Note_off_c, 0, 55, 64
3, 401376, Note_on_c, 0, 57, 92
3, 401472, Note_off_c, 0, 57, 64
3, 401472, Note_on_c, 0, 59, 92
3, 401568, Note_off_c, 0, 59, 64
3, 401568, Note_on_c, 0, 60, 92
3, 401664, Note_off_c, 0, 60, 64
3, 401664, Note_on_c, 0, 62, 92
3, 401760, Note_off_c, 0, 62, 64
3, 401760, Note_on_c, 0, 64, 92
3, 401856, Note_off_c, 0, 64, 64
3, 401856, Note_on_c, 0, 66, 92
3, 401952, Note_off_c, 0, 66, 64
3, 401952, Note_on_c, 0, 64, 92
3, 402048, Note_off_c, 0, 64, 64
3, 402048, Note_on_c, 0, 62, 92
3, 402144, Note_off_c, 0, 62, 64
3, 402144, Note_on_c, 0, 64, 92
3, 402240, Note_off_c, 0, 64, 64
3, 402240, Note_on_c, 0, 66, 92
3, 402336, Note_off_c, 0, 66, 64
3, 402336, Note_on_c, 0, 64, 92
3, 402432, Note_off_c, 0, 64, 64
3, 402432, Note_on_c, 0, 62, 92
3, 402528, Note_off_c, 0, 62, 64
3, 402528, Note_on_c, 0, 64, 92
3, 402624, Note_off_c, 0, 64, 64
3, 402624, Note_on_c, 0, 66, 92
3, 402720, Note_off_c, 0, 66, 64
3, 402720, Note_on_c, 0, 62, 92
3, 402816, Note_off_c, 0, 62, 64
3, 402816, Note_on_c, 0, 67, 92
3, 402912, Note_off_c, 0, 67, 64
3, 402912, Note_on_c, 0, 69, 92
3, 403008, Note_off_c, 0, 69, 64
3, 403008, Note_on_c, 0, 71, 92
3, 403104, Note_off_c, 0, 71, 64
3, 403104, Note_on_c, 0, 69, 92
3, 403200, Note_off_c, 0, 69, 64
3, 403200, Note_on_c, 0, 67, 92
3, 403296, Note_off_c, 0, 67, 64
3, 403296, Note_on_c, 0, 69, 92
3, 403392, Note_off_c, 0, 69, 64
3, 403392, Note_on_c, 0, 71, 92
3, 403488, Note_off_c, 0, 71, 64
3, 403488, Note_on_c, 0, 69, 92
3, 403584, Note_off_c, 0, 69, 64
3, 403584, Note_on_c, 0, 67, 92
3, 403680, Note_off_c, 0, 67, 64
3, 403680, Note_on_c, 0, 69, 92
3, 403776, Note_off_c, 0, 69, 64
3, 403776, Note_on_c, 0, 71, 92
3, 403872, Note_off_c, 0, 71, 64
3, 403872, Note_on_c, 0, 72, 92
3, 403968, Note_off_c, 0, 72, 64
3, 403968, Note_on_c, 0, 74, 92
3, 404352, Note_off_c, 0, 74, 64
3, 404352, Note_on_c, 0, 55, 92
3, 404352, Note_on_c, 0, 59, 92
3, 404352, Note_on_c, 0, 62, 92
3, 404352, Note_on_c, 0, 67, 92
3, 404544, Note_off_c, 0, 67, 64
3, 404544, Note_off_c, 0, 62, 64
3, 404544, Note_off_c, 0, 59, 64
3, 404544, Note_off_c, 0, 55, 64
3, 404736, Note_on_c, 0, 55, 92
3, 404736, Note_on_c, 0, 59, 92
3, 404736, Note_on_c, 0, 62, 92
3, 404736, Note_on_c, 0, 67, 92
3, 404928, Note_off_c, 0, 67, 64
3, 404928, Note_off_c, 0, 62, 64
3, 404928, Note_off_c, 0, 59, 64
3, 404928, Note_off_c, 0, 55, 64
3, 405120, Note_on_c, 0, 55, 92
3, 405120, Note_on_c, 0, 59, 92
3, 405120, Note_on_c, 0, 62, 92
3, 405120, Note_on_c, 0, 67, 92
3, 405312, Note_off_c, 0, 67, 64
3, 405312, Note_off_c, 0, 62, 64
3, 405312, Note_off_c, 0, 59, 64
3, 405312, Note_off_c, 0, 55, 64
3, 405504, Note_on_c, 0, 55, 92
3, 405504, Note_on_c, 0, 59, 92
3, 405504, Note_on_c, 0, 62, 92
3, 405504, Note_on_c, 0, 67, 92
3, 405696, Note_off_c, 0, 67, 64
3, 405696, Note_off_c, 0, 62, 64
3, 405696, Note_off_c, 0, 59, 64
3, 405696, Note_off_c, 0, 55, 64
3, 405888, Note_on_c, 0, 55, 92
3, 405888, Note_on_c, 0, 59, 92
3, 405888, Note_on_c, 0, 62, 92
3, 405888, Note_on_c, 0, 67, 92
3, 406080, Note_off_c, 0, 67, 64
3, 406080, Note_off_c, 0, 62, 64
3, 406080, Note_off_c, 0, 59, 64
3, 406080, Note_off_c, 0, 55, 64
3, 406272, Note_on_c, 0, 62, 92
3, 406272, Note_on_c, 0, 66, 92
3, 406272, Note_on_c, 0, 69, 92
3, 406464, Note_off_c, 0, 69, 64
3, 406464, Note_off_c, 0, 66, 64
3, 406464, Note_off_c, 0, 62, 64
3, 406656, Note_on_c, 0, 62, 92
3, 406656, Note_on_c, 0, 66, 92
3, 406656, Note_on_c, 0, 69, 92
3, 406848, Note_off_c, 0, 69, 64
3, 406848, Note_off_c, 0, 66, 64
3, 406848, Note_off_c, 0, 62, 64
3, 407040, Note_on_c, 0, 62, 92
3, 407040, Note_on_c, 0, 66, 92
3, 407040, Note_on_c, 0, 69, 92
3, 407232, Note_off_c, 0, 69, 64
3, 407232, Note_off_c, 0, 66, 64
3, 407232, Note_off_c, 0, 62, 64
3, 407424, Note_on_c, 0, 62, 92
3, 407424, Note_on_c, 0, 66, 92
3, 407424, Note_on_c, 0, 69, 92
3, 407616, Note_off_c, 0, 69, 64
3, 407616, Note_off_c, 0, 66, 64
3, 407616, Note_off_c, 0, 62, 64
3, 407808, Note_on_c, 0, 62, 92
3, 407808, Note_on_c, 0, 66, 92
3, 407808, Note_on_c, 0, 69, 92
3, 408000, Note_off_c, 0, 69, 64
3, 408000, Note_off_c, 0, 66, 64
3, 408000, Note_off_c, 0, 62, 64
3, 408192, Note_on_c, 0, 62, 92
3, 408192, Note_on_c, 0, 66, 92
3, 408192, Note_on_c, 0, 69, 92
3, 408384, Note_off_c, 0, 69, 64
3, 408384, Note_off_c, 0, 66, 64
3, 408384, Note_off_c, 0, 62, 64
3, 408576, Note_on_c, 0, 55, 92
3, 408576, Note_on_c, 0, 62, 92
3, 408576, Note_on_c, 0, 67, 92
3, 408768, Note_off_c, 0, 67, 64
3, 408768, Note_off_c, 0, 62, 64
3, 408768, Note_off_c, 0, 55, 64
3, 408960, Note_on_c, 0, 55, 92
3, 408960, Note_on_c, 0, 59, 92
3, 408960, Note_on_c, 0, 67, 92
3, 409152, Note_off_c, 0, 67, 64
3, 409152, Note_off_c, 0, 59, 64
3, 409152, Note_off_c, 0, 55, 64
3, 409344, Note_on_c, 0, 55, 92
3, 409344, Note_on_c, 0, 59, 92
3, 409344, Note_on_c, 0, 67, 92
3, 409536, Note_off_c, 0, 67, 64
3, 409536, Note_off_c, 0, 59, 64
3, 409536, Note_off_c, 0, 55, 64
3, 409728, Note_on_c, 0, 55, 92
3, 409728, Note_on_c, 0, 59, 92
3, 409728, Note_on_c, 0, 67, 92
3, 409920, Note_off_c, 0, 67, 64
3, 409920, Note_off_c, 0, 59, 64
3, 409920, Note_off_c, 0, 55, 64
3, 410112, Note_on_c, 0, 55, 92
3, 410112, Note_on_c, 0, 59, 92
3, 410112, Note_on_c, 0, 67, 92
3, 410304, Note_off_c, 0, 67, 64
3, 410304, Note_off_c, 0, 59, 64
3, 410304, Note_off_c, 0, 55, 64
3, 410496, Note_on_c, 0, 55, 92
3, 410496, Note_on_c, 0, 59, 92
3, 410496, Note_on_c, 0, 67, 92
3, 410688, Note_off_c, 0, 67, 64
3, 410688, Note_off_c, 0, 59, 64
3, 410688, Note_off_c, 0, 55, 64
3, 410880, Note_on_c, 0, 62, 92
3, 410880, Note_on_c, 0, 66, 92
3, 410880, Note_on_c, 0, 69, 92
3, 411072, Note_off_c, 0, 69, 64
3, 411072, Note_off_c, 0, 66, 64
3, 411072, Note_off_c, 0, 62, 64
3, 411264, Note_on_c, 0, 62, 92
3, 411264, Note_on_c, 0, 66, 92
3, 411264, Note_on_c, 0, 69, 92
3, 411456, Note_off_c, 0, 69, 64
3, 411456, Note_off_c, 0, 66, 64
3, 411456, Note_off_c, 0, 62, 64
3, 411648, Note_on_c, 0, 62, 92
3, 411648, Note_on_c, 0, 66, 92
3, 411648, Note_on_c, 0, 69, 92
3, 411840, Note_off_c, 0, 69, 64
3, 411840, Note_off_c, 0, 66, 64
3, 411840, Note_off_c, 0, 62, 64
3, 412032, Note_on_c, 0, 62, 92
3, 412032, Note_on_c, 0, 66, 92
3, 412032, Note_on_c, 0, 69, 92
3, 412224, Note_off_c, 0, 69, 64
3, 412224, Note_off_c, 0, 66, 64
3, 412224, Note_off_c, 0, 62, 64
3, 412416, Note_on_c, 0, 62, 92
3, 412416, Note_on_c, 0, 66, 92
3, 412416, Note_on_c, 0, 69, 92
3, 412608, Note_off_c, 0, 69, 64
3, 412608, Note_off_c, 0, 66, 64
3, 412608, Note_off_c, 0, 62, 64
3, 412800, Note_on_c, 0, 62, 92
3, 412800, Note_on_c, 0, 66, 92
3, 412800, Note_on_c, 0, 69, 92
3, 412992, Note_off_c, 0, 69, 64
3, 412992, Note_off_c, 0, 66, 64
3, 412992, Note_off_c, 0, 62, 64
3, 413184, Note_on_c, 0, 55, 92
3, 413184, Note_on_c, 0, 62, 92
3, 413184, Note_on_c, 0, 67, 92
3, 413280, Note_off_c, 0, 67, 64
3, 413280, Note_off_c, 0, 62, 64
3, 413280, Note_off_c, 0, 55, 64
3, 413280, Note_on_c, 0, 55, 92
3, 413376, Note_off_c, 0, 55, 64
3, 413376, Note_on_c, 0, 54, 92
3, 413472, Note_off_c, 0, 54, 64
3, 413472, Note_on_c, 0, 52, 92
3, 413568, Note_off_c, 0, 52, 64
3, 413568, Note_on_c, 0, 50, 92
3, 413664, Note_off_c, 0, 50, 64
3, 413664, Note_on_c, 0, 55, 92
3, 413760, Note_off_c, 0, 55, 64
3, 413760, Note_on_c, 0, 54, 92
3, 413856, Note_off_c, 0, 54, 64
3, 413856, Note_on_c, 0, 52, 92
3, 413952, Note_off_c, 0, 52, 64
3, 413952, Note_on_c, 0, 50, 92
3, 414048, Note_off_c, 0, 50, 64
3, 414048, Note_on_c, 0, 48, 92
3, 414144, Note_off_c, 0, 48, 64
3, 414144, Note_on_c, 0, 47, 92
3, 414240, Note_off_c, 0, 47, 64
3, 414240, Note_on_c, 0, 45, 92
3, 414336, Note_off_c, 0, 45, 64
3, 414336, Note_on_c, 0, 43, 92
3, 414720, Note_off_c, 0, 43, 64
3, 415488, Note_on_c, 0, 47, 92
3, 415680, Note_off_c, 0, 47, 64
3, 415680, Note_on_c, 0, 50, 92
3, 415872, Note_off_c, 0, 50, 64
3, 415872, Note_on_c, 0, 48, 92
3, 416064, Note_off_c, 0, 48, 64
3, 416064, Note_on_c, 0, 47, 92
3, 416256, Note_off_c, 0, 47, 64
3, 416256, Note_on_c, 0, 45, 92
3, 416448, Note_off_c, 0, 45, 64
3, 416448, Note_on_c, 0, 43, 92
3, 416640, Note_off_c, 0, 43, 64
3, 416640, Note_on_c, 0, 48, 92
3, 416736, Note_off_c, 0, 48, 64
3, 416736, Note_on_c, 0, 60, 92
3, 416832, Note_off_c, 0, 60, 64
3, 416832, Note_on_c, 0, 59, 92
3, 416928, Note_off_c, 0, 59, 64
3, 416928, Note_on_c, 0, 57, 92
3, 417024, Note_off_c, 0, 57, 64
3, 417024, Note_on_c, 0, 55, 92
3, 417120, Note_off_c, 0, 55, 64
3, 417120, Note_on_c, 0, 60, 92
3, 417216, Note_off_c, 0, 60, 64
3, 417216, Note_on_c, 0, 59, 92
3, 417312, Note_off_c, 0, 59, 64
3, 417312, Note_on_c, 0, 57, 92
3, 417408, Note_off_c, 0, 57, 64
3, 417408, Note_on_c, 0, 55, 92
3, 417504, Note_off_c, 0, 55, 64
3, 417504, Note_on_c, 0, 53, 92
3, 417600, Note_off_c, 0, 53, 64
3, 417600, Note_on_c, 0, 52, 92
3, 417696, Note_off_c, 0, 52, 64
3, 417696, Note_on_c, 0, 50, 92
3, 417792, Note_off_c, 0, 50, 64
3, 417792, Note_on_c, 0, 48, 92
3, 418176, Note_off_c, 0, 48, 64
3, 418944, Note_on_c, 0, 49, 92
3, 419136, Note_off_c, 0, 49, 64
3, 419136, Note_on_c, 0, 52, 92
3, 419328, Note_off_c, 0, 52, 64
3, 419328, Note_on_c, 0, 50, 92
3, 419520, Note_off_c, 0, 50, 64
3, 419520, Note_on_c, 0, 49, 92
3, 419712, Note_off_c, 0, 49, 64
3, 419712, Note_on_c, 0, 47, 92
3, 419904, Note_off_c, 0, 47, 64
3, 419904, Note_on_c, 0, 45, 92
3, 420096, Note_off_c, 0, 45, 64
3, 420096, Note_on_c, 0, 50, 92
3, 420192, Note_off_c, 0, 50, 64
3, 420192, Note_on_c, 0, 62, 92
3, 420288, Note_off_c, 0, 62, 64
3, 420288, Note_on_c, 0, 61, 92
3, 420384, Note_off_c, 0, 61, 64
3, 420384, Note_on_c, 0, 59, 92
3, 420480, Note_off_c, 0, 59, 64
3, 420480, Note_on_c, 0, 57, 92
3, 420576, Note_off_c, 0, 57, 64
3, 420576, Note_on_c, 0, 62, 92
3, 420672, Note_off_c, 0, 62, 64
3, 420672, Note_on_c, 0, 61, 92
3, 420768, Note_off_c, 0, 61, 64
3, 420768, Note_on_c, 0, 59, 92
3, 420864, Note_off_c, 0, 59, 64
3, 420864, Note_on_c, 0, 57, 92
3, 420960, Note_off_c, 0, 57, 64
3, 420960, Note_on_c, 0, 55, 92
3, 421056, Note_off_c, 0, 55, 64
3, 421056, Note_on_c, 0, 54, 92
3, 421152, Note_off_c, 0, 54, 64
3, 421152, Note_on_c, 0, 52, 92
3, 421248, Note_off_c, 0, 52, 64
3, 421248, Note_on_c, 0, 50, 92
3, 421632, Note_off_c, 0, 50, 64
3, 421824, Note_on_c, 0, 50, 92
3, 422016, Note_off_c, 0, 50, 64
3, 422016, Note_on_c, 0, 54, 92
3, 422208, Note_off_c, 0, 54, 64
3, 422208, Note_on_c, 0, 57, 92
3, 422400, Note_off_c, 0, 57, 64
3, 422400, Note_on_c, 0, 38, 92
3, 422784, Note_off_c, 0, 38, 64
3, 422976, Note_on_c, 0, 50, 92
3, 423168, Note_off_c, 0, 50, 64
3, 423168, Note_on_c, 0, 54, 92
3, 423360, Note_off_c, 0, 54, 64
3, 423360, Note_on_c, 0, 57, 92
3, 423552, Note_off_c, 0, 57, 64
3, 423552, Note_on_c, 0, 45, 92
3, 423936, Note_off_c, 0, 45, 64
3, 424128, Note_on_c, 0, 45, 92
3, 424320, Note_off_c, 0, 45, 64
3, 424320, Note_on_c, 0, 52, 92
3, 424512, Note_off_c, 0, 52, 64
3, 424512, Note_on_c, 0, 57, 92
3, 424704, Note_off_c, 0, 57, 64
3, 424704, Note_on_c, 0, 45, 92
3, 425088, Note_off_c, 0, 45, 64
3, 425280, Note_on_c, 0, 45, 92
3, 425472, Note_off_c, 0, 45, 64
3, 425472, Note_on_c, 0, 52, 92
3, 425664, Note_off_c, 0, 52, 64
3, 425664, Note_on_c, 0, 57, 92
3, 425856, Note_off_c, 0, 57, 64
3, 425856, Note_on_c, 0, 45, 92
3, 426240, Note_off_c, 0, 45, 64
3, 426432, Note_on_c, 0, 45, 92
3, 426624, Note_off_c, 0, 45, 64
3, 426624, Note_on_c, 0, 48, 92
3, 426816, Note_off_c, 0, 48, 64
3, 426816, Note_on_c, 0, 52, 92
3, 427008, Note_off_c, 0, 52, 64
3, 427008, Note_on_c, 0, 42, 92
3, 427392, Note_off_c, 0, 42, 64
3, 427584, Note_on_c, 0, 42, 92
3, 427776, Note_off_c, 0, 42, 64
3, 427776, Note_on_c, 0, 45, 92
3, 427968, Note_off_c, 0, 45, 64
3, 427968, Note_on_c, 0, 50, 92
3, 428160, Note_off_c, 0, 50, 64
3, 428160, Note_on_c, 0, 43, 92
3, 428544, Note_off_c, 0, 43, 64
3, 428736, Note_on_c, 0, 43, 92
3, 428928, Note_off_c, 0, 43, 64
3, 428928, Note_on_c, 0, 47, 92
3, 429120, Note_off_c, 0, 47, 64
3, 429120, Note_on_c, 0, 50, 92
3, 429312, Note_off_c, 0, 50, 64
3, 429312, Note_on_c, 0, 47, 92
3, 429504, Note_off_c, 0, 47, 64
3, 429504, Note_on_c, 0, 50, 92
3, 429696, Note_off_c, 0, 50, 64
3, 429696, Note_on_c, 0, 47, 92
3, 429888, Note_off_c, 0, 47, 64
3, 429888, Note_on_c, 0, 43, 92
3, 430080, Note_off_c, 0, 43, 64
3, 430080, Note_on_c, 0, 47, 92
3, 430272, Note_off_c, 0, 47, 64
3, 430272, Note_on_c, 0, 50, 92
3, 430464, Note_off_c, 0, 50, 64
3, 430464, Note_on_c, 0, 55, 92
3, 430848, Note_off_c, 0, 55, 64
3, 430848, Note_on_c, 0, 54, 92
3, 431040, Note_off_c, 0, 54, 64
3, 431040, Note_on_c, 0, 52, 92
3, 431232, Note_off_c, 0, 52, 64
3, 431232, Note_on_c, 0, 50, 92
3, 431424, Note_off_c, 0, 50, 64
3, 431424, Note_on_c, 0, 48, 92
3, 431616, Note_off_c, 0, 48, 64
3, 431616, Note_on_c, 0, 47, 92
3, 431808, Note_off_c, 0, 47, 64
3, 431808, Note_on_c, 0, 52, 92
3, 432000, Note_off_c, 0, 52, 64
3, 432000, Note_on_c, 0, 50, 92
3, 432192, Note_off_c, 0, 50, 64
3, 432192, Note_on_c, 0, 48, 92
3, 432384, Note_off_c, 0, 48, 64
3, 432384, Note_on_c, 0, 47, 92
3, 432576, Note_off_c, 0, 47, 64
3, 432576, Note_on_c, 0, 45, 92
3, 432768, Note_off_c, 0, 45, 64
3, 432768, Note_on_c, 0, 43, 92
3, 432960, Note_off_c, 0, 43, 64
3, 432960, Note_on_c, 0, 45, 92
3, 433152, Note_off_c, 0, 45, 64
3, 433152, Note_on_c, 0, 46, 92
3, 433344, Note_off_c, 0, 46, 64
3, 433344, Note_on_c, 0, 45, 92
3, 433536, Note_off_c, 0, 45, 64
3, 433536, Note_on_c, 0, 43, 92
3, 433728, Note_off_c, 0, 43, 64
3, 433728, Note_on_c, 0, 41, 92
3, 433920, Note_off_c, 0, 41, 64
3, 433920, Note_on_c, 0, 39, 92
3, 434112, Note_off_c, 0, 39, 64
3, 434112, Note_on_c, 0, 41, 92
3, 434304, Note_off_c, 0, 41, 64
3, 434304, Note_on_c, 0, 43, 92
3, 434496, Note_off_c, 0, 43, 64
3, 434496, Note_on_c, 0, 41, 92
3, 434688, Note_off_c, 0, 41, 64
3, 434688, Note_on_c, 0, 39, 92
3, 434880, Note_off_c, 0, 39, 64
3, 434880, Note_on_c, 0, 38, 92
3, 435072, Note_off_c, 0, 38, 64
3, 435072, Note_on_c, 0, 36, 92
3, 435264, Note_off_c, 0, 36, 64
3, 435264, Note_on_c, 0, 39, 92
3, 435456, Note_off_c, 0, 39, 64
3, 435456, Note_on_c, 0, 41, 92
3, 435648, Note_off_c, 0, 41, 64
3, 435648, Note_on_c, 0, 43, 92
3, 435840, Note_off_c, 0, 43, 64
3, 435840, Note_on_c, 0, 45, 92
3, 436032, Note_off_c, 0, 45, 64
3, 436032, Note_on_c, 0, 47, 92
3, 436224, Note_off_c, 0, 47, 64
3, 436224, Note_on_c, 0, 48, 92
3, 436416, Note_off_c, 0, 48, 64
3, 436416, Note_on_c, 0, 47, 92
3, 436608, Note_off_c, 0, 47, 64
3, 436608, Note_on_c, 0, 48, 92
3, 436800, Note_off_c, 0, 48, 64
3, 436800, Note_on_c, 0, 50, 92
3, 436992, Note_off_c, 0, 50, 64
3, 436992, Note_on_c, 0, 51, 92
3, 437184, Note_off_c, 0, 51, 64
3, 437184, Note_on_c, 0, 48, 92
3, 437376, Note_off_c, 0, 48, 64
3, 437376, Note_on_c, 0, 50, 92
3, 437568, Note_off_c, 0, 50, 64
3, 437568, Note_on_c, 0, 38, 92
3, 437760, Note_off_c, 0, 38, 64
3, 437760, Note_on_c, 0, 42, 92
3, 437952, Note_off_c, 0, 42, 64
3, 437952, Note_on_c, 0, 45, 92
3, 438144, Note_off_c, 0, 45, 64
3, 438144, Note_on_c, 0, 50, 92
3, 438336, Note_off_c, 0, 50, 64
3, 438336, Note_on_c, 0, 54, 92
3, 438528, Note_off_c, 0, 54, 64
3, 438528, Note_on_c, 0, 57, 92
3, 438720, Note_off_c, 0, 57, 64
3, 438720, Note_on_c, 0, 54, 92
3, 438912, Note_off_c, 0, 54, 64
3, 438912, Note_on_c, 0, 50, 92
3, 439104, Note_off_c, 0, 50, 64
3, 439104, Note_on_c, 0, 45, 92
3, 439296, Note_off_c, 0, 45, 64
3, 439296, Note_on_c, 0, 42, 92
3, 439488, Note_off_c, 0, 42, 64
3, 439488, Note_on_c, 0, 38, 92
3, 439680, Note_off_c, 0, 38, 64
3, 439680, Note_on_c, 0, 43, 92
3, 439680, Note_on_c, 0, 47, 92
3, 439680, Note_on_c, 0, 50, 92
3, 439680, Note_on_c, 0, 55, 92
3, 440064, Note_off_c, 0, 55, 64
3, 440064, Note_off_c, 0, 50, 64
3, 440064, Note_off_c, 0, 47, 64
3, 440064, Note_off_c, 0, 43, 64
3, 440832, Note_on_c, 0, 67, 92
3, 441024, Note_off_c, 0, 67, 64
3, 441024, Note_on_c, 0, 67, 92
3, 441216, Note_off_c, 0, 67, 64
3, 441216, Note_on_c, 0, 62, 92
3, 441408, Note_off_c, 0, 62, 64
3, 441408, Note_on_c, 0, 62, 92
3, 441600, Note_off_c, 0, 62, 64
3, 441600, Note_on_c, 0, 59, 92
3, 441792, Note_off_c, 0, 59, 64
3, 441792, Note_on_c, 0, 59, 92
3, 441984, Note_off_c, 0, 59, 64
3, 441984, Note_on_c, 0, 60, 92
3, 442176, Note_off_c, 0, 60, 64
3, 442176, Note_on_c, 0, 60, 92
3, 442368, Note_off_c, 0, 60, 64
3, 442368, Note_on_c, 0, 55, 92
3, 442560, Note_off_c, 0, 55, 64
3, 442560, Note_on_c, 0, 55, 92
3, 442752, Note_off_c, 0, 55, 64
3, 442752, Note_on_c, 0, 52, 92
3, 442944, Note_off_c, 0, 52, 64
3, 442944, Note_on_c, 0, 52, 92
3, 443136, Note_off_c, 0, 52, 64
3, 443136, Note_on_c, 0, 48, 92
3, 443520, Note_off_c, 0, 48, 64
3, 443520, Note_on_c, 0, 52, 92
3, 443520, Note_on_c, 0, 48, 92
3, 443904, Note_off_c, 0, 48, 64
3, 443904, Note_off_c, 0, 52, 64
3, 443904, Note_on_c, 0, 55, 92
3, 443904, Note_on_c, 0, 52, 92
3, 443904, Note_on_c, 0, 48, 92
3, 444288, Note_off_c, 0, 48, 64
3, 444288, Note_off_c, 0, 52, 64
3, 444288, Note_off_c, 0, 55, 64
3, 444288, Note_on_c, 0, 57, 92
3, 444672, Note_off_c, 0, 57, 64
3, 444672, Note_on_c, 0, 61, 92
3, 444672, Note_on_c, 0, 57, 92
3, 445056, Note_off_c, 0, 57, 64
3, 445056, Note_off_c, 0, 61, 64
3, 445056, Note_on_c, 0, 64, 92
3, 445056, Note_on_c, 0, 61, 92
3, 445056, Note_on_c, 0, 57, 92
3, 445440, Note_off_c, 0, 57, 64
3, 445440, Note_off_c, 0, 61, 64
3, 445440, Note_off_c, 0, 64, 64
3, 445824, Note_on_c, 0, 64, 92
3, 446016, Note_off_c, 0, 64, 64
3, 446016, Note_on_c, 0, 64, 92
3, 446208, Note_off_c, 0, 64, 64
3, 446208, Note_on_c, 0, 61, 92
3, 446400, Note_off_c, 0, 61, 64
3, 446400, Note_on_c, 0, 61, 92
3, 446592, Note_off_c, 0, 61, 64
3, 446592, Note_on_c, 0, 62, 92
3, 446784, Note_off_c, 0, 62, 64
3, 446784, Note_on_c, 0, 62, 92
3, 446976, Note_off_c, 0, 62, 64
3, 446976, Note_on_c, 0, 57, 92
3, 447168, Note_off_c, 0, 57, 64
3, 447168, Note_on_c, 0, 57, 92
3, 447360, Note_off_c, 0, 57, 64
3, 447360, Note_on_c, 0, 54, 92
3, 447552, Note_off_c, 0, 54, 64
3, 447552, Note_on_c, 0, 54, 92
3, 447744, Note_off_c, 0, 54, 64
3, 447744, Note_on_c, 0, 50, 92
3, 448128, Note_off_c, 0, 50, 64
3, 448128, Note_on_c, 0, 54, 92
3, 448128, Note_on_c, 0, 50, 92
3, 448512, Note_off_c, 0, 50, 64
3, 448512, Note_off_c, 0, 54, 64
3, 448512, Note_on_c, 0, 57, 92
3, 448512, Note_on_c, 0, 54, 92
3, 448512, Note_on_c, 0, 50, 92
3, 448896, Note_off_c, 0, 50, 64
3, 448896, Note_off_c, 0, 54, 64
3, 448896, Note_off_c, 0, 57, 64
3, 448896, Note_on_c, 0, 59, 92
3, 449280, Note_off_c, 0, 59, 64
3, 449280, Note_on_c, 0, 63, 92
3, 449280, Note_on_c, 0, 59, 92
3, 449664, Note_off_c, 0, 59, 64
3, 449664, Note_off_c, 0, 63, 64
3, 449664, Note_on_c, 0, 66, 92
3, 449664, Note_on_c, 0, 63, 92
3, 449664, Note_on_c, 0, 59, 92
3, 450048, Note_off_c, 0, 59, 64
3, 450048, Note_off_c, 0, 63, 64
3, 450048, Note_off_c, 0, 66, 64
3, 450432, Note_on_c, 0, 66, 92
3, 450624, Note_off_c, 0, 66, 64
3, 450624, Note_on_c, 0, 66, 92
3, 450816, Note_off_c, 0, 66, 64
3, 450816, Note_on_c, 0, 63, 92
3, 451008, Note_off_c, 0, 63, 64
3, 451008, Note_on_c, 0, 63, 92
3, 451200, Note_off_c, 0, 63, 64
3, 451200, Note_on_c, 0, 64, 92
3, 451392, Note_off_c, 0, 64, 64
3, 451392, Note_on_c, 0, 64, 92
3, 451584, Note_off_c, 0, 64, 64
3, 451584, Note_on_c, 0, 59, 92
3, 451776, Note_off_c, 0, 59, 64
3, 451776, Note_on_c, 0, 59, 92
3, 451968, Note_off_c, 0, 59, 64
3, 451968, Note_on_c, 0, 55, 92
3, 452160, Note_off_c, 0, 55, 64
3, 452160, Note_on_c, 0, 55, 92
3, 452352, Note_off_c, 0, 55, 64
3, 452352, Note_on_c, 0, 52, 92
3, 452736, Note_off_c, 0, 52, 64
3, 452736, Note_on_c, 0, 55, 92
3, 452736, Note_on_c, 0, 52, 92
3, 453120, Note_off_c, 0, 52, 64
3, 453120, Note_off_c, 0, 55, 64
3, 453120, Note_on_c, 0, 59, 92
3, 453120, Note_on_c, 0, 55, 92
3, 453120, Note_on_c, 0, 52, 92
3, 453504, Note_off_c, 0, 52, 64
3, 453504, Note_off_c, 0, 55, 64
3, 453504, Note_off_c, 0, 59, 64
3, 453504, Note_on_c, 0, 57, 92
3, 453888, Note_off_c, 0, 57, 64
3, 453888, Note_on_c, 0, 64, 92
3, 454080, Note_off_c, 0, 64, 64
3, 454080, Note_on_c, 0, 64, 92
3, 454272, Note_off_c, 0, 64, 64
3, 454272, Note_on_c, 0, 60, 92
3, 454464, Note_off_c, 0, 60, 64
3, 454464, Note_on_c, 0, 60, 92
3, 454656, Note_off_c, 0, 60, 64
3, 454656, Note_on_c, 0, 54, 92
3, 454848, Note_off_c, 0, 54, 64
3, 454848, Note_on_c, 0, 54, 92
3, 455040, Note_off_c, 0, 54, 64
3, 455040, Note_on_c, 0, 63, 92
3, 455232, Note_off_c, 0, 63, 64
3, 455232, Note_on_c, 0, 63, 92
3, 455424, Note_off_c, 0, 63, 64
3, 455424, Note_on_c, 0, 59, 92
3, 455616, Note_off_c, 0, 59, 64
3, 455616, Note_on_c, 0, 59, 92
3, 455808, Note_off_c, 0, 59, 64
3, 455808, Note_on_c, 0, 64, 92
3, 455936, Note_off_c, 0, 64, 64
3, 455936, Note_on_c, 0, 66, 92
3, 456064, Note_off_c, 0, 66, 64
3, 456064, Note_on_c, 0, 67, 92
3, 456192, Note_off_c, 0, 67, 64
3, 456192, Note_on_c, 0, 67, 92
3, 456576, Note_off_c, 0, 67, 64
3, 456576, Note_on_c, 0, 67, 92
3, 456624, Note_off_c, 0, 67, 64
3, 456624, Note_on_c, 0, 66, 92
3, 456672, Note_off_c, 0, 66, 64
3, 456672, Note_on_c, 0, 67, 92
3, 456720, Note_off_c, 0, 67, 64
3, 456720, Note_on_c, 0, 66, 92
3, 456768, Note_off_c, 0, 66, 64
3, 456768, Note_on_c, 0, 67, 92
3, 456816, Note_off_c, 0, 67, 64
3, 456816, Note_on_c, 0, 66, 92
3, 456864, Note_off_c, 0, 66, 64
3, 456864, Note_on_c, 0, 64, 92
3, 456960, Note_off_c, 0, 64, 64
3, 456960, Note_on_c, 0, 66, 92
3, 457088, Note_off_c, 0, 66, 64
3, 457088, Note_on_c, 0, 67, 92
3, 457216, Note_off_c, 0, 67, 64
3, 457216, Note_on_c, 0, 69, 92
3, 457344, Note_off_c, 0, 69, 64
3, 457344, Note_on_c, 0, 69, 92
3, 457728, Note_off_c, 0, 69, 64
3, 457728, Note_on_c, 0, 69, 92
3, 457776, Note_off_c, 0, 69, 64
3, 457776, Note_on_c, 0, 67, 92
3, 457824, Note_off_c, 0, 67, 64
3, 457824, Note_on_c, 0, 69, 92
3, 457872, Note_off_c, 0, 69, 64
3, 457872, Note_on_c, 0, 67, 92
3, 457920, Note_off_c, 0, 67, 64
3, 457920, Note_on_c, 0, 69, 92
3, 457968, Note_off_c, 0, 69, 64
3, 457968, Note_on_c, 0, 67, 92
3, 458016, Note_off_c, 0, 67, 64
3, 458016, Note_on_c, 0, 66, 92
3, 458112, Note_off_c, 0, 66, 64
3, 458112, Note_on_c, 0, 57, 92
3, 458240, Note_off_c, 0, 57, 64
3, 458240, Note_on_c, 0, 59, 92
3, 458368, Note_off_c, 0, 59, 64
3, 458368, Note_on_c, 0, 60, 92
3, 458496, Note_off_c, 0, 60, 64
3, 458496, Note_on_c, 0, 60, 92
3, 458880, Note_off_c, 0, 60, 64
3, 458880, Note_on_c, 0, 60, 92
3, 458928, Note_off_c, 0, 60, 64
3, 458928, Note_on_c, 0, 59, 92
3, 458976, Note_off_c, 0, 59, 64
3, 458976, Note_on_c, 0, 60, 92
3, 459024, Note_off_c, 0, 60, 64
3, 459024, Note_on_c, 0, 59, 92
3, 459072, Note_off_c, 0, 59, 64
3, 459072, Note_on_c, 0, 60, 92
3, 459120, Note_off_c, 0, 60, 64
3, 459120, Note_on_c, 0, 59, 92
3, 459168, Note_off_c, 0, 59, 64
3, 459168, Note_on_c, 0, 57, 92
3, 459264, Note_off_c, 0, 57, 64
3, 459264, Note_on_c, 0, 57, 92
3, 459312, Note_off_c, 0, 57, 64
3, 459312, Note_on_c, 0, 55, 92
3, 459360, Note_off_c, 0, 55, 64
3, 459360, Note_on_c, 0, 57, 92
3, 459408, Note_off_c, 0, 57, 64
3, 459408, Note_on_c, 0, 55, 92
3, 459456, Note_off_c, 0, 55, 64
3, 459456, Note_on_c, 0, 57, 92
3, 459504, Note_off_c, 0, 57, 64
3, 459504, Note_on_c, 0, 55, 92
3, 459552, Note_off_c, 0, 55, 64
3, 459552, Note_on_c, 0, 57, 92
3, 459600, Note_off_c, 0, 57, 64
3, 459600, Note_on_c, 0, 55, 92
3, 459648, Note_off_c, 0, 55, 64
3, 459648, Note_on_c, 0, 57, 92
3, 459696, Note_off_c, 0, 57, 64
3, 459696, Note_on_c, 0, 55, 92
3, 459744, Note_off_c, 0, 55, 64
3, 459744, Note_on_c, 0, 57, 92
3, 459792, Note_off_c, 0, 57, 64
3, 459792, Note_on_c, 0, 55, 92
3, 459840, Note_off_c, 0, 55, 64
3, 459840, Note_on_c, 0, 54, 92
3, 460032, Note_off_c, 0, 54, 64
3, 460032, Note_on_c, 0, 52, 92
3, 460416, Note_off_c, 0, 52, 64
3, 460416, Note_on_c, 0, 64, 92
3, 460544, Note_off_c, 0, 64, 64
3, 460544, Note_on_c, 0, 66, 92
3, 460672, Note_off_c, 0, 66, 64
3, 460672, Note_on_c, 0, 67, 92
3, 460800, Note_off_c, 0, 67, 64
3, 460800, Note_on_c, 0, 64, 92
3, 460928, Note_off_c, 0, 64, 64
3, 460928, Note_on_c, 0, 66, 92
3, 461056, Note_off_c, 0, 66, 64
3, 461056, Note_on_c, 0, 67, 92
3, 461184, Note_off_c, 0, 67, 64
3, 461184, Note_on_c, 0, 64, 92
3, 461312, Note_off_c, 0, 64, 64
3, 461312, Note_on_c, 0, 66, 92
3, 461440, Note_off_c, 0, 66, 64
3, 461440, Note_on_c, 0, 67, 92
3, 461568, Note_off_c, 0, 67, 64
3, 461568, Note_on_c, 0, 57, 92
3, 461696, Note_off_c, 0, 57, 64
3, 461696, Note_on_c, 0, 59, 92
3, 461824, Note_off_c, 0, 59, 64
3, 461824, Note_on_c, 0, 60, 92
3, 461952, Note_off_c, 0, 60, 64
3, 461952, Note_on_c, 0, 57, 92
3, 462080, Note_off_c, 0, 57, 64
3, 462080, Note_on_c, 0, 59, 92
3, 462208, Note_off_c, 0, 59, 64
3, 462208, Note_on_c, 0, 60, 92
3, 462336, Note_off_c, 0, 60, 64
3, 462336, Note_on_c, 0, 57, 92
3, 462464, Note_off_c, 0, 57, 64
3, 462464, Note_on_c, 0, 59, 92
3, 462592, Note_off_c, 0, 59, 64
3, 462592, Note_on_c, 0, 60, 92
3, 462720, Note_off_c, 0, 60, 64
3, 462720, Note_on_c, 0, 66, 92
3, 462848, Note_off_c, 0, 66, 64
3, 462848, Note_on_c, 0, 67, 92
3, 462976, Note_off_c, 0, 67, 64
3, 462976, Note_on_c, 0, 69, 92
3, 463104, Note_off_c, 0, 69, 64
3, 463104, Note_on_c, 0, 66, 92
3, 463232, Note_off_c, 0, 66, 64
3, 463232, Note_on_c, 0, 67, 92
3, 463360, Note_off_c, 0, 67, 64
3, 463360, Note_on_c, 0, 69, 92
3, 463488, Note_off_c, 0, 69, 64
3, 463488, Note_on_c, 0, 66, 92
3, 463616, Note_off_c, 0, 66, 64
3, 463616, Note_on_c, 0, 67, 92
3, 463744, Note_off_c, 0, 67, 64
3, 463744, Note_on_c, 0, 69, 92
3, 463872, Note_off_c, 0, 69, 64
3, 463872, Note_on_c, 0, 59, 92
3, 464000, Note_off_c, 0, 59, 64
3, 464000, Note_on_c, 0, 61, 92
3, 464128, Note_off_c, 0, 61, 64
3, 464128, Note_on_c, 0, 63, 92
3, 464256, Note_off_c, 0, 63, 64
3, 464256, Note_on_c, 0, 59, 92
3, 464384, Note_off_c, 0, 59, 64
3, 464384, Note_on_c, 0, 61, 92
3, 464512, Note_off_c, 0, 61, 64
3, 464512, Note_on_c, 0, 63, 92
3, 464640, Note_off_c, 0, 63, 64
3, 464640, Note_on_c, 0, 59, 92
3, 464768, Note_off_c, 0, 59, 64
3, 464768, Note_on_c, 0, 61, 92
3, 464896, Note_off_c, 0, 61, 64
3, 464896, Note_on_c, 0, 63, 92
3, 465024, Note_off_c, 0, 63, 64
3, 465024, Note_on_c, 0, 67, 92
3, 465152, Note_off_c, 0, 67, 64
3, 465152, Note_on_c, 0, 69, 92
3, 465280, Note_off_c, 0, 69, 64
3, 465280, Note_on_c, 0, 71, 92
3, 465408, Note_off_c, 0, 71, 64
3, 465408, Note_on_c, 0, 67, 92
3, 465536, Note_off_c, 0, 67, 64
3, 465536, Note_on_c, 0, 69, 92
3, 465664, Note_off_c, 0, 69, 64
3, 465664, Note_on_c, 0, 71, 92
3, 465792, Note_off_c, 0, 71, 64
3, 465792, Note_on_c, 0, 67, 92
3, 465920, Note_off_c, 0, 67, 64
3, 465920, Note_on_c, 0, 69, 92
3, 466048, Note_off_c, 0, 69, 64
3, 466048, Note_on_c, 0, 71, 92
3, 466176, Note_off_c, 0, 71, 64
3, 466176, Note_on_c, 0, 60, 92
3, 466304, Note_off_c, 0, 60, 64
3, 466304, Note_on_c, 0, 62, 92
3, 466432, Note_off_c, 0, 62, 64
3, 466432, Note_on_c, 0, 64, 92
3, 466560, Note_off_c, 0, 64, 64
3, 466560, Note_on_c, 0, 60, 92
3, 466688, Note_off_c, 0, 60, 64
3, 466688, Note_on_c, 0, 62, 92
3, 466816, Note_off_c, 0, 62, 64
3, 466816, Note_on_c, 0, 64, 92
3, 466944, Note_off_c, 0, 64, 64
3, 466944, Note_on_c, 0, 60, 92
3, 467072, Note_off_c, 0, 60, 64
3, 467072, Note_on_c, 0, 62, 92
3, 467200, Note_off_c, 0, 62, 64
3, 467200, Note_on_c, 0, 64, 92
3, 467328, Note_off_c, 0, 64, 64
3, 467328, Note_on_c, 0, 69, 92
3, 467456, Note_off_c, 0, 69, 64
3, 467456, Note_on_c, 0, 71, 92
3, 467584, Note_off_c, 0, 71, 64
3, 467584, Note_on_c, 0, 72, 92
3, 467712, Note_off_c, 0, 72, 64
3, 467712, Note_on_c, 0, 69, 92
3, 467840, Note_off_c, 0, 69, 64
3, 467840, Note_on_c, 0, 71, 92
3, 467968, Note_off_c, 0, 71, 64
3, 467968, Note_on_c, 0, 72, 92
3, 468096, Note_off_c, 0, 72, 64
3, 468096, Note_on_c, 0, 69, 92
3, 468224, Note_off_c, 0, 69, 64
3, 468224, Note_on_c, 0, 71, 92
3, 468352, Note_off_c, 0, 71, 64
3, 468352, Note_on_c, 0, 72, 92
3, 468480, Note_off_c, 0, 72, 64
3, 468480, Note_on_c, 0, 62, 92
3, 468608, Note_off_c, 0, 62, 64
3, 468608, Note_on_c, 0, 64, 92
3, 468736, Note_off_c, 0, 64, 64
3, 468736, Note_on_c, 0, 66, 92
3, 468864, Note_off_c, 0, 66, 64
3, 468864, Note_on_c, 0, 62, 92
3, 468992, Note_off_c, 0, 62, 64
3, 468992, Note_on_c, 0, 64, 92
3, 469120, Note_off_c, 0, 64, 64
3, 469120, Note_on_c, 0, 66, 92
3, 469248, Note_off_c, 0, 66, 64
3, 469248, Note_on_c, 0, 62, 92
3, 469376, Note_off_c, 0, 62, 64
3, 469376, Note_on_c, 0, 64, 92
3, 469504, Note_off_c, 0, 64, 64
3, 469504, Note_on_c, 0, 66, 92
3, 469632, Note_off_c, 0, 66, 64
3, 469632, Note_on_c, 0, 71, 92
3, 469760, Note_off_c, 0, 71, 64
3, 469760, Note_on_c, 0, 72, 92
3, 469888, Note_off_c, 0, 72, 64
3, 469888, Note_on_c, 0, 74, 92
3, 470016, Note_off_c, 0, 74, 64
3, 470016, Note_on_c, 0, 71, 92
3, 470144, Note_off_c, 0, 71, 64
3, 470144, Note_on_c, 0, 72, 92
3, 470272, Note_off_c, 0, 72, 64
3, 470272, Note_on_c, 0, 74, 92
3, 470400, Note_off_c, 0, 74, 64
3, 470400, Note_on_c, 0, 71, 92
3, 470528, Note_off_c, 0, 71, 64
3, 470528, Note_on_c, 0, 72, 92
3, 470656, Note_off_c, 0, 72, 64
3, 470656, Note_on_c, 0, 74, 92
3, 470784, Note_off_c, 0, 74, 64
3, 470784, Note_on_c, 0, 72, 92
3, 470912, Note_off_c, 0, 72, 64
3, 470912, Note_on_c, 0, 74, 92
3, 471040, Note_off_c, 0, 74, 64
3, 471040, Note_on_c, 0, 76, 92
3, 471168, Note_off_c, 0, 76, 64
3, 471168, Note_on_c, 0, 72, 92
3, 471296, Note_off_c, 0, 72, 64
3, 471296, Note_on_c, 0, 74, 92
3, 471424, Note_off_c, 0, 74, 64
3, 471424, Note_on_c, 0, 76, 92
3, 471552, Note_off_c, 0, 76, 64
3, 471552, Note_on_c, 0, 72, 92
3, 471680, Note_off_c, 0, 72, 64
3, 471680, Note_on_c, 0, 74, 92
3, 471808, Note_off_c, 0, 74, 64
3, 471808, Note_on_c, 0, 76, 92
3, 471936, Note_off_c, 0, 76, 64
3, 471936, Note_on_c, 0, 74, 92
3, 472064, Note_off_c, 0, 74, 64
3, 472064, Note_on_c, 0, 76, 92
3, 472192, Note_off_c, 0, 76, 64
3, 472192, Note_on_c, 0, 78, 92
3, 472320, Note_off_c, 0, 78, 64
3, 472320, Note_on_c, 0, 74, 92
3, 472448, Note_off_c, 0, 74, 64
3, 472448, Note_on_c, 0, 76, 92
3, 472576, Note_off_c, 0, 76, 64
3, 472576, Note_on_c, 0, 78, 92
3, 472704, Note_off_c, 0, 78, 64
3, 472704, Note_on_c, 0, 74, 92
3, 472832, Note_off_c, 0, 74, 64
3, 472832, Note_on_c, 0, 76, 92
3, 472960, Note_off_c, 0, 76, 64
3, 472960, Note_on_c, 0, 78, 92
3, 473088, Note_off_c, 0, 78, 64
3, 473088, Note_on_c, 0, 79, 92
3, 473280, Note_off_c, 0, 79, 64
3, 474624, Note_on_c, 0, 55, 92
3, 474720, Note_off_c, 0, 55, 64
3, 474720, Note_on_c, 0, 62, 92
3, 474816, Note_off_c, 0, 62, 64
3, 474816, Note_on_c, 0, 55, 92
3, 474912, Note_off_c, 0, 55, 64
3, 474912, Note_on_c, 0, 62, 92
3, 475008, Note_off_c, 0, 62, 64
3, 475008, Note_on_c, 0, 54, 92
3, 475104, Note_off_c, 0, 54, 64
3, 475104, Note_on_c, 0, 62, 92
3, 475200, Note_off_c, 0, 62, 64
3, 475200, Note_on_c, 0, 54, 92
3, 475296, Note_off_c, 0, 54, 64
3, 475296, Note_on_c, 0, 62, 92
3, 475392, Note_off_c, 0, 62, 64
3, 475392, Note_on_c, 0, 52, 92
3, 475488, Note_off_c, 0, 52, 64
3, 475488, Note_on_c, 0, 62, 92
3, 475584, Note_off_c, 0, 62, 64
3, 475584, Note_on_c, 0, 54, 92
3, 475680, Note_off_c, 0, 54, 64
3, 475680, Note_on_c, 0, 62, 92
3, 475776, Note_off_c, 0, 62, 64
3, 475776, Note_on_c, 0, 55, 92
3, 475872, Note_off_c, 0, 55, 64
3, 475872, Note_on_c, 0, 62, 92
3, 475968, Note_off_c, 0, 62, 64
3, 475968, Note_on_c, 0, 54, 92
3, 476064, Note_off_c, 0, 54, 64
3, 476064, Note_on_c, 0, 62, 92
3, 476160, Note_off_c, 0, 62, 64
3, 476160, Note_on_c, 0, 55, 92
3, 476256, Note_off_c, 0, 55, 64
3, 476256, Note_on_c, 0, 62, 92
3, 476352, Note_off_c, 0, 62, 64
3, 476352, Note_on_c, 0, 52, 92
3, 476448, Note_off_c, 0, 52, 64
3, 476448, Note_on_c, 0, 62, 92
3, 476544, Note_off_c, 0, 62, 64
3, 476544, Note_on_c, 0, 54, 92
3, 476736, Note_off_c, 0, 54, 64
3, 476928, Note_on_c, 0, 54, 92
3, 477024, Note_off_c, 0, 54, 64
3, 477024, Note_on_c, 0, 62, 92
3, 477120, Note_off_c, 0, 62, 64
3, 477120, Note_on_c, 0, 54, 92
3, 477216, Note_off_c, 0, 54, 64
3, 477216, Note_on_c, 0, 62, 92
3, 477312, Note_off_c, 0, 62, 64
3, 477312, Note_on_c, 0, 52, 92
3, 477408, Note_off_c, 0, 52, 64
3, 477408, Note_on_c, 0, 62, 92
3, 477504, Note_off_c, 0, 62, 64
3, 477504, Note_on_c, 0, 52, 92
3, 477600, Note_off_c, 0, 52, 64
3, 477600, Note_on_c, 0, 62, 92
3, 477696, Note_off_c, 0, 62, 64
3, 477696, Note_on_c, 0, 50, 92
3, 477792, Note_off_c, 0, 50, 64
3, 477792, Note_on_c, 0, 62, 92
3, 477888, Note_off_c, 0, 62, 64
3, 477888, Note_on_c, 0, 52, 92
3, 477984, Note_off_c, 0, 52, 64
3, 477984, Note_on_c, 0, 62, 92
3, 478080, Note_off_c, 0, 62, 64
3, 478080, Note_on_c, 0, 54, 92
3, 478176, Note_off_c, 0, 54, 64
3, 478176, Note_on_c, 0, 62, 92
3, 478272, Note_off_c, 0, 62, 64
3, 478272, Note_on_c, 0, 52, 92
3, 478368, Note_off_c, 0, 52, 64
3, 478368, Note_on_c, 0, 62, 92
3, 478464, Note_off_c, 0, 62, 64
3, 478464, Note_on_c, 0, 54, 92
3, 478560, Note_off_c, 0, 54, 64
3, 478560, Note_on_c, 0, 62, 92
3, 478656, Note_off_c, 0, 62, 64
3, 478656, Note_on_c, 0, 50, 92
3, 478752, Note_off_c, 0, 50, 64
3, 478752, Note_on_c, 0, 62, 92
3, 478848, Note_off_c, 0, 62, 64
3, 478848, Note_on_c, 0, 52, 92
3, 479040, Note_off_c, 0, 52, 64
3, 479232, Note_on_c, 0, 52, 92
3, 479328, Note_off_c, 0, 52, 64
3, 479328, Note_on_c, 0, 62, 92
3, 479424, Note_off_c, 0, 62, 64
3, 479424, Note_on_c, 0, 52, 92
3, 479520, Note_off_c, 0, 52, 64
3, 479520, Note_on_c, 0, 62, 92
3, 479616, Note_off_c, 0, 62, 64
3, 479616, Note_on_c, 0, 50, 92
3, 479712, Note_off_c, 0, 50, 64
3, 479712, Note_on_c, 0, 62, 92
3, 479808, Note_off_c, 0, 62, 64
3, 479808, Note_on_c, 0, 50, 92
3, 479904, Note_off_c, 0, 50, 64
3, 479904, Note_on_c, 0, 62, 92
3, 480000, Note_off_c, 0, 62, 64
3, 480000, Note_on_c, 0, 48, 92
3, 480096, Note_off_c, 0, 48, 64
3, 480096, Note_on_c, 0, 62, 92
3, 480192, Note_off_c, 0, 62, 64
3, 480192, Note_on_c, 0, 50, 92
3, 480288, Note_off_c, 0, 50, 64
3, 480288, Note_on_c, 0, 62, 92
3, 480384, Note_off_c, 0, 62, 64
3, 480384, Note_on_c, 0, 52, 92
3, 480480, Note_off_c, 0, 52, 64
3, 480480, Note_on_c, 0, 62, 92
3, 480576, Note_off_c, 0, 62, 64
3, 480576, Note_on_c, 0, 50, 92
3, 480672, Note_off_c, 0, 50, 64
3, 480672, Note_on_c, 0, 62, 92
3, 480768, Note_off_c, 0, 62, 64
3, 480768, Note_on_c, 0, 52, 92
3, 480864, Note_off_c, 0, 52, 64
3, 480864, Note_on_c, 0, 62, 92
3, 480960, Note_off_c, 0, 62, 64
3, 480960, Note_on_c, 0, 48, 92
3, 481056, Note_off_c, 0, 48, 64
3, 481056, Note_on_c, 0, 62, 92
3, 481152, Note_off_c, 0, 62, 64
3, 481152, Note_on_c, 0, 50, 92
3, 481344, Note_off_c, 0, 50, 64
3, 481536, Note_on_c, 0, 50, 92
3, 481632, Note_off_c, 0, 50, 64
3, 481632, Note_on_c, 0, 62, 92
3, 481728, Note_off_c, 0, 62, 64
3, 481728, Note_on_c, 0, 50, 92
3, 481824, Note_off_c, 0, 50, 64
3, 481824, Note_on_c, 0, 62, 92
3, 481920, Note_off_c, 0, 62, 64
3, 481920, Note_on_c, 0, 48, 92
3, 482016, Note_off_c, 0, 48, 64
3, 482016, Note_on_c, 0, 62, 92
3, 482112, Note_off_c, 0, 62, 64
3, 482112, Note_on_c, 0, 48, 92
3, 482208, Note_off_c, 0, 48, 64
3, 482208, Note_on_c, 0, 62, 92
3, 482304, Note_off_c, 0, 62, 64
3, 482304, Note_on_c, 0, 47, 92
3, 482400, Note_off_c, 0, 47, 64
3, 482400, Note_on_c, 0, 62, 92
3, 482496, Note_off_c, 0, 62, 64
3, 482496, Note_on_c, 0, 48, 92
3, 482592, Note_off_c, 0, 48, 64
3, 482592, Note_on_c, 0, 62, 92
3, 482688, Note_off_c, 0, 62, 64
3, 482688, Note_on_c, 0, 50, 92
3, 482784, Note_off_c, 0, 50, 64
3, 482784, Note_on_c, 0, 62, 92
3, 482880, Note_off_c, 0, 62, 64
3, 482880, Note_on_c, 0, 48, 92
3, 482976, Note_off_c, 0, 48, 64
3, 482976, Note_on_c, 0, 62, 92
3, 483072, Note_off_c, 0, 62, 64
3, 483072, Note_on_c, 0, 50, 92
3, 483168, Note_off_c, 0, 50, 64
3, 483168, Note_on_c, 0, 62, 92
3, 483264, Note_off_c, 0, 62, 64
3, 483264, Note_on_c, 0, 47, 92
3, 483360, Note_off_c, 0, 47, 64
3, 483360, Note_on_c, 0, 62, 92
3, 483456, Note_off_c, 0, 62, 64
3, 483456, Note_on_c, 0, 48, 92
3, 483648, Note_off_c, 0, 48, 64
3, 483840, Note_on_c, 0, 48, 92
3, 484032, Note_off_c, 0, 48, 64
3, 484032, Note_on_c, 0, 48, 92
3, 484224, Note_off_c, 0, 48, 64
3, 484224, Note_on_c, 0, 47, 92
3, 484416, Note_off_c, 0, 47, 64
3, 484416, Note_on_c, 0, 47, 92
3, 484608, Note_off_c, 0, 47, 64
3, 484608, Note_on_c, 0, 48, 92
3, 484992, Note_off_c, 0, 48, 64
3, 485376, Note_on_c, 0, 48, 92
3, 485760, Note_off_c, 0, 48, 64
3, 485760, Note_on_c, 0, 55, 92
3, 486144, Note_off_c, 0, 55, 64
3, 486528, Note_on_c, 0, 55, 92
3, 486912, Note_off_c, 0, 55, 64
3, 486912, Note_on_c, 0, 48, 92
3, 487296, Note_off_c, 0, 48, 64
3, 487680, Note_on_c, 0, 48, 92
3, 488064, Note_off_c, 0, 48, 64
3, 488064, Note_on_c, 0, 55, 92
3, 488448, Note_off_c, 0, 55, 64
3, 489312, Note_on_c, 0, 57, 92
3, 489408, Note_off_c, 0, 57, 64
3, 489408, Note_on_c, 0, 55, 92
3, 489504, Note_off_c, 0, 55, 64
3, 489504, Note_on_c, 0, 53, 92
3, 489600, Note_off_c, 0, 53, 64
3, 489600, Note_on_c, 0, 52, 92
3, 489696, Note_off_c, 0, 52, 64
3, 489696, Note_on_c, 0, 55, 92
3, 489792, Note_off_c, 0, 55, 64
3, 489792, Note_on_c, 0, 53, 92
3, 489888, Note_off_c, 0, 53, 64
3, 489888, Note_on_c, 0, 55, 92
3, 489984, Note_off_c, 0, 55, 64
3, 489984, Note_on_c, 0, 48, 92
3, 490080, Note_off_c, 0, 48, 64
3, 490080, Note_on_c, 0, 52, 92
3, 490176, Note_off_c, 0, 52, 64
3, 490176, Note_on_c, 0, 50, 92
3, 490272, Note_off_c, 0, 50, 64
3, 490272, Note_on_c, 0, 52, 92
3, 490368, Note_off_c, 0, 52, 64
3, 490368, Note_on_c, 0, 41, 92
3, 490752, Note_off_c, 0, 41, 64
3, 491616, Note_on_c, 0, 59, 92
3, 491712, Note_off_c, 0, 59, 64
3, 491712, Note_on_c, 0, 57, 92
3, 491808, Note_off_c, 0, 57, 64
3, 491808, Note_on_c, 0, 55, 92
3, 491904, Note_off_c, 0, 55, 64
3, 491904, Note_on_c, 0, 54, 92
3, 492000, Note_off_c, 0, 54, 64
3, 492000, Note_on_c, 0, 57, 92
3, 492096, Note_off_c, 0, 57, 64
3, 492096, Note_on_c, 0, 55, 92
3, 492192, Note_off_c, 0, 55, 64
3, 492192, Note_on_c, 0, 57, 92
3, 492288, Note_off_c, 0, 57, 64
3, 492288, Note_on_c, 0, 50, 92
3, 492384, Note_off_c, 0, 50, 64
3, 492384, Note_on_c, 0, 54, 92
3, 492480, Note_off_c, 0, 54, 64
3, 492480, Note_on_c, 0, 52, 92
3, 492576, Note_off_c, 0, 52, 64
3, 492576, Note_on_c, 0, 54, 92
3, 492672, Note_off_c, 0, 54, 64
3, 492672, Note_on_c, 0, 43, 92
3, 493056, Note_off_c, 0, 43, 64
3, 494016, Note_on_c, 0, 51, 92
3, 494208, Note_off_c, 0, 51, 64
3, 494208, Note_on_c, 0, 53, 92
3, 494400, Note_off_c, 0, 53, 64
3, 494400, Note_on_c, 0, 55, 92
3, 494592, Note_off_c, 0, 55, 64
3, 494592, Note_on_c, 0, 56, 92
3, 494784, Note_off_c, 0, 56, 64
3, 494784, Note_on_c, 0, 57, 92
3, 494976, Note_off_c, 0, 57, 64
3, 494976, Note_on_c, 0, 59, 92
3, 495360, Note_off_c, 0, 59, 64
3, 496320, Note_on_c, 0, 60, 92
3, 496512, Note_off_c, 0, 60, 64
3, 496512, Note_on_c, 0, 59, 92
3, 496704, Note_off_c, 0, 59, 64
3, 496704, Note_on_c, 0, 57, 92
3, 496896, Note_off_c, 0, 57, 64
3, 496896, Note_on_c, 0, 55, 92
3, 497088, Note_off_c, 0, 55, 64
3, 497088, Note_on_c, 0, 53, 92
3, 497280, Note_off_c, 0, 53, 64
3, 497280, Note_on_c, 0, 51, 92
3, 497472, Note_off_c, 0, 51, 64
3, 497472, Note_on_c, 0, 50, 92
3, 497664, Note_off_c, 0, 50, 64
3, 497664, Note_on_c, 0, 48, 92
3, 497856, Note_off_c, 0, 48, 64
3, 497856, Note_on_c, 0, 47, 92
3, 498048, Note_off_c, 0, 47, 64
3, 498048, Note_on_c, 0, 45, 92
3, 498240, Note_off_c, 0, 45, 64
3, 498240, Note_on_c, 0, 43, 92
3, 498432, Note_off_c, 0, 43, 64
3, 498432, Note_on_c, 0, 48, 92
3, 498624, Note_off_c, 0, 48, 64
3, 498624, Note_on_c, 0, 62, 92
3, 498624, Note_on_c, 0, 53, 92
3, 498720, Note_off_c, 0, 62, 64
3, 498720, Note_on_c, 0, 60, 92
3, 498816, Note_off_c, 0, 60, 64
3, 498816, Note_off_c, 0, 53, 64
3, 498816, Note_on_c, 0, 59, 92
3, 498816, Note_on_c, 0, 55, 92
3, 499008, Note_off_c, 0, 55, 64
3, 499008, Note_on_c, 0, 53, 92
3, 499200, Note_off_c, 0, 53, 64
3, 499200, Note_on_c, 0, 55, 92
3, 499392, Note_off_c, 0, 55, 64
3, 499392, Note_off_c, 0, 59, 64
3, 499392, Note_on_c, 0, 60, 92
3, 499392, Note_on_c, 0, 43, 92
3, 499584, Note_off_c, 0, 43, 64
3, 499584, Note_off_c, 0, 60, 64
3, 499584, Note_on_c, 0, 48, 92
3, 499584, Note_on_c, 0, 60, 92
3, 499968, Note_off_c, 0, 60, 64
3, 499968, Note_off_c, 0, 48, 64
3, 500736, Note_on_c, 0, 60, 92
3, 500928, Note_off_c, 0, 60, 64
3, 500928, Note_on_c, 0, 60, 92
3, 501120, Note_off_c, 0, 60, 64
3, 501120, Note_on_c, 0, 55, 92
3, 501312, Note_off_c, 0, 55, 64
3, 501312, Note_on_c, 0, 55, 92
3, 501504, Note_off_c, 0, 55, 64
3, 501504, Note_on_c, 0, 52, 92
3, 501696, Note_off_c, 0, 52, 64
3, 501696, Note_on_c, 0, 52, 92
3, 501888, Note_off_c, 0, 52, 64
3, 501888, Note_on_c, 0, 55, 92
3, 502272, Note_off_c, 0, 55, 64
3, 502272, Note_on_c, 0, 60, 92
3, 502272, Note_on_c, 0, 55, 92
3, 502656, Note_off_c, 0, 55, 64
3, 502656, Note_off_c, 0, 60, 64
3, 502656, Note_on_c, 0, 64, 92
3, 502656, Note_on_c, 0, 60, 92
3, 502656, Note_on_c, 0, 55, 92
3, 503040, Note_off_c, 0, 55, 64
3, 503040, Note_off_c, 0, 60, 64
3, 503040, Note_off_c, 0, 64, 64
3, 503040, Note_on_c, 0, 67, 92
3, 503232, Note_off_c, 0, 67, 64
3, 503232, Note_on_c, 0, 67, 92
3, 503424, Note_off_c, 0, 67, 64
3, 503424, Note_on_c, 0, 62, 92
3, 503616, Note_off_c, 0, 62, 64
3, 503616, Note_on_c, 0, 62, 92
3, 503808, Note_off_c, 0, 62, 64
3, 503808, Note_on_c, 0, 59, 92
3, 504000, Note_off_c, 0, 59, 64
3, 504000, Note_on_c, 0, 59, 92
3, 504192, Note_off_c, 0, 59, 64
3, 504192, Note_on_c, 0, 55, 92
3, 504576, Note_off_c, 0, 55, 64
3, 504576, Note_on_c, 0, 59, 92
3, 504576, Note_on_c, 0, 55, 92
3, 504960, Note_off_c, 0, 55, 64
3, 504960, Note_off_c, 0, 59, 64
3, 504960, Note_on_c, 0, 62, 92
3, 504960, Note_on_c, 0, 59, 92
3, 504960, Note_on_c, 0, 55, 92
3, 505344, Note_off_c, 0, 55, 64
3, 505344, Note_off_c, 0, 59, 64
3, 505344, Note_off_c, 0, 62, 64
3, 505344, Note_on_c, 0, 67, 92
3, 505536, Note_off_c, 0, 67, 64
3, 505536, Note_on_c, 0, 67, 92
3, 505728, Note_off_c, 0, 67, 64
3, 505728, Note_on_c, 0, 62, 92
3, 505920, Note_off_c, 0, 62, 64
3, 505920, Note_on_c, 0, 62, 92
3, 506112, Note_off_c, 0, 62, 64
3, 506112, Note_on_c, 0, 59, 92
3, 506304, Note_off_c, 0, 59, 64
3, 506304, Note_on_c, 0, 59, 92
3, 506496, Note_off_c, 0, 59, 64
3, 506496, Note_on_c, 0, 55, 92
3, 506880, Note_off_c, 0, 55, 64
3, 506880, Note_on_c, 0, 59, 92
3, 506880, Note_on_c, 0, 55, 92
3, 507264, Note_off_c, 0, 55, 64
3, 507264, Note_off_c, 0, 59, 64
3, 507264, Note_on_c, 0, 62, 92
3, 507264, Note_on_c, 0, 59, 92
3, 507264, Note_on_c, 0, 55, 92
3, 507648, Note_off_c, 0, 55, 64
3, 507648, Note_off_c, 0, 59, 64
3, 507648, Note_off_c, 0, 62, 64
3, 507648, Note_on_c, 0, 65, 92
3, 507840, Note_off_c, 0, 65, 64
3, 507840, Note_on_c, 0, 65, 92
3, 508032, Note_off_c, 0, 65, 64
3, 508032, Note_on_c, 0, 62, 92
3, 508224, Note_off_c, 0, 62, 64
3, 508224, Note_on_c, 0, 62, 92
3, 508416, Note_off_c, 0, 62, 64
3, 508416, Note_on_c, 0, 59, 92
3, 508608, Note_off_c, 0, 59, 64
3, 508608, Note_on_c, 0, 59, 92
3, 508800, Note_off_c, 0, 59, 64
3, 508800, Note_on_c, 0, 60, 92
3, 508992, Note_off_c, 0, 60, 64
3, 508992, Note_on_c, 0, 60, 92
3, 509184, Note_off_c, 0, 60, 64
3, 509184, Note_on_c, 0, 55, 92
3, 509376, Note_off_c, 0, 55, 64
3, 509376, Note_on_c, 0, 55, 92
3, 509568, Note_off_c, 0, 55, 64
3, 509568, Note_on_c, 0, 52, 92
3, 509760, Note_off_c, 0, 52, 64
3, 509760, Note_on_c, 0, 52, 92
3, 509952, Note_off_c, 0, 52, 64
3, 509952, Note_on_c, 0, 57, 92
3, 510144, Note_off_c, 0, 57, 64
3, 510144, Note_on_c, 0, 57, 92
3, 510336, Note_off_c, 0, 57, 64
3, 510336, Note_on_c, 0, 53, 92
3, 510528, Note_off_c, 0, 53, 64
3, 510528, Note_on_c, 0, 53, 92
3, 510720, Note_off_c, 0, 53, 64
3, 510720, Note_on_c, 0, 50, 92
3, 510912, Note_off_c, 0, 50, 64
3, 510912, Note_on_c, 0, 50, 92
3, 511104, Note_off_c, 0, 50, 64
3, 511104, Note_on_c, 0, 53, 92
3, 511296, Note_off_c, 0, 53, 64
3, 511296, Note_on_c, 0, 53, 92
3, 511488, Note_off_c, 0, 53, 64
3, 511488, Note_on_c, 0, 50, 92
3, 511680, Note_off_c, 0, 50, 64
3, 511680, Note_on_c, 0, 50, 92
3, 511872, Note_off_c, 0, 50, 64
3, 511872, Note_on_c, 0, 47, 92
3, 512064, Note_off_c, 0, 47, 64
3, 512064, Note_on_c, 0, 47, 92
3, 512256, Note_off_c, 0, 47, 64
3, 512256, Note_on_c, 0, 43, 92
3, 512640, Note_off_c, 0, 43, 64
3, 513024, Note_on_c, 0, 55, 92
3, 513120, Note_off_c, 0, 55, 64
3, 513120, Note_on_c, 0, 53, 92
3, 513216, Note_off_c, 0, 53, 64
3, 513216, Note_on_c, 0, 52, 92
3, 513312, Note_off_c, 0, 52, 64
3, 513312, Note_on_c, 0, 50, 92
3, 513408, Note_off_c, 0, 50, 64
3, 513408, Note_on_c, 0, 48, 92
3, 513408, Note_on_c, 0, 55, 92
3, 513408, Note_on_c, 0, 60, 92
3, 513792, Note_off_c, 0, 60, 64
3, 513792, Note_off_c, 0, 55, 64
3, 513792, Note_off_c, 0, 48, 64
3, 513792, Note_on_c, 0, 55, 92
3, 513792, Note_on_c, 0, 59, 92
3, 513792, Note_on_c, 0, 62, 92
3, 514176, Note_off_c, 0, 62, 64
3, 514176, Note_off_c, 0, 59, 64
3, 514176, Note_off_c, 0, 55, 64
3, 514176, Note_on_c, 0, 65, 92
3, 514176, Note_on_c, 0, 55, 92
3, 514176, Note_on_c, 0, 62, 92
3, 514560, Note_off_c, 0, 62, 64
3, 514560, Note_off_c, 0, 55, 64
3, 514560, Note_off_c, 0, 65, 64
3, 514560, Note_on_c, 0, 64, 92
3, 514560, Note_on_c, 0, 60, 92
3, 514560, Note_on_c, 0, 55, 92
3, 514752, Note_off_c, 0, 60, 64
3, 514752, Note_on_c, 0, 60, 92
3, 514944, Note_off_c, 0, 60, 64
3, 514944, Note_off_c, 0, 55, 64
3, 514944, Note_off_c, 0, 64, 64
3, 514944, Note_on_c, 0, 55, 92
3, 515136, Note_off_c, 0, 55, 64
3, 515136, Note_on_c, 0, 55, 92
3, 515328, Note_off_c, 0, 55, 64
3, 515328, Note_on_c, 0, 52, 92
3, 515520, Note_off_c, 0, 52, 64
3, 515520, Note_on_c, 0, 52, 92
3, 515712, Note_off_c, 0, 52, 64
3, 515712, Note_on_c, 0, 48, 92
3, 515712, Note_on_c, 0, 52, 92
3, 515712, Note_on_c, 0, 55, 92
3, 516096, Note_off_c, 0, 55, 64
3, 516096, Note_off_c, 0, 52, 64
3, 516096, Note_off_c, 0, 48, 64
3, 516096, Note_on_c, 0, 50, 92
3, 516096, Note_on_c, 0, 47, 92
3, 516096, Note_on_c, 0, 55, 92
3, 516480, Note_off_c, 0, 55, 64
3, 516480, Note_off_c, 0, 47, 64
3, 516480, Note_off_c, 0, 50, 64
3, 516480, Note_on_c, 0, 50, 92
3, 516480, Note_on_c, 0, 53, 92
3, 516480, Note_on_c, 0, 55, 92
3, 516864, Note_off_c, 0, 55, 64
3, 516864, Note_off_c, 0, 53, 64
3, 516864, Note_off_c, 0, 50, 64
3, 516864, Note_on_c, 0, 48, 92
3, 516864, Note_on_c, 0, 52, 92
3, 516864, Note_on_c, 0, 55, 92
3, 517248, Note_off_c, 0, 55, 64
3, 517248, Note_off_c, 0, 52, 64
3, 517248, Note_off_c, 0, 48, 64
3, 518112, Note_on_c, 0, 48, 92
3, 518208, Note_off_c, 0, 48, 64
3, 518208, Note_on_c, 0, 50, 92
3, 518304, Note_off_c, 0, 50, 64
3, 518304, Note_on_c, 0, 52, 92
3, 518400, Note_off_c, 0, 52, 64
3, 518400, Note_on_c, 0, 53, 92
3, 518496, Note_off_c, 0, 53, 64
3, 518496, Note_on_c, 0, 55, 92
3, 518592, Note_off_c, 0, 55, 64
3, 518592, Note_on_c, 0, 57, 92
3, 518688, Note_off_c, 0, 57, 64
3, 518688, Note_on_c, 0, 59, 92
3, 518784, Note_off_c, 0, 59, 64
3, 518784, Note_on_c, 0, 60, 92
3, 518880, Note_off_c, 0, 60, 64
3, 518880, Note_on_c, 0, 55, 92
3, 518976, Note_off_c, 0, 55, 64
3, 518976, Note_on_c, 0, 57, 92
3, 519072, Note_off_c, 0, 57, 64
3, 519072, Note_on_c, 0, 59, 92
3, 519168, Note_off_c, 0, 59, 64
3, 522912, Note_on_c, 0, 55, 92
3, 523008, Note_off_c, 0, 55, 64
3, 523008, Note_on_c, 0, 60, 92
3, 523104, Note_off_c, 0, 60, 64
3, 523104, Note_on_c, 0, 52, 92
3, 523200, Note_off_c, 0, 52, 64
3, 523200, Note_on_c, 0, 53, 92
3, 523296, Note_off_c, 0, 53, 64
3, 523296, Note_on_c, 0, 50, 92
3, 523392, Note_off_c, 0, 50, 64
3, 523392, Note_on_c, 0, 52, 92
3, 523488, Note_off_c, 0, 52, 64
3, 523488, Note_on_c, 0, 50, 92
3, 523584, Note_off_c, 0, 50, 64
3, 523584, Note_on_c, 0, 48, 92
3, 523680, Note_off_c, 0, 48, 64
3, 523680, Note_on_c, 0, 55, 92
3, 523776, Note_off_c, 0, 55, 64
3, 523776, Note_on_c, 0, 60, 92
3, 523872, Note_off_c, 0, 60, 64
3, 523872, Note_on_c, 0, 52, 92
3, 523968, Note_off_c, 0, 52, 64
3, 523968, Note_on_c, 0, 53, 92
3, 524064, Note_off_c, 0, 53, 64
3, 524064, Note_on_c, 0, 50, 92
3, 524160, Note_off_c, 0, 50, 64
3, 524160, Note_on_c, 0, 52, 92
3, 524256, Note_off_c, 0, 52, 64
3, 524256, Note_on_c, 0, 50, 92
3, 524352, Note_off_c, 0, 50, 64
3, 524352, Note_on_c, 0, 48, 92
3, 524448, Note_off_c, 0, 48, 64
3, 524448, Note_on_c, 0, 55, 92
3, 524544, Note_off_c, 0, 55, 64
3, 524544, Note_on_c, 0, 60, 92
3, 524640, Note_off_c, 0, 60, 64
3, 524640, Note_on_c, 0, 52, 92
3, 524736, Note_off_c, 0, 52, 64
3, 524736, Note_on_c, 0, 53, 92
3, 524832, Note_off_c, 0, 53, 64
3, 524832, Note_on_c, 0, 50, 92
3, 524928, Note_off_c, 0, 50, 64
3, 524928, Note_on_c, 0, 52, 92
3, 525024, Note_off_c, 0, 52, 64
3, 525024, Note_on_c, 0, 50, 92
3, 525120, Note_off_c, 0, 50, 64
3, 525120, Note_on_c, 0, 48, 92
3, 525216, Note_off_c, 0, 48, 64
3, 525408, Note_on_c, 0, 59, 92
3, 525504, Note_off_c, 0, 59, 64
3, 525504, Note_on_c, 0, 60, 92
3, 525600, Note_off_c, 0, 60, 64
3, 525600, Note_on_c, 0, 57, 92
3, 525696, Note_off_c, 0, 57, 64
3, 525696, Note_on_c, 0, 59, 92
3, 525792, Note_off_c, 0, 59, 64
3, 525792, Note_on_c, 0, 57, 92
3, 525888, Note_off_c, 0, 57, 64
3, 525888, Note_on_c, 0, 55, 92
3, 525984, Note_off_c, 0, 55, 64
3, 526176, Note_on_c, 0, 59, 92
3, 526272, Note_off_c, 0, 59, 64
3, 526272, Note_on_c, 0, 60, 92
3, 526368, Note_off_c, 0, 60, 64
3, 526368, Note_on_c, 0, 57, 92
3, 526464, Note_off_c, 0, 57, 64
3, 526464, Note_on_c, 0, 59, 92
3, 526560, Note_off_c, 0, 59, 64
3, 526560, Note_on_c, 0, 57, 92
3, 526656, Note_off_c, 0, 57, 64
3, 526656, Note_on_c, 0, 55, 92
3, 526752, Note_off_c, 0, 55, 64
3, 526944, Note_on_c, 0, 59, 92
3, 527040, Note_off_c, 0, 59, 64
3, 527040, Note_on_c, 0, 60, 92
3, 527136, Note_off_c, 0, 60, 64
3, 527136, Note_on_c, 0, 57, 92
3, 527232, Note_off_c, 0, 57, 64
3, 527232, Note_on_c, 0, 59, 92
3, 527328, Note_off_c, 0, 59, 64
3, 527328, Note_on_c, 0, 57, 92
3, 527424, Note_off_c, 0, 57, 64
3, 527424, Note_on_c, 0, 55, 92
3, 527520, Note_off_c, 0, 55, 64
3, 527520, Note_on_c, 0, 50, 92
3, 527616, Note_off_c, 0, 50, 64
3, 527616, Note_on_c, 0, 55, 92
3, 527712, Note_off_c, 0, 55, 64
3, 527712, Note_on_c, 0, 47, 92
3, 527808, Note_off_c, 0, 47, 64
3, 527808, Note_on_c, 0, 48, 92
3, 527904, Note_off_c, 0, 48, 64
3, 527904, Note_on_c, 0, 45, 92
3, 528000, Note_off_c, 0, 45, 64
3, 528000, Note_on_c, 0, 47, 92
3, 528096, Note_off_c, 0, 47, 64
3, 528096, Note_on_c, 0, 45, 92
3, 528192, Note_off_c, 0, 45, 64
3, 528192, Note_on_c, 0, 43, 92
3, 528288, Note_off_c, 0, 43, 64
3, 528288, Note_on_c, 0, 50, 92
3, 528384, Note_off_c, 0, 50, 64
3, 528384, Note_on_c, 0, 55, 92
3, 528480, Note_off_c, 0, 55, 64
3, 528480, Note_on_c, 0, 47, 92
3, 528576, Note_off_c, 0, 47, 64
3, 528576, Note_on_c, 0, 48, 92
3, 528672, Note_off_c, 0, 48, 64
3, 528672, Note_on_c, 0, 45, 92
3, 528768, Note_off_c, 0, 45, 64
3, 528768, Note_on_c, 0, 47, 92
3, 528864, Note_off_c, 0, 47, 64
3, 528864, Note_on_c, 0, 45, 92
3, 528960, Note_off_c, 0, 45, 64
3, 528960, Note_on_c, 0, 43, 92
3, 529056, Note_off_c, 0, 43, 64
3, 529056, Note_on_c, 0, 50, 92
3, 529152, Note_off_c, 0, 50, 64
3, 529152, Note_on_c, 0, 55, 92
3, 529248, Note_off_c, 0, 55, 64
3, 529248, Note_on_c, 0, 47, 92
3, 529344, Note_off_c, 0, 47, 64
3, 529344, Note_on_c, 0, 48, 92
3, 529440, Note_off_c, 0, 48, 64
3, 529440, Note_on_c, 0, 45, 92
3, 529536, Note_off_c, 0, 45, 64
3, 529536, Note_on_c, 0, 47, 92
3, 529632, Note_off_c, 0, 47, 64
3, 529632, Note_on_c, 0, 45, 92
3, 529728, Note_off_c, 0, 45, 64
3, 529728, Note_on_c, 0, 43, 92
3, 529824, Note_off_c, 0, 43, 64
3, 529824, Note_on_c, 0, 50, 92
3, 529920, Note_off_c, 0, 50, 64
3, 529920, Note_on_c, 0, 55, 92
3, 530016, Note_off_c, 0, 55, 64
3, 530016, Note_on_c, 0, 47, 92
3, 530112, Note_off_c, 0, 47, 64
3, 530112, Note_on_c, 0, 48, 92
3, 530208, Note_off_c, 0, 48, 64
3, 530208, Note_on_c, 0, 45, 92
3, 530304, Note_off_c, 0, 45, 64
3, 530304, Note_on_c, 0, 47, 92
3, 530400, Note_off_c, 0, 47, 64
3, 530400, Note_on_c, 0, 43, 92
3, 530496, Note_off_c, 0, 43, 64
3, 530496, Note_on_c, 0, 47, 92
3, 530592, Note_off_c, 0, 47, 64
3, 530592, Note_on_c, 0, 55, 92
3, 530688, Note_off_c, 0, 55, 64
3, 530688, Note_on_c, 0, 47, 92
3, 530784, Note_off_c, 0, 47, 64
3, 530784, Note_on_c, 0, 43, 92
3, 530880, Note_off_c, 0, 43, 64
3, 530880, Note_on_c, 0, 47, 92
3, 530976, Note_off_c, 0, 47, 64
3, 530976, Note_on_c, 0, 55, 92
3, 531072, Note_off_c, 0, 55, 64
3, 531072, Note_on_c, 0, 47, 92
3, 531168, Note_off_c, 0, 47, 64
3, 531168, Note_on_c, 0, 43, 92
3, 531264, Note_off_c, 0, 43, 64
3, 531264, Note_on_c, 0, 47, 92
3, 531360, Note_off_c, 0, 47, 64
3, 531360, Note_on_c, 0, 55, 92
3, 531456, Note_off_c, 0, 55, 64
3, 531456, Note_on_c, 0, 47, 92
3, 531552, Note_off_c, 0, 47, 64
3, 531552, Note_on_c, 0, 43, 92
3, 531648, Note_off_c, 0, 43, 64
3, 531648, Note_on_c, 0, 47, 92
3, 531744, Note_off_c, 0, 47, 64
3, 531744, Note_on_c, 0, 55, 92
3, 531840, Note_off_c, 0, 55, 64
3, 531840, Note_on_c, 0, 52, 92
3, 531936, Note_off_c, 0, 52, 64
3, 531936, Note_on_c, 0, 48, 92
3, 532032, Note_off_c, 0, 48, 64
3, 532032, Note_on_c, 0, 52, 92
3, 532128, Note_off_c, 0, 52, 64
3, 532128, Note_on_c, 0, 60, 92
3, 532224, Note_off_c, 0, 60, 64
3, 532224, Note_on_c, 0, 52, 92
3, 532320, Note_off_c, 0, 52, 64
3, 532320, Note_on_c, 0, 48, 92
3, 532416, Note_off_c, 0, 48, 64
3, 532416, Note_on_c, 0, 52, 92
3, 532512, Note_off_c, 0, 52, 64
3, 532512, Note_on_c, 0, 60, 92
3, 532608, Note_off_c, 0, 60, 64
3, 532608, Note_on_c, 0, 52, 92
3, 532704, Note_off_c, 0, 52, 64
3, 532704, Note_on_c, 0, 48, 92
3, 532800, Note_off_c, 0, 48, 64
3, 532800, Note_on_c, 0, 52, 92
3, 532896, Note_off_c, 0, 52, 64
3, 532896, Note_on_c, 0, 60, 92
3, 532992, Note_off_c, 0, 60, 64
3, 532992, Note_on_c, 0, 52, 92
3, 533088, Note_off_c, 0, 52, 64
3, 533088, Note_on_c, 0, 48, 92
3, 533184, Note_off_c, 0, 48, 64
3, 533184, Note_on_c, 0, 52, 92
3, 533280, Note_off_c, 0, 52, 64
3, 533280, Note_on_c, 0, 60, 92
3, 533376, Note_off_c, 0, 60, 64
3, 533376, Note_on_c, 0, 59, 92
3, 533472, Note_off_c, 0, 59, 64
3, 533472, Note_on_c, 0, 55, 92
3, 533568, Note_off_c, 0, 55, 64
3, 533568, Note_on_c, 0, 59, 92
3, 533664, Note_off_c, 0, 59, 64
3, 533760, Note_on_c, 0, 59, 92
3, 533856, Note_off_c, 0, 59, 64
3, 533856, Note_on_c, 0, 55, 92
3, 533952, Note_off_c, 0, 55, 64
3, 533952, Note_on_c, 0, 59, 92
3, 534048, Note_off_c, 0, 59, 64
3, 534144, Note_on_c, 0, 59, 92
3, 534240, Note_off_c, 0, 59, 64
3, 534240, Note_on_c, 0, 55, 92
3, 534336, Note_off_c, 0, 55, 64
3, 534336, Note_on_c, 0, 59, 92
3, 534432, Note_off_c, 0, 59, 64
3, 534528, Note_on_c, 0, 59, 92
3, 534624, Note_off_c, 0, 59, 64
3, 534624, Note_on_c, 0, 55, 92
3, 534720, Note_off_c, 0, 55, 64
3, 534720, Note_on_c, 0, 59, 92
3, 534816, Note_off_c, 0, 59, 64
3, 536448, Note_on_c, 0, 57, 92
3, 536544, Note_off_c, 0, 57, 64
3, 536544, Note_on_c, 0, 53, 92
3, 536640, Note_off_c, 0, 53, 64
3, 536640, Note_on_c, 0, 57, 92
3, 536736, Note_off_c, 0, 57, 64
3, 536832, Note_on_c, 0, 57, 92
3, 536928, Note_off_c, 0, 57, 64
3, 536928, Note_on_c, 0, 53, 92
3, 537024, Note_off_c, 0, 53, 64
3, 537024, Note_on_c, 0, 57, 92
3, 537120, Note_off_c, 0, 57, 64
3, 537216, Note_on_c, 0, 57, 92
3, 537312, Note_off_c, 0, 57, 64
3, 537312, Note_on_c, 0, 53, 92
3, 537408, Note_off_c, 0, 53, 64
3, 537408, Note_on_c, 0, 57, 92
3, 537504, Note_off_c, 0, 57, 64
3, 537600, Note_on_c, 0, 57, 92
3, 537696, Note_off_c, 0, 57, 64
3, 537696, Note_on_c, 0, 53, 92
3, 537792, Note_off_c, 0, 53, 64
3, 537792, Note_on_c, 0, 57, 92
3, 537888, Note_off_c, 0, 57, 64
3, 539520, Note_on_c, 0, 59, 92
3, 539616, Note_off_c, 0, 59, 64
3, 539616, Note_on_c, 0, 55, 92
3, 539712, Note_off_c, 0, 55, 64
3, 539712, Note_on_c, 0, 59, 92
3, 539808, Note_off_c, 0, 59, 64
3, 539904, Note_on_c, 0, 59, 92
3, 540000, Note_off_c, 0, 59, 64
3, 540000, Note_on_c, 0, 55, 92
3, 540096, Note_off_c, 0, 55, 64
3, 540096, Note_on_c, 0, 59, 92
3, 540192, Note_off_c, 0, 59, 64
3, 540288, Note_on_c, 0, 59, 92
3, 540384, Note_off_c, 0, 59, 64
3, 540384, Note_on_c, 0, 55, 92
3, 540480, Note_off_c, 0, 55, 64
3, 540480, Note_on_c, 0, 59, 92
3, 540576, Note_off_c, 0, 59, 64
3, 540672, Note_on_c, 0, 59, 92
3, 540768, Note_off_c, 0, 59, 64
3, 540768, Note_on_c, 0, 55, 92
3, 540864, Note_off_c, 0, 55, 64
3, 540864, Note_on_c, 0, 59, 92
3, 540960, Note_off_c, 0, 59, 64
3, 541056, Note_on_c, 0, 52, 92
3, 541152, Note_off_c, 0, 52, 64
3, 541152, Note_on_c, 0, 48, 92
3, 541248, Note_off_c, 0, 48, 64
3, 541248, Note_on_c, 0, 52, 92
3, 541344, Note_off_c, 0, 52, 64
3, 541344, Note_on_c, 0, 60, 92
3, 541440, Note_off_c, 0, 60, 64
3, 541440, Note_on_c, 0, 52, 92
3, 541536, Note_off_c, 0, 52, 64
3, 541536, Note_on_c, 0, 48, 92
3, 541632, Note_off_c, 0, 48, 64
3, 541632, Note_on_c, 0, 52, 92
3, 541728, Note_off_c, 0, 52, 64
3, 541728, Note_on_c, 0, 60, 92
3, 541824, Note_off_c, 0, 60, 64
3, 541824, Note_on_c, 0, 52, 92
3, 541920, Note_off_c, 0, 52, 64
3, 541920, Note_on_c, 0, 48, 92
3, 542016, Note_off_c, 0, 48, 64
3, 542016, Note_on_c, 0, 52, 92
3, 542112, Note_off_c, 0, 52, 64
3, 542112, Note_on_c, 0, 60, 92
3, 542208, Note_off_c, 0, 60, 64
3, 542208, Note_on_c, 0, 52, 92
3, 542304, Note_off_c, 0, 52, 64
3, 542304, Note_on_c, 0, 48, 92
3, 542400, Note_off_c, 0, 48, 64
3, 542400, Note_on_c, 0, 52, 92
3, 542496, Note_off_c, 0, 52, 64
3, 542496, Note_on_c, 0, 60, 92
3, 542592, Note_off_c, 0, 60, 64
3, 542592, Note_on_c, 0, 57, 92
3, 542688, Note_off_c, 0, 57, 64
3, 542688, Note_on_c, 0, 53, 92
3, 542784, Note_off_c, 0, 53, 64
3, 542784, Note_on_c, 0, 57, 92
3, 542880, Note_off_c, 0, 57, 64
3, 542976, Note_on_c, 0, 57, 92
3, 543072, Note_off_c, 0, 57, 64
3, 543072, Note_on_c, 0, 53, 92
3, 543168, Note_off_c, 0, 53, 64
3, 543168, Note_on_c, 0, 57, 92
3, 543264, Note_off_c, 0, 57, 64
3, 543360, Note_on_c, 0, 57, 92
3, 543456, Note_off_c, 0, 57, 64
3, 543456, Note_on_c, 0, 53, 92
3, 543552, Note_off_c, 0, 53, 64
3, 543552, Note_on_c, 0, 57, 92
3, 543648, Note_off_c, 0, 57, 64
3, 543744, Note_on_c, 0, 57, 92
3, 543840, Note_off_c, 0, 57, 64
3, 543840, Note_on_c, 0, 53, 92
3, 543936, Note_off_c, 0, 53, 64
3, 543936, Note_on_c, 0, 57, 92
3, 544032, Note_off_c, 0, 57, 64
3, 544128, Note_on_c, 0, 59, 92
3, 544224, Note_off_c, 0, 59, 64
3, 544224, Note_on_c, 0, 55, 92
3, 544320, Note_off_c, 0, 55, 64
3, 544320, Note_on_c, 0, 59, 92
3, 544416, Note_off_c, 0, 59, 64
3, 544512, Note_on_c, 0, 59, 92
3, 544608, Note_off_c, 0, 59, 64
3, 544608, Note_on_c, 0, 55, 92
3, 544704, Note_off_c, 0, 55, 64
3, 544704, Note_on_c, 0, 59, 92
3, 544800, Note_off_c, 0, 59, 64
3, 544896, Note_on_c, 0, 59, 92
3, 544992, Note_off_c, 0, 59, 64
3, 544992, Note_on_c, 0, 55, 92
3, 545088, Note_off_c, 0, 55, 64
3, 545088, Note_on_c, 0, 59, 92
3, 545184, Note_off_c, 0, 59, 64
3, 545280, Note_on_c, 0, 59, 92
3, 545376, Note_off_c, 0, 59, 64
3, 545376, Note_on_c, 0, 55, 92
3, 545472, Note_off_c, 0, 55, 64
3, 545472, Note_on_c, 0, 59, 92
3, 545568, Note_off_c, 0, 59, 64
3, 545664, Note_on_c, 0, 59, 92
3, 545856, Note_off_c, 0, 59, 64
3, 545856, Note_on_c, 0, 60, 92
3, 545952, Note_off_c, 0, 60, 64
3, 545952, Note_on_c, 0, 59, 92
3, 546048, Note_off_c, 0, 59, 64
3, 546048, Note_on_c, 0, 60, 92
3, 546240, Note_off_c, 0, 60, 64
3, 546240, Note_on_c, 0, 60, 92
3, 546432, Note_off_c, 0, 60, 64
3, 546432, Note_on_c, 0, 60, 92
3, 546624, Note_off_c, 0, 60, 64
3, 546624, Note_on_c, 0, 59, 92
3, 546816, Note_off_c, 0, 59, 64
3, 546816, Note_on_c, 0, 59, 92
3, 547008, Note_off_c, 0, 59, 64
3, 547008, Note_on_c, 0, 59, 92
3, 547200, Note_off_c, 0, 59, 64
3, 547200, Note_on_c, 0, 59, 92
3, 547392, Note_off_c, 0, 59, 64
3, 547392, Note_on_c, 0, 60, 92
3, 547488, Note_off_c, 0, 60, 64
3, 547488, Note_on_c, 0, 59, 92
3, 547584, Note_off_c, 0, 59, 64
3, 547584, Note_on_c, 0, 60, 92
3, 547776, Note_off_c, 0, 60, 64
3, 547776, Note_on_c, 0, 60, 92
3, 547968, Note_off_c, 0, 60, 64
3, 547968, Note_on_c, 0, 60, 92
3, 548160, Note_off_c, 0, 60, 64
3, 548160, Note_on_c, 0, 59, 92
3, 548352, Note_off_c, 0, 59, 64
3, 548352, Note_on_c, 0, 59, 92
3, 548544, Note_off_c, 0, 59, 64
3, 548544, Note_on_c, 0, 47, 92
3, 548544, Note_on_c, 0, 50, 92
3, 548736, Note_off_c, 0, 50, 64
3, 548736, Note_off_c, 0, 47, 64
3, 548736, Note_on_c, 0, 47, 92
3, 548736, Note_on_c, 0, 50, 92
3, 548928, Note_off_c, 0, 50, 64
3, 548928, Note_off_c, 0, 47, 64
3, 548928, Note_on_c, 0, 48, 92
3, 548928, Note_on_c, 0, 52, 92
3, 549024, Note_off_c, 0, 52, 64
3, 549024, Note_off_c, 0, 48, 64
3, 549024, Note_on_c, 0, 47, 92
3, 549024, Note_on_c, 0, 50, 92
3, 549120, Note_off_c, 0, 50, 64
3, 549120, Note_off_c, 0, 47, 64
3, 549120, Note_on_c, 0, 48, 92
3, 549120, Note_on_c, 0, 52, 92
3, 549312, Note_off_c, 0, 52, 64
3, 549312, Note_off_c, 0, 48, 64
3, 549312, Note_on_c, 0, 48, 92
3, 549312, Note_on_c, 0, 52, 92
3, 549504, Note_off_c, 0, 52, 64
3, 549504, Note_off_c, 0, 48, 64
3, 549504, Note_on_c, 0, 48, 92
3, 549504, Note_on_c, 0, 52, 92
3, 549696, Note_off_c, 0, 52, 64
3, 549696, Note_off_c, 0, 48, 64
3, 549696, Note_on_c, 0, 50, 92
3, 549696, Note_on_c, 0, 47, 92
3, 549888, Note_off_c, 0, 47, 64
3, 549888, Note_off_c, 0, 50, 64
3, 549888, Note_on_c, 0, 50, 92
3, 549888, Note_on_c, 0, 47, 92
3, 550080, Note_off_c, 0, 47, 64
3, 550080, Note_off_c, 0, 50, 64
3, 550080, Note_on_c, 0, 55, 92
3, 550080, Note_on_c, 0, 47, 92
3, 550272, Note_off_c, 0, 47, 64
3, 550272, Note_off_c, 0, 55, 64
3, 550272, Note_on_c, 0, 47, 92
3, 550272, Note_on_c, 0, 50, 92
3, 550464, Note_off_c, 0, 50, 64
3, 550464, Note_off_c, 0, 47, 64
3, 550464, Note_on_c, 0, 48, 92
3, 550464, Note_on_c, 0, 52, 92
3, 550560, Note_off_c, 0, 52, 64
3, 550560, Note_off_c, 0, 48, 64
3, 550560, Note_on_c, 0, 47, 92
3, 550560, Note_on_c, 0, 50, 92
3, 550656, Note_off_c, 0, 50, 64
3, 550656, Note_off_c, 0, 47, 64
3, 550656, Note_on_c, 0, 48, 92
3, 550656, Note_on_c, 0, 52, 92
3, 550848, Note_off_c, 0, 52, 64
3, 550848, Note_off_c, 0, 48, 64
3, 550848, Note_on_c, 0, 48, 92
3, 550848, Note_on_c, 0, 52, 92
3, 551040, Note_off_c, 0, 52, 64
3, 551040, Note_off_c, 0, 48, 64
3, 551040, Note_on_c, 0, 48, 92
3, 551040, Note_on_c, 0, 52, 92
3, 551232, Note_off_c, 0, 52, 64
3, 551232, Note_off_c, 0, 48, 64
3, 551232, Note_on_c, 0, 47, 92
3, 551232, Note_on_c, 0, 50, 92
3, 551424, Note_off_c, 0, 50, 64
3, 551424, Note_off_c, 0, 47, 64
3, 551424, Note_on_c, 0, 47, 92
3, 551424, Note_on_c, 0, 50, 92
3, 551616, Note_off_c, 0, 50, 64
3, 551616, Note_off_c, 0, 47, 64
3, 555456, Note_on_c, 0, 52, 92
3, 555648, Note_off_c, 0, 52, 64
3, 555648, Note_on_c, 0, 52, 92
3, 555840, Note_off_c, 0, 52, 64
3, 555840, Note_on_c, 0, 53, 92
3, 555936, Note_off_c, 0, 53, 64
3, 555936, Note_on_c, 0, 52, 92
3, 556032, Note_off_c, 0, 52, 64
3, 556032, Note_on_c, 0, 53, 92
3, 556224, Note_off_c, 0, 53, 64
3, 556224, Note_on_c, 0, 53, 92
3, 556416, Note_off_c, 0, 53, 64
3, 556416, Note_on_c, 0, 53, 92
3, 556608, Note_off_c, 0, 53, 64
3, 556608, Note_on_c, 0, 52, 92
3, 556800, Note_off_c, 0, 52, 64
3, 556800, Note_on_c, 0, 52, 92
3, 556992, Note_off_c, 0, 52, 64
3, 556992, Note_on_c, 0, 52, 92
3, 557184, Note_off_c, 0, 52, 64
3, 557184, Note_on_c, 0, 52, 92
3, 557376, Note_off_c, 0, 52, 64
3, 557376, Note_on_c, 0, 53, 92
3, 557472, Note_off_c, 0, 53, 64
3, 557472, Note_on_c, 0, 52, 92
3, 557568, Note_off_c, 0, 52, 64
3, 557568, Note_on_c, 0, 53, 92
3, 557760, Note_off_c, 0, 53, 64
3, 557760, Note_on_c, 0, 53, 92
3, 557952, Note_off_c, 0, 53, 64
3, 557952, Note_on_c, 0, 53, 92
3, 558144, Note_off_c, 0, 53, 64
3, 558144, Note_on_c, 0, 52, 92
3, 558336, Note_off_c, 0, 52, 64
3, 558432, Note_on_c, 0, 59, 92
3, 558528, Note_off_c, 0, 59, 64
3, 558528, Note_on_c, 0, 57, 92
3, 558624, Note_off_c, 0, 57, 64
3, 558624, Note_on_c, 0, 55, 92
3, 558720, Note_off_c, 0, 55, 64
3, 558720, Note_on_c, 0, 43, 92
3, 558720, Note_on_c, 0, 50, 92
3, 558912, Note_off_c, 0, 50, 64
3, 558912, Note_off_c, 0, 43, 64
3, 558912, Note_on_c, 0, 43, 92
3, 558912, Note_on_c, 0, 50, 92
3, 559104, Note_off_c, 0, 50, 64
3, 559104, Note_off_c, 0, 43, 64
3, 559104, Note_on_c, 0, 43, 92
3, 559104, Note_on_c, 0, 50, 92
3, 559296, Note_off_c, 0, 50, 64
3, 559296, Note_off_c, 0, 43, 64
3, 559296, Note_on_c, 0, 43, 92
3, 559296, Note_on_c, 0, 52, 92
3, 559488, Note_off_c, 0, 52, 64
3, 559488, Note_off_c, 0, 43, 64
3, 559488, Note_on_c, 0, 41, 92
3, 559488, Note_on_c, 0, 48, 92
3, 559680, Note_off_c, 0, 48, 64
3, 559680, Note_off_c, 0, 41, 64
3, 559680, Note_on_c, 0, 41, 92
3, 559680, Note_on_c, 0, 48, 92
3, 559872, Note_off_c, 0, 48, 64
3, 559872, Note_off_c, 0, 41, 64
3, 559968, Note_on_c, 0, 54, 92
3, 560064, Note_off_c, 0, 54, 64
3, 560064, Note_on_c, 0, 52, 92
3, 560160, Note_off_c, 0, 52, 64
3, 560160, Note_on_c, 0, 50, 92
3, 560256, Note_off_c, 0, 50, 64
3, 560256, Note_on_c, 0, 45, 92
3, 560256, Note_on_c, 0, 52, 92
3, 560448, Note_off_c, 0, 52, 64
3, 560448, Note_off_c, 0, 45, 64
3, 560448, Note_on_c, 0, 45, 92
3, 560448, Note_on_c, 0, 52, 92
3, 560640, Note_off_c, 0, 52, 64
3, 560640, Note_off_c, 0, 45, 64
3, 560640, Note_on_c, 0, 45, 92
3, 560640, Note_on_c, 0, 52, 92
3, 560832, Note_off_c, 0, 52, 64
3, 560832, Note_off_c, 0, 45, 64
3, 560832, Note_on_c, 0, 45, 92
3, 560832, Note_on_c, 0, 54, 92
3, 561024, Note_off_c, 0, 54, 64
3, 561024, Note_off_c, 0, 45, 64
3, 561024, Note_on_c, 0, 43, 92
3, 561024, Note_on_c, 0, 50, 92
3, 561216, Note_off_c, 0, 50, 64
3, 561216, Note_on_c, 0, 50, 92
3, 561408, Note_off_c, 0, 50, 64
3, 561408, Note_off_c, 0, 43, 64
3, 561504, Note_on_c, 0, 59, 92
3, 561600, Note_off_c, 0, 59, 64
3, 561600, Note_on_c, 0, 57, 92
3, 561696, Note_off_c, 0, 57, 64
3, 561696, Note_on_c, 0, 55, 92
3, 561792, Note_off_c, 0, 55, 64
3, 561792, Note_on_c, 0, 50, 92
3, 561792, Note_on_c, 0, 57, 92
3, 561984, Note_off_c, 0, 57, 64
3, 561984, Note_off_c, 0, 50, 64
3, 561984, Note_on_c, 0, 50, 92
3, 561984, Note_on_c, 0, 57, 92
3, 562176, Note_off_c, 0, 57, 64
3, 562176, Note_off_c, 0, 50, 64
3, 562176, Note_on_c, 0, 50, 92
3, 562176, Note_on_c, 0, 57, 92
3, 562368, Note_off_c, 0, 57, 64
3, 562368, Note_off_c, 0, 50, 64
3, 562368, Note_on_c, 0, 50, 92
3, 562368, Note_on_c, 0, 59, 92
3, 562560, Note_off_c, 0, 59, 64
3, 562560, Note_off_c, 0, 50, 64
3, 562560, Note_on_c, 0, 48, 92
3, 562560, Note_on_c, 0, 55, 92
3, 562752, Note_off_c, 0, 55, 64
3, 562752, Note_off_c, 0, 48, 64
3, 562752, Note_on_c, 0, 48, 92
3, 562752, Note_on_c, 0, 55, 92
3, 562944, Note_off_c, 0, 55, 64
3, 562944, Note_off_c, 0, 48, 64
3, 568992, Note_on_c, 0, 59, 92
3, 569040, Note_off_c, 0, 59, 64
3, 569040, Note_on_c, 0, 57, 92
3, 569088, Note_off_c, 0, 57, 64
3, 569088, Note_on_c, 0, 55, 92
3, 569184, Note_off_c, 0, 55, 64
3, 569184, Note_on_c, 0, 54, 92
3, 569232, Note_off_c, 0, 54, 64
3, 569232, Note_on_c, 0, 52, 92
3, 569280, Note_off_c, 0, 52, 64
3, 569280, Note_on_c, 0, 50, 92
3, 569328, Note_off_c, 0, 50, 64
3, 569328, Note_on_c, 0, 48, 92
3, 569376, Note_off_c, 0, 48, 64
3, 569376, Note_on_c, 0, 47, 92
3, 569424, Note_off_c, 0, 47, 64
3, 569424, Note_on_c, 0, 45, 92
3, 569472, Note_off_c, 0, 45, 64
3, 569472, Note_on_c, 0, 43, 92
3, 576384, Note_off_c, 0, 43, 64
3, 590112, Note_on_c, 0, 59, 92
3, 590160, Note_off_c, 0, 59, 64
3, 590160, Note_on_c, 0, 57, 92
3, 590208, Note_off_c, 0, 57, 64
3, 590208, Note_on_c, 0, 55, 92
3, 601728, Note_off_c, 0, 55, 64
3, 642816, Note_on_c, 0, 56, 92
3, 642912, Note_off_c, 0, 56, 64
3, 643200, Note_on_c, 0, 56, 92
3, 643296, Note_off_c, 0, 56, 64
3, 643584, Note_on_c, 0, 56, 92
3, 643680, Note_off_c, 0, 56, 64
3, 643968, Note_on_c, 0, 56, 92
3, 644064, Note_off_c, 0, 56, 64
3, 644352, Note_on_c, 0, 56, 92
3, 644448, Note_off_c, 0, 56, 64
3, 644736, Note_on_c, 0, 56, 92
3, 644832, Note_off_c, 0, 56, 64
3, 645120, Note_on_c, 0, 56, 92
3, 645216, Note_off_c, 0, 56, 64
3, 645504, Note_on_c, 0, 56, 92
3, 645600, Note_off_c, 0, 56, 64
3, 645888, Note_on_c, 0, 56, 92
3, 645984, Note_off_c, 0, 56, 64
3, 646272, Note_on_c, 0, 56, 92
3, 646368, Note_off_c, 0, 56, 64
3, 646656, Note_on_c, 0, 56, 92
3, 646752, Note_off_c, 0, 56, 64
3, 647040, Note_on_c, 0, 56, 92
3, 647136, Note_off_c, 0, 56, 64
3, 647424, Note_on_c, 0, 56, 92
3, 647520, Note_off_c, 0, 56, 64
3, 647808, Note_on_c, 0, 56, 92
3, 647904, Note_off_c, 0, 56, 64
3, 648192, Note_on_c, 0, 56, 92
3, 648288, Note_off_c, 0, 56, 64
3, 648576, Note_on_c, 0, 49, 92
3, 648672, Note_off_c, 0, 49, 64
3, 648672, Note_on_c, 0, 61, 92
3, 648768, Note_off_c, 0, 61, 64
3, 648768, Note_on_c, 0, 56, 92
3, 648864, Note_off_c, 0, 56, 64
3, 648864, Note_on_c, 0, 53, 92
3, 648960, Note_off_c, 0, 53, 64
3, 648960, Note_on_c, 0, 49, 92
3, 649056, Note_off_c, 0, 49, 64
3, 649056, Note_on_c, 0, 61, 92
3, 649152, Note_off_c, 0, 61, 64
3, 649152, Note_on_c, 0, 56, 92
3, 649248, Note_off_c, 0, 56, 64
3, 649248, Note_on_c, 0, 53, 92
3, 649344, Note_off_c, 0, 53, 64
3, 649344, Note_on_c, 0, 49, 92
3, 649440, Note_off_c, 0, 49, 64
3, 649440, Note_on_c, 0, 61, 92
3, 649536, Note_off_c, 0, 61, 64
3, 649536, Note_on_c, 0, 56, 92
3, 649632, Note_off_c, 0, 56, 64
3, 649632, Note_on_c, 0, 53, 92
3, 649728, Note_off_c, 0, 53, 64
3, 649728, Note_on_c, 0, 49, 92
3, 649824, Note_off_c, 0, 49, 64
3, 649824, Note_on_c, 0, 61, 92
3, 649920, Note_off_c, 0, 61, 64
3, 649920, Note_on_c, 0, 56, 92
3, 650016, Note_off_c, 0, 56, 64
3, 650016, Note_on_c, 0, 53, 92
3, 650112, Note_off_c, 0, 53, 64
3, 650112, Note_on_c, 0, 49, 92
3, 650208, Note_off_c, 0, 49, 64
3, 650208, Note_on_c, 0, 61, 92
3, 650304, Note_off_c, 0, 61, 64
3, 650304, Note_on_c, 0, 56, 92
3, 650400, Note_off_c, 0, 56, 64
3, 650400, Note_on_c, 0, 50, 92
3, 650496, Note_off_c, 0, 50, 64
3, 650496, Note_on_c, 0, 49, 92
3, 650592, Note_off_c, 0, 49, 64
3, 650592, Note_on_c, 0, 61, 92
3, 650688, Note_off_c, 0, 61, 64
3, 650688, Note_on_c, 0, 56, 92
3, 650784, Note_off_c, 0, 56, 64
3, 650784, Note_on_c, 0, 50, 92
3, 650880, Note_off_c, 0, 50, 64
3, 650880, Note_on_c, 0, 49, 92
3, 650976, Note_off_c, 0, 49, 64
3, 650976, Note_on_c, 0, 61, 92
3, 651072, Note_off_c, 0, 61, 64
3, 651072, Note_on_c, 0, 56, 92
3, 651168, Note_off_c, 0, 56, 64
3, 651168, Note_on_c, 0, 50, 92
3, 651264, Note_off_c, 0, 50, 64
3, 651264, Note_on_c, 0, 49, 92
3, 651360, Note_off_c, 0, 49, 64
3, 651360, Note_on_c, 0, 61, 92
3, 651456, Note_off_c, 0, 61, 64
3, 651456, Note_on_c, 0, 56, 92
3, 651552, Note_off_c, 0, 56, 64
3, 651552, Note_on_c, 0, 50, 92
3, 651648, Note_off_c, 0, 50, 64
3, 651648, Note_on_c, 0, 49, 92
3, 651744, Note_off_c, 0, 49, 64
3, 651744, Note_on_c, 0, 59, 92
3, 651840, Note_off_c, 0, 59, 64
3, 651840, Note_on_c, 0, 56, 92
3, 651936, Note_off_c, 0, 56, 64
3, 651936, Note_on_c, 0, 50, 92
3, 652032, Note_off_c, 0, 50, 64
3, 652032, Note_on_c, 0, 49, 92
3, 652128, Note_off_c, 0, 49, 64
3, 652128, Note_on_c, 0, 59, 92
3, 652224, Note_off_c, 0, 59, 64
3, 652224, Note_on_c, 0, 56, 92
3, 652320, Note_off_c, 0, 56, 64
3, 652320, Note_on_c, 0, 50, 92
3, 652416, Note_off_c, 0, 50, 64
3, 652416, Note_on_c, 0, 49, 92
3, 652512, Note_off_c, 0, 49, 64
3, 652512, Note_on_c, 0, 59, 92
3, 652608, Note_off_c, 0, 59, 64
3, 652608, Note_on_c, 0, 56, 92
3, 652704, Note_off_c, 0, 56, 64
3, 652704, Note_on_c, 0, 50, 92
3, 652800, Note_off_c, 0, 50, 64
3, 652800, Note_on_c, 0, 49, 92
3, 652896, Note_off_c, 0, 49, 64
3, 652896, Note_on_c, 0, 59, 92
3, 652992, Note_off_c, 0, 59, 64
3, 652992, Note_on_c, 0, 56, 92
3, 653088, Note_off_c, 0, 56, 64
3, 653088, Note_on_c, 0, 50, 92
3, 653184, Note_off_c, 0, 50, 64
3, 653184, Note_on_c, 0, 49, 92
3, 653280, Note_off_c, 0, 49, 64
3, 653280, Note_on_c, 0, 59, 92
3, 653376, Note_off_c, 0, 59, 64
3, 653376, Note_on_c, 0, 56, 92
3, 653472, Note_off_c, 0, 56, 64
3, 653472, Note_on_c, 0, 53, 92
3, 653568, Note_off_c, 0, 53, 64
3, 653568, Note_on_c, 0, 49, 92
3, 653664, Note_off_c, 0, 49, 64
3, 653664, Note_on_c, 0, 59, 92
3, 653760, Note_off_c, 0, 59, 64
3, 653760, Note_on_c, 0, 56, 92
3, 653856, Note_off_c, 0, 56, 64
3, 653856, Note_on_c, 0, 53, 92
3, 653952, Note_off_c, 0, 53, 64
3, 653952, Note_on_c, 0, 49, 92
3, 654048, Note_off_c, 0, 49, 64
3, 654048, Note_on_c, 0, 59, 92
3, 654144, Note_off_c, 0, 59, 64
3, 654144, Note_on_c, 0, 56, 92
3, 654240, Note_off_c, 0, 56, 64
3, 654240, Note_on_c, 0, 53, 92
3, 654336, Note_off_c, 0, 53, 64
3, 654336, Note_on_c, 0, 49, 92
3, 654432, Note_off_c, 0, 49, 64
3, 654432, Note_on_c, 0, 59, 92
3, 654528, Note_off_c, 0, 59, 64
3, 654528, Note_on_c, 0, 56, 92
3, 654624, Note_off_c, 0, 56, 64
3, 654624, Note_on_c, 0, 53, 92
3, 654720, Note_off_c, 0, 53, 64
3, 654720, Note_on_c, 0, 49, 92
3, 654816, Note_off_c, 0, 49, 64
3, 654912, Note_on_c, 0, 58, 92
3, 655008, Note_off_c, 0, 58, 64
3, 655008, Note_on_c, 0, 54, 92
3, 655104, Note_off_c, 0, 54, 64
3, 655104, Note_on_c, 0, 49, 92
3, 655200, Note_off_c, 0, 49, 64
3, 655296, Note_on_c, 0, 58, 92
3, 655392, Note_off_c, 0, 58, 64
3, 655392, Note_on_c, 0, 54, 92
3, 655488, Note_off_c, 0, 54, 64
3, 655488, Note_on_c, 0, 49, 92
3, 655584, Note_off_c, 0, 49, 64
3, 655680, Note_on_c, 0, 58, 92
3, 655776, Note_off_c, 0, 58, 64
3, 655776, Note_on_c, 0, 54, 92
3, 655872, Note_off_c, 0, 54, 64
3, 655872, Note_on_c, 0, 49, 92
3, 655968, Note_off_c, 0, 49, 64
3, 656064, Note_on_c, 0, 58, 92
3, 656160, Note_off_c, 0, 58, 64
3, 656160, Note_on_c, 0, 54, 92
3, 656256, Note_off_c, 0, 54, 64
3, 656256, Note_on_c, 0, 51, 92
3, 656352, Note_off_c, 0, 51, 64
3, 656448, Note_on_c, 0, 58, 92
3, 656544, Note_off_c, 0, 58, 64
3, 656544, Note_on_c, 0, 55, 92
3, 656640, Note_off_c, 0, 55, 64
3, 656640, Note_on_c, 0, 51, 92
3, 656736, Note_off_c, 0, 51, 64
3, 656832, Note_on_c, 0, 58, 92
3, 656928, Note_off_c, 0, 58, 64
3, 656928, Note_on_c, 0, 55, 92
3, 657024, Note_off_c, 0, 55, 64
3, 657024, Note_on_c, 0, 51, 92
3, 657120, Note_off_c, 0, 51, 64
3, 657216, Note_on_c, 0, 58, 92
3, 657312, Note_off_c, 0, 58, 64
3, 657312, Note_on_c, 0, 55, 92
3, 657408, Note_off_c, 0, 55, 64
3, 657408, Note_on_c, 0, 51, 92
3, 657504, Note_off_c, 0, 51, 64
3, 657600, Note_on_c, 0, 58, 92
3, 657696, Note_off_c, 0, 58, 64
3, 657696, Note_on_c, 0, 55, 92
3, 657792, Note_off_c, 0, 55, 64
3, 657792, Note_on_c, 0, 51, 92
3, 657888, Note_off_c, 0, 51, 64
3, 657984, Note_on_c, 0, 60, 92
3, 658080, Note_off_c, 0, 60, 64
3, 658080, Note_on_c, 0, 56, 92
3, 658176, Note_off_c, 0, 56, 64
3, 658176, Note_on_c, 0, 51, 92
3, 658272, Note_off_c, 0, 51, 64
3, 658368, Note_on_c, 0, 60, 92
3, 658464, Note_off_c, 0, 60, 64
3, 658464, Note_on_c, 0, 56, 92
3, 658560, Note_off_c, 0, 56, 64
3, 658560, Note_on_c, 0, 51, 92
3, 658656, Note_off_c, 0, 51, 64
3, 658752, Note_on_c, 0, 60, 92
3, 658848, Note_off_c, 0, 60, 64
3, 658848, Note_on_c, 0, 56, 92
3, 658944, Note_off_c, 0, 56, 64
3, 658944, Note_on_c, 0, 51, 92
3, 659040, Note_off_c, 0, 51, 64
3, 659136, Note_on_c, 0, 60, 92
3, 659232, Note_off_c, 0, 60, 64
3, 659232, Note_on_c, 0, 56, 92
3, 659328, Note_off_c, 0, 56, 64
3, 659328, Note_on_c, 0, 53, 92
3, 659424, Note_off_c, 0, 53, 64
3, 659520, Note_on_c, 0, 60, 92
3, 659616, Note_off_c, 0, 60, 64
3, 659616, Note_on_c, 0, 57, 92
3, 659712, Note_off_c, 0, 57, 64
3, 659712, Note_on_c, 0, 53, 92
3, 659808, Note_off_c, 0, 53, 64
3, 659904, Note_on_c, 0, 60, 92
3, 660000, Note_off_c, 0, 60, 64
3, 660000, Note_on_c, 0, 57, 92
3, 660096, Note_off_c, 0, 57, 64
3, 660096, Note_on_c, 0, 53, 92
3, 660192, Note_off_c, 0, 53, 64
3, 660288, Note_on_c, 0, 60, 92
3, 660384, Note_off_c, 0, 60, 64
3, 660384, Note_on_c, 0, 57, 92
3, 660480, Note_off_c, 0, 57, 64
3, 660480, Note_on_c, 0, 53, 92
3, 660576, Note_off_c, 0, 53, 64
3, 660672, Note_on_c, 0, 60, 92
3, 660768, Note_off_c, 0, 60, 64
3, 660768, Note_on_c, 0, 57, 92
3, 660864, Note_off_c, 0, 57, 64
3, 660864, Note_on_c, 0, 53, 92
3, 660960, Note_off_c, 0, 53, 64
3, 661248, Note_on_c, 0, 53, 92
3, 661344, Note_off_c, 0, 53, 64
3, 661632, Note_on_c, 0, 53, 92
3, 661728, Note_off_c, 0, 53, 64
3, 662016, Note_on_c, 0, 53, 92
3, 662112, Note_off_c, 0, 53, 64
3, 662400, Note_on_c, 0, 55, 92
3, 662496, Note_off_c, 0, 55, 64
3, 662784, Note_on_c, 0, 55, 92
3, 662880, Note_off_c, 0, 55, 64
3, 663168, Note_on_c, 0, 55, 92
3, 663264, Note_off_c, 0, 55, 64
3, 663552, Note_on_c, 0, 55, 92
3, 663648, Note_off_c, 0, 55, 64
3, 663936, Note_on_c, 0, 55, 92
3, 664032, Note_off_c, 0, 55, 64
3, 664320, Note_on_c, 0, 55, 92
3, 664416, Note_off_c, 0, 55, 64
3, 664704, Note_on_c, 0, 55, 92
3, 664800, Note_off_c, 0, 55, 64
3, 665088, Note_on_c, 0, 55, 92
3, 665184, Note_off_c, 0, 55, 64
3, 665472, Note_on_c, 0, 56, 92
3, 665568, Note_off_c, 0, 56, 64
3, 665856, Note_on_c, 0, 56, 92
3, 665952, Note_off_c, 0, 56, 64
3, 666240, Note_on_c, 0, 57, 92
3, 666336, Note_off_c, 0, 57, 64
3, 666624, Note_on_c, 0, 57, 92
3, 666720, Note_off_c, 0, 57, 64
3, 667008, Note_on_c, 0, 55, 92
3, 667104, Note_off_c, 0, 55, 64
3, 667392, Note_on_c, 0, 55, 92
3, 667488, Note_off_c, 0, 55, 64
3, 667776, Note_on_c, 0, 55, 92
3, 667872, Note_off_c, 0, 55, 64
3, 668160, Note_on_c, 0, 55, 92
3, 668256, Note_off_c, 0, 55, 64
3, 668544, Note_on_c, 0, 55, 92
3, 668640, Note_off_c, 0, 55, 64
3, 668928, Note_on_c, 0, 55, 92
3, 669024, Note_off_c, 0, 55, 64
3, 669312, Note_on_c, 0, 55, 92
3, 669408, Note_off_c, 0, 55, 64
3, 669696, Note_on_c, 0, 55, 92
3, 669792, Note_off_c, 0, 55, 64
3, 670080, Note_on_c, 0, 55, 92
3, 670176, Note_off_c, 0, 55, 64
3, 670464, Note_on_c, 0, 55, 92
3, 670560, Note_off_c, 0, 55, 64
3, 670848, Note_on_c, 0, 55, 92
3, 670944, Note_off_c, 0, 55, 64
3, 671232, Note_on_c, 0, 55, 92
3, 671328, Note_off_c, 0, 55, 64
3, 671616, Note_on_c, 0, 55, 92
3, 671712, Note_off_c, 0, 55, 64
3, 672000, Note_on_c, 0, 55, 92
3, 672096, Note_off_c, 0, 55, 64
3, 672384, Note_on_c, 0, 55, 92
3, 672480, Note_off_c, 0, 55, 64
3, 672768, Note_on_c, 0, 55, 92
3, 672864, Note_off_c, 0, 55, 64
3, 673152, Note_on_c, 0, 55, 92
3, 673248, Note_off_c, 0, 55, 64
3, 673536, Note_on_c, 0, 55, 92
3, 673632, Note_off_c, 0, 55, 64
3, 673920, Note_on_c, 0, 55, 92
3, 674016, Note_off_c, 0, 55, 64
3, 674304, Note_on_c, 0, 55, 92
3, 674400, Note_off_c, 0, 55, 64
3, 674688, Note_on_c, 0, 55, 92
3, 674784, Note_off_c, 0, 55, 64
3, 675072, Note_on_c, 0, 55, 92
3, 675168, Note_off_c, 0, 55, 64
3, 675456, Note_on_c, 0, 55, 92
3, 675840, Note_off_c, 0, 55, 64
3, 676224, Note_on_c, 0, 60, 92
3, 676416, Note_off_c, 0, 60, 64
3, 676416, Note_on_c, 0, 60, 92
3, 676608, Note_off_c, 0, 60, 64
3, 676608, Note_on_c, 0, 55, 92
3, 676800, Note_off_c, 0, 55, 64
3, 676800, Note_on_c, 0, 55, 92
3, 676992, Note_off_c, 0, 55, 64
3, 676992, Note_on_c, 0, 52, 92
3, 677184, Note_off_c, 0, 52, 64
3, 677184, Note_on_c, 0, 52, 92
3, 677376, Note_off_c, 0, 52, 64
3, 677376, Note_on_c, 0, 57, 92
3, 677568, Note_off_c, 0, 57, 64
3, 677568, Note_on_c, 0, 57, 92
3, 677760, Note_off_c, 0, 57, 64
3, 677760, Note_on_c, 0, 53, 92
3, 677952, Note_off_c, 0, 53, 64
3, 677952, Note_on_c, 0, 53, 92
3, 678144, Note_off_c, 0, 53, 64
3, 678144, Note_on_c, 0, 50, 92
3, 678336, Note_off_c, 0, 50, 64
3, 678336, Note_on_c, 0, 50, 92
3, 678528, Note_off_c, 0, 50, 64
3, 678528, Note_on_c, 0, 55, 92
3, 678720, Note_off_c, 0, 55, 64
3, 678720, Note_on_c, 0, 55, 92
3, 678912, Note_off_c, 0, 55, 64
3, 678912, Note_on_c, 0, 52, 92
3, 679104, Note_off_c, 0, 52, 64
3, 679104, Note_on_c, 0, 52, 92
3, 679296, Note_off_c, 0, 52, 64
3, 679296, Note_on_c, 0, 48, 92
3, 679488, Note_off_c, 0, 48, 64
3, 679488, Note_on_c, 0, 48, 92
3, 679680, Note_off_c, 0, 48, 64
3, 679680, Note_on_c, 0, 43, 92
3, 680064, Note_off_c, 0, 43, 64
3, 680064, Note_on_c, 0, 43, 92
3, 680448, Note_off_c, 0, 43, 64
3, 680448, Note_on_c, 0, 43, 92
3, 680832, Note_off_c, 0, 43, 64
3, 680832, Note_on_c, 0, 48, 92
3, 681024, Note_off_c, 0, 48, 64
3, 681024, Note_on_c, 0, 50, 92
3, 681216, Note_off_c, 0, 50, 64
3, 681216, Note_on_c, 0, 52, 92
3, 681408, Note_off_c, 0, 52, 64
3, 681408, Note_on_c, 0, 53, 92
3, 681600, Note_off_c, 0, 53, 64
3, 681600, Note_on_c, 0, 55, 92
3, 681984, Note_off_c, 0, 55, 64
3, 681984, Note_on_c, 0, 64, 92
3, 681984, Note_on_c, 0, 60, 92
3, 681984, Note_on_c, 0, 55, 92
3, 682368, Note_off_c, 0, 55, 64
3, 682368, Note_off_c, 0, 60, 64
3, 682368, Note_off_c, 0, 64, 64
3, 682368, Note_on_c, 0, 62, 92
3, 682368, Note_on_c, 0, 59, 92
3, 682368, Note_on_c, 0, 55, 92
3, 682752, Note_off_c, 0, 55, 64
3, 682752, Note_off_c, 0, 59, 64
3, 682752, Note_off_c, 0, 62, 64
3, 682752, Note_on_c, 0, 65, 92
3, 682752, Note_on_c, 0, 62, 92
3, 682752, Note_on_c, 0, 55, 92
3, 683136, Note_off_c, 0, 55, 64
3, 683136, Note_off_c, 0, 62, 64
3, 683136, Note_off_c, 0, 65, 64
3, 683136, Note_on_c, 0, 64, 92
3, 683136, Note_on_c, 0, 60, 92
3, 683136, Note_on_c, 0, 55, 92
3, 683520, Note_off_c, 0, 55, 64
3, 683520, Note_off_c, 0, 60, 64
3, 683520, Note_off_c, 0, 64, 64
3, 684288, End_track
4, 0, Start_track
4, 0, Title_t, "Track 3"
4, 0, Note_on_c, 0, 36, 102
4, 384, Note_off_c, 0, 36, 64
4, 768, Note_on_c, 0, 36, 102
4, 1152, Note_off_c, 0, 36, 64
4, 1536, Note_on_c, 0, 36, 102
4, 1920, Note_off_c, 0, 36, 64
4, 2304, Note_on_c, 0, 36, 102
4, 2688, Note_off_c, 0, 36, 64
4, 3072, Note_on_c, 0, 36, 102
4, 3456, Note_off_c, 0, 36, 64
4, 3456, Note_on_c, 0, 48, 102
4, 3648, Note_off_c, 0, 48, 64
4, 3648, Note_on_c, 0, 36, 102
4, 3840, Note_off_c, 0, 36, 64
4, 3840, Note_on_c, 0, 36, 102
4, 4224, Note_off_c, 0, 36, 64
4, 4224, Note_on_c, 0, 48, 102
4, 4416, Note_off_c, 0, 48, 64
4, 4416, Note_on_c, 0, 36, 102
4, 4608, Note_off_c, 0, 36, 64
4, 4608, Note_on_c, 0, 36, 102
4, 4992, Note_off_c, 0, 36, 64
4, 4992, Note_on_c, 0, 48, 102
4, 5184, Note_off_c, 0, 48, 64
4, 5184, Note_on_c, 0, 36, 102
4, 5376, Note_off_c, 0, 36, 64
4, 5376, Note_on_c, 0, 36, 102
4, 5760, Note_off_c, 0, 36, 64
4, 5760, Note_on_c, 0, 48, 102
4, 5952, Note_off_c, 0, 48, 64
4, 5952, Note_on_c, 0, 36, 102
4, 6144, Note_off_c, 0, 36, 64
4, 6144, Note_on_c, 0, 36, 102
4, 6528, Note_off_c, 0, 36, 64
4, 6720, Note_on_c, 0, 48, 102
4, 6912, Note_off_c, 0, 48, 64
4, 6912, Note_on_c, 0, 53, 102
4, 7104, Note_off_c, 0, 53, 64
4, 7104, Note_on_c, 0, 48, 102
4, 7296, Note_off_c, 0, 48, 64
4, 7296, Note_on_c, 0, 53, 102
4, 7488, Note_off_c, 0, 53, 64
4, 7488, Note_on_c, 0, 48, 102
4, 7680, Note_off_c, 0, 48, 64
4, 8256, Note_on_c, 0, 48, 102
4, 8448, Note_off_c, 0, 48, 64
4, 8448, Note_on_c, 0, 53, 102
4, 8640, Note_off_c, 0, 53, 64
4, 8640, Note_on_c, 0, 48, 102
4, 8832, Note_off_c, 0, 48, 64
4, 8832, Note_on_c, 0, 53, 102
4, 9024, Note_off_c, 0, 53, 64
4, 9024, Note_on_c, 0, 48, 102
4, 9216, Note_off_c, 0, 48, 64
4, 9600, Note_on_c, 0, 60, 102
4, 9792, Note_off_c, 0, 60, 64
4, 9792, Note_on_c, 0, 48, 102
4, 9984, Note_off_c, 0, 48, 64
4, 9984, Note_on_c, 0, 55, 102
4, 10176, Note_off_c, 0, 55, 64
4, 10176, Note_on_c, 0, 43, 102
4, 10368, Note_off_c, 0, 43, 64
4, 10560, Note_on_c, 0, 43, 102
4, 10752, Note_off_c, 0, 43, 64
4, 10752, Note_on_c, 0, 48, 102
4, 10944, Note_off_c, 0, 48, 64
4, 10944, Note_on_c, 0, 43, 102
4, 11136, Note_off_c, 0, 43, 64
4, 11136, Note_on_c, 0, 48, 102
4, 11328, Note_off_c, 0, 48, 64
4, 11328, Note_on_c, 0, 43, 102
4, 11520, Note_off_c, 0, 43, 64
4, 12096, Note_on_c, 0, 43, 102
4, 12288, Note_off_c, 0, 43, 64
4, 12288, Note_on_c, 0, 48, 102
4, 12480, Note_off_c, 0, 48, 64
4, 12480, Note_on_c, 0, 43, 102
4, 12672, Note_off_c, 0, 43, 64
4, 12672, Note_on_c, 0, 48, 102
4, 12864, Note_off_c, 0, 48, 64
4, 12864, Note_on_c, 0, 43, 102
4, 13056, Note_off_c, 0, 43, 64
4, 13440, Note_on_c, 0, 55, 102
4, 13632, Note_off_c, 0, 55, 64
4, 13632, Note_on_c, 0, 43, 102
4, 13824, Note_off_c, 0, 43, 64
4, 13824, Note_on_c, 0, 60, 102
4, 14016, Note_off_c, 0, 60, 64
4, 14016, Note_on_c, 0, 48, 102
4, 14208, Note_off_c, 0, 48, 64
4, 14208, Note_on_c, 0, 52, 102
4, 14400, Note_off_c, 0, 52, 64
4, 14400, Note_on_c, 0, 48, 102
4, 14592, Note_off_c, 0, 48, 64
4, 14592, Note_on_c, 0, 60, 102
4, 14784, Note_off_c, 0, 60, 64
4, 14784, Note_on_c, 0, 48, 102
4, 14976, Note_off_c, 0, 48, 64
4, 14976, Note_on_c, 0, 52, 102
4, 15168, Note_off_c, 0, 52, 64
4, 15168, Note_on_c, 0, 48, 102
4, 15360, Note_off_c, 0, 48, 64
4, 15360, Note_on_c, 0, 60, 102
4, 15552, Note_off_c, 0, 60, 64
4, 15552, Note_on_c, 0, 48, 102
4, 15744, Note_off_c, 0, 48, 64
4, 15744, Note_on_c, 0, 52, 102
4, 15936, Note_off_c, 0, 52, 64
4, 15936, Note_on_c, 0, 48, 102
4, 16128, Note_off_c, 0, 48, 64
4, 16128, Note_on_c, 0, 53, 102
4, 16512, Note_off_c, 0, 53, 64
4, 16896, Note_on_c, 0, 62, 102
4, 17088, Note_off_c, 0, 62, 64
4, 17088, Note_on_c, 0, 50, 102
4, 17280, Note_off_c, 0, 50, 64
4, 17280, Note_on_c, 0, 54, 102
4, 17472, Note_off_c, 0, 54, 64
4, 17472, Note_on_c, 0, 50, 102
4, 17664, Note_off_c, 0, 50, 64
4, 17664, Note_on_c, 0, 62, 102
4, 17856, Note_off_c, 0, 62, 64
4, 17856, Note_on_c, 0, 50, 102
4, 18048, Note_off_c, 0, 50, 64
4, 18048, Note_on_c, 0, 54, 102
4, 18240, Note_off_c, 0, 54, 64
4, 18240, Note_on_c, 0, 50, 102
4, 18432, Note_off_c, 0, 50, 64
4, 18432, Note_on_c, 0, 62, 102
4, 18624, Note_off_c, 0, 62, 64
4, 18624, Note_on_c, 0, 50, 102
4, 18816, Note_off_c, 0, 50, 64
4, 18816, Note_on_c, 0, 54, 102
4, 19008, Note_off_c, 0, 54, 64
4, 19008, Note_on_c, 0, 50, 102
4, 19200, Note_off_c, 0, 50, 64
4, 19200, Note_on_c, 0, 55, 102
4, 19584, Note_off_c, 0, 55, 64
4, 19968, Note_on_c, 0, 55, 102
4, 20160, Note_off_c, 0, 55, 64
4, 20160, Note_on_c, 0, 50, 102
4, 20352, Note_off_c, 0, 50, 64
4, 20352, Note_on_c, 0, 47, 102
4, 20544, Note_off_c, 0, 47, 64
4, 20544, Note_on_c, 0, 43, 102
4, 20736, Note_off_c, 0, 43, 64
4, 20736, Note_on_c, 0, 55, 102
4, 21120, Note_off_c, 0, 55, 64
4, 21504, Note_on_c, 0, 55, 102
4, 21696, Note_off_c, 0, 55, 64
4, 21696, Note_on_c, 0, 50, 102
4, 21888, Note_off_c, 0, 50, 64
4, 21888, Note_on_c, 0, 47, 102
4, 22080, Note_off_c, 0, 47, 64
4, 22080, Note_on_c, 0, 43, 102
4, 22272, Note_off_c, 0, 43, 64
4, 22272, Note_on_c, 0, 55, 102
4, 22656, Note_off_c, 0, 55, 64
4, 23040, Note_on_c, 0, 55, 102
4, 23232, Note_off_c, 0, 55, 64
4, 23232, Note_on_c, 0, 50, 102
4, 23424, Note_off_c, 0, 50, 64
4, 23424, Note_on_c, 0, 47, 102
4, 23616, Note_off_c, 0, 47, 64
4, 23616, Note_on_c, 0, 43, 102
4, 23808, Note_off_c, 0, 43, 64
4, 23808, Note_on_c, 0, 48, 102
4, 24192, Note_off_c, 0, 48, 64
4, 24576, Note_on_c, 0, 48, 102
4, 24768, Note_off_c, 0, 48, 64
4, 24768, Note_on_c, 0, 43, 102
4, 24960, Note_off_c, 0, 43, 64
4, 24960, Note_on_c, 0, 39, 102
4, 25152, Note_off_c, 0, 39, 64
4, 25152, Note_on_c, 0, 36, 102
4, 25344, Note_off_c, 0, 36, 64
4, 25344, Note_on_c, 0, 48, 102
4, 25728, Note_off_c, 0, 48, 64
4, 26112, Note_on_c, 0, 48, 102
4, 26304, Note_off_c, 0, 48, 64
4, 26304, Note_on_c, 0, 43, 102
4, 26496, Note_off_c, 0, 43, 64
4, 26496, Note_on_c, 0, 39, 102
4, 26688, Note_off_c, 0, 39, 64
4, 26688, Note_on_c, 0, 36, 102
4, 26880, Note_off_c, 0, 36, 64
4, 26880, Note_on_c, 0, 48, 102
4, 27264, Note_off_c, 0, 48, 64
4, 30720, Note_on_c, 0, 60, 102
4, 30912, Note_off_c, 0, 60, 64
4, 30912, Note_on_c, 0, 48, 102
4, 31104, Note_off_c, 0, 48, 64
4, 31104, Note_on_c, 0, 52, 102
4, 31296, Note_off_c, 0, 52, 64
4, 31296, Note_on_c, 0, 48, 102
4, 31488, Note_off_c, 0, 48, 64
4, 31488, Note_on_c, 0, 55, 102
4, 31872, Note_off_c, 0, 55, 64
4, 31872, Note_on_c, 0, 43, 102
4, 32256, Note_off_c, 0, 43, 64
4, 32256, Note_on_c, 0, 48, 102
4, 32640, Note_off_c, 0, 48, 64
4, 36864, Note_on_c, 0, 60, 102
4, 37056, Note_off_c, 0, 60, 64
4, 37056, Note_on_c, 0, 48, 102
4, 37248, Note_off_c, 0, 48, 64
4, 37248, Note_on_c, 0, 52, 102
4, 37440, Note_off_c, 0, 52, 64
4, 37440, Note_on_c, 0, 48, 102
4, 37632, Note_off_c, 0, 48, 64
4, 37632, Note_on_c, 0, 55, 102
4, 38016, Note_off_c, 0, 55, 64
4, 38016, Note_on_c, 0, 43, 102
4, 38400, Note_off_c, 0, 43, 64
4, 38400, Note_on_c, 0, 36, 102
4, 38784, Note_off_c, 0, 36, 64
4, 43008, Note_on_c, 0, 43, 102
4, 43392, Note_off_c, 0, 43, 64
4, 47616, Note_on_c, 0, 36, 102
4, 48000, Note_off_c, 0, 36, 64
4, 50688, Note_on_c, 0, 43, 102
4, 51072, Note_off_c, 0, 43, 64
4, 53760, Note_on_c, 0, 38, 102
4, 54144, Note_off_c, 0, 38, 64
4, 56832, Note_on_c, 0, 43, 102
4, 57216, Note_off_c, 0, 43, 64
4, 59904, Note_on_c, 0, 43, 102
4, 60288, Note_off_c, 0, 43, 64
4, 62208, Note_on_c, 0, 43, 102
4, 62592, Note_off_c, 0, 43, 64
4, 64512, Note_on_c, 0, 43, 102
4, 64896, Note_off_c, 0, 43, 64
4, 66816, Note_on_c, 0, 43, 102
4, 67200, Note_off_c, 0, 43, 64
4, 88320, Note_on_c, 0, 43, 102
4, 88704, Note_off_c, 0, 43, 64
4, 88896, Note_on_c, 0, 43, 102
4, 89088, Note_off_c, 0, 43, 64
4, 89088, Note_on_c, 0, 48, 102
4, 89280, Note_off_c, 0, 48, 64
4, 89280, Note_on_c, 0, 43, 102
4, 89472, Note_off_c, 0, 43, 64
4, 89472, Note_on_c, 0, 48, 102
4, 89664, Note_off_c, 0, 48, 64
4, 89664, Note_on_c, 0, 43, 102
4, 89856, Note_off_c, 0, 43, 64
4, 90432, Note_on_c, 0, 43, 102
4, 90624, Note_off_c, 0, 43, 64
4, 90624, Note_on_c, 0, 48, 102
4, 90816, Note_off_c, 0, 48, 64
4, 90816, Note_on_c, 0, 43, 102
4, 91008, Note_off_c, 0, 43, 64
4, 91008, Note_on_c, 0, 48, 102
4, 91200, Note_off_c, 0, 48, 64
4, 91200, Note_on_c, 0, 43, 102
4, 91392, Note_off_c, 0, 43, 64
4, 91776, Note_on_c, 0, 55, 102
4, 91968, Note_off_c, 0, 55, 64
4, 91968, Note_on_c, 0, 43, 102
4, 92160, Note_off_c, 0, 43, 64
4, 92160, Note_on_c, 0, 48, 102
4, 92544, Note_off_c, 0, 48, 64
4, 92736, Note_on_c, 0, 48, 102
4, 92928, Note_off_c, 0, 48, 64
4, 92928, Note_on_c, 0, 53, 102
4, 93120, Note_off_c, 0, 53, 64
4, 93120, Note_on_c, 0, 48, 102
4, 93312, Note_off_c, 0, 48, 64
4, 93312, Note_on_c, 0, 53, 102
4, 93504, Note_off_c, 0, 53, 64
4, 93504, Note_on_c, 0, 48, 102
4, 93696, Note_off_c, 0, 48, 64
4, 94272, Note_on_c, 0, 48, 102
4, 94464, Note_off_c, 0, 48, 64
4, 94464, Note_on_c, 0, 53, 102
4, 94656, Note_off_c, 0, 53, 64
4, 94656, Note_on_c, 0, 48, 102
4, 94848, Note_off_c, 0, 48, 64
4, 94848, Note_on_c, 0, 53, 102
4, 95040, Note_off_c, 0, 53, 64
4, 95040, Note_on_c, 0, 48, 102
4, 95232, Note_off_c, 0, 48, 64
4, 95616, Note_on_c, 0, 55, 102
4, 95808, Note_off_c, 0, 55, 64
4, 95808, Note_on_c, 0, 43, 102
4, 96000, Note_off_c, 0, 43, 64
4, 96000, Note_on_c, 0, 48, 102
4, 96384, Note_off_c, 0, 48, 64
4, 122880, Note_on_c, 0, 50, 102
4, 123264, Note_off_c, 0, 50, 64
4, 123456, Note_on_c, 0, 50, 102
4, 123648, Note_off_c, 0, 50, 64
4, 123648, Note_on_c, 0, 55, 102
4, 123840, Note_off_c, 0, 55, 64
4, 123840, Note_on_c, 0, 50, 102
4, 124032, Note_off_c, 0, 50, 64
4, 124032, Note_on_c, 0, 55, 102
4, 124224, Note_off_c, 0, 55, 64
4, 124224, Note_on_c, 0, 50, 102
4, 124416, Note_off_c, 0, 50, 64
4, 124992, Note_on_c, 0, 50, 102
4, 125184, Note_off_c, 0, 50, 64
4, 125184, Note_on_c, 0, 55, 102
4, 125376, Note_off_c, 0, 55, 64
4, 125376, Note_on_c, 0, 50, 102
4, 125568, Note_off_c, 0, 50, 64
4, 125568, Note_on_c, 0, 55, 102
4, 125760, Note_off_c, 0, 55, 64
4, 125760, Note_on_c, 0, 50, 102
4, 125952, Note_off_c, 0, 50, 64
4, 126336, Note_on_c, 0, 62, 102
4, 126528, Note_off_c, 0, 62, 64
4, 126528, Note_on_c, 0, 50, 102
4, 126720, Note_off_c, 0, 50, 64
4, 126720, Note_on_c, 0, 57, 102
4, 126912, Note_off_c, 0, 57, 64
4, 126912, Note_on_c, 0, 45, 102
4, 127104, Note_off_c, 0, 45, 64
4, 127296, Note_on_c, 0, 45, 102
4, 127488, Note_off_c, 0, 45, 64
4, 127488, Note_on_c, 0, 50, 102
4, 127680, Note_off_c, 0, 50, 64
4, 127680, Note_on_c, 0, 45, 102
4, 127872, Note_off_c, 0, 45, 64
4, 127872, Note_on_c, 0, 50, 102
4, 128064, Note_off_c, 0, 50, 64
4, 128064, Note_on_c, 0, 45, 102
4, 128256, Note_off_c, 0, 45, 64
4, 128832, Note_on_c, 0, 45, 102
4, 129024, Note_off_c, 0, 45, 64
4, 129024, Note_on_c, 0, 50, 102
4, 129216, Note_off_c, 0, 50, 64
4, 129216, Note_on_c, 0, 45, 102
4, 129408, Note_off_c, 0, 45, 64
4, 129408, Note_on_c, 0, 50, 102
4, 129600, Note_off_c, 0, 50, 64
4, 129600, Note_on_c, 0, 45, 102
4, 129792, Note_off_c, 0, 45, 64
4, 130176, Note_on_c, 0, 57, 102
4, 130368, Note_off_c, 0, 57, 64
4, 130368, Note_on_c, 0, 45, 102
4, 130560, Note_off_c, 0, 45, 64
4, 130560, Note_on_c, 0, 50, 102
4, 130752, Note_off_c, 0, 50, 64
4, 130752, Note_on_c, 0, 50, 102
4, 130944, Note_off_c, 0, 50, 64
4, 130944, Note_on_c, 0, 50, 102
4, 131136, Note_off_c, 0, 50, 64
4, 131136, Note_on_c, 0, 50, 102
4, 131328, Note_off_c, 0, 50, 64
4, 131328, Note_on_c, 0, 53, 102
4, 131520, Note_off_c, 0, 53, 64
4, 131520, Note_on_c, 0, 53, 102
4, 131712, Note_off_c, 0, 53, 64
4, 131712, Note_on_c, 0, 53, 102
4, 131904, Note_off_c, 0, 53, 64
4, 131904, Note_on_c, 0, 53, 102
4, 132096, Note_off_c, 0, 53, 64
4, 132096, Note_on_c, 0, 46, 102
4, 132288, Note_off_c, 0, 46, 64
4, 132288, Note_on_c, 0, 46, 102
4, 132480, Note_off_c, 0, 46, 64
4, 132480, Note_on_c, 0, 46, 102
4, 132672, Note_off_c, 0, 46, 64
4, 132672, Note_on_c, 0, 46, 102
4, 132864, Note_off_c, 0, 46, 64
4, 132864, Note_on_c, 0, 46, 102
4, 133056, Note_off_c, 0, 46, 64
4, 133056, Note_on_c, 0, 46, 102
4, 133248, Note_off_c, 0, 46, 64
4, 133248, Note_on_c, 0, 46, 102
4, 133440, Note_off_c, 0, 46, 64
4, 133440, Note_on_c, 0, 46, 102
4, 133632, Note_off_c, 0, 46, 64
4, 133632, Note_on_c, 0, 45, 102
4, 133824, Note_off_c, 0, 45, 64
4, 133824, Note_on_c, 0, 45, 102
4, 134016, Note_off_c, 0, 45, 64
4, 134016, Note_on_c, 0, 45, 102
4, 134208, Note_off_c, 0, 45, 64
4, 134208, Note_on_c, 0, 45, 102
4, 134400, Note_off_c, 0, 45, 64
4, 134400, Note_on_c, 0, 45, 102
4, 134592, Note_off_c, 0, 45, 64
4, 134592, Note_on_c, 0, 45, 102
4, 134784, Note_off_c, 0, 45, 64
4, 134784, Note_on_c, 0, 45, 102
4, 134976, Note_off_c, 0, 45, 64
4, 134976, Note_on_c, 0, 45, 102
4, 135168, Note_off_c, 0, 45, 64
4, 135168, Note_on_c, 0, 43, 102
4, 135360, Note_off_c, 0, 43, 64
4, 135360, Note_on_c, 0, 43, 102
4, 135552, Note_off_c, 0, 43, 64
4, 135552, Note_on_c, 0, 43, 102
4, 135744, Note_off_c, 0, 43, 64
4, 135744, Note_on_c, 0, 43, 102
4, 135936, Note_off_c, 0, 43, 64
4, 135936, Note_on_c, 0, 43, 102
4, 136128, Note_off_c, 0, 43, 64
4, 136128, Note_on_c, 0, 43, 102
4, 136320, Note_off_c, 0, 43, 64
4, 136320, Note_on_c, 0, 43, 102
4, 136512, Note_off_c, 0, 43, 64
4, 136512, Note_on_c, 0, 43, 102
4, 136704, Note_off_c, 0, 43, 64
4, 136704, Note_on_c, 0, 41, 102
4, 136896, Note_off_c, 0, 41, 64
4, 136896, Note_on_c, 0, 41, 102
4, 137088, Note_off_c, 0, 41, 64
4, 137088, Note_on_c, 0, 41, 102
4, 137280, Note_off_c, 0, 41, 64
4, 137280, Note_on_c, 0, 41, 102
4, 137472, Note_off_c, 0, 41, 64
4, 137472, Note_on_c, 0, 41, 102
4, 137664, Note_off_c, 0, 41, 64
4, 137664, Note_on_c, 0, 41, 102
4, 137856, Note_off_c, 0, 41, 64
4, 137856, Note_on_c, 0, 41, 102
4, 138048, Note_off_c, 0, 41, 64
4, 138048, Note_on_c, 0, 41, 102
4, 138240, Note_off_c, 0, 41, 64
4, 138240, Note_on_c, 0, 40, 102
4, 138624, Note_off_c, 0, 40, 64
4, 138816, Note_on_c, 0, 45, 102
4, 139008, Note_off_c, 0, 45, 64
4, 139008, Note_on_c, 0, 50, 102
4, 139200, Note_off_c, 0, 50, 64
4, 139200, Note_on_c, 0, 45, 102
4, 139392, Note_off_c, 0, 45, 64
4, 139584, Note_on_c, 0, 45, 102
4, 139776, Note_off_c, 0, 45, 64
4, 139776, Note_on_c, 0, 57, 102
4, 139968, Note_off_c, 0, 57, 64
4, 139968, Note_on_c, 0, 45, 102
4, 140160, Note_off_c, 0, 45, 64
4, 140160, Note_on_c, 0, 48, 102
4, 140352, Note_off_c, 0, 48, 64
4, 140352, Note_on_c, 0, 45, 102
4, 140544, Note_off_c, 0, 45, 64
4, 140544, Note_on_c, 0, 50, 102
4, 140736, Note_off_c, 0, 50, 64
4, 140736, Note_on_c, 0, 47, 102
4, 140928, Note_off_c, 0, 47, 64
4, 140928, Note_on_c, 0, 52, 102
4, 141120, Note_off_c, 0, 52, 64
4, 141120, Note_on_c, 0, 40, 102
4, 141312, Note_off_c, 0, 40, 64
4, 141312, Note_on_c, 0, 45, 102
4, 141696, Note_off_c, 0, 45, 64
4, 142080, Note_on_c, 0, 48, 102
4, 142464, Note_off_c, 0, 48, 64
4, 142848, Note_on_c, 0, 50, 102
4, 143232, Note_off_c, 0, 50, 64
4, 143616, Note_on_c, 0, 48, 102
4, 144000, Note_off_c, 0, 48, 64
4, 144384, Note_on_c, 0, 47, 102
4, 144768, Note_off_c, 0, 47, 64
4, 145152, Note_on_c, 0, 45, 102
4, 145536, Note_off_c, 0, 45, 64
4, 145920, Note_on_c, 0, 44, 102
4, 146304, Note_off_c, 0, 44, 64
4, 146688, Note_on_c, 0, 40, 102
4, 147072, Note_off_c, 0, 40, 64
4, 147456, Note_on_c, 0, 45, 102
4, 147840, Note_off_c, 0, 45, 64
4, 148224, Note_on_c, 0, 48, 102
4, 148608, Note_off_c, 0, 48, 64
4, 148992, Note_on_c, 0, 50, 102
4, 149376, Note_off_c, 0, 50, 64
4, 149760, Note_on_c, 0, 38, 102
4, 150144, Note_off_c, 0, 38, 64
4, 150528, Note_on_c, 0, 43, 102
4, 150912, Note_off_c, 0, 43, 64
4, 151296, Note_on_c, 0, 41, 102
4, 151680, Note_off_c, 0, 41, 64
4, 152064, Note_on_c, 0, 40, 102
4, 152448, Note_off_c, 0, 40, 64
4, 152832, Note_on_c, 0, 45, 102
4, 153216, Note_off_c, 0, 45, 64
4, 153600, Note_on_c, 0, 38, 102
4, 153984, Note_off_c, 0, 38, 64
4, 154368, Note_on_c, 0, 41, 102
4, 154752, Note_off_c, 0, 41, 64
4, 155136, Note_on_c, 0, 45, 102
4, 155520, Note_off_c, 0, 45, 64
4, 155904, Note_on_c, 0, 50, 102
4, 156288, Note_off_c, 0, 50, 64
4, 156672, Note_on_c, 0, 46, 102
4, 157056, Note_off_c, 0, 46, 64
4, 157440, Note_on_c, 0, 43, 102
4, 157824, Note_off_c, 0, 43, 64
4, 158208, Note_on_c, 0, 40, 102
4, 158592, Note_off_c, 0, 40, 64
4, 158976, Note_on_c, 0, 52, 102
4, 159360, Note_off_c, 0, 52, 64
4, 159744, Note_on_c, 0, 45, 102
4, 160128, Note_off_c, 0, 45, 64
4, 169728, Note_on_c, 0, 40, 102
4, 170112, Note_off_c, 0, 40, 64
4, 170304, Note_on_c, 0, 52, 102
4, 170496, Note_off_c, 0, 52, 64
4, 170496, Note_on_c, 0, 57, 102
4, 170688, Note_off_c, 0, 57, 64
4, 170688, Note_on_c, 0, 52, 102
4, 170880, Note_off_c, 0, 52, 64
4, 170880, Note_on_c, 0, 57, 102
4, 171072, Note_off_c, 0, 57, 64
4, 171072, Note_on_c, 0, 52, 102
4, 171264, Note_off_c, 0, 52, 64
4, 171648, Note_on_c, 0, 52, 102
4, 171840, Note_off_c, 0, 52, 64
4, 171840, Note_on_c, 0, 40, 102
4, 172032, Note_off_c, 0, 40, 64
4, 172032, Note_on_c, 0, 45, 102
4, 172416, Note_off_c, 0, 45, 64
4, 172608, Note_on_c, 0, 45, 102
4, 172800, Note_off_c, 0, 45, 64
4, 172800, Note_on_c, 0, 50, 102
4, 172992, Note_off_c, 0, 50, 64
4, 172992, Note_on_c, 0, 45, 102
4, 173184, Note_off_c, 0, 45, 64
4, 173184, Note_on_c, 0, 50, 102
4, 173376, Note_off_c, 0, 50, 64
4, 173376, Note_on_c, 0, 45, 102
4, 173568, Note_off_c, 0, 45, 64
4, 173952, Note_on_c, 0, 57, 102
4, 174144, Note_off_c, 0, 57, 64
4, 174144, Note_on_c, 0, 45, 102
4, 174336, Note_off_c, 0, 45, 64
4, 174336, Note_on_c, 0, 38, 102
4, 174720, Note_off_c, 0, 38, 64
4, 174912, Note_on_c, 0, 50, 102
4, 175104, Note_off_c, 0, 50, 64
4, 175104, Note_on_c, 0, 55, 102
4, 175296, Note_off_c, 0, 55, 64
4, 175296, Note_on_c, 0, 50, 102
4, 175488, Note_off_c, 0, 50, 64
4, 175488, Note_on_c, 0, 55, 102
4, 175680, Note_off_c, 0, 55, 64
4, 175680, Note_on_c, 0, 50, 102
4, 175872, Note_off_c, 0, 50, 64
4, 176256, Note_on_c, 0, 50, 102
4, 176448, Note_off_c, 0, 50, 64
4, 176448, Note_on_c, 0, 38, 102
4, 176640, Note_off_c, 0, 38, 64
4, 176640, Note_on_c, 0, 43, 102
4, 177024, Note_off_c, 0, 43, 64
4, 177216, Note_on_c, 0, 43, 102
4, 177408, Note_off_c, 0, 43, 64
4, 177408, Note_on_c, 0, 48, 102
4, 177600, Note_off_c, 0, 48, 64
4, 177600, Note_on_c, 0, 43, 102
4, 177792, Note_off_c, 0, 43, 64
4, 177792, Note_on_c, 0, 48, 102
4, 177984, Note_off_c, 0, 48, 64
4, 177984, Note_on_c, 0, 43, 102
4, 178176, Note_off_c, 0, 43, 64
4, 178560, Note_on_c, 0, 55, 102
4, 178752, Note_off_c, 0, 55, 64
4, 178752, Note_on_c, 0, 43, 102
4, 178944, Note_off_c, 0, 43, 64
4, 178944, Note_on_c, 0, 36, 102
4, 179328, Note_off_c, 0, 36, 64
4, 195840, Note_on_c, 0, 43, 102
4, 196224, Note_off_c, 0, 43, 64
4, 196608, Note_on_c, 0, 43, 102
4, 196992, Note_off_c, 0, 43, 64
4, 197376, Note_on_c, 0, 43, 102
4, 197760, Note_off_c, 0, 43, 64
4, 198144, Note_on_c, 0, 36, 102
4, 198528, Note_off_c, 0, 36, 64
4, 198912, Note_on_c, 0, 36, 102
4, 199296, Note_off_c, 0, 36, 64
4, 199680, Note_on_c, 0, 36, 102
4, 200064, Note_off_c, 0, 36, 64
4, 200448, Note_on_c, 0, 41, 102
4, 200832, Note_off_c, 0, 41, 64
4, 201216, Note_on_c, 0, 41, 102
4, 201600, Note_off_c, 0, 41, 64
4, 201984, Note_on_c, 0, 43, 102
4, 202368, Note_off_c, 0, 43, 64
4, 202752, Note_on_c, 0, 43, 102
4, 203136, Note_off_c, 0, 43, 64
4, 203520, Note_on_c, 0, 43, 102
4, 203904, Note_off_c, 0, 43, 64
4, 204288, Note_on_c, 0, 48, 102
4, 204672, Note_off_c, 0, 48, 64
4, 205056, Note_on_c, 0, 48, 102
4, 205440, Note_off_c, 0, 48, 64
4, 205824, Note_on_c, 0, 48, 102
4, 206208, Note_off_c, 0, 48, 64
4, 206592, Note_on_c, 0, 54, 102
4, 206976, Note_off_c, 0, 54, 64
4, 207360, Note_on_c, 0, 54, 102
4, 207744, Note_off_c, 0, 54, 64
4, 208128, Note_on_c, 0, 50, 102
4, 208512, Note_off_c, 0, 50, 64
4, 208896, Note_on_c, 0, 55, 102
4, 209280, Note_off_c, 0, 55, 64
4, 265728, Note_on_c, 0, 60, 102
4, 265920, Note_off_c, 0, 60, 64
4, 265920, Note_on_c, 0, 48, 102
4, 266112, Note_off_c, 0, 48, 64
4, 266112, Note_on_c, 0, 52, 102
4, 266304, Note_off_c, 0, 52, 64
4, 266304, Note_on_c, 0, 48, 102
4, 266496, Note_off_c, 0, 48, 64
4, 266496, Note_on_c, 0, 60, 102
4, 266688, Note_off_c, 0, 60, 64
4, 266688, Note_on_c, 0, 48, 102
4, 266880, Note_off_c, 0, 48, 64
4, 266880, Note_on_c, 0, 52, 102
4, 267072, Note_off_c, 0, 52, 64
4, 267072, Note_on_c, 0, 48, 102
4, 267264, Note_off_c, 0, 48, 64
4, 267264, Note_on_c, 0, 60, 102
4, 267456, Note_off_c, 0, 60, 64
4, 267456, Note_on_c, 0, 48, 102
4, 267648, Note_off_c, 0, 48, 64
4, 267648, Note_on_c, 0, 52, 102
4, 267840, Note_off_c, 0, 52, 64
4, 267840, Note_on_c, 0, 48, 102
4, 268032, Note_off_c, 0, 48, 64
4, 268032, Note_on_c, 0, 55, 102
4, 268416, Note_off_c, 0, 55, 64
4, 268416, Note_on_c, 0, 43, 102
4, 268800, Note_off_c, 0, 43, 64
4, 268800, Note_on_c, 0, 48, 102
4, 268992, Note_off_c, 0, 48, 64
4, 268992, Note_on_c, 0, 52, 102
4, 269184, Note_off_c, 0, 52, 64
4, 269184, Note_on_c, 0, 55, 102
4, 269376, Note_off_c, 0, 55, 64
4, 269376, Note_on_c, 0, 48, 102
4, 269568, Note_off_c, 0, 48, 64
4, 269568, Note_on_c, 0, 48, 102
4, 269760, Note_off_c, 0, 48, 64
4, 269760, Note_on_c, 0, 52, 102
4, 269952, Note_off_c, 0, 52, 64
4, 269952, Note_on_c, 0, 55, 102
4, 270144, Note_off_c, 0, 55, 64
4, 270144, Note_on_c, 0, 48, 102
4, 270336, Note_off_c, 0, 48, 64
4, 270336, Note_on_c, 0, 48, 102
4, 270528, Note_off_c, 0, 48, 64
4, 270528, Note_on_c, 0, 52, 102
4, 270720, Note_off_c, 0, 52, 64
4, 270720, Note_on_c, 0, 55, 102
4, 270912, Note_off_c, 0, 55, 64
4, 270912, Note_on_c, 0, 48, 102
4, 271104, Note_off_c, 0, 48, 64
4, 271104, Note_on_c, 0, 53, 102
4, 271296, Note_off_c, 0, 53, 64
4, 271296, Note_on_c, 0, 50, 102
4, 271488, Note_off_c, 0, 50, 64
4, 271488, Note_on_c, 0, 55, 102
4, 271680, Note_off_c, 0, 55, 64
4, 271680, Note_on_c, 0, 43, 102
4, 271872, Note_off_c, 0, 43, 64
4, 271872, Note_on_c, 0, 36, 102
4, 273408, Note_off_c, 0, 36, 64
4, 274944, Note_on_c, 0, 45, 102
4, 275328, Note_off_c, 0, 45, 64
4, 275712, Note_on_c, 0, 44, 102
4, 276096, Note_off_c, 0, 44, 64
4, 279168, Note_on_c, 0, 40, 102
4, 279552, Note_off_c, 0, 40, 64
4, 279552, Note_on_c, 0, 45, 102
4, 279936, Note_off_c, 0, 45, 64
4, 281088, Note_on_c, 0, 48, 102
4, 281472, Note_off_c, 0, 48, 64
4, 281856, Note_on_c, 0, 42, 102
4, 282240, Note_off_c, 0, 42, 64
4, 283392, Note_on_c, 0, 47, 102
4, 283776, Note_off_c, 0, 47, 64
4, 285696, Note_on_c, 0, 47, 102
4, 286080, Note_off_c, 0, 47, 64
4, 286464, Note_on_c, 0, 54, 102
4, 286848, Note_off_c, 0, 54, 64
4, 287232, Note_on_c, 0, 54, 102
4, 287616, Note_off_c, 0, 54, 64
4, 290304, Note_on_c, 0, 43, 102
4, 290688, Note_off_c, 0, 43, 64
4, 291840, Note_on_c, 0, 44, 102
4, 292224, Note_off_c, 0, 44, 64
4, 296448, Note_on_c, 0, 45, 102
4, 296832, Note_off_c, 0, 45, 64
4, 297216, Note_on_c, 0, 49, 102
4, 297600, Note_off_c, 0, 49, 64
4, 297984, Note_on_c, 0, 49, 102
4, 298368, Note_off_c, 0, 49, 64
4, 298752, Note_on_c, 0, 45, 102
4, 299136, Note_off_c, 0, 45, 64
4, 299520, Note_on_c, 0, 50, 102
4, 299904, Note_off_c, 0, 50, 64
4, 301056, Note_on_c, 0, 44, 102
4, 301440, Note_off_c, 0, 44, 64
4, 301824, Note_on_c, 0, 45, 102
4, 302208, Note_off_c, 0, 45, 64
4, 302976, Note_on_c, 0, 52, 102
4, 303360, Note_off_c, 0, 52, 64
4, 303360, Note_on_c, 0, 53, 102
4, 303744, Note_off_c, 0, 53, 64
4, 304128, Note_on_c, 0, 50, 102
4, 304512, Note_off_c, 0, 50, 64
4, 304896, Note_on_c, 0, 52, 102
4, 309504, Note_off_c, 0, 52, 64
4, 309504, Note_on_c, 0, 45, 102
4, 310272, Note_off_c, 0, 45, 64
4, 311808, Note_on_c, 0, 48, 102
4, 312192, Note_off_c, 0, 48, 64
4, 312192, Note_on_c, 0, 36, 102
4, 312576, Note_off_c, 0, 36, 64
4, 312576, Note_on_c, 0, 48, 102
4, 312960, Note_off_c, 0, 48, 64
4, 312960, Note_on_c, 0, 48, 102
4, 313344, Note_off_c, 0, 48, 64
4, 313344, Note_on_c, 0, 36, 102
4, 313728, Note_off_c, 0, 36, 64
4, 313728, Note_on_c, 0, 48, 102
4, 314112, Note_off_c, 0, 48, 64
4, 314112, Note_on_c, 0, 48, 102
4, 314496, Note_off_c, 0, 48, 64
4, 314496, Note_on_c, 0, 36, 102
4, 314880, Note_off_c, 0, 36, 64
4, 314880, Note_on_c, 0, 48, 102
4, 315264, Note_off_c, 0, 48, 64
4, 315264, Note_on_c, 0, 48, 102
4, 315648, Note_off_c, 0, 48, 64
4, 315648, Note_on_c, 0, 36, 102
4, 316032, Note_off_c, 0, 36, 64
4, 316032, Note_on_c, 0, 48, 102
4, 316416, Note_off_c, 0, 48, 64
4, 316416, Note_on_c, 0, 48, 102
4, 316800, Note_off_c, 0, 48, 64
4, 316800, Note_on_c, 0, 36, 102
4, 317184, Note_off_c, 0, 36, 64
4, 317184, Note_on_c, 0, 48, 102
4, 317568, Note_off_c, 0, 48, 64
4, 317568, Note_on_c, 0, 55, 102
4, 317952, Note_off_c, 0, 55, 64
4, 317952, Note_on_c, 0, 43, 102
4, 318336, Note_off_c, 0, 43, 64
4, 318336, Note_on_c, 0, 55, 102
4, 318720, Note_off_c, 0, 55, 64
4, 318720, Note_on_c, 0, 55, 102
4, 319104, Note_off_c, 0, 55, 64
4, 319104, Note_on_c, 0, 43, 102
4, 319488, Note_off_c, 0, 43, 64
4, 319488, Note_on_c, 0, 55, 102
4, 319872, Note_off_c, 0, 55, 64
4, 319872, Note_on_c, 0, 55, 102
4, 320256, Note_off_c, 0, 55, 64
4, 320256, Note_on_c, 0, 43, 102
4, 320640, Note_off_c, 0, 43, 64
4, 320640, Note_on_c, 0, 55, 102
4, 321024, Note_off_c, 0, 55, 64
4, 321024, Note_on_c, 0, 55, 102
4, 321408, Note_off_c, 0, 55, 64
4, 321408, Note_on_c, 0, 43, 102
4, 321792, Note_off_c, 0, 43, 64
4, 321792, Note_on_c, 0, 55, 102
4, 322176, Note_off_c, 0, 55, 64
4, 322176, Note_on_c, 0, 48, 102
4, 322560, Note_off_c, 0, 48, 64
4, 322560, Note_on_c, 0, 36, 102
4, 322944, Note_off_c, 0, 36, 64
4, 322944, Note_on_c, 0, 48, 102
4, 323328, Note_off_c, 0, 48, 64
4, 323328, Note_on_c, 0, 53, 102
4, 323712, Note_off_c, 0, 53, 64
4, 323712, Note_on_c, 0, 41, 102
4, 324096, Note_off_c, 0, 41, 64
4, 324096, Note_on_c, 0, 53, 102
4, 324480, Note_off_c, 0, 53, 64
4, 324480, Note_on_c, 0, 54, 102
4, 324864, Note_off_c, 0, 54, 64
4, 324864, Note_on_c, 0, 42, 102
4, 325248, Note_off_c, 0, 42, 64
4, 325248, Note_on_c, 0, 54, 102
4, 325632, Note_off_c, 0, 54, 64
4, 325632, Note_on_c, 0, 55, 102
4, 326016, Note_off_c, 0, 55, 64
4, 326016, Note_on_c, 0, 43, 102
4, 326400, Note_off_c, 0, 43, 64
4, 326400, Note_on_c, 0, 55, 102
4, 326784, Note_off_c, 0, 55, 64
4, 326784, Note_on_c, 0, 56, 102
4, 327168, Note_off_c, 0, 56, 64
4, 327168, Note_on_c, 0, 44, 102
4, 327552, Note_off_c, 0, 44, 64
4, 327552, Note_on_c, 0, 56, 102
4, 327936, Note_off_c, 0, 56, 64
4, 327936, Note_on_c, 0, 57, 102
4, 328320, Note_off_c, 0, 57, 64
4, 328320, Note_on_c, 0, 45, 102
4, 328704, Note_off_c, 0, 45, 64
4, 328704, Note_on_c, 0, 57, 102
4, 329088, Note_off_c, 0, 57, 64
4, 329088, Note_on_c, 0, 57, 102
4, 329472, Note_off_c, 0, 57, 64
4, 329472, Note_on_c, 0, 45, 102
4, 329856, Note_off_c, 0, 45, 64
4, 329856, Note_on_c, 0, 57, 102
4, 330240, Note_off_c, 0, 57, 64
4, 330240, Note_on_c, 0, 55, 102
4, 330624, Note_off_c, 0, 55, 64
4, 330624, Note_on_c, 0, 43, 102
4, 331008, Note_off_c, 0, 43, 64
4, 331008, Note_on_c, 0, 55, 102
4, 331392, Note_off_c, 0, 55, 64
4, 331392, Note_on_c, 0, 55, 102
4, 331776, Note_off_c, 0, 55, 64
4, 331776, Note_on_c, 0, 43, 102
4, 332160, Note_off_c, 0, 43, 64
4, 332160, Note_on_c, 0, 55, 102
4, 332544, Note_off_c, 0, 55, 64
4, 332544, Note_on_c, 0, 55, 102
4, 332928, Note_off_c, 0, 55, 64
4, 332928, Note_on_c, 0, 43, 102
4, 333312, Note_off_c, 0, 43, 64
4, 333312, Note_on_c, 0, 55, 102
4, 333696, Note_off_c, 0, 55, 64
4, 333696, Note_on_c, 0, 55, 102
4, 334080, Note_off_c, 0, 55, 64
4, 334080, Note_on_c, 0, 43, 102
4, 334464, Note_off_c, 0, 43, 64
4, 334464, Note_on_c, 0, 55, 102
4, 334848, Note_off_c, 0, 55, 64
4, 334848, Note_on_c, 0, 60, 102
4, 335040, Note_off_c, 0, 60, 64
4, 335040, Note_on_c, 0, 60, 102
4, 335232, Note_off_c, 0, 60, 64
4, 335232, Note_on_c, 0, 55, 102
4, 335424, Note_off_c, 0, 55, 64
4, 335424, Note_on_c, 0, 55, 102
4, 335616, Note_off_c, 0, 55, 64
4, 335616, Note_on_c, 0, 52, 102
4, 335808, Note_off_c, 0, 52, 64
4, 335808, Note_on_c, 0, 52, 102
4, 336000, Note_off_c, 0, 52, 64
4, 336000, Note_on_c, 0, 57, 102
4, 336192, Note_off_c, 0, 57, 64
4, 336192, Note_on_c, 0, 57, 102
4, 336384, Note_off_c, 0, 57, 64
4, 336384, Note_on_c, 0, 53, 102
4, 336576, Note_off_c, 0, 53, 64
4, 336576, Note_on_c, 0, 53, 102
4, 336768, Note_off_c, 0, 53, 64
4, 336768, Note_on_c, 0, 50, 102
4, 336960, Note_off_c, 0, 50, 64
4, 336960, Note_on_c, 0, 50, 102
4, 337152, Note_off_c, 0, 50, 64
4, 337152, Note_on_c, 0, 53, 102
4, 337344, Note_off_c, 0, 53, 64
4, 337344, Note_on_c, 0, 53, 102
4, 337536, Note_off_c, 0, 53, 64
4, 337536, Note_on_c, 0, 50, 102
4, 337728, Note_off_c, 0, 50, 64
4, 337728, Note_on_c, 0, 50, 102
4, 337920, Note_off_c, 0, 50, 64
4, 337920, Note_on_c, 0, 47, 102
4, 338112, Note_off_c, 0, 47, 64
4, 338112, Note_on_c, 0, 47, 102
4, 338304, Note_off_c, 0, 47, 64
4, 338304, Note_on_c, 0, 43, 102
4, 338688, Note_off_c, 0, 43, 64
4, 339456, Note_on_c, 0, 48, 102
4, 339840, Note_off_c, 0, 48, 64
4, 339840, Note_on_c, 0, 55, 102
4, 340224, Note_off_c, 0, 55, 64
4, 340224, Note_on_c, 0, 43, 102
4, 340608, Note_off_c, 0, 43, 64
4, 340608, Note_on_c, 0, 60, 102
4, 340800, Note_off_c, 0, 60, 64
4, 340800, Note_on_c, 0, 60, 102
4, 340992, Note_off_c, 0, 60, 64
4, 340992, Note_on_c, 0, 55, 102
4, 341184, Note_off_c, 0, 55, 64
4, 341184, Note_on_c, 0, 55, 102
4, 341376, Note_off_c, 0, 55, 64
4, 341376, Note_on_c, 0, 52, 102
4, 341568, Note_off_c, 0, 52, 64
4, 341568, Note_on_c, 0, 52, 102
4, 341760, Note_off_c, 0, 52, 64
4, 341760, Note_on_c, 0, 48, 102
4, 342144, Note_off_c, 0, 48, 64
4, 342144, Note_on_c, 0, 55, 102
4, 342528, Note_off_c, 0, 55, 64
4, 342528, Note_on_c, 0, 43, 102
4, 342912, Note_off_c, 0, 43, 64
4, 342912, Note_on_c, 0, 60, 102
4, 343104, Note_off_c, 0, 60, 64
4, 343104, Note_on_c, 0, 60, 102
4, 343296, Note_off_c, 0, 60, 64
4, 343296, Note_on_c, 0, 55, 102
4, 343488, Note_off_c, 0, 55, 64
4, 343488, Note_on_c, 0, 55, 102
4, 343680, Note_off_c, 0, 55, 64
4, 343680, Note_on_c, 0, 52, 102
4, 343872, Note_off_c, 0, 52, 64
4, 343872, Note_on_c, 0, 52, 102
4, 344064, Note_off_c, 0, 52, 64
4, 344064, Note_on_c, 0, 48, 102
4, 344448, Note_off_c, 0, 48, 64
4, 344448, Note_on_c, 0, 55, 102
4, 344832, Note_off_c, 0, 55, 64
4, 344832, Note_on_c, 0, 43, 102
4, 345216, Note_off_c, 0, 43, 64
4, 345216, Note_on_c, 0, 60, 102
4, 345408, Note_off_c, 0, 60, 64
4, 345408, Note_on_c, 0, 60, 102
4, 345600, Note_off_c, 0, 60, 64
4, 345600, Note_on_c, 0, 55, 102
4, 345792, Note_off_c, 0, 55, 64
4, 345792, Note_on_c, 0, 55, 102
4, 345984, Note_off_c, 0, 55, 64
4, 345984, Note_on_c, 0, 52, 102
4, 346176, Note_off_c, 0, 52, 64
4, 346176, Note_on_c, 0, 52, 102
4, 346368, Note_off_c, 0, 52, 64
4, 346368, Note_on_c, 0, 48, 102
4, 346752, Note_off_c, 0, 48, 64
4, 346752, Note_on_c, 0, 55, 102
4, 347136, Note_off_c, 0, 55, 64
4, 347136, Note_on_c, 0, 43, 102
4, 347520, Note_off_c, 0, 43, 64
4, 347520, Note_on_c, 0, 36, 102
4, 347904, Note_off_c, 0, 36, 64
4, 384384, Note_on_c, 0, 48, 102
4, 384768, Note_off_c, 0, 48, 64
4, 384768, Note_on_c, 0, 36, 102
4, 385152, Note_off_c, 0, 36, 64
4, 385152, Note_on_c, 0, 48, 102
4, 385536, Note_off_c, 0, 48, 64
4, 385536, Note_on_c, 0, 48, 102
4, 385920, Note_off_c, 0, 48, 64
4, 385920, Note_on_c, 0, 36, 102
4, 386304, Note_off_c, 0, 36, 64
4, 386304, Note_on_c, 0, 48, 102
4, 386688, Note_off_c, 0, 48, 64
4, 386688, Note_on_c, 0, 48, 102
4, 387072, Note_off_c, 0, 48, 64
4, 387072, Note_on_c, 0, 36, 102
4, 387456, Note_off_c, 0, 36, 64
4, 387456, Note_on_c, 0, 48, 102
4, 387840, Note_off_c, 0, 48, 64
4, 387840, Note_on_c, 0, 55, 102
4, 388224, Note_off_c, 0, 55, 64
4, 388224, Note_on_c, 0, 43, 102
4, 388608, Note_off_c, 0, 43, 64
4, 388608, Note_on_c, 0, 55, 102
4, 388992, Note_off_c, 0, 55, 64
4, 388992, Note_on_c, 0, 55, 102
4, 389376, Note_off_c, 0, 55, 64
4, 389376, Note_on_c, 0, 43, 102
4, 389760, Note_off_c, 0, 43, 64
4, 389760, Note_on_c, 0, 55, 102
4, 390144, Note_off_c, 0, 55, 64
4, 390144, Note_on_c, 0, 55, 102
4, 390528, Note_off_c, 0, 55, 64
4, 390528, Note_on_c, 0, 43, 102
4, 390912, Note_off_c, 0, 43, 64
4, 390912, Note_on_c, 0, 55, 102
4, 391296, Note_off_c, 0, 55, 64
4, 391296, Note_on_c, 0, 55, 102
4, 391680, Note_off_c, 0, 55, 64
4, 391680, Note_on_c, 0, 43, 102
4, 392064, Note_off_c, 0, 43, 64
4, 392064, Note_on_c, 0, 55, 102
4, 392448, Note_off_c, 0, 55, 64
4, 392448, Note_on_c, 0, 55, 102
4, 392832, Note_off_c, 0, 55, 64
4, 392832, Note_on_c, 0, 43, 102
4, 393216, Note_off_c, 0, 43, 64
4, 393216, Note_on_c, 0, 55, 102
4, 393600, Note_off_c, 0, 55, 64
4, 393600, Note_on_c, 0, 48, 102
4, 393984, Note_off_c, 0, 48, 64
4, 393984, Note_on_c, 0, 36, 102
4, 394368, Note_off_c, 0, 36, 64
4, 394368, Note_on_c, 0, 48, 102
4, 394752, Note_off_c, 0, 48, 64
4, 394752, Note_on_c, 0, 48, 102
4, 395136, Note_off_c, 0, 48, 64
4, 395136, Note_on_c, 0, 36, 102
4, 395520, Note_off_c, 0, 36, 64
4, 395520, Note_on_c, 0, 48, 102
4, 395904, Note_off_c, 0, 48, 64
4, 395904, Note_on_c, 0, 50, 102
4, 396288, Note_off_c, 0, 50, 64
4, 396288, Note_on_c, 0, 38, 102
4, 396672, Note_off_c, 0, 38, 64
4, 396672, Note_on_c, 0, 50, 102
4, 397056, Note_off_c, 0, 50, 64
4, 397056, Note_on_c, 0, 50, 102
4, 397440, Note_off_c, 0, 50, 64
4, 397440, Note_on_c, 0, 38, 102
4, 397824, Note_off_c, 0, 38, 64
4, 397824, Note_on_c, 0, 50, 102
4, 398208, Note_off_c, 0, 50, 64
4, 398208, Note_on_c, 0, 43, 102
4, 398592, Note_off_c, 0, 43, 64
4, 439680, Note_on_c, 0, 55, 102
4, 440064, Note_off_c, 0, 55, 64
4, 440064, Note_on_c, 0, 43, 102
4, 440448, Note_off_c, 0, 43, 64
4, 440448, Note_on_c, 0, 55, 102
4, 440832, Note_off_c, 0, 55, 64
4, 440832, Note_on_c, 0, 55, 102
4, 441216, Note_off_c, 0, 55, 64
4, 441216, Note_on_c, 0, 43, 102
4, 441600, Note_off_c, 0, 43, 64
4, 441600, Note_on_c, 0, 55, 102
4, 441984, Note_off_c, 0, 55, 64
4, 441984, Note_on_c, 0, 48, 102
4, 442368, Note_off_c, 0, 48, 64
4, 442368, Note_on_c, 0, 36, 102
4, 442752, Note_off_c, 0, 36, 64
4, 442752, Note_on_c, 0, 48, 102
4, 443136, Note_off_c, 0, 48, 64
4, 443136, Note_on_c, 0, 48, 102
4, 443520, Note_off_c, 0, 48, 64
4, 443520, Note_on_c, 0, 36, 102
4, 443904, Note_off_c, 0, 36, 64
4, 443904, Note_on_c, 0, 48, 102
4, 444288, Note_off_c, 0, 48, 64
4, 444288, Note_on_c, 0, 57, 102
4, 444672, Note_off_c, 0, 57, 64
4, 444672, Note_on_c, 0, 45, 102
4, 445056, Note_off_c, 0, 45, 64
4, 445056, Note_on_c, 0, 57, 102
4, 445440, Note_off_c, 0, 57, 64
4, 445440, Note_on_c, 0, 57, 102
4, 445824, Note_off_c, 0, 57, 64
4, 445824, Note_on_c, 0, 45, 102
4, 446208, Note_off_c, 0, 45, 64
4, 446208, Note_on_c, 0, 57, 102
4, 446592, Note_off_c, 0, 57, 64
4, 446592, Note_on_c, 0, 50, 102
4, 446976, Note_off_c, 0, 50, 64
4, 446976, Note_on_c, 0, 38, 102
4, 447360, Note_off_c, 0, 38, 64
4, 447360, Note_on_c, 0, 50, 102
4, 447744, Note_off_c, 0, 50, 64
4, 447744, Note_on_c, 0, 50, 102
4, 448128, Note_off_c, 0, 50, 64
4, 448128, Note_on_c, 0, 38, 102
4, 448512, Note_off_c, 0, 38, 64
4, 448512, Note_on_c, 0, 50, 102
4, 448896, Note_off_c, 0, 50, 64
4, 448896, Note_on_c, 0, 59, 102
4, 449280, Note_off_c, 0, 59, 64
4, 449280, Note_on_c, 0, 47, 102
4, 449664, Note_off_c, 0, 47, 64
4, 449664, Note_on_c, 0, 59, 102
4, 450048, Note_off_c, 0, 59, 64
4, 450048, Note_on_c, 0, 59, 102
4, 450432, Note_off_c, 0, 59, 64
4, 450432, Note_on_c, 0, 47, 102
4, 450816, Note_off_c, 0, 47, 64
4, 450816, Note_on_c, 0, 59, 102
4, 451200, Note_off_c, 0, 59, 64
4, 451200, Note_on_c, 0, 52, 102
4, 451584, Note_off_c, 0, 52, 64
4, 451584, Note_on_c, 0, 40, 102
4, 451968, Note_off_c, 0, 40, 64
4, 451968, Note_on_c, 0, 52, 102
4, 452352, Note_off_c, 0, 52, 64
4, 452352, Note_on_c, 0, 52, 102
4, 452736, Note_off_c, 0, 52, 64
4, 452736, Note_on_c, 0, 40, 102
4, 453120, Note_off_c, 0, 40, 64
4, 453120, Note_on_c, 0, 52, 102
4, 453504, Note_off_c, 0, 52, 64
4, 453504, Note_on_c, 0, 57, 102
4, 453888, Note_off_c, 0, 57, 64
4, 453888, Note_on_c, 0, 45, 102
4, 454272, Note_off_c, 0, 45, 64
4, 454272, Note_on_c, 0, 57, 102
4, 454656, Note_off_c, 0, 57, 64
4, 454656, Note_on_c, 0, 59, 102
4, 455040, Note_off_c, 0, 59, 64
4, 455040, Note_on_c, 0, 47, 102
4, 455424, Note_off_c, 0, 47, 64
4, 455424, Note_on_c, 0, 59, 102
4, 455808, Note_off_c, 0, 59, 64
4, 455808, Note_on_c, 0, 52, 102
4, 456192, Note_off_c, 0, 52, 64
4, 456960, Note_on_c, 0, 52, 102
4, 457344, Note_off_c, 0, 52, 64
4, 458112, Note_on_c, 0, 51, 102
4, 458496, Note_off_c, 0, 51, 64
4, 459264, Note_on_c, 0, 52, 102
4, 459648, Note_off_c, 0, 52, 64
4, 473088, Note_on_c, 0, 55, 102
4, 473280, Note_off_c, 0, 55, 64
4, 473280, Note_on_c, 0, 55, 102
4, 473472, Note_off_c, 0, 55, 64
4, 473472, Note_on_c, 0, 50, 102
4, 473664, Note_off_c, 0, 50, 64
4, 473664, Note_on_c, 0, 50, 102
4, 473856, Note_off_c, 0, 50, 64
4, 473856, Note_on_c, 0, 47, 102
4, 474048, Note_off_c, 0, 47, 64
4, 474048, Note_on_c, 0, 47, 102
4, 474240, Note_off_c, 0, 47, 64
4, 474240, Note_on_c, 0, 43, 102
4, 474624, Note_off_c, 0, 43, 64
4, 499584, Note_on_c, 0, 48, 102
4, 499968, Note_off_c, 0, 48, 64
4, 499968, Note_on_c, 0, 36, 102
4, 500352, Note_off_c, 0, 36, 64
4, 500352, Note_on_c, 0, 48, 102
4, 500736, Note_off_c, 0, 48, 64
4, 500736, Note_on_c, 0, 48, 102
4, 501120, Note_off_c, 0, 48, 64
4, 501120, Note_on_c, 0, 36, 102
4, 501504, Note_off_c, 0, 36, 64
4, 501504, Note_on_c, 0, 48, 102
4, 501888, Note_off_c, 0, 48, 64
4, 501888, Note_on_c, 0, 48, 102
4, 502272, Note_off_c, 0, 48, 64
4, 502272, Note_on_c, 0, 36, 102
4, 502656, Note_off_c, 0, 36, 64
4, 502656, Note_on_c, 0, 48, 102
4, 503040, Note_off_c, 0, 48, 64
4, 503040, Note_on_c, 0, 55, 102
4, 503424, Note_off_c, 0, 55, 64
4, 503424, Note_on_c, 0, 43, 102
4, 503808, Note_off_c, 0, 43, 64
4, 503808, Note_on_c, 0, 55, 102
4, 504192, Note_off_c, 0, 55, 64
4, 504192, Note_on_c, 0, 55, 102
4, 504576, Note_off_c, 0, 55, 64
4, 504576, Note_on_c, 0, 43, 102
4, 504960, Note_off_c, 0, 43, 64
4, 504960, Note_on_c, 0, 55, 102
4, 505344, Note_off_c, 0, 55, 64
4, 505344, Note_on_c, 0, 55, 102
4, 505728, Note_off_c, 0, 55, 64
4, 505728, Note_on_c, 0, 43, 102
4, 506112, Note_off_c, 0, 43, 64
4, 506112, Note_on_c, 0, 55, 102
4, 506496, Note_off_c, 0, 55, 64
4, 506496, Note_on_c, 0, 55, 102
4, 506880, Note_off_c, 0, 55, 64
4, 506880, Note_on_c, 0, 43, 102
4, 507264, Note_off_c, 0, 43, 64
4, 507264, Note_on_c, 0, 55, 102
4, 507648, Note_off_c, 0, 55, 64
4, 507648, Note_on_c, 0, 55, 102
4, 508032, Note_off_c, 0, 55, 64
4, 508032, Note_on_c, 0, 43, 102
4, 508416, Note_off_c, 0, 43, 64
4, 508416, Note_on_c, 0, 55, 102
4, 508800, Note_off_c, 0, 55, 64
4, 508800, Note_on_c, 0, 60, 102
4, 508992, Note_off_c, 0, 60, 64
4, 508992, Note_on_c, 0, 60, 102
4, 509184, Note_off_c, 0, 60, 64
4, 509184, Note_on_c, 0, 55, 102
4, 509376, Note_off_c, 0, 55, 64
4, 509376, Note_on_c, 0, 55, 102
4, 509568, Note_off_c, 0, 55, 64
4, 509568, Note_on_c, 0, 52, 102
4, 509760, Note_off_c, 0, 52, 64
4, 509760, Note_on_c, 0, 52, 102
4, 509952, Note_off_c, 0, 52, 64
4, 509952, Note_on_c, 0, 57, 102
4, 510144, Note_off_c, 0, 57, 64
4, 510144, Note_on_c, 0, 57, 102
4, 510336, Note_off_c, 0, 57, 64
4, 510336, Note_on_c, 0, 53, 102
4, 510528, Note_off_c, 0, 53, 64
4, 510528, Note_on_c, 0, 53, 102
4, 510720, Note_off_c, 0, 53, 64
4, 510720, Note_on_c, 0, 50, 102
4, 510912, Note_off_c, 0, 50, 64
4, 510912, Note_on_c, 0, 50, 102
4, 511104, Note_off_c, 0, 50, 64
4, 511104, Note_on_c, 0, 53, 102
4, 511296, Note_off_c, 0, 53, 64
4, 511296, Note_on_c, 0, 53, 102
4, 511488, Note_off_c, 0, 53, 64
4, 511488, Note_on_c, 0, 50, 102
4, 511680, Note_off_c, 0, 50, 64
4, 511680, Note_on_c, 0, 50, 102
4, 511872, Note_off_c, 0, 50, 64
4, 511872, Note_on_c, 0, 47, 102
4, 512064, Note_off_c, 0, 47, 64
4, 512064, Note_on_c, 0, 47, 102
4, 512256, Note_off_c, 0, 47, 64
4, 512256, Note_on_c, 0, 43, 102
4, 512640, Note_off_c, 0, 43, 64
4, 513408, Note_on_c, 0, 48, 102
4, 513792, Note_off_c, 0, 48, 64
4, 513792, Note_on_c, 0, 55, 102
4, 514176, Note_off_c, 0, 55, 64
4, 514176, Note_on_c, 0, 43, 102
4, 514560, Note_off_c, 0, 43, 64
4, 514560, Note_on_c, 0, 60, 102
4, 514752, Note_off_c, 0, 60, 64
4, 514752, Note_on_c, 0, 60, 102
4, 514944, Note_off_c, 0, 60, 64
4, 514944, Note_on_c, 0, 55, 102
4, 515136, Note_off_c, 0, 55, 64
4, 515136, Note_on_c, 0, 55, 102
4, 515328, Note_off_c, 0, 55, 64
4, 515328, Note_on_c, 0, 52, 102
4, 515520, Note_off_c, 0, 52, 64
4, 515520, Note_on_c, 0, 52, 102
4, 515712, Note_off_c, 0, 52, 64
4, 515712, Note_on_c, 0, 48, 102
4, 516096, Note_off_c, 0, 48, 64
4, 516096, Note_on_c, 0, 55, 102
4, 516480, Note_off_c, 0, 55, 64
4, 516480, Note_on_c, 0, 43, 102
4, 516864, Note_off_c, 0, 43, 64
4, 516864, Note_on_c, 0, 36, 102
4, 517248, Note_off_c, 0, 36, 64
4, 676224, Note_on_c, 0, 60, 102
4, 676416, Note_off_c, 0, 60, 64
4, 676416, Note_on_c, 0, 60, 102
4, 676608, Note_off_c, 0, 60, 64
4, 676608, Note_on_c, 0, 55, 102
4, 676800, Note_off_c, 0, 55, 64
4, 676800, Note_on_c, 0, 55, 102
4, 676992, Note_off_c, 0, 55, 64
4, 676992, Note_on_c, 0, 52, 102
4, 677184, Note_off_c, 0, 52, 64
4, 677184, Note_on_c, 0, 52, 102
4, 677376, Note_off_c, 0, 52, 64
4, 677376, Note_on_c, 0, 57, 102
4, 677568, Note_off_c, 0, 57, 64
4, 677568, Note_on_c, 0, 57, 102
4, 677760, Note_off_c, 0, 57, 64
4, 677760, Note_on_c, 0, 53, 102
4, 677952, Note_off_c, 0, 53, 64
4, 677952, Note_on_c, 0, 53, 102
4, 678144, Note_off_c, 0, 53, 64
4, 678144, Note_on_c, 0, 50, 102
4, 678336, Note_off_c, 0, 50, 64
4, 678336, Note_on_c, 0, 50, 102
4, 678528, Note_off_c, 0, 50, 64
4, 678528, Note_on_c, 0, 55, 102
4, 678720, Note_off_c, 0, 55, 64
4, 678720, Note_on_c, 0, 55, 102
4, 678912, Note_off_c, 0, 55, 64
4, 678912, Note_on_c, 0, 52, 102
4, 679104, Note_off_c, 0, 52, 64
4, 679104, Note_on_c, 0, 52, 102
4, 679296, Note_off_c, 0, 52, 64
4, 679296, Note_on_c, 0, 48, 102
4, 679488, Note_off_c, 0, 48, 64
4, 679488, Note_on_c, 0, 48, 102
4, 679680, Note_off_c, 0, 48, 64
4, 679680, Note_on_c, 0, 43, 102
4, 680064, Note_off_c, 0, 43, 64
4, 680064, Note_on_c, 0, 43, 102
4, 680448, Note_off_c, 0, 43, 64
4, 680448, Note_on_c, 0, 43, 102
4, 680832, Note_off_c, 0, 43, 64
4, 680832, Note_on_c, 0, 48, 102
4, 681216, Note_off_c, 0, 48, 64
4, 681984, Note_on_c, 0, 48, 102
4, 682368, Note_off_c, 0, 48, 64
4, 682368, Note_on_c, 0, 55, 102
4, 682752, Note_off_c, 0, 55, 64
4, 682752, Note_on_c, 0, 43, 102
4, 683136, Note_off_c, 0, 43, 64
4, 683136, Note_on_c, 0, 48, 102
4, 683520, Note_off_c, 0, 48, 64
4, 684288, End_track
0, 0, End_of_file
