0, 0, Header, 1, 5, 1024
1, 0, Start_track
1, 0, Time_signature, 4, 2, 24, 8
1, 0, Key_signature, -2, "major"
1, 0, Tempo, 535714
1, 57344, Time_signature, 3, 1, 96, 8
1, 155648, End_track
2, 0, Start_track
2, 0, Title_t, "Instrument 1"
2, 3072, Note_on_c, 0, 74, 96
2, 3072, Note_on_c, 0, 70, 96
2, 3584, Note_off_c, 0, 74, 0
2, 3584, Note_on_c, 0, 74, 96
2, 3584, Note_off_c, 0, 70, 0
2, 3584, Note_on_c, 0, 70, 96
2, 4096, Note_off_c, 0, 74, 0
2, 4096, Note_off_c, 0, 70, 0
2, 4096, Note_on_c, 0, 77, 96
2, 4096, Note_on_c, 0, 74, 96
2, 5120, Note_off_c, 0, 74, 0
2, 5120, Note_on_c, 0, 70, 96
2, 5632, Note_off_c, 0, 77, 0
2, 5632, Note_on_c, 0, 77, 96
2, 6144, Note_off_c, 0, 77, 0
2, 6144, Note_on_c, 0, 75, 96
2, 6144, Note_off_c, 0, 70, 0
2, 6144, Note_on_c, 0, 72, 96
2, 7168, Note_off_c, 0, 75, 0
2, 7168, Note_on_c, 0, 72, 96
2, 7168, Note_off_c, 0, 72, 0
2, 7168, Note_on_c, 0, 69, 96
2, 8192, Note_off_c, 0, 72, 0
2, 8192, Note_off_c, 0, 69, 0
2, 8192, Note_on_c, 0, 74, 96
2, 8192, Note_on_c, 0, 70, 96
2, 10240, Note_off_c, 0, 74, 0
2, 10240, Note_on_c, 0, 72, 96
2, 10240, Note_off_c, 0, 70, 0
2, 10240, Note_on_c, 0, 69, 96
2, 12288, Note_off_c, 0, 72, 0
2, 12288, Note_off_c, 0, 69, 0
2, 13312, Note_on_c, 0, 70, 96
2, 13312, Note_on_c, 0, 67, 96
2, 13824, Note_off_c, 0, 70, 0
2, 13824, Note_on_c, 0, 70, 96
2, 13824, Note_off_c, 0, 67, 0
2, 13824, Note_on_c, 0, 67, 96
2, 14336, Note_off_c, 0, 70, 0
2, 14336, Note_on_c, 0, 70, 96
2, 14336, Note_off_c, 0, 67, 0
2, 14336, Note_on_c, 0, 67, 96
2, 14848, Note_off_c, 0, 70, 0
2, 14848, Note_on_c, 0, 69, 96
2, 15360, Note_off_c, 0, 69, 0
2, 15360, Note_on_c, 0, 70, 96
2, 15360, Note_off_c, 0, 67, 0
2, 15360, Note_on_c, 0, 67, 96
2, 15872, Note_off_c, 0, 70, 0
2, 15872, Note_on_c, 0, 72, 96
2, 16384, Note_off_c, 0, 72, 0
2, 16384, Note_off_c, 0, 67, 0
2, 16384, Note_on_c, 0, 74, 96
2, 16384, Note_on_c, 0, 65, 96
2, 17408, Note_off_c, 0, 74, 0
2, 17408, Note_on_c, 0, 72, 96
2, 17920, Note_off_c, 0, 65, 0
2, 17920, Note_on_c, 0, 65, 96
2, 18432, Note_off_c, 0, 72, 0
2, 18432, Note_on_c, 0, 70, 96
2, 18432, Note_off_c, 0, 65, 0
2, 18432, Note_on_c, 0, 65, 96
2, 20480, Note_off_c, 0, 70, 0
2, 20480, Note_off_c, 0, 65, 0
2, 20480, Note_on_c, 0, 74, 96
2, 20480, Note_on_c, 0, 65, 96
2, 21504, Note_off_c, 0, 74, 0
2, 21504, Note_on_c, 0, 75, 96
2, 21504, Note_off_c, 0, 65, 0
2, 21504, Note_on_c, 0, 72, 96
2, 22528, Note_off_c, 0, 75, 0
2, 22528, Note_on_c, 0, 77, 96
2, 22528, Note_off_c, 0, 72, 0
2, 22528, Note_on_c, 0, 69, 96
2, 23552, Note_off_c, 0, 77, 0
2, 23552, Note_on_c, 0, 74, 96
2, 23552, Note_off_c, 0, 69, 0
2, 23552, Note_on_c, 0, 70, 96
2, 24576, Note_off_c, 0, 74, 0
2, 24576, Note_off_c, 0, 70, 0
2, 24576, Note_on_c, 0, 72, 96
2, 24576, Note_on_c, 0, 69, 96
2, 25600, Note_off_c, 0, 72, 0
2, 25600, Note_on_c, 0, 70, 96
2, 25600, Note_off_c, 0, 69, 0
2, 25600, Note_on_c, 0, 67, 96
2, 26624, Note_off_c, 0, 70, 0
2, 26624, Note_on_c, 0, 69, 96
2, 26624, Note_off_c, 0, 67, 0
2, 26624, Note_on_c, 0, 67, 96
2, 27648, Note_off_c, 0, 67, 0
2, 27648, Note_on_c, 0, 66, 96
2, 28672, Note_off_c, 0, 69, 0
2, 28672, Note_off_c, 0, 66, 0
2, 28672, Note_on_c, 0, 67, 96
2, 28672, Note_on_c, 0, 67, 96
2, 29696, Note_off_c, 0, 67, 0
2, 29696, Note_on_c, 0, 74, 96
2, 29696, Note_off_c, 0, 67, 0
2, 29696, Note_on_c, 0, 70, 96
2, 30208, Note_off_c, 0, 74, 0
2, 30208, Note_on_c, 0, 74, 96
2, 30208, Note_off_c, 0, 70, 0
2, 30208, Note_on_c, 0, 70, 96
2, 30720, Note_off_c, 0, 74, 0
2, 30720, Note_on_c, 0, 75, 96
2, 30720, Note_off_c, 0, 70, 0
2, 30720, Note_on_c, 0, 70, 96
2, 32768, Note_off_c, 0, 70, 0
2, 32768, Note_on_c, 0, 65, 96
2, 33792, Note_off_c, 0, 75, 0
2, 33792, Note_on_c, 0, 74, 96
2, 33792, Note_off_c, 0, 65, 0
2, 33792, Note_on_c, 0, 70, 96
2, 34816, Note_off_c, 0, 74, 0
2, 34816, Note_on_c, 0, 72, 96
2, 35840, Note_off_c, 0, 70, 0
2, 35840, Note_on_c, 0, 69, 96
2, 36352, Note_off_c, 0, 72, 0
2, 36352, Note_on_c, 0, 72, 96
2, 36864, Note_off_c, 0, 72, 0
2, 36864, Note_off_c, 0, 69, 0
2, 36864, Note_on_c, 0, 70, 96
2, 36864, Note_on_c, 0, 70, 96
2, 40960, Note_off_c, 0, 70, 0
2, 40960, Note_off_c, 0, 70, 0
2, 40960, Note_on_c, 0, 69, 96
2, 40960, Note_on_c, 0, 65, 96
2, 41984, Note_off_c, 0, 69, 0
2, 41984, Note_on_c, 0, 69, 96
2, 41984, Note_off_c, 0, 65, 0
2, 41984, Note_on_c, 0, 65, 96
2, 43008, Note_off_c, 0, 69, 0
2, 43008, Note_on_c, 0, 70, 96
2, 43008, Note_off_c, 0, 65, 0
2, 43008, Note_on_c, 0, 67, 96
2, 44032, Note_off_c, 0, 70, 0
2, 44032, Note_on_c, 0, 72, 96
2, 44032, Note_off_c, 0, 67, 0
2, 44032, Note_on_c, 0, 69, 96
2, 45056, Note_off_c, 0, 72, 0
2, 45056, Note_off_c, 0, 69, 0
2, 45056, Note_on_c, 0, 74, 96
2, 45056, Note_on_c, 0, 69, 96
2, 46080, Note_off_c, 0, 69, 0
2, 46080, Note_on_c, 0, 67, 96
2, 46592, Note_off_c, 0, 74, 0
2, 46592, Note_on_c, 0, 74, 96
2, 47104, Note_off_c, 0, 74, 0
2, 47104, Note_on_c, 0, 73, 96
2, 47104, Note_off_c, 0, 67, 0
2, 47104, Note_on_c, 0, 69, 96
2, 49152, Note_off_c, 0, 73, 0
2, 49152, Note_off_c, 0, 69, 0
2, 49152, Note_on_c, 0, 77, 96
2, 49152, Note_on_c, 0, 69, 96
2, 50176, Note_off_c, 0, 77, 0
2, 50176, Note_on_c, 0, 77, 96
2, 50176, Note_off_c, 0, 69, 0
2, 50176, Note_on_c, 0, 69, 96
2, 51200, Note_off_c, 0, 77, 0
2, 51200, Note_on_c, 0, 76, 96
2, 51200, Note_off_c, 0, 69, 0
2, 51200, Note_on_c, 0, 67, 96
2, 52224, Note_off_c, 0, 76, 0
2, 52224, Note_on_c, 0, 74, 96
2, 52224, Note_off_c, 0, 67, 0
2, 52224, Note_on_c, 0, 74, 96
2, 53248, Note_off_c, 0, 74, 0
2, 53248, Note_off_c, 0, 74, 0
2, 53248, Note_on_c, 0, 76, 96
2, 53248, Note_on_c, 0, 74, 96
2, 54784, Note_off_c, 0, 76, 0
2, 54784, Note_on_c, 0, 76, 96
2, 54784, Note_off_c, 0, 74, 0
2, 54784, Note_on_c, 0, 73, 96
2, 55296, Note_off_c, 0, 76, 0
2, 55296, Note_on_c, 0, 74, 96
2, 55296, Note_off_c, 0, 73, 0
2, 55296, Note_on_c, 0, 74, 96
2, 57344, Note_off_c, 0, 74, 0
2, 57344, Note_off_c, 0, 74, 0
2, 57344, Note_on_c, 0, 70, 96
2, 57344, Note_on_c, 0, 67, 96
2, 65536, Note_off_c, 0, 70, 0
2, 65536, Note_on_c, 0, 72, 96
2, 65536, Note_off_c, 0, 67, 0
2, 65536, Note_on_c, 0, 69, 96
2, 69632, Note_off_c, 0, 72, 0
2, 69632, Note_off_c, 0, 69, 0
2, 69632, Note_on_c, 0, 74, 96
2, 69632, Note_on_c, 0, 70, 96
2, 77824, Note_off_c, 0, 74, 0
2, 77824, Note_on_c, 0, 77, 96
2, 77824, Note_off_c, 0, 70, 0
2, 77824, Note_on_c, 0, 70, 96
2, 81920, Note_off_c, 0, 77, 0
2, 81920, Note_off_c, 0, 70, 0
2, 81920, Note_on_c, 0, 75, 96
2, 81920, Note_on_c, 0, 70, 96
2, 90112, Note_off_c, 0, 75, 0
2, 90112, Note_on_c, 0, 75, 96
2, 90112, Note_off_c, 0, 70, 0
2, 90112, Note_on_c, 0, 69, 96
2, 94208, Note_off_c, 0, 75, 0
2, 94208, Note_off_c, 0, 69, 0
2, 94208, Note_on_c, 0, 74, 96
2, 94208, Note_on_c, 0, 70, 96
2, 106496, Note_off_c, 0, 74, 0
2, 106496, Note_off_c, 0, 70, 0
2, 106496, Note_on_c, 0, 77, 96
2, 106496, Note_on_c, 0, 74, 96
2, 114688, Note_off_c, 0, 77, 0
2, 114688, Note_on_c, 0, 77, 96
2, 114688, Note_off_c, 0, 74, 0
2, 114688, Note_on_c, 0, 72, 96
2, 118784, Note_off_c, 0, 77, 0
2, 118784, Note_off_c, 0, 72, 0
2, 118784, Note_on_c, 0, 77, 96
2, 118784, Note_on_c, 0, 70, 96
2, 126976, Note_off_c, 0, 70, 0
2, 126976, Note_on_c, 0, 70, 96
2, 131072, Note_off_c, 0, 77, 0
2, 131072, Note_off_c, 0, 70, 0
2, 131072, Note_on_c, 0, 75, 96
2, 131072, Note_on_c, 0, 70, 96
2, 135168, Note_off_c, 0, 75, 0
2, 135168, Note_on_c, 0, 72, 96
2, 139264, Note_off_c, 0, 70, 0
2, 139264, Note_on_c, 0, 69, 96
2, 141312, Note_off_c, 0, 72, 0
2, 141312, Note_on_c, 0, 72, 96
2, 143360, Note_off_c, 0, 72, 0
2, 143360, Note_off_c, 0, 69, 0
2, 143360, Note_on_c, 0, 70, 96
2, 143360, Note_on_c, 0, 70, 96
2, 155648, Note_off_c, 0, 70, 0
2, 155648, Note_off_c, 0, 70, 0
2, 155648, End_track
3, 0, Start_track
3, 0, Title_t, "Instrument 2"
3, 0, Note_on_c, 1, 65, 96
3, 1024, Note_off_c, 1, 65, 0
3, 1024, Note_on_c, 1, 65, 96
3, 2048, Note_off_c, 1, 65, 0
3, 2048, Note_on_c, 1, 65, 96
3, 5120, Note_off_c, 1, 65, 0
3, 5120, Note_on_c, 1, 65, 96
3, 6144, Note_off_c, 1, 65, 0
3, 6144, Note_on_c, 1, 67, 96
3, 7168, Note_off_c, 1, 67, 0
3, 7168, Note_on_c, 1, 65, 96
3, 8192, Note_off_c, 1, 65, 0
3, 8192, Note_on_c, 1, 65, 96
3, 10240, Note_off_c, 1, 65, 0
3, 10240, Note_on_c, 1, 65, 96
3, 11264, Note_off_c, 1, 65, 0
3, 11264, Note_on_c, 1, 65, 96
3, 11776, Note_off_c, 1, 65, 0
3, 11776, Note_on_c, 1, 65, 96
3, 12288, Note_off_c, 1, 65, 0
3, 12288, Note_on_c, 1, 62, 96
3, 15360, Note_off_c, 1, 62, 0
3, 15360, Note_on_c, 1, 58, 96
3, 16384, Note_off_c, 1, 58, 0
3, 16384, Note_on_c, 1, 58, 96
3, 17408, Note_off_c, 1, 58, 0
3, 17408, Note_on_c, 1, 60, 96
3, 18432, Note_off_c, 1, 60, 0
3, 18432, Note_on_c, 1, 62, 96
3, 20480, Note_off_c, 1, 62, 0
3, 20480, Note_on_c, 1, 65, 96
3, 21504, Note_off_c, 1, 65, 0
3, 21504, Note_on_c, 1, 63, 96
3, 22528, Note_off_c, 1, 63, 0
3, 22528, Note_on_c, 1, 62, 96
3, 23552, Note_off_c, 1, 62, 0
3, 23552, Note_on_c, 1, 62, 96
3, 24576, Note_off_c, 1, 62, 0
3, 24576, Note_on_c, 1, 65, 96
3, 25600, Note_off_c, 1, 65, 0
3, 25600, Note_on_c, 1, 62, 96
3, 26624, Note_off_c, 1, 62, 0
3, 26624, Note_on_c, 1, 62, 96
3, 28672, Note_off_c, 1, 62, 0
3, 28672, Note_on_c, 1, 62, 96
3, 30720, Note_off_c, 1, 62, 0
3, 30720, Note_on_c, 1, 67, 96
3, 31744, Note_off_c, 1, 67, 0
3, 31744, Note_on_c, 1, 67, 96
3, 32768, Note_off_c, 1, 67, 0
3, 32768, Note_on_c, 1, 65, 96
3, 34304, Note_off_c, 1, 65, 0
3, 34304, Note_on_c, 1, 65, 96
3, 34816, Note_off_c, 1, 65, 0
3, 34816, Note_on_c, 1, 65, 96
3, 35840, Note_off_c, 1, 65, 0
3, 35840, Note_on_c, 1, 65, 96
3, 36864, Note_off_c, 1, 65, 0
3, 36864, Note_on_c, 1, 65, 96
3, 40960, Note_off_c, 1, 65, 0
3, 40960, Note_on_c, 1, 65, 96
3, 41984, Note_off_c, 1, 65, 0
3, 41984, Note_on_c, 1, 62, 96
3, 43008, Note_off_c, 1, 62, 0
3, 43008, Note_on_c, 1, 62, 96
3, 44032, Note_off_c, 1, 62, 0
3, 44032, Note_on_c, 1, 64, 96
3, 45056, Note_off_c, 1, 64, 0
3, 45056, Note_on_c, 1, 62, 96
3, 46592, Note_off_c, 1, 62, 0
3, 46592, Note_on_c, 1, 62, 96
3, 47104, Note_off_c, 1, 62, 0
3, 47104, Note_on_c, 1, 64, 96
3, 49152, Note_off_c, 1, 64, 0
3, 49152, Note_on_c, 1, 65, 96
3, 50176, Note_off_c, 1, 65, 0
3, 50176, Note_on_c, 1, 65, 96
3, 51200, Note_off_c, 1, 65, 0
3, 51200, Note_on_c, 1, 67, 96
3, 52224, Note_off_c, 1, 67, 0
3, 52224, Note_on_c, 1, 65, 96
3, 53248, Note_off_c, 1, 65, 0
3, 53248, Note_on_c, 1, 64, 96
3, 54784, Note_off_c, 1, 64, 0
3, 54784, Note_on_c, 1, 64, 96
3, 55296, Note_off_c, 1, 64, 0
3, 55296, Note_on_c, 1, 66, 96
3, 57344, Note_off_c, 1, 66, 0
3, 57344, Note_on_c, 1, 67, 96
3, 65536, Note_off_c, 1, 67, 0
3, 65536, Note_on_c, 1, 63, 96
3, 69632, Note_off_c, 1, 63, 0
3, 69632, Note_on_c, 1, 65, 96
3, 77824, Note_off_c, 1, 65, 0
3, 77824, Note_on_c, 1, 65, 96
3, 81920, Note_off_c, 1, 65, 0
3, 81920, Note_on_c, 1, 67, 96
3, 86016, Note_off_c, 1, 67, 0
3, 86016, Note_on_c, 1, 63, 96
3, 94208, Note_off_c, 1, 63, 0
3, 94208, Note_on_c, 1, 65, 96
3, 106496, Note_off_c, 1, 65, 0
3, 106496, Note_on_c, 1, 65, 96
3, 114688, Note_off_c, 1, 65, 0
3, 114688, Note_on_c, 1, 65, 96
3, 118784, Note_off_c, 1, 65, 0
3, 118784, Note_on_c, 1, 65, 96
3, 131072, Note_off_c, 1, 65, 0
3, 131072, Note_on_c, 1, 67, 96
3, 135168, Note_off_c, 1, 67, 0
3, 135168, Note_on_c, 1, 65, 96
3, 141312, Note_off_c, 1, 65, 0
3, 141312, Note_on_c, 1, 65, 96
3, 143360, Note_off_c, 1, 65, 0
3, 143360, Note_on_c, 1, 65, 96
3, 155648, Note_off_c, 1, 65, 0
3, 155648, End_track
4, 0, Start_track
4, 0, Title_t, "Instrument 3"
4, 0, Note_on_c, 2, 62, 96
4, 1024, Note_off_c, 2, 62, 0
4, 1024, Note_on_c, 2, 62, 96
4, 2048, Note_off_c, 2, 62, 0
4, 2048, Note_on_c, 2, 62, 96
4, 5120, Note_off_c, 2, 62, 0
4, 5120, Note_on_c, 2, 62, 96
4, 6144, Note_off_c, 2, 62, 0
4, 6144, Note_on_c, 2, 60, 96
4, 7168, Note_off_c, 2, 60, 0
4, 7168, Note_on_c, 2, 60, 96
4, 8192, Note_off_c, 2, 60, 0
4, 8192, Note_on_c, 2, 58, 96
4, 10240, Note_off_c, 2, 58, 0
4, 10240, Note_on_c, 2, 60, 96
4, 11264, Note_off_c, 2, 60, 0
4, 11264, Note_on_c, 2, 57, 96
4, 11776, Note_off_c, 2, 57, 0
4, 11776, Note_on_c, 2, 57, 96
4, 12288, Note_off_c, 2, 57, 0
4, 12288, Note_on_c, 2, 58, 96
4, 15360, Note_off_c, 2, 58, 0
4, 15360, Note_on_c, 2, 58, 96
4, 16384, Note_off_c, 2, 58, 0
4, 16384, Note_on_c, 2, 58, 96
4, 17408, Note_off_c, 2, 58, 0
4, 17408, Note_on_c, 2, 57, 96
4, 18432, Note_off_c, 2, 57, 0
4, 18432, Note_on_c, 2, 58, 96
4, 20480, Note_off_c, 2, 58, 0
4, 20480, Note_on_c, 2, 58, 96
4, 21504, Note_off_c, 2, 58, 0
4, 21504, Note_on_c, 2, 55, 96
4, 22528, Note_off_c, 2, 55, 0
4, 22528, Note_on_c, 2, 53, 96
4, 23552, Note_off_c, 2, 53, 0
4, 23552, Note_on_c, 2, 58, 96
4, 24576, Note_off_c, 2, 58, 0
4, 24576, Note_on_c, 2, 60, 96
4, 25600, Note_off_c, 2, 60, 0
4, 25600, Note_on_c, 2, 55, 96
4, 26624, Note_off_c, 2, 55, 0
4, 26624, Note_on_c, 2, 57, 96
4, 28672, Note_off_c, 2, 57, 0
4, 28672, Note_on_c, 2, 58, 96
4, 31744, Note_off_c, 2, 58, 0
4, 31744, Note_on_c, 2, 58, 96
4, 32256, Note_off_c, 2, 58, 0
4, 32256, Note_on_c, 2, 58, 96
4, 32768, Note_off_c, 2, 58, 0
4, 32768, Note_on_c, 2, 60, 96
4, 33792, Note_off_c, 2, 60, 0
4, 33792, Note_on_c, 2, 58, 96
4, 34816, Note_off_c, 2, 58, 0
4, 34816, Note_on_c, 2, 60, 96
4, 36352, Note_off_c, 2, 60, 0
4, 36352, Note_on_c, 2, 60, 96
4, 36864, Note_off_c, 2, 60, 0
4, 36864, Note_on_c, 2, 62, 96
4, 40960, Note_off_c, 2, 62, 0
4, 40960, Note_on_c, 2, 62, 96
4, 41984, Note_off_c, 2, 62, 0
4, 41984, Note_on_c, 2, 62, 96
4, 43008, Note_off_c, 2, 62, 0
4, 43008, Note_on_c, 2, 58, 96
4, 44032, Note_off_c, 2, 58, 0
4, 44032, Note_on_c, 2, 57, 96
4, 45056, Note_off_c, 2, 57, 0
4, 45056, Note_on_c, 2, 62, 96
4, 46080, Note_off_c, 2, 62, 0
4, 46080, Note_on_c, 2, 50, 96
4, 47104, Note_off_c, 2, 50, 0
4, 47104, Note_on_c, 2, 57, 96
4, 49152, Note_off_c, 2, 57, 0
4, 49152, Note_on_c, 2, 57, 96
4, 50176, Note_off_c, 2, 57, 0
4, 50176, Note_on_c, 2, 60, 96
4, 51200, Note_off_c, 2, 60, 0
4, 51200, Note_on_c, 2, 60, 96
4, 52224, Note_off_c, 2, 60, 0
4, 52224, Note_on_c, 2, 57, 96
4, 53248, Note_off_c, 2, 57, 0
4, 53248, Note_on_c, 2, 57, 96
4, 54784, Note_off_c, 2, 57, 0
4, 54784, Note_on_c, 2, 57, 96
4, 55296, Note_off_c, 2, 57, 0
4, 55296, Note_on_c, 2, 57, 96
4, 57344, Note_off_c, 2, 57, 0
4, 57344, Note_on_c, 2, 55, 96
4, 65536, Note_off_c, 2, 55, 0
4, 65536, Note_on_c, 2, 60, 96
4, 69632, Note_off_c, 2, 60, 0
4, 69632, Note_on_c, 2, 53, 96
4, 77824, Note_off_c, 2, 53, 0
4, 77824, Note_on_c, 2, 53, 96
4, 81920, Note_off_c, 2, 53, 0
4, 81920, Note_on_c, 2, 60, 96
4, 90112, Note_off_c, 2, 60, 0
4, 90112, Note_on_c, 2, 60, 96
4, 94208, Note_off_c, 2, 60, 0
4, 94208, Note_on_c, 2, 62, 96
4, 106496, Note_off_c, 2, 62, 0
4, 106496, Note_on_c, 2, 62, 96
4, 114688, Note_off_c, 2, 62, 0
4, 114688, Note_on_c, 2, 65, 96
4, 118784, Note_off_c, 2, 65, 0
4, 118784, Note_on_c, 2, 62, 96
4, 126976, Note_off_c, 2, 62, 0
4, 126976, Note_on_c, 2, 62, 96
4, 131072, Note_off_c, 2, 62, 0
4, 131072, Note_on_c, 2, 60, 96
4, 139264, Note_off_c, 2, 60, 0
4, 139264, Note_on_c, 2, 60, 96
4, 143360, Note_off_c, 2, 60, 0
4, 143360, Note_on_c, 2, 62, 96
4, 155648, Note_off_c, 2, 62, 0
4, 155648, End_track
5, 0, Start_track
5, 0, Title_t, "Instrument 4"
5, 0, Note_on_c, 3, 58, 96
5, 1024, Note_off_c, 3, 58, 0
5, 1024, Note_on_c, 3, 58, 96
5, 2048, Note_off_c, 3, 58, 0
5, 2048, Note_on_c, 3, 58, 96
5, 5120, Note_off_c, 3, 58, 0
5, 5120, Note_on_c, 3, 50, 96
5, 6144, Note_off_c, 3, 50, 0
5, 6144, Note_on_c, 3, 51, 96
5, 7168, Note_off_c, 3, 51, 0
5, 7168, Note_on_c, 3, 53, 96
5, 8192, Note_off_c, 3, 53, 0
5, 8192, Note_on_c, 3, 46, 96
5, 10240, Note_off_c, 3, 46, 0
5, 10240, Note_on_c, 3, 41, 96
5, 11264, Note_off_c, 3, 41, 0
5, 11264, Note_on_c, 3, 53, 96
5, 11776, Note_off_c, 3, 53, 0
5, 11776, Note_on_c, 3, 53, 96
5, 12288, Note_off_c, 3, 53, 0
5, 12288, Note_on_c, 3, 55, 96
5, 15360, Note_off_c, 3, 55, 0
5, 15360, Note_on_c, 3, 55, 96
5, 16384, Note_off_c, 3, 55, 0
5, 16384, Note_on_c, 3, 58, 96
5, 17408, Note_off_c, 3, 58, 0
5, 17408, Note_on_c, 3, 53, 96
5, 18432, Note_off_c, 3, 53, 0
5, 18432, Note_on_c, 3, 46, 96
5, 20480, Note_off_c, 3, 46, 0
5, 20480, Note_on_c, 3, 46, 96
5, 21504, Note_off_c, 3, 46, 0
5, 21504, Note_on_c, 3, 48, 96
5, 22528, Note_off_c, 3, 48, 0
5, 22528, Note_on_c, 3, 50, 96
5, 23552, Note_off_c, 3, 50, 0
5, 23552, Note_on_c, 3, 46, 96
5, 24576, Note_off_c, 3, 46, 0
5, 24576, Note_on_c, 3, 41, 96
5, 25600, Note_off_c, 3, 41, 0
5, 25600, Note_on_c, 3, 43, 96
5, 26624, Note_off_c, 3, 43, 0
5, 26624, Note_on_c, 3, 50, 96
5, 28672, Note_off_c, 3, 50, 0
5, 28672, Note_on_c, 3, 43, 96
5, 31744, Note_off_c, 3, 43, 0
5, 31744, Note_on_c, 3, 55, 96
5, 32256, Note_off_c, 3, 55, 0
5, 32256, Note_on_c, 3, 55, 96
5, 32768, Note_off_c, 3, 55, 0
5, 32768, Note_on_c, 3, 57, 96
5, 33792, Note_off_c, 3, 57, 0
5, 33792, Note_on_c, 3, 58, 96
5, 34816, Note_off_c, 3, 58, 0
5, 34816, Note_on_c, 3, 53, 96
5, 36352, Note_off_c, 3, 53, 0
5, 36352, Note_on_c, 3, 53, 96
5, 36864, Note_off_c, 3, 53, 0
5, 36864, Note_on_c, 3, 46, 96
5, 40960, Note_off_c, 3, 46, 0
5, 40960, Note_on_c, 3, 50, 96
5, 41984, Note_off_c, 3, 50, 0
5, 41984, Note_on_c, 3, 50, 96
5, 43008, Note_off_c, 3, 50, 0
5, 43008, Note_on_c, 3, 50, 96
5, 44032, Note_off_c, 3, 50, 0
5, 44032, Note_on_c, 3, 48, 96
5, 45056, Note_off_c, 3, 48, 0
5, 45056, Note_on_c, 3, 46, 96
5, 46592, Note_off_c, 3, 46, 0
5, 46592, Note_on_c, 3, 46, 96
5, 47104, Note_off_c, 3, 46, 0
5, 47104, Note_on_c, 3, 45, 96
5, 49152, Note_off_c, 3, 45, 0
5, 49152, Note_on_c, 3, 41, 96
5, 50176, Note_off_c, 3, 41, 0
5, 50176, Note_on_c, 3, 41, 96
5, 51200, Note_off_c, 3, 41, 0
5, 51200, Note_on_c, 3, 48, 96
5, 52224, Note_off_c, 3, 48, 0
5, 52224, Note_on_c, 3, 50, 96
5, 53248, Note_off_c, 3, 50, 0
5, 53248, Note_on_c, 3, 45, 96
5, 54784, Note_off_c, 3, 45, 0
5, 54784, Note_on_c, 3, 45, 96
5, 55296, Note_off_c, 3, 45, 0
5, 55296, Note_on_c, 3, 50, 96
5, 57344, Note_off_c, 3, 50, 0
5, 57344, Note_on_c, 3, 51, 96
5, 65536, Note_off_c, 3, 51, 0
5, 65536, Note_on_c, 3, 48, 96
5, 69632, Note_off_c, 3, 48, 0
5, 69632, Note_on_c, 3, 46, 96
5, 77824, Note_off_c, 3, 46, 0
5, 77824, Note_on_c, 3, 50, 96
5, 81920, Note_off_c, 3, 50, 0
5, 81920, Note_on_c, 3, 48, 96
5, 90112, Note_off_c, 3, 48, 0
5, 90112, Note_on_c, 3, 48, 96
5, 94208, Note_off_c, 3, 48, 0
5, 94208, Note_on_c, 3, 46, 96
5, 106496, Note_off_c, 3, 46, 0
5, 106496, Note_on_c, 3, 58, 96
5, 114688, Note_off_c, 3, 58, 0
5, 114688, Note_on_c, 3, 57, 96
5, 118784, Note_off_c, 3, 57, 0
5, 118784, Note_on_c, 3, 58, 96
5, 126976, Note_off_c, 3, 58, 0
5, 126976, Note_on_c, 3, 62, 96
5, 131072, Note_off_c, 3, 62, 0
5, 131072, Note_on_c, 3, 51, 96
5, 135168, Note_off_c, 3, 51, 0
5, 135168, Note_on_c, 3, 53, 96
5, 141312, Note_off_c, 3, 53, 0
5, 141312, Note_on_c, 3, 53, 96
5, 143360, Note_off_c, 3, 53, 0
5, 143360, Note_on_c, 3, 46, 96
5, 155648, Note_off_c, 3, 46, 0
5, 155648, End_track
0, 0, End_of_file
