0, 0, Header, 1, 6, 192
1, 0, Start_track
1, 0, Title_t, "dfasd"
1, 0, Copyright_t, "Copyright © 1999 by NoteWorthy ArtWare, Inc. All Rights Reserved"
1, 0, Text_t, "By Unregistered User\012"
1, 0, Text_t, "Generated by NoteWorthy Composer\012"
1, 0, Time_signature, 1, 0, 96, 8
1, 0, Key_signature, -3, "major"
1, 0, Tempo, 312500
1, 0, Marker_t, "1mov"
1, 12339, Tempo, 314136
1, 12343, Tempo, 315789
1, 12346, Tempo, 317460
1, 12350, Tempo, 319149
1, 12354, Tempo, 320856
1, 12357, Tempo, 322581
1, 12361, Tempo, 324324
1, 12365, Tempo, 326087
1, 12368, Tempo, 327869
1, 12372, Tempo, 329670
1, 12376, Tempo, 331492
1, 12379, Tempo, 333333
1, 12383, Tempo, 335196
1, 12387, Tempo, 337079
1, 12390, Tempo, 338983
1, 12394, Tempo, 340909
1, 12398, Tempo, 342857
1, 12401, Tempo, 344828
1, 12405, Tempo, 346821
1, 12409, Tempo, 348837
1, 12412, Tempo, 350877
1, 12416, Tempo, 352941
1, 12420, Tempo, 355030
1, 12423, Tempo, 357143
1, 12427, Tempo, 359281
1, 12430, Tempo, 361446
1, 12434, Tempo, 363636
1, 12438, Tempo, 365854
1, 12441, Tempo, 368098
1, 12445, Tempo, 370370
1, 12449, Tempo, 372671
1, 12452, Tempo, 375000
1, 12456, Tempo, 377358
1, 12460, Tempo, 379747
1, 12463, Tempo, 382166
1, 12467, Tempo, 384615
1, 12471, Tempo, 387097
1, 12474, Tempo, 389610
1, 12478, Tempo, 392157
1, 12482, Tempo, 394737
1, 12485, Tempo, 397351
1, 12489, Tempo, 400000
1, 12493, Tempo, 402685
1, 12496, Tempo, 405405
1, 12500, Tempo, 408163
1, 12504, Tempo, 410959
1, 12507, Tempo, 413793
1, 12511, Tempo, 416667
1, 12514, Tempo, 419580
1, 12518, Tempo, 422535
1, 12522, Tempo, 425532
1, 12525, Tempo, 428571
1, 12529, Tempo, 431655
1, 12533, Tempo, 434783
1, 12536, Tempo, 437956
1, 12540, Tempo, 441176
1, 12544, Tempo, 444444
1, 12547, Tempo, 447761
1, 12551, Tempo, 451128
1, 12555, Tempo, 454545
1, 12558, Tempo, 458015
1, 12562, Tempo, 461538
1, 12566, Tempo, 465116
1, 12569, Tempo, 468750
1, 12573, Tempo, 472441
1, 12577, Tempo, 476190
1, 12580, Tempo, 480000
1, 12584, Tempo, 483871
1, 12588, Tempo, 487805
1, 12591, Tempo, 491803
1, 12595, Tempo, 495868
1, 12598, Tempo, 500000
1, 12602, Tempo, 504202
1, 12606, Tempo, 508475
1, 12609, Tempo, 512821
1, 12613, Tempo, 517241
1, 12617, Tempo, 521739
1, 12620, Tempo, 526316
1, 12624, Tempo, 530973
1, 12628, Tempo, 535714
1, 12631, Tempo, 540541
1, 12635, Tempo, 545455
1, 12639, Tempo, 550459
1, 12642, Tempo, 555556
1, 12646, Tempo, 560748
1, 12650, Tempo, 566038
1, 12653, Tempo, 571429
1, 12657, Tempo, 576923
1, 12661, Tempo, 582524
1, 12664, Tempo, 588235
1, 12668, Tempo, 594059
1, 12672, Tempo, 600000
1, 13440, Tempo, 652174
1, 24226, Tempo, 659341
1, 24261, Tempo, 666667
1, 24296, Tempo, 674157
1, 24331, Tempo, 681818
1, 24366, Tempo, 689655
1, 24401, Tempo, 697674
1, 24436, Tempo, 705882
1, 24471, Tempo, 714286
1, 24506, Tempo, 722892
1, 24541, Tempo, 731707
1, 24576, Tempo, 740741
1, 24610, Tempo, 750000
1, 24645, Tempo, 759494
1, 24680, Tempo, 769231
1, 24715, Tempo, 779221
1, 24750, Tempo, 789474
1, 24785, Tempo, 800000
1, 24820, Tempo, 810811
1, 24855, Tempo, 821918
1, 24890, Tempo, 833333
1, 24925, Tempo, 845070
1, 24960, Tempo, 312500
1, 27027, Tempo, 314136
1, 27031, Tempo, 315789
1, 27034, Tempo, 317460
1, 27038, Tempo, 319149
1, 27042, Tempo, 320856
1, 27045, Tempo, 322581
1, 27049, Tempo, 324324
1, 27053, Tempo, 326087
1, 27056, Tempo, 327869
1, 27060, Tempo, 329670
1, 27064, Tempo, 331492
1, 27067, Tempo, 333333
1, 27071, Tempo, 335196
1, 27075, Tempo, 337079
1, 27078, Tempo, 338983
1, 27082, Tempo, 340909
1, 27086, Tempo, 342857
1, 27089, Tempo, 344828
1, 27093, Tempo, 346821
1, 27097, Tempo, 348837
1, 27100, Tempo, 350877
1, 27104, Tempo, 352941
1, 27108, Tempo, 355030
1, 27111, Tempo, 357143
1, 27115, Tempo, 359281
1, 27118, Tempo, 361446
1, 27122, Tempo, 363636
1, 27126, Tempo, 365854
1, 27129, Tempo, 368098
1, 27133, Tempo, 370370
1, 27137, Tempo, 372671
1, 27140, Tempo, 375000
1, 27144, Tempo, 377358
1, 27148, Tempo, 379747
1, 27151, Tempo, 382166
1, 27155, Tempo, 384615
1, 27159, Tempo, 387097
1, 27162, Tempo, 389610
1, 27166, Tempo, 392157
1, 27170, Tempo, 394737
1, 27173, Tempo, 397351
1, 27177, Tempo, 400000
1, 27181, Tempo, 402685
1, 27184, Tempo, 405405
1, 27188, Tempo, 408163
1, 27192, Tempo, 410959
1, 27195, Tempo, 413793
1, 27199, Tempo, 416667
1, 27202, Tempo, 419580
1, 27206, Tempo, 422535
1, 27210, Tempo, 425532
1, 27213, Tempo, 428571
1, 27217, Tempo, 431655
1, 27221, Tempo, 434783
1, 27224, Tempo, 437956
1, 27228, Tempo, 441176
1, 27232, Tempo, 444444
1, 27235, Tempo, 447761
1, 27239, Tempo, 451128
1, 27243, Tempo, 454545
1, 27246, Tempo, 458015
1, 27250, Tempo, 461538
1, 27254, Tempo, 465116
1, 27257, Tempo, 468750
1, 27261, Tempo, 472441
1, 27265, Tempo, 476190
1, 27268, Tempo, 480000
1, 27272, Tempo, 483871
1, 27276, Tempo, 487805
1, 27279, Tempo, 491803
1, 27283, Tempo, 495868
1, 27286, Tempo, 500000
1, 27290, Tempo, 504202
1, 27294, Tempo, 508475
1, 27297, Tempo, 512821
1, 27301, Tempo, 517241
1, 27305, Tempo, 521739
1, 27308, Tempo, 526316
1, 27312, Tempo, 530973
1, 27316, Tempo, 535714
1, 27319, Tempo, 540541
1, 27323, Tempo, 545455
1, 27327, Tempo, 550459
1, 27330, Tempo, 555556
1, 27334, Tempo, 560748
1, 27338, Tempo, 566038
1, 27341, Tempo, 571429
1, 27345, Tempo, 576923
1, 27349, Tempo, 582524
1, 27352, Tempo, 588235
1, 27356, Tempo, 594059
1, 27360, Tempo, 600000
1, 28416, Time_signature, 4, 2, 24, 8
1, 28416, Marker_t, "2mov"
1, 28512, Tempo, 833333
1, 58544, Tempo, 845070
1, 58577, Tempo, 857143
1, 58610, Tempo, 869565
1, 58642, Tempo, 882353
1, 58675, Tempo, 895522
1, 58708, Tempo, 909091
1, 58741, Tempo, 923077
1, 58773, Tempo, 937500
1, 58806, Tempo, 952381
1, 58839, Tempo, 967742
1, 58871, Tempo, 983607
1, 58904, Tempo, 1000000
1, 58937, Tempo, 1016949
1, 58970, Tempo, 1034483
1, 59002, Tempo, 1052632
1, 59035, Tempo, 1071429
1, 59068, Tempo, 1090909
1, 59101, Tempo, 1111111
1, 59133, Tempo, 1132075
1, 59166, Tempo, 1153846
1, 59199, Tempo, 1176471
1, 59232, Tempo, 1200000
1, 59904, Time_signature, 3, 2, 24, 8
1, 59904, Marker_t, "3mov"
1, 60000, Tempo, 357143
1, 60096, Tempo, 535714
1, 69216, Tempo, 357143
1, 69312, Tempo, 535714
1, 78432, Tempo, 357143
1, 78528, Tempo, 535714
1, 89952, Tempo, 357143
1, 90048, Tempo, 535714
1, 100441, Tempo, 540541
1, 100466, Tempo, 545455
1, 100491, Tempo, 550459
1, 100516, Tempo, 555556
1, 100541, Tempo, 560748
1, 100566, Tempo, 566038
1, 100591, Tempo, 571429
1, 100617, Tempo, 576923
1, 100642, Tempo, 582524
1, 100667, Tempo, 588235
1, 100692, Tempo, 594059
1, 100717, Tempo, 600000
1, 100742, Tempo, 606061
1, 100767, Tempo, 612245
1, 100793, Tempo, 618557
1, 100818, Tempo, 625000
1, 100843, Tempo, 631579
1, 100868, Tempo, 638298
1, 100893, Tempo, 645161
1, 100918, Tempo, 652174
1, 100943, Tempo, 659341
1, 100969, Tempo, 666667
1, 100994, Tempo, 674157
1, 101019, Tempo, 681818
1, 101044, Tempo, 689655
1, 101069, Tempo, 697674
1, 101094, Tempo, 705882
1, 101119, Tempo, 714286
1, 101145, Tempo, 722892
1, 101170, Tempo, 731707
1, 101195, Tempo, 740741
1, 101220, Tempo, 750000
1, 101245, Tempo, 759494
1, 101270, Tempo, 769231
1, 101295, Tempo, 779221
1, 101321, Tempo, 789474
1, 101346, Tempo, 800000
1, 101371, Tempo, 810811
1, 101396, Tempo, 821918
1, 101421, Tempo, 833333
1, 101446, Tempo, 845070
1, 101472, Tempo, 857143
1, 101848, Marker_t, "4mov"
1, 101856, Tempo, 909091
1, 128950, Tempo, 923077
1, 128972, Tempo, 937500
1, 128994, Tempo, 952381
1, 129016, Tempo, 967742
1, 129038, Tempo, 983607
1, 129060, Tempo, 1000000
1, 129083, Tempo, 1016949
1, 129105, Tempo, 1034483
1, 129127, Tempo, 1052632
1, 129149, Tempo, 1071429
1, 129171, Tempo, 1090909
1, 129193, Tempo, 1111111
1, 129216, Tempo, 1132075
1, 129238, Tempo, 1153846
1, 129260, Tempo, 1176471
1, 129282, Tempo, 1200000
1, 129304, Tempo, 1224490
1, 129326, Tempo, 1250000
1, 129348, Tempo, 1276596
1, 129371, Tempo, 1304348
1, 129393, Tempo, 1333333
1, 129415, Tempo, 1363636
1, 129437, Tempo, 1395349
1, 129459, Tempo, 1428571
1, 129481, Tempo, 1463415
1, 129504, Tempo, 1500000
1, 129600, Time_signature, 2, 1, 48, 8
1, 129832, Marker_t, "5mov"
1, 129888, Tempo, 394737
1, 162542, Tempo, 397351
1, 162557, Tempo, 400000
1, 162572, Tempo, 402685
1, 162587, Tempo, 405405
1, 162601, Tempo, 408163
1, 162616, Tempo, 410959
1, 162631, Tempo, 413793
1, 162646, Tempo, 416667
1, 162660, Tempo, 419580
1, 162675, Tempo, 422535
1, 162690, Tempo, 425532
1, 162705, Tempo, 428571
1, 162720, Tempo, 431655
1, 162734, Tempo, 434783
1, 162749, Tempo, 437956
1, 162764, Tempo, 441176
1, 162779, Tempo, 444444
1, 162793, Tempo, 447761
1, 162808, Tempo, 451128
1, 162823, Tempo, 454545
1, 162838, Tempo, 458015
1, 162852, Tempo, 461538
1, 162867, Tempo, 465116
1, 162882, Tempo, 468750
1, 162897, Tempo, 472441
1, 162912, Tempo, 476190
1, 162926, Tempo, 480000
1, 162941, Tempo, 483871
1, 162956, Tempo, 487805
1, 162971, Tempo, 491803
1, 162985, Tempo, 495868
1, 163000, Tempo, 500000
1, 163015, Tempo, 504202
1, 163030, Tempo, 508475
1, 163044, Tempo, 512821
1, 163059, Tempo, 517241
1, 163074, Tempo, 521739
1, 163089, Tempo, 526316
1, 163104, Tempo, 530973
1, 163118, Tempo, 535714
1, 163133, Tempo, 540541
1, 163148, Tempo, 545455
1, 163163, Tempo, 550459
1, 163177, Tempo, 555556
1, 163192, Tempo, 560748
1, 163207, Tempo, 566038
1, 163222, Tempo, 571429
1, 163236, Tempo, 576923
1, 163251, Tempo, 582524
1, 163266, Tempo, 588235
1, 163281, Tempo, 594059
1, 163296, Tempo, 600000
1, 164064, Tempo, 394737
1, 264298, Tempo, 397351
1, 264309, Tempo, 400000
1, 264320, Tempo, 402685
1, 264330, Tempo, 405405
1, 264341, Tempo, 408163
1, 264352, Tempo, 410959
1, 264362, Tempo, 413793
1, 264373, Tempo, 416667
1, 264384, Tempo, 419580
1, 264394, Tempo, 422535
1, 264405, Tempo, 425532
1, 264416, Tempo, 428571
1, 264426, Tempo, 431655
1, 264437, Tempo, 434783
1, 264448, Tempo, 437956
1, 264458, Tempo, 441176
1, 264469, Tempo, 444444
1, 264480, Tempo, 447761
1, 264490, Tempo, 451128
1, 264501, Tempo, 454545
1, 264512, Tempo, 458015
1, 264522, Tempo, 461538
1, 264533, Tempo, 465116
1, 264544, Tempo, 468750
1, 264554, Tempo, 472441
1, 264565, Tempo, 476190
1, 264576, Tempo, 480000
1, 264586, Tempo, 483871
1, 264597, Tempo, 487805
1, 264608, Tempo, 491803
1, 264618, Tempo, 495868
1, 264629, Tempo, 500000
1, 264640, Tempo, 504202
1, 264650, Tempo, 508475
1, 264661, Tempo, 512821
1, 264672, Tempo, 517241
1, 264682, Tempo, 521739
1, 264693, Tempo, 526316
1, 264704, Tempo, 530973
1, 264714, Tempo, 535714
1, 264725, Tempo, 540541
1, 264736, Tempo, 545455
1, 264746, Tempo, 550459
1, 264757, Tempo, 555556
1, 264768, Tempo, 560748
1, 264778, Tempo, 566038
1, 264789, Tempo, 571429
1, 264800, Tempo, 576923
1, 264810, Tempo, 582524
1, 264821, Tempo, 588235
1, 264832, Tempo, 594059
1, 264842, Tempo, 600000
1, 264853, Tempo, 606061
1, 264864, Tempo, 612245
1, 264874, Tempo, 618557
1, 264885, Tempo, 625000
1, 264896, Tempo, 631579
1, 264906, Tempo, 638298
1, 264917, Tempo, 645161
1, 264928, Tempo, 652174
1, 264938, Tempo, 659341
1, 264949, Tempo, 666667
1, 264960, Tempo, 674157
1, 264970, Tempo, 681818
1, 264981, Tempo, 689655
1, 264992, Tempo, 697674
1, 265002, Tempo, 705882
1, 265013, Tempo, 714286
1, 265024, Tempo, 722892
1, 265034, Tempo, 731707
1, 265045, Tempo, 740741
1, 265056, Tempo, 750000
1, 265824, Tempo, 394737
1, 281582, Tempo, 397351
1, 281597, Tempo, 400000
1, 281612, Tempo, 402685
1, 281627, Tempo, 405405
1, 281641, Tempo, 408163
1, 281656, Tempo, 410959
1, 281671, Tempo, 413793
1, 281686, Tempo, 416667
1, 281700, Tempo, 419580
1, 281715, Tempo, 422535
1, 281730, Tempo, 425532
1, 281745, Tempo, 428571
1, 281760, Tempo, 431655
1, 281774, Tempo, 434783
1, 281789, Tempo, 437956
1, 281804, Tempo, 441176
1, 281819, Tempo, 444444
1, 281833, Tempo, 447761
1, 281848, Tempo, 451128
1, 281863, Tempo, 454545
1, 281878, Tempo, 458015
1, 281892, Tempo, 461538
1, 281907, Tempo, 465116
1, 281922, Tempo, 468750
1, 281937, Tempo, 472441
1, 281952, Tempo, 476190
1, 281966, Tempo, 480000
1, 281981, Tempo, 483871
1, 281996, Tempo, 487805
1, 282011, Tempo, 491803
1, 282025, Tempo, 495868
1, 282040, Tempo, 500000
1, 282055, Tempo, 504202
1, 282070, Tempo, 508475
1, 282084, Tempo, 512821
1, 282099, Tempo, 517241
1, 282114, Tempo, 521739
1, 282129, Tempo, 526316
1, 282144, Tempo, 530973
1, 282158, Tempo, 535714
1, 282173, Tempo, 540541
1, 282188, Tempo, 545455
1, 282203, Tempo, 550459
1, 282217, Tempo, 555556
1, 282232, Tempo, 560748
1, 282247, Tempo, 566038
1, 282262, Tempo, 571429
1, 282276, Tempo, 576923
1, 282291, Tempo, 582524
1, 282306, Tempo, 588235
1, 282321, Tempo, 594059
1, 282336, Tempo, 600000
1, 282432, Time_signature, 3, 2, 24, 8
1, 283104, Tempo, 535714
1, 284832, Tempo, 428571
1, 284952, Tempo, 535714
1, 289464, Tempo, 428571
1, 289584, Tempo, 535714
1, 300445, Tempo, 540541
1, 300459, Tempo, 545455
1, 300473, Tempo, 550459
1, 300486, Tempo, 555556
1, 300500, Tempo, 560748
1, 300514, Tempo, 566038
1, 300528, Tempo, 571429
1, 300541, Tempo, 576923
1, 300555, Tempo, 582524
1, 300569, Tempo, 588235
1, 300582, Tempo, 594059
1, 300596, Tempo, 600000
1, 300610, Tempo, 606061
1, 300624, Tempo, 612245
1, 300637, Tempo, 618557
1, 300651, Tempo, 625000
1, 300665, Tempo, 631579
1, 300678, Tempo, 638298
1, 300692, Tempo, 645161
1, 300706, Tempo, 652174
1, 300720, Tempo, 659341
1, 300733, Tempo, 666667
1, 300747, Tempo, 674157
1, 300761, Tempo, 681818
1, 300774, Tempo, 689655
1, 300788, Tempo, 697674
1, 300802, Tempo, 705882
1, 300816, Tempo, 714286
1, 300829, Tempo, 722892
1, 300843, Tempo, 731707
1, 300857, Tempo, 740741
1, 300870, Tempo, 750000
1, 300884, Tempo, 759494
1, 300898, Tempo, 769231
1, 300912, Tempo, 779221
1, 300925, Tempo, 789474
1, 300939, Tempo, 800000
1, 300953, Tempo, 810811
1, 300966, Tempo, 821918
1, 300980, Tempo, 833333
1, 300994, Tempo, 845070
1, 301008, Tempo, 857143
1, 301440, Time_signature, 4, 2, 24, 8
1, 301968, Tempo, 652174
1, 335016, Tempo, 659341
1, 335040, Tempo, 666667
1, 335064, Tempo, 674157
1, 335088, Tempo, 681818
1, 335112, Tempo, 689655
1, 335136, Tempo, 697674
1, 335160, Tempo, 705882
1, 335184, Tempo, 714286
1, 335208, Tempo, 722892
1, 335232, Tempo, 731707
1, 335256, Tempo, 740741
1, 335280, Tempo, 750000
1, 335304, Tempo, 759494
1, 335328, Tempo, 769231
1, 335352, Tempo, 779221
1, 335376, Tempo, 789474
1, 335400, Tempo, 800000
1, 335424, Tempo, 810811
1, 335448, Tempo, 821918
1, 335472, Tempo, 833333
1, 335496, Tempo, 845070
1, 335520, Tempo, 857143
1, 335544, Tempo, 869565
1, 335568, Tempo, 882353
1, 335592, Tempo, 895522
1, 335616, Tempo, 909091
1, 335640, Tempo, 923077
1, 335664, Tempo, 937500
1, 335688, Tempo, 952381
1, 335712, Tempo, 967742
1, 335736, Tempo, 983607
1, 335760, Tempo, 1000000
1, 336000, Time_signature, 6, 3, 12, 8
1, 336144, Tempo, 370370
1, 368112, Tempo, 277778
1, 368496, Tempo, 370370
1, 368784, Tempo, 277778
1, 369168, Tempo, 370370
1, 369456, Tempo, 277778
1, 369840, Tempo, 370370
1, 380496, Tempo, 277778
1, 380880, Tempo, 370370
1, 381168, Tempo, 277778
1, 381552, Tempo, 370370
1, 381840, Tempo, 277778
1, 382224, Tempo, 370370
1, 388272, Tempo, 277778
1, 388656, Tempo, 370370
1, 388944, Tempo, 277778
1, 389328, Tempo, 370370
1, 389616, Tempo, 277778
1, 390000, Tempo, 370370
1, 400656, Tempo, 277778
1, 401040, Tempo, 370370
1, 401328, Tempo, 277778
1, 401712, Tempo, 370370
1, 402000, Tempo, 277778
1, 402384, Tempo, 370370
1, 405280, Tempo, 372671
1, 405296, Tempo, 375000
1, 405312, Tempo, 377358
1, 405328, Tempo, 379747
1, 405344, Tempo, 382166
1, 405360, Tempo, 384615
1, 405376, Tempo, 387097
1, 405392, Tempo, 389610
1, 405408, Tempo, 392157
1, 405424, Tempo, 394737
1, 405440, Tempo, 397351
1, 405456, Tempo, 400000
1, 405472, Tempo, 402685
1, 405488, Tempo, 405405
1, 405504, Tempo, 408163
1, 405520, Tempo, 410959
1, 405536, Tempo, 413793
1, 405552, Tempo, 416667
1, 405568, Tempo, 419580
1, 405584, Tempo, 422535
1, 405600, Tempo, 425532
1, 405616, Tempo, 428571
1, 405632, Tempo, 431655
1, 405648, Tempo, 434783
1, 405664, Tempo, 437956
1, 405680, Tempo, 441176
1, 405696, Tempo, 444444
1, 405712, Tempo, 447761
1, 405728, Tempo, 451128
1, 405744, Tempo, 454545
1, 405760, Tempo, 458015
1, 405776, Tempo, 461538
1, 405792, Tempo, 465116
1, 405808, Tempo, 468750
1, 405824, Tempo, 472441
1, 405840, Tempo, 476190
1, 405856, Tempo, 480000
1, 405872, Tempo, 483871
1, 405888, Tempo, 487805
1, 405904, Tempo, 491803
1, 405920, Tempo, 495868
1, 405936, Tempo, 500000
1, 405952, Tempo, 504202
1, 405968, Tempo, 508475
1, 405984, Tempo, 512821
1, 406000, Tempo, 517241
1, 406016, Tempo, 521739
1, 406032, Tempo, 526316
1, 406048, Tempo, 530973
1, 406064, Tempo, 535714
1, 406080, Tempo, 540541
1, 406096, Tempo, 545455
1, 406112, Tempo, 550459
1, 406128, Tempo, 555556
1, 406144, Tempo, 560748
1, 406160, Tempo, 566038
1, 406176, Tempo, 571429
1, 406192, Tempo, 576923
1, 406208, Tempo, 582524
1, 406224, Tempo, 588235
1, 406240, Tempo, 594059
1, 406256, Tempo, 600000
1, 406272, Time_signature, 3, 2, 24, 8
1, 406272, Tempo, 606061
1, 406288, Tempo, 612245
1, 406304, Tempo, 618557
1, 406320, Tempo, 625000
1, 406336, Tempo, 631579
1, 406352, Tempo, 638298
1, 406368, Tempo, 645161
1, 406384, Tempo, 652174
1, 406400, Tempo, 659341
1, 406416, Tempo, 666667
1, 406800, Tempo, 535714
1, 428724, Tempo, 540541
1, 428760, Tempo, 545455
1, 428796, Tempo, 550459
1, 428832, Tempo, 555556
1, 428868, Tempo, 560748
1, 428904, Tempo, 566038
1, 428940, Tempo, 571429
1, 428976, Tempo, 576923
1, 429012, Tempo, 582524
1, 429048, Tempo, 588235
1, 429084, Tempo, 594059
1, 429120, Tempo, 600000
1, 429156, Tempo, 606061
1, 429192, Tempo, 612245
1, 429228, Tempo, 618557
1, 429264, Tempo, 625000
1, 429300, Tempo, 631579
1, 429336, Tempo, 638298
1, 429372, Tempo, 645161
1, 429408, Tempo, 652174
1, 429444, Tempo, 659341
1, 429480, Tempo, 666667
1, 429516, Tempo, 674157
1, 429552, Tempo, 681818
1, 429588, Tempo, 689655
1, 429624, Tempo, 697674
1, 429660, Tempo, 705882
1, 429696, Tempo, 714286
1, 429732, Tempo, 722892
1, 429768, Tempo, 731707
1, 429804, Tempo, 740741
1, 429840, Tempo, 750000
1, 429840, End_track
2, 0, Start_track
2, 0, Title_t, "Staff"
2, 0, Program_c, 0, 6
2, 0, Control_c, 0, 7, 127
2, 0, Control_c, 0, 10, 64
2, 144, Note_on_c, 0, 63, 127
2, 192, Note_on_c, 0, 67, 127
2, 240, Note_on_c, 0, 70, 127
2, 288, Note_on_c, 0, 75, 127
2, 720, Note_on_c, 0, 75, 0
2, 720, Note_on_c, 0, 63, 0
2, 720, Note_on_c, 0, 67, 0
2, 720, Note_on_c, 0, 70, 0
2, 912, Note_on_c, 0, 67, 127
2, 960, Note_on_c, 0, 70, 127
2, 1008, Note_on_c, 0, 75, 127
2, 1440, Note_on_c, 0, 75, 0
2, 1440, Note_on_c, 0, 70, 0
2, 1440, Note_on_c, 0, 67, 0
2, 1584, Note_on_c, 0, 65, 127
2, 1632, Note_on_c, 0, 68, 127
2, 1680, Note_on_c, 0, 72, 127
2, 1728, Note_on_c, 0, 75, 127
2, 2160, Note_on_c, 0, 75, 0
2, 2160, Note_on_c, 0, 65, 0
2, 2160, Note_on_c, 0, 68, 0
2, 2160, Note_on_c, 0, 72, 0
2, 2256, Note_on_c, 0, 65, 127
2, 2304, Note_on_c, 0, 68, 127
2, 2352, Note_on_c, 0, 70, 127
2, 2400, Note_on_c, 0, 73, 127
2, 2832, Note_on_c, 0, 73, 0
2, 2832, Note_on_c, 0, 65, 0
2, 2832, Note_on_c, 0, 68, 0
2, 2832, Note_on_c, 0, 70, 0
2, 2928, Note_on_c, 0, 63, 127
2, 2976, Note_on_c, 0, 67, 127
2, 3024, Note_on_c, 0, 70, 127
2, 3072, Note_on_c, 0, 73, 127
2, 3504, Note_on_c, 0, 73, 0
2, 3504, Note_on_c, 0, 63, 0
2, 3504, Note_on_c, 0, 67, 0
2, 3504, Note_on_c, 0, 70, 0
2, 3648, Note_on_c, 0, 63, 127
2, 3696, Note_on_c, 0, 67, 127
2, 3744, Note_on_c, 0, 68, 127
2, 3792, Note_on_c, 0, 72, 127
2, 4224, Note_on_c, 0, 72, 0
2, 4224, Note_on_c, 0, 63, 0
2, 4224, Note_on_c, 0, 67, 0
2, 4224, Note_on_c, 0, 68, 0
2, 4416, Note_on_c, 0, 60, 127
2, 4464, Note_on_c, 0, 65, 127
2, 4512, Note_on_c, 0, 68, 127
2, 4560, Note_on_c, 0, 72, 127
2, 4992, Note_on_c, 0, 72, 0
2, 4992, Note_on_c, 0, 60, 0
2, 4992, Note_on_c, 0, 65, 0
2, 4992, Note_on_c, 0, 68, 0
2, 5136, Note_on_c, 0, 58, 127
2, 5184, Note_on_c, 0, 62, 127
2, 5232, Note_on_c, 0, 65, 127
2, 5280, Note_on_c, 0, 70, 127
2, 5712, Note_on_c, 0, 70, 0
2, 5712, Note_on_c, 0, 58, 0
2, 5712, Note_on_c, 0, 62, 0
2, 5712, Note_on_c, 0, 65, 0
2, 5856, Note_on_c, 0, 58, 127
2, 5904, Note_on_c, 0, 63, 127
2, 5952, Note_on_c, 0, 67, 127
2, 6000, Note_on_c, 0, 70, 127
2, 6432, Note_on_c, 0, 70, 0
2, 6432, Note_on_c, 0, 58, 0
2, 6432, Note_on_c, 0, 63, 0
2, 6432, Note_on_c, 0, 67, 0
2, 6576, Note_on_c, 0, 60, 127
2, 6624, Note_on_c, 0, 63, 127
2, 6672, Note_on_c, 0, 67, 127
2, 6720, Note_on_c, 0, 70, 127
2, 7152, Note_on_c, 0, 70, 0
2, 7152, Note_on_c, 0, 60, 0
2, 7152, Note_on_c, 0, 63, 0
2, 7152, Note_on_c, 0, 67, 0
2, 7296, Note_on_c, 0, 60, 127
2, 7344, Note_on_c, 0, 63, 127
2, 7392, Note_on_c, 0, 65, 127
2, 7440, Note_on_c, 0, 68, 127
2, 7872, Note_on_c, 0, 68, 0
2, 7872, Note_on_c, 0, 60, 0
2, 7872, Note_on_c, 0, 63, 0
2, 7872, Note_on_c, 0, 65, 0
2, 8016, Note_on_c, 0, 58, 127
2, 8064, Note_on_c, 0, 62, 127
2, 8112, Note_on_c, 0, 65, 127
2, 8160, Note_on_c, 0, 68, 127
2, 8592, Note_on_c, 0, 68, 0
2, 8592, Note_on_c, 0, 58, 0
2, 8592, Note_on_c, 0, 62, 0
2, 8592, Note_on_c, 0, 65, 0
2, 8736, Note_on_c, 0, 58, 127
2, 8784, Note_on_c, 0, 63, 127
2, 8832, Note_on_c, 0, 67, 127
2, 9264, Note_on_c, 0, 67, 0
2, 9264, Note_on_c, 0, 63, 0
2, 9264, Note_on_c, 0, 58, 0
2, 9456, Note_on_c, 0, 60, 127
2, 9504, Note_on_c, 0, 63, 127
2, 9552, Note_on_c, 0, 66, 127
2, 9600, Note_on_c, 0, 72, 127
2, 10032, Note_on_c, 0, 72, 0
2, 10032, Note_on_c, 0, 60, 0
2, 10032, Note_on_c, 0, 63, 0
2, 10032, Note_on_c, 0, 66, 0
2, 10224, Note_on_c, 0, 62, 127
2, 10272, Note_on_c, 0, 65, 127
2, 10320, Note_on_c, 0, 70, 127
2, 10368, Note_on_c, 0, 74, 127
2, 10800, Note_on_c, 0, 74, 0
2, 10800, Note_on_c, 0, 62, 0
2, 10800, Note_on_c, 0, 65, 0
2, 10800, Note_on_c, 0, 70, 0
2, 10992, Note_on_c, 0, 63, 127
2, 11040, Note_on_c, 0, 67, 127
2, 11088, Note_on_c, 0, 70, 127
2, 11136, Note_on_c, 0, 75, 127
2, 11568, Note_on_c, 0, 75, 0
2, 11568, Note_on_c, 0, 63, 0
2, 11568, Note_on_c, 0, 67, 0
2, 11568, Note_on_c, 0, 70, 0
2, 11760, Note_on_c, 0, 63, 127
2, 11808, Note_on_c, 0, 66, 127
2, 11856, Note_on_c, 0, 72, 127
2, 11904, Note_on_c, 0, 75, 127
2, 12336, Note_on_c, 0, 75, 0
2, 12336, Note_on_c, 0, 63, 0
2, 12336, Note_on_c, 0, 66, 0
2, 12336, Note_on_c, 0, 72, 0
2, 12480, Note_on_c, 0, 65, 127
2, 12528, Note_on_c, 0, 68, 127
2, 12576, Note_on_c, 0, 70, 127
2, 12624, Note_on_c, 0, 74, 127
2, 13440, Note_on_c, 0, 74, 0
2, 13440, Note_on_c, 0, 65, 0
2, 13440, Note_on_c, 0, 68, 0
2, 13440, Note_on_c, 0, 70, 0
2, 13440, Note_on_c, 0, 75, 127
2, 13488, Note_on_c, 0, 75, 0
2, 13488, Note_on_c, 0, 70, 127
2, 13536, Note_on_c, 0, 70, 0
2, 13536, Note_on_c, 0, 68, 127
2, 13584, Note_on_c, 0, 68, 0
2, 13584, Note_on_c, 0, 70, 127
2, 13632, Note_on_c, 0, 70, 0
2, 13632, Note_on_c, 0, 72, 127
2, 13680, Note_on_c, 0, 72, 0
2, 13680, Note_on_c, 0, 67, 127
2, 13728, Note_on_c, 0, 67, 0
2, 13728, Note_on_c, 0, 65, 127
2, 13776, Note_on_c, 0, 65, 0
2, 13776, Note_on_c, 0, 67, 127
2, 13824, Note_on_c, 0, 67, 0
2, 13824, Note_on_c, 0, 68, 127
2, 13872, Note_on_c, 0, 68, 0
2, 13872, Note_on_c, 0, 65, 127
2, 13920, Note_on_c, 0, 65, 0
2, 13920, Note_on_c, 0, 63, 127
2, 13968, Note_on_c, 0, 63, 0
2, 13968, Note_on_c, 0, 65, 127
2, 14016, Note_on_c, 0, 65, 0
2, 14016, Note_on_c, 0, 70, 127
2, 14064, Note_on_c, 0, 70, 0
2, 14064, Note_on_c, 0, 65, 127
2, 14112, Note_on_c, 0, 65, 0
2, 14112, Note_on_c, 0, 63, 127
2, 14160, Note_on_c, 0, 63, 0
2, 14160, Note_on_c, 0, 65, 127
2, 14208, Note_on_c, 0, 65, 0
2, 14208, Note_on_c, 0, 67, 127
2, 14304, Note_on_c, 0, 67, 0
2, 14400, Note_on_c, 0, 70, 127
2, 14496, Note_on_c, 0, 70, 0
2, 14592, Note_on_c, 0, 70, 127
2, 14688, Note_on_c, 0, 70, 0
2, 14784, Note_on_c, 0, 69, 127
2, 14880, Note_on_c, 0, 69, 0
2, 15024, Note_on_c, 0, 77, 127
2, 15072, Note_on_c, 0, 77, 0
2, 15072, Note_on_c, 0, 75, 127
2, 15120, Note_on_c, 0, 75, 0
2, 15120, Note_on_c, 0, 77, 127
2, 15168, Note_on_c, 0, 77, 0
2, 15168, Note_on_c, 0, 79, 127
2, 15216, Note_on_c, 0, 79, 0
2, 15216, Note_on_c, 0, 74, 127
2, 15264, Note_on_c, 0, 74, 0
2, 15264, Note_on_c, 0, 72, 127
2, 15312, Note_on_c, 0, 72, 0
2, 15312, Note_on_c, 0, 74, 127
2, 15360, Note_on_c, 0, 74, 0
2, 15360, Note_on_c, 0, 75, 127
2, 15408, Note_on_c, 0, 75, 0
2, 15408, Note_on_c, 0, 72, 127
2, 15456, Note_on_c, 0, 72, 0
2, 15456, Note_on_c, 0, 70, 127
2, 15504, Note_on_c, 0, 70, 0
2, 15504, Note_on_c, 0, 72, 127
2, 15552, Note_on_c, 0, 72, 0
2, 15552, Note_on_c, 0, 77, 127
2, 15600, Note_on_c, 0, 77, 0
2, 15600, Note_on_c, 0, 72, 127
2, 15648, Note_on_c, 0, 72, 0
2, 15648, Note_on_c, 0, 70, 127
2, 15696, Note_on_c, 0, 70, 0
2, 15696, Note_on_c, 0, 72, 127
2, 15744, Note_on_c, 0, 72, 0
2, 16224, Note_on_c, 0, 70, 127
2, 16224, Note_on_c, 0, 75, 127
2, 16224, Note_on_c, 0, 79, 127
2, 16256, Note_on_c, 0, 79, 0
2, 16256, Note_on_c, 0, 75, 0
2, 16256, Note_on_c, 0, 70, 0
2, 16320, Note_on_c, 0, 72, 127
2, 16320, Note_on_c, 0, 77, 127
2, 16320, Note_on_c, 0, 80, 127
2, 16352, Note_on_c, 0, 80, 0
2, 16352, Note_on_c, 0, 77, 0
2, 16352, Note_on_c, 0, 72, 0
2, 16416, Note_on_c, 0, 73, 127
2, 16416, Note_on_c, 0, 79, 127
2, 16416, Note_on_c, 0, 82, 127
2, 16448, Note_on_c, 0, 82, 0
2, 16448, Note_on_c, 0, 79, 0
2, 16448, Note_on_c, 0, 73, 0
2, 16512, Note_on_c, 0, 70, 127
2, 16512, Note_on_c, 0, 79, 127
2, 16608, Note_on_c, 0, 79, 0
2, 16608, Note_on_c, 0, 70, 0
2, 16992, Note_on_c, 0, 70, 127
2, 16992, Note_on_c, 0, 75, 127
2, 16992, Note_on_c, 0, 79, 127
2, 17024, Note_on_c, 0, 79, 0
2, 17024, Note_on_c, 0, 75, 0
2, 17024, Note_on_c, 0, 70, 0
2, 17088, Note_on_c, 0, 72, 127
2, 17088, Note_on_c, 0, 77, 127
2, 17088, Note_on_c, 0, 80, 127
2, 17120, Note_on_c, 0, 80, 0
2, 17120, Note_on_c, 0, 77, 0
2, 17120, Note_on_c, 0, 72, 0
2, 17184, Note_on_c, 0, 73, 127
2, 17184, Note_on_c, 0, 79, 127
2, 17184, Note_on_c, 0, 82, 127
2, 17216, Note_on_c, 0, 82, 0
2, 17216, Note_on_c, 0, 79, 0
2, 17216, Note_on_c, 0, 73, 0
2, 17280, Note_on_c, 0, 75, 127
2, 17280, Note_on_c, 0, 80, 127
2, 17280, Note_on_c, 0, 84, 127
2, 17328, Note_on_c, 0, 84, 0
2, 17328, Note_on_c, 0, 80, 0
2, 17328, Note_on_c, 0, 75, 0
2, 17328, Note_on_c, 0, 75, 127
2, 17376, Note_on_c, 0, 75, 0
2, 17376, Note_on_c, 0, 73, 127
2, 17424, Note_on_c, 0, 73, 0
2, 17424, Note_on_c, 0, 75, 127
2, 17472, Note_on_c, 0, 75, 0
2, 17472, Note_on_c, 0, 77, 127
2, 17520, Note_on_c, 0, 77, 0
2, 17520, Note_on_c, 0, 72, 127
2, 17568, Note_on_c, 0, 72, 0
2, 17568, Note_on_c, 0, 70, 127
2, 17616, Note_on_c, 0, 70, 0
2, 17616, Note_on_c, 0, 72, 127
2, 17664, Note_on_c, 0, 72, 0
2, 17664, Note_on_c, 0, 73, 127
2, 17712, Note_on_c, 0, 73, 0
2, 17712, Note_on_c, 0, 70, 127
2, 17760, Note_on_c, 0, 70, 0
2, 17760, Note_on_c, 0, 68, 127
2, 17808, Note_on_c, 0, 68, 0
2, 17808, Note_on_c, 0, 70, 127
2, 17856, Note_on_c, 0, 70, 0
2, 17856, Note_on_c, 0, 75, 127
2, 17904, Note_on_c, 0, 75, 0
2, 17904, Note_on_c, 0, 70, 127
2, 17952, Note_on_c, 0, 70, 0
2, 17952, Note_on_c, 0, 68, 127
2, 18000, Note_on_c, 0, 68, 0
2, 18000, Note_on_c, 0, 70, 127
2, 18048, Note_on_c, 0, 70, 0
2, 18048, Note_on_c, 0, 72, 127
2, 18144, Note_on_c, 0, 72, 0
2, 18240, Note_on_c, 0, 75, 127
2, 18336, Note_on_c, 0, 75, 0
2, 18432, Note_on_c, 0, 75, 127
2, 18528, Note_on_c, 0, 75, 0
2, 18624, Note_on_c, 0, 73, 127
2, 18720, Note_on_c, 0, 73, 0
2, 18816, Note_on_c, 0, 73, 127
2, 18912, Note_on_c, 0, 73, 0
2, 19008, Note_on_c, 0, 68, 127
2, 19008, Note_on_c, 0, 72, 127
2, 19104, Note_on_c, 0, 72, 0
2, 19104, Note_on_c, 0, 68, 0
2, 19200, Note_on_c, 0, 65, 127
2, 19200, Note_on_c, 0, 68, 127
2, 19200, Note_on_c, 0, 70, 127
2, 19296, Note_on_c, 0, 70, 0
2, 19296, Note_on_c, 0, 68, 0
2, 19296, Note_on_c, 0, 65, 0
2, 19392, Note_on_c, 0, 63, 127
2, 19392, Note_on_c, 0, 67, 127
2, 19392, Note_on_c, 0, 70, 127
2, 19488, Note_on_c, 0, 70, 0
2, 19488, Note_on_c, 0, 67, 0
2, 19488, Note_on_c, 0, 63, 0
2, 19584, Note_on_c, 0, 63, 127
2, 19584, Note_on_c, 0, 67, 127
2, 19584, Note_on_c, 0, 68, 127
2, 19680, Note_on_c, 0, 68, 0
2, 19680, Note_on_c, 0, 67, 0
2, 19680, Note_on_c, 0, 63, 0
2, 19776, Note_on_c, 0, 61, 127
2, 19776, Note_on_c, 0, 65, 127
2, 19776, Note_on_c, 0, 68, 127
2, 19872, Note_on_c, 0, 68, 0
2, 19872, Note_on_c, 0, 65, 0
2, 19872, Note_on_c, 0, 61, 0
2, 19968, Note_on_c, 0, 61, 127
2, 19968, Note_on_c, 0, 65, 127
2, 19968, Note_on_c, 0, 67, 127
2, 20064, Note_on_c, 0, 67, 0
2, 20064, Note_on_c, 0, 65, 0
2, 20064, Note_on_c, 0, 61, 0
2, 20160, Note_on_c, 0, 60, 127
2, 20160, Note_on_c, 0, 64, 127
2, 20160, Note_on_c, 0, 67, 127
2, 20256, Note_on_c, 0, 67, 0
2, 20256, Note_on_c, 0, 64, 0
2, 20256, Note_on_c, 0, 60, 0
2, 20352, Note_on_c, 0, 60, 127
2, 20352, Note_on_c, 0, 65, 127
2, 20400, Note_on_c, 0, 65, 0
2, 20400, Note_on_c, 0, 60, 0
2, 20400, Note_on_c, 0, 60, 127
2, 20448, Note_on_c, 0, 60, 0
2, 20448, Note_on_c, 0, 62, 127
2, 20496, Note_on_c, 0, 62, 0
2, 20496, Note_on_c, 0, 64, 127
2, 20544, Note_on_c, 0, 64, 0
2, 20544, Note_on_c, 0, 65, 127
2, 20592, Note_on_c, 0, 65, 0
2, 20592, Note_on_c, 0, 67, 127
2, 20640, Note_on_c, 0, 67, 0
2, 20640, Note_on_c, 0, 68, 127
2, 20688, Note_on_c, 0, 68, 0
2, 20688, Note_on_c, 0, 70, 127
2, 20736, Note_on_c, 0, 70, 0
2, 20736, Note_on_c, 0, 72, 127
2, 21168, Note_on_c, 0, 72, 0
2, 21168, Note_on_c, 0, 65, 127
2, 21216, Note_on_c, 0, 65, 0
2, 21216, Note_on_c, 0, 67, 127
2, 21264, Note_on_c, 0, 67, 0
2, 21264, Note_on_c, 0, 68, 127
2, 21312, Note_on_c, 0, 68, 0
2, 21312, Note_on_c, 0, 70, 127
2, 21360, Note_on_c, 0, 70, 0
2, 21360, Note_on_c, 0, 72, 127
2, 21408, Note_on_c, 0, 72, 0
2, 21408, Note_on_c, 0, 74, 127
2, 21456, Note_on_c, 0, 74, 0
2, 21456, Note_on_c, 0, 76, 127
2, 21504, Note_on_c, 0, 76, 0
2, 21504, Note_on_c, 0, 77, 127
2, 21984, Note_on_c, 0, 77, 0
2, 21984, Note_on_c, 0, 77, 127
2, 22080, Note_on_c, 0, 77, 0
2, 22080, Note_on_c, 0, 82, 127
2, 22176, Note_on_c, 0, 82, 0
2, 22176, Note_on_c, 0, 73, 127
2, 22272, Note_on_c, 0, 73, 0
2, 22272, Note_on_c, 0, 72, 127
2, 22368, Note_on_c, 0, 72, 0
2, 22368, Note_on_c, 0, 75, 127
2, 22464, Note_on_c, 0, 75, 0
2, 22464, Note_on_c, 0, 80, 127
2, 22560, Note_on_c, 0, 80, 0
2, 22560, Note_on_c, 0, 72, 127
2, 22656, Note_on_c, 0, 72, 0
2, 22656, Note_on_c, 0, 70, 127
2, 22752, Note_on_c, 0, 70, 0
2, 22752, Note_on_c, 0, 74, 127
2, 22848, Note_on_c, 0, 74, 0
2, 22848, Note_on_c, 0, 79, 127
2, 22944, Note_on_c, 0, 79, 0
2, 22944, Note_on_c, 0, 70, 127
2, 23040, Note_on_c, 0, 70, 0
2, 23040, Note_on_c, 0, 68, 127
2, 23136, Note_on_c, 0, 68, 0
2, 23136, Note_on_c, 0, 72, 127
2, 23232, Note_on_c, 0, 72, 0
2, 23232, Note_on_c, 0, 77, 127
2, 23328, Note_on_c, 0, 77, 0
2, 23328, Note_on_c, 0, 68, 127
2, 23424, Note_on_c, 0, 68, 0
2, 23424, Note_on_c, 0, 67, 127
2, 23520, Note_on_c, 0, 67, 0
2, 23904, Note_on_c, 0, 58, 127
2, 23904, Note_on_c, 0, 63, 127
2, 23904, Note_on_c, 0, 67, 127
2, 23936, Note_on_c, 0, 67, 0
2, 23936, Note_on_c, 0, 63, 0
2, 23936, Note_on_c, 0, 58, 0
2, 24000, Note_on_c, 0, 60, 127
2, 24000, Note_on_c, 0, 65, 127
2, 24000, Note_on_c, 0, 68, 127
2, 24032, Note_on_c, 0, 68, 0
2, 24032, Note_on_c, 0, 65, 0
2, 24032, Note_on_c, 0, 60, 0
2, 24096, Note_on_c, 0, 61, 127
2, 24096, Note_on_c, 0, 67, 127
2, 24096, Note_on_c, 0, 70, 127
2, 24128, Note_on_c, 0, 70, 0
2, 24128, Note_on_c, 0, 67, 0
2, 24128, Note_on_c, 0, 61, 0
2, 24192, Note_on_c, 0, 63, 127
2, 24192, Note_on_c, 0, 72, 127
2, 24288, Note_on_c, 0, 72, 0
2, 24288, Note_on_c, 0, 63, 0
2, 24672, Note_on_c, 0, 63, 127
2, 24672, Note_on_c, 0, 68, 127
2, 24672, Note_on_c, 0, 72, 127
2, 24704, Note_on_c, 0, 72, 0
2, 24704, Note_on_c, 0, 63, 0
2, 24768, Note_on_c, 0, 65, 127
2, 24768, Note_on_c, 0, 74, 127
2, 24800, Note_on_c, 0, 74, 0
2, 24800, Note_on_c, 0, 65, 0
2, 24800, Note_on_c, 0, 68, 0
2, 24864, Note_on_c, 0, 67, 127
2, 24864, Note_on_c, 0, 70, 127
2, 24864, Note_on_c, 0, 75, 127
2, 24896, Note_on_c, 0, 75, 0
2, 24896, Note_on_c, 0, 70, 0
2, 24896, Note_on_c, 0, 67, 0
2, 25104, Note_on_c, 0, 65, 127
2, 25152, Note_on_c, 0, 68, 127
2, 25200, Note_on_c, 0, 70, 127
2, 25248, Note_on_c, 0, 77, 127
2, 25680, Note_on_c, 0, 77, 0
2, 25680, Note_on_c, 0, 65, 0
2, 25680, Note_on_c, 0, 68, 0
2, 25680, Note_on_c, 0, 70, 0
2, 25824, Note_on_c, 0, 67, 127
2, 25872, Note_on_c, 0, 70, 127
2, 25920, Note_on_c, 0, 77, 127
2, 26016, Note_on_c, 0, 77, 0
2, 26016, Note_on_c, 0, 70, 0
2, 26016, Note_on_c, 0, 67, 0
2, 26160, Note_on_c, 0, 66, 127
2, 26208, Note_on_c, 0, 69, 127
2, 26256, Note_on_c, 0, 72, 127
2, 26304, Note_on_c, 0, 75, 127
2, 26352, Note_on_c, 0, 75, 0
2, 26352, Note_on_c, 0, 66, 0
2, 26352, Note_on_c, 0, 69, 0
2, 26352, Note_on_c, 0, 72, 0
2, 26496, Note_on_c, 0, 65, 127
2, 26544, Note_on_c, 0, 68, 127
2, 26592, Note_on_c, 0, 70, 127
2, 26640, Note_on_c, 0, 75, 127
2, 26688, Note_on_c, 0, 75, 0
2, 26688, Note_on_c, 0, 65, 0
2, 26688, Note_on_c, 0, 68, 0
2, 26688, Note_on_c, 0, 70, 0
2, 26832, Note_on_c, 0, 65, 127
2, 26880, Note_on_c, 0, 68, 127
2, 26928, Note_on_c, 0, 70, 127
2, 26976, Note_on_c, 0, 74, 127
2, 27024, Note_on_c, 0, 74, 0
2, 27024, Note_on_c, 0, 65, 0
2, 27024, Note_on_c, 0, 68, 0
2, 27024, Note_on_c, 0, 70, 0
2, 27168, Note_on_c, 0, 63, 127
2, 27216, Note_on_c, 0, 67, 127
2, 27264, Note_on_c, 0, 70, 127
2, 27312, Note_on_c, 0, 75, 127
2, 28128, Note_on_c, 0, 75, 0
2, 28128, Note_on_c, 0, 63, 0
2, 28128, Note_on_c, 0, 67, 0
2, 28128, Note_on_c, 0, 70, 0
2, 28512, Note_on_c, 0, 58, 127
2, 28560, Note_on_c, 0, 58, 0
2, 28560, Note_on_c, 0, 58, 127
2, 28608, Note_on_c, 0, 58, 0
2, 28608, Note_on_c, 0, 53, 127
2, 28656, Note_on_c, 0, 53, 0
2, 28656, Note_on_c, 0, 55, 127
2, 28704, Note_on_c, 0, 55, 0
2, 28704, Note_on_c, 0, 58, 127
2, 28752, Note_on_c, 0, 58, 0
2, 28800, Note_on_c, 0, 55, 127
2, 28848, Note_on_c, 0, 55, 0
2, 28848, Note_on_c, 0, 58, 127
2, 28896, Note_on_c, 0, 58, 0
2, 28896, Note_on_c, 0, 61, 127
2, 28944, Note_on_c, 0, 61, 0
2, 28944, Note_on_c, 0, 60, 127
2, 28992, Note_on_c, 0, 60, 0
2, 28992, Note_on_c, 0, 55, 127
2, 29040, Note_on_c, 0, 55, 0
2, 29040, Note_on_c, 0, 56, 127
2, 29088, Note_on_c, 0, 56, 0
2, 29088, Note_on_c, 0, 60, 127
2, 29136, Note_on_c, 0, 60, 0
2, 29184, Note_on_c, 0, 56, 127
2, 29232, Note_on_c, 0, 56, 0
2, 29232, Note_on_c, 0, 60, 127
2, 29280, Note_on_c, 0, 60, 0
2, 29280, Note_on_c, 0, 63, 127
2, 29328, Note_on_c, 0, 63, 0
2, 29328, Note_on_c, 0, 62, 127
2, 29376, Note_on_c, 0, 62, 0
2, 29376, Note_on_c, 0, 55, 127
2, 29424, Note_on_c, 0, 55, 0
2, 29424, Note_on_c, 0, 56, 127
2, 29472, Note_on_c, 0, 56, 0
2, 29472, Note_on_c, 0, 62, 127
2, 29520, Note_on_c, 0, 62, 0
2, 29568, Note_on_c, 0, 56, 127
2, 29616, Note_on_c, 0, 56, 0
2, 29616, Note_on_c, 0, 62, 127
2, 29664, Note_on_c, 0, 62, 0
2, 29664, Note_on_c, 0, 65, 127
2, 29712, Note_on_c, 0, 65, 0
2, 29712, Note_on_c, 0, 65, 127
2, 29760, Note_on_c, 0, 65, 0
2, 29760, Note_on_c, 0, 62, 127
2, 29808, Note_on_c, 0, 62, 0
2, 29808, Note_on_c, 0, 63, 127
2, 29856, Note_on_c, 0, 63, 0
2, 29856, Note_on_c, 0, 67, 127
2, 29904, Note_on_c, 0, 67, 0
2, 29904, Note_on_c, 0, 58, 127
2, 29952, Note_on_c, 0, 58, 0
2, 29952, Note_on_c, 0, 62, 127
2, 30000, Note_on_c, 0, 62, 0
2, 30000, Note_on_c, 0, 63, 127
2, 30048, Note_on_c, 0, 63, 0
2, 30048, Note_on_c, 0, 67, 127
2, 30096, Note_on_c, 0, 67, 0
2, 30096, Note_on_c, 0, 67, 127
2, 30144, Note_on_c, 0, 67, 0
2, 30144, Note_on_c, 0, 63, 127
2, 30192, Note_on_c, 0, 63, 0
2, 30192, Note_on_c, 0, 65, 127
2, 30240, Note_on_c, 0, 65, 0
2, 30240, Note_on_c, 0, 68, 127
2, 30288, Note_on_c, 0, 68, 0
2, 30288, Note_on_c, 0, 60, 127
2, 30336, Note_on_c, 0, 60, 0
2, 30336, Note_on_c, 0, 63, 127
2, 30384, Note_on_c, 0, 63, 0
2, 30384, Note_on_c, 0, 65, 127
2, 30432, Note_on_c, 0, 65, 0
2, 30432, Note_on_c, 0, 68, 127
2, 30480, Note_on_c, 0, 68, 0
2, 30480, Note_on_c, 0, 62, 127
2, 30528, Note_on_c, 0, 62, 0
2, 30528, Note_on_c, 0, 72, 127
2, 30576, Note_on_c, 0, 72, 0
2, 30576, Note_on_c, 0, 70, 127
2, 30624, Note_on_c, 0, 70, 0
2, 30624, Note_on_c, 0, 62, 127
2, 30672, Note_on_c, 0, 62, 0
2, 30672, Note_on_c, 0, 63, 127
2, 30720, Note_on_c, 0, 63, 0
2, 30720, Note_on_c, 0, 70, 127
2, 30768, Note_on_c, 0, 70, 0
2, 30768, Note_on_c, 0, 67, 127
2, 30816, Note_on_c, 0, 67, 0
2, 30816, Note_on_c, 0, 63, 127
2, 30864, Note_on_c, 0, 63, 0
2, 30864, Note_on_c, 0, 60, 127
2, 30912, Note_on_c, 0, 60, 0
2, 30912, Note_on_c, 0, 70, 127
2, 30960, Note_on_c, 0, 70, 0
2, 30960, Note_on_c, 0, 68, 127
2, 31008, Note_on_c, 0, 68, 0
2, 31008, Note_on_c, 0, 60, 127
2, 31056, Note_on_c, 0, 60, 0
2, 31056, Note_on_c, 0, 62, 127
2, 31104, Note_on_c, 0, 62, 0
2, 31104, Note_on_c, 0, 68, 127
2, 31152, Note_on_c, 0, 68, 0
2, 31152, Note_on_c, 0, 65, 127
2, 31200, Note_on_c, 0, 65, 0
2, 31200, Note_on_c, 0, 62, 127
2, 31248, Note_on_c, 0, 62, 0
2, 31248, Note_on_c, 0, 58, 127
2, 31296, Note_on_c, 0, 58, 0
2, 31296, Note_on_c, 0, 68, 127
2, 31344, Note_on_c, 0, 68, 0
2, 31344, Note_on_c, 0, 67, 127
2, 31392, Note_on_c, 0, 67, 0
2, 31392, Note_on_c, 0, 58, 127
2, 31440, Note_on_c, 0, 58, 0
2, 31440, Note_on_c, 0, 60, 127
2, 31488, Note_on_c, 0, 60, 0
2, 31488, Note_on_c, 0, 67, 127
2, 31536, Note_on_c, 0, 67, 0
2, 31536, Note_on_c, 0, 63, 127
2, 31584, Note_on_c, 0, 63, 0
2, 31584, Note_on_c, 0, 60, 127
2, 31632, Note_on_c, 0, 60, 0
2, 31632, Note_on_c, 0, 56, 127
2, 31680, Note_on_c, 0, 56, 0
2, 31680, Note_on_c, 0, 67, 127
2, 31728, Note_on_c, 0, 67, 0
2, 31728, Note_on_c, 0, 65, 127
2, 31776, Note_on_c, 0, 65, 0
2, 31776, Note_on_c, 0, 56, 127
2, 31824, Note_on_c, 0, 56, 0
2, 31824, Note_on_c, 0, 58, 127
2, 31872, Note_on_c, 0, 58, 0
2, 31872, Note_on_c, 0, 65, 127
2, 31920, Note_on_c, 0, 65, 0
2, 31920, Note_on_c, 0, 62, 127
2, 31968, Note_on_c, 0, 62, 0
2, 31968, Note_on_c, 0, 58, 127
2, 32016, Note_on_c, 0, 58, 0
2, 32016, Note_on_c, 0, 55, 127
2, 32064, Note_on_c, 0, 55, 0
2, 32064, Note_on_c, 0, 58, 127
2, 32112, Note_on_c, 0, 58, 0
2, 32112, Note_on_c, 0, 62, 127
2, 32160, Note_on_c, 0, 62, 0
2, 32160, Note_on_c, 0, 65, 127
2, 32208, Note_on_c, 0, 65, 0
2, 32208, Note_on_c, 0, 63, 127
2, 32256, Note_on_c, 0, 63, 0
2, 32256, Note_on_c, 0, 67, 127
2, 32304, Note_on_c, 0, 67, 0
2, 32304, Note_on_c, 0, 70, 127
2, 32352, Note_on_c, 0, 70, 0
2, 32352, Note_on_c, 0, 73, 127
2, 32400, Note_on_c, 0, 73, 0
2, 32400, Note_on_c, 0, 72, 127
2, 32640, Note_on_c, 0, 72, 0
2, 32640, Note_on_c, 0, 72, 127
2, 32688, Note_on_c, 0, 72, 0
2, 32688, Note_on_c, 0, 70, 127
2, 32736, Note_on_c, 0, 70, 0
2, 32736, Note_on_c, 0, 68, 127
2, 32784, Note_on_c, 0, 68, 0
2, 32784, Note_on_c, 0, 67, 127
2, 32832, Note_on_c, 0, 67, 0
2, 32832, Note_on_c, 0, 65, 127
2, 32880, Note_on_c, 0, 65, 0
2, 32880, Note_on_c, 0, 67, 127
2, 32928, Note_on_c, 0, 67, 0
2, 32928, Note_on_c, 0, 70, 127
2, 32976, Note_on_c, 0, 70, 0
2, 32976, Note_on_c, 0, 75, 127
2, 33216, Note_on_c, 0, 75, 0
2, 33216, Note_on_c, 0, 75, 127
2, 33264, Note_on_c, 0, 75, 0
2, 33264, Note_on_c, 0, 74, 127
2, 33312, Note_on_c, 0, 74, 0
2, 33312, Note_on_c, 0, 72, 127
2, 33360, Note_on_c, 0, 72, 0
2, 33360, Note_on_c, 0, 74, 127
2, 33552, Note_on_c, 0, 74, 0
2, 33744, Note_on_c, 0, 72, 127
2, 33984, Note_on_c, 0, 72, 0
2, 33984, Note_on_c, 0, 72, 127
2, 34032, Note_on_c, 0, 72, 0
2, 34032, Note_on_c, 0, 70, 127
2, 34080, Note_on_c, 0, 70, 0
2, 34080, Note_on_c, 0, 68, 127
2, 34128, Note_on_c, 0, 68, 0
2, 34128, Note_on_c, 0, 70, 127
2, 34368, Note_on_c, 0, 70, 0
2, 34368, Note_on_c, 0, 63, 127
2, 34416, Note_on_c, 0, 63, 0
2, 34416, Note_on_c, 0, 67, 127
2, 34464, Note_on_c, 0, 67, 0
2, 34464, Note_on_c, 0, 70, 127
2, 34512, Note_on_c, 0, 70, 0
2, 34512, Note_on_c, 0, 68, 127
2, 34560, Note_on_c, 0, 68, 0
2, 34560, Note_on_c, 0, 72, 127
2, 34608, Note_on_c, 0, 72, 0
2, 34608, Note_on_c, 0, 75, 127
2, 34656, Note_on_c, 0, 75, 0
2, 34656, Note_on_c, 0, 79, 127
2, 34704, Note_on_c, 0, 79, 0
2, 34704, Note_on_c, 0, 77, 127
2, 35136, Note_on_c, 0, 77, 0
2, 35136, Note_on_c, 0, 70, 127
2, 35184, Note_on_c, 0, 70, 0
2, 35184, Note_on_c, 0, 74, 127
2, 35232, Note_on_c, 0, 74, 0
2, 35232, Note_on_c, 0, 77, 127
2, 35280, Note_on_c, 0, 77, 0
2, 35280, Note_on_c, 0, 75, 127
2, 35520, Note_on_c, 0, 75, 0
2, 35520, Note_on_c, 0, 75, 127
2, 35568, Note_on_c, 0, 75, 0
2, 35568, Note_on_c, 0, 74, 127
2, 35616, Note_on_c, 0, 74, 0
2, 35616, Note_on_c, 0, 70, 127
2, 35664, Note_on_c, 0, 70, 0
2, 35664, Note_on_c, 0, 67, 127
2, 35712, Note_on_c, 0, 67, 0
2, 35712, Note_on_c, 0, 72, 127
2, 35808, Note_on_c, 0, 72, 0
2, 35808, Note_on_c, 0, 69, 127
2, 35856, Note_on_c, 0, 69, 0
2, 35856, Note_on_c, 0, 70, 127
2, 36192, Note_on_c, 0, 70, 0
2, 36192, Note_on_c, 0, 58, 127
2, 36240, Note_on_c, 0, 58, 0
2, 36240, Note_on_c, 0, 58, 127
2, 36288, Note_on_c, 0, 58, 0
2, 36288, Note_on_c, 0, 53, 127
2, 36336, Note_on_c, 0, 53, 0
2, 36336, Note_on_c, 0, 55, 127
2, 36384, Note_on_c, 0, 55, 0
2, 36384, Note_on_c, 0, 58, 127
2, 36432, Note_on_c, 0, 58, 0
2, 36480, Note_on_c, 0, 55, 127
2, 36528, Note_on_c, 0, 55, 0
2, 36528, Note_on_c, 0, 58, 127
2, 36576, Note_on_c, 0, 58, 0
2, 36576, Note_on_c, 0, 61, 127
2, 36624, Note_on_c, 0, 61, 0
2, 36624, Note_on_c, 0, 60, 127
2, 36672, Note_on_c, 0, 60, 0
2, 36672, Note_on_c, 0, 55, 127
2, 36720, Note_on_c, 0, 55, 0
2, 36720, Note_on_c, 0, 56, 127
2, 36768, Note_on_c, 0, 56, 0
2, 36768, Note_on_c, 0, 60, 127
2, 36816, Note_on_c, 0, 60, 0
2, 36864, Note_on_c, 0, 56, 127
2, 36912, Note_on_c, 0, 56, 0
2, 36912, Note_on_c, 0, 60, 127
2, 36960, Note_on_c, 0, 60, 0
2, 36960, Note_on_c, 0, 63, 127
2, 37008, Note_on_c, 0, 63, 0
2, 37008, Note_on_c, 0, 62, 127
2, 37056, Note_on_c, 0, 62, 0
2, 37056, Note_on_c, 0, 55, 127
2, 37104, Note_on_c, 0, 55, 0
2, 37104, Note_on_c, 0, 56, 127
2, 37152, Note_on_c, 0, 56, 0
2, 37152, Note_on_c, 0, 62, 127
2, 37200, Note_on_c, 0, 62, 0
2, 37248, Note_on_c, 0, 56, 127
2, 37296, Note_on_c, 0, 56, 0
2, 37296, Note_on_c, 0, 62, 127
2, 37344, Note_on_c, 0, 62, 0
2, 37344, Note_on_c, 0, 65, 127
2, 37392, Note_on_c, 0, 65, 0
2, 37392, Note_on_c, 0, 65, 127
2, 37440, Note_on_c, 0, 65, 0
2, 37440, Note_on_c, 0, 62, 127
2, 37488, Note_on_c, 0, 62, 0
2, 37488, Note_on_c, 0, 63, 127
2, 37536, Note_on_c, 0, 63, 0
2, 37536, Note_on_c, 0, 67, 127
2, 37584, Note_on_c, 0, 67, 0
2, 37584, Note_on_c, 0, 58, 127
2, 37632, Note_on_c, 0, 58, 0
2, 37632, Note_on_c, 0, 62, 127
2, 37680, Note_on_c, 0, 62, 0
2, 37680, Note_on_c, 0, 63, 127
2, 37728, Note_on_c, 0, 63, 0
2, 37728, Note_on_c, 0, 67, 127
2, 37776, Note_on_c, 0, 67, 0
2, 37776, Note_on_c, 0, 67, 127
2, 37824, Note_on_c, 0, 67, 0
2, 37824, Note_on_c, 0, 63, 127
2, 37872, Note_on_c, 0, 63, 0
2, 37872, Note_on_c, 0, 65, 127
2, 37920, Note_on_c, 0, 65, 0
2, 37920, Note_on_c, 0, 68, 127
2, 37968, Note_on_c, 0, 68, 0
2, 37968, Note_on_c, 0, 60, 127
2, 38016, Note_on_c, 0, 60, 0
2, 38016, Note_on_c, 0, 63, 127
2, 38064, Note_on_c, 0, 63, 0
2, 38064, Note_on_c, 0, 65, 127
2, 38112, Note_on_c, 0, 65, 0
2, 38112, Note_on_c, 0, 68, 127
2, 38160, Note_on_c, 0, 68, 0
2, 38160, Note_on_c, 0, 62, 127
2, 38208, Note_on_c, 0, 62, 0
2, 38208, Note_on_c, 0, 72, 127
2, 38256, Note_on_c, 0, 72, 0
2, 38256, Note_on_c, 0, 70, 127
2, 38304, Note_on_c, 0, 70, 0
2, 38304, Note_on_c, 0, 62, 127
2, 38352, Note_on_c, 0, 62, 0
2, 38352, Note_on_c, 0, 63, 127
2, 38400, Note_on_c, 0, 63, 0
2, 38400, Note_on_c, 0, 70, 127
2, 38448, Note_on_c, 0, 70, 0
2, 38448, Note_on_c, 0, 67, 127
2, 38496, Note_on_c, 0, 67, 0
2, 38496, Note_on_c, 0, 63, 127
2, 38544, Note_on_c, 0, 63, 0
2, 38544, Note_on_c, 0, 60, 127
2, 38592, Note_on_c, 0, 60, 0
2, 38592, Note_on_c, 0, 70, 127
2, 38640, Note_on_c, 0, 70, 0
2, 38640, Note_on_c, 0, 68, 127
2, 38688, Note_on_c, 0, 68, 0
2, 38688, Note_on_c, 0, 60, 127
2, 38736, Note_on_c, 0, 60, 0
2, 38736, Note_on_c, 0, 62, 127
2, 38784, Note_on_c, 0, 62, 0
2, 38784, Note_on_c, 0, 68, 127
2, 38832, Note_on_c, 0, 68, 0
2, 38832, Note_on_c, 0, 65, 127
2, 38880, Note_on_c, 0, 65, 0
2, 38880, Note_on_c, 0, 62, 127
2, 38928, Note_on_c, 0, 62, 0
2, 38928, Note_on_c, 0, 58, 127
2, 38976, Note_on_c, 0, 58, 0
2, 38976, Note_on_c, 0, 68, 127
2, 39024, Note_on_c, 0, 68, 0
2, 39024, Note_on_c, 0, 67, 127
2, 39072, Note_on_c, 0, 67, 0
2, 39072, Note_on_c, 0, 58, 127
2, 39120, Note_on_c, 0, 58, 0
2, 39120, Note_on_c, 0, 60, 127
2, 39168, Note_on_c, 0, 60, 0
2, 39168, Note_on_c, 0, 67, 127
2, 39216, Note_on_c, 0, 67, 0
2, 39216, Note_on_c, 0, 63, 127
2, 39264, Note_on_c, 0, 63, 0
2, 39264, Note_on_c, 0, 60, 127
2, 39312, Note_on_c, 0, 60, 0
2, 39312, Note_on_c, 0, 56, 127
2, 39360, Note_on_c, 0, 56, 0
2, 39360, Note_on_c, 0, 67, 127
2, 39408, Note_on_c, 0, 67, 0
2, 39408, Note_on_c, 0, 65, 127
2, 39456, Note_on_c, 0, 65, 0
2, 39456, Note_on_c, 0, 56, 127
2, 39504, Note_on_c, 0, 56, 0
2, 39504, Note_on_c, 0, 58, 127
2, 39552, Note_on_c, 0, 58, 0
2, 39552, Note_on_c, 0, 65, 127
2, 39600, Note_on_c, 0, 65, 0
2, 39600, Note_on_c, 0, 62, 127
2, 39648, Note_on_c, 0, 62, 0
2, 39648, Note_on_c, 0, 58, 127
2, 39696, Note_on_c, 0, 58, 0
2, 39696, Note_on_c, 0, 55, 127
2, 39744, Note_on_c, 0, 55, 0
2, 39744, Note_on_c, 0, 58, 127
2, 39792, Note_on_c, 0, 58, 0
2, 39792, Note_on_c, 0, 62, 127
2, 39840, Note_on_c, 0, 62, 0
2, 39840, Note_on_c, 0, 65, 127
2, 39888, Note_on_c, 0, 65, 0
2, 39888, Note_on_c, 0, 63, 127
2, 39936, Note_on_c, 0, 63, 0
2, 39936, Note_on_c, 0, 67, 127
2, 39984, Note_on_c, 0, 67, 0
2, 39984, Note_on_c, 0, 70, 127
2, 40032, Note_on_c, 0, 70, 0
2, 40032, Note_on_c, 0, 73, 127
2, 40080, Note_on_c, 0, 73, 0
2, 40080, Note_on_c, 0, 72, 127
2, 40320, Note_on_c, 0, 72, 0
2, 40320, Note_on_c, 0, 72, 127
2, 40368, Note_on_c, 0, 72, 0
2, 40368, Note_on_c, 0, 70, 127
2, 40416, Note_on_c, 0, 70, 0
2, 40416, Note_on_c, 0, 68, 127
2, 40464, Note_on_c, 0, 68, 0
2, 40464, Note_on_c, 0, 67, 127
2, 40512, Note_on_c, 0, 67, 0
2, 40512, Note_on_c, 0, 65, 127
2, 40560, Note_on_c, 0, 65, 0
2, 40560, Note_on_c, 0, 67, 127
2, 40608, Note_on_c, 0, 67, 0
2, 40608, Note_on_c, 0, 70, 127
2, 40656, Note_on_c, 0, 70, 0
2, 40656, Note_on_c, 0, 75, 127
2, 40896, Note_on_c, 0, 75, 0
2, 40896, Note_on_c, 0, 75, 127
2, 40944, Note_on_c, 0, 75, 0
2, 40944, Note_on_c, 0, 74, 127
2, 40992, Note_on_c, 0, 74, 0
2, 40992, Note_on_c, 0, 72, 127
2, 41040, Note_on_c, 0, 72, 0
2, 41040, Note_on_c, 0, 74, 127
2, 41232, Note_on_c, 0, 74, 0
2, 41424, Note_on_c, 0, 72, 127
2, 41664, Note_on_c, 0, 72, 0
2, 41664, Note_on_c, 0, 72, 127
2, 41712, Note_on_c, 0, 72, 0
2, 41712, Note_on_c, 0, 70, 127
2, 41760, Note_on_c, 0, 70, 0
2, 41760, Note_on_c, 0, 68, 127
2, 41808, Note_on_c, 0, 68, 0
2, 41808, Note_on_c, 0, 70, 127
2, 42048, Note_on_c, 0, 70, 0
2, 42048, Note_on_c, 0, 63, 127
2, 42096, Note_on_c, 0, 63, 0
2, 42096, Note_on_c, 0, 67, 127
2, 42144, Note_on_c, 0, 67, 0
2, 42144, Note_on_c, 0, 70, 127
2, 42192, Note_on_c, 0, 70, 0
2, 42192, Note_on_c, 0, 68, 127
2, 42240, Note_on_c, 0, 68, 0
2, 42240, Note_on_c, 0, 72, 127
2, 42288, Note_on_c, 0, 72, 0
2, 42288, Note_on_c, 0, 75, 127
2, 42336, Note_on_c, 0, 75, 0
2, 42336, Note_on_c, 0, 79, 127
2, 42384, Note_on_c, 0, 79, 0
2, 42384, Note_on_c, 0, 77, 127
2, 42816, Note_on_c, 0, 77, 0
2, 42816, Note_on_c, 0, 70, 127
2, 42864, Note_on_c, 0, 70, 0
2, 42864, Note_on_c, 0, 74, 127
2, 42912, Note_on_c, 0, 74, 0
2, 42912, Note_on_c, 0, 77, 127
2, 42960, Note_on_c, 0, 77, 0
2, 42960, Note_on_c, 0, 75, 127
2, 43200, Note_on_c, 0, 75, 0
2, 43200, Note_on_c, 0, 75, 127
2, 43248, Note_on_c, 0, 75, 0
2, 43248, Note_on_c, 0, 74, 127
2, 43296, Note_on_c, 0, 74, 0
2, 43296, Note_on_c, 0, 70, 127
2, 43344, Note_on_c, 0, 70, 0
2, 43344, Note_on_c, 0, 67, 127
2, 43392, Note_on_c, 0, 67, 0
2, 43392, Note_on_c, 0, 72, 127
2, 43488, Note_on_c, 0, 72, 0
2, 43488, Note_on_c, 0, 69, 127
2, 43536, Note_on_c, 0, 69, 0
2, 43536, Note_on_c, 0, 70, 127
2, 43872, Note_on_c, 0, 70, 0
2, 43872, Note_on_c, 0, 77, 127
2, 43920, Note_on_c, 0, 77, 0
2, 43920, Note_on_c, 0, 77, 127
2, 43968, Note_on_c, 0, 77, 0
2, 43968, Note_on_c, 0, 72, 127
2, 44016, Note_on_c, 0, 72, 0
2, 44016, Note_on_c, 0, 74, 127
2, 44064, Note_on_c, 0, 74, 0
2, 44064, Note_on_c, 0, 77, 127
2, 44112, Note_on_c, 0, 77, 0
2, 44160, Note_on_c, 0, 74, 127
2, 44208, Note_on_c, 0, 74, 0
2, 44208, Note_on_c, 0, 77, 127
2, 44256, Note_on_c, 0, 77, 0
2, 44256, Note_on_c, 0, 80, 127
2, 44304, Note_on_c, 0, 80, 0
2, 44304, Note_on_c, 0, 79, 127
2, 44352, Note_on_c, 0, 79, 0
2, 44352, Note_on_c, 0, 74, 127
2, 44400, Note_on_c, 0, 74, 0
2, 44400, Note_on_c, 0, 75, 127
2, 44448, Note_on_c, 0, 75, 0
2, 44448, Note_on_c, 0, 79, 127
2, 44496, Note_on_c, 0, 79, 0
2, 44544, Note_on_c, 0, 75, 127
2, 44592, Note_on_c, 0, 75, 0
2, 44592, Note_on_c, 0, 79, 127
2, 44640, Note_on_c, 0, 79, 0
2, 44640, Note_on_c, 0, 82, 127
2, 44688, Note_on_c, 0, 82, 0
2, 44688, Note_on_c, 0, 81, 127
2, 44736, Note_on_c, 0, 81, 0
2, 44736, Note_on_c, 0, 75, 127
2, 44784, Note_on_c, 0, 75, 0
2, 44784, Note_on_c, 0, 77, 127
2, 44832, Note_on_c, 0, 77, 0
2, 44832, Note_on_c, 0, 81, 127
2, 44880, Note_on_c, 0, 81, 0
2, 44928, Note_on_c, 0, 75, 127
2, 44976, Note_on_c, 0, 75, 0
2, 44976, Note_on_c, 0, 81, 127
2, 45024, Note_on_c, 0, 81, 0
2, 45024, Note_on_c, 0, 84, 127
2, 45072, Note_on_c, 0, 84, 0
2, 45072, Note_on_c, 0, 84, 127
2, 45120, Note_on_c, 0, 84, 0
2, 45120, Note_on_c, 0, 81, 127
2, 45168, Note_on_c, 0, 81, 0
2, 45168, Note_on_c, 0, 82, 127
2, 45216, Note_on_c, 0, 82, 0
2, 45216, Note_on_c, 0, 77, 127
2, 45264, Note_on_c, 0, 77, 0
2, 45264, Note_on_c, 0, 75, 127
2, 45312, Note_on_c, 0, 75, 0
2, 45312, Note_on_c, 0, 72, 127
2, 45360, Note_on_c, 0, 72, 0
2, 45360, Note_on_c, 0, 74, 127
2, 45408, Note_on_c, 0, 74, 0
2, 45408, Note_on_c, 0, 77, 127
2, 45600, Note_on_c, 0, 77, 0
2, 45600, Note_on_c, 0, 71, 127
2, 45648, Note_on_c, 0, 71, 0
2, 45648, Note_on_c, 0, 74, 127
2, 45696, Note_on_c, 0, 74, 0
2, 45696, Note_on_c, 0, 77, 127
2, 45744, Note_on_c, 0, 77, 0
2, 45744, Note_on_c, 0, 75, 127
2, 45792, Note_on_c, 0, 75, 0
2, 45792, Note_on_c, 0, 74, 127
2, 45840, Note_on_c, 0, 74, 0
2, 45840, Note_on_c, 0, 75, 127
2, 46464, Note_on_c, 0, 75, 0
2, 46464, Note_on_c, 0, 75, 127
2, 46512, Note_on_c, 0, 75, 0
2, 46512, Note_on_c, 0, 74, 127
2, 46560, Note_on_c, 0, 74, 0
2, 46560, Note_on_c, 0, 77, 127
2, 46608, Note_on_c, 0, 77, 0
2, 46608, Note_on_c, 0, 72, 127
2, 46656, Note_on_c, 0, 72, 0
2, 46656, Note_on_c, 0, 69, 127
2, 46704, Note_on_c, 0, 69, 0
2, 46704, Note_on_c, 0, 71, 127
2, 46752, Note_on_c, 0, 74, 127
2, 46800, Note_on_c, 0, 79, 127
2, 46992, Note_on_c, 0, 74, 0
2, 46992, Note_on_c, 0, 71, 0
2, 47040, Note_on_c, 0, 79, 0
2, 47040, Note_on_c, 0, 82, 127
2, 47088, Note_on_c, 0, 82, 0
2, 47088, Note_on_c, 0, 73, 127
2, 47136, Note_on_c, 0, 73, 0
2, 47136, Note_on_c, 0, 72, 127
2, 47184, Note_on_c, 0, 72, 0
2, 47184, Note_on_c, 0, 70, 127
2, 47232, Note_on_c, 0, 70, 0
2, 47232, Note_on_c, 0, 79, 127
2, 47280, Note_on_c, 0, 79, 0
2, 47280, Note_on_c, 0, 76, 127
2, 47328, Note_on_c, 0, 76, 0
2, 47328, Note_on_c, 0, 72, 127
2, 47376, Note_on_c, 0, 72, 0
2, 47376, Note_on_c, 0, 80, 127
2, 47424, Note_on_c, 0, 80, 0
2, 47424, Note_on_c, 0, 77, 127
2, 47472, Note_on_c, 0, 77, 0
2, 47472, Note_on_c, 0, 74, 127
2, 47520, Note_on_c, 0, 74, 0
2, 47520, Note_on_c, 0, 72, 127
2, 47568, Note_on_c, 0, 72, 0
2, 47568, Note_on_c, 0, 71, 127
2, 47616, Note_on_c, 0, 71, 0
2, 47616, Note_on_c, 0, 77, 127
2, 47664, Note_on_c, 0, 77, 0
2, 47664, Note_on_c, 0, 74, 127
2, 47712, Note_on_c, 0, 74, 0
2, 47712, Note_on_c, 0, 71, 127
2, 47760, Note_on_c, 0, 71, 0
2, 47760, Note_on_c, 0, 67, 127
2, 47808, Note_on_c, 0, 67, 0
2, 47808, Note_on_c, 0, 71, 127
2, 47856, Note_on_c, 0, 71, 0
2, 47856, Note_on_c, 0, 72, 127
2, 47904, Note_on_c, 0, 72, 0
2, 47904, Note_on_c, 0, 75, 127
2, 48000, Note_on_c, 0, 75, 0
2, 48000, Note_on_c, 0, 74, 127
2, 48048, Note_on_c, 0, 74, 0
2, 48048, Note_on_c, 0, 72, 127
2, 48096, Note_on_c, 0, 72, 0
2, 48096, Note_on_c, 0, 71, 127
2, 48144, Note_on_c, 0, 71, 0
2, 48144, Note_on_c, 0, 72, 127
2, 48528, Note_on_c, 0, 72, 0
2, 48576, Note_on_c, 0, 62, 127
2, 48624, Note_on_c, 0, 62, 0
2, 48624, Note_on_c, 0, 63, 127
2, 48672, Note_on_c, 0, 63, 0
2, 48672, Note_on_c, 0, 67, 127
2, 48720, Note_on_c, 0, 67, 0
2, 48720, Note_on_c, 0, 70, 127
2, 48768, Note_on_c, 0, 70, 0
2, 48768, Note_on_c, 0, 65, 127
2, 48816, Note_on_c, 0, 65, 0
2, 48816, Note_on_c, 0, 67, 127
2, 48864, Note_on_c, 0, 67, 0
2, 48864, Note_on_c, 0, 70, 127
2, 48912, Note_on_c, 0, 70, 0
2, 48912, Note_on_c, 0, 73, 127
2, 48960, Note_on_c, 0, 73, 0
2, 48960, Note_on_c, 0, 67, 127
2, 49008, Note_on_c, 0, 67, 0
2, 49008, Note_on_c, 0, 68, 127
2, 49056, Note_on_c, 0, 72, 127
2, 49104, Note_on_c, 0, 63, 127
2, 49296, Note_on_c, 0, 63, 0
2, 49296, Note_on_c, 0, 68, 0
2, 49344, Note_on_c, 0, 72, 0
2, 49344, Note_on_c, 0, 71, 127
2, 49392, Note_on_c, 0, 71, 0
2, 49392, Note_on_c, 0, 72, 127
2, 49440, Note_on_c, 0, 72, 0
2, 49440, Note_on_c, 0, 76, 127
2, 49488, Note_on_c, 0, 76, 0
2, 49488, Note_on_c, 0, 79, 127
2, 49536, Note_on_c, 0, 79, 0
2, 49536, Note_on_c, 0, 70, 127
2, 49584, Note_on_c, 0, 70, 0
2, 49584, Note_on_c, 0, 72, 127
2, 49632, Note_on_c, 0, 72, 0
2, 49632, Note_on_c, 0, 67, 127
2, 49680, Note_on_c, 0, 67, 0
2, 49680, Note_on_c, 0, 68, 127
2, 49728, Note_on_c, 0, 68, 0
2, 49728, Note_on_c, 0, 64, 127
2, 49776, Note_on_c, 0, 64, 0
2, 49776, Note_on_c, 0, 65, 127
2, 49824, Note_on_c, 0, 68, 127
2, 49872, Note_on_c, 0, 60, 127
2, 50064, Note_on_c, 0, 60, 0
2, 50064, Note_on_c, 0, 65, 0
2, 50112, Note_on_c, 0, 68, 0
2, 50112, Note_on_c, 0, 58, 127
2, 50160, Note_on_c, 0, 58, 0
2, 50160, Note_on_c, 0, 65, 127
2, 50208, Note_on_c, 0, 65, 0
2, 50208, Note_on_c, 0, 68, 127
2, 50256, Note_on_c, 0, 68, 0
2, 50256, Note_on_c, 0, 67, 127
2, 50304, Note_on_c, 0, 67, 0
2, 50304, Note_on_c, 0, 62, 127
2, 50352, Note_on_c, 0, 62, 0
2, 50352, Note_on_c, 0, 63, 127
2, 50400, Note_on_c, 0, 63, 0
2, 50400, Note_on_c, 0, 58, 127
2, 50448, Note_on_c, 0, 58, 0
2, 50448, Note_on_c, 0, 56, 127
2, 50496, Note_on_c, 0, 56, 0
2, 50496, Note_on_c, 0, 60, 127
2, 50544, Note_on_c, 0, 60, 0
2, 50544, Note_on_c, 0, 63, 127
2, 50592, Note_on_c, 0, 63, 0
2, 50592, Note_on_c, 0, 67, 127
2, 50640, Note_on_c, 0, 67, 0
2, 50640, Note_on_c, 0, 65, 127
2, 50688, Note_on_c, 0, 65, 0
2, 50688, Note_on_c, 0, 70, 127
2, 50736, Note_on_c, 0, 70, 0
2, 50736, Note_on_c, 0, 62, 127
2, 50784, Note_on_c, 0, 62, 0
2, 50784, Note_on_c, 0, 60, 127
2, 50832, Note_on_c, 0, 60, 0
2, 50832, Note_on_c, 0, 58, 127
2, 50880, Note_on_c, 0, 58, 0
2, 50880, Note_on_c, 0, 62, 127
2, 50928, Note_on_c, 0, 62, 0
2, 50928, Note_on_c, 0, 63, 127
2, 50976, Note_on_c, 0, 63, 0
2, 50976, Note_on_c, 0, 67, 127
2, 51024, Note_on_c, 0, 67, 0
2, 51024, Note_on_c, 0, 60, 127
2, 51072, Note_on_c, 0, 60, 0
2, 51072, Note_on_c, 0, 65, 127
2, 51168, Note_on_c, 0, 65, 0
2, 51168, Note_on_c, 0, 62, 127
2, 51216, Note_on_c, 0, 62, 0
2, 51216, Note_on_c, 0, 63, 127
2, 51552, Note_on_c, 0, 63, 0
2, 51552, Note_on_c, 0, 77, 127
2, 51600, Note_on_c, 0, 77, 0
2, 51600, Note_on_c, 0, 77, 127
2, 51648, Note_on_c, 0, 77, 0
2, 51648, Note_on_c, 0, 72, 127
2, 51696, Note_on_c, 0, 72, 0
2, 51696, Note_on_c, 0, 74, 127
2, 51744, Note_on_c, 0, 74, 0
2, 51744, Note_on_c, 0, 77, 127
2, 51792, Note_on_c, 0, 77, 0
2, 51840, Note_on_c, 0, 74, 127
2, 51888, Note_on_c, 0, 74, 0
2, 51888, Note_on_c, 0, 77, 127
2, 51936, Note_on_c, 0, 77, 0
2, 51936, Note_on_c, 0, 80, 127
2, 51984, Note_on_c, 0, 80, 0
2, 51984, Note_on_c, 0, 79, 127
2, 52032, Note_on_c, 0, 79, 0
2, 52032, Note_on_c, 0, 74, 127
2, 52080, Note_on_c, 0, 74, 0
2, 52080, Note_on_c, 0, 75, 127
2, 52128, Note_on_c, 0, 75, 0
2, 52128, Note_on_c, 0, 79, 127
2, 52176, Note_on_c, 0, 79, 0
2, 52224, Note_on_c, 0, 75, 127
2, 52272, Note_on_c, 0, 75, 0
2, 52272, Note_on_c, 0, 79, 127
2, 52320, Note_on_c, 0, 79, 0
2, 52320, Note_on_c, 0, 82, 127
2, 52368, Note_on_c, 0, 82, 0
2, 52368, Note_on_c, 0, 81, 127
2, 52416, Note_on_c, 0, 81, 0
2, 52416, Note_on_c, 0, 75, 127
2, 52464, Note_on_c, 0, 75, 0
2, 52464, Note_on_c, 0, 77, 127
2, 52512, Note_on_c, 0, 77, 0
2, 52512, Note_on_c, 0, 81, 127
2, 52560, Note_on_c, 0, 81, 0
2, 52608, Note_on_c, 0, 75, 127
2, 52656, Note_on_c, 0, 75, 0
2, 52656, Note_on_c, 0, 81, 127
2, 52704, Note_on_c, 0, 81, 0
2, 52704, Note_on_c, 0, 84, 127
2, 52752, Note_on_c, 0, 84, 0
2, 52752, Note_on_c, 0, 84, 127
2, 52800, Note_on_c, 0, 84, 0
2, 52800, Note_on_c, 0, 81, 127
2, 52848, Note_on_c, 0, 81, 0
2, 52848, Note_on_c, 0, 82, 127
2, 52896, Note_on_c, 0, 82, 0
2, 52896, Note_on_c, 0, 77, 127
2, 52944, Note_on_c, 0, 77, 0
2, 52944, Note_on_c, 0, 75, 127
2, 52992, Note_on_c, 0, 75, 0
2, 52992, Note_on_c, 0, 72, 127
2, 53040, Note_on_c, 0, 72, 0
2, 53040, Note_on_c, 0, 74, 127
2, 53088, Note_on_c, 0, 74, 0
2, 53088, Note_on_c, 0, 77, 127
2, 53280, Note_on_c, 0, 77, 0
2, 53280, Note_on_c, 0, 71, 127
2, 53328, Note_on_c, 0, 71, 0
2, 53328, Note_on_c, 0, 74, 127
2, 53376, Note_on_c, 0, 74, 0
2, 53376, Note_on_c, 0, 77, 127
2, 53424, Note_on_c, 0, 77, 0
2, 53424, Note_on_c, 0, 75, 127
2, 53472, Note_on_c, 0, 75, 0
2, 53472, Note_on_c, 0, 74, 127
2, 53520, Note_on_c, 0, 74, 0
2, 53520, Note_on_c, 0, 75, 127
2, 54144, Note_on_c, 0, 75, 0
2, 54144, Note_on_c, 0, 75, 127
2, 54192, Note_on_c, 0, 75, 0
2, 54192, Note_on_c, 0, 74, 127
2, 54240, Note_on_c, 0, 74, 0
2, 54240, Note_on_c, 0, 77, 127
2, 54288, Note_on_c, 0, 77, 0
2, 54288, Note_on_c, 0, 72, 127
2, 54336, Note_on_c, 0, 72, 0
2, 54336, Note_on_c, 0, 69, 127
2, 54384, Note_on_c, 0, 69, 0
2, 54384, Note_on_c, 0, 71, 127
2, 54432, Note_on_c, 0, 74, 127
2, 54480, Note_on_c, 0, 79, 127
2, 54672, Note_on_c, 0, 74, 0
2, 54672, Note_on_c, 0, 71, 0
2, 54720, Note_on_c, 0, 79, 0
2, 54720, Note_on_c, 0, 82, 127
2, 54768, Note_on_c, 0, 82, 0
2, 54768, Note_on_c, 0, 73, 127
2, 54816, Note_on_c, 0, 73, 0
2, 54816, Note_on_c, 0, 72, 127
2, 54864, Note_on_c, 0, 72, 0
2, 54864, Note_on_c, 0, 70, 127
2, 54912, Note_on_c, 0, 70, 0
2, 54912, Note_on_c, 0, 79, 127
2, 54960, Note_on_c, 0, 79, 0
2, 54960, Note_on_c, 0, 76, 127
2, 55008, Note_on_c, 0, 76, 0
2, 55008, Note_on_c, 0, 72, 127
2, 55056, Note_on_c, 0, 72, 0
2, 55056, Note_on_c, 0, 80, 127
2, 55104, Note_on_c, 0, 80, 0
2, 55104, Note_on_c, 0, 77, 127
2, 55152, Note_on_c, 0, 77, 0
2, 55152, Note_on_c, 0, 74, 127
2, 55200, Note_on_c, 0, 74, 0
2, 55200, Note_on_c, 0, 72, 127
2, 55248, Note_on_c, 0, 72, 0
2, 55248, Note_on_c, 0, 71, 127
2, 55296, Note_on_c, 0, 71, 0
2, 55296, Note_on_c, 0, 77, 127
2, 55344, Note_on_c, 0, 77, 0
2, 55344, Note_on_c, 0, 74, 127
2, 55392, Note_on_c, 0, 74, 0
2, 55392, Note_on_c, 0, 71, 127
2, 55440, Note_on_c, 0, 71, 0
2, 55440, Note_on_c, 0, 67, 127
2, 55488, Note_on_c, 0, 67, 0
2, 55488, Note_on_c, 0, 71, 127
2, 55536, Note_on_c, 0, 71, 0
2, 55536, Note_on_c, 0, 72, 127
2, 55584, Note_on_c, 0, 72, 0
2, 55584, Note_on_c, 0, 75, 127
2, 55680, Note_on_c, 0, 75, 0
2, 55680, Note_on_c, 0, 74, 127
2, 55728, Note_on_c, 0, 74, 0
2, 55728, Note_on_c, 0, 72, 127
2, 55776, Note_on_c, 0, 72, 0
2, 55776, Note_on_c, 0, 71, 127
2, 55824, Note_on_c, 0, 71, 0
2, 55824, Note_on_c, 0, 72, 127
2, 56208, Note_on_c, 0, 72, 0
2, 56256, Note_on_c, 0, 62, 127
2, 56304, Note_on_c, 0, 62, 0
2, 56304, Note_on_c, 0, 63, 127
2, 56352, Note_on_c, 0, 63, 0
2, 56352, Note_on_c, 0, 67, 127
2, 56400, Note_on_c, 0, 67, 0
2, 56400, Note_on_c, 0, 70, 127
2, 56448, Note_on_c, 0, 70, 0
2, 56448, Note_on_c, 0, 65, 127
2, 56496, Note_on_c, 0, 65, 0
2, 56496, Note_on_c, 0, 67, 127
2, 56544, Note_on_c, 0, 67, 0
2, 56544, Note_on_c, 0, 70, 127
2, 56592, Note_on_c, 0, 70, 0
2, 56592, Note_on_c, 0, 73, 127
2, 56640, Note_on_c, 0, 73, 0
2, 56640, Note_on_c, 0, 67, 127
2, 56688, Note_on_c, 0, 67, 0
2, 56688, Note_on_c, 0, 68, 127
2, 56736, Note_on_c, 0, 72, 127
2, 56784, Note_on_c, 0, 63, 127
2, 56976, Note_on_c, 0, 63, 0
2, 56976, Note_on_c, 0, 68, 0
2, 57024, Note_on_c, 0, 72, 0
2, 57024, Note_on_c, 0, 71, 127
2, 57072, Note_on_c, 0, 71, 0
2, 57072, Note_on_c, 0, 72, 127
2, 57120, Note_on_c, 0, 72, 0
2, 57120, Note_on_c, 0, 76, 127
2, 57168, Note_on_c, 0, 76, 0
2, 57168, Note_on_c, 0, 79, 127
2, 57216, Note_on_c, 0, 79, 0
2, 57216, Note_on_c, 0, 70, 127
2, 57264, Note_on_c, 0, 70, 0
2, 57264, Note_on_c, 0, 72, 127
2, 57312, Note_on_c, 0, 72, 0
2, 57312, Note_on_c, 0, 67, 127
2, 57360, Note_on_c, 0, 67, 0
2, 57360, Note_on_c, 0, 68, 127
2, 57408, Note_on_c, 0, 68, 0
2, 57408, Note_on_c, 0, 64, 127
2, 57456, Note_on_c, 0, 64, 0
2, 57456, Note_on_c, 0, 65, 127
2, 57504, Note_on_c, 0, 68, 127
2, 57552, Note_on_c, 0, 60, 127
2, 57744, Note_on_c, 0, 60, 0
2, 57744, Note_on_c, 0, 65, 0
2, 57792, Note_on_c, 0, 68, 0
2, 57792, Note_on_c, 0, 58, 127
2, 57840, Note_on_c, 0, 58, 0
2, 57840, Note_on_c, 0, 65, 127
2, 57888, Note_on_c, 0, 65, 0
2, 57888, Note_on_c, 0, 68, 127
2, 57936, Note_on_c, 0, 68, 0
2, 57936, Note_on_c, 0, 67, 127
2, 57984, Note_on_c, 0, 67, 0
2, 57984, Note_on_c, 0, 62, 127
2, 58032, Note_on_c, 0, 62, 0
2, 58032, Note_on_c, 0, 63, 127
2, 58080, Note_on_c, 0, 63, 0
2, 58080, Note_on_c, 0, 58, 127
2, 58128, Note_on_c, 0, 58, 0
2, 58128, Note_on_c, 0, 56, 127
2, 58176, Note_on_c, 0, 56, 0
2, 58176, Note_on_c, 0, 60, 127
2, 58224, Note_on_c, 0, 60, 0
2, 58224, Note_on_c, 0, 63, 127
2, 58272, Note_on_c, 0, 63, 0
2, 58272, Note_on_c, 0, 67, 127
2, 58320, Note_on_c, 0, 67, 0
2, 58320, Note_on_c, 0, 65, 127
2, 58368, Note_on_c, 0, 65, 0
2, 58368, Note_on_c, 0, 70, 127
2, 58416, Note_on_c, 0, 70, 0
2, 58416, Note_on_c, 0, 62, 127
2, 58464, Note_on_c, 0, 62, 0
2, 58464, Note_on_c, 0, 60, 127
2, 58512, Note_on_c, 0, 60, 0
2, 58512, Note_on_c, 0, 58, 127
2, 58560, Note_on_c, 0, 58, 0
2, 58560, Note_on_c, 0, 62, 127
2, 58608, Note_on_c, 0, 62, 0
2, 58608, Note_on_c, 0, 63, 127
2, 58656, Note_on_c, 0, 63, 0
2, 58656, Note_on_c, 0, 67, 127
2, 58704, Note_on_c, 0, 67, 0
2, 58704, Note_on_c, 0, 60, 127
2, 58752, Note_on_c, 0, 60, 0
2, 58752, Note_on_c, 0, 65, 127
2, 58848, Note_on_c, 0, 65, 0
2, 58848, Note_on_c, 0, 62, 127
2, 58896, Note_on_c, 0, 62, 0
2, 58896, Note_on_c, 0, 63, 127
2, 59232, Note_on_c, 0, 63, 0
2, 60000, Note_on_c, 0, 58, 127
2, 60096, Note_on_c, 0, 58, 0
2, 60096, Note_on_c, 0, 58, 127
2, 60352, Note_on_c, 0, 58, 0
2, 60352, Note_on_c, 0, 60, 127
2, 60416, Note_on_c, 0, 60, 0
2, 60416, Note_on_c, 0, 62, 127
2, 60480, Note_on_c, 0, 62, 0
2, 60480, Note_on_c, 0, 63, 127
2, 60544, Note_on_c, 0, 63, 0
2, 60544, Note_on_c, 0, 65, 127
2, 60608, Note_on_c, 0, 65, 0
2, 60608, Note_on_c, 0, 67, 127
2, 60672, Note_on_c, 0, 67, 0
2, 60672, Note_on_c, 0, 67, 127
2, 60736, Note_on_c, 0, 67, 0
2, 60736, Note_on_c, 0, 63, 127
2, 60800, Note_on_c, 0, 63, 0
2, 60800, Note_on_c, 0, 65, 127
2, 60864, Note_on_c, 0, 65, 0
2, 60864, Note_on_c, 0, 74, 127
2, 60880, Note_on_c, 0, 74, 0
2, 60880, Note_on_c, 0, 72, 127
2, 60896, Note_on_c, 0, 72, 0
2, 60896, Note_on_c, 0, 74, 127
2, 61120, Note_on_c, 0, 74, 0
2, 61120, Note_on_c, 0, 75, 127
2, 61184, Note_on_c, 0, 75, 0
2, 61184, Note_on_c, 0, 77, 127
2, 61248, Note_on_c, 0, 77, 0
2, 61248, Note_on_c, 0, 75, 127
2, 61312, Note_on_c, 0, 75, 0
2, 61312, Note_on_c, 0, 74, 127
2, 61376, Note_on_c, 0, 74, 0
2, 61376, Note_on_c, 0, 72, 127
2, 61440, Note_on_c, 0, 72, 0
2, 61440, Note_on_c, 0, 70, 127
2, 61504, Note_on_c, 0, 70, 0
2, 61504, Note_on_c, 0, 68, 127
2, 61568, Note_on_c, 0, 68, 0
2, 61568, Note_on_c, 0, 67, 127
2, 61632, Note_on_c, 0, 67, 0
2, 61632, Note_on_c, 0, 65, 127
2, 61696, Note_on_c, 0, 65, 0
2, 61696, Note_on_c, 0, 67, 127
2, 61760, Note_on_c, 0, 67, 0
2, 61760, Note_on_c, 0, 68, 127
2, 61824, Note_on_c, 0, 68, 0
2, 61824, Note_on_c, 0, 68, 127
2, 61888, Note_on_c, 0, 68, 0
2, 61888, Note_on_c, 0, 65, 127
2, 61952, Note_on_c, 0, 65, 0
2, 61952, Note_on_c, 0, 67, 127
2, 62016, Note_on_c, 0, 67, 0
2, 62016, Note_on_c, 0, 63, 127
2, 62080, Note_on_c, 0, 63, 0
2, 62080, Note_on_c, 0, 67, 127
2, 62144, Note_on_c, 0, 67, 0
2, 62144, Note_on_c, 0, 70, 127
2, 62208, Note_on_c, 0, 70, 0
2, 62208, Note_on_c, 0, 75, 127
2, 62272, Note_on_c, 0, 75, 0
2, 62272, Note_on_c, 0, 79, 127
2, 62336, Note_on_c, 0, 79, 0
2, 62336, Note_on_c, 0, 77, 127
2, 62400, Note_on_c, 0, 77, 0
2, 62400, Note_on_c, 0, 77, 127
2, 62528, Note_on_c, 0, 77, 0
2, 62528, Note_on_c, 0, 79, 127
2, 62544, Note_on_c, 0, 79, 0
2, 62544, Note_on_c, 0, 77, 127
2, 62560, Note_on_c, 0, 77, 0
2, 62560, Note_on_c, 0, 79, 127
2, 62656, Note_on_c, 0, 79, 0
2, 62656, Note_on_c, 0, 80, 127
2, 62720, Note_on_c, 0, 80, 0
2, 62720, Note_on_c, 0, 79, 127
2, 62784, Note_on_c, 0, 79, 0
2, 62784, Note_on_c, 0, 77, 127
2, 62848, Note_on_c, 0, 77, 0
2, 62848, Note_on_c, 0, 75, 127
2, 62912, Note_on_c, 0, 75, 0
2, 62912, Note_on_c, 0, 74, 127
2, 62976, Note_on_c, 0, 74, 0
2, 62976, Note_on_c, 0, 75, 127
2, 63040, Note_on_c, 0, 75, 0
2, 63040, Note_on_c, 0, 72, 127
2, 63104, Note_on_c, 0, 72, 0
2, 63104, Note_on_c, 0, 74, 127
2, 63168, Note_on_c, 0, 74, 0
2, 63168, Note_on_c, 0, 75, 127
2, 63232, Note_on_c, 0, 75, 0
2, 63232, Note_on_c, 0, 77, 127
2, 63296, Note_on_c, 0, 77, 0
2, 63296, Note_on_c, 0, 79, 127
2, 63360, Note_on_c, 0, 79, 0
2, 63360, Note_on_c, 0, 70, 127
2, 63424, Note_on_c, 0, 70, 0
2, 63424, Note_on_c, 0, 67, 127
2, 63488, Note_on_c, 0, 67, 0
2, 63488, Note_on_c, 0, 69, 127
2, 63552, Note_on_c, 0, 69, 0
2, 63552, Note_on_c, 0, 77, 127
2, 63568, Note_on_c, 0, 77, 0
2, 63568, Note_on_c, 0, 75, 127
2, 63584, Note_on_c, 0, 75, 0
2, 63584, Note_on_c, 0, 77, 127
2, 63808, Note_on_c, 0, 77, 0
2, 63808, Note_on_c, 0, 79, 127
2, 63872, Note_on_c, 0, 79, 0
2, 63872, Note_on_c, 0, 77, 127
2, 63936, Note_on_c, 0, 77, 0
2, 63936, Note_on_c, 0, 75, 127
2, 64000, Note_on_c, 0, 75, 0
2, 64000, Note_on_c, 0, 74, 127
2, 64064, Note_on_c, 0, 74, 0
2, 64064, Note_on_c, 0, 72, 127
2, 64128, Note_on_c, 0, 72, 0
2, 64128, Note_on_c, 0, 74, 127
2, 64192, Note_on_c, 0, 74, 0
2, 64192, Note_on_c, 0, 70, 127
2, 64256, Note_on_c, 0, 70, 0
2, 64256, Note_on_c, 0, 72, 127
2, 64320, Note_on_c, 0, 72, 0
2, 64320, Note_on_c, 0, 74, 127
2, 64384, Note_on_c, 0, 74, 0
2, 64384, Note_on_c, 0, 75, 127
2, 64448, Note_on_c, 0, 75, 0
2, 64448, Note_on_c, 0, 77, 127
2, 64512, Note_on_c, 0, 77, 0
2, 64512, Note_on_c, 0, 68, 127
2, 64576, Note_on_c, 0, 68, 0
2, 64576, Note_on_c, 0, 65, 127
2, 64640, Note_on_c, 0, 65, 0
2, 64640, Note_on_c, 0, 67, 127
2, 64704, Note_on_c, 0, 67, 0
2, 64704, Note_on_c, 0, 67, 127
2, 64768, Note_on_c, 0, 67, 0
2, 64768, Note_on_c, 0, 70, 127
2, 64832, Note_on_c, 0, 70, 0
2, 64832, Note_on_c, 0, 69, 127
2, 64896, Note_on_c, 0, 69, 0
2, 64896, Note_on_c, 0, 70, 127
2, 64960, Note_on_c, 0, 70, 0
2, 64960, Note_on_c, 0, 72, 127
2, 65024, Note_on_c, 0, 72, 0
2, 65024, Note_on_c, 0, 74, 127
2, 65088, Note_on_c, 0, 74, 0
2, 65088, Note_on_c, 0, 72, 127
2, 65152, Note_on_c, 0, 72, 0
2, 65152, Note_on_c, 0, 69, 127
2, 65216, Note_on_c, 0, 69, 0
2, 65216, Note_on_c, 0, 70, 127
2, 65280, Note_on_c, 0, 70, 0
2, 65280, Note_on_c, 0, 75, 127
2, 65344, Note_on_c, 0, 75, 0
2, 65344, Note_on_c, 0, 72, 127
2, 65408, Note_on_c, 0, 72, 0
2, 65408, Note_on_c, 0, 74, 127
2, 65472, Note_on_c, 0, 74, 0
2, 65472, Note_on_c, 0, 75, 127
2, 65536, Note_on_c, 0, 75, 0
2, 65536, Note_on_c, 0, 77, 127
2, 65600, Note_on_c, 0, 77, 0
2, 65600, Note_on_c, 0, 79, 127
2, 65664, Note_on_c, 0, 79, 0
2, 65664, Note_on_c, 0, 77, 127
2, 65728, Note_on_c, 0, 77, 0
2, 65728, Note_on_c, 0, 74, 127
2, 65792, Note_on_c, 0, 74, 0
2, 65792, Note_on_c, 0, 75, 127
2, 65856, Note_on_c, 0, 75, 0
2, 65856, Note_on_c, 0, 81, 127
2, 65920, Note_on_c, 0, 81, 0
2, 65920, Note_on_c, 0, 77, 127
2, 65984, Note_on_c, 0, 77, 0
2, 65984, Note_on_c, 0, 79, 127
2, 66048, Note_on_c, 0, 79, 0
2, 66048, Note_on_c, 0, 81, 127
2, 66112, Note_on_c, 0, 81, 0
2, 66112, Note_on_c, 0, 82, 127
2, 66176, Note_on_c, 0, 82, 0
2, 66176, Note_on_c, 0, 84, 127
2, 66240, Note_on_c, 0, 84, 0
2, 66240, Note_on_c, 0, 75, 127
2, 66304, Note_on_c, 0, 75, 0
2, 66304, Note_on_c, 0, 72, 127
2, 66368, Note_on_c, 0, 72, 0
2, 66368, Note_on_c, 0, 74, 127
2, 66432, Note_on_c, 0, 74, 0
2, 66432, Note_on_c, 0, 74, 127
2, 66496, Note_on_c, 0, 74, 0
2, 66496, Note_on_c, 0, 69, 127
2, 66560, Note_on_c, 0, 69, 0
2, 66560, Note_on_c, 0, 70, 127
2, 66624, Note_on_c, 0, 70, 0
2, 66624, Note_on_c, 0, 70, 127
2, 66688, Note_on_c, 0, 70, 0
2, 66688, Note_on_c, 0, 67, 127
2, 66752, Note_on_c, 0, 67, 0
2, 66752, Note_on_c, 0, 69, 127
2, 66816, Note_on_c, 0, 69, 0
2, 66816, Note_on_c, 0, 67, 127
2, 66848, Note_on_c, 0, 67, 0
2, 66848, Note_on_c, 0, 69, 127
2, 66864, Note_on_c, 0, 69, 0
2, 66864, Note_on_c, 0, 70, 127
2, 66880, Note_on_c, 0, 70, 0
2, 66880, Note_on_c, 0, 69, 127
2, 66896, Note_on_c, 0, 69, 0
2, 66896, Note_on_c, 0, 70, 127
2, 66912, Note_on_c, 0, 70, 0
2, 66912, Note_on_c, 0, 69, 127
2, 66944, Note_on_c, 0, 69, 0
2, 66944, Note_on_c, 0, 70, 127
2, 67008, Note_on_c, 0, 70, 0
2, 67008, Note_on_c, 0, 70, 127
2, 67264, Note_on_c, 0, 70, 0
2, 67264, Note_on_c, 0, 62, 127
2, 67328, Note_on_c, 0, 62, 0
2, 67328, Note_on_c, 0, 63, 127
2, 67392, Note_on_c, 0, 63, 0
2, 67392, Note_on_c, 0, 65, 127
2, 67456, Note_on_c, 0, 65, 0
2, 67456, Note_on_c, 0, 67, 127
2, 67520, Note_on_c, 0, 67, 0
2, 67520, Note_on_c, 0, 68, 127
2, 67584, Note_on_c, 0, 68, 0
2, 67584, Note_on_c, 0, 67, 127
2, 67648, Note_on_c, 0, 67, 0
2, 67648, Note_on_c, 0, 62, 127
2, 67712, Note_on_c, 0, 62, 0
2, 67712, Note_on_c, 0, 63, 127
2, 67776, Note_on_c, 0, 63, 0
2, 67776, Note_on_c, 0, 60, 127
2, 67840, Note_on_c, 0, 60, 0
2, 67840, Note_on_c, 0, 70, 127
2, 67904, Note_on_c, 0, 70, 0
2, 67904, Note_on_c, 0, 69, 127
2, 67968, Note_on_c, 0, 69, 0
2, 67968, Note_on_c, 0, 70, 127
2, 68032, Note_on_c, 0, 70, 0
2, 68032, Note_on_c, 0, 65, 127
2, 68096, Note_on_c, 0, 65, 0
2, 68096, Note_on_c, 0, 67, 127
2, 68160, Note_on_c, 0, 67, 0
2, 68160, Note_on_c, 0, 63, 127
2, 68224, Note_on_c, 0, 63, 0
2, 68224, Note_on_c, 0, 74, 127
2, 68288, Note_on_c, 0, 74, 0
2, 68288, Note_on_c, 0, 72, 127
2, 68352, Note_on_c, 0, 72, 0
2, 68352, Note_on_c, 0, 74, 127
2, 68416, Note_on_c, 0, 74, 0
2, 68416, Note_on_c, 0, 75, 127
2, 68480, Note_on_c, 0, 75, 0
2, 68480, Note_on_c, 0, 77, 127
2, 68544, Note_on_c, 0, 77, 0
2, 68544, Note_on_c, 0, 65, 127
2, 68608, Note_on_c, 0, 65, 0
2, 68608, Note_on_c, 0, 70, 127
2, 68672, Note_on_c, 0, 70, 0
2, 68672, Note_on_c, 0, 69, 127
2, 68736, Note_on_c, 0, 69, 0
2, 68736, Note_on_c, 0, 70, 127
2, 68800, Note_on_c, 0, 70, 0
2, 68800, Note_on_c, 0, 65, 127
2, 68864, Note_on_c, 0, 65, 0
2, 68864, Note_on_c, 0, 62, 127
2, 68928, Note_on_c, 0, 62, 0
2, 68928, Note_on_c, 0, 58, 127
2, 69216, Note_on_c, 0, 58, 0
2, 69216, Note_on_c, 0, 58, 127
2, 69312, Note_on_c, 0, 58, 0
2, 69312, Note_on_c, 0, 58, 127
2, 69568, Note_on_c, 0, 58, 0
2, 69568, Note_on_c, 0, 60, 127
2, 69632, Note_on_c, 0, 60, 0
2, 69632, Note_on_c, 0, 62, 127
2, 69696, Note_on_c, 0, 62, 0
2, 69696, Note_on_c, 0, 63, 127
2, 69760, Note_on_c, 0, 63, 0
2, 69760, Note_on_c, 0, 65, 127
2, 69824, Note_on_c, 0, 65, 0
2, 69824, Note_on_c, 0, 67, 127
2, 69888, Note_on_c, 0, 67, 0
2, 69888, Note_on_c, 0, 67, 127
2, 69952, Note_on_c, 0, 67, 0
2, 69952, Note_on_c, 0, 63, 127
2, 70016, Note_on_c, 0, 63, 0
2, 70016, Note_on_c, 0, 65, 127
2, 70080, Note_on_c, 0, 65, 0
2, 70080, Note_on_c, 0, 74, 127
2, 70096, Note_on_c, 0, 74, 0
2, 70096, Note_on_c, 0, 72, 127
2, 70112, Note_on_c, 0, 72, 0
2, 70112, Note_on_c, 0, 74, 127
2, 70336, Note_on_c, 0, 74, 0
2, 70336, Note_on_c, 0, 75, 127
2, 70400, Note_on_c, 0, 75, 0
2, 70400, Note_on_c, 0, 77, 127
2, 70464, Note_on_c, 0, 77, 0
2, 70464, Note_on_c, 0, 75, 127
2, 70528, Note_on_c, 0, 75, 0
2, 70528, Note_on_c, 0, 74, 127
2, 70592, Note_on_c, 0, 74, 0
2, 70592, Note_on_c, 0, 72, 127
2, 70656, Note_on_c, 0, 72, 0
2, 70656, Note_on_c, 0, 70, 127
2, 70720, Note_on_c, 0, 70, 0
2, 70720, Note_on_c, 0, 68, 127
2, 70784, Note_on_c, 0, 68, 0
2, 70784, Note_on_c, 0, 67, 127
2, 70848, Note_on_c, 0, 67, 0
2, 70848, Note_on_c, 0, 65, 127
2, 70912, Note_on_c, 0, 65, 0
2, 70912, Note_on_c, 0, 67, 127
2, 70976, Note_on_c, 0, 67, 0
2, 70976, Note_on_c, 0, 68, 127
2, 71040, Note_on_c, 0, 68, 0
2, 71040, Note_on_c, 0, 68, 127
2, 71104, Note_on_c, 0, 68, 0
2, 71104, Note_on_c, 0, 65, 127
2, 71168, Note_on_c, 0, 65, 0
2, 71168, Note_on_c, 0, 67, 127
2, 71232, Note_on_c, 0, 67, 0
2, 71232, Note_on_c, 0, 63, 127
2, 71296, Note_on_c, 0, 63, 0
2, 71296, Note_on_c, 0, 67, 127
2, 71360, Note_on_c, 0, 67, 0
2, 71360, Note_on_c, 0, 70, 127
2, 71424, Note_on_c, 0, 70, 0
2, 71424, Note_on_c, 0, 75, 127
2, 71488, Note_on_c, 0, 75, 0
2, 71488, Note_on_c, 0, 79, 127
2, 71552, Note_on_c, 0, 79, 0
2, 71552, Note_on_c, 0, 77, 127
2, 71616, Note_on_c, 0, 77, 0
2, 71616, Note_on_c, 0, 77, 127
2, 71744, Note_on_c, 0, 77, 0
2, 71744, Note_on_c, 0, 79, 127
2, 71760, Note_on_c, 0, 79, 0
2, 71760, Note_on_c, 0, 77, 127
2, 71776, Note_on_c, 0, 77, 0
2, 71776, Note_on_c, 0, 79, 127
2, 71872, Note_on_c, 0, 79, 0
2, 71872, Note_on_c, 0, 80, 127
2, 71936, Note_on_c, 0, 80, 0
2, 71936, Note_on_c, 0, 79, 127
2, 72000, Note_on_c, 0, 79, 0
2, 72000, Note_on_c, 0, 77, 127
2, 72064, Note_on_c, 0, 77, 0
2, 72064, Note_on_c, 0, 75, 127
2, 72128, Note_on_c, 0, 75, 0
2, 72128, Note_on_c, 0, 74, 127
2, 72192, Note_on_c, 0, 74, 0
2, 72192, Note_on_c, 0, 75, 127
2, 72256, Note_on_c, 0, 75, 0
2, 72256, Note_on_c, 0, 72, 127
2, 72320, Note_on_c, 0, 72, 0
2, 72320, Note_on_c, 0, 74, 127
2, 72384, Note_on_c, 0, 74, 0
2, 72384, Note_on_c, 0, 75, 127
2, 72448, Note_on_c, 0, 75, 0
2, 72448, Note_on_c, 0, 77, 127
2, 72512, Note_on_c, 0, 77, 0
2, 72512, Note_on_c, 0, 79, 127
2, 72576, Note_on_c, 0, 79, 0
2, 72576, Note_on_c, 0, 70, 127
2, 72640, Note_on_c, 0, 70, 0
2, 72640, Note_on_c, 0, 67, 127
2, 72704, Note_on_c, 0, 67, 0
2, 72704, Note_on_c, 0, 69, 127
2, 72768, Note_on_c, 0, 69, 0
2, 72768, Note_on_c, 0, 77, 127
2, 72784, Note_on_c, 0, 77, 0
2, 72784, Note_on_c, 0, 75, 127
2, 72800, Note_on_c, 0, 75, 0
2, 72800, Note_on_c, 0, 77, 127
2, 73024, Note_on_c, 0, 77, 0
2, 73024, Note_on_c, 0, 79, 127
2, 73088, Note_on_c, 0, 79, 0
2, 73088, Note_on_c, 0, 77, 127
2, 73152, Note_on_c, 0, 77, 0
2, 73152, Note_on_c, 0, 75, 127
2, 73216, Note_on_c, 0, 75, 0
2, 73216, Note_on_c, 0, 74, 127
2, 73280, Note_on_c, 0, 74, 0
2, 73280, Note_on_c, 0, 72, 127
2, 73344, Note_on_c, 0, 72, 0
2, 73344, Note_on_c, 0, 74, 127
2, 73408, Note_on_c, 0, 74, 0
2, 73408, Note_on_c, 0, 70, 127
2, 73472, Note_on_c, 0, 70, 0
2, 73472, Note_on_c, 0, 72, 127
2, 73536, Note_on_c, 0, 72, 0
2, 73536, Note_on_c, 0, 74, 127
2, 73600, Note_on_c, 0, 74, 0
2, 73600, Note_on_c, 0, 75, 127
2, 73664, Note_on_c, 0, 75, 0
2, 73664, Note_on_c, 0, 77, 127
2, 73728, Note_on_c, 0, 77, 0
2, 73728, Note_on_c, 0, 68, 127
2, 73792, Note_on_c, 0, 68, 0
2, 73792, Note_on_c, 0, 65, 127
2, 73856, Note_on_c, 0, 65, 0
2, 73856, Note_on_c, 0, 67, 127
2, 73920, Note_on_c, 0, 67, 0
2, 73920, Note_on_c, 0, 67, 127
2, 73984, Note_on_c, 0, 67, 0
2, 73984, Note_on_c, 0, 70, 127
2, 74048, Note_on_c, 0, 70, 0
2, 74048, Note_on_c, 0, 69, 127
2, 74112, Note_on_c, 0, 69, 0
2, 74112, Note_on_c, 0, 70, 127
2, 74176, Note_on_c, 0, 70, 0
2, 74176, Note_on_c, 0, 72, 127
2, 74240, Note_on_c, 0, 72, 0
2, 74240, Note_on_c, 0, 74, 127
2, 74304, Note_on_c, 0, 74, 0
2, 74304, Note_on_c, 0, 72, 127
2, 74368, Note_on_c, 0, 72, 0
2, 74368, Note_on_c, 0, 69, 127
2, 74432, Note_on_c, 0, 69, 0
2, 74432, Note_on_c, 0, 70, 127
2, 74496, Note_on_c, 0, 70, 0
2, 74496, Note_on_c, 0, 75, 127
2, 74560, Note_on_c, 0, 75, 0
2, 74560, Note_on_c, 0, 72, 127
2, 74624, Note_on_c, 0, 72, 0
2, 74624, Note_on_c, 0, 74, 127
2, 74688, Note_on_c, 0, 74, 0
2, 74688, Note_on_c, 0, 75, 127
2, 74752, Note_on_c, 0, 75, 0
2, 74752, Note_on_c, 0, 77, 127
2, 74816, Note_on_c, 0, 77, 0
2, 74816, Note_on_c, 0, 79, 127
2, 74880, Note_on_c, 0, 79, 0
2, 74880, Note_on_c, 0, 77, 127
2, 74944, Note_on_c, 0, 77, 0
2, 74944, Note_on_c, 0, 74, 127
2, 75008, Note_on_c, 0, 74, 0
2, 75008, Note_on_c, 0, 75, 127
2, 75072, Note_on_c, 0, 75, 0
2, 75072, Note_on_c, 0, 81, 127
2, 75136, Note_on_c, 0, 81, 0
2, 75136, Note_on_c, 0, 77, 127
2, 75200, Note_on_c, 0, 77, 0
2, 75200, Note_on_c, 0, 79, 127
2, 75264, Note_on_c, 0, 79, 0
2, 75264, Note_on_c, 0, 81, 127
2, 75328, Note_on_c, 0, 81, 0
2, 75328, Note_on_c, 0, 82, 127
2, 75392, Note_on_c, 0, 82, 0
2, 75392, Note_on_c, 0, 84, 127
2, 75456, Note_on_c, 0, 84, 0
2, 75456, Note_on_c, 0, 75, 127
2, 75520, Note_on_c, 0, 75, 0
2, 75520, Note_on_c, 0, 72, 127
2, 75584, Note_on_c, 0, 72, 0
2, 75584, Note_on_c, 0, 74, 127
2, 75648, Note_on_c, 0, 74, 0
2, 75648, Note_on_c, 0, 74, 127
2, 75712, Note_on_c, 0, 74, 0
2, 75712, Note_on_c, 0, 69, 127
2, 75776, Note_on_c, 0, 69, 0
2, 75776, Note_on_c, 0, 70, 127
2, 75840, Note_on_c, 0, 70, 0
2, 75840, Note_on_c, 0, 70, 127
2, 75904, Note_on_c, 0, 70, 0
2, 75904, Note_on_c, 0, 67, 127
2, 75968, Note_on_c, 0, 67, 0
2, 75968, Note_on_c, 0, 69, 127
2, 76032, Note_on_c, 0, 69, 0
2, 76032, Note_on_c, 0, 67, 127
2, 76064, Note_on_c, 0, 67, 0
2, 76064, Note_on_c, 0, 69, 127
2, 76080, Note_on_c, 0, 69, 0
2, 76080, Note_on_c, 0, 70, 127
2, 76096, Note_on_c, 0, 70, 0
2, 76096, Note_on_c, 0, 69, 127
2, 76112, Note_on_c, 0, 69, 0
2, 76112, Note_on_c, 0, 70, 127
2, 76128, Note_on_c, 0, 70, 0
2, 76128, Note_on_c, 0, 69, 127
2, 76160, Note_on_c, 0, 69, 0
2, 76160, Note_on_c, 0, 70, 127
2, 76224, Note_on_c, 0, 70, 0
2, 76224, Note_on_c, 0, 70, 127
2, 76480, Note_on_c, 0, 70, 0
2, 76480, Note_on_c, 0, 62, 127
2, 76544, Note_on_c, 0, 62, 0
2, 76544, Note_on_c, 0, 63, 127
2, 76608, Note_on_c, 0, 63, 0
2, 76608, Note_on_c, 0, 65, 127
2, 76672, Note_on_c, 0, 65, 0
2, 76672, Note_on_c, 0, 67, 127
2, 76736, Note_on_c, 0, 67, 0
2, 76736, Note_on_c, 0, 68, 127
2, 76800, Note_on_c, 0, 68, 0
2, 76800, Note_on_c, 0, 67, 127
2, 76864, Note_on_c, 0, 67, 0
2, 76864, Note_on_c, 0, 62, 127
2, 76928, Note_on_c, 0, 62, 0
2, 76928, Note_on_c, 0, 63, 127
2, 76992, Note_on_c, 0, 63, 0
2, 76992, Note_on_c, 0, 60, 127
2, 77056, Note_on_c, 0, 60, 0
2, 77056, Note_on_c, 0, 70, 127
2, 77120, Note_on_c, 0, 70, 0
2, 77120, Note_on_c, 0, 69, 127
2, 77184, Note_on_c, 0, 69, 0
2, 77184, Note_on_c, 0, 70, 127
2, 77248, Note_on_c, 0, 70, 0
2, 77248, Note_on_c, 0, 65, 127
2, 77312, Note_on_c, 0, 65, 0
2, 77312, Note_on_c, 0, 67, 127
2, 77376, Note_on_c, 0, 67, 0
2, 77376, Note_on_c, 0, 63, 127
2, 77440, Note_on_c, 0, 63, 0
2, 77440, Note_on_c, 0, 74, 127
2, 77504, Note_on_c, 0, 74, 0
2, 77504, Note_on_c, 0, 72, 127
2, 77568, Note_on_c, 0, 72, 0
2, 77568, Note_on_c, 0, 74, 127
2, 77632, Note_on_c, 0, 74, 0
2, 77632, Note_on_c, 0, 75, 127
2, 77696, Note_on_c, 0, 75, 0
2, 77696, Note_on_c, 0, 77, 127
2, 77760, Note_on_c, 0, 77, 0
2, 77760, Note_on_c, 0, 65, 127
2, 77824, Note_on_c, 0, 65, 0
2, 77824, Note_on_c, 0, 70, 127
2, 77888, Note_on_c, 0, 70, 0
2, 77888, Note_on_c, 0, 69, 127
2, 77952, Note_on_c, 0, 69, 0
2, 77952, Note_on_c, 0, 70, 127
2, 78016, Note_on_c, 0, 70, 0
2, 78016, Note_on_c, 0, 65, 127
2, 78080, Note_on_c, 0, 65, 0
2, 78080, Note_on_c, 0, 62, 127
2, 78144, Note_on_c, 0, 62, 0
2, 78144, Note_on_c, 0, 58, 127
2, 78432, Note_on_c, 0, 58, 0
2, 78432, Note_on_c, 0, 74, 127
2, 78528, Note_on_c, 0, 74, 0
2, 78528, Note_on_c, 0, 74, 127
2, 78784, Note_on_c, 0, 74, 0
2, 78784, Note_on_c, 0, 77, 127
2, 78848, Note_on_c, 0, 77, 0
2, 78848, Note_on_c, 0, 75, 127
2, 78912, Note_on_c, 0, 75, 0
2, 78912, Note_on_c, 0, 74, 127
2, 78976, Note_on_c, 0, 74, 0
2, 78976, Note_on_c, 0, 72, 127
2, 79040, Note_on_c, 0, 72, 0
2, 79040, Note_on_c, 0, 70, 127
2, 79104, Note_on_c, 0, 70, 0
2, 79104, Note_on_c, 0, 80, 127
2, 79168, Note_on_c, 0, 80, 0
2, 79168, Note_on_c, 0, 77, 127
2, 79232, Note_on_c, 0, 77, 0
2, 79232, Note_on_c, 0, 79, 127
2, 79296, Note_on_c, 0, 79, 0
2, 79296, Note_on_c, 0, 72, 127
2, 79328, Note_on_c, 0, 72, 0
2, 79328, Note_on_c, 0, 71, 127
2, 79360, Note_on_c, 0, 71, 0
2, 79360, Note_on_c, 0, 72, 127
2, 79392, Note_on_c, 0, 72, 0
2, 79392, Note_on_c, 0, 71, 127
2, 79424, Note_on_c, 0, 71, 0
2, 79424, Note_on_c, 0, 72, 127
2, 79456, Note_on_c, 0, 72, 0
2, 79456, Note_on_c, 0, 71, 127
2, 79552, Note_on_c, 0, 71, 0
2, 79552, Note_on_c, 0, 72, 127
2, 79616, Note_on_c, 0, 72, 0
2, 79616, Note_on_c, 0, 74, 127
2, 79680, Note_on_c, 0, 74, 0
2, 79680, Note_on_c, 0, 72, 127
2, 79744, Note_on_c, 0, 72, 0
2, 79744, Note_on_c, 0, 70, 127
2, 79808, Note_on_c, 0, 70, 0
2, 79808, Note_on_c, 0, 68, 127
2, 79872, Note_on_c, 0, 68, 0
2, 79872, Note_on_c, 0, 67, 127
2, 79936, Note_on_c, 0, 67, 0
2, 79936, Note_on_c, 0, 65, 127
2, 80000, Note_on_c, 0, 65, 0
2, 80000, Note_on_c, 0, 63, 127
2, 80064, Note_on_c, 0, 63, 0
2, 80064, Note_on_c, 0, 62, 127
2, 80128, Note_on_c, 0, 62, 0
2, 80128, Note_on_c, 0, 63, 127
2, 80192, Note_on_c, 0, 63, 0
2, 80192, Note_on_c, 0, 65, 127
2, 80256, Note_on_c, 0, 65, 0
2, 80256, Note_on_c, 0, 65, 127
2, 80320, Note_on_c, 0, 65, 0
2, 80320, Note_on_c, 0, 62, 127
2, 80384, Note_on_c, 0, 62, 0
2, 80384, Note_on_c, 0, 63, 127
2, 80448, Note_on_c, 0, 63, 0
2, 80448, Note_on_c, 0, 60, 127
2, 80512, Note_on_c, 0, 60, 0
2, 80512, Note_on_c, 0, 63, 127
2, 80576, Note_on_c, 0, 63, 0
2, 80576, Note_on_c, 0, 67, 127
2, 80640, Note_on_c, 0, 67, 0
2, 80640, Note_on_c, 0, 72, 127
2, 80704, Note_on_c, 0, 72, 0
2, 80704, Note_on_c, 0, 75, 127
2, 80768, Note_on_c, 0, 75, 0
2, 80768, Note_on_c, 0, 74, 127
2, 80832, Note_on_c, 0, 74, 0
2, 80832, Note_on_c, 0, 74, 127
2, 80960, Note_on_c, 0, 74, 0
2, 80960, Note_on_c, 0, 75, 127
2, 81088, Note_on_c, 0, 75, 0
2, 81088, Note_on_c, 0, 77, 127
2, 81152, Note_on_c, 0, 77, 0
2, 81152, Note_on_c, 0, 75, 127
2, 81216, Note_on_c, 0, 75, 0
2, 81216, Note_on_c, 0, 73, 127
2, 81280, Note_on_c, 0, 73, 0
2, 81280, Note_on_c, 0, 72, 127
2, 81344, Note_on_c, 0, 72, 0
2, 81344, Note_on_c, 0, 70, 127
2, 81408, Note_on_c, 0, 70, 0
2, 81408, Note_on_c, 0, 72, 127
2, 81472, Note_on_c, 0, 72, 0
2, 81472, Note_on_c, 0, 68, 127
2, 81536, Note_on_c, 0, 68, 0
2, 81536, Note_on_c, 0, 70, 127
2, 81600, Note_on_c, 0, 70, 0
2, 81600, Note_on_c, 0, 72, 127
2, 81664, Note_on_c, 0, 72, 0
2, 81664, Note_on_c, 0, 67, 127
2, 81728, Note_on_c, 0, 67, 0
2, 81728, Note_on_c, 0, 68, 127
2, 81792, Note_on_c, 0, 68, 0
2, 81792, Note_on_c, 0, 64, 127
2, 81856, Note_on_c, 0, 64, 0
2, 81856, Note_on_c, 0, 65, 127
2, 81920, Note_on_c, 0, 65, 0
2, 81920, Note_on_c, 0, 60, 127
2, 81984, Note_on_c, 0, 60, 0
2, 81984, Note_on_c, 0, 61, 127
2, 82048, Note_on_c, 0, 61, 0
2, 82048, Note_on_c, 0, 64, 127
2, 82112, Note_on_c, 0, 64, 0
2, 82112, Note_on_c, 0, 67, 127
2, 82176, Note_on_c, 0, 67, 0
2, 82176, Note_on_c, 0, 70, 127
2, 82240, Note_on_c, 0, 70, 0
2, 82240, Note_on_c, 0, 68, 127
2, 82304, Note_on_c, 0, 68, 0
2, 82304, Note_on_c, 0, 67, 127
2, 82368, Note_on_c, 0, 67, 0
2, 82368, Note_on_c, 0, 73, 127
2, 82432, Note_on_c, 0, 73, 0
2, 82432, Note_on_c, 0, 72, 127
2, 82496, Note_on_c, 0, 72, 0
2, 82496, Note_on_c, 0, 70, 127
2, 82560, Note_on_c, 0, 70, 0
2, 82560, Note_on_c, 0, 68, 127
2, 82624, Note_on_c, 0, 68, 0
2, 82624, Note_on_c, 0, 65, 127
2, 82688, Note_on_c, 0, 65, 0
2, 82688, Note_on_c, 0, 67, 127
2, 82752, Note_on_c, 0, 67, 0
2, 82752, Note_on_c, 0, 68, 127
2, 82816, Note_on_c, 0, 68, 0
2, 82816, Note_on_c, 0, 70, 127
2, 82880, Note_on_c, 0, 70, 0
2, 82880, Note_on_c, 0, 72, 127
2, 82944, Note_on_c, 0, 72, 0
2, 82944, Note_on_c, 0, 73, 127
2, 83008, Note_on_c, 0, 73, 0
2, 83008, Note_on_c, 0, 75, 127
2, 83072, Note_on_c, 0, 75, 0
2, 83072, Note_on_c, 0, 72, 127
2, 83136, Note_on_c, 0, 72, 0
2, 83136, Note_on_c, 0, 73, 127
2, 83200, Note_on_c, 0, 73, 0
2, 83200, Note_on_c, 0, 77, 127
2, 83264, Note_on_c, 0, 77, 0
2, 83264, Note_on_c, 0, 76, 127
2, 83328, Note_on_c, 0, 76, 0
2, 83328, Note_on_c, 0, 77, 127
2, 83392, Note_on_c, 0, 77, 0
2, 83392, Note_on_c, 0, 79, 127
2, 83456, Note_on_c, 0, 79, 0
2, 83456, Note_on_c, 0, 80, 127
2, 83520, Note_on_c, 0, 80, 0
2, 83520, Note_on_c, 0, 79, 127
2, 83584, Note_on_c, 0, 79, 0
2, 83584, Note_on_c, 0, 76, 127
2, 83648, Note_on_c, 0, 76, 0
2, 83648, Note_on_c, 0, 77, 127
2, 83712, Note_on_c, 0, 77, 0
2, 83712, Note_on_c, 0, 82, 127
2, 83776, Note_on_c, 0, 82, 0
2, 83776, Note_on_c, 0, 79, 127
2, 83840, Note_on_c, 0, 79, 0
2, 83840, Note_on_c, 0, 77, 127
2, 83904, Note_on_c, 0, 77, 0
2, 83904, Note_on_c, 0, 76, 127
2, 83968, Note_on_c, 0, 76, 0
2, 83968, Note_on_c, 0, 77, 127
2, 84032, Note_on_c, 0, 77, 0
2, 84032, Note_on_c, 0, 79, 127
2, 84096, Note_on_c, 0, 79, 0
2, 84096, Note_on_c, 0, 73, 127
2, 84160, Note_on_c, 0, 73, 0
2, 84160, Note_on_c, 0, 70, 127
2, 84224, Note_on_c, 0, 70, 0
2, 84224, Note_on_c, 0, 72, 127
2, 84288, Note_on_c, 0, 72, 0
2, 84288, Note_on_c, 0, 72, 127
2, 84352, Note_on_c, 0, 72, 0
2, 84352, Note_on_c, 0, 64, 127
2, 84416, Note_on_c, 0, 64, 0
2, 84416, Note_on_c, 0, 65, 127
2, 84480, Note_on_c, 0, 65, 0
2, 84480, Note_on_c, 0, 73, 127
2, 84544, Note_on_c, 0, 73, 0
2, 84544, Note_on_c, 0, 72, 127
2, 84608, Note_on_c, 0, 72, 0
2, 84608, Note_on_c, 0, 70, 127
2, 84672, Note_on_c, 0, 70, 0
2, 84672, Note_on_c, 0, 68, 127
2, 84736, Note_on_c, 0, 68, 0
2, 84736, Note_on_c, 0, 70, 127
2, 84800, Note_on_c, 0, 70, 0
2, 84800, Note_on_c, 0, 67, 127
2, 84864, Note_on_c, 0, 67, 0
2, 84864, Note_on_c, 0, 67, 127
2, 84992, Note_on_c, 0, 67, 0
2, 84992, Note_on_c, 0, 65, 127
2, 85120, Note_on_c, 0, 65, 0
2, 85120, Note_on_c, 0, 68, 127
2, 85184, Note_on_c, 0, 68, 0
2, 85184, Note_on_c, 0, 67, 127
2, 85248, Note_on_c, 0, 67, 0
2, 85248, Note_on_c, 0, 68, 127
2, 85312, Note_on_c, 0, 68, 0
2, 85312, Note_on_c, 0, 70, 127
2, 85376, Note_on_c, 0, 70, 0
2, 85376, Note_on_c, 0, 72, 127
2, 85440, Note_on_c, 0, 72, 0
2, 85440, Note_on_c, 0, 62, 127
2, 85504, Note_on_c, 0, 62, 0
2, 85504, Note_on_c, 0, 63, 127
2, 85568, Note_on_c, 0, 63, 0
2, 85568, Note_on_c, 0, 65, 127
2, 85632, Note_on_c, 0, 65, 0
2, 85632, Note_on_c, 0, 58, 127
2, 85696, Note_on_c, 0, 58, 0
2, 85696, Note_on_c, 0, 62, 127
2, 85760, Note_on_c, 0, 62, 0
2, 85760, Note_on_c, 0, 65, 127
2, 85824, Note_on_c, 0, 65, 0
2, 85824, Note_on_c, 0, 68, 127
2, 85888, Note_on_c, 0, 68, 0
2, 85888, Note_on_c, 0, 67, 127
2, 85952, Note_on_c, 0, 67, 0
2, 85952, Note_on_c, 0, 65, 127
2, 86016, Note_on_c, 0, 65, 0
2, 86016, Note_on_c, 0, 67, 127
2, 86080, Note_on_c, 0, 67, 0
2, 86080, Note_on_c, 0, 68, 127
2, 86144, Note_on_c, 0, 68, 0
2, 86144, Note_on_c, 0, 70, 127
2, 86208, Note_on_c, 0, 70, 0
2, 86208, Note_on_c, 0, 63, 127
2, 86272, Note_on_c, 0, 63, 0
2, 86272, Note_on_c, 0, 67, 127
2, 86336, Note_on_c, 0, 67, 0
2, 86336, Note_on_c, 0, 70, 127
2, 86400, Note_on_c, 0, 70, 0
2, 86400, Note_on_c, 0, 73, 127
2, 86464, Note_on_c, 0, 73, 0
2, 86464, Note_on_c, 0, 72, 127
2, 86528, Note_on_c, 0, 72, 0
2, 86528, Note_on_c, 0, 70, 127
2, 86592, Note_on_c, 0, 70, 0
2, 86592, Note_on_c, 0, 72, 127
2, 86656, Note_on_c, 0, 72, 0
2, 86656, Note_on_c, 0, 77, 127
2, 86720, Note_on_c, 0, 77, 0
2, 86720, Note_on_c, 0, 76, 127
2, 86784, Note_on_c, 0, 76, 0
2, 86784, Note_on_c, 0, 77, 127
2, 86848, Note_on_c, 0, 77, 0
2, 86848, Note_on_c, 0, 79, 127
2, 86912, Note_on_c, 0, 79, 0
2, 86912, Note_on_c, 0, 80, 127
2, 86976, Note_on_c, 0, 80, 0
2, 86976, Note_on_c, 0, 72, 127
2, 87040, Note_on_c, 0, 72, 0
2, 87040, Note_on_c, 0, 74, 127
2, 87104, Note_on_c, 0, 74, 0
2, 87104, Note_on_c, 0, 75, 127
2, 87168, Note_on_c, 0, 75, 0
2, 87168, Note_on_c, 0, 75, 127
2, 87232, Note_on_c, 0, 75, 0
2, 87232, Note_on_c, 0, 72, 127
2, 87296, Note_on_c, 0, 72, 0
2, 87296, Note_on_c, 0, 74, 127
2, 87360, Note_on_c, 0, 74, 0
2, 87360, Note_on_c, 0, 80, 127
2, 87424, Note_on_c, 0, 80, 0
2, 87424, Note_on_c, 0, 79, 127
2, 87488, Note_on_c, 0, 79, 0
2, 87488, Note_on_c, 0, 77, 127
2, 87552, Note_on_c, 0, 77, 0
2, 87552, Note_on_c, 0, 84, 127
2, 87616, Note_on_c, 0, 84, 0
2, 87616, Note_on_c, 0, 82, 127
2, 87680, Note_on_c, 0, 82, 0
2, 87680, Note_on_c, 0, 80, 127
2, 87744, Note_on_c, 0, 80, 0
2, 87744, Note_on_c, 0, 79, 127
2, 87808, Note_on_c, 0, 79, 0
2, 87808, Note_on_c, 0, 74, 127
2, 87872, Note_on_c, 0, 74, 0
2, 87872, Note_on_c, 0, 75, 127
2, 87936, Note_on_c, 0, 75, 0
2, 87936, Note_on_c, 0, 70, 127
2, 88000, Note_on_c, 0, 70, 0
2, 88000, Note_on_c, 0, 72, 127
2, 88064, Note_on_c, 0, 72, 0
2, 88064, Note_on_c, 0, 73, 127
2, 88128, Note_on_c, 0, 73, 0
2, 88128, Note_on_c, 0, 67, 127
2, 88160, Note_on_c, 0, 67, 0
2, 88160, Note_on_c, 0, 68, 127
2, 88192, Note_on_c, 0, 68, 0
2, 88192, Note_on_c, 0, 70, 127
2, 88256, Note_on_c, 0, 70, 0
2, 88256, Note_on_c, 0, 61, 127
2, 88320, Note_on_c, 0, 61, 0
2, 88320, Note_on_c, 0, 60, 127
2, 88384, Note_on_c, 0, 60, 0
2, 88384, Note_on_c, 0, 55, 127
2, 88448, Note_on_c, 0, 55, 0
2, 88448, Note_on_c, 0, 56, 127
2, 88512, Note_on_c, 0, 56, 0
2, 88512, Note_on_c, 0, 53, 127
2, 88576, Note_on_c, 0, 53, 0
2, 88576, Note_on_c, 0, 63, 127
2, 88640, Note_on_c, 0, 63, 0
2, 88640, Note_on_c, 0, 62, 127
2, 88704, Note_on_c, 0, 62, 0
2, 88704, Note_on_c, 0, 63, 127
2, 88768, Note_on_c, 0, 63, 0
2, 88768, Note_on_c, 0, 58, 127
2, 88832, Note_on_c, 0, 58, 0
2, 88832, Note_on_c, 0, 60, 127
2, 88896, Note_on_c, 0, 60, 0
2, 88896, Note_on_c, 0, 56, 127
2, 88960, Note_on_c, 0, 56, 0
2, 88960, Note_on_c, 0, 67, 127
2, 89024, Note_on_c, 0, 67, 0
2, 89024, Note_on_c, 0, 65, 127
2, 89088, Note_on_c, 0, 65, 0
2, 89088, Note_on_c, 0, 67, 127
2, 89152, Note_on_c, 0, 67, 0
2, 89152, Note_on_c, 0, 68, 127
2, 89216, Note_on_c, 0, 68, 0
2, 89216, Note_on_c, 0, 70, 127
2, 89280, Note_on_c, 0, 70, 0
2, 89280, Note_on_c, 0, 58, 127
2, 89344, Note_on_c, 0, 58, 0
2, 89344, Note_on_c, 0, 63, 127
2, 89408, Note_on_c, 0, 63, 0
2, 89408, Note_on_c, 0, 62, 127
2, 89472, Note_on_c, 0, 62, 0
2, 89472, Note_on_c, 0, 63, 127
2, 89536, Note_on_c, 0, 63, 0
2, 89952, Note_on_c, 0, 74, 127
2, 90048, Note_on_c, 0, 74, 0
2, 90048, Note_on_c, 0, 74, 127
2, 90304, Note_on_c, 0, 74, 0
2, 90304, Note_on_c, 0, 77, 127
2, 90368, Note_on_c, 0, 77, 0
2, 90368, Note_on_c, 0, 75, 127
2, 90432, Note_on_c, 0, 75, 0
2, 90432, Note_on_c, 0, 74, 127
2, 90496, Note_on_c, 0, 74, 0
2, 90496, Note_on_c, 0, 72, 127
2, 90560, Note_on_c, 0, 72, 0
2, 90560, Note_on_c, 0, 70, 127
2, 90624, Note_on_c, 0, 70, 0
2, 90624, Note_on_c, 0, 80, 127
2, 90688, Note_on_c, 0, 80, 0
2, 90688, Note_on_c, 0, 77, 127
2, 90752, Note_on_c, 0, 77, 0
2, 90752, Note_on_c, 0, 79, 127
2, 90816, Note_on_c, 0, 79, 0
2, 90816, Note_on_c, 0, 72, 127
2, 90848, Note_on_c, 0, 72, 0
2, 90848, Note_on_c, 0, 71, 127
2, 90880, Note_on_c, 0, 71, 0
2, 90880, Note_on_c, 0, 72, 127
2, 90912, Note_on_c, 0, 72, 0
2, 90912, Note_on_c, 0, 71, 127
2, 90944, Note_on_c, 0, 71, 0
2, 90944, Note_on_c, 0, 72, 127
2, 90976, Note_on_c, 0, 72, 0
2, 90976, Note_on_c, 0, 71, 127
2, 91072, Note_on_c, 0, 71, 0
2, 91072, Note_on_c, 0, 72, 127
2, 91136, Note_on_c, 0, 72, 0
2, 91136, Note_on_c, 0, 74, 127
2, 91200, Note_on_c, 0, 74, 0
2, 91200, Note_on_c, 0, 72, 127
2, 91264, Note_on_c, 0, 72, 0
2, 91264, Note_on_c, 0, 70, 127
2, 91328, Note_on_c, 0, 70, 0
2, 91328, Note_on_c, 0, 68, 127
2, 91392, Note_on_c, 0, 68, 0
2, 91392, Note_on_c, 0, 67, 127
2, 91456, Note_on_c, 0, 67, 0
2, 91456, Note_on_c, 0, 65, 127
2, 91520, Note_on_c, 0, 65, 0
2, 91520, Note_on_c, 0, 63, 127
2, 91584, Note_on_c, 0, 63, 0
2, 91584, Note_on_c, 0, 62, 127
2, 91648, Note_on_c, 0, 62, 0
2, 91648, Note_on_c, 0, 63, 127
2, 91712, Note_on_c, 0, 63, 0
2, 91712, Note_on_c, 0, 65, 127
2, 91776, Note_on_c, 0, 65, 0
2, 91776, Note_on_c, 0, 65, 127
2, 91840, Note_on_c, 0, 65, 0
2, 91840, Note_on_c, 0, 62, 127
2, 91904, Note_on_c, 0, 62, 0
2, 91904, Note_on_c, 0, 63, 127
2, 91968, Note_on_c, 0, 63, 0
2, 91968, Note_on_c, 0, 60, 127
2, 92032, Note_on_c, 0, 60, 0
2, 92032, Note_on_c, 0, 63, 127
2, 92096, Note_on_c, 0, 63, 0
2, 92096, Note_on_c, 0, 67, 127
2, 92160, Note_on_c, 0, 67, 0
2, 92160, Note_on_c, 0, 72, 127
2, 92224, Note_on_c, 0, 72, 0
2, 92224, Note_on_c, 0, 75, 127
2, 92288, Note_on_c, 0, 75, 0
2, 92288, Note_on_c, 0, 74, 127
2, 92352, Note_on_c, 0, 74, 0
2, 92352, Note_on_c, 0, 74, 127
2, 92480, Note_on_c, 0, 74, 0
2, 92480, Note_on_c, 0, 75, 127
2, 92608, Note_on_c, 0, 75, 0
2, 92608, Note_on_c, 0, 77, 127
2, 92672, Note_on_c, 0, 77, 0
2, 92672, Note_on_c, 0, 75, 127
2, 92736, Note_on_c, 0, 75, 0
2, 92736, Note_on_c, 0, 73, 127
2, 92800, Note_on_c, 0, 73, 0
2, 92800, Note_on_c, 0, 72, 127
2, 92864, Note_on_c, 0, 72, 0
2, 92864, Note_on_c, 0, 70, 127
2, 92928, Note_on_c, 0, 70, 0
2, 92928, Note_on_c, 0, 72, 127
2, 92992, Note_on_c, 0, 72, 0
2, 92992, Note_on_c, 0, 68, 127
2, 93056, Note_on_c, 0, 68, 0
2, 93056, Note_on_c, 0, 70, 127
2, 93120, Note_on_c, 0, 70, 0
2, 93120, Note_on_c, 0, 72, 127
2, 93184, Note_on_c, 0, 72, 0
2, 93184, Note_on_c, 0, 67, 127
2, 93248, Note_on_c, 0, 67, 0
2, 93248, Note_on_c, 0, 68, 127
2, 93312, Note_on_c, 0, 68, 0
2, 93312, Note_on_c, 0, 64, 127
2, 93376, Note_on_c, 0, 64, 0
2, 93376, Note_on_c, 0, 65, 127
2, 93440, Note_on_c, 0, 65, 0
2, 93440, Note_on_c, 0, 60, 127
2, 93504, Note_on_c, 0, 60, 0
2, 93504, Note_on_c, 0, 61, 127
2, 93568, Note_on_c, 0, 61, 0
2, 93568, Note_on_c, 0, 64, 127
2, 93632, Note_on_c, 0, 64, 0
2, 93632, Note_on_c, 0, 67, 127
2, 93696, Note_on_c, 0, 67, 0
2, 93696, Note_on_c, 0, 70, 127
2, 93760, Note_on_c, 0, 70, 0
2, 93760, Note_on_c, 0, 68, 127
2, 93824, Note_on_c, 0, 68, 0
2, 93824, Note_on_c, 0, 67, 127
2, 93888, Note_on_c, 0, 67, 0
2, 93888, Note_on_c, 0, 73, 127
2, 93952, Note_on_c, 0, 73, 0
2, 93952, Note_on_c, 0, 72, 127
2, 94016, Note_on_c, 0, 72, 0
2, 94016, Note_on_c, 0, 70, 127
2, 94080, Note_on_c, 0, 70, 0
2, 94080, Note_on_c, 0, 68, 127
2, 94144, Note_on_c, 0, 68, 0
2, 94144, Note_on_c, 0, 65, 127
2, 94208, Note_on_c, 0, 65, 0
2, 94208, Note_on_c, 0, 67, 127
2, 94272, Note_on_c, 0, 67, 0
2, 94272, Note_on_c, 0, 68, 127
2, 94336, Note_on_c, 0, 68, 0
2, 94336, Note_on_c, 0, 70, 127
2, 94400, Note_on_c, 0, 70, 0
2, 94400, Note_on_c, 0, 72, 127
2, 94464, Note_on_c, 0, 72, 0
2, 94464, Note_on_c, 0, 73, 127
2, 94528, Note_on_c, 0, 73, 0
2, 94528, Note_on_c, 0, 75, 127
2, 94592, Note_on_c, 0, 75, 0
2, 94592, Note_on_c, 0, 72, 127
2, 94656, Note_on_c, 0, 72, 0
2, 94656, Note_on_c, 0, 73, 127
2, 94720, Note_on_c, 0, 73, 0
2, 94720, Note_on_c, 0, 77, 127
2, 94784, Note_on_c, 0, 77, 0
2, 94784, Note_on_c, 0, 76, 127
2, 94848, Note_on_c, 0, 76, 0
2, 94848, Note_on_c, 0, 77, 127
2, 94912, Note_on_c, 0, 77, 0
2, 94912, Note_on_c, 0, 79, 127
2, 94976, Note_on_c, 0, 79, 0
2, 94976, Note_on_c, 0, 80, 127
2, 95040, Note_on_c, 0, 80, 0
2, 95040, Note_on_c, 0, 79, 127
2, 95104, Note_on_c, 0, 79, 0
2, 95104, Note_on_c, 0, 76, 127
2, 95168, Note_on_c, 0, 76, 0
2, 95168, Note_on_c, 0, 77, 127
2, 95232, Note_on_c, 0, 77, 0
2, 95232, Note_on_c, 0, 82, 127
2, 95296, Note_on_c, 0, 82, 0
2, 95296, Note_on_c, 0, 79, 127
2, 95360, Note_on_c, 0, 79, 0
2, 95360, Note_on_c, 0, 77, 127
2, 95424, Note_on_c, 0, 77, 0
2, 95424, Note_on_c, 0, 76, 127
2, 95488, Note_on_c, 0, 76, 0
2, 95488, Note_on_c, 0, 77, 127
2, 95552, Note_on_c, 0, 77, 0
2, 95552, Note_on_c, 0, 79, 127
2, 95616, Note_on_c, 0, 79, 0
2, 95616, Note_on_c, 0, 73, 127
2, 95680, Note_on_c, 0, 73, 0
2, 95680, Note_on_c, 0, 70, 127
2, 95744, Note_on_c, 0, 70, 0
2, 95744, Note_on_c, 0, 72, 127
2, 95808, Note_on_c, 0, 72, 0
2, 95808, Note_on_c, 0, 72, 127
2, 95872, Note_on_c, 0, 72, 0
2, 95872, Note_on_c, 0, 64, 127
2, 95936, Note_on_c, 0, 64, 0
2, 95936, Note_on_c, 0, 65, 127
2, 96000, Note_on_c, 0, 65, 0
2, 96000, Note_on_c, 0, 73, 127
2, 96064, Note_on_c, 0, 73, 0
2, 96064, Note_on_c, 0, 72, 127
2, 96128, Note_on_c, 0, 72, 0
2, 96128, Note_on_c, 0, 70, 127
2, 96192, Note_on_c, 0, 70, 0
2, 96192, Note_on_c, 0, 68, 127
2, 96256, Note_on_c, 0, 68, 0
2, 96256, Note_on_c, 0, 70, 127
2, 96320, Note_on_c, 0, 70, 0
2, 96320, Note_on_c, 0, 67, 127
2, 96384, Note_on_c, 0, 67, 0
2, 96384, Note_on_c, 0, 67, 127
2, 96512, Note_on_c, 0, 67, 0
2, 96512, Note_on_c, 0, 65, 127
2, 96640, Note_on_c, 0, 65, 0
2, 96640, Note_on_c, 0, 68, 127
2, 96704, Note_on_c, 0, 68, 0
2, 96704, Note_on_c, 0, 67, 127
2, 96768, Note_on_c, 0, 67, 0
2, 96768, Note_on_c, 0, 68, 127
2, 96832, Note_on_c, 0, 68, 0
2, 96832, Note_on_c, 0, 70, 127
2, 96896, Note_on_c, 0, 70, 0
2, 96896, Note_on_c, 0, 72, 127
2, 96960, Note_on_c, 0, 72, 0
2, 96960, Note_on_c, 0, 62, 127
2, 97024, Note_on_c, 0, 62, 0
2, 97024, Note_on_c, 0, 63, 127
2, 97088, Note_on_c, 0, 63, 0
2, 97088, Note_on_c, 0, 65, 127
2, 97152, Note_on_c, 0, 65, 0
2, 97152, Note_on_c, 0, 58, 127
2, 97216, Note_on_c, 0, 58, 0
2, 97216, Note_on_c, 0, 62, 127
2, 97280, Note_on_c, 0, 62, 0
2, 97280, Note_on_c, 0, 65, 127
2, 97344, Note_on_c, 0, 65, 0
2, 97344, Note_on_c, 0, 68, 127
2, 97408, Note_on_c, 0, 68, 0
2, 97408, Note_on_c, 0, 67, 127
2, 97472, Note_on_c, 0, 67, 0
2, 97472, Note_on_c, 0, 65, 127
2, 97536, Note_on_c, 0, 65, 0
2, 97536, Note_on_c, 0, 67, 127
2, 97600, Note_on_c, 0, 67, 0
2, 97600, Note_on_c, 0, 68, 127
2, 97664, Note_on_c, 0, 68, 0
2, 97664, Note_on_c, 0, 70, 127
2, 97728, Note_on_c, 0, 70, 0
2, 97728, Note_on_c, 0, 63, 127
2, 97792, Note_on_c, 0, 63, 0
2, 97792, Note_on_c, 0, 67, 127
2, 97856, Note_on_c, 0, 67, 0
2, 97856, Note_on_c, 0, 70, 127
2, 97920, Note_on_c, 0, 70, 0
2, 97920, Note_on_c, 0, 73, 127
2, 97984, Note_on_c, 0, 73, 0
2, 97984, Note_on_c, 0, 72, 127
2, 98048, Note_on_c, 0, 72, 0
2, 98048, Note_on_c, 0, 70, 127
2, 98112, Note_on_c, 0, 70, 0
2, 98112, Note_on_c, 0, 72, 127
2, 98176, Note_on_c, 0, 72, 0
2, 98176, Note_on_c, 0, 77, 127
2, 98240, Note_on_c, 0, 77, 0
2, 98240, Note_on_c, 0, 76, 127
2, 98304, Note_on_c, 0, 76, 0
2, 98304, Note_on_c, 0, 77, 127
2, 98368, Note_on_c, 0, 77, 0
2, 98368, Note_on_c, 0, 79, 127
2, 98432, Note_on_c, 0, 79, 0
2, 98432, Note_on_c, 0, 80, 127
2, 98496, Note_on_c, 0, 80, 0
2, 98496, Note_on_c, 0, 72, 127
2, 98560, Note_on_c, 0, 72, 0
2, 98560, Note_on_c, 0, 74, 127
2, 98624, Note_on_c, 0, 74, 0
2, 98624, Note_on_c, 0, 75, 127
2, 98688, Note_on_c, 0, 75, 0
2, 98688, Note_on_c, 0, 75, 127
2, 98752, Note_on_c, 0, 75, 0
2, 98752, Note_on_c, 0, 72, 127
2, 98816, Note_on_c, 0, 72, 0
2, 98816, Note_on_c, 0, 74, 127
2, 98880, Note_on_c, 0, 74, 0
2, 98880, Note_on_c, 0, 80, 127
2, 98944, Note_on_c, 0, 80, 0
2, 98944, Note_on_c, 0, 79, 127
2, 99008, Note_on_c, 0, 79, 0
2, 99008, Note_on_c, 0, 77, 127
2, 99072, Note_on_c, 0, 77, 0
2, 99072, Note_on_c, 0, 84, 127
2, 99136, Note_on_c, 0, 84, 0
2, 99136, Note_on_c, 0, 82, 127
2, 99200, Note_on_c, 0, 82, 0
2, 99200, Note_on_c, 0, 80, 127
2, 99264, Note_on_c, 0, 80, 0
2, 99264, Note_on_c, 0, 79, 127
2, 99328, Note_on_c, 0, 79, 0
2, 99328, Note_on_c, 0, 74, 127
2, 99392, Note_on_c, 0, 74, 0
2, 99392, Note_on_c, 0, 75, 127
2, 99456, Note_on_c, 0, 75, 0
2, 99456, Note_on_c, 0, 70, 127
2, 99520, Note_on_c, 0, 70, 0
2, 99520, Note_on_c, 0, 72, 127
2, 99584, Note_on_c, 0, 72, 0
2, 99584, Note_on_c, 0, 73, 127
2, 99648, Note_on_c, 0, 73, 0
2, 99648, Note_on_c, 0, 67, 127
2, 99680, Note_on_c, 0, 67, 0
2, 99680, Note_on_c, 0, 68, 127
2, 99712, Note_on_c, 0, 68, 0
2, 99712, Note_on_c, 0, 70, 127
2, 99776, Note_on_c, 0, 70, 0
2, 99776, Note_on_c, 0, 61, 127
2, 99840, Note_on_c, 0, 61, 0
2, 99840, Note_on_c, 0, 60, 127
2, 99904, Note_on_c, 0, 60, 0
2, 99904, Note_on_c, 0, 55, 127
2, 99968, Note_on_c, 0, 55, 0
2, 99968, Note_on_c, 0, 56, 127
2, 100032, Note_on_c, 0, 56, 0
2, 100032, Note_on_c, 0, 53, 127
2, 100096, Note_on_c, 0, 53, 0
2, 100096, Note_on_c, 0, 63, 127
2, 100160, Note_on_c, 0, 63, 0
2, 100160, Note_on_c, 0, 62, 127
2, 100224, Note_on_c, 0, 62, 0
2, 100224, Note_on_c, 0, 63, 127
2, 100288, Note_on_c, 0, 63, 0
2, 100288, Note_on_c, 0, 58, 127
2, 100352, Note_on_c, 0, 58, 0
2, 100352, Note_on_c, 0, 60, 127
2, 100416, Note_on_c, 0, 60, 0
2, 100416, Note_on_c, 0, 56, 127
2, 100480, Note_on_c, 0, 56, 0
2, 100480, Note_on_c, 0, 67, 127
2, 100544, Note_on_c, 0, 67, 0
2, 100544, Note_on_c, 0, 65, 127
2, 100608, Note_on_c, 0, 65, 0
2, 100608, Note_on_c, 0, 67, 127
2, 100672, Note_on_c, 0, 67, 0
2, 100672, Note_on_c, 0, 68, 127
2, 100736, Note_on_c, 0, 68, 0
2, 100736, Note_on_c, 0, 70, 127
2, 100800, Note_on_c, 0, 70, 0
2, 100800, Note_on_c, 0, 58, 127
2, 100864, Note_on_c, 0, 58, 0
2, 100864, Note_on_c, 0, 63, 127
2, 100928, Note_on_c, 0, 63, 0
2, 100928, Note_on_c, 0, 62, 127
2, 100992, Note_on_c, 0, 62, 0
2, 100992, Note_on_c, 0, 63, 127
2, 101056, Note_on_c, 0, 63, 0
2, 101856, Note_on_c, 0, 67, 127
2, 101952, Note_on_c, 0, 67, 0
2, 101952, Note_on_c, 0, 68, 127
2, 102000, Note_on_c, 0, 68, 0
2, 102000, Note_on_c, 0, 70, 127
2, 102048, Note_on_c, 0, 70, 0
2, 102048, Note_on_c, 0, 70, 127
2, 102072, Note_on_c, 0, 70, 0
2, 102072, Note_on_c, 0, 68, 127
2, 102096, Note_on_c, 0, 68, 0
2, 102096, Note_on_c, 0, 70, 127
2, 102432, Note_on_c, 0, 70, 0
2, 102432, Note_on_c, 0, 70, 127
2, 102528, Note_on_c, 0, 70, 0
2, 102528, Note_on_c, 0, 72, 127
2, 102576, Note_on_c, 0, 72, 0
2, 102576, Note_on_c, 0, 73, 127
2, 102624, Note_on_c, 0, 73, 0
2, 102624, Note_on_c, 0, 67, 127
2, 102648, Note_on_c, 0, 70, 127
2, 102672, Note_on_c, 0, 73, 127
2, 103008, Note_on_c, 0, 73, 0
2, 103008, Note_on_c, 0, 70, 0
2, 103008, Note_on_c, 0, 67, 0
2, 103008, Note_on_c, 0, 74, 127
2, 103024, Note_on_c, 0, 74, 0
2, 103024, Note_on_c, 0, 72, 127
2, 103040, Note_on_c, 0, 72, 0
2, 103040, Note_on_c, 0, 74, 127
2, 103056, Note_on_c, 0, 74, 0
2, 103056, Note_on_c, 0, 72, 127
2, 103104, Note_on_c, 0, 72, 0
2, 103104, Note_on_c, 0, 70, 127
2, 103200, Note_on_c, 0, 70, 0
2, 103200, Note_on_c, 0, 68, 127
2, 103296, Note_on_c, 0, 68, 0
2, 103296, Note_on_c, 0, 67, 127
2, 103392, Note_on_c, 0, 67, 0
2, 103392, Note_on_c, 0, 65, 127
2, 103488, Note_on_c, 0, 65, 0
2, 103488, Note_on_c, 0, 63, 127
2, 103584, Note_on_c, 0, 63, 0
2, 103584, Note_on_c, 0, 62, 127
2, 103680, Note_on_c, 0, 62, 0
2, 103680, Note_on_c, 0, 65, 127
2, 103776, Note_on_c, 0, 65, 0
2, 103776, Note_on_c, 0, 68, 127
2, 103872, Note_on_c, 0, 68, 0
2, 103872, Note_on_c, 0, 72, 127
2, 103968, Note_on_c, 0, 72, 0
2, 103968, Note_on_c, 0, 70, 127
2, 104064, Note_on_c, 0, 70, 0
2, 104064, Note_on_c, 0, 68, 127
2, 104160, Note_on_c, 0, 68, 0
2, 104160, Note_on_c, 0, 67, 127
2, 104256, Note_on_c, 0, 67, 0
2, 104256, Note_on_c, 0, 69, 127
2, 104304, Note_on_c, 0, 69, 0
2, 104304, Note_on_c, 0, 70, 127
2, 104352, Note_on_c, 0, 70, 0
2, 104352, Note_on_c, 0, 70, 127
2, 104448, Note_on_c, 0, 70, 0
2, 104448, Note_on_c, 0, 69, 127
2, 104472, Note_on_c, 0, 69, 0
2, 104472, Note_on_c, 0, 70, 127
2, 104496, Note_on_c, 0, 70, 0
2, 104496, Note_on_c, 0, 69, 127
2, 104520, Note_on_c, 0, 69, 0
2, 104520, Note_on_c, 0, 70, 127
2, 104544, Note_on_c, 0, 70, 0
2, 104544, Note_on_c, 0, 69, 127
2, 104640, Note_on_c, 0, 69, 0
2, 104640, Note_on_c, 0, 70, 127
2, 104736, Note_on_c, 0, 70, 0
2, 104736, Note_on_c, 0, 72, 127
2, 104832, Note_on_c, 0, 72, 0
2, 104832, Note_on_c, 0, 74, 127
2, 104880, Note_on_c, 0, 74, 0
2, 104880, Note_on_c, 0, 75, 127
2, 104928, Note_on_c, 0, 75, 0
2, 104928, Note_on_c, 0, 65, 127
2, 105216, Note_on_c, 0, 65, 0
2, 105216, Note_on_c, 0, 63, 127
2, 105312, Note_on_c, 0, 63, 0
2, 105312, Note_on_c, 0, 62, 127
2, 105360, Note_on_c, 0, 62, 0
2, 105360, Note_on_c, 0, 63, 127
2, 105408, Note_on_c, 0, 63, 0
2, 105408, Note_on_c, 0, 65, 127
2, 105456, Note_on_c, 0, 65, 0
2, 105456, Note_on_c, 0, 70, 127
2, 105504, Note_on_c, 0, 70, 0
2, 105504, Note_on_c, 0, 67, 127
2, 105552, Note_on_c, 0, 67, 0
2, 105552, Note_on_c, 0, 69, 127
2, 105600, Note_on_c, 0, 69, 0
2, 105600, Note_on_c, 0, 70, 127
2, 105648, Note_on_c, 0, 70, 0
2, 105648, Note_on_c, 0, 75, 127
2, 105696, Note_on_c, 0, 75, 0
2, 105696, Note_on_c, 0, 74, 127
2, 105744, Note_on_c, 0, 74, 0
2, 105744, Note_on_c, 0, 72, 127
2, 105792, Note_on_c, 0, 72, 0
2, 105792, Note_on_c, 0, 70, 127
2, 105840, Note_on_c, 0, 70, 0
2, 105840, Note_on_c, 0, 69, 127
2, 105888, Note_on_c, 0, 69, 0
2, 105888, Note_on_c, 0, 70, 127
2, 105936, Note_on_c, 0, 70, 0
2, 105936, Note_on_c, 0, 65, 127
2, 105984, Note_on_c, 0, 65, 0
2, 105984, Note_on_c, 0, 67, 127
2, 106032, Note_on_c, 0, 67, 0
2, 106032, Note_on_c, 0, 63, 127
2, 106080, Note_on_c, 0, 63, 0
2, 106080, Note_on_c, 0, 62, 127
2, 106128, Note_on_c, 0, 63, 127
2, 106176, Note_on_c, 0, 63, 0
2, 106176, Note_on_c, 0, 65, 127
2, 106224, Note_on_c, 0, 70, 127
2, 106464, Note_on_c, 0, 70, 0
2, 106464, Note_on_c, 0, 65, 0
2, 106464, Note_on_c, 0, 62, 0
2, 106464, Note_on_c, 0, 67, 127
2, 106560, Note_on_c, 0, 67, 0
2, 106560, Note_on_c, 0, 68, 127
2, 106608, Note_on_c, 0, 68, 0
2, 106608, Note_on_c, 0, 70, 127
2, 106656, Note_on_c, 0, 70, 0
2, 106656, Note_on_c, 0, 70, 127
2, 106680, Note_on_c, 0, 70, 0
2, 106680, Note_on_c, 0, 68, 127
2, 106704, Note_on_c, 0, 68, 0
2, 106704, Note_on_c, 0, 70, 127
2, 107040, Note_on_c, 0, 70, 0
2, 107040, Note_on_c, 0, 70, 127
2, 107136, Note_on_c, 0, 70, 0
2, 107136, Note_on_c, 0, 72, 127
2, 107184, Note_on_c, 0, 72, 0
2, 107184, Note_on_c, 0, 73, 127
2, 107232, Note_on_c, 0, 73, 0
2, 107232, Note_on_c, 0, 67, 127
2, 107256, Note_on_c, 0, 70, 127
2, 107280, Note_on_c, 0, 73, 127
2, 107616, Note_on_c, 0, 73, 0
2, 107616, Note_on_c, 0, 70, 0
2, 107616, Note_on_c, 0, 67, 0
2, 107616, Note_on_c, 0, 74, 127
2, 107632, Note_on_c, 0, 74, 0
2, 107632, Note_on_c, 0, 72, 127
2, 107648, Note_on_c, 0, 72, 0
2, 107648, Note_on_c, 0, 74, 127
2, 107664, Note_on_c, 0, 74, 0
2, 107664, Note_on_c, 0, 72, 127
2, 107712, Note_on_c, 0, 72, 0
2, 107712, Note_on_c, 0, 70, 127
2, 107808, Note_on_c, 0, 70, 0
2, 107808, Note_on_c, 0, 68, 127
2, 107904, Note_on_c, 0, 68, 0
2, 107904, Note_on_c, 0, 67, 127
2, 108000, Note_on_c, 0, 67, 0
2, 108000, Note_on_c, 0, 65, 127
2, 108096, Note_on_c, 0, 65, 0
2, 108096, Note_on_c, 0, 63, 127
2, 108192, Note_on_c, 0, 63, 0
2, 108192, Note_on_c, 0, 62, 127
2, 108288, Note_on_c, 0, 62, 0
2, 108288, Note_on_c, 0, 65, 127
2, 108384, Note_on_c, 0, 65, 0
2, 108384, Note_on_c, 0, 68, 127
2, 108480, Note_on_c, 0, 68, 0
2, 108480, Note_on_c, 0, 72, 127
2, 108576, Note_on_c, 0, 72, 0
2, 108576, Note_on_c, 0, 70, 127
2, 108672, Note_on_c, 0, 70, 0
2, 108672, Note_on_c, 0, 68, 127
2, 108768, Note_on_c, 0, 68, 0
2, 108768, Note_on_c, 0, 67, 127
2, 108864, Note_on_c, 0, 67, 0
2, 108864, Note_on_c, 0, 69, 127
2, 108912, Note_on_c, 0, 69, 0
2, 108912, Note_on_c, 0, 70, 127
2, 108960, Note_on_c, 0, 70, 0
2, 108960, Note_on_c, 0, 70, 127
2, 109056, Note_on_c, 0, 70, 0
2, 109056, Note_on_c, 0, 69, 127
2, 109080, Note_on_c, 0, 69, 0
2, 109080, Note_on_c, 0, 70, 127
2, 109104, Note_on_c, 0, 70, 0
2, 109104, Note_on_c, 0, 69, 127
2, 109128, Note_on_c, 0, 69, 0
2, 109128, Note_on_c, 0, 70, 127
2, 109152, Note_on_c, 0, 70, 0
2, 109152, Note_on_c, 0, 69, 127
2, 109248, Note_on_c, 0, 69, 0
2, 109248, Note_on_c, 0, 70, 127
2, 109344, Note_on_c, 0, 70, 0
2, 109344, Note_on_c, 0, 72, 127
2, 109440, Note_on_c, 0, 72, 0
2, 109440, Note_on_c, 0, 74, 127
2, 109488, Note_on_c, 0, 74, 0
2, 109488, Note_on_c, 0, 75, 127
2, 109536, Note_on_c, 0, 75, 0
2, 109536, Note_on_c, 0, 65, 127
2, 109824, Note_on_c, 0, 65, 0
2, 109824, Note_on_c, 0, 63, 127
2, 109920, Note_on_c, 0, 63, 0
2, 109920, Note_on_c, 0, 62, 127
2, 109968, Note_on_c, 0, 62, 0
2, 109968, Note_on_c, 0, 63, 127
2, 110016, Note_on_c, 0, 63, 0
2, 110016, Note_on_c, 0, 65, 127
2, 110064, Note_on_c, 0, 65, 0
2, 110064, Note_on_c, 0, 70, 127
2, 110112, Note_on_c, 0, 70, 0
2, 110112, Note_on_c, 0, 67, 127
2, 110160, Note_on_c, 0, 67, 0
2, 110160, Note_on_c, 0, 69, 127
2, 110208, Note_on_c, 0, 69, 0
2, 110208, Note_on_c, 0, 70, 127
2, 110256, Note_on_c, 0, 70, 0
2, 110256, Note_on_c, 0, 75, 127
2, 110304, Note_on_c, 0, 75, 0
2, 110304, Note_on_c, 0, 74, 127
2, 110352, Note_on_c, 0, 74, 0
2, 110352, Note_on_c, 0, 72, 127
2, 110400, Note_on_c, 0, 72, 0
2, 110400, Note_on_c, 0, 70, 127
2, 110448, Note_on_c, 0, 70, 0
2, 110448, Note_on_c, 0, 69, 127
2, 110496, Note_on_c, 0, 69, 0
2, 110496, Note_on_c, 0, 70, 127
2, 110544, Note_on_c, 0, 70, 0
2, 110544, Note_on_c, 0, 65, 127
2, 110592, Note_on_c, 0, 65, 0
2, 110592, Note_on_c, 0, 67, 127
2, 110640, Note_on_c, 0, 67, 0
2, 110640, Note_on_c, 0, 63, 127
2, 110688, Note_on_c, 0, 63, 0
2, 110688, Note_on_c, 0, 62, 127
2, 110736, Note_on_c, 0, 63, 127
2, 110784, Note_on_c, 0, 63, 0
2, 110784, Note_on_c, 0, 65, 127
2, 110832, Note_on_c, 0, 70, 127
2, 111072, Note_on_c, 0, 70, 0
2, 111072, Note_on_c, 0, 65, 0
2, 111072, Note_on_c, 0, 62, 0
2, 111072, Note_on_c, 0, 74, 127
2, 111168, Note_on_c, 0, 74, 0
2, 111168, Note_on_c, 0, 75, 127
2, 111216, Note_on_c, 0, 75, 0
2, 111216, Note_on_c, 0, 77, 127
2, 111264, Note_on_c, 0, 77, 0
2, 111264, Note_on_c, 0, 77, 127
2, 111648, Note_on_c, 0, 77, 0
2, 111648, Note_on_c, 0, 76, 127
2, 111744, Note_on_c, 0, 76, 0
2, 111744, Note_on_c, 0, 77, 127
2, 111792, Note_on_c, 0, 77, 0
2, 111792, Note_on_c, 0, 79, 127
2, 111840, Note_on_c, 0, 79, 0
2, 111840, Note_on_c, 0, 80, 127
2, 112224, Note_on_c, 0, 80, 0
2, 112224, Note_on_c, 0, 79, 127
2, 112320, Note_on_c, 0, 79, 0
2, 112320, Note_on_c, 0, 80, 127
2, 112368, Note_on_c, 0, 80, 0
2, 112368, Note_on_c, 0, 82, 127
2, 112416, Note_on_c, 0, 82, 0
2, 112416, Note_on_c, 0, 70, 127
2, 112512, Note_on_c, 0, 70, 0
2, 112512, Note_on_c, 0, 80, 127
2, 112560, Note_on_c, 0, 80, 0
2, 112560, Note_on_c, 0, 79, 127
2, 112608, Note_on_c, 0, 79, 0
2, 112608, Note_on_c, 0, 82, 127
2, 112656, Note_on_c, 0, 82, 0
2, 112656, Note_on_c, 0, 80, 127
2, 112704, Note_on_c, 0, 80, 0
2, 112704, Note_on_c, 0, 79, 127
2, 112752, Note_on_c, 0, 79, 0
2, 112752, Note_on_c, 0, 77, 127
2, 112800, Note_on_c, 0, 77, 0
2, 112800, Note_on_c, 0, 79, 127
2, 112896, Note_on_c, 0, 79, 0
2, 112896, Note_on_c, 0, 81, 127
2, 112944, Note_on_c, 0, 81, 0
2, 112944, Note_on_c, 0, 82, 127
2, 112992, Note_on_c, 0, 82, 0
2, 112992, Note_on_c, 0, 75, 127
2, 113016, Note_on_c, 0, 79, 127
2, 113040, Note_on_c, 0, 82, 127
2, 113376, Note_on_c, 0, 82, 0
2, 113376, Note_on_c, 0, 79, 0
2, 113376, Note_on_c, 0, 75, 0
2, 113376, Note_on_c, 0, 80, 127
2, 113472, Note_on_c, 0, 80, 0
2, 113472, Note_on_c, 0, 79, 127
2, 113568, Note_on_c, 0, 79, 0
2, 113568, Note_on_c, 0, 77, 127
2, 113664, Note_on_c, 0, 77, 0
2, 113664, Note_on_c, 0, 75, 127
2, 113760, Note_on_c, 0, 75, 0
2, 113760, Note_on_c, 0, 73, 127
2, 113856, Note_on_c, 0, 73, 0
2, 113856, Note_on_c, 0, 72, 127
2, 113952, Note_on_c, 0, 72, 0
2, 113952, Note_on_c, 0, 70, 127
2, 114048, Note_on_c, 0, 70, 0
2, 114048, Note_on_c, 0, 68, 127
2, 114144, Note_on_c, 0, 68, 0
2, 114144, Note_on_c, 0, 67, 127
2, 114240, Note_on_c, 0, 67, 0
2, 114240, Note_on_c, 0, 65, 127
2, 114336, Note_on_c, 0, 65, 0
2, 114336, Note_on_c, 0, 64, 127
2, 114384, Note_on_c, 0, 64, 0
2, 114384, Note_on_c, 0, 65, 127
2, 114432, Note_on_c, 0, 65, 0
2, 114432, Note_on_c, 0, 67, 127
2, 114480, Note_on_c, 0, 67, 0
2, 114480, Note_on_c, 0, 73, 127
2, 114528, Note_on_c, 0, 73, 0
2, 114528, Note_on_c, 0, 72, 127
2, 114576, Note_on_c, 0, 72, 0
2, 114576, Note_on_c, 0, 70, 127
2, 114624, Note_on_c, 0, 70, 0
2, 114624, Note_on_c, 0, 68, 127
2, 114672, Note_on_c, 0, 68, 0
2, 114672, Note_on_c, 0, 77, 127
2, 114720, Note_on_c, 0, 77, 0
2, 114720, Note_on_c, 0, 76, 127
2, 114768, Note_on_c, 0, 76, 0
2, 114768, Note_on_c, 0, 77, 127
2, 114816, Note_on_c, 0, 77, 0
2, 114816, Note_on_c, 0, 79, 127
2, 114864, Note_on_c, 0, 79, 0
2, 114864, Note_on_c, 0, 82, 127
2, 114912, Note_on_c, 0, 82, 0
2, 114912, Note_on_c, 0, 80, 127
2, 115008, Note_on_c, 0, 80, 0
2, 115008, Note_on_c, 0, 79, 127
2, 115104, Note_on_c, 0, 79, 0
2, 115104, Note_on_c, 0, 77, 127
2, 115296, Note_on_c, 0, 77, 0
2, 115296, Note_on_c, 0, 68, 127
2, 115344, Note_on_c, 0, 70, 127
2, 115392, Note_on_c, 0, 70, 0
2, 115392, Note_on_c, 0, 72, 127
2, 115440, Note_on_c, 0, 77, 127
2, 115680, Note_on_c, 0, 77, 0
2, 115680, Note_on_c, 0, 72, 0
2, 115680, Note_on_c, 0, 68, 0
2, 115680, Note_on_c, 0, 80, 127
2, 115776, Note_on_c, 0, 80, 0
2, 115776, Note_on_c, 0, 70, 127
2, 115872, Note_on_c, 0, 70, 0
2, 115872, Note_on_c, 0, 72, 127
2, 115968, Note_on_c, 0, 72, 0
2, 115968, Note_on_c, 0, 74, 127
2, 116064, Note_on_c, 0, 74, 0
2, 116064, Note_on_c, 0, 75, 127
2, 116160, Note_on_c, 0, 75, 0
2, 116160, Note_on_c, 0, 77, 127
2, 116256, Note_on_c, 0, 77, 0
2, 116256, Note_on_c, 0, 79, 127
2, 116352, Note_on_c, 0, 79, 0
2, 116352, Note_on_c, 0, 80, 127
2, 116400, Note_on_c, 0, 80, 0
2, 116400, Note_on_c, 0, 82, 127
2, 116448, Note_on_c, 0, 82, 0
2, 116448, Note_on_c, 0, 82, 127
2, 116832, Note_on_c, 0, 82, 0
2, 116832, Note_on_c, 0, 73, 127
2, 116928, Note_on_c, 0, 73, 0
2, 116928, Note_on_c, 0, 63, 127
2, 117024, Note_on_c, 0, 63, 0
2, 117024, Note_on_c, 0, 65, 127
2, 117120, Note_on_c, 0, 65, 0
2, 117120, Note_on_c, 0, 67, 127
2, 117216, Note_on_c, 0, 67, 0
2, 117216, Note_on_c, 0, 68, 127
2, 117312, Note_on_c, 0, 68, 0
2, 117312, Note_on_c, 0, 70, 127
2, 117408, Note_on_c, 0, 70, 0
2, 117408, Note_on_c, 0, 72, 127
2, 117456, Note_on_c, 0, 72, 0
2, 117456, Note_on_c, 0, 73, 127
2, 117504, Note_on_c, 0, 73, 0
2, 117504, Note_on_c, 0, 75, 127
2, 117648, Note_on_c, 0, 75, 0
2, 117648, Note_on_c, 0, 73, 127
2, 117696, Note_on_c, 0, 73, 0
2, 117696, Note_on_c, 0, 72, 127
2, 117744, Note_on_c, 0, 72, 0
2, 117744, Note_on_c, 0, 70, 127
2, 117792, Note_on_c, 0, 70, 0
2, 117792, Note_on_c, 0, 68, 127
2, 117840, Note_on_c, 0, 68, 0
2, 117840, Note_on_c, 0, 67, 127
2, 117888, Note_on_c, 0, 67, 0
2, 117888, Note_on_c, 0, 65, 127
2, 117936, Note_on_c, 0, 65, 0
2, 117936, Note_on_c, 0, 63, 127
2, 117984, Note_on_c, 0, 63, 0
2, 117984, Note_on_c, 0, 62, 127
2, 118032, Note_on_c, 0, 63, 127
2, 118080, Note_on_c, 0, 63, 0
2, 118080, Note_on_c, 0, 65, 127
2, 118128, Note_on_c, 0, 70, 127
2, 118368, Note_on_c, 0, 65, 0
2, 118368, Note_on_c, 0, 62, 0
2, 118416, Note_on_c, 0, 70, 0
2, 118416, Note_on_c, 0, 72, 127
2, 118464, Note_on_c, 0, 72, 0
2, 118464, Note_on_c, 0, 74, 127
2, 118512, Note_on_c, 0, 74, 0
2, 118512, Note_on_c, 0, 75, 127
2, 118560, Note_on_c, 0, 75, 0
2, 118560, Note_on_c, 0, 77, 127
2, 118608, Note_on_c, 0, 77, 0
2, 118608, Note_on_c, 0, 79, 127
2, 118656, Note_on_c, 0, 79, 0
2, 118656, Note_on_c, 0, 80, 127
2, 118752, Note_on_c, 0, 70, 127
2, 118944, Note_on_c, 0, 80, 0
2, 118992, Note_on_c, 0, 70, 0
2, 118992, Note_on_c, 0, 74, 127
2, 119040, Note_on_c, 0, 74, 0
2, 119040, Note_on_c, 0, 77, 127
2, 119088, Note_on_c, 0, 77, 0
2, 119088, Note_on_c, 0, 80, 127
2, 119136, Note_on_c, 0, 80, 0
2, 119136, Note_on_c, 0, 79, 127
2, 119184, Note_on_c, 0, 79, 0
2, 119184, Note_on_c, 0, 77, 127
2, 119232, Note_on_c, 0, 77, 0
2, 119232, Note_on_c, 0, 75, 127
2, 119280, Note_on_c, 0, 75, 0
2, 119280, Note_on_c, 0, 79, 127
2, 119328, Note_on_c, 0, 79, 0
2, 119328, Note_on_c, 0, 72, 127
2, 119376, Note_on_c, 0, 72, 0
2, 119376, Note_on_c, 0, 74, 127
2, 119424, Note_on_c, 0, 74, 0
2, 119424, Note_on_c, 0, 75, 127
2, 119472, Note_on_c, 0, 75, 0
2, 119472, Note_on_c, 0, 77, 127
2, 119568, Note_on_c, 0, 77, 0
2, 119568, Note_on_c, 0, 77, 127
2, 119616, Note_on_c, 0, 77, 0
2, 119616, Note_on_c, 0, 75, 127
2, 119664, Note_on_c, 0, 75, 0
2, 119664, Note_on_c, 0, 74, 127
2, 119712, Note_on_c, 0, 74, 0
2, 119712, Note_on_c, 0, 75, 127
2, 119904, Note_on_c, 0, 75, 0
2, 120288, Note_on_c, 0, 74, 127
2, 120384, Note_on_c, 0, 74, 0
2, 120384, Note_on_c, 0, 75, 127
2, 120432, Note_on_c, 0, 75, 0
2, 120432, Note_on_c, 0, 77, 127
2, 120480, Note_on_c, 0, 77, 0
2, 120480, Note_on_c, 0, 77, 127
2, 120864, Note_on_c, 0, 77, 0
2, 120864, Note_on_c, 0, 76, 127
2, 120960, Note_on_c, 0, 76, 0
2, 120960, Note_on_c, 0, 77, 127
2, 121008, Note_on_c, 0, 77, 0
2, 121008, Note_on_c, 0, 79, 127
2, 121056, Note_on_c, 0, 79, 0
2, 121056, Note_on_c, 0, 80, 127
2, 121440, Note_on_c, 0, 80, 0
2, 121440, Note_on_c, 0, 79, 127
2, 121536, Note_on_c, 0, 79, 0
2, 121536, Note_on_c, 0, 80, 127
2, 121584, Note_on_c, 0, 80, 0
2, 121584, Note_on_c, 0, 82, 127
2, 121632, Note_on_c, 0, 82, 0
2, 121632, Note_on_c, 0, 70, 127
2, 121728, Note_on_c, 0, 70, 0
2, 121728, Note_on_c, 0, 80, 127
2, 121776, Note_on_c, 0, 80, 0
2, 121776, Note_on_c, 0, 79, 127
2, 121824, Note_on_c, 0, 79, 0
2, 121824, Note_on_c, 0, 82, 127
2, 121872, Note_on_c, 0, 82, 0
2, 121872, Note_on_c, 0, 80, 127
2, 121920, Note_on_c, 0, 80, 0
2, 121920, Note_on_c, 0, 79, 127
2, 121968, Note_on_c, 0, 79, 0
2, 121968, Note_on_c, 0, 77, 127
2, 122016, Note_on_c, 0, 77, 0
2, 122016, Note_on_c, 0, 79, 127
2, 122112, Note_on_c, 0, 79, 0
2, 122112, Note_on_c, 0, 81, 127
2, 122160, Note_on_c, 0, 81, 0
2, 122160, Note_on_c, 0, 82, 127
2, 122208, Note_on_c, 0, 82, 0
2, 122208, Note_on_c, 0, 75, 127
2, 122232, Note_on_c, 0, 79, 127
2, 122256, Note_on_c, 0, 82, 127
2, 122592, Note_on_c, 0, 82, 0
2, 122592, Note_on_c, 0, 79, 0
2, 122592, Note_on_c, 0, 75, 0
2, 122592, Note_on_c, 0, 80, 127
2, 122688, Note_on_c, 0, 80, 0
2, 122688, Note_on_c, 0, 79, 127
2, 122784, Note_on_c, 0, 79, 0
2, 122784, Note_on_c, 0, 77, 127
2, 122880, Note_on_c, 0, 77, 0
2, 122880, Note_on_c, 0, 75, 127
2, 122976, Note_on_c, 0, 75, 0
2, 122976, Note_on_c, 0, 73, 127
2, 123072, Note_on_c, 0, 73, 0
2, 123072, Note_on_c, 0, 72, 127
2, 123168, Note_on_c, 0, 72, 0
2, 123168, Note_on_c, 0, 70, 127
2, 123264, Note_on_c, 0, 70, 0
2, 123264, Note_on_c, 0, 68, 127
2, 123360, Note_on_c, 0, 68, 0
2, 123360, Note_on_c, 0, 67, 127
2, 123456, Note_on_c, 0, 67, 0
2, 123456, Note_on_c, 0, 65, 127
2, 123552, Note_on_c, 0, 65, 0
2, 123552, Note_on_c, 0, 64, 127
2, 123600, Note_on_c, 0, 64, 0
2, 123600, Note_on_c, 0, 65, 127
2, 123648, Note_on_c, 0, 65, 0
2, 123648, Note_on_c, 0, 67, 127
2, 123696, Note_on_c, 0, 67, 0
2, 123696, Note_on_c, 0, 73, 127
2, 123744, Note_on_c, 0, 73, 0
2, 123744, Note_on_c, 0, 72, 127
2, 123792, Note_on_c, 0, 72, 0
2, 123792, Note_on_c, 0, 70, 127
2, 123840, Note_on_c, 0, 70, 0
2, 123840, Note_on_c, 0, 68, 127
2, 123888, Note_on_c, 0, 68, 0
2, 123888, Note_on_c, 0, 77, 127
2, 123936, Note_on_c, 0, 77, 0
2, 123936, Note_on_c, 0, 76, 127
2, 123984, Note_on_c, 0, 76, 0
2, 123984, Note_on_c, 0, 77, 127
2, 124032, Note_on_c, 0, 77, 0
2, 124032, Note_on_c, 0, 79, 127
2, 124080, Note_on_c, 0, 79, 0
2, 124080, Note_on_c, 0, 82, 127
2, 124128, Note_on_c, 0, 82, 0
2, 124128, Note_on_c, 0, 80, 127
2, 124224, Note_on_c, 0, 80, 0
2, 124224, Note_on_c, 0, 79, 127
2, 124320, Note_on_c, 0, 79, 0
2, 124320, Note_on_c, 0, 77, 127
2, 124512, Note_on_c, 0, 77, 0
2, 124512, Note_on_c, 0, 68, 127
2, 124560, Note_on_c, 0, 70, 127
2, 124608, Note_on_c, 0, 70, 0
2, 124608, Note_on_c, 0, 72, 127
2, 124656, Note_on_c, 0, 77, 127
2, 124896, Note_on_c, 0, 77, 0
2, 124896, Note_on_c, 0, 72, 0
2, 124896, Note_on_c, 0, 68, 0
2, 124896, Note_on_c, 0, 80, 127
2, 124992, Note_on_c, 0, 80, 0
2, 124992, Note_on_c, 0, 70, 127
2, 125088, Note_on_c, 0, 70, 0
2, 125088, Note_on_c, 0, 72, 127
2, 125184, Note_on_c, 0, 72, 0
2, 125184, Note_on_c, 0, 74, 127
2, 125280, Note_on_c, 0, 74, 0
2, 125280, Note_on_c, 0, 75, 127
2, 125376, Note_on_c, 0, 75, 0
2, 125376, Note_on_c, 0, 77, 127
2, 125472, Note_on_c, 0, 77, 0
2, 125472, Note_on_c, 0, 79, 127
2, 125568, Note_on_c, 0, 79, 0
2, 125568, Note_on_c, 0, 80, 127
2, 125616, Note_on_c, 0, 80, 0
2, 125616, Note_on_c, 0, 82, 127
2, 125664, Note_on_c, 0, 82, 0
2, 125664, Note_on_c, 0, 82, 127
2, 126048, Note_on_c, 0, 82, 0
2, 126048, Note_on_c, 0, 73, 127
2, 126144, Note_on_c, 0, 73, 0
2, 126144, Note_on_c, 0, 63, 127
2, 126240, Note_on_c, 0, 63, 0
2, 126240, Note_on_c, 0, 65, 127
2, 126336, Note_on_c, 0, 65, 0
2, 126336, Note_on_c, 0, 67, 127
2, 126432, Note_on_c, 0, 67, 0
2, 126432, Note_on_c, 0, 68, 127
2, 126528, Note_on_c, 0, 68, 0
2, 126528, Note_on_c, 0, 70, 127
2, 126624, Note_on_c, 0, 70, 0
2, 126624, Note_on_c, 0, 72, 127
2, 126672, Note_on_c, 0, 72, 0
2, 126672, Note_on_c, 0, 73, 127
2, 126720, Note_on_c, 0, 73, 0
2, 126720, Note_on_c, 0, 75, 127
2, 126864, Note_on_c, 0, 75, 0
2, 126864, Note_on_c, 0, 73, 127
2, 126912, Note_on_c, 0, 73, 0
2, 126912, Note_on_c, 0, 72, 127
2, 126960, Note_on_c, 0, 72, 0
2, 126960, Note_on_c, 0, 70, 127
2, 127008, Note_on_c, 0, 70, 0
2, 127008, Note_on_c, 0, 68, 127
2, 127056, Note_on_c, 0, 68, 0
2, 127056, Note_on_c, 0, 67, 127
2, 127104, Note_on_c, 0, 67, 0
2, 127104, Note_on_c, 0, 65, 127
2, 127152, Note_on_c, 0, 65, 0
2, 127152, Note_on_c, 0, 63, 127
2, 127200, Note_on_c, 0, 63, 0
2, 127200, Note_on_c, 0, 62, 127
2, 127248, Note_on_c, 0, 63, 127
2, 127296, Note_on_c, 0, 63, 0
2, 127296, Note_on_c, 0, 65, 127
2, 127344, Note_on_c, 0, 70, 127
2, 127584, Note_on_c, 0, 65, 0
2, 127584, Note_on_c, 0, 62, 0
2, 127632, Note_on_c, 0, 70, 0
2, 127632, Note_on_c, 0, 72, 127
2, 127680, Note_on_c, 0, 72, 0
2, 127680, Note_on_c, 0, 74, 127
2, 127728, Note_on_c, 0, 74, 0
2, 127728, Note_on_c, 0, 75, 127
2, 127776, Note_on_c, 0, 75, 0
2, 127776, Note_on_c, 0, 77, 127
2, 127824, Note_on_c, 0, 77, 0
2, 127824, Note_on_c, 0, 79, 127
2, 127872, Note_on_c, 0, 79, 0
2, 127872, Note_on_c, 0, 80, 127
2, 127968, Note_on_c, 0, 70, 127
2, 128160, Note_on_c, 0, 80, 0
2, 128208, Note_on_c, 0, 70, 0
2, 128208, Note_on_c, 0, 74, 127
2, 128256, Note_on_c, 0, 74, 0
2, 128256, Note_on_c, 0, 77, 127
2, 128304, Note_on_c, 0, 77, 0
2, 128304, Note_on_c, 0, 80, 127
2, 128352, Note_on_c, 0, 80, 0
2, 128352, Note_on_c, 0, 79, 127
2, 128400, Note_on_c, 0, 79, 0
2, 128400, Note_on_c, 0, 77, 127
2, 128448, Note_on_c, 0, 77, 0
2, 128448, Note_on_c, 0, 75, 127
2, 128496, Note_on_c, 0, 75, 0
2, 128496, Note_on_c, 0, 79, 127
2, 128544, Note_on_c, 0, 79, 0
2, 128544, Note_on_c, 0, 72, 127
2, 128592, Note_on_c, 0, 72, 0
2, 128592, Note_on_c, 0, 74, 127
2, 128640, Note_on_c, 0, 74, 0
2, 128640, Note_on_c, 0, 75, 127
2, 128688, Note_on_c, 0, 75, 0
2, 128688, Note_on_c, 0, 77, 127
2, 128784, Note_on_c, 0, 77, 0
2, 128784, Note_on_c, 0, 77, 127
2, 128832, Note_on_c, 0, 77, 0
2, 128832, Note_on_c, 0, 75, 127
2, 128880, Note_on_c, 0, 75, 0
2, 128880, Note_on_c, 0, 74, 127
2, 128928, Note_on_c, 0, 74, 0
2, 128928, Note_on_c, 0, 75, 127
2, 129120, Note_on_c, 0, 75, 0
2, 129888, Note_on_c, 0, 75, 127
2, 129984, Note_on_c, 0, 75, 0
2, 129984, Note_on_c, 0, 70, 127
2, 130080, Note_on_c, 0, 70, 0
2, 130080, Note_on_c, 0, 72, 127
2, 130176, Note_on_c, 0, 72, 0
2, 130176, Note_on_c, 0, 68, 127
2, 130272, Note_on_c, 0, 68, 0
2, 130272, Note_on_c, 0, 68, 127
2, 130320, Note_on_c, 0, 68, 0
2, 130320, Note_on_c, 0, 67, 127
2, 130344, Note_on_c, 0, 67, 0
2, 130344, Note_on_c, 0, 68, 127
2, 130368, Note_on_c, 0, 68, 0
2, 130368, Note_on_c, 0, 67, 127
2, 130560, Note_on_c, 0, 67, 0
2, 130560, Note_on_c, 0, 68, 127
2, 130656, Note_on_c, 0, 68, 0
2, 130656, Note_on_c, 0, 70, 127
2, 130752, Note_on_c, 0, 70, 0
2, 130752, Note_on_c, 0, 65, 127
2, 130848, Note_on_c, 0, 65, 0
2, 130848, Note_on_c, 0, 67, 127
2, 130944, Note_on_c, 0, 67, 0
2, 130944, Note_on_c, 0, 63, 127
2, 131040, Note_on_c, 0, 63, 0
2, 131040, Note_on_c, 0, 63, 127
2, 131088, Note_on_c, 0, 63, 0
2, 131088, Note_on_c, 0, 62, 127
2, 131112, Note_on_c, 0, 62, 0
2, 131112, Note_on_c, 0, 63, 127
2, 131136, Note_on_c, 0, 63, 0
2, 131136, Note_on_c, 0, 62, 127
2, 131232, Note_on_c, 0, 62, 0
2, 131232, Note_on_c, 0, 60, 127
2, 131328, Note_on_c, 0, 60, 0
2, 131328, Note_on_c, 0, 58, 127
2, 131424, Note_on_c, 0, 58, 0
2, 131424, Note_on_c, 0, 68, 127
2, 131520, Note_on_c, 0, 68, 0
2, 131520, Note_on_c, 0, 63, 127
2, 131616, Note_on_c, 0, 63, 0
2, 131616, Note_on_c, 0, 65, 127
2, 131712, Note_on_c, 0, 65, 0
2, 131712, Note_on_c, 0, 62, 127
2, 131808, Note_on_c, 0, 62, 0
2, 131808, Note_on_c, 0, 67, 127
2, 131904, Note_on_c, 0, 67, 0
2, 131904, Note_on_c, 0, 62, 127
2, 132000, Note_on_c, 0, 62, 0
2, 132000, Note_on_c, 0, 63, 127
2, 132096, Note_on_c, 0, 63, 0
2, 132096, Note_on_c, 0, 70, 127
2, 132192, Note_on_c, 0, 70, 0
2, 132192, Note_on_c, 0, 72, 127
2, 132288, Note_on_c, 0, 72, 0
2, 132288, Note_on_c, 0, 67, 127
2, 132384, Note_on_c, 0, 67, 0
2, 132384, Note_on_c, 0, 68, 127
2, 132480, Note_on_c, 0, 68, 0
2, 132480, Note_on_c, 0, 77, 127
2, 132576, Note_on_c, 0, 77, 0
2, 132576, Note_on_c, 0, 75, 127
2, 132624, Note_on_c, 0, 75, 0
2, 132624, Note_on_c, 0, 74, 127
2, 132768, Note_on_c, 0, 74, 0
2, 132768, Note_on_c, 0, 72, 127
2, 132816, Note_on_c, 0, 72, 0
2, 132816, Note_on_c, 0, 70, 127
2, 132960, Note_on_c, 0, 70, 0
2, 132960, Note_on_c, 0, 75, 127
2, 133056, Note_on_c, 0, 75, 0
2, 133056, Note_on_c, 0, 70, 127
2, 133152, Note_on_c, 0, 70, 0
2, 133152, Note_on_c, 0, 72, 127
2, 133248, Note_on_c, 0, 72, 0
2, 133248, Note_on_c, 0, 68, 127
2, 133344, Note_on_c, 0, 68, 0
2, 133344, Note_on_c, 0, 68, 127
2, 133392, Note_on_c, 0, 68, 0
2, 133392, Note_on_c, 0, 67, 127
2, 133416, Note_on_c, 0, 67, 0
2, 133416, Note_on_c, 0, 68, 127
2, 133440, Note_on_c, 0, 68, 0
2, 133440, Note_on_c, 0, 67, 127
2, 133632, Note_on_c, 0, 67, 0
2, 133632, Note_on_c, 0, 68, 127
2, 133728, Note_on_c, 0, 68, 0
2, 133728, Note_on_c, 0, 70, 127
2, 133824, Note_on_c, 0, 70, 0
2, 133824, Note_on_c, 0, 65, 127
2, 133920, Note_on_c, 0, 65, 0
2, 133920, Note_on_c, 0, 67, 127
2, 134016, Note_on_c, 0, 67, 0
2, 134016, Note_on_c, 0, 75, 127
2, 134112, Note_on_c, 0, 75, 0
2, 134112, Note_on_c, 0, 75, 127
2, 134160, Note_on_c, 0, 75, 0
2, 134160, Note_on_c, 0, 74, 127
2, 134184, Note_on_c, 0, 74, 0
2, 134184, Note_on_c, 0, 75, 127
2, 134208, Note_on_c, 0, 75, 0
2, 134208, Note_on_c, 0, 74, 127
2, 134400, Note_on_c, 0, 74, 0
2, 134400, Note_on_c, 0, 75, 127
2, 134496, Note_on_c, 0, 75, 0
2, 134496, Note_on_c, 0, 77, 127
2, 134592, Note_on_c, 0, 77, 0
2, 134592, Note_on_c, 0, 72, 127
2, 134688, Note_on_c, 0, 72, 0
2, 134688, Note_on_c, 0, 74, 127
2, 134784, Note_on_c, 0, 74, 0
2, 134784, Note_on_c, 0, 70, 127
2, 134880, Note_on_c, 0, 70, 0
2, 134880, Note_on_c, 0, 69, 127
2, 134976, Note_on_c, 0, 69, 0
2, 134976, Note_on_c, 0, 79, 127
2, 135072, Note_on_c, 0, 79, 0
2, 135072, Note_on_c, 0, 77, 127
2, 135168, Note_on_c, 0, 77, 0
2, 135168, Note_on_c, 0, 70, 127
2, 135264, Note_on_c, 0, 70, 0
2, 135264, Note_on_c, 0, 74, 127
2, 135360, Note_on_c, 0, 74, 0
2, 135360, Note_on_c, 0, 72, 127
2, 135456, Note_on_c, 0, 72, 0
2, 135456, Note_on_c, 0, 70, 127
2, 135552, Note_on_c, 0, 70, 0
2, 135552, Note_on_c, 0, 69, 127
2, 135648, Note_on_c, 0, 69, 0
2, 135648, Note_on_c, 0, 69, 127
2, 135744, Note_on_c, 0, 69, 0
2, 135744, Note_on_c, 0, 70, 127
2, 135768, Note_on_c, 0, 70, 0
2, 135768, Note_on_c, 0, 69, 127
2, 135792, Note_on_c, 0, 69, 0
2, 135792, Note_on_c, 0, 70, 127
2, 136032, Note_on_c, 0, 70, 0
2, 136032, Note_on_c, 0, 75, 127
2, 136128, Note_on_c, 0, 75, 0
2, 136128, Note_on_c, 0, 70, 127
2, 136224, Note_on_c, 0, 70, 0
2, 136224, Note_on_c, 0, 72, 127
2, 136320, Note_on_c, 0, 72, 0
2, 136320, Note_on_c, 0, 68, 127
2, 136416, Note_on_c, 0, 68, 0
2, 136416, Note_on_c, 0, 68, 127
2, 136464, Note_on_c, 0, 68, 0
2, 136464, Note_on_c, 0, 67, 127
2, 136488, Note_on_c, 0, 67, 0
2, 136488, Note_on_c, 0, 68, 127
2, 136512, Note_on_c, 0, 68, 0
2, 136512, Note_on_c, 0, 67, 127
2, 136704, Note_on_c, 0, 67, 0
2, 136704, Note_on_c, 0, 68, 127
2, 136800, Note_on_c, 0, 68, 0
2, 136800, Note_on_c, 0, 70, 127
2, 136896, Note_on_c, 0, 70, 0
2, 136896, Note_on_c, 0, 65, 127
2, 136992, Note_on_c, 0, 65, 0
2, 136992, Note_on_c, 0, 67, 127
2, 137088, Note_on_c, 0, 67, 0
2, 137088, Note_on_c, 0, 63, 127
2, 137184, Note_on_c, 0, 63, 0
2, 137184, Note_on_c, 0, 63, 127
2, 137232, Note_on_c, 0, 63, 0
2, 137232, Note_on_c, 0, 62, 127
2, 137256, Note_on_c, 0, 62, 0
2, 137256, Note_on_c, 0, 63, 127
2, 137280, Note_on_c, 0, 63, 0
2, 137280, Note_on_c, 0, 62, 127
2, 137376, Note_on_c, 0, 62, 0
2, 137376, Note_on_c, 0, 60, 127
2, 137472, Note_on_c, 0, 60, 0
2, 137472, Note_on_c, 0, 58, 127
2, 137568, Note_on_c, 0, 58, 0
2, 137568, Note_on_c, 0, 68, 127
2, 137664, Note_on_c, 0, 68, 0
2, 137664, Note_on_c, 0, 63, 127
2, 137760, Note_on_c, 0, 63, 0
2, 137760, Note_on_c, 0, 65, 127
2, 137856, Note_on_c, 0, 65, 0
2, 137856, Note_on_c, 0, 62, 127
2, 137952, Note_on_c, 0, 62, 0
2, 137952, Note_on_c, 0, 67, 127
2, 138048, Note_on_c, 0, 67, 0
2, 138048, Note_on_c, 0, 62, 127
2, 138144, Note_on_c, 0, 62, 0
2, 138144, Note_on_c, 0, 63, 127
2, 138240, Note_on_c, 0, 63, 0
2, 138240, Note_on_c, 0, 70, 127
2, 138336, Note_on_c, 0, 70, 0
2, 138336, Note_on_c, 0, 72, 127
2, 138432, Note_on_c, 0, 72, 0
2, 138432, Note_on_c, 0, 67, 127
2, 138528, Note_on_c, 0, 67, 0
2, 138528, Note_on_c, 0, 68, 127
2, 138624, Note_on_c, 0, 68, 0
2, 138624, Note_on_c, 0, 77, 127
2, 138720, Note_on_c, 0, 77, 0
2, 138720, Note_on_c, 0, 75, 127
2, 138768, Note_on_c, 0, 75, 0
2, 138768, Note_on_c, 0, 74, 127
2, 138912, Note_on_c, 0, 74, 0
2, 138912, Note_on_c, 0, 72, 127
2, 138960, Note_on_c, 0, 72, 0
2, 138960, Note_on_c, 0, 70, 127
2, 139104, Note_on_c, 0, 70, 0
2, 139104, Note_on_c, 0, 75, 127
2, 139200, Note_on_c, 0, 75, 0
2, 139200, Note_on_c, 0, 70, 127
2, 139296, Note_on_c, 0, 70, 0
2, 139296, Note_on_c, 0, 72, 127
2, 139392, Note_on_c, 0, 72, 0
2, 139392, Note_on_c, 0, 68, 127
2, 139488, Note_on_c, 0, 68, 0
2, 139488, Note_on_c, 0, 68, 127
2, 139536, Note_on_c, 0, 68, 0
2, 139536, Note_on_c, 0, 67, 127
2, 139560, Note_on_c, 0, 67, 0
2, 139560, Note_on_c, 0, 68, 127
2, 139584, Note_on_c, 0, 68, 0
2, 139584, Note_on_c, 0, 67, 127
2, 139776, Note_on_c, 0, 67, 0
2, 139776, Note_on_c, 0, 68, 127
2, 139872, Note_on_c, 0, 68, 0
2, 139872, Note_on_c, 0, 70, 127
2, 139968, Note_on_c, 0, 70, 0
2, 139968, Note_on_c, 0, 65, 127
2, 140064, Note_on_c, 0, 65, 0
2, 140064, Note_on_c, 0, 67, 127
2, 140160, Note_on_c, 0, 67, 0
2, 140160, Note_on_c, 0, 75, 127
2, 140256, Note_on_c, 0, 75, 0
2, 140256, Note_on_c, 0, 75, 127
2, 140304, Note_on_c, 0, 75, 0
2, 140304, Note_on_c, 0, 74, 127
2, 140328, Note_on_c, 0, 74, 0
2, 140328, Note_on_c, 0, 75, 127
2, 140352, Note_on_c, 0, 75, 0
2, 140352, Note_on_c, 0, 74, 127
2, 140544, Note_on_c, 0, 74, 0
2, 140544, Note_on_c, 0, 75, 127
2, 140640, Note_on_c, 0, 75, 0
2, 140640, Note_on_c, 0, 77, 127
2, 140736, Note_on_c, 0, 77, 0
2, 140736, Note_on_c, 0, 72, 127
2, 140832, Note_on_c, 0, 72, 0
2, 140832, Note_on_c, 0, 74, 127
2, 140928, Note_on_c, 0, 74, 0
2, 140928, Note_on_c, 0, 70, 127
2, 141024, Note_on_c, 0, 70, 0
2, 141024, Note_on_c, 0, 69, 127
2, 141120, Note_on_c, 0, 69, 0
2, 141120, Note_on_c, 0, 79, 127
2, 141216, Note_on_c, 0, 79, 0
2, 141216, Note_on_c, 0, 77, 127
2, 141312, Note_on_c, 0, 77, 0
2, 141312, Note_on_c, 0, 70, 127
2, 141408, Note_on_c, 0, 70, 0
2, 141408, Note_on_c, 0, 74, 127
2, 141504, Note_on_c, 0, 74, 0
2, 141504, Note_on_c, 0, 72, 127
2, 141600, Note_on_c, 0, 72, 0
2, 141600, Note_on_c, 0, 70, 127
2, 141696, Note_on_c, 0, 70, 0
2, 141696, Note_on_c, 0, 69, 127
2, 141792, Note_on_c, 0, 69, 0
2, 141792, Note_on_c, 0, 70, 127
2, 142176, Note_on_c, 0, 70, 0
2, 142176, Note_on_c, 0, 77, 127
2, 142272, Note_on_c, 0, 77, 0
2, 142272, Note_on_c, 0, 72, 127
2, 142368, Note_on_c, 0, 72, 0
2, 142368, Note_on_c, 0, 74, 127
2, 142464, Note_on_c, 0, 74, 0
2, 142464, Note_on_c, 0, 70, 127
2, 142560, Note_on_c, 0, 70, 0
2, 142560, Note_on_c, 0, 80, 127
2, 142584, Note_on_c, 0, 80, 0
2, 142584, Note_on_c, 0, 79, 127
2, 142608, Note_on_c, 0, 79, 0
2, 142608, Note_on_c, 0, 80, 127
2, 142848, Note_on_c, 0, 80, 0
2, 142848, Note_on_c, 0, 70, 127
2, 142944, Note_on_c, 0, 70, 0
2, 142944, Note_on_c, 0, 74, 127
2, 143040, Note_on_c, 0, 74, 0
2, 143040, Note_on_c, 0, 77, 127
2, 143136, Note_on_c, 0, 77, 0
2, 143136, Note_on_c, 0, 80, 127
2, 143232, Note_on_c, 0, 80, 0
2, 143232, Note_on_c, 0, 77, 127
2, 143328, Note_on_c, 0, 77, 0
2, 143328, Note_on_c, 0, 77, 127
2, 143520, Note_on_c, 0, 77, 0
2, 143520, Note_on_c, 0, 79, 127
2, 143544, Note_on_c, 0, 79, 0
2, 143544, Note_on_c, 0, 77, 127
2, 143568, Note_on_c, 0, 77, 0
2, 143568, Note_on_c, 0, 79, 127
2, 143808, Note_on_c, 0, 79, 0
2, 143808, Note_on_c, 0, 74, 127
2, 143904, Note_on_c, 0, 74, 0
2, 143904, Note_on_c, 0, 75, 127
2, 144000, Note_on_c, 0, 75, 0
2, 144000, Note_on_c, 0, 72, 127
2, 144096, Note_on_c, 0, 72, 0
2, 144096, Note_on_c, 0, 77, 127
2, 144192, Note_on_c, 0, 77, 0
2, 144192, Note_on_c, 0, 72, 127
2, 144288, Note_on_c, 0, 72, 0
2, 144288, Note_on_c, 0, 74, 127
2, 144384, Note_on_c, 0, 74, 0
2, 144384, Note_on_c, 0, 71, 127
2, 144480, Note_on_c, 0, 71, 0
2, 144480, Note_on_c, 0, 75, 127
2, 144576, Note_on_c, 0, 75, 0
2, 144576, Note_on_c, 0, 71, 127
2, 144672, Note_on_c, 0, 71, 0
2, 144672, Note_on_c, 0, 72, 127
2, 144768, Note_on_c, 0, 72, 0
2, 144768, Note_on_c, 0, 66, 127
2, 144864, Note_on_c, 0, 66, 0
2, 144864, Note_on_c, 0, 72, 127
2, 144960, Note_on_c, 0, 72, 0
2, 144960, Note_on_c, 0, 71, 127
2, 145056, Note_on_c, 0, 71, 0
2, 145056, Note_on_c, 0, 69, 127
2, 145152, Note_on_c, 0, 69, 0
2, 145152, Note_on_c, 0, 67, 127
2, 145248, Note_on_c, 0, 67, 0
2, 145248, Note_on_c, 0, 79, 127
2, 145344, Note_on_c, 0, 79, 0
2, 145344, Note_on_c, 0, 74, 127
2, 145440, Note_on_c, 0, 74, 0
2, 145440, Note_on_c, 0, 75, 127
2, 145536, Note_on_c, 0, 75, 0
2, 145536, Note_on_c, 0, 72, 127
2, 145632, Note_on_c, 0, 72, 0
2, 145632, Note_on_c, 0, 82, 127
2, 145920, Note_on_c, 0, 82, 0
2, 145920, Note_on_c, 0, 72, 127
2, 146016, Note_on_c, 0, 72, 0
2, 146016, Note_on_c, 0, 73, 127
2, 146112, Note_on_c, 0, 73, 0
2, 146112, Note_on_c, 0, 70, 127
2, 146208, Note_on_c, 0, 70, 0
2, 146208, Note_on_c, 0, 72, 127
2, 146304, Note_on_c, 0, 72, 0
2, 146304, Note_on_c, 0, 82, 127
2, 146400, Note_on_c, 0, 82, 0
2, 146400, Note_on_c, 0, 82, 127
2, 146448, Note_on_c, 0, 82, 0
2, 146448, Note_on_c, 0, 80, 127
2, 146472, Note_on_c, 0, 80, 0
2, 146472, Note_on_c, 0, 82, 127
2, 146496, Note_on_c, 0, 82, 0
2, 146496, Note_on_c, 0, 80, 127
2, 146688, Note_on_c, 0, 80, 0
2, 146688, Note_on_c, 0, 79, 127
2, 146784, Note_on_c, 0, 79, 0
2, 146784, Note_on_c, 0, 77, 127
2, 146880, Note_on_c, 0, 77, 0
2, 146880, Note_on_c, 0, 72, 127
2, 146976, Note_on_c, 0, 72, 0
2, 146976, Note_on_c, 0, 74, 127
2, 147072, Note_on_c, 0, 74, 0
2, 147072, Note_on_c, 0, 71, 127
2, 147168, Note_on_c, 0, 71, 0
2, 147168, Note_on_c, 0, 79, 127
2, 147264, Note_on_c, 0, 79, 0
2, 147264, Note_on_c, 0, 74, 127
2, 147360, Note_on_c, 0, 74, 0
2, 147360, Note_on_c, 0, 75, 127
2, 147456, Note_on_c, 0, 75, 0
2, 147456, Note_on_c, 0, 72, 127
2, 147552, Note_on_c, 0, 72, 0
2, 147552, Note_on_c, 0, 67, 127
2, 147648, Note_on_c, 0, 67, 0
2, 147648, Note_on_c, 0, 72, 127
2, 147744, Note_on_c, 0, 72, 0
2, 147744, Note_on_c, 0, 74, 127
2, 147840, Note_on_c, 0, 74, 0
2, 147840, Note_on_c, 0, 71, 127
2, 147936, Note_on_c, 0, 71, 0
2, 147936, Note_on_c, 0, 71, 127
2, 148128, Note_on_c, 0, 71, 0
2, 148128, Note_on_c, 0, 72, 127
2, 148152, Note_on_c, 0, 72, 0
2, 148152, Note_on_c, 0, 71, 127
2, 148176, Note_on_c, 0, 71, 0
2, 148176, Note_on_c, 0, 72, 127
2, 148416, Note_on_c, 0, 72, 0
2, 148416, Note_on_c, 0, 77, 127
2, 148512, Note_on_c, 0, 77, 0
2, 148512, Note_on_c, 0, 76, 127
2, 148608, Note_on_c, 0, 76, 0
2, 148608, Note_on_c, 0, 82, 127
2, 148704, Note_on_c, 0, 82, 0
2, 148704, Note_on_c, 0, 80, 127
2, 148800, Note_on_c, 0, 80, 0
2, 148800, Note_on_c, 0, 76, 127
2, 148896, Note_on_c, 0, 76, 0
2, 148896, Note_on_c, 0, 77, 127
2, 148992, Note_on_c, 0, 77, 0
2, 148992, Note_on_c, 0, 74, 127
2, 149088, Note_on_c, 0, 74, 0
2, 149088, Note_on_c, 0, 70, 127
2, 149184, Note_on_c, 0, 70, 0
2, 149184, Note_on_c, 0, 75, 127
2, 149280, Note_on_c, 0, 75, 0
2, 149280, Note_on_c, 0, 74, 127
2, 149376, Note_on_c, 0, 74, 0
2, 149376, Note_on_c, 0, 80, 127
2, 149472, Note_on_c, 0, 80, 0
2, 149472, Note_on_c, 0, 79, 127
2, 149568, Note_on_c, 0, 79, 0
2, 149568, Note_on_c, 0, 74, 127
2, 149664, Note_on_c, 0, 74, 0
2, 149664, Note_on_c, 0, 75, 127
2, 149760, Note_on_c, 0, 75, 0
2, 149760, Note_on_c, 0, 72, 127
2, 149856, Note_on_c, 0, 72, 0
2, 149856, Note_on_c, 0, 68, 127
2, 149952, Note_on_c, 0, 68, 0
2, 149952, Note_on_c, 0, 75, 127
2, 150048, Note_on_c, 0, 75, 0
2, 150048, Note_on_c, 0, 74, 127
2, 150144, Note_on_c, 0, 74, 0
2, 150144, Note_on_c, 0, 77, 127
2, 150240, Note_on_c, 0, 77, 0
2, 150240, Note_on_c, 0, 67, 127
2, 150336, Note_on_c, 0, 67, 0
2, 150336, Note_on_c, 0, 74, 127
2, 150432, Note_on_c, 0, 74, 0
2, 150432, Note_on_c, 0, 72, 127
2, 150528, Note_on_c, 0, 72, 0
2, 150528, Note_on_c, 0, 75, 127
2, 150624, Note_on_c, 0, 75, 0
2, 150624, Note_on_c, 0, 67, 127
2, 150720, Note_on_c, 0, 67, 0
2, 150720, Note_on_c, 0, 72, 127
2, 150816, Note_on_c, 0, 72, 0
2, 150816, Note_on_c, 0, 70, 127
2, 150912, Note_on_c, 0, 70, 0
2, 150912, Note_on_c, 0, 73, 127
2, 151008, Note_on_c, 0, 63, 127
2, 151392, Note_on_c, 0, 63, 0
2, 151392, Note_on_c, 0, 74, 0
2, 151392, Note_on_c, 0, 74, 0
2, 151392, Note_on_c, 0, 72, 127
2, 151488, Note_on_c, 0, 72, 0
2, 151488, Note_on_c, 0, 67, 127
2, 151584, Note_on_c, 0, 67, 0
2, 151584, Note_on_c, 0, 68, 127
2, 151680, Note_on_c, 0, 68, 0
2, 151680, Note_on_c, 0, 65, 127
2, 151776, Note_on_c, 0, 65, 0
2, 151776, Note_on_c, 0, 62, 127
2, 151872, Note_on_c, 0, 62, 0
2, 151872, Note_on_c, 0, 72, 127
2, 151968, Note_on_c, 0, 72, 0
2, 151968, Note_on_c, 0, 70, 127
2, 152064, Note_on_c, 0, 70, 0
2, 152064, Note_on_c, 0, 80, 127
2, 152160, Note_on_c, 0, 80, 0
2, 152160, Note_on_c, 0, 79, 127
2, 152256, Note_on_c, 0, 79, 0
2, 152256, Note_on_c, 0, 75, 127
2, 152352, Note_on_c, 0, 75, 0
2, 152352, Note_on_c, 0, 70, 127
2, 152448, Note_on_c, 0, 70, 0
2, 152448, Note_on_c, 0, 74, 127
2, 152544, Note_on_c, 0, 74, 0
2, 152544, Note_on_c, 0, 74, 127
2, 152736, Note_on_c, 0, 74, 0
2, 152736, Note_on_c, 0, 75, 127
2, 152760, Note_on_c, 0, 75, 0
2, 152760, Note_on_c, 0, 74, 127
2, 152784, Note_on_c, 0, 74, 0
2, 152784, Note_on_c, 0, 75, 127
2, 152928, Note_on_c, 0, 75, 0
2, 152928, Note_on_c, 0, 77, 127
2, 153024, Note_on_c, 0, 77, 0
2, 153024, Note_on_c, 0, 72, 127
2, 153120, Note_on_c, 0, 72, 0
2, 153120, Note_on_c, 0, 74, 127
2, 153216, Note_on_c, 0, 74, 0
2, 153216, Note_on_c, 0, 70, 127
2, 153312, Note_on_c, 0, 70, 0
2, 153312, Note_on_c, 0, 80, 127
2, 153336, Note_on_c, 0, 80, 0
2, 153336, Note_on_c, 0, 79, 127
2, 153360, Note_on_c, 0, 79, 0
2, 153360, Note_on_c, 0, 80, 127
2, 153600, Note_on_c, 0, 80, 0
2, 153600, Note_on_c, 0, 70, 127
2, 153696, Note_on_c, 0, 70, 0
2, 153696, Note_on_c, 0, 74, 127
2, 153792, Note_on_c, 0, 74, 0
2, 153792, Note_on_c, 0, 77, 127
2, 153888, Note_on_c, 0, 77, 0
2, 153888, Note_on_c, 0, 80, 127
2, 153984, Note_on_c, 0, 80, 0
2, 153984, Note_on_c, 0, 77, 127
2, 154080, Note_on_c, 0, 77, 0
2, 154080, Note_on_c, 0, 77, 127
2, 154272, Note_on_c, 0, 77, 0
2, 154272, Note_on_c, 0, 79, 127
2, 154296, Note_on_c, 0, 79, 0
2, 154296, Note_on_c, 0, 77, 127
2, 154320, Note_on_c, 0, 77, 0
2, 154320, Note_on_c, 0, 79, 127
2, 154560, Note_on_c, 0, 79, 0
2, 154560, Note_on_c, 0, 74, 127
2, 154656, Note_on_c, 0, 74, 0
2, 154656, Note_on_c, 0, 75, 127
2, 154752, Note_on_c, 0, 75, 0
2, 154752, Note_on_c, 0, 72, 127
2, 154848, Note_on_c, 0, 72, 0
2, 154848, Note_on_c, 0, 77, 127
2, 154944, Note_on_c, 0, 77, 0
2, 154944, Note_on_c, 0, 72, 127
2, 155040, Note_on_c, 0, 72, 0
2, 155040, Note_on_c, 0, 74, 127
2, 155136, Note_on_c, 0, 74, 0
2, 155136, Note_on_c, 0, 71, 127
2, 155232, Note_on_c, 0, 71, 0
2, 155232, Note_on_c, 0, 75, 127
2, 155328, Note_on_c, 0, 75, 0
2, 155328, Note_on_c, 0, 71, 127
2, 155424, Note_on_c, 0, 71, 0
2, 155424, Note_on_c, 0, 72, 127
2, 155520, Note_on_c, 0, 72, 0
2, 155520, Note_on_c, 0, 66, 127
2, 155616, Note_on_c, 0, 66, 0
2, 155616, Note_on_c, 0, 72, 127
2, 155712, Note_on_c, 0, 72, 0
2, 155712, Note_on_c, 0, 71, 127
2, 155808, Note_on_c, 0, 71, 0
2, 155808, Note_on_c, 0, 69, 127
2, 155904, Note_on_c, 0, 69, 0
2, 155904, Note_on_c, 0, 67, 127
2, 156000, Note_on_c, 0, 67, 0
2, 156000, Note_on_c, 0, 79, 127
2, 156096, Note_on_c, 0, 79, 0
2, 156096, Note_on_c, 0, 74, 127
2, 156192, Note_on_c, 0, 74, 0
2, 156192, Note_on_c, 0, 75, 127
2, 156288, Note_on_c, 0, 75, 0
2, 156288, Note_on_c, 0, 72, 127
2, 156384, Note_on_c, 0, 72, 0
2, 156384, Note_on_c, 0, 82, 127
2, 156672, Note_on_c, 0, 82, 0
2, 156672, Note_on_c, 0, 72, 127
2, 156768, Note_on_c, 0, 72, 0
2, 156768, Note_on_c, 0, 73, 127
2, 156864, Note_on_c, 0, 73, 0
2, 156864, Note_on_c, 0, 70, 127
2, 156960, Note_on_c, 0, 70, 0
2, 156960, Note_on_c, 0, 72, 127
2, 157056, Note_on_c, 0, 72, 0
2, 157056, Note_on_c, 0, 82, 127
2, 157152, Note_on_c, 0, 82, 0
2, 157152, Note_on_c, 0, 82, 127
2, 157200, Note_on_c, 0, 82, 0
2, 157200, Note_on_c, 0, 80, 127
2, 157224, Note_on_c, 0, 80, 0
2, 157224, Note_on_c, 0, 82, 127
2, 157248, Note_on_c, 0, 82, 0
2, 157248, Note_on_c, 0, 80, 127
2, 157440, Note_on_c, 0, 80, 0
2, 157440, Note_on_c, 0, 79, 127
2, 157536, Note_on_c, 0, 79, 0
2, 157536, Note_on_c, 0, 77, 127
2, 157632, Note_on_c, 0, 77, 0
2, 157632, Note_on_c, 0, 72, 127
2, 157728, Note_on_c, 0, 72, 0
2, 157728, Note_on_c, 0, 74, 127
2, 157824, Note_on_c, 0, 74, 0
2, 157824, Note_on_c, 0, 71, 127
2, 157920, Note_on_c, 0, 71, 0
2, 157920, Note_on_c, 0, 79, 127
2, 158016, Note_on_c, 0, 79, 0
2, 158016, Note_on_c, 0, 74, 127
2, 158112, Note_on_c, 0, 74, 0
2, 158112, Note_on_c, 0, 75, 127
2, 158208, Note_on_c, 0, 75, 0
2, 158208, Note_on_c, 0, 72, 127
2, 158304, Note_on_c, 0, 72, 0
2, 158304, Note_on_c, 0, 67, 127
2, 158400, Note_on_c, 0, 67, 0
2, 158400, Note_on_c, 0, 72, 127
2, 158496, Note_on_c, 0, 72, 0
2, 158496, Note_on_c, 0, 74, 127
2, 158592, Note_on_c, 0, 74, 0
2, 158592, Note_on_c, 0, 71, 127
2, 158688, Note_on_c, 0, 71, 0
2, 158688, Note_on_c, 0, 71, 127
2, 158880, Note_on_c, 0, 71, 0
2, 158880, Note_on_c, 0, 72, 127
2, 158904, Note_on_c, 0, 72, 0
2, 158904, Note_on_c, 0, 71, 127
2, 158928, Note_on_c, 0, 71, 0
2, 158928, Note_on_c, 0, 72, 127
2, 159168, Note_on_c, 0, 72, 0
2, 159168, Note_on_c, 0, 77, 127
2, 159264, Note_on_c, 0, 77, 0
2, 159264, Note_on_c, 0, 76, 127
2, 159360, Note_on_c, 0, 76, 0
2, 159360, Note_on_c, 0, 82, 127
2, 159456, Note_on_c, 0, 82, 0
2, 159456, Note_on_c, 0, 80, 127
2, 159552, Note_on_c, 0, 80, 0
2, 159552, Note_on_c, 0, 76, 127
2, 159648, Note_on_c, 0, 76, 0
2, 159648, Note_on_c, 0, 77, 127
2, 159744, Note_on_c, 0, 77, 0
2, 159744, Note_on_c, 0, 74, 127
2, 159840, Note_on_c, 0, 74, 0
2, 159840, Note_on_c, 0, 70, 127
2, 159936, Note_on_c, 0, 70, 0
2, 159936, Note_on_c, 0, 75, 127
2, 160032, Note_on_c, 0, 75, 0
2, 160032, Note_on_c, 0, 74, 127
2, 160128, Note_on_c, 0, 74, 0
2, 160128, Note_on_c, 0, 80, 127
2, 160224, Note_on_c, 0, 80, 0
2, 160224, Note_on_c, 0, 79, 127
2, 160320, Note_on_c, 0, 79, 0
2, 160320, Note_on_c, 0, 74, 127
2, 160416, Note_on_c, 0, 74, 0
2, 160416, Note_on_c, 0, 75, 127
2, 160512, Note_on_c, 0, 75, 0
2, 160512, Note_on_c, 0, 72, 127
2, 160608, Note_on_c, 0, 72, 0
2, 160608, Note_on_c, 0, 68, 127
2, 160704, Note_on_c, 0, 68, 0
2, 160704, Note_on_c, 0, 75, 127
2, 160800, Note_on_c, 0, 75, 0
2, 160800, Note_on_c, 0, 74, 127
2, 160896, Note_on_c, 0, 74, 0
2, 160896, Note_on_c, 0, 77, 127
2, 160992, Note_on_c, 0, 77, 0
2, 160992, Note_on_c, 0, 67, 127
2, 161088, Note_on_c, 0, 67, 0
2, 161088, Note_on_c, 0, 74, 127
2, 161184, Note_on_c, 0, 74, 0
2, 161184, Note_on_c, 0, 72, 127
2, 161280, Note_on_c, 0, 72, 0
2, 161280, Note_on_c, 0, 75, 127
2, 161376, Note_on_c, 0, 75, 0
2, 161376, Note_on_c, 0, 67, 127
2, 161472, Note_on_c, 0, 67, 0
2, 161472, Note_on_c, 0, 72, 127
2, 161568, Note_on_c, 0, 72, 0
2, 161568, Note_on_c, 0, 70, 127
2, 161664, Note_on_c, 0, 70, 0
2, 161664, Note_on_c, 0, 73, 127
2, 161760, Note_on_c, 0, 63, 127
2, 162144, Note_on_c, 0, 63, 0
2, 162144, Note_on_c, 0, 74, 0
2, 162144, Note_on_c, 0, 74, 0
2, 162144, Note_on_c, 0, 72, 127
2, 162240, Note_on_c, 0, 72, 0
2, 162240, Note_on_c, 0, 67, 127
2, 162336, Note_on_c, 0, 67, 0
2, 162336, Note_on_c, 0, 68, 127
2, 162432, Note_on_c, 0, 68, 0
2, 162432, Note_on_c, 0, 65, 127
2, 162528, Note_on_c, 0, 65, 0
2, 162528, Note_on_c, 0, 62, 127
2, 162624, Note_on_c, 0, 62, 0
2, 162624, Note_on_c, 0, 72, 127
2, 162720, Note_on_c, 0, 72, 0
2, 162720, Note_on_c, 0, 70, 127
2, 162816, Note_on_c, 0, 70, 0
2, 162816, Note_on_c, 0, 80, 127
2, 162912, Note_on_c, 0, 80, 0
2, 162912, Note_on_c, 0, 79, 127
2, 163008, Note_on_c, 0, 79, 0
2, 163008, Note_on_c, 0, 75, 127
2, 163104, Note_on_c, 0, 75, 0
2, 163104, Note_on_c, 0, 70, 127
2, 163200, Note_on_c, 0, 70, 0
2, 163200, Note_on_c, 0, 74, 127
2, 163296, Note_on_c, 0, 74, 0
2, 163296, Note_on_c, 0, 74, 127
2, 163488, Note_on_c, 0, 74, 0
2, 163488, Note_on_c, 0, 75, 127
2, 163512, Note_on_c, 0, 75, 0
2, 163512, Note_on_c, 0, 74, 127
2, 163536, Note_on_c, 0, 74, 0
2, 163536, Note_on_c, 0, 75, 127
2, 163680, Note_on_c, 0, 75, 0
2, 164064, Note_on_c, 0, 67, 127
2, 164160, Note_on_c, 0, 67, 0
2, 164160, Note_on_c, 0, 63, 127
2, 164256, Note_on_c, 0, 63, 0
2, 164256, Note_on_c, 0, 62, 127
2, 164352, Note_on_c, 0, 62, 0
2, 164352, Note_on_c, 0, 63, 127
2, 164448, Note_on_c, 0, 63, 0
2, 164448, Note_on_c, 0, 67, 127
2, 164544, Note_on_c, 0, 67, 0
2, 164544, Note_on_c, 0, 63, 127
2, 164640, Note_on_c, 0, 63, 0
2, 164640, Note_on_c, 0, 68, 127
2, 164736, Note_on_c, 0, 68, 0
2, 164736, Note_on_c, 0, 63, 127
2, 164832, Note_on_c, 0, 63, 0
2, 164832, Note_on_c, 0, 70, 127
2, 164880, Note_on_c, 0, 70, 0
2, 165024, Note_on_c, 0, 72, 127
2, 165072, Note_on_c, 0, 72, 0
2, 165216, Note_on_c, 0, 70, 127
2, 165312, Note_on_c, 0, 70, 0
2, 165312, Note_on_c, 0, 67, 127
2, 165408, Note_on_c, 0, 67, 0
2, 165408, Note_on_c, 0, 65, 127
2, 165504, Note_on_c, 0, 65, 0
2, 165504, Note_on_c, 0, 63, 127
2, 165600, Note_on_c, 0, 63, 0
2, 165600, Note_on_c, 0, 62, 127
2, 165696, Note_on_c, 0, 62, 0
2, 165696, Note_on_c, 0, 63, 127
2, 165792, Note_on_c, 0, 63, 0
2, 165792, Note_on_c, 0, 65, 127
2, 165840, Note_on_c, 0, 65, 0
2, 165840, Note_on_c, 0, 63, 127
2, 165888, Note_on_c, 0, 63, 0
2, 165888, Note_on_c, 0, 62, 127
2, 165936, Note_on_c, 0, 62, 0
2, 165936, Note_on_c, 0, 63, 127
2, 165984, Note_on_c, 0, 63, 0
2, 165984, Note_on_c, 0, 65, 127
2, 166080, Note_on_c, 0, 65, 0
2, 166080, Note_on_c, 0, 67, 127
2, 166176, Note_on_c, 0, 67, 0
2, 166176, Note_on_c, 0, 68, 127
2, 166224, Note_on_c, 0, 68, 0
2, 166224, Note_on_c, 0, 67, 127
2, 166272, Note_on_c, 0, 67, 0
2, 166272, Note_on_c, 0, 65, 127
2, 166320, Note_on_c, 0, 65, 0
2, 166320, Note_on_c, 0, 67, 127
2, 166368, Note_on_c, 0, 67, 0
2, 166368, Note_on_c, 0, 65, 127
2, 166368, Note_on_c, 0, 68, 127
2, 166416, Note_on_c, 0, 68, 0
2, 166416, Note_on_c, 0, 65, 0
2, 166560, Note_on_c, 0, 63, 127
2, 166560, Note_on_c, 0, 67, 127
2, 166608, Note_on_c, 0, 67, 0
2, 166608, Note_on_c, 0, 63, 0
2, 166752, Note_on_c, 0, 62, 127
2, 166752, Note_on_c, 0, 65, 127
2, 167136, Note_on_c, 0, 65, 0
2, 167136, Note_on_c, 0, 62, 0
2, 167136, Note_on_c, 0, 67, 127
2, 167232, Note_on_c, 0, 67, 0
2, 167232, Note_on_c, 0, 63, 127
2, 167328, Note_on_c, 0, 63, 0
2, 167328, Note_on_c, 0, 62, 127
2, 167424, Note_on_c, 0, 62, 0
2, 167424, Note_on_c, 0, 63, 127
2, 167520, Note_on_c, 0, 63, 0
2, 167520, Note_on_c, 0, 67, 127
2, 167616, Note_on_c, 0, 67, 0
2, 167616, Note_on_c, 0, 63, 127
2, 167712, Note_on_c, 0, 63, 0
2, 167712, Note_on_c, 0, 68, 127
2, 167808, Note_on_c, 0, 68, 0
2, 167808, Note_on_c, 0, 63, 127
2, 167904, Note_on_c, 0, 63, 0
2, 167904, Note_on_c, 0, 70, 127
2, 167952, Note_on_c, 0, 70, 0
2, 168096, Note_on_c, 0, 72, 127
2, 168144, Note_on_c, 0, 72, 0
2, 168288, Note_on_c, 0, 70, 127
2, 168384, Note_on_c, 0, 70, 0
2, 168384, Note_on_c, 0, 67, 127
2, 168480, Note_on_c, 0, 67, 0
2, 168480, Note_on_c, 0, 65, 127
2, 168576, Note_on_c, 0, 65, 0
2, 168576, Note_on_c, 0, 63, 127
2, 168672, Note_on_c, 0, 63, 0
2, 168672, Note_on_c, 0, 62, 127
2, 168768, Note_on_c, 0, 62, 0
2, 168768, Note_on_c, 0, 63, 127
2, 168864, Note_on_c, 0, 63, 0
2, 168864, Note_on_c, 0, 65, 127
2, 168912, Note_on_c, 0, 65, 0
2, 168912, Note_on_c, 0, 63, 127
2, 168960, Note_on_c, 0, 63, 0
2, 168960, Note_on_c, 0, 62, 127
2, 169008, Note_on_c, 0, 62, 0
2, 169008, Note_on_c, 0, 63, 127
2, 169056, Note_on_c, 0, 63, 0
2, 169056, Note_on_c, 0, 65, 127
2, 169152, Note_on_c, 0, 65, 0
2, 169152, Note_on_c, 0, 67, 127
2, 169248, Note_on_c, 0, 67, 0
2, 169248, Note_on_c, 0, 68, 127
2, 169296, Note_on_c, 0, 68, 0
2, 169296, Note_on_c, 0, 67, 127
2, 169344, Note_on_c, 0, 67, 0
2, 169344, Note_on_c, 0, 65, 127
2, 169392, Note_on_c, 0, 65, 0
2, 169392, Note_on_c, 0, 67, 127
2, 169440, Note_on_c, 0, 67, 0
2, 169440, Note_on_c, 0, 65, 127
2, 169440, Note_on_c, 0, 68, 127
2, 169488, Note_on_c, 0, 68, 0
2, 169488, Note_on_c, 0, 65, 0
2, 169632, Note_on_c, 0, 63, 127
2, 169632, Note_on_c, 0, 67, 127
2, 169680, Note_on_c, 0, 67, 0
2, 169680, Note_on_c, 0, 63, 0
2, 169824, Note_on_c, 0, 62, 127
2, 169824, Note_on_c, 0, 65, 127
2, 170208, Note_on_c, 0, 65, 0
2, 170208, Note_on_c, 0, 62, 0
2, 170208, Note_on_c, 0, 67, 127
2, 170304, Note_on_c, 0, 67, 0
2, 170304, Note_on_c, 0, 63, 127
2, 170400, Note_on_c, 0, 63, 0
2, 170400, Note_on_c, 0, 62, 127
2, 170496, Note_on_c, 0, 62, 0
2, 170496, Note_on_c, 0, 63, 127
2, 170592, Note_on_c, 0, 63, 0
2, 170592, Note_on_c, 0, 65, 127
2, 170688, Note_on_c, 0, 65, 0
2, 170688, Note_on_c, 0, 63, 127
2, 170784, Note_on_c, 0, 63, 0
2, 170784, Note_on_c, 0, 62, 127
2, 170880, Note_on_c, 0, 62, 0
2, 170880, Note_on_c, 0, 63, 127
2, 170976, Note_on_c, 0, 63, 0
2, 170976, Note_on_c, 0, 65, 127
2, 171072, Note_on_c, 0, 65, 0
2, 171072, Note_on_c, 0, 62, 127
2, 171168, Note_on_c, 0, 62, 0
2, 171168, Note_on_c, 0, 71, 127
2, 171264, Note_on_c, 0, 71, 0
2, 171264, Note_on_c, 0, 62, 127
2, 171360, Note_on_c, 0, 62, 0
2, 171360, Note_on_c, 0, 63, 127
2, 171456, Note_on_c, 0, 63, 0
2, 171456, Note_on_c, 0, 62, 127
2, 171552, Note_on_c, 0, 62, 0
2, 171552, Note_on_c, 0, 60, 127
2, 171648, Note_on_c, 0, 60, 0
2, 171648, Note_on_c, 0, 62, 127
2, 171744, Note_on_c, 0, 62, 0
2, 171744, Note_on_c, 0, 63, 127
2, 171840, Note_on_c, 0, 63, 0
2, 171840, Note_on_c, 0, 60, 127
2, 171936, Note_on_c, 0, 60, 0
2, 171936, Note_on_c, 0, 65, 127
2, 172032, Note_on_c, 0, 65, 0
2, 172032, Note_on_c, 0, 60, 127
2, 172128, Note_on_c, 0, 60, 0
2, 172128, Note_on_c, 0, 67, 127
2, 172224, Note_on_c, 0, 67, 0
2, 172224, Note_on_c, 0, 60, 127
2, 172320, Note_on_c, 0, 60, 0
2, 172320, Note_on_c, 0, 69, 127
2, 172416, Note_on_c, 0, 69, 0
2, 172416, Note_on_c, 0, 60, 127
2, 172512, Note_on_c, 0, 60, 0
2, 172512, Note_on_c, 0, 70, 127
2, 172608, Note_on_c, 0, 70, 0
2, 172608, Note_on_c, 0, 60, 127
2, 172704, Note_on_c, 0, 60, 0
2, 172704, Note_on_c, 0, 72, 127
2, 172800, Note_on_c, 0, 72, 0
2, 172800, Note_on_c, 0, 60, 127
2, 172896, Note_on_c, 0, 60, 0
2, 172896, Note_on_c, 0, 70, 127
2, 172992, Note_on_c, 0, 70, 0
2, 172992, Note_on_c, 0, 69, 127
2, 173088, Note_on_c, 0, 69, 0
2, 173088, Note_on_c, 0, 67, 127
2, 173184, Note_on_c, 0, 67, 0
2, 173184, Note_on_c, 0, 65, 127
2, 173280, Note_on_c, 0, 65, 0
2, 173280, Note_on_c, 0, 70, 127
2, 173328, Note_on_c, 0, 70, 0
2, 173472, Note_on_c, 0, 77, 127
2, 173520, Note_on_c, 0, 77, 0
2, 173664, Note_on_c, 0, 79, 127
2, 173696, Note_on_c, 0, 79, 0
2, 173696, Note_on_c, 0, 77, 127
2, 173728, Note_on_c, 0, 77, 0
2, 173728, Note_on_c, 0, 79, 127
2, 173760, Note_on_c, 0, 79, 0
2, 173760, Note_on_c, 0, 77, 127
2, 173792, Note_on_c, 0, 77, 0
2, 173792, Note_on_c, 0, 75, 127
2, 173824, Note_on_c, 0, 75, 0
2, 173824, Note_on_c, 0, 77, 127
2, 173856, Note_on_c, 0, 77, 0
2, 173856, Note_on_c, 0, 79, 127
2, 173952, Note_on_c, 0, 79, 0
2, 173952, Note_on_c, 0, 77, 127
2, 174048, Note_on_c, 0, 77, 0
2, 174048, Note_on_c, 0, 75, 127
2, 174144, Note_on_c, 0, 75, 0
2, 174144, Note_on_c, 0, 74, 127
2, 174240, Note_on_c, 0, 74, 0
2, 174240, Note_on_c, 0, 72, 127
2, 174336, Note_on_c, 0, 72, 0
2, 174336, Note_on_c, 0, 70, 127
2, 174432, Note_on_c, 0, 70, 0
2, 174432, Note_on_c, 0, 69, 127
2, 174528, Note_on_c, 0, 69, 0
2, 174528, Note_on_c, 0, 70, 127
2, 174624, Note_on_c, 0, 70, 0
2, 174624, Note_on_c, 0, 72, 127
2, 174672, Note_on_c, 0, 72, 0
2, 174672, Note_on_c, 0, 70, 127
2, 174720, Note_on_c, 0, 70, 0
2, 174720, Note_on_c, 0, 69, 127
2, 174768, Note_on_c, 0, 69, 0
2, 174768, Note_on_c, 0, 70, 127
2, 174816, Note_on_c, 0, 70, 0
2, 174816, Note_on_c, 0, 72, 127
2, 174912, Note_on_c, 0, 72, 0
2, 174912, Note_on_c, 0, 74, 127
2, 175008, Note_on_c, 0, 74, 0
2, 175008, Note_on_c, 0, 75, 127
2, 175056, Note_on_c, 0, 75, 0
2, 175056, Note_on_c, 0, 74, 127
2, 175104, Note_on_c, 0, 74, 0
2, 175104, Note_on_c, 0, 72, 127
2, 175152, Note_on_c, 0, 72, 0
2, 175152, Note_on_c, 0, 74, 127
2, 175200, Note_on_c, 0, 74, 0
2, 175200, Note_on_c, 0, 75, 127
2, 175296, Note_on_c, 0, 75, 0
2, 175296, Note_on_c, 0, 74, 127
2, 175392, Note_on_c, 0, 74, 0
2, 175392, Note_on_c, 0, 72, 127
2, 175488, Note_on_c, 0, 72, 0
2, 175488, Note_on_c, 0, 75, 127
2, 175584, Note_on_c, 0, 75, 0
2, 175584, Note_on_c, 0, 74, 127
2, 175680, Note_on_c, 0, 74, 0
2, 175680, Note_on_c, 0, 72, 127
2, 175776, Note_on_c, 0, 72, 0
2, 175776, Note_on_c, 0, 70, 127
2, 175872, Note_on_c, 0, 70, 0
2, 175872, Note_on_c, 0, 69, 127
2, 175968, Note_on_c, 0, 69, 0
2, 175968, Note_on_c, 0, 72, 127
2, 176064, Note_on_c, 0, 72, 0
2, 176064, Note_on_c, 0, 70, 127
2, 176160, Note_on_c, 0, 70, 0
2, 176160, Note_on_c, 0, 69, 127
2, 176256, Note_on_c, 0, 69, 0
2, 176256, Note_on_c, 0, 70, 127
2, 176352, Note_on_c, 0, 70, 0
2, 176352, Note_on_c, 0, 75, 127
2, 176448, Note_on_c, 0, 75, 0
2, 176448, Note_on_c, 0, 70, 127
2, 176544, Note_on_c, 0, 70, 0
2, 176544, Note_on_c, 0, 74, 127
2, 176640, Note_on_c, 0, 74, 0
2, 176640, Note_on_c, 0, 70, 127
2, 176736, Note_on_c, 0, 70, 0
2, 176736, Note_on_c, 0, 79, 127
2, 176832, Note_on_c, 0, 79, 0
2, 176832, Note_on_c, 0, 70, 127
2, 176928, Note_on_c, 0, 70, 0
2, 176928, Note_on_c, 0, 69, 127
2, 177024, Note_on_c, 0, 69, 0
2, 177024, Note_on_c, 0, 70, 127
2, 177120, Note_on_c, 0, 70, 0
2, 177120, Note_on_c, 0, 79, 127
2, 177216, Note_on_c, 0, 79, 0
2, 177216, Note_on_c, 0, 70, 127
2, 177312, Note_on_c, 0, 70, 0
2, 177312, Note_on_c, 0, 77, 127
2, 177408, Note_on_c, 0, 77, 0
2, 177408, Note_on_c, 0, 70, 127
2, 177504, Note_on_c, 0, 70, 0
2, 177504, Note_on_c, 0, 75, 127
2, 177600, Note_on_c, 0, 75, 0
2, 177600, Note_on_c, 0, 70, 127
2, 177696, Note_on_c, 0, 70, 0
2, 177696, Note_on_c, 0, 69, 127
2, 177792, Note_on_c, 0, 69, 0
2, 177792, Note_on_c, 0, 70, 127
2, 177888, Note_on_c, 0, 70, 0
2, 177888, Note_on_c, 0, 75, 127
2, 177984, Note_on_c, 0, 75, 0
2, 177984, Note_on_c, 0, 70, 127
2, 178080, Note_on_c, 0, 70, 0
2, 178080, Note_on_c, 0, 74, 127
2, 178176, Note_on_c, 0, 74, 0
2, 178176, Note_on_c, 0, 70, 127
2, 178272, Note_on_c, 0, 70, 0
2, 178272, Note_on_c, 0, 72, 127
2, 178368, Note_on_c, 0, 72, 0
2, 178368, Note_on_c, 0, 70, 127
2, 178464, Note_on_c, 0, 70, 0
2, 178464, Note_on_c, 0, 69, 127
2, 178560, Note_on_c, 0, 69, 0
2, 178560, Note_on_c, 0, 70, 127
2, 178656, Note_on_c, 0, 70, 0
2, 178656, Note_on_c, 0, 76, 127
2, 178752, Note_on_c, 0, 76, 0
2, 178752, Note_on_c, 0, 70, 127
2, 178848, Note_on_c, 0, 70, 0
2, 178848, Note_on_c, 0, 79, 127
2, 178944, Note_on_c, 0, 79, 0
2, 178944, Note_on_c, 0, 70, 127
2, 179040, Note_on_c, 0, 70, 0
2, 179040, Note_on_c, 0, 69, 127
2, 179136, Note_on_c, 0, 69, 0
2, 179136, Note_on_c, 0, 70, 127
2, 179232, Note_on_c, 0, 70, 0
2, 179232, Note_on_c, 0, 72, 127
2, 179520, Note_on_c, 0, 72, 0
2, 179520, Note_on_c, 0, 70, 127
2, 179616, Note_on_c, 0, 70, 0
2, 179616, Note_on_c, 0, 69, 127
2, 179712, Note_on_c, 0, 69, 0
2, 179712, Note_on_c, 0, 70, 127
2, 179808, Note_on_c, 0, 70, 0
2, 179808, Note_on_c, 0, 79, 127
2, 179904, Note_on_c, 0, 79, 0
2, 179904, Note_on_c, 0, 70, 127
2, 180000, Note_on_c, 0, 70, 0
2, 180000, Note_on_c, 0, 69, 127
2, 180096, Note_on_c, 0, 69, 0
2, 180096, Note_on_c, 0, 70, 127
2, 180192, Note_on_c, 0, 70, 0
2, 180192, Note_on_c, 0, 81, 127
2, 180288, Note_on_c, 0, 81, 0
2, 180288, Note_on_c, 0, 70, 127
2, 180384, Note_on_c, 0, 70, 0
2, 180384, Note_on_c, 0, 69, 127
2, 180480, Note_on_c, 0, 69, 0
2, 180480, Note_on_c, 0, 70, 127
2, 180576, Note_on_c, 0, 70, 0
2, 180576, Note_on_c, 0, 70, 127
2, 180672, Note_on_c, 0, 70, 0
2, 180672, Note_on_c, 0, 82, 127
2, 180768, Note_on_c, 0, 82, 0
2, 180768, Note_on_c, 0, 81, 127
2, 180864, Note_on_c, 0, 81, 0
2, 180864, Note_on_c, 0, 79, 127
2, 180960, Note_on_c, 0, 79, 0
2, 180960, Note_on_c, 0, 77, 127
2, 181152, Note_on_c, 0, 77, 0
2, 181152, Note_on_c, 0, 75, 127
2, 181248, Note_on_c, 0, 75, 0
2, 181248, Note_on_c, 0, 74, 127
2, 181344, Note_on_c, 0, 74, 0
2, 181344, Note_on_c, 0, 72, 127
2, 181440, Note_on_c, 0, 72, 0
2, 181440, Note_on_c, 0, 70, 127
2, 181536, Note_on_c, 0, 70, 0
2, 181536, Note_on_c, 0, 69, 127
2, 181632, Note_on_c, 0, 69, 0
2, 181632, Note_on_c, 0, 67, 127
2, 181728, Note_on_c, 0, 67, 0
2, 181728, Note_on_c, 0, 65, 127
2, 181824, Note_on_c, 0, 65, 0
2, 181824, Note_on_c, 0, 63, 127
2, 181920, Note_on_c, 0, 63, 0
2, 181920, Note_on_c, 0, 62, 127
2, 182016, Note_on_c, 0, 62, 0
2, 182016, Note_on_c, 0, 60, 127
2, 182112, Note_on_c, 0, 60, 0
2, 182112, Note_on_c, 0, 60, 127
2, 182304, Note_on_c, 0, 60, 0
2, 182304, Note_on_c, 0, 58, 127
2, 182496, Note_on_c, 0, 58, 0
2, 182496, Note_on_c, 0, 67, 127
2, 182592, Note_on_c, 0, 67, 0
2, 182592, Note_on_c, 0, 63, 127
2, 182688, Note_on_c, 0, 63, 0
2, 182688, Note_on_c, 0, 62, 127
2, 182784, Note_on_c, 0, 62, 0
2, 182784, Note_on_c, 0, 63, 127
2, 182880, Note_on_c, 0, 63, 0
2, 182880, Note_on_c, 0, 67, 127
2, 182976, Note_on_c, 0, 67, 0
2, 182976, Note_on_c, 0, 63, 127
2, 183072, Note_on_c, 0, 63, 0
2, 183072, Note_on_c, 0, 68, 127
2, 183168, Note_on_c, 0, 68, 0
2, 183168, Note_on_c, 0, 63, 127
2, 183264, Note_on_c, 0, 63, 0
2, 183264, Note_on_c, 0, 70, 127
2, 183312, Note_on_c, 0, 70, 0
2, 183456, Note_on_c, 0, 72, 127
2, 183504, Note_on_c, 0, 72, 0
2, 183648, Note_on_c, 0, 70, 127
2, 183744, Note_on_c, 0, 70, 0
2, 183744, Note_on_c, 0, 67, 127
2, 183840, Note_on_c, 0, 67, 0
2, 183840, Note_on_c, 0, 65, 127
2, 183936, Note_on_c, 0, 65, 0
2, 183936, Note_on_c, 0, 63, 127
2, 184032, Note_on_c, 0, 63, 0
2, 184032, Note_on_c, 0, 62, 127
2, 184128, Note_on_c, 0, 62, 0
2, 184128, Note_on_c, 0, 63, 127
2, 184224, Note_on_c, 0, 63, 0
2, 184224, Note_on_c, 0, 65, 127
2, 184272, Note_on_c, 0, 65, 0
2, 184272, Note_on_c, 0, 63, 127
2, 184320, Note_on_c, 0, 63, 0
2, 184320, Note_on_c, 0, 62, 127
2, 184368, Note_on_c, 0, 62, 0
2, 184368, Note_on_c, 0, 63, 127
2, 184416, Note_on_c, 0, 63, 0
2, 184416, Note_on_c, 0, 65, 127
2, 184512, Note_on_c, 0, 65, 0
2, 184512, Note_on_c, 0, 67, 127
2, 184608, Note_on_c, 0, 67, 0
2, 184608, Note_on_c, 0, 68, 127
2, 184656, Note_on_c, 0, 68, 0
2, 184656, Note_on_c, 0, 67, 127
2, 184704, Note_on_c, 0, 67, 0
2, 184704, Note_on_c, 0, 65, 127
2, 184752, Note_on_c, 0, 65, 0
2, 184752, Note_on_c, 0, 67, 127
2, 184800, Note_on_c, 0, 67, 0
2, 184800, Note_on_c, 0, 65, 127
2, 184800, Note_on_c, 0, 68, 127
2, 184848, Note_on_c, 0, 68, 0
2, 184848, Note_on_c, 0, 65, 0
2, 184992, Note_on_c, 0, 63, 127
2, 184992, Note_on_c, 0, 67, 127
2, 185040, Note_on_c, 0, 67, 0
2, 185040, Note_on_c, 0, 63, 0
2, 185184, Note_on_c, 0, 62, 127
2, 185184, Note_on_c, 0, 65, 127
2, 185568, Note_on_c, 0, 65, 0
2, 185568, Note_on_c, 0, 62, 0
2, 185568, Note_on_c, 0, 67, 127
2, 185664, Note_on_c, 0, 67, 0
2, 185664, Note_on_c, 0, 63, 127
2, 185760, Note_on_c, 0, 63, 0
2, 185760, Note_on_c, 0, 62, 127
2, 185856, Note_on_c, 0, 62, 0
2, 185856, Note_on_c, 0, 63, 127
2, 185952, Note_on_c, 0, 63, 0
2, 185952, Note_on_c, 0, 67, 127
2, 186048, Note_on_c, 0, 67, 0
2, 186048, Note_on_c, 0, 63, 127
2, 186144, Note_on_c, 0, 63, 0
2, 186144, Note_on_c, 0, 68, 127
2, 186240, Note_on_c, 0, 68, 0
2, 186240, Note_on_c, 0, 63, 127
2, 186336, Note_on_c, 0, 63, 0
2, 186336, Note_on_c, 0, 70, 127
2, 186384, Note_on_c, 0, 70, 0
2, 186528, Note_on_c, 0, 72, 127
2, 186576, Note_on_c, 0, 72, 0
2, 186720, Note_on_c, 0, 70, 127
2, 186816, Note_on_c, 0, 70, 0
2, 186816, Note_on_c, 0, 67, 127
2, 186912, Note_on_c, 0, 67, 0
2, 186912, Note_on_c, 0, 65, 127
2, 187008, Note_on_c, 0, 65, 0
2, 187008, Note_on_c, 0, 63, 127
2, 187104, Note_on_c, 0, 63, 0
2, 187104, Note_on_c, 0, 62, 127
2, 187200, Note_on_c, 0, 62, 0
2, 187200, Note_on_c, 0, 63, 127
2, 187296, Note_on_c, 0, 63, 0
2, 187296, Note_on_c, 0, 65, 127
2, 187344, Note_on_c, 0, 65, 0
2, 187344, Note_on_c, 0, 63, 127
2, 187392, Note_on_c, 0, 63, 0
2, 187392, Note_on_c, 0, 62, 127
2, 187440, Note_on_c, 0, 62, 0
2, 187440, Note_on_c, 0, 63, 127
2, 187488, Note_on_c, 0, 63, 0
2, 187488, Note_on_c, 0, 65, 127
2, 187584, Note_on_c, 0, 65, 0
2, 187584, Note_on_c, 0, 67, 127
2, 187680, Note_on_c, 0, 67, 0
2, 187680, Note_on_c, 0, 68, 127
2, 187728, Note_on_c, 0, 68, 0
2, 187728, Note_on_c, 0, 67, 127
2, 187776, Note_on_c, 0, 67, 0
2, 187776, Note_on_c, 0, 65, 127
2, 187824, Note_on_c, 0, 65, 0
2, 187824, Note_on_c, 0, 67, 127
2, 187872, Note_on_c, 0, 67, 0
2, 187872, Note_on_c, 0, 65, 127
2, 187872, Note_on_c, 0, 68, 127
2, 187920, Note_on_c, 0, 68, 0
2, 187920, Note_on_c, 0, 65, 0
2, 188064, Note_on_c, 0, 63, 127
2, 188064, Note_on_c, 0, 67, 127
2, 188112, Note_on_c, 0, 67, 0
2, 188112, Note_on_c, 0, 63, 0
2, 188256, Note_on_c, 0, 62, 127
2, 188256, Note_on_c, 0, 65, 127
2, 188640, Note_on_c, 0, 65, 0
2, 188640, Note_on_c, 0, 62, 0
2, 188640, Note_on_c, 0, 67, 127
2, 188736, Note_on_c, 0, 67, 0
2, 188736, Note_on_c, 0, 63, 127
2, 188832, Note_on_c, 0, 63, 0
2, 188832, Note_on_c, 0, 62, 127
2, 188928, Note_on_c, 0, 62, 0
2, 188928, Note_on_c, 0, 63, 127
2, 189024, Note_on_c, 0, 63, 0
2, 189024, Note_on_c, 0, 65, 127
2, 189120, Note_on_c, 0, 65, 0
2, 189120, Note_on_c, 0, 63, 127
2, 189216, Note_on_c, 0, 63, 0
2, 189216, Note_on_c, 0, 62, 127
2, 189312, Note_on_c, 0, 62, 0
2, 189312, Note_on_c, 0, 63, 127
2, 189408, Note_on_c, 0, 63, 0
2, 189408, Note_on_c, 0, 65, 127
2, 189504, Note_on_c, 0, 65, 0
2, 189504, Note_on_c, 0, 62, 127
2, 189600, Note_on_c, 0, 62, 0
2, 189600, Note_on_c, 0, 71, 127
2, 189696, Note_on_c, 0, 71, 0
2, 189696, Note_on_c, 0, 62, 127
2, 189792, Note_on_c, 0, 62, 0
2, 189792, Note_on_c, 0, 63, 127
2, 189888, Note_on_c, 0, 63, 0
2, 189888, Note_on_c, 0, 62, 127
2, 189984, Note_on_c, 0, 62, 0
2, 189984, Note_on_c, 0, 60, 127
2, 190080, Note_on_c, 0, 60, 0
2, 190080, Note_on_c, 0, 62, 127
2, 190176, Note_on_c, 0, 62, 0
2, 190176, Note_on_c, 0, 63, 127
2, 190272, Note_on_c, 0, 63, 0
2, 190272, Note_on_c, 0, 60, 127
2, 190368, Note_on_c, 0, 60, 0
2, 190368, Note_on_c, 0, 65, 127
2, 190464, Note_on_c, 0, 65, 0
2, 190464, Note_on_c, 0, 60, 127
2, 190560, Note_on_c, 0, 60, 0
2, 190560, Note_on_c, 0, 67, 127
2, 190656, Note_on_c, 0, 67, 0
2, 190656, Note_on_c, 0, 60, 127
2, 190752, Note_on_c, 0, 60, 0
2, 190752, Note_on_c, 0, 69, 127
2, 190848, Note_on_c, 0, 69, 0
2, 190848, Note_on_c, 0, 60, 127
2, 190944, Note_on_c, 0, 60, 0
2, 190944, Note_on_c, 0, 70, 127
2, 191040, Note_on_c, 0, 70, 0
2, 191040, Note_on_c, 0, 60, 127
2, 191136, Note_on_c, 0, 60, 0
2, 191136, Note_on_c, 0, 72, 127
2, 191232, Note_on_c, 0, 72, 0
2, 191232, Note_on_c, 0, 60, 127
2, 191328, Note_on_c, 0, 60, 0
2, 191328, Note_on_c, 0, 70, 127
2, 191424, Note_on_c, 0, 70, 0
2, 191424, Note_on_c, 0, 69, 127
2, 191520, Note_on_c, 0, 69, 0
2, 191520, Note_on_c, 0, 67, 127
2, 191616, Note_on_c, 0, 67, 0
2, 191616, Note_on_c, 0, 65, 127
2, 191712, Note_on_c, 0, 65, 0
2, 191712, Note_on_c, 0, 70, 127
2, 191760, Note_on_c, 0, 70, 0
2, 191904, Note_on_c, 0, 77, 127
2, 191952, Note_on_c, 0, 77, 0
2, 192096, Note_on_c, 0, 79, 127
2, 192128, Note_on_c, 0, 79, 0
2, 192128, Note_on_c, 0, 77, 127
2, 192160, Note_on_c, 0, 77, 0
2, 192160, Note_on_c, 0, 79, 127
2, 192192, Note_on_c, 0, 79, 0
2, 192192, Note_on_c, 0, 77, 127
2, 192224, Note_on_c, 0, 77, 0
2, 192224, Note_on_c, 0, 75, 127
2, 192256, Note_on_c, 0, 75, 0
2, 192256, Note_on_c, 0, 77, 127
2, 192288, Note_on_c, 0, 77, 0
2, 192288, Note_on_c, 0, 79, 127
2, 192384, Note_on_c, 0, 79, 0
2, 192384, Note_on_c, 0, 77, 127
2, 192480, Note_on_c, 0, 77, 0
2, 192480, Note_on_c, 0, 75, 127
2, 192576, Note_on_c, 0, 75, 0
2, 192576, Note_on_c, 0, 74, 127
2, 192672, Note_on_c, 0, 74, 0
2, 192672, Note_on_c, 0, 72, 127
2, 192768, Note_on_c, 0, 72, 0
2, 192768, Note_on_c, 0, 70, 127
2, 192864, Note_on_c, 0, 70, 0
2, 192864, Note_on_c, 0, 69, 127
2, 192960, Note_on_c, 0, 69, 0
2, 192960, Note_on_c, 0, 70, 127
2, 193056, Note_on_c, 0, 70, 0
2, 193056, Note_on_c, 0, 72, 127
2, 193104, Note_on_c, 0, 72, 0
2, 193104, Note_on_c, 0, 70, 127
2, 193152, Note_on_c, 0, 70, 0
2, 193152, Note_on_c, 0, 69, 127
2, 193200, Note_on_c, 0, 69, 0
2, 193200, Note_on_c, 0, 70, 127
2, 193248, Note_on_c, 0, 70, 0
2, 193248, Note_on_c, 0, 72, 127
2, 193344, Note_on_c, 0, 72, 0
2, 193344, Note_on_c, 0, 74, 127
2, 193440, Note_on_c, 0, 74, 0
2, 193440, Note_on_c, 0, 75, 127
2, 193488, Note_on_c, 0, 75, 0
2, 193488, Note_on_c, 0, 74, 127
2, 193536, Note_on_c, 0, 74, 0
2, 193536, Note_on_c, 0, 72, 127
2, 193584, Note_on_c, 0, 72, 0
2, 193584, Note_on_c, 0, 74, 127
2, 193632, Note_on_c, 0, 74, 0
2, 193632, Note_on_c, 0, 75, 127
2, 193728, Note_on_c, 0, 75, 0
2, 193728, Note_on_c, 0, 74, 127
2, 193824, Note_on_c, 0, 74, 0
2, 193824, Note_on_c, 0, 72, 127
2, 193920, Note_on_c, 0, 72, 0
2, 193920, Note_on_c, 0, 75, 127
2, 194016, Note_on_c, 0, 75, 0
2, 194016, Note_on_c, 0, 74, 127
2, 194112, Note_on_c, 0, 74, 0
2, 194112, Note_on_c, 0, 72, 127
2, 194208, Note_on_c, 0, 72, 0
2, 194208, Note_on_c, 0, 70, 127
2, 194304, Note_on_c, 0, 70, 0
2, 194304, Note_on_c, 0, 69, 127
2, 194400, Note_on_c, 0, 69, 0
2, 194400, Note_on_c, 0, 72, 127
2, 194496, Note_on_c, 0, 72, 0
2, 194496, Note_on_c, 0, 70, 127
2, 194592, Note_on_c, 0, 70, 0
2, 194592, Note_on_c, 0, 69, 127
2, 194688, Note_on_c, 0, 69, 0
2, 194688, Note_on_c, 0, 70, 127
2, 194784, Note_on_c, 0, 70, 0
2, 194784, Note_on_c, 0, 75, 127
2, 194880, Note_on_c, 0, 75, 0
2, 194880, Note_on_c, 0, 70, 127
2, 194976, Note_on_c, 0, 70, 0
2, 194976, Note_on_c, 0, 74, 127
2, 195072, Note_on_c, 0, 74, 0
2, 195072, Note_on_c, 0, 70, 127
2, 195168, Note_on_c, 0, 70, 0
2, 195168, Note_on_c, 0, 79, 127
2, 195264, Note_on_c, 0, 79, 0
2, 195264, Note_on_c, 0, 70, 127
2, 195360, Note_on_c, 0, 70, 0
2, 195360, Note_on_c, 0, 69, 127
2, 195456, Note_on_c, 0, 69, 0
2, 195456, Note_on_c, 0, 70, 127
2, 195552, Note_on_c, 0, 70, 0
2, 195552, Note_on_c, 0, 79, 127
2, 195648, Note_on_c, 0, 79, 0
2, 195648, Note_on_c, 0, 70, 127
2, 195744, Note_on_c, 0, 70, 0
2, 195744, Note_on_c, 0, 77, 127
2, 195840, Note_on_c, 0, 77, 0
2, 195840, Note_on_c, 0, 70, 127
2, 195936, Note_on_c, 0, 70, 0
2, 195936, Note_on_c, 0, 75, 127
2, 196032, Note_on_c, 0, 75, 0
2, 196032, Note_on_c, 0, 70, 127
2, 196128, Note_on_c, 0, 70, 0
2, 196128, Note_on_c, 0, 69, 127
2, 196224, Note_on_c, 0, 69, 0
2, 196224, Note_on_c, 0, 70, 127
2, 196320, Note_on_c, 0, 70, 0
2, 196320, Note_on_c, 0, 75, 127
2, 196416, Note_on_c, 0, 75, 0
2, 196416, Note_on_c, 0, 70, 127
2, 196512, Note_on_c, 0, 70, 0
2, 196512, Note_on_c, 0, 74, 127
2, 196608, Note_on_c, 0, 74, 0
2, 196608, Note_on_c, 0, 70, 127
2, 196704, Note_on_c, 0, 70, 0
2, 196704, Note_on_c, 0, 72, 127
2, 196800, Note_on_c, 0, 72, 0
2, 196800, Note_on_c, 0, 70, 127
2, 196896, Note_on_c, 0, 70, 0
2, 196896, Note_on_c, 0, 69, 127
2, 196992, Note_on_c, 0, 69, 0
2, 196992, Note_on_c, 0, 70, 127
2, 197088, Note_on_c, 0, 70, 0
2, 197088, Note_on_c, 0, 76, 127
2, 197184, Note_on_c, 0, 76, 0
2, 197184, Note_on_c, 0, 70, 127
2, 197280, Note_on_c, 0, 70, 0
2, 197280, Note_on_c, 0, 79, 127
2, 197376, Note_on_c, 0, 79, 0
2, 197376, Note_on_c, 0, 70, 127
2, 197472, Note_on_c, 0, 70, 0
2, 197472, Note_on_c, 0, 69, 127
2, 197568, Note_on_c, 0, 69, 0
2, 197568, Note_on_c, 0, 70, 127
2, 197664, Note_on_c, 0, 70, 0
2, 197664, Note_on_c, 0, 72, 127
2, 197952, Note_on_c, 0, 72, 0
2, 197952, Note_on_c, 0, 70, 127
2, 198048, Note_on_c, 0, 70, 0
2, 198048, Note_on_c, 0, 69, 127
2, 198144, Note_on_c, 0, 69, 0
2, 198144, Note_on_c, 0, 70, 127
2, 198240, Note_on_c, 0, 70, 0
2, 198240, Note_on_c, 0, 79, 127
2, 198336, Note_on_c, 0, 79, 0
2, 198336, Note_on_c, 0, 70, 127
2, 198432, Note_on_c, 0, 70, 0
2, 198432, Note_on_c, 0, 69, 127
2, 198528, Note_on_c, 0, 69, 0
2, 198528, Note_on_c, 0, 70, 127
2, 198624, Note_on_c, 0, 70, 0
2, 198624, Note_on_c, 0, 81, 127
2, 198720, Note_on_c, 0, 81, 0
2, 198720, Note_on_c, 0, 70, 127
2, 198816, Note_on_c, 0, 70, 0
2, 198816, Note_on_c, 0, 69, 127
2, 198912, Note_on_c, 0, 69, 0
2, 198912, Note_on_c, 0, 70, 127
2, 199008, Note_on_c, 0, 70, 0
2, 199008, Note_on_c, 0, 70, 127
2, 199104, Note_on_c, 0, 70, 0
2, 199104, Note_on_c, 0, 82, 127
2, 199200, Note_on_c, 0, 82, 0
2, 199200, Note_on_c, 0, 81, 127
2, 199296, Note_on_c, 0, 81, 0
2, 199296, Note_on_c, 0, 79, 127
2, 199392, Note_on_c, 0, 79, 0
2, 199392, Note_on_c, 0, 77, 127
2, 199584, Note_on_c, 0, 77, 0
2, 199584, Note_on_c, 0, 75, 127
2, 199680, Note_on_c, 0, 75, 0
2, 199680, Note_on_c, 0, 74, 127
2, 199776, Note_on_c, 0, 74, 0
2, 199776, Note_on_c, 0, 72, 127
2, 199872, Note_on_c, 0, 72, 0
2, 199872, Note_on_c, 0, 70, 127
2, 199968, Note_on_c, 0, 70, 0
2, 199968, Note_on_c, 0, 69, 127
2, 200064, Note_on_c, 0, 69, 0
2, 200064, Note_on_c, 0, 67, 127
2, 200160, Note_on_c, 0, 67, 0
2, 200160, Note_on_c, 0, 65, 127
2, 200256, Note_on_c, 0, 65, 0
2, 200256, Note_on_c, 0, 63, 127
2, 200352, Note_on_c, 0, 63, 0
2, 200352, Note_on_c, 0, 62, 127
2, 200448, Note_on_c, 0, 62, 0
2, 200448, Note_on_c, 0, 60, 127
2, 200544, Note_on_c, 0, 60, 0
2, 200544, Note_on_c, 0, 60, 127
2, 200736, Note_on_c, 0, 60, 0
2, 200736, Note_on_c, 0, 58, 127
2, 200928, Note_on_c, 0, 58, 0
2, 200928, Note_on_c, 0, 74, 127
2, 201024, Note_on_c, 0, 74, 0
2, 201024, Note_on_c, 0, 70, 127
2, 201120, Note_on_c, 0, 70, 0
2, 201120, Note_on_c, 0, 69, 127
2, 201216, Note_on_c, 0, 69, 0
2, 201216, Note_on_c, 0, 70, 127
2, 201312, Note_on_c, 0, 70, 0
2, 201312, Note_on_c, 0, 74, 127
2, 201408, Note_on_c, 0, 74, 0
2, 201408, Note_on_c, 0, 70, 127
2, 201504, Note_on_c, 0, 70, 0
2, 201504, Note_on_c, 0, 75, 127
2, 201600, Note_on_c, 0, 75, 0
2, 201600, Note_on_c, 0, 70, 127
2, 201696, Note_on_c, 0, 70, 0
2, 201696, Note_on_c, 0, 77, 127
2, 201744, Note_on_c, 0, 77, 0
2, 201888, Note_on_c, 0, 65, 127
2, 201888, Note_on_c, 0, 68, 127
2, 201936, Note_on_c, 0, 68, 0
2, 201936, Note_on_c, 0, 65, 0
2, 202080, Note_on_c, 0, 70, 127
2, 202112, Note_on_c, 0, 70, 0
2, 202112, Note_on_c, 0, 68, 127
2, 202144, Note_on_c, 0, 68, 0
2, 202144, Note_on_c, 0, 70, 127
2, 202176, Note_on_c, 0, 70, 0
2, 202176, Note_on_c, 0, 68, 127
2, 202272, Note_on_c, 0, 68, 0
2, 202272, Note_on_c, 0, 67, 127
2, 202464, Note_on_c, 0, 67, 0
2, 202464, Note_on_c, 0, 79, 127
2, 202512, Note_on_c, 0, 79, 0
2, 202656, Note_on_c, 0, 67, 127
2, 202656, Note_on_c, 0, 70, 127
2, 202704, Note_on_c, 0, 70, 0
2, 202704, Note_on_c, 0, 67, 0
2, 202848, Note_on_c, 0, 72, 127
2, 202880, Note_on_c, 0, 72, 0
2, 202880, Note_on_c, 0, 70, 127
2, 202912, Note_on_c, 0, 70, 0
2, 202912, Note_on_c, 0, 72, 127
2, 202944, Note_on_c, 0, 72, 0
2, 202944, Note_on_c, 0, 70, 127
2, 203040, Note_on_c, 0, 70, 0
2, 203040, Note_on_c, 0, 68, 127
2, 203232, Note_on_c, 0, 68, 0
2, 203232, Note_on_c, 0, 81, 127
2, 203280, Note_on_c, 0, 81, 0
2, 203424, Note_on_c, 0, 69, 127
2, 203424, Note_on_c, 0, 72, 127
2, 203472, Note_on_c, 0, 72, 0
2, 203472, Note_on_c, 0, 69, 0
2, 203616, Note_on_c, 0, 74, 127
2, 203648, Note_on_c, 0, 74, 0
2, 203648, Note_on_c, 0, 72, 127
2, 203680, Note_on_c, 0, 72, 0
2, 203680, Note_on_c, 0, 74, 127
2, 203712, Note_on_c, 0, 74, 0
2, 203712, Note_on_c, 0, 72, 127
2, 203808, Note_on_c, 0, 72, 0
2, 203808, Note_on_c, 0, 71, 127
2, 204000, Note_on_c, 0, 71, 0
2, 204000, Note_on_c, 0, 75, 127
2, 204096, Note_on_c, 0, 75, 0
2, 204096, Note_on_c, 0, 74, 127
2, 204192, Note_on_c, 0, 74, 0
2, 204192, Note_on_c, 0, 72, 127
2, 204288, Note_on_c, 0, 72, 0
2, 204288, Note_on_c, 0, 74, 127
2, 204384, Note_on_c, 0, 74, 0
2, 204384, Note_on_c, 0, 75, 127
2, 204480, Note_on_c, 0, 75, 0
2, 204480, Note_on_c, 0, 72, 127
2, 204576, Note_on_c, 0, 72, 0
2, 204576, Note_on_c, 0, 76, 127
2, 204672, Note_on_c, 0, 76, 0
2, 204672, Note_on_c, 0, 72, 127
2, 204768, Note_on_c, 0, 72, 0
2, 204768, Note_on_c, 0, 77, 127
2, 204864, Note_on_c, 0, 77, 0
2, 204864, Note_on_c, 0, 72, 127
2, 204960, Note_on_c, 0, 72, 0
2, 204960, Note_on_c, 0, 79, 127
2, 205056, Note_on_c, 0, 79, 0
2, 205056, Note_on_c, 0, 72, 127
2, 205152, Note_on_c, 0, 72, 0
2, 205152, Note_on_c, 0, 80, 127
2, 205248, Note_on_c, 0, 80, 0
2, 205248, Note_on_c, 0, 77, 127
2, 205344, Note_on_c, 0, 77, 0
2, 205344, Note_on_c, 0, 81, 127
2, 205440, Note_on_c, 0, 81, 0
2, 205440, Note_on_c, 0, 77, 127
2, 205536, Note_on_c, 0, 77, 0
2, 205536, Note_on_c, 0, 82, 127
2, 205632, Note_on_c, 0, 82, 0
2, 205632, Note_on_c, 0, 77, 127
2, 205728, Note_on_c, 0, 77, 0
2, 205728, Note_on_c, 0, 83, 127
2, 205824, Note_on_c, 0, 83, 0
2, 205824, Note_on_c, 0, 77, 127
2, 205920, Note_on_c, 0, 77, 0
2, 205920, Note_on_c, 0, 84, 127
2, 206016, Note_on_c, 0, 84, 0
2, 206016, Note_on_c, 0, 82, 127
2, 206064, Note_on_c, 0, 82, 0
2, 206064, Note_on_c, 0, 80, 127
2, 206112, Note_on_c, 0, 80, 0
2, 206112, Note_on_c, 0, 79, 127
2, 206160, Note_on_c, 0, 79, 0
2, 206160, Note_on_c, 0, 77, 127
2, 206208, Note_on_c, 0, 77, 0
2, 206208, Note_on_c, 0, 75, 127
2, 206256, Note_on_c, 0, 75, 0
2, 206256, Note_on_c, 0, 74, 127
2, 206304, Note_on_c, 0, 74, 0
2, 206304, Note_on_c, 0, 75, 127
2, 206400, Note_on_c, 0, 75, 0
2, 206400, Note_on_c, 0, 84, 127
2, 206496, Note_on_c, 0, 84, 0
2, 206496, Note_on_c, 0, 74, 127
2, 206592, Note_on_c, 0, 74, 0
2, 206592, Note_on_c, 0, 83, 127
2, 206688, Note_on_c, 0, 83, 0
2, 206688, Note_on_c, 0, 72, 127
2, 207072, Note_on_c, 0, 72, 0
2, 207072, Note_on_c, 0, 67, 127
2, 207168, Note_on_c, 0, 67, 0
2, 207168, Note_on_c, 0, 63, 127
2, 207264, Note_on_c, 0, 63, 0
2, 207264, Note_on_c, 0, 62, 127
2, 207360, Note_on_c, 0, 62, 0
2, 207360, Note_on_c, 0, 63, 127
2, 207456, Note_on_c, 0, 63, 0
2, 207456, Note_on_c, 0, 67, 127
2, 207552, Note_on_c, 0, 67, 0
2, 207552, Note_on_c, 0, 63, 127
2, 207648, Note_on_c, 0, 63, 0
2, 207648, Note_on_c, 0, 68, 127
2, 207744, Note_on_c, 0, 68, 0
2, 207744, Note_on_c, 0, 63, 127
2, 207840, Note_on_c, 0, 63, 0
2, 207840, Note_on_c, 0, 70, 127
2, 207888, Note_on_c, 0, 70, 0
2, 208032, Note_on_c, 0, 70, 127
2, 208032, Note_on_c, 0, 73, 127
2, 208080, Note_on_c, 0, 70, 0
2, 208080, Note_on_c, 0, 73, 0
2, 208224, Note_on_c, 0, 70, 127
2, 208224, Note_on_c, 0, 73, 127
2, 208416, Note_on_c, 0, 70, 0
2, 208416, Note_on_c, 0, 73, 0
2, 208416, Note_on_c, 0, 68, 127
2, 208416, Note_on_c, 0, 72, 127
2, 208512, Note_on_c, 0, 72, 0
2, 208512, Note_on_c, 0, 68, 0
2, 208512, Note_on_c, 0, 70, 127
2, 208608, Note_on_c, 0, 70, 0
2, 208608, Note_on_c, 0, 69, 127
2, 208704, Note_on_c, 0, 69, 0
2, 208704, Note_on_c, 0, 65, 127
2, 208800, Note_on_c, 0, 65, 0
2, 208800, Note_on_c, 0, 64, 127
2, 208896, Note_on_c, 0, 64, 0
2, 208896, Note_on_c, 0, 65, 127
2, 208992, Note_on_c, 0, 65, 0
2, 208992, Note_on_c, 0, 69, 127
2, 209088, Note_on_c, 0, 69, 0
2, 209088, Note_on_c, 0, 65, 127
2, 209184, Note_on_c, 0, 65, 0
2, 209184, Note_on_c, 0, 70, 127
2, 209280, Note_on_c, 0, 70, 0
2, 209280, Note_on_c, 0, 65, 127
2, 209376, Note_on_c, 0, 65, 0
2, 209376, Note_on_c, 0, 72, 127
2, 209424, Note_on_c, 0, 72, 0
2, 209568, Note_on_c, 0, 72, 127
2, 209568, Note_on_c, 0, 75, 127
2, 209616, Note_on_c, 0, 75, 0
2, 209616, Note_on_c, 0, 72, 0
2, 209760, Note_on_c, 0, 72, 127
2, 209760, Note_on_c, 0, 75, 127
2, 209952, Note_on_c, 0, 75, 0
2, 209952, Note_on_c, 0, 72, 0
2, 209952, Note_on_c, 0, 70, 127
2, 209952, Note_on_c, 0, 74, 127
2, 210144, Note_on_c, 0, 74, 0
2, 210144, Note_on_c, 0, 70, 0
2, 210192, Note_on_c, 0, 70, 127
2, 210240, Note_on_c, 0, 70, 0
2, 210240, Note_on_c, 0, 72, 127
2, 210288, Note_on_c, 0, 72, 0
2, 210288, Note_on_c, 0, 74, 127
2, 210336, Note_on_c, 0, 74, 0
2, 210336, Note_on_c, 0, 75, 127
2, 210384, Note_on_c, 0, 75, 0
2, 210384, Note_on_c, 0, 74, 127
2, 210432, Note_on_c, 0, 74, 0
2, 210432, Note_on_c, 0, 72, 127
2, 210480, Note_on_c, 0, 72, 0
2, 210480, Note_on_c, 0, 74, 127
2, 210528, Note_on_c, 0, 74, 0
2, 210528, Note_on_c, 0, 75, 127
2, 210576, Note_on_c, 0, 75, 0
2, 210576, Note_on_c, 0, 74, 127
2, 210624, Note_on_c, 0, 74, 0
2, 210624, Note_on_c, 0, 75, 127
2, 210672, Note_on_c, 0, 75, 0
2, 210672, Note_on_c, 0, 77, 127
2, 210720, Note_on_c, 0, 77, 0
2, 210720, Note_on_c, 0, 79, 127
2, 210768, Note_on_c, 0, 79, 0
2, 210768, Note_on_c, 0, 77, 127
2, 210816, Note_on_c, 0, 77, 0
2, 210816, Note_on_c, 0, 75, 127
2, 210864, Note_on_c, 0, 75, 0
2, 210864, Note_on_c, 0, 77, 127
2, 210912, Note_on_c, 0, 77, 0
2, 210912, Note_on_c, 0, 79, 127
2, 211488, Note_on_c, 0, 79, 0
2, 211488, Note_on_c, 0, 79, 127
2, 211536, Note_on_c, 0, 79, 0
2, 211680, Note_on_c, 0, 77, 127
2, 212256, Note_on_c, 0, 77, 0
2, 212256, Note_on_c, 0, 77, 127
2, 212304, Note_on_c, 0, 77, 0
2, 212448, Note_on_c, 0, 75, 127
2, 213024, Note_on_c, 0, 75, 0
2, 213024, Note_on_c, 0, 75, 127
2, 213072, Note_on_c, 0, 75, 0
2, 213216, Note_on_c, 0, 74, 127
2, 213792, Note_on_c, 0, 74, 0
2, 213792, Note_on_c, 0, 73, 127
2, 213840, Note_on_c, 0, 73, 0
2, 213984, Note_on_c, 0, 72, 127
2, 214560, Note_on_c, 0, 72, 0
2, 214560, Note_on_c, 0, 70, 127
2, 214656, Note_on_c, 0, 70, 0
2, 214656, Note_on_c, 0, 68, 127
2, 214752, Note_on_c, 0, 68, 0
2, 214752, Note_on_c, 0, 67, 127
2, 215232, Note_on_c, 0, 67, 0
2, 215232, Note_on_c, 0, 65, 127
2, 215328, Note_on_c, 0, 65, 0
2, 215328, Note_on_c, 0, 67, 127
2, 215424, Note_on_c, 0, 67, 0
2, 215424, Note_on_c, 0, 68, 127
2, 215520, Note_on_c, 0, 68, 0
2, 215616, Note_on_c, 0, 68, 127
2, 215712, Note_on_c, 0, 68, 0
2, 215712, Note_on_c, 0, 67, 127
2, 215808, Note_on_c, 0, 67, 0
2, 215808, Note_on_c, 0, 65, 127
2, 215904, Note_on_c, 0, 65, 0
2, 216000, Note_on_c, 0, 68, 127
2, 216096, Note_on_c, 0, 68, 0
2, 216096, Note_on_c, 0, 70, 127
2, 216192, Note_on_c, 0, 70, 0
2, 216192, Note_on_c, 0, 72, 127
2, 216288, Note_on_c, 0, 72, 0
2, 216384, Note_on_c, 0, 72, 127
2, 216480, Note_on_c, 0, 72, 0
2, 216480, Note_on_c, 0, 70, 127
2, 216576, Note_on_c, 0, 70, 0
2, 216576, Note_on_c, 0, 68, 127
2, 216672, Note_on_c, 0, 68, 0
2, 216768, Note_on_c, 0, 72, 127
2, 216864, Note_on_c, 0, 72, 0
2, 216864, Note_on_c, 0, 74, 127
2, 216960, Note_on_c, 0, 74, 0
2, 216960, Note_on_c, 0, 75, 127
2, 217056, Note_on_c, 0, 75, 0
2, 217152, Note_on_c, 0, 75, 127
2, 217248, Note_on_c, 0, 75, 0
2, 217248, Note_on_c, 0, 74, 127
2, 217344, Note_on_c, 0, 74, 0
2, 217344, Note_on_c, 0, 72, 127
2, 217440, Note_on_c, 0, 72, 0
2, 217440, Note_on_c, 0, 70, 127
2, 217824, Note_on_c, 0, 70, 0
2, 217824, Note_on_c, 0, 64, 127
2, 217920, Note_on_c, 0, 64, 0
2, 217920, Note_on_c, 0, 65, 127
2, 218016, Note_on_c, 0, 65, 0
2, 218016, Note_on_c, 0, 67, 127
2, 218112, Note_on_c, 0, 67, 0
2, 218112, Note_on_c, 0, 68, 127
2, 218208, Note_on_c, 0, 68, 0
2, 218208, Note_on_c, 0, 70, 127
2, 218304, Note_on_c, 0, 70, 0
2, 218304, Note_on_c, 0, 68, 127
2, 218400, Note_on_c, 0, 68, 0
2, 218400, Note_on_c, 0, 67, 127
2, 218496, Note_on_c, 0, 67, 0
2, 218496, Note_on_c, 0, 68, 127
2, 218592, Note_on_c, 0, 68, 0
2, 218592, Note_on_c, 0, 70, 127
2, 218688, Note_on_c, 0, 70, 0
2, 218688, Note_on_c, 0, 67, 127
2, 218784, Note_on_c, 0, 67, 0
2, 218784, Note_on_c, 0, 76, 127
2, 218880, Note_on_c, 0, 76, 0
2, 218880, Note_on_c, 0, 67, 127
2, 218976, Note_on_c, 0, 67, 0
2, 218976, Note_on_c, 0, 68, 127
2, 219072, Note_on_c, 0, 68, 0
2, 219072, Note_on_c, 0, 67, 127
2, 219168, Note_on_c, 0, 67, 0
2, 219168, Note_on_c, 0, 65, 127
2, 219264, Note_on_c, 0, 65, 0
2, 219264, Note_on_c, 0, 67, 127
2, 219360, Note_on_c, 0, 67, 0
2, 219360, Note_on_c, 0, 68, 127
2, 219456, Note_on_c, 0, 68, 0
2, 219456, Note_on_c, 0, 65, 127
2, 219552, Note_on_c, 0, 65, 0
2, 219552, Note_on_c, 0, 70, 127
2, 219648, Note_on_c, 0, 70, 0
2, 219648, Note_on_c, 0, 65, 127
2, 219744, Note_on_c, 0, 65, 0
2, 219744, Note_on_c, 0, 72, 127
2, 219840, Note_on_c, 0, 72, 0
2, 219840, Note_on_c, 0, 65, 127
2, 219936, Note_on_c, 0, 65, 0
2, 219936, Note_on_c, 0, 74, 127
2, 220032, Note_on_c, 0, 74, 0
2, 220032, Note_on_c, 0, 65, 127
2, 220128, Note_on_c, 0, 65, 0
2, 220128, Note_on_c, 0, 75, 127
2, 220224, Note_on_c, 0, 75, 0
2, 220224, Note_on_c, 0, 65, 127
2, 220320, Note_on_c, 0, 65, 0
2, 220320, Note_on_c, 0, 77, 127
2, 220416, Note_on_c, 0, 77, 0
2, 220416, Note_on_c, 0, 65, 127
2, 220512, Note_on_c, 0, 65, 0
2, 220512, Note_on_c, 0, 75, 127
2, 220608, Note_on_c, 0, 75, 0
2, 220608, Note_on_c, 0, 74, 127
2, 220704, Note_on_c, 0, 74, 0
2, 220704, Note_on_c, 0, 72, 127
2, 220800, Note_on_c, 0, 72, 0
2, 220800, Note_on_c, 0, 70, 127
2, 220896, Note_on_c, 0, 70, 0
2, 220896, Note_on_c, 0, 75, 127
2, 220944, Note_on_c, 0, 75, 0
2, 221088, Note_on_c, 0, 82, 127
2, 221136, Note_on_c, 0, 82, 0
2, 221280, Note_on_c, 0, 84, 127
2, 221312, Note_on_c, 0, 84, 0
2, 221312, Note_on_c, 0, 82, 127
2, 221344, Note_on_c, 0, 82, 0
2, 221344, Note_on_c, 0, 84, 127
2, 221376, Note_on_c, 0, 84, 0
2, 221376, Note_on_c, 0, 82, 127
2, 221408, Note_on_c, 0, 82, 0
2, 221408, Note_on_c, 0, 80, 127
2, 221440, Note_on_c, 0, 80, 0
2, 221440, Note_on_c, 0, 82, 127
2, 221472, Note_on_c, 0, 82, 0
2, 221472, Note_on_c, 0, 84, 127
2, 221568, Note_on_c, 0, 84, 0
2, 221568, Note_on_c, 0, 82, 127
2, 221664, Note_on_c, 0, 82, 0
2, 221664, Note_on_c, 0, 80, 127
2, 221760, Note_on_c, 0, 80, 0
2, 221760, Note_on_c, 0, 79, 127
2, 221856, Note_on_c, 0, 79, 0
2, 221856, Note_on_c, 0, 77, 127
2, 221952, Note_on_c, 0, 77, 0
2, 221952, Note_on_c, 0, 75, 127
2, 222048, Note_on_c, 0, 75, 0
2, 222048, Note_on_c, 0, 74, 127
2, 222144, Note_on_c, 0, 74, 0
2, 222144, Note_on_c, 0, 75, 127
2, 222240, Note_on_c, 0, 75, 0
2, 222240, Note_on_c, 0, 77, 127
2, 222288, Note_on_c, 0, 77, 0
2, 222288, Note_on_c, 0, 75, 127
2, 222336, Note_on_c, 0, 75, 0
2, 222336, Note_on_c, 0, 74, 127
2, 222384, Note_on_c, 0, 74, 0
2, 222384, Note_on_c, 0, 75, 127
2, 222432, Note_on_c, 0, 75, 0
2, 222432, Note_on_c, 0, 77, 127
2, 222528, Note_on_c, 0, 77, 0
2, 222528, Note_on_c, 0, 79, 127
2, 222624, Note_on_c, 0, 79, 0
2, 222624, Note_on_c, 0, 80, 127
2, 222672, Note_on_c, 0, 80, 0
2, 222672, Note_on_c, 0, 79, 127
2, 222720, Note_on_c, 0, 79, 0
2, 222720, Note_on_c, 0, 77, 127
2, 222768, Note_on_c, 0, 77, 0
2, 222768, Note_on_c, 0, 79, 127
2, 222816, Note_on_c, 0, 79, 0
2, 222816, Note_on_c, 0, 80, 127
2, 222912, Note_on_c, 0, 80, 0
2, 222912, Note_on_c, 0, 79, 127
2, 223008, Note_on_c, 0, 79, 0
2, 223008, Note_on_c, 0, 77, 127
2, 223104, Note_on_c, 0, 77, 0
2, 223104, Note_on_c, 0, 80, 127
2, 223200, Note_on_c, 0, 80, 0
2, 223200, Note_on_c, 0, 79, 127
2, 223296, Note_on_c, 0, 79, 0
2, 223296, Note_on_c, 0, 77, 127
2, 223392, Note_on_c, 0, 77, 0
2, 223392, Note_on_c, 0, 75, 127
2, 223488, Note_on_c, 0, 75, 0
2, 223488, Note_on_c, 0, 74, 127
2, 223584, Note_on_c, 0, 74, 0
2, 223584, Note_on_c, 0, 77, 127
2, 223680, Note_on_c, 0, 77, 0
2, 223680, Note_on_c, 0, 75, 127
2, 223776, Note_on_c, 0, 75, 0
2, 223776, Note_on_c, 0, 74, 127
2, 223872, Note_on_c, 0, 74, 0
2, 223872, Note_on_c, 0, 75, 127
2, 223968, Note_on_c, 0, 75, 0
2, 223968, Note_on_c, 0, 68, 127
2, 224064, Note_on_c, 0, 68, 0
2, 224064, Note_on_c, 0, 75, 127
2, 224160, Note_on_c, 0, 75, 0
2, 224160, Note_on_c, 0, 67, 127
2, 224256, Note_on_c, 0, 67, 0
2, 224256, Note_on_c, 0, 75, 127
2, 224352, Note_on_c, 0, 75, 0
2, 224352, Note_on_c, 0, 72, 127
2, 224448, Note_on_c, 0, 72, 0
2, 224448, Note_on_c, 0, 75, 127
2, 224544, Note_on_c, 0, 75, 0
2, 224544, Note_on_c, 0, 74, 127
2, 224640, Note_on_c, 0, 74, 0
2, 224640, Note_on_c, 0, 75, 127
2, 224736, Note_on_c, 0, 75, 0
2, 224736, Note_on_c, 0, 72, 127
2, 224832, Note_on_c, 0, 72, 0
2, 224832, Note_on_c, 0, 75, 127
2, 224928, Note_on_c, 0, 75, 0
2, 224928, Note_on_c, 0, 70, 127
2, 225024, Note_on_c, 0, 70, 0
2, 225024, Note_on_c, 0, 75, 127
2, 225120, Note_on_c, 0, 75, 0
2, 225120, Note_on_c, 0, 68, 127
2, 225216, Note_on_c, 0, 68, 0
2, 225216, Note_on_c, 0, 75, 127
2, 225312, Note_on_c, 0, 75, 0
2, 225312, Note_on_c, 0, 74, 127
2, 225408, Note_on_c, 0, 74, 0
2, 225408, Note_on_c, 0, 75, 127
2, 225504, Note_on_c, 0, 75, 0
2, 225504, Note_on_c, 0, 68, 127
2, 225600, Note_on_c, 0, 68, 0
2, 225600, Note_on_c, 0, 75, 127
2, 225696, Note_on_c, 0, 75, 0
2, 225696, Note_on_c, 0, 67, 127
2, 225792, Note_on_c, 0, 67, 0
2, 225792, Note_on_c, 0, 75, 127
2, 225888, Note_on_c, 0, 75, 0
2, 225888, Note_on_c, 0, 65, 127
2, 225984, Note_on_c, 0, 65, 0
2, 225984, Note_on_c, 0, 75, 127
2, 226080, Note_on_c, 0, 75, 0
2, 226080, Note_on_c, 0, 69, 127
2, 226176, Note_on_c, 0, 69, 0
2, 226176, Note_on_c, 0, 75, 127
2, 226272, Note_on_c, 0, 75, 0
2, 226272, Note_on_c, 0, 72, 127
2, 226368, Note_on_c, 0, 72, 0
2, 226368, Note_on_c, 0, 75, 127
2, 226464, Note_on_c, 0, 75, 0
2, 226464, Note_on_c, 0, 65, 127
2, 226560, Note_on_c, 0, 65, 0
2, 226560, Note_on_c, 0, 75, 127
2, 226656, Note_on_c, 0, 75, 0
2, 226656, Note_on_c, 0, 75, 127
2, 226752, Note_on_c, 0, 75, 0
2, 226752, Note_on_c, 0, 74, 127
2, 226848, Note_on_c, 0, 74, 0
2, 226848, Note_on_c, 0, 72, 127
2, 226944, Note_on_c, 0, 72, 0
2, 226944, Note_on_c, 0, 70, 127
2, 227040, Note_on_c, 0, 70, 0
2, 227040, Note_on_c, 0, 82, 127
2, 227136, Note_on_c, 0, 82, 0
2, 227136, Note_on_c, 0, 80, 127
2, 227232, Note_on_c, 0, 80, 0
2, 227232, Note_on_c, 0, 82, 127
2, 227328, Note_on_c, 0, 82, 0
2, 227328, Note_on_c, 0, 73, 127
2, 227424, Note_on_c, 0, 73, 0
2, 227424, Note_on_c, 0, 72, 127
2, 227616, Note_on_c, 0, 72, 0
2, 227616, Note_on_c, 0, 80, 127
2, 227808, Note_on_c, 0, 80, 0
2, 227808, Note_on_c, 0, 79, 127
2, 228000, Note_on_c, 0, 79, 0
2, 228000, Note_on_c, 0, 70, 127
2, 228192, Note_on_c, 0, 70, 0
2, 228192, Note_on_c, 0, 68, 127
2, 228384, Note_on_c, 0, 68, 0
2, 228384, Note_on_c, 0, 77, 127
2, 228576, Note_on_c, 0, 77, 0
2, 228576, Note_on_c, 0, 75, 127
2, 228768, Note_on_c, 0, 75, 0
2, 228768, Note_on_c, 0, 67, 127
2, 228960, Note_on_c, 0, 67, 0
2, 228960, Note_on_c, 0, 65, 127
2, 229152, Note_on_c, 0, 65, 0
2, 229152, Note_on_c, 0, 68, 127
2, 229344, Note_on_c, 0, 68, 0
2, 229344, Note_on_c, 0, 74, 127
2, 229536, Note_on_c, 0, 74, 0
2, 229536, Note_on_c, 0, 65, 127
2, 229632, Note_on_c, 0, 65, 0
2, 229632, Note_on_c, 0, 67, 127
2, 229728, Note_on_c, 0, 67, 0
2, 229728, Note_on_c, 0, 68, 127
2, 229824, Note_on_c, 0, 68, 0
2, 229824, Note_on_c, 0, 67, 127
2, 229920, Note_on_c, 0, 67, 0
2, 229920, Note_on_c, 0, 65, 127
2, 230016, Note_on_c, 0, 65, 0
2, 230016, Note_on_c, 0, 63, 127
2, 230112, Note_on_c, 0, 63, 0
2, 230112, Note_on_c, 0, 70, 127
2, 230208, Note_on_c, 0, 70, 0
2, 230208, Note_on_c, 0, 63, 127
2, 230304, Note_on_c, 0, 63, 0
2, 230304, Note_on_c, 0, 62, 127
2, 230400, Note_on_c, 0, 62, 0
2, 230400, Note_on_c, 0, 63, 127
2, 230496, Note_on_c, 0, 63, 0
2, 230496, Note_on_c, 0, 72, 127
2, 230592, Note_on_c, 0, 72, 0
2, 230592, Note_on_c, 0, 63, 127
2, 230688, Note_on_c, 0, 63, 0
2, 230688, Note_on_c, 0, 62, 127
2, 230784, Note_on_c, 0, 62, 0
2, 230784, Note_on_c, 0, 63, 127
2, 230880, Note_on_c, 0, 63, 0
2, 230880, Note_on_c, 0, 74, 127
2, 230976, Note_on_c, 0, 74, 0
2, 230976, Note_on_c, 0, 63, 127
2, 231072, Note_on_c, 0, 63, 0
2, 231072, Note_on_c, 0, 62, 127
2, 231168, Note_on_c, 0, 62, 0
2, 231168, Note_on_c, 0, 63, 127
2, 231264, Note_on_c, 0, 63, 0
2, 231264, Note_on_c, 0, 75, 127
2, 231456, Note_on_c, 0, 75, 0
2, 231456, Note_on_c, 0, 69, 127
2, 231744, Note_on_c, 0, 69, 0
2, 231744, Note_on_c, 0, 70, 127
2, 231840, Note_on_c, 0, 70, 0
2, 231840, Note_on_c, 0, 63, 127
2, 232176, Note_on_c, 0, 63, 0
2, 232176, Note_on_c, 0, 65, 127
2, 232224, Note_on_c, 0, 65, 0
2, 232224, Note_on_c, 0, 63, 127
2, 232272, Note_on_c, 0, 63, 0
2, 232272, Note_on_c, 0, 62, 127
2, 232320, Note_on_c, 0, 62, 0
2, 232320, Note_on_c, 0, 63, 127
2, 232368, Note_on_c, 0, 63, 0
2, 232368, Note_on_c, 0, 65, 127
2, 232416, Note_on_c, 0, 65, 0
2, 232416, Note_on_c, 0, 63, 127
2, 232448, Note_on_c, 0, 63, 0
2, 232448, Note_on_c, 0, 65, 127
2, 232480, Note_on_c, 0, 65, 0
2, 232480, Note_on_c, 0, 67, 127
2, 232512, Note_on_c, 0, 67, 0
2, 232512, Note_on_c, 0, 65, 127
2, 232536, Note_on_c, 0, 65, 0
2, 232536, Note_on_c, 0, 67, 127
2, 232560, Note_on_c, 0, 67, 0
2, 232560, Note_on_c, 0, 65, 127
2, 232584, Note_on_c, 0, 65, 0
2, 232584, Note_on_c, 0, 67, 127
2, 232608, Note_on_c, 0, 67, 0
2, 232608, Note_on_c, 0, 65, 127
2, 232752, Note_on_c, 0, 65, 0
2, 232752, Note_on_c, 0, 63, 127
2, 232784, Note_on_c, 0, 63, 0
2, 232800, Note_on_c, 0, 63, 127
2, 233184, Note_on_c, 0, 63, 0
2, 233184, Note_on_c, 0, 74, 127
2, 233280, Note_on_c, 0, 74, 0
2, 233280, Note_on_c, 0, 70, 127
2, 233376, Note_on_c, 0, 70, 0
2, 233376, Note_on_c, 0, 69, 127
2, 233472, Note_on_c, 0, 69, 0
2, 233472, Note_on_c, 0, 70, 127
2, 233568, Note_on_c, 0, 70, 0
2, 233568, Note_on_c, 0, 74, 127
2, 233664, Note_on_c, 0, 74, 0
2, 233664, Note_on_c, 0, 70, 127
2, 233760, Note_on_c, 0, 70, 0
2, 233760, Note_on_c, 0, 75, 127
2, 233856, Note_on_c, 0, 75, 0
2, 233856, Note_on_c, 0, 70, 127
2, 233952, Note_on_c, 0, 70, 0
2, 233952, Note_on_c, 0, 77, 127
2, 234000, Note_on_c, 0, 77, 0
2, 234144, Note_on_c, 0, 65, 127
2, 234144, Note_on_c, 0, 68, 127
2, 234192, Note_on_c, 0, 68, 0
2, 234192, Note_on_c, 0, 65, 0
2, 234336, Note_on_c, 0, 70, 127
2, 234368, Note_on_c, 0, 70, 0
2, 234368, Note_on_c, 0, 68, 127
2, 234400, Note_on_c, 0, 68, 0
2, 234400, Note_on_c, 0, 70, 127
2, 234432, Note_on_c, 0, 70, 0
2, 234432, Note_on_c, 0, 68, 127
2, 234528, Note_on_c, 0, 68, 0
2, 234528, Note_on_c, 0, 67, 127
2, 234720, Note_on_c, 0, 67, 0
2, 234720, Note_on_c, 0, 79, 127
2, 234768, Note_on_c, 0, 79, 0
2, 234912, Note_on_c, 0, 67, 127
2, 234912, Note_on_c, 0, 70, 127
2, 234960, Note_on_c, 0, 70, 0
2, 234960, Note_on_c, 0, 67, 0
2, 235104, Note_on_c, 0, 72, 127
2, 235136, Note_on_c, 0, 72, 0
2, 235136, Note_on_c, 0, 70, 127
2, 235168, Note_on_c, 0, 70, 0
2, 235168, Note_on_c, 0, 72, 127
2, 235200, Note_on_c, 0, 72, 0
2, 235200, Note_on_c, 0, 70, 127
2, 235296, Note_on_c, 0, 70, 0
2, 235296, Note_on_c, 0, 68, 127
2, 235488, Note_on_c, 0, 68, 0
2, 235488, Note_on_c, 0, 81, 127
2, 235536, Note_on_c, 0, 81, 0
2, 235680, Note_on_c, 0, 69, 127
2, 235680, Note_on_c, 0, 72, 127
2, 235728, Note_on_c, 0, 72, 0
2, 235728, Note_on_c, 0, 69, 0
2, 235872, Note_on_c, 0, 74, 127
2, 235904, Note_on_c, 0, 74, 0
2, 235904, Note_on_c, 0, 72, 127
2, 235936, Note_on_c, 0, 72, 0
2, 235936, Note_on_c, 0, 74, 127
2, 235968, Note_on_c, 0, 74, 0
2, 235968, Note_on_c, 0, 72, 127
2, 236064, Note_on_c, 0, 72, 0
2, 236064, Note_on_c, 0, 71, 127
2, 236256, Note_on_c, 0, 71, 0
2, 236256, Note_on_c, 0, 75, 127
2, 236352, Note_on_c, 0, 75, 0
2, 236352, Note_on_c, 0, 74, 127
2, 236448, Note_on_c, 0, 74, 0
2, 236448, Note_on_c, 0, 72, 127
2, 236544, Note_on_c, 0, 72, 0
2, 236544, Note_on_c, 0, 74, 127
2, 236640, Note_on_c, 0, 74, 0
2, 236640, Note_on_c, 0, 75, 127
2, 236736, Note_on_c, 0, 75, 0
2, 236736, Note_on_c, 0, 72, 127
2, 236832, Note_on_c, 0, 72, 0
2, 236832, Note_on_c, 0, 76, 127
2, 236928, Note_on_c, 0, 76, 0
2, 236928, Note_on_c, 0, 72, 127
2, 237024, Note_on_c, 0, 72, 0
2, 237024, Note_on_c, 0, 77, 127
2, 237120, Note_on_c, 0, 77, 0
2, 237120, Note_on_c, 0, 72, 127
2, 237216, Note_on_c, 0, 72, 0
2, 237216, Note_on_c, 0, 79, 127
2, 237312, Note_on_c, 0, 79, 0
2, 237312, Note_on_c, 0, 72, 127
2, 237408, Note_on_c, 0, 72, 0
2, 237408, Note_on_c, 0, 80, 127
2, 237504, Note_on_c, 0, 80, 0
2, 237504, Note_on_c, 0, 77, 127
2, 237600, Note_on_c, 0, 77, 0
2, 237600, Note_on_c, 0, 81, 127
2, 237696, Note_on_c, 0, 81, 0
2, 237696, Note_on_c, 0, 77, 127
2, 237792, Note_on_c, 0, 77, 0
2, 237792, Note_on_c, 0, 82, 127
2, 237888, Note_on_c, 0, 82, 0
2, 237888, Note_on_c, 0, 77, 127
2, 237984, Note_on_c, 0, 77, 0
2, 237984, Note_on_c, 0, 83, 127
2, 238080, Note_on_c, 0, 83, 0
2, 238080, Note_on_c, 0, 77, 127
2, 238176, Note_on_c, 0, 77, 0
2, 238176, Note_on_c, 0, 84, 127
2, 238272, Note_on_c, 0, 84, 0
2, 238272, Note_on_c, 0, 82, 127
2, 238320, Note_on_c, 0, 82, 0
2, 238320, Note_on_c, 0, 80, 127
2, 238368, Note_on_c, 0, 80, 0
2, 238368, Note_on_c, 0, 79, 127
2, 238416, Note_on_c, 0, 79, 0
2, 238416, Note_on_c, 0, 77, 127
2, 238464, Note_on_c, 0, 77, 0
2, 238464, Note_on_c, 0, 75, 127
2, 238512, Note_on_c, 0, 75, 0
2, 238512, Note_on_c, 0, 74, 127
2, 238560, Note_on_c, 0, 74, 0
2, 238560, Note_on_c, 0, 75, 127
2, 238656, Note_on_c, 0, 75, 0
2, 238656, Note_on_c, 0, 84, 127
2, 238752, Note_on_c, 0, 84, 0
2, 238752, Note_on_c, 0, 74, 127
2, 238848, Note_on_c, 0, 74, 0
2, 238848, Note_on_c, 0, 83, 127
2, 238944, Note_on_c, 0, 83, 0
2, 238944, Note_on_c, 0, 72, 127
2, 239328, Note_on_c, 0, 72, 0
2, 239328, Note_on_c, 0, 67, 127
2, 239424, Note_on_c, 0, 67, 0
2, 239424, Note_on_c, 0, 63, 127
2, 239520, Note_on_c, 0, 63, 0
2, 239520, Note_on_c, 0, 62, 127
2, 239616, Note_on_c, 0, 62, 0
2, 239616, Note_on_c, 0, 63, 127
2, 239712, Note_on_c, 0, 63, 0
2, 239712, Note_on_c, 0, 67, 127
2, 239808, Note_on_c, 0, 67, 0
2, 239808, Note_on_c, 0, 63, 127
2, 239904, Note_on_c, 0, 63, 0
2, 239904, Note_on_c, 0, 68, 127
2, 240000, Note_on_c, 0, 68, 0
2, 240000, Note_on_c, 0, 63, 127
2, 240096, Note_on_c, 0, 63, 0
2, 240096, Note_on_c, 0, 70, 127
2, 240144, Note_on_c, 0, 70, 0
2, 240288, Note_on_c, 0, 70, 127
2, 240288, Note_on_c, 0, 73, 127
2, 240336, Note_on_c, 0, 70, 0
2, 240336, Note_on_c, 0, 73, 0
2, 240480, Note_on_c, 0, 70, 127
2, 240480, Note_on_c, 0, 73, 127
2, 240672, Note_on_c, 0, 70, 0
2, 240672, Note_on_c, 0, 73, 0
2, 240672, Note_on_c, 0, 68, 127
2, 240672, Note_on_c, 0, 72, 127
2, 240768, Note_on_c, 0, 72, 0
2, 240768, Note_on_c, 0, 68, 0
2, 240768, Note_on_c, 0, 70, 127
2, 240864, Note_on_c, 0, 70, 0
2, 240864, Note_on_c, 0, 69, 127
2, 240960, Note_on_c, 0, 69, 0
2, 240960, Note_on_c, 0, 65, 127
2, 241056, Note_on_c, 0, 65, 0
2, 241056, Note_on_c, 0, 64, 127
2, 241152, Note_on_c, 0, 64, 0
2, 241152, Note_on_c, 0, 65, 127
2, 241248, Note_on_c, 0, 65, 0
2, 241248, Note_on_c, 0, 69, 127
2, 241344, Note_on_c, 0, 69, 0
2, 241344, Note_on_c, 0, 65, 127
2, 241440, Note_on_c, 0, 65, 0
2, 241440, Note_on_c, 0, 70, 127
2, 241536, Note_on_c, 0, 70, 0
2, 241536, Note_on_c, 0, 65, 127
2, 241632, Note_on_c, 0, 65, 0
2, 241632, Note_on_c, 0, 72, 127
2, 241680, Note_on_c, 0, 72, 0
2, 241824, Note_on_c, 0, 72, 127
2, 241824, Note_on_c, 0, 75, 127
2, 241872, Note_on_c, 0, 75, 0
2, 241872, Note_on_c, 0, 72, 0
2, 242016, Note_on_c, 0, 72, 127
2, 242016, Note_on_c, 0, 75, 127
2, 242208, Note_on_c, 0, 75, 0
2, 242208, Note_on_c, 0, 72, 0
2, 242208, Note_on_c, 0, 70, 127
2, 242208, Note_on_c, 0, 74, 127
2, 242400, Note_on_c, 0, 74, 0
2, 242400, Note_on_c, 0, 70, 0
2, 242448, Note_on_c, 0, 70, 127
2, 242496, Note_on_c, 0, 70, 0
2, 242496, Note_on_c, 0, 72, 127
2, 242544, Note_on_c, 0, 72, 0
2, 242544, Note_on_c, 0, 74, 127
2, 242592, Note_on_c, 0, 74, 0
2, 242592, Note_on_c, 0, 75, 127
2, 242640, Note_on_c, 0, 75, 0
2, 242640, Note_on_c, 0, 74, 127
2, 242688, Note_on_c, 0, 74, 0
2, 242688, Note_on_c, 0, 72, 127
2, 242736, Note_on_c, 0, 72, 0
2, 242736, Note_on_c, 0, 74, 127
2, 242784, Note_on_c, 0, 74, 0
2, 242784, Note_on_c, 0, 75, 127
2, 242832, Note_on_c, 0, 75, 0
2, 242832, Note_on_c, 0, 74, 127
2, 242880, Note_on_c, 0, 74, 0
2, 242880, Note_on_c, 0, 75, 127
2, 242928, Note_on_c, 0, 75, 0
2, 242928, Note_on_c, 0, 77, 127
2, 242976, Note_on_c, 0, 77, 0
2, 242976, Note_on_c, 0, 79, 127
2, 243024, Note_on_c, 0, 79, 0
2, 243024, Note_on_c, 0, 77, 127
2, 243072, Note_on_c, 0, 77, 0
2, 243072, Note_on_c, 0, 75, 127
2, 243120, Note_on_c, 0, 75, 0
2, 243120, Note_on_c, 0, 77, 127
2, 243168, Note_on_c, 0, 77, 0
2, 243168, Note_on_c, 0, 79, 127
2, 243744, Note_on_c, 0, 79, 0
2, 243744, Note_on_c, 0, 79, 127
2, 243792, Note_on_c, 0, 79, 0
2, 243936, Note_on_c, 0, 77, 127
2, 244512, Note_on_c, 0, 77, 0
2, 244512, Note_on_c, 0, 77, 127
2, 244560, Note_on_c, 0, 77, 0
2, 244704, Note_on_c, 0, 75, 127
2, 245280, Note_on_c, 0, 75, 0
2, 245280, Note_on_c, 0, 75, 127
2, 245328, Note_on_c, 0, 75, 0
2, 245472, Note_on_c, 0, 74, 127
2, 246048, Note_on_c, 0, 74, 0
2, 246048, Note_on_c, 0, 73, 127
2, 246096, Note_on_c, 0, 73, 0
2, 246240, Note_on_c, 0, 72, 127
2, 246816, Note_on_c, 0, 72, 0
2, 246816, Note_on_c, 0, 70, 127
2, 246912, Note_on_c, 0, 70, 0
2, 246912, Note_on_c, 0, 68, 127
2, 247008, Note_on_c, 0, 68, 0
2, 247008, Note_on_c, 0, 67, 127
2, 247488, Note_on_c, 0, 67, 0
2, 247488, Note_on_c, 0, 65, 127
2, 247584, Note_on_c, 0, 65, 0
2, 247584, Note_on_c, 0, 67, 127
2, 247680, Note_on_c, 0, 67, 0
2, 247680, Note_on_c, 0, 68, 127
2, 247776, Note_on_c, 0, 68, 0
2, 247872, Note_on_c, 0, 68, 127
2, 247968, Note_on_c, 0, 68, 0
2, 247968, Note_on_c, 0, 67, 127
2, 248064, Note_on_c, 0, 67, 0
2, 248064, Note_on_c, 0, 65, 127
2, 248160, Note_on_c, 0, 65, 0
2, 248256, Note_on_c, 0, 68, 127
2, 248352, Note_on_c, 0, 68, 0
2, 248352, Note_on_c, 0, 70, 127
2, 248448, Note_on_c, 0, 70, 0
2, 248448, Note_on_c, 0, 72, 127
2, 248544, Note_on_c, 0, 72, 0
2, 248640, Note_on_c, 0, 72, 127
2, 248736, Note_on_c, 0, 72, 0
2, 248736, Note_on_c, 0, 70, 127
2, 248832, Note_on_c, 0, 70, 0
2, 248832, Note_on_c, 0, 68, 127
2, 248928, Note_on_c, 0, 68, 0
2, 249024, Note_on_c, 0, 72, 127
2, 249120, Note_on_c, 0, 72, 0
2, 249120, Note_on_c, 0, 74, 127
2, 249216, Note_on_c, 0, 74, 0
2, 249216, Note_on_c, 0, 75, 127
2, 249312, Note_on_c, 0, 75, 0
2, 249408, Note_on_c, 0, 75, 127
2, 249504, Note_on_c, 0, 75, 0
2, 249504, Note_on_c, 0, 74, 127
2, 249600, Note_on_c, 0, 74, 0
2, 249600, Note_on_c, 0, 72, 127
2, 249696, Note_on_c, 0, 72, 0
2, 249696, Note_on_c, 0, 70, 127
2, 250080, Note_on_c, 0, 70, 0
2, 250080, Note_on_c, 0, 64, 127
2, 250176, Note_on_c, 0, 64, 0
2, 250176, Note_on_c, 0, 65, 127
2, 250272, Note_on_c, 0, 65, 0
2, 250272, Note_on_c, 0, 67, 127
2, 250368, Note_on_c, 0, 67, 0
2, 250368, Note_on_c, 0, 68, 127
2, 250464, Note_on_c, 0, 68, 0
2, 250464, Note_on_c, 0, 70, 127
2, 250560, Note_on_c, 0, 70, 0
2, 250560, Note_on_c, 0, 68, 127
2, 250656, Note_on_c, 0, 68, 0
2, 250656, Note_on_c, 0, 67, 127
2, 250752, Note_on_c, 0, 67, 0
2, 250752, Note_on_c, 0, 68, 127
2, 250848, Note_on_c, 0, 68, 0
2, 250848, Note_on_c, 0, 70, 127
2, 250944, Note_on_c, 0, 70, 0
2, 250944, Note_on_c, 0, 67, 127
2, 251040, Note_on_c, 0, 67, 0
2, 251040, Note_on_c, 0, 76, 127
2, 251136, Note_on_c, 0, 76, 0
2, 251136, Note_on_c, 0, 67, 127
2, 251232, Note_on_c, 0, 67, 0
2, 251232, Note_on_c, 0, 68, 127
2, 251328, Note_on_c, 0, 68, 0
2, 251328, Note_on_c, 0, 67, 127
2, 251424, Note_on_c, 0, 67, 0
2, 251424, Note_on_c, 0, 65, 127
2, 251520, Note_on_c, 0, 65, 0
2, 251520, Note_on_c, 0, 67, 127
2, 251616, Note_on_c, 0, 67, 0
2, 251616, Note_on_c, 0, 68, 127
2, 251712, Note_on_c, 0, 68, 0
2, 251712, Note_on_c, 0, 65, 127
2, 251808, Note_on_c, 0, 65, 0
2, 251808, Note_on_c, 0, 70, 127
2, 251904, Note_on_c, 0, 70, 0
2, 251904, Note_on_c, 0, 65, 127
2, 252000, Note_on_c, 0, 65, 0
2, 252000, Note_on_c, 0, 72, 127
2, 252096, Note_on_c, 0, 72, 0
2, 252096, Note_on_c, 0, 65, 127
2, 252192, Note_on_c, 0, 65, 0
2, 252192, Note_on_c, 0, 74, 127
2, 252288, Note_on_c, 0, 74, 0
2, 252288, Note_on_c, 0, 65, 127
2, 252384, Note_on_c, 0, 65, 0
2, 252384, Note_on_c, 0, 75, 127
2, 252480, Note_on_c, 0, 75, 0
2, 252480, Note_on_c, 0, 65, 127
2, 252576, Note_on_c, 0, 65, 0
2, 252576, Note_on_c, 0, 77, 127
2, 252672, Note_on_c, 0, 77, 0
2, 252672, Note_on_c, 0, 65, 127
2, 252768, Note_on_c, 0, 65, 0
2, 252768, Note_on_c, 0, 75, 127
2, 252864, Note_on_c, 0, 75, 0
2, 252864, Note_on_c, 0, 74, 127
2, 252960, Note_on_c, 0, 74, 0
2, 252960, Note_on_c, 0, 72, 127
2, 253056, Note_on_c, 0, 72, 0
2, 253056, Note_on_c, 0, 70, 127
2, 253152, Note_on_c, 0, 70, 0
2, 253152, Note_on_c, 0, 75, 127
2, 253200, Note_on_c, 0, 75, 0
2, 253344, Note_on_c, 0, 82, 127
2, 253392, Note_on_c, 0, 82, 0
2, 253536, Note_on_c, 0, 84, 127
2, 253568, Note_on_c, 0, 84, 0
2, 253568, Note_on_c, 0, 82, 127
2, 253600, Note_on_c, 0, 82, 0
2, 253600, Note_on_c, 0, 84, 127
2, 253632, Note_on_c, 0, 84, 0
2, 253632, Note_on_c, 0, 82, 127
2, 253664, Note_on_c, 0, 82, 0
2, 253664, Note_on_c, 0, 80, 127
2, 253696, Note_on_c, 0, 80, 0
2, 253696, Note_on_c, 0, 82, 127
2, 253728, Note_on_c, 0, 82, 0
2, 253728, Note_on_c, 0, 84, 127
2, 253824, Note_on_c, 0, 84, 0
2, 253824, Note_on_c, 0, 82, 127
2, 253920, Note_on_c, 0, 82, 0
2, 253920, Note_on_c, 0, 80, 127
2, 254016, Note_on_c, 0, 80, 0
2, 254016, Note_on_c, 0, 79, 127
2, 254112, Note_on_c, 0, 79, 0
2, 254112, Note_on_c, 0, 77, 127
2, 254208, Note_on_c, 0, 77, 0
2, 254208, Note_on_c, 0, 75, 127
2, 254304, Note_on_c, 0, 75, 0
2, 254304, Note_on_c, 0, 74, 127
2, 254400, Note_on_c, 0, 74, 0
2, 254400, Note_on_c, 0, 75, 127
2, 254496, Note_on_c, 0, 75, 0
2, 254496, Note_on_c, 0, 77, 127
2, 254544, Note_on_c, 0, 77, 0
2, 254544, Note_on_c, 0, 75, 127
2, 254592, Note_on_c, 0, 75, 0
2, 254592, Note_on_c, 0, 74, 127
2, 254640, Note_on_c, 0, 74, 0
2, 254640, Note_on_c, 0, 75, 127
2, 254688, Note_on_c, 0, 75, 0
2, 254688, Note_on_c, 0, 77, 127
2, 254784, Note_on_c, 0, 77, 0
2, 254784, Note_on_c, 0, 79, 127
2, 254880, Note_on_c, 0, 79, 0
2, 254880, Note_on_c, 0, 80, 127
2, 254928, Note_on_c, 0, 80, 0
2, 254928, Note_on_c, 0, 79, 127
2, 254976, Note_on_c, 0, 79, 0
2, 254976, Note_on_c, 0, 77, 127
2, 255024, Note_on_c, 0, 77, 0
2, 255024, Note_on_c, 0, 79, 127
2, 255072, Note_on_c, 0, 79, 0
2, 255072, Note_on_c, 0, 80, 127
2, 255168, Note_on_c, 0, 80, 0
2, 255168, Note_on_c, 0, 79, 127
2, 255264, Note_on_c, 0, 79, 0
2, 255264, Note_on_c, 0, 77, 127
2, 255360, Note_on_c, 0, 77, 0
2, 255360, Note_on_c, 0, 80, 127
2, 255456, Note_on_c, 0, 80, 0
2, 255456, Note_on_c, 0, 79, 127
2, 255552, Note_on_c, 0, 79, 0
2, 255552, Note_on_c, 0, 77, 127
2, 255648, Note_on_c, 0, 77, 0
2, 255648, Note_on_c, 0, 75, 127
2, 255744, Note_on_c, 0, 75, 0
2, 255744, Note_on_c, 0, 74, 127
2, 255840, Note_on_c, 0, 74, 0
2, 255840, Note_on_c, 0, 77, 127
2, 255936, Note_on_c, 0, 77, 0
2, 255936, Note_on_c, 0, 75, 127
2, 256032, Note_on_c, 0, 75, 0
2, 256032, Note_on_c, 0, 74, 127
2, 256128, Note_on_c, 0, 74, 0
2, 256128, Note_on_c, 0, 75, 127
2, 256224, Note_on_c, 0, 75, 0
2, 256224, Note_on_c, 0, 68, 127
2, 256320, Note_on_c, 0, 68, 0
2, 256320, Note_on_c, 0, 75, 127
2, 256416, Note_on_c, 0, 75, 0
2, 256416, Note_on_c, 0, 67, 127
2, 256512, Note_on_c, 0, 67, 0
2, 256512, Note_on_c, 0, 75, 127
2, 256608, Note_on_c, 0, 75, 0
2, 256608, Note_on_c, 0, 72, 127
2, 256704, Note_on_c, 0, 72, 0
2, 256704, Note_on_c, 0, 75, 127
2, 256800, Note_on_c, 0, 75, 0
2, 256800, Note_on_c, 0, 74, 127
2, 256896, Note_on_c, 0, 74, 0
2, 256896, Note_on_c, 0, 75, 127
2, 256992, Note_on_c, 0, 75, 0
2, 256992, Note_on_c, 0, 72, 127
2, 257088, Note_on_c, 0, 72, 0
2, 257088, Note_on_c, 0, 75, 127
2, 257184, Note_on_c, 0, 75, 0
2, 257184, Note_on_c, 0, 70, 127
2, 257280, Note_on_c, 0, 70, 0
2, 257280, Note_on_c, 0, 75, 127
2, 257376, Note_on_c, 0, 75, 0
2, 257376, Note_on_c, 0, 68, 127
2, 257472, Note_on_c, 0, 68, 0
2, 257472, Note_on_c, 0, 75, 127
2, 257568, Note_on_c, 0, 75, 0
2, 257568, Note_on_c, 0, 74, 127
2, 257664, Note_on_c, 0, 74, 0
2, 257664, Note_on_c, 0, 75, 127
2, 257760, Note_on_c, 0, 75, 0
2, 257760, Note_on_c, 0, 68, 127
2, 257856, Note_on_c, 0, 68, 0
2, 257856, Note_on_c, 0, 75, 127
2, 257952, Note_on_c, 0, 75, 0
2, 257952, Note_on_c, 0, 67, 127
2, 258048, Note_on_c, 0, 67, 0
2, 258048, Note_on_c, 0, 75, 127
2, 258144, Note_on_c, 0, 75, 0
2, 258144, Note_on_c, 0, 65, 127
2, 258240, Note_on_c, 0, 65, 0
2, 258240, Note_on_c, 0, 75, 127
2, 258336, Note_on_c, 0, 75, 0
2, 258336, Note_on_c, 0, 69, 127
2, 258432, Note_on_c, 0, 69, 0
2, 258432, Note_on_c, 0, 75, 127
2, 258528, Note_on_c, 0, 75, 0
2, 258528, Note_on_c, 0, 72, 127
2, 258624, Note_on_c, 0, 72, 0
2, 258624, Note_on_c, 0, 75, 127
2, 258720, Note_on_c, 0, 75, 0
2, 258720, Note_on_c, 0, 65, 127
2, 258816, Note_on_c, 0, 65, 0
2, 258816, Note_on_c, 0, 75, 127
2, 258912, Note_on_c, 0, 75, 0
2, 258912, Note_on_c, 0, 75, 127
2, 259008, Note_on_c, 0, 75, 0
2, 259008, Note_on_c, 0, 74, 127
2, 259104, Note_on_c, 0, 74, 0
2, 259104, Note_on_c, 0, 72, 127
2, 259200, Note_on_c, 0, 72, 0
2, 259200, Note_on_c, 0, 70, 127
2, 259296, Note_on_c, 0, 70, 0
2, 259296, Note_on_c, 0, 82, 127
2, 259392, Note_on_c, 0, 82, 0
2, 259392, Note_on_c, 0, 80, 127
2, 259488, Note_on_c, 0, 80, 0
2, 259488, Note_on_c, 0, 82, 127
2, 259584, Note_on_c, 0, 82, 0
2, 259584, Note_on_c, 0, 73, 127
2, 259680, Note_on_c, 0, 73, 0
2, 259680, Note_on_c, 0, 72, 127
2, 259872, Note_on_c, 0, 72, 0
2, 259872, Note_on_c, 0, 80, 127
2, 260064, Note_on_c, 0, 80, 0
2, 260064, Note_on_c, 0, 79, 127
2, 260256, Note_on_c, 0, 79, 0
2, 260256, Note_on_c, 0, 70, 127
2, 260448, Note_on_c, 0, 70, 0
2, 260448, Note_on_c, 0, 68, 127
2, 260640, Note_on_c, 0, 68, 0
2, 260640, Note_on_c, 0, 77, 127
2, 260832, Note_on_c, 0, 77, 0
2, 260832, Note_on_c, 0, 75, 127
2, 261024, Note_on_c, 0, 75, 0
2, 261024, Note_on_c, 0, 67, 127
2, 261216, Note_on_c, 0, 67, 0
2, 261216, Note_on_c, 0, 65, 127
2, 261408, Note_on_c, 0, 65, 0
2, 261408, Note_on_c, 0, 68, 127
2, 261600, Note_on_c, 0, 68, 0
2, 261600, Note_on_c, 0, 74, 127
2, 261792, Note_on_c, 0, 74, 0
2, 261792, Note_on_c, 0, 65, 127
2, 261888, Note_on_c, 0, 65, 0
2, 261888, Note_on_c, 0, 67, 127
2, 261984, Note_on_c, 0, 67, 0
2, 261984, Note_on_c, 0, 68, 127
2, 262080, Note_on_c, 0, 68, 0
2, 262080, Note_on_c, 0, 67, 127
2, 262176, Note_on_c, 0, 67, 0
2, 262176, Note_on_c, 0, 65, 127
2, 262272, Note_on_c, 0, 65, 0
2, 262272, Note_on_c, 0, 63, 127
2, 262368, Note_on_c, 0, 63, 0
2, 262368, Note_on_c, 0, 70, 127
2, 262464, Note_on_c, 0, 70, 0
2, 262464, Note_on_c, 0, 63, 127
2, 262560, Note_on_c, 0, 63, 0
2, 262560, Note_on_c, 0, 62, 127
2, 262656, Note_on_c, 0, 62, 0
2, 262656, Note_on_c, 0, 63, 127
2, 262752, Note_on_c, 0, 63, 0
2, 262752, Note_on_c, 0, 72, 127
2, 262848, Note_on_c, 0, 72, 0
2, 262848, Note_on_c, 0, 63, 127
2, 262944, Note_on_c, 0, 63, 0
2, 262944, Note_on_c, 0, 62, 127
2, 263040, Note_on_c, 0, 62, 0
2, 263040, Note_on_c, 0, 63, 127
2, 263136, Note_on_c, 0, 63, 0
2, 263136, Note_on_c, 0, 74, 127
2, 263232, Note_on_c, 0, 74, 0
2, 263232, Note_on_c, 0, 63, 127
2, 263328, Note_on_c, 0, 63, 0
2, 263328, Note_on_c, 0, 62, 127
2, 263424, Note_on_c, 0, 62, 0
2, 263424, Note_on_c, 0, 63, 127
2, 263520, Note_on_c, 0, 63, 0
2, 263520, Note_on_c, 0, 75, 127
2, 263712, Note_on_c, 0, 75, 0
2, 263712, Note_on_c, 0, 69, 127
2, 264000, Note_on_c, 0, 69, 0
2, 264000, Note_on_c, 0, 70, 127
2, 264096, Note_on_c, 0, 70, 0
2, 264096, Note_on_c, 0, 63, 127
2, 264432, Note_on_c, 0, 63, 0
2, 264432, Note_on_c, 0, 65, 127
2, 264480, Note_on_c, 0, 65, 0
2, 264480, Note_on_c, 0, 63, 127
2, 264528, Note_on_c, 0, 63, 0
2, 264528, Note_on_c, 0, 62, 127
2, 264576, Note_on_c, 0, 62, 0
2, 264576, Note_on_c, 0, 63, 127
2, 264624, Note_on_c, 0, 63, 0
2, 264624, Note_on_c, 0, 65, 127
2, 264672, Note_on_c, 0, 65, 0
2, 264672, Note_on_c, 0, 63, 127
2, 264704, Note_on_c, 0, 63, 0
2, 264704, Note_on_c, 0, 65, 127
2, 264736, Note_on_c, 0, 65, 0
2, 264736, Note_on_c, 0, 67, 127
2, 264768, Note_on_c, 0, 67, 0
2, 264768, Note_on_c, 0, 65, 127
2, 264792, Note_on_c, 0, 65, 0
2, 264792, Note_on_c, 0, 67, 127
2, 264816, Note_on_c, 0, 67, 0
2, 264816, Note_on_c, 0, 65, 127
2, 264840, Note_on_c, 0, 65, 0
2, 264840, Note_on_c, 0, 67, 127
2, 264864, Note_on_c, 0, 67, 0
2, 264864, Note_on_c, 0, 65, 127
2, 265008, Note_on_c, 0, 65, 0
2, 265008, Note_on_c, 0, 63, 127
2, 265040, Note_on_c, 0, 63, 0
2, 265056, Note_on_c, 0, 63, 127
2, 265440, Note_on_c, 0, 63, 0
2, 265824, Note_on_c, 0, 75, 127
2, 265920, Note_on_c, 0, 75, 0
2, 265920, Note_on_c, 0, 70, 127
2, 266016, Note_on_c, 0, 70, 0
2, 266016, Note_on_c, 0, 72, 127
2, 266112, Note_on_c, 0, 72, 0
2, 266112, Note_on_c, 0, 68, 127
2, 266208, Note_on_c, 0, 68, 0
2, 266208, Note_on_c, 0, 68, 127
2, 266256, Note_on_c, 0, 68, 0
2, 266256, Note_on_c, 0, 67, 127
2, 266280, Note_on_c, 0, 67, 0
2, 266280, Note_on_c, 0, 68, 127
2, 266304, Note_on_c, 0, 68, 0
2, 266304, Note_on_c, 0, 67, 127
2, 266496, Note_on_c, 0, 67, 0
2, 266496, Note_on_c, 0, 68, 127
2, 266592, Note_on_c, 0, 68, 0
2, 266592, Note_on_c, 0, 70, 127
2, 266688, Note_on_c, 0, 70, 0
2, 266688, Note_on_c, 0, 65, 127
2, 266784, Note_on_c, 0, 65, 0
2, 266784, Note_on_c, 0, 67, 127
2, 266880, Note_on_c, 0, 67, 0
2, 266880, Note_on_c, 0, 63, 127
2, 266976, Note_on_c, 0, 63, 0
2, 266976, Note_on_c, 0, 63, 127
2, 267024, Note_on_c, 0, 63, 0
2, 267024, Note_on_c, 0, 62, 127
2, 267048, Note_on_c, 0, 62, 0
2, 267048, Note_on_c, 0, 63, 127
2, 267072, Note_on_c, 0, 63, 0
2, 267072, Note_on_c, 0, 62, 127
2, 267168, Note_on_c, 0, 62, 0
2, 267168, Note_on_c, 0, 60, 127
2, 267264, Note_on_c, 0, 60, 0
2, 267264, Note_on_c, 0, 58, 127
2, 267360, Note_on_c, 0, 58, 0
2, 267360, Note_on_c, 0, 68, 127
2, 267456, Note_on_c, 0, 68, 0
2, 267456, Note_on_c, 0, 63, 127
2, 267552, Note_on_c, 0, 63, 0
2, 267552, Note_on_c, 0, 65, 127
2, 267648, Note_on_c, 0, 65, 0
2, 267648, Note_on_c, 0, 62, 127
2, 267744, Note_on_c, 0, 62, 0
2, 267744, Note_on_c, 0, 67, 127
2, 267840, Note_on_c, 0, 67, 0
2, 267840, Note_on_c, 0, 62, 127
2, 267936, Note_on_c, 0, 62, 0
2, 267936, Note_on_c, 0, 63, 127
2, 268032, Note_on_c, 0, 63, 0
2, 268032, Note_on_c, 0, 70, 127
2, 268128, Note_on_c, 0, 70, 0
2, 268128, Note_on_c, 0, 72, 127
2, 268224, Note_on_c, 0, 72, 0
2, 268224, Note_on_c, 0, 67, 127
2, 268320, Note_on_c, 0, 67, 0
2, 268320, Note_on_c, 0, 68, 127
2, 268416, Note_on_c, 0, 68, 0
2, 268416, Note_on_c, 0, 77, 127
2, 268512, Note_on_c, 0, 77, 0
2, 268512, Note_on_c, 0, 75, 127
2, 268560, Note_on_c, 0, 75, 0
2, 268560, Note_on_c, 0, 74, 127
2, 268704, Note_on_c, 0, 74, 0
2, 268704, Note_on_c, 0, 72, 127
2, 268752, Note_on_c, 0, 72, 0
2, 268752, Note_on_c, 0, 70, 127
2, 268896, Note_on_c, 0, 70, 0
2, 268896, Note_on_c, 0, 75, 127
2, 268992, Note_on_c, 0, 75, 0
2, 268992, Note_on_c, 0, 70, 127
2, 269088, Note_on_c, 0, 70, 0
2, 269088, Note_on_c, 0, 72, 127
2, 269184, Note_on_c, 0, 72, 0
2, 269184, Note_on_c, 0, 68, 127
2, 269280, Note_on_c, 0, 68, 0
2, 269280, Note_on_c, 0, 68, 127
2, 269328, Note_on_c, 0, 68, 0
2, 269328, Note_on_c, 0, 67, 127
2, 269352, Note_on_c, 0, 67, 0
2, 269352, Note_on_c, 0, 68, 127
2, 269376, Note_on_c, 0, 68, 0
2, 269376, Note_on_c, 0, 67, 127
2, 269568, Note_on_c, 0, 67, 0
2, 269568, Note_on_c, 0, 68, 127
2, 269664, Note_on_c, 0, 68, 0
2, 269664, Note_on_c, 0, 70, 127
2, 269760, Note_on_c, 0, 70, 0
2, 269760, Note_on_c, 0, 65, 127
2, 269856, Note_on_c, 0, 65, 0
2, 269856, Note_on_c, 0, 67, 127
2, 269952, Note_on_c, 0, 67, 0
2, 269952, Note_on_c, 0, 75, 127
2, 270048, Note_on_c, 0, 75, 0
2, 270048, Note_on_c, 0, 75, 127
2, 270096, Note_on_c, 0, 75, 0
2, 270096, Note_on_c, 0, 74, 127
2, 270120, Note_on_c, 0, 74, 0
2, 270120, Note_on_c, 0, 75, 127
2, 270144, Note_on_c, 0, 75, 0
2, 270144, Note_on_c, 0, 74, 127
2, 270336, Note_on_c, 0, 74, 0
2, 270336, Note_on_c, 0, 75, 127
2, 270432, Note_on_c, 0, 75, 0
2, 270432, Note_on_c, 0, 77, 127
2, 270528, Note_on_c, 0, 77, 0
2, 270528, Note_on_c, 0, 72, 127
2, 270624, Note_on_c, 0, 72, 0
2, 270624, Note_on_c, 0, 74, 127
2, 270720, Note_on_c, 0, 74, 0
2, 270720, Note_on_c, 0, 70, 127
2, 270816, Note_on_c, 0, 70, 0
2, 270816, Note_on_c, 0, 69, 127
2, 270912, Note_on_c, 0, 69, 0
2, 270912, Note_on_c, 0, 79, 127
2, 271008, Note_on_c, 0, 79, 0
2, 271008, Note_on_c, 0, 77, 127
2, 271104, Note_on_c, 0, 77, 0
2, 271104, Note_on_c, 0, 70, 127
2, 271200, Note_on_c, 0, 70, 0
2, 271200, Note_on_c, 0, 74, 127
2, 271296, Note_on_c, 0, 74, 0
2, 271296, Note_on_c, 0, 72, 127
2, 271392, Note_on_c, 0, 72, 0
2, 271392, Note_on_c, 0, 70, 127
2, 271488, Note_on_c, 0, 70, 0
2, 271488, Note_on_c, 0, 69, 127
2, 271584, Note_on_c, 0, 69, 0
2, 271584, Note_on_c, 0, 70, 127
2, 271968, Note_on_c, 0, 70, 0
2, 271968, Note_on_c, 0, 77, 127
2, 272064, Note_on_c, 0, 77, 0
2, 272064, Note_on_c, 0, 72, 127
2, 272160, Note_on_c, 0, 72, 0
2, 272160, Note_on_c, 0, 74, 127
2, 272256, Note_on_c, 0, 74, 0
2, 272256, Note_on_c, 0, 70, 127
2, 272352, Note_on_c, 0, 70, 0
2, 272352, Note_on_c, 0, 80, 127
2, 272376, Note_on_c, 0, 80, 0
2, 272376, Note_on_c, 0, 79, 127
2, 272400, Note_on_c, 0, 79, 0
2, 272400, Note_on_c, 0, 80, 127
2, 272640, Note_on_c, 0, 80, 0
2, 272640, Note_on_c, 0, 70, 127
2, 272736, Note_on_c, 0, 70, 0
2, 272736, Note_on_c, 0, 74, 127
2, 272832, Note_on_c, 0, 74, 0
2, 272832, Note_on_c, 0, 77, 127
2, 272928, Note_on_c, 0, 77, 0
2, 272928, Note_on_c, 0, 80, 127
2, 273024, Note_on_c, 0, 80, 0
2, 273024, Note_on_c, 0, 77, 127
2, 273120, Note_on_c, 0, 77, 0
2, 273120, Note_on_c, 0, 77, 127
2, 273312, Note_on_c, 0, 77, 0
2, 273312, Note_on_c, 0, 79, 127
2, 273336, Note_on_c, 0, 79, 0
2, 273336, Note_on_c, 0, 77, 127
2, 273360, Note_on_c, 0, 77, 0
2, 273360, Note_on_c, 0, 79, 127
2, 273600, Note_on_c, 0, 79, 0
2, 273600, Note_on_c, 0, 74, 127
2, 273696, Note_on_c, 0, 74, 0
2, 273696, Note_on_c, 0, 75, 127
2, 273792, Note_on_c, 0, 75, 0
2, 273792, Note_on_c, 0, 72, 127
2, 273888, Note_on_c, 0, 72, 0
2, 273888, Note_on_c, 0, 77, 127
2, 273984, Note_on_c, 0, 77, 0
2, 273984, Note_on_c, 0, 72, 127
2, 274080, Note_on_c, 0, 72, 0
2, 274080, Note_on_c, 0, 74, 127
2, 274176, Note_on_c, 0, 74, 0
2, 274176, Note_on_c, 0, 71, 127
2, 274272, Note_on_c, 0, 71, 0
2, 274272, Note_on_c, 0, 75, 127
2, 274368, Note_on_c, 0, 75, 0
2, 274368, Note_on_c, 0, 71, 127
2, 274464, Note_on_c, 0, 71, 0
2, 274464, Note_on_c, 0, 72, 127
2, 274560, Note_on_c, 0, 72, 0
2, 274560, Note_on_c, 0, 66, 127
2, 274656, Note_on_c, 0, 66, 0
2, 274656, Note_on_c, 0, 72, 127
2, 274752, Note_on_c, 0, 72, 0
2, 274752, Note_on_c, 0, 71, 127
2, 274848, Note_on_c, 0, 71, 0
2, 274848, Note_on_c, 0, 69, 127
2, 274944, Note_on_c, 0, 69, 0
2, 274944, Note_on_c, 0, 67, 127
2, 275040, Note_on_c, 0, 67, 0
2, 275040, Note_on_c, 0, 79, 127
2, 275136, Note_on_c, 0, 79, 0
2, 275136, Note_on_c, 0, 74, 127
2, 275232, Note_on_c, 0, 74, 0
2, 275232, Note_on_c, 0, 75, 127
2, 275328, Note_on_c, 0, 75, 0
2, 275328, Note_on_c, 0, 72, 127
2, 275424, Note_on_c, 0, 72, 0
2, 275424, Note_on_c, 0, 82, 127
2, 275712, Note_on_c, 0, 82, 0
2, 275712, Note_on_c, 0, 72, 127
2, 275808, Note_on_c, 0, 72, 0
2, 275808, Note_on_c, 0, 73, 127
2, 275904, Note_on_c, 0, 73, 0
2, 275904, Note_on_c, 0, 70, 127
2, 276000, Note_on_c, 0, 70, 0
2, 276000, Note_on_c, 0, 72, 127
2, 276096, Note_on_c, 0, 72, 0
2, 276096, Note_on_c, 0, 82, 127
2, 276192, Note_on_c, 0, 82, 0
2, 276192, Note_on_c, 0, 82, 127
2, 276240, Note_on_c, 0, 82, 0
2, 276240, Note_on_c, 0, 80, 127
2, 276264, Note_on_c, 0, 80, 0
2, 276264, Note_on_c, 0, 82, 127
2, 276288, Note_on_c, 0, 82, 0
2, 276288, Note_on_c, 0, 80, 127
2, 276480, Note_on_c, 0, 80, 0
2, 276480, Note_on_c, 0, 79, 127
2, 276576, Note_on_c, 0, 79, 0
2, 276576, Note_on_c, 0, 77, 127
2, 276672, Note_on_c, 0, 77, 0
2, 276672, Note_on_c, 0, 72, 127
2, 276768, Note_on_c, 0, 72, 0
2, 276768, Note_on_c, 0, 74, 127
2, 276864, Note_on_c, 0, 74, 0
2, 276864, Note_on_c, 0, 71, 127
2, 276960, Note_on_c, 0, 71, 0
2, 276960, Note_on_c, 0, 79, 127
2, 277056, Note_on_c, 0, 79, 0
2, 277056, Note_on_c, 0, 74, 127
2, 277152, Note_on_c, 0, 74, 0
2, 277152, Note_on_c, 0, 75, 127
2, 277248, Note_on_c, 0, 75, 0
2, 277248, Note_on_c, 0, 72, 127
2, 277344, Note_on_c, 0, 72, 0
2, 277344, Note_on_c, 0, 67, 127
2, 277440, Note_on_c, 0, 67, 0
2, 277440, Note_on_c, 0, 72, 127
2, 277536, Note_on_c, 0, 72, 0
2, 277536, Note_on_c, 0, 74, 127
2, 277632, Note_on_c, 0, 74, 0
2, 277632, Note_on_c, 0, 71, 127
2, 277728, Note_on_c, 0, 71, 0
2, 277728, Note_on_c, 0, 71, 127
2, 277920, Note_on_c, 0, 71, 0
2, 277920, Note_on_c, 0, 72, 127
2, 277944, Note_on_c, 0, 72, 0
2, 277944, Note_on_c, 0, 71, 127
2, 277968, Note_on_c, 0, 71, 0
2, 277968, Note_on_c, 0, 72, 127
2, 278208, Note_on_c, 0, 72, 0
2, 278208, Note_on_c, 0, 77, 127
2, 278304, Note_on_c, 0, 77, 0
2, 278304, Note_on_c, 0, 76, 127
2, 278400, Note_on_c, 0, 76, 0
2, 278400, Note_on_c, 0, 82, 127
2, 278496, Note_on_c, 0, 82, 0
2, 278496, Note_on_c, 0, 80, 127
2, 278592, Note_on_c, 0, 80, 0
2, 278592, Note_on_c, 0, 76, 127
2, 278688, Note_on_c, 0, 76, 0
2, 278688, Note_on_c, 0, 77, 127
2, 278784, Note_on_c, 0, 77, 0
2, 278784, Note_on_c, 0, 74, 127
2, 278880, Note_on_c, 0, 74, 0
2, 278880, Note_on_c, 0, 70, 127
2, 278976, Note_on_c, 0, 70, 0
2, 278976, Note_on_c, 0, 75, 127
2, 279072, Note_on_c, 0, 75, 0
2, 279072, Note_on_c, 0, 74, 127
2, 279168, Note_on_c, 0, 74, 0
2, 279168, Note_on_c, 0, 80, 127
2, 279264, Note_on_c, 0, 80, 0
2, 279264, Note_on_c, 0, 79, 127
2, 279360, Note_on_c, 0, 79, 0
2, 279360, Note_on_c, 0, 74, 127
2, 279456, Note_on_c, 0, 74, 0
2, 279456, Note_on_c, 0, 75, 127
2, 279552, Note_on_c, 0, 75, 0
2, 279552, Note_on_c, 0, 72, 127
2, 279648, Note_on_c, 0, 72, 0
2, 279648, Note_on_c, 0, 68, 127
2, 279744, Note_on_c, 0, 68, 0
2, 279744, Note_on_c, 0, 75, 127
2, 279840, Note_on_c, 0, 75, 0
2, 279840, Note_on_c, 0, 74, 127
2, 279936, Note_on_c, 0, 74, 0
2, 279936, Note_on_c, 0, 77, 127
2, 280032, Note_on_c, 0, 77, 0
2, 280032, Note_on_c, 0, 67, 127
2, 280128, Note_on_c, 0, 67, 0
2, 280128, Note_on_c, 0, 74, 127
2, 280224, Note_on_c, 0, 74, 0
2, 280224, Note_on_c, 0, 72, 127
2, 280320, Note_on_c, 0, 72, 0
2, 280320, Note_on_c, 0, 75, 127
2, 280416, Note_on_c, 0, 75, 0
2, 280416, Note_on_c, 0, 67, 127
2, 280512, Note_on_c, 0, 67, 0
2, 280512, Note_on_c, 0, 72, 127
2, 280608, Note_on_c, 0, 72, 0
2, 280608, Note_on_c, 0, 70, 127
2, 280704, Note_on_c, 0, 70, 0
2, 280704, Note_on_c, 0, 73, 127
2, 280800, Note_on_c, 0, 63, 127
2, 281184, Note_on_c, 0, 63, 0
2, 281184, Note_on_c, 0, 74, 0
2, 281184, Note_on_c, 0, 74, 0
2, 281184, Note_on_c, 0, 72, 127
2, 281280, Note_on_c, 0, 72, 0
2, 281280, Note_on_c, 0, 67, 127
2, 281376, Note_on_c, 0, 67, 0
2, 281376, Note_on_c, 0, 68, 127
2, 281472, Note_on_c, 0, 68, 0
2, 281472, Note_on_c, 0, 65, 127
2, 281568, Note_on_c, 0, 65, 0
2, 281568, Note_on_c, 0, 62, 127
2, 281664, Note_on_c, 0, 62, 0
2, 281664, Note_on_c, 0, 72, 127
2, 281760, Note_on_c, 0, 72, 0
2, 281760, Note_on_c, 0, 70, 127
2, 281856, Note_on_c, 0, 70, 0
2, 281856, Note_on_c, 0, 80, 127
2, 281952, Note_on_c, 0, 80, 0
2, 281952, Note_on_c, 0, 79, 127
2, 282048, Note_on_c, 0, 79, 0
2, 282048, Note_on_c, 0, 75, 127
2, 282144, Note_on_c, 0, 75, 0
2, 282144, Note_on_c, 0, 70, 127
2, 282240, Note_on_c, 0, 70, 0
2, 282240, Note_on_c, 0, 74, 127
2, 282336, Note_on_c, 0, 74, 0
2, 282336, Note_on_c, 0, 74, 127
2, 282528, Note_on_c, 0, 74, 0
2, 282528, Note_on_c, 0, 75, 127
2, 282552, Note_on_c, 0, 75, 0
2, 282552, Note_on_c, 0, 74, 127
2, 282576, Note_on_c, 0, 74, 0
2, 282576, Note_on_c, 0, 75, 127
2, 282720, Note_on_c, 0, 75, 0
2, 283104, Note_on_c, 0, 67, 127
2, 283200, Note_on_c, 0, 67, 0
2, 283200, Note_on_c, 0, 70, 127
2, 283296, Note_on_c, 0, 70, 0
2, 283296, Note_on_c, 0, 75, 127
2, 283392, Note_on_c, 0, 75, 0
2, 283392, Note_on_c, 0, 73, 127
2, 283488, Note_on_c, 0, 73, 0
2, 283488, Note_on_c, 0, 73, 127
2, 283584, Note_on_c, 0, 73, 0
2, 283584, Note_on_c, 0, 72, 127
2, 283680, Note_on_c, 0, 72, 0
2, 283680, Note_on_c, 0, 72, 127
2, 283776, Note_on_c, 0, 72, 0
2, 283776, Note_on_c, 0, 75, 127
2, 283872, Note_on_c, 0, 75, 0
2, 283872, Note_on_c, 0, 70, 127
2, 283968, Note_on_c, 0, 70, 0
2, 283968, Note_on_c, 0, 75, 127
2, 284064, Note_on_c, 0, 75, 0
2, 284064, Note_on_c, 0, 68, 127
2, 284160, Note_on_c, 0, 68, 0
2, 284160, Note_on_c, 0, 77, 127
2, 284256, Note_on_c, 0, 77, 0
2, 284256, Note_on_c, 0, 68, 127
2, 284288, Note_on_c, 0, 68, 0
2, 284288, Note_on_c, 0, 67, 127
2, 284320, Note_on_c, 0, 67, 0
2, 284320, Note_on_c, 0, 68, 127
2, 284352, Note_on_c, 0, 68, 0
2, 284352, Note_on_c, 0, 67, 127
2, 284376, Note_on_c, 0, 67, 0
2, 284376, Note_on_c, 0, 68, 127
2, 284400, Note_on_c, 0, 68, 0
2, 284400, Note_on_c, 0, 67, 127
2, 284424, Note_on_c, 0, 67, 0
2, 284424, Note_on_c, 0, 68, 127
2, 284448, Note_on_c, 0, 68, 0
2, 284448, Note_on_c, 0, 67, 127
2, 284640, Note_on_c, 0, 67, 0
2, 284640, Note_on_c, 0, 67, 127
2, 284736, Note_on_c, 0, 67, 0
2, 284736, Note_on_c, 0, 68, 127
2, 284784, Note_on_c, 0, 68, 0
2, 284784, Note_on_c, 0, 70, 127
2, 284832, Note_on_c, 0, 70, 0
2, 284832, Note_on_c, 0, 70, 127
2, 284856, Note_on_c, 0, 70, 0
2, 284856, Note_on_c, 0, 68, 127
2, 284880, Note_on_c, 0, 68, 0
2, 284880, Note_on_c, 0, 70, 127
2, 284904, Note_on_c, 0, 70, 0
2, 284904, Note_on_c, 0, 68, 127
2, 284928, Note_on_c, 0, 68, 0
2, 284928, Note_on_c, 0, 70, 127
2, 284952, Note_on_c, 0, 70, 0
2, 284952, Note_on_c, 0, 68, 127
2, 285048, Note_on_c, 0, 68, 0
2, 285048, Note_on_c, 0, 67, 127
2, 285240, Note_on_c, 0, 67, 0
2, 285240, Note_on_c, 0, 72, 127
2, 285432, Note_on_c, 0, 72, 0
2, 285432, Note_on_c, 0, 70, 127
2, 285528, Note_on_c, 0, 70, 0
2, 285528, Note_on_c, 0, 75, 127
2, 285624, Note_on_c, 0, 75, 0
2, 285624, Note_on_c, 0, 79, 127
2, 285720, Note_on_c, 0, 79, 0
2, 285720, Note_on_c, 0, 77, 127
2, 285816, Note_on_c, 0, 77, 0
2, 285816, Note_on_c, 0, 77, 127
2, 285912, Note_on_c, 0, 77, 0
2, 285912, Note_on_c, 0, 75, 127
2, 286008, Note_on_c, 0, 75, 0
2, 286008, Note_on_c, 0, 69, 127
2, 286104, Note_on_c, 0, 69, 0
2, 286104, Note_on_c, 0, 72, 127
2, 286200, Note_on_c, 0, 72, 0
2, 286200, Note_on_c, 0, 75, 127
2, 286296, Note_on_c, 0, 75, 0
2, 286296, Note_on_c, 0, 74, 127
2, 286392, Note_on_c, 0, 74, 0
2, 286392, Note_on_c, 0, 74, 127
2, 286488, Note_on_c, 0, 74, 0
2, 286488, Note_on_c, 0, 72, 127
2, 286584, Note_on_c, 0, 72, 0
2, 286584, Note_on_c, 0, 72, 127
2, 286680, Note_on_c, 0, 72, 0
2, 286680, Note_on_c, 0, 82, 127
2, 286776, Note_on_c, 0, 82, 0
2, 286776, Note_on_c, 0, 74, 127
2, 286872, Note_on_c, 0, 74, 0
2, 286872, Note_on_c, 0, 82, 127
2, 286968, Note_on_c, 0, 82, 0
2, 286968, Note_on_c, 0, 75, 127
2, 287064, Note_on_c, 0, 75, 0
2, 287064, Note_on_c, 0, 81, 127
2, 287160, Note_on_c, 0, 81, 0
2, 287160, Note_on_c, 0, 82, 127
2, 287352, Note_on_c, 0, 82, 0
2, 287352, Note_on_c, 0, 70, 127
2, 287736, Note_on_c, 0, 70, 0
2, 287736, Note_on_c, 0, 67, 127
2, 287832, Note_on_c, 0, 67, 0
2, 287832, Note_on_c, 0, 70, 127
2, 287928, Note_on_c, 0, 70, 0
2, 287928, Note_on_c, 0, 75, 127
2, 288024, Note_on_c, 0, 75, 0
2, 288024, Note_on_c, 0, 73, 127
2, 288120, Note_on_c, 0, 73, 0
2, 288120, Note_on_c, 0, 73, 127
2, 288216, Note_on_c, 0, 73, 0
2, 288216, Note_on_c, 0, 72, 127
2, 288312, Note_on_c, 0, 72, 0
2, 288312, Note_on_c, 0, 72, 127
2, 288408, Note_on_c, 0, 72, 0
2, 288408, Note_on_c, 0, 75, 127
2, 288504, Note_on_c, 0, 75, 0
2, 288504, Note_on_c, 0, 70, 127
2, 288600, Note_on_c, 0, 70, 0
2, 288600, Note_on_c, 0, 75, 127
2, 288696, Note_on_c, 0, 75, 0
2, 288696, Note_on_c, 0, 68, 127
2, 288792, Note_on_c, 0, 68, 0
2, 288792, Note_on_c, 0, 77, 127
2, 288888, Note_on_c, 0, 77, 0
2, 288888, Note_on_c, 0, 68, 127
2, 288920, Note_on_c, 0, 68, 0
2, 288920, Note_on_c, 0, 67, 127
2, 288952, Note_on_c, 0, 67, 0
2, 288952, Note_on_c, 0, 68, 127
2, 288984, Note_on_c, 0, 68, 0
2, 288984, Note_on_c, 0, 67, 127
2, 289008, Note_on_c, 0, 67, 0
2, 289008, Note_on_c, 0, 68, 127
2, 289032, Note_on_c, 0, 68, 0
2, 289032, Note_on_c, 0, 67, 127
2, 289056, Note_on_c, 0, 67, 0
2, 289056, Note_on_c, 0, 68, 127
2, 289080, Note_on_c, 0, 68, 0
2, 289080, Note_on_c, 0, 67, 127
2, 289272, Note_on_c, 0, 67, 0
2, 289272, Note_on_c, 0, 67, 127
2, 289368, Note_on_c, 0, 67, 0
2, 289368, Note_on_c, 0, 68, 127
2, 289416, Note_on_c, 0, 68, 0
2, 289416, Note_on_c, 0, 70, 127
2, 289464, Note_on_c, 0, 70, 0
2, 289464, Note_on_c, 0, 70, 127
2, 289488, Note_on_c, 0, 70, 0
2, 289488, Note_on_c, 0, 68, 127
2, 289512, Note_on_c, 0, 68, 0
2, 289512, Note_on_c, 0, 70, 127
2, 289536, Note_on_c, 0, 70, 0
2, 289536, Note_on_c, 0, 68, 127
2, 289560, Note_on_c, 0, 68, 0
2, 289560, Note_on_c, 0, 70, 127
2, 289584, Note_on_c, 0, 70, 0
2, 289584, Note_on_c, 0, 68, 127
2, 289680, Note_on_c, 0, 68, 0
2, 289680, Note_on_c, 0, 67, 127
2, 289872, Note_on_c, 0, 67, 0
2, 289872, Note_on_c, 0, 72, 127
2, 290064, Note_on_c, 0, 72, 0
2, 290064, Note_on_c, 0, 70, 127
2, 290160, Note_on_c, 0, 70, 0
2, 290160, Note_on_c, 0, 75, 127
2, 290256, Note_on_c, 0, 75, 0
2, 290256, Note_on_c, 0, 79, 127
2, 290352, Note_on_c, 0, 79, 0
2, 290352, Note_on_c, 0, 77, 127
2, 290448, Note_on_c, 0, 77, 0
2, 290448, Note_on_c, 0, 77, 127
2, 290544, Note_on_c, 0, 77, 0
2, 290544, Note_on_c, 0, 75, 127
2, 290640, Note_on_c, 0, 75, 0
2, 290640, Note_on_c, 0, 69, 127
2, 290736, Note_on_c, 0, 69, 0
2, 290736, Note_on_c, 0, 72, 127
2, 290832, Note_on_c, 0, 72, 0
2, 290832, Note_on_c, 0, 75, 127
2, 290928, Note_on_c, 0, 75, 0
2, 290928, Note_on_c, 0, 74, 127
2, 291024, Note_on_c, 0, 74, 0
2, 291024, Note_on_c, 0, 74, 127
2, 291120, Note_on_c, 0, 74, 0
2, 291120, Note_on_c, 0, 72, 127
2, 291216, Note_on_c, 0, 72, 0
2, 291216, Note_on_c, 0, 72, 127
2, 291312, Note_on_c, 0, 72, 0
2, 291312, Note_on_c, 0, 82, 127
2, 291408, Note_on_c, 0, 82, 0
2, 291408, Note_on_c, 0, 74, 127
2, 291504, Note_on_c, 0, 74, 0
2, 291504, Note_on_c, 0, 82, 127
2, 291600, Note_on_c, 0, 82, 0
2, 291600, Note_on_c, 0, 75, 127
2, 291696, Note_on_c, 0, 75, 0
2, 291696, Note_on_c, 0, 81, 127
2, 291792, Note_on_c, 0, 81, 0
2, 291792, Note_on_c, 0, 82, 127
2, 291984, Note_on_c, 0, 82, 0
2, 291984, Note_on_c, 0, 70, 127
2, 292368, Note_on_c, 0, 70, 0
2, 292368, Note_on_c, 0, 74, 127
2, 292464, Note_on_c, 0, 74, 0
2, 292464, Note_on_c, 0, 75, 127
2, 292512, Note_on_c, 0, 75, 0
2, 292512, Note_on_c, 0, 77, 127
2, 292560, Note_on_c, 0, 77, 0
2, 292560, Note_on_c, 0, 68, 127
2, 292656, Note_on_c, 0, 68, 0
2, 292656, Note_on_c, 0, 67, 127
2, 292752, Note_on_c, 0, 67, 0
2, 292752, Note_on_c, 0, 67, 127
2, 292848, Note_on_c, 0, 67, 0
2, 292848, Note_on_c, 0, 68, 127
2, 292944, Note_on_c, 0, 68, 0
2, 292944, Note_on_c, 0, 68, 127
2, 293040, Note_on_c, 0, 68, 0
2, 293040, Note_on_c, 0, 77, 127
2, 293136, Note_on_c, 0, 77, 0
2, 293136, Note_on_c, 0, 75, 127
2, 293168, Note_on_c, 0, 75, 0
2, 293168, Note_on_c, 0, 74, 127
2, 293200, Note_on_c, 0, 74, 0
2, 293200, Note_on_c, 0, 75, 127
2, 293232, Note_on_c, 0, 75, 0
2, 293232, Note_on_c, 0, 74, 127
2, 293256, Note_on_c, 0, 74, 0
2, 293256, Note_on_c, 0, 75, 127
2, 293280, Note_on_c, 0, 75, 0
2, 293280, Note_on_c, 0, 74, 127
2, 293304, Note_on_c, 0, 74, 0
2, 293304, Note_on_c, 0, 75, 127
2, 293328, Note_on_c, 0, 75, 0
2, 293328, Note_on_c, 0, 74, 127
2, 293520, Note_on_c, 0, 74, 0
2, 293520, Note_on_c, 0, 75, 127
2, 293616, Note_on_c, 0, 75, 0
2, 293616, Note_on_c, 0, 77, 127
2, 293664, Note_on_c, 0, 77, 0
2, 293664, Note_on_c, 0, 79, 127
2, 293712, Note_on_c, 0, 79, 0
2, 293712, Note_on_c, 0, 70, 127
2, 293808, Note_on_c, 0, 70, 0
2, 293808, Note_on_c, 0, 72, 127
2, 293904, Note_on_c, 0, 72, 0
2, 293904, Note_on_c, 0, 72, 127
2, 294000, Note_on_c, 0, 72, 0
2, 294000, Note_on_c, 0, 73, 127
2, 294096, Note_on_c, 0, 73, 0
2, 294096, Note_on_c, 0, 73, 127
2, 294192, Note_on_c, 0, 73, 0
2, 294192, Note_on_c, 0, 82, 127
2, 294288, Note_on_c, 0, 82, 0
2, 294288, Note_on_c, 0, 80, 127
2, 294320, Note_on_c, 0, 80, 0
2, 294320, Note_on_c, 0, 79, 127
2, 294352, Note_on_c, 0, 79, 0
2, 294352, Note_on_c, 0, 80, 127
2, 294384, Note_on_c, 0, 80, 0
2, 294384, Note_on_c, 0, 79, 127
2, 294408, Note_on_c, 0, 79, 0
2, 294408, Note_on_c, 0, 80, 127
2, 294432, Note_on_c, 0, 80, 0
2, 294432, Note_on_c, 0, 79, 127
2, 294456, Note_on_c, 0, 79, 0
2, 294456, Note_on_c, 0, 80, 127
2, 294480, Note_on_c, 0, 80, 0
2, 294480, Note_on_c, 0, 79, 127
2, 294672, Note_on_c, 0, 79, 0
2, 294672, Note_on_c, 0, 80, 127
2, 294768, Note_on_c, 0, 80, 0
2, 294768, Note_on_c, 0, 77, 127
2, 294864, Note_on_c, 0, 77, 0
2, 294864, Note_on_c, 0, 74, 127
2, 294960, Note_on_c, 0, 74, 0
2, 294960, Note_on_c, 0, 75, 127
2, 295056, Note_on_c, 0, 75, 0
2, 295056, Note_on_c, 0, 75, 127
2, 295152, Note_on_c, 0, 75, 0
2, 295152, Note_on_c, 0, 77, 127
2, 295248, Note_on_c, 0, 77, 0
2, 295248, Note_on_c, 0, 77, 127
2, 295344, Note_on_c, 0, 77, 0
2, 295344, Note_on_c, 0, 68, 127
2, 295440, Note_on_c, 0, 68, 0
2, 295440, Note_on_c, 0, 68, 127
2, 295536, Note_on_c, 0, 68, 0
2, 295536, Note_on_c, 0, 67, 127
2, 295632, Note_on_c, 0, 67, 0
2, 295632, Note_on_c, 0, 67, 127
2, 295728, Note_on_c, 0, 67, 0
2, 295728, Note_on_c, 0, 70, 127
2, 295824, Note_on_c, 0, 70, 0
2, 295824, Note_on_c, 0, 75, 127
2, 295920, Note_on_c, 0, 75, 0
2, 295920, Note_on_c, 0, 67, 127
2, 296016, Note_on_c, 0, 67, 0
2, 296016, Note_on_c, 0, 68, 127
2, 296040, Note_on_c, 0, 68, 0
2, 296040, Note_on_c, 0, 67, 127
2, 296064, Note_on_c, 0, 67, 0
2, 296064, Note_on_c, 0, 68, 127
2, 296208, Note_on_c, 0, 68, 0
2, 296208, Note_on_c, 0, 67, 127
2, 296232, Note_on_c, 0, 67, 0
2, 296232, Note_on_c, 0, 65, 127
2, 296256, Note_on_c, 0, 65, 0
2, 296256, Note_on_c, 0, 67, 127
2, 296280, Note_on_c, 0, 67, 0
2, 296280, Note_on_c, 0, 65, 127
2, 296400, Note_on_c, 0, 65, 0
2, 296400, Note_on_c, 0, 63, 127
2, 296976, Note_on_c, 0, 63, 0
2, 296976, Note_on_c, 0, 74, 127
2, 297072, Note_on_c, 0, 74, 0
2, 297072, Note_on_c, 0, 75, 127
2, 297120, Note_on_c, 0, 75, 0
2, 297120, Note_on_c, 0, 77, 127
2, 297168, Note_on_c, 0, 77, 0
2, 297168, Note_on_c, 0, 68, 127
2, 297264, Note_on_c, 0, 68, 0
2, 297264, Note_on_c, 0, 67, 127
2, 297360, Note_on_c, 0, 67, 0
2, 297360, Note_on_c, 0, 67, 127
2, 297456, Note_on_c, 0, 67, 0
2, 297456, Note_on_c, 0, 68, 127
2, 297552, Note_on_c, 0, 68, 0
2, 297552, Note_on_c, 0, 68, 127
2, 297648, Note_on_c, 0, 68, 0
2, 297648, Note_on_c, 0, 77, 127
2, 297744, Note_on_c, 0, 77, 0
2, 297744, Note_on_c, 0, 75, 127
2, 297776, Note_on_c, 0, 75, 0
2, 297776, Note_on_c, 0, 74, 127
2, 297808, Note_on_c, 0, 74, 0
2, 297808, Note_on_c, 0, 75, 127
2, 297840, Note_on_c, 0, 75, 0
2, 297840, Note_on_c, 0, 74, 127
2, 297864, Note_on_c, 0, 74, 0
2, 297864, Note_on_c, 0, 75, 127
2, 297888, Note_on_c, 0, 75, 0
2, 297888, Note_on_c, 0, 74, 127
2, 297912, Note_on_c, 0, 74, 0
2, 297912, Note_on_c, 0, 75, 127
2, 297936, Note_on_c, 0, 75, 0
2, 297936, Note_on_c, 0, 74, 127
2, 298128, Note_on_c, 0, 74, 0
2, 298128, Note_on_c, 0, 75, 127
2, 298224, Note_on_c, 0, 75, 0
2, 298224, Note_on_c, 0, 77, 127
2, 298272, Note_on_c, 0, 77, 0
2, 298272, Note_on_c, 0, 79, 127
2, 298320, Note_on_c, 0, 79, 0
2, 298320, Note_on_c, 0, 70, 127
2, 298416, Note_on_c, 0, 70, 0
2, 298416, Note_on_c, 0, 72, 127
2, 298512, Note_on_c, 0, 72, 0
2, 298512, Note_on_c, 0, 72, 127
2, 298608, Note_on_c, 0, 72, 0
2, 298608, Note_on_c, 0, 73, 127
2, 298704, Note_on_c, 0, 73, 0
2, 298704, Note_on_c, 0, 73, 127
2, 298800, Note_on_c, 0, 73, 0
2, 298800, Note_on_c, 0, 82, 127
2, 298896, Note_on_c, 0, 82, 0
2, 298896, Note_on_c, 0, 80, 127
2, 298928, Note_on_c, 0, 80, 0
2, 298928, Note_on_c, 0, 79, 127
2, 298960, Note_on_c, 0, 79, 0
2, 298960, Note_on_c, 0, 80, 127
2, 298992, Note_on_c, 0, 80, 0
2, 298992, Note_on_c, 0, 79, 127
2, 299016, Note_on_c, 0, 79, 0
2, 299016, Note_on_c, 0, 80, 127
2, 299040, Note_on_c, 0, 80, 0
2, 299040, Note_on_c, 0, 79, 127
2, 299064, Note_on_c, 0, 79, 0
2, 299064, Note_on_c, 0, 80, 127
2, 299088, Note_on_c, 0, 80, 0
2, 299088, Note_on_c, 0, 79, 127
2, 299280, Note_on_c, 0, 79, 0
2, 299280, Note_on_c, 0, 80, 127
2, 299376, Note_on_c, 0, 80, 0
2, 299376, Note_on_c, 0, 77, 127
2, 299472, Note_on_c, 0, 77, 0
2, 299472, Note_on_c, 0, 74, 127
2, 299568, Note_on_c, 0, 74, 0
2, 299568, Note_on_c, 0, 75, 127
2, 299664, Note_on_c, 0, 75, 0
2, 299664, Note_on_c, 0, 75, 127
2, 299760, Note_on_c, 0, 75, 0
2, 299760, Note_on_c, 0, 77, 127
2, 299856, Note_on_c, 0, 77, 0
2, 299856, Note_on_c, 0, 77, 127
2, 299952, Note_on_c, 0, 77, 0
2, 299952, Note_on_c, 0, 68, 127
2, 300048, Note_on_c, 0, 68, 0
2, 300048, Note_on_c, 0, 68, 127
2, 300144, Note_on_c, 0, 68, 0
2, 300144, Note_on_c, 0, 67, 127
2, 300240, Note_on_c, 0, 67, 0
2, 300240, Note_on_c, 0, 67, 127
2, 300336, Note_on_c, 0, 67, 0
2, 300336, Note_on_c, 0, 70, 127
2, 300432, Note_on_c, 0, 70, 0
2, 300432, Note_on_c, 0, 75, 127
2, 300528, Note_on_c, 0, 75, 0
2, 300528, Note_on_c, 0, 67, 127
2, 300624, Note_on_c, 0, 67, 0
2, 300624, Note_on_c, 0, 68, 127
2, 300648, Note_on_c, 0, 68, 0
2, 300648, Note_on_c, 0, 67, 127
2, 300672, Note_on_c, 0, 67, 0
2, 300672, Note_on_c, 0, 68, 127
2, 300816, Note_on_c, 0, 68, 0
2, 300816, Note_on_c, 0, 67, 127
2, 300840, Note_on_c, 0, 67, 0
2, 300840, Note_on_c, 0, 65, 127
2, 300864, Note_on_c, 0, 65, 0
2, 300864, Note_on_c, 0, 67, 127
2, 300888, Note_on_c, 0, 67, 0
2, 300888, Note_on_c, 0, 65, 127
2, 301008, Note_on_c, 0, 65, 0
2, 301008, Note_on_c, 0, 63, 127
2, 301584, Note_on_c, 0, 63, 0
2, 301968, Note_on_c, 0, 70, 127
2, 302016, Note_on_c, 0, 70, 0
2, 302016, Note_on_c, 0, 75, 127
2, 302064, Note_on_c, 0, 75, 0
2, 302064, Note_on_c, 0, 74, 127
2, 302112, Note_on_c, 0, 74, 0
2, 302112, Note_on_c, 0, 72, 127
2, 302160, Note_on_c, 0, 72, 0
2, 302160, Note_on_c, 0, 70, 127
2, 302208, Note_on_c, 0, 70, 0
2, 302208, Note_on_c, 0, 68, 127
2, 302256, Note_on_c, 0, 68, 0
2, 302256, Note_on_c, 0, 67, 127
2, 302304, Note_on_c, 0, 67, 0
2, 302304, Note_on_c, 0, 65, 127
2, 302352, Note_on_c, 0, 65, 0
2, 302352, Note_on_c, 0, 65, 127
2, 302400, Note_on_c, 0, 65, 0
2, 302400, Note_on_c, 0, 63, 127
2, 302424, Note_on_c, 0, 63, 0
2, 302424, Note_on_c, 0, 65, 127
2, 302448, Note_on_c, 0, 65, 0
2, 302448, Note_on_c, 0, 63, 127
2, 302472, Note_on_c, 0, 63, 0
2, 302472, Note_on_c, 0, 65, 127
2, 302496, Note_on_c, 0, 65, 0
2, 302496, Note_on_c, 0, 63, 127
2, 302544, Note_on_c, 0, 63, 0
2, 302640, Note_on_c, 0, 65, 127
2, 302736, Note_on_c, 0, 65, 0
2, 302736, Note_on_c, 0, 67, 127
2, 302784, Note_on_c, 0, 67, 0
2, 302784, Note_on_c, 0, 63, 127
2, 302832, Note_on_c, 0, 63, 0
2, 302832, Note_on_c, 0, 62, 127
2, 302880, Note_on_c, 0, 62, 0
2, 302880, Note_on_c, 0, 63, 127
2, 302928, Note_on_c, 0, 63, 0
2, 302928, Note_on_c, 0, 70, 127
2, 302976, Note_on_c, 0, 70, 0
2, 302976, Note_on_c, 0, 65, 127
2, 303024, Note_on_c, 0, 65, 0
2, 303024, Note_on_c, 0, 63, 127
2, 303072, Note_on_c, 0, 63, 0
2, 303072, Note_on_c, 0, 65, 127
2, 303120, Note_on_c, 0, 65, 0
2, 303120, Note_on_c, 0, 67, 127
2, 303168, Note_on_c, 0, 67, 0
2, 303168, Note_on_c, 0, 68, 127
2, 303216, Note_on_c, 0, 68, 0
2, 303216, Note_on_c, 0, 67, 127
2, 303264, Note_on_c, 0, 67, 0
2, 303264, Note_on_c, 0, 65, 127
2, 303312, Note_on_c, 0, 65, 0
2, 303312, Note_on_c, 0, 63, 127
2, 303360, Note_on_c, 0, 63, 0
2, 303360, Note_on_c, 0, 67, 127
2, 303408, Note_on_c, 0, 67, 0
2, 303408, Note_on_c, 0, 65, 127
2, 303456, Note_on_c, 0, 65, 0
2, 303456, Note_on_c, 0, 68, 127
2, 303504, Note_on_c, 0, 68, 0
2, 303504, Note_on_c, 0, 67, 127
2, 303552, Note_on_c, 0, 67, 0
2, 303552, Note_on_c, 0, 72, 127
2, 303600, Note_on_c, 0, 72, 0
2, 303600, Note_on_c, 0, 71, 127
2, 303648, Note_on_c, 0, 71, 0
2, 303648, Note_on_c, 0, 72, 127
2, 303696, Note_on_c, 0, 72, 0
2, 303696, Note_on_c, 0, 75, 127
2, 303744, Note_on_c, 0, 75, 0
2, 303744, Note_on_c, 0, 74, 127
2, 303792, Note_on_c, 0, 74, 0
2, 303792, Note_on_c, 0, 72, 127
2, 303840, Note_on_c, 0, 72, 0
2, 303840, Note_on_c, 0, 70, 127
2, 303888, Note_on_c, 0, 70, 0
2, 303888, Note_on_c, 0, 69, 127
2, 303936, Note_on_c, 0, 69, 0
2, 303936, Note_on_c, 0, 70, 127
2, 303984, Note_on_c, 0, 70, 0
2, 303984, Note_on_c, 0, 69, 127
2, 304032, Note_on_c, 0, 69, 0
2, 304032, Note_on_c, 0, 67, 127
2, 304080, Note_on_c, 0, 67, 0
2, 304080, Note_on_c, 0, 65, 127
2, 304128, Note_on_c, 0, 65, 0
2, 304128, Note_on_c, 0, 69, 127
2, 304176, Note_on_c, 0, 69, 0
2, 304176, Note_on_c, 0, 67, 127
2, 304224, Note_on_c, 0, 67, 0
2, 304224, Note_on_c, 0, 70, 127
2, 304272, Note_on_c, 0, 70, 0
2, 304272, Note_on_c, 0, 69, 127
2, 304320, Note_on_c, 0, 69, 0
2, 304320, Note_on_c, 0, 74, 127
2, 304368, Note_on_c, 0, 74, 0
2, 304368, Note_on_c, 0, 72, 127
2, 304416, Note_on_c, 0, 72, 0
2, 304416, Note_on_c, 0, 74, 127
2, 304464, Note_on_c, 0, 74, 0
2, 304464, Note_on_c, 0, 77, 127
2, 304512, Note_on_c, 0, 77, 0
2, 304512, Note_on_c, 0, 75, 127
2, 304560, Note_on_c, 0, 75, 0
2, 304560, Note_on_c, 0, 74, 127
2, 304608, Note_on_c, 0, 74, 0
2, 304608, Note_on_c, 0, 72, 127
2, 304656, Note_on_c, 0, 72, 0
2, 304656, Note_on_c, 0, 70, 127
2, 304704, Note_on_c, 0, 70, 0
2, 304704, Note_on_c, 0, 72, 127
2, 304752, Note_on_c, 0, 72, 0
2, 304752, Note_on_c, 0, 70, 127
2, 304800, Note_on_c, 0, 70, 0
2, 304800, Note_on_c, 0, 69, 127
2, 304848, Note_on_c, 0, 69, 0
2, 304848, Note_on_c, 0, 67, 127
2, 304896, Note_on_c, 0, 67, 0
2, 304896, Note_on_c, 0, 70, 127
2, 304944, Note_on_c, 0, 70, 0
2, 304944, Note_on_c, 0, 72, 127
2, 304992, Note_on_c, 0, 72, 0
2, 304992, Note_on_c, 0, 74, 127
2, 305040, Note_on_c, 0, 74, 0
2, 305040, Note_on_c, 0, 75, 127
2, 305088, Note_on_c, 0, 75, 0
2, 305088, Note_on_c, 0, 79, 127
2, 305136, Note_on_c, 0, 79, 0
2, 305136, Note_on_c, 0, 77, 127
2, 305184, Note_on_c, 0, 77, 0
2, 305184, Note_on_c, 0, 79, 127
2, 305232, Note_on_c, 0, 79, 0
2, 305232, Note_on_c, 0, 82, 127
2, 305280, Note_on_c, 0, 82, 0
2, 305280, Note_on_c, 0, 80, 127
2, 305328, Note_on_c, 0, 80, 0
2, 305328, Note_on_c, 0, 79, 127
2, 305376, Note_on_c, 0, 79, 0
2, 305376, Note_on_c, 0, 77, 127
2, 305424, Note_on_c, 0, 77, 0
2, 305424, Note_on_c, 0, 75, 127
2, 305472, Note_on_c, 0, 75, 0
2, 305472, Note_on_c, 0, 79, 127
2, 305520, Note_on_c, 0, 79, 0
2, 305520, Note_on_c, 0, 77, 127
2, 305568, Note_on_c, 0, 77, 0
2, 305568, Note_on_c, 0, 79, 127
2, 305616, Note_on_c, 0, 79, 0
2, 305616, Note_on_c, 0, 84, 127
2, 305664, Note_on_c, 0, 84, 0
2, 305664, Note_on_c, 0, 82, 127
2, 305712, Note_on_c, 0, 82, 0
2, 305712, Note_on_c, 0, 81, 127
2, 305760, Note_on_c, 0, 81, 0
2, 305760, Note_on_c, 0, 79, 127
2, 305808, Note_on_c, 0, 79, 0
2, 305808, Note_on_c, 0, 77, 127
2, 305856, Note_on_c, 0, 77, 0
2, 305856, Note_on_c, 0, 75, 127
2, 305904, Note_on_c, 0, 75, 0
2, 305904, Note_on_c, 0, 74, 127
2, 305952, Note_on_c, 0, 74, 0
2, 305952, Note_on_c, 0, 72, 127
2, 306000, Note_on_c, 0, 72, 0
2, 306000, Note_on_c, 0, 74, 127
2, 306048, Note_on_c, 0, 74, 0
2, 306048, Note_on_c, 0, 70, 127
2, 306096, Note_on_c, 0, 70, 0
2, 306096, Note_on_c, 0, 72, 127
2, 306144, Note_on_c, 0, 72, 0
2, 306144, Note_on_c, 0, 69, 127
2, 306192, Note_on_c, 0, 69, 0
2, 306192, Note_on_c, 0, 69, 127
2, 306288, Note_on_c, 0, 69, 0
2, 306288, Note_on_c, 0, 70, 127
2, 306300, Note_on_c, 0, 70, 0
2, 306300, Note_on_c, 0, 69, 127
2, 306312, Note_on_c, 0, 69, 0
2, 306312, Note_on_c, 0, 70, 127
2, 306576, Note_on_c, 0, 70, 0
2, 306576, Note_on_c, 0, 70, 127
2, 306624, Note_on_c, 0, 70, 0
2, 306624, Note_on_c, 0, 75, 127
2, 306672, Note_on_c, 0, 75, 0
2, 306672, Note_on_c, 0, 74, 127
2, 306720, Note_on_c, 0, 74, 0
2, 306720, Note_on_c, 0, 72, 127
2, 306768, Note_on_c, 0, 72, 0
2, 306768, Note_on_c, 0, 70, 127
2, 306816, Note_on_c, 0, 70, 0
2, 306816, Note_on_c, 0, 68, 127
2, 306864, Note_on_c, 0, 68, 0
2, 306864, Note_on_c, 0, 67, 127
2, 306912, Note_on_c, 0, 67, 0
2, 306912, Note_on_c, 0, 65, 127
2, 306960, Note_on_c, 0, 65, 0
2, 306960, Note_on_c, 0, 65, 127
2, 307008, Note_on_c, 0, 65, 0
2, 307008, Note_on_c, 0, 63, 127
2, 307032, Note_on_c, 0, 63, 0
2, 307032, Note_on_c, 0, 65, 127
2, 307056, Note_on_c, 0, 65, 0
2, 307056, Note_on_c, 0, 63, 127
2, 307080, Note_on_c, 0, 63, 0
2, 307080, Note_on_c, 0, 65, 127
2, 307104, Note_on_c, 0, 65, 0
2, 307104, Note_on_c, 0, 63, 127
2, 307152, Note_on_c, 0, 63, 0
2, 307248, Note_on_c, 0, 65, 127
2, 307344, Note_on_c, 0, 65, 0
2, 307344, Note_on_c, 0, 67, 127
2, 307392, Note_on_c, 0, 67, 0
2, 307392, Note_on_c, 0, 63, 127
2, 307440, Note_on_c, 0, 63, 0
2, 307440, Note_on_c, 0, 62, 127
2, 307488, Note_on_c, 0, 62, 0
2, 307488, Note_on_c, 0, 63, 127
2, 307536, Note_on_c, 0, 63, 0
2, 307536, Note_on_c, 0, 70, 127
2, 307584, Note_on_c, 0, 70, 0
2, 307584, Note_on_c, 0, 65, 127
2, 307632, Note_on_c, 0, 65, 0
2, 307632, Note_on_c, 0, 63, 127
2, 307680, Note_on_c, 0, 63, 0
2, 307680, Note_on_c, 0, 65, 127
2, 307728, Note_on_c, 0, 65, 0
2, 307728, Note_on_c, 0, 67, 127
2, 307776, Note_on_c, 0, 67, 0
2, 307776, Note_on_c, 0, 68, 127
2, 307824, Note_on_c, 0, 68, 0
2, 307824, Note_on_c, 0, 67, 127
2, 307872, Note_on_c, 0, 67, 0
2, 307872, Note_on_c, 0, 65, 127
2, 307920, Note_on_c, 0, 65, 0
2, 307920, Note_on_c, 0, 63, 127
2, 307968, Note_on_c, 0, 63, 0
2, 307968, Note_on_c, 0, 67, 127
2, 308016, Note_on_c, 0, 67, 0
2, 308016, Note_on_c, 0, 65, 127
2, 308064, Note_on_c, 0, 65, 0
2, 308064, Note_on_c, 0, 68, 127
2, 308112, Note_on_c, 0, 68, 0
2, 308112, Note_on_c, 0, 67, 127
2, 308160, Note_on_c, 0, 67, 0
2, 308160, Note_on_c, 0, 72, 127
2, 308208, Note_on_c, 0, 72, 0
2, 308208, Note_on_c, 0, 71, 127
2, 308256, Note_on_c, 0, 71, 0
2, 308256, Note_on_c, 0, 72, 127
2, 308304, Note_on_c, 0, 72, 0
2, 308304, Note_on_c, 0, 75, 127
2, 308352, Note_on_c, 0, 75, 0
2, 308352, Note_on_c, 0, 74, 127
2, 308400, Note_on_c, 0, 74, 0
2, 308400, Note_on_c, 0, 72, 127
2, 308448, Note_on_c, 0, 72, 0
2, 308448, Note_on_c, 0, 70, 127
2, 308496, Note_on_c, 0, 70, 0
2, 308496, Note_on_c, 0, 69, 127
2, 308544, Note_on_c, 0, 69, 0
2, 308544, Note_on_c, 0, 70, 127
2, 308592, Note_on_c, 0, 70, 0
2, 308592, Note_on_c, 0, 69, 127
2, 308640, Note_on_c, 0, 69, 0
2, 308640, Note_on_c, 0, 67, 127
2, 308688, Note_on_c, 0, 67, 0
2, 308688, Note_on_c, 0, 65, 127
2, 308736, Note_on_c, 0, 65, 0
2, 308736, Note_on_c, 0, 69, 127
2, 308784, Note_on_c, 0, 69, 0
2, 308784, Note_on_c, 0, 67, 127
2, 308832, Note_on_c, 0, 67, 0
2, 308832, Note_on_c, 0, 70, 127
2, 308880, Note_on_c, 0, 70, 0
2, 308880, Note_on_c, 0, 69, 127
2, 308928, Note_on_c, 0, 69, 0
2, 308928, Note_on_c, 0, 74, 127
2, 308976, Note_on_c, 0, 74, 0
2, 308976, Note_on_c, 0, 72, 127
2, 309024, Note_on_c, 0, 72, 0
2, 309024, Note_on_c, 0, 74, 127
2, 309072, Note_on_c, 0, 74, 0
2, 309072, Note_on_c, 0, 77, 127
2, 309120, Note_on_c, 0, 77, 0
2, 309120, Note_on_c, 0, 75, 127
2, 309168, Note_on_c, 0, 75, 0
2, 309168, Note_on_c, 0, 74, 127
2, 309216, Note_on_c, 0, 74, 0
2, 309216, Note_on_c, 0, 72, 127
2, 309264, Note_on_c, 0, 72, 0
2, 309264, Note_on_c, 0, 70, 127
2, 309312, Note_on_c, 0, 70, 0
2, 309312, Note_on_c, 0, 72, 127
2, 309360, Note_on_c, 0, 72, 0
2, 309360, Note_on_c, 0, 70, 127
2, 309408, Note_on_c, 0, 70, 0
2, 309408, Note_on_c, 0, 69, 127
2, 309456, Note_on_c, 0, 69, 0
2, 309456, Note_on_c, 0, 67, 127
2, 309504, Note_on_c, 0, 67, 0
2, 309504, Note_on_c, 0, 70, 127
2, 309552, Note_on_c, 0, 70, 0
2, 309552, Note_on_c, 0, 72, 127
2, 309600, Note_on_c, 0, 72, 0
2, 309600, Note_on_c, 0, 74, 127
2, 309648, Note_on_c, 0, 74, 0
2, 309648, Note_on_c, 0, 75, 127
2, 309696, Note_on_c, 0, 75, 0
2, 309696, Note_on_c, 0, 79, 127
2, 309744, Note_on_c, 0, 79, 0
2, 309744, Note_on_c, 0, 77, 127
2, 309792, Note_on_c, 0, 77, 0
2, 309792, Note_on_c, 0, 79, 127
2, 309840, Note_on_c, 0, 79, 0
2, 309840, Note_on_c, 0, 82, 127
2, 309888, Note_on_c, 0, 82, 0
2, 309888, Note_on_c, 0, 80, 127
2, 309936, Note_on_c, 0, 80, 0
2, 309936, Note_on_c, 0, 79, 127
2, 309984, Note_on_c, 0, 79, 0
2, 309984, Note_on_c, 0, 77, 127
2, 310032, Note_on_c, 0, 77, 0
2, 310032, Note_on_c, 0, 75, 127
2, 310080, Note_on_c, 0, 75, 0
2, 310080, Note_on_c, 0, 79, 127
2, 310128, Note_on_c, 0, 79, 0
2, 310128, Note_on_c, 0, 77, 127
2, 310176, Note_on_c, 0, 77, 0
2, 310176, Note_on_c, 0, 79, 127
2, 310224, Note_on_c, 0, 79, 0
2, 310224, Note_on_c, 0, 84, 127
2, 310272, Note_on_c, 0, 84, 0
2, 310272, Note_on_c, 0, 82, 127
2, 310320, Note_on_c, 0, 82, 0
2, 310320, Note_on_c, 0, 81, 127
2, 310368, Note_on_c, 0, 81, 0
2, 310368, Note_on_c, 0, 79, 127
2, 310416, Note_on_c, 0, 79, 0
2, 310416, Note_on_c, 0, 77, 127
2, 310464, Note_on_c, 0, 77, 0
2, 310464, Note_on_c, 0, 75, 127
2, 310512, Note_on_c, 0, 75, 0
2, 310512, Note_on_c, 0, 74, 127
2, 310560, Note_on_c, 0, 74, 0
2, 310560, Note_on_c, 0, 72, 127
2, 310608, Note_on_c, 0, 72, 0
2, 310608, Note_on_c, 0, 74, 127
2, 310656, Note_on_c, 0, 74, 0
2, 310656, Note_on_c, 0, 70, 127
2, 310704, Note_on_c, 0, 70, 0
2, 310704, Note_on_c, 0, 72, 127
2, 310752, Note_on_c, 0, 72, 0
2, 310752, Note_on_c, 0, 69, 127
2, 310800, Note_on_c, 0, 69, 0
2, 310800, Note_on_c, 0, 69, 127
2, 310896, Note_on_c, 0, 69, 0
2, 310896, Note_on_c, 0, 70, 127
2, 310908, Note_on_c, 0, 70, 0
2, 310908, Note_on_c, 0, 69, 127
2, 310920, Note_on_c, 0, 69, 0
2, 310920, Note_on_c, 0, 70, 127
2, 311184, Note_on_c, 0, 70, 0
2, 311184, Note_on_c, 0, 74, 127
2, 311232, Note_on_c, 0, 74, 0
2, 311232, Note_on_c, 0, 70, 127
2, 311280, Note_on_c, 0, 70, 0
2, 311280, Note_on_c, 0, 72, 127
2, 311328, Note_on_c, 0, 72, 0
2, 311328, Note_on_c, 0, 74, 127
2, 311376, Note_on_c, 0, 74, 0
2, 311376, Note_on_c, 0, 75, 127
2, 311424, Note_on_c, 0, 75, 0
2, 311424, Note_on_c, 0, 77, 127
2, 311472, Note_on_c, 0, 77, 0
2, 311472, Note_on_c, 0, 79, 127
2, 311520, Note_on_c, 0, 79, 0
2, 311520, Note_on_c, 0, 80, 127
2, 311568, Note_on_c, 0, 80, 0
2, 311568, Note_on_c, 0, 80, 127
2, 311616, Note_on_c, 0, 80, 0
2, 311616, Note_on_c, 0, 79, 127
2, 311640, Note_on_c, 0, 79, 0
2, 311640, Note_on_c, 0, 80, 127
2, 311664, Note_on_c, 0, 80, 0
2, 311664, Note_on_c, 0, 79, 127
2, 311688, Note_on_c, 0, 79, 0
2, 311688, Note_on_c, 0, 80, 127
2, 311712, Note_on_c, 0, 80, 0
2, 311712, Note_on_c, 0, 79, 127
2, 311760, Note_on_c, 0, 79, 0
2, 311856, Note_on_c, 0, 77, 127
2, 311952, Note_on_c, 0, 77, 0
2, 311952, Note_on_c, 0, 75, 127
2, 312000, Note_on_c, 0, 75, 0
2, 312000, Note_on_c, 0, 72, 127
2, 312048, Note_on_c, 0, 72, 0
2, 312048, Note_on_c, 0, 71, 127
2, 312096, Note_on_c, 0, 71, 0
2, 312096, Note_on_c, 0, 72, 127
2, 312144, Note_on_c, 0, 72, 0
2, 312144, Note_on_c, 0, 80, 127
2, 312192, Note_on_c, 0, 80, 0
2, 312192, Note_on_c, 0, 72, 127
2, 312240, Note_on_c, 0, 72, 0
2, 312240, Note_on_c, 0, 71, 127
2, 312288, Note_on_c, 0, 71, 0
2, 312288, Note_on_c, 0, 72, 127
2, 312336, Note_on_c, 0, 72, 0
2, 312336, Note_on_c, 0, 74, 127
2, 312384, Note_on_c, 0, 74, 0
2, 312384, Note_on_c, 0, 72, 127
2, 312432, Note_on_c, 0, 72, 0
2, 312432, Note_on_c, 0, 71, 127
2, 312480, Note_on_c, 0, 71, 0
2, 312480, Note_on_c, 0, 69, 127
2, 312528, Note_on_c, 0, 69, 0
2, 312528, Note_on_c, 0, 67, 127
2, 312576, Note_on_c, 0, 67, 0
2, 312576, Note_on_c, 0, 65, 127
2, 312624, Note_on_c, 0, 65, 0
2, 312624, Note_on_c, 0, 64, 127
2, 312672, Note_on_c, 0, 64, 0
2, 312672, Note_on_c, 0, 62, 127
2, 312720, Note_on_c, 0, 62, 0
2, 312768, Note_on_c, 0, 72, 127
2, 312816, Note_on_c, 0, 72, 0
2, 312816, Note_on_c, 0, 71, 127
2, 312864, Note_on_c, 0, 71, 0
2, 312864, Note_on_c, 0, 72, 127
2, 312912, Note_on_c, 0, 72, 0
2, 312912, Note_on_c, 0, 74, 127
2, 312960, Note_on_c, 0, 74, 0
2, 312960, Note_on_c, 0, 72, 127
2, 313008, Note_on_c, 0, 72, 0
2, 313008, Note_on_c, 0, 71, 127
2, 313056, Note_on_c, 0, 71, 0
2, 313056, Note_on_c, 0, 72, 127
2, 313104, Note_on_c, 0, 72, 0
2, 313104, Note_on_c, 0, 80, 127
2, 313152, Note_on_c, 0, 80, 0
2, 313152, Note_on_c, 0, 77, 127
2, 313200, Note_on_c, 0, 77, 0
2, 313200, Note_on_c, 0, 72, 127
2, 313296, Note_on_c, 0, 72, 0
2, 313536, Note_on_c, 0, 70, 127
2, 313584, Note_on_c, 0, 70, 0
2, 313584, Note_on_c, 0, 69, 127
2, 313632, Note_on_c, 0, 69, 0
2, 313632, Note_on_c, 0, 70, 127
2, 313680, Note_on_c, 0, 70, 0
2, 313680, Note_on_c, 0, 72, 127
2, 313728, Note_on_c, 0, 72, 0
2, 313728, Note_on_c, 0, 70, 127
2, 313776, Note_on_c, 0, 70, 0
2, 313776, Note_on_c, 0, 69, 127
2, 313824, Note_on_c, 0, 69, 0
2, 313824, Note_on_c, 0, 70, 127
2, 313872, Note_on_c, 0, 70, 0
2, 313872, Note_on_c, 0, 79, 127
2, 313920, Note_on_c, 0, 79, 0
2, 313920, Note_on_c, 0, 75, 127
2, 313968, Note_on_c, 0, 75, 0
2, 313968, Note_on_c, 0, 70, 127
2, 314064, Note_on_c, 0, 70, 0
2, 314352, Note_on_c, 0, 77, 127
2, 314400, Note_on_c, 0, 77, 0
2, 314400, Note_on_c, 0, 75, 127
2, 314448, Note_on_c, 0, 75, 0
2, 314448, Note_on_c, 0, 74, 127
2, 314496, Note_on_c, 0, 74, 0
2, 314496, Note_on_c, 0, 75, 127
2, 314544, Note_on_c, 0, 75, 0
2, 314544, Note_on_c, 0, 77, 127
2, 314736, Note_on_c, 0, 77, 0
2, 314736, Note_on_c, 0, 75, 127
2, 314784, Note_on_c, 0, 75, 0
2, 314784, Note_on_c, 0, 74, 127
2, 314832, Note_on_c, 0, 74, 0
2, 314832, Note_on_c, 0, 72, 127
2, 314880, Note_on_c, 0, 72, 0
2, 314880, Note_on_c, 0, 74, 127
2, 314928, Note_on_c, 0, 74, 0
2, 314928, Note_on_c, 0, 75, 127
2, 315120, Note_on_c, 0, 75, 0
2, 315120, Note_on_c, 0, 74, 127
2, 315168, Note_on_c, 0, 74, 0
2, 315168, Note_on_c, 0, 72, 127
2, 315216, Note_on_c, 0, 72, 0
2, 315216, Note_on_c, 0, 79, 127
2, 315264, Note_on_c, 0, 79, 0
2, 315264, Note_on_c, 0, 77, 127
2, 315312, Note_on_c, 0, 77, 0
2, 315312, Note_on_c, 0, 75, 127
2, 315360, Note_on_c, 0, 75, 0
2, 315360, Note_on_c, 0, 74, 127
2, 315408, Note_on_c, 0, 74, 0
2, 315408, Note_on_c, 0, 74, 127
2, 315504, Note_on_c, 0, 74, 0
2, 315504, Note_on_c, 0, 72, 127
2, 315516, Note_on_c, 0, 72, 0
2, 315516, Note_on_c, 0, 74, 127
2, 315528, Note_on_c, 0, 74, 0
2, 315528, Note_on_c, 0, 72, 127
2, 315600, Note_on_c, 0, 72, 0
2, 315840, Note_on_c, 0, 72, 127
2, 315888, Note_on_c, 0, 72, 0
2, 315888, Note_on_c, 0, 74, 127
2, 315936, Note_on_c, 0, 74, 0
2, 315936, Note_on_c, 0, 75, 127
2, 315984, Note_on_c, 0, 75, 0
2, 315984, Note_on_c, 0, 74, 127
2, 316032, Note_on_c, 0, 74, 0
2, 316032, Note_on_c, 0, 72, 127
2, 316080, Note_on_c, 0, 72, 0
2, 316080, Note_on_c, 0, 70, 127
2, 316128, Note_on_c, 0, 70, 0
2, 316128, Note_on_c, 0, 69, 127
2, 316176, Note_on_c, 0, 69, 0
2, 316176, Note_on_c, 0, 77, 127
2, 316200, Note_on_c, 0, 77, 0
2, 316200, Note_on_c, 0, 75, 127
2, 316224, Note_on_c, 0, 75, 0
2, 316224, Note_on_c, 0, 77, 127
2, 316368, Note_on_c, 0, 77, 0
2, 316464, Note_on_c, 0, 69, 127
2, 316560, Note_on_c, 0, 69, 0
2, 316560, Note_on_c, 0, 70, 127
2, 316608, Note_on_c, 0, 70, 0
2, 316608, Note_on_c, 0, 65, 127
2, 316656, Note_on_c, 0, 65, 0
2, 316656, Note_on_c, 0, 67, 127
2, 316704, Note_on_c, 0, 67, 0
2, 316704, Note_on_c, 0, 69, 127
2, 316752, Note_on_c, 0, 69, 0
2, 316752, Note_on_c, 0, 70, 127
2, 316800, Note_on_c, 0, 70, 0
2, 316800, Note_on_c, 0, 74, 127
2, 316848, Note_on_c, 0, 74, 0
2, 316848, Note_on_c, 0, 72, 127
2, 316896, Note_on_c, 0, 72, 0
2, 316896, Note_on_c, 0, 75, 127
2, 316944, Note_on_c, 0, 75, 0
2, 316944, Note_on_c, 0, 74, 127
2, 316992, Note_on_c, 0, 74, 0
2, 316992, Note_on_c, 0, 70, 127
2, 317040, Note_on_c, 0, 70, 0
2, 317040, Note_on_c, 0, 72, 127
2, 317088, Note_on_c, 0, 72, 0
2, 317088, Note_on_c, 0, 74, 127
2, 317136, Note_on_c, 0, 74, 0
2, 317136, Note_on_c, 0, 75, 127
2, 317184, Note_on_c, 0, 75, 0
2, 317184, Note_on_c, 0, 79, 127
2, 317232, Note_on_c, 0, 79, 0
2, 317232, Note_on_c, 0, 77, 127
2, 317280, Note_on_c, 0, 77, 0
2, 317280, Note_on_c, 0, 80, 127
2, 317328, Note_on_c, 0, 80, 0
2, 317328, Note_on_c, 0, 79, 127
2, 317376, Note_on_c, 0, 79, 0
2, 317376, Note_on_c, 0, 75, 127
2, 317424, Note_on_c, 0, 75, 0
2, 317424, Note_on_c, 0, 77, 127
2, 317472, Note_on_c, 0, 77, 0
2, 317472, Note_on_c, 0, 79, 127
2, 317520, Note_on_c, 0, 79, 0
2, 317520, Note_on_c, 0, 80, 127
2, 317568, Note_on_c, 0, 80, 0
2, 317568, Note_on_c, 0, 79, 127
2, 317616, Note_on_c, 0, 79, 0
2, 317616, Note_on_c, 0, 77, 127
2, 317664, Note_on_c, 0, 77, 0
2, 317664, Note_on_c, 0, 75, 127
2, 317712, Note_on_c, 0, 75, 0
2, 317712, Note_on_c, 0, 73, 127
2, 317760, Note_on_c, 0, 73, 0
2, 317760, Note_on_c, 0, 70, 127
2, 317808, Note_on_c, 0, 70, 0
2, 317808, Note_on_c, 0, 72, 127
2, 317856, Note_on_c, 0, 72, 0
2, 317856, Note_on_c, 0, 77, 127
2, 317904, Note_on_c, 0, 77, 0
2, 317904, Note_on_c, 0, 75, 127
2, 317952, Note_on_c, 0, 75, 0
2, 317952, Note_on_c, 0, 74, 127
2, 318000, Note_on_c, 0, 74, 0
2, 318000, Note_on_c, 0, 72, 127
2, 318048, Note_on_c, 0, 72, 0
2, 318048, Note_on_c, 0, 70, 127
2, 318096, Note_on_c, 0, 70, 0
2, 318096, Note_on_c, 0, 68, 127
2, 318144, Note_on_c, 0, 68, 0
2, 318144, Note_on_c, 0, 65, 127
2, 318192, Note_on_c, 0, 65, 0
2, 318192, Note_on_c, 0, 67, 127
2, 318240, Note_on_c, 0, 67, 0
2, 318240, Note_on_c, 0, 75, 127
2, 318288, Note_on_c, 0, 75, 0
2, 318288, Note_on_c, 0, 74, 127
2, 318336, Note_on_c, 0, 74, 0
2, 318336, Note_on_c, 0, 72, 127
2, 318384, Note_on_c, 0, 72, 0
2, 318384, Note_on_c, 0, 70, 127
2, 318432, Note_on_c, 0, 70, 0
2, 318432, Note_on_c, 0, 68, 127
2, 318480, Note_on_c, 0, 68, 0
2, 318480, Note_on_c, 0, 67, 127
2, 318528, Note_on_c, 0, 67, 0
2, 318528, Note_on_c, 0, 63, 127
2, 318576, Note_on_c, 0, 63, 0
2, 318576, Note_on_c, 0, 65, 127
2, 318600, Note_on_c, 0, 65, 0
2, 318600, Note_on_c, 0, 63, 127
2, 318624, Note_on_c, 0, 63, 0
2, 318624, Note_on_c, 0, 65, 127
2, 318672, Note_on_c, 0, 65, 0
2, 318864, Note_on_c, 0, 70, 127
2, 318912, Note_on_c, 0, 70, 0
2, 318912, Note_on_c, 0, 75, 127
2, 318960, Note_on_c, 0, 75, 0
2, 318960, Note_on_c, 0, 74, 127
2, 319008, Note_on_c, 0, 74, 0
2, 319008, Note_on_c, 0, 72, 127
2, 319056, Note_on_c, 0, 72, 0
2, 319056, Note_on_c, 0, 70, 127
2, 319104, Note_on_c, 0, 70, 0
2, 319104, Note_on_c, 0, 68, 127
2, 319152, Note_on_c, 0, 68, 0
2, 319152, Note_on_c, 0, 67, 127
2, 319200, Note_on_c, 0, 67, 0
2, 319200, Note_on_c, 0, 65, 127
2, 319248, Note_on_c, 0, 65, 0
2, 319248, Note_on_c, 0, 65, 127
2, 319296, Note_on_c, 0, 65, 0
2, 319296, Note_on_c, 0, 63, 127
2, 319320, Note_on_c, 0, 63, 0
2, 319320, Note_on_c, 0, 65, 127
2, 319344, Note_on_c, 0, 65, 0
2, 319344, Note_on_c, 0, 63, 127
2, 319368, Note_on_c, 0, 63, 0
2, 319368, Note_on_c, 0, 65, 127
2, 319392, Note_on_c, 0, 65, 0
2, 319392, Note_on_c, 0, 63, 127
2, 319440, Note_on_c, 0, 63, 0
2, 319536, Note_on_c, 0, 65, 127
2, 319632, Note_on_c, 0, 65, 0
2, 319632, Note_on_c, 0, 67, 127
2, 319680, Note_on_c, 0, 67, 0
2, 319680, Note_on_c, 0, 72, 127
2, 319728, Note_on_c, 0, 72, 0
2, 319728, Note_on_c, 0, 70, 127
2, 319776, Note_on_c, 0, 70, 0
2, 319776, Note_on_c, 0, 68, 127
2, 319824, Note_on_c, 0, 68, 0
2, 319824, Note_on_c, 0, 67, 127
2, 319872, Note_on_c, 0, 67, 0
2, 319872, Note_on_c, 0, 65, 127
2, 319920, Note_on_c, 0, 65, 0
2, 319920, Note_on_c, 0, 63, 127
2, 319968, Note_on_c, 0, 63, 0
2, 319968, Note_on_c, 0, 61, 127
2, 320016, Note_on_c, 0, 61, 0
2, 320016, Note_on_c, 0, 60, 127
2, 320064, Note_on_c, 0, 60, 0
2, 320064, Note_on_c, 0, 61, 127
2, 320112, Note_on_c, 0, 61, 0
2, 320112, Note_on_c, 0, 60, 127
2, 320160, Note_on_c, 0, 60, 0
2, 320160, Note_on_c, 0, 58, 127
2, 320208, Note_on_c, 0, 58, 0
2, 320208, Note_on_c, 0, 56, 127
2, 320256, Note_on_c, 0, 56, 0
2, 320256, Note_on_c, 0, 60, 127
2, 320304, Note_on_c, 0, 60, 0
2, 320304, Note_on_c, 0, 58, 127
2, 320352, Note_on_c, 0, 58, 0
2, 320352, Note_on_c, 0, 61, 127
2, 320400, Note_on_c, 0, 61, 0
2, 320400, Note_on_c, 0, 60, 127
2, 320448, Note_on_c, 0, 60, 0
2, 320448, Note_on_c, 0, 65, 127
2, 320496, Note_on_c, 0, 65, 0
2, 320496, Note_on_c, 0, 64, 127
2, 320544, Note_on_c, 0, 64, 0
2, 320544, Note_on_c, 0, 65, 127
2, 320592, Note_on_c, 0, 65, 0
2, 320592, Note_on_c, 0, 68, 127
2, 320640, Note_on_c, 0, 68, 0
2, 320640, Note_on_c, 0, 67, 127
2, 320688, Note_on_c, 0, 67, 0
2, 320688, Note_on_c, 0, 65, 127
2, 320736, Note_on_c, 0, 65, 0
2, 320736, Note_on_c, 0, 63, 127
2, 320784, Note_on_c, 0, 63, 0
2, 320784, Note_on_c, 0, 62, 127
2, 320832, Note_on_c, 0, 62, 0
2, 320832, Note_on_c, 0, 63, 127
2, 320880, Note_on_c, 0, 63, 0
2, 320880, Note_on_c, 0, 62, 127
2, 320928, Note_on_c, 0, 62, 0
2, 320928, Note_on_c, 0, 60, 127
2, 320976, Note_on_c, 0, 60, 0
2, 320976, Note_on_c, 0, 58, 127
2, 321024, Note_on_c, 0, 58, 0
2, 321024, Note_on_c, 0, 62, 127
2, 321072, Note_on_c, 0, 62, 0
2, 321072, Note_on_c, 0, 60, 127
2, 321120, Note_on_c, 0, 60, 0
2, 321120, Note_on_c, 0, 63, 127
2, 321168, Note_on_c, 0, 63, 0
2, 321168, Note_on_c, 0, 62, 127
2, 321216, Note_on_c, 0, 62, 0
2, 321216, Note_on_c, 0, 67, 127
2, 321264, Note_on_c, 0, 67, 0
2, 321264, Note_on_c, 0, 65, 127
2, 321312, Note_on_c, 0, 65, 0
2, 321312, Note_on_c, 0, 67, 127
2, 321360, Note_on_c, 0, 67, 0
2, 321360, Note_on_c, 0, 70, 127
2, 321408, Note_on_c, 0, 70, 0
2, 321408, Note_on_c, 0, 68, 127
2, 321456, Note_on_c, 0, 68, 0
2, 321456, Note_on_c, 0, 67, 127
2, 321504, Note_on_c, 0, 67, 0
2, 321504, Note_on_c, 0, 65, 127
2, 321552, Note_on_c, 0, 65, 0
2, 321552, Note_on_c, 0, 63, 127
2, 321600, Note_on_c, 0, 63, 0
2, 321600, Note_on_c, 0, 65, 127
2, 321648, Note_on_c, 0, 65, 0
2, 321648, Note_on_c, 0, 63, 127
2, 321696, Note_on_c, 0, 63, 0
2, 321696, Note_on_c, 0, 62, 127
2, 321744, Note_on_c, 0, 62, 0
2, 321744, Note_on_c, 0, 60, 127
2, 321792, Note_on_c, 0, 60, 0
2, 321792, Note_on_c, 0, 63, 127
2, 321840, Note_on_c, 0, 63, 0
2, 321840, Note_on_c, 0, 65, 127
2, 321888, Note_on_c, 0, 65, 0
2, 321888, Note_on_c, 0, 67, 127
2, 321936, Note_on_c, 0, 67, 0
2, 321936, Note_on_c, 0, 68, 127
2, 321984, Note_on_c, 0, 68, 0
2, 321984, Note_on_c, 0, 72, 127
2, 322032, Note_on_c, 0, 72, 0
2, 322032, Note_on_c, 0, 70, 127
2, 322080, Note_on_c, 0, 70, 0
2, 322080, Note_on_c, 0, 72, 127
2, 322128, Note_on_c, 0, 72, 0
2, 322128, Note_on_c, 0, 75, 127
2, 322176, Note_on_c, 0, 75, 0
2, 322176, Note_on_c, 0, 73, 127
2, 322224, Note_on_c, 0, 73, 0
2, 322224, Note_on_c, 0, 72, 127
2, 322272, Note_on_c, 0, 72, 0
2, 322272, Note_on_c, 0, 70, 127
2, 322320, Note_on_c, 0, 70, 0
2, 322320, Note_on_c, 0, 68, 127
2, 322368, Note_on_c, 0, 68, 0
2, 322368, Note_on_c, 0, 72, 127
2, 322416, Note_on_c, 0, 72, 0
2, 322416, Note_on_c, 0, 70, 127
2, 322464, Note_on_c, 0, 70, 0
2, 322464, Note_on_c, 0, 72, 127
2, 322512, Note_on_c, 0, 72, 0
2, 322512, Note_on_c, 0, 77, 127
2, 322560, Note_on_c, 0, 77, 0
2, 322560, Note_on_c, 0, 75, 127
2, 322608, Note_on_c, 0, 75, 0
2, 322608, Note_on_c, 0, 74, 127
2, 322656, Note_on_c, 0, 74, 0
2, 322656, Note_on_c, 0, 72, 127
2, 322704, Note_on_c, 0, 72, 0
2, 322704, Note_on_c, 0, 70, 127
2, 322752, Note_on_c, 0, 70, 0
2, 322752, Note_on_c, 0, 68, 127
2, 322800, Note_on_c, 0, 68, 0
2, 322800, Note_on_c, 0, 67, 127
2, 322848, Note_on_c, 0, 67, 0
2, 322848, Note_on_c, 0, 65, 127
2, 322896, Note_on_c, 0, 65, 0
2, 322896, Note_on_c, 0, 67, 127
2, 322944, Note_on_c, 0, 67, 0
2, 322944, Note_on_c, 0, 63, 127
2, 322992, Note_on_c, 0, 63, 0
2, 322992, Note_on_c, 0, 65, 127
2, 323040, Note_on_c, 0, 65, 0
2, 323040, Note_on_c, 0, 62, 127
2, 323088, Note_on_c, 0, 62, 0
2, 323088, Note_on_c, 0, 65, 127
2, 323184, Note_on_c, 0, 65, 0
2, 323184, Note_on_c, 0, 63, 127
2, 323208, Note_on_c, 0, 63, 0
2, 323208, Note_on_c, 0, 65, 127
2, 323232, Note_on_c, 0, 65, 0
2, 323232, Note_on_c, 0, 63, 127
2, 323472, Note_on_c, 0, 63, 0
2, 323472, Note_on_c, 0, 74, 127
2, 323520, Note_on_c, 0, 74, 0
2, 323520, Note_on_c, 0, 70, 127
2, 323568, Note_on_c, 0, 70, 0
2, 323568, Note_on_c, 0, 72, 127
2, 323616, Note_on_c, 0, 72, 0
2, 323616, Note_on_c, 0, 74, 127
2, 323664, Note_on_c, 0, 74, 0
2, 323664, Note_on_c, 0, 75, 127
2, 323712, Note_on_c, 0, 75, 0
2, 323712, Note_on_c, 0, 77, 127
2, 323760, Note_on_c, 0, 77, 0
2, 323760, Note_on_c, 0, 79, 127
2, 323808, Note_on_c, 0, 79, 0
2, 323808, Note_on_c, 0, 80, 127
2, 323856, Note_on_c, 0, 80, 0
2, 323856, Note_on_c, 0, 80, 127
2, 323904, Note_on_c, 0, 80, 0
2, 323904, Note_on_c, 0, 79, 127
2, 323928, Note_on_c, 0, 79, 0
2, 323928, Note_on_c, 0, 80, 127
2, 323952, Note_on_c, 0, 80, 0
2, 323952, Note_on_c, 0, 79, 127
2, 323976, Note_on_c, 0, 79, 0
2, 323976, Note_on_c, 0, 80, 127
2, 324000, Note_on_c, 0, 80, 0
2, 324000, Note_on_c, 0, 79, 127
2, 324048, Note_on_c, 0, 79, 0
2, 324144, Note_on_c, 0, 77, 127
2, 324240, Note_on_c, 0, 77, 0
2, 324240, Note_on_c, 0, 75, 127
2, 324288, Note_on_c, 0, 75, 0
2, 324288, Note_on_c, 0, 72, 127
2, 324336, Note_on_c, 0, 72, 0
2, 324336, Note_on_c, 0, 71, 127
2, 324384, Note_on_c, 0, 71, 0
2, 324384, Note_on_c, 0, 72, 127
2, 324432, Note_on_c, 0, 72, 0
2, 324432, Note_on_c, 0, 80, 127
2, 324480, Note_on_c, 0, 80, 0
2, 324480, Note_on_c, 0, 72, 127
2, 324528, Note_on_c, 0, 72, 0
2, 324528, Note_on_c, 0, 71, 127
2, 324576, Note_on_c, 0, 71, 0
2, 324576, Note_on_c, 0, 72, 127
2, 324624, Note_on_c, 0, 72, 0
2, 324624, Note_on_c, 0, 74, 127
2, 324672, Note_on_c, 0, 74, 0
2, 324672, Note_on_c, 0, 72, 127
2, 324720, Note_on_c, 0, 72, 0
2, 324720, Note_on_c, 0, 71, 127
2, 324768, Note_on_c, 0, 71, 0
2, 324768, Note_on_c, 0, 69, 127
2, 324816, Note_on_c, 0, 69, 0
2, 324816, Note_on_c, 0, 67, 127
2, 324864, Note_on_c, 0, 67, 0
2, 324864, Note_on_c, 0, 65, 127
2, 324912, Note_on_c, 0, 65, 0
2, 324912, Note_on_c, 0, 64, 127
2, 324960, Note_on_c, 0, 64, 0
2, 324960, Note_on_c, 0, 62, 127
2, 325008, Note_on_c, 0, 62, 0
2, 325056, Note_on_c, 0, 72, 127
2, 325104, Note_on_c, 0, 72, 0
2, 325104, Note_on_c, 0, 71, 127
2, 325152, Note_on_c, 0, 71, 0
2, 325152, Note_on_c, 0, 72, 127
2, 325200, Note_on_c, 0, 72, 0
2, 325200, Note_on_c, 0, 74, 127
2, 325248, Note_on_c, 0, 74, 0
2, 325248, Note_on_c, 0, 72, 127
2, 325296, Note_on_c, 0, 72, 0
2, 325296, Note_on_c, 0, 71, 127
2, 325344, Note_on_c, 0, 71, 0
2, 325344, Note_on_c, 0, 72, 127
2, 325392, Note_on_c, 0, 72, 0
2, 325392, Note_on_c, 0, 80, 127
2, 325440, Note_on_c, 0, 80, 0
2, 325440, Note_on_c, 0, 77, 127
2, 325488, Note_on_c, 0, 77, 0
2, 325488, Note_on_c, 0, 72, 127
2, 325584, Note_on_c, 0, 72, 0
2, 325824, Note_on_c, 0, 70, 127
2, 325872, Note_on_c, 0, 70, 0
2, 325872, Note_on_c, 0, 69, 127
2, 325920, Note_on_c, 0, 69, 0
2, 325920, Note_on_c, 0, 70, 127
2, 325968, Note_on_c, 0, 70, 0
2, 325968, Note_on_c, 0, 72, 127
2, 326016, Note_on_c, 0, 72, 0
2, 326016, Note_on_c, 0, 70, 127
2, 326064, Note_on_c, 0, 70, 0
2, 326064, Note_on_c, 0, 69, 127
2, 326112, Note_on_c, 0, 69, 0
2, 326112, Note_on_c, 0, 70, 127
2, 326160, Note_on_c, 0, 70, 0
2, 326160, Note_on_c, 0, 79, 127
2, 326208, Note_on_c, 0, 79, 0
2, 326208, Note_on_c, 0, 75, 127
2, 326256, Note_on_c, 0, 75, 0
2, 326256, Note_on_c, 0, 70, 127
2, 326352, Note_on_c, 0, 70, 0
2, 326640, Note_on_c, 0, 77, 127
2, 326688, Note_on_c, 0, 77, 0
2, 326688, Note_on_c, 0, 75, 127
2, 326736, Note_on_c, 0, 75, 0
2, 326736, Note_on_c, 0, 74, 127
2, 326784, Note_on_c, 0, 74, 0
2, 326784, Note_on_c, 0, 75, 127
2, 326832, Note_on_c, 0, 75, 0
2, 326832, Note_on_c, 0, 77, 127
2, 327024, Note_on_c, 0, 77, 0
2, 327024, Note_on_c, 0, 75, 127
2, 327072, Note_on_c, 0, 75, 0
2, 327072, Note_on_c, 0, 74, 127
2, 327120, Note_on_c, 0, 74, 0
2, 327120, Note_on_c, 0, 72, 127
2, 327168, Note_on_c, 0, 72, 0
2, 327168, Note_on_c, 0, 74, 127
2, 327216, Note_on_c, 0, 74, 0
2, 327216, Note_on_c, 0, 75, 127
2, 327408, Note_on_c, 0, 75, 0
2, 327408, Note_on_c, 0, 74, 127
2, 327456, Note_on_c, 0, 74, 0
2, 327456, Note_on_c, 0, 72, 127
2, 327504, Note_on_c, 0, 72, 0
2, 327504, Note_on_c, 0, 79, 127
2, 327552, Note_on_c, 0, 79, 0
2, 327552, Note_on_c, 0, 77, 127
2, 327600, Note_on_c, 0, 77, 0
2, 327600, Note_on_c, 0, 75, 127
2, 327648, Note_on_c, 0, 75, 0
2, 327648, Note_on_c, 0, 74, 127
2, 327696, Note_on_c, 0, 74, 0
2, 327696, Note_on_c, 0, 74, 127
2, 327792, Note_on_c, 0, 74, 0
2, 327792, Note_on_c, 0, 72, 127
2, 327804, Note_on_c, 0, 72, 0
2, 327804, Note_on_c, 0, 74, 127
2, 327816, Note_on_c, 0, 74, 0
2, 327816, Note_on_c, 0, 72, 127
2, 327888, Note_on_c, 0, 72, 0
2, 328128, Note_on_c, 0, 72, 127
2, 328176, Note_on_c, 0, 72, 0
2, 328176, Note_on_c, 0, 74, 127
2, 328224, Note_on_c, 0, 74, 0
2, 328224, Note_on_c, 0, 75, 127
2, 328272, Note_on_c, 0, 75, 0
2, 328272, Note_on_c, 0, 74, 127
2, 328320, Note_on_c, 0, 74, 0
2, 328320, Note_on_c, 0, 72, 127
2, 328368, Note_on_c, 0, 72, 0
2, 328368, Note_on_c, 0, 70, 127
2, 328416, Note_on_c, 0, 70, 0
2, 328416, Note_on_c, 0, 69, 127
2, 328464, Note_on_c, 0, 69, 0
2, 328464, Note_on_c, 0, 77, 127
2, 328488, Note_on_c, 0, 77, 0
2, 328488, Note_on_c, 0, 75, 127
2, 328512, Note_on_c, 0, 75, 0
2, 328512, Note_on_c, 0, 77, 127
2, 328656, Note_on_c, 0, 77, 0
2, 328752, Note_on_c, 0, 69, 127
2, 328848, Note_on_c, 0, 69, 0
2, 328848, Note_on_c, 0, 70, 127
2, 328896, Note_on_c, 0, 70, 0
2, 328896, Note_on_c, 0, 65, 127
2, 328944, Note_on_c, 0, 65, 0
2, 328944, Note_on_c, 0, 67, 127
2, 328992, Note_on_c, 0, 67, 0
2, 328992, Note_on_c, 0, 69, 127
2, 329040, Note_on_c, 0, 69, 0
2, 329040, Note_on_c, 0, 70, 127
2, 329088, Note_on_c, 0, 70, 0
2, 329088, Note_on_c, 0, 74, 127
2, 329136, Note_on_c, 0, 74, 0
2, 329136, Note_on_c, 0, 72, 127
2, 329184, Note_on_c, 0, 72, 0
2, 329184, Note_on_c, 0, 75, 127
2, 329232, Note_on_c, 0, 75, 0
2, 329232, Note_on_c, 0, 74, 127
2, 329280, Note_on_c, 0, 74, 0
2, 329280, Note_on_c, 0, 70, 127
2, 329328, Note_on_c, 0, 70, 0
2, 329328, Note_on_c, 0, 72, 127
2, 329376, Note_on_c, 0, 72, 0
2, 329376, Note_on_c, 0, 74, 127
2, 329424, Note_on_c, 0, 74, 0
2, 329424, Note_on_c, 0, 75, 127
2, 329472, Note_on_c, 0, 75, 0
2, 329472, Note_on_c, 0, 79, 127
2, 329520, Note_on_c, 0, 79, 0
2, 329520, Note_on_c, 0, 77, 127
2, 329568, Note_on_c, 0, 77, 0
2, 329568, Note_on_c, 0, 80, 127
2, 329616, Note_on_c, 0, 80, 0
2, 329616, Note_on_c, 0, 79, 127
2, 329664, Note_on_c, 0, 79, 0
2, 329664, Note_on_c, 0, 75, 127
2, 329712, Note_on_c, 0, 75, 0
2, 329712, Note_on_c, 0, 77, 127
2, 329760, Note_on_c, 0, 77, 0
2, 329760, Note_on_c, 0, 79, 127
2, 329808, Note_on_c, 0, 79, 0
2, 329808, Note_on_c, 0, 80, 127
2, 329856, Note_on_c, 0, 80, 0
2, 329856, Note_on_c, 0, 79, 127
2, 329904, Note_on_c, 0, 79, 0
2, 329904, Note_on_c, 0, 77, 127
2, 329952, Note_on_c, 0, 77, 0
2, 329952, Note_on_c, 0, 75, 127
2, 330000, Note_on_c, 0, 75, 0
2, 330000, Note_on_c, 0, 73, 127
2, 330048, Note_on_c, 0, 73, 0
2, 330048, Note_on_c, 0, 70, 127
2, 330096, Note_on_c, 0, 70, 0
2, 330096, Note_on_c, 0, 72, 127
2, 330144, Note_on_c, 0, 72, 0
2, 330144, Note_on_c, 0, 77, 127
2, 330192, Note_on_c, 0, 77, 0
2, 330192, Note_on_c, 0, 75, 127
2, 330240, Note_on_c, 0, 75, 0
2, 330240, Note_on_c, 0, 74, 127
2, 330288, Note_on_c, 0, 74, 0
2, 330288, Note_on_c, 0, 72, 127
2, 330336, Note_on_c, 0, 72, 0
2, 330336, Note_on_c, 0, 70, 127
2, 330384, Note_on_c, 0, 70, 0
2, 330384, Note_on_c, 0, 68, 127
2, 330432, Note_on_c, 0, 68, 0
2, 330432, Note_on_c, 0, 65, 127
2, 330480, Note_on_c, 0, 65, 0
2, 330480, Note_on_c, 0, 67, 127
2, 330528, Note_on_c, 0, 67, 0
2, 330528, Note_on_c, 0, 75, 127
2, 330576, Note_on_c, 0, 75, 0
2, 330576, Note_on_c, 0, 74, 127
2, 330624, Note_on_c, 0, 74, 0
2, 330624, Note_on_c, 0, 72, 127
2, 330672, Note_on_c, 0, 72, 0
2, 330672, Note_on_c, 0, 70, 127
2, 330720, Note_on_c, 0, 70, 0
2, 330720, Note_on_c, 0, 68, 127
2, 330768, Note_on_c, 0, 68, 0
2, 330768, Note_on_c, 0, 67, 127
2, 330816, Note_on_c, 0, 67, 0
2, 330816, Note_on_c, 0, 63, 127
2, 330864, Note_on_c, 0, 63, 0
2, 330864, Note_on_c, 0, 65, 127
2, 330888, Note_on_c, 0, 65, 0
2, 330888, Note_on_c, 0, 63, 127
2, 330912, Note_on_c, 0, 63, 0
2, 330912, Note_on_c, 0, 65, 127
2, 330960, Note_on_c, 0, 65, 0
2, 331152, Note_on_c, 0, 70, 127
2, 331200, Note_on_c, 0, 70, 0
2, 331200, Note_on_c, 0, 75, 127
2, 331248, Note_on_c, 0, 75, 0
2, 331248, Note_on_c, 0, 74, 127
2, 331296, Note_on_c, 0, 74, 0
2, 331296, Note_on_c, 0, 72, 127
2, 331344, Note_on_c, 0, 72, 0
2, 331344, Note_on_c, 0, 70, 127
2, 331392, Note_on_c, 0, 70, 0
2, 331392, Note_on_c, 0, 68, 127
2, 331440, Note_on_c, 0, 68, 0
2, 331440, Note_on_c, 0, 67, 127
2, 331488, Note_on_c, 0, 67, 0
2, 331488, Note_on_c, 0, 65, 127
2, 331536, Note_on_c, 0, 65, 0
2, 331536, Note_on_c, 0, 65, 127
2, 331584, Note_on_c, 0, 65, 0
2, 331584, Note_on_c, 0, 63, 127
2, 331608, Note_on_c, 0, 63, 0
2, 331608, Note_on_c, 0, 65, 127
2, 331632, Note_on_c, 0, 65, 0
2, 331632, Note_on_c, 0, 63, 127
2, 331656, Note_on_c, 0, 63, 0
2, 331656, Note_on_c, 0, 65, 127
2, 331680, Note_on_c, 0, 65, 0
2, 331680, Note_on_c, 0, 63, 127
2, 331728, Note_on_c, 0, 63, 0
2, 331824, Note_on_c, 0, 65, 127
2, 331920, Note_on_c, 0, 65, 0
2, 331920, Note_on_c, 0, 67, 127
2, 331968, Note_on_c, 0, 67, 0
2, 331968, Note_on_c, 0, 72, 127
2, 332016, Note_on_c, 0, 72, 0
2, 332016, Note_on_c, 0, 70, 127
2, 332064, Note_on_c, 0, 70, 0
2, 332064, Note_on_c, 0, 68, 127
2, 332112, Note_on_c, 0, 68, 0
2, 332112, Note_on_c, 0, 67, 127
2, 332160, Note_on_c, 0, 67, 0
2, 332160, Note_on_c, 0, 65, 127
2, 332208, Note_on_c, 0, 65, 0
2, 332208, Note_on_c, 0, 63, 127
2, 332256, Note_on_c, 0, 63, 0
2, 332256, Note_on_c, 0, 61, 127
2, 332304, Note_on_c, 0, 61, 0
2, 332304, Note_on_c, 0, 60, 127
2, 332352, Note_on_c, 0, 60, 0
2, 332352, Note_on_c, 0, 61, 127
2, 332400, Note_on_c, 0, 61, 0
2, 332400, Note_on_c, 0, 60, 127
2, 332448, Note_on_c, 0, 60, 0
2, 332448, Note_on_c, 0, 58, 127
2, 332496, Note_on_c, 0, 58, 0
2, 332496, Note_on_c, 0, 56, 127
2, 332544, Note_on_c, 0, 56, 0
2, 332544, Note_on_c, 0, 60, 127
2, 332592, Note_on_c, 0, 60, 0
2, 332592, Note_on_c, 0, 58, 127
2, 332640, Note_on_c, 0, 58, 0
2, 332640, Note_on_c, 0, 61, 127
2, 332688, Note_on_c, 0, 61, 0
2, 332688, Note_on_c, 0, 60, 127
2, 332736, Note_on_c, 0, 60, 0
2, 332736, Note_on_c, 0, 65, 127
2, 332784, Note_on_c, 0, 65, 0
2, 332784, Note_on_c, 0, 64, 127
2, 332832, Note_on_c, 0, 64, 0
2, 332832, Note_on_c, 0, 65, 127
2, 332880, Note_on_c, 0, 65, 0
2, 332880, Note_on_c, 0, 68, 127
2, 332928, Note_on_c, 0, 68, 0
2, 332928, Note_on_c, 0, 67, 127
2, 332976, Note_on_c, 0, 67, 0
2, 332976, Note_on_c, 0, 65, 127
2, 333024, Note_on_c, 0, 65, 0
2, 333024, Note_on_c, 0, 63, 127
2, 333072, Note_on_c, 0, 63, 0
2, 333072, Note_on_c, 0, 62, 127
2, 333120, Note_on_c, 0, 62, 0
2, 333120, Note_on_c, 0, 63, 127
2, 333168, Note_on_c, 0, 63, 0
2, 333168, Note_on_c, 0, 62, 127
2, 333216, Note_on_c, 0, 62, 0
2, 333216, Note_on_c, 0, 60, 127
2, 333264, Note_on_c, 0, 60, 0
2, 333264, Note_on_c, 0, 58, 127
2, 333312, Note_on_c, 0, 58, 0
2, 333312, Note_on_c, 0, 62, 127
2, 333360, Note_on_c, 0, 62, 0
2, 333360, Note_on_c, 0, 60, 127
2, 333408, Note_on_c, 0, 60, 0
2, 333408, Note_on_c, 0, 63, 127
2, 333456, Note_on_c, 0, 63, 0
2, 333456, Note_on_c, 0, 62, 127
2, 333504, Note_on_c, 0, 62, 0
2, 333504, Note_on_c, 0, 67, 127
2, 333552, Note_on_c, 0, 67, 0
2, 333552, Note_on_c, 0, 65, 127
2, 333600, Note_on_c, 0, 65, 0
2, 333600, Note_on_c, 0, 67, 127
2, 333648, Note_on_c, 0, 67, 0
2, 333648, Note_on_c, 0, 70, 127
2, 333696, Note_on_c, 0, 70, 0
2, 333696, Note_on_c, 0, 68, 127
2, 333744, Note_on_c, 0, 68, 0
2, 333744, Note_on_c, 0, 67, 127
2, 333792, Note_on_c, 0, 67, 0
2, 333792, Note_on_c, 0, 65, 127
2, 333840, Note_on_c, 0, 65, 0
2, 333840, Note_on_c, 0, 63, 127
2, 333888, Note_on_c, 0, 63, 0
2, 333888, Note_on_c, 0, 65, 127
2, 333936, Note_on_c, 0, 65, 0
2, 333936, Note_on_c, 0, 63, 127
2, 333984, Note_on_c, 0, 63, 0
2, 333984, Note_on_c, 0, 62, 127
2, 334032, Note_on_c, 0, 62, 0
2, 334032, Note_on_c, 0, 60, 127
2, 334080, Note_on_c, 0, 60, 0
2, 334080, Note_on_c, 0, 63, 127
2, 334128, Note_on_c, 0, 63, 0
2, 334128, Note_on_c, 0, 65, 127
2, 334176, Note_on_c, 0, 65, 0
2, 334176, Note_on_c, 0, 67, 127
2, 334224, Note_on_c, 0, 67, 0
2, 334224, Note_on_c, 0, 68, 127
2, 334272, Note_on_c, 0, 68, 0
2, 334272, Note_on_c, 0, 72, 127
2, 334320, Note_on_c, 0, 72, 0
2, 334320, Note_on_c, 0, 70, 127
2, 334368, Note_on_c, 0, 70, 0
2, 334368, Note_on_c, 0, 72, 127
2, 334416, Note_on_c, 0, 72, 0
2, 334416, Note_on_c, 0, 75, 127
2, 334464, Note_on_c, 0, 75, 0
2, 334464, Note_on_c, 0, 73, 127
2, 334512, Note_on_c, 0, 73, 0
2, 334512, Note_on_c, 0, 72, 127
2, 334560, Note_on_c, 0, 72, 0
2, 334560, Note_on_c, 0, 70, 127
2, 334608, Note_on_c, 0, 70, 0
2, 334608, Note_on_c, 0, 68, 127
2, 334656, Note_on_c, 0, 68, 0
2, 334656, Note_on_c, 0, 72, 127
2, 334704, Note_on_c, 0, 72, 0
2, 334704, Note_on_c, 0, 70, 127
2, 334752, Note_on_c, 0, 70, 0
2, 334752, Note_on_c, 0, 72, 127
2, 334800, Note_on_c, 0, 72, 0
2, 334800, Note_on_c, 0, 77, 127
2, 334848, Note_on_c, 0, 77, 0
2, 334848, Note_on_c, 0, 75, 127
2, 334896, Note_on_c, 0, 75, 0
2, 334896, Note_on_c, 0, 74, 127
2, 334944, Note_on_c, 0, 74, 0
2, 334944, Note_on_c, 0, 72, 127
2, 334992, Note_on_c, 0, 72, 0
2, 334992, Note_on_c, 0, 70, 127
2, 335040, Note_on_c, 0, 70, 0
2, 335040, Note_on_c, 0, 68, 127
2, 335088, Note_on_c, 0, 68, 0
2, 335088, Note_on_c, 0, 67, 127
2, 335136, Note_on_c, 0, 67, 0
2, 335136, Note_on_c, 0, 65, 127
2, 335184, Note_on_c, 0, 65, 0
2, 335184, Note_on_c, 0, 67, 127
2, 335232, Note_on_c, 0, 67, 0
2, 335232, Note_on_c, 0, 63, 127
2, 335280, Note_on_c, 0, 63, 0
2, 335280, Note_on_c, 0, 65, 127
2, 335328, Note_on_c, 0, 65, 0
2, 335328, Note_on_c, 0, 62, 127
2, 335376, Note_on_c, 0, 62, 0
2, 335376, Note_on_c, 0, 65, 127
2, 335472, Note_on_c, 0, 65, 0
2, 335472, Note_on_c, 0, 63, 127
2, 335496, Note_on_c, 0, 63, 0
2, 335496, Note_on_c, 0, 65, 127
2, 335520, Note_on_c, 0, 65, 0
2, 335520, Note_on_c, 0, 63, 127
2, 335760, Note_on_c, 0, 63, 0
2, 337296, Note_on_c, 0, 75, 127
2, 337320, Note_on_c, 0, 75, 0
2, 337320, Note_on_c, 0, 74, 127
2, 337344, Note_on_c, 0, 74, 0
2, 337344, Note_on_c, 0, 75, 127
2, 337488, Note_on_c, 0, 75, 0
2, 337488, Note_on_c, 0, 82, 127
2, 337520, Note_on_c, 0, 82, 0
2, 337584, Note_on_c, 0, 75, 127
2, 337776, Note_on_c, 0, 75, 0
2, 337776, Note_on_c, 0, 82, 127
2, 337808, Note_on_c, 0, 82, 0
2, 337872, Note_on_c, 0, 77, 127
2, 337968, Note_on_c, 0, 77, 0
2, 337968, Note_on_c, 0, 75, 127
2, 338064, Note_on_c, 0, 75, 0
2, 338064, Note_on_c, 0, 74, 127
2, 338160, Note_on_c, 0, 74, 0
2, 338160, Note_on_c, 0, 75, 127
2, 338256, Note_on_c, 0, 75, 0
2, 338256, Note_on_c, 0, 74, 127
2, 338352, Note_on_c, 0, 74, 0
2, 338352, Note_on_c, 0, 72, 127
2, 338448, Note_on_c, 0, 72, 0
2, 338448, Note_on_c, 0, 74, 127
2, 338640, Note_on_c, 0, 74, 0
2, 338640, Note_on_c, 0, 79, 127
2, 338672, Note_on_c, 0, 79, 0
2, 338736, Note_on_c, 0, 74, 127
2, 338928, Note_on_c, 0, 74, 0
2, 338928, Note_on_c, 0, 79, 127
2, 338960, Note_on_c, 0, 79, 0
2, 339024, Note_on_c, 0, 77, 127
2, 339216, Note_on_c, 0, 77, 0
2, 339216, Note_on_c, 0, 82, 127
2, 339248, Note_on_c, 0, 82, 0
2, 339312, Note_on_c, 0, 77, 127
2, 339504, Note_on_c, 0, 77, 0
2, 339504, Note_on_c, 0, 82, 127
2, 339536, Note_on_c, 0, 82, 0
2, 339600, Note_on_c, 0, 75, 127
2, 339696, Note_on_c, 0, 75, 0
2, 339696, Note_on_c, 0, 74, 127
2, 339792, Note_on_c, 0, 74, 0
2, 339792, Note_on_c, 0, 82, 127
2, 339824, Note_on_c, 0, 82, 0
2, 339888, Note_on_c, 0, 75, 127
2, 339984, Note_on_c, 0, 75, 0
2, 339984, Note_on_c, 0, 74, 127
2, 340080, Note_on_c, 0, 74, 0
2, 340080, Note_on_c, 0, 82, 127
2, 340112, Note_on_c, 0, 82, 0
2, 340176, Note_on_c, 0, 72, 127
2, 340272, Note_on_c, 0, 72, 0
2, 340272, Note_on_c, 0, 74, 127
2, 340368, Note_on_c, 0, 74, 0
2, 340368, Note_on_c, 0, 75, 127
2, 340464, Note_on_c, 0, 75, 0
2, 340464, Note_on_c, 0, 77, 127
2, 340560, Note_on_c, 0, 77, 0
2, 340560, Note_on_c, 0, 79, 127
2, 340656, Note_on_c, 0, 79, 0
2, 340656, Note_on_c, 0, 80, 127
2, 340752, Note_on_c, 0, 80, 0
2, 340752, Note_on_c, 0, 74, 127
2, 340848, Note_on_c, 0, 74, 0
2, 340848, Note_on_c, 0, 72, 127
2, 340944, Note_on_c, 0, 72, 0
2, 340944, Note_on_c, 0, 80, 127
2, 340976, Note_on_c, 0, 80, 0
2, 341040, Note_on_c, 0, 74, 127
2, 341136, Note_on_c, 0, 74, 0
2, 341136, Note_on_c, 0, 72, 127
2, 341232, Note_on_c, 0, 72, 0
2, 341232, Note_on_c, 0, 80, 127
2, 341264, Note_on_c, 0, 80, 0
2, 341328, Note_on_c, 0, 70, 127
2, 341424, Note_on_c, 0, 70, 0
2, 341424, Note_on_c, 0, 72, 127
2, 341520, Note_on_c, 0, 72, 0
2, 341520, Note_on_c, 0, 74, 127
2, 341616, Note_on_c, 0, 74, 0
2, 341616, Note_on_c, 0, 75, 127
2, 341712, Note_on_c, 0, 75, 0
2, 341712, Note_on_c, 0, 77, 127
2, 341808, Note_on_c, 0, 77, 0
2, 341808, Note_on_c, 0, 79, 127
2, 341904, Note_on_c, 0, 79, 0
2, 341904, Note_on_c, 0, 72, 127
2, 342000, Note_on_c, 0, 72, 0
2, 342000, Note_on_c, 0, 70, 127
2, 342096, Note_on_c, 0, 70, 0
2, 342096, Note_on_c, 0, 79, 127
2, 342128, Note_on_c, 0, 79, 0
2, 342192, Note_on_c, 0, 72, 127
2, 342288, Note_on_c, 0, 72, 0
2, 342288, Note_on_c, 0, 70, 127
2, 342384, Note_on_c, 0, 70, 0
2, 342384, Note_on_c, 0, 79, 127
2, 342416, Note_on_c, 0, 79, 0
2, 342480, Note_on_c, 0, 68, 127
2, 342576, Note_on_c, 0, 68, 0
2, 342576, Note_on_c, 0, 70, 127
2, 342672, Note_on_c, 0, 70, 0
2, 342672, Note_on_c, 0, 72, 127
2, 342768, Note_on_c, 0, 72, 0
2, 342768, Note_on_c, 0, 74, 127
2, 342864, Note_on_c, 0, 74, 0
2, 342864, Note_on_c, 0, 75, 127
2, 342960, Note_on_c, 0, 75, 0
2, 342960, Note_on_c, 0, 77, 127
2, 343056, Note_on_c, 0, 77, 0
2, 343056, Note_on_c, 0, 70, 127
2, 343152, Note_on_c, 0, 70, 0
2, 343152, Note_on_c, 0, 68, 127
2, 343248, Note_on_c, 0, 68, 0
2, 343248, Note_on_c, 0, 77, 127
2, 343280, Note_on_c, 0, 77, 0
2, 343344, Note_on_c, 0, 70, 127
2, 343440, Note_on_c, 0, 70, 0
2, 343440, Note_on_c, 0, 68, 127
2, 343536, Note_on_c, 0, 68, 0
2, 343536, Note_on_c, 0, 77, 127
2, 343568, Note_on_c, 0, 77, 0
2, 343632, Note_on_c, 0, 67, 127
2, 343728, Note_on_c, 0, 67, 0
2, 343728, Note_on_c, 0, 68, 127
2, 343824, Note_on_c, 0, 68, 0
2, 343824, Note_on_c, 0, 70, 127
2, 343920, Note_on_c, 0, 70, 0
2, 343920, Note_on_c, 0, 70, 127
2, 344016, Note_on_c, 0, 70, 0
2, 344016, Note_on_c, 0, 72, 127
2, 344112, Note_on_c, 0, 72, 0
2, 344112, Note_on_c, 0, 74, 127
2, 344208, Note_on_c, 0, 74, 0
2, 344208, Note_on_c, 0, 75, 127
2, 344304, Note_on_c, 0, 75, 0
2, 344304, Note_on_c, 0, 67, 127
2, 344400, Note_on_c, 0, 67, 0
2, 344400, Note_on_c, 0, 72, 127
2, 344432, Note_on_c, 0, 72, 0
2, 344496, Note_on_c, 0, 75, 127
2, 344592, Note_on_c, 0, 75, 0
2, 344592, Note_on_c, 0, 67, 127
2, 344688, Note_on_c, 0, 67, 0
2, 344688, Note_on_c, 0, 72, 127
2, 344720, Note_on_c, 0, 72, 0
2, 344784, Note_on_c, 0, 75, 127
2, 345264, Note_on_c, 0, 75, 0
2, 345264, Note_on_c, 0, 75, 127
2, 345360, Note_on_c, 0, 75, 0
2, 345360, Note_on_c, 0, 74, 127
2, 345456, Note_on_c, 0, 74, 0
2, 345456, Note_on_c, 0, 77, 127
2, 345552, Note_on_c, 0, 77, 0
2, 345552, Note_on_c, 0, 74, 127
2, 345648, Note_on_c, 0, 74, 0
2, 345648, Note_on_c, 0, 70, 127
2, 345744, Note_on_c, 0, 70, 0
2, 345744, Note_on_c, 0, 74, 127
2, 345840, Note_on_c, 0, 74, 0
2, 345840, Note_on_c, 0, 77, 127
2, 345936, Note_on_c, 0, 77, 0
2, 345936, Note_on_c, 0, 80, 127
2, 346416, Note_on_c, 0, 80, 0
2, 346416, Note_on_c, 0, 80, 127
2, 346512, Note_on_c, 0, 80, 0
2, 346512, Note_on_c, 0, 79, 127
2, 346608, Note_on_c, 0, 79, 0
2, 346608, Note_on_c, 0, 82, 127
2, 346656, Note_on_c, 0, 82, 0
2, 346656, Note_on_c, 0, 80, 127
2, 346704, Note_on_c, 0, 80, 0
2, 346704, Note_on_c, 0, 79, 127
2, 346752, Note_on_c, 0, 79, 0
2, 346752, Note_on_c, 0, 77, 127
2, 346800, Note_on_c, 0, 77, 0
2, 346800, Note_on_c, 0, 75, 127
2, 346896, Note_on_c, 0, 75, 0
2, 346896, Note_on_c, 0, 79, 127
2, 346944, Note_on_c, 0, 79, 0
2, 346944, Note_on_c, 0, 77, 127
2, 346992, Note_on_c, 0, 77, 0
2, 346992, Note_on_c, 0, 75, 127
2, 347040, Note_on_c, 0, 75, 0
2, 347040, Note_on_c, 0, 74, 127
2, 347088, Note_on_c, 0, 74, 0
2, 347088, Note_on_c, 0, 72, 127
2, 347184, Note_on_c, 0, 72, 0
2, 347184, Note_on_c, 0, 74, 127
2, 347280, Note_on_c, 0, 74, 0
2, 347280, Note_on_c, 0, 75, 127
2, 347376, Note_on_c, 0, 75, 0
2, 347376, Note_on_c, 0, 65, 127
2, 347568, Note_on_c, 0, 65, 0
2, 347568, Note_on_c, 0, 72, 127
2, 347592, Note_on_c, 0, 72, 0
2, 347592, Note_on_c, 0, 74, 127
2, 347616, Note_on_c, 0, 74, 0
2, 347616, Note_on_c, 0, 75, 127
2, 347664, Note_on_c, 0, 75, 0
2, 347664, Note_on_c, 0, 74, 127
2, 347760, Note_on_c, 0, 74, 0
2, 347760, Note_on_c, 0, 72, 127
2, 347856, Note_on_c, 0, 72, 0
2, 347856, Note_on_c, 0, 70, 127
2, 347952, Note_on_c, 0, 70, 0
2, 347952, Note_on_c, 0, 70, 127
2, 348048, Note_on_c, 0, 70, 0
2, 348048, Note_on_c, 0, 72, 127
2, 348144, Note_on_c, 0, 72, 0
2, 348144, Note_on_c, 0, 69, 127
2, 348240, Note_on_c, 0, 69, 0
2, 348240, Note_on_c, 0, 70, 127
2, 348336, Note_on_c, 0, 70, 0
2, 348336, Note_on_c, 0, 72, 127
2, 348432, Note_on_c, 0, 72, 0
2, 348432, Note_on_c, 0, 74, 127
2, 348528, Note_on_c, 0, 74, 0
2, 348528, Note_on_c, 0, 74, 127
2, 348624, Note_on_c, 0, 74, 0
2, 348624, Note_on_c, 0, 75, 127
2, 348720, Note_on_c, 0, 75, 0
2, 348720, Note_on_c, 0, 77, 127
2, 348816, Note_on_c, 0, 77, 0
2, 348816, Note_on_c, 0, 79, 127
2, 348840, Note_on_c, 0, 79, 0
2, 348840, Note_on_c, 0, 77, 127
2, 348864, Note_on_c, 0, 77, 0
2, 348864, Note_on_c, 0, 79, 127
2, 348888, Note_on_c, 0, 79, 0
2, 348888, Note_on_c, 0, 77, 127
2, 348912, Note_on_c, 0, 77, 0
2, 348912, Note_on_c, 0, 79, 127
2, 348936, Note_on_c, 0, 79, 0
2, 348936, Note_on_c, 0, 77, 127
2, 348960, Note_on_c, 0, 77, 0
2, 348960, Note_on_c, 0, 79, 127
2, 348984, Note_on_c, 0, 79, 0
2, 348984, Note_on_c, 0, 77, 127
2, 349008, Note_on_c, 0, 77, 0
2, 349008, Note_on_c, 0, 79, 127
2, 349032, Note_on_c, 0, 79, 0
2, 349032, Note_on_c, 0, 77, 127
2, 349056, Note_on_c, 0, 77, 0
2, 349056, Note_on_c, 0, 79, 127
2, 349080, Note_on_c, 0, 79, 0
2, 349080, Note_on_c, 0, 77, 127
2, 349104, Note_on_c, 0, 77, 0
2, 349104, Note_on_c, 0, 79, 127
2, 349128, Note_on_c, 0, 79, 0
2, 349128, Note_on_c, 0, 77, 127
2, 349152, Note_on_c, 0, 77, 0
2, 349152, Note_on_c, 0, 79, 127
2, 349176, Note_on_c, 0, 79, 0
2, 349176, Note_on_c, 0, 77, 127
2, 349200, Note_on_c, 0, 77, 0
2, 349200, Note_on_c, 0, 79, 127
2, 349224, Note_on_c, 0, 79, 0
2, 349224, Note_on_c, 0, 77, 127
2, 349248, Note_on_c, 0, 77, 0
2, 349248, Note_on_c, 0, 79, 127
2, 349272, Note_on_c, 0, 79, 0
2, 349272, Note_on_c, 0, 77, 127
2, 349296, Note_on_c, 0, 77, 0
2, 349296, Note_on_c, 0, 79, 127
2, 349320, Note_on_c, 0, 79, 0
2, 349320, Note_on_c, 0, 77, 127
2, 349344, Note_on_c, 0, 77, 0
2, 349344, Note_on_c, 0, 79, 127
2, 349368, Note_on_c, 0, 79, 0
2, 349368, Note_on_c, 0, 77, 127
2, 349584, Note_on_c, 0, 77, 0
2, 349584, Note_on_c, 0, 82, 127
2, 349616, Note_on_c, 0, 82, 0
2, 349680, Note_on_c, 0, 77, 127
2, 349872, Note_on_c, 0, 77, 0
2, 349872, Note_on_c, 0, 82, 127
2, 349904, Note_on_c, 0, 82, 0
2, 349968, Note_on_c, 0, 77, 127
2, 350064, Note_on_c, 0, 77, 0
2, 350064, Note_on_c, 0, 79, 127
2, 350112, Note_on_c, 0, 79, 0
2, 350112, Note_on_c, 0, 77, 127
2, 350160, Note_on_c, 0, 77, 0
2, 350160, Note_on_c, 0, 75, 127
2, 350208, Note_on_c, 0, 75, 0
2, 350208, Note_on_c, 0, 74, 127
2, 350256, Note_on_c, 0, 74, 0
2, 350256, Note_on_c, 0, 75, 127
2, 350352, Note_on_c, 0, 75, 0
2, 350352, Note_on_c, 0, 77, 127
2, 350400, Note_on_c, 0, 77, 0
2, 350400, Note_on_c, 0, 75, 127
2, 350448, Note_on_c, 0, 75, 0
2, 350448, Note_on_c, 0, 74, 127
2, 350496, Note_on_c, 0, 74, 0
2, 350496, Note_on_c, 0, 72, 127
2, 350544, Note_on_c, 0, 72, 0
2, 350544, Note_on_c, 0, 70, 127
2, 351120, Note_on_c, 0, 70, 0
2, 352272, Note_on_c, 0, 75, 127
2, 352296, Note_on_c, 0, 75, 0
2, 352296, Note_on_c, 0, 74, 127
2, 352320, Note_on_c, 0, 74, 0
2, 352320, Note_on_c, 0, 75, 127
2, 352464, Note_on_c, 0, 75, 0
2, 352464, Note_on_c, 0, 82, 127
2, 352496, Note_on_c, 0, 82, 0
2, 352560, Note_on_c, 0, 75, 127
2, 352752, Note_on_c, 0, 75, 0
2, 352752, Note_on_c, 0, 82, 127
2, 352784, Note_on_c, 0, 82, 0
2, 352848, Note_on_c, 0, 77, 127
2, 352944, Note_on_c, 0, 77, 0
2, 352944, Note_on_c, 0, 75, 127
2, 353040, Note_on_c, 0, 75, 0
2, 353040, Note_on_c, 0, 74, 127
2, 353136, Note_on_c, 0, 74, 0
2, 353136, Note_on_c, 0, 75, 127
2, 353232, Note_on_c, 0, 75, 0
2, 353232, Note_on_c, 0, 74, 127
2, 353328, Note_on_c, 0, 74, 0
2, 353328, Note_on_c, 0, 72, 127
2, 353424, Note_on_c, 0, 72, 0
2, 353424, Note_on_c, 0, 74, 127
2, 353616, Note_on_c, 0, 74, 0
2, 353616, Note_on_c, 0, 79, 127
2, 353648, Note_on_c, 0, 79, 0
2, 353712, Note_on_c, 0, 74, 127
2, 353904, Note_on_c, 0, 74, 0
2, 353904, Note_on_c, 0, 79, 127
2, 353936, Note_on_c, 0, 79, 0
2, 354000, Note_on_c, 0, 77, 127
2, 354192, Note_on_c, 0, 77, 0
2, 354192, Note_on_c, 0, 82, 127
2, 354224, Note_on_c, 0, 82, 0
2, 354288, Note_on_c, 0, 77, 127
2, 354480, Note_on_c, 0, 77, 0
2, 354480, Note_on_c, 0, 82, 127
2, 354512, Note_on_c, 0, 82, 0
2, 354576, Note_on_c, 0, 75, 127
2, 354672, Note_on_c, 0, 75, 0
2, 354672, Note_on_c, 0, 74, 127
2, 354768, Note_on_c, 0, 74, 0
2, 354768, Note_on_c, 0, 82, 127
2, 354800, Note_on_c, 0, 82, 0
2, 354864, Note_on_c, 0, 75, 127
2, 354960, Note_on_c, 0, 75, 0
2, 354960, Note_on_c, 0, 74, 127
2, 355056, Note_on_c, 0, 74, 0
2, 355056, Note_on_c, 0, 82, 127
2, 355088, Note_on_c, 0, 82, 0
2, 355152, Note_on_c, 0, 72, 127
2, 355248, Note_on_c, 0, 72, 0
2, 355248, Note_on_c, 0, 74, 127
2, 355344, Note_on_c, 0, 74, 0
2, 355344, Note_on_c, 0, 75, 127
2, 355440, Note_on_c, 0, 75, 0
2, 355440, Note_on_c, 0, 77, 127
2, 355536, Note_on_c, 0, 77, 0
2, 355536, Note_on_c, 0, 79, 127
2, 355632, Note_on_c, 0, 79, 0
2, 355632, Note_on_c, 0, 80, 127
2, 355728, Note_on_c, 0, 80, 0
2, 355728, Note_on_c, 0, 74, 127
2, 355824, Note_on_c, 0, 74, 0
2, 355824, Note_on_c, 0, 72, 127
2, 355920, Note_on_c, 0, 72, 0
2, 355920, Note_on_c, 0, 80, 127
2, 355952, Note_on_c, 0, 80, 0
2, 356016, Note_on_c, 0, 74, 127
2, 356112, Note_on_c, 0, 74, 0
2, 356112, Note_on_c, 0, 72, 127
2, 356208, Note_on_c, 0, 72, 0
2, 356208, Note_on_c, 0, 80, 127
2, 356240, Note_on_c, 0, 80, 0
2, 356304, Note_on_c, 0, 70, 127
2, 356400, Note_on_c, 0, 70, 0
2, 356400, Note_on_c, 0, 72, 127
2, 356496, Note_on_c, 0, 72, 0
2, 356496, Note_on_c, 0, 74, 127
2, 356592, Note_on_c, 0, 74, 0
2, 356592, Note_on_c, 0, 75, 127
2, 356688, Note_on_c, 0, 75, 0
2, 356688, Note_on_c, 0, 77, 127
2, 356784, Note_on_c, 0, 77, 0
2, 356784, Note_on_c, 0, 79, 127
2, 356880, Note_on_c, 0, 79, 0
2, 356880, Note_on_c, 0, 72, 127
2, 356976, Note_on_c, 0, 72, 0
2, 356976, Note_on_c, 0, 70, 127
2, 357072, Note_on_c, 0, 70, 0
2, 357072, Note_on_c, 0, 79, 127
2, 357104, Note_on_c, 0, 79, 0
2, 357168, Note_on_c, 0, 72, 127
2, 357264, Note_on_c, 0, 72, 0
2, 357264, Note_on_c, 0, 70, 127
2, 357360, Note_on_c, 0, 70, 0
2, 357360, Note_on_c, 0, 79, 127
2, 357392, Note_on_c, 0, 79, 0
2, 357456, Note_on_c, 0, 68, 127
2, 357552, Note_on_c, 0, 68, 0
2, 357552, Note_on_c, 0, 70, 127
2, 357648, Note_on_c, 0, 70, 0
2, 357648, Note_on_c, 0, 72, 127
2, 357744, Note_on_c, 0, 72, 0
2, 357744, Note_on_c, 0, 74, 127
2, 357840, Note_on_c, 0, 74, 0
2, 357840, Note_on_c, 0, 75, 127
2, 357936, Note_on_c, 0, 75, 0
2, 357936, Note_on_c, 0, 77, 127
2, 358032, Note_on_c, 0, 77, 0
2, 358032, Note_on_c, 0, 70, 127
2, 358128, Note_on_c, 0, 70, 0
2, 358128, Note_on_c, 0, 68, 127
2, 358224, Note_on_c, 0, 68, 0
2, 358224, Note_on_c, 0, 77, 127
2, 358256, Note_on_c, 0, 77, 0
2, 358320, Note_on_c, 0, 70, 127
2, 358416, Note_on_c, 0, 70, 0
2, 358416, Note_on_c, 0, 68, 127
2, 358512, Note_on_c, 0, 68, 0
2, 358512, Note_on_c, 0, 77, 127
2, 358544, Note_on_c, 0, 77, 0
2, 358608, Note_on_c, 0, 67, 127
2, 358704, Note_on_c, 0, 67, 0
2, 358704, Note_on_c, 0, 68, 127
2, 358800, Note_on_c, 0, 68, 0
2, 358800, Note_on_c, 0, 70, 127
2, 358896, Note_on_c, 0, 70, 0
2, 358896, Note_on_c, 0, 70, 127
2, 358992, Note_on_c, 0, 70, 0
2, 358992, Note_on_c, 0, 72, 127
2, 359088, Note_on_c, 0, 72, 0
2, 359088, Note_on_c, 0, 74, 127
2, 359184, Note_on_c, 0, 74, 0
2, 359184, Note_on_c, 0, 75, 127
2, 359280, Note_on_c, 0, 75, 0
2, 359280, Note_on_c, 0, 67, 127
2, 359376, Note_on_c, 0, 67, 0
2, 359376, Note_on_c, 0, 72, 127
2, 359408, Note_on_c, 0, 72, 0
2, 359472, Note_on_c, 0, 75, 127
2, 359568, Note_on_c, 0, 75, 0
2, 359568, Note_on_c, 0, 67, 127
2, 359664, Note_on_c, 0, 67, 0
2, 359664, Note_on_c, 0, 72, 127
2, 359696, Note_on_c, 0, 72, 0
2, 359760, Note_on_c, 0, 75, 127
2, 360240, Note_on_c, 0, 75, 0
2, 360240, Note_on_c, 0, 75, 127
2, 360336, Note_on_c, 0, 75, 0
2, 360336, Note_on_c, 0, 74, 127
2, 360432, Note_on_c, 0, 74, 0
2, 360432, Note_on_c, 0, 77, 127
2, 360528, Note_on_c, 0, 77, 0
2, 360528, Note_on_c, 0, 74, 127
2, 360624, Note_on_c, 0, 74, 0
2, 360624, Note_on_c, 0, 70, 127
2, 360720, Note_on_c, 0, 70, 0
2, 360720, Note_on_c, 0, 74, 127
2, 360816, Note_on_c, 0, 74, 0
2, 360816, Note_on_c, 0, 77, 127
2, 360912, Note_on_c, 0, 77, 0
2, 360912, Note_on_c, 0, 80, 127
2, 361392, Note_on_c, 0, 80, 0
2, 361392, Note_on_c, 0, 80, 127
2, 361488, Note_on_c, 0, 80, 0
2, 361488, Note_on_c, 0, 79, 127
2, 361584, Note_on_c, 0, 79, 0
2, 361584, Note_on_c, 0, 82, 127
2, 361632, Note_on_c, 0, 82, 0
2, 361632, Note_on_c, 0, 80, 127
2, 361680, Note_on_c, 0, 80, 0
2, 361680, Note_on_c, 0, 79, 127
2, 361728, Note_on_c, 0, 79, 0
2, 361728, Note_on_c, 0, 77, 127
2, 361776, Note_on_c, 0, 77, 0
2, 361776, Note_on_c, 0, 75, 127
2, 361872, Note_on_c, 0, 75, 0
2, 361872, Note_on_c, 0, 79, 127
2, 361920, Note_on_c, 0, 79, 0
2, 361920, Note_on_c, 0, 77, 127
2, 361968, Note_on_c, 0, 77, 0
2, 361968, Note_on_c, 0, 75, 127
2, 362016, Note_on_c, 0, 75, 0
2, 362016, Note_on_c, 0, 74, 127
2, 362064, Note_on_c, 0, 74, 0
2, 362064, Note_on_c, 0, 72, 127
2, 362160, Note_on_c, 0, 72, 0
2, 362160, Note_on_c, 0, 74, 127
2, 362256, Note_on_c, 0, 74, 0
2, 362256, Note_on_c, 0, 75, 127
2, 362352, Note_on_c, 0, 75, 0
2, 362352, Note_on_c, 0, 65, 127
2, 362544, Note_on_c, 0, 65, 0
2, 362544, Note_on_c, 0, 72, 127
2, 362568, Note_on_c, 0, 72, 0
2, 362568, Note_on_c, 0, 74, 127
2, 362592, Note_on_c, 0, 74, 0
2, 362592, Note_on_c, 0, 75, 127
2, 362640, Note_on_c, 0, 75, 0
2, 362640, Note_on_c, 0, 74, 127
2, 362736, Note_on_c, 0, 74, 0
2, 362736, Note_on_c, 0, 72, 127
2, 362832, Note_on_c, 0, 72, 0
2, 362832, Note_on_c, 0, 70, 127
2, 362928, Note_on_c, 0, 70, 0
2, 362928, Note_on_c, 0, 70, 127
2, 363024, Note_on_c, 0, 70, 0
2, 363024, Note_on_c, 0, 72, 127
2, 363120, Note_on_c, 0, 72, 0
2, 363120, Note_on_c, 0, 69, 127
2, 363216, Note_on_c, 0, 69, 0
2, 363216, Note_on_c, 0, 70, 127
2, 363312, Note_on_c, 0, 70, 0
2, 363312, Note_on_c, 0, 72, 127
2, 363408, Note_on_c, 0, 72, 0
2, 363408, Note_on_c, 0, 74, 127
2, 363504, Note_on_c, 0, 74, 0
2, 363504, Note_on_c, 0, 74, 127
2, 363600, Note_on_c, 0, 74, 0
2, 363600, Note_on_c, 0, 75, 127
2, 363696, Note_on_c, 0, 75, 0
2, 363696, Note_on_c, 0, 77, 127
2, 363792, Note_on_c, 0, 77, 0
2, 363792, Note_on_c, 0, 79, 127
2, 363816, Note_on_c, 0, 79, 0
2, 363816, Note_on_c, 0, 77, 127
2, 363840, Note_on_c, 0, 77, 0
2, 363840, Note_on_c, 0, 79, 127
2, 363864, Note_on_c, 0, 79, 0
2, 363864, Note_on_c, 0, 77, 127
2, 363888, Note_on_c, 0, 77, 0
2, 363888, Note_on_c, 0, 79, 127
2, 363912, Note_on_c, 0, 79, 0
2, 363912, Note_on_c, 0, 77, 127
2, 363936, Note_on_c, 0, 77, 0
2, 363936, Note_on_c, 0, 79, 127
2, 363960, Note_on_c, 0, 79, 0
2, 363960, Note_on_c, 0, 77, 127
2, 363984, Note_on_c, 0, 77, 0
2, 363984, Note_on_c, 0, 79, 127
2, 364008, Note_on_c, 0, 79, 0
2, 364008, Note_on_c, 0, 77, 127
2, 364032, Note_on_c, 0, 77, 0
2, 364032, Note_on_c, 0, 79, 127
2, 364056, Note_on_c, 0, 79, 0
2, 364056, Note_on_c, 0, 77, 127
2, 364080, Note_on_c, 0, 77, 0
2, 364080, Note_on_c, 0, 79, 127
2, 364104, Note_on_c, 0, 79, 0
2, 364104, Note_on_c, 0, 77, 127
2, 364128, Note_on_c, 0, 77, 0
2, 364128, Note_on_c, 0, 79, 127
2, 364152, Note_on_c, 0, 79, 0
2, 364152, Note_on_c, 0, 77, 127
2, 364176, Note_on_c, 0, 77, 0
2, 364176, Note_on_c, 0, 79, 127
2, 364200, Note_on_c, 0, 79, 0
2, 364200, Note_on_c, 0, 77, 127
2, 364224, Note_on_c, 0, 77, 0
2, 364224, Note_on_c, 0, 79, 127
2, 364248, Note_on_c, 0, 79, 0
2, 364248, Note_on_c, 0, 77, 127
2, 364272, Note_on_c, 0, 77, 0
2, 364272, Note_on_c, 0, 79, 127
2, 364296, Note_on_c, 0, 79, 0
2, 364296, Note_on_c, 0, 77, 127
2, 364320, Note_on_c, 0, 77, 0
2, 364320, Note_on_c, 0, 79, 127
2, 364344, Note_on_c, 0, 79, 0
2, 364344, Note_on_c, 0, 77, 127
2, 364560, Note_on_c, 0, 77, 0
2, 364560, Note_on_c, 0, 82, 127
2, 364592, Note_on_c, 0, 82, 0
2, 364656, Note_on_c, 0, 77, 127
2, 364848, Note_on_c, 0, 77, 0
2, 364848, Note_on_c, 0, 82, 127
2, 364880, Note_on_c, 0, 82, 0
2, 364944, Note_on_c, 0, 77, 127
2, 365040, Note_on_c, 0, 77, 0
2, 365040, Note_on_c, 0, 79, 127
2, 365088, Note_on_c, 0, 79, 0
2, 365088, Note_on_c, 0, 77, 127
2, 365136, Note_on_c, 0, 77, 0
2, 365136, Note_on_c, 0, 75, 127
2, 365184, Note_on_c, 0, 75, 0
2, 365184, Note_on_c, 0, 74, 127
2, 365232, Note_on_c, 0, 74, 0
2, 365232, Note_on_c, 0, 75, 127
2, 365328, Note_on_c, 0, 75, 0
2, 365328, Note_on_c, 0, 77, 127
2, 365376, Note_on_c, 0, 77, 0
2, 365376, Note_on_c, 0, 75, 127
2, 365424, Note_on_c, 0, 75, 0
2, 365424, Note_on_c, 0, 74, 127
2, 365472, Note_on_c, 0, 74, 0
2, 365472, Note_on_c, 0, 72, 127
2, 365520, Note_on_c, 0, 72, 0
2, 365520, Note_on_c, 0, 70, 127
2, 366096, Note_on_c, 0, 70, 0
2, 366096, Note_on_c, 0, 65, 127
2, 366120, Note_on_c, 0, 65, 0
2, 366120, Note_on_c, 0, 63, 127
2, 366144, Note_on_c, 0, 63, 0
2, 366144, Note_on_c, 0, 65, 127
2, 366288, Note_on_c, 0, 65, 0
2, 366288, Note_on_c, 0, 58, 127
2, 366320, Note_on_c, 0, 58, 0
2, 366384, Note_on_c, 0, 65, 127
2, 366576, Note_on_c, 0, 65, 0
2, 366576, Note_on_c, 0, 58, 127
2, 366608, Note_on_c, 0, 58, 0
2, 366672, Note_on_c, 0, 63, 127
2, 366768, Note_on_c, 0, 63, 0
2, 366768, Note_on_c, 0, 65, 127
2, 366864, Note_on_c, 0, 65, 0
2, 366864, Note_on_c, 0, 67, 127
2, 366960, Note_on_c, 0, 67, 0
2, 366960, Note_on_c, 0, 65, 127
2, 367056, Note_on_c, 0, 65, 0
2, 367056, Note_on_c, 0, 67, 127
2, 367152, Note_on_c, 0, 67, 0
2, 367152, Note_on_c, 0, 68, 127
2, 367248, Note_on_c, 0, 68, 0
2, 367248, Note_on_c, 0, 67, 127
2, 367344, Note_on_c, 0, 67, 0
2, 367344, Note_on_c, 0, 70, 127
2, 367440, Note_on_c, 0, 70, 0
2, 367440, Note_on_c, 0, 68, 127
2, 367536, Note_on_c, 0, 68, 0
2, 367536, Note_on_c, 0, 67, 127
2, 367632, Note_on_c, 0, 67, 0
2, 367632, Note_on_c, 0, 65, 127
2, 367728, Note_on_c, 0, 65, 0
2, 367728, Note_on_c, 0, 63, 127
2, 367824, Note_on_c, 0, 63, 0
2, 367824, Note_on_c, 0, 65, 127
2, 367968, Note_on_c, 0, 65, 0
2, 367968, Note_on_c, 0, 67, 127
2, 368016, Note_on_c, 0, 67, 0
2, 368016, Note_on_c, 0, 65, 127
2, 368064, Note_on_c, 0, 65, 0
2, 368064, Note_on_c, 0, 67, 127
2, 368112, Note_on_c, 0, 67, 0
2, 368112, Note_on_c, 0, 68, 127
2, 368160, Note_on_c, 0, 68, 0
2, 368160, Note_on_c, 0, 67, 127
2, 368208, Note_on_c, 0, 67, 0
2, 368208, Note_on_c, 0, 68, 127
2, 368256, Note_on_c, 0, 68, 0
2, 368256, Note_on_c, 0, 67, 127
2, 368304, Note_on_c, 0, 67, 0
2, 368304, Note_on_c, 0, 68, 127
2, 368352, Note_on_c, 0, 68, 0
2, 368352, Note_on_c, 0, 67, 127
2, 368400, Note_on_c, 0, 67, 0
2, 368400, Note_on_c, 0, 65, 127
2, 368448, Note_on_c, 0, 65, 0
2, 368448, Note_on_c, 0, 67, 127
2, 368496, Note_on_c, 0, 67, 0
2, 368496, Note_on_c, 0, 68, 127
2, 368592, Note_on_c, 0, 68, 0
2, 368592, Note_on_c, 0, 72, 127
2, 368688, Note_on_c, 0, 72, 0
2, 368688, Note_on_c, 0, 70, 127
2, 368784, Note_on_c, 0, 70, 0
2, 368784, Note_on_c, 0, 68, 127
2, 368912, Note_on_c, 0, 68, 0
2, 368912, Note_on_c, 0, 67, 127
2, 369040, Note_on_c, 0, 67, 0
2, 369040, Note_on_c, 0, 65, 127
2, 369168, Note_on_c, 0, 65, 0
2, 369168, Note_on_c, 0, 67, 127
2, 369312, Note_on_c, 0, 67, 0
2, 369312, Note_on_c, 0, 69, 127
2, 369360, Note_on_c, 0, 69, 0
2, 369360, Note_on_c, 0, 67, 127
2, 369408, Note_on_c, 0, 67, 0
2, 369408, Note_on_c, 0, 69, 127
2, 369456, Note_on_c, 0, 69, 0
2, 369456, Note_on_c, 0, 70, 127
2, 369504, Note_on_c, 0, 70, 0
2, 369504, Note_on_c, 0, 69, 127
2, 369552, Note_on_c, 0, 69, 0
2, 369552, Note_on_c, 0, 70, 127
2, 369600, Note_on_c, 0, 70, 0
2, 369600, Note_on_c, 0, 69, 127
2, 369648, Note_on_c, 0, 69, 0
2, 369648, Note_on_c, 0, 70, 127
2, 369696, Note_on_c, 0, 70, 0
2, 369696, Note_on_c, 0, 69, 127
2, 369744, Note_on_c, 0, 69, 0
2, 369744, Note_on_c, 0, 67, 127
2, 369792, Note_on_c, 0, 67, 0
2, 369792, Note_on_c, 0, 69, 127
2, 369840, Note_on_c, 0, 69, 0
2, 369840, Note_on_c, 0, 65, 127
2, 369840, Note_on_c, 0, 70, 127
2, 369840, Note_on_c, 0, 74, 127
2, 369840, Note_on_c, 0, 77, 127
2, 370032, Note_on_c, 0, 77, 0
2, 370032, Note_on_c, 0, 70, 0
2, 370032, Note_on_c, 0, 65, 0
2, 370032, Note_on_c, 0, 74, 0
2, 370032, Note_on_c, 0, 70, 127
2, 370064, Note_on_c, 0, 70, 0
2, 370128, Note_on_c, 0, 65, 127
2, 370128, Note_on_c, 0, 68, 127
2, 370128, Note_on_c, 0, 74, 127
2, 370128, Note_on_c, 0, 77, 127
2, 370320, Note_on_c, 0, 77, 0
2, 370320, Note_on_c, 0, 68, 0
2, 370320, Note_on_c, 0, 65, 0
2, 370320, Note_on_c, 0, 74, 0
2, 370320, Note_on_c, 0, 70, 127
2, 370352, Note_on_c, 0, 70, 0
2, 370416, Note_on_c, 0, 75, 127
2, 370512, Note_on_c, 0, 75, 0
2, 370512, Note_on_c, 0, 77, 127
2, 370608, Note_on_c, 0, 77, 0
2, 370608, Note_on_c, 0, 79, 127
2, 370704, Note_on_c, 0, 79, 0
2, 370704, Note_on_c, 0, 77, 127
2, 370800, Note_on_c, 0, 77, 0
2, 370800, Note_on_c, 0, 79, 127
2, 370896, Note_on_c, 0, 79, 0
2, 370896, Note_on_c, 0, 80, 127
2, 370992, Note_on_c, 0, 80, 0
2, 370992, Note_on_c, 0, 79, 127
2, 371088, Note_on_c, 0, 79, 0
2, 371088, Note_on_c, 0, 74, 127
2, 371184, Note_on_c, 0, 74, 0
2, 371184, Note_on_c, 0, 75, 127
2, 371280, Note_on_c, 0, 75, 0
2, 371280, Note_on_c, 0, 79, 127
2, 371376, Note_on_c, 0, 79, 0
2, 371376, Note_on_c, 0, 74, 127
2, 371472, Note_on_c, 0, 74, 0
2, 371472, Note_on_c, 0, 75, 127
2, 371568, Note_on_c, 0, 75, 0
2, 371568, Note_on_c, 0, 72, 127
2, 371664, Note_on_c, 0, 72, 0
2, 371664, Note_on_c, 0, 80, 127
2, 371760, Note_on_c, 0, 80, 0
2, 371760, Note_on_c, 0, 79, 127
2, 371856, Note_on_c, 0, 79, 0
2, 371856, Note_on_c, 0, 77, 127
2, 371952, Note_on_c, 0, 77, 0
2, 371952, Note_on_c, 0, 79, 127
2, 372048, Note_on_c, 0, 79, 0
2, 372048, Note_on_c, 0, 75, 127
2, 372144, Note_on_c, 0, 75, 0
2, 372144, Note_on_c, 0, 77, 127
2, 372240, Note_on_c, 0, 77, 0
2, 372240, Note_on_c, 0, 72, 127
2, 372336, Note_on_c, 0, 72, 0
2, 372336, Note_on_c, 0, 74, 127
2, 372432, Note_on_c, 0, 74, 0
2, 372432, Note_on_c, 0, 77, 127
2, 372528, Note_on_c, 0, 77, 0
2, 372528, Note_on_c, 0, 72, 127
2, 372624, Note_on_c, 0, 72, 0
2, 372624, Note_on_c, 0, 74, 127
2, 372720, Note_on_c, 0, 74, 0
2, 372720, Note_on_c, 0, 71, 127
2, 372816, Note_on_c, 0, 71, 0
2, 372816, Note_on_c, 0, 79, 127
2, 372912, Note_on_c, 0, 79, 0
2, 372912, Note_on_c, 0, 77, 127
2, 373008, Note_on_c, 0, 77, 0
2, 373008, Note_on_c, 0, 75, 127
2, 373104, Note_on_c, 0, 75, 0
2, 373104, Note_on_c, 0, 77, 127
2, 373200, Note_on_c, 0, 77, 0
2, 373200, Note_on_c, 0, 74, 127
2, 373296, Note_on_c, 0, 74, 0
2, 373296, Note_on_c, 0, 75, 127
2, 373584, Note_on_c, 0, 75, 0
2, 373584, Note_on_c, 0, 76, 127
2, 373872, Note_on_c, 0, 76, 0
2, 373872, Note_on_c, 0, 77, 127
2, 374064, Note_on_c, 0, 77, 0
2, 374160, Note_on_c, 0, 75, 127
2, 374544, Note_on_c, 0, 75, 0
2, 374544, Note_on_c, 0, 77, 127
2, 374640, Note_on_c, 0, 77, 0
2, 374640, Note_on_c, 0, 75, 127
2, 374736, Note_on_c, 0, 75, 0
2, 374736, Note_on_c, 0, 74, 127
2, 374832, Note_on_c, 0, 74, 0
2, 374832, Note_on_c, 0, 75, 127
2, 374928, Note_on_c, 0, 75, 0
2, 374928, Note_on_c, 0, 72, 127
2, 375024, Note_on_c, 0, 72, 0
2, 375024, Note_on_c, 0, 71, 127
2, 375216, Note_on_c, 0, 71, 0
2, 375312, Note_on_c, 0, 72, 127
2, 375504, Note_on_c, 0, 72, 0
2, 375600, Note_on_c, 0, 74, 127
2, 375792, Note_on_c, 0, 74, 0
2, 375792, Note_on_c, 0, 72, 127
2, 375984, Note_on_c, 0, 72, 0
2, 375984, Note_on_c, 0, 72, 127
2, 376080, Note_on_c, 0, 72, 0
2, 376080, Note_on_c, 0, 71, 127
2, 376176, Note_on_c, 0, 71, 0
2, 376176, Note_on_c, 0, 72, 127
2, 376656, Note_on_c, 0, 72, 0
2, 376656, Note_on_c, 0, 75, 127
2, 376672, Note_on_c, 0, 75, 0
2, 376672, Note_on_c, 0, 74, 127
2, 376688, Note_on_c, 0, 74, 0
2, 376688, Note_on_c, 0, 75, 127
2, 376704, Note_on_c, 0, 75, 0
2, 376704, Note_on_c, 0, 74, 127
2, 376720, Note_on_c, 0, 74, 0
2, 376720, Note_on_c, 0, 72, 127
2, 376736, Note_on_c, 0, 72, 0
2, 376736, Note_on_c, 0, 74, 127
2, 376752, Note_on_c, 0, 74, 0
2, 376752, Note_on_c, 0, 75, 127
2, 376848, Note_on_c, 0, 75, 0
2, 376848, Note_on_c, 0, 70, 127
2, 376944, Note_on_c, 0, 70, 0
2, 376944, Note_on_c, 0, 79, 127
2, 376976, Note_on_c, 0, 79, 0
2, 377040, Note_on_c, 0, 77, 127
2, 377136, Note_on_c, 0, 77, 0
2, 377136, Note_on_c, 0, 70, 127
2, 377232, Note_on_c, 0, 70, 0
2, 377232, Note_on_c, 0, 80, 127
2, 377264, Note_on_c, 0, 80, 0
2, 377328, Note_on_c, 0, 79, 127
2, 377424, Note_on_c, 0, 79, 0
2, 377424, Note_on_c, 0, 82, 127
2, 377520, Note_on_c, 0, 82, 0
2, 377520, Note_on_c, 0, 80, 127
2, 377616, Note_on_c, 0, 80, 0
2, 377616, Note_on_c, 0, 79, 127
2, 377712, Note_on_c, 0, 79, 0
2, 377712, Note_on_c, 0, 77, 127
2, 377808, Note_on_c, 0, 77, 0
2, 377808, Note_on_c, 0, 75, 127
2, 377904, Note_on_c, 0, 75, 0
2, 377904, Note_on_c, 0, 73, 127
2, 378000, Note_on_c, 0, 73, 0
2, 378000, Note_on_c, 0, 82, 127
2, 378096, Note_on_c, 0, 82, 0
2, 378096, Note_on_c, 0, 75, 127
2, 378192, Note_on_c, 0, 75, 0
2, 378192, Note_on_c, 0, 73, 127
2, 378288, Note_on_c, 0, 73, 0
2, 378288, Note_on_c, 0, 82, 127
2, 378384, Note_on_c, 0, 82, 0
2, 378384, Note_on_c, 0, 73, 127
2, 378480, Note_on_c, 0, 73, 0
2, 378480, Note_on_c, 0, 72, 127
2, 378576, Note_on_c, 0, 72, 0
2, 378576, Note_on_c, 0, 75, 127
2, 378672, Note_on_c, 0, 75, 0
2, 378672, Note_on_c, 0, 80, 127
2, 378768, Note_on_c, 0, 80, 0
2, 378768, Note_on_c, 0, 79, 127
2, 378864, Note_on_c, 0, 79, 0
2, 378864, Note_on_c, 0, 77, 127
2, 378960, Note_on_c, 0, 77, 0
2, 378960, Note_on_c, 0, 80, 127
2, 379056, Note_on_c, 0, 80, 0
2, 379056, Note_on_c, 0, 74, 127
2, 379248, Note_on_c, 0, 74, 0
2, 379248, Note_on_c, 0, 70, 127
2, 379280, Note_on_c, 0, 70, 0
2, 379344, Note_on_c, 0, 75, 127
2, 379536, Note_on_c, 0, 75, 0
2, 379536, Note_on_c, 0, 70, 127
2, 379568, Note_on_c, 0, 70, 0
2, 379632, Note_on_c, 0, 77, 127
2, 379824, Note_on_c, 0, 77, 0
2, 379824, Note_on_c, 0, 68, 127
2, 379856, Note_on_c, 0, 68, 0
2, 379920, Note_on_c, 0, 77, 127
2, 380112, Note_on_c, 0, 77, 0
2, 380112, Note_on_c, 0, 68, 127
2, 380144, Note_on_c, 0, 68, 0
2, 380208, Note_on_c, 0, 67, 127
2, 380352, Note_on_c, 0, 67, 0
2, 380352, Note_on_c, 0, 68, 127
2, 380400, Note_on_c, 0, 68, 0
2, 380400, Note_on_c, 0, 67, 127
2, 380448, Note_on_c, 0, 67, 0
2, 380448, Note_on_c, 0, 68, 127
2, 380496, Note_on_c, 0, 68, 0
2, 380496, Note_on_c, 0, 70, 127
2, 380544, Note_on_c, 0, 70, 0
2, 380544, Note_on_c, 0, 68, 127
2, 380592, Note_on_c, 0, 68, 0
2, 380592, Note_on_c, 0, 70, 127
2, 380640, Note_on_c, 0, 70, 0
2, 380640, Note_on_c, 0, 68, 127
2, 380688, Note_on_c, 0, 68, 0
2, 380688, Note_on_c, 0, 70, 127
2, 380736, Note_on_c, 0, 70, 0
2, 380736, Note_on_c, 0, 68, 127
2, 380784, Note_on_c, 0, 68, 0
2, 380784, Note_on_c, 0, 67, 127
2, 380832, Note_on_c, 0, 67, 0
2, 380832, Note_on_c, 0, 68, 127
2, 380880, Note_on_c, 0, 68, 0
2, 380880, Note_on_c, 0, 70, 127
2, 380976, Note_on_c, 0, 70, 0
2, 380976, Note_on_c, 0, 75, 127
2, 381072, Note_on_c, 0, 75, 0
2, 381072, Note_on_c, 0, 73, 127
2, 381168, Note_on_c, 0, 73, 0
2, 381168, Note_on_c, 0, 72, 127
2, 381296, Note_on_c, 0, 72, 0
2, 381296, Note_on_c, 0, 70, 127
2, 381424, Note_on_c, 0, 70, 0
2, 381424, Note_on_c, 0, 68, 127
2, 381552, Note_on_c, 0, 68, 0
2, 381552, Note_on_c, 0, 67, 127
2, 381696, Note_on_c, 0, 67, 0
2, 381696, Note_on_c, 0, 65, 127
2, 381744, Note_on_c, 0, 65, 0
2, 381744, Note_on_c, 0, 63, 127
2, 381792, Note_on_c, 0, 63, 0
2, 381792, Note_on_c, 0, 65, 127
2, 381840, Note_on_c, 0, 65, 0
2, 381840, Note_on_c, 0, 67, 127
2, 381888, Note_on_c, 0, 67, 0
2, 381888, Note_on_c, 0, 65, 127
2, 381936, Note_on_c, 0, 65, 0
2, 381936, Note_on_c, 0, 67, 127
2, 381984, Note_on_c, 0, 67, 0
2, 381984, Note_on_c, 0, 65, 127
2, 382032, Note_on_c, 0, 65, 0
2, 382032, Note_on_c, 0, 67, 127
2, 382080, Note_on_c, 0, 67, 0
2, 382080, Note_on_c, 0, 65, 127
2, 382128, Note_on_c, 0, 65, 0
2, 382128, Note_on_c, 0, 63, 127
2, 382176, Note_on_c, 0, 63, 0
2, 382176, Note_on_c, 0, 65, 127
2, 382224, Note_on_c, 0, 65, 0
2, 382224, Note_on_c, 0, 63, 127
2, 382320, Note_on_c, 0, 63, 0
2, 382320, Note_on_c, 0, 67, 127
2, 382416, Note_on_c, 0, 67, 0
2, 382416, Note_on_c, 0, 70, 127
2, 382512, Note_on_c, 0, 70, 0
2, 382512, Note_on_c, 0, 67, 127
2, 382608, Note_on_c, 0, 67, 0
2, 382608, Note_on_c, 0, 63, 127
2, 382704, Note_on_c, 0, 63, 0
2, 382704, Note_on_c, 0, 70, 127
2, 382800, Note_on_c, 0, 70, 0
2, 382800, Note_on_c, 0, 72, 127
2, 382824, Note_on_c, 0, 72, 0
2, 382824, Note_on_c, 0, 70, 127
2, 382848, Note_on_c, 0, 70, 0
2, 382848, Note_on_c, 0, 72, 127
2, 382872, Note_on_c, 0, 72, 0
2, 382872, Note_on_c, 0, 70, 127
2, 382896, Note_on_c, 0, 70, 0
2, 382896, Note_on_c, 0, 72, 127
2, 382920, Note_on_c, 0, 72, 0
2, 382920, Note_on_c, 0, 70, 127
2, 382944, Note_on_c, 0, 70, 0
2, 382944, Note_on_c, 0, 72, 127
2, 382968, Note_on_c, 0, 72, 0
2, 382968, Note_on_c, 0, 70, 127
2, 382992, Note_on_c, 0, 70, 0
2, 382992, Note_on_c, 0, 72, 127
2, 383016, Note_on_c, 0, 72, 0
2, 383016, Note_on_c, 0, 70, 127
2, 383040, Note_on_c, 0, 70, 0
2, 383040, Note_on_c, 0, 72, 127
2, 383064, Note_on_c, 0, 72, 0
2, 383064, Note_on_c, 0, 70, 127
2, 383088, Note_on_c, 0, 70, 0
2, 383088, Note_on_c, 0, 72, 127
2, 383112, Note_on_c, 0, 72, 0
2, 383112, Note_on_c, 0, 70, 127
2, 383136, Note_on_c, 0, 70, 0
2, 383136, Note_on_c, 0, 72, 127
2, 383160, Note_on_c, 0, 72, 0
2, 383160, Note_on_c, 0, 70, 127
2, 383184, Note_on_c, 0, 70, 0
2, 383184, Note_on_c, 0, 72, 127
2, 383208, Note_on_c, 0, 72, 0
2, 383208, Note_on_c, 0, 70, 127
2, 383232, Note_on_c, 0, 70, 0
2, 383232, Note_on_c, 0, 72, 127
2, 383256, Note_on_c, 0, 72, 0
2, 383256, Note_on_c, 0, 70, 127
2, 383280, Note_on_c, 0, 70, 0
2, 383280, Note_on_c, 0, 72, 127
2, 383304, Note_on_c, 0, 72, 0
2, 383304, Note_on_c, 0, 70, 127
2, 383328, Note_on_c, 0, 70, 0
2, 383328, Note_on_c, 0, 72, 127
2, 383352, Note_on_c, 0, 72, 0
2, 383352, Note_on_c, 0, 70, 127
2, 383472, Note_on_c, 0, 70, 0
2, 383472, Note_on_c, 0, 67, 127
2, 383568, Note_on_c, 0, 67, 0
2, 383568, Note_on_c, 0, 75, 127
2, 383664, Note_on_c, 0, 75, 0
2, 383664, Note_on_c, 0, 70, 127
2, 383760, Note_on_c, 0, 70, 0
2, 383760, Note_on_c, 0, 67, 127
2, 383856, Note_on_c, 0, 67, 0
2, 383856, Note_on_c, 0, 75, 127
2, 383952, Note_on_c, 0, 75, 0
2, 383952, Note_on_c, 0, 70, 127
2, 384048, Note_on_c, 0, 70, 0
2, 384048, Note_on_c, 0, 72, 127
2, 384096, Note_on_c, 0, 72, 0
2, 384096, Note_on_c, 0, 70, 127
2, 384144, Note_on_c, 0, 70, 0
2, 384144, Note_on_c, 0, 68, 127
2, 384192, Note_on_c, 0, 68, 0
2, 384192, Note_on_c, 0, 67, 127
2, 384240, Note_on_c, 0, 67, 0
2, 384240, Note_on_c, 0, 68, 127
2, 384336, Note_on_c, 0, 68, 0
2, 384336, Note_on_c, 0, 70, 127
2, 384384, Note_on_c, 0, 70, 0
2, 384384, Note_on_c, 0, 68, 127
2, 384432, Note_on_c, 0, 68, 0
2, 384432, Note_on_c, 0, 67, 127
2, 384480, Note_on_c, 0, 67, 0
2, 384480, Note_on_c, 0, 65, 127
2, 384528, Note_on_c, 0, 65, 0
2, 384528, Note_on_c, 0, 67, 127
2, 384624, Note_on_c, 0, 67, 0
2, 384624, Note_on_c, 0, 70, 127
2, 384672, Note_on_c, 0, 70, 0
2, 384672, Note_on_c, 0, 68, 127
2, 384720, Note_on_c, 0, 68, 0
2, 384720, Note_on_c, 0, 67, 127
2, 384768, Note_on_c, 0, 67, 0
2, 384768, Note_on_c, 0, 65, 127
2, 384816, Note_on_c, 0, 65, 0
2, 384816, Note_on_c, 0, 67, 127
2, 384912, Note_on_c, 0, 67, 0
2, 384912, Note_on_c, 0, 70, 127
2, 384960, Note_on_c, 0, 70, 0
2, 384960, Note_on_c, 0, 68, 127
2, 385008, Note_on_c, 0, 68, 0
2, 385008, Note_on_c, 0, 67, 127
2, 385056, Note_on_c, 0, 67, 0
2, 385056, Note_on_c, 0, 65, 127
2, 385104, Note_on_c, 0, 65, 0
2, 385104, Note_on_c, 0, 67, 127
2, 385200, Note_on_c, 0, 67, 0
2, 385200, Note_on_c, 0, 63, 127
2, 385296, Note_on_c, 0, 63, 0
2, 385296, Note_on_c, 0, 67, 127
2, 385392, Note_on_c, 0, 67, 0
2, 385392, Note_on_c, 0, 70, 127
2, 385488, Note_on_c, 0, 70, 0
2, 385488, Note_on_c, 0, 67, 127
2, 385584, Note_on_c, 0, 67, 0
2, 385584, Note_on_c, 0, 70, 127
2, 385680, Note_on_c, 0, 70, 0
2, 385680, Note_on_c, 0, 75, 127
2, 386256, Note_on_c, 0, 75, 0
2, 386256, Note_on_c, 0, 65, 127
2, 386280, Note_on_c, 0, 65, 0
2, 386280, Note_on_c, 0, 63, 127
2, 386304, Note_on_c, 0, 63, 0
2, 386304, Note_on_c, 0, 65, 127
2, 386448, Note_on_c, 0, 65, 0
2, 386448, Note_on_c, 0, 58, 127
2, 386480, Note_on_c, 0, 58, 0
2, 386544, Note_on_c, 0, 65, 127
2, 386736, Note_on_c, 0, 65, 0
2, 386736, Note_on_c, 0, 58, 127
2, 386768, Note_on_c, 0, 58, 0
2, 386832, Note_on_c, 0, 63, 127
2, 386928, Note_on_c, 0, 63, 0
2, 386928, Note_on_c, 0, 65, 127
2, 387024, Note_on_c, 0, 65, 0
2, 387024, Note_on_c, 0, 67, 127
2, 387120, Note_on_c, 0, 67, 0
2, 387120, Note_on_c, 0, 65, 127
2, 387216, Note_on_c, 0, 65, 0
2, 387216, Note_on_c, 0, 67, 127
2, 387312, Note_on_c, 0, 67, 0
2, 387312, Note_on_c, 0, 68, 127
2, 387408, Note_on_c, 0, 68, 0
2, 387408, Note_on_c, 0, 67, 127
2, 387504, Note_on_c, 0, 67, 0
2, 387504, Note_on_c, 0, 70, 127
2, 387600, Note_on_c, 0, 70, 0
2, 387600, Note_on_c, 0, 68, 127
2, 387696, Note_on_c, 0, 68, 0
2, 387696, Note_on_c, 0, 67, 127
2, 387792, Note_on_c, 0, 67, 0
2, 387792, Note_on_c, 0, 65, 127
2, 387888, Note_on_c, 0, 65, 0
2, 387888, Note_on_c, 0, 63, 127
2, 387984, Note_on_c, 0, 63, 0
2, 387984, Note_on_c, 0, 65, 127
2, 388128, Note_on_c, 0, 65, 0
2, 388128, Note_on_c, 0, 67, 127
2, 388176, Note_on_c, 0, 67, 0
2, 388176, Note_on_c, 0, 65, 127
2, 388224, Note_on_c, 0, 65, 0
2, 388224, Note_on_c, 0, 67, 127
2, 388272, Note_on_c, 0, 67, 0
2, 388272, Note_on_c, 0, 68, 127
2, 388320, Note_on_c, 0, 68, 0
2, 388320, Note_on_c, 0, 67, 127
2, 388368, Note_on_c, 0, 67, 0
2, 388368, Note_on_c, 0, 68, 127
2, 388416, Note_on_c, 0, 68, 0
2, 388416, Note_on_c, 0, 67, 127
2, 388464, Note_on_c, 0, 67, 0
2, 388464, Note_on_c, 0, 68, 127
2, 388512, Note_on_c, 0, 68, 0
2, 388512, Note_on_c, 0, 67, 127
2, 388560, Note_on_c, 0, 67, 0
2, 388560, Note_on_c, 0, 65, 127
2, 388608, Note_on_c, 0, 65, 0
2, 388608, Note_on_c, 0, 67, 127
2, 388656, Note_on_c, 0, 67, 0
2, 388656, Note_on_c, 0, 68, 127
2, 388752, Note_on_c, 0, 68, 0
2, 388752, Note_on_c, 0, 72, 127
2, 388848, Note_on_c, 0, 72, 0
2, 388848, Note_on_c, 0, 70, 127
2, 388944, Note_on_c, 0, 70, 0
2, 388944, Note_on_c, 0, 68, 127
2, 389072, Note_on_c, 0, 68, 0
2, 389072, Note_on_c, 0, 67, 127
2, 389200, Note_on_c, 0, 67, 0
2, 389200, Note_on_c, 0, 65, 127
2, 389328, Note_on_c, 0, 65, 0
2, 389328, Note_on_c, 0, 67, 127
2, 389472, Note_on_c, 0, 67, 0
2, 389472, Note_on_c, 0, 69, 127
2, 389520, Note_on_c, 0, 69, 0
2, 389520, Note_on_c, 0, 67, 127
2, 389568, Note_on_c, 0, 67, 0
2, 389568, Note_on_c, 0, 69, 127
2, 389616, Note_on_c, 0, 69, 0
2, 389616, Note_on_c, 0, 70, 127
2, 389664, Note_on_c, 0, 70, 0
2, 389664, Note_on_c, 0, 69, 127
2, 389712, Note_on_c, 0, 69, 0
2, 389712, Note_on_c, 0, 70, 127
2, 389760, Note_on_c, 0, 70, 0
2, 389760, Note_on_c, 0, 69, 127
2, 389808, Note_on_c, 0, 69, 0
2, 389808, Note_on_c, 0, 70, 127
2, 389856, Note_on_c, 0, 70, 0
2, 389856, Note_on_c, 0, 69, 127
2, 389904, Note_on_c, 0, 69, 0
2, 389904, Note_on_c, 0, 67, 127
2, 389952, Note_on_c, 0, 67, 0
2, 389952, Note_on_c, 0, 69, 127
2, 390000, Note_on_c, 0, 69, 0
2, 390000, Note_on_c, 0, 65, 127
2, 390000, Note_on_c, 0, 70, 127
2, 390000, Note_on_c, 0, 74, 127
2, 390000, Note_on_c, 0, 77, 127
2, 390192, Note_on_c, 0, 77, 0
2, 390192, Note_on_c, 0, 70, 0
2, 390192, Note_on_c, 0, 65, 0
2, 390192, Note_on_c, 0, 74, 0
2, 390192, Note_on_c, 0, 70, 127
2, 390224, Note_on_c, 0, 70, 0
2, 390288, Note_on_c, 0, 65, 127
2, 390288, Note_on_c, 0, 68, 127
2, 390288, Note_on_c, 0, 74, 127
2, 390288, Note_on_c, 0, 77, 127
2, 390480, Note_on_c, 0, 77, 0
2, 390480, Note_on_c, 0, 68, 0
2, 390480, Note_on_c, 0, 65, 0
2, 390480, Note_on_c, 0, 74, 0
2, 390480, Note_on_c, 0, 70, 127
2, 390512, Note_on_c, 0, 70, 0
2, 390576, Note_on_c, 0, 75, 127
2, 390672, Note_on_c, 0, 75, 0
2, 390672, Note_on_c, 0, 77, 127
2, 390768, Note_on_c, 0, 77, 0
2, 390768, Note_on_c, 0, 79, 127
2, 390864, Note_on_c, 0, 79, 0
2, 390864, Note_on_c, 0, 77, 127
2, 390960, Note_on_c, 0, 77, 0
2, 390960, Note_on_c, 0, 79, 127
2, 391056, Note_on_c, 0, 79, 0
2, 391056, Note_on_c, 0, 80, 127
2, 391152, Note_on_c, 0, 80, 0
2, 391152, Note_on_c, 0, 79, 127
2, 391248, Note_on_c, 0, 79, 0
2, 391248, Note_on_c, 0, 74, 127
2, 391344, Note_on_c, 0, 74, 0
2, 391344, Note_on_c, 0, 75, 127
2, 391440, Note_on_c, 0, 75, 0
2, 391440, Note_on_c, 0, 79, 127
2, 391536, Note_on_c, 0, 79, 0
2, 391536, Note_on_c, 0, 74, 127
2, 391632, Note_on_c, 0, 74, 0
2, 391632, Note_on_c, 0, 75, 127
2, 391728, Note_on_c, 0, 75, 0
2, 391728, Note_on_c, 0, 72, 127
2, 391824, Note_on_c, 0, 72, 0
2, 391824, Note_on_c, 0, 80, 127
2, 391920, Note_on_c, 0, 80, 0
2, 391920, Note_on_c, 0, 79, 127
2, 392016, Note_on_c, 0, 79, 0
2, 392016, Note_on_c, 0, 77, 127
2, 392112, Note_on_c, 0, 77, 0
2, 392112, Note_on_c, 0, 79, 127
2, 392208, Note_on_c, 0, 79, 0
2, 392208, Note_on_c, 0, 75, 127
2, 392304, Note_on_c, 0, 75, 0
2, 392304, Note_on_c, 0, 77, 127
2, 392400, Note_on_c, 0, 77, 0
2, 392400, Note_on_c, 0, 72, 127
2, 392496, Note_on_c, 0, 72, 0
2, 392496, Note_on_c, 0, 74, 127
2, 392592, Note_on_c, 0, 74, 0
2, 392592, Note_on_c, 0, 77, 127
2, 392688, Note_on_c, 0, 77, 0
2, 392688, Note_on_c, 0, 72, 127
2, 392784, Note_on_c, 0, 72, 0
2, 392784, Note_on_c, 0, 74, 127
2, 392880, Note_on_c, 0, 74, 0
2, 392880, Note_on_c, 0, 71, 127
2, 392976, Note_on_c, 0, 71, 0
2, 392976, Note_on_c, 0, 79, 127
2, 393072, Note_on_c, 0, 79, 0
2, 393072, Note_on_c, 0, 77, 127
2, 393168, Note_on_c, 0, 77, 0
2, 393168, Note_on_c, 0, 75, 127
2, 393264, Note_on_c, 0, 75, 0
2, 393264, Note_on_c, 0, 77, 127
2, 393360, Note_on_c, 0, 77, 0
2, 393360, Note_on_c, 0, 74, 127
2, 393456, Note_on_c, 0, 74, 0
2, 393456, Note_on_c, 0, 75, 127
2, 393744, Note_on_c, 0, 75, 0
2, 393744, Note_on_c, 0, 76, 127
2, 394032, Note_on_c, 0, 76, 0
2, 394032, Note_on_c, 0, 77, 127
2, 394224, Note_on_c, 0, 77, 0
2, 394320, Note_on_c, 0, 75, 127
2, 394704, Note_on_c, 0, 75, 0
2, 394704, Note_on_c, 0, 77, 127
2, 394800, Note_on_c, 0, 77, 0
2, 394800, Note_on_c, 0, 75, 127
2, 394896, Note_on_c, 0, 75, 0
2, 394896, Note_on_c, 0, 74, 127
2, 394992, Note_on_c, 0, 74, 0
2, 394992, Note_on_c, 0, 75, 127
2, 395088, Note_on_c, 0, 75, 0
2, 395088, Note_on_c, 0, 72, 127
2, 395184, Note_on_c, 0, 72, 0
2, 395184, Note_on_c, 0, 71, 127
2, 395376, Note_on_c, 0, 71, 0
2, 395472, Note_on_c, 0, 72, 127
2, 395664, Note_on_c, 0, 72, 0
2, 395760, Note_on_c, 0, 74, 127
2, 395952, Note_on_c, 0, 74, 0
2, 395952, Note_on_c, 0, 72, 127
2, 396144, Note_on_c, 0, 72, 0
2, 396144, Note_on_c, 0, 72, 127
2, 396240, Note_on_c, 0, 72, 0
2, 396240, Note_on_c, 0, 71, 127
2, 396336, Note_on_c, 0, 71, 0
2, 396336, Note_on_c, 0, 72, 127
2, 396816, Note_on_c, 0, 72, 0
2, 396816, Note_on_c, 0, 75, 127
2, 396832, Note_on_c, 0, 75, 0
2, 396832, Note_on_c, 0, 74, 127
2, 396848, Note_on_c, 0, 74, 0
2, 396848, Note_on_c, 0, 75, 127
2, 396864, Note_on_c, 0, 75, 0
2, 396864, Note_on_c, 0, 74, 127
2, 396880, Note_on_c, 0, 74, 0
2, 396880, Note_on_c, 0, 72, 127
2, 396896, Note_on_c, 0, 72, 0
2, 396896, Note_on_c, 0, 74, 127
2, 396912, Note_on_c, 0, 74, 0
2, 396912, Note_on_c, 0, 75, 127
2, 397008, Note_on_c, 0, 75, 0
2, 397008, Note_on_c, 0, 70, 127
2, 397104, Note_on_c, 0, 70, 0
2, 397104, Note_on_c, 0, 79, 127
2, 397136, Note_on_c, 0, 79, 0
2, 397200, Note_on_c, 0, 77, 127
2, 397296, Note_on_c, 0, 77, 0
2, 397296, Note_on_c, 0, 70, 127
2, 397392, Note_on_c, 0, 70, 0
2, 397392, Note_on_c, 0, 80, 127
2, 397424, Note_on_c, 0, 80, 0
2, 397488, Note_on_c, 0, 79, 127
2, 397584, Note_on_c, 0, 79, 0
2, 397584, Note_on_c, 0, 82, 127
2, 397680, Note_on_c, 0, 82, 0
2, 397680, Note_on_c, 0, 80, 127
2, 397776, Note_on_c, 0, 80, 0
2, 397776, Note_on_c, 0, 79, 127
2, 397872, Note_on_c, 0, 79, 0
2, 397872, Note_on_c, 0, 77, 127
2, 397968, Note_on_c, 0, 77, 0
2, 397968, Note_on_c, 0, 75, 127
2, 398064, Note_on_c, 0, 75, 0
2, 398064, Note_on_c, 0, 73, 127
2, 398160, Note_on_c, 0, 73, 0
2, 398160, Note_on_c, 0, 82, 127
2, 398256, Note_on_c, 0, 82, 0
2, 398256, Note_on_c, 0, 75, 127
2, 398352, Note_on_c, 0, 75, 0
2, 398352, Note_on_c, 0, 73, 127
2, 398448, Note_on_c, 0, 73, 0
2, 398448, Note_on_c, 0, 82, 127
2, 398544, Note_on_c, 0, 82, 0
2, 398544, Note_on_c, 0, 73, 127
2, 398640, Note_on_c, 0, 73, 0
2, 398640, Note_on_c, 0, 72, 127
2, 398736, Note_on_c, 0, 72, 0
2, 398736, Note_on_c, 0, 75, 127
2, 398832, Note_on_c, 0, 75, 0
2, 398832, Note_on_c, 0, 80, 127
2, 398928, Note_on_c, 0, 80, 0
2, 398928, Note_on_c, 0, 79, 127
2, 399024, Note_on_c, 0, 79, 0
2, 399024, Note_on_c, 0, 77, 127
2, 399120, Note_on_c, 0, 77, 0
2, 399120, Note_on_c, 0, 80, 127
2, 399216, Note_on_c, 0, 80, 0
2, 399216, Note_on_c, 0, 74, 127
2, 399408, Note_on_c, 0, 74, 0
2, 399408, Note_on_c, 0, 70, 127
2, 399440, Note_on_c, 0, 70, 0
2, 399504, Note_on_c, 0, 75, 127
2, 399696, Note_on_c, 0, 75, 0
2, 399696, Note_on_c, 0, 70, 127
2, 399728, Note_on_c, 0, 70, 0
2, 399792, Note_on_c, 0, 77, 127
2, 399984, Note_on_c, 0, 77, 0
2, 399984, Note_on_c, 0, 68, 127
2, 400016, Note_on_c, 0, 68, 0
2, 400080, Note_on_c, 0, 77, 127
2, 400272, Note_on_c, 0, 77, 0
2, 400272, Note_on_c, 0, 68, 127
2, 400304, Note_on_c, 0, 68, 0
2, 400368, Note_on_c, 0, 67, 127
2, 400512, Note_on_c, 0, 67, 0
2, 400512, Note_on_c, 0, 68, 127
2, 400560, Note_on_c, 0, 68, 0
2, 400560, Note_on_c, 0, 67, 127
2, 400608, Note_on_c, 0, 67, 0
2, 400608, Note_on_c, 0, 68, 127
2, 400656, Note_on_c, 0, 68, 0
2, 400656, Note_on_c, 0, 70, 127
2, 400704, Note_on_c, 0, 70, 0
2, 400704, Note_on_c, 0, 68, 127
2, 400752, Note_on_c, 0, 68, 0
2, 400752, Note_on_c, 0, 70, 127
2, 400800, Note_on_c, 0, 70, 0
2, 400800, Note_on_c, 0, 68, 127
2, 400848, Note_on_c, 0, 68, 0
2, 400848, Note_on_c, 0, 70, 127
2, 400896, Note_on_c, 0, 70, 0
2, 400896, Note_on_c, 0, 68, 127
2, 400944, Note_on_c, 0, 68, 0
2, 400944, Note_on_c, 0, 67, 127
2, 400992, Note_on_c, 0, 67, 0
2, 400992, Note_on_c, 0, 68, 127
2, 401040, Note_on_c, 0, 68, 0
2, 401040, Note_on_c, 0, 70, 127
2, 401136, Note_on_c, 0, 70, 0
2, 401136, Note_on_c, 0, 75, 127
2, 401232, Note_on_c, 0, 75, 0
2, 401232, Note_on_c, 0, 73, 127
2, 401328, Note_on_c, 0, 73, 0
2, 401328, Note_on_c, 0, 72, 127
2, 401456, Note_on_c, 0, 72, 0
2, 401456, Note_on_c, 0, 70, 127
2, 401584, Note_on_c, 0, 70, 0
2, 401584, Note_on_c, 0, 68, 127
2, 401712, Note_on_c, 0, 68, 0
2, 401712, Note_on_c, 0, 67, 127
2, 401856, Note_on_c, 0, 67, 0
2, 401856, Note_on_c, 0, 65, 127
2, 401904, Note_on_c, 0, 65, 0
2, 401904, Note_on_c, 0, 63, 127
2, 401952, Note_on_c, 0, 63, 0
2, 401952, Note_on_c, 0, 65, 127
2, 402000, Note_on_c, 0, 65, 0
2, 402000, Note_on_c, 0, 67, 127
2, 402048, Note_on_c, 0, 67, 0
2, 402048, Note_on_c, 0, 65, 127
2, 402096, Note_on_c, 0, 65, 0
2, 402096, Note_on_c, 0, 67, 127
2, 402144, Note_on_c, 0, 67, 0
2, 402144, Note_on_c, 0, 65, 127
2, 402192, Note_on_c, 0, 65, 0
2, 402192, Note_on_c, 0, 67, 127
2, 402240, Note_on_c, 0, 67, 0
2, 402240, Note_on_c, 0, 65, 127
2, 402288, Note_on_c, 0, 65, 0
2, 402288, Note_on_c, 0, 63, 127
2, 402336, Note_on_c, 0, 63, 0
2, 402336, Note_on_c, 0, 65, 127
2, 402384, Note_on_c, 0, 65, 0
2, 402384, Note_on_c, 0, 63, 127
2, 402480, Note_on_c, 0, 63, 0
2, 402480, Note_on_c, 0, 67, 127
2, 402576, Note_on_c, 0, 67, 0
2, 402576, Note_on_c, 0, 70, 127
2, 402672, Note_on_c, 0, 70, 0
2, 402672, Note_on_c, 0, 67, 127
2, 402768, Note_on_c, 0, 67, 0
2, 402768, Note_on_c, 0, 63, 127
2, 402864, Note_on_c, 0, 63, 0
2, 402864, Note_on_c, 0, 70, 127
2, 402960, Note_on_c, 0, 70, 0
2, 402960, Note_on_c, 0, 72, 127
2, 402984, Note_on_c, 0, 72, 0
2, 402984, Note_on_c, 0, 70, 127
2, 403008, Note_on_c, 0, 70, 0
2, 403008, Note_on_c, 0, 72, 127
2, 403032, Note_on_c, 0, 72, 0
2, 403032, Note_on_c, 0, 70, 127
2, 403056, Note_on_c, 0, 70, 0
2, 403056, Note_on_c, 0, 72, 127
2, 403080, Note_on_c, 0, 72, 0
2, 403080, Note_on_c, 0, 70, 127
2, 403104, Note_on_c, 0, 70, 0
2, 403104, Note_on_c, 0, 72, 127
2, 403128, Note_on_c, 0, 72, 0
2, 403128, Note_on_c, 0, 70, 127
2, 403152, Note_on_c, 0, 70, 0
2, 403152, Note_on_c, 0, 72, 127
2, 403176, Note_on_c, 0, 72, 0
2, 403176, Note_on_c, 0, 70, 127
2, 403200, Note_on_c, 0, 70, 0
2, 403200, Note_on_c, 0, 72, 127
2, 403224, Note_on_c, 0, 72, 0
2, 403224, Note_on_c, 0, 70, 127
2, 403248, Note_on_c, 0, 70, 0
2, 403248, Note_on_c, 0, 72, 127
2, 403272, Note_on_c, 0, 72, 0
2, 403272, Note_on_c, 0, 70, 127
2, 403296, Note_on_c, 0, 70, 0
2, 403296, Note_on_c, 0, 72, 127
2, 403320, Note_on_c, 0, 72, 0
2, 403320, Note_on_c, 0, 70, 127
2, 403344, Note_on_c, 0, 70, 0
2, 403344, Note_on_c, 0, 72, 127
2, 403368, Note_on_c, 0, 72, 0
2, 403368, Note_on_c, 0, 70, 127
2, 403392, Note_on_c, 0, 70, 0
2, 403392, Note_on_c, 0, 72, 127
2, 403416, Note_on_c, 0, 72, 0
2, 403416, Note_on_c, 0, 70, 127
2, 403440, Note_on_c, 0, 70, 0
2, 403440, Note_on_c, 0, 72, 127
2, 403464, Note_on_c, 0, 72, 0
2, 403464, Note_on_c, 0, 70, 127
2, 403488, Note_on_c, 0, 70, 0
2, 403488, Note_on_c, 0, 72, 127
2, 403512, Note_on_c, 0, 72, 0
2, 403512, Note_on_c, 0, 70, 127
2, 403632, Note_on_c, 0, 70, 0
2, 403632, Note_on_c, 0, 67, 127
2, 403728, Note_on_c, 0, 67, 0
2, 403728, Note_on_c, 0, 75, 127
2, 403824, Note_on_c, 0, 75, 0
2, 403824, Note_on_c, 0, 70, 127
2, 403920, Note_on_c, 0, 70, 0
2, 403920, Note_on_c, 0, 67, 127
2, 404016, Note_on_c, 0, 67, 0
2, 404016, Note_on_c, 0, 75, 127
2, 404112, Note_on_c, 0, 75, 0
2, 404112, Note_on_c, 0, 70, 127
2, 404208, Note_on_c, 0, 70, 0
2, 404208, Note_on_c, 0, 72, 127
2, 404256, Note_on_c, 0, 72, 0
2, 404256, Note_on_c, 0, 70, 127
2, 404304, Note_on_c, 0, 70, 0
2, 404304, Note_on_c, 0, 68, 127
2, 404352, Note_on_c, 0, 68, 0
2, 404352, Note_on_c, 0, 67, 127
2, 404400, Note_on_c, 0, 67, 0
2, 404400, Note_on_c, 0, 68, 127
2, 404496, Note_on_c, 0, 68, 0
2, 404496, Note_on_c, 0, 70, 127
2, 404544, Note_on_c, 0, 70, 0
2, 404544, Note_on_c, 0, 68, 127
2, 404592, Note_on_c, 0, 68, 0
2, 404592, Note_on_c, 0, 67, 127
2, 404640, Note_on_c, 0, 67, 0
2, 404640, Note_on_c, 0, 65, 127
2, 404688, Note_on_c, 0, 65, 0
2, 404688, Note_on_c, 0, 67, 127
2, 404784, Note_on_c, 0, 67, 0
2, 404784, Note_on_c, 0, 70, 127
2, 404832, Note_on_c, 0, 70, 0
2, 404832, Note_on_c, 0, 68, 127
2, 404880, Note_on_c, 0, 68, 0
2, 404880, Note_on_c, 0, 67, 127
2, 404928, Note_on_c, 0, 67, 0
2, 404928, Note_on_c, 0, 65, 127
2, 404976, Note_on_c, 0, 65, 0
2, 404976, Note_on_c, 0, 67, 127
2, 405072, Note_on_c, 0, 67, 0
2, 405072, Note_on_c, 0, 70, 127
2, 405120, Note_on_c, 0, 70, 0
2, 405120, Note_on_c, 0, 68, 127
2, 405168, Note_on_c, 0, 68, 0
2, 405168, Note_on_c, 0, 67, 127
2, 405216, Note_on_c, 0, 67, 0
2, 405216, Note_on_c, 0, 65, 127
2, 405264, Note_on_c, 0, 65, 0
2, 405264, Note_on_c, 0, 67, 127
2, 405360, Note_on_c, 0, 67, 0
2, 405360, Note_on_c, 0, 63, 127
2, 405456, Note_on_c, 0, 63, 0
2, 405456, Note_on_c, 0, 67, 127
2, 405552, Note_on_c, 0, 67, 0
2, 405552, Note_on_c, 0, 70, 127
2, 405648, Note_on_c, 0, 70, 0
2, 405648, Note_on_c, 0, 67, 127
2, 405744, Note_on_c, 0, 67, 0
2, 405744, Note_on_c, 0, 70, 127
2, 405840, Note_on_c, 0, 70, 0
2, 405840, Note_on_c, 0, 75, 127
2, 406416, Note_on_c, 0, 75, 0
2, 406800, Note_on_c, 0, 67, 127
2, 406992, Note_on_c, 0, 67, 0
2, 406992, Note_on_c, 0, 65, 127
2, 407376, Note_on_c, 0, 65, 0
2, 407376, Note_on_c, 0, 63, 127
2, 407568, Note_on_c, 0, 63, 0
2, 407568, Note_on_c, 0, 72, 127
2, 407952, Note_on_c, 0, 72, 0
2, 407952, Note_on_c, 0, 70, 127
2, 408144, Note_on_c, 0, 70, 0
2, 408144, Note_on_c, 0, 68, 127
2, 408336, Note_on_c, 0, 68, 0
2, 408336, Note_on_c, 0, 67, 127
2, 408528, Note_on_c, 0, 67, 0
2, 408528, Note_on_c, 0, 65, 127
2, 408912, Note_on_c, 0, 65, 0
2, 408912, Note_on_c, 0, 63, 127
2, 409104, Note_on_c, 0, 63, 0
2, 409104, Note_on_c, 0, 67, 127
2, 409296, Note_on_c, 0, 67, 0
2, 409296, Note_on_c, 0, 65, 127
2, 409680, Note_on_c, 0, 65, 0
2, 409680, Note_on_c, 0, 63, 127
2, 409872, Note_on_c, 0, 63, 0
2, 409872, Note_on_c, 0, 72, 127
2, 410256, Note_on_c, 0, 72, 0
2, 410256, Note_on_c, 0, 70, 127
2, 410448, Note_on_c, 0, 70, 0
2, 410448, Note_on_c, 0, 68, 127
2, 410640, Note_on_c, 0, 68, 0
2, 410640, Note_on_c, 0, 67, 127
2, 410832, Note_on_c, 0, 67, 0
2, 410832, Note_on_c, 0, 67, 127
2, 411024, Note_on_c, 0, 67, 0
2, 411024, Note_on_c, 0, 65, 127
2, 411408, Note_on_c, 0, 65, 0
2, 411408, Note_on_c, 0, 67, 127
2, 411600, Note_on_c, 0, 67, 0
2, 411600, Note_on_c, 0, 65, 127
2, 411984, Note_on_c, 0, 65, 0
2, 411984, Note_on_c, 0, 63, 127
2, 412176, Note_on_c, 0, 63, 0
2, 412176, Note_on_c, 0, 72, 127
2, 412560, Note_on_c, 0, 72, 0
2, 412560, Note_on_c, 0, 70, 127
2, 412752, Note_on_c, 0, 70, 0
2, 412752, Note_on_c, 0, 68, 127
2, 412944, Note_on_c, 0, 68, 0
2, 412944, Note_on_c, 0, 67, 127
2, 413136, Note_on_c, 0, 67, 0
2, 413136, Note_on_c, 0, 65, 127
2, 413520, Note_on_c, 0, 65, 0
2, 413520, Note_on_c, 0, 63, 127
2, 413712, Note_on_c, 0, 63, 0
2, 413712, Note_on_c, 0, 67, 127
2, 413904, Note_on_c, 0, 67, 0
2, 413904, Note_on_c, 0, 65, 127
2, 414288, Note_on_c, 0, 65, 0
2, 414288, Note_on_c, 0, 63, 127
2, 414480, Note_on_c, 0, 63, 0
2, 414480, Note_on_c, 0, 72, 127
2, 414864, Note_on_c, 0, 72, 0
2, 414864, Note_on_c, 0, 70, 127
2, 415056, Note_on_c, 0, 70, 0
2, 415056, Note_on_c, 0, 68, 127
2, 415248, Note_on_c, 0, 68, 0
2, 415248, Note_on_c, 0, 67, 127
2, 415440, Note_on_c, 0, 67, 0
2, 415440, Note_on_c, 0, 67, 127
2, 415632, Note_on_c, 0, 67, 0
2, 415632, Note_on_c, 0, 65, 127
2, 416016, Note_on_c, 0, 65, 0
2, 416016, Note_on_c, 0, 65, 127
2, 416208, Note_on_c, 0, 65, 0
2, 416208, Note_on_c, 0, 70, 127
2, 416592, Note_on_c, 0, 70, 0
2, 416592, Note_on_c, 0, 67, 127
2, 416784, Note_on_c, 0, 67, 0
2, 416784, Note_on_c, 0, 72, 127
2, 416976, Note_on_c, 0, 72, 0
2, 416976, Note_on_c, 0, 75, 127
2, 417168, Note_on_c, 0, 75, 0
2, 417168, Note_on_c, 0, 74, 127
2, 417360, Note_on_c, 0, 74, 0
2, 417360, Note_on_c, 0, 75, 127
2, 417456, Note_on_c, 0, 75, 0
2, 417456, Note_on_c, 0, 74, 127
2, 417552, Note_on_c, 0, 74, 0
2, 417552, Note_on_c, 0, 72, 127
2, 417648, Note_on_c, 0, 72, 0
2, 417648, Note_on_c, 0, 70, 127
2, 417744, Note_on_c, 0, 70, 0
2, 417744, Note_on_c, 0, 69, 127
2, 417936, Note_on_c, 0, 69, 0
2, 417936, Note_on_c, 0, 67, 127
2, 418032, Note_on_c, 0, 67, 0
2, 418032, Note_on_c, 0, 69, 127
2, 418128, Note_on_c, 0, 69, 0
2, 418128, Note_on_c, 0, 65, 127
2, 418320, Note_on_c, 0, 65, 0
2, 418320, Note_on_c, 0, 74, 127
2, 418512, Note_on_c, 0, 74, 0
2, 418512, Note_on_c, 0, 72, 127
2, 418896, Note_on_c, 0, 72, 0
2, 418896, Note_on_c, 0, 70, 127
2, 419088, Note_on_c, 0, 70, 0
2, 419088, Note_on_c, 0, 79, 127
2, 419472, Note_on_c, 0, 79, 0
2, 419472, Note_on_c, 0, 77, 127
2, 419664, Note_on_c, 0, 77, 0
2, 419664, Note_on_c, 0, 75, 127
2, 419856, Note_on_c, 0, 75, 0
2, 419856, Note_on_c, 0, 74, 127
2, 420048, Note_on_c, 0, 74, 0
2, 420048, Note_on_c, 0, 72, 127
2, 420432, Note_on_c, 0, 72, 0
2, 420432, Note_on_c, 0, 70, 127
2, 420624, Note_on_c, 0, 70, 0
2, 420624, Note_on_c, 0, 74, 127
2, 420816, Note_on_c, 0, 74, 0
2, 420816, Note_on_c, 0, 72, 127
2, 421200, Note_on_c, 0, 72, 0
2, 421200, Note_on_c, 0, 70, 127
2, 421392, Note_on_c, 0, 70, 0
2, 421392, Note_on_c, 0, 79, 127
2, 421776, Note_on_c, 0, 79, 0
2, 421776, Note_on_c, 0, 77, 127
2, 421968, Note_on_c, 0, 77, 0
2, 421968, Note_on_c, 0, 74, 127
2, 422160, Note_on_c, 0, 74, 0
2, 422160, Note_on_c, 0, 74, 127
2, 422192, Note_on_c, 0, 74, 0
2, 422192, Note_on_c, 0, 72, 127
2, 422224, Note_on_c, 0, 72, 0
2, 422224, Note_on_c, 0, 74, 127
2, 422256, Note_on_c, 0, 74, 0
2, 422256, Note_on_c, 0, 72, 127
2, 422288, Note_on_c, 0, 72, 0
2, 422288, Note_on_c, 0, 70, 127
2, 422320, Note_on_c, 0, 70, 0
2, 422320, Note_on_c, 0, 72, 127
2, 422352, Note_on_c, 0, 72, 0
2, 422352, Note_on_c, 0, 70, 127
2, 422928, Note_on_c, 0, 70, 0
2, 422928, Note_on_c, 0, 74, 127
2, 423120, Note_on_c, 0, 74, 0
2, 423120, Note_on_c, 0, 74, 127
2, 423152, Note_on_c, 0, 74, 0
2, 423152, Note_on_c, 0, 72, 127
2, 423184, Note_on_c, 0, 72, 0
2, 423184, Note_on_c, 0, 74, 127
2, 423216, Note_on_c, 0, 74, 0
2, 423216, Note_on_c, 0, 72, 127
2, 423248, Note_on_c, 0, 72, 0
2, 423248, Note_on_c, 0, 70, 127
2, 423280, Note_on_c, 0, 70, 0
2, 423280, Note_on_c, 0, 72, 127
2, 423312, Note_on_c, 0, 72, 0
2, 423312, Note_on_c, 0, 74, 127
2, 423504, Note_on_c, 0, 74, 0
2, 423504, Note_on_c, 0, 75, 127
2, 423696, Note_on_c, 0, 75, 0
2, 423696, Note_on_c, 0, 77, 127
2, 424080, Note_on_c, 0, 77, 0
2, 424080, Note_on_c, 0, 79, 127
2, 424272, Note_on_c, 0, 79, 0
2, 424272, Note_on_c, 0, 80, 127
2, 424368, Note_on_c, 0, 80, 0
2, 424368, Note_on_c, 0, 79, 127
2, 424464, Note_on_c, 0, 79, 0
2, 424464, Note_on_c, 0, 77, 127
2, 424560, Note_on_c, 0, 77, 0
2, 424560, Note_on_c, 0, 75, 127
2, 424656, Note_on_c, 0, 75, 0
2, 424656, Note_on_c, 0, 74, 127
2, 424848, Note_on_c, 0, 74, 0
2, 424848, Note_on_c, 0, 72, 127
2, 424944, Note_on_c, 0, 72, 0
2, 424944, Note_on_c, 0, 74, 127
2, 425040, Note_on_c, 0, 74, 0
2, 425040, Note_on_c, 0, 70, 127
2, 425232, Note_on_c, 0, 70, 0
2, 425232, Note_on_c, 0, 67, 127
2, 425424, Note_on_c, 0, 67, 0
2, 425424, Note_on_c, 0, 65, 127
2, 425808, Note_on_c, 0, 65, 0
2, 425808, Note_on_c, 0, 63, 127
2, 426000, Note_on_c, 0, 63, 0
2, 426000, Note_on_c, 0, 72, 127
2, 426384, Note_on_c, 0, 72, 0
2, 426384, Note_on_c, 0, 70, 127
2, 426576, Note_on_c, 0, 70, 0
2, 426576, Note_on_c, 0, 68, 127
2, 426768, Note_on_c, 0, 68, 0
2, 426768, Note_on_c, 0, 67, 127
2, 426960, Note_on_c, 0, 67, 0
2, 426960, Note_on_c, 0, 65, 127
2, 427344, Note_on_c, 0, 65, 0
2, 427344, Note_on_c, 0, 63, 127
2, 427536, Note_on_c, 0, 63, 0
2, 427536, Note_on_c, 0, 67, 127
2, 427728, Note_on_c, 0, 67, 0
2, 427728, Note_on_c, 0, 65, 127
2, 428112, Note_on_c, 0, 65, 0
2, 428112, Note_on_c, 0, 63, 127
2, 428304, Note_on_c, 0, 63, 0
2, 428304, Note_on_c, 0, 72, 127
2, 428688, Note_on_c, 0, 72, 0
2, 428688, Note_on_c, 0, 70, 127
2, 428880, Note_on_c, 0, 70, 0
2, 428880, Note_on_c, 0, 67, 127
2, 429072, Note_on_c, 0, 67, 0
2, 429072, Note_on_c, 0, 67, 127
2, 429104, Note_on_c, 0, 67, 0
2, 429104, Note_on_c, 0, 65, 127
2, 429136, Note_on_c, 0, 65, 0
2, 429136, Note_on_c, 0, 67, 127
2, 429168, Note_on_c, 0, 67, 0
2, 429168, Note_on_c, 0, 65, 127
2, 429200, Note_on_c, 0, 65, 0
2, 429200, Note_on_c, 0, 63, 127
2, 429232, Note_on_c, 0, 63, 0
2, 429232, Note_on_c, 0, 65, 127
2, 429264, Note_on_c, 0, 65, 0
2, 429264, Note_on_c, 0, 55, 127
2, 429264, Note_on_c, 0, 58, 127
2, 429264, Note_on_c, 0, 63, 127
2, 429840, Note_on_c, 0, 63, 0
2, 429840, Note_on_c, 0, 73, 0
2, 429840, Note_on_c, 0, 73, 0
2, 429840, Note_on_c, 0, 73, 0
2, 429840, Note_on_c, 0, 58, 0
2, 429840, Note_on_c, 0, 55, 0
2, 429840, End_track
3, 0, Start_track
3, 0, Title_t, "Staff-1"
3, 0, Program_c, 1, 6
3, 0, Control_c, 1, 7, 127
3, 0, Control_c, 1, 10, 64
3, 13440, Note_on_c, 1, 67, 127
3, 13440, Note_on_c, 1, 70, 127
3, 13488, Note_on_c, 1, 70, 0
3, 13488, Note_on_c, 1, 67, 0
3, 14256, Note_on_c, 1, 63, 127
3, 14304, Note_on_c, 1, 63, 0
3, 14304, Note_on_c, 1, 62, 127
3, 14352, Note_on_c, 1, 62, 0
3, 14352, Note_on_c, 1, 63, 127
3, 14400, Note_on_c, 1, 63, 0
3, 14400, Note_on_c, 1, 67, 127
3, 14448, Note_on_c, 1, 67, 0
3, 14448, Note_on_c, 1, 62, 127
3, 14496, Note_on_c, 1, 62, 0
3, 14496, Note_on_c, 1, 60, 127
3, 14544, Note_on_c, 1, 60, 0
3, 14544, Note_on_c, 1, 62, 127
3, 14592, Note_on_c, 1, 62, 0
3, 14592, Note_on_c, 1, 63, 127
3, 14640, Note_on_c, 1, 63, 0
3, 14640, Note_on_c, 1, 60, 127
3, 14688, Note_on_c, 1, 60, 0
3, 14688, Note_on_c, 1, 58, 127
3, 14736, Note_on_c, 1, 58, 0
3, 14736, Note_on_c, 1, 60, 127
3, 14784, Note_on_c, 1, 60, 0
3, 14784, Note_on_c, 1, 65, 127
3, 14832, Note_on_c, 1, 65, 0
3, 14832, Note_on_c, 1, 60, 127
3, 14880, Note_on_c, 1, 60, 0
3, 14880, Note_on_c, 1, 58, 127
3, 14928, Note_on_c, 1, 58, 0
3, 14928, Note_on_c, 1, 60, 127
3, 14976, Note_on_c, 1, 60, 0
3, 14976, Note_on_c, 1, 62, 127
3, 14976, Note_on_c, 1, 70, 127
3, 15072, Note_on_c, 1, 70, 0
3, 15072, Note_on_c, 1, 62, 0
3, 15168, Note_on_c, 1, 58, 127
3, 15168, Note_on_c, 1, 62, 127
3, 15264, Note_on_c, 1, 62, 0
3, 15264, Note_on_c, 1, 58, 0
3, 15360, Note_on_c, 1, 60, 127
3, 15360, Note_on_c, 1, 67, 127
3, 15456, Note_on_c, 1, 67, 0
3, 15456, Note_on_c, 1, 60, 0
3, 15552, Note_on_c, 1, 57, 127
3, 15552, Note_on_c, 1, 60, 127
3, 15648, Note_on_c, 1, 60, 0
3, 15648, Note_on_c, 1, 57, 0
3, 15744, Note_on_c, 1, 74, 127
3, 15792, Note_on_c, 1, 74, 0
3, 15792, Note_on_c, 1, 70, 127
3, 15840, Note_on_c, 1, 70, 0
3, 15840, Note_on_c, 1, 69, 127
3, 15888, Note_on_c, 1, 69, 0
3, 15888, Note_on_c, 1, 67, 127
3, 15936, Note_on_c, 1, 67, 0
3, 15936, Note_on_c, 1, 65, 127
3, 15984, Note_on_c, 1, 65, 0
3, 16560, Note_on_c, 1, 75, 127
3, 16608, Note_on_c, 1, 75, 0
3, 16608, Note_on_c, 1, 74, 127
3, 16656, Note_on_c, 1, 74, 0
3, 16656, Note_on_c, 1, 72, 127
3, 16704, Note_on_c, 1, 72, 0
3, 16704, Note_on_c, 1, 70, 127
3, 16752, Note_on_c, 1, 70, 0
3, 18096, Note_on_c, 1, 68, 127
3, 18144, Note_on_c, 1, 68, 0
3, 18144, Note_on_c, 1, 67, 127
3, 18192, Note_on_c, 1, 67, 0
3, 18192, Note_on_c, 1, 68, 127
3, 18240, Note_on_c, 1, 68, 0
3, 18240, Note_on_c, 1, 72, 127
3, 18288, Note_on_c, 1, 72, 0
3, 18288, Note_on_c, 1, 67, 127
3, 18336, Note_on_c, 1, 67, 0
3, 18336, Note_on_c, 1, 65, 127
3, 18384, Note_on_c, 1, 65, 0
3, 18384, Note_on_c, 1, 67, 127
3, 18432, Note_on_c, 1, 67, 0
3, 18432, Note_on_c, 1, 68, 127
3, 18480, Note_on_c, 1, 68, 0
3, 18480, Note_on_c, 1, 65, 127
3, 18528, Note_on_c, 1, 65, 0
3, 18528, Note_on_c, 1, 63, 127
3, 18576, Note_on_c, 1, 63, 0
3, 18576, Note_on_c, 1, 65, 127
3, 18624, Note_on_c, 1, 65, 0
3, 18624, Note_on_c, 1, 70, 127
3, 18672, Note_on_c, 1, 70, 0
3, 18672, Note_on_c, 1, 65, 127
3, 18720, Note_on_c, 1, 65, 0
3, 18720, Note_on_c, 1, 63, 127
3, 18768, Note_on_c, 1, 63, 0
3, 18768, Note_on_c, 1, 65, 127
3, 18816, Note_on_c, 1, 65, 0
3, 18816, Note_on_c, 1, 63, 127
3, 18816, Note_on_c, 1, 67, 127
3, 18912, Note_on_c, 1, 67, 0
3, 18912, Note_on_c, 1, 63, 0
3, 20832, Note_on_c, 1, 60, 127
3, 20832, Note_on_c, 1, 64, 127
3, 20864, Note_on_c, 1, 64, 0
3, 20864, Note_on_c, 1, 60, 0
3, 20928, Note_on_c, 1, 62, 127
3, 20928, Note_on_c, 1, 65, 127
3, 20960, Note_on_c, 1, 65, 0
3, 20960, Note_on_c, 1, 62, 0
3, 21024, Note_on_c, 1, 64, 127
3, 21024, Note_on_c, 1, 67, 127
3, 21056, Note_on_c, 1, 67, 0
3, 21056, Note_on_c, 1, 64, 0
3, 21120, Note_on_c, 1, 65, 127
3, 21120, Note_on_c, 1, 68, 127
3, 21168, Note_on_c, 1, 68, 0
3, 21168, Note_on_c, 1, 65, 0
3, 21600, Note_on_c, 1, 65, 127
3, 21600, Note_on_c, 1, 69, 127
3, 21632, Note_on_c, 1, 69, 0
3, 21632, Note_on_c, 1, 65, 0
3, 21696, Note_on_c, 1, 67, 127
3, 21696, Note_on_c, 1, 70, 127
3, 21728, Note_on_c, 1, 70, 0
3, 21728, Note_on_c, 1, 67, 0
3, 21792, Note_on_c, 1, 69, 127
3, 21792, Note_on_c, 1, 72, 127
3, 21824, Note_on_c, 1, 72, 0
3, 21824, Note_on_c, 1, 69, 0
3, 21888, Note_on_c, 1, 70, 127
3, 21888, Note_on_c, 1, 73, 127
3, 21984, Note_on_c, 1, 73, 0
3, 21984, Note_on_c, 1, 70, 0
3, 22176, Note_on_c, 1, 70, 127
3, 22272, Note_on_c, 1, 70, 0
3, 22272, Note_on_c, 1, 68, 127
3, 22368, Note_on_c, 1, 68, 0
3, 22560, Note_on_c, 1, 68, 127
3, 22656, Note_on_c, 1, 68, 0
3, 22656, Note_on_c, 1, 67, 127
3, 22752, Note_on_c, 1, 67, 0
3, 22944, Note_on_c, 1, 67, 127
3, 23040, Note_on_c, 1, 67, 0
3, 23040, Note_on_c, 1, 65, 127
3, 23136, Note_on_c, 1, 65, 0
3, 23328, Note_on_c, 1, 65, 127
3, 23472, Note_on_c, 1, 65, 0
3, 23472, Note_on_c, 1, 63, 127
3, 23520, Note_on_c, 1, 63, 0
3, 23520, Note_on_c, 1, 62, 127
3, 23568, Note_on_c, 1, 62, 0
3, 23568, Note_on_c, 1, 60, 127
3, 23616, Note_on_c, 1, 60, 0
3, 23616, Note_on_c, 1, 58, 127
3, 23664, Note_on_c, 1, 58, 0
3, 24240, Note_on_c, 1, 68, 127
3, 24288, Note_on_c, 1, 68, 0
3, 24288, Note_on_c, 1, 67, 127
3, 24336, Note_on_c, 1, 67, 0
3, 24336, Note_on_c, 1, 65, 127
3, 24384, Note_on_c, 1, 65, 0
3, 24384, Note_on_c, 1, 63, 127
3, 24432, Note_on_c, 1, 63, 0
3, 32448, Note_on_c, 1, 67, 127
3, 32496, Note_on_c, 1, 67, 0
3, 32496, Note_on_c, 1, 68, 127
3, 32544, Note_on_c, 1, 68, 0
3, 32544, Note_on_c, 1, 65, 127
3, 32592, Note_on_c, 1, 65, 0
3, 32592, Note_on_c, 1, 62, 127
3, 32784, Note_on_c, 1, 62, 0
3, 33024, Note_on_c, 1, 70, 127
3, 33072, Note_on_c, 1, 70, 0
3, 33072, Note_on_c, 1, 72, 127
3, 33120, Note_on_c, 1, 72, 0
3, 33120, Note_on_c, 1, 68, 127
3, 33168, Note_on_c, 1, 68, 0
3, 33168, Note_on_c, 1, 65, 127
3, 33408, Note_on_c, 1, 65, 0
3, 33408, Note_on_c, 1, 71, 127
3, 33456, Note_on_c, 1, 71, 0
3, 33456, Note_on_c, 1, 68, 127
3, 33504, Note_on_c, 1, 68, 0
3, 33504, Note_on_c, 1, 67, 127
3, 33552, Note_on_c, 1, 67, 0
3, 33552, Note_on_c, 1, 65, 127
3, 33600, Note_on_c, 1, 65, 0
3, 33600, Note_on_c, 1, 62, 127
3, 33648, Note_on_c, 1, 62, 0
3, 33648, Note_on_c, 1, 63, 127
3, 33696, Note_on_c, 1, 63, 0
3, 33696, Note_on_c, 1, 67, 127
3, 33744, Note_on_c, 1, 67, 0
3, 33792, Note_on_c, 1, 67, 127
3, 33840, Note_on_c, 1, 67, 0
3, 33840, Note_on_c, 1, 68, 127
3, 33888, Note_on_c, 1, 68, 0
3, 33888, Note_on_c, 1, 65, 127
3, 33936, Note_on_c, 1, 65, 0
3, 33936, Note_on_c, 1, 62, 127
3, 34176, Note_on_c, 1, 62, 0
3, 34176, Note_on_c, 1, 65, 127
3, 34224, Note_on_c, 1, 65, 0
3, 34224, Note_on_c, 1, 67, 127
3, 34272, Note_on_c, 1, 67, 0
3, 34272, Note_on_c, 1, 61, 127
3, 34320, Note_on_c, 1, 61, 0
3, 34320, Note_on_c, 1, 60, 127
3, 34512, Note_on_c, 1, 60, 0
3, 34512, Note_on_c, 1, 68, 127
3, 34752, Note_on_c, 1, 68, 0
3, 34752, Note_on_c, 1, 72, 127
3, 34800, Note_on_c, 1, 72, 0
3, 34800, Note_on_c, 1, 74, 127
3, 34848, Note_on_c, 1, 74, 0
3, 34848, Note_on_c, 1, 75, 127
3, 34896, Note_on_c, 1, 75, 0
3, 34896, Note_on_c, 1, 68, 127
3, 34944, Note_on_c, 1, 68, 0
3, 34944, Note_on_c, 1, 75, 127
3, 34992, Note_on_c, 1, 75, 0
3, 34992, Note_on_c, 1, 74, 127
3, 35040, Note_on_c, 1, 74, 0
3, 35040, Note_on_c, 1, 68, 127
3, 35088, Note_on_c, 1, 68, 0
3, 35088, Note_on_c, 1, 67, 127
3, 35328, Note_on_c, 1, 67, 0
3, 35328, Note_on_c, 1, 69, 127
3, 35376, Note_on_c, 1, 69, 0
3, 35376, Note_on_c, 1, 70, 127
3, 35424, Note_on_c, 1, 70, 0
3, 35424, Note_on_c, 1, 72, 127
3, 35472, Note_on_c, 1, 72, 0
3, 35472, Note_on_c, 1, 65, 127
3, 35760, Note_on_c, 1, 65, 0
3, 35760, Note_on_c, 1, 63, 127
3, 35904, Note_on_c, 1, 63, 0
3, 35904, Note_on_c, 1, 60, 127
3, 35952, Note_on_c, 1, 60, 0
3, 35952, Note_on_c, 1, 62, 127
3, 36000, Note_on_c, 1, 65, 127
3, 36192, Note_on_c, 1, 65, 0
3, 36192, Note_on_c, 1, 62, 0
3, 40128, Note_on_c, 1, 67, 127
3, 40176, Note_on_c, 1, 67, 0
3, 40176, Note_on_c, 1, 68, 127
3, 40224, Note_on_c, 1, 68, 0
3, 40224, Note_on_c, 1, 65, 127
3, 40272, Note_on_c, 1, 65, 0
3, 40272, Note_on_c, 1, 62, 127
3, 40464, Note_on_c, 1, 62, 0
3, 40704, Note_on_c, 1, 70, 127
3, 40752, Note_on_c, 1, 70, 0
3, 40752, Note_on_c, 1, 72, 127
3, 40800, Note_on_c, 1, 72, 0
3, 40800, Note_on_c, 1, 68, 127
3, 40848, Note_on_c, 1, 68, 0
3, 40848, Note_on_c, 1, 65, 127
3, 41088, Note_on_c, 1, 65, 0
3, 41088, Note_on_c, 1, 71, 127
3, 41136, Note_on_c, 1, 71, 0
3, 41136, Note_on_c, 1, 68, 127
3, 41184, Note_on_c, 1, 68, 0
3, 41184, Note_on_c, 1, 67, 127
3, 41232, Note_on_c, 1, 67, 0
3, 41232, Note_on_c, 1, 65, 127
3, 41280, Note_on_c, 1, 65, 0
3, 41280, Note_on_c, 1, 62, 127
3, 41328, Note_on_c, 1, 62, 0
3, 41328, Note_on_c, 1, 63, 127
3, 41376, Note_on_c, 1, 63, 0
3, 41376, Note_on_c, 1, 67, 127
3, 41424, Note_on_c, 1, 67, 0
3, 41472, Note_on_c, 1, 67, 127
3, 41520, Note_on_c, 1, 67, 0
3, 41520, Note_on_c, 1, 68, 127
3, 41568, Note_on_c, 1, 68, 0
3, 41568, Note_on_c, 1, 65, 127
3, 41616, Note_on_c, 1, 65, 0
3, 41616, Note_on_c, 1, 62, 127
3, 41856, Note_on_c, 1, 62, 0
3, 41856, Note_on_c, 1, 65, 127
3, 41904, Note_on_c, 1, 65, 0
3, 41904, Note_on_c, 1, 67, 127
3, 41952, Note_on_c, 1, 67, 0
3, 41952, Note_on_c, 1, 61, 127
3, 42000, Note_on_c, 1, 61, 0
3, 42000, Note_on_c, 1, 60, 127
3, 42192, Note_on_c, 1, 60, 0
3, 42192, Note_on_c, 1, 68, 127
3, 42432, Note_on_c, 1, 68, 0
3, 42432, Note_on_c, 1, 72, 127
3, 42480, Note_on_c, 1, 72, 0
3, 42480, Note_on_c, 1, 74, 127
3, 42528, Note_on_c, 1, 74, 0
3, 42528, Note_on_c, 1, 75, 127
3, 42576, Note_on_c, 1, 75, 0
3, 42576, Note_on_c, 1, 68, 127
3, 42624, Note_on_c, 1, 68, 0
3, 42624, Note_on_c, 1, 75, 127
3, 42672, Note_on_c, 1, 75, 0
3, 42672, Note_on_c, 1, 74, 127
3, 42720, Note_on_c, 1, 74, 0
3, 42720, Note_on_c, 1, 68, 127
3, 42768, Note_on_c, 1, 68, 0
3, 42768, Note_on_c, 1, 67, 127
3, 43008, Note_on_c, 1, 67, 0
3, 43008, Note_on_c, 1, 69, 127
3, 43056, Note_on_c, 1, 69, 0
3, 43056, Note_on_c, 1, 70, 127
3, 43104, Note_on_c, 1, 70, 0
3, 43104, Note_on_c, 1, 72, 127
3, 43152, Note_on_c, 1, 72, 0
3, 43152, Note_on_c, 1, 65, 127
3, 43440, Note_on_c, 1, 65, 0
3, 43440, Note_on_c, 1, 63, 127
3, 43584, Note_on_c, 1, 63, 0
3, 43584, Note_on_c, 1, 60, 127
3, 43632, Note_on_c, 1, 60, 0
3, 43632, Note_on_c, 1, 62, 127
3, 43680, Note_on_c, 1, 65, 127
3, 43872, Note_on_c, 1, 65, 0
3, 43872, Note_on_c, 1, 62, 0
3, 44112, Note_on_c, 1, 70, 127
3, 44304, Note_on_c, 1, 70, 0
3, 44496, Note_on_c, 1, 70, 127
3, 44688, Note_on_c, 1, 70, 0
3, 44880, Note_on_c, 1, 69, 127
3, 45072, Note_on_c, 1, 69, 0
3, 45264, Note_on_c, 1, 65, 127
3, 45456, Note_on_c, 1, 65, 0
3, 45456, Note_on_c, 1, 68, 127
3, 45504, Note_on_c, 1, 68, 0
3, 45888, Note_on_c, 1, 71, 127
3, 45936, Note_on_c, 1, 71, 0
3, 45936, Note_on_c, 1, 72, 127
3, 45984, Note_on_c, 1, 72, 0
3, 45984, Note_on_c, 1, 67, 127
3, 46032, Note_on_c, 1, 67, 0
3, 46032, Note_on_c, 1, 63, 127
3, 46224, Note_on_c, 1, 63, 0
3, 46368, Note_on_c, 1, 67, 127
3, 46416, Note_on_c, 1, 67, 0
3, 47760, Note_on_c, 1, 67, 127
3, 47952, Note_on_c, 1, 67, 0
3, 47952, Note_on_c, 1, 65, 127
3, 48192, Note_on_c, 1, 65, 0
3, 48192, Note_on_c, 1, 62, 127
3, 48240, Note_on_c, 1, 62, 0
3, 48240, Note_on_c, 1, 63, 127
3, 48288, Note_on_c, 1, 67, 127
3, 48336, Note_on_c, 1, 60, 127
3, 48528, Note_on_c, 1, 60, 0
3, 48528, Note_on_c, 1, 67, 0
3, 48528, Note_on_c, 1, 63, 0
3, 50256, Note_on_c, 1, 67, 127
3, 50448, Note_on_c, 1, 67, 0
3, 50448, Note_on_c, 1, 56, 127
3, 50640, Note_on_c, 1, 56, 0
3, 50688, Note_on_c, 1, 70, 127
3, 50832, Note_on_c, 1, 70, 0
3, 50832, Note_on_c, 1, 58, 127
3, 51120, Note_on_c, 1, 58, 0
3, 51120, Note_on_c, 1, 56, 127
3, 51264, Note_on_c, 1, 56, 0
3, 51264, Note_on_c, 1, 53, 127
3, 51312, Note_on_c, 1, 53, 0
3, 51312, Note_on_c, 1, 55, 127
3, 51360, Note_on_c, 1, 58, 127
3, 51552, Note_on_c, 1, 58, 0
3, 51552, Note_on_c, 1, 55, 0
3, 51792, Note_on_c, 1, 70, 127
3, 51984, Note_on_c, 1, 70, 0
3, 52176, Note_on_c, 1, 70, 127
3, 52368, Note_on_c, 1, 70, 0
3, 52560, Note_on_c, 1, 69, 127
3, 52752, Note_on_c, 1, 69, 0
3, 52944, Note_on_c, 1, 65, 127
3, 53136, Note_on_c, 1, 65, 0
3, 53136, Note_on_c, 1, 68, 127
3, 53184, Note_on_c, 1, 68, 0
3, 53568, Note_on_c, 1, 71, 127
3, 53616, Note_on_c, 1, 71, 0
3, 53616, Note_on_c, 1, 72, 127
3, 53664, Note_on_c, 1, 72, 0
3, 53664, Note_on_c, 1, 67, 127
3, 53712, Note_on_c, 1, 67, 0
3, 53712, Note_on_c, 1, 63, 127
3, 53904, Note_on_c, 1, 63, 0
3, 54048, Note_on_c, 1, 67, 127
3, 54096, Note_on_c, 1, 67, 0
3, 55440, Note_on_c, 1, 67, 127
3, 55632, Note_on_c, 1, 67, 0
3, 55632, Note_on_c, 1, 65, 127
3, 55872, Note_on_c, 1, 65, 0
3, 55872, Note_on_c, 1, 62, 127
3, 55920, Note_on_c, 1, 62, 0
3, 55920, Note_on_c, 1, 63, 127
3, 55968, Note_on_c, 1, 67, 127
3, 56016, Note_on_c, 1, 60, 127
3, 56208, Note_on_c, 1, 60, 0
3, 56208, Note_on_c, 1, 67, 0
3, 56208, Note_on_c, 1, 63, 0
3, 57936, Note_on_c, 1, 67, 127
3, 58128, Note_on_c, 1, 67, 0
3, 58128, Note_on_c, 1, 56, 127
3, 58320, Note_on_c, 1, 56, 0
3, 58368, Note_on_c, 1, 70, 127
3, 58512, Note_on_c, 1, 70, 0
3, 58512, Note_on_c, 1, 58, 127
3, 58800, Note_on_c, 1, 58, 0
3, 58800, Note_on_c, 1, 56, 127
3, 58944, Note_on_c, 1, 56, 0
3, 58944, Note_on_c, 1, 53, 127
3, 58992, Note_on_c, 1, 53, 0
3, 58992, Note_on_c, 1, 55, 127
3, 59040, Note_on_c, 1, 58, 127
3, 59232, Note_on_c, 1, 58, 0
3, 59232, Note_on_c, 1, 55, 0
3, 78784, Note_on_c, 1, 62, 127
3, 78848, Note_on_c, 1, 62, 0
3, 78848, Note_on_c, 1, 65, 127
3, 78912, Note_on_c, 1, 65, 0
3, 78912, Note_on_c, 1, 70, 127
3, 78976, Note_on_c, 1, 70, 0
3, 78976, Note_on_c, 1, 68, 127
3, 79040, Note_on_c, 1, 68, 0
3, 79040, Note_on_c, 1, 67, 127
3, 79104, Note_on_c, 1, 67, 0
3, 79104, Note_on_c, 1, 65, 127
3, 79360, Note_on_c, 1, 65, 0
3, 79360, Note_on_c, 1, 67, 127
3, 79424, Note_on_c, 1, 67, 0
3, 79424, Note_on_c, 1, 68, 127
3, 79488, Note_on_c, 1, 68, 0
3, 79488, Note_on_c, 1, 67, 127
3, 79616, Note_on_c, 1, 67, 0
3, 79616, Note_on_c, 1, 65, 127
3, 79680, Note_on_c, 1, 65, 0
3, 90304, Note_on_c, 1, 62, 127
3, 90368, Note_on_c, 1, 62, 0
3, 90368, Note_on_c, 1, 65, 127
3, 90432, Note_on_c, 1, 65, 0
3, 90432, Note_on_c, 1, 70, 127
3, 90496, Note_on_c, 1, 70, 0
3, 90496, Note_on_c, 1, 68, 127
3, 90560, Note_on_c, 1, 68, 0
3, 90560, Note_on_c, 1, 67, 127
3, 90624, Note_on_c, 1, 67, 0
3, 90624, Note_on_c, 1, 65, 127
3, 90880, Note_on_c, 1, 65, 0
3, 90880, Note_on_c, 1, 67, 127
3, 90944, Note_on_c, 1, 67, 0
3, 90944, Note_on_c, 1, 68, 127
3, 91008, Note_on_c, 1, 68, 0
3, 91008, Note_on_c, 1, 67, 127
3, 91136, Note_on_c, 1, 67, 0
3, 91136, Note_on_c, 1, 65, 127
3, 91200, Note_on_c, 1, 65, 0
3, 101856, Note_on_c, 1, 67, 127
3, 102048, Note_on_c, 1, 67, 0
3, 102048, Note_on_c, 1, 67, 127
3, 102432, Note_on_c, 1, 67, 0
3, 102432, Note_on_c, 1, 70, 127
3, 102624, Note_on_c, 1, 70, 0
3, 104160, Note_on_c, 1, 67, 127
3, 104352, Note_on_c, 1, 67, 0
3, 104352, Note_on_c, 1, 65, 127
3, 104736, Note_on_c, 1, 65, 0
3, 105312, Note_on_c, 1, 62, 127
3, 105504, Note_on_c, 1, 62, 0
3, 105504, Note_on_c, 1, 67, 127
3, 105696, Note_on_c, 1, 67, 0
3, 105888, Note_on_c, 1, 70, 127
3, 106080, Note_on_c, 1, 70, 0
3, 106464, Note_on_c, 1, 67, 127
3, 106656, Note_on_c, 1, 67, 0
3, 106656, Note_on_c, 1, 67, 127
3, 107040, Note_on_c, 1, 67, 0
3, 107040, Note_on_c, 1, 70, 127
3, 107232, Note_on_c, 1, 70, 0
3, 108768, Note_on_c, 1, 67, 127
3, 108960, Note_on_c, 1, 67, 0
3, 108960, Note_on_c, 1, 65, 127
3, 109344, Note_on_c, 1, 65, 0
3, 109920, Note_on_c, 1, 62, 127
3, 110112, Note_on_c, 1, 62, 0
3, 110112, Note_on_c, 1, 67, 127
3, 110304, Note_on_c, 1, 67, 0
3, 110496, Note_on_c, 1, 70, 127
3, 110688, Note_on_c, 1, 70, 0
3, 111072, Note_on_c, 1, 74, 127
3, 111264, Note_on_c, 1, 74, 0
3, 111264, Note_on_c, 1, 74, 127
3, 111648, Note_on_c, 1, 74, 0
3, 111648, Note_on_c, 1, 76, 127
3, 111840, Note_on_c, 1, 76, 0
3, 111840, Note_on_c, 1, 76, 127
3, 112224, Note_on_c, 1, 76, 0
3, 112800, Note_on_c, 1, 76, 127
3, 112992, Note_on_c, 1, 76, 0
3, 114912, Note_on_c, 1, 80, 127
3, 114960, Note_on_c, 1, 80, 0
3, 114960, Note_on_c, 1, 77, 127
3, 115008, Note_on_c, 1, 77, 0
3, 115008, Note_on_c, 1, 79, 127
3, 115056, Note_on_c, 1, 79, 0
3, 115056, Note_on_c, 1, 75, 127
3, 115104, Note_on_c, 1, 75, 0
3, 115104, Note_on_c, 1, 77, 127
3, 115152, Note_on_c, 1, 77, 0
3, 115152, Note_on_c, 1, 70, 127
3, 115200, Note_on_c, 1, 70, 0
3, 115200, Note_on_c, 1, 72, 127
3, 115248, Note_on_c, 1, 72, 0
3, 115248, Note_on_c, 1, 67, 127
3, 115296, Note_on_c, 1, 67, 0
3, 115488, Note_on_c, 1, 65, 127
3, 115680, Note_on_c, 1, 65, 0
3, 116256, Note_on_c, 1, 79, 127
3, 116448, Note_on_c, 1, 79, 0
3, 119328, Note_on_c, 1, 72, 127
3, 119520, Note_on_c, 1, 72, 0
3, 119520, Note_on_c, 1, 68, 127
3, 119760, Note_on_c, 1, 68, 0
3, 119760, Note_on_c, 1, 70, 127
3, 119808, Note_on_c, 1, 70, 0
3, 119808, Note_on_c, 1, 72, 127
3, 119856, Note_on_c, 1, 72, 0
3, 119856, Note_on_c, 1, 68, 127
3, 119904, Note_on_c, 1, 68, 0
3, 119904, Note_on_c, 1, 67, 127
3, 119952, Note_on_c, 1, 68, 127
3, 120000, Note_on_c, 1, 68, 0
3, 120000, Note_on_c, 1, 70, 127
3, 120048, Note_on_c, 1, 75, 127
3, 120288, Note_on_c, 1, 75, 0
3, 120288, Note_on_c, 1, 70, 0
3, 120288, Note_on_c, 1, 67, 0
3, 120288, Note_on_c, 1, 74, 127
3, 120480, Note_on_c, 1, 74, 0
3, 120480, Note_on_c, 1, 74, 127
3, 120864, Note_on_c, 1, 74, 0
3, 120864, Note_on_c, 1, 76, 127
3, 121056, Note_on_c, 1, 76, 0
3, 121056, Note_on_c, 1, 76, 127
3, 121440, Note_on_c, 1, 76, 0
3, 122016, Note_on_c, 1, 76, 127
3, 122208, Note_on_c, 1, 76, 0
3, 124128, Note_on_c, 1, 80, 127
3, 124176, Note_on_c, 1, 80, 0
3, 124176, Note_on_c, 1, 77, 127
3, 124224, Note_on_c, 1, 77, 0
3, 124224, Note_on_c, 1, 79, 127
3, 124272, Note_on_c, 1, 79, 0
3, 124272, Note_on_c, 1, 75, 127
3, 124320, Note_on_c, 1, 75, 0
3, 124320, Note_on_c, 1, 77, 127
3, 124368, Note_on_c, 1, 77, 0
3, 124368, Note_on_c, 1, 70, 127
3, 124416, Note_on_c, 1, 70, 0
3, 124416, Note_on_c, 1, 72, 127
3, 124464, Note_on_c, 1, 72, 0
3, 124464, Note_on_c, 1, 67, 127
3, 124512, Note_on_c, 1, 67, 0
3, 124704, Note_on_c, 1, 65, 127
3, 124896, Note_on_c, 1, 65, 0
3, 125472, Note_on_c, 1, 79, 127
3, 125664, Note_on_c, 1, 79, 0
3, 128544, Note_on_c, 1, 72, 127
3, 128736, Note_on_c, 1, 72, 0
3, 128736, Note_on_c, 1, 68, 127
3, 128976, Note_on_c, 1, 68, 0
3, 128976, Note_on_c, 1, 70, 127
3, 129024, Note_on_c, 1, 70, 0
3, 129024, Note_on_c, 1, 72, 127
3, 129072, Note_on_c, 1, 72, 0
3, 129072, Note_on_c, 1, 68, 127
3, 129120, Note_on_c, 1, 68, 0
3, 129120, Note_on_c, 1, 67, 127
3, 129168, Note_on_c, 1, 68, 127
3, 129216, Note_on_c, 1, 68, 0
3, 129216, Note_on_c, 1, 70, 127
3, 129264, Note_on_c, 1, 75, 127
3, 129504, Note_on_c, 1, 75, 0
3, 129504, Note_on_c, 1, 70, 0
3, 129504, Note_on_c, 1, 67, 0
3, 202080, Note_on_c, 1, 65, 127
3, 202272, Note_on_c, 1, 65, 0
3, 202272, Note_on_c, 1, 63, 127
3, 202464, Note_on_c, 1, 63, 0
3, 202848, Note_on_c, 1, 67, 127
3, 203040, Note_on_c, 1, 67, 0
3, 203040, Note_on_c, 1, 65, 127
3, 203232, Note_on_c, 1, 65, 0
3, 203616, Note_on_c, 1, 69, 127
3, 203808, Note_on_c, 1, 69, 0
3, 203808, Note_on_c, 1, 67, 127
3, 204000, Note_on_c, 1, 67, 0
3, 211104, Note_on_c, 1, 70, 127
3, 211152, Note_on_c, 1, 70, 0
3, 211296, Note_on_c, 1, 68, 127
3, 211872, Note_on_c, 1, 68, 0
3, 211872, Note_on_c, 1, 68, 127
3, 211920, Note_on_c, 1, 68, 0
3, 212064, Note_on_c, 1, 67, 127
3, 212640, Note_on_c, 1, 67, 0
3, 212640, Note_on_c, 1, 67, 127
3, 212688, Note_on_c, 1, 67, 0
3, 212832, Note_on_c, 1, 65, 127
3, 213408, Note_on_c, 1, 65, 0
3, 213408, Note_on_c, 1, 65, 127
3, 213456, Note_on_c, 1, 65, 0
3, 213600, Note_on_c, 1, 63, 127
3, 214176, Note_on_c, 1, 63, 0
3, 214176, Note_on_c, 1, 68, 127
3, 214224, Note_on_c, 1, 68, 0
3, 214368, Note_on_c, 1, 65, 127
3, 214848, Note_on_c, 1, 65, 0
3, 214848, Note_on_c, 1, 65, 127
3, 214944, Note_on_c, 1, 65, 0
3, 214944, Note_on_c, 1, 63, 127
3, 215040, Note_on_c, 1, 63, 0
3, 215040, Note_on_c, 1, 62, 127
3, 215136, Note_on_c, 1, 62, 0
3, 215136, Note_on_c, 1, 60, 127
3, 215520, Note_on_c, 1, 60, 0
3, 215520, Note_on_c, 1, 62, 127
3, 215904, Note_on_c, 1, 62, 0
3, 215904, Note_on_c, 1, 63, 127
3, 216288, Note_on_c, 1, 63, 0
3, 216288, Note_on_c, 1, 65, 127
3, 216672, Note_on_c, 1, 65, 0
3, 216672, Note_on_c, 1, 67, 127
3, 217056, Note_on_c, 1, 67, 0
3, 217056, Note_on_c, 1, 68, 127
3, 217440, Note_on_c, 1, 68, 0
3, 217536, Note_on_c, 1, 68, 127
3, 217632, Note_on_c, 1, 68, 0
3, 217632, Note_on_c, 1, 67, 127
3, 217728, Note_on_c, 1, 67, 0
3, 217728, Note_on_c, 1, 65, 127
3, 217824, Note_on_c, 1, 65, 0
3, 234336, Note_on_c, 1, 65, 127
3, 234528, Note_on_c, 1, 65, 0
3, 234528, Note_on_c, 1, 63, 127
3, 234720, Note_on_c, 1, 63, 0
3, 235104, Note_on_c, 1, 67, 127
3, 235296, Note_on_c, 1, 67, 0
3, 235296, Note_on_c, 1, 65, 127
3, 235488, Note_on_c, 1, 65, 0
3, 235872, Note_on_c, 1, 69, 127
3, 236064, Note_on_c, 1, 69, 0
3, 236064, Note_on_c, 1, 67, 127
3, 236256, Note_on_c, 1, 67, 0
3, 243360, Note_on_c, 1, 70, 127
3, 243408, Note_on_c, 1, 70, 0
3, 243552, Note_on_c, 1, 68, 127
3, 244128, Note_on_c, 1, 68, 0
3, 244128, Note_on_c, 1, 68, 127
3, 244176, Note_on_c, 1, 68, 0
3, 244320, Note_on_c, 1, 67, 127
3, 244896, Note_on_c, 1, 67, 0
3, 244896, Note_on_c, 1, 67, 127
3, 244944, Note_on_c, 1, 67, 0
3, 245088, Note_on_c, 1, 65, 127
3, 245664, Note_on_c, 1, 65, 0
3, 245664, Note_on_c, 1, 65, 127
3, 245712, Note_on_c, 1, 65, 0
3, 245856, Note_on_c, 1, 63, 127
3, 246432, Note_on_c, 1, 63, 0
3, 246432, Note_on_c, 1, 68, 127
3, 246480, Note_on_c, 1, 68, 0
3, 246624, Note_on_c, 1, 65, 127
3, 247104, Note_on_c, 1, 65, 0
3, 247104, Note_on_c, 1, 65, 127
3, 247200, Note_on_c, 1, 65, 0
3, 247200, Note_on_c, 1, 63, 127
3, 247296, Note_on_c, 1, 63, 0
3, 247296, Note_on_c, 1, 62, 127
3, 247392, Note_on_c, 1, 62, 0
3, 247392, Note_on_c, 1, 60, 127
3, 247776, Note_on_c, 1, 60, 0
3, 247776, Note_on_c, 1, 62, 127
3, 248160, Note_on_c, 1, 62, 0
3, 248160, Note_on_c, 1, 63, 127
3, 248544, Note_on_c, 1, 63, 0
3, 248544, Note_on_c, 1, 65, 127
3, 248928, Note_on_c, 1, 65, 0
3, 248928, Note_on_c, 1, 67, 127
3, 249312, Note_on_c, 1, 67, 0
3, 249312, Note_on_c, 1, 68, 127
3, 249696, Note_on_c, 1, 68, 0
3, 249792, Note_on_c, 1, 68, 127
3, 249888, Note_on_c, 1, 68, 0
3, 249888, Note_on_c, 1, 67, 127
3, 249984, Note_on_c, 1, 67, 0
3, 249984, Note_on_c, 1, 65, 127
3, 250080, Note_on_c, 1, 65, 0
3, 312720, Note_on_c, 1, 63, 127
3, 312816, Note_on_c, 1, 63, 0
3, 312816, Note_on_c, 1, 67, 127
3, 312912, Note_on_c, 1, 67, 0
3, 312912, Note_on_c, 1, 63, 127
3, 313008, Note_on_c, 1, 63, 0
3, 313008, Note_on_c, 1, 67, 127
3, 313104, Note_on_c, 1, 67, 0
3, 313248, Note_on_c, 1, 70, 127
3, 313296, Note_on_c, 1, 70, 0
3, 313296, Note_on_c, 1, 68, 127
3, 313344, Note_on_c, 1, 68, 0
3, 313344, Note_on_c, 1, 67, 127
3, 313392, Note_on_c, 1, 67, 0
3, 313392, Note_on_c, 1, 65, 127
3, 313440, Note_on_c, 1, 65, 0
3, 313440, Note_on_c, 1, 63, 127
3, 313488, Note_on_c, 1, 63, 0
3, 313488, Note_on_c, 1, 62, 127
3, 313584, Note_on_c, 1, 62, 0
3, 313584, Note_on_c, 1, 65, 127
3, 313680, Note_on_c, 1, 65, 0
3, 313680, Note_on_c, 1, 62, 127
3, 313776, Note_on_c, 1, 62, 0
3, 313776, Note_on_c, 1, 65, 127
3, 313872, Note_on_c, 1, 65, 0
3, 314016, Note_on_c, 1, 68, 127
3, 314064, Note_on_c, 1, 68, 0
3, 314064, Note_on_c, 1, 67, 127
3, 314112, Note_on_c, 1, 67, 0
3, 314112, Note_on_c, 1, 65, 127
3, 314160, Note_on_c, 1, 65, 0
3, 314160, Note_on_c, 1, 63, 127
3, 314208, Note_on_c, 1, 63, 0
3, 314208, Note_on_c, 1, 62, 127
3, 314256, Note_on_c, 1, 62, 0
3, 314256, Note_on_c, 1, 60, 127
3, 314304, Note_on_c, 1, 60, 0
3, 314304, Note_on_c, 1, 70, 127
3, 314352, Note_on_c, 1, 70, 0
3, 314352, Note_on_c, 1, 68, 127
3, 314400, Note_on_c, 1, 68, 0
3, 314400, Note_on_c, 1, 67, 127
3, 314448, Note_on_c, 1, 67, 0
3, 314448, Note_on_c, 1, 65, 127
3, 314496, Note_on_c, 1, 65, 0
3, 314496, Note_on_c, 1, 63, 127
3, 314544, Note_on_c, 1, 63, 0
3, 314544, Note_on_c, 1, 62, 127
3, 314592, Note_on_c, 1, 62, 0
3, 314592, Note_on_c, 1, 60, 127
3, 314640, Note_on_c, 1, 60, 0
3, 314640, Note_on_c, 1, 59, 127
3, 314688, Note_on_c, 1, 59, 0
3, 314688, Note_on_c, 1, 68, 127
3, 314736, Note_on_c, 1, 68, 0
3, 314736, Note_on_c, 1, 67, 127
3, 314784, Note_on_c, 1, 67, 0
3, 314784, Note_on_c, 1, 65, 127
3, 314832, Note_on_c, 1, 65, 0
3, 314832, Note_on_c, 1, 63, 127
3, 314880, Note_on_c, 1, 63, 0
3, 314880, Note_on_c, 1, 62, 127
3, 314928, Note_on_c, 1, 62, 0
3, 314928, Note_on_c, 1, 60, 127
3, 314976, Note_on_c, 1, 60, 0
3, 314976, Note_on_c, 1, 58, 127
3, 315024, Note_on_c, 1, 58, 0
3, 325008, Note_on_c, 1, 63, 127
3, 325104, Note_on_c, 1, 63, 0
3, 325104, Note_on_c, 1, 67, 127
3, 325200, Note_on_c, 1, 67, 0
3, 325200, Note_on_c, 1, 63, 127
3, 325296, Note_on_c, 1, 63, 0
3, 325296, Note_on_c, 1, 67, 127
3, 325392, Note_on_c, 1, 67, 0
3, 325536, Note_on_c, 1, 70, 127
3, 325584, Note_on_c, 1, 70, 0
3, 325584, Note_on_c, 1, 68, 127
3, 325632, Note_on_c, 1, 68, 0
3, 325632, Note_on_c, 1, 67, 127
3, 325680, Note_on_c, 1, 67, 0
3, 325680, Note_on_c, 1, 65, 127
3, 325728, Note_on_c, 1, 65, 0
3, 325728, Note_on_c, 1, 63, 127
3, 325776, Note_on_c, 1, 63, 0
3, 325776, Note_on_c, 1, 62, 127
3, 325872, Note_on_c, 1, 62, 0
3, 325872, Note_on_c, 1, 65, 127
3, 325968, Note_on_c, 1, 65, 0
3, 325968, Note_on_c, 1, 62, 127
3, 326064, Note_on_c, 1, 62, 0
3, 326064, Note_on_c, 1, 65, 127
3, 326160, Note_on_c, 1, 65, 0
3, 326304, Note_on_c, 1, 68, 127
3, 326352, Note_on_c, 1, 68, 0
3, 326352, Note_on_c, 1, 67, 127
3, 326400, Note_on_c, 1, 67, 0
3, 326400, Note_on_c, 1, 65, 127
3, 326448, Note_on_c, 1, 65, 0
3, 326448, Note_on_c, 1, 63, 127
3, 326496, Note_on_c, 1, 63, 0
3, 326496, Note_on_c, 1, 62, 127
3, 326544, Note_on_c, 1, 62, 0
3, 326544, Note_on_c, 1, 60, 127
3, 326592, Note_on_c, 1, 60, 0
3, 326592, Note_on_c, 1, 70, 127
3, 326640, Note_on_c, 1, 70, 0
3, 326640, Note_on_c, 1, 68, 127
3, 326688, Note_on_c, 1, 68, 0
3, 326688, Note_on_c, 1, 67, 127
3, 326736, Note_on_c, 1, 67, 0
3, 326736, Note_on_c, 1, 65, 127
3, 326784, Note_on_c, 1, 65, 0
3, 326784, Note_on_c, 1, 63, 127
3, 326832, Note_on_c, 1, 63, 0
3, 326832, Note_on_c, 1, 62, 127
3, 326880, Note_on_c, 1, 62, 0
3, 326880, Note_on_c, 1, 60, 127
3, 326928, Note_on_c, 1, 60, 0
3, 326928, Note_on_c, 1, 59, 127
3, 326976, Note_on_c, 1, 59, 0
3, 326976, Note_on_c, 1, 68, 127
3, 327024, Note_on_c, 1, 68, 0
3, 327024, Note_on_c, 1, 67, 127
3, 327072, Note_on_c, 1, 67, 0
3, 327072, Note_on_c, 1, 65, 127
3, 327120, Note_on_c, 1, 65, 0
3, 327120, Note_on_c, 1, 63, 127
3, 327168, Note_on_c, 1, 63, 0
3, 327168, Note_on_c, 1, 62, 127
3, 327216, Note_on_c, 1, 62, 0
3, 327216, Note_on_c, 1, 60, 127
3, 327264, Note_on_c, 1, 60, 0
3, 327264, Note_on_c, 1, 58, 127
3, 327312, Note_on_c, 1, 58, 0
3, 336144, Note_on_c, 1, 70, 127
3, 336168, Note_on_c, 1, 70, 0
3, 336168, Note_on_c, 1, 68, 127
3, 336192, Note_on_c, 1, 68, 0
3, 336192, Note_on_c, 1, 70, 127
3, 336336, Note_on_c, 1, 70, 0
3, 336336, Note_on_c, 1, 75, 127
3, 336368, Note_on_c, 1, 75, 0
3, 336432, Note_on_c, 1, 70, 127
3, 336624, Note_on_c, 1, 70, 0
3, 336624, Note_on_c, 1, 75, 127
3, 336656, Note_on_c, 1, 75, 0
3, 336720, Note_on_c, 1, 70, 127
3, 336816, Note_on_c, 1, 70, 0
3, 336816, Note_on_c, 1, 68, 127
3, 336912, Note_on_c, 1, 68, 0
3, 336912, Note_on_c, 1, 67, 127
3, 337008, Note_on_c, 1, 67, 0
3, 337008, Note_on_c, 1, 68, 127
3, 337104, Note_on_c, 1, 68, 0
3, 337104, Note_on_c, 1, 67, 127
3, 337200, Note_on_c, 1, 67, 0
3, 337200, Note_on_c, 1, 65, 127
3, 337296, Note_on_c, 1, 65, 0
3, 337296, Note_on_c, 1, 67, 127
3, 337392, Note_on_c, 1, 67, 0
3, 337392, Note_on_c, 1, 70, 127
3, 337488, Note_on_c, 1, 70, 0
3, 337488, Note_on_c, 1, 68, 127
3, 337584, Note_on_c, 1, 68, 0
3, 337584, Note_on_c, 1, 67, 127
3, 337680, Note_on_c, 1, 67, 0
3, 337680, Note_on_c, 1, 65, 127
3, 337776, Note_on_c, 1, 65, 0
3, 337776, Note_on_c, 1, 63, 127
3, 337872, Note_on_c, 1, 63, 0
3, 337872, Note_on_c, 1, 62, 127
3, 338064, Note_on_c, 1, 62, 0
3, 338064, Note_on_c, 1, 70, 127
3, 338096, Note_on_c, 1, 70, 0
3, 338160, Note_on_c, 1, 60, 127
3, 338352, Note_on_c, 1, 60, 0
3, 338352, Note_on_c, 1, 69, 127
3, 338384, Note_on_c, 1, 69, 0
3, 338544, Note_on_c, 1, 70, 127
3, 338736, Note_on_c, 1, 70, 0
3, 338832, Note_on_c, 1, 70, 127
3, 339024, Note_on_c, 1, 70, 0
3, 339120, Note_on_c, 1, 74, 127
3, 339312, Note_on_c, 1, 74, 0
3, 339408, Note_on_c, 1, 74, 127
3, 339600, Note_on_c, 1, 74, 0
3, 344976, Note_on_c, 1, 72, 127
3, 345072, Note_on_c, 1, 72, 0
3, 345072, Note_on_c, 1, 65, 127
3, 345360, Note_on_c, 1, 65, 0
3, 346128, Note_on_c, 1, 77, 127
3, 346224, Note_on_c, 1, 77, 0
3, 346224, Note_on_c, 1, 70, 127
3, 346512, Note_on_c, 1, 70, 0
3, 350640, Note_on_c, 1, 62, 127
3, 350672, Note_on_c, 1, 62, 0
3, 350736, Note_on_c, 1, 65, 127
3, 350768, Note_on_c, 1, 65, 0
3, 350832, Note_on_c, 1, 70, 127
3, 351120, Note_on_c, 1, 70, 0
3, 351120, Note_on_c, 1, 70, 127
3, 351144, Note_on_c, 1, 70, 0
3, 351144, Note_on_c, 1, 68, 127
3, 351168, Note_on_c, 1, 68, 0
3, 351168, Note_on_c, 1, 70, 127
3, 351312, Note_on_c, 1, 70, 0
3, 351312, Note_on_c, 1, 75, 127
3, 351344, Note_on_c, 1, 75, 0
3, 351408, Note_on_c, 1, 70, 127
3, 351600, Note_on_c, 1, 70, 0
3, 351600, Note_on_c, 1, 75, 127
3, 351632, Note_on_c, 1, 75, 0
3, 351696, Note_on_c, 1, 70, 127
3, 351792, Note_on_c, 1, 70, 0
3, 351792, Note_on_c, 1, 68, 127
3, 351888, Note_on_c, 1, 68, 0
3, 351888, Note_on_c, 1, 67, 127
3, 351984, Note_on_c, 1, 67, 0
3, 351984, Note_on_c, 1, 68, 127
3, 352080, Note_on_c, 1, 68, 0
3, 352080, Note_on_c, 1, 67, 127
3, 352176, Note_on_c, 1, 67, 0
3, 352176, Note_on_c, 1, 65, 127
3, 352272, Note_on_c, 1, 65, 0
3, 352272, Note_on_c, 1, 67, 127
3, 352368, Note_on_c, 1, 67, 0
3, 352368, Note_on_c, 1, 70, 127
3, 352464, Note_on_c, 1, 70, 0
3, 352464, Note_on_c, 1, 68, 127
3, 352560, Note_on_c, 1, 68, 0
3, 352560, Note_on_c, 1, 67, 127
3, 352656, Note_on_c, 1, 67, 0
3, 352656, Note_on_c, 1, 65, 127
3, 352752, Note_on_c, 1, 65, 0
3, 352752, Note_on_c, 1, 63, 127
3, 352848, Note_on_c, 1, 63, 0
3, 352848, Note_on_c, 1, 62, 127
3, 353040, Note_on_c, 1, 62, 0
3, 353040, Note_on_c, 1, 70, 127
3, 353072, Note_on_c, 1, 70, 0
3, 353136, Note_on_c, 1, 60, 127
3, 353328, Note_on_c, 1, 60, 0
3, 353328, Note_on_c, 1, 69, 127
3, 353360, Note_on_c, 1, 69, 0
3, 353520, Note_on_c, 1, 70, 127
3, 353712, Note_on_c, 1, 70, 0
3, 353808, Note_on_c, 1, 70, 127
3, 354000, Note_on_c, 1, 70, 0
3, 354096, Note_on_c, 1, 74, 127
3, 354288, Note_on_c, 1, 74, 0
3, 354384, Note_on_c, 1, 74, 127
3, 354576, Note_on_c, 1, 74, 0
3, 359952, Note_on_c, 1, 72, 127
3, 360048, Note_on_c, 1, 72, 0
3, 360048, Note_on_c, 1, 65, 127
3, 360336, Note_on_c, 1, 65, 0
3, 361104, Note_on_c, 1, 77, 127
3, 361200, Note_on_c, 1, 77, 0
3, 361200, Note_on_c, 1, 70, 127
3, 361488, Note_on_c, 1, 70, 0
3, 365616, Note_on_c, 1, 62, 127
3, 365648, Note_on_c, 1, 62, 0
3, 365712, Note_on_c, 1, 65, 127
3, 365744, Note_on_c, 1, 65, 0
3, 365808, Note_on_c, 1, 70, 127
3, 366096, Note_on_c, 1, 70, 0
3, 373296, Note_on_c, 1, 67, 127
3, 373488, Note_on_c, 1, 67, 0
3, 373584, Note_on_c, 1, 67, 127
3, 373776, Note_on_c, 1, 67, 0
3, 373872, Note_on_c, 1, 65, 127
3, 373968, Note_on_c, 1, 65, 0
3, 373968, Note_on_c, 1, 67, 127
3, 374064, Note_on_c, 1, 67, 0
3, 374064, Note_on_c, 1, 68, 127
3, 374160, Note_on_c, 1, 68, 0
3, 374160, Note_on_c, 1, 67, 127
3, 374256, Note_on_c, 1, 67, 0
3, 374256, Note_on_c, 1, 68, 127
3, 374352, Note_on_c, 1, 68, 0
3, 374352, Note_on_c, 1, 70, 127
3, 374448, Note_on_c, 1, 70, 0
3, 374448, Note_on_c, 1, 68, 127
3, 375120, Note_on_c, 1, 68, 0
3, 375120, Note_on_c, 1, 67, 127
3, 375216, Note_on_c, 1, 67, 0
3, 375216, Note_on_c, 1, 65, 127
3, 375312, Note_on_c, 1, 65, 0
3, 375312, Note_on_c, 1, 67, 127
3, 375408, Note_on_c, 1, 67, 0
3, 375408, Note_on_c, 1, 65, 127
3, 375504, Note_on_c, 1, 65, 0
3, 375504, Note_on_c, 1, 63, 127
3, 375600, Note_on_c, 1, 63, 0
3, 375600, Note_on_c, 1, 65, 127
3, 375792, Note_on_c, 1, 65, 0
3, 375792, Note_on_c, 1, 63, 127
3, 375888, Note_on_c, 1, 63, 0
3, 375888, Note_on_c, 1, 62, 127
3, 376176, Note_on_c, 1, 62, 0
3, 393456, Note_on_c, 1, 67, 127
3, 393648, Note_on_c, 1, 67, 0
3, 393744, Note_on_c, 1, 67, 127
3, 393936, Note_on_c, 1, 67, 0
3, 394032, Note_on_c, 1, 65, 127
3, 394128, Note_on_c, 1, 65, 0
3, 394128, Note_on_c, 1, 67, 127
3, 394224, Note_on_c, 1, 67, 0
3, 394224, Note_on_c, 1, 68, 127
3, 394320, Note_on_c, 1, 68, 0
3, 394320, Note_on_c, 1, 67, 127
3, 394416, Note_on_c, 1, 67, 0
3, 394416, Note_on_c, 1, 68, 127
3, 394512, Note_on_c, 1, 68, 0
3, 394512, Note_on_c, 1, 70, 127
3, 394608, Note_on_c, 1, 70, 0
3, 394608, Note_on_c, 1, 68, 127
3, 395280, Note_on_c, 1, 68, 0
3, 395280, Note_on_c, 1, 67, 127
3, 395376, Note_on_c, 1, 67, 0
3, 395376, Note_on_c, 1, 65, 127
3, 395472, Note_on_c, 1, 65, 0
3, 395472, Note_on_c, 1, 67, 127
3, 395568, Note_on_c, 1, 67, 0
3, 395568, Note_on_c, 1, 65, 127
3, 395664, Note_on_c, 1, 65, 0
3, 395664, Note_on_c, 1, 63, 127
3, 395760, Note_on_c, 1, 63, 0
3, 395760, Note_on_c, 1, 65, 127
3, 395952, Note_on_c, 1, 65, 0
3, 395952, Note_on_c, 1, 63, 127
3, 396048, Note_on_c, 1, 63, 0
3, 396048, Note_on_c, 1, 62, 127
3, 396336, Note_on_c, 1, 62, 0
3, 406800, Note_on_c, 1, 63, 127
3, 407184, Note_on_c, 1, 63, 0
3, 407184, Note_on_c, 1, 62, 127
3, 407376, Note_on_c, 1, 62, 0
3, 407376, Note_on_c, 1, 63, 127
3, 407952, Note_on_c, 1, 63, 0
3, 407952, Note_on_c, 1, 63, 127
3, 408240, Note_on_c, 1, 63, 0
3, 408240, Note_on_c, 1, 62, 127
3, 408336, Note_on_c, 1, 62, 0
3, 408336, Note_on_c, 1, 63, 127
3, 408528, Note_on_c, 1, 63, 0
3, 408528, Note_on_c, 1, 63, 127
3, 408720, Note_on_c, 1, 63, 0
3, 408720, Note_on_c, 1, 62, 127
3, 408912, Note_on_c, 1, 62, 0
3, 408912, Note_on_c, 1, 63, 127
3, 409104, Note_on_c, 1, 63, 0
3, 409104, Note_on_c, 1, 63, 127
3, 409488, Note_on_c, 1, 63, 0
3, 409488, Note_on_c, 1, 62, 127
3, 409680, Note_on_c, 1, 62, 0
3, 409680, Note_on_c, 1, 63, 127
3, 410256, Note_on_c, 1, 63, 0
3, 410256, Note_on_c, 1, 63, 127
3, 410544, Note_on_c, 1, 63, 0
3, 410544, Note_on_c, 1, 62, 127
3, 410640, Note_on_c, 1, 62, 0
3, 410640, Note_on_c, 1, 63, 127
3, 410832, Note_on_c, 1, 63, 0
3, 410832, Note_on_c, 1, 63, 127
3, 411024, Note_on_c, 1, 63, 0
3, 411024, Note_on_c, 1, 62, 127
3, 411408, Note_on_c, 1, 62, 0
3, 411408, Note_on_c, 1, 63, 127
3, 411792, Note_on_c, 1, 63, 0
3, 411792, Note_on_c, 1, 62, 127
3, 411984, Note_on_c, 1, 62, 0
3, 411984, Note_on_c, 1, 63, 127
3, 412560, Note_on_c, 1, 63, 0
3, 412560, Note_on_c, 1, 63, 127
3, 412848, Note_on_c, 1, 63, 0
3, 412848, Note_on_c, 1, 62, 127
3, 412944, Note_on_c, 1, 62, 0
3, 412944, Note_on_c, 1, 63, 127
3, 413136, Note_on_c, 1, 63, 0
3, 413136, Note_on_c, 1, 63, 127
3, 413328, Note_on_c, 1, 63, 0
3, 413328, Note_on_c, 1, 62, 127
3, 413520, Note_on_c, 1, 62, 0
3, 413520, Note_on_c, 1, 63, 127
3, 413712, Note_on_c, 1, 63, 0
3, 413712, Note_on_c, 1, 63, 127
3, 414096, Note_on_c, 1, 63, 0
3, 414096, Note_on_c, 1, 62, 127
3, 414288, Note_on_c, 1, 62, 0
3, 414288, Note_on_c, 1, 63, 127
3, 414864, Note_on_c, 1, 63, 0
3, 414864, Note_on_c, 1, 63, 127
3, 415152, Note_on_c, 1, 63, 0
3, 415152, Note_on_c, 1, 62, 127
3, 415248, Note_on_c, 1, 62, 0
3, 415248, Note_on_c, 1, 63, 127
3, 415440, Note_on_c, 1, 63, 0
3, 415440, Note_on_c, 1, 63, 127
3, 415632, Note_on_c, 1, 63, 0
3, 415632, Note_on_c, 1, 62, 127
3, 416016, Note_on_c, 1, 62, 0
3, 416016, Note_on_c, 1, 62, 127
3, 416400, Note_on_c, 1, 62, 0
3, 416400, Note_on_c, 1, 65, 127
3, 416592, Note_on_c, 1, 65, 0
3, 416592, Note_on_c, 1, 63, 127
3, 416976, Note_on_c, 1, 63, 0
3, 416976, Note_on_c, 1, 65, 127
3, 417168, Note_on_c, 1, 65, 0
3, 417168, Note_on_c, 1, 70, 127
3, 417360, Note_on_c, 1, 70, 0
3, 417360, Note_on_c, 1, 67, 127
3, 417456, Note_on_c, 1, 67, 0
3, 417456, Note_on_c, 1, 65, 127
3, 417552, Note_on_c, 1, 65, 0
3, 417552, Note_on_c, 1, 63, 127
3, 417648, Note_on_c, 1, 63, 0
3, 417648, Note_on_c, 1, 62, 127
3, 417744, Note_on_c, 1, 62, 0
3, 417744, Note_on_c, 1, 60, 127
3, 418320, Note_on_c, 1, 60, 0
3, 418320, Note_on_c, 1, 70, 127
3, 418704, Note_on_c, 1, 70, 0
3, 418704, Note_on_c, 1, 69, 127
3, 418896, Note_on_c, 1, 69, 0
3, 418896, Note_on_c, 1, 70, 127
3, 419472, Note_on_c, 1, 70, 0
3, 419472, Note_on_c, 1, 70, 127
3, 419760, Note_on_c, 1, 70, 0
3, 419760, Note_on_c, 1, 69, 127
3, 419856, Note_on_c, 1, 69, 0
3, 419856, Note_on_c, 1, 70, 127
3, 420048, Note_on_c, 1, 70, 0
3, 420048, Note_on_c, 1, 70, 127
3, 420240, Note_on_c, 1, 70, 0
3, 420240, Note_on_c, 1, 69, 127
3, 420432, Note_on_c, 1, 69, 0
3, 420432, Note_on_c, 1, 70, 127
3, 420624, Note_on_c, 1, 70, 0
3, 420624, Note_on_c, 1, 70, 127
3, 421008, Note_on_c, 1, 70, 0
3, 421008, Note_on_c, 1, 69, 127
3, 421200, Note_on_c, 1, 69, 0
3, 421200, Note_on_c, 1, 70, 127
3, 421776, Note_on_c, 1, 70, 0
3, 421776, Note_on_c, 1, 74, 127
3, 421968, Note_on_c, 1, 74, 0
3, 421968, Note_on_c, 1, 70, 127
3, 422160, Note_on_c, 1, 70, 0
3, 422160, Note_on_c, 1, 69, 127
3, 422352, Note_on_c, 1, 69, 0
3, 422352, Note_on_c, 1, 62, 127
3, 422928, Note_on_c, 1, 62, 0
3, 422928, Note_on_c, 1, 70, 127
3, 423120, Note_on_c, 1, 70, 0
3, 423312, Note_on_c, 1, 70, 127
3, 423504, Note_on_c, 1, 70, 0
3, 423504, Note_on_c, 1, 70, 127
3, 423888, Note_on_c, 1, 70, 0
3, 423888, Note_on_c, 1, 74, 127
3, 424080, Note_on_c, 1, 74, 0
3, 424080, Note_on_c, 1, 70, 127
3, 424272, Note_on_c, 1, 70, 0
3, 424272, Note_on_c, 1, 72, 127
3, 424368, Note_on_c, 1, 72, 0
3, 424368, Note_on_c, 1, 70, 127
3, 424464, Note_on_c, 1, 70, 0
3, 424464, Note_on_c, 1, 68, 127
3, 424560, Note_on_c, 1, 68, 0
3, 424560, Note_on_c, 1, 67, 127
3, 424656, Note_on_c, 1, 67, 0
3, 424656, Note_on_c, 1, 65, 127
3, 425232, Note_on_c, 1, 65, 0
3, 425232, Note_on_c, 1, 63, 127
3, 425616, Note_on_c, 1, 63, 0
3, 425616, Note_on_c, 1, 62, 127
3, 425808, Note_on_c, 1, 62, 0
3, 425808, Note_on_c, 1, 63, 127
3, 426384, Note_on_c, 1, 63, 0
3, 426384, Note_on_c, 1, 63, 127
3, 426672, Note_on_c, 1, 63, 0
3, 426672, Note_on_c, 1, 62, 127
3, 426768, Note_on_c, 1, 62, 0
3, 426768, Note_on_c, 1, 63, 127
3, 426960, Note_on_c, 1, 63, 0
3, 426960, Note_on_c, 1, 63, 127
3, 427152, Note_on_c, 1, 63, 0
3, 427152, Note_on_c, 1, 62, 127
3, 427344, Note_on_c, 1, 62, 0
3, 427344, Note_on_c, 1, 63, 127
3, 427536, Note_on_c, 1, 63, 0
3, 427536, Note_on_c, 1, 63, 127
3, 427920, Note_on_c, 1, 63, 0
3, 427920, Note_on_c, 1, 62, 127
3, 428112, Note_on_c, 1, 62, 0
3, 428112, Note_on_c, 1, 63, 127
3, 428688, Note_on_c, 1, 63, 0
3, 428688, Note_on_c, 1, 63, 127
3, 428880, Note_on_c, 1, 63, 0
3, 428880, Note_on_c, 1, 63, 127
3, 429072, Note_on_c, 1, 63, 0
3, 429072, Note_on_c, 1, 62, 127
3, 429264, Note_on_c, 1, 62, 0
3, 429264, End_track
4, 0, Start_track
4, 0, Title_t, "Staff-2"
4, 0, Program_c, 2, 6
4, 0, Control_c, 2, 7, 127
4, 0, Control_c, 2, 10, 64
4, 13440, Note_on_c, 2, 51, 127
4, 13440, Note_on_c, 2, 55, 127
4, 13440, Note_on_c, 2, 58, 127
4, 13488, Note_on_c, 2, 58, 0
4, 13488, Note_on_c, 2, 55, 0
4, 13488, Note_on_c, 2, 51, 0
4, 15744, Note_on_c, 2, 58, 127
4, 15840, Note_on_c, 2, 58, 0
4, 15984, Note_on_c, 2, 63, 127
4, 16032, Note_on_c, 2, 63, 0
4, 16032, Note_on_c, 2, 62, 127
4, 16080, Note_on_c, 2, 62, 0
4, 16080, Note_on_c, 2, 60, 127
4, 16128, Note_on_c, 2, 60, 0
4, 16128, Note_on_c, 2, 58, 127
4, 16176, Note_on_c, 2, 58, 0
4, 16176, Note_on_c, 2, 58, 127
4, 16224, Note_on_c, 2, 58, 0
4, 16224, Note_on_c, 2, 56, 127
4, 16272, Note_on_c, 2, 56, 0
4, 16272, Note_on_c, 2, 58, 127
4, 16320, Note_on_c, 2, 58, 0
4, 16320, Note_on_c, 2, 55, 127
4, 16368, Note_on_c, 2, 55, 0
4, 16368, Note_on_c, 2, 56, 127
4, 16416, Note_on_c, 2, 56, 0
4, 16416, Note_on_c, 2, 53, 127
4, 16464, Note_on_c, 2, 53, 0
4, 16464, Note_on_c, 2, 55, 127
4, 16512, Note_on_c, 2, 55, 0
4, 16512, Note_on_c, 2, 51, 127
4, 16608, Note_on_c, 2, 51, 0
4, 16752, Note_on_c, 2, 68, 127
4, 16800, Note_on_c, 2, 68, 0
4, 16800, Note_on_c, 2, 67, 127
4, 16848, Note_on_c, 2, 67, 0
4, 16848, Note_on_c, 2, 65, 127
4, 16896, Note_on_c, 2, 65, 0
4, 16896, Note_on_c, 2, 63, 127
4, 16944, Note_on_c, 2, 63, 0
4, 16944, Note_on_c, 2, 63, 127
4, 16992, Note_on_c, 2, 63, 0
4, 16992, Note_on_c, 2, 61, 127
4, 17040, Note_on_c, 2, 61, 0
4, 17040, Note_on_c, 2, 63, 127
4, 17088, Note_on_c, 2, 63, 0
4, 17088, Note_on_c, 2, 60, 127
4, 17136, Note_on_c, 2, 60, 0
4, 17136, Note_on_c, 2, 61, 127
4, 17184, Note_on_c, 2, 61, 0
4, 17184, Note_on_c, 2, 58, 127
4, 17232, Note_on_c, 2, 58, 0
4, 17232, Note_on_c, 2, 60, 127
4, 17280, Note_on_c, 2, 60, 0
4, 17280, Note_on_c, 2, 56, 127
4, 17376, Note_on_c, 2, 56, 0
4, 17376, Note_on_c, 2, 60, 127
4, 17472, Note_on_c, 2, 60, 0
4, 17472, Note_on_c, 2, 61, 127
4, 17568, Note_on_c, 2, 61, 0
4, 17568, Note_on_c, 2, 65, 127
4, 17664, Note_on_c, 2, 65, 0
4, 17664, Note_on_c, 2, 58, 127
4, 17760, Note_on_c, 2, 58, 0
4, 17760, Note_on_c, 2, 61, 127
4, 17856, Note_on_c, 2, 61, 0
4, 17856, Note_on_c, 2, 55, 127
4, 17952, Note_on_c, 2, 55, 0
4, 17952, Note_on_c, 2, 63, 127
4, 18048, Note_on_c, 2, 63, 0
4, 18048, Note_on_c, 2, 56, 127
4, 18144, Note_on_c, 2, 56, 0
4, 18144, Note_on_c, 2, 63, 127
4, 18240, Note_on_c, 2, 63, 0
4, 18240, Note_on_c, 2, 56, 127
4, 18336, Note_on_c, 2, 56, 0
4, 18336, Note_on_c, 2, 60, 127
4, 18432, Note_on_c, 2, 60, 0
4, 18432, Note_on_c, 2, 53, 127
4, 18528, Note_on_c, 2, 53, 0
4, 18528, Note_on_c, 2, 56, 127
4, 18624, Note_on_c, 2, 56, 0
4, 18624, Note_on_c, 2, 58, 127
4, 18720, Note_on_c, 2, 58, 0
4, 18720, Note_on_c, 2, 61, 127
4, 18816, Note_on_c, 2, 61, 0
4, 18864, Note_on_c, 2, 51, 127
4, 18912, Note_on_c, 2, 51, 0
4, 18912, Note_on_c, 2, 49, 127
4, 18960, Note_on_c, 2, 49, 0
4, 18960, Note_on_c, 2, 51, 127
4, 19008, Note_on_c, 2, 51, 0
4, 19008, Note_on_c, 2, 53, 127
4, 19056, Note_on_c, 2, 53, 0
4, 19056, Note_on_c, 2, 48, 127
4, 19104, Note_on_c, 2, 48, 0
4, 19104, Note_on_c, 2, 46, 127
4, 19152, Note_on_c, 2, 46, 0
4, 19152, Note_on_c, 2, 48, 127
4, 19200, Note_on_c, 2, 48, 0
4, 19200, Note_on_c, 2, 49, 127
4, 19248, Note_on_c, 2, 49, 0
4, 19248, Note_on_c, 2, 46, 127
4, 19296, Note_on_c, 2, 46, 0
4, 19296, Note_on_c, 2, 44, 127
4, 19344, Note_on_c, 2, 44, 0
4, 19344, Note_on_c, 2, 46, 127
4, 19392, Note_on_c, 2, 46, 0
4, 19392, Note_on_c, 2, 51, 127
4, 19440, Note_on_c, 2, 51, 0
4, 19440, Note_on_c, 2, 46, 127
4, 19488, Note_on_c, 2, 46, 0
4, 19488, Note_on_c, 2, 44, 127
4, 19536, Note_on_c, 2, 44, 0
4, 19536, Note_on_c, 2, 46, 127
4, 19584, Note_on_c, 2, 46, 0
4, 19584, Note_on_c, 2, 48, 127
4, 19632, Note_on_c, 2, 48, 0
4, 19632, Note_on_c, 2, 44, 127
4, 19680, Note_on_c, 2, 44, 0
4, 19680, Note_on_c, 2, 43, 127
4, 19728, Note_on_c, 2, 43, 0
4, 19728, Note_on_c, 2, 44, 127
4, 19776, Note_on_c, 2, 44, 0
4, 19776, Note_on_c, 2, 49, 127
4, 19824, Note_on_c, 2, 49, 0
4, 19824, Note_on_c, 2, 44, 127
4, 19872, Note_on_c, 2, 44, 0
4, 19872, Note_on_c, 2, 43, 127
4, 19920, Note_on_c, 2, 43, 0
4, 19920, Note_on_c, 2, 44, 127
4, 19968, Note_on_c, 2, 44, 0
4, 19968, Note_on_c, 2, 46, 127
4, 20016, Note_on_c, 2, 46, 0
4, 20016, Note_on_c, 2, 43, 127
4, 20064, Note_on_c, 2, 43, 0
4, 20064, Note_on_c, 2, 41, 127
4, 20112, Note_on_c, 2, 41, 0
4, 20112, Note_on_c, 2, 43, 127
4, 20160, Note_on_c, 2, 43, 0
4, 20160, Note_on_c, 2, 48, 127
4, 20208, Note_on_c, 2, 48, 0
4, 20208, Note_on_c, 2, 43, 127
4, 20256, Note_on_c, 2, 43, 0
4, 20256, Note_on_c, 2, 41, 127
4, 20304, Note_on_c, 2, 41, 0
4, 20304, Note_on_c, 2, 43, 127
4, 20352, Note_on_c, 2, 43, 0
4, 20352, Note_on_c, 2, 44, 127
4, 20784, Note_on_c, 2, 44, 0
4, 20784, Note_on_c, 2, 46, 127
4, 20832, Note_on_c, 2, 46, 0
4, 20832, Note_on_c, 2, 46, 127
4, 20880, Note_on_c, 2, 46, 0
4, 20880, Note_on_c, 2, 48, 127
4, 20928, Note_on_c, 2, 48, 0
4, 20928, Note_on_c, 2, 44, 127
4, 20976, Note_on_c, 2, 44, 0
4, 20976, Note_on_c, 2, 46, 127
4, 21024, Note_on_c, 2, 46, 0
4, 21024, Note_on_c, 2, 43, 127
4, 21072, Note_on_c, 2, 43, 0
4, 21072, Note_on_c, 2, 44, 127
4, 21120, Note_on_c, 2, 44, 0
4, 21120, Note_on_c, 2, 41, 127
4, 21168, Note_on_c, 2, 41, 0
4, 21168, Note_on_c, 2, 44, 127
4, 21216, Note_on_c, 2, 44, 0
4, 21216, Note_on_c, 2, 46, 127
4, 21264, Note_on_c, 2, 46, 0
4, 21264, Note_on_c, 2, 48, 127
4, 21312, Note_on_c, 2, 48, 0
4, 21312, Note_on_c, 2, 50, 127
4, 21360, Note_on_c, 2, 50, 0
4, 21360, Note_on_c, 2, 52, 127
4, 21408, Note_on_c, 2, 52, 0
4, 21408, Note_on_c, 2, 53, 127
4, 21456, Note_on_c, 2, 53, 0
4, 21456, Note_on_c, 2, 55, 127
4, 21504, Note_on_c, 2, 55, 0
4, 21504, Note_on_c, 2, 56, 127
4, 21552, Note_on_c, 2, 56, 0
4, 21552, Note_on_c, 2, 53, 127
4, 21600, Note_on_c, 2, 53, 0
4, 21600, Note_on_c, 2, 51, 127
4, 21648, Note_on_c, 2, 51, 0
4, 21648, Note_on_c, 2, 53, 127
4, 21696, Note_on_c, 2, 53, 0
4, 21696, Note_on_c, 2, 49, 127
4, 21744, Note_on_c, 2, 49, 0
4, 21744, Note_on_c, 2, 51, 127
4, 21792, Note_on_c, 2, 51, 0
4, 21792, Note_on_c, 2, 48, 127
4, 21840, Note_on_c, 2, 48, 0
4, 21840, Note_on_c, 2, 49, 127
4, 21888, Note_on_c, 2, 49, 0
4, 21888, Note_on_c, 2, 46, 127
4, 21936, Note_on_c, 2, 46, 0
4, 21936, Note_on_c, 2, 58, 127
4, 21984, Note_on_c, 2, 58, 0
4, 21984, Note_on_c, 2, 56, 127
4, 22032, Note_on_c, 2, 56, 0
4, 22032, Note_on_c, 2, 58, 127
4, 22080, Note_on_c, 2, 58, 0
4, 22080, Note_on_c, 2, 55, 127
4, 22128, Note_on_c, 2, 55, 0
4, 22128, Note_on_c, 2, 58, 127
4, 22176, Note_on_c, 2, 58, 0
4, 22176, Note_on_c, 2, 51, 127
4, 22224, Note_on_c, 2, 51, 0
4, 22224, Note_on_c, 2, 55, 127
4, 22272, Note_on_c, 2, 55, 0
4, 22272, Note_on_c, 2, 44, 127
4, 22320, Note_on_c, 2, 44, 0
4, 22320, Note_on_c, 2, 56, 127
4, 22368, Note_on_c, 2, 56, 0
4, 22368, Note_on_c, 2, 55, 127
4, 22416, Note_on_c, 2, 55, 0
4, 22416, Note_on_c, 2, 56, 127
4, 22464, Note_on_c, 2, 56, 0
4, 22464, Note_on_c, 2, 53, 127
4, 22512, Note_on_c, 2, 53, 0
4, 22512, Note_on_c, 2, 56, 127
4, 22560, Note_on_c, 2, 56, 0
4, 22560, Note_on_c, 2, 50, 127
4, 22608, Note_on_c, 2, 50, 0
4, 22608, Note_on_c, 2, 53, 127
4, 22656, Note_on_c, 2, 53, 0
4, 22656, Note_on_c, 2, 43, 127
4, 22704, Note_on_c, 2, 43, 0
4, 22704, Note_on_c, 2, 55, 127
4, 22752, Note_on_c, 2, 55, 0
4, 22752, Note_on_c, 2, 53, 127
4, 22800, Note_on_c, 2, 53, 0
4, 22800, Note_on_c, 2, 55, 127
4, 22848, Note_on_c, 2, 55, 0
4, 22848, Note_on_c, 2, 51, 127
4, 22896, Note_on_c, 2, 51, 0
4, 22896, Note_on_c, 2, 55, 127
4, 22944, Note_on_c, 2, 55, 0
4, 22944, Note_on_c, 2, 48, 127
4, 22992, Note_on_c, 2, 48, 0
4, 22992, Note_on_c, 2, 51, 127
4, 23040, Note_on_c, 2, 51, 0
4, 23040, Note_on_c, 2, 41, 127
4, 23088, Note_on_c, 2, 41, 0
4, 23088, Note_on_c, 2, 53, 127
4, 23136, Note_on_c, 2, 53, 0
4, 23136, Note_on_c, 2, 51, 127
4, 23184, Note_on_c, 2, 51, 0
4, 23184, Note_on_c, 2, 53, 127
4, 23232, Note_on_c, 2, 53, 0
4, 23232, Note_on_c, 2, 50, 127
4, 23280, Note_on_c, 2, 50, 0
4, 23280, Note_on_c, 2, 53, 127
4, 23328, Note_on_c, 2, 53, 0
4, 23328, Note_on_c, 2, 46, 127
4, 23376, Note_on_c, 2, 46, 0
4, 23376, Note_on_c, 2, 50, 127
4, 23424, Note_on_c, 2, 50, 0
4, 23424, Note_on_c, 2, 39, 127
4, 23520, Note_on_c, 2, 39, 0
4, 23664, Note_on_c, 2, 56, 127
4, 23712, Note_on_c, 2, 56, 0
4, 23712, Note_on_c, 2, 55, 127
4, 23760, Note_on_c, 2, 55, 0
4, 23760, Note_on_c, 2, 53, 127
4, 23808, Note_on_c, 2, 53, 0
4, 23808, Note_on_c, 2, 51, 127
4, 23856, Note_on_c, 2, 51, 0
4, 23856, Note_on_c, 2, 51, 127
4, 23904, Note_on_c, 2, 51, 0
4, 23904, Note_on_c, 2, 49, 127
4, 23952, Note_on_c, 2, 49, 0
4, 23952, Note_on_c, 2, 51, 127
4, 24000, Note_on_c, 2, 51, 0
4, 24000, Note_on_c, 2, 48, 127
4, 24048, Note_on_c, 2, 48, 0
4, 24048, Note_on_c, 2, 49, 127
4, 24096, Note_on_c, 2, 49, 0
4, 24096, Note_on_c, 2, 46, 127
4, 24144, Note_on_c, 2, 46, 0
4, 24144, Note_on_c, 2, 48, 127
4, 24192, Note_on_c, 2, 48, 0
4, 24192, Note_on_c, 2, 44, 127
4, 24288, Note_on_c, 2, 44, 0
4, 24432, Note_on_c, 2, 61, 127
4, 24480, Note_on_c, 2, 61, 0
4, 24480, Note_on_c, 2, 60, 127
4, 24528, Note_on_c, 2, 60, 0
4, 24528, Note_on_c, 2, 58, 127
4, 24576, Note_on_c, 2, 58, 0
4, 24576, Note_on_c, 2, 56, 127
4, 24624, Note_on_c, 2, 56, 0
4, 24624, Note_on_c, 2, 56, 127
4, 24672, Note_on_c, 2, 56, 0
4, 24672, Note_on_c, 2, 55, 127
4, 24720, Note_on_c, 2, 55, 0
4, 24720, Note_on_c, 2, 56, 127
4, 24768, Note_on_c, 2, 56, 0
4, 24768, Note_on_c, 2, 53, 127
4, 24816, Note_on_c, 2, 53, 0
4, 24816, Note_on_c, 2, 55, 127
4, 24864, Note_on_c, 2, 55, 0
4, 24864, Note_on_c, 2, 51, 127
4, 24912, Note_on_c, 2, 51, 0
4, 24912, Note_on_c, 2, 53, 127
4, 24960, Note_on_c, 2, 53, 0
4, 24960, Note_on_c, 2, 50, 127
4, 25008, Note_on_c, 2, 53, 127
4, 25056, Note_on_c, 2, 58, 127
4, 25680, Note_on_c, 2, 58, 0
4, 25680, Note_on_c, 2, 53, 0
4, 25680, Note_on_c, 2, 50, 0
4, 25680, Note_on_c, 2, 51, 127
4, 25728, Note_on_c, 2, 55, 127
4, 25776, Note_on_c, 2, 58, 127
4, 26016, Note_on_c, 2, 58, 0
4, 26016, Note_on_c, 2, 55, 0
4, 26016, Note_on_c, 2, 51, 0
4, 26016, Note_on_c, 2, 51, 127
4, 26064, Note_on_c, 2, 57, 127
4, 26112, Note_on_c, 2, 60, 127
4, 26352, Note_on_c, 2, 60, 0
4, 26352, Note_on_c, 2, 57, 0
4, 26352, Note_on_c, 2, 51, 0
4, 26352, Note_on_c, 2, 46, 127
4, 26400, Note_on_c, 2, 53, 127
4, 26448, Note_on_c, 2, 58, 127
4, 26688, Note_on_c, 2, 58, 0
4, 26688, Note_on_c, 2, 53, 0
4, 26688, Note_on_c, 2, 46, 0
4, 26688, Note_on_c, 2, 46, 127
4, 26736, Note_on_c, 2, 53, 127
4, 26784, Note_on_c, 2, 58, 127
4, 27024, Note_on_c, 2, 58, 0
4, 27024, Note_on_c, 2, 53, 0
4, 27024, Note_on_c, 2, 46, 0
4, 27024, Note_on_c, 2, 51, 127
4, 27072, Note_on_c, 2, 55, 127
4, 27120, Note_on_c, 2, 58, 127
4, 28128, Note_on_c, 2, 58, 0
4, 28128, Note_on_c, 2, 55, 0
4, 28128, Note_on_c, 2, 51, 0
4, 28752, Note_on_c, 2, 51, 127
4, 28944, Note_on_c, 2, 51, 0
4, 29136, Note_on_c, 2, 51, 127
4, 29328, Note_on_c, 2, 51, 0
4, 29520, Note_on_c, 2, 53, 127
4, 29712, Note_on_c, 2, 53, 0
4, 29904, Note_on_c, 2, 55, 127
4, 30096, Note_on_c, 2, 55, 0
4, 30288, Note_on_c, 2, 56, 127
4, 30672, Note_on_c, 2, 56, 0
4, 30672, Note_on_c, 2, 55, 127
4, 30864, Note_on_c, 2, 55, 0
4, 30864, Note_on_c, 2, 51, 127
4, 31056, Note_on_c, 2, 51, 0
4, 31056, Note_on_c, 2, 53, 127
4, 31248, Note_on_c, 2, 53, 0
4, 31248, Note_on_c, 2, 50, 127
4, 31440, Note_on_c, 2, 50, 0
4, 31440, Note_on_c, 2, 51, 127
4, 31824, Note_on_c, 2, 51, 0
4, 31824, Note_on_c, 2, 53, 127
4, 32016, Note_on_c, 2, 53, 0
4, 32016, Note_on_c, 2, 55, 127
4, 32496, Note_on_c, 2, 55, 0
4, 32496, Note_on_c, 2, 53, 127
4, 32688, Note_on_c, 2, 53, 0
4, 32688, Note_on_c, 2, 58, 127
4, 33168, Note_on_c, 2, 58, 0
4, 36048, Note_on_c, 2, 58, 127
4, 36192, Note_on_c, 2, 58, 0
4, 36432, Note_on_c, 2, 51, 127
4, 36624, Note_on_c, 2, 51, 0
4, 36816, Note_on_c, 2, 51, 127
4, 37008, Note_on_c, 2, 51, 0
4, 37200, Note_on_c, 2, 53, 127
4, 37392, Note_on_c, 2, 53, 0
4, 37584, Note_on_c, 2, 55, 127
4, 37776, Note_on_c, 2, 55, 0
4, 37968, Note_on_c, 2, 56, 127
4, 38352, Note_on_c, 2, 56, 0
4, 38352, Note_on_c, 2, 55, 127
4, 38544, Note_on_c, 2, 55, 0
4, 38544, Note_on_c, 2, 51, 127
4, 38736, Note_on_c, 2, 51, 0
4, 38736, Note_on_c, 2, 53, 127
4, 38928, Note_on_c, 2, 53, 0
4, 38928, Note_on_c, 2, 50, 127
4, 39120, Note_on_c, 2, 50, 0
4, 39120, Note_on_c, 2, 51, 127
4, 39504, Note_on_c, 2, 51, 0
4, 39504, Note_on_c, 2, 53, 127
4, 39696, Note_on_c, 2, 53, 0
4, 39696, Note_on_c, 2, 55, 127
4, 40176, Note_on_c, 2, 55, 0
4, 40176, Note_on_c, 2, 53, 127
4, 40368, Note_on_c, 2, 53, 0
4, 40368, Note_on_c, 2, 58, 127
4, 40848, Note_on_c, 2, 58, 0
4, 43728, Note_on_c, 2, 58, 127
4, 43872, Note_on_c, 2, 58, 0
4, 45504, Note_on_c, 2, 65, 127
4, 45552, Note_on_c, 2, 65, 0
4, 45552, Note_on_c, 2, 67, 127
4, 45888, Note_on_c, 2, 67, 0
4, 46032, Note_on_c, 2, 63, 127
4, 46080, Note_on_c, 2, 63, 0
4, 46080, Note_on_c, 2, 59, 127
4, 46128, Note_on_c, 2, 59, 0
4, 46128, Note_on_c, 2, 60, 127
4, 46176, Note_on_c, 2, 60, 0
4, 46176, Note_on_c, 2, 55, 127
4, 46224, Note_on_c, 2, 55, 0
4, 46272, Note_on_c, 2, 60, 127
4, 46320, Note_on_c, 2, 60, 0
4, 46320, Note_on_c, 2, 63, 127
4, 46368, Note_on_c, 2, 63, 0
4, 46416, Note_on_c, 2, 65, 127
4, 46848, Note_on_c, 2, 65, 0
4, 46848, Note_on_c, 2, 59, 127
4, 46896, Note_on_c, 2, 59, 0
4, 46896, Note_on_c, 2, 62, 127
4, 46944, Note_on_c, 2, 62, 0
4, 46944, Note_on_c, 2, 65, 127
4, 46992, Note_on_c, 2, 65, 0
4, 46992, Note_on_c, 2, 64, 127
4, 47376, Note_on_c, 2, 64, 0
4, 47376, Note_on_c, 2, 65, 127
4, 47568, Note_on_c, 2, 65, 0
4, 51408, Note_on_c, 2, 51, 127
4, 51552, Note_on_c, 2, 51, 0
4, 53184, Note_on_c, 2, 65, 127
4, 53232, Note_on_c, 2, 65, 0
4, 53232, Note_on_c, 2, 67, 127
4, 53568, Note_on_c, 2, 67, 0
4, 53712, Note_on_c, 2, 63, 127
4, 53760, Note_on_c, 2, 63, 0
4, 53760, Note_on_c, 2, 59, 127
4, 53808, Note_on_c, 2, 59, 0
4, 53808, Note_on_c, 2, 60, 127
4, 53856, Note_on_c, 2, 60, 0
4, 53856, Note_on_c, 2, 55, 127
4, 53904, Note_on_c, 2, 55, 0
4, 53952, Note_on_c, 2, 60, 127
4, 54000, Note_on_c, 2, 60, 0
4, 54000, Note_on_c, 2, 63, 127
4, 54048, Note_on_c, 2, 63, 0
4, 54096, Note_on_c, 2, 65, 127
4, 54528, Note_on_c, 2, 65, 0
4, 54528, Note_on_c, 2, 59, 127
4, 54576, Note_on_c, 2, 59, 0
4, 54576, Note_on_c, 2, 62, 127
4, 54624, Note_on_c, 2, 62, 0
4, 54624, Note_on_c, 2, 65, 127
4, 54672, Note_on_c, 2, 65, 0
4, 54672, Note_on_c, 2, 64, 127
4, 55056, Note_on_c, 2, 64, 0
4, 55056, Note_on_c, 2, 65, 127
4, 55248, Note_on_c, 2, 65, 0
4, 59088, Note_on_c, 2, 51, 127
4, 59232, Note_on_c, 2, 51, 0
4, 60224, Note_on_c, 2, 53, 127
4, 60288, Note_on_c, 2, 53, 0
4, 60288, Note_on_c, 2, 55, 127
4, 60416, Note_on_c, 2, 55, 0
4, 60416, Note_on_c, 2, 53, 127
4, 60480, Note_on_c, 2, 53, 0
4, 60480, Note_on_c, 2, 55, 127
4, 60608, Note_on_c, 2, 55, 0
4, 60608, Note_on_c, 2, 58, 127
4, 60672, Note_on_c, 2, 58, 0
4, 60672, Note_on_c, 2, 56, 127
4, 60864, Note_on_c, 2, 56, 0
4, 69440, Note_on_c, 2, 53, 127
4, 69504, Note_on_c, 2, 53, 0
4, 69504, Note_on_c, 2, 55, 127
4, 69632, Note_on_c, 2, 55, 0
4, 69632, Note_on_c, 2, 53, 127
4, 69696, Note_on_c, 2, 53, 0
4, 69696, Note_on_c, 2, 55, 127
4, 69824, Note_on_c, 2, 55, 0
4, 69824, Note_on_c, 2, 58, 127
4, 69888, Note_on_c, 2, 58, 0
4, 69888, Note_on_c, 2, 56, 127
4, 70080, Note_on_c, 2, 56, 0
4, 89536, Note_on_c, 2, 58, 127
4, 89600, Note_on_c, 2, 58, 0
4, 89600, Note_on_c, 2, 55, 127
4, 89664, Note_on_c, 2, 55, 0
4, 89664, Note_on_c, 2, 51, 127
4, 89952, Note_on_c, 2, 51, 0
4, 101056, Note_on_c, 2, 58, 127
4, 101120, Note_on_c, 2, 58, 0
4, 101120, Note_on_c, 2, 55, 127
4, 101184, Note_on_c, 2, 55, 0
4, 101184, Note_on_c, 2, 51, 127
4, 101472, Note_on_c, 2, 51, 0
4, 106080, Note_on_c, 2, 53, 127
4, 106272, Note_on_c, 2, 58, 127
4, 106464, Note_on_c, 2, 58, 0
4, 106464, Note_on_c, 2, 53, 0
4, 110688, Note_on_c, 2, 53, 127
4, 110880, Note_on_c, 2, 58, 127
4, 111072, Note_on_c, 2, 58, 0
4, 111072, Note_on_c, 2, 53, 0
4, 115296, Note_on_c, 2, 60, 127
4, 115680, Note_on_c, 2, 60, 0
4, 115680, Note_on_c, 2, 53, 127
4, 115728, Note_on_c, 2, 53, 0
4, 115728, Note_on_c, 2, 55, 127
4, 115776, Note_on_c, 2, 55, 0
4, 115776, Note_on_c, 2, 56, 127
4, 116256, Note_on_c, 2, 56, 0
4, 116640, Note_on_c, 2, 58, 127
4, 116928, Note_on_c, 2, 58, 0
4, 116928, Note_on_c, 2, 60, 127
4, 116976, Note_on_c, 2, 60, 0
4, 116976, Note_on_c, 2, 61, 127
4, 117408, Note_on_c, 2, 61, 0
4, 119904, Note_on_c, 2, 58, 127
4, 120096, Note_on_c, 2, 63, 127
4, 120288, Note_on_c, 2, 63, 0
4, 120288, Note_on_c, 2, 58, 0
4, 124512, Note_on_c, 2, 60, 127
4, 124896, Note_on_c, 2, 60, 0
4, 124896, Note_on_c, 2, 53, 127
4, 124944, Note_on_c, 2, 53, 0
4, 124944, Note_on_c, 2, 55, 127
4, 124992, Note_on_c, 2, 55, 0
4, 124992, Note_on_c, 2, 56, 127
4, 125472, Note_on_c, 2, 56, 0
4, 125856, Note_on_c, 2, 58, 127
4, 126144, Note_on_c, 2, 58, 0
4, 126144, Note_on_c, 2, 60, 127
4, 126192, Note_on_c, 2, 60, 0
4, 126192, Note_on_c, 2, 61, 127
4, 126624, Note_on_c, 2, 61, 0
4, 129120, Note_on_c, 2, 58, 127
4, 129312, Note_on_c, 2, 63, 127
4, 129504, Note_on_c, 2, 63, 0
4, 129504, Note_on_c, 2, 58, 0
4, 406992, Note_on_c, 2, 58, 127
4, 407376, Note_on_c, 2, 58, 0
4, 408528, Note_on_c, 2, 58, 127
4, 408912, Note_on_c, 2, 58, 0
4, 409296, Note_on_c, 2, 58, 127
4, 409680, Note_on_c, 2, 58, 0
4, 410832, Note_on_c, 2, 58, 127
4, 411408, Note_on_c, 2, 58, 0
4, 411600, Note_on_c, 2, 58, 127
4, 411984, Note_on_c, 2, 58, 0
4, 413136, Note_on_c, 2, 58, 127
4, 413520, Note_on_c, 2, 58, 0
4, 413904, Note_on_c, 2, 58, 127
4, 414288, Note_on_c, 2, 58, 0
4, 415440, Note_on_c, 2, 58, 127
4, 416016, Note_on_c, 2, 58, 0
4, 418320, Note_on_c, 2, 58, 127
4, 418512, Note_on_c, 2, 58, 0
4, 418512, Note_on_c, 2, 56, 127
4, 418896, Note_on_c, 2, 56, 0
4, 420048, Note_on_c, 2, 53, 127
4, 420624, Note_on_c, 2, 53, 0
4, 420816, Note_on_c, 2, 53, 127
4, 421200, Note_on_c, 2, 53, 0
4, 421968, Note_on_c, 2, 53, 127
4, 422352, Note_on_c, 2, 53, 0
4, 422544, Note_on_c, 2, 53, 127
4, 422928, Note_on_c, 2, 53, 0
4, 423504, Note_on_c, 2, 55, 127
4, 423696, Note_on_c, 2, 55, 0
4, 423888, Note_on_c, 2, 46, 127
4, 424080, Note_on_c, 2, 46, 0
4, 424080, Note_on_c, 2, 51, 127
4, 424272, Note_on_c, 2, 51, 0
4, 424272, Note_on_c, 2, 56, 127
4, 424656, Note_on_c, 2, 56, 0
4, 424656, Note_on_c, 2, 58, 127
4, 425040, Note_on_c, 2, 58, 0
4, 425040, Note_on_c, 2, 46, 127
4, 425232, Note_on_c, 2, 46, 0
4, 425232, Note_on_c, 2, 51, 127
4, 425424, Note_on_c, 2, 51, 0
4, 425616, Note_on_c, 2, 46, 127
4, 425808, Note_on_c, 2, 46, 0
4, 426960, Note_on_c, 2, 58, 127
4, 427344, Note_on_c, 2, 58, 0
4, 427728, Note_on_c, 2, 58, 127
4, 428112, Note_on_c, 2, 58, 0
4, 429264, Note_on_c, 2, 51, 127
4, 429648, Note_on_c, 2, 51, 0
4, 429648, Note_on_c, 2, 39, 127
4, 429840, Note_on_c, 2, 39, 0
4, 429840, End_track
5, 0, Start_track
5, 0, Title_t, "Staff-3"
5, 0, Program_c, 3, 6
5, 0, Control_c, 3, 7, 127
5, 0, Control_c, 3, 10, 64
5, 0, Note_on_c, 3, 51, 127
5, 48, Note_on_c, 3, 55, 127
5, 96, Note_on_c, 3, 58, 127
5, 720, Note_on_c, 3, 58, 0
5, 720, Note_on_c, 3, 55, 0
5, 720, Note_on_c, 3, 51, 0
5, 720, Note_on_c, 3, 51, 127
5, 768, Note_on_c, 3, 55, 127
5, 816, Note_on_c, 3, 58, 127
5, 864, Note_on_c, 3, 61, 127
5, 1440, Note_on_c, 3, 61, 0
5, 1440, Note_on_c, 3, 51, 0
5, 1440, Note_on_c, 3, 55, 0
5, 1440, Note_on_c, 3, 58, 0
5, 1440, Note_on_c, 3, 51, 127
5, 1488, Note_on_c, 3, 56, 127
5, 1536, Note_on_c, 3, 60, 127
5, 2160, Note_on_c, 3, 60, 0
5, 2160, Note_on_c, 3, 56, 0
5, 2160, Note_on_c, 3, 51, 0
5, 2160, Note_on_c, 3, 51, 127
5, 2208, Note_on_c, 3, 58, 127
5, 2832, Note_on_c, 3, 58, 0
5, 2832, Note_on_c, 3, 51, 0
5, 2832, Note_on_c, 3, 51, 127
5, 2880, Note_on_c, 3, 58, 127
5, 3504, Note_on_c, 3, 58, 0
5, 3504, Note_on_c, 3, 51, 0
5, 3504, Note_on_c, 3, 44, 127
5, 3552, Note_on_c, 3, 51, 127
5, 3600, Note_on_c, 3, 56, 127
5, 4224, Note_on_c, 3, 56, 0
5, 4224, Note_on_c, 3, 51, 0
5, 4224, Note_on_c, 3, 44, 0
5, 4224, Note_on_c, 3, 44, 127
5, 4272, Note_on_c, 3, 48, 127
5, 4320, Note_on_c, 3, 51, 127
5, 4368, Note_on_c, 3, 53, 127
5, 4992, Note_on_c, 3, 53, 0
5, 4992, Note_on_c, 3, 44, 0
5, 4992, Note_on_c, 3, 48, 0
5, 4992, Note_on_c, 3, 51, 0
5, 4992, Note_on_c, 3, 44, 127
5, 5040, Note_on_c, 3, 50, 127
5, 5088, Note_on_c, 3, 53, 127
5, 5712, Note_on_c, 3, 53, 0
5, 5712, Note_on_c, 3, 50, 0
5, 5712, Note_on_c, 3, 44, 0
5, 5712, Note_on_c, 3, 43, 127
5, 5760, Note_on_c, 3, 51, 127
5, 5808, Note_on_c, 3, 55, 127
5, 6432, Note_on_c, 3, 55, 0
5, 6432, Note_on_c, 3, 51, 0
5, 6432, Note_on_c, 3, 43, 0
5, 6432, Note_on_c, 3, 48, 127
5, 6480, Note_on_c, 3, 51, 127
5, 6528, Note_on_c, 3, 55, 127
5, 7152, Note_on_c, 3, 55, 0
5, 7152, Note_on_c, 3, 51, 0
5, 7152, Note_on_c, 3, 48, 0
5, 7152, Note_on_c, 3, 41, 127
5, 7200, Note_on_c, 3, 48, 127
5, 7248, Note_on_c, 3, 53, 127
5, 7872, Note_on_c, 3, 53, 0
5, 7872, Note_on_c, 3, 48, 0
5, 7872, Note_on_c, 3, 41, 0
5, 7872, Note_on_c, 3, 46, 127
5, 7920, Note_on_c, 3, 50, 127
5, 7968, Note_on_c, 3, 53, 127
5, 8592, Note_on_c, 3, 53, 0
5, 8592, Note_on_c, 3, 50, 0
5, 8592, Note_on_c, 3, 46, 0
5, 8592, Note_on_c, 3, 46, 127
5, 8640, Note_on_c, 3, 51, 127
5, 8688, Note_on_c, 3, 55, 127
5, 9264, Note_on_c, 3, 55, 0
5, 9264, Note_on_c, 3, 51, 0
5, 9264, Note_on_c, 3, 46, 0
5, 9264, Note_on_c, 3, 46, 127
5, 9312, Note_on_c, 3, 48, 127
5, 9360, Note_on_c, 3, 51, 127
5, 9408, Note_on_c, 3, 57, 127
5, 10032, Note_on_c, 3, 57, 0
5, 10032, Note_on_c, 3, 46, 0
5, 10032, Note_on_c, 3, 48, 0
5, 10032, Note_on_c, 3, 51, 0
5, 10032, Note_on_c, 3, 46, 127
5, 10080, Note_on_c, 3, 50, 127
5, 10128, Note_on_c, 3, 53, 127
5, 10176, Note_on_c, 3, 56, 127
5, 10800, Note_on_c, 3, 56, 0
5, 10800, Note_on_c, 3, 46, 0
5, 10800, Note_on_c, 3, 50, 0
5, 10800, Note_on_c, 3, 53, 0
5, 10800, Note_on_c, 3, 46, 127
5, 10848, Note_on_c, 3, 51, 127
5, 10896, Note_on_c, 3, 55, 127
5, 10944, Note_on_c, 3, 58, 127
5, 11568, Note_on_c, 3, 58, 0
5, 11568, Note_on_c, 3, 46, 0
5, 11568, Note_on_c, 3, 51, 0
5, 11568, Note_on_c, 3, 55, 0
5, 11568, Note_on_c, 3, 45, 127
5, 11616, Note_on_c, 3, 48, 127
5, 11664, Note_on_c, 3, 51, 127
5, 11712, Note_on_c, 3, 54, 127
5, 12336, Note_on_c, 3, 54, 0
5, 12336, Note_on_c, 3, 45, 0
5, 12336, Note_on_c, 3, 48, 0
5, 12336, Note_on_c, 3, 51, 0
5, 12336, Note_on_c, 3, 46, 127
5, 12384, Note_on_c, 3, 53, 127
5, 12432, Note_on_c, 3, 58, 127
5, 13440, Note_on_c, 3, 58, 0
5, 13440, Note_on_c, 3, 53, 0
5, 13440, Note_on_c, 3, 46, 0
5, 28560, Note_on_c, 3, 39, 127
5, 28944, Note_on_c, 3, 39, 0
5, 28944, Note_on_c, 3, 39, 127
5, 29328, Note_on_c, 3, 39, 0
5, 29328, Note_on_c, 3, 41, 127
5, 29712, Note_on_c, 3, 41, 0
5, 29712, Note_on_c, 3, 43, 127
5, 30096, Note_on_c, 3, 43, 0
5, 30096, Note_on_c, 3, 44, 127
5, 30480, Note_on_c, 3, 44, 0
5, 30480, Note_on_c, 3, 46, 127
5, 31632, Note_on_c, 3, 46, 0
5, 31632, Note_on_c, 3, 48, 127
5, 31824, Note_on_c, 3, 48, 0
5, 31824, Note_on_c, 3, 50, 127
5, 32016, Note_on_c, 3, 50, 0
5, 32016, Note_on_c, 3, 51, 127
5, 32112, Note_on_c, 3, 51, 0
5, 32112, Note_on_c, 3, 50, 127
5, 32208, Note_on_c, 3, 50, 0
5, 32208, Note_on_c, 3, 48, 127
5, 32304, Note_on_c, 3, 48, 0
5, 32304, Note_on_c, 3, 46, 127
5, 32400, Note_on_c, 3, 46, 0
5, 32400, Note_on_c, 3, 44, 127
5, 32592, Note_on_c, 3, 44, 0
5, 32592, Note_on_c, 3, 46, 127
5, 32784, Note_on_c, 3, 46, 0
5, 32784, Note_on_c, 3, 51, 127
5, 32880, Note_on_c, 3, 51, 0
5, 32880, Note_on_c, 3, 53, 127
5, 32976, Note_on_c, 3, 53, 0
5, 32976, Note_on_c, 3, 55, 127
5, 33072, Note_on_c, 3, 55, 0
5, 33072, Note_on_c, 3, 56, 127
5, 33168, Note_on_c, 3, 56, 0
5, 33168, Note_on_c, 3, 58, 127
5, 33264, Note_on_c, 3, 58, 0
5, 33264, Note_on_c, 3, 57, 127
5, 33360, Note_on_c, 3, 57, 0
5, 33360, Note_on_c, 3, 59, 127
5, 33456, Note_on_c, 3, 59, 0
5, 33456, Note_on_c, 3, 55, 127
5, 33552, Note_on_c, 3, 55, 0
5, 33552, Note_on_c, 3, 60, 127
5, 33648, Note_on_c, 3, 60, 0
5, 33648, Note_on_c, 3, 48, 127
5, 33744, Note_on_c, 3, 48, 0
5, 33744, Note_on_c, 3, 51, 127
5, 33840, Note_on_c, 3, 51, 0
5, 33840, Note_on_c, 3, 53, 127
5, 33936, Note_on_c, 3, 53, 0
5, 33936, Note_on_c, 3, 55, 127
5, 34032, Note_on_c, 3, 55, 0
5, 34032, Note_on_c, 3, 53, 127
5, 34128, Note_on_c, 3, 53, 0
5, 34128, Note_on_c, 3, 55, 127
5, 34224, Note_on_c, 3, 55, 0
5, 34224, Note_on_c, 3, 51, 127
5, 34320, Note_on_c, 3, 51, 0
5, 34320, Note_on_c, 3, 56, 127
5, 34416, Note_on_c, 3, 56, 0
5, 34416, Note_on_c, 3, 55, 127
5, 34512, Note_on_c, 3, 55, 0
5, 34512, Note_on_c, 3, 53, 127
5, 34608, Note_on_c, 3, 53, 0
5, 34608, Note_on_c, 3, 51, 127
5, 34704, Note_on_c, 3, 51, 0
5, 34704, Note_on_c, 3, 50, 127
5, 34800, Note_on_c, 3, 50, 0
5, 34800, Note_on_c, 3, 48, 127
5, 34896, Note_on_c, 3, 48, 0
5, 34896, Note_on_c, 3, 50, 127
5, 34992, Note_on_c, 3, 50, 0
5, 34992, Note_on_c, 3, 46, 127
5, 35088, Note_on_c, 3, 46, 0
5, 35088, Note_on_c, 3, 51, 127
5, 35184, Note_on_c, 3, 51, 0
5, 35184, Note_on_c, 3, 50, 127
5, 35280, Note_on_c, 3, 50, 0
5, 35280, Note_on_c, 3, 48, 127
5, 35376, Note_on_c, 3, 48, 0
5, 35376, Note_on_c, 3, 46, 127
5, 35472, Note_on_c, 3, 46, 0
5, 35472, Note_on_c, 3, 45, 127
5, 35568, Note_on_c, 3, 45, 0
5, 35568, Note_on_c, 3, 46, 127
5, 35664, Note_on_c, 3, 46, 0
5, 35664, Note_on_c, 3, 51, 127
5, 35760, Note_on_c, 3, 51, 0
5, 35760, Note_on_c, 3, 53, 127
5, 35856, Note_on_c, 3, 53, 0
5, 35856, Note_on_c, 3, 46, 127
5, 36192, Note_on_c, 3, 46, 0
5, 36240, Note_on_c, 3, 39, 127
5, 36624, Note_on_c, 3, 39, 0
5, 36624, Note_on_c, 3, 39, 127
5, 37008, Note_on_c, 3, 39, 0
5, 37008, Note_on_c, 3, 41, 127
5, 37392, Note_on_c, 3, 41, 0
5, 37392, Note_on_c, 3, 43, 127
5, 37776, Note_on_c, 3, 43, 0
5, 37776, Note_on_c, 3, 44, 127
5, 38160, Note_on_c, 3, 44, 0
5, 38160, Note_on_c, 3, 46, 127
5, 39312, Note_on_c, 3, 46, 0
5, 39312, Note_on_c, 3, 48, 127
5, 39504, Note_on_c, 3, 48, 0
5, 39504, Note_on_c, 3, 50, 127
5, 39696, Note_on_c, 3, 50, 0
5, 39696, Note_on_c, 3, 51, 127
5, 39792, Note_on_c, 3, 51, 0
5, 39792, Note_on_c, 3, 50, 127
5, 39888, Note_on_c, 3, 50, 0
5, 39888, Note_on_c, 3, 48, 127
5, 39984, Note_on_c, 3, 48, 0
5, 39984, Note_on_c, 3, 46, 127
5, 40080, Note_on_c, 3, 46, 0
5, 40080, Note_on_c, 3, 44, 127
5, 40272, Note_on_c, 3, 44, 0
5, 40272, Note_on_c, 3, 46, 127
5, 40464, Note_on_c, 3, 46, 0
5, 40464, Note_on_c, 3, 51, 127
5, 40560, Note_on_c, 3, 51, 0
5, 40560, Note_on_c, 3, 53, 127
5, 40656, Note_on_c, 3, 53, 0
5, 40656, Note_on_c, 3, 55, 127
5, 40752, Note_on_c, 3, 55, 0
5, 40752, Note_on_c, 3, 56, 127
5, 40848, Note_on_c, 3, 56, 0
5, 40848, Note_on_c, 3, 58, 127
5, 40944, Note_on_c, 3, 58, 0
5, 40944, Note_on_c, 3, 57, 127
5, 41040, Note_on_c, 3, 57, 0
5, 41040, Note_on_c, 3, 59, 127
5, 41136, Note_on_c, 3, 59, 0
5, 41136, Note_on_c, 3, 55, 127
5, 41232, Note_on_c, 3, 55, 0
5, 41232, Note_on_c, 3, 60, 127
5, 41328, Note_on_c, 3, 60, 0
5, 41328, Note_on_c, 3, 48, 127
5, 41424, Note_on_c, 3, 48, 0
5, 41424, Note_on_c, 3, 51, 127
5, 41520, Note_on_c, 3, 51, 0
5, 41520, Note_on_c, 3, 53, 127
5, 41616, Note_on_c, 3, 53, 0
5, 41616, Note_on_c, 3, 55, 127
5, 41712, Note_on_c, 3, 55, 0
5, 41712, Note_on_c, 3, 53, 127
5, 41808, Note_on_c, 3, 53, 0
5, 41808, Note_on_c, 3, 55, 127
5, 41904, Note_on_c, 3, 55, 0
5, 41904, Note_on_c, 3, 51, 127
5, 42000, Note_on_c, 3, 51, 0
5, 42000, Note_on_c, 3, 56, 127
5, 42096, Note_on_c, 3, 56, 0
5, 42096, Note_on_c, 3, 55, 127
5, 42192, Note_on_c, 3, 55, 0
5, 42192, Note_on_c, 3, 53, 127
5, 42288, Note_on_c, 3, 53, 0
5, 42288, Note_on_c, 3, 51, 127
5, 42384, Note_on_c, 3, 51, 0
5, 42384, Note_on_c, 3, 50, 127
5, 42480, Note_on_c, 3, 50, 0
5, 42480, Note_on_c, 3, 48, 127
5, 42576, Note_on_c, 3, 48, 0
5, 42576, Note_on_c, 3, 50, 127
5, 42672, Note_on_c, 3, 50, 0
5, 42672, Note_on_c, 3, 46, 127
5, 42768, Note_on_c, 3, 46, 0
5, 42768, Note_on_c, 3, 51, 127
5, 42864, Note_on_c, 3, 51, 0
5, 42864, Note_on_c, 3, 50, 127
5, 42960, Note_on_c, 3, 50, 0
5, 42960, Note_on_c, 3, 48, 127
5, 43056, Note_on_c, 3, 48, 0
5, 43056, Note_on_c, 3, 46, 127
5, 43152, Note_on_c, 3, 46, 0
5, 43152, Note_on_c, 3, 45, 127
5, 43248, Note_on_c, 3, 45, 0
5, 43248, Note_on_c, 3, 46, 127
5, 43344, Note_on_c, 3, 46, 0
5, 43344, Note_on_c, 3, 51, 127
5, 43440, Note_on_c, 3, 51, 0
5, 43440, Note_on_c, 3, 53, 127
5, 43536, Note_on_c, 3, 53, 0
5, 43536, Note_on_c, 3, 46, 127
5, 43872, Note_on_c, 3, 46, 0
5, 43920, Note_on_c, 3, 58, 127
5, 44304, Note_on_c, 3, 58, 0
5, 44304, Note_on_c, 3, 58, 127
5, 44688, Note_on_c, 3, 58, 0
5, 44688, Note_on_c, 3, 58, 127
5, 45072, Note_on_c, 3, 58, 0
5, 45072, Note_on_c, 3, 58, 127
5, 45456, Note_on_c, 3, 58, 0
5, 45456, Note_on_c, 3, 59, 127
5, 45840, Note_on_c, 3, 59, 0
5, 45840, Note_on_c, 3, 60, 127
5, 46224, Note_on_c, 3, 60, 0
5, 46224, Note_on_c, 3, 56, 127
5, 46608, Note_on_c, 3, 56, 0
5, 46608, Note_on_c, 3, 55, 127
5, 47088, Note_on_c, 3, 55, 0
5, 47088, Note_on_c, 3, 58, 127
5, 47184, Note_on_c, 3, 58, 0
5, 47184, Note_on_c, 3, 56, 127
5, 47280, Note_on_c, 3, 56, 0
5, 47280, Note_on_c, 3, 55, 127
5, 47376, Note_on_c, 3, 55, 0
5, 47376, Note_on_c, 3, 53, 127
5, 47472, Note_on_c, 3, 53, 0
5, 47472, Note_on_c, 3, 51, 127
5, 47568, Note_on_c, 3, 51, 0
5, 47568, Note_on_c, 3, 50, 127
5, 47664, Note_on_c, 3, 50, 0
5, 47664, Note_on_c, 3, 48, 127
5, 47760, Note_on_c, 3, 48, 0
5, 47760, Note_on_c, 3, 53, 127
5, 47856, Note_on_c, 3, 53, 0
5, 47856, Note_on_c, 3, 51, 127
5, 47904, Note_on_c, 3, 51, 0
5, 47904, Note_on_c, 3, 53, 127
5, 47952, Note_on_c, 3, 53, 0
5, 47952, Note_on_c, 3, 55, 127
5, 48048, Note_on_c, 3, 55, 0
5, 48048, Note_on_c, 3, 43, 127
5, 48144, Note_on_c, 3, 43, 0
5, 48144, Note_on_c, 3, 48, 127
5, 48384, Note_on_c, 3, 48, 0
5, 48384, Note_on_c, 3, 55, 127
5, 48432, Note_on_c, 3, 55, 0
5, 48432, Note_on_c, 3, 51, 127
5, 48480, Note_on_c, 3, 51, 0
5, 48480, Note_on_c, 3, 48, 127
5, 48528, Note_on_c, 3, 48, 0
5, 48528, Note_on_c, 3, 43, 127
5, 48624, Note_on_c, 3, 43, 0
5, 48624, Note_on_c, 3, 41, 127
5, 48720, Note_on_c, 3, 41, 0
5, 48720, Note_on_c, 3, 43, 127
5, 48816, Note_on_c, 3, 43, 0
5, 48816, Note_on_c, 3, 39, 127
5, 48912, Note_on_c, 3, 39, 0
5, 48912, Note_on_c, 3, 44, 127
5, 49152, Note_on_c, 3, 44, 0
5, 49152, Note_on_c, 3, 44, 127
5, 49200, Note_on_c, 3, 44, 0
5, 49200, Note_on_c, 3, 43, 127
5, 49248, Note_on_c, 3, 43, 0
5, 49248, Note_on_c, 3, 41, 127
5, 49296, Note_on_c, 3, 41, 0
5, 49296, Note_on_c, 3, 40, 127
5, 49392, Note_on_c, 3, 40, 0
5, 49392, Note_on_c, 3, 38, 127
5, 49488, Note_on_c, 3, 38, 0
5, 49488, Note_on_c, 3, 40, 127
5, 49584, Note_on_c, 3, 40, 0
5, 49584, Note_on_c, 3, 36, 127
5, 49680, Note_on_c, 3, 36, 0
5, 49680, Note_on_c, 3, 41, 127
5, 49920, Note_on_c, 3, 41, 0
5, 49920, Note_on_c, 3, 43, 127
5, 49968, Note_on_c, 3, 43, 0
5, 49968, Note_on_c, 3, 41, 127
5, 50016, Note_on_c, 3, 41, 0
5, 50016, Note_on_c, 3, 39, 127
5, 50064, Note_on_c, 3, 39, 0
5, 50064, Note_on_c, 3, 38, 127
5, 50160, Note_on_c, 3, 38, 0
5, 50160, Note_on_c, 3, 46, 127
5, 50256, Note_on_c, 3, 46, 0
5, 50256, Note_on_c, 3, 51, 127
5, 50352, Note_on_c, 3, 51, 0
5, 50352, Note_on_c, 3, 37, 127
5, 50448, Note_on_c, 3, 37, 0
5, 50448, Note_on_c, 3, 36, 127
5, 50544, Note_on_c, 3, 36, 0
5, 50544, Note_on_c, 3, 48, 127
5, 50640, Note_on_c, 3, 48, 0
5, 50640, Note_on_c, 3, 50, 127
5, 50736, Note_on_c, 3, 50, 0
5, 50736, Note_on_c, 3, 44, 127
5, 50832, Note_on_c, 3, 44, 0
5, 50832, Note_on_c, 3, 43, 127
5, 50928, Note_on_c, 3, 43, 0
5, 50928, Note_on_c, 3, 48, 127
5, 51024, Note_on_c, 3, 48, 0
5, 51024, Note_on_c, 3, 44, 127
5, 51120, Note_on_c, 3, 44, 0
5, 51120, Note_on_c, 3, 46, 127
5, 51216, Note_on_c, 3, 46, 0
5, 51216, Note_on_c, 3, 39, 127
5, 51552, Note_on_c, 3, 39, 0
5, 51600, Note_on_c, 3, 58, 127
5, 51984, Note_on_c, 3, 58, 0
5, 51984, Note_on_c, 3, 58, 127
5, 52368, Note_on_c, 3, 58, 0
5, 52368, Note_on_c, 3, 58, 127
5, 52752, Note_on_c, 3, 58, 0
5, 52752, Note_on_c, 3, 58, 127
5, 53136, Note_on_c, 3, 58, 0
5, 53136, Note_on_c, 3, 59, 127
5, 53520, Note_on_c, 3, 59, 0
5, 53520, Note_on_c, 3, 60, 127
5, 53904, Note_on_c, 3, 60, 0
5, 53904, Note_on_c, 3, 56, 127
5, 54288, Note_on_c, 3, 56, 0
5, 54288, Note_on_c, 3, 55, 127
5, 54768, Note_on_c, 3, 55, 0
5, 54768, Note_on_c, 3, 58, 127
5, 54864, Note_on_c, 3, 58, 0
5, 54864, Note_on_c, 3, 56, 127
5, 54960, Note_on_c, 3, 56, 0
5, 54960, Note_on_c, 3, 55, 127
5, 55056, Note_on_c, 3, 55, 0
5, 55056, Note_on_c, 3, 53, 127
5, 55152, Note_on_c, 3, 53, 0
5, 55152, Note_on_c, 3, 51, 127
5, 55248, Note_on_c, 3, 51, 0
5, 55248, Note_on_c, 3, 50, 127
5, 55344, Note_on_c, 3, 50, 0
5, 55344, Note_on_c, 3, 48, 127
5, 55440, Note_on_c, 3, 48, 0
5, 55440, Note_on_c, 3, 53, 127
5, 55536, Note_on_c, 3, 53, 0
5, 55536, Note_on_c, 3, 51, 127
5, 55584, Note_on_c, 3, 51, 0
5, 55584, Note_on_c, 3, 53, 127
5, 55632, Note_on_c, 3, 53, 0
5, 55632, Note_on_c, 3, 55, 127
5, 55728, Note_on_c, 3, 55, 0
5, 55728, Note_on_c, 3, 43, 127
5, 55824, Note_on_c, 3, 43, 0
5, 55824, Note_on_c, 3, 48, 127
5, 56064, Note_on_c, 3, 48, 0
5, 56064, Note_on_c, 3, 55, 127
5, 56112, Note_on_c, 3, 55, 0
5, 56112, Note_on_c, 3, 51, 127
5, 56160, Note_on_c, 3, 51, 0
5, 56160, Note_on_c, 3, 48, 127
5, 56208, Note_on_c, 3, 48, 0
5, 56208, Note_on_c, 3, 43, 127
5, 56304, Note_on_c, 3, 43, 0
5, 56304, Note_on_c, 3, 41, 127
5, 56400, Note_on_c, 3, 41, 0
5, 56400, Note_on_c, 3, 43, 127
5, 56496, Note_on_c, 3, 43, 0
5, 56496, Note_on_c, 3, 39, 127
5, 56592, Note_on_c, 3, 39, 0
5, 56592, Note_on_c, 3, 44, 127
5, 56832, Note_on_c, 3, 44, 0
5, 56832, Note_on_c, 3, 44, 127
5, 56880, Note_on_c, 3, 44, 0
5, 56880, Note_on_c, 3, 43, 127
5, 56928, Note_on_c, 3, 43, 0
5, 56928, Note_on_c, 3, 41, 127
5, 56976, Note_on_c, 3, 41, 0
5, 56976, Note_on_c, 3, 40, 127
5, 57072, Note_on_c, 3, 40, 0
5, 57072, Note_on_c, 3, 38, 127
5, 57168, Note_on_c, 3, 38, 0
5, 57168, Note_on_c, 3, 40, 127
5, 57264, Note_on_c, 3, 40, 0
5, 57264, Note_on_c, 3, 36, 127
5, 57360, Note_on_c, 3, 36, 0
5, 57360, Note_on_c, 3, 41, 127
5, 57600, Note_on_c, 3, 41, 0
5, 57600, Note_on_c, 3, 43, 127
5, 57648, Note_on_c, 3, 43, 0
5, 57648, Note_on_c, 3, 41, 127
5, 57696, Note_on_c, 3, 41, 0
5, 57696, Note_on_c, 3, 39, 127
5, 57744, Note_on_c, 3, 39, 0
5, 57744, Note_on_c, 3, 38, 127
5, 57840, Note_on_c, 3, 38, 0
5, 57840, Note_on_c, 3, 46, 127
5, 57936, Note_on_c, 3, 46, 0
5, 57936, Note_on_c, 3, 51, 127
5, 58032, Note_on_c, 3, 51, 0
5, 58032, Note_on_c, 3, 37, 127
5, 58128, Note_on_c, 3, 37, 0
5, 58128, Note_on_c, 3, 36, 127
5, 58224, Note_on_c, 3, 36, 0
5, 58224, Note_on_c, 3, 48, 127
5, 58320, Note_on_c, 3, 48, 0
5, 58320, Note_on_c, 3, 50, 127
5, 58416, Note_on_c, 3, 50, 0
5, 58416, Note_on_c, 3, 44, 127
5, 58512, Note_on_c, 3, 44, 0
5, 58512, Note_on_c, 3, 43, 127
5, 58608, Note_on_c, 3, 43, 0
5, 58608, Note_on_c, 3, 48, 127
5, 58704, Note_on_c, 3, 48, 0
5, 58704, Note_on_c, 3, 44, 127
5, 58800, Note_on_c, 3, 44, 0
5, 58800, Note_on_c, 3, 46, 127
5, 58896, Note_on_c, 3, 46, 0
5, 58896, Note_on_c, 3, 39, 127
5, 59232, Note_on_c, 3, 39, 0
5, 60096, Note_on_c, 3, 51, 127
5, 60672, Note_on_c, 3, 51, 0
5, 60672, Note_on_c, 3, 51, 127
5, 60800, Note_on_c, 3, 51, 0
5, 60800, Note_on_c, 3, 51, 127
5, 60864, Note_on_c, 3, 51, 0
5, 60864, Note_on_c, 3, 53, 127
5, 60992, Note_on_c, 3, 53, 0
5, 60992, Note_on_c, 3, 51, 127
5, 61056, Note_on_c, 3, 51, 0
5, 61056, Note_on_c, 3, 53, 127
5, 61184, Note_on_c, 3, 53, 0
5, 61184, Note_on_c, 3, 56, 127
5, 61248, Note_on_c, 3, 56, 0
5, 61248, Note_on_c, 3, 55, 127
5, 61376, Note_on_c, 3, 55, 0
5, 61376, Note_on_c, 3, 58, 127
5, 61440, Note_on_c, 3, 58, 0
5, 61440, Note_on_c, 3, 63, 127
5, 61568, Note_on_c, 3, 63, 0
5, 61568, Note_on_c, 3, 55, 127
5, 61632, Note_on_c, 3, 55, 0
5, 61632, Note_on_c, 3, 56, 127
5, 61760, Note_on_c, 3, 56, 0
5, 61760, Note_on_c, 3, 44, 127
5, 61824, Note_on_c, 3, 44, 0
5, 61824, Note_on_c, 3, 51, 127
5, 61952, Note_on_c, 3, 51, 0
5, 61952, Note_on_c, 3, 46, 127
5, 62016, Note_on_c, 3, 46, 0
5, 62016, Note_on_c, 3, 43, 127
5, 62144, Note_on_c, 3, 43, 0
5, 62144, Note_on_c, 3, 39, 127
5, 62208, Note_on_c, 3, 39, 0
5, 62208, Note_on_c, 3, 43, 127
5, 62336, Note_on_c, 3, 43, 0
5, 62336, Note_on_c, 3, 46, 127
5, 62400, Note_on_c, 3, 46, 0
5, 62400, Note_on_c, 3, 51, 127
5, 62464, Note_on_c, 3, 51, 0
5, 62464, Note_on_c, 3, 50, 127
5, 62528, Note_on_c, 3, 50, 0
5, 62528, Note_on_c, 3, 48, 127
5, 62592, Note_on_c, 3, 48, 0
5, 62592, Note_on_c, 3, 47, 127
5, 62720, Note_on_c, 3, 47, 0
5, 62720, Note_on_c, 3, 50, 127
5, 62784, Note_on_c, 3, 50, 0
5, 62784, Note_on_c, 3, 43, 127
5, 62912, Note_on_c, 3, 43, 0
5, 62912, Note_on_c, 3, 47, 127
5, 62976, Note_on_c, 3, 47, 0
5, 62976, Note_on_c, 3, 48, 127
5, 63104, Note_on_c, 3, 48, 0
5, 63104, Note_on_c, 3, 43, 127
5, 63168, Note_on_c, 3, 43, 0
5, 63168, Note_on_c, 3, 36, 127
5, 63296, Note_on_c, 3, 36, 0
5, 63296, Note_on_c, 3, 48, 127
5, 63360, Note_on_c, 3, 48, 0
5, 63360, Note_on_c, 3, 50, 127
5, 63488, Note_on_c, 3, 50, 0
5, 63488, Note_on_c, 3, 51, 127
5, 63552, Note_on_c, 3, 51, 0
5, 63552, Note_on_c, 3, 50, 127
5, 63616, Note_on_c, 3, 50, 0
5, 63616, Note_on_c, 3, 48, 127
5, 63680, Note_on_c, 3, 48, 0
5, 63680, Note_on_c, 3, 46, 127
5, 63744, Note_on_c, 3, 46, 0
5, 63744, Note_on_c, 3, 46, 127
5, 63776, Note_on_c, 3, 46, 0
5, 63776, Note_on_c, 3, 45, 127
5, 63808, Note_on_c, 3, 45, 0
5, 63808, Note_on_c, 3, 46, 127
5, 63840, Note_on_c, 3, 46, 0
5, 63840, Note_on_c, 3, 45, 127
5, 63872, Note_on_c, 3, 45, 0
5, 63872, Note_on_c, 3, 48, 127
5, 63936, Note_on_c, 3, 48, 0
5, 63936, Note_on_c, 3, 41, 127
5, 64064, Note_on_c, 3, 41, 0
5, 64064, Note_on_c, 3, 45, 127
5, 64128, Note_on_c, 3, 45, 0
5, 64128, Note_on_c, 3, 46, 127
5, 64448, Note_on_c, 3, 46, 0
5, 64448, Note_on_c, 3, 50, 127
5, 64512, Note_on_c, 3, 50, 0
5, 64512, Note_on_c, 3, 53, 127
5, 64640, Note_on_c, 3, 53, 0
5, 64640, Note_on_c, 3, 58, 127
5, 64704, Note_on_c, 3, 58, 0
5, 64704, Note_on_c, 3, 51, 127
5, 65024, Note_on_c, 3, 51, 0
5, 65024, Note_on_c, 3, 53, 127
5, 65088, Note_on_c, 3, 53, 0
5, 65088, Note_on_c, 3, 53, 127
5, 65120, Note_on_c, 3, 53, 0
5, 65120, Note_on_c, 3, 51, 127
5, 65152, Note_on_c, 3, 51, 0
5, 65152, Note_on_c, 3, 53, 127
5, 65184, Note_on_c, 3, 53, 0
5, 65184, Note_on_c, 3, 51, 127
5, 65216, Note_on_c, 3, 51, 0
5, 65216, Note_on_c, 3, 50, 127
5, 65280, Note_on_c, 3, 50, 0
5, 65280, Note_on_c, 3, 48, 127
5, 65600, Note_on_c, 3, 48, 0
5, 65600, Note_on_c, 3, 46, 127
5, 65664, Note_on_c, 3, 46, 0
5, 65664, Note_on_c, 3, 46, 127
5, 65696, Note_on_c, 3, 46, 0
5, 65696, Note_on_c, 3, 45, 127
5, 65728, Note_on_c, 3, 45, 0
5, 65728, Note_on_c, 3, 46, 127
5, 65760, Note_on_c, 3, 46, 0
5, 65760, Note_on_c, 3, 45, 127
5, 65792, Note_on_c, 3, 45, 0
5, 65792, Note_on_c, 3, 43, 127
5, 65856, Note_on_c, 3, 43, 0
5, 65856, Note_on_c, 3, 41, 127
5, 65984, Note_on_c, 3, 41, 0
5, 65984, Note_on_c, 3, 48, 127
5, 66048, Note_on_c, 3, 48, 0
5, 66048, Note_on_c, 3, 53, 127
5, 66176, Note_on_c, 3, 53, 0
5, 66176, Note_on_c, 3, 55, 127
5, 66240, Note_on_c, 3, 55, 0
5, 66240, Note_on_c, 3, 58, 127
5, 66272, Note_on_c, 3, 58, 0
5, 66272, Note_on_c, 3, 57, 127
5, 66304, Note_on_c, 3, 57, 0
5, 66304, Note_on_c, 3, 58, 127
5, 66336, Note_on_c, 3, 58, 0
5, 66336, Note_on_c, 3, 57, 127
5, 66368, Note_on_c, 3, 57, 0
5, 66368, Note_on_c, 3, 53, 127
5, 66432, Note_on_c, 3, 53, 0
5, 66432, Note_on_c, 3, 58, 127
5, 66560, Note_on_c, 3, 58, 0
5, 66560, Note_on_c, 3, 55, 127
5, 66624, Note_on_c, 3, 55, 0
5, 66624, Note_on_c, 3, 51, 127
5, 66752, Note_on_c, 3, 51, 0
5, 66752, Note_on_c, 3, 48, 127
5, 66816, Note_on_c, 3, 48, 0
5, 66816, Note_on_c, 3, 53, 127
5, 66944, Note_on_c, 3, 53, 0
5, 66944, Note_on_c, 3, 41, 127
5, 67008, Note_on_c, 3, 41, 0
5, 67008, Note_on_c, 3, 46, 127
5, 67072, Note_on_c, 3, 46, 0
5, 67072, Note_on_c, 3, 50, 127
5, 67136, Note_on_c, 3, 50, 0
5, 67136, Note_on_c, 3, 53, 127
5, 67200, Note_on_c, 3, 53, 0
5, 67200, Note_on_c, 3, 58, 127
5, 67328, Note_on_c, 3, 58, 0
5, 67328, Note_on_c, 3, 48, 127
5, 67392, Note_on_c, 3, 48, 0
5, 67392, Note_on_c, 3, 50, 127
5, 67520, Note_on_c, 3, 50, 0
5, 67520, Note_on_c, 3, 46, 127
5, 67584, Note_on_c, 3, 46, 0
5, 67584, Note_on_c, 3, 51, 127
5, 67712, Note_on_c, 3, 51, 0
5, 67712, Note_on_c, 3, 48, 127
5, 67776, Note_on_c, 3, 48, 0
5, 67776, Note_on_c, 3, 53, 127
5, 67904, Note_on_c, 3, 53, 0
5, 67904, Note_on_c, 3, 50, 127
5, 67968, Note_on_c, 3, 50, 0
5, 67968, Note_on_c, 3, 55, 127
5, 68096, Note_on_c, 3, 55, 0
5, 68096, Note_on_c, 3, 51, 127
5, 68160, Note_on_c, 3, 51, 0
5, 68160, Note_on_c, 3, 57, 127
5, 68288, Note_on_c, 3, 57, 0
5, 68288, Note_on_c, 3, 53, 127
5, 68352, Note_on_c, 3, 53, 0
5, 68352, Note_on_c, 3, 58, 127
5, 68480, Note_on_c, 3, 58, 0
5, 68480, Note_on_c, 3, 51, 127
5, 68544, Note_on_c, 3, 51, 0
5, 68544, Note_on_c, 3, 53, 127
5, 68672, Note_on_c, 3, 53, 0
5, 68672, Note_on_c, 3, 41, 127
5, 68736, Note_on_c, 3, 41, 0
5, 68736, Note_on_c, 3, 46, 127
5, 68928, Note_on_c, 3, 46, 0
5, 68992, Note_on_c, 3, 53, 127
5, 69056, Note_on_c, 3, 53, 0
5, 69056, Note_on_c, 3, 50, 127
5, 69120, Note_on_c, 3, 50, 0
5, 69120, Note_on_c, 3, 46, 127
5, 69216, Note_on_c, 3, 46, 0
5, 69312, Note_on_c, 3, 51, 127
5, 69888, Note_on_c, 3, 51, 0
5, 69888, Note_on_c, 3, 51, 127
5, 70016, Note_on_c, 3, 51, 0
5, 70016, Note_on_c, 3, 51, 127
5, 70080, Note_on_c, 3, 51, 0
5, 70080, Note_on_c, 3, 53, 127
5, 70208, Note_on_c, 3, 53, 0
5, 70208, Note_on_c, 3, 51, 127
5, 70272, Note_on_c, 3, 51, 0
5, 70272, Note_on_c, 3, 53, 127
5, 70400, Note_on_c, 3, 53, 0
5, 70400, Note_on_c, 3, 56, 127
5, 70464, Note_on_c, 3, 56, 0
5, 70464, Note_on_c, 3, 55, 127
5, 70592, Note_on_c, 3, 55, 0
5, 70592, Note_on_c, 3, 58, 127
5, 70656, Note_on_c, 3, 58, 0
5, 70656, Note_on_c, 3, 63, 127
5, 70784, Note_on_c, 3, 63, 0
5, 70784, Note_on_c, 3, 55, 127
5, 70848, Note_on_c, 3, 55, 0
5, 70848, Note_on_c, 3, 56, 127
5, 70976, Note_on_c, 3, 56, 0
5, 70976, Note_on_c, 3, 44, 127
5, 71040, Note_on_c, 3, 44, 0
5, 71040, Note_on_c, 3, 51, 127
5, 71168, Note_on_c, 3, 51, 0
5, 71168, Note_on_c, 3, 46, 127
5, 71232, Note_on_c, 3, 46, 0
5, 71232, Note_on_c, 3, 43, 127
5, 71360, Note_on_c, 3, 43, 0
5, 71360, Note_on_c, 3, 39, 127
5, 71424, Note_on_c, 3, 39, 0
5, 71424, Note_on_c, 3, 43, 127
5, 71552, Note_on_c, 3, 43, 0
5, 71552, Note_on_c, 3, 46, 127
5, 71616, Note_on_c, 3, 46, 0
5, 71616, Note_on_c, 3, 51, 127
5, 71680, Note_on_c, 3, 51, 0
5, 71680, Note_on_c, 3, 50, 127
5, 71744, Note_on_c, 3, 50, 0
5, 71744, Note_on_c, 3, 48, 127
5, 71808, Note_on_c, 3, 48, 0
5, 71808, Note_on_c, 3, 47, 127
5, 71936, Note_on_c, 3, 47, 0
5, 71936, Note_on_c, 3, 50, 127
5, 72000, Note_on_c, 3, 50, 0
5, 72000, Note_on_c, 3, 43, 127
5, 72128, Note_on_c, 3, 43, 0
5, 72128, Note_on_c, 3, 47, 127
5, 72192, Note_on_c, 3, 47, 0
5, 72192, Note_on_c, 3, 48, 127
5, 72320, Note_on_c, 3, 48, 0
5, 72320, Note_on_c, 3, 43, 127
5, 72384, Note_on_c, 3, 43, 0
5, 72384, Note_on_c, 3, 36, 127
5, 72512, Note_on_c, 3, 36, 0
5, 72512, Note_on_c, 3, 48, 127
5, 72576, Note_on_c, 3, 48, 0
5, 72576, Note_on_c, 3, 50, 127
5, 72704, Note_on_c, 3, 50, 0
5, 72704, Note_on_c, 3, 51, 127
5, 72768, Note_on_c, 3, 51, 0
5, 72768, Note_on_c, 3, 50, 127
5, 72832, Note_on_c, 3, 50, 0
5, 72832, Note_on_c, 3, 48, 127
5, 72896, Note_on_c, 3, 48, 0
5, 72896, Note_on_c, 3, 46, 127
5, 72960, Note_on_c, 3, 46, 0
5, 72960, Note_on_c, 3, 46, 127
5, 72992, Note_on_c, 3, 46, 0
5, 72992, Note_on_c, 3, 45, 127
5, 73024, Note_on_c, 3, 45, 0
5, 73024, Note_on_c, 3, 46, 127
5, 73056, Note_on_c, 3, 46, 0
5, 73056, Note_on_c, 3, 45, 127
5, 73088, Note_on_c, 3, 45, 0
5, 73088, Note_on_c, 3, 48, 127
5, 73152, Note_on_c, 3, 48, 0
5, 73152, Note_on_c, 3, 41, 127
5, 73280, Note_on_c, 3, 41, 0
5, 73280, Note_on_c, 3, 45, 127
5, 73344, Note_on_c, 3, 45, 0
5, 73344, Note_on_c, 3, 46, 127
5, 73664, Note_on_c, 3, 46, 0
5, 73664, Note_on_c, 3, 50, 127
5, 73728, Note_on_c, 3, 50, 0
5, 73728, Note_on_c, 3, 53, 127
5, 73856, Note_on_c, 3, 53, 0
5, 73856, Note_on_c, 3, 58, 127
5, 73920, Note_on_c, 3, 58, 0
5, 73920, Note_on_c, 3, 51, 127
5, 74240, Note_on_c, 3, 51, 0
5, 74240, Note_on_c, 3, 53, 127
5, 74304, Note_on_c, 3, 53, 0
5, 74304, Note_on_c, 3, 53, 127
5, 74336, Note_on_c, 3, 53, 0
5, 74336, Note_on_c, 3, 51, 127
5, 74368, Note_on_c, 3, 51, 0
5, 74368, Note_on_c, 3, 53, 127
5, 74400, Note_on_c, 3, 53, 0
5, 74400, Note_on_c, 3, 51, 127
5, 74432, Note_on_c, 3, 51, 0
5, 74432, Note_on_c, 3, 50, 127
5, 74496, Note_on_c, 3, 50, 0
5, 74496, Note_on_c, 3, 48, 127
5, 74816, Note_on_c, 3, 48, 0
5, 74816, Note_on_c, 3, 46, 127
5, 74880, Note_on_c, 3, 46, 0
5, 74880, Note_on_c, 3, 46, 127
5, 74912, Note_on_c, 3, 46, 0
5, 74912, Note_on_c, 3, 45, 127
5, 74944, Note_on_c, 3, 45, 0
5, 74944, Note_on_c, 3, 46, 127
5, 74976, Note_on_c, 3, 46, 0
5, 74976, Note_on_c, 3, 45, 127
5, 75008, Note_on_c, 3, 45, 0
5, 75008, Note_on_c, 3, 43, 127
5, 75072, Note_on_c, 3, 43, 0
5, 75072, Note_on_c, 3, 41, 127
5, 75200, Note_on_c, 3, 41, 0
5, 75200, Note_on_c, 3, 48, 127
5, 75264, Note_on_c, 3, 48, 0
5, 75264, Note_on_c, 3, 53, 127
5, 75392, Note_on_c, 3, 53, 0
5, 75392, Note_on_c, 3, 55, 127
5, 75456, Note_on_c, 3, 55, 0
5, 75456, Note_on_c, 3, 58, 127
5, 75488, Note_on_c, 3, 58, 0
5, 75488, Note_on_c, 3, 57, 127
5, 75520, Note_on_c, 3, 57, 0
5, 75520, Note_on_c, 3, 58, 127
5, 75552, Note_on_c, 3, 58, 0
5, 75552, Note_on_c, 3, 57, 127
5, 75584, Note_on_c, 3, 57, 0
5, 75584, Note_on_c, 3, 53, 127
5, 75648, Note_on_c, 3, 53, 0
5, 75648, Note_on_c, 3, 58, 127
5, 75776, Note_on_c, 3, 58, 0
5, 75776, Note_on_c, 3, 55, 127
5, 75840, Note_on_c, 3, 55, 0
5, 75840, Note_on_c, 3, 51, 127
5, 75968, Note_on_c, 3, 51, 0
5, 75968, Note_on_c, 3, 48, 127
5, 76032, Note_on_c, 3, 48, 0
5, 76032, Note_on_c, 3, 53, 127
5, 76160, Note_on_c, 3, 53, 0
5, 76160, Note_on_c, 3, 41, 127
5, 76224, Note_on_c, 3, 41, 0
5, 76224, Note_on_c, 3, 46, 127
5, 76288, Note_on_c, 3, 46, 0
5, 76288, Note_on_c, 3, 50, 127
5, 76352, Note_on_c, 3, 50, 0
5, 76352, Note_on_c, 3, 53, 127
5, 76416, Note_on_c, 3, 53, 0
5, 76416, Note_on_c, 3, 58, 127
5, 76544, Note_on_c, 3, 58, 0
5, 76544, Note_on_c, 3, 48, 127
5, 76608, Note_on_c, 3, 48, 0
5, 76608, Note_on_c, 3, 50, 127
5, 76736, Note_on_c, 3, 50, 0
5, 76736, Note_on_c, 3, 46, 127
5, 76800, Note_on_c, 3, 46, 0
5, 76800, Note_on_c, 3, 51, 127
5, 76928, Note_on_c, 3, 51, 0
5, 76928, Note_on_c, 3, 48, 127
5, 76992, Note_on_c, 3, 48, 0
5, 76992, Note_on_c, 3, 53, 127
5, 77120, Note_on_c, 3, 53, 0
5, 77120, Note_on_c, 3, 50, 127
5, 77184, Note_on_c, 3, 50, 0
5, 77184, Note_on_c, 3, 55, 127
5, 77312, Note_on_c, 3, 55, 0
5, 77312, Note_on_c, 3, 51, 127
5, 77376, Note_on_c, 3, 51, 0
5, 77376, Note_on_c, 3, 57, 127
5, 77504, Note_on_c, 3, 57, 0
5, 77504, Note_on_c, 3, 53, 127
5, 77568, Note_on_c, 3, 53, 0
5, 77568, Note_on_c, 3, 58, 127
5, 77696, Note_on_c, 3, 58, 0
5, 77696, Note_on_c, 3, 51, 127
5, 77760, Note_on_c, 3, 51, 0
5, 77760, Note_on_c, 3, 53, 127
5, 77888, Note_on_c, 3, 53, 0
5, 77888, Note_on_c, 3, 41, 127
5, 77952, Note_on_c, 3, 41, 0
5, 77952, Note_on_c, 3, 46, 127
5, 78144, Note_on_c, 3, 46, 0
5, 78208, Note_on_c, 3, 53, 127
5, 78272, Note_on_c, 3, 53, 0
5, 78272, Note_on_c, 3, 50, 127
5, 78336, Note_on_c, 3, 50, 0
5, 78336, Note_on_c, 3, 46, 127
5, 78432, Note_on_c, 3, 46, 0
5, 78528, Note_on_c, 3, 46, 127
5, 78592, Note_on_c, 3, 46, 0
5, 78592, Note_on_c, 3, 50, 127
5, 78656, Note_on_c, 3, 50, 0
5, 78656, Note_on_c, 3, 53, 127
5, 78720, Note_on_c, 3, 53, 0
5, 78720, Note_on_c, 3, 58, 127
5, 78784, Note_on_c, 3, 58, 0
5, 79680, Note_on_c, 3, 63, 127
5, 79808, Note_on_c, 3, 63, 0
5, 79808, Note_on_c, 3, 60, 127
5, 79872, Note_on_c, 3, 60, 0
5, 79872, Note_on_c, 3, 56, 127
5, 80000, Note_on_c, 3, 56, 0
5, 80000, Note_on_c, 3, 53, 127
5, 80064, Note_on_c, 3, 53, 0
5, 80064, Note_on_c, 3, 55, 127
5, 80192, Note_on_c, 3, 55, 0
5, 80192, Note_on_c, 3, 43, 127
5, 80256, Note_on_c, 3, 43, 0
5, 80256, Note_on_c, 3, 48, 127
5, 80384, Note_on_c, 3, 48, 0
5, 80384, Note_on_c, 3, 43, 127
5, 80448, Note_on_c, 3, 43, 0
5, 80448, Note_on_c, 3, 39, 127
5, 80576, Note_on_c, 3, 39, 0
5, 80576, Note_on_c, 3, 36, 127
5, 80640, Note_on_c, 3, 36, 0
5, 80640, Note_on_c, 3, 39, 127
5, 80768, Note_on_c, 3, 39, 0
5, 80768, Note_on_c, 3, 43, 127
5, 80832, Note_on_c, 3, 43, 0
5, 80832, Note_on_c, 3, 48, 127
5, 80896, Note_on_c, 3, 48, 0
5, 80896, Note_on_c, 3, 46, 127
5, 80960, Note_on_c, 3, 46, 0
5, 80960, Note_on_c, 3, 44, 127
5, 81024, Note_on_c, 3, 44, 0
5, 81024, Note_on_c, 3, 43, 127
5, 81152, Note_on_c, 3, 43, 0
5, 81152, Note_on_c, 3, 46, 127
5, 81216, Note_on_c, 3, 46, 0
5, 81216, Note_on_c, 3, 39, 127
5, 81344, Note_on_c, 3, 39, 0
5, 81344, Note_on_c, 3, 43, 127
5, 81408, Note_on_c, 3, 43, 0
5, 81408, Note_on_c, 3, 44, 127
5, 81424, Note_on_c, 3, 44, 0
5, 81424, Note_on_c, 3, 43, 127
5, 81440, Note_on_c, 3, 43, 0
5, 81440, Note_on_c, 3, 44, 127
5, 81664, Note_on_c, 3, 44, 0
5, 81664, Note_on_c, 3, 46, 127
5, 81728, Note_on_c, 3, 46, 0
5, 81728, Note_on_c, 3, 48, 127
5, 81792, Note_on_c, 3, 48, 0
5, 81792, Note_on_c, 3, 48, 127
5, 81824, Note_on_c, 3, 48, 0
5, 81824, Note_on_c, 3, 46, 127
5, 81856, Note_on_c, 3, 46, 0
5, 81856, Note_on_c, 3, 48, 127
5, 81888, Note_on_c, 3, 48, 0
5, 81888, Note_on_c, 3, 46, 127
5, 81920, Note_on_c, 3, 46, 0
5, 81920, Note_on_c, 3, 44, 127
5, 81984, Note_on_c, 3, 44, 0
5, 81984, Note_on_c, 3, 43, 127
5, 82112, Note_on_c, 3, 43, 0
5, 82112, Note_on_c, 3, 41, 127
5, 82176, Note_on_c, 3, 41, 0
5, 82176, Note_on_c, 3, 40, 127
5, 82240, Note_on_c, 3, 40, 0
5, 82240, Note_on_c, 3, 41, 127
5, 82304, Note_on_c, 3, 41, 0
5, 82304, Note_on_c, 3, 43, 127
5, 82368, Note_on_c, 3, 43, 0
5, 82368, Note_on_c, 3, 36, 127
5, 82432, Note_on_c, 3, 36, 0
5, 82432, Note_on_c, 3, 38, 127
5, 82496, Note_on_c, 3, 38, 0
5, 82496, Note_on_c, 3, 40, 127
5, 82560, Note_on_c, 3, 40, 0
5, 82560, Note_on_c, 3, 41, 127
5, 82576, Note_on_c, 3, 41, 0
5, 82576, Note_on_c, 3, 39, 127
5, 82592, Note_on_c, 3, 39, 0
5, 82592, Note_on_c, 3, 41, 127
5, 82880, Note_on_c, 3, 41, 0
5, 82880, Note_on_c, 3, 53, 127
5, 82944, Note_on_c, 3, 53, 0
5, 82944, Note_on_c, 3, 45, 127
5, 83072, Note_on_c, 3, 45, 0
5, 83072, Note_on_c, 3, 53, 127
5, 83136, Note_on_c, 3, 53, 0
5, 83136, Note_on_c, 3, 46, 127
5, 83264, Note_on_c, 3, 46, 0
5, 83264, Note_on_c, 3, 48, 127
5, 83328, Note_on_c, 3, 48, 0
5, 83328, Note_on_c, 3, 49, 127
5, 83456, Note_on_c, 3, 49, 0
5, 83456, Note_on_c, 3, 48, 127
5, 83520, Note_on_c, 3, 48, 0
5, 83520, Note_on_c, 3, 46, 127
5, 83648, Note_on_c, 3, 46, 0
5, 83648, Note_on_c, 3, 44, 127
5, 83712, Note_on_c, 3, 44, 0
5, 83712, Note_on_c, 3, 43, 127
5, 83840, Note_on_c, 3, 43, 0
5, 83840, Note_on_c, 3, 56, 127
5, 83904, Note_on_c, 3, 56, 0
5, 83904, Note_on_c, 3, 55, 127
5, 84032, Note_on_c, 3, 55, 0
5, 84032, Note_on_c, 3, 53, 127
5, 84096, Note_on_c, 3, 53, 0
5, 84096, Note_on_c, 3, 52, 127
5, 84224, Note_on_c, 3, 52, 0
5, 84224, Note_on_c, 3, 48, 127
5, 84288, Note_on_c, 3, 48, 0
5, 84288, Note_on_c, 3, 56, 127
5, 84416, Note_on_c, 3, 56, 0
5, 84416, Note_on_c, 3, 53, 127
5, 84480, Note_on_c, 3, 53, 0
5, 84480, Note_on_c, 3, 58, 127
5, 84608, Note_on_c, 3, 58, 0
5, 84608, Note_on_c, 3, 61, 127
5, 84672, Note_on_c, 3, 61, 0
5, 84672, Note_on_c, 3, 60, 127
5, 84800, Note_on_c, 3, 60, 0
5, 84800, Note_on_c, 3, 48, 127
5, 84864, Note_on_c, 3, 48, 0
5, 84864, Note_on_c, 3, 53, 127
5, 84928, Note_on_c, 3, 53, 0
5, 84928, Note_on_c, 3, 48, 127
5, 84992, Note_on_c, 3, 48, 0
5, 84992, Note_on_c, 3, 44, 127
5, 85056, Note_on_c, 3, 44, 0
5, 85056, Note_on_c, 3, 41, 127
5, 85184, Note_on_c, 3, 41, 0
5, 85184, Note_on_c, 3, 48, 127
5, 85248, Note_on_c, 3, 48, 0
5, 85248, Note_on_c, 3, 53, 127
5, 85312, Note_on_c, 3, 53, 0
5, 85312, Note_on_c, 3, 55, 127
5, 85376, Note_on_c, 3, 55, 0
5, 85376, Note_on_c, 3, 56, 127
5, 85440, Note_on_c, 3, 56, 0
5, 85440, Note_on_c, 3, 58, 127
5, 85696, Note_on_c, 3, 58, 0
5, 85696, Note_on_c, 3, 53, 127
5, 85760, Note_on_c, 3, 53, 0
5, 85760, Note_on_c, 3, 50, 127
5, 85824, Note_on_c, 3, 50, 0
5, 85824, Note_on_c, 3, 46, 127
5, 85888, Note_on_c, 3, 46, 0
5, 85888, Note_on_c, 3, 48, 127
5, 85952, Note_on_c, 3, 48, 0
5, 85952, Note_on_c, 3, 50, 127
5, 86016, Note_on_c, 3, 50, 0
5, 86016, Note_on_c, 3, 51, 127
5, 86272, Note_on_c, 3, 51, 0
5, 86272, Note_on_c, 3, 46, 127
5, 86336, Note_on_c, 3, 46, 0
5, 86336, Note_on_c, 3, 43, 127
5, 86400, Note_on_c, 3, 43, 0
5, 86400, Note_on_c, 3, 39, 127
5, 86464, Note_on_c, 3, 39, 0
5, 86464, Note_on_c, 3, 41, 127
5, 86528, Note_on_c, 3, 41, 0
5, 86528, Note_on_c, 3, 43, 127
5, 86592, Note_on_c, 3, 43, 0
5, 86592, Note_on_c, 3, 44, 127
5, 86848, Note_on_c, 3, 44, 0
5, 86848, Note_on_c, 3, 43, 127
5, 86912, Note_on_c, 3, 43, 0
5, 86912, Note_on_c, 3, 41, 127
5, 86976, Note_on_c, 3, 41, 0
5, 86976, Note_on_c, 3, 44, 127
5, 87040, Note_on_c, 3, 44, 0
5, 87040, Note_on_c, 3, 43, 127
5, 87104, Note_on_c, 3, 43, 0
5, 87104, Note_on_c, 3, 41, 127
5, 87168, Note_on_c, 3, 41, 0
5, 87168, Note_on_c, 3, 46, 127
5, 87296, Note_on_c, 3, 46, 0
5, 87296, Note_on_c, 3, 60, 127
5, 87360, Note_on_c, 3, 60, 0
5, 87360, Note_on_c, 3, 58, 127
5, 87488, Note_on_c, 3, 58, 0
5, 87488, Note_on_c, 3, 56, 127
5, 87552, Note_on_c, 3, 56, 0
5, 87552, Note_on_c, 3, 55, 127
5, 87680, Note_on_c, 3, 55, 0
5, 87680, Note_on_c, 3, 53, 127
5, 87744, Note_on_c, 3, 53, 0
5, 87744, Note_on_c, 3, 53, 127
5, 87872, Note_on_c, 3, 53, 0
5, 87872, Note_on_c, 3, 51, 127
5, 88000, Note_on_c, 3, 51, 0
5, 88000, Note_on_c, 3, 49, 127
5, 88064, Note_on_c, 3, 49, 0
5, 88064, Note_on_c, 3, 48, 127
5, 88128, Note_on_c, 3, 48, 0
5, 88128, Note_on_c, 3, 46, 127
5, 88192, Note_on_c, 3, 46, 0
5, 88192, Note_on_c, 3, 44, 127
5, 88256, Note_on_c, 3, 44, 0
5, 88256, Note_on_c, 3, 43, 127
5, 88320, Note_on_c, 3, 43, 0
5, 88320, Note_on_c, 3, 44, 127
5, 88448, Note_on_c, 3, 44, 0
5, 88448, Note_on_c, 3, 41, 127
5, 88512, Note_on_c, 3, 41, 0
5, 88512, Note_on_c, 3, 46, 127
5, 88640, Note_on_c, 3, 46, 0
5, 88640, Note_on_c, 3, 43, 127
5, 88704, Note_on_c, 3, 43, 0
5, 88704, Note_on_c, 3, 48, 127
5, 88832, Note_on_c, 3, 48, 0
5, 88832, Note_on_c, 3, 44, 127
5, 88896, Note_on_c, 3, 44, 0
5, 88896, Note_on_c, 3, 50, 127
5, 89024, Note_on_c, 3, 50, 0
5, 89024, Note_on_c, 3, 46, 127
5, 89088, Note_on_c, 3, 46, 0
5, 89088, Note_on_c, 3, 51, 127
5, 89216, Note_on_c, 3, 51, 0
5, 89216, Note_on_c, 3, 44, 127
5, 89280, Note_on_c, 3, 44, 0
5, 89280, Note_on_c, 3, 46, 127
5, 89408, Note_on_c, 3, 46, 0
5, 89408, Note_on_c, 3, 46, 127
5, 89472, Note_on_c, 3, 46, 0
5, 89472, Note_on_c, 3, 51, 127
5, 89728, Note_on_c, 3, 51, 0
5, 89728, Note_on_c, 3, 46, 127
5, 89792, Note_on_c, 3, 46, 0
5, 89792, Note_on_c, 3, 43, 127
5, 89856, Note_on_c, 3, 43, 0
5, 89856, Note_on_c, 3, 39, 127
5, 89952, Note_on_c, 3, 39, 0
5, 90048, Note_on_c, 3, 46, 127
5, 90112, Note_on_c, 3, 46, 0
5, 90112, Note_on_c, 3, 50, 127
5, 90176, Note_on_c, 3, 50, 0
5, 90176, Note_on_c, 3, 53, 127
5, 90240, Note_on_c, 3, 53, 0
5, 90240, Note_on_c, 3, 58, 127
5, 90304, Note_on_c, 3, 58, 0
5, 91200, Note_on_c, 3, 63, 127
5, 91328, Note_on_c, 3, 63, 0
5, 91328, Note_on_c, 3, 60, 127
5, 91392, Note_on_c, 3, 60, 0
5, 91392, Note_on_c, 3, 56, 127
5, 91520, Note_on_c, 3, 56, 0
5, 91520, Note_on_c, 3, 53, 127
5, 91584, Note_on_c, 3, 53, 0
5, 91584, Note_on_c, 3, 55, 127
5, 91712, Note_on_c, 3, 55, 0
5, 91712, Note_on_c, 3, 43, 127
5, 91776, Note_on_c, 3, 43, 0
5, 91776, Note_on_c, 3, 48, 127
5, 91904, Note_on_c, 3, 48, 0
5, 91904, Note_on_c, 3, 43, 127
5, 91968, Note_on_c, 3, 43, 0
5, 91968, Note_on_c, 3, 39, 127
5, 92096, Note_on_c, 3, 39, 0
5, 92096, Note_on_c, 3, 36, 127
5, 92160, Note_on_c, 3, 36, 0
5, 92160, Note_on_c, 3, 39, 127
5, 92288, Note_on_c, 3, 39, 0
5, 92288, Note_on_c, 3, 43, 127
5, 92352, Note_on_c, 3, 43, 0
5, 92352, Note_on_c, 3, 48, 127
5, 92416, Note_on_c, 3, 48, 0
5, 92416, Note_on_c, 3, 46, 127
5, 92480, Note_on_c, 3, 46, 0
5, 92480, Note_on_c, 3, 44, 127
5, 92544, Note_on_c, 3, 44, 0
5, 92544, Note_on_c, 3, 43, 127
5, 92672, Note_on_c, 3, 43, 0
5, 92672, Note_on_c, 3, 46, 127
5, 92736, Note_on_c, 3, 46, 0
5, 92736, Note_on_c, 3, 39, 127
5, 92864, Note_on_c, 3, 39, 0
5, 92864, Note_on_c, 3, 43, 127
5, 92928, Note_on_c, 3, 43, 0
5, 92928, Note_on_c, 3, 44, 127
5, 92944, Note_on_c, 3, 44, 0
5, 92944, Note_on_c, 3, 43, 127
5, 92960, Note_on_c, 3, 43, 0
5, 92960, Note_on_c, 3, 44, 127
5, 93184, Note_on_c, 3, 44, 0
5, 93184, Note_on_c, 3, 46, 127
5, 93248, Note_on_c, 3, 46, 0
5, 93248, Note_on_c, 3, 48, 127
5, 93312, Note_on_c, 3, 48, 0
5, 93312, Note_on_c, 3, 48, 127
5, 93344, Note_on_c, 3, 48, 0
5, 93344, Note_on_c, 3, 46, 127
5, 93376, Note_on_c, 3, 46, 0
5, 93376, Note_on_c, 3, 48, 127
5, 93408, Note_on_c, 3, 48, 0
5, 93408, Note_on_c, 3, 46, 127
5, 93440, Note_on_c, 3, 46, 0
5, 93440, Note_on_c, 3, 44, 127
5, 93504, Note_on_c, 3, 44, 0
5, 93504, Note_on_c, 3, 43, 127
5, 93632, Note_on_c, 3, 43, 0
5, 93632, Note_on_c, 3, 41, 127
5, 93696, Note_on_c, 3, 41, 0
5, 93696, Note_on_c, 3, 40, 127
5, 93760, Note_on_c, 3, 40, 0
5, 93760, Note_on_c, 3, 41, 127
5, 93824, Note_on_c, 3, 41, 0
5, 93824, Note_on_c, 3, 43, 127
5, 93888, Note_on_c, 3, 43, 0
5, 93888, Note_on_c, 3, 36, 127
5, 93952, Note_on_c, 3, 36, 0
5, 93952, Note_on_c, 3, 38, 127
5, 94016, Note_on_c, 3, 38, 0
5, 94016, Note_on_c, 3, 40, 127
5, 94080, Note_on_c, 3, 40, 0
5, 94080, Note_on_c, 3, 41, 127
5, 94096, Note_on_c, 3, 41, 0
5, 94096, Note_on_c, 3, 39, 127
5, 94112, Note_on_c, 3, 39, 0
5, 94112, Note_on_c, 3, 41, 127
5, 94400, Note_on_c, 3, 41, 0
5, 94400, Note_on_c, 3, 53, 127
5, 94464, Note_on_c, 3, 53, 0
5, 94464, Note_on_c, 3, 45, 127
5, 94592, Note_on_c, 3, 45, 0
5, 94592, Note_on_c, 3, 53, 127
5, 94656, Note_on_c, 3, 53, 0
5, 94656, Note_on_c, 3, 46, 127
5, 94784, Note_on_c, 3, 46, 0
5, 94784, Note_on_c, 3, 48, 127
5, 94848, Note_on_c, 3, 48, 0
5, 94848, Note_on_c, 3, 49, 127
5, 94976, Note_on_c, 3, 49, 0
5, 94976, Note_on_c, 3, 48, 127
5, 95040, Note_on_c, 3, 48, 0
5, 95040, Note_on_c, 3, 46, 127
5, 95168, Note_on_c, 3, 46, 0
5, 95168, Note_on_c, 3, 44, 127
5, 95232, Note_on_c, 3, 44, 0
5, 95232, Note_on_c, 3, 43, 127
5, 95360, Note_on_c, 3, 43, 0
5, 95360, Note_on_c, 3, 56, 127
5, 95424, Note_on_c, 3, 56, 0
5, 95424, Note_on_c, 3, 55, 127
5, 95552, Note_on_c, 3, 55, 0
5, 95552, Note_on_c, 3, 53, 127
5, 95616, Note_on_c, 3, 53, 0
5, 95616, Note_on_c, 3, 52, 127
5, 95744, Note_on_c, 3, 52, 0
5, 95744, Note_on_c, 3, 48, 127
5, 95808, Note_on_c, 3, 48, 0
5, 95808, Note_on_c, 3, 56, 127
5, 95936, Note_on_c, 3, 56, 0
5, 95936, Note_on_c, 3, 53, 127
5, 96000, Note_on_c, 3, 53, 0
5, 96000, Note_on_c, 3, 58, 127
5, 96128, Note_on_c, 3, 58, 0
5, 96128, Note_on_c, 3, 61, 127
5, 96192, Note_on_c, 3, 61, 0
5, 96192, Note_on_c, 3, 60, 127
5, 96320, Note_on_c, 3, 60, 0
5, 96320, Note_on_c, 3, 48, 127
5, 96384, Note_on_c, 3, 48, 0
5, 96384, Note_on_c, 3, 53, 127
5, 96448, Note_on_c, 3, 53, 0
5, 96448, Note_on_c, 3, 48, 127
5, 96512, Note_on_c, 3, 48, 0
5, 96512, Note_on_c, 3, 44, 127
5, 96576, Note_on_c, 3, 44, 0
5, 96576, Note_on_c, 3, 41, 127
5, 96704, Note_on_c, 3, 41, 0
5, 96704, Note_on_c, 3, 48, 127
5, 96768, Note_on_c, 3, 48, 0
5, 96768, Note_on_c, 3, 53, 127
5, 96832, Note_on_c, 3, 53, 0
5, 96832, Note_on_c, 3, 55, 127
5, 96896, Note_on_c, 3, 55, 0
5, 96896, Note_on_c, 3, 56, 127
5, 96960, Note_on_c, 3, 56, 0
5, 96960, Note_on_c, 3, 58, 127
5, 97216, Note_on_c, 3, 58, 0
5, 97216, Note_on_c, 3, 53, 127
5, 97280, Note_on_c, 3, 53, 0
5, 97280, Note_on_c, 3, 50, 127
5, 97344, Note_on_c, 3, 50, 0
5, 97344, Note_on_c, 3, 46, 127
5, 97408, Note_on_c, 3, 46, 0
5, 97408, Note_on_c, 3, 48, 127
5, 97472, Note_on_c, 3, 48, 0
5, 97472, Note_on_c, 3, 50, 127
5, 97536, Note_on_c, 3, 50, 0
5, 97536, Note_on_c, 3, 51, 127
5, 97792, Note_on_c, 3, 51, 0
5, 97792, Note_on_c, 3, 46, 127
5, 97856, Note_on_c, 3, 46, 0
5, 97856, Note_on_c, 3, 43, 127
5, 97920, Note_on_c, 3, 43, 0
5, 97920, Note_on_c, 3, 39, 127
5, 97984, Note_on_c, 3, 39, 0
5, 97984, Note_on_c, 3, 41, 127
5, 98048, Note_on_c, 3, 41, 0
5, 98048, Note_on_c, 3, 43, 127
5, 98112, Note_on_c, 3, 43, 0
5, 98112, Note_on_c, 3, 44, 127
5, 98368, Note_on_c, 3, 44, 0
5, 98368, Note_on_c, 3, 43, 127
5, 98432, Note_on_c, 3, 43, 0
5, 98432, Note_on_c, 3, 41, 127
5, 98496, Note_on_c, 3, 41, 0
5, 98496, Note_on_c, 3, 44, 127
5, 98560, Note_on_c, 3, 44, 0
5, 98560, Note_on_c, 3, 43, 127
5, 98624, Note_on_c, 3, 43, 0
5, 98624, Note_on_c, 3, 41, 127
5, 98688, Note_on_c, 3, 41, 0
5, 98688, Note_on_c, 3, 46, 127
5, 98816, Note_on_c, 3, 46, 0
5, 98816, Note_on_c, 3, 60, 127
5, 98880, Note_on_c, 3, 60, 0
5, 98880, Note_on_c, 3, 58, 127
5, 99008, Note_on_c, 3, 58, 0
5, 99008, Note_on_c, 3, 56, 127
5, 99072, Note_on_c, 3, 56, 0
5, 99072, Note_on_c, 3, 55, 127
5, 99200, Note_on_c, 3, 55, 0
5, 99200, Note_on_c, 3, 53, 127
5, 99264, Note_on_c, 3, 53, 0
5, 99264, Note_on_c, 3, 53, 127
5, 99392, Note_on_c, 3, 53, 0
5, 99392, Note_on_c, 3, 51, 127
5, 99520, Note_on_c, 3, 51, 0
5, 99520, Note_on_c, 3, 49, 127
5, 99584, Note_on_c, 3, 49, 0
5, 99584, Note_on_c, 3, 48, 127
5, 99648, Note_on_c, 3, 48, 0
5, 99648, Note_on_c, 3, 46, 127
5, 99712, Note_on_c, 3, 46, 0
5, 99712, Note_on_c, 3, 44, 127
5, 99776, Note_on_c, 3, 44, 0
5, 99776, Note_on_c, 3, 43, 127
5, 99840, Note_on_c, 3, 43, 0
5, 99840, Note_on_c, 3, 44, 127
5, 99968, Note_on_c, 3, 44, 0
5, 99968, Note_on_c, 3, 41, 127
5, 100032, Note_on_c, 3, 41, 0
5, 100032, Note_on_c, 3, 46, 127
5, 100160, Note_on_c, 3, 46, 0
5, 100160, Note_on_c, 3, 43, 127
5, 100224, Note_on_c, 3, 43, 0
5, 100224, Note_on_c, 3, 48, 127
5, 100352, Note_on_c, 3, 48, 0
5, 100352, Note_on_c, 3, 44, 127
5, 100416, Note_on_c, 3, 44, 0
5, 100416, Note_on_c, 3, 50, 127
5, 100544, Note_on_c, 3, 50, 0
5, 100544, Note_on_c, 3, 46, 127
5, 100608, Note_on_c, 3, 46, 0
5, 100608, Note_on_c, 3, 51, 127
5, 100736, Note_on_c, 3, 51, 0
5, 100736, Note_on_c, 3, 44, 127
5, 100800, Note_on_c, 3, 44, 0
5, 100800, Note_on_c, 3, 46, 127
5, 100928, Note_on_c, 3, 46, 0
5, 100928, Note_on_c, 3, 46, 127
5, 100992, Note_on_c, 3, 46, 0
5, 100992, Note_on_c, 3, 51, 127
5, 101248, Note_on_c, 3, 51, 0
5, 101248, Note_on_c, 3, 46, 127
5, 101312, Note_on_c, 3, 46, 0
5, 101312, Note_on_c, 3, 43, 127
5, 101376, Note_on_c, 3, 43, 0
5, 101376, Note_on_c, 3, 39, 127
5, 101472, Note_on_c, 3, 39, 0
5, 101856, Note_on_c, 3, 51, 127
5, 101952, Note_on_c, 3, 51, 0
5, 101952, Note_on_c, 3, 63, 127
5, 102048, Note_on_c, 3, 63, 0
5, 102048, Note_on_c, 3, 61, 127
5, 102144, Note_on_c, 3, 61, 0
5, 102144, Note_on_c, 3, 60, 127
5, 102240, Note_on_c, 3, 60, 0
5, 102240, Note_on_c, 3, 58, 127
5, 102336, Note_on_c, 3, 58, 0
5, 102336, Note_on_c, 3, 56, 127
5, 102432, Note_on_c, 3, 56, 0
5, 102432, Note_on_c, 3, 55, 127
5, 102528, Note_on_c, 3, 55, 0
5, 102528, Note_on_c, 3, 53, 127
5, 102624, Note_on_c, 3, 53, 0
5, 102624, Note_on_c, 3, 51, 127
5, 102720, Note_on_c, 3, 51, 0
5, 102720, Note_on_c, 3, 49, 127
5, 102816, Note_on_c, 3, 49, 0
5, 102816, Note_on_c, 3, 48, 127
5, 102912, Note_on_c, 3, 48, 0
5, 102912, Note_on_c, 3, 46, 127
5, 103008, Note_on_c, 3, 46, 0
5, 103008, Note_on_c, 3, 44, 127
5, 103104, Note_on_c, 3, 44, 0
5, 103104, Note_on_c, 3, 46, 127
5, 103152, Note_on_c, 3, 46, 0
5, 103152, Note_on_c, 3, 48, 127
5, 103200, Note_on_c, 3, 48, 0
5, 103200, Note_on_c, 3, 48, 127
5, 103200, Note_on_c, 3, 56, 127
5, 103584, Note_on_c, 3, 56, 0
5, 103584, Note_on_c, 3, 48, 0
5, 103584, Note_on_c, 3, 46, 127
5, 103680, Note_on_c, 3, 46, 0
5, 103680, Note_on_c, 3, 48, 127
5, 103728, Note_on_c, 3, 48, 0
5, 103728, Note_on_c, 3, 50, 127
5, 103776, Note_on_c, 3, 50, 0
5, 103776, Note_on_c, 3, 50, 127
5, 103800, Note_on_c, 3, 53, 127
5, 103824, Note_on_c, 3, 58, 127
5, 104160, Note_on_c, 3, 58, 0
5, 104160, Note_on_c, 3, 53, 0
5, 104160, Note_on_c, 3, 50, 0
5, 104160, Note_on_c, 3, 51, 127
5, 104256, Note_on_c, 3, 51, 0
5, 104256, Note_on_c, 3, 53, 127
5, 104352, Note_on_c, 3, 53, 0
5, 104352, Note_on_c, 3, 51, 127
5, 104448, Note_on_c, 3, 51, 0
5, 104448, Note_on_c, 3, 50, 127
5, 104544, Note_on_c, 3, 50, 0
5, 104544, Note_on_c, 3, 48, 127
5, 104640, Note_on_c, 3, 48, 0
5, 104640, Note_on_c, 3, 46, 127
5, 104736, Note_on_c, 3, 46, 0
5, 104736, Note_on_c, 3, 45, 127
5, 104832, Note_on_c, 3, 45, 0
5, 104832, Note_on_c, 3, 43, 127
5, 104928, Note_on_c, 3, 43, 0
5, 104928, Note_on_c, 3, 45, 127
5, 105024, Note_on_c, 3, 45, 0
5, 105024, Note_on_c, 3, 41, 127
5, 105120, Note_on_c, 3, 41, 0
5, 105120, Note_on_c, 3, 43, 127
5, 105216, Note_on_c, 3, 43, 0
5, 105216, Note_on_c, 3, 45, 127
5, 105312, Note_on_c, 3, 45, 0
5, 105312, Note_on_c, 3, 46, 127
5, 105408, Note_on_c, 3, 46, 0
5, 105408, Note_on_c, 3, 50, 127
5, 105504, Note_on_c, 3, 50, 0
5, 105504, Note_on_c, 3, 51, 127
5, 105600, Note_on_c, 3, 51, 0
5, 105600, Note_on_c, 3, 48, 127
5, 105696, Note_on_c, 3, 48, 0
5, 105696, Note_on_c, 3, 53, 127
5, 105792, Note_on_c, 3, 53, 0
5, 105792, Note_on_c, 3, 41, 127
5, 105888, Note_on_c, 3, 41, 0
5, 105888, Note_on_c, 3, 46, 127
5, 106464, Note_on_c, 3, 46, 0
5, 106464, Note_on_c, 3, 51, 127
5, 106560, Note_on_c, 3, 51, 0
5, 106560, Note_on_c, 3, 63, 127
5, 106656, Note_on_c, 3, 63, 0
5, 106656, Note_on_c, 3, 61, 127
5, 106752, Note_on_c, 3, 61, 0
5, 106752, Note_on_c, 3, 60, 127
5, 106848, Note_on_c, 3, 60, 0
5, 106848, Note_on_c, 3, 58, 127
5, 106944, Note_on_c, 3, 58, 0
5, 106944, Note_on_c, 3, 56, 127
5, 107040, Note_on_c, 3, 56, 0
5, 107040, Note_on_c, 3, 55, 127
5, 107136, Note_on_c, 3, 55, 0
5, 107136, Note_on_c, 3, 53, 127
5, 107232, Note_on_c, 3, 53, 0
5, 107232, Note_on_c, 3, 51, 127
5, 107328, Note_on_c, 3, 51, 0
5, 107328, Note_on_c, 3, 49, 127
5, 107424, Note_on_c, 3, 49, 0
5, 107424, Note_on_c, 3, 48, 127
5, 107520, Note_on_c, 3, 48, 0
5, 107520, Note_on_c, 3, 46, 127
5, 107616, Note_on_c, 3, 46, 0
5, 107616, Note_on_c, 3, 44, 127
5, 107712, Note_on_c, 3, 44, 0
5, 107712, Note_on_c, 3, 46, 127
5, 107760, Note_on_c, 3, 46, 0
5, 107760, Note_on_c, 3, 48, 127
5, 107808, Note_on_c, 3, 48, 0
5, 107808, Note_on_c, 3, 48, 127
5, 107808, Note_on_c, 3, 56, 127
5, 108192, Note_on_c, 3, 56, 0
5, 108192, Note_on_c, 3, 48, 0
5, 108192, Note_on_c, 3, 46, 127
5, 108288, Note_on_c, 3, 46, 0
5, 108288, Note_on_c, 3, 48, 127
5, 108336, Note_on_c, 3, 48, 0
5, 108336, Note_on_c, 3, 50, 127
5, 108384, Note_on_c, 3, 50, 0
5, 108384, Note_on_c, 3, 50, 127
5, 108408, Note_on_c, 3, 53, 127
5, 108432, Note_on_c, 3, 58, 127
5, 108768, Note_on_c, 3, 58, 0
5, 108768, Note_on_c, 3, 53, 0
5, 108768, Note_on_c, 3, 50, 0
5, 108768, Note_on_c, 3, 51, 127
5, 108864, Note_on_c, 3, 51, 0
5, 108864, Note_on_c, 3, 53, 127
5, 108960, Note_on_c, 3, 53, 0
5, 108960, Note_on_c, 3, 51, 127
5, 109056, Note_on_c, 3, 51, 0
5, 109056, Note_on_c, 3, 50, 127
5, 109152, Note_on_c, 3, 50, 0
5, 109152, Note_on_c, 3, 48, 127
5, 109248, Note_on_c, 3, 48, 0
5, 109248, Note_on_c, 3, 46, 127
5, 109344, Note_on_c, 3, 46, 0
5, 109344, Note_on_c, 3, 45, 127
5, 109440, Note_on_c, 3, 45, 0
5, 109440, Note_on_c, 3, 43, 127
5, 109536, Note_on_c, 3, 43, 0
5, 109536, Note_on_c, 3, 45, 127
5, 109632, Note_on_c, 3, 45, 0
5, 109632, Note_on_c, 3, 41, 127
5, 109728, Note_on_c, 3, 41, 0
5, 109728, Note_on_c, 3, 43, 127
5, 109824, Note_on_c, 3, 43, 0
5, 109824, Note_on_c, 3, 45, 127
5, 109920, Note_on_c, 3, 45, 0
5, 109920, Note_on_c, 3, 46, 127
5, 110016, Note_on_c, 3, 46, 0
5, 110016, Note_on_c, 3, 50, 127
5, 110112, Note_on_c, 3, 50, 0
5, 110112, Note_on_c, 3, 51, 127
5, 110208, Note_on_c, 3, 51, 0
5, 110208, Note_on_c, 3, 48, 127
5, 110304, Note_on_c, 3, 48, 0
5, 110304, Note_on_c, 3, 53, 127
5, 110400, Note_on_c, 3, 53, 0
5, 110400, Note_on_c, 3, 41, 127
5, 110496, Note_on_c, 3, 41, 0
5, 110496, Note_on_c, 3, 46, 127
5, 111072, Note_on_c, 3, 46, 0
5, 111072, Note_on_c, 3, 58, 127
5, 111168, Note_on_c, 3, 58, 0
5, 111168, Note_on_c, 3, 46, 127
5, 111264, Note_on_c, 3, 46, 0
5, 111264, Note_on_c, 3, 48, 127
5, 111360, Note_on_c, 3, 48, 0
5, 111360, Note_on_c, 3, 50, 127
5, 111456, Note_on_c, 3, 50, 0
5, 111456, Note_on_c, 3, 51, 127
5, 111552, Note_on_c, 3, 51, 0
5, 111552, Note_on_c, 3, 53, 127
5, 111648, Note_on_c, 3, 53, 0
5, 111648, Note_on_c, 3, 55, 127
5, 111744, Note_on_c, 3, 55, 0
5, 111744, Note_on_c, 3, 56, 127
5, 111840, Note_on_c, 3, 56, 0
5, 111840, Note_on_c, 3, 58, 127
5, 111936, Note_on_c, 3, 58, 0
5, 111936, Note_on_c, 3, 61, 127
5, 112032, Note_on_c, 3, 61, 0
5, 112032, Note_on_c, 3, 60, 127
5, 112128, Note_on_c, 3, 60, 0
5, 112128, Note_on_c, 3, 58, 127
5, 112224, Note_on_c, 3, 58, 0
5, 112224, Note_on_c, 3, 56, 127
5, 112320, Note_on_c, 3, 56, 0
5, 112320, Note_on_c, 3, 53, 127
5, 112416, Note_on_c, 3, 53, 0
5, 112416, Note_on_c, 3, 61, 127
5, 112512, Note_on_c, 3, 61, 0
5, 112512, Note_on_c, 3, 60, 127
5, 112608, Note_on_c, 3, 60, 0
5, 112608, Note_on_c, 3, 58, 127
5, 112704, Note_on_c, 3, 58, 0
5, 112704, Note_on_c, 3, 61, 127
5, 112800, Note_on_c, 3, 61, 0
5, 112800, Note_on_c, 3, 60, 127
5, 112896, Note_on_c, 3, 60, 0
5, 112896, Note_on_c, 3, 61, 127
5, 112992, Note_on_c, 3, 61, 0
5, 112992, Note_on_c, 3, 60, 127
5, 113088, Note_on_c, 3, 60, 0
5, 113088, Note_on_c, 3, 58, 127
5, 113184, Note_on_c, 3, 58, 0
5, 113184, Note_on_c, 3, 56, 127
5, 113280, Note_on_c, 3, 56, 0
5, 113280, Note_on_c, 3, 55, 127
5, 113376, Note_on_c, 3, 55, 0
5, 113376, Note_on_c, 3, 53, 127
5, 113424, Note_on_c, 3, 53, 0
5, 113424, Note_on_c, 3, 55, 127
5, 113472, Note_on_c, 3, 55, 0
5, 113472, Note_on_c, 3, 56, 127
5, 113568, Note_on_c, 3, 56, 0
5, 113568, Note_on_c, 3, 49, 127
5, 113952, Note_on_c, 3, 49, 0
5, 113952, Note_on_c, 3, 55, 127
5, 114000, Note_on_c, 3, 55, 0
5, 114000, Note_on_c, 3, 56, 127
5, 114048, Note_on_c, 3, 56, 0
5, 114048, Note_on_c, 3, 58, 127
5, 114144, Note_on_c, 3, 58, 0
5, 114144, Note_on_c, 3, 58, 127
5, 114528, Note_on_c, 3, 58, 0
5, 114528, Note_on_c, 3, 56, 127
5, 114624, Note_on_c, 3, 56, 0
5, 114624, Note_on_c, 3, 53, 127
5, 114720, Note_on_c, 3, 53, 0
5, 114720, Note_on_c, 3, 61, 127
5, 114816, Note_on_c, 3, 61, 0
5, 114816, Note_on_c, 3, 58, 127
5, 114912, Note_on_c, 3, 58, 0
5, 114912, Note_on_c, 3, 60, 127
5, 115008, Note_on_c, 3, 60, 0
5, 115008, Note_on_c, 3, 48, 127
5, 115104, Note_on_c, 3, 48, 0
5, 115104, Note_on_c, 3, 53, 127
5, 115584, Note_on_c, 3, 53, 0
5, 115584, Note_on_c, 3, 51, 127
5, 115680, Note_on_c, 3, 51, 0
5, 115680, Note_on_c, 3, 50, 127
5, 115872, Note_on_c, 3, 50, 0
5, 115872, Note_on_c, 3, 46, 127
5, 116256, Note_on_c, 3, 46, 0
5, 116256, Note_on_c, 3, 51, 127
5, 116352, Note_on_c, 3, 51, 0
5, 116352, Note_on_c, 3, 63, 127
5, 116448, Note_on_c, 3, 63, 0
5, 116448, Note_on_c, 3, 61, 127
5, 116544, Note_on_c, 3, 61, 0
5, 116544, Note_on_c, 3, 60, 127
5, 116640, Note_on_c, 3, 60, 0
5, 116640, Note_on_c, 3, 58, 127
5, 116736, Note_on_c, 3, 58, 0
5, 116736, Note_on_c, 3, 56, 127
5, 116832, Note_on_c, 3, 56, 0
5, 116832, Note_on_c, 3, 55, 127
5, 117024, Note_on_c, 3, 55, 0
5, 117024, Note_on_c, 3, 51, 127
5, 117408, Note_on_c, 3, 51, 0
5, 117408, Note_on_c, 3, 56, 127
5, 117504, Note_on_c, 3, 56, 0
5, 117504, Note_on_c, 3, 44, 127
5, 117600, Note_on_c, 3, 44, 0
5, 117600, Note_on_c, 3, 46, 127
5, 117696, Note_on_c, 3, 46, 0
5, 117696, Note_on_c, 3, 48, 127
5, 117792, Note_on_c, 3, 48, 0
5, 117792, Note_on_c, 3, 50, 127
5, 117888, Note_on_c, 3, 50, 0
5, 117888, Note_on_c, 3, 51, 127
5, 117984, Note_on_c, 3, 51, 0
5, 117984, Note_on_c, 3, 53, 127
5, 118080, Note_on_c, 3, 53, 0
5, 118080, Note_on_c, 3, 55, 127
5, 118176, Note_on_c, 3, 55, 0
5, 118176, Note_on_c, 3, 56, 127
5, 118272, Note_on_c, 3, 56, 0
5, 118272, Note_on_c, 3, 60, 127
5, 118368, Note_on_c, 3, 60, 0
5, 118368, Note_on_c, 3, 58, 127
5, 118464, Note_on_c, 3, 58, 0
5, 118464, Note_on_c, 3, 56, 127
5, 118560, Note_on_c, 3, 56, 0
5, 118560, Note_on_c, 3, 55, 127
5, 118656, Note_on_c, 3, 55, 0
5, 118656, Note_on_c, 3, 53, 127
5, 118752, Note_on_c, 3, 53, 0
5, 118752, Note_on_c, 3, 51, 127
5, 118848, Note_on_c, 3, 51, 0
5, 118848, Note_on_c, 3, 50, 127
5, 118944, Note_on_c, 3, 50, 0
5, 118944, Note_on_c, 3, 48, 127
5, 119040, Note_on_c, 3, 48, 0
5, 119040, Note_on_c, 3, 46, 127
5, 119136, Note_on_c, 3, 46, 0
5, 119136, Note_on_c, 3, 51, 127
5, 119232, Note_on_c, 3, 51, 0
5, 119232, Note_on_c, 3, 55, 127
5, 119328, Note_on_c, 3, 55, 0
5, 119328, Note_on_c, 3, 56, 127
5, 119424, Note_on_c, 3, 56, 0
5, 119424, Note_on_c, 3, 53, 127
5, 119520, Note_on_c, 3, 53, 0
5, 119520, Note_on_c, 3, 58, 127
5, 119616, Note_on_c, 3, 58, 0
5, 119616, Note_on_c, 3, 46, 127
5, 119712, Note_on_c, 3, 46, 0
5, 119712, Note_on_c, 3, 51, 127
5, 120288, Note_on_c, 3, 51, 0
5, 120288, Note_on_c, 3, 58, 127
5, 120384, Note_on_c, 3, 58, 0
5, 120384, Note_on_c, 3, 46, 127
5, 120480, Note_on_c, 3, 46, 0
5, 120480, Note_on_c, 3, 48, 127
5, 120576, Note_on_c, 3, 48, 0
5, 120576, Note_on_c, 3, 50, 127
5, 120672, Note_on_c, 3, 50, 0
5, 120672, Note_on_c, 3, 51, 127
5, 120768, Note_on_c, 3, 51, 0
5, 120768, Note_on_c, 3, 53, 127
5, 120864, Note_on_c, 3, 53, 0
5, 120864, Note_on_c, 3, 55, 127
5, 120960, Note_on_c, 3, 55, 0
5, 120960, Note_on_c, 3, 56, 127
5, 121056, Note_on_c, 3, 56, 0
5, 121056, Note_on_c, 3, 58, 127
5, 121152, Note_on_c, 3, 58, 0
5, 121152, Note_on_c, 3, 61, 127
5, 121248, Note_on_c, 3, 61, 0
5, 121248, Note_on_c, 3, 60, 127
5, 121344, Note_on_c, 3, 60, 0
5, 121344, Note_on_c, 3, 58, 127
5, 121440, Note_on_c, 3, 58, 0
5, 121440, Note_on_c, 3, 56, 127
5, 121536, Note_on_c, 3, 56, 0
5, 121536, Note_on_c, 3, 53, 127
5, 121632, Note_on_c, 3, 53, 0
5, 121632, Note_on_c, 3, 61, 127
5, 121728, Note_on_c, 3, 61, 0
5, 121728, Note_on_c, 3, 60, 127
5, 121824, Note_on_c, 3, 60, 0
5, 121824, Note_on_c, 3, 58, 127
5, 121920, Note_on_c, 3, 58, 0
5, 121920, Note_on_c, 3, 61, 127
5, 122016, Note_on_c, 3, 61, 0
5, 122016, Note_on_c, 3, 60, 127
5, 122112, Note_on_c, 3, 60, 0
5, 122112, Note_on_c, 3, 61, 127
5, 122208, Note_on_c, 3, 61, 0
5, 122208, Note_on_c, 3, 60, 127
5, 122304, Note_on_c, 3, 60, 0
5, 122304, Note_on_c, 3, 58, 127
5, 122400, Note_on_c, 3, 58, 0
5, 122400, Note_on_c, 3, 56, 127
5, 122496, Note_on_c, 3, 56, 0
5, 122496, Note_on_c, 3, 55, 127
5, 122592, Note_on_c, 3, 55, 0
5, 122592, Note_on_c, 3, 53, 127
5, 122640, Note_on_c, 3, 53, 0
5, 122640, Note_on_c, 3, 55, 127
5, 122688, Note_on_c, 3, 55, 0
5, 122688, Note_on_c, 3, 56, 127
5, 122784, Note_on_c, 3, 56, 0
5, 122784, Note_on_c, 3, 49, 127
5, 123168, Note_on_c, 3, 49, 0
5, 123168, Note_on_c, 3, 55, 127
5, 123216, Note_on_c, 3, 55, 0
5, 123216, Note_on_c, 3, 56, 127
5, 123264, Note_on_c, 3, 56, 0
5, 123264, Note_on_c, 3, 58, 127
5, 123360, Note_on_c, 3, 58, 0
5, 123360, Note_on_c, 3, 58, 127
5, 123744, Note_on_c, 3, 58, 0
5, 123744, Note_on_c, 3, 56, 127
5, 123840, Note_on_c, 3, 56, 0
5, 123840, Note_on_c, 3, 53, 127
5, 123936, Note_on_c, 3, 53, 0
5, 123936, Note_on_c, 3, 61, 127
5, 124032, Note_on_c, 3, 61, 0
5, 124032, Note_on_c, 3, 58, 127
5, 124128, Note_on_c, 3, 58, 0
5, 124128, Note_on_c, 3, 60, 127
5, 124224, Note_on_c, 3, 60, 0
5, 124224, Note_on_c, 3, 48, 127
5, 124320, Note_on_c, 3, 48, 0
5, 124320, Note_on_c, 3, 53, 127
5, 124800, Note_on_c, 3, 53, 0
5, 124800, Note_on_c, 3, 51, 127
5, 124896, Note_on_c, 3, 51, 0
5, 124896, Note_on_c, 3, 50, 127
5, 125088, Note_on_c, 3, 50, 0
5, 125088, Note_on_c, 3, 46, 127
5, 125472, Note_on_c, 3, 46, 0
5, 125472, Note_on_c, 3, 51, 127
5, 125568, Note_on_c, 3, 51, 0
5, 125568, Note_on_c, 3, 63, 127
5, 125664, Note_on_c, 3, 63, 0
5, 125664, Note_on_c, 3, 61, 127
5, 125760, Note_on_c, 3, 61, 0
5, 125760, Note_on_c, 3, 60, 127
5, 125856, Note_on_c, 3, 60, 0
5, 125856, Note_on_c, 3, 58, 127
5, 125952, Note_on_c, 3, 58, 0
5, 125952, Note_on_c, 3, 56, 127
5, 126048, Note_on_c, 3, 56, 0
5, 126048, Note_on_c, 3, 55, 127
5, 126240, Note_on_c, 3, 55, 0
5, 126240, Note_on_c, 3, 51, 127
5, 126624, Note_on_c, 3, 51, 0
5, 126624, Note_on_c, 3, 56, 127
5, 126720, Note_on_c, 3, 56, 0
5, 126720, Note_on_c, 3, 44, 127
5, 126816, Note_on_c, 3, 44, 0
5, 126816, Note_on_c, 3, 46, 127
5, 126912, Note_on_c, 3, 46, 0
5, 126912, Note_on_c, 3, 48, 127
5, 127008, Note_on_c, 3, 48, 0
5, 127008, Note_on_c, 3, 50, 127
5, 127104, Note_on_c, 3, 50, 0
5, 127104, Note_on_c, 3, 51, 127
5, 127200, Note_on_c, 3, 51, 0
5, 127200, Note_on_c, 3, 53, 127
5, 127296, Note_on_c, 3, 53, 0
5, 127296, Note_on_c, 3, 55, 127
5, 127392, Note_on_c, 3, 55, 0
5, 127392, Note_on_c, 3, 56, 127
5, 127488, Note_on_c, 3, 56, 0
5, 127488, Note_on_c, 3, 60, 127
5, 127584, Note_on_c, 3, 60, 0
5, 127584, Note_on_c, 3, 58, 127
5, 127680, Note_on_c, 3, 58, 0
5, 127680, Note_on_c, 3, 56, 127
5, 127776, Note_on_c, 3, 56, 0
5, 127776, Note_on_c, 3, 55, 127
5, 127872, Note_on_c, 3, 55, 0
5, 127872, Note_on_c, 3, 53, 127
5, 127968, Note_on_c, 3, 53, 0
5, 127968, Note_on_c, 3, 51, 127
5, 128064, Note_on_c, 3, 51, 0
5, 128064, Note_on_c, 3, 50, 127
5, 128160, Note_on_c, 3, 50, 0
5, 128160, Note_on_c, 3, 48, 127
5, 128256, Note_on_c, 3, 48, 0
5, 128256, Note_on_c, 3, 46, 127
5, 128352, Note_on_c, 3, 46, 0
5, 128352, Note_on_c, 3, 51, 127
5, 128448, Note_on_c, 3, 51, 0
5, 128448, Note_on_c, 3, 55, 127
5, 128544, Note_on_c, 3, 55, 0
5, 128544, Note_on_c, 3, 56, 127
5, 128640, Note_on_c, 3, 56, 0
5, 128640, Note_on_c, 3, 53, 127
5, 128736, Note_on_c, 3, 53, 0
5, 128736, Note_on_c, 3, 58, 127
5, 128832, Note_on_c, 3, 58, 0
5, 128832, Note_on_c, 3, 46, 127
5, 128928, Note_on_c, 3, 46, 0
5, 128928, Note_on_c, 3, 51, 127
5, 129504, Note_on_c, 3, 51, 0
5, 130272, Note_on_c, 3, 63, 127
5, 130368, Note_on_c, 3, 63, 0
5, 130368, Note_on_c, 3, 58, 127
5, 130464, Note_on_c, 3, 58, 0
5, 130464, Note_on_c, 3, 60, 127
5, 130560, Note_on_c, 3, 60, 0
5, 130560, Note_on_c, 3, 56, 127
5, 130656, Note_on_c, 3, 56, 0
5, 130656, Note_on_c, 3, 56, 127
5, 130704, Note_on_c, 3, 56, 0
5, 130704, Note_on_c, 3, 55, 127
5, 130728, Note_on_c, 3, 55, 0
5, 130728, Note_on_c, 3, 56, 127
5, 130752, Note_on_c, 3, 56, 0
5, 130752, Note_on_c, 3, 55, 127
5, 130944, Note_on_c, 3, 55, 0
5, 130944, Note_on_c, 3, 56, 127
5, 131040, Note_on_c, 3, 56, 0
5, 131040, Note_on_c, 3, 58, 127
5, 131136, Note_on_c, 3, 58, 0
5, 131136, Note_on_c, 3, 53, 127
5, 131232, Note_on_c, 3, 53, 0
5, 131232, Note_on_c, 3, 55, 127
5, 131328, Note_on_c, 3, 55, 0
5, 131328, Note_on_c, 3, 51, 127
5, 131424, Note_on_c, 3, 51, 0
5, 131424, Note_on_c, 3, 51, 127
5, 131472, Note_on_c, 3, 51, 0
5, 131472, Note_on_c, 3, 50, 127
5, 131496, Note_on_c, 3, 50, 0
5, 131496, Note_on_c, 3, 51, 127
5, 131520, Note_on_c, 3, 51, 0
5, 131520, Note_on_c, 3, 50, 127
5, 131616, Note_on_c, 3, 50, 0
5, 131616, Note_on_c, 3, 46, 127
5, 131808, Note_on_c, 3, 46, 0
5, 131808, Note_on_c, 3, 51, 127
5, 132096, Note_on_c, 3, 51, 0
5, 132096, Note_on_c, 3, 55, 127
5, 132192, Note_on_c, 3, 55, 0
5, 132192, Note_on_c, 3, 56, 127
5, 132384, Note_on_c, 3, 56, 0
5, 132384, Note_on_c, 3, 53, 127
5, 132576, Note_on_c, 3, 53, 0
5, 132576, Note_on_c, 3, 58, 127
5, 132672, Note_on_c, 3, 58, 0
5, 132672, Note_on_c, 3, 56, 127
5, 132768, Note_on_c, 3, 56, 0
5, 132768, Note_on_c, 3, 55, 127
5, 132864, Note_on_c, 3, 55, 0
5, 132864, Note_on_c, 3, 53, 127
5, 132960, Note_on_c, 3, 53, 0
5, 132960, Note_on_c, 3, 53, 127
5, 133008, Note_on_c, 3, 53, 0
5, 133008, Note_on_c, 3, 51, 127
5, 133032, Note_on_c, 3, 51, 0
5, 133032, Note_on_c, 3, 53, 127
5, 133056, Note_on_c, 3, 53, 0
5, 133056, Note_on_c, 3, 51, 127
5, 133152, Note_on_c, 3, 51, 0
5, 133344, Note_on_c, 3, 63, 127
5, 133440, Note_on_c, 3, 63, 0
5, 133440, Note_on_c, 3, 58, 127
5, 133536, Note_on_c, 3, 58, 0
5, 133536, Note_on_c, 3, 60, 127
5, 133632, Note_on_c, 3, 60, 0
5, 133632, Note_on_c, 3, 56, 127
5, 133728, Note_on_c, 3, 56, 0
5, 133728, Note_on_c, 3, 56, 127
5, 133776, Note_on_c, 3, 56, 0
5, 133776, Note_on_c, 3, 55, 127
5, 133800, Note_on_c, 3, 55, 0
5, 133800, Note_on_c, 3, 56, 127
5, 133824, Note_on_c, 3, 56, 0
5, 133824, Note_on_c, 3, 55, 127
5, 134016, Note_on_c, 3, 55, 0
5, 134016, Note_on_c, 3, 57, 127
5, 134112, Note_on_c, 3, 57, 0
5, 134112, Note_on_c, 3, 58, 127
5, 134208, Note_on_c, 3, 58, 0
5, 134208, Note_on_c, 3, 53, 127
5, 134304, Note_on_c, 3, 53, 0
5, 134304, Note_on_c, 3, 55, 127
5, 134400, Note_on_c, 3, 55, 0
5, 134400, Note_on_c, 3, 51, 127
5, 134496, Note_on_c, 3, 51, 0
5, 134496, Note_on_c, 3, 50, 127
5, 134688, Note_on_c, 3, 50, 0
5, 134688, Note_on_c, 3, 46, 127
5, 134880, Note_on_c, 3, 46, 0
5, 134880, Note_on_c, 3, 51, 127
5, 135072, Note_on_c, 3, 51, 0
5, 135072, Note_on_c, 3, 50, 127
5, 135168, Note_on_c, 3, 50, 0
5, 135168, Note_on_c, 3, 51, 127
5, 135264, Note_on_c, 3, 51, 0
5, 135264, Note_on_c, 3, 53, 127
5, 135456, Note_on_c, 3, 53, 0
5, 135456, Note_on_c, 3, 41, 127
5, 135648, Note_on_c, 3, 41, 0
5, 135648, Note_on_c, 3, 46, 127
5, 135744, Note_on_c, 3, 46, 0
5, 135744, Note_on_c, 3, 44, 127
5, 135840, Note_on_c, 3, 44, 0
5, 135840, Note_on_c, 3, 43, 127
5, 135936, Note_on_c, 3, 43, 0
5, 135936, Note_on_c, 3, 41, 127
5, 136032, Note_on_c, 3, 41, 0
5, 136032, Note_on_c, 3, 39, 127
5, 136224, Note_on_c, 3, 39, 0
5, 136416, Note_on_c, 3, 63, 127
5, 136512, Note_on_c, 3, 63, 0
5, 136512, Note_on_c, 3, 58, 127
5, 136608, Note_on_c, 3, 58, 0
5, 136608, Note_on_c, 3, 60, 127
5, 136704, Note_on_c, 3, 60, 0
5, 136704, Note_on_c, 3, 56, 127
5, 136800, Note_on_c, 3, 56, 0
5, 136800, Note_on_c, 3, 56, 127
5, 136848, Note_on_c, 3, 56, 0
5, 136848, Note_on_c, 3, 55, 127
5, 136872, Note_on_c, 3, 55, 0
5, 136872, Note_on_c, 3, 56, 127
5, 136896, Note_on_c, 3, 56, 0
5, 136896, Note_on_c, 3, 55, 127
5, 137088, Note_on_c, 3, 55, 0
5, 137088, Note_on_c, 3, 56, 127
5, 137184, Note_on_c, 3, 56, 0
5, 137184, Note_on_c, 3, 58, 127
5, 137280, Note_on_c, 3, 58, 0
5, 137280, Note_on_c, 3, 53, 127
5, 137376, Note_on_c, 3, 53, 0
5, 137376, Note_on_c, 3, 55, 127
5, 137472, Note_on_c, 3, 55, 0
5, 137472, Note_on_c, 3, 51, 127
5, 137568, Note_on_c, 3, 51, 0
5, 137568, Note_on_c, 3, 51, 127
5, 137616, Note_on_c, 3, 51, 0
5, 137616, Note_on_c, 3, 50, 127
5, 137640, Note_on_c, 3, 50, 0
5, 137640, Note_on_c, 3, 51, 127
5, 137664, Note_on_c, 3, 51, 0
5, 137664, Note_on_c, 3, 50, 127
5, 137760, Note_on_c, 3, 50, 0
5, 137760, Note_on_c, 3, 46, 127
5, 137952, Note_on_c, 3, 46, 0
5, 137952, Note_on_c, 3, 51, 127
5, 138240, Note_on_c, 3, 51, 0
5, 138240, Note_on_c, 3, 55, 127
5, 138336, Note_on_c, 3, 55, 0
5, 138336, Note_on_c, 3, 56, 127
5, 138528, Note_on_c, 3, 56, 0
5, 138528, Note_on_c, 3, 53, 127
5, 138720, Note_on_c, 3, 53, 0
5, 138720, Note_on_c, 3, 58, 127
5, 138816, Note_on_c, 3, 58, 0
5, 138816, Note_on_c, 3, 56, 127
5, 138912, Note_on_c, 3, 56, 0
5, 138912, Note_on_c, 3, 55, 127
5, 139008, Note_on_c, 3, 55, 0
5, 139008, Note_on_c, 3, 53, 127
5, 139104, Note_on_c, 3, 53, 0
5, 139104, Note_on_c, 3, 53, 127
5, 139152, Note_on_c, 3, 53, 0
5, 139152, Note_on_c, 3, 51, 127
5, 139176, Note_on_c, 3, 51, 0
5, 139176, Note_on_c, 3, 53, 127
5, 139200, Note_on_c, 3, 53, 0
5, 139200, Note_on_c, 3, 51, 127
5, 139296, Note_on_c, 3, 51, 0
5, 139488, Note_on_c, 3, 63, 127
5, 139584, Note_on_c, 3, 63, 0
5, 139584, Note_on_c, 3, 58, 127
5, 139680, Note_on_c, 3, 58, 0
5, 139680, Note_on_c, 3, 60, 127
5, 139776, Note_on_c, 3, 60, 0
5, 139776, Note_on_c, 3, 56, 127
5, 139872, Note_on_c, 3, 56, 0
5, 139872, Note_on_c, 3, 56, 127
5, 139920, Note_on_c, 3, 56, 0
5, 139920, Note_on_c, 3, 55, 127
5, 139944, Note_on_c, 3, 55, 0
5, 139944, Note_on_c, 3, 56, 127
5, 139968, Note_on_c, 3, 56, 0
5, 139968, Note_on_c, 3, 55, 127
5, 140160, Note_on_c, 3, 55, 0
5, 140160, Note_on_c, 3, 57, 127
5, 140256, Note_on_c, 3, 57, 0
5, 140256, Note_on_c, 3, 58, 127
5, 140352, Note_on_c, 3, 58, 0
5, 140352, Note_on_c, 3, 53, 127
5, 140448, Note_on_c, 3, 53, 0
5, 140448, Note_on_c, 3, 55, 127
5, 140544, Note_on_c, 3, 55, 0
5, 140544, Note_on_c, 3, 51, 127
5, 140640, Note_on_c, 3, 51, 0
5, 140640, Note_on_c, 3, 50, 127
5, 140832, Note_on_c, 3, 50, 0
5, 140832, Note_on_c, 3, 46, 127
5, 141024, Note_on_c, 3, 46, 0
5, 141024, Note_on_c, 3, 51, 127
5, 141216, Note_on_c, 3, 51, 0
5, 141216, Note_on_c, 3, 50, 127
5, 141312, Note_on_c, 3, 50, 0
5, 141312, Note_on_c, 3, 51, 127
5, 141408, Note_on_c, 3, 51, 0
5, 141408, Note_on_c, 3, 53, 127
5, 141600, Note_on_c, 3, 53, 0
5, 141600, Note_on_c, 3, 41, 127
5, 141792, Note_on_c, 3, 41, 0
5, 141792, Note_on_c, 3, 46, 127
5, 142176, Note_on_c, 3, 46, 0
5, 142560, Note_on_c, 3, 53, 127
5, 142656, Note_on_c, 3, 53, 0
5, 142656, Note_on_c, 3, 48, 127
5, 142752, Note_on_c, 3, 48, 0
5, 142752, Note_on_c, 3, 50, 127
5, 142848, Note_on_c, 3, 50, 0
5, 142848, Note_on_c, 3, 46, 127
5, 142944, Note_on_c, 3, 46, 0
5, 142944, Note_on_c, 3, 58, 127
5, 143232, Note_on_c, 3, 58, 0
5, 143232, Note_on_c, 3, 50, 127
5, 143328, Note_on_c, 3, 50, 0
5, 143328, Note_on_c, 3, 51, 127
5, 143424, Note_on_c, 3, 51, 0
5, 143424, Note_on_c, 3, 47, 127
5, 143520, Note_on_c, 3, 47, 0
5, 143520, Note_on_c, 3, 48, 127
5, 143616, Note_on_c, 3, 48, 0
5, 143616, Note_on_c, 3, 43, 127
5, 143712, Note_on_c, 3, 43, 0
5, 143712, Note_on_c, 3, 44, 127
5, 144288, Note_on_c, 3, 44, 0
5, 144288, Note_on_c, 3, 56, 127
5, 144480, Note_on_c, 3, 56, 0
5, 144480, Note_on_c, 3, 55, 127
5, 144672, Note_on_c, 3, 55, 0
5, 144672, Note_on_c, 3, 54, 127
5, 144864, Note_on_c, 3, 54, 0
5, 144864, Note_on_c, 3, 55, 127
5, 145056, Note_on_c, 3, 55, 0
5, 145056, Note_on_c, 3, 53, 127
5, 145248, Note_on_c, 3, 53, 0
5, 145248, Note_on_c, 3, 51, 127
5, 145440, Note_on_c, 3, 51, 0
5, 145440, Note_on_c, 3, 48, 127
5, 145632, Note_on_c, 3, 48, 0
5, 145632, Note_on_c, 3, 49, 127
5, 145728, Note_on_c, 3, 49, 0
5, 145728, Note_on_c, 3, 53, 127
5, 145824, Note_on_c, 3, 53, 0
5, 145824, Note_on_c, 3, 55, 127
5, 145920, Note_on_c, 3, 55, 0
5, 145920, Note_on_c, 3, 58, 127
5, 146016, Note_on_c, 3, 58, 0
5, 146016, Note_on_c, 3, 52, 127
5, 146208, Note_on_c, 3, 52, 0
5, 146208, Note_on_c, 3, 48, 127
5, 146400, Note_on_c, 3, 48, 0
5, 146400, Note_on_c, 3, 53, 127
5, 146496, Note_on_c, 3, 53, 0
5, 146496, Note_on_c, 3, 52, 127
5, 146592, Note_on_c, 3, 52, 0
5, 146592, Note_on_c, 3, 53, 127
5, 146688, Note_on_c, 3, 53, 0
5, 146688, Note_on_c, 3, 48, 127
5, 146784, Note_on_c, 3, 48, 0
5, 146784, Note_on_c, 3, 56, 127
5, 146976, Note_on_c, 3, 56, 0
5, 146976, Note_on_c, 3, 55, 127
5, 147072, Note_on_c, 3, 55, 0
5, 147072, Note_on_c, 3, 53, 127
5, 147168, Note_on_c, 3, 53, 0
5, 147168, Note_on_c, 3, 51, 127
5, 147360, Note_on_c, 3, 51, 0
5, 147360, Note_on_c, 3, 48, 127
5, 147552, Note_on_c, 3, 48, 0
5, 147552, Note_on_c, 3, 55, 127
5, 147744, Note_on_c, 3, 55, 0
5, 147744, Note_on_c, 3, 43, 127
5, 147936, Note_on_c, 3, 43, 0
5, 147936, Note_on_c, 3, 60, 127
5, 148032, Note_on_c, 3, 60, 0
5, 148032, Note_on_c, 3, 55, 127
5, 148128, Note_on_c, 3, 55, 0
5, 148128, Note_on_c, 3, 56, 127
5, 148224, Note_on_c, 3, 56, 0
5, 148224, Note_on_c, 3, 53, 127
5, 148320, Note_on_c, 3, 53, 0
5, 148320, Note_on_c, 3, 53, 127
5, 148368, Note_on_c, 3, 53, 0
5, 148368, Note_on_c, 3, 52, 127
5, 148392, Note_on_c, 3, 52, 0
5, 148392, Note_on_c, 3, 53, 127
5, 148416, Note_on_c, 3, 53, 0
5, 148416, Note_on_c, 3, 52, 127
5, 148512, Note_on_c, 3, 52, 0
5, 148512, Note_on_c, 3, 48, 127
5, 148704, Note_on_c, 3, 48, 0
5, 148704, Note_on_c, 3, 53, 127
5, 148800, Note_on_c, 3, 53, 0
5, 148800, Note_on_c, 3, 55, 127
5, 148896, Note_on_c, 3, 55, 0
5, 148896, Note_on_c, 3, 56, 127
5, 148992, Note_on_c, 3, 56, 0
5, 148992, Note_on_c, 3, 53, 127
5, 149088, Note_on_c, 3, 53, 0
5, 149088, Note_on_c, 3, 50, 127
5, 149280, Note_on_c, 3, 50, 0
5, 149280, Note_on_c, 3, 46, 127
5, 149472, Note_on_c, 3, 46, 0
5, 149472, Note_on_c, 3, 51, 127
5, 149568, Note_on_c, 3, 51, 0
5, 149568, Note_on_c, 3, 53, 127
5, 149664, Note_on_c, 3, 53, 0
5, 149664, Note_on_c, 3, 55, 127
5, 149760, Note_on_c, 3, 55, 0
5, 149760, Note_on_c, 3, 51, 127
5, 149856, Note_on_c, 3, 51, 0
5, 149856, Note_on_c, 3, 48, 127
5, 149952, Note_on_c, 3, 48, 0
5, 149952, Note_on_c, 3, 55, 127
5, 150048, Note_on_c, 3, 55, 0
5, 150048, Note_on_c, 3, 53, 127
5, 150144, Note_on_c, 3, 53, 0
5, 150144, Note_on_c, 3, 56, 127
5, 150240, Note_on_c, 3, 56, 0
5, 150240, Note_on_c, 3, 46, 127
5, 150336, Note_on_c, 3, 46, 0
5, 150336, Note_on_c, 3, 53, 127
5, 150432, Note_on_c, 3, 53, 0
5, 150432, Note_on_c, 3, 51, 127
5, 150528, Note_on_c, 3, 51, 0
5, 150528, Note_on_c, 3, 55, 127
5, 150624, Note_on_c, 3, 55, 0
5, 150624, Note_on_c, 3, 44, 127
5, 150720, Note_on_c, 3, 44, 0
5, 150720, Note_on_c, 3, 51, 127
5, 150816, Note_on_c, 3, 51, 0
5, 150816, Note_on_c, 3, 49, 127
5, 150912, Note_on_c, 3, 49, 0
5, 150912, Note_on_c, 3, 53, 127
5, 151008, Note_on_c, 3, 53, 0
5, 151008, Note_on_c, 3, 46, 127
5, 151104, Note_on_c, 3, 46, 0
5, 151104, Note_on_c, 3, 41, 127
5, 151200, Note_on_c, 3, 41, 0
5, 151200, Note_on_c, 3, 43, 127
5, 151296, Note_on_c, 3, 43, 0
5, 151296, Note_on_c, 3, 39, 127
5, 151392, Note_on_c, 3, 39, 0
5, 151392, Note_on_c, 3, 44, 127
5, 151584, Note_on_c, 3, 44, 0
5, 151584, Note_on_c, 3, 41, 127
5, 151776, Note_on_c, 3, 41, 0
5, 151776, Note_on_c, 3, 46, 127
5, 152064, Note_on_c, 3, 46, 0
5, 152064, Note_on_c, 3, 50, 127
5, 152160, Note_on_c, 3, 50, 0
5, 152160, Note_on_c, 3, 51, 127
5, 152256, Note_on_c, 3, 51, 0
5, 152256, Note_on_c, 3, 55, 127
5, 152352, Note_on_c, 3, 55, 0
5, 152352, Note_on_c, 3, 58, 127
5, 152448, Note_on_c, 3, 58, 0
5, 152448, Note_on_c, 3, 46, 127
5, 152544, Note_on_c, 3, 46, 0
5, 152544, Note_on_c, 3, 39, 127
5, 152928, Note_on_c, 3, 39, 0
5, 153312, Note_on_c, 3, 53, 127
5, 153408, Note_on_c, 3, 53, 0
5, 153408, Note_on_c, 3, 48, 127
5, 153504, Note_on_c, 3, 48, 0
5, 153504, Note_on_c, 3, 50, 127
5, 153600, Note_on_c, 3, 50, 0
5, 153600, Note_on_c, 3, 46, 127
5, 153696, Note_on_c, 3, 46, 0
5, 153696, Note_on_c, 3, 58, 127
5, 153984, Note_on_c, 3, 58, 0
5, 153984, Note_on_c, 3, 50, 127
5, 154080, Note_on_c, 3, 50, 0
5, 154080, Note_on_c, 3, 51, 127
5, 154176, Note_on_c, 3, 51, 0
5, 154176, Note_on_c, 3, 47, 127
5, 154272, Note_on_c, 3, 47, 0
5, 154272, Note_on_c, 3, 48, 127
5, 154368, Note_on_c, 3, 48, 0
5, 154368, Note_on_c, 3, 43, 127
5, 154464, Note_on_c, 3, 43, 0
5, 154464, Note_on_c, 3, 44, 127
5, 155040, Note_on_c, 3, 44, 0
5, 155040, Note_on_c, 3, 56, 127
5, 155232, Note_on_c, 3, 56, 0
5, 155232, Note_on_c, 3, 55, 127
5, 155424, Note_on_c, 3, 55, 0
5, 155424, Note_on_c, 3, 54, 127
5, 155616, Note_on_c, 3, 54, 0
5, 155616, Note_on_c, 3, 55, 127
5, 155808, Note_on_c, 3, 55, 0
5, 155808, Note_on_c, 3, 53, 127
5, 156000, Note_on_c, 3, 53, 0
5, 156000, Note_on_c, 3, 51, 127
5, 156192, Note_on_c, 3, 51, 0
5, 156192, Note_on_c, 3, 48, 127
5, 156384, Note_on_c, 3, 48, 0
5, 156384, Note_on_c, 3, 49, 127
5, 156480, Note_on_c, 3, 49, 0
5, 156480, Note_on_c, 3, 53, 127
5, 156576, Note_on_c, 3, 53, 0
5, 156576, Note_on_c, 3, 55, 127
5, 156672, Note_on_c, 3, 55, 0
5, 156672, Note_on_c, 3, 58, 127
5, 156768, Note_on_c, 3, 58, 0
5, 156768, Note_on_c, 3, 52, 127
5, 156960, Note_on_c, 3, 52, 0
5, 156960, Note_on_c, 3, 48, 127
5, 157152, Note_on_c, 3, 48, 0
5, 157152, Note_on_c, 3, 53, 127
5, 157248, Note_on_c, 3, 53, 0
5, 157248, Note_on_c, 3, 52, 127
5, 157344, Note_on_c, 3, 52, 0
5, 157344, Note_on_c, 3, 53, 127
5, 157440, Note_on_c, 3, 53, 0
5, 157440, Note_on_c, 3, 48, 127
5, 157536, Note_on_c, 3, 48, 0
5, 157536, Note_on_c, 3, 56, 127
5, 157728, Note_on_c, 3, 56, 0
5, 157728, Note_on_c, 3, 55, 127
5, 157824, Note_on_c, 3, 55, 0
5, 157824, Note_on_c, 3, 53, 127
5, 157920, Note_on_c, 3, 53, 0
5, 157920, Note_on_c, 3, 51, 127
5, 158112, Note_on_c, 3, 51, 0
5, 158112, Note_on_c, 3, 48, 127
5, 158304, Note_on_c, 3, 48, 0
5, 158304, Note_on_c, 3, 55, 127
5, 158496, Note_on_c, 3, 55, 0
5, 158496, Note_on_c, 3, 43, 127
5, 158688, Note_on_c, 3, 43, 0
5, 158688, Note_on_c, 3, 60, 127
5, 158784, Note_on_c, 3, 60, 0
5, 158784, Note_on_c, 3, 55, 127
5, 158880, Note_on_c, 3, 55, 0
5, 158880, Note_on_c, 3, 56, 127
5, 158976, Note_on_c, 3, 56, 0
5, 158976, Note_on_c, 3, 53, 127
5, 159072, Note_on_c, 3, 53, 0
5, 159072, Note_on_c, 3, 53, 127
5, 159120, Note_on_c, 3, 53, 0
5, 159120, Note_on_c, 3, 52, 127
5, 159144, Note_on_c, 3, 52, 0
5, 159144, Note_on_c, 3, 53, 127
5, 159168, Note_on_c, 3, 53, 0
5, 159168, Note_on_c, 3, 52, 127
5, 159264, Note_on_c, 3, 52, 0
5, 159264, Note_on_c, 3, 48, 127
5, 159456, Note_on_c, 3, 48, 0
5, 159456, Note_on_c, 3, 53, 127
5, 159552, Note_on_c, 3, 53, 0
5, 159552, Note_on_c, 3, 55, 127
5, 159648, Note_on_c, 3, 55, 0
5, 159648, Note_on_c, 3, 56, 127
5, 159744, Note_on_c, 3, 56, 0
5, 159744, Note_on_c, 3, 53, 127
5, 159840, Note_on_c, 3, 53, 0
5, 159840, Note_on_c, 3, 50, 127
5, 160032, Note_on_c, 3, 50, 0
5, 160032, Note_on_c, 3, 46, 127
5, 160224, Note_on_c, 3, 46, 0
5, 160224, Note_on_c, 3, 51, 127
5, 160320, Note_on_c, 3, 51, 0
5, 160320, Note_on_c, 3, 53, 127
5, 160416, Note_on_c, 3, 53, 0
5, 160416, Note_on_c, 3, 55, 127
5, 160512, Note_on_c, 3, 55, 0
5, 160512, Note_on_c, 3, 51, 127
5, 160608, Note_on_c, 3, 51, 0
5, 160608, Note_on_c, 3, 48, 127
5, 160704, Note_on_c, 3, 48, 0
5, 160704, Note_on_c, 3, 55, 127
5, 160800, Note_on_c, 3, 55, 0
5, 160800, Note_on_c, 3, 53, 127
5, 160896, Note_on_c, 3, 53, 0
5, 160896, Note_on_c, 3, 56, 127
5, 160992, Note_on_c, 3, 56, 0
5, 160992, Note_on_c, 3, 46, 127
5, 161088, Note_on_c, 3, 46, 0
5, 161088, Note_on_c, 3, 53, 127
5, 161184, Note_on_c, 3, 53, 0
5, 161184, Note_on_c, 3, 51, 127
5, 161280, Note_on_c, 3, 51, 0
5, 161280, Note_on_c, 3, 55, 127
5, 161376, Note_on_c, 3, 55, 0
5, 161376, Note_on_c, 3, 44, 127
5, 161472, Note_on_c, 3, 44, 0
5, 161472, Note_on_c, 3, 51, 127
5, 161568, Note_on_c, 3, 51, 0
5, 161568, Note_on_c, 3, 49, 127
5, 161664, Note_on_c, 3, 49, 0
5, 161664, Note_on_c, 3, 53, 127
5, 161760, Note_on_c, 3, 53, 0
5, 161760, Note_on_c, 3, 46, 127
5, 161856, Note_on_c, 3, 46, 0
5, 161856, Note_on_c, 3, 41, 127
5, 161952, Note_on_c, 3, 41, 0
5, 161952, Note_on_c, 3, 43, 127
5, 162048, Note_on_c, 3, 43, 0
5, 162048, Note_on_c, 3, 39, 127
5, 162144, Note_on_c, 3, 39, 0
5, 162144, Note_on_c, 3, 44, 127
5, 162336, Note_on_c, 3, 44, 0
5, 162336, Note_on_c, 3, 41, 127
5, 162528, Note_on_c, 3, 41, 0
5, 162528, Note_on_c, 3, 46, 127
5, 162816, Note_on_c, 3, 46, 0
5, 162816, Note_on_c, 3, 50, 127
5, 162912, Note_on_c, 3, 50, 0
5, 162912, Note_on_c, 3, 51, 127
5, 163008, Note_on_c, 3, 51, 0
5, 163008, Note_on_c, 3, 55, 127
5, 163104, Note_on_c, 3, 55, 0
5, 163104, Note_on_c, 3, 58, 127
5, 163200, Note_on_c, 3, 58, 0
5, 163200, Note_on_c, 3, 46, 127
5, 163296, Note_on_c, 3, 46, 0
5, 163296, Note_on_c, 3, 39, 127
5, 163680, Note_on_c, 3, 39, 0
5, 164832, Note_on_c, 3, 55, 127
5, 164928, Note_on_c, 3, 55, 0
5, 164928, Note_on_c, 3, 51, 127
5, 165024, Note_on_c, 3, 51, 0
5, 165024, Note_on_c, 3, 50, 127
5, 165120, Note_on_c, 3, 50, 0
5, 165120, Note_on_c, 3, 51, 127
5, 165216, Note_on_c, 3, 51, 0
5, 165216, Note_on_c, 3, 55, 127
5, 165312, Note_on_c, 3, 55, 0
5, 165312, Note_on_c, 3, 51, 127
5, 165408, Note_on_c, 3, 51, 0
5, 165408, Note_on_c, 3, 56, 127
5, 165504, Note_on_c, 3, 56, 0
5, 165504, Note_on_c, 3, 51, 127
5, 165600, Note_on_c, 3, 51, 0
5, 165600, Note_on_c, 3, 58, 127
5, 165648, Note_on_c, 3, 58, 0
5, 165792, Note_on_c, 3, 60, 127
5, 165840, Note_on_c, 3, 60, 0
5, 165984, Note_on_c, 3, 58, 127
5, 166080, Note_on_c, 3, 58, 0
5, 166080, Note_on_c, 3, 55, 127
5, 166176, Note_on_c, 3, 55, 0
5, 166176, Note_on_c, 3, 53, 127
5, 166272, Note_on_c, 3, 53, 0
5, 166272, Note_on_c, 3, 51, 127
5, 166368, Note_on_c, 3, 51, 0
5, 166368, Note_on_c, 3, 50, 127
5, 166416, Note_on_c, 3, 50, 0
5, 166560, Note_on_c, 3, 51, 127
5, 166608, Note_on_c, 3, 51, 0
5, 166752, Note_on_c, 3, 46, 127
5, 166848, Note_on_c, 3, 46, 0
5, 166848, Note_on_c, 3, 44, 127
5, 166944, Note_on_c, 3, 44, 0
5, 166944, Note_on_c, 3, 43, 127
5, 167040, Note_on_c, 3, 43, 0
5, 167040, Note_on_c, 3, 41, 127
5, 167136, Note_on_c, 3, 41, 0
5, 167136, Note_on_c, 3, 39, 127
5, 167328, Note_on_c, 3, 39, 0
5, 167904, Note_on_c, 3, 55, 127
5, 168000, Note_on_c, 3, 55, 0
5, 168000, Note_on_c, 3, 51, 127
5, 168096, Note_on_c, 3, 51, 0
5, 168096, Note_on_c, 3, 50, 127
5, 168192, Note_on_c, 3, 50, 0
5, 168192, Note_on_c, 3, 51, 127
5, 168288, Note_on_c, 3, 51, 0
5, 168288, Note_on_c, 3, 55, 127
5, 168384, Note_on_c, 3, 55, 0
5, 168384, Note_on_c, 3, 51, 127
5, 168480, Note_on_c, 3, 51, 0
5, 168480, Note_on_c, 3, 56, 127
5, 168576, Note_on_c, 3, 56, 0
5, 168576, Note_on_c, 3, 51, 127
5, 168672, Note_on_c, 3, 51, 0
5, 168672, Note_on_c, 3, 58, 127
5, 168720, Note_on_c, 3, 58, 0
5, 168864, Note_on_c, 3, 60, 127
5, 168912, Note_on_c, 3, 60, 0
5, 169056, Note_on_c, 3, 58, 127
5, 169152, Note_on_c, 3, 58, 0
5, 169152, Note_on_c, 3, 55, 127
5, 169248, Note_on_c, 3, 55, 0
5, 169248, Note_on_c, 3, 53, 127
5, 169344, Note_on_c, 3, 53, 0
5, 169344, Note_on_c, 3, 51, 127
5, 169440, Note_on_c, 3, 51, 0
5, 169440, Note_on_c, 3, 50, 127
5, 169488, Note_on_c, 3, 50, 0
5, 169632, Note_on_c, 3, 51, 127
5, 169680, Note_on_c, 3, 51, 0
5, 169824, Note_on_c, 3, 46, 127
5, 169920, Note_on_c, 3, 46, 0
5, 169920, Note_on_c, 3, 44, 127
5, 170016, Note_on_c, 3, 44, 0
5, 170016, Note_on_c, 3, 43, 127
5, 170112, Note_on_c, 3, 43, 0
5, 170112, Note_on_c, 3, 41, 127
5, 170208, Note_on_c, 3, 41, 0
5, 170208, Note_on_c, 3, 39, 127
5, 170400, Note_on_c, 3, 39, 0
5, 170400, Note_on_c, 3, 43, 127
5, 170592, Note_on_c, 3, 43, 0
5, 170592, Note_on_c, 3, 46, 127
5, 170784, Note_on_c, 3, 46, 0
5, 170784, Note_on_c, 3, 48, 127
5, 170976, Note_on_c, 3, 48, 0
5, 170976, Note_on_c, 3, 50, 127
5, 171168, Note_on_c, 3, 50, 0
5, 171168, Note_on_c, 3, 43, 127
5, 171360, Note_on_c, 3, 43, 0
5, 171360, Note_on_c, 3, 48, 127
5, 171552, Note_on_c, 3, 48, 0
5, 171552, Note_on_c, 3, 36, 127
5, 171744, Note_on_c, 3, 36, 0
5, 171744, Note_on_c, 3, 48, 127
5, 171936, Note_on_c, 3, 48, 0
5, 171936, Note_on_c, 3, 50, 127
5, 172128, Note_on_c, 3, 50, 0
5, 172128, Note_on_c, 3, 51, 127
5, 172320, Note_on_c, 3, 51, 0
5, 172320, Note_on_c, 3, 53, 127
5, 172512, Note_on_c, 3, 53, 0
5, 172512, Note_on_c, 3, 55, 127
5, 172704, Note_on_c, 3, 55, 0
5, 172704, Note_on_c, 3, 51, 127
5, 172896, Note_on_c, 3, 51, 0
5, 172896, Note_on_c, 3, 53, 127
5, 173088, Note_on_c, 3, 53, 0
5, 173088, Note_on_c, 3, 51, 127
5, 173280, Note_on_c, 3, 51, 0
5, 173280, Note_on_c, 3, 50, 127
5, 173376, Note_on_c, 3, 50, 0
5, 173376, Note_on_c, 3, 46, 127
5, 173472, Note_on_c, 3, 46, 0
5, 173472, Note_on_c, 3, 45, 127
5, 173568, Note_on_c, 3, 45, 0
5, 173568, Note_on_c, 3, 46, 127
5, 173664, Note_on_c, 3, 46, 0
5, 173664, Note_on_c, 3, 50, 127
5, 173760, Note_on_c, 3, 50, 0
5, 173760, Note_on_c, 3, 46, 127
5, 173856, Note_on_c, 3, 46, 0
5, 173856, Note_on_c, 3, 51, 127
5, 173952, Note_on_c, 3, 51, 0
5, 173952, Note_on_c, 3, 46, 127
5, 174048, Note_on_c, 3, 46, 0
5, 174048, Note_on_c, 3, 53, 127
5, 174096, Note_on_c, 3, 53, 0
5, 174240, Note_on_c, 3, 55, 127
5, 174288, Note_on_c, 3, 55, 0
5, 174432, Note_on_c, 3, 53, 127
5, 174528, Note_on_c, 3, 53, 0
5, 174528, Note_on_c, 3, 50, 127
5, 174624, Note_on_c, 3, 50, 0
5, 174624, Note_on_c, 3, 48, 127
5, 174720, Note_on_c, 3, 48, 0
5, 174720, Note_on_c, 3, 46, 127
5, 174816, Note_on_c, 3, 46, 0
5, 174816, Note_on_c, 3, 45, 127
5, 174912, Note_on_c, 3, 45, 0
5, 174912, Note_on_c, 3, 46, 127
5, 175008, Note_on_c, 3, 46, 0
5, 175008, Note_on_c, 3, 48, 127
5, 175056, Note_on_c, 3, 48, 0
5, 175056, Note_on_c, 3, 46, 127
5, 175104, Note_on_c, 3, 46, 0
5, 175104, Note_on_c, 3, 45, 127
5, 175152, Note_on_c, 3, 45, 0
5, 175152, Note_on_c, 3, 46, 127
5, 175200, Note_on_c, 3, 46, 0
5, 175200, Note_on_c, 3, 48, 127
5, 175296, Note_on_c, 3, 48, 0
5, 175296, Note_on_c, 3, 50, 127
5, 175392, Note_on_c, 3, 50, 0
5, 175392, Note_on_c, 3, 51, 127
5, 175440, Note_on_c, 3, 51, 0
5, 175440, Note_on_c, 3, 50, 127
5, 175488, Note_on_c, 3, 50, 0
5, 175488, Note_on_c, 3, 48, 127
5, 175536, Note_on_c, 3, 48, 0
5, 175536, Note_on_c, 3, 50, 127
5, 175584, Note_on_c, 3, 50, 0
5, 175584, Note_on_c, 3, 51, 127
5, 175632, Note_on_c, 3, 51, 0
5, 175776, Note_on_c, 3, 53, 127
5, 175824, Note_on_c, 3, 53, 0
5, 175968, Note_on_c, 3, 55, 127
5, 176160, Note_on_c, 3, 55, 0
5, 176160, Note_on_c, 3, 43, 127
5, 176352, Note_on_c, 3, 43, 0
5, 176352, Note_on_c, 3, 55, 127
5, 176544, Note_on_c, 3, 55, 0
5, 176544, Note_on_c, 3, 53, 127
5, 176736, Note_on_c, 3, 53, 0
5, 176736, Note_on_c, 3, 51, 127
5, 176928, Note_on_c, 3, 51, 0
5, 176928, Note_on_c, 3, 39, 127
5, 177120, Note_on_c, 3, 39, 0
5, 177120, Note_on_c, 3, 51, 127
5, 177312, Note_on_c, 3, 51, 0
5, 177312, Note_on_c, 3, 50, 127
5, 177504, Note_on_c, 3, 50, 0
5, 177504, Note_on_c, 3, 55, 127
5, 177696, Note_on_c, 3, 55, 0
5, 177696, Note_on_c, 3, 43, 127
5, 177888, Note_on_c, 3, 43, 0
5, 177888, Note_on_c, 3, 55, 127
5, 178080, Note_on_c, 3, 55, 0
5, 178080, Note_on_c, 3, 53, 127
5, 178272, Note_on_c, 3, 53, 0
5, 178272, Note_on_c, 3, 52, 127
5, 178464, Note_on_c, 3, 52, 0
5, 178464, Note_on_c, 3, 55, 127
5, 178656, Note_on_c, 3, 55, 0
5, 178656, Note_on_c, 3, 48, 127
5, 178848, Note_on_c, 3, 48, 0
5, 178848, Note_on_c, 3, 52, 127
5, 179040, Note_on_c, 3, 52, 0
5, 179040, Note_on_c, 3, 53, 127
5, 179328, Note_on_c, 3, 53, 0
5, 179328, Note_on_c, 3, 51, 127
5, 179424, Note_on_c, 3, 51, 0
5, 179424, Note_on_c, 3, 50, 127
5, 179520, Note_on_c, 3, 50, 0
5, 179520, Note_on_c, 3, 62, 127
5, 179616, Note_on_c, 3, 62, 0
5, 179616, Note_on_c, 3, 60, 127
5, 179712, Note_on_c, 3, 60, 0
5, 179712, Note_on_c, 3, 62, 127
5, 179808, Note_on_c, 3, 62, 0
5, 179808, Note_on_c, 3, 51, 127
5, 179904, Note_on_c, 3, 51, 0
5, 179904, Note_on_c, 3, 62, 127
5, 180000, Note_on_c, 3, 62, 0
5, 180000, Note_on_c, 3, 60, 127
5, 180096, Note_on_c, 3, 60, 0
5, 180096, Note_on_c, 3, 62, 127
5, 180192, Note_on_c, 3, 62, 0
5, 180192, Note_on_c, 3, 53, 127
5, 180288, Note_on_c, 3, 53, 0
5, 180288, Note_on_c, 3, 62, 127
5, 180384, Note_on_c, 3, 62, 0
5, 180384, Note_on_c, 3, 60, 127
5, 180480, Note_on_c, 3, 60, 0
5, 180480, Note_on_c, 3, 62, 127
5, 180576, Note_on_c, 3, 62, 0
5, 180576, Note_on_c, 3, 55, 127
5, 180672, Note_on_c, 3, 55, 0
5, 180672, Note_on_c, 3, 62, 127
5, 180768, Note_on_c, 3, 62, 0
5, 180768, Note_on_c, 3, 60, 127
5, 180864, Note_on_c, 3, 60, 0
5, 180864, Note_on_c, 3, 62, 127
5, 180960, Note_on_c, 3, 62, 0
5, 180960, Note_on_c, 3, 50, 127
5, 181056, Note_on_c, 3, 50, 0
5, 181056, Note_on_c, 3, 62, 127
5, 181152, Note_on_c, 3, 62, 0
5, 181152, Note_on_c, 3, 60, 127
5, 181248, Note_on_c, 3, 60, 0
5, 181248, Note_on_c, 3, 62, 127
5, 181344, Note_on_c, 3, 62, 0
5, 181344, Note_on_c, 3, 51, 127
5, 181440, Note_on_c, 3, 51, 0
5, 181440, Note_on_c, 3, 62, 127
5, 181536, Note_on_c, 3, 62, 0
5, 181536, Note_on_c, 3, 60, 127
5, 181632, Note_on_c, 3, 60, 0
5, 181632, Note_on_c, 3, 58, 127
5, 181728, Note_on_c, 3, 58, 0
5, 181728, Note_on_c, 3, 53, 127
5, 181824, Note_on_c, 3, 53, 0
5, 181824, Note_on_c, 3, 60, 127
5, 181920, Note_on_c, 3, 60, 0
5, 181920, Note_on_c, 3, 58, 127
5, 182016, Note_on_c, 3, 58, 0
5, 182016, Note_on_c, 3, 57, 127
5, 182112, Note_on_c, 3, 57, 0
5, 182112, Note_on_c, 3, 58, 127
5, 182304, Note_on_c, 3, 58, 0
5, 182304, Note_on_c, 3, 46, 127
5, 182496, Note_on_c, 3, 46, 0
5, 183264, Note_on_c, 3, 55, 127
5, 183360, Note_on_c, 3, 55, 0
5, 183360, Note_on_c, 3, 51, 127
5, 183456, Note_on_c, 3, 51, 0
5, 183456, Note_on_c, 3, 50, 127
5, 183552, Note_on_c, 3, 50, 0
5, 183552, Note_on_c, 3, 51, 127
5, 183648, Note_on_c, 3, 51, 0
5, 183648, Note_on_c, 3, 55, 127
5, 183744, Note_on_c, 3, 55, 0
5, 183744, Note_on_c, 3, 51, 127
5, 183840, Note_on_c, 3, 51, 0
5, 183840, Note_on_c, 3, 56, 127
5, 183936, Note_on_c, 3, 56, 0
5, 183936, Note_on_c, 3, 51, 127
5, 184032, Note_on_c, 3, 51, 0
5, 184032, Note_on_c, 3, 58, 127
5, 184080, Note_on_c, 3, 58, 0
5, 184224, Note_on_c, 3, 60, 127
5, 184272, Note_on_c, 3, 60, 0
5, 184416, Note_on_c, 3, 58, 127
5, 184512, Note_on_c, 3, 58, 0
5, 184512, Note_on_c, 3, 55, 127
5, 184608, Note_on_c, 3, 55, 0
5, 184608, Note_on_c, 3, 53, 127
5, 184704, Note_on_c, 3, 53, 0
5, 184704, Note_on_c, 3, 51, 127
5, 184800, Note_on_c, 3, 51, 0
5, 184800, Note_on_c, 3, 50, 127
5, 184848, Note_on_c, 3, 50, 0
5, 184992, Note_on_c, 3, 51, 127
5, 185040, Note_on_c, 3, 51, 0
5, 185184, Note_on_c, 3, 46, 127
5, 185280, Note_on_c, 3, 46, 0
5, 185280, Note_on_c, 3, 44, 127
5, 185376, Note_on_c, 3, 44, 0
5, 185376, Note_on_c, 3, 43, 127
5, 185472, Note_on_c, 3, 43, 0
5, 185472, Note_on_c, 3, 41, 127
5, 185568, Note_on_c, 3, 41, 0
5, 185568, Note_on_c, 3, 39, 127
5, 185760, Note_on_c, 3, 39, 0
5, 186336, Note_on_c, 3, 55, 127
5, 186432, Note_on_c, 3, 55, 0
5, 186432, Note_on_c, 3, 51, 127
5, 186528, Note_on_c, 3, 51, 0
5, 186528, Note_on_c, 3, 50, 127
5, 186624, Note_on_c, 3, 50, 0
5, 186624, Note_on_c, 3, 51, 127
5, 186720, Note_on_c, 3, 51, 0
5, 186720, Note_on_c, 3, 55, 127
5, 186816, Note_on_c, 3, 55, 0
5, 186816, Note_on_c, 3, 51, 127
5, 186912, Note_on_c, 3, 51, 0
5, 186912, Note_on_c, 3, 56, 127
5, 187008, Note_on_c, 3, 56, 0
5, 187008, Note_on_c, 3, 51, 127
5, 187104, Note_on_c, 3, 51, 0
5, 187104, Note_on_c, 3, 58, 127
5, 187152, Note_on_c, 3, 58, 0
5, 187296, Note_on_c, 3, 60, 127
5, 187344, Note_on_c, 3, 60, 0
5, 187488, Note_on_c, 3, 58, 127
5, 187584, Note_on_c, 3, 58, 0
5, 187584, Note_on_c, 3, 55, 127
5, 187680, Note_on_c, 3, 55, 0
5, 187680, Note_on_c, 3, 53, 127
5, 187776, Note_on_c, 3, 53, 0
5, 187776, Note_on_c, 3, 51, 127
5, 187872, Note_on_c, 3, 51, 0
5, 187872, Note_on_c, 3, 50, 127
5, 187920, Note_on_c, 3, 50, 0
5, 188064, Note_on_c, 3, 51, 127
5, 188112, Note_on_c, 3, 51, 0
5, 188256, Note_on_c, 3, 46, 127
5, 188352, Note_on_c, 3, 46, 0
5, 188352, Note_on_c, 3, 44, 127
5, 188448, Note_on_c, 3, 44, 0
5, 188448, Note_on_c, 3, 43, 127
5, 188544, Note_on_c, 3, 43, 0
5, 188544, Note_on_c, 3, 41, 127
5, 188640, Note_on_c, 3, 41, 0
5, 188640, Note_on_c, 3, 39, 127
5, 188832, Note_on_c, 3, 39, 0
5, 188832, Note_on_c, 3, 43, 127
5, 189024, Note_on_c, 3, 43, 0
5, 189024, Note_on_c, 3, 46, 127
5, 189216, Note_on_c, 3, 46, 0
5, 189216, Note_on_c, 3, 48, 127
5, 189408, Note_on_c, 3, 48, 0
5, 189408, Note_on_c, 3, 50, 127
5, 189600, Note_on_c, 3, 50, 0
5, 189600, Note_on_c, 3, 43, 127
5, 189792, Note_on_c, 3, 43, 0
5, 189792, Note_on_c, 3, 48, 127
5, 189984, Note_on_c, 3, 48, 0
5, 189984, Note_on_c, 3, 36, 127
5, 190176, Note_on_c, 3, 36, 0
5, 190176, Note_on_c, 3, 48, 127
5, 190368, Note_on_c, 3, 48, 0
5, 190368, Note_on_c, 3, 50, 127
5, 190560, Note_on_c, 3, 50, 0
5, 190560, Note_on_c, 3, 51, 127
5, 190752, Note_on_c, 3, 51, 0
5, 190752, Note_on_c, 3, 53, 127
5, 190944, Note_on_c, 3, 53, 0
5, 190944, Note_on_c, 3, 55, 127
5, 191136, Note_on_c, 3, 55, 0
5, 191136, Note_on_c, 3, 51, 127
5, 191328, Note_on_c, 3, 51, 0
5, 191328, Note_on_c, 3, 53, 127
5, 191520, Note_on_c, 3, 53, 0
5, 191520, Note_on_c, 3, 51, 127
5, 191712, Note_on_c, 3, 51, 0
5, 191712, Note_on_c, 3, 50, 127
5, 191808, Note_on_c, 3, 50, 0
5, 191808, Note_on_c, 3, 46, 127
5, 191904, Note_on_c, 3, 46, 0
5, 191904, Note_on_c, 3, 45, 127
5, 192000, Note_on_c, 3, 45, 0
5, 192000, Note_on_c, 3, 46, 127
5, 192096, Note_on_c, 3, 46, 0
5, 192096, Note_on_c, 3, 50, 127
5, 192192, Note_on_c, 3, 50, 0
5, 192192, Note_on_c, 3, 46, 127
5, 192288, Note_on_c, 3, 46, 0
5, 192288, Note_on_c, 3, 51, 127
5, 192384, Note_on_c, 3, 51, 0
5, 192384, Note_on_c, 3, 46, 127
5, 192480, Note_on_c, 3, 46, 0
5, 192480, Note_on_c, 3, 53, 127
5, 192528, Note_on_c, 3, 53, 0
5, 192672, Note_on_c, 3, 55, 127
5, 192720, Note_on_c, 3, 55, 0
5, 192864, Note_on_c, 3, 53, 127
5, 192960, Note_on_c, 3, 53, 0
5, 192960, Note_on_c, 3, 50, 127
5, 193056, Note_on_c, 3, 50, 0
5, 193056, Note_on_c, 3, 48, 127
5, 193152, Note_on_c, 3, 48, 0
5, 193152, Note_on_c, 3, 46, 127
5, 193248, Note_on_c, 3, 46, 0
5, 193248, Note_on_c, 3, 45, 127
5, 193344, Note_on_c, 3, 45, 0
5, 193344, Note_on_c, 3, 46, 127
5, 193440, Note_on_c, 3, 46, 0
5, 193440, Note_on_c, 3, 48, 127
5, 193488, Note_on_c, 3, 48, 0
5, 193488, Note_on_c, 3, 46, 127
5, 193536, Note_on_c, 3, 46, 0
5, 193536, Note_on_c, 3, 45, 127
5, 193584, Note_on_c, 3, 45, 0
5, 193584, Note_on_c, 3, 46, 127
5, 193632, Note_on_c, 3, 46, 0
5, 193632, Note_on_c, 3, 48, 127
5, 193728, Note_on_c, 3, 48, 0
5, 193728, Note_on_c, 3, 50, 127
5, 193824, Note_on_c, 3, 50, 0
5, 193824, Note_on_c, 3, 51, 127
5, 193872, Note_on_c, 3, 51, 0
5, 193872, Note_on_c, 3, 50, 127
5, 193920, Note_on_c, 3, 50, 0
5, 193920, Note_on_c, 3, 48, 127
5, 193968, Note_on_c, 3, 48, 0
5, 193968, Note_on_c, 3, 50, 127
5, 194016, Note_on_c, 3, 50, 0
5, 194016, Note_on_c, 3, 51, 127
5, 194064, Note_on_c, 3, 51, 0
5, 194208, Note_on_c, 3, 53, 127
5, 194256, Note_on_c, 3, 53, 0
5, 194400, Note_on_c, 3, 55, 127
5, 194592, Note_on_c, 3, 55, 0
5, 194592, Note_on_c, 3, 43, 127
5, 194784, Note_on_c, 3, 43, 0
5, 194784, Note_on_c, 3, 55, 127
5, 194976, Note_on_c, 3, 55, 0
5, 194976, Note_on_c, 3, 53, 127
5, 195168, Note_on_c, 3, 53, 0
5, 195168, Note_on_c, 3, 51, 127
5, 195360, Note_on_c, 3, 51, 0
5, 195360, Note_on_c, 3, 39, 127
5, 195552, Note_on_c, 3, 39, 0
5, 195552, Note_on_c, 3, 51, 127
5, 195744, Note_on_c, 3, 51, 0
5, 195744, Note_on_c, 3, 50, 127
5, 195936, Note_on_c, 3, 50, 0
5, 195936, Note_on_c, 3, 55, 127
5, 196128, Note_on_c, 3, 55, 0
5, 196128, Note_on_c, 3, 43, 127
5, 196320, Note_on_c, 3, 43, 0
5, 196320, Note_on_c, 3, 55, 127
5, 196512, Note_on_c, 3, 55, 0
5, 196512, Note_on_c, 3, 53, 127
5, 196704, Note_on_c, 3, 53, 0
5, 196704, Note_on_c, 3, 52, 127
5, 196896, Note_on_c, 3, 52, 0
5, 196896, Note_on_c, 3, 55, 127
5, 197088, Note_on_c, 3, 55, 0
5, 197088, Note_on_c, 3, 48, 127
5, 197280, Note_on_c, 3, 48, 0
5, 197280, Note_on_c, 3, 52, 127
5, 197472, Note_on_c, 3, 52, 0
5, 197472, Note_on_c, 3, 53, 127
5, 197760, Note_on_c, 3, 53, 0
5, 197760, Note_on_c, 3, 51, 127
5, 197856, Note_on_c, 3, 51, 0
5, 197856, Note_on_c, 3, 50, 127
5, 197952, Note_on_c, 3, 50, 0
5, 197952, Note_on_c, 3, 62, 127
5, 198048, Note_on_c, 3, 62, 0
5, 198048, Note_on_c, 3, 60, 127
5, 198144, Note_on_c, 3, 60, 0
5, 198144, Note_on_c, 3, 62, 127
5, 198240, Note_on_c, 3, 62, 0
5, 198240, Note_on_c, 3, 51, 127
5, 198336, Note_on_c, 3, 51, 0
5, 198336, Note_on_c, 3, 62, 127
5, 198432, Note_on_c, 3, 62, 0
5, 198432, Note_on_c, 3, 60, 127
5, 198528, Note_on_c, 3, 60, 0
5, 198528, Note_on_c, 3, 62, 127
5, 198624, Note_on_c, 3, 62, 0
5, 198624, Note_on_c, 3, 53, 127
5, 198720, Note_on_c, 3, 53, 0
5, 198720, Note_on_c, 3, 62, 127
5, 198816, Note_on_c, 3, 62, 0
5, 198816, Note_on_c, 3, 60, 127
5, 198912, Note_on_c, 3, 60, 0
5, 198912, Note_on_c, 3, 62, 127
5, 199008, Note_on_c, 3, 62, 0
5, 199008, Note_on_c, 3, 55, 127
5, 199104, Note_on_c, 3, 55, 0
5, 199104, Note_on_c, 3, 62, 127
5, 199200, Note_on_c, 3, 62, 0
5, 199200, Note_on_c, 3, 60, 127
5, 199296, Note_on_c, 3, 60, 0
5, 199296, Note_on_c, 3, 62, 127
5, 199392, Note_on_c, 3, 62, 0
5, 199392, Note_on_c, 3, 50, 127
5, 199488, Note_on_c, 3, 50, 0
5, 199488, Note_on_c, 3, 62, 127
5, 199584, Note_on_c, 3, 62, 0
5, 199584, Note_on_c, 3, 60, 127
5, 199680, Note_on_c, 3, 60, 0
5, 199680, Note_on_c, 3, 62, 127
5, 199776, Note_on_c, 3, 62, 0
5, 199776, Note_on_c, 3, 51, 127
5, 199872, Note_on_c, 3, 51, 0
5, 199872, Note_on_c, 3, 62, 127
5, 199968, Note_on_c, 3, 62, 0
5, 199968, Note_on_c, 3, 60, 127
5, 200064, Note_on_c, 3, 60, 0
5, 200064, Note_on_c, 3, 58, 127
5, 200160, Note_on_c, 3, 58, 0
5, 200160, Note_on_c, 3, 53, 127
5, 200256, Note_on_c, 3, 53, 0
5, 200256, Note_on_c, 3, 60, 127
5, 200352, Note_on_c, 3, 60, 0
5, 200352, Note_on_c, 3, 58, 127
5, 200448, Note_on_c, 3, 58, 0
5, 200448, Note_on_c, 3, 57, 127
5, 200544, Note_on_c, 3, 57, 0
5, 200544, Note_on_c, 3, 58, 127
5, 200736, Note_on_c, 3, 58, 0
5, 200736, Note_on_c, 3, 46, 127
5, 200928, Note_on_c, 3, 46, 0
5, 200928, Note_on_c, 3, 58, 127
5, 201120, Note_on_c, 3, 58, 0
5, 201120, Note_on_c, 3, 53, 127
5, 201312, Note_on_c, 3, 53, 0
5, 201312, Note_on_c, 3, 46, 127
5, 201504, Note_on_c, 3, 46, 0
5, 201504, Note_on_c, 3, 48, 127
5, 201696, Note_on_c, 3, 48, 0
5, 201696, Note_on_c, 3, 50, 127
5, 201792, Note_on_c, 3, 50, 0
5, 201792, Note_on_c, 3, 58, 127
5, 201888, Note_on_c, 3, 58, 0
5, 201888, Note_on_c, 3, 60, 127
5, 201984, Note_on_c, 3, 60, 0
5, 201984, Note_on_c, 3, 58, 127
5, 202080, Note_on_c, 3, 58, 0
5, 202080, Note_on_c, 3, 51, 127
5, 202176, Note_on_c, 3, 51, 0
5, 202176, Note_on_c, 3, 58, 127
5, 202272, Note_on_c, 3, 58, 0
5, 202272, Note_on_c, 3, 60, 127
5, 202368, Note_on_c, 3, 60, 0
5, 202368, Note_on_c, 3, 58, 127
5, 202464, Note_on_c, 3, 58, 0
5, 202464, Note_on_c, 3, 52, 127
5, 202560, Note_on_c, 3, 52, 0
5, 202560, Note_on_c, 3, 60, 127
5, 202656, Note_on_c, 3, 60, 0
5, 202656, Note_on_c, 3, 61, 127
5, 202752, Note_on_c, 3, 61, 0
5, 202752, Note_on_c, 3, 60, 127
5, 202848, Note_on_c, 3, 60, 0
5, 202848, Note_on_c, 3, 53, 127
5, 202944, Note_on_c, 3, 53, 0
5, 202944, Note_on_c, 3, 60, 127
5, 203040, Note_on_c, 3, 60, 0
5, 203040, Note_on_c, 3, 61, 127
5, 203136, Note_on_c, 3, 61, 0
5, 203136, Note_on_c, 3, 60, 127
5, 203232, Note_on_c, 3, 60, 0
5, 203232, Note_on_c, 3, 54, 127
5, 203328, Note_on_c, 3, 54, 0
5, 203328, Note_on_c, 3, 62, 127
5, 203424, Note_on_c, 3, 62, 0
5, 203424, Note_on_c, 3, 63, 127
5, 203520, Note_on_c, 3, 63, 0
5, 203520, Note_on_c, 3, 62, 127
5, 203616, Note_on_c, 3, 62, 0
5, 203616, Note_on_c, 3, 55, 127
5, 203712, Note_on_c, 3, 55, 0
5, 203712, Note_on_c, 3, 62, 127
5, 203808, Note_on_c, 3, 62, 0
5, 203808, Note_on_c, 3, 63, 127
5, 203904, Note_on_c, 3, 63, 0
5, 203904, Note_on_c, 3, 62, 127
5, 204000, Note_on_c, 3, 62, 0
5, 204000, Note_on_c, 3, 60, 127
5, 204192, Note_on_c, 3, 60, 0
5, 204192, Note_on_c, 3, 58, 127
5, 204384, Note_on_c, 3, 58, 0
5, 204384, Note_on_c, 3, 56, 127
5, 204576, Note_on_c, 3, 56, 0
5, 204576, Note_on_c, 3, 58, 127
5, 204768, Note_on_c, 3, 58, 0
5, 204768, Note_on_c, 3, 56, 127
5, 204960, Note_on_c, 3, 56, 0
5, 204960, Note_on_c, 3, 55, 127
5, 205152, Note_on_c, 3, 55, 0
5, 205152, Note_on_c, 3, 53, 127
5, 205344, Note_on_c, 3, 53, 0
5, 205344, Note_on_c, 3, 51, 127
5, 205536, Note_on_c, 3, 51, 0
5, 205536, Note_on_c, 3, 50, 127
5, 205728, Note_on_c, 3, 50, 0
5, 205728, Note_on_c, 3, 62, 127
5, 205920, Note_on_c, 3, 62, 0
5, 205920, Note_on_c, 3, 63, 127
5, 206112, Note_on_c, 3, 63, 0
5, 206112, Note_on_c, 3, 51, 127
5, 206208, Note_on_c, 3, 51, 0
5, 206208, Note_on_c, 3, 53, 127
5, 206304, Note_on_c, 3, 53, 0
5, 206304, Note_on_c, 3, 55, 127
5, 206496, Note_on_c, 3, 55, 0
5, 206496, Note_on_c, 3, 43, 127
5, 206688, Note_on_c, 3, 43, 0
5, 206688, Note_on_c, 3, 48, 127
5, 206784, Note_on_c, 3, 48, 0
5, 206784, Note_on_c, 3, 50, 127
5, 206832, Note_on_c, 3, 50, 0
5, 206832, Note_on_c, 3, 51, 127
5, 206880, Note_on_c, 3, 51, 0
5, 206880, Note_on_c, 3, 53, 127
5, 206928, Note_on_c, 3, 53, 0
5, 206928, Note_on_c, 3, 55, 127
5, 206976, Note_on_c, 3, 55, 0
5, 206976, Note_on_c, 3, 57, 127
5, 207024, Note_on_c, 3, 57, 0
5, 207024, Note_on_c, 3, 59, 127
5, 207072, Note_on_c, 3, 59, 0
5, 207072, Note_on_c, 3, 60, 127
5, 207264, Note_on_c, 3, 60, 0
5, 207264, Note_on_c, 3, 48, 127
5, 207456, Note_on_c, 3, 48, 0
5, 207456, Note_on_c, 3, 46, 127
5, 207648, Note_on_c, 3, 46, 0
5, 207648, Note_on_c, 3, 44, 127
5, 207840, Note_on_c, 3, 44, 0
5, 207840, Note_on_c, 3, 43, 127
5, 207936, Note_on_c, 3, 43, 0
5, 207936, Note_on_c, 3, 51, 127
5, 208032, Note_on_c, 3, 51, 0
5, 208032, Note_on_c, 3, 53, 127
5, 208128, Note_on_c, 3, 53, 0
5, 208128, Note_on_c, 3, 51, 127
5, 208224, Note_on_c, 3, 51, 0
5, 208224, Note_on_c, 3, 44, 127
5, 208320, Note_on_c, 3, 44, 0
5, 208320, Note_on_c, 3, 48, 127
5, 208416, Note_on_c, 3, 48, 0
5, 208416, Note_on_c, 3, 50, 127
5, 208512, Note_on_c, 3, 50, 0
5, 208512, Note_on_c, 3, 51, 127
5, 208608, Note_on_c, 3, 51, 0
5, 208608, Note_on_c, 3, 53, 127
5, 208800, Note_on_c, 3, 53, 0
5, 208800, Note_on_c, 3, 48, 127
5, 208992, Note_on_c, 3, 48, 0
5, 208992, Note_on_c, 3, 41, 127
5, 209184, Note_on_c, 3, 41, 0
5, 209184, Note_on_c, 3, 43, 127
5, 209376, Note_on_c, 3, 43, 0
5, 209376, Note_on_c, 3, 45, 127
5, 209472, Note_on_c, 3, 45, 0
5, 209472, Note_on_c, 3, 53, 127
5, 209568, Note_on_c, 3, 53, 0
5, 209568, Note_on_c, 3, 55, 127
5, 209664, Note_on_c, 3, 55, 0
5, 209664, Note_on_c, 3, 53, 127
5, 209760, Note_on_c, 3, 53, 0
5, 209760, Note_on_c, 3, 46, 127
5, 209856, Note_on_c, 3, 46, 0
5, 209856, Note_on_c, 3, 53, 127
5, 209952, Note_on_c, 3, 53, 0
5, 209952, Note_on_c, 3, 55, 127
5, 210048, Note_on_c, 3, 55, 0
5, 210048, Note_on_c, 3, 56, 127
5, 210144, Note_on_c, 3, 56, 0
5, 210144, Note_on_c, 3, 55, 127
5, 210240, Note_on_c, 3, 55, 0
5, 210240, Note_on_c, 3, 51, 127
5, 210336, Note_on_c, 3, 51, 0
5, 210336, Note_on_c, 3, 50, 127
5, 210432, Note_on_c, 3, 50, 0
5, 210432, Note_on_c, 3, 51, 127
5, 210528, Note_on_c, 3, 51, 0
5, 210528, Note_on_c, 3, 55, 127
5, 210624, Note_on_c, 3, 55, 0
5, 210624, Note_on_c, 3, 51, 127
5, 210720, Note_on_c, 3, 51, 0
5, 210720, Note_on_c, 3, 56, 127
5, 210816, Note_on_c, 3, 56, 0
5, 210816, Note_on_c, 3, 51, 127
5, 210912, Note_on_c, 3, 51, 0
5, 210912, Note_on_c, 3, 58, 127
5, 211008, Note_on_c, 3, 58, 0
5, 211008, Note_on_c, 3, 51, 127
5, 211104, Note_on_c, 3, 51, 0
5, 211104, Note_on_c, 3, 61, 127
5, 211200, Note_on_c, 3, 61, 0
5, 211200, Note_on_c, 3, 51, 127
5, 211296, Note_on_c, 3, 51, 0
5, 211296, Note_on_c, 3, 60, 127
5, 211392, Note_on_c, 3, 60, 0
5, 211392, Note_on_c, 3, 51, 127
5, 211488, Note_on_c, 3, 51, 0
5, 211488, Note_on_c, 3, 58, 127
5, 211584, Note_on_c, 3, 58, 0
5, 211584, Note_on_c, 3, 51, 127
5, 211680, Note_on_c, 3, 51, 0
5, 211680, Note_on_c, 3, 56, 127
5, 211776, Note_on_c, 3, 56, 0
5, 211776, Note_on_c, 3, 51, 127
5, 211872, Note_on_c, 3, 51, 0
5, 211872, Note_on_c, 3, 60, 127
5, 211968, Note_on_c, 3, 60, 0
5, 211968, Note_on_c, 3, 51, 127
5, 212064, Note_on_c, 3, 51, 0
5, 212064, Note_on_c, 3, 58, 127
5, 212160, Note_on_c, 3, 58, 0
5, 212160, Note_on_c, 3, 51, 127
5, 212256, Note_on_c, 3, 51, 0
5, 212256, Note_on_c, 3, 56, 127
5, 212352, Note_on_c, 3, 56, 0
5, 212352, Note_on_c, 3, 51, 127
5, 212448, Note_on_c, 3, 51, 0
5, 212448, Note_on_c, 3, 55, 127
5, 212544, Note_on_c, 3, 55, 0
5, 212544, Note_on_c, 3, 51, 127
5, 212640, Note_on_c, 3, 51, 0
5, 212640, Note_on_c, 3, 58, 127
5, 212736, Note_on_c, 3, 58, 0
5, 212736, Note_on_c, 3, 51, 127
5, 212832, Note_on_c, 3, 51, 0
5, 212832, Note_on_c, 3, 56, 127
5, 212928, Note_on_c, 3, 56, 0
5, 212928, Note_on_c, 3, 51, 127
5, 213024, Note_on_c, 3, 51, 0
5, 213024, Note_on_c, 3, 55, 127
5, 213120, Note_on_c, 3, 55, 0
5, 213120, Note_on_c, 3, 51, 127
5, 213216, Note_on_c, 3, 51, 0
5, 213216, Note_on_c, 3, 53, 127
5, 213312, Note_on_c, 3, 53, 0
5, 213312, Note_on_c, 3, 51, 127
5, 213408, Note_on_c, 3, 51, 0
5, 213408, Note_on_c, 3, 56, 127
5, 213504, Note_on_c, 3, 56, 0
5, 213504, Note_on_c, 3, 51, 127
5, 213600, Note_on_c, 3, 51, 0
5, 213600, Note_on_c, 3, 55, 127
5, 213696, Note_on_c, 3, 55, 0
5, 213696, Note_on_c, 3, 51, 127
5, 213792, Note_on_c, 3, 51, 0
5, 213792, Note_on_c, 3, 53, 127
5, 213888, Note_on_c, 3, 53, 0
5, 213888, Note_on_c, 3, 55, 127
5, 213984, Note_on_c, 3, 55, 0
5, 213984, Note_on_c, 3, 56, 127
5, 214080, Note_on_c, 3, 56, 0
5, 214080, Note_on_c, 3, 55, 127
5, 214176, Note_on_c, 3, 55, 0
5, 214176, Note_on_c, 3, 53, 127
5, 214272, Note_on_c, 3, 53, 0
5, 214272, Note_on_c, 3, 51, 127
5, 214368, Note_on_c, 3, 51, 0
5, 214368, Note_on_c, 3, 50, 127
5, 214464, Note_on_c, 3, 50, 0
5, 214464, Note_on_c, 3, 46, 127
5, 214560, Note_on_c, 3, 46, 0
5, 214560, Note_on_c, 3, 48, 127
5, 214656, Note_on_c, 3, 48, 0
5, 214656, Note_on_c, 3, 50, 127
5, 214752, Note_on_c, 3, 50, 0
5, 214752, Note_on_c, 3, 51, 127
5, 214848, Note_on_c, 3, 51, 0
5, 214848, Note_on_c, 3, 50, 127
5, 214944, Note_on_c, 3, 50, 0
5, 214944, Note_on_c, 3, 48, 127
5, 215040, Note_on_c, 3, 48, 0
5, 215040, Note_on_c, 3, 46, 127
5, 215136, Note_on_c, 3, 46, 0
5, 215136, Note_on_c, 3, 44, 127
5, 215328, Note_on_c, 3, 44, 0
5, 215328, Note_on_c, 3, 41, 127
5, 215520, Note_on_c, 3, 41, 0
5, 215520, Note_on_c, 3, 46, 127
5, 215712, Note_on_c, 3, 46, 0
5, 215712, Note_on_c, 3, 43, 127
5, 215904, Note_on_c, 3, 43, 0
5, 215904, Note_on_c, 3, 48, 127
5, 216096, Note_on_c, 3, 48, 0
5, 216096, Note_on_c, 3, 44, 127
5, 216288, Note_on_c, 3, 44, 0
5, 216288, Note_on_c, 3, 50, 127
5, 216480, Note_on_c, 3, 50, 0
5, 216480, Note_on_c, 3, 46, 127
5, 216672, Note_on_c, 3, 46, 0
5, 216672, Note_on_c, 3, 51, 127
5, 216864, Note_on_c, 3, 51, 0
5, 216864, Note_on_c, 3, 48, 127
5, 217056, Note_on_c, 3, 48, 0
5, 217056, Note_on_c, 3, 53, 127
5, 217248, Note_on_c, 3, 53, 0
5, 217248, Note_on_c, 3, 50, 127
5, 217440, Note_on_c, 3, 50, 0
5, 217440, Note_on_c, 3, 55, 127
5, 217632, Note_on_c, 3, 55, 0
5, 217632, Note_on_c, 3, 56, 127
5, 217824, Note_on_c, 3, 56, 0
5, 217824, Note_on_c, 3, 55, 127
5, 218016, Note_on_c, 3, 55, 0
5, 218016, Note_on_c, 3, 53, 127
5, 218208, Note_on_c, 3, 53, 0
5, 218208, Note_on_c, 3, 52, 127
5, 218400, Note_on_c, 3, 52, 0
5, 218400, Note_on_c, 3, 53, 127
5, 218592, Note_on_c, 3, 53, 0
5, 218592, Note_on_c, 3, 55, 127
5, 218784, Note_on_c, 3, 55, 0
5, 218784, Note_on_c, 3, 48, 127
5, 218976, Note_on_c, 3, 48, 0
5, 218976, Note_on_c, 3, 53, 127
5, 219168, Note_on_c, 3, 53, 0
5, 219168, Note_on_c, 3, 41, 127
5, 219360, Note_on_c, 3, 41, 0
5, 219360, Note_on_c, 3, 53, 127
5, 219552, Note_on_c, 3, 53, 0
5, 219552, Note_on_c, 3, 55, 127
5, 219744, Note_on_c, 3, 55, 0
5, 219744, Note_on_c, 3, 56, 127
5, 219936, Note_on_c, 3, 56, 0
5, 219936, Note_on_c, 3, 58, 127
5, 220128, Note_on_c, 3, 58, 0
5, 220128, Note_on_c, 3, 60, 127
5, 220320, Note_on_c, 3, 60, 0
5, 220320, Note_on_c, 3, 56, 127
5, 220512, Note_on_c, 3, 56, 0
5, 220512, Note_on_c, 3, 58, 127
5, 220704, Note_on_c, 3, 58, 0
5, 220704, Note_on_c, 3, 56, 127
5, 220896, Note_on_c, 3, 56, 0
5, 220896, Note_on_c, 3, 55, 127
5, 220992, Note_on_c, 3, 55, 0
5, 220992, Note_on_c, 3, 51, 127
5, 221088, Note_on_c, 3, 51, 0
5, 221088, Note_on_c, 3, 50, 127
5, 221184, Note_on_c, 3, 50, 0
5, 221184, Note_on_c, 3, 51, 127
5, 221280, Note_on_c, 3, 51, 0
5, 221280, Note_on_c, 3, 55, 127
5, 221376, Note_on_c, 3, 55, 0
5, 221376, Note_on_c, 3, 51, 127
5, 221472, Note_on_c, 3, 51, 0
5, 221472, Note_on_c, 3, 56, 127
5, 221568, Note_on_c, 3, 56, 0
5, 221568, Note_on_c, 3, 51, 127
5, 221664, Note_on_c, 3, 51, 0
5, 221664, Note_on_c, 3, 58, 127
5, 221712, Note_on_c, 3, 58, 0
5, 221856, Note_on_c, 3, 60, 127
5, 221904, Note_on_c, 3, 60, 0
5, 222048, Note_on_c, 3, 58, 127
5, 222144, Note_on_c, 3, 58, 0
5, 222144, Note_on_c, 3, 55, 127
5, 222240, Note_on_c, 3, 55, 0
5, 222240, Note_on_c, 3, 53, 127
5, 222336, Note_on_c, 3, 53, 0
5, 222336, Note_on_c, 3, 51, 127
5, 222432, Note_on_c, 3, 51, 0
5, 222432, Note_on_c, 3, 50, 127
5, 222528, Note_on_c, 3, 50, 0
5, 222528, Note_on_c, 3, 51, 127
5, 222624, Note_on_c, 3, 51, 0
5, 222624, Note_on_c, 3, 53, 127
5, 222672, Note_on_c, 3, 53, 0
5, 222672, Note_on_c, 3, 51, 127
5, 222720, Note_on_c, 3, 51, 0
5, 222720, Note_on_c, 3, 50, 127
5, 222768, Note_on_c, 3, 50, 0
5, 222768, Note_on_c, 3, 51, 127
5, 222816, Note_on_c, 3, 51, 0
5, 222816, Note_on_c, 3, 53, 127
5, 222912, Note_on_c, 3, 53, 0
5, 222912, Note_on_c, 3, 55, 127
5, 223008, Note_on_c, 3, 55, 0
5, 223008, Note_on_c, 3, 56, 127
5, 223056, Note_on_c, 3, 56, 0
5, 223056, Note_on_c, 3, 55, 127
5, 223104, Note_on_c, 3, 55, 0
5, 223104, Note_on_c, 3, 53, 127
5, 223152, Note_on_c, 3, 53, 0
5, 223152, Note_on_c, 3, 55, 127
5, 223200, Note_on_c, 3, 55, 0
5, 223200, Note_on_c, 3, 56, 127
5, 223392, Note_on_c, 3, 56, 0
5, 223392, Note_on_c, 3, 58, 127
5, 223584, Note_on_c, 3, 58, 0
5, 223584, Note_on_c, 3, 60, 127
5, 223776, Note_on_c, 3, 60, 0
5, 223776, Note_on_c, 3, 48, 127
5, 223968, Note_on_c, 3, 48, 0
5, 223968, Note_on_c, 3, 60, 127
5, 224160, Note_on_c, 3, 60, 0
5, 224160, Note_on_c, 3, 58, 127
5, 224352, Note_on_c, 3, 58, 0
5, 224352, Note_on_c, 3, 56, 127
5, 224544, Note_on_c, 3, 56, 0
5, 224544, Note_on_c, 3, 44, 127
5, 224736, Note_on_c, 3, 44, 0
5, 224736, Note_on_c, 3, 56, 127
5, 224928, Note_on_c, 3, 56, 0
5, 224928, Note_on_c, 3, 55, 127
5, 225120, Note_on_c, 3, 55, 0
5, 225120, Note_on_c, 3, 60, 127
5, 225312, Note_on_c, 3, 60, 0
5, 225312, Note_on_c, 3, 48, 127
5, 225504, Note_on_c, 3, 48, 0
5, 225504, Note_on_c, 3, 60, 127
5, 225696, Note_on_c, 3, 60, 0
5, 225696, Note_on_c, 3, 58, 127
5, 225888, Note_on_c, 3, 58, 0
5, 225888, Note_on_c, 3, 57, 127
5, 226080, Note_on_c, 3, 57, 0
5, 226080, Note_on_c, 3, 60, 127
5, 226272, Note_on_c, 3, 60, 0
5, 226272, Note_on_c, 3, 53, 127
5, 226464, Note_on_c, 3, 53, 0
5, 226464, Note_on_c, 3, 57, 127
5, 226656, Note_on_c, 3, 57, 0
5, 226656, Note_on_c, 3, 58, 127
5, 226848, Note_on_c, 3, 58, 0
5, 226848, Note_on_c, 3, 56, 127
5, 227040, Note_on_c, 3, 56, 0
5, 227040, Note_on_c, 3, 55, 127
5, 227136, Note_on_c, 3, 55, 0
5, 227136, Note_on_c, 3, 63, 127
5, 227232, Note_on_c, 3, 63, 0
5, 227232, Note_on_c, 3, 62, 127
5, 227328, Note_on_c, 3, 62, 0
5, 227328, Note_on_c, 3, 63, 127
5, 227424, Note_on_c, 3, 63, 0
5, 227424, Note_on_c, 3, 56, 127
5, 227520, Note_on_c, 3, 56, 0
5, 227520, Note_on_c, 3, 63, 127
5, 227616, Note_on_c, 3, 63, 0
5, 227616, Note_on_c, 3, 62, 127
5, 227712, Note_on_c, 3, 62, 0
5, 227712, Note_on_c, 3, 63, 127
5, 227808, Note_on_c, 3, 63, 0
5, 227808, Note_on_c, 3, 58, 127
5, 227904, Note_on_c, 3, 58, 0
5, 227904, Note_on_c, 3, 63, 127
5, 228000, Note_on_c, 3, 63, 0
5, 228000, Note_on_c, 3, 62, 127
5, 228096, Note_on_c, 3, 62, 0
5, 228096, Note_on_c, 3, 63, 127
5, 228192, Note_on_c, 3, 63, 0
5, 228192, Note_on_c, 3, 60, 127
5, 228288, Note_on_c, 3, 60, 0
5, 228288, Note_on_c, 3, 63, 127
5, 228384, Note_on_c, 3, 63, 0
5, 228384, Note_on_c, 3, 62, 127
5, 228480, Note_on_c, 3, 62, 0
5, 228480, Note_on_c, 3, 63, 127
5, 228576, Note_on_c, 3, 63, 0
5, 228576, Note_on_c, 3, 55, 127
5, 228672, Note_on_c, 3, 55, 0
5, 228672, Note_on_c, 3, 63, 127
5, 228768, Note_on_c, 3, 63, 0
5, 228768, Note_on_c, 3, 62, 127
5, 228864, Note_on_c, 3, 62, 0
5, 228864, Note_on_c, 3, 63, 127
5, 228960, Note_on_c, 3, 63, 0
5, 228960, Note_on_c, 3, 56, 127
5, 229056, Note_on_c, 3, 56, 0
5, 229056, Note_on_c, 3, 63, 127
5, 229152, Note_on_c, 3, 63, 0
5, 229152, Note_on_c, 3, 62, 127
5, 229248, Note_on_c, 3, 62, 0
5, 229248, Note_on_c, 3, 63, 127
5, 229344, Note_on_c, 3, 63, 0
5, 229344, Note_on_c, 3, 58, 127
5, 229440, Note_on_c, 3, 58, 0
5, 229440, Note_on_c, 3, 63, 127
5, 229536, Note_on_c, 3, 63, 0
5, 229536, Note_on_c, 3, 62, 127
5, 229632, Note_on_c, 3, 62, 0
5, 229632, Note_on_c, 3, 63, 127
5, 229728, Note_on_c, 3, 63, 0
5, 229728, Note_on_c, 3, 51, 127
5, 229920, Note_on_c, 3, 51, 0
5, 230112, Note_on_c, 3, 43, 127
5, 230208, Note_on_c, 3, 43, 0
5, 230208, Note_on_c, 3, 55, 127
5, 230304, Note_on_c, 3, 55, 0
5, 230304, Note_on_c, 3, 53, 127
5, 230400, Note_on_c, 3, 53, 0
5, 230400, Note_on_c, 3, 55, 127
5, 230496, Note_on_c, 3, 55, 0
5, 230496, Note_on_c, 3, 44, 127
5, 230592, Note_on_c, 3, 44, 0
5, 230592, Note_on_c, 3, 55, 127
5, 230688, Note_on_c, 3, 55, 0
5, 230688, Note_on_c, 3, 53, 127
5, 230784, Note_on_c, 3, 53, 0
5, 230784, Note_on_c, 3, 55, 127
5, 230880, Note_on_c, 3, 55, 0
5, 230880, Note_on_c, 3, 46, 127
5, 230976, Note_on_c, 3, 46, 0
5, 230976, Note_on_c, 3, 55, 127
5, 231072, Note_on_c, 3, 55, 0
5, 231072, Note_on_c, 3, 53, 127
5, 231168, Note_on_c, 3, 53, 0
5, 231168, Note_on_c, 3, 55, 127
5, 231264, Note_on_c, 3, 55, 0
5, 231264, Note_on_c, 3, 48, 127
5, 231360, Note_on_c, 3, 48, 0
5, 231360, Note_on_c, 3, 55, 127
5, 231456, Note_on_c, 3, 55, 0
5, 231456, Note_on_c, 3, 53, 127
5, 231552, Note_on_c, 3, 53, 0
5, 231552, Note_on_c, 3, 55, 127
5, 231648, Note_on_c, 3, 55, 0
5, 231648, Note_on_c, 3, 43, 127
5, 231744, Note_on_c, 3, 43, 0
5, 231744, Note_on_c, 3, 55, 127
5, 231840, Note_on_c, 3, 55, 0
5, 231840, Note_on_c, 3, 53, 127
5, 231936, Note_on_c, 3, 53, 0
5, 231936, Note_on_c, 3, 55, 127
5, 232032, Note_on_c, 3, 55, 0
5, 232032, Note_on_c, 3, 44, 127
5, 232128, Note_on_c, 3, 44, 0
5, 232128, Note_on_c, 3, 55, 127
5, 232224, Note_on_c, 3, 55, 0
5, 232224, Note_on_c, 3, 53, 127
5, 232320, Note_on_c, 3, 53, 0
5, 232320, Note_on_c, 3, 51, 127
5, 232416, Note_on_c, 3, 51, 0
5, 232416, Note_on_c, 3, 46, 127
5, 232512, Note_on_c, 3, 46, 0
5, 232512, Note_on_c, 3, 50, 127
5, 232608, Note_on_c, 3, 50, 0
5, 232608, Note_on_c, 3, 53, 127
5, 232704, Note_on_c, 3, 53, 0
5, 232704, Note_on_c, 3, 56, 127
5, 232800, Note_on_c, 3, 56, 0
5, 232800, Note_on_c, 3, 51, 127
5, 232800, Note_on_c, 3, 55, 127
5, 232992, Note_on_c, 3, 55, 0
5, 232992, Note_on_c, 3, 51, 0
5, 232992, Note_on_c, 3, 39, 127
5, 233184, Note_on_c, 3, 39, 0
5, 233184, Note_on_c, 3, 58, 127
5, 233376, Note_on_c, 3, 58, 0
5, 233376, Note_on_c, 3, 53, 127
5, 233568, Note_on_c, 3, 53, 0
5, 233568, Note_on_c, 3, 46, 127
5, 233760, Note_on_c, 3, 46, 0
5, 233760, Note_on_c, 3, 48, 127
5, 233952, Note_on_c, 3, 48, 0
5, 233952, Note_on_c, 3, 50, 127
5, 234048, Note_on_c, 3, 50, 0
5, 234048, Note_on_c, 3, 58, 127
5, 234144, Note_on_c, 3, 58, 0
5, 234144, Note_on_c, 3, 60, 127
5, 234240, Note_on_c, 3, 60, 0
5, 234240, Note_on_c, 3, 58, 127
5, 234336, Note_on_c, 3, 58, 0
5, 234336, Note_on_c, 3, 51, 127
5, 234432, Note_on_c, 3, 51, 0
5, 234432, Note_on_c, 3, 58, 127
5, 234528, Note_on_c, 3, 58, 0
5, 234528, Note_on_c, 3, 60, 127
5, 234624, Note_on_c, 3, 60, 0
5, 234624, Note_on_c, 3, 58, 127
5, 234720, Note_on_c, 3, 58, 0
5, 234720, Note_on_c, 3, 52, 127
5, 234816, Note_on_c, 3, 52, 0
5, 234816, Note_on_c, 3, 60, 127
5, 234912, Note_on_c, 3, 60, 0
5, 234912, Note_on_c, 3, 61, 127
5, 235008, Note_on_c, 3, 61, 0
5, 235008, Note_on_c, 3, 60, 127
5, 235104, Note_on_c, 3, 60, 0
5, 235104, Note_on_c, 3, 53, 127
5, 235200, Note_on_c, 3, 53, 0
5, 235200, Note_on_c, 3, 60, 127
5, 235296, Note_on_c, 3, 60, 0
5, 235296, Note_on_c, 3, 61, 127
5, 235392, Note_on_c, 3, 61, 0
5, 235392, Note_on_c, 3, 60, 127
5, 235488, Note_on_c, 3, 60, 0
5, 235488, Note_on_c, 3, 54, 127
5, 235584, Note_on_c, 3, 54, 0
5, 235584, Note_on_c, 3, 62, 127
5, 235680, Note_on_c, 3, 62, 0
5, 235680, Note_on_c, 3, 63, 127
5, 235776, Note_on_c, 3, 63, 0
5, 235776, Note_on_c, 3, 62, 127
5, 235872, Note_on_c, 3, 62, 0
5, 235872, Note_on_c, 3, 55, 127
5, 235968, Note_on_c, 3, 55, 0
5, 235968, Note_on_c, 3, 62, 127
5, 236064, Note_on_c, 3, 62, 0
5, 236064, Note_on_c, 3, 63, 127
5, 236160, Note_on_c, 3, 63, 0
5, 236160, Note_on_c, 3, 62, 127
5, 236256, Note_on_c, 3, 62, 0
5, 236256, Note_on_c, 3, 60, 127
5, 236448, Note_on_c, 3, 60, 0
5, 236448, Note_on_c, 3, 58, 127
5, 236640, Note_on_c, 3, 58, 0
5, 236640, Note_on_c, 3, 56, 127
5, 236832, Note_on_c, 3, 56, 0
5, 236832, Note_on_c, 3, 58, 127
5, 237024, Note_on_c, 3, 58, 0
5, 237024, Note_on_c, 3, 56, 127
5, 237216, Note_on_c, 3, 56, 0
5, 237216, Note_on_c, 3, 55, 127
5, 237408, Note_on_c, 3, 55, 0
5, 237408, Note_on_c, 3, 53, 127
5, 237600, Note_on_c, 3, 53, 0
5, 237600, Note_on_c, 3, 51, 127
5, 237792, Note_on_c, 3, 51, 0
5, 237792, Note_on_c, 3, 50, 127
5, 237984, Note_on_c, 3, 50, 0
5, 237984, Note_on_c, 3, 62, 127
5, 238176, Note_on_c, 3, 62, 0
5, 238176, Note_on_c, 3, 63, 127
5, 238368, Note_on_c, 3, 63, 0
5, 238368, Note_on_c, 3, 51, 127
5, 238464, Note_on_c, 3, 51, 0
5, 238464, Note_on_c, 3, 53, 127
5, 238560, Note_on_c, 3, 53, 0
5, 238560, Note_on_c, 3, 55, 127
5, 238752, Note_on_c, 3, 55, 0
5, 238752, Note_on_c, 3, 43, 127
5, 238944, Note_on_c, 3, 43, 0
5, 238944, Note_on_c, 3, 48, 127
5, 239040, Note_on_c, 3, 48, 0
5, 239040, Note_on_c, 3, 50, 127
5, 239088, Note_on_c, 3, 50, 0
5, 239088, Note_on_c, 3, 51, 127
5, 239136, Note_on_c, 3, 51, 0
5, 239136, Note_on_c, 3, 53, 127
5, 239184, Note_on_c, 3, 53, 0
5, 239184, Note_on_c, 3, 55, 127
5, 239232, Note_on_c, 3, 55, 0
5, 239232, Note_on_c, 3, 57, 127
5, 239280, Note_on_c, 3, 57, 0
5, 239280, Note_on_c, 3, 59, 127
5, 239328, Note_on_c, 3, 59, 0
5, 239328, Note_on_c, 3, 60, 127
5, 239520, Note_on_c, 3, 60, 0
5, 239520, Note_on_c, 3, 48, 127
5, 239712, Note_on_c, 3, 48, 0
5, 239712, Note_on_c, 3, 46, 127
5, 239904, Note_on_c, 3, 46, 0
5, 239904, Note_on_c, 3, 44, 127
5, 240096, Note_on_c, 3, 44, 0
5, 240096, Note_on_c, 3, 43, 127
5, 240192, Note_on_c, 3, 43, 0
5, 240192, Note_on_c, 3, 51, 127
5, 240288, Note_on_c, 3, 51, 0
5, 240288, Note_on_c, 3, 53, 127
5, 240384, Note_on_c, 3, 53, 0
5, 240384, Note_on_c, 3, 51, 127
5, 240480, Note_on_c, 3, 51, 0
5, 240480, Note_on_c, 3, 44, 127
5, 240576, Note_on_c, 3, 44, 0
5, 240576, Note_on_c, 3, 48, 127
5, 240672, Note_on_c, 3, 48, 0
5, 240672, Note_on_c, 3, 50, 127
5, 240768, Note_on_c, 3, 50, 0
5, 240768, Note_on_c, 3, 51, 127
5, 240864, Note_on_c, 3, 51, 0
5, 240864, Note_on_c, 3, 53, 127
5, 241056, Note_on_c, 3, 53, 0
5, 241056, Note_on_c, 3, 48, 127
5, 241248, Note_on_c, 3, 48, 0
5, 241248, Note_on_c, 3, 41, 127
5, 241440, Note_on_c, 3, 41, 0
5, 241440, Note_on_c, 3, 43, 127
5, 241632, Note_on_c, 3, 43, 0
5, 241632, Note_on_c, 3, 45, 127
5, 241728, Note_on_c, 3, 45, 0
5, 241728, Note_on_c, 3, 53, 127
5, 241824, Note_on_c, 3, 53, 0
5, 241824, Note_on_c, 3, 55, 127
5, 241920, Note_on_c, 3, 55, 0
5, 241920, Note_on_c, 3, 53, 127
5, 242016, Note_on_c, 3, 53, 0
5, 242016, Note_on_c, 3, 46, 127
5, 242112, Note_on_c, 3, 46, 0
5, 242112, Note_on_c, 3, 53, 127
5, 242208, Note_on_c, 3, 53, 0
5, 242208, Note_on_c, 3, 55, 127
5, 242304, Note_on_c, 3, 55, 0
5, 242304, Note_on_c, 3, 56, 127
5, 242400, Note_on_c, 3, 56, 0
5, 242400, Note_on_c, 3, 55, 127
5, 242496, Note_on_c, 3, 55, 0
5, 242496, Note_on_c, 3, 51, 127
5, 242592, Note_on_c, 3, 51, 0
5, 242592, Note_on_c, 3, 50, 127
5, 242688, Note_on_c, 3, 50, 0
5, 242688, Note_on_c, 3, 51, 127
5, 242784, Note_on_c, 3, 51, 0
5, 242784, Note_on_c, 3, 55, 127
5, 242880, Note_on_c, 3, 55, 0
5, 242880, Note_on_c, 3, 51, 127
5, 242976, Note_on_c, 3, 51, 0
5, 242976, Note_on_c, 3, 56, 127
5, 243072, Note_on_c, 3, 56, 0
5, 243072, Note_on_c, 3, 51, 127
5, 243168, Note_on_c, 3, 51, 0
5, 243168, Note_on_c, 3, 58, 127
5, 243264, Note_on_c, 3, 58, 0
5, 243264, Note_on_c, 3, 51, 127
5, 243360, Note_on_c, 3, 51, 0
5, 243360, Note_on_c, 3, 61, 127
5, 243456, Note_on_c, 3, 61, 0
5, 243456, Note_on_c, 3, 51, 127
5, 243552, Note_on_c, 3, 51, 0
5, 243552, Note_on_c, 3, 60, 127
5, 243648, Note_on_c, 3, 60, 0
5, 243648, Note_on_c, 3, 51, 127
5, 243744, Note_on_c, 3, 51, 0
5, 243744, Note_on_c, 3, 58, 127
5, 243840, Note_on_c, 3, 58, 0
5, 243840, Note_on_c, 3, 51, 127
5, 243936, Note_on_c, 3, 51, 0
5, 243936, Note_on_c, 3, 56, 127
5, 244032, Note_on_c, 3, 56, 0
5, 244032, Note_on_c, 3, 51, 127
5, 244128, Note_on_c, 3, 51, 0
5, 244128, Note_on_c, 3, 60, 127
5, 244224, Note_on_c, 3, 60, 0
5, 244224, Note_on_c, 3, 51, 127
5, 244320, Note_on_c, 3, 51, 0
5, 244320, Note_on_c, 3, 58, 127
5, 244416, Note_on_c, 3, 58, 0
5, 244416, Note_on_c, 3, 51, 127
5, 244512, Note_on_c, 3, 51, 0
5, 244512, Note_on_c, 3, 56, 127
5, 244608, Note_on_c, 3, 56, 0
5, 244608, Note_on_c, 3, 51, 127
5, 244704, Note_on_c, 3, 51, 0
5, 244704, Note_on_c, 3, 55, 127
5, 244800, Note_on_c, 3, 55, 0
5, 244800, Note_on_c, 3, 51, 127
5, 244896, Note_on_c, 3, 51, 0
5, 244896, Note_on_c, 3, 58, 127
5, 244992, Note_on_c, 3, 58, 0
5, 244992, Note_on_c, 3, 51, 127
5, 245088, Note_on_c, 3, 51, 0
5, 245088, Note_on_c, 3, 56, 127
5, 245184, Note_on_c, 3, 56, 0
5, 245184, Note_on_c, 3, 51, 127
5, 245280, Note_on_c, 3, 51, 0
5, 245280, Note_on_c, 3, 55, 127
5, 245376, Note_on_c, 3, 55, 0
5, 245376, Note_on_c, 3, 51, 127
5, 245472, Note_on_c, 3, 51, 0
5, 245472, Note_on_c, 3, 53, 127
5, 245568, Note_on_c, 3, 53, 0
5, 245568, Note_on_c, 3, 51, 127
5, 245664, Note_on_c, 3, 51, 0
5, 245664, Note_on_c, 3, 56, 127
5, 245760, Note_on_c, 3, 56, 0
5, 245760, Note_on_c, 3, 51, 127
5, 245856, Note_on_c, 3, 51, 0
5, 245856, Note_on_c, 3, 55, 127
5, 245952, Note_on_c, 3, 55, 0
5, 245952, Note_on_c, 3, 51, 127
5, 246048, Note_on_c, 3, 51, 0
5, 246048, Note_on_c, 3, 53, 127
5, 246144, Note_on_c, 3, 53, 0
5, 246144, Note_on_c, 3, 55, 127
5, 246240, Note_on_c, 3, 55, 0
5, 246240, Note_on_c, 3, 56, 127
5, 246336, Note_on_c, 3, 56, 0
5, 246336, Note_on_c, 3, 55, 127
5, 246432, Note_on_c, 3, 55, 0
5, 246432, Note_on_c, 3, 53, 127
5, 246528, Note_on_c, 3, 53, 0
5, 246528, Note_on_c, 3, 51, 127
5, 246624, Note_on_c, 3, 51, 0
5, 246624, Note_on_c, 3, 50, 127
5, 246720, Note_on_c, 3, 50, 0
5, 246720, Note_on_c, 3, 46, 127
5, 246816, Note_on_c, 3, 46, 0
5, 246816, Note_on_c, 3, 48, 127
5, 246912, Note_on_c, 3, 48, 0
5, 246912, Note_on_c, 3, 50, 127
5, 247008, Note_on_c, 3, 50, 0
5, 247008, Note_on_c, 3, 51, 127
5, 247104, Note_on_c, 3, 51, 0
5, 247104, Note_on_c, 3, 50, 127
5, 247200, Note_on_c, 3, 50, 0
5, 247200, Note_on_c, 3, 48, 127
5, 247296, Note_on_c, 3, 48, 0
5, 247296, Note_on_c, 3, 46, 127
5, 247392, Note_on_c, 3, 46, 0
5, 247392, Note_on_c, 3, 44, 127
5, 247584, Note_on_c, 3, 44, 0
5, 247584, Note_on_c, 3, 41, 127
5, 247776, Note_on_c, 3, 41, 0
5, 247776, Note_on_c, 3, 46, 127
5, 247968, Note_on_c, 3, 46, 0
5, 247968, Note_on_c, 3, 43, 127
5, 248160, Note_on_c, 3, 43, 0
5, 248160, Note_on_c, 3, 48, 127
5, 248352, Note_on_c, 3, 48, 0
5, 248352, Note_on_c, 3, 44, 127
5, 248544, Note_on_c, 3, 44, 0
5, 248544, Note_on_c, 3, 50, 127
5, 248736, Note_on_c, 3, 50, 0
5, 248736, Note_on_c, 3, 46, 127
5, 248928, Note_on_c, 3, 46, 0
5, 248928, Note_on_c, 3, 51, 127
5, 249120, Note_on_c, 3, 51, 0
5, 249120, Note_on_c, 3, 48, 127
5, 249312, Note_on_c, 3, 48, 0
5, 249312, Note_on_c, 3, 53, 127
5, 249504, Note_on_c, 3, 53, 0
5, 249504, Note_on_c, 3, 50, 127
5, 249696, Note_on_c, 3, 50, 0
5, 249696, Note_on_c, 3, 55, 127
5, 249888, Note_on_c, 3, 55, 0
5, 249888, Note_on_c, 3, 56, 127
5, 250080, Note_on_c, 3, 56, 0
5, 250080, Note_on_c, 3, 55, 127
5, 250272, Note_on_c, 3, 55, 0
5, 250272, Note_on_c, 3, 53, 127
5, 250464, Note_on_c, 3, 53, 0
5, 250464, Note_on_c, 3, 52, 127
5, 250656, Note_on_c, 3, 52, 0
5, 250656, Note_on_c, 3, 53, 127
5, 250848, Note_on_c, 3, 53, 0
5, 250848, Note_on_c, 3, 55, 127
5, 251040, Note_on_c, 3, 55, 0
5, 251040, Note_on_c, 3, 48, 127
5, 251232, Note_on_c, 3, 48, 0
5, 251232, Note_on_c, 3, 53, 127
5, 251424, Note_on_c, 3, 53, 0
5, 251424, Note_on_c, 3, 41, 127
5, 251616, Note_on_c, 3, 41, 0
5, 251616, Note_on_c, 3, 53, 127
5, 251808, Note_on_c, 3, 53, 0
5, 251808, Note_on_c, 3, 55, 127
5, 252000, Note_on_c, 3, 55, 0
5, 252000, Note_on_c, 3, 56, 127
5, 252192, Note_on_c, 3, 56, 0
5, 252192, Note_on_c, 3, 58, 127
5, 252384, Note_on_c, 3, 58, 0
5, 252384, Note_on_c, 3, 60, 127
5, 252576, Note_on_c, 3, 60, 0
5, 252576, Note_on_c, 3, 56, 127
5, 252768, Note_on_c, 3, 56, 0
5, 252768, Note_on_c, 3, 58, 127
5, 252960, Note_on_c, 3, 58, 0
5, 252960, Note_on_c, 3, 56, 127
5, 253152, Note_on_c, 3, 56, 0
5, 253152, Note_on_c, 3, 55, 127
5, 253248, Note_on_c, 3, 55, 0
5, 253248, Note_on_c, 3, 51, 127
5, 253344, Note_on_c, 3, 51, 0
5, 253344, Note_on_c, 3, 50, 127
5, 253440, Note_on_c, 3, 50, 0
5, 253440, Note_on_c, 3, 51, 127
5, 253536, Note_on_c, 3, 51, 0
5, 253536, Note_on_c, 3, 55, 127
5, 253632, Note_on_c, 3, 55, 0
5, 253632, Note_on_c, 3, 51, 127
5, 253728, Note_on_c, 3, 51, 0
5, 253728, Note_on_c, 3, 56, 127
5, 253824, Note_on_c, 3, 56, 0
5, 253824, Note_on_c, 3, 51, 127
5, 253920, Note_on_c, 3, 51, 0
5, 253920, Note_on_c, 3, 58, 127
5, 253968, Note_on_c, 3, 58, 0
5, 254112, Note_on_c, 3, 60, 127
5, 254160, Note_on_c, 3, 60, 0
5, 254304, Note_on_c, 3, 58, 127
5, 254400, Note_on_c, 3, 58, 0
5, 254400, Note_on_c, 3, 55, 127
5, 254496, Note_on_c, 3, 55, 0
5, 254496, Note_on_c, 3, 53, 127
5, 254592, Note_on_c, 3, 53, 0
5, 254592, Note_on_c, 3, 51, 127
5, 254688, Note_on_c, 3, 51, 0
5, 254688, Note_on_c, 3, 50, 127
5, 254784, Note_on_c, 3, 50, 0
5, 254784, Note_on_c, 3, 51, 127
5, 254880, Note_on_c, 3, 51, 0
5, 254880, Note_on_c, 3, 53, 127
5, 254928, Note_on_c, 3, 53, 0
5, 254928, Note_on_c, 3, 51, 127
5, 254976, Note_on_c, 3, 51, 0
5, 254976, Note_on_c, 3, 50, 127
5, 255024, Note_on_c, 3, 50, 0
5, 255024, Note_on_c, 3, 51, 127
5, 255072, Note_on_c, 3, 51, 0
5, 255072, Note_on_c, 3, 53, 127
5, 255168, Note_on_c, 3, 53, 0
5, 255168, Note_on_c, 3, 55, 127
5, 255264, Note_on_c, 3, 55, 0
5, 255264, Note_on_c, 3, 56, 127
5, 255312, Note_on_c, 3, 56, 0
5, 255312, Note_on_c, 3, 55, 127
5, 255360, Note_on_c, 3, 55, 0
5, 255360, Note_on_c, 3, 53, 127
5, 255408, Note_on_c, 3, 53, 0
5, 255408, Note_on_c, 3, 55, 127
5, 255456, Note_on_c, 3, 55, 0
5, 255456, Note_on_c, 3, 56, 127
5, 255648, Note_on_c, 3, 56, 0
5, 255648, Note_on_c, 3, 58, 127
5, 255840, Note_on_c, 3, 58, 0
5, 255840, Note_on_c, 3, 60, 127
5, 256032, Note_on_c, 3, 60, 0
5, 256032, Note_on_c, 3, 48, 127
5, 256224, Note_on_c, 3, 48, 0
5, 256224, Note_on_c, 3, 60, 127
5, 256416, Note_on_c, 3, 60, 0
5, 256416, Note_on_c, 3, 58, 127
5, 256608, Note_on_c, 3, 58, 0
5, 256608, Note_on_c, 3, 56, 127
5, 256800, Note_on_c, 3, 56, 0
5, 256800, Note_on_c, 3, 44, 127
5, 256992, Note_on_c, 3, 44, 0
5, 256992, Note_on_c, 3, 56, 127
5, 257184, Note_on_c, 3, 56, 0
5, 257184, Note_on_c, 3, 55, 127
5, 257376, Note_on_c, 3, 55, 0
5, 257376, Note_on_c, 3, 60, 127
5, 257568, Note_on_c, 3, 60, 0
5, 257568, Note_on_c, 3, 48, 127
5, 257760, Note_on_c, 3, 48, 0
5, 257760, Note_on_c, 3, 60, 127
5, 257952, Note_on_c, 3, 60, 0
5, 257952, Note_on_c, 3, 58, 127
5, 258144, Note_on_c, 3, 58, 0
5, 258144, Note_on_c, 3, 57, 127
5, 258336, Note_on_c, 3, 57, 0
5, 258336, Note_on_c, 3, 60, 127
5, 258528, Note_on_c, 3, 60, 0
5, 258528, Note_on_c, 3, 53, 127
5, 258720, Note_on_c, 3, 53, 0
5, 258720, Note_on_c, 3, 57, 127
5, 258912, Note_on_c, 3, 57, 0
5, 258912, Note_on_c, 3, 58, 127
5, 259104, Note_on_c, 3, 58, 0
5, 259104, Note_on_c, 3, 56, 127
5, 259296, Note_on_c, 3, 56, 0
5, 259296, Note_on_c, 3, 55, 127
5, 259392, Note_on_c, 3, 55, 0
5, 259392, Note_on_c, 3, 63, 127
5, 259488, Note_on_c, 3, 63, 0
5, 259488, Note_on_c, 3, 62, 127
5, 259584, Note_on_c, 3, 62, 0
5, 259584, Note_on_c, 3, 63, 127
5, 259680, Note_on_c, 3, 63, 0
5, 259680, Note_on_c, 3, 56, 127
5, 259776, Note_on_c, 3, 56, 0
5, 259776, Note_on_c, 3, 63, 127
5, 259872, Note_on_c, 3, 63, 0
5, 259872, Note_on_c, 3, 62, 127
5, 259968, Note_on_c, 3, 62, 0
5, 259968, Note_on_c, 3, 63, 127
5, 260064, Note_on_c, 3, 63, 0
5, 260064, Note_on_c, 3, 58, 127
5, 260160, Note_on_c, 3, 58, 0
5, 260160, Note_on_c, 3, 63, 127
5, 260256, Note_on_c, 3, 63, 0
5, 260256, Note_on_c, 3, 62, 127
5, 260352, Note_on_c, 3, 62, 0
5, 260352, Note_on_c, 3, 63, 127
5, 260448, Note_on_c, 3, 63, 0
5, 260448, Note_on_c, 3, 60, 127
5, 260544, Note_on_c, 3, 60, 0
5, 260544, Note_on_c, 3, 63, 127
5, 260640, Note_on_c, 3, 63, 0
5, 260640, Note_on_c, 3, 62, 127
5, 260736, Note_on_c, 3, 62, 0
5, 260736, Note_on_c, 3, 63, 127
5, 260832, Note_on_c, 3, 63, 0
5, 260832, Note_on_c, 3, 55, 127
5, 260928, Note_on_c, 3, 55, 0
5, 260928, Note_on_c, 3, 63, 127
5, 261024, Note_on_c, 3, 63, 0
5, 261024, Note_on_c, 3, 62, 127
5, 261120, Note_on_c, 3, 62, 0
5, 261120, Note_on_c, 3, 63, 127
5, 261216, Note_on_c, 3, 63, 0
5, 261216, Note_on_c, 3, 56, 127
5, 261312, Note_on_c, 3, 56, 0
5, 261312, Note_on_c, 3, 63, 127
5, 261408, Note_on_c, 3, 63, 0
5, 261408, Note_on_c, 3, 62, 127
5, 261504, Note_on_c, 3, 62, 0
5, 261504, Note_on_c, 3, 63, 127
5, 261600, Note_on_c, 3, 63, 0
5, 261600, Note_on_c, 3, 58, 127
5, 261696, Note_on_c, 3, 58, 0
5, 261696, Note_on_c, 3, 63, 127
5, 261792, Note_on_c, 3, 63, 0
5, 261792, Note_on_c, 3, 62, 127
5, 261888, Note_on_c, 3, 62, 0
5, 261888, Note_on_c, 3, 63, 127
5, 261984, Note_on_c, 3, 63, 0
5, 261984, Note_on_c, 3, 51, 127
5, 262176, Note_on_c, 3, 51, 0
5, 262368, Note_on_c, 3, 43, 127
5, 262464, Note_on_c, 3, 43, 0
5, 262464, Note_on_c, 3, 55, 127
5, 262560, Note_on_c, 3, 55, 0
5, 262560, Note_on_c, 3, 53, 127
5, 262656, Note_on_c, 3, 53, 0
5, 262656, Note_on_c, 3, 55, 127
5, 262752, Note_on_c, 3, 55, 0
5, 262752, Note_on_c, 3, 44, 127
5, 262848, Note_on_c, 3, 44, 0
5, 262848, Note_on_c, 3, 55, 127
5, 262944, Note_on_c, 3, 55, 0
5, 262944, Note_on_c, 3, 53, 127
5, 263040, Note_on_c, 3, 53, 0
5, 263040, Note_on_c, 3, 55, 127
5, 263136, Note_on_c, 3, 55, 0
5, 263136, Note_on_c, 3, 46, 127
5, 263232, Note_on_c, 3, 46, 0
5, 263232, Note_on_c, 3, 55, 127
5, 263328, Note_on_c, 3, 55, 0
5, 263328, Note_on_c, 3, 53, 127
5, 263424, Note_on_c, 3, 53, 0
5, 263424, Note_on_c, 3, 55, 127
5, 263520, Note_on_c, 3, 55, 0
5, 263520, Note_on_c, 3, 48, 127
5, 263616, Note_on_c, 3, 48, 0
5, 263616, Note_on_c, 3, 55, 127
5, 263712, Note_on_c, 3, 55, 0
5, 263712, Note_on_c, 3, 53, 127
5, 263808, Note_on_c, 3, 53, 0
5, 263808, Note_on_c, 3, 55, 127
5, 263904, Note_on_c, 3, 55, 0
5, 263904, Note_on_c, 3, 43, 127
5, 264000, Note_on_c, 3, 43, 0
5, 264000, Note_on_c, 3, 55, 127
5, 264096, Note_on_c, 3, 55, 0
5, 264096, Note_on_c, 3, 53, 127
5, 264192, Note_on_c, 3, 53, 0
5, 264192, Note_on_c, 3, 55, 127
5, 264288, Note_on_c, 3, 55, 0
5, 264288, Note_on_c, 3, 44, 127
5, 264384, Note_on_c, 3, 44, 0
5, 264384, Note_on_c, 3, 55, 127
5, 264480, Note_on_c, 3, 55, 0
5, 264480, Note_on_c, 3, 53, 127
5, 264576, Note_on_c, 3, 53, 0
5, 264576, Note_on_c, 3, 51, 127
5, 264672, Note_on_c, 3, 51, 0
5, 264672, Note_on_c, 3, 46, 127
5, 264768, Note_on_c, 3, 46, 0
5, 264768, Note_on_c, 3, 50, 127
5, 264864, Note_on_c, 3, 50, 0
5, 264864, Note_on_c, 3, 53, 127
5, 264960, Note_on_c, 3, 53, 0
5, 264960, Note_on_c, 3, 56, 127
5, 265056, Note_on_c, 3, 56, 0
5, 265056, Note_on_c, 3, 51, 127
5, 265056, Note_on_c, 3, 55, 127
5, 265248, Note_on_c, 3, 55, 0
5, 265248, Note_on_c, 3, 51, 0
5, 265248, Note_on_c, 3, 39, 127
5, 265440, Note_on_c, 3, 39, 0
5, 266208, Note_on_c, 3, 63, 127
5, 266304, Note_on_c, 3, 63, 0
5, 266304, Note_on_c, 3, 58, 127
5, 266400, Note_on_c, 3, 58, 0
5, 266400, Note_on_c, 3, 60, 127
5, 266496, Note_on_c, 3, 60, 0
5, 266496, Note_on_c, 3, 56, 127
5, 266592, Note_on_c, 3, 56, 0
5, 266592, Note_on_c, 3, 56, 127
5, 266640, Note_on_c, 3, 56, 0
5, 266640, Note_on_c, 3, 55, 127
5, 266664, Note_on_c, 3, 55, 0
5, 266664, Note_on_c, 3, 56, 127
5, 266688, Note_on_c, 3, 56, 0
5, 266688, Note_on_c, 3, 55, 127
5, 266880, Note_on_c, 3, 55, 0
5, 266880, Note_on_c, 3, 56, 127
5, 266976, Note_on_c, 3, 56, 0
5, 266976, Note_on_c, 3, 58, 127
5, 267072, Note_on_c, 3, 58, 0
5, 267072, Note_on_c, 3, 53, 127
5, 267168, Note_on_c, 3, 53, 0
5, 267168, Note_on_c, 3, 55, 127
5, 267264, Note_on_c, 3, 55, 0
5, 267264, Note_on_c, 3, 51, 127
5, 267360, Note_on_c, 3, 51, 0
5, 267360, Note_on_c, 3, 51, 127
5, 267408, Note_on_c, 3, 51, 0
5, 267408, Note_on_c, 3, 50, 127
5, 267432, Note_on_c, 3, 50, 0
5, 267432, Note_on_c, 3, 51, 127
5, 267456, Note_on_c, 3, 51, 0
5, 267456, Note_on_c, 3, 50, 127
5, 267552, Note_on_c, 3, 50, 0
5, 267552, Note_on_c, 3, 46, 127
5, 267744, Note_on_c, 3, 46, 0
5, 267744, Note_on_c, 3, 51, 127
5, 268032, Note_on_c, 3, 51, 0
5, 268032, Note_on_c, 3, 55, 127
5, 268128, Note_on_c, 3, 55, 0
5, 268128, Note_on_c, 3, 56, 127
5, 268320, Note_on_c, 3, 56, 0
5, 268320, Note_on_c, 3, 53, 127
5, 268512, Note_on_c, 3, 53, 0
5, 268512, Note_on_c, 3, 58, 127
5, 268608, Note_on_c, 3, 58, 0
5, 268608, Note_on_c, 3, 56, 127
5, 268704, Note_on_c, 3, 56, 0
5, 268704, Note_on_c, 3, 55, 127
5, 268800, Note_on_c, 3, 55, 0
5, 268800, Note_on_c, 3, 53, 127
5, 268896, Note_on_c, 3, 53, 0
5, 268896, Note_on_c, 3, 53, 127
5, 268944, Note_on_c, 3, 53, 0
5, 268944, Note_on_c, 3, 51, 127
5, 268968, Note_on_c, 3, 51, 0
5, 268968, Note_on_c, 3, 53, 127
5, 268992, Note_on_c, 3, 53, 0
5, 268992, Note_on_c, 3, 51, 127
5, 269088, Note_on_c, 3, 51, 0
5, 269280, Note_on_c, 3, 63, 127
5, 269376, Note_on_c, 3, 63, 0
5, 269376, Note_on_c, 3, 58, 127
5, 269472, Note_on_c, 3, 58, 0
5, 269472, Note_on_c, 3, 60, 127
5, 269568, Note_on_c, 3, 60, 0
5, 269568, Note_on_c, 3, 56, 127
5, 269664, Note_on_c, 3, 56, 0
5, 269664, Note_on_c, 3, 56, 127
5, 269712, Note_on_c, 3, 56, 0
5, 269712, Note_on_c, 3, 55, 127
5, 269736, Note_on_c, 3, 55, 0
5, 269736, Note_on_c, 3, 56, 127
5, 269760, Note_on_c, 3, 56, 0
5, 269760, Note_on_c, 3, 55, 127
5, 269952, Note_on_c, 3, 55, 0
5, 269952, Note_on_c, 3, 57, 127
5, 270048, Note_on_c, 3, 57, 0
5, 270048, Note_on_c, 3, 58, 127
5, 270144, Note_on_c, 3, 58, 0
5, 270144, Note_on_c, 3, 53, 127
5, 270240, Note_on_c, 3, 53, 0
5, 270240, Note_on_c, 3, 55, 127
5, 270336, Note_on_c, 3, 55, 0
5, 270336, Note_on_c, 3, 51, 127
5, 270432, Note_on_c, 3, 51, 0
5, 270432, Note_on_c, 3, 50, 127
5, 270624, Note_on_c, 3, 50, 0
5, 270624, Note_on_c, 3, 46, 127
5, 270816, Note_on_c, 3, 46, 0
5, 270816, Note_on_c, 3, 51, 127
5, 271008, Note_on_c, 3, 51, 0
5, 271008, Note_on_c, 3, 50, 127
5, 271104, Note_on_c, 3, 50, 0
5, 271104, Note_on_c, 3, 51, 127
5, 271200, Note_on_c, 3, 51, 0
5, 271200, Note_on_c, 3, 53, 127
5, 271392, Note_on_c, 3, 53, 0
5, 271392, Note_on_c, 3, 41, 127
5, 271584, Note_on_c, 3, 41, 0
5, 271584, Note_on_c, 3, 46, 127
5, 271968, Note_on_c, 3, 46, 0
5, 272352, Note_on_c, 3, 53, 127
5, 272448, Note_on_c, 3, 53, 0
5, 272448, Note_on_c, 3, 48, 127
5, 272544, Note_on_c, 3, 48, 0
5, 272544, Note_on_c, 3, 50, 127
5, 272640, Note_on_c, 3, 50, 0
5, 272640, Note_on_c, 3, 46, 127
5, 272736, Note_on_c, 3, 46, 0
5, 272736, Note_on_c, 3, 58, 127
5, 273024, Note_on_c, 3, 58, 0
5, 273024, Note_on_c, 3, 50, 127
5, 273120, Note_on_c, 3, 50, 0
5, 273120, Note_on_c, 3, 51, 127
5, 273216, Note_on_c, 3, 51, 0
5, 273216, Note_on_c, 3, 47, 127
5, 273312, Note_on_c, 3, 47, 0
5, 273312, Note_on_c, 3, 48, 127
5, 273408, Note_on_c, 3, 48, 0
5, 273408, Note_on_c, 3, 43, 127
5, 273504, Note_on_c, 3, 43, 0
5, 273504, Note_on_c, 3, 44, 127
5, 274080, Note_on_c, 3, 44, 0
5, 274080, Note_on_c, 3, 56, 127
5, 274272, Note_on_c, 3, 56, 0
5, 274272, Note_on_c, 3, 55, 127
5, 274464, Note_on_c, 3, 55, 0
5, 274464, Note_on_c, 3, 54, 127
5, 274656, Note_on_c, 3, 54, 0
5, 274656, Note_on_c, 3, 55, 127
5, 274848, Note_on_c, 3, 55, 0
5, 274848, Note_on_c, 3, 53, 127
5, 275040, Note_on_c, 3, 53, 0
5, 275040, Note_on_c, 3, 51, 127
5, 275232, Note_on_c, 3, 51, 0
5, 275232, Note_on_c, 3, 48, 127
5, 275424, Note_on_c, 3, 48, 0
5, 275424, Note_on_c, 3, 49, 127
5, 275520, Note_on_c, 3, 49, 0
5, 275520, Note_on_c, 3, 53, 127
5, 275616, Note_on_c, 3, 53, 0
5, 275616, Note_on_c, 3, 55, 127
5, 275712, Note_on_c, 3, 55, 0
5, 275712, Note_on_c, 3, 58, 127
5, 275808, Note_on_c, 3, 58, 0
5, 275808, Note_on_c, 3, 52, 127
5, 276000, Note_on_c, 3, 52, 0
5, 276000, Note_on_c, 3, 48, 127
5, 276192, Note_on_c, 3, 48, 0
5, 276192, Note_on_c, 3, 53, 127
5, 276288, Note_on_c, 3, 53, 0
5, 276288, Note_on_c, 3, 52, 127
5, 276384, Note_on_c, 3, 52, 0
5, 276384, Note_on_c, 3, 53, 127
5, 276480, Note_on_c, 3, 53, 0
5, 276480, Note_on_c, 3, 48, 127
5, 276576, Note_on_c, 3, 48, 0
5, 276576, Note_on_c, 3, 56, 127
5, 276768, Note_on_c, 3, 56, 0
5, 276768, Note_on_c, 3, 55, 127
5, 276864, Note_on_c, 3, 55, 0
5, 276864, Note_on_c, 3, 53, 127
5, 276960, Note_on_c, 3, 53, 0
5, 276960, Note_on_c, 3, 51, 127
5, 277152, Note_on_c, 3, 51, 0
5, 277152, Note_on_c, 3, 48, 127
5, 277344, Note_on_c, 3, 48, 0
5, 277344, Note_on_c, 3, 55, 127
5, 277536, Note_on_c, 3, 55, 0
5, 277536, Note_on_c, 3, 43, 127
5, 277728, Note_on_c, 3, 43, 0
5, 277728, Note_on_c, 3, 60, 127
5, 277824, Note_on_c, 3, 60, 0
5, 277824, Note_on_c, 3, 55, 127
5, 277920, Note_on_c, 3, 55, 0
5, 277920, Note_on_c, 3, 56, 127
5, 278016, Note_on_c, 3, 56, 0
5, 278016, Note_on_c, 3, 53, 127
5, 278112, Note_on_c, 3, 53, 0
5, 278112, Note_on_c, 3, 53, 127
5, 278160, Note_on_c, 3, 53, 0
5, 278160, Note_on_c, 3, 52, 127
5, 278184, Note_on_c, 3, 52, 0
5, 278184, Note_on_c, 3, 53, 127
5, 278208, Note_on_c, 3, 53, 0
5, 278208, Note_on_c, 3, 52, 127
5, 278304, Note_on_c, 3, 52, 0
5, 278304, Note_on_c, 3, 48, 127
5, 278496, Note_on_c, 3, 48, 0
5, 278496, Note_on_c, 3, 53, 127
5, 278592, Note_on_c, 3, 53, 0
5, 278592, Note_on_c, 3, 55, 127
5, 278688, Note_on_c, 3, 55, 0
5, 278688, Note_on_c, 3, 56, 127
5, 278784, Note_on_c, 3, 56, 0
5, 278784, Note_on_c, 3, 53, 127
5, 278880, Note_on_c, 3, 53, 0
5, 278880, Note_on_c, 3, 50, 127
5, 279072, Note_on_c, 3, 50, 0
5, 279072, Note_on_c, 3, 46, 127
5, 279264, Note_on_c, 3, 46, 0
5, 279264, Note_on_c, 3, 51, 127
5, 279360, Note_on_c, 3, 51, 0
5, 279360, Note_on_c, 3, 53, 127
5, 279456, Note_on_c, 3, 53, 0
5, 279456, Note_on_c, 3, 55, 127
5, 279552, Note_on_c, 3, 55, 0
5, 279552, Note_on_c, 3, 51, 127
5, 279648, Note_on_c, 3, 51, 0
5, 279648, Note_on_c, 3, 48, 127
5, 279744, Note_on_c, 3, 48, 0
5, 279744, Note_on_c, 3, 55, 127
5, 279840, Note_on_c, 3, 55, 0
5, 279840, Note_on_c, 3, 53, 127
5, 279936, Note_on_c, 3, 53, 0
5, 279936, Note_on_c, 3, 56, 127
5, 280032, Note_on_c, 3, 56, 0
5, 280032, Note_on_c, 3, 46, 127
5, 280128, Note_on_c, 3, 46, 0
5, 280128, Note_on_c, 3, 53, 127
5, 280224, Note_on_c, 3, 53, 0
5, 280224, Note_on_c, 3, 51, 127
5, 280320, Note_on_c, 3, 51, 0
5, 280320, Note_on_c, 3, 55, 127
5, 280416, Note_on_c, 3, 55, 0
5, 280416, Note_on_c, 3, 44, 127
5, 280512, Note_on_c, 3, 44, 0
5, 280512, Note_on_c, 3, 51, 127
5, 280608, Note_on_c, 3, 51, 0
5, 280608, Note_on_c, 3, 49, 127
5, 280704, Note_on_c, 3, 49, 0
5, 280704, Note_on_c, 3, 53, 127
5, 280800, Note_on_c, 3, 53, 0
5, 280800, Note_on_c, 3, 46, 127
5, 280896, Note_on_c, 3, 46, 0
5, 280896, Note_on_c, 3, 41, 127
5, 280992, Note_on_c, 3, 41, 0
5, 280992, Note_on_c, 3, 43, 127
5, 281088, Note_on_c, 3, 43, 0
5, 281088, Note_on_c, 3, 39, 127
5, 281184, Note_on_c, 3, 39, 0
5, 281184, Note_on_c, 3, 44, 127
5, 281376, Note_on_c, 3, 44, 0
5, 281376, Note_on_c, 3, 41, 127
5, 281568, Note_on_c, 3, 41, 0
5, 281568, Note_on_c, 3, 46, 127
5, 281856, Note_on_c, 3, 46, 0
5, 281856, Note_on_c, 3, 50, 127
5, 281952, Note_on_c, 3, 50, 0
5, 281952, Note_on_c, 3, 51, 127
5, 282048, Note_on_c, 3, 51, 0
5, 282048, Note_on_c, 3, 55, 127
5, 282144, Note_on_c, 3, 55, 0
5, 282144, Note_on_c, 3, 58, 127
5, 282240, Note_on_c, 3, 58, 0
5, 282240, Note_on_c, 3, 46, 127
5, 282336, Note_on_c, 3, 46, 0
5, 282336, Note_on_c, 3, 39, 127
5, 282720, Note_on_c, 3, 39, 0
5, 283104, Note_on_c, 3, 51, 127
5, 283200, Note_on_c, 3, 51, 0
5, 283200, Note_on_c, 3, 53, 127
5, 283296, Note_on_c, 3, 53, 0
5, 283296, Note_on_c, 3, 55, 127
5, 283488, Note_on_c, 3, 55, 0
5, 283488, Note_on_c, 3, 51, 127
5, 283680, Note_on_c, 3, 51, 0
5, 283680, Note_on_c, 3, 56, 127
5, 283872, Note_on_c, 3, 56, 0
5, 283872, Note_on_c, 3, 55, 127
5, 284064, Note_on_c, 3, 55, 0
5, 284064, Note_on_c, 3, 53, 127
5, 284256, Note_on_c, 3, 53, 0
5, 284256, Note_on_c, 3, 51, 127
5, 284352, Note_on_c, 3, 51, 0
5, 284352, Note_on_c, 3, 58, 127
5, 284448, Note_on_c, 3, 58, 0
5, 284448, Note_on_c, 3, 63, 127
5, 284544, Note_on_c, 3, 63, 0
5, 284544, Note_on_c, 3, 61, 127
5, 284640, Note_on_c, 3, 61, 0
5, 284640, Note_on_c, 3, 61, 127
5, 284736, Note_on_c, 3, 61, 0
5, 284736, Note_on_c, 3, 60, 127
5, 284832, Note_on_c, 3, 60, 0
5, 284832, Note_on_c, 3, 60, 127
5, 284952, Note_on_c, 3, 60, 0
5, 284952, Note_on_c, 3, 63, 127
5, 285048, Note_on_c, 3, 63, 0
5, 285048, Note_on_c, 3, 58, 127
5, 285144, Note_on_c, 3, 58, 0
5, 285144, Note_on_c, 3, 63, 127
5, 285240, Note_on_c, 3, 63, 0
5, 285240, Note_on_c, 3, 56, 127
5, 285336, Note_on_c, 3, 56, 0
5, 285336, Note_on_c, 3, 65, 127
5, 285432, Note_on_c, 3, 65, 0
5, 285432, Note_on_c, 3, 55, 127
5, 285528, Note_on_c, 3, 55, 0
5, 285528, Note_on_c, 3, 58, 127
5, 285624, Note_on_c, 3, 58, 0
5, 285624, Note_on_c, 3, 63, 127
5, 285816, Note_on_c, 3, 63, 0
5, 285816, Note_on_c, 3, 62, 127
5, 286008, Note_on_c, 3, 62, 0
5, 286008, Note_on_c, 3, 60, 127
5, 286104, Note_on_c, 3, 60, 0
5, 286104, Note_on_c, 3, 57, 127
5, 286200, Note_on_c, 3, 57, 0
5, 286200, Note_on_c, 3, 53, 127
5, 286392, Note_on_c, 3, 53, 0
5, 286392, Note_on_c, 3, 58, 127
5, 286584, Note_on_c, 3, 58, 0
5, 286584, Note_on_c, 3, 51, 127
5, 286776, Note_on_c, 3, 51, 0
5, 286776, Note_on_c, 3, 53, 127
5, 286968, Note_on_c, 3, 53, 0
5, 286968, Note_on_c, 3, 41, 127
5, 287160, Note_on_c, 3, 41, 0
5, 287160, Note_on_c, 3, 46, 127
5, 287256, Note_on_c, 3, 46, 0
5, 287256, Note_on_c, 3, 53, 127
5, 287352, Note_on_c, 3, 53, 0
5, 287352, Note_on_c, 3, 58, 127
5, 287448, Note_on_c, 3, 58, 0
5, 287448, Note_on_c, 3, 56, 127
5, 287544, Note_on_c, 3, 56, 0
5, 287544, Note_on_c, 3, 55, 127
5, 287640, Note_on_c, 3, 55, 0
5, 287640, Note_on_c, 3, 53, 127
5, 287736, Note_on_c, 3, 53, 0
5, 287736, Note_on_c, 3, 51, 127
5, 287832, Note_on_c, 3, 51, 0
5, 287832, Note_on_c, 3, 53, 127
5, 287928, Note_on_c, 3, 53, 0
5, 287928, Note_on_c, 3, 55, 127
5, 288120, Note_on_c, 3, 55, 0
5, 288120, Note_on_c, 3, 51, 127
5, 288312, Note_on_c, 3, 51, 0
5, 288312, Note_on_c, 3, 56, 127
5, 288504, Note_on_c, 3, 56, 0
5, 288504, Note_on_c, 3, 55, 127
5, 288696, Note_on_c, 3, 55, 0
5, 288696, Note_on_c, 3, 53, 127
5, 288888, Note_on_c, 3, 53, 0
5, 288888, Note_on_c, 3, 51, 127
5, 288984, Note_on_c, 3, 51, 0
5, 288984, Note_on_c, 3, 58, 127
5, 289080, Note_on_c, 3, 58, 0
5, 289080, Note_on_c, 3, 63, 127
5, 289176, Note_on_c, 3, 63, 0
5, 289176, Note_on_c, 3, 61, 127
5, 289272, Note_on_c, 3, 61, 0
5, 289272, Note_on_c, 3, 61, 127
5, 289368, Note_on_c, 3, 61, 0
5, 289368, Note_on_c, 3, 60, 127
5, 289464, Note_on_c, 3, 60, 0
5, 289464, Note_on_c, 3, 60, 127
5, 289584, Note_on_c, 3, 60, 0
5, 289584, Note_on_c, 3, 63, 127
5, 289680, Note_on_c, 3, 63, 0
5, 289680, Note_on_c, 3, 58, 127
5, 289776, Note_on_c, 3, 58, 0
5, 289776, Note_on_c, 3, 63, 127
5, 289872, Note_on_c, 3, 63, 0
5, 289872, Note_on_c, 3, 56, 127
5, 289968, Note_on_c, 3, 56, 0
5, 289968, Note_on_c, 3, 65, 127
5, 290064, Note_on_c, 3, 65, 0
5, 290064, Note_on_c, 3, 55, 127
5, 290160, Note_on_c, 3, 55, 0
5, 290160, Note_on_c, 3, 58, 127
5, 290256, Note_on_c, 3, 58, 0
5, 290256, Note_on_c, 3, 63, 127
5, 290448, Note_on_c, 3, 63, 0
5, 290448, Note_on_c, 3, 62, 127
5, 290640, Note_on_c, 3, 62, 0
5, 290640, Note_on_c, 3, 60, 127
5, 290736, Note_on_c, 3, 60, 0
5, 290736, Note_on_c, 3, 57, 127
5, 290832, Note_on_c, 3, 57, 0
5, 290832, Note_on_c, 3, 53, 127
5, 291024, Note_on_c, 3, 53, 0
5, 291024, Note_on_c, 3, 58, 127
5, 291216, Note_on_c, 3, 58, 0
5, 291216, Note_on_c, 3, 51, 127
5, 291408, Note_on_c, 3, 51, 0
5, 291408, Note_on_c, 3, 53, 127
5, 291600, Note_on_c, 3, 53, 0
5, 291600, Note_on_c, 3, 41, 127
5, 291792, Note_on_c, 3, 41, 0
5, 291792, Note_on_c, 3, 46, 127
5, 292368, Note_on_c, 3, 46, 0
5, 292368, Note_on_c, 3, 46, 127
5, 292464, Note_on_c, 3, 46, 0
5, 292464, Note_on_c, 3, 48, 127
5, 292560, Note_on_c, 3, 48, 0
5, 292560, Note_on_c, 3, 50, 127
5, 292752, Note_on_c, 3, 50, 0
5, 292752, Note_on_c, 3, 51, 127
5, 292944, Note_on_c, 3, 51, 0
5, 292944, Note_on_c, 3, 50, 127
5, 293040, Note_on_c, 3, 50, 0
5, 293040, Note_on_c, 3, 56, 127
5, 293136, Note_on_c, 3, 56, 0
5, 293136, Note_on_c, 3, 48, 127
5, 293232, Note_on_c, 3, 48, 0
5, 293232, Note_on_c, 3, 56, 127
5, 293328, Note_on_c, 3, 56, 0
5, 293328, Note_on_c, 3, 46, 127
5, 293424, Note_on_c, 3, 46, 0
5, 293424, Note_on_c, 3, 56, 127
5, 293520, Note_on_c, 3, 56, 0
5, 293520, Note_on_c, 3, 55, 127
5, 293616, Note_on_c, 3, 55, 0
5, 293616, Note_on_c, 3, 58, 127
5, 293712, Note_on_c, 3, 58, 0
5, 293712, Note_on_c, 3, 61, 127
5, 293904, Note_on_c, 3, 61, 0
5, 293904, Note_on_c, 3, 53, 127
5, 294096, Note_on_c, 3, 53, 0
5, 294096, Note_on_c, 3, 52, 127
5, 294192, Note_on_c, 3, 52, 0
5, 294192, Note_on_c, 3, 55, 127
5, 294288, Note_on_c, 3, 55, 0
5, 294288, Note_on_c, 3, 58, 127
5, 294384, Note_on_c, 3, 58, 0
5, 294384, Note_on_c, 3, 56, 127
5, 294480, Note_on_c, 3, 56, 0
5, 294480, Note_on_c, 3, 56, 127
5, 294576, Note_on_c, 3, 56, 0
5, 294576, Note_on_c, 3, 55, 127
5, 294672, Note_on_c, 3, 55, 0
5, 294672, Note_on_c, 3, 53, 127
5, 294864, Note_on_c, 3, 53, 0
5, 294864, Note_on_c, 3, 65, 127
5, 295056, Note_on_c, 3, 65, 0
5, 295056, Note_on_c, 3, 63, 127
5, 295248, Note_on_c, 3, 63, 0
5, 295248, Note_on_c, 3, 62, 127
5, 295440, Note_on_c, 3, 62, 0
5, 295440, Note_on_c, 3, 58, 127
5, 295632, Note_on_c, 3, 58, 0
5, 295632, Note_on_c, 3, 63, 127
5, 295824, Note_on_c, 3, 63, 0
5, 295824, Note_on_c, 3, 55, 127
5, 295920, Note_on_c, 3, 55, 0
5, 295920, Note_on_c, 3, 60, 127
5, 296016, Note_on_c, 3, 60, 0
5, 296016, Note_on_c, 3, 58, 127
5, 296112, Note_on_c, 3, 58, 0
5, 296112, Note_on_c, 3, 55, 127
5, 296208, Note_on_c, 3, 55, 0
5, 296208, Note_on_c, 3, 56, 127
5, 296304, Note_on_c, 3, 56, 0
5, 296304, Note_on_c, 3, 58, 127
5, 296400, Note_on_c, 3, 58, 0
5, 296400, Note_on_c, 3, 51, 127
5, 296496, Note_on_c, 3, 51, 0
5, 296496, Note_on_c, 3, 56, 127
5, 296592, Note_on_c, 3, 56, 0
5, 296592, Note_on_c, 3, 55, 127
5, 296688, Note_on_c, 3, 55, 0
5, 296688, Note_on_c, 3, 51, 127
5, 296784, Note_on_c, 3, 51, 0
5, 296784, Note_on_c, 3, 53, 127
5, 296880, Note_on_c, 3, 53, 0
5, 296880, Note_on_c, 3, 55, 127
5, 296976, Note_on_c, 3, 55, 0
5, 296976, Note_on_c, 3, 46, 127
5, 297072, Note_on_c, 3, 46, 0
5, 297072, Note_on_c, 3, 48, 127
5, 297168, Note_on_c, 3, 48, 0
5, 297168, Note_on_c, 3, 50, 127
5, 297360, Note_on_c, 3, 50, 0
5, 297360, Note_on_c, 3, 51, 127
5, 297552, Note_on_c, 3, 51, 0
5, 297552, Note_on_c, 3, 50, 127
5, 297648, Note_on_c, 3, 50, 0
5, 297648, Note_on_c, 3, 56, 127
5, 297744, Note_on_c, 3, 56, 0
5, 297744, Note_on_c, 3, 48, 127
5, 297840, Note_on_c, 3, 48, 0
5, 297840, Note_on_c, 3, 56, 127
5, 297936, Note_on_c, 3, 56, 0
5, 297936, Note_on_c, 3, 46, 127
5, 298032, Note_on_c, 3, 46, 0
5, 298032, Note_on_c, 3, 56, 127
5, 298128, Note_on_c, 3, 56, 0
5, 298128, Note_on_c, 3, 55, 127
5, 298224, Note_on_c, 3, 55, 0
5, 298224, Note_on_c, 3, 58, 127
5, 298320, Note_on_c, 3, 58, 0
5, 298320, Note_on_c, 3, 61, 127
5, 298512, Note_on_c, 3, 61, 0
5, 298512, Note_on_c, 3, 53, 127
5, 298704, Note_on_c, 3, 53, 0
5, 298704, Note_on_c, 3, 52, 127
5, 298800, Note_on_c, 3, 52, 0
5, 298800, Note_on_c, 3, 55, 127
5, 298896, Note_on_c, 3, 55, 0
5, 298896, Note_on_c, 3, 58, 127
5, 298992, Note_on_c, 3, 58, 0
5, 298992, Note_on_c, 3, 56, 127
5, 299088, Note_on_c, 3, 56, 0
5, 299088, Note_on_c, 3, 56, 127
5, 299184, Note_on_c, 3, 56, 0
5, 299184, Note_on_c, 3, 55, 127
5, 299280, Note_on_c, 3, 55, 0
5, 299280, Note_on_c, 3, 53, 127
5, 299472, Note_on_c, 3, 53, 0
5, 299472, Note_on_c, 3, 65, 127
5, 299664, Note_on_c, 3, 65, 0
5, 299664, Note_on_c, 3, 63, 127
5, 299856, Note_on_c, 3, 63, 0
5, 299856, Note_on_c, 3, 62, 127
5, 300048, Note_on_c, 3, 62, 0
5, 300048, Note_on_c, 3, 58, 127
5, 300240, Note_on_c, 3, 58, 0
5, 300240, Note_on_c, 3, 63, 127
5, 300432, Note_on_c, 3, 63, 0
5, 300432, Note_on_c, 3, 51, 127
5, 300528, Note_on_c, 3, 51, 0
5, 300528, Note_on_c, 3, 56, 127
5, 300624, Note_on_c, 3, 56, 0
5, 300624, Note_on_c, 3, 55, 127
5, 300720, Note_on_c, 3, 55, 0
5, 300720, Note_on_c, 3, 51, 127
5, 300816, Note_on_c, 3, 51, 0
5, 300816, Note_on_c, 3, 53, 127
5, 300912, Note_on_c, 3, 53, 0
5, 300912, Note_on_c, 3, 55, 127
5, 301008, Note_on_c, 3, 55, 0
5, 301008, Note_on_c, 3, 51, 127
5, 301584, Note_on_c, 3, 51, 0
5, 301968, Note_on_c, 3, 39, 127
5, 302160, Note_on_c, 3, 39, 0
5, 302400, Note_on_c, 3, 51, 127
5, 302448, Note_on_c, 3, 51, 0
5, 302448, Note_on_c, 3, 62, 127
5, 302496, Note_on_c, 3, 62, 0
5, 302496, Note_on_c, 3, 60, 127
5, 302544, Note_on_c, 3, 60, 0
5, 302544, Note_on_c, 3, 58, 127
5, 302592, Note_on_c, 3, 58, 0
5, 302592, Note_on_c, 3, 56, 127
5, 302640, Note_on_c, 3, 56, 0
5, 302640, Note_on_c, 3, 55, 127
5, 302688, Note_on_c, 3, 55, 0
5, 302688, Note_on_c, 3, 53, 127
5, 302736, Note_on_c, 3, 53, 0
5, 302736, Note_on_c, 3, 51, 127
5, 302832, Note_on_c, 3, 51, 0
5, 302832, Note_on_c, 3, 58, 127
5, 302928, Note_on_c, 3, 58, 0
5, 302928, Note_on_c, 3, 50, 127
5, 303024, Note_on_c, 3, 50, 0
5, 303024, Note_on_c, 3, 58, 127
5, 303120, Note_on_c, 3, 58, 0
5, 303120, Note_on_c, 3, 51, 127
5, 303216, Note_on_c, 3, 51, 0
5, 303216, Note_on_c, 3, 46, 127
5, 303312, Note_on_c, 3, 46, 0
5, 303312, Note_on_c, 3, 43, 127
5, 303408, Note_on_c, 3, 43, 0
5, 303408, Note_on_c, 3, 46, 127
5, 303504, Note_on_c, 3, 46, 0
5, 303504, Note_on_c, 3, 39, 127
5, 303600, Note_on_c, 3, 39, 0
5, 303600, Note_on_c, 3, 51, 127
5, 303696, Note_on_c, 3, 51, 0
5, 303696, Note_on_c, 3, 48, 127
5, 303792, Note_on_c, 3, 48, 0
5, 303792, Note_on_c, 3, 51, 127
5, 303888, Note_on_c, 3, 51, 0
5, 303888, Note_on_c, 3, 41, 127
5, 304080, Note_on_c, 3, 41, 0
5, 304368, Note_on_c, 3, 53, 127
5, 304464, Note_on_c, 3, 53, 0
5, 304464, Note_on_c, 3, 50, 127
5, 304560, Note_on_c, 3, 50, 0
5, 304560, Note_on_c, 3, 53, 127
5, 304656, Note_on_c, 3, 53, 0
5, 304656, Note_on_c, 3, 43, 127
5, 304848, Note_on_c, 3, 43, 0
5, 305136, Note_on_c, 3, 51, 127
5, 305232, Note_on_c, 3, 51, 0
5, 305232, Note_on_c, 3, 55, 127
5, 305328, Note_on_c, 3, 55, 0
5, 305328, Note_on_c, 3, 58, 127
5, 305424, Note_on_c, 3, 58, 0
5, 305424, Note_on_c, 3, 48, 127
5, 305520, Note_on_c, 3, 48, 0
5, 305520, Note_on_c, 3, 58, 127
5, 305616, Note_on_c, 3, 58, 0
5, 305616, Note_on_c, 3, 57, 127
5, 305712, Note_on_c, 3, 57, 0
5, 305712, Note_on_c, 3, 60, 127
5, 305808, Note_on_c, 3, 60, 0
5, 305808, Note_on_c, 3, 50, 127
5, 305904, Note_on_c, 3, 50, 0
5, 305904, Note_on_c, 3, 58, 127
5, 305952, Note_on_c, 3, 58, 0
5, 305952, Note_on_c, 3, 57, 127
5, 306000, Note_on_c, 3, 57, 0
5, 306000, Note_on_c, 3, 58, 127
5, 306096, Note_on_c, 3, 58, 0
5, 306096, Note_on_c, 3, 53, 127
5, 306192, Note_on_c, 3, 53, 0
5, 306192, Note_on_c, 3, 46, 127
5, 306240, Note_on_c, 3, 46, 0
5, 306240, Note_on_c, 3, 51, 127
5, 306288, Note_on_c, 3, 51, 0
5, 306288, Note_on_c, 3, 50, 127
5, 306336, Note_on_c, 3, 50, 0
5, 306336, Note_on_c, 3, 48, 127
5, 306384, Note_on_c, 3, 48, 0
5, 306384, Note_on_c, 3, 46, 127
5, 306432, Note_on_c, 3, 46, 0
5, 306432, Note_on_c, 3, 44, 127
5, 306480, Note_on_c, 3, 44, 0
5, 306480, Note_on_c, 3, 43, 127
5, 306528, Note_on_c, 3, 43, 0
5, 306528, Note_on_c, 3, 41, 127
5, 306576, Note_on_c, 3, 41, 0
5, 306576, Note_on_c, 3, 39, 127
5, 306768, Note_on_c, 3, 39, 0
5, 307008, Note_on_c, 3, 51, 127
5, 307056, Note_on_c, 3, 51, 0
5, 307056, Note_on_c, 3, 62, 127
5, 307104, Note_on_c, 3, 62, 0
5, 307104, Note_on_c, 3, 60, 127
5, 307152, Note_on_c, 3, 60, 0
5, 307152, Note_on_c, 3, 58, 127
5, 307200, Note_on_c, 3, 58, 0
5, 307200, Note_on_c, 3, 56, 127
5, 307248, Note_on_c, 3, 56, 0
5, 307248, Note_on_c, 3, 55, 127
5, 307296, Note_on_c, 3, 55, 0
5, 307296, Note_on_c, 3, 53, 127
5, 307344, Note_on_c, 3, 53, 0
5, 307344, Note_on_c, 3, 51, 127
5, 307440, Note_on_c, 3, 51, 0
5, 307440, Note_on_c, 3, 58, 127
5, 307536, Note_on_c, 3, 58, 0
5, 307536, Note_on_c, 3, 50, 127
5, 307632, Note_on_c, 3, 50, 0
5, 307632, Note_on_c, 3, 58, 127
5, 307728, Note_on_c, 3, 58, 0
5, 307728, Note_on_c, 3, 51, 127
5, 307824, Note_on_c, 3, 51, 0
5, 307824, Note_on_c, 3, 46, 127
5, 307920, Note_on_c, 3, 46, 0
5, 307920, Note_on_c, 3, 43, 127
5, 308016, Note_on_c, 3, 43, 0
5, 308016, Note_on_c, 3, 46, 127
5, 308112, Note_on_c, 3, 46, 0
5, 308112, Note_on_c, 3, 39, 127
5, 308208, Note_on_c, 3, 39, 0
5, 308208, Note_on_c, 3, 51, 127
5, 308304, Note_on_c, 3, 51, 0
5, 308304, Note_on_c, 3, 48, 127
5, 308400, Note_on_c, 3, 48, 0
5, 308400, Note_on_c, 3, 51, 127
5, 308496, Note_on_c, 3, 51, 0
5, 308496, Note_on_c, 3, 41, 127
5, 308688, Note_on_c, 3, 41, 0
5, 308976, Note_on_c, 3, 53, 127
5, 309072, Note_on_c, 3, 53, 0
5, 309072, Note_on_c, 3, 50, 127
5, 309168, Note_on_c, 3, 50, 0
5, 309168, Note_on_c, 3, 53, 127
5, 309264, Note_on_c, 3, 53, 0
5, 309264, Note_on_c, 3, 43, 127
5, 309456, Note_on_c, 3, 43, 0
5, 309744, Note_on_c, 3, 51, 127
5, 309840, Note_on_c, 3, 51, 0
5, 309840, Note_on_c, 3, 55, 127
5, 309936, Note_on_c, 3, 55, 0
5, 309936, Note_on_c, 3, 58, 127
5, 310032, Note_on_c, 3, 58, 0
5, 310032, Note_on_c, 3, 48, 127
5, 310128, Note_on_c, 3, 48, 0
5, 310128, Note_on_c, 3, 58, 127
5, 310224, Note_on_c, 3, 58, 0
5, 310224, Note_on_c, 3, 57, 127
5, 310320, Note_on_c, 3, 57, 0
5, 310320, Note_on_c, 3, 60, 127
5, 310416, Note_on_c, 3, 60, 0
5, 310416, Note_on_c, 3, 50, 127
5, 310512, Note_on_c, 3, 50, 0
5, 310512, Note_on_c, 3, 58, 127
5, 310560, Note_on_c, 3, 58, 0
5, 310560, Note_on_c, 3, 57, 127
5, 310608, Note_on_c, 3, 57, 0
5, 310608, Note_on_c, 3, 58, 127
5, 310704, Note_on_c, 3, 58, 0
5, 310704, Note_on_c, 3, 53, 127
5, 310800, Note_on_c, 3, 53, 0
5, 310800, Note_on_c, 3, 46, 127
5, 311184, Note_on_c, 3, 46, 0
5, 311184, Note_on_c, 3, 46, 127
5, 311376, Note_on_c, 3, 46, 0
5, 311568, Note_on_c, 3, 51, 127
5, 311616, Note_on_c, 3, 51, 0
5, 311616, Note_on_c, 3, 48, 127
5, 311664, Note_on_c, 3, 48, 0
5, 311664, Note_on_c, 3, 50, 127
5, 311712, Note_on_c, 3, 50, 0
5, 311712, Note_on_c, 3, 51, 127
5, 311760, Note_on_c, 3, 51, 0
5, 311760, Note_on_c, 3, 53, 127
5, 311808, Note_on_c, 3, 53, 0
5, 311808, Note_on_c, 3, 55, 127
5, 311856, Note_on_c, 3, 55, 0
5, 311856, Note_on_c, 3, 57, 127
5, 311904, Note_on_c, 3, 57, 0
5, 311904, Note_on_c, 3, 59, 127
5, 311952, Note_on_c, 3, 59, 0
5, 311952, Note_on_c, 3, 60, 127
5, 312048, Note_on_c, 3, 60, 0
5, 312048, Note_on_c, 3, 56, 127
5, 312144, Note_on_c, 3, 56, 0
5, 312144, Note_on_c, 3, 53, 127
5, 312240, Note_on_c, 3, 53, 0
5, 312240, Note_on_c, 3, 56, 127
5, 312336, Note_on_c, 3, 56, 0
5, 312336, Note_on_c, 3, 55, 127
5, 312528, Note_on_c, 3, 55, 0
5, 313104, Note_on_c, 3, 53, 127
5, 313200, Note_on_c, 3, 53, 0
5, 313872, Note_on_c, 3, 51, 127
5, 313968, Note_on_c, 3, 51, 0
5, 315024, Note_on_c, 3, 56, 127
5, 315072, Note_on_c, 3, 56, 0
5, 315072, Note_on_c, 3, 55, 127
5, 315120, Note_on_c, 3, 55, 0
5, 315120, Note_on_c, 3, 56, 127
5, 315168, Note_on_c, 3, 56, 0
5, 315168, Note_on_c, 3, 53, 127
5, 315216, Note_on_c, 3, 53, 0
5, 315216, Note_on_c, 3, 55, 127
5, 315312, Note_on_c, 3, 55, 0
5, 315312, Note_on_c, 3, 43, 127
5, 315408, Note_on_c, 3, 43, 0
5, 315456, Note_on_c, 3, 48, 127
5, 315504, Note_on_c, 3, 48, 0
5, 315504, Note_on_c, 3, 50, 127
5, 315552, Note_on_c, 3, 50, 0
5, 315552, Note_on_c, 3, 51, 127
5, 315600, Note_on_c, 3, 51, 0
5, 315600, Note_on_c, 3, 53, 127
5, 315648, Note_on_c, 3, 53, 0
5, 315648, Note_on_c, 3, 55, 127
5, 315696, Note_on_c, 3, 55, 0
5, 315696, Note_on_c, 3, 57, 127
5, 315744, Note_on_c, 3, 57, 0
5, 315744, Note_on_c, 3, 59, 127
5, 315792, Note_on_c, 3, 59, 0
5, 315792, Note_on_c, 3, 60, 127
5, 315888, Note_on_c, 3, 60, 0
5, 315888, Note_on_c, 3, 58, 127
5, 315984, Note_on_c, 3, 58, 0
5, 315984, Note_on_c, 3, 57, 127
5, 316080, Note_on_c, 3, 57, 0
5, 316080, Note_on_c, 3, 55, 127
5, 316176, Note_on_c, 3, 55, 0
5, 316176, Note_on_c, 3, 57, 127
5, 316224, Note_on_c, 3, 57, 0
5, 316224, Note_on_c, 3, 51, 127
5, 316272, Note_on_c, 3, 51, 0
5, 316272, Note_on_c, 3, 53, 127
5, 316320, Note_on_c, 3, 53, 0
5, 316320, Note_on_c, 3, 55, 127
5, 316368, Note_on_c, 3, 55, 0
5, 316368, Note_on_c, 3, 53, 127
5, 316416, Note_on_c, 3, 53, 0
5, 316416, Note_on_c, 3, 51, 127
5, 316464, Note_on_c, 3, 51, 0
5, 316464, Note_on_c, 3, 50, 127
5, 316512, Note_on_c, 3, 50, 0
5, 316512, Note_on_c, 3, 48, 127
5, 316560, Note_on_c, 3, 48, 0
5, 316560, Note_on_c, 3, 50, 127
5, 316608, Note_on_c, 3, 50, 0
5, 316608, Note_on_c, 3, 48, 127
5, 316656, Note_on_c, 3, 48, 0
5, 316656, Note_on_c, 3, 50, 127
5, 316704, Note_on_c, 3, 50, 0
5, 316704, Note_on_c, 3, 51, 127
5, 316752, Note_on_c, 3, 51, 0
5, 316752, Note_on_c, 3, 50, 127
5, 316800, Note_on_c, 3, 50, 0
5, 316800, Note_on_c, 3, 48, 127
5, 316848, Note_on_c, 3, 48, 0
5, 316848, Note_on_c, 3, 46, 127
5, 316896, Note_on_c, 3, 46, 0
5, 316896, Note_on_c, 3, 45, 127
5, 316944, Note_on_c, 3, 45, 0
5, 316944, Note_on_c, 3, 46, 127
5, 317040, Note_on_c, 3, 46, 0
5, 317040, Note_on_c, 3, 56, 127
5, 317136, Note_on_c, 3, 56, 0
5, 317136, Note_on_c, 3, 55, 127
5, 317232, Note_on_c, 3, 55, 0
5, 317232, Note_on_c, 3, 58, 127
5, 317328, Note_on_c, 3, 58, 0
5, 317328, Note_on_c, 3, 51, 127
5, 317424, Note_on_c, 3, 51, 0
5, 317424, Note_on_c, 3, 49, 127
5, 317520, Note_on_c, 3, 49, 0
5, 317520, Note_on_c, 3, 48, 127
5, 317616, Note_on_c, 3, 48, 0
5, 317616, Note_on_c, 3, 51, 127
5, 317712, Note_on_c, 3, 51, 0
5, 317712, Note_on_c, 3, 44, 127
5, 317808, Note_on_c, 3, 44, 0
5, 317808, Note_on_c, 3, 56, 127
5, 317904, Note_on_c, 3, 56, 0
5, 317904, Note_on_c, 3, 55, 127
5, 318000, Note_on_c, 3, 55, 0
5, 318000, Note_on_c, 3, 51, 127
5, 318096, Note_on_c, 3, 51, 0
5, 318096, Note_on_c, 3, 50, 127
5, 318192, Note_on_c, 3, 50, 0
5, 318192, Note_on_c, 3, 51, 127
5, 318288, Note_on_c, 3, 51, 0
5, 318288, Note_on_c, 3, 56, 127
5, 318384, Note_on_c, 3, 56, 0
5, 318384, Note_on_c, 3, 53, 127
5, 318480, Note_on_c, 3, 53, 0
5, 318480, Note_on_c, 3, 58, 127
5, 318624, Note_on_c, 3, 58, 0
5, 318624, Note_on_c, 3, 60, 127
5, 318672, Note_on_c, 3, 60, 0
5, 318672, Note_on_c, 3, 58, 127
5, 318720, Note_on_c, 3, 58, 0
5, 318720, Note_on_c, 3, 56, 127
5, 318768, Note_on_c, 3, 56, 0
5, 318768, Note_on_c, 3, 55, 127
5, 318816, Note_on_c, 3, 55, 0
5, 318816, Note_on_c, 3, 53, 127
5, 318864, Note_on_c, 3, 53, 0
5, 318864, Note_on_c, 3, 53, 127
5, 318880, Note_on_c, 3, 53, 0
5, 318880, Note_on_c, 3, 51, 127
5, 318896, Note_on_c, 3, 51, 0
5, 318896, Note_on_c, 3, 53, 127
5, 318912, Note_on_c, 3, 53, 0
5, 318912, Note_on_c, 3, 51, 127
5, 319056, Note_on_c, 3, 51, 0
5, 319296, Note_on_c, 3, 51, 127
5, 319344, Note_on_c, 3, 51, 0
5, 319344, Note_on_c, 3, 62, 127
5, 319392, Note_on_c, 3, 62, 0
5, 319392, Note_on_c, 3, 60, 127
5, 319440, Note_on_c, 3, 60, 0
5, 319440, Note_on_c, 3, 58, 127
5, 319488, Note_on_c, 3, 58, 0
5, 319488, Note_on_c, 3, 56, 127
5, 319536, Note_on_c, 3, 56, 0
5, 319536, Note_on_c, 3, 55, 127
5, 319584, Note_on_c, 3, 55, 0
5, 319584, Note_on_c, 3, 53, 127
5, 319632, Note_on_c, 3, 53, 0
5, 319632, Note_on_c, 3, 53, 127
5, 319648, Note_on_c, 3, 53, 0
5, 319648, Note_on_c, 3, 51, 127
5, 319664, Note_on_c, 3, 51, 0
5, 319664, Note_on_c, 3, 53, 127
5, 319680, Note_on_c, 3, 53, 0
5, 319680, Note_on_c, 3, 51, 127
5, 319728, Note_on_c, 3, 51, 0
5, 319728, Note_on_c, 3, 55, 127
5, 319824, Note_on_c, 3, 55, 0
5, 319824, Note_on_c, 3, 51, 127
5, 319920, Note_on_c, 3, 51, 0
5, 319920, Note_on_c, 3, 55, 127
5, 320016, Note_on_c, 3, 55, 0
5, 320016, Note_on_c, 3, 56, 127
5, 320112, Note_on_c, 3, 56, 0
5, 320112, Note_on_c, 3, 51, 127
5, 320208, Note_on_c, 3, 51, 0
5, 320208, Note_on_c, 3, 48, 127
5, 320304, Note_on_c, 3, 48, 0
5, 320304, Note_on_c, 3, 51, 127
5, 320400, Note_on_c, 3, 51, 0
5, 320400, Note_on_c, 3, 44, 127
5, 320496, Note_on_c, 3, 44, 0
5, 320496, Note_on_c, 3, 56, 127
5, 320592, Note_on_c, 3, 56, 0
5, 320592, Note_on_c, 3, 53, 127
5, 320688, Note_on_c, 3, 53, 0
5, 320688, Note_on_c, 3, 56, 127
5, 320784, Note_on_c, 3, 56, 0
5, 320784, Note_on_c, 3, 46, 127
5, 320976, Note_on_c, 3, 46, 0
5, 321264, Note_on_c, 3, 58, 127
5, 321360, Note_on_c, 3, 58, 0
5, 321360, Note_on_c, 3, 55, 127
5, 321456, Note_on_c, 3, 55, 0
5, 321456, Note_on_c, 3, 58, 127
5, 321552, Note_on_c, 3, 58, 0
5, 321552, Note_on_c, 3, 48, 127
5, 321744, Note_on_c, 3, 48, 0
5, 322032, Note_on_c, 3, 56, 127
5, 322128, Note_on_c, 3, 56, 0
5, 322128, Note_on_c, 3, 60, 127
5, 322224, Note_on_c, 3, 60, 0
5, 322224, Note_on_c, 3, 63, 127
5, 322320, Note_on_c, 3, 63, 0
5, 322320, Note_on_c, 3, 53, 127
5, 322416, Note_on_c, 3, 53, 0
5, 322416, Note_on_c, 3, 63, 127
5, 322512, Note_on_c, 3, 63, 0
5, 322512, Note_on_c, 3, 62, 127
5, 322608, Note_on_c, 3, 62, 0
5, 322608, Note_on_c, 3, 65, 127
5, 322704, Note_on_c, 3, 65, 0
5, 322704, Note_on_c, 3, 55, 127
5, 322800, Note_on_c, 3, 55, 0
5, 322800, Note_on_c, 3, 63, 127
5, 322848, Note_on_c, 3, 63, 0
5, 322848, Note_on_c, 3, 62, 127
5, 322896, Note_on_c, 3, 62, 0
5, 322896, Note_on_c, 3, 63, 127
5, 322992, Note_on_c, 3, 63, 0
5, 322992, Note_on_c, 3, 58, 127
5, 323088, Note_on_c, 3, 58, 0
5, 323088, Note_on_c, 3, 51, 127
5, 323184, Note_on_c, 3, 51, 0
5, 323184, Note_on_c, 3, 46, 127
5, 323280, Note_on_c, 3, 46, 0
5, 323280, Note_on_c, 3, 39, 127
5, 323472, Note_on_c, 3, 39, 0
5, 323472, Note_on_c, 3, 46, 127
5, 323664, Note_on_c, 3, 46, 0
5, 323856, Note_on_c, 3, 51, 127
5, 323904, Note_on_c, 3, 51, 0
5, 323904, Note_on_c, 3, 48, 127
5, 323952, Note_on_c, 3, 48, 0
5, 323952, Note_on_c, 3, 50, 127
5, 324000, Note_on_c, 3, 50, 0
5, 324000, Note_on_c, 3, 51, 127
5, 324048, Note_on_c, 3, 51, 0
5, 324048, Note_on_c, 3, 53, 127
5, 324096, Note_on_c, 3, 53, 0
5, 324096, Note_on_c, 3, 55, 127
5, 324144, Note_on_c, 3, 55, 0
5, 324144, Note_on_c, 3, 57, 127
5, 324192, Note_on_c, 3, 57, 0
5, 324192, Note_on_c, 3, 59, 127
5, 324240, Note_on_c, 3, 59, 0
5, 324240, Note_on_c, 3, 60, 127
5, 324336, Note_on_c, 3, 60, 0
5, 324336, Note_on_c, 3, 56, 127
5, 324432, Note_on_c, 3, 56, 0
5, 324432, Note_on_c, 3, 53, 127
5, 324528, Note_on_c, 3, 53, 0
5, 324528, Note_on_c, 3, 56, 127
5, 324624, Note_on_c, 3, 56, 0
5, 324624, Note_on_c, 3, 55, 127
5, 324816, Note_on_c, 3, 55, 0
5, 325392, Note_on_c, 3, 53, 127
5, 325488, Note_on_c, 3, 53, 0
5, 326160, Note_on_c, 3, 51, 127
5, 326256, Note_on_c, 3, 51, 0
5, 327312, Note_on_c, 3, 56, 127
5, 327360, Note_on_c, 3, 56, 0
5, 327360, Note_on_c, 3, 55, 127
5, 327408, Note_on_c, 3, 55, 0
5, 327408, Note_on_c, 3, 56, 127
5, 327456, Note_on_c, 3, 56, 0
5, 327456, Note_on_c, 3, 53, 127
5, 327504, Note_on_c, 3, 53, 0
5, 327504, Note_on_c, 3, 55, 127
5, 327600, Note_on_c, 3, 55, 0
5, 327600, Note_on_c, 3, 43, 127
5, 327696, Note_on_c, 3, 43, 0
5, 327744, Note_on_c, 3, 48, 127
5, 327792, Note_on_c, 3, 48, 0
5, 327792, Note_on_c, 3, 50, 127
5, 327840, Note_on_c, 3, 50, 0
5, 327840, Note_on_c, 3, 51, 127
5, 327888, Note_on_c, 3, 51, 0
5, 327888, Note_on_c, 3, 53, 127
5, 327936, Note_on_c, 3, 53, 0
5, 327936, Note_on_c, 3, 55, 127
5, 327984, Note_on_c, 3, 55, 0
5, 327984, Note_on_c, 3, 57, 127
5, 328032, Note_on_c, 3, 57, 0
5, 328032, Note_on_c, 3, 59, 127
5, 328080, Note_on_c, 3, 59, 0
5, 328080, Note_on_c, 3, 60, 127
5, 328176, Note_on_c, 3, 60, 0
5, 328176, Note_on_c, 3, 58, 127
5, 328272, Note_on_c, 3, 58, 0
5, 328272, Note_on_c, 3, 57, 127
5, 328368, Note_on_c, 3, 57, 0
5, 328368, Note_on_c, 3, 55, 127
5, 328464, Note_on_c, 3, 55, 0
5, 328464, Note_on_c, 3, 57, 127
5, 328512, Note_on_c, 3, 57, 0
5, 328512, Note_on_c, 3, 51, 127
5, 328560, Note_on_c, 3, 51, 0
5, 328560, Note_on_c, 3, 53, 127
5, 328608, Note_on_c, 3, 53, 0
5, 328608, Note_on_c, 3, 55, 127
5, 328656, Note_on_c, 3, 55, 0
5, 328656, Note_on_c, 3, 53, 127
5, 328704, Note_on_c, 3, 53, 0
5, 328704, Note_on_c, 3, 51, 127
5, 328752, Note_on_c, 3, 51, 0
5, 328752, Note_on_c, 3, 50, 127
5, 328800, Note_on_c, 3, 50, 0
5, 328800, Note_on_c, 3, 48, 127
5, 328848, Note_on_c, 3, 48, 0
5, 328848, Note_on_c, 3, 50, 127
5, 328896, Note_on_c, 3, 50, 0
5, 328896, Note_on_c, 3, 48, 127
5, 328944, Note_on_c, 3, 48, 0
5, 328944, Note_on_c, 3, 50, 127
5, 328992, Note_on_c, 3, 50, 0
5, 328992, Note_on_c, 3, 51, 127
5, 329040, Note_on_c, 3, 51, 0
5, 329040, Note_on_c, 3, 50, 127
5, 329088, Note_on_c, 3, 50, 0
5, 329088, Note_on_c, 3, 48, 127
5, 329136, Note_on_c, 3, 48, 0
5, 329136, Note_on_c, 3, 46, 127
5, 329184, Note_on_c, 3, 46, 0
5, 329184, Note_on_c, 3, 45, 127
5, 329232, Note_on_c, 3, 45, 0
5, 329232, Note_on_c, 3, 46, 127
5, 329328, Note_on_c, 3, 46, 0
5, 329328, Note_on_c, 3, 56, 127
5, 329424, Note_on_c, 3, 56, 0
5, 329424, Note_on_c, 3, 55, 127
5, 329520, Note_on_c, 3, 55, 0
5, 329520, Note_on_c, 3, 58, 127
5, 329616, Note_on_c, 3, 58, 0
5, 329616, Note_on_c, 3, 51, 127
5, 329712, Note_on_c, 3, 51, 0
5, 329712, Note_on_c, 3, 49, 127
5, 329808, Note_on_c, 3, 49, 0
5, 329808, Note_on_c, 3, 48, 127
5, 329904, Note_on_c, 3, 48, 0
5, 329904, Note_on_c, 3, 51, 127
5, 330000, Note_on_c, 3, 51, 0
5, 330000, Note_on_c, 3, 44, 127
5, 330096, Note_on_c, 3, 44, 0
5, 330096, Note_on_c, 3, 56, 127
5, 330192, Note_on_c, 3, 56, 0
5, 330192, Note_on_c, 3, 55, 127
5, 330288, Note_on_c, 3, 55, 0
5, 330288, Note_on_c, 3, 51, 127
5, 330384, Note_on_c, 3, 51, 0
5, 330384, Note_on_c, 3, 50, 127
5, 330480, Note_on_c, 3, 50, 0
5, 330480, Note_on_c, 3, 51, 127
5, 330576, Note_on_c, 3, 51, 0
5, 330576, Note_on_c, 3, 56, 127
5, 330672, Note_on_c, 3, 56, 0
5, 330672, Note_on_c, 3, 53, 127
5, 330768, Note_on_c, 3, 53, 0
5, 330768, Note_on_c, 3, 58, 127
5, 330912, Note_on_c, 3, 58, 0
5, 330912, Note_on_c, 3, 60, 127
5, 330960, Note_on_c, 3, 60, 0
5, 330960, Note_on_c, 3, 58, 127
5, 331008, Note_on_c, 3, 58, 0
5, 331008, Note_on_c, 3, 56, 127
5, 331056, Note_on_c, 3, 56, 0
5, 331056, Note_on_c, 3, 55, 127
5, 331104, Note_on_c, 3, 55, 0
5, 331104, Note_on_c, 3, 53, 127
5, 331152, Note_on_c, 3, 53, 0
5, 331152, Note_on_c, 3, 53, 127
5, 331168, Note_on_c, 3, 53, 0
5, 331168, Note_on_c, 3, 51, 127
5, 331184, Note_on_c, 3, 51, 0
5, 331184, Note_on_c, 3, 53, 127
5, 331200, Note_on_c, 3, 53, 0
5, 331200, Note_on_c, 3, 51, 127
5, 331344, Note_on_c, 3, 51, 0
5, 331584, Note_on_c, 3, 51, 127
5, 331632, Note_on_c, 3, 51, 0
5, 331632, Note_on_c, 3, 62, 127
5, 331680, Note_on_c, 3, 62, 0
5, 331680, Note_on_c, 3, 60, 127
5, 331728, Note_on_c, 3, 60, 0
5, 331728, Note_on_c, 3, 58, 127
5, 331776, Note_on_c, 3, 58, 0
5, 331776, Note_on_c, 3, 56, 127
5, 331824, Note_on_c, 3, 56, 0
5, 331824, Note_on_c, 3, 55, 127
5, 331872, Note_on_c, 3, 55, 0
5, 331872, Note_on_c, 3, 53, 127
5, 331920, Note_on_c, 3, 53, 0
5, 331920, Note_on_c, 3, 53, 127
5, 331936, Note_on_c, 3, 53, 0
5, 331936, Note_on_c, 3, 51, 127
5, 331952, Note_on_c, 3, 51, 0
5, 331952, Note_on_c, 3, 53, 127
5, 331968, Note_on_c, 3, 53, 0
5, 331968, Note_on_c, 3, 51, 127
5, 332016, Note_on_c, 3, 51, 0
5, 332016, Note_on_c, 3, 55, 127
5, 332112, Note_on_c, 3, 55, 0
5, 332112, Note_on_c, 3, 51, 127
5, 332208, Note_on_c, 3, 51, 0
5, 332208, Note_on_c, 3, 55, 127
5, 332304, Note_on_c, 3, 55, 0
5, 332304, Note_on_c, 3, 56, 127
5, 332400, Note_on_c, 3, 56, 0
5, 332400, Note_on_c, 3, 51, 127
5, 332496, Note_on_c, 3, 51, 0
5, 332496, Note_on_c, 3, 48, 127
5, 332592, Note_on_c, 3, 48, 0
5, 332592, Note_on_c, 3, 51, 127
5, 332688, Note_on_c, 3, 51, 0
5, 332688, Note_on_c, 3, 44, 127
5, 332784, Note_on_c, 3, 44, 0
5, 332784, Note_on_c, 3, 56, 127
5, 332880, Note_on_c, 3, 56, 0
5, 332880, Note_on_c, 3, 53, 127
5, 332976, Note_on_c, 3, 53, 0
5, 332976, Note_on_c, 3, 56, 127
5, 333072, Note_on_c, 3, 56, 0
5, 333072, Note_on_c, 3, 46, 127
5, 333264, Note_on_c, 3, 46, 0
5, 333552, Note_on_c, 3, 58, 127
5, 333648, Note_on_c, 3, 58, 0
5, 333648, Note_on_c, 3, 55, 127
5, 333744, Note_on_c, 3, 55, 0
5, 333744, Note_on_c, 3, 58, 127
5, 333840, Note_on_c, 3, 58, 0
5, 333840, Note_on_c, 3, 48, 127
5, 334032, Note_on_c, 3, 48, 0
5, 334320, Note_on_c, 3, 56, 127
5, 334416, Note_on_c, 3, 56, 0
5, 334416, Note_on_c, 3, 60, 127
5, 334512, Note_on_c, 3, 60, 0
5, 334512, Note_on_c, 3, 63, 127
5, 334608, Note_on_c, 3, 63, 0
5, 334608, Note_on_c, 3, 53, 127
5, 334704, Note_on_c, 3, 53, 0
5, 334704, Note_on_c, 3, 63, 127
5, 334800, Note_on_c, 3, 63, 0
5, 334800, Note_on_c, 3, 62, 127
5, 334896, Note_on_c, 3, 62, 0
5, 334896, Note_on_c, 3, 65, 127
5, 334992, Note_on_c, 3, 65, 0
5, 334992, Note_on_c, 3, 55, 127
5, 335088, Note_on_c, 3, 55, 0
5, 335088, Note_on_c, 3, 63, 127
5, 335136, Note_on_c, 3, 63, 0
5, 335136, Note_on_c, 3, 62, 127
5, 335184, Note_on_c, 3, 62, 0
5, 335184, Note_on_c, 3, 63, 127
5, 335280, Note_on_c, 3, 63, 0
5, 335280, Note_on_c, 3, 58, 127
5, 335376, Note_on_c, 3, 58, 0
5, 335376, Note_on_c, 3, 51, 127
5, 335472, Note_on_c, 3, 51, 0
5, 335472, Note_on_c, 3, 46, 127
5, 335568, Note_on_c, 3, 46, 0
5, 335568, Note_on_c, 3, 39, 127
5, 335760, Note_on_c, 3, 39, 0
5, 338448, Note_on_c, 3, 58, 127
5, 338640, Note_on_c, 3, 58, 0
5, 338640, Note_on_c, 3, 63, 127
5, 338672, Note_on_c, 3, 63, 0
5, 338736, Note_on_c, 3, 58, 127
5, 338928, Note_on_c, 3, 58, 0
5, 338928, Note_on_c, 3, 63, 127
5, 338960, Note_on_c, 3, 63, 0
5, 339024, Note_on_c, 3, 58, 127
5, 339120, Note_on_c, 3, 58, 0
5, 339120, Note_on_c, 3, 56, 127
5, 339216, Note_on_c, 3, 56, 0
5, 339216, Note_on_c, 3, 55, 127
5, 339312, Note_on_c, 3, 55, 0
5, 339312, Note_on_c, 3, 56, 127
5, 339408, Note_on_c, 3, 56, 0
5, 339408, Note_on_c, 3, 55, 127
5, 339504, Note_on_c, 3, 55, 0
5, 339504, Note_on_c, 3, 53, 127
5, 339600, Note_on_c, 3, 53, 0
5, 339600, Note_on_c, 3, 55, 127
5, 339696, Note_on_c, 3, 55, 0
5, 339696, Note_on_c, 3, 53, 127
5, 339792, Note_on_c, 3, 53, 0
5, 339792, Note_on_c, 3, 51, 127
5, 339888, Note_on_c, 3, 51, 0
5, 339888, Note_on_c, 3, 55, 127
5, 339984, Note_on_c, 3, 55, 0
5, 339984, Note_on_c, 3, 53, 127
5, 340080, Note_on_c, 3, 53, 0
5, 340080, Note_on_c, 3, 51, 127
5, 340176, Note_on_c, 3, 51, 0
5, 340176, Note_on_c, 3, 56, 127
5, 340272, Note_on_c, 3, 56, 0
5, 340272, Note_on_c, 3, 51, 127
5, 340368, Note_on_c, 3, 51, 0
5, 340368, Note_on_c, 3, 60, 127
5, 340400, Note_on_c, 3, 60, 0
5, 340464, Note_on_c, 3, 56, 127
5, 340560, Note_on_c, 3, 56, 0
5, 340560, Note_on_c, 3, 51, 127
5, 340656, Note_on_c, 3, 51, 0
5, 340656, Note_on_c, 3, 60, 127
5, 340688, Note_on_c, 3, 60, 0
5, 340752, Note_on_c, 3, 53, 127
5, 340848, Note_on_c, 3, 53, 0
5, 340848, Note_on_c, 3, 51, 127
5, 340944, Note_on_c, 3, 51, 0
5, 340944, Note_on_c, 3, 50, 127
5, 341040, Note_on_c, 3, 50, 0
5, 341040, Note_on_c, 3, 53, 127
5, 341136, Note_on_c, 3, 53, 0
5, 341136, Note_on_c, 3, 51, 127
5, 341232, Note_on_c, 3, 51, 0
5, 341232, Note_on_c, 3, 50, 127
5, 341328, Note_on_c, 3, 50, 0
5, 341328, Note_on_c, 3, 55, 127
5, 341424, Note_on_c, 3, 55, 0
5, 341424, Note_on_c, 3, 50, 127
5, 341520, Note_on_c, 3, 50, 0
5, 341520, Note_on_c, 3, 58, 127
5, 341552, Note_on_c, 3, 58, 0
5, 341616, Note_on_c, 3, 55, 127
5, 341712, Note_on_c, 3, 55, 0
5, 341712, Note_on_c, 3, 50, 127
5, 341808, Note_on_c, 3, 50, 0
5, 341808, Note_on_c, 3, 58, 127
5, 341840, Note_on_c, 3, 58, 0
5, 341904, Note_on_c, 3, 51, 127
5, 342000, Note_on_c, 3, 51, 0
5, 342000, Note_on_c, 3, 50, 127
5, 342096, Note_on_c, 3, 50, 0
5, 342096, Note_on_c, 3, 48, 127
5, 342192, Note_on_c, 3, 48, 0
5, 342192, Note_on_c, 3, 51, 127
5, 342288, Note_on_c, 3, 51, 0
5, 342288, Note_on_c, 3, 50, 127
5, 342384, Note_on_c, 3, 50, 0
5, 342384, Note_on_c, 3, 48, 127
5, 342480, Note_on_c, 3, 48, 0
5, 342480, Note_on_c, 3, 53, 127
5, 342576, Note_on_c, 3, 53, 0
5, 342576, Note_on_c, 3, 48, 127
5, 342672, Note_on_c, 3, 48, 0
5, 342672, Note_on_c, 3, 56, 127
5, 342704, Note_on_c, 3, 56, 0
5, 342768, Note_on_c, 3, 53, 127
5, 342864, Note_on_c, 3, 53, 0
5, 342864, Note_on_c, 3, 48, 127
5, 342960, Note_on_c, 3, 48, 0
5, 342960, Note_on_c, 3, 56, 127
5, 342992, Note_on_c, 3, 56, 0
5, 343056, Note_on_c, 3, 50, 127
5, 343152, Note_on_c, 3, 50, 0
5, 343152, Note_on_c, 3, 48, 127
5, 343248, Note_on_c, 3, 48, 0
5, 343248, Note_on_c, 3, 46, 127
5, 343344, Note_on_c, 3, 46, 0
5, 343344, Note_on_c, 3, 50, 127
5, 343440, Note_on_c, 3, 50, 0
5, 343440, Note_on_c, 3, 48, 127
5, 343536, Note_on_c, 3, 48, 0
5, 343536, Note_on_c, 3, 46, 127
5, 343632, Note_on_c, 3, 46, 0
5, 343632, Note_on_c, 3, 51, 127
5, 343728, Note_on_c, 3, 51, 0
5, 343728, Note_on_c, 3, 46, 127
5, 343824, Note_on_c, 3, 46, 0
5, 343824, Note_on_c, 3, 55, 127
5, 343856, Note_on_c, 3, 55, 0
5, 343920, Note_on_c, 3, 51, 127
5, 344016, Note_on_c, 3, 51, 0
5, 344016, Note_on_c, 3, 46, 127
5, 344112, Note_on_c, 3, 46, 0
5, 344112, Note_on_c, 3, 55, 127
5, 344144, Note_on_c, 3, 55, 0
5, 344208, Note_on_c, 3, 48, 127
5, 344400, Note_on_c, 3, 48, 0
5, 344400, Note_on_c, 3, 55, 127
5, 344432, Note_on_c, 3, 55, 0
5, 344496, Note_on_c, 3, 48, 127
5, 344688, Note_on_c, 3, 48, 0
5, 344688, Note_on_c, 3, 55, 127
5, 344720, Note_on_c, 3, 55, 0
5, 344784, Note_on_c, 3, 46, 127
5, 344880, Note_on_c, 3, 46, 0
5, 344880, Note_on_c, 3, 45, 127
5, 344976, Note_on_c, 3, 45, 0
5, 344976, Note_on_c, 3, 43, 127
5, 345072, Note_on_c, 3, 43, 0
5, 345072, Note_on_c, 3, 45, 127
5, 345168, Note_on_c, 3, 45, 0
5, 345168, Note_on_c, 3, 43, 127
5, 345264, Note_on_c, 3, 43, 0
5, 345264, Note_on_c, 3, 41, 127
5, 345360, Note_on_c, 3, 41, 0
5, 345360, Note_on_c, 3, 46, 127
5, 345552, Note_on_c, 3, 46, 0
5, 345552, Note_on_c, 3, 58, 127
5, 345584, Note_on_c, 3, 58, 0
5, 345648, Note_on_c, 3, 53, 127
5, 345840, Note_on_c, 3, 53, 0
5, 345840, Note_on_c, 3, 58, 127
5, 345872, Note_on_c, 3, 58, 0
5, 345936, Note_on_c, 3, 51, 127
5, 346032, Note_on_c, 3, 51, 0
5, 346032, Note_on_c, 3, 50, 127
5, 346128, Note_on_c, 3, 50, 0
5, 346128, Note_on_c, 3, 48, 127
5, 346224, Note_on_c, 3, 48, 0
5, 346224, Note_on_c, 3, 50, 127
5, 346320, Note_on_c, 3, 50, 0
5, 346320, Note_on_c, 3, 48, 127
5, 346416, Note_on_c, 3, 48, 0
5, 346416, Note_on_c, 3, 46, 127
5, 346512, Note_on_c, 3, 46, 0
5, 346512, Note_on_c, 3, 51, 127
5, 346704, Note_on_c, 3, 51, 0
5, 346704, Note_on_c, 3, 63, 127
5, 346736, Note_on_c, 3, 63, 0
5, 346800, Note_on_c, 3, 60, 127
5, 346992, Note_on_c, 3, 60, 0
5, 346992, Note_on_c, 3, 63, 127
5, 347024, Note_on_c, 3, 63, 0
5, 347088, Note_on_c, 3, 58, 127
5, 347184, Note_on_c, 3, 58, 0
5, 347184, Note_on_c, 3, 57, 127
5, 347280, Note_on_c, 3, 57, 0
5, 347280, Note_on_c, 3, 55, 127
5, 347376, Note_on_c, 3, 55, 0
5, 347376, Note_on_c, 3, 57, 127
5, 347472, Note_on_c, 3, 57, 0
5, 347472, Note_on_c, 3, 55, 127
5, 347568, Note_on_c, 3, 55, 0
5, 347568, Note_on_c, 3, 53, 127
5, 347664, Note_on_c, 3, 53, 0
5, 347664, Note_on_c, 3, 58, 127
5, 347856, Note_on_c, 3, 58, 0
5, 347856, Note_on_c, 3, 50, 127
5, 347952, Note_on_c, 3, 50, 0
5, 347952, Note_on_c, 3, 51, 127
5, 348144, Note_on_c, 3, 51, 0
5, 348144, Note_on_c, 3, 53, 127
5, 348240, Note_on_c, 3, 53, 0
5, 348240, Note_on_c, 3, 46, 127
5, 348336, Note_on_c, 3, 46, 0
5, 348336, Note_on_c, 3, 53, 127
5, 348432, Note_on_c, 3, 53, 0
5, 348432, Note_on_c, 3, 58, 127
5, 348464, Note_on_c, 3, 58, 0
5, 348528, Note_on_c, 3, 53, 127
5, 348624, Note_on_c, 3, 53, 0
5, 348624, Note_on_c, 3, 50, 127
5, 348720, Note_on_c, 3, 50, 0
5, 348720, Note_on_c, 3, 58, 127
5, 348752, Note_on_c, 3, 58, 0
5, 348816, Note_on_c, 3, 53, 127
5, 348912, Note_on_c, 3, 53, 0
5, 348912, Note_on_c, 3, 55, 127
5, 348960, Note_on_c, 3, 55, 0
5, 348960, Note_on_c, 3, 53, 127
5, 349008, Note_on_c, 3, 53, 0
5, 349008, Note_on_c, 3, 51, 127
5, 349056, Note_on_c, 3, 51, 0
5, 349056, Note_on_c, 3, 50, 127
5, 349104, Note_on_c, 3, 50, 0
5, 349104, Note_on_c, 3, 51, 127
5, 349200, Note_on_c, 3, 51, 0
5, 349200, Note_on_c, 3, 53, 127
5, 349248, Note_on_c, 3, 53, 0
5, 349248, Note_on_c, 3, 51, 127
5, 349296, Note_on_c, 3, 51, 0
5, 349296, Note_on_c, 3, 50, 127
5, 349344, Note_on_c, 3, 50, 0
5, 349344, Note_on_c, 3, 48, 127
5, 349392, Note_on_c, 3, 48, 0
5, 349392, Note_on_c, 3, 50, 127
5, 349488, Note_on_c, 3, 50, 0
5, 349488, Note_on_c, 3, 53, 127
5, 349536, Note_on_c, 3, 53, 0
5, 349536, Note_on_c, 3, 51, 127
5, 349584, Note_on_c, 3, 51, 0
5, 349584, Note_on_c, 3, 50, 127
5, 349632, Note_on_c, 3, 50, 0
5, 349632, Note_on_c, 3, 48, 127
5, 349680, Note_on_c, 3, 48, 0
5, 349680, Note_on_c, 3, 50, 127
5, 349776, Note_on_c, 3, 50, 0
5, 349776, Note_on_c, 3, 53, 127
5, 349824, Note_on_c, 3, 53, 0
5, 349824, Note_on_c, 3, 51, 127
5, 349872, Note_on_c, 3, 51, 0
5, 349872, Note_on_c, 3, 50, 127
5, 349920, Note_on_c, 3, 50, 0
5, 349920, Note_on_c, 3, 48, 127
5, 349968, Note_on_c, 3, 48, 0
5, 349968, Note_on_c, 3, 50, 127
5, 350064, Note_on_c, 3, 50, 0
5, 350064, Note_on_c, 3, 46, 127
5, 350160, Note_on_c, 3, 46, 0
5, 350160, Note_on_c, 3, 50, 127
5, 350192, Note_on_c, 3, 50, 0
5, 350256, Note_on_c, 3, 53, 127
5, 350352, Note_on_c, 3, 53, 0
5, 350352, Note_on_c, 3, 50, 127
5, 350448, Note_on_c, 3, 50, 0
5, 350448, Note_on_c, 3, 53, 127
5, 350480, Note_on_c, 3, 53, 0
5, 350544, Note_on_c, 3, 58, 127
5, 351120, Note_on_c, 3, 58, 0
5, 353424, Note_on_c, 3, 58, 127
5, 353616, Note_on_c, 3, 58, 0
5, 353616, Note_on_c, 3, 63, 127
5, 353648, Note_on_c, 3, 63, 0
5, 353712, Note_on_c, 3, 58, 127
5, 353904, Note_on_c, 3, 58, 0
5, 353904, Note_on_c, 3, 63, 127
5, 353936, Note_on_c, 3, 63, 0
5, 354000, Note_on_c, 3, 58, 127
5, 354096, Note_on_c, 3, 58, 0
5, 354096, Note_on_c, 3, 56, 127
5, 354192, Note_on_c, 3, 56, 0
5, 354192, Note_on_c, 3, 55, 127
5, 354288, Note_on_c, 3, 55, 0
5, 354288, Note_on_c, 3, 56, 127
5, 354384, Note_on_c, 3, 56, 0
5, 354384, Note_on_c, 3, 55, 127
5, 354480, Note_on_c, 3, 55, 0
5, 354480, Note_on_c, 3, 53, 127
5, 354576, Note_on_c, 3, 53, 0
5, 354576, Note_on_c, 3, 55, 127
5, 354672, Note_on_c, 3, 55, 0
5, 354672, Note_on_c, 3, 53, 127
5, 354768, Note_on_c, 3, 53, 0
5, 354768, Note_on_c, 3, 51, 127
5, 354864, Note_on_c, 3, 51, 0
5, 354864, Note_on_c, 3, 55, 127
5, 354960, Note_on_c, 3, 55, 0
5, 354960, Note_on_c, 3, 53, 127
5, 355056, Note_on_c, 3, 53, 0
5, 355056, Note_on_c, 3, 51, 127
5, 355152, Note_on_c, 3, 51, 0
5, 355152, Note_on_c, 3, 56, 127
5, 355248, Note_on_c, 3, 56, 0
5, 355248, Note_on_c, 3, 51, 127
5, 355344, Note_on_c, 3, 51, 0
5, 355344, Note_on_c, 3, 60, 127
5, 355376, Note_on_c, 3, 60, 0
5, 355440, Note_on_c, 3, 56, 127
5, 355536, Note_on_c, 3, 56, 0
5, 355536, Note_on_c, 3, 51, 127
5, 355632, Note_on_c, 3, 51, 0
5, 355632, Note_on_c, 3, 60, 127
5, 355664, Note_on_c, 3, 60, 0
5, 355728, Note_on_c, 3, 53, 127
5, 355824, Note_on_c, 3, 53, 0
5, 355824, Note_on_c, 3, 51, 127
5, 355920, Note_on_c, 3, 51, 0
5, 355920, Note_on_c, 3, 50, 127
5, 356016, Note_on_c, 3, 50, 0
5, 356016, Note_on_c, 3, 53, 127
5, 356112, Note_on_c, 3, 53, 0
5, 356112, Note_on_c, 3, 51, 127
5, 356208, Note_on_c, 3, 51, 0
5, 356208, Note_on_c, 3, 50, 127
5, 356304, Note_on_c, 3, 50, 0
5, 356304, Note_on_c, 3, 55, 127
5, 356400, Note_on_c, 3, 55, 0
5, 356400, Note_on_c, 3, 50, 127
5, 356496, Note_on_c, 3, 50, 0
5, 356496, Note_on_c, 3, 58, 127
5, 356528, Note_on_c, 3, 58, 0
5, 356592, Note_on_c, 3, 55, 127
5, 356688, Note_on_c, 3, 55, 0
5, 356688, Note_on_c, 3, 50, 127
5, 356784, Note_on_c, 3, 50, 0
5, 356784, Note_on_c, 3, 58, 127
5, 356816, Note_on_c, 3, 58, 0
5, 356880, Note_on_c, 3, 51, 127
5, 356976, Note_on_c, 3, 51, 0
5, 356976, Note_on_c, 3, 50, 127
5, 357072, Note_on_c, 3, 50, 0
5, 357072, Note_on_c, 3, 48, 127
5, 357168, Note_on_c, 3, 48, 0
5, 357168, Note_on_c, 3, 51, 127
5, 357264, Note_on_c, 3, 51, 0
5, 357264, Note_on_c, 3, 50, 127
5, 357360, Note_on_c, 3, 50, 0
5, 357360, Note_on_c, 3, 48, 127
5, 357456, Note_on_c, 3, 48, 0
5, 357456, Note_on_c, 3, 53, 127
5, 357552, Note_on_c, 3, 53, 0
5, 357552, Note_on_c, 3, 48, 127
5, 357648, Note_on_c, 3, 48, 0
5, 357648, Note_on_c, 3, 56, 127
5, 357680, Note_on_c, 3, 56, 0
5, 357744, Note_on_c, 3, 53, 127
5, 357840, Note_on_c, 3, 53, 0
5, 357840, Note_on_c, 3, 48, 127
5, 357936, Note_on_c, 3, 48, 0
5, 357936, Note_on_c, 3, 56, 127
5, 357968, Note_on_c, 3, 56, 0
5, 358032, Note_on_c, 3, 50, 127
5, 358128, Note_on_c, 3, 50, 0
5, 358128, Note_on_c, 3, 48, 127
5, 358224, Note_on_c, 3, 48, 0
5, 358224, Note_on_c, 3, 46, 127
5, 358320, Note_on_c, 3, 46, 0
5, 358320, Note_on_c, 3, 50, 127
5, 358416, Note_on_c, 3, 50, 0
5, 358416, Note_on_c, 3, 48, 127
5, 358512, Note_on_c, 3, 48, 0
5, 358512, Note_on_c, 3, 46, 127
5, 358608, Note_on_c, 3, 46, 0
5, 358608, Note_on_c, 3, 51, 127
5, 358704, Note_on_c, 3, 51, 0
5, 358704, Note_on_c, 3, 46, 127
5, 358800, Note_on_c, 3, 46, 0
5, 358800, Note_on_c, 3, 55, 127
5, 358832, Note_on_c, 3, 55, 0
5, 358896, Note_on_c, 3, 51, 127
5, 358992, Note_on_c, 3, 51, 0
5, 358992, Note_on_c, 3, 46, 127
5, 359088, Note_on_c, 3, 46, 0
5, 359088, Note_on_c, 3, 55, 127
5, 359120, Note_on_c, 3, 55, 0
5, 359184, Note_on_c, 3, 48, 127
5, 359376, Note_on_c, 3, 48, 0
5, 359376, Note_on_c, 3, 55, 127
5, 359408, Note_on_c, 3, 55, 0
5, 359472, Note_on_c, 3, 48, 127
5, 359664, Note_on_c, 3, 48, 0
5, 359664, Note_on_c, 3, 55, 127
5, 359696, Note_on_c, 3, 55, 0
5, 359760, Note_on_c, 3, 46, 127
5, 359856, Note_on_c, 3, 46, 0
5, 359856, Note_on_c, 3, 45, 127
5, 359952, Note_on_c, 3, 45, 0
5, 359952, Note_on_c, 3, 43, 127
5, 360048, Note_on_c, 3, 43, 0
5, 360048, Note_on_c, 3, 45, 127
5, 360144, Note_on_c, 3, 45, 0
5, 360144, Note_on_c, 3, 43, 127
5, 360240, Note_on_c, 3, 43, 0
5, 360240, Note_on_c, 3, 41, 127
5, 360336, Note_on_c, 3, 41, 0
5, 360336, Note_on_c, 3, 46, 127
5, 360528, Note_on_c, 3, 46, 0
5, 360528, Note_on_c, 3, 58, 127
5, 360560, Note_on_c, 3, 58, 0
5, 360624, Note_on_c, 3, 53, 127
5, 360816, Note_on_c, 3, 53, 0
5, 360816, Note_on_c, 3, 58, 127
5, 360848, Note_on_c, 3, 58, 0
5, 360912, Note_on_c, 3, 51, 127
5, 361008, Note_on_c, 3, 51, 0
5, 361008, Note_on_c, 3, 50, 127
5, 361104, Note_on_c, 3, 50, 0
5, 361104, Note_on_c, 3, 48, 127
5, 361200, Note_on_c, 3, 48, 0
5, 361200, Note_on_c, 3, 50, 127
5, 361296, Note_on_c, 3, 50, 0
5, 361296, Note_on_c, 3, 48, 127
5, 361392, Note_on_c, 3, 48, 0
5, 361392, Note_on_c, 3, 46, 127
5, 361488, Note_on_c, 3, 46, 0
5, 361488, Note_on_c, 3, 51, 127
5, 361680, Note_on_c, 3, 51, 0
5, 361680, Note_on_c, 3, 63, 127
5, 361712, Note_on_c, 3, 63, 0
5, 361776, Note_on_c, 3, 60, 127
5, 361968, Note_on_c, 3, 60, 0
5, 361968, Note_on_c, 3, 63, 127
5, 362000, Note_on_c, 3, 63, 0
5, 362064, Note_on_c, 3, 58, 127
5, 362160, Note_on_c, 3, 58, 0
5, 362160, Note_on_c, 3, 57, 127
5, 362256, Note_on_c, 3, 57, 0
5, 362256, Note_on_c, 3, 55, 127
5, 362352, Note_on_c, 3, 55, 0
5, 362352, Note_on_c, 3, 57, 127
5, 362448, Note_on_c, 3, 57, 0
5, 362448, Note_on_c, 3, 55, 127
5, 362544, Note_on_c, 3, 55, 0
5, 362544, Note_on_c, 3, 53, 127
5, 362640, Note_on_c, 3, 53, 0
5, 362640, Note_on_c, 3, 58, 127
5, 362832, Note_on_c, 3, 58, 0
5, 362832, Note_on_c, 3, 50, 127
5, 362928, Note_on_c, 3, 50, 0
5, 362928, Note_on_c, 3, 51, 127
5, 363120, Note_on_c, 3, 51, 0
5, 363120, Note_on_c, 3, 53, 127
5, 363216, Note_on_c, 3, 53, 0
5, 363216, Note_on_c, 3, 46, 127
5, 363312, Note_on_c, 3, 46, 0
5, 363312, Note_on_c, 3, 53, 127
5, 363408, Note_on_c, 3, 53, 0
5, 363408, Note_on_c, 3, 58, 127
5, 363440, Note_on_c, 3, 58, 0
5, 363504, Note_on_c, 3, 53, 127
5, 363600, Note_on_c, 3, 53, 0
5, 363600, Note_on_c, 3, 50, 127
5, 363696, Note_on_c, 3, 50, 0
5, 363696, Note_on_c, 3, 58, 127
5, 363728, Note_on_c, 3, 58, 0
5, 363792, Note_on_c, 3, 53, 127
5, 363888, Note_on_c, 3, 53, 0
5, 363888, Note_on_c, 3, 55, 127
5, 363936, Note_on_c, 3, 55, 0
5, 363936, Note_on_c, 3, 53, 127
5, 363984, Note_on_c, 3, 53, 0
5, 363984, Note_on_c, 3, 51, 127
5, 364032, Note_on_c, 3, 51, 0
5, 364032, Note_on_c, 3, 50, 127
5, 364080, Note_on_c, 3, 50, 0
5, 364080, Note_on_c, 3, 51, 127
5, 364176, Note_on_c, 3, 51, 0
5, 364176, Note_on_c, 3, 53, 127
5, 364224, Note_on_c, 3, 53, 0
5, 364224, Note_on_c, 3, 51, 127
5, 364272, Note_on_c, 3, 51, 0
5, 364272, Note_on_c, 3, 50, 127
5, 364320, Note_on_c, 3, 50, 0
5, 364320, Note_on_c, 3, 48, 127
5, 364368, Note_on_c, 3, 48, 0
5, 364368, Note_on_c, 3, 50, 127
5, 364464, Note_on_c, 3, 50, 0
5, 364464, Note_on_c, 3, 53, 127
5, 364512, Note_on_c, 3, 53, 0
5, 364512, Note_on_c, 3, 51, 127
5, 364560, Note_on_c, 3, 51, 0
5, 364560, Note_on_c, 3, 50, 127
5, 364608, Note_on_c, 3, 50, 0
5, 364608, Note_on_c, 3, 48, 127
5, 364656, Note_on_c, 3, 48, 0
5, 364656, Note_on_c, 3, 50, 127
5, 364752, Note_on_c, 3, 50, 0
5, 364752, Note_on_c, 3, 53, 127
5, 364800, Note_on_c, 3, 53, 0
5, 364800, Note_on_c, 3, 51, 127
5, 364848, Note_on_c, 3, 51, 0
5, 364848, Note_on_c, 3, 50, 127
5, 364896, Note_on_c, 3, 50, 0
5, 364896, Note_on_c, 3, 48, 127
5, 364944, Note_on_c, 3, 48, 0
5, 364944, Note_on_c, 3, 50, 127
5, 365040, Note_on_c, 3, 50, 0
5, 365040, Note_on_c, 3, 46, 127
5, 365136, Note_on_c, 3, 46, 0
5, 365136, Note_on_c, 3, 50, 127
5, 365168, Note_on_c, 3, 50, 0
5, 365232, Note_on_c, 3, 53, 127
5, 365328, Note_on_c, 3, 53, 0
5, 365328, Note_on_c, 3, 50, 127
5, 365424, Note_on_c, 3, 50, 0
5, 365424, Note_on_c, 3, 53, 127
5, 365456, Note_on_c, 3, 53, 0
5, 365520, Note_on_c, 3, 58, 127
5, 366096, Note_on_c, 3, 58, 0
5, 367248, Note_on_c, 3, 58, 127
5, 367272, Note_on_c, 3, 58, 0
5, 367272, Note_on_c, 3, 56, 127
5, 367296, Note_on_c, 3, 56, 0
5, 367296, Note_on_c, 3, 58, 127
5, 367440, Note_on_c, 3, 58, 0
5, 367440, Note_on_c, 3, 51, 127
5, 367472, Note_on_c, 3, 51, 0
5, 367536, Note_on_c, 3, 58, 127
5, 367728, Note_on_c, 3, 58, 0
5, 367728, Note_on_c, 3, 51, 127
5, 367760, Note_on_c, 3, 51, 0
5, 367824, Note_on_c, 3, 56, 127
5, 367920, Note_on_c, 3, 56, 0
5, 367920, Note_on_c, 3, 58, 127
5, 368016, Note_on_c, 3, 58, 0
5, 368016, Note_on_c, 3, 60, 127
5, 368112, Note_on_c, 3, 60, 0
5, 368112, Note_on_c, 3, 58, 127
5, 368240, Note_on_c, 3, 58, 0
5, 368240, Note_on_c, 3, 60, 127
5, 368368, Note_on_c, 3, 60, 0
5, 368368, Note_on_c, 3, 61, 127
5, 368496, Note_on_c, 3, 61, 0
5, 368496, Note_on_c, 3, 60, 127
5, 368640, Note_on_c, 3, 60, 0
5, 368640, Note_on_c, 3, 62, 127
5, 368688, Note_on_c, 3, 62, 0
5, 368688, Note_on_c, 3, 60, 127
5, 368736, Note_on_c, 3, 60, 0
5, 368736, Note_on_c, 3, 62, 127
5, 368784, Note_on_c, 3, 62, 0
5, 368784, Note_on_c, 3, 63, 127
5, 368832, Note_on_c, 3, 63, 0
5, 368832, Note_on_c, 3, 62, 127
5, 368880, Note_on_c, 3, 62, 0
5, 368880, Note_on_c, 3, 63, 127
5, 368928, Note_on_c, 3, 63, 0
5, 368928, Note_on_c, 3, 62, 127
5, 368976, Note_on_c, 3, 62, 0
5, 368976, Note_on_c, 3, 63, 127
5, 369024, Note_on_c, 3, 63, 0
5, 369024, Note_on_c, 3, 62, 127
5, 369072, Note_on_c, 3, 62, 0
5, 369072, Note_on_c, 3, 60, 127
5, 369120, Note_on_c, 3, 60, 0
5, 369120, Note_on_c, 3, 62, 127
5, 369168, Note_on_c, 3, 62, 0
5, 369168, Note_on_c, 3, 63, 127
5, 369264, Note_on_c, 3, 63, 0
5, 369264, Note_on_c, 3, 67, 127
5, 369360, Note_on_c, 3, 67, 0
5, 369360, Note_on_c, 3, 65, 127
5, 369456, Note_on_c, 3, 65, 0
5, 369456, Note_on_c, 3, 63, 127
5, 369584, Note_on_c, 3, 63, 0
5, 369584, Note_on_c, 3, 62, 127
5, 369712, Note_on_c, 3, 62, 0
5, 369712, Note_on_c, 3, 60, 127
5, 369840, Note_on_c, 3, 60, 0
5, 369840, Note_on_c, 3, 62, 127
5, 369936, Note_on_c, 3, 62, 0
5, 369936, Note_on_c, 3, 53, 127
5, 370032, Note_on_c, 3, 53, 0
5, 370032, Note_on_c, 3, 56, 127
5, 370128, Note_on_c, 3, 56, 0
5, 370128, Note_on_c, 3, 60, 127
5, 370224, Note_on_c, 3, 60, 0
5, 370224, Note_on_c, 3, 58, 127
5, 370320, Note_on_c, 3, 58, 0
5, 370320, Note_on_c, 3, 56, 127
5, 370416, Note_on_c, 3, 56, 0
5, 370416, Note_on_c, 3, 55, 127
5, 370512, Note_on_c, 3, 55, 0
5, 370512, Note_on_c, 3, 53, 127
5, 370608, Note_on_c, 3, 53, 0
5, 370608, Note_on_c, 3, 51, 127
5, 370704, Note_on_c, 3, 51, 0
5, 370704, Note_on_c, 3, 50, 127
5, 370800, Note_on_c, 3, 50, 0
5, 370800, Note_on_c, 3, 48, 127
5, 370896, Note_on_c, 3, 48, 0
5, 370896, Note_on_c, 3, 46, 127
5, 370992, Note_on_c, 3, 46, 0
5, 370992, Note_on_c, 3, 51, 127
5, 371184, Note_on_c, 3, 51, 0
5, 371184, Note_on_c, 3, 55, 127
5, 371216, Note_on_c, 3, 55, 0
5, 371280, Note_on_c, 3, 51, 127
5, 371472, Note_on_c, 3, 51, 0
5, 371472, Note_on_c, 3, 55, 127
5, 371504, Note_on_c, 3, 55, 0
5, 371568, Note_on_c, 3, 56, 127
5, 371664, Note_on_c, 3, 56, 0
5, 371664, Note_on_c, 3, 59, 127
5, 371760, Note_on_c, 3, 59, 0
5, 371760, Note_on_c, 3, 60, 127
5, 371856, Note_on_c, 3, 60, 0
5, 371856, Note_on_c, 3, 56, 127
5, 371952, Note_on_c, 3, 56, 0
5, 371952, Note_on_c, 3, 59, 127
5, 372048, Note_on_c, 3, 59, 0
5, 372048, Note_on_c, 3, 60, 127
5, 372144, Note_on_c, 3, 60, 0
5, 372144, Note_on_c, 3, 50, 127
5, 372336, Note_on_c, 3, 50, 0
5, 372336, Note_on_c, 3, 53, 127
5, 372368, Note_on_c, 3, 53, 0
5, 372432, Note_on_c, 3, 50, 127
5, 372624, Note_on_c, 3, 50, 0
5, 372624, Note_on_c, 3, 53, 127
5, 372656, Note_on_c, 3, 53, 0
5, 372720, Note_on_c, 3, 55, 127
5, 372816, Note_on_c, 3, 55, 0
5, 372816, Note_on_c, 3, 59, 127
5, 372912, Note_on_c, 3, 59, 0
5, 372912, Note_on_c, 3, 62, 127
5, 373008, Note_on_c, 3, 62, 0
5, 373008, Note_on_c, 3, 55, 127
5, 373104, Note_on_c, 3, 55, 0
5, 373104, Note_on_c, 3, 59, 127
5, 373200, Note_on_c, 3, 59, 0
5, 373200, Note_on_c, 3, 62, 127
5, 373296, Note_on_c, 3, 62, 0
5, 373296, Note_on_c, 3, 60, 127
5, 373392, Note_on_c, 3, 60, 0
5, 373392, Note_on_c, 3, 48, 127
5, 373488, Note_on_c, 3, 48, 0
5, 373488, Note_on_c, 3, 60, 127
5, 373584, Note_on_c, 3, 60, 0
5, 373584, Note_on_c, 3, 58, 127
5, 373680, Note_on_c, 3, 58, 0
5, 373680, Note_on_c, 3, 61, 127
5, 373776, Note_on_c, 3, 61, 0
5, 373776, Note_on_c, 3, 60, 127
5, 373872, Note_on_c, 3, 60, 0
5, 373872, Note_on_c, 3, 56, 127
5, 373968, Note_on_c, 3, 56, 0
5, 373968, Note_on_c, 3, 55, 127
5, 374064, Note_on_c, 3, 55, 0
5, 374064, Note_on_c, 3, 53, 127
5, 374160, Note_on_c, 3, 53, 0
5, 374160, Note_on_c, 3, 60, 127
5, 374352, Note_on_c, 3, 60, 0
5, 374352, Note_on_c, 3, 48, 127
5, 374384, Note_on_c, 3, 48, 0
5, 374448, Note_on_c, 3, 53, 127
5, 374640, Note_on_c, 3, 53, 0
5, 374640, Note_on_c, 3, 48, 127
5, 374672, Note_on_c, 3, 48, 0
5, 374736, Note_on_c, 3, 53, 127
5, 374928, Note_on_c, 3, 53, 0
5, 374928, Note_on_c, 3, 48, 127
5, 374960, Note_on_c, 3, 48, 0
5, 375024, Note_on_c, 3, 55, 127
5, 375120, Note_on_c, 3, 55, 0
5, 375120, Note_on_c, 3, 57, 127
5, 375216, Note_on_c, 3, 57, 0
5, 375216, Note_on_c, 3, 59, 127
5, 375312, Note_on_c, 3, 59, 0
5, 375312, Note_on_c, 3, 57, 127
5, 375408, Note_on_c, 3, 57, 0
5, 375408, Note_on_c, 3, 59, 127
5, 375504, Note_on_c, 3, 59, 0
5, 375504, Note_on_c, 3, 60, 127
5, 375600, Note_on_c, 3, 60, 0
5, 375600, Note_on_c, 3, 59, 127
5, 375696, Note_on_c, 3, 59, 0
5, 375696, Note_on_c, 3, 55, 127
5, 375792, Note_on_c, 3, 55, 0
5, 375792, Note_on_c, 3, 60, 127
5, 375888, Note_on_c, 3, 60, 0
5, 375888, Note_on_c, 3, 53, 127
5, 375984, Note_on_c, 3, 53, 0
5, 375984, Note_on_c, 3, 50, 127
5, 376080, Note_on_c, 3, 50, 0
5, 376080, Note_on_c, 3, 55, 127
5, 376176, Note_on_c, 3, 55, 0
5, 376176, Note_on_c, 3, 48, 127
5, 376368, Note_on_c, 3, 48, 0
5, 376368, Note_on_c, 3, 43, 127
5, 376400, Note_on_c, 3, 43, 0
5, 376464, Note_on_c, 3, 48, 127
5, 376656, Note_on_c, 3, 48, 0
5, 376656, Note_on_c, 3, 43, 127
5, 376688, Note_on_c, 3, 43, 0
5, 376752, Note_on_c, 3, 48, 127
5, 376848, Note_on_c, 3, 48, 0
5, 376848, Note_on_c, 3, 50, 127
5, 376944, Note_on_c, 3, 50, 0
5, 376944, Note_on_c, 3, 51, 127
5, 377040, Note_on_c, 3, 51, 0
5, 377040, Note_on_c, 3, 50, 127
5, 377136, Note_on_c, 3, 50, 0
5, 377136, Note_on_c, 3, 51, 127
5, 377232, Note_on_c, 3, 51, 0
5, 377232, Note_on_c, 3, 53, 127
5, 377328, Note_on_c, 3, 53, 0
5, 377328, Note_on_c, 3, 51, 127
5, 377520, Note_on_c, 3, 51, 0
5, 377520, Note_on_c, 3, 46, 127
5, 377552, Note_on_c, 3, 46, 0
5, 377616, Note_on_c, 3, 51, 127
5, 377808, Note_on_c, 3, 51, 0
5, 377808, Note_on_c, 3, 46, 127
5, 377840, Note_on_c, 3, 46, 0
5, 377904, Note_on_c, 3, 53, 127
5, 378000, Note_on_c, 3, 53, 0
5, 378000, Note_on_c, 3, 55, 127
5, 378096, Note_on_c, 3, 55, 0
5, 378096, Note_on_c, 3, 56, 127
5, 378192, Note_on_c, 3, 56, 0
5, 378192, Note_on_c, 3, 55, 127
5, 378288, Note_on_c, 3, 55, 0
5, 378288, Note_on_c, 3, 56, 127
5, 378384, Note_on_c, 3, 56, 0
5, 378384, Note_on_c, 3, 58, 127
5, 378480, Note_on_c, 3, 58, 0
5, 378480, Note_on_c, 3, 56, 127
5, 378672, Note_on_c, 3, 56, 0
5, 378672, Note_on_c, 3, 51, 127
5, 378704, Note_on_c, 3, 51, 0
5, 378768, Note_on_c, 3, 56, 127
5, 378960, Note_on_c, 3, 56, 0
5, 378960, Note_on_c, 3, 51, 127
5, 378992, Note_on_c, 3, 51, 0
5, 379056, Note_on_c, 3, 58, 127
5, 379152, Note_on_c, 3, 58, 0
5, 379152, Note_on_c, 3, 60, 127
5, 379248, Note_on_c, 3, 60, 0
5, 379248, Note_on_c, 3, 62, 127
5, 379344, Note_on_c, 3, 62, 0
5, 379344, Note_on_c, 3, 60, 127
5, 379440, Note_on_c, 3, 60, 0
5, 379440, Note_on_c, 3, 62, 127
5, 379536, Note_on_c, 3, 62, 0
5, 379536, Note_on_c, 3, 63, 127
5, 379632, Note_on_c, 3, 63, 0
5, 379632, Note_on_c, 3, 62, 127
5, 379728, Note_on_c, 3, 62, 0
5, 379728, Note_on_c, 3, 65, 127
5, 379824, Note_on_c, 3, 65, 0
5, 379824, Note_on_c, 3, 63, 127
5, 379920, Note_on_c, 3, 63, 0
5, 379920, Note_on_c, 3, 62, 127
5, 380016, Note_on_c, 3, 62, 0
5, 380016, Note_on_c, 3, 60, 127
5, 380112, Note_on_c, 3, 60, 0
5, 380112, Note_on_c, 3, 58, 127
5, 380208, Note_on_c, 3, 58, 0
5, 380208, Note_on_c, 3, 51, 127
5, 380304, Note_on_c, 3, 51, 0
5, 380304, Note_on_c, 3, 63, 127
5, 380400, Note_on_c, 3, 63, 0
5, 380400, Note_on_c, 3, 61, 127
5, 380496, Note_on_c, 3, 61, 0
5, 380496, Note_on_c, 3, 60, 127
5, 380624, Note_on_c, 3, 60, 0
5, 380624, Note_on_c, 3, 58, 127
5, 380752, Note_on_c, 3, 58, 0
5, 380752, Note_on_c, 3, 56, 127
5, 380880, Note_on_c, 3, 56, 0
5, 380880, Note_on_c, 3, 55, 127
5, 381024, Note_on_c, 3, 55, 0
5, 381024, Note_on_c, 3, 56, 127
5, 381072, Note_on_c, 3, 56, 0
5, 381072, Note_on_c, 3, 55, 127
5, 381120, Note_on_c, 3, 55, 0
5, 381120, Note_on_c, 3, 56, 127
5, 381168, Note_on_c, 3, 56, 0
5, 381168, Note_on_c, 3, 58, 127
5, 381216, Note_on_c, 3, 58, 0
5, 381216, Note_on_c, 3, 56, 127
5, 381264, Note_on_c, 3, 56, 0
5, 381264, Note_on_c, 3, 58, 127
5, 381312, Note_on_c, 3, 58, 0
5, 381312, Note_on_c, 3, 56, 127
5, 381360, Note_on_c, 3, 56, 0
5, 381360, Note_on_c, 3, 58, 127
5, 381408, Note_on_c, 3, 58, 0
5, 381408, Note_on_c, 3, 56, 127
5, 381456, Note_on_c, 3, 56, 0
5, 381456, Note_on_c, 3, 55, 127
5, 381504, Note_on_c, 3, 55, 0
5, 381504, Note_on_c, 3, 56, 127
5, 381552, Note_on_c, 3, 56, 0
5, 381552, Note_on_c, 3, 58, 127
5, 381744, Note_on_c, 3, 58, 0
5, 381840, Note_on_c, 3, 46, 127
5, 382096, Note_on_c, 3, 46, 0
5, 382224, Note_on_c, 3, 51, 127
5, 382416, Note_on_c, 3, 51, 0
5, 382416, Note_on_c, 3, 46, 127
5, 382448, Note_on_c, 3, 46, 0
5, 382512, Note_on_c, 3, 51, 127
5, 382704, Note_on_c, 3, 51, 0
5, 382704, Note_on_c, 3, 46, 127
5, 382736, Note_on_c, 3, 46, 0
5, 382800, Note_on_c, 3, 51, 127
5, 382896, Note_on_c, 3, 51, 0
5, 382896, Note_on_c, 3, 53, 127
5, 382992, Note_on_c, 3, 53, 0
5, 382992, Note_on_c, 3, 55, 127
5, 383088, Note_on_c, 3, 55, 0
5, 383088, Note_on_c, 3, 53, 127
5, 383184, Note_on_c, 3, 53, 0
5, 383184, Note_on_c, 3, 55, 127
5, 383280, Note_on_c, 3, 55, 0
5, 383280, Note_on_c, 3, 56, 127
5, 383376, Note_on_c, 3, 56, 0
5, 383376, Note_on_c, 3, 55, 127
5, 383472, Note_on_c, 3, 55, 0
5, 383472, Note_on_c, 3, 51, 127
5, 383568, Note_on_c, 3, 51, 0
5, 383568, Note_on_c, 3, 53, 127
5, 383664, Note_on_c, 3, 53, 0
5, 383664, Note_on_c, 3, 55, 127
5, 383712, Note_on_c, 3, 55, 0
5, 383712, Note_on_c, 3, 56, 127
5, 383760, Note_on_c, 3, 56, 0
5, 383760, Note_on_c, 3, 58, 127
5, 383856, Note_on_c, 3, 58, 0
5, 383856, Note_on_c, 3, 58, 127
5, 383952, Note_on_c, 3, 58, 0
5, 383952, Note_on_c, 3, 60, 127
5, 383976, Note_on_c, 3, 60, 0
5, 383976, Note_on_c, 3, 58, 127
5, 384000, Note_on_c, 3, 58, 0
5, 384000, Note_on_c, 3, 60, 127
5, 384024, Note_on_c, 3, 60, 0
5, 384024, Note_on_c, 3, 58, 127
5, 384048, Note_on_c, 3, 58, 0
5, 384048, Note_on_c, 3, 60, 127
5, 384072, Note_on_c, 3, 60, 0
5, 384072, Note_on_c, 3, 58, 127
5, 384096, Note_on_c, 3, 58, 0
5, 384096, Note_on_c, 3, 60, 127
5, 384120, Note_on_c, 3, 60, 0
5, 384120, Note_on_c, 3, 58, 127
5, 384144, Note_on_c, 3, 58, 0
5, 384144, Note_on_c, 3, 60, 127
5, 384168, Note_on_c, 3, 60, 0
5, 384168, Note_on_c, 3, 58, 127
5, 384192, Note_on_c, 3, 58, 0
5, 384192, Note_on_c, 3, 60, 127
5, 384216, Note_on_c, 3, 60, 0
5, 384216, Note_on_c, 3, 58, 127
5, 384240, Note_on_c, 3, 58, 0
5, 384240, Note_on_c, 3, 60, 127
5, 384264, Note_on_c, 3, 60, 0
5, 384264, Note_on_c, 3, 58, 127
5, 384288, Note_on_c, 3, 58, 0
5, 384288, Note_on_c, 3, 60, 127
5, 384312, Note_on_c, 3, 60, 0
5, 384312, Note_on_c, 3, 58, 127
5, 384336, Note_on_c, 3, 58, 0
5, 384336, Note_on_c, 3, 60, 127
5, 384360, Note_on_c, 3, 60, 0
5, 384360, Note_on_c, 3, 58, 127
5, 384384, Note_on_c, 3, 58, 0
5, 384384, Note_on_c, 3, 60, 127
5, 384408, Note_on_c, 3, 60, 0
5, 384408, Note_on_c, 3, 58, 127
5, 384432, Note_on_c, 3, 58, 0
5, 384432, Note_on_c, 3, 60, 127
5, 384456, Note_on_c, 3, 60, 0
5, 384456, Note_on_c, 3, 58, 127
5, 384480, Note_on_c, 3, 58, 0
5, 384480, Note_on_c, 3, 60, 127
5, 384504, Note_on_c, 3, 60, 0
5, 384504, Note_on_c, 3, 58, 127
5, 384720, Note_on_c, 3, 58, 0
5, 384720, Note_on_c, 3, 63, 127
5, 384752, Note_on_c, 3, 63, 0
5, 384816, Note_on_c, 3, 58, 127
5, 385008, Note_on_c, 3, 58, 0
5, 385008, Note_on_c, 3, 63, 127
5, 385040, Note_on_c, 3, 63, 0
5, 385104, Note_on_c, 3, 58, 127
5, 385200, Note_on_c, 3, 58, 0
5, 385200, Note_on_c, 3, 60, 127
5, 385248, Note_on_c, 3, 60, 0
5, 385248, Note_on_c, 3, 58, 127
5, 385296, Note_on_c, 3, 58, 0
5, 385296, Note_on_c, 3, 56, 127
5, 385344, Note_on_c, 3, 56, 0
5, 385344, Note_on_c, 3, 55, 127
5, 385392, Note_on_c, 3, 55, 0
5, 385392, Note_on_c, 3, 56, 127
5, 385488, Note_on_c, 3, 56, 0
5, 385488, Note_on_c, 3, 58, 127
5, 385536, Note_on_c, 3, 58, 0
5, 385536, Note_on_c, 3, 56, 127
5, 385584, Note_on_c, 3, 56, 0
5, 385584, Note_on_c, 3, 55, 127
5, 385632, Note_on_c, 3, 55, 0
5, 385632, Note_on_c, 3, 53, 127
5, 385680, Note_on_c, 3, 53, 0
5, 385680, Note_on_c, 3, 51, 127
5, 385776, Note_on_c, 3, 51, 0
5, 385776, Note_on_c, 3, 46, 127
5, 385872, Note_on_c, 3, 46, 0
5, 385872, Note_on_c, 3, 43, 127
5, 385968, Note_on_c, 3, 43, 0
5, 385968, Note_on_c, 3, 39, 127
5, 386256, Note_on_c, 3, 39, 0
5, 387408, Note_on_c, 3, 58, 127
5, 387432, Note_on_c, 3, 58, 0
5, 387432, Note_on_c, 3, 56, 127
5, 387456, Note_on_c, 3, 56, 0
5, 387456, Note_on_c, 3, 58, 127
5, 387600, Note_on_c, 3, 58, 0
5, 387600, Note_on_c, 3, 51, 127
5, 387632, Note_on_c, 3, 51, 0
5, 387696, Note_on_c, 3, 58, 127
5, 387888, Note_on_c, 3, 58, 0
5, 387888, Note_on_c, 3, 51, 127
5, 387920, Note_on_c, 3, 51, 0
5, 387984, Note_on_c, 3, 56, 127
5, 388080, Note_on_c, 3, 56, 0
5, 388080, Note_on_c, 3, 58, 127
5, 388176, Note_on_c, 3, 58, 0
5, 388176, Note_on_c, 3, 60, 127
5, 388272, Note_on_c, 3, 60, 0
5, 388272, Note_on_c, 3, 58, 127
5, 388400, Note_on_c, 3, 58, 0
5, 388400, Note_on_c, 3, 60, 127
5, 388528, Note_on_c, 3, 60, 0
5, 388528, Note_on_c, 3, 61, 127
5, 388656, Note_on_c, 3, 61, 0
5, 388656, Note_on_c, 3, 60, 127
5, 388800, Note_on_c, 3, 60, 0
5, 388800, Note_on_c, 3, 62, 127
5, 388848, Note_on_c, 3, 62, 0
5, 388848, Note_on_c, 3, 60, 127
5, 388896, Note_on_c, 3, 60, 0
5, 388896, Note_on_c, 3, 62, 127
5, 388944, Note_on_c, 3, 62, 0
5, 388944, Note_on_c, 3, 63, 127
5, 388992, Note_on_c, 3, 63, 0
5, 388992, Note_on_c, 3, 62, 127
5, 389040, Note_on_c, 3, 62, 0
5, 389040, Note_on_c, 3, 63, 127
5, 389088, Note_on_c, 3, 63, 0
5, 389088, Note_on_c, 3, 62, 127
5, 389136, Note_on_c, 3, 62, 0
5, 389136, Note_on_c, 3, 63, 127
5, 389184, Note_on_c, 3, 63, 0
5, 389184, Note_on_c, 3, 62, 127
5, 389232, Note_on_c, 3, 62, 0
5, 389232, Note_on_c, 3, 60, 127
5, 389280, Note_on_c, 3, 60, 0
5, 389280, Note_on_c, 3, 62, 127
5, 389328, Note_on_c, 3, 62, 0
5, 389328, Note_on_c, 3, 63, 127
5, 389424, Note_on_c, 3, 63, 0
5, 389424, Note_on_c, 3, 67, 127
5, 389520, Note_on_c, 3, 67, 0
5, 389520, Note_on_c, 3, 65, 127
5, 389616, Note_on_c, 3, 65, 0
5, 389616, Note_on_c, 3, 63, 127
5, 389744, Note_on_c, 3, 63, 0
5, 389744, Note_on_c, 3, 62, 127
5, 389872, Note_on_c, 3, 62, 0
5, 389872, Note_on_c, 3, 60, 127
5, 390000, Note_on_c, 3, 60, 0
5, 390000, Note_on_c, 3, 62, 127
5, 390096, Note_on_c, 3, 62, 0
5, 390096, Note_on_c, 3, 53, 127
5, 390192, Note_on_c, 3, 53, 0
5, 390192, Note_on_c, 3, 56, 127
5, 390288, Note_on_c, 3, 56, 0
5, 390288, Note_on_c, 3, 60, 127
5, 390384, Note_on_c, 3, 60, 0
5, 390384, Note_on_c, 3, 58, 127
5, 390480, Note_on_c, 3, 58, 0
5, 390480, Note_on_c, 3, 56, 127
5, 390576, Note_on_c, 3, 56, 0
5, 390576, Note_on_c, 3, 55, 127
5, 390672, Note_on_c, 3, 55, 0
5, 390672, Note_on_c, 3, 53, 127
5, 390768, Note_on_c, 3, 53, 0
5, 390768, Note_on_c, 3, 51, 127
5, 390864, Note_on_c, 3, 51, 0
5, 390864, Note_on_c, 3, 50, 127
5, 390960, Note_on_c, 3, 50, 0
5, 390960, Note_on_c, 3, 48, 127
5, 391056, Note_on_c, 3, 48, 0
5, 391056, Note_on_c, 3, 46, 127
5, 391152, Note_on_c, 3, 46, 0
5, 391152, Note_on_c, 3, 51, 127
5, 391344, Note_on_c, 3, 51, 0
5, 391344, Note_on_c, 3, 55, 127
5, 391376, Note_on_c, 3, 55, 0
5, 391440, Note_on_c, 3, 51, 127
5, 391632, Note_on_c, 3, 51, 0
5, 391632, Note_on_c, 3, 55, 127
5, 391664, Note_on_c, 3, 55, 0
5, 391728, Note_on_c, 3, 56, 127
5, 391824, Note_on_c, 3, 56, 0
5, 391824, Note_on_c, 3, 59, 127
5, 391920, Note_on_c, 3, 59, 0
5, 391920, Note_on_c, 3, 60, 127
5, 392016, Note_on_c, 3, 60, 0
5, 392016, Note_on_c, 3, 56, 127
5, 392112, Note_on_c, 3, 56, 0
5, 392112, Note_on_c, 3, 59, 127
5, 392208, Note_on_c, 3, 59, 0
5, 392208, Note_on_c, 3, 60, 127
5, 392304, Note_on_c, 3, 60, 0
5, 392304, Note_on_c, 3, 50, 127
5, 392496, Note_on_c, 3, 50, 0
5, 392496, Note_on_c, 3, 53, 127
5, 392528, Note_on_c, 3, 53, 0
5, 392592, Note_on_c, 3, 50, 127
5, 392784, Note_on_c, 3, 50, 0
5, 392784, Note_on_c, 3, 53, 127
5, 392816, Note_on_c, 3, 53, 0
5, 392880, Note_on_c, 3, 55, 127
5, 392976, Note_on_c, 3, 55, 0
5, 392976, Note_on_c, 3, 59, 127
5, 393072, Note_on_c, 3, 59, 0
5, 393072, Note_on_c, 3, 62, 127
5, 393168, Note_on_c, 3, 62, 0
5, 393168, Note_on_c, 3, 55, 127
5, 393264, Note_on_c, 3, 55, 0
5, 393264, Note_on_c, 3, 59, 127
5, 393360, Note_on_c, 3, 59, 0
5, 393360, Note_on_c, 3, 62, 127
5, 393456, Note_on_c, 3, 62, 0
5, 393456, Note_on_c, 3, 60, 127
5, 393552, Note_on_c, 3, 60, 0
5, 393552, Note_on_c, 3, 48, 127
5, 393648, Note_on_c, 3, 48, 0
5, 393648, Note_on_c, 3, 60, 127
5, 393744, Note_on_c, 3, 60, 0
5, 393744, Note_on_c, 3, 58, 127
5, 393840, Note_on_c, 3, 58, 0
5, 393840, Note_on_c, 3, 61, 127
5, 393936, Note_on_c, 3, 61, 0
5, 393936, Note_on_c, 3, 60, 127
5, 394032, Note_on_c, 3, 60, 0
5, 394032, Note_on_c, 3, 56, 127
5, 394128, Note_on_c, 3, 56, 0
5, 394128, Note_on_c, 3, 55, 127
5, 394224, Note_on_c, 3, 55, 0
5, 394224, Note_on_c, 3, 53, 127
5, 394320, Note_on_c, 3, 53, 0
5, 394320, Note_on_c, 3, 60, 127
5, 394512, Note_on_c, 3, 60, 0
5, 394512, Note_on_c, 3, 48, 127
5, 394544, Note_on_c, 3, 48, 0
5, 394608, Note_on_c, 3, 53, 127
5, 394800, Note_on_c, 3, 53, 0
5, 394800, Note_on_c, 3, 48, 127
5, 394832, Note_on_c, 3, 48, 0
5, 394896, Note_on_c, 3, 53, 127
5, 395088, Note_on_c, 3, 53, 0
5, 395088, Note_on_c, 3, 48, 127
5, 395120, Note_on_c, 3, 48, 0
5, 395184, Note_on_c, 3, 55, 127
5, 395280, Note_on_c, 3, 55, 0
5, 395280, Note_on_c, 3, 57, 127
5, 395376, Note_on_c, 3, 57, 0
5, 395376, Note_on_c, 3, 59, 127
5, 395472, Note_on_c, 3, 59, 0
5, 395472, Note_on_c, 3, 57, 127
5, 395568, Note_on_c, 3, 57, 0
5, 395568, Note_on_c, 3, 59, 127
5, 395664, Note_on_c, 3, 59, 0
5, 395664, Note_on_c, 3, 60, 127
5, 395760, Note_on_c, 3, 60, 0
5, 395760, Note_on_c, 3, 59, 127
5, 395856, Note_on_c, 3, 59, 0
5, 395856, Note_on_c, 3, 55, 127
5, 395952, Note_on_c, 3, 55, 0
5, 395952, Note_on_c, 3, 60, 127
5, 396048, Note_on_c, 3, 60, 0
5, 396048, Note_on_c, 3, 53, 127
5, 396144, Note_on_c, 3, 53, 0
5, 396144, Note_on_c, 3, 50, 127
5, 396240, Note_on_c, 3, 50, 0
5, 396240, Note_on_c, 3, 55, 127
5, 396336, Note_on_c, 3, 55, 0
5, 396336, Note_on_c, 3, 48, 127
5, 396528, Note_on_c, 3, 48, 0
5, 396528, Note_on_c, 3, 43, 127
5, 396560, Note_on_c, 3, 43, 0
5, 396624, Note_on_c, 3, 48, 127
5, 396816, Note_on_c, 3, 48, 0
5, 396816, Note_on_c, 3, 43, 127
5, 396848, Note_on_c, 3, 43, 0
5, 396912, Note_on_c, 3, 48, 127
5, 397008, Note_on_c, 3, 48, 0
5, 397008, Note_on_c, 3, 50, 127
5, 397104, Note_on_c, 3, 50, 0
5, 397104, Note_on_c, 3, 51, 127
5, 397200, Note_on_c, 3, 51, 0
5, 397200, Note_on_c, 3, 50, 127
5, 397296, Note_on_c, 3, 50, 0
5, 397296, Note_on_c, 3, 51, 127
5, 397392, Note_on_c, 3, 51, 0
5, 397392, Note_on_c, 3, 53, 127
5, 397488, Note_on_c, 3, 53, 0
5, 397488, Note_on_c, 3, 51, 127
5, 397680, Note_on_c, 3, 51, 0
5, 397680, Note_on_c, 3, 46, 127
5, 397712, Note_on_c, 3, 46, 0
5, 397776, Note_on_c, 3, 51, 127
5, 397968, Note_on_c, 3, 51, 0
5, 397968, Note_on_c, 3, 46, 127
5, 398000, Note_on_c, 3, 46, 0
5, 398064, Note_on_c, 3, 53, 127
5, 398160, Note_on_c, 3, 53, 0
5, 398160, Note_on_c, 3, 55, 127
5, 398256, Note_on_c, 3, 55, 0
5, 398256, Note_on_c, 3, 56, 127
5, 398352, Note_on_c, 3, 56, 0
5, 398352, Note_on_c, 3, 55, 127
5, 398448, Note_on_c, 3, 55, 0
5, 398448, Note_on_c, 3, 56, 127
5, 398544, Note_on_c, 3, 56, 0
5, 398544, Note_on_c, 3, 58, 127
5, 398640, Note_on_c, 3, 58, 0
5, 398640, Note_on_c, 3, 56, 127
5, 398832, Note_on_c, 3, 56, 0
5, 398832, Note_on_c, 3, 51, 127
5, 398864, Note_on_c, 3, 51, 0
5, 398928, Note_on_c, 3, 56, 127
5, 399120, Note_on_c, 3, 56, 0
5, 399120, Note_on_c, 3, 51, 127
5, 399152, Note_on_c, 3, 51, 0
5, 399216, Note_on_c, 3, 58, 127
5, 399312, Note_on_c, 3, 58, 0
5, 399312, Note_on_c, 3, 60, 127
5, 399408, Note_on_c, 3, 60, 0
5, 399408, Note_on_c, 3, 62, 127
5, 399504, Note_on_c, 3, 62, 0
5, 399504, Note_on_c, 3, 60, 127
5, 399600, Note_on_c, 3, 60, 0
5, 399600, Note_on_c, 3, 62, 127
5, 399696, Note_on_c, 3, 62, 0
5, 399696, Note_on_c, 3, 63, 127
5, 399792, Note_on_c, 3, 63, 0
5, 399792, Note_on_c, 3, 62, 127
5, 399888, Note_on_c, 3, 62, 0
5, 399888, Note_on_c, 3, 65, 127
5, 399984, Note_on_c, 3, 65, 0
5, 399984, Note_on_c, 3, 63, 127
5, 400080, Note_on_c, 3, 63, 0
5, 400080, Note_on_c, 3, 62, 127
5, 400176, Note_on_c, 3, 62, 0
5, 400176, Note_on_c, 3, 60, 127
5, 400272, Note_on_c, 3, 60, 0
5, 400272, Note_on_c, 3, 58, 127
5, 400368, Note_on_c, 3, 58, 0
5, 400368, Note_on_c, 3, 51, 127
5, 400464, Note_on_c, 3, 51, 0
5, 400464, Note_on_c, 3, 63, 127
5, 400560, Note_on_c, 3, 63, 0
5, 400560, Note_on_c, 3, 61, 127
5, 400656, Note_on_c, 3, 61, 0
5, 400656, Note_on_c, 3, 60, 127
5, 400784, Note_on_c, 3, 60, 0
5, 400784, Note_on_c, 3, 58, 127
5, 400912, Note_on_c, 3, 58, 0
5, 400912, Note_on_c, 3, 56, 127
5, 401040, Note_on_c, 3, 56, 0
5, 401040, Note_on_c, 3, 55, 127
5, 401184, Note_on_c, 3, 55, 0
5, 401184, Note_on_c, 3, 56, 127
5, 401232, Note_on_c, 3, 56, 0
5, 401232, Note_on_c, 3, 55, 127
5, 401280, Note_on_c, 3, 55, 0
5, 401280, Note_on_c, 3, 56, 127
5, 401328, Note_on_c, 3, 56, 0
5, 401328, Note_on_c, 3, 58, 127
5, 401376, Note_on_c, 3, 58, 0
5, 401376, Note_on_c, 3, 56, 127
5, 401424, Note_on_c, 3, 56, 0
5, 401424, Note_on_c, 3, 58, 127
5, 401472, Note_on_c, 3, 58, 0
5, 401472, Note_on_c, 3, 56, 127
5, 401520, Note_on_c, 3, 56, 0
5, 401520, Note_on_c, 3, 58, 127
5, 401568, Note_on_c, 3, 58, 0
5, 401568, Note_on_c, 3, 56, 127
5, 401616, Note_on_c, 3, 56, 0
5, 401616, Note_on_c, 3, 55, 127
5, 401664, Note_on_c, 3, 55, 0
5, 401664, Note_on_c, 3, 56, 127
5, 401712, Note_on_c, 3, 56, 0
5, 401712, Note_on_c, 3, 58, 127
5, 401904, Note_on_c, 3, 58, 0
5, 402000, Note_on_c, 3, 46, 127
5, 402256, Note_on_c, 3, 46, 0
5, 402384, Note_on_c, 3, 51, 127
5, 402576, Note_on_c, 3, 51, 0
5, 402576, Note_on_c, 3, 46, 127
5, 402608, Note_on_c, 3, 46, 0
5, 402672, Note_on_c, 3, 51, 127
5, 402864, Note_on_c, 3, 51, 0
5, 402864, Note_on_c, 3, 46, 127
5, 402896, Note_on_c, 3, 46, 0
5, 402960, Note_on_c, 3, 51, 127
5, 403056, Note_on_c, 3, 51, 0
5, 403056, Note_on_c, 3, 53, 127
5, 403152, Note_on_c, 3, 53, 0
5, 403152, Note_on_c, 3, 55, 127
5, 403248, Note_on_c, 3, 55, 0
5, 403248, Note_on_c, 3, 53, 127
5, 403344, Note_on_c, 3, 53, 0
5, 403344, Note_on_c, 3, 55, 127
5, 403440, Note_on_c, 3, 55, 0
5, 403440, Note_on_c, 3, 56, 127
5, 403536, Note_on_c, 3, 56, 0
5, 403536, Note_on_c, 3, 55, 127
5, 403632, Note_on_c, 3, 55, 0
5, 403632, Note_on_c, 3, 51, 127
5, 403728, Note_on_c, 3, 51, 0
5, 403728, Note_on_c, 3, 53, 127
5, 403824, Note_on_c, 3, 53, 0
5, 403824, Note_on_c, 3, 55, 127
5, 403872, Note_on_c, 3, 55, 0
5, 403872, Note_on_c, 3, 56, 127
5, 403920, Note_on_c, 3, 56, 0
5, 403920, Note_on_c, 3, 58, 127
5, 404016, Note_on_c, 3, 58, 0
5, 404016, Note_on_c, 3, 58, 127
5, 404112, Note_on_c, 3, 58, 0
5, 404112, Note_on_c, 3, 60, 127
5, 404136, Note_on_c, 3, 60, 0
5, 404136, Note_on_c, 3, 58, 127
5, 404160, Note_on_c, 3, 58, 0
5, 404160, Note_on_c, 3, 60, 127
5, 404184, Note_on_c, 3, 60, 0
5, 404184, Note_on_c, 3, 58, 127
5, 404208, Note_on_c, 3, 58, 0
5, 404208, Note_on_c, 3, 60, 127
5, 404232, Note_on_c, 3, 60, 0
5, 404232, Note_on_c, 3, 58, 127
5, 404256, Note_on_c, 3, 58, 0
5, 404256, Note_on_c, 3, 60, 127
5, 404280, Note_on_c, 3, 60, 0
5, 404280, Note_on_c, 3, 58, 127
5, 404304, Note_on_c, 3, 58, 0
5, 404304, Note_on_c, 3, 60, 127
5, 404328, Note_on_c, 3, 60, 0
5, 404328, Note_on_c, 3, 58, 127
5, 404352, Note_on_c, 3, 58, 0
5, 404352, Note_on_c, 3, 60, 127
5, 404376, Note_on_c, 3, 60, 0
5, 404376, Note_on_c, 3, 58, 127
5, 404400, Note_on_c, 3, 58, 0
5, 404400, Note_on_c, 3, 60, 127
5, 404424, Note_on_c, 3, 60, 0
5, 404424, Note_on_c, 3, 58, 127
5, 404448, Note_on_c, 3, 58, 0
5, 404448, Note_on_c, 3, 60, 127
5, 404472, Note_on_c, 3, 60, 0
5, 404472, Note_on_c, 3, 58, 127
5, 404496, Note_on_c, 3, 58, 0
5, 404496, Note_on_c, 3, 60, 127
5, 404520, Note_on_c, 3, 60, 0
5, 404520, Note_on_c, 3, 58, 127
5, 404544, Note_on_c, 3, 58, 0
5, 404544, Note_on_c, 3, 60, 127
5, 404568, Note_on_c, 3, 60, 0
5, 404568, Note_on_c, 3, 58, 127
5, 404592, Note_on_c, 3, 58, 0
5, 404592, Note_on_c, 3, 60, 127
5, 404616, Note_on_c, 3, 60, 0
5, 404616, Note_on_c, 3, 58, 127
5, 404640, Note_on_c, 3, 58, 0
5, 404640, Note_on_c, 3, 60, 127
5, 404664, Note_on_c, 3, 60, 0
5, 404664, Note_on_c, 3, 58, 127
5, 404880, Note_on_c, 3, 58, 0
5, 404880, Note_on_c, 3, 63, 127
5, 404912, Note_on_c, 3, 63, 0
5, 404976, Note_on_c, 3, 58, 127
5, 405168, Note_on_c, 3, 58, 0
5, 405168, Note_on_c, 3, 63, 127
5, 405200, Note_on_c, 3, 63, 0
5, 405264, Note_on_c, 3, 58, 127
5, 405360, Note_on_c, 3, 58, 0
5, 405360, Note_on_c, 3, 60, 127
5, 405408, Note_on_c, 3, 60, 0
5, 405408, Note_on_c, 3, 58, 127
5, 405456, Note_on_c, 3, 58, 0
5, 405456, Note_on_c, 3, 56, 127
5, 405504, Note_on_c, 3, 56, 0
5, 405504, Note_on_c, 3, 55, 127
5, 405552, Note_on_c, 3, 55, 0
5, 405552, Note_on_c, 3, 56, 127
5, 405648, Note_on_c, 3, 56, 0
5, 405648, Note_on_c, 3, 58, 127
5, 405696, Note_on_c, 3, 58, 0
5, 405696, Note_on_c, 3, 56, 127
5, 405744, Note_on_c, 3, 56, 0
5, 405744, Note_on_c, 3, 55, 127
5, 405792, Note_on_c, 3, 55, 0
5, 405792, Note_on_c, 3, 53, 127
5, 405840, Note_on_c, 3, 53, 0
5, 405840, Note_on_c, 3, 51, 127
5, 405936, Note_on_c, 3, 51, 0
5, 405936, Note_on_c, 3, 46, 127
5, 406032, Note_on_c, 3, 46, 0
5, 406032, Note_on_c, 3, 43, 127
5, 406128, Note_on_c, 3, 43, 0
5, 406128, Note_on_c, 3, 39, 127
5, 406416, Note_on_c, 3, 39, 0
5, 406800, Note_on_c, 3, 51, 127
5, 406992, Note_on_c, 3, 51, 0
5, 407184, Note_on_c, 3, 46, 127
5, 407376, Note_on_c, 3, 46, 0
5, 407376, Note_on_c, 3, 48, 127
5, 407760, Note_on_c, 3, 48, 0
5, 407760, Note_on_c, 3, 56, 127
5, 407952, Note_on_c, 3, 56, 0
5, 407952, Note_on_c, 3, 55, 127
5, 408144, Note_on_c, 3, 55, 0
5, 408144, Note_on_c, 3, 53, 127
5, 408336, Note_on_c, 3, 53, 0
5, 408336, Note_on_c, 3, 51, 127
5, 408528, Note_on_c, 3, 51, 0
5, 408720, Note_on_c, 3, 46, 127
5, 408912, Note_on_c, 3, 46, 0
5, 408912, Note_on_c, 3, 51, 127
5, 409104, Note_on_c, 3, 51, 0
5, 409104, Note_on_c, 3, 51, 127
5, 409296, Note_on_c, 3, 51, 0
5, 409488, Note_on_c, 3, 46, 127
5, 409680, Note_on_c, 3, 46, 0
5, 409680, Note_on_c, 3, 48, 127
5, 410064, Note_on_c, 3, 48, 0
5, 410064, Note_on_c, 3, 56, 127
5, 410256, Note_on_c, 3, 56, 0
5, 410256, Note_on_c, 3, 55, 127
5, 410448, Note_on_c, 3, 55, 0
5, 410448, Note_on_c, 3, 53, 127
5, 410640, Note_on_c, 3, 53, 0
5, 410640, Note_on_c, 3, 51, 127
5, 410832, Note_on_c, 3, 51, 0
5, 411024, Note_on_c, 3, 53, 127
5, 411216, Note_on_c, 3, 46, 127
5, 411408, Note_on_c, 3, 46, 0
5, 411408, Note_on_c, 3, 53, 0
5, 411408, Note_on_c, 3, 51, 127
5, 411600, Note_on_c, 3, 51, 0
5, 411792, Note_on_c, 3, 46, 127
5, 411984, Note_on_c, 3, 46, 0
5, 411984, Note_on_c, 3, 48, 127
5, 412368, Note_on_c, 3, 48, 0
5, 412368, Note_on_c, 3, 56, 127
5, 412560, Note_on_c, 3, 56, 0
5, 412560, Note_on_c, 3, 55, 127
5, 412752, Note_on_c, 3, 55, 0
5, 412752, Note_on_c, 3, 53, 127
5, 412944, Note_on_c, 3, 53, 0
5, 412944, Note_on_c, 3, 51, 127
5, 413136, Note_on_c, 3, 51, 0
5, 413328, Note_on_c, 3, 46, 127
5, 413520, Note_on_c, 3, 46, 0
5, 413520, Note_on_c, 3, 51, 127
5, 413712, Note_on_c, 3, 51, 0
5, 413712, Note_on_c, 3, 51, 127
5, 413904, Note_on_c, 3, 51, 0
5, 414096, Note_on_c, 3, 46, 127
5, 414288, Note_on_c, 3, 46, 0
5, 414288, Note_on_c, 3, 48, 127
5, 414672, Note_on_c, 3, 48, 0
5, 414672, Note_on_c, 3, 56, 127
5, 414864, Note_on_c, 3, 56, 0
5, 414864, Note_on_c, 3, 55, 127
5, 415056, Note_on_c, 3, 55, 0
5, 415056, Note_on_c, 3, 53, 127
5, 415248, Note_on_c, 3, 53, 0
5, 415248, Note_on_c, 3, 51, 127
5, 415440, Note_on_c, 3, 51, 0
5, 415632, Note_on_c, 3, 53, 127
5, 415824, Note_on_c, 3, 46, 127
5, 416016, Note_on_c, 3, 46, 0
5, 416016, Note_on_c, 3, 53, 0
5, 416016, Note_on_c, 3, 58, 127
5, 416400, Note_on_c, 3, 58, 0
5, 416400, Note_on_c, 3, 50, 127
5, 416592, Note_on_c, 3, 50, 0
5, 416592, Note_on_c, 3, 51, 127
5, 416784, Note_on_c, 3, 51, 0
5, 416784, Note_on_c, 3, 48, 127
5, 416976, Note_on_c, 3, 48, 0
5, 416976, Note_on_c, 3, 45, 127
5, 417168, Note_on_c, 3, 45, 0
5, 417168, Note_on_c, 3, 46, 127
5, 417552, Note_on_c, 3, 46, 0
5, 417552, Note_on_c, 3, 51, 127
5, 417744, Note_on_c, 3, 51, 0
5, 417744, Note_on_c, 3, 53, 127
5, 417936, Note_on_c, 3, 53, 0
5, 417936, Note_on_c, 3, 55, 127
5, 418128, Note_on_c, 3, 55, 0
5, 418128, Note_on_c, 3, 57, 127
5, 418320, Note_on_c, 3, 57, 0
5, 418704, Note_on_c, 3, 41, 127
5, 418896, Note_on_c, 3, 41, 0
5, 418896, Note_on_c, 3, 43, 127
5, 419280, Note_on_c, 3, 43, 0
5, 419280, Note_on_c, 3, 51, 127
5, 419472, Note_on_c, 3, 51, 0
5, 419472, Note_on_c, 3, 50, 127
5, 419664, Note_on_c, 3, 50, 0
5, 419664, Note_on_c, 3, 48, 127
5, 419856, Note_on_c, 3, 48, 0
5, 419856, Note_on_c, 3, 46, 127
5, 420048, Note_on_c, 3, 46, 0
5, 420240, Note_on_c, 3, 41, 127
5, 420432, Note_on_c, 3, 41, 0
5, 420432, Note_on_c, 3, 46, 127
5, 420624, Note_on_c, 3, 46, 0
5, 420624, Note_on_c, 3, 46, 127
5, 420816, Note_on_c, 3, 46, 0
5, 421008, Note_on_c, 3, 41, 127
5, 421200, Note_on_c, 3, 41, 0
5, 421200, Note_on_c, 3, 43, 127
5, 421584, Note_on_c, 3, 43, 0
5, 421584, Note_on_c, 3, 51, 127
5, 421776, Note_on_c, 3, 51, 0
5, 421776, Note_on_c, 3, 50, 127
5, 421872, Note_on_c, 3, 50, 0
5, 421872, Note_on_c, 3, 51, 127
5, 421968, Note_on_c, 3, 51, 0
5, 422160, Note_on_c, 3, 41, 127
5, 422352, Note_on_c, 3, 41, 0
5, 422352, Note_on_c, 3, 46, 127
5, 422736, Note_on_c, 3, 46, 0
5, 422736, Note_on_c, 3, 58, 127
5, 422928, Note_on_c, 3, 58, 0
5, 422928, Note_on_c, 3, 56, 127
5, 423504, Note_on_c, 3, 56, 0
5, 423696, Note_on_c, 3, 50, 127
5, 424080, Note_on_c, 3, 50, 0
5, 424848, Note_on_c, 3, 53, 127
5, 425232, Note_on_c, 3, 53, 0
5, 425424, Note_on_c, 3, 58, 127
5, 425808, Note_on_c, 3, 58, 0
5, 425808, Note_on_c, 3, 48, 127
5, 426192, Note_on_c, 3, 48, 0
5, 426192, Note_on_c, 3, 56, 127
5, 426384, Note_on_c, 3, 56, 0
5, 426384, Note_on_c, 3, 55, 127
5, 426576, Note_on_c, 3, 55, 0
5, 426576, Note_on_c, 3, 53, 127
5, 426768, Note_on_c, 3, 53, 0
5, 426768, Note_on_c, 3, 51, 127
5, 426960, Note_on_c, 3, 51, 0
5, 427152, Note_on_c, 3, 46, 127
5, 427344, Note_on_c, 3, 46, 0
5, 427344, Note_on_c, 3, 51, 127
5, 427536, Note_on_c, 3, 51, 0
5, 427536, Note_on_c, 3, 51, 127
5, 427728, Note_on_c, 3, 51, 0
5, 427920, Note_on_c, 3, 46, 127
5, 428112, Note_on_c, 3, 46, 0
5, 428112, Note_on_c, 3, 48, 127
5, 428496, Note_on_c, 3, 48, 0
5, 428496, Note_on_c, 3, 56, 127
5, 428688, Note_on_c, 3, 56, 0
5, 428688, Note_on_c, 3, 55, 127
5, 428784, Note_on_c, 3, 55, 0
5, 428784, Note_on_c, 3, 56, 127
5, 428880, Note_on_c, 3, 56, 0
5, 428880, Note_on_c, 3, 58, 127
5, 429072, Note_on_c, 3, 58, 0
5, 429072, Note_on_c, 3, 46, 127
5, 429264, Note_on_c, 3, 46, 0
5, 429456, Note_on_c, 3, 46, 127
5, 429840, Note_on_c, 3, 46, 0
5, 429840, End_track
6, 0, Start_track
6, 0, End_track
0, 0, End_of_file
