0, 0, Header, 1, 5, 1024
1, 0, Start_track
1, 0, Time_signature, 4, 2, 24, 8
1, 0, Key_signature, 0, "minor"
1, 0, Tempo, 625000
1, 131072, End_track
2, 0, Start_track
2, 0, Title_t, "Instrument 1"
2, 0, Note_on_c, 0, 67, 96
2, 1024, Note_off_c, 0, 67, 0
2, 1024, Note_on_c, 0, 67, 96
2, 2048, Note_off_c, 0, 67, 0
2, 2048, Note_on_c, 0, 69, 96
2, 3072, Note_off_c, 0, 69, 0
2, 3072, Note_on_c, 0, 71, 96
2, 4096, Note_off_c, 0, 71, 0
2, 4096, Note_on_c, 0, 72, 96
2, 5120, Note_off_c, 0, 72, 0
2, 5120, Note_on_c, 0, 72, 96
2, 6144, Note_off_c, 0, 72, 0
2, 6144, Note_on_c, 0, 71, 96
2, 8192, Note_off_c, 0, 71, 0
2, 8192, Note_on_c, 0, 69, 96
2, 10240, Note_off_c, 0, 69, 0
2, 10240, Note_on_c, 0, 71, 96
2, 11264, Note_off_c, 0, 71, 0
2, 11264, Note_on_c, 0, 72, 96
2, 12288, Note_off_c, 0, 72, 0
2, 12288, Note_on_c, 0, 74, 96
2, 13312, Note_off_c, 0, 74, 0
2, 13312, Note_on_c, 0, 69, 96
2, 14336, Note_off_c, 0, 69, 0
2, 14336, Note_on_c, 0, 67, 96
2, 15360, Note_off_c, 0, 67, 0
2, 15360, Note_on_c, 0, 65, 96
2, 16384, Note_off_c, 0, 65, 0
2, 16384, Note_on_c, 0, 64, 96
2, 20480, Note_off_c, 0, 64, 0
2, 20480, Note_on_c, 0, 67, 96
2, 21504, Note_off_c, 0, 67, 0
2, 21504, Note_on_c, 0, 67, 96
2, 22528, Note_off_c, 0, 67, 0
2, 22528, Note_on_c, 0, 69, 96
2, 23552, Note_off_c, 0, 69, 0
2, 23552, Note_on_c, 0, 71, 96
2, 24576, Note_off_c, 0, 71, 0
2, 24576, Note_on_c, 0, 72, 96
2, 25600, Note_off_c, 0, 72, 0
2, 25600, Note_on_c, 0, 72, 96
2, 26624, Note_off_c, 0, 72, 0
2, 26624, Note_on_c, 0, 71, 96
2, 28672, Note_off_c, 0, 71, 0
2, 28672, Note_on_c, 0, 69, 96
2, 30720, Note_off_c, 0, 69, 0
2, 30720, Note_on_c, 0, 71, 96
2, 31744, Note_off_c, 0, 71, 0
2, 31744, Note_on_c, 0, 72, 96
2, 32768, Note_off_c, 0, 72, 0
2, 32768, Note_on_c, 0, 74, 96
2, 33792, Note_off_c, 0, 74, 0
2, 33792, Note_on_c, 0, 69, 96
2, 34816, Note_off_c, 0, 69, 0
2, 34816, Note_on_c, 0, 67, 96
2, 35840, Note_off_c, 0, 67, 0
2, 35840, Note_on_c, 0, 65, 96
2, 36864, Note_off_c, 0, 65, 0
2, 36864, Note_on_c, 0, 64, 96
2, 40960, Note_off_c, 0, 64, 0
2, 41984, Note_on_c, 0, 62, 96
2, 43008, Note_off_c, 0, 62, 0
2, 43008, Note_on_c, 0, 64, 96
2, 44032, Note_off_c, 0, 64, 0
2, 44032, Note_on_c, 0, 65, 96
2, 45056, Note_off_c, 0, 65, 0
2, 45056, Note_on_c, 0, 67, 96
2, 46592, Note_off_c, 0, 67, 0
2, 46592, Note_on_c, 0, 65, 96
2, 47104, Note_off_c, 0, 65, 0
2, 47104, Note_on_c, 0, 64, 96
2, 48128, Note_off_c, 0, 64, 0
2, 48128, Note_on_c, 0, 62, 96
2, 49152, Note_off_c, 0, 62, 0
2, 49152, Note_on_c, 0, 60, 96
2, 51200, Note_off_c, 0, 60, 0
2, 52224, Note_on_c, 0, 60, 96
2, 53248, Note_off_c, 0, 60, 0
2, 53248, Note_on_c, 0, 67, 96
2, 54272, Note_off_c, 0, 67, 0
2, 54272, Note_on_c, 0, 67, 96
2, 55296, Note_off_c, 0, 67, 0
2, 55296, Note_on_c, 0, 69, 96
2, 56320, Note_off_c, 0, 69, 0
2, 56320, Note_on_c, 0, 71, 96
2, 57344, Note_off_c, 0, 71, 0
2, 57344, Note_on_c, 0, 72, 96
2, 58368, Note_off_c, 0, 72, 0
2, 58368, Note_on_c, 0, 72, 96
2, 59392, Note_off_c, 0, 72, 0
2, 59392, Note_on_c, 0, 71, 96
2, 61440, Note_off_c, 0, 71, 0
2, 61440, Note_on_c, 0, 69, 96
2, 63488, Note_off_c, 0, 69, 0
2, 63488, Note_on_c, 0, 71, 96
2, 64512, Note_off_c, 0, 71, 0
2, 64512, Note_on_c, 0, 72, 96
2, 65536, Note_off_c, 0, 72, 0
2, 65536, Note_on_c, 0, 74, 96
2, 66560, Note_off_c, 0, 74, 0
2, 66560, Note_on_c, 0, 69, 96
2, 67584, Note_off_c, 0, 69, 0
2, 67584, Note_on_c, 0, 67, 96
2, 68608, Note_off_c, 0, 67, 0
2, 68608, Note_on_c, 0, 65, 96
2, 69632, Note_off_c, 0, 65, 0
2, 69632, Note_on_c, 0, 64, 96
2, 71680, Note_off_c, 0, 64, 0
2, 72704, Note_on_c, 0, 69, 96
2, 73728, Note_off_c, 0, 69, 0
2, 73728, Note_on_c, 0, 67, 96
2, 74752, Note_off_c, 0, 67, 0
2, 74752, Note_on_c, 0, 64, 96
2, 75776, Note_off_c, 0, 64, 0
2, 75776, Note_on_c, 0, 65, 96
2, 76800, Note_off_c, 0, 65, 0
2, 76800, Note_on_c, 0, 67, 96
2, 77568, Note_off_c, 0, 67, 0
2, 77568, Note_on_c, 0, 65, 96
2, 77824, Note_off_c, 0, 65, 0
2, 77824, Note_on_c, 0, 64, 96
2, 79872, Note_off_c, 0, 64, 0
2, 80896, Note_on_c, 0, 69, 96
2, 81920, Note_off_c, 0, 69, 0
2, 81920, Note_on_c, 0, 67, 96
2, 82944, Note_off_c, 0, 67, 0
2, 82944, Note_on_c, 0, 64, 96
2, 83968, Note_off_c, 0, 64, 0
2, 83968, Note_on_c, 0, 65, 96
2, 84992, Note_off_c, 0, 65, 0
2, 84992, Note_on_c, 0, 67, 96
2, 86016, Note_off_c, 0, 67, 0
2, 86016, Note_on_c, 0, 64, 96
2, 88064, Note_off_c, 0, 64, 0
2, 88064, Note_on_c, 0, 69, 96
2, 89088, Note_off_c, 0, 69, 0
2, 89088, Note_on_c, 0, 67, 96
2, 90112, Note_off_c, 0, 67, 0
2, 90112, Note_on_c, 0, 69, 96
2, 91136, Note_off_c, 0, 69, 0
2, 91136, Note_on_c, 0, 71, 96
2, 92160, Note_off_c, 0, 71, 0
2, 92160, Note_on_c, 0, 72, 96
2, 93184, Note_off_c, 0, 72, 0
2, 93184, Note_on_c, 0, 71, 96
2, 93696, Note_off_c, 0, 71, 0
2, 93696, Note_on_c, 0, 69, 96
2, 94208, Note_off_c, 0, 69, 0
2, 94208, Note_on_c, 0, 67, 96
2, 95232, Note_off_c, 0, 67, 0
2, 95232, Note_on_c, 0, 65, 96
2, 96256, Note_off_c, 0, 65, 0
2, 96256, Note_on_c, 0, 64, 96
2, 97280, Note_off_c, 0, 64, 0
2, 97280, Note_on_c, 0, 62, 96
2, 98304, Note_off_c, 0, 62, 0
2, 98304, Note_on_c, 0, 69, 96
2, 100352, Note_off_c, 0, 69, 0
2, 100352, Note_on_c, 0, 67, 96
2, 101376, Note_off_c, 0, 67, 0
2, 101376, Note_on_c, 0, 65, 96
2, 102400, Note_off_c, 0, 65, 0
2, 102400, Note_on_c, 0, 64, 96
2, 104448, Note_off_c, 0, 64, 0
2, 104448, Note_on_c, 0, 69, 96
2, 105472, Note_off_c, 0, 69, 0
2, 105472, Note_on_c, 0, 67, 96
2, 106496, Note_off_c, 0, 67, 0
2, 106496, Note_on_c, 0, 69, 96
2, 107520, Note_off_c, 0, 69, 0
2, 107520, Note_on_c, 0, 71, 96
2, 108544, Note_off_c, 0, 71, 0
2, 108544, Note_on_c, 0, 72, 96
2, 109056, Note_off_c, 0, 72, 0
2, 109056, Note_on_c, 0, 71, 96
2, 109568, Note_off_c, 0, 71, 0
2, 109568, Note_on_c, 0, 69, 96
2, 110592, Note_off_c, 0, 69, 0
2, 110592, Note_on_c, 0, 67, 96
2, 112640, Note_off_c, 0, 67, 0
2, 112640, Note_on_c, 0, 72, 96
2, 113664, Note_off_c, 0, 72, 0
2, 113664, Note_on_c, 0, 71, 96
2, 114688, Note_off_c, 0, 71, 0
2, 114688, Note_on_c, 0, 74, 96
2, 115712, Note_off_c, 0, 74, 0
2, 115712, Note_on_c, 0, 69, 96
2, 116736, Note_off_c, 0, 69, 0
2, 116736, Note_on_c, 0, 67, 96
2, 117760, Note_off_c, 0, 67, 0
2, 117760, Note_on_c, 0, 65, 96
2, 118784, Note_off_c, 0, 65, 0
2, 118784, Note_on_c, 0, 64, 96
2, 120832, Note_off_c, 0, 64, 0
2, 121856, Note_on_c, 0, 62, 96
2, 122880, Note_off_c, 0, 62, 0
2, 122880, Note_on_c, 0, 69, 96
2, 124928, Note_off_c, 0, 69, 0
2, 124928, Note_on_c, 0, 67, 96
2, 125952, Note_off_c, 0, 67, 0
2, 125952, Note_on_c, 0, 65, 96
2, 126976, Note_off_c, 0, 65, 0
2, 126976, Note_on_c, 0, 64, 96
2, 131072, Note_off_c, 0, 64, 0
2, 131072, End_track
3, 0, Start_track
3, 0, Title_t, "Instrument 2"
3, 0, Note_on_c, 1, 64, 96
3, 1024, Note_off_c, 1, 64, 0
3, 1024, Note_on_c, 1, 64, 96
3, 2048, Note_off_c, 1, 64, 0
3, 2048, Note_on_c, 1, 64, 96
3, 3072, Note_off_c, 1, 64, 0
3, 3072, Note_on_c, 1, 64, 96
3, 4096, Note_off_c, 1, 64, 0
3, 4096, Note_on_c, 1, 64, 96
3, 4608, Note_off_c, 1, 64, 0
3, 4608, Note_on_c, 1, 66, 96
3, 4864, Note_off_c, 1, 66, 0
3, 4864, Note_on_c, 1, 68, 96
3, 5120, Note_off_c, 1, 68, 0
3, 5120, Note_on_c, 1, 69, 96
3, 6144, Note_off_c, 1, 69, 0
3, 6144, Note_on_c, 1, 69, 96
3, 7168, Note_off_c, 1, 69, 0
3, 7168, Note_on_c, 1, 68, 96
3, 8192, Note_off_c, 1, 68, 0
3, 8192, Note_on_c, 1, 64, 96
3, 10240, Note_off_c, 1, 64, 0
3, 10240, Note_on_c, 1, 67, 96
3, 11264, Note_off_c, 1, 67, 0
3, 11264, Note_on_c, 1, 67, 96
3, 12288, Note_off_c, 1, 67, 0
3, 12288, Note_on_c, 1, 69, 96
3, 12800, Note_off_c, 1, 69, 0
3, 12800, Note_on_c, 1, 67, 96
3, 13312, Note_off_c, 1, 67, 0
3, 13312, Note_on_c, 1, 65, 96
3, 14848, Note_off_c, 1, 65, 0
3, 14848, Note_on_c, 1, 64, 96
3, 15872, Note_off_c, 1, 64, 0
3, 15872, Note_on_c, 1, 62, 96
3, 16128, Note_off_c, 1, 62, 0
3, 16128, Note_on_c, 1, 60, 96
3, 16384, Note_off_c, 1, 60, 0
3, 16384, Note_on_c, 1, 59, 96
3, 20480, Note_off_c, 1, 59, 0
3, 20480, Note_on_c, 1, 64, 96
3, 21504, Note_off_c, 1, 64, 0
3, 21504, Note_on_c, 1, 64, 96
3, 22528, Note_off_c, 1, 64, 0
3, 22528, Note_on_c, 1, 64, 96
3, 23552, Note_off_c, 1, 64, 0
3, 23552, Note_on_c, 1, 64, 96
3, 24576, Note_off_c, 1, 64, 0
3, 24576, Note_on_c, 1, 64, 96
3, 25088, Note_off_c, 1, 64, 0
3, 25088, Note_on_c, 1, 66, 96
3, 25344, Note_off_c, 1, 66, 0
3, 25344, Note_on_c, 1, 68, 96
3, 25600, Note_off_c, 1, 68, 0
3, 25600, Note_on_c, 1, 69, 96
3, 26624, Note_off_c, 1, 69, 0
3, 26624, Note_on_c, 1, 69, 96
3, 27648, Note_off_c, 1, 69, 0
3, 27648, Note_on_c, 1, 68, 96
3, 28672, Note_off_c, 1, 68, 0
3, 28672, Note_on_c, 1, 64, 96
3, 30720, Note_off_c, 1, 64, 0
3, 30720, Note_on_c, 1, 67, 96
3, 31744, Note_off_c, 1, 67, 0
3, 31744, Note_on_c, 1, 67, 96
3, 32768, Note_off_c, 1, 67, 0
3, 32768, Note_on_c, 1, 69, 96
3, 33280, Note_off_c, 1, 69, 0
3, 33280, Note_on_c, 1, 67, 96
3, 33792, Note_off_c, 1, 67, 0
3, 33792, Note_on_c, 1, 65, 96
3, 35328, Note_off_c, 1, 65, 0
3, 35328, Note_on_c, 1, 64, 96
3, 36352, Note_off_c, 1, 64, 0
3, 36352, Note_on_c, 1, 62, 96
3, 36608, Note_off_c, 1, 62, 0
3, 36608, Note_on_c, 1, 60, 96
3, 36864, Note_off_c, 1, 60, 0
3, 36864, Note_on_c, 1, 59, 96
3, 40960, Note_off_c, 1, 59, 0
3, 41984, Note_on_c, 1, 59, 96
3, 43008, Note_off_c, 1, 59, 0
3, 43008, Note_on_c, 1, 60, 96
3, 43520, Note_off_c, 1, 60, 0
3, 43520, Note_on_c, 1, 59, 96
3, 44032, Note_off_c, 1, 59, 0
3, 44032, Note_on_c, 1, 60, 96
3, 45056, Note_off_c, 1, 60, 0
3, 45056, Note_on_c, 1, 62, 96
3, 45568, Note_off_c, 1, 62, 0
3, 45568, Note_on_c, 1, 64, 96
3, 46592, Note_off_c, 1, 64, 0
3, 46592, Note_on_c, 1, 62, 96
3, 47616, Note_off_c, 1, 62, 0
3, 47616, Note_on_c, 1, 60, 96
3, 48640, Note_off_c, 1, 60, 0
3, 48640, Note_on_c, 1, 59, 96
3, 49152, Note_off_c, 1, 59, 0
3, 49152, Note_on_c, 1, 55, 96
3, 51200, Note_off_c, 1, 55, 0
3, 52224, Note_on_c, 1, 55, 96
3, 53248, Note_off_c, 1, 55, 0
3, 53248, Note_on_c, 1, 60, 96
3, 54784, Note_off_c, 1, 60, 0
3, 54784, Note_on_c, 1, 64, 96
3, 55296, Note_off_c, 1, 64, 0
3, 55296, Note_on_c, 1, 65, 96
3, 56832, Note_off_c, 1, 65, 0
3, 56832, Note_on_c, 1, 64, 96
3, 57344, Note_off_c, 1, 64, 0
3, 57344, Note_on_c, 1, 64, 96
3, 57856, Note_off_c, 1, 64, 0
3, 57856, Note_on_c, 1, 69, 96
3, 58112, Note_off_c, 1, 69, 0
3, 58112, Note_on_c, 1, 68, 96
3, 58368, Note_off_c, 1, 68, 0
3, 58368, Note_on_c, 1, 69, 96
3, 59904, Note_off_c, 1, 69, 0
3, 59904, Note_on_c, 1, 68, 96
3, 60160, Note_off_c, 1, 68, 0
3, 60160, Note_on_c, 1, 66, 96
3, 60416, Note_off_c, 1, 66, 0
3, 60416, Note_on_c, 1, 68, 96
3, 61440, Note_off_c, 1, 68, 0
3, 61440, Note_on_c, 1, 64, 96
3, 63488, Note_off_c, 1, 64, 0
3, 63488, Note_on_c, 1, 68, 96
3, 64512, Note_off_c, 1, 68, 0
3, 64512, Note_on_c, 1, 69, 96
3, 66048, Note_off_c, 1, 69, 0
3, 66048, Note_on_c, 1, 67, 96
3, 66560, Note_off_c, 1, 67, 0
3, 66560, Note_on_c, 1, 65, 96
3, 67584, Note_off_c, 1, 65, 0
3, 67584, Note_on_c, 1, 64, 96
3, 69120, Note_off_c, 1, 64, 0
3, 69120, Note_on_c, 1, 62, 96
3, 69632, Note_off_c, 1, 62, 0
3, 69632, Note_on_c, 1, 61, 96
3, 71680, Note_off_c, 1, 61, 0
3, 72704, Note_on_c, 1, 65, 96
3, 73216, Note_off_c, 1, 65, 0
3, 73216, Note_on_c, 1, 64, 96
3, 73728, Note_off_c, 1, 64, 0
3, 73728, Note_on_c, 1, 62, 96
3, 75264, Note_off_c, 1, 62, 0
3, 75264, Note_on_c, 1, 60, 96
3, 75776, Note_off_c, 1, 60, 0
3, 75776, Note_on_c, 1, 62, 96
3, 76800, Note_off_c, 1, 62, 0
3, 76800, Note_on_c, 1, 62, 96
3, 77824, Note_off_c, 1, 62, 0
3, 77824, Note_on_c, 1, 60, 96
3, 79872, Note_off_c, 1, 60, 0
3, 80896, Note_on_c, 1, 64, 96
3, 81920, Note_off_c, 1, 64, 0
3, 81920, Note_on_c, 1, 62, 96
3, 83456, Note_off_c, 1, 62, 0
3, 83456, Note_on_c, 1, 60, 96
3, 83712, Note_off_c, 1, 60, 0
3, 83712, Note_on_c, 1, 59, 96
3, 83968, Note_off_c, 1, 59, 0
3, 83968, Note_on_c, 1, 57, 96
3, 84992, Note_off_c, 1, 57, 0
3, 84992, Note_on_c, 1, 62, 96
3, 85504, Note_off_c, 1, 62, 0
3, 85504, Note_on_c, 1, 59, 96
3, 86016, Note_off_c, 1, 59, 0
3, 86016, Note_on_c, 1, 60, 96
3, 88064, Note_off_c, 1, 60, 0
3, 88064, Note_on_c, 1, 64, 96
3, 89088, Note_off_c, 1, 64, 0
3, 89088, Note_on_c, 1, 64, 96
3, 90112, Note_off_c, 1, 64, 0
3, 90112, Note_on_c, 1, 64, 96
3, 91136, Note_off_c, 1, 64, 0
3, 91136, Note_on_c, 1, 64, 96
3, 92160, Note_off_c, 1, 64, 0
3, 92160, Note_on_c, 1, 64, 96
3, 92672, Note_off_c, 1, 64, 0
3, 92672, Note_on_c, 1, 65, 96
3, 93184, Note_off_c, 1, 65, 0
3, 93184, Note_on_c, 1, 67, 96
3, 93696, Note_off_c, 1, 67, 0
3, 93696, Note_on_c, 1, 65, 96
3, 94720, Note_off_c, 1, 65, 0
3, 94720, Note_on_c, 1, 64, 96
3, 95744, Note_off_c, 1, 64, 0
3, 95744, Note_on_c, 1, 62, 96
3, 96000, Note_off_c, 1, 62, 0
3, 96000, Note_on_c, 1, 60, 96
3, 96256, Note_off_c, 1, 60, 0
3, 96256, Note_on_c, 1, 59, 96
3, 97280, Note_off_c, 1, 59, 0
3, 97280, Note_on_c, 1, 58, 96
3, 98304, Note_off_c, 1, 58, 0
3, 98304, Note_on_c, 1, 60, 96
3, 99328, Note_off_c, 1, 60, 0
3, 99328, Note_on_c, 1, 65, 96
3, 100864, Note_off_c, 1, 65, 0
3, 100864, Note_on_c, 1, 64, 96
3, 101888, Note_off_c, 1, 64, 0
3, 101888, Note_on_c, 1, 62, 96
3, 102400, Note_off_c, 1, 62, 0
3, 102400, Note_on_c, 1, 60, 96
3, 104448, Note_off_c, 1, 60, 0
3, 104448, Note_on_c, 1, 64, 96
3, 105984, Note_off_c, 1, 64, 0
3, 105984, Note_on_c, 1, 62, 96
3, 106496, Note_off_c, 1, 62, 0
3, 106496, Note_on_c, 1, 60, 96
3, 107520, Note_off_c, 1, 60, 0
3, 107520, Note_on_c, 1, 62, 96
3, 108544, Note_off_c, 1, 62, 0
3, 108544, Note_on_c, 1, 64, 96
3, 109056, Note_off_c, 1, 64, 0
3, 109056, Note_on_c, 1, 67, 96
3, 110080, Note_off_c, 1, 67, 0
3, 110080, Note_on_c, 1, 66, 96
3, 110592, Note_off_c, 1, 66, 0
3, 110592, Note_on_c, 1, 67, 96
3, 112640, Note_off_c, 1, 67, 0
3, 112640, Note_on_c, 1, 67, 96
3, 113664, Note_off_c, 1, 67, 0
3, 113664, Note_on_c, 1, 67, 96
3, 114688, Note_off_c, 1, 67, 0
3, 114688, Note_on_c, 1, 69, 96
3, 115200, Note_off_c, 1, 69, 0
3, 115200, Note_on_c, 1, 67, 96
3, 115712, Note_off_c, 1, 67, 0
3, 115712, Note_on_c, 1, 65, 96
3, 116224, Note_off_c, 1, 65, 0
3, 116224, Note_on_c, 1, 64, 96
3, 116736, Note_off_c, 1, 64, 0
3, 116736, Note_on_c, 1, 62, 96
3, 117248, Note_off_c, 1, 62, 0
3, 117248, Note_on_c, 1, 64, 96
3, 117760, Note_off_c, 1, 64, 0
3, 117760, Note_on_c, 1, 57, 96
3, 118272, Note_off_c, 1, 57, 0
3, 118272, Note_on_c, 1, 62, 96
3, 118784, Note_off_c, 1, 62, 0
3, 118784, Note_on_c, 1, 61, 96
3, 120832, Note_off_c, 1, 61, 0
3, 121856, Note_on_c, 1, 62, 96
3, 122880, Note_off_c, 1, 62, 0
3, 122880, Note_on_c, 1, 62, 96
3, 123904, Note_off_c, 1, 62, 0
3, 123904, Note_on_c, 1, 60, 96
3, 124416, Note_off_c, 1, 60, 0
3, 124416, Note_on_c, 1, 62, 96
3, 124928, Note_off_c, 1, 62, 0
3, 124928, Note_on_c, 1, 64, 96
3, 126464, Note_off_c, 1, 64, 0
3, 126464, Note_on_c, 1, 62, 96
3, 126720, Note_off_c, 1, 62, 0
3, 126720, Note_on_c, 1, 60, 96
3, 126976, Note_off_c, 1, 60, 0
3, 126976, Note_on_c, 1, 59, 96
3, 131072, Note_off_c, 1, 59, 0
3, 131072, End_track
4, 0, Start_track
4, 0, Title_t, "Instrument 3"
4, 0, Note_on_c, 2, 59, 96
4, 1024, Note_off_c, 2, 59, 0
4, 1024, Note_on_c, 2, 59, 96
4, 2048, Note_off_c, 2, 59, 0
4, 2048, Note_on_c, 2, 60, 96
4, 3072, Note_off_c, 2, 60, 0
4, 3072, Note_on_c, 2, 59, 96
4, 4096, Note_off_c, 2, 59, 0
4, 4096, Note_on_c, 2, 57, 96
4, 5632, Note_off_c, 2, 57, 0
4, 5632, Note_on_c, 2, 64, 96
4, 6144, Note_off_c, 2, 64, 0
4, 6144, Note_on_c, 2, 65, 96
4, 6656, Note_off_c, 2, 65, 0
4, 6656, Note_on_c, 2, 62, 96
4, 7168, Note_off_c, 2, 62, 0
4, 7168, Note_on_c, 2, 59, 96
4, 7680, Note_off_c, 2, 59, 0
4, 7680, Note_on_c, 2, 64, 96
4, 7936, Note_off_c, 2, 64, 0
4, 7936, Note_on_c, 2, 62, 96
4, 8192, Note_off_c, 2, 62, 0
4, 8192, Note_on_c, 2, 60, 96
4, 10240, Note_off_c, 2, 60, 0
4, 10240, Note_on_c, 2, 62, 96
4, 11264, Note_off_c, 2, 62, 0
4, 11264, Note_on_c, 2, 64, 96
4, 12288, Note_off_c, 2, 64, 0
4, 12288, Note_on_c, 2, 65, 96
4, 12800, Note_off_c, 2, 65, 0
4, 12800, Note_on_c, 2, 64, 96
4, 13312, Note_off_c, 2, 64, 0
4, 13312, Note_on_c, 2, 62, 96
4, 14848, Note_off_c, 2, 62, 0
4, 14848, Note_on_c, 2, 60, 96
4, 15104, Note_off_c, 2, 60, 0
4, 15104, Note_on_c, 2, 58, 96
4, 15360, Note_off_c, 2, 58, 0
4, 15360, Note_on_c, 2, 57, 96
4, 15872, Note_off_c, 2, 57, 0
4, 15872, Note_on_c, 2, 59, 96
4, 16128, Note_off_c, 2, 59, 0
4, 16128, Note_on_c, 2, 57, 96
4, 16384, Note_off_c, 2, 57, 0
4, 16384, Note_on_c, 2, 56, 96
4, 20480, Note_off_c, 2, 56, 0
4, 20480, Note_on_c, 2, 59, 96
4, 21504, Note_off_c, 2, 59, 0
4, 21504, Note_on_c, 2, 59, 96
4, 22528, Note_off_c, 2, 59, 0
4, 22528, Note_on_c, 2, 60, 96
4, 23552, Note_off_c, 2, 60, 0
4, 23552, Note_on_c, 2, 59, 96
4, 24576, Note_off_c, 2, 59, 0
4, 24576, Note_on_c, 2, 57, 96
4, 26112, Note_off_c, 2, 57, 0
4, 26112, Note_on_c, 2, 64, 96
4, 26624, Note_off_c, 2, 64, 0
4, 26624, Note_on_c, 2, 65, 96
4, 27136, Note_off_c, 2, 65, 0
4, 27136, Note_on_c, 2, 62, 96
4, 27648, Note_off_c, 2, 62, 0
4, 27648, Note_on_c, 2, 59, 96
4, 28160, Note_off_c, 2, 59, 0
4, 28160, Note_on_c, 2, 64, 96
4, 28416, Note_off_c, 2, 64, 0
4, 28416, Note_on_c, 2, 62, 96
4, 28672, Note_off_c, 2, 62, 0
4, 28672, Note_on_c, 2, 60, 96
4, 30720, Note_off_c, 2, 60, 0
4, 30720, Note_on_c, 2, 62, 96
4, 31744, Note_off_c, 2, 62, 0
4, 31744, Note_on_c, 2, 64, 96
4, 32768, Note_off_c, 2, 64, 0
4, 32768, Note_on_c, 2, 65, 96
4, 33280, Note_off_c, 2, 65, 0
4, 33280, Note_on_c, 2, 64, 96
4, 33792, Note_off_c, 2, 64, 0
4, 33792, Note_on_c, 2, 62, 96
4, 35328, Note_off_c, 2, 62, 0
4, 35328, Note_on_c, 2, 60, 96
4, 35584, Note_off_c, 2, 60, 0
4, 35584, Note_on_c, 2, 58, 96
4, 35840, Note_off_c, 2, 58, 0
4, 35840, Note_on_c, 2, 57, 96
4, 36352, Note_off_c, 2, 57, 0
4, 36352, Note_on_c, 2, 59, 96
4, 36608, Note_off_c, 2, 59, 0
4, 36608, Note_on_c, 2, 57, 96
4, 36864, Note_off_c, 2, 57, 0
4, 36864, Note_on_c, 2, 56, 96
4, 40960, Note_off_c, 2, 56, 0
4, 41984, Note_on_c, 2, 55, 96
4, 43008, Note_off_c, 2, 55, 0
4, 43008, Note_on_c, 2, 55, 96
4, 44032, Note_off_c, 2, 55, 0
4, 44032, Note_on_c, 2, 60, 96
4, 44544, Note_off_c, 2, 60, 0
4, 44544, Note_on_c, 2, 57, 96
4, 45056, Note_off_c, 2, 57, 0
4, 45056, Note_on_c, 2, 59, 96
4, 46080, Note_off_c, 2, 59, 0
4, 46080, Note_on_c, 2, 60, 96
4, 46592, Note_off_c, 2, 60, 0
4, 46592, Note_on_c, 2, 55, 96
4, 47104, Note_off_c, 2, 55, 0
4, 47104, Note_on_c, 2, 55, 96
4, 48896, Note_off_c, 2, 55, 0
4, 48896, Note_on_c, 2, 53, 96
4, 49152, Note_off_c, 2, 53, 0
4, 49152, Note_on_c, 2, 52, 96
4, 51200, Note_off_c, 2, 52, 0
4, 52224, Note_on_c, 2, 55, 96
4, 53248, Note_off_c, 2, 55, 0
4, 53248, Note_on_c, 2, 55, 96
4, 54272, Note_off_c, 2, 55, 0
4, 54272, Note_on_c, 2, 60, 96
4, 55296, Note_off_c, 2, 60, 0
4, 55296, Note_on_c, 2, 60, 96
4, 55808, Note_off_c, 2, 60, 0
4, 55808, Note_on_c, 2, 62, 96
4, 56320, Note_off_c, 2, 62, 0
4, 56320, Note_on_c, 2, 62, 96
4, 57344, Note_off_c, 2, 62, 0
4, 57344, Note_on_c, 2, 60, 96
4, 57856, Note_off_c, 2, 60, 0
4, 57856, Note_on_c, 2, 62, 96
4, 58368, Note_off_c, 2, 62, 0
4, 58368, Note_on_c, 2, 64, 96
4, 59904, Note_off_c, 2, 64, 0
4, 59904, Note_on_c, 2, 59, 96
4, 60416, Note_off_c, 2, 59, 0
4, 60416, Note_on_c, 2, 64, 96
4, 60928, Note_off_c, 2, 64, 0
4, 60928, Note_on_c, 2, 62, 96
4, 61440, Note_off_c, 2, 62, 0
4, 61440, Note_on_c, 2, 60, 96
4, 63488, Note_off_c, 2, 60, 0
4, 63488, Note_on_c, 2, 64, 96
4, 64512, Note_off_c, 2, 64, 0
4, 64512, Note_on_c, 2, 64, 96
4, 65536, Note_off_c, 2, 64, 0
4, 65536, Note_on_c, 2, 62, 96
4, 67072, Note_off_c, 2, 62, 0
4, 67072, Note_on_c, 2, 60, 96
4, 67584, Note_off_c, 2, 60, 0
4, 67584, Note_on_c, 2, 58, 96
4, 68608, Note_off_c, 2, 58, 0
4, 68608, Note_on_c, 2, 57, 96
4, 69632, Note_off_c, 2, 57, 0
4, 69632, Note_on_c, 2, 57, 96
4, 71680, Note_off_c, 2, 57, 0
4, 72704, Note_on_c, 2, 60, 96
4, 74240, Note_off_c, 2, 60, 0
4, 74240, Note_on_c, 2, 59, 96
4, 74752, Note_off_c, 2, 59, 0
4, 74752, Note_on_c, 2, 57, 96
4, 75776, Note_off_c, 2, 57, 0
4, 75776, Note_on_c, 2, 57, 96
4, 76800, Note_off_c, 2, 57, 0
4, 76800, Note_on_c, 2, 55, 96
4, 77312, Note_off_c, 2, 55, 0
4, 77312, Note_on_c, 2, 59, 96
4, 77824, Note_off_c, 2, 59, 0
4, 77824, Note_on_c, 2, 60, 96
4, 79872, Note_off_c, 2, 60, 0
4, 80896, Note_on_c, 2, 60, 96
4, 81920, Note_off_c, 2, 60, 0
4, 81920, Note_on_c, 2, 59, 96
4, 82944, Note_off_c, 2, 59, 0
4, 82944, Note_on_c, 2, 55, 96
4, 83968, Note_off_c, 2, 55, 0
4, 83968, Note_on_c, 2, 53, 96
4, 84480, Note_off_c, 2, 53, 0
4, 84480, Note_on_c, 2, 52, 96
4, 84992, Note_off_c, 2, 52, 0
4, 84992, Note_on_c, 2, 50, 96
4, 85504, Note_off_c, 2, 50, 0
4, 85504, Note_on_c, 2, 55, 96
4, 86016, Note_off_c, 2, 55, 0
4, 86016, Note_on_c, 2, 55, 96
4, 88064, Note_off_c, 2, 55, 0
4, 88064, Note_on_c, 2, 60, 96
4, 89088, Note_off_c, 2, 60, 0
4, 89088, Note_on_c, 2, 59, 96
4, 90112, Note_off_c, 2, 59, 0
4, 90112, Note_on_c, 2, 60, 96
4, 91136, Note_off_c, 2, 60, 0
4, 91136, Note_on_c, 2, 59, 96
4, 92160, Note_off_c, 2, 59, 0
4, 92160, Note_on_c, 2, 57, 96
4, 93184, Note_off_c, 2, 57, 0
4, 93184, Note_on_c, 2, 62, 96
4, 94208, Note_off_c, 2, 62, 0
4, 94208, Note_on_c, 2, 55, 96
4, 94720, Note_off_c, 2, 55, 0
4, 94720, Note_on_c, 2, 60, 96
4, 94976, Note_off_c, 2, 60, 0
4, 94976, Note_on_c, 2, 59, 96
4, 95232, Note_off_c, 2, 59, 0
4, 95232, Note_on_c, 2, 57, 96
4, 95744, Note_off_c, 2, 57, 0
4, 95744, Note_on_c, 2, 59, 96
4, 96000, Note_off_c, 2, 59, 0
4, 96000, Note_on_c, 2, 57, 96
4, 96256, Note_off_c, 2, 57, 0
4, 96256, Note_on_c, 2, 56, 96
4, 97280, Note_off_c, 2, 56, 0
4, 97280, Note_on_c, 2, 55, 96
4, 98304, Note_off_c, 2, 55, 0
4, 98304, Note_on_c, 2, 57, 96
4, 99328, Note_off_c, 2, 57, 0
4, 99328, Note_on_c, 2, 62, 96
4, 100864, Note_off_c, 2, 62, 0
4, 100864, Note_on_c, 2, 59, 96
4, 101376, Note_off_c, 2, 59, 0
4, 101376, Note_on_c, 2, 60, 96
4, 101888, Note_off_c, 2, 60, 0
4, 101888, Note_on_c, 2, 55, 96
4, 102400, Note_off_c, 2, 55, 0
4, 102400, Note_on_c, 2, 55, 96
4, 104448, Note_off_c, 2, 55, 0
4, 104448, Note_on_c, 2, 60, 96
4, 105472, Note_off_c, 2, 60, 0
4, 105472, Note_on_c, 2, 60, 96
4, 105984, Note_off_c, 2, 60, 0
4, 105984, Note_on_c, 2, 58, 96
4, 106496, Note_off_c, 2, 58, 0
4, 106496, Note_on_c, 2, 57, 96
4, 107008, Note_off_c, 2, 57, 0
4, 107008, Note_on_c, 2, 55, 96
4, 107520, Note_off_c, 2, 55, 0
4, 107520, Note_on_c, 2, 53, 96
4, 108544, Note_off_c, 2, 53, 0
4, 108544, Note_on_c, 2, 55, 96
4, 109056, Note_off_c, 2, 55, 0
4, 109056, Note_on_c, 2, 64, 96
4, 109568, Note_off_c, 2, 64, 0
4, 109568, Note_on_c, 2, 57, 96
4, 110080, Note_off_c, 2, 57, 0
4, 110080, Note_on_c, 2, 62, 96
4, 110336, Note_off_c, 2, 62, 0
4, 110336, Note_on_c, 2, 60, 96
4, 110592, Note_off_c, 2, 60, 0
4, 110592, Note_on_c, 2, 59, 96
4, 112640, Note_off_c, 2, 59, 0
4, 112640, Note_on_c, 2, 64, 96
4, 113664, Note_off_c, 2, 64, 0
4, 113664, Note_on_c, 2, 62, 96
4, 114176, Note_off_c, 2, 62, 0
4, 114176, Note_on_c, 2, 64, 96
4, 114688, Note_off_c, 2, 64, 0
4, 114688, Note_on_c, 2, 65, 96
4, 115200, Note_off_c, 2, 65, 0
4, 115200, Note_on_c, 2, 64, 96
4, 115712, Note_off_c, 2, 64, 0
4, 115712, Note_on_c, 2, 62, 96
4, 116224, Note_off_c, 2, 62, 0
4, 116224, Note_on_c, 2, 60, 96
4, 116736, Note_off_c, 2, 60, 0
4, 116736, Note_on_c, 2, 59, 96
4, 117248, Note_off_c, 2, 59, 0
4, 117248, Note_on_c, 2, 61, 96
4, 117760, Note_off_c, 2, 61, 0
4, 117760, Note_on_c, 2, 62, 96
4, 118272, Note_off_c, 2, 62, 0
4, 118272, Note_on_c, 2, 57, 96
4, 118784, Note_off_c, 2, 57, 0
4, 118784, Note_on_c, 2, 57, 96
4, 120832, Note_off_c, 2, 57, 0
4, 121856, Note_on_c, 2, 57, 96
4, 122368, Note_off_c, 2, 57, 0
4, 122368, Note_on_c, 2, 55, 96
4, 122880, Note_off_c, 2, 55, 0
4, 122880, Note_on_c, 2, 53, 96
4, 123392, Note_off_c, 2, 53, 0
4, 123392, Note_on_c, 2, 52, 96
4, 123904, Note_off_c, 2, 52, 0
4, 123904, Note_on_c, 2, 53, 96
4, 124928, Note_off_c, 2, 53, 0
4, 124928, Note_on_c, 2, 52, 96
4, 125440, Note_off_c, 2, 52, 0
4, 125440, Note_on_c, 2, 57, 96
4, 125952, Note_off_c, 2, 57, 0
4, 125952, Note_on_c, 2, 57, 96
4, 126464, Note_off_c, 2, 57, 0
4, 126464, Note_on_c, 2, 59, 96
4, 126720, Note_off_c, 2, 59, 0
4, 126720, Note_on_c, 2, 57, 96
4, 126976, Note_off_c, 2, 57, 0
4, 126976, Note_on_c, 2, 56, 96
4, 131072, Note_off_c, 2, 56, 0
4, 131072, End_track
5, 0, Start_track
5, 0, Title_t, "Instrument 4"
5, 0, Note_on_c, 3, 52, 96
5, 1024, Note_off_c, 3, 52, 0
5, 1024, Note_on_c, 3, 52, 96
5, 1536, Note_off_c, 3, 52, 0
5, 1536, Note_on_c, 3, 50, 96
5, 2048, Note_off_c, 3, 50, 0
5, 2048, Note_on_c, 3, 48, 96
5, 2560, Note_off_c, 3, 48, 0
5, 2560, Note_on_c, 3, 47, 96
5, 3072, Note_off_c, 3, 47, 0
5, 3072, Note_on_c, 3, 45, 96
5, 3584, Note_off_c, 3, 45, 0
5, 3584, Note_on_c, 3, 44, 96
5, 4096, Note_off_c, 3, 44, 0
5, 4096, Note_on_c, 3, 45, 96
5, 5632, Note_off_c, 3, 45, 0
5, 5632, Note_on_c, 3, 48, 96
5, 6144, Note_off_c, 3, 48, 0
5, 6144, Note_on_c, 3, 50, 96
5, 6656, Note_off_c, 3, 50, 0
5, 6656, Note_on_c, 3, 47, 96
5, 7168, Note_off_c, 3, 47, 0
5, 7168, Note_on_c, 3, 52, 96
5, 8192, Note_off_c, 3, 52, 0
5, 8192, Note_on_c, 3, 45, 96
5, 10240, Note_off_c, 3, 45, 0
5, 10240, Note_on_c, 3, 55, 96
5, 10752, Note_off_c, 3, 55, 0
5, 10752, Note_on_c, 3, 53, 96
5, 11264, Note_off_c, 3, 53, 0
5, 11264, Note_on_c, 3, 52, 96
5, 12288, Note_off_c, 3, 52, 0
5, 12288, Note_on_c, 3, 50, 96
5, 12800, Note_off_c, 3, 50, 0
5, 12800, Note_on_c, 3, 52, 96
5, 13312, Note_off_c, 3, 52, 0
5, 13312, Note_on_c, 3, 53, 96
5, 14336, Note_off_c, 3, 53, 0
5, 14336, Note_on_c, 3, 47, 96
5, 14848, Note_off_c, 3, 47, 0
5, 14848, Note_on_c, 3, 48, 96
5, 15360, Note_off_c, 3, 48, 0
5, 15360, Note_on_c, 3, 50, 96
5, 16384, Note_off_c, 3, 50, 0
5, 16384, Note_on_c, 3, 52, 96
5, 20480, Note_off_c, 3, 52, 0
5, 20480, Note_on_c, 3, 52, 96
5, 21504, Note_off_c, 3, 52, 0
5, 21504, Note_on_c, 3, 52, 96
5, 22016, Note_off_c, 3, 52, 0
5, 22016, Note_on_c, 3, 50, 96
5, 22528, Note_off_c, 3, 50, 0
5, 22528, Note_on_c, 3, 48, 96
5, 23040, Note_off_c, 3, 48, 0
5, 23040, Note_on_c, 3, 47, 96
5, 23552, Note_off_c, 3, 47, 0
5, 23552, Note_on_c, 3, 45, 96
5, 24064, Note_off_c, 3, 45, 0
5, 24064, Note_on_c, 3, 44, 96
5, 24576, Note_off_c, 3, 44, 0
5, 24576, Note_on_c, 3, 45, 96
5, 26112, Note_off_c, 3, 45, 0
5, 26112, Note_on_c, 3, 48, 96
5, 26624, Note_off_c, 3, 48, 0
5, 26624, Note_on_c, 3, 50, 96
5, 27136, Note_off_c, 3, 50, 0
5, 27136, Note_on_c, 3, 47, 96
5, 27648, Note_off_c, 3, 47, 0
5, 27648, Note_on_c, 3, 52, 96
5, 28672, Note_off_c, 3, 52, 0
5, 28672, Note_on_c, 3, 45, 96
5, 30720, Note_off_c, 3, 45, 0
5, 30720, Note_on_c, 3, 55, 96
5, 31232, Note_off_c, 3, 55, 0
5, 31232, Note_on_c, 3, 53, 96
5, 31744, Note_off_c, 3, 53, 0
5, 31744, Note_on_c, 3, 52, 96
5, 32768, Note_off_c, 3, 52, 0
5, 32768, Note_on_c, 3, 50, 96
5, 33280, Note_off_c, 3, 50, 0
5, 33280, Note_on_c, 3, 52, 96
5, 33792, Note_off_c, 3, 52, 0
5, 33792, Note_on_c, 3, 53, 96
5, 34816, Note_off_c, 3, 53, 0
5, 34816, Note_on_c, 3, 47, 96
5, 35328, Note_off_c, 3, 47, 0
5, 35328, Note_on_c, 3, 48, 96
5, 35840, Note_off_c, 3, 48, 0
5, 35840, Note_on_c, 3, 50, 96
5, 36864, Note_off_c, 3, 50, 0
5, 36864, Note_on_c, 3, 52, 96
5, 40960, Note_off_c, 3, 52, 0
5, 41984, Note_on_c, 3, 55, 96
5, 42496, Note_off_c, 3, 55, 0
5, 42496, Note_on_c, 3, 53, 96
5, 43008, Note_off_c, 3, 53, 0
5, 43008, Note_on_c, 3, 52, 96
5, 44032, Note_off_c, 3, 52, 0
5, 44032, Note_on_c, 3, 57, 96
5, 45056, Note_off_c, 3, 57, 0
5, 45056, Note_on_c, 3, 55, 96
5, 45568, Note_off_c, 3, 55, 0
5, 45568, Note_on_c, 3, 43, 96
5, 46080, Note_off_c, 3, 43, 0
5, 46080, Note_on_c, 3, 45, 96
5, 46592, Note_off_c, 3, 45, 0
5, 46592, Note_on_c, 3, 47, 96
5, 47104, Note_off_c, 3, 47, 0
5, 47104, Note_on_c, 3, 48, 96
5, 48128, Note_off_c, 3, 48, 0
5, 48128, Note_on_c, 3, 43, 96
5, 49152, Note_off_c, 3, 43, 0
5, 49152, Note_on_c, 3, 36, 96
5, 51200, Note_off_c, 3, 36, 0
5, 52224, Note_on_c, 3, 52, 96
5, 52736, Note_off_c, 3, 52, 0
5, 52736, Note_on_c, 3, 53, 96
5, 53248, Note_off_c, 3, 53, 0
5, 53248, Note_on_c, 3, 52, 96
5, 53760, Note_off_c, 3, 52, 0
5, 53760, Note_on_c, 3, 50, 96
5, 54272, Note_off_c, 3, 50, 0
5, 54272, Note_on_c, 3, 52, 96
5, 54784, Note_off_c, 3, 52, 0
5, 54784, Note_on_c, 3, 48, 96
5, 55296, Note_off_c, 3, 48, 0
5, 55296, Note_on_c, 3, 53, 96
5, 56320, Note_off_c, 3, 53, 0
5, 56320, Note_on_c, 3, 44, 96
5, 57344, Note_off_c, 3, 44, 0
5, 57344, Note_on_c, 3, 45, 96
5, 57856, Note_off_c, 3, 45, 0
5, 57856, Note_on_c, 3, 47, 96
5, 58368, Note_off_c, 3, 47, 0
5, 58368, Note_on_c, 3, 48, 96
5, 58880, Note_off_c, 3, 48, 0
5, 58880, Note_on_c, 3, 50, 96
5, 59392, Note_off_c, 3, 50, 0
5, 59392, Note_on_c, 3, 52, 96
5, 61440, Note_off_c, 3, 52, 0
5, 61440, Note_on_c, 3, 45, 96
5, 63488, Note_off_c, 3, 45, 0
5, 63488, Note_on_c, 3, 52, 96
5, 64512, Note_off_c, 3, 52, 0
5, 64512, Note_on_c, 3, 57, 96
5, 65024, Note_off_c, 3, 57, 0
5, 65024, Note_on_c, 3, 55, 96
5, 65536, Note_off_c, 3, 55, 0
5, 65536, Note_on_c, 3, 53, 96
5, 66048, Note_off_c, 3, 53, 0
5, 66048, Note_on_c, 3, 52, 96
5, 66560, Note_off_c, 3, 52, 0
5, 66560, Note_on_c, 3, 50, 96
5, 68096, Note_off_c, 3, 50, 0
5, 68096, Note_on_c, 3, 49, 96
5, 68608, Note_off_c, 3, 49, 0
5, 68608, Note_on_c, 3, 50, 96
5, 69120, Note_off_c, 3, 50, 0
5, 69120, Note_on_c, 3, 53, 96
5, 69632, Note_off_c, 3, 53, 0
5, 69632, Note_on_c, 3, 57, 96
5, 71680, Note_off_c, 3, 57, 0
5, 72704, Note_on_c, 3, 41, 96
5, 73728, Note_off_c, 3, 41, 0
5, 73728, Note_on_c, 3, 43, 96
5, 74752, Note_off_c, 3, 43, 0
5, 74752, Note_on_c, 3, 45, 96
5, 75776, Note_off_c, 3, 45, 0
5, 75776, Note_on_c, 3, 50, 96
5, 76288, Note_off_c, 3, 50, 0
5, 76288, Note_on_c, 3, 48, 96
5, 76800, Note_off_c, 3, 48, 0
5, 76800, Note_on_c, 3, 47, 96
5, 77312, Note_off_c, 3, 47, 0
5, 77312, Note_on_c, 3, 43, 96
5, 77824, Note_off_c, 3, 43, 0
5, 77824, Note_on_c, 3, 45, 96
5, 79872, Note_off_c, 3, 45, 0
5, 80896, Note_on_c, 3, 45, 96
5, 81920, Note_off_c, 3, 45, 0
5, 81920, Note_on_c, 3, 47, 96
5, 82944, Note_off_c, 3, 47, 0
5, 82944, Note_on_c, 3, 48, 96
5, 83968, Note_off_c, 3, 48, 0
5, 83968, Note_on_c, 3, 50, 96
5, 84992, Note_off_c, 3, 50, 0
5, 84992, Note_on_c, 3, 47, 96
5, 85504, Note_off_c, 3, 47, 0
5, 85504, Note_on_c, 3, 43, 96
5, 86016, Note_off_c, 3, 43, 0
5, 86016, Note_on_c, 3, 48, 96
5, 88064, Note_off_c, 3, 48, 0
5, 88064, Note_on_c, 3, 45, 96
5, 88576, Note_off_c, 3, 45, 0
5, 88576, Note_on_c, 3, 48, 96
5, 89088, Note_off_c, 3, 48, 0
5, 89088, Note_on_c, 3, 52, 96
5, 89600, Note_off_c, 3, 52, 0
5, 89600, Note_on_c, 3, 50, 96
5, 90112, Note_off_c, 3, 50, 0
5, 90112, Note_on_c, 3, 48, 96
5, 90624, Note_off_c, 3, 48, 0
5, 90624, Note_on_c, 3, 47, 96
5, 91136, Note_off_c, 3, 47, 0
5, 91136, Note_on_c, 3, 45, 96
5, 91648, Note_off_c, 3, 45, 0
5, 91648, Note_on_c, 3, 44, 96
5, 92160, Note_off_c, 3, 44, 0
5, 92160, Note_on_c, 3, 45, 96
5, 93184, Note_off_c, 3, 45, 0
5, 93184, Note_on_c, 3, 47, 96
5, 94208, Note_off_c, 3, 47, 0
5, 94208, Note_on_c, 3, 48, 96
5, 95232, Note_off_c, 3, 48, 0
5, 95232, Note_on_c, 3, 50, 96
5, 96256, Note_off_c, 3, 50, 0
5, 96256, Note_on_c, 3, 52, 96
5, 97280, Note_off_c, 3, 52, 0
5, 97280, Note_on_c, 3, 55, 96
5, 98304, Note_off_c, 3, 55, 0
5, 98304, Note_on_c, 3, 53, 96
5, 98816, Note_off_c, 3, 53, 0
5, 98816, Note_on_c, 3, 52, 96
5, 99328, Note_off_c, 3, 52, 0
5, 99328, Note_on_c, 3, 50, 96
5, 99840, Note_off_c, 3, 50, 0
5, 99840, Note_on_c, 3, 48, 96
5, 100352, Note_off_c, 3, 48, 0
5, 100352, Note_on_c, 3, 47, 96
5, 100864, Note_off_c, 3, 47, 0
5, 100864, Note_on_c, 3, 43, 96
5, 101376, Note_off_c, 3, 43, 0
5, 101376, Note_on_c, 3, 45, 96
5, 101888, Note_off_c, 3, 45, 0
5, 101888, Note_on_c, 3, 47, 96
5, 102400, Note_off_c, 3, 47, 0
5, 102400, Note_on_c, 3, 48, 96
5, 104448, Note_off_c, 3, 48, 0
5, 104448, Note_on_c, 3, 48, 96
5, 104960, Note_off_c, 3, 48, 0
5, 104960, Note_on_c, 3, 50, 96
5, 105472, Note_off_c, 3, 50, 0
5, 105472, Note_on_c, 3, 52, 96
5, 106496, Note_off_c, 3, 52, 0
5, 106496, Note_on_c, 3, 53, 96
5, 107008, Note_off_c, 3, 53, 0
5, 107008, Note_on_c, 3, 52, 96
5, 107520, Note_off_c, 3, 52, 0
5, 107520, Note_on_c, 3, 50, 96
5, 108544, Note_off_c, 3, 50, 0
5, 108544, Note_on_c, 3, 48, 96
5, 109568, Note_off_c, 3, 48, 0
5, 109568, Note_on_c, 3, 50, 96
5, 110592, Note_off_c, 3, 50, 0
5, 110592, Note_on_c, 3, 52, 96
5, 112640, Note_off_c, 3, 52, 0
5, 112640, Note_on_c, 3, 52, 96
5, 113152, Note_off_c, 3, 52, 0
5, 113152, Note_on_c, 3, 53, 96
5, 113664, Note_off_c, 3, 53, 0
5, 113664, Note_on_c, 3, 55, 96
5, 114688, Note_off_c, 3, 55, 0
5, 114688, Note_on_c, 3, 50, 96
5, 115200, Note_off_c, 3, 50, 0
5, 115200, Note_on_c, 3, 52, 96
5, 115712, Note_off_c, 3, 52, 0
5, 115712, Note_on_c, 3, 53, 96
5, 117248, Note_off_c, 3, 53, 0
5, 117248, Note_on_c, 3, 52, 96
5, 117760, Note_off_c, 3, 52, 0
5, 117760, Note_on_c, 3, 50, 96
5, 118272, Note_off_c, 3, 50, 0
5, 118272, Note_on_c, 3, 53, 96
5, 118784, Note_off_c, 3, 53, 0
5, 118784, Note_on_c, 3, 57, 96
5, 120832, Note_off_c, 3, 57, 0
5, 121856, Note_on_c, 3, 53, 96
5, 122368, Note_off_c, 3, 53, 0
5, 122368, Note_on_c, 3, 52, 96
5, 122880, Note_off_c, 3, 52, 0
5, 122880, Note_on_c, 3, 50, 96
5, 123904, Note_off_c, 3, 50, 0
5, 123904, Note_on_c, 3, 45, 96
5, 124416, Note_off_c, 3, 45, 0
5, 124416, Note_on_c, 3, 47, 96
5, 124928, Note_off_c, 3, 47, 0
5, 124928, Note_on_c, 3, 48, 96
5, 125440, Note_off_c, 3, 48, 0
5, 125440, Note_on_c, 3, 49, 96
5, 125952, Note_off_c, 3, 49, 0
5, 125952, Note_on_c, 3, 50, 96
5, 126976, Note_off_c, 3, 50, 0
5, 126976, Note_on_c, 3, 52, 96
5, 131072, Note_off_c, 3, 52, 0
5, 131072, End_track
0, 0, End_of_file
