0, 0, Header, 1, 6, 480
1, 0, Start_track
1, 0, Title_t, "untitled"
1, 0, Text_t, "Sonata: Largo\012"
1, 0, Text_t, "Flauto T\012"
1, 0, Text_t, "Violino-\012"
1, 0, Text_t, "Continuo\012"
1, 0, Text_t, "Continuo\012"
1, 0, Time_signature, 3, 2, 24, 8
1, 0, Key_signature, 0, "major"
1, 0, Tempo, 1428571
1, 0, End_track
2, 0, Start_track
2, 0, Program_c, 0, 0
2, 2880, Note_on_c, 0, 72, 64
2, 3240, Note_on_c, 0, 72, 0
2, 3240, Note_on_c, 0, 80, 64
2, 3360, Note_on_c, 0, 80, 0
2, 3360, Note_on_c, 0, 77, 64
2, 3400, Note_on_c, 0, 77, 0
2, 3400, Note_on_c, 0, 76, 64
2, 3440, Note_on_c, 0, 76, 0
2, 3440, Note_on_c, 0, 77, 64
2, 3480, Note_on_c, 0, 77, 0
2, 3480, Note_on_c, 0, 76, 64
2, 3520, Note_on_c, 0, 76, 0
2, 3520, Note_on_c, 0, 77, 64
2, 3560, Note_on_c, 0, 77, 0
2, 3560, Note_on_c, 0, 76, 64
2, 3600, Note_on_c, 0, 76, 0
2, 3600, Note_on_c, 0, 77, 64
2, 3640, Note_on_c, 0, 77, 0
2, 3640, Note_on_c, 0, 76, 64
2, 3680, Note_on_c, 0, 76, 0
2, 3680, Note_on_c, 0, 77, 64
2, 3720, Note_on_c, 0, 77, 0
2, 3720, Note_on_c, 0, 76, 64
2, 3760, Note_on_c, 0, 76, 0
2, 3760, Note_on_c, 0, 77, 64
2, 3800, Note_on_c, 0, 77, 0
2, 3800, Note_on_c, 0, 76, 64
2, 4080, Note_on_c, 0, 76, 0
2, 4080, Note_on_c, 0, 77, 64
2, 4320, Note_on_c, 0, 77, 0
2, 4320, Note_on_c, 0, 77, 64
2, 5040, Note_on_c, 0, 77, 0
2, 5040, Note_on_c, 0, 75, 64
2, 5160, Note_on_c, 0, 75, 0
2, 5160, Note_on_c, 0, 74, 64
2, 5280, Note_on_c, 0, 74, 0
2, 5280, Note_on_c, 0, 79, 64
2, 5400, Note_on_c, 0, 79, 0
2, 5400, Note_on_c, 0, 77, 64
2, 5520, Note_on_c, 0, 77, 0
2, 5520, Note_on_c, 0, 75, 64
2, 5640, Note_on_c, 0, 75, 0
2, 5640, Note_on_c, 0, 74, 64
2, 5760, Note_on_c, 0, 74, 0
2, 5760, Note_on_c, 0, 75, 64
2, 6000, Note_on_c, 0, 75, 0
2, 6000, Note_on_c, 0, 77, 64
2, 6060, Note_on_c, 0, 77, 0
2, 6060, Note_on_c, 0, 75, 64
2, 6120, Note_on_c, 0, 75, 0
2, 6120, Note_on_c, 0, 74, 64
2, 6180, Note_on_c, 0, 74, 0
2, 6180, Note_on_c, 0, 75, 64
2, 6240, Note_on_c, 0, 75, 0
2, 6240, Note_on_c, 0, 77, 64
2, 6280, Note_on_c, 0, 77, 0
2, 6280, Note_on_c, 0, 75, 64
2, 6320, Note_on_c, 0, 75, 0
2, 6320, Note_on_c, 0, 77, 64
2, 6360, Note_on_c, 0, 77, 0
2, 6360, Note_on_c, 0, 75, 64
2, 6400, Note_on_c, 0, 75, 0
2, 6400, Note_on_c, 0, 77, 64
2, 6440, Note_on_c, 0, 77, 0
2, 6440, Note_on_c, 0, 75, 64
2, 6480, Note_on_c, 0, 75, 0
2, 6480, Note_on_c, 0, 77, 64
2, 6520, Note_on_c, 0, 77, 0
2, 6520, Note_on_c, 0, 75, 64
2, 6560, Note_on_c, 0, 75, 0
2, 6560, Note_on_c, 0, 77, 64
2, 6600, Note_on_c, 0, 77, 0
2, 6600, Note_on_c, 0, 75, 64
2, 6640, Note_on_c, 0, 75, 0
2, 6640, Note_on_c, 0, 77, 64
2, 6680, Note_on_c, 0, 77, 0
2, 6680, Note_on_c, 0, 75, 64
2, 6960, Note_on_c, 0, 75, 0
2, 6960, Note_on_c, 0, 74, 64
2, 7200, Note_on_c, 0, 74, 0
2, 7200, Note_on_c, 0, 74, 64
2, 7320, Note_on_c, 0, 74, 0
2, 7320, Note_on_c, 0, 66, 64
2, 7440, Note_on_c, 0, 66, 0
2, 7440, Note_on_c, 0, 67, 64
2, 7680, Note_on_c, 0, 67, 0
2, 7920, Note_on_c, 0, 71, 64
2, 8160, Note_on_c, 0, 71, 0
2, 8160, Note_on_c, 0, 72, 64
2, 8220, Note_on_c, 0, 72, 0
2, 8220, Note_on_c, 0, 71, 64
2, 8280, Note_on_c, 0, 71, 0
2, 8280, Note_on_c, 0, 72, 64
2, 8340, Note_on_c, 0, 72, 0
2, 8340, Note_on_c, 0, 71, 64
2, 8400, Note_on_c, 0, 71, 0
2, 8400, Note_on_c, 0, 72, 64
2, 8460, Note_on_c, 0, 72, 0
2, 8460, Note_on_c, 0, 71, 64
2, 8520, Note_on_c, 0, 71, 0
2, 8520, Note_on_c, 0, 69, 64
2, 8580, Note_on_c, 0, 69, 0
2, 8580, Note_on_c, 0, 71, 64
2, 8640, Note_on_c, 0, 71, 0
2, 8640, Note_on_c, 0, 72, 64
2, 8760, Note_on_c, 0, 72, 0
2, 8760, Note_on_c, 0, 62, 64
2, 8880, Note_on_c, 0, 62, 0
2, 8880, Note_on_c, 0, 63, 64
2, 9000, Note_on_c, 0, 63, 0
2, 9000, Note_on_c, 0, 67, 64
2, 9120, Note_on_c, 0, 67, 0
2, 9120, Note_on_c, 0, 72, 64
2, 9240, Note_on_c, 0, 72, 0
2, 9240, Note_on_c, 0, 75, 64
2, 9360, Note_on_c, 0, 75, 0
2, 9360, Note_on_c, 0, 75, 64
2, 9480, Note_on_c, 0, 75, 0
2, 9480, Note_on_c, 0, 74, 64
2, 9600, Note_on_c, 0, 74, 0
2, 9600, Note_on_c, 0, 74, 64
2, 9720, Note_on_c, 0, 74, 0
2, 9720, Note_on_c, 0, 72, 64
2, 9840, Note_on_c, 0, 72, 0
2, 9840, Note_on_c, 0, 72, 64
2, 9960, Note_on_c, 0, 72, 0
2, 9960, Note_on_c, 0, 71, 64
2, 10080, Note_on_c, 0, 71, 0
2, 10080, Note_on_c, 0, 71, 64
2, 11040, Note_on_c, 0, 71, 0
2, 11520, Note_on_c, 0, 72, 64
2, 11880, Note_on_c, 0, 72, 0
2, 11880, Note_on_c, 0, 82, 64
2, 12000, Note_on_c, 0, 82, 0
2, 12000, Note_on_c, 0, 80, 64
2, 12040, Note_on_c, 0, 80, 0
2, 12040, Note_on_c, 0, 79, 64
2, 12080, Note_on_c, 0, 79, 0
2, 12080, Note_on_c, 0, 80, 64
2, 12120, Note_on_c, 0, 80, 0
2, 12120, Note_on_c, 0, 79, 64
2, 12160, Note_on_c, 0, 79, 0
2, 12160, Note_on_c, 0, 80, 64
2, 12200, Note_on_c, 0, 80, 0
2, 12200, Note_on_c, 0, 79, 64
2, 12240, Note_on_c, 0, 79, 0
2, 12240, Note_on_c, 0, 80, 64
2, 12280, Note_on_c, 0, 80, 0
2, 12280, Note_on_c, 0, 79, 64
2, 12320, Note_on_c, 0, 79, 0
2, 12320, Note_on_c, 0, 80, 64
2, 12360, Note_on_c, 0, 80, 0
2, 12360, Note_on_c, 0, 79, 64
2, 12400, Note_on_c, 0, 79, 0
2, 12400, Note_on_c, 0, 80, 64
2, 12440, Note_on_c, 0, 80, 0
2, 12440, Note_on_c, 0, 79, 64
2, 12720, Note_on_c, 0, 79, 0
2, 12720, Note_on_c, 0, 80, 64
2, 12960, Note_on_c, 0, 80, 0
2, 12960, Note_on_c, 0, 80, 64
2, 14520, Note_on_c, 0, 80, 0
2, 14520, Note_on_c, 0, 70, 64
2, 14640, Note_on_c, 0, 70, 0
2, 14640, Note_on_c, 0, 74, 64
2, 14760, Note_on_c, 0, 74, 0
2, 14760, Note_on_c, 0, 77, 64
2, 14880, Note_on_c, 0, 77, 0
2, 14880, Note_on_c, 0, 80, 64
2, 15000, Note_on_c, 0, 80, 0
2, 15000, Note_on_c, 0, 84, 64
2, 15120, Note_on_c, 0, 84, 0
2, 15120, Note_on_c, 0, 84, 64
2, 15240, Note_on_c, 0, 84, 0
2, 15240, Note_on_c, 0, 82, 64
2, 15360, Note_on_c, 0, 82, 0
2, 15360, Note_on_c, 0, 82, 64
2, 15480, Note_on_c, 0, 82, 0
2, 15480, Note_on_c, 0, 80, 64
2, 15600, Note_on_c, 0, 80, 0
2, 15600, Note_on_c, 0, 80, 64
2, 15720, Note_on_c, 0, 80, 0
2, 15720, Note_on_c, 0, 79, 64
2, 15840, Note_on_c, 0, 79, 0
2, 15840, Note_on_c, 0, 79, 64
2, 17400, Note_on_c, 0, 79, 0
2, 17400, Note_on_c, 0, 84, 64
2, 17520, Note_on_c, 0, 84, 0
2, 17520, Note_on_c, 0, 76, 64
2, 17640, Note_on_c, 0, 76, 0
2, 17640, Note_on_c, 0, 77, 64
2, 17760, Note_on_c, 0, 77, 0
2, 17880, Note_on_c, 0, 80, 64
2, 18000, Note_on_c, 0, 80, 0
2, 18000, Note_on_c, 0, 71, 64
2, 18120, Note_on_c, 0, 71, 0
2, 18120, Note_on_c, 0, 72, 64
2, 18240, Note_on_c, 0, 72, 0
2, 18360, Note_on_c, 0, 77, 64
2, 18480, Note_on_c, 0, 77, 0
2, 18480, Note_on_c, 0, 67, 64
2, 18600, Note_on_c, 0, 67, 0
2, 18600, Note_on_c, 0, 68, 64
2, 18720, Note_on_c, 0, 68, 0
2, 18720, Note_on_c, 0, 68, 64
2, 18960, Note_on_c, 0, 68, 0
2, 18960, Note_on_c, 0, 74, 64
2, 19200, Note_on_c, 0, 74, 0
2, 19200, Note_on_c, 0, 77, 64
2, 19440, Note_on_c, 0, 77, 0
2, 19440, Note_on_c, 0, 80, 64
2, 19680, Note_on_c, 0, 80, 0
2, 19680, Note_on_c, 0, 84, 64
2, 19800, Note_on_c, 0, 84, 0
2, 19800, Note_on_c, 0, 80, 64
2, 19920, Note_on_c, 0, 80, 0
2, 19920, Note_on_c, 0, 79, 64
2, 20040, Note_on_c, 0, 79, 0
2, 20040, Note_on_c, 0, 77, 64
2, 20160, Note_on_c, 0, 77, 0
2, 20160, Note_on_c, 0, 82, 64
2, 20520, Note_on_c, 0, 82, 0
2, 20520, Note_on_c, 0, 72, 64
2, 20640, Note_on_c, 0, 72, 0
2, 20640, Note_on_c, 0, 75, 64
2, 20680, Note_on_c, 0, 75, 0
2, 20680, Note_on_c, 0, 74, 64
2, 20720, Note_on_c, 0, 74, 0
2, 20720, Note_on_c, 0, 75, 64
2, 20760, Note_on_c, 0, 75, 0
2, 20760, Note_on_c, 0, 74, 64
2, 20800, Note_on_c, 0, 74, 0
2, 20800, Note_on_c, 0, 75, 64
2, 20840, Note_on_c, 0, 75, 0
2, 20840, Note_on_c, 0, 74, 64
2, 20880, Note_on_c, 0, 74, 0
2, 20880, Note_on_c, 0, 75, 64
2, 20920, Note_on_c, 0, 75, 0
2, 20920, Note_on_c, 0, 74, 64
2, 20960, Note_on_c, 0, 74, 0
2, 20960, Note_on_c, 0, 75, 64
2, 21000, Note_on_c, 0, 75, 0
2, 21000, Note_on_c, 0, 74, 64
2, 21040, Note_on_c, 0, 74, 0
2, 21040, Note_on_c, 0, 75, 64
2, 21080, Note_on_c, 0, 75, 0
2, 21080, Note_on_c, 0, 74, 64
2, 21360, Note_on_c, 0, 74, 0
2, 21360, Note_on_c, 0, 75, 64
2, 21600, Note_on_c, 0, 75, 0
2, 21600, Note_on_c, 0, 75, 64
2, 23040, Note_on_c, 0, 75, 0
2, 25920, Note_on_c, 0, 72, 64
2, 26280, Note_on_c, 0, 72, 0
2, 26280, Note_on_c, 0, 80, 64
2, 26400, Note_on_c, 0, 80, 0
2, 26400, Note_on_c, 0, 77, 64
2, 26440, Note_on_c, 0, 77, 0
2, 26440, Note_on_c, 0, 76, 64
2, 26480, Note_on_c, 0, 76, 0
2, 26480, Note_on_c, 0, 77, 64
2, 26520, Note_on_c, 0, 77, 0
2, 26520, Note_on_c, 0, 76, 64
2, 26560, Note_on_c, 0, 76, 0
2, 26560, Note_on_c, 0, 77, 64
2, 26600, Note_on_c, 0, 77, 0
2, 26600, Note_on_c, 0, 76, 64
2, 26640, Note_on_c, 0, 76, 0
2, 26640, Note_on_c, 0, 77, 64
2, 26680, Note_on_c, 0, 77, 0
2, 26680, Note_on_c, 0, 76, 64
2, 26720, Note_on_c, 0, 76, 0
2, 26720, Note_on_c, 0, 77, 64
2, 26760, Note_on_c, 0, 77, 0
2, 26760, Note_on_c, 0, 76, 64
2, 26800, Note_on_c, 0, 76, 0
2, 26800, Note_on_c, 0, 77, 64
2, 26840, Note_on_c, 0, 77, 0
2, 26840, Note_on_c, 0, 76, 64
2, 27120, Note_on_c, 0, 76, 0
2, 27120, Note_on_c, 0, 77, 64
2, 27360, Note_on_c, 0, 77, 0
2, 27360, Note_on_c, 0, 77, 64
2, 28080, Note_on_c, 0, 77, 0
2, 28080, Note_on_c, 0, 75, 64
2, 28200, Note_on_c, 0, 75, 0
2, 28200, Note_on_c, 0, 74, 64
2, 28320, Note_on_c, 0, 74, 0
2, 28320, Note_on_c, 0, 79, 64
2, 28440, Note_on_c, 0, 79, 0
2, 28440, Note_on_c, 0, 77, 64
2, 28560, Note_on_c, 0, 77, 0
2, 28560, Note_on_c, 0, 75, 64
2, 28680, Note_on_c, 0, 75, 0
2, 28680, Note_on_c, 0, 74, 64
2, 28800, Note_on_c, 0, 74, 0
2, 28800, Note_on_c, 0, 75, 64
2, 29040, Note_on_c, 0, 75, 0
2, 29040, Note_on_c, 0, 77, 64
2, 29100, Note_on_c, 0, 77, 0
2, 29100, Note_on_c, 0, 75, 64
2, 29160, Note_on_c, 0, 75, 0
2, 29160, Note_on_c, 0, 74, 64
2, 29220, Note_on_c, 0, 74, 0
2, 29220, Note_on_c, 0, 75, 64
2, 29280, Note_on_c, 0, 75, 0
2, 29280, Note_on_c, 0, 77, 64
2, 29320, Note_on_c, 0, 77, 0
2, 29320, Note_on_c, 0, 75, 64
2, 29360, Note_on_c, 0, 75, 0
2, 29360, Note_on_c, 0, 77, 64
2, 29400, Note_on_c, 0, 77, 0
2, 29400, Note_on_c, 0, 75, 64
2, 29440, Note_on_c, 0, 75, 0
2, 29440, Note_on_c, 0, 77, 64
2, 29480, Note_on_c, 0, 77, 0
2, 29480, Note_on_c, 0, 75, 64
2, 29520, Note_on_c, 0, 75, 0
2, 29520, Note_on_c, 0, 77, 64
2, 29560, Note_on_c, 0, 77, 0
2, 29560, Note_on_c, 0, 75, 64
2, 29600, Note_on_c, 0, 75, 0
2, 29600, Note_on_c, 0, 77, 64
2, 29640, Note_on_c, 0, 77, 0
2, 29640, Note_on_c, 0, 75, 64
2, 29680, Note_on_c, 0, 75, 0
2, 29680, Note_on_c, 0, 77, 64
2, 29720, Note_on_c, 0, 77, 0
2, 29720, Note_on_c, 0, 75, 64
2, 30000, Note_on_c, 0, 75, 0
2, 30000, Note_on_c, 0, 74, 64
2, 30240, Note_on_c, 0, 74, 0
2, 30240, Note_on_c, 0, 74, 64
2, 30360, Note_on_c, 0, 74, 0
2, 30360, Note_on_c, 0, 66, 64
2, 30480, Note_on_c, 0, 66, 0
2, 30480, Note_on_c, 0, 67, 64
2, 30720, Note_on_c, 0, 67, 0
2, 30960, Note_on_c, 0, 71, 64
2, 31200, Note_on_c, 0, 71, 0
2, 31200, Note_on_c, 0, 72, 64
2, 31260, Note_on_c, 0, 72, 0
2, 31260, Note_on_c, 0, 71, 64
2, 31320, Note_on_c, 0, 71, 0
2, 31320, Note_on_c, 0, 72, 64
2, 31380, Note_on_c, 0, 72, 0
2, 31380, Note_on_c, 0, 71, 64
2, 31440, Note_on_c, 0, 71, 0
2, 31440, Note_on_c, 0, 72, 64
2, 31500, Note_on_c, 0, 72, 0
2, 31500, Note_on_c, 0, 71, 64
2, 31560, Note_on_c, 0, 71, 0
2, 31560, Note_on_c, 0, 69, 64
2, 31620, Note_on_c, 0, 69, 0
2, 31620, Note_on_c, 0, 71, 64
2, 31680, Note_on_c, 0, 71, 0
2, 31680, Note_on_c, 0, 72, 64
2, 31800, Note_on_c, 0, 72, 0
2, 31800, Note_on_c, 0, 62, 64
2, 31920, Note_on_c, 0, 62, 0
2, 31920, Note_on_c, 0, 63, 64
2, 32040, Note_on_c, 0, 63, 0
2, 32040, Note_on_c, 0, 67, 64
2, 32160, Note_on_c, 0, 67, 0
2, 32160, Note_on_c, 0, 72, 64
2, 32280, Note_on_c, 0, 72, 0
2, 32280, Note_on_c, 0, 75, 64
2, 32400, Note_on_c, 0, 75, 0
2, 32400, Note_on_c, 0, 75, 64
2, 32520, Note_on_c, 0, 75, 0
2, 32520, Note_on_c, 0, 74, 64
2, 32640, Note_on_c, 0, 74, 0
2, 32640, Note_on_c, 0, 74, 64
2, 32760, Note_on_c, 0, 74, 0
2, 32760, Note_on_c, 0, 72, 64
2, 32880, Note_on_c, 0, 72, 0
2, 32880, Note_on_c, 0, 72, 64
2, 33000, Note_on_c, 0, 72, 0
2, 33000, Note_on_c, 0, 71, 64
2, 33120, Note_on_c, 0, 71, 0
2, 33120, Note_on_c, 0, 71, 64
2, 34080, Note_on_c, 0, 71, 0
2, 34560, Note_on_c, 0, 72, 64
2, 34920, Note_on_c, 0, 72, 0
2, 34920, Note_on_c, 0, 82, 64
2, 35040, Note_on_c, 0, 82, 0
2, 35040, Note_on_c, 0, 80, 64
2, 35080, Note_on_c, 0, 80, 0
2, 35080, Note_on_c, 0, 79, 64
2, 35120, Note_on_c, 0, 79, 0
2, 35120, Note_on_c, 0, 80, 64
2, 35160, Note_on_c, 0, 80, 0
2, 35160, Note_on_c, 0, 79, 64
2, 35200, Note_on_c, 0, 79, 0
2, 35200, Note_on_c, 0, 80, 64
2, 35240, Note_on_c, 0, 80, 0
2, 35240, Note_on_c, 0, 79, 64
2, 35280, Note_on_c, 0, 79, 0
2, 35280, Note_on_c, 0, 80, 64
2, 35320, Note_on_c, 0, 80, 0
2, 35320, Note_on_c, 0, 79, 64
2, 35360, Note_on_c, 0, 79, 0
2, 35360, Note_on_c, 0, 80, 64
2, 35400, Note_on_c, 0, 80, 0
2, 35400, Note_on_c, 0, 79, 64
2, 35440, Note_on_c, 0, 79, 0
2, 35440, Note_on_c, 0, 80, 64
2, 35480, Note_on_c, 0, 80, 0
2, 35480, Note_on_c, 0, 79, 64
2, 35760, Note_on_c, 0, 79, 0
2, 35760, Note_on_c, 0, 80, 64
2, 36000, Note_on_c, 0, 80, 0
2, 36000, Note_on_c, 0, 80, 64
2, 37560, Note_on_c, 0, 80, 0
2, 37560, Note_on_c, 0, 70, 64
2, 37680, Note_on_c, 0, 70, 0
2, 37680, Note_on_c, 0, 74, 64
2, 37800, Note_on_c, 0, 74, 0
2, 37800, Note_on_c, 0, 77, 64
2, 37920, Note_on_c, 0, 77, 0
2, 37920, Note_on_c, 0, 80, 64
2, 38040, Note_on_c, 0, 80, 0
2, 38040, Note_on_c, 0, 84, 64
2, 38160, Note_on_c, 0, 84, 0
2, 38160, Note_on_c, 0, 84, 64
2, 38280, Note_on_c, 0, 84, 0
2, 38280, Note_on_c, 0, 82, 64
2, 38400, Note_on_c, 0, 82, 0
2, 38400, Note_on_c, 0, 82, 64
2, 38520, Note_on_c, 0, 82, 0
2, 38520, Note_on_c, 0, 80, 64
2, 38640, Note_on_c, 0, 80, 0
2, 38640, Note_on_c, 0, 80, 64
2, 38760, Note_on_c, 0, 80, 0
2, 38760, Note_on_c, 0, 79, 64
2, 38880, Note_on_c, 0, 79, 0
2, 38880, Note_on_c, 0, 79, 64
2, 40440, Note_on_c, 0, 79, 0
2, 40440, Note_on_c, 0, 84, 64
2, 40560, Note_on_c, 0, 84, 0
2, 40560, Note_on_c, 0, 76, 64
2, 40680, Note_on_c, 0, 76, 0
2, 40680, Note_on_c, 0, 77, 64
2, 40800, Note_on_c, 0, 77, 0
2, 40920, Note_on_c, 0, 80, 64
2, 41040, Note_on_c, 0, 80, 0
2, 41040, Note_on_c, 0, 71, 64
2, 41160, Note_on_c, 0, 71, 0
2, 41160, Note_on_c, 0, 72, 64
2, 41280, Note_on_c, 0, 72, 0
2, 41400, Note_on_c, 0, 77, 64
2, 41520, Note_on_c, 0, 77, 0
2, 41520, Note_on_c, 0, 67, 64
2, 41640, Note_on_c, 0, 67, 0
2, 41640, Note_on_c, 0, 68, 64
2, 41760, Note_on_c, 0, 68, 0
2, 41760, Note_on_c, 0, 68, 64
2, 42000, Note_on_c, 0, 68, 0
2, 42000, Note_on_c, 0, 74, 64
2, 42240, Note_on_c, 0, 74, 0
2, 42240, Note_on_c, 0, 77, 64
2, 42480, Note_on_c, 0, 77, 0
2, 42480, Note_on_c, 0, 80, 64
2, 42720, Note_on_c, 0, 80, 0
2, 42720, Note_on_c, 0, 84, 64
2, 42840, Note_on_c, 0, 84, 0
2, 42840, Note_on_c, 0, 80, 64
2, 42960, Note_on_c, 0, 80, 0
2, 42960, Note_on_c, 0, 79, 64
2, 43080, Note_on_c, 0, 79, 0
2, 43080, Note_on_c, 0, 77, 64
2, 43200, Note_on_c, 0, 77, 0
2, 43200, Note_on_c, 0, 82, 64
2, 43560, Note_on_c, 0, 82, 0
2, 43560, Note_on_c, 0, 72, 64
2, 43680, Note_on_c, 0, 72, 0
2, 43680, Note_on_c, 0, 75, 64
2, 43720, Note_on_c, 0, 75, 0
2, 43720, Note_on_c, 0, 74, 64
2, 43760, Note_on_c, 0, 74, 0
2, 43760, Note_on_c, 0, 75, 64
2, 43800, Note_on_c, 0, 75, 0
2, 43800, Note_on_c, 0, 74, 64
2, 43840, Note_on_c, 0, 74, 0
2, 43840, Note_on_c, 0, 75, 64
2, 43880, Note_on_c, 0, 75, 0
2, 43880, Note_on_c, 0, 74, 64
2, 43920, Note_on_c, 0, 74, 0
2, 43920, Note_on_c, 0, 75, 64
2, 43960, Note_on_c, 0, 75, 0
2, 43960, Note_on_c, 0, 74, 64
2, 44000, Note_on_c, 0, 74, 0
2, 44000, Note_on_c, 0, 75, 64
2, 44040, Note_on_c, 0, 75, 0
2, 44040, Note_on_c, 0, 74, 64
2, 44080, Note_on_c, 0, 74, 0
2, 44080, Note_on_c, 0, 75, 64
2, 44120, Note_on_c, 0, 75, 0
2, 44120, Note_on_c, 0, 74, 64
2, 44400, Note_on_c, 0, 74, 0
2, 44400, Note_on_c, 0, 75, 64
2, 44640, Note_on_c, 0, 75, 0
2, 44640, Note_on_c, 0, 75, 64
2, 46080, Note_on_c, 0, 75, 0
2, 46080, Note_on_c, 0, 79, 64
2, 46440, Note_on_c, 0, 79, 0
2, 46440, Note_on_c, 0, 70, 64
2, 46560, Note_on_c, 0, 70, 0
2, 46560, Note_on_c, 0, 72, 64
2, 46600, Note_on_c, 0, 72, 0
2, 46600, Note_on_c, 0, 73, 64
2, 46640, Note_on_c, 0, 73, 0
2, 46640, Note_on_c, 0, 75, 64
2, 46680, Note_on_c, 0, 75, 0
2, 46680, Note_on_c, 0, 73, 64
2, 46720, Note_on_c, 0, 73, 0
2, 46720, Note_on_c, 0, 75, 64
2, 46760, Note_on_c, 0, 75, 0
2, 46760, Note_on_c, 0, 73, 64
2, 46800, Note_on_c, 0, 73, 0
2, 46800, Note_on_c, 0, 75, 64
2, 46840, Note_on_c, 0, 75, 0
2, 46840, Note_on_c, 0, 73, 64
2, 46880, Note_on_c, 0, 73, 0
2, 46880, Note_on_c, 0, 75, 64
2, 46920, Note_on_c, 0, 75, 0
2, 46920, Note_on_c, 0, 73, 64
2, 46950, Note_on_c, 0, 73, 0
2, 46950, Note_on_c, 0, 75, 64
2, 46980, Note_on_c, 0, 75, 0
2, 46980, Note_on_c, 0, 73, 64
2, 47010, Note_on_c, 0, 73, 0
2, 47010, Note_on_c, 0, 75, 64
2, 47040, Note_on_c, 0, 75, 0
2, 47040, Note_on_c, 0, 73, 64
2, 47280, Note_on_c, 0, 73, 0
2, 47280, Note_on_c, 0, 72, 64
2, 47520, Note_on_c, 0, 72, 0
2, 47520, Note_on_c, 0, 72, 64
2, 47640, Note_on_c, 0, 72, 0
2, 47640, Note_on_c, 0, 62, 64
2, 47760, Note_on_c, 0, 62, 0
2, 47760, Note_on_c, 0, 63, 64
2, 47880, Note_on_c, 0, 63, 0
2, 47880, Note_on_c, 0, 67, 64
2, 48000, Note_on_c, 0, 67, 0
2, 48000, Note_on_c, 0, 68, 64
2, 48120, Note_on_c, 0, 68, 0
2, 48120, Note_on_c, 0, 72, 64
2, 48240, Note_on_c, 0, 72, 0
2, 48240, Note_on_c, 0, 75, 64
2, 48360, Note_on_c, 0, 75, 0
2, 48360, Note_on_c, 0, 74, 64
2, 48480, Note_on_c, 0, 74, 0
2, 48480, Note_on_c, 0, 75, 64
2, 49080, Note_on_c, 0, 75, 0
2, 49080, Note_on_c, 0, 84, 64
2, 49200, Note_on_c, 0, 84, 0
2, 49200, Note_on_c, 0, 74, 64
2, 49320, Note_on_c, 0, 74, 0
2, 49320, Note_on_c, 0, 75, 64
2, 49440, Note_on_c, 0, 75, 0
2, 49560, Note_on_c, 0, 79, 64
2, 49680, Note_on_c, 0, 79, 0
2, 49680, Note_on_c, 0, 69, 64
2, 49800, Note_on_c, 0, 69, 0
2, 49800, Note_on_c, 0, 70, 64
2, 49920, Note_on_c, 0, 70, 0
2, 50040, Note_on_c, 0, 75, 64
2, 50160, Note_on_c, 0, 75, 0
2, 50160, Note_on_c, 0, 65, 64
2, 50280, Note_on_c, 0, 65, 0
2, 50280, Note_on_c, 0, 66, 64
2, 50400, Note_on_c, 0, 66, 0
2, 50400, Note_on_c, 0, 65, 64
2, 50640, Note_on_c, 0, 65, 0
2, 50640, Note_on_c, 0, 75, 64
2, 50880, Note_on_c, 0, 75, 0
2, 50880, Note_on_c, 0, 74, 64
2, 51120, Note_on_c, 0, 74, 0
2, 51120, Note_on_c, 0, 80, 64
2, 51360, Note_on_c, 0, 80, 0
2, 51360, Note_on_c, 0, 71, 64
2, 51600, Note_on_c, 0, 71, 0
2, 51600, Note_on_c, 0, 72, 64
2, 51840, Note_on_c, 0, 72, 0
2, 51840, Note_on_c, 0, 71, 64
2, 52080, Note_on_c, 0, 71, 0
2, 52080, Note_on_c, 0, 67, 64
2, 52320, Note_on_c, 0, 67, 0
2, 52560, Note_on_c, 0, 77, 64
2, 52800, Note_on_c, 0, 77, 0
2, 52800, Note_on_c, 0, 75, 64
2, 52860, Note_on_c, 0, 75, 0
2, 52860, Note_on_c, 0, 74, 64
2, 52920, Note_on_c, 0, 74, 0
2, 52920, Note_on_c, 0, 75, 64
2, 52980, Note_on_c, 0, 75, 0
2, 52980, Note_on_c, 0, 74, 64
2, 53040, Note_on_c, 0, 74, 0
2, 53040, Note_on_c, 0, 75, 64
2, 53100, Note_on_c, 0, 75, 0
2, 53100, Note_on_c, 0, 74, 64
2, 53160, Note_on_c, 0, 74, 0
2, 53160, Note_on_c, 0, 72, 64
2, 53220, Note_on_c, 0, 72, 0
2, 53220, Note_on_c, 0, 74, 64
2, 53280, Note_on_c, 0, 74, 0
2, 53280, Note_on_c, 0, 75, 64
2, 54960, Note_on_c, 0, 75, 0
2, 54960, Note_on_c, 0, 74, 64
2, 55440, Note_on_c, 0, 74, 0
2, 55440, Note_on_c, 0, 72, 64
2, 55560, Note_on_c, 0, 72, 0
2, 55560, Note_on_c, 0, 70, 64
2, 55680, Note_on_c, 0, 70, 0
2, 55680, Note_on_c, 0, 69, 64
2, 55800, Note_on_c, 0, 69, 0
2, 55800, Note_on_c, 0, 67, 64
2, 55920, Note_on_c, 0, 67, 0
2, 55920, Note_on_c, 0, 66, 64
2, 56040, Note_on_c, 0, 66, 0
2, 56040, Note_on_c, 0, 67, 64
2, 56160, Note_on_c, 0, 67, 0
2, 56160, Note_on_c, 0, 66, 64
2, 56400, Note_on_c, 0, 66, 0
2, 56400, Note_on_c, 0, 75, 64
2, 56640, Note_on_c, 0, 75, 0
2, 56640, Note_on_c, 0, 74, 64
2, 56880, Note_on_c, 0, 74, 0
2, 56880, Note_on_c, 0, 78, 64
2, 57120, Note_on_c, 0, 78, 0
2, 57120, Note_on_c, 0, 79, 64
2, 57360, Note_on_c, 0, 79, 0
2, 57360, Note_on_c, 0, 81, 64
2, 57600, Note_on_c, 0, 81, 0
2, 57600, Note_on_c, 0, 72, 64
2, 57660, Note_on_c, 0, 72, 0
2, 57660, Note_on_c, 0, 70, 64
2, 57720, Note_on_c, 0, 70, 0
2, 57720, Note_on_c, 0, 69, 64
2, 57840, Note_on_c, 0, 69, 0
2, 57840, Note_on_c, 0, 67, 64
2, 58080, Note_on_c, 0, 67, 0
2, 59040, Note_on_c, 0, 79, 64
2, 59400, Note_on_c, 0, 79, 0
2, 59400, Note_on_c, 0, 67, 64
2, 59520, Note_on_c, 0, 67, 0
2, 59520, Note_on_c, 0, 69, 64
2, 59560, Note_on_c, 0, 69, 0
2, 59560, Note_on_c, 0, 70, 64
2, 59600, Note_on_c, 0, 70, 0
2, 59600, Note_on_c, 0, 72, 64
2, 59640, Note_on_c, 0, 72, 0
2, 59640, Note_on_c, 0, 70, 64
2, 59680, Note_on_c, 0, 70, 0
2, 59680, Note_on_c, 0, 72, 64
2, 59720, Note_on_c, 0, 72, 0
2, 59720, Note_on_c, 0, 70, 64
2, 59760, Note_on_c, 0, 70, 0
2, 59760, Note_on_c, 0, 72, 64
2, 59800, Note_on_c, 0, 72, 0
2, 59800, Note_on_c, 0, 70, 64
2, 59840, Note_on_c, 0, 70, 0
2, 59840, Note_on_c, 0, 72, 64
2, 59880, Note_on_c, 0, 72, 0
2, 59880, Note_on_c, 0, 70, 64
2, 59910, Note_on_c, 0, 70, 0
2, 59910, Note_on_c, 0, 72, 64
2, 59940, Note_on_c, 0, 72, 0
2, 59940, Note_on_c, 0, 70, 64
2, 59970, Note_on_c, 0, 70, 0
2, 59970, Note_on_c, 0, 72, 64
2, 60000, Note_on_c, 0, 72, 0
2, 60000, Note_on_c, 0, 70, 64
2, 60240, Note_on_c, 0, 70, 0
2, 60240, Note_on_c, 0, 69, 64
2, 60480, Note_on_c, 0, 69, 0
2, 60480, Note_on_c, 0, 69, 64
2, 60600, Note_on_c, 0, 69, 0
2, 60600, Note_on_c, 0, 70, 64
2, 60720, Note_on_c, 0, 70, 0
2, 60720, Note_on_c, 0, 69, 64
2, 60840, Note_on_c, 0, 69, 0
2, 60840, Note_on_c, 0, 67, 64
2, 60960, Note_on_c, 0, 67, 0
2, 60960, Note_on_c, 0, 67, 64
2, 61080, Note_on_c, 0, 67, 0
2, 61080, Note_on_c, 0, 69, 64
2, 61200, Note_on_c, 0, 69, 0
2, 61200, Note_on_c, 0, 67, 64
2, 61320, Note_on_c, 0, 67, 0
2, 61320, Note_on_c, 0, 66, 64
2, 61440, Note_on_c, 0, 66, 0
2, 61440, Note_on_c, 0, 66, 64
2, 61800, Note_on_c, 0, 66, 0
2, 61800, Note_on_c, 0, 78, 64
2, 61920, Note_on_c, 0, 78, 0
2, 61920, Note_on_c, 0, 79, 64
2, 62280, Note_on_c, 0, 79, 0
2, 62280, Note_on_c, 0, 67, 64
2, 62400, Note_on_c, 0, 67, 0
2, 62400, Note_on_c, 0, 70, 64
2, 62880, Note_on_c, 0, 70, 0
2, 62880, Note_on_c, 0, 70, 64
2, 62920, Note_on_c, 0, 70, 0
2, 62920, Note_on_c, 0, 69, 64
2, 62960, Note_on_c, 0, 69, 0
2, 62960, Note_on_c, 0, 70, 64
2, 63000, Note_on_c, 0, 70, 0
2, 63000, Note_on_c, 0, 69, 64
2, 63030, Note_on_c, 0, 69, 0
2, 63030, Note_on_c, 0, 70, 64
2, 63060, Note_on_c, 0, 70, 0
2, 63060, Note_on_c, 0, 69, 64
2, 63090, Note_on_c, 0, 69, 0
2, 63090, Note_on_c, 0, 70, 64
2, 63120, Note_on_c, 0, 70, 0
2, 63120, Note_on_c, 0, 69, 64
2, 63240, Note_on_c, 0, 69, 0
2, 63240, Note_on_c, 0, 67, 64
2, 63360, Note_on_c, 0, 67, 0
2, 63360, Note_on_c, 0, 67, 64
2, 63840, Note_on_c, 0, 67, 0
2, 63840, Note_on_c, 0, 74, 64
2, 64920, Note_on_c, 0, 74, 0
2, 64920, Note_on_c, 0, 67, 64
2, 65040, Note_on_c, 0, 67, 0
2, 65040, Note_on_c, 0, 77, 64
2, 65160, Note_on_c, 0, 77, 0
2, 65160, Note_on_c, 0, 75, 64
2, 65280, Note_on_c, 0, 75, 0
2, 65400, Note_on_c, 0, 71, 64
2, 65520, Note_on_c, 0, 71, 0
2, 65520, Note_on_c, 0, 80, 64
2, 65640, Note_on_c, 0, 80, 0
2, 65640, Note_on_c, 0, 79, 64
2, 65760, Note_on_c, 0, 79, 0
2, 65880, Note_on_c, 0, 74, 64
2, 66000, Note_on_c, 0, 74, 0
2, 66000, Note_on_c, 0, 84, 64
2, 66120, Note_on_c, 0, 84, 0
2, 66120, Note_on_c, 0, 83, 64
2, 66240, Note_on_c, 0, 83, 0
2, 66240, Note_on_c, 0, 84, 64
2, 66360, Note_on_c, 0, 84, 0
2, 66360, Note_on_c, 0, 87, 64
2, 66480, Note_on_c, 0, 87, 0
2, 66480, Note_on_c, 0, 78, 64
2, 66600, Note_on_c, 0, 78, 0
2, 66600, Note_on_c, 0, 79, 64
2, 66720, Note_on_c, 0, 79, 0
2, 66840, Note_on_c, 0, 84, 64
2, 66960, Note_on_c, 0, 84, 0
2, 66960, Note_on_c, 0, 74, 64
2, 67080, Note_on_c, 0, 74, 0
2, 67080, Note_on_c, 0, 75, 64
2, 67200, Note_on_c, 0, 75, 0
2, 67320, Note_on_c, 0, 79, 64
2, 67440, Note_on_c, 0, 79, 0
2, 67440, Note_on_c, 0, 71, 64
2, 67560, Note_on_c, 0, 71, 0
2, 67560, Note_on_c, 0, 72, 64
2, 67680, Note_on_c, 0, 72, 0
2, 67680, Note_on_c, 0, 72, 64
2, 67800, Note_on_c, 0, 72, 0
2, 67800, Note_on_c, 0, 82, 64
2, 67920, Note_on_c, 0, 82, 0
2, 67920, Note_on_c, 0, 76, 64
2, 68040, Note_on_c, 0, 76, 0
2, 68040, Note_on_c, 0, 77, 64
2, 68160, Note_on_c, 0, 77, 0
2, 68160, Note_on_c, 0, 85, 64
2, 68400, Note_on_c, 0, 85, 0
2, 68400, Note_on_c, 0, 82, 64
2, 68640, Note_on_c, 0, 82, 0
2, 68640, Note_on_c, 0, 76, 64
2, 68880, Note_on_c, 0, 76, 0
2, 68880, Note_on_c, 0, 70, 64
2, 69120, Note_on_c, 0, 70, 0
2, 69120, Note_on_c, 0, 68, 64
2, 69480, Note_on_c, 0, 68, 0
2, 69480, Note_on_c, 0, 80, 64
2, 69600, Note_on_c, 0, 80, 0
2, 69600, Note_on_c, 0, 77, 64
2, 69640, Note_on_c, 0, 77, 0
2, 69640, Note_on_c, 0, 76, 64
2, 69680, Note_on_c, 0, 76, 0
2, 69680, Note_on_c, 0, 77, 64
2, 69720, Note_on_c, 0, 77, 0
2, 69720, Note_on_c, 0, 76, 64
2, 69760, Note_on_c, 0, 76, 0
2, 69760, Note_on_c, 0, 77, 64
2, 69800, Note_on_c, 0, 77, 0
2, 69800, Note_on_c, 0, 76, 64
2, 69840, Note_on_c, 0, 76, 0
2, 69840, Note_on_c, 0, 77, 64
2, 69880, Note_on_c, 0, 77, 0
2, 69880, Note_on_c, 0, 76, 64
2, 69920, Note_on_c, 0, 76, 0
2, 69920, Note_on_c, 0, 77, 64
2, 69960, Note_on_c, 0, 77, 0
2, 69960, Note_on_c, 0, 76, 64
2, 70000, Note_on_c, 0, 76, 0
2, 70000, Note_on_c, 0, 77, 64
2, 70040, Note_on_c, 0, 77, 0
2, 70040, Note_on_c, 0, 76, 64
2, 70320, Note_on_c, 0, 76, 0
2, 70320, Note_on_c, 0, 77, 64
2, 70560, Note_on_c, 0, 77, 0
2, 70560, Note_on_c, 0, 77, 64
2, 71280, Note_on_c, 0, 77, 0
2, 71280, Note_on_c, 0, 75, 64
2, 71400, Note_on_c, 0, 75, 0
2, 71400, Note_on_c, 0, 74, 64
2, 71520, Note_on_c, 0, 74, 0
2, 71520, Note_on_c, 0, 79, 64
2, 71640, Note_on_c, 0, 79, 0
2, 71640, Note_on_c, 0, 77, 64
2, 71760, Note_on_c, 0, 77, 0
2, 71760, Note_on_c, 0, 75, 64
2, 71880, Note_on_c, 0, 75, 0
2, 71880, Note_on_c, 0, 74, 64
2, 72000, Note_on_c, 0, 74, 0
2, 72000, Note_on_c, 0, 75, 64
2, 72120, Note_on_c, 0, 75, 0
2, 72120, Note_on_c, 0, 74, 64
2, 72240, Note_on_c, 0, 74, 0
2, 72240, Note_on_c, 0, 75, 64
2, 72360, Note_on_c, 0, 75, 0
2, 72360, Note_on_c, 0, 79, 64
2, 72480, Note_on_c, 0, 79, 0
2, 72480, Note_on_c, 0, 77, 64
2, 72600, Note_on_c, 0, 77, 0
2, 72600, Note_on_c, 0, 80, 64
2, 72720, Note_on_c, 0, 80, 0
2, 72720, Note_on_c, 0, 80, 64
2, 72840, Note_on_c, 0, 80, 0
2, 72840, Note_on_c, 0, 79, 64
2, 72960, Note_on_c, 0, 79, 0
2, 72960, Note_on_c, 0, 79, 64
2, 73080, Note_on_c, 0, 79, 0
2, 73080, Note_on_c, 0, 77, 64
2, 73200, Note_on_c, 0, 77, 0
2, 73200, Note_on_c, 0, 77, 64
2, 73320, Note_on_c, 0, 77, 0
2, 73320, Note_on_c, 0, 79, 64
2, 73440, Note_on_c, 0, 79, 0
2, 73440, Note_on_c, 0, 79, 64
2, 73560, Note_on_c, 0, 79, 0
2, 73560, Note_on_c, 0, 78, 64
2, 73680, Note_on_c, 0, 78, 0
2, 73680, Note_on_c, 0, 79, 64
2, 73800, Note_on_c, 0, 79, 0
2, 73800, Note_on_c, 0, 84, 64
2, 73920, Note_on_c, 0, 84, 0
2, 73920, Note_on_c, 0, 77, 64
2, 73980, Note_on_c, 0, 77, 0
2, 73980, Note_on_c, 0, 75, 64
2, 74040, Note_on_c, 0, 75, 0
2, 74040, Note_on_c, 0, 77, 64
2, 74100, Note_on_c, 0, 77, 0
2, 74100, Note_on_c, 0, 75, 64
2, 74160, Note_on_c, 0, 75, 0
2, 74160, Note_on_c, 0, 77, 64
2, 74220, Note_on_c, 0, 77, 0
2, 74220, Note_on_c, 0, 75, 64
2, 74280, Note_on_c, 0, 75, 0
2, 74280, Note_on_c, 0, 77, 64
2, 74340, Note_on_c, 0, 77, 0
2, 74340, Note_on_c, 0, 75, 64
2, 74400, Note_on_c, 0, 75, 0
2, 74400, Note_on_c, 0, 77, 64
2, 74460, Note_on_c, 0, 77, 0
2, 74460, Note_on_c, 0, 75, 64
2, 74520, Note_on_c, 0, 75, 0
2, 74520, Note_on_c, 0, 77, 64
2, 74580, Note_on_c, 0, 77, 0
2, 74580, Note_on_c, 0, 75, 64
2, 74640, Note_on_c, 0, 75, 0
2, 74640, Note_on_c, 0, 77, 64
2, 74700, Note_on_c, 0, 77, 0
2, 74700, Note_on_c, 0, 75, 64
2, 74760, Note_on_c, 0, 75, 0
2, 74760, Note_on_c, 0, 74, 64
2, 74820, Note_on_c, 0, 74, 0
2, 74820, Note_on_c, 0, 75, 64
2, 74880, Note_on_c, 0, 75, 0
2, 74880, Note_on_c, 0, 74, 64
2, 75000, Note_on_c, 0, 74, 0
2, 75000, Note_on_c, 0, 67, 64
2, 75120, Note_on_c, 0, 67, 0
2, 75120, Note_on_c, 0, 71, 64
2, 75240, Note_on_c, 0, 71, 0
2, 75240, Note_on_c, 0, 74, 64
2, 75360, Note_on_c, 0, 74, 0
2, 75360, Note_on_c, 0, 77, 64
2, 75480, Note_on_c, 0, 77, 0
2, 75480, Note_on_c, 0, 80, 64
2, 75600, Note_on_c, 0, 80, 0
2, 75600, Note_on_c, 0, 79, 64
2, 75720, Note_on_c, 0, 79, 0
2, 75720, Note_on_c, 0, 77, 64
2, 75840, Note_on_c, 0, 77, 0
2, 75840, Note_on_c, 0, 86, 64
2, 75960, Note_on_c, 0, 86, 0
2, 75960, Note_on_c, 0, 80, 64
2, 76080, Note_on_c, 0, 80, 0
2, 76080, Note_on_c, 0, 79, 64
2, 76200, Note_on_c, 0, 79, 0
2, 76200, Note_on_c, 0, 77, 64
2, 76320, Note_on_c, 0, 77, 0
2, 76320, Note_on_c, 0, 75, 64
2, 76680, Note_on_c, 0, 75, 0
2, 76680, Note_on_c, 0, 82, 64
2, 76800, Note_on_c, 0, 82, 0
2, 76800, Note_on_c, 0, 77, 64
2, 77040, Note_on_c, 0, 77, 0
2, 77040, Note_on_c, 0, 76, 64
2, 77520, Note_on_c, 0, 76, 0
2, 77520, Note_on_c, 0, 79, 64
2, 77880, Note_on_c, 0, 79, 0
2, 77880, Note_on_c, 0, 65, 64
2, 78000, Note_on_c, 0, 65, 0
2, 78000, Note_on_c, 0, 68, 64
2, 78120, Note_on_c, 0, 68, 0
2, 78120, Note_on_c, 0, 72, 64
2, 78240, Note_on_c, 0, 72, 0
2, 78240, Note_on_c, 0, 75, 64
2, 78360, Note_on_c, 0, 75, 0
2, 78360, Note_on_c, 0, 79, 64
2, 78480, Note_on_c, 0, 79, 0
2, 78480, Note_on_c, 0, 77, 64
2, 78600, Note_on_c, 0, 77, 0
2, 78600, Note_on_c, 0, 75, 64
2, 78720, Note_on_c, 0, 75, 0
2, 78720, Note_on_c, 0, 84, 64
2, 78840, Note_on_c, 0, 84, 0
2, 78840, Note_on_c, 0, 79, 64
2, 78960, Note_on_c, 0, 79, 0
2, 78960, Note_on_c, 0, 77, 64
2, 79080, Note_on_c, 0, 77, 0
2, 79080, Note_on_c, 0, 75, 64
2, 79200, Note_on_c, 0, 75, 0
2, 79200, Note_on_c, 0, 74, 64
2, 79560, Note_on_c, 0, 74, 0
2, 79560, Note_on_c, 0, 80, 64
2, 79680, Note_on_c, 0, 80, 0
2, 79680, Note_on_c, 0, 75, 64
2, 79920, Note_on_c, 0, 75, 0
2, 79920, Note_on_c, 0, 74, 64
2, 81000, Note_on_c, 0, 74, 0
2, 81000, Note_on_c, 0, 77, 64
2, 81120, Note_on_c, 0, 77, 0
2, 81120, Note_on_c, 0, 72, 64
2, 81360, Note_on_c, 0, 72, 0
2, 81360, Note_on_c, 0, 71, 64
2, 81840, Note_on_c, 0, 71, 0
2, 81840, Note_on_c, 0, 80, 64
2, 82080, Note_on_c, 0, 80, 0
2, 82080, Note_on_c, 0, 79, 64
2, 82440, Note_on_c, 0, 79, 0
2, 82440, Note_on_c, 0, 72, 64
2, 82560, Note_on_c, 0, 72, 0
2, 82560, Note_on_c, 0, 72, 64
2, 83040, Note_on_c, 0, 72, 0
2, 83040, Note_on_c, 0, 72, 64
2, 83080, Note_on_c, 0, 72, 0
2, 83080, Note_on_c, 0, 71, 64
2, 83120, Note_on_c, 0, 71, 0
2, 83120, Note_on_c, 0, 72, 64
2, 83160, Note_on_c, 0, 72, 0
2, 83160, Note_on_c, 0, 71, 64
2, 83190, Note_on_c, 0, 71, 0
2, 83190, Note_on_c, 0, 72, 64
2, 83220, Note_on_c, 0, 72, 0
2, 83220, Note_on_c, 0, 71, 64
2, 83250, Note_on_c, 0, 71, 0
2, 83250, Note_on_c, 0, 72, 64
2, 83280, Note_on_c, 0, 72, 0
2, 83280, Note_on_c, 0, 71, 64
2, 83400, Note_on_c, 0, 71, 0
2, 83400, Note_on_c, 0, 72, 64
2, 83520, Note_on_c, 0, 72, 0
2, 83520, Note_on_c, 0, 72, 64
2, 84000, Note_on_c, 0, 72, 0
2, 84240, Note_on_c, 0, 72, 64
2, 84480, Note_on_c, 0, 72, 0
2, 84480, Note_on_c, 0, 73, 64
2, 84540, Note_on_c, 0, 73, 0
2, 84540, Note_on_c, 0, 72, 64
2, 84600, Note_on_c, 0, 72, 0
2, 84600, Note_on_c, 0, 73, 64
2, 84660, Note_on_c, 0, 73, 0
2, 84660, Note_on_c, 0, 72, 64
2, 84720, Note_on_c, 0, 72, 0
2, 84720, Note_on_c, 0, 73, 64
2, 84780, Note_on_c, 0, 73, 0
2, 84780, Note_on_c, 0, 72, 64
2, 84840, Note_on_c, 0, 72, 0
2, 84840, Note_on_c, 0, 70, 64
2, 84900, Note_on_c, 0, 70, 0
2, 84900, Note_on_c, 0, 72, 64
2, 84960, Note_on_c, 0, 72, 0
2, 84960, Note_on_c, 0, 73, 64
2, 85080, Note_on_c, 0, 73, 0
2, 85080, Note_on_c, 0, 70, 64
2, 85200, Note_on_c, 0, 70, 0
2, 85200, Note_on_c, 0, 76, 64
2, 85320, Note_on_c, 0, 76, 0
2, 85320, Note_on_c, 0, 79, 64
2, 85440, Note_on_c, 0, 79, 0
2, 85440, Note_on_c, 0, 82, 64
2, 85560, Note_on_c, 0, 82, 0
2, 85560, Note_on_c, 0, 85, 64
2, 85680, Note_on_c, 0, 85, 0
2, 85680, Note_on_c, 0, 85, 64
2, 85800, Note_on_c, 0, 85, 0
2, 85800, Note_on_c, 0, 84, 64
2, 85920, Note_on_c, 0, 84, 0
2, 85920, Note_on_c, 0, 84, 64
2, 86040, Note_on_c, 0, 84, 0
2, 86040, Note_on_c, 0, 82, 64
2, 86160, Note_on_c, 0, 82, 0
2, 86160, Note_on_c, 0, 82, 64
2, 86280, Note_on_c, 0, 82, 0
2, 86280, Note_on_c, 0, 80, 64
2, 86400, Note_on_c, 0, 80, 0
2, 86400, Note_on_c, 0, 80, 64
2, 86640, Note_on_c, 0, 80, 0
2, 86640, Note_on_c, 0, 68, 64
2, 86880, Note_on_c, 0, 68, 0
2, 86880, Note_on_c, 0, 73, 64
2, 87120, Note_on_c, 0, 73, 0
2, 87120, Note_on_c, 0, 77, 64
2, 87360, Note_on_c, 0, 77, 0
2, 87360, Note_on_c, 0, 80, 64
2, 87600, Note_on_c, 0, 80, 0
2, 87600, Note_on_c, 0, 85, 64
2, 87840, Note_on_c, 0, 85, 0
2, 87840, Note_on_c, 0, 83, 64
2, 87960, Note_on_c, 0, 83, 0
2, 87960, Note_on_c, 0, 67, 64
2, 88080, Note_on_c, 0, 67, 0
2, 88080, Note_on_c, 0, 75, 64
2, 88200, Note_on_c, 0, 75, 0
2, 88200, Note_on_c, 0, 74, 64
2, 88320, Note_on_c, 0, 74, 0
2, 88440, Note_on_c, 0, 71, 64
2, 88560, Note_on_c, 0, 71, 0
2, 88560, Note_on_c, 0, 80, 64
2, 88680, Note_on_c, 0, 80, 0
2, 88680, Note_on_c, 0, 79, 64
2, 88800, Note_on_c, 0, 79, 0
2, 88920, Note_on_c, 0, 74, 64
2, 89040, Note_on_c, 0, 74, 0
2, 89040, Note_on_c, 0, 84, 64
2, 89160, Note_on_c, 0, 84, 0
2, 89160, Note_on_c, 0, 83, 64
2, 89280, Note_on_c, 0, 83, 0
2, 89280, Note_on_c, 0, 84, 64
2, 89640, Note_on_c, 0, 84, 0
2, 89640, Note_on_c, 0, 77, 64
2, 89760, Note_on_c, 0, 77, 0
2, 89760, Note_on_c, 0, 75, 64
2, 89800, Note_on_c, 0, 75, 0
2, 89800, Note_on_c, 0, 74, 64
2, 89840, Note_on_c, 0, 74, 0
2, 89840, Note_on_c, 0, 75, 64
2, 89880, Note_on_c, 0, 75, 0
2, 89880, Note_on_c, 0, 74, 64
2, 89920, Note_on_c, 0, 74, 0
2, 89920, Note_on_c, 0, 75, 64
2, 89960, Note_on_c, 0, 75, 0
2, 89960, Note_on_c, 0, 74, 64
2, 90000, Note_on_c, 0, 74, 0
2, 90000, Note_on_c, 0, 75, 64
2, 90040, Note_on_c, 0, 75, 0
2, 90040, Note_on_c, 0, 74, 64
2, 90080, Note_on_c, 0, 74, 0
2, 90080, Note_on_c, 0, 75, 64
2, 90120, Note_on_c, 0, 75, 0
2, 90120, Note_on_c, 0, 74, 64
2, 90160, Note_on_c, 0, 74, 0
2, 90160, Note_on_c, 0, 75, 64
2, 90200, Note_on_c, 0, 75, 0
2, 90200, Note_on_c, 0, 74, 64
2, 90480, Note_on_c, 0, 74, 0
2, 90480, Note_on_c, 0, 72, 64
2, 90720, Note_on_c, 0, 72, 0
2, 90720, Note_on_c, 0, 72, 64
2, 92160, Note_on_c, 0, 72, 0
2, 92160, Note_on_c, 0, 79, 64
2, 92520, Note_on_c, 0, 79, 0
2, 92520, Note_on_c, 0, 70, 64
2, 92640, Note_on_c, 0, 70, 0
2, 92640, Note_on_c, 0, 72, 64
2, 92680, Note_on_c, 0, 72, 0
2, 92680, Note_on_c, 0, 73, 64
2, 92720, Note_on_c, 0, 73, 0
2, 92720, Note_on_c, 0, 75, 64
2, 92760, Note_on_c, 0, 75, 0
2, 92760, Note_on_c, 0, 73, 64
2, 92800, Note_on_c, 0, 73, 0
2, 92800, Note_on_c, 0, 75, 64
2, 92840, Note_on_c, 0, 75, 0
2, 92840, Note_on_c, 0, 73, 64
2, 92880, Note_on_c, 0, 73, 0
2, 92880, Note_on_c, 0, 75, 64
2, 92920, Note_on_c, 0, 75, 0
2, 92920, Note_on_c, 0, 73, 64
2, 92960, Note_on_c, 0, 73, 0
2, 92960, Note_on_c, 0, 75, 64
2, 93000, Note_on_c, 0, 75, 0
2, 93000, Note_on_c, 0, 73, 64
2, 93030, Note_on_c, 0, 73, 0
2, 93030, Note_on_c, 0, 75, 64
2, 93060, Note_on_c, 0, 75, 0
2, 93060, Note_on_c, 0, 73, 64
2, 93090, Note_on_c, 0, 73, 0
2, 93090, Note_on_c, 0, 75, 64
2, 93120, Note_on_c, 0, 75, 0
2, 93120, Note_on_c, 0, 73, 64
2, 93360, Note_on_c, 0, 73, 0
2, 93360, Note_on_c, 0, 72, 64
2, 93600, Note_on_c, 0, 72, 0
2, 93600, Note_on_c, 0, 72, 64
2, 93720, Note_on_c, 0, 72, 0
2, 93720, Note_on_c, 0, 62, 64
2, 93840, Note_on_c, 0, 62, 0
2, 93840, Note_on_c, 0, 63, 64
2, 93960, Note_on_c, 0, 63, 0
2, 93960, Note_on_c, 0, 67, 64
2, 94080, Note_on_c, 0, 67, 0
2, 94080, Note_on_c, 0, 68, 64
2, 94200, Note_on_c, 0, 68, 0
2, 94200, Note_on_c, 0, 72, 64
2, 94320, Note_on_c, 0, 72, 0
2, 94320, Note_on_c, 0, 75, 64
2, 94440, Note_on_c, 0, 75, 0
2, 94440, Note_on_c, 0, 74, 64
2, 94560, Note_on_c, 0, 74, 0
2, 94560, Note_on_c, 0, 75, 64
2, 95160, Note_on_c, 0, 75, 0
2, 95160, Note_on_c, 0, 84, 64
2, 95280, Note_on_c, 0, 84, 0
2, 95280, Note_on_c, 0, 74, 64
2, 95400, Note_on_c, 0, 74, 0
2, 95400, Note_on_c, 0, 75, 64
2, 95520, Note_on_c, 0, 75, 0
2, 95640, Note_on_c, 0, 79, 64
2, 95760, Note_on_c, 0, 79, 0
2, 95760, Note_on_c, 0, 69, 64
2, 95880, Note_on_c, 0, 69, 0
2, 95880, Note_on_c, 0, 70, 64
2, 96000, Note_on_c, 0, 70, 0
2, 96120, Note_on_c, 0, 75, 64
2, 96240, Note_on_c, 0, 75, 0
2, 96240, Note_on_c, 0, 65, 64
2, 96360, Note_on_c, 0, 65, 0
2, 96360, Note_on_c, 0, 66, 64
2, 96480, Note_on_c, 0, 66, 0
2, 96480, Note_on_c, 0, 65, 64
2, 96720, Note_on_c, 0, 65, 0
2, 96720, Note_on_c, 0, 75, 64
2, 96960, Note_on_c, 0, 75, 0
2, 96960, Note_on_c, 0, 74, 64
2, 97200, Note_on_c, 0, 74, 0
2, 97200, Note_on_c, 0, 80, 64
2, 97440, Note_on_c, 0, 80, 0
2, 97440, Note_on_c, 0, 71, 64
2, 97680, Note_on_c, 0, 71, 0
2, 97680, Note_on_c, 0, 72, 64
2, 97920, Note_on_c, 0, 72, 0
2, 97920, Note_on_c, 0, 71, 64
2, 98160, Note_on_c, 0, 71, 0
2, 98160, Note_on_c, 0, 67, 64
2, 98400, Note_on_c, 0, 67, 0
2, 98640, Note_on_c, 0, 77, 64
2, 98880, Note_on_c, 0, 77, 0
2, 98880, Note_on_c, 0, 75, 64
2, 98940, Note_on_c, 0, 75, 0
2, 98940, Note_on_c, 0, 74, 64
2, 99000, Note_on_c, 0, 74, 0
2, 99000, Note_on_c, 0, 75, 64
2, 99060, Note_on_c, 0, 75, 0
2, 99060, Note_on_c, 0, 74, 64
2, 99120, Note_on_c, 0, 74, 0
2, 99120, Note_on_c, 0, 75, 64
2, 99180, Note_on_c, 0, 75, 0
2, 99180, Note_on_c, 0, 74, 64
2, 99240, Note_on_c, 0, 74, 0
2, 99240, Note_on_c, 0, 72, 64
2, 99300, Note_on_c, 0, 72, 0
2, 99300, Note_on_c, 0, 74, 64
2, 99360, Note_on_c, 0, 74, 0
2, 99360, Note_on_c, 0, 75, 64
2, 101040, Note_on_c, 0, 75, 0
2, 101040, Note_on_c, 0, 74, 64
2, 101520, Note_on_c, 0, 74, 0
2, 101520, Note_on_c, 0, 72, 64
2, 101640, Note_on_c, 0, 72, 0
2, 101640, Note_on_c, 0, 70, 64
2, 101760, Note_on_c, 0, 70, 0
2, 101760, Note_on_c, 0, 69, 64
2, 101880, Note_on_c, 0, 69, 0
2, 101880, Note_on_c, 0, 67, 64
2, 102000, Note_on_c, 0, 67, 0
2, 102000, Note_on_c, 0, 66, 64
2, 102120, Note_on_c, 0, 66, 0
2, 102120, Note_on_c, 0, 67, 64
2, 102240, Note_on_c, 0, 67, 0
2, 102240, Note_on_c, 0, 66, 64
2, 102480, Note_on_c, 0, 66, 0
2, 102480, Note_on_c, 0, 75, 64
2, 102720, Note_on_c, 0, 75, 0
2, 102720, Note_on_c, 0, 74, 64
2, 102960, Note_on_c, 0, 74, 0
2, 102960, Note_on_c, 0, 78, 64
2, 103200, Note_on_c, 0, 78, 0
2, 103200, Note_on_c, 0, 79, 64
2, 103440, Note_on_c, 0, 79, 0
2, 103440, Note_on_c, 0, 81, 64
2, 103680, Note_on_c, 0, 81, 0
2, 103680, Note_on_c, 0, 72, 64
2, 103740, Note_on_c, 0, 72, 0
2, 103740, Note_on_c, 0, 70, 64
2, 103800, Note_on_c, 0, 70, 0
2, 103800, Note_on_c, 0, 69, 64
2, 103920, Note_on_c, 0, 69, 0
2, 103920, Note_on_c, 0, 67, 64
2, 104160, Note_on_c, 0, 67, 0
2, 105120, Note_on_c, 0, 79, 64
2, 105480, Note_on_c, 0, 79, 0
2, 105480, Note_on_c, 0, 67, 64
2, 105600, Note_on_c, 0, 67, 0
2, 105600, Note_on_c, 0, 69, 64
2, 105640, Note_on_c, 0, 69, 0
2, 105640, Note_on_c, 0, 70, 64
2, 105680, Note_on_c, 0, 70, 0
2, 105680, Note_on_c, 0, 72, 64
2, 105720, Note_on_c, 0, 72, 0
2, 105720, Note_on_c, 0, 70, 64
2, 105760, Note_on_c, 0, 70, 0
2, 105760, Note_on_c, 0, 72, 64
2, 105800, Note_on_c, 0, 72, 0
2, 105800, Note_on_c, 0, 70, 64
2, 105840, Note_on_c, 0, 70, 0
2, 105840, Note_on_c, 0, 72, 64
2, 105880, Note_on_c, 0, 72, 0
2, 105880, Note_on_c, 0, 70, 64
2, 105920, Note_on_c, 0, 70, 0
2, 105920, Note_on_c, 0, 72, 64
2, 105960, Note_on_c, 0, 72, 0
2, 105960, Note_on_c, 0, 70, 64
2, 105990, Note_on_c, 0, 70, 0
2, 105990, Note_on_c, 0, 72, 64
2, 106020, Note_on_c, 0, 72, 0
2, 106020, Note_on_c, 0, 70, 64
2, 106050, Note_on_c, 0, 70, 0
2, 106050, Note_on_c, 0, 72, 64
2, 106080, Note_on_c, 0, 72, 0
2, 106080, Note_on_c, 0, 70, 64
2, 106320, Note_on_c, 0, 70, 0
2, 106320, Note_on_c, 0, 69, 64
2, 106560, Note_on_c, 0, 69, 0
2, 106560, Note_on_c, 0, 69, 64
2, 106680, Note_on_c, 0, 69, 0
2, 106680, Note_on_c, 0, 70, 64
2, 106800, Note_on_c, 0, 70, 0
2, 106800, Note_on_c, 0, 69, 64
2, 106920, Note_on_c, 0, 69, 0
2, 106920, Note_on_c, 0, 67, 64
2, 107040, Note_on_c, 0, 67, 0
2, 107040, Note_on_c, 0, 67, 64
2, 107160, Note_on_c, 0, 67, 0
2, 107160, Note_on_c, 0, 69, 64
2, 107280, Note_on_c, 0, 69, 0
2, 107280, Note_on_c, 0, 67, 64
2, 107400, Note_on_c, 0, 67, 0
2, 107400, Note_on_c, 0, 66, 64
2, 107520, Note_on_c, 0, 66, 0
2, 107520, Note_on_c, 0, 66, 64
2, 107880, Note_on_c, 0, 66, 0
2, 107880, Note_on_c, 0, 78, 64
2, 108000, Note_on_c, 0, 78, 0
2, 108000, Note_on_c, 0, 79, 64
2, 108360, Note_on_c, 0, 79, 0
2, 108360, Note_on_c, 0, 67, 64
2, 108480, Note_on_c, 0, 67, 0
2, 108480, Note_on_c, 0, 70, 64
2, 108960, Note_on_c, 0, 70, 0
2, 108960, Note_on_c, 0, 70, 64
2, 109000, Note_on_c, 0, 70, 0
2, 109000, Note_on_c, 0, 69, 64
2, 109040, Note_on_c, 0, 69, 0
2, 109040, Note_on_c, 0, 70, 64
2, 109080, Note_on_c, 0, 70, 0
2, 109080, Note_on_c, 0, 69, 64
2, 109110, Note_on_c, 0, 69, 0
2, 109110, Note_on_c, 0, 70, 64
2, 109140, Note_on_c, 0, 70, 0
2, 109140, Note_on_c, 0, 69, 64
2, 109170, Note_on_c, 0, 69, 0
2, 109170, Note_on_c, 0, 70, 64
2, 109200, Note_on_c, 0, 70, 0
2, 109200, Note_on_c, 0, 69, 64
2, 109320, Note_on_c, 0, 69, 0
2, 109320, Note_on_c, 0, 67, 64
2, 109440, Note_on_c, 0, 67, 0
2, 109440, Note_on_c, 0, 67, 64
2, 109920, Note_on_c, 0, 67, 0
2, 109920, Note_on_c, 0, 74, 64
2, 111000, Note_on_c, 0, 74, 0
2, 111000, Note_on_c, 0, 67, 64
2, 111120, Note_on_c, 0, 67, 0
2, 111120, Note_on_c, 0, 77, 64
2, 111240, Note_on_c, 0, 77, 0
2, 111240, Note_on_c, 0, 75, 64
2, 111360, Note_on_c, 0, 75, 0
2, 111480, Note_on_c, 0, 71, 64
2, 111600, Note_on_c, 0, 71, 0
2, 111600, Note_on_c, 0, 80, 64
2, 111720, Note_on_c, 0, 80, 0
2, 111720, Note_on_c, 0, 79, 64
2, 111840, Note_on_c, 0, 79, 0
2, 111960, Note_on_c, 0, 74, 64
2, 112080, Note_on_c, 0, 74, 0
2, 112080, Note_on_c, 0, 84, 64
2, 112200, Note_on_c, 0, 84, 0
2, 112200, Note_on_c, 0, 83, 64
2, 112320, Note_on_c, 0, 83, 0
2, 112320, Note_on_c, 0, 84, 64
2, 112440, Note_on_c, 0, 84, 0
2, 112440, Note_on_c, 0, 87, 64
2, 112560, Note_on_c, 0, 87, 0
2, 112560, Note_on_c, 0, 78, 64
2, 112680, Note_on_c, 0, 78, 0
2, 112680, Note_on_c, 0, 79, 64
2, 112800, Note_on_c, 0, 79, 0
2, 112920, Note_on_c, 0, 84, 64
2, 113040, Note_on_c, 0, 84, 0
2, 113040, Note_on_c, 0, 74, 64
2, 113160, Note_on_c, 0, 74, 0
2, 113160, Note_on_c, 0, 75, 64
2, 113280, Note_on_c, 0, 75, 0
2, 113400, Note_on_c, 0, 79, 64
2, 113520, Note_on_c, 0, 79, 0
2, 113520, Note_on_c, 0, 71, 64
2, 113640, Note_on_c, 0, 71, 0
2, 113640, Note_on_c, 0, 72, 64
2, 113760, Note_on_c, 0, 72, 0
2, 113760, Note_on_c, 0, 72, 64
2, 113880, Note_on_c, 0, 72, 0
2, 113880, Note_on_c, 0, 82, 64
2, 114000, Note_on_c, 0, 82, 0
2, 114000, Note_on_c, 0, 76, 64
2, 114120, Note_on_c, 0, 76, 0
2, 114120, Note_on_c, 0, 77, 64
2, 114240, Note_on_c, 0, 77, 0
2, 114240, Note_on_c, 0, 85, 64
2, 114480, Note_on_c, 0, 85, 0
2, 114480, Note_on_c, 0, 82, 64
2, 114720, Note_on_c, 0, 82, 0
2, 114720, Note_on_c, 0, 76, 64
2, 114960, Note_on_c, 0, 76, 0
2, 114960, Note_on_c, 0, 70, 64
2, 115200, Note_on_c, 0, 70, 0
2, 115200, Note_on_c, 0, 68, 64
2, 115560, Note_on_c, 0, 68, 0
2, 115560, Note_on_c, 0, 80, 64
2, 115680, Note_on_c, 0, 80, 0
2, 115680, Note_on_c, 0, 77, 64
2, 115720, Note_on_c, 0, 77, 0
2, 115720, Note_on_c, 0, 76, 64
2, 115760, Note_on_c, 0, 76, 0
2, 115760, Note_on_c, 0, 77, 64
2, 115800, Note_on_c, 0, 77, 0
2, 115800, Note_on_c, 0, 76, 64
2, 115840, Note_on_c, 0, 76, 0
2, 115840, Note_on_c, 0, 77, 64
2, 115880, Note_on_c, 0, 77, 0
2, 115880, Note_on_c, 0, 76, 64
2, 115920, Note_on_c, 0, 76, 0
2, 115920, Note_on_c, 0, 77, 64
2, 115960, Note_on_c, 0, 77, 0
2, 115960, Note_on_c, 0, 76, 64
2, 116000, Note_on_c, 0, 76, 0
2, 116000, Note_on_c, 0, 77, 64
2, 116040, Note_on_c, 0, 77, 0
2, 116040, Note_on_c, 0, 76, 64
2, 116080, Note_on_c, 0, 76, 0
2, 116080, Note_on_c, 0, 77, 64
2, 116120, Note_on_c, 0, 77, 0
2, 116120, Note_on_c, 0, 76, 64
2, 116400, Note_on_c, 0, 76, 0
2, 116400, Note_on_c, 0, 77, 64
2, 116640, Note_on_c, 0, 77, 0
2, 116640, Note_on_c, 0, 77, 64
2, 117360, Note_on_c, 0, 77, 0
2, 117360, Note_on_c, 0, 75, 64
2, 117480, Note_on_c, 0, 75, 0
2, 117480, Note_on_c, 0, 74, 64
2, 117600, Note_on_c, 0, 74, 0
2, 117600, Note_on_c, 0, 79, 64
2, 117720, Note_on_c, 0, 79, 0
2, 117720, Note_on_c, 0, 77, 64
2, 117840, Note_on_c, 0, 77, 0
2, 117840, Note_on_c, 0, 75, 64
2, 117960, Note_on_c, 0, 75, 0
2, 117960, Note_on_c, 0, 74, 64
2, 118080, Note_on_c, 0, 74, 0
2, 118080, Note_on_c, 0, 75, 64
2, 118200, Note_on_c, 0, 75, 0
2, 118200, Note_on_c, 0, 74, 64
2, 118320, Note_on_c, 0, 74, 0
2, 118320, Note_on_c, 0, 75, 64
2, 118440, Note_on_c, 0, 75, 0
2, 118440, Note_on_c, 0, 79, 64
2, 118560, Note_on_c, 0, 79, 0
2, 118560, Note_on_c, 0, 77, 64
2, 118680, Note_on_c, 0, 77, 0
2, 118680, Note_on_c, 0, 80, 64
2, 118800, Note_on_c, 0, 80, 0
2, 118800, Note_on_c, 0, 80, 64
2, 118920, Note_on_c, 0, 80, 0
2, 118920, Note_on_c, 0, 79, 64
2, 119040, Note_on_c, 0, 79, 0
2, 119040, Note_on_c, 0, 79, 64
2, 119160, Note_on_c, 0, 79, 0
2, 119160, Note_on_c, 0, 77, 64
2, 119280, Note_on_c, 0, 77, 0
2, 119280, Note_on_c, 0, 77, 64
2, 119400, Note_on_c, 0, 77, 0
2, 119400, Note_on_c, 0, 79, 64
2, 119520, Note_on_c, 0, 79, 0
2, 119520, Note_on_c, 0, 79, 64
2, 119640, Note_on_c, 0, 79, 0
2, 119640, Note_on_c, 0, 78, 64
2, 119760, Note_on_c, 0, 78, 0
2, 119760, Note_on_c, 0, 79, 64
2, 119880, Note_on_c, 0, 79, 0
2, 119880, Note_on_c, 0, 84, 64
2, 120000, Note_on_c, 0, 84, 0
2, 120000, Note_on_c, 0, 77, 64
2, 120060, Note_on_c, 0, 77, 0
2, 120060, Note_on_c, 0, 75, 64
2, 120120, Note_on_c, 0, 75, 0
2, 120120, Note_on_c, 0, 77, 64
2, 120180, Note_on_c, 0, 77, 0
2, 120180, Note_on_c, 0, 75, 64
2, 120240, Note_on_c, 0, 75, 0
2, 120240, Note_on_c, 0, 77, 64
2, 120300, Note_on_c, 0, 77, 0
2, 120300, Note_on_c, 0, 75, 64
2, 120360, Note_on_c, 0, 75, 0
2, 120360, Note_on_c, 0, 77, 64
2, 120420, Note_on_c, 0, 77, 0
2, 120420, Note_on_c, 0, 75, 64
2, 120480, Note_on_c, 0, 75, 0
2, 120480, Note_on_c, 0, 77, 64
2, 120540, Note_on_c, 0, 77, 0
2, 120540, Note_on_c, 0, 75, 64
2, 120600, Note_on_c, 0, 75, 0
2, 120600, Note_on_c, 0, 77, 64
2, 120660, Note_on_c, 0, 77, 0
2, 120660, Note_on_c, 0, 75, 64
2, 120720, Note_on_c, 0, 75, 0
2, 120720, Note_on_c, 0, 77, 64
2, 120780, Note_on_c, 0, 77, 0
2, 120780, Note_on_c, 0, 75, 64
2, 120840, Note_on_c, 0, 75, 0
2, 120840, Note_on_c, 0, 74, 64
2, 120900, Note_on_c, 0, 74, 0
2, 120900, Note_on_c, 0, 75, 64
2, 120960, Note_on_c, 0, 75, 0
2, 120960, Note_on_c, 0, 74, 64
2, 121080, Note_on_c, 0, 74, 0
2, 121080, Note_on_c, 0, 67, 64
2, 121200, Note_on_c, 0, 67, 0
2, 121200, Note_on_c, 0, 71, 64
2, 121320, Note_on_c, 0, 71, 0
2, 121320, Note_on_c, 0, 74, 64
2, 121440, Note_on_c, 0, 74, 0
2, 121440, Note_on_c, 0, 77, 64
2, 121560, Note_on_c, 0, 77, 0
2, 121560, Note_on_c, 0, 80, 64
2, 121680, Note_on_c, 0, 80, 0
2, 121680, Note_on_c, 0, 79, 64
2, 121800, Note_on_c, 0, 79, 0
2, 121800, Note_on_c, 0, 77, 64
2, 121920, Note_on_c, 0, 77, 0
2, 121920, Note_on_c, 0, 86, 64
2, 122040, Note_on_c, 0, 86, 0
2, 122040, Note_on_c, 0, 80, 64
2, 122160, Note_on_c, 0, 80, 0
2, 122160, Note_on_c, 0, 79, 64
2, 122280, Note_on_c, 0, 79, 0
2, 122280, Note_on_c, 0, 77, 64
2, 122400, Note_on_c, 0, 77, 0
2, 122400, Note_on_c, 0, 75, 64
2, 122760, Note_on_c, 0, 75, 0
2, 122760, Note_on_c, 0, 82, 64
2, 122880, Note_on_c, 0, 82, 0
2, 122880, Note_on_c, 0, 77, 64
2, 123120, Note_on_c, 0, 77, 0
2, 123120, Note_on_c, 0, 76, 64
2, 123600, Note_on_c, 0, 76, 0
2, 123600, Note_on_c, 0, 79, 64
2, 123960, Note_on_c, 0, 79, 0
2, 123960, Note_on_c, 0, 65, 64
2, 124080, Note_on_c, 0, 65, 0
2, 124080, Note_on_c, 0, 68, 64
2, 124200, Note_on_c, 0, 68, 0
2, 124200, Note_on_c, 0, 72, 64
2, 124320, Note_on_c, 0, 72, 0
2, 124320, Note_on_c, 0, 75, 64
2, 124440, Note_on_c, 0, 75, 0
2, 124440, Note_on_c, 0, 79, 64
2, 124560, Note_on_c, 0, 79, 0
2, 124560, Note_on_c, 0, 77, 64
2, 124680, Note_on_c, 0, 77, 0
2, 124680, Note_on_c, 0, 75, 64
2, 124800, Note_on_c, 0, 75, 0
2, 124800, Note_on_c, 0, 84, 64
2, 124920, Note_on_c, 0, 84, 0
2, 124920, Note_on_c, 0, 79, 64
2, 125040, Note_on_c, 0, 79, 0
2, 125040, Note_on_c, 0, 77, 64
2, 125160, Note_on_c, 0, 77, 0
2, 125160, Note_on_c, 0, 75, 64
2, 125280, Note_on_c, 0, 75, 0
2, 125280, Note_on_c, 0, 74, 64
2, 125640, Note_on_c, 0, 74, 0
2, 125640, Note_on_c, 0, 80, 64
2, 125760, Note_on_c, 0, 80, 0
2, 125760, Note_on_c, 0, 75, 64
2, 126000, Note_on_c, 0, 75, 0
2, 126000, Note_on_c, 0, 74, 64
2, 127080, Note_on_c, 0, 74, 0
2, 127080, Note_on_c, 0, 77, 64
2, 127200, Note_on_c, 0, 77, 0
2, 127200, Note_on_c, 0, 72, 64
2, 127440, Note_on_c, 0, 72, 0
2, 127440, Note_on_c, 0, 71, 64
2, 127920, Note_on_c, 0, 71, 0
2, 127920, Note_on_c, 0, 80, 64
2, 128160, Note_on_c, 0, 80, 0
2, 128160, Note_on_c, 0, 79, 64
2, 128520, Note_on_c, 0, 79, 0
2, 128520, Note_on_c, 0, 72, 64
2, 128640, Note_on_c, 0, 72, 0
2, 128640, Note_on_c, 0, 72, 64
2, 129120, Note_on_c, 0, 72, 0
2, 129120, Note_on_c, 0, 72, 64
2, 129160, Note_on_c, 0, 72, 0
2, 129160, Note_on_c, 0, 71, 64
2, 129200, Note_on_c, 0, 71, 0
2, 129200, Note_on_c, 0, 72, 64
2, 129240, Note_on_c, 0, 72, 0
2, 129240, Note_on_c, 0, 71, 64
2, 129270, Note_on_c, 0, 71, 0
2, 129270, Note_on_c, 0, 72, 64
2, 129300, Note_on_c, 0, 72, 0
2, 129300, Note_on_c, 0, 71, 64
2, 129330, Note_on_c, 0, 71, 0
2, 129330, Note_on_c, 0, 72, 64
2, 129360, Note_on_c, 0, 72, 0
2, 129360, Note_on_c, 0, 71, 64
2, 129480, Note_on_c, 0, 71, 0
2, 129480, Note_on_c, 0, 72, 64
2, 129600, Note_on_c, 0, 72, 0
2, 129600, Note_on_c, 0, 72, 64
2, 130080, Note_on_c, 0, 72, 0
2, 130320, Note_on_c, 0, 72, 64
2, 130560, Note_on_c, 0, 72, 0
2, 130560, Note_on_c, 0, 73, 64
2, 130620, Note_on_c, 0, 73, 0
2, 130620, Note_on_c, 0, 72, 64
2, 130680, Note_on_c, 0, 72, 0
2, 130680, Note_on_c, 0, 73, 64
2, 130740, Note_on_c, 0, 73, 0
2, 130740, Note_on_c, 0, 72, 64
2, 130800, Note_on_c, 0, 72, 0
2, 130800, Note_on_c, 0, 73, 64
2, 130860, Note_on_c, 0, 73, 0
2, 130860, Note_on_c, 0, 72, 64
2, 130920, Note_on_c, 0, 72, 0
2, 130920, Note_on_c, 0, 70, 64
2, 130980, Note_on_c, 0, 70, 0
2, 130980, Note_on_c, 0, 72, 64
2, 131040, Note_on_c, 0, 72, 0
2, 131040, Note_on_c, 0, 73, 64
2, 131160, Note_on_c, 0, 73, 0
2, 131160, Note_on_c, 0, 70, 64
2, 131280, Note_on_c, 0, 70, 0
2, 131280, Note_on_c, 0, 76, 64
2, 131400, Note_on_c, 0, 76, 0
2, 131400, Note_on_c, 0, 79, 64
2, 131520, Note_on_c, 0, 79, 0
2, 131520, Note_on_c, 0, 82, 64
2, 131640, Note_on_c, 0, 82, 0
2, 131640, Note_on_c, 0, 85, 64
2, 131760, Note_on_c, 0, 85, 0
2, 131760, Note_on_c, 0, 85, 64
2, 131880, Note_on_c, 0, 85, 0
2, 131880, Note_on_c, 0, 84, 64
2, 132000, Note_on_c, 0, 84, 0
2, 132000, Note_on_c, 0, 84, 64
2, 132120, Note_on_c, 0, 84, 0
2, 132120, Note_on_c, 0, 82, 64
2, 132240, Note_on_c, 0, 82, 0
2, 132240, Note_on_c, 0, 82, 64
2, 132360, Note_on_c, 0, 82, 0
2, 132360, Note_on_c, 0, 80, 64
2, 132480, Note_on_c, 0, 80, 0
2, 132480, Note_on_c, 0, 80, 64
2, 132720, Note_on_c, 0, 80, 0
2, 132720, Note_on_c, 0, 68, 64
2, 132960, Note_on_c, 0, 68, 0
2, 132960, Note_on_c, 0, 73, 64
2, 133200, Note_on_c, 0, 73, 0
2, 133200, Note_on_c, 0, 77, 64
2, 133440, Note_on_c, 0, 77, 0
2, 133440, Note_on_c, 0, 80, 64
2, 133680, Note_on_c, 0, 80, 0
2, 133680, Note_on_c, 0, 85, 64
2, 133920, Note_on_c, 0, 85, 0
2, 133920, Note_on_c, 0, 83, 64
2, 134040, Note_on_c, 0, 83, 0
2, 134040, Note_on_c, 0, 67, 64
2, 134160, Note_on_c, 0, 67, 0
2, 134160, Note_on_c, 0, 75, 64
2, 134280, Note_on_c, 0, 75, 0
2, 134280, Note_on_c, 0, 74, 64
2, 134400, Note_on_c, 0, 74, 0
2, 134520, Note_on_c, 0, 71, 64
2, 134640, Note_on_c, 0, 71, 0
2, 134640, Note_on_c, 0, 80, 64
2, 134760, Note_on_c, 0, 80, 0
2, 134760, Note_on_c, 0, 79, 64
2, 134880, Note_on_c, 0, 79, 0
2, 135000, Note_on_c, 0, 74, 64
2, 135120, Note_on_c, 0, 74, 0
2, 135120, Note_on_c, 0, 84, 64
2, 135240, Note_on_c, 0, 84, 0
2, 135240, Note_on_c, 0, 83, 64
2, 135360, Note_on_c, 0, 83, 0
2, 135360, Note_on_c, 0, 84, 64
2, 135720, Note_on_c, 0, 84, 0
2, 135720, Note_on_c, 0, 77, 64
2, 135840, Note_on_c, 0, 77, 0
2, 135840, Note_on_c, 0, 75, 64
2, 135880, Note_on_c, 0, 75, 0
2, 135880, Note_on_c, 0, 74, 64
2, 135920, Note_on_c, 0, 74, 0
2, 135920, Note_on_c, 0, 75, 64
2, 135960, Note_on_c, 0, 75, 0
2, 135960, Note_on_c, 0, 74, 64
2, 136000, Note_on_c, 0, 74, 0
2, 136000, Note_on_c, 0, 75, 64
2, 136040, Note_on_c, 0, 75, 0
2, 136040, Note_on_c, 0, 74, 64
2, 136080, Note_on_c, 0, 74, 0
2, 136080, Note_on_c, 0, 75, 64
2, 136120, Note_on_c, 0, 75, 0
2, 136120, Note_on_c, 0, 74, 64
2, 136160, Note_on_c, 0, 74, 0
2, 136160, Note_on_c, 0, 75, 64
2, 136200, Note_on_c, 0, 75, 0
2, 136200, Note_on_c, 0, 74, 64
2, 136240, Note_on_c, 0, 74, 0
2, 136240, Note_on_c, 0, 75, 64
2, 136280, Note_on_c, 0, 75, 0
2, 136280, Note_on_c, 0, 74, 64
2, 136560, Note_on_c, 0, 74, 0
2, 136560, Note_on_c, 0, 72, 64
2, 136800, Note_on_c, 0, 72, 0
2, 136800, Note_on_c, 0, 72, 64
2, 138240, Note_on_c, 0, 72, 0
2, 138240, End_track
3, 0, Start_track
3, 0, Note_on_c, 0, 67, 64
3, 360, Note_on_c, 0, 67, 0
3, 360, Note_on_c, 0, 75, 64
3, 480, Note_on_c, 0, 75, 0
3, 480, Note_on_c, 0, 72, 64
3, 520, Note_on_c, 0, 72, 0
3, 520, Note_on_c, 0, 71, 64
3, 560, Note_on_c, 0, 71, 0
3, 560, Note_on_c, 0, 72, 64
3, 600, Note_on_c, 0, 72, 0
3, 600, Note_on_c, 0, 71, 64
3, 640, Note_on_c, 0, 71, 0
3, 640, Note_on_c, 0, 72, 64
3, 680, Note_on_c, 0, 72, 0
3, 680, Note_on_c, 0, 71, 64
3, 720, Note_on_c, 0, 71, 0
3, 720, Note_on_c, 0, 72, 64
3, 760, Note_on_c, 0, 72, 0
3, 760, Note_on_c, 0, 71, 64
3, 800, Note_on_c, 0, 71, 0
3, 800, Note_on_c, 0, 72, 64
3, 840, Note_on_c, 0, 72, 0
3, 840, Note_on_c, 0, 71, 64
3, 880, Note_on_c, 0, 71, 0
3, 880, Note_on_c, 0, 72, 64
3, 920, Note_on_c, 0, 72, 0
3, 920, Note_on_c, 0, 71, 64
3, 1200, Note_on_c, 0, 71, 0
3, 1200, Note_on_c, 0, 72, 64
3, 1440, Note_on_c, 0, 72, 0
3, 1440, Note_on_c, 0, 72, 64
3, 2160, Note_on_c, 0, 72, 0
3, 2160, Note_on_c, 0, 70, 64
3, 2280, Note_on_c, 0, 70, 0
3, 2280, Note_on_c, 0, 68, 64
3, 2400, Note_on_c, 0, 68, 0
3, 2400, Note_on_c, 0, 72, 64
3, 2520, Note_on_c, 0, 72, 0
3, 2520, Note_on_c, 0, 70, 64
3, 2640, Note_on_c, 0, 70, 0
3, 2640, Note_on_c, 0, 68, 64
3, 2760, Note_on_c, 0, 68, 0
3, 2760, Note_on_c, 0, 67, 64
3, 2880, Note_on_c, 0, 67, 0
3, 2880, Note_on_c, 0, 68, 64
3, 3000, Note_on_c, 0, 68, 0
3, 3000, Note_on_c, 0, 67, 64
3, 3120, Note_on_c, 0, 67, 0
3, 3120, Note_on_c, 0, 68, 64
3, 3240, Note_on_c, 0, 68, 0
3, 3240, Note_on_c, 0, 72, 64
3, 3360, Note_on_c, 0, 72, 0
3, 3360, Note_on_c, 0, 70, 64
3, 3480, Note_on_c, 0, 70, 0
3, 3480, Note_on_c, 0, 73, 64
3, 3600, Note_on_c, 0, 73, 0
3, 3600, Note_on_c, 0, 73, 64
3, 3720, Note_on_c, 0, 73, 0
3, 3720, Note_on_c, 0, 72, 64
3, 3840, Note_on_c, 0, 72, 0
3, 3840, Note_on_c, 0, 72, 64
3, 3960, Note_on_c, 0, 72, 0
3, 3960, Note_on_c, 0, 70, 64
3, 4080, Note_on_c, 0, 70, 0
3, 4080, Note_on_c, 0, 70, 64
3, 4200, Note_on_c, 0, 70, 0
3, 4200, Note_on_c, 0, 72, 64
3, 4320, Note_on_c, 0, 72, 0
3, 4320, Note_on_c, 0, 72, 64
3, 4440, Note_on_c, 0, 72, 0
3, 4440, Note_on_c, 0, 71, 64
3, 4560, Note_on_c, 0, 71, 0
3, 4560, Note_on_c, 0, 72, 64
3, 4680, Note_on_c, 0, 72, 0
3, 4680, Note_on_c, 0, 75, 64
3, 4800, Note_on_c, 0, 75, 0
3, 4800, Note_on_c, 0, 74, 64
3, 6060, Note_on_c, 0, 74, 0
3, 6060, Note_on_c, 0, 72, 64
3, 6120, Note_on_c, 0, 72, 0
3, 6120, Note_on_c, 0, 71, 64
3, 6180, Note_on_c, 0, 71, 0
3, 6180, Note_on_c, 0, 72, 64
3, 6240, Note_on_c, 0, 72, 0
3, 6240, Note_on_c, 0, 74, 64
3, 6280, Note_on_c, 0, 74, 0
3, 6280, Note_on_c, 0, 72, 64
3, 6320, Note_on_c, 0, 72, 0
3, 6320, Note_on_c, 0, 74, 64
3, 6360, Note_on_c, 0, 74, 0
3, 6360, Note_on_c, 0, 72, 64
3, 6400, Note_on_c, 0, 72, 0
3, 6400, Note_on_c, 0, 74, 64
3, 6440, Note_on_c, 0, 74, 0
3, 6440, Note_on_c, 0, 72, 64
3, 6480, Note_on_c, 0, 72, 0
3, 6480, Note_on_c, 0, 74, 64
3, 6520, Note_on_c, 0, 74, 0
3, 6520, Note_on_c, 0, 72, 64
3, 6560, Note_on_c, 0, 72, 0
3, 6560, Note_on_c, 0, 74, 64
3, 6600, Note_on_c, 0, 74, 0
3, 6600, Note_on_c, 0, 72, 64
3, 6640, Note_on_c, 0, 72, 0
3, 6640, Note_on_c, 0, 74, 64
3, 6680, Note_on_c, 0, 74, 0
3, 6680, Note_on_c, 0, 72, 64
3, 6960, Note_on_c, 0, 72, 0
3, 6960, Note_on_c, 0, 71, 64
3, 7200, Note_on_c, 0, 71, 0
3, 7200, Note_on_c, 0, 71, 64
3, 7320, Note_on_c, 0, 71, 0
3, 7320, Note_on_c, 0, 67, 64
3, 7440, Note_on_c, 0, 67, 0
3, 7440, Note_on_c, 0, 71, 64
3, 7560, Note_on_c, 0, 71, 0
3, 7560, Note_on_c, 0, 74, 64
3, 7680, Note_on_c, 0, 74, 0
3, 7680, Note_on_c, 0, 77, 64
3, 7800, Note_on_c, 0, 77, 0
3, 7800, Note_on_c, 0, 80, 64
3, 7920, Note_on_c, 0, 80, 0
3, 7920, Note_on_c, 0, 80, 64
3, 8040, Note_on_c, 0, 80, 0
3, 8040, Note_on_c, 0, 79, 64
3, 8160, Note_on_c, 0, 79, 0
3, 8160, Note_on_c, 0, 79, 64
3, 8280, Note_on_c, 0, 79, 0
3, 8280, Note_on_c, 0, 77, 64
3, 8400, Note_on_c, 0, 77, 0
3, 8400, Note_on_c, 0, 77, 64
3, 8520, Note_on_c, 0, 77, 0
3, 8520, Note_on_c, 0, 75, 64
3, 8640, Note_on_c, 0, 75, 0
3, 8640, Note_on_c, 0, 75, 64
3, 8760, Note_on_c, 0, 75, 0
3, 8760, Note_on_c, 0, 71, 64
3, 8880, Note_on_c, 0, 71, 0
3, 8880, Note_on_c, 0, 72, 64
3, 9120, Note_on_c, 0, 72, 0
3, 9360, Note_on_c, 0, 66, 64
3, 9600, Note_on_c, 0, 66, 0
3, 9600, Note_on_c, 0, 67, 64
3, 9660, Note_on_c, 0, 67, 0
3, 9660, Note_on_c, 0, 66, 64
3, 9720, Note_on_c, 0, 66, 0
3, 9720, Note_on_c, 0, 67, 64
3, 9780, Note_on_c, 0, 67, 0
3, 9780, Note_on_c, 0, 66, 64
3, 9840, Note_on_c, 0, 66, 0
3, 9840, Note_on_c, 0, 67, 64
3, 9900, Note_on_c, 0, 67, 0
3, 9900, Note_on_c, 0, 66, 64
3, 9960, Note_on_c, 0, 66, 0
3, 9960, Note_on_c, 0, 64, 64
3, 10020, Note_on_c, 0, 64, 0
3, 10020, Note_on_c, 0, 66, 64
3, 10080, Note_on_c, 0, 66, 0
3, 10080, Note_on_c, 0, 67, 64
3, 11040, Note_on_c, 0, 67, 0
3, 12960, Note_on_c, 0, 65, 64
3, 13320, Note_on_c, 0, 65, 0
3, 13320, Note_on_c, 0, 75, 64
3, 13440, Note_on_c, 0, 75, 0
3, 13440, Note_on_c, 0, 74, 64
3, 13480, Note_on_c, 0, 74, 0
3, 13480, Note_on_c, 0, 72, 64
3, 13520, Note_on_c, 0, 72, 0
3, 13520, Note_on_c, 0, 74, 64
3, 13560, Note_on_c, 0, 74, 0
3, 13560, Note_on_c, 0, 72, 64
3, 13600, Note_on_c, 0, 72, 0
3, 13600, Note_on_c, 0, 74, 64
3, 13640, Note_on_c, 0, 74, 0
3, 13640, Note_on_c, 0, 72, 64
3, 13680, Note_on_c, 0, 72, 0
3, 13680, Note_on_c, 0, 74, 64
3, 13720, Note_on_c, 0, 74, 0
3, 13720, Note_on_c, 0, 72, 64
3, 13760, Note_on_c, 0, 72, 0
3, 13760, Note_on_c, 0, 74, 64
3, 13800, Note_on_c, 0, 74, 0
3, 13800, Note_on_c, 0, 72, 64
3, 13840, Note_on_c, 0, 72, 0
3, 13840, Note_on_c, 0, 74, 64
3, 13880, Note_on_c, 0, 74, 0
3, 13880, Note_on_c, 0, 72, 64
3, 14160, Note_on_c, 0, 72, 0
3, 14160, Note_on_c, 0, 74, 64
3, 14400, Note_on_c, 0, 74, 0
3, 14400, Note_on_c, 0, 74, 64
3, 15960, Note_on_c, 0, 74, 0
3, 15960, Note_on_c, 0, 63, 64
3, 16080, Note_on_c, 0, 63, 0
3, 16080, Note_on_c, 0, 67, 64
3, 16200, Note_on_c, 0, 67, 0
3, 16200, Note_on_c, 0, 70, 64
3, 16320, Note_on_c, 0, 70, 0
3, 16320, Note_on_c, 0, 73, 64
3, 16440, Note_on_c, 0, 73, 0
3, 16440, Note_on_c, 0, 77, 64
3, 16560, Note_on_c, 0, 77, 0
3, 16560, Note_on_c, 0, 77, 64
3, 16680, Note_on_c, 0, 77, 0
3, 16680, Note_on_c, 0, 75, 64
3, 16800, Note_on_c, 0, 75, 0
3, 16800, Note_on_c, 0, 75, 64
3, 16920, Note_on_c, 0, 75, 0
3, 16920, Note_on_c, 0, 73, 64
3, 17040, Note_on_c, 0, 73, 0
3, 17040, Note_on_c, 0, 73, 64
3, 17160, Note_on_c, 0, 73, 0
3, 17160, Note_on_c, 0, 72, 64
3, 17280, Note_on_c, 0, 72, 0
3, 17280, Note_on_c, 0, 72, 64
3, 17520, Note_on_c, 0, 72, 0
3, 17520, Note_on_c, 0, 60, 64
3, 17760, Note_on_c, 0, 60, 0
3, 17760, Note_on_c, 0, 65, 64
3, 18000, Note_on_c, 0, 65, 0
3, 18000, Note_on_c, 0, 68, 64
3, 18240, Note_on_c, 0, 68, 0
3, 18240, Note_on_c, 0, 72, 64
3, 18480, Note_on_c, 0, 72, 0
3, 18480, Note_on_c, 0, 75, 64
3, 18720, Note_on_c, 0, 75, 0
3, 18720, Note_on_c, 0, 74, 64
3, 18840, Note_on_c, 0, 74, 0
3, 18840, Note_on_c, 0, 58, 64
3, 18960, Note_on_c, 0, 58, 0
3, 18960, Note_on_c, 0, 67, 64
3, 19080, Note_on_c, 0, 67, 0
3, 19080, Note_on_c, 0, 65, 64
3, 19200, Note_on_c, 0, 65, 0
3, 19320, Note_on_c, 0, 62, 64
3, 19440, Note_on_c, 0, 62, 0
3, 19440, Note_on_c, 0, 72, 64
3, 19560, Note_on_c, 0, 72, 0
3, 19560, Note_on_c, 0, 70, 64
3, 19680, Note_on_c, 0, 70, 0
3, 19800, Note_on_c, 0, 65, 64
3, 19920, Note_on_c, 0, 65, 0
3, 19920, Note_on_c, 0, 75, 64
3, 20040, Note_on_c, 0, 75, 0
3, 20040, Note_on_c, 0, 74, 64
3, 20160, Note_on_c, 0, 74, 0
3, 20160, Note_on_c, 0, 75, 64
3, 20520, Note_on_c, 0, 75, 0
3, 20520, Note_on_c, 0, 68, 64
3, 20640, Note_on_c, 0, 68, 0
3, 20640, Note_on_c, 0, 67, 64
3, 20680, Note_on_c, 0, 67, 0
3, 20680, Note_on_c, 0, 65, 64
3, 20720, Note_on_c, 0, 65, 0
3, 20720, Note_on_c, 0, 67, 64
3, 20760, Note_on_c, 0, 67, 0
3, 20760, Note_on_c, 0, 65, 64
3, 20800, Note_on_c, 0, 65, 0
3, 20800, Note_on_c, 0, 67, 64
3, 20840, Note_on_c, 0, 67, 0
3, 20840, Note_on_c, 0, 65, 64
3, 20880, Note_on_c, 0, 65, 0
3, 20880, Note_on_c, 0, 67, 64
3, 20920, Note_on_c, 0, 67, 0
3, 20920, Note_on_c, 0, 65, 64
3, 20960, Note_on_c, 0, 65, 0
3, 20960, Note_on_c, 0, 67, 64
3, 21000, Note_on_c, 0, 67, 0
3, 21000, Note_on_c, 0, 65, 64
3, 21040, Note_on_c, 0, 65, 0
3, 21040, Note_on_c, 0, 67, 64
3, 21080, Note_on_c, 0, 67, 0
3, 21080, Note_on_c, 0, 65, 64
3, 21360, Note_on_c, 0, 65, 0
3, 21360, Note_on_c, 0, 63, 64
3, 21600, Note_on_c, 0, 63, 0
3, 21600, Note_on_c, 0, 63, 64
3, 23040, Note_on_c, 0, 63, 0
3, 23040, Note_on_c, 0, 67, 64
3, 23400, Note_on_c, 0, 67, 0
3, 23400, Note_on_c, 0, 75, 64
3, 23520, Note_on_c, 0, 75, 0
3, 23520, Note_on_c, 0, 72, 64
3, 23560, Note_on_c, 0, 72, 0
3, 23560, Note_on_c, 0, 71, 64
3, 23600, Note_on_c, 0, 71, 0
3, 23600, Note_on_c, 0, 72, 64
3, 23640, Note_on_c, 0, 72, 0
3, 23640, Note_on_c, 0, 71, 64
3, 23680, Note_on_c, 0, 71, 0
3, 23680, Note_on_c, 0, 72, 64
3, 23720, Note_on_c, 0, 72, 0
3, 23720, Note_on_c, 0, 71, 64
3, 23760, Note_on_c, 0, 71, 0
3, 23760, Note_on_c, 0, 72, 64
3, 23800, Note_on_c, 0, 72, 0
3, 23800, Note_on_c, 0, 71, 64
3, 23840, Note_on_c, 0, 71, 0
3, 23840, Note_on_c, 0, 72, 64
3, 23880, Note_on_c, 0, 72, 0
3, 23880, Note_on_c, 0, 71, 64
3, 23920, Note_on_c, 0, 71, 0
3, 23920, Note_on_c, 0, 72, 64
3, 23960, Note_on_c, 0, 72, 0
3, 23960, Note_on_c, 0, 71, 64
3, 24240, Note_on_c, 0, 71, 0
3, 24240, Note_on_c, 0, 72, 64
3, 24480, Note_on_c, 0, 72, 0
3, 24480, Note_on_c, 0, 72, 64
3, 25200, Note_on_c, 0, 72, 0
3, 25200, Note_on_c, 0, 70, 64
3, 25320, Note_on_c, 0, 70, 0
3, 25320, Note_on_c, 0, 68, 64
3, 25440, Note_on_c, 0, 68, 0
3, 25440, Note_on_c, 0, 72, 64
3, 25560, Note_on_c, 0, 72, 0
3, 25560, Note_on_c, 0, 70, 64
3, 25680, Note_on_c, 0, 70, 0
3, 25680, Note_on_c, 0, 68, 64
3, 25800, Note_on_c, 0, 68, 0
3, 25800, Note_on_c, 0, 67, 64
3, 25920, Note_on_c, 0, 67, 0
3, 25920, Note_on_c, 0, 68, 64
3, 26040, Note_on_c, 0, 68, 0
3, 26040, Note_on_c, 0, 67, 64
3, 26160, Note_on_c, 0, 67, 0
3, 26160, Note_on_c, 0, 68, 64
3, 26280, Note_on_c, 0, 68, 0
3, 26280, Note_on_c, 0, 72, 64
3, 26400, Note_on_c, 0, 72, 0
3, 26400, Note_on_c, 0, 70, 64
3, 26520, Note_on_c, 0, 70, 0
3, 26520, Note_on_c, 0, 73, 64
3, 26640, Note_on_c, 0, 73, 0
3, 26640, Note_on_c, 0, 73, 64
3, 26760, Note_on_c, 0, 73, 0
3, 26760, Note_on_c, 0, 72, 64
3, 26880, Note_on_c, 0, 72, 0
3, 26880, Note_on_c, 0, 72, 64
3, 27000, Note_on_c, 0, 72, 0
3, 27000, Note_on_c, 0, 70, 64
3, 27120, Note_on_c, 0, 70, 0
3, 27120, Note_on_c, 0, 70, 64
3, 27240, Note_on_c, 0, 70, 0
3, 27240, Note_on_c, 0, 72, 64
3, 27360, Note_on_c, 0, 72, 0
3, 27360, Note_on_c, 0, 72, 64
3, 27480, Note_on_c, 0, 72, 0
3, 27480, Note_on_c, 0, 71, 64
3, 27600, Note_on_c, 0, 71, 0
3, 27600, Note_on_c, 0, 72, 64
3, 27720, Note_on_c, 0, 72, 0
3, 27720, Note_on_c, 0, 75, 64
3, 27840, Note_on_c, 0, 75, 0
3, 27840, Note_on_c, 0, 74, 64
3, 29100, Note_on_c, 0, 74, 0
3, 29100, Note_on_c, 0, 72, 64
3, 29160, Note_on_c, 0, 72, 0
3, 29160, Note_on_c, 0, 71, 64
3, 29220, Note_on_c, 0, 71, 0
3, 29220, Note_on_c, 0, 72, 64
3, 29280, Note_on_c, 0, 72, 0
3, 29280, Note_on_c, 0, 74, 64
3, 29320, Note_on_c, 0, 74, 0
3, 29320, Note_on_c, 0, 72, 64
3, 29360, Note_on_c, 0, 72, 0
3, 29360, Note_on_c, 0, 74, 64
3, 29400, Note_on_c, 0, 74, 0
3, 29400, Note_on_c, 0, 72, 64
3, 29440, Note_on_c, 0, 72, 0
3, 29440, Note_on_c, 0, 74, 64
3, 29480, Note_on_c, 0, 74, 0
3, 29480, Note_on_c, 0, 72, 64
3, 29520, Note_on_c, 0, 72, 0
3, 29520, Note_on_c, 0, 74, 64
3, 29560, Note_on_c, 0, 74, 0
3, 29560, Note_on_c, 0, 72, 64
3, 29600, Note_on_c, 0, 72, 0
3, 29600, Note_on_c, 0, 74, 64
3, 29640, Note_on_c, 0, 74, 0
3, 29640, Note_on_c, 0, 72, 64
3, 29680, Note_on_c, 0, 72, 0
3, 29680, Note_on_c, 0, 74, 64
3, 29720, Note_on_c, 0, 74, 0
3, 29720, Note_on_c, 0, 72, 64
3, 30000, Note_on_c, 0, 72, 0
3, 30000, Note_on_c, 0, 71, 64
3, 30240, Note_on_c, 0, 71, 0
3, 30240, Note_on_c, 0, 71, 64
3, 30360, Note_on_c, 0, 71, 0
3, 30360, Note_on_c, 0, 67, 64
3, 30480, Note_on_c, 0, 67, 0
3, 30480, Note_on_c, 0, 71, 64
3, 30600, Note_on_c, 0, 71, 0
3, 30600, Note_on_c, 0, 74, 64
3, 30720, Note_on_c, 0, 74, 0
3, 30720, Note_on_c, 0, 77, 64
3, 30840, Note_on_c, 0, 77, 0
3, 30840, Note_on_c, 0, 80, 64
3, 30960, Note_on_c, 0, 80, 0
3, 30960, Note_on_c, 0, 80, 64
3, 31080, Note_on_c, 0, 80, 0
3, 31080, Note_on_c, 0, 79, 64
3, 31200, Note_on_c, 0, 79, 0
3, 31200, Note_on_c, 0, 79, 64
3, 31320, Note_on_c, 0, 79, 0
3, 31320, Note_on_c, 0, 77, 64
3, 31440, Note_on_c, 0, 77, 0
3, 31440, Note_on_c, 0, 77, 64
3, 31560, Note_on_c, 0, 77, 0
3, 31560, Note_on_c, 0, 75, 64
3, 31680, Note_on_c, 0, 75, 0
3, 31680, Note_on_c, 0, 75, 64
3, 31800, Note_on_c, 0, 75, 0
3, 31800, Note_on_c, 0, 71, 64
3, 31920, Note_on_c, 0, 71, 0
3, 31920, Note_on_c, 0, 72, 64
3, 32160, Note_on_c, 0, 72, 0
3, 32400, Note_on_c, 0, 66, 64
3, 32640, Note_on_c, 0, 66, 0
3, 32640, Note_on_c, 0, 67, 64
3, 32700, Note_on_c, 0, 67, 0
3, 32700, Note_on_c, 0, 66, 64
3, 32760, Note_on_c, 0, 66, 0
3, 32760, Note_on_c, 0, 67, 64
3, 32820, Note_on_c, 0, 67, 0
3, 32820, Note_on_c, 0, 66, 64
3, 32880, Note_on_c, 0, 66, 0
3, 32880, Note_on_c, 0, 67, 64
3, 32940, Note_on_c, 0, 67, 0
3, 32940, Note_on_c, 0, 66, 64
3, 33000, Note_on_c, 0, 66, 0
3, 33000, Note_on_c, 0, 64, 64
3, 33060, Note_on_c, 0, 64, 0
3, 33060, Note_on_c, 0, 66, 64
3, 33120, Note_on_c, 0, 66, 0
3, 33120, Note_on_c, 0, 67, 64
3, 34080, Note_on_c, 0, 67, 0
3, 36000, Note_on_c, 0, 65, 64
3, 36360, Note_on_c, 0, 65, 0
3, 36360, Note_on_c, 0, 75, 64
3, 36480, Note_on_c, 0, 75, 0
3, 36480, Note_on_c, 0, 74, 64
3, 36520, Note_on_c, 0, 74, 0
3, 36520, Note_on_c, 0, 72, 64
3, 36560, Note_on_c, 0, 72, 0
3, 36560, Note_on_c, 0, 74, 64
3, 36600, Note_on_c, 0, 74, 0
3, 36600, Note_on_c, 0, 72, 64
3, 36640, Note_on_c, 0, 72, 0
3, 36640, Note_on_c, 0, 74, 64
3, 36680, Note_on_c, 0, 74, 0
3, 36680, Note_on_c, 0, 72, 64
3, 36720, Note_on_c, 0, 72, 0
3, 36720, Note_on_c, 0, 74, 64
3, 36760, Note_on_c, 0, 74, 0
3, 36760, Note_on_c, 0, 72, 64
3, 36800, Note_on_c, 0, 72, 0
3, 36800, Note_on_c, 0, 74, 64
3, 36840, Note_on_c, 0, 74, 0
3, 36840, Note_on_c, 0, 72, 64
3, 36880, Note_on_c, 0, 72, 0
3, 36880, Note_on_c, 0, 74, 64
3, 36920, Note_on_c, 0, 74, 0
3, 36920, Note_on_c, 0, 72, 64
3, 37200, Note_on_c, 0, 72, 0
3, 37200, Note_on_c, 0, 74, 64
3, 37440, Note_on_c, 0, 74, 0
3, 37440, Note_on_c, 0, 74, 64
3, 39000, Note_on_c, 0, 74, 0
3, 39000, Note_on_c, 0, 63, 64
3, 39120, Note_on_c, 0, 63, 0
3, 39120, Note_on_c, 0, 67, 64
3, 39240, Note_on_c, 0, 67, 0
3, 39240, Note_on_c, 0, 70, 64
3, 39360, Note_on_c, 0, 70, 0
3, 39360, Note_on_c, 0, 73, 64
3, 39480, Note_on_c, 0, 73, 0
3, 39480, Note_on_c, 0, 77, 64
3, 39600, Note_on_c, 0, 77, 0
3, 39600, Note_on_c, 0, 77, 64
3, 39720, Note_on_c, 0, 77, 0
3, 39720, Note_on_c, 0, 75, 64
3, 39840, Note_on_c, 0, 75, 0
3, 39840, Note_on_c, 0, 75, 64
3, 39960, Note_on_c, 0, 75, 0
3, 39960, Note_on_c, 0, 73, 64
3, 40080, Note_on_c, 0, 73, 0
3, 40080, Note_on_c, 0, 73, 64
3, 40200, Note_on_c, 0, 73, 0
3, 40200, Note_on_c, 0, 72, 64
3, 40320, Note_on_c, 0, 72, 0
3, 40320, Note_on_c, 0, 72, 64
3, 40560, Note_on_c, 0, 72, 0
3, 40560, Note_on_c, 0, 60, 64
3, 40800, Note_on_c, 0, 60, 0
3, 40800, Note_on_c, 0, 65, 64
3, 41040, Note_on_c, 0, 65, 0
3, 41040, Note_on_c, 0, 68, 64
3, 41280, Note_on_c, 0, 68, 0
3, 41280, Note_on_c, 0, 72, 64
3, 41520, Note_on_c, 0, 72, 0
3, 41520, Note_on_c, 0, 75, 64
3, 41760, Note_on_c, 0, 75, 0
3, 41760, Note_on_c, 0, 74, 64
3, 41880, Note_on_c, 0, 74, 0
3, 41880, Note_on_c, 0, 58, 64
3, 42000, Note_on_c, 0, 58, 0
3, 42000, Note_on_c, 0, 67, 64
3, 42120, Note_on_c, 0, 67, 0
3, 42120, Note_on_c, 0, 65, 64
3, 42240, Note_on_c, 0, 65, 0
3, 42360, Note_on_c, 0, 62, 64
3, 42480, Note_on_c, 0, 62, 0
3, 42480, Note_on_c, 0, 72, 64
3, 42600, Note_on_c, 0, 72, 0
3, 42600, Note_on_c, 0, 70, 64
3, 42720, Note_on_c, 0, 70, 0
3, 42840, Note_on_c, 0, 65, 64
3, 42960, Note_on_c, 0, 65, 0
3, 42960, Note_on_c, 0, 75, 64
3, 43080, Note_on_c, 0, 75, 0
3, 43080, Note_on_c, 0, 74, 64
3, 43200, Note_on_c, 0, 74, 0
3, 43200, Note_on_c, 0, 75, 64
3, 43560, Note_on_c, 0, 75, 0
3, 43560, Note_on_c, 0, 68, 64
3, 43680, Note_on_c, 0, 68, 0
3, 43680, Note_on_c, 0, 67, 64
3, 43720, Note_on_c, 0, 67, 0
3, 43720, Note_on_c, 0, 65, 64
3, 43760, Note_on_c, 0, 65, 0
3, 43760, Note_on_c, 0, 67, 64
3, 43800, Note_on_c, 0, 67, 0
3, 43800, Note_on_c, 0, 65, 64
3, 43840, Note_on_c, 0, 65, 0
3, 43840, Note_on_c, 0, 67, 64
3, 43880, Note_on_c, 0, 67, 0
3, 43880, Note_on_c, 0, 65, 64
3, 43920, Note_on_c, 0, 65, 0
3, 43920, Note_on_c, 0, 67, 64
3, 43960, Note_on_c, 0, 67, 0
3, 43960, Note_on_c, 0, 65, 64
3, 44000, Note_on_c, 0, 65, 0
3, 44000, Note_on_c, 0, 67, 64
3, 44040, Note_on_c, 0, 67, 0
3, 44040, Note_on_c, 0, 65, 64
3, 44080, Note_on_c, 0, 65, 0
3, 44080, Note_on_c, 0, 67, 64
3, 44120, Note_on_c, 0, 67, 0
3, 44120, Note_on_c, 0, 65, 64
3, 44400, Note_on_c, 0, 65, 0
3, 44400, Note_on_c, 0, 63, 64
3, 44640, Note_on_c, 0, 63, 0
3, 44640, Note_on_c, 0, 63, 64
3, 46080, Note_on_c, 0, 63, 0
3, 48960, Note_on_c, 0, 81, 64
3, 49320, Note_on_c, 0, 81, 0
3, 49320, Note_on_c, 0, 72, 64
3, 49440, Note_on_c, 0, 72, 0
3, 49440, Note_on_c, 0, 74, 64
3, 49480, Note_on_c, 0, 74, 0
3, 49480, Note_on_c, 0, 75, 64
3, 49520, Note_on_c, 0, 75, 0
3, 49520, Note_on_c, 0, 77, 64
3, 49560, Note_on_c, 0, 77, 0
3, 49560, Note_on_c, 0, 75, 64
3, 49600, Note_on_c, 0, 75, 0
3, 49600, Note_on_c, 0, 77, 64
3, 49640, Note_on_c, 0, 77, 0
3, 49640, Note_on_c, 0, 75, 64
3, 49680, Note_on_c, 0, 75, 0
3, 49680, Note_on_c, 0, 77, 64
3, 49720, Note_on_c, 0, 77, 0
3, 49720, Note_on_c, 0, 75, 64
3, 49760, Note_on_c, 0, 75, 0
3, 49760, Note_on_c, 0, 77, 64
3, 49800, Note_on_c, 0, 77, 0
3, 49800, Note_on_c, 0, 75, 64
3, 49830, Note_on_c, 0, 75, 0
3, 49830, Note_on_c, 0, 77, 64
3, 49860, Note_on_c, 0, 77, 0
3, 49860, Note_on_c, 0, 75, 64
3, 49890, Note_on_c, 0, 75, 0
3, 49890, Note_on_c, 0, 77, 64
3, 49920, Note_on_c, 0, 77, 0
3, 49920, Note_on_c, 0, 75, 64
3, 50160, Note_on_c, 0, 75, 0
3, 50160, Note_on_c, 0, 74, 64
3, 50400, Note_on_c, 0, 74, 0
3, 50400, Note_on_c, 0, 74, 64
3, 50520, Note_on_c, 0, 74, 0
3, 50520, Note_on_c, 0, 64, 64
3, 50640, Note_on_c, 0, 64, 0
3, 50640, Note_on_c, 0, 65, 64
3, 50760, Note_on_c, 0, 65, 0
3, 50760, Note_on_c, 0, 69, 64
3, 50880, Note_on_c, 0, 69, 0
3, 50880, Note_on_c, 0, 70, 64
3, 51000, Note_on_c, 0, 70, 0
3, 51000, Note_on_c, 0, 74, 64
3, 51120, Note_on_c, 0, 74, 0
3, 51120, Note_on_c, 0, 77, 64
3, 51240, Note_on_c, 0, 77, 0
3, 51240, Note_on_c, 0, 76, 64
3, 51360, Note_on_c, 0, 76, 0
3, 51360, Note_on_c, 0, 77, 64
3, 51960, Note_on_c, 0, 77, 0
3, 51960, Note_on_c, 0, 86, 64
3, 52080, Note_on_c, 0, 86, 0
3, 52080, Note_on_c, 0, 76, 64
3, 52200, Note_on_c, 0, 76, 0
3, 52200, Note_on_c, 0, 77, 64
3, 52320, Note_on_c, 0, 77, 0
3, 52440, Note_on_c, 0, 80, 64
3, 52560, Note_on_c, 0, 80, 0
3, 52560, Note_on_c, 0, 71, 64
3, 52680, Note_on_c, 0, 71, 0
3, 52680, Note_on_c, 0, 72, 64
3, 52800, Note_on_c, 0, 72, 0
3, 52920, Note_on_c, 0, 77, 64
3, 53040, Note_on_c, 0, 77, 0
3, 53040, Note_on_c, 0, 67, 64
3, 53160, Note_on_c, 0, 67, 0
3, 53160, Note_on_c, 0, 68, 64
3, 53280, Note_on_c, 0, 68, 0
3, 53280, Note_on_c, 0, 67, 64
3, 53760, Note_on_c, 0, 67, 0
3, 54000, Note_on_c, 0, 72, 64
3, 54240, Note_on_c, 0, 72, 0
3, 54240, Note_on_c, 0, 67, 64
3, 54300, Note_on_c, 0, 67, 0
3, 54300, Note_on_c, 0, 66, 64
3, 54360, Note_on_c, 0, 66, 0
3, 54360, Note_on_c, 0, 67, 64
3, 54420, Note_on_c, 0, 67, 0
3, 54420, Note_on_c, 0, 66, 64
3, 54480, Note_on_c, 0, 66, 0
3, 54480, Note_on_c, 0, 67, 64
3, 54540, Note_on_c, 0, 67, 0
3, 54540, Note_on_c, 0, 66, 64
3, 54600, Note_on_c, 0, 66, 0
3, 54600, Note_on_c, 0, 64, 64
3, 54660, Note_on_c, 0, 64, 0
3, 54660, Note_on_c, 0, 66, 64
3, 54720, Note_on_c, 0, 66, 0
3, 54720, Note_on_c, 0, 67, 64
3, 55440, Note_on_c, 0, 67, 0
3, 55440, Note_on_c, 0, 55, 64
3, 55680, Note_on_c, 0, 55, 0
3, 55680, Note_on_c, 0, 60, 64
3, 55800, Note_on_c, 0, 60, 0
3, 55800, Note_on_c, 0, 58, 64
3, 55920, Note_on_c, 0, 58, 0
3, 55920, Note_on_c, 0, 57, 64
3, 56040, Note_on_c, 0, 57, 0
3, 56040, Note_on_c, 0, 58, 64
3, 56160, Note_on_c, 0, 58, 0
3, 56160, Note_on_c, 0, 57, 64
3, 56640, Note_on_c, 0, 57, 0
3, 56880, Note_on_c, 0, 81, 64
3, 57120, Note_on_c, 0, 81, 0
3, 57120, Note_on_c, 0, 82, 64
3, 57360, Note_on_c, 0, 82, 0
3, 57360, Note_on_c, 0, 84, 64
3, 57600, Note_on_c, 0, 84, 0
3, 57600, Note_on_c, 0, 86, 64
3, 57960, Note_on_c, 0, 86, 0
3, 57960, Note_on_c, 0, 74, 64
3, 58080, Note_on_c, 0, 74, 0
3, 58080, Note_on_c, 0, 75, 64
3, 58120, Note_on_c, 0, 75, 0
3, 58120, Note_on_c, 0, 77, 64
3, 58160, Note_on_c, 0, 77, 0
3, 58160, Note_on_c, 0, 79, 64
3, 58200, Note_on_c, 0, 79, 0
3, 58200, Note_on_c, 0, 77, 64
3, 58240, Note_on_c, 0, 77, 0
3, 58240, Note_on_c, 0, 79, 64
3, 58280, Note_on_c, 0, 79, 0
3, 58280, Note_on_c, 0, 77, 64
3, 58320, Note_on_c, 0, 77, 0
3, 58320, Note_on_c, 0, 79, 64
3, 58360, Note_on_c, 0, 79, 0
3, 58360, Note_on_c, 0, 77, 64
3, 58400, Note_on_c, 0, 77, 0
3, 58400, Note_on_c, 0, 79, 64
3, 58440, Note_on_c, 0, 79, 0
3, 58440, Note_on_c, 0, 77, 64
3, 58470, Note_on_c, 0, 77, 0
3, 58470, Note_on_c, 0, 79, 64
3, 58500, Note_on_c, 0, 79, 0
3, 58500, Note_on_c, 0, 77, 64
3, 58530, Note_on_c, 0, 77, 0
3, 58530, Note_on_c, 0, 79, 64
3, 58560, Note_on_c, 0, 79, 0
3, 58560, Note_on_c, 0, 77, 64
3, 58800, Note_on_c, 0, 77, 0
3, 58800, Note_on_c, 0, 75, 64
3, 59040, Note_on_c, 0, 75, 0
3, 59040, Note_on_c, 0, 75, 64
3, 59160, Note_on_c, 0, 75, 0
3, 59160, Note_on_c, 0, 77, 64
3, 59280, Note_on_c, 0, 77, 0
3, 59280, Note_on_c, 0, 75, 64
3, 59400, Note_on_c, 0, 75, 0
3, 59400, Note_on_c, 0, 74, 64
3, 59520, Note_on_c, 0, 74, 0
3, 59520, Note_on_c, 0, 74, 64
3, 59640, Note_on_c, 0, 74, 0
3, 59640, Note_on_c, 0, 75, 64
3, 59760, Note_on_c, 0, 75, 0
3, 59760, Note_on_c, 0, 74, 64
3, 59880, Note_on_c, 0, 74, 0
3, 59880, Note_on_c, 0, 72, 64
3, 60000, Note_on_c, 0, 72, 0
3, 60000, Note_on_c, 0, 72, 64
3, 60840, Note_on_c, 0, 72, 0
3, 60840, Note_on_c, 0, 63, 64
3, 60960, Note_on_c, 0, 63, 0
3, 60960, Note_on_c, 0, 63, 64
3, 61800, Note_on_c, 0, 63, 0
3, 61800, Note_on_c, 0, 75, 64
3, 61920, Note_on_c, 0, 75, 0
3, 61920, Note_on_c, 0, 74, 64
3, 62280, Note_on_c, 0, 74, 0
3, 62280, Note_on_c, 0, 82, 64
3, 62400, Note_on_c, 0, 82, 0
3, 62400, Note_on_c, 0, 79, 64
3, 62880, Note_on_c, 0, 79, 0
3, 62880, Note_on_c, 0, 79, 64
3, 62920, Note_on_c, 0, 79, 0
3, 62920, Note_on_c, 0, 78, 64
3, 62960, Note_on_c, 0, 78, 0
3, 62960, Note_on_c, 0, 79, 64
3, 63000, Note_on_c, 0, 79, 0
3, 63000, Note_on_c, 0, 78, 64
3, 63030, Note_on_c, 0, 78, 0
3, 63030, Note_on_c, 0, 79, 64
3, 63060, Note_on_c, 0, 79, 0
3, 63060, Note_on_c, 0, 78, 64
3, 63090, Note_on_c, 0, 78, 0
3, 63090, Note_on_c, 0, 79, 64
3, 63120, Note_on_c, 0, 79, 0
3, 63120, Note_on_c, 0, 78, 64
3, 63240, Note_on_c, 0, 78, 0
3, 63240, Note_on_c, 0, 79, 64
3, 63360, Note_on_c, 0, 79, 0
3, 63360, Note_on_c, 0, 79, 64
3, 63480, Note_on_c, 0, 79, 0
3, 63480, Note_on_c, 0, 82, 64
3, 63600, Note_on_c, 0, 82, 0
3, 63600, Note_on_c, 0, 73, 64
3, 63720, Note_on_c, 0, 73, 0
3, 63720, Note_on_c, 0, 74, 64
3, 63840, Note_on_c, 0, 74, 0
3, 63960, Note_on_c, 0, 79, 64
3, 64080, Note_on_c, 0, 79, 0
3, 64080, Note_on_c, 0, 69, 64
3, 64200, Note_on_c, 0, 69, 0
3, 64200, Note_on_c, 0, 70, 64
3, 64320, Note_on_c, 0, 70, 0
3, 64440, Note_on_c, 0, 74, 64
3, 64560, Note_on_c, 0, 74, 0
3, 64560, Note_on_c, 0, 66, 64
3, 64680, Note_on_c, 0, 66, 0
3, 64680, Note_on_c, 0, 67, 64
3, 64800, Note_on_c, 0, 67, 0
3, 64800, Note_on_c, 0, 67, 64
3, 64920, Note_on_c, 0, 67, 0
3, 64920, Note_on_c, 0, 74, 64
3, 65040, Note_on_c, 0, 74, 0
3, 65040, Note_on_c, 0, 71, 64
3, 65160, Note_on_c, 0, 71, 0
3, 65160, Note_on_c, 0, 72, 64
3, 65280, Note_on_c, 0, 72, 0
3, 65280, Note_on_c, 0, 80, 64
3, 65520, Note_on_c, 0, 80, 0
3, 65520, Note_on_c, 0, 77, 64
3, 65760, Note_on_c, 0, 77, 0
3, 65760, Note_on_c, 0, 71, 64
3, 66000, Note_on_c, 0, 71, 0
3, 66000, Note_on_c, 0, 65, 64
3, 66240, Note_on_c, 0, 65, 0
3, 66240, Note_on_c, 0, 65, 64
3, 66360, Note_on_c, 0, 65, 0
3, 66360, Note_on_c, 0, 63, 64
3, 66480, Note_on_c, 0, 63, 0
3, 66480, Note_on_c, 0, 62, 64
3, 66600, Note_on_c, 0, 62, 0
3, 66600, Note_on_c, 0, 60, 64
3, 66720, Note_on_c, 0, 60, 0
3, 66720, Note_on_c, 0, 67, 64
3, 67800, Note_on_c, 0, 67, 0
3, 67800, Note_on_c, 0, 60, 64
3, 67920, Note_on_c, 0, 60, 0
3, 67920, Note_on_c, 0, 70, 64
3, 68040, Note_on_c, 0, 70, 0
3, 68040, Note_on_c, 0, 68, 64
3, 68160, Note_on_c, 0, 68, 0
3, 68280, Note_on_c, 0, 64, 64
3, 68400, Note_on_c, 0, 64, 0
3, 68400, Note_on_c, 0, 73, 64
3, 68520, Note_on_c, 0, 73, 0
3, 68520, Note_on_c, 0, 72, 64
3, 68640, Note_on_c, 0, 72, 0
3, 68760, Note_on_c, 0, 67, 64
3, 68880, Note_on_c, 0, 67, 0
3, 68880, Note_on_c, 0, 77, 64
3, 69000, Note_on_c, 0, 77, 0
3, 69000, Note_on_c, 0, 76, 64
3, 69120, Note_on_c, 0, 76, 0
3, 69120, Note_on_c, 0, 77, 64
3, 69600, Note_on_c, 0, 77, 0
3, 72000, Note_on_c, 0, 67, 64
3, 72360, Note_on_c, 0, 67, 0
3, 72360, Note_on_c, 0, 75, 64
3, 72480, Note_on_c, 0, 75, 0
3, 72480, Note_on_c, 0, 72, 64
3, 72520, Note_on_c, 0, 72, 0
3, 72520, Note_on_c, 0, 71, 64
3, 72560, Note_on_c, 0, 71, 0
3, 72560, Note_on_c, 0, 72, 64
3, 72600, Note_on_c, 0, 72, 0
3, 72600, Note_on_c, 0, 71, 64
3, 72640, Note_on_c, 0, 71, 0
3, 72640, Note_on_c, 0, 72, 64
3, 72680, Note_on_c, 0, 72, 0
3, 72680, Note_on_c, 0, 71, 64
3, 72720, Note_on_c, 0, 71, 0
3, 72720, Note_on_c, 0, 72, 64
3, 72760, Note_on_c, 0, 72, 0
3, 72760, Note_on_c, 0, 71, 64
3, 72800, Note_on_c, 0, 71, 0
3, 72800, Note_on_c, 0, 72, 64
3, 72840, Note_on_c, 0, 72, 0
3, 72840, Note_on_c, 0, 71, 64
3, 72880, Note_on_c, 0, 71, 0
3, 72880, Note_on_c, 0, 72, 64
3, 72920, Note_on_c, 0, 72, 0
3, 72920, Note_on_c, 0, 71, 64
3, 73200, Note_on_c, 0, 71, 0
3, 73200, Note_on_c, 0, 72, 64
3, 73440, Note_on_c, 0, 72, 0
3, 73440, Note_on_c, 0, 72, 64
3, 74160, Note_on_c, 0, 72, 0
3, 74160, Note_on_c, 0, 71, 64
3, 74280, Note_on_c, 0, 71, 0
3, 74280, Note_on_c, 0, 69, 64
3, 74400, Note_on_c, 0, 69, 0
3, 74400, Note_on_c, 0, 74, 64
3, 74520, Note_on_c, 0, 74, 0
3, 74520, Note_on_c, 0, 72, 64
3, 74640, Note_on_c, 0, 72, 0
3, 74640, Note_on_c, 0, 71, 64
3, 74760, Note_on_c, 0, 71, 0
3, 74760, Note_on_c, 0, 69, 64
3, 74880, Note_on_c, 0, 69, 0
3, 74880, Note_on_c, 0, 71, 64
3, 75360, Note_on_c, 0, 71, 0
3, 76440, Note_on_c, 0, 60, 64
3, 76560, Note_on_c, 0, 60, 0
3, 76560, Note_on_c, 0, 63, 64
3, 76680, Note_on_c, 0, 63, 0
3, 76680, Note_on_c, 0, 67, 64
3, 76800, Note_on_c, 0, 67, 0
3, 76800, Note_on_c, 0, 70, 64
3, 76920, Note_on_c, 0, 70, 0
3, 76920, Note_on_c, 0, 73, 64
3, 77040, Note_on_c, 0, 73, 0
3, 77040, Note_on_c, 0, 72, 64
3, 77160, Note_on_c, 0, 72, 0
3, 77160, Note_on_c, 0, 70, 64
3, 77280, Note_on_c, 0, 70, 0
3, 77280, Note_on_c, 0, 79, 64
3, 77400, Note_on_c, 0, 79, 0
3, 77400, Note_on_c, 0, 73, 64
3, 77520, Note_on_c, 0, 73, 0
3, 77520, Note_on_c, 0, 72, 64
3, 77640, Note_on_c, 0, 72, 0
3, 77640, Note_on_c, 0, 70, 64
3, 77760, Note_on_c, 0, 70, 0
3, 77760, Note_on_c, 0, 68, 64
3, 78120, Note_on_c, 0, 68, 0
3, 78120, Note_on_c, 0, 75, 64
3, 78240, Note_on_c, 0, 75, 0
3, 78240, Note_on_c, 0, 70, 64
3, 78480, Note_on_c, 0, 70, 0
3, 78480, Note_on_c, 0, 69, 64
3, 78720, Note_on_c, 0, 69, 0
3, 78960, Note_on_c, 0, 72, 64
3, 79320, Note_on_c, 0, 72, 0
3, 79320, Note_on_c, 0, 58, 64
3, 79440, Note_on_c, 0, 58, 0
3, 79440, Note_on_c, 0, 62, 64
3, 79560, Note_on_c, 0, 62, 0
3, 79560, Note_on_c, 0, 65, 64
3, 79680, Note_on_c, 0, 65, 0
3, 79680, Note_on_c, 0, 68, 64
3, 79800, Note_on_c, 0, 68, 0
3, 79800, Note_on_c, 0, 72, 64
3, 79920, Note_on_c, 0, 72, 0
3, 79920, Note_on_c, 0, 70, 64
3, 80040, Note_on_c, 0, 70, 0
3, 80040, Note_on_c, 0, 68, 64
3, 80160, Note_on_c, 0, 68, 0
3, 80160, Note_on_c, 0, 77, 64
3, 80280, Note_on_c, 0, 77, 0
3, 80280, Note_on_c, 0, 72, 64
3, 80400, Note_on_c, 0, 72, 0
3, 80400, Note_on_c, 0, 70, 64
3, 80520, Note_on_c, 0, 70, 0
3, 80520, Note_on_c, 0, 68, 64
3, 80640, Note_on_c, 0, 68, 0
3, 80640, Note_on_c, 0, 67, 64
3, 81000, Note_on_c, 0, 67, 0
3, 81000, Note_on_c, 0, 68, 64
3, 81120, Note_on_c, 0, 68, 0
3, 81120, Note_on_c, 0, 63, 64
3, 81360, Note_on_c, 0, 63, 0
3, 81360, Note_on_c, 0, 62, 64
3, 81840, Note_on_c, 0, 62, 0
3, 81840, Note_on_c, 0, 71, 64
3, 82080, Note_on_c, 0, 71, 0
3, 82080, Note_on_c, 0, 72, 64
3, 82440, Note_on_c, 0, 72, 0
3, 82440, Note_on_c, 0, 68, 64
3, 82560, Note_on_c, 0, 68, 0
3, 82560, Note_on_c, 0, 63, 64
3, 83040, Note_on_c, 0, 63, 0
3, 83040, Note_on_c, 0, 63, 64
3, 83080, Note_on_c, 0, 63, 0
3, 83080, Note_on_c, 0, 62, 64
3, 83120, Note_on_c, 0, 62, 0
3, 83120, Note_on_c, 0, 63, 64
3, 83160, Note_on_c, 0, 63, 0
3, 83160, Note_on_c, 0, 62, 64
3, 83190, Note_on_c, 0, 62, 0
3, 83190, Note_on_c, 0, 63, 64
3, 83220, Note_on_c, 0, 63, 0
3, 83220, Note_on_c, 0, 62, 64
3, 83250, Note_on_c, 0, 62, 0
3, 83250, Note_on_c, 0, 63, 64
3, 83280, Note_on_c, 0, 63, 0
3, 83280, Note_on_c, 0, 62, 64
3, 83400, Note_on_c, 0, 62, 0
3, 83400, Note_on_c, 0, 60, 64
3, 83520, Note_on_c, 0, 60, 0
3, 83520, Note_on_c, 0, 60, 64
3, 83640, Note_on_c, 0, 60, 0
3, 83640, Note_on_c, 0, 63, 64
3, 83760, Note_on_c, 0, 63, 0
3, 83760, Note_on_c, 0, 67, 64
3, 83880, Note_on_c, 0, 67, 0
3, 83880, Note_on_c, 0, 72, 64
3, 84000, Note_on_c, 0, 72, 0
3, 84000, Note_on_c, 0, 77, 64
3, 84120, Note_on_c, 0, 77, 0
3, 84120, Note_on_c, 0, 80, 64
3, 84240, Note_on_c, 0, 80, 0
3, 84240, Note_on_c, 0, 80, 64
3, 84360, Note_on_c, 0, 80, 0
3, 84360, Note_on_c, 0, 79, 64
3, 84480, Note_on_c, 0, 79, 0
3, 84480, Note_on_c, 0, 79, 64
3, 84600, Note_on_c, 0, 79, 0
3, 84600, Note_on_c, 0, 77, 64
3, 84720, Note_on_c, 0, 77, 0
3, 84720, Note_on_c, 0, 77, 64
3, 84840, Note_on_c, 0, 77, 0
3, 84840, Note_on_c, 0, 76, 64
3, 84960, Note_on_c, 0, 76, 0
3, 84960, Note_on_c, 0, 76, 64
3, 85440, Note_on_c, 0, 76, 0
3, 85680, Note_on_c, 0, 64, 64
3, 85920, Note_on_c, 0, 64, 0
3, 85920, Note_on_c, 0, 65, 64
3, 85980, Note_on_c, 0, 65, 0
3, 85980, Note_on_c, 0, 64, 64
3, 86040, Note_on_c, 0, 64, 0
3, 86040, Note_on_c, 0, 65, 64
3, 86100, Note_on_c, 0, 65, 0
3, 86100, Note_on_c, 0, 64, 64
3, 86160, Note_on_c, 0, 64, 0
3, 86160, Note_on_c, 0, 65, 64
3, 86220, Note_on_c, 0, 65, 0
3, 86220, Note_on_c, 0, 64, 64
3, 86280, Note_on_c, 0, 64, 0
3, 86280, Note_on_c, 0, 62, 64
3, 86340, Note_on_c, 0, 62, 0
3, 86340, Note_on_c, 0, 64, 64
3, 86400, Note_on_c, 0, 64, 0
3, 86400, Note_on_c, 0, 65, 64
3, 86520, Note_on_c, 0, 65, 0
3, 86520, Note_on_c, 0, 80, 64
3, 86640, Note_on_c, 0, 80, 0
3, 86640, Note_on_c, 0, 72, 64
3, 86760, Note_on_c, 0, 72, 0
3, 86760, Note_on_c, 0, 73, 64
3, 86880, Note_on_c, 0, 73, 0
3, 87000, Note_on_c, 0, 77, 64
3, 87120, Note_on_c, 0, 77, 0
3, 87120, Note_on_c, 0, 67, 64
3, 87240, Note_on_c, 0, 67, 0
3, 87240, Note_on_c, 0, 68, 64
3, 87360, Note_on_c, 0, 68, 0
3, 87480, Note_on_c, 0, 73, 64
3, 87600, Note_on_c, 0, 73, 0
3, 87600, Note_on_c, 0, 64, 64
3, 87720, Note_on_c, 0, 64, 0
3, 87720, Note_on_c, 0, 65, 64
3, 87840, Note_on_c, 0, 65, 0
3, 87840, Note_on_c, 0, 65, 64
3, 88080, Note_on_c, 0, 65, 0
3, 88080, Note_on_c, 0, 71, 64
3, 88320, Note_on_c, 0, 71, 0
3, 88320, Note_on_c, 0, 74, 64
3, 88560, Note_on_c, 0, 74, 0
3, 88560, Note_on_c, 0, 77, 64
3, 88800, Note_on_c, 0, 77, 0
3, 88800, Note_on_c, 0, 80, 64
3, 88920, Note_on_c, 0, 80, 0
3, 88920, Note_on_c, 0, 77, 64
3, 89040, Note_on_c, 0, 77, 0
3, 89040, Note_on_c, 0, 75, 64
3, 89160, Note_on_c, 0, 75, 0
3, 89160, Note_on_c, 0, 74, 64
3, 89280, Note_on_c, 0, 74, 0
3, 89280, Note_on_c, 0, 79, 64
3, 89640, Note_on_c, 0, 79, 0
3, 89640, Note_on_c, 0, 69, 64
3, 89760, Note_on_c, 0, 69, 0
3, 89760, Note_on_c, 0, 72, 64
3, 89800, Note_on_c, 0, 72, 0
3, 89800, Note_on_c, 0, 71, 64
3, 89840, Note_on_c, 0, 71, 0
3, 89840, Note_on_c, 0, 72, 64
3, 89880, Note_on_c, 0, 72, 0
3, 89880, Note_on_c, 0, 71, 64
3, 89920, Note_on_c, 0, 71, 0
3, 89920, Note_on_c, 0, 72, 64
3, 89960, Note_on_c, 0, 72, 0
3, 89960, Note_on_c, 0, 71, 64
3, 90000, Note_on_c, 0, 71, 0
3, 90000, Note_on_c, 0, 72, 64
3, 90040, Note_on_c, 0, 72, 0
3, 90040, Note_on_c, 0, 71, 64
3, 90080, Note_on_c, 0, 71, 0
3, 90080, Note_on_c, 0, 72, 64
3, 90120, Note_on_c, 0, 72, 0
3, 90120, Note_on_c, 0, 71, 64
3, 90160, Note_on_c, 0, 71, 0
3, 90160, Note_on_c, 0, 72, 64
3, 90200, Note_on_c, 0, 72, 0
3, 90200, Note_on_c, 0, 71, 64
3, 90480, Note_on_c, 0, 71, 0
3, 90480, Note_on_c, 0, 72, 64
3, 90720, Note_on_c, 0, 72, 0
3, 90720, Note_on_c, 0, 72, 64
3, 92160, Note_on_c, 0, 72, 0
3, 95040, Note_on_c, 0, 81, 64
3, 95400, Note_on_c, 0, 81, 0
3, 95400, Note_on_c, 0, 72, 64
3, 95520, Note_on_c, 0, 72, 0
3, 95520, Note_on_c, 0, 74, 64
3, 95560, Note_on_c, 0, 74, 0
3, 95560, Note_on_c, 0, 75, 64
3, 95600, Note_on_c, 0, 75, 0
3, 95600, Note_on_c, 0, 77, 64
3, 95640, Note_on_c, 0, 77, 0
3, 95640, Note_on_c, 0, 75, 64
3, 95680, Note_on_c, 0, 75, 0
3, 95680, Note_on_c, 0, 77, 64
3, 95720, Note_on_c, 0, 77, 0
3, 95720, Note_on_c, 0, 75, 64
3, 95760, Note_on_c, 0, 75, 0
3, 95760, Note_on_c, 0, 77, 64
3, 95800, Note_on_c, 0, 77, 0
3, 95800, Note_on_c, 0, 75, 64
3, 95840, Note_on_c, 0, 75, 0
3, 95840, Note_on_c, 0, 77, 64
3, 95880, Note_on_c, 0, 77, 0
3, 95880, Note_on_c, 0, 75, 64
3, 95910, Note_on_c, 0, 75, 0
3, 95910, Note_on_c, 0, 77, 64
3, 95940, Note_on_c, 0, 77, 0
3, 95940, Note_on_c, 0, 75, 64
3, 95970, Note_on_c, 0, 75, 0
3, 95970, Note_on_c, 0, 77, 64
3, 96000, Note_on_c, 0, 77, 0
3, 96000, Note_on_c, 0, 75, 64
3, 96240, Note_on_c, 0, 75, 0
3, 96240, Note_on_c, 0, 74, 64
3, 96480, Note_on_c, 0, 74, 0
3, 96480, Note_on_c, 0, 74, 64
3, 96600, Note_on_c, 0, 74, 0
3, 96600, Note_on_c, 0, 64, 64
3, 96720, Note_on_c, 0, 64, 0
3, 96720, Note_on_c, 0, 65, 64
3, 96840, Note_on_c, 0, 65, 0
3, 96840, Note_on_c, 0, 69, 64
3, 96960, Note_on_c, 0, 69, 0
3, 96960, Note_on_c, 0, 70, 64
3, 97080, Note_on_c, 0, 70, 0
3, 97080, Note_on_c, 0, 74, 64
3, 97200, Note_on_c, 0, 74, 0
3, 97200, Note_on_c, 0, 77, 64
3, 97320, Note_on_c, 0, 77, 0
3, 97320, Note_on_c, 0, 76, 64
3, 97440, Note_on_c, 0, 76, 0
3, 97440, Note_on_c, 0, 77, 64
3, 98040, Note_on_c, 0, 77, 0
3, 98040, Note_on_c, 0, 86, 64
3, 98160, Note_on_c, 0, 86, 0
3, 98160, Note_on_c, 0, 76, 64
3, 98280, Note_on_c, 0, 76, 0
3, 98280, Note_on_c, 0, 77, 64
3, 98400, Note_on_c, 0, 77, 0
3, 98520, Note_on_c, 0, 80, 64
3, 98640, Note_on_c, 0, 80, 0
3, 98640, Note_on_c, 0, 71, 64
3, 98760, Note_on_c, 0, 71, 0
3, 98760, Note_on_c, 0, 72, 64
3, 98880, Note_on_c, 0, 72, 0
3, 99000, Note_on_c, 0, 77, 64
3, 99120, Note_on_c, 0, 77, 0
3, 99120, Note_on_c, 0, 67, 64
3, 99240, Note_on_c, 0, 67, 0
3, 99240, Note_on_c, 0, 68, 64
3, 99360, Note_on_c, 0, 68, 0
3, 99360, Note_on_c, 0, 67, 64
3, 99840, Note_on_c, 0, 67, 0
3, 100080, Note_on_c, 0, 72, 64
3, 100320, Note_on_c, 0, 72, 0
3, 100320, Note_on_c, 0, 67, 64
3, 100380, Note_on_c, 0, 67, 0
3, 100380, Note_on_c, 0, 66, 64
3, 100440, Note_on_c, 0, 66, 0
3, 100440, Note_on_c, 0, 67, 64
3, 100500, Note_on_c, 0, 67, 0
3, 100500, Note_on_c, 0, 66, 64
3, 100560, Note_on_c, 0, 66, 0
3, 100560, Note_on_c, 0, 67, 64
3, 100620, Note_on_c, 0, 67, 0
3, 100620, Note_on_c, 0, 66, 64
3, 100680, Note_on_c, 0, 66, 0
3, 100680, Note_on_c, 0, 64, 64
3, 100740, Note_on_c, 0, 64, 0
3, 100740, Note_on_c, 0, 66, 64
3, 100800, Note_on_c, 0, 66, 0
3, 100800, Note_on_c, 0, 67, 64
3, 101520, Note_on_c, 0, 67, 0
3, 101520, Note_on_c, 0, 55, 64
3, 101760, Note_on_c, 0, 55, 0
3, 101760, Note_on_c, 0, 60, 64
3, 101880, Note_on_c, 0, 60, 0
3, 101880, Note_on_c, 0, 58, 64
3, 102000, Note_on_c, 0, 58, 0
3, 102000, Note_on_c, 0, 57, 64
3, 102120, Note_on_c, 0, 57, 0
3, 102120, Note_on_c, 0, 58, 64
3, 102240, Note_on_c, 0, 58, 0
3, 102240, Note_on_c, 0, 57, 64
3, 102720, Note_on_c, 0, 57, 0
3, 102960, Note_on_c, 0, 81, 64
3, 103200, Note_on_c, 0, 81, 0
3, 103200, Note_on_c, 0, 82, 64
3, 103440, Note_on_c, 0, 82, 0
3, 103440, Note_on_c, 0, 84, 64
3, 103680, Note_on_c, 0, 84, 0
3, 103680, Note_on_c, 0, 86, 64
3, 104040, Note_on_c, 0, 86, 0
3, 104040, Note_on_c, 0, 74, 64
3, 104160, Note_on_c, 0, 74, 0
3, 104160, Note_on_c, 0, 75, 64
3, 104200, Note_on_c, 0, 75, 0
3, 104200, Note_on_c, 0, 77, 64
3, 104240, Note_on_c, 0, 77, 0
3, 104240, Note_on_c, 0, 79, 64
3, 104280, Note_on_c, 0, 79, 0
3, 104280, Note_on_c, 0, 77, 64
3, 104320, Note_on_c, 0, 77, 0
3, 104320, Note_on_c, 0, 79, 64
3, 104360, Note_on_c, 0, 79, 0
3, 104360, Note_on_c, 0, 77, 64
3, 104400, Note_on_c, 0, 77, 0
3, 104400, Note_on_c, 0, 79, 64
3, 104440, Note_on_c, 0, 79, 0
3, 104440, Note_on_c, 0, 77, 64
3, 104480, Note_on_c, 0, 77, 0
3, 104480, Note_on_c, 0, 79, 64
3, 104520, Note_on_c, 0, 79, 0
3, 104520, Note_on_c, 0, 77, 64
3, 104550, Note_on_c, 0, 77, 0
3, 104550, Note_on_c, 0, 79, 64
3, 104580, Note_on_c, 0, 79, 0
3, 104580, Note_on_c, 0, 77, 64
3, 104610, Note_on_c, 0, 77, 0
3, 104610, Note_on_c, 0, 79, 64
3, 104640, Note_on_c, 0, 79, 0
3, 104640, Note_on_c, 0, 77, 64
3, 104880, Note_on_c, 0, 77, 0
3, 104880, Note_on_c, 0, 75, 64
3, 105120, Note_on_c, 0, 75, 0
3, 105120, Note_on_c, 0, 75, 64
3, 105240, Note_on_c, 0, 75, 0
3, 105240, Note_on_c, 0, 77, 64
3, 105360, Note_on_c, 0, 77, 0
3, 105360, Note_on_c, 0, 75, 64
3, 105480, Note_on_c, 0, 75, 0
3, 105480, Note_on_c, 0, 74, 64
3, 105600, Note_on_c, 0, 74, 0
3, 105600, Note_on_c, 0, 74, 64
3, 105720, Note_on_c, 0, 74, 0
3, 105720, Note_on_c, 0, 75, 64
3, 105840, Note_on_c, 0, 75, 0
3, 105840, Note_on_c, 0, 74, 64
3, 105960, Note_on_c, 0, 74, 0
3, 105960, Note_on_c, 0, 72, 64
3, 106080, Note_on_c, 0, 72, 0
3, 106080, Note_on_c, 0, 72, 64
3, 106920, Note_on_c, 0, 72, 0
3, 106920, Note_on_c, 0, 63, 64
3, 107040, Note_on_c, 0, 63, 0
3, 107040, Note_on_c, 0, 63, 64
3, 107880, Note_on_c, 0, 63, 0
3, 107880, Note_on_c, 0, 75, 64
3, 108000, Note_on_c, 0, 75, 0
3, 108000, Note_on_c, 0, 74, 64
3, 108360, Note_on_c, 0, 74, 0
3, 108360, Note_on_c, 0, 82, 64
3, 108480, Note_on_c, 0, 82, 0
3, 108480, Note_on_c, 0, 79, 64
3, 108960, Note_on_c, 0, 79, 0
3, 108960, Note_on_c, 0, 79, 64
3, 109000, Note_on_c, 0, 79, 0
3, 109000, Note_on_c, 0, 78, 64
3, 109040, Note_on_c, 0, 78, 0
3, 109040, Note_on_c, 0, 79, 64
3, 109080, Note_on_c, 0, 79, 0
3, 109080, Note_on_c, 0, 78, 64
3, 109110, Note_on_c, 0, 78, 0
3, 109110, Note_on_c, 0, 79, 64
3, 109140, Note_on_c, 0, 79, 0
3, 109140, Note_on_c, 0, 78, 64
3, 109170, Note_on_c, 0, 78, 0
3, 109170, Note_on_c, 0, 79, 64
3, 109200, Note_on_c, 0, 79, 0
3, 109200, Note_on_c, 0, 78, 64
3, 109320, Note_on_c, 0, 78, 0
3, 109320, Note_on_c, 0, 79, 64
3, 109440, Note_on_c, 0, 79, 0
3, 109440, Note_on_c, 0, 79, 64
3, 109560, Note_on_c, 0, 79, 0
3, 109560, Note_on_c, 0, 82, 64
3, 109680, Note_on_c, 0, 82, 0
3, 109680, Note_on_c, 0, 73, 64
3, 109800, Note_on_c, 0, 73, 0
3, 109800, Note_on_c, 0, 74, 64
3, 109920, Note_on_c, 0, 74, 0
3, 110040, Note_on_c, 0, 79, 64
3, 110160, Note_on_c, 0, 79, 0
3, 110160, Note_on_c, 0, 69, 64
3, 110280, Note_on_c, 0, 69, 0
3, 110280, Note_on_c, 0, 70, 64
3, 110400, Note_on_c, 0, 70, 0
3, 110520, Note_on_c, 0, 74, 64
3, 110640, Note_on_c, 0, 74, 0
3, 110640, Note_on_c, 0, 66, 64
3, 110760, Note_on_c, 0, 66, 0
3, 110760, Note_on_c, 0, 67, 64
3, 110880, Note_on_c, 0, 67, 0
3, 110880, Note_on_c, 0, 67, 64
3, 111000, Note_on_c, 0, 67, 0
3, 111000, Note_on_c, 0, 74, 64
3, 111120, Note_on_c, 0, 74, 0
3, 111120, Note_on_c, 0, 71, 64
3, 111240, Note_on_c, 0, 71, 0
3, 111240, Note_on_c, 0, 72, 64
3, 111360, Note_on_c, 0, 72, 0
3, 111360, Note_on_c, 0, 80, 64
3, 111600, Note_on_c, 0, 80, 0
3, 111600, Note_on_c, 0, 77, 64
3, 111840, Note_on_c, 0, 77, 0
3, 111840, Note_on_c, 0, 71, 64
3, 112080, Note_on_c, 0, 71, 0
3, 112080, Note_on_c, 0, 65, 64
3, 112320, Note_on_c, 0, 65, 0
3, 112320, Note_on_c, 0, 65, 64
3, 112440, Note_on_c, 0, 65, 0
3, 112440, Note_on_c, 0, 63, 64
3, 112560, Note_on_c, 0, 63, 0
3, 112560, Note_on_c, 0, 62, 64
3, 112680, Note_on_c, 0, 62, 0
3, 112680, Note_on_c, 0, 60, 64
3, 112800, Note_on_c, 0, 60, 0
3, 112800, Note_on_c, 0, 67, 64
3, 113880, Note_on_c, 0, 67, 0
3, 113880, Note_on_c, 0, 60, 64
3, 114000, Note_on_c, 0, 60, 0
3, 114000, Note_on_c, 0, 70, 64
3, 114120, Note_on_c, 0, 70, 0
3, 114120, Note_on_c, 0, 68, 64
3, 114240, Note_on_c, 0, 68, 0
3, 114360, Note_on_c, 0, 64, 64
3, 114480, Note_on_c, 0, 64, 0
3, 114480, Note_on_c, 0, 73, 64
3, 114600, Note_on_c, 0, 73, 0
3, 114600, Note_on_c, 0, 72, 64
3, 114720, Note_on_c, 0, 72, 0
3, 114840, Note_on_c, 0, 67, 64
3, 114960, Note_on_c, 0, 67, 0
3, 114960, Note_on_c, 0, 77, 64
3, 115080, Note_on_c, 0, 77, 0
3, 115080, Note_on_c, 0, 76, 64
3, 115200, Note_on_c, 0, 76, 0
3, 115200, Note_on_c, 0, 77, 64
3, 115680, Note_on_c, 0, 77, 0
3, 118080, Note_on_c, 0, 67, 64
3, 118440, Note_on_c, 0, 67, 0
3, 118440, Note_on_c, 0, 75, 64
3, 118560, Note_on_c, 0, 75, 0
3, 118560, Note_on_c, 0, 72, 64
3, 118600, Note_on_c, 0, 72, 0
3, 118600, Note_on_c, 0, 71, 64
3, 118640, Note_on_c, 0, 71, 0
3, 118640, Note_on_c, 0, 72, 64
3, 118680, Note_on_c, 0, 72, 0
3, 118680, Note_on_c, 0, 71, 64
3, 118720, Note_on_c, 0, 71, 0
3, 118720, Note_on_c, 0, 72, 64
3, 118760, Note_on_c, 0, 72, 0
3, 118760, Note_on_c, 0, 71, 64
3, 118800, Note_on_c, 0, 71, 0
3, 118800, Note_on_c, 0, 72, 64
3, 118840, Note_on_c, 0, 72, 0
3, 118840, Note_on_c, 0, 71, 64
3, 118880, Note_on_c, 0, 71, 0
3, 118880, Note_on_c, 0, 72, 64
3, 118920, Note_on_c, 0, 72, 0
3, 118920, Note_on_c, 0, 71, 64
3, 118960, Note_on_c, 0, 71, 0
3, 118960, Note_on_c, 0, 72, 64
3, 119000, Note_on_c, 0, 72, 0
3, 119000, Note_on_c, 0, 71, 64
3, 119280, Note_on_c, 0, 71, 0
3, 119280, Note_on_c, 0, 72, 64
3, 119520, Note_on_c, 0, 72, 0
3, 119520, Note_on_c, 0, 72, 64
3, 120240, Note_on_c, 0, 72, 0
3, 120240, Note_on_c, 0, 71, 64
3, 120360, Note_on_c, 0, 71, 0
3, 120360, Note_on_c, 0, 69, 64
3, 120480, Note_on_c, 0, 69, 0
3, 120480, Note_on_c, 0, 74, 64
3, 120600, Note_on_c, 0, 74, 0
3, 120600, Note_on_c, 0, 72, 64
3, 120720, Note_on_c, 0, 72, 0
3, 120720, Note_on_c, 0, 71, 64
3, 120840, Note_on_c, 0, 71, 0
3, 120840, Note_on_c, 0, 69, 64
3, 120960, Note_on_c, 0, 69, 0
3, 120960, Note_on_c, 0, 71, 64
3, 121440, Note_on_c, 0, 71, 0
3, 122520, Note_on_c, 0, 60, 64
3, 122640, Note_on_c, 0, 60, 0
3, 122640, Note_on_c, 0, 63, 64
3, 122760, Note_on_c, 0, 63, 0
3, 122760, Note_on_c, 0, 67, 64
3, 122880, Note_on_c, 0, 67, 0
3, 122880, Note_on_c, 0, 70, 64
3, 123000, Note_on_c, 0, 70, 0
3, 123000, Note_on_c, 0, 73, 64
3, 123120, Note_on_c, 0, 73, 0
3, 123120, Note_on_c, 0, 72, 64
3, 123240, Note_on_c, 0, 72, 0
3, 123240, Note_on_c, 0, 70, 64
3, 123360, Note_on_c, 0, 70, 0
3, 123360, Note_on_c, 0, 79, 64
3, 123480, Note_on_c, 0, 79, 0
3, 123480, Note_on_c, 0, 73, 64
3, 123600, Note_on_c, 0, 73, 0
3, 123600, Note_on_c, 0, 72, 64
3, 123720, Note_on_c, 0, 72, 0
3, 123720, Note_on_c, 0, 70, 64
3, 123840, Note_on_c, 0, 70, 0
3, 123840, Note_on_c, 0, 68, 64
3, 124200, Note_on_c, 0, 68, 0
3, 124200, Note_on_c, 0, 75, 64
3, 124320, Note_on_c, 0, 75, 0
3, 124320, Note_on_c, 0, 70, 64
3, 124560, Note_on_c, 0, 70, 0
3, 124560, Note_on_c, 0, 69, 64
3, 124800, Note_on_c, 0, 69, 0
3, 125040, Note_on_c, 0, 72, 64
3, 125400, Note_on_c, 0, 72, 0
3, 125400, Note_on_c, 0, 58, 64
3, 125520, Note_on_c, 0, 58, 0
3, 125520, Note_on_c, 0, 62, 64
3, 125640, Note_on_c, 0, 62, 0
3, 125640, Note_on_c, 0, 65, 64
3, 125760, Note_on_c, 0, 65, 0
3, 125760, Note_on_c, 0, 68, 64
3, 125880, Note_on_c, 0, 68, 0
3, 125880, Note_on_c, 0, 72, 64
3, 126000, Note_on_c, 0, 72, 0
3, 126000, Note_on_c, 0, 70, 64
3, 126120, Note_on_c, 0, 70, 0
3, 126120, Note_on_c, 0, 68, 64
3, 126240, Note_on_c, 0, 68, 0
3, 126240, Note_on_c, 0, 77, 64
3, 126360, Note_on_c, 0, 77, 0
3, 126360, Note_on_c, 0, 72, 64
3, 126480, Note_on_c, 0, 72, 0
3, 126480, Note_on_c, 0, 70, 64
3, 126600, Note_on_c, 0, 70, 0
3, 126600, Note_on_c, 0, 68, 64
3, 126720, Note_on_c, 0, 68, 0
3, 126720, Note_on_c, 0, 67, 64
3, 127080, Note_on_c, 0, 67, 0
3, 127080, Note_on_c, 0, 68, 64
3, 127200, Note_on_c, 0, 68, 0
3, 127200, Note_on_c, 0, 63, 64
3, 127440, Note_on_c, 0, 63, 0
3, 127440, Note_on_c, 0, 62, 64
3, 127920, Note_on_c, 0, 62, 0
3, 127920, Note_on_c, 0, 71, 64
3, 128160, Note_on_c, 0, 71, 0
3, 128160, Note_on_c, 0, 72, 64
3, 128520, Note_on_c, 0, 72, 0
3, 128520, Note_on_c, 0, 68, 64
3, 128640, Note_on_c, 0, 68, 0
3, 128640, Note_on_c, 0, 63, 64
3, 129120, Note_on_c, 0, 63, 0
3, 129120, Note_on_c, 0, 63, 64
3, 129160, Note_on_c, 0, 63, 0
3, 129160, Note_on_c, 0, 62, 64
3, 129200, Note_on_c, 0, 62, 0
3, 129200, Note_on_c, 0, 63, 64
3, 129240, Note_on_c, 0, 63, 0
3, 129240, Note_on_c, 0, 62, 64
3, 129270, Note_on_c, 0, 62, 0
3, 129270, Note_on_c, 0, 63, 64
3, 129300, Note_on_c, 0, 63, 0
3, 129300, Note_on_c, 0, 62, 64
3, 129330, Note_on_c, 0, 62, 0
3, 129330, Note_on_c, 0, 63, 64
3, 129360, Note_on_c, 0, 63, 0
3, 129360, Note_on_c, 0, 62, 64
3, 129480, Note_on_c, 0, 62, 0
3, 129480, Note_on_c, 0, 60, 64
3, 129600, Note_on_c, 0, 60, 0
3, 129600, Note_on_c, 0, 60, 64
3, 129720, Note_on_c, 0, 60, 0
3, 129720, Note_on_c, 0, 63, 64
3, 129840, Note_on_c, 0, 63, 0
3, 129840, Note_on_c, 0, 67, 64
3, 129960, Note_on_c, 0, 67, 0
3, 129960, Note_on_c, 0, 72, 64
3, 130080, Note_on_c, 0, 72, 0
3, 130080, Note_on_c, 0, 77, 64
3, 130200, Note_on_c, 0, 77, 0
3, 130200, Note_on_c, 0, 80, 64
3, 130320, Note_on_c, 0, 80, 0
3, 130320, Note_on_c, 0, 80, 64
3, 130440, Note_on_c, 0, 80, 0
3, 130440, Note_on_c, 0, 79, 64
3, 130560, Note_on_c, 0, 79, 0
3, 130560, Note_on_c, 0, 79, 64
3, 130680, Note_on_c, 0, 79, 0
3, 130680, Note_on_c, 0, 77, 64
3, 130800, Note_on_c, 0, 77, 0
3, 130800, Note_on_c, 0, 77, 64
3, 130920, Note_on_c, 0, 77, 0
3, 130920, Note_on_c, 0, 76, 64
3, 131040, Note_on_c, 0, 76, 0
3, 131040, Note_on_c, 0, 76, 64
3, 131520, Note_on_c, 0, 76, 0
3, 131760, Note_on_c, 0, 64, 64
3, 132000, Note_on_c, 0, 64, 0
3, 132000, Note_on_c, 0, 65, 64
3, 132060, Note_on_c, 0, 65, 0
3, 132060, Note_on_c, 0, 64, 64
3, 132120, Note_on_c, 0, 64, 0
3, 132120, Note_on_c, 0, 65, 64
3, 132180, Note_on_c, 0, 65, 0
3, 132180, Note_on_c, 0, 64, 64
3, 132240, Note_on_c, 0, 64, 0
3, 132240, Note_on_c, 0, 65, 64
3, 132300, Note_on_c, 0, 65, 0
3, 132300, Note_on_c, 0, 64, 64
3, 132360, Note_on_c, 0, 64, 0
3, 132360, Note_on_c, 0, 62, 64
3, 132420, Note_on_c, 0, 62, 0
3, 132420, Note_on_c, 0, 64, 64
3, 132480, Note_on_c, 0, 64, 0
3, 132480, Note_on_c, 0, 65, 64
3, 132600, Note_on_c, 0, 65, 0
3, 132600, Note_on_c, 0, 80, 64
3, 132720, Note_on_c, 0, 80, 0
3, 132720, Note_on_c, 0, 72, 64
3, 132840, Note_on_c, 0, 72, 0
3, 132840, Note_on_c, 0, 73, 64
3, 132960, Note_on_c, 0, 73, 0
3, 133080, Note_on_c, 0, 77, 64
3, 133200, Note_on_c, 0, 77, 0
3, 133200, Note_on_c, 0, 67, 64
3, 133320, Note_on_c, 0, 67, 0
3, 133320, Note_on_c, 0, 68, 64
3, 133440, Note_on_c, 0, 68, 0
3, 133560, Note_on_c, 0, 73, 64
3, 133680, Note_on_c, 0, 73, 0
3, 133680, Note_on_c, 0, 64, 64
3, 133800, Note_on_c, 0, 64, 0
3, 133800, Note_on_c, 0, 65, 64
3, 133920, Note_on_c, 0, 65, 0
3, 133920, Note_on_c, 0, 65, 64
3, 134160, Note_on_c, 0, 65, 0
3, 134160, Note_on_c, 0, 71, 64
3, 134400, Note_on_c, 0, 71, 0
3, 134400, Note_on_c, 0, 74, 64
3, 134640, Note_on_c, 0, 74, 0
3, 134640, Note_on_c, 0, 77, 64
3, 134880, Note_on_c, 0, 77, 0
3, 134880, Note_on_c, 0, 80, 64
3, 135000, Note_on_c, 0, 80, 0
3, 135000, Note_on_c, 0, 77, 64
3, 135120, Note_on_c, 0, 77, 0
3, 135120, Note_on_c, 0, 75, 64
3, 135240, Note_on_c, 0, 75, 0
3, 135240, Note_on_c, 0, 74, 64
3, 135360, Note_on_c, 0, 74, 0
3, 135360, Note_on_c, 0, 79, 64
3, 135720, Note_on_c, 0, 79, 0
3, 135720, Note_on_c, 0, 69, 64
3, 135840, Note_on_c, 0, 69, 0
3, 135840, Note_on_c, 0, 72, 64
3, 135880, Note_on_c, 0, 72, 0
3, 135880, Note_on_c, 0, 71, 64
3, 135920, Note_on_c, 0, 71, 0
3, 135920, Note_on_c, 0, 72, 64
3, 135960, Note_on_c, 0, 72, 0
3, 135960, Note_on_c, 0, 71, 64
3, 136000, Note_on_c, 0, 71, 0
3, 136000, Note_on_c, 0, 72, 64
3, 136040, Note_on_c, 0, 72, 0
3, 136040, Note_on_c, 0, 71, 64
3, 136080, Note_on_c, 0, 71, 0
3, 136080, Note_on_c, 0, 72, 64
3, 136120, Note_on_c, 0, 72, 0
3, 136120, Note_on_c, 0, 71, 64
3, 136160, Note_on_c, 0, 71, 0
3, 136160, Note_on_c, 0, 72, 64
3, 136200, Note_on_c, 0, 72, 0
3, 136200, Note_on_c, 0, 71, 64
3, 136240, Note_on_c, 0, 71, 0
3, 136240, Note_on_c, 0, 72, 64
3, 136280, Note_on_c, 0, 72, 0
3, 136280, Note_on_c, 0, 71, 64
3, 136560, Note_on_c, 0, 71, 0
3, 136560, Note_on_c, 0, 72, 64
3, 136800, Note_on_c, 0, 72, 0
3, 136800, Note_on_c, 0, 72, 64
3, 138240, Note_on_c, 0, 72, 0
3, 138240, End_track
4, 0, Start_track
4, 0, Note_on_c, 0, 63, 40
4, 0, Note_on_c, 0, 67, 40
4, 0, Note_on_c, 0, 72, 40
4, 480, Note_on_c, 0, 72, 0
4, 480, Note_on_c, 0, 67, 0
4, 480, Note_on_c, 0, 63, 0
4, 480, Note_on_c, 0, 65, 40
4, 480, Note_on_c, 0, 67, 40
4, 480, Note_on_c, 0, 71, 40
4, 1440, Note_on_c, 0, 71, 0
4, 1440, Note_on_c, 0, 67, 0
4, 1440, Note_on_c, 0, 65, 0
4, 1440, Note_on_c, 0, 63, 40
4, 1440, Note_on_c, 0, 67, 40
4, 1440, Note_on_c, 0, 72, 40
4, 1920, Note_on_c, 0, 72, 0
4, 1920, Note_on_c, 0, 67, 0
4, 1920, Note_on_c, 0, 63, 0
4, 1920, Note_on_c, 0, 60, 40
4, 1920, Note_on_c, 0, 67, 40
4, 1920, Note_on_c, 0, 72, 40
4, 2400, Note_on_c, 0, 72, 0
4, 2400, Note_on_c, 0, 67, 0
4, 2400, Note_on_c, 0, 60, 0
4, 2400, Note_on_c, 0, 67, 40
4, 2400, Note_on_c, 0, 70, 40
4, 2400, Note_on_c, 0, 72, 40
4, 2880, Note_on_c, 0, 72, 0
4, 2880, Note_on_c, 0, 70, 0
4, 2880, Note_on_c, 0, 67, 0
4, 2880, Note_on_c, 0, 65, 40
4, 2880, Note_on_c, 0, 68, 40
4, 2880, Note_on_c, 0, 72, 40
4, 3360, Note_on_c, 0, 72, 0
4, 3360, Note_on_c, 0, 68, 0
4, 3360, Note_on_c, 0, 65, 0
4, 3360, Note_on_c, 0, 64, 40
4, 3360, Note_on_c, 0, 70, 40
4, 3360, Note_on_c, 0, 72, 40
4, 4320, Note_on_c, 0, 72, 0
4, 4320, Note_on_c, 0, 70, 0
4, 4320, Note_on_c, 0, 64, 0
4, 4320, Note_on_c, 0, 65, 40
4, 4320, Note_on_c, 0, 68, 40
4, 4320, Note_on_c, 0, 72, 40
4, 4800, Note_on_c, 0, 72, 0
4, 4800, Note_on_c, 0, 68, 0
4, 4800, Note_on_c, 0, 65, 0
4, 4800, Note_on_c, 0, 65, 40
4, 4800, Note_on_c, 0, 67, 40
4, 4800, Note_on_c, 0, 74, 40
4, 5760, Note_on_c, 0, 74, 0
4, 5760, Note_on_c, 0, 67, 0
4, 5760, Note_on_c, 0, 65, 0
4, 5760, Note_on_c, 0, 63, 40
4, 5760, Note_on_c, 0, 67, 40
4, 5760, Note_on_c, 0, 72, 40
4, 6240, Note_on_c, 0, 72, 0
4, 6240, Note_on_c, 0, 67, 0
4, 6240, Note_on_c, 0, 63, 0
4, 6240, Note_on_c, 0, 63, 40
4, 6240, Note_on_c, 0, 69, 40
4, 6240, Note_on_c, 0, 72, 40
4, 6960, Note_on_c, 0, 72, 0
4, 6960, Note_on_c, 0, 69, 0
4, 6960, Note_on_c, 0, 63, 0
4, 6960, Note_on_c, 0, 62, 40
4, 6960, Note_on_c, 0, 67, 40
4, 6960, Note_on_c, 0, 71, 40
4, 7200, Note_on_c, 0, 71, 0
4, 7200, Note_on_c, 0, 67, 0
4, 7200, Note_on_c, 0, 62, 0
4, 7200, Note_on_c, 0, 62, 40
4, 7200, Note_on_c, 0, 67, 40
4, 7200, Note_on_c, 0, 71, 40
4, 7680, Note_on_c, 0, 71, 0
4, 7680, Note_on_c, 0, 67, 0
4, 7680, Note_on_c, 0, 62, 0
4, 8160, Note_on_c, 0, 62, 40
4, 8160, Note_on_c, 0, 67, 40
4, 8160, Note_on_c, 0, 71, 40
4, 8640, Note_on_c, 0, 71, 0
4, 8640, Note_on_c, 0, 67, 0
4, 8640, Note_on_c, 0, 62, 0
4, 8640, Note_on_c, 0, 63, 40
4, 8640, Note_on_c, 0, 67, 40
4, 8640, Note_on_c, 0, 72, 40
4, 9120, Note_on_c, 0, 72, 0
4, 9120, Note_on_c, 0, 67, 0
4, 9120, Note_on_c, 0, 63, 0
4, 9600, Note_on_c, 0, 62, 40
4, 9600, Note_on_c, 0, 66, 40
4, 9600, Note_on_c, 0, 69, 40
4, 9600, Note_on_c, 0, 72, 40
4, 10080, Note_on_c, 0, 72, 0
4, 10080, Note_on_c, 0, 62, 0
4, 10080, Note_on_c, 0, 66, 0
4, 10080, Note_on_c, 0, 69, 0
4, 10080, Note_on_c, 0, 62, 40
4, 10080, Note_on_c, 0, 67, 40
4, 10080, Note_on_c, 0, 71, 40
4, 10560, Note_on_c, 0, 71, 0
4, 10560, Note_on_c, 0, 67, 0
4, 10560, Note_on_c, 0, 62, 0
4, 10560, Note_on_c, 0, 62, 40
4, 10560, Note_on_c, 0, 67, 40
4, 10560, Note_on_c, 0, 71, 40
4, 11520, Note_on_c, 0, 71, 0
4, 11520, Note_on_c, 0, 67, 0
4, 11520, Note_on_c, 0, 62, 0
4, 11520, Note_on_c, 0, 60, 40
4, 11520, Note_on_c, 0, 67, 40
4, 11520, Note_on_c, 0, 72, 40
4, 12000, Note_on_c, 0, 72, 0
4, 12000, Note_on_c, 0, 67, 0
4, 12000, Note_on_c, 0, 60, 0
4, 12000, Note_on_c, 0, 64, 40
4, 12000, Note_on_c, 0, 67, 40
4, 12000, Note_on_c, 0, 72, 40
4, 12960, Note_on_c, 0, 72, 0
4, 12960, Note_on_c, 0, 67, 0
4, 12960, Note_on_c, 0, 64, 0
4, 12960, Note_on_c, 0, 65, 40
4, 12960, Note_on_c, 0, 68, 40
4, 12960, Note_on_c, 0, 72, 40
4, 13920, Note_on_c, 0, 72, 0
4, 13920, Note_on_c, 0, 68, 0
4, 13920, Note_on_c, 0, 65, 0
4, 13920, Note_on_c, 0, 65, 40
4, 13920, Note_on_c, 0, 68, 40
4, 13920, Note_on_c, 0, 72, 40
4, 14400, Note_on_c, 0, 72, 0
4, 14400, Note_on_c, 0, 68, 0
4, 14400, Note_on_c, 0, 65, 0
4, 14400, Note_on_c, 0, 65, 40
4, 14400, Note_on_c, 0, 68, 40
4, 14400, Note_on_c, 0, 74, 40
4, 15840, Note_on_c, 0, 74, 0
4, 15840, Note_on_c, 0, 68, 0
4, 15840, Note_on_c, 0, 65, 0
4, 15840, Note_on_c, 0, 63, 40
4, 15840, Note_on_c, 0, 67, 40
4, 15840, Note_on_c, 0, 74, 40
4, 16320, Note_on_c, 0, 74, 0
4, 16320, Note_on_c, 0, 67, 0
4, 16320, Note_on_c, 0, 63, 0
4, 16320, Note_on_c, 0, 63, 40
4, 16320, Note_on_c, 0, 67, 40
4, 16320, Note_on_c, 0, 73, 40
4, 17280, Note_on_c, 0, 73, 0
4, 17280, Note_on_c, 0, 67, 0
4, 17280, Note_on_c, 0, 63, 0
4, 17280, Note_on_c, 0, 63, 40
4, 17280, Note_on_c, 0, 67, 40
4, 17280, Note_on_c, 0, 72, 40
4, 17760, Note_on_c, 0, 72, 0
4, 17760, Note_on_c, 0, 67, 0
4, 17760, Note_on_c, 0, 63, 0
4, 17760, Note_on_c, 0, 60, 40
4, 17760, Note_on_c, 0, 65, 40
4, 17760, Note_on_c, 0, 72, 40
4, 18240, Note_on_c, 0, 72, 0
4, 18240, Note_on_c, 0, 65, 0
4, 18240, Note_on_c, 0, 60, 0
4, 18480, Note_on_c, 0, 63, 40
4, 18480, Note_on_c, 0, 68, 40
4, 18480, Note_on_c, 0, 72, 40
4, 18720, Note_on_c, 0, 72, 0
4, 18720, Note_on_c, 0, 68, 0
4, 18720, Note_on_c, 0, 63, 0
4, 18720, Note_on_c, 0, 65, 40
4, 18720, Note_on_c, 0, 68, 40
4, 18720, Note_on_c, 0, 74, 40
4, 19680, Note_on_c, 0, 74, 0
4, 19680, Note_on_c, 0, 68, 0
4, 19680, Note_on_c, 0, 65, 0
4, 19920, Note_on_c, 0, 65, 40
4, 19920, Note_on_c, 0, 70, 40
4, 19920, Note_on_c, 0, 74, 40
4, 20160, Note_on_c, 0, 74, 0
4, 20160, Note_on_c, 0, 70, 0
4, 20160, Note_on_c, 0, 65, 0
4, 20160, Note_on_c, 0, 67, 40
4, 20160, Note_on_c, 0, 70, 40
4, 20160, Note_on_c, 0, 75, 40
4, 20400, Note_on_c, 0, 75, 0
4, 20400, Note_on_c, 0, 70, 0
4, 20400, Note_on_c, 0, 67, 0
4, 20400, Note_on_c, 0, 67, 40
4, 20400, Note_on_c, 0, 72, 40
4, 20400, Note_on_c, 0, 75, 40
4, 20640, Note_on_c, 0, 75, 0
4, 20640, Note_on_c, 0, 72, 0
4, 20640, Note_on_c, 0, 67, 0
4, 20640, Note_on_c, 0, 65, 40
4, 20640, Note_on_c, 0, 70, 40
4, 20640, Note_on_c, 0, 74, 40
4, 21600, Note_on_c, 0, 74, 0
4, 21600, Note_on_c, 0, 70, 0
4, 21600, Note_on_c, 0, 65, 0
4, 21600, Note_on_c, 0, 67, 40
4, 21600, Note_on_c, 0, 70, 40
4, 21600, Note_on_c, 0, 75, 40
4, 22560, Note_on_c, 0, 75, 0
4, 22560, Note_on_c, 0, 70, 0
4, 22560, Note_on_c, 0, 67, 0
4, 23040, Note_on_c, 0, 63, 40
4, 23040, Note_on_c, 0, 67, 40
4, 23040, Note_on_c, 0, 72, 40
4, 23520, Note_on_c, 0, 72, 0
4, 23520, Note_on_c, 0, 67, 0
4, 23520, Note_on_c, 0, 63, 0
4, 23520, Note_on_c, 0, 65, 40
4, 23520, Note_on_c, 0, 67, 40
4, 23520, Note_on_c, 0, 71, 40
4, 24480, Note_on_c, 0, 71, 0
4, 24480, Note_on_c, 0, 67, 0
4, 24480, Note_on_c, 0, 65, 0
4, 24480, Note_on_c, 0, 63, 40
4, 24480, Note_on_c, 0, 67, 40
4, 24480, Note_on_c, 0, 72, 40
4, 24960, Note_on_c, 0, 72, 0
4, 24960, Note_on_c, 0, 67, 0
4, 24960, Note_on_c, 0, 63, 0
4, 24960, Note_on_c, 0, 60, 40
4, 24960, Note_on_c, 0, 67, 40
4, 24960, Note_on_c, 0, 72, 40
4, 25440, Note_on_c, 0, 72, 0
4, 25440, Note_on_c, 0, 67, 0
4, 25440, Note_on_c, 0, 60, 0
4, 25440, Note_on_c, 0, 67, 40
4, 25440, Note_on_c, 0, 70, 40
4, 25440, Note_on_c, 0, 72, 40
4, 25920, Note_on_c, 0, 72, 0
4, 25920, Note_on_c, 0, 70, 0
4, 25920, Note_on_c, 0, 67, 0
4, 25920, Note_on_c, 0, 65, 40
4, 25920, Note_on_c, 0, 68, 40
4, 25920, Note_on_c, 0, 72, 40
4, 26400, Note_on_c, 0, 72, 0
4, 26400, Note_on_c, 0, 68, 0
4, 26400, Note_on_c, 0, 65, 0
4, 26400, Note_on_c, 0, 64, 40
4, 26400, Note_on_c, 0, 70, 40
4, 26400, Note_on_c, 0, 72, 40
4, 27360, Note_on_c, 0, 72, 0
4, 27360, Note_on_c, 0, 70, 0
4, 27360, Note_on_c, 0, 64, 0
4, 27360, Note_on_c, 0, 65, 40
4, 27360, Note_on_c, 0, 68, 40
4, 27360, Note_on_c, 0, 72, 40
4, 27840, Note_on_c, 0, 72, 0
4, 27840, Note_on_c, 0, 68, 0
4, 27840, Note_on_c, 0, 65, 0
4, 27840, Note_on_c, 0, 65, 40
4, 27840, Note_on_c, 0, 67, 40
4, 27840, Note_on_c, 0, 74, 40
4, 28800, Note_on_c, 0, 74, 0
4, 28800, Note_on_c, 0, 67, 0
4, 28800, Note_on_c, 0, 65, 0
4, 28800, Note_on_c, 0, 63, 40
4, 28800, Note_on_c, 0, 67, 40
4, 28800, Note_on_c, 0, 72, 40
4, 29280, Note_on_c, 0, 72, 0
4, 29280, Note_on_c, 0, 67, 0
4, 29280, Note_on_c, 0, 63, 0
4, 29280, Note_on_c, 0, 63, 40
4, 29280, Note_on_c, 0, 69, 40
4, 29280, Note_on_c, 0, 72, 40
4, 30000, Note_on_c, 0, 72, 0
4, 30000, Note_on_c, 0, 69, 0
4, 30000, Note_on_c, 0, 63, 0
4, 30000, Note_on_c, 0, 62, 40
4, 30000, Note_on_c, 0, 67, 40
4, 30000, Note_on_c, 0, 71, 40
4, 30240, Note_on_c, 0, 71, 0
4, 30240, Note_on_c, 0, 67, 0
4, 30240, Note_on_c, 0, 62, 0
4, 30240, Note_on_c, 0, 62, 40
4, 30240, Note_on_c, 0, 67, 40
4, 30240, Note_on_c, 0, 71, 40
4, 30720, Note_on_c, 0, 71, 0
4, 30720, Note_on_c, 0, 67, 0
4, 30720, Note_on_c, 0, 62, 0
4, 31200, Note_on_c, 0, 62, 40
4, 31200, Note_on_c, 0, 67, 40
4, 31200, Note_on_c, 0, 71, 40
4, 31680, Note_on_c, 0, 71, 0
4, 31680, Note_on_c, 0, 67, 0
4, 31680, Note_on_c, 0, 62, 0
4, 31680, Note_on_c, 0, 63, 40
4, 31680, Note_on_c, 0, 67, 40
4, 31680, Note_on_c, 0, 72, 40
4, 32160, Note_on_c, 0, 72, 0
4, 32160, Note_on_c, 0, 67, 0
4, 32160, Note_on_c, 0, 63, 0
4, 32640, Note_on_c, 0, 62, 40
4, 32640, Note_on_c, 0, 66, 40
4, 32640, Note_on_c, 0, 69, 40
4, 32640, Note_on_c, 0, 72, 40
4, 33120, Note_on_c, 0, 72, 0
4, 33120, Note_on_c, 0, 62, 0
4, 33120, Note_on_c, 0, 66, 0
4, 33120, Note_on_c, 0, 69, 0
4, 33120, Note_on_c, 0, 62, 40
4, 33120, Note_on_c, 0, 67, 40
4, 33120, Note_on_c, 0, 71, 40
4, 33600, Note_on_c, 0, 71, 0
4, 33600, Note_on_c, 0, 67, 0
4, 33600, Note_on_c, 0, 62, 0
4, 33600, Note_on_c, 0, 62, 40
4, 33600, Note_on_c, 0, 67, 40
4, 33600, Note_on_c, 0, 71, 40
4, 34560, Note_on_c, 0, 71, 0
4, 34560, Note_on_c, 0, 67, 0
4, 34560, Note_on_c, 0, 62, 0
4, 34560, Note_on_c, 0, 60, 40
4, 34560, Note_on_c, 0, 67, 40
4, 34560, Note_on_c, 0, 72, 40
4, 35040, Note_on_c, 0, 72, 0
4, 35040, Note_on_c, 0, 67, 0
4, 35040, Note_on_c, 0, 60, 0
4, 35040, Note_on_c, 0, 64, 40
4, 35040, Note_on_c, 0, 67, 40
4, 35040, Note_on_c, 0, 72, 40
4, 36000, Note_on_c, 0, 72, 0
4, 36000, Note_on_c, 0, 67, 0
4, 36000, Note_on_c, 0, 64, 0
4, 36000, Note_on_c, 0, 65, 40
4, 36000, Note_on_c, 0, 68, 40
4, 36000, Note_on_c, 0, 72, 40
4, 36960, Note_on_c, 0, 72, 0
4, 36960, Note_on_c, 0, 68, 0
4, 36960, Note_on_c, 0, 65, 0
4, 36960, Note_on_c, 0, 65, 40
4, 36960, Note_on_c, 0, 68, 40
4, 36960, Note_on_c, 0, 72, 40
4, 37440, Note_on_c, 0, 72, 0
4, 37440, Note_on_c, 0, 68, 0
4, 37440, Note_on_c, 0, 65, 0
4, 37440, Note_on_c, 0, 65, 40
4, 37440, Note_on_c, 0, 68, 40
4, 37440, Note_on_c, 0, 74, 40
4, 38880, Note_on_c, 0, 74, 0
4, 38880, Note_on_c, 0, 68, 0
4, 38880, Note_on_c, 0, 65, 0
4, 38880, Note_on_c, 0, 63, 40
4, 38880, Note_on_c, 0, 67, 40
4, 38880, Note_on_c, 0, 74, 40
4, 39360, Note_on_c, 0, 74, 0
4, 39360, Note_on_c, 0, 67, 0
4, 39360, Note_on_c, 0, 63, 0
4, 39360, Note_on_c, 0, 63, 40
4, 39360, Note_on_c, 0, 67, 40
4, 39360, Note_on_c, 0, 73, 40
4, 40320, Note_on_c, 0, 73, 0
4, 40320, Note_on_c, 0, 67, 0
4, 40320, Note_on_c, 0, 63, 0
4, 40320, Note_on_c, 0, 63, 40
4, 40320, Note_on_c, 0, 67, 40
4, 40320, Note_on_c, 0, 72, 40
4, 40800, Note_on_c, 0, 72, 0
4, 40800, Note_on_c, 0, 67, 0
4, 40800, Note_on_c, 0, 63, 0
4, 40800, Note_on_c, 0, 60, 40
4, 40800, Note_on_c, 0, 65, 40
4, 40800, Note_on_c, 0, 72, 40
4, 41280, Note_on_c, 0, 72, 0
4, 41280, Note_on_c, 0, 65, 0
4, 41280, Note_on_c, 0, 60, 0
4, 41520, Note_on_c, 0, 63, 40
4, 41520, Note_on_c, 0, 68, 40
4, 41520, Note_on_c, 0, 72, 40
4, 41760, Note_on_c, 0, 72, 0
4, 41760, Note_on_c, 0, 68, 0
4, 41760, Note_on_c, 0, 63, 0
4, 41760, Note_on_c, 0, 65, 40
4, 41760, Note_on_c, 0, 68, 40
4, 41760, Note_on_c, 0, 74, 40
4, 42720, Note_on_c, 0, 74, 0
4, 42720, Note_on_c, 0, 68, 0
4, 42720, Note_on_c, 0, 65, 0
4, 42960, Note_on_c, 0, 65, 40
4, 42960, Note_on_c, 0, 70, 40
4, 42960, Note_on_c, 0, 74, 40
4, 43200, Note_on_c, 0, 74, 0
4, 43200, Note_on_c, 0, 70, 0
4, 43200, Note_on_c, 0, 65, 0
4, 43200, Note_on_c, 0, 67, 40
4, 43200, Note_on_c, 0, 70, 40
4, 43200, Note_on_c, 0, 75, 40
4, 43440, Note_on_c, 0, 75, 0
4, 43440, Note_on_c, 0, 70, 0
4, 43440, Note_on_c, 0, 67, 0
4, 43440, Note_on_c, 0, 67, 40
4, 43440, Note_on_c, 0, 72, 40
4, 43440, Note_on_c, 0, 75, 40
4, 43680, Note_on_c, 0, 75, 0
4, 43680, Note_on_c, 0, 72, 0
4, 43680, Note_on_c, 0, 67, 0
4, 43680, Note_on_c, 0, 65, 40
4, 43680, Note_on_c, 0, 70, 40
4, 43680, Note_on_c, 0, 74, 40
4, 44640, Note_on_c, 0, 74, 0
4, 44640, Note_on_c, 0, 70, 0
4, 44640, Note_on_c, 0, 65, 0
4, 44640, Note_on_c, 0, 67, 40
4, 44640, Note_on_c, 0, 70, 40
4, 44640, Note_on_c, 0, 75, 40
4, 45600, Note_on_c, 0, 75, 0
4, 45600, Note_on_c, 0, 70, 0
4, 45600, Note_on_c, 0, 67, 0
4, 46080, Note_on_c, 0, 67, 40
4, 46080, Note_on_c, 0, 70, 40
4, 46080, Note_on_c, 0, 75, 40
4, 46560, Note_on_c, 0, 75, 0
4, 46560, Note_on_c, 0, 70, 0
4, 46560, Note_on_c, 0, 67, 0
4, 46560, Note_on_c, 0, 65, 40
4, 46560, Note_on_c, 0, 68, 40
4, 46560, Note_on_c, 0, 73, 40
4, 47040, Note_on_c, 0, 73, 0
4, 47040, Note_on_c, 0, 68, 0
4, 47040, Note_on_c, 0, 65, 0
4, 47040, Note_on_c, 0, 63, 40
4, 47040, Note_on_c, 0, 70, 40
4, 47040, Note_on_c, 0, 73, 40
4, 47520, Note_on_c, 0, 73, 0
4, 47520, Note_on_c, 0, 70, 0
4, 47520, Note_on_c, 0, 63, 0
4, 47520, Note_on_c, 0, 63, 40
4, 47520, Note_on_c, 0, 68, 40
4, 47520, Note_on_c, 0, 72, 40
4, 48480, Note_on_c, 0, 72, 0
4, 48480, Note_on_c, 0, 68, 0
4, 48480, Note_on_c, 0, 63, 0
4, 48480, Note_on_c, 0, 63, 40
4, 48480, Note_on_c, 0, 70, 40
4, 48480, Note_on_c, 0, 75, 40
4, 48960, Note_on_c, 0, 75, 0
4, 48960, Note_on_c, 0, 70, 0
4, 48960, Note_on_c, 0, 63, 0
4, 48960, Note_on_c, 0, 65, 40
4, 48960, Note_on_c, 0, 69, 40
4, 48960, Note_on_c, 0, 75, 40
4, 49440, Note_on_c, 0, 75, 0
4, 49440, Note_on_c, 0, 69, 0
4, 49440, Note_on_c, 0, 65, 0
4, 49440, Note_on_c, 0, 63, 40
4, 49440, Note_on_c, 0, 70, 40
4, 49440, Note_on_c, 0, 75, 40
4, 49920, Note_on_c, 0, 75, 0
4, 49920, Note_on_c, 0, 70, 0
4, 49920, Note_on_c, 0, 63, 0
4, 49920, Note_on_c, 0, 63, 40
4, 49920, Note_on_c, 0, 65, 40
4, 49920, Note_on_c, 0, 72, 40
4, 50400, Note_on_c, 0, 72, 0
4, 50400, Note_on_c, 0, 65, 0
4, 50400, Note_on_c, 0, 63, 0
4, 50400, Note_on_c, 0, 62, 40
4, 50400, Note_on_c, 0, 65, 40
4, 50400, Note_on_c, 0, 70, 40
4, 50880, Note_on_c, 0, 70, 0
4, 50880, Note_on_c, 0, 65, 0
4, 50880, Note_on_c, 0, 62, 0
4, 50880, Note_on_c, 0, 65, 40
4, 50880, Note_on_c, 0, 70, 40
4, 50880, Note_on_c, 0, 74, 40
4, 51360, Note_on_c, 0, 74, 0
4, 51360, Note_on_c, 0, 70, 0
4, 51360, Note_on_c, 0, 65, 0
4, 51360, Note_on_c, 0, 65, 40
4, 51360, Note_on_c, 0, 72, 40
4, 51360, Note_on_c, 0, 77, 40
4, 51840, Note_on_c, 0, 77, 0
4, 51840, Note_on_c, 0, 72, 0
4, 51840, Note_on_c, 0, 65, 0
4, 51840, Note_on_c, 0, 67, 40
4, 51840, Note_on_c, 0, 71, 40
4, 51840, Note_on_c, 0, 77, 40
4, 52800, Note_on_c, 0, 77, 0
4, 52800, Note_on_c, 0, 71, 0
4, 52800, Note_on_c, 0, 67, 0
4, 52800, Note_on_c, 0, 67, 40
4, 52800, Note_on_c, 0, 74, 40
4, 52800, Note_on_c, 0, 77, 40
4, 53280, Note_on_c, 0, 77, 0
4, 53280, Note_on_c, 0, 74, 0
4, 53280, Note_on_c, 0, 67, 0
4, 53280, Note_on_c, 0, 67, 40
4, 53280, Note_on_c, 0, 72, 40
4, 53280, Note_on_c, 0, 75, 40
4, 54240, Note_on_c, 0, 75, 0
4, 54240, Note_on_c, 0, 72, 0
4, 54240, Note_on_c, 0, 67, 0
4, 54240, Note_on_c, 0, 66, 40
4, 54240, Note_on_c, 0, 72, 40
4, 54240, Note_on_c, 0, 75, 40
4, 54720, Note_on_c, 0, 75, 0
4, 54720, Note_on_c, 0, 72, 0
4, 54720, Note_on_c, 0, 66, 0
4, 54720, Note_on_c, 0, 67, 40
4, 54720, Note_on_c, 0, 70, 40
4, 54720, Note_on_c, 0, 74, 40
4, 55200, Note_on_c, 0, 74, 0
4, 55200, Note_on_c, 0, 70, 0
4, 55200, Note_on_c, 0, 67, 0
4, 55200, Note_on_c, 0, 63, 40
4, 55200, Note_on_c, 0, 67, 40
4, 55200, Note_on_c, 0, 74, 40
4, 55440, Note_on_c, 0, 74, 0
4, 55440, Note_on_c, 0, 67, 0
4, 55440, Note_on_c, 0, 63, 0
4, 55440, Note_on_c, 0, 63, 40
4, 55440, Note_on_c, 0, 67, 40
4, 55440, Note_on_c, 0, 72, 40
4, 55680, Note_on_c, 0, 72, 0
4, 55680, Note_on_c, 0, 67, 0
4, 55680, Note_on_c, 0, 63, 0
4, 55680, Note_on_c, 0, 63, 40
4, 55680, Note_on_c, 0, 67, 40
4, 55680, Note_on_c, 0, 69, 40
4, 56160, Note_on_c, 0, 69, 0
4, 56160, Note_on_c, 0, 67, 0
4, 56160, Note_on_c, 0, 63, 0
4, 56160, Note_on_c, 0, 62, 40
4, 56160, Note_on_c, 0, 66, 40
4, 56160, Note_on_c, 0, 69, 40
4, 57120, Note_on_c, 0, 69, 0
4, 57120, Note_on_c, 0, 66, 0
4, 57120, Note_on_c, 0, 62, 0
4, 57120, Note_on_c, 0, 62, 40
4, 57120, Note_on_c, 0, 67, 40
4, 57120, Note_on_c, 0, 70, 40
4, 57360, Note_on_c, 0, 70, 0
4, 57360, Note_on_c, 0, 67, 0
4, 57360, Note_on_c, 0, 62, 0
4, 57360, Note_on_c, 0, 62, 40
4, 57360, Note_on_c, 0, 66, 40
4, 57360, Note_on_c, 0, 69, 40
4, 57600, Note_on_c, 0, 69, 0
4, 57600, Note_on_c, 0, 66, 0
4, 57600, Note_on_c, 0, 62, 0
4, 57600, Note_on_c, 0, 62, 40
4, 57600, Note_on_c, 0, 67, 40
4, 57600, Note_on_c, 0, 70, 40
4, 57840, Note_on_c, 0, 70, 0
4, 57840, Note_on_c, 0, 67, 0
4, 57840, Note_on_c, 0, 62, 0
4, 57840, Note_on_c, 0, 67, 40
4, 57840, Note_on_c, 0, 70, 40
4, 57840, Note_on_c, 0, 74, 40
4, 58080, Note_on_c, 0, 74, 0
4, 58080, Note_on_c, 0, 70, 0
4, 58080, Note_on_c, 0, 67, 0
4, 58080, Note_on_c, 0, 65, 40
4, 58080, Note_on_c, 0, 72, 40
4, 58080, Note_on_c, 0, 77, 40
4, 58560, Note_on_c, 0, 77, 0
4, 58560, Note_on_c, 0, 72, 0
4, 58560, Note_on_c, 0, 65, 0
4, 58560, Note_on_c, 0, 65, 40
4, 58560, Note_on_c, 0, 67, 40
4, 58560, Note_on_c, 0, 74, 40
4, 59040, Note_on_c, 0, 74, 0
4, 59040, Note_on_c, 0, 67, 0
4, 59040, Note_on_c, 0, 65, 0
4, 59040, Note_on_c, 0, 63, 40
4, 59040, Note_on_c, 0, 67, 40
4, 59040, Note_on_c, 0, 72, 40
4, 59520, Note_on_c, 0, 72, 0
4, 59520, Note_on_c, 0, 67, 0
4, 59520, Note_on_c, 0, 63, 0
4, 59520, Note_on_c, 0, 62, 40
4, 59520, Note_on_c, 0, 67, 40
4, 59520, Note_on_c, 0, 70, 40
4, 60000, Note_on_c, 0, 70, 0
4, 60000, Note_on_c, 0, 67, 0
4, 60000, Note_on_c, 0, 62, 0
4, 60000, Note_on_c, 0, 60, 40
4, 60000, Note_on_c, 0, 63, 40
4, 60000, Note_on_c, 0, 70, 40
4, 60480, Note_on_c, 0, 70, 0
4, 60480, Note_on_c, 0, 63, 0
4, 60480, Note_on_c, 0, 60, 0
4, 60480, Note_on_c, 0, 60, 40
4, 60480, Note_on_c, 0, 63, 40
4, 60480, Note_on_c, 0, 69, 40
4, 60960, Note_on_c, 0, 69, 0
4, 60960, Note_on_c, 0, 63, 0
4, 60960, Note_on_c, 0, 60, 0
4, 60960, Note_on_c, 0, 60, 40
4, 60960, Note_on_c, 0, 63, 40
4, 60960, Note_on_c, 0, 67, 40
4, 61440, Note_on_c, 0, 67, 0
4, 61440, Note_on_c, 0, 63, 0
4, 61440, Note_on_c, 0, 60, 0
4, 61440, Note_on_c, 0, 57, 40
4, 61440, Note_on_c, 0, 62, 40
4, 61440, Note_on_c, 0, 66, 40
4, 61920, Note_on_c, 0, 66, 0
4, 61920, Note_on_c, 0, 62, 0
4, 61920, Note_on_c, 0, 57, 0
4, 61920, Note_on_c, 0, 55, 40
4, 61920, Note_on_c, 0, 62, 40
4, 61920, Note_on_c, 0, 67, 40
4, 62400, Note_on_c, 0, 67, 0
4, 62400, Note_on_c, 0, 62, 0
4, 62400, Note_on_c, 0, 55, 0
4, 62400, Note_on_c, 0, 62, 40
4, 62400, Note_on_c, 0, 67, 40
4, 62400, Note_on_c, 0, 70, 40
4, 62880, Note_on_c, 0, 70, 0
4, 62880, Note_on_c, 0, 67, 0
4, 62880, Note_on_c, 0, 62, 0
4, 62880, Note_on_c, 0, 62, 40
4, 62880, Note_on_c, 0, 66, 40
4, 62880, Note_on_c, 0, 69, 40
4, 63360, Note_on_c, 0, 69, 0
4, 63360, Note_on_c, 0, 66, 0
4, 63360, Note_on_c, 0, 62, 0
4, 63360, Note_on_c, 0, 62, 40
4, 63360, Note_on_c, 0, 67, 40
4, 63360, Note_on_c, 0, 70, 40
4, 64320, Note_on_c, 0, 70, 0
4, 64320, Note_on_c, 0, 67, 0
4, 64320, Note_on_c, 0, 62, 0
4, 64320, Note_on_c, 0, 70, 40
4, 64320, Note_on_c, 0, 74, 40
4, 64320, Note_on_c, 0, 79, 40
4, 64800, Note_on_c, 0, 79, 0
4, 64800, Note_on_c, 0, 74, 0
4, 64800, Note_on_c, 0, 70, 0
4, 64800, Note_on_c, 0, 67, 40
4, 64800, Note_on_c, 0, 74, 40
4, 64800, Note_on_c, 0, 79, 40
4, 65040, Note_on_c, 0, 79, 0
4, 65040, Note_on_c, 0, 74, 0
4, 65040, Note_on_c, 0, 67, 0
4, 65040, Note_on_c, 0, 67, 40
4, 65040, Note_on_c, 0, 72, 40
4, 65040, Note_on_c, 0, 79, 40
4, 65280, Note_on_c, 0, 79, 0
4, 65280, Note_on_c, 0, 72, 0
4, 65280, Note_on_c, 0, 67, 0
4, 65280, Note_on_c, 0, 68, 40
4, 65280, Note_on_c, 0, 71, 40
4, 65280, Note_on_c, 0, 77, 40
4, 65760, Note_on_c, 0, 77, 0
4, 65760, Note_on_c, 0, 71, 0
4, 65760, Note_on_c, 0, 68, 0
4, 65760, Note_on_c, 0, 67, 40
4, 65760, Note_on_c, 0, 71, 40
4, 65760, Note_on_c, 0, 77, 40
4, 66240, Note_on_c, 0, 77, 0
4, 66240, Note_on_c, 0, 71, 0
4, 66240, Note_on_c, 0, 67, 0
4, 66240, Note_on_c, 0, 67, 40
4, 66240, Note_on_c, 0, 72, 40
4, 66240, Note_on_c, 0, 75, 40
4, 67680, Note_on_c, 0, 75, 0
4, 67680, Note_on_c, 0, 72, 0
4, 67680, Note_on_c, 0, 67, 0
4, 67680, Note_on_c, 0, 67, 40
4, 67680, Note_on_c, 0, 72, 40
4, 67680, Note_on_c, 0, 75, 40
4, 67920, Note_on_c, 0, 75, 0
4, 67920, Note_on_c, 0, 72, 0
4, 67920, Note_on_c, 0, 67, 0
4, 67920, Note_on_c, 0, 65, 40
4, 67920, Note_on_c, 0, 72, 40
4, 67920, Note_on_c, 0, 77, 40
4, 68160, Note_on_c, 0, 77, 0
4, 68160, Note_on_c, 0, 72, 0
4, 68160, Note_on_c, 0, 65, 0
4, 68160, Note_on_c, 0, 70, 40
4, 68160, Note_on_c, 0, 73, 40
4, 68160, Note_on_c, 0, 76, 40
4, 68640, Note_on_c, 0, 76, 0
4, 68640, Note_on_c, 0, 73, 0
4, 68640, Note_on_c, 0, 70, 0
4, 68640, Note_on_c, 0, 70, 40
4, 68640, Note_on_c, 0, 72, 40
4, 68640, Note_on_c, 0, 76, 40
4, 69120, Note_on_c, 0, 76, 0
4, 69120, Note_on_c, 0, 72, 0
4, 69120, Note_on_c, 0, 70, 0
4, 69120, Note_on_c, 0, 68, 40
4, 69120, Note_on_c, 0, 72, 40
4, 69120, Note_on_c, 0, 77, 40
4, 69600, Note_on_c, 0, 77, 0
4, 69600, Note_on_c, 0, 72, 0
4, 69600, Note_on_c, 0, 68, 0
4, 69600, Note_on_c, 0, 70, 40
4, 69600, Note_on_c, 0, 72, 40
4, 69600, Note_on_c, 0, 76, 40
4, 70560, Note_on_c, 0, 76, 0
4, 70560, Note_on_c, 0, 72, 0
4, 70560, Note_on_c, 0, 70, 0
4, 70560, Note_on_c, 0, 68, 40
4, 70560, Note_on_c, 0, 72, 40
4, 70560, Note_on_c, 0, 77, 40
4, 71040, Note_on_c, 0, 77, 0
4, 71040, Note_on_c, 0, 72, 0
4, 71040, Note_on_c, 0, 68, 0
4, 71040, Note_on_c, 0, 67, 40
4, 71040, Note_on_c, 0, 74, 40
4, 71040, Note_on_c, 0, 77, 40
4, 72000, Note_on_c, 0, 77, 0
4, 72000, Note_on_c, 0, 74, 0
4, 72000, Note_on_c, 0, 67, 0
4, 72000, Note_on_c, 0, 67, 40
4, 72000, Note_on_c, 0, 72, 40
4, 72000, Note_on_c, 0, 75, 40
4, 72480, Note_on_c, 0, 75, 0
4, 72480, Note_on_c, 0, 72, 0
4, 72480, Note_on_c, 0, 67, 0
4, 72480, Note_on_c, 0, 67, 40
4, 72480, Note_on_c, 0, 71, 40
4, 72480, Note_on_c, 0, 77, 40
4, 73440, Note_on_c, 0, 77, 0
4, 73440, Note_on_c, 0, 71, 0
4, 73440, Note_on_c, 0, 67, 0
4, 73440, Note_on_c, 0, 67, 40
4, 73440, Note_on_c, 0, 72, 40
4, 73440, Note_on_c, 0, 75, 40
4, 73920, Note_on_c, 0, 75, 0
4, 73920, Note_on_c, 0, 72, 0
4, 73920, Note_on_c, 0, 67, 0
4, 73920, Note_on_c, 0, 69, 40
4, 73920, Note_on_c, 0, 72, 40
4, 73920, Note_on_c, 0, 75, 40
4, 74400, Note_on_c, 0, 75, 0
4, 74400, Note_on_c, 0, 72, 0
4, 74400, Note_on_c, 0, 69, 0
4, 74400, Note_on_c, 0, 63, 40
4, 74400, Note_on_c, 0, 69, 40
4, 74400, Note_on_c, 0, 72, 40
4, 74880, Note_on_c, 0, 72, 0
4, 74880, Note_on_c, 0, 69, 0
4, 74880, Note_on_c, 0, 63, 0
4, 74880, Note_on_c, 0, 62, 40
4, 74880, Note_on_c, 0, 67, 40
4, 74880, Note_on_c, 0, 71, 40
4, 75360, Note_on_c, 0, 71, 0
4, 75360, Note_on_c, 0, 67, 0
4, 75360, Note_on_c, 0, 62, 0
4, 75360, Note_on_c, 0, 65, 40
4, 75360, Note_on_c, 0, 67, 40
4, 75360, Note_on_c, 0, 71, 40
4, 75840, Note_on_c, 0, 71, 0
4, 75840, Note_on_c, 0, 67, 0
4, 75840, Note_on_c, 0, 65, 0
4, 75840, Note_on_c, 0, 67, 40
4, 75840, Note_on_c, 0, 74, 40
4, 75840, Note_on_c, 0, 77, 40
4, 76320, Note_on_c, 0, 77, 0
4, 76320, Note_on_c, 0, 74, 0
4, 76320, Note_on_c, 0, 67, 0
4, 76320, Note_on_c, 0, 63, 40
4, 76320, Note_on_c, 0, 67, 40
4, 76320, Note_on_c, 0, 72, 40
4, 76800, Note_on_c, 0, 72, 0
4, 76800, Note_on_c, 0, 67, 0
4, 76800, Note_on_c, 0, 63, 0
4, 76800, Note_on_c, 0, 64, 40
4, 76800, Note_on_c, 0, 70, 40
4, 76800, Note_on_c, 0, 72, 40
4, 77280, Note_on_c, 0, 72, 0
4, 77280, Note_on_c, 0, 70, 0
4, 77280, Note_on_c, 0, 64, 0
4, 77280, Note_on_c, 0, 67, 40
4, 77280, Note_on_c, 0, 70, 40
4, 77280, Note_on_c, 0, 72, 40
4, 77760, Note_on_c, 0, 72, 0
4, 77760, Note_on_c, 0, 70, 0
4, 77760, Note_on_c, 0, 67, 0
4, 77760, Note_on_c, 0, 67, 40
4, 77760, Note_on_c, 0, 68, 40
4, 77760, Note_on_c, 0, 72, 40
4, 78000, Note_on_c, 0, 72, 0
4, 78000, Note_on_c, 0, 68, 0
4, 78000, Note_on_c, 0, 67, 0
4, 78000, Note_on_c, 0, 65, 40
4, 78000, Note_on_c, 0, 68, 40
4, 78000, Note_on_c, 0, 72, 40
4, 78240, Note_on_c, 0, 72, 0
4, 78240, Note_on_c, 0, 68, 0
4, 78240, Note_on_c, 0, 65, 0
4, 78240, Note_on_c, 0, 65, 40
4, 78240, Note_on_c, 0, 72, 40
4, 78240, Note_on_c, 0, 75, 40
4, 79200, Note_on_c, 0, 75, 0
4, 79200, Note_on_c, 0, 72, 0
4, 79200, Note_on_c, 0, 65, 0
4, 79200, Note_on_c, 0, 65, 40
4, 79200, Note_on_c, 0, 72, 40
4, 79200, Note_on_c, 0, 74, 40
4, 79440, Note_on_c, 0, 74, 0
4, 79440, Note_on_c, 0, 72, 0
4, 79440, Note_on_c, 0, 65, 0
4, 79440, Note_on_c, 0, 65, 40
4, 79440, Note_on_c, 0, 70, 40
4, 79440, Note_on_c, 0, 74, 40
4, 79680, Note_on_c, 0, 74, 0
4, 79680, Note_on_c, 0, 70, 0
4, 79680, Note_on_c, 0, 65, 0
4, 79680, Note_on_c, 0, 68, 40
4, 79680, Note_on_c, 0, 70, 40
4, 79680, Note_on_c, 0, 77, 40
4, 80640, Note_on_c, 0, 77, 0
4, 80640, Note_on_c, 0, 70, 0
4, 80640, Note_on_c, 0, 68, 0
4, 80640, Note_on_c, 0, 67, 40
4, 80640, Note_on_c, 0, 74, 40
4, 80640, Note_on_c, 0, 77, 40
4, 81120, Note_on_c, 0, 77, 0
4, 81120, Note_on_c, 0, 74, 0
4, 81120, Note_on_c, 0, 67, 0
4, 81120, Note_on_c, 0, 67, 40
4, 81120, Note_on_c, 0, 71, 40
4, 81120, Note_on_c, 0, 74, 40
4, 82080, Note_on_c, 0, 74, 0
4, 82080, Note_on_c, 0, 71, 0
4, 82080, Note_on_c, 0, 67, 0
4, 82080, Note_on_c, 0, 67, 40
4, 82080, Note_on_c, 0, 72, 40
4, 82080, Note_on_c, 0, 75, 40
4, 82320, Note_on_c, 0, 75, 0
4, 82320, Note_on_c, 0, 72, 0
4, 82320, Note_on_c, 0, 67, 0
4, 82320, Note_on_c, 0, 68, 40
4, 82320, Note_on_c, 0, 72, 40
4, 82320, Note_on_c, 0, 75, 40
4, 82560, Note_on_c, 0, 75, 0
4, 82560, Note_on_c, 0, 72, 0
4, 82560, Note_on_c, 0, 68, 0
4, 82560, Note_on_c, 0, 67, 40
4, 82560, Note_on_c, 0, 72, 40
4, 82560, Note_on_c, 0, 75, 40
4, 83040, Note_on_c, 0, 75, 0
4, 83040, Note_on_c, 0, 72, 0
4, 83040, Note_on_c, 0, 67, 0
4, 83040, Note_on_c, 0, 67, 40
4, 83040, Note_on_c, 0, 71, 40
4, 83040, Note_on_c, 0, 74, 40
4, 83520, Note_on_c, 0, 74, 0
4, 83520, Note_on_c, 0, 71, 0
4, 83520, Note_on_c, 0, 67, 0
4, 83520, Note_on_c, 0, 67, 40
4, 83520, Note_on_c, 0, 72, 40
4, 84000, Note_on_c, 0, 72, 0
4, 84000, Note_on_c, 0, 67, 0
4, 84000, Note_on_c, 0, 65, 40
4, 84000, Note_on_c, 0, 68, 40
4, 84000, Note_on_c, 0, 72, 40
4, 84960, Note_on_c, 0, 72, 0
4, 84960, Note_on_c, 0, 68, 0
4, 84960, Note_on_c, 0, 65, 0
4, 84960, Note_on_c, 0, 64, 40
4, 84960, Note_on_c, 0, 70, 40
4, 84960, Note_on_c, 0, 73, 40
4, 85440, Note_on_c, 0, 73, 0
4, 85440, Note_on_c, 0, 70, 0
4, 85440, Note_on_c, 0, 64, 0
4, 85440, Note_on_c, 0, 64, 40
4, 85440, Note_on_c, 0, 70, 40
4, 85440, Note_on_c, 0, 72, 40
4, 86400, Note_on_c, 0, 72, 0
4, 86400, Note_on_c, 0, 70, 0
4, 86400, Note_on_c, 0, 64, 0
4, 86400, Note_on_c, 0, 65, 40
4, 86400, Note_on_c, 0, 68, 40
4, 86400, Note_on_c, 0, 72, 40
4, 86880, Note_on_c, 0, 72, 0
4, 86880, Note_on_c, 0, 68, 0
4, 86880, Note_on_c, 0, 65, 0
4, 86880, Note_on_c, 0, 65, 40
4, 86880, Note_on_c, 0, 68, 40
4, 86880, Note_on_c, 0, 73, 40
4, 87360, Note_on_c, 0, 73, 0
4, 87360, Note_on_c, 0, 68, 0
4, 87360, Note_on_c, 0, 65, 0
4, 87600, Note_on_c, 0, 60, 40
4, 87600, Note_on_c, 0, 67, 40
4, 87600, Note_on_c, 0, 72, 40
4, 87840, Note_on_c, 0, 72, 0
4, 87840, Note_on_c, 0, 67, 0
4, 87840, Note_on_c, 0, 60, 0
4, 87840, Note_on_c, 0, 62, 40
4, 87840, Note_on_c, 0, 67, 40
4, 87840, Note_on_c, 0, 71, 40
4, 88320, Note_on_c, 0, 71, 0
4, 88320, Note_on_c, 0, 67, 0
4, 88320, Note_on_c, 0, 62, 0
4, 88320, Note_on_c, 0, 62, 40
4, 88320, Note_on_c, 0, 67, 40
4, 88320, Note_on_c, 0, 71, 40
4, 88800, Note_on_c, 0, 71, 0
4, 88800, Note_on_c, 0, 67, 0
4, 88800, Note_on_c, 0, 62, 0
4, 89040, Note_on_c, 0, 62, 40
4, 89040, Note_on_c, 0, 67, 40
4, 89040, Note_on_c, 0, 71, 40
4, 89280, Note_on_c, 0, 71, 0
4, 89280, Note_on_c, 0, 67, 0
4, 89280, Note_on_c, 0, 62, 0
4, 89280, Note_on_c, 0, 63, 40
4, 89280, Note_on_c, 0, 67, 40
4, 89280, Note_on_c, 0, 72, 40
4, 89520, Note_on_c, 0, 72, 0
4, 89520, Note_on_c, 0, 67, 0
4, 89520, Note_on_c, 0, 63, 0
4, 89520, Note_on_c, 0, 63, 40
4, 89520, Note_on_c, 0, 69, 40
4, 89520, Note_on_c, 0, 72, 40
4, 89760, Note_on_c, 0, 72, 0
4, 89760, Note_on_c, 0, 69, 0
4, 89760, Note_on_c, 0, 63, 0
4, 89760, Note_on_c, 0, 62, 40
4, 89760, Note_on_c, 0, 67, 40
4, 89760, Note_on_c, 0, 71, 40
4, 90720, Note_on_c, 0, 71, 0
4, 90720, Note_on_c, 0, 67, 0
4, 90720, Note_on_c, 0, 62, 0
4, 90720, Note_on_c, 0, 63, 40
4, 90720, Note_on_c, 0, 67, 40
4, 90720, Note_on_c, 0, 72, 40
4, 91680, Note_on_c, 0, 72, 0
4, 91680, Note_on_c, 0, 67, 0
4, 91680, Note_on_c, 0, 63, 0
4, 92160, Note_on_c, 0, 67, 40
4, 92160, Note_on_c, 0, 70, 40
4, 92160, Note_on_c, 0, 75, 40
4, 92640, Note_on_c, 0, 75, 0
4, 92640, Note_on_c, 0, 70, 0
4, 92640, Note_on_c, 0, 67, 0
4, 92640, Note_on_c, 0, 65, 40
4, 92640, Note_on_c, 0, 68, 40
4, 92640, Note_on_c, 0, 73, 40
4, 93120, Note_on_c, 0, 73, 0
4, 93120, Note_on_c, 0, 68, 0
4, 93120, Note_on_c, 0, 65, 0
4, 93120, Note_on_c, 0, 63, 40
4, 93120, Note_on_c, 0, 70, 40
4, 93120, Note_on_c, 0, 73, 40
4, 93600, Note_on_c, 0, 73, 0
4, 93600, Note_on_c, 0, 70, 0
4, 93600, Note_on_c, 0, 63, 0
4, 93600, Note_on_c, 0, 63, 40
4, 93600, Note_on_c, 0, 68, 40
4, 93600, Note_on_c, 0, 72, 40
4, 94560, Note_on_c, 0, 72, 0
4, 94560, Note_on_c, 0, 68, 0
4, 94560, Note_on_c, 0, 63, 0
4, 94560, Note_on_c, 0, 63, 40
4, 94560, Note_on_c, 0, 70, 40
4, 94560, Note_on_c, 0, 75, 40
4, 95040, Note_on_c, 0, 75, 0
4, 95040, Note_on_c, 0, 70, 0
4, 95040, Note_on_c, 0, 63, 0
4, 95040, Note_on_c, 0, 65, 40
4, 95040, Note_on_c, 0, 69, 40
4, 95040, Note_on_c, 0, 75, 40
4, 95520, Note_on_c, 0, 75, 0
4, 95520, Note_on_c, 0, 69, 0
4, 95520, Note_on_c, 0, 65, 0
4, 95520, Note_on_c, 0, 63, 40
4, 95520, Note_on_c, 0, 70, 40
4, 95520, Note_on_c, 0, 75, 40
4, 96000, Note_on_c, 0, 75, 0
4, 96000, Note_on_c, 0, 70, 0
4, 96000, Note_on_c, 0, 63, 0
4, 96000, Note_on_c, 0, 63, 40
4, 96000, Note_on_c, 0, 65, 40
4, 96000, Note_on_c, 0, 72, 40
4, 96480, Note_on_c, 0, 72, 0
4, 96480, Note_on_c, 0, 65, 0
4, 96480, Note_on_c, 0, 63, 0
4, 96480, Note_on_c, 0, 62, 40
4, 96480, Note_on_c, 0, 65, 40
4, 96480, Note_on_c, 0, 70, 40
4, 96960, Note_on_c, 0, 70, 0
4, 96960, Note_on_c, 0, 65, 0
4, 96960, Note_on_c, 0, 62, 0
4, 96960, Note_on_c, 0, 65, 40
4, 96960, Note_on_c, 0, 70, 40
4, 96960, Note_on_c, 0, 74, 40
4, 97440, Note_on_c, 0, 74, 0
4, 97440, Note_on_c, 0, 70, 0
4, 97440, Note_on_c, 0, 65, 0
4, 97440, Note_on_c, 0, 65, 40
4, 97440, Note_on_c, 0, 72, 40
4, 97440, Note_on_c, 0, 77, 40
4, 97920, Note_on_c, 0, 77, 0
4, 97920, Note_on_c, 0, 72, 0
4, 97920, Note_on_c, 0, 65, 0
4, 97920, Note_on_c, 0, 67, 40
4, 97920, Note_on_c, 0, 71, 40
4, 97920, Note_on_c, 0, 77, 40
4, 98880, Note_on_c, 0, 77, 0
4, 98880, Note_on_c, 0, 71, 0
4, 98880, Note_on_c, 0, 67, 0
4, 98880, Note_on_c, 0, 67, 40
4, 98880, Note_on_c, 0, 74, 40
4, 98880, Note_on_c, 0, 77, 40
4, 99360, Note_on_c, 0, 77, 0
4, 99360, Note_on_c, 0, 74, 0
4, 99360, Note_on_c, 0, 67, 0
4, 99360, Note_on_c, 0, 67, 40
4, 99360, Note_on_c, 0, 72, 40
4, 99360, Note_on_c, 0, 75, 40
4, 100320, Note_on_c, 0, 75, 0
4, 100320, Note_on_c, 0, 72, 0
4, 100320, Note_on_c, 0, 67, 0
4, 100320, Note_on_c, 0, 66, 40
4, 100320, Note_on_c, 0, 72, 40
4, 100320, Note_on_c, 0, 75, 40
4, 100800, Note_on_c, 0, 75, 0
4, 100800, Note_on_c, 0, 72, 0
4, 100800, Note_on_c, 0, 66, 0
4, 100800, Note_on_c, 0, 67, 40
4, 100800, Note_on_c, 0, 70, 40
4, 100800, Note_on_c, 0, 74, 40
4, 101280, Note_on_c, 0, 74, 0
4, 101280, Note_on_c, 0, 70, 0
4, 101280, Note_on_c, 0, 67, 0
4, 101280, Note_on_c, 0, 63, 40
4, 101280, Note_on_c, 0, 67, 40
4, 101280, Note_on_c, 0, 74, 40
4, 101520, Note_on_c, 0, 74, 0
4, 101520, Note_on_c, 0, 67, 0
4, 101520, Note_on_c, 0, 63, 0
4, 101520, Note_on_c, 0, 63, 40
4, 101520, Note_on_c, 0, 67, 40
4, 101520, Note_on_c, 0, 72, 40
4, 101760, Note_on_c, 0, 72, 0
4, 101760, Note_on_c, 0, 67, 0
4, 101760, Note_on_c, 0, 63, 0
4, 101760, Note_on_c, 0, 63, 40
4, 101760, Note_on_c, 0, 67, 40
4, 101760, Note_on_c, 0, 69, 40
4, 102240, Note_on_c, 0, 69, 0
4, 102240, Note_on_c, 0, 67, 0
4, 102240, Note_on_c, 0, 63, 0
4, 102240, Note_on_c, 0, 62, 40
4, 102240, Note_on_c, 0, 66, 40
4, 102240, Note_on_c, 0, 69, 40
4, 103200, Note_on_c, 0, 69, 0
4, 103200, Note_on_c, 0, 66, 0
4, 103200, Note_on_c, 0, 62, 0
4, 103200, Note_on_c, 0, 62, 40
4, 103200, Note_on_c, 0, 67, 40
4, 103200, Note_on_c, 0, 70, 40
4, 103440, Note_on_c, 0, 70, 0
4, 103440, Note_on_c, 0, 67, 0
4, 103440, Note_on_c, 0, 62, 0
4, 103440, Note_on_c, 0, 62, 40
4, 103440, Note_on_c, 0, 66, 40
4, 103440, Note_on_c, 0, 69, 40
4, 103680, Note_on_c, 0, 69, 0
4, 103680, Note_on_c, 0, 66, 0
4, 103680, Note_on_c, 0, 62, 0
4, 103680, Note_on_c, 0, 62, 40
4, 103680, Note_on_c, 0, 67, 40
4, 103680, Note_on_c, 0, 70, 40
4, 103920, Note_on_c, 0, 70, 0
4, 103920, Note_on_c, 0, 67, 0
4, 103920, Note_on_c, 0, 62, 0
4, 103920, Note_on_c, 0, 67, 40
4, 103920, Note_on_c, 0, 70, 40
4, 103920, Note_on_c, 0, 74, 40
4, 104160, Note_on_c, 0, 74, 0
4, 104160, Note_on_c, 0, 70, 0
4, 104160, Note_on_c, 0, 67, 0
4, 104160, Note_on_c, 0, 65, 40
4, 104160, Note_on_c, 0, 72, 40
4, 104160, Note_on_c, 0, 77, 40
4, 104640, Note_on_c, 0, 77, 0
4, 104640, Note_on_c, 0, 72, 0
4, 104640, Note_on_c, 0, 65, 0
4, 104640, Note_on_c, 0, 65, 40
4, 104640, Note_on_c, 0, 67, 40
4, 104640, Note_on_c, 0, 74, 40
4, 105120, Note_on_c, 0, 74, 0
4, 105120, Note_on_c, 0, 67, 0
4, 105120, Note_on_c, 0, 65, 0
4, 105120, Note_on_c, 0, 63, 40
4, 105120, Note_on_c, 0, 67, 40
4, 105120, Note_on_c, 0, 72, 40
4, 105600, Note_on_c, 0, 72, 0
4, 105600, Note_on_c, 0, 67, 0
4, 105600, Note_on_c, 0, 63, 0
4, 105600, Note_on_c, 0, 62, 40
4, 105600, Note_on_c, 0, 67, 40
4, 105600, Note_on_c, 0, 70, 40
4, 106080, Note_on_c, 0, 70, 0
4, 106080, Note_on_c, 0, 67, 0
4, 106080, Note_on_c, 0, 62, 0
4, 106080, Note_on_c, 0, 60, 40
4, 106080, Note_on_c, 0, 63, 40
4, 106080, Note_on_c, 0, 70, 40
4, 106560, Note_on_c, 0, 70, 0
4, 106560, Note_on_c, 0, 63, 0
4, 106560, Note_on_c, 0, 60, 0
4, 106560, Note_on_c, 0, 60, 40
4, 106560, Note_on_c, 0, 63, 40
4, 106560, Note_on_c, 0, 69, 40
4, 107040, Note_on_c, 0, 69, 0
4, 107040, Note_on_c, 0, 63, 0
4, 107040, Note_on_c, 0, 60, 0
4, 107040, Note_on_c, 0, 60, 40
4, 107040, Note_on_c, 0, 63, 40
4, 107040, Note_on_c, 0, 67, 40
4, 107520, Note_on_c, 0, 67, 0
4, 107520, Note_on_c, 0, 63, 0
4, 107520, Note_on_c, 0, 60, 0
4, 107520, Note_on_c, 0, 57, 40
4, 107520, Note_on_c, 0, 62, 40
4, 107520, Note_on_c, 0, 66, 40
4, 108000, Note_on_c, 0, 66, 0
4, 108000, Note_on_c, 0, 62, 0
4, 108000, Note_on_c, 0, 57, 0
4, 108000, Note_on_c, 0, 55, 40
4, 108000, Note_on_c, 0, 62, 40
4, 108000, Note_on_c, 0, 67, 40
4, 108480, Note_on_c, 0, 67, 0
4, 108480, Note_on_c, 0, 62, 0
4, 108480, Note_on_c, 0, 55, 0
4, 108480, Note_on_c, 0, 62, 40
4, 108480, Note_on_c, 0, 67, 40
4, 108480, Note_on_c, 0, 70, 40
4, 108960, Note_on_c, 0, 70, 0
4, 108960, Note_on_c, 0, 67, 0
4, 108960, Note_on_c, 0, 62, 0
4, 108960, Note_on_c, 0, 62, 40
4, 108960, Note_on_c, 0, 66, 40
4, 108960, Note_on_c, 0, 69, 40
4, 109440, Note_on_c, 0, 69, 0
4, 109440, Note_on_c, 0, 66, 0
4, 109440, Note_on_c, 0, 62, 0
4, 109440, Note_on_c, 0, 62, 40
4, 109440, Note_on_c, 0, 67, 40
4, 109440, Note_on_c, 0, 70, 40
4, 110400, Note_on_c, 0, 70, 0
4, 110400, Note_on_c, 0, 67, 0
4, 110400, Note_on_c, 0, 62, 0
4, 110400, Note_on_c, 0, 70, 40
4, 110400, Note_on_c, 0, 74, 40
4, 110400, Note_on_c, 0, 79, 40
4, 110880, Note_on_c, 0, 79, 0
4, 110880, Note_on_c, 0, 74, 0
4, 110880, Note_on_c, 0, 70, 0
4, 110880, Note_on_c, 0, 67, 40
4, 110880, Note_on_c, 0, 74, 40
4, 110880, Note_on_c, 0, 79, 40
4, 111120, Note_on_c, 0, 79, 0
4, 111120, Note_on_c, 0, 74, 0
4, 111120, Note_on_c, 0, 67, 0
4, 111120, Note_on_c, 0, 67, 40
4, 111120, Note_on_c, 0, 72, 40
4, 111120, Note_on_c, 0, 79, 40
4, 111360, Note_on_c, 0, 79, 0
4, 111360, Note_on_c, 0, 72, 0
4, 111360, Note_on_c, 0, 67, 0
4, 111360, Note_on_c, 0, 68, 40
4, 111360, Note_on_c, 0, 71, 40
4, 111360, Note_on_c, 0, 77, 40
4, 111840, Note_on_c, 0, 77, 0
4, 111840, Note_on_c, 0, 71, 0
4, 111840, Note_on_c, 0, 68, 0
4, 111840, Note_on_c, 0, 67, 40
4, 111840, Note_on_c, 0, 71, 40
4, 111840, Note_on_c, 0, 77, 40
4, 112320, Note_on_c, 0, 77, 0
4, 112320, Note_on_c, 0, 71, 0
4, 112320, Note_on_c, 0, 67, 0
4, 112320, Note_on_c, 0, 67, 40
4, 112320, Note_on_c, 0, 72, 40
4, 112320, Note_on_c, 0, 75, 40
4, 113760, Note_on_c, 0, 75, 0
4, 113760, Note_on_c, 0, 72, 0
4, 113760, Note_on_c, 0, 67, 0
4, 113760, Note_on_c, 0, 67, 40
4, 113760, Note_on_c, 0, 72, 40
4, 113760, Note_on_c, 0, 75, 40
4, 114000, Note_on_c, 0, 75, 0
4, 114000, Note_on_c, 0, 72, 0
4, 114000, Note_on_c, 0, 67, 0
4, 114000, Note_on_c, 0, 65, 40
4, 114000, Note_on_c, 0, 72, 40
4, 114000, Note_on_c, 0, 77, 40
4, 114240, Note_on_c, 0, 77, 0
4, 114240, Note_on_c, 0, 72, 0
4, 114240, Note_on_c, 0, 65, 0
4, 114240, Note_on_c, 0, 70, 40
4, 114240, Note_on_c, 0, 73, 40
4, 114240, Note_on_c, 0, 76, 40
4, 114720, Note_on_c, 0, 76, 0
4, 114720, Note_on_c, 0, 73, 0
4, 114720, Note_on_c, 0, 70, 0
4, 114720, Note_on_c, 0, 70, 40
4, 114720, Note_on_c, 0, 72, 40
4, 114720, Note_on_c, 0, 76, 40
4, 115200, Note_on_c, 0, 76, 0
4, 115200, Note_on_c, 0, 72, 0
4, 115200, Note_on_c, 0, 70, 0
4, 115200, Note_on_c, 0, 68, 40
4, 115200, Note_on_c, 0, 72, 40
4, 115200, Note_on_c, 0, 77, 40
4, 115680, Note_on_c, 0, 77, 0
4, 115680, Note_on_c, 0, 72, 0
4, 115680, Note_on_c, 0, 68, 0
4, 115680, Note_on_c, 0, 70, 40
4, 115680, Note_on_c, 0, 72, 40
4, 115680, Note_on_c, 0, 76, 40
4, 116640, Note_on_c, 0, 76, 0
4, 116640, Note_on_c, 0, 72, 0
4, 116640, Note_on_c, 0, 70, 0
4, 116640, Note_on_c, 0, 68, 40
4, 116640, Note_on_c, 0, 72, 40
4, 116640, Note_on_c, 0, 77, 40
4, 117120, Note_on_c, 0, 77, 0
4, 117120, Note_on_c, 0, 72, 0
4, 117120, Note_on_c, 0, 68, 0
4, 117120, Note_on_c, 0, 67, 40
4, 117120, Note_on_c, 0, 74, 40
4, 117120, Note_on_c, 0, 77, 40
4, 118080, Note_on_c, 0, 77, 0
4, 118080, Note_on_c, 0, 74, 0
4, 118080, Note_on_c, 0, 67, 0
4, 118080, Note_on_c, 0, 67, 40
4, 118080, Note_on_c, 0, 72, 40
4, 118080, Note_on_c, 0, 75, 40
4, 118560, Note_on_c, 0, 75, 0
4, 118560, Note_on_c, 0, 72, 0
4, 118560, Note_on_c, 0, 67, 0
4, 118560, Note_on_c, 0, 67, 40
4, 118560, Note_on_c, 0, 71, 40
4, 118560, Note_on_c, 0, 77, 40
4, 119520, Note_on_c, 0, 77, 0
4, 119520, Note_on_c, 0, 71, 0
4, 119520, Note_on_c, 0, 67, 0
4, 119520, Note_on_c, 0, 67, 40
4, 119520, Note_on_c, 0, 72, 40
4, 119520, Note_on_c, 0, 75, 40
4, 120000, Note_on_c, 0, 75, 0
4, 120000, Note_on_c, 0, 72, 0
4, 120000, Note_on_c, 0, 67, 0
4, 120000, Note_on_c, 0, 69, 40
4, 120000, Note_on_c, 0, 72, 40
4, 120000, Note_on_c, 0, 75, 40
4, 120480, Note_on_c, 0, 75, 0
4, 120480, Note_on_c, 0, 72, 0
4, 120480, Note_on_c, 0, 69, 0
4, 120480, Note_on_c, 0, 63, 40
4, 120480, Note_on_c, 0, 69, 40
4, 120480, Note_on_c, 0, 72, 40
4, 120960, Note_on_c, 0, 72, 0
4, 120960, Note_on_c, 0, 69, 0
4, 120960, Note_on_c, 0, 63, 0
4, 120960, Note_on_c, 0, 62, 40
4, 120960, Note_on_c, 0, 67, 40
4, 120960, Note_on_c, 0, 71, 40
4, 121440, Note_on_c, 0, 71, 0
4, 121440, Note_on_c, 0, 67, 0
4, 121440, Note_on_c, 0, 62, 0
4, 121440, Note_on_c, 0, 65, 40
4, 121440, Note_on_c, 0, 67, 40
4, 121440, Note_on_c, 0, 71, 40
4, 121920, Note_on_c, 0, 71, 0
4, 121920, Note_on_c, 0, 67, 0
4, 121920, Note_on_c, 0, 65, 0
4, 121920, Note_on_c, 0, 67, 40
4, 121920, Note_on_c, 0, 74, 40
4, 121920, Note_on_c, 0, 77, 40
4, 122400, Note_on_c, 0, 77, 0
4, 122400, Note_on_c, 0, 74, 0
4, 122400, Note_on_c, 0, 67, 0
4, 122400, Note_on_c, 0, 63, 40
4, 122400, Note_on_c, 0, 67, 40
4, 122400, Note_on_c, 0, 72, 40
4, 122880, Note_on_c, 0, 72, 0
4, 122880, Note_on_c, 0, 67, 0
4, 122880, Note_on_c, 0, 63, 0
4, 122880, Note_on_c, 0, 64, 40
4, 122880, Note_on_c, 0, 70, 40
4, 122880, Note_on_c, 0, 72, 40
4, 123360, Note_on_c, 0, 72, 0
4, 123360, Note_on_c, 0, 70, 0
4, 123360, Note_on_c, 0, 64, 0
4, 123360, Note_on_c, 0, 67, 40
4, 123360, Note_on_c, 0, 70, 40
4, 123360, Note_on_c, 0, 72, 40
4, 123840, Note_on_c, 0, 72, 0
4, 123840, Note_on_c, 0, 70, 0
4, 123840, Note_on_c, 0, 67, 0
4, 123840, Note_on_c, 0, 67, 40
4, 123840, Note_on_c, 0, 68, 40
4, 123840, Note_on_c, 0, 72, 40
4, 124080, Note_on_c, 0, 72, 0
4, 124080, Note_on_c, 0, 68, 0
4, 124080, Note_on_c, 0, 67, 0
4, 124080, Note_on_c, 0, 65, 40
4, 124080, Note_on_c, 0, 68, 40
4, 124080, Note_on_c, 0, 72, 40
4, 124320, Note_on_c, 0, 72, 0
4, 124320, Note_on_c, 0, 68, 0
4, 124320, Note_on_c, 0, 65, 0
4, 124320, Note_on_c, 0, 65, 40
4, 124320, Note_on_c, 0, 72, 40
4, 124320, Note_on_c, 0, 75, 40
4, 125280, Note_on_c, 0, 75, 0
4, 125280, Note_on_c, 0, 72, 0
4, 125280, Note_on_c, 0, 65, 0
4, 125280, Note_on_c, 0, 65, 40
4, 125280, Note_on_c, 0, 72, 40
4, 125280, Note_on_c, 0, 74, 40
4, 125520, Note_on_c, 0, 74, 0
4, 125520, Note_on_c, 0, 72, 0
4, 125520, Note_on_c, 0, 65, 0
4, 125520, Note_on_c, 0, 65, 40
4, 125520, Note_on_c, 0, 70, 40
4, 125520, Note_on_c, 0, 74, 40
4, 125760, Note_on_c, 0, 74, 0
4, 125760, Note_on_c, 0, 70, 0
4, 125760, Note_on_c, 0, 65, 0
4, 125760, Note_on_c, 0, 68, 40
4, 125760, Note_on_c, 0, 70, 40
4, 125760, Note_on_c, 0, 77, 40
4, 126720, Note_on_c, 0, 77, 0
4, 126720, Note_on_c, 0, 70, 0
4, 126720, Note_on_c, 0, 68, 0
4, 126720, Note_on_c, 0, 67, 40
4, 126720, Note_on_c, 0, 74, 40
4, 126720, Note_on_c, 0, 77, 40
4, 127200, Note_on_c, 0, 77, 0
4, 127200, Note_on_c, 0, 74, 0
4, 127200, Note_on_c, 0, 67, 0
4, 127200, Note_on_c, 0, 67, 40
4, 127200, Note_on_c, 0, 71, 40
4, 127200, Note_on_c, 0, 74, 40
4, 128160, Note_on_c, 0, 74, 0
4, 128160, Note_on_c, 0, 71, 0
4, 128160, Note_on_c, 0, 67, 0
4, 128160, Note_on_c, 0, 67, 40
4, 128160, Note_on_c, 0, 72, 40
4, 128160, Note_on_c, 0, 75, 40
4, 128400, Note_on_c, 0, 75, 0
4, 128400, Note_on_c, 0, 72, 0
4, 128400, Note_on_c, 0, 67, 0
4, 128400, Note_on_c, 0, 68, 40
4, 128400, Note_on_c, 0, 72, 40
4, 128400, Note_on_c, 0, 75, 40
4, 128640, Note_on_c, 0, 75, 0
4, 128640, Note_on_c, 0, 72, 0
4, 128640, Note_on_c, 0, 68, 0
4, 128640, Note_on_c, 0, 67, 40
4, 128640, Note_on_c, 0, 72, 40
4, 128640, Note_on_c, 0, 75, 40
4, 129120, Note_on_c, 0, 75, 0
4, 129120, Note_on_c, 0, 72, 0
4, 129120, Note_on_c, 0, 67, 0
4, 129120, Note_on_c, 0, 67, 40
4, 129120, Note_on_c, 0, 71, 40
4, 129120, Note_on_c, 0, 74, 40
4, 129600, Note_on_c, 0, 74, 0
4, 129600, Note_on_c, 0, 71, 0
4, 129600, Note_on_c, 0, 67, 0
4, 129600, Note_on_c, 0, 67, 40
4, 129600, Note_on_c, 0, 72, 40
4, 130080, Note_on_c, 0, 72, 0
4, 130080, Note_on_c, 0, 67, 0
4, 130080, Note_on_c, 0, 65, 40
4, 130080, Note_on_c, 0, 68, 40
4, 130080, Note_on_c, 0, 72, 40
4, 131040, Note_on_c, 0, 72, 0
4, 131040, Note_on_c, 0, 68, 0
4, 131040, Note_on_c, 0, 65, 0
4, 131040, Note_on_c, 0, 64, 40
4, 131040, Note_on_c, 0, 70, 40
4, 131040, Note_on_c, 0, 73, 40
4, 131520, Note_on_c, 0, 73, 0
4, 131520, Note_on_c, 0, 70, 0
4, 131520, Note_on_c, 0, 64, 0
4, 131520, Note_on_c, 0, 64, 40
4, 131520, Note_on_c, 0, 70, 40
4, 131520, Note_on_c, 0, 72, 40
4, 132480, Note_on_c, 0, 72, 0
4, 132480, Note_on_c, 0, 70, 0
4, 132480, Note_on_c, 0, 64, 0
4, 132480, Note_on_c, 0, 65, 40
4, 132480, Note_on_c, 0, 68, 40
4, 132480, Note_on_c, 0, 72, 40
4, 132960, Note_on_c, 0, 72, 0
4, 132960, Note_on_c, 0, 68, 0
4, 132960, Note_on_c, 0, 65, 0
4, 132960, Note_on_c, 0, 65, 40
4, 132960, Note_on_c, 0, 68, 40
4, 132960, Note_on_c, 0, 73, 40
4, 133440, Note_on_c, 0, 73, 0
4, 133440, Note_on_c, 0, 68, 0
4, 133440, Note_on_c, 0, 65, 0
4, 133680, Note_on_c, 0, 60, 40
4, 133680, Note_on_c, 0, 67, 40
4, 133680, Note_on_c, 0, 72, 40
4, 133920, Note_on_c, 0, 72, 0
4, 133920, Note_on_c, 0, 67, 0
4, 133920, Note_on_c, 0, 60, 0
4, 133920, Note_on_c, 0, 62, 40
4, 133920, Note_on_c, 0, 67, 40
4, 133920, Note_on_c, 0, 71, 40
4, 134400, Note_on_c, 0, 71, 0
4, 134400, Note_on_c, 0, 67, 0
4, 134400, Note_on_c, 0, 62, 0
4, 134400, Note_on_c, 0, 62, 40
4, 134400, Note_on_c, 0, 67, 40
4, 134400, Note_on_c, 0, 71, 40
4, 134880, Note_on_c, 0, 71, 0
4, 134880, Note_on_c, 0, 67, 0
4, 134880, Note_on_c, 0, 62, 0
4, 135120, Note_on_c, 0, 62, 40
4, 135120, Note_on_c, 0, 67, 40
4, 135120, Note_on_c, 0, 71, 40
4, 135360, Note_on_c, 0, 71, 0
4, 135360, Note_on_c, 0, 67, 0
4, 135360, Note_on_c, 0, 62, 0
4, 135360, Note_on_c, 0, 63, 40
4, 135360, Note_on_c, 0, 67, 40
4, 135360, Note_on_c, 0, 72, 40
4, 135600, Note_on_c, 0, 72, 0
4, 135600, Note_on_c, 0, 67, 0
4, 135600, Note_on_c, 0, 63, 0
4, 135600, Note_on_c, 0, 63, 40
4, 135600, Note_on_c, 0, 69, 40
4, 135600, Note_on_c, 0, 72, 40
4, 135840, Note_on_c, 0, 72, 0
4, 135840, Note_on_c, 0, 69, 0
4, 135840, Note_on_c, 0, 63, 0
4, 135840, Note_on_c, 0, 62, 40
4, 135840, Note_on_c, 0, 67, 40
4, 135840, Note_on_c, 0, 71, 40
4, 136800, Note_on_c, 0, 71, 0
4, 136800, Note_on_c, 0, 67, 0
4, 136800, Note_on_c, 0, 62, 0
4, 136800, Note_on_c, 0, 63, 40
4, 136800, Note_on_c, 0, 67, 40
4, 136800, Note_on_c, 0, 72, 40
4, 138240, Note_on_c, 0, 72, 0
4, 138240, Note_on_c, 0, 67, 0
4, 138240, Note_on_c, 0, 63, 0
4, 138240, End_track
5, 0, Start_track
5, 0, Note_on_c, 0, 48, 64
5, 240, Note_on_c, 0, 48, 0
5, 240, Note_on_c, 0, 48, 64
5, 480, Note_on_c, 0, 48, 0
5, 480, Note_on_c, 0, 50, 64
5, 720, Note_on_c, 0, 50, 0
5, 720, Note_on_c, 0, 50, 64
5, 960, Note_on_c, 0, 50, 0
5, 960, Note_on_c, 0, 50, 64
5, 1200, Note_on_c, 0, 50, 0
5, 1200, Note_on_c, 0, 50, 64
5, 1440, Note_on_c, 0, 50, 0
5, 1440, Note_on_c, 0, 51, 64
5, 1680, Note_on_c, 0, 51, 0
5, 1680, Note_on_c, 0, 51, 64
5, 1920, Note_on_c, 0, 51, 0
5, 1920, Note_on_c, 0, 52, 64
5, 2160, Note_on_c, 0, 52, 0
5, 2160, Note_on_c, 0, 52, 64
5, 2400, Note_on_c, 0, 52, 0
5, 2400, Note_on_c, 0, 52, 64
5, 2640, Note_on_c, 0, 52, 0
5, 2640, Note_on_c, 0, 52, 64
5, 2880, Note_on_c, 0, 52, 0
5, 2880, Note_on_c, 0, 53, 64
5, 3120, Note_on_c, 0, 53, 0
5, 3120, Note_on_c, 0, 53, 64
5, 3360, Note_on_c, 0, 53, 0
5, 3360, Note_on_c, 0, 55, 64
5, 3600, Note_on_c, 0, 55, 0
5, 3600, Note_on_c, 0, 55, 64
5, 3840, Note_on_c, 0, 55, 0
5, 3840, Note_on_c, 0, 55, 64
5, 4080, Note_on_c, 0, 55, 0
5, 4080, Note_on_c, 0, 55, 64
5, 4320, Note_on_c, 0, 55, 0
5, 4320, Note_on_c, 0, 56, 64
5, 4560, Note_on_c, 0, 56, 0
5, 4560, Note_on_c, 0, 56, 64
5, 4800, Note_on_c, 0, 56, 0
5, 4800, Note_on_c, 0, 47, 64
5, 5040, Note_on_c, 0, 47, 0
5, 5040, Note_on_c, 0, 47, 64
5, 5280, Note_on_c, 0, 47, 0
5, 5280, Note_on_c, 0, 47, 64
5, 5520, Note_on_c, 0, 47, 0
5, 5520, Note_on_c, 0, 47, 64
5, 5760, Note_on_c, 0, 47, 0
5, 5760, Note_on_c, 0, 48, 64
5, 6120, Note_on_c, 0, 48, 0
5, 6120, Note_on_c, 0, 60, 64
5, 6240, Note_on_c, 0, 60, 0
5, 6240, Note_on_c, 0, 55, 64
5, 6480, Note_on_c, 0, 55, 0
5, 6480, Note_on_c, 0, 54, 64
5, 6960, Note_on_c, 0, 54, 0
5, 6960, Note_on_c, 0, 55, 64
5, 7200, Note_on_c, 0, 55, 0
5, 7200, Note_on_c, 0, 55, 64
5, 7680, Note_on_c, 0, 55, 0
5, 7920, Note_on_c, 0, 43, 64
5, 8160, Note_on_c, 0, 43, 0
5, 8160, Note_on_c, 0, 43, 64
5, 8400, Note_on_c, 0, 43, 0
5, 8400, Note_on_c, 0, 43, 64
5, 8640, Note_on_c, 0, 43, 0
5, 8640, Note_on_c, 0, 43, 64
5, 9120, Note_on_c, 0, 43, 0
5, 9360, Note_on_c, 0, 55, 64
5, 9600, Note_on_c, 0, 55, 0
5, 9600, Note_on_c, 0, 55, 64
5, 9840, Note_on_c, 0, 55, 0
5, 9840, Note_on_c, 0, 55, 64
5, 10080, Note_on_c, 0, 55, 0
5, 10080, Note_on_c, 0, 55, 64
5, 10200, Note_on_c, 0, 55, 0
5, 10200, Note_on_c, 0, 43, 64
5, 10320, Note_on_c, 0, 43, 0
5, 10320, Note_on_c, 0, 47, 64
5, 10440, Note_on_c, 0, 47, 0
5, 10440, Note_on_c, 0, 50, 64
5, 10560, Note_on_c, 0, 50, 0
5, 10560, Note_on_c, 0, 53, 64
5, 10680, Note_on_c, 0, 53, 0
5, 10680, Note_on_c, 0, 56, 64
5, 10800, Note_on_c, 0, 56, 0
5, 10800, Note_on_c, 0, 56, 64
5, 10920, Note_on_c, 0, 56, 0
5, 10920, Note_on_c, 0, 55, 64
5, 11040, Note_on_c, 0, 55, 0
5, 11040, Note_on_c, 0, 55, 64
5, 11160, Note_on_c, 0, 55, 0
5, 11160, Note_on_c, 0, 53, 64
5, 11280, Note_on_c, 0, 53, 0
5, 11280, Note_on_c, 0, 53, 64
5, 11400, Note_on_c, 0, 53, 0
5, 11400, Note_on_c, 0, 52, 64
5, 11520, Note_on_c, 0, 52, 0
5, 11520, Note_on_c, 0, 52, 64
5, 11640, Note_on_c, 0, 52, 0
5, 11640, Note_on_c, 0, 48, 64
5, 11760, Note_on_c, 0, 48, 0
5, 11760, Note_on_c, 0, 52, 64
5, 11880, Note_on_c, 0, 52, 0
5, 11880, Note_on_c, 0, 55, 64
5, 12000, Note_on_c, 0, 55, 0
5, 12000, Note_on_c, 0, 58, 64
5, 12120, Note_on_c, 0, 58, 0
5, 12120, Note_on_c, 0, 61, 64
5, 12240, Note_on_c, 0, 61, 0
5, 12240, Note_on_c, 0, 61, 64
5, 12360, Note_on_c, 0, 61, 0
5, 12360, Note_on_c, 0, 60, 64
5, 12480, Note_on_c, 0, 60, 0
5, 12480, Note_on_c, 0, 60, 64
5, 12600, Note_on_c, 0, 60, 0
5, 12600, Note_on_c, 0, 58, 64
5, 12720, Note_on_c, 0, 58, 0
5, 12720, Note_on_c, 0, 56, 64
5, 12840, Note_on_c, 0, 56, 0
5, 12840, Note_on_c, 0, 55, 64
5, 12960, Note_on_c, 0, 55, 0
5, 12960, Note_on_c, 0, 53, 64
5, 13080, Note_on_c, 0, 53, 0
5, 13080, Note_on_c, 0, 41, 64
5, 13200, Note_on_c, 0, 41, 0
5, 13200, Note_on_c, 0, 44, 64
5, 13320, Note_on_c, 0, 44, 0
5, 13320, Note_on_c, 0, 48, 64
5, 13440, Note_on_c, 0, 48, 0
5, 13440, Note_on_c, 0, 51, 64
5, 13560, Note_on_c, 0, 51, 0
5, 13560, Note_on_c, 0, 55, 64
5, 13680, Note_on_c, 0, 55, 0
5, 13680, Note_on_c, 0, 55, 64
5, 13800, Note_on_c, 0, 55, 0
5, 13800, Note_on_c, 0, 53, 64
5, 13920, Note_on_c, 0, 53, 0
5, 13920, Note_on_c, 0, 53, 64
5, 14040, Note_on_c, 0, 53, 0
5, 14040, Note_on_c, 0, 51, 64
5, 14160, Note_on_c, 0, 51, 0
5, 14160, Note_on_c, 0, 50, 64
5, 14280, Note_on_c, 0, 50, 0
5, 14280, Note_on_c, 0, 48, 64
5, 14400, Note_on_c, 0, 48, 0
5, 14400, Note_on_c, 0, 46, 64
5, 14640, Note_on_c, 0, 46, 0
5, 14640, Note_on_c, 0, 46, 64
5, 14880, Note_on_c, 0, 46, 0
5, 14880, Note_on_c, 0, 46, 64
5, 15120, Note_on_c, 0, 46, 0
5, 15120, Note_on_c, 0, 46, 64
5, 15360, Note_on_c, 0, 46, 0
5, 15360, Note_on_c, 0, 46, 64
5, 15600, Note_on_c, 0, 46, 0
5, 15600, Note_on_c, 0, 46, 64
5, 15840, Note_on_c, 0, 46, 0
5, 15840, Note_on_c, 0, 51, 64
5, 16080, Note_on_c, 0, 51, 0
5, 16080, Note_on_c, 0, 51, 64
5, 16320, Note_on_c, 0, 51, 0
5, 16320, Note_on_c, 0, 51, 64
5, 16560, Note_on_c, 0, 51, 0
5, 16560, Note_on_c, 0, 51, 64
5, 16800, Note_on_c, 0, 51, 0
5, 16800, Note_on_c, 0, 51, 64
5, 17040, Note_on_c, 0, 51, 0
5, 17040, Note_on_c, 0, 51, 64
5, 17280, Note_on_c, 0, 51, 0
5, 17280, Note_on_c, 0, 44, 64
5, 17760, Note_on_c, 0, 44, 0
5, 17760, Note_on_c, 0, 56, 64
5, 18240, Note_on_c, 0, 56, 0
5, 18480, Note_on_c, 0, 48, 64
5, 18720, Note_on_c, 0, 48, 0
5, 18720, Note_on_c, 0, 46, 64
5, 19200, Note_on_c, 0, 46, 0
5, 19200, Note_on_c, 0, 58, 64
5, 19680, Note_on_c, 0, 58, 0
5, 19920, Note_on_c, 0, 56, 64
5, 20160, Note_on_c, 0, 56, 0
5, 20160, Note_on_c, 0, 55, 64
5, 20400, Note_on_c, 0, 55, 0
5, 20400, Note_on_c, 0, 56, 64
5, 20640, Note_on_c, 0, 56, 0
5, 20640, Note_on_c, 0, 58, 64
5, 20880, Note_on_c, 0, 58, 0
5, 20880, Note_on_c, 0, 58, 64
5, 21120, Note_on_c, 0, 58, 0
5, 21120, Note_on_c, 0, 46, 64
5, 21360, Note_on_c, 0, 46, 0
5, 21360, Note_on_c, 0, 46, 64
5, 21600, Note_on_c, 0, 46, 0
5, 21600, Note_on_c, 0, 39, 64
5, 21840, Note_on_c, 0, 39, 0
5, 21840, Note_on_c, 0, 51, 64
5, 22080, Note_on_c, 0, 51, 0
5, 22080, Note_on_c, 0, 55, 64
5, 22320, Note_on_c, 0, 55, 0
5, 22320, Note_on_c, 0, 53, 64
5, 22560, Note_on_c, 0, 53, 0
5, 22560, Note_on_c, 0, 51, 64
5, 22800, Note_on_c, 0, 51, 0
5, 22800, Note_on_c, 0, 50, 64
5, 23040, Note_on_c, 0, 50, 0
5, 23040, Note_on_c, 0, 48, 64
5, 23280, Note_on_c, 0, 48, 0
5, 23280, Note_on_c, 0, 48, 64
5, 23520, Note_on_c, 0, 48, 0
5, 23520, Note_on_c, 0, 50, 64
5, 23760, Note_on_c, 0, 50, 0
5, 23760, Note_on_c, 0, 50, 64
5, 24000, Note_on_c, 0, 50, 0
5, 24000, Note_on_c, 0, 50, 64
5, 24240, Note_on_c, 0, 50, 0
5, 24240, Note_on_c, 0, 50, 64
5, 24480, Note_on_c, 0, 50, 0
5, 24480, Note_on_c, 0, 51, 64
5, 24720, Note_on_c, 0, 51, 0
5, 24720, Note_on_c, 0, 51, 64
5, 24960, Note_on_c, 0, 51, 0
5, 24960, Note_on_c, 0, 52, 64
5, 25200, Note_on_c, 0, 52, 0
5, 25200, Note_on_c, 0, 52, 64
5, 25440, Note_on_c, 0, 52, 0
5, 25440, Note_on_c, 0, 52, 64
5, 25680, Note_on_c, 0, 52, 0
5, 25680, Note_on_c, 0, 52, 64
5, 25920, Note_on_c, 0, 52, 0
5, 25920, Note_on_c, 0, 53, 64
5, 26160, Note_on_c, 0, 53, 0
5, 26160, Note_on_c, 0, 53, 64
5, 26400, Note_on_c, 0, 53, 0
5, 26400, Note_on_c, 0, 55, 64
5, 26640, Note_on_c, 0, 55, 0
5, 26640, Note_on_c, 0, 55, 64
5, 26880, Note_on_c, 0, 55, 0
5, 26880, Note_on_c, 0, 55, 64
5, 27120, Note_on_c, 0, 55, 0
5, 27120, Note_on_c, 0, 55, 64
5, 27360, Note_on_c, 0, 55, 0
5, 27360, Note_on_c, 0, 56, 64
5, 27600, Note_on_c, 0, 56, 0
5, 27600, Note_on_c, 0, 56, 64
5, 27840, Note_on_c, 0, 56, 0
5, 27840, Note_on_c, 0, 47, 64
5, 28080, Note_on_c, 0, 47, 0
5, 28080, Note_on_c, 0, 47, 64
5, 28320, Note_on_c, 0, 47, 0
5, 28320, Note_on_c, 0, 47, 64
5, 28560, Note_on_c, 0, 47, 0
5, 28560, Note_on_c, 0, 47, 64
5, 28800, Note_on_c, 0, 47, 0
5, 28800, Note_on_c, 0, 48, 64
5, 29160, Note_on_c, 0, 48, 0
5, 29160, Note_on_c, 0, 60, 64
5, 29280, Note_on_c, 0, 60, 0
5, 29280, Note_on_c, 0, 55, 64
5, 29520, Note_on_c, 0, 55, 0
5, 29520, Note_on_c, 0, 54, 64
5, 30000, Note_on_c, 0, 54, 0
5, 30000, Note_on_c, 0, 55, 64
5, 30240, Note_on_c, 0, 55, 0
5, 30240, Note_on_c, 0, 55, 64
5, 30720, Note_on_c, 0, 55, 0
5, 30960, Note_on_c, 0, 43, 64
5, 31200, Note_on_c, 0, 43, 0
5, 31200, Note_on_c, 0, 43, 64
5, 31440, Note_on_c, 0, 43, 0
5, 31440, Note_on_c, 0, 43, 64
5, 31680, Note_on_c, 0, 43, 0
5, 31680, Note_on_c, 0, 43, 64
5, 32160, Note_on_c, 0, 43, 0
5, 32400, Note_on_c, 0, 55, 64
5, 32640, Note_on_c, 0, 55, 0
5, 32640, Note_on_c, 0, 55, 64
5, 32880, Note_on_c, 0, 55, 0
5, 32880, Note_on_c, 0, 55, 64
5, 33120, Note_on_c, 0, 55, 0
5, 33120, Note_on_c, 0, 55, 64
5, 33240, Note_on_c, 0, 55, 0
5, 33240, Note_on_c, 0, 43, 64
5, 33360, Note_on_c, 0, 43, 0
5, 33360, Note_on_c, 0, 47, 64
5, 33480, Note_on_c, 0, 47, 0
5, 33480, Note_on_c, 0, 50, 64
5, 33600, Note_on_c, 0, 50, 0
5, 33600, Note_on_c, 0, 53, 64
5, 33720, Note_on_c, 0, 53, 0
5, 33720, Note_on_c, 0, 56, 64
5, 33840, Note_on_c, 0, 56, 0
5, 33840, Note_on_c, 0, 56, 64
5, 33960, Note_on_c, 0, 56, 0
5, 33960, Note_on_c, 0, 55, 64
5, 34080, Note_on_c, 0, 55, 0
5, 34080, Note_on_c, 0, 55, 64
5, 34200, Note_on_c, 0, 55, 0
5, 34200, Note_on_c, 0, 53, 64
5, 34320, Note_on_c, 0, 53, 0
5, 34320, Note_on_c, 0, 53, 64
5, 34440, Note_on_c, 0, 53, 0
5, 34440, Note_on_c, 0, 52, 64
5, 34560, Note_on_c, 0, 52, 0
5, 34560, Note_on_c, 0, 52, 64
5, 34680, Note_on_c, 0, 52, 0
5, 34680, Note_on_c, 0, 48, 64
5, 34800, Note_on_c, 0, 48, 0
5, 34800, Note_on_c, 0, 52, 64
5, 34920, Note_on_c, 0, 52, 0
5, 34920, Note_on_c, 0, 55, 64
5, 35040, Note_on_c, 0, 55, 0
5, 35040, Note_on_c, 0, 58, 64
5, 35160, Note_on_c, 0, 58, 0
5, 35160, Note_on_c, 0, 61, 64
5, 35280, Note_on_c, 0, 61, 0
5, 35280, Note_on_c, 0, 61, 64
5, 35400, Note_on_c, 0, 61, 0
5, 35400, Note_on_c, 0, 60, 64
5, 35520, Note_on_c, 0, 60, 0
5, 35520, Note_on_c, 0, 60, 64
5, 35640, Note_on_c, 0, 60, 0
5, 35640, Note_on_c, 0, 58, 64
5, 35760, Note_on_c, 0, 58, 0
5, 35760, Note_on_c, 0, 56, 64
5, 35880, Note_on_c, 0, 56, 0
5, 35880, Note_on_c, 0, 55, 64
5, 36000, Note_on_c, 0, 55, 0
5, 36000, Note_on_c, 0, 53, 64
5, 36120, Note_on_c, 0, 53, 0
5, 36120, Note_on_c, 0, 41, 64
5, 36240, Note_on_c, 0, 41, 0
5, 36240, Note_on_c, 0, 44, 64
5, 36360, Note_on_c, 0, 44, 0
5, 36360, Note_on_c, 0, 48, 64
5, 36480, Note_on_c, 0, 48, 0
5, 36480, Note_on_c, 0, 51, 64
5, 36600, Note_on_c, 0, 51, 0
5, 36600, Note_on_c, 0, 55, 64
5, 36720, Note_on_c, 0, 55, 0
5, 36720, Note_on_c, 0, 55, 64
5, 36840, Note_on_c, 0, 55, 0
5, 36840, Note_on_c, 0, 53, 64
5, 36960, Note_on_c, 0, 53, 0
5, 36960, Note_on_c, 0, 53, 64
5, 37080, Note_on_c, 0, 53, 0
5, 37080, Note_on_c, 0, 51, 64
5, 37200, Note_on_c, 0, 51, 0
5, 37200, Note_on_c, 0, 50, 64
5, 37320, Note_on_c, 0, 50, 0
5, 37320, Note_on_c, 0, 48, 64
5, 37440, Note_on_c, 0, 48, 0
5, 37440, Note_on_c, 0, 46, 64
5, 37680, Note_on_c, 0, 46, 0
5, 37680, Note_on_c, 0, 46, 64
5, 37920, Note_on_c, 0, 46, 0
5, 37920, Note_on_c, 0, 46, 64
5, 38160, Note_on_c, 0, 46, 0
5, 38160, Note_on_c, 0, 46, 64
5, 38400, Note_on_c, 0, 46, 0
5, 38400, Note_on_c, 0, 46, 64
5, 38640, Note_on_c, 0, 46, 0
5, 38640, Note_on_c, 0, 46, 64
5, 38880, Note_on_c, 0, 46, 0
5, 38880, Note_on_c, 0, 51, 64
5, 39120, Note_on_c, 0, 51, 0
5, 39120, Note_on_c, 0, 51, 64
5, 39360, Note_on_c, 0, 51, 0
5, 39360, Note_on_c, 0, 51, 64
5, 39600, Note_on_c, 0, 51, 0
5, 39600, Note_on_c, 0, 51, 64
5, 39840, Note_on_c, 0, 51, 0
5, 39840, Note_on_c, 0, 51, 64
5, 40080, Note_on_c, 0, 51, 0
5, 40080, Note_on_c, 0, 51, 64
5, 40320, Note_on_c, 0, 51, 0
5, 40320, Note_on_c, 0, 44, 64
5, 40800, Note_on_c, 0, 44, 0
5, 40800, Note_on_c, 0, 56, 64
5, 41280, Note_on_c, 0, 56, 0
5, 41520, Note_on_c, 0, 48, 64
5, 41760, Note_on_c, 0, 48, 0
5, 41760, Note_on_c, 0, 46, 64
5, 42240, Note_on_c, 0, 46, 0
5, 42240, Note_on_c, 0, 58, 64
5, 42720, Note_on_c, 0, 58, 0
5, 42960, Note_on_c, 0, 56, 64
5, 43200, Note_on_c, 0, 56, 0
5, 43200, Note_on_c, 0, 55, 64
5, 43440, Note_on_c, 0, 55, 0
5, 43440, Note_on_c, 0, 56, 64
5, 43680, Note_on_c, 0, 56, 0
5, 43680, Note_on_c, 0, 58, 64
5, 43920, Note_on_c, 0, 58, 0
5, 43920, Note_on_c, 0, 58, 64
5, 44160, Note_on_c, 0, 58, 0
5, 44160, Note_on_c, 0, 46, 64
5, 44400, Note_on_c, 0, 46, 0
5, 44400, Note_on_c, 0, 46, 64
5, 44640, Note_on_c, 0, 46, 0
5, 44640, Note_on_c, 0, 39, 64
5, 44880, Note_on_c, 0, 39, 0
5, 44880, Note_on_c, 0, 51, 64
5, 45120, Note_on_c, 0, 51, 0
5, 45120, Note_on_c, 0, 55, 64
5, 45360, Note_on_c, 0, 55, 0
5, 45360, Note_on_c, 0, 53, 64
5, 45600, Note_on_c, 0, 53, 0
5, 45600, Note_on_c, 0, 51, 64
5, 45840, Note_on_c, 0, 51, 0
5, 45840, Note_on_c, 0, 50, 64
5, 46080, Note_on_c, 0, 50, 0
5, 46080, Note_on_c, 0, 51, 64
5, 46320, Note_on_c, 0, 51, 0
5, 46320, Note_on_c, 0, 51, 64
5, 46560, Note_on_c, 0, 51, 0
5, 46560, Note_on_c, 0, 53, 64
5, 46800, Note_on_c, 0, 53, 0
5, 46800, Note_on_c, 0, 53, 64
5, 47040, Note_on_c, 0, 53, 0
5, 47040, Note_on_c, 0, 55, 64
5, 47280, Note_on_c, 0, 55, 0
5, 47280, Note_on_c, 0, 55, 64
5, 47520, Note_on_c, 0, 55, 0
5, 47520, Note_on_c, 0, 56, 64
5, 47760, Note_on_c, 0, 56, 0
5, 47760, Note_on_c, 0, 56, 64
5, 48000, Note_on_c, 0, 56, 0
5, 48000, Note_on_c, 0, 56, 64
5, 48240, Note_on_c, 0, 56, 0
5, 48240, Note_on_c, 0, 56, 64
5, 48480, Note_on_c, 0, 56, 0
5, 48480, Note_on_c, 0, 54, 64
5, 48720, Note_on_c, 0, 54, 0
5, 48720, Note_on_c, 0, 54, 64
5, 48960, Note_on_c, 0, 54, 0
5, 48960, Note_on_c, 0, 53, 64
5, 49200, Note_on_c, 0, 53, 0
5, 49200, Note_on_c, 0, 53, 64
5, 49440, Note_on_c, 0, 53, 0
5, 49440, Note_on_c, 0, 55, 64
5, 49680, Note_on_c, 0, 55, 0
5, 49680, Note_on_c, 0, 55, 64
5, 49920, Note_on_c, 0, 55, 0
5, 49920, Note_on_c, 0, 57, 64
5, 50160, Note_on_c, 0, 57, 0
5, 50160, Note_on_c, 0, 57, 64
5, 50400, Note_on_c, 0, 57, 0
5, 50400, Note_on_c, 0, 58, 64
5, 50640, Note_on_c, 0, 58, 0
5, 50640, Note_on_c, 0, 58, 64
5, 50880, Note_on_c, 0, 58, 0
5, 50880, Note_on_c, 0, 58, 64
5, 51120, Note_on_c, 0, 58, 0
5, 51120, Note_on_c, 0, 58, 64
5, 51360, Note_on_c, 0, 58, 0
5, 51360, Note_on_c, 0, 56, 64
5, 51600, Note_on_c, 0, 56, 0
5, 51600, Note_on_c, 0, 56, 64
5, 51840, Note_on_c, 0, 56, 0
5, 51840, Note_on_c, 0, 55, 64
5, 52080, Note_on_c, 0, 55, 0
5, 52080, Note_on_c, 0, 55, 64
5, 52320, Note_on_c, 0, 55, 0
5, 52320, Note_on_c, 0, 50, 64
5, 52560, Note_on_c, 0, 50, 0
5, 52560, Note_on_c, 0, 50, 64
5, 52800, Note_on_c, 0, 50, 0
5, 52800, Note_on_c, 0, 47, 64
5, 53040, Note_on_c, 0, 47, 0
5, 53040, Note_on_c, 0, 47, 64
5, 53280, Note_on_c, 0, 47, 0
5, 53280, Note_on_c, 0, 48, 64
5, 53520, Note_on_c, 0, 48, 0
5, 53520, Note_on_c, 0, 48, 64
5, 53760, Note_on_c, 0, 48, 0
5, 53760, Note_on_c, 0, 46, 64
5, 54000, Note_on_c, 0, 46, 0
5, 54000, Note_on_c, 0, 46, 64
5, 54240, Note_on_c, 0, 46, 0
5, 54240, Note_on_c, 0, 45, 64
5, 54480, Note_on_c, 0, 45, 0
5, 54480, Note_on_c, 0, 45, 64
5, 54720, Note_on_c, 0, 45, 0
5, 54720, Note_on_c, 0, 46, 64
5, 54960, Note_on_c, 0, 46, 0
5, 54960, Note_on_c, 0, 46, 64
5, 55200, Note_on_c, 0, 46, 0
5, 55200, Note_on_c, 0, 51, 64
5, 55440, Note_on_c, 0, 51, 0
5, 55440, Note_on_c, 0, 51, 64
5, 55680, Note_on_c, 0, 51, 0
5, 55680, Note_on_c, 0, 48, 64
5, 55920, Note_on_c, 0, 48, 0
5, 55920, Note_on_c, 0, 48, 64
5, 56160, Note_on_c, 0, 48, 0
5, 56160, Note_on_c, 0, 50, 64
5, 56280, Note_on_c, 0, 50, 0
5, 56280, Note_on_c, 0, 38, 64
5, 56400, Note_on_c, 0, 38, 0
5, 56400, Note_on_c, 0, 42, 64
5, 56520, Note_on_c, 0, 42, 0
5, 56520, Note_on_c, 0, 45, 64
5, 56640, Note_on_c, 0, 45, 0
5, 56640, Note_on_c, 0, 48, 64
5, 56760, Note_on_c, 0, 48, 0
5, 56760, Note_on_c, 0, 51, 64
5, 56880, Note_on_c, 0, 51, 0
5, 56880, Note_on_c, 0, 51, 64
5, 57000, Note_on_c, 0, 51, 0
5, 57000, Note_on_c, 0, 50, 64
5, 57120, Note_on_c, 0, 50, 0
5, 57120, Note_on_c, 0, 50, 64
5, 57240, Note_on_c, 0, 50, 0
5, 57240, Note_on_c, 0, 48, 64
5, 57360, Note_on_c, 0, 48, 0
5, 57360, Note_on_c, 0, 46, 64
5, 57480, Note_on_c, 0, 46, 0
5, 57480, Note_on_c, 0, 45, 64
5, 57600, Note_on_c, 0, 45, 0
5, 57600, Note_on_c, 0, 43, 64
5, 57840, Note_on_c, 0, 43, 0
5, 57840, Note_on_c, 0, 43, 64
5, 58080, Note_on_c, 0, 43, 0
5, 58080, Note_on_c, 0, 45, 64
5, 58320, Note_on_c, 0, 45, 0
5, 58320, Note_on_c, 0, 45, 64
5, 58560, Note_on_c, 0, 45, 0
5, 58560, Note_on_c, 0, 47, 64
5, 58800, Note_on_c, 0, 47, 0
5, 58800, Note_on_c, 0, 47, 64
5, 59040, Note_on_c, 0, 47, 0
5, 59040, Note_on_c, 0, 48, 64
5, 59280, Note_on_c, 0, 48, 0
5, 59280, Note_on_c, 0, 48, 64
5, 59520, Note_on_c, 0, 48, 0
5, 59520, Note_on_c, 0, 50, 64
5, 59760, Note_on_c, 0, 50, 0
5, 59760, Note_on_c, 0, 50, 64
5, 60000, Note_on_c, 0, 50, 0
5, 60000, Note_on_c, 0, 51, 64
5, 60240, Note_on_c, 0, 51, 0
5, 60240, Note_on_c, 0, 51, 64
5, 60480, Note_on_c, 0, 51, 0
5, 60480, Note_on_c, 0, 42, 64
5, 60720, Note_on_c, 0, 42, 0
5, 60720, Note_on_c, 0, 45, 64
5, 60960, Note_on_c, 0, 45, 0
5, 60960, Note_on_c, 0, 48, 64
5, 61200, Note_on_c, 0, 48, 0
5, 61200, Note_on_c, 0, 46, 64
5, 61440, Note_on_c, 0, 46, 0
5, 61440, Note_on_c, 0, 48, 64
5, 61680, Note_on_c, 0, 48, 0
5, 61680, Note_on_c, 0, 45, 64
5, 61920, Note_on_c, 0, 45, 0
5, 61920, Note_on_c, 0, 46, 64
5, 62160, Note_on_c, 0, 46, 0
5, 62160, Note_on_c, 0, 43, 64
5, 62400, Note_on_c, 0, 43, 0
5, 62400, Note_on_c, 0, 50, 64
5, 62640, Note_on_c, 0, 50, 0
5, 62640, Note_on_c, 0, 50, 64
5, 62880, Note_on_c, 0, 50, 0
5, 62880, Note_on_c, 0, 38, 64
5, 63120, Note_on_c, 0, 38, 0
5, 63120, Note_on_c, 0, 38, 64
5, 63360, Note_on_c, 0, 38, 0
5, 63360, Note_on_c, 0, 43, 64
5, 63600, Note_on_c, 0, 43, 0
5, 63600, Note_on_c, 0, 43, 64
5, 63840, Note_on_c, 0, 43, 0
5, 63840, Note_on_c, 0, 46, 64
5, 64080, Note_on_c, 0, 46, 0
5, 64080, Note_on_c, 0, 50, 64
5, 64320, Note_on_c, 0, 50, 0
5, 64320, Note_on_c, 0, 46, 64
5, 64560, Note_on_c, 0, 46, 0
5, 64560, Note_on_c, 0, 43, 64
5, 64800, Note_on_c, 0, 43, 0
5, 64800, Note_on_c, 0, 39, 64
5, 65040, Note_on_c, 0, 39, 0
5, 65040, Note_on_c, 0, 51, 64
5, 65280, Note_on_c, 0, 51, 0
5, 65280, Note_on_c, 0, 50, 64
5, 65520, Note_on_c, 0, 50, 0
5, 65520, Note_on_c, 0, 50, 64
5, 65760, Note_on_c, 0, 50, 0
5, 65760, Note_on_c, 0, 55, 64
5, 66000, Note_on_c, 0, 55, 0
5, 66000, Note_on_c, 0, 55, 64
5, 66240, Note_on_c, 0, 55, 0
5, 66240, Note_on_c, 0, 48, 64
5, 66480, Note_on_c, 0, 48, 0
5, 66480, Note_on_c, 0, 48, 64
5, 66720, Note_on_c, 0, 48, 0
5, 66720, Note_on_c, 0, 51, 64
5, 66960, Note_on_c, 0, 51, 0
5, 66960, Note_on_c, 0, 55, 64
5, 67200, Note_on_c, 0, 55, 0
5, 67200, Note_on_c, 0, 51, 64
5, 67440, Note_on_c, 0, 51, 0
5, 67440, Note_on_c, 0, 48, 64
5, 67680, Note_on_c, 0, 48, 0
5, 67680, Note_on_c, 0, 44, 64
5, 67920, Note_on_c, 0, 44, 0
5, 67920, Note_on_c, 0, 56, 64
5, 68160, Note_on_c, 0, 56, 0
5, 68160, Note_on_c, 0, 55, 64
5, 68400, Note_on_c, 0, 55, 0
5, 68400, Note_on_c, 0, 55, 64
5, 68640, Note_on_c, 0, 55, 0
5, 68640, Note_on_c, 0, 60, 64
5, 68880, Note_on_c, 0, 60, 0
5, 68880, Note_on_c, 0, 60, 64
5, 69120, Note_on_c, 0, 60, 0
5, 69120, Note_on_c, 0, 53, 64
5, 69360, Note_on_c, 0, 53, 0
5, 69360, Note_on_c, 0, 53, 64
5, 69600, Note_on_c, 0, 53, 0
5, 69600, Note_on_c, 0, 55, 64
5, 69840, Note_on_c, 0, 55, 0
5, 69840, Note_on_c, 0, 55, 64
5, 70080, Note_on_c, 0, 55, 0
5, 70080, Note_on_c, 0, 55, 64
5, 70320, Note_on_c, 0, 55, 0
5, 70320, Note_on_c, 0, 55, 64
5, 70560, Note_on_c, 0, 55, 0
5, 70560, Note_on_c, 0, 56, 64
5, 70800, Note_on_c, 0, 56, 0
5, 70800, Note_on_c, 0, 56, 64
5, 71040, Note_on_c, 0, 56, 0
5, 71040, Note_on_c, 0, 47, 64
5, 71280, Note_on_c, 0, 47, 0
5, 71280, Note_on_c, 0, 47, 64
5, 71520, Note_on_c, 0, 47, 0
5, 71520, Note_on_c, 0, 47, 64
5, 71760, Note_on_c, 0, 47, 0
5, 71760, Note_on_c, 0, 47, 64
5, 72000, Note_on_c, 0, 47, 0
5, 72000, Note_on_c, 0, 48, 64
5, 72240, Note_on_c, 0, 48, 0
5, 72240, Note_on_c, 0, 48, 64
5, 72480, Note_on_c, 0, 48, 0
5, 72480, Note_on_c, 0, 50, 64
5, 72720, Note_on_c, 0, 50, 0
5, 72720, Note_on_c, 0, 50, 64
5, 72960, Note_on_c, 0, 50, 0
5, 72960, Note_on_c, 0, 50, 64
5, 73200, Note_on_c, 0, 50, 0
5, 73200, Note_on_c, 0, 50, 64
5, 73440, Note_on_c, 0, 50, 0
5, 73440, Note_on_c, 0, 51, 64
5, 73680, Note_on_c, 0, 51, 0
5, 73680, Note_on_c, 0, 51, 64
5, 73920, Note_on_c, 0, 51, 0
5, 73920, Note_on_c, 0, 42, 64
5, 74160, Note_on_c, 0, 42, 0
5, 74160, Note_on_c, 0, 42, 64
5, 74400, Note_on_c, 0, 42, 0
5, 74400, Note_on_c, 0, 42, 64
5, 74640, Note_on_c, 0, 42, 0
5, 74640, Note_on_c, 0, 42, 64
5, 74880, Note_on_c, 0, 42, 0
5, 74880, Note_on_c, 0, 43, 64
5, 75120, Note_on_c, 0, 43, 0
5, 75120, Note_on_c, 0, 55, 64
5, 75360, Note_on_c, 0, 55, 0
5, 75360, Note_on_c, 0, 50, 64
5, 75600, Note_on_c, 0, 50, 0
5, 75600, Note_on_c, 0, 47, 64
5, 75840, Note_on_c, 0, 47, 0
5, 75840, Note_on_c, 0, 43, 64
5, 76080, Note_on_c, 0, 43, 0
5, 76080, Note_on_c, 0, 47, 64
5, 76320, Note_on_c, 0, 47, 0
5, 76320, Note_on_c, 0, 48, 64
5, 76560, Note_on_c, 0, 48, 0
5, 76560, Note_on_c, 0, 60, 64
5, 76800, Note_on_c, 0, 60, 0
5, 76800, Note_on_c, 0, 55, 64
5, 77040, Note_on_c, 0, 55, 0
5, 77040, Note_on_c, 0, 52, 64
5, 77280, Note_on_c, 0, 52, 0
5, 77280, Note_on_c, 0, 48, 64
5, 77520, Note_on_c, 0, 48, 0
5, 77520, Note_on_c, 0, 52, 64
5, 77760, Note_on_c, 0, 52, 0
5, 77760, Note_on_c, 0, 41, 64
5, 78000, Note_on_c, 0, 41, 0
5, 78000, Note_on_c, 0, 53, 64
5, 78240, Note_on_c, 0, 53, 0
5, 78240, Note_on_c, 0, 48, 64
5, 78480, Note_on_c, 0, 48, 0
5, 78480, Note_on_c, 0, 45, 64
5, 78720, Note_on_c, 0, 45, 0
5, 78720, Note_on_c, 0, 41, 64
5, 78960, Note_on_c, 0, 41, 0
5, 78960, Note_on_c, 0, 45, 64
5, 79200, Note_on_c, 0, 45, 0
5, 79200, Note_on_c, 0, 46, 64
5, 79440, Note_on_c, 0, 46, 0
5, 79440, Note_on_c, 0, 58, 64
5, 79680, Note_on_c, 0, 58, 0
5, 79680, Note_on_c, 0, 53, 64
5, 79920, Note_on_c, 0, 53, 0
5, 79920, Note_on_c, 0, 50, 64
5, 80160, Note_on_c, 0, 50, 0
5, 80160, Note_on_c, 0, 46, 64
5, 80400, Note_on_c, 0, 46, 0
5, 80400, Note_on_c, 0, 50, 64
5, 80640, Note_on_c, 0, 50, 0
5, 80640, Note_on_c, 0, 47, 64
5, 80760, Note_on_c, 0, 47, 0
5, 80760, Note_on_c, 0, 43, 64
5, 80880, Note_on_c, 0, 43, 0
5, 80880, Note_on_c, 0, 47, 64
5, 81000, Note_on_c, 0, 47, 0
5, 81000, Note_on_c, 0, 50, 64
5, 81120, Note_on_c, 0, 50, 0
5, 81120, Note_on_c, 0, 53, 64
5, 81240, Note_on_c, 0, 53, 0
5, 81240, Note_on_c, 0, 56, 64
5, 81360, Note_on_c, 0, 56, 0
5, 81360, Note_on_c, 0, 56, 64
5, 81480, Note_on_c, 0, 56, 0
5, 81480, Note_on_c, 0, 55, 64
5, 81600, Note_on_c, 0, 55, 0
5, 81600, Note_on_c, 0, 55, 64
5, 81720, Note_on_c, 0, 55, 0
5, 81720, Note_on_c, 0, 53, 64
5, 81840, Note_on_c, 0, 53, 0
5, 81840, Note_on_c, 0, 53, 64
5, 81960, Note_on_c, 0, 53, 0
5, 81960, Note_on_c, 0, 51, 64
5, 82080, Note_on_c, 0, 51, 0
5, 82080, Note_on_c, 0, 51, 64
5, 82320, Note_on_c, 0, 51, 0
5, 82320, Note_on_c, 0, 53, 64
5, 82560, Note_on_c, 0, 53, 0
5, 82560, Note_on_c, 0, 55, 64
5, 82800, Note_on_c, 0, 55, 0
5, 82800, Note_on_c, 0, 55, 64
5, 83040, Note_on_c, 0, 55, 0
5, 83040, Note_on_c, 0, 43, 64
5, 83280, Note_on_c, 0, 43, 0
5, 83280, Note_on_c, 0, 43, 64
5, 83520, Note_on_c, 0, 43, 0
5, 83520, Note_on_c, 0, 44, 64
5, 83760, Note_on_c, 0, 44, 0
5, 83760, Note_on_c, 0, 44, 64
5, 84000, Note_on_c, 0, 44, 0
5, 84000, Note_on_c, 0, 44, 64
5, 84240, Note_on_c, 0, 44, 0
5, 84240, Note_on_c, 0, 44, 64
5, 84480, Note_on_c, 0, 44, 0
5, 84480, Note_on_c, 0, 44, 64
5, 84720, Note_on_c, 0, 44, 0
5, 84720, Note_on_c, 0, 44, 64
5, 84960, Note_on_c, 0, 44, 0
5, 84960, Note_on_c, 0, 43, 64
5, 85200, Note_on_c, 0, 43, 0
5, 85200, Note_on_c, 0, 43, 64
5, 85440, Note_on_c, 0, 43, 0
5, 85440, Note_on_c, 0, 43, 64
5, 85680, Note_on_c, 0, 43, 0
5, 85680, Note_on_c, 0, 43, 64
5, 85920, Note_on_c, 0, 43, 0
5, 85920, Note_on_c, 0, 43, 64
5, 86160, Note_on_c, 0, 43, 0
5, 86160, Note_on_c, 0, 43, 64
5, 86400, Note_on_c, 0, 43, 0
5, 86400, Note_on_c, 0, 41, 64
5, 86880, Note_on_c, 0, 41, 0
5, 86880, Note_on_c, 0, 53, 64
5, 87360, Note_on_c, 0, 53, 0
5, 87600, Note_on_c, 0, 44, 64
5, 87840, Note_on_c, 0, 44, 0
5, 87840, Note_on_c, 0, 43, 64
5, 88320, Note_on_c, 0, 43, 0
5, 88320, Note_on_c, 0, 55, 64
5, 88800, Note_on_c, 0, 55, 0
5, 89040, Note_on_c, 0, 53, 64
5, 89280, Note_on_c, 0, 53, 0
5, 89280, Note_on_c, 0, 51, 64
5, 89520, Note_on_c, 0, 51, 0
5, 89520, Note_on_c, 0, 53, 64
5, 89760, Note_on_c, 0, 53, 0
5, 89760, Note_on_c, 0, 55, 64
5, 90000, Note_on_c, 0, 55, 0
5, 90000, Note_on_c, 0, 55, 64
5, 90240, Note_on_c, 0, 55, 0
5, 90240, Note_on_c, 0, 43, 64
5, 90480, Note_on_c, 0, 43, 0
5, 90480, Note_on_c, 0, 43, 64
5, 90720, Note_on_c, 0, 43, 0
5, 90720, Note_on_c, 0, 36, 64
5, 90840, Note_on_c, 0, 36, 0
5, 90840, Note_on_c, 0, 48, 64
5, 90960, Note_on_c, 0, 48, 0
5, 90960, Note_on_c, 0, 51, 64
5, 91080, Note_on_c, 0, 51, 0
5, 91080, Note_on_c, 0, 55, 64
5, 91200, Note_on_c, 0, 55, 0
5, 91200, Note_on_c, 0, 60, 64
5, 91320, Note_on_c, 0, 60, 0
5, 91320, Note_on_c, 0, 63, 64
5, 91440, Note_on_c, 0, 63, 0
5, 91440, Note_on_c, 0, 62, 64
5, 91560, Note_on_c, 0, 62, 0
5, 91560, Note_on_c, 0, 60, 64
5, 91680, Note_on_c, 0, 60, 0
5, 91680, Note_on_c, 0, 58, 64
5, 91800, Note_on_c, 0, 58, 0
5, 91800, Note_on_c, 0, 56, 64
5, 91920, Note_on_c, 0, 56, 0
5, 91920, Note_on_c, 0, 55, 64
5, 92040, Note_on_c, 0, 55, 0
5, 92040, Note_on_c, 0, 53, 64
5, 92160, Note_on_c, 0, 53, 0
5, 92160, Note_on_c, 0, 51, 64
5, 92400, Note_on_c, 0, 51, 0
5, 92400, Note_on_c, 0, 51, 64
5, 92640, Note_on_c, 0, 51, 0
5, 92640, Note_on_c, 0, 53, 64
5, 92880, Note_on_c, 0, 53, 0
5, 92880, Note_on_c, 0, 53, 64
5, 93120, Note_on_c, 0, 53, 0
5, 93120, Note_on_c, 0, 55, 64
5, 93360, Note_on_c, 0, 55, 0
5, 93360, Note_on_c, 0, 55, 64
5, 93600, Note_on_c, 0, 55, 0
5, 93600, Note_on_c, 0, 56, 64
5, 93840, Note_on_c, 0, 56, 0
5, 93840, Note_on_c, 0, 56, 64
5, 94080, Note_on_c, 0, 56, 0
5, 94080, Note_on_c, 0, 56, 64
5, 94320, Note_on_c, 0, 56, 0
5, 94320, Note_on_c, 0, 56, 64
5, 94560, Note_on_c, 0, 56, 0
5, 94560, Note_on_c, 0, 54, 64
5, 94800, Note_on_c, 0, 54, 0
5, 94800, Note_on_c, 0, 54, 64
5, 95040, Note_on_c, 0, 54, 0
5, 95040, Note_on_c, 0, 53, 64
5, 95280, Note_on_c, 0, 53, 0
5, 95280, Note_on_c, 0, 53, 64
5, 95520, Note_on_c, 0, 53, 0
5, 95520, Note_on_c, 0, 55, 64
5, 95760, Note_on_c, 0, 55, 0
5, 95760, Note_on_c, 0, 55, 64
5, 96000, Note_on_c, 0, 55, 0
5, 96000, Note_on_c, 0, 57, 64
5, 96240, Note_on_c, 0, 57, 0
5, 96240, Note_on_c, 0, 57, 64
5, 96480, Note_on_c, 0, 57, 0
5, 96480, Note_on_c, 0, 58, 64
5, 96720, Note_on_c, 0, 58, 0
5, 96720, Note_on_c, 0, 58, 64
5, 96960, Note_on_c, 0, 58, 0
5, 96960, Note_on_c, 0, 58, 64
5, 97200, Note_on_c, 0, 58, 0
5, 97200, Note_on_c, 0, 58, 64
5, 97440, Note_on_c, 0, 58, 0
5, 97440, Note_on_c, 0, 56, 64
5, 97680, Note_on_c, 0, 56, 0
5, 97680, Note_on_c, 0, 56, 64
5, 97920, Note_on_c, 0, 56, 0
5, 97920, Note_on_c, 0, 55, 64
5, 98160, Note_on_c, 0, 55, 0
5, 98160, Note_on_c, 0, 55, 64
5, 98400, Note_on_c, 0, 55, 0
5, 98400, Note_on_c, 0, 50, 64
5, 98640, Note_on_c, 0, 50, 0
5, 98640, Note_on_c, 0, 50, 64
5, 98880, Note_on_c, 0, 50, 0
5, 98880, Note_on_c, 0, 47, 64
5, 99120, Note_on_c, 0, 47, 0
5, 99120, Note_on_c, 0, 47, 64
5, 99360, Note_on_c, 0, 47, 0
5, 99360, Note_on_c, 0, 48, 64
5, 99600, Note_on_c, 0, 48, 0
5, 99600, Note_on_c, 0, 48, 64
5, 99840, Note_on_c, 0, 48, 0
5, 99840, Note_on_c, 0, 46, 64
5, 100080, Note_on_c, 0, 46, 0
5, 100080, Note_on_c, 0, 46, 64
5, 100320, Note_on_c, 0, 46, 0
5, 100320, Note_on_c, 0, 45, 64
5, 100560, Note_on_c, 0, 45, 0
5, 100560, Note_on_c, 0, 45, 64
5, 100800, Note_on_c, 0, 45, 0
5, 100800, Note_on_c, 0, 46, 64
5, 101040, Note_on_c, 0, 46, 0
5, 101040, Note_on_c, 0, 46, 64
5, 101280, Note_on_c, 0, 46, 0
5, 101280, Note_on_c, 0, 51, 64
5, 101520, Note_on_c, 0, 51, 0
5, 101520, Note_on_c, 0, 51, 64
5, 101760, Note_on_c, 0, 51, 0
5, 101760, Note_on_c, 0, 48, 64
5, 102000, Note_on_c, 0, 48, 0
5, 102000, Note_on_c, 0, 48, 64
5, 102240, Note_on_c, 0, 48, 0
5, 102240, Note_on_c, 0, 50, 64
5, 102360, Note_on_c, 0, 50, 0
5, 102360, Note_on_c, 0, 38, 64
5, 102480, Note_on_c, 0, 38, 0
5, 102480, Note_on_c, 0, 42, 64
5, 102600, Note_on_c, 0, 42, 0
5, 102600, Note_on_c, 0, 45, 64
5, 102720, Note_on_c, 0, 45, 0
5, 102720, Note_on_c, 0, 48, 64
5, 102840, Note_on_c, 0, 48, 0
5, 102840, Note_on_c, 0, 51, 64
5, 102960, Note_on_c, 0, 51, 0
5, 102960, Note_on_c, 0, 51, 64
5, 103080, Note_on_c, 0, 51, 0
5, 103080, Note_on_c, 0, 50, 64
5, 103200, Note_on_c, 0, 50, 0
5, 103200, Note_on_c, 0, 50, 64
5, 103320, Note_on_c, 0, 50, 0
5, 103320, Note_on_c, 0, 48, 64
5, 103440, Note_on_c, 0, 48, 0
5, 103440, Note_on_c, 0, 46, 64
5, 103560, Note_on_c, 0, 46, 0
5, 103560, Note_on_c, 0, 45, 64
5, 103680, Note_on_c, 0, 45, 0
5, 103680, Note_on_c, 0, 43, 64
5, 103920, Note_on_c, 0, 43, 0
5, 103920, Note_on_c, 0, 43, 64
5, 104160, Note_on_c, 0, 43, 0
5, 104160, Note_on_c, 0, 45, 64
5, 104400, Note_on_c, 0, 45, 0
5, 104400, Note_on_c, 0, 45, 64
5, 104640, Note_on_c, 0, 45, 0
5, 104640, Note_on_c, 0, 47, 64
5, 104880, Note_on_c, 0, 47, 0
5, 104880, Note_on_c, 0, 47, 64
5, 105120, Note_on_c, 0, 47, 0
5, 105120, Note_on_c, 0, 48, 64
5, 105360, Note_on_c, 0, 48, 0
5, 105360, Note_on_c, 0, 48, 64
5, 105600, Note_on_c, 0, 48, 0
5, 105600, Note_on_c, 0, 50, 64
5, 105840, Note_on_c, 0, 50, 0
5, 105840, Note_on_c, 0, 50, 64
5, 106080, Note_on_c, 0, 50, 0
5, 106080, Note_on_c, 0, 51, 64
5, 106320, Note_on_c, 0, 51, 0
5, 106320, Note_on_c, 0, 51, 64
5, 106560, Note_on_c, 0, 51, 0
5, 106560, Note_on_c, 0, 42, 64
5, 106800, Note_on_c, 0, 42, 0
5, 106800, Note_on_c, 0, 45, 64
5, 107040, Note_on_c, 0, 45, 0
5, 107040, Note_on_c, 0, 48, 64
5, 107280, Note_on_c, 0, 48, 0
5, 107280, Note_on_c, 0, 46, 64
5, 107520, Note_on_c, 0, 46, 0
5, 107520, Note_on_c, 0, 48, 64
5, 107760, Note_on_c, 0, 48, 0
5, 107760, Note_on_c, 0, 45, 64
5, 108000, Note_on_c, 0, 45, 0
5, 108000, Note_on_c, 0, 46, 64
5, 108240, Note_on_c, 0, 46, 0
5, 108240, Note_on_c, 0, 43, 64
5, 108480, Note_on_c, 0, 43, 0
5, 108480, Note_on_c, 0, 50, 64
5, 108720, Note_on_c, 0, 50, 0
5, 108720, Note_on_c, 0, 50, 64
5, 108960, Note_on_c, 0, 50, 0
5, 108960, Note_on_c, 0, 38, 64
5, 109200, Note_on_c, 0, 38, 0
5, 109200, Note_on_c, 0, 38, 64
5, 109440, Note_on_c, 0, 38, 0
5, 109440, Note_on_c, 0, 43, 64
5, 109680, Note_on_c, 0, 43, 0
5, 109680, Note_on_c, 0, 43, 64
5, 109920, Note_on_c, 0, 43, 0
5, 109920, Note_on_c, 0, 46, 64
5, 110160, Note_on_c, 0, 46, 0
5, 110160, Note_on_c, 0, 50, 64
5, 110400, Note_on_c, 0, 50, 0
5, 110400, Note_on_c, 0, 46, 64
5, 110640, Note_on_c, 0, 46, 0
5, 110640, Note_on_c, 0, 43, 64
5, 110880, Note_on_c, 0, 43, 0
5, 110880, Note_on_c, 0, 39, 64
5, 111120, Note_on_c, 0, 39, 0
5, 111120, Note_on_c, 0, 51, 64
5, 111360, Note_on_c, 0, 51, 0
5, 111360, Note_on_c, 0, 50, 64
5, 111600, Note_on_c, 0, 50, 0
5, 111600, Note_on_c, 0, 50, 64
5, 111840, Note_on_c, 0, 50, 0
5, 111840, Note_on_c, 0, 55, 64
5, 112080, Note_on_c, 0, 55, 0
5, 112080, Note_on_c, 0, 55, 64
5, 112320, Note_on_c, 0, 55, 0
5, 112320, Note_on_c, 0, 48, 64
5, 112560, Note_on_c, 0, 48, 0
5, 112560, Note_on_c, 0, 48, 64
5, 112800, Note_on_c, 0, 48, 0
5, 112800, Note_on_c, 0, 51, 64
5, 113040, Note_on_c, 0, 51, 0
5, 113040, Note_on_c, 0, 55, 64
5, 113280, Note_on_c, 0, 55, 0
5, 113280, Note_on_c, 0, 51, 64
5, 113520, Note_on_c, 0, 51, 0
5, 113520, Note_on_c, 0, 48, 64
5, 113760, Note_on_c, 0, 48, 0
5, 113760, Note_on_c, 0, 44, 64
5, 114000, Note_on_c, 0, 44, 0
5, 114000, Note_on_c, 0, 56, 64
5, 114240, Note_on_c, 0, 56, 0
5, 114240, Note_on_c, 0, 55, 64
5, 114480, Note_on_c, 0, 55, 0
5, 114480, Note_on_c, 0, 55, 64
5, 114720, Note_on_c, 0, 55, 0
5, 114720, Note_on_c, 0, 60, 64
5, 114960, Note_on_c, 0, 60, 0
5, 114960, Note_on_c, 0, 60, 64
5, 115200, Note_on_c, 0, 60, 0
5, 115200, Note_on_c, 0, 53, 64
5, 115440, Note_on_c, 0, 53, 0
5, 115440, Note_on_c, 0, 53, 64
5, 115680, Note_on_c, 0, 53, 0
5, 115680, Note_on_c, 0, 55, 64
5, 115920, Note_on_c, 0, 55, 0
5, 115920, Note_on_c, 0, 55, 64
5, 116160, Note_on_c, 0, 55, 0
5, 116160, Note_on_c, 0, 55, 64
5, 116400, Note_on_c, 0, 55, 0
5, 116400, Note_on_c, 0, 55, 64
5, 116640, Note_on_c, 0, 55, 0
5, 116640, Note_on_c, 0, 56, 64
5, 116880, Note_on_c, 0, 56, 0
5, 116880, Note_on_c, 0, 56, 64
5, 117120, Note_on_c, 0, 56, 0
5, 117120, Note_on_c, 0, 47, 64
5, 117360, Note_on_c, 0, 47, 0
5, 117360, Note_on_c, 0, 47, 64
5, 117600, Note_on_c, 0, 47, 0
5, 117600, Note_on_c, 0, 47, 64
5, 117840, Note_on_c, 0, 47, 0
5, 117840, Note_on_c, 0, 47, 64
5, 118080, Note_on_c, 0, 47, 0
5, 118080, Note_on_c, 0, 48, 64
5, 118320, Note_on_c, 0, 48, 0
5, 118320, Note_on_c, 0, 48, 64
5, 118560, Note_on_c, 0, 48, 0
5, 118560, Note_on_c, 0, 50, 64
5, 118800, Note_on_c, 0, 50, 0
5, 118800, Note_on_c, 0, 50, 64
5, 119040, Note_on_c, 0, 50, 0
5, 119040, Note_on_c, 0, 50, 64
5, 119280, Note_on_c, 0, 50, 0
5, 119280, Note_on_c, 0, 50, 64
5, 119520, Note_on_c, 0, 50, 0
5, 119520, Note_on_c, 0, 51, 64
5, 119760, Note_on_c, 0, 51, 0
5, 119760, Note_on_c, 0, 51, 64
5, 120000, Note_on_c, 0, 51, 0
5, 120000, Note_on_c, 0, 42, 64
5, 120240, Note_on_c, 0, 42, 0
5, 120240, Note_on_c, 0, 42, 64
5, 120480, Note_on_c, 0, 42, 0
5, 120480, Note_on_c, 0, 42, 64
5, 120720, Note_on_c, 0, 42, 0
5, 120720, Note_on_c, 0, 42, 64
5, 120960, Note_on_c, 0, 42, 0
5, 120960, Note_on_c, 0, 43, 64
5, 121200, Note_on_c, 0, 43, 0
5, 121200, Note_on_c, 0, 55, 64
5, 121440, Note_on_c, 0, 55, 0
5, 121440, Note_on_c, 0, 50, 64
5, 121680, Note_on_c, 0, 50, 0
5, 121680, Note_on_c, 0, 47, 64
5, 121920, Note_on_c, 0, 47, 0
5, 121920, Note_on_c, 0, 43, 64
5, 122160, Note_on_c, 0, 43, 0
5, 122160, Note_on_c, 0, 47, 64
5, 122400, Note_on_c, 0, 47, 0
5, 122400, Note_on_c, 0, 48, 64
5, 122640, Note_on_c, 0, 48, 0
5, 122640, Note_on_c, 0, 60, 64
5, 122880, Note_on_c, 0, 60, 0
5, 122880, Note_on_c, 0, 55, 64
5, 123120, Note_on_c, 0, 55, 0
5, 123120, Note_on_c, 0, 52, 64
5, 123360, Note_on_c, 0, 52, 0
5, 123360, Note_on_c, 0, 48, 64
5, 123600, Note_on_c, 0, 48, 0
5, 123600, Note_on_c, 0, 52, 64
5, 123840, Note_on_c, 0, 52, 0
5, 123840, Note_on_c, 0, 41, 64
5, 124080, Note_on_c, 0, 41, 0
5, 124080, Note_on_c, 0, 53, 64
5, 124320, Note_on_c, 0, 53, 0
5, 124320, Note_on_c, 0, 48, 64
5, 124560, Note_on_c, 0, 48, 0
5, 124560, Note_on_c, 0, 45, 64
5, 124800, Note_on_c, 0, 45, 0
5, 124800, Note_on_c, 0, 41, 64
5, 125040, Note_on_c, 0, 41, 0
5, 125040, Note_on_c, 0, 45, 64
5, 125280, Note_on_c, 0, 45, 0
5, 125280, Note_on_c, 0, 46, 64
5, 125520, Note_on_c, 0, 46, 0
5, 125520, Note_on_c, 0, 58, 64
5, 125760, Note_on_c, 0, 58, 0
5, 125760, Note_on_c, 0, 53, 64
5, 126000, Note_on_c, 0, 53, 0
5, 126000, Note_on_c, 0, 50, 64
5, 126240, Note_on_c, 0, 50, 0
5, 126240, Note_on_c, 0, 46, 64
5, 126480, Note_on_c, 0, 46, 0
5, 126480, Note_on_c, 0, 50, 64
5, 126720, Note_on_c, 0, 50, 0
5, 126720, Note_on_c, 0, 47, 64
5, 126840, Note_on_c, 0, 47, 0
5, 126840, Note_on_c, 0, 43, 64
5, 126960, Note_on_c, 0, 43, 0
5, 126960, Note_on_c, 0, 47, 64
5, 127080, Note_on_c, 0, 47, 0
5, 127080, Note_on_c, 0, 50, 64
5, 127200, Note_on_c, 0, 50, 0
5, 127200, Note_on_c, 0, 53, 64
5, 127320, Note_on_c, 0, 53, 0
5, 127320, Note_on_c, 0, 56, 64
5, 127440, Note_on_c, 0, 56, 0
5, 127440, Note_on_c, 0, 56, 64
5, 127560, Note_on_c, 0, 56, 0
5, 127560, Note_on_c, 0, 55, 64
5, 127680, Note_on_c, 0, 55, 0
5, 127680, Note_on_c, 0, 55, 64
5, 127800, Note_on_c, 0, 55, 0
5, 127800, Note_on_c, 0, 53, 64
5, 127920, Note_on_c, 0, 53, 0
5, 127920, Note_on_c, 0, 53, 64
5, 128040, Note_on_c, 0, 53, 0
5, 128040, Note_on_c, 0, 51, 64
5, 128160, Note_on_c, 0, 51, 0
5, 128160, Note_on_c, 0, 51, 64
5, 128400, Note_on_c, 0, 51, 0
5, 128400, Note_on_c, 0, 53, 64
5, 128640, Note_on_c, 0, 53, 0
5, 128640, Note_on_c, 0, 55, 64
5, 128880, Note_on_c, 0, 55, 0
5, 128880, Note_on_c, 0, 55, 64
5, 129120, Note_on_c, 0, 55, 0
5, 129120, Note_on_c, 0, 43, 64
5, 129360, Note_on_c, 0, 43, 0
5, 129360, Note_on_c, 0, 43, 64
5, 129600, Note_on_c, 0, 43, 0
5, 129600, Note_on_c, 0, 44, 64
5, 129840, Note_on_c, 0, 44, 0
5, 129840, Note_on_c, 0, 44, 64
5, 130080, Note_on_c, 0, 44, 0
5, 130080, Note_on_c, 0, 44, 64
5, 130320, Note_on_c, 0, 44, 0
5, 130320, Note_on_c, 0, 44, 64
5, 130560, Note_on_c, 0, 44, 0
5, 130560, Note_on_c, 0, 44, 64
5, 130800, Note_on_c, 0, 44, 0
5, 130800, Note_on_c, 0, 44, 64
5, 131040, Note_on_c, 0, 44, 0
5, 131040, Note_on_c, 0, 43, 64
5, 131280, Note_on_c, 0, 43, 0
5, 131280, Note_on_c, 0, 43, 64
5, 131520, Note_on_c, 0, 43, 0
5, 131520, Note_on_c, 0, 43, 64
5, 131760, Note_on_c, 0, 43, 0
5, 131760, Note_on_c, 0, 43, 64
5, 132000, Note_on_c, 0, 43, 0
5, 132000, Note_on_c, 0, 43, 64
5, 132240, Note_on_c, 0, 43, 0
5, 132240, Note_on_c, 0, 43, 64
5, 132480, Note_on_c, 0, 43, 0
5, 132480, Note_on_c, 0, 41, 64
5, 132960, Note_on_c, 0, 41, 0
5, 132960, Note_on_c, 0, 53, 64
5, 133440, Note_on_c, 0, 53, 0
5, 133680, Note_on_c, 0, 44, 64
5, 133920, Note_on_c, 0, 44, 0
5, 133920, Note_on_c, 0, 43, 64
5, 134400, Note_on_c, 0, 43, 0
5, 134400, Note_on_c, 0, 55, 64
5, 134880, Note_on_c, 0, 55, 0
5, 135120, Note_on_c, 0, 53, 64
5, 135360, Note_on_c, 0, 53, 0
5, 135360, Note_on_c, 0, 51, 64
5, 135600, Note_on_c, 0, 51, 0
5, 135600, Note_on_c, 0, 53, 64
5, 135840, Note_on_c, 0, 53, 0
5, 135840, Note_on_c, 0, 55, 64
5, 136080, Note_on_c, 0, 55, 0
5, 136080, Note_on_c, 0, 55, 64
5, 136320, Note_on_c, 0, 55, 0
5, 136320, Note_on_c, 0, 43, 64
5, 136560, Note_on_c, 0, 43, 0
5, 136560, Note_on_c, 0, 43, 64
5, 136800, Note_on_c, 0, 43, 0
5, 136800, Note_on_c, 0, 36, 64
5, 138240, Note_on_c, 0, 36, 0
5, 138240, End_track
6, 0, Start_track
6, 0, End_track
0, 0, End_of_file
