0, 0, Header, 1, 15, 240
1, 0, Start_track
1, 0, Time_signature, 4, 2, 12, 8
1, 0, Tempo, 857143
1, 0, Marker_t, "A Section"
1, 16248, Tempo, 1000000
1, 16320, Tempo, 857143
1, 30624, Tempo, 983607
1, 30720, Time_signature, 4, 2, 24, 8
1, 30720, Tempo, 625000
1, 30720, Marker_t, "B Section"
1, 110184, Tempo, 681818
1, 110400, Time_signature, 4, 2, 12, 8
1, 110400, Tempo, 857143
1, 110400, Marker_t, "A Closing"
1, 124644, Tempo, 967742
1, 124800, Time_signature, 4, 2, 24, 8
1, 124800, Tempo, 625000
1, 124800, Marker_t, "B Repeat"
1, 204084, Tempo, 666667
1, 204300, Tempo, 731707
1, 204480, Time_signature, 4, 2, 12, 8
1, 204480, Tempo, 857143
1, 204480, Marker_t, "A Closing Repeat"
1, 218004, Tempo, 967742
1, 218328, Tempo, 1052632
1, 218580, Tempo, 1132075
1, 218748, Tempo, 1333333
1, 218808, Tempo, 1714286
1, 218880, Tempo, 857143
1, 218880, End_track
2, 0, Start_track
2, 0, Title_t, "Violin1"
2, 0, Program_c, 0, 40
2, 0, Control_c, 0, 7, 100
2, 960, Note_on_c, 0, 76, 85
2, 1468, Note_off_c, 0, 76, 64
2, 1493, Note_on_c, 0, 74, 70
2, 1549, Note_off_c, 0, 74, 64
2, 1549, Note_on_c, 0, 76, 82
2, 1603, Note_off_c, 0, 76, 64
2, 1608, Note_on_c, 0, 77, 78
2, 1657, Note_off_c, 0, 77, 64
2, 1672, Note_on_c, 0, 79, 80
2, 1720, Note_off_c, 0, 79, 64
2, 1734, Note_on_c, 0, 77, 82
2, 1783, Note_off_c, 0, 77, 64
2, 1791, Note_on_c, 0, 79, 74
2, 1834, Note_off_c, 0, 79, 64
2, 1849, Note_on_c, 0, 81, 82
2, 1892, Note_off_c, 0, 81, 64
2, 1915, Note_on_c, 0, 74, 70
2, 2176, Note_off_c, 0, 74, 64
2, 2207, Note_on_c, 0, 74, 72
2, 2264, Note_off_c, 0, 74, 64
2, 2264, Note_on_c, 0, 76, 66
2, 2318, Note_off_c, 0, 76, 64
2, 2324, Note_on_c, 0, 77, 78
2, 2370, Note_off_c, 0, 77, 64
2, 2388, Note_on_c, 0, 79, 82
2, 2446, Note_off_c, 0, 79, 64
2, 2452, Note_on_c, 0, 77, 70
2, 2499, Note_off_c, 0, 77, 64
2, 2510, Note_on_c, 0, 76, 72
2, 2562, Note_off_c, 0, 76, 64
2, 2568, Note_on_c, 0, 77, 82
2, 2614, Note_off_c, 0, 77, 64
2, 2629, Note_on_c, 0, 79, 80
2, 2678, Note_off_c, 0, 79, 64
2, 2690, Note_on_c, 0, 76, 70
2, 2736, Note_off_c, 0, 76, 64
2, 2749, Note_on_c, 0, 77, 80
2, 2794, Note_off_c, 0, 77, 64
2, 2809, Note_on_c, 0, 79, 82
2, 2857, Note_off_c, 0, 79, 64
2, 2875, Note_on_c, 0, 72, 78
2, 3034, Note_off_c, 0, 72, 64
2, 3062, Note_on_c, 0, 69, 74
2, 3084, Note_on_c, 0, 71, 68
2, 3091, Note_off_c, 0, 69, 64
2, 3113, Note_off_c, 0, 71, 64
2, 3118, Note_on_c, 0, 72, 82
2, 3248, Note_off_c, 0, 72, 64
2, 3293, Note_on_c, 0, 74, 80
2, 3313, Note_on_c, 0, 76, 70
2, 3321, Note_off_c, 0, 74, 64
2, 3340, Note_off_c, 0, 76, 64
2, 3349, Note_on_c, 0, 77, 72
2, 3723, Note_off_c, 0, 77, 64
2, 3769, Note_on_c, 0, 77, 93
2, 3801, Note_off_c, 0, 77, 64
2, 3835, Note_on_c, 0, 77, 91
2, 3887, Note_off_c, 0, 77, 64
2, 3897, Note_on_c, 0, 79, 78
2, 3942, Note_off_c, 0, 79, 64
2, 3951, Note_on_c, 0, 77, 66
2, 3999, Note_off_c, 0, 77, 64
2, 4010, Note_on_c, 0, 76, 78
2, 4054, Note_off_c, 0, 76, 64
2, 4070, Note_on_c, 0, 77, 80
2, 4126, Note_off_c, 0, 77, 64
2, 4137, Note_on_c, 0, 76, 70
2, 4177, Note_off_c, 0, 76, 64
2, 4196, Note_on_c, 0, 74, 74
2, 4254, Note_off_c, 0, 74, 64
2, 4256, Note_on_c, 0, 76, 70
2, 4311, Note_off_c, 0, 76, 64
2, 4316, Note_on_c, 0, 77, 68
2, 4373, Note_on_c, 0, 76, 55
2, 4381, Note_off_c, 0, 77, 64
2, 4405, Note_off_c, 0, 76, 64
2, 4405, Note_on_c, 0, 77, 70
2, 4431, Note_on_c, 0, 76, 58
2, 4434, Note_off_c, 0, 77, 64
2, 4449, Note_off_c, 0, 76, 64
2, 4453, Note_on_c, 0, 77, 60
2, 4472, Note_on_c, 0, 76, 66
2, 4474, Note_off_c, 0, 77, 64
2, 4489, Note_off_c, 0, 76, 64
2, 4493, Note_on_c, 0, 77, 70
2, 4507, Note_off_c, 0, 77, 64
2, 4507, Note_on_c, 0, 76, 68
2, 4525, Note_off_c, 0, 76, 64
2, 4525, Note_on_c, 0, 77, 76
2, 4542, Note_on_c, 0, 76, 74
2, 4548, Note_off_c, 0, 77, 64
2, 4694, Note_off_c, 0, 76, 64
2, 4725, Note_on_c, 0, 74, 72
2, 4755, Note_off_c, 0, 74, 64
2, 4787, Note_on_c, 0, 74, 68
2, 5086, Note_off_c, 0, 74, 64
2, 5093, Note_on_c, 0, 67, 82
2, 5127, Note_on_c, 0, 69, 78
2, 5148, Note_on_c, 0, 71, 80
2, 5155, Note_off_c, 0, 67, 64
2, 5168, Note_off_c, 0, 69, 64
2, 5168, Note_on_c, 0, 72, 78
2, 5183, Note_off_c, 0, 71, 64
2, 5187, Note_on_c, 0, 74, 85
2, 5194, Note_off_c, 0, 72, 64
2, 5201, Note_on_c, 0, 76, 78
2, 5217, Note_off_c, 0, 74, 64
2, 5221, Note_on_c, 0, 78, 76
2, 5237, Note_off_c, 0, 76, 64
2, 5240, Note_on_c, 0, 79, 72
2, 5252, Note_off_c, 0, 78, 64
2, 5252, Note_on_c, 0, 81, 66
2, 5262, Note_off_c, 0, 79, 64
2, 5274, Note_on_c, 0, 83, 85
2, 5285, Note_off_c, 0, 81, 64
2, 5643, Note_off_c, 0, 83, 64
2, 5700, Note_on_c, 0, 83, 93
2, 5737, Note_off_c, 0, 83, 64
2, 5757, Note_on_c, 0, 83, 87
2, 5872, Note_off_c, 0, 83, 64
2, 5929, Note_on_c, 0, 79, 72
2, 5971, Note_off_c, 0, 79, 64
2, 5994, Note_on_c, 0, 78, 60
2, 6111, Note_off_c, 0, 78, 64
2, 6167, Note_on_c, 0, 76, 74
2, 6209, Note_off_c, 0, 76, 64
2, 6238, Note_on_c, 0, 81, 76
2, 6595, Note_off_c, 0, 81, 64
2, 6653, Note_on_c, 0, 81, 78
2, 6683, Note_off_c, 0, 81, 64
2, 6718, Note_on_c, 0, 81, 68
2, 6861, Note_off_c, 0, 81, 64
2, 6891, Note_on_c, 0, 83, 68
2, 6918, Note_on_c, 0, 81, 66
2, 6930, Note_off_c, 0, 83, 64
2, 6949, Note_off_c, 0, 81, 64
2, 6958, Note_on_c, 0, 79, 85
2, 7070, Note_off_c, 0, 79, 64
2, 7129, Note_on_c, 0, 81, 68
2, 7152, Note_on_c, 0, 78, 68
2, 7163, Note_off_c, 0, 81, 64
2, 7178, Note_off_c, 0, 78, 64
2, 7194, Note_on_c, 0, 79, 78
2, 7568, Note_off_c, 0, 79, 64
2, 7610, Note_on_c, 0, 79, 87
2, 7644, Note_off_c, 0, 79, 64
2, 7675, Note_on_c, 0, 79, 85
2, 7959, Note_off_c, 0, 79, 64
2, 7970, Note_on_c, 0, 78, 70
2, 8019, Note_off_c, 0, 78, 64
2, 8029, Note_on_c, 0, 76, 68
2, 8083, Note_on_c, 0, 78, 64
2, 8084, Note_off_c, 0, 76, 64
2, 8126, Note_off_c, 0, 78, 64
2, 8148, Note_on_c, 0, 79, 72
2, 8204, Note_off_c, 0, 79, 64
2, 8212, Note_on_c, 0, 78, 64
2, 8258, Note_off_c, 0, 78, 64
2, 8270, Note_on_c, 0, 79, 76
2, 8319, Note_off_c, 0, 79, 64
2, 8329, Note_on_c, 0, 83, 72
2, 8384, Note_off_c, 0, 83, 64
2, 8395, Note_on_c, 0, 81, 72
2, 8443, Note_off_c, 0, 81, 64
2, 8449, Note_on_c, 0, 79, 72
2, 8493, Note_off_c, 0, 79, 64
2, 8511, Note_on_c, 0, 78, 74
2, 8550, Note_off_c, 0, 78, 64
2, 8564, Note_on_c, 0, 79, 61
2, 8598, Note_off_c, 0, 79, 64
2, 8625, Note_on_c, 0, 79, 72
2, 8673, Note_on_c, 0, 78, 64
2, 8675, Note_off_c, 0, 79, 64
2, 8695, Note_off_c, 0, 78, 64
2, 8695, Note_on_c, 0, 79, 63
2, 8713, Note_on_c, 0, 78, 68
2, 8719, Note_off_c, 0, 79, 64
2, 8736, Note_on_c, 0, 79, 64
2, 8739, Note_off_c, 0, 78, 64
2, 8752, Note_on_c, 0, 78, 70
2, 8765, Note_off_c, 0, 79, 64
2, 8816, Note_off_c, 0, 78, 64
2, 8825, Note_on_c, 0, 76, 68
2, 8844, Note_on_c, 0, 74, 74
2, 8850, Note_off_c, 0, 76, 64
2, 8878, Note_off_c, 0, 74, 64
2, 8880, Note_on_c, 0, 81, 68
2, 9004, Note_off_c, 0, 81, 64
2, 9048, Note_on_c, 0, 72, 66
2, 9083, Note_off_c, 0, 72, 64
2, 9112, Note_on_c, 0, 71, 68
2, 9262, Note_off_c, 0, 71, 64
2, 9283, Note_on_c, 0, 72, 64
2, 9307, Note_on_c, 0, 71, 63
2, 9315, Note_off_c, 0, 72, 64
2, 9336, Note_on_c, 0, 72, 59
2, 9341, Note_off_c, 0, 71, 64
2, 9360, Note_on_c, 0, 74, 59
2, 9363, Note_off_c, 0, 72, 64
2, 9385, Note_on_c, 0, 72, 60
2, 9392, Note_off_c, 0, 74, 64
2, 9405, Note_off_c, 0, 72, 64
2, 9407, Note_on_c, 0, 74, 66
2, 9426, Note_on_c, 0, 72, 66
2, 9428, Note_off_c, 0, 74, 64
2, 9441, Note_off_c, 0, 72, 64
2, 9442, Note_on_c, 0, 74, 64
2, 9459, Note_on_c, 0, 72, 63
2, 9462, Note_off_c, 0, 74, 64
2, 9474, Note_off_c, 0, 72, 64
2, 9476, Note_on_c, 0, 74, 63
2, 9492, Note_on_c, 0, 72, 60
2, 9502, Note_off_c, 0, 74, 64
2, 9515, Note_on_c, 0, 71, 70
2, 9517, Note_off_c, 0, 72, 64
2, 9541, Note_on_c, 0, 72, 64
2, 9554, Note_off_c, 0, 71, 64
2, 9574, Note_off_c, 0, 72, 64
2, 9582, Note_on_c, 0, 74, 74
2, 9863, Note_off_c, 0, 74, 64
2, 9883, Note_on_c, 0, 76, 82
2, 9926, Note_on_c, 0, 74, 70
2, 9938, Note_off_c, 0, 76, 64
2, 9951, Note_on_c, 0, 72, 63
2, 9969, Note_off_c, 0, 74, 64
2, 9971, Note_on_c, 0, 71, 82
2, 9985, Note_off_c, 0, 72, 64
2, 9993, Note_on_c, 0, 69, 72
2, 9996, Note_off_c, 0, 71, 64
2, 10012, Note_on_c, 0, 67, 82
2, 10014, Note_off_c, 0, 69, 64
2, 10032, Note_on_c, 0, 65, 63
2, 10040, Note_off_c, 0, 67, 64
2, 10056, Note_on_c, 0, 64, 63
2, 10061, Note_off_c, 0, 65, 64
2, 10081, Note_on_c, 0, 65, 80
2, 10089, Note_off_c, 0, 64, 64
2, 10444, Note_off_c, 0, 65, 64
2, 10489, Note_on_c, 0, 65, 82
2, 10524, Note_off_c, 0, 65, 64
2, 10552, Note_on_c, 0, 65, 82
2, 10691, Note_off_c, 0, 65, 64
2, 10727, Note_on_c, 0, 64, 62
2, 10759, Note_on_c, 0, 62, 76
2, 10763, Note_off_c, 0, 64, 64
2, 10787, Note_off_c, 0, 62, 64
2, 10797, Note_on_c, 0, 64, 76
2, 10922, Note_off_c, 0, 64, 64
2, 10975, Note_on_c, 0, 66, 78
2, 11013, Note_off_c, 0, 66, 64
2, 11041, Note_on_c, 0, 67, 74
2, 11410, Note_off_c, 0, 67, 64
2, 11461, Note_on_c, 0, 67, 91
2, 11492, Note_off_c, 0, 67, 64
2, 11522, Note_on_c, 0, 67, 74
2, 11669, Note_off_c, 0, 67, 64
2, 11699, Note_on_c, 0, 66, 80
2, 11722, Note_on_c, 0, 64, 74
2, 11735, Note_off_c, 0, 66, 64
2, 11754, Note_off_c, 0, 64, 64
2, 11757, Note_on_c, 0, 72, 82
2, 11884, Note_off_c, 0, 72, 64
2, 11934, Note_on_c, 0, 71, 82
2, 11959, Note_on_c, 0, 69, 85
2, 11967, Note_off_c, 0, 71, 64
2, 11987, Note_off_c, 0, 69, 64
2, 11992, Note_on_c, 0, 78, 76
2, 12120, Note_off_c, 0, 78, 64
2, 12167, Note_on_c, 0, 76, 68
2, 12190, Note_on_c, 0, 74, 85
2, 12199, Note_off_c, 0, 76, 64
2, 12218, Note_off_c, 0, 74, 64
2, 12228, Note_on_c, 0, 81, 91
2, 12344, Note_off_c, 0, 81, 64
2, 12399, Note_on_c, 0, 72, 80
2, 12432, Note_off_c, 0, 72, 64
2, 12465, Note_on_c, 0, 71, 70
2, 12734, Note_off_c, 0, 71, 64
2, 12756, Note_on_c, 0, 69, 76
2, 12809, Note_off_c, 0, 69, 64
2, 12822, Note_on_c, 0, 67, 70
2, 12874, Note_off_c, 0, 67, 64
2, 12880, Note_on_c, 0, 66, 64
2, 12931, Note_off_c, 0, 66, 64
2, 12945, Note_on_c, 0, 67, 68
2, 13003, Note_off_c, 0, 67, 64
2, 13008, Note_on_c, 0, 62, 78
2, 13064, Note_on_c, 0, 64, 70
2, 13068, Note_off_c, 0, 62, 64
2, 13125, Note_on_c, 0, 66, 82
2, 13128, Note_off_c, 0, 64, 64
2, 13182, Note_off_c, 0, 66, 64
2, 13190, Note_on_c, 0, 67, 80
2, 13249, Note_off_c, 0, 67, 64
2, 13256, Note_on_c, 0, 69, 80
2, 13304, Note_off_c, 0, 69, 64
2, 13319, Note_on_c, 0, 71, 82
2, 13365, Note_off_c, 0, 71, 64
2, 13375, Note_on_c, 0, 72, 63
2, 13415, Note_off_c, 0, 72, 64
2, 13433, Note_on_c, 0, 74, 78
2, 13699, Note_off_c, 0, 74, 64
2, 13722, Note_on_c, 0, 72, 80
2, 13766, Note_off_c, 0, 72, 64
2, 13781, Note_on_c, 0, 74, 70
2, 13828, Note_off_c, 0, 74, 64
2, 13838, Note_on_c, 0, 76, 68
2, 13903, Note_on_c, 0, 67, 68
2, 13904, Note_off_c, 0, 76, 64
2, 13976, Note_on_c, 0, 66, 85
2, 13983, Note_off_c, 0, 67, 64
2, 14014, Note_off_c, 0, 66, 64
2, 14014, Note_on_c, 0, 67, 57
2, 14040, Note_on_c, 0, 66, 50
2, 14043, Note_off_c, 0, 67, 64
2, 14057, Note_on_c, 0, 67, 64
2, 14059, Note_off_c, 0, 66, 64
2, 14076, Note_on_c, 0, 66, 49
2, 14087, Note_off_c, 0, 66, 64
2, 14101, Note_on_c, 0, 66, 66
2, 14108, Note_off_c, 0, 67, 64
2, 14215, Note_off_c, 0, 66, 64
2, 14224, Note_on_c, 0, 67, 78
2, 14265, Note_off_c, 0, 67, 64
2, 14273, Note_on_c, 0, 69, 66
2, 14327, Note_off_c, 0, 69, 64
2, 14327, Note_on_c, 0, 71, 80
2, 14370, Note_off_c, 0, 71, 64
2, 14389, Note_on_c, 0, 72, 72
2, 14499, Note_off_c, 0, 72, 64
2, 14568, Note_on_c, 0, 69, 70
2, 14606, Note_off_c, 0, 69, 64
2, 14631, Note_on_c, 0, 71, 82
2, 14747, Note_off_c, 0, 71, 64
2, 14805, Note_on_c, 0, 72, 78
2, 14840, Note_off_c, 0, 72, 64
2, 14871, Note_on_c, 0, 71, 68
2, 14931, Note_on_c, 0, 69, 53
2, 14936, Note_off_c, 0, 71, 64
2, 14959, Note_off_c, 0, 69, 64
2, 14960, Note_on_c, 0, 71, 60
2, 14984, Note_on_c, 0, 69, 57
2, 14986, Note_off_c, 0, 71, 64
2, 15004, Note_off_c, 0, 69, 64
2, 15006, Note_on_c, 0, 71, 66
2, 15026, Note_on_c, 0, 69, 58
2, 15027, Note_off_c, 0, 71, 64
2, 15043, Note_off_c, 0, 69, 64
2, 15044, Note_on_c, 0, 71, 72
2, 15062, Note_on_c, 0, 69, 63
2, 15065, Note_off_c, 0, 71, 64
2, 15080, Note_on_c, 0, 71, 76
2, 15082, Note_off_c, 0, 69, 64
2, 15098, Note_on_c, 0, 69, 68
2, 15103, Note_off_c, 0, 71, 64
2, 15250, Note_off_c, 0, 69, 64
2, 15286, Note_on_c, 0, 67, 74
2, 15322, Note_off_c, 0, 67, 64
2, 15362, Note_on_c, 0, 67, 66
2, 16295, Note_off_c, 0, 67, 64
2, 30832, Note_on_c, 0, 79, 72
2, 30862, Note_off_c, 0, 79, 64
2, 30946, Note_on_c, 0, 79, 87
2, 30981, Note_off_c, 0, 79, 64
2, 31066, Note_on_c, 0, 79, 85
2, 31102, Note_off_c, 0, 79, 64
2, 31186, Note_on_c, 0, 76, 70
2, 31292, Note_off_c, 0, 76, 64
2, 31301, Note_on_c, 0, 77, 76
2, 31351, Note_on_c, 0, 79, 74
2, 31353, Note_off_c, 0, 77, 64
2, 31393, Note_off_c, 0, 79, 64
2, 31410, Note_on_c, 0, 81, 82
2, 31446, Note_off_c, 0, 81, 64
2, 31530, Note_on_c, 0, 77, 82
2, 31567, Note_off_c, 0, 77, 64
2, 31655, Note_on_c, 0, 74, 68
2, 31693, Note_off_c, 0, 74, 64
2, 31776, Note_on_c, 0, 79, 74
2, 31819, Note_off_c, 0, 79, 64
2, 31904, Note_on_c, 0, 67, 70
2, 31959, Note_off_c, 0, 67, 64
2, 32033, Note_on_c, 0, 77, 80
2, 32076, Note_off_c, 0, 77, 64
2, 32157, Note_on_c, 0, 76, 85
2, 32212, Note_on_c, 0, 74, 66
2, 32218, Note_off_c, 0, 76, 64
2, 32262, Note_off_c, 0, 74, 64
2, 32273, Note_on_c, 0, 72, 66
2, 32326, Note_on_c, 0, 74, 60
2, 32338, Note_off_c, 0, 72, 64
2, 32385, Note_off_c, 0, 74, 64
2, 32388, Note_on_c, 0, 76, 78
2, 32439, Note_off_c, 0, 76, 64
2, 32445, Note_on_c, 0, 74, 64
2, 32504, Note_on_c, 0, 76, 61
2, 32509, Note_off_c, 0, 74, 64
2, 32552, Note_off_c, 0, 76, 64
2, 32555, Note_on_c, 0, 78, 63
2, 32598, Note_off_c, 0, 78, 64
2, 32622, Note_on_c, 0, 79, 70
2, 32752, Note_off_c, 0, 79, 64
2, 32807, Note_on_c, 0, 74, 68
2, 32842, Note_off_c, 0, 74, 64
2, 32870, Note_on_c, 0, 79, 82
2, 32986, Note_off_c, 0, 79, 64
2, 33048, Note_on_c, 0, 79, 72
2, 33074, Note_off_c, 0, 79, 64
2, 33106, Note_on_c, 0, 79, 89
2, 33211, Note_off_c, 0, 79, 64
2, 33266, Note_on_c, 0, 78, 64
2, 33300, Note_on_c, 0, 76, 60
2, 33303, Note_off_c, 0, 78, 64
2, 33330, Note_on_c, 0, 78, 54
2, 33340, Note_off_c, 0, 76, 64
2, 33349, Note_off_c, 0, 78, 64
2, 33353, Note_on_c, 0, 79, 68
2, 33380, Note_on_c, 0, 78, 76
2, 33389, Note_off_c, 0, 79, 64
2, 33406, Note_on_c, 0, 79, 80
2, 33408, Note_off_c, 0, 78, 64
2, 33431, Note_on_c, 0, 78, 68
2, 33450, Note_off_c, 0, 79, 64
2, 33485, Note_off_c, 0, 78, 64
2, 33522, Note_on_c, 0, 79, 70
2, 33555, Note_off_c, 0, 79, 64
2, 33589, Note_on_c, 0, 79, 82
2, 33689, Note_off_c, 0, 79, 64
2, 33711, Note_on_c, 0, 77, 68
2, 33761, Note_on_c, 0, 76, 62
2, 33766, Note_off_c, 0, 77, 64
2, 33814, Note_off_c, 0, 76, 64
2, 33822, Note_on_c, 0, 74, 62
2, 33855, Note_off_c, 0, 74, 64
2, 33868, Note_on_c, 0, 71, 70
2, 33921, Note_off_c, 0, 71, 64
2, 33924, Note_on_c, 0, 72, 66
2, 33967, Note_off_c, 0, 72, 64
2, 33987, Note_on_c, 0, 74, 70
2, 34036, Note_off_c, 0, 74, 64
2, 34056, Note_on_c, 0, 67, 82
2, 34109, Note_off_c, 0, 67, 64
2, 34182, Note_on_c, 0, 79, 74
2, 34217, Note_off_c, 0, 79, 64
2, 34308, Note_on_c, 0, 76, 68
2, 34344, Note_off_c, 0, 76, 64
2, 34427, Note_on_c, 0, 81, 82
2, 34473, Note_off_c, 0, 81, 64
2, 34555, Note_on_c, 0, 77, 95
2, 34609, Note_on_c, 0, 79, 70
2, 34619, Note_off_c, 0, 77, 64
2, 34664, Note_off_c, 0, 79, 64
2, 34671, Note_on_c, 0, 77, 60
2, 34729, Note_off_c, 0, 77, 64
2, 34733, Note_on_c, 0, 76, 52
2, 34787, Note_off_c, 0, 76, 64
2, 34794, Note_on_c, 0, 74, 62
2, 34853, Note_on_c, 0, 77, 66
2, 34856, Note_off_c, 0, 74, 64
2, 34913, Note_on_c, 0, 76, 61
2, 34922, Note_off_c, 0, 77, 64
2, 34968, Note_off_c, 0, 76, 64
2, 34968, Note_on_c, 0, 74, 57
2, 35005, Note_off_c, 0, 74, 64
2, 35030, Note_on_c, 0, 79, 93
2, 35084, Note_on_c, 0, 77, 76
2, 35097, Note_off_c, 0, 79, 64
2, 35142, Note_off_c, 0, 77, 64
2, 35150, Note_on_c, 0, 76, 60
2, 35209, Note_on_c, 0, 74, 52
2, 35212, Note_off_c, 0, 76, 64
2, 35262, Note_off_c, 0, 74, 64
2, 35272, Note_on_c, 0, 72, 52
2, 35320, Note_off_c, 0, 72, 64
2, 35328, Note_on_c, 0, 71, 41
2, 35371, Note_off_c, 0, 71, 64
2, 35377, Note_on_c, 0, 72, 57
2, 35427, Note_off_c, 0, 72, 64
2, 35438, Note_on_c, 0, 69, 59
2, 35474, Note_off_c, 0, 69, 64
2, 35502, Note_on_c, 0, 74, 66
2, 35592, Note_off_c, 0, 74, 64
2, 35626, Note_on_c, 0, 76, 62
2, 35668, Note_off_c, 0, 76, 64
2, 35681, Note_on_c, 0, 78, 61
2, 35716, Note_off_c, 0, 78, 64
2, 35749, Note_on_c, 0, 79, 82
2, 35850, Note_off_c, 0, 79, 64
2, 35871, Note_on_c, 0, 81, 76
2, 35907, Note_off_c, 0, 81, 64
2, 35928, Note_on_c, 0, 83, 80
2, 35959, Note_off_c, 0, 83, 64
2, 35988, Note_on_c, 0, 84, 82
2, 36107, Note_off_c, 0, 84, 64
2, 36166, Note_on_c, 0, 83, 72
2, 36192, Note_off_c, 0, 83, 64
2, 36223, Note_on_c, 0, 83, 91
2, 36247, Note_on_c, 0, 81, 78
2, 36251, Note_off_c, 0, 83, 64
2, 36279, Note_on_c, 0, 83, 70
2, 36282, Note_off_c, 0, 81, 64
2, 36309, Note_on_c, 0, 81, 66
2, 36323, Note_off_c, 0, 83, 64
2, 36382, Note_off_c, 0, 81, 64
2, 36417, Note_on_c, 0, 79, 70
2, 36447, Note_off_c, 0, 79, 64
2, 36477, Note_on_c, 0, 79, 85
2, 36580, Note_off_c, 0, 79, 64
2, 36597, Note_on_c, 0, 77, 68
2, 36643, Note_off_c, 0, 77, 64
2, 36648, Note_on_c, 0, 76, 60
2, 36680, Note_off_c, 0, 76, 64
2, 36707, Note_on_c, 0, 74, 64
2, 36763, Note_on_c, 0, 76, 70
2, 36765, Note_off_c, 0, 74, 64
2, 36825, Note_off_c, 0, 76, 64
2, 36825, Note_on_c, 0, 77, 72
2, 36871, Note_off_c, 0, 77, 64
2, 36879, Note_on_c, 0, 74, 57
2, 36925, Note_off_c, 0, 74, 64
2, 36948, Note_on_c, 0, 76, 76
2, 37005, Note_off_c, 0, 76, 64
2, 37009, Note_on_c, 0, 79, 60
2, 37067, Note_off_c, 0, 79, 64
2, 37072, Note_on_c, 0, 77, 52
2, 37124, Note_off_c, 0, 77, 64
2, 37126, Note_on_c, 0, 79, 59
2, 37173, Note_off_c, 0, 79, 64
2, 37188, Note_on_c, 0, 81, 80
2, 37244, Note_on_c, 0, 79, 64
2, 37253, Note_off_c, 0, 81, 64
2, 37301, Note_off_c, 0, 79, 64
2, 37305, Note_on_c, 0, 77, 56
2, 37362, Note_on_c, 0, 76, 57
2, 37364, Note_off_c, 0, 77, 64
2, 37416, Note_off_c, 0, 76, 64
2, 37427, Note_on_c, 0, 74, 64
2, 37483, Note_on_c, 0, 77, 59
2, 37488, Note_off_c, 0, 74, 64
2, 37548, Note_off_c, 0, 77, 64
2, 37553, Note_on_c, 0, 76, 44
2, 37608, Note_off_c, 0, 76, 64
2, 37608, Note_on_c, 0, 77, 59
2, 37656, Note_off_c, 0, 77, 64
2, 37673, Note_on_c, 0, 79, 82
2, 37728, Note_on_c, 0, 77, 64
2, 37733, Note_off_c, 0, 79, 64
2, 37791, Note_off_c, 0, 77, 64
2, 37792, Note_on_c, 0, 76, 58
2, 37850, Note_off_c, 0, 76, 64
2, 37850, Note_on_c, 0, 74, 54
2, 37898, Note_off_c, 0, 74, 64
2, 37907, Note_on_c, 0, 72, 66
2, 37961, Note_off_c, 0, 72, 64
2, 37962, Note_on_c, 0, 76, 60
2, 38025, Note_off_c, 0, 76, 64
2, 38029, Note_on_c, 0, 74, 39
2, 38085, Note_on_c, 0, 76, 57
2, 38088, Note_off_c, 0, 74, 64
2, 38129, Note_off_c, 0, 76, 64
2, 38147, Note_on_c, 0, 77, 74
2, 38203, Note_on_c, 0, 76, 60
2, 38208, Note_off_c, 0, 77, 64
2, 38267, Note_off_c, 0, 76, 64
2, 38267, Note_on_c, 0, 74, 58
2, 38326, Note_off_c, 0, 74, 64
2, 38327, Note_on_c, 0, 72, 57
2, 38380, Note_off_c, 0, 72, 64
2, 38388, Note_on_c, 0, 71, 59
2, 38448, Note_off_c, 0, 71, 64
2, 38448, Note_on_c, 0, 74, 60
2, 38510, Note_on_c, 0, 72, 42
2, 38511, Note_off_c, 0, 74, 64
2, 38567, Note_on_c, 0, 74, 60
2, 38573, Note_off_c, 0, 72, 64
2, 38615, Note_off_c, 0, 74, 64
2, 38626, Note_on_c, 0, 76, 72
2, 38680, Note_on_c, 0, 74, 60
2, 38687, Note_off_c, 0, 76, 64
2, 38739, Note_on_c, 0, 72, 58
2, 38743, Note_off_c, 0, 74, 64
2, 38795, Note_off_c, 0, 72, 64
2, 38799, Note_on_c, 0, 71, 43
2, 38848, Note_off_c, 0, 71, 64
2, 38857, Note_on_c, 0, 69, 58
2, 38911, Note_on_c, 0, 72, 55
2, 38915, Note_off_c, 0, 69, 64
2, 38977, Note_off_c, 0, 72, 64
2, 38979, Note_on_c, 0, 71, 39
2, 39037, Note_on_c, 0, 72, 57
2, 39048, Note_off_c, 0, 71, 64
2, 39078, Note_off_c, 0, 72, 64
2, 39097, Note_on_c, 0, 74, 64
2, 39155, Note_on_c, 0, 72, 64
2, 39166, Note_off_c, 0, 74, 64
2, 39215, Note_on_c, 0, 71, 57
2, 39228, Note_off_c, 0, 72, 64
2, 39275, Note_on_c, 0, 69, 60
2, 39276, Note_off_c, 0, 71, 64
2, 39337, Note_off_c, 0, 69, 64
2, 39340, Note_on_c, 0, 71, 64
2, 39376, Note_off_c, 0, 71, 64
2, 39465, Note_on_c, 0, 79, 64
2, 39496, Note_off_c, 0, 79, 64
2, 39589, Note_on_c, 0, 79, 85
2, 39624, Note_off_c, 0, 79, 64
2, 39711, Note_on_c, 0, 79, 82
2, 39750, Note_off_c, 0, 79, 64
2, 39834, Note_on_c, 0, 76, 80
2, 39952, Note_off_c, 0, 76, 64
2, 39958, Note_on_c, 0, 77, 74
2, 40011, Note_off_c, 0, 77, 64
2, 40011, Note_on_c, 0, 79, 76
2, 40054, Note_off_c, 0, 79, 64
2, 40070, Note_on_c, 0, 81, 85
2, 40105, Note_off_c, 0, 81, 64
2, 40188, Note_on_c, 0, 77, 85
2, 40226, Note_off_c, 0, 77, 64
2, 40314, Note_on_c, 0, 74, 78
2, 40351, Note_off_c, 0, 74, 64
2, 40430, Note_on_c, 0, 79, 82
2, 40464, Note_off_c, 0, 79, 64
2, 40547, Note_on_c, 0, 67, 80
2, 40596, Note_off_c, 0, 67, 64
2, 40668, Note_on_c, 0, 77, 82
2, 40708, Note_off_c, 0, 77, 64
2, 40787, Note_on_c, 0, 76, 78
2, 40916, Note_off_c, 0, 76, 64
2, 40967, Note_on_c, 0, 74, 63
2, 40995, Note_off_c, 0, 74, 64
2, 41030, Note_on_c, 0, 76, 74
2, 41052, Note_on_c, 0, 74, 63
2, 41058, Note_off_c, 0, 76, 64
2, 41080, Note_on_c, 0, 76, 64
2, 41086, Note_off_c, 0, 74, 64
2, 41105, Note_on_c, 0, 74, 66
2, 41119, Note_off_c, 0, 76, 64
2, 41157, Note_off_c, 0, 74, 64
2, 41196, Note_on_c, 0, 72, 64
2, 41225, Note_off_c, 0, 72, 64
2, 41270, Note_on_c, 0, 72, 78
2, 41414, Note_off_c, 0, 72, 64
2, 46196, Note_on_c, 0, 76, 68
2, 46223, Note_off_c, 0, 76, 64
2, 46316, Note_on_c, 0, 76, 74
2, 46351, Note_off_c, 0, 76, 64
2, 46434, Note_on_c, 0, 76, 85
2, 46476, Note_off_c, 0, 76, 64
2, 46555, Note_on_c, 0, 72, 76
2, 46671, Note_off_c, 0, 72, 64
2, 46681, Note_on_c, 0, 74, 74
2, 46727, Note_off_c, 0, 74, 64
2, 46735, Note_on_c, 0, 76, 64
2, 46773, Note_off_c, 0, 76, 64
2, 46790, Note_on_c, 0, 77, 85
2, 46836, Note_off_c, 0, 77, 64
2, 46907, Note_on_c, 0, 74, 80
2, 46943, Note_off_c, 0, 74, 64
2, 47029, Note_on_c, 0, 71, 78
2, 47072, Note_off_c, 0, 71, 64
2, 47149, Note_on_c, 0, 76, 76
2, 47188, Note_off_c, 0, 76, 64
2, 47264, Note_on_c, 0, 64, 68
2, 47317, Note_off_c, 0, 64, 64
2, 47391, Note_on_c, 0, 76, 87
2, 47429, Note_off_c, 0, 76, 64
2, 47506, Note_on_c, 0, 69, 85
2, 47622, Note_off_c, 0, 69, 64
2, 47633, Note_on_c, 0, 71, 76
2, 47677, Note_on_c, 0, 72, 78
2, 47680, Note_off_c, 0, 71, 64
2, 47720, Note_off_c, 0, 72, 64
2, 47748, Note_on_c, 0, 74, 70
2, 48016, Note_off_c, 0, 74, 64
2, 48050, Note_on_c, 0, 77, 78
2, 48104, Note_off_c, 0, 77, 64
2, 48112, Note_on_c, 0, 76, 60
2, 48171, Note_off_c, 0, 76, 64
2, 48171, Note_on_c, 0, 74, 60
2, 48223, Note_off_c, 0, 74, 64
2, 48228, Note_on_c, 0, 72, 66
2, 48279, Note_off_c, 0, 72, 64
2, 48282, Note_on_c, 0, 71, 59
2, 48322, Note_off_c, 0, 71, 64
2, 48335, Note_on_c, 0, 72, 57
2, 48377, Note_off_c, 0, 72, 64
2, 48392, Note_on_c, 0, 69, 74
2, 48417, Note_off_c, 0, 69, 64
2, 48462, Note_on_c, 0, 81, 78
2, 48597, Note_off_c, 0, 81, 64
2, 48635, Note_on_c, 0, 83, 61
2, 48661, Note_off_c, 0, 83, 64
2, 48701, Note_on_c, 0, 81, 85
2, 48730, Note_on_c, 0, 80, 64
2, 48731, Note_off_c, 0, 81, 64
2, 48758, Note_on_c, 0, 81, 66
2, 48763, Note_off_c, 0, 80, 64
2, 48787, Note_on_c, 0, 80, 70
2, 48802, Note_off_c, 0, 81, 64
2, 48838, Note_off_c, 0, 80, 64
2, 48884, Note_on_c, 0, 81, 72
2, 48913, Note_off_c, 0, 81, 64
2, 48947, Note_on_c, 0, 81, 82
2, 49001, Note_on_c, 0, 83, 74
2, 49003, Note_off_c, 0, 81, 64
2, 49055, Note_off_c, 0, 83, 64
2, 49064, Note_on_c, 0, 84, 62
2, 49106, Note_off_c, 0, 84, 64
2, 49118, Note_on_c, 0, 83, 68
2, 49157, Note_off_c, 0, 83, 64
2, 49182, Note_on_c, 0, 81, 74
2, 49234, Note_off_c, 0, 81, 64
2, 49235, Note_on_c, 0, 79, 68
2, 49274, Note_off_c, 0, 79, 64
2, 49297, Note_on_c, 0, 81, 66
2, 49340, Note_off_c, 0, 81, 64
2, 49352, Note_on_c, 0, 78, 70
2, 49387, Note_off_c, 0, 78, 64
2, 49418, Note_on_c, 0, 83, 66
2, 49472, Note_off_c, 0, 83, 64
2, 49541, Note_on_c, 0, 71, 82
2, 49595, Note_off_c, 0, 71, 64
2, 49671, Note_on_c, 0, 76, 82
2, 49800, Note_off_c, 0, 76, 64
2, 49849, Note_on_c, 0, 76, 72
2, 49877, Note_off_c, 0, 76, 64
2, 49913, Note_on_c, 0, 76, 80
2, 49961, Note_off_c, 0, 76, 64
2, 49969, Note_on_c, 0, 79, 70
2, 50020, Note_off_c, 0, 79, 64
2, 50028, Note_on_c, 0, 78, 59
2, 50078, Note_off_c, 0, 78, 64
2, 50078, Note_on_c, 0, 76, 60
2, 50119, Note_off_c, 0, 76, 64
2, 50139, Note_on_c, 0, 75, 78
2, 50188, Note_on_c, 0, 73, 52
2, 50190, Note_off_c, 0, 75, 64
2, 50242, Note_off_c, 0, 73, 64
2, 50247, Note_on_c, 0, 75, 62
2, 50289, Note_off_c, 0, 75, 64
2, 50304, Note_on_c, 0, 71, 57
2, 50344, Note_off_c, 0, 71, 64
2, 50375, Note_on_c, 0, 83, 76
2, 50441, Note_on_c, 0, 81, 64
2, 50444, Note_off_c, 0, 83, 64
2, 50484, Note_off_c, 0, 81, 64
2, 50495, Note_on_c, 0, 79, 60
2, 50547, Note_off_c, 0, 79, 64
2, 50550, Note_on_c, 0, 78, 57
2, 50609, Note_off_c, 0, 78, 64
2, 50617, Note_on_c, 0, 76, 52
2, 50669, Note_on_c, 0, 74, 57
2, 50670, Note_off_c, 0, 76, 64
2, 50737, Note_off_c, 0, 74, 64
2, 50740, Note_on_c, 0, 72, 49
2, 50787, Note_off_c, 0, 72, 64
2, 50797, Note_on_c, 0, 71, 64
2, 50832, Note_off_c, 0, 71, 64
2, 50867, Note_on_c, 0, 69, 80
2, 50927, Note_off_c, 0, 69, 64
2, 50927, Note_on_c, 0, 72, 78
2, 50978, Note_off_c, 0, 72, 64
2, 50989, Note_on_c, 0, 74, 70
2, 51040, Note_off_c, 0, 74, 64
2, 51043, Note_on_c, 0, 76, 66
2, 51084, Note_off_c, 0, 76, 64
2, 51107, Note_on_c, 0, 74, 76
2, 51164, Note_on_c, 0, 72, 60
2, 51169, Note_off_c, 0, 74, 64
2, 51222, Note_off_c, 0, 72, 64
2, 51224, Note_on_c, 0, 71, 56
2, 51271, Note_off_c, 0, 71, 64
2, 51286, Note_on_c, 0, 69, 53
2, 51319, Note_off_c, 0, 69, 64
2, 51347, Note_on_c, 0, 74, 85
2, 51469, Note_off_c, 0, 74, 64
2, 51523, Note_on_c, 0, 76, 72
2, 51553, Note_off_c, 0, 76, 64
2, 51588, Note_on_c, 0, 74, 87
2, 51615, Note_on_c, 0, 72, 80
2, 51620, Note_off_c, 0, 74, 64
2, 51644, Note_on_c, 0, 74, 66
2, 51647, Note_off_c, 0, 72, 64
2, 51668, Note_on_c, 0, 72, 80
2, 51681, Note_off_c, 0, 74, 64
2, 51711, Note_off_c, 0, 72, 64
2, 51771, Note_on_c, 0, 71, 70
2, 51804, Note_off_c, 0, 71, 64
2, 51832, Note_on_c, 0, 72, 82
2, 51939, Note_off_c, 0, 72, 64
2, 52003, Note_on_c, 0, 74, 70
2, 52025, Note_off_c, 0, 74, 64
2, 52065, Note_on_c, 0, 72, 78
2, 52089, Note_on_c, 0, 71, 72
2, 52096, Note_off_c, 0, 72, 64
2, 52116, Note_on_c, 0, 72, 59
2, 52119, Note_off_c, 0, 71, 64
2, 52142, Note_on_c, 0, 71, 66
2, 52152, Note_off_c, 0, 72, 64
2, 52199, Note_off_c, 0, 71, 64
2, 52234, Note_on_c, 0, 69, 70
2, 52268, Note_off_c, 0, 69, 64
2, 52298, Note_on_c, 0, 69, 70
2, 52356, Note_on_c, 0, 76, 74
2, 52364, Note_off_c, 0, 69, 64
2, 52407, Note_off_c, 0, 76, 64
2, 52415, Note_on_c, 0, 78, 60
2, 52459, Note_off_c, 0, 78, 64
2, 52464, Note_on_c, 0, 80, 64
2, 52507, Note_off_c, 0, 80, 64
2, 52540, Note_on_c, 0, 81, 85
2, 52799, Note_off_c, 0, 81, 64
2, 52844, Note_on_c, 0, 84, 78
2, 52899, Note_off_c, 0, 84, 64
2, 52903, Note_on_c, 0, 83, 70
2, 52949, Note_off_c, 0, 83, 64
2, 52959, Note_on_c, 0, 81, 64
2, 53006, Note_off_c, 0, 81, 64
2, 53022, Note_on_c, 0, 80, 66
2, 53066, Note_off_c, 0, 80, 64
2, 53076, Note_on_c, 0, 81, 74
2, 53123, Note_off_c, 0, 81, 64
2, 53137, Note_on_c, 0, 83, 66
2, 53180, Note_off_c, 0, 83, 64
2, 53193, Note_on_c, 0, 80, 47
2, 53243, Note_off_c, 0, 80, 64
2, 53268, Note_on_c, 0, 76, 57
2, 53312, Note_off_c, 0, 76, 64
2, 53397, Note_on_c, 0, 76, 87
2, 53433, Note_off_c, 0, 76, 64
2, 53519, Note_on_c, 0, 76, 85
2, 53559, Note_off_c, 0, 76, 64
2, 53640, Note_on_c, 0, 76, 82
2, 53683, Note_off_c, 0, 76, 64
2, 53758, Note_on_c, 0, 72, 80
2, 53865, Note_off_c, 0, 72, 64
2, 53878, Note_on_c, 0, 74, 72
2, 53922, Note_off_c, 0, 74, 64
2, 53928, Note_on_c, 0, 76, 68
2, 53969, Note_off_c, 0, 76, 64
2, 53987, Note_on_c, 0, 77, 78
2, 54030, Note_off_c, 0, 77, 64
2, 54112, Note_on_c, 0, 74, 78
2, 54151, Note_off_c, 0, 74, 64
2, 54222, Note_on_c, 0, 71, 78
2, 54272, Note_off_c, 0, 71, 64
2, 54341, Note_on_c, 0, 76, 85
2, 54378, Note_off_c, 0, 76, 64
2, 54462, Note_on_c, 0, 64, 72
2, 54509, Note_off_c, 0, 64, 64
2, 54587, Note_on_c, 0, 74, 82
2, 54626, Note_off_c, 0, 74, 64
2, 54703, Note_on_c, 0, 72, 74
2, 54840, Note_off_c, 0, 72, 64
2, 54886, Note_on_c, 0, 71, 62
2, 54914, Note_off_c, 0, 71, 64
2, 54948, Note_on_c, 0, 72, 80
2, 54974, Note_on_c, 0, 71, 62
2, 54982, Note_off_c, 0, 72, 64
2, 54998, Note_on_c, 0, 72, 64
2, 55008, Note_off_c, 0, 71, 64
2, 55023, Note_on_c, 0, 71, 51
2, 55036, Note_off_c, 0, 72, 64
2, 55085, Note_off_c, 0, 71, 64
2, 55119, Note_on_c, 0, 69, 76
2, 55151, Note_off_c, 0, 69, 64
2, 55193, Note_on_c, 0, 69, 89
2, 55297, Note_off_c, 0, 69, 64
2, 72113, Note_on_c, 0, 71, 80
2, 72146, Note_off_c, 0, 71, 64
2, 72228, Note_on_c, 0, 71, 85
2, 72264, Note_off_c, 0, 71, 64
2, 72353, Note_on_c, 0, 71, 85
2, 72387, Note_off_c, 0, 71, 64
2, 72472, Note_on_c, 0, 67, 82
2, 72583, Note_off_c, 0, 67, 64
2, 72597, Note_on_c, 0, 69, 82
2, 72642, Note_off_c, 0, 69, 64
2, 72649, Note_on_c, 0, 71, 82
2, 72692, Note_off_c, 0, 71, 64
2, 72706, Note_on_c, 0, 72, 68
2, 72748, Note_off_c, 0, 72, 64
2, 72828, Note_on_c, 0, 69, 78
2, 72868, Note_off_c, 0, 69, 64
2, 72948, Note_on_c, 0, 66, 68
2, 73000, Note_off_c, 0, 66, 64
2, 73067, Note_on_c, 0, 71, 82
2, 73110, Note_off_c, 0, 71, 64
2, 73197, Note_on_c, 0, 59, 80
2, 73240, Note_off_c, 0, 59, 64
2, 73315, Note_on_c, 0, 71, 80
2, 73352, Note_off_c, 0, 71, 64
2, 73438, Note_on_c, 0, 71, 64
2, 73688, Note_off_c, 0, 71, 64
2, 76368, Note_on_c, 0, 72, 72
2, 76412, Note_off_c, 0, 72, 64
2, 76427, Note_on_c, 0, 71, 72
2, 76469, Note_off_c, 0, 71, 64
2, 76486, Note_on_c, 0, 69, 64
2, 76536, Note_off_c, 0, 69, 64
2, 76542, Note_on_c, 0, 67, 62
2, 76602, Note_on_c, 0, 66, 80
2, 76608, Note_off_c, 0, 67, 64
2, 76656, Note_off_c, 0, 66, 64
2, 76657, Note_on_c, 0, 67, 66
2, 76704, Note_off_c, 0, 67, 64
2, 76720, Note_on_c, 0, 64, 59
2, 76759, Note_off_c, 0, 64, 64
2, 76788, Note_on_c, 0, 72, 80
2, 76844, Note_on_c, 0, 71, 72
2, 76845, Note_off_c, 0, 72, 64
2, 76892, Note_off_c, 0, 71, 64
2, 76905, Note_on_c, 0, 69, 76
2, 76948, Note_off_c, 0, 69, 64
2, 76960, Note_on_c, 0, 67, 68
2, 77012, Note_off_c, 0, 67, 64
2, 77032, Note_on_c, 0, 66, 72
2, 77074, Note_off_c, 0, 66, 64
2, 77147, Note_on_c, 0, 71, 80
2, 77184, Note_off_c, 0, 71, 64
2, 77272, Note_on_c, 0, 64, 60
2, 77504, Note_off_c, 0, 64, 64
2, 78348, Note_on_c, 0, 76, 66
2, 78384, Note_off_c, 0, 76, 64
2, 78464, Note_on_c, 0, 76, 66
2, 78505, Note_off_c, 0, 76, 64
2, 78585, Note_on_c, 0, 76, 76
2, 78628, Note_off_c, 0, 76, 64
2, 78708, Note_on_c, 0, 72, 74
2, 78824, Note_off_c, 0, 72, 64
2, 78838, Note_on_c, 0, 74, 85
2, 78890, Note_off_c, 0, 74, 64
2, 78892, Note_on_c, 0, 76, 72
2, 78938, Note_off_c, 0, 76, 64
2, 78948, Note_on_c, 0, 77, 72
2, 78992, Note_off_c, 0, 77, 64
2, 79066, Note_on_c, 0, 74, 70
2, 79105, Note_off_c, 0, 74, 64
2, 79188, Note_on_c, 0, 71, 68
2, 79238, Note_off_c, 0, 71, 64
2, 79310, Note_on_c, 0, 74, 70
2, 79345, Note_off_c, 0, 74, 64
2, 79425, Note_on_c, 0, 64, 64
2, 79478, Note_off_c, 0, 64, 64
2, 79543, Note_on_c, 0, 74, 74
2, 79578, Note_off_c, 0, 74, 64
2, 79662, Note_on_c, 0, 72, 78
2, 79745, Note_off_c, 0, 72, 64
2, 79786, Note_on_c, 0, 81, 76
2, 79829, Note_off_c, 0, 81, 64
2, 79913, Note_on_c, 0, 81, 80
2, 79953, Note_off_c, 0, 81, 64
2, 80031, Note_on_c, 0, 81, 89
2, 80073, Note_off_c, 0, 81, 64
2, 80155, Note_on_c, 0, 78, 80
2, 80253, Note_off_c, 0, 78, 64
2, 80280, Note_on_c, 0, 74, 68
2, 80313, Note_off_c, 0, 74, 64
2, 80397, Note_on_c, 0, 74, 72
2, 80434, Note_off_c, 0, 74, 64
2, 80511, Note_on_c, 0, 74, 68
2, 80556, Note_off_c, 0, 74, 64
2, 80632, Note_on_c, 0, 70, 63
2, 80749, Note_off_c, 0, 70, 64
2, 80760, Note_on_c, 0, 72, 66
2, 80808, Note_off_c, 0, 72, 64
2, 80812, Note_on_c, 0, 74, 72
2, 80868, Note_off_c, 0, 74, 64
2, 80873, Note_on_c, 0, 75, 61
2, 80915, Note_off_c, 0, 75, 64
2, 80987, Note_on_c, 0, 72, 66
2, 81028, Note_off_c, 0, 72, 64
2, 81108, Note_on_c, 0, 69, 58
2, 81154, Note_off_c, 0, 69, 64
2, 81222, Note_on_c, 0, 72, 66
2, 81261, Note_off_c, 0, 72, 64
2, 81340, Note_on_c, 0, 62, 72
2, 81395, Note_off_c, 0, 62, 64
2, 81456, Note_on_c, 0, 72, 70
2, 81495, Note_off_c, 0, 72, 64
2, 81577, Note_on_c, 0, 70, 66
2, 81672, Note_off_c, 0, 70, 64
2, 81711, Note_on_c, 0, 79, 98
2, 81757, Note_off_c, 0, 79, 64
2, 81834, Note_on_c, 0, 79, 93
2, 81875, Note_off_c, 0, 79, 64
2, 81949, Note_on_c, 0, 79, 93
2, 81998, Note_off_c, 0, 79, 64
2, 82069, Note_on_c, 0, 76, 87
2, 82162, Note_off_c, 0, 76, 64
2, 82195, Note_on_c, 0, 72, 57
2, 82232, Note_off_c, 0, 72, 64
2, 82314, Note_on_c, 0, 72, 70
2, 82352, Note_off_c, 0, 72, 64
2, 82434, Note_on_c, 0, 72, 72
2, 82476, Note_off_c, 0, 72, 64
2, 82555, Note_on_c, 0, 69, 82
2, 82656, Note_off_c, 0, 69, 64
2, 82679, Note_on_c, 0, 70, 60
2, 82725, Note_off_c, 0, 70, 64
2, 82729, Note_on_c, 0, 72, 64
2, 82765, Note_off_c, 0, 72, 64
2, 82791, Note_on_c, 0, 74, 70
2, 82832, Note_off_c, 0, 74, 64
2, 82911, Note_on_c, 0, 70, 61
2, 82949, Note_off_c, 0, 70, 64
2, 83031, Note_on_c, 0, 67, 74
2, 83077, Note_off_c, 0, 67, 64
2, 83155, Note_on_c, 0, 70, 68
2, 83192, Note_off_c, 0, 70, 64
2, 83279, Note_on_c, 0, 60, 80
2, 83325, Note_off_c, 0, 60, 64
2, 83388, Note_on_c, 0, 70, 66
2, 83440, Note_off_c, 0, 70, 64
2, 83512, Note_on_c, 0, 69, 80
2, 83562, Note_off_c, 0, 69, 64
2, 83562, Note_on_c, 0, 67, 70
2, 83614, Note_off_c, 0, 67, 64
2, 83621, Note_on_c, 0, 65, 72
2, 83676, Note_on_c, 0, 67, 64
2, 83685, Note_off_c, 0, 65, 64
2, 83731, Note_off_c, 0, 67, 64
2, 83738, Note_on_c, 0, 69, 85
2, 83783, Note_off_c, 0, 69, 64
2, 83791, Note_on_c, 0, 67, 74
2, 83846, Note_off_c, 0, 67, 64
2, 83855, Note_on_c, 0, 69, 72
2, 83902, Note_off_c, 0, 69, 64
2, 83911, Note_on_c, 0, 71, 80
2, 83952, Note_off_c, 0, 71, 64
2, 83981, Note_on_c, 0, 72, 80
2, 84091, Note_off_c, 0, 72, 64
2, 84167, Note_on_c, 0, 67, 68
2, 84196, Note_off_c, 0, 67, 64
2, 84234, Note_on_c, 0, 72, 87
2, 84346, Note_off_c, 0, 72, 64
2, 84412, Note_on_c, 0, 72, 85
2, 84441, Note_off_c, 0, 72, 64
2, 84468, Note_on_c, 0, 72, 100
2, 84572, Note_off_c, 0, 72, 64
2, 84636, Note_on_c, 0, 71, 63
2, 84662, Note_on_c, 0, 69, 74
2, 84669, Note_off_c, 0, 71, 64
2, 84692, Note_on_c, 0, 71, 63
2, 84702, Note_off_c, 0, 69, 64
2, 84719, Note_on_c, 0, 72, 82
2, 84720, Note_off_c, 0, 71, 64
2, 84743, Note_on_c, 0, 71, 82
2, 84751, Note_off_c, 0, 72, 64
2, 84767, Note_on_c, 0, 72, 85
2, 84776, Note_off_c, 0, 71, 64
2, 84786, Note_on_c, 0, 71, 62
2, 84804, Note_off_c, 0, 72, 64
2, 84840, Note_off_c, 0, 71, 64
2, 84885, Note_on_c, 0, 72, 82
2, 84912, Note_off_c, 0, 72, 64
2, 84954, Note_on_c, 0, 72, 89
2, 85186, Note_off_c, 0, 72, 64
2, 101326, Note_on_c, 0, 59, 82
2, 101384, Note_off_c, 0, 59, 64
2, 101388, Note_on_c, 0, 60, 66
2, 101441, Note_off_c, 0, 60, 64
2, 101446, Note_on_c, 0, 62, 70
2, 101496, Note_off_c, 0, 62, 64
2, 101509, Note_on_c, 0, 64, 80
2, 101552, Note_off_c, 0, 64, 64
2, 101558, Note_on_c, 0, 62, 64
2, 101625, Note_on_c, 0, 64, 66
2, 101629, Note_off_c, 0, 62, 64
2, 101689, Note_off_c, 0, 64, 64
2, 101689, Note_on_c, 0, 65, 72
2, 101740, Note_off_c, 0, 65, 64
2, 101754, Note_on_c, 0, 67, 74
2, 101813, Note_on_c, 0, 70, 68
2, 101814, Note_off_c, 0, 67, 64
2, 101870, Note_on_c, 0, 69, 68
2, 101872, Note_off_c, 0, 70, 64
2, 101928, Note_off_c, 0, 69, 64
2, 101929, Note_on_c, 0, 67, 63
2, 101985, Note_off_c, 0, 67, 64
2, 101991, Note_on_c, 0, 65, 66
2, 102040, Note_off_c, 0, 65, 64
2, 102046, Note_on_c, 0, 64, 60
2, 102097, Note_off_c, 0, 64, 64
2, 102105, Note_on_c, 0, 65, 68
2, 102157, Note_off_c, 0, 65, 64
2, 102158, Note_on_c, 0, 62, 76
2, 102209, Note_off_c, 0, 62, 64
2, 102223, Note_on_c, 0, 67, 87
2, 102272, Note_off_c, 0, 67, 64
2, 102280, Note_on_c, 0, 65, 85
2, 102329, Note_off_c, 0, 65, 64
2, 102340, Note_on_c, 0, 67, 78
2, 102393, Note_off_c, 0, 67, 64
2, 102406, Note_on_c, 0, 69, 74
2, 102452, Note_off_c, 0, 69, 64
2, 102466, Note_on_c, 0, 67, 76
2, 102511, Note_off_c, 0, 67, 64
2, 102526, Note_on_c, 0, 65, 68
2, 102570, Note_off_c, 0, 65, 64
2, 102585, Note_on_c, 0, 64, 70
2, 102636, Note_off_c, 0, 64, 64
2, 102642, Note_on_c, 0, 62, 78
2, 102680, Note_off_c, 0, 62, 64
2, 102709, Note_on_c, 0, 60, 89
2, 102769, Note_off_c, 0, 60, 64
2, 102785, Note_on_c, 0, 76, 66
2, 102834, Note_off_c, 0, 76, 64
2, 102840, Note_on_c, 0, 77, 68
2, 102891, Note_off_c, 0, 77, 64
2, 102892, Note_on_c, 0, 79, 80
2, 102935, Note_off_c, 0, 79, 64
2, 102954, Note_on_c, 0, 81, 95
2, 103012, Note_off_c, 0, 81, 64
2, 103012, Note_on_c, 0, 79, 80
2, 103065, Note_off_c, 0, 79, 64
2, 103074, Note_on_c, 0, 77, 68
2, 103123, Note_off_c, 0, 77, 64
2, 103128, Note_on_c, 0, 76, 68
2, 103168, Note_off_c, 0, 76, 64
2, 103188, Note_on_c, 0, 74, 68
2, 103232, Note_off_c, 0, 74, 64
2, 103242, Note_on_c, 0, 77, 66
2, 103300, Note_off_c, 0, 77, 64
2, 103302, Note_on_c, 0, 76, 62
2, 103356, Note_off_c, 0, 76, 64
2, 103358, Note_on_c, 0, 77, 82
2, 103403, Note_off_c, 0, 77, 64
2, 103421, Note_on_c, 0, 79, 91
2, 103480, Note_on_c, 0, 77, 78
2, 103482, Note_off_c, 0, 79, 64
2, 103527, Note_off_c, 0, 77, 64
2, 103543, Note_on_c, 0, 76, 72
2, 103592, Note_off_c, 0, 76, 64
2, 103601, Note_on_c, 0, 74, 66
2, 103651, Note_off_c, 0, 74, 64
2, 103662, Note_on_c, 0, 72, 80
2, 103710, Note_off_c, 0, 72, 64
2, 103716, Note_on_c, 0, 76, 66
2, 103762, Note_off_c, 0, 76, 64
2, 103779, Note_on_c, 0, 74, 78
2, 103824, Note_off_c, 0, 74, 64
2, 103834, Note_on_c, 0, 76, 85
2, 103881, Note_off_c, 0, 76, 64
2, 103900, Note_on_c, 0, 77, 82
2, 104045, Note_off_c, 0, 77, 64
2, 104082, Note_on_c, 0, 77, 91
2, 104116, Note_off_c, 0, 77, 64
2, 104149, Note_on_c, 0, 77, 98
2, 104202, Note_off_c, 0, 77, 64
2, 104202, Note_on_c, 0, 76, 78
2, 104249, Note_off_c, 0, 76, 64
2, 104261, Note_on_c, 0, 77, 82
2, 104301, Note_off_c, 0, 77, 64
2, 104317, Note_on_c, 0, 74, 74
2, 104363, Note_off_c, 0, 74, 64
2, 104384, Note_on_c, 0, 76, 93
2, 104437, Note_off_c, 0, 76, 64
2, 104442, Note_on_c, 0, 79, 82
2, 104490, Note_off_c, 0, 79, 64
2, 104503, Note_on_c, 0, 77, 78
2, 104547, Note_off_c, 0, 77, 64
2, 104560, Note_on_c, 0, 79, 87
2, 104606, Note_off_c, 0, 79, 64
2, 104623, Note_on_c, 0, 81, 78
2, 104899, Note_off_c, 0, 81, 64
2, 104924, Note_on_c, 0, 74, 87
2, 104972, Note_off_c, 0, 74, 64
2, 104985, Note_on_c, 0, 76, 72
2, 105024, Note_off_c, 0, 76, 64
2, 105038, Note_on_c, 0, 77, 87
2, 105077, Note_off_c, 0, 77, 64
2, 105102, Note_on_c, 0, 79, 82
2, 105379, Note_off_c, 0, 79, 64
2, 105405, Note_on_c, 0, 72, 74
2, 105464, Note_off_c, 0, 72, 64
2, 105465, Note_on_c, 0, 74, 82
2, 105510, Note_off_c, 0, 74, 64
2, 105519, Note_on_c, 0, 76, 87
2, 105561, Note_off_c, 0, 76, 64
2, 105584, Note_on_c, 0, 77, 98
2, 105634, Note_off_c, 0, 77, 64
2, 105642, Note_on_c, 0, 76, 87
2, 105686, Note_off_c, 0, 76, 64
2, 105700, Note_on_c, 0, 74, 85
2, 105757, Note_off_c, 0, 74, 64
2, 105757, Note_on_c, 0, 72, 64
2, 105793, Note_off_c, 0, 72, 64
2, 105821, Note_on_c, 0, 71, 82
2, 105880, Note_on_c, 0, 74, 80
2, 105881, Note_off_c, 0, 71, 64
2, 105936, Note_off_c, 0, 74, 64
2, 105943, Note_on_c, 0, 76, 70
2, 106000, Note_on_c, 0, 77, 78
2, 106002, Note_off_c, 0, 76, 64
2, 106043, Note_off_c, 0, 77, 64
2, 106060, Note_on_c, 0, 76, 89
2, 106111, Note_off_c, 0, 76, 64
2, 106118, Note_on_c, 0, 79, 74
2, 106170, Note_off_c, 0, 79, 64
2, 106179, Note_on_c, 0, 77, 57
2, 106232, Note_off_c, 0, 77, 64
2, 106240, Note_on_c, 0, 79, 70
2, 106286, Note_off_c, 0, 79, 64
2, 106304, Note_on_c, 0, 81, 89
2, 106366, Note_on_c, 0, 79, 74
2, 106369, Note_off_c, 0, 81, 64
2, 106420, Note_off_c, 0, 79, 64
2, 106425, Note_on_c, 0, 77, 72
2, 106483, Note_off_c, 0, 77, 64
2, 106487, Note_on_c, 0, 76, 72
2, 106537, Note_off_c, 0, 76, 64
2, 106550, Note_on_c, 0, 74, 89
2, 106606, Note_on_c, 0, 77, 70
2, 106611, Note_off_c, 0, 74, 64
2, 106662, Note_off_c, 0, 77, 64
2, 106670, Note_on_c, 0, 76, 57
2, 106717, Note_off_c, 0, 76, 64
2, 106728, Note_on_c, 0, 77, 78
2, 106771, Note_off_c, 0, 77, 64
2, 106790, Note_on_c, 0, 79, 95
2, 106848, Note_off_c, 0, 79, 64
2, 106850, Note_on_c, 0, 77, 85
2, 106898, Note_off_c, 0, 77, 64
2, 106910, Note_on_c, 0, 76, 78
2, 106962, Note_off_c, 0, 76, 64
2, 106970, Note_on_c, 0, 74, 85
2, 107016, Note_off_c, 0, 74, 64
2, 107027, Note_on_c, 0, 72, 82
2, 107077, Note_off_c, 0, 72, 64
2, 107083, Note_on_c, 0, 76, 66
2, 107142, Note_off_c, 0, 76, 64
2, 107149, Note_on_c, 0, 74, 53
2, 107209, Note_off_c, 0, 74, 64
2, 107209, Note_on_c, 0, 76, 76
2, 107251, Note_off_c, 0, 76, 64
2, 107267, Note_on_c, 0, 77, 87
2, 107329, Note_on_c, 0, 76, 72
2, 107332, Note_off_c, 0, 77, 64
2, 107382, Note_off_c, 0, 76, 64
2, 107391, Note_on_c, 0, 74, 64
2, 107447, Note_off_c, 0, 74, 64
2, 107452, Note_on_c, 0, 72, 68
2, 107500, Note_off_c, 0, 72, 64
2, 107510, Note_on_c, 0, 71, 80
2, 107565, Note_off_c, 0, 71, 64
2, 107571, Note_on_c, 0, 74, 68
2, 107632, Note_off_c, 0, 74, 64
2, 107632, Note_on_c, 0, 72, 62
2, 107689, Note_off_c, 0, 72, 64
2, 107691, Note_on_c, 0, 74, 76
2, 107738, Note_off_c, 0, 74, 64
2, 107753, Note_on_c, 0, 76, 82
2, 107807, Note_on_c, 0, 74, 72
2, 107812, Note_off_c, 0, 76, 64
2, 107861, Note_off_c, 0, 74, 64
2, 107870, Note_on_c, 0, 72, 64
2, 107922, Note_off_c, 0, 72, 64
2, 107928, Note_on_c, 0, 71, 74
2, 107974, Note_off_c, 0, 71, 64
2, 107986, Note_on_c, 0, 69, 78
2, 108036, Note_off_c, 0, 69, 64
2, 108044, Note_on_c, 0, 72, 64
2, 108096, Note_off_c, 0, 72, 64
2, 108104, Note_on_c, 0, 71, 60
2, 108162, Note_on_c, 0, 72, 76
2, 108170, Note_off_c, 0, 71, 64
2, 108202, Note_off_c, 0, 72, 64
2, 108223, Note_on_c, 0, 74, 78
2, 108282, Note_on_c, 0, 72, 64
2, 108289, Note_off_c, 0, 74, 64
2, 108340, Note_off_c, 0, 72, 64
2, 108342, Note_on_c, 0, 71, 61
2, 108385, Note_off_c, 0, 71, 64
2, 108398, Note_on_c, 0, 69, 74
2, 108450, Note_off_c, 0, 69, 64
2, 108467, Note_on_c, 0, 71, 85
2, 108519, Note_off_c, 0, 71, 64
2, 108591, Note_on_c, 0, 79, 91
2, 108631, Note_off_c, 0, 79, 64
2, 108713, Note_on_c, 0, 79, 93
2, 108751, Note_off_c, 0, 79, 64
2, 108828, Note_on_c, 0, 79, 91
2, 108872, Note_off_c, 0, 79, 64
2, 108956, Note_on_c, 0, 76, 95
2, 109062, Note_off_c, 0, 76, 64
2, 109076, Note_on_c, 0, 77, 87
2, 109124, Note_off_c, 0, 77, 64
2, 109130, Note_on_c, 0, 79, 89
2, 109178, Note_off_c, 0, 79, 64
2, 109191, Note_on_c, 0, 81, 89
2, 109228, Note_off_c, 0, 81, 64
2, 109312, Note_on_c, 0, 77, 85
2, 109353, Note_off_c, 0, 77, 64
2, 109431, Note_on_c, 0, 74, 87
2, 109478, Note_off_c, 0, 74, 64
2, 109548, Note_on_c, 0, 79, 91
2, 109589, Note_off_c, 0, 79, 64
2, 109669, Note_on_c, 0, 67, 82
2, 109712, Note_off_c, 0, 67, 64
2, 109792, Note_on_c, 0, 77, 87
2, 109831, Note_off_c, 0, 77, 64
2, 109919, Note_on_c, 0, 76, 87
2, 110052, Note_off_c, 0, 76, 64
2, 110095, Note_on_c, 0, 74, 78
2, 110120, Note_off_c, 0, 74, 64
2, 110155, Note_on_c, 0, 76, 100
2, 110181, Note_on_c, 0, 74, 87
2, 110184, Note_off_c, 0, 76, 64
2, 110211, Note_on_c, 0, 76, 78
2, 110219, Note_off_c, 0, 74, 64
2, 110233, Note_on_c, 0, 74, 66
2, 110250, Note_off_c, 0, 76, 64
2, 110288, Note_off_c, 0, 74, 64
2, 110325, Note_on_c, 0, 72, 74
2, 110358, Note_off_c, 0, 72, 64
2, 110394, Note_on_c, 0, 72, 80
2, 110637, Note_off_c, 0, 72, 64
2, 124010, Note_on_c, 0, 74, 78
2, 124054, Note_off_c, 0, 74, 64
2, 124073, Note_on_c, 0, 76, 91
2, 124149, Note_off_c, 0, 76, 64
2, 124247, Note_on_c, 0, 77, 78
2, 124283, Note_off_c, 0, 77, 64
2, 124314, Note_on_c, 0, 76, 80
2, 124386, Note_on_c, 0, 74, 58
2, 124395, Note_off_c, 0, 76, 64
2, 124422, Note_off_c, 0, 74, 64
2, 124422, Note_on_c, 0, 76, 63
2, 124447, Note_on_c, 0, 74, 60
2, 124450, Note_off_c, 0, 76, 64
2, 124466, Note_off_c, 0, 74, 64
2, 124470, Note_on_c, 0, 76, 61
2, 124486, Note_on_c, 0, 74, 68
2, 124490, Note_off_c, 0, 76, 64
2, 124504, Note_off_c, 0, 74, 64
2, 124504, Note_on_c, 0, 76, 60
2, 124519, Note_on_c, 0, 74, 68
2, 124522, Note_off_c, 0, 76, 64
2, 124535, Note_on_c, 0, 76, 66
2, 124536, Note_off_c, 0, 74, 64
2, 124553, Note_on_c, 0, 74, 80
2, 124560, Note_off_c, 0, 76, 64
2, 124671, Note_off_c, 0, 74, 64
2, 124731, Note_on_c, 0, 72, 80
2, 124769, Note_off_c, 0, 72, 64
2, 124794, Note_on_c, 0, 72, 80
2, 124851, Note_off_c, 0, 72, 64
2, 149394, Note_on_c, 0, 69, 80
2, 149434, Note_off_c, 0, 69, 64
2, 149512, Note_on_c, 0, 69, 80
2, 149552, Note_off_c, 0, 69, 64
2, 149636, Note_on_c, 0, 69, 78
2, 149677, Note_off_c, 0, 69, 64
2, 149754, Note_on_c, 0, 67, 64
2, 149871, Note_off_c, 0, 67, 64
2, 149877, Note_on_c, 0, 69, 80
2, 149923, Note_off_c, 0, 69, 64
2, 149927, Note_on_c, 0, 71, 82
2, 149969, Note_off_c, 0, 71, 64
2, 149985, Note_on_c, 0, 72, 89
2, 150026, Note_off_c, 0, 72, 64
2, 150105, Note_on_c, 0, 69, 82
2, 150153, Note_off_c, 0, 69, 64
2, 150236, Note_on_c, 0, 66, 68
2, 150286, Note_off_c, 0, 66, 64
2, 150358, Note_on_c, 0, 71, 85
2, 150393, Note_off_c, 0, 71, 64
2, 150472, Note_on_c, 0, 59, 82
2, 150530, Note_off_c, 0, 59, 64
2, 150583, Note_on_c, 0, 71, 74
2, 150621, Note_off_c, 0, 71, 64
2, 150709, Note_on_c, 0, 64, 74
2, 150790, Note_off_c, 0, 64, 64
2, 150832, Note_on_c, 0, 76, 93
2, 150877, Note_off_c, 0, 76, 64
2, 150949, Note_on_c, 0, 76, 93
2, 150998, Note_off_c, 0, 76, 64
2, 151068, Note_on_c, 0, 76, 95
2, 151109, Note_off_c, 0, 76, 64
2, 151188, Note_on_c, 0, 73, 98
2, 151273, Note_off_c, 0, 73, 64
2, 151318, Note_on_c, 0, 69, 80
2, 151353, Note_off_c, 0, 69, 64
2, 151438, Note_on_c, 0, 69, 78
2, 151478, Note_off_c, 0, 69, 64
2, 151548, Note_on_c, 0, 69, 78
2, 151595, Note_off_c, 0, 69, 64
2, 151672, Note_on_c, 0, 65, 85
2, 151777, Note_off_c, 0, 65, 64
2, 151790, Note_on_c, 0, 67, 70
2, 151837, Note_off_c, 0, 67, 64
2, 151846, Note_on_c, 0, 69, 72
2, 151888, Note_off_c, 0, 69, 64
2, 151914, Note_on_c, 0, 70, 63
2, 151957, Note_off_c, 0, 70, 64
2, 152029, Note_on_c, 0, 67, 76
2, 152070, Note_off_c, 0, 67, 64
2, 152148, Note_on_c, 0, 64, 66
2, 152193, Note_off_c, 0, 64, 64
2, 152265, Note_on_c, 0, 69, 80
2, 152304, Note_off_c, 0, 69, 64
2, 152381, Note_on_c, 0, 57, 72
2, 152438, Note_off_c, 0, 57, 64
2, 152504, Note_on_c, 0, 69, 76
2, 152539, Note_off_c, 0, 69, 64
2, 152626, Note_on_c, 0, 62, 85
2, 152718, Note_off_c, 0, 62, 64
2, 152751, Note_on_c, 0, 74, 87
2, 152797, Note_off_c, 0, 74, 64
2, 152863, Note_on_c, 0, 74, 91
2, 152907, Note_off_c, 0, 74, 64
2, 152984, Note_on_c, 0, 74, 85
2, 153021, Note_off_c, 0, 74, 64
2, 153106, Note_on_c, 0, 71, 85
2, 153197, Note_off_c, 0, 71, 64
2, 153231, Note_on_c, 0, 67, 80
2, 153272, Note_off_c, 0, 67, 64
2, 153352, Note_on_c, 0, 67, 70
2, 153395, Note_off_c, 0, 67, 64
2, 153474, Note_on_c, 0, 67, 76
2, 153519, Note_off_c, 0, 67, 64
2, 153586, Note_on_c, 0, 64, 80
2, 153696, Note_off_c, 0, 64, 64
2, 153706, Note_on_c, 0, 65, 78
2, 153752, Note_off_c, 0, 65, 64
2, 153759, Note_on_c, 0, 67, 68
2, 153804, Note_off_c, 0, 67, 64
2, 153819, Note_on_c, 0, 69, 64
2, 153854, Note_off_c, 0, 69, 64
2, 153939, Note_on_c, 0, 65, 70
2, 153980, Note_off_c, 0, 65, 64
2, 154056, Note_on_c, 0, 62, 76
2, 154098, Note_off_c, 0, 62, 64
2, 154173, Note_on_c, 0, 67, 78
2, 154210, Note_off_c, 0, 67, 64
2, 154294, Note_on_c, 0, 55, 78
2, 154347, Note_off_c, 0, 55, 64
2, 154401, Note_on_c, 0, 67, 80
2, 154441, Note_off_c, 0, 67, 64
2, 154537, Note_on_c, 0, 60, 66
2, 154627, Note_off_c, 0, 60, 64
2, 154660, Note_on_c, 0, 72, 82
2, 154711, Note_off_c, 0, 72, 64
2, 154713, Note_on_c, 0, 74, 80
2, 154760, Note_off_c, 0, 74, 64
2, 154780, Note_on_c, 0, 76, 85
2, 154820, Note_off_c, 0, 76, 64
2, 154839, Note_on_c, 0, 74, 66
2, 154885, Note_off_c, 0, 74, 64
2, 154901, Note_on_c, 0, 76, 72
2, 154938, Note_off_c, 0, 76, 64
2, 154956, Note_on_c, 0, 78, 74
2, 154992, Note_off_c, 0, 78, 64
2, 155016, Note_on_c, 0, 79, 80
2, 155121, Note_off_c, 0, 79, 64
2, 155197, Note_on_c, 0, 74, 68
2, 155228, Note_off_c, 0, 74, 64
2, 155263, Note_on_c, 0, 79, 87
2, 155369, Note_off_c, 0, 79, 64
2, 155448, Note_on_c, 0, 79, 80
2, 155480, Note_off_c, 0, 79, 64
2, 155512, Note_on_c, 0, 79, 91
2, 155601, Note_off_c, 0, 79, 64
2, 155682, Note_on_c, 0, 78, 62
2, 155713, Note_on_c, 0, 76, 68
2, 155722, Note_off_c, 0, 78, 64
2, 155746, Note_on_c, 0, 78, 61
2, 155758, Note_off_c, 0, 76, 64
2, 155777, Note_off_c, 0, 78, 64
2, 155778, Note_on_c, 0, 79, 85
2, 155806, Note_on_c, 0, 78, 82
2, 155816, Note_off_c, 0, 79, 64
2, 155830, Note_on_c, 0, 79, 82
2, 155841, Note_off_c, 0, 78, 64
2, 155850, Note_on_c, 0, 78, 58
2, 155869, Note_off_c, 0, 79, 64
2, 155902, Note_off_c, 0, 78, 64
2, 155942, Note_on_c, 0, 79, 85
2, 155972, Note_off_c, 0, 79, 64
2, 156002, Note_on_c, 0, 79, 85
2, 156240, Note_off_c, 0, 79, 64
2, 156352, Note_on_c, 0, 76, 80
2, 156499, Note_off_c, 0, 76, 64
2, 156540, Note_on_c, 0, 79, 85
2, 156583, Note_off_c, 0, 79, 64
2, 156600, Note_on_c, 0, 78, 91
2, 156639, Note_off_c, 0, 78, 64
2, 156652, Note_on_c, 0, 76, 78
2, 156709, Note_off_c, 0, 76, 64
2, 156713, Note_on_c, 0, 74, 66
2, 156752, Note_off_c, 0, 74, 64
2, 156766, Note_on_c, 0, 72, 55
2, 156814, Note_off_c, 0, 72, 64
2, 156826, Note_on_c, 0, 71, 50
2, 156872, Note_off_c, 0, 71, 64
2, 156876, Note_on_c, 0, 69, 63
2, 156911, Note_off_c, 0, 69, 64
2, 156944, Note_on_c, 0, 67, 68
2, 157001, Note_on_c, 0, 71, 64
2, 157003, Note_off_c, 0, 67, 64
2, 157057, Note_off_c, 0, 71, 64
2, 157062, Note_on_c, 0, 69, 55
2, 157114, Note_off_c, 0, 69, 64
2, 157119, Note_on_c, 0, 67, 62
2, 157149, Note_off_c, 0, 67, 64
2, 157180, Note_on_c, 0, 72, 85
2, 157234, Note_off_c, 0, 72, 64
2, 157235, Note_on_c, 0, 76, 85
2, 157287, Note_off_c, 0, 76, 64
2, 157292, Note_on_c, 0, 74, 68
2, 157340, Note_off_c, 0, 74, 64
2, 157350, Note_on_c, 0, 72, 76
2, 157373, Note_off_c, 0, 72, 64
2, 157421, Note_on_c, 0, 81, 89
2, 157466, Note_off_c, 0, 81, 64
2, 157545, Note_on_c, 0, 74, 87
2, 157584, Note_off_c, 0, 74, 64
2, 157671, Note_on_c, 0, 79, 87
2, 157811, Note_off_c, 0, 79, 64
2, 157849, Note_on_c, 0, 79, 78
2, 157878, Note_off_c, 0, 79, 64
2, 157906, Note_on_c, 0, 79, 89
2, 157944, Note_off_c, 0, 79, 64
2, 157961, Note_on_c, 0, 78, 105
2, 157997, Note_off_c, 0, 78, 64
2, 158019, Note_on_c, 0, 79, 91
2, 158053, Note_off_c, 0, 79, 64
2, 158078, Note_on_c, 0, 76, 80
2, 158103, Note_off_c, 0, 76, 64
2, 158139, Note_on_c, 0, 78, 98
2, 158276, Note_off_c, 0, 78, 64
2, 158321, Note_on_c, 0, 78, 82
2, 158349, Note_off_c, 0, 78, 64
2, 158387, Note_on_c, 0, 78, 102
2, 158430, Note_off_c, 0, 78, 64
2, 158511, Note_on_c, 0, 71, 76
2, 158550, Note_off_c, 0, 71, 64
2, 158632, Note_on_c, 0, 76, 91
2, 158767, Note_off_c, 0, 76, 64
2, 158811, Note_on_c, 0, 76, 78
2, 158839, Note_off_c, 0, 76, 64
2, 158875, Note_on_c, 0, 76, 89
2, 158913, Note_off_c, 0, 76, 64
2, 158931, Note_on_c, 0, 74, 80
2, 158964, Note_off_c, 0, 74, 64
2, 158990, Note_on_c, 0, 76, 89
2, 159030, Note_off_c, 0, 76, 64
2, 159046, Note_on_c, 0, 72, 80
2, 159077, Note_off_c, 0, 72, 64
2, 159108, Note_on_c, 0, 74, 87
2, 159248, Note_off_c, 0, 74, 64
2, 159289, Note_on_c, 0, 74, 66
2, 159322, Note_off_c, 0, 74, 64
2, 159352, Note_on_c, 0, 74, 87
2, 159391, Note_off_c, 0, 74, 64
2, 159476, Note_on_c, 0, 67, 82
2, 159517, Note_off_c, 0, 67, 64
2, 159596, Note_on_c, 0, 72, 89
2, 159720, Note_off_c, 0, 72, 64
2, 159769, Note_on_c, 0, 72, 80
2, 159798, Note_off_c, 0, 72, 64
2, 159830, Note_on_c, 0, 72, 91
2, 159874, Note_off_c, 0, 72, 64
2, 159887, Note_on_c, 0, 76, 85
2, 159936, Note_off_c, 0, 76, 64
2, 159946, Note_on_c, 0, 74, 87
2, 159990, Note_off_c, 0, 74, 64
2, 160005, Note_on_c, 0, 72, 80
2, 160045, Note_off_c, 0, 72, 64
2, 160063, Note_on_c, 0, 71, 64
2, 160118, Note_off_c, 0, 71, 64
2, 160121, Note_on_c, 0, 69, 68
2, 160158, Note_off_c, 0, 69, 64
2, 160182, Note_on_c, 0, 67, 74
2, 160216, Note_off_c, 0, 67, 64
2, 160238, Note_on_c, 0, 66, 63
2, 160293, Note_off_c, 0, 66, 64
2, 160311, Note_on_c, 0, 67, 66
2, 160363, Note_off_c, 0, 67, 64
2, 160375, Note_on_c, 0, 71, 72
2, 160420, Note_off_c, 0, 71, 64
2, 160435, Note_on_c, 0, 76, 85
2, 160491, Note_on_c, 0, 74, 78
2, 160493, Note_off_c, 0, 76, 64
2, 160539, Note_off_c, 0, 74, 64
2, 160552, Note_on_c, 0, 72, 70
2, 160592, Note_off_c, 0, 72, 64
2, 160604, Note_on_c, 0, 71, 72
2, 160655, Note_off_c, 0, 71, 64
2, 160664, Note_on_c, 0, 69, 87
2, 160709, Note_off_c, 0, 69, 64
2, 160724, Note_on_c, 0, 67, 82
2, 160764, Note_off_c, 0, 67, 64
2, 160788, Note_on_c, 0, 78, 100
2, 160836, Note_off_c, 0, 78, 64
2, 160847, Note_on_c, 0, 76, 70
2, 160909, Note_off_c, 0, 76, 64
2, 160909, Note_on_c, 0, 74, 68
2, 160959, Note_off_c, 0, 74, 64
2, 160969, Note_on_c, 0, 76, 70
2, 161004, Note_off_c, 0, 76, 64
2, 161024, Note_on_c, 0, 78, 93
2, 161070, Note_off_c, 0, 78, 64
2, 161083, Note_on_c, 0, 76, 80
2, 161122, Note_off_c, 0, 76, 64
2, 161138, Note_on_c, 0, 78, 98
2, 161184, Note_off_c, 0, 78, 64
2, 161194, Note_on_c, 0, 74, 82
2, 161228, Note_off_c, 0, 74, 64
2, 161260, Note_on_c, 0, 79, 89
2, 161377, Note_off_c, 0, 79, 64
2, 161436, Note_on_c, 0, 81, 85
2, 161466, Note_off_c, 0, 81, 64
2, 161504, Note_on_c, 0, 79, 93
2, 161528, Note_on_c, 0, 78, 82
2, 161536, Note_off_c, 0, 79, 64
2, 161555, Note_on_c, 0, 79, 80
2, 161556, Note_off_c, 0, 78, 64
2, 161580, Note_on_c, 0, 78, 85
2, 161595, Note_off_c, 0, 79, 64
2, 161626, Note_off_c, 0, 78, 64
2, 161681, Note_on_c, 0, 79, 82
2, 161707, Note_off_c, 0, 79, 64
2, 161750, Note_on_c, 0, 79, 95
2, 161992, Note_off_c, 0, 79, 64
2, 179397, Note_on_c, 0, 81, 87
2, 179557, Note_off_c, 0, 81, 64
2, 179574, Note_on_c, 0, 84, 82
2, 179623, Note_off_c, 0, 84, 64
2, 179635, Note_on_c, 0, 83, 76
2, 179687, Note_off_c, 0, 83, 64
2, 179692, Note_on_c, 0, 81, 72
2, 179742, Note_off_c, 0, 81, 64
2, 179755, Note_on_c, 0, 79, 74
2, 179810, Note_off_c, 0, 79, 64
2, 179811, Note_on_c, 0, 77, 74
2, 179865, Note_on_c, 0, 76, 58
2, 179870, Note_off_c, 0, 77, 64
2, 179919, Note_off_c, 0, 76, 64
2, 179926, Note_on_c, 0, 74, 57
2, 179978, Note_off_c, 0, 74, 64
2, 179991, Note_on_c, 0, 72, 78
2, 180046, Note_off_c, 0, 72, 64
2, 180053, Note_on_c, 0, 76, 68
2, 180110, Note_off_c, 0, 76, 64
2, 180112, Note_on_c, 0, 74, 58
2, 180160, Note_off_c, 0, 74, 64
2, 180167, Note_on_c, 0, 72, 64
2, 180205, Note_off_c, 0, 72, 64
2, 180232, Note_on_c, 0, 77, 82
2, 180370, Note_off_c, 0, 77, 64
2, 180412, Note_on_c, 0, 77, 87
2, 180440, Note_off_c, 0, 77, 64
2, 180476, Note_on_c, 0, 77, 91
2, 180534, Note_on_c, 0, 76, 76
2, 180537, Note_off_c, 0, 77, 64
2, 180584, Note_off_c, 0, 76, 64
2, 180589, Note_on_c, 0, 74, 70
2, 180646, Note_off_c, 0, 74, 64
2, 180646, Note_on_c, 0, 76, 60
2, 180674, Note_off_c, 0, 76, 64
2, 180715, Note_on_c, 0, 77, 87
2, 180742, Note_on_c, 0, 76, 82
2, 180747, Note_off_c, 0, 77, 64
2, 180765, Note_on_c, 0, 77, 68
2, 180772, Note_off_c, 0, 76, 64
2, 180790, Note_on_c, 0, 76, 74
2, 180807, Note_off_c, 0, 77, 64
2, 180848, Note_off_c, 0, 76, 64
2, 180888, Note_on_c, 0, 76, 78
2, 180920, Note_off_c, 0, 76, 64
2, 180953, Note_on_c, 0, 76, 91
2, 181004, Note_off_c, 0, 76, 64
2, 181014, Note_on_c, 0, 69, 70
2, 181070, Note_off_c, 0, 69, 64
2, 181077, Note_on_c, 0, 71, 66
2, 181123, Note_off_c, 0, 71, 64
2, 181131, Note_on_c, 0, 72, 66
2, 181165, Note_off_c, 0, 72, 64
2, 181201, Note_on_c, 0, 74, 80
2, 181340, Note_off_c, 0, 74, 64
2, 181374, Note_on_c, 0, 74, 82
2, 181408, Note_off_c, 0, 74, 64
2, 181437, Note_on_c, 0, 74, 89
2, 181492, Note_off_c, 0, 74, 64
2, 181495, Note_on_c, 0, 72, 70
2, 181540, Note_off_c, 0, 72, 64
2, 181557, Note_on_c, 0, 74, 80
2, 181615, Note_off_c, 0, 74, 64
2, 181616, Note_on_c, 0, 71, 66
2, 181657, Note_off_c, 0, 71, 64
2, 181680, Note_on_c, 0, 72, 82
2, 181728, Note_off_c, 0, 72, 64
2, 181733, Note_on_c, 0, 76, 78
2, 181778, Note_off_c, 0, 76, 64
2, 181791, Note_on_c, 0, 74, 59
2, 181837, Note_off_c, 0, 74, 64
2, 181849, Note_on_c, 0, 76, 68
2, 181886, Note_off_c, 0, 76, 64
2, 181911, Note_on_c, 0, 77, 87
2, 181973, Note_off_c, 0, 77, 64
2, 181973, Note_on_c, 0, 79, 72
2, 182030, Note_off_c, 0, 79, 64
2, 182033, Note_on_c, 0, 77, 64
2, 182085, Note_off_c, 0, 77, 64
2, 182090, Note_on_c, 0, 76, 62
2, 182139, Note_off_c, 0, 76, 64
2, 182153, Note_on_c, 0, 74, 76
2, 182200, Note_off_c, 0, 74, 64
2, 182204, Note_on_c, 0, 72, 63
2, 182251, Note_off_c, 0, 72, 64
2, 182260, Note_on_c, 0, 74, 63
2, 182318, Note_on_c, 0, 71, 63
2, 182319, Note_off_c, 0, 74, 64
2, 182360, Note_off_c, 0, 71, 64
2, 182384, Note_on_c, 0, 72, 70
2, 182440, Note_off_c, 0, 72, 64
2, 182445, Note_on_c, 0, 74, 66
2, 182505, Note_off_c, 0, 74, 64
2, 182508, Note_on_c, 0, 76, 66
2, 182557, Note_off_c, 0, 76, 64
2, 182567, Note_on_c, 0, 77, 80
2, 182628, Note_on_c, 0, 79, 61
2, 182632, Note_off_c, 0, 77, 64
2, 182680, Note_off_c, 0, 79, 64
2, 182686, Note_on_c, 0, 81, 74
2, 182742, Note_off_c, 0, 81, 64
2, 182747, Note_on_c, 0, 82, 82
2, 182800, Note_off_c, 0, 82, 64
2, 182805, Note_on_c, 0, 79, 60
2, 182840, Note_off_c, 0, 79, 64
2, 182872, Note_on_c, 0, 81, 82
2, 182929, Note_on_c, 0, 82, 70
2, 182938, Note_off_c, 0, 81, 64
2, 182975, Note_off_c, 0, 82, 64
2, 182985, Note_on_c, 0, 81, 76
2, 183044, Note_on_c, 0, 79, 66
2, 183052, Note_off_c, 0, 81, 64
2, 183107, Note_off_c, 0, 79, 64
2, 183110, Note_on_c, 0, 77, 68
2, 183158, Note_off_c, 0, 77, 64
2, 183164, Note_on_c, 0, 76, 59
2, 183221, Note_off_c, 0, 76, 64
2, 183230, Note_on_c, 0, 74, 56
2, 183280, Note_off_c, 0, 74, 64
2, 183287, Note_on_c, 0, 72, 66
2, 183332, Note_off_c, 0, 72, 64
2, 183359, Note_on_c, 0, 71, 62
2, 183411, Note_off_c, 0, 71, 64
2, 183474, Note_on_c, 0, 79, 80
2, 183512, Note_off_c, 0, 79, 64
2, 183600, Note_on_c, 0, 79, 93
2, 183639, Note_off_c, 0, 79, 64
2, 183723, Note_on_c, 0, 79, 91
2, 183763, Note_off_c, 0, 79, 64
2, 183839, Note_on_c, 0, 76, 93
2, 183942, Note_off_c, 0, 76, 64
2, 183959, Note_on_c, 0, 77, 82
2, 184006, Note_off_c, 0, 77, 64
2, 184015, Note_on_c, 0, 79, 82
2, 184064, Note_off_c, 0, 79, 64
2, 184074, Note_on_c, 0, 81, 87
2, 184116, Note_off_c, 0, 81, 64
2, 184194, Note_on_c, 0, 77, 85
2, 184242, Note_off_c, 0, 77, 64
2, 184312, Note_on_c, 0, 74, 80
2, 184357, Note_off_c, 0, 74, 64
2, 184432, Note_on_c, 0, 79, 87
2, 184475, Note_off_c, 0, 79, 64
2, 184549, Note_on_c, 0, 67, 82
2, 184602, Note_off_c, 0, 67, 64
2, 184668, Note_on_c, 0, 77, 85
2, 184710, Note_off_c, 0, 77, 64
2, 184792, Note_on_c, 0, 76, 87
2, 184848, Note_on_c, 0, 74, 82
2, 184854, Note_off_c, 0, 76, 64
2, 184904, Note_off_c, 0, 74, 64
2, 184911, Note_on_c, 0, 72, 64
2, 184965, Note_off_c, 0, 72, 64
2, 184965, Note_on_c, 0, 74, 72
2, 185017, Note_off_c, 0, 74, 64
2, 185028, Note_on_c, 0, 76, 82
2, 185074, Note_off_c, 0, 76, 64
2, 185081, Note_on_c, 0, 74, 78
2, 185132, Note_off_c, 0, 74, 64
2, 185144, Note_on_c, 0, 76, 70
2, 185197, Note_off_c, 0, 76, 64
2, 185197, Note_on_c, 0, 78, 66
2, 185239, Note_off_c, 0, 78, 64
2, 185264, Note_on_c, 0, 79, 85
2, 185381, Note_off_c, 0, 79, 64
2, 185440, Note_on_c, 0, 74, 70
2, 185472, Note_off_c, 0, 74, 64
2, 185504, Note_on_c, 0, 79, 89
2, 185624, Note_off_c, 0, 79, 64
2, 185688, Note_on_c, 0, 79, 76
2, 185717, Note_off_c, 0, 79, 64
2, 185747, Note_on_c, 0, 79, 93
2, 185863, Note_off_c, 0, 79, 64
2, 185907, Note_on_c, 0, 78, 74
2, 185942, Note_on_c, 0, 76, 72
2, 185945, Note_off_c, 0, 78, 64
2, 185970, Note_on_c, 0, 78, 58
2, 185984, Note_off_c, 0, 76, 64
2, 185993, Note_off_c, 0, 78, 64
2, 185996, Note_on_c, 0, 79, 72
2, 186019, Note_on_c, 0, 78, 70
2, 186031, Note_off_c, 0, 79, 64
2, 186038, Note_on_c, 0, 79, 66
2, 186042, Note_off_c, 0, 78, 64
2, 186062, Note_on_c, 0, 78, 78
2, 186080, Note_off_c, 0, 79, 64
2, 186121, Note_off_c, 0, 78, 64
2, 186153, Note_on_c, 0, 79, 78
2, 186186, Note_off_c, 0, 79, 64
2, 186223, Note_on_c, 0, 79, 100
2, 186329, Note_off_c, 0, 79, 64
2, 186348, Note_on_c, 0, 77, 68
2, 186397, Note_off_c, 0, 77, 64
2, 186397, Note_on_c, 0, 76, 66
2, 186440, Note_off_c, 0, 76, 64
2, 186454, Note_on_c, 0, 74, 57
2, 186511, Note_off_c, 0, 74, 64
2, 186513, Note_on_c, 0, 71, 57
2, 186565, Note_off_c, 0, 71, 64
2, 186575, Note_on_c, 0, 72, 68
2, 186620, Note_off_c, 0, 72, 64
2, 186632, Note_on_c, 0, 74, 72
2, 186666, Note_off_c, 0, 74, 64
2, 186691, Note_on_c, 0, 67, 61
2, 186750, Note_off_c, 0, 67, 64
2, 186825, Note_on_c, 0, 79, 82
2, 186868, Note_off_c, 0, 79, 64
2, 186947, Note_on_c, 0, 76, 76
2, 186988, Note_off_c, 0, 76, 64
2, 187064, Note_on_c, 0, 81, 85
2, 187108, Note_off_c, 0, 81, 64
2, 187192, Note_on_c, 0, 77, 100
2, 187249, Note_on_c, 0, 79, 87
2, 187255, Note_off_c, 0, 77, 64
2, 187299, Note_off_c, 0, 79, 64
2, 187312, Note_on_c, 0, 77, 78
2, 187367, Note_off_c, 0, 77, 64
2, 187371, Note_on_c, 0, 76, 70
2, 187419, Note_off_c, 0, 76, 64
2, 187435, Note_on_c, 0, 74, 66
2, 187489, Note_off_c, 0, 74, 64
2, 187494, Note_on_c, 0, 77, 66
2, 187551, Note_off_c, 0, 77, 64
2, 187553, Note_on_c, 0, 76, 53
2, 187600, Note_off_c, 0, 76, 64
2, 187610, Note_on_c, 0, 74, 60
2, 187651, Note_off_c, 0, 74, 64
2, 187674, Note_on_c, 0, 79, 98
2, 187730, Note_on_c, 0, 77, 85
2, 187734, Note_off_c, 0, 79, 64
2, 187781, Note_off_c, 0, 77, 64
2, 187794, Note_on_c, 0, 76, 66
2, 187851, Note_on_c, 0, 74, 76
2, 187856, Note_off_c, 0, 76, 64
2, 187909, Note_off_c, 0, 74, 64
2, 187911, Note_on_c, 0, 72, 62
2, 187958, Note_off_c, 0, 72, 64
2, 187972, Note_on_c, 0, 71, 59
2, 188017, Note_off_c, 0, 71, 64
2, 188027, Note_on_c, 0, 72, 66
2, 188069, Note_off_c, 0, 72, 64
2, 188084, Note_on_c, 0, 69, 56
2, 188121, Note_off_c, 0, 69, 64
2, 188153, Note_on_c, 0, 74, 85
2, 188258, Note_off_c, 0, 74, 64
2, 188278, Note_on_c, 0, 76, 70
2, 188327, Note_off_c, 0, 76, 64
2, 188331, Note_on_c, 0, 78, 66
2, 188371, Note_off_c, 0, 78, 64
2, 188396, Note_on_c, 0, 79, 87
2, 188490, Note_off_c, 0, 79, 64
2, 188512, Note_on_c, 0, 81, 66
2, 188552, Note_off_c, 0, 81, 64
2, 188567, Note_on_c, 0, 83, 87
2, 188607, Note_off_c, 0, 83, 64
2, 188631, Note_on_c, 0, 84, 91
2, 188737, Note_off_c, 0, 84, 64
2, 188793, Note_on_c, 0, 83, 82
2, 188819, Note_off_c, 0, 83, 64
2, 188854, Note_on_c, 0, 83, 87
2, 188879, Note_off_c, 0, 83, 64
2, 188880, Note_on_c, 0, 81, 87
2, 188906, Note_on_c, 0, 83, 76
2, 188908, Note_off_c, 0, 81, 64
2, 188933, Note_on_c, 0, 81, 80
2, 188944, Note_off_c, 0, 83, 64
2, 189008, Note_off_c, 0, 81, 64
2, 189042, Note_on_c, 0, 79, 70
2, 189080, Note_off_c, 0, 79, 64
2, 189111, Note_on_c, 0, 79, 95
2, 189216, Note_off_c, 0, 79, 64
2, 189233, Note_on_c, 0, 77, 72
2, 189289, Note_on_c, 0, 76, 68
2, 189290, Note_off_c, 0, 77, 64
2, 189341, Note_off_c, 0, 76, 64
2, 189351, Note_on_c, 0, 74, 80
2, 189405, Note_on_c, 0, 76, 66
2, 189408, Note_off_c, 0, 74, 64
2, 189446, Note_off_c, 0, 76, 64
2, 189468, Note_on_c, 0, 77, 72
2, 189511, Note_off_c, 0, 77, 64
2, 189517, Note_on_c, 0, 74, 66
2, 189558, Note_off_c, 0, 74, 64
2, 189587, Note_on_c, 0, 76, 89
2, 189632, Note_off_c, 0, 76, 64
2, 189712, Note_on_c, 0, 72, 82
2, 189751, Note_off_c, 0, 72, 64
2, 189830, Note_on_c, 0, 84, 89
2, 189961, Note_off_c, 0, 84, 64
2, 190009, Note_on_c, 0, 84, 95
2, 190041, Note_off_c, 0, 84, 64
2, 190070, Note_on_c, 0, 84, 95
2, 190120, Note_off_c, 0, 84, 64
2, 190131, Note_on_c, 0, 82, 72
2, 190173, Note_off_c, 0, 82, 64
2, 190190, Note_on_c, 0, 84, 89
2, 190233, Note_off_c, 0, 84, 64
2, 190242, Note_on_c, 0, 81, 66
2, 190279, Note_off_c, 0, 81, 64
2, 190308, Note_on_c, 0, 82, 87
2, 190436, Note_off_c, 0, 82, 64
2, 190491, Note_on_c, 0, 82, 68
2, 190520, Note_off_c, 0, 82, 64
2, 190549, Note_on_c, 0, 82, 82
2, 190594, Note_off_c, 0, 82, 64
2, 190675, Note_on_c, 0, 76, 82
2, 190716, Note_off_c, 0, 76, 64
2, 190798, Note_on_c, 0, 81, 85
2, 190912, Note_off_c, 0, 81, 64
2, 190974, Note_on_c, 0, 81, 85
2, 191008, Note_off_c, 0, 81, 64
2, 191033, Note_on_c, 0, 81, 91
2, 191085, Note_off_c, 0, 81, 64
2, 191093, Note_on_c, 0, 79, 68
2, 191131, Note_off_c, 0, 79, 64
2, 191148, Note_on_c, 0, 81, 80
2, 191197, Note_off_c, 0, 81, 64
2, 191207, Note_on_c, 0, 77, 66
2, 191241, Note_off_c, 0, 77, 64
2, 191270, Note_on_c, 0, 79, 70
2, 191383, Note_off_c, 0, 79, 64
2, 191447, Note_on_c, 0, 79, 76
2, 191474, Note_off_c, 0, 79, 64
2, 191500, Note_on_c, 0, 79, 89
2, 191544, Note_off_c, 0, 79, 64
2, 191626, Note_on_c, 0, 72, 78
2, 191669, Note_off_c, 0, 72, 64
2, 191744, Note_on_c, 0, 77, 82
2, 191879, Note_off_c, 0, 77, 64
2, 191923, Note_on_c, 0, 77, 70
2, 191956, Note_off_c, 0, 77, 64
2, 191988, Note_on_c, 0, 77, 85
2, 192040, Note_off_c, 0, 77, 64
2, 192046, Note_on_c, 0, 81, 80
2, 192087, Note_off_c, 0, 81, 64
2, 192105, Note_on_c, 0, 79, 78
2, 192152, Note_off_c, 0, 79, 64
2, 192162, Note_on_c, 0, 77, 66
2, 192209, Note_off_c, 0, 77, 64
2, 192219, Note_on_c, 0, 76, 63
2, 192278, Note_on_c, 0, 74, 63
2, 192279, Note_off_c, 0, 76, 64
2, 192327, Note_off_c, 0, 74, 64
2, 192340, Note_on_c, 0, 72, 56
2, 192389, Note_off_c, 0, 72, 64
2, 192396, Note_on_c, 0, 71, 64
2, 192438, Note_off_c, 0, 71, 64
2, 192465, Note_on_c, 0, 72, 63
2, 192520, Note_off_c, 0, 72, 64
2, 192532, Note_on_c, 0, 76, 68
2, 192573, Note_off_c, 0, 76, 64
2, 192590, Note_on_c, 0, 81, 85
2, 192648, Note_on_c, 0, 79, 74
2, 192651, Note_off_c, 0, 81, 64
2, 192692, Note_off_c, 0, 79, 64
2, 192711, Note_on_c, 0, 77, 82
2, 192766, Note_off_c, 0, 77, 64
2, 192771, Note_on_c, 0, 76, 64
2, 192830, Note_off_c, 0, 76, 64
2, 192830, Note_on_c, 0, 74, 66
2, 192882, Note_on_c, 0, 72, 60
2, 192887, Note_off_c, 0, 74, 64
2, 192920, Note_off_c, 0, 72, 64
2, 192948, Note_on_c, 0, 71, 68
2, 193008, Note_on_c, 0, 69, 60
2, 193016, Note_off_c, 0, 71, 64
2, 193059, Note_off_c, 0, 69, 64
2, 193071, Note_on_c, 0, 67, 57
2, 193120, Note_off_c, 0, 67, 64
2, 193132, Note_on_c, 0, 69, 61
2, 193171, Note_off_c, 0, 69, 64
2, 193193, Note_on_c, 0, 71, 85
2, 193244, Note_off_c, 0, 71, 64
2, 193247, Note_on_c, 0, 69, 64
2, 193292, Note_off_c, 0, 69, 64
2, 193306, Note_on_c, 0, 71, 80
2, 193349, Note_off_c, 0, 71, 64
2, 193362, Note_on_c, 0, 67, 63
2, 193403, Note_off_c, 0, 67, 64
2, 193425, Note_on_c, 0, 72, 85
2, 193544, Note_off_c, 0, 72, 64
2, 193592, Note_on_c, 0, 74, 74
2, 193620, Note_off_c, 0, 74, 64
2, 193658, Note_on_c, 0, 72, 95
2, 193686, Note_on_c, 0, 71, 66
2, 193688, Note_off_c, 0, 72, 64
2, 193709, Note_on_c, 0, 72, 66
2, 193714, Note_off_c, 0, 71, 64
2, 193735, Note_on_c, 0, 71, 74
2, 193742, Note_off_c, 0, 72, 64
2, 193787, Note_off_c, 0, 71, 64
2, 193837, Note_on_c, 0, 72, 78
2, 193870, Note_off_c, 0, 72, 64
2, 193905, Note_on_c, 0, 72, 95
2, 193964, Note_on_c, 0, 77, 76
2, 193973, Note_off_c, 0, 72, 64
2, 194009, Note_off_c, 0, 77, 64
2, 194023, Note_on_c, 0, 76, 82
2, 194068, Note_off_c, 0, 76, 64
2, 194082, Note_on_c, 0, 74, 68
2, 194139, Note_off_c, 0, 74, 64
2, 194142, Note_on_c, 0, 72, 68
2, 194195, Note_off_c, 0, 72, 64
2, 194203, Note_on_c, 0, 70, 54
2, 194245, Note_off_c, 0, 70, 64
2, 194265, Note_on_c, 0, 72, 66
2, 194315, Note_off_c, 0, 72, 64
2, 194320, Note_on_c, 0, 69, 56
2, 194363, Note_off_c, 0, 69, 64
2, 194386, Note_on_c, 0, 70, 59
2, 194544, Note_off_c, 0, 70, 64
2, 204773, Note_on_c, 0, 72, 82
2, 204809, Note_off_c, 0, 72, 64
2, 204829, Note_on_c, 0, 70, 82
2, 204864, Note_off_c, 0, 70, 64
2, 204888, Note_on_c, 0, 69, 87
2, 204923, Note_off_c, 0, 69, 64
2, 204951, Note_on_c, 0, 67, 85
2, 205327, Note_off_c, 0, 67, 64
2, 205373, Note_on_c, 0, 69, 68
2, 205412, Note_off_c, 0, 69, 64
2, 205436, Note_on_c, 0, 70, 78
2, 205517, Note_off_c, 0, 70, 64
2, 205605, Note_on_c, 0, 70, 70
2, 205649, Note_off_c, 0, 70, 64
2, 205666, Note_on_c, 0, 72, 85
2, 205743, Note_off_c, 0, 72, 64
2, 205845, Note_on_c, 0, 74, 89
2, 205882, Note_off_c, 0, 74, 64
2, 205908, Note_on_c, 0, 67, 85
2, 205996, Note_off_c, 0, 67, 64
2, 206089, Note_on_c, 0, 67, 78
2, 206129, Note_off_c, 0, 67, 64
2, 206153, Note_on_c, 0, 69, 85
2, 206227, Note_off_c, 0, 69, 64
2, 206322, Note_on_c, 0, 70, 82
2, 206353, Note_off_c, 0, 70, 64
2, 206390, Note_on_c, 0, 70, 91
2, 206517, Note_on_c, 0, 69, 76
2, 206523, Note_off_c, 0, 70, 64
2, 206654, Note_off_c, 0, 69, 64
2, 206690, Note_on_c, 0, 69, 87
2, 206732, Note_off_c, 0, 69, 64
2, 206751, Note_on_c, 0, 71, 85
2, 206791, Note_off_c, 0, 71, 64
2, 206805, Note_on_c, 0, 73, 80
2, 206845, Note_off_c, 0, 73, 64
2, 206867, Note_on_c, 0, 74, 74
2, 206912, Note_off_c, 0, 74, 64
2, 206932, Note_on_c, 0, 73, 85
2, 206971, Note_off_c, 0, 73, 64
2, 206991, Note_on_c, 0, 74, 85
2, 207038, Note_off_c, 0, 74, 64
2, 207047, Note_on_c, 0, 76, 87
2, 207089, Note_off_c, 0, 76, 64
2, 207110, Note_on_c, 0, 77, 87
2, 207153, Note_off_c, 0, 77, 64
2, 207170, Note_on_c, 0, 76, 91
2, 207212, Note_off_c, 0, 76, 64
2, 207231, Note_on_c, 0, 77, 93
2, 207264, Note_off_c, 0, 77, 64
2, 207284, Note_on_c, 0, 74, 87
2, 207325, Note_off_c, 0, 74, 64
2, 207354, Note_on_c, 0, 79, 87
2, 207701, Note_off_c, 0, 79, 64
2, 207775, Note_on_c, 0, 79, 91
2, 207807, Note_off_c, 0, 79, 64
2, 207834, Note_on_c, 0, 79, 82
2, 207962, Note_off_c, 0, 79, 64
2, 208014, Note_on_c, 0, 81, 89
2, 208036, Note_on_c, 0, 82, 68
2, 208039, Note_off_c, 0, 81, 64
2, 208059, Note_off_c, 0, 82, 64
2, 208072, Note_on_c, 0, 81, 91
2, 208173, Note_off_c, 0, 81, 64
2, 208247, Note_on_c, 0, 79, 66
2, 208269, Note_on_c, 0, 77, 63
2, 208276, Note_off_c, 0, 79, 64
2, 208292, Note_on_c, 0, 76, 64
2, 208293, Note_off_c, 0, 77, 64
2, 208313, Note_off_c, 0, 76, 64
2, 208323, Note_on_c, 0, 77, 80
2, 208414, Note_off_c, 0, 77, 64
2, 208488, Note_on_c, 0, 74, 70
2, 208524, Note_off_c, 0, 74, 64
2, 208550, Note_on_c, 0, 77, 93
2, 208647, Note_off_c, 0, 77, 64
2, 208723, Note_on_c, 0, 81, 82
2, 208755, Note_off_c, 0, 81, 64
2, 208788, Note_on_c, 0, 79, 87
2, 208849, Note_on_c, 0, 78, 60
2, 208855, Note_off_c, 0, 79, 64
2, 208884, Note_off_c, 0, 78, 64
2, 208884, Note_on_c, 0, 79, 70
2, 208913, Note_on_c, 0, 78, 63
2, 208915, Note_off_c, 0, 79, 64
2, 208935, Note_off_c, 0, 78, 64
2, 208937, Note_on_c, 0, 79, 64
2, 208959, Note_on_c, 0, 78, 80
2, 208964, Note_off_c, 0, 79, 64
2, 208979, Note_off_c, 0, 78, 64
2, 208984, Note_on_c, 0, 79, 61
2, 209001, Note_on_c, 0, 78, 66
2, 209007, Note_off_c, 0, 79, 64
2, 209020, Note_off_c, 0, 78, 64
2, 209024, Note_on_c, 0, 79, 61
2, 209041, Note_on_c, 0, 78, 76
2, 209046, Note_off_c, 0, 79, 64
2, 209059, Note_off_c, 0, 78, 64
2, 209063, Note_on_c, 0, 79, 62
2, 209080, Note_on_c, 0, 78, 80
2, 209084, Note_off_c, 0, 79, 64
2, 209101, Note_off_c, 0, 78, 64
2, 209104, Note_on_c, 0, 79, 68
2, 209122, Note_on_c, 0, 78, 76
2, 209127, Note_off_c, 0, 79, 64
2, 209142, Note_off_c, 0, 78, 64
2, 209144, Note_on_c, 0, 79, 68
2, 209162, Note_on_c, 0, 78, 80
2, 209166, Note_off_c, 0, 79, 64
2, 209181, Note_off_c, 0, 78, 64
2, 209183, Note_on_c, 0, 79, 74
2, 209200, Note_on_c, 0, 78, 66
2, 209210, Note_off_c, 0, 79, 64
2, 209223, Note_on_c, 0, 76, 72
2, 209228, Note_off_c, 0, 78, 64
2, 209252, Note_on_c, 0, 78, 87
2, 209263, Note_off_c, 0, 76, 64
2, 209278, Note_off_c, 0, 78, 64
2, 209286, Note_on_c, 0, 79, 76
2, 209769, Note_off_c, 0, 79, 64
2, 209811, Note_on_c, 0, 81, 82
2, 209853, Note_off_c, 0, 81, 64
2, 209871, Note_on_c, 0, 79, 87
2, 209911, Note_off_c, 0, 79, 64
2, 209928, Note_on_c, 0, 77, 87
2, 209969, Note_off_c, 0, 77, 64
2, 209993, Note_on_c, 0, 76, 82
2, 210031, Note_off_c, 0, 76, 64
2, 210049, Note_on_c, 0, 74, 80
2, 210090, Note_off_c, 0, 74, 64
2, 210106, Note_on_c, 0, 76, 80
2, 210143, Note_off_c, 0, 76, 64
2, 210163, Note_on_c, 0, 72, 82
2, 210211, Note_off_c, 0, 72, 64
2, 210230, Note_on_c, 0, 81, 82
2, 210726, Note_off_c, 0, 81, 64
2, 210771, Note_on_c, 0, 79, 85
2, 210812, Note_off_c, 0, 79, 64
2, 210828, Note_on_c, 0, 81, 80
2, 210866, Note_off_c, 0, 81, 64
2, 210882, Note_on_c, 0, 83, 82
2, 210918, Note_off_c, 0, 83, 64
2, 210944, Note_on_c, 0, 84, 76
2, 210980, Note_off_c, 0, 84, 64
2, 211000, Note_on_c, 0, 81, 70
2, 211035, Note_off_c, 0, 81, 64
2, 211059, Note_on_c, 0, 83, 68
2, 211099, Note_off_c, 0, 83, 64
2, 211122, Note_on_c, 0, 84, 85
2, 211156, Note_off_c, 0, 84, 64
2, 211183, Note_on_c, 0, 77, 80
2, 211226, Note_off_c, 0, 77, 64
2, 211242, Note_on_c, 0, 76, 85
2, 211283, Note_off_c, 0, 76, 64
2, 211302, Note_on_c, 0, 77, 78
2, 211350, Note_off_c, 0, 77, 64
2, 211361, Note_on_c, 0, 79, 85
2, 211402, Note_off_c, 0, 79, 64
2, 211419, Note_on_c, 0, 81, 82
2, 211460, Note_off_c, 0, 81, 64
2, 211479, Note_on_c, 0, 77, 78
2, 211521, Note_off_c, 0, 77, 64
2, 211535, Note_on_c, 0, 79, 87
2, 211579, Note_off_c, 0, 79, 64
2, 211597, Note_on_c, 0, 81, 82
2, 211630, Note_off_c, 0, 81, 64
2, 211674, Note_on_c, 0, 72, 87
2, 211802, Note_on_c, 0, 71, 98
2, 211804, Note_off_c, 0, 72, 64
2, 212042, Note_off_c, 0, 71, 64
2, 212081, Note_on_c, 0, 72, 89
2, 212124, Note_off_c, 0, 72, 64
2, 212147, Note_on_c, 0, 74, 87
2, 212194, Note_off_c, 0, 74, 64
2, 212206, Note_on_c, 0, 71, 76
2, 212247, Note_off_c, 0, 71, 64
2, 212267, Note_on_c, 0, 67, 78
2, 212316, Note_off_c, 0, 67, 64
2, 212330, Note_on_c, 0, 69, 82
2, 212369, Note_off_c, 0, 69, 64
2, 212389, Note_on_c, 0, 71, 78
2, 212430, Note_off_c, 0, 71, 64
2, 212448, Note_on_c, 0, 72, 78
2, 212484, Note_off_c, 0, 72, 64
2, 212504, Note_on_c, 0, 74, 85
2, 212546, Note_off_c, 0, 74, 64
2, 212562, Note_on_c, 0, 76, 80
2, 212612, Note_off_c, 0, 76, 64
2, 212636, Note_on_c, 0, 77, 95
2, 212994, Note_off_c, 0, 77, 64
2, 213041, Note_on_c, 0, 77, 85
2, 213076, Note_off_c, 0, 77, 64
2, 213111, Note_on_c, 0, 79, 82
2, 213130, Note_on_c, 0, 77, 89
2, 213134, Note_off_c, 0, 79, 64
2, 213152, Note_off_c, 0, 77, 64
2, 213152, Note_on_c, 0, 79, 82
2, 213170, Note_on_c, 0, 77, 87
2, 213184, Note_off_c, 0, 79, 64
2, 213236, Note_off_c, 0, 77, 64
2, 213288, Note_on_c, 0, 76, 66
2, 213311, Note_on_c, 0, 74, 76
2, 213320, Note_off_c, 0, 76, 64
2, 213342, Note_off_c, 0, 74, 64
2, 213351, Note_on_c, 0, 76, 76
2, 213448, Note_off_c, 0, 76, 64
2, 213525, Note_on_c, 0, 77, 74
2, 213546, Note_on_c, 0, 79, 82
2, 213551, Note_off_c, 0, 77, 64
2, 213577, Note_off_c, 0, 79, 64
2, 213588, Note_on_c, 0, 70, 76
2, 213955, Note_off_c, 0, 70, 64
2, 214006, Note_on_c, 0, 70, 89
2, 214041, Note_off_c, 0, 70, 64
2, 214070, Note_on_c, 0, 72, 82
2, 214090, Note_on_c, 0, 70, 85
2, 214094, Note_off_c, 0, 72, 64
2, 214112, Note_off_c, 0, 70, 64
2, 214112, Note_on_c, 0, 72, 82
2, 214131, Note_on_c, 0, 70, 82
2, 214154, Note_off_c, 0, 72, 64
2, 214184, Note_off_c, 0, 70, 64
2, 214250, Note_on_c, 0, 69, 64
2, 214270, Note_on_c, 0, 67, 76
2, 214278, Note_off_c, 0, 69, 64
2, 214299, Note_off_c, 0, 67, 64
2, 214306, Note_on_c, 0, 69, 82
2, 214392, Note_off_c, 0, 69, 64
2, 214494, Note_on_c, 0, 71, 82
2, 214533, Note_off_c, 0, 71, 64
2, 214554, Note_on_c, 0, 72, 87
2, 214923, Note_off_c, 0, 72, 64
2, 214973, Note_on_c, 0, 72, 85
2, 215006, Note_off_c, 0, 72, 64
2, 215035, Note_on_c, 0, 74, 93
2, 215055, Note_on_c, 0, 72, 89
2, 215059, Note_off_c, 0, 74, 64
2, 215076, Note_off_c, 0, 72, 64
2, 215076, Note_on_c, 0, 74, 85
2, 215096, Note_on_c, 0, 72, 80
2, 215107, Note_off_c, 0, 74, 64
2, 215156, Note_off_c, 0, 72, 64
2, 215217, Note_on_c, 0, 71, 68
2, 215244, Note_on_c, 0, 69, 80
2, 215256, Note_off_c, 0, 71, 64
2, 215268, Note_off_c, 0, 69, 64
2, 215276, Note_on_c, 0, 79, 93
2, 215299, Note_on_c, 0, 77, 72
2, 215302, Note_off_c, 0, 79, 64
2, 215315, Note_on_c, 0, 79, 85
2, 215320, Note_off_c, 0, 77, 64
2, 215337, Note_on_c, 0, 77, 80
2, 215348, Note_off_c, 0, 79, 64
2, 215398, Note_off_c, 0, 77, 64
2, 215452, Note_on_c, 0, 76, 72
2, 215477, Note_on_c, 0, 74, 85
2, 215493, Note_off_c, 0, 76, 64
2, 215502, Note_off_c, 0, 74, 64
2, 215510, Note_on_c, 0, 84, 89
2, 215536, Note_on_c, 0, 83, 52
2, 215539, Note_off_c, 0, 84, 64
2, 215552, Note_on_c, 0, 84, 82
2, 215557, Note_off_c, 0, 83, 64
2, 215575, Note_on_c, 0, 83, 80
2, 215585, Note_off_c, 0, 84, 64
2, 215630, Note_off_c, 0, 83, 64
2, 215699, Note_on_c, 0, 81, 82
2, 215724, Note_on_c, 0, 79, 82
2, 215734, Note_off_c, 0, 81, 64
2, 215750, Note_off_c, 0, 79, 64
2, 215760, Note_on_c, 0, 86, 98
2, 215829, Note_off_c, 0, 86, 64
2, 215930, Note_on_c, 0, 77, 80
2, 215960, Note_off_c, 0, 77, 64
2, 215993, Note_on_c, 0, 77, 89
2, 216268, Note_off_c, 0, 77, 64
2, 216295, Note_on_c, 0, 81, 85
2, 216334, Note_off_c, 0, 81, 64
2, 216355, Note_on_c, 0, 79, 89
2, 216390, Note_off_c, 0, 79, 64
2, 216417, Note_on_c, 0, 77, 87
2, 216449, Note_off_c, 0, 77, 64
2, 216476, Note_on_c, 0, 76, 91
2, 216518, Note_off_c, 0, 76, 64
2, 216533, Note_on_c, 0, 72, 78
2, 216575, Note_off_c, 0, 72, 64
2, 216592, Note_on_c, 0, 74, 70
2, 216634, Note_off_c, 0, 74, 64
2, 216651, Note_on_c, 0, 76, 70
2, 216691, Note_off_c, 0, 76, 64
2, 216710, Note_on_c, 0, 77, 82
2, 216757, Note_off_c, 0, 77, 64
2, 216770, Note_on_c, 0, 79, 78
2, 216809, Note_off_c, 0, 79, 64
2, 216827, Note_on_c, 0, 81, 78
2, 216870, Note_off_c, 0, 81, 64
2, 216881, Note_on_c, 0, 82, 68
2, 216927, Note_off_c, 0, 82, 64
2, 216945, Note_on_c, 0, 81, 85
2, 216993, Note_off_c, 0, 81, 64
2, 217010, Note_on_c, 0, 79, 91
2, 217067, Note_off_c, 0, 79, 64
2, 217071, Note_on_c, 0, 77, 80
2, 217114, Note_off_c, 0, 77, 64
2, 217133, Note_on_c, 0, 76, 78
2, 217172, Note_off_c, 0, 76, 64
2, 217190, Note_on_c, 0, 77, 91
2, 217240, Note_off_c, 0, 77, 64
2, 217249, Note_on_c, 0, 74, 85
2, 217290, Note_off_c, 0, 74, 64
2, 217309, Note_on_c, 0, 76, 80
2, 217350, Note_off_c, 0, 76, 64
2, 217370, Note_on_c, 0, 77, 87
2, 217401, Note_off_c, 0, 77, 64
2, 217437, Note_on_c, 0, 67, 85
2, 217724, Note_off_c, 0, 67, 64
2, 217799, Note_on_c, 0, 69, 72
2, 217827, Note_on_c, 0, 71, 76
2, 217840, Note_off_c, 0, 69, 64
2, 217854, Note_off_c, 0, 71, 64
2, 217854, Note_on_c, 0, 72, 80
2, 217873, Note_on_c, 0, 74, 82
2, 217886, Note_off_c, 0, 72, 64
2, 217892, Note_on_c, 0, 76, 98
2, 217902, Note_off_c, 0, 74, 64
2, 217912, Note_on_c, 0, 77, 82
2, 217922, Note_off_c, 0, 76, 64
2, 218015, Note_off_c, 0, 77, 64
2, 218015, End_track
3, 0, Start_track
3, 0, Title_t, "Violin2"
3, 0, Program_c, 1, 40
3, 0, Control_c, 1, 7, 100
3, 951, Note_on_c, 1, 72, 82
3, 1225, Note_off_c, 1, 72, 64
3, 1243, Note_on_c, 1, 71, 70
3, 1286, Note_off_c, 1, 71, 64
3, 1300, Note_on_c, 1, 72, 78
3, 1338, Note_off_c, 1, 72, 64
3, 1356, Note_on_c, 1, 74, 82
3, 1401, Note_off_c, 1, 74, 64
3, 1419, Note_on_c, 1, 76, 63
3, 1505, Note_off_c, 1, 76, 64
3, 1609, Note_on_c, 1, 74, 82
3, 1644, Note_off_c, 1, 74, 64
3, 1670, Note_on_c, 1, 76, 85
3, 1743, Note_off_c, 1, 76, 64
3, 1856, Note_on_c, 1, 72, 80
3, 1884, Note_off_c, 1, 72, 64
3, 1915, Note_on_c, 1, 69, 68
3, 2276, Note_off_c, 1, 69, 64
3, 2321, Note_on_c, 1, 69, 80
3, 2364, Note_off_c, 1, 69, 64
3, 2390, Note_on_c, 1, 74, 85
3, 2471, Note_off_c, 1, 74, 64
3, 2571, Note_on_c, 1, 72, 78
3, 2601, Note_off_c, 1, 72, 64
3, 2635, Note_on_c, 1, 74, 85
3, 2708, Note_off_c, 1, 74, 64
3, 2809, Note_on_c, 1, 71, 78
3, 2840, Note_off_c, 1, 71, 64
3, 2875, Note_on_c, 1, 64, 68
3, 3070, Note_off_c, 1, 64, 64
3, 3121, Note_on_c, 1, 69, 78
3, 3481, Note_off_c, 1, 69, 64
3, 3532, Note_on_c, 1, 69, 80
3, 3574, Note_off_c, 1, 69, 64
3, 3597, Note_on_c, 1, 71, 87
3, 3684, Note_off_c, 1, 71, 64
3, 3774, Note_on_c, 1, 72, 72
3, 3808, Note_off_c, 1, 72, 64
3, 3834, Note_on_c, 1, 71, 70
3, 3933, Note_off_c, 1, 71, 64
3, 4000, Note_on_c, 1, 72, 78
3, 4037, Note_off_c, 1, 72, 64
3, 4065, Note_on_c, 1, 74, 82
3, 4156, Note_off_c, 1, 74, 64
3, 4245, Note_on_c, 1, 71, 82
3, 4280, Note_off_c, 1, 71, 64
3, 4317, Note_on_c, 1, 74, 78
3, 4378, Note_on_c, 1, 72, 58
3, 4386, Note_off_c, 1, 74, 64
3, 4409, Note_off_c, 1, 72, 64
3, 4410, Note_on_c, 1, 74, 58
3, 4434, Note_on_c, 1, 72, 62
3, 4436, Note_off_c, 1, 74, 64
3, 4453, Note_off_c, 1, 72, 64
3, 4455, Note_on_c, 1, 74, 62
3, 4475, Note_on_c, 1, 72, 60
3, 4477, Note_off_c, 1, 74, 64
3, 4492, Note_off_c, 1, 72, 64
3, 4492, Note_on_c, 1, 74, 66
3, 4510, Note_off_c, 1, 74, 64
3, 4510, Note_on_c, 1, 72, 62
3, 4523, Note_off_c, 1, 72, 64
3, 4524, Note_on_c, 1, 74, 76
3, 4542, Note_on_c, 1, 72, 70
3, 4548, Note_off_c, 1, 74, 64
3, 4683, Note_off_c, 1, 72, 64
3, 4728, Note_on_c, 1, 74, 85
3, 4758, Note_off_c, 1, 74, 64
3, 4796, Note_on_c, 1, 71, 62
3, 5418, Note_off_c, 1, 71, 64
3, 5451, Note_on_c, 1, 72, 85
3, 5483, Note_off_c, 1, 72, 64
3, 5514, Note_on_c, 1, 74, 80
3, 5603, Note_off_c, 1, 74, 64
3, 5692, Note_on_c, 1, 67, 68
3, 5734, Note_off_c, 1, 67, 64
3, 5764, Note_on_c, 1, 76, 89
3, 6368, Note_off_c, 1, 76, 64
3, 6413, Note_on_c, 1, 74, 85
3, 6463, Note_off_c, 1, 74, 64
3, 6481, Note_on_c, 1, 76, 87
3, 6560, Note_off_c, 1, 76, 64
3, 6656, Note_on_c, 1, 78, 74
3, 6696, Note_off_c, 1, 78, 64
3, 6725, Note_on_c, 1, 71, 68
3, 7328, Note_off_c, 1, 71, 64
3, 7373, Note_on_c, 1, 71, 80
3, 7408, Note_off_c, 1, 71, 64
3, 7438, Note_on_c, 1, 76, 87
3, 7520, Note_off_c, 1, 76, 64
3, 7616, Note_on_c, 1, 74, 76
3, 7653, Note_off_c, 1, 74, 64
3, 7687, Note_on_c, 1, 76, 76
3, 8270, Note_off_c, 1, 76, 64
3, 8322, Note_on_c, 1, 74, 70
3, 8362, Note_off_c, 1, 74, 64
3, 8387, Note_on_c, 1, 76, 78
3, 8479, Note_off_c, 1, 76, 64
3, 8567, Note_on_c, 1, 73, 63
3, 8603, Note_off_c, 1, 73, 64
3, 8635, Note_on_c, 1, 74, 76
3, 8985, Note_off_c, 1, 74, 64
3, 9054, Note_on_c, 1, 66, 68
3, 9091, Note_off_c, 1, 66, 64
3, 9117, Note_on_c, 1, 67, 72
3, 9236, Note_off_c, 1, 67, 64
3, 9274, Note_on_c, 1, 69, 76
3, 9299, Note_off_c, 1, 69, 64
3, 9299, Note_on_c, 1, 67, 64
3, 9328, Note_on_c, 1, 69, 60
3, 9336, Note_off_c, 1, 67, 64
3, 9355, Note_on_c, 1, 71, 59
3, 9359, Note_off_c, 1, 69, 64
3, 9384, Note_on_c, 1, 69, 62
3, 9387, Note_off_c, 1, 71, 64
3, 9402, Note_off_c, 1, 69, 64
3, 9403, Note_on_c, 1, 71, 72
3, 9422, Note_on_c, 1, 69, 63
3, 9425, Note_off_c, 1, 71, 64
3, 9440, Note_off_c, 1, 69, 64
3, 9441, Note_on_c, 1, 71, 66
3, 9457, Note_on_c, 1, 69, 68
3, 9459, Note_off_c, 1, 71, 64
3, 9472, Note_on_c, 1, 71, 68
3, 9473, Note_off_c, 1, 69, 64
3, 9492, Note_on_c, 1, 69, 68
3, 9498, Note_off_c, 1, 71, 64
3, 9518, Note_on_c, 1, 67, 68
3, 9520, Note_off_c, 1, 69, 64
3, 9544, Note_on_c, 1, 69, 68
3, 9557, Note_off_c, 1, 67, 64
3, 9578, Note_off_c, 1, 69, 64
3, 9585, Note_on_c, 1, 71, 80
3, 9943, Note_off_c, 1, 71, 64
3, 10004, Note_on_c, 1, 74, 93
3, 10040, Note_off_c, 1, 74, 64
3, 10070, Note_on_c, 1, 62, 82
3, 10437, Note_off_c, 1, 62, 64
3, 10495, Note_on_c, 1, 62, 87
3, 10534, Note_off_c, 1, 62, 64
3, 10560, Note_on_c, 1, 62, 87
3, 10640, Note_off_c, 1, 62, 64
3, 10729, Note_on_c, 1, 55, 70
3, 10770, Note_off_c, 1, 55, 64
3, 10799, Note_on_c, 1, 60, 87
3, 10879, Note_off_c, 1, 60, 64
3, 10972, Note_on_c, 1, 62, 76
3, 11015, Note_off_c, 1, 62, 64
3, 11038, Note_on_c, 1, 64, 80
3, 11126, Note_off_c, 1, 64, 64
3, 11214, Note_on_c, 1, 62, 82
3, 11255, Note_off_c, 1, 62, 64
3, 11283, Note_on_c, 1, 60, 80
3, 11359, Note_off_c, 1, 60, 64
3, 11460, Note_on_c, 1, 59, 82
3, 11497, Note_off_c, 1, 59, 64
3, 11526, Note_on_c, 1, 60, 82
3, 11696, Note_off_c, 1, 60, 64
3, 11756, Note_on_c, 1, 64, 80
3, 11922, Note_off_c, 1, 64, 64
3, 11989, Note_on_c, 1, 69, 87
3, 12354, Note_off_c, 1, 69, 64
3, 12401, Note_on_c, 1, 66, 59
3, 12440, Note_off_c, 1, 66, 64
3, 12466, Note_on_c, 1, 67, 80
3, 12576, Note_off_c, 1, 67, 64
3, 12643, Note_on_c, 1, 66, 61
3, 12685, Note_off_c, 1, 66, 64
3, 12708, Note_on_c, 1, 67, 85
3, 12807, Note_off_c, 1, 67, 64
3, 12877, Note_on_c, 1, 69, 66
3, 12919, Note_off_c, 1, 69, 64
3, 12951, Note_on_c, 1, 71, 82
3, 13046, Note_off_c, 1, 71, 64
3, 13127, Note_on_c, 1, 72, 78
3, 13168, Note_off_c, 1, 72, 64
3, 13193, Note_on_c, 1, 71, 80
3, 13282, Note_off_c, 1, 71, 64
3, 13368, Note_on_c, 1, 69, 70
3, 13407, Note_off_c, 1, 69, 64
3, 13433, Note_on_c, 1, 67, 72
3, 13539, Note_off_c, 1, 67, 64
3, 13611, Note_on_c, 1, 67, 68
3, 13650, Note_off_c, 1, 67, 64
3, 13676, Note_on_c, 1, 69, 89
3, 13756, Note_off_c, 1, 69, 64
3, 13841, Note_on_c, 1, 71, 80
3, 13876, Note_off_c, 1, 71, 64
3, 13907, Note_on_c, 1, 72, 78
3, 14005, Note_off_c, 1, 72, 64
3, 14082, Note_on_c, 1, 74, 78
3, 14127, Note_off_c, 1, 74, 64
3, 14152, Note_on_c, 1, 72, 82
3, 14239, Note_off_c, 1, 72, 64
3, 14324, Note_on_c, 1, 71, 72
3, 14359, Note_off_c, 1, 71, 64
3, 14395, Note_on_c, 1, 69, 80
3, 14482, Note_off_c, 1, 69, 64
3, 14556, Note_on_c, 1, 62, 64
3, 14595, Note_off_c, 1, 62, 64
3, 14625, Note_on_c, 1, 67, 85
3, 14729, Note_off_c, 1, 67, 64
3, 14808, Note_on_c, 1, 69, 76
3, 14842, Note_off_c, 1, 69, 64
3, 14873, Note_on_c, 1, 67, 89
3, 14948, Note_on_c, 1, 66, 57
3, 14954, Note_off_c, 1, 67, 64
3, 14980, Note_on_c, 1, 67, 70
3, 14981, Note_off_c, 1, 66, 64
3, 15005, Note_on_c, 1, 66, 64
3, 15008, Note_off_c, 1, 67, 64
3, 15022, Note_off_c, 1, 66, 64
3, 15024, Note_on_c, 1, 67, 74
3, 15043, Note_on_c, 1, 66, 66
3, 15045, Note_off_c, 1, 67, 64
3, 15061, Note_on_c, 1, 67, 74
3, 15063, Note_off_c, 1, 66, 64
3, 15078, Note_on_c, 1, 66, 72
3, 15083, Note_off_c, 1, 67, 64
3, 15100, Note_on_c, 1, 67, 80
3, 15102, Note_off_c, 1, 66, 64
3, 15119, Note_on_c, 1, 66, 85
3, 15129, Note_off_c, 1, 67, 64
3, 15251, Note_off_c, 1, 66, 64
3, 15296, Note_on_c, 1, 67, 80
3, 15330, Note_off_c, 1, 67, 64
3, 15363, Note_on_c, 1, 62, 74
3, 16259, Note_off_c, 1, 62, 64
3, 32272, Note_on_c, 1, 72, 74
3, 32308, Note_off_c, 1, 72, 64
3, 32388, Note_on_c, 1, 72, 80
3, 32430, Note_off_c, 1, 72, 64
3, 32504, Note_on_c, 1, 72, 87
3, 32542, Note_off_c, 1, 72, 64
3, 32625, Note_on_c, 1, 71, 87
3, 32741, Note_on_c, 1, 72, 63
3, 32745, Note_off_c, 1, 71, 64
3, 32789, Note_off_c, 1, 72, 64
3, 32790, Note_on_c, 1, 74, 70
3, 32839, Note_off_c, 1, 74, 64
3, 32856, Note_on_c, 1, 76, 82
3, 32899, Note_off_c, 1, 76, 64
3, 32979, Note_on_c, 1, 72, 80
3, 33023, Note_off_c, 1, 72, 64
3, 33104, Note_on_c, 1, 69, 72
3, 33149, Note_off_c, 1, 69, 64
3, 33224, Note_on_c, 1, 74, 80
3, 33268, Note_off_c, 1, 74, 64
3, 33344, Note_on_c, 1, 62, 78
3, 33392, Note_off_c, 1, 62, 64
3, 33462, Note_on_c, 1, 72, 80
3, 33504, Note_off_c, 1, 72, 64
3, 33590, Note_on_c, 1, 71, 100
3, 33643, Note_on_c, 1, 69, 72
3, 33648, Note_off_c, 1, 71, 64
3, 33696, Note_off_c, 1, 69, 64
3, 33704, Note_on_c, 1, 67, 63
3, 33758, Note_on_c, 1, 69, 58
3, 33768, Note_off_c, 1, 67, 64
3, 33809, Note_off_c, 1, 69, 64
3, 33828, Note_on_c, 1, 71, 80
3, 33882, Note_on_c, 1, 67, 68
3, 33887, Note_off_c, 1, 71, 64
3, 33939, Note_off_c, 1, 67, 64
3, 33941, Note_on_c, 1, 69, 59
3, 33996, Note_off_c, 1, 69, 64
3, 33996, Note_on_c, 1, 71, 70
3, 34032, Note_off_c, 1, 71, 64
3, 34062, Note_on_c, 1, 72, 80
3, 34160, Note_off_c, 1, 72, 64
3, 34233, Note_on_c, 1, 67, 57
3, 34267, Note_off_c, 1, 67, 64
3, 34304, Note_on_c, 1, 72, 93
3, 34411, Note_off_c, 1, 72, 64
3, 34475, Note_on_c, 1, 72, 68
3, 34507, Note_off_c, 1, 72, 64
3, 34547, Note_on_c, 1, 72, 89
3, 34608, Note_on_c, 1, 71, 76
3, 34609, Note_off_c, 1, 72, 64
3, 34660, Note_off_c, 1, 71, 64
3, 34661, Note_on_c, 1, 69, 68
3, 34715, Note_on_c, 1, 71, 68
3, 34727, Note_off_c, 1, 69, 64
3, 34743, Note_off_c, 1, 71, 64
3, 34780, Note_on_c, 1, 72, 87
3, 34806, Note_on_c, 1, 71, 68
3, 34815, Note_off_c, 1, 72, 64
3, 34836, Note_on_c, 1, 72, 66
3, 34845, Note_off_c, 1, 71, 64
3, 34868, Note_on_c, 1, 71, 63
3, 34881, Note_off_c, 1, 72, 64
3, 34917, Note_off_c, 1, 71, 64
3, 34956, Note_on_c, 1, 72, 64
3, 34986, Note_off_c, 1, 72, 64
3, 35025, Note_on_c, 1, 72, 87
3, 35123, Note_off_c, 1, 72, 64
3, 35151, Note_on_c, 1, 67, 70
3, 35201, Note_off_c, 1, 67, 64
3, 35205, Note_on_c, 1, 65, 60
3, 35249, Note_off_c, 1, 65, 64
3, 35272, Note_on_c, 1, 67, 85
3, 35312, Note_off_c, 1, 67, 64
3, 35392, Note_on_c, 1, 76, 95
3, 35429, Note_off_c, 1, 76, 64
3, 35514, Note_on_c, 1, 74, 93
3, 35567, Note_on_c, 1, 72, 78
3, 35580, Note_off_c, 1, 74, 64
3, 35629, Note_off_c, 1, 72, 64
3, 35629, Note_on_c, 1, 71, 68
3, 35678, Note_off_c, 1, 71, 64
3, 35679, Note_on_c, 1, 69, 57
3, 35724, Note_off_c, 1, 69, 64
3, 35740, Note_on_c, 1, 67, 76
3, 35804, Note_off_c, 1, 67, 64
3, 35862, Note_on_c, 1, 76, 82
3, 35919, Note_on_c, 1, 74, 74
3, 35924, Note_off_c, 1, 76, 64
3, 35967, Note_off_c, 1, 74, 64
3, 35988, Note_on_c, 1, 76, 93
3, 36026, Note_off_c, 1, 76, 64
3, 36108, Note_on_c, 1, 69, 85
3, 36156, Note_off_c, 1, 69, 64
3, 36235, Note_on_c, 1, 74, 95
3, 36289, Note_on_c, 1, 72, 78
3, 36302, Note_off_c, 1, 74, 64
3, 36347, Note_on_c, 1, 71, 68
3, 36353, Note_off_c, 1, 72, 64
3, 36407, Note_on_c, 1, 72, 68
3, 36415, Note_off_c, 1, 71, 64
3, 36453, Note_off_c, 1, 72, 64
3, 36474, Note_on_c, 1, 74, 76
3, 36729, Note_off_c, 1, 74, 64
3, 36768, Note_on_c, 1, 71, 82
3, 36809, Note_off_c, 1, 71, 64
3, 36825, Note_on_c, 1, 72, 85
3, 36861, Note_off_c, 1, 72, 64
3, 36882, Note_on_c, 1, 74, 82
3, 36919, Note_off_c, 1, 74, 64
3, 36952, Note_on_c, 1, 67, 87
3, 37081, Note_off_c, 1, 67, 64
3, 37120, Note_on_c, 1, 74, 82
3, 37157, Note_off_c, 1, 74, 64
3, 37187, Note_on_c, 1, 72, 82
3, 37247, Note_on_c, 1, 71, 82
3, 37261, Note_off_c, 1, 72, 64
3, 37304, Note_off_c, 1, 71, 64
3, 37307, Note_on_c, 1, 69, 58
3, 37358, Note_off_c, 1, 69, 64
3, 37361, Note_on_c, 1, 67, 61
3, 37397, Note_off_c, 1, 67, 64
3, 37430, Note_on_c, 1, 65, 82
3, 37558, Note_off_c, 1, 65, 64
3, 37600, Note_on_c, 1, 72, 72
3, 37633, Note_off_c, 1, 72, 64
3, 37670, Note_on_c, 1, 71, 76
3, 37728, Note_on_c, 1, 69, 60
3, 37749, Note_off_c, 1, 71, 64
3, 37791, Note_on_c, 1, 67, 60
3, 37795, Note_off_c, 1, 69, 64
3, 37843, Note_off_c, 1, 67, 64
3, 37847, Note_on_c, 1, 65, 56
3, 37891, Note_off_c, 1, 65, 64
3, 37914, Note_on_c, 1, 64, 82
3, 38036, Note_off_c, 1, 64, 64
3, 38091, Note_on_c, 1, 71, 80
3, 38119, Note_off_c, 1, 71, 64
3, 38160, Note_on_c, 1, 69, 95
3, 38225, Note_on_c, 1, 67, 76
3, 38243, Note_off_c, 1, 69, 64
3, 38282, Note_on_c, 1, 65, 63
3, 38285, Note_off_c, 1, 67, 64
3, 38334, Note_off_c, 1, 65, 64
3, 38336, Note_on_c, 1, 64, 60
3, 38372, Note_off_c, 1, 64, 64
3, 38403, Note_on_c, 1, 62, 82
3, 38524, Note_off_c, 1, 62, 64
3, 38568, Note_on_c, 1, 69, 82
3, 38599, Note_off_c, 1, 69, 64
3, 38636, Note_on_c, 1, 67, 91
3, 38690, Note_on_c, 1, 65, 70
3, 38715, Note_off_c, 1, 67, 64
3, 38751, Note_on_c, 1, 64, 66
3, 38760, Note_off_c, 1, 65, 64
3, 38804, Note_on_c, 1, 62, 60
3, 38806, Note_off_c, 1, 64, 64
3, 38840, Note_off_c, 1, 62, 64
3, 38876, Note_on_c, 1, 60, 82
3, 39012, Note_off_c, 1, 60, 64
3, 39047, Note_on_c, 1, 67, 68
3, 39082, Note_off_c, 1, 67, 64
3, 39114, Note_on_c, 1, 65, 78
3, 39168, Note_on_c, 1, 64, 68
3, 39189, Note_off_c, 1, 65, 64
3, 39223, Note_off_c, 1, 64, 64
3, 39225, Note_on_c, 1, 62, 66
3, 39268, Note_off_c, 1, 62, 64
3, 39277, Note_on_c, 1, 60, 64
3, 39317, Note_off_c, 1, 60, 64
3, 39344, Note_on_c, 1, 67, 80
3, 39402, Note_off_c, 1, 67, 64
3, 39465, Note_on_c, 1, 71, 80
3, 39511, Note_off_c, 1, 71, 64
3, 39590, Note_on_c, 1, 67, 85
3, 39645, Note_on_c, 1, 69, 80
3, 39657, Note_off_c, 1, 67, 64
3, 39702, Note_on_c, 1, 71, 70
3, 39705, Note_off_c, 1, 69, 64
3, 39759, Note_off_c, 1, 71, 64
3, 39759, Note_on_c, 1, 67, 72
3, 39798, Note_off_c, 1, 67, 64
3, 39827, Note_on_c, 1, 72, 82
3, 39886, Note_on_c, 1, 74, 82
3, 39890, Note_off_c, 1, 72, 64
3, 39943, Note_off_c, 1, 74, 64
3, 39946, Note_on_c, 1, 72, 70
3, 39996, Note_off_c, 1, 72, 64
3, 40004, Note_on_c, 1, 70, 57
3, 40053, Note_off_c, 1, 70, 64
3, 40078, Note_on_c, 1, 69, 89
3, 40132, Note_off_c, 1, 69, 64
3, 40198, Note_on_c, 1, 69, 87
3, 40239, Note_off_c, 1, 69, 64
3, 40322, Note_on_c, 1, 74, 85
3, 40375, Note_on_c, 1, 72, 80
3, 40386, Note_off_c, 1, 74, 64
3, 40428, Note_off_c, 1, 72, 64
3, 40429, Note_on_c, 1, 71, 72
3, 40486, Note_off_c, 1, 71, 64
3, 40489, Note_on_c, 1, 72, 64
3, 40536, Note_off_c, 1, 72, 64
3, 40556, Note_on_c, 1, 74, 82
3, 40599, Note_on_c, 1, 72, 66
3, 40609, Note_off_c, 1, 74, 64
3, 40655, Note_off_c, 1, 72, 64
3, 40668, Note_on_c, 1, 74, 72
3, 40721, Note_off_c, 1, 74, 64
3, 40725, Note_on_c, 1, 71, 66
3, 40763, Note_off_c, 1, 71, 64
3, 40786, Note_on_c, 1, 72, 82
3, 40899, Note_off_c, 1, 72, 64
3, 40947, Note_on_c, 1, 74, 68
3, 40970, Note_off_c, 1, 74, 64
3, 41013, Note_on_c, 1, 72, 80
3, 41040, Note_on_c, 1, 71, 85
3, 41045, Note_off_c, 1, 72, 64
3, 41071, Note_on_c, 1, 72, 70
3, 41076, Note_off_c, 1, 71, 64
3, 41091, Note_on_c, 1, 71, 80
3, 41109, Note_off_c, 1, 72, 64
3, 41154, Note_off_c, 1, 71, 64
3, 41210, Note_on_c, 1, 67, 72
3, 41239, Note_off_c, 1, 67, 64
3, 41274, Note_on_c, 1, 67, 89
3, 41405, Note_off_c, 1, 67, 64
3, 46677, Note_on_c, 1, 69, 66
3, 46712, Note_off_c, 1, 69, 64
3, 46791, Note_on_c, 1, 69, 80
3, 46833, Note_off_c, 1, 69, 64
3, 46913, Note_on_c, 1, 69, 82
3, 46956, Note_off_c, 1, 69, 64
3, 47030, Note_on_c, 1, 67, 80
3, 47147, Note_on_c, 1, 69, 64
3, 47150, Note_off_c, 1, 67, 64
3, 47194, Note_on_c, 1, 71, 74
3, 47199, Note_off_c, 1, 69, 64
3, 47244, Note_off_c, 1, 71, 64
3, 47259, Note_on_c, 1, 72, 82
3, 47301, Note_off_c, 1, 72, 64
3, 47379, Note_on_c, 1, 69, 74
3, 47423, Note_off_c, 1, 69, 64
3, 47502, Note_on_c, 1, 66, 64
3, 47550, Note_off_c, 1, 66, 64
3, 47621, Note_on_c, 1, 71, 85
3, 47667, Note_off_c, 1, 71, 64
3, 47744, Note_on_c, 1, 59, 72
3, 47809, Note_off_c, 1, 59, 64
3, 47863, Note_on_c, 1, 69, 87
3, 47905, Note_off_c, 1, 69, 64
3, 47986, Note_on_c, 1, 68, 78
3, 48101, Note_off_c, 1, 68, 64
3, 48103, Note_on_c, 1, 69, 74
3, 48152, Note_off_c, 1, 69, 64
3, 48159, Note_on_c, 1, 71, 70
3, 48204, Note_off_c, 1, 71, 64
3, 48225, Note_on_c, 1, 72, 85
3, 48275, Note_off_c, 1, 72, 64
3, 48349, Note_on_c, 1, 76, 85
3, 48395, Note_off_c, 1, 76, 64
3, 48468, Note_on_c, 1, 72, 72
3, 48508, Note_off_c, 1, 72, 64
3, 48588, Note_on_c, 1, 77, 85
3, 48632, Note_off_c, 1, 77, 64
3, 48701, Note_on_c, 1, 71, 80
3, 48746, Note_off_c, 1, 71, 64
3, 48823, Note_on_c, 1, 74, 82
3, 48858, Note_off_c, 1, 74, 64
3, 48947, Note_on_c, 1, 72, 82
3, 49004, Note_on_c, 1, 74, 82
3, 49007, Note_off_c, 1, 72, 64
3, 49060, Note_off_c, 1, 74, 64
3, 49064, Note_on_c, 1, 76, 68
3, 49123, Note_on_c, 1, 74, 76
3, 49125, Note_off_c, 1, 76, 64
3, 49162, Note_off_c, 1, 74, 64
3, 49183, Note_on_c, 1, 72, 68
3, 49232, Note_off_c, 1, 72, 64
3, 49242, Note_on_c, 1, 71, 59
3, 49295, Note_off_c, 1, 71, 64
3, 49302, Note_on_c, 1, 72, 72
3, 49349, Note_off_c, 1, 72, 64
3, 49354, Note_on_c, 1, 69, 64
3, 49398, Note_off_c, 1, 69, 64
3, 49417, Note_on_c, 1, 64, 82
3, 49472, Note_off_c, 1, 64, 64
3, 49475, Note_on_c, 1, 72, 70
3, 49536, Note_on_c, 1, 71, 68
3, 49550, Note_off_c, 1, 72, 64
3, 49598, Note_off_c, 1, 71, 64
3, 49598, Note_on_c, 1, 69, 63
3, 49656, Note_off_c, 1, 69, 64
3, 49663, Note_on_c, 1, 67, 64
3, 49716, Note_on_c, 1, 66, 64
3, 49719, Note_off_c, 1, 67, 64
3, 49773, Note_off_c, 1, 66, 64
3, 49778, Note_on_c, 1, 67, 66
3, 49822, Note_off_c, 1, 67, 64
3, 49841, Note_on_c, 1, 64, 60
3, 49884, Note_off_c, 1, 64, 64
3, 49916, Note_on_c, 1, 69, 70
3, 49962, Note_off_c, 1, 69, 64
3, 50029, Note_on_c, 1, 69, 85
3, 50072, Note_off_c, 1, 69, 64
3, 50150, Note_on_c, 1, 69, 87
3, 50194, Note_off_c, 1, 69, 64
3, 50267, Note_on_c, 1, 69, 87
3, 50307, Note_off_c, 1, 69, 64
3, 50383, Note_on_c, 1, 67, 80
3, 50496, Note_on_c, 1, 69, 85
3, 50501, Note_off_c, 1, 67, 64
3, 50546, Note_on_c, 1, 71, 80
3, 50548, Note_off_c, 1, 69, 64
3, 50595, Note_off_c, 1, 71, 64
3, 50612, Note_on_c, 1, 72, 87
3, 50653, Note_off_c, 1, 72, 64
3, 50733, Note_on_c, 1, 69, 85
3, 50776, Note_off_c, 1, 69, 64
3, 50856, Note_on_c, 1, 66, 82
3, 50899, Note_off_c, 1, 66, 64
3, 50979, Note_on_c, 1, 71, 87
3, 51024, Note_off_c, 1, 71, 64
3, 51100, Note_on_c, 1, 59, 85
3, 51152, Note_off_c, 1, 59, 64
3, 51219, Note_on_c, 1, 69, 82
3, 51264, Note_off_c, 1, 69, 64
3, 51343, Note_on_c, 1, 68, 72
3, 51388, Note_off_c, 1, 68, 64
3, 51464, Note_on_c, 1, 64, 82
3, 51512, Note_off_c, 1, 64, 64
3, 51582, Note_on_c, 1, 69, 85
3, 51923, Note_off_c, 1, 69, 64
3, 52002, Note_on_c, 1, 71, 76
3, 52029, Note_off_c, 1, 71, 64
3, 52076, Note_on_c, 1, 69, 82
3, 52099, Note_on_c, 1, 68, 82
3, 52107, Note_off_c, 1, 69, 64
3, 52126, Note_on_c, 1, 69, 80
3, 52129, Note_off_c, 1, 68, 64
3, 52154, Note_on_c, 1, 68, 74
3, 52170, Note_off_c, 1, 69, 64
3, 52203, Note_off_c, 1, 68, 64
3, 52248, Note_on_c, 1, 69, 80
3, 52277, Note_off_c, 1, 69, 64
3, 52319, Note_on_c, 1, 69, 85
3, 52555, Note_off_c, 1, 69, 64
3, 52591, Note_on_c, 1, 69, 80
3, 52640, Note_off_c, 1, 69, 64
3, 52653, Note_on_c, 1, 71, 80
3, 52701, Note_off_c, 1, 71, 64
3, 52711, Note_on_c, 1, 72, 78
3, 52752, Note_off_c, 1, 72, 64
3, 52784, Note_on_c, 1, 74, 87
3, 52839, Note_on_c, 1, 76, 82
3, 52851, Note_off_c, 1, 74, 64
3, 52898, Note_on_c, 1, 74, 74
3, 52906, Note_off_c, 1, 76, 64
3, 52955, Note_on_c, 1, 72, 66
3, 52961, Note_off_c, 1, 74, 64
3, 53008, Note_off_c, 1, 72, 64
3, 53023, Note_on_c, 1, 71, 68
3, 53077, Note_off_c, 1, 71, 64
3, 53081, Note_on_c, 1, 69, 62
3, 53136, Note_on_c, 1, 68, 60
3, 53147, Note_off_c, 1, 69, 64
3, 53190, Note_off_c, 1, 68, 64
3, 53191, Note_on_c, 1, 71, 64
3, 53240, Note_off_c, 1, 71, 64
3, 53259, Note_on_c, 1, 69, 85
3, 53315, Note_on_c, 1, 71, 70
3, 53328, Note_off_c, 1, 69, 64
3, 53375, Note_on_c, 1, 72, 66
3, 53382, Note_off_c, 1, 71, 64
3, 53425, Note_off_c, 1, 72, 64
3, 53428, Note_on_c, 1, 74, 74
3, 53486, Note_off_c, 1, 74, 64
3, 53495, Note_on_c, 1, 76, 61
3, 53557, Note_on_c, 1, 78, 74
3, 53571, Note_off_c, 1, 76, 64
3, 53617, Note_off_c, 1, 78, 64
3, 53620, Note_on_c, 1, 80, 82
3, 53667, Note_off_c, 1, 80, 64
3, 53678, Note_on_c, 1, 76, 80
3, 53712, Note_off_c, 1, 76, 64
3, 53742, Note_on_c, 1, 81, 87
3, 53792, Note_off_c, 1, 81, 64
3, 53866, Note_on_c, 1, 69, 80
3, 53911, Note_off_c, 1, 69, 64
3, 53994, Note_on_c, 1, 74, 89
3, 54284, Note_off_c, 1, 74, 64
3, 54357, Note_on_c, 1, 72, 80
3, 54406, Note_on_c, 1, 71, 72
3, 54412, Note_off_c, 1, 72, 64
3, 54451, Note_off_c, 1, 71, 64
3, 54468, Note_on_c, 1, 76, 82
3, 54512, Note_off_c, 1, 76, 64
3, 54587, Note_on_c, 1, 68, 82
3, 54632, Note_off_c, 1, 68, 64
3, 54710, Note_on_c, 1, 69, 82
3, 54833, Note_off_c, 1, 69, 64
3, 54881, Note_on_c, 1, 71, 80
3, 54907, Note_off_c, 1, 71, 64
3, 54949, Note_on_c, 1, 69, 85
3, 54978, Note_on_c, 1, 68, 87
3, 54986, Note_off_c, 1, 69, 64
3, 55005, Note_on_c, 1, 69, 72
3, 55008, Note_off_c, 1, 68, 64
3, 55029, Note_on_c, 1, 68, 78
3, 55046, Note_off_c, 1, 69, 64
3, 55084, Note_off_c, 1, 68, 64
3, 55120, Note_on_c, 1, 69, 78
3, 55150, Note_off_c, 1, 69, 64
3, 55188, Note_on_c, 1, 69, 89
3, 55331, Note_off_c, 1, 69, 64
3, 72107, Note_on_c, 1, 71, 55
3, 72150, Note_off_c, 1, 71, 64
3, 72231, Note_on_c, 1, 71, 55
3, 72270, Note_off_c, 1, 71, 64
3, 72346, Note_on_c, 1, 71, 57
3, 72392, Note_off_c, 1, 71, 64
3, 72462, Note_on_c, 1, 67, 60
3, 72583, Note_off_c, 1, 67, 64
3, 72594, Note_on_c, 1, 69, 62
3, 72637, Note_off_c, 1, 69, 64
3, 72644, Note_on_c, 1, 71, 66
3, 72689, Note_off_c, 1, 71, 64
3, 72704, Note_on_c, 1, 72, 62
3, 72742, Note_off_c, 1, 72, 64
3, 72827, Note_on_c, 1, 69, 64
3, 72872, Note_off_c, 1, 69, 64
3, 72948, Note_on_c, 1, 66, 60
3, 72998, Note_off_c, 1, 66, 64
3, 73065, Note_on_c, 1, 71, 64
3, 73109, Note_off_c, 1, 71, 64
3, 73187, Note_on_c, 1, 59, 68
3, 73247, Note_off_c, 1, 59, 64
3, 73312, Note_on_c, 1, 69, 63
3, 73353, Note_off_c, 1, 69, 64
3, 73441, Note_on_c, 1, 67, 56
3, 73674, Note_off_c, 1, 67, 64
3, 76370, Note_on_c, 1, 72, 68
3, 76418, Note_off_c, 1, 72, 64
3, 76426, Note_on_c, 1, 71, 63
3, 76475, Note_off_c, 1, 71, 64
3, 76481, Note_on_c, 1, 69, 57
3, 76533, Note_off_c, 1, 69, 64
3, 76539, Note_on_c, 1, 67, 59
3, 76597, Note_on_c, 1, 66, 62
3, 76604, Note_off_c, 1, 67, 64
3, 76653, Note_off_c, 1, 66, 64
3, 76657, Note_on_c, 1, 67, 59
3, 76701, Note_off_c, 1, 67, 64
3, 76716, Note_on_c, 1, 64, 63
3, 76760, Note_off_c, 1, 64, 64
3, 76779, Note_on_c, 1, 72, 78
3, 76834, Note_off_c, 1, 72, 64
3, 76839, Note_on_c, 1, 71, 72
3, 76883, Note_off_c, 1, 71, 64
3, 76896, Note_on_c, 1, 69, 72
3, 76937, Note_off_c, 1, 69, 64
3, 76953, Note_on_c, 1, 67, 62
3, 77007, Note_off_c, 1, 67, 64
3, 77028, Note_on_c, 1, 66, 61
3, 77072, Note_off_c, 1, 66, 64
3, 77147, Note_on_c, 1, 71, 70
3, 77187, Note_off_c, 1, 71, 64
3, 77267, Note_on_c, 1, 64, 57
3, 77505, Note_off_c, 1, 64, 64
3, 78349, Note_on_c, 1, 76, 62
3, 78388, Note_off_c, 1, 76, 64
3, 78464, Note_on_c, 1, 76, 62
3, 78511, Note_off_c, 1, 76, 64
3, 78585, Note_on_c, 1, 76, 66
3, 78630, Note_off_c, 1, 76, 64
3, 78702, Note_on_c, 1, 72, 64
3, 78814, Note_off_c, 1, 72, 64
3, 78833, Note_on_c, 1, 74, 78
3, 78885, Note_off_c, 1, 74, 64
3, 78885, Note_on_c, 1, 76, 64
3, 78928, Note_off_c, 1, 76, 64
3, 78944, Note_on_c, 1, 77, 66
3, 78987, Note_off_c, 1, 77, 64
3, 79062, Note_on_c, 1, 74, 64
3, 79105, Note_off_c, 1, 74, 64
3, 79184, Note_on_c, 1, 71, 68
3, 79232, Note_off_c, 1, 71, 64
3, 79307, Note_on_c, 1, 74, 70
3, 79348, Note_off_c, 1, 74, 64
3, 79424, Note_on_c, 1, 64, 70
3, 79472, Note_off_c, 1, 64, 64
3, 79541, Note_on_c, 1, 74, 62
3, 79579, Note_off_c, 1, 74, 64
3, 79664, Note_on_c, 1, 72, 59
3, 79738, Note_off_c, 1, 72, 64
3, 79789, Note_on_c, 1, 76, 91
3, 79836, Note_off_c, 1, 76, 64
3, 79908, Note_on_c, 1, 76, 85
3, 79953, Note_off_c, 1, 76, 64
3, 80031, Note_on_c, 1, 76, 82
3, 80074, Note_off_c, 1, 76, 64
3, 80149, Note_on_c, 1, 74, 80
3, 80264, Note_off_c, 1, 74, 64
3, 80285, Note_on_c, 1, 74, 64
3, 80330, Note_off_c, 1, 74, 64
3, 80399, Note_on_c, 1, 74, 62
3, 80444, Note_off_c, 1, 74, 64
3, 80511, Note_on_c, 1, 74, 60
3, 80555, Note_off_c, 1, 74, 64
3, 80635, Note_on_c, 1, 70, 57
3, 80744, Note_off_c, 1, 70, 64
3, 80762, Note_on_c, 1, 72, 64
3, 80808, Note_off_c, 1, 72, 64
3, 80811, Note_on_c, 1, 74, 62
3, 80862, Note_off_c, 1, 74, 64
3, 80875, Note_on_c, 1, 75, 55
3, 80915, Note_off_c, 1, 75, 64
3, 80992, Note_on_c, 1, 72, 60
3, 81022, Note_off_c, 1, 72, 64
3, 81105, Note_on_c, 1, 69, 62
3, 81152, Note_off_c, 1, 69, 64
3, 81225, Note_on_c, 1, 72, 57
3, 81258, Note_off_c, 1, 72, 64
3, 81339, Note_on_c, 1, 62, 66
3, 81390, Note_off_c, 1, 62, 64
3, 81461, Note_on_c, 1, 72, 59
3, 81493, Note_off_c, 1, 72, 64
3, 81581, Note_on_c, 1, 70, 60
3, 81667, Note_off_c, 1, 70, 64
3, 81705, Note_on_c, 1, 74, 87
3, 81752, Note_off_c, 1, 74, 64
3, 81827, Note_on_c, 1, 74, 100
3, 81873, Note_off_c, 1, 74, 64
3, 81952, Note_on_c, 1, 74, 95
3, 81998, Note_off_c, 1, 74, 64
3, 82067, Note_on_c, 1, 72, 95
3, 82161, Note_off_c, 1, 72, 64
3, 82194, Note_on_c, 1, 72, 62
3, 82230, Note_off_c, 1, 72, 64
3, 82312, Note_on_c, 1, 72, 64
3, 82357, Note_off_c, 1, 72, 64
3, 82432, Note_on_c, 1, 72, 66
3, 82470, Note_off_c, 1, 72, 64
3, 82548, Note_on_c, 1, 69, 64
3, 82649, Note_off_c, 1, 69, 64
3, 82672, Note_on_c, 1, 70, 62
3, 82719, Note_off_c, 1, 70, 64
3, 82729, Note_on_c, 1, 72, 66
3, 82770, Note_off_c, 1, 72, 64
3, 82793, Note_on_c, 1, 74, 70
3, 82827, Note_off_c, 1, 74, 64
3, 82907, Note_on_c, 1, 70, 64
3, 82946, Note_off_c, 1, 70, 64
3, 83026, Note_on_c, 1, 67, 70
3, 83072, Note_off_c, 1, 67, 64
3, 83147, Note_on_c, 1, 70, 64
3, 83190, Note_off_c, 1, 70, 64
3, 83264, Note_on_c, 1, 60, 78
3, 83315, Note_off_c, 1, 60, 64
3, 83382, Note_on_c, 1, 70, 64
3, 83415, Note_off_c, 1, 70, 64
3, 83511, Note_on_c, 1, 69, 78
3, 83578, Note_off_c, 1, 69, 64
3, 83635, Note_on_c, 1, 77, 80
3, 83673, Note_off_c, 1, 77, 64
3, 83754, Note_on_c, 1, 77, 85
3, 83800, Note_off_c, 1, 77, 64
3, 83869, Note_on_c, 1, 77, 82
3, 83910, Note_off_c, 1, 77, 64
3, 83985, Note_on_c, 1, 76, 89
3, 84094, Note_off_c, 1, 76, 64
3, 84108, Note_on_c, 1, 77, 80
3, 84155, Note_off_c, 1, 77, 64
3, 84158, Note_on_c, 1, 79, 87
3, 84201, Note_off_c, 1, 79, 64
3, 84220, Note_on_c, 1, 81, 87
3, 84260, Note_off_c, 1, 81, 64
3, 84341, Note_on_c, 1, 77, 85
3, 84392, Note_off_c, 1, 77, 64
3, 84456, Note_on_c, 1, 74, 82
3, 84511, Note_off_c, 1, 74, 64
3, 84585, Note_on_c, 1, 79, 87
3, 84628, Note_off_c, 1, 79, 64
3, 84708, Note_on_c, 1, 67, 93
3, 84756, Note_off_c, 1, 67, 64
3, 84829, Note_on_c, 1, 79, 85
3, 84973, Note_off_c, 1, 79, 64
3, 101331, Note_on_c, 1, 59, 82
3, 101392, Note_off_c, 1, 59, 64
3, 101393, Note_on_c, 1, 60, 78
3, 101448, Note_off_c, 1, 60, 64
3, 101450, Note_on_c, 1, 62, 68
3, 101502, Note_off_c, 1, 62, 64
3, 101513, Note_on_c, 1, 64, 78
3, 101558, Note_off_c, 1, 64, 64
3, 101563, Note_on_c, 1, 62, 68
3, 101627, Note_off_c, 1, 62, 64
3, 101634, Note_on_c, 1, 64, 64
3, 101691, Note_off_c, 1, 64, 64
3, 101696, Note_on_c, 1, 65, 61
3, 101747, Note_off_c, 1, 65, 64
3, 101762, Note_on_c, 1, 67, 68
3, 101818, Note_on_c, 1, 70, 70
3, 101819, Note_off_c, 1, 67, 64
3, 101871, Note_off_c, 1, 70, 64
3, 101878, Note_on_c, 1, 69, 80
3, 101934, Note_off_c, 1, 69, 64
3, 101937, Note_on_c, 1, 67, 60
3, 101986, Note_off_c, 1, 67, 64
3, 101997, Note_on_c, 1, 65, 63
3, 102048, Note_off_c, 1, 65, 64
3, 102051, Note_on_c, 1, 64, 51
3, 102100, Note_off_c, 1, 64, 64
3, 102114, Note_on_c, 1, 65, 58
3, 102159, Note_off_c, 1, 65, 64
3, 102167, Note_on_c, 1, 62, 60
3, 102214, Note_off_c, 1, 62, 64
3, 102229, Note_on_c, 1, 67, 80
3, 102277, Note_off_c, 1, 67, 64
3, 102287, Note_on_c, 1, 65, 70
3, 102331, Note_off_c, 1, 65, 64
3, 102345, Note_on_c, 1, 67, 66
3, 102398, Note_off_c, 1, 67, 64
3, 102405, Note_on_c, 1, 69, 66
3, 102457, Note_off_c, 1, 69, 64
3, 102468, Note_on_c, 1, 67, 70
3, 102521, Note_off_c, 1, 67, 64
3, 102527, Note_on_c, 1, 65, 64
3, 102576, Note_off_c, 1, 65, 64
3, 102589, Note_on_c, 1, 64, 59
3, 102637, Note_off_c, 1, 64, 64
3, 102651, Note_on_c, 1, 62, 68
3, 102692, Note_off_c, 1, 62, 64
3, 102714, Note_on_c, 1, 60, 80
3, 102785, Note_off_c, 1, 60, 64
3, 102837, Note_on_c, 1, 76, 85
3, 102890, Note_off_c, 1, 76, 64
3, 102960, Note_on_c, 1, 72, 82
3, 103005, Note_off_c, 1, 72, 64
3, 103082, Note_on_c, 1, 69, 72
3, 103293, Note_off_c, 1, 69, 64
3, 103321, Note_on_c, 1, 67, 87
3, 103359, Note_off_c, 1, 67, 64
3, 103369, Note_on_c, 1, 65, 80
3, 103417, Note_off_c, 1, 65, 64
3, 103432, Note_on_c, 1, 64, 85
3, 103478, Note_off_c, 1, 64, 64
3, 103550, Note_on_c, 1, 67, 87
3, 103591, Note_off_c, 1, 67, 64
3, 103675, Note_on_c, 1, 69, 82
3, 103930, Note_off_c, 1, 69, 64
3, 103961, Note_on_c, 1, 69, 80
3, 104013, Note_off_c, 1, 69, 64
3, 104018, Note_on_c, 1, 71, 82
3, 104066, Note_off_c, 1, 71, 64
3, 104077, Note_on_c, 1, 72, 80
3, 104122, Note_off_c, 1, 72, 64
3, 104144, Note_on_c, 1, 74, 87
3, 104193, Note_off_c, 1, 74, 64
3, 104202, Note_on_c, 1, 72, 80
3, 104246, Note_off_c, 1, 72, 64
3, 104263, Note_on_c, 1, 74, 87
3, 104307, Note_off_c, 1, 74, 64
3, 104320, Note_on_c, 1, 71, 78
3, 104363, Note_off_c, 1, 71, 64
3, 104388, Note_on_c, 1, 72, 89
3, 104653, Note_off_c, 1, 72, 64
3, 104682, Note_on_c, 1, 72, 78
3, 104733, Note_off_c, 1, 72, 64
3, 104738, Note_on_c, 1, 70, 72
3, 104784, Note_off_c, 1, 70, 64
3, 104793, Note_on_c, 1, 72, 87
3, 104841, Note_off_c, 1, 72, 64
3, 104863, Note_on_c, 1, 74, 80
3, 105139, Note_off_c, 1, 74, 64
3, 105162, Note_on_c, 1, 76, 82
3, 105207, Note_off_c, 1, 76, 64
3, 105224, Note_on_c, 1, 74, 80
3, 105261, Note_off_c, 1, 74, 64
3, 105275, Note_on_c, 1, 76, 76
3, 105313, Note_off_c, 1, 76, 64
3, 105335, Note_on_c, 1, 72, 82
3, 105677, Note_off_c, 1, 72, 64
3, 105707, Note_on_c, 1, 71, 89
3, 105755, Note_off_c, 1, 71, 64
3, 105762, Note_on_c, 1, 69, 82
3, 105808, Note_off_c, 1, 69, 64
3, 105824, Note_on_c, 1, 67, 82
3, 105874, Note_off_c, 1, 67, 64
3, 105947, Note_on_c, 1, 71, 85
3, 105992, Note_off_c, 1, 71, 64
3, 106073, Note_on_c, 1, 72, 95
3, 106218, Note_off_c, 1, 72, 64
3, 106242, Note_on_c, 1, 74, 85
3, 106292, Note_off_c, 1, 74, 64
3, 106303, Note_on_c, 1, 72, 74
3, 106342, Note_off_c, 1, 72, 64
3, 106359, Note_on_c, 1, 71, 87
3, 106401, Note_off_c, 1, 71, 64
3, 106419, Note_on_c, 1, 69, 85
3, 106462, Note_off_c, 1, 69, 64
3, 106472, Note_on_c, 1, 67, 87
3, 106507, Note_off_c, 1, 67, 64
3, 106545, Note_on_c, 1, 65, 89
3, 106680, Note_off_c, 1, 65, 64
3, 106721, Note_on_c, 1, 72, 78
3, 106765, Note_off_c, 1, 72, 64
3, 106790, Note_on_c, 1, 71, 85
3, 106849, Note_on_c, 1, 69, 78
3, 106862, Note_off_c, 1, 71, 64
3, 106888, Note_off_c, 1, 69, 64
3, 106904, Note_on_c, 1, 67, 98
3, 106951, Note_off_c, 1, 67, 64
3, 106958, Note_on_c, 1, 65, 78
3, 107000, Note_off_c, 1, 65, 64
3, 107026, Note_on_c, 1, 64, 85
3, 107164, Note_off_c, 1, 64, 64
3, 107202, Note_on_c, 1, 71, 82
3, 107237, Note_off_c, 1, 71, 64
3, 107268, Note_on_c, 1, 69, 100
3, 107324, Note_off_c, 1, 69, 64
3, 107324, Note_on_c, 1, 67, 80
3, 107368, Note_off_c, 1, 67, 64
3, 107385, Note_on_c, 1, 65, 87
3, 107430, Note_off_c, 1, 65, 64
3, 107440, Note_on_c, 1, 64, 72
3, 107481, Note_off_c, 1, 64, 64
3, 107494, Note_on_c, 1, 62, 68
3, 107647, Note_off_c, 1, 62, 64
3, 107696, Note_on_c, 1, 69, 89
3, 107730, Note_off_c, 1, 69, 64
3, 107757, Note_on_c, 1, 67, 91
3, 107792, Note_off_c, 1, 67, 64
3, 107806, Note_on_c, 1, 65, 98
3, 107850, Note_off_c, 1, 65, 64
3, 107864, Note_on_c, 1, 64, 95
3, 107905, Note_off_c, 1, 64, 64
3, 107920, Note_on_c, 1, 62, 85
3, 107959, Note_off_c, 1, 62, 64
3, 107990, Note_on_c, 1, 60, 82
3, 108144, Note_off_c, 1, 60, 64
3, 108172, Note_on_c, 1, 67, 80
3, 108215, Note_off_c, 1, 67, 64
3, 108230, Note_on_c, 1, 65, 82
3, 108277, Note_off_c, 1, 65, 64
3, 108285, Note_on_c, 1, 64, 78
3, 108331, Note_off_c, 1, 64, 64
3, 108342, Note_on_c, 1, 62, 74
3, 108378, Note_off_c, 1, 62, 64
3, 108393, Note_on_c, 1, 60, 78
3, 108433, Note_off_c, 1, 60, 64
3, 108470, Note_on_c, 1, 67, 80
3, 108520, Note_off_c, 1, 67, 64
3, 108591, Note_on_c, 1, 71, 87
3, 108641, Note_off_c, 1, 71, 64
3, 108712, Note_on_c, 1, 67, 89
3, 108768, Note_on_c, 1, 69, 80
3, 108771, Note_off_c, 1, 67, 64
3, 108821, Note_off_c, 1, 69, 64
3, 108828, Note_on_c, 1, 71, 87
3, 108882, Note_on_c, 1, 67, 85
3, 108883, Note_off_c, 1, 71, 64
3, 108923, Note_off_c, 1, 67, 64
3, 108945, Note_on_c, 1, 72, 85
3, 109000, Note_on_c, 1, 74, 87
3, 109004, Note_off_c, 1, 72, 64
3, 109045, Note_off_c, 1, 74, 64
3, 109062, Note_on_c, 1, 72, 91
3, 109110, Note_off_c, 1, 72, 64
3, 109119, Note_on_c, 1, 70, 82
3, 109161, Note_off_c, 1, 70, 64
3, 109184, Note_on_c, 1, 69, 95
3, 109238, Note_off_c, 1, 69, 64
3, 109305, Note_on_c, 1, 69, 87
3, 109352, Note_off_c, 1, 69, 64
3, 109435, Note_on_c, 1, 74, 91
3, 109488, Note_off_c, 1, 74, 64
3, 109495, Note_on_c, 1, 72, 87
3, 109542, Note_off_c, 1, 72, 64
3, 109553, Note_on_c, 1, 71, 85
3, 109600, Note_off_c, 1, 71, 64
3, 109611, Note_on_c, 1, 72, 95
3, 109651, Note_off_c, 1, 72, 64
3, 109670, Note_on_c, 1, 74, 93
3, 109720, Note_off_c, 1, 74, 64
3, 109728, Note_on_c, 1, 72, 87
3, 109780, Note_off_c, 1, 72, 64
3, 109785, Note_on_c, 1, 74, 89
3, 109833, Note_off_c, 1, 74, 64
3, 109841, Note_on_c, 1, 71, 78
3, 109889, Note_off_c, 1, 71, 64
3, 109908, Note_on_c, 1, 72, 91
3, 110043, Note_off_c, 1, 72, 64
3, 110076, Note_on_c, 1, 74, 82
3, 110108, Note_off_c, 1, 74, 64
3, 110142, Note_on_c, 1, 72, 93
3, 110162, Note_on_c, 1, 71, 82
3, 110166, Note_off_c, 1, 72, 64
3, 110191, Note_on_c, 1, 72, 82
3, 110194, Note_off_c, 1, 71, 64
3, 110216, Note_on_c, 1, 71, 76
3, 110229, Note_off_c, 1, 72, 64
3, 110280, Note_off_c, 1, 71, 64
3, 110317, Note_on_c, 1, 67, 78
3, 110353, Note_off_c, 1, 67, 64
3, 110385, Note_on_c, 1, 67, 93
3, 110539, Note_off_c, 1, 67, 64
3, 124019, Note_on_c, 1, 74, 87
3, 124056, Note_off_c, 1, 74, 64
3, 124077, Note_on_c, 1, 72, 85
3, 124152, Note_off_c, 1, 72, 64
3, 124239, Note_on_c, 1, 74, 76
3, 124272, Note_off_c, 1, 74, 64
3, 124311, Note_on_c, 1, 72, 80
3, 124375, Note_on_c, 1, 71, 66
3, 124381, Note_off_c, 1, 72, 64
3, 124401, Note_off_c, 1, 71, 64
3, 124404, Note_on_c, 1, 72, 68
3, 124426, Note_on_c, 1, 71, 58
3, 124428, Note_off_c, 1, 72, 64
3, 124442, Note_off_c, 1, 71, 64
3, 124445, Note_on_c, 1, 72, 64
3, 124463, Note_off_c, 1, 72, 64
3, 124463, Note_on_c, 1, 71, 58
3, 124478, Note_off_c, 1, 71, 64
3, 124481, Note_on_c, 1, 72, 68
3, 124496, Note_on_c, 1, 71, 66
3, 124497, Note_off_c, 1, 72, 64
3, 124512, Note_off_c, 1, 71, 64
3, 124514, Note_on_c, 1, 72, 80
3, 124530, Note_on_c, 1, 71, 68
3, 124533, Note_off_c, 1, 72, 64
3, 124546, Note_on_c, 1, 72, 87
3, 124548, Note_off_c, 1, 71, 64
3, 124560, Note_on_c, 1, 71, 82
3, 124569, Note_off_c, 1, 72, 64
3, 124652, Note_off_c, 1, 71, 64
3, 124718, Note_on_c, 1, 67, 80
3, 124758, Note_off_c, 1, 67, 64
3, 124797, Note_on_c, 1, 67, 89
3, 124864, Note_off_c, 1, 67, 64
3, 149398, Note_on_c, 1, 69, 82
3, 149437, Note_off_c, 1, 69, 64
3, 149518, Note_on_c, 1, 69, 80
3, 149558, Note_off_c, 1, 69, 64
3, 149640, Note_on_c, 1, 69, 76
3, 149675, Note_off_c, 1, 69, 64
3, 149758, Note_on_c, 1, 67, 68
3, 149865, Note_off_c, 1, 67, 64
3, 149883, Note_on_c, 1, 69, 78
3, 149920, Note_off_c, 1, 69, 64
3, 149938, Note_on_c, 1, 71, 72
3, 149972, Note_off_c, 1, 71, 64
3, 149994, Note_on_c, 1, 72, 80
3, 150034, Note_off_c, 1, 72, 64
3, 150109, Note_on_c, 1, 69, 70
3, 150151, Note_off_c, 1, 69, 64
3, 150236, Note_on_c, 1, 66, 64
3, 150277, Note_off_c, 1, 66, 64
3, 150353, Note_on_c, 1, 71, 72
3, 150385, Note_off_c, 1, 71, 64
3, 150471, Note_on_c, 1, 59, 72
3, 150519, Note_off_c, 1, 59, 64
3, 150589, Note_on_c, 1, 71, 68
3, 150621, Note_off_c, 1, 71, 64
3, 150711, Note_on_c, 1, 64, 66
3, 150762, Note_off_c, 1, 64, 64
3, 150832, Note_on_c, 1, 71, 87
3, 150869, Note_off_c, 1, 71, 64
3, 150952, Note_on_c, 1, 71, 100
3, 150992, Note_off_c, 1, 71, 64
3, 151074, Note_on_c, 1, 71, 102
3, 151111, Note_off_c, 1, 71, 64
3, 151194, Note_on_c, 1, 69, 105
3, 151288, Note_off_c, 1, 69, 64
3, 151324, Note_on_c, 1, 69, 80
3, 151355, Note_off_c, 1, 69, 64
3, 151437, Note_on_c, 1, 69, 68
3, 151472, Note_off_c, 1, 69, 64
3, 151552, Note_on_c, 1, 69, 63
3, 151589, Note_off_c, 1, 69, 64
3, 151670, Note_on_c, 1, 65, 68
3, 151773, Note_off_c, 1, 65, 64
3, 151804, Note_on_c, 1, 67, 61
3, 151849, Note_off_c, 1, 67, 64
3, 151857, Note_on_c, 1, 69, 61
3, 151895, Note_off_c, 1, 69, 64
3, 151914, Note_on_c, 1, 70, 62
3, 151953, Note_off_c, 1, 70, 64
3, 152034, Note_on_c, 1, 67, 70
3, 152071, Note_off_c, 1, 67, 64
3, 152156, Note_on_c, 1, 64, 66
3, 152196, Note_off_c, 1, 64, 64
3, 152267, Note_on_c, 1, 69, 76
3, 152300, Note_off_c, 1, 69, 64
3, 152384, Note_on_c, 1, 57, 63
3, 152435, Note_off_c, 1, 57, 64
3, 152499, Note_on_c, 1, 69, 74
3, 152534, Note_off_c, 1, 69, 64
3, 152625, Note_on_c, 1, 62, 82
3, 152677, Note_off_c, 1, 62, 64
3, 152748, Note_on_c, 1, 69, 93
3, 152789, Note_off_c, 1, 69, 64
3, 152868, Note_on_c, 1, 69, 102
3, 152912, Note_off_c, 1, 69, 64
3, 152994, Note_on_c, 1, 69, 100
3, 153029, Note_off_c, 1, 69, 64
3, 153112, Note_on_c, 1, 67, 102
3, 153205, Note_off_c, 1, 67, 64
3, 153237, Note_on_c, 1, 67, 60
3, 153276, Note_off_c, 1, 67, 64
3, 153356, Note_on_c, 1, 67, 78
3, 153399, Note_off_c, 1, 67, 64
3, 153474, Note_on_c, 1, 67, 78
3, 153516, Note_off_c, 1, 67, 64
3, 153588, Note_on_c, 1, 64, 80
3, 153694, Note_off_c, 1, 64, 64
3, 153711, Note_on_c, 1, 65, 70
3, 153757, Note_off_c, 1, 65, 64
3, 153763, Note_on_c, 1, 67, 72
3, 153804, Note_off_c, 1, 67, 64
3, 153823, Note_on_c, 1, 69, 74
3, 153854, Note_off_c, 1, 69, 64
3, 153937, Note_on_c, 1, 65, 74
3, 153975, Note_off_c, 1, 65, 64
3, 154056, Note_on_c, 1, 62, 72
3, 154098, Note_off_c, 1, 62, 64
3, 154173, Note_on_c, 1, 67, 82
3, 154210, Note_off_c, 1, 67, 64
3, 154290, Note_on_c, 1, 55, 74
3, 154341, Note_off_c, 1, 55, 64
3, 154404, Note_on_c, 1, 67, 70
3, 154443, Note_off_c, 1, 67, 64
3, 154542, Note_on_c, 1, 60, 87
3, 154611, Note_off_c, 1, 60, 64
3, 154666, Note_on_c, 1, 72, 80
3, 154704, Note_off_c, 1, 72, 64
3, 154784, Note_on_c, 1, 72, 89
3, 154826, Note_off_c, 1, 72, 64
3, 154904, Note_on_c, 1, 72, 91
3, 154944, Note_off_c, 1, 72, 64
3, 155025, Note_on_c, 1, 71, 80
3, 155129, Note_off_c, 1, 71, 64
3, 155138, Note_on_c, 1, 72, 80
3, 155181, Note_off_c, 1, 72, 64
3, 155192, Note_on_c, 1, 74, 70
3, 155233, Note_off_c, 1, 74, 64
3, 155251, Note_on_c, 1, 76, 89
3, 155297, Note_off_c, 1, 76, 64
3, 155377, Note_on_c, 1, 72, 80
3, 155421, Note_off_c, 1, 72, 64
3, 155500, Note_on_c, 1, 69, 80
3, 155544, Note_off_c, 1, 69, 64
3, 155621, Note_on_c, 1, 74, 87
3, 155654, Note_off_c, 1, 74, 64
3, 155750, Note_on_c, 1, 62, 89
3, 155798, Note_off_c, 1, 62, 64
3, 155874, Note_on_c, 1, 74, 93
3, 156008, Note_off_c, 1, 74, 64
3, 156062, Note_on_c, 1, 62, 64
3, 156113, Note_off_c, 1, 62, 64
3, 156128, Note_on_c, 1, 64, 76
3, 156180, Note_off_c, 1, 64, 64
3, 156184, Note_on_c, 1, 66, 74
3, 156230, Note_off_c, 1, 66, 64
3, 156247, Note_on_c, 1, 67, 70
3, 156295, Note_off_c, 1, 67, 64
3, 156304, Note_on_c, 1, 71, 85
3, 156350, Note_off_c, 1, 71, 64
3, 156357, Note_on_c, 1, 69, 66
3, 156401, Note_off_c, 1, 69, 64
3, 156407, Note_on_c, 1, 71, 76
3, 156452, Note_off_c, 1, 71, 64
3, 156469, Note_on_c, 1, 72, 93
3, 156517, Note_off_c, 1, 72, 64
3, 156525, Note_on_c, 1, 71, 80
3, 156570, Note_off_c, 1, 71, 64
3, 156580, Note_on_c, 1, 69, 70
3, 156625, Note_off_c, 1, 69, 64
3, 156643, Note_on_c, 1, 67, 54
3, 156695, Note_off_c, 1, 67, 64
3, 156712, Note_on_c, 1, 66, 78
3, 156823, Note_off_c, 1, 66, 64
3, 156826, Note_on_c, 1, 67, 74
3, 156868, Note_off_c, 1, 67, 64
3, 156883, Note_on_c, 1, 69, 82
3, 156923, Note_off_c, 1, 69, 64
3, 156941, Note_on_c, 1, 71, 82
3, 156983, Note_off_c, 1, 71, 64
3, 157001, Note_on_c, 1, 67, 70
3, 157043, Note_off_c, 1, 67, 64
3, 157053, Note_on_c, 1, 66, 61
3, 157101, Note_off_c, 1, 66, 64
3, 157110, Note_on_c, 1, 67, 72
3, 157151, Note_off_c, 1, 67, 64
3, 157177, Note_on_c, 1, 69, 93
3, 157224, Note_off_c, 1, 69, 64
3, 157231, Note_on_c, 1, 67, 82
3, 157272, Note_off_c, 1, 67, 64
3, 157287, Note_on_c, 1, 66, 89
3, 157326, Note_off_c, 1, 66, 64
3, 157342, Note_on_c, 1, 64, 80
3, 157382, Note_off_c, 1, 64, 64
3, 157416, Note_on_c, 1, 62, 85
3, 157626, Note_off_c, 1, 62, 64
3, 157724, Note_on_c, 1, 71, 80
3, 157767, Note_off_c, 1, 71, 64
3, 157783, Note_on_c, 1, 69, 80
3, 157825, Note_off_c, 1, 69, 64
3, 157840, Note_on_c, 1, 67, 78
3, 157877, Note_off_c, 1, 67, 64
3, 157910, Note_on_c, 1, 72, 98
3, 158040, Note_off_c, 1, 72, 64
3, 158083, Note_on_c, 1, 72, 82
3, 158116, Note_off_c, 1, 72, 64
3, 158144, Note_on_c, 1, 72, 93
3, 158198, Note_on_c, 1, 76, 87
3, 158203, Note_off_c, 1, 72, 64
3, 158243, Note_off_c, 1, 76, 64
3, 158259, Note_on_c, 1, 74, 89
3, 158294, Note_off_c, 1, 74, 64
3, 158312, Note_on_c, 1, 72, 85
3, 158348, Note_off_c, 1, 72, 64
3, 158387, Note_on_c, 1, 71, 93
3, 158648, Note_off_c, 1, 71, 64
3, 158680, Note_on_c, 1, 74, 80
3, 158719, Note_off_c, 1, 74, 64
3, 158743, Note_on_c, 1, 72, 80
3, 158776, Note_off_c, 1, 72, 64
3, 158798, Note_on_c, 1, 71, 89
3, 158836, Note_off_c, 1, 71, 64
3, 158862, Note_on_c, 1, 69, 82
3, 159005, Note_off_c, 1, 69, 64
3, 159040, Note_on_c, 1, 69, 80
3, 159074, Note_off_c, 1, 69, 64
3, 159105, Note_on_c, 1, 69, 91
3, 159159, Note_off_c, 1, 69, 64
3, 159162, Note_on_c, 1, 72, 80
3, 159200, Note_off_c, 1, 72, 64
3, 159218, Note_on_c, 1, 71, 85
3, 159257, Note_off_c, 1, 71, 64
3, 159278, Note_on_c, 1, 69, 89
3, 159316, Note_off_c, 1, 69, 64
3, 159345, Note_on_c, 1, 67, 80
3, 159619, Note_off_c, 1, 67, 64
3, 159648, Note_on_c, 1, 71, 70
3, 159691, Note_off_c, 1, 71, 64
3, 159709, Note_on_c, 1, 69, 82
3, 159751, Note_off_c, 1, 69, 64
3, 159762, Note_on_c, 1, 67, 74
3, 159803, Note_off_c, 1, 67, 64
3, 159830, Note_on_c, 1, 66, 89
3, 159900, Note_off_c, 1, 66, 64
3, 159951, Note_on_c, 1, 69, 89
3, 159997, Note_off_c, 1, 69, 64
3, 160072, Note_on_c, 1, 66, 93
3, 160118, Note_off_c, 1, 66, 64
3, 160196, Note_on_c, 1, 62, 87
3, 160235, Note_off_c, 1, 62, 64
3, 160318, Note_on_c, 1, 67, 85
3, 160503, Note_off_c, 1, 67, 64
3, 160607, Note_on_c, 1, 67, 82
3, 160650, Note_off_c, 1, 67, 64
3, 160660, Note_on_c, 1, 69, 68
3, 160710, Note_off_c, 1, 69, 64
3, 160716, Note_on_c, 1, 71, 82
3, 160760, Note_off_c, 1, 71, 64
3, 160782, Note_on_c, 1, 72, 87
3, 160824, Note_off_c, 1, 72, 64
3, 160837, Note_on_c, 1, 69, 68
3, 160888, Note_off_c, 1, 69, 64
3, 160902, Note_on_c, 1, 71, 70
3, 160950, Note_off_c, 1, 71, 64
3, 160955, Note_on_c, 1, 72, 80
3, 160998, Note_off_c, 1, 72, 64
3, 161024, Note_on_c, 1, 74, 85
3, 161145, Note_off_c, 1, 74, 64
3, 161198, Note_on_c, 1, 74, 91
3, 161235, Note_off_c, 1, 74, 64
3, 161269, Note_on_c, 1, 74, 102
3, 161320, Note_off_c, 1, 74, 64
3, 161325, Note_on_c, 1, 72, 89
3, 161379, Note_off_c, 1, 72, 64
3, 161384, Note_on_c, 1, 71, 85
3, 161424, Note_off_c, 1, 71, 64
3, 161436, Note_on_c, 1, 72, 91
3, 161462, Note_off_c, 1, 72, 64
3, 161496, Note_on_c, 1, 71, 95
3, 161532, Note_off_c, 1, 71, 64
3, 161534, Note_on_c, 1, 69, 82
3, 161558, Note_on_c, 1, 71, 91
3, 161560, Note_off_c, 1, 69, 64
3, 161583, Note_on_c, 1, 69, 95
3, 161595, Note_off_c, 1, 71, 64
3, 161652, Note_off_c, 1, 69, 64
3, 161690, Note_on_c, 1, 71, 85
3, 161719, Note_off_c, 1, 71, 64
3, 161753, Note_on_c, 1, 71, 98
3, 162003, Note_off_c, 1, 71, 64
3, 179090, Note_on_c, 1, 67, 80
3, 179147, Note_on_c, 1, 69, 80
3, 179153, Note_off_c, 1, 67, 64
3, 179210, Note_on_c, 1, 71, 80
3, 179215, Note_off_c, 1, 69, 64
3, 179257, Note_off_c, 1, 71, 64
3, 179269, Note_on_c, 1, 72, 85
3, 179327, Note_on_c, 1, 76, 61
3, 179336, Note_off_c, 1, 72, 64
3, 179387, Note_on_c, 1, 74, 59
3, 179389, Note_off_c, 1, 76, 64
3, 179442, Note_off_c, 1, 74, 64
3, 179443, Note_on_c, 1, 76, 70
3, 179494, Note_off_c, 1, 76, 64
3, 179506, Note_on_c, 1, 77, 85
3, 179567, Note_on_c, 1, 76, 74
3, 179569, Note_off_c, 1, 77, 64
3, 179624, Note_off_c, 1, 76, 64
3, 179627, Note_on_c, 1, 74, 64
3, 179683, Note_off_c, 1, 74, 64
3, 179685, Note_on_c, 1, 72, 64
3, 179730, Note_off_c, 1, 72, 64
3, 179749, Note_on_c, 1, 71, 87
3, 179870, Note_off_c, 1, 71, 64
3, 179874, Note_on_c, 1, 72, 64
3, 179915, Note_off_c, 1, 72, 64
3, 179923, Note_on_c, 1, 74, 82
3, 179969, Note_off_c, 1, 74, 64
3, 179984, Note_on_c, 1, 76, 87
3, 180050, Note_on_c, 1, 72, 78
3, 180058, Note_off_c, 1, 76, 64
3, 180100, Note_on_c, 1, 71, 59
3, 180102, Note_off_c, 1, 72, 64
3, 180152, Note_off_c, 1, 71, 64
3, 180158, Note_on_c, 1, 72, 64
3, 180198, Note_off_c, 1, 72, 64
3, 180216, Note_on_c, 1, 74, 80
3, 180279, Note_on_c, 1, 72, 68
3, 180287, Note_off_c, 1, 74, 64
3, 180325, Note_off_c, 1, 72, 64
3, 180341, Note_on_c, 1, 71, 70
3, 180392, Note_off_c, 1, 71, 64
3, 180395, Note_on_c, 1, 69, 68
3, 180440, Note_off_c, 1, 69, 64
3, 180465, Note_on_c, 1, 67, 82
3, 180521, Note_off_c, 1, 67, 64
3, 180593, Note_on_c, 1, 71, 85
3, 180641, Note_off_c, 1, 71, 64
3, 180715, Note_on_c, 1, 72, 98
3, 180769, Note_on_c, 1, 74, 87
3, 180781, Note_off_c, 1, 72, 64
3, 180824, Note_off_c, 1, 74, 64
3, 180831, Note_on_c, 1, 76, 82
3, 180875, Note_off_c, 1, 76, 64
3, 180887, Note_on_c, 1, 72, 91
3, 180925, Note_off_c, 1, 72, 64
3, 180951, Note_on_c, 1, 69, 89
3, 181237, Note_off_c, 1, 69, 64
3, 181249, Note_on_c, 1, 67, 82
3, 181293, Note_off_c, 1, 67, 64
3, 181305, Note_on_c, 1, 69, 85
3, 181352, Note_off_c, 1, 69, 64
3, 181362, Note_on_c, 1, 65, 80
3, 181407, Note_off_c, 1, 65, 64
3, 181428, Note_on_c, 1, 67, 82
3, 181715, Note_off_c, 1, 67, 64
3, 181735, Note_on_c, 1, 64, 91
3, 181783, Note_off_c, 1, 64, 64
3, 181789, Note_on_c, 1, 65, 76
3, 181847, Note_off_c, 1, 65, 64
3, 181848, Note_on_c, 1, 67, 85
3, 181884, Note_off_c, 1, 67, 64
3, 181915, Note_on_c, 1, 69, 89
3, 182026, Note_off_c, 1, 69, 64
3, 182033, Note_on_c, 1, 71, 78
3, 182087, Note_on_c, 1, 72, 82
3, 182095, Note_off_c, 1, 71, 64
3, 182134, Note_off_c, 1, 72, 64
3, 182153, Note_on_c, 1, 71, 98
3, 182211, Note_off_c, 1, 71, 64
3, 182276, Note_on_c, 1, 74, 91
3, 182319, Note_off_c, 1, 74, 64
3, 182391, Note_on_c, 1, 67, 82
3, 182502, Note_off_c, 1, 67, 64
3, 182512, Note_on_c, 1, 72, 85
3, 182567, Note_off_c, 1, 72, 64
3, 182567, Note_on_c, 1, 74, 82
3, 182625, Note_on_c, 1, 76, 68
3, 182628, Note_off_c, 1, 74, 64
3, 182675, Note_off_c, 1, 76, 64
3, 182680, Note_on_c, 1, 77, 57
3, 182721, Note_off_c, 1, 77, 64
3, 182742, Note_on_c, 1, 74, 64
3, 182793, Note_on_c, 1, 76, 78
3, 182794, Note_off_c, 1, 74, 64
3, 182836, Note_off_c, 1, 76, 64
3, 182861, Note_on_c, 1, 77, 82
3, 183032, Note_off_c, 1, 77, 64
3, 183053, Note_on_c, 1, 76, 85
3, 183103, Note_off_c, 1, 76, 64
3, 183111, Note_on_c, 1, 74, 91
3, 183167, Note_on_c, 1, 72, 78
3, 183168, Note_off_c, 1, 74, 64
3, 183215, Note_off_c, 1, 72, 64
3, 183220, Note_on_c, 1, 71, 70
3, 183268, Note_off_c, 1, 71, 64
3, 183277, Note_on_c, 1, 69, 89
3, 183317, Note_off_c, 1, 69, 64
3, 183342, Note_on_c, 1, 67, 85
3, 183490, Note_off_c, 1, 67, 64
3, 184922, Note_on_c, 1, 72, 80
3, 184966, Note_off_c, 1, 72, 64
3, 185035, Note_on_c, 1, 72, 87
3, 185080, Note_off_c, 1, 72, 64
3, 185152, Note_on_c, 1, 72, 87
3, 185194, Note_off_c, 1, 72, 64
3, 185263, Note_on_c, 1, 71, 85
3, 185380, Note_off_c, 1, 71, 64
3, 185388, Note_on_c, 1, 72, 68
3, 185433, Note_off_c, 1, 72, 64
3, 185437, Note_on_c, 1, 74, 74
3, 185491, Note_off_c, 1, 74, 64
3, 185504, Note_on_c, 1, 76, 82
3, 185550, Note_off_c, 1, 76, 64
3, 185625, Note_on_c, 1, 72, 82
3, 185672, Note_off_c, 1, 72, 64
3, 185747, Note_on_c, 1, 69, 80
3, 185798, Note_off_c, 1, 69, 64
3, 185866, Note_on_c, 1, 74, 87
3, 185907, Note_off_c, 1, 74, 64
3, 185985, Note_on_c, 1, 62, 82
3, 186042, Note_off_c, 1, 62, 64
3, 186104, Note_on_c, 1, 72, 82
3, 186151, Note_off_c, 1, 72, 64
3, 186232, Note_on_c, 1, 71, 87
3, 186289, Note_on_c, 1, 69, 80
3, 186293, Note_off_c, 1, 71, 64
3, 186345, Note_off_c, 1, 69, 64
3, 186347, Note_on_c, 1, 67, 72
3, 186399, Note_on_c, 1, 69, 76
3, 186407, Note_off_c, 1, 67, 64
3, 186444, Note_off_c, 1, 69, 64
3, 186461, Note_on_c, 1, 71, 98
3, 186516, Note_on_c, 1, 67, 80
3, 186517, Note_off_c, 1, 71, 64
3, 186565, Note_off_c, 1, 67, 64
3, 186581, Note_on_c, 1, 69, 76
3, 186630, Note_off_c, 1, 69, 64
3, 186636, Note_on_c, 1, 71, 72
3, 186676, Note_off_c, 1, 71, 64
3, 186703, Note_on_c, 1, 72, 87
3, 186838, Note_off_c, 1, 72, 64
3, 186880, Note_on_c, 1, 67, 60
3, 186915, Note_off_c, 1, 67, 64
3, 186948, Note_on_c, 1, 72, 85
3, 187077, Note_off_c, 1, 72, 64
3, 187126, Note_on_c, 1, 72, 82
3, 187159, Note_off_c, 1, 72, 64
3, 187189, Note_on_c, 1, 72, 89
3, 187304, Note_off_c, 1, 72, 64
3, 187346, Note_on_c, 1, 71, 61
3, 187374, Note_on_c, 1, 69, 72
3, 187378, Note_off_c, 1, 71, 64
3, 187400, Note_on_c, 1, 71, 63
3, 187406, Note_off_c, 1, 69, 64
3, 187428, Note_off_c, 1, 71, 64
3, 187428, Note_on_c, 1, 72, 78
3, 187452, Note_on_c, 1, 71, 87
3, 187457, Note_off_c, 1, 72, 64
3, 187475, Note_on_c, 1, 72, 82
3, 187479, Note_off_c, 1, 71, 64
3, 187499, Note_on_c, 1, 71, 87
3, 187515, Note_off_c, 1, 72, 64
3, 187565, Note_off_c, 1, 71, 64
3, 187604, Note_on_c, 1, 72, 78
3, 187638, Note_off_c, 1, 72, 64
3, 187668, Note_on_c, 1, 72, 89
3, 187764, Note_off_c, 1, 72, 64
3, 187790, Note_on_c, 1, 67, 80
3, 187837, Note_off_c, 1, 67, 64
3, 187847, Note_on_c, 1, 65, 78
3, 187889, Note_off_c, 1, 65, 64
3, 187909, Note_on_c, 1, 67, 95
3, 187956, Note_off_c, 1, 67, 64
3, 188026, Note_on_c, 1, 76, 93
3, 188067, Note_off_c, 1, 76, 64
3, 188152, Note_on_c, 1, 74, 93
3, 188210, Note_on_c, 1, 72, 87
3, 188217, Note_off_c, 1, 74, 64
3, 188260, Note_off_c, 1, 72, 64
3, 188269, Note_on_c, 1, 71, 87
3, 188320, Note_off_c, 1, 71, 64
3, 188326, Note_on_c, 1, 69, 87
3, 188376, Note_off_c, 1, 69, 64
3, 188384, Note_on_c, 1, 67, 85
3, 188467, Note_off_c, 1, 67, 64
3, 188507, Note_on_c, 1, 76, 91
3, 188562, Note_on_c, 1, 74, 85
3, 188570, Note_off_c, 1, 76, 64
3, 188613, Note_off_c, 1, 74, 64
3, 188630, Note_on_c, 1, 76, 95
3, 188667, Note_off_c, 1, 76, 64
3, 188752, Note_on_c, 1, 69, 76
3, 188811, Note_off_c, 1, 69, 64
3, 188878, Note_on_c, 1, 74, 93
3, 188936, Note_on_c, 1, 72, 85
3, 188940, Note_off_c, 1, 74, 64
3, 188987, Note_off_c, 1, 72, 64
3, 188989, Note_on_c, 1, 71, 82
3, 189047, Note_on_c, 1, 72, 91
3, 189051, Note_off_c, 1, 71, 64
3, 189091, Note_off_c, 1, 72, 64
3, 189112, Note_on_c, 1, 74, 87
3, 189382, Note_off_c, 1, 74, 64
3, 189408, Note_on_c, 1, 71, 80
3, 189450, Note_off_c, 1, 71, 64
3, 189464, Note_on_c, 1, 72, 87
3, 189504, Note_off_c, 1, 72, 64
3, 189521, Note_on_c, 1, 74, 87
3, 189563, Note_off_c, 1, 74, 64
3, 189591, Note_on_c, 1, 67, 80
3, 189830, Note_off_c, 1, 67, 64
3, 189887, Note_on_c, 1, 76, 80
3, 189938, Note_off_c, 1, 76, 64
3, 189939, Note_on_c, 1, 74, 95
3, 189990, Note_off_c, 1, 74, 64
3, 189994, Note_on_c, 1, 72, 82
3, 190040, Note_off_c, 1, 72, 64
3, 190064, Note_on_c, 1, 77, 91
3, 190205, Note_off_c, 1, 77, 64
3, 190247, Note_on_c, 1, 77, 91
3, 190284, Note_off_c, 1, 77, 64
3, 190313, Note_on_c, 1, 77, 95
3, 190371, Note_on_c, 1, 81, 87
3, 190379, Note_off_c, 1, 77, 64
3, 190420, Note_off_c, 1, 81, 64
3, 190425, Note_on_c, 1, 79, 85
3, 190469, Note_off_c, 1, 79, 64
3, 190483, Note_on_c, 1, 77, 95
3, 190526, Note_off_c, 1, 77, 64
3, 190550, Note_on_c, 1, 76, 98
3, 190817, Note_off_c, 1, 76, 64
3, 190856, Note_on_c, 1, 79, 85
3, 190899, Note_off_c, 1, 79, 64
3, 190915, Note_on_c, 1, 77, 89
3, 190950, Note_off_c, 1, 77, 64
3, 190966, Note_on_c, 1, 76, 100
3, 191008, Note_off_c, 1, 76, 64
3, 191025, Note_on_c, 1, 74, 85
3, 191166, Note_off_c, 1, 74, 64
3, 191199, Note_on_c, 1, 74, 100
3, 191233, Note_off_c, 1, 74, 64
3, 191260, Note_on_c, 1, 74, 89
3, 191319, Note_off_c, 1, 74, 64
3, 191319, Note_on_c, 1, 77, 85
3, 191371, Note_off_c, 1, 77, 64
3, 191382, Note_on_c, 1, 76, 82
3, 191426, Note_off_c, 1, 76, 64
3, 191440, Note_on_c, 1, 74, 95
3, 191484, Note_off_c, 1, 74, 64
3, 191507, Note_on_c, 1, 72, 82
3, 191786, Note_off_c, 1, 72, 64
3, 191808, Note_on_c, 1, 76, 82
3, 191856, Note_off_c, 1, 76, 64
3, 191867, Note_on_c, 1, 74, 85
3, 191910, Note_off_c, 1, 74, 64
3, 191918, Note_on_c, 1, 72, 89
3, 191962, Note_off_c, 1, 72, 64
3, 191980, Note_on_c, 1, 71, 87
3, 192046, Note_off_c, 1, 71, 64
3, 192105, Note_on_c, 1, 74, 87
3, 192155, Note_off_c, 1, 74, 64
3, 192230, Note_on_c, 1, 71, 87
3, 192283, Note_off_c, 1, 71, 64
3, 192352, Note_on_c, 1, 67, 85
3, 192405, Note_off_c, 1, 67, 64
3, 192481, Note_on_c, 1, 72, 89
3, 192656, Note_off_c, 1, 72, 64
3, 192752, Note_on_c, 1, 60, 89
3, 192815, Note_off_c, 1, 60, 64
3, 192816, Note_on_c, 1, 62, 80
3, 192876, Note_on_c, 1, 64, 82
3, 192880, Note_off_c, 1, 62, 64
3, 192925, Note_off_c, 1, 64, 64
3, 192946, Note_on_c, 1, 65, 91
3, 192998, Note_off_c, 1, 65, 64
3, 193006, Note_on_c, 1, 62, 85
3, 193059, Note_off_c, 1, 62, 64
3, 193069, Note_on_c, 1, 64, 82
3, 193127, Note_on_c, 1, 65, 82
3, 193129, Note_off_c, 1, 64, 64
3, 193172, Note_off_c, 1, 65, 64
3, 193190, Note_on_c, 1, 67, 87
3, 193320, Note_off_c, 1, 67, 64
3, 193362, Note_on_c, 1, 67, 87
3, 193398, Note_off_c, 1, 67, 64
3, 193426, Note_on_c, 1, 67, 89
3, 193478, Note_off_c, 1, 67, 64
3, 193481, Note_on_c, 1, 65, 70
3, 193526, Note_off_c, 1, 65, 64
3, 193543, Note_on_c, 1, 64, 89
3, 193594, Note_on_c, 1, 65, 80
3, 193597, Note_off_c, 1, 64, 64
3, 193626, Note_off_c, 1, 65, 64
3, 193660, Note_on_c, 1, 64, 98
3, 193690, Note_on_c, 1, 62, 80
3, 193691, Note_off_c, 1, 64, 64
3, 193712, Note_on_c, 1, 64, 76
3, 193718, Note_off_c, 1, 62, 64
3, 193740, Note_on_c, 1, 62, 82
3, 193750, Note_off_c, 1, 64, 64
3, 193793, Note_off_c, 1, 62, 64
3, 193840, Note_on_c, 1, 64, 74
3, 193876, Note_off_c, 1, 64, 64
3, 193906, Note_on_c, 1, 64, 95
3, 193971, Note_on_c, 1, 69, 91
3, 193972, Note_off_c, 1, 64, 64
3, 194018, Note_off_c, 1, 69, 64
3, 194030, Note_on_c, 1, 67, 70
3, 194066, Note_off_c, 1, 67, 64
3, 194086, Note_on_c, 1, 65, 78
3, 194134, Note_off_c, 1, 65, 64
3, 194151, Note_on_c, 1, 64, 78
3, 194198, Note_off_c, 1, 64, 64
3, 194203, Note_on_c, 1, 62, 70
3, 194259, Note_on_c, 1, 64, 64
3, 194262, Note_off_c, 1, 62, 64
3, 194302, Note_off_c, 1, 64, 64
3, 194317, Note_on_c, 1, 60, 61
3, 194368, Note_off_c, 1, 60, 64
3, 194379, Note_on_c, 1, 67, 68
3, 194547, Note_off_c, 1, 67, 64
3, 204654, Note_on_c, 1, 65, 87
3, 204693, Note_off_c, 1, 65, 64
3, 204713, Note_on_c, 1, 64, 64
3, 204811, Note_off_c, 1, 64, 64
3, 204878, Note_on_c, 1, 65, 80
3, 204915, Note_off_c, 1, 65, 64
3, 204946, Note_on_c, 1, 67, 80
3, 205220, Note_off_c, 1, 67, 64
3, 205248, Note_on_c, 1, 67, 72
3, 205293, Note_off_c, 1, 67, 64
3, 205314, Note_on_c, 1, 65, 82
3, 205356, Note_off_c, 1, 65, 64
3, 205371, Note_on_c, 1, 64, 89
3, 205411, Note_off_c, 1, 64, 64
3, 205433, Note_on_c, 1, 62, 87
3, 205536, Note_off_c, 1, 62, 64
3, 205608, Note_on_c, 1, 65, 85
3, 205651, Note_off_c, 1, 65, 64
3, 205671, Note_on_c, 1, 64, 89
3, 205766, Note_off_c, 1, 64, 64
3, 205850, Note_on_c, 1, 62, 82
3, 205888, Note_off_c, 1, 62, 64
3, 205909, Note_on_c, 1, 60, 85
3, 206036, Note_off_c, 1, 60, 64
3, 206084, Note_on_c, 1, 62, 78
3, 206111, Note_on_c, 1, 64, 62
3, 206117, Note_off_c, 1, 62, 64
3, 206144, Note_on_c, 1, 65, 66
3, 206145, Note_off_c, 1, 64, 64
3, 206176, Note_on_c, 1, 64, 62
3, 206181, Note_off_c, 1, 65, 64
3, 206200, Note_off_c, 1, 64, 64
3, 206201, Note_on_c, 1, 65, 70
3, 206225, Note_on_c, 1, 64, 62
3, 206228, Note_off_c, 1, 65, 64
3, 206240, Note_off_c, 1, 64, 64
3, 206243, Note_on_c, 1, 65, 70
3, 206264, Note_on_c, 1, 64, 62
3, 206267, Note_off_c, 1, 65, 64
3, 206281, Note_off_c, 1, 64, 64
3, 206282, Note_on_c, 1, 65, 76
3, 206300, Note_off_c, 1, 65, 64
3, 206300, Note_on_c, 1, 64, 64
3, 206315, Note_on_c, 1, 65, 68
3, 206317, Note_off_c, 1, 64, 64
3, 206328, Note_on_c, 1, 64, 64
3, 206337, Note_off_c, 1, 65, 64
3, 206345, Note_on_c, 1, 62, 78
3, 206351, Note_off_c, 1, 64, 64
3, 206372, Note_on_c, 1, 64, 82
3, 206382, Note_off_c, 1, 62, 64
3, 206402, Note_off_c, 1, 64, 64
3, 206402, Note_on_c, 1, 65, 89
3, 206503, Note_off_c, 1, 65, 64
3, 206570, Note_on_c, 1, 69, 89
3, 206609, Note_off_c, 1, 69, 64
3, 206630, Note_on_c, 1, 65, 85
3, 206725, Note_off_c, 1, 65, 64
3, 206808, Note_on_c, 1, 64, 74
3, 206850, Note_off_c, 1, 64, 64
3, 206873, Note_on_c, 1, 62, 87
3, 206957, Note_off_c, 1, 62, 64
3, 207039, Note_on_c, 1, 69, 82
3, 207079, Note_off_c, 1, 69, 64
3, 207107, Note_on_c, 1, 74, 91
3, 207454, Note_off_c, 1, 74, 64
3, 207516, Note_on_c, 1, 77, 85
3, 207565, Note_off_c, 1, 77, 64
3, 207580, Note_on_c, 1, 76, 91
3, 207663, Note_off_c, 1, 76, 64
3, 207763, Note_on_c, 1, 74, 85
3, 207796, Note_off_c, 1, 74, 64
3, 207824, Note_on_c, 1, 74, 85
3, 207878, Note_on_c, 1, 73, 56
3, 207883, Note_off_c, 1, 74, 64
3, 207903, Note_off_c, 1, 73, 64
3, 207904, Note_on_c, 1, 74, 78
3, 207927, Note_on_c, 1, 73, 52
3, 207929, Note_off_c, 1, 74, 64
3, 207942, Note_off_c, 1, 73, 64
3, 207943, Note_on_c, 1, 74, 72
3, 207963, Note_on_c, 1, 73, 57
3, 207966, Note_off_c, 1, 74, 64
3, 207979, Note_on_c, 1, 74, 76
3, 207981, Note_off_c, 1, 73, 64
3, 207999, Note_on_c, 1, 73, 62
3, 208000, Note_off_c, 1, 74, 64
3, 208016, Note_on_c, 1, 74, 85
3, 208020, Note_off_c, 1, 73, 64
3, 208034, Note_on_c, 1, 73, 64
3, 208039, Note_off_c, 1, 74, 64
3, 208053, Note_on_c, 1, 74, 85
3, 208056, Note_off_c, 1, 73, 64
3, 208071, Note_on_c, 1, 73, 80
3, 208079, Note_off_c, 1, 74, 64
3, 208196, Note_off_c, 1, 73, 64
3, 208249, Note_on_c, 1, 73, 68
3, 208290, Note_off_c, 1, 73, 64
3, 208310, Note_on_c, 1, 74, 89
3, 208407, Note_off_c, 1, 74, 64
3, 208490, Note_on_c, 1, 69, 80
3, 208532, Note_off_c, 1, 69, 64
3, 208556, Note_on_c, 1, 74, 98
3, 208642, Note_off_c, 1, 74, 64
3, 208732, Note_on_c, 1, 72, 85
3, 208766, Note_off_c, 1, 72, 64
3, 208796, Note_on_c, 1, 72, 85
3, 208851, Note_on_c, 1, 71, 63
3, 208858, Note_off_c, 1, 72, 64
3, 208876, Note_off_c, 1, 71, 64
3, 208876, Note_on_c, 1, 72, 63
3, 208898, Note_on_c, 1, 71, 58
3, 208899, Note_off_c, 1, 72, 64
3, 208914, Note_off_c, 1, 71, 64
3, 208915, Note_on_c, 1, 72, 63
3, 208932, Note_on_c, 1, 71, 64
3, 208934, Note_off_c, 1, 72, 64
3, 208949, Note_off_c, 1, 71, 64
3, 208949, Note_on_c, 1, 72, 66
3, 208969, Note_on_c, 1, 71, 63
3, 208971, Note_off_c, 1, 72, 64
3, 208987, Note_off_c, 1, 71, 64
3, 208987, Note_on_c, 1, 72, 64
3, 209000, Note_on_c, 1, 71, 72
3, 209003, Note_off_c, 1, 72, 64
3, 209018, Note_on_c, 1, 72, 66
3, 209020, Note_off_c, 1, 71, 64
3, 209033, Note_on_c, 1, 71, 76
3, 209041, Note_off_c, 1, 72, 64
3, 209173, Note_off_c, 1, 71, 64
3, 209221, Note_on_c, 1, 72, 85
3, 209258, Note_off_c, 1, 72, 64
3, 209279, Note_on_c, 1, 74, 85
3, 209367, Note_off_c, 1, 74, 64
3, 209446, Note_on_c, 1, 72, 82
3, 209487, Note_off_c, 1, 72, 64
3, 209504, Note_on_c, 1, 74, 82
3, 209585, Note_off_c, 1, 74, 64
3, 209693, Note_on_c, 1, 71, 82
3, 209722, Note_off_c, 1, 71, 64
3, 209750, Note_on_c, 1, 72, 93
3, 209843, Note_off_c, 1, 72, 64
3, 209927, Note_on_c, 1, 74, 78
3, 209970, Note_off_c, 1, 74, 64
3, 209992, Note_on_c, 1, 76, 87
3, 210071, Note_off_c, 1, 76, 64
3, 210167, Note_on_c, 1, 79, 85
3, 210206, Note_off_c, 1, 79, 64
3, 210229, Note_on_c, 1, 72, 85
3, 210320, Note_off_c, 1, 72, 64
3, 210404, Note_on_c, 1, 72, 78
3, 210445, Note_off_c, 1, 72, 64
3, 210469, Note_on_c, 1, 77, 100
3, 210547, Note_off_c, 1, 77, 64
3, 210640, Note_on_c, 1, 76, 80
3, 210685, Note_off_c, 1, 76, 64
3, 210712, Note_on_c, 1, 77, 100
3, 210975, Note_off_c, 1, 77, 64
3, 211000, Note_on_c, 1, 76, 82
3, 211040, Note_off_c, 1, 76, 64
3, 211059, Note_on_c, 1, 74, 87
3, 211092, Note_off_c, 1, 74, 64
3, 211113, Note_on_c, 1, 72, 82
3, 211147, Note_off_c, 1, 72, 64
3, 211175, Note_on_c, 1, 71, 78
3, 211563, Note_off_c, 1, 71, 64
3, 211597, Note_on_c, 1, 74, 85
3, 211640, Note_off_c, 1, 74, 64
3, 211675, Note_on_c, 1, 67, 85
3, 212025, Note_off_c, 1, 67, 64
3, 212087, Note_on_c, 1, 67, 85
3, 212123, Note_off_c, 1, 67, 64
3, 212155, Note_on_c, 1, 67, 82
3, 212420, Note_off_c, 1, 67, 64
3, 212445, Note_on_c, 1, 69, 87
3, 212486, Note_off_c, 1, 69, 64
3, 212501, Note_on_c, 1, 71, 82
3, 212542, Note_off_c, 1, 71, 64
3, 212557, Note_on_c, 1, 72, 89
3, 212601, Note_off_c, 1, 72, 64
3, 212622, Note_on_c, 1, 74, 93
3, 212985, Note_off_c, 1, 74, 64
3, 213044, Note_on_c, 1, 74, 87
3, 213082, Note_off_c, 1, 74, 64
3, 213106, Note_on_c, 1, 74, 91
3, 213212, Note_off_c, 1, 74, 64
3, 213288, Note_on_c, 1, 72, 80
3, 213311, Note_on_c, 1, 71, 74
3, 213318, Note_off_c, 1, 72, 64
3, 213343, Note_off_c, 1, 71, 64
3, 213353, Note_on_c, 1, 72, 95
3, 213448, Note_off_c, 1, 72, 64
3, 213529, Note_on_c, 1, 69, 85
3, 213567, Note_off_c, 1, 69, 64
3, 213590, Note_on_c, 1, 67, 85
3, 213955, Note_off_c, 1, 67, 64
3, 214006, Note_on_c, 1, 67, 82
3, 214044, Note_off_c, 1, 67, 64
3, 214074, Note_on_c, 1, 69, 91
3, 214096, Note_on_c, 1, 67, 89
3, 214100, Note_off_c, 1, 69, 64
3, 214117, Note_on_c, 1, 69, 78
3, 214121, Note_off_c, 1, 67, 64
3, 214136, Note_on_c, 1, 67, 85
3, 214152, Note_off_c, 1, 69, 64
3, 214191, Note_off_c, 1, 67, 64
3, 214247, Note_on_c, 1, 65, 72
3, 214273, Note_on_c, 1, 64, 78
3, 214279, Note_off_c, 1, 65, 64
3, 214304, Note_off_c, 1, 64, 64
3, 214314, Note_on_c, 1, 65, 93
3, 214415, Note_off_c, 1, 65, 64
3, 214490, Note_on_c, 1, 67, 80
3, 214534, Note_off_c, 1, 67, 64
3, 214548, Note_on_c, 1, 69, 85
3, 214654, Note_off_c, 1, 69, 64
3, 214724, Note_on_c, 1, 67, 82
3, 214767, Note_off_c, 1, 67, 64
3, 214788, Note_on_c, 1, 65, 95
3, 214870, Note_off_c, 1, 65, 64
3, 214971, Note_on_c, 1, 64, 85
3, 215012, Note_off_c, 1, 64, 64
3, 215030, Note_on_c, 1, 65, 91
3, 215157, Note_off_c, 1, 65, 64
3, 215281, Note_on_c, 1, 69, 89
3, 215392, Note_off_c, 1, 69, 64
3, 215518, Note_on_c, 1, 74, 87
3, 215869, Note_off_c, 1, 74, 64
3, 215933, Note_on_c, 1, 72, 82
3, 215977, Note_off_c, 1, 72, 64
3, 215990, Note_on_c, 1, 71, 80
3, 216108, Note_off_c, 1, 71, 64
3, 216166, Note_on_c, 1, 71, 68
3, 216215, Note_off_c, 1, 71, 64
3, 216231, Note_on_c, 1, 72, 89
3, 216329, Note_off_c, 1, 72, 64
3, 216411, Note_on_c, 1, 74, 85
3, 216448, Note_off_c, 1, 74, 64
3, 216470, Note_on_c, 1, 67, 82
3, 216575, Note_off_c, 1, 67, 64
3, 216647, Note_on_c, 1, 70, 80
3, 216693, Note_off_c, 1, 70, 64
3, 216708, Note_on_c, 1, 69, 82
3, 216793, Note_off_c, 1, 69, 64
3, 216882, Note_on_c, 1, 67, 78
3, 216924, Note_off_c, 1, 67, 64
3, 216946, Note_on_c, 1, 65, 82
3, 217064, Note_off_c, 1, 65, 64
3, 217130, Note_on_c, 1, 67, 85
3, 217174, Note_off_c, 1, 67, 64
3, 217191, Note_on_c, 1, 69, 85
3, 217279, Note_off_c, 1, 69, 64
3, 217359, Note_on_c, 1, 65, 80
3, 217406, Note_off_c, 1, 65, 64
3, 217431, Note_on_c, 1, 62, 87
3, 217520, Note_off_c, 1, 62, 64
3, 217598, Note_on_c, 1, 67, 74
3, 217648, Note_off_c, 1, 67, 64
3, 217671, Note_on_c, 1, 74, 98
3, 217756, Note_off_c, 1, 74, 64
3, 217851, Note_on_c, 1, 72, 87
3, 217892, Note_off_c, 1, 72, 64
3, 217908, Note_on_c, 1, 71, 82
3, 218007, Note_off_c, 1, 71, 64
3, 218007, End_track
4, 0, Start_track
4, 0, Title_t, "Viola"
4, 0, Program_c, 2, 41
4, 0, Control_c, 2, 7, 100
4, 956, Note_on_c, 2, 67, 87
4, 1541, Note_off_c, 2, 67, 64
4, 1601, Note_on_c, 2, 67, 82
4, 1647, Note_off_c, 2, 67, 64
4, 1673, Note_on_c, 2, 60, 68
4, 1752, Note_off_c, 2, 60, 64
4, 1849, Note_on_c, 2, 64, 78
4, 1885, Note_off_c, 2, 64, 64
4, 1917, Note_on_c, 2, 65, 64
4, 2265, Note_off_c, 2, 65, 64
4, 2327, Note_on_c, 2, 69, 87
4, 2368, Note_off_c, 2, 69, 64
4, 2391, Note_on_c, 2, 67, 68
4, 2469, Note_off_c, 2, 67, 64
4, 2562, Note_on_c, 2, 69, 80
4, 2601, Note_off_c, 2, 69, 64
4, 2624, Note_on_c, 2, 67, 87
4, 2711, Note_off_c, 2, 67, 64
4, 2803, Note_on_c, 2, 65, 66
4, 2837, Note_off_c, 2, 65, 64
4, 2870, Note_on_c, 2, 64, 68
4, 3246, Note_off_c, 2, 64, 64
4, 3300, Note_on_c, 2, 64, 85
4, 3331, Note_off_c, 2, 64, 64
4, 3359, Note_on_c, 2, 62, 76
4, 3722, Note_off_c, 2, 62, 64
4, 3778, Note_on_c, 2, 62, 89
4, 3804, Note_off_c, 2, 62, 64
4, 3835, Note_on_c, 2, 62, 82
4, 4003, Note_off_c, 2, 62, 64
4, 4072, Note_on_c, 2, 67, 85
4, 4217, Note_off_c, 2, 67, 64
4, 4311, Note_on_c, 2, 67, 82
4, 4677, Note_off_c, 2, 67, 64
4, 4737, Note_on_c, 2, 67, 82
4, 4768, Note_off_c, 2, 67, 64
4, 4799, Note_on_c, 2, 67, 80
4, 5423, Note_off_c, 2, 67, 64
4, 5453, Note_on_c, 2, 62, 76
4, 5483, Note_off_c, 2, 62, 64
4, 5514, Note_on_c, 2, 67, 89
4, 5603, Note_off_c, 2, 67, 64
4, 5693, Note_on_c, 2, 66, 66
4, 5732, Note_off_c, 2, 66, 64
4, 5757, Note_on_c, 2, 64, 85
4, 5858, Note_off_c, 2, 64, 64
4, 5928, Note_on_c, 2, 67, 64
4, 5971, Note_off_c, 2, 67, 64
4, 5994, Note_on_c, 2, 69, 85
4, 6091, Note_off_c, 2, 69, 64
4, 6165, Note_on_c, 2, 71, 78
4, 6202, Note_off_c, 2, 71, 64
4, 6231, Note_on_c, 2, 72, 70
4, 6340, Note_off_c, 2, 72, 64
4, 6399, Note_on_c, 2, 71, 74
4, 6435, Note_off_c, 2, 71, 64
4, 6466, Note_on_c, 2, 69, 82
4, 6566, Note_off_c, 2, 69, 64
4, 6646, Note_on_c, 2, 57, 68
4, 6696, Note_off_c, 2, 57, 64
4, 6726, Note_on_c, 2, 64, 72
4, 7317, Note_off_c, 2, 64, 64
4, 7371, Note_on_c, 2, 64, 80
4, 7411, Note_off_c, 2, 64, 64
4, 7433, Note_on_c, 2, 71, 82
4, 7533, Note_off_c, 2, 71, 64
4, 7610, Note_on_c, 2, 71, 82
4, 7649, Note_off_c, 2, 71, 64
4, 7680, Note_on_c, 2, 69, 87
4, 8275, Note_off_c, 2, 69, 64
4, 8320, Note_on_c, 2, 62, 66
4, 8361, Note_off_c, 2, 62, 64
4, 8386, Note_on_c, 2, 69, 85
4, 8493, Note_off_c, 2, 69, 64
4, 8565, Note_on_c, 2, 69, 85
4, 8600, Note_off_c, 2, 69, 64
4, 8626, Note_on_c, 2, 69, 82
4, 8729, Note_off_c, 2, 69, 64
4, 8798, Note_on_c, 2, 67, 80
4, 8839, Note_off_c, 2, 67, 64
4, 8864, Note_on_c, 2, 66, 76
4, 8955, Note_off_c, 2, 66, 64
4, 9050, Note_on_c, 2, 69, 82
4, 9090, Note_off_c, 2, 69, 64
4, 9116, Note_on_c, 2, 62, 82
4, 9198, Note_off_c, 2, 62, 64
4, 9283, Note_on_c, 2, 67, 82
4, 9325, Note_off_c, 2, 67, 64
4, 9348, Note_on_c, 2, 66, 70
4, 9432, Note_off_c, 2, 66, 64
4, 9531, Note_on_c, 2, 69, 82
4, 9566, Note_off_c, 2, 69, 64
4, 9595, Note_on_c, 2, 67, 82
4, 10156, Note_off_c, 2, 67, 64
4, 10194, Note_on_c, 2, 59, 66
4, 10242, Note_off_c, 2, 59, 64
4, 10256, Note_on_c, 2, 60, 70
4, 10297, Note_off_c, 2, 60, 64
4, 10319, Note_on_c, 2, 62, 85
4, 10358, Note_off_c, 2, 62, 64
4, 10377, Note_on_c, 2, 59, 85
4, 10413, Note_off_c, 2, 59, 64
4, 10437, Note_on_c, 2, 60, 98
4, 10471, Note_off_c, 2, 60, 64
4, 10493, Note_on_c, 2, 62, 89
4, 10531, Note_off_c, 2, 62, 64
4, 10565, Note_on_c, 2, 55, 74
4, 11164, Note_off_c, 2, 55, 64
4, 11215, Note_on_c, 2, 55, 82
4, 11254, Note_off_c, 2, 55, 64
4, 11277, Note_on_c, 2, 60, 80
4, 11363, Note_off_c, 2, 60, 64
4, 11436, Note_on_c, 2, 62, 72
4, 11478, Note_off_c, 2, 62, 64
4, 11506, Note_on_c, 2, 64, 85
4, 11686, Note_off_c, 2, 64, 64
4, 11758, Note_on_c, 2, 57, 78
4, 11912, Note_off_c, 2, 57, 64
4, 11994, Note_on_c, 2, 60, 68
4, 12342, Note_off_c, 2, 60, 64
4, 12401, Note_on_c, 2, 57, 78
4, 12438, Note_off_c, 2, 57, 64
4, 12478, Note_on_c, 2, 64, 91
4, 12848, Note_off_c, 2, 64, 64
4, 12884, Note_on_c, 2, 59, 72
4, 12922, Note_off_c, 2, 59, 64
4, 12954, Note_on_c, 2, 64, 89
4, 13044, Note_off_c, 2, 64, 64
4, 13123, Note_on_c, 2, 62, 70
4, 13161, Note_off_c, 2, 62, 64
4, 13195, Note_on_c, 2, 64, 91
4, 13278, Note_off_c, 2, 64, 64
4, 13369, Note_on_c, 2, 60, 66
4, 13408, Note_off_c, 2, 60, 64
4, 13442, Note_on_c, 2, 67, 80
4, 13811, Note_off_c, 2, 67, 64
4, 13848, Note_on_c, 2, 62, 78
4, 13882, Note_off_c, 2, 62, 64
4, 13913, Note_on_c, 2, 69, 87
4, 14017, Note_off_c, 2, 69, 64
4, 14080, Note_on_c, 2, 67, 80
4, 14127, Note_off_c, 2, 67, 64
4, 14148, Note_on_c, 2, 69, 82
4, 14239, Note_off_c, 2, 69, 64
4, 14322, Note_on_c, 2, 64, 85
4, 14367, Note_off_c, 2, 64, 64
4, 14396, Note_on_c, 2, 57, 82
4, 14496, Note_off_c, 2, 57, 64
4, 14563, Note_on_c, 2, 69, 82
4, 14608, Note_off_c, 2, 69, 64
4, 14630, Note_on_c, 2, 62, 78
4, 14729, Note_off_c, 2, 62, 64
4, 14797, Note_on_c, 2, 64, 78
4, 14836, Note_off_c, 2, 64, 64
4, 14869, Note_on_c, 2, 64, 78
4, 14936, Note_on_c, 2, 62, 53
4, 14941, Note_off_c, 2, 64, 64
4, 14962, Note_off_c, 2, 62, 64
4, 14964, Note_on_c, 2, 64, 68
4, 14989, Note_off_c, 2, 64, 64
4, 14989, Note_on_c, 2, 62, 63
4, 15005, Note_off_c, 2, 62, 64
4, 15008, Note_on_c, 2, 64, 66
4, 15025, Note_off_c, 2, 64, 64
4, 15026, Note_on_c, 2, 62, 74
4, 15044, Note_on_c, 2, 64, 82
4, 15046, Note_off_c, 2, 62, 64
4, 15061, Note_on_c, 2, 62, 62
4, 15068, Note_off_c, 2, 64, 64
4, 15110, Note_on_c, 2, 60, 68
4, 15117, Note_off_c, 2, 62, 64
4, 15294, Note_off_c, 2, 60, 64
4, 15353, Note_on_c, 2, 59, 74
4, 16268, Note_off_c, 2, 59, 64
4, 33702, Note_on_c, 2, 67, 80
4, 33742, Note_off_c, 2, 67, 64
4, 33826, Note_on_c, 2, 67, 82
4, 33869, Note_off_c, 2, 67, 64
4, 33943, Note_on_c, 2, 67, 80
4, 33985, Note_off_c, 2, 67, 64
4, 34064, Note_on_c, 2, 64, 80
4, 34174, Note_off_c, 2, 64, 64
4, 34181, Note_on_c, 2, 65, 64
4, 34232, Note_off_c, 2, 65, 64
4, 34236, Note_on_c, 2, 67, 80
4, 34280, Note_off_c, 2, 67, 64
4, 34299, Note_on_c, 2, 69, 85
4, 34336, Note_off_c, 2, 69, 64
4, 34415, Note_on_c, 2, 65, 66
4, 34463, Note_off_c, 2, 65, 64
4, 34544, Note_on_c, 2, 62, 82
4, 34591, Note_off_c, 2, 62, 64
4, 34663, Note_on_c, 2, 67, 89
4, 34703, Note_off_c, 2, 67, 64
4, 34787, Note_on_c, 2, 55, 80
4, 34839, Note_off_c, 2, 55, 64
4, 34904, Note_on_c, 2, 65, 74
4, 34950, Note_off_c, 2, 65, 64
4, 35034, Note_on_c, 2, 64, 89
4, 35094, Note_on_c, 2, 62, 78
4, 35096, Note_off_c, 2, 64, 64
4, 35153, Note_off_c, 2, 62, 64
4, 35154, Note_on_c, 2, 60, 70
4, 35208, Note_on_c, 2, 62, 68
4, 35212, Note_off_c, 2, 60, 64
4, 35258, Note_off_c, 2, 62, 64
4, 35269, Note_on_c, 2, 64, 80
4, 35317, Note_off_c, 2, 64, 64
4, 35322, Note_on_c, 2, 62, 78
4, 35385, Note_off_c, 2, 62, 64
4, 35387, Note_on_c, 2, 64, 70
4, 35443, Note_on_c, 2, 66, 68
4, 35445, Note_off_c, 2, 64, 64
4, 35483, Note_off_c, 2, 66, 64
4, 35510, Note_on_c, 2, 67, 87
4, 35611, Note_off_c, 2, 67, 64
4, 35687, Note_on_c, 2, 62, 64
4, 35715, Note_off_c, 2, 62, 64
4, 35753, Note_on_c, 2, 67, 91
4, 35855, Note_off_c, 2, 67, 64
4, 35923, Note_on_c, 2, 67, 74
4, 35953, Note_off_c, 2, 67, 64
4, 35991, Note_on_c, 2, 67, 95
4, 36095, Note_off_c, 2, 67, 64
4, 36139, Note_on_c, 2, 66, 58
4, 36170, Note_on_c, 2, 64, 58
4, 36173, Note_off_c, 2, 66, 64
4, 36197, Note_on_c, 2, 66, 66
4, 36206, Note_off_c, 2, 64, 64
4, 36227, Note_on_c, 2, 67, 72
4, 36229, Note_off_c, 2, 66, 64
4, 36259, Note_on_c, 2, 66, 82
4, 36264, Note_off_c, 2, 67, 64
4, 36286, Note_on_c, 2, 67, 82
4, 36292, Note_off_c, 2, 66, 64
4, 36311, Note_on_c, 2, 66, 70
4, 36328, Note_off_c, 2, 67, 64
4, 36368, Note_off_c, 2, 66, 64
4, 36396, Note_on_c, 2, 67, 80
4, 36436, Note_off_c, 2, 67, 64
4, 36468, Note_on_c, 2, 67, 82
4, 36521, Note_on_c, 2, 69, 82
4, 36536, Note_off_c, 2, 67, 64
4, 36575, Note_on_c, 2, 71, 70
4, 36577, Note_off_c, 2, 69, 64
4, 36630, Note_off_c, 2, 71, 64
4, 36631, Note_on_c, 2, 72, 72
4, 36681, Note_off_c, 2, 72, 64
4, 36701, Note_on_c, 2, 74, 100
4, 36747, Note_off_c, 2, 74, 64
4, 36819, Note_on_c, 2, 67, 85
4, 36863, Note_off_c, 2, 67, 64
4, 36944, Note_on_c, 2, 72, 72
4, 37092, Note_off_c, 2, 72, 64
4, 37177, Note_on_c, 2, 64, 85
4, 37304, Note_off_c, 2, 64, 64
4, 37350, Note_on_c, 2, 64, 68
4, 37391, Note_off_c, 2, 64, 64
4, 37422, Note_on_c, 2, 69, 89
4, 37472, Note_off_c, 2, 69, 64
4, 37546, Note_on_c, 2, 57, 78
4, 37601, Note_off_c, 2, 57, 64
4, 37666, Note_on_c, 2, 62, 87
4, 37806, Note_off_c, 2, 62, 64
4, 37847, Note_on_c, 2, 62, 64
4, 37886, Note_off_c, 2, 62, 64
4, 37912, Note_on_c, 2, 67, 93
4, 37960, Note_off_c, 2, 67, 64
4, 38032, Note_on_c, 2, 55, 89
4, 38087, Note_off_c, 2, 55, 64
4, 38152, Note_on_c, 2, 60, 74
4, 38286, Note_off_c, 2, 60, 64
4, 38327, Note_on_c, 2, 60, 57
4, 38360, Note_off_c, 2, 60, 64
4, 38397, Note_on_c, 2, 65, 78
4, 38447, Note_off_c, 2, 65, 64
4, 38522, Note_on_c, 2, 53, 78
4, 38571, Note_off_c, 2, 53, 64
4, 38640, Note_on_c, 2, 59, 82
4, 38771, Note_off_c, 2, 59, 64
4, 38815, Note_on_c, 2, 59, 63
4, 38856, Note_off_c, 2, 59, 64
4, 38877, Note_on_c, 2, 64, 93
4, 38923, Note_off_c, 2, 64, 64
4, 38991, Note_on_c, 2, 52, 87
4, 39046, Note_off_c, 2, 52, 64
4, 39110, Note_on_c, 2, 57, 85
4, 39239, Note_off_c, 2, 57, 64
4, 39286, Note_on_c, 2, 57, 64
4, 39315, Note_off_c, 2, 57, 64
4, 39354, Note_on_c, 2, 62, 80
4, 39402, Note_on_c, 2, 60, 64
4, 39414, Note_off_c, 2, 62, 64
4, 39453, Note_off_c, 2, 60, 64
4, 39463, Note_on_c, 2, 62, 63
4, 39505, Note_off_c, 2, 62, 64
4, 39512, Note_on_c, 2, 59, 78
4, 39561, Note_off_c, 2, 59, 64
4, 39583, Note_on_c, 2, 64, 89
4, 39644, Note_off_c, 2, 64, 64
4, 39704, Note_on_c, 2, 62, 85
4, 39744, Note_off_c, 2, 62, 64
4, 39828, Note_on_c, 2, 60, 80
4, 39939, Note_off_c, 2, 60, 64
4, 39947, Note_on_c, 2, 62, 78
4, 39992, Note_on_c, 2, 64, 78
4, 39997, Note_off_c, 2, 62, 64
4, 40042, Note_off_c, 2, 64, 64
4, 40058, Note_on_c, 2, 65, 85
4, 40117, Note_off_c, 2, 65, 64
4, 40193, Note_on_c, 2, 65, 82
4, 40240, Note_off_c, 2, 65, 64
4, 40313, Note_on_c, 2, 67, 87
4, 40362, Note_off_c, 2, 67, 64
4, 40429, Note_on_c, 2, 62, 64
4, 40434, Note_on_c, 2, 64, 64
4, 40468, Note_off_c, 2, 64, 64
4, 40488, Note_off_c, 2, 62, 64
4, 40547, Note_on_c, 2, 67, 85
4, 40600, Note_off_c, 2, 67, 64
4, 40666, Note_on_c, 2, 71, 87
4, 40719, Note_off_c, 2, 71, 64
4, 40788, Note_on_c, 2, 67, 85
4, 40848, Note_off_c, 2, 67, 64
4, 40909, Note_on_c, 2, 69, 85
4, 40960, Note_off_c, 2, 69, 64
4, 41024, Note_on_c, 2, 62, 80
4, 41073, Note_off_c, 2, 62, 64
4, 41144, Note_on_c, 2, 67, 89
4, 41192, Note_off_c, 2, 67, 64
4, 41270, Note_on_c, 2, 64, 89
4, 41412, Note_off_c, 2, 64, 64
4, 46617, Note_on_c, 2, 57, 80
4, 46678, Note_off_c, 2, 57, 64
4, 46678, Note_on_c, 2, 59, 80
4, 46731, Note_on_c, 2, 60, 68
4, 46734, Note_off_c, 2, 59, 64
4, 46774, Note_off_c, 2, 60, 64
4, 46797, Note_on_c, 2, 62, 78
4, 46843, Note_off_c, 2, 62, 64
4, 46849, Note_on_c, 2, 59, 66
4, 46906, Note_on_c, 2, 60, 52
4, 46908, Note_off_c, 2, 59, 64
4, 46956, Note_off_c, 2, 60, 64
4, 46956, Note_on_c, 2, 62, 63
4, 47021, Note_off_c, 2, 62, 64
4, 47024, Note_on_c, 2, 64, 74
4, 47077, Note_on_c, 2, 65, 89
4, 47088, Note_off_c, 2, 64, 64
4, 47132, Note_off_c, 2, 65, 64
4, 47141, Note_on_c, 2, 64, 61
4, 47187, Note_off_c, 2, 64, 64
4, 47200, Note_on_c, 2, 62, 60
4, 47242, Note_off_c, 2, 62, 64
4, 47266, Note_on_c, 2, 60, 66
4, 47323, Note_on_c, 2, 62, 59
4, 47327, Note_off_c, 2, 60, 64
4, 47368, Note_off_c, 2, 62, 64
4, 47378, Note_on_c, 2, 64, 53
4, 47429, Note_off_c, 2, 64, 64
4, 47429, Note_on_c, 2, 60, 57
4, 47471, Note_off_c, 2, 60, 64
4, 47504, Note_on_c, 2, 62, 68
4, 47549, Note_off_c, 2, 62, 64
4, 47628, Note_on_c, 2, 62, 91
4, 47677, Note_off_c, 2, 62, 64
4, 47749, Note_on_c, 2, 62, 87
4, 47800, Note_off_c, 2, 62, 64
4, 47866, Note_on_c, 2, 62, 85
4, 47912, Note_off_c, 2, 62, 64
4, 47981, Note_on_c, 2, 59, 82
4, 48098, Note_off_c, 2, 59, 64
4, 48098, Note_on_c, 2, 60, 66
4, 48152, Note_off_c, 2, 60, 64
4, 48154, Note_on_c, 2, 62, 76
4, 48202, Note_off_c, 2, 62, 64
4, 48221, Note_on_c, 2, 64, 78
4, 48267, Note_off_c, 2, 64, 64
4, 48339, Note_on_c, 2, 60, 68
4, 48390, Note_off_c, 2, 60, 64
4, 48458, Note_on_c, 2, 57, 76
4, 48511, Note_off_c, 2, 57, 64
4, 48581, Note_on_c, 2, 62, 82
4, 48622, Note_off_c, 2, 62, 64
4, 48701, Note_on_c, 2, 52, 80
4, 48758, Note_off_c, 2, 52, 64
4, 48824, Note_on_c, 2, 64, 78
4, 48865, Note_off_c, 2, 64, 64
4, 48939, Note_on_c, 2, 64, 80
4, 48994, Note_off_c, 2, 64, 64
4, 49060, Note_on_c, 2, 69, 85
4, 49112, Note_off_c, 2, 69, 64
4, 49184, Note_on_c, 2, 64, 85
4, 49239, Note_off_c, 2, 64, 64
4, 49306, Note_on_c, 2, 66, 82
4, 49355, Note_off_c, 2, 66, 64
4, 49423, Note_on_c, 2, 67, 80
4, 49482, Note_off_c, 2, 67, 64
4, 49544, Note_on_c, 2, 63, 70
4, 49595, Note_off_c, 2, 63, 64
4, 49661, Note_on_c, 2, 64, 85
4, 49804, Note_off_c, 2, 64, 64
4, 49845, Note_on_c, 2, 64, 80
4, 49878, Note_off_c, 2, 64, 64
4, 49913, Note_on_c, 2, 66, 66
4, 49966, Note_off_c, 2, 66, 64
4, 49975, Note_on_c, 2, 64, 62
4, 50026, Note_off_c, 2, 64, 64
4, 50034, Note_on_c, 2, 63, 51
4, 50076, Note_off_c, 2, 63, 64
4, 50081, Note_on_c, 2, 64, 63
4, 50129, Note_off_c, 2, 64, 64
4, 50146, Note_on_c, 2, 66, 74
4, 50201, Note_on_c, 2, 67, 68
4, 50204, Note_off_c, 2, 66, 64
4, 50243, Note_off_c, 2, 67, 64
4, 50252, Note_on_c, 2, 64, 64
4, 50307, Note_off_c, 2, 64, 64
4, 50311, Note_on_c, 2, 66, 78
4, 50359, Note_off_c, 2, 66, 64
4, 50380, Note_on_c, 2, 67, 82
4, 50430, Note_off_c, 2, 67, 64
4, 50504, Note_on_c, 2, 64, 82
4, 50543, Note_off_c, 2, 64, 64
4, 50624, Note_on_c, 2, 69, 82
4, 50944, Note_off_c, 2, 69, 64
4, 50985, Note_on_c, 2, 68, 91
4, 51038, Note_on_c, 2, 66, 76
4, 51039, Note_off_c, 2, 68, 64
4, 51083, Note_off_c, 2, 66, 64
4, 51100, Note_on_c, 2, 68, 87
4, 51175, Note_off_c, 2, 68, 64
4, 51228, Note_on_c, 2, 69, 85
4, 51271, Note_off_c, 2, 69, 64
4, 51352, Note_on_c, 2, 71, 78
4, 51412, Note_off_c, 2, 71, 64
4, 51413, Note_on_c, 2, 69, 60
4, 51465, Note_on_c, 2, 71, 66
4, 51467, Note_off_c, 2, 69, 64
4, 51511, Note_off_c, 2, 71, 64
4, 51524, Note_on_c, 2, 68, 72
4, 51559, Note_off_c, 2, 68, 64
4, 51585, Note_on_c, 2, 69, 80
4, 51642, Note_on_c, 2, 71, 78
4, 51655, Note_off_c, 2, 69, 64
4, 51704, Note_on_c, 2, 72, 66
4, 51721, Note_off_c, 2, 71, 64
4, 51761, Note_on_c, 2, 74, 78
4, 51764, Note_off_c, 2, 72, 64
4, 51816, Note_off_c, 2, 74, 64
4, 51828, Note_on_c, 2, 76, 85
4, 51881, Note_on_c, 2, 71, 58
4, 51884, Note_off_c, 2, 76, 64
4, 51927, Note_off_c, 2, 71, 64
4, 51946, Note_on_c, 2, 72, 64
4, 51990, Note_off_c, 2, 72, 64
4, 52009, Note_on_c, 2, 69, 87
4, 52051, Note_off_c, 2, 69, 64
4, 52075, Note_on_c, 2, 64, 80
4, 52342, Note_off_c, 2, 64, 64
4, 52365, Note_on_c, 2, 62, 82
4, 52413, Note_off_c, 2, 62, 64
4, 52413, Note_on_c, 2, 60, 74
4, 52463, Note_off_c, 2, 60, 64
4, 52472, Note_on_c, 2, 59, 64
4, 52508, Note_off_c, 2, 59, 64
4, 52532, Note_on_c, 2, 57, 57
4, 52591, Note_on_c, 2, 60, 63
4, 52603, Note_off_c, 2, 57, 64
4, 52646, Note_off_c, 2, 60, 64
4, 52654, Note_on_c, 2, 62, 70
4, 52710, Note_off_c, 2, 62, 64
4, 52712, Note_on_c, 2, 64, 76
4, 52758, Note_off_c, 2, 64, 64
4, 52772, Note_on_c, 2, 65, 95
4, 52814, Note_off_c, 2, 65, 64
4, 52894, Note_on_c, 2, 56, 66
4, 52952, Note_off_c, 2, 56, 64
4, 53019, Note_on_c, 2, 59, 72
4, 53058, Note_off_c, 2, 59, 64
4, 53151, Note_on_c, 2, 64, 85
4, 53186, Note_off_c, 2, 64, 64
4, 53271, Note_on_c, 2, 64, 85
4, 53357, Note_off_c, 2, 64, 64
4, 53388, Note_on_c, 2, 69, 80
4, 53440, Note_off_c, 2, 69, 64
4, 53441, Note_on_c, 2, 68, 60
4, 53484, Note_off_c, 2, 68, 64
4, 53504, Note_on_c, 2, 69, 85
4, 53547, Note_off_c, 2, 69, 64
4, 53634, Note_on_c, 2, 72, 82
4, 53685, Note_off_c, 2, 72, 64
4, 53691, Note_on_c, 2, 71, 80
4, 53739, Note_off_c, 2, 71, 64
4, 53750, Note_on_c, 2, 69, 74
4, 53800, Note_off_c, 2, 69, 64
4, 53806, Note_on_c, 2, 71, 66
4, 53860, Note_off_c, 2, 71, 64
4, 53867, Note_on_c, 2, 69, 66
4, 53921, Note_off_c, 2, 69, 64
4, 53921, Note_on_c, 2, 67, 66
4, 53961, Note_off_c, 2, 67, 64
4, 53983, Note_on_c, 2, 65, 68
4, 54030, Note_off_c, 2, 65, 64
4, 54041, Note_on_c, 2, 64, 82
4, 54091, Note_off_c, 2, 64, 64
4, 54095, Note_on_c, 2, 65, 68
4, 54153, Note_off_c, 2, 65, 64
4, 54158, Note_on_c, 2, 62, 82
4, 54200, Note_off_c, 2, 62, 64
4, 54235, Note_on_c, 2, 56, 72
4, 54300, Note_off_c, 2, 56, 64
4, 54356, Note_on_c, 2, 68, 68
4, 54410, Note_off_c, 2, 68, 64
4, 54472, Note_on_c, 2, 69, 87
4, 54527, Note_off_c, 2, 69, 64
4, 54585, Note_on_c, 2, 71, 82
4, 54633, Note_off_c, 2, 71, 64
4, 54708, Note_on_c, 2, 64, 82
4, 54774, Note_off_c, 2, 64, 64
4, 54826, Note_on_c, 2, 65, 74
4, 54880, Note_off_c, 2, 65, 64
4, 54943, Note_on_c, 2, 64, 82
4, 54986, Note_off_c, 2, 64, 64
4, 55063, Note_on_c, 2, 62, 87
4, 55114, Note_off_c, 2, 62, 64
4, 55184, Note_on_c, 2, 60, 78
4, 55275, Note_off_c, 2, 60, 64
4, 72124, Note_on_c, 2, 71, 74
4, 72152, Note_off_c, 2, 71, 64
4, 72234, Note_on_c, 2, 71, 66
4, 72272, Note_off_c, 2, 71, 64
4, 72352, Note_on_c, 2, 71, 64
4, 72389, Note_off_c, 2, 71, 64
4, 72464, Note_on_c, 2, 67, 68
4, 72575, Note_off_c, 2, 67, 64
4, 72589, Note_on_c, 2, 69, 70
4, 72630, Note_off_c, 2, 69, 64
4, 72643, Note_on_c, 2, 71, 70
4, 72680, Note_off_c, 2, 71, 64
4, 72708, Note_on_c, 2, 72, 61
4, 72752, Note_off_c, 2, 72, 64
4, 72821, Note_on_c, 2, 69, 78
4, 72862, Note_off_c, 2, 69, 64
4, 72937, Note_on_c, 2, 66, 62
4, 72992, Note_off_c, 2, 66, 64
4, 73053, Note_on_c, 2, 71, 78
4, 73092, Note_off_c, 2, 71, 64
4, 73182, Note_on_c, 2, 59, 85
4, 73226, Note_off_c, 2, 59, 64
4, 73305, Note_on_c, 2, 59, 68
4, 73364, Note_off_c, 2, 59, 64
4, 73441, Note_on_c, 2, 64, 59
4, 73679, Note_off_c, 2, 64, 64
4, 76368, Note_on_c, 2, 72, 80
4, 76410, Note_off_c, 2, 72, 64
4, 76426, Note_on_c, 2, 71, 70
4, 76472, Note_off_c, 2, 71, 64
4, 76486, Note_on_c, 2, 69, 57
4, 76537, Note_off_c, 2, 69, 64
4, 76542, Note_on_c, 2, 67, 64
4, 76584, Note_off_c, 2, 67, 64
4, 76598, Note_on_c, 2, 66, 55
4, 76638, Note_off_c, 2, 66, 64
4, 76655, Note_on_c, 2, 67, 60
4, 76696, Note_off_c, 2, 67, 64
4, 76718, Note_on_c, 2, 64, 52
4, 76768, Note_off_c, 2, 64, 64
4, 76786, Note_on_c, 2, 72, 70
4, 76835, Note_off_c, 2, 72, 64
4, 76847, Note_on_c, 2, 71, 68
4, 76890, Note_off_c, 2, 71, 64
4, 76904, Note_on_c, 2, 69, 60
4, 76946, Note_off_c, 2, 69, 64
4, 76956, Note_on_c, 2, 67, 64
4, 77000, Note_off_c, 2, 67, 64
4, 77027, Note_on_c, 2, 66, 76
4, 77067, Note_off_c, 2, 66, 64
4, 77145, Note_on_c, 2, 71, 74
4, 77182, Note_off_c, 2, 71, 64
4, 77268, Note_on_c, 2, 64, 58
4, 77510, Note_off_c, 2, 64, 64
4, 79785, Note_on_c, 2, 72, 76
4, 79834, Note_off_c, 2, 72, 64
4, 79905, Note_on_c, 2, 72, 85
4, 79953, Note_off_c, 2, 72, 64
4, 80028, Note_on_c, 2, 72, 87
4, 80072, Note_off_c, 2, 72, 64
4, 80144, Note_on_c, 2, 69, 76
4, 80280, Note_off_c, 2, 69, 64
4, 81705, Note_on_c, 2, 70, 78
4, 81754, Note_off_c, 2, 70, 64
4, 81830, Note_on_c, 2, 70, 91
4, 81878, Note_off_c, 2, 70, 64
4, 81952, Note_on_c, 2, 70, 82
4, 81992, Note_off_c, 2, 70, 64
4, 82068, Note_on_c, 2, 67, 72
4, 82201, Note_off_c, 2, 67, 64
4, 83568, Note_on_c, 2, 70, 87
4, 83601, Note_off_c, 2, 70, 64
4, 83622, Note_on_c, 2, 69, 76
4, 83674, Note_off_c, 2, 69, 64
4, 83678, Note_on_c, 2, 67, 63
4, 83720, Note_off_c, 2, 67, 64
4, 83739, Note_on_c, 2, 65, 80
4, 83787, Note_off_c, 2, 65, 64
4, 83790, Note_on_c, 2, 64, 63
4, 83844, Note_off_c, 2, 64, 64
4, 83852, Note_on_c, 2, 65, 64
4, 83904, Note_off_c, 2, 65, 64
4, 83914, Note_on_c, 2, 62, 64
4, 83953, Note_off_c, 2, 62, 64
4, 83984, Note_on_c, 2, 69, 53
4, 84046, Note_on_c, 2, 67, 70
4, 84047, Note_off_c, 2, 69, 64
4, 84099, Note_off_c, 2, 67, 64
4, 84113, Note_on_c, 2, 69, 52
4, 84145, Note_off_c, 2, 69, 64
4, 84153, Note_on_c, 2, 70, 63
4, 84204, Note_off_c, 2, 70, 64
4, 84221, Note_on_c, 2, 72, 89
4, 84272, Note_off_c, 2, 72, 64
4, 84343, Note_on_c, 2, 69, 78
4, 84388, Note_off_c, 2, 69, 64
4, 84459, Note_on_c, 2, 67, 82
4, 84508, Note_off_c, 2, 67, 64
4, 84584, Note_on_c, 2, 67, 87
4, 84641, Note_off_c, 2, 67, 64
4, 84707, Note_on_c, 2, 67, 89
4, 84768, Note_off_c, 2, 67, 64
4, 84824, Note_on_c, 2, 67, 87
4, 84889, Note_off_c, 2, 67, 64
4, 101322, Note_on_c, 2, 59, 68
4, 101383, Note_on_c, 2, 60, 55
4, 101384, Note_off_c, 2, 59, 64
4, 101439, Note_on_c, 2, 62, 66
4, 101441, Note_off_c, 2, 60, 64
4, 101495, Note_off_c, 2, 62, 64
4, 101507, Note_on_c, 2, 64, 70
4, 101552, Note_off_c, 2, 64, 64
4, 101561, Note_on_c, 2, 62, 66
4, 101625, Note_off_c, 2, 62, 64
4, 101629, Note_on_c, 2, 64, 59
4, 101686, Note_off_c, 2, 64, 64
4, 101693, Note_on_c, 2, 65, 55
4, 101744, Note_off_c, 2, 65, 64
4, 101760, Note_on_c, 2, 67, 68
4, 101817, Note_on_c, 2, 70, 57
4, 101824, Note_off_c, 2, 67, 64
4, 101878, Note_off_c, 2, 70, 64
4, 101880, Note_on_c, 2, 69, 70
4, 101930, Note_off_c, 2, 69, 64
4, 101936, Note_on_c, 2, 67, 62
4, 101983, Note_off_c, 2, 67, 64
4, 101995, Note_on_c, 2, 65, 63
4, 102046, Note_off_c, 2, 65, 64
4, 102050, Note_on_c, 2, 64, 57
4, 102099, Note_off_c, 2, 64, 64
4, 102105, Note_on_c, 2, 65, 57
4, 102163, Note_off_c, 2, 65, 64
4, 102165, Note_on_c, 2, 62, 58
4, 102204, Note_off_c, 2, 62, 64
4, 102230, Note_on_c, 2, 67, 70
4, 102282, Note_off_c, 2, 67, 64
4, 102288, Note_on_c, 2, 65, 40
4, 102336, Note_off_c, 2, 65, 64
4, 102351, Note_on_c, 2, 67, 63
4, 102409, Note_off_c, 2, 67, 64
4, 102415, Note_on_c, 2, 69, 63
4, 102466, Note_off_c, 2, 69, 64
4, 102474, Note_on_c, 2, 67, 62
4, 102522, Note_off_c, 2, 67, 64
4, 102529, Note_on_c, 2, 65, 60
4, 102577, Note_off_c, 2, 65, 64
4, 102592, Note_on_c, 2, 64, 62
4, 102638, Note_off_c, 2, 64, 64
4, 102644, Note_on_c, 2, 62, 66
4, 102698, Note_off_c, 2, 62, 64
4, 102721, Note_on_c, 2, 60, 68
4, 102979, Note_off_c, 2, 60, 64
4, 103079, Note_on_c, 2, 64, 82
4, 103120, Note_off_c, 2, 64, 64
4, 103197, Note_on_c, 2, 65, 64
4, 103246, Note_off_c, 2, 65, 64
4, 103307, Note_on_c, 2, 62, 87
4, 103350, Note_off_c, 2, 62, 64
4, 103431, Note_on_c, 2, 59, 85
4, 103547, Note_off_c, 2, 59, 64
4, 103553, Note_on_c, 2, 60, 76
4, 103597, Note_off_c, 2, 60, 64
4, 103610, Note_on_c, 2, 62, 80
4, 103649, Note_off_c, 2, 62, 64
4, 103672, Note_on_c, 2, 64, 82
4, 103724, Note_off_c, 2, 64, 64
4, 103729, Note_on_c, 2, 67, 82
4, 103785, Note_off_c, 2, 67, 64
4, 103787, Note_on_c, 2, 65, 63
4, 103844, Note_off_c, 2, 65, 64
4, 103848, Note_on_c, 2, 64, 72
4, 103897, Note_off_c, 2, 64, 64
4, 103899, Note_on_c, 2, 62, 80
4, 103944, Note_off_c, 2, 62, 64
4, 103957, Note_on_c, 2, 60, 64
4, 104006, Note_off_c, 2, 60, 64
4, 104016, Note_on_c, 2, 59, 60
4, 104062, Note_off_c, 2, 59, 64
4, 104072, Note_on_c, 2, 57, 87
4, 104116, Note_off_c, 2, 57, 64
4, 104141, Note_on_c, 2, 55, 82
4, 104273, Note_off_c, 2, 55, 64
4, 104284, Note_on_c, 2, 67, 85
4, 104442, Note_off_c, 2, 67, 64
4, 104457, Note_on_c, 2, 64, 78
4, 104513, Note_off_c, 2, 64, 64
4, 104513, Note_on_c, 2, 62, 63
4, 104569, Note_on_c, 2, 64, 80
4, 104576, Note_off_c, 2, 62, 64
4, 104629, Note_off_c, 2, 64, 64
4, 104632, Note_on_c, 2, 65, 74
4, 104860, Note_off_c, 2, 65, 64
4, 104919, Note_on_c, 2, 65, 64
4, 104973, Note_off_c, 2, 65, 64
4, 104979, Note_on_c, 2, 67, 78
4, 105038, Note_off_c, 2, 67, 64
4, 105040, Note_on_c, 2, 69, 82
4, 105085, Note_off_c, 2, 69, 64
4, 105102, Note_on_c, 2, 67, 85
4, 105137, Note_off_c, 2, 67, 64
4, 105157, Note_on_c, 2, 67, 85
4, 105208, Note_off_c, 2, 67, 64
4, 105215, Note_on_c, 2, 69, 74
4, 105262, Note_off_c, 2, 69, 64
4, 105273, Note_on_c, 2, 70, 74
4, 105320, Note_off_c, 2, 70, 64
4, 105342, Note_on_c, 2, 64, 82
4, 105395, Note_off_c, 2, 64, 64
4, 105462, Note_on_c, 2, 69, 89
4, 105624, Note_off_c, 2, 69, 64
4, 105642, Note_on_c, 2, 67, 87
4, 105695, Note_off_c, 2, 67, 64
4, 105700, Note_on_c, 2, 65, 82
4, 105740, Note_off_c, 2, 65, 64
4, 105753, Note_on_c, 2, 64, 95
4, 105800, Note_off_c, 2, 64, 64
4, 105818, Note_on_c, 2, 62, 85
4, 105872, Note_off_c, 2, 62, 64
4, 105942, Note_on_c, 2, 67, 87
4, 105980, Note_off_c, 2, 67, 64
4, 106067, Note_on_c, 2, 67, 93
4, 106252, Note_off_c, 2, 67, 64
4, 106318, Note_on_c, 2, 64, 95
4, 106448, Note_off_c, 2, 64, 64
4, 106479, Note_on_c, 2, 64, 78
4, 106531, Note_off_c, 2, 64, 64
4, 106546, Note_on_c, 2, 69, 95
4, 106596, Note_off_c, 2, 69, 64
4, 106666, Note_on_c, 2, 57, 87
4, 106723, Note_off_c, 2, 57, 64
4, 106794, Note_on_c, 2, 62, 85
4, 106937, Note_off_c, 2, 62, 64
4, 106969, Note_on_c, 2, 62, 89
4, 107019, Note_off_c, 2, 62, 64
4, 107029, Note_on_c, 2, 67, 98
4, 107082, Note_off_c, 2, 67, 64
4, 107149, Note_on_c, 2, 55, 91
4, 107197, Note_off_c, 2, 55, 64
4, 107264, Note_on_c, 2, 60, 78
4, 107416, Note_off_c, 2, 60, 64
4, 107446, Note_on_c, 2, 60, 87
4, 107485, Note_off_c, 2, 60, 64
4, 107512, Note_on_c, 2, 65, 87
4, 107559, Note_off_c, 2, 65, 64
4, 107633, Note_on_c, 2, 53, 76
4, 107682, Note_off_c, 2, 53, 64
4, 107750, Note_on_c, 2, 59, 85
4, 107904, Note_off_c, 2, 59, 64
4, 107932, Note_on_c, 2, 59, 72
4, 107983, Note_off_c, 2, 59, 64
4, 107994, Note_on_c, 2, 64, 95
4, 108048, Note_off_c, 2, 64, 64
4, 108108, Note_on_c, 2, 52, 89
4, 108159, Note_off_c, 2, 52, 64
4, 108229, Note_on_c, 2, 57, 85
4, 108368, Note_off_c, 2, 57, 64
4, 108404, Note_on_c, 2, 57, 76
4, 108440, Note_off_c, 2, 57, 64
4, 108470, Note_on_c, 2, 62, 85
4, 108521, Note_on_c, 2, 60, 72
4, 108529, Note_off_c, 2, 62, 64
4, 108566, Note_off_c, 2, 60, 64
4, 108582, Note_on_c, 2, 62, 80
4, 108628, Note_off_c, 2, 62, 64
4, 108637, Note_on_c, 2, 59, 78
4, 108684, Note_off_c, 2, 59, 64
4, 108706, Note_on_c, 2, 64, 85
4, 108769, Note_off_c, 2, 64, 64
4, 108832, Note_on_c, 2, 62, 80
4, 108875, Note_off_c, 2, 62, 64
4, 108944, Note_on_c, 2, 60, 85
4, 109046, Note_off_c, 2, 60, 64
4, 109070, Note_on_c, 2, 62, 66
4, 109119, Note_off_c, 2, 62, 64
4, 109124, Note_on_c, 2, 64, 76
4, 109172, Note_off_c, 2, 64, 64
4, 109186, Note_on_c, 2, 65, 85
4, 109252, Note_off_c, 2, 65, 64
4, 109307, Note_on_c, 2, 65, 78
4, 109350, Note_off_c, 2, 65, 64
4, 109430, Note_on_c, 2, 67, 85
4, 109492, Note_off_c, 2, 67, 64
4, 109547, Note_on_c, 2, 62, 82
4, 109606, Note_off_c, 2, 62, 64
4, 109675, Note_on_c, 2, 67, 87
4, 109742, Note_off_c, 2, 67, 64
4, 109794, Note_on_c, 2, 71, 85
4, 109849, Note_off_c, 2, 71, 64
4, 109916, Note_on_c, 2, 67, 85
4, 109981, Note_off_c, 2, 67, 64
4, 110033, Note_on_c, 2, 69, 85
4, 110083, Note_off_c, 2, 69, 64
4, 110150, Note_on_c, 2, 62, 82
4, 110204, Note_off_c, 2, 62, 64
4, 110270, Note_on_c, 2, 67, 85
4, 110324, Note_off_c, 2, 67, 64
4, 110391, Note_on_c, 2, 64, 93
4, 110541, Note_off_c, 2, 64, 64
4, 124013, Note_on_c, 2, 55, 91
4, 124056, Note_off_c, 2, 55, 64
4, 124076, Note_on_c, 2, 67, 89
4, 124156, Note_off_c, 2, 67, 64
4, 124249, Note_on_c, 2, 69, 87
4, 124284, Note_off_c, 2, 69, 64
4, 124313, Note_on_c, 2, 67, 82
4, 124462, Note_off_c, 2, 67, 64
4, 124547, Note_on_c, 2, 62, 85
4, 124711, Note_off_c, 2, 62, 64
4, 124791, Note_on_c, 2, 64, 85
4, 124890, Note_off_c, 2, 64, 64
4, 149393, Note_on_c, 2, 69, 66
4, 149430, Note_off_c, 2, 69, 64
4, 149510, Note_on_c, 2, 69, 70
4, 149552, Note_off_c, 2, 69, 64
4, 149629, Note_on_c, 2, 69, 74
4, 149665, Note_off_c, 2, 69, 64
4, 149743, Note_on_c, 2, 67, 82
4, 149851, Note_off_c, 2, 67, 64
4, 149863, Note_on_c, 2, 69, 66
4, 149908, Note_off_c, 2, 69, 64
4, 149917, Note_on_c, 2, 71, 72
4, 149954, Note_off_c, 2, 71, 64
4, 149979, Note_on_c, 2, 72, 82
4, 150019, Note_off_c, 2, 72, 64
4, 150106, Note_on_c, 2, 69, 78
4, 150143, Note_off_c, 2, 69, 64
4, 150226, Note_on_c, 2, 66, 63
4, 150275, Note_off_c, 2, 66, 64
4, 150350, Note_on_c, 2, 71, 68
4, 150393, Note_off_c, 2, 71, 64
4, 150471, Note_on_c, 2, 59, 63
4, 150530, Note_off_c, 2, 59, 64
4, 150596, Note_on_c, 2, 71, 74
4, 150638, Note_off_c, 2, 71, 64
4, 150709, Note_on_c, 2, 64, 70
4, 150804, Note_off_c, 2, 64, 64
4, 150833, Note_on_c, 2, 67, 93
4, 150880, Note_off_c, 2, 67, 64
4, 150951, Note_on_c, 2, 67, 100
4, 150992, Note_off_c, 2, 67, 64
4, 151076, Note_on_c, 2, 67, 102
4, 151116, Note_off_c, 2, 67, 64
4, 151194, Note_on_c, 2, 64, 89
4, 151287, Note_off_c, 2, 64, 64
4, 151315, Note_on_c, 2, 69, 70
4, 151356, Note_off_c, 2, 69, 64
4, 151437, Note_on_c, 2, 69, 82
4, 151472, Note_off_c, 2, 69, 64
4, 151548, Note_on_c, 2, 69, 78
4, 151591, Note_off_c, 2, 69, 64
4, 151670, Note_on_c, 2, 65, 68
4, 151780, Note_off_c, 2, 65, 64
4, 151792, Note_on_c, 2, 67, 68
4, 151840, Note_off_c, 2, 67, 64
4, 151845, Note_on_c, 2, 69, 68
4, 151895, Note_off_c, 2, 69, 64
4, 151910, Note_on_c, 2, 70, 55
4, 151947, Note_off_c, 2, 70, 64
4, 152028, Note_on_c, 2, 67, 62
4, 152070, Note_off_c, 2, 67, 64
4, 152145, Note_on_c, 2, 64, 66
4, 152197, Note_off_c, 2, 64, 64
4, 152266, Note_on_c, 2, 69, 66
4, 152305, Note_off_c, 2, 69, 64
4, 152383, Note_on_c, 2, 57, 61
4, 152439, Note_off_c, 2, 57, 64
4, 152506, Note_on_c, 2, 69, 64
4, 152544, Note_off_c, 2, 69, 64
4, 152628, Note_on_c, 2, 62, 66
4, 152720, Note_off_c, 2, 62, 64
4, 152754, Note_on_c, 2, 65, 85
4, 152806, Note_off_c, 2, 65, 64
4, 152873, Note_on_c, 2, 65, 102
4, 152917, Note_off_c, 2, 65, 64
4, 152997, Note_on_c, 2, 65, 100
4, 153039, Note_off_c, 2, 65, 64
4, 153119, Note_on_c, 2, 62, 82
4, 153222, Note_off_c, 2, 62, 64
4, 153234, Note_on_c, 2, 67, 82
4, 153276, Note_off_c, 2, 67, 64
4, 153362, Note_on_c, 2, 67, 76
4, 153403, Note_off_c, 2, 67, 64
4, 153479, Note_on_c, 2, 67, 80
4, 153520, Note_off_c, 2, 67, 64
4, 153593, Note_on_c, 2, 64, 80
4, 153692, Note_off_c, 2, 64, 64
4, 153711, Note_on_c, 2, 65, 70
4, 153754, Note_off_c, 2, 65, 64
4, 153769, Note_on_c, 2, 67, 70
4, 153805, Note_off_c, 2, 67, 64
4, 153827, Note_on_c, 2, 69, 87
4, 153869, Note_off_c, 2, 69, 64
4, 153942, Note_on_c, 2, 65, 66
4, 153984, Note_off_c, 2, 65, 64
4, 154067, Note_on_c, 2, 62, 63
4, 154106, Note_off_c, 2, 62, 64
4, 154179, Note_on_c, 2, 67, 70
4, 154219, Note_off_c, 2, 67, 64
4, 154297, Note_on_c, 2, 55, 74
4, 154346, Note_off_c, 2, 55, 64
4, 154411, Note_on_c, 2, 67, 80
4, 154461, Note_off_c, 2, 67, 64
4, 154537, Note_on_c, 2, 60, 68
4, 154588, Note_off_c, 2, 60, 64
4, 154595, Note_on_c, 2, 65, 66
4, 154645, Note_off_c, 2, 65, 64
4, 154656, Note_on_c, 2, 64, 72
4, 154710, Note_off_c, 2, 64, 64
4, 154712, Note_on_c, 2, 62, 70
4, 154750, Note_off_c, 2, 62, 64
4, 154775, Note_on_c, 2, 60, 87
4, 154828, Note_off_c, 2, 60, 64
4, 154832, Note_on_c, 2, 59, 59
4, 154879, Note_off_c, 2, 59, 64
4, 154895, Note_on_c, 2, 60, 68
4, 154942, Note_off_c, 2, 60, 64
4, 154951, Note_on_c, 2, 57, 66
4, 154990, Note_off_c, 2, 57, 64
4, 155019, Note_on_c, 2, 64, 66
4, 155082, Note_off_c, 2, 64, 64
4, 155082, Note_on_c, 2, 62, 68
4, 155127, Note_off_c, 2, 62, 64
4, 155141, Note_on_c, 2, 64, 70
4, 155190, Note_off_c, 2, 64, 64
4, 155196, Note_on_c, 2, 66, 80
4, 155240, Note_off_c, 2, 66, 64
4, 155259, Note_on_c, 2, 67, 95
4, 155306, Note_off_c, 2, 67, 64
4, 155379, Note_on_c, 2, 64, 85
4, 155419, Note_off_c, 2, 64, 64
4, 155515, Note_on_c, 2, 62, 72
4, 155559, Note_off_c, 2, 62, 64
4, 155634, Note_on_c, 2, 62, 91
4, 155681, Note_off_c, 2, 62, 64
4, 155753, Note_on_c, 2, 62, 95
4, 155796, Note_off_c, 2, 62, 64
4, 155876, Note_on_c, 2, 62, 89
4, 155914, Note_off_c, 2, 62, 64
4, 155996, Note_on_c, 2, 59, 89
4, 156108, Note_off_c, 2, 59, 64
4, 156116, Note_on_c, 2, 60, 59
4, 156168, Note_off_c, 2, 60, 64
4, 156168, Note_on_c, 2, 62, 78
4, 156211, Note_off_c, 2, 62, 64
4, 156233, Note_on_c, 2, 64, 95
4, 156273, Note_off_c, 2, 64, 64
4, 156348, Note_on_c, 2, 60, 85
4, 156392, Note_off_c, 2, 60, 64
4, 156468, Note_on_c, 2, 57, 76
4, 156514, Note_off_c, 2, 57, 64
4, 156588, Note_on_c, 2, 62, 85
4, 156624, Note_off_c, 2, 62, 64
4, 156711, Note_on_c, 2, 50, 89
4, 156752, Note_off_c, 2, 50, 64
4, 156839, Note_on_c, 2, 62, 91
4, 157031, Note_off_c, 2, 62, 64
4, 157075, Note_on_c, 2, 60, 70
4, 157114, Note_off_c, 2, 60, 64
4, 157117, Note_on_c, 2, 59, 63
4, 157160, Note_off_c, 2, 59, 64
4, 157184, Note_on_c, 2, 60, 85
4, 157434, Note_off_c, 2, 60, 64
4, 157469, Note_on_c, 2, 57, 80
4, 157528, Note_off_c, 2, 57, 64
4, 157530, Note_on_c, 2, 59, 64
4, 157586, Note_on_c, 2, 60, 70
4, 157596, Note_off_c, 2, 59, 64
4, 157638, Note_off_c, 2, 60, 64
4, 157656, Note_on_c, 2, 62, 78
4, 157708, Note_off_c, 2, 62, 64
4, 157726, Note_on_c, 2, 64, 82
4, 157772, Note_off_c, 2, 64, 64
4, 157781, Note_on_c, 2, 66, 74
4, 157819, Note_off_c, 2, 66, 64
4, 157838, Note_on_c, 2, 67, 82
4, 157884, Note_off_c, 2, 67, 64
4, 157905, Note_on_c, 2, 69, 100
4, 157955, Note_off_c, 2, 69, 64
4, 158031, Note_on_c, 2, 57, 85
4, 158137, Note_off_c, 2, 57, 64
4, 158272, Note_on_c, 2, 62, 91
4, 158390, Note_off_c, 2, 62, 64
4, 158438, Note_on_c, 2, 67, 87
4, 158482, Note_off_c, 2, 67, 64
4, 158491, Note_on_c, 2, 66, 80
4, 158542, Note_off_c, 2, 66, 64
4, 158547, Note_on_c, 2, 67, 82
4, 158588, Note_off_c, 2, 67, 64
4, 158616, Note_on_c, 2, 64, 74
4, 158667, Note_off_c, 2, 64, 64
4, 158743, Note_on_c, 2, 69, 85
4, 158911, Note_off_c, 2, 69, 64
4, 158993, Note_on_c, 2, 72, 93
4, 159034, Note_off_c, 2, 72, 64
4, 159112, Note_on_c, 2, 66, 82
4, 159154, Note_off_c, 2, 66, 64
4, 159240, Note_on_c, 2, 71, 98
4, 159386, Note_off_c, 2, 71, 64
4, 159420, Note_on_c, 2, 64, 82
4, 159463, Note_off_c, 2, 64, 64
4, 159469, Note_on_c, 2, 62, 64
4, 159525, Note_on_c, 2, 64, 70
4, 159529, Note_off_c, 2, 62, 64
4, 159568, Note_off_c, 2, 64, 64
4, 159592, Note_on_c, 2, 60, 78
4, 159634, Note_off_c, 2, 60, 64
4, 159715, Note_on_c, 2, 69, 98
4, 159856, Note_off_c, 2, 69, 64
4, 159881, Note_on_c, 2, 67, 80
4, 159927, Note_off_c, 2, 67, 64
4, 159940, Note_on_c, 2, 66, 82
4, 159990, Note_off_c, 2, 66, 64
4, 160000, Note_on_c, 2, 64, 78
4, 160054, Note_on_c, 2, 62, 63
4, 160063, Note_off_c, 2, 64, 64
4, 160099, Note_off_c, 2, 62, 64
4, 160112, Note_on_c, 2, 60, 66
4, 160157, Note_off_c, 2, 60, 64
4, 160175, Note_on_c, 2, 59, 70
4, 160228, Note_off_c, 2, 59, 64
4, 160238, Note_on_c, 2, 57, 62
4, 160269, Note_off_c, 2, 57, 64
4, 160316, Note_on_c, 2, 62, 95
4, 160411, Note_off_c, 2, 62, 64
4, 160431, Note_on_c, 2, 64, 85
4, 160477, Note_off_c, 2, 64, 64
4, 160484, Note_on_c, 2, 66, 82
4, 160524, Note_off_c, 2, 66, 64
4, 160548, Note_on_c, 2, 67, 95
4, 160590, Note_off_c, 2, 67, 64
4, 160669, Note_on_c, 2, 64, 85
4, 160718, Note_off_c, 2, 64, 64
4, 160791, Note_on_c, 2, 69, 98
4, 160848, Note_on_c, 2, 67, 82
4, 160857, Note_off_c, 2, 69, 64
4, 160903, Note_off_c, 2, 67, 64
4, 160907, Note_on_c, 2, 66, 68
4, 160963, Note_on_c, 2, 64, 68
4, 160965, Note_off_c, 2, 66, 64
4, 161016, Note_off_c, 2, 64, 64
4, 161016, Note_on_c, 2, 62, 64
4, 161062, Note_off_c, 2, 62, 64
4, 161077, Note_on_c, 2, 60, 66
4, 161135, Note_off_c, 2, 60, 64
4, 161138, Note_on_c, 2, 59, 60
4, 161195, Note_off_c, 2, 59, 64
4, 161197, Note_on_c, 2, 57, 66
4, 161239, Note_off_c, 2, 57, 64
4, 161264, Note_on_c, 2, 55, 82
4, 161312, Note_off_c, 2, 55, 64
4, 161386, Note_on_c, 2, 62, 82
4, 161427, Note_off_c, 2, 62, 64
4, 161506, Note_on_c, 2, 62, 89
4, 161553, Note_off_c, 2, 62, 64
4, 161627, Note_on_c, 2, 62, 91
4, 161667, Note_off_c, 2, 62, 64
4, 161750, Note_on_c, 2, 62, 102
4, 162020, Note_off_c, 2, 62, 64
4, 179037, Note_on_c, 2, 64, 91
4, 179137, Note_off_c, 2, 64, 64
4, 179152, Note_on_c, 2, 65, 80
4, 179197, Note_off_c, 2, 65, 64
4, 179210, Note_on_c, 2, 67, 85
4, 179259, Note_off_c, 2, 67, 64
4, 179275, Note_on_c, 2, 69, 91
4, 179319, Note_off_c, 2, 69, 64
4, 179397, Note_on_c, 2, 65, 80
4, 179448, Note_off_c, 2, 65, 64
4, 179516, Note_on_c, 2, 62, 82
4, 179567, Note_off_c, 2, 62, 64
4, 179630, Note_on_c, 2, 67, 95
4, 179672, Note_off_c, 2, 67, 64
4, 179749, Note_on_c, 2, 55, 82
4, 179803, Note_off_c, 2, 55, 64
4, 179871, Note_on_c, 2, 67, 100
4, 180066, Note_off_c, 2, 67, 64
4, 180120, Note_on_c, 2, 65, 93
4, 180175, Note_on_c, 2, 64, 82
4, 180180, Note_off_c, 2, 65, 64
4, 180215, Note_off_c, 2, 64, 64
4, 180235, Note_on_c, 2, 65, 100
4, 180284, Note_off_c, 2, 65, 64
4, 180288, Note_on_c, 2, 64, 80
4, 180333, Note_off_c, 2, 64, 64
4, 180344, Note_on_c, 2, 62, 66
4, 180397, Note_off_c, 2, 62, 64
4, 180402, Note_on_c, 2, 60, 70
4, 180448, Note_off_c, 2, 60, 64
4, 180468, Note_on_c, 2, 62, 87
4, 180527, Note_off_c, 2, 62, 64
4, 180595, Note_on_c, 2, 67, 91
4, 180643, Note_off_c, 2, 67, 64
4, 180719, Note_on_c, 2, 67, 85
4, 180767, Note_off_c, 2, 67, 64
4, 180776, Note_on_c, 2, 65, 95
4, 180814, Note_off_c, 2, 65, 64
4, 180831, Note_on_c, 2, 67, 85
4, 180874, Note_off_c, 2, 67, 64
4, 180886, Note_on_c, 2, 64, 85
4, 180934, Note_off_c, 2, 64, 64
4, 180948, Note_on_c, 2, 60, 76
4, 181057, Note_off_c, 2, 60, 64
4, 181078, Note_on_c, 2, 62, 85
4, 181132, Note_off_c, 2, 62, 64
4, 181134, Note_on_c, 2, 64, 80
4, 181196, Note_on_c, 2, 65, 78
4, 181203, Note_off_c, 2, 64, 64
4, 181242, Note_off_c, 2, 65, 64
4, 181246, Note_on_c, 2, 64, 76
4, 181305, Note_off_c, 2, 64, 64
4, 181306, Note_on_c, 2, 65, 64
4, 181359, Note_off_c, 2, 65, 64
4, 181362, Note_on_c, 2, 62, 64
4, 181413, Note_off_c, 2, 62, 64
4, 181432, Note_on_c, 2, 59, 78
4, 181496, Note_off_c, 2, 59, 64
4, 181547, Note_on_c, 2, 64, 82
4, 181607, Note_off_c, 2, 64, 64
4, 181674, Note_on_c, 2, 60, 70
4, 181733, Note_off_c, 2, 60, 64
4, 181789, Note_on_c, 2, 57, 80
4, 181849, Note_off_c, 2, 57, 64
4, 181911, Note_on_c, 2, 62, 87
4, 182063, Note_off_c, 2, 62, 64
4, 182082, Note_on_c, 2, 64, 82
4, 182127, Note_off_c, 2, 64, 64
4, 182145, Note_on_c, 2, 65, 63
4, 182182, Note_on_c, 2, 67, 47
4, 182198, Note_off_c, 2, 67, 64
4, 182256, Note_off_c, 2, 65, 64
4, 182274, Note_on_c, 2, 67, 87
4, 182319, Note_off_c, 2, 67, 64
4, 182334, Note_on_c, 2, 62, 82
4, 182381, Note_off_c, 2, 62, 64
4, 182398, Note_on_c, 2, 64, 93
4, 182453, Note_off_c, 2, 64, 64
4, 182511, Note_on_c, 2, 60, 72
4, 182580, Note_off_c, 2, 60, 64
4, 182628, Note_on_c, 2, 72, 85
4, 182694, Note_off_c, 2, 72, 64
4, 182755, Note_on_c, 2, 67, 87
4, 182808, Note_off_c, 2, 67, 64
4, 182876, Note_on_c, 2, 60, 70
4, 182935, Note_off_c, 2, 60, 64
4, 182993, Note_on_c, 2, 65, 76
4, 183056, Note_off_c, 2, 65, 64
4, 183116, Note_on_c, 2, 67, 85
4, 183169, Note_off_c, 2, 67, 64
4, 183234, Note_on_c, 2, 69, 87
4, 183280, Note_off_c, 2, 69, 64
4, 183360, Note_on_c, 2, 62, 80
4, 183604, Note_off_c, 2, 62, 64
4, 186349, Note_on_c, 2, 67, 82
4, 186394, Note_off_c, 2, 67, 64
4, 186472, Note_on_c, 2, 67, 82
4, 186518, Note_off_c, 2, 67, 64
4, 186590, Note_on_c, 2, 67, 80
4, 186628, Note_off_c, 2, 67, 64
4, 186709, Note_on_c, 2, 64, 85
4, 186820, Note_off_c, 2, 64, 64
4, 186832, Note_on_c, 2, 65, 70
4, 186873, Note_off_c, 2, 65, 64
4, 186881, Note_on_c, 2, 67, 72
4, 186927, Note_off_c, 2, 67, 64
4, 186945, Note_on_c, 2, 69, 89
4, 186987, Note_off_c, 2, 69, 64
4, 187065, Note_on_c, 2, 65, 78
4, 187115, Note_off_c, 2, 65, 64
4, 187185, Note_on_c, 2, 62, 78
4, 187232, Note_off_c, 2, 62, 64
4, 187304, Note_on_c, 2, 67, 82
4, 187346, Note_off_c, 2, 67, 64
4, 187432, Note_on_c, 2, 55, 85
4, 187488, Note_off_c, 2, 55, 64
4, 187552, Note_on_c, 2, 65, 80
4, 187595, Note_off_c, 2, 65, 64
4, 187676, Note_on_c, 2, 64, 80
4, 187734, Note_off_c, 2, 64, 64
4, 187734, Note_on_c, 2, 62, 66
4, 187786, Note_off_c, 2, 62, 64
4, 187797, Note_on_c, 2, 60, 74
4, 187855, Note_off_c, 2, 60, 64
4, 187858, Note_on_c, 2, 62, 80
4, 187903, Note_off_c, 2, 62, 64
4, 187918, Note_on_c, 2, 64, 80
4, 187960, Note_off_c, 2, 64, 64
4, 187973, Note_on_c, 2, 62, 80
4, 188030, Note_off_c, 2, 62, 64
4, 188036, Note_on_c, 2, 64, 80
4, 188096, Note_on_c, 2, 66, 82
4, 188098, Note_off_c, 2, 64, 64
4, 188137, Note_off_c, 2, 66, 64
4, 188164, Note_on_c, 2, 67, 85
4, 188215, Note_off_c, 2, 67, 64
4, 188278, Note_on_c, 2, 62, 80
4, 188322, Note_off_c, 2, 62, 64
4, 188392, Note_on_c, 2, 67, 87
4, 188527, Note_off_c, 2, 67, 64
4, 188570, Note_on_c, 2, 67, 89
4, 188600, Note_off_c, 2, 67, 64
4, 188629, Note_on_c, 2, 67, 95
4, 188734, Note_off_c, 2, 67, 64
4, 188774, Note_on_c, 2, 66, 66
4, 188811, Note_off_c, 2, 66, 64
4, 188811, Note_on_c, 2, 64, 70
4, 188841, Note_on_c, 2, 66, 66
4, 188852, Note_off_c, 2, 64, 64
4, 188868, Note_off_c, 2, 66, 64
4, 188871, Note_on_c, 2, 67, 80
4, 188896, Note_on_c, 2, 66, 76
4, 188903, Note_off_c, 2, 67, 64
4, 188925, Note_on_c, 2, 67, 80
4, 188957, Note_off_c, 2, 67, 64
4, 189016, Note_off_c, 2, 66, 64
4, 189047, Note_on_c, 2, 66, 58
4, 189061, Note_off_c, 2, 66, 64
4, 189077, Note_on_c, 2, 67, 46
4, 189101, Note_off_c, 2, 67, 64
4, 189130, Note_on_c, 2, 67, 102
4, 189178, Note_on_c, 2, 69, 66
4, 189191, Note_off_c, 2, 67, 64
4, 189227, Note_off_c, 2, 69, 64
4, 189234, Note_on_c, 2, 71, 78
4, 189285, Note_off_c, 2, 71, 64
4, 189285, Note_on_c, 2, 72, 87
4, 189334, Note_off_c, 2, 72, 64
4, 189350, Note_on_c, 2, 74, 93
4, 189402, Note_off_c, 2, 74, 64
4, 189466, Note_on_c, 2, 67, 80
4, 189511, Note_off_c, 2, 67, 64
4, 189593, Note_on_c, 2, 72, 95
4, 189644, Note_off_c, 2, 72, 64
4, 189651, Note_on_c, 2, 71, 76
4, 189702, Note_off_c, 2, 71, 64
4, 189707, Note_on_c, 2, 69, 91
4, 189751, Note_off_c, 2, 69, 64
4, 189761, Note_on_c, 2, 67, 82
4, 189822, Note_off_c, 2, 67, 64
4, 189830, Note_on_c, 2, 65, 64
4, 189889, Note_off_c, 2, 65, 64
4, 189949, Note_on_c, 2, 67, 70
4, 190006, Note_off_c, 2, 67, 64
4, 190066, Note_on_c, 2, 69, 85
4, 190114, Note_off_c, 2, 69, 64
4, 190120, Note_on_c, 2, 74, 85
4, 190174, Note_off_c, 2, 74, 64
4, 190178, Note_on_c, 2, 72, 91
4, 190226, Note_off_c, 2, 72, 64
4, 190234, Note_on_c, 2, 74, 89
4, 190275, Note_off_c, 2, 74, 64
4, 190305, Note_on_c, 2, 62, 80
4, 190357, Note_off_c, 2, 62, 64
4, 190432, Note_on_c, 2, 67, 87
4, 190588, Note_off_c, 2, 67, 64
4, 190609, Note_on_c, 2, 72, 76
4, 190655, Note_off_c, 2, 72, 64
4, 190666, Note_on_c, 2, 70, 100
4, 190705, Note_off_c, 2, 70, 64
4, 190722, Note_on_c, 2, 72, 87
4, 190761, Note_off_c, 2, 72, 64
4, 190787, Note_on_c, 2, 60, 82
4, 190838, Note_off_c, 2, 60, 64
4, 190913, Note_on_c, 2, 65, 85
4, 191061, Note_off_c, 2, 65, 64
4, 191090, Note_on_c, 2, 71, 85
4, 191142, Note_off_c, 2, 71, 64
4, 191147, Note_on_c, 2, 69, 85
4, 191192, Note_off_c, 2, 69, 64
4, 191201, Note_on_c, 2, 71, 80
4, 191247, Note_off_c, 2, 71, 64
4, 191269, Note_on_c, 2, 59, 70
4, 191318, Note_off_c, 2, 59, 64
4, 191388, Note_on_c, 2, 64, 89
4, 191531, Note_off_c, 2, 64, 64
4, 191560, Note_on_c, 2, 69, 87
4, 191609, Note_off_c, 2, 69, 64
4, 191614, Note_on_c, 2, 67, 74
4, 191660, Note_off_c, 2, 67, 64
4, 191671, Note_on_c, 2, 69, 82
4, 191704, Note_off_c, 2, 69, 64
4, 191743, Note_on_c, 2, 57, 80
4, 191787, Note_off_c, 2, 57, 64
4, 191863, Note_on_c, 2, 62, 95
4, 192005, Note_off_c, 2, 62, 64
4, 192045, Note_on_c, 2, 72, 91
4, 192092, Note_off_c, 2, 72, 64
4, 192103, Note_on_c, 2, 71, 74
4, 192165, Note_on_c, 2, 69, 82
4, 192170, Note_off_c, 2, 71, 64
4, 192220, Note_on_c, 2, 67, 68
4, 192222, Note_off_c, 2, 69, 64
4, 192277, Note_off_c, 2, 67, 64
4, 192279, Note_on_c, 2, 65, 80
4, 192341, Note_off_c, 2, 65, 64
4, 192344, Note_on_c, 2, 64, 87
4, 192383, Note_off_c, 2, 64, 64
4, 192395, Note_on_c, 2, 62, 66
4, 192421, Note_off_c, 2, 62, 64
4, 192478, Note_on_c, 2, 67, 82
4, 192586, Note_off_c, 2, 67, 64
4, 192603, Note_on_c, 2, 69, 80
4, 192644, Note_off_c, 2, 69, 64
4, 192649, Note_on_c, 2, 71, 80
4, 192684, Note_off_c, 2, 71, 64
4, 192714, Note_on_c, 2, 72, 98
4, 192752, Note_off_c, 2, 72, 64
4, 192834, Note_on_c, 2, 57, 85
4, 192886, Note_off_c, 2, 57, 64
4, 192961, Note_on_c, 2, 62, 100
4, 193013, Note_on_c, 2, 60, 72
4, 193022, Note_off_c, 2, 62, 64
4, 193061, Note_off_c, 2, 60, 64
4, 193072, Note_on_c, 2, 59, 85
4, 193124, Note_on_c, 2, 57, 80
4, 193136, Note_off_c, 2, 59, 64
4, 193182, Note_off_c, 2, 57, 64
4, 193182, Note_on_c, 2, 55, 68
4, 193235, Note_off_c, 2, 55, 64
4, 193242, Note_on_c, 2, 53, 89
4, 193295, Note_on_c, 2, 52, 85
4, 193300, Note_off_c, 2, 53, 64
4, 193340, Note_off_c, 2, 52, 64
4, 193351, Note_on_c, 2, 50, 62
4, 193409, Note_off_c, 2, 50, 64
4, 193425, Note_on_c, 2, 48, 70
4, 193492, Note_off_c, 2, 48, 64
4, 193557, Note_on_c, 2, 55, 82
4, 193602, Note_off_c, 2, 55, 64
4, 193678, Note_on_c, 2, 55, 87
4, 193730, Note_off_c, 2, 55, 64
4, 193798, Note_on_c, 2, 55, 87
4, 193844, Note_off_c, 2, 55, 64
4, 193912, Note_on_c, 2, 55, 80
4, 194156, Note_off_c, 2, 55, 64
4, 204651, Note_on_c, 2, 62, 89
4, 204691, Note_off_c, 2, 62, 64
4, 204713, Note_on_c, 2, 60, 70
4, 204795, Note_off_c, 2, 60, 64
4, 204882, Note_on_c, 2, 62, 87
4, 204922, Note_off_c, 2, 62, 64
4, 204943, Note_on_c, 2, 64, 82
4, 205217, Note_off_c, 2, 64, 64
4, 205250, Note_on_c, 2, 64, 87
4, 205290, Note_off_c, 2, 64, 64
4, 205307, Note_on_c, 2, 62, 78
4, 205343, Note_off_c, 2, 62, 64
4, 205361, Note_on_c, 2, 60, 61
4, 205399, Note_off_c, 2, 60, 64
4, 205427, Note_on_c, 2, 67, 85
4, 205517, Note_off_c, 2, 67, 64
4, 205614, Note_on_c, 2, 69, 82
4, 205659, Note_off_c, 2, 69, 64
4, 205675, Note_on_c, 2, 67, 89
4, 205756, Note_off_c, 2, 67, 64
4, 205847, Note_on_c, 2, 65, 78
4, 205892, Note_off_c, 2, 65, 64
4, 205907, Note_on_c, 2, 64, 85
4, 205996, Note_off_c, 2, 64, 64
4, 206084, Note_on_c, 2, 62, 78
4, 206132, Note_off_c, 2, 62, 64
4, 206147, Note_on_c, 2, 60, 68
4, 206240, Note_off_c, 2, 60, 64
4, 206323, Note_on_c, 2, 60, 78
4, 206362, Note_off_c, 2, 60, 64
4, 206391, Note_on_c, 2, 60, 82
4, 206483, Note_off_c, 2, 60, 64
4, 206569, Note_on_c, 2, 65, 74
4, 206613, Note_off_c, 2, 65, 64
4, 206631, Note_on_c, 2, 69, 89
4, 206720, Note_off_c, 2, 69, 64
4, 206798, Note_on_c, 2, 67, 78
4, 206842, Note_off_c, 2, 67, 64
4, 206870, Note_on_c, 2, 65, 93
4, 207205, Note_off_c, 2, 65, 64
4, 207269, Note_on_c, 2, 62, 80
4, 207309, Note_off_c, 2, 62, 64
4, 207338, Note_on_c, 2, 70, 87
4, 207698, Note_off_c, 2, 70, 64
4, 207768, Note_on_c, 2, 70, 87
4, 207807, Note_off_c, 2, 70, 64
4, 207833, Note_on_c, 2, 64, 87
4, 208040, Note_off_c, 2, 64, 64
4, 208062, Note_on_c, 2, 69, 82
4, 208280, Note_off_c, 2, 69, 64
4, 208313, Note_on_c, 2, 69, 87
4, 208411, Note_off_c, 2, 69, 64
4, 208491, Note_on_c, 2, 65, 70
4, 208535, Note_off_c, 2, 65, 64
4, 208556, Note_on_c, 2, 62, 89
4, 208640, Note_off_c, 2, 62, 64
4, 208736, Note_on_c, 2, 57, 85
4, 208778, Note_off_c, 2, 57, 64
4, 208799, Note_on_c, 2, 62, 82
4, 209156, Note_off_c, 2, 62, 64
4, 209207, Note_on_c, 2, 62, 80
4, 209244, Note_off_c, 2, 62, 64
4, 209269, Note_on_c, 2, 62, 82
4, 209375, Note_off_c, 2, 62, 64
4, 209444, Note_on_c, 2, 69, 85
4, 209493, Note_off_c, 2, 69, 64
4, 209508, Note_on_c, 2, 67, 87
4, 209603, Note_off_c, 2, 67, 64
4, 209691, Note_on_c, 2, 65, 76
4, 209738, Note_off_c, 2, 65, 64
4, 209754, Note_on_c, 2, 64, 82
4, 209858, Note_off_c, 2, 64, 64
4, 209922, Note_on_c, 2, 65, 68
4, 209962, Note_off_c, 2, 65, 64
4, 209984, Note_on_c, 2, 67, 80
4, 210069, Note_off_c, 2, 67, 64
4, 210154, Note_on_c, 2, 64, 78
4, 210187, Note_off_c, 2, 64, 64
4, 210225, Note_on_c, 2, 65, 87
4, 210318, Note_off_c, 2, 65, 64
4, 210401, Note_on_c, 2, 69, 87
4, 210445, Note_off_c, 2, 69, 64
4, 210472, Note_on_c, 2, 74, 89
4, 210550, Note_off_c, 2, 74, 64
4, 210640, Note_on_c, 2, 69, 85
4, 210689, Note_off_c, 2, 69, 64
4, 210704, Note_on_c, 2, 62, 85
4, 210972, Note_off_c, 2, 62, 64
4, 210998, Note_on_c, 2, 60, 72
4, 211039, Note_off_c, 2, 60, 64
4, 211056, Note_on_c, 2, 62, 68
4, 211105, Note_off_c, 2, 62, 64
4, 211122, Note_on_c, 2, 64, 87
4, 211159, Note_off_c, 2, 64, 64
4, 211183, Note_on_c, 2, 65, 82
4, 211232, Note_off_c, 2, 65, 64
4, 211242, Note_on_c, 2, 67, 80
4, 211288, Note_off_c, 2, 67, 64
4, 211306, Note_on_c, 2, 69, 80
4, 211357, Note_off_c, 2, 69, 64
4, 211364, Note_on_c, 2, 67, 74
4, 211406, Note_off_c, 2, 67, 64
4, 211424, Note_on_c, 2, 65, 80
4, 211473, Note_off_c, 2, 65, 64
4, 211484, Note_on_c, 2, 64, 80
4, 211527, Note_off_c, 2, 64, 64
4, 211544, Note_on_c, 2, 62, 80
4, 211591, Note_off_c, 2, 62, 64
4, 211603, Note_on_c, 2, 64, 78
4, 211642, Note_off_c, 2, 64, 64
4, 211667, Note_on_c, 2, 65, 80
4, 212021, Note_off_c, 2, 65, 64
4, 212087, Note_on_c, 2, 64, 78
4, 212124, Note_off_c, 2, 64, 64
4, 212151, Note_on_c, 2, 62, 80
4, 212238, Note_off_c, 2, 62, 64
4, 212328, Note_on_c, 2, 64, 80
4, 212366, Note_off_c, 2, 64, 64
4, 212391, Note_on_c, 2, 62, 87
4, 212473, Note_off_c, 2, 62, 64
4, 212566, Note_on_c, 2, 60, 76
4, 212606, Note_off_c, 2, 60, 64
4, 212627, Note_on_c, 2, 59, 87
4, 212701, Note_off_c, 2, 59, 64
4, 212795, Note_on_c, 2, 62, 64
4, 212833, Note_off_c, 2, 62, 64
4, 212861, Note_on_c, 2, 67, 85
4, 212939, Note_off_c, 2, 67, 64
4, 213041, Note_on_c, 2, 71, 82
4, 213080, Note_off_c, 2, 71, 64
4, 213106, Note_on_c, 2, 71, 85
4, 213187, Note_off_c, 2, 71, 64
4, 213291, Note_on_c, 2, 67, 76
4, 213327, Note_off_c, 2, 67, 64
4, 213352, Note_on_c, 2, 60, 66
4, 213432, Note_off_c, 2, 60, 64
4, 213525, Note_on_c, 2, 62, 82
4, 213564, Note_off_c, 2, 62, 64
4, 213592, Note_on_c, 2, 64, 85
4, 213952, Note_off_c, 2, 64, 64
4, 214009, Note_on_c, 2, 64, 82
4, 214047, Note_off_c, 2, 64, 64
4, 214072, Note_on_c, 2, 64, 87
4, 214155, Note_off_c, 2, 64, 64
4, 214248, Note_on_c, 2, 60, 80
4, 214285, Note_off_c, 2, 60, 64
4, 214316, Note_on_c, 2, 65, 87
4, 214400, Note_off_c, 2, 65, 64
4, 214484, Note_on_c, 2, 64, 76
4, 214529, Note_off_c, 2, 64, 64
4, 214552, Note_on_c, 2, 62, 87
4, 214649, Note_off_c, 2, 62, 64
4, 214726, Note_on_c, 2, 64, 78
4, 214773, Note_off_c, 2, 64, 64
4, 214792, Note_on_c, 2, 65, 85
4, 214883, Note_off_c, 2, 65, 64
4, 214969, Note_on_c, 2, 67, 78
4, 215021, Note_off_c, 2, 67, 64
4, 215036, Note_on_c, 2, 69, 85
4, 215203, Note_off_c, 2, 69, 64
4, 215269, Note_on_c, 2, 62, 80
4, 215409, Note_off_c, 2, 62, 64
4, 215499, Note_on_c, 2, 65, 76
4, 215866, Note_off_c, 2, 65, 64
4, 215927, Note_on_c, 2, 69, 87
4, 215969, Note_off_c, 2, 69, 64
4, 215991, Note_on_c, 2, 62, 80
4, 216096, Note_off_c, 2, 62, 64
4, 216167, Note_on_c, 2, 65, 70
4, 216217, Note_off_c, 2, 65, 64
4, 216230, Note_on_c, 2, 64, 89
4, 216319, Note_off_c, 2, 64, 64
4, 216414, Note_on_c, 2, 62, 80
4, 216458, Note_off_c, 2, 62, 64
4, 216478, Note_on_c, 2, 60, 64
4, 216809, Note_off_c, 2, 60, 64
4, 216883, Note_on_c, 2, 60, 68
4, 216926, Note_off_c, 2, 60, 64
4, 216950, Note_on_c, 2, 60, 72
4, 217048, Note_off_c, 2, 60, 64
4, 217117, Note_on_c, 2, 57, 72
4, 217161, Note_off_c, 2, 57, 64
4, 217187, Note_on_c, 2, 62, 91
4, 217281, Note_off_c, 2, 62, 64
4, 217374, Note_on_c, 2, 60, 62
4, 217424, Note_off_c, 2, 60, 64
4, 217442, Note_on_c, 2, 59, 85
4, 217529, Note_off_c, 2, 59, 64
4, 217616, Note_on_c, 2, 60, 64
4, 217656, Note_off_c, 2, 60, 64
4, 217680, Note_on_c, 2, 59, 82
4, 217772, Note_off_c, 2, 59, 64
4, 217859, Note_on_c, 2, 60, 68
4, 217903, Note_off_c, 2, 60, 64
4, 217917, Note_on_c, 2, 62, 87
4, 218009, Note_off_c, 2, 62, 64
4, 218009, End_track
5, 0, Start_track
5, 0, Title_t, "Cello"
5, 0, Program_c, 3, 42
5, 0, Control_c, 3, 7, 100
5, 961, Note_on_c, 3, 36, 102
5, 1251, Note_off_c, 3, 36, 64
5, 1259, Note_on_c, 3, 55, 80
5, 1290, Note_off_c, 3, 55, 64
5, 1308, Note_on_c, 3, 57, 72
5, 1345, Note_off_c, 3, 57, 64
5, 1362, Note_on_c, 3, 59, 89
5, 1394, Note_off_c, 3, 59, 64
5, 1427, Note_on_c, 3, 60, 100
5, 2052, Note_off_c, 3, 60, 64
5, 2100, Note_on_c, 3, 60, 80
5, 2139, Note_off_c, 3, 60, 64
5, 2166, Note_on_c, 3, 59, 89
5, 2248, Note_off_c, 3, 59, 64
5, 2323, Note_on_c, 3, 57, 80
5, 2356, Note_off_c, 3, 57, 64
5, 2389, Note_on_c, 3, 59, 85
5, 2478, Note_off_c, 3, 59, 64
5, 2560, Note_on_c, 3, 57, 80
5, 2593, Note_off_c, 3, 57, 64
5, 2626, Note_on_c, 3, 59, 89
5, 2707, Note_off_c, 3, 59, 64
5, 2796, Note_on_c, 3, 55, 76
5, 2836, Note_off_c, 3, 55, 64
5, 2877, Note_on_c, 3, 57, 85
5, 3131, Note_off_c, 3, 57, 64
5, 3162, Note_on_c, 3, 57, 85
5, 3208, Note_off_c, 3, 57, 64
5, 3226, Note_on_c, 3, 59, 82
5, 3272, Note_off_c, 3, 59, 64
5, 3282, Note_on_c, 3, 60, 85
5, 3318, Note_off_c, 3, 60, 64
5, 3349, Note_on_c, 3, 62, 98
5, 3391, Note_off_c, 3, 62, 64
5, 3409, Note_on_c, 3, 60, 98
5, 3450, Note_off_c, 3, 60, 64
5, 3465, Note_on_c, 3, 59, 87
5, 3506, Note_off_c, 3, 59, 64
5, 3524, Note_on_c, 3, 60, 95
5, 3559, Note_off_c, 3, 60, 64
5, 3586, Note_on_c, 3, 62, 91
5, 3630, Note_off_c, 3, 62, 64
5, 3642, Note_on_c, 3, 59, 78
5, 3685, Note_off_c, 3, 59, 64
5, 3704, Note_on_c, 3, 60, 82
5, 3739, Note_off_c, 3, 60, 64
5, 3766, Note_on_c, 3, 62, 89
5, 3801, Note_off_c, 3, 62, 64
5, 3831, Note_on_c, 3, 55, 89
5, 3951, Note_off_c, 3, 55, 64
5, 4004, Note_on_c, 3, 57, 82
5, 4037, Note_off_c, 3, 57, 64
5, 4065, Note_on_c, 3, 59, 89
5, 4158, Note_off_c, 3, 59, 64
5, 4234, Note_on_c, 3, 55, 70
5, 4274, Note_off_c, 3, 55, 64
5, 4303, Note_on_c, 3, 60, 95
5, 4458, Note_off_c, 3, 60, 64
5, 4548, Note_on_c, 3, 48, 85
5, 4698, Note_off_c, 3, 48, 64
5, 4789, Note_on_c, 3, 55, 98
5, 5315, Note_off_c, 3, 55, 64
5, 5329, Note_on_c, 3, 54, 80
5, 5373, Note_off_c, 3, 54, 64
5, 5390, Note_on_c, 3, 55, 87
5, 5440, Note_off_c, 3, 55, 64
5, 5450, Note_on_c, 3, 57, 89
5, 5486, Note_off_c, 3, 57, 64
5, 5510, Note_on_c, 3, 59, 93
5, 5549, Note_off_c, 3, 59, 64
5, 5568, Note_on_c, 3, 55, 85
5, 5611, Note_off_c, 3, 55, 64
5, 5637, Note_on_c, 3, 57, 95
5, 5674, Note_off_c, 3, 57, 64
5, 5698, Note_on_c, 3, 59, 85
5, 5741, Note_off_c, 3, 59, 64
5, 5766, Note_on_c, 3, 48, 87
5, 6259, Note_off_c, 3, 48, 64
5, 6293, Note_on_c, 3, 47, 70
5, 6333, Note_off_c, 3, 47, 64
5, 6351, Note_on_c, 3, 45, 74
5, 6397, Note_off_c, 3, 45, 64
5, 6409, Note_on_c, 3, 47, 82
5, 6447, Note_off_c, 3, 47, 64
5, 6469, Note_on_c, 3, 48, 80
5, 6512, Note_off_c, 3, 48, 64
5, 6531, Note_on_c, 3, 45, 85
5, 6573, Note_off_c, 3, 45, 64
5, 6591, Note_on_c, 3, 47, 82
5, 6630, Note_off_c, 3, 47, 64
5, 6648, Note_on_c, 3, 48, 91
5, 6692, Note_off_c, 3, 48, 64
5, 6721, Note_on_c, 3, 40, 89
5, 6888, Note_off_c, 3, 40, 64
5, 6957, Note_on_c, 3, 52, 82
5, 7224, Note_off_c, 3, 52, 64
5, 7250, Note_on_c, 3, 50, 82
5, 7294, Note_off_c, 3, 50, 64
5, 7308, Note_on_c, 3, 52, 78
5, 7351, Note_off_c, 3, 52, 64
5, 7366, Note_on_c, 3, 54, 85
5, 7408, Note_off_c, 3, 54, 64
5, 7430, Note_on_c, 3, 55, 85
5, 7474, Note_off_c, 3, 55, 64
5, 7489, Note_on_c, 3, 54, 85
5, 7530, Note_off_c, 3, 54, 64
5, 7550, Note_on_c, 3, 55, 82
5, 7590, Note_off_c, 3, 55, 64
5, 7610, Note_on_c, 3, 52, 64
5, 7659, Note_off_c, 3, 52, 64
5, 7688, Note_on_c, 3, 61, 82
5, 8256, Note_off_c, 3, 61, 64
5, 8322, Note_on_c, 3, 59, 63
5, 8355, Note_off_c, 3, 59, 64
5, 8387, Note_on_c, 3, 61, 87
5, 8475, Note_off_c, 3, 61, 64
5, 8569, Note_on_c, 3, 57, 64
5, 8605, Note_off_c, 3, 57, 64
5, 8639, Note_on_c, 3, 62, 82
5, 9230, Note_off_c, 3, 62, 64
5, 9293, Note_on_c, 3, 64, 82
5, 9338, Note_off_c, 3, 64, 64
5, 9353, Note_on_c, 3, 62, 87
5, 9448, Note_off_c, 3, 62, 64
5, 9538, Note_on_c, 3, 60, 82
5, 9575, Note_off_c, 3, 60, 64
5, 9600, Note_on_c, 3, 59, 80
5, 10110, Note_off_c, 3, 59, 64
5, 10130, Note_on_c, 3, 57, 78
5, 10164, Note_off_c, 3, 57, 64
5, 10187, Note_on_c, 3, 55, 80
5, 10232, Note_off_c, 3, 55, 64
5, 10246, Note_on_c, 3, 57, 85
5, 10279, Note_off_c, 3, 57, 64
5, 10309, Note_on_c, 3, 59, 85
5, 10351, Note_off_c, 3, 59, 64
5, 10372, Note_on_c, 3, 55, 87
5, 10416, Note_off_c, 3, 55, 64
5, 10436, Note_on_c, 3, 57, 98
5, 10469, Note_off_c, 3, 57, 64
5, 10495, Note_on_c, 3, 59, 82
5, 10534, Note_off_c, 3, 59, 64
5, 10558, Note_on_c, 3, 48, 82
5, 11074, Note_off_c, 3, 48, 64
5, 11099, Note_on_c, 3, 47, 82
5, 11147, Note_off_c, 3, 47, 64
5, 11159, Note_on_c, 3, 48, 89
5, 11205, Note_off_c, 3, 48, 64
5, 11214, Note_on_c, 3, 50, 82
5, 11253, Note_off_c, 3, 50, 64
5, 11277, Note_on_c, 3, 52, 85
5, 11318, Note_off_c, 3, 52, 64
5, 11338, Note_on_c, 3, 48, 85
5, 11382, Note_off_c, 3, 48, 64
5, 11402, Note_on_c, 3, 50, 102
5, 11439, Note_off_c, 3, 50, 64
5, 11462, Note_on_c, 3, 52, 76
5, 11506, Note_off_c, 3, 52, 64
5, 11529, Note_on_c, 3, 45, 91
5, 12018, Note_off_c, 3, 45, 64
5, 12054, Note_on_c, 3, 43, 82
5, 12102, Note_off_c, 3, 43, 64
5, 12117, Note_on_c, 3, 45, 85
5, 12170, Note_off_c, 3, 45, 64
5, 12176, Note_on_c, 3, 47, 82
5, 12213, Note_off_c, 3, 47, 64
5, 12236, Note_on_c, 3, 48, 89
5, 12275, Note_off_c, 3, 48, 64
5, 12292, Note_on_c, 3, 47, 82
5, 12335, Note_off_c, 3, 47, 64
5, 12350, Note_on_c, 3, 48, 87
5, 12391, Note_off_c, 3, 48, 64
5, 12411, Note_on_c, 3, 50, 80
5, 12450, Note_off_c, 3, 50, 64
5, 12480, Note_on_c, 3, 52, 85
5, 12624, Note_off_c, 3, 52, 64
5, 12717, Note_on_c, 3, 64, 80
5, 12834, Note_off_c, 3, 64, 64
5, 12954, Note_on_c, 3, 62, 85
5, 13077, Note_off_c, 3, 62, 64
5, 13195, Note_on_c, 3, 60, 87
5, 13308, Note_off_c, 3, 60, 64
5, 13440, Note_on_c, 3, 59, 87
5, 13552, Note_off_c, 3, 59, 64
5, 13673, Note_on_c, 3, 47, 85
5, 13788, Note_off_c, 3, 47, 64
5, 13905, Note_on_c, 3, 45, 85
5, 14021, Note_off_c, 3, 45, 64
5, 14148, Note_on_c, 3, 43, 85
5, 14268, Note_off_c, 3, 43, 64
5, 14394, Note_on_c, 3, 42, 85
5, 14594, Note_off_c, 3, 42, 64
5, 14636, Note_on_c, 3, 43, 85
5, 14769, Note_off_c, 3, 43, 64
5, 14818, Note_on_c, 3, 48, 87
5, 14854, Note_off_c, 3, 48, 64
5, 14877, Note_on_c, 3, 50, 85
5, 15040, Note_off_c, 3, 50, 64
5, 15117, Note_on_c, 3, 38, 89
5, 15266, Note_off_c, 3, 38, 64
5, 15363, Note_on_c, 3, 43, 95
5, 15607, Note_off_c, 3, 43, 64
5, 35157, Note_on_c, 3, 60, 70
5, 35186, Note_off_c, 3, 60, 64
5, 35276, Note_on_c, 3, 60, 85
5, 35312, Note_off_c, 3, 60, 64
5, 35395, Note_on_c, 3, 60, 82
5, 35441, Note_off_c, 3, 60, 64
5, 35508, Note_on_c, 3, 59, 87
5, 35622, Note_on_c, 3, 60, 78
5, 35629, Note_off_c, 3, 59, 64
5, 35677, Note_on_c, 3, 62, 82
5, 35678, Note_off_c, 3, 60, 64
5, 35720, Note_off_c, 3, 62, 64
5, 35741, Note_on_c, 3, 64, 87
5, 35788, Note_off_c, 3, 64, 64
5, 35864, Note_on_c, 3, 60, 82
5, 35912, Note_off_c, 3, 60, 64
5, 35992, Note_on_c, 3, 57, 85
5, 36046, Note_off_c, 3, 57, 64
5, 36109, Note_on_c, 3, 62, 85
5, 36150, Note_off_c, 3, 62, 64
5, 36228, Note_on_c, 3, 50, 82
5, 36286, Note_off_c, 3, 50, 64
5, 36347, Note_on_c, 3, 60, 87
5, 36393, Note_off_c, 3, 60, 64
5, 36478, Note_on_c, 3, 59, 82
5, 36533, Note_on_c, 3, 57, 78
5, 36537, Note_off_c, 3, 59, 64
5, 36585, Note_off_c, 3, 57, 64
5, 36588, Note_on_c, 3, 55, 68
5, 36644, Note_on_c, 3, 57, 66
5, 36655, Note_off_c, 3, 55, 64
5, 36697, Note_off_c, 3, 57, 64
5, 36711, Note_on_c, 3, 59, 87
5, 36767, Note_on_c, 3, 55, 80
5, 36778, Note_off_c, 3, 59, 64
5, 36820, Note_on_c, 3, 57, 66
5, 36824, Note_off_c, 3, 55, 64
5, 36875, Note_on_c, 3, 59, 72
5, 36883, Note_off_c, 3, 57, 64
5, 36918, Note_off_c, 3, 59, 64
5, 36944, Note_on_c, 3, 60, 80
5, 36999, Note_off_c, 3, 60, 64
5, 37064, Note_on_c, 3, 55, 82
5, 37112, Note_off_c, 3, 55, 64
5, 37187, Note_on_c, 3, 60, 89
5, 37321, Note_off_c, 3, 60, 64
5, 37367, Note_on_c, 3, 60, 78
5, 37399, Note_off_c, 3, 60, 64
5, 37435, Note_on_c, 3, 60, 85
5, 37487, Note_on_c, 3, 59, 85
5, 37488, Note_off_c, 3, 60, 64
5, 37535, Note_off_c, 3, 59, 64
5, 37546, Note_on_c, 3, 60, 80
5, 37592, Note_off_c, 3, 60, 64
5, 37600, Note_on_c, 3, 57, 68
5, 37642, Note_off_c, 3, 57, 64
5, 37666, Note_on_c, 3, 59, 87
5, 37808, Note_off_c, 3, 59, 64
5, 37851, Note_on_c, 3, 59, 80
5, 37883, Note_off_c, 3, 59, 64
5, 37910, Note_on_c, 3, 59, 93
5, 37952, Note_off_c, 3, 59, 64
5, 38033, Note_on_c, 3, 52, 89
5, 38078, Note_off_c, 3, 52, 64
5, 38158, Note_on_c, 3, 57, 89
5, 38306, Note_off_c, 3, 57, 64
5, 38336, Note_on_c, 3, 57, 87
5, 38366, Note_off_c, 3, 57, 64
5, 38402, Note_on_c, 3, 57, 91
5, 38453, Note_on_c, 3, 55, 76
5, 38454, Note_off_c, 3, 57, 64
5, 38498, Note_off_c, 3, 55, 64
5, 38505, Note_on_c, 3, 57, 64
5, 38547, Note_off_c, 3, 57, 64
5, 38551, Note_on_c, 3, 53, 78
5, 38589, Note_off_c, 3, 53, 64
5, 38618, Note_on_c, 3, 55, 76
5, 38766, Note_off_c, 3, 55, 64
5, 38810, Note_on_c, 3, 55, 80
5, 38845, Note_off_c, 3, 55, 64
5, 38868, Note_on_c, 3, 55, 89
5, 38907, Note_off_c, 3, 55, 64
5, 38994, Note_on_c, 3, 48, 100
5, 39046, Note_off_c, 3, 48, 64
5, 39114, Note_on_c, 3, 53, 89
5, 39262, Note_off_c, 3, 53, 64
5, 39296, Note_on_c, 3, 53, 78
5, 39323, Note_off_c, 3, 53, 64
5, 39356, Note_on_c, 3, 53, 91
5, 39405, Note_on_c, 3, 52, 72
5, 39408, Note_off_c, 3, 53, 64
5, 39456, Note_off_c, 3, 52, 64
5, 39458, Note_on_c, 3, 53, 68
5, 39510, Note_off_c, 3, 53, 64
5, 39515, Note_on_c, 3, 50, 62
5, 39553, Note_off_c, 3, 50, 64
5, 39587, Note_on_c, 3, 52, 85
5, 39644, Note_on_c, 3, 53, 64
5, 39651, Note_off_c, 3, 52, 64
5, 39699, Note_off_c, 3, 53, 64
5, 39700, Note_on_c, 3, 55, 70
5, 39747, Note_off_c, 3, 55, 64
5, 39757, Note_on_c, 3, 52, 66
5, 39800, Note_off_c, 3, 52, 64
5, 39825, Note_on_c, 3, 57, 91
5, 39882, Note_on_c, 3, 58, 78
5, 39889, Note_off_c, 3, 57, 64
5, 39934, Note_off_c, 3, 58, 64
5, 39943, Note_on_c, 3, 57, 72
5, 40002, Note_on_c, 3, 55, 60
5, 40015, Note_off_c, 3, 57, 64
5, 40056, Note_off_c, 3, 55, 64
5, 40057, Note_on_c, 3, 53, 66
5, 40116, Note_on_c, 3, 52, 55
5, 40126, Note_off_c, 3, 53, 64
5, 40184, Note_on_c, 3, 50, 64
5, 40189, Note_off_c, 3, 52, 64
5, 40248, Note_on_c, 3, 48, 66
5, 40250, Note_off_c, 3, 50, 64
5, 40289, Note_off_c, 3, 48, 64
5, 40310, Note_on_c, 3, 47, 82
5, 40374, Note_on_c, 3, 45, 80
5, 40384, Note_off_c, 3, 47, 64
5, 40438, Note_off_c, 3, 45, 64
5, 40439, Note_on_c, 3, 43, 74
5, 40496, Note_off_c, 3, 43, 64
5, 40496, Note_on_c, 3, 45, 78
5, 40539, Note_off_c, 3, 45, 64
5, 40556, Note_on_c, 3, 47, 82
5, 40610, Note_on_c, 3, 45, 80
5, 40611, Note_off_c, 3, 47, 64
5, 40661, Note_off_c, 3, 45, 64
5, 40661, Note_on_c, 3, 47, 66
5, 40710, Note_off_c, 3, 47, 64
5, 40720, Note_on_c, 3, 43, 63
5, 40774, Note_off_c, 3, 43, 64
5, 40780, Note_on_c, 3, 49, 76
5, 40788, Note_on_c, 3, 48, 87
5, 40790, Note_off_c, 3, 49, 64
5, 40849, Note_off_c, 3, 48, 64
5, 40911, Note_on_c, 3, 53, 89
5, 40964, Note_off_c, 3, 53, 64
5, 41035, Note_on_c, 3, 55, 91
5, 41085, Note_off_c, 3, 55, 64
5, 41156, Note_on_c, 3, 43, 89
5, 41206, Note_off_c, 3, 43, 64
5, 41281, Note_on_c, 3, 48, 93
5, 41422, Note_off_c, 3, 48, 64
5, 47568, Note_on_c, 3, 60, 82
5, 47629, Note_on_c, 3, 59, 66
5, 47640, Note_off_c, 3, 60, 64
5, 47685, Note_off_c, 3, 59, 64
5, 47690, Note_on_c, 3, 57, 66
5, 47741, Note_off_c, 3, 57, 64
5, 47748, Note_on_c, 3, 56, 63
5, 47788, Note_off_c, 3, 56, 64
5, 47801, Note_on_c, 3, 57, 62
5, 47864, Note_on_c, 3, 56, 60
5, 47872, Note_off_c, 3, 57, 64
5, 47914, Note_on_c, 3, 54, 55
5, 47915, Note_off_c, 3, 56, 64
5, 47968, Note_off_c, 3, 54, 64
5, 47977, Note_on_c, 3, 52, 68
5, 48032, Note_off_c, 3, 52, 64
5, 48043, Note_on_c, 3, 62, 80
5, 48101, Note_on_c, 3, 60, 78
5, 48110, Note_off_c, 3, 62, 64
5, 48157, Note_off_c, 3, 60, 64
5, 48160, Note_on_c, 3, 59, 64
5, 48215, Note_off_c, 3, 59, 64
5, 48222, Note_on_c, 3, 57, 60
5, 48267, Note_off_c, 3, 57, 64
5, 48276, Note_on_c, 3, 59, 64
5, 48342, Note_on_c, 3, 57, 59
5, 48349, Note_off_c, 3, 59, 64
5, 48394, Note_on_c, 3, 55, 66
5, 48409, Note_off_c, 3, 57, 64
5, 48455, Note_on_c, 3, 53, 59
5, 48460, Note_off_c, 3, 55, 64
5, 48516, Note_on_c, 3, 52, 64
5, 48517, Note_off_c, 3, 53, 64
5, 48574, Note_on_c, 3, 53, 68
5, 48575, Note_off_c, 3, 52, 64
5, 48627, Note_off_c, 3, 53, 64
5, 48633, Note_on_c, 3, 50, 66
5, 48689, Note_off_c, 3, 50, 64
5, 48699, Note_on_c, 3, 52, 85
5, 48755, Note_off_c, 3, 52, 64
5, 48817, Note_on_c, 3, 40, 87
5, 48867, Note_off_c, 3, 40, 64
5, 48942, Note_on_c, 3, 45, 89
5, 49034, Note_off_c, 3, 45, 64
5, 49071, Note_on_c, 3, 57, 70
5, 49112, Note_off_c, 3, 57, 64
5, 49187, Note_on_c, 3, 57, 76
5, 49230, Note_off_c, 3, 57, 64
5, 49304, Note_on_c, 3, 57, 82
5, 49347, Note_off_c, 3, 57, 64
5, 49424, Note_on_c, 3, 55, 87
5, 49544, Note_off_c, 3, 55, 64
5, 49544, Note_on_c, 3, 57, 78
5, 49595, Note_on_c, 3, 59, 74
5, 49602, Note_off_c, 3, 57, 64
5, 49641, Note_off_c, 3, 59, 64
5, 49658, Note_on_c, 3, 60, 95
5, 49708, Note_off_c, 3, 60, 64
5, 49781, Note_on_c, 3, 57, 82
5, 49830, Note_off_c, 3, 57, 64
5, 49900, Note_on_c, 3, 54, 82
5, 49953, Note_off_c, 3, 54, 64
5, 50026, Note_on_c, 3, 59, 87
5, 50069, Note_off_c, 3, 59, 64
5, 50148, Note_on_c, 3, 47, 85
5, 50200, Note_off_c, 3, 47, 64
5, 50264, Note_on_c, 3, 59, 91
5, 50307, Note_off_c, 3, 59, 64
5, 50397, Note_on_c, 3, 52, 74
5, 50636, Note_off_c, 3, 52, 64
5, 51945, Note_on_c, 3, 52, 80
5, 51989, Note_off_c, 3, 52, 64
5, 52067, Note_on_c, 3, 52, 82
5, 52114, Note_off_c, 3, 52, 64
5, 52191, Note_on_c, 3, 52, 82
5, 52235, Note_off_c, 3, 52, 64
5, 52311, Note_on_c, 3, 48, 87
5, 52424, Note_off_c, 3, 48, 64
5, 52424, Note_on_c, 3, 50, 82
5, 52480, Note_on_c, 3, 52, 80
5, 52484, Note_off_c, 3, 50, 64
5, 52525, Note_off_c, 3, 52, 64
5, 52544, Note_on_c, 3, 53, 82
5, 52592, Note_off_c, 3, 53, 64
5, 52661, Note_on_c, 3, 50, 87
5, 52708, Note_off_c, 3, 50, 64
5, 52780, Note_on_c, 3, 47, 82
5, 52834, Note_off_c, 3, 47, 64
5, 52894, Note_on_c, 3, 52, 85
5, 52936, Note_off_c, 3, 52, 64
5, 53024, Note_on_c, 3, 40, 95
5, 53084, Note_off_c, 3, 40, 64
5, 53145, Note_on_c, 3, 50, 89
5, 53192, Note_off_c, 3, 50, 64
5, 53268, Note_on_c, 3, 48, 85
5, 53327, Note_on_c, 3, 47, 85
5, 53336, Note_off_c, 3, 48, 64
5, 53388, Note_on_c, 3, 45, 70
5, 53391, Note_off_c, 3, 47, 64
5, 53446, Note_on_c, 3, 47, 64
5, 53448, Note_off_c, 3, 45, 64
5, 53504, Note_off_c, 3, 47, 64
5, 53506, Note_on_c, 3, 48, 72
5, 53567, Note_on_c, 3, 50, 80
5, 53571, Note_off_c, 3, 48, 64
5, 53626, Note_on_c, 3, 52, 68
5, 53629, Note_off_c, 3, 50, 64
5, 53666, Note_off_c, 3, 52, 64
5, 53681, Note_on_c, 3, 48, 76
5, 53723, Note_off_c, 3, 48, 64
5, 53744, Note_on_c, 3, 53, 85
5, 53805, Note_off_c, 3, 53, 64
5, 53805, Note_on_c, 3, 55, 87
5, 53863, Note_off_c, 3, 55, 64
5, 53867, Note_on_c, 3, 53, 66
5, 53926, Note_on_c, 3, 52, 70
5, 53936, Note_off_c, 3, 53, 64
5, 53986, Note_on_c, 3, 50, 53
5, 53988, Note_off_c, 3, 52, 64
5, 54049, Note_on_c, 3, 48, 57
5, 54056, Note_off_c, 3, 50, 64
5, 54094, Note_off_c, 3, 48, 64
5, 54102, Note_on_c, 3, 50, 59
5, 54158, Note_on_c, 3, 47, 61
5, 54162, Note_off_c, 3, 50, 64
5, 54207, Note_off_c, 3, 47, 64
5, 54231, Note_on_c, 3, 52, 87
5, 54290, Note_on_c, 3, 53, 87
5, 54296, Note_off_c, 3, 52, 64
5, 54351, Note_on_c, 3, 52, 76
5, 54360, Note_off_c, 3, 53, 64
5, 54406, Note_on_c, 3, 50, 60
5, 54409, Note_off_c, 3, 52, 64
5, 54471, Note_off_c, 3, 50, 64
5, 54472, Note_on_c, 3, 48, 85
5, 54519, Note_off_c, 3, 48, 64
5, 54528, Note_on_c, 3, 50, 68
5, 54588, Note_on_c, 3, 48, 66
5, 54605, Note_off_c, 3, 50, 64
5, 54649, Note_on_c, 3, 47, 85
5, 54651, Note_off_c, 3, 48, 64
5, 54707, Note_off_c, 3, 47, 64
5, 54713, Note_on_c, 3, 45, 78
5, 54763, Note_off_c, 3, 45, 64
5, 54832, Note_on_c, 3, 50, 89
5, 54878, Note_off_c, 3, 50, 64
5, 54952, Note_on_c, 3, 52, 87
5, 54994, Note_off_c, 3, 52, 64
5, 55067, Note_on_c, 3, 40, 89
5, 55114, Note_off_c, 3, 40, 64
5, 55194, Note_on_c, 3, 45, 91
5, 55430, Note_off_c, 3, 45, 64
5, 79797, Note_on_c, 3, 64, 82
5, 79842, Note_off_c, 3, 64, 64
5, 79849, Note_on_c, 3, 62, 68
5, 79889, Note_off_c, 3, 62, 64
5, 79907, Note_on_c, 3, 60, 63
5, 79951, Note_off_c, 3, 60, 64
5, 79961, Note_on_c, 3, 59, 80
5, 80004, Note_off_c, 3, 59, 64
5, 80021, Note_on_c, 3, 60, 66
5, 80064, Note_off_c, 3, 60, 64
5, 80077, Note_on_c, 3, 57, 68
5, 80127, Note_off_c, 3, 57, 64
5, 80143, Note_on_c, 3, 62, 87
5, 80194, Note_off_c, 3, 62, 64
5, 80265, Note_on_c, 3, 50, 78
5, 80342, Note_off_c, 3, 50, 64
5, 81708, Note_on_c, 3, 62, 82
5, 81762, Note_off_c, 3, 62, 64
5, 81765, Note_on_c, 3, 60, 80
5, 81804, Note_off_c, 3, 60, 64
5, 81816, Note_on_c, 3, 58, 64
5, 81851, Note_off_c, 3, 58, 64
5, 81871, Note_on_c, 3, 57, 82
5, 81912, Note_off_c, 3, 57, 64
5, 81930, Note_on_c, 3, 58, 85
5, 81979, Note_off_c, 3, 58, 64
5, 81988, Note_on_c, 3, 55, 68
5, 82029, Note_off_c, 3, 55, 64
5, 82048, Note_on_c, 3, 60, 87
5, 82096, Note_off_c, 3, 60, 64
5, 82181, Note_on_c, 3, 48, 76
5, 82254, Note_off_c, 3, 48, 64
5, 84050, Note_on_c, 3, 58, 82
5, 84091, Note_off_c, 3, 58, 64
5, 84108, Note_on_c, 3, 57, 80
5, 84150, Note_off_c, 3, 57, 64
5, 84164, Note_on_c, 3, 55, 76
5, 84217, Note_off_c, 3, 55, 64
5, 84224, Note_on_c, 3, 53, 61
5, 84265, Note_off_c, 3, 53, 64
5, 84282, Note_on_c, 3, 52, 61
5, 84320, Note_off_c, 3, 52, 64
5, 84336, Note_on_c, 3, 53, 63
5, 84382, Note_off_c, 3, 53, 64
5, 84392, Note_on_c, 3, 50, 66
5, 84438, Note_off_c, 3, 50, 64
5, 84454, Note_on_c, 3, 55, 82
5, 84504, Note_off_c, 3, 55, 64
5, 84580, Note_on_c, 3, 43, 66
5, 84653, Note_off_c, 3, 43, 64
5, 102834, Note_on_c, 3, 60, 76
5, 102877, Note_off_c, 3, 60, 64
5, 102950, Note_on_c, 3, 60, 78
5, 102994, Note_off_c, 3, 60, 64
5, 103071, Note_on_c, 3, 60, 80
5, 103112, Note_off_c, 3, 60, 64
5, 103192, Note_on_c, 3, 59, 80
5, 103300, Note_off_c, 3, 59, 64
5, 103314, Note_on_c, 3, 60, 76
5, 103361, Note_on_c, 3, 62, 72
5, 103364, Note_off_c, 3, 60, 64
5, 103406, Note_off_c, 3, 62, 64
5, 103422, Note_on_c, 3, 64, 87
5, 103467, Note_off_c, 3, 64, 64
5, 103544, Note_on_c, 3, 60, 82
5, 103587, Note_off_c, 3, 60, 64
5, 103665, Note_on_c, 3, 57, 72
5, 103719, Note_off_c, 3, 57, 64
5, 103776, Note_on_c, 3, 62, 80
5, 103821, Note_off_c, 3, 62, 64
5, 103896, Note_on_c, 3, 50, 85
5, 103956, Note_off_c, 3, 50, 64
5, 104024, Note_on_c, 3, 60, 80
5, 104075, Note_off_c, 3, 60, 64
5, 104144, Note_on_c, 3, 59, 82
5, 104196, Note_off_c, 3, 59, 64
5, 104259, Note_on_c, 3, 55, 63
5, 104309, Note_off_c, 3, 55, 64
5, 104380, Note_on_c, 3, 60, 89
5, 104421, Note_off_c, 3, 60, 64
5, 104500, Note_on_c, 3, 48, 85
5, 104554, Note_off_c, 3, 48, 64
5, 104620, Note_on_c, 3, 53, 85
5, 104675, Note_off_c, 3, 53, 64
5, 104682, Note_on_c, 3, 57, 80
5, 104741, Note_off_c, 3, 57, 64
5, 104747, Note_on_c, 3, 55, 51
5, 104799, Note_off_c, 3, 55, 64
5, 104802, Note_on_c, 3, 57, 66
5, 104861, Note_off_c, 3, 57, 64
5, 104862, Note_on_c, 3, 58, 74
5, 104916, Note_on_c, 3, 57, 63
5, 104919, Note_off_c, 3, 58, 64
5, 104980, Note_off_c, 3, 57, 64
5, 104981, Note_on_c, 3, 55, 60
5, 105038, Note_off_c, 3, 55, 64
5, 105039, Note_on_c, 3, 53, 68
5, 105082, Note_off_c, 3, 53, 64
5, 105100, Note_on_c, 3, 52, 72
5, 105145, Note_off_c, 3, 52, 64
5, 105156, Note_on_c, 3, 55, 59
5, 105219, Note_off_c, 3, 55, 64
5, 105219, Note_on_c, 3, 53, 53
5, 105277, Note_on_c, 3, 55, 70
5, 105284, Note_off_c, 3, 53, 64
5, 105324, Note_off_c, 3, 55, 64
5, 105343, Note_on_c, 3, 57, 85
5, 105393, Note_off_c, 3, 57, 64
5, 105401, Note_on_c, 3, 55, 66
5, 105450, Note_off_c, 3, 55, 64
5, 105464, Note_on_c, 3, 53, 57
5, 105510, Note_off_c, 3, 53, 64
5, 105521, Note_on_c, 3, 52, 64
5, 105562, Note_off_c, 3, 52, 64
5, 105585, Note_on_c, 3, 50, 80
5, 105699, Note_off_c, 3, 50, 64
5, 105718, Note_on_c, 3, 52, 80
5, 105764, Note_off_c, 3, 52, 64
5, 105769, Note_on_c, 3, 53, 70
5, 105811, Note_off_c, 3, 53, 64
5, 105836, Note_on_c, 3, 55, 85
5, 105881, Note_off_c, 3, 55, 64
5, 105947, Note_on_c, 3, 43, 87
5, 105989, Note_off_c, 3, 43, 64
5, 106074, Note_on_c, 3, 48, 91
5, 106135, Note_off_c, 3, 48, 64
5, 106138, Note_on_c, 3, 55, 80
5, 106188, Note_off_c, 3, 55, 64
5, 106190, Note_on_c, 3, 57, 74
5, 106237, Note_off_c, 3, 57, 64
5, 106245, Note_on_c, 3, 59, 85
5, 106287, Note_off_c, 3, 59, 64
5, 106316, Note_on_c, 3, 60, 80
5, 106457, Note_off_c, 3, 60, 64
5, 106488, Note_on_c, 3, 60, 80
5, 106522, Note_off_c, 3, 60, 64
5, 106555, Note_on_c, 3, 60, 89
5, 106605, Note_off_c, 3, 60, 64
5, 106611, Note_on_c, 3, 59, 80
5, 106656, Note_off_c, 3, 59, 64
5, 106666, Note_on_c, 3, 60, 82
5, 106710, Note_off_c, 3, 60, 64
5, 106723, Note_on_c, 3, 57, 68
5, 106769, Note_off_c, 3, 57, 64
5, 106789, Note_on_c, 3, 59, 87
5, 106934, Note_off_c, 3, 59, 64
5, 106976, Note_on_c, 3, 59, 87
5, 107006, Note_off_c, 3, 59, 64
5, 107033, Note_on_c, 3, 59, 91
5, 107069, Note_off_c, 3, 59, 64
5, 107154, Note_on_c, 3, 52, 82
5, 107199, Note_off_c, 3, 52, 64
5, 107276, Note_on_c, 3, 57, 80
5, 107411, Note_off_c, 3, 57, 64
5, 107449, Note_on_c, 3, 57, 85
5, 107480, Note_off_c, 3, 57, 64
5, 107512, Note_on_c, 3, 57, 85
5, 107561, Note_off_c, 3, 57, 64
5, 107562, Note_on_c, 3, 55, 68
5, 107606, Note_off_c, 3, 55, 64
5, 107620, Note_on_c, 3, 57, 80
5, 107661, Note_off_c, 3, 57, 64
5, 107675, Note_on_c, 3, 53, 70
5, 107718, Note_off_c, 3, 53, 64
5, 107740, Note_on_c, 3, 55, 68
5, 107882, Note_off_c, 3, 55, 64
5, 107918, Note_on_c, 3, 55, 91
5, 107953, Note_off_c, 3, 55, 64
5, 107982, Note_on_c, 3, 55, 91
5, 108027, Note_off_c, 3, 55, 64
5, 108111, Note_on_c, 3, 48, 91
5, 108157, Note_off_c, 3, 48, 64
5, 108232, Note_on_c, 3, 53, 85
5, 108376, Note_off_c, 3, 53, 64
5, 108414, Note_on_c, 3, 53, 87
5, 108443, Note_off_c, 3, 53, 64
5, 108476, Note_on_c, 3, 53, 98
5, 108525, Note_off_c, 3, 53, 64
5, 108527, Note_on_c, 3, 52, 80
5, 108576, Note_off_c, 3, 52, 64
5, 108583, Note_on_c, 3, 53, 76
5, 108630, Note_off_c, 3, 53, 64
5, 108635, Note_on_c, 3, 50, 72
5, 108680, Note_off_c, 3, 50, 64
5, 108697, Note_on_c, 3, 52, 82
5, 108755, Note_off_c, 3, 52, 64
5, 108757, Note_on_c, 3, 53, 80
5, 108819, Note_off_c, 3, 53, 64
5, 108819, Note_on_c, 3, 55, 74
5, 108856, Note_off_c, 3, 55, 64
5, 108868, Note_on_c, 3, 52, 63
5, 108915, Note_off_c, 3, 52, 64
5, 108941, Note_on_c, 3, 57, 82
5, 109006, Note_on_c, 3, 58, 64
5, 109013, Note_off_c, 3, 57, 64
5, 109065, Note_off_c, 3, 58, 64
5, 109065, Note_on_c, 3, 57, 68
5, 109127, Note_on_c, 3, 55, 72
5, 109132, Note_off_c, 3, 57, 64
5, 109185, Note_off_c, 3, 55, 64
5, 109185, Note_on_c, 3, 53, 64
5, 109244, Note_on_c, 3, 52, 55
5, 109245, Note_off_c, 3, 53, 64
5, 109306, Note_off_c, 3, 52, 64
5, 109307, Note_on_c, 3, 50, 59
5, 109366, Note_off_c, 3, 50, 64
5, 109367, Note_on_c, 3, 48, 72
5, 109414, Note_off_c, 3, 48, 64
5, 109425, Note_on_c, 3, 47, 70
5, 109490, Note_off_c, 3, 47, 64
5, 109490, Note_on_c, 3, 45, 62
5, 109549, Note_off_c, 3, 45, 64
5, 109553, Note_on_c, 3, 43, 64
5, 109608, Note_off_c, 3, 43, 64
5, 109612, Note_on_c, 3, 45, 68
5, 109656, Note_off_c, 3, 45, 64
5, 109673, Note_on_c, 3, 47, 80
5, 109723, Note_off_c, 3, 47, 64
5, 109725, Note_on_c, 3, 45, 68
5, 109786, Note_on_c, 3, 47, 68
5, 109787, Note_off_c, 3, 45, 64
5, 109825, Note_off_c, 3, 47, 64
5, 109843, Note_on_c, 3, 43, 61
5, 109893, Note_off_c, 3, 43, 64
5, 109909, Note_on_c, 3, 48, 78
5, 109961, Note_off_c, 3, 48, 64
5, 110031, Note_on_c, 3, 53, 82
5, 110077, Note_off_c, 3, 53, 64
5, 110156, Note_on_c, 3, 55, 87
5, 110192, Note_off_c, 3, 55, 64
5, 110272, Note_on_c, 3, 43, 89
5, 110313, Note_off_c, 3, 43, 64
5, 110404, Note_on_c, 3, 36, 76
5, 110997, Note_off_c, 3, 36, 64
5, 124014, Note_on_c, 3, 47, 78
5, 124053, Note_off_c, 3, 47, 64
5, 124076, Note_on_c, 3, 48, 91
5, 124158, Note_off_c, 3, 48, 64
5, 124256, Note_on_c, 3, 41, 80
5, 124291, Note_off_c, 3, 41, 64
5, 124320, Note_on_c, 3, 43, 85
5, 124504, Note_off_c, 3, 43, 64
5, 124559, Note_on_c, 3, 43, 80
5, 124710, Note_off_c, 3, 43, 64
5, 124796, Note_on_c, 3, 36, 91
5, 124878, Note_off_c, 3, 36, 64
5, 150775, Note_on_c, 3, 60, 72
5, 150808, Note_off_c, 3, 60, 64
5, 150832, Note_on_c, 3, 59, 63
5, 150867, Note_off_c, 3, 59, 64
5, 150887, Note_on_c, 3, 57, 64
5, 150928, Note_off_c, 3, 57, 64
5, 150946, Note_on_c, 3, 55, 72
5, 150979, Note_off_c, 3, 55, 64
5, 151001, Note_on_c, 3, 54, 66
5, 151033, Note_off_c, 3, 54, 64
5, 151059, Note_on_c, 3, 55, 87
5, 151089, Note_off_c, 3, 55, 64
5, 151115, Note_on_c, 3, 52, 82
5, 151144, Note_off_c, 3, 52, 64
5, 151185, Note_on_c, 3, 57, 91
5, 151233, Note_off_c, 3, 57, 64
5, 151306, Note_on_c, 3, 45, 82
5, 151380, Note_off_c, 3, 45, 64
5, 152685, Note_on_c, 3, 58, 82
5, 152724, Note_off_c, 3, 58, 64
5, 152742, Note_on_c, 3, 57, 87
5, 152781, Note_off_c, 3, 57, 64
5, 152800, Note_on_c, 3, 55, 80
5, 152865, Note_off_c, 3, 55, 64
5, 152870, Note_on_c, 3, 53, 66
5, 152904, Note_off_c, 3, 53, 64
5, 152927, Note_on_c, 3, 52, 64
5, 152961, Note_off_c, 3, 52, 64
5, 152986, Note_on_c, 3, 53, 68
5, 153026, Note_off_c, 3, 53, 64
5, 153045, Note_on_c, 3, 50, 64
5, 153083, Note_off_c, 3, 50, 64
5, 153105, Note_on_c, 3, 55, 76
5, 153152, Note_off_c, 3, 55, 64
5, 153223, Note_on_c, 3, 43, 68
5, 153294, Note_off_c, 3, 43, 64
5, 155091, Note_on_c, 3, 53, 70
5, 155130, Note_off_c, 3, 53, 64
5, 155149, Note_on_c, 3, 52, 80
5, 155185, Note_off_c, 3, 52, 64
5, 155205, Note_on_c, 3, 50, 66
5, 155261, Note_off_c, 3, 50, 64
5, 155265, Note_on_c, 3, 48, 68
5, 155302, Note_off_c, 3, 48, 64
5, 155322, Note_on_c, 3, 47, 70
5, 155359, Note_off_c, 3, 47, 64
5, 155379, Note_on_c, 3, 48, 66
5, 155424, Note_off_c, 3, 48, 64
5, 155442, Note_on_c, 3, 45, 68
5, 155486, Note_off_c, 3, 45, 64
5, 155510, Note_on_c, 3, 50, 85
5, 155559, Note_off_c, 3, 50, 64
5, 155626, Note_on_c, 3, 38, 80
5, 155700, Note_off_c, 3, 38, 64
5, 156111, Note_on_c, 3, 55, 80
5, 156149, Note_off_c, 3, 55, 64
5, 156230, Note_on_c, 3, 55, 78
5, 156277, Note_off_c, 3, 55, 64
5, 156350, Note_on_c, 3, 55, 80
5, 156397, Note_off_c, 3, 55, 64
5, 156470, Note_on_c, 3, 54, 74
5, 156583, Note_off_c, 3, 54, 64
5, 156594, Note_on_c, 3, 55, 68
5, 156634, Note_off_c, 3, 55, 64
5, 156650, Note_on_c, 3, 57, 80
5, 156686, Note_off_c, 3, 57, 64
5, 156708, Note_on_c, 3, 59, 80
5, 156746, Note_off_c, 3, 59, 64
5, 156825, Note_on_c, 3, 55, 80
5, 156869, Note_off_c, 3, 55, 64
5, 156941, Note_on_c, 3, 52, 74
5, 156987, Note_off_c, 3, 52, 64
5, 157065, Note_on_c, 3, 57, 80
5, 157100, Note_off_c, 3, 57, 64
5, 157181, Note_on_c, 3, 45, 82
5, 157233, Note_off_c, 3, 45, 64
5, 157300, Note_on_c, 3, 55, 85
5, 157335, Note_off_c, 3, 55, 64
5, 157416, Note_on_c, 3, 54, 68
5, 157511, Note_off_c, 3, 54, 64
5, 157543, Note_on_c, 3, 55, 72
5, 157596, Note_on_c, 3, 57, 68
5, 157599, Note_off_c, 3, 55, 64
5, 157656, Note_off_c, 3, 57, 64
5, 157660, Note_on_c, 3, 59, 63
5, 157708, Note_off_c, 3, 59, 64
5, 157718, Note_on_c, 3, 60, 78
5, 157764, Note_off_c, 3, 60, 64
5, 157783, Note_on_c, 3, 60, 63
5, 157783, Note_on_c, 3, 62, 60
5, 157812, Note_off_c, 3, 60, 64
5, 157815, Note_off_c, 3, 62, 64
5, 157830, Note_on_c, 3, 64, 63
5, 157876, Note_off_c, 3, 64, 64
5, 157904, Note_on_c, 3, 57, 52
5, 157953, Note_off_c, 3, 57, 64
5, 157961, Note_on_c, 3, 60, 64
5, 158013, Note_off_c, 3, 60, 64
5, 158025, Note_on_c, 3, 59, 53
5, 158074, Note_off_c, 3, 59, 64
5, 158084, Note_on_c, 3, 60, 59
5, 158128, Note_off_c, 3, 60, 64
5, 158152, Note_on_c, 3, 62, 98
5, 158206, Note_off_c, 3, 62, 64
5, 158207, Note_on_c, 3, 60, 66
5, 158253, Note_off_c, 3, 60, 64
5, 158269, Note_on_c, 3, 59, 57
5, 158313, Note_off_c, 3, 59, 64
5, 158323, Note_on_c, 3, 57, 54
5, 158367, Note_off_c, 3, 57, 64
5, 158383, Note_on_c, 3, 55, 66
5, 158432, Note_off_c, 3, 55, 64
5, 158444, Note_on_c, 3, 59, 62
5, 158502, Note_off_c, 3, 59, 64
5, 158510, Note_on_c, 3, 57, 52
5, 158547, Note_off_c, 3, 57, 64
5, 158568, Note_on_c, 3, 59, 82
5, 158607, Note_off_c, 3, 59, 64
5, 158628, Note_on_c, 3, 60, 85
5, 158683, Note_off_c, 3, 60, 64
5, 158685, Note_on_c, 3, 59, 66
5, 158735, Note_off_c, 3, 59, 64
5, 158743, Note_on_c, 3, 57, 60
5, 158793, Note_off_c, 3, 57, 64
5, 158807, Note_on_c, 3, 55, 57
5, 158852, Note_off_c, 3, 55, 64
5, 158868, Note_on_c, 3, 54, 47
5, 158920, Note_off_c, 3, 54, 64
5, 158930, Note_on_c, 3, 57, 58
5, 158984, Note_off_c, 3, 57, 64
5, 158986, Note_on_c, 3, 55, 44
5, 159047, Note_on_c, 3, 57, 66
5, 159056, Note_off_c, 3, 55, 64
5, 159099, Note_off_c, 3, 57, 64
5, 159108, Note_on_c, 3, 59, 68
5, 159163, Note_on_c, 3, 57, 68
5, 159171, Note_off_c, 3, 59, 64
5, 159220, Note_off_c, 3, 57, 64
5, 159226, Note_on_c, 3, 55, 54
5, 159283, Note_off_c, 3, 55, 64
5, 159287, Note_on_c, 3, 54, 60
5, 159335, Note_off_c, 3, 54, 64
5, 159347, Note_on_c, 3, 52, 56
5, 159390, Note_off_c, 3, 52, 64
5, 159396, Note_on_c, 3, 55, 68
5, 159446, Note_off_c, 3, 55, 64
5, 159454, Note_on_c, 3, 54, 74
5, 159507, Note_off_c, 3, 54, 64
5, 159516, Note_on_c, 3, 55, 66
5, 159559, Note_off_c, 3, 55, 64
5, 159583, Note_on_c, 3, 57, 82
5, 159634, Note_off_c, 3, 57, 64
5, 159636, Note_on_c, 3, 55, 63
5, 159680, Note_off_c, 3, 55, 64
5, 159686, Note_on_c, 3, 54, 57
5, 159742, Note_off_c, 3, 54, 64
5, 159749, Note_on_c, 3, 52, 53
5, 159794, Note_off_c, 3, 52, 64
5, 159825, Note_on_c, 3, 50, 63
5, 159901, Note_off_c, 3, 50, 64
5, 159957, Note_on_c, 3, 62, 74
5, 159995, Note_off_c, 3, 62, 64
5, 160074, Note_on_c, 3, 62, 85
5, 160118, Note_off_c, 3, 62, 64
5, 160193, Note_on_c, 3, 62, 87
5, 160232, Note_off_c, 3, 62, 64
5, 160316, Note_on_c, 3, 59, 80
5, 160424, Note_off_c, 3, 59, 64
5, 160436, Note_on_c, 3, 60, 80
5, 160479, Note_off_c, 3, 60, 64
5, 160489, Note_on_c, 3, 62, 66
5, 160531, Note_off_c, 3, 62, 64
5, 160548, Note_on_c, 3, 64, 85
5, 160586, Note_off_c, 3, 64, 64
5, 160668, Note_on_c, 3, 60, 78
5, 160707, Note_off_c, 3, 60, 64
5, 160788, Note_on_c, 3, 57, 66
5, 160827, Note_off_c, 3, 57, 64
5, 160901, Note_on_c, 3, 62, 82
5, 160944, Note_off_c, 3, 62, 64
5, 161026, Note_on_c, 3, 50, 80
5, 161072, Note_off_c, 3, 50, 64
5, 161139, Note_on_c, 3, 60, 76
5, 161184, Note_off_c, 3, 60, 64
5, 161264, Note_on_c, 3, 59, 70
5, 161307, Note_off_c, 3, 59, 64
5, 161380, Note_on_c, 3, 55, 70
5, 161422, Note_off_c, 3, 55, 64
5, 161498, Note_on_c, 3, 62, 76
5, 161538, Note_off_c, 3, 62, 64
5, 161619, Note_on_c, 3, 50, 68
5, 161672, Note_off_c, 3, 50, 64
5, 161752, Note_on_c, 3, 43, 72
5, 161896, Note_off_c, 3, 43, 64
5, 179163, Note_on_c, 3, 60, 76
5, 179202, Note_off_c, 3, 60, 64
5, 179285, Note_on_c, 3, 60, 80
5, 179332, Note_off_c, 3, 60, 64
5, 179404, Note_on_c, 3, 60, 82
5, 179450, Note_off_c, 3, 60, 64
5, 179521, Note_on_c, 3, 59, 66
5, 179638, Note_off_c, 3, 59, 64
5, 179645, Note_on_c, 3, 60, 80
5, 179693, Note_off_c, 3, 60, 64
5, 179693, Note_on_c, 3, 62, 82
5, 179740, Note_off_c, 3, 62, 64
5, 179751, Note_on_c, 3, 64, 87
5, 179793, Note_off_c, 3, 64, 64
5, 179874, Note_on_c, 3, 60, 82
5, 179916, Note_off_c, 3, 60, 64
5, 179990, Note_on_c, 3, 57, 74
5, 180035, Note_off_c, 3, 57, 64
5, 180102, Note_on_c, 3, 62, 82
5, 180140, Note_off_c, 3, 62, 64
5, 180224, Note_on_c, 3, 50, 78
5, 180274, Note_off_c, 3, 50, 64
5, 180344, Note_on_c, 3, 60, 85
5, 180387, Note_off_c, 3, 60, 64
5, 180460, Note_on_c, 3, 59, 78
5, 180506, Note_off_c, 3, 59, 64
5, 180582, Note_on_c, 3, 55, 60
5, 180627, Note_off_c, 3, 55, 64
5, 180701, Note_on_c, 3, 60, 87
5, 180741, Note_off_c, 3, 60, 64
5, 180819, Note_on_c, 3, 48, 78
5, 180868, Note_off_c, 3, 48, 64
5, 180951, Note_on_c, 3, 41, 80
5, 181046, Note_off_c, 3, 41, 64
5, 181075, Note_on_c, 3, 53, 70
5, 181112, Note_off_c, 3, 53, 64
5, 181189, Note_on_c, 3, 53, 80
5, 181232, Note_off_c, 3, 53, 64
5, 181306, Note_on_c, 3, 53, 82
5, 181351, Note_off_c, 3, 53, 64
5, 181427, Note_on_c, 3, 52, 76
5, 181537, Note_off_c, 3, 52, 64
5, 181547, Note_on_c, 3, 53, 76
5, 181596, Note_on_c, 3, 55, 80
5, 181597, Note_off_c, 3, 53, 64
5, 181646, Note_off_c, 3, 55, 64
5, 181660, Note_on_c, 3, 57, 87
5, 181704, Note_off_c, 3, 57, 64
5, 181786, Note_on_c, 3, 53, 74
5, 181832, Note_off_c, 3, 53, 64
5, 181904, Note_on_c, 3, 50, 74
5, 181951, Note_off_c, 3, 50, 64
5, 182026, Note_on_c, 3, 55, 85
5, 182068, Note_off_c, 3, 55, 64
5, 182152, Note_on_c, 3, 43, 80
5, 182204, Note_off_c, 3, 43, 64
5, 182270, Note_on_c, 3, 53, 80
5, 182311, Note_off_c, 3, 53, 64
5, 182388, Note_on_c, 3, 52, 85
5, 182436, Note_off_c, 3, 52, 64
5, 182510, Note_on_c, 3, 55, 87
5, 182558, Note_off_c, 3, 55, 64
5, 182628, Note_on_c, 3, 52, 78
5, 182678, Note_off_c, 3, 52, 64
5, 182744, Note_on_c, 3, 48, 72
5, 182795, Note_off_c, 3, 48, 64
5, 182860, Note_on_c, 3, 53, 87
5, 182912, Note_off_c, 3, 53, 64
5, 182985, Note_on_c, 3, 50, 85
5, 183037, Note_off_c, 3, 50, 64
5, 183108, Note_on_c, 3, 52, 85
5, 183152, Note_off_c, 3, 52, 64
5, 183227, Note_on_c, 3, 53, 87
5, 183271, Note_off_c, 3, 53, 64
5, 183351, Note_on_c, 3, 55, 74
5, 183597, Note_off_c, 3, 55, 64
5, 187804, Note_on_c, 3, 60, 87
5, 187842, Note_off_c, 3, 60, 64
5, 187923, Note_on_c, 3, 60, 91
5, 187966, Note_off_c, 3, 60, 64
5, 188044, Note_on_c, 3, 60, 91
5, 188088, Note_off_c, 3, 60, 64
5, 188164, Note_on_c, 3, 59, 85
5, 188267, Note_off_c, 3, 59, 64
5, 188277, Note_on_c, 3, 60, 66
5, 188317, Note_off_c, 3, 60, 64
5, 188322, Note_on_c, 3, 62, 80
5, 188367, Note_off_c, 3, 62, 64
5, 188382, Note_on_c, 3, 64, 95
5, 188428, Note_off_c, 3, 64, 64
5, 188507, Note_on_c, 3, 60, 82
5, 188552, Note_off_c, 3, 60, 64
5, 188626, Note_on_c, 3, 57, 76
5, 188672, Note_off_c, 3, 57, 64
5, 188748, Note_on_c, 3, 62, 85
5, 188789, Note_off_c, 3, 62, 64
5, 188869, Note_on_c, 3, 50, 85
5, 188913, Note_off_c, 3, 50, 64
5, 188986, Note_on_c, 3, 60, 93
5, 189031, Note_off_c, 3, 60, 64
5, 189111, Note_on_c, 3, 59, 89
5, 189165, Note_on_c, 3, 57, 82
5, 189168, Note_off_c, 3, 59, 64
5, 189224, Note_off_c, 3, 57, 64
5, 189224, Note_on_c, 3, 55, 70
5, 189281, Note_on_c, 3, 57, 68
5, 189294, Note_off_c, 3, 55, 64
5, 189336, Note_off_c, 3, 57, 64
5, 189346, Note_on_c, 3, 59, 87
5, 189398, Note_on_c, 3, 55, 82
5, 189406, Note_off_c, 3, 59, 64
5, 189458, Note_off_c, 3, 55, 64
5, 189462, Note_on_c, 3, 57, 74
5, 189511, Note_off_c, 3, 57, 64
5, 189522, Note_on_c, 3, 59, 80
5, 189571, Note_off_c, 3, 59, 64
5, 189582, Note_on_c, 3, 60, 78
5, 189629, Note_off_c, 3, 60, 64
5, 189640, Note_on_c, 3, 62, 87
5, 189699, Note_on_c, 3, 60, 80
5, 189703, Note_off_c, 3, 62, 64
5, 189752, Note_off_c, 3, 60, 64
5, 189756, Note_on_c, 3, 59, 85
5, 189810, Note_off_c, 3, 59, 64
5, 189814, Note_on_c, 3, 57, 82
5, 189870, Note_on_c, 3, 55, 76
5, 189872, Note_off_c, 3, 57, 64
5, 189928, Note_on_c, 3, 53, 53
5, 189933, Note_off_c, 3, 55, 64
5, 189994, Note_on_c, 3, 52, 68
5, 189997, Note_off_c, 3, 53, 64
5, 190054, Note_off_c, 3, 52, 64
5, 190060, Note_on_c, 3, 50, 80
5, 190118, Note_off_c, 3, 50, 64
5, 190121, Note_on_c, 3, 53, 66
5, 190188, Note_off_c, 3, 53, 64
5, 190188, Note_on_c, 3, 52, 55
5, 190243, Note_on_c, 3, 53, 68
5, 190251, Note_off_c, 3, 52, 64
5, 190293, Note_off_c, 3, 53, 64
5, 190312, Note_on_c, 3, 55, 100
5, 190368, Note_on_c, 3, 53, 80
5, 190373, Note_off_c, 3, 55, 64
5, 190421, Note_off_c, 3, 53, 64
5, 190429, Note_on_c, 3, 52, 58
5, 190484, Note_off_c, 3, 52, 64
5, 190486, Note_on_c, 3, 50, 72
5, 190540, Note_off_c, 3, 50, 64
5, 190544, Note_on_c, 3, 48, 70
5, 190599, Note_off_c, 3, 48, 64
5, 190601, Note_on_c, 3, 52, 64
5, 190664, Note_on_c, 3, 50, 70
5, 190667, Note_off_c, 3, 52, 64
5, 190722, Note_on_c, 3, 52, 80
5, 190729, Note_off_c, 3, 50, 64
5, 190772, Note_off_c, 3, 52, 64
5, 190787, Note_on_c, 3, 53, 89
5, 190844, Note_on_c, 3, 52, 82
5, 190849, Note_off_c, 3, 53, 64
5, 190904, Note_off_c, 3, 52, 64
5, 190906, Note_on_c, 3, 50, 58
5, 190959, Note_off_c, 3, 50, 64
5, 190959, Note_on_c, 3, 48, 57
5, 191018, Note_off_c, 3, 48, 64
5, 191024, Note_on_c, 3, 47, 74
5, 191077, Note_off_c, 3, 47, 64
5, 191084, Note_on_c, 3, 50, 59
5, 191152, Note_off_c, 3, 50, 64
5, 191156, Note_on_c, 3, 48, 53
5, 191210, Note_on_c, 3, 50, 64
5, 191211, Note_off_c, 3, 48, 64
5, 191255, Note_off_c, 3, 50, 64
5, 191272, Note_on_c, 3, 52, 95
5, 191322, Note_on_c, 3, 50, 80
5, 191326, Note_off_c, 3, 52, 64
5, 191380, Note_off_c, 3, 50, 64
5, 191384, Note_on_c, 3, 48, 66
5, 191435, Note_off_c, 3, 48, 64
5, 191440, Note_on_c, 3, 47, 78
5, 191494, Note_off_c, 3, 47, 64
5, 191501, Note_on_c, 3, 45, 68
5, 191554, Note_off_c, 3, 45, 64
5, 191556, Note_on_c, 3, 48, 68
5, 191621, Note_on_c, 3, 47, 55
5, 191624, Note_off_c, 3, 48, 64
5, 191676, Note_on_c, 3, 48, 72
5, 191687, Note_off_c, 3, 47, 64
5, 191725, Note_off_c, 3, 48, 64
5, 191742, Note_on_c, 3, 50, 89
5, 191795, Note_on_c, 3, 48, 76
5, 191801, Note_off_c, 3, 50, 64
5, 191849, Note_off_c, 3, 48, 64
5, 191852, Note_on_c, 3, 47, 62
5, 191907, Note_off_c, 3, 47, 64
5, 191911, Note_on_c, 3, 45, 62
5, 191971, Note_off_c, 3, 45, 64
5, 191982, Note_on_c, 3, 43, 80
5, 192054, Note_off_c, 3, 43, 64
5, 192110, Note_on_c, 3, 55, 80
5, 192147, Note_off_c, 3, 55, 64
5, 192231, Note_on_c, 3, 55, 82
5, 192272, Note_off_c, 3, 55, 64
5, 192351, Note_on_c, 3, 55, 80
5, 192396, Note_off_c, 3, 55, 64
5, 192467, Note_on_c, 3, 52, 89
5, 192579, Note_off_c, 3, 52, 64
5, 192590, Note_on_c, 3, 53, 78
5, 192642, Note_on_c, 3, 55, 82
5, 192647, Note_off_c, 3, 53, 64
5, 192693, Note_off_c, 3, 55, 64
5, 192703, Note_on_c, 3, 57, 85
5, 192743, Note_off_c, 3, 57, 64
5, 192826, Note_on_c, 3, 53, 85
5, 192874, Note_off_c, 3, 53, 64
5, 192949, Note_on_c, 3, 50, 85
5, 192997, Note_off_c, 3, 50, 64
5, 193065, Note_on_c, 3, 55, 85
5, 193106, Note_off_c, 3, 55, 64
5, 193186, Note_on_c, 3, 43, 89
5, 193232, Note_off_c, 3, 43, 64
5, 193302, Note_on_c, 3, 53, 85
5, 193349, Note_off_c, 3, 53, 64
5, 193425, Note_on_c, 3, 52, 89
5, 193472, Note_off_c, 3, 52, 64
5, 193544, Note_on_c, 3, 48, 82
5, 193596, Note_off_c, 3, 48, 64
5, 193661, Note_on_c, 3, 55, 95
5, 193695, Note_off_c, 3, 55, 64
5, 193786, Note_on_c, 3, 43, 82
5, 193831, Note_off_c, 3, 43, 64
5, 193912, Note_on_c, 3, 48, 89
5, 194172, Note_off_c, 3, 48, 64
5, 205077, Note_on_c, 3, 48, 85
5, 205119, Note_off_c, 3, 48, 64
5, 205134, Note_on_c, 3, 50, 85
5, 205179, Note_off_c, 3, 50, 64
5, 205196, Note_on_c, 3, 52, 85
5, 205240, Note_off_c, 3, 52, 64
5, 205254, Note_on_c, 3, 50, 80
5, 205300, Note_off_c, 3, 50, 64
5, 205314, Note_on_c, 3, 52, 82
5, 205368, Note_off_c, 3, 52, 64
5, 205368, Note_on_c, 3, 53, 82
5, 205410, Note_off_c, 3, 53, 64
5, 205435, Note_on_c, 3, 55, 80
5, 205683, Note_off_c, 3, 55, 64
5, 205731, Note_on_c, 3, 55, 82
5, 205781, Note_off_c, 3, 55, 64
5, 205796, Note_on_c, 3, 57, 82
5, 205839, Note_off_c, 3, 57, 64
5, 205849, Note_on_c, 3, 58, 76
5, 205896, Note_off_c, 3, 58, 64
5, 205910, Note_on_c, 3, 60, 80
5, 205955, Note_off_c, 3, 60, 64
5, 205969, Note_on_c, 3, 58, 82
5, 206005, Note_off_c, 3, 58, 64
5, 206027, Note_on_c, 3, 57, 78
5, 206068, Note_off_c, 3, 57, 64
5, 206084, Note_on_c, 3, 58, 64
5, 206128, Note_off_c, 3, 58, 64
5, 206147, Note_on_c, 3, 60, 80
5, 206192, Note_off_c, 3, 60, 64
5, 206207, Note_on_c, 3, 57, 82
5, 206245, Note_off_c, 3, 57, 64
5, 206264, Note_on_c, 3, 58, 82
5, 206306, Note_off_c, 3, 58, 64
5, 206321, Note_on_c, 3, 60, 85
5, 206356, Note_off_c, 3, 60, 64
5, 206389, Note_on_c, 3, 53, 82
5, 206521, Note_off_c, 3, 53, 64
5, 206577, Note_on_c, 3, 50, 78
5, 206598, Note_on_c, 3, 52, 80
5, 206607, Note_off_c, 3, 50, 64
5, 206626, Note_off_c, 3, 52, 64
5, 206631, Note_on_c, 3, 53, 87
5, 206731, Note_off_c, 3, 53, 64
5, 206805, Note_on_c, 3, 55, 76
5, 206826, Note_on_c, 3, 57, 74
5, 206838, Note_off_c, 3, 55, 64
5, 206856, Note_off_c, 3, 57, 64
5, 206863, Note_on_c, 3, 58, 80
5, 207243, Note_off_c, 3, 58, 64
5, 207280, Note_on_c, 3, 58, 95
5, 207317, Note_off_c, 3, 58, 64
5, 207343, Note_on_c, 3, 58, 85
5, 207392, Note_off_c, 3, 58, 64
5, 207402, Note_on_c, 3, 60, 82
5, 207442, Note_off_c, 3, 60, 64
5, 207459, Note_on_c, 3, 58, 80
5, 207497, Note_off_c, 3, 58, 64
5, 207521, Note_on_c, 3, 57, 76
5, 207565, Note_off_c, 3, 57, 64
5, 207585, Note_on_c, 3, 58, 80
5, 207626, Note_off_c, 3, 58, 64
5, 207643, Note_on_c, 3, 55, 74
5, 207682, Note_off_c, 3, 55, 64
5, 207705, Note_on_c, 3, 57, 87
5, 207745, Note_off_c, 3, 57, 64
5, 207765, Note_on_c, 3, 58, 82
5, 207804, Note_off_c, 3, 58, 64
5, 207830, Note_on_c, 3, 57, 85
5, 207997, Note_off_c, 3, 57, 64
5, 208077, Note_on_c, 3, 45, 87
5, 208210, Note_off_c, 3, 45, 64
5, 208319, Note_on_c, 3, 50, 85
5, 208621, Note_off_c, 3, 50, 64
5, 208675, Note_on_c, 3, 52, 68
5, 208701, Note_on_c, 3, 53, 70
5, 208714, Note_off_c, 3, 52, 64
5, 208733, Note_off_c, 3, 53, 64
5, 208733, Note_on_c, 3, 55, 78
5, 208752, Note_on_c, 3, 57, 80
5, 208768, Note_off_c, 3, 55, 64
5, 208770, Note_on_c, 3, 59, 89
5, 208784, Note_off_c, 3, 57, 64
5, 208801, Note_on_c, 3, 60, 95
5, 208806, Note_off_c, 3, 59, 64
5, 208848, Note_off_c, 3, 60, 64
5, 208860, Note_on_c, 3, 59, 74
5, 208909, Note_off_c, 3, 59, 64
5, 208917, Note_on_c, 3, 60, 76
5, 208968, Note_off_c, 3, 60, 64
5, 208977, Note_on_c, 3, 64, 78
5, 209024, Note_off_c, 3, 64, 64
5, 209035, Note_on_c, 3, 62, 93
5, 209087, Note_off_c, 3, 62, 64
5, 209094, Note_on_c, 3, 60, 80
5, 209139, Note_off_c, 3, 60, 64
5, 209148, Note_on_c, 3, 59, 80
5, 209192, Note_off_c, 3, 59, 64
5, 209205, Note_on_c, 3, 60, 80
5, 209243, Note_off_c, 3, 60, 64
5, 209271, Note_on_c, 3, 59, 85
5, 209383, Note_off_c, 3, 59, 64
5, 209446, Note_on_c, 3, 57, 70
5, 209487, Note_off_c, 3, 57, 64
5, 209510, Note_on_c, 3, 59, 87
5, 209593, Note_off_c, 3, 59, 64
5, 209684, Note_on_c, 3, 55, 80
5, 209731, Note_off_c, 3, 55, 64
5, 209753, Note_on_c, 3, 64, 87
5, 210101, Note_off_c, 3, 64, 64
5, 210161, Note_on_c, 3, 64, 85
5, 210199, Note_off_c, 3, 64, 64
5, 210221, Note_on_c, 3, 64, 82
5, 210331, Note_off_c, 3, 64, 64
5, 210405, Note_on_c, 3, 65, 74
5, 210431, Note_on_c, 3, 64, 76
5, 210443, Note_off_c, 3, 65, 64
5, 210461, Note_off_c, 3, 64, 64
5, 210471, Note_on_c, 3, 62, 93
5, 210552, Note_off_c, 3, 62, 64
5, 210639, Note_on_c, 3, 64, 78
5, 210666, Note_on_c, 3, 60, 80
5, 210672, Note_off_c, 3, 64, 64
5, 210695, Note_off_c, 3, 60, 64
5, 210702, Note_on_c, 3, 62, 80
5, 211061, Note_off_c, 3, 62, 64
5, 211122, Note_on_c, 3, 62, 85
5, 211153, Note_off_c, 3, 62, 64
5, 211184, Note_on_c, 3, 62, 89
5, 211456, Note_off_c, 3, 62, 64
5, 211478, Note_on_c, 3, 60, 70
5, 211523, Note_off_c, 3, 60, 64
5, 211540, Note_on_c, 3, 59, 78
5, 211590, Note_off_c, 3, 59, 64
5, 211603, Note_on_c, 3, 60, 80
5, 211645, Note_off_c, 3, 60, 64
5, 211667, Note_on_c, 3, 62, 82
5, 211715, Note_off_c, 3, 62, 64
5, 211727, Note_on_c, 3, 60, 76
5, 211784, Note_off_c, 3, 60, 64
5, 211791, Note_on_c, 3, 62, 80
5, 211843, Note_off_c, 3, 62, 64
5, 211846, Note_on_c, 3, 65, 85
5, 211892, Note_off_c, 3, 65, 64
5, 211908, Note_on_c, 3, 64, 82
5, 211956, Note_off_c, 3, 64, 64
5, 211967, Note_on_c, 3, 62, 85
5, 212009, Note_off_c, 3, 62, 64
5, 212026, Note_on_c, 3, 60, 87
5, 212073, Note_off_c, 3, 60, 64
5, 212086, Note_on_c, 3, 62, 89
5, 212137, Note_off_c, 3, 62, 64
5, 212154, Note_on_c, 3, 59, 91
5, 212674, Note_off_c, 3, 59, 64
5, 212689, Note_on_c, 3, 60, 82
5, 212728, Note_off_c, 3, 60, 64
5, 212746, Note_on_c, 3, 59, 91
5, 212787, Note_off_c, 3, 59, 64
5, 212801, Note_on_c, 3, 57, 82
5, 212846, Note_off_c, 3, 57, 64
5, 212857, Note_on_c, 3, 55, 78
5, 212903, Note_off_c, 3, 55, 64
5, 212918, Note_on_c, 3, 53, 78
5, 212952, Note_off_c, 3, 53, 64
5, 212972, Note_on_c, 3, 52, 85
5, 213016, Note_off_c, 3, 52, 64
5, 213027, Note_on_c, 3, 50, 78
5, 213069, Note_off_c, 3, 50, 64
5, 213101, Note_on_c, 3, 48, 91
5, 213624, Note_off_c, 3, 48, 64
5, 213648, Note_on_c, 3, 46, 74
5, 213679, Note_off_c, 3, 46, 64
5, 213702, Note_on_c, 3, 45, 80
5, 213742, Note_off_c, 3, 45, 64
5, 213759, Note_on_c, 3, 46, 78
5, 213800, Note_off_c, 3, 46, 64
5, 213819, Note_on_c, 3, 48, 82
5, 213866, Note_off_c, 3, 48, 64
5, 213880, Note_on_c, 3, 45, 82
5, 213920, Note_off_c, 3, 45, 64
5, 213941, Note_on_c, 3, 46, 87
5, 213980, Note_off_c, 3, 46, 64
5, 213998, Note_on_c, 3, 48, 95
5, 214034, Note_off_c, 3, 48, 64
5, 214073, Note_on_c, 3, 41, 82
5, 214575, Note_off_c, 3, 41, 64
5, 214606, Note_on_c, 3, 40, 76
5, 214657, Note_off_c, 3, 40, 64
5, 214669, Note_on_c, 3, 41, 85
5, 214718, Note_off_c, 3, 41, 64
5, 214725, Note_on_c, 3, 43, 80
5, 214765, Note_off_c, 3, 43, 64
5, 214785, Note_on_c, 3, 45, 82
5, 214829, Note_off_c, 3, 45, 64
5, 214846, Note_on_c, 3, 41, 82
5, 214887, Note_off_c, 3, 41, 64
5, 214904, Note_on_c, 3, 43, 93
5, 214942, Note_off_c, 3, 43, 64
5, 214964, Note_on_c, 3, 45, 80
5, 215011, Note_off_c, 3, 45, 64
5, 215040, Note_on_c, 3, 38, 89
5, 215510, Note_off_c, 3, 38, 64
5, 215557, Note_on_c, 3, 36, 82
5, 215609, Note_off_c, 3, 36, 64
5, 215626, Note_on_c, 3, 38, 87
5, 215670, Note_off_c, 3, 38, 64
5, 215682, Note_on_c, 3, 40, 80
5, 215721, Note_off_c, 3, 40, 64
5, 215744, Note_on_c, 3, 41, 80
5, 215787, Note_off_c, 3, 41, 64
5, 215803, Note_on_c, 3, 40, 89
5, 215840, Note_off_c, 3, 40, 64
5, 215860, Note_on_c, 3, 41, 85
5, 215895, Note_off_c, 3, 41, 64
5, 215914, Note_on_c, 3, 38, 61
5, 215955, Note_off_c, 3, 38, 64
5, 215994, Note_on_c, 3, 43, 93
5, 216102, Note_off_c, 3, 43, 64
5, 216169, Note_on_c, 3, 43, 78
5, 216214, Note_off_c, 3, 43, 64
5, 216230, Note_on_c, 3, 45, 91
5, 216308, Note_off_c, 3, 45, 64
5, 216412, Note_on_c, 3, 47, 85
5, 216452, Note_off_c, 3, 47, 64
5, 216471, Note_on_c, 3, 48, 89
5, 216558, Note_off_c, 3, 48, 64
5, 216647, Note_on_c, 3, 48, 78
5, 216689, Note_off_c, 3, 48, 64
5, 216711, Note_on_c, 3, 50, 89
5, 216797, Note_off_c, 3, 50, 64
5, 216878, Note_on_c, 3, 52, 78
5, 216922, Note_off_c, 3, 52, 64
5, 216948, Note_on_c, 3, 53, 80
5, 217460, Note_off_c, 3, 53, 64
5, 217484, Note_on_c, 3, 55, 87
5, 217527, Note_off_c, 3, 55, 64
5, 217545, Note_on_c, 3, 53, 82
5, 217592, Note_off_c, 3, 53, 64
5, 217606, Note_on_c, 3, 52, 85
5, 217642, Note_off_c, 3, 52, 64
5, 217662, Note_on_c, 3, 50, 87
5, 217709, Note_off_c, 3, 50, 64
5, 217717, Note_on_c, 3, 48, 82
5, 217757, Note_off_c, 3, 48, 64
5, 217776, Note_on_c, 3, 47, 82
5, 217825, Note_off_c, 3, 47, 64
5, 217840, Note_on_c, 3, 45, 95
5, 217894, Note_off_c, 3, 45, 64
5, 217908, Note_on_c, 3, 43, 85
5, 218002, Note_off_c, 3, 43, 64
5, 218002, End_track
6, 0, Start_track
6, 0, Title_t, "Oboe1"
6, 0, Program_c, 4, 68
6, 0, Control_c, 4, 7, 100
6, 966, Note_on_c, 4, 76, 100
6, 1478, Note_off_c, 4, 76, 64
6, 1493, Note_on_c, 4, 74, 60
6, 1552, Note_on_c, 4, 76, 80
6, 1553, Note_off_c, 4, 74, 64
6, 1605, Note_off_c, 4, 76, 64
6, 1610, Note_on_c, 4, 77, 70
6, 1666, Note_off_c, 4, 77, 64
6, 1674, Note_on_c, 4, 79, 87
6, 1720, Note_off_c, 4, 79, 64
6, 1730, Note_on_c, 4, 77, 80
6, 1786, Note_off_c, 4, 77, 64
6, 1794, Note_on_c, 4, 79, 82
6, 1840, Note_off_c, 4, 79, 64
6, 1852, Note_on_c, 4, 81, 87
6, 1903, Note_off_c, 4, 81, 64
6, 1921, Note_on_c, 4, 74, 82
6, 2185, Note_off_c, 4, 74, 64
6, 2210, Note_on_c, 4, 74, 68
6, 2272, Note_off_c, 4, 74, 64
6, 2272, Note_on_c, 4, 76, 85
6, 2327, Note_off_c, 4, 76, 64
6, 2332, Note_on_c, 4, 77, 82
6, 2381, Note_off_c, 4, 77, 64
6, 2397, Note_on_c, 4, 79, 87
6, 2449, Note_off_c, 4, 79, 64
6, 2456, Note_on_c, 4, 77, 74
6, 2511, Note_off_c, 4, 77, 64
6, 2514, Note_on_c, 4, 76, 61
6, 2568, Note_off_c, 4, 76, 64
6, 2573, Note_on_c, 4, 77, 80
6, 2621, Note_off_c, 4, 77, 64
6, 2633, Note_on_c, 4, 79, 82
6, 2688, Note_off_c, 4, 79, 64
6, 2696, Note_on_c, 4, 76, 60
6, 2746, Note_off_c, 4, 76, 64
6, 2752, Note_on_c, 4, 77, 70
6, 2800, Note_off_c, 4, 77, 64
6, 2812, Note_on_c, 4, 79, 82
6, 2864, Note_off_c, 4, 79, 64
6, 2876, Note_on_c, 4, 72, 82
6, 3029, Note_off_c, 4, 72, 64
6, 3059, Note_on_c, 4, 69, 78
6, 3082, Note_on_c, 4, 71, 68
6, 3093, Note_off_c, 4, 69, 64
6, 3110, Note_off_c, 4, 71, 64
6, 3119, Note_on_c, 4, 72, 85
6, 3246, Note_off_c, 4, 72, 64
6, 3290, Note_on_c, 4, 74, 80
6, 3313, Note_on_c, 4, 76, 82
6, 3323, Note_off_c, 4, 74, 64
6, 3344, Note_off_c, 4, 76, 64
6, 3356, Note_on_c, 4, 77, 85
6, 3730, Note_off_c, 4, 77, 64
6, 3771, Note_on_c, 4, 77, 91
6, 3807, Note_off_c, 4, 77, 64
6, 3837, Note_on_c, 4, 77, 91
6, 3889, Note_off_c, 4, 77, 64
6, 3894, Note_on_c, 4, 79, 80
6, 3940, Note_off_c, 4, 79, 64
6, 3950, Note_on_c, 4, 77, 80
6, 4001, Note_off_c, 4, 77, 64
6, 4011, Note_on_c, 4, 76, 68
6, 4057, Note_off_c, 4, 76, 64
6, 4072, Note_on_c, 4, 77, 80
6, 4125, Note_off_c, 4, 77, 64
6, 4133, Note_on_c, 4, 76, 76
6, 4185, Note_off_c, 4, 76, 64
6, 4196, Note_on_c, 4, 74, 78
6, 4253, Note_off_c, 4, 74, 64
6, 4255, Note_on_c, 4, 76, 80
6, 4301, Note_off_c, 4, 76, 64
6, 4314, Note_on_c, 4, 77, 76
6, 4364, Note_on_c, 4, 76, 55
6, 4367, Note_off_c, 4, 77, 64
6, 4399, Note_on_c, 4, 77, 52
6, 4400, Note_off_c, 4, 76, 64
6, 4428, Note_on_c, 4, 76, 58
6, 4434, Note_off_c, 4, 77, 64
6, 4451, Note_off_c, 4, 76, 64
6, 4452, Note_on_c, 4, 77, 60
6, 4471, Note_on_c, 4, 76, 62
6, 4473, Note_off_c, 4, 77, 64
6, 4491, Note_off_c, 4, 76, 64
6, 4492, Note_on_c, 4, 77, 74
6, 4511, Note_on_c, 4, 76, 66
6, 4512, Note_off_c, 4, 77, 64
6, 4530, Note_on_c, 4, 77, 80
6, 4531, Note_off_c, 4, 76, 64
6, 4550, Note_on_c, 4, 76, 70
6, 4554, Note_off_c, 4, 77, 64
6, 4698, Note_off_c, 4, 76, 64
6, 4736, Note_on_c, 4, 74, 85
6, 4760, Note_off_c, 4, 74, 64
6, 4800, Note_on_c, 4, 74, 80
6, 5111, Note_off_c, 4, 74, 64
6, 5149, Note_on_c, 4, 67, 68
6, 5175, Note_on_c, 4, 69, 68
6, 5185, Note_on_c, 4, 71, 68
6, 5199, Note_off_c, 4, 67, 64
6, 5203, Note_off_c, 4, 69, 64
6, 5206, Note_on_c, 4, 72, 68
6, 5221, Note_off_c, 4, 71, 64
6, 5226, Note_on_c, 4, 74, 82
6, 5234, Note_off_c, 4, 72, 64
6, 5237, Note_on_c, 4, 76, 57
6, 5252, Note_off_c, 4, 74, 64
6, 5253, Note_on_c, 4, 78, 68
6, 5268, Note_off_c, 4, 76, 64
6, 5275, Note_on_c, 4, 79, 70
6, 5286, Note_off_c, 4, 78, 64
6, 5292, Note_on_c, 4, 81, 76
6, 5303, Note_off_c, 4, 79, 64
6, 5319, Note_on_c, 4, 83, 78
6, 5328, Note_off_c, 4, 81, 64
6, 5657, Note_off_c, 4, 83, 64
6, 5703, Note_on_c, 4, 83, 93
6, 5735, Note_off_c, 4, 83, 64
6, 5761, Note_on_c, 4, 83, 95
6, 5894, Note_off_c, 4, 83, 64
6, 5936, Note_on_c, 4, 79, 82
6, 5976, Note_off_c, 4, 79, 64
6, 5997, Note_on_c, 4, 78, 70
6, 6132, Note_off_c, 4, 78, 64
6, 6178, Note_on_c, 4, 76, 80
6, 6216, Note_off_c, 4, 76, 64
6, 6243, Note_on_c, 4, 81, 87
6, 6623, Note_off_c, 4, 81, 64
6, 6657, Note_on_c, 4, 81, 80
6, 6688, Note_off_c, 4, 81, 64
6, 6723, Note_on_c, 4, 81, 80
6, 6872, Note_off_c, 4, 81, 64
6, 6903, Note_on_c, 4, 83, 68
6, 6924, Note_on_c, 4, 81, 68
6, 6937, Note_off_c, 4, 83, 64
6, 6958, Note_off_c, 4, 81, 64
6, 6965, Note_on_c, 4, 79, 89
6, 7083, Note_off_c, 4, 79, 64
6, 7129, Note_on_c, 4, 81, 64
6, 7154, Note_on_c, 4, 78, 82
6, 7163, Note_off_c, 4, 81, 64
6, 7185, Note_off_c, 4, 78, 64
6, 7194, Note_on_c, 4, 79, 78
6, 7580, Note_off_c, 4, 79, 64
6, 7620, Note_on_c, 4, 79, 89
6, 7652, Note_off_c, 4, 79, 64
6, 7687, Note_on_c, 4, 79, 87
6, 7960, Note_off_c, 4, 79, 64
6, 7980, Note_on_c, 4, 78, 68
6, 8021, Note_off_c, 4, 78, 64
6, 8040, Note_on_c, 4, 76, 72
6, 8091, Note_off_c, 4, 76, 64
6, 8098, Note_on_c, 4, 78, 66
6, 8140, Note_off_c, 4, 78, 64
6, 8159, Note_on_c, 4, 79, 82
6, 8206, Note_off_c, 4, 79, 64
6, 8217, Note_on_c, 4, 78, 80
6, 8261, Note_off_c, 4, 78, 64
6, 8274, Note_on_c, 4, 79, 82
6, 8319, Note_off_c, 4, 79, 64
6, 8330, Note_on_c, 4, 83, 82
6, 8382, Note_off_c, 4, 83, 64
6, 8393, Note_on_c, 4, 81, 82
6, 8439, Note_off_c, 4, 81, 64
6, 8448, Note_on_c, 4, 79, 85
6, 8495, Note_off_c, 4, 79, 64
6, 8510, Note_on_c, 4, 78, 80
6, 8551, Note_off_c, 4, 78, 64
6, 8567, Note_on_c, 4, 79, 85
6, 8600, Note_off_c, 4, 79, 64
6, 8628, Note_on_c, 4, 79, 64
6, 8671, Note_on_c, 4, 78, 56
6, 8673, Note_off_c, 4, 79, 64
6, 8693, Note_off_c, 4, 78, 64
6, 8695, Note_on_c, 4, 79, 74
6, 8711, Note_on_c, 4, 78, 63
6, 8715, Note_off_c, 4, 79, 64
6, 8732, Note_off_c, 4, 78, 64
6, 8734, Note_on_c, 4, 79, 76
6, 8749, Note_on_c, 4, 78, 74
6, 8758, Note_off_c, 4, 79, 64
6, 8814, Note_off_c, 4, 78, 64
6, 8832, Note_on_c, 4, 76, 54
6, 8847, Note_on_c, 4, 74, 82
6, 8851, Note_off_c, 4, 76, 64
6, 8883, Note_off_c, 4, 74, 64
6, 8887, Note_on_c, 4, 81, 85
6, 9012, Note_off_c, 4, 81, 64
6, 9056, Note_on_c, 4, 72, 78
6, 9090, Note_off_c, 4, 72, 64
6, 9120, Note_on_c, 4, 71, 80
6, 9269, Note_off_c, 4, 71, 64
6, 9284, Note_on_c, 4, 72, 70
6, 9310, Note_on_c, 4, 71, 66
6, 9315, Note_off_c, 4, 72, 64
6, 9337, Note_on_c, 4, 72, 66
6, 9344, Note_off_c, 4, 71, 64
6, 9367, Note_off_c, 4, 72, 64
6, 9368, Note_on_c, 4, 74, 70
6, 9402, Note_on_c, 4, 72, 46
6, 9405, Note_off_c, 4, 74, 64
6, 9423, Note_off_c, 4, 72, 64
6, 9426, Note_on_c, 4, 74, 68
6, 9446, Note_on_c, 4, 72, 57
6, 9449, Note_off_c, 4, 74, 64
6, 9463, Note_off_c, 4, 72, 64
6, 9464, Note_on_c, 4, 74, 68
6, 9482, Note_on_c, 4, 72, 66
6, 9485, Note_off_c, 4, 74, 64
6, 9497, Note_off_c, 4, 72, 64
6, 9498, Note_on_c, 4, 74, 70
6, 9513, Note_on_c, 4, 72, 61
6, 9521, Note_off_c, 4, 74, 64
6, 9532, Note_on_c, 4, 71, 62
6, 9539, Note_off_c, 4, 72, 64
6, 9557, Note_on_c, 4, 72, 70
6, 9570, Note_off_c, 4, 71, 64
6, 9586, Note_off_c, 4, 72, 64
6, 9590, Note_on_c, 4, 74, 64
6, 9881, Note_off_c, 4, 74, 64
6, 9892, Note_on_c, 4, 76, 74
6, 9940, Note_on_c, 4, 74, 68
6, 9954, Note_off_c, 4, 76, 64
6, 9968, Note_on_c, 4, 72, 62
6, 9983, Note_off_c, 4, 74, 64
6, 9984, Note_on_c, 4, 71, 82
6, 9997, Note_off_c, 4, 72, 64
6, 10008, Note_on_c, 4, 69, 64
6, 10010, Note_off_c, 4, 71, 64
6, 10026, Note_on_c, 4, 67, 80
6, 10030, Note_off_c, 4, 69, 64
6, 10047, Note_on_c, 4, 65, 61
6, 10053, Note_off_c, 4, 67, 64
6, 10068, Note_on_c, 4, 64, 62
6, 10071, Note_off_c, 4, 65, 64
6, 10099, Note_on_c, 4, 65, 62
6, 10107, Note_off_c, 4, 64, 64
6, 10441, Note_off_c, 4, 65, 64
6, 10495, Note_on_c, 4, 65, 78
6, 10529, Note_off_c, 4, 65, 64
6, 10562, Note_on_c, 4, 65, 85
6, 10721, Note_off_c, 4, 65, 64
6, 10742, Note_on_c, 4, 64, 66
6, 10771, Note_on_c, 4, 62, 66
6, 10774, Note_off_c, 4, 64, 64
6, 10805, Note_off_c, 4, 62, 64
6, 10811, Note_on_c, 4, 64, 85
6, 10943, Note_off_c, 4, 64, 64
6, 10983, Note_on_c, 4, 66, 85
6, 11017, Note_off_c, 4, 66, 64
6, 11045, Note_on_c, 4, 67, 85
6, 11424, Note_off_c, 4, 67, 64
6, 11459, Note_on_c, 4, 67, 80
6, 11490, Note_off_c, 4, 67, 64
6, 11521, Note_on_c, 4, 67, 85
6, 11673, Note_off_c, 4, 67, 64
6, 11700, Note_on_c, 4, 66, 55
6, 11719, Note_on_c, 4, 64, 68
6, 11732, Note_off_c, 4, 66, 64
6, 11753, Note_off_c, 4, 64, 64
6, 11760, Note_on_c, 4, 72, 85
6, 11899, Note_off_c, 4, 72, 64
6, 11935, Note_on_c, 4, 71, 74
6, 11957, Note_on_c, 4, 69, 85
6, 11968, Note_off_c, 4, 71, 64
6, 11987, Note_off_c, 4, 69, 64
6, 11995, Note_on_c, 4, 78, 80
6, 12142, Note_off_c, 4, 78, 64
6, 12174, Note_on_c, 4, 76, 78
6, 12196, Note_on_c, 4, 74, 85
6, 12205, Note_off_c, 4, 76, 64
6, 12223, Note_off_c, 4, 74, 64
6, 12233, Note_on_c, 4, 81, 89
6, 12368, Note_off_c, 4, 81, 64
6, 12408, Note_on_c, 4, 72, 80
6, 12447, Note_off_c, 4, 72, 64
6, 12475, Note_on_c, 4, 71, 78
6, 12748, Note_off_c, 4, 71, 64
6, 12771, Note_on_c, 4, 69, 68
6, 12820, Note_off_c, 4, 69, 64
6, 12832, Note_on_c, 4, 67, 68
6, 12880, Note_off_c, 4, 67, 64
6, 12889, Note_on_c, 4, 66, 61
6, 12936, Note_off_c, 4, 66, 64
6, 12950, Note_on_c, 4, 67, 70
6, 13004, Note_off_c, 4, 67, 64
6, 13008, Note_on_c, 4, 62, 66
6, 13066, Note_off_c, 4, 62, 64
6, 13070, Note_on_c, 4, 64, 62
6, 13126, Note_off_c, 4, 64, 64
6, 13126, Note_on_c, 4, 66, 63
6, 13182, Note_off_c, 4, 66, 64
6, 13190, Note_on_c, 4, 67, 78
6, 13249, Note_off_c, 4, 67, 64
6, 13253, Note_on_c, 4, 69, 72
6, 13313, Note_off_c, 4, 69, 64
6, 13315, Note_on_c, 4, 71, 78
6, 13365, Note_off_c, 4, 71, 64
6, 13375, Note_on_c, 4, 72, 78
6, 13417, Note_off_c, 4, 72, 64
6, 13435, Note_on_c, 4, 74, 80
6, 13710, Note_off_c, 4, 74, 64
6, 13731, Note_on_c, 4, 72, 68
6, 13779, Note_off_c, 4, 72, 64
6, 13790, Note_on_c, 4, 74, 82
6, 13837, Note_off_c, 4, 74, 64
6, 13845, Note_on_c, 4, 76, 82
6, 13895, Note_off_c, 4, 76, 64
6, 13920, Note_on_c, 4, 67, 68
6, 13970, Note_on_c, 4, 66, 57
6, 13973, Note_off_c, 4, 67, 64
6, 13992, Note_on_c, 4, 67, 66
6, 13994, Note_off_c, 4, 66, 64
6, 14010, Note_on_c, 4, 66, 58
6, 14014, Note_off_c, 4, 67, 64
6, 14030, Note_on_c, 4, 67, 66
6, 14032, Note_off_c, 4, 66, 64
6, 14047, Note_on_c, 4, 66, 60
6, 14055, Note_off_c, 4, 67, 64
6, 14202, Note_off_c, 4, 66, 64
6, 14217, Note_on_c, 4, 67, 72
6, 14262, Note_off_c, 4, 67, 64
6, 14276, Note_on_c, 4, 69, 80
6, 14325, Note_off_c, 4, 69, 64
6, 14330, Note_on_c, 4, 71, 80
6, 14371, Note_off_c, 4, 71, 64
6, 14392, Note_on_c, 4, 72, 82
6, 14532, Note_off_c, 4, 72, 64
6, 14579, Note_on_c, 4, 69, 68
6, 14622, Note_off_c, 4, 69, 64
6, 14640, Note_on_c, 4, 71, 85
6, 14760, Note_off_c, 4, 71, 64
6, 14815, Note_on_c, 4, 72, 80
6, 14849, Note_off_c, 4, 72, 64
6, 14880, Note_on_c, 4, 71, 85
6, 14947, Note_on_c, 4, 69, 54
6, 14954, Note_off_c, 4, 71, 64
6, 14977, Note_on_c, 4, 71, 60
6, 14980, Note_off_c, 4, 69, 64
6, 15005, Note_on_c, 4, 69, 57
6, 15008, Note_off_c, 4, 71, 64
6, 15026, Note_off_c, 4, 69, 64
6, 15026, Note_on_c, 4, 71, 62
6, 15047, Note_on_c, 4, 69, 66
6, 15048, Note_off_c, 4, 71, 64
6, 15066, Note_on_c, 4, 71, 80
6, 15067, Note_off_c, 4, 69, 64
6, 15085, Note_on_c, 4, 69, 70
6, 15087, Note_off_c, 4, 71, 64
6, 15103, Note_on_c, 4, 71, 78
6, 15106, Note_off_c, 4, 69, 64
6, 15121, Note_on_c, 4, 69, 70
6, 15128, Note_off_c, 4, 71, 64
6, 15258, Note_off_c, 4, 69, 64
6, 15301, Note_on_c, 4, 67, 76
6, 15334, Note_off_c, 4, 67, 64
6, 15366, Note_on_c, 4, 67, 63
6, 16275, Note_off_c, 4, 67, 64
6, 30845, Note_on_c, 4, 79, 82
6, 30879, Note_off_c, 4, 79, 64
6, 30959, Note_on_c, 4, 79, 80
6, 30997, Note_off_c, 4, 79, 64
6, 31078, Note_on_c, 4, 79, 80
6, 31115, Note_off_c, 4, 79, 64
6, 31195, Note_on_c, 4, 76, 66
6, 31309, Note_off_c, 4, 76, 64
6, 31309, Note_on_c, 4, 77, 66
6, 31357, Note_on_c, 4, 79, 68
6, 31358, Note_off_c, 4, 77, 64
6, 31409, Note_off_c, 4, 79, 64
6, 31424, Note_on_c, 4, 81, 68
6, 31457, Note_off_c, 4, 81, 64
6, 31549, Note_on_c, 4, 77, 76
6, 31587, Note_off_c, 4, 77, 64
6, 31675, Note_on_c, 4, 74, 70
6, 31713, Note_off_c, 4, 74, 64
6, 31794, Note_on_c, 4, 79, 85
6, 31837, Note_off_c, 4, 79, 64
6, 31916, Note_on_c, 4, 67, 68
6, 31967, Note_off_c, 4, 67, 64
6, 32040, Note_on_c, 4, 77, 82
6, 32085, Note_off_c, 4, 77, 64
6, 32157, Note_on_c, 4, 76, 74
6, 32208, Note_on_c, 4, 74, 66
6, 32217, Note_off_c, 4, 76, 64
6, 32268, Note_off_c, 4, 74, 64
6, 32275, Note_on_c, 4, 72, 63
6, 32334, Note_on_c, 4, 74, 72
6, 32344, Note_off_c, 4, 72, 64
6, 32394, Note_off_c, 4, 74, 64
6, 32398, Note_on_c, 4, 76, 62
6, 32445, Note_off_c, 4, 76, 64
6, 32450, Note_on_c, 4, 74, 64
6, 32511, Note_off_c, 4, 74, 64
6, 32512, Note_on_c, 4, 76, 59
6, 32564, Note_on_c, 4, 78, 55
6, 32572, Note_off_c, 4, 76, 64
6, 32613, Note_off_c, 4, 78, 64
6, 32635, Note_on_c, 4, 79, 74
6, 32732, Note_off_c, 4, 79, 64
6, 32818, Note_on_c, 4, 74, 57
6, 32850, Note_off_c, 4, 74, 64
6, 32878, Note_on_c, 4, 79, 85
6, 32987, Note_off_c, 4, 79, 64
6, 33052, Note_on_c, 4, 79, 70
6, 33083, Note_off_c, 4, 79, 64
6, 33113, Note_on_c, 4, 79, 85
6, 33220, Note_off_c, 4, 79, 64
6, 33270, Note_on_c, 4, 78, 64
6, 33308, Note_on_c, 4, 76, 66
6, 33309, Note_off_c, 4, 78, 64
6, 33336, Note_on_c, 4, 78, 53
6, 33349, Note_off_c, 4, 76, 64
6, 33359, Note_off_c, 4, 78, 64
6, 33364, Note_on_c, 4, 79, 61
6, 33395, Note_on_c, 4, 78, 64
6, 33400, Note_off_c, 4, 79, 64
6, 33423, Note_off_c, 4, 78, 64
6, 33424, Note_on_c, 4, 79, 72
6, 33453, Note_on_c, 4, 78, 58
6, 33469, Note_off_c, 4, 79, 64
6, 33499, Note_off_c, 4, 78, 64
6, 33529, Note_on_c, 4, 79, 72
6, 33560, Note_off_c, 4, 79, 64
6, 33587, Note_on_c, 4, 79, 87
6, 33693, Note_off_c, 4, 79, 64
6, 33714, Note_on_c, 4, 77, 64
6, 33769, Note_off_c, 4, 77, 64
6, 33769, Note_on_c, 4, 76, 61
6, 33811, Note_off_c, 4, 76, 64
6, 33824, Note_on_c, 4, 74, 62
6, 33880, Note_on_c, 4, 71, 78
6, 33883, Note_off_c, 4, 74, 64
6, 33936, Note_off_c, 4, 71, 64
6, 33936, Note_on_c, 4, 72, 55
6, 33985, Note_off_c, 4, 72, 64
6, 33995, Note_on_c, 4, 74, 66
6, 34042, Note_off_c, 4, 74, 64
6, 34068, Note_on_c, 4, 67, 63
6, 34108, Note_off_c, 4, 67, 64
6, 34190, Note_on_c, 4, 79, 74
6, 34226, Note_off_c, 4, 79, 64
6, 34317, Note_on_c, 4, 76, 70
6, 34353, Note_off_c, 4, 76, 64
6, 34440, Note_on_c, 4, 81, 82
6, 34484, Note_off_c, 4, 81, 64
6, 34560, Note_on_c, 4, 77, 82
6, 34616, Note_on_c, 4, 79, 68
6, 34621, Note_off_c, 4, 77, 64
6, 34669, Note_off_c, 4, 79, 64
6, 34670, Note_on_c, 4, 77, 59
6, 34730, Note_on_c, 4, 76, 51
6, 34733, Note_off_c, 4, 77, 64
6, 34786, Note_off_c, 4, 76, 64
6, 34792, Note_on_c, 4, 74, 61
6, 34848, Note_off_c, 4, 74, 64
6, 34848, Note_on_c, 4, 77, 59
6, 34912, Note_on_c, 4, 76, 51
6, 34913, Note_off_c, 4, 77, 64
6, 34965, Note_off_c, 4, 76, 64
6, 34969, Note_on_c, 4, 74, 62
6, 35017, Note_off_c, 4, 74, 64
6, 35038, Note_on_c, 4, 79, 82
6, 35086, Note_on_c, 4, 77, 68
6, 35101, Note_off_c, 4, 79, 64
6, 35146, Note_off_c, 4, 77, 64
6, 35153, Note_on_c, 4, 76, 53
6, 35205, Note_on_c, 4, 74, 56
6, 35214, Note_off_c, 4, 76, 64
6, 35266, Note_off_c, 4, 74, 64
6, 35272, Note_on_c, 4, 72, 60
6, 35325, Note_on_c, 4, 71, 51
6, 35326, Note_off_c, 4, 72, 64
6, 35378, Note_off_c, 4, 71, 64
6, 35389, Note_on_c, 4, 72, 54
6, 35431, Note_off_c, 4, 72, 64
6, 35446, Note_on_c, 4, 69, 60
6, 35488, Note_off_c, 4, 69, 64
6, 35510, Note_on_c, 4, 74, 78
6, 35615, Note_off_c, 4, 74, 64
6, 35631, Note_on_c, 4, 76, 59
6, 35679, Note_off_c, 4, 76, 64
6, 35686, Note_on_c, 4, 78, 59
6, 35727, Note_off_c, 4, 78, 64
6, 35749, Note_on_c, 4, 79, 89
6, 35841, Note_off_c, 4, 79, 64
6, 35877, Note_on_c, 4, 81, 63
6, 35919, Note_off_c, 4, 81, 64
6, 35925, Note_on_c, 4, 83, 60
6, 35967, Note_off_c, 4, 83, 64
6, 35993, Note_on_c, 4, 84, 82
6, 36107, Note_off_c, 4, 84, 64
6, 36177, Note_on_c, 4, 83, 72
6, 36202, Note_off_c, 4, 83, 64
6, 36234, Note_on_c, 4, 83, 87
6, 36262, Note_off_c, 4, 83, 64
6, 36263, Note_on_c, 4, 81, 66
6, 36287, Note_on_c, 4, 83, 72
6, 36291, Note_off_c, 4, 81, 64
6, 36317, Note_on_c, 4, 81, 64
6, 36324, Note_off_c, 4, 83, 64
6, 36383, Note_off_c, 4, 81, 64
6, 36397, Note_on_c, 4, 79, 74
6, 36432, Note_off_c, 4, 79, 64
6, 36471, Note_on_c, 4, 79, 85
6, 36595, Note_off_c, 4, 79, 64
6, 36607, Note_on_c, 4, 77, 63
6, 36649, Note_off_c, 4, 77, 64
6, 36655, Note_on_c, 4, 76, 53
6, 36696, Note_off_c, 4, 76, 64
6, 36715, Note_on_c, 4, 74, 54
6, 36768, Note_on_c, 4, 76, 62
6, 36774, Note_off_c, 4, 74, 64
6, 36828, Note_off_c, 4, 76, 64
6, 36828, Note_on_c, 4, 77, 68
6, 36872, Note_off_c, 4, 77, 64
6, 36888, Note_on_c, 4, 74, 62
6, 36933, Note_off_c, 4, 74, 64
6, 36952, Note_on_c, 4, 76, 70
6, 37004, Note_off_c, 4, 76, 64
6, 37008, Note_on_c, 4, 79, 62
6, 37067, Note_off_c, 4, 79, 64
6, 37072, Note_on_c, 4, 77, 52
6, 37129, Note_on_c, 4, 79, 58
6, 37132, Note_off_c, 4, 77, 64
6, 37179, Note_off_c, 4, 79, 64
6, 37195, Note_on_c, 4, 81, 80
6, 37248, Note_on_c, 4, 79, 64
6, 37256, Note_off_c, 4, 81, 64
6, 37306, Note_off_c, 4, 79, 64
6, 37307, Note_on_c, 4, 77, 59
6, 37364, Note_on_c, 4, 76, 60
6, 37367, Note_off_c, 4, 77, 64
6, 37409, Note_off_c, 4, 76, 64
6, 37426, Note_on_c, 4, 74, 72
6, 37485, Note_on_c, 4, 77, 64
6, 37488, Note_off_c, 4, 74, 64
6, 37544, Note_off_c, 4, 77, 64
6, 37548, Note_on_c, 4, 76, 44
6, 37608, Note_on_c, 4, 77, 54
6, 37611, Note_off_c, 4, 76, 64
6, 37669, Note_off_c, 4, 77, 64
6, 37676, Note_on_c, 4, 79, 72
6, 37727, Note_on_c, 4, 77, 62
6, 37731, Note_off_c, 4, 79, 64
6, 37789, Note_off_c, 4, 77, 64
6, 37791, Note_on_c, 4, 76, 57
6, 37850, Note_on_c, 4, 74, 57
6, 37854, Note_off_c, 4, 76, 64
6, 37905, Note_off_c, 4, 74, 64
6, 37916, Note_on_c, 4, 72, 60
6, 37960, Note_off_c, 4, 72, 64
6, 37974, Note_on_c, 4, 76, 63
6, 38033, Note_on_c, 4, 74, 55
6, 38038, Note_off_c, 4, 76, 64
6, 38092, Note_on_c, 4, 76, 60
6, 38097, Note_off_c, 4, 74, 64
6, 38141, Note_off_c, 4, 76, 64
6, 38156, Note_on_c, 4, 77, 78
6, 38208, Note_on_c, 4, 76, 66
6, 38217, Note_off_c, 4, 77, 64
6, 38270, Note_on_c, 4, 74, 57
6, 38275, Note_off_c, 4, 76, 64
6, 38331, Note_off_c, 4, 74, 64
6, 38334, Note_on_c, 4, 72, 57
6, 38385, Note_off_c, 4, 72, 64
6, 38399, Note_on_c, 4, 71, 60
6, 38450, Note_off_c, 4, 71, 64
6, 38452, Note_on_c, 4, 74, 68
6, 38510, Note_on_c, 4, 72, 48
6, 38519, Note_off_c, 4, 74, 64
6, 38574, Note_on_c, 4, 74, 59
6, 38580, Note_off_c, 4, 72, 64
6, 38626, Note_off_c, 4, 74, 64
6, 38637, Note_on_c, 4, 76, 68
6, 38688, Note_on_c, 4, 74, 68
6, 38693, Note_off_c, 4, 76, 64
6, 38752, Note_on_c, 4, 72, 59
6, 38756, Note_off_c, 4, 74, 64
6, 38808, Note_on_c, 4, 71, 55
6, 38810, Note_off_c, 4, 72, 64
6, 38869, Note_off_c, 4, 71, 64
6, 38875, Note_on_c, 4, 69, 64
6, 38926, Note_off_c, 4, 69, 64
6, 38933, Note_on_c, 4, 72, 58
6, 38991, Note_off_c, 4, 72, 64
6, 38995, Note_on_c, 4, 71, 36
6, 39051, Note_on_c, 4, 72, 60
6, 39059, Note_off_c, 4, 71, 64
6, 39102, Note_off_c, 4, 72, 64
6, 39111, Note_on_c, 4, 74, 55
6, 39159, Note_on_c, 4, 72, 63
6, 39179, Note_off_c, 4, 74, 64
6, 39228, Note_on_c, 4, 71, 58
6, 39229, Note_off_c, 4, 72, 64
6, 39272, Note_off_c, 4, 71, 64
6, 39282, Note_on_c, 4, 69, 64
6, 39337, Note_off_c, 4, 69, 64
6, 39347, Note_on_c, 4, 71, 70
6, 39386, Note_off_c, 4, 71, 64
6, 39475, Note_on_c, 4, 79, 82
6, 39514, Note_off_c, 4, 79, 64
6, 39602, Note_on_c, 4, 79, 87
6, 39642, Note_off_c, 4, 79, 64
6, 39729, Note_on_c, 4, 79, 85
6, 39768, Note_off_c, 4, 79, 64
6, 39847, Note_on_c, 4, 76, 85
6, 39957, Note_off_c, 4, 76, 64
6, 39970, Note_on_c, 4, 77, 82
6, 40021, Note_off_c, 4, 77, 64
6, 40025, Note_on_c, 4, 79, 72
6, 40071, Note_off_c, 4, 79, 64
6, 40085, Note_on_c, 4, 81, 80
6, 40124, Note_off_c, 4, 81, 64
6, 40200, Note_on_c, 4, 77, 76
6, 40241, Note_off_c, 4, 77, 64
6, 40312, Note_on_c, 4, 74, 78
6, 40350, Note_off_c, 4, 74, 64
6, 40430, Note_on_c, 4, 79, 74
6, 40473, Note_off_c, 4, 79, 64
6, 40550, Note_on_c, 4, 67, 72
6, 40602, Note_off_c, 4, 67, 64
6, 40673, Note_on_c, 4, 77, 82
6, 40716, Note_off_c, 4, 77, 64
6, 40797, Note_on_c, 4, 76, 80
6, 40937, Note_off_c, 4, 76, 64
6, 40979, Note_on_c, 4, 74, 63
6, 41010, Note_off_c, 4, 74, 64
6, 41038, Note_on_c, 4, 76, 78
6, 41066, Note_on_c, 4, 74, 63
6, 41069, Note_off_c, 4, 76, 64
6, 41089, Note_on_c, 4, 76, 60
6, 41090, Note_off_c, 4, 74, 64
6, 41113, Note_on_c, 4, 74, 70
6, 41127, Note_off_c, 4, 76, 64
6, 41183, Note_off_c, 4, 74, 64
6, 41213, Note_on_c, 4, 72, 64
6, 41248, Note_off_c, 4, 72, 64
6, 41282, Note_on_c, 4, 72, 72
6, 41448, Note_off_c, 4, 72, 64
6, 41989, Note_on_c, 4, 81, 60
6, 42474, Note_on_c, 4, 80, 48
6, 42475, Note_off_c, 4, 81, 64
6, 42696, Note_off_c, 4, 80, 64
6, 42716, Note_on_c, 4, 81, 57
6, 42783, Note_off_c, 4, 81, 64
6, 42833, Note_on_c, 4, 76, 61
6, 42868, Note_off_c, 4, 76, 64
6, 42958, Note_on_c, 4, 76, 80
6, 42996, Note_off_c, 4, 76, 64
6, 43079, Note_on_c, 4, 76, 72
6, 43122, Note_off_c, 4, 76, 64
6, 43200, Note_on_c, 4, 72, 78
6, 43311, Note_off_c, 4, 72, 64
6, 43325, Note_on_c, 4, 74, 72
6, 43372, Note_on_c, 4, 76, 68
6, 43374, Note_off_c, 4, 74, 64
6, 43419, Note_off_c, 4, 76, 64
6, 43433, Note_on_c, 4, 77, 70
6, 43474, Note_off_c, 4, 77, 64
6, 43558, Note_on_c, 4, 74, 80
6, 43605, Note_off_c, 4, 74, 64
6, 43675, Note_on_c, 4, 71, 68
6, 43722, Note_off_c, 4, 71, 64
6, 43795, Note_on_c, 4, 76, 76
6, 43833, Note_off_c, 4, 76, 64
6, 43916, Note_on_c, 4, 64, 68
6, 43964, Note_off_c, 4, 64, 64
6, 44033, Note_on_c, 4, 74, 80
6, 44079, Note_off_c, 4, 74, 64
6, 44148, Note_on_c, 4, 72, 72
6, 44198, Note_on_c, 4, 71, 59
6, 44207, Note_off_c, 4, 72, 64
6, 44265, Note_off_c, 4, 71, 64
6, 44268, Note_on_c, 4, 69, 58
6, 44325, Note_on_c, 4, 71, 55
6, 44336, Note_off_c, 4, 69, 64
6, 44391, Note_off_c, 4, 71, 64
6, 44393, Note_on_c, 4, 72, 62
6, 44442, Note_off_c, 4, 72, 64
6, 44448, Note_on_c, 4, 71, 60
6, 44510, Note_off_c, 4, 71, 64
6, 44512, Note_on_c, 4, 72, 58
6, 44567, Note_off_c, 4, 72, 64
6, 44567, Note_on_c, 4, 74, 60
6, 44624, Note_off_c, 4, 74, 64
6, 44628, Note_on_c, 4, 71, 66
6, 44683, Note_on_c, 4, 74, 60
6, 44684, Note_off_c, 4, 71, 64
6, 44738, Note_off_c, 4, 74, 64
6, 44749, Note_on_c, 4, 72, 57
6, 44803, Note_on_c, 4, 74, 64
6, 44808, Note_off_c, 4, 72, 64
6, 44865, Note_on_c, 4, 76, 68
6, 44867, Note_off_c, 4, 74, 64
6, 44923, Note_on_c, 4, 79, 68
6, 44926, Note_off_c, 4, 76, 64
6, 44983, Note_on_c, 4, 78, 55
6, 44987, Note_off_c, 4, 79, 64
6, 45048, Note_off_c, 4, 78, 64
6, 45048, Note_on_c, 4, 79, 68
6, 45098, Note_off_c, 4, 79, 64
6, 45112, Note_on_c, 4, 81, 62
6, 45164, Note_on_c, 4, 79, 59
6, 45174, Note_off_c, 4, 81, 64
6, 45216, Note_off_c, 4, 79, 64
6, 45221, Note_on_c, 4, 78, 54
6, 45274, Note_on_c, 4, 79, 61
6, 45281, Note_off_c, 4, 78, 64
6, 45336, Note_on_c, 4, 81, 66
6, 45339, Note_off_c, 4, 79, 64
6, 45388, Note_off_c, 4, 81, 64
6, 45390, Note_on_c, 4, 83, 82
6, 45453, Note_on_c, 4, 80, 64
6, 45458, Note_off_c, 4, 83, 64
6, 45522, Note_on_c, 4, 81, 72
6, 45528, Note_off_c, 4, 80, 64
6, 45574, Note_off_c, 4, 81, 64
6, 45590, Note_on_c, 4, 83, 70
6, 45647, Note_on_c, 4, 81, 63
6, 45655, Note_off_c, 4, 83, 64
6, 45707, Note_off_c, 4, 81, 64
6, 45707, Note_on_c, 4, 80, 57
6, 45769, Note_on_c, 4, 78, 48
6, 45771, Note_off_c, 4, 80, 64
6, 45829, Note_off_c, 4, 78, 64
6, 45838, Note_on_c, 4, 76, 64
6, 45886, Note_off_c, 4, 76, 64
6, 45909, Note_on_c, 4, 74, 55
6, 45960, Note_off_c, 4, 74, 64
6, 45960, Note_on_c, 4, 76, 60
6, 46018, Note_on_c, 4, 77, 58
6, 46023, Note_off_c, 4, 76, 64
6, 46073, Note_off_c, 4, 77, 64
6, 46080, Note_on_c, 4, 72, 68
6, 46236, Note_off_c, 4, 72, 64
6, 46304, Note_on_c, 4, 72, 72
6, 46340, Note_on_c, 4, 71, 45
6, 46341, Note_off_c, 4, 72, 64
6, 46364, Note_on_c, 4, 72, 64
6, 46368, Note_off_c, 4, 71, 64
6, 46396, Note_on_c, 4, 71, 66
6, 46406, Note_off_c, 4, 72, 64
6, 46497, Note_off_c, 4, 71, 64
6, 46557, Note_on_c, 4, 69, 72
6, 46610, Note_on_c, 4, 72, 60
6, 46613, Note_off_c, 4, 69, 64
6, 46670, Note_on_c, 4, 74, 66
6, 46678, Note_off_c, 4, 72, 64
6, 46715, Note_on_c, 4, 76, 61
6, 46719, Note_off_c, 4, 74, 64
6, 46769, Note_off_c, 4, 76, 64
6, 46783, Note_on_c, 4, 77, 70
6, 46828, Note_off_c, 4, 77, 64
6, 46911, Note_on_c, 4, 74, 74
6, 46956, Note_off_c, 4, 74, 64
6, 47035, Note_on_c, 4, 71, 68
6, 47073, Note_off_c, 4, 71, 64
6, 47155, Note_on_c, 4, 76, 74
6, 47201, Note_off_c, 4, 76, 64
6, 47282, Note_on_c, 4, 64, 64
6, 47328, Note_off_c, 4, 64, 64
6, 47406, Note_on_c, 4, 76, 80
6, 47448, Note_off_c, 4, 76, 64
6, 47517, Note_on_c, 4, 69, 68
6, 47621, Note_off_c, 4, 69, 64
6, 47634, Note_on_c, 4, 71, 66
6, 47682, Note_on_c, 4, 72, 68
6, 47684, Note_off_c, 4, 71, 64
6, 47730, Note_off_c, 4, 72, 64
6, 47755, Note_on_c, 4, 74, 64
6, 47999, Note_off_c, 4, 74, 64
6, 48056, Note_on_c, 4, 77, 72
6, 48116, Note_on_c, 4, 76, 68
6, 48120, Note_off_c, 4, 77, 64
6, 48172, Note_off_c, 4, 76, 64
6, 48176, Note_on_c, 4, 74, 58
6, 48235, Note_on_c, 4, 72, 60
6, 48239, Note_off_c, 4, 74, 64
6, 48287, Note_off_c, 4, 72, 64
6, 48288, Note_on_c, 4, 71, 53
6, 48353, Note_off_c, 4, 71, 64
6, 48354, Note_on_c, 4, 72, 48
6, 48398, Note_off_c, 4, 72, 64
6, 48406, Note_on_c, 4, 69, 70
6, 48439, Note_off_c, 4, 69, 64
6, 48477, Note_on_c, 4, 81, 64
6, 48605, Note_off_c, 4, 81, 64
6, 48658, Note_on_c, 4, 83, 60
6, 48685, Note_off_c, 4, 83, 64
6, 48723, Note_on_c, 4, 81, 80
6, 48750, Note_on_c, 4, 80, 57
6, 48753, Note_off_c, 4, 81, 64
6, 48774, Note_on_c, 4, 81, 57
6, 48778, Note_off_c, 4, 80, 64
6, 48806, Note_on_c, 4, 80, 63
6, 48820, Note_off_c, 4, 81, 64
6, 48863, Note_off_c, 4, 80, 64
6, 48892, Note_on_c, 4, 81, 66
6, 48922, Note_off_c, 4, 81, 64
6, 48956, Note_on_c, 4, 81, 74
6, 49009, Note_on_c, 4, 83, 68
6, 49013, Note_off_c, 4, 81, 64
6, 49070, Note_off_c, 4, 83, 64
6, 49074, Note_on_c, 4, 84, 68
6, 49125, Note_off_c, 4, 84, 64
6, 49126, Note_on_c, 4, 83, 63
6, 49184, Note_off_c, 4, 83, 64
6, 49191, Note_on_c, 4, 81, 64
6, 49248, Note_off_c, 4, 81, 64
6, 49248, Note_on_c, 4, 79, 57
6, 49308, Note_on_c, 4, 81, 56
6, 49311, Note_off_c, 4, 79, 64
6, 49362, Note_on_c, 4, 78, 51
6, 49364, Note_off_c, 4, 81, 64
6, 49415, Note_off_c, 4, 78, 64
6, 49429, Note_on_c, 4, 83, 76
6, 49479, Note_off_c, 4, 83, 64
6, 49556, Note_on_c, 4, 71, 64
6, 49602, Note_off_c, 4, 71, 64
6, 49684, Note_on_c, 4, 76, 78
6, 49800, Note_off_c, 4, 76, 64
6, 49859, Note_on_c, 4, 76, 64
6, 49890, Note_off_c, 4, 76, 64
6, 49924, Note_on_c, 4, 76, 74
6, 49976, Note_off_c, 4, 76, 64
6, 49980, Note_on_c, 4, 79, 64
6, 50032, Note_on_c, 4, 78, 51
6, 50036, Note_off_c, 4, 79, 64
6, 50086, Note_on_c, 4, 76, 60
6, 50088, Note_off_c, 4, 78, 64
6, 50141, Note_off_c, 4, 76, 64
6, 50146, Note_on_c, 4, 75, 60
6, 50203, Note_on_c, 4, 73, 52
6, 50208, Note_off_c, 4, 75, 64
6, 50268, Note_off_c, 4, 73, 64
6, 50268, Note_on_c, 4, 75, 62
6, 50316, Note_off_c, 4, 75, 64
6, 50320, Note_on_c, 4, 71, 70
6, 50371, Note_off_c, 4, 71, 64
6, 50390, Note_on_c, 4, 83, 70
6, 50449, Note_on_c, 4, 81, 72
6, 50467, Note_off_c, 4, 83, 64
6, 50503, Note_off_c, 4, 81, 64
6, 50507, Note_on_c, 4, 79, 60
6, 50567, Note_on_c, 4, 78, 52
6, 50573, Note_off_c, 4, 79, 64
6, 50625, Note_off_c, 4, 78, 64
6, 50628, Note_on_c, 4, 76, 57
6, 50682, Note_on_c, 4, 74, 55
6, 50690, Note_off_c, 4, 76, 64
6, 50757, Note_on_c, 4, 72, 53
6, 50758, Note_off_c, 4, 74, 64
6, 50810, Note_on_c, 4, 71, 57
6, 50816, Note_off_c, 4, 72, 64
6, 50853, Note_off_c, 4, 71, 64
6, 50876, Note_on_c, 4, 69, 58
6, 50935, Note_on_c, 4, 72, 64
6, 50938, Note_off_c, 4, 69, 64
6, 50991, Note_off_c, 4, 72, 64
6, 51000, Note_on_c, 4, 74, 63
6, 51055, Note_on_c, 4, 76, 59
6, 51060, Note_off_c, 4, 74, 64
6, 51100, Note_off_c, 4, 76, 64
6, 51115, Note_on_c, 4, 74, 70
6, 51174, Note_on_c, 4, 72, 58
6, 51180, Note_off_c, 4, 74, 64
6, 51232, Note_off_c, 4, 72, 64
6, 51232, Note_on_c, 4, 71, 57
6, 51288, Note_on_c, 4, 69, 59
6, 51291, Note_off_c, 4, 71, 64
6, 51333, Note_off_c, 4, 69, 64
6, 51349, Note_on_c, 4, 74, 76
6, 51472, Note_off_c, 4, 74, 64
6, 51528, Note_on_c, 4, 76, 64
6, 51561, Note_off_c, 4, 76, 64
6, 51591, Note_on_c, 4, 74, 68
6, 51612, Note_on_c, 4, 72, 57
6, 51616, Note_off_c, 4, 74, 64
6, 51640, Note_on_c, 4, 74, 70
6, 51642, Note_off_c, 4, 72, 64
6, 51669, Note_on_c, 4, 72, 64
6, 51679, Note_off_c, 4, 74, 64
6, 51735, Note_off_c, 4, 72, 64
6, 51777, Note_on_c, 4, 71, 70
6, 51816, Note_off_c, 4, 71, 64
6, 51843, Note_on_c, 4, 72, 78
6, 51960, Note_off_c, 4, 72, 64
6, 52013, Note_on_c, 4, 74, 66
6, 52044, Note_off_c, 4, 74, 64
6, 52076, Note_on_c, 4, 72, 78
6, 52099, Note_off_c, 4, 72, 64
6, 52101, Note_on_c, 4, 71, 57
6, 52124, Note_on_c, 4, 72, 70
6, 52133, Note_off_c, 4, 71, 64
6, 52157, Note_on_c, 4, 71, 66
6, 52169, Note_off_c, 4, 72, 64
6, 52223, Note_off_c, 4, 71, 64
6, 52246, Note_on_c, 4, 69, 57
6, 52274, Note_off_c, 4, 69, 64
6, 52303, Note_on_c, 4, 69, 60
6, 52363, Note_on_c, 4, 76, 78
6, 52373, Note_off_c, 4, 69, 64
6, 52418, Note_off_c, 4, 76, 64
6, 52419, Note_on_c, 4, 78, 51
6, 52478, Note_on_c, 4, 80, 60
6, 52480, Note_off_c, 4, 78, 64
6, 52526, Note_off_c, 4, 80, 64
6, 52549, Note_on_c, 4, 81, 76
6, 52811, Note_off_c, 4, 81, 64
6, 52861, Note_on_c, 4, 84, 70
6, 52918, Note_on_c, 4, 83, 70
6, 52922, Note_off_c, 4, 84, 64
6, 52974, Note_on_c, 4, 81, 66
6, 52978, Note_off_c, 4, 83, 64
6, 53037, Note_off_c, 4, 81, 64
6, 53042, Note_on_c, 4, 80, 63
6, 53096, Note_on_c, 4, 81, 72
6, 53107, Note_off_c, 4, 80, 64
6, 53151, Note_off_c, 4, 81, 64
6, 53156, Note_on_c, 4, 83, 70
6, 53206, Note_off_c, 4, 83, 64
6, 53209, Note_on_c, 4, 80, 58
6, 53267, Note_off_c, 4, 80, 64
6, 53280, Note_on_c, 4, 76, 59
6, 53319, Note_off_c, 4, 76, 64
6, 53398, Note_on_c, 4, 76, 82
6, 53438, Note_off_c, 4, 76, 64
6, 53516, Note_on_c, 4, 76, 80
6, 53558, Note_off_c, 4, 76, 64
6, 53639, Note_on_c, 4, 76, 80
6, 53683, Note_off_c, 4, 76, 64
6, 53755, Note_on_c, 4, 72, 78
6, 53864, Note_off_c, 4, 72, 64
6, 53878, Note_on_c, 4, 74, 70
6, 53926, Note_on_c, 4, 76, 70
6, 53935, Note_off_c, 4, 74, 64
6, 53981, Note_off_c, 4, 76, 64
6, 53989, Note_on_c, 4, 77, 63
6, 54033, Note_off_c, 4, 77, 64
6, 54119, Note_on_c, 4, 74, 80
6, 54165, Note_off_c, 4, 74, 64
6, 54232, Note_on_c, 4, 71, 68
6, 54285, Note_off_c, 4, 71, 64
6, 54354, Note_on_c, 4, 76, 78
6, 54393, Note_off_c, 4, 76, 64
6, 54472, Note_on_c, 4, 64, 66
6, 54528, Note_off_c, 4, 64, 64
6, 54593, Note_on_c, 4, 74, 80
6, 54636, Note_off_c, 4, 74, 64
6, 54706, Note_on_c, 4, 72, 76
6, 54848, Note_off_c, 4, 72, 64
6, 54898, Note_on_c, 4, 71, 68
6, 54930, Note_off_c, 4, 71, 64
6, 54960, Note_on_c, 4, 72, 82
6, 54989, Note_off_c, 4, 72, 64
6, 54989, Note_on_c, 4, 71, 59
6, 55018, Note_on_c, 4, 72, 66
6, 55026, Note_off_c, 4, 71, 64
6, 55043, Note_on_c, 4, 71, 58
6, 55056, Note_off_c, 4, 72, 64
6, 55109, Note_off_c, 4, 71, 64
6, 55125, Note_on_c, 4, 69, 64
6, 55159, Note_off_c, 4, 69, 64
6, 55185, Note_on_c, 4, 69, 66
6, 55311, Note_off_c, 4, 69, 64
6, 68390, Note_on_c, 4, 79, 55
6, 68873, Note_on_c, 4, 78, 53
6, 68880, Note_off_c, 4, 79, 64
6, 69112, Note_off_c, 4, 78, 64
6, 69119, Note_on_c, 4, 79, 66
6, 69224, Note_off_c, 4, 79, 64
6, 69233, Note_on_c, 4, 74, 59
6, 69269, Note_off_c, 4, 74, 64
6, 69352, Note_on_c, 4, 74, 66
6, 69396, Note_off_c, 4, 74, 64
6, 69472, Note_on_c, 4, 74, 66
6, 69517, Note_off_c, 4, 74, 64
6, 69585, Note_on_c, 4, 71, 68
6, 69717, Note_off_c, 4, 71, 64
6, 69717, Note_on_c, 4, 72, 64
6, 69769, Note_on_c, 4, 74, 66
6, 69775, Note_off_c, 4, 72, 64
6, 69825, Note_off_c, 4, 74, 64
6, 69828, Note_on_c, 4, 76, 62
6, 69878, Note_off_c, 4, 76, 64
6, 69950, Note_on_c, 4, 72, 68
6, 69994, Note_off_c, 4, 72, 64
6, 70070, Note_on_c, 4, 69, 63
6, 70124, Note_off_c, 4, 69, 64
6, 70187, Note_on_c, 4, 74, 70
6, 70240, Note_off_c, 4, 74, 64
6, 70310, Note_on_c, 4, 62, 66
6, 70365, Note_off_c, 4, 62, 64
6, 70438, Note_on_c, 4, 72, 66
6, 70487, Note_off_c, 4, 72, 64
6, 70564, Note_on_c, 4, 71, 53
6, 70791, Note_off_c, 4, 71, 64
6, 71083, Note_on_c, 4, 84, 68
6, 71144, Note_on_c, 4, 83, 63
6, 71149, Note_off_c, 4, 84, 64
6, 71202, Note_on_c, 4, 81, 55
6, 71212, Note_off_c, 4, 83, 64
6, 71257, Note_off_c, 4, 81, 64
6, 71264, Note_on_c, 4, 79, 55
6, 71312, Note_on_c, 4, 78, 64
6, 71315, Note_off_c, 4, 79, 64
6, 71376, Note_off_c, 4, 78, 64
6, 71382, Note_on_c, 4, 79, 57
6, 71422, Note_off_c, 4, 79, 64
6, 71441, Note_on_c, 4, 76, 57
6, 71489, Note_off_c, 4, 76, 64
6, 71514, Note_on_c, 4, 81, 74
6, 71572, Note_on_c, 4, 83, 59
6, 71577, Note_off_c, 4, 81, 64
6, 71637, Note_on_c, 4, 81, 57
6, 71656, Note_off_c, 4, 83, 64
6, 71689, Note_off_c, 4, 81, 64
6, 71694, Note_on_c, 4, 79, 57
6, 71742, Note_off_c, 4, 79, 64
6, 71750, Note_on_c, 4, 78, 52
6, 71812, Note_off_c, 4, 78, 64
6, 71814, Note_on_c, 4, 76, 58
6, 71858, Note_off_c, 4, 76, 64
6, 71874, Note_on_c, 4, 78, 57
6, 71931, Note_off_c, 4, 78, 64
6, 71932, Note_on_c, 4, 71, 58
6, 71982, Note_off_c, 4, 71, 64
6, 71996, Note_on_c, 4, 83, 60
6, 72057, Note_on_c, 4, 81, 60
6, 72064, Note_off_c, 4, 83, 64
6, 72107, Note_off_c, 4, 81, 64
6, 72111, Note_on_c, 4, 79, 58
6, 72168, Note_on_c, 4, 78, 51
6, 72170, Note_off_c, 4, 79, 64
6, 72226, Note_off_c, 4, 78, 64
6, 72232, Note_on_c, 4, 76, 53
6, 73138, Note_off_c, 4, 76, 64
6, 73201, Note_on_c, 4, 76, 63
6, 73232, Note_on_c, 4, 75, 61
6, 73236, Note_off_c, 4, 76, 64
6, 73258, Note_on_c, 4, 76, 59
6, 73260, Note_off_c, 4, 75, 64
6, 73289, Note_on_c, 4, 75, 56
6, 73305, Note_off_c, 4, 76, 64
6, 73400, Note_off_c, 4, 75, 64
6, 73430, Note_on_c, 4, 76, 68
6, 73544, Note_off_c, 4, 76, 64
6, 73557, Note_on_c, 4, 71, 63
6, 73670, Note_off_c, 4, 71, 64
6, 73679, Note_on_c, 4, 76, 66
6, 73778, Note_off_c, 4, 76, 64
6, 73789, Note_on_c, 4, 78, 57
6, 73897, Note_off_c, 4, 78, 64
6, 73906, Note_on_c, 4, 79, 52
6, 74483, Note_off_c, 4, 79, 64
6, 74508, Note_on_c, 4, 69, 57
6, 74619, Note_off_c, 4, 69, 64
6, 74624, Note_on_c, 4, 76, 64
6, 74736, Note_off_c, 4, 76, 64
6, 74749, Note_on_c, 4, 79, 64
6, 74871, Note_off_c, 4, 79, 64
6, 74879, Note_on_c, 4, 78, 44
6, 75443, Note_off_c, 4, 78, 64
6, 75476, Note_on_c, 4, 83, 68
6, 75524, Note_off_c, 4, 83, 64
6, 75603, Note_on_c, 4, 83, 72
6, 75645, Note_off_c, 4, 83, 64
6, 75720, Note_on_c, 4, 83, 74
6, 75762, Note_off_c, 4, 83, 64
6, 75840, Note_on_c, 4, 76, 70
6, 75956, Note_on_c, 4, 78, 58
6, 75960, Note_off_c, 4, 76, 64
6, 76009, Note_on_c, 4, 79, 60
6, 76015, Note_off_c, 4, 78, 64
6, 76051, Note_off_c, 4, 79, 64
6, 76074, Note_on_c, 4, 81, 66
6, 76399, Note_off_c, 4, 81, 64
6, 76436, Note_on_c, 4, 79, 70
6, 76481, Note_on_c, 4, 78, 56
6, 76483, Note_off_c, 4, 79, 64
6, 76528, Note_off_c, 4, 78, 64
6, 76548, Note_on_c, 4, 79, 70
6, 76594, Note_off_c, 4, 79, 64
6, 76673, Note_on_c, 4, 84, 76
6, 76719, Note_off_c, 4, 84, 64
6, 76800, Note_on_c, 4, 78, 62
6, 77051, Note_off_c, 4, 78, 64
6, 77085, Note_on_c, 4, 78, 58
6, 77139, Note_on_c, 4, 80, 68
6, 77142, Note_off_c, 4, 78, 64
6, 77191, Note_on_c, 4, 81, 72
6, 77202, Note_off_c, 4, 80, 64
6, 77249, Note_off_c, 4, 81, 64
6, 77259, Note_on_c, 4, 83, 62
6, 77311, Note_on_c, 4, 81, 64
6, 77317, Note_off_c, 4, 83, 64
6, 77368, Note_off_c, 4, 81, 64
6, 77374, Note_on_c, 4, 80, 51
6, 77431, Note_on_c, 4, 78, 51
6, 77435, Note_off_c, 4, 80, 64
6, 77490, Note_off_c, 4, 78, 64
6, 77510, Note_on_c, 4, 76, 68
6, 77560, Note_off_c, 4, 76, 64
6, 77572, Note_on_c, 4, 81, 64
6, 77624, Note_off_c, 4, 81, 64
6, 77629, Note_on_c, 4, 83, 63
6, 77680, Note_on_c, 4, 84, 66
6, 77683, Note_off_c, 4, 83, 64
6, 77728, Note_off_c, 4, 84, 64
6, 77760, Note_on_c, 4, 74, 53
6, 78259, Note_off_c, 4, 74, 64
6, 78289, Note_on_c, 4, 77, 80
6, 78352, Note_on_c, 4, 76, 64
6, 78364, Note_off_c, 4, 77, 64
6, 78414, Note_on_c, 4, 74, 59
6, 78420, Note_off_c, 4, 76, 64
6, 78468, Note_on_c, 4, 72, 63
6, 78470, Note_off_c, 4, 74, 64
6, 78524, Note_off_c, 4, 72, 64
6, 78527, Note_on_c, 4, 71, 52
6, 78574, Note_off_c, 4, 71, 64
6, 78589, Note_on_c, 4, 72, 55
6, 78633, Note_off_c, 4, 72, 64
6, 78647, Note_on_c, 4, 69, 62
6, 78706, Note_off_c, 4, 69, 64
6, 78722, Note_on_c, 4, 81, 49
6, 79411, Note_off_c, 4, 81, 64
6, 79414, Note_on_c, 4, 80, 58
6, 79644, Note_off_c, 4, 80, 64
6, 79677, Note_on_c, 4, 81, 68
6, 80189, Note_off_c, 4, 81, 64
6, 80217, Note_on_c, 4, 82, 85
6, 80274, Note_on_c, 4, 81, 57
6, 80287, Note_off_c, 4, 82, 64
6, 80335, Note_off_c, 4, 81, 64
6, 80335, Note_on_c, 4, 79, 62
6, 80385, Note_off_c, 4, 79, 64
6, 80394, Note_on_c, 4, 78, 63
6, 80447, Note_off_c, 4, 78, 64
6, 80450, Note_on_c, 4, 76, 49
6, 80504, Note_off_c, 4, 76, 64
6, 80506, Note_on_c, 4, 78, 52
6, 80565, Note_on_c, 4, 74, 63
6, 80568, Note_off_c, 4, 78, 64
6, 80619, Note_off_c, 4, 74, 64
6, 80635, Note_on_c, 4, 79, 64
6, 81343, Note_off_c, 4, 79, 64
6, 81343, Note_on_c, 4, 78, 53
6, 81575, Note_off_c, 4, 78, 64
6, 81586, Note_on_c, 4, 79, 45
6, 82111, Note_off_c, 4, 79, 64
6, 82136, Note_on_c, 4, 81, 68
6, 82191, Note_on_c, 4, 79, 64
6, 82201, Note_off_c, 4, 81, 64
6, 82254, Note_on_c, 4, 77, 57
6, 82256, Note_off_c, 4, 79, 64
6, 82313, Note_off_c, 4, 77, 64
6, 82315, Note_on_c, 4, 76, 68
6, 82366, Note_off_c, 4, 76, 64
6, 82366, Note_on_c, 4, 74, 64
6, 82428, Note_off_c, 4, 74, 64
6, 82429, Note_on_c, 4, 76, 60
6, 82480, Note_off_c, 4, 76, 64
6, 82487, Note_on_c, 4, 72, 64
6, 82540, Note_off_c, 4, 72, 64
6, 82553, Note_on_c, 4, 77, 68
6, 83275, Note_on_c, 4, 76, 68
6, 83276, Note_off_c, 4, 77, 64
6, 83486, Note_off_c, 4, 76, 64
6, 83503, Note_on_c, 4, 77, 53
6, 83588, Note_off_c, 4, 77, 64
6, 83630, Note_on_c, 4, 65, 66
6, 83689, Note_on_c, 4, 67, 70
6, 83696, Note_off_c, 4, 65, 64
6, 83747, Note_off_c, 4, 67, 64
6, 83753, Note_on_c, 4, 69, 80
6, 83797, Note_off_c, 4, 69, 64
6, 83806, Note_on_c, 4, 67, 60
6, 83871, Note_off_c, 4, 67, 64
6, 83873, Note_on_c, 4, 69, 66
6, 83928, Note_on_c, 4, 71, 68
6, 83929, Note_off_c, 4, 69, 64
6, 83973, Note_off_c, 4, 71, 64
6, 83994, Note_on_c, 4, 72, 78
6, 84120, Note_off_c, 4, 72, 64
6, 84176, Note_on_c, 4, 67, 57
6, 84206, Note_off_c, 4, 67, 64
6, 84235, Note_on_c, 4, 72, 82
6, 84360, Note_off_c, 4, 72, 64
6, 84412, Note_on_c, 4, 72, 66
6, 84444, Note_off_c, 4, 72, 64
6, 84468, Note_on_c, 4, 72, 80
6, 84581, Note_off_c, 4, 72, 64
6, 84640, Note_on_c, 4, 71, 59
6, 84666, Note_on_c, 4, 69, 66
6, 84708, Note_off_c, 4, 69, 64
6, 84724, Note_on_c, 4, 72, 72
6, 84728, Note_off_c, 4, 71, 64
6, 84752, Note_on_c, 4, 71, 76
6, 84759, Note_off_c, 4, 72, 64
6, 84779, Note_on_c, 4, 72, 64
6, 84788, Note_off_c, 4, 71, 64
6, 84799, Note_on_c, 4, 71, 53
6, 84819, Note_off_c, 4, 72, 64
6, 84857, Note_off_c, 4, 71, 64
6, 84886, Note_on_c, 4, 72, 74
6, 84916, Note_off_c, 4, 72, 64
6, 84945, Note_on_c, 4, 72, 64
6, 85196, Note_off_c, 4, 72, 64
6, 99958, Note_on_c, 4, 79, 85
6, 99997, Note_off_c, 4, 79, 64
6, 100083, Note_on_c, 4, 79, 80
6, 100129, Note_off_c, 4, 79, 64
6, 100202, Note_on_c, 4, 79, 82
6, 100238, Note_off_c, 4, 79, 64
6, 100315, Note_on_c, 4, 76, 76
6, 100428, Note_off_c, 4, 76, 64
6, 100440, Note_on_c, 4, 77, 68
6, 100487, Note_off_c, 4, 77, 64
6, 100488, Note_on_c, 4, 79, 70
6, 100534, Note_off_c, 4, 79, 64
6, 100551, Note_on_c, 4, 81, 87
6, 100587, Note_off_c, 4, 81, 64
6, 100675, Note_on_c, 4, 77, 82
6, 100712, Note_off_c, 4, 77, 64
6, 100793, Note_on_c, 4, 74, 78
6, 100831, Note_off_c, 4, 74, 64
6, 100911, Note_on_c, 4, 79, 85
6, 100948, Note_off_c, 4, 79, 64
6, 101029, Note_on_c, 4, 67, 72
6, 101069, Note_off_c, 4, 67, 64
6, 101156, Note_on_c, 4, 77, 82
6, 101194, Note_off_c, 4, 77, 64
6, 101281, Note_on_c, 4, 76, 68
6, 101521, Note_off_c, 4, 76, 64
6, 101998, Note_on_c, 4, 72, 56
6, 102466, Note_off_c, 4, 72, 64
6, 102471, Note_on_c, 4, 71, 59
6, 102674, Note_off_c, 4, 71, 64
6, 102729, Note_on_c, 4, 72, 64
6, 102785, Note_on_c, 4, 79, 78
6, 102787, Note_off_c, 4, 72, 64
6, 102844, Note_off_c, 4, 79, 64
6, 102846, Note_on_c, 4, 77, 51
6, 102892, Note_on_c, 4, 79, 66
6, 102903, Note_off_c, 4, 77, 64
6, 102944, Note_off_c, 4, 79, 64
6, 102951, Note_on_c, 4, 81, 80
6, 103005, Note_on_c, 4, 79, 70
6, 103008, Note_off_c, 4, 81, 64
6, 103066, Note_off_c, 4, 79, 64
6, 103066, Note_on_c, 4, 77, 57
6, 103121, Note_off_c, 4, 77, 64
6, 103122, Note_on_c, 4, 76, 48
6, 103181, Note_off_c, 4, 76, 64
6, 103188, Note_on_c, 4, 74, 82
6, 103247, Note_on_c, 4, 77, 66
6, 103259, Note_off_c, 4, 74, 64
6, 103307, Note_off_c, 4, 77, 64
6, 103309, Note_on_c, 4, 76, 41
6, 103365, Note_off_c, 4, 76, 64
6, 103370, Note_on_c, 4, 77, 58
6, 103424, Note_off_c, 4, 77, 64
6, 103433, Note_on_c, 4, 79, 72
6, 103485, Note_on_c, 4, 77, 64
6, 103488, Note_off_c, 4, 79, 64
6, 103545, Note_off_c, 4, 77, 64
6, 103548, Note_on_c, 4, 76, 58
6, 103608, Note_off_c, 4, 76, 64
6, 103610, Note_on_c, 4, 74, 57
6, 103663, Note_off_c, 4, 74, 64
6, 103673, Note_on_c, 4, 72, 76
6, 103730, Note_on_c, 4, 76, 68
6, 103733, Note_off_c, 4, 72, 64
6, 103789, Note_off_c, 4, 76, 64
6, 103789, Note_on_c, 4, 74, 48
6, 103847, Note_on_c, 4, 76, 59
6, 103854, Note_off_c, 4, 74, 64
6, 103898, Note_off_c, 4, 76, 64
6, 103913, Note_on_c, 4, 77, 74
6, 104059, Note_off_c, 4, 77, 64
6, 104100, Note_on_c, 4, 77, 82
6, 104132, Note_off_c, 4, 77, 64
6, 104163, Note_on_c, 4, 77, 89
6, 104211, Note_on_c, 4, 76, 59
6, 104214, Note_off_c, 4, 77, 64
6, 104264, Note_off_c, 4, 76, 64
6, 104268, Note_on_c, 4, 77, 68
6, 104323, Note_off_c, 4, 77, 64
6, 104326, Note_on_c, 4, 74, 64
6, 104374, Note_off_c, 4, 74, 64
6, 104389, Note_on_c, 4, 76, 80
6, 104443, Note_on_c, 4, 79, 64
6, 104446, Note_off_c, 4, 76, 64
6, 104503, Note_on_c, 4, 77, 56
6, 104504, Note_off_c, 4, 79, 64
6, 104557, Note_on_c, 4, 79, 72
6, 104559, Note_off_c, 4, 77, 64
6, 104617, Note_off_c, 4, 79, 64
6, 104624, Note_on_c, 4, 81, 80
6, 104924, Note_off_c, 4, 81, 64
6, 104946, Note_on_c, 4, 74, 78
6, 104997, Note_off_c, 4, 74, 64
6, 104999, Note_on_c, 4, 76, 64
6, 105052, Note_off_c, 4, 76, 64
6, 105055, Note_on_c, 4, 77, 66
6, 105111, Note_off_c, 4, 77, 64
6, 105122, Note_on_c, 4, 79, 68
6, 105387, Note_off_c, 4, 79, 64
6, 105416, Note_on_c, 4, 72, 70
6, 105471, Note_on_c, 4, 74, 68
6, 105475, Note_off_c, 4, 72, 64
6, 105531, Note_on_c, 4, 76, 66
6, 105532, Note_off_c, 4, 74, 64
6, 105582, Note_off_c, 4, 76, 64
6, 105597, Note_on_c, 4, 77, 82
6, 105655, Note_on_c, 4, 76, 70
6, 105658, Note_off_c, 4, 77, 64
6, 105710, Note_on_c, 4, 74, 58
6, 105711, Note_off_c, 4, 76, 64
6, 105772, Note_on_c, 4, 72, 66
6, 105775, Note_off_c, 4, 74, 64
6, 105822, Note_off_c, 4, 72, 64
6, 105833, Note_on_c, 4, 71, 58
6, 105884, Note_off_c, 4, 71, 64
6, 105889, Note_on_c, 4, 74, 66
6, 105950, Note_off_c, 4, 74, 64
6, 105955, Note_on_c, 4, 76, 63
6, 106011, Note_on_c, 4, 77, 66
6, 106022, Note_off_c, 4, 76, 64
6, 106052, Note_off_c, 4, 77, 64
6, 106069, Note_on_c, 4, 76, 78
6, 106125, Note_on_c, 4, 79, 60
6, 106126, Note_off_c, 4, 76, 64
6, 106187, Note_off_c, 4, 79, 64
6, 106190, Note_on_c, 4, 77, 57
6, 106246, Note_on_c, 4, 79, 63
6, 106247, Note_off_c, 4, 77, 64
6, 106295, Note_off_c, 4, 79, 64
6, 106306, Note_on_c, 4, 81, 64
6, 106359, Note_on_c, 4, 79, 64
6, 106366, Note_off_c, 4, 81, 64
6, 106420, Note_off_c, 4, 79, 64
6, 106426, Note_on_c, 4, 77, 53
6, 106484, Note_on_c, 4, 76, 55
6, 106488, Note_off_c, 4, 77, 64
6, 106532, Note_off_c, 4, 76, 64
6, 106546, Note_on_c, 4, 74, 80
6, 106606, Note_on_c, 4, 77, 63
6, 106615, Note_off_c, 4, 74, 64
6, 106672, Note_on_c, 4, 76, 49
6, 106673, Note_off_c, 4, 77, 64
6, 106732, Note_on_c, 4, 77, 59
6, 106736, Note_off_c, 4, 76, 64
6, 106791, Note_off_c, 4, 77, 64
6, 106791, Note_on_c, 4, 79, 68
6, 106848, Note_on_c, 4, 77, 66
6, 106853, Note_off_c, 4, 79, 64
6, 106912, Note_on_c, 4, 76, 60
6, 106915, Note_off_c, 4, 77, 64
6, 106973, Note_on_c, 4, 74, 58
6, 106974, Note_off_c, 4, 76, 64
6, 107018, Note_off_c, 4, 74, 64
6, 107034, Note_on_c, 4, 72, 78
6, 107092, Note_on_c, 4, 76, 68
6, 107096, Note_off_c, 4, 72, 64
6, 107155, Note_on_c, 4, 74, 52
6, 107157, Note_off_c, 4, 76, 64
6, 107216, Note_off_c, 4, 74, 64
6, 107216, Note_on_c, 4, 76, 55
6, 107272, Note_off_c, 4, 76, 64
6, 107273, Note_on_c, 4, 77, 61
6, 107331, Note_off_c, 4, 77, 64
6, 107332, Note_on_c, 4, 76, 66
6, 107388, Note_off_c, 4, 76, 64
6, 107396, Note_on_c, 4, 74, 47
6, 107446, Note_off_c, 4, 74, 64
6, 107450, Note_on_c, 4, 72, 46
6, 107504, Note_off_c, 4, 72, 64
6, 107512, Note_on_c, 4, 71, 76
6, 107571, Note_on_c, 4, 74, 68
6, 107581, Note_off_c, 4, 71, 64
6, 107635, Note_off_c, 4, 74, 64
6, 107637, Note_on_c, 4, 72, 44
6, 107693, Note_off_c, 4, 72, 64
6, 107695, Note_on_c, 4, 74, 57
6, 107751, Note_off_c, 4, 74, 64
6, 107752, Note_on_c, 4, 76, 63
6, 107805, Note_on_c, 4, 74, 64
6, 107811, Note_off_c, 4, 76, 64
6, 107866, Note_off_c, 4, 74, 64
6, 107868, Note_on_c, 4, 72, 58
6, 107922, Note_off_c, 4, 72, 64
6, 107923, Note_on_c, 4, 71, 54
6, 107983, Note_off_c, 4, 71, 64
6, 107989, Note_on_c, 4, 69, 68
6, 108050, Note_on_c, 4, 72, 64
6, 108051, Note_off_c, 4, 69, 64
6, 108106, Note_off_c, 4, 72, 64
6, 108108, Note_on_c, 4, 71, 43
6, 108162, Note_on_c, 4, 72, 60
6, 108165, Note_off_c, 4, 71, 64
6, 108212, Note_off_c, 4, 72, 64
6, 108224, Note_on_c, 4, 74, 66
6, 108281, Note_on_c, 4, 72, 64
6, 108288, Note_off_c, 4, 74, 64
6, 108344, Note_on_c, 4, 71, 54
6, 108348, Note_off_c, 4, 72, 64
6, 108390, Note_off_c, 4, 71, 64
6, 108398, Note_on_c, 4, 69, 63
6, 108447, Note_off_c, 4, 69, 64
6, 108466, Note_on_c, 4, 71, 68
6, 108527, Note_off_c, 4, 71, 64
6, 108591, Note_on_c, 4, 79, 87
6, 108633, Note_off_c, 4, 79, 64
6, 108713, Note_on_c, 4, 79, 87
6, 108752, Note_off_c, 4, 79, 64
6, 108838, Note_on_c, 4, 79, 87
6, 108872, Note_off_c, 4, 79, 64
6, 108953, Note_on_c, 4, 76, 82
6, 109064, Note_off_c, 4, 76, 64
6, 109076, Note_on_c, 4, 77, 74
6, 109129, Note_on_c, 4, 79, 72
6, 109134, Note_off_c, 4, 77, 64
6, 109182, Note_off_c, 4, 79, 64
6, 109193, Note_on_c, 4, 81, 82
6, 109232, Note_off_c, 4, 81, 64
6, 109314, Note_on_c, 4, 77, 82
6, 109355, Note_off_c, 4, 77, 64
6, 109433, Note_on_c, 4, 74, 80
6, 109476, Note_off_c, 4, 74, 64
6, 109553, Note_on_c, 4, 79, 85
6, 109592, Note_off_c, 4, 79, 64
6, 109672, Note_on_c, 4, 67, 80
6, 109726, Note_off_c, 4, 67, 64
6, 109795, Note_on_c, 4, 77, 85
6, 109837, Note_off_c, 4, 77, 64
6, 109911, Note_on_c, 4, 76, 80
6, 110056, Note_off_c, 4, 76, 64
6, 110097, Note_on_c, 4, 74, 60
6, 110124, Note_off_c, 4, 74, 64
6, 110153, Note_on_c, 4, 76, 82
6, 110173, Note_on_c, 4, 74, 63
6, 110176, Note_off_c, 4, 76, 64
6, 110202, Note_on_c, 4, 76, 82
6, 110215, Note_off_c, 4, 74, 64
6, 110225, Note_on_c, 4, 74, 40
6, 110240, Note_off_c, 4, 76, 64
6, 110283, Note_off_c, 4, 74, 64
6, 110323, Note_on_c, 4, 72, 70
6, 110354, Note_off_c, 4, 72, 64
6, 110392, Note_on_c, 4, 72, 76
6, 110641, Note_off_c, 4, 72, 64
6, 124016, Note_on_c, 4, 74, 78
6, 124059, Note_off_c, 4, 74, 64
6, 124077, Note_on_c, 4, 76, 91
6, 124149, Note_off_c, 4, 76, 64
6, 124244, Note_on_c, 4, 77, 78
6, 124280, Note_off_c, 4, 77, 64
6, 124314, Note_on_c, 4, 76, 82
6, 124381, Note_on_c, 4, 74, 52
6, 124389, Note_off_c, 4, 76, 64
6, 124414, Note_off_c, 4, 74, 64
6, 124414, Note_on_c, 4, 76, 62
6, 124440, Note_on_c, 4, 74, 55
6, 124442, Note_off_c, 4, 76, 64
6, 124458, Note_off_c, 4, 74, 64
6, 124462, Note_on_c, 4, 76, 64
6, 124481, Note_off_c, 4, 76, 64
6, 124481, Note_on_c, 4, 74, 68
6, 124496, Note_off_c, 4, 74, 64
6, 124501, Note_on_c, 4, 76, 70
6, 124514, Note_on_c, 4, 74, 68
6, 124517, Note_off_c, 4, 76, 64
6, 124532, Note_off_c, 4, 74, 64
6, 124533, Note_on_c, 4, 76, 85
6, 124551, Note_on_c, 4, 74, 82
6, 124553, Note_off_c, 4, 76, 64
6, 124660, Note_off_c, 4, 74, 64
6, 124726, Note_on_c, 4, 72, 82
6, 124764, Note_off_c, 4, 72, 64
6, 124801, Note_on_c, 4, 72, 89
6, 124838, Note_off_c, 4, 72, 64
6, 149816, Note_on_c, 4, 84, 66
6, 149858, Note_off_c, 4, 84, 64
6, 149874, Note_on_c, 4, 83, 74
6, 149917, Note_off_c, 4, 83, 64
6, 149934, Note_on_c, 4, 81, 56
6, 149984, Note_off_c, 4, 81, 64
6, 149995, Note_on_c, 4, 79, 59
6, 150038, Note_off_c, 4, 79, 64
6, 150055, Note_on_c, 4, 78, 55
6, 150099, Note_off_c, 4, 78, 64
6, 150118, Note_on_c, 4, 79, 64
6, 150150, Note_off_c, 4, 79, 64
6, 150168, Note_on_c, 4, 76, 51
6, 150215, Note_off_c, 4, 76, 64
6, 150233, Note_on_c, 4, 81, 72
6, 150286, Note_off_c, 4, 81, 64
6, 150292, Note_on_c, 4, 83, 62
6, 150334, Note_off_c, 4, 83, 64
6, 150350, Note_on_c, 4, 81, 57
6, 150399, Note_off_c, 4, 81, 64
6, 150405, Note_on_c, 4, 79, 57
6, 150445, Note_off_c, 4, 79, 64
6, 150469, Note_on_c, 4, 78, 60
6, 150518, Note_off_c, 4, 78, 64
6, 150527, Note_on_c, 4, 76, 61
6, 150571, Note_off_c, 4, 76, 64
6, 150582, Note_on_c, 4, 78, 66
6, 150628, Note_off_c, 4, 78, 64
6, 150650, Note_on_c, 4, 71, 46
6, 150686, Note_off_c, 4, 71, 64
6, 150713, Note_on_c, 4, 79, 70
6, 151422, Note_off_c, 4, 79, 64
6, 151736, Note_on_c, 4, 82, 64
6, 151783, Note_off_c, 4, 82, 64
6, 151795, Note_on_c, 4, 81, 62
6, 151845, Note_off_c, 4, 81, 64
6, 151853, Note_on_c, 4, 79, 57
6, 151911, Note_off_c, 4, 79, 64
6, 151916, Note_on_c, 4, 77, 66
6, 151957, Note_off_c, 4, 77, 64
6, 151975, Note_on_c, 4, 76, 60
6, 152024, Note_off_c, 4, 76, 64
6, 152030, Note_on_c, 4, 77, 62
6, 152083, Note_off_c, 4, 77, 64
6, 152086, Note_on_c, 4, 74, 70
6, 152130, Note_off_c, 4, 74, 64
6, 152150, Note_on_c, 4, 79, 74
6, 152200, Note_off_c, 4, 79, 64
6, 152207, Note_on_c, 4, 81, 59
6, 152252, Note_off_c, 4, 81, 64
6, 152264, Note_on_c, 4, 79, 59
6, 152303, Note_off_c, 4, 79, 64
6, 152319, Note_on_c, 4, 77, 62
6, 152364, Note_off_c, 4, 77, 64
6, 152384, Note_on_c, 4, 76, 63
6, 152435, Note_off_c, 4, 76, 64
6, 152444, Note_on_c, 4, 74, 63
6, 152480, Note_off_c, 4, 74, 64
6, 152501, Note_on_c, 4, 76, 63
6, 152549, Note_off_c, 4, 76, 64
6, 152557, Note_on_c, 4, 69, 66
6, 152604, Note_off_c, 4, 69, 64
6, 152624, Note_on_c, 4, 77, 58
6, 153350, Note_off_c, 4, 77, 64
6, 153641, Note_on_c, 4, 81, 70
6, 153686, Note_off_c, 4, 81, 64
6, 153701, Note_on_c, 4, 79, 61
6, 153743, Note_off_c, 4, 79, 64
6, 153759, Note_on_c, 4, 77, 57
6, 153813, Note_off_c, 4, 77, 64
6, 153823, Note_on_c, 4, 76, 61
6, 153863, Note_off_c, 4, 76, 64
6, 153879, Note_on_c, 4, 74, 63
6, 153925, Note_off_c, 4, 74, 64
6, 153941, Note_on_c, 4, 76, 68
6, 153987, Note_off_c, 4, 76, 64
6, 153995, Note_on_c, 4, 72, 57
6, 154032, Note_off_c, 4, 72, 64
6, 154056, Note_on_c, 4, 77, 82
6, 154105, Note_off_c, 4, 77, 64
6, 154112, Note_on_c, 4, 79, 68
6, 154168, Note_off_c, 4, 79, 64
6, 154176, Note_on_c, 4, 77, 64
6, 154225, Note_off_c, 4, 77, 64
6, 154238, Note_on_c, 4, 76, 59
6, 154283, Note_off_c, 4, 76, 64
6, 154301, Note_on_c, 4, 74, 66
6, 154350, Note_off_c, 4, 74, 64
6, 154360, Note_on_c, 4, 72, 58
6, 154414, Note_off_c, 4, 72, 64
6, 154421, Note_on_c, 4, 74, 59
6, 154468, Note_off_c, 4, 74, 64
6, 154481, Note_on_c, 4, 67, 68
6, 154539, Note_off_c, 4, 67, 64
6, 154546, Note_on_c, 4, 76, 72
6, 154601, Note_on_c, 4, 74, 55
6, 154603, Note_off_c, 4, 76, 64
6, 154658, Note_off_c, 4, 74, 64
6, 154669, Note_on_c, 4, 72, 58
6, 154731, Note_on_c, 4, 74, 53
6, 154734, Note_off_c, 4, 72, 64
6, 154786, Note_off_c, 4, 74, 64
6, 154804, Note_on_c, 4, 76, 78
6, 154845, Note_off_c, 4, 76, 64
6, 154855, Note_on_c, 4, 74, 70
6, 154903, Note_off_c, 4, 74, 64
6, 154917, Note_on_c, 4, 76, 55
6, 154967, Note_off_c, 4, 76, 64
6, 154968, Note_on_c, 4, 78, 64
6, 155006, Note_off_c, 4, 78, 64
6, 155030, Note_on_c, 4, 79, 70
6, 155161, Note_off_c, 4, 79, 64
6, 155212, Note_on_c, 4, 74, 63
6, 155241, Note_off_c, 4, 74, 64
6, 155271, Note_on_c, 4, 79, 82
6, 155394, Note_off_c, 4, 79, 64
6, 155457, Note_on_c, 4, 79, 60
6, 155484, Note_off_c, 4, 79, 64
6, 155514, Note_on_c, 4, 79, 82
6, 155619, Note_off_c, 4, 79, 64
6, 155670, Note_on_c, 4, 78, 60
6, 155705, Note_off_c, 4, 78, 64
6, 155705, Note_on_c, 4, 76, 62
6, 155732, Note_on_c, 4, 78, 54
6, 155744, Note_off_c, 4, 76, 64
6, 155753, Note_off_c, 4, 78, 64
6, 155758, Note_on_c, 4, 79, 66
6, 155783, Note_on_c, 4, 78, 62
6, 155790, Note_off_c, 4, 79, 64
6, 155808, Note_on_c, 4, 79, 70
6, 155810, Note_off_c, 4, 78, 64
6, 155831, Note_on_c, 4, 78, 64
6, 155849, Note_off_c, 4, 79, 64
6, 155886, Note_off_c, 4, 78, 64
6, 155924, Note_on_c, 4, 79, 66
6, 155955, Note_off_c, 4, 79, 64
6, 155992, Note_on_c, 4, 79, 68
6, 156251, Note_off_c, 4, 79, 64
6, 156358, Note_on_c, 4, 76, 76
6, 156499, Note_off_c, 4, 76, 64
6, 156526, Note_on_c, 4, 79, 80
6, 156574, Note_off_c, 4, 79, 64
6, 156585, Note_on_c, 4, 78, 68
6, 156640, Note_off_c, 4, 78, 64
6, 156640, Note_on_c, 4, 76, 66
6, 156696, Note_off_c, 4, 76, 64
6, 156701, Note_on_c, 4, 74, 62
6, 156740, Note_off_c, 4, 74, 64
6, 156756, Note_on_c, 4, 72, 54
6, 156810, Note_off_c, 4, 72, 64
6, 156817, Note_on_c, 4, 71, 58
6, 156863, Note_off_c, 4, 71, 64
6, 156870, Note_on_c, 4, 69, 66
6, 156907, Note_off_c, 4, 69, 64
6, 156938, Note_on_c, 4, 67, 72
6, 156983, Note_off_c, 4, 67, 64
6, 156996, Note_on_c, 4, 71, 68
6, 157054, Note_off_c, 4, 71, 64
6, 157060, Note_on_c, 4, 69, 57
6, 157101, Note_off_c, 4, 69, 64
6, 157115, Note_on_c, 4, 67, 52
6, 157148, Note_off_c, 4, 67, 64
6, 157174, Note_on_c, 4, 72, 78
6, 157227, Note_off_c, 4, 72, 64
6, 157233, Note_on_c, 4, 76, 66
6, 157274, Note_off_c, 4, 76, 64
6, 157289, Note_on_c, 4, 74, 68
6, 157333, Note_off_c, 4, 74, 64
6, 157351, Note_on_c, 4, 72, 56
6, 157381, Note_off_c, 4, 72, 64
6, 157418, Note_on_c, 4, 81, 70
6, 157483, Note_off_c, 4, 81, 64
6, 157550, Note_on_c, 4, 74, 74
6, 157594, Note_off_c, 4, 74, 64
6, 157678, Note_on_c, 4, 79, 78
6, 157830, Note_off_c, 4, 79, 64
6, 157865, Note_on_c, 4, 79, 82
6, 157894, Note_off_c, 4, 79, 64
6, 157926, Note_on_c, 4, 79, 87
6, 157969, Note_off_c, 4, 79, 64
6, 157982, Note_on_c, 4, 78, 91
6, 158018, Note_off_c, 4, 78, 64
6, 158043, Note_on_c, 4, 79, 82
6, 158078, Note_off_c, 4, 79, 64
6, 158096, Note_on_c, 4, 76, 72
6, 158126, Note_off_c, 4, 76, 64
6, 158156, Note_on_c, 4, 78, 64
6, 158300, Note_off_c, 4, 78, 64
6, 158329, Note_on_c, 4, 78, 82
6, 158356, Note_off_c, 4, 78, 64
6, 158386, Note_on_c, 4, 78, 85
6, 158423, Note_off_c, 4, 78, 64
6, 158513, Note_on_c, 4, 71, 68
6, 158555, Note_off_c, 4, 71, 64
6, 158636, Note_on_c, 4, 76, 82
6, 158783, Note_off_c, 4, 76, 64
6, 158818, Note_on_c, 4, 76, 68
6, 158845, Note_off_c, 4, 76, 64
6, 158878, Note_on_c, 4, 76, 76
6, 158915, Note_off_c, 4, 76, 64
6, 158938, Note_on_c, 4, 74, 82
6, 158973, Note_off_c, 4, 74, 64
6, 158996, Note_on_c, 4, 76, 72
6, 159026, Note_off_c, 4, 76, 64
6, 159047, Note_on_c, 4, 72, 64
6, 159079, Note_off_c, 4, 72, 64
6, 159111, Note_on_c, 4, 74, 70
6, 159248, Note_off_c, 4, 74, 64
6, 159280, Note_on_c, 4, 74, 70
6, 159313, Note_off_c, 4, 74, 64
6, 159344, Note_on_c, 4, 74, 76
6, 159377, Note_off_c, 4, 74, 64
6, 159463, Note_on_c, 4, 67, 70
6, 159509, Note_off_c, 4, 67, 64
6, 159596, Note_on_c, 4, 72, 66
6, 159724, Note_off_c, 4, 72, 64
6, 159775, Note_on_c, 4, 72, 70
6, 159800, Note_off_c, 4, 72, 64
6, 159837, Note_on_c, 4, 72, 70
6, 159875, Note_off_c, 4, 72, 64
6, 159894, Note_on_c, 4, 76, 70
6, 159933, Note_off_c, 4, 76, 64
6, 159955, Note_on_c, 4, 74, 70
6, 160005, Note_off_c, 4, 74, 64
6, 160012, Note_on_c, 4, 72, 58
6, 160065, Note_off_c, 4, 72, 64
6, 160072, Note_on_c, 4, 71, 70
6, 160114, Note_off_c, 4, 71, 64
6, 160122, Note_on_c, 4, 69, 60
6, 160167, Note_off_c, 4, 69, 64
6, 160185, Note_on_c, 4, 67, 63
6, 160237, Note_on_c, 4, 66, 60
6, 160240, Note_off_c, 4, 67, 64
6, 160283, Note_off_c, 4, 66, 64
6, 160298, Note_on_c, 4, 67, 68
6, 160359, Note_off_c, 4, 67, 64
6, 160367, Note_on_c, 4, 71, 66
6, 160409, Note_off_c, 4, 71, 64
6, 160433, Note_on_c, 4, 76, 66
6, 160484, Note_off_c, 4, 76, 64
6, 160492, Note_on_c, 4, 74, 66
6, 160539, Note_off_c, 4, 74, 64
6, 160555, Note_on_c, 4, 72, 61
6, 160597, Note_off_c, 4, 72, 64
6, 160607, Note_on_c, 4, 71, 52
6, 160659, Note_off_c, 4, 71, 64
6, 160673, Note_on_c, 4, 69, 57
6, 160725, Note_on_c, 4, 67, 63
6, 160737, Note_off_c, 4, 69, 64
6, 160747, Note_off_c, 4, 67, 64
6, 160792, Note_on_c, 4, 78, 89
6, 160843, Note_off_c, 4, 78, 64
6, 160850, Note_on_c, 4, 76, 60
6, 160892, Note_off_c, 4, 76, 64
6, 160910, Note_on_c, 4, 74, 57
6, 160954, Note_off_c, 4, 74, 64
6, 160968, Note_on_c, 4, 76, 56
6, 161004, Note_off_c, 4, 76, 64
6, 161026, Note_on_c, 4, 78, 78
6, 161074, Note_off_c, 4, 78, 64
6, 161079, Note_on_c, 4, 76, 57
6, 161121, Note_off_c, 4, 76, 64
6, 161141, Note_on_c, 4, 78, 72
6, 161186, Note_off_c, 4, 78, 64
6, 161199, Note_on_c, 4, 74, 60
6, 161236, Note_off_c, 4, 74, 64
6, 161266, Note_on_c, 4, 79, 80
6, 161388, Note_off_c, 4, 79, 64
6, 161442, Note_on_c, 4, 81, 66
6, 161468, Note_off_c, 4, 81, 64
6, 161511, Note_on_c, 4, 79, 82
6, 161536, Note_on_c, 4, 78, 72
6, 161540, Note_off_c, 4, 79, 64
6, 161559, Note_on_c, 4, 79, 60
6, 161561, Note_off_c, 4, 78, 64
6, 161587, Note_on_c, 4, 78, 64
6, 161598, Note_off_c, 4, 79, 64
6, 161639, Note_off_c, 4, 78, 64
6, 161687, Note_on_c, 4, 79, 62
6, 161712, Note_off_c, 4, 79, 64
6, 161754, Note_on_c, 4, 79, 76
6, 162007, Note_off_c, 4, 79, 64
6, 179399, Note_on_c, 4, 81, 85
6, 179554, Note_off_c, 4, 81, 64
6, 179574, Note_on_c, 4, 84, 78
6, 179624, Note_off_c, 4, 84, 64
6, 179632, Note_on_c, 4, 83, 70
6, 179678, Note_off_c, 4, 83, 64
6, 179692, Note_on_c, 4, 81, 80
6, 179748, Note_off_c, 4, 81, 64
6, 179750, Note_on_c, 4, 79, 64
6, 179807, Note_off_c, 4, 79, 64
6, 179807, Note_on_c, 4, 77, 68
6, 179854, Note_off_c, 4, 77, 64
6, 179871, Note_on_c, 4, 76, 59
6, 179920, Note_off_c, 4, 76, 64
6, 179930, Note_on_c, 4, 74, 48
6, 179979, Note_off_c, 4, 74, 64
6, 179992, Note_on_c, 4, 72, 57
6, 180039, Note_off_c, 4, 72, 64
6, 180047, Note_on_c, 4, 76, 57
6, 180101, Note_off_c, 4, 76, 64
6, 180106, Note_on_c, 4, 74, 53
6, 180155, Note_off_c, 4, 74, 64
6, 180160, Note_on_c, 4, 72, 63
6, 180205, Note_off_c, 4, 72, 64
6, 180229, Note_on_c, 4, 77, 82
6, 180372, Note_off_c, 4, 77, 64
6, 180414, Note_on_c, 4, 77, 89
6, 180445, Note_off_c, 4, 77, 64
6, 180472, Note_on_c, 4, 77, 93
6, 180533, Note_off_c, 4, 77, 64
6, 180533, Note_on_c, 4, 76, 85
6, 180583, Note_off_c, 4, 76, 64
6, 180591, Note_on_c, 4, 74, 64
6, 180642, Note_off_c, 4, 74, 64
6, 180648, Note_on_c, 4, 76, 59
6, 180682, Note_off_c, 4, 76, 64
6, 180718, Note_on_c, 4, 77, 74
6, 180746, Note_on_c, 4, 76, 80
6, 180749, Note_off_c, 4, 77, 64
6, 180776, Note_on_c, 4, 77, 70
6, 180777, Note_off_c, 4, 76, 64
6, 180800, Note_on_c, 4, 76, 80
6, 180814, Note_off_c, 4, 77, 64
6, 180865, Note_off_c, 4, 76, 64
6, 180893, Note_on_c, 4, 76, 87
6, 180928, Note_off_c, 4, 76, 64
6, 180954, Note_on_c, 4, 76, 89
6, 180996, Note_off_c, 4, 76, 64
6, 181010, Note_on_c, 4, 69, 66
6, 181064, Note_off_c, 4, 69, 64
6, 181068, Note_on_c, 4, 71, 53
6, 181108, Note_off_c, 4, 71, 64
6, 181123, Note_on_c, 4, 72, 68
6, 181163, Note_off_c, 4, 72, 64
6, 181194, Note_on_c, 4, 74, 74
6, 181337, Note_off_c, 4, 74, 64
6, 181371, Note_on_c, 4, 74, 89
6, 181408, Note_off_c, 4, 74, 64
6, 181439, Note_on_c, 4, 74, 87
6, 181496, Note_off_c, 4, 74, 64
6, 181496, Note_on_c, 4, 72, 80
6, 181544, Note_off_c, 4, 72, 64
6, 181553, Note_on_c, 4, 74, 66
6, 181613, Note_on_c, 4, 71, 68
6, 181616, Note_off_c, 4, 74, 64
6, 181655, Note_off_c, 4, 71, 64
6, 181675, Note_on_c, 4, 72, 85
6, 181729, Note_off_c, 4, 72, 64
6, 181733, Note_on_c, 4, 76, 70
6, 181784, Note_off_c, 4, 76, 64
6, 181791, Note_on_c, 4, 74, 54
6, 181851, Note_off_c, 4, 74, 64
6, 181851, Note_on_c, 4, 76, 66
6, 181894, Note_off_c, 4, 76, 64
6, 181914, Note_on_c, 4, 77, 85
6, 181975, Note_on_c, 4, 79, 74
6, 181976, Note_off_c, 4, 77, 64
6, 182032, Note_on_c, 4, 77, 66
6, 182034, Note_off_c, 4, 79, 64
6, 182089, Note_off_c, 4, 77, 64
6, 182089, Note_on_c, 4, 76, 66
6, 182137, Note_off_c, 4, 76, 64
6, 182152, Note_on_c, 4, 74, 87
6, 182202, Note_off_c, 4, 74, 64
6, 182205, Note_on_c, 4, 72, 68
6, 182252, Note_off_c, 4, 72, 64
6, 182266, Note_on_c, 4, 74, 62
6, 182325, Note_on_c, 4, 71, 64
6, 182330, Note_off_c, 4, 74, 64
6, 182377, Note_off_c, 4, 71, 64
6, 182389, Note_on_c, 4, 72, 64
6, 182449, Note_on_c, 4, 74, 68
6, 182456, Note_off_c, 4, 72, 64
6, 182515, Note_on_c, 4, 76, 68
6, 182528, Note_off_c, 4, 74, 64
6, 182564, Note_off_c, 4, 76, 64
6, 182573, Note_on_c, 4, 77, 78
6, 182631, Note_off_c, 4, 77, 64
6, 182632, Note_on_c, 4, 79, 55
6, 182689, Note_off_c, 4, 79, 64
6, 182692, Note_on_c, 4, 81, 68
6, 182751, Note_off_c, 4, 81, 64
6, 182751, Note_on_c, 4, 82, 64
6, 182807, Note_on_c, 4, 79, 58
6, 182811, Note_off_c, 4, 82, 64
6, 182845, Note_off_c, 4, 79, 64
6, 182872, Note_on_c, 4, 81, 87
6, 182928, Note_on_c, 4, 82, 74
6, 182936, Note_off_c, 4, 81, 64
6, 182975, Note_off_c, 4, 82, 64
6, 182989, Note_on_c, 4, 81, 76
6, 183043, Note_on_c, 4, 79, 72
6, 183053, Note_off_c, 4, 81, 64
6, 183104, Note_off_c, 4, 79, 64
6, 183105, Note_on_c, 4, 77, 66
6, 183158, Note_off_c, 4, 77, 64
6, 183158, Note_on_c, 4, 76, 66
6, 183217, Note_off_c, 4, 76, 64
6, 183217, Note_on_c, 4, 74, 62
6, 183267, Note_off_c, 4, 74, 64
6, 183272, Note_on_c, 4, 72, 74
6, 183318, Note_off_c, 4, 72, 64
6, 183338, Note_on_c, 4, 71, 62
6, 183526, Note_off_c, 4, 71, 64
6, 183887, Note_on_c, 4, 81, 82
6, 183947, Note_on_c, 4, 79, 70
6, 183951, Note_off_c, 4, 81, 64
6, 183998, Note_off_c, 4, 79, 64
6, 184005, Note_on_c, 4, 77, 68
6, 184059, Note_off_c, 4, 77, 64
6, 184062, Note_on_c, 4, 76, 63
6, 184112, Note_off_c, 4, 76, 64
6, 184116, Note_on_c, 4, 74, 68
6, 184172, Note_off_c, 4, 74, 64
6, 184182, Note_on_c, 4, 76, 53
6, 184240, Note_off_c, 4, 76, 64
6, 184244, Note_on_c, 4, 72, 63
6, 184288, Note_off_c, 4, 72, 64
6, 184305, Note_on_c, 4, 77, 82
6, 184364, Note_on_c, 4, 79, 80
6, 184371, Note_off_c, 4, 77, 64
6, 184419, Note_off_c, 4, 79, 64
6, 184427, Note_on_c, 4, 77, 74
6, 184479, Note_off_c, 4, 77, 64
6, 184487, Note_on_c, 4, 76, 70
6, 184539, Note_off_c, 4, 76, 64
6, 184551, Note_on_c, 4, 74, 76
6, 184603, Note_off_c, 4, 74, 64
6, 184605, Note_on_c, 4, 72, 76
6, 184658, Note_off_c, 4, 72, 64
6, 184669, Note_on_c, 4, 74, 70
6, 184723, Note_off_c, 4, 74, 64
6, 184727, Note_on_c, 4, 67, 74
6, 184782, Note_off_c, 4, 67, 64
6, 184798, Note_on_c, 4, 76, 76
6, 184854, Note_on_c, 4, 74, 68
6, 184865, Note_off_c, 4, 76, 64
6, 184917, Note_on_c, 4, 72, 66
6, 184919, Note_off_c, 4, 74, 64
6, 184968, Note_off_c, 4, 72, 64
6, 184972, Note_on_c, 4, 74, 63
6, 185025, Note_off_c, 4, 74, 64
6, 185035, Note_on_c, 4, 76, 68
6, 185081, Note_off_c, 4, 76, 64
6, 185090, Note_on_c, 4, 74, 70
6, 185138, Note_off_c, 4, 74, 64
6, 185154, Note_on_c, 4, 76, 61
6, 185208, Note_off_c, 4, 76, 64
6, 185209, Note_on_c, 4, 78, 55
6, 185254, Note_off_c, 4, 78, 64
6, 185272, Note_on_c, 4, 79, 82
6, 185400, Note_off_c, 4, 79, 64
6, 185455, Note_on_c, 4, 74, 68
6, 185494, Note_off_c, 4, 74, 64
6, 185515, Note_on_c, 4, 79, 87
6, 185638, Note_off_c, 4, 79, 64
6, 185696, Note_on_c, 4, 79, 82
6, 185728, Note_off_c, 4, 79, 64
6, 185750, Note_on_c, 4, 79, 89
6, 185864, Note_off_c, 4, 79, 64
6, 185916, Note_on_c, 4, 78, 57
6, 185942, Note_on_c, 4, 76, 66
6, 185950, Note_off_c, 4, 78, 64
6, 185972, Note_on_c, 4, 78, 58
6, 185985, Note_off_c, 4, 76, 64
6, 186003, Note_off_c, 4, 78, 64
6, 186007, Note_on_c, 4, 79, 80
6, 186032, Note_on_c, 4, 78, 68
6, 186043, Note_off_c, 4, 79, 64
6, 186060, Note_on_c, 4, 79, 82
6, 186063, Note_off_c, 4, 78, 64
6, 186077, Note_on_c, 4, 78, 66
6, 186098, Note_off_c, 4, 79, 64
6, 186126, Note_off_c, 4, 78, 64
6, 186164, Note_on_c, 4, 79, 68
6, 186198, Note_off_c, 4, 79, 64
6, 186229, Note_on_c, 4, 79, 87
6, 186324, Note_off_c, 4, 79, 64
6, 186348, Note_on_c, 4, 77, 64
6, 186392, Note_off_c, 4, 77, 64
6, 186399, Note_on_c, 4, 76, 66
6, 186450, Note_off_c, 4, 76, 64
6, 186455, Note_on_c, 4, 74, 64
6, 186495, Note_off_c, 4, 74, 64
6, 186512, Note_on_c, 4, 71, 60
6, 186568, Note_off_c, 4, 71, 64
6, 186578, Note_on_c, 4, 72, 58
6, 186622, Note_off_c, 4, 72, 64
6, 186636, Note_on_c, 4, 74, 74
6, 186682, Note_off_c, 4, 74, 64
6, 186702, Note_on_c, 4, 67, 61
6, 186761, Note_off_c, 4, 67, 64
6, 186833, Note_on_c, 4, 79, 80
6, 186876, Note_off_c, 4, 79, 64
6, 186951, Note_on_c, 4, 76, 78
6, 186997, Note_off_c, 4, 76, 64
6, 187074, Note_on_c, 4, 81, 85
6, 187123, Note_off_c, 4, 81, 64
6, 187196, Note_on_c, 4, 77, 95
6, 187255, Note_on_c, 4, 79, 82
6, 187256, Note_off_c, 4, 77, 64
6, 187299, Note_off_c, 4, 79, 64
6, 187316, Note_on_c, 4, 77, 70
6, 187370, Note_off_c, 4, 77, 64
6, 187376, Note_on_c, 4, 76, 66
6, 187434, Note_off_c, 4, 76, 64
6, 187438, Note_on_c, 4, 74, 70
6, 187496, Note_off_c, 4, 74, 64
6, 187498, Note_on_c, 4, 77, 66
6, 187562, Note_on_c, 4, 76, 59
6, 187566, Note_off_c, 4, 77, 64
6, 187617, Note_on_c, 4, 74, 64
6, 187619, Note_off_c, 4, 76, 64
6, 187660, Note_off_c, 4, 74, 64
6, 187683, Note_on_c, 4, 79, 85
6, 187737, Note_on_c, 4, 77, 72
6, 187742, Note_off_c, 4, 79, 64
6, 187799, Note_off_c, 4, 77, 64
6, 187800, Note_on_c, 4, 76, 58
6, 187858, Note_on_c, 4, 74, 59
6, 187865, Note_off_c, 4, 76, 64
6, 187921, Note_off_c, 4, 74, 64
6, 187921, Note_on_c, 4, 72, 59
6, 187962, Note_off_c, 4, 72, 64
6, 187978, Note_on_c, 4, 71, 57
6, 188024, Note_off_c, 4, 71, 64
6, 188038, Note_on_c, 4, 72, 63
6, 188085, Note_off_c, 4, 72, 64
6, 188097, Note_on_c, 4, 69, 57
6, 188142, Note_off_c, 4, 69, 64
6, 188161, Note_on_c, 4, 74, 85
6, 188251, Note_off_c, 4, 74, 64
6, 188272, Note_on_c, 4, 76, 76
6, 188324, Note_off_c, 4, 76, 64
6, 188331, Note_on_c, 4, 78, 60
6, 188379, Note_off_c, 4, 78, 64
6, 188399, Note_on_c, 4, 79, 87
6, 188486, Note_off_c, 4, 79, 64
6, 188517, Note_on_c, 4, 81, 64
6, 188558, Note_off_c, 4, 81, 64
6, 188569, Note_on_c, 4, 83, 80
6, 188609, Note_off_c, 4, 83, 64
6, 188635, Note_on_c, 4, 84, 87
6, 188762, Note_off_c, 4, 84, 64
6, 188808, Note_on_c, 4, 83, 78
6, 188834, Note_off_c, 4, 83, 64
6, 188865, Note_on_c, 4, 83, 85
6, 188889, Note_off_c, 4, 83, 64
6, 188893, Note_on_c, 4, 81, 64
6, 188915, Note_on_c, 4, 83, 80
6, 188924, Note_off_c, 4, 81, 64
6, 188945, Note_on_c, 4, 81, 66
6, 188955, Note_off_c, 4, 83, 64
6, 189008, Note_off_c, 4, 81, 64
6, 189042, Note_on_c, 4, 79, 63
6, 189077, Note_off_c, 4, 79, 64
6, 189112, Note_on_c, 4, 79, 80
6, 189223, Note_off_c, 4, 79, 64
6, 189236, Note_on_c, 4, 77, 68
6, 189287, Note_off_c, 4, 77, 64
6, 189287, Note_on_c, 4, 76, 64
6, 189323, Note_off_c, 4, 76, 64
6, 189348, Note_on_c, 4, 74, 60
6, 189402, Note_off_c, 4, 74, 64
6, 189408, Note_on_c, 4, 76, 64
6, 189458, Note_off_c, 4, 76, 64
6, 189466, Note_on_c, 4, 77, 66
6, 189516, Note_off_c, 4, 77, 64
6, 189523, Note_on_c, 4, 74, 61
6, 189569, Note_off_c, 4, 74, 64
6, 189594, Note_on_c, 4, 76, 80
6, 189643, Note_off_c, 4, 76, 64
6, 189718, Note_on_c, 4, 72, 80
6, 189754, Note_off_c, 4, 72, 64
6, 189838, Note_on_c, 4, 84, 72
6, 189983, Note_off_c, 4, 84, 64
6, 190028, Note_on_c, 4, 84, 76
6, 190059, Note_off_c, 4, 84, 64
6, 190088, Note_on_c, 4, 84, 95
6, 190137, Note_off_c, 4, 84, 64
6, 190143, Note_on_c, 4, 82, 78
6, 190185, Note_off_c, 4, 82, 64
6, 190200, Note_on_c, 4, 84, 68
6, 190244, Note_off_c, 4, 84, 64
6, 190255, Note_on_c, 4, 81, 63
6, 190296, Note_off_c, 4, 81, 64
6, 190318, Note_on_c, 4, 82, 63
6, 190455, Note_off_c, 4, 82, 64
6, 190498, Note_on_c, 4, 82, 66
6, 190527, Note_off_c, 4, 82, 64
6, 190553, Note_on_c, 4, 82, 98
6, 190596, Note_off_c, 4, 82, 64
6, 190682, Note_on_c, 4, 76, 74
6, 190726, Note_off_c, 4, 76, 64
6, 190807, Note_on_c, 4, 81, 82
6, 190954, Note_off_c, 4, 81, 64
6, 190980, Note_on_c, 4, 81, 74
6, 191014, Note_off_c, 4, 81, 64
6, 191042, Note_on_c, 4, 81, 93
6, 191091, Note_off_c, 4, 81, 64
6, 191097, Note_on_c, 4, 79, 64
6, 191142, Note_off_c, 4, 79, 64
6, 191158, Note_on_c, 4, 81, 64
6, 191202, Note_off_c, 4, 81, 64
6, 191208, Note_on_c, 4, 77, 66
6, 191253, Note_off_c, 4, 77, 64
6, 191273, Note_on_c, 4, 79, 72
6, 191407, Note_off_c, 4, 79, 64
6, 191445, Note_on_c, 4, 79, 72
6, 191481, Note_off_c, 4, 79, 64
6, 191504, Note_on_c, 4, 79, 78
6, 191544, Note_off_c, 4, 79, 64
6, 191629, Note_on_c, 4, 72, 68
6, 191676, Note_off_c, 4, 72, 64
6, 191765, Note_on_c, 4, 77, 85
6, 191902, Note_off_c, 4, 77, 64
6, 191950, Note_on_c, 4, 77, 87
6, 191984, Note_off_c, 4, 77, 64
6, 192008, Note_on_c, 4, 77, 91
6, 192067, Note_on_c, 4, 81, 87
6, 192070, Note_off_c, 4, 77, 64
6, 192114, Note_off_c, 4, 81, 64
6, 192126, Note_on_c, 4, 79, 76
6, 192173, Note_off_c, 4, 79, 64
6, 192178, Note_on_c, 4, 77, 78
6, 192238, Note_on_c, 4, 76, 66
6, 192265, Note_off_c, 4, 77, 64
6, 192294, Note_off_c, 4, 76, 64
6, 192294, Note_on_c, 4, 74, 64
6, 192335, Note_off_c, 4, 74, 64
6, 192346, Note_on_c, 4, 72, 66
6, 192406, Note_on_c, 4, 71, 61
6, 192412, Note_off_c, 4, 72, 64
6, 192456, Note_off_c, 4, 71, 64
6, 192472, Note_on_c, 4, 72, 68
6, 192529, Note_on_c, 4, 76, 53
6, 192530, Note_off_c, 4, 72, 64
6, 192581, Note_off_c, 4, 76, 64
6, 192593, Note_on_c, 4, 81, 78
6, 192649, Note_on_c, 4, 79, 76
6, 192650, Note_off_c, 4, 81, 64
6, 192700, Note_off_c, 4, 79, 64
6, 192710, Note_on_c, 4, 77, 60
6, 192769, Note_on_c, 4, 76, 60
6, 192775, Note_off_c, 4, 77, 64
6, 192831, Note_off_c, 4, 76, 64
6, 192834, Note_on_c, 4, 74, 62
6, 192888, Note_on_c, 4, 72, 53
6, 192890, Note_off_c, 4, 74, 64
6, 192935, Note_off_c, 4, 72, 64
6, 192953, Note_on_c, 4, 71, 85
6, 193016, Note_on_c, 4, 69, 63
6, 193018, Note_off_c, 4, 71, 64
6, 193060, Note_off_c, 4, 69, 64
6, 193069, Note_on_c, 4, 67, 58
6, 193119, Note_off_c, 4, 67, 64
6, 193128, Note_on_c, 4, 69, 64
6, 193173, Note_off_c, 4, 69, 64
6, 193191, Note_on_c, 4, 71, 82
6, 193235, Note_off_c, 4, 71, 64
6, 193247, Note_on_c, 4, 69, 53
6, 193301, Note_off_c, 4, 69, 64
6, 193310, Note_on_c, 4, 71, 58
6, 193355, Note_off_c, 4, 71, 64
6, 193370, Note_on_c, 4, 67, 56
6, 193408, Note_off_c, 4, 67, 64
6, 193431, Note_on_c, 4, 72, 78
6, 193571, Note_off_c, 4, 72, 64
6, 193610, Note_on_c, 4, 74, 70
6, 193637, Note_off_c, 4, 74, 64
6, 193674, Note_on_c, 4, 72, 91
6, 193701, Note_off_c, 4, 72, 64
6, 193701, Note_on_c, 4, 71, 82
6, 193724, Note_on_c, 4, 72, 78
6, 193729, Note_off_c, 4, 71, 64
6, 193755, Note_on_c, 4, 71, 72
6, 193764, Note_off_c, 4, 72, 64
6, 193808, Note_off_c, 4, 71, 64
6, 193851, Note_on_c, 4, 72, 78
6, 193885, Note_off_c, 4, 72, 64
6, 193913, Note_on_c, 4, 72, 85
6, 194012, Note_off_c, 4, 72, 64
6, 204766, Note_on_c, 4, 72, 80
6, 204806, Note_off_c, 4, 72, 64
6, 204827, Note_on_c, 4, 70, 87
6, 204860, Note_off_c, 4, 70, 64
6, 204884, Note_on_c, 4, 69, 87
6, 204918, Note_off_c, 4, 69, 64
6, 204947, Note_on_c, 4, 67, 74
6, 205327, Note_off_c, 4, 67, 64
6, 205376, Note_on_c, 4, 69, 68
6, 205415, Note_off_c, 4, 69, 64
6, 205439, Note_on_c, 4, 70, 74
6, 205527, Note_off_c, 4, 70, 64
6, 205608, Note_on_c, 4, 70, 64
6, 205653, Note_off_c, 4, 70, 64
6, 205672, Note_on_c, 4, 72, 82
6, 205750, Note_off_c, 4, 72, 64
6, 205852, Note_on_c, 4, 74, 89
6, 205894, Note_off_c, 4, 74, 64
6, 205916, Note_on_c, 4, 67, 82
6, 206004, Note_off_c, 4, 67, 64
6, 206088, Note_on_c, 4, 67, 78
6, 206129, Note_off_c, 4, 67, 64
6, 206152, Note_on_c, 4, 69, 80
6, 206234, Note_off_c, 4, 69, 64
6, 206327, Note_on_c, 4, 70, 68
6, 206360, Note_off_c, 4, 70, 64
6, 206397, Note_on_c, 4, 70, 89
6, 206515, Note_on_c, 4, 69, 80
6, 206517, Note_off_c, 4, 70, 64
6, 206652, Note_off_c, 4, 69, 64
6, 206693, Note_on_c, 4, 69, 85
6, 206735, Note_off_c, 4, 69, 64
6, 206754, Note_on_c, 4, 71, 80
6, 206791, Note_off_c, 4, 71, 64
6, 206809, Note_on_c, 4, 73, 64
6, 206845, Note_off_c, 4, 73, 64
6, 206867, Note_on_c, 4, 74, 80
6, 206913, Note_off_c, 4, 74, 64
6, 206930, Note_on_c, 4, 73, 87
6, 206968, Note_off_c, 4, 73, 64
6, 206985, Note_on_c, 4, 74, 85
6, 207041, Note_off_c, 4, 74, 64
6, 207047, Note_on_c, 4, 76, 74
6, 207086, Note_off_c, 4, 76, 64
6, 207109, Note_on_c, 4, 77, 89
6, 207151, Note_off_c, 4, 77, 64
6, 207166, Note_on_c, 4, 76, 87
6, 207208, Note_off_c, 4, 76, 64
6, 207225, Note_on_c, 4, 77, 85
6, 207261, Note_off_c, 4, 77, 64
6, 207279, Note_on_c, 4, 74, 89
6, 207326, Note_off_c, 4, 74, 64
6, 207348, Note_on_c, 4, 79, 87
6, 207714, Note_off_c, 4, 79, 64
6, 207767, Note_on_c, 4, 79, 80
6, 207804, Note_off_c, 4, 79, 64
6, 207835, Note_on_c, 4, 79, 72
6, 207958, Note_off_c, 4, 79, 64
6, 208016, Note_on_c, 4, 81, 85
6, 208039, Note_on_c, 4, 82, 72
6, 208043, Note_off_c, 4, 81, 64
6, 208059, Note_off_c, 4, 82, 64
6, 208075, Note_on_c, 4, 81, 89
6, 208166, Note_off_c, 4, 81, 64
6, 208245, Note_on_c, 4, 79, 70
6, 208264, Note_on_c, 4, 77, 53
6, 208274, Note_off_c, 4, 79, 64
6, 208287, Note_on_c, 4, 76, 64
6, 208296, Note_off_c, 4, 77, 64
6, 208316, Note_off_c, 4, 76, 64
6, 208321, Note_on_c, 4, 77, 87
6, 208419, Note_off_c, 4, 77, 64
6, 208492, Note_on_c, 4, 74, 80
6, 208529, Note_off_c, 4, 74, 64
6, 208551, Note_on_c, 4, 77, 91
6, 208654, Note_off_c, 4, 77, 64
6, 208724, Note_on_c, 4, 81, 82
6, 208755, Note_off_c, 4, 81, 64
6, 208789, Note_on_c, 4, 79, 89
6, 208858, Note_on_c, 4, 78, 52
6, 208866, Note_off_c, 4, 79, 64
6, 208892, Note_off_c, 4, 78, 64
6, 208892, Note_on_c, 4, 79, 68
6, 208920, Note_on_c, 4, 78, 63
6, 208923, Note_off_c, 4, 79, 64
6, 208940, Note_off_c, 4, 78, 64
6, 208944, Note_on_c, 4, 79, 66
6, 208966, Note_on_c, 4, 78, 63
6, 208969, Note_off_c, 4, 79, 64
6, 208982, Note_off_c, 4, 78, 64
6, 208988, Note_on_c, 4, 79, 66
6, 209007, Note_on_c, 4, 78, 80
6, 209010, Note_off_c, 4, 79, 64
6, 209025, Note_off_c, 4, 78, 64
6, 209028, Note_on_c, 4, 79, 66
6, 209048, Note_on_c, 4, 78, 80
6, 209052, Note_off_c, 4, 79, 64
6, 209066, Note_off_c, 4, 78, 64
6, 209069, Note_on_c, 4, 79, 66
6, 209088, Note_on_c, 4, 78, 72
6, 209092, Note_off_c, 4, 79, 64
6, 209107, Note_off_c, 4, 78, 64
6, 209110, Note_on_c, 4, 79, 68
6, 209128, Note_on_c, 4, 78, 68
6, 209130, Note_off_c, 4, 79, 64
6, 209145, Note_off_c, 4, 78, 64
6, 209147, Note_on_c, 4, 79, 80
6, 209164, Note_on_c, 4, 78, 64
6, 209168, Note_off_c, 4, 79, 64
6, 209180, Note_off_c, 4, 78, 64
6, 209183, Note_on_c, 4, 79, 76
6, 209193, Note_on_c, 4, 78, 57
6, 209203, Note_off_c, 4, 79, 64
6, 209219, Note_off_c, 4, 78, 64
6, 209219, Note_on_c, 4, 76, 70
6, 209239, Note_on_c, 4, 78, 80
6, 209252, Note_off_c, 4, 76, 64
6, 209264, Note_off_c, 4, 78, 64
6, 209274, Note_on_c, 4, 79, 76
6, 209775, Note_off_c, 4, 79, 64
6, 209817, Note_on_c, 4, 81, 78
6, 209857, Note_off_c, 4, 81, 64
6, 209876, Note_on_c, 4, 79, 72
6, 209916, Note_off_c, 4, 79, 64
6, 209930, Note_on_c, 4, 77, 80
6, 209967, Note_off_c, 4, 77, 64
6, 209991, Note_on_c, 4, 76, 70
6, 210025, Note_off_c, 4, 76, 64
6, 210044, Note_on_c, 4, 74, 68
6, 210089, Note_off_c, 4, 74, 64
6, 210104, Note_on_c, 4, 76, 80
6, 210139, Note_off_c, 4, 76, 64
6, 210162, Note_on_c, 4, 72, 68
6, 210205, Note_off_c, 4, 72, 64
6, 210232, Note_on_c, 4, 81, 85
6, 210728, Note_off_c, 4, 81, 64
6, 210766, Note_on_c, 4, 79, 78
6, 210807, Note_off_c, 4, 79, 64
6, 210821, Note_on_c, 4, 81, 78
6, 210858, Note_off_c, 4, 81, 64
6, 210876, Note_on_c, 4, 83, 82
6, 210918, Note_off_c, 4, 83, 64
6, 210938, Note_on_c, 4, 84, 78
6, 210978, Note_off_c, 4, 84, 64
6, 211002, Note_on_c, 4, 81, 64
6, 211041, Note_off_c, 4, 81, 64
6, 211062, Note_on_c, 4, 83, 70
6, 211098, Note_off_c, 4, 83, 64
6, 211120, Note_on_c, 4, 84, 66
6, 211155, Note_off_c, 4, 84, 64
6, 211183, Note_on_c, 4, 77, 80
6, 211226, Note_off_c, 4, 77, 64
6, 211246, Note_on_c, 4, 76, 70
6, 211288, Note_off_c, 4, 76, 64
6, 211306, Note_on_c, 4, 77, 78
6, 211356, Note_off_c, 4, 77, 64
6, 211363, Note_on_c, 4, 79, 82
6, 211409, Note_off_c, 4, 79, 64
6, 211421, Note_on_c, 4, 81, 70
6, 211459, Note_off_c, 4, 81, 64
6, 211478, Note_on_c, 4, 77, 72
6, 211523, Note_off_c, 4, 77, 64
6, 211539, Note_on_c, 4, 79, 82
6, 211579, Note_off_c, 4, 79, 64
6, 211599, Note_on_c, 4, 81, 85
6, 211630, Note_off_c, 4, 81, 64
6, 211667, Note_on_c, 4, 72, 76
6, 211795, Note_on_c, 4, 71, 80
6, 211797, Note_off_c, 4, 72, 64
6, 212044, Note_off_c, 4, 71, 64
6, 212083, Note_on_c, 4, 72, 85
6, 212123, Note_off_c, 4, 72, 64
6, 212148, Note_on_c, 4, 74, 82
6, 212198, Note_off_c, 4, 74, 64
6, 212210, Note_on_c, 4, 71, 74
6, 212253, Note_off_c, 4, 71, 64
6, 212270, Note_on_c, 4, 67, 85
6, 212318, Note_off_c, 4, 67, 64
6, 212330, Note_on_c, 4, 69, 85
6, 212368, Note_off_c, 4, 69, 64
6, 212387, Note_on_c, 4, 71, 66
6, 212433, Note_off_c, 4, 71, 64
6, 212450, Note_on_c, 4, 72, 82
6, 212489, Note_off_c, 4, 72, 64
6, 212504, Note_on_c, 4, 74, 68
6, 212551, Note_off_c, 4, 74, 64
6, 212566, Note_on_c, 4, 76, 78
6, 212610, Note_off_c, 4, 76, 64
6, 212630, Note_on_c, 4, 77, 89
6, 212988, Note_off_c, 4, 77, 64
6, 213048, Note_on_c, 4, 77, 85
6, 213086, Note_off_c, 4, 77, 64
6, 213116, Note_on_c, 4, 79, 87
6, 213138, Note_on_c, 4, 77, 87
6, 213141, Note_off_c, 4, 79, 64
6, 213160, Note_off_c, 4, 77, 64
6, 213160, Note_on_c, 4, 79, 85
6, 213179, Note_on_c, 4, 77, 89
6, 213194, Note_off_c, 4, 79, 64
6, 213235, Note_off_c, 4, 77, 64
6, 213290, Note_on_c, 4, 76, 76
6, 213310, Note_on_c, 4, 74, 82
6, 213320, Note_off_c, 4, 76, 64
6, 213343, Note_off_c, 4, 74, 64
6, 213348, Note_on_c, 4, 76, 80
6, 213446, Note_off_c, 4, 76, 64
6, 213525, Note_on_c, 4, 77, 72
6, 213551, Note_on_c, 4, 79, 72
6, 213560, Note_off_c, 4, 77, 64
6, 213583, Note_off_c, 4, 79, 64
6, 213591, Note_on_c, 4, 70, 80
6, 213954, Note_off_c, 4, 70, 64
6, 214002, Note_on_c, 4, 70, 74
6, 214037, Note_off_c, 4, 70, 64
6, 214070, Note_on_c, 4, 72, 82
6, 214090, Note_on_c, 4, 70, 91
6, 214096, Note_off_c, 4, 72, 64
6, 214111, Note_off_c, 4, 70, 64
6, 214116, Note_on_c, 4, 72, 85
6, 214131, Note_on_c, 4, 70, 74
6, 214150, Note_off_c, 4, 72, 64
6, 214196, Note_off_c, 4, 70, 64
6, 214255, Note_on_c, 4, 69, 78
6, 214274, Note_on_c, 4, 67, 80
6, 214284, Note_off_c, 4, 69, 64
6, 214305, Note_off_c, 4, 67, 64
6, 214308, Note_on_c, 4, 69, 80
6, 214405, Note_off_c, 4, 69, 64
6, 214493, Note_on_c, 4, 71, 72
6, 214532, Note_off_c, 4, 71, 64
6, 214553, Note_on_c, 4, 72, 87
6, 214921, Note_off_c, 4, 72, 64
6, 214971, Note_on_c, 4, 72, 78
6, 215006, Note_off_c, 4, 72, 64
6, 215041, Note_on_c, 4, 74, 91
6, 215062, Note_on_c, 4, 72, 82
6, 215068, Note_off_c, 4, 74, 64
6, 215081, Note_on_c, 4, 74, 72
6, 215084, Note_off_c, 4, 72, 64
6, 215102, Note_on_c, 4, 72, 78
6, 215117, Note_off_c, 4, 74, 64
6, 215152, Note_off_c, 4, 72, 64
6, 215221, Note_on_c, 4, 71, 76
6, 215244, Note_on_c, 4, 69, 82
6, 215257, Note_off_c, 4, 71, 64
6, 215269, Note_off_c, 4, 69, 64
6, 215274, Note_on_c, 4, 79, 89
6, 215296, Note_on_c, 4, 77, 89
6, 215299, Note_off_c, 4, 79, 64
6, 215312, Note_on_c, 4, 79, 72
6, 215317, Note_off_c, 4, 77, 64
6, 215335, Note_on_c, 4, 77, 82
6, 215347, Note_off_c, 4, 79, 64
6, 215398, Note_off_c, 4, 77, 64
6, 215451, Note_on_c, 4, 76, 78
6, 215478, Note_on_c, 4, 74, 87
6, 215496, Note_off_c, 4, 76, 64
6, 215503, Note_off_c, 4, 74, 64
6, 215514, Note_on_c, 4, 84, 89
6, 215539, Note_on_c, 4, 83, 78
6, 215541, Note_off_c, 4, 84, 64
6, 215557, Note_on_c, 4, 84, 80
6, 215561, Note_off_c, 4, 83, 64
6, 215579, Note_on_c, 4, 83, 76
6, 215589, Note_off_c, 4, 84, 64
6, 215645, Note_off_c, 4, 83, 64
6, 215696, Note_on_c, 4, 81, 76
6, 215720, Note_on_c, 4, 79, 89
6, 215729, Note_off_c, 4, 81, 64
6, 215747, Note_off_c, 4, 79, 64
6, 215757, Note_on_c, 4, 86, 91
6, 215826, Note_off_c, 4, 86, 64
6, 215928, Note_on_c, 4, 77, 82
6, 215959, Note_off_c, 4, 77, 64
6, 215994, Note_on_c, 4, 77, 85
6, 216257, Note_off_c, 4, 77, 64
6, 216287, Note_on_c, 4, 81, 82
6, 216326, Note_off_c, 4, 81, 64
6, 216346, Note_on_c, 4, 79, 82
6, 216384, Note_off_c, 4, 79, 64
6, 216408, Note_on_c, 4, 77, 82
6, 216442, Note_off_c, 4, 77, 64
6, 216470, Note_on_c, 4, 76, 80
6, 216519, Note_off_c, 4, 76, 64
6, 216531, Note_on_c, 4, 72, 82
6, 216572, Note_off_c, 4, 72, 64
6, 216590, Note_on_c, 4, 74, 70
6, 216634, Note_off_c, 4, 74, 64
6, 216651, Note_on_c, 4, 76, 70
6, 216694, Note_off_c, 4, 76, 64
6, 216707, Note_on_c, 4, 77, 80
6, 216758, Note_off_c, 4, 77, 64
6, 216770, Note_on_c, 4, 79, 87
6, 216811, Note_off_c, 4, 79, 64
6, 216830, Note_on_c, 4, 81, 80
6, 216871, Note_off_c, 4, 81, 64
6, 216889, Note_on_c, 4, 82, 66
6, 216931, Note_off_c, 4, 82, 64
6, 216950, Note_on_c, 4, 81, 72
6, 216996, Note_off_c, 4, 81, 64
6, 217012, Note_on_c, 4, 79, 80
6, 217055, Note_off_c, 4, 79, 64
6, 217071, Note_on_c, 4, 77, 76
6, 217112, Note_off_c, 4, 77, 64
6, 217130, Note_on_c, 4, 76, 70
6, 217172, Note_off_c, 4, 76, 64
6, 217192, Note_on_c, 4, 77, 80
6, 217233, Note_off_c, 4, 77, 64
6, 217248, Note_on_c, 4, 74, 80
6, 217292, Note_off_c, 4, 74, 64
6, 217310, Note_on_c, 4, 76, 85
6, 217348, Note_off_c, 4, 76, 64
6, 217368, Note_on_c, 4, 77, 80
6, 217406, Note_off_c, 4, 77, 64
6, 217435, Note_on_c, 4, 67, 76
6, 217798, Note_off_c, 4, 67, 64
6, 217833, Note_on_c, 4, 69, 70
6, 217856, Note_on_c, 4, 71, 78
6, 217868, Note_off_c, 4, 69, 64
6, 217871, Note_on_c, 4, 72, 78
6, 217879, Note_off_c, 4, 71, 64
6, 217890, Note_on_c, 4, 74, 78
6, 217901, Note_off_c, 4, 72, 64
6, 217907, Note_on_c, 4, 76, 66
6, 217916, Note_off_c, 4, 74, 64
6, 217918, Note_on_c, 4, 77, 91
6, 217928, Note_off_c, 4, 76, 64
6, 218020, Note_off_c, 4, 77, 64
6, 218020, End_track
7, 0, Start_track
7, 0, Title_t, "Oboe2"
7, 0, Program_c, 5, 68
7, 0, Control_c, 5, 7, 100
7, 952, Note_on_c, 5, 76, 78
7, 1470, Note_off_c, 5, 76, 64
7, 1487, Note_on_c, 5, 74, 70
7, 1544, Note_off_c, 5, 74, 64
7, 1546, Note_on_c, 5, 76, 76
7, 1600, Note_off_c, 5, 76, 64
7, 1607, Note_on_c, 5, 77, 66
7, 1651, Note_off_c, 5, 77, 64
7, 1667, Note_on_c, 5, 79, 78
7, 1714, Note_off_c, 5, 79, 64
7, 1727, Note_on_c, 5, 77, 72
7, 1780, Note_off_c, 5, 77, 64
7, 1788, Note_on_c, 5, 79, 68
7, 1835, Note_off_c, 5, 79, 64
7, 1847, Note_on_c, 5, 81, 76
7, 1899, Note_off_c, 5, 81, 64
7, 1917, Note_on_c, 5, 74, 60
7, 2186, Note_off_c, 5, 74, 64
7, 2210, Note_on_c, 5, 74, 74
7, 2262, Note_off_c, 5, 74, 64
7, 2270, Note_on_c, 5, 76, 72
7, 2326, Note_off_c, 5, 76, 64
7, 2328, Note_on_c, 5, 77, 66
7, 2370, Note_off_c, 5, 77, 64
7, 2392, Note_on_c, 5, 79, 78
7, 2437, Note_off_c, 5, 79, 64
7, 2452, Note_on_c, 5, 77, 70
7, 2496, Note_off_c, 5, 77, 64
7, 2511, Note_on_c, 5, 76, 72
7, 2564, Note_off_c, 5, 76, 64
7, 2568, Note_on_c, 5, 77, 68
7, 2614, Note_off_c, 5, 77, 64
7, 2630, Note_on_c, 5, 79, 76
7, 2677, Note_off_c, 5, 79, 64
7, 2690, Note_on_c, 5, 76, 64
7, 2735, Note_off_c, 5, 76, 64
7, 2750, Note_on_c, 5, 77, 70
7, 2794, Note_off_c, 5, 77, 64
7, 2806, Note_on_c, 5, 79, 78
7, 2853, Note_off_c, 5, 79, 64
7, 2873, Note_on_c, 5, 72, 70
7, 3029, Note_off_c, 5, 72, 64
7, 3054, Note_on_c, 5, 69, 66
7, 3080, Note_on_c, 5, 71, 72
7, 3090, Note_off_c, 5, 69, 64
7, 3108, Note_off_c, 5, 71, 64
7, 3118, Note_on_c, 5, 72, 76
7, 3250, Note_off_c, 5, 72, 64
7, 3292, Note_on_c, 5, 74, 72
7, 3318, Note_off_c, 5, 74, 64
7, 3318, Note_on_c, 5, 76, 66
7, 3347, Note_off_c, 5, 76, 64
7, 3359, Note_on_c, 5, 77, 72
7, 3738, Note_off_c, 5, 77, 64
7, 3771, Note_on_c, 5, 77, 70
7, 3808, Note_off_c, 5, 77, 64
7, 3831, Note_on_c, 5, 77, 80
7, 3880, Note_off_c, 5, 77, 64
7, 3894, Note_on_c, 5, 79, 74
7, 3935, Note_off_c, 5, 79, 64
7, 3949, Note_on_c, 5, 77, 80
7, 4001, Note_off_c, 5, 77, 64
7, 4008, Note_on_c, 5, 76, 68
7, 4052, Note_off_c, 5, 76, 64
7, 4069, Note_on_c, 5, 77, 74
7, 4117, Note_off_c, 5, 77, 64
7, 4131, Note_on_c, 5, 76, 78
7, 4175, Note_off_c, 5, 76, 64
7, 4190, Note_on_c, 5, 74, 80
7, 4243, Note_off_c, 5, 74, 64
7, 4247, Note_on_c, 5, 76, 70
7, 4296, Note_off_c, 5, 76, 64
7, 4309, Note_on_c, 5, 77, 70
7, 4356, Note_on_c, 5, 76, 55
7, 4364, Note_off_c, 5, 77, 64
7, 4387, Note_off_c, 5, 76, 64
7, 4387, Note_on_c, 5, 77, 63
7, 4412, Note_on_c, 5, 76, 58
7, 4416, Note_off_c, 5, 77, 64
7, 4434, Note_off_c, 5, 76, 64
7, 4436, Note_on_c, 5, 77, 60
7, 4458, Note_on_c, 5, 76, 55
7, 4460, Note_off_c, 5, 77, 64
7, 4477, Note_off_c, 5, 76, 64
7, 4481, Note_on_c, 5, 77, 66
7, 4500, Note_on_c, 5, 76, 57
7, 4501, Note_off_c, 5, 77, 64
7, 4520, Note_off_c, 5, 76, 64
7, 4520, Note_on_c, 5, 77, 78
7, 4540, Note_off_c, 5, 77, 64
7, 4540, Note_on_c, 5, 76, 60
7, 4703, Note_off_c, 5, 76, 64
7, 4727, Note_on_c, 5, 74, 72
7, 4755, Note_off_c, 5, 74, 64
7, 4789, Note_on_c, 5, 74, 62
7, 5078, Note_off_c, 5, 74, 64
7, 5103, Note_on_c, 5, 67, 60
7, 5127, Note_on_c, 5, 69, 72
7, 5144, Note_on_c, 5, 71, 66
7, 5155, Note_off_c, 5, 67, 64
7, 5162, Note_off_c, 5, 69, 64
7, 5166, Note_on_c, 5, 72, 68
7, 5180, Note_off_c, 5, 71, 64
7, 5184, Note_on_c, 5, 74, 66
7, 5191, Note_off_c, 5, 72, 64
7, 5196, Note_on_c, 5, 76, 63
7, 5213, Note_off_c, 5, 74, 64
7, 5218, Note_on_c, 5, 78, 61
7, 5232, Note_off_c, 5, 76, 64
7, 5238, Note_on_c, 5, 79, 68
7, 5249, Note_off_c, 5, 78, 64
7, 5257, Note_on_c, 5, 81, 78
7, 5263, Note_off_c, 5, 79, 64
7, 5283, Note_on_c, 5, 83, 68
7, 5291, Note_off_c, 5, 81, 64
7, 5643, Note_off_c, 5, 83, 64
7, 5694, Note_on_c, 5, 83, 82
7, 5728, Note_off_c, 5, 83, 64
7, 5753, Note_on_c, 5, 83, 82
7, 5868, Note_off_c, 5, 83, 64
7, 5938, Note_on_c, 5, 79, 80
7, 5977, Note_off_c, 5, 79, 64
7, 5995, Note_on_c, 5, 78, 70
7, 6116, Note_off_c, 5, 78, 64
7, 6173, Note_on_c, 5, 76, 72
7, 6209, Note_off_c, 5, 76, 64
7, 6235, Note_on_c, 5, 81, 78
7, 6617, Note_off_c, 5, 81, 64
7, 6656, Note_on_c, 5, 81, 80
7, 6687, Note_off_c, 5, 81, 64
7, 6718, Note_on_c, 5, 81, 68
7, 6867, Note_off_c, 5, 81, 64
7, 6899, Note_on_c, 5, 83, 60
7, 6918, Note_on_c, 5, 81, 70
7, 6939, Note_off_c, 5, 83, 64
7, 6953, Note_off_c, 5, 81, 64
7, 6960, Note_on_c, 5, 79, 68
7, 7085, Note_off_c, 5, 79, 64
7, 7124, Note_on_c, 5, 81, 64
7, 7150, Note_on_c, 5, 78, 70
7, 7158, Note_off_c, 5, 81, 64
7, 7178, Note_off_c, 5, 78, 64
7, 7189, Note_on_c, 5, 79, 68
7, 7579, Note_off_c, 5, 79, 64
7, 7615, Note_on_c, 5, 79, 82
7, 7652, Note_off_c, 5, 79, 64
7, 7676, Note_on_c, 5, 79, 70
7, 7948, Note_off_c, 5, 79, 64
7, 7975, Note_on_c, 5, 78, 58
7, 8014, Note_off_c, 5, 78, 64
7, 8037, Note_on_c, 5, 76, 74
7, 8086, Note_off_c, 5, 76, 64
7, 8088, Note_on_c, 5, 78, 59
7, 8132, Note_off_c, 5, 78, 64
7, 8152, Note_on_c, 5, 79, 72
7, 8196, Note_off_c, 5, 79, 64
7, 8210, Note_on_c, 5, 78, 70
7, 8258, Note_off_c, 5, 78, 64
7, 8275, Note_on_c, 5, 79, 70
7, 8316, Note_off_c, 5, 79, 64
7, 8333, Note_on_c, 5, 83, 72
7, 8378, Note_off_c, 5, 83, 64
7, 8394, Note_on_c, 5, 81, 68
7, 8441, Note_off_c, 5, 81, 64
7, 8455, Note_on_c, 5, 79, 76
7, 8506, Note_off_c, 5, 79, 64
7, 8516, Note_on_c, 5, 78, 74
7, 8554, Note_off_c, 5, 78, 64
7, 8570, Note_on_c, 5, 79, 74
7, 8605, Note_off_c, 5, 79, 64
7, 8632, Note_on_c, 5, 79, 60
7, 8667, Note_on_c, 5, 78, 47
7, 8670, Note_off_c, 5, 79, 64
7, 8689, Note_off_c, 5, 78, 64
7, 8690, Note_on_c, 5, 79, 70
7, 8707, Note_on_c, 5, 78, 60
7, 8711, Note_off_c, 5, 79, 64
7, 8728, Note_off_c, 5, 78, 64
7, 8729, Note_on_c, 5, 79, 76
7, 8748, Note_on_c, 5, 78, 68
7, 8757, Note_off_c, 5, 79, 64
7, 8814, Note_off_c, 5, 78, 64
7, 8826, Note_on_c, 5, 76, 60
7, 8852, Note_off_c, 5, 76, 64
7, 8852, Note_on_c, 5, 74, 74
7, 8883, Note_off_c, 5, 74, 64
7, 8889, Note_on_c, 5, 81, 85
7, 9011, Note_off_c, 5, 81, 64
7, 9055, Note_on_c, 5, 72, 66
7, 9087, Note_off_c, 5, 72, 64
7, 9115, Note_on_c, 5, 71, 74
7, 9266, Note_off_c, 5, 71, 64
7, 9283, Note_on_c, 5, 72, 70
7, 9305, Note_on_c, 5, 71, 64
7, 9310, Note_off_c, 5, 72, 64
7, 9333, Note_on_c, 5, 72, 60
7, 9339, Note_off_c, 5, 71, 64
7, 9362, Note_off_c, 5, 72, 64
7, 9364, Note_on_c, 5, 74, 59
7, 9392, Note_on_c, 5, 72, 47
7, 9397, Note_off_c, 5, 74, 64
7, 9414, Note_off_c, 5, 72, 64
7, 9416, Note_on_c, 5, 74, 61
7, 9437, Note_off_c, 5, 74, 64
7, 9437, Note_on_c, 5, 72, 57
7, 9450, Note_off_c, 5, 72, 64
7, 9453, Note_on_c, 5, 74, 63
7, 9470, Note_on_c, 5, 72, 61
7, 9473, Note_off_c, 5, 74, 64
7, 9483, Note_off_c, 5, 72, 64
7, 9487, Note_on_c, 5, 74, 64
7, 9503, Note_on_c, 5, 72, 66
7, 9509, Note_off_c, 5, 74, 64
7, 9525, Note_on_c, 5, 71, 59
7, 9528, Note_off_c, 5, 72, 64
7, 9551, Note_on_c, 5, 72, 61
7, 9562, Note_off_c, 5, 71, 64
7, 9579, Note_off_c, 5, 72, 64
7, 9586, Note_on_c, 5, 74, 64
7, 9868, Note_off_c, 5, 74, 64
7, 9894, Note_on_c, 5, 76, 59
7, 9919, Note_on_c, 5, 74, 68
7, 9932, Note_off_c, 5, 76, 64
7, 9951, Note_on_c, 5, 72, 58
7, 9966, Note_off_c, 5, 74, 64
7, 9971, Note_on_c, 5, 71, 53
7, 9987, Note_off_c, 5, 72, 64
7, 9994, Note_on_c, 5, 69, 64
7, 10006, Note_off_c, 5, 71, 64
7, 10007, Note_on_c, 5, 67, 61
7, 10031, Note_off_c, 5, 69, 64
7, 10031, Note_on_c, 5, 65, 72
7, 10043, Note_off_c, 5, 67, 64
7, 10050, Note_on_c, 5, 64, 76
7, 10058, Note_off_c, 5, 65, 64
7, 10078, Note_off_c, 5, 64, 64
7, 10080, Note_on_c, 5, 65, 82
7, 10439, Note_off_c, 5, 65, 64
7, 10496, Note_on_c, 5, 65, 78
7, 10527, Note_off_c, 5, 65, 64
7, 10559, Note_on_c, 5, 65, 70
7, 10689, Note_off_c, 5, 65, 64
7, 10729, Note_on_c, 5, 64, 57
7, 10759, Note_on_c, 5, 62, 68
7, 10763, Note_off_c, 5, 64, 64
7, 10791, Note_off_c, 5, 62, 64
7, 10798, Note_on_c, 5, 64, 74
7, 10926, Note_off_c, 5, 64, 64
7, 10974, Note_on_c, 5, 66, 64
7, 11006, Note_off_c, 5, 66, 64
7, 11044, Note_on_c, 5, 67, 70
7, 11400, Note_off_c, 5, 67, 64
7, 11452, Note_on_c, 5, 67, 85
7, 11485, Note_off_c, 5, 67, 64
7, 11524, Note_on_c, 5, 67, 74
7, 11676, Note_off_c, 5, 67, 64
7, 11698, Note_on_c, 5, 66, 82
7, 11725, Note_on_c, 5, 64, 82
7, 11734, Note_off_c, 5, 66, 64
7, 11757, Note_off_c, 5, 64, 64
7, 11760, Note_on_c, 5, 72, 82
7, 11897, Note_off_c, 5, 72, 64
7, 11937, Note_on_c, 5, 71, 72
7, 11962, Note_on_c, 5, 69, 78
7, 11972, Note_off_c, 5, 71, 64
7, 11989, Note_off_c, 5, 69, 64
7, 11997, Note_on_c, 5, 78, 64
7, 12131, Note_off_c, 5, 78, 64
7, 12172, Note_on_c, 5, 76, 70
7, 12195, Note_on_c, 5, 74, 82
7, 12202, Note_off_c, 5, 76, 64
7, 12220, Note_off_c, 5, 74, 64
7, 12234, Note_on_c, 5, 81, 89
7, 12352, Note_off_c, 5, 81, 64
7, 12408, Note_on_c, 5, 72, 72
7, 12440, Note_off_c, 5, 72, 64
7, 12473, Note_on_c, 5, 71, 66
7, 12745, Note_off_c, 5, 71, 64
7, 12774, Note_on_c, 5, 69, 68
7, 12822, Note_off_c, 5, 69, 64
7, 12835, Note_on_c, 5, 67, 80
7, 12881, Note_off_c, 5, 67, 64
7, 12892, Note_on_c, 5, 66, 58
7, 12938, Note_off_c, 5, 66, 64
7, 12954, Note_on_c, 5, 67, 68
7, 13004, Note_off_c, 5, 67, 64
7, 13013, Note_on_c, 5, 62, 70
7, 13062, Note_off_c, 5, 62, 64
7, 13073, Note_on_c, 5, 64, 61
7, 13126, Note_off_c, 5, 64, 64
7, 13131, Note_on_c, 5, 66, 64
7, 13188, Note_off_c, 5, 66, 64
7, 13194, Note_on_c, 5, 67, 80
7, 13251, Note_off_c, 5, 67, 64
7, 13254, Note_on_c, 5, 69, 62
7, 13307, Note_off_c, 5, 69, 64
7, 13316, Note_on_c, 5, 71, 66
7, 13365, Note_off_c, 5, 71, 64
7, 13372, Note_on_c, 5, 72, 68
7, 13419, Note_off_c, 5, 72, 64
7, 13431, Note_on_c, 5, 74, 85
7, 13712, Note_off_c, 5, 74, 64
7, 13730, Note_on_c, 5, 72, 68
7, 13778, Note_off_c, 5, 72, 64
7, 13790, Note_on_c, 5, 74, 68
7, 13838, Note_off_c, 5, 74, 64
7, 13847, Note_on_c, 5, 76, 76
7, 13893, Note_off_c, 5, 76, 64
7, 13918, Note_on_c, 5, 67, 68
7, 13971, Note_on_c, 5, 66, 47
7, 13974, Note_off_c, 5, 67, 64
7, 13995, Note_on_c, 5, 67, 58
7, 13996, Note_off_c, 5, 66, 64
7, 14017, Note_on_c, 5, 66, 51
7, 14018, Note_off_c, 5, 67, 64
7, 14034, Note_off_c, 5, 66, 64
7, 14034, Note_on_c, 5, 67, 70
7, 14052, Note_on_c, 5, 66, 62
7, 14054, Note_off_c, 5, 67, 64
7, 14070, Note_off_c, 5, 66, 64
7, 14070, Note_on_c, 5, 67, 68
7, 14089, Note_on_c, 5, 66, 58
7, 14100, Note_off_c, 5, 67, 64
7, 14207, Note_off_c, 5, 66, 64
7, 14209, Note_on_c, 5, 67, 82
7, 14251, Note_off_c, 5, 67, 64
7, 14267, Note_on_c, 5, 69, 68
7, 14321, Note_off_c, 5, 69, 64
7, 14324, Note_on_c, 5, 71, 68
7, 14371, Note_off_c, 5, 71, 64
7, 14389, Note_on_c, 5, 72, 80
7, 14514, Note_off_c, 5, 72, 64
7, 14568, Note_on_c, 5, 69, 64
7, 14610, Note_off_c, 5, 69, 64
7, 14631, Note_on_c, 5, 71, 78
7, 14752, Note_off_c, 5, 71, 64
7, 14808, Note_on_c, 5, 72, 68
7, 14846, Note_off_c, 5, 72, 64
7, 14874, Note_on_c, 5, 71, 66
7, 14936, Note_on_c, 5, 69, 51
7, 14940, Note_off_c, 5, 71, 64
7, 14967, Note_on_c, 5, 71, 57
7, 14969, Note_off_c, 5, 69, 64
7, 14995, Note_on_c, 5, 69, 57
7, 14998, Note_off_c, 5, 71, 64
7, 15015, Note_on_c, 5, 71, 60
7, 15016, Note_off_c, 5, 69, 64
7, 15037, Note_on_c, 5, 69, 64
7, 15038, Note_off_c, 5, 71, 64
7, 15057, Note_off_c, 5, 69, 64
7, 15057, Note_on_c, 5, 71, 66
7, 15073, Note_on_c, 5, 69, 66
7, 15075, Note_off_c, 5, 71, 64
7, 15091, Note_on_c, 5, 71, 70
7, 15093, Note_off_c, 5, 69, 64
7, 15110, Note_on_c, 5, 69, 72
7, 15114, Note_off_c, 5, 71, 64
7, 15134, Note_on_c, 5, 71, 33
7, 15139, Note_off_c, 5, 71, 64
7, 15255, Note_off_c, 5, 69, 64
7, 15291, Note_on_c, 5, 67, 64
7, 15326, Note_off_c, 5, 67, 64
7, 15358, Note_on_c, 5, 67, 60
7, 16289, Note_off_c, 5, 67, 64
7, 30835, Note_on_c, 5, 79, 72
7, 30864, Note_off_c, 5, 79, 64
7, 30953, Note_on_c, 5, 79, 72
7, 30988, Note_off_c, 5, 79, 64
7, 31077, Note_on_c, 5, 79, 76
7, 31110, Note_off_c, 5, 79, 64
7, 31196, Note_on_c, 5, 76, 62
7, 31304, Note_off_c, 5, 76, 64
7, 31308, Note_on_c, 5, 77, 56
7, 31353, Note_on_c, 5, 79, 68
7, 31356, Note_off_c, 5, 77, 64
7, 31403, Note_off_c, 5, 79, 64
7, 31418, Note_on_c, 5, 81, 76
7, 31460, Note_off_c, 5, 81, 64
7, 31544, Note_on_c, 5, 77, 78
7, 31589, Note_off_c, 5, 77, 64
7, 31668, Note_on_c, 5, 74, 68
7, 31709, Note_off_c, 5, 74, 64
7, 31791, Note_on_c, 5, 79, 82
7, 31829, Note_off_c, 5, 79, 64
7, 31907, Note_on_c, 5, 67, 66
7, 31965, Note_off_c, 5, 67, 64
7, 32035, Note_on_c, 5, 77, 80
7, 32083, Note_off_c, 5, 77, 64
7, 32163, Note_on_c, 5, 76, 72
7, 32218, Note_on_c, 5, 74, 63
7, 32225, Note_off_c, 5, 76, 64
7, 32272, Note_off_c, 5, 74, 64
7, 32278, Note_on_c, 5, 72, 64
7, 32330, Note_on_c, 5, 74, 63
7, 32340, Note_off_c, 5, 72, 64
7, 32385, Note_off_c, 5, 74, 64
7, 32396, Note_on_c, 5, 76, 68
7, 32445, Note_off_c, 5, 76, 64
7, 32449, Note_on_c, 5, 74, 68
7, 32503, Note_off_c, 5, 74, 64
7, 32515, Note_on_c, 5, 76, 57
7, 32561, Note_on_c, 5, 78, 58
7, 32568, Note_off_c, 5, 76, 64
7, 32602, Note_off_c, 5, 78, 64
7, 32630, Note_on_c, 5, 79, 74
7, 32737, Note_off_c, 5, 79, 64
7, 32814, Note_on_c, 5, 74, 64
7, 32845, Note_off_c, 5, 74, 64
7, 32879, Note_on_c, 5, 79, 85
7, 32990, Note_off_c, 5, 79, 64
7, 33051, Note_on_c, 5, 79, 61
7, 33079, Note_off_c, 5, 79, 64
7, 33116, Note_on_c, 5, 79, 87
7, 33217, Note_off_c, 5, 79, 64
7, 33276, Note_on_c, 5, 78, 61
7, 33308, Note_on_c, 5, 76, 61
7, 33312, Note_off_c, 5, 78, 64
7, 33336, Note_on_c, 5, 78, 58
7, 33349, Note_off_c, 5, 76, 64
7, 33363, Note_off_c, 5, 78, 64
7, 33368, Note_on_c, 5, 79, 70
7, 33393, Note_on_c, 5, 78, 68
7, 33407, Note_off_c, 5, 79, 64
7, 33420, Note_on_c, 5, 79, 72
7, 33422, Note_off_c, 5, 78, 64
7, 33451, Note_on_c, 5, 78, 50
7, 33466, Note_off_c, 5, 79, 64
7, 33495, Note_off_c, 5, 78, 64
7, 33528, Note_on_c, 5, 79, 72
7, 33560, Note_off_c, 5, 79, 64
7, 33590, Note_on_c, 5, 79, 82
7, 33680, Note_off_c, 5, 79, 64
7, 33708, Note_on_c, 5, 77, 64
7, 33760, Note_on_c, 5, 76, 58
7, 33765, Note_off_c, 5, 77, 64
7, 33815, Note_off_c, 5, 76, 64
7, 33821, Note_on_c, 5, 74, 62
7, 33866, Note_off_c, 5, 74, 64
7, 33874, Note_on_c, 5, 71, 57
7, 33924, Note_off_c, 5, 71, 64
7, 33929, Note_on_c, 5, 72, 64
7, 33981, Note_off_c, 5, 72, 64
7, 33987, Note_on_c, 5, 74, 68
7, 34032, Note_off_c, 5, 74, 64
7, 34050, Note_on_c, 5, 67, 64
7, 34109, Note_off_c, 5, 67, 64
7, 34188, Note_on_c, 5, 79, 70
7, 34226, Note_off_c, 5, 79, 64
7, 34310, Note_on_c, 5, 76, 74
7, 34345, Note_off_c, 5, 76, 64
7, 34430, Note_on_c, 5, 81, 80
7, 34476, Note_off_c, 5, 81, 64
7, 34558, Note_on_c, 5, 77, 82
7, 34613, Note_on_c, 5, 79, 60
7, 34619, Note_off_c, 5, 77, 64
7, 34666, Note_off_c, 5, 79, 64
7, 34675, Note_on_c, 5, 77, 52
7, 34733, Note_off_c, 5, 77, 64
7, 34736, Note_on_c, 5, 76, 49
7, 34786, Note_off_c, 5, 76, 64
7, 34797, Note_on_c, 5, 74, 58
7, 34857, Note_off_c, 5, 74, 64
7, 34859, Note_on_c, 5, 77, 59
7, 34921, Note_on_c, 5, 76, 51
7, 34927, Note_off_c, 5, 77, 64
7, 34976, Note_off_c, 5, 76, 64
7, 34976, Note_on_c, 5, 74, 59
7, 35019, Note_off_c, 5, 74, 64
7, 35037, Note_on_c, 5, 79, 70
7, 35095, Note_on_c, 5, 77, 57
7, 35108, Note_off_c, 5, 79, 64
7, 35154, Note_on_c, 5, 76, 57
7, 35170, Note_off_c, 5, 77, 64
7, 35209, Note_on_c, 5, 74, 58
7, 35212, Note_off_c, 5, 76, 64
7, 35250, Note_off_c, 5, 74, 64
7, 35272, Note_on_c, 5, 72, 68
7, 35328, Note_off_c, 5, 72, 64
7, 35328, Note_on_c, 5, 71, 51
7, 35381, Note_off_c, 5, 71, 64
7, 35386, Note_on_c, 5, 72, 66
7, 35439, Note_off_c, 5, 72, 64
7, 35451, Note_on_c, 5, 69, 68
7, 35496, Note_off_c, 5, 69, 64
7, 35516, Note_on_c, 5, 74, 64
7, 35617, Note_off_c, 5, 74, 64
7, 35638, Note_on_c, 5, 76, 59
7, 35684, Note_off_c, 5, 76, 64
7, 35688, Note_on_c, 5, 78, 62
7, 35730, Note_off_c, 5, 78, 64
7, 35749, Note_on_c, 5, 79, 82
7, 35835, Note_off_c, 5, 79, 64
7, 35869, Note_on_c, 5, 81, 63
7, 35915, Note_off_c, 5, 81, 64
7, 35921, Note_on_c, 5, 83, 66
7, 35960, Note_off_c, 5, 83, 64
7, 35983, Note_on_c, 5, 84, 76
7, 36102, Note_off_c, 5, 84, 64
7, 36162, Note_on_c, 5, 83, 78
7, 36190, Note_off_c, 5, 83, 64
7, 36221, Note_on_c, 5, 83, 85
7, 36249, Note_off_c, 5, 83, 64
7, 36249, Note_on_c, 5, 81, 61
7, 36275, Note_on_c, 5, 83, 72
7, 36282, Note_off_c, 5, 81, 64
7, 36306, Note_on_c, 5, 81, 62
7, 36318, Note_off_c, 5, 83, 64
7, 36379, Note_off_c, 5, 81, 64
7, 36408, Note_on_c, 5, 79, 74
7, 36437, Note_off_c, 5, 79, 64
7, 36474, Note_on_c, 5, 79, 85
7, 36589, Note_off_c, 5, 79, 64
7, 36598, Note_on_c, 5, 77, 60
7, 36647, Note_off_c, 5, 77, 64
7, 36652, Note_on_c, 5, 76, 58
7, 36687, Note_off_c, 5, 76, 64
7, 36713, Note_on_c, 5, 74, 60
7, 36759, Note_on_c, 5, 76, 66
7, 36766, Note_off_c, 5, 74, 64
7, 36825, Note_on_c, 5, 77, 64
7, 36833, Note_off_c, 5, 76, 64
7, 36874, Note_off_c, 5, 77, 64
7, 36879, Note_on_c, 5, 74, 60
7, 36929, Note_off_c, 5, 74, 64
7, 36949, Note_on_c, 5, 76, 64
7, 36999, Note_off_c, 5, 76, 64
7, 37004, Note_on_c, 5, 79, 55
7, 37068, Note_off_c, 5, 79, 64
7, 37069, Note_on_c, 5, 77, 44
7, 37121, Note_on_c, 5, 79, 70
7, 37125, Note_off_c, 5, 77, 64
7, 37176, Note_off_c, 5, 79, 64
7, 37189, Note_on_c, 5, 81, 74
7, 37245, Note_on_c, 5, 79, 61
7, 37251, Note_off_c, 5, 81, 64
7, 37307, Note_off_c, 5, 79, 64
7, 37312, Note_on_c, 5, 77, 50
7, 37375, Note_on_c, 5, 76, 52
7, 37376, Note_off_c, 5, 77, 64
7, 37432, Note_off_c, 5, 76, 64
7, 37437, Note_on_c, 5, 74, 61
7, 37492, Note_off_c, 5, 74, 64
7, 37493, Note_on_c, 5, 77, 58
7, 37560, Note_off_c, 5, 77, 64
7, 37560, Note_on_c, 5, 76, 44
7, 37616, Note_on_c, 5, 77, 59
7, 37619, Note_off_c, 5, 76, 64
7, 37666, Note_off_c, 5, 77, 64
7, 37680, Note_on_c, 5, 79, 57
7, 37731, Note_on_c, 5, 77, 64
7, 37741, Note_off_c, 5, 79, 64
7, 37794, Note_on_c, 5, 76, 63
7, 37795, Note_off_c, 5, 77, 64
7, 37850, Note_on_c, 5, 74, 59
7, 37851, Note_off_c, 5, 76, 64
7, 37896, Note_off_c, 5, 74, 64
7, 37915, Note_on_c, 5, 72, 59
7, 37963, Note_off_c, 5, 72, 64
7, 37969, Note_on_c, 5, 76, 58
7, 38029, Note_on_c, 5, 74, 52
7, 38035, Note_off_c, 5, 76, 64
7, 38089, Note_on_c, 5, 76, 60
7, 38092, Note_off_c, 5, 74, 64
7, 38149, Note_off_c, 5, 76, 64
7, 38149, Note_on_c, 5, 77, 60
7, 38208, Note_off_c, 5, 77, 64
7, 38208, Note_on_c, 5, 76, 58
7, 38269, Note_on_c, 5, 74, 58
7, 38273, Note_off_c, 5, 76, 64
7, 38326, Note_on_c, 5, 72, 53
7, 38328, Note_off_c, 5, 74, 64
7, 38385, Note_off_c, 5, 72, 64
7, 38391, Note_on_c, 5, 71, 52
7, 38434, Note_off_c, 5, 71, 64
7, 38446, Note_on_c, 5, 74, 62
7, 38505, Note_on_c, 5, 72, 52
7, 38514, Note_off_c, 5, 74, 64
7, 38567, Note_off_c, 5, 72, 64
7, 38568, Note_on_c, 5, 74, 60
7, 38620, Note_off_c, 5, 74, 64
7, 38629, Note_on_c, 5, 76, 53
7, 38683, Note_on_c, 5, 74, 58
7, 38684, Note_off_c, 5, 76, 64
7, 38746, Note_off_c, 5, 74, 64
7, 38753, Note_on_c, 5, 72, 55
7, 38805, Note_off_c, 5, 72, 64
7, 38806, Note_on_c, 5, 71, 52
7, 38864, Note_off_c, 5, 71, 64
7, 38877, Note_on_c, 5, 69, 56
7, 38925, Note_off_c, 5, 69, 64
7, 38934, Note_on_c, 5, 72, 60
7, 38987, Note_off_c, 5, 72, 64
7, 38989, Note_on_c, 5, 71, 41
7, 39051, Note_on_c, 5, 72, 53
7, 39055, Note_off_c, 5, 71, 64
7, 39096, Note_off_c, 5, 72, 64
7, 39115, Note_on_c, 5, 74, 56
7, 39164, Note_on_c, 5, 72, 63
7, 39172, Note_off_c, 5, 74, 64
7, 39225, Note_on_c, 5, 71, 55
7, 39236, Note_off_c, 5, 72, 64
7, 39272, Note_off_c, 5, 71, 64
7, 39282, Note_on_c, 5, 69, 68
7, 39341, Note_off_c, 5, 69, 64
7, 39351, Note_on_c, 5, 71, 60
7, 39403, Note_off_c, 5, 71, 64
7, 39471, Note_on_c, 5, 79, 72
7, 39503, Note_off_c, 5, 79, 64
7, 39598, Note_on_c, 5, 79, 78
7, 39631, Note_off_c, 5, 79, 64
7, 39718, Note_on_c, 5, 79, 68
7, 39755, Note_off_c, 5, 79, 64
7, 39843, Note_on_c, 5, 76, 64
7, 39953, Note_off_c, 5, 76, 64
7, 39962, Note_on_c, 5, 77, 57
7, 40008, Note_on_c, 5, 79, 66
7, 40012, Note_off_c, 5, 77, 64
7, 40054, Note_off_c, 5, 79, 64
7, 40075, Note_on_c, 5, 81, 64
7, 40115, Note_off_c, 5, 81, 64
7, 40205, Note_on_c, 5, 77, 66
7, 40238, Note_off_c, 5, 77, 64
7, 40319, Note_on_c, 5, 74, 63
7, 40354, Note_off_c, 5, 74, 64
7, 40427, Note_on_c, 5, 79, 72
7, 40468, Note_off_c, 5, 79, 64
7, 40547, Note_on_c, 5, 67, 59
7, 40600, Note_off_c, 5, 67, 64
7, 40672, Note_on_c, 5, 77, 72
7, 40724, Note_off_c, 5, 77, 64
7, 40794, Note_on_c, 5, 76, 68
7, 40931, Note_off_c, 5, 76, 64
7, 40974, Note_on_c, 5, 74, 59
7, 40999, Note_off_c, 5, 74, 64
7, 41036, Note_on_c, 5, 76, 66
7, 41064, Note_on_c, 5, 74, 55
7, 41072, Note_off_c, 5, 76, 64
7, 41094, Note_on_c, 5, 76, 63
7, 41132, Note_off_c, 5, 76, 64
7, 41184, Note_off_c, 5, 74, 64
7, 41205, Note_on_c, 5, 72, 66
7, 41238, Note_off_c, 5, 72, 64
7, 41273, Note_on_c, 5, 72, 70
7, 41352, Note_off_c, 5, 72, 64
7, 41399, Note_on_c, 5, 76, 66
7, 41437, Note_off_c, 5, 76, 64
7, 41514, Note_on_c, 5, 76, 64
7, 41557, Note_off_c, 5, 76, 64
7, 41637, Note_on_c, 5, 76, 78
7, 41671, Note_off_c, 5, 76, 64
7, 41754, Note_on_c, 5, 72, 68
7, 41870, Note_off_c, 5, 72, 64
7, 41875, Note_on_c, 5, 74, 66
7, 41928, Note_off_c, 5, 74, 64
7, 41929, Note_on_c, 5, 76, 68
7, 41980, Note_off_c, 5, 76, 64
7, 41990, Note_on_c, 5, 77, 64
7, 42028, Note_off_c, 5, 77, 64
7, 42114, Note_on_c, 5, 74, 66
7, 42154, Note_off_c, 5, 74, 64
7, 42233, Note_on_c, 5, 71, 68
7, 42278, Note_off_c, 5, 71, 64
7, 42350, Note_on_c, 5, 76, 72
7, 42386, Note_off_c, 5, 76, 64
7, 42469, Note_on_c, 5, 64, 66
7, 42520, Note_off_c, 5, 64, 64
7, 42592, Note_on_c, 5, 74, 74
7, 42629, Note_off_c, 5, 74, 64
7, 42724, Note_on_c, 5, 72, 53
7, 42967, Note_off_c, 5, 72, 64
7, 43432, Note_on_c, 5, 81, 57
7, 43904, Note_off_c, 5, 81, 64
7, 43907, Note_on_c, 5, 80, 52
7, 44140, Note_off_c, 5, 80, 64
7, 44161, Note_on_c, 5, 81, 57
7, 44323, Note_off_c, 5, 81, 64
7, 44387, Note_on_c, 5, 77, 60
7, 44832, Note_off_c, 5, 77, 64
7, 44869, Note_on_c, 5, 76, 51
7, 45296, Note_off_c, 5, 76, 64
7, 45342, Note_on_c, 5, 74, 53
7, 45806, Note_off_c, 5, 74, 64
7, 45825, Note_on_c, 5, 72, 64
7, 45888, Note_off_c, 5, 72, 64
7, 45953, Note_on_c, 5, 71, 57
7, 46008, Note_off_c, 5, 71, 64
7, 46080, Note_on_c, 5, 69, 68
7, 46243, Note_off_c, 5, 69, 64
7, 46303, Note_on_c, 5, 69, 60
7, 46329, Note_on_c, 5, 68, 58
7, 46343, Note_off_c, 5, 69, 64
7, 46356, Note_off_c, 5, 68, 64
7, 46360, Note_on_c, 5, 69, 60
7, 46387, Note_on_c, 5, 68, 64
7, 46399, Note_off_c, 5, 69, 64
7, 46495, Note_off_c, 5, 68, 64
7, 46559, Note_on_c, 5, 69, 68
7, 46616, Note_off_c, 5, 69, 64
7, 46618, Note_on_c, 5, 72, 64
7, 46673, Note_off_c, 5, 72, 64
7, 46679, Note_on_c, 5, 74, 62
7, 46725, Note_on_c, 5, 76, 60
7, 46732, Note_off_c, 5, 74, 64
7, 46779, Note_off_c, 5, 76, 64
7, 46790, Note_on_c, 5, 77, 68
7, 46833, Note_off_c, 5, 77, 64
7, 46903, Note_on_c, 5, 74, 72
7, 46949, Note_off_c, 5, 74, 64
7, 47027, Note_on_c, 5, 71, 66
7, 47062, Note_off_c, 5, 71, 64
7, 47147, Note_on_c, 5, 76, 66
7, 47193, Note_off_c, 5, 76, 64
7, 47271, Note_on_c, 5, 64, 68
7, 47321, Note_off_c, 5, 64, 64
7, 47397, Note_on_c, 5, 76, 78
7, 47433, Note_off_c, 5, 76, 64
7, 47511, Note_on_c, 5, 69, 68
7, 47624, Note_off_c, 5, 69, 64
7, 47643, Note_on_c, 5, 71, 63
7, 47689, Note_off_c, 5, 71, 64
7, 47689, Note_on_c, 5, 72, 60
7, 47729, Note_off_c, 5, 72, 64
7, 47758, Note_on_c, 5, 74, 68
7, 48018, Note_off_c, 5, 74, 64
7, 48054, Note_on_c, 5, 77, 76
7, 48109, Note_off_c, 5, 77, 64
7, 48112, Note_on_c, 5, 76, 60
7, 48171, Note_on_c, 5, 74, 59
7, 48176, Note_off_c, 5, 76, 64
7, 48225, Note_off_c, 5, 74, 64
7, 48232, Note_on_c, 5, 72, 63
7, 48284, Note_off_c, 5, 72, 64
7, 48284, Note_on_c, 5, 71, 55
7, 48337, Note_off_c, 5, 71, 64
7, 48344, Note_on_c, 5, 72, 58
7, 48384, Note_off_c, 5, 72, 64
7, 48399, Note_on_c, 5, 69, 66
7, 48434, Note_off_c, 5, 69, 64
7, 48468, Note_on_c, 5, 81, 58
7, 48605, Note_off_c, 5, 81, 64
7, 48652, Note_on_c, 5, 83, 59
7, 48680, Note_off_c, 5, 83, 64
7, 48715, Note_on_c, 5, 81, 66
7, 48743, Note_on_c, 5, 80, 76
7, 48746, Note_off_c, 5, 81, 64
7, 48772, Note_off_c, 5, 80, 64
7, 48773, Note_on_c, 5, 81, 61
7, 48799, Note_on_c, 5, 80, 66
7, 48818, Note_off_c, 5, 81, 64
7, 48857, Note_off_c, 5, 80, 64
7, 48899, Note_on_c, 5, 81, 60
7, 48924, Note_off_c, 5, 81, 64
7, 48958, Note_on_c, 5, 81, 68
7, 49008, Note_off_c, 5, 81, 64
7, 49009, Note_on_c, 5, 83, 66
7, 49073, Note_on_c, 5, 84, 64
7, 49076, Note_off_c, 5, 83, 64
7, 49127, Note_off_c, 5, 84, 64
7, 49128, Note_on_c, 5, 83, 68
7, 49176, Note_off_c, 5, 83, 64
7, 49194, Note_on_c, 5, 81, 63
7, 49243, Note_on_c, 5, 79, 61
7, 49245, Note_off_c, 5, 81, 64
7, 49299, Note_off_c, 5, 79, 64
7, 49311, Note_on_c, 5, 81, 57
7, 49362, Note_off_c, 5, 81, 64
7, 49363, Note_on_c, 5, 78, 52
7, 49409, Note_off_c, 5, 78, 64
7, 49426, Note_on_c, 5, 83, 76
7, 49488, Note_off_c, 5, 83, 64
7, 49536, Note_on_c, 5, 71, 68
7, 49599, Note_off_c, 5, 71, 64
7, 49672, Note_on_c, 5, 76, 72
7, 49794, Note_off_c, 5, 76, 64
7, 49852, Note_on_c, 5, 76, 64
7, 49881, Note_off_c, 5, 76, 64
7, 49915, Note_on_c, 5, 76, 63
7, 49963, Note_off_c, 5, 76, 64
7, 49970, Note_on_c, 5, 79, 68
7, 50026, Note_on_c, 5, 78, 53
7, 50027, Note_off_c, 5, 79, 64
7, 50083, Note_on_c, 5, 76, 61
7, 50087, Note_off_c, 5, 78, 64
7, 50120, Note_off_c, 5, 76, 64
7, 50146, Note_on_c, 5, 75, 82
7, 50197, Note_on_c, 5, 73, 48
7, 50202, Note_off_c, 5, 75, 64
7, 50258, Note_on_c, 5, 75, 61
7, 50265, Note_off_c, 5, 73, 64
7, 50303, Note_off_c, 5, 75, 64
7, 50310, Note_on_c, 5, 71, 66
7, 50355, Note_off_c, 5, 71, 64
7, 50377, Note_on_c, 5, 83, 68
7, 50438, Note_on_c, 5, 81, 68
7, 50456, Note_off_c, 5, 83, 64
7, 50489, Note_off_c, 5, 81, 64
7, 50495, Note_on_c, 5, 79, 55
7, 50550, Note_on_c, 5, 78, 52
7, 50557, Note_off_c, 5, 79, 64
7, 50609, Note_off_c, 5, 78, 64
7, 50616, Note_on_c, 5, 76, 57
7, 50660, Note_off_c, 5, 76, 64
7, 50671, Note_on_c, 5, 74, 43
7, 50737, Note_on_c, 5, 72, 53
7, 50740, Note_off_c, 5, 74, 64
7, 50800, Note_off_c, 5, 72, 64
7, 50804, Note_on_c, 5, 71, 60
7, 50835, Note_off_c, 5, 71, 64
7, 50868, Note_on_c, 5, 69, 66
7, 50923, Note_off_c, 5, 69, 64
7, 50929, Note_on_c, 5, 72, 66
7, 50980, Note_off_c, 5, 72, 64
7, 50991, Note_on_c, 5, 74, 64
7, 51045, Note_on_c, 5, 76, 68
7, 51051, Note_off_c, 5, 74, 64
7, 51086, Note_off_c, 5, 76, 64
7, 51108, Note_on_c, 5, 74, 78
7, 51167, Note_on_c, 5, 72, 61
7, 51168, Note_off_c, 5, 74, 64
7, 51222, Note_off_c, 5, 72, 64
7, 51227, Note_on_c, 5, 71, 59
7, 51283, Note_on_c, 5, 69, 58
7, 51285, Note_off_c, 5, 71, 64
7, 51320, Note_off_c, 5, 69, 64
7, 51344, Note_on_c, 5, 74, 82
7, 51471, Note_off_c, 5, 74, 64
7, 51518, Note_on_c, 5, 76, 61
7, 51548, Note_off_c, 5, 76, 64
7, 51585, Note_on_c, 5, 74, 68
7, 51611, Note_on_c, 5, 72, 68
7, 51614, Note_off_c, 5, 74, 64
7, 51641, Note_off_c, 5, 72, 64
7, 51641, Note_on_c, 5, 74, 62
7, 51672, Note_on_c, 5, 72, 62
7, 51684, Note_off_c, 5, 74, 64
7, 51729, Note_off_c, 5, 72, 64
7, 51768, Note_on_c, 5, 71, 66
7, 51807, Note_off_c, 5, 71, 64
7, 51830, Note_on_c, 5, 72, 80
7, 51960, Note_off_c, 5, 72, 64
7, 52009, Note_on_c, 5, 74, 66
7, 52040, Note_off_c, 5, 74, 64
7, 52076, Note_on_c, 5, 72, 80
7, 52100, Note_on_c, 5, 71, 66
7, 52101, Note_off_c, 5, 72, 64
7, 52131, Note_on_c, 5, 72, 63
7, 52136, Note_off_c, 5, 71, 64
7, 52156, Note_on_c, 5, 71, 66
7, 52177, Note_off_c, 5, 72, 64
7, 52227, Note_off_c, 5, 71, 64
7, 52240, Note_on_c, 5, 69, 64
7, 52267, Note_off_c, 5, 69, 64
7, 52310, Note_on_c, 5, 69, 68
7, 52366, Note_off_c, 5, 69, 64
7, 52370, Note_on_c, 5, 76, 53
7, 52425, Note_off_c, 5, 76, 64
7, 52427, Note_on_c, 5, 78, 51
7, 52472, Note_on_c, 5, 80, 58
7, 52474, Note_off_c, 5, 78, 64
7, 52522, Note_off_c, 5, 80, 64
7, 52545, Note_on_c, 5, 81, 70
7, 52804, Note_off_c, 5, 81, 64
7, 52850, Note_on_c, 5, 84, 68
7, 52913, Note_off_c, 5, 84, 64
7, 52913, Note_on_c, 5, 83, 68
7, 52970, Note_on_c, 5, 81, 60
7, 52992, Note_off_c, 5, 83, 64
7, 53032, Note_off_c, 5, 81, 64
7, 53037, Note_on_c, 5, 80, 62
7, 53088, Note_off_c, 5, 80, 64
7, 53090, Note_on_c, 5, 81, 62
7, 53140, Note_off_c, 5, 81, 64
7, 53150, Note_on_c, 5, 83, 57
7, 53202, Note_on_c, 5, 80, 58
7, 53205, Note_off_c, 5, 83, 64
7, 53256, Note_off_c, 5, 80, 64
7, 53278, Note_on_c, 5, 76, 58
7, 53313, Note_off_c, 5, 76, 64
7, 53394, Note_on_c, 5, 76, 68
7, 53432, Note_off_c, 5, 76, 64
7, 53519, Note_on_c, 5, 76, 76
7, 53557, Note_off_c, 5, 76, 64
7, 53638, Note_on_c, 5, 76, 72
7, 53684, Note_off_c, 5, 76, 64
7, 53755, Note_on_c, 5, 72, 70
7, 53869, Note_off_c, 5, 72, 64
7, 53876, Note_on_c, 5, 74, 59
7, 53928, Note_on_c, 5, 76, 63
7, 53930, Note_off_c, 5, 74, 64
7, 53986, Note_off_c, 5, 76, 64
7, 53992, Note_on_c, 5, 77, 64
7, 54026, Note_off_c, 5, 77, 64
7, 54113, Note_on_c, 5, 74, 74
7, 54151, Note_off_c, 5, 74, 64
7, 54228, Note_on_c, 5, 71, 66
7, 54277, Note_off_c, 5, 71, 64
7, 54347, Note_on_c, 5, 76, 74
7, 54382, Note_off_c, 5, 76, 64
7, 54468, Note_on_c, 5, 64, 63
7, 54515, Note_off_c, 5, 64, 64
7, 54593, Note_on_c, 5, 74, 78
7, 54633, Note_off_c, 5, 74, 64
7, 54711, Note_on_c, 5, 72, 64
7, 54846, Note_off_c, 5, 72, 64
7, 54891, Note_on_c, 5, 71, 58
7, 54922, Note_off_c, 5, 71, 64
7, 54951, Note_on_c, 5, 72, 64
7, 54977, Note_on_c, 5, 71, 48
7, 54979, Note_off_c, 5, 72, 64
7, 55006, Note_on_c, 5, 72, 66
7, 55008, Note_off_c, 5, 71, 64
7, 55033, Note_on_c, 5, 71, 54
7, 55044, Note_off_c, 5, 72, 64
7, 55106, Note_off_c, 5, 71, 64
7, 55128, Note_on_c, 5, 69, 66
7, 55166, Note_off_c, 5, 69, 64
7, 55198, Note_on_c, 5, 69, 68
7, 55256, Note_off_c, 5, 69, 64
7, 67784, Note_on_c, 5, 74, 66
7, 67821, Note_off_c, 5, 74, 64
7, 67909, Note_on_c, 5, 74, 66
7, 67949, Note_off_c, 5, 74, 64
7, 68032, Note_on_c, 5, 74, 78
7, 68071, Note_off_c, 5, 74, 64
7, 68143, Note_on_c, 5, 71, 66
7, 68260, Note_off_c, 5, 71, 64
7, 68276, Note_on_c, 5, 72, 80
7, 68319, Note_off_c, 5, 72, 64
7, 68328, Note_on_c, 5, 74, 66
7, 68367, Note_off_c, 5, 74, 64
7, 68389, Note_on_c, 5, 76, 76
7, 68425, Note_off_c, 5, 76, 64
7, 68511, Note_on_c, 5, 72, 66
7, 68546, Note_off_c, 5, 72, 64
7, 68634, Note_on_c, 5, 69, 63
7, 68673, Note_off_c, 5, 69, 64
7, 68751, Note_on_c, 5, 74, 70
7, 68788, Note_off_c, 5, 74, 64
7, 68865, Note_on_c, 5, 62, 64
7, 68918, Note_off_c, 5, 62, 64
7, 68998, Note_on_c, 5, 72, 64
7, 69032, Note_off_c, 5, 72, 64
7, 69116, Note_on_c, 5, 71, 60
7, 69356, Note_off_c, 5, 71, 64
7, 69829, Note_on_c, 5, 79, 63
7, 70302, Note_off_c, 5, 79, 64
7, 70319, Note_on_c, 5, 78, 57
7, 70503, Note_off_c, 5, 78, 64
7, 70555, Note_on_c, 5, 79, 80
7, 70602, Note_off_c, 5, 79, 64
7, 70613, Note_on_c, 5, 83, 74
7, 70657, Note_off_c, 5, 83, 64
7, 70667, Note_on_c, 5, 81, 72
7, 70716, Note_off_c, 5, 81, 64
7, 70719, Note_on_c, 5, 79, 59
7, 70764, Note_off_c, 5, 79, 64
7, 70779, Note_on_c, 5, 78, 60
7, 70834, Note_on_c, 5, 76, 59
7, 70835, Note_off_c, 5, 78, 64
7, 70883, Note_off_c, 5, 76, 64
7, 70893, Note_on_c, 5, 78, 48
7, 70944, Note_off_c, 5, 78, 64
7, 70947, Note_on_c, 5, 74, 58
7, 71000, Note_off_c, 5, 74, 64
7, 71016, Note_on_c, 5, 76, 60
7, 71724, Note_off_c, 5, 76, 64
7, 71746, Note_on_c, 5, 75, 66
7, 71940, Note_off_c, 5, 75, 64
7, 71984, Note_on_c, 5, 76, 60
7, 72068, Note_off_c, 5, 76, 64
7, 72110, Note_on_c, 5, 76, 82
7, 72155, Note_on_c, 5, 75, 63
7, 72158, Note_off_c, 5, 76, 64
7, 72204, Note_off_c, 5, 75, 64
7, 72221, Note_on_c, 5, 76, 76
7, 72253, Note_off_c, 5, 76, 64
7, 72349, Note_on_c, 5, 71, 66
7, 72392, Note_off_c, 5, 71, 64
7, 72473, Note_on_c, 5, 64, 66
7, 72598, Note_off_c, 5, 64, 64
7, 72608, Note_on_c, 5, 66, 64
7, 72651, Note_on_c, 5, 67, 62
7, 72656, Note_off_c, 5, 66, 64
7, 72701, Note_off_c, 5, 67, 64
7, 72714, Note_on_c, 5, 69, 70
7, 72766, Note_on_c, 5, 67, 64
7, 72778, Note_off_c, 5, 69, 64
7, 72818, Note_off_c, 5, 67, 64
7, 72822, Note_on_c, 5, 66, 57
7, 72874, Note_off_c, 5, 66, 64
7, 72875, Note_on_c, 5, 64, 64
7, 72924, Note_off_c, 5, 64, 64
7, 72945, Note_on_c, 5, 71, 70
7, 73040, Note_off_c, 5, 71, 64
7, 73069, Note_on_c, 5, 69, 60
7, 73146, Note_off_c, 5, 69, 64
7, 73188, Note_on_c, 5, 67, 57
7, 73272, Note_off_c, 5, 67, 64
7, 73309, Note_on_c, 5, 66, 55
7, 73398, Note_off_c, 5, 66, 64
7, 73434, Note_on_c, 5, 64, 58
7, 73692, Note_off_c, 5, 64, 64
7, 74044, Note_on_c, 5, 71, 53
7, 74147, Note_off_c, 5, 71, 64
7, 74163, Note_on_c, 5, 76, 70
7, 74283, Note_off_c, 5, 76, 64
7, 74283, Note_on_c, 5, 74, 64
7, 74379, Note_off_c, 5, 74, 64
7, 74401, Note_on_c, 5, 72, 59
7, 74886, Note_off_c, 5, 72, 64
7, 74987, Note_on_c, 5, 62, 66
7, 75106, Note_off_c, 5, 62, 64
7, 75113, Note_on_c, 5, 69, 60
7, 75223, Note_off_c, 5, 69, 64
7, 75237, Note_on_c, 5, 72, 62
7, 75353, Note_off_c, 5, 72, 64
7, 75359, Note_on_c, 5, 71, 53
7, 75803, Note_off_c, 5, 71, 64
7, 75950, Note_on_c, 5, 78, 61
7, 75985, Note_off_c, 5, 78, 64
7, 76070, Note_on_c, 5, 78, 66
7, 76110, Note_off_c, 5, 78, 64
7, 76190, Note_on_c, 5, 78, 68
7, 76235, Note_off_c, 5, 78, 64
7, 76316, Note_on_c, 5, 71, 64
7, 76434, Note_off_c, 5, 71, 64
7, 76440, Note_on_c, 5, 73, 55
7, 76485, Note_on_c, 5, 75, 64
7, 76493, Note_off_c, 5, 73, 64
7, 76530, Note_off_c, 5, 75, 64
7, 76547, Note_on_c, 5, 76, 70
7, 76898, Note_off_c, 5, 76, 64
7, 76910, Note_on_c, 5, 74, 70
7, 76960, Note_on_c, 5, 72, 53
7, 76961, Note_off_c, 5, 74, 64
7, 77005, Note_off_c, 5, 72, 64
7, 77020, Note_on_c, 5, 74, 64
7, 77495, Note_off_c, 5, 74, 64
7, 77510, Note_on_c, 5, 72, 60
7, 77774, Note_off_c, 5, 72, 64
7, 77808, Note_on_c, 5, 72, 72
7, 77864, Note_on_c, 5, 71, 58
7, 77871, Note_off_c, 5, 72, 64
7, 77920, Note_off_c, 5, 71, 64
7, 77920, Note_on_c, 5, 69, 59
7, 77967, Note_off_c, 5, 69, 64
7, 77983, Note_on_c, 5, 68, 53
7, 78037, Note_on_c, 5, 69, 68
7, 78038, Note_off_c, 5, 68, 64
7, 78093, Note_off_c, 5, 69, 64
7, 78097, Note_on_c, 5, 71, 57
7, 78152, Note_off_c, 5, 71, 64
7, 78152, Note_on_c, 5, 68, 59
7, 78207, Note_off_c, 5, 68, 64
7, 78214, Note_on_c, 5, 64, 59
7, 78269, Note_off_c, 5, 64, 64
7, 78341, Note_on_c, 5, 68, 62
7, 78389, Note_off_c, 5, 68, 64
7, 78473, Note_on_c, 5, 69, 60
7, 78735, Note_off_c, 5, 69, 64
7, 78771, Note_on_c, 5, 77, 72
7, 78832, Note_on_c, 5, 76, 66
7, 78848, Note_off_c, 5, 77, 64
7, 78889, Note_off_c, 5, 76, 64
7, 78890, Note_on_c, 5, 74, 62
7, 78947, Note_on_c, 5, 72, 59
7, 78949, Note_off_c, 5, 74, 64
7, 78997, Note_off_c, 5, 72, 64
7, 78997, Note_on_c, 5, 71, 56
7, 79059, Note_off_c, 5, 71, 64
7, 79061, Note_on_c, 5, 72, 53
7, 79112, Note_off_c, 5, 72, 64
7, 79112, Note_on_c, 5, 69, 60
7, 79160, Note_off_c, 5, 69, 64
7, 79177, Note_on_c, 5, 74, 72
7, 79230, Note_on_c, 5, 76, 66
7, 79239, Note_off_c, 5, 74, 64
7, 79295, Note_on_c, 5, 74, 66
7, 79302, Note_off_c, 5, 76, 64
7, 79351, Note_off_c, 5, 74, 64
7, 79353, Note_on_c, 5, 72, 60
7, 79411, Note_off_c, 5, 72, 64
7, 79418, Note_on_c, 5, 71, 57
7, 79467, Note_off_c, 5, 71, 64
7, 79469, Note_on_c, 5, 69, 58
7, 79526, Note_off_c, 5, 69, 64
7, 79534, Note_on_c, 5, 71, 58
7, 79590, Note_off_c, 5, 71, 64
7, 79592, Note_on_c, 5, 64, 53
7, 79666, Note_off_c, 5, 64, 64
7, 79668, Note_on_c, 5, 72, 57
7, 80399, Note_off_c, 5, 72, 64
7, 80684, Note_on_c, 5, 75, 64
7, 80741, Note_on_c, 5, 74, 58
7, 80761, Note_off_c, 5, 75, 64
7, 80799, Note_off_c, 5, 74, 64
7, 80801, Note_on_c, 5, 72, 59
7, 80846, Note_off_c, 5, 72, 64
7, 80856, Note_on_c, 5, 70, 62
7, 80910, Note_off_c, 5, 70, 64
7, 80917, Note_on_c, 5, 69, 34
7, 80969, Note_on_c, 5, 70, 53
7, 80970, Note_off_c, 5, 69, 64
7, 81032, Note_on_c, 5, 67, 58
7, 81035, Note_off_c, 5, 70, 64
7, 81080, Note_off_c, 5, 67, 64
7, 81096, Note_on_c, 5, 72, 72
7, 81148, Note_on_c, 5, 74, 66
7, 81154, Note_off_c, 5, 72, 64
7, 81214, Note_on_c, 5, 72, 61
7, 81219, Note_off_c, 5, 74, 64
7, 81273, Note_on_c, 5, 70, 55
7, 81276, Note_off_c, 5, 72, 64
7, 81344, Note_on_c, 5, 69, 59
7, 81346, Note_off_c, 5, 70, 64
7, 81391, Note_off_c, 5, 69, 64
7, 81392, Note_on_c, 5, 67, 53
7, 81454, Note_off_c, 5, 67, 64
7, 81458, Note_on_c, 5, 69, 57
7, 81510, Note_off_c, 5, 69, 64
7, 81517, Note_on_c, 5, 62, 48
7, 81586, Note_off_c, 5, 62, 64
7, 81590, Note_on_c, 5, 70, 51
7, 82321, Note_off_c, 5, 70, 64
7, 82611, Note_on_c, 5, 74, 64
7, 82665, Note_on_c, 5, 72, 63
7, 82681, Note_off_c, 5, 74, 64
7, 82721, Note_on_c, 5, 70, 56
7, 82725, Note_off_c, 5, 72, 64
7, 82784, Note_on_c, 5, 69, 52
7, 82785, Note_off_c, 5, 70, 64
7, 82835, Note_on_c, 5, 67, 58
7, 82838, Note_off_c, 5, 69, 64
7, 82901, Note_on_c, 5, 69, 57
7, 82903, Note_off_c, 5, 67, 64
7, 82956, Note_off_c, 5, 69, 64
7, 82958, Note_on_c, 5, 65, 57
7, 83021, Note_on_c, 5, 70, 64
7, 83022, Note_off_c, 5, 65, 64
7, 83083, Note_on_c, 5, 72, 66
7, 83093, Note_off_c, 5, 70, 64
7, 83142, Note_off_c, 5, 72, 64
7, 83144, Note_on_c, 5, 70, 60
7, 83208, Note_on_c, 5, 69, 59
7, 83214, Note_off_c, 5, 70, 64
7, 83261, Note_off_c, 5, 69, 64
7, 83265, Note_on_c, 5, 67, 56
7, 83317, Note_on_c, 5, 65, 57
7, 83319, Note_off_c, 5, 67, 64
7, 83381, Note_off_c, 5, 65, 64
7, 83381, Note_on_c, 5, 67, 61
7, 83438, Note_off_c, 5, 67, 64
7, 83441, Note_on_c, 5, 60, 64
7, 83496, Note_off_c, 5, 60, 64
7, 83507, Note_on_c, 5, 69, 63
7, 83562, Note_on_c, 5, 67, 51
7, 83570, Note_off_c, 5, 69, 64
7, 83633, Note_on_c, 5, 65, 59
7, 83635, Note_off_c, 5, 67, 64
7, 83692, Note_on_c, 5, 67, 64
7, 83696, Note_off_c, 5, 65, 64
7, 83754, Note_on_c, 5, 69, 63
7, 83756, Note_off_c, 5, 67, 64
7, 83798, Note_off_c, 5, 69, 64
7, 83806, Note_on_c, 5, 67, 55
7, 83871, Note_off_c, 5, 67, 64
7, 83871, Note_on_c, 5, 69, 59
7, 83920, Note_on_c, 5, 71, 58
7, 83922, Note_off_c, 5, 69, 64
7, 83973, Note_off_c, 5, 71, 64
7, 83991, Note_on_c, 5, 72, 76
7, 84113, Note_off_c, 5, 72, 64
7, 84176, Note_on_c, 5, 67, 57
7, 84213, Note_off_c, 5, 67, 64
7, 84238, Note_on_c, 5, 72, 82
7, 84348, Note_off_c, 5, 72, 64
7, 84417, Note_on_c, 5, 72, 68
7, 84450, Note_off_c, 5, 72, 64
7, 84469, Note_on_c, 5, 72, 82
7, 84575, Note_off_c, 5, 72, 64
7, 84629, Note_on_c, 5, 71, 60
7, 84660, Note_on_c, 5, 69, 64
7, 84667, Note_off_c, 5, 71, 64
7, 84692, Note_on_c, 5, 71, 59
7, 84702, Note_off_c, 5, 69, 64
7, 84717, Note_on_c, 5, 72, 72
7, 84720, Note_off_c, 5, 71, 64
7, 84747, Note_on_c, 5, 71, 76
7, 84752, Note_off_c, 5, 72, 64
7, 84775, Note_on_c, 5, 72, 80
7, 84777, Note_off_c, 5, 71, 64
7, 84799, Note_on_c, 5, 71, 78
7, 84813, Note_off_c, 5, 72, 64
7, 84857, Note_off_c, 5, 71, 64
7, 84882, Note_on_c, 5, 72, 70
7, 84910, Note_off_c, 5, 72, 64
7, 84945, Note_on_c, 5, 72, 72
7, 85194, Note_off_c, 5, 72, 64
7, 100557, Note_on_c, 5, 72, 66
7, 101033, Note_off_c, 5, 72, 64
7, 101038, Note_on_c, 5, 71, 62
7, 101269, Note_off_c, 5, 71, 64
7, 101279, Note_on_c, 5, 72, 44
7, 101370, Note_off_c, 5, 72, 64
7, 101401, Note_on_c, 5, 79, 62
7, 101450, Note_off_c, 5, 79, 64
7, 101524, Note_on_c, 5, 79, 85
7, 101565, Note_off_c, 5, 79, 64
7, 101643, Note_on_c, 5, 79, 85
7, 101683, Note_off_c, 5, 79, 64
7, 101763, Note_on_c, 5, 76, 78
7, 101888, Note_on_c, 5, 77, 78
7, 101890, Note_off_c, 5, 76, 64
7, 101935, Note_on_c, 5, 79, 72
7, 101937, Note_off_c, 5, 77, 64
7, 101985, Note_off_c, 5, 79, 64
7, 101994, Note_on_c, 5, 81, 72
7, 102032, Note_off_c, 5, 81, 64
7, 102118, Note_on_c, 5, 77, 76
7, 102161, Note_off_c, 5, 77, 64
7, 102242, Note_on_c, 5, 74, 66
7, 102284, Note_off_c, 5, 74, 64
7, 102360, Note_on_c, 5, 79, 76
7, 102396, Note_off_c, 5, 79, 64
7, 102479, Note_on_c, 5, 67, 62
7, 102525, Note_off_c, 5, 67, 64
7, 102603, Note_on_c, 5, 77, 76
7, 102637, Note_off_c, 5, 77, 64
7, 102720, Note_on_c, 5, 76, 72
7, 102772, Note_off_c, 5, 76, 64
7, 102782, Note_on_c, 5, 79, 66
7, 102839, Note_off_c, 5, 79, 64
7, 102846, Note_on_c, 5, 77, 50
7, 102892, Note_off_c, 5, 77, 64
7, 102896, Note_on_c, 5, 79, 53
7, 102942, Note_off_c, 5, 79, 64
7, 102954, Note_on_c, 5, 81, 74
7, 103008, Note_off_c, 5, 81, 64
7, 103008, Note_on_c, 5, 79, 61
7, 103063, Note_off_c, 5, 79, 64
7, 103077, Note_on_c, 5, 77, 53
7, 103126, Note_off_c, 5, 77, 64
7, 103132, Note_on_c, 5, 76, 49
7, 103176, Note_off_c, 5, 76, 64
7, 103191, Note_on_c, 5, 74, 72
7, 103250, Note_off_c, 5, 74, 64
7, 103252, Note_on_c, 5, 77, 62
7, 103304, Note_off_c, 5, 77, 64
7, 103316, Note_on_c, 5, 76, 46
7, 103362, Note_off_c, 5, 76, 64
7, 103368, Note_on_c, 5, 77, 57
7, 103418, Note_off_c, 5, 77, 64
7, 103428, Note_on_c, 5, 79, 68
7, 103478, Note_off_c, 5, 79, 64
7, 103482, Note_on_c, 5, 77, 60
7, 103540, Note_off_c, 5, 77, 64
7, 103547, Note_on_c, 5, 76, 59
7, 103604, Note_off_c, 5, 76, 64
7, 103607, Note_on_c, 5, 74, 57
7, 103655, Note_off_c, 5, 74, 64
7, 103671, Note_on_c, 5, 72, 63
7, 103717, Note_off_c, 5, 72, 64
7, 103729, Note_on_c, 5, 76, 64
7, 103787, Note_on_c, 5, 74, 44
7, 103789, Note_off_c, 5, 76, 64
7, 103845, Note_on_c, 5, 76, 61
7, 103848, Note_off_c, 5, 74, 64
7, 103893, Note_off_c, 5, 76, 64
7, 103911, Note_on_c, 5, 77, 70
7, 104043, Note_off_c, 5, 77, 64
7, 104091, Note_on_c, 5, 77, 78
7, 104122, Note_off_c, 5, 77, 64
7, 104152, Note_on_c, 5, 77, 74
7, 104206, Note_off_c, 5, 77, 64
7, 104206, Note_on_c, 5, 76, 58
7, 104261, Note_off_c, 5, 76, 64
7, 104264, Note_on_c, 5, 77, 60
7, 104314, Note_off_c, 5, 77, 64
7, 104323, Note_on_c, 5, 74, 64
7, 104377, Note_off_c, 5, 74, 64
7, 104389, Note_on_c, 5, 76, 66
7, 104442, Note_off_c, 5, 76, 64
7, 104450, Note_on_c, 5, 79, 60
7, 104505, Note_off_c, 5, 79, 64
7, 104509, Note_on_c, 5, 77, 41
7, 104564, Note_on_c, 5, 79, 60
7, 104568, Note_off_c, 5, 77, 64
7, 104617, Note_off_c, 5, 79, 64
7, 104630, Note_on_c, 5, 81, 66
7, 104908, Note_off_c, 5, 81, 64
7, 104928, Note_on_c, 5, 74, 64
7, 104986, Note_on_c, 5, 76, 68
7, 104988, Note_off_c, 5, 74, 64
7, 105040, Note_off_c, 5, 76, 64
7, 105043, Note_on_c, 5, 77, 63
7, 105094, Note_off_c, 5, 77, 64
7, 105111, Note_on_c, 5, 79, 76
7, 105397, Note_off_c, 5, 79, 64
7, 105413, Note_on_c, 5, 72, 70
7, 105470, Note_on_c, 5, 74, 63
7, 105471, Note_off_c, 5, 72, 64
7, 105529, Note_on_c, 5, 76, 60
7, 105532, Note_off_c, 5, 74, 64
7, 105582, Note_off_c, 5, 76, 64
7, 105596, Note_on_c, 5, 77, 72
7, 105653, Note_on_c, 5, 76, 60
7, 105655, Note_off_c, 5, 77, 64
7, 105709, Note_off_c, 5, 76, 64
7, 105709, Note_on_c, 5, 74, 52
7, 105765, Note_off_c, 5, 74, 64
7, 105769, Note_on_c, 5, 72, 57
7, 105811, Note_off_c, 5, 72, 64
7, 105832, Note_on_c, 5, 71, 58
7, 105886, Note_off_c, 5, 71, 64
7, 105892, Note_on_c, 5, 74, 59
7, 105951, Note_off_c, 5, 74, 64
7, 105953, Note_on_c, 5, 76, 63
7, 106011, Note_on_c, 5, 77, 63
7, 106029, Note_off_c, 5, 76, 64
7, 106056, Note_off_c, 5, 77, 64
7, 106072, Note_on_c, 5, 76, 66
7, 106128, Note_on_c, 5, 79, 63
7, 106129, Note_off_c, 5, 76, 64
7, 106186, Note_off_c, 5, 79, 64
7, 106195, Note_on_c, 5, 77, 41
7, 106250, Note_on_c, 5, 79, 58
7, 106254, Note_off_c, 5, 77, 64
7, 106298, Note_off_c, 5, 79, 64
7, 106312, Note_on_c, 5, 81, 70
7, 106371, Note_on_c, 5, 79, 59
7, 106372, Note_off_c, 5, 81, 64
7, 106427, Note_off_c, 5, 79, 64
7, 106431, Note_on_c, 5, 77, 53
7, 106494, Note_off_c, 5, 77, 64
7, 106496, Note_on_c, 5, 76, 56
7, 106550, Note_off_c, 5, 76, 64
7, 106560, Note_on_c, 5, 74, 70
7, 106616, Note_off_c, 5, 74, 64
7, 106616, Note_on_c, 5, 77, 62
7, 106673, Note_off_c, 5, 77, 64
7, 106679, Note_on_c, 5, 76, 49
7, 106734, Note_off_c, 5, 76, 64
7, 106735, Note_on_c, 5, 77, 59
7, 106784, Note_off_c, 5, 77, 64
7, 106796, Note_on_c, 5, 79, 66
7, 106851, Note_off_c, 5, 79, 64
7, 106853, Note_on_c, 5, 77, 60
7, 106912, Note_off_c, 5, 77, 64
7, 106915, Note_on_c, 5, 76, 58
7, 106971, Note_off_c, 5, 76, 64
7, 106971, Note_on_c, 5, 74, 58
7, 107024, Note_off_c, 5, 74, 64
7, 107033, Note_on_c, 5, 72, 59
7, 107084, Note_off_c, 5, 72, 64
7, 107088, Note_on_c, 5, 76, 63
7, 107147, Note_on_c, 5, 74, 45
7, 107151, Note_off_c, 5, 76, 64
7, 107211, Note_on_c, 5, 76, 53
7, 107213, Note_off_c, 5, 74, 64
7, 107264, Note_off_c, 5, 76, 64
7, 107268, Note_on_c, 5, 77, 57
7, 107323, Note_off_c, 5, 77, 64
7, 107325, Note_on_c, 5, 76, 60
7, 107386, Note_off_c, 5, 76, 64
7, 107391, Note_on_c, 5, 74, 51
7, 107452, Note_off_c, 5, 74, 64
7, 107455, Note_on_c, 5, 72, 52
7, 107500, Note_off_c, 5, 72, 64
7, 107514, Note_on_c, 5, 71, 68
7, 107571, Note_off_c, 5, 71, 64
7, 107573, Note_on_c, 5, 74, 64
7, 107633, Note_off_c, 5, 74, 64
7, 107638, Note_on_c, 5, 72, 33
7, 107696, Note_off_c, 5, 72, 64
7, 107696, Note_on_c, 5, 74, 53
7, 107752, Note_off_c, 5, 74, 64
7, 107752, Note_on_c, 5, 76, 55
7, 107812, Note_on_c, 5, 74, 58
7, 107814, Note_off_c, 5, 76, 64
7, 107871, Note_off_c, 5, 74, 64
7, 107873, Note_on_c, 5, 72, 55
7, 107930, Note_off_c, 5, 72, 64
7, 107934, Note_on_c, 5, 71, 43
7, 107974, Note_off_c, 5, 71, 64
7, 107990, Note_on_c, 5, 69, 68
7, 108050, Note_off_c, 5, 69, 64
7, 108050, Note_on_c, 5, 72, 59
7, 108105, Note_off_c, 5, 72, 64
7, 108111, Note_on_c, 5, 71, 36
7, 108162, Note_on_c, 5, 72, 64
7, 108166, Note_off_c, 5, 71, 64
7, 108215, Note_off_c, 5, 72, 64
7, 108227, Note_on_c, 5, 74, 59
7, 108282, Note_on_c, 5, 72, 64
7, 108288, Note_off_c, 5, 74, 64
7, 108342, Note_on_c, 5, 71, 59
7, 108345, Note_off_c, 5, 72, 64
7, 108383, Note_off_c, 5, 71, 64
7, 108394, Note_on_c, 5, 69, 60
7, 108461, Note_off_c, 5, 69, 64
7, 108464, Note_on_c, 5, 71, 57
7, 108529, Note_off_c, 5, 71, 64
7, 108593, Note_on_c, 5, 79, 80
7, 108625, Note_off_c, 5, 79, 64
7, 108712, Note_on_c, 5, 79, 82
7, 108745, Note_off_c, 5, 79, 64
7, 108832, Note_on_c, 5, 79, 85
7, 108871, Note_off_c, 5, 79, 64
7, 108959, Note_on_c, 5, 76, 78
7, 109069, Note_off_c, 5, 76, 64
7, 109080, Note_on_c, 5, 77, 70
7, 109129, Note_off_c, 5, 77, 64
7, 109134, Note_on_c, 5, 79, 68
7, 109181, Note_off_c, 5, 79, 64
7, 109195, Note_on_c, 5, 81, 78
7, 109230, Note_off_c, 5, 81, 64
7, 109316, Note_on_c, 5, 77, 70
7, 109355, Note_off_c, 5, 77, 64
7, 109434, Note_on_c, 5, 74, 70
7, 109478, Note_off_c, 5, 74, 64
7, 109552, Note_on_c, 5, 79, 82
7, 109593, Note_off_c, 5, 79, 64
7, 109669, Note_on_c, 5, 67, 64
7, 109720, Note_off_c, 5, 67, 64
7, 109793, Note_on_c, 5, 77, 80
7, 109834, Note_off_c, 5, 77, 64
7, 109915, Note_on_c, 5, 76, 78
7, 110056, Note_off_c, 5, 76, 64
7, 110092, Note_on_c, 5, 74, 64
7, 110120, Note_off_c, 5, 74, 64
7, 110149, Note_on_c, 5, 76, 78
7, 110177, Note_on_c, 5, 74, 63
7, 110178, Note_off_c, 5, 76, 64
7, 110207, Note_on_c, 5, 76, 82
7, 110213, Note_off_c, 5, 74, 64
7, 110235, Note_on_c, 5, 74, 63
7, 110244, Note_off_c, 5, 76, 64
7, 110299, Note_off_c, 5, 74, 64
7, 110332, Note_on_c, 5, 72, 70
7, 110362, Note_off_c, 5, 72, 64
7, 110405, Note_on_c, 5, 72, 57
7, 110629, Note_off_c, 5, 72, 64
7, 124013, Note_on_c, 5, 74, 87
7, 124049, Note_off_c, 5, 74, 64
7, 124075, Note_on_c, 5, 76, 87
7, 124149, Note_off_c, 5, 76, 64
7, 124249, Note_on_c, 5, 77, 82
7, 124285, Note_off_c, 5, 77, 64
7, 124315, Note_on_c, 5, 76, 82
7, 124379, Note_on_c, 5, 74, 51
7, 124388, Note_off_c, 5, 76, 64
7, 124416, Note_on_c, 5, 76, 58
7, 124419, Note_off_c, 5, 74, 64
7, 124446, Note_on_c, 5, 74, 61
7, 124450, Note_off_c, 5, 76, 64
7, 124465, Note_off_c, 5, 74, 64
7, 124471, Note_on_c, 5, 76, 58
7, 124488, Note_on_c, 5, 74, 63
7, 124491, Note_off_c, 5, 76, 64
7, 124504, Note_off_c, 5, 74, 64
7, 124506, Note_on_c, 5, 76, 66
7, 124524, Note_on_c, 5, 74, 64
7, 124527, Note_off_c, 5, 76, 64
7, 124538, Note_off_c, 5, 74, 64
7, 124540, Note_on_c, 5, 76, 74
7, 124558, Note_on_c, 5, 74, 70
7, 124563, Note_off_c, 5, 76, 64
7, 124676, Note_off_c, 5, 74, 64
7, 124729, Note_on_c, 5, 72, 76
7, 124764, Note_off_c, 5, 72, 64
7, 124799, Note_on_c, 5, 72, 87
7, 124843, Note_off_c, 5, 72, 64
7, 149335, Note_on_c, 5, 77, 78
7, 149377, Note_off_c, 5, 77, 64
7, 149395, Note_on_c, 5, 76, 78
7, 149434, Note_off_c, 5, 76, 64
7, 149454, Note_on_c, 5, 74, 76
7, 149505, Note_off_c, 5, 74, 64
7, 149516, Note_on_c, 5, 72, 66
7, 149555, Note_off_c, 5, 72, 64
7, 149574, Note_on_c, 5, 71, 63
7, 149614, Note_off_c, 5, 71, 64
7, 149633, Note_on_c, 5, 72, 62
7, 149667, Note_off_c, 5, 72, 64
7, 149689, Note_on_c, 5, 69, 57
7, 149744, Note_off_c, 5, 69, 64
7, 149759, Note_on_c, 5, 76, 70
7, 150463, Note_off_c, 5, 76, 64
7, 150466, Note_on_c, 5, 75, 53
7, 150684, Note_off_c, 5, 75, 64
7, 150706, Note_on_c, 5, 76, 66
7, 151214, Note_off_c, 5, 76, 64
7, 151247, Note_on_c, 5, 77, 72
7, 151294, Note_off_c, 5, 77, 64
7, 151304, Note_on_c, 5, 76, 62
7, 151355, Note_off_c, 5, 76, 64
7, 151364, Note_on_c, 5, 74, 68
7, 151404, Note_off_c, 5, 74, 64
7, 151425, Note_on_c, 5, 73, 60
7, 151478, Note_off_c, 5, 73, 64
7, 151487, Note_on_c, 5, 71, 42
7, 151527, Note_off_c, 5, 71, 64
7, 151546, Note_on_c, 5, 73, 33
7, 151595, Note_off_c, 5, 73, 64
7, 151611, Note_on_c, 5, 69, 58
7, 151656, Note_off_c, 5, 69, 64
7, 151679, Note_on_c, 5, 74, 61
7, 152389, Note_off_c, 5, 74, 64
7, 152398, Note_on_c, 5, 73, 55
7, 152620, Note_off_c, 5, 73, 64
7, 152639, Note_on_c, 5, 74, 60
7, 153135, Note_off_c, 5, 74, 64
7, 153163, Note_on_c, 5, 76, 68
7, 153219, Note_off_c, 5, 76, 64
7, 153222, Note_on_c, 5, 74, 66
7, 153265, Note_off_c, 5, 74, 64
7, 153280, Note_on_c, 5, 72, 64
7, 153323, Note_off_c, 5, 72, 64
7, 153338, Note_on_c, 5, 71, 60
7, 153387, Note_off_c, 5, 71, 64
7, 153392, Note_on_c, 5, 69, 59
7, 153450, Note_on_c, 5, 71, 53
7, 153451, Note_off_c, 5, 69, 64
7, 153500, Note_off_c, 5, 71, 64
7, 153515, Note_on_c, 5, 67, 60
7, 153564, Note_off_c, 5, 67, 64
7, 153576, Note_on_c, 5, 72, 64
7, 154291, Note_off_c, 5, 72, 64
7, 154309, Note_on_c, 5, 71, 60
7, 154529, Note_off_c, 5, 71, 64
7, 154565, Note_on_c, 5, 72, 62
7, 154619, Note_on_c, 5, 71, 68
7, 154621, Note_off_c, 5, 72, 64
7, 154678, Note_off_c, 5, 71, 64
7, 154678, Note_on_c, 5, 72, 63
7, 154732, Note_off_c, 5, 72, 64
7, 154736, Note_on_c, 5, 74, 59
7, 154796, Note_off_c, 5, 74, 64
7, 154797, Note_on_c, 5, 76, 62
7, 154843, Note_off_c, 5, 76, 64
7, 154850, Note_on_c, 5, 74, 66
7, 154908, Note_on_c, 5, 76, 70
7, 154909, Note_off_c, 5, 74, 64
7, 154960, Note_off_c, 5, 76, 64
7, 154960, Note_on_c, 5, 78, 68
7, 155008, Note_off_c, 5, 78, 64
7, 155026, Note_on_c, 5, 79, 76
7, 155162, Note_off_c, 5, 79, 64
7, 155213, Note_on_c, 5, 74, 66
7, 155246, Note_off_c, 5, 74, 64
7, 155270, Note_on_c, 5, 79, 85
7, 155399, Note_off_c, 5, 79, 64
7, 155455, Note_on_c, 5, 79, 76
7, 155480, Note_off_c, 5, 79, 64
7, 155510, Note_on_c, 5, 79, 91
7, 155621, Note_off_c, 5, 79, 64
7, 155663, Note_on_c, 5, 78, 66
7, 155699, Note_on_c, 5, 76, 63
7, 155702, Note_off_c, 5, 78, 64
7, 155727, Note_on_c, 5, 78, 57
7, 155738, Note_off_c, 5, 76, 64
7, 155749, Note_off_c, 5, 78, 64
7, 155753, Note_on_c, 5, 79, 68
7, 155781, Note_on_c, 5, 78, 91
7, 155792, Note_off_c, 5, 79, 64
7, 155809, Note_on_c, 5, 79, 70
7, 155810, Note_off_c, 5, 78, 64
7, 155830, Note_on_c, 5, 78, 78
7, 155847, Note_off_c, 5, 79, 64
7, 155902, Note_off_c, 5, 78, 64
7, 155930, Note_on_c, 5, 79, 78
7, 155966, Note_off_c, 5, 79, 64
7, 155995, Note_on_c, 5, 79, 80
7, 156234, Note_off_c, 5, 79, 64
7, 156347, Note_on_c, 5, 76, 68
7, 156515, Note_off_c, 5, 76, 64
7, 156536, Note_on_c, 5, 79, 80
7, 156588, Note_off_c, 5, 79, 64
7, 156590, Note_on_c, 5, 78, 70
7, 156637, Note_off_c, 5, 78, 64
7, 156643, Note_on_c, 5, 76, 62
7, 156700, Note_off_c, 5, 76, 64
7, 156703, Note_on_c, 5, 74, 59
7, 156762, Note_on_c, 5, 72, 49
7, 156764, Note_off_c, 5, 74, 64
7, 156815, Note_off_c, 5, 72, 64
7, 156823, Note_on_c, 5, 71, 52
7, 156871, Note_off_c, 5, 71, 64
7, 156872, Note_on_c, 5, 69, 58
7, 156937, Note_off_c, 5, 69, 64
7, 156940, Note_on_c, 5, 67, 49
7, 156989, Note_off_c, 5, 67, 64
7, 157002, Note_on_c, 5, 71, 66
7, 157056, Note_off_c, 5, 71, 64
7, 157058, Note_on_c, 5, 69, 57
7, 157106, Note_off_c, 5, 69, 64
7, 157122, Note_on_c, 5, 67, 56
7, 157163, Note_off_c, 5, 67, 64
7, 157184, Note_on_c, 5, 72, 66
7, 157241, Note_on_c, 5, 76, 68
7, 157246, Note_off_c, 5, 72, 64
7, 157296, Note_off_c, 5, 76, 64
7, 157304, Note_on_c, 5, 74, 66
7, 157361, Note_on_c, 5, 72, 60
7, 157362, Note_off_c, 5, 74, 64
7, 157403, Note_off_c, 5, 72, 64
7, 157431, Note_on_c, 5, 81, 87
7, 157491, Note_off_c, 5, 81, 64
7, 157547, Note_on_c, 5, 74, 70
7, 157606, Note_off_c, 5, 74, 64
7, 157683, Note_on_c, 5, 79, 82
7, 157829, Note_off_c, 5, 79, 64
7, 157864, Note_on_c, 5, 79, 78
7, 157891, Note_off_c, 5, 79, 64
7, 157923, Note_on_c, 5, 79, 87
7, 157973, Note_off_c, 5, 79, 64
7, 157977, Note_on_c, 5, 78, 72
7, 158017, Note_off_c, 5, 78, 64
7, 158034, Note_on_c, 5, 79, 80
7, 158072, Note_off_c, 5, 79, 64
7, 158089, Note_on_c, 5, 76, 66
7, 158125, Note_off_c, 5, 76, 64
7, 158148, Note_on_c, 5, 78, 63
7, 158291, Note_off_c, 5, 78, 64
7, 158328, Note_on_c, 5, 78, 89
7, 158360, Note_off_c, 5, 78, 64
7, 158386, Note_on_c, 5, 78, 91
7, 158430, Note_off_c, 5, 78, 64
7, 158513, Note_on_c, 5, 71, 72
7, 158560, Note_off_c, 5, 71, 64
7, 158640, Note_on_c, 5, 76, 78
7, 158786, Note_off_c, 5, 76, 64
7, 158820, Note_on_c, 5, 76, 70
7, 158847, Note_off_c, 5, 76, 64
7, 158883, Note_on_c, 5, 76, 85
7, 158930, Note_off_c, 5, 76, 64
7, 158936, Note_on_c, 5, 74, 78
7, 158974, Note_off_c, 5, 74, 64
7, 158993, Note_on_c, 5, 76, 87
7, 159030, Note_off_c, 5, 76, 64
7, 159046, Note_on_c, 5, 72, 76
7, 159084, Note_off_c, 5, 72, 64
7, 159112, Note_on_c, 5, 74, 70
7, 159250, Note_off_c, 5, 74, 64
7, 159282, Note_on_c, 5, 74, 82
7, 159318, Note_off_c, 5, 74, 64
7, 159346, Note_on_c, 5, 74, 87
7, 159389, Note_off_c, 5, 74, 64
7, 159471, Note_on_c, 5, 67, 78
7, 159526, Note_off_c, 5, 67, 64
7, 159590, Note_on_c, 5, 72, 80
7, 159737, Note_off_c, 5, 72, 64
7, 159777, Note_on_c, 5, 72, 78
7, 159811, Note_off_c, 5, 72, 64
7, 159838, Note_on_c, 5, 72, 87
7, 159884, Note_off_c, 5, 72, 64
7, 159893, Note_on_c, 5, 76, 66
7, 159939, Note_off_c, 5, 76, 64
7, 159951, Note_on_c, 5, 74, 74
7, 160002, Note_on_c, 5, 72, 60
7, 160003, Note_off_c, 5, 74, 64
7, 160059, Note_off_c, 5, 72, 64
7, 160065, Note_on_c, 5, 71, 66
7, 160116, Note_off_c, 5, 71, 64
7, 160119, Note_on_c, 5, 69, 57
7, 160171, Note_off_c, 5, 69, 64
7, 160188, Note_on_c, 5, 67, 64
7, 160241, Note_off_c, 5, 67, 64
7, 160247, Note_on_c, 5, 66, 85
7, 160304, Note_off_c, 5, 66, 64
7, 160307, Note_on_c, 5, 67, 72
7, 160363, Note_off_c, 5, 67, 64
7, 160364, Note_on_c, 5, 71, 60
7, 160412, Note_off_c, 5, 71, 64
7, 160426, Note_on_c, 5, 76, 78
7, 160477, Note_on_c, 5, 74, 70
7, 160480, Note_off_c, 5, 76, 64
7, 160529, Note_off_c, 5, 74, 64
7, 160544, Note_on_c, 5, 72, 58
7, 160592, Note_off_c, 5, 72, 64
7, 160594, Note_on_c, 5, 71, 56
7, 160649, Note_off_c, 5, 71, 64
7, 160660, Note_on_c, 5, 69, 57
7, 160707, Note_off_c, 5, 69, 64
7, 160717, Note_on_c, 5, 67, 63
7, 160745, Note_off_c, 5, 67, 64
7, 160789, Note_on_c, 5, 78, 82
7, 160844, Note_on_c, 5, 76, 62
7, 160845, Note_off_c, 5, 78, 64
7, 160905, Note_off_c, 5, 76, 64
7, 160913, Note_on_c, 5, 74, 58
7, 160957, Note_off_c, 5, 74, 64
7, 160965, Note_on_c, 5, 76, 59
7, 161012, Note_off_c, 5, 76, 64
7, 161027, Note_on_c, 5, 78, 80
7, 161079, Note_off_c, 5, 78, 64
7, 161079, Note_on_c, 5, 76, 70
7, 161125, Note_off_c, 5, 76, 64
7, 161142, Note_on_c, 5, 78, 72
7, 161186, Note_off_c, 5, 78, 64
7, 161198, Note_on_c, 5, 74, 70
7, 161239, Note_off_c, 5, 74, 64
7, 161265, Note_on_c, 5, 79, 85
7, 161402, Note_off_c, 5, 79, 64
7, 161443, Note_on_c, 5, 81, 66
7, 161470, Note_off_c, 5, 81, 64
7, 161515, Note_on_c, 5, 79, 85
7, 161536, Note_on_c, 5, 78, 82
7, 161543, Note_off_c, 5, 79, 64
7, 161561, Note_on_c, 5, 79, 63
7, 161564, Note_off_c, 5, 78, 64
7, 161591, Note_on_c, 5, 78, 68
7, 161605, Note_off_c, 5, 79, 64
7, 161652, Note_off_c, 5, 78, 64
7, 161688, Note_on_c, 5, 79, 70
7, 161725, Note_off_c, 5, 79, 64
7, 161760, Note_on_c, 5, 79, 87
7, 161832, Note_off_c, 5, 79, 64
7, 179384, Note_on_c, 5, 81, 70
7, 179540, Note_off_c, 5, 81, 64
7, 179572, Note_on_c, 5, 84, 66
7, 179630, Note_off_c, 5, 84, 64
7, 179631, Note_on_c, 5, 83, 62
7, 179676, Note_off_c, 5, 83, 64
7, 179688, Note_on_c, 5, 81, 64
7, 179747, Note_off_c, 5, 81, 64
7, 179750, Note_on_c, 5, 79, 61
7, 179804, Note_off_c, 5, 79, 64
7, 179807, Note_on_c, 5, 77, 60
7, 179861, Note_off_c, 5, 77, 64
7, 179863, Note_on_c, 5, 76, 58
7, 179920, Note_off_c, 5, 76, 64
7, 179927, Note_on_c, 5, 74, 53
7, 179984, Note_off_c, 5, 74, 64
7, 179996, Note_on_c, 5, 72, 66
7, 180049, Note_off_c, 5, 72, 64
7, 180055, Note_on_c, 5, 76, 61
7, 180113, Note_off_c, 5, 76, 64
7, 180113, Note_on_c, 5, 74, 52
7, 180171, Note_on_c, 5, 72, 60
7, 180173, Note_off_c, 5, 74, 64
7, 180218, Note_off_c, 5, 72, 64
7, 180235, Note_on_c, 5, 77, 74
7, 180379, Note_off_c, 5, 77, 64
7, 180418, Note_on_c, 5, 77, 80
7, 180450, Note_off_c, 5, 77, 64
7, 180485, Note_on_c, 5, 77, 82
7, 180540, Note_off_c, 5, 77, 64
7, 180540, Note_on_c, 5, 76, 66
7, 180589, Note_off_c, 5, 76, 64
7, 180600, Note_on_c, 5, 74, 68
7, 180651, Note_on_c, 5, 76, 58
7, 180652, Note_off_c, 5, 74, 64
7, 180681, Note_off_c, 5, 76, 64
7, 180716, Note_on_c, 5, 77, 76
7, 180742, Note_on_c, 5, 76, 64
7, 180744, Note_off_c, 5, 77, 64
7, 180773, Note_on_c, 5, 77, 72
7, 180774, Note_off_c, 5, 76, 64
7, 180797, Note_on_c, 5, 76, 72
7, 180809, Note_off_c, 5, 77, 64
7, 180858, Note_off_c, 5, 76, 64
7, 180892, Note_on_c, 5, 76, 78
7, 180927, Note_off_c, 5, 76, 64
7, 180954, Note_on_c, 5, 76, 85
7, 181007, Note_off_c, 5, 76, 64
7, 181013, Note_on_c, 5, 69, 66
7, 181070, Note_on_c, 5, 71, 53
7, 181071, Note_off_c, 5, 69, 64
7, 181115, Note_off_c, 5, 71, 64
7, 181127, Note_on_c, 5, 72, 64
7, 181170, Note_off_c, 5, 72, 64
7, 181198, Note_on_c, 5, 74, 74
7, 181336, Note_off_c, 5, 74, 64
7, 181378, Note_on_c, 5, 74, 82
7, 181411, Note_off_c, 5, 74, 64
7, 181448, Note_on_c, 5, 74, 87
7, 181499, Note_off_c, 5, 74, 64
7, 181500, Note_on_c, 5, 72, 66
7, 181545, Note_off_c, 5, 72, 64
7, 181556, Note_on_c, 5, 74, 60
7, 181611, Note_off_c, 5, 74, 64
7, 181616, Note_on_c, 5, 71, 64
7, 181666, Note_off_c, 5, 71, 64
7, 181682, Note_on_c, 5, 72, 66
7, 181733, Note_off_c, 5, 72, 64
7, 181741, Note_on_c, 5, 76, 68
7, 181787, Note_off_c, 5, 76, 64
7, 181794, Note_on_c, 5, 74, 55
7, 181849, Note_off_c, 5, 74, 64
7, 181855, Note_on_c, 5, 76, 64
7, 181898, Note_off_c, 5, 76, 64
7, 181917, Note_on_c, 5, 77, 82
7, 181975, Note_off_c, 5, 77, 64
7, 181975, Note_on_c, 5, 79, 72
7, 182030, Note_off_c, 5, 79, 64
7, 182038, Note_on_c, 5, 77, 70
7, 182092, Note_off_c, 5, 77, 64
7, 182094, Note_on_c, 5, 76, 70
7, 182149, Note_off_c, 5, 76, 64
7, 182155, Note_on_c, 5, 74, 70
7, 182204, Note_off_c, 5, 74, 64
7, 182211, Note_on_c, 5, 72, 58
7, 182264, Note_off_c, 5, 72, 64
7, 182271, Note_on_c, 5, 74, 63
7, 182327, Note_on_c, 5, 71, 60
7, 182330, Note_off_c, 5, 74, 64
7, 182370, Note_off_c, 5, 71, 64
7, 182392, Note_on_c, 5, 72, 66
7, 182452, Note_on_c, 5, 74, 70
7, 182453, Note_off_c, 5, 72, 64
7, 182516, Note_on_c, 5, 76, 64
7, 182519, Note_off_c, 5, 74, 64
7, 182562, Note_off_c, 5, 76, 64
7, 182567, Note_on_c, 5, 77, 72
7, 182625, Note_off_c, 5, 77, 64
7, 182629, Note_on_c, 5, 79, 57
7, 182685, Note_off_c, 5, 79, 64
7, 182689, Note_on_c, 5, 81, 72
7, 182750, Note_off_c, 5, 81, 64
7, 182751, Note_on_c, 5, 82, 68
7, 182801, Note_off_c, 5, 82, 64
7, 182805, Note_on_c, 5, 79, 58
7, 182849, Note_off_c, 5, 79, 64
7, 182872, Note_on_c, 5, 81, 82
7, 182928, Note_on_c, 5, 82, 59
7, 182935, Note_off_c, 5, 81, 64
7, 182981, Note_off_c, 5, 82, 64
7, 182991, Note_on_c, 5, 81, 64
7, 183048, Note_on_c, 5, 79, 66
7, 183056, Note_off_c, 5, 81, 64
7, 183104, Note_off_c, 5, 79, 64
7, 183107, Note_on_c, 5, 77, 59
7, 183157, Note_off_c, 5, 77, 64
7, 183163, Note_on_c, 5, 76, 57
7, 183224, Note_on_c, 5, 74, 56
7, 183229, Note_off_c, 5, 76, 64
7, 183278, Note_off_c, 5, 74, 64
7, 183280, Note_on_c, 5, 72, 60
7, 183322, Note_off_c, 5, 72, 64
7, 183350, Note_on_c, 5, 71, 72
7, 183399, Note_off_c, 5, 71, 64
7, 183405, Note_on_c, 5, 76, 60
7, 183467, Note_off_c, 5, 76, 64
7, 183468, Note_on_c, 5, 74, 70
7, 183521, Note_off_c, 5, 74, 64
7, 183531, Note_on_c, 5, 72, 56
7, 183576, Note_off_c, 5, 72, 64
7, 183591, Note_on_c, 5, 71, 70
7, 183636, Note_off_c, 5, 71, 64
7, 183640, Note_on_c, 5, 69, 63
7, 183706, Note_off_c, 5, 69, 64
7, 183708, Note_on_c, 5, 71, 63
7, 183758, Note_off_c, 5, 71, 64
7, 183768, Note_on_c, 5, 67, 60
7, 183814, Note_off_c, 5, 67, 64
7, 183831, Note_on_c, 5, 72, 63
7, 184554, Note_off_c, 5, 72, 64
7, 184560, Note_on_c, 5, 71, 68
7, 184758, Note_off_c, 5, 71, 64
7, 184797, Note_on_c, 5, 72, 76
7, 184853, Note_off_c, 5, 72, 64
7, 184856, Note_on_c, 5, 71, 59
7, 184923, Note_on_c, 5, 72, 64
7, 184928, Note_off_c, 5, 71, 64
7, 184983, Note_on_c, 5, 74, 68
7, 184989, Note_off_c, 5, 72, 64
7, 185048, Note_on_c, 5, 76, 76
7, 185053, Note_off_c, 5, 74, 64
7, 185094, Note_off_c, 5, 76, 64
7, 185105, Note_on_c, 5, 74, 66
7, 185158, Note_off_c, 5, 74, 64
7, 185170, Note_on_c, 5, 76, 59
7, 185214, Note_on_c, 5, 78, 56
7, 185221, Note_off_c, 5, 76, 64
7, 185257, Note_off_c, 5, 78, 64
7, 185276, Note_on_c, 5, 79, 80
7, 185408, Note_off_c, 5, 79, 64
7, 185462, Note_on_c, 5, 74, 68
7, 185494, Note_off_c, 5, 74, 64
7, 185527, Note_on_c, 5, 79, 87
7, 185651, Note_off_c, 5, 79, 64
7, 185699, Note_on_c, 5, 79, 82
7, 185725, Note_off_c, 5, 79, 64
7, 185756, Note_on_c, 5, 79, 91
7, 185872, Note_off_c, 5, 79, 64
7, 185916, Note_on_c, 5, 78, 64
7, 185951, Note_on_c, 5, 76, 64
7, 185952, Note_off_c, 5, 78, 64
7, 185981, Note_on_c, 5, 78, 53
7, 185990, Note_off_c, 5, 76, 64
7, 186001, Note_off_c, 5, 78, 64
7, 186005, Note_on_c, 5, 79, 66
7, 186029, Note_on_c, 5, 78, 64
7, 186040, Note_off_c, 5, 79, 64
7, 186054, Note_on_c, 5, 79, 72
7, 186063, Note_off_c, 5, 78, 64
7, 186095, Note_on_c, 5, 78, 66
7, 186106, Note_off_c, 5, 79, 64
7, 186146, Note_off_c, 5, 78, 64
7, 186178, Note_on_c, 5, 79, 87
7, 186212, Note_off_c, 5, 79, 64
7, 186243, Note_on_c, 5, 79, 93
7, 186342, Note_off_c, 5, 79, 64
7, 186359, Note_on_c, 5, 77, 70
7, 186408, Note_on_c, 5, 76, 66
7, 186409, Note_off_c, 5, 77, 64
7, 186446, Note_off_c, 5, 76, 64
7, 186464, Note_on_c, 5, 74, 66
7, 186517, Note_off_c, 5, 74, 64
7, 186519, Note_on_c, 5, 71, 66
7, 186573, Note_off_c, 5, 71, 64
7, 186584, Note_on_c, 5, 72, 60
7, 186630, Note_off_c, 5, 72, 64
7, 186637, Note_on_c, 5, 74, 64
7, 186680, Note_off_c, 5, 74, 64
7, 186708, Note_on_c, 5, 67, 68
7, 186750, Note_off_c, 5, 67, 64
7, 186835, Note_on_c, 5, 79, 80
7, 186878, Note_off_c, 5, 79, 64
7, 186963, Note_on_c, 5, 76, 68
7, 187005, Note_off_c, 5, 76, 64
7, 187076, Note_on_c, 5, 81, 85
7, 187123, Note_off_c, 5, 81, 64
7, 187199, Note_on_c, 5, 77, 87
7, 187257, Note_off_c, 5, 77, 64
7, 187257, Note_on_c, 5, 79, 72
7, 187304, Note_off_c, 5, 79, 64
7, 187320, Note_on_c, 5, 77, 60
7, 187373, Note_off_c, 5, 77, 64
7, 187376, Note_on_c, 5, 76, 58
7, 187425, Note_off_c, 5, 76, 64
7, 187441, Note_on_c, 5, 74, 68
7, 187492, Note_off_c, 5, 74, 64
7, 187499, Note_on_c, 5, 77, 72
7, 187557, Note_off_c, 5, 77, 64
7, 187560, Note_on_c, 5, 76, 59
7, 187610, Note_off_c, 5, 76, 64
7, 187615, Note_on_c, 5, 74, 66
7, 187652, Note_off_c, 5, 74, 64
7, 187678, Note_on_c, 5, 79, 87
7, 187730, Note_on_c, 5, 77, 80
7, 187736, Note_off_c, 5, 79, 64
7, 187787, Note_off_c, 5, 77, 64
7, 187795, Note_on_c, 5, 76, 62
7, 187850, Note_on_c, 5, 74, 61
7, 187856, Note_off_c, 5, 76, 64
7, 187911, Note_off_c, 5, 74, 64
7, 187913, Note_on_c, 5, 72, 66
7, 187958, Note_off_c, 5, 72, 64
7, 187972, Note_on_c, 5, 71, 52
7, 188023, Note_off_c, 5, 71, 64
7, 188033, Note_on_c, 5, 72, 57
7, 188076, Note_off_c, 5, 72, 64
7, 188088, Note_on_c, 5, 69, 58
7, 188129, Note_off_c, 5, 69, 64
7, 188158, Note_on_c, 5, 74, 74
7, 188252, Note_off_c, 5, 74, 64
7, 188277, Note_on_c, 5, 76, 66
7, 188318, Note_off_c, 5, 76, 64
7, 188331, Note_on_c, 5, 78, 61
7, 188371, Note_off_c, 5, 78, 64
7, 188396, Note_on_c, 5, 79, 78
7, 188489, Note_off_c, 5, 79, 64
7, 188513, Note_on_c, 5, 81, 72
7, 188553, Note_off_c, 5, 81, 64
7, 188567, Note_on_c, 5, 83, 80
7, 188605, Note_off_c, 5, 83, 64
7, 188634, Note_on_c, 5, 84, 85
7, 188757, Note_off_c, 5, 84, 64
7, 188804, Note_on_c, 5, 83, 57
7, 188824, Note_off_c, 5, 83, 64
7, 188864, Note_on_c, 5, 83, 87
7, 188886, Note_on_c, 5, 81, 78
7, 188888, Note_off_c, 5, 83, 64
7, 188910, Note_on_c, 5, 83, 57
7, 188915, Note_off_c, 5, 81, 64
7, 188942, Note_on_c, 5, 81, 66
7, 188953, Note_off_c, 5, 83, 64
7, 189005, Note_off_c, 5, 81, 64
7, 189047, Note_on_c, 5, 79, 70
7, 189079, Note_off_c, 5, 79, 64
7, 189112, Note_on_c, 5, 79, 74
7, 189212, Note_off_c, 5, 79, 64
7, 189231, Note_on_c, 5, 77, 60
7, 189292, Note_off_c, 5, 77, 64
7, 189296, Note_on_c, 5, 76, 52
7, 189347, Note_off_c, 5, 76, 64
7, 189357, Note_on_c, 5, 74, 64
7, 189408, Note_off_c, 5, 74, 64
7, 189413, Note_on_c, 5, 76, 57
7, 189458, Note_off_c, 5, 76, 64
7, 189470, Note_on_c, 5, 77, 59
7, 189521, Note_off_c, 5, 77, 64
7, 189524, Note_on_c, 5, 74, 60
7, 189570, Note_off_c, 5, 74, 64
7, 189588, Note_on_c, 5, 76, 80
7, 189632, Note_off_c, 5, 76, 64
7, 189714, Note_on_c, 5, 72, 68
7, 189758, Note_off_c, 5, 72, 64
7, 189843, Note_on_c, 5, 84, 85
7, 189983, Note_off_c, 5, 84, 64
7, 190027, Note_on_c, 5, 84, 76
7, 190053, Note_off_c, 5, 84, 64
7, 190083, Note_on_c, 5, 84, 87
7, 190128, Note_off_c, 5, 84, 64
7, 190142, Note_on_c, 5, 82, 80
7, 190187, Note_off_c, 5, 82, 64
7, 190203, Note_on_c, 5, 84, 87
7, 190241, Note_off_c, 5, 84, 64
7, 190252, Note_on_c, 5, 81, 68
7, 190290, Note_off_c, 5, 81, 64
7, 190315, Note_on_c, 5, 82, 85
7, 190442, Note_off_c, 5, 82, 64
7, 190497, Note_on_c, 5, 82, 76
7, 190526, Note_off_c, 5, 82, 64
7, 190554, Note_on_c, 5, 82, 85
7, 190596, Note_off_c, 5, 82, 64
7, 190679, Note_on_c, 5, 76, 66
7, 190721, Note_off_c, 5, 76, 64
7, 190798, Note_on_c, 5, 81, 82
7, 190930, Note_off_c, 5, 81, 64
7, 190984, Note_on_c, 5, 81, 85
7, 191015, Note_off_c, 5, 81, 64
7, 191042, Note_on_c, 5, 81, 82
7, 191088, Note_off_c, 5, 81, 64
7, 191098, Note_on_c, 5, 79, 72
7, 191138, Note_off_c, 5, 79, 64
7, 191154, Note_on_c, 5, 81, 78
7, 191201, Note_off_c, 5, 81, 64
7, 191212, Note_on_c, 5, 77, 70
7, 191247, Note_off_c, 5, 77, 64
7, 191273, Note_on_c, 5, 79, 80
7, 191404, Note_off_c, 5, 79, 64
7, 191447, Note_on_c, 5, 79, 68
7, 191482, Note_off_c, 5, 79, 64
7, 191507, Note_on_c, 5, 79, 80
7, 191550, Note_off_c, 5, 79, 64
7, 191635, Note_on_c, 5, 72, 76
7, 191676, Note_off_c, 5, 72, 64
7, 191748, Note_on_c, 5, 77, 80
7, 191889, Note_off_c, 5, 77, 64
7, 191940, Note_on_c, 5, 77, 72
7, 191973, Note_off_c, 5, 77, 64
7, 192003, Note_on_c, 5, 77, 85
7, 192058, Note_off_c, 5, 77, 64
7, 192060, Note_on_c, 5, 81, 76
7, 192112, Note_off_c, 5, 81, 64
7, 192117, Note_on_c, 5, 79, 70
7, 192163, Note_off_c, 5, 79, 64
7, 192173, Note_on_c, 5, 77, 64
7, 192231, Note_on_c, 5, 76, 57
7, 192243, Note_off_c, 5, 77, 64
7, 192288, Note_off_c, 5, 76, 64
7, 192289, Note_on_c, 5, 74, 58
7, 192343, Note_on_c, 5, 72, 54
7, 192347, Note_off_c, 5, 74, 64
7, 192402, Note_on_c, 5, 71, 49
7, 192407, Note_off_c, 5, 72, 64
7, 192454, Note_off_c, 5, 71, 64
7, 192469, Note_on_c, 5, 72, 70
7, 192520, Note_off_c, 5, 72, 64
7, 192525, Note_on_c, 5, 76, 52
7, 192578, Note_off_c, 5, 76, 64
7, 192593, Note_on_c, 5, 81, 82
7, 192649, Note_off_c, 5, 81, 64
7, 192653, Note_on_c, 5, 79, 66
7, 192701, Note_off_c, 5, 79, 64
7, 192716, Note_on_c, 5, 77, 60
7, 192772, Note_on_c, 5, 76, 60
7, 192784, Note_off_c, 5, 77, 64
7, 192831, Note_off_c, 5, 76, 64
7, 192837, Note_on_c, 5, 74, 64
7, 192886, Note_off_c, 5, 74, 64
7, 192895, Note_on_c, 5, 72, 47
7, 192926, Note_off_c, 5, 72, 64
7, 192956, Note_on_c, 5, 71, 74
7, 193011, Note_on_c, 5, 69, 61
7, 193022, Note_off_c, 5, 71, 64
7, 193069, Note_off_c, 5, 69, 64
7, 193076, Note_on_c, 5, 67, 60
7, 193129, Note_off_c, 5, 67, 64
7, 193132, Note_on_c, 5, 69, 63
7, 193182, Note_off_c, 5, 69, 64
7, 193198, Note_on_c, 5, 71, 78
7, 193247, Note_on_c, 5, 69, 58
7, 193251, Note_off_c, 5, 71, 64
7, 193302, Note_off_c, 5, 69, 64
7, 193308, Note_on_c, 5, 71, 64
7, 193352, Note_off_c, 5, 71, 64
7, 193364, Note_on_c, 5, 67, 63
7, 193405, Note_off_c, 5, 67, 64
7, 193425, Note_on_c, 5, 72, 78
7, 193567, Note_off_c, 5, 72, 64
7, 193609, Note_on_c, 5, 74, 66
7, 193635, Note_off_c, 5, 74, 64
7, 193674, Note_on_c, 5, 72, 82
7, 193698, Note_on_c, 5, 71, 80
7, 193702, Note_off_c, 5, 72, 64
7, 193726, Note_on_c, 5, 72, 76
7, 193727, Note_off_c, 5, 71, 64
7, 193756, Note_on_c, 5, 71, 66
7, 193767, Note_off_c, 5, 72, 64
7, 193808, Note_off_c, 5, 71, 64
7, 193843, Note_on_c, 5, 72, 76
7, 193872, Note_off_c, 5, 72, 64
7, 193913, Note_on_c, 5, 72, 72
7, 194154, Note_off_c, 5, 72, 64
7, 204762, Note_on_c, 5, 72, 82
7, 204801, Note_off_c, 5, 72, 64
7, 204820, Note_on_c, 5, 70, 82
7, 204854, Note_off_c, 5, 70, 64
7, 204882, Note_on_c, 5, 69, 85
7, 204916, Note_off_c, 5, 69, 64
7, 204943, Note_on_c, 5, 67, 74
7, 205328, Note_off_c, 5, 67, 64
7, 205379, Note_on_c, 5, 69, 82
7, 205418, Note_off_c, 5, 69, 64
7, 205441, Note_on_c, 5, 70, 80
7, 205525, Note_off_c, 5, 70, 64
7, 205607, Note_on_c, 5, 70, 70
7, 205650, Note_off_c, 5, 70, 64
7, 205671, Note_on_c, 5, 72, 82
7, 205748, Note_off_c, 5, 72, 64
7, 205850, Note_on_c, 5, 74, 87
7, 205889, Note_off_c, 5, 74, 64
7, 205909, Note_on_c, 5, 67, 82
7, 206002, Note_off_c, 5, 67, 64
7, 206090, Note_on_c, 5, 67, 80
7, 206131, Note_off_c, 5, 67, 64
7, 206156, Note_on_c, 5, 69, 85
7, 206233, Note_off_c, 5, 69, 64
7, 206328, Note_on_c, 5, 70, 68
7, 206360, Note_off_c, 5, 70, 64
7, 206397, Note_on_c, 5, 70, 89
7, 206515, Note_on_c, 5, 69, 68
7, 206521, Note_off_c, 5, 70, 64
7, 206641, Note_off_c, 5, 69, 64
7, 206692, Note_on_c, 5, 69, 87
7, 206742, Note_off_c, 5, 69, 64
7, 206757, Note_on_c, 5, 71, 85
7, 206799, Note_off_c, 5, 71, 64
7, 206812, Note_on_c, 5, 73, 80
7, 206854, Note_off_c, 5, 73, 64
7, 206870, Note_on_c, 5, 74, 87
7, 206916, Note_off_c, 5, 74, 64
7, 206932, Note_on_c, 5, 73, 85
7, 206968, Note_off_c, 5, 73, 64
7, 206989, Note_on_c, 5, 74, 76
7, 207038, Note_off_c, 5, 74, 64
7, 207050, Note_on_c, 5, 76, 70
7, 207089, Note_off_c, 5, 76, 64
7, 207112, Note_on_c, 5, 77, 91
7, 207158, Note_off_c, 5, 77, 64
7, 207169, Note_on_c, 5, 76, 87
7, 207214, Note_off_c, 5, 76, 64
7, 207231, Note_on_c, 5, 77, 85
7, 207267, Note_off_c, 5, 77, 64
7, 207285, Note_on_c, 5, 74, 87
7, 207331, Note_off_c, 5, 74, 64
7, 207351, Note_on_c, 5, 79, 85
7, 207712, Note_off_c, 5, 79, 64
7, 207770, Note_on_c, 5, 79, 76
7, 207806, Note_off_c, 5, 79, 64
7, 207832, Note_on_c, 5, 79, 66
7, 207958, Note_off_c, 5, 79, 64
7, 208012, Note_on_c, 5, 81, 76
7, 208032, Note_on_c, 5, 82, 72
7, 208038, Note_off_c, 5, 81, 64
7, 208058, Note_off_c, 5, 82, 64
7, 208071, Note_on_c, 5, 81, 89
7, 208166, Note_off_c, 5, 81, 64
7, 208254, Note_on_c, 5, 79, 70
7, 208275, Note_on_c, 5, 77, 60
7, 208285, Note_off_c, 5, 79, 64
7, 208295, Note_on_c, 5, 76, 74
7, 208303, Note_off_c, 5, 77, 64
7, 208320, Note_off_c, 5, 76, 64
7, 208326, Note_on_c, 5, 77, 80
7, 208427, Note_off_c, 5, 77, 64
7, 208490, Note_on_c, 5, 74, 82
7, 208523, Note_off_c, 5, 74, 64
7, 208547, Note_on_c, 5, 77, 89
7, 208652, Note_off_c, 5, 77, 64
7, 208725, Note_on_c, 5, 81, 85
7, 208756, Note_off_c, 5, 81, 64
7, 208786, Note_on_c, 5, 79, 85
7, 208845, Note_on_c, 5, 78, 68
7, 208852, Note_off_c, 5, 79, 64
7, 208877, Note_on_c, 5, 79, 64
7, 208879, Note_off_c, 5, 78, 64
7, 208905, Note_on_c, 5, 78, 64
7, 208910, Note_off_c, 5, 79, 64
7, 208927, Note_off_c, 5, 78, 64
7, 208930, Note_on_c, 5, 79, 64
7, 208952, Note_on_c, 5, 78, 64
7, 208956, Note_off_c, 5, 79, 64
7, 208971, Note_off_c, 5, 78, 64
7, 208976, Note_on_c, 5, 79, 59
7, 208994, Note_on_c, 5, 78, 66
7, 208998, Note_off_c, 5, 79, 64
7, 209015, Note_off_c, 5, 78, 64
7, 209020, Note_on_c, 5, 79, 56
7, 209038, Note_on_c, 5, 78, 64
7, 209045, Note_off_c, 5, 79, 64
7, 209059, Note_off_c, 5, 78, 64
7, 209062, Note_on_c, 5, 79, 59
7, 209083, Note_on_c, 5, 78, 63
7, 209087, Note_off_c, 5, 79, 64
7, 209101, Note_off_c, 5, 78, 64
7, 209104, Note_on_c, 5, 79, 61
7, 209125, Note_on_c, 5, 78, 55
7, 209131, Note_off_c, 5, 79, 64
7, 209141, Note_off_c, 5, 78, 64
7, 209144, Note_on_c, 5, 79, 70
7, 209162, Note_on_c, 5, 78, 51
7, 209167, Note_off_c, 5, 79, 64
7, 209175, Note_off_c, 5, 78, 64
7, 209178, Note_on_c, 5, 79, 80
7, 209193, Note_on_c, 5, 78, 59
7, 209203, Note_off_c, 5, 79, 64
7, 209220, Note_off_c, 5, 78, 64
7, 209221, Note_on_c, 5, 76, 66
7, 209240, Note_on_c, 5, 78, 74
7, 209253, Note_off_c, 5, 76, 64
7, 209266, Note_off_c, 5, 78, 64
7, 209273, Note_on_c, 5, 79, 78
7, 209776, Note_off_c, 5, 79, 64
7, 209812, Note_on_c, 5, 81, 80
7, 209855, Note_off_c, 5, 81, 64
7, 209871, Note_on_c, 5, 79, 80
7, 209913, Note_off_c, 5, 79, 64
7, 209930, Note_on_c, 5, 77, 82
7, 209970, Note_off_c, 5, 77, 64
7, 209992, Note_on_c, 5, 76, 76
7, 210032, Note_off_c, 5, 76, 64
7, 210046, Note_on_c, 5, 74, 70
7, 210094, Note_off_c, 5, 74, 64
7, 210110, Note_on_c, 5, 76, 80
7, 210152, Note_off_c, 5, 76, 64
7, 210167, Note_on_c, 5, 72, 82
7, 210217, Note_off_c, 5, 72, 64
7, 210234, Note_on_c, 5, 81, 78
7, 210727, Note_off_c, 5, 81, 64
7, 210770, Note_on_c, 5, 79, 80
7, 210810, Note_off_c, 5, 79, 64
7, 210826, Note_on_c, 5, 81, 72
7, 210866, Note_off_c, 5, 81, 64
7, 210882, Note_on_c, 5, 83, 78
7, 210922, Note_off_c, 5, 83, 64
7, 210938, Note_on_c, 5, 84, 64
7, 210974, Note_off_c, 5, 84, 64
7, 210996, Note_on_c, 5, 81, 72
7, 211037, Note_off_c, 5, 81, 64
7, 211057, Note_on_c, 5, 83, 82
7, 211098, Note_off_c, 5, 83, 64
7, 211118, Note_on_c, 5, 84, 78
7, 211158, Note_off_c, 5, 84, 64
7, 211180, Note_on_c, 5, 77, 78
7, 211223, Note_off_c, 5, 77, 64
7, 211242, Note_on_c, 5, 76, 78
7, 211285, Note_off_c, 5, 76, 64
7, 211306, Note_on_c, 5, 77, 74
7, 211355, Note_off_c, 5, 77, 64
7, 211368, Note_on_c, 5, 79, 82
7, 211414, Note_off_c, 5, 79, 64
7, 211425, Note_on_c, 5, 81, 80
7, 211463, Note_off_c, 5, 81, 64
7, 211481, Note_on_c, 5, 77, 76
7, 211522, Note_off_c, 5, 77, 64
7, 211542, Note_on_c, 5, 79, 74
7, 211586, Note_off_c, 5, 79, 64
7, 211602, Note_on_c, 5, 81, 80
7, 211640, Note_off_c, 5, 81, 64
7, 211673, Note_on_c, 5, 72, 85
7, 211796, Note_on_c, 5, 71, 68
7, 211800, Note_off_c, 5, 72, 64
7, 212050, Note_off_c, 5, 71, 64
7, 212090, Note_on_c, 5, 72, 82
7, 212129, Note_off_c, 5, 72, 64
7, 212153, Note_on_c, 5, 74, 85
7, 212200, Note_off_c, 5, 74, 64
7, 212211, Note_on_c, 5, 71, 72
7, 212253, Note_off_c, 5, 71, 64
7, 212270, Note_on_c, 5, 67, 78
7, 212321, Note_off_c, 5, 67, 64
7, 212332, Note_on_c, 5, 69, 80
7, 212373, Note_off_c, 5, 69, 64
7, 212389, Note_on_c, 5, 71, 74
7, 212434, Note_off_c, 5, 71, 64
7, 212449, Note_on_c, 5, 72, 76
7, 212486, Note_off_c, 5, 72, 64
7, 212502, Note_on_c, 5, 74, 74
7, 212550, Note_off_c, 5, 74, 64
7, 212561, Note_on_c, 5, 76, 72
7, 212603, Note_off_c, 5, 76, 64
7, 212627, Note_on_c, 5, 77, 82
7, 212994, Note_off_c, 5, 77, 64
7, 213044, Note_on_c, 5, 77, 85
7, 213075, Note_off_c, 5, 77, 64
7, 213110, Note_on_c, 5, 79, 87
7, 213131, Note_on_c, 5, 77, 80
7, 213135, Note_off_c, 5, 79, 64
7, 213149, Note_on_c, 5, 79, 70
7, 213154, Note_off_c, 5, 77, 64
7, 213170, Note_on_c, 5, 77, 82
7, 213187, Note_off_c, 5, 79, 64
7, 213221, Note_off_c, 5, 77, 64
7, 213291, Note_on_c, 5, 76, 64
7, 213309, Note_on_c, 5, 74, 85
7, 213320, Note_off_c, 5, 76, 64
7, 213341, Note_off_c, 5, 74, 64
7, 213347, Note_on_c, 5, 76, 82
7, 213451, Note_off_c, 5, 76, 64
7, 213528, Note_on_c, 5, 77, 76
7, 213553, Note_on_c, 5, 79, 82
7, 213559, Note_off_c, 5, 77, 64
7, 213584, Note_off_c, 5, 79, 64
7, 213593, Note_on_c, 5, 70, 72
7, 213960, Note_off_c, 5, 70, 64
7, 214008, Note_on_c, 5, 70, 76
7, 214041, Note_off_c, 5, 70, 64
7, 214074, Note_on_c, 5, 72, 78
7, 214094, Note_on_c, 5, 70, 68
7, 214100, Note_off_c, 5, 72, 64
7, 214116, Note_off_c, 5, 70, 64
7, 214117, Note_on_c, 5, 72, 80
7, 214136, Note_on_c, 5, 70, 70
7, 214151, Note_off_c, 5, 72, 64
7, 214190, Note_off_c, 5, 70, 64
7, 214248, Note_on_c, 5, 69, 64
7, 214269, Note_on_c, 5, 67, 72
7, 214278, Note_off_c, 5, 69, 64
7, 214300, Note_off_c, 5, 67, 64
7, 214307, Note_on_c, 5, 69, 85
7, 214402, Note_off_c, 5, 69, 64
7, 214490, Note_on_c, 5, 71, 76
7, 214531, Note_off_c, 5, 71, 64
7, 214551, Note_on_c, 5, 72, 85
7, 214927, Note_off_c, 5, 72, 64
7, 214977, Note_on_c, 5, 72, 82
7, 215010, Note_off_c, 5, 72, 64
7, 215042, Note_on_c, 5, 74, 93
7, 215063, Note_on_c, 5, 72, 80
7, 215068, Note_off_c, 5, 74, 64
7, 215081, Note_on_c, 5, 74, 70
7, 215084, Note_off_c, 5, 72, 64
7, 215102, Note_on_c, 5, 72, 78
7, 215120, Note_off_c, 5, 74, 64
7, 215158, Note_off_c, 5, 72, 64
7, 215228, Note_on_c, 5, 71, 87
7, 215251, Note_on_c, 5, 69, 85
7, 215264, Note_off_c, 5, 71, 64
7, 215274, Note_off_c, 5, 69, 64
7, 215282, Note_on_c, 5, 79, 87
7, 215306, Note_on_c, 5, 77, 70
7, 215308, Note_off_c, 5, 79, 64
7, 215323, Note_on_c, 5, 79, 76
7, 215328, Note_off_c, 5, 77, 64
7, 215346, Note_on_c, 5, 77, 80
7, 215356, Note_off_c, 5, 79, 64
7, 215408, Note_off_c, 5, 77, 64
7, 215459, Note_on_c, 5, 76, 82
7, 215482, Note_on_c, 5, 74, 87
7, 215497, Note_off_c, 5, 76, 64
7, 215508, Note_off_c, 5, 74, 64
7, 215516, Note_on_c, 5, 84, 82
7, 215539, Note_on_c, 5, 83, 70
7, 215542, Note_off_c, 5, 84, 64
7, 215554, Note_on_c, 5, 84, 64
7, 215560, Note_off_c, 5, 83, 64
7, 215578, Note_on_c, 5, 83, 76
7, 215588, Note_off_c, 5, 84, 64
7, 215649, Note_off_c, 5, 83, 64
7, 215691, Note_on_c, 5, 81, 76
7, 215715, Note_on_c, 5, 79, 89
7, 215725, Note_off_c, 5, 81, 64
7, 215745, Note_off_c, 5, 79, 64
7, 215752, Note_on_c, 5, 86, 89
7, 215827, Note_off_c, 5, 86, 64
7, 215927, Note_on_c, 5, 77, 80
7, 215960, Note_off_c, 5, 77, 64
7, 215993, Note_on_c, 5, 77, 82
7, 216268, Note_off_c, 5, 77, 64
7, 216295, Note_on_c, 5, 81, 85
7, 216333, Note_off_c, 5, 81, 64
7, 216351, Note_on_c, 5, 79, 87
7, 216389, Note_off_c, 5, 79, 64
7, 216411, Note_on_c, 5, 77, 82
7, 216442, Note_off_c, 5, 77, 64
7, 216472, Note_on_c, 5, 76, 82
7, 216517, Note_off_c, 5, 76, 64
7, 216533, Note_on_c, 5, 72, 76
7, 216577, Note_off_c, 5, 72, 64
7, 216595, Note_on_c, 5, 74, 72
7, 216636, Note_off_c, 5, 74, 64
7, 216655, Note_on_c, 5, 76, 80
7, 216696, Note_off_c, 5, 76, 64
7, 216714, Note_on_c, 5, 77, 74
7, 216762, Note_off_c, 5, 77, 64
7, 216773, Note_on_c, 5, 79, 85
7, 216814, Note_off_c, 5, 79, 64
7, 216830, Note_on_c, 5, 81, 78
7, 216872, Note_off_c, 5, 81, 64
7, 216891, Note_on_c, 5, 82, 68
7, 216935, Note_off_c, 5, 82, 64
7, 216954, Note_on_c, 5, 81, 82
7, 217000, Note_off_c, 5, 81, 64
7, 217012, Note_on_c, 5, 79, 78
7, 217061, Note_off_c, 5, 79, 64
7, 217074, Note_on_c, 5, 77, 76
7, 217113, Note_off_c, 5, 77, 64
7, 217128, Note_on_c, 5, 76, 78
7, 217170, Note_off_c, 5, 76, 64
7, 217187, Note_on_c, 5, 77, 85
7, 217241, Note_off_c, 5, 77, 64
7, 217247, Note_on_c, 5, 74, 78
7, 217292, Note_off_c, 5, 74, 64
7, 217310, Note_on_c, 5, 76, 70
7, 217351, Note_off_c, 5, 76, 64
7, 217372, Note_on_c, 5, 77, 89
7, 217403, Note_off_c, 5, 77, 64
7, 217439, Note_on_c, 5, 67, 85
7, 217737, Note_off_c, 5, 67, 64
7, 217790, Note_on_c, 5, 69, 72
7, 217817, Note_on_c, 5, 71, 64
7, 217828, Note_off_c, 5, 69, 64
7, 217840, Note_on_c, 5, 72, 78
7, 217843, Note_off_c, 5, 71, 64
7, 217862, Note_on_c, 5, 74, 89
7, 217872, Note_off_c, 5, 72, 64
7, 217884, Note_on_c, 5, 76, 80
7, 217892, Note_off_c, 5, 74, 64
7, 217899, Note_on_c, 5, 77, 87
7, 217908, Note_off_c, 5, 76, 64
7, 218010, Note_off_c, 5, 77, 64
7, 218010, End_track
8, 0, Start_track
8, 0, Title_t, "Bassoon"
8, 0, Program_c, 6, 70
8, 0, Control_c, 6, 7, 100
8, 953, Note_on_c, 6, 36, 89
8, 1231, Note_off_c, 6, 36, 64
8, 1254, Note_on_c, 6, 55, 80
8, 1288, Note_off_c, 6, 55, 64
8, 1310, Note_on_c, 6, 57, 80
8, 1349, Note_off_c, 6, 57, 64
8, 1365, Note_on_c, 6, 59, 89
8, 1398, Note_off_c, 6, 59, 64
8, 1430, Note_on_c, 6, 60, 78
8, 2037, Note_off_c, 6, 60, 64
8, 2092, Note_on_c, 6, 60, 82
8, 2128, Note_off_c, 6, 60, 64
8, 2154, Note_on_c, 6, 59, 82
8, 2237, Note_off_c, 6, 59, 64
8, 2326, Note_on_c, 6, 57, 70
8, 2358, Note_off_c, 6, 57, 64
8, 2390, Note_on_c, 6, 59, 85
8, 2468, Note_off_c, 6, 59, 64
8, 2564, Note_on_c, 6, 57, 72
8, 2598, Note_off_c, 6, 57, 64
8, 2632, Note_on_c, 6, 59, 85
8, 2709, Note_off_c, 6, 59, 64
8, 2803, Note_on_c, 6, 55, 70
8, 2845, Note_off_c, 6, 55, 64
8, 2875, Note_on_c, 6, 57, 80
8, 3128, Note_off_c, 6, 57, 64
8, 3167, Note_on_c, 6, 57, 82
8, 3212, Note_off_c, 6, 57, 64
8, 3228, Note_on_c, 6, 59, 82
8, 3270, Note_off_c, 6, 59, 64
8, 3284, Note_on_c, 6, 60, 82
8, 3316, Note_off_c, 6, 60, 64
8, 3347, Note_on_c, 6, 62, 87
8, 3393, Note_off_c, 6, 62, 64
8, 3408, Note_on_c, 6, 60, 72
8, 3446, Note_off_c, 6, 60, 64
8, 3470, Note_on_c, 6, 59, 70
8, 3506, Note_off_c, 6, 59, 64
8, 3528, Note_on_c, 6, 60, 80
8, 3560, Note_off_c, 6, 60, 64
8, 3593, Note_on_c, 6, 62, 80
8, 3633, Note_off_c, 6, 62, 64
8, 3651, Note_on_c, 6, 59, 68
8, 3689, Note_off_c, 6, 59, 64
8, 3712, Note_on_c, 6, 60, 68
8, 3745, Note_off_c, 6, 60, 64
8, 3775, Note_on_c, 6, 62, 85
8, 3815, Note_off_c, 6, 62, 64
8, 3838, Note_on_c, 6, 55, 80
8, 3967, Note_off_c, 6, 55, 64
8, 4006, Note_on_c, 6, 57, 66
8, 4039, Note_off_c, 6, 57, 64
8, 4069, Note_on_c, 6, 59, 85
8, 4158, Note_off_c, 6, 59, 64
8, 4239, Note_on_c, 6, 55, 70
8, 4275, Note_off_c, 6, 55, 64
8, 4309, Note_on_c, 6, 60, 87
8, 4470, Note_off_c, 6, 60, 64
8, 4553, Note_on_c, 6, 48, 82
8, 4694, Note_off_c, 6, 48, 64
8, 4785, Note_on_c, 6, 55, 62
8, 5297, Note_off_c, 6, 55, 64
8, 5329, Note_on_c, 6, 54, 74
8, 5372, Note_off_c, 6, 54, 64
8, 5387, Note_on_c, 6, 55, 82
8, 5433, Note_off_c, 6, 55, 64
8, 5449, Note_on_c, 6, 57, 85
8, 5480, Note_off_c, 6, 57, 64
8, 5509, Note_on_c, 6, 59, 87
8, 5546, Note_off_c, 6, 59, 64
8, 5568, Note_on_c, 6, 55, 74
8, 5605, Note_off_c, 6, 55, 64
8, 5632, Note_on_c, 6, 57, 87
8, 5661, Note_off_c, 6, 57, 64
8, 5691, Note_on_c, 6, 59, 80
8, 5732, Note_off_c, 6, 59, 64
8, 5769, Note_on_c, 6, 48, 85
8, 6263, Note_off_c, 6, 48, 64
8, 6286, Note_on_c, 6, 47, 72
8, 6317, Note_off_c, 6, 47, 64
8, 6342, Note_on_c, 6, 45, 64
8, 6385, Note_off_c, 6, 45, 64
8, 6399, Note_on_c, 6, 47, 64
8, 6440, Note_off_c, 6, 47, 64
8, 6461, Note_on_c, 6, 48, 89
8, 6508, Note_off_c, 6, 48, 64
8, 6522, Note_on_c, 6, 45, 80
8, 6566, Note_off_c, 6, 45, 64
8, 6584, Note_on_c, 6, 47, 64
8, 6625, Note_off_c, 6, 47, 64
8, 6642, Note_on_c, 6, 48, 82
8, 6689, Note_off_c, 6, 48, 64
8, 6720, Note_on_c, 6, 40, 82
8, 6916, Note_off_c, 6, 40, 64
8, 6960, Note_on_c, 6, 52, 66
8, 7210, Note_off_c, 6, 52, 64
8, 7243, Note_on_c, 6, 50, 70
8, 7291, Note_off_c, 6, 50, 64
8, 7305, Note_on_c, 6, 52, 70
8, 7347, Note_off_c, 6, 52, 64
8, 7363, Note_on_c, 6, 54, 76
8, 7402, Note_off_c, 6, 54, 64
8, 7432, Note_on_c, 6, 55, 82
8, 7469, Note_off_c, 6, 55, 64
8, 7489, Note_on_c, 6, 54, 80
8, 7521, Note_off_c, 6, 54, 64
8, 7554, Note_on_c, 6, 55, 76
8, 7594, Note_off_c, 6, 55, 64
8, 7613, Note_on_c, 6, 52, 63
8, 7656, Note_off_c, 6, 52, 64
8, 7682, Note_on_c, 6, 61, 63
8, 8296, Note_off_c, 6, 61, 64
8, 8336, Note_on_c, 6, 59, 76
8, 8373, Note_off_c, 6, 59, 64
8, 8397, Note_on_c, 6, 61, 85
8, 8472, Note_off_c, 6, 61, 64
8, 8567, Note_on_c, 6, 57, 80
8, 8603, Note_off_c, 6, 57, 64
8, 8640, Note_on_c, 6, 62, 82
8, 9229, Note_off_c, 6, 62, 64
8, 9282, Note_on_c, 6, 64, 80
8, 9329, Note_off_c, 6, 64, 64
8, 9348, Note_on_c, 6, 62, 85
8, 9431, Note_off_c, 6, 62, 64
8, 9524, Note_on_c, 6, 60, 74
8, 9563, Note_off_c, 6, 60, 64
8, 9593, Note_on_c, 6, 59, 72
8, 10112, Note_off_c, 6, 59, 64
8, 10133, Note_on_c, 6, 57, 78
8, 10166, Note_off_c, 6, 57, 64
8, 10194, Note_on_c, 6, 55, 66
8, 10234, Note_off_c, 6, 55, 64
8, 10251, Note_on_c, 6, 57, 78
8, 10284, Note_off_c, 6, 57, 64
8, 10312, Note_on_c, 6, 59, 72
8, 10351, Note_off_c, 6, 59, 64
8, 10371, Note_on_c, 6, 55, 76
8, 10410, Note_off_c, 6, 55, 64
8, 10432, Note_on_c, 6, 57, 82
8, 10464, Note_off_c, 6, 57, 64
8, 10489, Note_on_c, 6, 59, 68
8, 10540, Note_off_c, 6, 59, 64
8, 10561, Note_on_c, 6, 48, 78
8, 11058, Note_off_c, 6, 48, 64
8, 11093, Note_on_c, 6, 47, 66
8, 11137, Note_off_c, 6, 47, 64
8, 11161, Note_on_c, 6, 48, 74
8, 11211, Note_off_c, 6, 48, 64
8, 11218, Note_on_c, 6, 50, 76
8, 11250, Note_off_c, 6, 50, 64
8, 11282, Note_on_c, 6, 52, 85
8, 11323, Note_off_c, 6, 52, 64
8, 11337, Note_on_c, 6, 48, 66
8, 11379, Note_off_c, 6, 48, 64
8, 11399, Note_on_c, 6, 50, 76
8, 11430, Note_off_c, 6, 50, 64
8, 11457, Note_on_c, 6, 52, 74
8, 11502, Note_off_c, 6, 52, 64
8, 11526, Note_on_c, 6, 45, 85
8, 12011, Note_off_c, 6, 45, 64
8, 12056, Note_on_c, 6, 43, 74
8, 12101, Note_off_c, 6, 43, 64
8, 12118, Note_on_c, 6, 45, 68
8, 12162, Note_off_c, 6, 45, 64
8, 12176, Note_on_c, 6, 47, 66
8, 12213, Note_off_c, 6, 47, 64
8, 12239, Note_on_c, 6, 48, 66
8, 12277, Note_off_c, 6, 48, 64
8, 12295, Note_on_c, 6, 47, 68
8, 12342, Note_off_c, 6, 47, 64
8, 12359, Note_on_c, 6, 48, 68
8, 12398, Note_off_c, 6, 48, 64
8, 12416, Note_on_c, 6, 50, 72
8, 12452, Note_off_c, 6, 50, 64
8, 12483, Note_on_c, 6, 52, 70
8, 12606, Note_off_c, 6, 52, 64
8, 12712, Note_on_c, 6, 64, 70
8, 12842, Note_off_c, 6, 64, 64
8, 12957, Note_on_c, 6, 62, 78
8, 13078, Note_off_c, 6, 62, 64
8, 13196, Note_on_c, 6, 60, 66
8, 13324, Note_off_c, 6, 60, 64
8, 13432, Note_on_c, 6, 59, 70
8, 13569, Note_off_c, 6, 59, 64
8, 13679, Note_on_c, 6, 47, 70
8, 13801, Note_off_c, 6, 47, 64
8, 13912, Note_on_c, 6, 45, 68
8, 14044, Note_off_c, 6, 45, 64
8, 14153, Note_on_c, 6, 43, 68
8, 14297, Note_off_c, 6, 43, 64
8, 14396, Note_on_c, 6, 42, 64
8, 14587, Note_off_c, 6, 42, 64
8, 14633, Note_on_c, 6, 43, 74
8, 14781, Note_off_c, 6, 43, 64
8, 14810, Note_on_c, 6, 48, 70
8, 14844, Note_off_c, 6, 48, 64
8, 14869, Note_on_c, 6, 50, 74
8, 15044, Note_off_c, 6, 50, 64
8, 15115, Note_on_c, 6, 38, 85
8, 15284, Note_off_c, 6, 38, 64
8, 15360, Note_on_c, 6, 43, 76
8, 15587, Note_off_c, 6, 43, 64
8, 35149, Note_on_c, 6, 60, 85
8, 35188, Note_off_c, 6, 60, 64
8, 35268, Note_on_c, 6, 60, 80
8, 35308, Note_off_c, 6, 60, 64
8, 35395, Note_on_c, 6, 60, 78
8, 35431, Note_off_c, 6, 60, 64
8, 35513, Note_on_c, 6, 59, 85
8, 35624, Note_off_c, 6, 59, 64
8, 35627, Note_on_c, 6, 60, 74
8, 35680, Note_off_c, 6, 60, 64
8, 35685, Note_on_c, 6, 62, 78
8, 35721, Note_off_c, 6, 62, 64
8, 35751, Note_on_c, 6, 64, 82
8, 35794, Note_off_c, 6, 64, 64
8, 35872, Note_on_c, 6, 60, 74
8, 35913, Note_off_c, 6, 60, 64
8, 35987, Note_on_c, 6, 57, 74
8, 36036, Note_off_c, 6, 57, 64
8, 36110, Note_on_c, 6, 62, 80
8, 36146, Note_off_c, 6, 62, 64
8, 36230, Note_on_c, 6, 50, 82
8, 36281, Note_off_c, 6, 50, 64
8, 36351, Note_on_c, 6, 60, 82
8, 36392, Note_off_c, 6, 60, 64
8, 36474, Note_on_c, 6, 59, 89
8, 36529, Note_off_c, 6, 59, 64
8, 36535, Note_on_c, 6, 57, 68
8, 36585, Note_off_c, 6, 57, 64
8, 36594, Note_on_c, 6, 55, 64
8, 36652, Note_on_c, 6, 57, 63
8, 36658, Note_off_c, 6, 55, 64
8, 36697, Note_off_c, 6, 57, 64
8, 36716, Note_on_c, 6, 59, 85
8, 36768, Note_on_c, 6, 55, 72
8, 36772, Note_off_c, 6, 59, 64
8, 36819, Note_off_c, 6, 55, 64
8, 36824, Note_on_c, 6, 57, 63
8, 36880, Note_off_c, 6, 57, 64
8, 36880, Note_on_c, 6, 59, 72
8, 36922, Note_off_c, 6, 59, 64
8, 36946, Note_on_c, 6, 60, 80
8, 36999, Note_off_c, 6, 60, 64
8, 37064, Note_on_c, 6, 55, 78
8, 37110, Note_off_c, 6, 55, 64
8, 37189, Note_on_c, 6, 60, 82
8, 37330, Note_off_c, 6, 60, 64
8, 37370, Note_on_c, 6, 60, 80
8, 37396, Note_off_c, 6, 60, 64
8, 37433, Note_on_c, 6, 60, 80
8, 37475, Note_off_c, 6, 60, 64
8, 37487, Note_on_c, 6, 59, 76
8, 37526, Note_off_c, 6, 59, 64
8, 37544, Note_on_c, 6, 60, 76
8, 37586, Note_off_c, 6, 60, 64
8, 37600, Note_on_c, 6, 57, 64
8, 37650, Note_off_c, 6, 57, 64
8, 37673, Note_on_c, 6, 59, 82
8, 37808, Note_off_c, 6, 59, 64
8, 37855, Note_on_c, 6, 59, 68
8, 37884, Note_off_c, 6, 59, 64
8, 37911, Note_on_c, 6, 59, 80
8, 37952, Note_off_c, 6, 59, 64
8, 38037, Note_on_c, 6, 52, 78
8, 38084, Note_off_c, 6, 52, 64
8, 38161, Note_on_c, 6, 57, 85
8, 38303, Note_off_c, 6, 57, 64
8, 38336, Note_on_c, 6, 57, 70
8, 38366, Note_off_c, 6, 57, 64
8, 38403, Note_on_c, 6, 57, 87
8, 38456, Note_on_c, 6, 55, 78
8, 38459, Note_off_c, 6, 57, 64
8, 38506, Note_off_c, 6, 55, 64
8, 38509, Note_on_c, 6, 57, 72
8, 38556, Note_off_c, 6, 57, 64
8, 38565, Note_on_c, 6, 53, 63
8, 38621, Note_off_c, 6, 53, 64
8, 38627, Note_on_c, 6, 55, 70
8, 38772, Note_off_c, 6, 55, 64
8, 38808, Note_on_c, 6, 55, 82
8, 38840, Note_off_c, 6, 55, 64
8, 38866, Note_on_c, 6, 55, 80
8, 38909, Note_off_c, 6, 55, 64
8, 38994, Note_on_c, 6, 48, 85
8, 39041, Note_off_c, 6, 48, 64
8, 39109, Note_on_c, 6, 53, 80
8, 39253, Note_off_c, 6, 53, 64
8, 39291, Note_on_c, 6, 53, 82
8, 39320, Note_off_c, 6, 53, 64
8, 39357, Note_on_c, 6, 53, 89
8, 39402, Note_on_c, 6, 52, 72
8, 39405, Note_off_c, 6, 53, 64
8, 39453, Note_off_c, 6, 52, 64
8, 39457, Note_on_c, 6, 53, 66
8, 39507, Note_off_c, 6, 53, 64
8, 39512, Note_on_c, 6, 50, 63
8, 39544, Note_off_c, 6, 50, 64
8, 39577, Note_on_c, 6, 52, 68
8, 39634, Note_on_c, 6, 53, 66
8, 39642, Note_off_c, 6, 52, 64
8, 39691, Note_on_c, 6, 55, 70
8, 39696, Note_off_c, 6, 53, 64
8, 39737, Note_off_c, 6, 55, 64
8, 39752, Note_on_c, 6, 52, 57
8, 39802, Note_off_c, 6, 52, 64
8, 39821, Note_on_c, 6, 57, 76
8, 39880, Note_on_c, 6, 58, 70
8, 39887, Note_off_c, 6, 57, 64
8, 39944, Note_on_c, 6, 57, 70
8, 39955, Note_off_c, 6, 58, 64
8, 40001, Note_on_c, 6, 55, 74
8, 40017, Note_off_c, 6, 57, 64
8, 40061, Note_off_c, 6, 55, 64
8, 40061, Note_on_c, 6, 53, 60
8, 40119, Note_on_c, 6, 52, 66
8, 40131, Note_off_c, 6, 53, 64
8, 40178, Note_on_c, 6, 50, 70
8, 40184, Note_off_c, 6, 52, 64
8, 40238, Note_on_c, 6, 48, 64
8, 40241, Note_off_c, 6, 50, 64
8, 40288, Note_off_c, 6, 48, 64
8, 40297, Note_on_c, 6, 47, 70
8, 40360, Note_on_c, 6, 45, 64
8, 40363, Note_off_c, 6, 47, 64
8, 40431, Note_off_c, 6, 45, 64
8, 40434, Note_on_c, 6, 43, 59
8, 40490, Note_off_c, 6, 43, 64
8, 40494, Note_on_c, 6, 45, 70
8, 40547, Note_off_c, 6, 45, 64
8, 40555, Note_on_c, 6, 47, 68
8, 40610, Note_on_c, 6, 45, 74
8, 40614, Note_off_c, 6, 47, 64
8, 40663, Note_off_c, 6, 45, 64
8, 40664, Note_on_c, 6, 47, 70
8, 40702, Note_off_c, 6, 47, 64
8, 40719, Note_on_c, 6, 43, 57
8, 40769, Note_off_c, 6, 43, 64
8, 40784, Note_on_c, 6, 48, 76
8, 40833, Note_off_c, 6, 48, 64
8, 40916, Note_on_c, 6, 53, 74
8, 40960, Note_off_c, 6, 53, 64
8, 41039, Note_on_c, 6, 55, 80
8, 41076, Note_off_c, 6, 55, 64
8, 41152, Note_on_c, 6, 43, 72
8, 41194, Note_off_c, 6, 43, 64
8, 41273, Note_on_c, 6, 48, 66
8, 41326, Note_on_c, 6, 47, 66
8, 41331, Note_off_c, 6, 48, 64
8, 41386, Note_on_c, 6, 48, 62
8, 41395, Note_off_c, 6, 47, 64
8, 41447, Note_off_c, 6, 48, 64
8, 41447, Note_on_c, 6, 50, 72
8, 41493, Note_off_c, 6, 50, 64
8, 41506, Note_on_c, 6, 48, 68
8, 41557, Note_off_c, 6, 48, 64
8, 41558, Note_on_c, 6, 50, 68
8, 41620, Note_off_c, 6, 50, 64
8, 41621, Note_on_c, 6, 52, 66
8, 41660, Note_off_c, 6, 52, 64
8, 41676, Note_on_c, 6, 48, 57
8, 41727, Note_off_c, 6, 48, 64
8, 41744, Note_on_c, 6, 53, 62
8, 41800, Note_off_c, 6, 53, 64
8, 41809, Note_on_c, 6, 55, 60
8, 41856, Note_off_c, 6, 55, 64
8, 41871, Note_on_c, 6, 53, 59
8, 41923, Note_off_c, 6, 53, 64
8, 41930, Note_on_c, 6, 52, 57
8, 41982, Note_off_c, 6, 52, 64
8, 41994, Note_on_c, 6, 50, 61
8, 42046, Note_off_c, 6, 50, 64
8, 42050, Note_on_c, 6, 52, 62
8, 42093, Note_off_c, 6, 52, 64
8, 42109, Note_on_c, 6, 53, 68
8, 42157, Note_off_c, 6, 53, 64
8, 42165, Note_on_c, 6, 50, 57
8, 42213, Note_off_c, 6, 50, 64
8, 42229, Note_on_c, 6, 52, 66
8, 42278, Note_off_c, 6, 52, 64
8, 42283, Note_on_c, 6, 50, 56
8, 42332, Note_off_c, 6, 50, 64
8, 42340, Note_on_c, 6, 52, 57
8, 42392, Note_off_c, 6, 52, 64
8, 42402, Note_on_c, 6, 53, 60
8, 42456, Note_off_c, 6, 53, 64
8, 42461, Note_on_c, 6, 52, 59
8, 42514, Note_off_c, 6, 52, 64
8, 42515, Note_on_c, 6, 50, 59
8, 42570, Note_off_c, 6, 50, 64
8, 42584, Note_on_c, 6, 48, 46
8, 42635, Note_off_c, 6, 48, 64
8, 42640, Note_on_c, 6, 47, 52
8, 42694, Note_off_c, 6, 47, 64
8, 42707, Note_on_c, 6, 45, 57
8, 42765, Note_off_c, 6, 45, 64
8, 42766, Note_on_c, 6, 47, 63
8, 42831, Note_on_c, 6, 48, 57
8, 42832, Note_off_c, 6, 47, 64
8, 42884, Note_on_c, 6, 50, 60
8, 42887, Note_off_c, 6, 48, 64
8, 42929, Note_off_c, 6, 50, 64
8, 42940, Note_on_c, 6, 52, 68
8, 42995, Note_on_c, 6, 54, 55
8, 43007, Note_off_c, 6, 52, 64
8, 43048, Note_off_c, 6, 54, 64
8, 43058, Note_on_c, 6, 56, 63
8, 43113, Note_off_c, 6, 56, 64
8, 43114, Note_on_c, 6, 52, 68
8, 43157, Note_off_c, 6, 52, 64
8, 43183, Note_on_c, 6, 57, 68
8, 43231, Note_off_c, 6, 57, 64
8, 43245, Note_on_c, 6, 55, 60
8, 43295, Note_off_c, 6, 55, 64
8, 43304, Note_on_c, 6, 53, 59
8, 43356, Note_off_c, 6, 53, 64
8, 43368, Note_on_c, 6, 52, 58
8, 43410, Note_off_c, 6, 52, 64
8, 43428, Note_on_c, 6, 50, 60
8, 43482, Note_off_c, 6, 50, 64
8, 43489, Note_on_c, 6, 52, 62
8, 43535, Note_off_c, 6, 52, 64
8, 43544, Note_on_c, 6, 53, 58
8, 43590, Note_off_c, 6, 53, 64
8, 43602, Note_on_c, 6, 50, 59
8, 43651, Note_off_c, 6, 50, 64
8, 43666, Note_on_c, 6, 52, 61
8, 43723, Note_off_c, 6, 52, 64
8, 43723, Note_on_c, 6, 50, 53
8, 43769, Note_off_c, 6, 50, 64
8, 43786, Note_on_c, 6, 52, 60
8, 43840, Note_off_c, 6, 52, 64
8, 43846, Note_on_c, 6, 53, 64
8, 43886, Note_off_c, 6, 53, 64
8, 43908, Note_on_c, 6, 52, 68
8, 43954, Note_off_c, 6, 52, 64
8, 43964, Note_on_c, 6, 50, 61
8, 44020, Note_off_c, 6, 50, 64
8, 44027, Note_on_c, 6, 48, 57
8, 44073, Note_off_c, 6, 48, 64
8, 44086, Note_on_c, 6, 47, 64
8, 44135, Note_off_c, 6, 47, 64
8, 44159, Note_on_c, 6, 45, 74
8, 44216, Note_off_c, 6, 45, 64
8, 44282, Note_on_c, 6, 57, 74
8, 44319, Note_off_c, 6, 57, 64
8, 44393, Note_on_c, 6, 57, 82
8, 44433, Note_off_c, 6, 57, 64
8, 44512, Note_on_c, 6, 57, 85
8, 44549, Note_off_c, 6, 57, 64
8, 44632, Note_on_c, 6, 55, 82
8, 44730, Note_off_c, 6, 55, 64
8, 44746, Note_on_c, 6, 57, 64
8, 44790, Note_off_c, 6, 57, 64
8, 44803, Note_on_c, 6, 59, 59
8, 44843, Note_off_c, 6, 59, 64
8, 44869, Note_on_c, 6, 60, 85
8, 44912, Note_off_c, 6, 60, 64
8, 44992, Note_on_c, 6, 57, 80
8, 45035, Note_off_c, 6, 57, 64
8, 45109, Note_on_c, 6, 54, 66
8, 45153, Note_off_c, 6, 54, 64
8, 45227, Note_on_c, 6, 59, 80
8, 45269, Note_off_c, 6, 59, 64
8, 45344, Note_on_c, 6, 47, 74
8, 45395, Note_off_c, 6, 47, 64
8, 45460, Note_on_c, 6, 59, 70
8, 45503, Note_off_c, 6, 59, 64
8, 45579, Note_on_c, 6, 56, 78
8, 45623, Note_off_c, 6, 56, 64
8, 45698, Note_on_c, 6, 52, 59
8, 45744, Note_off_c, 6, 52, 64
8, 45828, Note_on_c, 6, 57, 80
8, 45869, Note_off_c, 6, 57, 64
8, 45949, Note_on_c, 6, 50, 82
8, 45993, Note_off_c, 6, 50, 64
8, 46084, Note_on_c, 6, 52, 76
8, 46227, Note_off_c, 6, 52, 64
8, 46316, Note_on_c, 6, 40, 78
8, 46462, Note_off_c, 6, 40, 64
8, 46559, Note_on_c, 6, 45, 64
8, 46781, Note_off_c, 6, 45, 64
8, 47574, Note_on_c, 6, 60, 70
8, 47632, Note_on_c, 6, 59, 64
8, 47641, Note_off_c, 6, 60, 64
8, 47690, Note_off_c, 6, 59, 64
8, 47692, Note_on_c, 6, 57, 51
8, 47737, Note_off_c, 6, 57, 64
8, 47756, Note_on_c, 6, 56, 63
8, 47812, Note_off_c, 6, 56, 64
8, 47812, Note_on_c, 6, 57, 64
8, 47872, Note_on_c, 6, 56, 57
8, 47883, Note_off_c, 6, 57, 64
8, 47930, Note_on_c, 6, 54, 60
8, 47935, Note_off_c, 6, 56, 64
8, 47984, Note_off_c, 6, 54, 64
8, 47994, Note_on_c, 6, 52, 70
8, 48043, Note_off_c, 6, 52, 64
8, 48054, Note_on_c, 6, 62, 70
8, 48118, Note_on_c, 6, 60, 78
8, 48120, Note_off_c, 6, 62, 64
8, 48171, Note_off_c, 6, 60, 64
8, 48176, Note_on_c, 6, 59, 59
8, 48235, Note_off_c, 6, 59, 64
8, 48238, Note_on_c, 6, 57, 57
8, 48283, Note_off_c, 6, 57, 64
8, 48298, Note_on_c, 6, 59, 64
8, 48358, Note_on_c, 6, 57, 56
8, 48362, Note_off_c, 6, 59, 64
8, 48416, Note_on_c, 6, 55, 57
8, 48425, Note_off_c, 6, 57, 64
8, 48477, Note_off_c, 6, 55, 64
8, 48477, Note_on_c, 6, 53, 60
8, 48530, Note_off_c, 6, 53, 64
8, 48534, Note_on_c, 6, 52, 55
8, 48582, Note_off_c, 6, 52, 64
8, 48592, Note_on_c, 6, 53, 57
8, 48639, Note_off_c, 6, 53, 64
8, 48646, Note_on_c, 6, 50, 66
8, 48692, Note_off_c, 6, 50, 64
8, 48709, Note_on_c, 6, 52, 76
8, 48759, Note_off_c, 6, 52, 64
8, 48828, Note_on_c, 6, 40, 64
8, 48878, Note_off_c, 6, 40, 64
8, 48946, Note_on_c, 6, 45, 64
8, 49035, Note_off_c, 6, 45, 64
8, 49071, Note_on_c, 6, 57, 66
8, 49118, Note_off_c, 6, 57, 64
8, 49195, Note_on_c, 6, 57, 76
8, 49238, Note_off_c, 6, 57, 64
8, 49314, Note_on_c, 6, 57, 76
8, 49350, Note_off_c, 6, 57, 64
8, 49438, Note_on_c, 6, 55, 82
8, 49544, Note_off_c, 6, 55, 64
8, 49553, Note_on_c, 6, 57, 68
8, 49608, Note_on_c, 6, 59, 70
8, 49616, Note_off_c, 6, 57, 64
8, 49652, Note_off_c, 6, 59, 64
8, 49670, Note_on_c, 6, 60, 74
8, 49709, Note_off_c, 6, 60, 64
8, 49790, Note_on_c, 6, 57, 76
8, 49828, Note_off_c, 6, 57, 64
8, 49913, Note_on_c, 6, 54, 70
8, 49954, Note_off_c, 6, 54, 64
8, 50036, Note_on_c, 6, 59, 85
8, 50072, Note_off_c, 6, 59, 64
8, 50153, Note_on_c, 6, 47, 80
8, 50207, Note_off_c, 6, 47, 64
8, 50271, Note_on_c, 6, 59, 87
8, 50312, Note_off_c, 6, 59, 64
8, 50403, Note_on_c, 6, 52, 66
8, 50628, Note_off_c, 6, 52, 64
8, 51953, Note_on_c, 6, 52, 74
8, 51991, Note_off_c, 6, 52, 64
8, 52075, Note_on_c, 6, 52, 78
8, 52119, Note_off_c, 6, 52, 64
8, 52199, Note_on_c, 6, 52, 78
8, 52249, Note_off_c, 6, 52, 64
8, 52317, Note_on_c, 6, 48, 85
8, 52430, Note_off_c, 6, 48, 64
8, 52439, Note_on_c, 6, 50, 74
8, 52493, Note_on_c, 6, 52, 70
8, 52495, Note_off_c, 6, 50, 64
8, 52534, Note_off_c, 6, 52, 64
8, 52553, Note_on_c, 6, 53, 80
8, 52595, Note_off_c, 6, 53, 64
8, 52667, Note_on_c, 6, 50, 80
8, 52710, Note_off_c, 6, 50, 64
8, 52787, Note_on_c, 6, 47, 66
8, 52839, Note_off_c, 6, 47, 64
8, 52905, Note_on_c, 6, 52, 76
8, 52940, Note_off_c, 6, 52, 64
8, 53030, Note_on_c, 6, 40, 78
8, 53090, Note_off_c, 6, 40, 64
8, 53153, Note_on_c, 6, 50, 82
8, 53196, Note_off_c, 6, 50, 64
8, 53274, Note_on_c, 6, 48, 85
8, 53331, Note_off_c, 6, 48, 64
8, 53331, Note_on_c, 6, 47, 72
8, 53385, Note_off_c, 6, 47, 64
8, 53391, Note_on_c, 6, 45, 60
8, 53445, Note_on_c, 6, 47, 59
8, 53451, Note_off_c, 6, 45, 64
8, 53493, Note_off_c, 6, 47, 64
8, 53504, Note_on_c, 6, 48, 60
8, 53564, Note_off_c, 6, 48, 64
8, 53567, Note_on_c, 6, 50, 62
8, 53630, Note_on_c, 6, 52, 68
8, 53642, Note_off_c, 6, 50, 64
8, 53672, Note_off_c, 6, 52, 64
8, 53687, Note_on_c, 6, 48, 66
8, 53742, Note_off_c, 6, 48, 64
8, 53746, Note_on_c, 6, 53, 64
8, 53808, Note_off_c, 6, 53, 64
8, 53809, Note_on_c, 6, 55, 68
8, 53861, Note_off_c, 6, 55, 64
8, 53872, Note_on_c, 6, 53, 59
8, 53926, Note_on_c, 6, 52, 57
8, 53927, Note_off_c, 6, 53, 64
8, 53983, Note_off_c, 6, 52, 64
8, 53986, Note_on_c, 6, 50, 63
8, 54040, Note_on_c, 6, 48, 57
8, 54044, Note_off_c, 6, 50, 64
8, 54097, Note_off_c, 6, 48, 64
8, 54104, Note_on_c, 6, 50, 63
8, 54163, Note_off_c, 6, 50, 64
8, 54165, Note_on_c, 6, 47, 61
8, 54210, Note_off_c, 6, 47, 64
8, 54227, Note_on_c, 6, 52, 80
8, 54284, Note_on_c, 6, 53, 76
8, 54285, Note_off_c, 6, 52, 64
8, 54338, Note_off_c, 6, 53, 64
8, 54347, Note_on_c, 6, 52, 61
8, 54400, Note_off_c, 6, 52, 64
8, 54403, Note_on_c, 6, 50, 57
8, 54463, Note_off_c, 6, 50, 64
8, 54468, Note_on_c, 6, 48, 60
8, 54510, Note_off_c, 6, 48, 64
8, 54529, Note_on_c, 6, 50, 66
8, 54582, Note_off_c, 6, 50, 64
8, 54592, Note_on_c, 6, 48, 59
8, 54643, Note_off_c, 6, 48, 64
8, 54648, Note_on_c, 6, 47, 68
8, 54693, Note_off_c, 6, 47, 64
8, 54712, Note_on_c, 6, 45, 70
8, 54765, Note_off_c, 6, 45, 64
8, 54828, Note_on_c, 6, 50, 80
8, 54871, Note_off_c, 6, 50, 64
8, 54951, Note_on_c, 6, 52, 82
8, 54990, Note_off_c, 6, 52, 64
8, 55074, Note_on_c, 6, 40, 80
8, 55116, Note_off_c, 6, 40, 64
8, 55197, Note_on_c, 6, 45, 66
8, 55438, Note_off_c, 6, 45, 64
8, 67722, Note_on_c, 6, 59, 72
8, 67771, Note_off_c, 6, 59, 64
8, 67782, Note_on_c, 6, 57, 70
8, 67837, Note_off_c, 6, 57, 64
8, 67845, Note_on_c, 6, 55, 66
8, 67887, Note_off_c, 6, 55, 64
8, 67912, Note_on_c, 6, 54, 89
8, 67960, Note_off_c, 6, 54, 64
8, 67969, Note_on_c, 6, 52, 70
8, 68009, Note_off_c, 6, 52, 64
8, 68026, Note_on_c, 6, 54, 70
8, 68073, Note_off_c, 6, 54, 64
8, 68084, Note_on_c, 6, 50, 64
8, 68125, Note_off_c, 6, 50, 64
8, 68151, Note_on_c, 6, 52, 80
8, 68207, Note_off_c, 6, 52, 64
8, 68210, Note_on_c, 6, 54, 60
8, 68258, Note_off_c, 6, 54, 64
8, 68268, Note_on_c, 6, 52, 66
8, 68321, Note_off_c, 6, 52, 64
8, 68325, Note_on_c, 6, 50, 66
8, 68383, Note_off_c, 6, 50, 64
8, 68389, Note_on_c, 6, 48, 61
8, 68428, Note_off_c, 6, 48, 64
8, 68446, Note_on_c, 6, 47, 66
8, 68495, Note_off_c, 6, 47, 64
8, 68506, Note_on_c, 6, 48, 64
8, 68552, Note_off_c, 6, 48, 64
8, 68566, Note_on_c, 6, 45, 53
8, 68615, Note_off_c, 6, 45, 64
8, 68627, Note_on_c, 6, 50, 66
8, 68681, Note_off_c, 6, 50, 64
8, 68691, Note_on_c, 6, 48, 62
8, 68736, Note_off_c, 6, 48, 64
8, 68752, Note_on_c, 6, 50, 60
8, 68802, Note_off_c, 6, 50, 64
8, 68813, Note_on_c, 6, 52, 68
8, 68870, Note_off_c, 6, 52, 64
8, 68871, Note_on_c, 6, 50, 61
8, 68924, Note_off_c, 6, 50, 64
8, 68930, Note_on_c, 6, 48, 58
8, 68976, Note_off_c, 6, 48, 64
8, 68996, Note_on_c, 6, 47, 55
8, 69043, Note_off_c, 6, 47, 64
8, 69052, Note_on_c, 6, 45, 53
8, 69099, Note_off_c, 6, 45, 64
8, 69114, Note_on_c, 6, 43, 60
8, 69173, Note_off_c, 6, 43, 64
8, 69176, Note_on_c, 6, 45, 56
8, 69238, Note_on_c, 6, 47, 64
8, 69244, Note_off_c, 6, 45, 64
8, 69285, Note_off_c, 6, 47, 64
8, 69295, Note_on_c, 6, 48, 56
8, 69351, Note_off_c, 6, 48, 64
8, 69357, Note_on_c, 6, 50, 55
8, 69409, Note_off_c, 6, 50, 64
8, 69416, Note_on_c, 6, 52, 64
8, 69465, Note_off_c, 6, 52, 64
8, 69476, Note_on_c, 6, 54, 58
8, 69519, Note_off_c, 6, 54, 64
8, 69524, Note_on_c, 6, 50, 64
8, 69570, Note_off_c, 6, 50, 64
8, 69587, Note_on_c, 6, 55, 70
8, 69636, Note_off_c, 6, 55, 64
8, 69645, Note_on_c, 6, 54, 66
8, 69697, Note_off_c, 6, 54, 64
8, 69705, Note_on_c, 6, 52, 60
8, 69752, Note_off_c, 6, 52, 64
8, 69759, Note_on_c, 6, 50, 60
8, 69799, Note_off_c, 6, 50, 64
8, 69821, Note_on_c, 6, 48, 59
8, 69874, Note_off_c, 6, 48, 64
8, 69883, Note_on_c, 6, 50, 66
8, 69933, Note_off_c, 6, 50, 64
8, 69943, Note_on_c, 6, 52, 60
8, 69990, Note_off_c, 6, 52, 64
8, 69997, Note_on_c, 6, 48, 57
8, 70046, Note_off_c, 6, 48, 64
8, 70065, Note_on_c, 6, 50, 68
8, 70121, Note_on_c, 6, 48, 53
8, 70122, Note_off_c, 6, 50, 64
8, 70167, Note_off_c, 6, 48, 64
8, 70185, Note_on_c, 6, 50, 66
8, 70247, Note_on_c, 6, 52, 61
8, 70248, Note_off_c, 6, 50, 64
8, 70300, Note_off_c, 6, 52, 64
8, 70304, Note_on_c, 6, 50, 63
8, 70357, Note_off_c, 6, 50, 64
8, 70359, Note_on_c, 6, 48, 60
8, 70413, Note_off_c, 6, 48, 64
8, 70422, Note_on_c, 6, 47, 53
8, 70462, Note_off_c, 6, 47, 64
8, 70483, Note_on_c, 6, 45, 68
8, 70523, Note_off_c, 6, 45, 64
8, 70556, Note_on_c, 6, 43, 80
8, 70623, Note_off_c, 6, 43, 64
8, 70674, Note_on_c, 6, 59, 74
8, 70711, Note_off_c, 6, 59, 64
8, 70794, Note_on_c, 6, 59, 82
8, 70832, Note_off_c, 6, 59, 64
8, 70910, Note_on_c, 6, 59, 82
8, 70950, Note_off_c, 6, 59, 64
8, 71029, Note_on_c, 6, 55, 85
8, 71135, Note_off_c, 6, 55, 64
8, 71152, Note_on_c, 6, 57, 64
8, 71196, Note_off_c, 6, 57, 64
8, 71206, Note_on_c, 6, 59, 78
8, 71250, Note_off_c, 6, 59, 64
8, 71265, Note_on_c, 6, 60, 80
8, 71303, Note_off_c, 6, 60, 64
8, 71384, Note_on_c, 6, 57, 78
8, 71424, Note_off_c, 6, 57, 64
8, 71506, Note_on_c, 6, 54, 70
8, 71554, Note_off_c, 6, 54, 64
8, 71630, Note_on_c, 6, 59, 76
8, 71668, Note_off_c, 6, 59, 64
8, 71746, Note_on_c, 6, 47, 66
8, 71804, Note_off_c, 6, 47, 64
8, 71874, Note_on_c, 6, 57, 78
8, 71907, Note_off_c, 6, 57, 64
8, 71992, Note_on_c, 6, 55, 68
8, 72051, Note_on_c, 6, 54, 72
8, 72054, Note_off_c, 6, 55, 64
8, 72100, Note_off_c, 6, 54, 64
8, 72104, Note_on_c, 6, 52, 66
8, 72161, Note_off_c, 6, 52, 64
8, 72166, Note_on_c, 6, 54, 72
8, 72209, Note_off_c, 6, 54, 64
8, 72224, Note_on_c, 6, 55, 72
8, 72285, Note_on_c, 6, 57, 64
8, 72290, Note_off_c, 6, 55, 64
8, 72337, Note_off_c, 6, 57, 64
8, 72346, Note_on_c, 6, 59, 68
8, 72388, Note_off_c, 6, 59, 64
8, 72399, Note_on_c, 6, 55, 62
8, 72442, Note_off_c, 6, 55, 64
8, 72465, Note_on_c, 6, 60, 82
8, 72521, Note_off_c, 6, 60, 64
8, 72527, Note_on_c, 6, 62, 66
8, 72582, Note_off_c, 6, 62, 64
8, 72589, Note_on_c, 6, 60, 66
8, 72642, Note_off_c, 6, 60, 64
8, 72649, Note_on_c, 6, 59, 59
8, 72692, Note_off_c, 6, 59, 64
8, 72711, Note_on_c, 6, 57, 66
8, 72763, Note_off_c, 6, 57, 64
8, 72770, Note_on_c, 6, 59, 70
8, 72818, Note_off_c, 6, 59, 64
8, 72831, Note_on_c, 6, 60, 72
8, 72882, Note_off_c, 6, 60, 64
8, 72885, Note_on_c, 6, 57, 63
8, 72934, Note_off_c, 6, 57, 64
8, 72950, Note_on_c, 6, 59, 66
8, 73003, Note_off_c, 6, 59, 64
8, 73005, Note_on_c, 6, 57, 54
8, 73048, Note_off_c, 6, 57, 64
8, 73064, Note_on_c, 6, 59, 74
8, 73123, Note_on_c, 6, 60, 66
8, 73127, Note_off_c, 6, 59, 64
8, 73174, Note_off_c, 6, 60, 64
8, 73189, Note_on_c, 6, 59, 72
8, 73243, Note_off_c, 6, 59, 64
8, 73244, Note_on_c, 6, 57, 57
8, 73299, Note_off_c, 6, 57, 64
8, 73305, Note_on_c, 6, 55, 58
8, 73363, Note_on_c, 6, 54, 72
8, 73368, Note_off_c, 6, 55, 64
8, 73417, Note_off_c, 6, 54, 64
8, 73425, Note_on_c, 6, 55, 66
8, 73483, Note_on_c, 6, 54, 60
8, 73488, Note_off_c, 6, 55, 64
8, 73530, Note_off_c, 6, 54, 64
8, 73544, Note_on_c, 6, 55, 74
8, 73607, Note_on_c, 6, 57, 63
8, 73608, Note_off_c, 6, 55, 64
8, 73659, Note_off_c, 6, 57, 64
8, 73670, Note_on_c, 6, 55, 72
8, 73724, Note_off_c, 6, 55, 64
8, 73726, Note_on_c, 6, 54, 68
8, 73778, Note_off_c, 6, 54, 64
8, 73789, Note_on_c, 6, 52, 64
8, 73844, Note_off_c, 6, 52, 64
8, 73845, Note_on_c, 6, 51, 50
8, 73902, Note_off_c, 6, 51, 64
8, 73910, Note_on_c, 6, 52, 64
8, 73952, Note_off_c, 6, 52, 64
8, 73966, Note_on_c, 6, 51, 55
8, 74017, Note_off_c, 6, 51, 64
8, 74020, Note_on_c, 6, 52, 57
8, 74076, Note_off_c, 6, 52, 64
8, 74084, Note_on_c, 6, 54, 80
8, 74126, Note_off_c, 6, 54, 64
8, 74141, Note_on_c, 6, 55, 61
8, 74204, Note_off_c, 6, 55, 64
8, 74204, Note_on_c, 6, 57, 58
8, 74256, Note_off_c, 6, 57, 64
8, 74270, Note_on_c, 6, 59, 64
8, 74328, Note_off_c, 6, 59, 64
8, 74329, Note_on_c, 6, 55, 59
8, 74385, Note_off_c, 6, 55, 64
8, 74400, Note_on_c, 6, 57, 64
8, 74458, Note_on_c, 6, 55, 78
8, 74460, Note_off_c, 6, 57, 64
8, 74505, Note_off_c, 6, 55, 64
8, 74518, Note_on_c, 6, 57, 64
8, 74565, Note_off_c, 6, 57, 64
8, 74572, Note_on_c, 6, 59, 68
8, 74632, Note_off_c, 6, 59, 64
8, 74633, Note_on_c, 6, 57, 61
8, 74688, Note_off_c, 6, 57, 64
8, 74688, Note_on_c, 6, 55, 58
8, 74734, Note_off_c, 6, 55, 64
8, 74744, Note_on_c, 6, 54, 61
8, 74807, Note_on_c, 6, 52, 59
8, 74816, Note_off_c, 6, 54, 64
8, 74856, Note_off_c, 6, 52, 64
8, 74864, Note_on_c, 6, 50, 58
8, 74923, Note_on_c, 6, 48, 63
8, 74930, Note_off_c, 6, 50, 64
8, 74971, Note_off_c, 6, 48, 64
8, 74995, Note_on_c, 6, 50, 59
8, 75044, Note_off_c, 6, 50, 64
8, 75052, Note_on_c, 6, 52, 60
8, 75091, Note_off_c, 6, 52, 64
8, 75109, Note_on_c, 6, 54, 60
8, 75159, Note_off_c, 6, 54, 64
8, 75163, Note_on_c, 6, 55, 70
8, 75215, Note_off_c, 6, 55, 64
8, 75228, Note_on_c, 6, 57, 61
8, 75275, Note_off_c, 6, 57, 64
8, 75284, Note_on_c, 6, 54, 53
8, 75332, Note_off_c, 6, 54, 64
8, 75352, Note_on_c, 6, 55, 74
8, 75408, Note_on_c, 6, 54, 60
8, 75412, Note_off_c, 6, 55, 64
8, 75461, Note_off_c, 6, 54, 64
8, 75464, Note_on_c, 6, 55, 60
8, 75529, Note_off_c, 6, 55, 64
8, 75530, Note_on_c, 6, 57, 60
8, 75578, Note_off_c, 6, 57, 64
8, 75592, Note_on_c, 6, 55, 66
8, 75653, Note_on_c, 6, 54, 62
8, 75656, Note_off_c, 6, 55, 64
8, 75713, Note_off_c, 6, 54, 64
8, 75716, Note_on_c, 6, 52, 72
8, 75762, Note_off_c, 6, 52, 64
8, 75770, Note_on_c, 6, 50, 62
8, 75828, Note_off_c, 6, 50, 64
8, 75834, Note_on_c, 6, 48, 78
8, 75879, Note_off_c, 6, 48, 64
8, 75885, Note_on_c, 6, 50, 63
8, 75944, Note_on_c, 6, 48, 59
8, 75956, Note_off_c, 6, 50, 64
8, 76000, Note_on_c, 6, 47, 58
8, 76002, Note_off_c, 6, 48, 64
8, 76059, Note_on_c, 6, 45, 74
8, 76068, Note_off_c, 6, 47, 64
8, 76113, Note_off_c, 6, 45, 64
8, 76115, Note_on_c, 6, 43, 63
8, 76176, Note_off_c, 6, 43, 64
8, 76180, Note_on_c, 6, 42, 61
8, 76236, Note_off_c, 6, 42, 64
8, 76242, Note_on_c, 6, 40, 68
8, 76305, Note_off_c, 6, 40, 64
8, 76311, Note_on_c, 6, 39, 78
8, 76376, Note_off_c, 6, 39, 64
8, 76434, Note_on_c, 6, 47, 62
8, 76480, Note_off_c, 6, 47, 64
8, 76550, Note_on_c, 6, 48, 63
8, 76599, Note_off_c, 6, 48, 64
8, 76669, Note_on_c, 6, 47, 68
8, 76718, Note_off_c, 6, 47, 64
8, 76788, Note_on_c, 6, 45, 68
8, 76834, Note_off_c, 6, 45, 64
8, 76907, Note_on_c, 6, 42, 61
8, 76960, Note_off_c, 6, 42, 64
8, 77030, Note_on_c, 6, 47, 78
8, 77075, Note_off_c, 6, 47, 64
8, 77153, Note_on_c, 6, 45, 78
8, 77196, Note_off_c, 6, 45, 64
8, 77270, Note_on_c, 6, 44, 64
8, 77319, Note_off_c, 6, 44, 64
8, 77384, Note_on_c, 6, 52, 78
8, 77428, Note_off_c, 6, 52, 64
8, 77508, Note_on_c, 6, 57, 74
8, 77554, Note_off_c, 6, 57, 64
8, 77635, Note_on_c, 6, 55, 80
8, 77678, Note_off_c, 6, 55, 64
8, 77751, Note_on_c, 6, 54, 64
8, 77847, Note_off_c, 6, 54, 64
8, 77877, Note_on_c, 6, 62, 82
8, 77934, Note_on_c, 6, 60, 80
8, 77936, Note_off_c, 6, 62, 64
8, 77966, Note_off_c, 6, 60, 64
8, 77990, Note_on_c, 6, 59, 64
8, 78027, Note_off_c, 6, 59, 64
8, 78107, Note_on_c, 6, 57, 70
8, 78151, Note_off_c, 6, 57, 64
8, 78237, Note_on_c, 6, 56, 68
8, 78291, Note_off_c, 6, 56, 64
8, 78351, Note_on_c, 6, 52, 66
8, 78404, Note_off_c, 6, 52, 64
8, 78473, Note_on_c, 6, 57, 72
8, 78519, Note_off_c, 6, 57, 64
8, 78593, Note_on_c, 6, 60, 64
8, 78656, Note_off_c, 6, 60, 64
8, 78711, Note_on_c, 6, 65, 70
8, 78769, Note_off_c, 6, 65, 64
8, 78827, Note_on_c, 6, 56, 62
8, 78883, Note_off_c, 6, 56, 64
8, 78952, Note_on_c, 6, 57, 66
8, 79009, Note_off_c, 6, 57, 64
8, 79072, Note_on_c, 6, 53, 61
8, 79121, Note_off_c, 6, 53, 64
8, 79184, Note_on_c, 6, 50, 70
8, 79233, Note_off_c, 6, 50, 64
8, 79305, Note_on_c, 6, 47, 70
8, 79356, Note_off_c, 6, 47, 64
8, 79423, Note_on_c, 6, 52, 80
8, 79469, Note_off_c, 6, 52, 64
8, 79538, Note_on_c, 6, 40, 82
8, 79582, Note_off_c, 6, 40, 64
8, 79658, Note_on_c, 6, 45, 87
8, 79751, Note_off_c, 6, 45, 64
8, 79794, Note_on_c, 6, 64, 82
8, 79843, Note_off_c, 6, 64, 64
8, 79853, Note_on_c, 6, 62, 76
8, 79885, Note_off_c, 6, 62, 64
8, 79906, Note_on_c, 6, 60, 82
8, 79948, Note_off_c, 6, 60, 64
8, 79961, Note_on_c, 6, 59, 70
8, 80014, Note_off_c, 6, 59, 64
8, 80021, Note_on_c, 6, 60, 68
8, 80062, Note_off_c, 6, 60, 64
8, 80077, Note_on_c, 6, 57, 61
8, 80118, Note_off_c, 6, 57, 64
8, 80150, Note_on_c, 6, 62, 85
8, 80189, Note_off_c, 6, 62, 64
8, 80275, Note_on_c, 6, 50, 76
8, 80324, Note_off_c, 6, 50, 64
8, 80387, Note_on_c, 6, 62, 76
8, 80432, Note_off_c, 6, 62, 64
8, 80510, Note_on_c, 6, 58, 58
8, 80552, Note_off_c, 6, 58, 64
8, 80628, Note_on_c, 6, 63, 63
8, 80669, Note_off_c, 6, 63, 64
8, 80755, Note_on_c, 6, 54, 59
8, 80795, Note_off_c, 6, 54, 64
8, 80878, Note_on_c, 6, 55, 68
8, 80912, Note_off_c, 6, 55, 64
8, 80989, Note_on_c, 6, 51, 60
8, 81021, Note_off_c, 6, 51, 64
8, 81105, Note_on_c, 6, 48, 80
8, 81148, Note_off_c, 6, 48, 64
8, 81214, Note_on_c, 6, 45, 62
8, 81259, Note_off_c, 6, 45, 64
8, 81338, Note_on_c, 6, 50, 80
8, 81380, Note_off_c, 6, 50, 64
8, 81459, Note_on_c, 6, 38, 80
8, 81501, Note_off_c, 6, 38, 64
8, 81587, Note_on_c, 6, 43, 74
8, 81680, Note_off_c, 6, 43, 64
8, 81711, Note_on_c, 6, 62, 70
8, 81763, Note_off_c, 6, 62, 64
8, 81768, Note_on_c, 6, 60, 72
8, 81800, Note_off_c, 6, 60, 64
8, 81820, Note_on_c, 6, 58, 66
8, 81859, Note_off_c, 6, 58, 64
8, 81876, Note_on_c, 6, 57, 78
8, 81914, Note_off_c, 6, 57, 64
8, 81935, Note_on_c, 6, 58, 82
8, 81982, Note_off_c, 6, 58, 64
8, 81994, Note_on_c, 6, 55, 68
8, 82038, Note_off_c, 6, 55, 64
8, 82070, Note_on_c, 6, 60, 87
8, 82115, Note_off_c, 6, 60, 64
8, 82192, Note_on_c, 6, 48, 66
8, 82239, Note_off_c, 6, 48, 64
8, 82321, Note_on_c, 6, 60, 82
8, 82359, Note_off_c, 6, 60, 64
8, 82438, Note_on_c, 6, 57, 68
8, 82477, Note_off_c, 6, 57, 64
8, 82560, Note_on_c, 6, 62, 80
8, 82601, Note_off_c, 6, 62, 64
8, 82671, Note_on_c, 6, 52, 64
8, 82721, Note_off_c, 6, 52, 64
8, 82791, Note_on_c, 6, 53, 68
8, 82839, Note_off_c, 6, 53, 64
8, 82908, Note_on_c, 6, 50, 76
8, 82966, Note_off_c, 6, 50, 64
8, 83031, Note_on_c, 6, 46, 66
8, 83086, Note_off_c, 6, 46, 64
8, 83148, Note_on_c, 6, 43, 66
8, 83199, Note_off_c, 6, 43, 64
8, 83272, Note_on_c, 6, 48, 80
8, 83315, Note_off_c, 6, 48, 64
8, 83393, Note_on_c, 6, 36, 64
8, 83449, Note_off_c, 6, 36, 64
8, 83527, Note_on_c, 6, 41, 80
8, 83641, Note_off_c, 6, 41, 64
8, 84062, Note_on_c, 6, 58, 66
8, 84104, Note_off_c, 6, 58, 64
8, 84121, Note_on_c, 6, 57, 78
8, 84161, Note_off_c, 6, 57, 64
8, 84178, Note_on_c, 6, 55, 66
8, 84224, Note_off_c, 6, 55, 64
8, 84229, Note_on_c, 6, 53, 66
8, 84272, Note_off_c, 6, 53, 64
8, 84291, Note_on_c, 6, 52, 53
8, 84336, Note_off_c, 6, 52, 64
8, 84349, Note_on_c, 6, 53, 43
8, 84392, Note_off_c, 6, 53, 64
8, 84402, Note_on_c, 6, 50, 68
8, 84449, Note_off_c, 6, 50, 64
8, 84469, Note_on_c, 6, 55, 78
8, 84519, Note_off_c, 6, 55, 64
8, 84597, Note_on_c, 6, 43, 89
8, 84662, Note_off_c, 6, 43, 64
8, 100365, Note_on_c, 6, 58, 68
8, 100410, Note_off_c, 6, 58, 64
8, 100424, Note_on_c, 6, 57, 70
8, 100479, Note_off_c, 6, 57, 64
8, 100486, Note_on_c, 6, 55, 64
8, 100540, Note_off_c, 6, 55, 64
8, 100550, Note_on_c, 6, 53, 64
8, 100591, Note_off_c, 6, 53, 64
8, 100605, Note_on_c, 6, 52, 58
8, 100650, Note_off_c, 6, 52, 64
8, 100665, Note_on_c, 6, 53, 62
8, 100723, Note_on_c, 6, 50, 58
8, 100724, Note_off_c, 6, 53, 64
8, 100771, Note_off_c, 6, 50, 64
8, 100789, Note_on_c, 6, 55, 80
8, 100837, Note_off_c, 6, 55, 64
8, 100849, Note_on_c, 6, 53, 60
8, 100895, Note_off_c, 6, 53, 64
8, 100907, Note_on_c, 6, 55, 64
8, 100954, Note_off_c, 6, 55, 64
8, 100968, Note_on_c, 6, 57, 70
8, 101015, Note_off_c, 6, 57, 64
8, 101030, Note_on_c, 6, 55, 78
8, 101070, Note_off_c, 6, 55, 64
8, 101086, Note_on_c, 6, 53, 68
8, 101124, Note_off_c, 6, 53, 64
8, 101144, Note_on_c, 6, 52, 64
8, 101191, Note_off_c, 6, 52, 64
8, 101199, Note_on_c, 6, 50, 70
8, 101243, Note_off_c, 6, 50, 64
8, 101266, Note_on_c, 6, 48, 59
8, 101533, Note_off_c, 6, 48, 64
8, 102840, Note_on_c, 6, 60, 70
8, 102880, Note_off_c, 6, 60, 64
8, 102955, Note_on_c, 6, 60, 74
8, 102999, Note_off_c, 6, 60, 64
8, 103075, Note_on_c, 6, 60, 78
8, 103116, Note_off_c, 6, 60, 64
8, 103191, Note_on_c, 6, 59, 78
8, 103305, Note_off_c, 6, 59, 64
8, 103316, Note_on_c, 6, 60, 78
8, 103358, Note_on_c, 6, 62, 72
8, 103367, Note_off_c, 6, 60, 64
8, 103409, Note_off_c, 6, 62, 64
8, 103419, Note_on_c, 6, 64, 80
8, 103460, Note_off_c, 6, 64, 64
8, 103544, Note_on_c, 6, 60, 80
8, 103586, Note_off_c, 6, 60, 64
8, 103671, Note_on_c, 6, 57, 72
8, 103714, Note_off_c, 6, 57, 64
8, 103786, Note_on_c, 6, 62, 89
8, 103830, Note_off_c, 6, 62, 64
8, 103911, Note_on_c, 6, 50, 82
8, 103960, Note_off_c, 6, 50, 64
8, 104030, Note_on_c, 6, 60, 82
8, 104076, Note_off_c, 6, 60, 64
8, 104152, Note_on_c, 6, 59, 80
8, 104200, Note_off_c, 6, 59, 64
8, 104267, Note_on_c, 6, 55, 68
8, 104309, Note_off_c, 6, 55, 64
8, 104384, Note_on_c, 6, 60, 82
8, 104421, Note_off_c, 6, 60, 64
8, 104509, Note_on_c, 6, 48, 85
8, 104551, Note_off_c, 6, 48, 64
8, 104625, Note_on_c, 6, 53, 82
8, 104674, Note_off_c, 6, 53, 64
8, 104684, Note_on_c, 6, 57, 80
8, 104738, Note_off_c, 6, 57, 64
8, 104745, Note_on_c, 6, 55, 60
8, 104796, Note_on_c, 6, 57, 74
8, 104801, Note_off_c, 6, 55, 64
8, 104852, Note_off_c, 6, 57, 64
8, 104860, Note_on_c, 6, 58, 80
8, 104917, Note_off_c, 6, 58, 64
8, 104918, Note_on_c, 6, 57, 72
8, 104976, Note_off_c, 6, 57, 64
8, 104981, Note_on_c, 6, 55, 57
8, 105039, Note_off_c, 6, 55, 64
8, 105043, Note_on_c, 6, 53, 58
8, 105086, Note_off_c, 6, 53, 64
8, 105102, Note_on_c, 6, 52, 64
8, 105147, Note_off_c, 6, 52, 64
8, 105157, Note_on_c, 6, 55, 61
8, 105219, Note_off_c, 6, 55, 64
8, 105222, Note_on_c, 6, 53, 56
8, 105281, Note_on_c, 6, 55, 72
8, 105286, Note_off_c, 6, 53, 64
8, 105327, Note_off_c, 6, 55, 64
8, 105345, Note_on_c, 6, 57, 85
8, 105405, Note_off_c, 6, 57, 64
8, 105405, Note_on_c, 6, 55, 64
8, 105463, Note_off_c, 6, 55, 64
8, 105472, Note_on_c, 6, 53, 60
8, 105520, Note_off_c, 6, 53, 64
8, 105532, Note_on_c, 6, 52, 57
8, 105572, Note_off_c, 6, 52, 64
8, 105595, Note_on_c, 6, 50, 78
8, 105698, Note_off_c, 6, 50, 64
8, 105718, Note_on_c, 6, 52, 70
8, 105763, Note_off_c, 6, 52, 64
8, 105765, Note_on_c, 6, 53, 66
8, 105801, Note_off_c, 6, 53, 64
8, 105830, Note_on_c, 6, 55, 87
8, 105873, Note_off_c, 6, 55, 64
8, 105946, Note_on_c, 6, 43, 82
8, 105987, Note_off_c, 6, 43, 64
8, 106077, Note_on_c, 6, 48, 85
8, 106138, Note_off_c, 6, 48, 64
8, 106142, Note_on_c, 6, 55, 80
8, 106189, Note_off_c, 6, 55, 64
8, 106195, Note_on_c, 6, 57, 70
8, 106245, Note_off_c, 6, 57, 64
8, 106245, Note_on_c, 6, 59, 85
8, 106291, Note_off_c, 6, 59, 64
8, 106317, Note_on_c, 6, 60, 85
8, 106447, Note_off_c, 6, 60, 64
8, 106491, Note_on_c, 6, 60, 91
8, 106521, Note_off_c, 6, 60, 64
8, 106557, Note_on_c, 6, 60, 91
8, 106611, Note_on_c, 6, 59, 82
8, 106613, Note_off_c, 6, 60, 64
8, 106662, Note_off_c, 6, 59, 64
8, 106672, Note_on_c, 6, 60, 78
8, 106718, Note_off_c, 6, 60, 64
8, 106728, Note_on_c, 6, 57, 66
8, 106774, Note_off_c, 6, 57, 64
8, 106796, Note_on_c, 6, 59, 89
8, 106943, Note_off_c, 6, 59, 64
8, 106979, Note_on_c, 6, 59, 91
8, 107014, Note_off_c, 6, 59, 64
8, 107042, Note_on_c, 6, 59, 87
8, 107085, Note_off_c, 6, 59, 64
8, 107155, Note_on_c, 6, 52, 89
8, 107201, Note_off_c, 6, 52, 64
8, 107279, Note_on_c, 6, 57, 85
8, 107414, Note_off_c, 6, 57, 64
8, 107451, Note_on_c, 6, 57, 82
8, 107481, Note_off_c, 6, 57, 64
8, 107518, Note_on_c, 6, 57, 91
8, 107567, Note_on_c, 6, 55, 64
8, 107568, Note_off_c, 6, 57, 64
8, 107616, Note_off_c, 6, 55, 64
8, 107627, Note_on_c, 6, 57, 74
8, 107671, Note_off_c, 6, 57, 64
8, 107683, Note_on_c, 6, 53, 68
8, 107728, Note_off_c, 6, 53, 64
8, 107751, Note_on_c, 6, 55, 72
8, 107890, Note_off_c, 6, 55, 64
8, 107931, Note_on_c, 6, 55, 68
8, 107964, Note_off_c, 6, 55, 64
8, 107996, Note_on_c, 6, 55, 82
8, 108034, Note_off_c, 6, 55, 64
8, 108112, Note_on_c, 6, 48, 82
8, 108158, Note_off_c, 6, 48, 64
8, 108236, Note_on_c, 6, 53, 78
8, 108377, Note_off_c, 6, 53, 64
8, 108411, Note_on_c, 6, 53, 85
8, 108438, Note_off_c, 6, 53, 64
8, 108471, Note_on_c, 6, 53, 93
8, 108518, Note_off_c, 6, 53, 64
8, 108519, Note_on_c, 6, 52, 57
8, 108571, Note_off_c, 6, 52, 64
8, 108578, Note_on_c, 6, 53, 70
8, 108632, Note_off_c, 6, 53, 64
8, 108638, Note_on_c, 6, 50, 68
8, 108680, Note_off_c, 6, 50, 64
8, 108710, Note_on_c, 6, 52, 87
8, 108763, Note_on_c, 6, 53, 80
8, 108768, Note_off_c, 6, 52, 64
8, 108825, Note_on_c, 6, 55, 70
8, 108829, Note_off_c, 6, 53, 64
8, 108869, Note_off_c, 6, 55, 64
8, 108883, Note_on_c, 6, 52, 62
8, 108930, Note_off_c, 6, 52, 64
8, 108951, Note_on_c, 6, 57, 85
8, 109009, Note_on_c, 6, 58, 66
8, 109016, Note_off_c, 6, 57, 64
8, 109061, Note_off_c, 6, 58, 64
8, 109068, Note_on_c, 6, 57, 80
8, 109124, Note_on_c, 6, 55, 82
8, 109125, Note_off_c, 6, 57, 64
8, 109183, Note_off_c, 6, 55, 64
8, 109186, Note_on_c, 6, 53, 66
8, 109240, Note_on_c, 6, 52, 57
8, 109243, Note_off_c, 6, 53, 64
8, 109301, Note_on_c, 6, 50, 62
8, 109302, Note_off_c, 6, 52, 64
8, 109362, Note_on_c, 6, 48, 64
8, 109364, Note_off_c, 6, 50, 64
8, 109414, Note_off_c, 6, 48, 64
8, 109424, Note_on_c, 6, 47, 68
8, 109488, Note_off_c, 6, 47, 64
8, 109490, Note_on_c, 6, 45, 78
8, 109549, Note_off_c, 6, 45, 64
8, 109556, Note_on_c, 6, 43, 57
8, 109613, Note_on_c, 6, 45, 72
8, 109617, Note_off_c, 6, 43, 64
8, 109661, Note_off_c, 6, 45, 64
8, 109679, Note_on_c, 6, 47, 80
8, 109732, Note_off_c, 6, 47, 64
8, 109734, Note_on_c, 6, 45, 72
8, 109792, Note_on_c, 6, 47, 70
8, 109795, Note_off_c, 6, 45, 64
8, 109835, Note_off_c, 6, 47, 64
8, 109850, Note_on_c, 6, 43, 66
8, 109900, Note_off_c, 6, 43, 64
8, 109920, Note_on_c, 6, 48, 82
8, 109971, Note_off_c, 6, 48, 64
8, 110040, Note_on_c, 6, 53, 80
8, 110085, Note_off_c, 6, 53, 64
8, 110157, Note_on_c, 6, 55, 87
8, 110191, Note_off_c, 6, 55, 64
8, 110274, Note_on_c, 6, 43, 87
8, 110311, Note_off_c, 6, 43, 64
8, 110398, Note_on_c, 6, 36, 85
8, 110993, Note_off_c, 6, 36, 64
8, 124015, Note_on_c, 6, 47, 85
8, 124058, Note_off_c, 6, 47, 64
8, 124077, Note_on_c, 6, 48, 87
8, 124149, Note_off_c, 6, 48, 64
8, 124249, Note_on_c, 6, 41, 78
8, 124282, Note_off_c, 6, 41, 64
8, 124314, Note_on_c, 6, 43, 82
8, 124489, Note_off_c, 6, 43, 64
8, 124554, Note_on_c, 6, 43, 76
8, 124712, Note_off_c, 6, 43, 64
8, 124796, Note_on_c, 6, 36, 100
8, 124855, Note_off_c, 6, 36, 64
8, 150764, Note_on_c, 6, 60, 80
8, 150802, Note_off_c, 6, 60, 64
8, 150823, Note_on_c, 6, 59, 76
8, 150859, Note_off_c, 6, 59, 64
8, 150883, Note_on_c, 6, 57, 70
8, 150939, Note_off_c, 6, 57, 64
8, 150943, Note_on_c, 6, 55, 68
8, 150986, Note_off_c, 6, 55, 64
8, 151002, Note_on_c, 6, 54, 56
8, 151039, Note_off_c, 6, 54, 64
8, 151065, Note_on_c, 6, 55, 62
8, 151105, Note_off_c, 6, 55, 64
8, 151116, Note_on_c, 6, 52, 60
8, 151150, Note_off_c, 6, 52, 64
8, 151188, Note_on_c, 6, 57, 85
8, 151230, Note_off_c, 6, 57, 64
8, 151307, Note_on_c, 6, 45, 63
8, 151372, Note_off_c, 6, 45, 64
8, 152682, Note_on_c, 6, 58, 66
8, 152720, Note_off_c, 6, 58, 64
8, 152743, Note_on_c, 6, 57, 74
8, 152777, Note_off_c, 6, 57, 64
8, 152800, Note_on_c, 6, 55, 68
8, 152851, Note_off_c, 6, 55, 64
8, 152863, Note_on_c, 6, 53, 63
8, 152900, Note_off_c, 6, 53, 64
8, 152923, Note_on_c, 6, 52, 54
8, 152962, Note_off_c, 6, 52, 64
8, 152982, Note_on_c, 6, 53, 61
8, 153023, Note_off_c, 6, 53, 64
8, 153040, Note_on_c, 6, 50, 60
8, 153080, Note_off_c, 6, 50, 64
8, 153105, Note_on_c, 6, 55, 70
8, 153149, Note_off_c, 6, 55, 64
8, 153231, Note_on_c, 6, 43, 74
8, 153291, Note_off_c, 6, 43, 64
8, 155093, Note_on_c, 6, 53, 74
8, 155132, Note_off_c, 6, 53, 64
8, 155150, Note_on_c, 6, 52, 78
8, 155185, Note_off_c, 6, 52, 64
8, 155208, Note_on_c, 6, 50, 63
8, 155258, Note_off_c, 6, 50, 64
8, 155269, Note_on_c, 6, 48, 64
8, 155302, Note_off_c, 6, 48, 64
8, 155327, Note_on_c, 6, 47, 68
8, 155364, Note_off_c, 6, 47, 64
8, 155384, Note_on_c, 6, 48, 74
8, 155426, Note_off_c, 6, 48, 64
8, 155443, Note_on_c, 6, 45, 62
8, 155487, Note_off_c, 6, 45, 64
8, 155511, Note_on_c, 6, 50, 66
8, 155553, Note_off_c, 6, 50, 64
8, 155627, Note_on_c, 6, 38, 63
8, 155684, Note_off_c, 6, 38, 64
8, 156117, Note_on_c, 6, 55, 74
8, 156152, Note_off_c, 6, 55, 64
8, 156239, Note_on_c, 6, 55, 80
8, 156278, Note_off_c, 6, 55, 64
8, 156358, Note_on_c, 6, 55, 70
8, 156401, Note_off_c, 6, 55, 64
8, 156473, Note_on_c, 6, 54, 68
8, 156574, Note_off_c, 6, 54, 64
8, 156586, Note_on_c, 6, 55, 70
8, 156635, Note_off_c, 6, 55, 64
8, 156647, Note_on_c, 6, 57, 64
8, 156682, Note_off_c, 6, 57, 64
8, 156704, Note_on_c, 6, 59, 76
8, 156745, Note_off_c, 6, 59, 64
8, 156828, Note_on_c, 6, 55, 72
8, 156865, Note_off_c, 6, 55, 64
8, 156946, Note_on_c, 6, 52, 68
8, 156988, Note_off_c, 6, 52, 64
8, 157063, Note_on_c, 6, 57, 76
8, 157099, Note_off_c, 6, 57, 64
8, 157185, Note_on_c, 6, 45, 82
8, 157226, Note_off_c, 6, 45, 64
8, 157301, Note_on_c, 6, 55, 80
8, 157332, Note_off_c, 6, 55, 64
8, 157420, Note_on_c, 6, 54, 68
8, 157513, Note_off_c, 6, 54, 64
8, 157552, Note_on_c, 6, 55, 70
8, 157599, Note_off_c, 6, 55, 64
8, 157607, Note_on_c, 6, 57, 64
8, 157646, Note_off_c, 6, 57, 64
8, 157663, Note_on_c, 6, 59, 72
8, 157705, Note_off_c, 6, 59, 64
8, 157721, Note_on_c, 6, 60, 66
8, 157767, Note_off_c, 6, 60, 64
8, 157774, Note_on_c, 6, 62, 59
8, 157801, Note_off_c, 6, 62, 64
8, 157833, Note_on_c, 6, 64, 72
8, 157879, Note_off_c, 6, 64, 64
8, 157900, Note_on_c, 6, 57, 55
8, 157948, Note_off_c, 6, 57, 64
8, 157960, Note_on_c, 6, 60, 60
8, 158003, Note_off_c, 6, 60, 64
8, 158025, Note_on_c, 6, 59, 47
8, 158065, Note_off_c, 6, 59, 64
8, 158087, Note_on_c, 6, 60, 62
8, 158127, Note_off_c, 6, 60, 64
8, 158150, Note_on_c, 6, 62, 82
8, 158197, Note_off_c, 6, 62, 64
8, 158205, Note_on_c, 6, 60, 70
8, 158245, Note_off_c, 6, 60, 64
8, 158267, Note_on_c, 6, 59, 60
8, 158307, Note_off_c, 6, 59, 64
8, 158326, Note_on_c, 6, 57, 52
8, 158365, Note_off_c, 6, 57, 64
8, 158392, Note_on_c, 6, 55, 53
8, 158428, Note_off_c, 6, 55, 64
8, 158452, Note_on_c, 6, 59, 66
8, 158494, Note_off_c, 6, 59, 64
8, 158520, Note_on_c, 6, 57, 48
8, 158560, Note_off_c, 6, 57, 64
8, 158575, Note_on_c, 6, 59, 59
8, 158612, Note_off_c, 6, 59, 64
8, 158636, Note_on_c, 6, 60, 80
8, 158681, Note_off_c, 6, 60, 64
8, 158693, Note_on_c, 6, 59, 64
8, 158735, Note_off_c, 6, 59, 64
8, 158749, Note_on_c, 6, 57, 60
8, 158794, Note_off_c, 6, 57, 64
8, 158813, Note_on_c, 6, 55, 49
8, 158857, Note_off_c, 6, 55, 64
8, 158864, Note_on_c, 6, 54, 53
8, 158903, Note_off_c, 6, 54, 64
8, 158926, Note_on_c, 6, 57, 60
8, 158982, Note_off_c, 6, 57, 64
8, 158997, Note_on_c, 6, 55, 52
8, 159047, Note_off_c, 6, 55, 64
8, 159053, Note_on_c, 6, 57, 61
8, 159097, Note_off_c, 6, 57, 64
8, 159119, Note_on_c, 6, 59, 72
8, 159167, Note_off_c, 6, 59, 64
8, 159175, Note_on_c, 6, 57, 59
8, 159226, Note_off_c, 6, 57, 64
8, 159232, Note_on_c, 6, 55, 63
8, 159295, Note_on_c, 6, 54, 70
8, 159300, Note_off_c, 6, 55, 64
8, 159332, Note_off_c, 6, 54, 64
8, 159350, Note_on_c, 6, 52, 66
8, 159390, Note_off_c, 6, 52, 64
8, 159407, Note_on_c, 6, 55, 55
8, 159448, Note_off_c, 6, 55, 64
8, 159470, Note_on_c, 6, 54, 55
8, 159510, Note_off_c, 6, 54, 64
8, 159527, Note_on_c, 6, 55, 72
8, 159562, Note_off_c, 6, 55, 64
8, 159595, Note_on_c, 6, 57, 82
8, 159635, Note_off_c, 6, 57, 64
8, 159652, Note_on_c, 6, 55, 66
8, 159693, Note_off_c, 6, 55, 64
8, 159705, Note_on_c, 6, 54, 63
8, 159749, Note_off_c, 6, 54, 64
8, 159765, Note_on_c, 6, 52, 53
8, 159799, Note_off_c, 6, 52, 64
8, 159829, Note_on_c, 6, 50, 66
8, 159889, Note_off_c, 6, 50, 64
8, 159945, Note_on_c, 6, 62, 70
8, 159988, Note_off_c, 6, 62, 64
8, 160069, Note_on_c, 6, 62, 80
8, 160108, Note_off_c, 6, 62, 64
8, 160191, Note_on_c, 6, 62, 87
8, 160229, Note_off_c, 6, 62, 64
8, 160313, Note_on_c, 6, 59, 85
8, 160416, Note_off_c, 6, 59, 64
8, 160432, Note_on_c, 6, 60, 74
8, 160474, Note_off_c, 6, 60, 64
8, 160489, Note_on_c, 6, 62, 80
8, 160529, Note_off_c, 6, 62, 64
8, 160549, Note_on_c, 6, 64, 89
8, 160590, Note_off_c, 6, 64, 64
8, 160668, Note_on_c, 6, 60, 82
8, 160708, Note_off_c, 6, 60, 64
8, 160795, Note_on_c, 6, 57, 82
8, 160840, Note_off_c, 6, 57, 64
8, 160910, Note_on_c, 6, 62, 87
8, 160949, Note_off_c, 6, 62, 64
8, 161027, Note_on_c, 6, 50, 85
8, 161075, Note_off_c, 6, 50, 64
8, 161147, Note_on_c, 6, 60, 82
8, 161185, Note_off_c, 6, 60, 64
8, 161266, Note_on_c, 6, 59, 72
8, 161308, Note_off_c, 6, 59, 64
8, 161383, Note_on_c, 6, 55, 72
8, 161424, Note_off_c, 6, 55, 64
8, 161503, Note_on_c, 6, 62, 87
8, 161540, Note_off_c, 6, 62, 64
8, 161621, Note_on_c, 6, 50, 80
8, 161663, Note_off_c, 6, 50, 64
8, 161751, Note_on_c, 6, 43, 80
8, 161796, Note_off_c, 6, 43, 64
8, 179160, Note_on_c, 6, 60, 72
8, 179196, Note_off_c, 6, 60, 64
8, 179279, Note_on_c, 6, 60, 72
8, 179318, Note_off_c, 6, 60, 64
8, 179403, Note_on_c, 6, 60, 80
8, 179443, Note_off_c, 6, 60, 64
8, 179524, Note_on_c, 6, 59, 68
8, 179627, Note_off_c, 6, 59, 64
8, 179643, Note_on_c, 6, 60, 68
8, 179675, Note_off_c, 6, 60, 64
8, 179682, Note_on_c, 6, 62, 68
8, 179728, Note_off_c, 6, 62, 64
8, 179745, Note_on_c, 6, 64, 80
8, 179790, Note_off_c, 6, 64, 64
8, 179868, Note_on_c, 6, 60, 78
8, 179909, Note_off_c, 6, 60, 64
8, 179997, Note_on_c, 6, 57, 64
8, 180041, Note_off_c, 6, 57, 64
8, 180113, Note_on_c, 6, 62, 78
8, 180149, Note_off_c, 6, 62, 64
8, 180236, Note_on_c, 6, 50, 80
8, 180285, Note_off_c, 6, 50, 64
8, 180351, Note_on_c, 6, 60, 80
8, 180393, Note_off_c, 6, 60, 64
8, 180476, Note_on_c, 6, 59, 80
8, 180521, Note_off_c, 6, 59, 64
8, 180589, Note_on_c, 6, 55, 63
8, 180628, Note_off_c, 6, 55, 64
8, 180711, Note_on_c, 6, 60, 85
8, 180748, Note_off_c, 6, 60, 64
8, 180828, Note_on_c, 6, 48, 68
8, 180880, Note_off_c, 6, 48, 64
8, 180951, Note_on_c, 6, 41, 68
8, 181044, Note_off_c, 6, 41, 64
8, 181073, Note_on_c, 6, 53, 62
8, 181113, Note_off_c, 6, 53, 64
8, 181194, Note_on_c, 6, 53, 70
8, 181237, Note_off_c, 6, 53, 64
8, 181316, Note_on_c, 6, 53, 68
8, 181363, Note_off_c, 6, 53, 64
8, 181434, Note_on_c, 6, 52, 85
8, 181543, Note_off_c, 6, 52, 64
8, 181559, Note_on_c, 6, 53, 82
8, 181606, Note_off_c, 6, 53, 64
8, 181611, Note_on_c, 6, 55, 76
8, 181657, Note_off_c, 6, 55, 64
8, 181668, Note_on_c, 6, 57, 80
8, 181714, Note_off_c, 6, 57, 64
8, 181792, Note_on_c, 6, 53, 68
8, 181835, Note_off_c, 6, 53, 64
8, 181911, Note_on_c, 6, 50, 80
8, 181959, Note_off_c, 6, 50, 64
8, 182027, Note_on_c, 6, 55, 80
8, 182067, Note_off_c, 6, 55, 64
8, 182150, Note_on_c, 6, 43, 78
8, 182207, Note_off_c, 6, 43, 64
8, 182268, Note_on_c, 6, 53, 82
8, 182312, Note_off_c, 6, 53, 64
8, 182394, Note_on_c, 6, 52, 82
8, 182443, Note_off_c, 6, 52, 64
8, 182511, Note_on_c, 6, 55, 85
8, 182560, Note_off_c, 6, 55, 64
8, 182640, Note_on_c, 6, 52, 70
8, 182691, Note_off_c, 6, 52, 64
8, 182758, Note_on_c, 6, 48, 66
8, 182814, Note_off_c, 6, 48, 64
8, 182880, Note_on_c, 6, 53, 68
8, 182933, Note_off_c, 6, 53, 64
8, 182995, Note_on_c, 6, 50, 80
8, 183057, Note_off_c, 6, 50, 64
8, 183118, Note_on_c, 6, 52, 82
8, 183169, Note_off_c, 6, 52, 64
8, 183239, Note_on_c, 6, 53, 80
8, 183284, Note_off_c, 6, 53, 64
8, 183360, Note_on_c, 6, 55, 78
8, 183630, Note_off_c, 6, 55, 64
8, 187798, Note_on_c, 6, 60, 82
8, 187835, Note_off_c, 6, 60, 64
8, 187918, Note_on_c, 6, 60, 74
8, 187965, Note_off_c, 6, 60, 64
8, 188036, Note_on_c, 6, 60, 78
8, 188087, Note_off_c, 6, 60, 64
8, 188167, Note_on_c, 6, 59, 66
8, 188273, Note_off_c, 6, 59, 64
8, 188282, Note_on_c, 6, 60, 78
8, 188324, Note_off_c, 6, 60, 64
8, 188331, Note_on_c, 6, 62, 76
8, 188376, Note_off_c, 6, 62, 64
8, 188389, Note_on_c, 6, 64, 85
8, 188431, Note_off_c, 6, 64, 64
8, 188510, Note_on_c, 6, 60, 78
8, 188558, Note_off_c, 6, 60, 64
8, 188635, Note_on_c, 6, 57, 64
8, 188676, Note_off_c, 6, 57, 64
8, 188751, Note_on_c, 6, 62, 76
8, 188784, Note_off_c, 6, 62, 64
8, 188874, Note_on_c, 6, 50, 78
8, 188923, Note_off_c, 6, 50, 64
8, 188993, Note_on_c, 6, 60, 78
8, 189038, Note_off_c, 6, 60, 64
8, 189121, Note_on_c, 6, 59, 80
8, 189172, Note_on_c, 6, 57, 68
8, 189178, Note_off_c, 6, 59, 64
8, 189229, Note_off_c, 6, 57, 64
8, 189235, Note_on_c, 6, 55, 68
8, 189290, Note_on_c, 6, 57, 61
8, 189297, Note_off_c, 6, 55, 64
8, 189340, Note_off_c, 6, 57, 64
8, 189353, Note_on_c, 6, 59, 85
8, 189404, Note_on_c, 6, 55, 68
8, 189411, Note_off_c, 6, 59, 64
8, 189463, Note_off_c, 6, 55, 64
8, 189465, Note_on_c, 6, 57, 68
8, 189518, Note_off_c, 6, 57, 64
8, 189520, Note_on_c, 6, 59, 66
8, 189573, Note_off_c, 6, 59, 64
8, 189583, Note_on_c, 6, 60, 78
8, 189638, Note_off_c, 6, 60, 64
8, 189640, Note_on_c, 6, 62, 72
8, 189700, Note_off_c, 6, 62, 64
8, 189702, Note_on_c, 6, 60, 66
8, 189752, Note_off_c, 6, 60, 64
8, 189758, Note_on_c, 6, 59, 59
8, 189818, Note_on_c, 6, 57, 63
8, 189822, Note_off_c, 6, 59, 64
8, 189873, Note_off_c, 6, 57, 64
8, 189875, Note_on_c, 6, 55, 68
8, 189934, Note_on_c, 6, 53, 52
8, 189942, Note_off_c, 6, 55, 64
8, 189994, Note_off_c, 6, 53, 64
8, 189998, Note_on_c, 6, 52, 49
8, 190053, Note_off_c, 6, 52, 64
8, 190059, Note_on_c, 6, 50, 78
8, 190120, Note_on_c, 6, 53, 61
8, 190124, Note_off_c, 6, 50, 64
8, 190180, Note_off_c, 6, 53, 64
8, 190187, Note_on_c, 6, 52, 39
8, 190243, Note_on_c, 6, 53, 63
8, 190244, Note_off_c, 6, 52, 64
8, 190293, Note_off_c, 6, 53, 64
8, 190310, Note_on_c, 6, 55, 72
8, 190367, Note_off_c, 6, 55, 64
8, 190367, Note_on_c, 6, 53, 62
8, 190423, Note_on_c, 6, 52, 52
8, 190424, Note_off_c, 6, 53, 64
8, 190478, Note_off_c, 6, 52, 64
8, 190478, Note_on_c, 6, 50, 57
8, 190539, Note_off_c, 6, 50, 64
8, 190553, Note_on_c, 6, 48, 52
8, 190603, Note_off_c, 6, 48, 64
8, 190608, Note_on_c, 6, 52, 66
8, 190662, Note_off_c, 6, 52, 64
8, 190668, Note_on_c, 6, 50, 60
8, 190717, Note_off_c, 6, 50, 64
8, 190724, Note_on_c, 6, 52, 62
8, 190778, Note_off_c, 6, 52, 64
8, 190793, Note_on_c, 6, 53, 72
8, 190848, Note_on_c, 6, 52, 62
8, 190849, Note_off_c, 6, 53, 64
8, 190901, Note_off_c, 6, 52, 64
8, 190905, Note_on_c, 6, 50, 47
8, 190958, Note_off_c, 6, 50, 64
8, 190962, Note_on_c, 6, 48, 51
8, 191022, Note_off_c, 6, 48, 64
8, 191027, Note_on_c, 6, 47, 60
8, 191085, Note_on_c, 6, 50, 53
8, 191087, Note_off_c, 6, 47, 64
8, 191150, Note_off_c, 6, 50, 64
8, 191152, Note_on_c, 6, 48, 40
8, 191207, Note_on_c, 6, 50, 60
8, 191213, Note_off_c, 6, 48, 64
8, 191259, Note_off_c, 6, 50, 64
8, 191269, Note_on_c, 6, 52, 78
8, 191322, Note_on_c, 6, 50, 64
8, 191330, Note_off_c, 6, 52, 64
8, 191383, Note_on_c, 6, 48, 57
8, 191387, Note_off_c, 6, 50, 64
8, 191440, Note_on_c, 6, 47, 59
8, 191443, Note_off_c, 6, 48, 64
8, 191504, Note_off_c, 6, 47, 64
8, 191504, Note_on_c, 6, 45, 62
8, 191557, Note_on_c, 6, 48, 61
8, 191561, Note_off_c, 6, 45, 64
8, 191623, Note_on_c, 6, 47, 52
8, 191624, Note_off_c, 6, 48, 64
8, 191678, Note_on_c, 6, 48, 62
8, 191695, Note_off_c, 6, 47, 64
8, 191731, Note_off_c, 6, 48, 64
8, 191740, Note_on_c, 6, 50, 82
8, 191795, Note_on_c, 6, 48, 72
8, 191803, Note_off_c, 6, 50, 64
8, 191851, Note_off_c, 6, 48, 64
8, 191852, Note_on_c, 6, 47, 62
8, 191911, Note_on_c, 6, 45, 58
8, 191912, Note_off_c, 6, 47, 64
8, 191969, Note_off_c, 6, 45, 64
8, 191981, Note_on_c, 6, 43, 82
8, 192062, Note_off_c, 6, 43, 64
8, 192110, Note_on_c, 6, 55, 64
8, 192138, Note_off_c, 6, 55, 64
8, 192230, Note_on_c, 6, 55, 78
8, 192272, Note_off_c, 6, 55, 64
8, 192349, Note_on_c, 6, 55, 76
8, 192392, Note_off_c, 6, 55, 64
8, 192475, Note_on_c, 6, 52, 87
8, 192582, Note_off_c, 6, 52, 64
8, 192599, Note_on_c, 6, 53, 72
8, 192646, Note_off_c, 6, 53, 64
8, 192649, Note_on_c, 6, 55, 74
8, 192699, Note_off_c, 6, 55, 64
8, 192711, Note_on_c, 6, 57, 72
8, 192756, Note_off_c, 6, 57, 64
8, 192826, Note_on_c, 6, 53, 78
8, 192876, Note_off_c, 6, 53, 64
8, 192949, Note_on_c, 6, 50, 64
8, 193002, Note_off_c, 6, 50, 64
8, 193065, Note_on_c, 6, 55, 80
8, 193112, Note_off_c, 6, 55, 64
8, 193194, Note_on_c, 6, 43, 61
8, 193244, Note_off_c, 6, 43, 64
8, 193310, Note_on_c, 6, 53, 78
8, 193359, Note_off_c, 6, 53, 64
8, 193433, Note_on_c, 6, 52, 72
8, 193480, Note_off_c, 6, 52, 64
8, 193548, Note_on_c, 6, 48, 60
8, 193591, Note_off_c, 6, 48, 64
8, 193665, Note_on_c, 6, 55, 85
8, 193705, Note_off_c, 6, 55, 64
8, 193785, Note_on_c, 6, 43, 70
8, 193844, Note_off_c, 6, 43, 64
8, 193914, Note_on_c, 6, 48, 66
8, 194163, Note_off_c, 6, 48, 64
8, 205078, Note_on_c, 6, 48, 87
8, 205124, Note_off_c, 6, 48, 64
8, 205136, Note_on_c, 6, 50, 87
8, 205179, Note_off_c, 6, 50, 64
8, 205196, Note_on_c, 6, 52, 78
8, 205237, Note_off_c, 6, 52, 64
8, 205253, Note_on_c, 6, 50, 72
8, 205296, Note_off_c, 6, 50, 64
8, 205312, Note_on_c, 6, 52, 80
8, 205350, Note_off_c, 6, 52, 64
8, 205368, Note_on_c, 6, 53, 68
8, 205405, Note_off_c, 6, 53, 64
8, 205438, Note_on_c, 6, 55, 74
8, 205690, Note_off_c, 6, 55, 64
8, 205736, Note_on_c, 6, 55, 82
8, 205782, Note_off_c, 6, 55, 64
8, 205800, Note_on_c, 6, 57, 80
8, 205838, Note_off_c, 6, 57, 64
8, 205856, Note_on_c, 6, 58, 78
8, 205896, Note_off_c, 6, 58, 64
8, 205914, Note_on_c, 6, 60, 82
8, 205955, Note_off_c, 6, 60, 64
8, 205970, Note_on_c, 6, 58, 64
8, 206006, Note_off_c, 6, 58, 64
8, 206029, Note_on_c, 6, 57, 57
8, 206068, Note_off_c, 6, 57, 64
8, 206086, Note_on_c, 6, 58, 78
8, 206128, Note_off_c, 6, 58, 64
8, 206145, Note_on_c, 6, 60, 82
8, 206191, Note_off_c, 6, 60, 64
8, 206204, Note_on_c, 6, 57, 64
8, 206248, Note_off_c, 6, 57, 64
8, 206266, Note_on_c, 6, 58, 60
8, 206305, Note_off_c, 6, 58, 64
8, 206321, Note_on_c, 6, 60, 78
8, 206360, Note_off_c, 6, 60, 64
8, 206392, Note_on_c, 6, 53, 74
8, 206511, Note_off_c, 6, 53, 64
8, 206572, Note_on_c, 6, 50, 70
8, 206597, Note_on_c, 6, 52, 78
8, 206602, Note_off_c, 6, 50, 64
8, 206625, Note_off_c, 6, 52, 64
8, 206635, Note_on_c, 6, 53, 85
8, 206726, Note_off_c, 6, 53, 64
8, 206810, Note_on_c, 6, 55, 68
8, 206835, Note_on_c, 6, 57, 66
8, 206842, Note_off_c, 6, 55, 64
8, 206866, Note_off_c, 6, 57, 64
8, 206870, Note_on_c, 6, 58, 58
8, 207235, Note_off_c, 6, 58, 64
8, 207280, Note_on_c, 6, 58, 78
8, 207316, Note_off_c, 6, 58, 64
8, 207346, Note_on_c, 6, 58, 82
8, 207384, Note_off_c, 6, 58, 64
8, 207400, Note_on_c, 6, 60, 80
8, 207438, Note_off_c, 6, 60, 64
8, 207459, Note_on_c, 6, 58, 72
8, 207498, Note_off_c, 6, 58, 64
8, 207520, Note_on_c, 6, 57, 72
8, 207562, Note_off_c, 6, 57, 64
8, 207585, Note_on_c, 6, 58, 68
8, 207621, Note_off_c, 6, 58, 64
8, 207641, Note_on_c, 6, 55, 60
8, 207680, Note_off_c, 6, 55, 64
8, 207706, Note_on_c, 6, 57, 80
8, 207743, Note_off_c, 6, 57, 64
8, 207762, Note_on_c, 6, 58, 64
8, 207801, Note_off_c, 6, 58, 64
8, 207833, Note_on_c, 6, 57, 72
8, 208009, Note_off_c, 6, 57, 64
8, 208080, Note_on_c, 6, 45, 68
8, 208225, Note_off_c, 6, 45, 64
8, 208319, Note_on_c, 6, 50, 78
8, 208638, Note_off_c, 6, 50, 64
8, 208672, Note_on_c, 6, 52, 68
8, 208690, Note_on_c, 6, 53, 85
8, 208702, Note_off_c, 6, 52, 64
8, 208721, Note_on_c, 6, 55, 82
8, 208739, Note_off_c, 6, 53, 64
8, 208746, Note_on_c, 6, 57, 80
8, 208763, Note_off_c, 6, 55, 64
8, 208767, Note_on_c, 6, 59, 87
8, 208778, Note_off_c, 6, 57, 64
8, 208788, Note_on_c, 6, 60, 82
8, 208796, Note_off_c, 6, 59, 64
8, 208860, Note_off_c, 6, 60, 64
8, 208860, Note_on_c, 6, 59, 66
8, 208903, Note_off_c, 6, 59, 64
8, 208915, Note_on_c, 6, 60, 80
8, 208961, Note_off_c, 6, 60, 64
8, 208970, Note_on_c, 6, 64, 78
8, 209008, Note_off_c, 6, 64, 64
8, 209030, Note_on_c, 6, 62, 78
8, 209075, Note_off_c, 6, 62, 64
8, 209088, Note_on_c, 6, 60, 66
8, 209126, Note_off_c, 6, 60, 64
8, 209149, Note_on_c, 6, 59, 80
8, 209184, Note_off_c, 6, 59, 64
8, 209207, Note_on_c, 6, 60, 80
8, 209243, Note_off_c, 6, 60, 64
8, 209274, Note_on_c, 6, 59, 80
8, 209385, Note_off_c, 6, 59, 64
8, 209451, Note_on_c, 6, 57, 64
8, 209488, Note_off_c, 6, 57, 64
8, 209513, Note_on_c, 6, 59, 89
8, 209599, Note_off_c, 6, 59, 64
8, 209691, Note_on_c, 6, 55, 76
8, 209733, Note_off_c, 6, 55, 64
8, 209757, Note_on_c, 6, 64, 82
8, 210097, Note_off_c, 6, 64, 64
8, 210169, Note_on_c, 6, 64, 78
8, 210201, Note_off_c, 6, 64, 64
8, 210231, Note_on_c, 6, 64, 80
8, 210353, Note_off_c, 6, 64, 64
8, 210406, Note_on_c, 6, 65, 72
8, 210430, Note_on_c, 6, 64, 66
8, 210440, Note_off_c, 6, 65, 64
8, 210458, Note_off_c, 6, 64, 64
8, 210468, Note_on_c, 6, 62, 78
8, 210560, Note_off_c, 6, 62, 64
8, 210641, Note_on_c, 6, 64, 60
8, 210660, Note_on_c, 6, 60, 72
8, 210668, Note_off_c, 6, 64, 64
8, 210689, Note_off_c, 6, 60, 64
8, 210701, Note_on_c, 6, 62, 70
8, 211064, Note_off_c, 6, 62, 64
8, 211128, Note_on_c, 6, 62, 76
8, 211153, Note_off_c, 6, 62, 64
8, 211191, Note_on_c, 6, 62, 63
8, 211468, Note_off_c, 6, 62, 64
8, 211492, Note_on_c, 6, 60, 68
8, 211524, Note_off_c, 6, 60, 64
8, 211544, Note_on_c, 6, 59, 68
8, 211586, Note_off_c, 6, 59, 64
8, 211602, Note_on_c, 6, 60, 76
8, 211640, Note_off_c, 6, 60, 64
8, 211661, Note_on_c, 6, 62, 74
8, 211701, Note_off_c, 6, 62, 64
8, 211718, Note_on_c, 6, 60, 60
8, 211774, Note_off_c, 6, 60, 64
8, 211787, Note_on_c, 6, 62, 70
8, 211830, Note_off_c, 6, 62, 64
8, 211843, Note_on_c, 6, 65, 74
8, 211890, Note_off_c, 6, 65, 64
8, 211905, Note_on_c, 6, 64, 78
8, 211954, Note_off_c, 6, 64, 64
8, 211964, Note_on_c, 6, 62, 70
8, 212007, Note_off_c, 6, 62, 64
8, 212030, Note_on_c, 6, 60, 66
8, 212074, Note_off_c, 6, 60, 64
8, 212091, Note_on_c, 6, 62, 78
8, 212140, Note_off_c, 6, 62, 64
8, 212162, Note_on_c, 6, 59, 63
8, 212670, Note_off_c, 6, 59, 64
8, 212690, Note_on_c, 6, 60, 70
8, 212730, Note_off_c, 6, 60, 64
8, 212750, Note_on_c, 6, 59, 72
8, 212787, Note_off_c, 6, 59, 64
8, 212806, Note_on_c, 6, 57, 63
8, 212858, Note_off_c, 6, 57, 64
8, 212864, Note_on_c, 6, 55, 66
8, 212910, Note_off_c, 6, 55, 64
8, 212923, Note_on_c, 6, 53, 61
8, 212970, Note_off_c, 6, 53, 64
8, 212984, Note_on_c, 6, 52, 64
8, 213029, Note_off_c, 6, 52, 64
8, 213041, Note_on_c, 6, 50, 72
8, 213086, Note_off_c, 6, 50, 64
8, 213106, Note_on_c, 6, 48, 76
8, 213626, Note_off_c, 6, 48, 64
8, 213651, Note_on_c, 6, 46, 68
8, 213687, Note_off_c, 6, 46, 64
8, 213705, Note_on_c, 6, 45, 72
8, 213746, Note_off_c, 6, 45, 64
8, 213762, Note_on_c, 6, 46, 76
8, 213806, Note_off_c, 6, 46, 64
8, 213823, Note_on_c, 6, 48, 74
8, 213864, Note_off_c, 6, 48, 64
8, 213887, Note_on_c, 6, 45, 74
8, 213924, Note_off_c, 6, 45, 64
8, 213950, Note_on_c, 6, 46, 82
8, 213996, Note_off_c, 6, 46, 64
8, 214008, Note_on_c, 6, 48, 78
8, 214049, Note_off_c, 6, 48, 64
8, 214078, Note_on_c, 6, 41, 70
8, 214566, Note_off_c, 6, 41, 64
8, 214613, Note_on_c, 6, 40, 70
8, 214660, Note_off_c, 6, 40, 64
8, 214677, Note_on_c, 6, 41, 85
8, 214726, Note_off_c, 6, 41, 64
8, 214735, Note_on_c, 6, 43, 70
8, 214780, Note_off_c, 6, 43, 64
8, 214795, Note_on_c, 6, 45, 66
8, 214834, Note_off_c, 6, 45, 64
8, 214852, Note_on_c, 6, 41, 68
8, 214896, Note_off_c, 6, 41, 64
8, 214913, Note_on_c, 6, 43, 68
8, 214957, Note_off_c, 6, 43, 64
8, 214970, Note_on_c, 6, 45, 68
8, 215019, Note_off_c, 6, 45, 64
8, 215043, Note_on_c, 6, 38, 68
8, 215523, Note_off_c, 6, 38, 64
8, 215569, Note_on_c, 6, 36, 63
8, 215609, Note_off_c, 6, 36, 64
8, 215634, Note_on_c, 6, 38, 80
8, 215679, Note_off_c, 6, 38, 64
8, 215690, Note_on_c, 6, 40, 64
8, 215731, Note_off_c, 6, 40, 64
8, 215752, Note_on_c, 6, 41, 70
8, 215794, Note_off_c, 6, 41, 64
8, 215812, Note_on_c, 6, 40, 74
8, 215853, Note_off_c, 6, 40, 64
8, 215872, Note_on_c, 6, 41, 66
8, 215906, Note_off_c, 6, 41, 64
8, 215930, Note_on_c, 6, 38, 64
8, 215969, Note_off_c, 6, 38, 64
8, 215995, Note_on_c, 6, 43, 80
8, 216113, Note_off_c, 6, 43, 64
8, 216173, Note_on_c, 6, 43, 72
8, 216219, Note_off_c, 6, 43, 64
8, 216237, Note_on_c, 6, 45, 87
8, 216321, Note_off_c, 6, 45, 64
8, 216414, Note_on_c, 6, 47, 72
8, 216456, Note_off_c, 6, 47, 64
8, 216473, Note_on_c, 6, 48, 80
8, 216570, Note_off_c, 6, 48, 64
8, 216638, Note_on_c, 6, 48, 63
8, 216680, Note_off_c, 6, 48, 64
8, 216708, Note_on_c, 6, 50, 87
8, 216809, Note_off_c, 6, 50, 64
8, 216887, Note_on_c, 6, 52, 64
8, 216923, Note_off_c, 6, 52, 64
8, 216951, Note_on_c, 6, 53, 66
8, 217459, Note_off_c, 6, 53, 64
8, 217486, Note_on_c, 6, 55, 76
8, 217528, Note_off_c, 6, 55, 64
8, 217544, Note_on_c, 6, 53, 72
8, 217580, Note_off_c, 6, 53, 64
8, 217602, Note_on_c, 6, 52, 70
8, 217636, Note_off_c, 6, 52, 64
8, 217666, Note_on_c, 6, 50, 70
8, 217709, Note_off_c, 6, 50, 64
8, 217724, Note_on_c, 6, 48, 72
8, 217768, Note_off_c, 6, 48, 64
8, 217788, Note_on_c, 6, 47, 78
8, 217840, Note_off_c, 6, 47, 64
8, 217851, Note_on_c, 6, 45, 85
8, 217895, Note_off_c, 6, 45, 64
8, 217910, Note_on_c, 6, 43, 80
8, 218010, Note_off_c, 6, 43, 64
8, 218010, End_track
9, 0, Start_track
9, 0, Title_t, "Violin1"
9, 0, Program_c, 0, 40
9, 0, Control_c, 0, 7, 100
9, 16310, Note_on_c, 0, 76, 91
9, 16824, Note_off_c, 0, 76, 64
9, 16851, Note_on_c, 0, 74, 72
9, 16905, Note_off_c, 0, 74, 64
9, 16910, Note_on_c, 0, 76, 80
9, 16957, Note_off_c, 0, 76, 64
9, 16966, Note_on_c, 0, 77, 78
9, 17016, Note_off_c, 0, 77, 64
9, 17029, Note_on_c, 0, 79, 78
9, 17076, Note_off_c, 0, 79, 64
9, 17088, Note_on_c, 0, 77, 78
9, 17136, Note_off_c, 0, 77, 64
9, 17145, Note_on_c, 0, 79, 72
9, 17189, Note_off_c, 0, 79, 64
9, 17202, Note_on_c, 0, 81, 85
9, 17245, Note_off_c, 0, 81, 64
9, 17263, Note_on_c, 0, 81, 80
9, 17386, Note_on_c, 0, 74, 57
9, 17388, Note_off_c, 0, 81, 64
9, 17549, Note_off_c, 0, 74, 64
9, 17570, Note_on_c, 0, 74, 72
9, 17617, Note_off_c, 0, 74, 64
9, 17629, Note_on_c, 0, 76, 74
9, 17677, Note_off_c, 0, 76, 64
9, 17685, Note_on_c, 0, 77, 82
9, 17732, Note_off_c, 0, 77, 64
9, 17747, Note_on_c, 0, 79, 85
9, 17805, Note_off_c, 0, 79, 64
9, 17811, Note_on_c, 0, 77, 68
9, 17855, Note_off_c, 0, 77, 64
9, 17869, Note_on_c, 0, 76, 64
9, 17916, Note_off_c, 0, 76, 64
9, 17926, Note_on_c, 0, 77, 78
9, 17968, Note_off_c, 0, 77, 64
9, 17988, Note_on_c, 0, 79, 72
9, 18037, Note_off_c, 0, 79, 64
9, 18048, Note_on_c, 0, 76, 68
9, 18092, Note_off_c, 0, 76, 64
9, 18107, Note_on_c, 0, 77, 74
9, 18153, Note_off_c, 0, 77, 64
9, 18168, Note_on_c, 0, 79, 80
9, 18219, Note_off_c, 0, 79, 64
9, 18237, Note_on_c, 0, 72, 74
9, 18383, Note_off_c, 0, 72, 64
9, 18420, Note_on_c, 0, 69, 66
9, 18447, Note_on_c, 0, 71, 68
9, 18452, Note_off_c, 0, 69, 64
9, 18474, Note_off_c, 0, 71, 64
9, 18480, Note_on_c, 0, 72, 82
9, 18590, Note_off_c, 0, 72, 64
9, 18648, Note_on_c, 0, 74, 66
9, 18674, Note_on_c, 0, 76, 70
9, 18685, Note_off_c, 0, 74, 64
9, 18705, Note_off_c, 0, 76, 64
9, 18712, Note_on_c, 0, 77, 66
9, 18739, Note_on_c, 0, 76, 68
9, 18747, Note_off_c, 0, 77, 64
9, 18766, Note_on_c, 0, 77, 80
9, 18768, Note_off_c, 0, 76, 64
9, 19084, Note_off_c, 0, 77, 64
9, 19129, Note_on_c, 0, 77, 70
9, 19166, Note_off_c, 0, 77, 64
9, 19189, Note_on_c, 0, 77, 89
9, 19246, Note_off_c, 0, 77, 64
9, 19253, Note_on_c, 0, 79, 80
9, 19292, Note_off_c, 0, 79, 64
9, 19308, Note_on_c, 0, 77, 85
9, 19357, Note_off_c, 0, 77, 64
9, 19366, Note_on_c, 0, 76, 78
9, 19407, Note_off_c, 0, 76, 64
9, 19423, Note_on_c, 0, 77, 91
9, 19480, Note_off_c, 0, 77, 64
9, 19487, Note_on_c, 0, 76, 80
9, 19531, Note_off_c, 0, 76, 64
9, 19548, Note_on_c, 0, 74, 76
9, 19596, Note_off_c, 0, 74, 64
9, 19608, Note_on_c, 0, 76, 74
9, 19652, Note_off_c, 0, 76, 64
9, 19668, Note_on_c, 0, 77, 80
9, 19722, Note_on_c, 0, 76, 60
9, 19730, Note_off_c, 0, 77, 64
9, 19752, Note_off_c, 0, 76, 64
9, 19752, Note_on_c, 0, 77, 64
9, 19777, Note_on_c, 0, 76, 64
9, 19783, Note_off_c, 0, 77, 64
9, 19798, Note_off_c, 0, 76, 64
9, 19801, Note_on_c, 0, 77, 68
9, 19820, Note_on_c, 0, 76, 64
9, 19824, Note_off_c, 0, 77, 64
9, 19837, Note_off_c, 0, 76, 64
9, 19841, Note_on_c, 0, 77, 66
9, 19858, Note_on_c, 0, 76, 60
9, 19860, Note_off_c, 0, 77, 64
9, 19875, Note_on_c, 0, 77, 80
9, 19876, Note_off_c, 0, 76, 64
9, 19895, Note_on_c, 0, 76, 63
9, 19899, Note_off_c, 0, 77, 64
9, 20043, Note_off_c, 0, 76, 64
9, 20080, Note_on_c, 0, 74, 70
9, 20116, Note_off_c, 0, 74, 64
9, 20148, Note_on_c, 0, 74, 70
9, 20442, Note_off_c, 0, 74, 64
9, 20460, Note_on_c, 0, 67, 59
9, 20481, Note_on_c, 0, 69, 63
9, 20488, Note_on_c, 0, 71, 68
9, 20505, Note_off_c, 0, 67, 64
9, 20508, Note_off_c, 0, 69, 64
9, 20509, Note_on_c, 0, 72, 64
9, 20530, Note_on_c, 0, 74, 59
9, 20533, Note_off_c, 0, 71, 64
9, 20540, Note_off_c, 0, 72, 64
9, 20547, Note_on_c, 0, 76, 63
9, 20561, Note_off_c, 0, 74, 64
9, 20565, Note_on_c, 0, 78, 64
9, 20582, Note_off_c, 0, 76, 64
9, 20586, Note_on_c, 0, 79, 76
9, 20599, Note_off_c, 0, 78, 64
9, 20604, Note_on_c, 0, 81, 76
9, 20614, Note_off_c, 0, 79, 64
9, 20632, Note_on_c, 0, 83, 76
9, 20640, Note_off_c, 0, 81, 64
9, 21002, Note_off_c, 0, 83, 64
9, 21058, Note_on_c, 0, 83, 91
9, 21098, Note_off_c, 0, 83, 64
9, 21116, Note_on_c, 0, 83, 91
9, 21218, Note_off_c, 0, 83, 64
9, 21292, Note_on_c, 0, 79, 85
9, 21318, Note_off_c, 0, 79, 64
9, 21355, Note_on_c, 0, 79, 87
9, 21376, Note_on_c, 0, 78, 68
9, 21380, Note_off_c, 0, 79, 64
9, 21393, Note_on_c, 0, 79, 82
9, 21399, Note_off_c, 0, 78, 64
9, 21416, Note_on_c, 0, 78, 78
9, 21428, Note_off_c, 0, 79, 64
9, 21482, Note_off_c, 0, 78, 64
9, 21536, Note_on_c, 0, 76, 85
9, 21570, Note_off_c, 0, 76, 64
9, 21598, Note_on_c, 0, 81, 80
9, 21618, Note_on_c, 0, 79, 82
9, 21626, Note_off_c, 0, 81, 64
9, 21646, Note_on_c, 0, 81, 80
9, 21649, Note_off_c, 0, 79, 64
9, 21965, Note_off_c, 0, 81, 64
9, 22019, Note_on_c, 0, 81, 85
9, 22051, Note_off_c, 0, 81, 64
9, 22082, Note_on_c, 0, 81, 85
9, 22196, Note_off_c, 0, 81, 64
9, 22252, Note_on_c, 0, 83, 64
9, 22272, Note_on_c, 0, 81, 78
9, 22285, Note_off_c, 0, 83, 64
9, 22303, Note_off_c, 0, 81, 64
9, 22312, Note_on_c, 0, 79, 95
9, 22410, Note_off_c, 0, 79, 64
9, 22473, Note_on_c, 0, 81, 70
9, 22502, Note_on_c, 0, 78, 93
9, 22509, Note_off_c, 0, 81, 64
9, 22526, Note_off_c, 0, 78, 64
9, 22542, Note_on_c, 0, 78, 89
9, 22676, Note_on_c, 0, 79, 62
9, 22681, Note_off_c, 0, 78, 64
9, 22931, Note_off_c, 0, 79, 64
9, 22971, Note_on_c, 0, 79, 85
9, 23006, Note_off_c, 0, 79, 64
9, 23034, Note_on_c, 0, 79, 89
9, 23296, Note_off_c, 0, 79, 64
9, 23318, Note_on_c, 0, 78, 63
9, 23357, Note_off_c, 0, 78, 64
9, 23381, Note_on_c, 0, 76, 78
9, 23431, Note_off_c, 0, 76, 64
9, 23440, Note_on_c, 0, 78, 87
9, 23482, Note_off_c, 0, 78, 64
9, 23499, Note_on_c, 0, 79, 87
9, 23549, Note_off_c, 0, 79, 64
9, 23562, Note_on_c, 0, 78, 78
9, 23608, Note_off_c, 0, 78, 64
9, 23622, Note_on_c, 0, 79, 85
9, 23671, Note_off_c, 0, 79, 64
9, 23682, Note_on_c, 0, 83, 76
9, 23729, Note_off_c, 0, 83, 64
9, 23743, Note_on_c, 0, 81, 85
9, 23792, Note_off_c, 0, 81, 64
9, 23802, Note_on_c, 0, 79, 76
9, 23849, Note_off_c, 0, 79, 64
9, 23866, Note_on_c, 0, 78, 80
9, 23908, Note_off_c, 0, 78, 64
9, 23924, Note_on_c, 0, 79, 82
9, 23961, Note_off_c, 0, 79, 64
9, 23990, Note_on_c, 0, 79, 82
9, 24021, Note_on_c, 0, 78, 64
9, 24025, Note_off_c, 0, 79, 64
9, 24041, Note_on_c, 0, 79, 78
9, 24042, Note_off_c, 0, 78, 64
9, 24062, Note_on_c, 0, 78, 72
9, 24068, Note_off_c, 0, 79, 64
9, 24081, Note_on_c, 0, 79, 76
9, 24084, Note_off_c, 0, 78, 64
9, 24094, Note_on_c, 0, 78, 64
9, 24103, Note_off_c, 0, 79, 64
9, 24170, Note_off_c, 0, 78, 64
9, 24174, Note_on_c, 0, 76, 64
9, 24203, Note_on_c, 0, 74, 82
9, 24211, Note_off_c, 0, 76, 64
9, 24228, Note_off_c, 0, 74, 64
9, 24239, Note_on_c, 0, 81, 87
9, 24335, Note_off_c, 0, 81, 64
9, 24409, Note_on_c, 0, 72, 80
9, 24445, Note_off_c, 0, 72, 64
9, 24468, Note_on_c, 0, 71, 80
9, 24612, Note_off_c, 0, 71, 64
9, 24639, Note_on_c, 0, 72, 63
9, 24659, Note_on_c, 0, 71, 64
9, 24667, Note_off_c, 0, 72, 64
9, 24689, Note_on_c, 0, 72, 60
9, 24693, Note_off_c, 0, 71, 64
9, 24715, Note_off_c, 0, 72, 64
9, 24715, Note_on_c, 0, 74, 63
9, 24741, Note_on_c, 0, 72, 62
9, 24748, Note_off_c, 0, 74, 64
9, 24762, Note_off_c, 0, 72, 64
9, 24764, Note_on_c, 0, 74, 59
9, 24784, Note_on_c, 0, 72, 68
9, 24788, Note_off_c, 0, 74, 64
9, 24802, Note_off_c, 0, 72, 64
9, 24802, Note_on_c, 0, 74, 59
9, 24818, Note_on_c, 0, 72, 66
9, 24822, Note_off_c, 0, 74, 64
9, 24833, Note_off_c, 0, 72, 64
9, 24834, Note_on_c, 0, 74, 68
9, 24850, Note_on_c, 0, 72, 66
9, 24860, Note_off_c, 0, 74, 64
9, 24879, Note_on_c, 0, 71, 68
9, 24884, Note_off_c, 0, 72, 64
9, 24905, Note_on_c, 0, 72, 78
9, 24918, Note_off_c, 0, 71, 64
9, 24937, Note_off_c, 0, 72, 64
9, 24942, Note_on_c, 0, 74, 85
9, 25232, Note_off_c, 0, 74, 64
9, 25248, Note_on_c, 0, 76, 64
9, 25272, Note_on_c, 0, 74, 66
9, 25291, Note_off_c, 0, 76, 64
9, 25297, Note_on_c, 0, 72, 66
9, 25319, Note_off_c, 0, 74, 64
9, 25320, Note_on_c, 0, 71, 64
9, 25332, Note_off_c, 0, 72, 64
9, 25338, Note_on_c, 0, 69, 82
9, 25343, Note_off_c, 0, 71, 64
9, 25356, Note_on_c, 0, 67, 66
9, 25364, Note_off_c, 0, 69, 64
9, 25380, Note_on_c, 0, 65, 78
9, 25389, Note_off_c, 0, 67, 64
9, 25407, Note_on_c, 0, 64, 82
9, 25412, Note_off_c, 0, 65, 64
9, 25435, Note_on_c, 0, 65, 78
9, 25444, Note_off_c, 0, 64, 64
9, 25831, Note_off_c, 0, 65, 64
9, 25862, Note_on_c, 0, 65, 93
9, 25890, Note_off_c, 0, 65, 64
9, 25919, Note_on_c, 0, 67, 87
9, 25937, Note_on_c, 0, 65, 66
9, 25943, Note_off_c, 0, 67, 64
9, 25957, Note_on_c, 0, 67, 68
9, 25959, Note_off_c, 0, 65, 64
9, 25975, Note_on_c, 0, 65, 78
9, 25986, Note_off_c, 0, 67, 64
9, 26052, Note_off_c, 0, 65, 64
9, 26100, Note_on_c, 0, 64, 64
9, 26127, Note_on_c, 0, 62, 80
9, 26131, Note_off_c, 0, 64, 64
9, 26155, Note_off_c, 0, 62, 64
9, 26160, Note_on_c, 0, 64, 87
9, 26265, Note_off_c, 0, 64, 64
9, 26330, Note_on_c, 0, 66, 89
9, 26362, Note_off_c, 0, 66, 64
9, 26392, Note_on_c, 0, 67, 87
9, 26760, Note_off_c, 0, 67, 64
9, 26812, Note_on_c, 0, 67, 89
9, 26850, Note_off_c, 0, 67, 64
9, 26880, Note_on_c, 0, 69, 85
9, 26899, Note_on_c, 0, 67, 68
9, 26906, Note_off_c, 0, 69, 64
9, 26919, Note_on_c, 0, 69, 74
9, 26924, Note_off_c, 0, 67, 64
9, 26941, Note_on_c, 0, 67, 76
9, 26952, Note_off_c, 0, 69, 64
9, 27005, Note_off_c, 0, 67, 64
9, 27048, Note_on_c, 0, 66, 64
9, 27073, Note_on_c, 0, 64, 78
9, 27088, Note_off_c, 0, 66, 64
9, 27108, Note_off_c, 0, 64, 64
9, 27112, Note_on_c, 0, 74, 87
9, 27134, Note_on_c, 0, 72, 82
9, 27139, Note_off_c, 0, 74, 64
9, 27152, Note_on_c, 0, 74, 85
9, 27157, Note_off_c, 0, 72, 64
9, 27173, Note_on_c, 0, 72, 80
9, 27186, Note_off_c, 0, 74, 64
9, 27248, Note_off_c, 0, 72, 64
9, 27299, Note_on_c, 0, 71, 80
9, 27323, Note_on_c, 0, 69, 85
9, 27335, Note_off_c, 0, 71, 64
9, 27351, Note_off_c, 0, 69, 64
9, 27354, Note_on_c, 0, 79, 80
9, 27376, Note_on_c, 0, 78, 89
9, 27385, Note_off_c, 0, 79, 64
9, 27396, Note_on_c, 0, 79, 74
9, 27400, Note_off_c, 0, 78, 64
9, 27417, Note_on_c, 0, 78, 68
9, 27430, Note_off_c, 0, 79, 64
9, 27489, Note_off_c, 0, 78, 64
9, 27534, Note_on_c, 0, 76, 80
9, 27558, Note_on_c, 0, 74, 91
9, 27566, Note_off_c, 0, 76, 64
9, 27584, Note_off_c, 0, 74, 64
9, 27591, Note_on_c, 0, 81, 85
9, 27687, Note_off_c, 0, 81, 64
9, 27765, Note_on_c, 0, 72, 82
9, 27798, Note_off_c, 0, 72, 64
9, 27832, Note_on_c, 0, 72, 78
9, 27954, Note_on_c, 0, 71, 68
9, 27957, Note_off_c, 0, 72, 64
9, 28124, Note_off_c, 0, 71, 64
9, 28140, Note_on_c, 0, 69, 82
9, 28182, Note_off_c, 0, 69, 64
9, 28195, Note_on_c, 0, 67, 72
9, 28233, Note_off_c, 0, 67, 64
9, 28249, Note_on_c, 0, 66, 89
9, 28296, Note_off_c, 0, 66, 64
9, 28311, Note_on_c, 0, 67, 82
9, 28365, Note_off_c, 0, 67, 64
9, 28374, Note_on_c, 0, 62, 82
9, 28421, Note_off_c, 0, 62, 64
9, 28432, Note_on_c, 0, 64, 68
9, 28482, Note_off_c, 0, 64, 64
9, 28490, Note_on_c, 0, 66, 82
9, 28534, Note_off_c, 0, 66, 64
9, 28547, Note_on_c, 0, 67, 80
9, 28599, Note_off_c, 0, 67, 64
9, 28607, Note_on_c, 0, 69, 87
9, 28657, Note_off_c, 0, 69, 64
9, 28668, Note_on_c, 0, 71, 82
9, 28715, Note_off_c, 0, 71, 64
9, 28725, Note_on_c, 0, 72, 85
9, 28776, Note_off_c, 0, 72, 64
9, 28788, Note_on_c, 0, 74, 87
9, 29053, Note_off_c, 0, 74, 64
9, 29079, Note_on_c, 0, 72, 89
9, 29125, Note_off_c, 0, 72, 64
9, 29141, Note_on_c, 0, 74, 80
9, 29188, Note_off_c, 0, 74, 64
9, 29193, Note_on_c, 0, 76, 74
9, 29244, Note_off_c, 0, 76, 64
9, 29269, Note_on_c, 0, 67, 80
9, 29320, Note_on_c, 0, 66, 64
9, 29323, Note_off_c, 0, 67, 64
9, 29338, Note_off_c, 0, 66, 64
9, 29339, Note_on_c, 0, 67, 80
9, 29360, Note_on_c, 0, 66, 80
9, 29364, Note_off_c, 0, 67, 64
9, 29377, Note_on_c, 0, 67, 78
9, 29382, Note_off_c, 0, 66, 64
9, 29396, Note_on_c, 0, 66, 70
9, 29406, Note_off_c, 0, 67, 64
9, 29544, Note_off_c, 0, 66, 64
9, 29577, Note_on_c, 0, 67, 82
9, 29619, Note_off_c, 0, 67, 64
9, 29633, Note_on_c, 0, 69, 80
9, 29680, Note_off_c, 0, 69, 64
9, 29688, Note_on_c, 0, 71, 85
9, 29732, Note_off_c, 0, 71, 64
9, 29750, Note_on_c, 0, 72, 85
9, 29860, Note_off_c, 0, 72, 64
9, 29928, Note_on_c, 0, 71, 72
9, 29953, Note_on_c, 0, 69, 76
9, 29961, Note_off_c, 0, 71, 64
9, 29981, Note_off_c, 0, 69, 64
9, 29990, Note_on_c, 0, 71, 87
9, 30095, Note_off_c, 0, 71, 64
9, 30166, Note_on_c, 0, 72, 82
9, 30200, Note_off_c, 0, 72, 64
9, 30226, Note_on_c, 0, 71, 72
9, 30289, Note_on_c, 0, 69, 63
9, 30296, Note_off_c, 0, 71, 64
9, 30318, Note_off_c, 0, 69, 64
9, 30318, Note_on_c, 0, 71, 70
9, 30345, Note_on_c, 0, 69, 63
9, 30349, Note_off_c, 0, 71, 64
9, 30366, Note_off_c, 0, 69, 64
9, 30367, Note_on_c, 0, 71, 70
9, 30388, Note_on_c, 0, 69, 70
9, 30390, Note_off_c, 0, 71, 64
9, 30406, Note_off_c, 0, 69, 64
9, 30407, Note_on_c, 0, 71, 82
9, 30425, Note_on_c, 0, 69, 74
9, 30427, Note_off_c, 0, 71, 64
9, 30442, Note_on_c, 0, 71, 85
9, 30444, Note_off_c, 0, 69, 64
9, 30460, Note_on_c, 0, 69, 87
9, 30465, Note_off_c, 0, 71, 64
9, 30588, Note_off_c, 0, 69, 64
9, 30639, Note_on_c, 0, 67, 82
9, 30681, Note_off_c, 0, 67, 64
9, 30712, Note_on_c, 0, 67, 80
9, 30781, Note_off_c, 0, 67, 64
9, 55314, Note_on_c, 0, 69, 80
9, 55354, Note_off_c, 0, 69, 64
9, 55432, Note_on_c, 0, 69, 80
9, 55472, Note_off_c, 0, 69, 64
9, 55556, Note_on_c, 0, 69, 78
9, 55597, Note_off_c, 0, 69, 64
9, 55674, Note_on_c, 0, 67, 64
9, 55791, Note_off_c, 0, 67, 64
9, 55797, Note_on_c, 0, 69, 80
9, 55843, Note_off_c, 0, 69, 64
9, 55847, Note_on_c, 0, 71, 82
9, 55889, Note_off_c, 0, 71, 64
9, 55905, Note_on_c, 0, 72, 89
9, 55946, Note_off_c, 0, 72, 64
9, 56025, Note_on_c, 0, 69, 82
9, 56073, Note_off_c, 0, 69, 64
9, 56156, Note_on_c, 0, 66, 68
9, 56206, Note_off_c, 0, 66, 64
9, 56278, Note_on_c, 0, 71, 85
9, 56313, Note_off_c, 0, 71, 64
9, 56392, Note_on_c, 0, 59, 82
9, 56450, Note_off_c, 0, 59, 64
9, 56503, Note_on_c, 0, 71, 74
9, 56541, Note_off_c, 0, 71, 64
9, 56629, Note_on_c, 0, 64, 74
9, 56710, Note_off_c, 0, 64, 64
9, 56752, Note_on_c, 0, 76, 93
9, 56797, Note_off_c, 0, 76, 64
9, 56869, Note_on_c, 0, 76, 93
9, 56918, Note_off_c, 0, 76, 64
9, 56988, Note_on_c, 0, 76, 95
9, 57029, Note_off_c, 0, 76, 64
9, 57108, Note_on_c, 0, 73, 98
9, 57193, Note_off_c, 0, 73, 64
9, 57238, Note_on_c, 0, 69, 80
9, 57273, Note_off_c, 0, 69, 64
9, 57358, Note_on_c, 0, 69, 78
9, 57398, Note_off_c, 0, 69, 64
9, 57468, Note_on_c, 0, 69, 78
9, 57515, Note_off_c, 0, 69, 64
9, 57592, Note_on_c, 0, 65, 85
9, 57697, Note_off_c, 0, 65, 64
9, 57710, Note_on_c, 0, 67, 70
9, 57757, Note_off_c, 0, 67, 64
9, 57766, Note_on_c, 0, 69, 72
9, 57808, Note_off_c, 0, 69, 64
9, 57834, Note_on_c, 0, 70, 63
9, 57877, Note_off_c, 0, 70, 64
9, 57949, Note_on_c, 0, 67, 76
9, 57990, Note_off_c, 0, 67, 64
9, 58068, Note_on_c, 0, 64, 66
9, 58113, Note_off_c, 0, 64, 64
9, 58185, Note_on_c, 0, 69, 80
9, 58224, Note_off_c, 0, 69, 64
9, 58301, Note_on_c, 0, 57, 72
9, 58358, Note_off_c, 0, 57, 64
9, 58424, Note_on_c, 0, 69, 76
9, 58459, Note_off_c, 0, 69, 64
9, 58546, Note_on_c, 0, 62, 85
9, 58638, Note_off_c, 0, 62, 64
9, 58671, Note_on_c, 0, 74, 87
9, 58717, Note_off_c, 0, 74, 64
9, 58783, Note_on_c, 0, 74, 91
9, 58827, Note_off_c, 0, 74, 64
9, 58904, Note_on_c, 0, 74, 85
9, 58941, Note_off_c, 0, 74, 64
9, 59026, Note_on_c, 0, 71, 85
9, 59117, Note_off_c, 0, 71, 64
9, 59151, Note_on_c, 0, 67, 80
9, 59192, Note_off_c, 0, 67, 64
9, 59272, Note_on_c, 0, 67, 70
9, 59315, Note_off_c, 0, 67, 64
9, 59394, Note_on_c, 0, 67, 76
9, 59439, Note_off_c, 0, 67, 64
9, 59506, Note_on_c, 0, 64, 80
9, 59616, Note_off_c, 0, 64, 64
9, 59626, Note_on_c, 0, 65, 78
9, 59672, Note_off_c, 0, 65, 64
9, 59679, Note_on_c, 0, 67, 68
9, 59724, Note_off_c, 0, 67, 64
9, 59739, Note_on_c, 0, 69, 64
9, 59774, Note_off_c, 0, 69, 64
9, 59859, Note_on_c, 0, 65, 70
9, 59900, Note_off_c, 0, 65, 64
9, 59976, Note_on_c, 0, 62, 76
9, 60018, Note_off_c, 0, 62, 64
9, 60093, Note_on_c, 0, 67, 78
9, 60130, Note_off_c, 0, 67, 64
9, 60214, Note_on_c, 0, 55, 78
9, 60267, Note_off_c, 0, 55, 64
9, 60321, Note_on_c, 0, 67, 80
9, 60361, Note_off_c, 0, 67, 64
9, 60457, Note_on_c, 0, 60, 66
9, 60547, Note_off_c, 0, 60, 64
9, 60580, Note_on_c, 0, 72, 82
9, 60631, Note_off_c, 0, 72, 64
9, 60633, Note_on_c, 0, 74, 80
9, 60680, Note_off_c, 0, 74, 64
9, 60700, Note_on_c, 0, 76, 85
9, 60740, Note_off_c, 0, 76, 64
9, 60759, Note_on_c, 0, 74, 66
9, 60805, Note_off_c, 0, 74, 64
9, 60821, Note_on_c, 0, 76, 72
9, 60858, Note_off_c, 0, 76, 64
9, 60876, Note_on_c, 0, 78, 74
9, 60912, Note_off_c, 0, 78, 64
9, 60936, Note_on_c, 0, 79, 80
9, 61041, Note_off_c, 0, 79, 64
9, 61117, Note_on_c, 0, 74, 68
9, 61148, Note_off_c, 0, 74, 64
9, 61183, Note_on_c, 0, 79, 87
9, 61289, Note_off_c, 0, 79, 64
9, 61368, Note_on_c, 0, 79, 80
9, 61400, Note_off_c, 0, 79, 64
9, 61432, Note_on_c, 0, 79, 91
9, 61521, Note_off_c, 0, 79, 64
9, 61602, Note_on_c, 0, 78, 62
9, 61633, Note_on_c, 0, 76, 68
9, 61642, Note_off_c, 0, 78, 64
9, 61666, Note_on_c, 0, 78, 61
9, 61678, Note_off_c, 0, 76, 64
9, 61697, Note_off_c, 0, 78, 64
9, 61698, Note_on_c, 0, 79, 85
9, 61726, Note_on_c, 0, 78, 82
9, 61736, Note_off_c, 0, 79, 64
9, 61750, Note_on_c, 0, 79, 82
9, 61761, Note_off_c, 0, 78, 64
9, 61770, Note_on_c, 0, 78, 58
9, 61789, Note_off_c, 0, 79, 64
9, 61822, Note_off_c, 0, 78, 64
9, 61862, Note_on_c, 0, 79, 85
9, 61892, Note_off_c, 0, 79, 64
9, 61922, Note_on_c, 0, 79, 85
9, 62160, Note_off_c, 0, 79, 64
9, 62272, Note_on_c, 0, 76, 80
9, 62419, Note_off_c, 0, 76, 64
9, 62460, Note_on_c, 0, 79, 85
9, 62503, Note_off_c, 0, 79, 64
9, 62520, Note_on_c, 0, 78, 91
9, 62559, Note_off_c, 0, 78, 64
9, 62572, Note_on_c, 0, 76, 78
9, 62629, Note_off_c, 0, 76, 64
9, 62633, Note_on_c, 0, 74, 66
9, 62672, Note_off_c, 0, 74, 64
9, 62686, Note_on_c, 0, 72, 55
9, 62734, Note_off_c, 0, 72, 64
9, 62746, Note_on_c, 0, 71, 50
9, 62792, Note_off_c, 0, 71, 64
9, 62796, Note_on_c, 0, 69, 63
9, 62831, Note_off_c, 0, 69, 64
9, 62864, Note_on_c, 0, 67, 68
9, 62921, Note_on_c, 0, 71, 64
9, 62923, Note_off_c, 0, 67, 64
9, 62977, Note_off_c, 0, 71, 64
9, 62982, Note_on_c, 0, 69, 55
9, 63034, Note_off_c, 0, 69, 64
9, 63039, Note_on_c, 0, 67, 62
9, 63069, Note_off_c, 0, 67, 64
9, 63100, Note_on_c, 0, 72, 85
9, 63154, Note_off_c, 0, 72, 64
9, 63155, Note_on_c, 0, 76, 85
9, 63207, Note_off_c, 0, 76, 64
9, 63212, Note_on_c, 0, 74, 68
9, 63260, Note_off_c, 0, 74, 64
9, 63270, Note_on_c, 0, 72, 76
9, 63293, Note_off_c, 0, 72, 64
9, 63341, Note_on_c, 0, 81, 89
9, 63386, Note_off_c, 0, 81, 64
9, 63465, Note_on_c, 0, 74, 87
9, 63504, Note_off_c, 0, 74, 64
9, 63591, Note_on_c, 0, 79, 87
9, 63731, Note_off_c, 0, 79, 64
9, 63769, Note_on_c, 0, 79, 78
9, 63798, Note_off_c, 0, 79, 64
9, 63826, Note_on_c, 0, 79, 89
9, 63864, Note_off_c, 0, 79, 64
9, 63881, Note_on_c, 0, 78, 105
9, 63917, Note_off_c, 0, 78, 64
9, 63939, Note_on_c, 0, 79, 91
9, 63973, Note_off_c, 0, 79, 64
9, 63998, Note_on_c, 0, 76, 80
9, 64023, Note_off_c, 0, 76, 64
9, 64059, Note_on_c, 0, 78, 98
9, 64196, Note_off_c, 0, 78, 64
9, 64241, Note_on_c, 0, 78, 82
9, 64269, Note_off_c, 0, 78, 64
9, 64307, Note_on_c, 0, 78, 102
9, 64350, Note_off_c, 0, 78, 64
9, 64431, Note_on_c, 0, 71, 76
9, 64470, Note_off_c, 0, 71, 64
9, 64552, Note_on_c, 0, 76, 91
9, 64687, Note_off_c, 0, 76, 64
9, 64731, Note_on_c, 0, 76, 78
9, 64759, Note_off_c, 0, 76, 64
9, 64795, Note_on_c, 0, 76, 89
9, 64833, Note_off_c, 0, 76, 64
9, 64851, Note_on_c, 0, 74, 80
9, 64884, Note_off_c, 0, 74, 64
9, 64910, Note_on_c, 0, 76, 89
9, 64950, Note_off_c, 0, 76, 64
9, 64966, Note_on_c, 0, 72, 80
9, 64997, Note_off_c, 0, 72, 64
9, 65028, Note_on_c, 0, 74, 87
9, 65168, Note_off_c, 0, 74, 64
9, 65209, Note_on_c, 0, 74, 66
9, 65242, Note_off_c, 0, 74, 64
9, 65272, Note_on_c, 0, 74, 87
9, 65311, Note_off_c, 0, 74, 64
9, 65396, Note_on_c, 0, 67, 82
9, 65437, Note_off_c, 0, 67, 64
9, 65516, Note_on_c, 0, 72, 89
9, 65640, Note_off_c, 0, 72, 64
9, 65689, Note_on_c, 0, 72, 80
9, 65718, Note_off_c, 0, 72, 64
9, 65750, Note_on_c, 0, 72, 91
9, 65794, Note_off_c, 0, 72, 64
9, 65807, Note_on_c, 0, 76, 85
9, 65856, Note_off_c, 0, 76, 64
9, 65866, Note_on_c, 0, 74, 87
9, 65910, Note_off_c, 0, 74, 64
9, 65925, Note_on_c, 0, 72, 80
9, 65965, Note_off_c, 0, 72, 64
9, 65983, Note_on_c, 0, 71, 64
9, 66038, Note_off_c, 0, 71, 64
9, 66041, Note_on_c, 0, 69, 68
9, 66078, Note_off_c, 0, 69, 64
9, 66102, Note_on_c, 0, 67, 74
9, 66136, Note_off_c, 0, 67, 64
9, 66158, Note_on_c, 0, 66, 63
9, 66213, Note_off_c, 0, 66, 64
9, 66231, Note_on_c, 0, 67, 66
9, 66283, Note_off_c, 0, 67, 64
9, 66295, Note_on_c, 0, 71, 72
9, 66340, Note_off_c, 0, 71, 64
9, 66355, Note_on_c, 0, 76, 85
9, 66411, Note_on_c, 0, 74, 78
9, 66413, Note_off_c, 0, 76, 64
9, 66459, Note_off_c, 0, 74, 64
9, 66472, Note_on_c, 0, 72, 70
9, 66512, Note_off_c, 0, 72, 64
9, 66524, Note_on_c, 0, 71, 72
9, 66575, Note_off_c, 0, 71, 64
9, 66584, Note_on_c, 0, 69, 87
9, 66629, Note_off_c, 0, 69, 64
9, 66644, Note_on_c, 0, 67, 82
9, 66684, Note_off_c, 0, 67, 64
9, 66708, Note_on_c, 0, 78, 100
9, 66756, Note_off_c, 0, 78, 64
9, 66767, Note_on_c, 0, 76, 70
9, 66829, Note_off_c, 0, 76, 64
9, 66829, Note_on_c, 0, 74, 68
9, 66879, Note_off_c, 0, 74, 64
9, 66889, Note_on_c, 0, 76, 70
9, 66924, Note_off_c, 0, 76, 64
9, 66944, Note_on_c, 0, 78, 93
9, 66990, Note_off_c, 0, 78, 64
9, 67003, Note_on_c, 0, 76, 80
9, 67042, Note_off_c, 0, 76, 64
9, 67058, Note_on_c, 0, 78, 98
9, 67104, Note_off_c, 0, 78, 64
9, 67114, Note_on_c, 0, 74, 82
9, 67148, Note_off_c, 0, 74, 64
9, 67180, Note_on_c, 0, 79, 89
9, 67297, Note_off_c, 0, 79, 64
9, 67356, Note_on_c, 0, 81, 85
9, 67386, Note_off_c, 0, 81, 64
9, 67424, Note_on_c, 0, 79, 93
9, 67448, Note_on_c, 0, 78, 82
9, 67456, Note_off_c, 0, 79, 64
9, 67475, Note_on_c, 0, 79, 80
9, 67476, Note_off_c, 0, 78, 64
9, 67500, Note_on_c, 0, 78, 85
9, 67515, Note_off_c, 0, 79, 64
9, 67546, Note_off_c, 0, 78, 64
9, 67601, Note_on_c, 0, 79, 82
9, 67627, Note_off_c, 0, 79, 64
9, 67670, Note_on_c, 0, 79, 95
9, 67912, Note_off_c, 0, 79, 64
9, 85317, Note_on_c, 0, 81, 87
9, 85477, Note_off_c, 0, 81, 64
9, 85494, Note_on_c, 0, 84, 82
9, 85543, Note_off_c, 0, 84, 64
9, 85555, Note_on_c, 0, 83, 76
9, 85607, Note_off_c, 0, 83, 64
9, 85612, Note_on_c, 0, 81, 72
9, 85662, Note_off_c, 0, 81, 64
9, 85675, Note_on_c, 0, 79, 74
9, 85730, Note_off_c, 0, 79, 64
9, 85731, Note_on_c, 0, 77, 74
9, 85785, Note_on_c, 0, 76, 58
9, 85790, Note_off_c, 0, 77, 64
9, 85839, Note_off_c, 0, 76, 64
9, 85846, Note_on_c, 0, 74, 57
9, 85898, Note_off_c, 0, 74, 64
9, 85911, Note_on_c, 0, 72, 78
9, 85966, Note_off_c, 0, 72, 64
9, 85973, Note_on_c, 0, 76, 68
9, 86030, Note_off_c, 0, 76, 64
9, 86032, Note_on_c, 0, 74, 58
9, 86080, Note_off_c, 0, 74, 64
9, 86087, Note_on_c, 0, 72, 64
9, 86125, Note_off_c, 0, 72, 64
9, 86152, Note_on_c, 0, 77, 82
9, 86290, Note_off_c, 0, 77, 64
9, 86332, Note_on_c, 0, 77, 87
9, 86360, Note_off_c, 0, 77, 64
9, 86396, Note_on_c, 0, 77, 91
9, 86454, Note_on_c, 0, 76, 76
9, 86457, Note_off_c, 0, 77, 64
9, 86504, Note_off_c, 0, 76, 64
9, 86509, Note_on_c, 0, 74, 70
9, 86566, Note_off_c, 0, 74, 64
9, 86566, Note_on_c, 0, 76, 60
9, 86594, Note_off_c, 0, 76, 64
9, 86635, Note_on_c, 0, 77, 87
9, 86662, Note_on_c, 0, 76, 82
9, 86667, Note_off_c, 0, 77, 64
9, 86685, Note_on_c, 0, 77, 68
9, 86692, Note_off_c, 0, 76, 64
9, 86710, Note_on_c, 0, 76, 74
9, 86727, Note_off_c, 0, 77, 64
9, 86768, Note_off_c, 0, 76, 64
9, 86808, Note_on_c, 0, 76, 78
9, 86840, Note_off_c, 0, 76, 64
9, 86873, Note_on_c, 0, 76, 91
9, 86924, Note_off_c, 0, 76, 64
9, 86934, Note_on_c, 0, 69, 70
9, 86990, Note_off_c, 0, 69, 64
9, 86997, Note_on_c, 0, 71, 66
9, 87043, Note_off_c, 0, 71, 64
9, 87051, Note_on_c, 0, 72, 66
9, 87085, Note_off_c, 0, 72, 64
9, 87121, Note_on_c, 0, 74, 80
9, 87260, Note_off_c, 0, 74, 64
9, 87294, Note_on_c, 0, 74, 82
9, 87328, Note_off_c, 0, 74, 64
9, 87357, Note_on_c, 0, 74, 89
9, 87412, Note_off_c, 0, 74, 64
9, 87415, Note_on_c, 0, 72, 70
9, 87460, Note_off_c, 0, 72, 64
9, 87477, Note_on_c, 0, 74, 80
9, 87535, Note_off_c, 0, 74, 64
9, 87536, Note_on_c, 0, 71, 66
9, 87577, Note_off_c, 0, 71, 64
9, 87600, Note_on_c, 0, 72, 82
9, 87648, Note_off_c, 0, 72, 64
9, 87653, Note_on_c, 0, 76, 78
9, 87698, Note_off_c, 0, 76, 64
9, 87711, Note_on_c, 0, 74, 59
9, 87757, Note_off_c, 0, 74, 64
9, 87769, Note_on_c, 0, 76, 68
9, 87806, Note_off_c, 0, 76, 64
9, 87831, Note_on_c, 0, 77, 87
9, 87893, Note_off_c, 0, 77, 64
9, 87893, Note_on_c, 0, 79, 72
9, 87950, Note_off_c, 0, 79, 64
9, 87953, Note_on_c, 0, 77, 64
9, 88005, Note_off_c, 0, 77, 64
9, 88010, Note_on_c, 0, 76, 62
9, 88059, Note_off_c, 0, 76, 64
9, 88073, Note_on_c, 0, 74, 76
9, 88120, Note_off_c, 0, 74, 64
9, 88124, Note_on_c, 0, 72, 63
9, 88171, Note_off_c, 0, 72, 64
9, 88180, Note_on_c, 0, 74, 63
9, 88238, Note_on_c, 0, 71, 63
9, 88239, Note_off_c, 0, 74, 64
9, 88280, Note_off_c, 0, 71, 64
9, 88304, Note_on_c, 0, 72, 70
9, 88360, Note_off_c, 0, 72, 64
9, 88365, Note_on_c, 0, 74, 66
9, 88425, Note_off_c, 0, 74, 64
9, 88428, Note_on_c, 0, 76, 66
9, 88477, Note_off_c, 0, 76, 64
9, 88487, Note_on_c, 0, 77, 80
9, 88548, Note_on_c, 0, 79, 61
9, 88552, Note_off_c, 0, 77, 64
9, 88600, Note_off_c, 0, 79, 64
9, 88606, Note_on_c, 0, 81, 74
9, 88662, Note_off_c, 0, 81, 64
9, 88667, Note_on_c, 0, 82, 82
9, 88720, Note_off_c, 0, 82, 64
9, 88725, Note_on_c, 0, 79, 60
9, 88760, Note_off_c, 0, 79, 64
9, 88792, Note_on_c, 0, 81, 82
9, 88849, Note_on_c, 0, 82, 70
9, 88858, Note_off_c, 0, 81, 64
9, 88895, Note_off_c, 0, 82, 64
9, 88905, Note_on_c, 0, 81, 76
9, 88964, Note_on_c, 0, 79, 66
9, 88972, Note_off_c, 0, 81, 64
9, 89027, Note_off_c, 0, 79, 64
9, 89030, Note_on_c, 0, 77, 68
9, 89078, Note_off_c, 0, 77, 64
9, 89084, Note_on_c, 0, 76, 59
9, 89141, Note_off_c, 0, 76, 64
9, 89150, Note_on_c, 0, 74, 56
9, 89200, Note_off_c, 0, 74, 64
9, 89207, Note_on_c, 0, 72, 66
9, 89252, Note_off_c, 0, 72, 64
9, 89279, Note_on_c, 0, 71, 62
9, 89331, Note_off_c, 0, 71, 64
9, 89394, Note_on_c, 0, 79, 80
9, 89432, Note_off_c, 0, 79, 64
9, 89520, Note_on_c, 0, 79, 93
9, 89559, Note_off_c, 0, 79, 64
9, 89643, Note_on_c, 0, 79, 91
9, 89683, Note_off_c, 0, 79, 64
9, 89759, Note_on_c, 0, 76, 93
9, 89862, Note_off_c, 0, 76, 64
9, 89879, Note_on_c, 0, 77, 82
9, 89926, Note_off_c, 0, 77, 64
9, 89935, Note_on_c, 0, 79, 82
9, 89984, Note_off_c, 0, 79, 64
9, 89994, Note_on_c, 0, 81, 87
9, 90036, Note_off_c, 0, 81, 64
9, 90114, Note_on_c, 0, 77, 85
9, 90162, Note_off_c, 0, 77, 64
9, 90232, Note_on_c, 0, 74, 80
9, 90277, Note_off_c, 0, 74, 64
9, 90352, Note_on_c, 0, 79, 87
9, 90395, Note_off_c, 0, 79, 64
9, 90469, Note_on_c, 0, 67, 82
9, 90522, Note_off_c, 0, 67, 64
9, 90588, Note_on_c, 0, 77, 85
9, 90630, Note_off_c, 0, 77, 64
9, 90712, Note_on_c, 0, 76, 87
9, 90768, Note_on_c, 0, 74, 82
9, 90774, Note_off_c, 0, 76, 64
9, 90824, Note_off_c, 0, 74, 64
9, 90831, Note_on_c, 0, 72, 64
9, 90885, Note_off_c, 0, 72, 64
9, 90885, Note_on_c, 0, 74, 72
9, 90937, Note_off_c, 0, 74, 64
9, 90948, Note_on_c, 0, 76, 82
9, 90994, Note_off_c, 0, 76, 64
9, 91001, Note_on_c, 0, 74, 78
9, 91052, Note_off_c, 0, 74, 64
9, 91064, Note_on_c, 0, 76, 70
9, 91117, Note_off_c, 0, 76, 64
9, 91117, Note_on_c, 0, 78, 66
9, 91159, Note_off_c, 0, 78, 64
9, 91184, Note_on_c, 0, 79, 85
9, 91301, Note_off_c, 0, 79, 64
9, 91360, Note_on_c, 0, 74, 70
9, 91392, Note_off_c, 0, 74, 64
9, 91424, Note_on_c, 0, 79, 89
9, 91544, Note_off_c, 0, 79, 64
9, 91608, Note_on_c, 0, 79, 76
9, 91637, Note_off_c, 0, 79, 64
9, 91667, Note_on_c, 0, 79, 93
9, 91783, Note_off_c, 0, 79, 64
9, 91827, Note_on_c, 0, 78, 74
9, 91862, Note_on_c, 0, 76, 72
9, 91865, Note_off_c, 0, 78, 64
9, 91890, Note_on_c, 0, 78, 58
9, 91904, Note_off_c, 0, 76, 64
9, 91913, Note_off_c, 0, 78, 64
9, 91916, Note_on_c, 0, 79, 72
9, 91939, Note_on_c, 0, 78, 70
9, 91951, Note_off_c, 0, 79, 64
9, 91958, Note_on_c, 0, 79, 66
9, 91962, Note_off_c, 0, 78, 64
9, 91982, Note_on_c, 0, 78, 78
9, 92000, Note_off_c, 0, 79, 64
9, 92041, Note_off_c, 0, 78, 64
9, 92073, Note_on_c, 0, 79, 78
9, 92106, Note_off_c, 0, 79, 64
9, 92143, Note_on_c, 0, 79, 100
9, 92249, Note_off_c, 0, 79, 64
9, 92268, Note_on_c, 0, 77, 68
9, 92317, Note_off_c, 0, 77, 64
9, 92317, Note_on_c, 0, 76, 66
9, 92360, Note_off_c, 0, 76, 64
9, 92374, Note_on_c, 0, 74, 57
9, 92431, Note_off_c, 0, 74, 64
9, 92433, Note_on_c, 0, 71, 57
9, 92485, Note_off_c, 0, 71, 64
9, 92495, Note_on_c, 0, 72, 68
9, 92540, Note_off_c, 0, 72, 64
9, 92552, Note_on_c, 0, 74, 72
9, 92586, Note_off_c, 0, 74, 64
9, 92611, Note_on_c, 0, 67, 61
9, 92670, Note_off_c, 0, 67, 64
9, 92745, Note_on_c, 0, 79, 82
9, 92788, Note_off_c, 0, 79, 64
9, 92867, Note_on_c, 0, 76, 76
9, 92908, Note_off_c, 0, 76, 64
9, 92984, Note_on_c, 0, 81, 85
9, 93028, Note_off_c, 0, 81, 64
9, 93112, Note_on_c, 0, 77, 100
9, 93169, Note_on_c, 0, 79, 87
9, 93175, Note_off_c, 0, 77, 64
9, 93219, Note_off_c, 0, 79, 64
9, 93232, Note_on_c, 0, 77, 78
9, 93287, Note_off_c, 0, 77, 64
9, 93291, Note_on_c, 0, 76, 70
9, 93339, Note_off_c, 0, 76, 64
9, 93355, Note_on_c, 0, 74, 66
9, 93409, Note_off_c, 0, 74, 64
9, 93414, Note_on_c, 0, 77, 66
9, 93471, Note_off_c, 0, 77, 64
9, 93473, Note_on_c, 0, 76, 53
9, 93520, Note_off_c, 0, 76, 64
9, 93530, Note_on_c, 0, 74, 60
9, 93571, Note_off_c, 0, 74, 64
9, 93594, Note_on_c, 0, 79, 98
9, 93650, Note_on_c, 0, 77, 85
9, 93654, Note_off_c, 0, 79, 64
9, 93701, Note_off_c, 0, 77, 64
9, 93714, Note_on_c, 0, 76, 66
9, 93771, Note_on_c, 0, 74, 76
9, 93776, Note_off_c, 0, 76, 64
9, 93829, Note_off_c, 0, 74, 64
9, 93831, Note_on_c, 0, 72, 62
9, 93878, Note_off_c, 0, 72, 64
9, 93892, Note_on_c, 0, 71, 59
9, 93937, Note_off_c, 0, 71, 64
9, 93947, Note_on_c, 0, 72, 66
9, 93989, Note_off_c, 0, 72, 64
9, 94004, Note_on_c, 0, 69, 56
9, 94041, Note_off_c, 0, 69, 64
9, 94073, Note_on_c, 0, 74, 85
9, 94178, Note_off_c, 0, 74, 64
9, 94198, Note_on_c, 0, 76, 70
9, 94247, Note_off_c, 0, 76, 64
9, 94251, Note_on_c, 0, 78, 66
9, 94291, Note_off_c, 0, 78, 64
9, 94316, Note_on_c, 0, 79, 87
9, 94410, Note_off_c, 0, 79, 64
9, 94432, Note_on_c, 0, 81, 66
9, 94472, Note_off_c, 0, 81, 64
9, 94487, Note_on_c, 0, 83, 87
9, 94527, Note_off_c, 0, 83, 64
9, 94551, Note_on_c, 0, 84, 91
9, 94657, Note_off_c, 0, 84, 64
9, 94713, Note_on_c, 0, 83, 82
9, 94739, Note_off_c, 0, 83, 64
9, 94774, Note_on_c, 0, 83, 87
9, 94799, Note_off_c, 0, 83, 64
9, 94800, Note_on_c, 0, 81, 87
9, 94826, Note_on_c, 0, 83, 76
9, 94828, Note_off_c, 0, 81, 64
9, 94853, Note_on_c, 0, 81, 80
9, 94864, Note_off_c, 0, 83, 64
9, 94928, Note_off_c, 0, 81, 64
9, 94962, Note_on_c, 0, 79, 70
9, 95000, Note_off_c, 0, 79, 64
9, 95031, Note_on_c, 0, 79, 95
9, 95136, Note_off_c, 0, 79, 64
9, 95153, Note_on_c, 0, 77, 72
9, 95209, Note_on_c, 0, 76, 68
9, 95210, Note_off_c, 0, 77, 64
9, 95261, Note_off_c, 0, 76, 64
9, 95271, Note_on_c, 0, 74, 80
9, 95325, Note_on_c, 0, 76, 66
9, 95328, Note_off_c, 0, 74, 64
9, 95366, Note_off_c, 0, 76, 64
9, 95388, Note_on_c, 0, 77, 72
9, 95431, Note_off_c, 0, 77, 64
9, 95437, Note_on_c, 0, 74, 66
9, 95478, Note_off_c, 0, 74, 64
9, 95507, Note_on_c, 0, 76, 89
9, 95552, Note_off_c, 0, 76, 64
9, 95632, Note_on_c, 0, 72, 82
9, 95671, Note_off_c, 0, 72, 64
9, 95750, Note_on_c, 0, 84, 89
9, 95881, Note_off_c, 0, 84, 64
9, 95929, Note_on_c, 0, 84, 95
9, 95961, Note_off_c, 0, 84, 64
9, 95990, Note_on_c, 0, 84, 95
9, 96040, Note_off_c, 0, 84, 64
9, 96051, Note_on_c, 0, 82, 72
9, 96093, Note_off_c, 0, 82, 64
9, 96110, Note_on_c, 0, 84, 89
9, 96153, Note_off_c, 0, 84, 64
9, 96162, Note_on_c, 0, 81, 66
9, 96199, Note_off_c, 0, 81, 64
9, 96228, Note_on_c, 0, 82, 87
9, 96356, Note_off_c, 0, 82, 64
9, 96411, Note_on_c, 0, 82, 68
9, 96440, Note_off_c, 0, 82, 64
9, 96469, Note_on_c, 0, 82, 82
9, 96514, Note_off_c, 0, 82, 64
9, 96595, Note_on_c, 0, 76, 82
9, 96636, Note_off_c, 0, 76, 64
9, 96718, Note_on_c, 0, 81, 85
9, 96832, Note_off_c, 0, 81, 64
9, 96894, Note_on_c, 0, 81, 85
9, 96928, Note_off_c, 0, 81, 64
9, 96953, Note_on_c, 0, 81, 91
9, 97005, Note_off_c, 0, 81, 64
9, 97013, Note_on_c, 0, 79, 68
9, 97051, Note_off_c, 0, 79, 64
9, 97068, Note_on_c, 0, 81, 80
9, 97117, Note_off_c, 0, 81, 64
9, 97127, Note_on_c, 0, 77, 66
9, 97161, Note_off_c, 0, 77, 64
9, 97190, Note_on_c, 0, 79, 70
9, 97303, Note_off_c, 0, 79, 64
9, 97367, Note_on_c, 0, 79, 76
9, 97394, Note_off_c, 0, 79, 64
9, 97420, Note_on_c, 0, 79, 89
9, 97464, Note_off_c, 0, 79, 64
9, 97546, Note_on_c, 0, 72, 78
9, 97589, Note_off_c, 0, 72, 64
9, 97664, Note_on_c, 0, 77, 82
9, 97799, Note_off_c, 0, 77, 64
9, 97843, Note_on_c, 0, 77, 70
9, 97876, Note_off_c, 0, 77, 64
9, 97908, Note_on_c, 0, 77, 85
9, 97960, Note_off_c, 0, 77, 64
9, 97966, Note_on_c, 0, 81, 80
9, 98007, Note_off_c, 0, 81, 64
9, 98025, Note_on_c, 0, 79, 78
9, 98072, Note_off_c, 0, 79, 64
9, 98082, Note_on_c, 0, 77, 66
9, 98129, Note_off_c, 0, 77, 64
9, 98139, Note_on_c, 0, 76, 63
9, 98198, Note_on_c, 0, 74, 63
9, 98199, Note_off_c, 0, 76, 64
9, 98247, Note_off_c, 0, 74, 64
9, 98260, Note_on_c, 0, 72, 56
9, 98309, Note_off_c, 0, 72, 64
9, 98316, Note_on_c, 0, 71, 64
9, 98358, Note_off_c, 0, 71, 64
9, 98385, Note_on_c, 0, 72, 63
9, 98440, Note_off_c, 0, 72, 64
9, 98452, Note_on_c, 0, 76, 68
9, 98493, Note_off_c, 0, 76, 64
9, 98510, Note_on_c, 0, 81, 85
9, 98568, Note_on_c, 0, 79, 74
9, 98571, Note_off_c, 0, 81, 64
9, 98612, Note_off_c, 0, 79, 64
9, 98631, Note_on_c, 0, 77, 82
9, 98686, Note_off_c, 0, 77, 64
9, 98691, Note_on_c, 0, 76, 64
9, 98750, Note_off_c, 0, 76, 64
9, 98750, Note_on_c, 0, 74, 66
9, 98802, Note_on_c, 0, 72, 60
9, 98807, Note_off_c, 0, 74, 64
9, 98840, Note_off_c, 0, 72, 64
9, 98868, Note_on_c, 0, 71, 68
9, 98928, Note_on_c, 0, 69, 60
9, 98936, Note_off_c, 0, 71, 64
9, 98979, Note_off_c, 0, 69, 64
9, 98991, Note_on_c, 0, 67, 57
9, 99040, Note_off_c, 0, 67, 64
9, 99052, Note_on_c, 0, 69, 61
9, 99091, Note_off_c, 0, 69, 64
9, 99113, Note_on_c, 0, 71, 85
9, 99164, Note_off_c, 0, 71, 64
9, 99167, Note_on_c, 0, 69, 64
9, 99212, Note_off_c, 0, 69, 64
9, 99226, Note_on_c, 0, 71, 80
9, 99269, Note_off_c, 0, 71, 64
9, 99282, Note_on_c, 0, 67, 63
9, 99323, Note_off_c, 0, 67, 64
9, 99345, Note_on_c, 0, 72, 85
9, 99464, Note_off_c, 0, 72, 64
9, 99512, Note_on_c, 0, 74, 74
9, 99540, Note_off_c, 0, 74, 64
9, 99578, Note_on_c, 0, 72, 95
9, 99606, Note_on_c, 0, 71, 66
9, 99608, Note_off_c, 0, 72, 64
9, 99629, Note_on_c, 0, 72, 66
9, 99634, Note_off_c, 0, 71, 64
9, 99655, Note_on_c, 0, 71, 74
9, 99662, Note_off_c, 0, 72, 64
9, 99707, Note_off_c, 0, 71, 64
9, 99757, Note_on_c, 0, 72, 78
9, 99790, Note_off_c, 0, 72, 64
9, 99825, Note_on_c, 0, 72, 95
9, 99884, Note_on_c, 0, 77, 76
9, 99893, Note_off_c, 0, 72, 64
9, 99929, Note_off_c, 0, 77, 64
9, 99943, Note_on_c, 0, 76, 82
9, 99988, Note_off_c, 0, 76, 64
9, 100002, Note_on_c, 0, 74, 68
9, 100059, Note_off_c, 0, 74, 64
9, 100062, Note_on_c, 0, 72, 68
9, 100115, Note_off_c, 0, 72, 64
9, 100123, Note_on_c, 0, 70, 54
9, 100165, Note_off_c, 0, 70, 64
9, 100185, Note_on_c, 0, 72, 66
9, 100235, Note_off_c, 0, 72, 64
9, 100240, Note_on_c, 0, 69, 56
9, 100283, Note_off_c, 0, 69, 64
9, 100306, Note_on_c, 0, 70, 59
9, 100464, Note_off_c, 0, 70, 64
9, 110683, Note_on_c, 0, 72, 82
9, 110724, Note_off_c, 0, 72, 64
9, 110743, Note_on_c, 0, 70, 82
9, 110786, Note_off_c, 0, 70, 64
9, 110804, Note_on_c, 0, 69, 82
9, 110843, Note_off_c, 0, 69, 64
9, 110873, Note_on_c, 0, 67, 74
9, 111241, Note_off_c, 0, 67, 64
9, 111296, Note_on_c, 0, 69, 68
9, 111337, Note_off_c, 0, 69, 64
9, 111355, Note_on_c, 0, 70, 76
9, 111447, Note_off_c, 0, 70, 64
9, 111530, Note_on_c, 0, 70, 68
9, 111576, Note_off_c, 0, 70, 64
9, 111592, Note_on_c, 0, 72, 82
9, 111680, Note_off_c, 0, 72, 64
9, 111771, Note_on_c, 0, 74, 82
9, 111808, Note_off_c, 0, 74, 64
9, 111829, Note_on_c, 0, 67, 78
9, 111921, Note_off_c, 0, 67, 64
9, 112008, Note_on_c, 0, 67, 74
9, 112050, Note_off_c, 0, 67, 64
9, 112073, Note_on_c, 0, 69, 87
9, 112159, Note_off_c, 0, 69, 64
9, 112250, Note_on_c, 0, 70, 66
9, 112291, Note_off_c, 0, 70, 64
9, 112314, Note_on_c, 0, 69, 82
9, 112567, Note_off_c, 0, 69, 64
9, 112608, Note_on_c, 0, 69, 80
9, 112652, Note_off_c, 0, 69, 64
9, 112670, Note_on_c, 0, 71, 80
9, 112718, Note_off_c, 0, 71, 64
9, 112729, Note_on_c, 0, 73, 62
9, 112772, Note_off_c, 0, 73, 64
9, 112789, Note_on_c, 0, 74, 82
9, 112838, Note_off_c, 0, 74, 64
9, 112853, Note_on_c, 0, 73, 87
9, 112893, Note_off_c, 0, 73, 64
9, 112906, Note_on_c, 0, 74, 76
9, 112957, Note_off_c, 0, 74, 64
9, 112968, Note_on_c, 0, 76, 80
9, 113007, Note_off_c, 0, 76, 64
9, 113026, Note_on_c, 0, 77, 85
9, 113078, Note_off_c, 0, 77, 64
9, 113083, Note_on_c, 0, 76, 76
9, 113127, Note_off_c, 0, 76, 64
9, 113146, Note_on_c, 0, 77, 82
9, 113186, Note_off_c, 0, 77, 64
9, 113203, Note_on_c, 0, 74, 80
9, 113251, Note_off_c, 0, 74, 64
9, 113275, Note_on_c, 0, 79, 85
9, 113623, Note_off_c, 0, 79, 64
9, 113696, Note_on_c, 0, 79, 82
9, 113731, Note_off_c, 0, 79, 64
9, 113751, Note_on_c, 0, 79, 87
9, 113886, Note_off_c, 0, 79, 64
9, 113936, Note_on_c, 0, 81, 82
9, 113962, Note_on_c, 0, 82, 64
9, 113963, Note_off_c, 0, 81, 64
9, 113986, Note_off_c, 0, 82, 64
9, 113997, Note_on_c, 0, 81, 91
9, 114094, Note_off_c, 0, 81, 64
9, 114170, Note_on_c, 0, 79, 72
9, 114186, Note_on_c, 0, 77, 55
9, 114197, Note_off_c, 0, 79, 64
9, 114208, Note_on_c, 0, 76, 64
9, 114217, Note_off_c, 0, 77, 64
9, 114237, Note_off_c, 0, 76, 64
9, 114243, Note_on_c, 0, 77, 85
9, 114340, Note_off_c, 0, 77, 64
9, 114418, Note_on_c, 0, 74, 72
9, 114456, Note_off_c, 0, 74, 64
9, 114470, Note_on_c, 0, 77, 87
9, 114562, Note_off_c, 0, 77, 64
9, 114651, Note_on_c, 0, 81, 80
9, 114680, Note_off_c, 0, 81, 64
9, 114708, Note_on_c, 0, 79, 91
9, 114760, Note_on_c, 0, 78, 76
9, 114768, Note_off_c, 0, 79, 64
9, 114792, Note_on_c, 0, 79, 63
9, 114796, Note_off_c, 0, 78, 64
9, 114822, Note_on_c, 0, 78, 68
9, 114828, Note_off_c, 0, 79, 64
9, 114844, Note_off_c, 0, 78, 64
9, 114845, Note_on_c, 0, 79, 64
9, 114864, Note_on_c, 0, 78, 78
9, 114870, Note_off_c, 0, 79, 64
9, 114885, Note_off_c, 0, 78, 64
9, 114885, Note_on_c, 0, 79, 60
9, 114904, Note_on_c, 0, 78, 78
9, 114910, Note_off_c, 0, 79, 64
9, 114924, Note_off_c, 0, 78, 64
9, 114924, Note_on_c, 0, 79, 72
9, 114943, Note_on_c, 0, 78, 78
9, 114948, Note_off_c, 0, 79, 64
9, 114962, Note_off_c, 0, 78, 64
9, 114963, Note_on_c, 0, 79, 68
9, 114982, Note_on_c, 0, 78, 80
9, 114986, Note_off_c, 0, 79, 64
9, 115001, Note_off_c, 0, 78, 64
9, 115003, Note_on_c, 0, 79, 70
9, 115021, Note_on_c, 0, 78, 72
9, 115024, Note_off_c, 0, 79, 64
9, 115038, Note_off_c, 0, 78, 64
9, 115039, Note_on_c, 0, 79, 72
9, 115057, Note_on_c, 0, 78, 66
9, 115061, Note_off_c, 0, 79, 64
9, 115073, Note_off_c, 0, 78, 64
9, 115073, Note_on_c, 0, 79, 82
9, 115091, Note_on_c, 0, 78, 78
9, 115099, Note_off_c, 0, 79, 64
9, 115115, Note_on_c, 0, 76, 74
9, 115120, Note_off_c, 0, 78, 64
9, 115142, Note_on_c, 0, 78, 74
9, 115155, Note_off_c, 0, 76, 64
9, 115169, Note_off_c, 0, 78, 64
9, 115175, Note_on_c, 0, 79, 78
9, 115687, Note_off_c, 0, 79, 64
9, 115737, Note_on_c, 0, 81, 82
9, 115778, Note_off_c, 0, 81, 64
9, 115791, Note_on_c, 0, 79, 80
9, 115831, Note_off_c, 0, 79, 64
9, 115846, Note_on_c, 0, 77, 80
9, 115882, Note_off_c, 0, 77, 64
9, 115907, Note_on_c, 0, 76, 82
9, 115944, Note_off_c, 0, 76, 64
9, 115963, Note_on_c, 0, 74, 66
9, 116007, Note_off_c, 0, 74, 64
9, 116023, Note_on_c, 0, 76, 82
9, 116059, Note_off_c, 0, 76, 64
9, 116083, Note_on_c, 0, 72, 80
9, 116126, Note_off_c, 0, 72, 64
9, 116155, Note_on_c, 0, 81, 80
9, 116642, Note_off_c, 0, 81, 64
9, 116694, Note_on_c, 0, 79, 85
9, 116737, Note_off_c, 0, 79, 64
9, 116752, Note_on_c, 0, 81, 76
9, 116794, Note_off_c, 0, 81, 64
9, 116808, Note_on_c, 0, 83, 80
9, 116845, Note_off_c, 0, 83, 64
9, 116868, Note_on_c, 0, 84, 72
9, 116907, Note_off_c, 0, 84, 64
9, 116928, Note_on_c, 0, 81, 63
9, 116970, Note_off_c, 0, 81, 64
9, 116991, Note_on_c, 0, 83, 74
9, 117027, Note_off_c, 0, 83, 64
9, 117051, Note_on_c, 0, 84, 70
9, 117087, Note_off_c, 0, 84, 64
9, 117115, Note_on_c, 0, 77, 80
9, 117162, Note_off_c, 0, 77, 64
9, 117170, Note_on_c, 0, 76, 80
9, 117213, Note_off_c, 0, 76, 64
9, 117231, Note_on_c, 0, 77, 80
9, 117273, Note_off_c, 0, 77, 64
9, 117289, Note_on_c, 0, 79, 80
9, 117331, Note_off_c, 0, 79, 64
9, 117348, Note_on_c, 0, 81, 68
9, 117385, Note_off_c, 0, 81, 64
9, 117403, Note_on_c, 0, 77, 68
9, 117441, Note_off_c, 0, 77, 64
9, 117464, Note_on_c, 0, 79, 76
9, 117505, Note_off_c, 0, 79, 64
9, 117529, Note_on_c, 0, 81, 85
9, 117568, Note_off_c, 0, 81, 64
9, 117592, Note_on_c, 0, 71, 74
9, 117949, Note_off_c, 0, 71, 64
9, 118006, Note_on_c, 0, 72, 78
9, 118044, Note_off_c, 0, 72, 64
9, 118072, Note_on_c, 0, 74, 80
9, 118122, Note_off_c, 0, 74, 64
9, 118133, Note_on_c, 0, 71, 74
9, 118172, Note_off_c, 0, 71, 64
9, 118193, Note_on_c, 0, 67, 72
9, 118239, Note_off_c, 0, 67, 64
9, 118253, Note_on_c, 0, 69, 78
9, 118290, Note_off_c, 0, 69, 64
9, 118308, Note_on_c, 0, 71, 76
9, 118348, Note_off_c, 0, 71, 64
9, 118364, Note_on_c, 0, 72, 78
9, 118401, Note_off_c, 0, 72, 64
9, 118425, Note_on_c, 0, 74, 60
9, 118470, Note_off_c, 0, 74, 64
9, 118484, Note_on_c, 0, 76, 80
9, 118525, Note_off_c, 0, 76, 64
9, 118550, Note_on_c, 0, 77, 80
9, 118925, Note_off_c, 0, 77, 64
9, 118969, Note_on_c, 0, 77, 82
9, 119005, Note_off_c, 0, 77, 64
9, 119029, Note_on_c, 0, 77, 72
9, 119138, Note_off_c, 0, 77, 64
9, 119211, Note_on_c, 0, 76, 66
9, 119229, Note_on_c, 0, 74, 76
9, 119242, Note_off_c, 0, 76, 64
9, 119261, Note_off_c, 0, 74, 64
9, 119271, Note_on_c, 0, 76, 80
9, 119373, Note_off_c, 0, 76, 64
9, 119456, Note_on_c, 0, 77, 66
9, 119478, Note_on_c, 0, 79, 82
9, 119484, Note_off_c, 0, 77, 64
9, 119512, Note_off_c, 0, 79, 64
9, 119520, Note_on_c, 0, 70, 58
9, 119863, Note_off_c, 0, 70, 64
9, 119930, Note_on_c, 0, 70, 70
9, 119962, Note_off_c, 0, 70, 64
9, 119988, Note_on_c, 0, 70, 78
9, 120106, Note_off_c, 0, 70, 64
9, 120160, Note_on_c, 0, 69, 76
9, 120186, Note_on_c, 0, 67, 66
9, 120196, Note_off_c, 0, 69, 64
9, 120214, Note_off_c, 0, 67, 64
9, 120226, Note_on_c, 0, 69, 87
9, 120331, Note_off_c, 0, 69, 64
9, 120407, Note_on_c, 0, 71, 82
9, 120444, Note_off_c, 0, 71, 64
9, 120468, Note_on_c, 0, 72, 78
9, 120831, Note_off_c, 0, 72, 64
9, 120903, Note_on_c, 0, 72, 85
9, 120936, Note_off_c, 0, 72, 64
9, 120957, Note_on_c, 0, 72, 82
9, 121049, Note_off_c, 0, 72, 64
9, 121128, Note_on_c, 0, 71, 62
9, 121147, Note_on_c, 0, 69, 64
9, 121160, Note_off_c, 0, 71, 64
9, 121180, Note_off_c, 0, 69, 64
9, 121183, Note_on_c, 0, 77, 87
9, 121278, Note_off_c, 0, 77, 64
9, 121359, Note_on_c, 0, 76, 58
9, 121383, Note_on_c, 0, 74, 70
9, 121394, Note_off_c, 0, 76, 64
9, 121417, Note_off_c, 0, 74, 64
9, 121425, Note_on_c, 0, 83, 85
9, 121521, Note_off_c, 0, 83, 64
9, 121602, Note_on_c, 0, 81, 63
9, 121623, Note_on_c, 0, 79, 66
9, 121638, Note_off_c, 0, 81, 64
9, 121658, Note_off_c, 0, 79, 64
9, 121669, Note_on_c, 0, 86, 87
9, 121749, Note_off_c, 0, 86, 64
9, 121846, Note_on_c, 0, 77, 64
9, 121880, Note_off_c, 0, 77, 64
9, 121915, Note_on_c, 0, 77, 70
9, 122162, Note_off_c, 0, 77, 64
9, 122204, Note_on_c, 0, 81, 74
9, 122243, Note_off_c, 0, 81, 64
9, 122263, Note_on_c, 0, 79, 70
9, 122307, Note_off_c, 0, 79, 64
9, 122321, Note_on_c, 0, 77, 76
9, 122356, Note_off_c, 0, 77, 64
9, 122389, Note_on_c, 0, 76, 74
9, 122436, Note_off_c, 0, 76, 64
9, 122450, Note_on_c, 0, 72, 72
9, 122490, Note_off_c, 0, 72, 64
9, 122510, Note_on_c, 0, 74, 68
9, 122552, Note_off_c, 0, 74, 64
9, 122567, Note_on_c, 0, 76, 66
9, 122611, Note_off_c, 0, 76, 64
9, 122632, Note_on_c, 0, 77, 76
9, 122675, Note_off_c, 0, 77, 64
9, 122686, Note_on_c, 0, 79, 72
9, 122740, Note_off_c, 0, 79, 64
9, 122757, Note_on_c, 0, 81, 62
9, 122798, Note_off_c, 0, 81, 64
9, 122812, Note_on_c, 0, 82, 68
9, 122848, Note_off_c, 0, 82, 64
9, 122868, Note_on_c, 0, 81, 76
9, 122914, Note_off_c, 0, 81, 64
9, 122929, Note_on_c, 0, 79, 63
9, 122971, Note_off_c, 0, 79, 64
9, 122986, Note_on_c, 0, 77, 66
9, 123034, Note_off_c, 0, 77, 64
9, 123049, Note_on_c, 0, 76, 64
9, 123091, Note_off_c, 0, 76, 64
9, 123110, Note_on_c, 0, 77, 78
9, 123160, Note_off_c, 0, 77, 64
9, 123165, Note_on_c, 0, 74, 66
9, 123212, Note_off_c, 0, 74, 64
9, 123230, Note_on_c, 0, 76, 87
9, 123270, Note_off_c, 0, 76, 64
9, 123289, Note_on_c, 0, 77, 80
9, 123323, Note_off_c, 0, 77, 64
9, 123353, Note_on_c, 0, 67, 56
9, 123652, Note_off_c, 0, 67, 64
9, 123705, Note_on_c, 0, 69, 74
9, 123732, Note_on_c, 0, 71, 61
9, 123749, Note_off_c, 0, 69, 64
9, 123760, Note_off_c, 0, 71, 64
9, 123760, Note_on_c, 0, 72, 80
9, 123783, Note_on_c, 0, 74, 80
9, 123793, Note_off_c, 0, 72, 64
9, 123804, Note_on_c, 0, 76, 76
9, 123811, Note_off_c, 0, 74, 64
9, 123826, Note_on_c, 0, 77, 82
9, 123832, Note_off_c, 0, 76, 64
9, 123925, Note_off_c, 0, 77, 64
9, 124912, Note_on_c, 0, 79, 72
9, 124942, Note_off_c, 0, 79, 64
9, 125026, Note_on_c, 0, 79, 87
9, 125061, Note_off_c, 0, 79, 64
9, 125146, Note_on_c, 0, 79, 85
9, 125182, Note_off_c, 0, 79, 64
9, 125266, Note_on_c, 0, 76, 70
9, 125372, Note_off_c, 0, 76, 64
9, 125381, Note_on_c, 0, 77, 76
9, 125431, Note_on_c, 0, 79, 74
9, 125433, Note_off_c, 0, 77, 64
9, 125473, Note_off_c, 0, 79, 64
9, 125490, Note_on_c, 0, 81, 82
9, 125526, Note_off_c, 0, 81, 64
9, 125610, Note_on_c, 0, 77, 82
9, 125647, Note_off_c, 0, 77, 64
9, 125735, Note_on_c, 0, 74, 68
9, 125773, Note_off_c, 0, 74, 64
9, 125856, Note_on_c, 0, 79, 74
9, 125899, Note_off_c, 0, 79, 64
9, 125984, Note_on_c, 0, 67, 70
9, 126039, Note_off_c, 0, 67, 64
9, 126113, Note_on_c, 0, 77, 80
9, 126156, Note_off_c, 0, 77, 64
9, 126237, Note_on_c, 0, 76, 85
9, 126292, Note_on_c, 0, 74, 66
9, 126298, Note_off_c, 0, 76, 64
9, 126342, Note_off_c, 0, 74, 64
9, 126353, Note_on_c, 0, 72, 66
9, 126406, Note_on_c, 0, 74, 60
9, 126418, Note_off_c, 0, 72, 64
9, 126465, Note_off_c, 0, 74, 64
9, 126468, Note_on_c, 0, 76, 78
9, 126519, Note_off_c, 0, 76, 64
9, 126525, Note_on_c, 0, 74, 64
9, 126584, Note_on_c, 0, 76, 61
9, 126589, Note_off_c, 0, 74, 64
9, 126632, Note_off_c, 0, 76, 64
9, 126635, Note_on_c, 0, 78, 63
9, 126678, Note_off_c, 0, 78, 64
9, 126702, Note_on_c, 0, 79, 70
9, 126832, Note_off_c, 0, 79, 64
9, 126887, Note_on_c, 0, 74, 68
9, 126922, Note_off_c, 0, 74, 64
9, 126950, Note_on_c, 0, 79, 82
9, 127066, Note_off_c, 0, 79, 64
9, 127128, Note_on_c, 0, 79, 72
9, 127154, Note_off_c, 0, 79, 64
9, 127186, Note_on_c, 0, 79, 89
9, 127291, Note_off_c, 0, 79, 64
9, 127346, Note_on_c, 0, 78, 64
9, 127380, Note_on_c, 0, 76, 60
9, 127383, Note_off_c, 0, 78, 64
9, 127410, Note_on_c, 0, 78, 54
9, 127420, Note_off_c, 0, 76, 64
9, 127429, Note_off_c, 0, 78, 64
9, 127433, Note_on_c, 0, 79, 68
9, 127460, Note_on_c, 0, 78, 76
9, 127469, Note_off_c, 0, 79, 64
9, 127486, Note_on_c, 0, 79, 80
9, 127488, Note_off_c, 0, 78, 64
9, 127511, Note_on_c, 0, 78, 68
9, 127530, Note_off_c, 0, 79, 64
9, 127565, Note_off_c, 0, 78, 64
9, 127602, Note_on_c, 0, 79, 70
9, 127635, Note_off_c, 0, 79, 64
9, 127669, Note_on_c, 0, 79, 82
9, 127769, Note_off_c, 0, 79, 64
9, 127791, Note_on_c, 0, 77, 68
9, 127841, Note_on_c, 0, 76, 62
9, 127846, Note_off_c, 0, 77, 64
9, 127894, Note_off_c, 0, 76, 64
9, 127902, Note_on_c, 0, 74, 62
9, 127935, Note_off_c, 0, 74, 64
9, 127948, Note_on_c, 0, 71, 70
9, 128001, Note_off_c, 0, 71, 64
9, 128004, Note_on_c, 0, 72, 66
9, 128047, Note_off_c, 0, 72, 64
9, 128067, Note_on_c, 0, 74, 70
9, 128116, Note_off_c, 0, 74, 64
9, 128136, Note_on_c, 0, 67, 82
9, 128189, Note_off_c, 0, 67, 64
9, 128262, Note_on_c, 0, 79, 74
9, 128297, Note_off_c, 0, 79, 64
9, 128388, Note_on_c, 0, 76, 68
9, 128424, Note_off_c, 0, 76, 64
9, 128507, Note_on_c, 0, 81, 82
9, 128553, Note_off_c, 0, 81, 64
9, 128635, Note_on_c, 0, 77, 95
9, 128689, Note_on_c, 0, 79, 70
9, 128699, Note_off_c, 0, 77, 64
9, 128744, Note_off_c, 0, 79, 64
9, 128751, Note_on_c, 0, 77, 60
9, 128809, Note_off_c, 0, 77, 64
9, 128813, Note_on_c, 0, 76, 52
9, 128867, Note_off_c, 0, 76, 64
9, 128874, Note_on_c, 0, 74, 62
9, 128933, Note_on_c, 0, 77, 66
9, 128936, Note_off_c, 0, 74, 64
9, 128993, Note_on_c, 0, 76, 61
9, 129002, Note_off_c, 0, 77, 64
9, 129048, Note_off_c, 0, 76, 64
9, 129048, Note_on_c, 0, 74, 57
9, 129085, Note_off_c, 0, 74, 64
9, 129110, Note_on_c, 0, 79, 93
9, 129164, Note_on_c, 0, 77, 76
9, 129177, Note_off_c, 0, 79, 64
9, 129222, Note_off_c, 0, 77, 64
9, 129230, Note_on_c, 0, 76, 60
9, 129289, Note_on_c, 0, 74, 52
9, 129292, Note_off_c, 0, 76, 64
9, 129342, Note_off_c, 0, 74, 64
9, 129352, Note_on_c, 0, 72, 52
9, 129400, Note_off_c, 0, 72, 64
9, 129408, Note_on_c, 0, 71, 41
9, 129451, Note_off_c, 0, 71, 64
9, 129457, Note_on_c, 0, 72, 57
9, 129507, Note_off_c, 0, 72, 64
9, 129518, Note_on_c, 0, 69, 59
9, 129554, Note_off_c, 0, 69, 64
9, 129582, Note_on_c, 0, 74, 66
9, 129672, Note_off_c, 0, 74, 64
9, 129706, Note_on_c, 0, 76, 62
9, 129748, Note_off_c, 0, 76, 64
9, 129761, Note_on_c, 0, 78, 61
9, 129796, Note_off_c, 0, 78, 64
9, 129829, Note_on_c, 0, 79, 82
9, 129930, Note_off_c, 0, 79, 64
9, 129951, Note_on_c, 0, 81, 76
9, 129987, Note_off_c, 0, 81, 64
9, 130008, Note_on_c, 0, 83, 80
9, 130039, Note_off_c, 0, 83, 64
9, 130068, Note_on_c, 0, 84, 82
9, 130187, Note_off_c, 0, 84, 64
9, 130246, Note_on_c, 0, 83, 72
9, 130272, Note_off_c, 0, 83, 64
9, 130303, Note_on_c, 0, 83, 91
9, 130327, Note_on_c, 0, 81, 78
9, 130331, Note_off_c, 0, 83, 64
9, 130359, Note_on_c, 0, 83, 70
9, 130362, Note_off_c, 0, 81, 64
9, 130389, Note_on_c, 0, 81, 66
9, 130403, Note_off_c, 0, 83, 64
9, 130462, Note_off_c, 0, 81, 64
9, 130497, Note_on_c, 0, 79, 70
9, 130527, Note_off_c, 0, 79, 64
9, 130557, Note_on_c, 0, 79, 85
9, 130660, Note_off_c, 0, 79, 64
9, 130677, Note_on_c, 0, 77, 68
9, 130723, Note_off_c, 0, 77, 64
9, 130728, Note_on_c, 0, 76, 60
9, 130760, Note_off_c, 0, 76, 64
9, 130787, Note_on_c, 0, 74, 64
9, 130843, Note_on_c, 0, 76, 70
9, 130845, Note_off_c, 0, 74, 64
9, 130905, Note_off_c, 0, 76, 64
9, 130905, Note_on_c, 0, 77, 72
9, 130951, Note_off_c, 0, 77, 64
9, 130959, Note_on_c, 0, 74, 57
9, 131005, Note_off_c, 0, 74, 64
9, 131028, Note_on_c, 0, 76, 76
9, 131085, Note_off_c, 0, 76, 64
9, 131089, Note_on_c, 0, 79, 60
9, 131147, Note_off_c, 0, 79, 64
9, 131152, Note_on_c, 0, 77, 52
9, 131204, Note_off_c, 0, 77, 64
9, 131206, Note_on_c, 0, 79, 59
9, 131253, Note_off_c, 0, 79, 64
9, 131268, Note_on_c, 0, 81, 80
9, 131324, Note_on_c, 0, 79, 64
9, 131333, Note_off_c, 0, 81, 64
9, 131381, Note_off_c, 0, 79, 64
9, 131385, Note_on_c, 0, 77, 56
9, 131442, Note_on_c, 0, 76, 57
9, 131444, Note_off_c, 0, 77, 64
9, 131496, Note_off_c, 0, 76, 64
9, 131507, Note_on_c, 0, 74, 64
9, 131563, Note_on_c, 0, 77, 59
9, 131568, Note_off_c, 0, 74, 64
9, 131628, Note_off_c, 0, 77, 64
9, 131633, Note_on_c, 0, 76, 44
9, 131688, Note_off_c, 0, 76, 64
9, 131688, Note_on_c, 0, 77, 59
9, 131736, Note_off_c, 0, 77, 64
9, 131753, Note_on_c, 0, 79, 82
9, 131808, Note_on_c, 0, 77, 64
9, 131813, Note_off_c, 0, 79, 64
9, 131871, Note_off_c, 0, 77, 64
9, 131872, Note_on_c, 0, 76, 58
9, 131930, Note_off_c, 0, 76, 64
9, 131930, Note_on_c, 0, 74, 54
9, 131978, Note_off_c, 0, 74, 64
9, 131987, Note_on_c, 0, 72, 66
9, 132041, Note_off_c, 0, 72, 64
9, 132042, Note_on_c, 0, 76, 60
9, 132105, Note_off_c, 0, 76, 64
9, 132109, Note_on_c, 0, 74, 39
9, 132165, Note_on_c, 0, 76, 57
9, 132168, Note_off_c, 0, 74, 64
9, 132209, Note_off_c, 0, 76, 64
9, 132227, Note_on_c, 0, 77, 74
9, 132283, Note_on_c, 0, 76, 60
9, 132288, Note_off_c, 0, 77, 64
9, 132347, Note_off_c, 0, 76, 64
9, 132347, Note_on_c, 0, 74, 58
9, 132406, Note_off_c, 0, 74, 64
9, 132407, Note_on_c, 0, 72, 57
9, 132460, Note_off_c, 0, 72, 64
9, 132468, Note_on_c, 0, 71, 59
9, 132528, Note_off_c, 0, 71, 64
9, 132528, Note_on_c, 0, 74, 60
9, 132590, Note_on_c, 0, 72, 42
9, 132591, Note_off_c, 0, 74, 64
9, 132647, Note_on_c, 0, 74, 60
9, 132653, Note_off_c, 0, 72, 64
9, 132695, Note_off_c, 0, 74, 64
9, 132706, Note_on_c, 0, 76, 72
9, 132760, Note_on_c, 0, 74, 60
9, 132767, Note_off_c, 0, 76, 64
9, 132819, Note_on_c, 0, 72, 58
9, 132823, Note_off_c, 0, 74, 64
9, 132875, Note_off_c, 0, 72, 64
9, 132879, Note_on_c, 0, 71, 43
9, 132928, Note_off_c, 0, 71, 64
9, 132937, Note_on_c, 0, 69, 58
9, 132991, Note_on_c, 0, 72, 55
9, 132995, Note_off_c, 0, 69, 64
9, 133057, Note_off_c, 0, 72, 64
9, 133059, Note_on_c, 0, 71, 39
9, 133117, Note_on_c, 0, 72, 57
9, 133128, Note_off_c, 0, 71, 64
9, 133158, Note_off_c, 0, 72, 64
9, 133177, Note_on_c, 0, 74, 64
9, 133235, Note_on_c, 0, 72, 64
9, 133246, Note_off_c, 0, 74, 64
9, 133295, Note_on_c, 0, 71, 57
9, 133308, Note_off_c, 0, 72, 64
9, 133355, Note_on_c, 0, 69, 60
9, 133356, Note_off_c, 0, 71, 64
9, 133417, Note_off_c, 0, 69, 64
9, 133420, Note_on_c, 0, 71, 64
9, 133456, Note_off_c, 0, 71, 64
9, 133545, Note_on_c, 0, 79, 64
9, 133576, Note_off_c, 0, 79, 64
9, 133669, Note_on_c, 0, 79, 85
9, 133704, Note_off_c, 0, 79, 64
9, 133791, Note_on_c, 0, 79, 82
9, 133830, Note_off_c, 0, 79, 64
9, 133914, Note_on_c, 0, 76, 80
9, 134032, Note_off_c, 0, 76, 64
9, 134038, Note_on_c, 0, 77, 74
9, 134091, Note_off_c, 0, 77, 64
9, 134091, Note_on_c, 0, 79, 76
9, 134134, Note_off_c, 0, 79, 64
9, 134150, Note_on_c, 0, 81, 85
9, 134185, Note_off_c, 0, 81, 64
9, 134268, Note_on_c, 0, 77, 85
9, 134306, Note_off_c, 0, 77, 64
9, 134394, Note_on_c, 0, 74, 78
9, 134431, Note_off_c, 0, 74, 64
9, 134510, Note_on_c, 0, 79, 82
9, 134544, Note_off_c, 0, 79, 64
9, 134627, Note_on_c, 0, 67, 80
9, 134676, Note_off_c, 0, 67, 64
9, 134748, Note_on_c, 0, 77, 82
9, 134788, Note_off_c, 0, 77, 64
9, 134867, Note_on_c, 0, 76, 78
9, 134996, Note_off_c, 0, 76, 64
9, 135047, Note_on_c, 0, 74, 63
9, 135075, Note_off_c, 0, 74, 64
9, 135110, Note_on_c, 0, 76, 74
9, 135132, Note_on_c, 0, 74, 63
9, 135138, Note_off_c, 0, 76, 64
9, 135160, Note_on_c, 0, 76, 64
9, 135166, Note_off_c, 0, 74, 64
9, 135185, Note_on_c, 0, 74, 66
9, 135199, Note_off_c, 0, 76, 64
9, 135237, Note_off_c, 0, 74, 64
9, 135276, Note_on_c, 0, 72, 64
9, 135305, Note_off_c, 0, 72, 64
9, 135350, Note_on_c, 0, 72, 78
9, 135494, Note_off_c, 0, 72, 64
9, 140276, Note_on_c, 0, 76, 68
9, 140303, Note_off_c, 0, 76, 64
9, 140396, Note_on_c, 0, 76, 74
9, 140431, Note_off_c, 0, 76, 64
9, 140514, Note_on_c, 0, 76, 85
9, 140556, Note_off_c, 0, 76, 64
9, 140635, Note_on_c, 0, 72, 76
9, 140751, Note_off_c, 0, 72, 64
9, 140761, Note_on_c, 0, 74, 74
9, 140807, Note_off_c, 0, 74, 64
9, 140815, Note_on_c, 0, 76, 64
9, 140853, Note_off_c, 0, 76, 64
9, 140870, Note_on_c, 0, 77, 85
9, 140916, Note_off_c, 0, 77, 64
9, 140987, Note_on_c, 0, 74, 80
9, 141023, Note_off_c, 0, 74, 64
9, 141109, Note_on_c, 0, 71, 78
9, 141152, Note_off_c, 0, 71, 64
9, 141229, Note_on_c, 0, 76, 76
9, 141268, Note_off_c, 0, 76, 64
9, 141344, Note_on_c, 0, 64, 68
9, 141397, Note_off_c, 0, 64, 64
9, 141471, Note_on_c, 0, 76, 87
9, 141509, Note_off_c, 0, 76, 64
9, 141586, Note_on_c, 0, 69, 85
9, 141702, Note_off_c, 0, 69, 64
9, 141713, Note_on_c, 0, 71, 76
9, 141757, Note_on_c, 0, 72, 78
9, 141760, Note_off_c, 0, 71, 64
9, 141800, Note_off_c, 0, 72, 64
9, 141828, Note_on_c, 0, 74, 70
9, 142096, Note_off_c, 0, 74, 64
9, 142130, Note_on_c, 0, 77, 78
9, 142184, Note_off_c, 0, 77, 64
9, 142192, Note_on_c, 0, 76, 60
9, 142251, Note_off_c, 0, 76, 64
9, 142251, Note_on_c, 0, 74, 60
9, 142303, Note_off_c, 0, 74, 64
9, 142308, Note_on_c, 0, 72, 66
9, 142359, Note_off_c, 0, 72, 64
9, 142362, Note_on_c, 0, 71, 59
9, 142402, Note_off_c, 0, 71, 64
9, 142415, Note_on_c, 0, 72, 57
9, 142457, Note_off_c, 0, 72, 64
9, 142472, Note_on_c, 0, 69, 74
9, 142497, Note_off_c, 0, 69, 64
9, 142542, Note_on_c, 0, 81, 78
9, 142677, Note_off_c, 0, 81, 64
9, 142715, Note_on_c, 0, 83, 61
9, 142741, Note_off_c, 0, 83, 64
9, 142781, Note_on_c, 0, 81, 85
9, 142810, Note_on_c, 0, 80, 64
9, 142811, Note_off_c, 0, 81, 64
9, 142838, Note_on_c, 0, 81, 66
9, 142843, Note_off_c, 0, 80, 64
9, 142867, Note_on_c, 0, 80, 70
9, 142882, Note_off_c, 0, 81, 64
9, 142918, Note_off_c, 0, 80, 64
9, 142964, Note_on_c, 0, 81, 72
9, 142993, Note_off_c, 0, 81, 64
9, 143027, Note_on_c, 0, 81, 82
9, 143081, Note_on_c, 0, 83, 74
9, 143083, Note_off_c, 0, 81, 64
9, 143135, Note_off_c, 0, 83, 64
9, 143144, Note_on_c, 0, 84, 62
9, 143186, Note_off_c, 0, 84, 64
9, 143198, Note_on_c, 0, 83, 68
9, 143237, Note_off_c, 0, 83, 64
9, 143262, Note_on_c, 0, 81, 74
9, 143314, Note_off_c, 0, 81, 64
9, 143315, Note_on_c, 0, 79, 68
9, 143354, Note_off_c, 0, 79, 64
9, 143377, Note_on_c, 0, 81, 66
9, 143420, Note_off_c, 0, 81, 64
9, 143432, Note_on_c, 0, 78, 70
9, 143467, Note_off_c, 0, 78, 64
9, 143498, Note_on_c, 0, 83, 66
9, 143552, Note_off_c, 0, 83, 64
9, 143621, Note_on_c, 0, 71, 82
9, 143675, Note_off_c, 0, 71, 64
9, 143751, Note_on_c, 0, 76, 82
9, 143880, Note_off_c, 0, 76, 64
9, 143929, Note_on_c, 0, 76, 72
9, 143957, Note_off_c, 0, 76, 64
9, 143993, Note_on_c, 0, 76, 80
9, 144041, Note_off_c, 0, 76, 64
9, 144049, Note_on_c, 0, 79, 70
9, 144100, Note_off_c, 0, 79, 64
9, 144108, Note_on_c, 0, 78, 59
9, 144158, Note_off_c, 0, 78, 64
9, 144158, Note_on_c, 0, 76, 60
9, 144199, Note_off_c, 0, 76, 64
9, 144219, Note_on_c, 0, 75, 78
9, 144268, Note_on_c, 0, 73, 52
9, 144270, Note_off_c, 0, 75, 64
9, 144322, Note_off_c, 0, 73, 64
9, 144327, Note_on_c, 0, 75, 62
9, 144369, Note_off_c, 0, 75, 64
9, 144384, Note_on_c, 0, 71, 57
9, 144424, Note_off_c, 0, 71, 64
9, 144455, Note_on_c, 0, 83, 76
9, 144521, Note_on_c, 0, 81, 64
9, 144524, Note_off_c, 0, 83, 64
9, 144564, Note_off_c, 0, 81, 64
9, 144575, Note_on_c, 0, 79, 60
9, 144627, Note_off_c, 0, 79, 64
9, 144630, Note_on_c, 0, 78, 57
9, 144689, Note_off_c, 0, 78, 64
9, 144697, Note_on_c, 0, 76, 52
9, 144749, Note_on_c, 0, 74, 57
9, 144750, Note_off_c, 0, 76, 64
9, 144817, Note_off_c, 0, 74, 64
9, 144820, Note_on_c, 0, 72, 49
9, 144867, Note_off_c, 0, 72, 64
9, 144877, Note_on_c, 0, 71, 64
9, 144912, Note_off_c, 0, 71, 64
9, 144947, Note_on_c, 0, 69, 80
9, 145007, Note_off_c, 0, 69, 64
9, 145007, Note_on_c, 0, 72, 78
9, 145058, Note_off_c, 0, 72, 64
9, 145069, Note_on_c, 0, 74, 70
9, 145120, Note_off_c, 0, 74, 64
9, 145123, Note_on_c, 0, 76, 66
9, 145164, Note_off_c, 0, 76, 64
9, 145187, Note_on_c, 0, 74, 76
9, 145244, Note_on_c, 0, 72, 60
9, 145249, Note_off_c, 0, 74, 64
9, 145302, Note_off_c, 0, 72, 64
9, 145304, Note_on_c, 0, 71, 56
9, 145351, Note_off_c, 0, 71, 64
9, 145366, Note_on_c, 0, 69, 53
9, 145399, Note_off_c, 0, 69, 64
9, 145427, Note_on_c, 0, 74, 85
9, 145549, Note_off_c, 0, 74, 64
9, 145603, Note_on_c, 0, 76, 72
9, 145633, Note_off_c, 0, 76, 64
9, 145668, Note_on_c, 0, 74, 87
9, 145695, Note_on_c, 0, 72, 80
9, 145700, Note_off_c, 0, 74, 64
9, 145724, Note_on_c, 0, 74, 66
9, 145727, Note_off_c, 0, 72, 64
9, 145748, Note_on_c, 0, 72, 80
9, 145761, Note_off_c, 0, 74, 64
9, 145791, Note_off_c, 0, 72, 64
9, 145851, Note_on_c, 0, 71, 70
9, 145884, Note_off_c, 0, 71, 64
9, 145912, Note_on_c, 0, 72, 82
9, 146019, Note_off_c, 0, 72, 64
9, 146083, Note_on_c, 0, 74, 70
9, 146105, Note_off_c, 0, 74, 64
9, 146145, Note_on_c, 0, 72, 78
9, 146169, Note_on_c, 0, 71, 72
9, 146176, Note_off_c, 0, 72, 64
9, 146196, Note_on_c, 0, 72, 59
9, 146199, Note_off_c, 0, 71, 64
9, 146222, Note_on_c, 0, 71, 66
9, 146232, Note_off_c, 0, 72, 64
9, 146279, Note_off_c, 0, 71, 64
9, 146314, Note_on_c, 0, 69, 70
9, 146348, Note_off_c, 0, 69, 64
9, 146378, Note_on_c, 0, 69, 70
9, 146436, Note_on_c, 0, 76, 74
9, 146444, Note_off_c, 0, 69, 64
9, 146487, Note_off_c, 0, 76, 64
9, 146495, Note_on_c, 0, 78, 60
9, 146539, Note_off_c, 0, 78, 64
9, 146544, Note_on_c, 0, 80, 64
9, 146587, Note_off_c, 0, 80, 64
9, 146620, Note_on_c, 0, 81, 85
9, 146879, Note_off_c, 0, 81, 64
9, 146924, Note_on_c, 0, 84, 78
9, 146979, Note_off_c, 0, 84, 64
9, 146983, Note_on_c, 0, 83, 70
9, 147029, Note_off_c, 0, 83, 64
9, 147039, Note_on_c, 0, 81, 64
9, 147086, Note_off_c, 0, 81, 64
9, 147102, Note_on_c, 0, 80, 66
9, 147146, Note_off_c, 0, 80, 64
9, 147156, Note_on_c, 0, 81, 74
9, 147203, Note_off_c, 0, 81, 64
9, 147217, Note_on_c, 0, 83, 66
9, 147260, Note_off_c, 0, 83, 64
9, 147273, Note_on_c, 0, 80, 47
9, 147323, Note_off_c, 0, 80, 64
9, 147348, Note_on_c, 0, 76, 57
9, 147392, Note_off_c, 0, 76, 64
9, 147477, Note_on_c, 0, 76, 87
9, 147513, Note_off_c, 0, 76, 64
9, 147599, Note_on_c, 0, 76, 85
9, 147639, Note_off_c, 0, 76, 64
9, 147720, Note_on_c, 0, 76, 82
9, 147763, Note_off_c, 0, 76, 64
9, 147838, Note_on_c, 0, 72, 80
9, 147945, Note_off_c, 0, 72, 64
9, 147958, Note_on_c, 0, 74, 72
9, 148002, Note_off_c, 0, 74, 64
9, 148008, Note_on_c, 0, 76, 68
9, 148049, Note_off_c, 0, 76, 64
9, 148067, Note_on_c, 0, 77, 78
9, 148110, Note_off_c, 0, 77, 64
9, 148192, Note_on_c, 0, 74, 78
9, 148231, Note_off_c, 0, 74, 64
9, 148302, Note_on_c, 0, 71, 78
9, 148352, Note_off_c, 0, 71, 64
9, 148421, Note_on_c, 0, 76, 85
9, 148458, Note_off_c, 0, 76, 64
9, 148542, Note_on_c, 0, 64, 72
9, 148589, Note_off_c, 0, 64, 64
9, 148667, Note_on_c, 0, 74, 82
9, 148706, Note_off_c, 0, 74, 64
9, 148783, Note_on_c, 0, 72, 74
9, 148920, Note_off_c, 0, 72, 64
9, 148966, Note_on_c, 0, 71, 62
9, 148994, Note_off_c, 0, 71, 64
9, 149028, Note_on_c, 0, 72, 80
9, 149054, Note_on_c, 0, 71, 62
9, 149062, Note_off_c, 0, 72, 64
9, 149078, Note_on_c, 0, 72, 64
9, 149088, Note_off_c, 0, 71, 64
9, 149103, Note_on_c, 0, 71, 51
9, 149116, Note_off_c, 0, 72, 64
9, 149165, Note_off_c, 0, 71, 64
9, 149199, Note_on_c, 0, 69, 76
9, 149231, Note_off_c, 0, 69, 64
9, 149273, Note_on_c, 0, 69, 89
9, 149377, Note_off_c, 0, 69, 64
9, 166193, Note_on_c, 0, 71, 80
9, 166226, Note_off_c, 0, 71, 64
9, 166308, Note_on_c, 0, 71, 85
9, 166344, Note_off_c, 0, 71, 64
9, 166433, Note_on_c, 0, 71, 85
9, 166467, Note_off_c, 0, 71, 64
9, 166552, Note_on_c, 0, 67, 82
9, 166663, Note_off_c, 0, 67, 64
9, 166677, Note_on_c, 0, 69, 82
9, 166722, Note_off_c, 0, 69, 64
9, 166729, Note_on_c, 0, 71, 82
9, 166772, Note_off_c, 0, 71, 64
9, 166786, Note_on_c, 0, 72, 68
9, 166828, Note_off_c, 0, 72, 64
9, 166908, Note_on_c, 0, 69, 78
9, 166948, Note_off_c, 0, 69, 64
9, 167028, Note_on_c, 0, 66, 68
9, 167080, Note_off_c, 0, 66, 64
9, 167147, Note_on_c, 0, 71, 82
9, 167190, Note_off_c, 0, 71, 64
9, 167277, Note_on_c, 0, 59, 80
9, 167320, Note_off_c, 0, 59, 64
9, 167395, Note_on_c, 0, 71, 80
9, 167432, Note_off_c, 0, 71, 64
9, 167518, Note_on_c, 0, 71, 64
9, 167768, Note_off_c, 0, 71, 64
9, 170448, Note_on_c, 0, 72, 72
9, 170492, Note_off_c, 0, 72, 64
9, 170507, Note_on_c, 0, 71, 72
9, 170549, Note_off_c, 0, 71, 64
9, 170566, Note_on_c, 0, 69, 64
9, 170616, Note_off_c, 0, 69, 64
9, 170622, Note_on_c, 0, 67, 62
9, 170682, Note_on_c, 0, 66, 80
9, 170688, Note_off_c, 0, 67, 64
9, 170736, Note_off_c, 0, 66, 64
9, 170737, Note_on_c, 0, 67, 66
9, 170784, Note_off_c, 0, 67, 64
9, 170800, Note_on_c, 0, 64, 59
9, 170839, Note_off_c, 0, 64, 64
9, 170868, Note_on_c, 0, 72, 80
9, 170924, Note_on_c, 0, 71, 72
9, 170925, Note_off_c, 0, 72, 64
9, 170972, Note_off_c, 0, 71, 64
9, 170985, Note_on_c, 0, 69, 76
9, 171028, Note_off_c, 0, 69, 64
9, 171040, Note_on_c, 0, 67, 68
9, 171092, Note_off_c, 0, 67, 64
9, 171112, Note_on_c, 0, 66, 72
9, 171154, Note_off_c, 0, 66, 64
9, 171227, Note_on_c, 0, 71, 80
9, 171264, Note_off_c, 0, 71, 64
9, 171352, Note_on_c, 0, 64, 60
9, 171584, Note_off_c, 0, 64, 64
9, 172428, Note_on_c, 0, 76, 66
9, 172464, Note_off_c, 0, 76, 64
9, 172544, Note_on_c, 0, 76, 66
9, 172585, Note_off_c, 0, 76, 64
9, 172665, Note_on_c, 0, 76, 76
9, 172708, Note_off_c, 0, 76, 64
9, 172788, Note_on_c, 0, 72, 74
9, 172904, Note_off_c, 0, 72, 64
9, 172918, Note_on_c, 0, 74, 85
9, 172970, Note_off_c, 0, 74, 64
9, 172972, Note_on_c, 0, 76, 72
9, 173018, Note_off_c, 0, 76, 64
9, 173028, Note_on_c, 0, 77, 72
9, 173072, Note_off_c, 0, 77, 64
9, 173146, Note_on_c, 0, 74, 70
9, 173185, Note_off_c, 0, 74, 64
9, 173268, Note_on_c, 0, 71, 68
9, 173318, Note_off_c, 0, 71, 64
9, 173390, Note_on_c, 0, 74, 70
9, 173425, Note_off_c, 0, 74, 64
9, 173505, Note_on_c, 0, 64, 64
9, 173558, Note_off_c, 0, 64, 64
9, 173623, Note_on_c, 0, 74, 74
9, 173658, Note_off_c, 0, 74, 64
9, 173742, Note_on_c, 0, 72, 78
9, 173825, Note_off_c, 0, 72, 64
9, 173866, Note_on_c, 0, 81, 76
9, 173909, Note_off_c, 0, 81, 64
9, 173993, Note_on_c, 0, 81, 80
9, 174033, Note_off_c, 0, 81, 64
9, 174111, Note_on_c, 0, 81, 89
9, 174153, Note_off_c, 0, 81, 64
9, 174235, Note_on_c, 0, 78, 80
9, 174333, Note_off_c, 0, 78, 64
9, 174360, Note_on_c, 0, 74, 68
9, 174393, Note_off_c, 0, 74, 64
9, 174477, Note_on_c, 0, 74, 72
9, 174514, Note_off_c, 0, 74, 64
9, 174591, Note_on_c, 0, 74, 68
9, 174636, Note_off_c, 0, 74, 64
9, 174712, Note_on_c, 0, 70, 63
9, 174829, Note_off_c, 0, 70, 64
9, 174840, Note_on_c, 0, 72, 66
9, 174888, Note_off_c, 0, 72, 64
9, 174892, Note_on_c, 0, 74, 72
9, 174948, Note_off_c, 0, 74, 64
9, 174953, Note_on_c, 0, 75, 61
9, 174995, Note_off_c, 0, 75, 64
9, 175067, Note_on_c, 0, 72, 66
9, 175108, Note_off_c, 0, 72, 64
9, 175188, Note_on_c, 0, 69, 58
9, 175234, Note_off_c, 0, 69, 64
9, 175302, Note_on_c, 0, 72, 66
9, 175341, Note_off_c, 0, 72, 64
9, 175420, Note_on_c, 0, 62, 72
9, 175475, Note_off_c, 0, 62, 64
9, 175536, Note_on_c, 0, 72, 70
9, 175575, Note_off_c, 0, 72, 64
9, 175657, Note_on_c, 0, 70, 66
9, 175752, Note_off_c, 0, 70, 64
9, 175791, Note_on_c, 0, 79, 98
9, 175837, Note_off_c, 0, 79, 64
9, 175914, Note_on_c, 0, 79, 93
9, 175955, Note_off_c, 0, 79, 64
9, 176029, Note_on_c, 0, 79, 93
9, 176078, Note_off_c, 0, 79, 64
9, 176149, Note_on_c, 0, 76, 87
9, 176242, Note_off_c, 0, 76, 64
9, 176275, Note_on_c, 0, 72, 57
9, 176312, Note_off_c, 0, 72, 64
9, 176394, Note_on_c, 0, 72, 70
9, 176432, Note_off_c, 0, 72, 64
9, 176514, Note_on_c, 0, 72, 72
9, 176556, Note_off_c, 0, 72, 64
9, 176635, Note_on_c, 0, 69, 82
9, 176736, Note_off_c, 0, 69, 64
9, 176759, Note_on_c, 0, 70, 60
9, 176805, Note_off_c, 0, 70, 64
9, 176809, Note_on_c, 0, 72, 64
9, 176845, Note_off_c, 0, 72, 64
9, 176871, Note_on_c, 0, 74, 70
9, 176912, Note_off_c, 0, 74, 64
9, 176991, Note_on_c, 0, 70, 61
9, 177029, Note_off_c, 0, 70, 64
9, 177111, Note_on_c, 0, 67, 74
9, 177157, Note_off_c, 0, 67, 64
9, 177235, Note_on_c, 0, 70, 68
9, 177272, Note_off_c, 0, 70, 64
9, 177359, Note_on_c, 0, 60, 80
9, 177405, Note_off_c, 0, 60, 64
9, 177468, Note_on_c, 0, 70, 66
9, 177520, Note_off_c, 0, 70, 64
9, 177592, Note_on_c, 0, 69, 80
9, 177642, Note_off_c, 0, 69, 64
9, 177642, Note_on_c, 0, 67, 70
9, 177694, Note_off_c, 0, 67, 64
9, 177701, Note_on_c, 0, 65, 72
9, 177756, Note_on_c, 0, 67, 64
9, 177765, Note_off_c, 0, 65, 64
9, 177811, Note_off_c, 0, 67, 64
9, 177818, Note_on_c, 0, 69, 85
9, 177863, Note_off_c, 0, 69, 64
9, 177871, Note_on_c, 0, 67, 74
9, 177926, Note_off_c, 0, 67, 64
9, 177935, Note_on_c, 0, 69, 72
9, 177982, Note_off_c, 0, 69, 64
9, 177991, Note_on_c, 0, 71, 80
9, 178032, Note_off_c, 0, 71, 64
9, 178061, Note_on_c, 0, 72, 80
9, 178171, Note_off_c, 0, 72, 64
9, 178247, Note_on_c, 0, 67, 68
9, 178276, Note_off_c, 0, 67, 64
9, 178314, Note_on_c, 0, 72, 87
9, 178426, Note_off_c, 0, 72, 64
9, 178492, Note_on_c, 0, 72, 85
9, 178521, Note_off_c, 0, 72, 64
9, 178548, Note_on_c, 0, 72, 100
9, 178652, Note_off_c, 0, 72, 64
9, 178716, Note_on_c, 0, 71, 63
9, 178742, Note_on_c, 0, 69, 74
9, 178749, Note_off_c, 0, 71, 64
9, 178772, Note_on_c, 0, 71, 63
9, 178782, Note_off_c, 0, 69, 64
9, 178799, Note_on_c, 0, 72, 82
9, 178800, Note_off_c, 0, 71, 64
9, 178823, Note_on_c, 0, 71, 82
9, 178831, Note_off_c, 0, 72, 64
9, 178847, Note_on_c, 0, 72, 85
9, 178856, Note_off_c, 0, 71, 64
9, 178866, Note_on_c, 0, 71, 62
9, 178884, Note_off_c, 0, 72, 64
9, 178920, Note_off_c, 0, 71, 64
9, 178965, Note_on_c, 0, 72, 82
9, 178992, Note_off_c, 0, 72, 64
9, 179034, Note_on_c, 0, 72, 89
9, 179266, Note_off_c, 0, 72, 64
9, 195406, Note_on_c, 0, 59, 82
9, 195464, Note_off_c, 0, 59, 64
9, 195468, Note_on_c, 0, 60, 66
9, 195521, Note_off_c, 0, 60, 64
9, 195526, Note_on_c, 0, 62, 70
9, 195576, Note_off_c, 0, 62, 64
9, 195589, Note_on_c, 0, 64, 80
9, 195632, Note_off_c, 0, 64, 64
9, 195638, Note_on_c, 0, 62, 64
9, 195705, Note_on_c, 0, 64, 66
9, 195709, Note_off_c, 0, 62, 64
9, 195769, Note_off_c, 0, 64, 64
9, 195769, Note_on_c, 0, 65, 72
9, 195820, Note_off_c, 0, 65, 64
9, 195834, Note_on_c, 0, 67, 74
9, 195893, Note_on_c, 0, 70, 68
9, 195894, Note_off_c, 0, 67, 64
9, 195950, Note_on_c, 0, 69, 68
9, 195952, Note_off_c, 0, 70, 64
9, 196008, Note_off_c, 0, 69, 64
9, 196009, Note_on_c, 0, 67, 63
9, 196065, Note_off_c, 0, 67, 64
9, 196071, Note_on_c, 0, 65, 66
9, 196120, Note_off_c, 0, 65, 64
9, 196126, Note_on_c, 0, 64, 60
9, 196177, Note_off_c, 0, 64, 64
9, 196185, Note_on_c, 0, 65, 68
9, 196237, Note_off_c, 0, 65, 64
9, 196238, Note_on_c, 0, 62, 76
9, 196289, Note_off_c, 0, 62, 64
9, 196303, Note_on_c, 0, 67, 87
9, 196352, Note_off_c, 0, 67, 64
9, 196360, Note_on_c, 0, 65, 85
9, 196409, Note_off_c, 0, 65, 64
9, 196420, Note_on_c, 0, 67, 78
9, 196473, Note_off_c, 0, 67, 64
9, 196486, Note_on_c, 0, 69, 74
9, 196532, Note_off_c, 0, 69, 64
9, 196546, Note_on_c, 0, 67, 76
9, 196591, Note_off_c, 0, 67, 64
9, 196606, Note_on_c, 0, 65, 68
9, 196650, Note_off_c, 0, 65, 64
9, 196665, Note_on_c, 0, 64, 70
9, 196716, Note_off_c, 0, 64, 64
9, 196722, Note_on_c, 0, 62, 78
9, 196760, Note_off_c, 0, 62, 64
9, 196789, Note_on_c, 0, 60, 89
9, 196849, Note_off_c, 0, 60, 64
9, 196865, Note_on_c, 0, 76, 66
9, 196914, Note_off_c, 0, 76, 64
9, 196920, Note_on_c, 0, 77, 68
9, 196971, Note_off_c, 0, 77, 64
9, 196972, Note_on_c, 0, 79, 80
9, 197015, Note_off_c, 0, 79, 64
9, 197034, Note_on_c, 0, 81, 95
9, 197092, Note_off_c, 0, 81, 64
9, 197092, Note_on_c, 0, 79, 80
9, 197145, Note_off_c, 0, 79, 64
9, 197154, Note_on_c, 0, 77, 68
9, 197203, Note_off_c, 0, 77, 64
9, 197208, Note_on_c, 0, 76, 68
9, 197248, Note_off_c, 0, 76, 64
9, 197268, Note_on_c, 0, 74, 68
9, 197312, Note_off_c, 0, 74, 64
9, 197322, Note_on_c, 0, 77, 66
9, 197380, Note_off_c, 0, 77, 64
9, 197382, Note_on_c, 0, 76, 62
9, 197436, Note_off_c, 0, 76, 64
9, 197438, Note_on_c, 0, 77, 82
9, 197483, Note_off_c, 0, 77, 64
9, 197501, Note_on_c, 0, 79, 91
9, 197560, Note_on_c, 0, 77, 78
9, 197562, Note_off_c, 0, 79, 64
9, 197607, Note_off_c, 0, 77, 64
9, 197623, Note_on_c, 0, 76, 72
9, 197672, Note_off_c, 0, 76, 64
9, 197681, Note_on_c, 0, 74, 66
9, 197731, Note_off_c, 0, 74, 64
9, 197742, Note_on_c, 0, 72, 80
9, 197790, Note_off_c, 0, 72, 64
9, 197796, Note_on_c, 0, 76, 66
9, 197842, Note_off_c, 0, 76, 64
9, 197859, Note_on_c, 0, 74, 78
9, 197904, Note_off_c, 0, 74, 64
9, 197914, Note_on_c, 0, 76, 85
9, 197961, Note_off_c, 0, 76, 64
9, 197980, Note_on_c, 0, 77, 82
9, 198125, Note_off_c, 0, 77, 64
9, 198162, Note_on_c, 0, 77, 91
9, 198196, Note_off_c, 0, 77, 64
9, 198229, Note_on_c, 0, 77, 98
9, 198282, Note_off_c, 0, 77, 64
9, 198282, Note_on_c, 0, 76, 78
9, 198329, Note_off_c, 0, 76, 64
9, 198341, Note_on_c, 0, 77, 82
9, 198381, Note_off_c, 0, 77, 64
9, 198397, Note_on_c, 0, 74, 74
9, 198443, Note_off_c, 0, 74, 64
9, 198464, Note_on_c, 0, 76, 93
9, 198517, Note_off_c, 0, 76, 64
9, 198522, Note_on_c, 0, 79, 82
9, 198570, Note_off_c, 0, 79, 64
9, 198583, Note_on_c, 0, 77, 78
9, 198627, Note_off_c, 0, 77, 64
9, 198640, Note_on_c, 0, 79, 87
9, 198686, Note_off_c, 0, 79, 64
9, 198703, Note_on_c, 0, 81, 78
9, 198979, Note_off_c, 0, 81, 64
9, 199004, Note_on_c, 0, 74, 87
9, 199052, Note_off_c, 0, 74, 64
9, 199065, Note_on_c, 0, 76, 72
9, 199104, Note_off_c, 0, 76, 64
9, 199118, Note_on_c, 0, 77, 87
9, 199157, Note_off_c, 0, 77, 64
9, 199182, Note_on_c, 0, 79, 82
9, 199459, Note_off_c, 0, 79, 64
9, 199485, Note_on_c, 0, 72, 74
9, 199544, Note_off_c, 0, 72, 64
9, 199545, Note_on_c, 0, 74, 82
9, 199590, Note_off_c, 0, 74, 64
9, 199599, Note_on_c, 0, 76, 87
9, 199641, Note_off_c, 0, 76, 64
9, 199664, Note_on_c, 0, 77, 98
9, 199714, Note_off_c, 0, 77, 64
9, 199722, Note_on_c, 0, 76, 87
9, 199766, Note_off_c, 0, 76, 64
9, 199780, Note_on_c, 0, 74, 85
9, 199837, Note_off_c, 0, 74, 64
9, 199837, Note_on_c, 0, 72, 64
9, 199873, Note_off_c, 0, 72, 64
9, 199901, Note_on_c, 0, 71, 82
9, 199960, Note_on_c, 0, 74, 80
9, 199961, Note_off_c, 0, 71, 64
9, 200016, Note_off_c, 0, 74, 64
9, 200023, Note_on_c, 0, 76, 70
9, 200080, Note_on_c, 0, 77, 78
9, 200082, Note_off_c, 0, 76, 64
9, 200123, Note_off_c, 0, 77, 64
9, 200140, Note_on_c, 0, 76, 89
9, 200191, Note_off_c, 0, 76, 64
9, 200198, Note_on_c, 0, 79, 74
9, 200250, Note_off_c, 0, 79, 64
9, 200259, Note_on_c, 0, 77, 57
9, 200312, Note_off_c, 0, 77, 64
9, 200320, Note_on_c, 0, 79, 70
9, 200366, Note_off_c, 0, 79, 64
9, 200384, Note_on_c, 0, 81, 89
9, 200446, Note_on_c, 0, 79, 74
9, 200449, Note_off_c, 0, 81, 64
9, 200500, Note_off_c, 0, 79, 64
9, 200505, Note_on_c, 0, 77, 72
9, 200563, Note_off_c, 0, 77, 64
9, 200567, Note_on_c, 0, 76, 72
9, 200617, Note_off_c, 0, 76, 64
9, 200630, Note_on_c, 0, 74, 89
9, 200686, Note_on_c, 0, 77, 70
9, 200691, Note_off_c, 0, 74, 64
9, 200742, Note_off_c, 0, 77, 64
9, 200750, Note_on_c, 0, 76, 57
9, 200797, Note_off_c, 0, 76, 64
9, 200808, Note_on_c, 0, 77, 78
9, 200851, Note_off_c, 0, 77, 64
9, 200870, Note_on_c, 0, 79, 95
9, 200928, Note_off_c, 0, 79, 64
9, 200930, Note_on_c, 0, 77, 85
9, 200978, Note_off_c, 0, 77, 64
9, 200990, Note_on_c, 0, 76, 78
9, 201042, Note_off_c, 0, 76, 64
9, 201050, Note_on_c, 0, 74, 85
9, 201096, Note_off_c, 0, 74, 64
9, 201107, Note_on_c, 0, 72, 82
9, 201157, Note_off_c, 0, 72, 64
9, 201163, Note_on_c, 0, 76, 66
9, 201222, Note_off_c, 0, 76, 64
9, 201229, Note_on_c, 0, 74, 53
9, 201289, Note_off_c, 0, 74, 64
9, 201289, Note_on_c, 0, 76, 76
9, 201331, Note_off_c, 0, 76, 64
9, 201347, Note_on_c, 0, 77, 87
9, 201409, Note_on_c, 0, 76, 72
9, 201412, Note_off_c, 0, 77, 64
9, 201462, Note_off_c, 0, 76, 64
9, 201471, Note_on_c, 0, 74, 64
9, 201527, Note_off_c, 0, 74, 64
9, 201532, Note_on_c, 0, 72, 68
9, 201580, Note_off_c, 0, 72, 64
9, 201590, Note_on_c, 0, 71, 80
9, 201645, Note_off_c, 0, 71, 64
9, 201651, Note_on_c, 0, 74, 68
9, 201712, Note_off_c, 0, 74, 64
9, 201712, Note_on_c, 0, 72, 62
9, 201769, Note_off_c, 0, 72, 64
9, 201771, Note_on_c, 0, 74, 76
9, 201818, Note_off_c, 0, 74, 64
9, 201833, Note_on_c, 0, 76, 82
9, 201887, Note_on_c, 0, 74, 72
9, 201892, Note_off_c, 0, 76, 64
9, 201941, Note_off_c, 0, 74, 64
9, 201950, Note_on_c, 0, 72, 64
9, 202002, Note_off_c, 0, 72, 64
9, 202008, Note_on_c, 0, 71, 74
9, 202054, Note_off_c, 0, 71, 64
9, 202066, Note_on_c, 0, 69, 78
9, 202116, Note_off_c, 0, 69, 64
9, 202124, Note_on_c, 0, 72, 64
9, 202176, Note_off_c, 0, 72, 64
9, 202184, Note_on_c, 0, 71, 60
9, 202242, Note_on_c, 0, 72, 76
9, 202250, Note_off_c, 0, 71, 64
9, 202282, Note_off_c, 0, 72, 64
9, 202303, Note_on_c, 0, 74, 78
9, 202362, Note_on_c, 0, 72, 64
9, 202369, Note_off_c, 0, 74, 64
9, 202420, Note_off_c, 0, 72, 64
9, 202422, Note_on_c, 0, 71, 61
9, 202465, Note_off_c, 0, 71, 64
9, 202478, Note_on_c, 0, 69, 74
9, 202530, Note_off_c, 0, 69, 64
9, 202547, Note_on_c, 0, 71, 85
9, 202599, Note_off_c, 0, 71, 64
9, 202671, Note_on_c, 0, 79, 91
9, 202711, Note_off_c, 0, 79, 64
9, 202793, Note_on_c, 0, 79, 93
9, 202831, Note_off_c, 0, 79, 64
9, 202908, Note_on_c, 0, 79, 91
9, 202952, Note_off_c, 0, 79, 64
9, 203036, Note_on_c, 0, 76, 95
9, 203142, Note_off_c, 0, 76, 64
9, 203156, Note_on_c, 0, 77, 87
9, 203204, Note_off_c, 0, 77, 64
9, 203210, Note_on_c, 0, 79, 89
9, 203258, Note_off_c, 0, 79, 64
9, 203271, Note_on_c, 0, 81, 89
9, 203308, Note_off_c, 0, 81, 64
9, 203392, Note_on_c, 0, 77, 85
9, 203433, Note_off_c, 0, 77, 64
9, 203511, Note_on_c, 0, 74, 87
9, 203558, Note_off_c, 0, 74, 64
9, 203628, Note_on_c, 0, 79, 91
9, 203669, Note_off_c, 0, 79, 64
9, 203749, Note_on_c, 0, 67, 82
9, 203792, Note_off_c, 0, 67, 64
9, 203872, Note_on_c, 0, 77, 87
9, 203911, Note_off_c, 0, 77, 64
9, 203999, Note_on_c, 0, 76, 87
9, 204132, Note_off_c, 0, 76, 64
9, 204175, Note_on_c, 0, 74, 78
9, 204200, Note_off_c, 0, 74, 64
9, 204235, Note_on_c, 0, 76, 100
9, 204261, Note_on_c, 0, 74, 87
9, 204264, Note_off_c, 0, 76, 64
9, 204291, Note_on_c, 0, 76, 78
9, 204299, Note_off_c, 0, 74, 64
9, 204313, Note_on_c, 0, 74, 66
9, 204330, Note_off_c, 0, 76, 64
9, 204368, Note_off_c, 0, 74, 64
9, 204405, Note_on_c, 0, 72, 74
9, 204438, Note_off_c, 0, 72, 64
9, 204474, Note_on_c, 0, 72, 80
9, 204717, Note_off_c, 0, 72, 64
9, 218095, Note_on_c, 0, 76, 89
9, 218122, Note_on_c, 0, 74, 78
9, 218127, Note_off_c, 0, 76, 64
9, 218150, Note_off_c, 0, 74, 64
9, 218156, Note_on_c, 0, 76, 82
9, 218258, Note_off_c, 0, 76, 64
9, 218339, Note_on_c, 0, 77, 85
9, 218372, Note_off_c, 0, 77, 64
9, 218398, Note_on_c, 0, 76, 93
9, 218476, Note_on_c, 0, 74, 68
9, 218485, Note_off_c, 0, 76, 64
9, 218508, Note_off_c, 0, 74, 64
9, 218508, Note_on_c, 0, 76, 66
9, 218534, Note_on_c, 0, 74, 64
9, 218537, Note_off_c, 0, 76, 64
9, 218552, Note_off_c, 0, 74, 64
9, 218555, Note_on_c, 0, 76, 68
9, 218572, Note_on_c, 0, 74, 64
9, 218575, Note_off_c, 0, 76, 64
9, 218590, Note_off_c, 0, 74, 64
9, 218591, Note_on_c, 0, 76, 70
9, 218605, Note_on_c, 0, 74, 64
9, 218608, Note_off_c, 0, 76, 64
9, 218625, Note_on_c, 0, 76, 66
9, 218626, Note_off_c, 0, 74, 64
9, 218638, Note_on_c, 0, 74, 78
9, 218645, Note_off_c, 0, 76, 64
9, 218747, Note_off_c, 0, 74, 64
9, 218808, Note_on_c, 0, 72, 82
9, 218839, Note_off_c, 0, 72, 64
9, 218883, Note_on_c, 0, 72, 95
9, 219611, Note_off_c, 0, 72, 64
9, 219611, End_track
10, 0, Start_track
10, 0, Title_t, "Violin2"
10, 0, Program_c, 1, 40
10, 0, Control_c, 1, 7, 100
10, 16317, Note_on_c, 1, 72, 78
10, 16595, Note_off_c, 1, 72, 64
10, 16608, Note_on_c, 1, 71, 66
10, 16644, Note_off_c, 1, 71, 64
10, 16665, Note_on_c, 1, 72, 74
10, 16711, Note_off_c, 1, 72, 64
10, 16726, Note_on_c, 1, 74, 85
10, 16763, Note_off_c, 1, 74, 64
10, 16790, Note_on_c, 1, 76, 72
10, 16867, Note_off_c, 1, 76, 64
10, 16964, Note_on_c, 1, 74, 80
10, 17007, Note_off_c, 1, 74, 64
10, 17031, Note_on_c, 1, 76, 78
10, 17101, Note_off_c, 1, 76, 64
10, 17207, Note_on_c, 1, 72, 82
10, 17236, Note_off_c, 1, 72, 64
10, 17271, Note_on_c, 1, 69, 66
10, 17625, Note_off_c, 1, 69, 64
10, 17676, Note_on_c, 1, 69, 66
10, 17716, Note_off_c, 1, 69, 64
10, 17746, Note_on_c, 1, 74, 89
10, 17829, Note_off_c, 1, 74, 64
10, 17926, Note_on_c, 1, 72, 78
10, 17960, Note_off_c, 1, 72, 64
10, 17992, Note_on_c, 1, 74, 89
10, 18053, Note_off_c, 1, 74, 64
10, 18164, Note_on_c, 1, 71, 78
10, 18197, Note_off_c, 1, 71, 64
10, 18231, Note_on_c, 1, 64, 68
10, 18400, Note_off_c, 1, 64, 64
10, 18469, Note_on_c, 1, 69, 78
10, 18856, Note_off_c, 1, 69, 64
10, 18886, Note_on_c, 1, 69, 70
10, 18917, Note_off_c, 1, 69, 64
10, 18946, Note_on_c, 1, 71, 80
10, 19034, Note_off_c, 1, 71, 64
10, 19128, Note_on_c, 1, 72, 66
10, 19163, Note_off_c, 1, 72, 64
10, 19187, Note_on_c, 1, 71, 66
10, 19285, Note_off_c, 1, 71, 64
10, 19361, Note_on_c, 1, 72, 66
10, 19399, Note_off_c, 1, 72, 64
10, 19426, Note_on_c, 1, 74, 78
10, 19508, Note_off_c, 1, 74, 64
10, 19600, Note_on_c, 1, 71, 82
10, 19632, Note_off_c, 1, 71, 64
10, 19668, Note_on_c, 1, 74, 72
10, 19732, Note_on_c, 1, 72, 51
10, 19738, Note_off_c, 1, 74, 64
10, 19760, Note_off_c, 1, 72, 64
10, 19761, Note_on_c, 1, 74, 58
10, 19787, Note_on_c, 1, 72, 60
10, 19788, Note_off_c, 1, 74, 64
10, 19807, Note_off_c, 1, 72, 64
10, 19810, Note_on_c, 1, 74, 57
10, 19827, Note_off_c, 1, 74, 64
10, 19828, Note_on_c, 1, 72, 60
10, 19847, Note_off_c, 1, 72, 64
10, 19847, Note_on_c, 1, 74, 66
10, 19864, Note_on_c, 1, 72, 66
10, 19868, Note_off_c, 1, 74, 64
10, 19883, Note_off_c, 1, 72, 64
10, 19883, Note_on_c, 1, 74, 66
10, 19899, Note_on_c, 1, 72, 66
10, 19906, Note_off_c, 1, 74, 64
10, 20024, Note_off_c, 1, 72, 64
10, 20076, Note_on_c, 1, 74, 82
10, 20108, Note_off_c, 1, 74, 64
10, 20145, Note_on_c, 1, 71, 64
10, 20760, Note_off_c, 1, 71, 64
10, 20809, Note_on_c, 1, 72, 78
10, 20840, Note_off_c, 1, 72, 64
10, 20874, Note_on_c, 1, 74, 78
10, 20948, Note_off_c, 1, 74, 64
10, 21056, Note_on_c, 1, 67, 82
10, 21088, Note_off_c, 1, 67, 64
10, 21123, Note_on_c, 1, 76, 87
10, 21725, Note_off_c, 1, 76, 64
10, 21767, Note_on_c, 1, 74, 82
10, 21807, Note_off_c, 1, 74, 64
10, 21830, Note_on_c, 1, 76, 78
10, 21905, Note_off_c, 1, 76, 64
10, 22005, Note_on_c, 1, 78, 78
10, 22042, Note_off_c, 1, 78, 64
10, 22078, Note_on_c, 1, 71, 78
10, 22666, Note_off_c, 1, 71, 64
10, 22726, Note_on_c, 1, 71, 66
10, 22763, Note_off_c, 1, 71, 64
10, 22798, Note_on_c, 1, 76, 89
10, 22869, Note_off_c, 1, 76, 64
10, 22973, Note_on_c, 1, 74, 80
10, 23008, Note_off_c, 1, 74, 64
10, 23038, Note_on_c, 1, 76, 76
10, 23625, Note_off_c, 1, 76, 64
10, 23684, Note_on_c, 1, 74, 70
10, 23720, Note_off_c, 1, 74, 64
10, 23748, Note_on_c, 1, 76, 82
10, 23820, Note_off_c, 1, 76, 64
10, 23921, Note_on_c, 1, 73, 62
10, 23957, Note_off_c, 1, 73, 64
10, 23991, Note_on_c, 1, 74, 68
10, 24337, Note_off_c, 1, 74, 64
10, 24406, Note_on_c, 1, 66, 68
10, 24442, Note_off_c, 1, 66, 64
10, 24472, Note_on_c, 1, 67, 70
10, 24586, Note_off_c, 1, 67, 64
10, 24636, Note_on_c, 1, 69, 59
10, 24658, Note_on_c, 1, 67, 66
10, 24665, Note_off_c, 1, 69, 64
10, 24687, Note_on_c, 1, 69, 62
10, 24691, Note_off_c, 1, 67, 64
10, 24716, Note_on_c, 1, 71, 62
10, 24717, Note_off_c, 1, 69, 64
10, 24742, Note_on_c, 1, 69, 60
10, 24749, Note_off_c, 1, 71, 64
10, 24762, Note_off_c, 1, 69, 64
10, 24765, Note_on_c, 1, 71, 66
10, 24784, Note_on_c, 1, 69, 57
10, 24787, Note_off_c, 1, 71, 64
10, 24802, Note_off_c, 1, 69, 64
10, 24805, Note_on_c, 1, 71, 68
10, 24819, Note_on_c, 1, 69, 60
10, 24821, Note_off_c, 1, 71, 64
10, 24834, Note_off_c, 1, 69, 64
10, 24836, Note_on_c, 1, 71, 70
10, 24857, Note_on_c, 1, 69, 53
10, 24866, Note_off_c, 1, 71, 64
10, 24880, Note_on_c, 1, 67, 58
10, 24887, Note_off_c, 1, 69, 64
10, 24906, Note_on_c, 1, 69, 66
10, 24921, Note_off_c, 1, 67, 64
10, 24941, Note_off_c, 1, 69, 64
10, 24947, Note_on_c, 1, 71, 80
10, 25305, Note_off_c, 1, 71, 64
10, 25363, Note_on_c, 1, 74, 87
10, 25397, Note_off_c, 1, 74, 64
10, 25431, Note_on_c, 1, 62, 80
10, 25788, Note_off_c, 1, 62, 64
10, 25855, Note_on_c, 1, 62, 85
10, 25891, Note_off_c, 1, 62, 64
10, 25917, Note_on_c, 1, 62, 87
10, 26001, Note_off_c, 1, 62, 64
10, 26092, Note_on_c, 1, 55, 72
10, 26132, Note_off_c, 1, 55, 64
10, 26162, Note_on_c, 1, 60, 91
10, 26236, Note_off_c, 1, 60, 64
10, 26333, Note_on_c, 1, 62, 72
10, 26370, Note_off_c, 1, 62, 64
10, 26400, Note_on_c, 1, 64, 82
10, 26477, Note_off_c, 1, 64, 64
10, 26576, Note_on_c, 1, 62, 82
10, 26613, Note_off_c, 1, 62, 64
10, 26639, Note_on_c, 1, 60, 85
10, 26713, Note_off_c, 1, 60, 64
10, 26817, Note_on_c, 1, 59, 80
10, 26852, Note_off_c, 1, 59, 64
10, 26883, Note_on_c, 1, 60, 85
10, 27021, Note_off_c, 1, 60, 64
10, 27112, Note_on_c, 1, 64, 80
10, 27245, Note_off_c, 1, 64, 64
10, 27352, Note_on_c, 1, 69, 82
10, 27620, Note_off_c, 1, 69, 64
10, 27769, Note_on_c, 1, 66, 72
10, 27814, Note_off_c, 1, 66, 64
10, 27832, Note_on_c, 1, 67, 82
10, 27953, Note_off_c, 1, 67, 64
10, 27999, Note_on_c, 1, 66, 58
10, 28040, Note_off_c, 1, 66, 64
10, 28063, Note_on_c, 1, 67, 70
10, 28161, Note_off_c, 1, 67, 64
10, 28243, Note_on_c, 1, 69, 74
10, 28282, Note_off_c, 1, 69, 64
10, 28310, Note_on_c, 1, 71, 85
10, 28400, Note_off_c, 1, 71, 64
10, 28481, Note_on_c, 1, 72, 80
10, 28516, Note_off_c, 1, 72, 64
10, 28545, Note_on_c, 1, 71, 82
10, 28636, Note_off_c, 1, 71, 64
10, 28728, Note_on_c, 1, 69, 70
10, 28762, Note_off_c, 1, 69, 64
10, 28788, Note_on_c, 1, 67, 72
10, 28896, Note_off_c, 1, 67, 64
10, 28971, Note_on_c, 1, 67, 70
10, 29014, Note_off_c, 1, 67, 64
10, 29039, Note_on_c, 1, 69, 87
10, 29122, Note_off_c, 1, 69, 64
10, 29198, Note_on_c, 1, 71, 78
10, 29237, Note_off_c, 1, 71, 64
10, 29261, Note_on_c, 1, 72, 80
10, 29349, Note_off_c, 1, 72, 64
10, 29436, Note_on_c, 1, 74, 80
10, 29478, Note_off_c, 1, 74, 64
10, 29503, Note_on_c, 1, 72, 80
10, 29583, Note_off_c, 1, 72, 64
10, 29683, Note_on_c, 1, 71, 80
10, 29714, Note_off_c, 1, 71, 64
10, 29751, Note_on_c, 1, 69, 87
10, 29834, Note_off_c, 1, 69, 64
10, 29933, Note_on_c, 1, 62, 82
10, 29978, Note_off_c, 1, 62, 64
10, 29985, Note_on_c, 1, 67, 82
10, 30068, Note_off_c, 1, 67, 64
10, 30162, Note_on_c, 1, 69, 80
10, 30194, Note_off_c, 1, 69, 64
10, 30234, Note_on_c, 1, 67, 89
10, 30295, Note_on_c, 1, 66, 64
10, 30301, Note_off_c, 1, 67, 64
10, 30323, Note_off_c, 1, 66, 64
10, 30325, Note_on_c, 1, 67, 61
10, 30349, Note_on_c, 1, 66, 63
10, 30352, Note_off_c, 1, 67, 64
10, 30366, Note_off_c, 1, 66, 64
10, 30367, Note_on_c, 1, 67, 61
10, 30387, Note_on_c, 1, 66, 80
10, 30389, Note_off_c, 1, 67, 64
10, 30406, Note_on_c, 1, 67, 68
10, 30407, Note_off_c, 1, 66, 64
10, 30422, Note_on_c, 1, 66, 70
10, 30427, Note_off_c, 1, 67, 64
10, 30444, Note_on_c, 1, 67, 76
10, 30447, Note_off_c, 1, 66, 64
10, 30464, Note_on_c, 1, 66, 80
10, 30472, Note_off_c, 1, 67, 64
10, 30578, Note_off_c, 1, 66, 64
10, 30641, Note_on_c, 1, 67, 85
10, 30680, Note_off_c, 1, 67, 64
10, 30717, Note_on_c, 1, 62, 76
10, 30848, Note_off_c, 1, 62, 64
10, 55318, Note_on_c, 1, 69, 82
10, 55357, Note_off_c, 1, 69, 64
10, 55438, Note_on_c, 1, 69, 80
10, 55478, Note_off_c, 1, 69, 64
10, 55560, Note_on_c, 1, 69, 76
10, 55595, Note_off_c, 1, 69, 64
10, 55678, Note_on_c, 1, 67, 68
10, 55785, Note_off_c, 1, 67, 64
10, 55803, Note_on_c, 1, 69, 78
10, 55840, Note_off_c, 1, 69, 64
10, 55858, Note_on_c, 1, 71, 72
10, 55892, Note_off_c, 1, 71, 64
10, 55914, Note_on_c, 1, 72, 80
10, 55954, Note_off_c, 1, 72, 64
10, 56029, Note_on_c, 1, 69, 70
10, 56071, Note_off_c, 1, 69, 64
10, 56156, Note_on_c, 1, 66, 64
10, 56197, Note_off_c, 1, 66, 64
10, 56273, Note_on_c, 1, 71, 72
10, 56305, Note_off_c, 1, 71, 64
10, 56391, Note_on_c, 1, 59, 72
10, 56439, Note_off_c, 1, 59, 64
10, 56509, Note_on_c, 1, 71, 68
10, 56541, Note_off_c, 1, 71, 64
10, 56631, Note_on_c, 1, 64, 66
10, 56682, Note_off_c, 1, 64, 64
10, 56752, Note_on_c, 1, 71, 87
10, 56789, Note_off_c, 1, 71, 64
10, 56872, Note_on_c, 1, 71, 100
10, 56912, Note_off_c, 1, 71, 64
10, 56994, Note_on_c, 1, 71, 102
10, 57031, Note_off_c, 1, 71, 64
10, 57114, Note_on_c, 1, 69, 105
10, 57208, Note_off_c, 1, 69, 64
10, 57244, Note_on_c, 1, 69, 80
10, 57275, Note_off_c, 1, 69, 64
10, 57357, Note_on_c, 1, 69, 68
10, 57392, Note_off_c, 1, 69, 64
10, 57472, Note_on_c, 1, 69, 63
10, 57509, Note_off_c, 1, 69, 64
10, 57590, Note_on_c, 1, 65, 68
10, 57693, Note_off_c, 1, 65, 64
10, 57724, Note_on_c, 1, 67, 61
10, 57769, Note_off_c, 1, 67, 64
10, 57777, Note_on_c, 1, 69, 61
10, 57815, Note_off_c, 1, 69, 64
10, 57834, Note_on_c, 1, 70, 62
10, 57873, Note_off_c, 1, 70, 64
10, 57954, Note_on_c, 1, 67, 70
10, 57991, Note_off_c, 1, 67, 64
10, 58076, Note_on_c, 1, 64, 66
10, 58116, Note_off_c, 1, 64, 64
10, 58187, Note_on_c, 1, 69, 76
10, 58220, Note_off_c, 1, 69, 64
10, 58304, Note_on_c, 1, 57, 63
10, 58355, Note_off_c, 1, 57, 64
10, 58419, Note_on_c, 1, 69, 74
10, 58454, Note_off_c, 1, 69, 64
10, 58545, Note_on_c, 1, 62, 82
10, 58597, Note_off_c, 1, 62, 64
10, 58668, Note_on_c, 1, 69, 93
10, 58709, Note_off_c, 1, 69, 64
10, 58788, Note_on_c, 1, 69, 102
10, 58832, Note_off_c, 1, 69, 64
10, 58914, Note_on_c, 1, 69, 100
10, 58949, Note_off_c, 1, 69, 64
10, 59032, Note_on_c, 1, 67, 102
10, 59125, Note_off_c, 1, 67, 64
10, 59157, Note_on_c, 1, 67, 60
10, 59196, Note_off_c, 1, 67, 64
10, 59276, Note_on_c, 1, 67, 78
10, 59319, Note_off_c, 1, 67, 64
10, 59394, Note_on_c, 1, 67, 78
10, 59436, Note_off_c, 1, 67, 64
10, 59508, Note_on_c, 1, 64, 80
10, 59614, Note_off_c, 1, 64, 64
10, 59631, Note_on_c, 1, 65, 70
10, 59677, Note_off_c, 1, 65, 64
10, 59683, Note_on_c, 1, 67, 72
10, 59724, Note_off_c, 1, 67, 64
10, 59743, Note_on_c, 1, 69, 74
10, 59774, Note_off_c, 1, 69, 64
10, 59857, Note_on_c, 1, 65, 74
10, 59895, Note_off_c, 1, 65, 64
10, 59976, Note_on_c, 1, 62, 72
10, 60018, Note_off_c, 1, 62, 64
10, 60093, Note_on_c, 1, 67, 82
10, 60130, Note_off_c, 1, 67, 64
10, 60210, Note_on_c, 1, 55, 74
10, 60261, Note_off_c, 1, 55, 64
10, 60324, Note_on_c, 1, 67, 70
10, 60363, Note_off_c, 1, 67, 64
10, 60462, Note_on_c, 1, 60, 87
10, 60531, Note_off_c, 1, 60, 64
10, 60586, Note_on_c, 1, 72, 80
10, 60624, Note_off_c, 1, 72, 64
10, 60704, Note_on_c, 1, 72, 89
10, 60746, Note_off_c, 1, 72, 64
10, 60824, Note_on_c, 1, 72, 91
10, 60864, Note_off_c, 1, 72, 64
10, 60945, Note_on_c, 1, 71, 80
10, 61049, Note_off_c, 1, 71, 64
10, 61058, Note_on_c, 1, 72, 80
10, 61101, Note_off_c, 1, 72, 64
10, 61112, Note_on_c, 1, 74, 70
10, 61153, Note_off_c, 1, 74, 64
10, 61171, Note_on_c, 1, 76, 89
10, 61217, Note_off_c, 1, 76, 64
10, 61297, Note_on_c, 1, 72, 80
10, 61341, Note_off_c, 1, 72, 64
10, 61420, Note_on_c, 1, 69, 80
10, 61464, Note_off_c, 1, 69, 64
10, 61541, Note_on_c, 1, 74, 87
10, 61574, Note_off_c, 1, 74, 64
10, 61670, Note_on_c, 1, 62, 89
10, 61718, Note_off_c, 1, 62, 64
10, 61794, Note_on_c, 1, 74, 93
10, 61928, Note_off_c, 1, 74, 64
10, 61982, Note_on_c, 1, 62, 64
10, 62033, Note_off_c, 1, 62, 64
10, 62048, Note_on_c, 1, 64, 76
10, 62100, Note_off_c, 1, 64, 64
10, 62104, Note_on_c, 1, 66, 74
10, 62150, Note_off_c, 1, 66, 64
10, 62167, Note_on_c, 1, 67, 70
10, 62215, Note_off_c, 1, 67, 64
10, 62224, Note_on_c, 1, 71, 85
10, 62270, Note_off_c, 1, 71, 64
10, 62277, Note_on_c, 1, 69, 66
10, 62321, Note_off_c, 1, 69, 64
10, 62327, Note_on_c, 1, 71, 76
10, 62372, Note_off_c, 1, 71, 64
10, 62389, Note_on_c, 1, 72, 93
10, 62437, Note_off_c, 1, 72, 64
10, 62445, Note_on_c, 1, 71, 80
10, 62490, Note_off_c, 1, 71, 64
10, 62500, Note_on_c, 1, 69, 70
10, 62545, Note_off_c, 1, 69, 64
10, 62563, Note_on_c, 1, 67, 54
10, 62615, Note_off_c, 1, 67, 64
10, 62632, Note_on_c, 1, 66, 78
10, 62743, Note_off_c, 1, 66, 64
10, 62746, Note_on_c, 1, 67, 74
10, 62788, Note_off_c, 1, 67, 64
10, 62803, Note_on_c, 1, 69, 82
10, 62843, Note_off_c, 1, 69, 64
10, 62861, Note_on_c, 1, 71, 82
10, 62903, Note_off_c, 1, 71, 64
10, 62921, Note_on_c, 1, 67, 70
10, 62963, Note_off_c, 1, 67, 64
10, 62973, Note_on_c, 1, 66, 61
10, 63021, Note_off_c, 1, 66, 64
10, 63030, Note_on_c, 1, 67, 72
10, 63071, Note_off_c, 1, 67, 64
10, 63097, Note_on_c, 1, 69, 93
10, 63144, Note_off_c, 1, 69, 64
10, 63151, Note_on_c, 1, 67, 82
10, 63192, Note_off_c, 1, 67, 64
10, 63207, Note_on_c, 1, 66, 89
10, 63246, Note_off_c, 1, 66, 64
10, 63262, Note_on_c, 1, 64, 80
10, 63302, Note_off_c, 1, 64, 64
10, 63336, Note_on_c, 1, 62, 85
10, 63546, Note_off_c, 1, 62, 64
10, 63644, Note_on_c, 1, 71, 80
10, 63687, Note_off_c, 1, 71, 64
10, 63703, Note_on_c, 1, 69, 80
10, 63745, Note_off_c, 1, 69, 64
10, 63760, Note_on_c, 1, 67, 78
10, 63797, Note_off_c, 1, 67, 64
10, 63830, Note_on_c, 1, 72, 98
10, 63960, Note_off_c, 1, 72, 64
10, 64003, Note_on_c, 1, 72, 82
10, 64036, Note_off_c, 1, 72, 64
10, 64064, Note_on_c, 1, 72, 93
10, 64118, Note_on_c, 1, 76, 87
10, 64123, Note_off_c, 1, 72, 64
10, 64163, Note_off_c, 1, 76, 64
10, 64179, Note_on_c, 1, 74, 89
10, 64214, Note_off_c, 1, 74, 64
10, 64232, Note_on_c, 1, 72, 85
10, 64268, Note_off_c, 1, 72, 64
10, 64307, Note_on_c, 1, 71, 93
10, 64568, Note_off_c, 1, 71, 64
10, 64600, Note_on_c, 1, 74, 80
10, 64639, Note_off_c, 1, 74, 64
10, 64663, Note_on_c, 1, 72, 80
10, 64696, Note_off_c, 1, 72, 64
10, 64718, Note_on_c, 1, 71, 89
10, 64756, Note_off_c, 1, 71, 64
10, 64782, Note_on_c, 1, 69, 82
10, 64925, Note_off_c, 1, 69, 64
10, 64960, Note_on_c, 1, 69, 80
10, 64994, Note_off_c, 1, 69, 64
10, 65025, Note_on_c, 1, 69, 91
10, 65079, Note_off_c, 1, 69, 64
10, 65082, Note_on_c, 1, 72, 80
10, 65120, Note_off_c, 1, 72, 64
10, 65138, Note_on_c, 1, 71, 85
10, 65177, Note_off_c, 1, 71, 64
10, 65198, Note_on_c, 1, 69, 89
10, 65236, Note_off_c, 1, 69, 64
10, 65265, Note_on_c, 1, 67, 80
10, 65539, Note_off_c, 1, 67, 64
10, 65568, Note_on_c, 1, 71, 70
10, 65611, Note_off_c, 1, 71, 64
10, 65629, Note_on_c, 1, 69, 82
10, 65671, Note_off_c, 1, 69, 64
10, 65682, Note_on_c, 1, 67, 74
10, 65723, Note_off_c, 1, 67, 64
10, 65750, Note_on_c, 1, 66, 89
10, 65820, Note_off_c, 1, 66, 64
10, 65871, Note_on_c, 1, 69, 89
10, 65917, Note_off_c, 1, 69, 64
10, 65992, Note_on_c, 1, 66, 93
10, 66038, Note_off_c, 1, 66, 64
10, 66116, Note_on_c, 1, 62, 87
10, 66155, Note_off_c, 1, 62, 64
10, 66238, Note_on_c, 1, 67, 85
10, 66423, Note_off_c, 1, 67, 64
10, 66527, Note_on_c, 1, 67, 82
10, 66570, Note_off_c, 1, 67, 64
10, 66580, Note_on_c, 1, 69, 68
10, 66630, Note_off_c, 1, 69, 64
10, 66636, Note_on_c, 1, 71, 82
10, 66680, Note_off_c, 1, 71, 64
10, 66702, Note_on_c, 1, 72, 87
10, 66744, Note_off_c, 1, 72, 64
10, 66757, Note_on_c, 1, 69, 68
10, 66808, Note_off_c, 1, 69, 64
10, 66822, Note_on_c, 1, 71, 70
10, 66870, Note_off_c, 1, 71, 64
10, 66875, Note_on_c, 1, 72, 80
10, 66918, Note_off_c, 1, 72, 64
10, 66944, Note_on_c, 1, 74, 85
10, 67065, Note_off_c, 1, 74, 64
10, 67118, Note_on_c, 1, 74, 91
10, 67155, Note_off_c, 1, 74, 64
10, 67189, Note_on_c, 1, 74, 102
10, 67240, Note_off_c, 1, 74, 64
10, 67245, Note_on_c, 1, 72, 89
10, 67299, Note_off_c, 1, 72, 64
10, 67304, Note_on_c, 1, 71, 85
10, 67344, Note_off_c, 1, 71, 64
10, 67356, Note_on_c, 1, 72, 91
10, 67382, Note_off_c, 1, 72, 64
10, 67416, Note_on_c, 1, 71, 95
10, 67452, Note_off_c, 1, 71, 64
10, 67454, Note_on_c, 1, 69, 82
10, 67478, Note_on_c, 1, 71, 91
10, 67480, Note_off_c, 1, 69, 64
10, 67503, Note_on_c, 1, 69, 95
10, 67515, Note_off_c, 1, 71, 64
10, 67572, Note_off_c, 1, 69, 64
10, 67610, Note_on_c, 1, 71, 85
10, 67639, Note_off_c, 1, 71, 64
10, 67673, Note_on_c, 1, 71, 98
10, 67923, Note_off_c, 1, 71, 64
10, 85010, Note_on_c, 1, 67, 80
10, 85067, Note_on_c, 1, 69, 80
10, 85073, Note_off_c, 1, 67, 64
10, 85130, Note_on_c, 1, 71, 80
10, 85135, Note_off_c, 1, 69, 64
10, 85177, Note_off_c, 1, 71, 64
10, 85189, Note_on_c, 1, 72, 85
10, 85247, Note_on_c, 1, 76, 61
10, 85256, Note_off_c, 1, 72, 64
10, 85307, Note_on_c, 1, 74, 59
10, 85309, Note_off_c, 1, 76, 64
10, 85362, Note_off_c, 1, 74, 64
10, 85363, Note_on_c, 1, 76, 70
10, 85414, Note_off_c, 1, 76, 64
10, 85426, Note_on_c, 1, 77, 85
10, 85487, Note_on_c, 1, 76, 74
10, 85489, Note_off_c, 1, 77, 64
10, 85544, Note_off_c, 1, 76, 64
10, 85547, Note_on_c, 1, 74, 64
10, 85603, Note_off_c, 1, 74, 64
10, 85605, Note_on_c, 1, 72, 64
10, 85650, Note_off_c, 1, 72, 64
10, 85669, Note_on_c, 1, 71, 87
10, 85790, Note_off_c, 1, 71, 64
10, 85794, Note_on_c, 1, 72, 64
10, 85835, Note_off_c, 1, 72, 64
10, 85843, Note_on_c, 1, 74, 82
10, 85889, Note_off_c, 1, 74, 64
10, 85904, Note_on_c, 1, 76, 87
10, 85970, Note_on_c, 1, 72, 78
10, 85978, Note_off_c, 1, 76, 64
10, 86020, Note_on_c, 1, 71, 59
10, 86022, Note_off_c, 1, 72, 64
10, 86072, Note_off_c, 1, 71, 64
10, 86078, Note_on_c, 1, 72, 64
10, 86118, Note_off_c, 1, 72, 64
10, 86136, Note_on_c, 1, 74, 80
10, 86199, Note_on_c, 1, 72, 68
10, 86207, Note_off_c, 1, 74, 64
10, 86245, Note_off_c, 1, 72, 64
10, 86261, Note_on_c, 1, 71, 70
10, 86312, Note_off_c, 1, 71, 64
10, 86315, Note_on_c, 1, 69, 68
10, 86360, Note_off_c, 1, 69, 64
10, 86385, Note_on_c, 1, 67, 82
10, 86441, Note_off_c, 1, 67, 64
10, 86513, Note_on_c, 1, 71, 85
10, 86561, Note_off_c, 1, 71, 64
10, 86635, Note_on_c, 1, 72, 98
10, 86689, Note_on_c, 1, 74, 87
10, 86701, Note_off_c, 1, 72, 64
10, 86744, Note_off_c, 1, 74, 64
10, 86751, Note_on_c, 1, 76, 82
10, 86795, Note_off_c, 1, 76, 64
10, 86807, Note_on_c, 1, 72, 91
10, 86845, Note_off_c, 1, 72, 64
10, 86871, Note_on_c, 1, 69, 89
10, 87157, Note_off_c, 1, 69, 64
10, 87169, Note_on_c, 1, 67, 82
10, 87213, Note_off_c, 1, 67, 64
10, 87225, Note_on_c, 1, 69, 85
10, 87272, Note_off_c, 1, 69, 64
10, 87282, Note_on_c, 1, 65, 80
10, 87327, Note_off_c, 1, 65, 64
10, 87348, Note_on_c, 1, 67, 82
10, 87635, Note_off_c, 1, 67, 64
10, 87655, Note_on_c, 1, 64, 91
10, 87703, Note_off_c, 1, 64, 64
10, 87709, Note_on_c, 1, 65, 76
10, 87767, Note_off_c, 1, 65, 64
10, 87768, Note_on_c, 1, 67, 85
10, 87804, Note_off_c, 1, 67, 64
10, 87835, Note_on_c, 1, 69, 89
10, 87946, Note_off_c, 1, 69, 64
10, 87953, Note_on_c, 1, 71, 78
10, 88007, Note_on_c, 1, 72, 82
10, 88015, Note_off_c, 1, 71, 64
10, 88054, Note_off_c, 1, 72, 64
10, 88073, Note_on_c, 1, 71, 98
10, 88131, Note_off_c, 1, 71, 64
10, 88196, Note_on_c, 1, 74, 91
10, 88239, Note_off_c, 1, 74, 64
10, 88311, Note_on_c, 1, 67, 82
10, 88422, Note_off_c, 1, 67, 64
10, 88432, Note_on_c, 1, 72, 85
10, 88487, Note_off_c, 1, 72, 64
10, 88487, Note_on_c, 1, 74, 82
10, 88545, Note_on_c, 1, 76, 68
10, 88548, Note_off_c, 1, 74, 64
10, 88595, Note_off_c, 1, 76, 64
10, 88600, Note_on_c, 1, 77, 57
10, 88641, Note_off_c, 1, 77, 64
10, 88662, Note_on_c, 1, 74, 64
10, 88713, Note_on_c, 1, 76, 78
10, 88714, Note_off_c, 1, 74, 64
10, 88756, Note_off_c, 1, 76, 64
10, 88781, Note_on_c, 1, 77, 82
10, 88952, Note_off_c, 1, 77, 64
10, 88973, Note_on_c, 1, 76, 85
10, 89023, Note_off_c, 1, 76, 64
10, 89031, Note_on_c, 1, 74, 91
10, 89087, Note_on_c, 1, 72, 78
10, 89088, Note_off_c, 1, 74, 64
10, 89135, Note_off_c, 1, 72, 64
10, 89140, Note_on_c, 1, 71, 70
10, 89188, Note_off_c, 1, 71, 64
10, 89197, Note_on_c, 1, 69, 89
10, 89237, Note_off_c, 1, 69, 64
10, 89262, Note_on_c, 1, 67, 85
10, 89410, Note_off_c, 1, 67, 64
10, 90842, Note_on_c, 1, 72, 80
10, 90886, Note_off_c, 1, 72, 64
10, 90955, Note_on_c, 1, 72, 87
10, 91000, Note_off_c, 1, 72, 64
10, 91072, Note_on_c, 1, 72, 87
10, 91114, Note_off_c, 1, 72, 64
10, 91183, Note_on_c, 1, 71, 85
10, 91300, Note_off_c, 1, 71, 64
10, 91308, Note_on_c, 1, 72, 68
10, 91353, Note_off_c, 1, 72, 64
10, 91357, Note_on_c, 1, 74, 74
10, 91411, Note_off_c, 1, 74, 64
10, 91424, Note_on_c, 1, 76, 82
10, 91470, Note_off_c, 1, 76, 64
10, 91545, Note_on_c, 1, 72, 82
10, 91592, Note_off_c, 1, 72, 64
10, 91667, Note_on_c, 1, 69, 80
10, 91718, Note_off_c, 1, 69, 64
10, 91786, Note_on_c, 1, 74, 87
10, 91827, Note_off_c, 1, 74, 64
10, 91905, Note_on_c, 1, 62, 82
10, 91962, Note_off_c, 1, 62, 64
10, 92024, Note_on_c, 1, 72, 82
10, 92071, Note_off_c, 1, 72, 64
10, 92152, Note_on_c, 1, 71, 87
10, 92209, Note_on_c, 1, 69, 80
10, 92213, Note_off_c, 1, 71, 64
10, 92265, Note_off_c, 1, 69, 64
10, 92267, Note_on_c, 1, 67, 72
10, 92319, Note_on_c, 1, 69, 76
10, 92327, Note_off_c, 1, 67, 64
10, 92364, Note_off_c, 1, 69, 64
10, 92381, Note_on_c, 1, 71, 98
10, 92436, Note_on_c, 1, 67, 80
10, 92437, Note_off_c, 1, 71, 64
10, 92485, Note_off_c, 1, 67, 64
10, 92501, Note_on_c, 1, 69, 76
10, 92550, Note_off_c, 1, 69, 64
10, 92556, Note_on_c, 1, 71, 72
10, 92596, Note_off_c, 1, 71, 64
10, 92623, Note_on_c, 1, 72, 87
10, 92758, Note_off_c, 1, 72, 64
10, 92800, Note_on_c, 1, 67, 60
10, 92835, Note_off_c, 1, 67, 64
10, 92868, Note_on_c, 1, 72, 85
10, 92997, Note_off_c, 1, 72, 64
10, 93046, Note_on_c, 1, 72, 82
10, 93079, Note_off_c, 1, 72, 64
10, 93109, Note_on_c, 1, 72, 89
10, 93224, Note_off_c, 1, 72, 64
10, 93266, Note_on_c, 1, 71, 61
10, 93294, Note_on_c, 1, 69, 72
10, 93298, Note_off_c, 1, 71, 64
10, 93320, Note_on_c, 1, 71, 63
10, 93326, Note_off_c, 1, 69, 64
10, 93348, Note_off_c, 1, 71, 64
10, 93348, Note_on_c, 1, 72, 78
10, 93372, Note_on_c, 1, 71, 87
10, 93377, Note_off_c, 1, 72, 64
10, 93395, Note_on_c, 1, 72, 82
10, 93399, Note_off_c, 1, 71, 64
10, 93419, Note_on_c, 1, 71, 87
10, 93435, Note_off_c, 1, 72, 64
10, 93485, Note_off_c, 1, 71, 64
10, 93524, Note_on_c, 1, 72, 78
10, 93558, Note_off_c, 1, 72, 64
10, 93588, Note_on_c, 1, 72, 89
10, 93684, Note_off_c, 1, 72, 64
10, 93710, Note_on_c, 1, 67, 80
10, 93757, Note_off_c, 1, 67, 64
10, 93767, Note_on_c, 1, 65, 78
10, 93809, Note_off_c, 1, 65, 64
10, 93829, Note_on_c, 1, 67, 95
10, 93876, Note_off_c, 1, 67, 64
10, 93946, Note_on_c, 1, 76, 93
10, 93987, Note_off_c, 1, 76, 64
10, 94072, Note_on_c, 1, 74, 93
10, 94130, Note_on_c, 1, 72, 87
10, 94137, Note_off_c, 1, 74, 64
10, 94180, Note_off_c, 1, 72, 64
10, 94189, Note_on_c, 1, 71, 87
10, 94240, Note_off_c, 1, 71, 64
10, 94246, Note_on_c, 1, 69, 87
10, 94296, Note_off_c, 1, 69, 64
10, 94304, Note_on_c, 1, 67, 85
10, 94387, Note_off_c, 1, 67, 64
10, 94427, Note_on_c, 1, 76, 91
10, 94482, Note_on_c, 1, 74, 85
10, 94490, Note_off_c, 1, 76, 64
10, 94533, Note_off_c, 1, 74, 64
10, 94550, Note_on_c, 1, 76, 95
10, 94587, Note_off_c, 1, 76, 64
10, 94672, Note_on_c, 1, 69, 76
10, 94731, Note_off_c, 1, 69, 64
10, 94798, Note_on_c, 1, 74, 93
10, 94856, Note_on_c, 1, 72, 85
10, 94860, Note_off_c, 1, 74, 64
10, 94907, Note_off_c, 1, 72, 64
10, 94909, Note_on_c, 1, 71, 82
10, 94967, Note_on_c, 1, 72, 91
10, 94971, Note_off_c, 1, 71, 64
10, 95011, Note_off_c, 1, 72, 64
10, 95032, Note_on_c, 1, 74, 87
10, 95302, Note_off_c, 1, 74, 64
10, 95328, Note_on_c, 1, 71, 80
10, 95370, Note_off_c, 1, 71, 64
10, 95384, Note_on_c, 1, 72, 87
10, 95424, Note_off_c, 1, 72, 64
10, 95441, Note_on_c, 1, 74, 87
10, 95483, Note_off_c, 1, 74, 64
10, 95511, Note_on_c, 1, 67, 80
10, 95750, Note_off_c, 1, 67, 64
10, 95807, Note_on_c, 1, 76, 80
10, 95858, Note_off_c, 1, 76, 64
10, 95859, Note_on_c, 1, 74, 95
10, 95910, Note_off_c, 1, 74, 64
10, 95914, Note_on_c, 1, 72, 82
10, 95960, Note_off_c, 1, 72, 64
10, 95984, Note_on_c, 1, 77, 91
10, 96125, Note_off_c, 1, 77, 64
10, 96167, Note_on_c, 1, 77, 91
10, 96204, Note_off_c, 1, 77, 64
10, 96233, Note_on_c, 1, 77, 95
10, 96291, Note_on_c, 1, 81, 87
10, 96299, Note_off_c, 1, 77, 64
10, 96340, Note_off_c, 1, 81, 64
10, 96345, Note_on_c, 1, 79, 85
10, 96389, Note_off_c, 1, 79, 64
10, 96403, Note_on_c, 1, 77, 95
10, 96446, Note_off_c, 1, 77, 64
10, 96470, Note_on_c, 1, 76, 98
10, 96737, Note_off_c, 1, 76, 64
10, 96776, Note_on_c, 1, 79, 85
10, 96819, Note_off_c, 1, 79, 64
10, 96835, Note_on_c, 1, 77, 89
10, 96870, Note_off_c, 1, 77, 64
10, 96886, Note_on_c, 1, 76, 100
10, 96928, Note_off_c, 1, 76, 64
10, 96945, Note_on_c, 1, 74, 85
10, 97086, Note_off_c, 1, 74, 64
10, 97119, Note_on_c, 1, 74, 100
10, 97153, Note_off_c, 1, 74, 64
10, 97180, Note_on_c, 1, 74, 89
10, 97239, Note_off_c, 1, 74, 64
10, 97239, Note_on_c, 1, 77, 85
10, 97291, Note_off_c, 1, 77, 64
10, 97302, Note_on_c, 1, 76, 82
10, 97346, Note_off_c, 1, 76, 64
10, 97360, Note_on_c, 1, 74, 95
10, 97404, Note_off_c, 1, 74, 64
10, 97427, Note_on_c, 1, 72, 82
10, 97706, Note_off_c, 1, 72, 64
10, 97728, Note_on_c, 1, 76, 82
10, 97776, Note_off_c, 1, 76, 64
10, 97787, Note_on_c, 1, 74, 85
10, 97830, Note_off_c, 1, 74, 64
10, 97838, Note_on_c, 1, 72, 89
10, 97882, Note_off_c, 1, 72, 64
10, 97900, Note_on_c, 1, 71, 87
10, 97966, Note_off_c, 1, 71, 64
10, 98025, Note_on_c, 1, 74, 87
10, 98075, Note_off_c, 1, 74, 64
10, 98150, Note_on_c, 1, 71, 87
10, 98203, Note_off_c, 1, 71, 64
10, 98272, Note_on_c, 1, 67, 85
10, 98325, Note_off_c, 1, 67, 64
10, 98401, Note_on_c, 1, 72, 89
10, 98576, Note_off_c, 1, 72, 64
10, 98672, Note_on_c, 1, 60, 89
10, 98735, Note_off_c, 1, 60, 64
10, 98736, Note_on_c, 1, 62, 80
10, 98796, Note_on_c, 1, 64, 82
10, 98800, Note_off_c, 1, 62, 64
10, 98845, Note_off_c, 1, 64, 64
10, 98866, Note_on_c, 1, 65, 91
10, 98918, Note_off_c, 1, 65, 64
10, 98926, Note_on_c, 1, 62, 85
10, 98979, Note_off_c, 1, 62, 64
10, 98989, Note_on_c, 1, 64, 82
10, 99047, Note_on_c, 1, 65, 82
10, 99049, Note_off_c, 1, 64, 64
10, 99092, Note_off_c, 1, 65, 64
10, 99110, Note_on_c, 1, 67, 87
10, 99240, Note_off_c, 1, 67, 64
10, 99282, Note_on_c, 1, 67, 87
10, 99318, Note_off_c, 1, 67, 64
10, 99346, Note_on_c, 1, 67, 89
10, 99398, Note_off_c, 1, 67, 64
10, 99401, Note_on_c, 1, 65, 70
10, 99446, Note_off_c, 1, 65, 64
10, 99463, Note_on_c, 1, 64, 89
10, 99514, Note_on_c, 1, 65, 80
10, 99517, Note_off_c, 1, 64, 64
10, 99546, Note_off_c, 1, 65, 64
10, 99580, Note_on_c, 1, 64, 98
10, 99610, Note_on_c, 1, 62, 80
10, 99611, Note_off_c, 1, 64, 64
10, 99632, Note_on_c, 1, 64, 76
10, 99638, Note_off_c, 1, 62, 64
10, 99660, Note_on_c, 1, 62, 82
10, 99670, Note_off_c, 1, 64, 64
10, 99713, Note_off_c, 1, 62, 64
10, 99760, Note_on_c, 1, 64, 74
10, 99796, Note_off_c, 1, 64, 64
10, 99826, Note_on_c, 1, 64, 95
10, 99891, Note_on_c, 1, 69, 91
10, 99892, Note_off_c, 1, 64, 64
10, 99938, Note_off_c, 1, 69, 64
10, 99950, Note_on_c, 1, 67, 70
10, 99986, Note_off_c, 1, 67, 64
10, 100006, Note_on_c, 1, 65, 78
10, 100054, Note_off_c, 1, 65, 64
10, 100071, Note_on_c, 1, 64, 78
10, 100118, Note_off_c, 1, 64, 64
10, 100123, Note_on_c, 1, 62, 70
10, 100179, Note_on_c, 1, 64, 64
10, 100182, Note_off_c, 1, 62, 64
10, 100222, Note_off_c, 1, 64, 64
10, 100237, Note_on_c, 1, 60, 61
10, 100288, Note_off_c, 1, 60, 64
10, 100299, Note_on_c, 1, 67, 68
10, 100467, Note_off_c, 1, 67, 64
10, 110543, Note_on_c, 1, 65, 82
10, 110579, Note_off_c, 1, 65, 64
10, 110610, Note_on_c, 1, 64, 82
10, 110715, Note_off_c, 1, 64, 64
10, 110800, Note_on_c, 1, 65, 80
10, 110838, Note_off_c, 1, 65, 64
10, 110868, Note_on_c, 1, 67, 87
10, 111139, Note_off_c, 1, 67, 64
10, 111170, Note_on_c, 1, 67, 76
10, 111214, Note_off_c, 1, 67, 64
10, 111232, Note_on_c, 1, 65, 93
10, 111276, Note_off_c, 1, 65, 64
10, 111292, Note_on_c, 1, 64, 93
10, 111333, Note_off_c, 1, 64, 64
10, 111356, Note_on_c, 1, 62, 87
10, 111448, Note_off_c, 1, 62, 64
10, 111533, Note_on_c, 1, 65, 78
10, 111574, Note_off_c, 1, 65, 64
10, 111596, Note_on_c, 1, 64, 85
10, 111685, Note_off_c, 1, 64, 64
10, 111777, Note_on_c, 1, 62, 85
10, 111810, Note_off_c, 1, 62, 64
10, 111831, Note_on_c, 1, 60, 87
10, 111931, Note_off_c, 1, 60, 64
10, 112011, Note_on_c, 1, 62, 80
10, 112047, Note_on_c, 1, 64, 70
10, 112055, Note_off_c, 1, 62, 64
10, 112073, Note_on_c, 1, 65, 59
10, 112076, Note_off_c, 1, 64, 64
10, 112103, Note_on_c, 1, 64, 72
10, 112106, Note_off_c, 1, 65, 64
10, 112122, Note_off_c, 1, 64, 64
10, 112123, Note_on_c, 1, 65, 80
10, 112147, Note_on_c, 1, 64, 57
10, 112148, Note_off_c, 1, 65, 64
10, 112164, Note_off_c, 1, 64, 64
10, 112166, Note_on_c, 1, 65, 68
10, 112186, Note_on_c, 1, 64, 58
10, 112187, Note_off_c, 1, 65, 64
10, 112201, Note_off_c, 1, 64, 64
10, 112202, Note_on_c, 1, 65, 78
10, 112222, Note_off_c, 1, 65, 64
10, 112223, Note_on_c, 1, 64, 60
10, 112239, Note_on_c, 1, 65, 76
10, 112262, Note_off_c, 1, 65, 64
10, 112267, Note_on_c, 1, 62, 72
10, 112273, Note_off_c, 1, 64, 64
10, 112294, Note_on_c, 1, 64, 76
10, 112304, Note_off_c, 1, 62, 64
10, 112320, Note_on_c, 1, 65, 85
10, 112323, Note_off_c, 1, 64, 64
10, 112409, Note_off_c, 1, 65, 64
10, 112493, Note_on_c, 1, 69, 89
10, 112530, Note_off_c, 1, 69, 64
10, 112548, Note_on_c, 1, 65, 85
10, 112632, Note_off_c, 1, 65, 64
10, 112721, Note_on_c, 1, 64, 80
10, 112765, Note_off_c, 1, 64, 64
10, 112788, Note_on_c, 1, 62, 95
10, 112888, Note_off_c, 1, 62, 64
10, 112959, Note_on_c, 1, 69, 82
10, 113003, Note_off_c, 1, 69, 64
10, 113021, Note_on_c, 1, 74, 91
10, 113369, Note_off_c, 1, 74, 64
10, 113446, Note_on_c, 1, 77, 89
10, 113495, Note_off_c, 1, 77, 64
10, 113511, Note_on_c, 1, 76, 93
10, 113589, Note_off_c, 1, 76, 64
10, 113682, Note_on_c, 1, 74, 87
10, 113713, Note_off_c, 1, 74, 64
10, 113739, Note_on_c, 1, 74, 80
10, 113786, Note_on_c, 1, 73, 56
10, 113788, Note_off_c, 1, 74, 64
10, 113808, Note_off_c, 1, 73, 64
10, 113808, Note_on_c, 1, 74, 76
10, 113831, Note_on_c, 1, 73, 56
10, 113833, Note_off_c, 1, 74, 64
10, 113849, Note_off_c, 1, 73, 64
10, 113850, Note_on_c, 1, 74, 76
10, 113868, Note_on_c, 1, 73, 57
10, 113871, Note_off_c, 1, 74, 64
10, 113883, Note_on_c, 1, 74, 78
10, 113886, Note_off_c, 1, 73, 64
10, 113902, Note_on_c, 1, 73, 61
10, 113904, Note_off_c, 1, 74, 64
10, 113921, Note_on_c, 1, 74, 78
10, 113924, Note_off_c, 1, 73, 64
10, 113937, Note_on_c, 1, 73, 63
10, 113945, Note_off_c, 1, 74, 64
10, 114117, Note_off_c, 1, 73, 64
10, 114174, Note_on_c, 1, 73, 76
10, 114213, Note_off_c, 1, 73, 64
10, 114234, Note_on_c, 1, 74, 91
10, 114325, Note_off_c, 1, 74, 64
10, 114397, Note_on_c, 1, 69, 72
10, 114442, Note_off_c, 1, 69, 64
10, 114468, Note_on_c, 1, 74, 98
10, 114559, Note_off_c, 1, 74, 64
10, 114657, Note_on_c, 1, 72, 85
10, 114689, Note_off_c, 1, 72, 64
10, 114711, Note_on_c, 1, 72, 82
10, 114760, Note_on_c, 1, 71, 57
10, 114765, Note_off_c, 1, 72, 64
10, 114785, Note_on_c, 1, 72, 62
10, 114786, Note_off_c, 1, 71, 64
10, 114807, Note_on_c, 1, 71, 63
10, 114810, Note_off_c, 1, 72, 64
10, 114827, Note_off_c, 1, 71, 64
10, 114828, Note_on_c, 1, 72, 68
10, 114847, Note_on_c, 1, 71, 68
10, 114849, Note_off_c, 1, 72, 64
10, 114867, Note_off_c, 1, 71, 64
10, 114867, Note_on_c, 1, 72, 76
10, 114883, Note_on_c, 1, 71, 72
10, 114886, Note_off_c, 1, 72, 64
10, 114904, Note_on_c, 1, 72, 85
10, 114908, Note_off_c, 1, 71, 64
10, 114924, Note_on_c, 1, 71, 53
10, 114927, Note_off_c, 1, 72, 64
10, 114937, Note_off_c, 1, 71, 64
10, 114937, Note_on_c, 1, 72, 87
10, 114948, Note_on_c, 1, 71, 74
10, 114958, Note_off_c, 1, 72, 64
10, 115078, Note_off_c, 1, 71, 64
10, 115130, Note_on_c, 1, 72, 85
10, 115171, Note_off_c, 1, 72, 64
10, 115191, Note_on_c, 1, 74, 87
10, 115292, Note_off_c, 1, 74, 64
10, 115366, Note_on_c, 1, 72, 82
10, 115403, Note_off_c, 1, 72, 64
10, 115426, Note_on_c, 1, 74, 80
10, 115504, Note_off_c, 1, 74, 64
10, 115608, Note_on_c, 1, 71, 82
10, 115643, Note_off_c, 1, 71, 64
10, 115671, Note_on_c, 1, 72, 89
10, 115758, Note_off_c, 1, 72, 64
10, 115848, Note_on_c, 1, 74, 76
10, 115890, Note_off_c, 1, 74, 64
10, 115912, Note_on_c, 1, 76, 89
10, 115985, Note_off_c, 1, 76, 64
10, 116081, Note_on_c, 1, 79, 85
10, 116120, Note_off_c, 1, 79, 64
10, 116146, Note_on_c, 1, 72, 89
10, 116231, Note_off_c, 1, 72, 64
10, 116324, Note_on_c, 1, 72, 78
10, 116361, Note_off_c, 1, 72, 64
10, 116388, Note_on_c, 1, 77, 85
10, 116465, Note_off_c, 1, 77, 64
10, 116562, Note_on_c, 1, 76, 87
10, 116603, Note_off_c, 1, 76, 64
10, 116628, Note_on_c, 1, 77, 93
10, 116906, Note_off_c, 1, 77, 64
10, 116920, Note_on_c, 1, 76, 85
10, 116961, Note_off_c, 1, 76, 64
10, 116977, Note_on_c, 1, 74, 89
10, 117021, Note_off_c, 1, 74, 64
10, 117039, Note_on_c, 1, 72, 85
10, 117079, Note_off_c, 1, 72, 64
10, 117104, Note_on_c, 1, 71, 85
10, 117470, Note_off_c, 1, 71, 64
10, 117524, Note_on_c, 1, 74, 89
10, 117557, Note_off_c, 1, 74, 64
10, 117589, Note_on_c, 1, 67, 82
10, 117937, Note_off_c, 1, 67, 64
10, 118010, Note_on_c, 1, 67, 82
10, 118044, Note_off_c, 1, 67, 64
10, 118072, Note_on_c, 1, 67, 80
10, 118328, Note_off_c, 1, 67, 64
10, 118366, Note_on_c, 1, 69, 85
10, 118409, Note_off_c, 1, 69, 64
10, 118425, Note_on_c, 1, 71, 80
10, 118468, Note_off_c, 1, 71, 64
10, 118481, Note_on_c, 1, 72, 87
10, 118516, Note_off_c, 1, 72, 64
10, 118550, Note_on_c, 1, 74, 87
10, 118923, Note_off_c, 1, 74, 64
10, 118978, Note_on_c, 1, 74, 80
10, 119011, Note_off_c, 1, 74, 64
10, 119036, Note_on_c, 1, 74, 87
10, 119131, Note_off_c, 1, 74, 64
10, 119208, Note_on_c, 1, 72, 76
10, 119229, Note_on_c, 1, 71, 70
10, 119237, Note_off_c, 1, 72, 64
10, 119261, Note_off_c, 1, 71, 64
10, 119268, Note_on_c, 1, 72, 85
10, 119360, Note_off_c, 1, 72, 64
10, 119453, Note_on_c, 1, 69, 80
10, 119491, Note_off_c, 1, 69, 64
10, 119512, Note_on_c, 1, 67, 80
10, 119866, Note_off_c, 1, 67, 64
10, 119929, Note_on_c, 1, 67, 82
10, 119967, Note_off_c, 1, 67, 64
10, 119995, Note_on_c, 1, 67, 85
10, 120095, Note_off_c, 1, 67, 64
10, 120165, Note_on_c, 1, 65, 61
10, 120188, Note_on_c, 1, 64, 80
10, 120196, Note_off_c, 1, 65, 64
10, 120219, Note_off_c, 1, 64, 64
10, 120229, Note_on_c, 1, 65, 85
10, 120330, Note_off_c, 1, 65, 64
10, 120409, Note_on_c, 1, 67, 82
10, 120453, Note_off_c, 1, 67, 64
10, 120474, Note_on_c, 1, 69, 82
10, 120570, Note_off_c, 1, 69, 64
10, 120654, Note_on_c, 1, 67, 82
10, 120695, Note_off_c, 1, 67, 64
10, 120715, Note_on_c, 1, 65, 89
10, 120796, Note_off_c, 1, 65, 64
10, 120893, Note_on_c, 1, 64, 82
10, 120933, Note_off_c, 1, 64, 64
10, 120952, Note_on_c, 1, 65, 85
10, 121089, Note_off_c, 1, 65, 64
10, 121191, Note_on_c, 1, 69, 82
10, 121300, Note_off_c, 1, 69, 64
10, 121423, Note_on_c, 1, 74, 93
10, 121770, Note_off_c, 1, 74, 64
10, 121844, Note_on_c, 1, 72, 82
10, 121892, Note_off_c, 1, 72, 64
10, 121908, Note_on_c, 1, 71, 78
10, 122014, Note_off_c, 1, 71, 64
10, 122083, Note_on_c, 1, 71, 82
10, 122130, Note_off_c, 1, 71, 64
10, 122147, Note_on_c, 1, 72, 95
10, 122237, Note_off_c, 1, 72, 64
10, 122329, Note_on_c, 1, 74, 87
10, 122366, Note_off_c, 1, 74, 64
10, 122389, Note_on_c, 1, 67, 74
10, 122491, Note_off_c, 1, 67, 64
10, 122565, Note_on_c, 1, 70, 80
10, 122610, Note_off_c, 1, 70, 64
10, 122628, Note_on_c, 1, 69, 85
10, 122714, Note_off_c, 1, 69, 64
10, 122803, Note_on_c, 1, 67, 68
10, 122845, Note_off_c, 1, 67, 64
10, 122871, Note_on_c, 1, 65, 85
10, 122960, Note_off_c, 1, 65, 64
10, 123043, Note_on_c, 1, 67, 74
10, 123087, Note_off_c, 1, 67, 64
10, 123113, Note_on_c, 1, 69, 91
10, 123191, Note_off_c, 1, 69, 64
10, 123284, Note_on_c, 1, 65, 80
10, 123329, Note_off_c, 1, 65, 64
10, 123352, Note_on_c, 1, 62, 87
10, 123442, Note_off_c, 1, 62, 64
10, 123519, Note_on_c, 1, 67, 70
10, 123566, Note_off_c, 1, 67, 64
10, 123588, Note_on_c, 1, 74, 95
10, 123670, Note_off_c, 1, 74, 64
10, 123767, Note_on_c, 1, 72, 85
10, 123809, Note_off_c, 1, 72, 64
10, 123831, Note_on_c, 1, 71, 87
10, 123922, Note_off_c, 1, 71, 64
10, 126352, Note_on_c, 1, 72, 74
10, 126388, Note_off_c, 1, 72, 64
10, 126468, Note_on_c, 1, 72, 80
10, 126510, Note_off_c, 1, 72, 64
10, 126584, Note_on_c, 1, 72, 87
10, 126622, Note_off_c, 1, 72, 64
10, 126705, Note_on_c, 1, 71, 87
10, 126821, Note_on_c, 1, 72, 63
10, 126825, Note_off_c, 1, 71, 64
10, 126869, Note_off_c, 1, 72, 64
10, 126870, Note_on_c, 1, 74, 70
10, 126919, Note_off_c, 1, 74, 64
10, 126936, Note_on_c, 1, 76, 82
10, 126979, Note_off_c, 1, 76, 64
10, 127059, Note_on_c, 1, 72, 80
10, 127103, Note_off_c, 1, 72, 64
10, 127184, Note_on_c, 1, 69, 72
10, 127229, Note_off_c, 1, 69, 64
10, 127304, Note_on_c, 1, 74, 80
10, 127348, Note_off_c, 1, 74, 64
10, 127424, Note_on_c, 1, 62, 78
10, 127472, Note_off_c, 1, 62, 64
10, 127542, Note_on_c, 1, 72, 80
10, 127584, Note_off_c, 1, 72, 64
10, 127670, Note_on_c, 1, 71, 100
10, 127723, Note_on_c, 1, 69, 72
10, 127728, Note_off_c, 1, 71, 64
10, 127776, Note_off_c, 1, 69, 64
10, 127784, Note_on_c, 1, 67, 63
10, 127838, Note_on_c, 1, 69, 58
10, 127848, Note_off_c, 1, 67, 64
10, 127889, Note_off_c, 1, 69, 64
10, 127908, Note_on_c, 1, 71, 80
10, 127962, Note_on_c, 1, 67, 68
10, 127967, Note_off_c, 1, 71, 64
10, 128019, Note_off_c, 1, 67, 64
10, 128021, Note_on_c, 1, 69, 59
10, 128076, Note_off_c, 1, 69, 64
10, 128076, Note_on_c, 1, 71, 70
10, 128112, Note_off_c, 1, 71, 64
10, 128142, Note_on_c, 1, 72, 80
10, 128240, Note_off_c, 1, 72, 64
10, 128313, Note_on_c, 1, 67, 57
10, 128347, Note_off_c, 1, 67, 64
10, 128384, Note_on_c, 1, 72, 93
10, 128491, Note_off_c, 1, 72, 64
10, 128555, Note_on_c, 1, 72, 68
10, 128587, Note_off_c, 1, 72, 64
10, 128627, Note_on_c, 1, 72, 89
10, 128688, Note_on_c, 1, 71, 76
10, 128689, Note_off_c, 1, 72, 64
10, 128740, Note_off_c, 1, 71, 64
10, 128741, Note_on_c, 1, 69, 68
10, 128795, Note_on_c, 1, 71, 68
10, 128807, Note_off_c, 1, 69, 64
10, 128823, Note_off_c, 1, 71, 64
10, 128860, Note_on_c, 1, 72, 87
10, 128886, Note_on_c, 1, 71, 68
10, 128895, Note_off_c, 1, 72, 64
10, 128916, Note_on_c, 1, 72, 66
10, 128925, Note_off_c, 1, 71, 64
10, 128948, Note_on_c, 1, 71, 63
10, 128961, Note_off_c, 1, 72, 64
10, 128997, Note_off_c, 1, 71, 64
10, 129036, Note_on_c, 1, 72, 64
10, 129066, Note_off_c, 1, 72, 64
10, 129105, Note_on_c, 1, 72, 87
10, 129203, Note_off_c, 1, 72, 64
10, 129231, Note_on_c, 1, 67, 70
10, 129281, Note_off_c, 1, 67, 64
10, 129285, Note_on_c, 1, 65, 60
10, 129329, Note_off_c, 1, 65, 64
10, 129352, Note_on_c, 1, 67, 85
10, 129392, Note_off_c, 1, 67, 64
10, 129472, Note_on_c, 1, 76, 95
10, 129509, Note_off_c, 1, 76, 64
10, 129594, Note_on_c, 1, 74, 93
10, 129647, Note_on_c, 1, 72, 78
10, 129660, Note_off_c, 1, 74, 64
10, 129709, Note_off_c, 1, 72, 64
10, 129709, Note_on_c, 1, 71, 68
10, 129758, Note_off_c, 1, 71, 64
10, 129759, Note_on_c, 1, 69, 57
10, 129804, Note_off_c, 1, 69, 64
10, 129820, Note_on_c, 1, 67, 76
10, 129884, Note_off_c, 1, 67, 64
10, 129942, Note_on_c, 1, 76, 82
10, 129999, Note_on_c, 1, 74, 74
10, 130004, Note_off_c, 1, 76, 64
10, 130047, Note_off_c, 1, 74, 64
10, 130068, Note_on_c, 1, 76, 93
10, 130106, Note_off_c, 1, 76, 64
10, 130188, Note_on_c, 1, 69, 85
10, 130236, Note_off_c, 1, 69, 64
10, 130315, Note_on_c, 1, 74, 95
10, 130369, Note_on_c, 1, 72, 78
10, 130382, Note_off_c, 1, 74, 64
10, 130427, Note_on_c, 1, 71, 68
10, 130433, Note_off_c, 1, 72, 64
10, 130487, Note_on_c, 1, 72, 68
10, 130495, Note_off_c, 1, 71, 64
10, 130533, Note_off_c, 1, 72, 64
10, 130554, Note_on_c, 1, 74, 76
10, 130809, Note_off_c, 1, 74, 64
10, 130848, Note_on_c, 1, 71, 82
10, 130889, Note_off_c, 1, 71, 64
10, 130905, Note_on_c, 1, 72, 85
10, 130941, Note_off_c, 1, 72, 64
10, 130962, Note_on_c, 1, 74, 82
10, 130999, Note_off_c, 1, 74, 64
10, 131032, Note_on_c, 1, 67, 87
10, 131161, Note_off_c, 1, 67, 64
10, 131200, Note_on_c, 1, 74, 82
10, 131237, Note_off_c, 1, 74, 64
10, 131267, Note_on_c, 1, 72, 82
10, 131327, Note_on_c, 1, 71, 82
10, 131341, Note_off_c, 1, 72, 64
10, 131384, Note_off_c, 1, 71, 64
10, 131387, Note_on_c, 1, 69, 58
10, 131438, Note_off_c, 1, 69, 64
10, 131441, Note_on_c, 1, 67, 61
10, 131477, Note_off_c, 1, 67, 64
10, 131510, Note_on_c, 1, 65, 82
10, 131638, Note_off_c, 1, 65, 64
10, 131680, Note_on_c, 1, 72, 72
10, 131713, Note_off_c, 1, 72, 64
10, 131750, Note_on_c, 1, 71, 76
10, 131808, Note_on_c, 1, 69, 60
10, 131829, Note_off_c, 1, 71, 64
10, 131871, Note_on_c, 1, 67, 60
10, 131875, Note_off_c, 1, 69, 64
10, 131923, Note_off_c, 1, 67, 64
10, 131927, Note_on_c, 1, 65, 56
10, 131971, Note_off_c, 1, 65, 64
10, 131994, Note_on_c, 1, 64, 82
10, 132116, Note_off_c, 1, 64, 64
10, 132171, Note_on_c, 1, 71, 80
10, 132199, Note_off_c, 1, 71, 64
10, 132240, Note_on_c, 1, 69, 95
10, 132305, Note_on_c, 1, 67, 76
10, 132323, Note_off_c, 1, 69, 64
10, 132362, Note_on_c, 1, 65, 63
10, 132365, Note_off_c, 1, 67, 64
10, 132414, Note_off_c, 1, 65, 64
10, 132416, Note_on_c, 1, 64, 60
10, 132452, Note_off_c, 1, 64, 64
10, 132483, Note_on_c, 1, 62, 82
10, 132604, Note_off_c, 1, 62, 64
10, 132648, Note_on_c, 1, 69, 82
10, 132679, Note_off_c, 1, 69, 64
10, 132716, Note_on_c, 1, 67, 91
10, 132770, Note_on_c, 1, 65, 70
10, 132795, Note_off_c, 1, 67, 64
10, 132831, Note_on_c, 1, 64, 66
10, 132840, Note_off_c, 1, 65, 64
10, 132884, Note_on_c, 1, 62, 60
10, 132886, Note_off_c, 1, 64, 64
10, 132920, Note_off_c, 1, 62, 64
10, 132956, Note_on_c, 1, 60, 82
10, 133092, Note_off_c, 1, 60, 64
10, 133127, Note_on_c, 1, 67, 68
10, 133162, Note_off_c, 1, 67, 64
10, 133194, Note_on_c, 1, 65, 78
10, 133248, Note_on_c, 1, 64, 68
10, 133269, Note_off_c, 1, 65, 64
10, 133303, Note_off_c, 1, 64, 64
10, 133305, Note_on_c, 1, 62, 66
10, 133348, Note_off_c, 1, 62, 64
10, 133357, Note_on_c, 1, 60, 64
10, 133397, Note_off_c, 1, 60, 64
10, 133424, Note_on_c, 1, 67, 80
10, 133482, Note_off_c, 1, 67, 64
10, 133545, Note_on_c, 1, 71, 80
10, 133591, Note_off_c, 1, 71, 64
10, 133670, Note_on_c, 1, 67, 85
10, 133725, Note_on_c, 1, 69, 80
10, 133737, Note_off_c, 1, 67, 64
10, 133782, Note_on_c, 1, 71, 70
10, 133785, Note_off_c, 1, 69, 64
10, 133839, Note_off_c, 1, 71, 64
10, 133839, Note_on_c, 1, 67, 72
10, 133878, Note_off_c, 1, 67, 64
10, 133907, Note_on_c, 1, 72, 82
10, 133966, Note_on_c, 1, 74, 82
10, 133970, Note_off_c, 1, 72, 64
10, 134023, Note_off_c, 1, 74, 64
10, 134026, Note_on_c, 1, 72, 70
10, 134076, Note_off_c, 1, 72, 64
10, 134084, Note_on_c, 1, 70, 57
10, 134133, Note_off_c, 1, 70, 64
10, 134158, Note_on_c, 1, 69, 89
10, 134212, Note_off_c, 1, 69, 64
10, 134278, Note_on_c, 1, 69, 87
10, 134319, Note_off_c, 1, 69, 64
10, 134402, Note_on_c, 1, 74, 85
10, 134455, Note_on_c, 1, 72, 80
10, 134466, Note_off_c, 1, 74, 64
10, 134508, Note_off_c, 1, 72, 64
10, 134509, Note_on_c, 1, 71, 72
10, 134566, Note_off_c, 1, 71, 64
10, 134569, Note_on_c, 1, 72, 64
10, 134616, Note_off_c, 1, 72, 64
10, 134636, Note_on_c, 1, 74, 82
10, 134679, Note_on_c, 1, 72, 66
10, 134689, Note_off_c, 1, 74, 64
10, 134735, Note_off_c, 1, 72, 64
10, 134748, Note_on_c, 1, 74, 72
10, 134801, Note_off_c, 1, 74, 64
10, 134805, Note_on_c, 1, 71, 66
10, 134843, Note_off_c, 1, 71, 64
10, 134866, Note_on_c, 1, 72, 82
10, 134979, Note_off_c, 1, 72, 64
10, 135027, Note_on_c, 1, 74, 68
10, 135050, Note_off_c, 1, 74, 64
10, 135093, Note_on_c, 1, 72, 80
10, 135120, Note_on_c, 1, 71, 85
10, 135125, Note_off_c, 1, 72, 64
10, 135151, Note_on_c, 1, 72, 70
10, 135156, Note_off_c, 1, 71, 64
10, 135171, Note_on_c, 1, 71, 80
10, 135189, Note_off_c, 1, 72, 64
10, 135234, Note_off_c, 1, 71, 64
10, 135290, Note_on_c, 1, 67, 72
10, 135319, Note_off_c, 1, 67, 64
10, 135354, Note_on_c, 1, 67, 89
10, 135485, Note_off_c, 1, 67, 64
10, 140757, Note_on_c, 1, 69, 66
10, 140792, Note_off_c, 1, 69, 64
10, 140871, Note_on_c, 1, 69, 80
10, 140913, Note_off_c, 1, 69, 64
10, 140993, Note_on_c, 1, 69, 82
10, 141036, Note_off_c, 1, 69, 64
10, 141110, Note_on_c, 1, 67, 80
10, 141227, Note_on_c, 1, 69, 64
10, 141230, Note_off_c, 1, 67, 64
10, 141274, Note_on_c, 1, 71, 74
10, 141279, Note_off_c, 1, 69, 64
10, 141324, Note_off_c, 1, 71, 64
10, 141339, Note_on_c, 1, 72, 82
10, 141381, Note_off_c, 1, 72, 64
10, 141459, Note_on_c, 1, 69, 74
10, 141503, Note_off_c, 1, 69, 64
10, 141582, Note_on_c, 1, 66, 64
10, 141630, Note_off_c, 1, 66, 64
10, 141701, Note_on_c, 1, 71, 85
10, 141747, Note_off_c, 1, 71, 64
10, 141824, Note_on_c, 1, 59, 72
10, 141889, Note_off_c, 1, 59, 64
10, 141943, Note_on_c, 1, 69, 87
10, 141985, Note_off_c, 1, 69, 64
10, 142066, Note_on_c, 1, 68, 78
10, 142181, Note_off_c, 1, 68, 64
10, 142183, Note_on_c, 1, 69, 74
10, 142232, Note_off_c, 1, 69, 64
10, 142239, Note_on_c, 1, 71, 70
10, 142284, Note_off_c, 1, 71, 64
10, 142305, Note_on_c, 1, 72, 85
10, 142355, Note_off_c, 1, 72, 64
10, 142429, Note_on_c, 1, 76, 85
10, 142475, Note_off_c, 1, 76, 64
10, 142548, Note_on_c, 1, 72, 72
10, 142588, Note_off_c, 1, 72, 64
10, 142668, Note_on_c, 1, 77, 85
10, 142712, Note_off_c, 1, 77, 64
10, 142781, Note_on_c, 1, 71, 80
10, 142826, Note_off_c, 1, 71, 64
10, 142903, Note_on_c, 1, 74, 82
10, 142938, Note_off_c, 1, 74, 64
10, 143027, Note_on_c, 1, 72, 82
10, 143084, Note_on_c, 1, 74, 82
10, 143087, Note_off_c, 1, 72, 64
10, 143140, Note_off_c, 1, 74, 64
10, 143144, Note_on_c, 1, 76, 68
10, 143203, Note_on_c, 1, 74, 76
10, 143205, Note_off_c, 1, 76, 64
10, 143242, Note_off_c, 1, 74, 64
10, 143263, Note_on_c, 1, 72, 68
10, 143312, Note_off_c, 1, 72, 64
10, 143322, Note_on_c, 1, 71, 59
10, 143375, Note_off_c, 1, 71, 64
10, 143382, Note_on_c, 1, 72, 72
10, 143429, Note_off_c, 1, 72, 64
10, 143434, Note_on_c, 1, 69, 64
10, 143478, Note_off_c, 1, 69, 64
10, 143497, Note_on_c, 1, 64, 82
10, 143552, Note_off_c, 1, 64, 64
10, 143555, Note_on_c, 1, 72, 70
10, 143616, Note_on_c, 1, 71, 68
10, 143630, Note_off_c, 1, 72, 64
10, 143678, Note_off_c, 1, 71, 64
10, 143678, Note_on_c, 1, 69, 63
10, 143736, Note_off_c, 1, 69, 64
10, 143743, Note_on_c, 1, 67, 64
10, 143796, Note_on_c, 1, 66, 64
10, 143799, Note_off_c, 1, 67, 64
10, 143853, Note_off_c, 1, 66, 64
10, 143858, Note_on_c, 1, 67, 66
10, 143902, Note_off_c, 1, 67, 64
10, 143921, Note_on_c, 1, 64, 60
10, 143964, Note_off_c, 1, 64, 64
10, 143996, Note_on_c, 1, 69, 70
10, 144042, Note_off_c, 1, 69, 64
10, 144109, Note_on_c, 1, 69, 85
10, 144152, Note_off_c, 1, 69, 64
10, 144230, Note_on_c, 1, 69, 87
10, 144274, Note_off_c, 1, 69, 64
10, 144347, Note_on_c, 1, 69, 87
10, 144387, Note_off_c, 1, 69, 64
10, 144463, Note_on_c, 1, 67, 80
10, 144576, Note_on_c, 1, 69, 85
10, 144581, Note_off_c, 1, 67, 64
10, 144626, Note_on_c, 1, 71, 80
10, 144628, Note_off_c, 1, 69, 64
10, 144675, Note_off_c, 1, 71, 64
10, 144692, Note_on_c, 1, 72, 87
10, 144733, Note_off_c, 1, 72, 64
10, 144813, Note_on_c, 1, 69, 85
10, 144856, Note_off_c, 1, 69, 64
10, 144936, Note_on_c, 1, 66, 82
10, 144979, Note_off_c, 1, 66, 64
10, 145059, Note_on_c, 1, 71, 87
10, 145104, Note_off_c, 1, 71, 64
10, 145180, Note_on_c, 1, 59, 85
10, 145232, Note_off_c, 1, 59, 64
10, 145299, Note_on_c, 1, 69, 82
10, 145344, Note_off_c, 1, 69, 64
10, 145423, Note_on_c, 1, 68, 72
10, 145468, Note_off_c, 1, 68, 64
10, 145544, Note_on_c, 1, 64, 82
10, 145592, Note_off_c, 1, 64, 64
10, 145662, Note_on_c, 1, 69, 85
10, 146003, Note_off_c, 1, 69, 64
10, 146082, Note_on_c, 1, 71, 76
10, 146109, Note_off_c, 1, 71, 64
10, 146156, Note_on_c, 1, 69, 82
10, 146179, Note_on_c, 1, 68, 82
10, 146187, Note_off_c, 1, 69, 64
10, 146206, Note_on_c, 1, 69, 80
10, 146209, Note_off_c, 1, 68, 64
10, 146234, Note_on_c, 1, 68, 74
10, 146250, Note_off_c, 1, 69, 64
10, 146283, Note_off_c, 1, 68, 64
10, 146328, Note_on_c, 1, 69, 80
10, 146357, Note_off_c, 1, 69, 64
10, 146399, Note_on_c, 1, 69, 85
10, 146635, Note_off_c, 1, 69, 64
10, 146671, Note_on_c, 1, 69, 80
10, 146720, Note_off_c, 1, 69, 64
10, 146733, Note_on_c, 1, 71, 80
10, 146781, Note_off_c, 1, 71, 64
10, 146791, Note_on_c, 1, 72, 78
10, 146832, Note_off_c, 1, 72, 64
10, 146864, Note_on_c, 1, 74, 87
10, 146919, Note_on_c, 1, 76, 82
10, 146931, Note_off_c, 1, 74, 64
10, 146978, Note_on_c, 1, 74, 74
10, 146986, Note_off_c, 1, 76, 64
10, 147035, Note_on_c, 1, 72, 66
10, 147041, Note_off_c, 1, 74, 64
10, 147088, Note_off_c, 1, 72, 64
10, 147103, Note_on_c, 1, 71, 68
10, 147157, Note_off_c, 1, 71, 64
10, 147161, Note_on_c, 1, 69, 62
10, 147216, Note_on_c, 1, 68, 60
10, 147227, Note_off_c, 1, 69, 64
10, 147270, Note_off_c, 1, 68, 64
10, 147271, Note_on_c, 1, 71, 64
10, 147320, Note_off_c, 1, 71, 64
10, 147339, Note_on_c, 1, 69, 85
10, 147395, Note_on_c, 1, 71, 70
10, 147408, Note_off_c, 1, 69, 64
10, 147455, Note_on_c, 1, 72, 66
10, 147462, Note_off_c, 1, 71, 64
10, 147505, Note_off_c, 1, 72, 64
10, 147508, Note_on_c, 1, 74, 74
10, 147566, Note_off_c, 1, 74, 64
10, 147575, Note_on_c, 1, 76, 61
10, 147637, Note_on_c, 1, 78, 74
10, 147651, Note_off_c, 1, 76, 64
10, 147697, Note_off_c, 1, 78, 64
10, 147700, Note_on_c, 1, 80, 82
10, 147747, Note_off_c, 1, 80, 64
10, 147758, Note_on_c, 1, 76, 80
10, 147792, Note_off_c, 1, 76, 64
10, 147822, Note_on_c, 1, 81, 87
10, 147872, Note_off_c, 1, 81, 64
10, 147946, Note_on_c, 1, 69, 80
10, 147991, Note_off_c, 1, 69, 64
10, 148074, Note_on_c, 1, 74, 89
10, 148364, Note_off_c, 1, 74, 64
10, 148437, Note_on_c, 1, 72, 80
10, 148486, Note_on_c, 1, 71, 72
10, 148492, Note_off_c, 1, 72, 64
10, 148531, Note_off_c, 1, 71, 64
10, 148548, Note_on_c, 1, 76, 82
10, 148592, Note_off_c, 1, 76, 64
10, 148667, Note_on_c, 1, 68, 82
10, 148712, Note_off_c, 1, 68, 64
10, 148790, Note_on_c, 1, 69, 82
10, 148913, Note_off_c, 1, 69, 64
10, 148961, Note_on_c, 1, 71, 80
10, 148987, Note_off_c, 1, 71, 64
10, 149029, Note_on_c, 1, 69, 85
10, 149058, Note_on_c, 1, 68, 87
10, 149066, Note_off_c, 1, 69, 64
10, 149085, Note_on_c, 1, 69, 72
10, 149088, Note_off_c, 1, 68, 64
10, 149109, Note_on_c, 1, 68, 78
10, 149126, Note_off_c, 1, 69, 64
10, 149164, Note_off_c, 1, 68, 64
10, 149200, Note_on_c, 1, 69, 78
10, 149230, Note_off_c, 1, 69, 64
10, 149268, Note_on_c, 1, 69, 89
10, 149411, Note_off_c, 1, 69, 64
10, 166187, Note_on_c, 1, 71, 55
10, 166230, Note_off_c, 1, 71, 64
10, 166311, Note_on_c, 1, 71, 55
10, 166350, Note_off_c, 1, 71, 64
10, 166426, Note_on_c, 1, 71, 57
10, 166472, Note_off_c, 1, 71, 64
10, 166542, Note_on_c, 1, 67, 60
10, 166663, Note_off_c, 1, 67, 64
10, 166674, Note_on_c, 1, 69, 62
10, 166717, Note_off_c, 1, 69, 64
10, 166724, Note_on_c, 1, 71, 66
10, 166769, Note_off_c, 1, 71, 64
10, 166784, Note_on_c, 1, 72, 62
10, 166822, Note_off_c, 1, 72, 64
10, 166907, Note_on_c, 1, 69, 64
10, 166952, Note_off_c, 1, 69, 64
10, 167028, Note_on_c, 1, 66, 60
10, 167078, Note_off_c, 1, 66, 64
10, 167145, Note_on_c, 1, 71, 64
10, 167189, Note_off_c, 1, 71, 64
10, 167267, Note_on_c, 1, 59, 68
10, 167327, Note_off_c, 1, 59, 64
10, 167392, Note_on_c, 1, 69, 63
10, 167433, Note_off_c, 1, 69, 64
10, 167521, Note_on_c, 1, 67, 56
10, 167754, Note_off_c, 1, 67, 64
10, 170450, Note_on_c, 1, 72, 68
10, 170498, Note_off_c, 1, 72, 64
10, 170506, Note_on_c, 1, 71, 63
10, 170555, Note_off_c, 1, 71, 64
10, 170561, Note_on_c, 1, 69, 57
10, 170613, Note_off_c, 1, 69, 64
10, 170619, Note_on_c, 1, 67, 59
10, 170677, Note_on_c, 1, 66, 62
10, 170684, Note_off_c, 1, 67, 64
10, 170733, Note_off_c, 1, 66, 64
10, 170737, Note_on_c, 1, 67, 59
10, 170781, Note_off_c, 1, 67, 64
10, 170796, Note_on_c, 1, 64, 63
10, 170840, Note_off_c, 1, 64, 64
10, 170859, Note_on_c, 1, 72, 78
10, 170914, Note_off_c, 1, 72, 64
10, 170919, Note_on_c, 1, 71, 72
10, 170963, Note_off_c, 1, 71, 64
10, 170976, Note_on_c, 1, 69, 72
10, 171017, Note_off_c, 1, 69, 64
10, 171033, Note_on_c, 1, 67, 62
10, 171087, Note_off_c, 1, 67, 64
10, 171108, Note_on_c, 1, 66, 61
10, 171152, Note_off_c, 1, 66, 64
10, 171227, Note_on_c, 1, 71, 70
10, 171267, Note_off_c, 1, 71, 64
10, 171347, Note_on_c, 1, 64, 57
10, 171585, Note_off_c, 1, 64, 64
10, 172429, Note_on_c, 1, 76, 62
10, 172468, Note_off_c, 1, 76, 64
10, 172544, Note_on_c, 1, 76, 62
10, 172591, Note_off_c, 1, 76, 64
10, 172665, Note_on_c, 1, 76, 66
10, 172710, Note_off_c, 1, 76, 64
10, 172782, Note_on_c, 1, 72, 64
10, 172894, Note_off_c, 1, 72, 64
10, 172913, Note_on_c, 1, 74, 78
10, 172965, Note_off_c, 1, 74, 64
10, 172965, Note_on_c, 1, 76, 64
10, 173008, Note_off_c, 1, 76, 64
10, 173024, Note_on_c, 1, 77, 66
10, 173067, Note_off_c, 1, 77, 64
10, 173142, Note_on_c, 1, 74, 64
10, 173185, Note_off_c, 1, 74, 64
10, 173264, Note_on_c, 1, 71, 68
10, 173312, Note_off_c, 1, 71, 64
10, 173387, Note_on_c, 1, 74, 70
10, 173428, Note_off_c, 1, 74, 64
10, 173504, Note_on_c, 1, 64, 70
10, 173552, Note_off_c, 1, 64, 64
10, 173621, Note_on_c, 1, 74, 62
10, 173659, Note_off_c, 1, 74, 64
10, 173744, Note_on_c, 1, 72, 59
10, 173818, Note_off_c, 1, 72, 64
10, 173869, Note_on_c, 1, 76, 91
10, 173916, Note_off_c, 1, 76, 64
10, 173988, Note_on_c, 1, 76, 85
10, 174033, Note_off_c, 1, 76, 64
10, 174111, Note_on_c, 1, 76, 82
10, 174154, Note_off_c, 1, 76, 64
10, 174229, Note_on_c, 1, 74, 80
10, 174344, Note_off_c, 1, 74, 64
10, 174365, Note_on_c, 1, 74, 64
10, 174410, Note_off_c, 1, 74, 64
10, 174479, Note_on_c, 1, 74, 62
10, 174524, Note_off_c, 1, 74, 64
10, 174591, Note_on_c, 1, 74, 60
10, 174635, Note_off_c, 1, 74, 64
10, 174715, Note_on_c, 1, 70, 57
10, 174824, Note_off_c, 1, 70, 64
10, 174842, Note_on_c, 1, 72, 64
10, 174888, Note_off_c, 1, 72, 64
10, 174891, Note_on_c, 1, 74, 62
10, 174942, Note_off_c, 1, 74, 64
10, 174955, Note_on_c, 1, 75, 55
10, 174995, Note_off_c, 1, 75, 64
10, 175072, Note_on_c, 1, 72, 60
10, 175102, Note_off_c, 1, 72, 64
10, 175185, Note_on_c, 1, 69, 62
10, 175232, Note_off_c, 1, 69, 64
10, 175305, Note_on_c, 1, 72, 57
10, 175338, Note_off_c, 1, 72, 64
10, 175419, Note_on_c, 1, 62, 66
10, 175470, Note_off_c, 1, 62, 64
10, 175541, Note_on_c, 1, 72, 59
10, 175573, Note_off_c, 1, 72, 64
10, 175661, Note_on_c, 1, 70, 60
10, 175747, Note_off_c, 1, 70, 64
10, 175785, Note_on_c, 1, 74, 87
10, 175832, Note_off_c, 1, 74, 64
10, 175907, Note_on_c, 1, 74, 100
10, 175953, Note_off_c, 1, 74, 64
10, 176032, Note_on_c, 1, 74, 95
10, 176078, Note_off_c, 1, 74, 64
10, 176147, Note_on_c, 1, 72, 95
10, 176241, Note_off_c, 1, 72, 64
10, 176274, Note_on_c, 1, 72, 62
10, 176310, Note_off_c, 1, 72, 64
10, 176392, Note_on_c, 1, 72, 64
10, 176437, Note_off_c, 1, 72, 64
10, 176512, Note_on_c, 1, 72, 66
10, 176550, Note_off_c, 1, 72, 64
10, 176628, Note_on_c, 1, 69, 64
10, 176729, Note_off_c, 1, 69, 64
10, 176752, Note_on_c, 1, 70, 62
10, 176799, Note_off_c, 1, 70, 64
10, 176809, Note_on_c, 1, 72, 66
10, 176850, Note_off_c, 1, 72, 64
10, 176873, Note_on_c, 1, 74, 70
10, 176907, Note_off_c, 1, 74, 64
10, 176987, Note_on_c, 1, 70, 64
10, 177026, Note_off_c, 1, 70, 64
10, 177106, Note_on_c, 1, 67, 70
10, 177152, Note_off_c, 1, 67, 64
10, 177227, Note_on_c, 1, 70, 64
10, 177270, Note_off_c, 1, 70, 64
10, 177344, Note_on_c, 1, 60, 78
10, 177395, Note_off_c, 1, 60, 64
10, 177462, Note_on_c, 1, 70, 64
10, 177495, Note_off_c, 1, 70, 64
10, 177591, Note_on_c, 1, 69, 78
10, 177658, Note_off_c, 1, 69, 64
10, 177715, Note_on_c, 1, 77, 80
10, 177753, Note_off_c, 1, 77, 64
10, 177834, Note_on_c, 1, 77, 85
10, 177880, Note_off_c, 1, 77, 64
10, 177949, Note_on_c, 1, 77, 82
10, 177990, Note_off_c, 1, 77, 64
10, 178065, Note_on_c, 1, 76, 89
10, 178174, Note_off_c, 1, 76, 64
10, 178188, Note_on_c, 1, 77, 80
10, 178235, Note_off_c, 1, 77, 64
10, 178238, Note_on_c, 1, 79, 87
10, 178281, Note_off_c, 1, 79, 64
10, 178300, Note_on_c, 1, 81, 87
10, 178340, Note_off_c, 1, 81, 64
10, 178421, Note_on_c, 1, 77, 85
10, 178472, Note_off_c, 1, 77, 64
10, 178536, Note_on_c, 1, 74, 82
10, 178591, Note_off_c, 1, 74, 64
10, 178665, Note_on_c, 1, 79, 87
10, 178708, Note_off_c, 1, 79, 64
10, 178788, Note_on_c, 1, 67, 93
10, 178836, Note_off_c, 1, 67, 64
10, 178909, Note_on_c, 1, 79, 85
10, 179053, Note_off_c, 1, 79, 64
10, 195411, Note_on_c, 1, 59, 82
10, 195472, Note_off_c, 1, 59, 64
10, 195473, Note_on_c, 1, 60, 78
10, 195528, Note_off_c, 1, 60, 64
10, 195530, Note_on_c, 1, 62, 68
10, 195582, Note_off_c, 1, 62, 64
10, 195593, Note_on_c, 1, 64, 78
10, 195638, Note_off_c, 1, 64, 64
10, 195643, Note_on_c, 1, 62, 68
10, 195707, Note_off_c, 1, 62, 64
10, 195714, Note_on_c, 1, 64, 64
10, 195771, Note_off_c, 1, 64, 64
10, 195776, Note_on_c, 1, 65, 61
10, 195827, Note_off_c, 1, 65, 64
10, 195842, Note_on_c, 1, 67, 68
10, 195898, Note_on_c, 1, 70, 70
10, 195899, Note_off_c, 1, 67, 64
10, 195951, Note_off_c, 1, 70, 64
10, 195958, Note_on_c, 1, 69, 80
10, 196014, Note_off_c, 1, 69, 64
10, 196017, Note_on_c, 1, 67, 60
10, 196066, Note_off_c, 1, 67, 64
10, 196077, Note_on_c, 1, 65, 63
10, 196128, Note_off_c, 1, 65, 64
10, 196131, Note_on_c, 1, 64, 51
10, 196180, Note_off_c, 1, 64, 64
10, 196194, Note_on_c, 1, 65, 58
10, 196239, Note_off_c, 1, 65, 64
10, 196247, Note_on_c, 1, 62, 60
10, 196294, Note_off_c, 1, 62, 64
10, 196309, Note_on_c, 1, 67, 80
10, 196357, Note_off_c, 1, 67, 64
10, 196367, Note_on_c, 1, 65, 70
10, 196411, Note_off_c, 1, 65, 64
10, 196425, Note_on_c, 1, 67, 66
10, 196478, Note_off_c, 1, 67, 64
10, 196485, Note_on_c, 1, 69, 66
10, 196537, Note_off_c, 1, 69, 64
10, 196548, Note_on_c, 1, 67, 70
10, 196601, Note_off_c, 1, 67, 64
10, 196607, Note_on_c, 1, 65, 64
10, 196656, Note_off_c, 1, 65, 64
10, 196669, Note_on_c, 1, 64, 59
10, 196717, Note_off_c, 1, 64, 64
10, 196731, Note_on_c, 1, 62, 68
10, 196772, Note_off_c, 1, 62, 64
10, 196794, Note_on_c, 1, 60, 80
10, 196865, Note_off_c, 1, 60, 64
10, 196917, Note_on_c, 1, 76, 85
10, 196970, Note_off_c, 1, 76, 64
10, 197040, Note_on_c, 1, 72, 82
10, 197085, Note_off_c, 1, 72, 64
10, 197162, Note_on_c, 1, 69, 72
10, 197373, Note_off_c, 1, 69, 64
10, 197401, Note_on_c, 1, 67, 87
10, 197439, Note_off_c, 1, 67, 64
10, 197449, Note_on_c, 1, 65, 80
10, 197497, Note_off_c, 1, 65, 64
10, 197512, Note_on_c, 1, 64, 85
10, 197558, Note_off_c, 1, 64, 64
10, 197630, Note_on_c, 1, 67, 87
10, 197671, Note_off_c, 1, 67, 64
10, 197755, Note_on_c, 1, 69, 82
10, 198010, Note_off_c, 1, 69, 64
10, 198041, Note_on_c, 1, 69, 80
10, 198093, Note_off_c, 1, 69, 64
10, 198098, Note_on_c, 1, 71, 82
10, 198146, Note_off_c, 1, 71, 64
10, 198157, Note_on_c, 1, 72, 80
10, 198202, Note_off_c, 1, 72, 64
10, 198224, Note_on_c, 1, 74, 87
10, 198273, Note_off_c, 1, 74, 64
10, 198282, Note_on_c, 1, 72, 80
10, 198326, Note_off_c, 1, 72, 64
10, 198343, Note_on_c, 1, 74, 87
10, 198387, Note_off_c, 1, 74, 64
10, 198400, Note_on_c, 1, 71, 78
10, 198443, Note_off_c, 1, 71, 64
10, 198468, Note_on_c, 1, 72, 89
10, 198733, Note_off_c, 1, 72, 64
10, 198762, Note_on_c, 1, 72, 78
10, 198813, Note_off_c, 1, 72, 64
10, 198818, Note_on_c, 1, 70, 72
10, 198864, Note_off_c, 1, 70, 64
10, 198873, Note_on_c, 1, 72, 87
10, 198921, Note_off_c, 1, 72, 64
10, 198943, Note_on_c, 1, 74, 80
10, 199219, Note_off_c, 1, 74, 64
10, 199242, Note_on_c, 1, 76, 82
10, 199287, Note_off_c, 1, 76, 64
10, 199304, Note_on_c, 1, 74, 80
10, 199341, Note_off_c, 1, 74, 64
10, 199355, Note_on_c, 1, 76, 76
10, 199393, Note_off_c, 1, 76, 64
10, 199415, Note_on_c, 1, 72, 82
10, 199757, Note_off_c, 1, 72, 64
10, 199787, Note_on_c, 1, 71, 89
10, 199835, Note_off_c, 1, 71, 64
10, 199842, Note_on_c, 1, 69, 82
10, 199888, Note_off_c, 1, 69, 64
10, 199904, Note_on_c, 1, 67, 82
10, 199954, Note_off_c, 1, 67, 64
10, 200027, Note_on_c, 1, 71, 85
10, 200072, Note_off_c, 1, 71, 64
10, 200153, Note_on_c, 1, 72, 95
10, 200298, Note_off_c, 1, 72, 64
10, 200322, Note_on_c, 1, 74, 85
10, 200372, Note_off_c, 1, 74, 64
10, 200383, Note_on_c, 1, 72, 74
10, 200422, Note_off_c, 1, 72, 64
10, 200439, Note_on_c, 1, 71, 87
10, 200481, Note_off_c, 1, 71, 64
10, 200499, Note_on_c, 1, 69, 85
10, 200542, Note_off_c, 1, 69, 64
10, 200552, Note_on_c, 1, 67, 87
10, 200587, Note_off_c, 1, 67, 64
10, 200625, Note_on_c, 1, 65, 89
10, 200760, Note_off_c, 1, 65, 64
10, 200801, Note_on_c, 1, 72, 78
10, 200845, Note_off_c, 1, 72, 64
10, 200870, Note_on_c, 1, 71, 85
10, 200929, Note_on_c, 1, 69, 78
10, 200942, Note_off_c, 1, 71, 64
10, 200968, Note_off_c, 1, 69, 64
10, 200984, Note_on_c, 1, 67, 98
10, 201031, Note_off_c, 1, 67, 64
10, 201038, Note_on_c, 1, 65, 78
10, 201080, Note_off_c, 1, 65, 64
10, 201106, Note_on_c, 1, 64, 85
10, 201244, Note_off_c, 1, 64, 64
10, 201282, Note_on_c, 1, 71, 82
10, 201317, Note_off_c, 1, 71, 64
10, 201348, Note_on_c, 1, 69, 100
10, 201404, Note_off_c, 1, 69, 64
10, 201404, Note_on_c, 1, 67, 80
10, 201448, Note_off_c, 1, 67, 64
10, 201465, Note_on_c, 1, 65, 87
10, 201510, Note_off_c, 1, 65, 64
10, 201520, Note_on_c, 1, 64, 72
10, 201561, Note_off_c, 1, 64, 64
10, 201574, Note_on_c, 1, 62, 68
10, 201727, Note_off_c, 1, 62, 64
10, 201776, Note_on_c, 1, 69, 89
10, 201810, Note_off_c, 1, 69, 64
10, 201837, Note_on_c, 1, 67, 91
10, 201872, Note_off_c, 1, 67, 64
10, 201886, Note_on_c, 1, 65, 98
10, 201930, Note_off_c, 1, 65, 64
10, 201944, Note_on_c, 1, 64, 95
10, 201985, Note_off_c, 1, 64, 64
10, 202000, Note_on_c, 1, 62, 85
10, 202039, Note_off_c, 1, 62, 64
10, 202070, Note_on_c, 1, 60, 82
10, 202224, Note_off_c, 1, 60, 64
10, 202252, Note_on_c, 1, 67, 80
10, 202295, Note_off_c, 1, 67, 64
10, 202310, Note_on_c, 1, 65, 82
10, 202357, Note_off_c, 1, 65, 64
10, 202365, Note_on_c, 1, 64, 78
10, 202411, Note_off_c, 1, 64, 64
10, 202422, Note_on_c, 1, 62, 74
10, 202458, Note_off_c, 1, 62, 64
10, 202473, Note_on_c, 1, 60, 78
10, 202513, Note_off_c, 1, 60, 64
10, 202550, Note_on_c, 1, 67, 80
10, 202600, Note_off_c, 1, 67, 64
10, 202671, Note_on_c, 1, 71, 87
10, 202721, Note_off_c, 1, 71, 64
10, 202792, Note_on_c, 1, 67, 89
10, 202848, Note_on_c, 1, 69, 80
10, 202851, Note_off_c, 1, 67, 64
10, 202901, Note_off_c, 1, 69, 64
10, 202908, Note_on_c, 1, 71, 87
10, 202962, Note_on_c, 1, 67, 85
10, 202963, Note_off_c, 1, 71, 64
10, 203003, Note_off_c, 1, 67, 64
10, 203025, Note_on_c, 1, 72, 85
10, 203080, Note_on_c, 1, 74, 87
10, 203084, Note_off_c, 1, 72, 64
10, 203125, Note_off_c, 1, 74, 64
10, 203142, Note_on_c, 1, 72, 91
10, 203190, Note_off_c, 1, 72, 64
10, 203199, Note_on_c, 1, 70, 82
10, 203241, Note_off_c, 1, 70, 64
10, 203264, Note_on_c, 1, 69, 95
10, 203318, Note_off_c, 1, 69, 64
10, 203385, Note_on_c, 1, 69, 87
10, 203432, Note_off_c, 1, 69, 64
10, 203515, Note_on_c, 1, 74, 91
10, 203568, Note_off_c, 1, 74, 64
10, 203575, Note_on_c, 1, 72, 87
10, 203622, Note_off_c, 1, 72, 64
10, 203633, Note_on_c, 1, 71, 85
10, 203680, Note_off_c, 1, 71, 64
10, 203691, Note_on_c, 1, 72, 95
10, 203731, Note_off_c, 1, 72, 64
10, 203750, Note_on_c, 1, 74, 93
10, 203800, Note_off_c, 1, 74, 64
10, 203808, Note_on_c, 1, 72, 87
10, 203860, Note_off_c, 1, 72, 64
10, 203865, Note_on_c, 1, 74, 89
10, 203913, Note_off_c, 1, 74, 64
10, 203921, Note_on_c, 1, 71, 78
10, 203969, Note_off_c, 1, 71, 64
10, 203988, Note_on_c, 1, 72, 91
10, 204123, Note_off_c, 1, 72, 64
10, 204156, Note_on_c, 1, 74, 82
10, 204188, Note_off_c, 1, 74, 64
10, 204222, Note_on_c, 1, 72, 93
10, 204242, Note_on_c, 1, 71, 82
10, 204246, Note_off_c, 1, 72, 64
10, 204271, Note_on_c, 1, 72, 82
10, 204274, Note_off_c, 1, 71, 64
10, 204296, Note_on_c, 1, 71, 76
10, 204309, Note_off_c, 1, 72, 64
10, 204360, Note_off_c, 1, 71, 64
10, 204397, Note_on_c, 1, 67, 78
10, 204433, Note_off_c, 1, 67, 64
10, 204465, Note_on_c, 1, 67, 93
10, 204619, Note_off_c, 1, 67, 64
10, 218095, Note_on_c, 1, 74, 93
10, 218138, Note_off_c, 1, 74, 64
10, 218157, Note_on_c, 1, 72, 85
10, 218250, Note_off_c, 1, 72, 64
10, 218325, Note_on_c, 1, 74, 85
10, 218363, Note_off_c, 1, 74, 64
10, 218395, Note_on_c, 1, 72, 85
10, 218467, Note_on_c, 1, 71, 57
10, 218476, Note_off_c, 1, 72, 64
10, 218499, Note_off_c, 1, 71, 64
10, 218499, Note_on_c, 1, 72, 66
10, 218525, Note_on_c, 1, 71, 70
10, 218528, Note_off_c, 1, 72, 64
10, 218545, Note_off_c, 1, 71, 64
10, 218547, Note_on_c, 1, 72, 70
10, 218566, Note_on_c, 1, 71, 68
10, 218568, Note_off_c, 1, 72, 64
10, 218584, Note_off_c, 1, 71, 64
10, 218586, Note_on_c, 1, 72, 78
10, 218602, Note_on_c, 1, 71, 74
10, 218606, Note_off_c, 1, 72, 64
10, 218623, Note_off_c, 1, 71, 64
10, 218623, Note_on_c, 1, 72, 80
10, 218634, Note_on_c, 1, 71, 80
10, 218643, Note_off_c, 1, 72, 64
10, 218740, Note_off_c, 1, 71, 64
10, 218809, Note_on_c, 1, 67, 80
10, 218843, Note_off_c, 1, 67, 64
10, 218882, Note_on_c, 1, 67, 95
10, 219615, Note_off_c, 1, 67, 64
10, 219615, End_track
11, 0, Start_track
11, 0, Title_t, "Viola"
11, 0, Program_c, 2, 41
11, 0, Control_c, 2, 7, 100
11, 16320, Note_on_c, 2, 67, 82
11, 16904, Note_off_c, 2, 67, 64
11, 16968, Note_on_c, 2, 67, 72
11, 17003, Note_off_c, 2, 67, 64
11, 17033, Note_on_c, 2, 60, 68
11, 17109, Note_off_c, 2, 60, 64
11, 17202, Note_on_c, 2, 64, 76
11, 17235, Note_off_c, 2, 64, 64
11, 17270, Note_on_c, 2, 65, 64
11, 17616, Note_off_c, 2, 65, 64
11, 17681, Note_on_c, 2, 69, 80
11, 17726, Note_off_c, 2, 69, 64
11, 17749, Note_on_c, 2, 67, 87
11, 17830, Note_off_c, 2, 67, 64
11, 17924, Note_on_c, 2, 69, 78
11, 17969, Note_off_c, 2, 69, 64
11, 17988, Note_on_c, 2, 67, 82
11, 18064, Note_off_c, 2, 67, 64
11, 18156, Note_on_c, 2, 65, 59
11, 18189, Note_off_c, 2, 65, 64
11, 18229, Note_on_c, 2, 64, 64
11, 18594, Note_off_c, 2, 64, 64
11, 18647, Note_on_c, 2, 64, 78
11, 18681, Note_off_c, 2, 64, 64
11, 18714, Note_on_c, 2, 62, 72
11, 19074, Note_off_c, 2, 62, 64
11, 19130, Note_on_c, 2, 62, 66
11, 19161, Note_off_c, 2, 62, 64
11, 19193, Note_on_c, 2, 62, 70
11, 19348, Note_off_c, 2, 62, 64
11, 19423, Note_on_c, 2, 67, 72
11, 19544, Note_off_c, 2, 67, 64
11, 19669, Note_on_c, 2, 67, 78
11, 20012, Note_off_c, 2, 67, 64
11, 20082, Note_on_c, 2, 67, 85
11, 20110, Note_off_c, 2, 67, 64
11, 20148, Note_on_c, 2, 67, 68
11, 20750, Note_off_c, 2, 67, 64
11, 20809, Note_on_c, 2, 62, 72
11, 20838, Note_off_c, 2, 62, 64
11, 20873, Note_on_c, 2, 67, 87
11, 20953, Note_off_c, 2, 67, 64
11, 21055, Note_on_c, 2, 66, 63
11, 21094, Note_off_c, 2, 66, 64
11, 21120, Note_on_c, 2, 64, 80
11, 21203, Note_off_c, 2, 64, 64
11, 21286, Note_on_c, 2, 67, 68
11, 21326, Note_off_c, 2, 67, 64
11, 21354, Note_on_c, 2, 69, 85
11, 21417, Note_off_c, 2, 69, 64
11, 21524, Note_on_c, 2, 71, 72
11, 21559, Note_off_c, 2, 71, 64
11, 21590, Note_on_c, 2, 72, 70
11, 21664, Note_off_c, 2, 72, 64
11, 21764, Note_on_c, 2, 71, 74
11, 21802, Note_off_c, 2, 71, 64
11, 21829, Note_on_c, 2, 69, 82
11, 21903, Note_off_c, 2, 69, 64
11, 22004, Note_on_c, 2, 57, 85
11, 22046, Note_off_c, 2, 57, 64
11, 22080, Note_on_c, 2, 64, 72
11, 22679, Note_off_c, 2, 64, 64
11, 22724, Note_on_c, 2, 64, 76
11, 22762, Note_off_c, 2, 64, 64
11, 22792, Note_on_c, 2, 71, 82
11, 22867, Note_off_c, 2, 71, 64
11, 22974, Note_on_c, 2, 71, 82
11, 23008, Note_off_c, 2, 71, 64
11, 23040, Note_on_c, 2, 69, 78
11, 23624, Note_off_c, 2, 69, 64
11, 23674, Note_on_c, 2, 62, 66
11, 23707, Note_off_c, 2, 62, 64
11, 23746, Note_on_c, 2, 69, 85
11, 23826, Note_off_c, 2, 69, 64
11, 23925, Note_on_c, 2, 69, 82
11, 23962, Note_off_c, 2, 69, 64
11, 23993, Note_on_c, 2, 69, 87
11, 24074, Note_off_c, 2, 69, 64
11, 24162, Note_on_c, 2, 67, 72
11, 24203, Note_off_c, 2, 67, 64
11, 24227, Note_on_c, 2, 66, 70
11, 24307, Note_off_c, 2, 66, 64
11, 24404, Note_on_c, 2, 69, 82
11, 24446, Note_off_c, 2, 69, 64
11, 24475, Note_on_c, 2, 62, 85
11, 24553, Note_off_c, 2, 62, 64
11, 24643, Note_on_c, 2, 67, 76
11, 24679, Note_off_c, 2, 67, 64
11, 24702, Note_on_c, 2, 66, 74
11, 24785, Note_off_c, 2, 66, 64
11, 24887, Note_on_c, 2, 69, 80
11, 24923, Note_off_c, 2, 69, 64
11, 24956, Note_on_c, 2, 67, 80
11, 25509, Note_off_c, 2, 67, 64
11, 25552, Note_on_c, 2, 59, 82
11, 25596, Note_off_c, 2, 59, 64
11, 25612, Note_on_c, 2, 60, 68
11, 25650, Note_off_c, 2, 60, 64
11, 25677, Note_on_c, 2, 62, 85
11, 25716, Note_off_c, 2, 62, 64
11, 25734, Note_on_c, 2, 59, 70
11, 25770, Note_off_c, 2, 59, 64
11, 25793, Note_on_c, 2, 60, 85
11, 25829, Note_off_c, 2, 60, 64
11, 25855, Note_on_c, 2, 62, 82
11, 25888, Note_off_c, 2, 62, 64
11, 25921, Note_on_c, 2, 55, 62
11, 26506, Note_off_c, 2, 55, 64
11, 26566, Note_on_c, 2, 55, 70
11, 26610, Note_off_c, 2, 55, 64
11, 26638, Note_on_c, 2, 60, 82
11, 26717, Note_off_c, 2, 60, 64
11, 26804, Note_on_c, 2, 62, 66
11, 26840, Note_off_c, 2, 62, 64
11, 26874, Note_on_c, 2, 64, 82
11, 27015, Note_off_c, 2, 64, 64
11, 27117, Note_on_c, 2, 57, 76
11, 27256, Note_off_c, 2, 57, 64
11, 27357, Note_on_c, 2, 60, 80
11, 27649, Note_off_c, 2, 60, 64
11, 27762, Note_on_c, 2, 57, 76
11, 27801, Note_off_c, 2, 57, 64
11, 27836, Note_on_c, 2, 64, 91
11, 28177, Note_off_c, 2, 64, 64
11, 28242, Note_on_c, 2, 59, 70
11, 28279, Note_off_c, 2, 59, 64
11, 28309, Note_on_c, 2, 64, 89
11, 28396, Note_off_c, 2, 64, 64
11, 28487, Note_on_c, 2, 62, 80
11, 28522, Note_off_c, 2, 62, 64
11, 28550, Note_on_c, 2, 64, 85
11, 28627, Note_off_c, 2, 64, 64
11, 28720, Note_on_c, 2, 60, 68
11, 28759, Note_off_c, 2, 60, 64
11, 28801, Note_on_c, 2, 67, 85
11, 29137, Note_off_c, 2, 67, 64
11, 29205, Note_on_c, 2, 62, 76
11, 29238, Note_off_c, 2, 62, 64
11, 29274, Note_on_c, 2, 69, 85
11, 29354, Note_off_c, 2, 69, 64
11, 29432, Note_on_c, 2, 67, 70
11, 29479, Note_off_c, 2, 67, 64
11, 29501, Note_on_c, 2, 69, 85
11, 29588, Note_off_c, 2, 69, 64
11, 29677, Note_on_c, 2, 64, 72
11, 29714, Note_off_c, 2, 64, 64
11, 29749, Note_on_c, 2, 57, 85
11, 29825, Note_off_c, 2, 57, 64
11, 29919, Note_on_c, 2, 69, 82
11, 29963, Note_off_c, 2, 69, 64
11, 29988, Note_on_c, 2, 62, 87
11, 30071, Note_off_c, 2, 62, 64
11, 30165, Note_on_c, 2, 64, 82
11, 30197, Note_off_c, 2, 64, 64
11, 30233, Note_on_c, 2, 64, 82
11, 30296, Note_on_c, 2, 62, 53
11, 30300, Note_off_c, 2, 64, 64
11, 30319, Note_off_c, 2, 62, 64
11, 30321, Note_on_c, 2, 64, 60
11, 30344, Note_off_c, 2, 64, 64
11, 30345, Note_on_c, 2, 62, 60
11, 30362, Note_off_c, 2, 62, 64
11, 30365, Note_on_c, 2, 64, 70
11, 30382, Note_off_c, 2, 64, 64
11, 30382, Note_on_c, 2, 62, 64
11, 30399, Note_off_c, 2, 62, 64
11, 30400, Note_on_c, 2, 64, 85
11, 30419, Note_on_c, 2, 62, 59
11, 30423, Note_off_c, 2, 64, 64
11, 30470, Note_off_c, 2, 62, 64
11, 30470, Note_on_c, 2, 60, 68
11, 30646, Note_off_c, 2, 60, 64
11, 30710, Note_on_c, 2, 59, 82
11, 30848, Note_off_c, 2, 59, 64
11, 55313, Note_on_c, 2, 69, 66
11, 55350, Note_off_c, 2, 69, 64
11, 55430, Note_on_c, 2, 69, 70
11, 55472, Note_off_c, 2, 69, 64
11, 55549, Note_on_c, 2, 69, 74
11, 55585, Note_off_c, 2, 69, 64
11, 55663, Note_on_c, 2, 67, 82
11, 55771, Note_off_c, 2, 67, 64
11, 55783, Note_on_c, 2, 69, 66
11, 55828, Note_off_c, 2, 69, 64
11, 55837, Note_on_c, 2, 71, 72
11, 55874, Note_off_c, 2, 71, 64
11, 55899, Note_on_c, 2, 72, 82
11, 55939, Note_off_c, 2, 72, 64
11, 56026, Note_on_c, 2, 69, 78
11, 56063, Note_off_c, 2, 69, 64
11, 56146, Note_on_c, 2, 66, 63
11, 56195, Note_off_c, 2, 66, 64
11, 56270, Note_on_c, 2, 71, 68
11, 56313, Note_off_c, 2, 71, 64
11, 56391, Note_on_c, 2, 59, 63
11, 56450, Note_off_c, 2, 59, 64
11, 56516, Note_on_c, 2, 71, 74
11, 56558, Note_off_c, 2, 71, 64
11, 56629, Note_on_c, 2, 64, 70
11, 56724, Note_off_c, 2, 64, 64
11, 56753, Note_on_c, 2, 67, 93
11, 56800, Note_off_c, 2, 67, 64
11, 56871, Note_on_c, 2, 67, 100
11, 56912, Note_off_c, 2, 67, 64
11, 56996, Note_on_c, 2, 67, 102
11, 57036, Note_off_c, 2, 67, 64
11, 57114, Note_on_c, 2, 64, 89
11, 57207, Note_off_c, 2, 64, 64
11, 57235, Note_on_c, 2, 69, 70
11, 57276, Note_off_c, 2, 69, 64
11, 57357, Note_on_c, 2, 69, 82
11, 57392, Note_off_c, 2, 69, 64
11, 57468, Note_on_c, 2, 69, 78
11, 57511, Note_off_c, 2, 69, 64
11, 57590, Note_on_c, 2, 65, 68
11, 57700, Note_off_c, 2, 65, 64
11, 57712, Note_on_c, 2, 67, 68
11, 57760, Note_off_c, 2, 67, 64
11, 57765, Note_on_c, 2, 69, 68
11, 57815, Note_off_c, 2, 69, 64
11, 57830, Note_on_c, 2, 70, 55
11, 57867, Note_off_c, 2, 70, 64
11, 57948, Note_on_c, 2, 67, 62
11, 57990, Note_off_c, 2, 67, 64
11, 58065, Note_on_c, 2, 64, 66
11, 58117, Note_off_c, 2, 64, 64
11, 58186, Note_on_c, 2, 69, 66
11, 58225, Note_off_c, 2, 69, 64
11, 58303, Note_on_c, 2, 57, 61
11, 58359, Note_off_c, 2, 57, 64
11, 58426, Note_on_c, 2, 69, 64
11, 58464, Note_off_c, 2, 69, 64
11, 58548, Note_on_c, 2, 62, 66
11, 58640, Note_off_c, 2, 62, 64
11, 58674, Note_on_c, 2, 65, 85
11, 58726, Note_off_c, 2, 65, 64
11, 58793, Note_on_c, 2, 65, 102
11, 58837, Note_off_c, 2, 65, 64
11, 58917, Note_on_c, 2, 65, 100
11, 58959, Note_off_c, 2, 65, 64
11, 59039, Note_on_c, 2, 62, 82
11, 59142, Note_off_c, 2, 62, 64
11, 59154, Note_on_c, 2, 67, 82
11, 59196, Note_off_c, 2, 67, 64
11, 59282, Note_on_c, 2, 67, 76
11, 59323, Note_off_c, 2, 67, 64
11, 59399, Note_on_c, 2, 67, 80
11, 59440, Note_off_c, 2, 67, 64
11, 59513, Note_on_c, 2, 64, 80
11, 59612, Note_off_c, 2, 64, 64
11, 59631, Note_on_c, 2, 65, 70
11, 59674, Note_off_c, 2, 65, 64
11, 59689, Note_on_c, 2, 67, 70
11, 59725, Note_off_c, 2, 67, 64
11, 59747, Note_on_c, 2, 69, 87
11, 59789, Note_off_c, 2, 69, 64
11, 59862, Note_on_c, 2, 65, 66
11, 59904, Note_off_c, 2, 65, 64
11, 59987, Note_on_c, 2, 62, 63
11, 60026, Note_off_c, 2, 62, 64
11, 60099, Note_on_c, 2, 67, 70
11, 60139, Note_off_c, 2, 67, 64
11, 60217, Note_on_c, 2, 55, 74
11, 60266, Note_off_c, 2, 55, 64
11, 60331, Note_on_c, 2, 67, 80
11, 60381, Note_off_c, 2, 67, 64
11, 60457, Note_on_c, 2, 60, 68
11, 60508, Note_off_c, 2, 60, 64
11, 60515, Note_on_c, 2, 65, 66
11, 60565, Note_off_c, 2, 65, 64
11, 60576, Note_on_c, 2, 64, 72
11, 60630, Note_off_c, 2, 64, 64
11, 60632, Note_on_c, 2, 62, 70
11, 60670, Note_off_c, 2, 62, 64
11, 60695, Note_on_c, 2, 60, 87
11, 60748, Note_off_c, 2, 60, 64
11, 60752, Note_on_c, 2, 59, 59
11, 60799, Note_off_c, 2, 59, 64
11, 60815, Note_on_c, 2, 60, 68
11, 60862, Note_off_c, 2, 60, 64
11, 60871, Note_on_c, 2, 57, 66
11, 60910, Note_off_c, 2, 57, 64
11, 60939, Note_on_c, 2, 64, 66
11, 61002, Note_off_c, 2, 64, 64
11, 61002, Note_on_c, 2, 62, 68
11, 61047, Note_off_c, 2, 62, 64
11, 61061, Note_on_c, 2, 64, 70
11, 61110, Note_off_c, 2, 64, 64
11, 61116, Note_on_c, 2, 66, 80
11, 61160, Note_off_c, 2, 66, 64
11, 61179, Note_on_c, 2, 67, 95
11, 61226, Note_off_c, 2, 67, 64
11, 61299, Note_on_c, 2, 64, 85
11, 61339, Note_off_c, 2, 64, 64
11, 61435, Note_on_c, 2, 62, 72
11, 61479, Note_off_c, 2, 62, 64
11, 61554, Note_on_c, 2, 62, 91
11, 61601, Note_off_c, 2, 62, 64
11, 61673, Note_on_c, 2, 62, 95
11, 61716, Note_off_c, 2, 62, 64
11, 61796, Note_on_c, 2, 62, 89
11, 61834, Note_off_c, 2, 62, 64
11, 61916, Note_on_c, 2, 59, 89
11, 62028, Note_off_c, 2, 59, 64
11, 62036, Note_on_c, 2, 60, 59
11, 62088, Note_off_c, 2, 60, 64
11, 62088, Note_on_c, 2, 62, 78
11, 62131, Note_off_c, 2, 62, 64
11, 62153, Note_on_c, 2, 64, 95
11, 62193, Note_off_c, 2, 64, 64
11, 62268, Note_on_c, 2, 60, 85
11, 62312, Note_off_c, 2, 60, 64
11, 62388, Note_on_c, 2, 57, 76
11, 62434, Note_off_c, 2, 57, 64
11, 62508, Note_on_c, 2, 62, 85
11, 62544, Note_off_c, 2, 62, 64
11, 62631, Note_on_c, 2, 50, 89
11, 62672, Note_off_c, 2, 50, 64
11, 62759, Note_on_c, 2, 62, 91
11, 62951, Note_off_c, 2, 62, 64
11, 62995, Note_on_c, 2, 60, 70
11, 63034, Note_off_c, 2, 60, 64
11, 63037, Note_on_c, 2, 59, 63
11, 63080, Note_off_c, 2, 59, 64
11, 63104, Note_on_c, 2, 60, 85
11, 63354, Note_off_c, 2, 60, 64
11, 63389, Note_on_c, 2, 57, 80
11, 63448, Note_off_c, 2, 57, 64
11, 63450, Note_on_c, 2, 59, 64
11, 63506, Note_on_c, 2, 60, 70
11, 63516, Note_off_c, 2, 59, 64
11, 63558, Note_off_c, 2, 60, 64
11, 63576, Note_on_c, 2, 62, 78
11, 63628, Note_off_c, 2, 62, 64
11, 63646, Note_on_c, 2, 64, 82
11, 63692, Note_off_c, 2, 64, 64
11, 63701, Note_on_c, 2, 66, 74
11, 63739, Note_off_c, 2, 66, 64
11, 63758, Note_on_c, 2, 67, 82
11, 63804, Note_off_c, 2, 67, 64
11, 63825, Note_on_c, 2, 69, 100
11, 63875, Note_off_c, 2, 69, 64
11, 63951, Note_on_c, 2, 57, 85
11, 64057, Note_off_c, 2, 57, 64
11, 64192, Note_on_c, 2, 62, 91
11, 64310, Note_off_c, 2, 62, 64
11, 64358, Note_on_c, 2, 67, 87
11, 64402, Note_off_c, 2, 67, 64
11, 64411, Note_on_c, 2, 66, 80
11, 64462, Note_off_c, 2, 66, 64
11, 64467, Note_on_c, 2, 67, 82
11, 64508, Note_off_c, 2, 67, 64
11, 64536, Note_on_c, 2, 64, 74
11, 64587, Note_off_c, 2, 64, 64
11, 64663, Note_on_c, 2, 69, 85
11, 64831, Note_off_c, 2, 69, 64
11, 64913, Note_on_c, 2, 72, 93
11, 64954, Note_off_c, 2, 72, 64
11, 65032, Note_on_c, 2, 66, 82
11, 65074, Note_off_c, 2, 66, 64
11, 65160, Note_on_c, 2, 71, 98
11, 65306, Note_off_c, 2, 71, 64
11, 65340, Note_on_c, 2, 64, 82
11, 65383, Note_off_c, 2, 64, 64
11, 65389, Note_on_c, 2, 62, 64
11, 65445, Note_on_c, 2, 64, 70
11, 65449, Note_off_c, 2, 62, 64
11, 65488, Note_off_c, 2, 64, 64
11, 65512, Note_on_c, 2, 60, 78
11, 65554, Note_off_c, 2, 60, 64
11, 65635, Note_on_c, 2, 69, 98
11, 65776, Note_off_c, 2, 69, 64
11, 65801, Note_on_c, 2, 67, 80
11, 65847, Note_off_c, 2, 67, 64
11, 65860, Note_on_c, 2, 66, 82
11, 65910, Note_off_c, 2, 66, 64
11, 65920, Note_on_c, 2, 64, 78
11, 65974, Note_on_c, 2, 62, 63
11, 65983, Note_off_c, 2, 64, 64
11, 66019, Note_off_c, 2, 62, 64
11, 66032, Note_on_c, 2, 60, 66
11, 66077, Note_off_c, 2, 60, 64
11, 66095, Note_on_c, 2, 59, 70
11, 66148, Note_off_c, 2, 59, 64
11, 66158, Note_on_c, 2, 57, 62
11, 66189, Note_off_c, 2, 57, 64
11, 66236, Note_on_c, 2, 62, 95
11, 66331, Note_off_c, 2, 62, 64
11, 66351, Note_on_c, 2, 64, 85
11, 66397, Note_off_c, 2, 64, 64
11, 66404, Note_on_c, 2, 66, 82
11, 66444, Note_off_c, 2, 66, 64
11, 66468, Note_on_c, 2, 67, 95
11, 66510, Note_off_c, 2, 67, 64
11, 66589, Note_on_c, 2, 64, 85
11, 66638, Note_off_c, 2, 64, 64
11, 66711, Note_on_c, 2, 69, 98
11, 66768, Note_on_c, 2, 67, 82
11, 66777, Note_off_c, 2, 69, 64
11, 66823, Note_off_c, 2, 67, 64
11, 66827, Note_on_c, 2, 66, 68
11, 66883, Note_on_c, 2, 64, 68
11, 66885, Note_off_c, 2, 66, 64
11, 66936, Note_off_c, 2, 64, 64
11, 66936, Note_on_c, 2, 62, 64
11, 66982, Note_off_c, 2, 62, 64
11, 66997, Note_on_c, 2, 60, 66
11, 67055, Note_off_c, 2, 60, 64
11, 67058, Note_on_c, 2, 59, 60
11, 67115, Note_off_c, 2, 59, 64
11, 67117, Note_on_c, 2, 57, 66
11, 67159, Note_off_c, 2, 57, 64
11, 67184, Note_on_c, 2, 55, 82
11, 67232, Note_off_c, 2, 55, 64
11, 67306, Note_on_c, 2, 62, 82
11, 67347, Note_off_c, 2, 62, 64
11, 67426, Note_on_c, 2, 62, 89
11, 67473, Note_off_c, 2, 62, 64
11, 67547, Note_on_c, 2, 62, 91
11, 67587, Note_off_c, 2, 62, 64
11, 67670, Note_on_c, 2, 62, 102
11, 67940, Note_off_c, 2, 62, 64
11, 84957, Note_on_c, 2, 64, 91
11, 85057, Note_off_c, 2, 64, 64
11, 85072, Note_on_c, 2, 65, 80
11, 85117, Note_off_c, 2, 65, 64
11, 85130, Note_on_c, 2, 67, 85
11, 85179, Note_off_c, 2, 67, 64
11, 85195, Note_on_c, 2, 69, 91
11, 85239, Note_off_c, 2, 69, 64
11, 85317, Note_on_c, 2, 65, 80
11, 85368, Note_off_c, 2, 65, 64
11, 85436, Note_on_c, 2, 62, 82
11, 85487, Note_off_c, 2, 62, 64
11, 85550, Note_on_c, 2, 67, 95
11, 85592, Note_off_c, 2, 67, 64
11, 85669, Note_on_c, 2, 55, 82
11, 85723, Note_off_c, 2, 55, 64
11, 85791, Note_on_c, 2, 67, 100
11, 85986, Note_off_c, 2, 67, 64
11, 86040, Note_on_c, 2, 65, 93
11, 86095, Note_on_c, 2, 64, 82
11, 86100, Note_off_c, 2, 65, 64
11, 86135, Note_off_c, 2, 64, 64
11, 86155, Note_on_c, 2, 65, 100
11, 86204, Note_off_c, 2, 65, 64
11, 86208, Note_on_c, 2, 64, 80
11, 86253, Note_off_c, 2, 64, 64
11, 86264, Note_on_c, 2, 62, 66
11, 86317, Note_off_c, 2, 62, 64
11, 86322, Note_on_c, 2, 60, 70
11, 86368, Note_off_c, 2, 60, 64
11, 86388, Note_on_c, 2, 62, 87
11, 86447, Note_off_c, 2, 62, 64
11, 86515, Note_on_c, 2, 67, 91
11, 86563, Note_off_c, 2, 67, 64
11, 86639, Note_on_c, 2, 67, 85
11, 86687, Note_off_c, 2, 67, 64
11, 86696, Note_on_c, 2, 65, 95
11, 86734, Note_off_c, 2, 65, 64
11, 86751, Note_on_c, 2, 67, 85
11, 86794, Note_off_c, 2, 67, 64
11, 86806, Note_on_c, 2, 64, 85
11, 86854, Note_off_c, 2, 64, 64
11, 86868, Note_on_c, 2, 60, 76
11, 86977, Note_off_c, 2, 60, 64
11, 86998, Note_on_c, 2, 62, 85
11, 87052, Note_off_c, 2, 62, 64
11, 87054, Note_on_c, 2, 64, 80
11, 87116, Note_on_c, 2, 65, 78
11, 87123, Note_off_c, 2, 64, 64
11, 87162, Note_off_c, 2, 65, 64
11, 87166, Note_on_c, 2, 64, 76
11, 87225, Note_off_c, 2, 64, 64
11, 87226, Note_on_c, 2, 65, 64
11, 87279, Note_off_c, 2, 65, 64
11, 87282, Note_on_c, 2, 62, 64
11, 87333, Note_off_c, 2, 62, 64
11, 87352, Note_on_c, 2, 59, 78
11, 87416, Note_off_c, 2, 59, 64
11, 87467, Note_on_c, 2, 64, 82
11, 87527, Note_off_c, 2, 64, 64
11, 87594, Note_on_c, 2, 60, 70
11, 87653, Note_off_c, 2, 60, 64
11, 87709, Note_on_c, 2, 57, 80
11, 87769, Note_off_c, 2, 57, 64
11, 87831, Note_on_c, 2, 62, 87
11, 87983, Note_off_c, 2, 62, 64
11, 88002, Note_on_c, 2, 64, 82
11, 88047, Note_off_c, 2, 64, 64
11, 88065, Note_on_c, 2, 65, 63
11, 88102, Note_on_c, 2, 67, 47
11, 88118, Note_off_c, 2, 67, 64
11, 88176, Note_off_c, 2, 65, 64
11, 88194, Note_on_c, 2, 67, 87
11, 88239, Note_off_c, 2, 67, 64
11, 88254, Note_on_c, 2, 62, 82
11, 88301, Note_off_c, 2, 62, 64
11, 88318, Note_on_c, 2, 64, 93
11, 88373, Note_off_c, 2, 64, 64
11, 88431, Note_on_c, 2, 60, 72
11, 88500, Note_off_c, 2, 60, 64
11, 88548, Note_on_c, 2, 72, 85
11, 88614, Note_off_c, 2, 72, 64
11, 88675, Note_on_c, 2, 67, 87
11, 88728, Note_off_c, 2, 67, 64
11, 88796, Note_on_c, 2, 60, 70
11, 88855, Note_off_c, 2, 60, 64
11, 88913, Note_on_c, 2, 65, 76
11, 88976, Note_off_c, 2, 65, 64
11, 89036, Note_on_c, 2, 67, 85
11, 89089, Note_off_c, 2, 67, 64
11, 89154, Note_on_c, 2, 69, 87
11, 89200, Note_off_c, 2, 69, 64
11, 89280, Note_on_c, 2, 62, 80
11, 89524, Note_off_c, 2, 62, 64
11, 92269, Note_on_c, 2, 67, 82
11, 92314, Note_off_c, 2, 67, 64
11, 92392, Note_on_c, 2, 67, 82
11, 92438, Note_off_c, 2, 67, 64
11, 92510, Note_on_c, 2, 67, 80
11, 92548, Note_off_c, 2, 67, 64
11, 92629, Note_on_c, 2, 64, 85
11, 92740, Note_off_c, 2, 64, 64
11, 92752, Note_on_c, 2, 65, 70
11, 92793, Note_off_c, 2, 65, 64
11, 92801, Note_on_c, 2, 67, 72
11, 92847, Note_off_c, 2, 67, 64
11, 92865, Note_on_c, 2, 69, 89
11, 92907, Note_off_c, 2, 69, 64
11, 92985, Note_on_c, 2, 65, 78
11, 93035, Note_off_c, 2, 65, 64
11, 93105, Note_on_c, 2, 62, 78
11, 93152, Note_off_c, 2, 62, 64
11, 93224, Note_on_c, 2, 67, 82
11, 93266, Note_off_c, 2, 67, 64
11, 93352, Note_on_c, 2, 55, 85
11, 93408, Note_off_c, 2, 55, 64
11, 93472, Note_on_c, 2, 65, 80
11, 93515, Note_off_c, 2, 65, 64
11, 93596, Note_on_c, 2, 64, 80
11, 93654, Note_off_c, 2, 64, 64
11, 93654, Note_on_c, 2, 62, 66
11, 93706, Note_off_c, 2, 62, 64
11, 93717, Note_on_c, 2, 60, 74
11, 93775, Note_off_c, 2, 60, 64
11, 93778, Note_on_c, 2, 62, 80
11, 93823, Note_off_c, 2, 62, 64
11, 93838, Note_on_c, 2, 64, 80
11, 93880, Note_off_c, 2, 64, 64
11, 93893, Note_on_c, 2, 62, 80
11, 93950, Note_off_c, 2, 62, 64
11, 93956, Note_on_c, 2, 64, 80
11, 94016, Note_on_c, 2, 66, 82
11, 94018, Note_off_c, 2, 64, 64
11, 94057, Note_off_c, 2, 66, 64
11, 94084, Note_on_c, 2, 67, 85
11, 94135, Note_off_c, 2, 67, 64
11, 94198, Note_on_c, 2, 62, 80
11, 94242, Note_off_c, 2, 62, 64
11, 94312, Note_on_c, 2, 67, 87
11, 94447, Note_off_c, 2, 67, 64
11, 94490, Note_on_c, 2, 67, 89
11, 94520, Note_off_c, 2, 67, 64
11, 94549, Note_on_c, 2, 67, 95
11, 94654, Note_off_c, 2, 67, 64
11, 94694, Note_on_c, 2, 66, 66
11, 94731, Note_off_c, 2, 66, 64
11, 94731, Note_on_c, 2, 64, 70
11, 94761, Note_on_c, 2, 66, 66
11, 94772, Note_off_c, 2, 64, 64
11, 94788, Note_off_c, 2, 66, 64
11, 94791, Note_on_c, 2, 67, 80
11, 94816, Note_on_c, 2, 66, 76
11, 94823, Note_off_c, 2, 67, 64
11, 94845, Note_on_c, 2, 67, 80
11, 94877, Note_off_c, 2, 67, 64
11, 94936, Note_off_c, 2, 66, 64
11, 94967, Note_on_c, 2, 66, 58
11, 94981, Note_off_c, 2, 66, 64
11, 94997, Note_on_c, 2, 67, 46
11, 95021, Note_off_c, 2, 67, 64
11, 95050, Note_on_c, 2, 67, 102
11, 95098, Note_on_c, 2, 69, 66
11, 95111, Note_off_c, 2, 67, 64
11, 95147, Note_off_c, 2, 69, 64
11, 95154, Note_on_c, 2, 71, 78
11, 95205, Note_off_c, 2, 71, 64
11, 95205, Note_on_c, 2, 72, 87
11, 95254, Note_off_c, 2, 72, 64
11, 95270, Note_on_c, 2, 74, 93
11, 95322, Note_off_c, 2, 74, 64
11, 95386, Note_on_c, 2, 67, 80
11, 95431, Note_off_c, 2, 67, 64
11, 95513, Note_on_c, 2, 72, 95
11, 95564, Note_off_c, 2, 72, 64
11, 95571, Note_on_c, 2, 71, 76
11, 95622, Note_off_c, 2, 71, 64
11, 95627, Note_on_c, 2, 69, 91
11, 95671, Note_off_c, 2, 69, 64
11, 95681, Note_on_c, 2, 67, 82
11, 95742, Note_off_c, 2, 67, 64
11, 95750, Note_on_c, 2, 65, 64
11, 95809, Note_off_c, 2, 65, 64
11, 95869, Note_on_c, 2, 67, 70
11, 95926, Note_off_c, 2, 67, 64
11, 95986, Note_on_c, 2, 69, 85
11, 96034, Note_off_c, 2, 69, 64
11, 96040, Note_on_c, 2, 74, 85
11, 96094, Note_off_c, 2, 74, 64
11, 96098, Note_on_c, 2, 72, 91
11, 96146, Note_off_c, 2, 72, 64
11, 96154, Note_on_c, 2, 74, 89
11, 96195, Note_off_c, 2, 74, 64
11, 96225, Note_on_c, 2, 62, 80
11, 96277, Note_off_c, 2, 62, 64
11, 96352, Note_on_c, 2, 67, 87
11, 96508, Note_off_c, 2, 67, 64
11, 96529, Note_on_c, 2, 72, 76
11, 96575, Note_off_c, 2, 72, 64
11, 96586, Note_on_c, 2, 70, 100
11, 96625, Note_off_c, 2, 70, 64
11, 96642, Note_on_c, 2, 72, 87
11, 96681, Note_off_c, 2, 72, 64
11, 96707, Note_on_c, 2, 60, 82
11, 96758, Note_off_c, 2, 60, 64
11, 96833, Note_on_c, 2, 65, 85
11, 96981, Note_off_c, 2, 65, 64
11, 97010, Note_on_c, 2, 71, 85
11, 97062, Note_off_c, 2, 71, 64
11, 97067, Note_on_c, 2, 69, 85
11, 97112, Note_off_c, 2, 69, 64
11, 97121, Note_on_c, 2, 71, 80
11, 97167, Note_off_c, 2, 71, 64
11, 97189, Note_on_c, 2, 59, 70
11, 97238, Note_off_c, 2, 59, 64
11, 97308, Note_on_c, 2, 64, 89
11, 97451, Note_off_c, 2, 64, 64
11, 97480, Note_on_c, 2, 69, 87
11, 97529, Note_off_c, 2, 69, 64
11, 97534, Note_on_c, 2, 67, 74
11, 97580, Note_off_c, 2, 67, 64
11, 97591, Note_on_c, 2, 69, 82
11, 97624, Note_off_c, 2, 69, 64
11, 97663, Note_on_c, 2, 57, 80
11, 97707, Note_off_c, 2, 57, 64
11, 97783, Note_on_c, 2, 62, 95
11, 97925, Note_off_c, 2, 62, 64
11, 97965, Note_on_c, 2, 72, 91
11, 98012, Note_off_c, 2, 72, 64
11, 98023, Note_on_c, 2, 71, 74
11, 98085, Note_on_c, 2, 69, 82
11, 98090, Note_off_c, 2, 71, 64
11, 98140, Note_on_c, 2, 67, 68
11, 98142, Note_off_c, 2, 69, 64
11, 98197, Note_off_c, 2, 67, 64
11, 98199, Note_on_c, 2, 65, 80
11, 98261, Note_off_c, 2, 65, 64
11, 98264, Note_on_c, 2, 64, 87
11, 98303, Note_off_c, 2, 64, 64
11, 98315, Note_on_c, 2, 62, 66
11, 98341, Note_off_c, 2, 62, 64
11, 98398, Note_on_c, 2, 67, 82
11, 98506, Note_off_c, 2, 67, 64
11, 98523, Note_on_c, 2, 69, 80
11, 98564, Note_off_c, 2, 69, 64
11, 98569, Note_on_c, 2, 71, 80
11, 98604, Note_off_c, 2, 71, 64
11, 98634, Note_on_c, 2, 72, 98
11, 98672, Note_off_c, 2, 72, 64
11, 98754, Note_on_c, 2, 57, 85
11, 98806, Note_off_c, 2, 57, 64
11, 98881, Note_on_c, 2, 62, 100
11, 98933, Note_on_c, 2, 60, 72
11, 98942, Note_off_c, 2, 62, 64
11, 98981, Note_off_c, 2, 60, 64
11, 98992, Note_on_c, 2, 59, 85
11, 99044, Note_on_c, 2, 57, 80
11, 99056, Note_off_c, 2, 59, 64
11, 99102, Note_off_c, 2, 57, 64
11, 99102, Note_on_c, 2, 55, 68
11, 99155, Note_off_c, 2, 55, 64
11, 99162, Note_on_c, 2, 53, 89
11, 99215, Note_on_c, 2, 52, 85
11, 99220, Note_off_c, 2, 53, 64
11, 99260, Note_off_c, 2, 52, 64
11, 99271, Note_on_c, 2, 50, 62
11, 99329, Note_off_c, 2, 50, 64
11, 99345, Note_on_c, 2, 48, 70
11, 99412, Note_off_c, 2, 48, 64
11, 99477, Note_on_c, 2, 55, 82
11, 99522, Note_off_c, 2, 55, 64
11, 99598, Note_on_c, 2, 55, 87
11, 99650, Note_off_c, 2, 55, 64
11, 99718, Note_on_c, 2, 55, 87
11, 99764, Note_off_c, 2, 55, 64
11, 99832, Note_on_c, 2, 55, 80
11, 100076, Note_off_c, 2, 55, 64
11, 110571, Note_on_c, 2, 62, 89
11, 110611, Note_off_c, 2, 62, 64
11, 110633, Note_on_c, 2, 60, 70
11, 110715, Note_off_c, 2, 60, 64
11, 110802, Note_on_c, 2, 62, 87
11, 110842, Note_off_c, 2, 62, 64
11, 110863, Note_on_c, 2, 64, 82
11, 111137, Note_off_c, 2, 64, 64
11, 111170, Note_on_c, 2, 64, 87
11, 111210, Note_off_c, 2, 64, 64
11, 111227, Note_on_c, 2, 62, 78
11, 111263, Note_off_c, 2, 62, 64
11, 111281, Note_on_c, 2, 60, 61
11, 111319, Note_off_c, 2, 60, 64
11, 111347, Note_on_c, 2, 67, 85
11, 111437, Note_off_c, 2, 67, 64
11, 111534, Note_on_c, 2, 69, 82
11, 111579, Note_off_c, 2, 69, 64
11, 111595, Note_on_c, 2, 67, 89
11, 111676, Note_off_c, 2, 67, 64
11, 111767, Note_on_c, 2, 65, 78
11, 111812, Note_off_c, 2, 65, 64
11, 111827, Note_on_c, 2, 64, 85
11, 111916, Note_off_c, 2, 64, 64
11, 112004, Note_on_c, 2, 62, 78
11, 112052, Note_off_c, 2, 62, 64
11, 112067, Note_on_c, 2, 60, 68
11, 112160, Note_off_c, 2, 60, 64
11, 112243, Note_on_c, 2, 60, 78
11, 112282, Note_off_c, 2, 60, 64
11, 112311, Note_on_c, 2, 60, 82
11, 112403, Note_off_c, 2, 60, 64
11, 112489, Note_on_c, 2, 65, 74
11, 112533, Note_off_c, 2, 65, 64
11, 112551, Note_on_c, 2, 69, 89
11, 112640, Note_off_c, 2, 69, 64
11, 112718, Note_on_c, 2, 67, 78
11, 112762, Note_off_c, 2, 67, 64
11, 112790, Note_on_c, 2, 65, 93
11, 113125, Note_off_c, 2, 65, 64
11, 113189, Note_on_c, 2, 62, 80
11, 113229, Note_off_c, 2, 62, 64
11, 113258, Note_on_c, 2, 70, 87
11, 113618, Note_off_c, 2, 70, 64
11, 113688, Note_on_c, 2, 70, 87
11, 113727, Note_off_c, 2, 70, 64
11, 113753, Note_on_c, 2, 64, 87
11, 113960, Note_off_c, 2, 64, 64
11, 113982, Note_on_c, 2, 69, 82
11, 114200, Note_off_c, 2, 69, 64
11, 114233, Note_on_c, 2, 69, 87
11, 114331, Note_off_c, 2, 69, 64
11, 114411, Note_on_c, 2, 65, 70
11, 114455, Note_off_c, 2, 65, 64
11, 114476, Note_on_c, 2, 62, 89
11, 114560, Note_off_c, 2, 62, 64
11, 114656, Note_on_c, 2, 57, 85
11, 114698, Note_off_c, 2, 57, 64
11, 114719, Note_on_c, 2, 62, 82
11, 115076, Note_off_c, 2, 62, 64
11, 115127, Note_on_c, 2, 62, 80
11, 115164, Note_off_c, 2, 62, 64
11, 115189, Note_on_c, 2, 62, 82
11, 115295, Note_off_c, 2, 62, 64
11, 115364, Note_on_c, 2, 69, 85
11, 115413, Note_off_c, 2, 69, 64
11, 115428, Note_on_c, 2, 67, 87
11, 115523, Note_off_c, 2, 67, 64
11, 115611, Note_on_c, 2, 65, 76
11, 115658, Note_off_c, 2, 65, 64
11, 115674, Note_on_c, 2, 64, 82
11, 115778, Note_off_c, 2, 64, 64
11, 115842, Note_on_c, 2, 65, 68
11, 115882, Note_off_c, 2, 65, 64
11, 115904, Note_on_c, 2, 67, 80
11, 115989, Note_off_c, 2, 67, 64
11, 116074, Note_on_c, 2, 64, 78
11, 116107, Note_off_c, 2, 64, 64
11, 116145, Note_on_c, 2, 65, 87
11, 116238, Note_off_c, 2, 65, 64
11, 116321, Note_on_c, 2, 69, 87
11, 116365, Note_off_c, 2, 69, 64
11, 116392, Note_on_c, 2, 74, 89
11, 116470, Note_off_c, 2, 74, 64
11, 116560, Note_on_c, 2, 69, 85
11, 116609, Note_off_c, 2, 69, 64
11, 116624, Note_on_c, 2, 62, 85
11, 116892, Note_off_c, 2, 62, 64
11, 116918, Note_on_c, 2, 60, 72
11, 116959, Note_off_c, 2, 60, 64
11, 116976, Note_on_c, 2, 62, 68
11, 117025, Note_off_c, 2, 62, 64
11, 117042, Note_on_c, 2, 64, 87
11, 117079, Note_off_c, 2, 64, 64
11, 117103, Note_on_c, 2, 65, 82
11, 117152, Note_off_c, 2, 65, 64
11, 117162, Note_on_c, 2, 67, 80
11, 117208, Note_off_c, 2, 67, 64
11, 117226, Note_on_c, 2, 69, 80
11, 117277, Note_off_c, 2, 69, 64
11, 117284, Note_on_c, 2, 67, 74
11, 117326, Note_off_c, 2, 67, 64
11, 117344, Note_on_c, 2, 65, 80
11, 117393, Note_off_c, 2, 65, 64
11, 117404, Note_on_c, 2, 64, 80
11, 117447, Note_off_c, 2, 64, 64
11, 117464, Note_on_c, 2, 62, 80
11, 117511, Note_off_c, 2, 62, 64
11, 117523, Note_on_c, 2, 64, 78
11, 117562, Note_off_c, 2, 64, 64
11, 117587, Note_on_c, 2, 65, 80
11, 117941, Note_off_c, 2, 65, 64
11, 118007, Note_on_c, 2, 64, 78
11, 118044, Note_off_c, 2, 64, 64
11, 118071, Note_on_c, 2, 62, 80
11, 118158, Note_off_c, 2, 62, 64
11, 118248, Note_on_c, 2, 64, 80
11, 118286, Note_off_c, 2, 64, 64
11, 118311, Note_on_c, 2, 62, 87
11, 118393, Note_off_c, 2, 62, 64
11, 118486, Note_on_c, 2, 60, 76
11, 118526, Note_off_c, 2, 60, 64
11, 118547, Note_on_c, 2, 59, 87
11, 118621, Note_off_c, 2, 59, 64
11, 118715, Note_on_c, 2, 62, 64
11, 118753, Note_off_c, 2, 62, 64
11, 118781, Note_on_c, 2, 67, 85
11, 118859, Note_off_c, 2, 67, 64
11, 118961, Note_on_c, 2, 71, 82
11, 119000, Note_off_c, 2, 71, 64
11, 119026, Note_on_c, 2, 71, 85
11, 119107, Note_off_c, 2, 71, 64
11, 119211, Note_on_c, 2, 67, 76
11, 119247, Note_off_c, 2, 67, 64
11, 119272, Note_on_c, 2, 60, 66
11, 119352, Note_off_c, 2, 60, 64
11, 119445, Note_on_c, 2, 62, 82
11, 119484, Note_off_c, 2, 62, 64
11, 119512, Note_on_c, 2, 64, 85
11, 119872, Note_off_c, 2, 64, 64
11, 119929, Note_on_c, 2, 64, 82
11, 119967, Note_off_c, 2, 64, 64
11, 119992, Note_on_c, 2, 64, 87
11, 120075, Note_off_c, 2, 64, 64
11, 120168, Note_on_c, 2, 60, 80
11, 120205, Note_off_c, 2, 60, 64
11, 120236, Note_on_c, 2, 65, 87
11, 120320, Note_off_c, 2, 65, 64
11, 120404, Note_on_c, 2, 64, 76
11, 120449, Note_off_c, 2, 64, 64
11, 120472, Note_on_c, 2, 62, 87
11, 120569, Note_off_c, 2, 62, 64
11, 120646, Note_on_c, 2, 64, 78
11, 120693, Note_off_c, 2, 64, 64
11, 120712, Note_on_c, 2, 65, 85
11, 120803, Note_off_c, 2, 65, 64
11, 120889, Note_on_c, 2, 67, 78
11, 120941, Note_off_c, 2, 67, 64
11, 120956, Note_on_c, 2, 69, 85
11, 121123, Note_off_c, 2, 69, 64
11, 121189, Note_on_c, 2, 62, 80
11, 121329, Note_off_c, 2, 62, 64
11, 121419, Note_on_c, 2, 65, 76
11, 121786, Note_off_c, 2, 65, 64
11, 121847, Note_on_c, 2, 69, 87
11, 121889, Note_off_c, 2, 69, 64
11, 121911, Note_on_c, 2, 62, 80
11, 122016, Note_off_c, 2, 62, 64
11, 122087, Note_on_c, 2, 65, 70
11, 122137, Note_off_c, 2, 65, 64
11, 122150, Note_on_c, 2, 64, 89
11, 122239, Note_off_c, 2, 64, 64
11, 122334, Note_on_c, 2, 62, 80
11, 122378, Note_off_c, 2, 62, 64
11, 122398, Note_on_c, 2, 60, 64
11, 122729, Note_off_c, 2, 60, 64
11, 122803, Note_on_c, 2, 60, 68
11, 122846, Note_off_c, 2, 60, 64
11, 122870, Note_on_c, 2, 60, 72
11, 122968, Note_off_c, 2, 60, 64
11, 123037, Note_on_c, 2, 57, 72
11, 123081, Note_off_c, 2, 57, 64
11, 123107, Note_on_c, 2, 62, 91
11, 123201, Note_off_c, 2, 62, 64
11, 123294, Note_on_c, 2, 60, 62
11, 123344, Note_off_c, 2, 60, 64
11, 123362, Note_on_c, 2, 59, 85
11, 123449, Note_off_c, 2, 59, 64
11, 123536, Note_on_c, 2, 60, 64
11, 123576, Note_off_c, 2, 60, 64
11, 123600, Note_on_c, 2, 59, 82
11, 123692, Note_off_c, 2, 59, 64
11, 123779, Note_on_c, 2, 60, 68
11, 123823, Note_off_c, 2, 60, 64
11, 123837, Note_on_c, 2, 62, 87
11, 123929, Note_off_c, 2, 62, 64
11, 127782, Note_on_c, 2, 67, 80
11, 127822, Note_off_c, 2, 67, 64
11, 127906, Note_on_c, 2, 67, 82
11, 127949, Note_off_c, 2, 67, 64
11, 128023, Note_on_c, 2, 67, 80
11, 128065, Note_off_c, 2, 67, 64
11, 128144, Note_on_c, 2, 64, 80
11, 128254, Note_off_c, 2, 64, 64
11, 128261, Note_on_c, 2, 65, 64
11, 128312, Note_off_c, 2, 65, 64
11, 128316, Note_on_c, 2, 67, 80
11, 128360, Note_off_c, 2, 67, 64
11, 128379, Note_on_c, 2, 69, 85
11, 128416, Note_off_c, 2, 69, 64
11, 128495, Note_on_c, 2, 65, 66
11, 128543, Note_off_c, 2, 65, 64
11, 128624, Note_on_c, 2, 62, 82
11, 128671, Note_off_c, 2, 62, 64
11, 128743, Note_on_c, 2, 67, 89
11, 128783, Note_off_c, 2, 67, 64
11, 128867, Note_on_c, 2, 55, 80
11, 128919, Note_off_c, 2, 55, 64
11, 128984, Note_on_c, 2, 65, 74
11, 129030, Note_off_c, 2, 65, 64
11, 129114, Note_on_c, 2, 64, 89
11, 129174, Note_on_c, 2, 62, 78
11, 129176, Note_off_c, 2, 64, 64
11, 129233, Note_off_c, 2, 62, 64
11, 129234, Note_on_c, 2, 60, 70
11, 129288, Note_on_c, 2, 62, 68
11, 129292, Note_off_c, 2, 60, 64
11, 129338, Note_off_c, 2, 62, 64
11, 129349, Note_on_c, 2, 64, 80
11, 129397, Note_off_c, 2, 64, 64
11, 129402, Note_on_c, 2, 62, 78
11, 129465, Note_off_c, 2, 62, 64
11, 129467, Note_on_c, 2, 64, 70
11, 129523, Note_on_c, 2, 66, 68
11, 129525, Note_off_c, 2, 64, 64
11, 129563, Note_off_c, 2, 66, 64
11, 129590, Note_on_c, 2, 67, 87
11, 129691, Note_off_c, 2, 67, 64
11, 129767, Note_on_c, 2, 62, 64
11, 129795, Note_off_c, 2, 62, 64
11, 129833, Note_on_c, 2, 67, 91
11, 129935, Note_off_c, 2, 67, 64
11, 130003, Note_on_c, 2, 67, 74
11, 130033, Note_off_c, 2, 67, 64
11, 130071, Note_on_c, 2, 67, 95
11, 130175, Note_off_c, 2, 67, 64
11, 130219, Note_on_c, 2, 66, 58
11, 130250, Note_on_c, 2, 64, 58
11, 130253, Note_off_c, 2, 66, 64
11, 130277, Note_on_c, 2, 66, 66
11, 130286, Note_off_c, 2, 64, 64
11, 130307, Note_on_c, 2, 67, 72
11, 130309, Note_off_c, 2, 66, 64
11, 130339, Note_on_c, 2, 66, 82
11, 130344, Note_off_c, 2, 67, 64
11, 130366, Note_on_c, 2, 67, 82
11, 130372, Note_off_c, 2, 66, 64
11, 130391, Note_on_c, 2, 66, 70
11, 130408, Note_off_c, 2, 67, 64
11, 130448, Note_off_c, 2, 66, 64
11, 130476, Note_on_c, 2, 67, 80
11, 130516, Note_off_c, 2, 67, 64
11, 130548, Note_on_c, 2, 67, 82
11, 130601, Note_on_c, 2, 69, 82
11, 130616, Note_off_c, 2, 67, 64
11, 130655, Note_on_c, 2, 71, 70
11, 130657, Note_off_c, 2, 69, 64
11, 130710, Note_off_c, 2, 71, 64
11, 130711, Note_on_c, 2, 72, 72
11, 130761, Note_off_c, 2, 72, 64
11, 130781, Note_on_c, 2, 74, 100
11, 130827, Note_off_c, 2, 74, 64
11, 130899, Note_on_c, 2, 67, 85
11, 130943, Note_off_c, 2, 67, 64
11, 131024, Note_on_c, 2, 72, 72
11, 131172, Note_off_c, 2, 72, 64
11, 131257, Note_on_c, 2, 64, 85
11, 131384, Note_off_c, 2, 64, 64
11, 131430, Note_on_c, 2, 64, 68
11, 131471, Note_off_c, 2, 64, 64
11, 131502, Note_on_c, 2, 69, 89
11, 131552, Note_off_c, 2, 69, 64
11, 131626, Note_on_c, 2, 57, 78
11, 131681, Note_off_c, 2, 57, 64
11, 131746, Note_on_c, 2, 62, 87
11, 131886, Note_off_c, 2, 62, 64
11, 131927, Note_on_c, 2, 62, 64
11, 131966, Note_off_c, 2, 62, 64
11, 131992, Note_on_c, 2, 67, 93
11, 132040, Note_off_c, 2, 67, 64
11, 132112, Note_on_c, 2, 55, 89
11, 132167, Note_off_c, 2, 55, 64
11, 132232, Note_on_c, 2, 60, 74
11, 132366, Note_off_c, 2, 60, 64
11, 132407, Note_on_c, 2, 60, 57
11, 132440, Note_off_c, 2, 60, 64
11, 132477, Note_on_c, 2, 65, 78
11, 132527, Note_off_c, 2, 65, 64
11, 132602, Note_on_c, 2, 53, 78
11, 132651, Note_off_c, 2, 53, 64
11, 132720, Note_on_c, 2, 59, 82
11, 132851, Note_off_c, 2, 59, 64
11, 132895, Note_on_c, 2, 59, 63
11, 132936, Note_off_c, 2, 59, 64
11, 132957, Note_on_c, 2, 64, 93
11, 133003, Note_off_c, 2, 64, 64
11, 133071, Note_on_c, 2, 52, 87
11, 133126, Note_off_c, 2, 52, 64
11, 133190, Note_on_c, 2, 57, 85
11, 133319, Note_off_c, 2, 57, 64
11, 133366, Note_on_c, 2, 57, 64
11, 133395, Note_off_c, 2, 57, 64
11, 133434, Note_on_c, 2, 62, 80
11, 133482, Note_on_c, 2, 60, 64
11, 133494, Note_off_c, 2, 62, 64
11, 133533, Note_off_c, 2, 60, 64
11, 133543, Note_on_c, 2, 62, 63
11, 133585, Note_off_c, 2, 62, 64
11, 133592, Note_on_c, 2, 59, 78
11, 133641, Note_off_c, 2, 59, 64
11, 133663, Note_on_c, 2, 64, 89
11, 133724, Note_off_c, 2, 64, 64
11, 133784, Note_on_c, 2, 62, 85
11, 133824, Note_off_c, 2, 62, 64
11, 133908, Note_on_c, 2, 60, 80
11, 134019, Note_off_c, 2, 60, 64
11, 134027, Note_on_c, 2, 62, 78
11, 134072, Note_on_c, 2, 64, 78
11, 134077, Note_off_c, 2, 62, 64
11, 134122, Note_off_c, 2, 64, 64
11, 134138, Note_on_c, 2, 65, 85
11, 134197, Note_off_c, 2, 65, 64
11, 134273, Note_on_c, 2, 65, 82
11, 134320, Note_off_c, 2, 65, 64
11, 134393, Note_on_c, 2, 67, 87
11, 134442, Note_off_c, 2, 67, 64
11, 134509, Note_on_c, 2, 62, 64
11, 134514, Note_on_c, 2, 64, 64
11, 134548, Note_off_c, 2, 64, 64
11, 134568, Note_off_c, 2, 62, 64
11, 134627, Note_on_c, 2, 67, 85
11, 134680, Note_off_c, 2, 67, 64
11, 134746, Note_on_c, 2, 71, 87
11, 134799, Note_off_c, 2, 71, 64
11, 134868, Note_on_c, 2, 67, 85
11, 134928, Note_off_c, 2, 67, 64
11, 134989, Note_on_c, 2, 69, 85
11, 135040, Note_off_c, 2, 69, 64
11, 135104, Note_on_c, 2, 62, 80
11, 135153, Note_off_c, 2, 62, 64
11, 135224, Note_on_c, 2, 67, 89
11, 135272, Note_off_c, 2, 67, 64
11, 135350, Note_on_c, 2, 64, 89
11, 135492, Note_off_c, 2, 64, 64
11, 140697, Note_on_c, 2, 57, 80
11, 140758, Note_off_c, 2, 57, 64
11, 140758, Note_on_c, 2, 59, 80
11, 140811, Note_on_c, 2, 60, 68
11, 140814, Note_off_c, 2, 59, 64
11, 140854, Note_off_c, 2, 60, 64
11, 140877, Note_on_c, 2, 62, 78
11, 140923, Note_off_c, 2, 62, 64
11, 140929, Note_on_c, 2, 59, 66
11, 140986, Note_on_c, 2, 60, 52
11, 140988, Note_off_c, 2, 59, 64
11, 141036, Note_off_c, 2, 60, 64
11, 141036, Note_on_c, 2, 62, 63
11, 141101, Note_off_c, 2, 62, 64
11, 141104, Note_on_c, 2, 64, 74
11, 141157, Note_on_c, 2, 65, 89
11, 141168, Note_off_c, 2, 64, 64
11, 141212, Note_off_c, 2, 65, 64
11, 141221, Note_on_c, 2, 64, 61
11, 141267, Note_off_c, 2, 64, 64
11, 141280, Note_on_c, 2, 62, 60
11, 141322, Note_off_c, 2, 62, 64
11, 141346, Note_on_c, 2, 60, 66
11, 141403, Note_on_c, 2, 62, 59
11, 141407, Note_off_c, 2, 60, 64
11, 141448, Note_off_c, 2, 62, 64
11, 141458, Note_on_c, 2, 64, 53
11, 141509, Note_off_c, 2, 64, 64
11, 141509, Note_on_c, 2, 60, 57
11, 141551, Note_off_c, 2, 60, 64
11, 141584, Note_on_c, 2, 62, 68
11, 141629, Note_off_c, 2, 62, 64
11, 141708, Note_on_c, 2, 62, 91
11, 141757, Note_off_c, 2, 62, 64
11, 141829, Note_on_c, 2, 62, 87
11, 141880, Note_off_c, 2, 62, 64
11, 141946, Note_on_c, 2, 62, 85
11, 141992, Note_off_c, 2, 62, 64
11, 142061, Note_on_c, 2, 59, 82
11, 142178, Note_off_c, 2, 59, 64
11, 142178, Note_on_c, 2, 60, 66
11, 142232, Note_off_c, 2, 60, 64
11, 142234, Note_on_c, 2, 62, 76
11, 142282, Note_off_c, 2, 62, 64
11, 142301, Note_on_c, 2, 64, 78
11, 142347, Note_off_c, 2, 64, 64
11, 142419, Note_on_c, 2, 60, 68
11, 142470, Note_off_c, 2, 60, 64
11, 142538, Note_on_c, 2, 57, 76
11, 142591, Note_off_c, 2, 57, 64
11, 142661, Note_on_c, 2, 62, 82
11, 142702, Note_off_c, 2, 62, 64
11, 142781, Note_on_c, 2, 52, 80
11, 142838, Note_off_c, 2, 52, 64
11, 142904, Note_on_c, 2, 64, 78
11, 142945, Note_off_c, 2, 64, 64
11, 143019, Note_on_c, 2, 64, 80
11, 143074, Note_off_c, 2, 64, 64
11, 143140, Note_on_c, 2, 69, 85
11, 143192, Note_off_c, 2, 69, 64
11, 143264, Note_on_c, 2, 64, 85
11, 143319, Note_off_c, 2, 64, 64
11, 143386, Note_on_c, 2, 66, 82
11, 143435, Note_off_c, 2, 66, 64
11, 143503, Note_on_c, 2, 67, 80
11, 143562, Note_off_c, 2, 67, 64
11, 143624, Note_on_c, 2, 63, 70
11, 143675, Note_off_c, 2, 63, 64
11, 143741, Note_on_c, 2, 64, 85
11, 143884, Note_off_c, 2, 64, 64
11, 143925, Note_on_c, 2, 64, 80
11, 143958, Note_off_c, 2, 64, 64
11, 143993, Note_on_c, 2, 66, 66
11, 144046, Note_off_c, 2, 66, 64
11, 144055, Note_on_c, 2, 64, 62
11, 144106, Note_off_c, 2, 64, 64
11, 144114, Note_on_c, 2, 63, 51
11, 144156, Note_off_c, 2, 63, 64
11, 144161, Note_on_c, 2, 64, 63
11, 144209, Note_off_c, 2, 64, 64
11, 144226, Note_on_c, 2, 66, 74
11, 144281, Note_on_c, 2, 67, 68
11, 144284, Note_off_c, 2, 66, 64
11, 144323, Note_off_c, 2, 67, 64
11, 144332, Note_on_c, 2, 64, 64
11, 144387, Note_off_c, 2, 64, 64
11, 144391, Note_on_c, 2, 66, 78
11, 144439, Note_off_c, 2, 66, 64
11, 144460, Note_on_c, 2, 67, 82
11, 144510, Note_off_c, 2, 67, 64
11, 144584, Note_on_c, 2, 64, 82
11, 144623, Note_off_c, 2, 64, 64
11, 144704, Note_on_c, 2, 69, 82
11, 145024, Note_off_c, 2, 69, 64
11, 145065, Note_on_c, 2, 68, 91
11, 145118, Note_on_c, 2, 66, 76
11, 145119, Note_off_c, 2, 68, 64
11, 145163, Note_off_c, 2, 66, 64
11, 145180, Note_on_c, 2, 68, 87
11, 145255, Note_off_c, 2, 68, 64
11, 145308, Note_on_c, 2, 69, 85
11, 145351, Note_off_c, 2, 69, 64
11, 145432, Note_on_c, 2, 71, 78
11, 145492, Note_off_c, 2, 71, 64
11, 145493, Note_on_c, 2, 69, 60
11, 145545, Note_on_c, 2, 71, 66
11, 145547, Note_off_c, 2, 69, 64
11, 145591, Note_off_c, 2, 71, 64
11, 145604, Note_on_c, 2, 68, 72
11, 145639, Note_off_c, 2, 68, 64
11, 145665, Note_on_c, 2, 69, 80
11, 145722, Note_on_c, 2, 71, 78
11, 145735, Note_off_c, 2, 69, 64
11, 145784, Note_on_c, 2, 72, 66
11, 145801, Note_off_c, 2, 71, 64
11, 145841, Note_on_c, 2, 74, 78
11, 145844, Note_off_c, 2, 72, 64
11, 145896, Note_off_c, 2, 74, 64
11, 145908, Note_on_c, 2, 76, 85
11, 145961, Note_on_c, 2, 71, 58
11, 145964, Note_off_c, 2, 76, 64
11, 146007, Note_off_c, 2, 71, 64
11, 146026, Note_on_c, 2, 72, 64
11, 146070, Note_off_c, 2, 72, 64
11, 146089, Note_on_c, 2, 69, 87
11, 146131, Note_off_c, 2, 69, 64
11, 146155, Note_on_c, 2, 64, 80
11, 146422, Note_off_c, 2, 64, 64
11, 146445, Note_on_c, 2, 62, 82
11, 146493, Note_off_c, 2, 62, 64
11, 146493, Note_on_c, 2, 60, 74
11, 146543, Note_off_c, 2, 60, 64
11, 146552, Note_on_c, 2, 59, 64
11, 146588, Note_off_c, 2, 59, 64
11, 146612, Note_on_c, 2, 57, 57
11, 146671, Note_on_c, 2, 60, 63
11, 146683, Note_off_c, 2, 57, 64
11, 146726, Note_off_c, 2, 60, 64
11, 146734, Note_on_c, 2, 62, 70
11, 146790, Note_off_c, 2, 62, 64
11, 146792, Note_on_c, 2, 64, 76
11, 146838, Note_off_c, 2, 64, 64
11, 146852, Note_on_c, 2, 65, 95
11, 146894, Note_off_c, 2, 65, 64
11, 146974, Note_on_c, 2, 56, 66
11, 147032, Note_off_c, 2, 56, 64
11, 147099, Note_on_c, 2, 59, 72
11, 147138, Note_off_c, 2, 59, 64
11, 147231, Note_on_c, 2, 64, 85
11, 147266, Note_off_c, 2, 64, 64
11, 147351, Note_on_c, 2, 64, 85
11, 147437, Note_off_c, 2, 64, 64
11, 147468, Note_on_c, 2, 69, 80
11, 147520, Note_off_c, 2, 69, 64
11, 147521, Note_on_c, 2, 68, 60
11, 147564, Note_off_c, 2, 68, 64
11, 147584, Note_on_c, 2, 69, 85
11, 147627, Note_off_c, 2, 69, 64
11, 147714, Note_on_c, 2, 72, 82
11, 147765, Note_off_c, 2, 72, 64
11, 147771, Note_on_c, 2, 71, 80
11, 147819, Note_off_c, 2, 71, 64
11, 147830, Note_on_c, 2, 69, 74
11, 147880, Note_off_c, 2, 69, 64
11, 147886, Note_on_c, 2, 71, 66
11, 147940, Note_off_c, 2, 71, 64
11, 147947, Note_on_c, 2, 69, 66
11, 148001, Note_off_c, 2, 69, 64
11, 148001, Note_on_c, 2, 67, 66
11, 148041, Note_off_c, 2, 67, 64
11, 148063, Note_on_c, 2, 65, 68
11, 148110, Note_off_c, 2, 65, 64
11, 148121, Note_on_c, 2, 64, 82
11, 148171, Note_off_c, 2, 64, 64
11, 148175, Note_on_c, 2, 65, 68
11, 148233, Note_off_c, 2, 65, 64
11, 148238, Note_on_c, 2, 62, 82
11, 148280, Note_off_c, 2, 62, 64
11, 148315, Note_on_c, 2, 56, 72
11, 148380, Note_off_c, 2, 56, 64
11, 148436, Note_on_c, 2, 68, 68
11, 148490, Note_off_c, 2, 68, 64
11, 148552, Note_on_c, 2, 69, 87
11, 148607, Note_off_c, 2, 69, 64
11, 148665, Note_on_c, 2, 71, 82
11, 148713, Note_off_c, 2, 71, 64
11, 148788, Note_on_c, 2, 64, 82
11, 148854, Note_off_c, 2, 64, 64
11, 148906, Note_on_c, 2, 65, 74
11, 148960, Note_off_c, 2, 65, 64
11, 149023, Note_on_c, 2, 64, 82
11, 149066, Note_off_c, 2, 64, 64
11, 149143, Note_on_c, 2, 62, 87
11, 149194, Note_off_c, 2, 62, 64
11, 149264, Note_on_c, 2, 60, 78
11, 149355, Note_off_c, 2, 60, 64
11, 166204, Note_on_c, 2, 71, 74
11, 166232, Note_off_c, 2, 71, 64
11, 166314, Note_on_c, 2, 71, 66
11, 166352, Note_off_c, 2, 71, 64
11, 166432, Note_on_c, 2, 71, 64
11, 166469, Note_off_c, 2, 71, 64
11, 166544, Note_on_c, 2, 67, 68
11, 166655, Note_off_c, 2, 67, 64
11, 166669, Note_on_c, 2, 69, 70
11, 166710, Note_off_c, 2, 69, 64
11, 166723, Note_on_c, 2, 71, 70
11, 166760, Note_off_c, 2, 71, 64
11, 166788, Note_on_c, 2, 72, 61
11, 166832, Note_off_c, 2, 72, 64
11, 166901, Note_on_c, 2, 69, 78
11, 166942, Note_off_c, 2, 69, 64
11, 167017, Note_on_c, 2, 66, 62
11, 167072, Note_off_c, 2, 66, 64
11, 167133, Note_on_c, 2, 71, 78
11, 167172, Note_off_c, 2, 71, 64
11, 167262, Note_on_c, 2, 59, 85
11, 167306, Note_off_c, 2, 59, 64
11, 167385, Note_on_c, 2, 59, 68
11, 167444, Note_off_c, 2, 59, 64
11, 167521, Note_on_c, 2, 64, 59
11, 167759, Note_off_c, 2, 64, 64
11, 170448, Note_on_c, 2, 72, 80
11, 170490, Note_off_c, 2, 72, 64
11, 170506, Note_on_c, 2, 71, 70
11, 170552, Note_off_c, 2, 71, 64
11, 170566, Note_on_c, 2, 69, 57
11, 170617, Note_off_c, 2, 69, 64
11, 170622, Note_on_c, 2, 67, 64
11, 170664, Note_off_c, 2, 67, 64
11, 170678, Note_on_c, 2, 66, 55
11, 170718, Note_off_c, 2, 66, 64
11, 170735, Note_on_c, 2, 67, 60
11, 170776, Note_off_c, 2, 67, 64
11, 170798, Note_on_c, 2, 64, 52
11, 170848, Note_off_c, 2, 64, 64
11, 170866, Note_on_c, 2, 72, 70
11, 170915, Note_off_c, 2, 72, 64
11, 170927, Note_on_c, 2, 71, 68
11, 170970, Note_off_c, 2, 71, 64
11, 170984, Note_on_c, 2, 69, 60
11, 171026, Note_off_c, 2, 69, 64
11, 171036, Note_on_c, 2, 67, 64
11, 171080, Note_off_c, 2, 67, 64
11, 171107, Note_on_c, 2, 66, 76
11, 171147, Note_off_c, 2, 66, 64
11, 171225, Note_on_c, 2, 71, 74
11, 171262, Note_off_c, 2, 71, 64
11, 171348, Note_on_c, 2, 64, 58
11, 171590, Note_off_c, 2, 64, 64
11, 173865, Note_on_c, 2, 72, 76
11, 173914, Note_off_c, 2, 72, 64
11, 173985, Note_on_c, 2, 72, 85
11, 174033, Note_off_c, 2, 72, 64
11, 174108, Note_on_c, 2, 72, 87
11, 174152, Note_off_c, 2, 72, 64
11, 174224, Note_on_c, 2, 69, 76
11, 174360, Note_off_c, 2, 69, 64
11, 175785, Note_on_c, 2, 70, 78
11, 175834, Note_off_c, 2, 70, 64
11, 175910, Note_on_c, 2, 70, 91
11, 175958, Note_off_c, 2, 70, 64
11, 176032, Note_on_c, 2, 70, 82
11, 176072, Note_off_c, 2, 70, 64
11, 176148, Note_on_c, 2, 67, 72
11, 176281, Note_off_c, 2, 67, 64
11, 177648, Note_on_c, 2, 70, 87
11, 177681, Note_off_c, 2, 70, 64
11, 177702, Note_on_c, 2, 69, 76
11, 177754, Note_off_c, 2, 69, 64
11, 177758, Note_on_c, 2, 67, 63
11, 177800, Note_off_c, 2, 67, 64
11, 177819, Note_on_c, 2, 65, 80
11, 177867, Note_off_c, 2, 65, 64
11, 177870, Note_on_c, 2, 64, 63
11, 177924, Note_off_c, 2, 64, 64
11, 177932, Note_on_c, 2, 65, 64
11, 177984, Note_off_c, 2, 65, 64
11, 177994, Note_on_c, 2, 62, 64
11, 178033, Note_off_c, 2, 62, 64
11, 178064, Note_on_c, 2, 69, 53
11, 178126, Note_on_c, 2, 67, 70
11, 178127, Note_off_c, 2, 69, 64
11, 178179, Note_off_c, 2, 67, 64
11, 178193, Note_on_c, 2, 69, 52
11, 178225, Note_off_c, 2, 69, 64
11, 178233, Note_on_c, 2, 70, 63
11, 178284, Note_off_c, 2, 70, 64
11, 178301, Note_on_c, 2, 72, 89
11, 178352, Note_off_c, 2, 72, 64
11, 178423, Note_on_c, 2, 69, 78
11, 178468, Note_off_c, 2, 69, 64
11, 178539, Note_on_c, 2, 67, 82
11, 178588, Note_off_c, 2, 67, 64
11, 178664, Note_on_c, 2, 67, 87
11, 178721, Note_off_c, 2, 67, 64
11, 178787, Note_on_c, 2, 67, 89
11, 178848, Note_off_c, 2, 67, 64
11, 178904, Note_on_c, 2, 67, 87
11, 178969, Note_off_c, 2, 67, 64
11, 195402, Note_on_c, 2, 59, 68
11, 195463, Note_on_c, 2, 60, 55
11, 195464, Note_off_c, 2, 59, 64
11, 195519, Note_on_c, 2, 62, 66
11, 195521, Note_off_c, 2, 60, 64
11, 195575, Note_off_c, 2, 62, 64
11, 195587, Note_on_c, 2, 64, 70
11, 195632, Note_off_c, 2, 64, 64
11, 195641, Note_on_c, 2, 62, 66
11, 195705, Note_off_c, 2, 62, 64
11, 195709, Note_on_c, 2, 64, 59
11, 195766, Note_off_c, 2, 64, 64
11, 195773, Note_on_c, 2, 65, 55
11, 195824, Note_off_c, 2, 65, 64
11, 195840, Note_on_c, 2, 67, 68
11, 195897, Note_on_c, 2, 70, 57
11, 195904, Note_off_c, 2, 67, 64
11, 195958, Note_off_c, 2, 70, 64
11, 195960, Note_on_c, 2, 69, 70
11, 196010, Note_off_c, 2, 69, 64
11, 196016, Note_on_c, 2, 67, 62
11, 196063, Note_off_c, 2, 67, 64
11, 196075, Note_on_c, 2, 65, 63
11, 196126, Note_off_c, 2, 65, 64
11, 196130, Note_on_c, 2, 64, 57
11, 196179, Note_off_c, 2, 64, 64
11, 196185, Note_on_c, 2, 65, 57
11, 196243, Note_off_c, 2, 65, 64
11, 196245, Note_on_c, 2, 62, 58
11, 196284, Note_off_c, 2, 62, 64
11, 196310, Note_on_c, 2, 67, 70
11, 196362, Note_off_c, 2, 67, 64
11, 196368, Note_on_c, 2, 65, 40
11, 196416, Note_off_c, 2, 65, 64
11, 196431, Note_on_c, 2, 67, 63
11, 196489, Note_off_c, 2, 67, 64
11, 196495, Note_on_c, 2, 69, 63
11, 196546, Note_off_c, 2, 69, 64
11, 196554, Note_on_c, 2, 67, 62
11, 196602, Note_off_c, 2, 67, 64
11, 196609, Note_on_c, 2, 65, 60
11, 196657, Note_off_c, 2, 65, 64
11, 196672, Note_on_c, 2, 64, 62
11, 196718, Note_off_c, 2, 64, 64
11, 196724, Note_on_c, 2, 62, 66
11, 196778, Note_off_c, 2, 62, 64
11, 196801, Note_on_c, 2, 60, 68
11, 197059, Note_off_c, 2, 60, 64
11, 197159, Note_on_c, 2, 64, 82
11, 197200, Note_off_c, 2, 64, 64
11, 197277, Note_on_c, 2, 65, 64
11, 197326, Note_off_c, 2, 65, 64
11, 197387, Note_on_c, 2, 62, 87
11, 197430, Note_off_c, 2, 62, 64
11, 197511, Note_on_c, 2, 59, 85
11, 197627, Note_off_c, 2, 59, 64
11, 197633, Note_on_c, 2, 60, 76
11, 197677, Note_off_c, 2, 60, 64
11, 197690, Note_on_c, 2, 62, 80
11, 197729, Note_off_c, 2, 62, 64
11, 197752, Note_on_c, 2, 64, 82
11, 197804, Note_off_c, 2, 64, 64
11, 197809, Note_on_c, 2, 67, 82
11, 197865, Note_off_c, 2, 67, 64
11, 197867, Note_on_c, 2, 65, 63
11, 197924, Note_off_c, 2, 65, 64
11, 197928, Note_on_c, 2, 64, 72
11, 197977, Note_off_c, 2, 64, 64
11, 197979, Note_on_c, 2, 62, 80
11, 198024, Note_off_c, 2, 62, 64
11, 198037, Note_on_c, 2, 60, 64
11, 198086, Note_off_c, 2, 60, 64
11, 198096, Note_on_c, 2, 59, 60
11, 198142, Note_off_c, 2, 59, 64
11, 198152, Note_on_c, 2, 57, 87
11, 198196, Note_off_c, 2, 57, 64
11, 198221, Note_on_c, 2, 55, 82
11, 198353, Note_off_c, 2, 55, 64
11, 198364, Note_on_c, 2, 67, 85
11, 198522, Note_off_c, 2, 67, 64
11, 198537, Note_on_c, 2, 64, 78
11, 198593, Note_off_c, 2, 64, 64
11, 198593, Note_on_c, 2, 62, 63
11, 198649, Note_on_c, 2, 64, 80
11, 198656, Note_off_c, 2, 62, 64
11, 198709, Note_off_c, 2, 64, 64
11, 198712, Note_on_c, 2, 65, 74
11, 198940, Note_off_c, 2, 65, 64
11, 198999, Note_on_c, 2, 65, 64
11, 199053, Note_off_c, 2, 65, 64
11, 199059, Note_on_c, 2, 67, 78
11, 199118, Note_off_c, 2, 67, 64
11, 199120, Note_on_c, 2, 69, 82
11, 199165, Note_off_c, 2, 69, 64
11, 199182, Note_on_c, 2, 67, 85
11, 199217, Note_off_c, 2, 67, 64
11, 199237, Note_on_c, 2, 67, 85
11, 199288, Note_off_c, 2, 67, 64
11, 199295, Note_on_c, 2, 69, 74
11, 199342, Note_off_c, 2, 69, 64
11, 199353, Note_on_c, 2, 70, 74
11, 199400, Note_off_c, 2, 70, 64
11, 199422, Note_on_c, 2, 64, 82
11, 199475, Note_off_c, 2, 64, 64
11, 199542, Note_on_c, 2, 69, 89
11, 199704, Note_off_c, 2, 69, 64
11, 199722, Note_on_c, 2, 67, 87
11, 199775, Note_off_c, 2, 67, 64
11, 199780, Note_on_c, 2, 65, 82
11, 199820, Note_off_c, 2, 65, 64
11, 199833, Note_on_c, 2, 64, 95
11, 199880, Note_off_c, 2, 64, 64
11, 199898, Note_on_c, 2, 62, 85
11, 199952, Note_off_c, 2, 62, 64
11, 200022, Note_on_c, 2, 67, 87
11, 200060, Note_off_c, 2, 67, 64
11, 200147, Note_on_c, 2, 67, 93
11, 200332, Note_off_c, 2, 67, 64
11, 200398, Note_on_c, 2, 64, 95
11, 200528, Note_off_c, 2, 64, 64
11, 200559, Note_on_c, 2, 64, 78
11, 200611, Note_off_c, 2, 64, 64
11, 200626, Note_on_c, 2, 69, 95
11, 200676, Note_off_c, 2, 69, 64
11, 200746, Note_on_c, 2, 57, 87
11, 200803, Note_off_c, 2, 57, 64
11, 200874, Note_on_c, 2, 62, 85
11, 201017, Note_off_c, 2, 62, 64
11, 201049, Note_on_c, 2, 62, 89
11, 201099, Note_off_c, 2, 62, 64
11, 201109, Note_on_c, 2, 67, 98
11, 201162, Note_off_c, 2, 67, 64
11, 201229, Note_on_c, 2, 55, 91
11, 201277, Note_off_c, 2, 55, 64
11, 201344, Note_on_c, 2, 60, 78
11, 201496, Note_off_c, 2, 60, 64
11, 201526, Note_on_c, 2, 60, 87
11, 201565, Note_off_c, 2, 60, 64
11, 201592, Note_on_c, 2, 65, 87
11, 201639, Note_off_c, 2, 65, 64
11, 201713, Note_on_c, 2, 53, 76
11, 201762, Note_off_c, 2, 53, 64
11, 201830, Note_on_c, 2, 59, 85
11, 201984, Note_off_c, 2, 59, 64
11, 202012, Note_on_c, 2, 59, 72
11, 202063, Note_off_c, 2, 59, 64
11, 202074, Note_on_c, 2, 64, 95
11, 202128, Note_off_c, 2, 64, 64
11, 202188, Note_on_c, 2, 52, 89
11, 202239, Note_off_c, 2, 52, 64
11, 202309, Note_on_c, 2, 57, 85
11, 202448, Note_off_c, 2, 57, 64
11, 202484, Note_on_c, 2, 57, 76
11, 202520, Note_off_c, 2, 57, 64
11, 202550, Note_on_c, 2, 62, 85
11, 202601, Note_on_c, 2, 60, 72
11, 202609, Note_off_c, 2, 62, 64
11, 202646, Note_off_c, 2, 60, 64
11, 202662, Note_on_c, 2, 62, 80
11, 202708, Note_off_c, 2, 62, 64
11, 202717, Note_on_c, 2, 59, 78
11, 202764, Note_off_c, 2, 59, 64
11, 202786, Note_on_c, 2, 64, 85
11, 202849, Note_off_c, 2, 64, 64
11, 202912, Note_on_c, 2, 62, 80
11, 202955, Note_off_c, 2, 62, 64
11, 203024, Note_on_c, 2, 60, 85
11, 203126, Note_off_c, 2, 60, 64
11, 203150, Note_on_c, 2, 62, 66
11, 203199, Note_off_c, 2, 62, 64
11, 203204, Note_on_c, 2, 64, 76
11, 203252, Note_off_c, 2, 64, 64
11, 203266, Note_on_c, 2, 65, 85
11, 203332, Note_off_c, 2, 65, 64
11, 203387, Note_on_c, 2, 65, 78
11, 203430, Note_off_c, 2, 65, 64
11, 203510, Note_on_c, 2, 67, 85
11, 203572, Note_off_c, 2, 67, 64
11, 203627, Note_on_c, 2, 62, 82
11, 203686, Note_off_c, 2, 62, 64
11, 203755, Note_on_c, 2, 67, 87
11, 203822, Note_off_c, 2, 67, 64
11, 203874, Note_on_c, 2, 71, 85
11, 203929, Note_off_c, 2, 71, 64
11, 203996, Note_on_c, 2, 67, 85
11, 204061, Note_off_c, 2, 67, 64
11, 204113, Note_on_c, 2, 69, 85
11, 204163, Note_off_c, 2, 69, 64
11, 204230, Note_on_c, 2, 62, 82
11, 204284, Note_off_c, 2, 62, 64
11, 204350, Note_on_c, 2, 67, 85
11, 204404, Note_off_c, 2, 67, 64
11, 204471, Note_on_c, 2, 64, 93
11, 204621, Note_off_c, 2, 64, 64
11, 218098, Note_on_c, 2, 55, 89
11, 218149, Note_off_c, 2, 55, 64
11, 218157, Note_on_c, 2, 67, 89
11, 218244, Note_off_c, 2, 67, 64
11, 218337, Note_on_c, 2, 69, 87
11, 218385, Note_off_c, 2, 69, 64
11, 218400, Note_on_c, 2, 67, 87
11, 218588, Note_off_c, 2, 67, 64
11, 218642, Note_on_c, 2, 62, 78
11, 218816, Note_off_c, 2, 62, 64
11, 218881, Note_on_c, 2, 64, 85
11, 219607, Note_off_c, 2, 64, 64
11, 219607, End_track
12, 0, Start_track
12, 0, Title_t, "Cello"
12, 0, Program_c, 3, 42
12, 0, Control_c, 3, 7, 100
12, 15651, Note_on_c, 3, 42, 87
12, 15687, Note_off_c, 3, 42, 64
12, 15708, Note_on_c, 3, 43, 76
12, 15754, Note_off_c, 3, 43, 64
12, 15769, Note_on_c, 3, 45, 80
12, 15805, Note_off_c, 3, 45, 64
12, 15831, Note_on_c, 3, 47, 91
12, 15876, Note_off_c, 3, 47, 64
12, 15890, Note_on_c, 3, 45, 87
12, 15931, Note_off_c, 3, 45, 64
12, 15948, Note_on_c, 3, 43, 80
12, 15992, Note_off_c, 3, 43, 64
12, 16005, Note_on_c, 3, 45, 87
12, 16040, Note_off_c, 3, 45, 64
12, 16063, Note_on_c, 3, 47, 95
12, 16109, Note_off_c, 3, 47, 64
12, 16123, Note_on_c, 3, 43, 82
12, 16169, Note_off_c, 3, 43, 64
12, 16185, Note_on_c, 3, 45, 74
12, 16224, Note_off_c, 3, 45, 64
12, 16242, Note_on_c, 3, 47, 93
12, 16276, Note_off_c, 3, 47, 64
12, 16311, Note_on_c, 3, 48, 93
12, 16569, Note_off_c, 3, 48, 64
12, 16611, Note_on_c, 3, 55, 82
12, 16649, Note_off_c, 3, 55, 64
12, 16669, Note_on_c, 3, 57, 85
12, 16705, Note_off_c, 3, 57, 64
12, 16726, Note_on_c, 3, 59, 87
12, 16763, Note_off_c, 3, 59, 64
12, 16793, Note_on_c, 3, 60, 93
12, 17353, Note_off_c, 3, 60, 64
12, 17450, Note_on_c, 3, 60, 85
12, 17493, Note_off_c, 3, 60, 64
12, 17513, Note_on_c, 3, 59, 87
12, 17573, Note_off_c, 3, 59, 64
12, 17677, Note_on_c, 3, 57, 72
12, 17716, Note_off_c, 3, 57, 64
12, 17744, Note_on_c, 3, 59, 85
12, 17810, Note_off_c, 3, 59, 64
12, 17919, Note_on_c, 3, 57, 72
12, 17950, Note_off_c, 3, 57, 64
12, 17983, Note_on_c, 3, 59, 87
12, 18050, Note_off_c, 3, 59, 64
12, 18154, Note_on_c, 3, 55, 76
12, 18191, Note_off_c, 3, 55, 64
12, 18231, Note_on_c, 3, 57, 85
12, 18494, Note_off_c, 3, 57, 64
12, 18526, Note_on_c, 3, 57, 78
12, 18566, Note_off_c, 3, 57, 64
12, 18592, Note_on_c, 3, 59, 85
12, 18636, Note_off_c, 3, 59, 64
12, 18651, Note_on_c, 3, 60, 82
12, 18681, Note_off_c, 3, 60, 64
12, 18708, Note_on_c, 3, 62, 91
12, 18750, Note_off_c, 3, 62, 64
12, 18768, Note_on_c, 3, 60, 80
12, 18805, Note_off_c, 3, 60, 64
12, 18827, Note_on_c, 3, 59, 80
12, 18866, Note_off_c, 3, 59, 64
12, 18883, Note_on_c, 3, 60, 80
12, 18917, Note_off_c, 3, 60, 64
12, 18945, Note_on_c, 3, 62, 78
12, 18992, Note_off_c, 3, 62, 64
12, 19007, Note_on_c, 3, 59, 68
12, 19047, Note_off_c, 3, 59, 64
12, 19068, Note_on_c, 3, 60, 80
12, 19104, Note_off_c, 3, 60, 64
12, 19125, Note_on_c, 3, 62, 87
12, 19160, Note_off_c, 3, 62, 64
12, 19192, Note_on_c, 3, 55, 80
12, 19276, Note_off_c, 3, 55, 64
12, 19362, Note_on_c, 3, 57, 80
12, 19398, Note_off_c, 3, 57, 64
12, 19426, Note_on_c, 3, 59, 87
12, 19508, Note_off_c, 3, 59, 64
12, 19593, Note_on_c, 3, 55, 68
12, 19633, Note_off_c, 3, 55, 64
12, 19668, Note_on_c, 3, 60, 89
12, 19819, Note_off_c, 3, 60, 64
12, 19911, Note_on_c, 3, 48, 87
12, 20051, Note_off_c, 3, 48, 64
12, 20141, Note_on_c, 3, 55, 80
12, 20663, Note_off_c, 3, 55, 64
12, 20691, Note_on_c, 3, 54, 78
12, 20732, Note_off_c, 3, 54, 64
12, 20750, Note_on_c, 3, 55, 80
12, 20794, Note_off_c, 3, 55, 64
12, 20809, Note_on_c, 3, 57, 87
12, 20845, Note_off_c, 3, 57, 64
12, 20868, Note_on_c, 3, 59, 82
12, 20907, Note_off_c, 3, 59, 64
12, 20926, Note_on_c, 3, 55, 82
12, 20970, Note_off_c, 3, 55, 64
12, 20989, Note_on_c, 3, 57, 85
12, 21026, Note_off_c, 3, 57, 64
12, 21051, Note_on_c, 3, 59, 80
12, 21100, Note_off_c, 3, 59, 64
12, 21120, Note_on_c, 3, 48, 87
12, 21613, Note_off_c, 3, 48, 64
12, 21642, Note_on_c, 3, 47, 70
12, 21686, Note_off_c, 3, 47, 64
12, 21704, Note_on_c, 3, 45, 72
12, 21749, Note_off_c, 3, 45, 64
12, 21761, Note_on_c, 3, 47, 70
12, 21798, Note_off_c, 3, 47, 64
12, 21822, Note_on_c, 3, 48, 89
12, 21869, Note_off_c, 3, 48, 64
12, 21884, Note_on_c, 3, 45, 72
12, 21927, Note_off_c, 3, 45, 64
12, 21943, Note_on_c, 3, 47, 74
12, 21984, Note_off_c, 3, 47, 64
12, 22003, Note_on_c, 3, 48, 85
12, 22047, Note_off_c, 3, 48, 64
12, 22072, Note_on_c, 3, 40, 85
12, 22231, Note_off_c, 3, 40, 64
12, 22305, Note_on_c, 3, 52, 82
12, 22571, Note_off_c, 3, 52, 64
12, 22609, Note_on_c, 3, 50, 80
12, 22662, Note_off_c, 3, 50, 64
12, 22667, Note_on_c, 3, 52, 76
12, 22714, Note_off_c, 3, 52, 64
12, 22727, Note_on_c, 3, 54, 68
12, 22769, Note_off_c, 3, 54, 64
12, 22790, Note_on_c, 3, 55, 85
12, 22831, Note_off_c, 3, 55, 64
12, 22850, Note_on_c, 3, 54, 70
12, 22889, Note_off_c, 3, 54, 64
12, 22910, Note_on_c, 3, 55, 72
12, 22954, Note_off_c, 3, 55, 64
12, 22971, Note_on_c, 3, 52, 68
12, 23018, Note_off_c, 3, 52, 64
12, 23043, Note_on_c, 3, 61, 80
12, 23595, Note_off_c, 3, 61, 64
12, 23676, Note_on_c, 3, 59, 78
12, 23712, Note_off_c, 3, 59, 64
12, 23743, Note_on_c, 3, 61, 82
12, 23829, Note_off_c, 3, 61, 64
12, 23923, Note_on_c, 3, 57, 82
12, 23961, Note_off_c, 3, 57, 64
12, 23993, Note_on_c, 3, 62, 82
12, 24553, Note_off_c, 3, 62, 64
12, 24643, Note_on_c, 3, 64, 82
12, 24691, Note_off_c, 3, 64, 64
12, 24708, Note_on_c, 3, 62, 87
12, 24790, Note_off_c, 3, 62, 64
12, 24887, Note_on_c, 3, 60, 80
12, 24921, Note_off_c, 3, 60, 64
12, 24954, Note_on_c, 3, 59, 82
12, 25464, Note_off_c, 3, 59, 64
12, 25487, Note_on_c, 3, 57, 70
12, 25530, Note_off_c, 3, 57, 64
12, 25547, Note_on_c, 3, 55, 72
12, 25592, Note_off_c, 3, 55, 64
12, 25605, Note_on_c, 3, 57, 80
12, 25644, Note_off_c, 3, 57, 64
12, 25669, Note_on_c, 3, 59, 82
12, 25717, Note_off_c, 3, 59, 64
12, 25733, Note_on_c, 3, 55, 82
12, 25774, Note_off_c, 3, 55, 64
12, 25795, Note_on_c, 3, 57, 82
12, 25832, Note_off_c, 3, 57, 64
12, 25854, Note_on_c, 3, 59, 87
12, 25894, Note_off_c, 3, 59, 64
12, 25916, Note_on_c, 3, 48, 85
12, 26412, Note_off_c, 3, 48, 64
12, 26450, Note_on_c, 3, 47, 82
12, 26496, Note_off_c, 3, 47, 64
12, 26508, Note_on_c, 3, 48, 85
12, 26559, Note_off_c, 3, 48, 64
12, 26566, Note_on_c, 3, 50, 80
12, 26603, Note_off_c, 3, 50, 64
12, 26629, Note_on_c, 3, 52, 76
12, 26674, Note_off_c, 3, 52, 64
12, 26687, Note_on_c, 3, 48, 78
12, 26730, Note_off_c, 3, 48, 64
12, 26749, Note_on_c, 3, 50, 87
12, 26788, Note_off_c, 3, 50, 64
12, 26808, Note_on_c, 3, 52, 82
12, 26851, Note_off_c, 3, 52, 64
12, 26879, Note_on_c, 3, 45, 85
12, 27378, Note_off_c, 3, 45, 64
12, 27410, Note_on_c, 3, 43, 76
12, 27460, Note_off_c, 3, 43, 64
12, 27472, Note_on_c, 3, 45, 82
12, 27521, Note_off_c, 3, 45, 64
12, 27531, Note_on_c, 3, 47, 82
12, 27572, Note_off_c, 3, 47, 64
12, 27593, Note_on_c, 3, 48, 80
12, 27636, Note_off_c, 3, 48, 64
12, 27649, Note_on_c, 3, 47, 66
12, 27706, Note_off_c, 3, 47, 64
12, 27713, Note_on_c, 3, 48, 82
12, 27758, Note_off_c, 3, 48, 64
12, 27770, Note_on_c, 3, 50, 82
12, 27811, Note_off_c, 3, 50, 64
12, 27836, Note_on_c, 3, 52, 66
12, 27954, Note_off_c, 3, 52, 64
12, 28076, Note_on_c, 3, 64, 87
12, 28200, Note_off_c, 3, 64, 64
12, 28315, Note_on_c, 3, 62, 82
12, 28432, Note_off_c, 3, 62, 64
12, 28547, Note_on_c, 3, 60, 80
12, 28672, Note_off_c, 3, 60, 64
12, 28792, Note_on_c, 3, 59, 87
12, 28910, Note_off_c, 3, 59, 64
12, 29035, Note_on_c, 3, 47, 80
12, 29147, Note_off_c, 3, 47, 64
12, 29266, Note_on_c, 3, 45, 76
12, 29385, Note_off_c, 3, 45, 64
12, 29505, Note_on_c, 3, 43, 70
12, 29639, Note_off_c, 3, 43, 64
12, 29751, Note_on_c, 3, 42, 78
12, 29947, Note_off_c, 3, 42, 64
12, 29989, Note_on_c, 3, 43, 87
12, 30116, Note_off_c, 3, 43, 64
12, 30164, Note_on_c, 3, 48, 82
12, 30205, Note_off_c, 3, 48, 64
12, 30231, Note_on_c, 3, 50, 82
12, 30396, Note_off_c, 3, 50, 64
12, 30474, Note_on_c, 3, 38, 95
12, 30624, Note_off_c, 3, 38, 64
12, 30712, Note_on_c, 3, 43, 87
12, 30822, Note_off_c, 3, 43, 64
12, 56695, Note_on_c, 3, 60, 72
12, 56728, Note_off_c, 3, 60, 64
12, 56752, Note_on_c, 3, 59, 63
12, 56787, Note_off_c, 3, 59, 64
12, 56807, Note_on_c, 3, 57, 64
12, 56848, Note_off_c, 3, 57, 64
12, 56866, Note_on_c, 3, 55, 72
12, 56899, Note_off_c, 3, 55, 64
12, 56921, Note_on_c, 3, 54, 66
12, 56953, Note_off_c, 3, 54, 64
12, 56979, Note_on_c, 3, 55, 87
12, 57009, Note_off_c, 3, 55, 64
12, 57035, Note_on_c, 3, 52, 82
12, 57064, Note_off_c, 3, 52, 64
12, 57105, Note_on_c, 3, 57, 91
12, 57153, Note_off_c, 3, 57, 64
12, 57226, Note_on_c, 3, 45, 82
12, 57300, Note_off_c, 3, 45, 64
12, 58605, Note_on_c, 3, 58, 82
12, 58644, Note_off_c, 3, 58, 64
12, 58662, Note_on_c, 3, 57, 87
12, 58701, Note_off_c, 3, 57, 64
12, 58720, Note_on_c, 3, 55, 80
12, 58785, Note_off_c, 3, 55, 64
12, 58790, Note_on_c, 3, 53, 66
12, 58824, Note_off_c, 3, 53, 64
12, 58847, Note_on_c, 3, 52, 64
12, 58881, Note_off_c, 3, 52, 64
12, 58906, Note_on_c, 3, 53, 68
12, 58946, Note_off_c, 3, 53, 64
12, 58965, Note_on_c, 3, 50, 64
12, 59003, Note_off_c, 3, 50, 64
12, 59025, Note_on_c, 3, 55, 76
12, 59072, Note_off_c, 3, 55, 64
12, 59143, Note_on_c, 3, 43, 68
12, 59214, Note_off_c, 3, 43, 64
12, 61011, Note_on_c, 3, 53, 70
12, 61050, Note_off_c, 3, 53, 64
12, 61069, Note_on_c, 3, 52, 80
12, 61105, Note_off_c, 3, 52, 64
12, 61125, Note_on_c, 3, 50, 66
12, 61181, Note_off_c, 3, 50, 64
12, 61185, Note_on_c, 3, 48, 68
12, 61222, Note_off_c, 3, 48, 64
12, 61242, Note_on_c, 3, 47, 70
12, 61279, Note_off_c, 3, 47, 64
12, 61299, Note_on_c, 3, 48, 66
12, 61344, Note_off_c, 3, 48, 64
12, 61362, Note_on_c, 3, 45, 68
12, 61406, Note_off_c, 3, 45, 64
12, 61430, Note_on_c, 3, 50, 85
12, 61479, Note_off_c, 3, 50, 64
12, 61546, Note_on_c, 3, 38, 80
12, 61620, Note_off_c, 3, 38, 64
12, 62031, Note_on_c, 3, 55, 80
12, 62069, Note_off_c, 3, 55, 64
12, 62150, Note_on_c, 3, 55, 78
12, 62197, Note_off_c, 3, 55, 64
12, 62270, Note_on_c, 3, 55, 80
12, 62317, Note_off_c, 3, 55, 64
12, 62390, Note_on_c, 3, 54, 74
12, 62503, Note_off_c, 3, 54, 64
12, 62514, Note_on_c, 3, 55, 68
12, 62554, Note_off_c, 3, 55, 64
12, 62570, Note_on_c, 3, 57, 80
12, 62606, Note_off_c, 3, 57, 64
12, 62628, Note_on_c, 3, 59, 80
12, 62666, Note_off_c, 3, 59, 64
12, 62745, Note_on_c, 3, 55, 80
12, 62789, Note_off_c, 3, 55, 64
12, 62861, Note_on_c, 3, 52, 74
12, 62907, Note_off_c, 3, 52, 64
12, 62985, Note_on_c, 3, 57, 80
12, 63020, Note_off_c, 3, 57, 64
12, 63101, Note_on_c, 3, 45, 82
12, 63153, Note_off_c, 3, 45, 64
12, 63220, Note_on_c, 3, 55, 85
12, 63255, Note_off_c, 3, 55, 64
12, 63336, Note_on_c, 3, 54, 68
12, 63431, Note_off_c, 3, 54, 64
12, 63463, Note_on_c, 3, 55, 72
12, 63516, Note_on_c, 3, 57, 68
12, 63519, Note_off_c, 3, 55, 64
12, 63576, Note_off_c, 3, 57, 64
12, 63580, Note_on_c, 3, 59, 63
12, 63628, Note_off_c, 3, 59, 64
12, 63638, Note_on_c, 3, 60, 78
12, 63684, Note_off_c, 3, 60, 64
12, 63703, Note_on_c, 3, 60, 63
12, 63703, Note_on_c, 3, 62, 60
12, 63732, Note_off_c, 3, 60, 64
12, 63735, Note_off_c, 3, 62, 64
12, 63750, Note_on_c, 3, 64, 63
12, 63796, Note_off_c, 3, 64, 64
12, 63824, Note_on_c, 3, 57, 52
12, 63873, Note_off_c, 3, 57, 64
12, 63881, Note_on_c, 3, 60, 64
12, 63933, Note_off_c, 3, 60, 64
12, 63945, Note_on_c, 3, 59, 53
12, 63994, Note_off_c, 3, 59, 64
12, 64004, Note_on_c, 3, 60, 59
12, 64048, Note_off_c, 3, 60, 64
12, 64072, Note_on_c, 3, 62, 98
12, 64126, Note_off_c, 3, 62, 64
12, 64127, Note_on_c, 3, 60, 66
12, 64173, Note_off_c, 3, 60, 64
12, 64189, Note_on_c, 3, 59, 57
12, 64233, Note_off_c, 3, 59, 64
12, 64243, Note_on_c, 3, 57, 54
12, 64287, Note_off_c, 3, 57, 64
12, 64303, Note_on_c, 3, 55, 66
12, 64352, Note_off_c, 3, 55, 64
12, 64364, Note_on_c, 3, 59, 62
12, 64422, Note_off_c, 3, 59, 64
12, 64430, Note_on_c, 3, 57, 52
12, 64467, Note_off_c, 3, 57, 64
12, 64488, Note_on_c, 3, 59, 82
12, 64527, Note_off_c, 3, 59, 64
12, 64548, Note_on_c, 3, 60, 85
12, 64603, Note_off_c, 3, 60, 64
12, 64605, Note_on_c, 3, 59, 66
12, 64655, Note_off_c, 3, 59, 64
12, 64663, Note_on_c, 3, 57, 60
12, 64713, Note_off_c, 3, 57, 64
12, 64727, Note_on_c, 3, 55, 57
12, 64772, Note_off_c, 3, 55, 64
12, 64788, Note_on_c, 3, 54, 47
12, 64840, Note_off_c, 3, 54, 64
12, 64850, Note_on_c, 3, 57, 58
12, 64904, Note_off_c, 3, 57, 64
12, 64906, Note_on_c, 3, 55, 44
12, 64967, Note_on_c, 3, 57, 66
12, 64976, Note_off_c, 3, 55, 64
12, 65019, Note_off_c, 3, 57, 64
12, 65028, Note_on_c, 3, 59, 68
12, 65083, Note_on_c, 3, 57, 68
12, 65091, Note_off_c, 3, 59, 64
12, 65140, Note_off_c, 3, 57, 64
12, 65146, Note_on_c, 3, 55, 54
12, 65203, Note_off_c, 3, 55, 64
12, 65207, Note_on_c, 3, 54, 60
12, 65255, Note_off_c, 3, 54, 64
12, 65267, Note_on_c, 3, 52, 56
12, 65310, Note_off_c, 3, 52, 64
12, 65316, Note_on_c, 3, 55, 68
12, 65366, Note_off_c, 3, 55, 64
12, 65374, Note_on_c, 3, 54, 74
12, 65427, Note_off_c, 3, 54, 64
12, 65436, Note_on_c, 3, 55, 66
12, 65479, Note_off_c, 3, 55, 64
12, 65503, Note_on_c, 3, 57, 82
12, 65554, Note_off_c, 3, 57, 64
12, 65556, Note_on_c, 3, 55, 63
12, 65600, Note_off_c, 3, 55, 64
12, 65606, Note_on_c, 3, 54, 57
12, 65662, Note_off_c, 3, 54, 64
12, 65669, Note_on_c, 3, 52, 53
12, 65714, Note_off_c, 3, 52, 64
12, 65745, Note_on_c, 3, 50, 63
12, 65821, Note_off_c, 3, 50, 64
12, 65877, Note_on_c, 3, 62, 74
12, 65915, Note_off_c, 3, 62, 64
12, 65994, Note_on_c, 3, 62, 85
12, 66038, Note_off_c, 3, 62, 64
12, 66113, Note_on_c, 3, 62, 87
12, 66152, Note_off_c, 3, 62, 64
12, 66236, Note_on_c, 3, 59, 80
12, 66344, Note_off_c, 3, 59, 64
12, 66356, Note_on_c, 3, 60, 80
12, 66399, Note_off_c, 3, 60, 64
12, 66409, Note_on_c, 3, 62, 66
12, 66451, Note_off_c, 3, 62, 64
12, 66468, Note_on_c, 3, 64, 85
12, 66506, Note_off_c, 3, 64, 64
12, 66588, Note_on_c, 3, 60, 78
12, 66627, Note_off_c, 3, 60, 64
12, 66708, Note_on_c, 3, 57, 66
12, 66747, Note_off_c, 3, 57, 64
12, 66821, Note_on_c, 3, 62, 82
12, 66864, Note_off_c, 3, 62, 64
12, 66946, Note_on_c, 3, 50, 80
12, 66992, Note_off_c, 3, 50, 64
12, 67059, Note_on_c, 3, 60, 76
12, 67104, Note_off_c, 3, 60, 64
12, 67184, Note_on_c, 3, 59, 70
12, 67227, Note_off_c, 3, 59, 64
12, 67300, Note_on_c, 3, 55, 70
12, 67342, Note_off_c, 3, 55, 64
12, 67418, Note_on_c, 3, 62, 76
12, 67458, Note_off_c, 3, 62, 64
12, 67539, Note_on_c, 3, 50, 68
12, 67592, Note_off_c, 3, 50, 64
12, 67672, Note_on_c, 3, 43, 72
12, 67816, Note_off_c, 3, 43, 64
12, 85083, Note_on_c, 3, 60, 76
12, 85122, Note_off_c, 3, 60, 64
12, 85205, Note_on_c, 3, 60, 80
12, 85252, Note_off_c, 3, 60, 64
12, 85324, Note_on_c, 3, 60, 82
12, 85370, Note_off_c, 3, 60, 64
12, 85441, Note_on_c, 3, 59, 66
12, 85558, Note_off_c, 3, 59, 64
12, 85565, Note_on_c, 3, 60, 80
12, 85613, Note_off_c, 3, 60, 64
12, 85613, Note_on_c, 3, 62, 82
12, 85660, Note_off_c, 3, 62, 64
12, 85671, Note_on_c, 3, 64, 87
12, 85713, Note_off_c, 3, 64, 64
12, 85794, Note_on_c, 3, 60, 82
12, 85836, Note_off_c, 3, 60, 64
12, 85910, Note_on_c, 3, 57, 74
12, 85955, Note_off_c, 3, 57, 64
12, 86022, Note_on_c, 3, 62, 82
12, 86060, Note_off_c, 3, 62, 64
12, 86144, Note_on_c, 3, 50, 78
12, 86194, Note_off_c, 3, 50, 64
12, 86264, Note_on_c, 3, 60, 85
12, 86307, Note_off_c, 3, 60, 64
12, 86380, Note_on_c, 3, 59, 78
12, 86426, Note_off_c, 3, 59, 64
12, 86502, Note_on_c, 3, 55, 60
12, 86547, Note_off_c, 3, 55, 64
12, 86621, Note_on_c, 3, 60, 87
12, 86661, Note_off_c, 3, 60, 64
12, 86739, Note_on_c, 3, 48, 78
12, 86788, Note_off_c, 3, 48, 64
12, 86871, Note_on_c, 3, 41, 80
12, 86966, Note_off_c, 3, 41, 64
12, 86995, Note_on_c, 3, 53, 70
12, 87032, Note_off_c, 3, 53, 64
12, 87109, Note_on_c, 3, 53, 80
12, 87152, Note_off_c, 3, 53, 64
12, 87226, Note_on_c, 3, 53, 82
12, 87271, Note_off_c, 3, 53, 64
12, 87347, Note_on_c, 3, 52, 76
12, 87457, Note_off_c, 3, 52, 64
12, 87467, Note_on_c, 3, 53, 76
12, 87516, Note_on_c, 3, 55, 80
12, 87517, Note_off_c, 3, 53, 64
12, 87566, Note_off_c, 3, 55, 64
12, 87580, Note_on_c, 3, 57, 87
12, 87624, Note_off_c, 3, 57, 64
12, 87706, Note_on_c, 3, 53, 74
12, 87752, Note_off_c, 3, 53, 64
12, 87824, Note_on_c, 3, 50, 74
12, 87871, Note_off_c, 3, 50, 64
12, 87946, Note_on_c, 3, 55, 85
12, 87988, Note_off_c, 3, 55, 64
12, 88072, Note_on_c, 3, 43, 80
12, 88124, Note_off_c, 3, 43, 64
12, 88190, Note_on_c, 3, 53, 80
12, 88231, Note_off_c, 3, 53, 64
12, 88308, Note_on_c, 3, 52, 85
12, 88356, Note_off_c, 3, 52, 64
12, 88430, Note_on_c, 3, 55, 87
12, 88478, Note_off_c, 3, 55, 64
12, 88548, Note_on_c, 3, 52, 78
12, 88598, Note_off_c, 3, 52, 64
12, 88664, Note_on_c, 3, 48, 72
12, 88715, Note_off_c, 3, 48, 64
12, 88780, Note_on_c, 3, 53, 87
12, 88832, Note_off_c, 3, 53, 64
12, 88905, Note_on_c, 3, 50, 85
12, 88957, Note_off_c, 3, 50, 64
12, 89028, Note_on_c, 3, 52, 85
12, 89072, Note_off_c, 3, 52, 64
12, 89147, Note_on_c, 3, 53, 87
12, 89191, Note_off_c, 3, 53, 64
12, 89271, Note_on_c, 3, 55, 74
12, 89517, Note_off_c, 3, 55, 64
12, 93724, Note_on_c, 3, 60, 87
12, 93762, Note_off_c, 3, 60, 64
12, 93843, Note_on_c, 3, 60, 91
12, 93886, Note_off_c, 3, 60, 64
12, 93964, Note_on_c, 3, 60, 91
12, 94008, Note_off_c, 3, 60, 64
12, 94084, Note_on_c, 3, 59, 85
12, 94187, Note_off_c, 3, 59, 64
12, 94197, Note_on_c, 3, 60, 66
12, 94237, Note_off_c, 3, 60, 64
12, 94242, Note_on_c, 3, 62, 80
12, 94287, Note_off_c, 3, 62, 64
12, 94302, Note_on_c, 3, 64, 95
12, 94348, Note_off_c, 3, 64, 64
12, 94427, Note_on_c, 3, 60, 82
12, 94472, Note_off_c, 3, 60, 64
12, 94546, Note_on_c, 3, 57, 76
12, 94592, Note_off_c, 3, 57, 64
12, 94668, Note_on_c, 3, 62, 85
12, 94709, Note_off_c, 3, 62, 64
12, 94789, Note_on_c, 3, 50, 85
12, 94833, Note_off_c, 3, 50, 64
12, 94906, Note_on_c, 3, 60, 93
12, 94951, Note_off_c, 3, 60, 64
12, 95031, Note_on_c, 3, 59, 89
12, 95085, Note_on_c, 3, 57, 82
12, 95088, Note_off_c, 3, 59, 64
12, 95144, Note_off_c, 3, 57, 64
12, 95144, Note_on_c, 3, 55, 70
12, 95201, Note_on_c, 3, 57, 68
12, 95214, Note_off_c, 3, 55, 64
12, 95256, Note_off_c, 3, 57, 64
12, 95266, Note_on_c, 3, 59, 87
12, 95318, Note_on_c, 3, 55, 82
12, 95326, Note_off_c, 3, 59, 64
12, 95378, Note_off_c, 3, 55, 64
12, 95382, Note_on_c, 3, 57, 74
12, 95431, Note_off_c, 3, 57, 64
12, 95442, Note_on_c, 3, 59, 80
12, 95491, Note_off_c, 3, 59, 64
12, 95502, Note_on_c, 3, 60, 78
12, 95549, Note_off_c, 3, 60, 64
12, 95560, Note_on_c, 3, 62, 87
12, 95619, Note_on_c, 3, 60, 80
12, 95623, Note_off_c, 3, 62, 64
12, 95672, Note_off_c, 3, 60, 64
12, 95676, Note_on_c, 3, 59, 85
12, 95730, Note_off_c, 3, 59, 64
12, 95734, Note_on_c, 3, 57, 82
12, 95790, Note_on_c, 3, 55, 76
12, 95792, Note_off_c, 3, 57, 64
12, 95848, Note_on_c, 3, 53, 53
12, 95853, Note_off_c, 3, 55, 64
12, 95914, Note_on_c, 3, 52, 68
12, 95917, Note_off_c, 3, 53, 64
12, 95974, Note_off_c, 3, 52, 64
12, 95980, Note_on_c, 3, 50, 80
12, 96038, Note_off_c, 3, 50, 64
12, 96041, Note_on_c, 3, 53, 66
12, 96108, Note_off_c, 3, 53, 64
12, 96108, Note_on_c, 3, 52, 55
12, 96163, Note_on_c, 3, 53, 68
12, 96171, Note_off_c, 3, 52, 64
12, 96213, Note_off_c, 3, 53, 64
12, 96232, Note_on_c, 3, 55, 100
12, 96288, Note_on_c, 3, 53, 80
12, 96293, Note_off_c, 3, 55, 64
12, 96341, Note_off_c, 3, 53, 64
12, 96349, Note_on_c, 3, 52, 58
12, 96404, Note_off_c, 3, 52, 64
12, 96406, Note_on_c, 3, 50, 72
12, 96460, Note_off_c, 3, 50, 64
12, 96464, Note_on_c, 3, 48, 70
12, 96519, Note_off_c, 3, 48, 64
12, 96521, Note_on_c, 3, 52, 64
12, 96584, Note_on_c, 3, 50, 70
12, 96587, Note_off_c, 3, 52, 64
12, 96642, Note_on_c, 3, 52, 80
12, 96649, Note_off_c, 3, 50, 64
12, 96692, Note_off_c, 3, 52, 64
12, 96707, Note_on_c, 3, 53, 89
12, 96764, Note_on_c, 3, 52, 82
12, 96769, Note_off_c, 3, 53, 64
12, 96824, Note_off_c, 3, 52, 64
12, 96826, Note_on_c, 3, 50, 58
12, 96879, Note_off_c, 3, 50, 64
12, 96879, Note_on_c, 3, 48, 57
12, 96938, Note_off_c, 3, 48, 64
12, 96944, Note_on_c, 3, 47, 74
12, 96997, Note_off_c, 3, 47, 64
12, 97004, Note_on_c, 3, 50, 59
12, 97072, Note_off_c, 3, 50, 64
12, 97076, Note_on_c, 3, 48, 53
12, 97130, Note_on_c, 3, 50, 64
12, 97131, Note_off_c, 3, 48, 64
12, 97175, Note_off_c, 3, 50, 64
12, 97192, Note_on_c, 3, 52, 95
12, 97242, Note_on_c, 3, 50, 80
12, 97246, Note_off_c, 3, 52, 64
12, 97300, Note_off_c, 3, 50, 64
12, 97304, Note_on_c, 3, 48, 66
12, 97355, Note_off_c, 3, 48, 64
12, 97360, Note_on_c, 3, 47, 78
12, 97414, Note_off_c, 3, 47, 64
12, 97421, Note_on_c, 3, 45, 68
12, 97474, Note_off_c, 3, 45, 64
12, 97476, Note_on_c, 3, 48, 68
12, 97541, Note_on_c, 3, 47, 55
12, 97544, Note_off_c, 3, 48, 64
12, 97596, Note_on_c, 3, 48, 72
12, 97607, Note_off_c, 3, 47, 64
12, 97645, Note_off_c, 3, 48, 64
12, 97662, Note_on_c, 3, 50, 89
12, 97715, Note_on_c, 3, 48, 76
12, 97721, Note_off_c, 3, 50, 64
12, 97769, Note_off_c, 3, 48, 64
12, 97772, Note_on_c, 3, 47, 62
12, 97827, Note_off_c, 3, 47, 64
12, 97831, Note_on_c, 3, 45, 62
12, 97891, Note_off_c, 3, 45, 64
12, 97902, Note_on_c, 3, 43, 80
12, 97974, Note_off_c, 3, 43, 64
12, 98030, Note_on_c, 3, 55, 80
12, 98067, Note_off_c, 3, 55, 64
12, 98151, Note_on_c, 3, 55, 82
12, 98192, Note_off_c, 3, 55, 64
12, 98271, Note_on_c, 3, 55, 80
12, 98316, Note_off_c, 3, 55, 64
12, 98387, Note_on_c, 3, 52, 89
12, 98499, Note_off_c, 3, 52, 64
12, 98510, Note_on_c, 3, 53, 78
12, 98562, Note_on_c, 3, 55, 82
12, 98567, Note_off_c, 3, 53, 64
12, 98613, Note_off_c, 3, 55, 64
12, 98623, Note_on_c, 3, 57, 85
12, 98663, Note_off_c, 3, 57, 64
12, 98746, Note_on_c, 3, 53, 85
12, 98794, Note_off_c, 3, 53, 64
12, 98869, Note_on_c, 3, 50, 85
12, 98917, Note_off_c, 3, 50, 64
12, 98985, Note_on_c, 3, 55, 85
12, 99026, Note_off_c, 3, 55, 64
12, 99106, Note_on_c, 3, 43, 89
12, 99152, Note_off_c, 3, 43, 64
12, 99222, Note_on_c, 3, 53, 85
12, 99269, Note_off_c, 3, 53, 64
12, 99345, Note_on_c, 3, 52, 89
12, 99392, Note_off_c, 3, 52, 64
12, 99464, Note_on_c, 3, 48, 82
12, 99516, Note_off_c, 3, 48, 64
12, 99581, Note_on_c, 3, 55, 95
12, 99615, Note_off_c, 3, 55, 64
12, 99706, Note_on_c, 3, 43, 82
12, 99751, Note_off_c, 3, 43, 64
12, 99832, Note_on_c, 3, 48, 89
12, 100092, Note_off_c, 3, 48, 64
12, 110997, Note_on_c, 3, 48, 85
12, 111039, Note_off_c, 3, 48, 64
12, 111054, Note_on_c, 3, 50, 85
12, 111099, Note_off_c, 3, 50, 64
12, 111116, Note_on_c, 3, 52, 85
12, 111160, Note_off_c, 3, 52, 64
12, 111174, Note_on_c, 3, 50, 80
12, 111220, Note_off_c, 3, 50, 64
12, 111234, Note_on_c, 3, 52, 82
12, 111288, Note_off_c, 3, 52, 64
12, 111288, Note_on_c, 3, 53, 82
12, 111330, Note_off_c, 3, 53, 64
12, 111355, Note_on_c, 3, 55, 80
12, 111603, Note_off_c, 3, 55, 64
12, 111651, Note_on_c, 3, 55, 82
12, 111701, Note_off_c, 3, 55, 64
12, 111716, Note_on_c, 3, 57, 82
12, 111759, Note_off_c, 3, 57, 64
12, 111769, Note_on_c, 3, 58, 76
12, 111816, Note_off_c, 3, 58, 64
12, 111830, Note_on_c, 3, 60, 80
12, 111875, Note_off_c, 3, 60, 64
12, 111889, Note_on_c, 3, 58, 82
12, 111925, Note_off_c, 3, 58, 64
12, 111947, Note_on_c, 3, 57, 78
12, 111988, Note_off_c, 3, 57, 64
12, 112004, Note_on_c, 3, 58, 64
12, 112048, Note_off_c, 3, 58, 64
12, 112067, Note_on_c, 3, 60, 80
12, 112112, Note_off_c, 3, 60, 64
12, 112127, Note_on_c, 3, 57, 82
12, 112165, Note_off_c, 3, 57, 64
12, 112184, Note_on_c, 3, 58, 82
12, 112226, Note_off_c, 3, 58, 64
12, 112241, Note_on_c, 3, 60, 85
12, 112276, Note_off_c, 3, 60, 64
12, 112309, Note_on_c, 3, 53, 82
12, 112441, Note_off_c, 3, 53, 64
12, 112497, Note_on_c, 3, 50, 78
12, 112518, Note_on_c, 3, 52, 80
12, 112527, Note_off_c, 3, 50, 64
12, 112546, Note_off_c, 3, 52, 64
12, 112551, Note_on_c, 3, 53, 87
12, 112651, Note_off_c, 3, 53, 64
12, 112725, Note_on_c, 3, 55, 76
12, 112746, Note_on_c, 3, 57, 74
12, 112758, Note_off_c, 3, 55, 64
12, 112776, Note_off_c, 3, 57, 64
12, 112783, Note_on_c, 3, 58, 80
12, 113163, Note_off_c, 3, 58, 64
12, 113200, Note_on_c, 3, 58, 95
12, 113237, Note_off_c, 3, 58, 64
12, 113263, Note_on_c, 3, 58, 85
12, 113312, Note_off_c, 3, 58, 64
12, 113322, Note_on_c, 3, 60, 82
12, 113362, Note_off_c, 3, 60, 64
12, 113379, Note_on_c, 3, 58, 80
12, 113417, Note_off_c, 3, 58, 64
12, 113441, Note_on_c, 3, 57, 76
12, 113485, Note_off_c, 3, 57, 64
12, 113505, Note_on_c, 3, 58, 80
12, 113546, Note_off_c, 3, 58, 64
12, 113563, Note_on_c, 3, 55, 74
12, 113602, Note_off_c, 3, 55, 64
12, 113625, Note_on_c, 3, 57, 87
12, 113665, Note_off_c, 3, 57, 64
12, 113685, Note_on_c, 3, 58, 82
12, 113724, Note_off_c, 3, 58, 64
12, 113750, Note_on_c, 3, 57, 85
12, 113917, Note_off_c, 3, 57, 64
12, 113997, Note_on_c, 3, 45, 87
12, 114130, Note_off_c, 3, 45, 64
12, 114239, Note_on_c, 3, 50, 85
12, 114541, Note_off_c, 3, 50, 64
12, 114595, Note_on_c, 3, 52, 68
12, 114621, Note_on_c, 3, 53, 70
12, 114634, Note_off_c, 3, 52, 64
12, 114653, Note_off_c, 3, 53, 64
12, 114653, Note_on_c, 3, 55, 78
12, 114672, Note_on_c, 3, 57, 80
12, 114688, Note_off_c, 3, 55, 64
12, 114690, Note_on_c, 3, 59, 89
12, 114704, Note_off_c, 3, 57, 64
12, 114721, Note_on_c, 3, 60, 95
12, 114726, Note_off_c, 3, 59, 64
12, 114768, Note_off_c, 3, 60, 64
12, 114780, Note_on_c, 3, 59, 74
12, 114829, Note_off_c, 3, 59, 64
12, 114837, Note_on_c, 3, 60, 76
12, 114888, Note_off_c, 3, 60, 64
12, 114897, Note_on_c, 3, 64, 78
12, 114944, Note_off_c, 3, 64, 64
12, 114955, Note_on_c, 3, 62, 93
12, 115007, Note_off_c, 3, 62, 64
12, 115014, Note_on_c, 3, 60, 80
12, 115059, Note_off_c, 3, 60, 64
12, 115068, Note_on_c, 3, 59, 80
12, 115112, Note_off_c, 3, 59, 64
12, 115125, Note_on_c, 3, 60, 80
12, 115163, Note_off_c, 3, 60, 64
12, 115191, Note_on_c, 3, 59, 85
12, 115303, Note_off_c, 3, 59, 64
12, 115366, Note_on_c, 3, 57, 70
12, 115407, Note_off_c, 3, 57, 64
12, 115430, Note_on_c, 3, 59, 87
12, 115513, Note_off_c, 3, 59, 64
12, 115604, Note_on_c, 3, 55, 80
12, 115651, Note_off_c, 3, 55, 64
12, 115673, Note_on_c, 3, 64, 87
12, 116021, Note_off_c, 3, 64, 64
12, 116081, Note_on_c, 3, 64, 85
12, 116119, Note_off_c, 3, 64, 64
12, 116141, Note_on_c, 3, 64, 82
12, 116251, Note_off_c, 3, 64, 64
12, 116325, Note_on_c, 3, 65, 74
12, 116351, Note_on_c, 3, 64, 76
12, 116363, Note_off_c, 3, 65, 64
12, 116381, Note_off_c, 3, 64, 64
12, 116391, Note_on_c, 3, 62, 93
12, 116472, Note_off_c, 3, 62, 64
12, 116559, Note_on_c, 3, 64, 78
12, 116586, Note_on_c, 3, 60, 80
12, 116592, Note_off_c, 3, 64, 64
12, 116615, Note_off_c, 3, 60, 64
12, 116622, Note_on_c, 3, 62, 80
12, 116981, Note_off_c, 3, 62, 64
12, 117042, Note_on_c, 3, 62, 85
12, 117073, Note_off_c, 3, 62, 64
12, 117104, Note_on_c, 3, 62, 89
12, 117376, Note_off_c, 3, 62, 64
12, 117398, Note_on_c, 3, 60, 70
12, 117443, Note_off_c, 3, 60, 64
12, 117460, Note_on_c, 3, 59, 78
12, 117510, Note_off_c, 3, 59, 64
12, 117523, Note_on_c, 3, 60, 80
12, 117565, Note_off_c, 3, 60, 64
12, 117587, Note_on_c, 3, 62, 82
12, 117635, Note_off_c, 3, 62, 64
12, 117647, Note_on_c, 3, 60, 76
12, 117704, Note_off_c, 3, 60, 64
12, 117711, Note_on_c, 3, 62, 80
12, 117763, Note_off_c, 3, 62, 64
12, 117766, Note_on_c, 3, 65, 85
12, 117812, Note_off_c, 3, 65, 64
12, 117828, Note_on_c, 3, 64, 82
12, 117876, Note_off_c, 3, 64, 64
12, 117887, Note_on_c, 3, 62, 85
12, 117929, Note_off_c, 3, 62, 64
12, 117946, Note_on_c, 3, 60, 87
12, 117993, Note_off_c, 3, 60, 64
12, 118006, Note_on_c, 3, 62, 89
12, 118057, Note_off_c, 3, 62, 64
12, 118074, Note_on_c, 3, 59, 91
12, 118594, Note_off_c, 3, 59, 64
12, 118609, Note_on_c, 3, 60, 82
12, 118648, Note_off_c, 3, 60, 64
12, 118666, Note_on_c, 3, 59, 91
12, 118707, Note_off_c, 3, 59, 64
12, 118721, Note_on_c, 3, 57, 82
12, 118766, Note_off_c, 3, 57, 64
12, 118777, Note_on_c, 3, 55, 78
12, 118823, Note_off_c, 3, 55, 64
12, 118838, Note_on_c, 3, 53, 78
12, 118872, Note_off_c, 3, 53, 64
12, 118892, Note_on_c, 3, 52, 85
12, 118936, Note_off_c, 3, 52, 64
12, 118947, Note_on_c, 3, 50, 78
12, 118989, Note_off_c, 3, 50, 64
12, 119021, Note_on_c, 3, 48, 91
12, 119544, Note_off_c, 3, 48, 64
12, 119568, Note_on_c, 3, 46, 74
12, 119599, Note_off_c, 3, 46, 64
12, 119622, Note_on_c, 3, 45, 80
12, 119662, Note_off_c, 3, 45, 64
12, 119679, Note_on_c, 3, 46, 78
12, 119720, Note_off_c, 3, 46, 64
12, 119739, Note_on_c, 3, 48, 82
12, 119786, Note_off_c, 3, 48, 64
12, 119800, Note_on_c, 3, 45, 82
12, 119840, Note_off_c, 3, 45, 64
12, 119861, Note_on_c, 3, 46, 87
12, 119900, Note_off_c, 3, 46, 64
12, 119918, Note_on_c, 3, 48, 95
12, 119954, Note_off_c, 3, 48, 64
12, 119993, Note_on_c, 3, 41, 82
12, 120495, Note_off_c, 3, 41, 64
12, 120526, Note_on_c, 3, 40, 76
12, 120577, Note_off_c, 3, 40, 64
12, 120589, Note_on_c, 3, 41, 85
12, 120638, Note_off_c, 3, 41, 64
12, 120645, Note_on_c, 3, 43, 80
12, 120685, Note_off_c, 3, 43, 64
12, 120705, Note_on_c, 3, 45, 82
12, 120749, Note_off_c, 3, 45, 64
12, 120766, Note_on_c, 3, 41, 82
12, 120807, Note_off_c, 3, 41, 64
12, 120824, Note_on_c, 3, 43, 93
12, 120862, Note_off_c, 3, 43, 64
12, 120884, Note_on_c, 3, 45, 80
12, 120931, Note_off_c, 3, 45, 64
12, 120960, Note_on_c, 3, 38, 89
12, 121430, Note_off_c, 3, 38, 64
12, 121477, Note_on_c, 3, 36, 82
12, 121529, Note_off_c, 3, 36, 64
12, 121546, Note_on_c, 3, 38, 87
12, 121590, Note_off_c, 3, 38, 64
12, 121602, Note_on_c, 3, 40, 80
12, 121641, Note_off_c, 3, 40, 64
12, 121664, Note_on_c, 3, 41, 80
12, 121707, Note_off_c, 3, 41, 64
12, 121723, Note_on_c, 3, 40, 89
12, 121760, Note_off_c, 3, 40, 64
12, 121780, Note_on_c, 3, 41, 85
12, 121815, Note_off_c, 3, 41, 64
12, 121834, Note_on_c, 3, 38, 61
12, 121875, Note_off_c, 3, 38, 64
12, 121914, Note_on_c, 3, 43, 93
12, 122022, Note_off_c, 3, 43, 64
12, 122089, Note_on_c, 3, 43, 78
12, 122134, Note_off_c, 3, 43, 64
12, 122150, Note_on_c, 3, 45, 91
12, 122228, Note_off_c, 3, 45, 64
12, 122332, Note_on_c, 3, 47, 85
12, 122372, Note_off_c, 3, 47, 64
12, 122391, Note_on_c, 3, 48, 89
12, 122478, Note_off_c, 3, 48, 64
12, 122567, Note_on_c, 3, 48, 78
12, 122609, Note_off_c, 3, 48, 64
12, 122631, Note_on_c, 3, 50, 89
12, 122717, Note_off_c, 3, 50, 64
12, 122798, Note_on_c, 3, 52, 78
12, 122842, Note_off_c, 3, 52, 64
12, 122868, Note_on_c, 3, 53, 80
12, 123380, Note_off_c, 3, 53, 64
12, 123404, Note_on_c, 3, 55, 87
12, 123447, Note_off_c, 3, 55, 64
12, 123465, Note_on_c, 3, 53, 82
12, 123512, Note_off_c, 3, 53, 64
12, 123526, Note_on_c, 3, 52, 85
12, 123562, Note_off_c, 3, 52, 64
12, 123582, Note_on_c, 3, 50, 87
12, 123629, Note_off_c, 3, 50, 64
12, 123637, Note_on_c, 3, 48, 82
12, 123677, Note_off_c, 3, 48, 64
12, 123696, Note_on_c, 3, 47, 82
12, 123745, Note_off_c, 3, 47, 64
12, 123760, Note_on_c, 3, 45, 95
12, 123814, Note_off_c, 3, 45, 64
12, 123828, Note_on_c, 3, 43, 85
12, 123922, Note_off_c, 3, 43, 64
12, 129237, Note_on_c, 3, 60, 70
12, 129266, Note_off_c, 3, 60, 64
12, 129356, Note_on_c, 3, 60, 85
12, 129392, Note_off_c, 3, 60, 64
12, 129475, Note_on_c, 3, 60, 82
12, 129521, Note_off_c, 3, 60, 64
12, 129588, Note_on_c, 3, 59, 87
12, 129702, Note_on_c, 3, 60, 78
12, 129709, Note_off_c, 3, 59, 64
12, 129757, Note_on_c, 3, 62, 82
12, 129758, Note_off_c, 3, 60, 64
12, 129800, Note_off_c, 3, 62, 64
12, 129821, Note_on_c, 3, 64, 87
12, 129868, Note_off_c, 3, 64, 64
12, 129944, Note_on_c, 3, 60, 82
12, 129992, Note_off_c, 3, 60, 64
12, 130072, Note_on_c, 3, 57, 85
12, 130126, Note_off_c, 3, 57, 64
12, 130189, Note_on_c, 3, 62, 85
12, 130230, Note_off_c, 3, 62, 64
12, 130308, Note_on_c, 3, 50, 82
12, 130366, Note_off_c, 3, 50, 64
12, 130427, Note_on_c, 3, 60, 87
12, 130473, Note_off_c, 3, 60, 64
12, 130558, Note_on_c, 3, 59, 82
12, 130613, Note_on_c, 3, 57, 78
12, 130617, Note_off_c, 3, 59, 64
12, 130665, Note_off_c, 3, 57, 64
12, 130668, Note_on_c, 3, 55, 68
12, 130724, Note_on_c, 3, 57, 66
12, 130735, Note_off_c, 3, 55, 64
12, 130777, Note_off_c, 3, 57, 64
12, 130791, Note_on_c, 3, 59, 87
12, 130847, Note_on_c, 3, 55, 80
12, 130858, Note_off_c, 3, 59, 64
12, 130900, Note_on_c, 3, 57, 66
12, 130904, Note_off_c, 3, 55, 64
12, 130955, Note_on_c, 3, 59, 72
12, 130963, Note_off_c, 3, 57, 64
12, 130998, Note_off_c, 3, 59, 64
12, 131024, Note_on_c, 3, 60, 80
12, 131079, Note_off_c, 3, 60, 64
12, 131144, Note_on_c, 3, 55, 82
12, 131192, Note_off_c, 3, 55, 64
12, 131267, Note_on_c, 3, 60, 89
12, 131401, Note_off_c, 3, 60, 64
12, 131447, Note_on_c, 3, 60, 78
12, 131479, Note_off_c, 3, 60, 64
12, 131515, Note_on_c, 3, 60, 85
12, 131567, Note_on_c, 3, 59, 85
12, 131568, Note_off_c, 3, 60, 64
12, 131615, Note_off_c, 3, 59, 64
12, 131626, Note_on_c, 3, 60, 80
12, 131672, Note_off_c, 3, 60, 64
12, 131680, Note_on_c, 3, 57, 68
12, 131722, Note_off_c, 3, 57, 64
12, 131746, Note_on_c, 3, 59, 87
12, 131888, Note_off_c, 3, 59, 64
12, 131931, Note_on_c, 3, 59, 80
12, 131963, Note_off_c, 3, 59, 64
12, 131990, Note_on_c, 3, 59, 93
12, 132032, Note_off_c, 3, 59, 64
12, 132113, Note_on_c, 3, 52, 89
12, 132158, Note_off_c, 3, 52, 64
12, 132238, Note_on_c, 3, 57, 89
12, 132386, Note_off_c, 3, 57, 64
12, 132416, Note_on_c, 3, 57, 87
12, 132446, Note_off_c, 3, 57, 64
12, 132482, Note_on_c, 3, 57, 91
12, 132533, Note_on_c, 3, 55, 76
12, 132534, Note_off_c, 3, 57, 64
12, 132578, Note_off_c, 3, 55, 64
12, 132585, Note_on_c, 3, 57, 64
12, 132627, Note_off_c, 3, 57, 64
12, 132631, Note_on_c, 3, 53, 78
12, 132669, Note_off_c, 3, 53, 64
12, 132698, Note_on_c, 3, 55, 76
12, 132846, Note_off_c, 3, 55, 64
12, 132890, Note_on_c, 3, 55, 80
12, 132925, Note_off_c, 3, 55, 64
12, 132948, Note_on_c, 3, 55, 89
12, 132987, Note_off_c, 3, 55, 64
12, 133074, Note_on_c, 3, 48, 100
12, 133126, Note_off_c, 3, 48, 64
12, 133194, Note_on_c, 3, 53, 89
12, 133342, Note_off_c, 3, 53, 64
12, 133376, Note_on_c, 3, 53, 78
12, 133403, Note_off_c, 3, 53, 64
12, 133436, Note_on_c, 3, 53, 91
12, 133485, Note_on_c, 3, 52, 72
12, 133488, Note_off_c, 3, 53, 64
12, 133536, Note_off_c, 3, 52, 64
12, 133538, Note_on_c, 3, 53, 68
12, 133590, Note_off_c, 3, 53, 64
12, 133595, Note_on_c, 3, 50, 62
12, 133633, Note_off_c, 3, 50, 64
12, 133667, Note_on_c, 3, 52, 85
12, 133724, Note_on_c, 3, 53, 64
12, 133731, Note_off_c, 3, 52, 64
12, 133779, Note_off_c, 3, 53, 64
12, 133780, Note_on_c, 3, 55, 70
12, 133827, Note_off_c, 3, 55, 64
12, 133837, Note_on_c, 3, 52, 66
12, 133880, Note_off_c, 3, 52, 64
12, 133905, Note_on_c, 3, 57, 91
12, 133962, Note_on_c, 3, 58, 78
12, 133969, Note_off_c, 3, 57, 64
12, 134014, Note_off_c, 3, 58, 64
12, 134023, Note_on_c, 3, 57, 72
12, 134082, Note_on_c, 3, 55, 60
12, 134095, Note_off_c, 3, 57, 64
12, 134136, Note_off_c, 3, 55, 64
12, 134137, Note_on_c, 3, 53, 66
12, 134196, Note_on_c, 3, 52, 55
12, 134206, Note_off_c, 3, 53, 64
12, 134264, Note_on_c, 3, 50, 64
12, 134269, Note_off_c, 3, 52, 64
12, 134328, Note_on_c, 3, 48, 66
12, 134330, Note_off_c, 3, 50, 64
12, 134369, Note_off_c, 3, 48, 64
12, 134390, Note_on_c, 3, 47, 82
12, 134454, Note_on_c, 3, 45, 80
12, 134464, Note_off_c, 3, 47, 64
12, 134518, Note_off_c, 3, 45, 64
12, 134519, Note_on_c, 3, 43, 74
12, 134576, Note_off_c, 3, 43, 64
12, 134576, Note_on_c, 3, 45, 78
12, 134619, Note_off_c, 3, 45, 64
12, 134636, Note_on_c, 3, 47, 82
12, 134690, Note_on_c, 3, 45, 80
12, 134691, Note_off_c, 3, 47, 64
12, 134741, Note_off_c, 3, 45, 64
12, 134741, Note_on_c, 3, 47, 66
12, 134790, Note_off_c, 3, 47, 64
12, 134800, Note_on_c, 3, 43, 63
12, 134854, Note_off_c, 3, 43, 64
12, 134860, Note_on_c, 3, 49, 76
12, 134868, Note_on_c, 3, 48, 87
12, 134870, Note_off_c, 3, 49, 64
12, 134929, Note_off_c, 3, 48, 64
12, 134991, Note_on_c, 3, 53, 89
12, 135044, Note_off_c, 3, 53, 64
12, 135115, Note_on_c, 3, 55, 91
12, 135165, Note_off_c, 3, 55, 64
12, 135236, Note_on_c, 3, 43, 89
12, 135286, Note_off_c, 3, 43, 64
12, 135361, Note_on_c, 3, 48, 93
12, 135502, Note_off_c, 3, 48, 64
12, 141648, Note_on_c, 3, 60, 82
12, 141709, Note_on_c, 3, 59, 66
12, 141720, Note_off_c, 3, 60, 64
12, 141765, Note_off_c, 3, 59, 64
12, 141770, Note_on_c, 3, 57, 66
12, 141821, Note_off_c, 3, 57, 64
12, 141828, Note_on_c, 3, 56, 63
12, 141868, Note_off_c, 3, 56, 64
12, 141881, Note_on_c, 3, 57, 62
12, 141944, Note_on_c, 3, 56, 60
12, 141952, Note_off_c, 3, 57, 64
12, 141994, Note_on_c, 3, 54, 55
12, 141995, Note_off_c, 3, 56, 64
12, 142048, Note_off_c, 3, 54, 64
12, 142057, Note_on_c, 3, 52, 68
12, 142112, Note_off_c, 3, 52, 64
12, 142123, Note_on_c, 3, 62, 80
12, 142181, Note_on_c, 3, 60, 78
12, 142190, Note_off_c, 3, 62, 64
12, 142237, Note_off_c, 3, 60, 64
12, 142240, Note_on_c, 3, 59, 64
12, 142295, Note_off_c, 3, 59, 64
12, 142302, Note_on_c, 3, 57, 60
12, 142347, Note_off_c, 3, 57, 64
12, 142356, Note_on_c, 3, 59, 64
12, 142422, Note_on_c, 3, 57, 59
12, 142429, Note_off_c, 3, 59, 64
12, 142474, Note_on_c, 3, 55, 66
12, 142489, Note_off_c, 3, 57, 64
12, 142535, Note_on_c, 3, 53, 59
12, 142540, Note_off_c, 3, 55, 64
12, 142596, Note_on_c, 3, 52, 64
12, 142597, Note_off_c, 3, 53, 64
12, 142654, Note_on_c, 3, 53, 68
12, 142655, Note_off_c, 3, 52, 64
12, 142707, Note_off_c, 3, 53, 64
12, 142713, Note_on_c, 3, 50, 66
12, 142769, Note_off_c, 3, 50, 64
12, 142779, Note_on_c, 3, 52, 85
12, 142835, Note_off_c, 3, 52, 64
12, 142897, Note_on_c, 3, 40, 87
12, 142947, Note_off_c, 3, 40, 64
12, 143022, Note_on_c, 3, 45, 89
12, 143114, Note_off_c, 3, 45, 64
12, 143151, Note_on_c, 3, 57, 70
12, 143192, Note_off_c, 3, 57, 64
12, 143267, Note_on_c, 3, 57, 76
12, 143310, Note_off_c, 3, 57, 64
12, 143384, Note_on_c, 3, 57, 82
12, 143427, Note_off_c, 3, 57, 64
12, 143504, Note_on_c, 3, 55, 87
12, 143624, Note_off_c, 3, 55, 64
12, 143624, Note_on_c, 3, 57, 78
12, 143675, Note_on_c, 3, 59, 74
12, 143682, Note_off_c, 3, 57, 64
12, 143721, Note_off_c, 3, 59, 64
12, 143738, Note_on_c, 3, 60, 95
12, 143788, Note_off_c, 3, 60, 64
12, 143861, Note_on_c, 3, 57, 82
12, 143910, Note_off_c, 3, 57, 64
12, 143980, Note_on_c, 3, 54, 82
12, 144033, Note_off_c, 3, 54, 64
12, 144106, Note_on_c, 3, 59, 87
12, 144149, Note_off_c, 3, 59, 64
12, 144228, Note_on_c, 3, 47, 85
12, 144280, Note_off_c, 3, 47, 64
12, 144344, Note_on_c, 3, 59, 91
12, 144387, Note_off_c, 3, 59, 64
12, 144477, Note_on_c, 3, 52, 74
12, 144716, Note_off_c, 3, 52, 64
12, 146025, Note_on_c, 3, 52, 80
12, 146069, Note_off_c, 3, 52, 64
12, 146147, Note_on_c, 3, 52, 82
12, 146194, Note_off_c, 3, 52, 64
12, 146271, Note_on_c, 3, 52, 82
12, 146315, Note_off_c, 3, 52, 64
12, 146391, Note_on_c, 3, 48, 87
12, 146504, Note_off_c, 3, 48, 64
12, 146504, Note_on_c, 3, 50, 82
12, 146560, Note_on_c, 3, 52, 80
12, 146564, Note_off_c, 3, 50, 64
12, 146605, Note_off_c, 3, 52, 64
12, 146624, Note_on_c, 3, 53, 82
12, 146672, Note_off_c, 3, 53, 64
12, 146741, Note_on_c, 3, 50, 87
12, 146788, Note_off_c, 3, 50, 64
12, 146860, Note_on_c, 3, 47, 82
12, 146914, Note_off_c, 3, 47, 64
12, 146974, Note_on_c, 3, 52, 85
12, 147016, Note_off_c, 3, 52, 64
12, 147104, Note_on_c, 3, 40, 95
12, 147164, Note_off_c, 3, 40, 64
12, 147225, Note_on_c, 3, 50, 89
12, 147272, Note_off_c, 3, 50, 64
12, 147348, Note_on_c, 3, 48, 85
12, 147407, Note_on_c, 3, 47, 85
12, 147416, Note_off_c, 3, 48, 64
12, 147468, Note_on_c, 3, 45, 70
12, 147471, Note_off_c, 3, 47, 64
12, 147526, Note_on_c, 3, 47, 64
12, 147528, Note_off_c, 3, 45, 64
12, 147584, Note_off_c, 3, 47, 64
12, 147586, Note_on_c, 3, 48, 72
12, 147647, Note_on_c, 3, 50, 80
12, 147651, Note_off_c, 3, 48, 64
12, 147706, Note_on_c, 3, 52, 68
12, 147709, Note_off_c, 3, 50, 64
12, 147746, Note_off_c, 3, 52, 64
12, 147761, Note_on_c, 3, 48, 76
12, 147803, Note_off_c, 3, 48, 64
12, 147824, Note_on_c, 3, 53, 85
12, 147885, Note_off_c, 3, 53, 64
12, 147885, Note_on_c, 3, 55, 87
12, 147943, Note_off_c, 3, 55, 64
12, 147947, Note_on_c, 3, 53, 66
12, 148006, Note_on_c, 3, 52, 70
12, 148016, Note_off_c, 3, 53, 64
12, 148066, Note_on_c, 3, 50, 53
12, 148068, Note_off_c, 3, 52, 64
12, 148129, Note_on_c, 3, 48, 57
12, 148136, Note_off_c, 3, 50, 64
12, 148174, Note_off_c, 3, 48, 64
12, 148182, Note_on_c, 3, 50, 59
12, 148238, Note_on_c, 3, 47, 61
12, 148242, Note_off_c, 3, 50, 64
12, 148287, Note_off_c, 3, 47, 64
12, 148311, Note_on_c, 3, 52, 87
12, 148370, Note_on_c, 3, 53, 87
12, 148376, Note_off_c, 3, 52, 64
12, 148431, Note_on_c, 3, 52, 76
12, 148440, Note_off_c, 3, 53, 64
12, 148486, Note_on_c, 3, 50, 60
12, 148489, Note_off_c, 3, 52, 64
12, 148551, Note_off_c, 3, 50, 64
12, 148552, Note_on_c, 3, 48, 85
12, 148599, Note_off_c, 3, 48, 64
12, 148608, Note_on_c, 3, 50, 68
12, 148668, Note_on_c, 3, 48, 66
12, 148685, Note_off_c, 3, 50, 64
12, 148729, Note_on_c, 3, 47, 85
12, 148731, Note_off_c, 3, 48, 64
12, 148787, Note_off_c, 3, 47, 64
12, 148793, Note_on_c, 3, 45, 78
12, 148843, Note_off_c, 3, 45, 64
12, 148912, Note_on_c, 3, 50, 89
12, 148958, Note_off_c, 3, 50, 64
12, 149032, Note_on_c, 3, 52, 87
12, 149074, Note_off_c, 3, 52, 64
12, 149147, Note_on_c, 3, 40, 89
12, 149194, Note_off_c, 3, 40, 64
12, 149274, Note_on_c, 3, 45, 91
12, 149510, Note_off_c, 3, 45, 64
12, 173877, Note_on_c, 3, 64, 82
12, 173922, Note_off_c, 3, 64, 64
12, 173929, Note_on_c, 3, 62, 68
12, 173969, Note_off_c, 3, 62, 64
12, 173987, Note_on_c, 3, 60, 63
12, 174031, Note_off_c, 3, 60, 64
12, 174041, Note_on_c, 3, 59, 80
12, 174084, Note_off_c, 3, 59, 64
12, 174101, Note_on_c, 3, 60, 66
12, 174144, Note_off_c, 3, 60, 64
12, 174157, Note_on_c, 3, 57, 68
12, 174207, Note_off_c, 3, 57, 64
12, 174223, Note_on_c, 3, 62, 87
12, 174274, Note_off_c, 3, 62, 64
12, 174345, Note_on_c, 3, 50, 78
12, 174422, Note_off_c, 3, 50, 64
12, 175788, Note_on_c, 3, 62, 82
12, 175842, Note_off_c, 3, 62, 64
12, 175845, Note_on_c, 3, 60, 80
12, 175884, Note_off_c, 3, 60, 64
12, 175896, Note_on_c, 3, 58, 64
12, 175931, Note_off_c, 3, 58, 64
12, 175951, Note_on_c, 3, 57, 82
12, 175992, Note_off_c, 3, 57, 64
12, 176010, Note_on_c, 3, 58, 85
12, 176059, Note_off_c, 3, 58, 64
12, 176068, Note_on_c, 3, 55, 68
12, 176109, Note_off_c, 3, 55, 64
12, 176128, Note_on_c, 3, 60, 87
12, 176176, Note_off_c, 3, 60, 64
12, 176261, Note_on_c, 3, 48, 76
12, 176334, Note_off_c, 3, 48, 64
12, 178130, Note_on_c, 3, 58, 82
12, 178171, Note_off_c, 3, 58, 64
12, 178188, Note_on_c, 3, 57, 80
12, 178230, Note_off_c, 3, 57, 64
12, 178244, Note_on_c, 3, 55, 76
12, 178297, Note_off_c, 3, 55, 64
12, 178304, Note_on_c, 3, 53, 61
12, 178345, Note_off_c, 3, 53, 64
12, 178362, Note_on_c, 3, 52, 61
12, 178400, Note_off_c, 3, 52, 64
12, 178416, Note_on_c, 3, 53, 63
12, 178462, Note_off_c, 3, 53, 64
12, 178472, Note_on_c, 3, 50, 66
12, 178518, Note_off_c, 3, 50, 64
12, 178534, Note_on_c, 3, 55, 82
12, 178584, Note_off_c, 3, 55, 64
12, 178660, Note_on_c, 3, 43, 66
12, 178733, Note_off_c, 3, 43, 64
12, 196914, Note_on_c, 3, 60, 76
12, 196957, Note_off_c, 3, 60, 64
12, 197030, Note_on_c, 3, 60, 78
12, 197074, Note_off_c, 3, 60, 64
12, 197151, Note_on_c, 3, 60, 80
12, 197192, Note_off_c, 3, 60, 64
12, 197272, Note_on_c, 3, 59, 80
12, 197380, Note_off_c, 3, 59, 64
12, 197394, Note_on_c, 3, 60, 76
12, 197441, Note_on_c, 3, 62, 72
12, 197444, Note_off_c, 3, 60, 64
12, 197486, Note_off_c, 3, 62, 64
12, 197502, Note_on_c, 3, 64, 87
12, 197547, Note_off_c, 3, 64, 64
12, 197624, Note_on_c, 3, 60, 82
12, 197667, Note_off_c, 3, 60, 64
12, 197745, Note_on_c, 3, 57, 72
12, 197799, Note_off_c, 3, 57, 64
12, 197856, Note_on_c, 3, 62, 80
12, 197901, Note_off_c, 3, 62, 64
12, 197976, Note_on_c, 3, 50, 85
12, 198036, Note_off_c, 3, 50, 64
12, 198104, Note_on_c, 3, 60, 80
12, 198155, Note_off_c, 3, 60, 64
12, 198224, Note_on_c, 3, 59, 82
12, 198276, Note_off_c, 3, 59, 64
12, 198339, Note_on_c, 3, 55, 63
12, 198389, Note_off_c, 3, 55, 64
12, 198460, Note_on_c, 3, 60, 89
12, 198501, Note_off_c, 3, 60, 64
12, 198580, Note_on_c, 3, 48, 85
12, 198634, Note_off_c, 3, 48, 64
12, 198700, Note_on_c, 3, 53, 85
12, 198755, Note_off_c, 3, 53, 64
12, 198762, Note_on_c, 3, 57, 80
12, 198821, Note_off_c, 3, 57, 64
12, 198827, Note_on_c, 3, 55, 51
12, 198879, Note_off_c, 3, 55, 64
12, 198882, Note_on_c, 3, 57, 66
12, 198941, Note_off_c, 3, 57, 64
12, 198942, Note_on_c, 3, 58, 74
12, 198996, Note_on_c, 3, 57, 63
12, 198999, Note_off_c, 3, 58, 64
12, 199060, Note_off_c, 3, 57, 64
12, 199061, Note_on_c, 3, 55, 60
12, 199118, Note_off_c, 3, 55, 64
12, 199119, Note_on_c, 3, 53, 68
12, 199162, Note_off_c, 3, 53, 64
12, 199180, Note_on_c, 3, 52, 72
12, 199225, Note_off_c, 3, 52, 64
12, 199236, Note_on_c, 3, 55, 59
12, 199299, Note_off_c, 3, 55, 64
12, 199299, Note_on_c, 3, 53, 53
12, 199357, Note_on_c, 3, 55, 70
12, 199364, Note_off_c, 3, 53, 64
12, 199404, Note_off_c, 3, 55, 64
12, 199423, Note_on_c, 3, 57, 85
12, 199473, Note_off_c, 3, 57, 64
12, 199481, Note_on_c, 3, 55, 66
12, 199530, Note_off_c, 3, 55, 64
12, 199544, Note_on_c, 3, 53, 57
12, 199590, Note_off_c, 3, 53, 64
12, 199601, Note_on_c, 3, 52, 64
12, 199642, Note_off_c, 3, 52, 64
12, 199665, Note_on_c, 3, 50, 80
12, 199779, Note_off_c, 3, 50, 64
12, 199798, Note_on_c, 3, 52, 80
12, 199844, Note_off_c, 3, 52, 64
12, 199849, Note_on_c, 3, 53, 70
12, 199891, Note_off_c, 3, 53, 64
12, 199916, Note_on_c, 3, 55, 85
12, 199961, Note_off_c, 3, 55, 64
12, 200027, Note_on_c, 3, 43, 87
12, 200069, Note_off_c, 3, 43, 64
12, 200154, Note_on_c, 3, 48, 91
12, 200215, Note_off_c, 3, 48, 64
12, 200218, Note_on_c, 3, 55, 80
12, 200268, Note_off_c, 3, 55, 64
12, 200270, Note_on_c, 3, 57, 74
12, 200317, Note_off_c, 3, 57, 64
12, 200325, Note_on_c, 3, 59, 85
12, 200367, Note_off_c, 3, 59, 64
12, 200396, Note_on_c, 3, 60, 80
12, 200537, Note_off_c, 3, 60, 64
12, 200568, Note_on_c, 3, 60, 80
12, 200602, Note_off_c, 3, 60, 64
12, 200635, Note_on_c, 3, 60, 89
12, 200685, Note_off_c, 3, 60, 64
12, 200691, Note_on_c, 3, 59, 80
12, 200736, Note_off_c, 3, 59, 64
12, 200746, Note_on_c, 3, 60, 82
12, 200790, Note_off_c, 3, 60, 64
12, 200803, Note_on_c, 3, 57, 68
12, 200849, Note_off_c, 3, 57, 64
12, 200869, Note_on_c, 3, 59, 87
12, 201014, Note_off_c, 3, 59, 64
12, 201056, Note_on_c, 3, 59, 87
12, 201086, Note_off_c, 3, 59, 64
12, 201113, Note_on_c, 3, 59, 91
12, 201149, Note_off_c, 3, 59, 64
12, 201234, Note_on_c, 3, 52, 82
12, 201279, Note_off_c, 3, 52, 64
12, 201356, Note_on_c, 3, 57, 80
12, 201491, Note_off_c, 3, 57, 64
12, 201529, Note_on_c, 3, 57, 85
12, 201560, Note_off_c, 3, 57, 64
12, 201592, Note_on_c, 3, 57, 85
12, 201641, Note_off_c, 3, 57, 64
12, 201642, Note_on_c, 3, 55, 68
12, 201686, Note_off_c, 3, 55, 64
12, 201700, Note_on_c, 3, 57, 80
12, 201741, Note_off_c, 3, 57, 64
12, 201755, Note_on_c, 3, 53, 70
12, 201798, Note_off_c, 3, 53, 64
12, 201820, Note_on_c, 3, 55, 68
12, 201962, Note_off_c, 3, 55, 64
12, 201998, Note_on_c, 3, 55, 91
12, 202033, Note_off_c, 3, 55, 64
12, 202062, Note_on_c, 3, 55, 91
12, 202107, Note_off_c, 3, 55, 64
12, 202191, Note_on_c, 3, 48, 91
12, 202237, Note_off_c, 3, 48, 64
12, 202312, Note_on_c, 3, 53, 85
12, 202456, Note_off_c, 3, 53, 64
12, 202494, Note_on_c, 3, 53, 87
12, 202523, Note_off_c, 3, 53, 64
12, 202556, Note_on_c, 3, 53, 98
12, 202605, Note_off_c, 3, 53, 64
12, 202607, Note_on_c, 3, 52, 80
12, 202656, Note_off_c, 3, 52, 64
12, 202663, Note_on_c, 3, 53, 76
12, 202710, Note_off_c, 3, 53, 64
12, 202715, Note_on_c, 3, 50, 72
12, 202760, Note_off_c, 3, 50, 64
12, 202777, Note_on_c, 3, 52, 82
12, 202835, Note_off_c, 3, 52, 64
12, 202837, Note_on_c, 3, 53, 80
12, 202899, Note_off_c, 3, 53, 64
12, 202899, Note_on_c, 3, 55, 74
12, 202936, Note_off_c, 3, 55, 64
12, 202948, Note_on_c, 3, 52, 63
12, 202995, Note_off_c, 3, 52, 64
12, 203021, Note_on_c, 3, 57, 82
12, 203086, Note_on_c, 3, 58, 64
12, 203093, Note_off_c, 3, 57, 64
12, 203145, Note_off_c, 3, 58, 64
12, 203145, Note_on_c, 3, 57, 68
12, 203207, Note_on_c, 3, 55, 72
12, 203212, Note_off_c, 3, 57, 64
12, 203265, Note_off_c, 3, 55, 64
12, 203265, Note_on_c, 3, 53, 64
12, 203324, Note_on_c, 3, 52, 55
12, 203325, Note_off_c, 3, 53, 64
12, 203386, Note_off_c, 3, 52, 64
12, 203387, Note_on_c, 3, 50, 59
12, 203446, Note_off_c, 3, 50, 64
12, 203447, Note_on_c, 3, 48, 72
12, 203494, Note_off_c, 3, 48, 64
12, 203505, Note_on_c, 3, 47, 70
12, 203570, Note_off_c, 3, 47, 64
12, 203570, Note_on_c, 3, 45, 62
12, 203629, Note_off_c, 3, 45, 64
12, 203633, Note_on_c, 3, 43, 64
12, 203688, Note_off_c, 3, 43, 64
12, 203692, Note_on_c, 3, 45, 68
12, 203736, Note_off_c, 3, 45, 64
12, 203753, Note_on_c, 3, 47, 80
12, 203803, Note_off_c, 3, 47, 64
12, 203805, Note_on_c, 3, 45, 68
12, 203866, Note_on_c, 3, 47, 68
12, 203867, Note_off_c, 3, 45, 64
12, 203905, Note_off_c, 3, 47, 64
12, 203923, Note_on_c, 3, 43, 61
12, 203973, Note_off_c, 3, 43, 64
12, 203989, Note_on_c, 3, 48, 78
12, 204041, Note_off_c, 3, 48, 64
12, 204111, Note_on_c, 3, 53, 82
12, 204157, Note_off_c, 3, 53, 64
12, 204236, Note_on_c, 3, 55, 87
12, 204272, Note_off_c, 3, 55, 64
12, 204352, Note_on_c, 3, 43, 89
12, 204393, Note_off_c, 3, 43, 64
12, 204484, Note_on_c, 3, 36, 76
12, 205077, Note_off_c, 3, 36, 64
12, 218100, Note_on_c, 3, 47, 82
12, 218142, Note_off_c, 3, 47, 64
12, 218162, Note_on_c, 3, 48, 93
12, 218242, Note_off_c, 3, 48, 64
12, 218344, Note_on_c, 3, 41, 85
12, 218395, Note_off_c, 3, 41, 64
12, 218407, Note_on_c, 3, 43, 82
12, 218582, Note_off_c, 3, 43, 64
12, 218638, Note_on_c, 3, 43, 68
12, 218804, Note_off_c, 3, 43, 64
12, 218876, Note_on_c, 3, 36, 89
12, 219625, Note_off_c, 3, 36, 64
12, 219625, End_track
13, 0, Start_track
13, 0, Title_t, "Oboe1"
13, 0, Program_c, 4, 68
13, 0, Control_c, 4, 7, 100
13, 16318, Note_on_c, 4, 76, 85
13, 16817, Note_off_c, 4, 76, 64
13, 16849, Note_on_c, 4, 74, 72
13, 16897, Note_off_c, 4, 74, 64
13, 16907, Note_on_c, 4, 76, 80
13, 16955, Note_off_c, 4, 76, 64
13, 16965, Note_on_c, 4, 77, 80
13, 17004, Note_off_c, 4, 77, 64
13, 17025, Note_on_c, 4, 79, 82
13, 17068, Note_off_c, 4, 79, 64
13, 17087, Note_on_c, 4, 77, 76
13, 17132, Note_off_c, 4, 77, 64
13, 17150, Note_on_c, 4, 79, 68
13, 17186, Note_off_c, 4, 79, 64
13, 17211, Note_on_c, 4, 81, 80
13, 17249, Note_off_c, 4, 81, 64
13, 17276, Note_on_c, 4, 81, 82
13, 17392, Note_on_c, 4, 74, 57
13, 17393, Note_off_c, 4, 81, 64
13, 17538, Note_off_c, 4, 74, 64
13, 17577, Note_on_c, 4, 74, 80
13, 17625, Note_off_c, 4, 74, 64
13, 17633, Note_on_c, 4, 76, 74
13, 17682, Note_off_c, 4, 76, 64
13, 17690, Note_on_c, 4, 77, 70
13, 17731, Note_off_c, 4, 77, 64
13, 17752, Note_on_c, 4, 79, 82
13, 17797, Note_off_c, 4, 79, 64
13, 17814, Note_on_c, 4, 77, 76
13, 17855, Note_off_c, 4, 77, 64
13, 17873, Note_on_c, 4, 76, 72
13, 17916, Note_off_c, 4, 76, 64
13, 17931, Note_on_c, 4, 77, 78
13, 17970, Note_off_c, 4, 77, 64
13, 17991, Note_on_c, 4, 79, 76
13, 18032, Note_off_c, 4, 79, 64
13, 18048, Note_on_c, 4, 76, 63
13, 18086, Note_off_c, 4, 76, 64
13, 18109, Note_on_c, 4, 77, 78
13, 18153, Note_off_c, 4, 77, 64
13, 18168, Note_on_c, 4, 79, 80
13, 18214, Note_off_c, 4, 79, 64
13, 18235, Note_on_c, 4, 72, 76
13, 18377, Note_off_c, 4, 72, 64
13, 18414, Note_on_c, 4, 69, 76
13, 18439, Note_on_c, 4, 71, 68
13, 18443, Note_off_c, 4, 69, 64
13, 18463, Note_off_c, 4, 71, 64
13, 18476, Note_on_c, 4, 72, 80
13, 18599, Note_off_c, 4, 72, 64
13, 18648, Note_on_c, 4, 74, 74
13, 18673, Note_on_c, 4, 76, 64
13, 18682, Note_off_c, 4, 74, 64
13, 18705, Note_off_c, 4, 76, 64
13, 18706, Note_on_c, 4, 77, 53
13, 18735, Note_on_c, 4, 76, 63
13, 18740, Note_off_c, 4, 77, 64
13, 18763, Note_on_c, 4, 77, 72
13, 18764, Note_off_c, 4, 76, 64
13, 19075, Note_off_c, 4, 77, 64
13, 19125, Note_on_c, 4, 77, 85
13, 19158, Note_off_c, 4, 77, 64
13, 19189, Note_on_c, 4, 77, 82
13, 19230, Note_off_c, 4, 77, 64
13, 19250, Note_on_c, 4, 79, 74
13, 19291, Note_off_c, 4, 79, 64
13, 19311, Note_on_c, 4, 77, 82
13, 19352, Note_off_c, 4, 77, 64
13, 19368, Note_on_c, 4, 76, 82
13, 19405, Note_off_c, 4, 76, 64
13, 19431, Note_on_c, 4, 77, 87
13, 19478, Note_off_c, 4, 77, 64
13, 19493, Note_on_c, 4, 76, 85
13, 19530, Note_off_c, 4, 76, 64
13, 19552, Note_on_c, 4, 74, 76
13, 19596, Note_off_c, 4, 74, 64
13, 19614, Note_on_c, 4, 76, 78
13, 19651, Note_off_c, 4, 76, 64
13, 19671, Note_on_c, 4, 77, 82
13, 19732, Note_on_c, 4, 76, 63
13, 19741, Note_off_c, 4, 77, 64
13, 19762, Note_off_c, 4, 76, 64
13, 19763, Note_on_c, 4, 77, 68
13, 19791, Note_on_c, 4, 76, 66
13, 19794, Note_off_c, 4, 77, 64
13, 19811, Note_off_c, 4, 76, 64
13, 19814, Note_on_c, 4, 77, 63
13, 19833, Note_on_c, 4, 76, 61
13, 19835, Note_off_c, 4, 77, 64
13, 19852, Note_off_c, 4, 76, 64
13, 19853, Note_on_c, 4, 77, 72
13, 19871, Note_on_c, 4, 76, 59
13, 19873, Note_off_c, 4, 77, 64
13, 19886, Note_off_c, 4, 76, 64
13, 19888, Note_on_c, 4, 77, 76
13, 19904, Note_on_c, 4, 76, 70
13, 19912, Note_off_c, 4, 77, 64
13, 20041, Note_off_c, 4, 76, 64
13, 20078, Note_on_c, 4, 74, 72
13, 20112, Note_off_c, 4, 74, 64
13, 20145, Note_on_c, 4, 74, 68
13, 20410, Note_off_c, 4, 74, 64
13, 20454, Note_on_c, 4, 67, 62
13, 20479, Note_on_c, 4, 69, 66
13, 20491, Note_on_c, 4, 71, 66
13, 20506, Note_off_c, 4, 67, 64
13, 20508, Note_off_c, 4, 69, 64
13, 20516, Note_on_c, 4, 72, 61
13, 20536, Note_off_c, 4, 71, 64
13, 20541, Note_on_c, 4, 74, 68
13, 20547, Note_off_c, 4, 72, 64
13, 20551, Note_on_c, 4, 76, 61
13, 20568, Note_off_c, 4, 74, 64
13, 20569, Note_on_c, 4, 78, 60
13, 20583, Note_off_c, 4, 76, 64
13, 20596, Note_on_c, 4, 79, 70
13, 20604, Note_off_c, 4, 78, 64
13, 20607, Note_on_c, 4, 81, 76
13, 20617, Note_off_c, 4, 79, 64
13, 20635, Note_on_c, 4, 83, 82
13, 20641, Note_off_c, 4, 81, 64
13, 20995, Note_off_c, 4, 83, 64
13, 21055, Note_on_c, 4, 83, 85
13, 21100, Note_off_c, 4, 83, 64
13, 21119, Note_on_c, 4, 83, 91
13, 21216, Note_off_c, 4, 83, 64
13, 21292, Note_on_c, 4, 79, 85
13, 21318, Note_off_c, 4, 79, 64
13, 21351, Note_on_c, 4, 79, 82
13, 21376, Note_on_c, 4, 78, 87
13, 21380, Note_off_c, 4, 79, 64
13, 21397, Note_on_c, 4, 79, 72
13, 21398, Note_off_c, 4, 78, 64
13, 21418, Note_on_c, 4, 78, 74
13, 21427, Note_off_c, 4, 79, 64
13, 21470, Note_off_c, 4, 78, 64
13, 21537, Note_on_c, 4, 76, 85
13, 21568, Note_off_c, 4, 76, 64
13, 21597, Note_on_c, 4, 81, 80
13, 21621, Note_on_c, 4, 79, 87
13, 21627, Note_off_c, 4, 81, 64
13, 21650, Note_on_c, 4, 81, 68
13, 21651, Note_off_c, 4, 79, 64
13, 21962, Note_off_c, 4, 81, 64
13, 22016, Note_on_c, 4, 81, 87
13, 22044, Note_off_c, 4, 81, 64
13, 22082, Note_on_c, 4, 81, 82
13, 22205, Note_off_c, 4, 81, 64
13, 22262, Note_on_c, 4, 83, 68
13, 22282, Note_on_c, 4, 81, 66
13, 22294, Note_off_c, 4, 83, 64
13, 22310, Note_off_c, 4, 81, 64
13, 22321, Note_on_c, 4, 79, 87
13, 22422, Note_off_c, 4, 79, 64
13, 22489, Note_on_c, 4, 81, 63
13, 22515, Note_on_c, 4, 78, 91
13, 22522, Note_off_c, 4, 81, 64
13, 22535, Note_off_c, 4, 78, 64
13, 22552, Note_on_c, 4, 78, 91
13, 22673, Note_on_c, 4, 79, 60
13, 22674, Note_off_c, 4, 78, 64
13, 22925, Note_off_c, 4, 79, 64
13, 22972, Note_on_c, 4, 79, 78
13, 23011, Note_off_c, 4, 79, 64
13, 23036, Note_on_c, 4, 79, 78
13, 23296, Note_off_c, 4, 79, 64
13, 23331, Note_on_c, 4, 78, 82
13, 23369, Note_off_c, 4, 78, 64
13, 23388, Note_on_c, 4, 76, 70
13, 23436, Note_off_c, 4, 76, 64
13, 23442, Note_on_c, 4, 78, 63
13, 23481, Note_off_c, 4, 78, 64
13, 23504, Note_on_c, 4, 79, 70
13, 23548, Note_off_c, 4, 79, 64
13, 23563, Note_on_c, 4, 78, 72
13, 23602, Note_off_c, 4, 78, 64
13, 23625, Note_on_c, 4, 79, 70
13, 23664, Note_off_c, 4, 79, 64
13, 23681, Note_on_c, 4, 83, 82
13, 23723, Note_off_c, 4, 83, 64
13, 23743, Note_on_c, 4, 81, 72
13, 23787, Note_off_c, 4, 81, 64
13, 23802, Note_on_c, 4, 79, 76
13, 23844, Note_off_c, 4, 79, 64
13, 23867, Note_on_c, 4, 78, 70
13, 23903, Note_off_c, 4, 78, 64
13, 23924, Note_on_c, 4, 79, 78
13, 23959, Note_off_c, 4, 79, 64
13, 23988, Note_on_c, 4, 79, 68
13, 24017, Note_on_c, 4, 78, 74
13, 24021, Note_off_c, 4, 79, 64
13, 24039, Note_on_c, 4, 79, 68
13, 24042, Note_off_c, 4, 78, 64
13, 24058, Note_on_c, 4, 78, 63
13, 24065, Note_off_c, 4, 79, 64
13, 24143, Note_off_c, 4, 78, 64
13, 24180, Note_on_c, 4, 76, 63
13, 24200, Note_on_c, 4, 74, 76
13, 24205, Note_off_c, 4, 76, 64
13, 24230, Note_off_c, 4, 74, 64
13, 24237, Note_on_c, 4, 81, 85
13, 24343, Note_off_c, 4, 81, 64
13, 24404, Note_on_c, 4, 72, 64
13, 24438, Note_off_c, 4, 72, 64
13, 24466, Note_on_c, 4, 71, 78
13, 24603, Note_off_c, 4, 71, 64
13, 24636, Note_on_c, 4, 72, 60
13, 24654, Note_on_c, 4, 71, 64
13, 24664, Note_off_c, 4, 72, 64
13, 24687, Note_on_c, 4, 72, 66
13, 24692, Note_off_c, 4, 71, 64
13, 24715, Note_off_c, 4, 72, 64
13, 24715, Note_on_c, 4, 74, 62
13, 24743, Note_on_c, 4, 72, 57
13, 24749, Note_off_c, 4, 74, 64
13, 24762, Note_off_c, 4, 72, 64
13, 24767, Note_on_c, 4, 74, 63
13, 24788, Note_on_c, 4, 72, 58
13, 24790, Note_off_c, 4, 74, 64
13, 24805, Note_off_c, 4, 72, 64
13, 24808, Note_on_c, 4, 74, 62
13, 24823, Note_on_c, 4, 72, 58
13, 24826, Note_off_c, 4, 74, 64
13, 24836, Note_off_c, 4, 72, 64
13, 24839, Note_on_c, 4, 74, 68
13, 24857, Note_on_c, 4, 72, 60
13, 24864, Note_off_c, 4, 74, 64
13, 24881, Note_on_c, 4, 71, 58
13, 24889, Note_off_c, 4, 72, 64
13, 24908, Note_on_c, 4, 72, 68
13, 24920, Note_off_c, 4, 71, 64
13, 24941, Note_off_c, 4, 72, 64
13, 24946, Note_on_c, 4, 74, 78
13, 25211, Note_off_c, 4, 74, 64
13, 25237, Note_on_c, 4, 76, 61
13, 25261, Note_on_c, 4, 74, 70
13, 25279, Note_off_c, 4, 76, 64
13, 25288, Note_on_c, 4, 72, 58
13, 25306, Note_off_c, 4, 74, 64
13, 25310, Note_on_c, 4, 71, 66
13, 25323, Note_off_c, 4, 72, 64
13, 25330, Note_on_c, 4, 69, 74
13, 25334, Note_off_c, 4, 71, 64
13, 25353, Note_on_c, 4, 67, 68
13, 25357, Note_off_c, 4, 69, 64
13, 25375, Note_on_c, 4, 65, 64
13, 25382, Note_off_c, 4, 67, 64
13, 25400, Note_on_c, 4, 64, 72
13, 25408, Note_off_c, 4, 65, 64
13, 25425, Note_on_c, 4, 65, 82
13, 25436, Note_off_c, 4, 64, 64
13, 25799, Note_off_c, 4, 65, 64
13, 25845, Note_on_c, 4, 65, 70
13, 25878, Note_off_c, 4, 65, 64
13, 25916, Note_on_c, 4, 67, 85
13, 25935, Note_on_c, 4, 65, 57
13, 25940, Note_off_c, 4, 67, 64
13, 25956, Note_on_c, 4, 67, 72
13, 25957, Note_off_c, 4, 65, 64
13, 25971, Note_on_c, 4, 65, 60
13, 25985, Note_off_c, 4, 67, 64
13, 26044, Note_off_c, 4, 65, 64
13, 26095, Note_on_c, 4, 64, 61
13, 26121, Note_on_c, 4, 62, 74
13, 26130, Note_off_c, 4, 64, 64
13, 26153, Note_off_c, 4, 62, 64
13, 26157, Note_on_c, 4, 64, 85
13, 26266, Note_off_c, 4, 64, 64
13, 26330, Note_on_c, 4, 66, 70
13, 26370, Note_off_c, 4, 66, 64
13, 26392, Note_on_c, 4, 67, 80
13, 26770, Note_off_c, 4, 67, 64
13, 26811, Note_on_c, 4, 67, 89
13, 26840, Note_off_c, 4, 67, 64
13, 26876, Note_on_c, 4, 69, 82
13, 26893, Note_on_c, 4, 67, 66
13, 26899, Note_off_c, 4, 69, 64
13, 26916, Note_on_c, 4, 69, 64
13, 26922, Note_off_c, 4, 67, 64
13, 26934, Note_on_c, 4, 67, 70
13, 26945, Note_off_c, 4, 69, 64
13, 27009, Note_off_c, 4, 67, 64
13, 27051, Note_on_c, 4, 66, 63
13, 27080, Note_on_c, 4, 64, 64
13, 27092, Note_off_c, 4, 66, 64
13, 27112, Note_off_c, 4, 64, 64
13, 27112, Note_on_c, 4, 74, 72
13, 27135, Note_on_c, 4, 72, 57
13, 27137, Note_off_c, 4, 74, 64
13, 27153, Note_on_c, 4, 74, 72
13, 27154, Note_off_c, 4, 72, 64
13, 27176, Note_on_c, 4, 72, 64
13, 27184, Note_off_c, 4, 74, 64
13, 27255, Note_off_c, 4, 72, 64
13, 27298, Note_on_c, 4, 71, 74
13, 27323, Note_on_c, 4, 69, 78
13, 27336, Note_off_c, 4, 71, 64
13, 27350, Note_on_c, 4, 79, 66
13, 27352, Note_off_c, 4, 69, 64
13, 27369, Note_on_c, 4, 78, 72
13, 27378, Note_off_c, 4, 79, 64
13, 27390, Note_off_c, 4, 78, 64
13, 27392, Note_on_c, 4, 79, 72
13, 27413, Note_on_c, 4, 78, 63
13, 27426, Note_off_c, 4, 79, 64
13, 27501, Note_off_c, 4, 78, 64
13, 27540, Note_on_c, 4, 76, 68
13, 27564, Note_on_c, 4, 74, 87
13, 27572, Note_off_c, 4, 76, 64
13, 27589, Note_off_c, 4, 74, 64
13, 27597, Note_on_c, 4, 81, 78
13, 27707, Note_off_c, 4, 81, 64
13, 27770, Note_on_c, 4, 72, 78
13, 27797, Note_off_c, 4, 72, 64
13, 27834, Note_on_c, 4, 72, 78
13, 27955, Note_on_c, 4, 71, 66
13, 27958, Note_off_c, 4, 72, 64
13, 28118, Note_off_c, 4, 71, 64
13, 28135, Note_on_c, 4, 69, 85
13, 28180, Note_off_c, 4, 69, 64
13, 28190, Note_on_c, 4, 67, 66
13, 28229, Note_off_c, 4, 67, 64
13, 28244, Note_on_c, 4, 66, 66
13, 28288, Note_off_c, 4, 66, 64
13, 28307, Note_on_c, 4, 67, 72
13, 28353, Note_off_c, 4, 67, 64
13, 28369, Note_on_c, 4, 62, 74
13, 28416, Note_off_c, 4, 62, 64
13, 28430, Note_on_c, 4, 64, 72
13, 28472, Note_off_c, 4, 64, 64
13, 28488, Note_on_c, 4, 66, 80
13, 28529, Note_off_c, 4, 66, 64
13, 28547, Note_on_c, 4, 67, 68
13, 28595, Note_off_c, 4, 67, 64
13, 28606, Note_on_c, 4, 69, 85
13, 28651, Note_off_c, 4, 69, 64
13, 28668, Note_on_c, 4, 71, 78
13, 28715, Note_off_c, 4, 71, 64
13, 28724, Note_on_c, 4, 72, 72
13, 28768, Note_off_c, 4, 72, 64
13, 28786, Note_on_c, 4, 74, 76
13, 29054, Note_off_c, 4, 74, 64
13, 29083, Note_on_c, 4, 72, 76
13, 29128, Note_off_c, 4, 72, 64
13, 29145, Note_on_c, 4, 74, 74
13, 29190, Note_off_c, 4, 74, 64
13, 29194, Note_on_c, 4, 76, 64
13, 29236, Note_off_c, 4, 76, 64
13, 29261, Note_on_c, 4, 67, 64
13, 29317, Note_on_c, 4, 66, 60
13, 29320, Note_off_c, 4, 67, 64
13, 29338, Note_off_c, 4, 66, 64
13, 29338, Note_on_c, 4, 67, 62
13, 29361, Note_on_c, 4, 66, 55
13, 29363, Note_off_c, 4, 67, 64
13, 29377, Note_off_c, 4, 66, 64
13, 29377, Note_on_c, 4, 67, 70
13, 29395, Note_on_c, 4, 66, 80
13, 29403, Note_off_c, 4, 67, 64
13, 29527, Note_off_c, 4, 66, 64
13, 29570, Note_on_c, 4, 67, 74
13, 29610, Note_off_c, 4, 67, 64
13, 29632, Note_on_c, 4, 69, 72
13, 29675, Note_off_c, 4, 69, 64
13, 29688, Note_on_c, 4, 71, 72
13, 29724, Note_off_c, 4, 71, 64
13, 29749, Note_on_c, 4, 72, 78
13, 29866, Note_off_c, 4, 72, 64
13, 29918, Note_on_c, 4, 71, 63
13, 29943, Note_on_c, 4, 69, 80
13, 29951, Note_off_c, 4, 71, 64
13, 29970, Note_off_c, 4, 69, 64
13, 29983, Note_on_c, 4, 71, 85
13, 30101, Note_off_c, 4, 71, 64
13, 30162, Note_on_c, 4, 72, 68
13, 30193, Note_off_c, 4, 72, 64
13, 30231, Note_on_c, 4, 71, 85
13, 30293, Note_on_c, 4, 69, 52
13, 30301, Note_off_c, 4, 71, 64
13, 30326, Note_off_c, 4, 69, 64
13, 30326, Note_on_c, 4, 71, 59
13, 30352, Note_on_c, 4, 69, 55
13, 30354, Note_off_c, 4, 71, 64
13, 30370, Note_off_c, 4, 69, 64
13, 30373, Note_on_c, 4, 71, 61
13, 30394, Note_on_c, 4, 69, 61
13, 30396, Note_off_c, 4, 71, 64
13, 30411, Note_off_c, 4, 69, 64
13, 30412, Note_on_c, 4, 71, 74
13, 30429, Note_off_c, 4, 71, 64
13, 30429, Note_on_c, 4, 69, 68
13, 30447, Note_off_c, 4, 69, 64
13, 30447, Note_on_c, 4, 71, 85
13, 30467, Note_on_c, 4, 69, 72
13, 30474, Note_off_c, 4, 71, 64
13, 30590, Note_off_c, 4, 69, 64
13, 30642, Note_on_c, 4, 67, 80
13, 30679, Note_off_c, 4, 67, 64
13, 30714, Note_on_c, 4, 67, 82
13, 30763, Note_off_c, 4, 67, 64
13, 55736, Note_on_c, 4, 84, 66
13, 55778, Note_off_c, 4, 84, 64
13, 55794, Note_on_c, 4, 83, 74
13, 55837, Note_off_c, 4, 83, 64
13, 55854, Note_on_c, 4, 81, 56
13, 55904, Note_off_c, 4, 81, 64
13, 55915, Note_on_c, 4, 79, 59
13, 55958, Note_off_c, 4, 79, 64
13, 55975, Note_on_c, 4, 78, 55
13, 56019, Note_off_c, 4, 78, 64
13, 56038, Note_on_c, 4, 79, 64
13, 56070, Note_off_c, 4, 79, 64
13, 56088, Note_on_c, 4, 76, 51
13, 56135, Note_off_c, 4, 76, 64
13, 56153, Note_on_c, 4, 81, 72
13, 56206, Note_off_c, 4, 81, 64
13, 56212, Note_on_c, 4, 83, 62
13, 56254, Note_off_c, 4, 83, 64
13, 56270, Note_on_c, 4, 81, 57
13, 56319, Note_off_c, 4, 81, 64
13, 56325, Note_on_c, 4, 79, 57
13, 56365, Note_off_c, 4, 79, 64
13, 56389, Note_on_c, 4, 78, 60
13, 56438, Note_off_c, 4, 78, 64
13, 56447, Note_on_c, 4, 76, 61
13, 56491, Note_off_c, 4, 76, 64
13, 56502, Note_on_c, 4, 78, 66
13, 56548, Note_off_c, 4, 78, 64
13, 56570, Note_on_c, 4, 71, 46
13, 56606, Note_off_c, 4, 71, 64
13, 56633, Note_on_c, 4, 79, 70
13, 57342, Note_off_c, 4, 79, 64
13, 57656, Note_on_c, 4, 82, 64
13, 57703, Note_off_c, 4, 82, 64
13, 57715, Note_on_c, 4, 81, 62
13, 57765, Note_off_c, 4, 81, 64
13, 57773, Note_on_c, 4, 79, 57
13, 57831, Note_off_c, 4, 79, 64
13, 57836, Note_on_c, 4, 77, 66
13, 57877, Note_off_c, 4, 77, 64
13, 57895, Note_on_c, 4, 76, 60
13, 57944, Note_off_c, 4, 76, 64
13, 57950, Note_on_c, 4, 77, 62
13, 58003, Note_off_c, 4, 77, 64
13, 58006, Note_on_c, 4, 74, 70
13, 58050, Note_off_c, 4, 74, 64
13, 58070, Note_on_c, 4, 79, 74
13, 58120, Note_off_c, 4, 79, 64
13, 58127, Note_on_c, 4, 81, 59
13, 58172, Note_off_c, 4, 81, 64
13, 58184, Note_on_c, 4, 79, 59
13, 58223, Note_off_c, 4, 79, 64
13, 58239, Note_on_c, 4, 77, 62
13, 58284, Note_off_c, 4, 77, 64
13, 58304, Note_on_c, 4, 76, 63
13, 58355, Note_off_c, 4, 76, 64
13, 58364, Note_on_c, 4, 74, 63
13, 58400, Note_off_c, 4, 74, 64
13, 58421, Note_on_c, 4, 76, 63
13, 58469, Note_off_c, 4, 76, 64
13, 58477, Note_on_c, 4, 69, 66
13, 58524, Note_off_c, 4, 69, 64
13, 58544, Note_on_c, 4, 77, 58
13, 59270, Note_off_c, 4, 77, 64
13, 59561, Note_on_c, 4, 81, 70
13, 59606, Note_off_c, 4, 81, 64
13, 59621, Note_on_c, 4, 79, 61
13, 59663, Note_off_c, 4, 79, 64
13, 59679, Note_on_c, 4, 77, 57
13, 59733, Note_off_c, 4, 77, 64
13, 59743, Note_on_c, 4, 76, 61
13, 59783, Note_off_c, 4, 76, 64
13, 59799, Note_on_c, 4, 74, 63
13, 59845, Note_off_c, 4, 74, 64
13, 59861, Note_on_c, 4, 76, 68
13, 59907, Note_off_c, 4, 76, 64
13, 59915, Note_on_c, 4, 72, 57
13, 59952, Note_off_c, 4, 72, 64
13, 59976, Note_on_c, 4, 77, 82
13, 60025, Note_off_c, 4, 77, 64
13, 60032, Note_on_c, 4, 79, 68
13, 60088, Note_off_c, 4, 79, 64
13, 60096, Note_on_c, 4, 77, 64
13, 60145, Note_off_c, 4, 77, 64
13, 60158, Note_on_c, 4, 76, 59
13, 60203, Note_off_c, 4, 76, 64
13, 60221, Note_on_c, 4, 74, 66
13, 60270, Note_off_c, 4, 74, 64
13, 60280, Note_on_c, 4, 72, 58
13, 60334, Note_off_c, 4, 72, 64
13, 60341, Note_on_c, 4, 74, 59
13, 60388, Note_off_c, 4, 74, 64
13, 60401, Note_on_c, 4, 67, 68
13, 60459, Note_off_c, 4, 67, 64
13, 60466, Note_on_c, 4, 76, 72
13, 60521, Note_on_c, 4, 74, 55
13, 60523, Note_off_c, 4, 76, 64
13, 60578, Note_off_c, 4, 74, 64
13, 60589, Note_on_c, 4, 72, 58
13, 60651, Note_on_c, 4, 74, 53
13, 60654, Note_off_c, 4, 72, 64
13, 60706, Note_off_c, 4, 74, 64
13, 60724, Note_on_c, 4, 76, 78
13, 60765, Note_off_c, 4, 76, 64
13, 60775, Note_on_c, 4, 74, 70
13, 60823, Note_off_c, 4, 74, 64
13, 60837, Note_on_c, 4, 76, 55
13, 60887, Note_off_c, 4, 76, 64
13, 60888, Note_on_c, 4, 78, 64
13, 60926, Note_off_c, 4, 78, 64
13, 60950, Note_on_c, 4, 79, 70
13, 61081, Note_off_c, 4, 79, 64
13, 61132, Note_on_c, 4, 74, 63
13, 61161, Note_off_c, 4, 74, 64
13, 61191, Note_on_c, 4, 79, 82
13, 61314, Note_off_c, 4, 79, 64
13, 61377, Note_on_c, 4, 79, 60
13, 61404, Note_off_c, 4, 79, 64
13, 61434, Note_on_c, 4, 79, 82
13, 61539, Note_off_c, 4, 79, 64
13, 61590, Note_on_c, 4, 78, 60
13, 61625, Note_off_c, 4, 78, 64
13, 61625, Note_on_c, 4, 76, 62
13, 61652, Note_on_c, 4, 78, 54
13, 61664, Note_off_c, 4, 76, 64
13, 61673, Note_off_c, 4, 78, 64
13, 61678, Note_on_c, 4, 79, 66
13, 61703, Note_on_c, 4, 78, 62
13, 61710, Note_off_c, 4, 79, 64
13, 61728, Note_on_c, 4, 79, 70
13, 61730, Note_off_c, 4, 78, 64
13, 61751, Note_on_c, 4, 78, 64
13, 61769, Note_off_c, 4, 79, 64
13, 61806, Note_off_c, 4, 78, 64
13, 61844, Note_on_c, 4, 79, 66
13, 61875, Note_off_c, 4, 79, 64
13, 61912, Note_on_c, 4, 79, 68
13, 62171, Note_off_c, 4, 79, 64
13, 62278, Note_on_c, 4, 76, 76
13, 62419, Note_off_c, 4, 76, 64
13, 62446, Note_on_c, 4, 79, 80
13, 62494, Note_off_c, 4, 79, 64
13, 62505, Note_on_c, 4, 78, 68
13, 62560, Note_off_c, 4, 78, 64
13, 62560, Note_on_c, 4, 76, 66
13, 62616, Note_off_c, 4, 76, 64
13, 62621, Note_on_c, 4, 74, 62
13, 62660, Note_off_c, 4, 74, 64
13, 62676, Note_on_c, 4, 72, 54
13, 62730, Note_off_c, 4, 72, 64
13, 62737, Note_on_c, 4, 71, 58
13, 62783, Note_off_c, 4, 71, 64
13, 62790, Note_on_c, 4, 69, 66
13, 62827, Note_off_c, 4, 69, 64
13, 62858, Note_on_c, 4, 67, 72
13, 62903, Note_off_c, 4, 67, 64
13, 62916, Note_on_c, 4, 71, 68
13, 62974, Note_off_c, 4, 71, 64
13, 62980, Note_on_c, 4, 69, 57
13, 63021, Note_off_c, 4, 69, 64
13, 63035, Note_on_c, 4, 67, 52
13, 63068, Note_off_c, 4, 67, 64
13, 63094, Note_on_c, 4, 72, 78
13, 63147, Note_off_c, 4, 72, 64
13, 63153, Note_on_c, 4, 76, 66
13, 63194, Note_off_c, 4, 76, 64
13, 63209, Note_on_c, 4, 74, 68
13, 63253, Note_off_c, 4, 74, 64
13, 63271, Note_on_c, 4, 72, 56
13, 63301, Note_off_c, 4, 72, 64
13, 63338, Note_on_c, 4, 81, 70
13, 63403, Note_off_c, 4, 81, 64
13, 63470, Note_on_c, 4, 74, 74
13, 63514, Note_off_c, 4, 74, 64
13, 63598, Note_on_c, 4, 79, 78
13, 63750, Note_off_c, 4, 79, 64
13, 63785, Note_on_c, 4, 79, 82
13, 63814, Note_off_c, 4, 79, 64
13, 63846, Note_on_c, 4, 79, 87
13, 63889, Note_off_c, 4, 79, 64
13, 63902, Note_on_c, 4, 78, 91
13, 63938, Note_off_c, 4, 78, 64
13, 63963, Note_on_c, 4, 79, 82
13, 63998, Note_off_c, 4, 79, 64
13, 64016, Note_on_c, 4, 76, 72
13, 64046, Note_off_c, 4, 76, 64
13, 64076, Note_on_c, 4, 78, 64
13, 64220, Note_off_c, 4, 78, 64
13, 64249, Note_on_c, 4, 78, 82
13, 64276, Note_off_c, 4, 78, 64
13, 64306, Note_on_c, 4, 78, 85
13, 64343, Note_off_c, 4, 78, 64
13, 64433, Note_on_c, 4, 71, 68
13, 64475, Note_off_c, 4, 71, 64
13, 64556, Note_on_c, 4, 76, 82
13, 64703, Note_off_c, 4, 76, 64
13, 64738, Note_on_c, 4, 76, 68
13, 64765, Note_off_c, 4, 76, 64
13, 64798, Note_on_c, 4, 76, 76
13, 64835, Note_off_c, 4, 76, 64
13, 64858, Note_on_c, 4, 74, 82
13, 64893, Note_off_c, 4, 74, 64
13, 64916, Note_on_c, 4, 76, 72
13, 64946, Note_off_c, 4, 76, 64
13, 64967, Note_on_c, 4, 72, 64
13, 64999, Note_off_c, 4, 72, 64
13, 65031, Note_on_c, 4, 74, 70
13, 65168, Note_off_c, 4, 74, 64
13, 65200, Note_on_c, 4, 74, 70
13, 65233, Note_off_c, 4, 74, 64
13, 65264, Note_on_c, 4, 74, 76
13, 65297, Note_off_c, 4, 74, 64
13, 65383, Note_on_c, 4, 67, 70
13, 65429, Note_off_c, 4, 67, 64
13, 65516, Note_on_c, 4, 72, 66
13, 65644, Note_off_c, 4, 72, 64
13, 65695, Note_on_c, 4, 72, 70
13, 65720, Note_off_c, 4, 72, 64
13, 65757, Note_on_c, 4, 72, 70
13, 65795, Note_off_c, 4, 72, 64
13, 65814, Note_on_c, 4, 76, 70
13, 65853, Note_off_c, 4, 76, 64
13, 65875, Note_on_c, 4, 74, 70
13, 65925, Note_off_c, 4, 74, 64
13, 65932, Note_on_c, 4, 72, 58
13, 65985, Note_off_c, 4, 72, 64
13, 65992, Note_on_c, 4, 71, 70
13, 66034, Note_off_c, 4, 71, 64
13, 66042, Note_on_c, 4, 69, 60
13, 66087, Note_off_c, 4, 69, 64
13, 66105, Note_on_c, 4, 67, 63
13, 66157, Note_on_c, 4, 66, 60
13, 66160, Note_off_c, 4, 67, 64
13, 66203, Note_off_c, 4, 66, 64
13, 66218, Note_on_c, 4, 67, 68
13, 66279, Note_off_c, 4, 67, 64
13, 66287, Note_on_c, 4, 71, 66
13, 66329, Note_off_c, 4, 71, 64
13, 66353, Note_on_c, 4, 76, 66
13, 66404, Note_off_c, 4, 76, 64
13, 66412, Note_on_c, 4, 74, 66
13, 66459, Note_off_c, 4, 74, 64
13, 66475, Note_on_c, 4, 72, 61
13, 66517, Note_off_c, 4, 72, 64
13, 66527, Note_on_c, 4, 71, 52
13, 66579, Note_off_c, 4, 71, 64
13, 66593, Note_on_c, 4, 69, 57
13, 66645, Note_on_c, 4, 67, 63
13, 66657, Note_off_c, 4, 69, 64
13, 66667, Note_off_c, 4, 67, 64
13, 66712, Note_on_c, 4, 78, 89
13, 66763, Note_off_c, 4, 78, 64
13, 66770, Note_on_c, 4, 76, 60
13, 66812, Note_off_c, 4, 76, 64
13, 66830, Note_on_c, 4, 74, 57
13, 66874, Note_off_c, 4, 74, 64
13, 66888, Note_on_c, 4, 76, 56
13, 66924, Note_off_c, 4, 76, 64
13, 66946, Note_on_c, 4, 78, 78
13, 66994, Note_off_c, 4, 78, 64
13, 66999, Note_on_c, 4, 76, 57
13, 67041, Note_off_c, 4, 76, 64
13, 67061, Note_on_c, 4, 78, 72
13, 67106, Note_off_c, 4, 78, 64
13, 67119, Note_on_c, 4, 74, 60
13, 67156, Note_off_c, 4, 74, 64
13, 67186, Note_on_c, 4, 79, 80
13, 67308, Note_off_c, 4, 79, 64
13, 67362, Note_on_c, 4, 81, 66
13, 67388, Note_off_c, 4, 81, 64
13, 67431, Note_on_c, 4, 79, 82
13, 67456, Note_on_c, 4, 78, 72
13, 67460, Note_off_c, 4, 79, 64
13, 67479, Note_on_c, 4, 79, 60
13, 67481, Note_off_c, 4, 78, 64
13, 67507, Note_on_c, 4, 78, 64
13, 67518, Note_off_c, 4, 79, 64
13, 67559, Note_off_c, 4, 78, 64
13, 67607, Note_on_c, 4, 79, 62
13, 67632, Note_off_c, 4, 79, 64
13, 67674, Note_on_c, 4, 79, 76
13, 67927, Note_off_c, 4, 79, 64
13, 85319, Note_on_c, 4, 81, 85
13, 85474, Note_off_c, 4, 81, 64
13, 85494, Note_on_c, 4, 84, 78
13, 85544, Note_off_c, 4, 84, 64
13, 85552, Note_on_c, 4, 83, 70
13, 85598, Note_off_c, 4, 83, 64
13, 85612, Note_on_c, 4, 81, 80
13, 85668, Note_off_c, 4, 81, 64
13, 85670, Note_on_c, 4, 79, 64
13, 85727, Note_off_c, 4, 79, 64
13, 85727, Note_on_c, 4, 77, 68
13, 85774, Note_off_c, 4, 77, 64
13, 85791, Note_on_c, 4, 76, 59
13, 85840, Note_off_c, 4, 76, 64
13, 85850, Note_on_c, 4, 74, 48
13, 85899, Note_off_c, 4, 74, 64
13, 85912, Note_on_c, 4, 72, 57
13, 85959, Note_off_c, 4, 72, 64
13, 85967, Note_on_c, 4, 76, 57
13, 86021, Note_off_c, 4, 76, 64
13, 86026, Note_on_c, 4, 74, 53
13, 86075, Note_off_c, 4, 74, 64
13, 86080, Note_on_c, 4, 72, 63
13, 86125, Note_off_c, 4, 72, 64
13, 86149, Note_on_c, 4, 77, 82
13, 86292, Note_off_c, 4, 77, 64
13, 86334, Note_on_c, 4, 77, 89
13, 86365, Note_off_c, 4, 77, 64
13, 86392, Note_on_c, 4, 77, 93
13, 86453, Note_off_c, 4, 77, 64
13, 86453, Note_on_c, 4, 76, 85
13, 86503, Note_off_c, 4, 76, 64
13, 86511, Note_on_c, 4, 74, 64
13, 86562, Note_off_c, 4, 74, 64
13, 86568, Note_on_c, 4, 76, 59
13, 86602, Note_off_c, 4, 76, 64
13, 86638, Note_on_c, 4, 77, 74
13, 86666, Note_on_c, 4, 76, 80
13, 86669, Note_off_c, 4, 77, 64
13, 86696, Note_on_c, 4, 77, 70
13, 86697, Note_off_c, 4, 76, 64
13, 86720, Note_on_c, 4, 76, 80
13, 86734, Note_off_c, 4, 77, 64
13, 86785, Note_off_c, 4, 76, 64
13, 86813, Note_on_c, 4, 76, 87
13, 86848, Note_off_c, 4, 76, 64
13, 86874, Note_on_c, 4, 76, 89
13, 86916, Note_off_c, 4, 76, 64
13, 86930, Note_on_c, 4, 69, 66
13, 86984, Note_off_c, 4, 69, 64
13, 86988, Note_on_c, 4, 71, 53
13, 87028, Note_off_c, 4, 71, 64
13, 87043, Note_on_c, 4, 72, 68
13, 87083, Note_off_c, 4, 72, 64
13, 87114, Note_on_c, 4, 74, 74
13, 87257, Note_off_c, 4, 74, 64
13, 87291, Note_on_c, 4, 74, 89
13, 87328, Note_off_c, 4, 74, 64
13, 87359, Note_on_c, 4, 74, 87
13, 87416, Note_off_c, 4, 74, 64
13, 87416, Note_on_c, 4, 72, 80
13, 87464, Note_off_c, 4, 72, 64
13, 87473, Note_on_c, 4, 74, 66
13, 87533, Note_on_c, 4, 71, 68
13, 87536, Note_off_c, 4, 74, 64
13, 87575, Note_off_c, 4, 71, 64
13, 87595, Note_on_c, 4, 72, 85
13, 87649, Note_off_c, 4, 72, 64
13, 87653, Note_on_c, 4, 76, 70
13, 87704, Note_off_c, 4, 76, 64
13, 87711, Note_on_c, 4, 74, 54
13, 87771, Note_off_c, 4, 74, 64
13, 87771, Note_on_c, 4, 76, 66
13, 87814, Note_off_c, 4, 76, 64
13, 87834, Note_on_c, 4, 77, 85
13, 87895, Note_on_c, 4, 79, 74
13, 87896, Note_off_c, 4, 77, 64
13, 87952, Note_on_c, 4, 77, 66
13, 87954, Note_off_c, 4, 79, 64
13, 88009, Note_off_c, 4, 77, 64
13, 88009, Note_on_c, 4, 76, 66
13, 88057, Note_off_c, 4, 76, 64
13, 88072, Note_on_c, 4, 74, 87
13, 88122, Note_off_c, 4, 74, 64
13, 88125, Note_on_c, 4, 72, 68
13, 88172, Note_off_c, 4, 72, 64
13, 88186, Note_on_c, 4, 74, 62
13, 88245, Note_on_c, 4, 71, 64
13, 88250, Note_off_c, 4, 74, 64
13, 88297, Note_off_c, 4, 71, 64
13, 88309, Note_on_c, 4, 72, 64
13, 88369, Note_on_c, 4, 74, 68
13, 88376, Note_off_c, 4, 72, 64
13, 88435, Note_on_c, 4, 76, 68
13, 88448, Note_off_c, 4, 74, 64
13, 88484, Note_off_c, 4, 76, 64
13, 88493, Note_on_c, 4, 77, 78
13, 88551, Note_off_c, 4, 77, 64
13, 88552, Note_on_c, 4, 79, 55
13, 88609, Note_off_c, 4, 79, 64
13, 88612, Note_on_c, 4, 81, 68
13, 88671, Note_off_c, 4, 81, 64
13, 88671, Note_on_c, 4, 82, 64
13, 88727, Note_on_c, 4, 79, 58
13, 88731, Note_off_c, 4, 82, 64
13, 88765, Note_off_c, 4, 79, 64
13, 88792, Note_on_c, 4, 81, 87
13, 88848, Note_on_c, 4, 82, 74
13, 88856, Note_off_c, 4, 81, 64
13, 88895, Note_off_c, 4, 82, 64
13, 88909, Note_on_c, 4, 81, 76
13, 88963, Note_on_c, 4, 79, 72
13, 88973, Note_off_c, 4, 81, 64
13, 89024, Note_off_c, 4, 79, 64
13, 89025, Note_on_c, 4, 77, 66
13, 89078, Note_off_c, 4, 77, 64
13, 89078, Note_on_c, 4, 76, 66
13, 89137, Note_off_c, 4, 76, 64
13, 89137, Note_on_c, 4, 74, 62
13, 89187, Note_off_c, 4, 74, 64
13, 89192, Note_on_c, 4, 72, 74
13, 89238, Note_off_c, 4, 72, 64
13, 89258, Note_on_c, 4, 71, 62
13, 89446, Note_off_c, 4, 71, 64
13, 89807, Note_on_c, 4, 81, 82
13, 89867, Note_on_c, 4, 79, 70
13, 89871, Note_off_c, 4, 81, 64
13, 89918, Note_off_c, 4, 79, 64
13, 89925, Note_on_c, 4, 77, 68
13, 89979, Note_off_c, 4, 77, 64
13, 89982, Note_on_c, 4, 76, 63
13, 90032, Note_off_c, 4, 76, 64
13, 90036, Note_on_c, 4, 74, 68
13, 90092, Note_off_c, 4, 74, 64
13, 90102, Note_on_c, 4, 76, 53
13, 90160, Note_off_c, 4, 76, 64
13, 90164, Note_on_c, 4, 72, 63
13, 90208, Note_off_c, 4, 72, 64
13, 90225, Note_on_c, 4, 77, 82
13, 90284, Note_on_c, 4, 79, 80
13, 90291, Note_off_c, 4, 77, 64
13, 90339, Note_off_c, 4, 79, 64
13, 90347, Note_on_c, 4, 77, 74
13, 90399, Note_off_c, 4, 77, 64
13, 90407, Note_on_c, 4, 76, 70
13, 90459, Note_off_c, 4, 76, 64
13, 90471, Note_on_c, 4, 74, 76
13, 90523, Note_off_c, 4, 74, 64
13, 90525, Note_on_c, 4, 72, 76
13, 90578, Note_off_c, 4, 72, 64
13, 90589, Note_on_c, 4, 74, 70
13, 90643, Note_off_c, 4, 74, 64
13, 90647, Note_on_c, 4, 67, 74
13, 90702, Note_off_c, 4, 67, 64
13, 90718, Note_on_c, 4, 76, 76
13, 90774, Note_on_c, 4, 74, 68
13, 90785, Note_off_c, 4, 76, 64
13, 90837, Note_on_c, 4, 72, 66
13, 90839, Note_off_c, 4, 74, 64
13, 90888, Note_off_c, 4, 72, 64
13, 90892, Note_on_c, 4, 74, 63
13, 90945, Note_off_c, 4, 74, 64
13, 90955, Note_on_c, 4, 76, 68
13, 91001, Note_off_c, 4, 76, 64
13, 91010, Note_on_c, 4, 74, 70
13, 91058, Note_off_c, 4, 74, 64
13, 91074, Note_on_c, 4, 76, 61
13, 91128, Note_off_c, 4, 76, 64
13, 91129, Note_on_c, 4, 78, 55
13, 91174, Note_off_c, 4, 78, 64
13, 91192, Note_on_c, 4, 79, 82
13, 91320, Note_off_c, 4, 79, 64
13, 91375, Note_on_c, 4, 74, 68
13, 91414, Note_off_c, 4, 74, 64
13, 91435, Note_on_c, 4, 79, 87
13, 91558, Note_off_c, 4, 79, 64
13, 91616, Note_on_c, 4, 79, 82
13, 91648, Note_off_c, 4, 79, 64
13, 91670, Note_on_c, 4, 79, 89
13, 91784, Note_off_c, 4, 79, 64
13, 91836, Note_on_c, 4, 78, 57
13, 91862, Note_on_c, 4, 76, 66
13, 91870, Note_off_c, 4, 78, 64
13, 91892, Note_on_c, 4, 78, 58
13, 91905, Note_off_c, 4, 76, 64
13, 91923, Note_off_c, 4, 78, 64
13, 91927, Note_on_c, 4, 79, 80
13, 91952, Note_on_c, 4, 78, 68
13, 91963, Note_off_c, 4, 79, 64
13, 91980, Note_on_c, 4, 79, 82
13, 91983, Note_off_c, 4, 78, 64
13, 91997, Note_on_c, 4, 78, 66
13, 92018, Note_off_c, 4, 79, 64
13, 92046, Note_off_c, 4, 78, 64
13, 92084, Note_on_c, 4, 79, 68
13, 92118, Note_off_c, 4, 79, 64
13, 92149, Note_on_c, 4, 79, 87
13, 92244, Note_off_c, 4, 79, 64
13, 92268, Note_on_c, 4, 77, 64
13, 92312, Note_off_c, 4, 77, 64
13, 92319, Note_on_c, 4, 76, 66
13, 92370, Note_off_c, 4, 76, 64
13, 92375, Note_on_c, 4, 74, 64
13, 92415, Note_off_c, 4, 74, 64
13, 92432, Note_on_c, 4, 71, 60
13, 92488, Note_off_c, 4, 71, 64
13, 92498, Note_on_c, 4, 72, 58
13, 92542, Note_off_c, 4, 72, 64
13, 92556, Note_on_c, 4, 74, 74
13, 92602, Note_off_c, 4, 74, 64
13, 92622, Note_on_c, 4, 67, 61
13, 92681, Note_off_c, 4, 67, 64
13, 92753, Note_on_c, 4, 79, 80
13, 92796, Note_off_c, 4, 79, 64
13, 92871, Note_on_c, 4, 76, 78
13, 92917, Note_off_c, 4, 76, 64
13, 92994, Note_on_c, 4, 81, 85
13, 93043, Note_off_c, 4, 81, 64
13, 93116, Note_on_c, 4, 77, 95
13, 93175, Note_on_c, 4, 79, 82
13, 93176, Note_off_c, 4, 77, 64
13, 93219, Note_off_c, 4, 79, 64
13, 93236, Note_on_c, 4, 77, 70
13, 93290, Note_off_c, 4, 77, 64
13, 93296, Note_on_c, 4, 76, 66
13, 93354, Note_off_c, 4, 76, 64
13, 93358, Note_on_c, 4, 74, 70
13, 93416, Note_off_c, 4, 74, 64
13, 93418, Note_on_c, 4, 77, 66
13, 93482, Note_on_c, 4, 76, 59
13, 93486, Note_off_c, 4, 77, 64
13, 93537, Note_on_c, 4, 74, 64
13, 93539, Note_off_c, 4, 76, 64
13, 93580, Note_off_c, 4, 74, 64
13, 93603, Note_on_c, 4, 79, 85
13, 93657, Note_on_c, 4, 77, 72
13, 93662, Note_off_c, 4, 79, 64
13, 93719, Note_off_c, 4, 77, 64
13, 93720, Note_on_c, 4, 76, 58
13, 93778, Note_on_c, 4, 74, 59
13, 93785, Note_off_c, 4, 76, 64
13, 93841, Note_off_c, 4, 74, 64
13, 93841, Note_on_c, 4, 72, 59
13, 93882, Note_off_c, 4, 72, 64
13, 93898, Note_on_c, 4, 71, 57
13, 93944, Note_off_c, 4, 71, 64
13, 93958, Note_on_c, 4, 72, 63
13, 94005, Note_off_c, 4, 72, 64
13, 94017, Note_on_c, 4, 69, 57
13, 94062, Note_off_c, 4, 69, 64
13, 94081, Note_on_c, 4, 74, 85
13, 94171, Note_off_c, 4, 74, 64
13, 94192, Note_on_c, 4, 76, 76
13, 94244, Note_off_c, 4, 76, 64
13, 94251, Note_on_c, 4, 78, 60
13, 94299, Note_off_c, 4, 78, 64
13, 94319, Note_on_c, 4, 79, 87
13, 94406, Note_off_c, 4, 79, 64
13, 94437, Note_on_c, 4, 81, 64
13, 94478, Note_off_c, 4, 81, 64
13, 94489, Note_on_c, 4, 83, 80
13, 94529, Note_off_c, 4, 83, 64
13, 94555, Note_on_c, 4, 84, 87
13, 94682, Note_off_c, 4, 84, 64
13, 94728, Note_on_c, 4, 83, 78
13, 94754, Note_off_c, 4, 83, 64
13, 94785, Note_on_c, 4, 83, 85
13, 94809, Note_off_c, 4, 83, 64
13, 94813, Note_on_c, 4, 81, 64
13, 94835, Note_on_c, 4, 83, 80
13, 94844, Note_off_c, 4, 81, 64
13, 94865, Note_on_c, 4, 81, 66
13, 94875, Note_off_c, 4, 83, 64
13, 94928, Note_off_c, 4, 81, 64
13, 94962, Note_on_c, 4, 79, 63
13, 94997, Note_off_c, 4, 79, 64
13, 95032, Note_on_c, 4, 79, 80
13, 95143, Note_off_c, 4, 79, 64
13, 95156, Note_on_c, 4, 77, 68
13, 95207, Note_off_c, 4, 77, 64
13, 95207, Note_on_c, 4, 76, 64
13, 95243, Note_off_c, 4, 76, 64
13, 95268, Note_on_c, 4, 74, 60
13, 95322, Note_off_c, 4, 74, 64
13, 95328, Note_on_c, 4, 76, 64
13, 95378, Note_off_c, 4, 76, 64
13, 95386, Note_on_c, 4, 77, 66
13, 95436, Note_off_c, 4, 77, 64
13, 95443, Note_on_c, 4, 74, 61
13, 95489, Note_off_c, 4, 74, 64
13, 95514, Note_on_c, 4, 76, 80
13, 95563, Note_off_c, 4, 76, 64
13, 95638, Note_on_c, 4, 72, 80
13, 95674, Note_off_c, 4, 72, 64
13, 95758, Note_on_c, 4, 84, 72
13, 95903, Note_off_c, 4, 84, 64
13, 95948, Note_on_c, 4, 84, 76
13, 95979, Note_off_c, 4, 84, 64
13, 96008, Note_on_c, 4, 84, 95
13, 96057, Note_off_c, 4, 84, 64
13, 96063, Note_on_c, 4, 82, 78
13, 96105, Note_off_c, 4, 82, 64
13, 96120, Note_on_c, 4, 84, 68
13, 96164, Note_off_c, 4, 84, 64
13, 96175, Note_on_c, 4, 81, 63
13, 96216, Note_off_c, 4, 81, 64
13, 96238, Note_on_c, 4, 82, 63
13, 96375, Note_off_c, 4, 82, 64
13, 96418, Note_on_c, 4, 82, 66
13, 96447, Note_off_c, 4, 82, 64
13, 96473, Note_on_c, 4, 82, 98
13, 96516, Note_off_c, 4, 82, 64
13, 96602, Note_on_c, 4, 76, 74
13, 96646, Note_off_c, 4, 76, 64
13, 96727, Note_on_c, 4, 81, 82
13, 96874, Note_off_c, 4, 81, 64
13, 96900, Note_on_c, 4, 81, 74
13, 96934, Note_off_c, 4, 81, 64
13, 96962, Note_on_c, 4, 81, 93
13, 97011, Note_off_c, 4, 81, 64
13, 97017, Note_on_c, 4, 79, 64
13, 97062, Note_off_c, 4, 79, 64
13, 97078, Note_on_c, 4, 81, 64
13, 97122, Note_off_c, 4, 81, 64
13, 97128, Note_on_c, 4, 77, 66
13, 97173, Note_off_c, 4, 77, 64
13, 97193, Note_on_c, 4, 79, 72
13, 97327, Note_off_c, 4, 79, 64
13, 97365, Note_on_c, 4, 79, 72
13, 97401, Note_off_c, 4, 79, 64
13, 97424, Note_on_c, 4, 79, 78
13, 97464, Note_off_c, 4, 79, 64
13, 97549, Note_on_c, 4, 72, 68
13, 97596, Note_off_c, 4, 72, 64
13, 97685, Note_on_c, 4, 77, 85
13, 97822, Note_off_c, 4, 77, 64
13, 97870, Note_on_c, 4, 77, 87
13, 97904, Note_off_c, 4, 77, 64
13, 97928, Note_on_c, 4, 77, 91
13, 97987, Note_on_c, 4, 81, 87
13, 97990, Note_off_c, 4, 77, 64
13, 98034, Note_off_c, 4, 81, 64
13, 98046, Note_on_c, 4, 79, 76
13, 98093, Note_off_c, 4, 79, 64
13, 98098, Note_on_c, 4, 77, 78
13, 98158, Note_on_c, 4, 76, 66
13, 98185, Note_off_c, 4, 77, 64
13, 98214, Note_off_c, 4, 76, 64
13, 98214, Note_on_c, 4, 74, 64
13, 98255, Note_off_c, 4, 74, 64
13, 98266, Note_on_c, 4, 72, 66
13, 98326, Note_on_c, 4, 71, 61
13, 98332, Note_off_c, 4, 72, 64
13, 98376, Note_off_c, 4, 71, 64
13, 98392, Note_on_c, 4, 72, 68
13, 98449, Note_on_c, 4, 76, 53
13, 98450, Note_off_c, 4, 72, 64
13, 98501, Note_off_c, 4, 76, 64
13, 98513, Note_on_c, 4, 81, 78
13, 98569, Note_on_c, 4, 79, 76
13, 98570, Note_off_c, 4, 81, 64
13, 98620, Note_off_c, 4, 79, 64
13, 98630, Note_on_c, 4, 77, 60
13, 98689, Note_on_c, 4, 76, 60
13, 98695, Note_off_c, 4, 77, 64
13, 98751, Note_off_c, 4, 76, 64
13, 98754, Note_on_c, 4, 74, 62
13, 98808, Note_on_c, 4, 72, 53
13, 98810, Note_off_c, 4, 74, 64
13, 98855, Note_off_c, 4, 72, 64
13, 98873, Note_on_c, 4, 71, 85
13, 98936, Note_on_c, 4, 69, 63
13, 98938, Note_off_c, 4, 71, 64
13, 98980, Note_off_c, 4, 69, 64
13, 98989, Note_on_c, 4, 67, 58
13, 99039, Note_off_c, 4, 67, 64
13, 99048, Note_on_c, 4, 69, 64
13, 99093, Note_off_c, 4, 69, 64
13, 99111, Note_on_c, 4, 71, 82
13, 99155, Note_off_c, 4, 71, 64
13, 99167, Note_on_c, 4, 69, 53
13, 99221, Note_off_c, 4, 69, 64
13, 99230, Note_on_c, 4, 71, 58
13, 99275, Note_off_c, 4, 71, 64
13, 99290, Note_on_c, 4, 67, 56
13, 99328, Note_off_c, 4, 67, 64
13, 99351, Note_on_c, 4, 72, 78
13, 99491, Note_off_c, 4, 72, 64
13, 99530, Note_on_c, 4, 74, 70
13, 99557, Note_off_c, 4, 74, 64
13, 99594, Note_on_c, 4, 72, 91
13, 99621, Note_off_c, 4, 72, 64
13, 99621, Note_on_c, 4, 71, 82
13, 99644, Note_on_c, 4, 72, 78
13, 99649, Note_off_c, 4, 71, 64
13, 99675, Note_on_c, 4, 71, 72
13, 99684, Note_off_c, 4, 72, 64
13, 99728, Note_off_c, 4, 71, 64
13, 99771, Note_on_c, 4, 72, 78
13, 99805, Note_off_c, 4, 72, 64
13, 99833, Note_on_c, 4, 72, 85
13, 99932, Note_off_c, 4, 72, 64
13, 110700, Note_on_c, 4, 72, 87
13, 110737, Note_off_c, 4, 72, 64
13, 110754, Note_on_c, 4, 70, 78
13, 110794, Note_off_c, 4, 70, 64
13, 110813, Note_on_c, 4, 69, 80
13, 110855, Note_off_c, 4, 69, 64
13, 110881, Note_on_c, 4, 67, 85
13, 111250, Note_off_c, 4, 67, 64
13, 111302, Note_on_c, 4, 69, 68
13, 111345, Note_off_c, 4, 69, 64
13, 111361, Note_on_c, 4, 70, 80
13, 111453, Note_off_c, 4, 70, 64
13, 111540, Note_on_c, 4, 70, 70
13, 111589, Note_off_c, 4, 70, 64
13, 111598, Note_on_c, 4, 72, 82
13, 111687, Note_off_c, 4, 72, 64
13, 111776, Note_on_c, 4, 74, 91
13, 111819, Note_off_c, 4, 74, 64
13, 111835, Note_on_c, 4, 67, 85
13, 111943, Note_off_c, 4, 67, 64
13, 112016, Note_on_c, 4, 67, 82
13, 112062, Note_off_c, 4, 67, 64
13, 112080, Note_on_c, 4, 69, 89
13, 112191, Note_off_c, 4, 69, 64
13, 112256, Note_on_c, 4, 70, 68
13, 112300, Note_off_c, 4, 70, 64
13, 112315, Note_on_c, 4, 69, 78
13, 112575, Note_off_c, 4, 69, 64
13, 112610, Note_on_c, 4, 69, 80
13, 112657, Note_off_c, 4, 69, 64
13, 112673, Note_on_c, 4, 71, 80
13, 112716, Note_off_c, 4, 71, 64
13, 112729, Note_on_c, 4, 73, 66
13, 112774, Note_off_c, 4, 73, 64
13, 112790, Note_on_c, 4, 74, 80
13, 112838, Note_off_c, 4, 74, 64
13, 112851, Note_on_c, 4, 73, 80
13, 112890, Note_off_c, 4, 73, 64
13, 112911, Note_on_c, 4, 74, 80
13, 112954, Note_off_c, 4, 74, 64
13, 112969, Note_on_c, 4, 76, 80
13, 113012, Note_off_c, 4, 76, 64
13, 113029, Note_on_c, 4, 77, 85
13, 113074, Note_off_c, 4, 77, 64
13, 113086, Note_on_c, 4, 76, 85
13, 113134, Note_off_c, 4, 76, 64
13, 113148, Note_on_c, 4, 77, 87
13, 113187, Note_off_c, 4, 77, 64
13, 113205, Note_on_c, 4, 74, 72
13, 113253, Note_off_c, 4, 74, 64
13, 113279, Note_on_c, 4, 79, 87
13, 113639, Note_off_c, 4, 79, 64
13, 113692, Note_on_c, 4, 79, 82
13, 113732, Note_off_c, 4, 79, 64
13, 113760, Note_on_c, 4, 79, 70
13, 113884, Note_off_c, 4, 79, 64
13, 113942, Note_on_c, 4, 81, 82
13, 113964, Note_on_c, 4, 82, 70
13, 113970, Note_off_c, 4, 81, 64
13, 113994, Note_off_c, 4, 82, 64
13, 113999, Note_on_c, 4, 81, 82
13, 114112, Note_off_c, 4, 81, 64
13, 114174, Note_on_c, 4, 79, 70
13, 114192, Note_on_c, 4, 77, 63
13, 114202, Note_off_c, 4, 79, 64
13, 114211, Note_on_c, 4, 76, 72
13, 114220, Note_off_c, 4, 77, 64
13, 114238, Note_off_c, 4, 76, 64
13, 114247, Note_on_c, 4, 77, 74
13, 114359, Note_off_c, 4, 77, 64
13, 114420, Note_on_c, 4, 74, 82
13, 114459, Note_off_c, 4, 74, 64
13, 114477, Note_on_c, 4, 77, 87
13, 114581, Note_off_c, 4, 77, 64
13, 114661, Note_on_c, 4, 81, 80
13, 114693, Note_off_c, 4, 81, 64
13, 114716, Note_on_c, 4, 79, 89
13, 114783, Note_on_c, 4, 78, 63
13, 114792, Note_off_c, 4, 79, 64
13, 114821, Note_on_c, 4, 79, 62
13, 114824, Note_off_c, 4, 78, 64
13, 114852, Note_on_c, 4, 78, 63
13, 114859, Note_off_c, 4, 79, 64
13, 114878, Note_off_c, 4, 78, 64
13, 114878, Note_on_c, 4, 79, 68
13, 114904, Note_on_c, 4, 78, 66
13, 114910, Note_off_c, 4, 79, 64
13, 114923, Note_off_c, 4, 78, 64
13, 114928, Note_on_c, 4, 79, 57
13, 114946, Note_on_c, 4, 78, 63
13, 114952, Note_off_c, 4, 79, 64
13, 114966, Note_off_c, 4, 78, 64
13, 114969, Note_on_c, 4, 79, 63
13, 114989, Note_on_c, 4, 78, 78
13, 114994, Note_off_c, 4, 79, 64
13, 115009, Note_off_c, 4, 78, 64
13, 115013, Note_on_c, 4, 79, 61
13, 115032, Note_on_c, 4, 78, 68
13, 115041, Note_off_c, 4, 79, 64
13, 115051, Note_off_c, 4, 78, 64
13, 115053, Note_on_c, 4, 79, 62
13, 115072, Note_on_c, 4, 78, 57
13, 115079, Note_off_c, 4, 79, 64
13, 115089, Note_off_c, 4, 78, 64
13, 115090, Note_on_c, 4, 79, 72
13, 115106, Note_on_c, 4, 78, 63
13, 115115, Note_off_c, 4, 79, 64
13, 115135, Note_off_c, 4, 78, 64
13, 115135, Note_on_c, 4, 76, 70
13, 115158, Note_on_c, 4, 78, 82
13, 115169, Note_off_c, 4, 76, 64
13, 115187, Note_off_c, 4, 78, 64
13, 115199, Note_on_c, 4, 79, 87
13, 115681, Note_off_c, 4, 79, 64
13, 115737, Note_on_c, 4, 81, 82
13, 115783, Note_off_c, 4, 81, 64
13, 115793, Note_on_c, 4, 79, 76
13, 115836, Note_off_c, 4, 79, 64
13, 115850, Note_on_c, 4, 77, 82
13, 115886, Note_off_c, 4, 77, 64
13, 115909, Note_on_c, 4, 76, 76
13, 115945, Note_off_c, 4, 76, 64
13, 115961, Note_on_c, 4, 74, 70
13, 116007, Note_off_c, 4, 74, 64
13, 116025, Note_on_c, 4, 76, 80
13, 116068, Note_off_c, 4, 76, 64
13, 116087, Note_on_c, 4, 72, 78
13, 116136, Note_off_c, 4, 72, 64
13, 116161, Note_on_c, 4, 81, 82
13, 116641, Note_off_c, 4, 81, 64
13, 116688, Note_on_c, 4, 79, 89
13, 116735, Note_off_c, 4, 79, 64
13, 116749, Note_on_c, 4, 81, 80
13, 116794, Note_off_c, 4, 81, 64
13, 116807, Note_on_c, 4, 83, 85
13, 116855, Note_off_c, 4, 83, 64
13, 116868, Note_on_c, 4, 84, 80
13, 116911, Note_off_c, 4, 84, 64
13, 116927, Note_on_c, 4, 81, 64
13, 116970, Note_off_c, 4, 81, 64
13, 116984, Note_on_c, 4, 83, 68
13, 117020, Note_off_c, 4, 83, 64
13, 117039, Note_on_c, 4, 84, 70
13, 117079, Note_off_c, 4, 84, 64
13, 117105, Note_on_c, 4, 77, 80
13, 117149, Note_off_c, 4, 77, 64
13, 117162, Note_on_c, 4, 76, 78
13, 117217, Note_off_c, 4, 76, 64
13, 117231, Note_on_c, 4, 77, 78
13, 117277, Note_off_c, 4, 77, 64
13, 117292, Note_on_c, 4, 79, 74
13, 117335, Note_off_c, 4, 79, 64
13, 117349, Note_on_c, 4, 81, 74
13, 117388, Note_off_c, 4, 81, 64
13, 117409, Note_on_c, 4, 77, 66
13, 117451, Note_off_c, 4, 77, 64
13, 117470, Note_on_c, 4, 79, 74
13, 117509, Note_off_c, 4, 79, 64
13, 117524, Note_on_c, 4, 81, 85
13, 117568, Note_off_c, 4, 81, 64
13, 117595, Note_on_c, 4, 71, 66
13, 117964, Note_off_c, 4, 71, 64
13, 118013, Note_on_c, 4, 72, 82
13, 118051, Note_off_c, 4, 72, 64
13, 118078, Note_on_c, 4, 74, 85
13, 118121, Note_off_c, 4, 74, 64
13, 118137, Note_on_c, 4, 71, 76
13, 118177, Note_off_c, 4, 71, 64
13, 118197, Note_on_c, 4, 67, 70
13, 118242, Note_off_c, 4, 67, 64
13, 118257, Note_on_c, 4, 69, 66
13, 118293, Note_off_c, 4, 69, 64
13, 118314, Note_on_c, 4, 71, 66
13, 118354, Note_off_c, 4, 71, 64
13, 118373, Note_on_c, 4, 72, 72
13, 118412, Note_off_c, 4, 72, 64
13, 118433, Note_on_c, 4, 74, 53
13, 118476, Note_off_c, 4, 74, 64
13, 118489, Note_on_c, 4, 76, 80
13, 118532, Note_off_c, 4, 76, 64
13, 118553, Note_on_c, 4, 77, 82
13, 118913, Note_off_c, 4, 77, 64
13, 118977, Note_on_c, 4, 77, 80
13, 119019, Note_off_c, 4, 77, 64
13, 119036, Note_on_c, 4, 77, 85
13, 119142, Note_off_c, 4, 77, 64
13, 119214, Note_on_c, 4, 76, 63
13, 119235, Note_on_c, 4, 74, 82
13, 119246, Note_off_c, 4, 76, 64
13, 119267, Note_off_c, 4, 74, 64
13, 119275, Note_on_c, 4, 76, 85
13, 119374, Note_off_c, 4, 76, 64
13, 119456, Note_on_c, 4, 77, 78
13, 119479, Note_on_c, 4, 79, 61
13, 119484, Note_off_c, 4, 77, 64
13, 119511, Note_off_c, 4, 79, 64
13, 119518, Note_on_c, 4, 70, 78
13, 119864, Note_off_c, 4, 70, 64
13, 119934, Note_on_c, 4, 70, 72
13, 119975, Note_off_c, 4, 70, 64
13, 119991, Note_on_c, 4, 70, 82
13, 120094, Note_off_c, 4, 70, 64
13, 120176, Note_on_c, 4, 69, 61
13, 120200, Note_on_c, 4, 67, 70
13, 120209, Note_off_c, 4, 69, 64
13, 120230, Note_off_c, 4, 67, 64
13, 120240, Note_on_c, 4, 69, 87
13, 120338, Note_off_c, 4, 69, 64
13, 120427, Note_on_c, 4, 71, 78
13, 120464, Note_off_c, 4, 71, 64
13, 120485, Note_on_c, 4, 72, 87
13, 120839, Note_off_c, 4, 72, 64
13, 120900, Note_on_c, 4, 72, 85
13, 120939, Note_off_c, 4, 72, 64
13, 120954, Note_on_c, 4, 72, 80
13, 121070, Note_off_c, 4, 72, 64
13, 121125, Note_on_c, 4, 71, 68
13, 121151, Note_on_c, 4, 69, 78
13, 121160, Note_off_c, 4, 71, 64
13, 121182, Note_off_c, 4, 69, 64
13, 121191, Note_on_c, 4, 77, 91
13, 121284, Note_off_c, 4, 77, 64
13, 121368, Note_on_c, 4, 76, 60
13, 121390, Note_on_c, 4, 74, 66
13, 121403, Note_off_c, 4, 76, 64
13, 121422, Note_off_c, 4, 74, 64
13, 121430, Note_on_c, 4, 83, 87
13, 121526, Note_off_c, 4, 83, 64
13, 121615, Note_on_c, 4, 81, 63
13, 121635, Note_on_c, 4, 79, 74
13, 121649, Note_off_c, 4, 81, 64
13, 121667, Note_off_c, 4, 79, 64
13, 121676, Note_on_c, 4, 86, 91
13, 121774, Note_off_c, 4, 86, 64
13, 121854, Note_on_c, 4, 77, 76
13, 121891, Note_off_c, 4, 77, 64
13, 121915, Note_on_c, 4, 77, 74
13, 122198, Note_off_c, 4, 77, 64
13, 122219, Note_on_c, 4, 81, 80
13, 122257, Note_off_c, 4, 81, 64
13, 122276, Note_on_c, 4, 79, 78
13, 122328, Note_off_c, 4, 79, 64
13, 122335, Note_on_c, 4, 77, 78
13, 122368, Note_off_c, 4, 77, 64
13, 122393, Note_on_c, 4, 76, 68
13, 122438, Note_off_c, 4, 76, 64
13, 122454, Note_on_c, 4, 72, 72
13, 122495, Note_off_c, 4, 72, 64
13, 122513, Note_on_c, 4, 74, 72
13, 122553, Note_off_c, 4, 74, 64
13, 122571, Note_on_c, 4, 76, 74
13, 122610, Note_off_c, 4, 76, 64
13, 122631, Note_on_c, 4, 77, 82
13, 122680, Note_off_c, 4, 77, 64
13, 122695, Note_on_c, 4, 79, 80
13, 122732, Note_off_c, 4, 79, 64
13, 122752, Note_on_c, 4, 81, 66
13, 122792, Note_off_c, 4, 81, 64
13, 122813, Note_on_c, 4, 82, 72
13, 122857, Note_off_c, 4, 82, 64
13, 122875, Note_on_c, 4, 81, 82
13, 122920, Note_off_c, 4, 81, 64
13, 122937, Note_on_c, 4, 79, 76
13, 122981, Note_off_c, 4, 79, 64
13, 122994, Note_on_c, 4, 77, 72
13, 123028, Note_off_c, 4, 77, 64
13, 123050, Note_on_c, 4, 76, 70
13, 123094, Note_off_c, 4, 76, 64
13, 123111, Note_on_c, 4, 77, 80
13, 123155, Note_off_c, 4, 77, 64
13, 123168, Note_on_c, 4, 74, 80
13, 123210, Note_off_c, 4, 74, 64
13, 123230, Note_on_c, 4, 76, 78
13, 123266, Note_off_c, 4, 76, 64
13, 123291, Note_on_c, 4, 77, 80
13, 123339, Note_off_c, 4, 77, 64
13, 123359, Note_on_c, 4, 67, 66
13, 123669, Note_off_c, 4, 67, 64
13, 123709, Note_on_c, 4, 69, 63
13, 123734, Note_on_c, 4, 71, 72
13, 123752, Note_off_c, 4, 69, 64
13, 123765, Note_off_c, 4, 71, 64
13, 123770, Note_on_c, 4, 72, 68
13, 123793, Note_on_c, 4, 74, 70
13, 123804, Note_off_c, 4, 72, 64
13, 123814, Note_on_c, 4, 76, 80
13, 123825, Note_off_c, 4, 74, 64
13, 123839, Note_on_c, 4, 77, 85
13, 123842, Note_off_c, 4, 76, 64
13, 123927, Note_off_c, 4, 77, 64
13, 124925, Note_on_c, 4, 79, 82
13, 124959, Note_off_c, 4, 79, 64
13, 125039, Note_on_c, 4, 79, 80
13, 125077, Note_off_c, 4, 79, 64
13, 125158, Note_on_c, 4, 79, 80
13, 125195, Note_off_c, 4, 79, 64
13, 125275, Note_on_c, 4, 76, 66
13, 125389, Note_off_c, 4, 76, 64
13, 125389, Note_on_c, 4, 77, 66
13, 125437, Note_on_c, 4, 79, 68
13, 125438, Note_off_c, 4, 77, 64
13, 125489, Note_off_c, 4, 79, 64
13, 125504, Note_on_c, 4, 81, 68
13, 125537, Note_off_c, 4, 81, 64
13, 125629, Note_on_c, 4, 77, 76
13, 125667, Note_off_c, 4, 77, 64
13, 125755, Note_on_c, 4, 74, 70
13, 125793, Note_off_c, 4, 74, 64
13, 125874, Note_on_c, 4, 79, 85
13, 125917, Note_off_c, 4, 79, 64
13, 125996, Note_on_c, 4, 67, 68
13, 126047, Note_off_c, 4, 67, 64
13, 126120, Note_on_c, 4, 77, 82
13, 126165, Note_off_c, 4, 77, 64
13, 126237, Note_on_c, 4, 76, 74
13, 126288, Note_on_c, 4, 74, 66
13, 126297, Note_off_c, 4, 76, 64
13, 126348, Note_off_c, 4, 74, 64
13, 126355, Note_on_c, 4, 72, 63
13, 126414, Note_on_c, 4, 74, 72
13, 126424, Note_off_c, 4, 72, 64
13, 126474, Note_off_c, 4, 74, 64
13, 126478, Note_on_c, 4, 76, 62
13, 126525, Note_off_c, 4, 76, 64
13, 126530, Note_on_c, 4, 74, 64
13, 126591, Note_off_c, 4, 74, 64
13, 126592, Note_on_c, 4, 76, 59
13, 126644, Note_on_c, 4, 78, 55
13, 126652, Note_off_c, 4, 76, 64
13, 126693, Note_off_c, 4, 78, 64
13, 126715, Note_on_c, 4, 79, 74
13, 126812, Note_off_c, 4, 79, 64
13, 126898, Note_on_c, 4, 74, 57
13, 126930, Note_off_c, 4, 74, 64
13, 126958, Note_on_c, 4, 79, 85
13, 127067, Note_off_c, 4, 79, 64
13, 127132, Note_on_c, 4, 79, 70
13, 127163, Note_off_c, 4, 79, 64
13, 127193, Note_on_c, 4, 79, 85
13, 127300, Note_off_c, 4, 79, 64
13, 127350, Note_on_c, 4, 78, 64
13, 127388, Note_on_c, 4, 76, 66
13, 127389, Note_off_c, 4, 78, 64
13, 127416, Note_on_c, 4, 78, 53
13, 127429, Note_off_c, 4, 76, 64
13, 127439, Note_off_c, 4, 78, 64
13, 127444, Note_on_c, 4, 79, 61
13, 127475, Note_on_c, 4, 78, 64
13, 127480, Note_off_c, 4, 79, 64
13, 127503, Note_off_c, 4, 78, 64
13, 127504, Note_on_c, 4, 79, 72
13, 127533, Note_on_c, 4, 78, 58
13, 127549, Note_off_c, 4, 79, 64
13, 127579, Note_off_c, 4, 78, 64
13, 127609, Note_on_c, 4, 79, 72
13, 127640, Note_off_c, 4, 79, 64
13, 127667, Note_on_c, 4, 79, 87
13, 127773, Note_off_c, 4, 79, 64
13, 127794, Note_on_c, 4, 77, 64
13, 127849, Note_off_c, 4, 77, 64
13, 127849, Note_on_c, 4, 76, 61
13, 127891, Note_off_c, 4, 76, 64
13, 127904, Note_on_c, 4, 74, 62
13, 127960, Note_on_c, 4, 71, 78
13, 127963, Note_off_c, 4, 74, 64
13, 128016, Note_off_c, 4, 71, 64
13, 128016, Note_on_c, 4, 72, 55
13, 128065, Note_off_c, 4, 72, 64
13, 128075, Note_on_c, 4, 74, 66
13, 128122, Note_off_c, 4, 74, 64
13, 128148, Note_on_c, 4, 67, 63
13, 128188, Note_off_c, 4, 67, 64
13, 128270, Note_on_c, 4, 79, 74
13, 128306, Note_off_c, 4, 79, 64
13, 128397, Note_on_c, 4, 76, 70
13, 128433, Note_off_c, 4, 76, 64
13, 128520, Note_on_c, 4, 81, 82
13, 128564, Note_off_c, 4, 81, 64
13, 128640, Note_on_c, 4, 77, 82
13, 128696, Note_on_c, 4, 79, 68
13, 128701, Note_off_c, 4, 77, 64
13, 128749, Note_off_c, 4, 79, 64
13, 128750, Note_on_c, 4, 77, 59
13, 128810, Note_on_c, 4, 76, 51
13, 128813, Note_off_c, 4, 77, 64
13, 128866, Note_off_c, 4, 76, 64
13, 128872, Note_on_c, 4, 74, 61
13, 128928, Note_off_c, 4, 74, 64
13, 128928, Note_on_c, 4, 77, 59
13, 128992, Note_on_c, 4, 76, 51
13, 128993, Note_off_c, 4, 77, 64
13, 129045, Note_off_c, 4, 76, 64
13, 129049, Note_on_c, 4, 74, 62
13, 129097, Note_off_c, 4, 74, 64
13, 129118, Note_on_c, 4, 79, 82
13, 129166, Note_on_c, 4, 77, 68
13, 129181, Note_off_c, 4, 79, 64
13, 129226, Note_off_c, 4, 77, 64
13, 129233, Note_on_c, 4, 76, 53
13, 129285, Note_on_c, 4, 74, 56
13, 129294, Note_off_c, 4, 76, 64
13, 129346, Note_off_c, 4, 74, 64
13, 129352, Note_on_c, 4, 72, 60
13, 129405, Note_on_c, 4, 71, 51
13, 129406, Note_off_c, 4, 72, 64
13, 129458, Note_off_c, 4, 71, 64
13, 129469, Note_on_c, 4, 72, 54
13, 129511, Note_off_c, 4, 72, 64
13, 129526, Note_on_c, 4, 69, 60
13, 129568, Note_off_c, 4, 69, 64
13, 129590, Note_on_c, 4, 74, 78
13, 129695, Note_off_c, 4, 74, 64
13, 129711, Note_on_c, 4, 76, 59
13, 129759, Note_off_c, 4, 76, 64
13, 129766, Note_on_c, 4, 78, 59
13, 129807, Note_off_c, 4, 78, 64
13, 129829, Note_on_c, 4, 79, 89
13, 129921, Note_off_c, 4, 79, 64
13, 129957, Note_on_c, 4, 81, 63
13, 129999, Note_off_c, 4, 81, 64
13, 130005, Note_on_c, 4, 83, 60
13, 130047, Note_off_c, 4, 83, 64
13, 130073, Note_on_c, 4, 84, 82
13, 130187, Note_off_c, 4, 84, 64
13, 130257, Note_on_c, 4, 83, 72
13, 130282, Note_off_c, 4, 83, 64
13, 130314, Note_on_c, 4, 83, 87
13, 130342, Note_off_c, 4, 83, 64
13, 130343, Note_on_c, 4, 81, 66
13, 130367, Note_on_c, 4, 83, 72
13, 130371, Note_off_c, 4, 81, 64
13, 130397, Note_on_c, 4, 81, 64
13, 130404, Note_off_c, 4, 83, 64
13, 130463, Note_off_c, 4, 81, 64
13, 130477, Note_on_c, 4, 79, 74
13, 130512, Note_off_c, 4, 79, 64
13, 130551, Note_on_c, 4, 79, 85
13, 130675, Note_off_c, 4, 79, 64
13, 130687, Note_on_c, 4, 77, 63
13, 130729, Note_off_c, 4, 77, 64
13, 130735, Note_on_c, 4, 76, 53
13, 130776, Note_off_c, 4, 76, 64
13, 130795, Note_on_c, 4, 74, 54
13, 130848, Note_on_c, 4, 76, 62
13, 130854, Note_off_c, 4, 74, 64
13, 130908, Note_off_c, 4, 76, 64
13, 130908, Note_on_c, 4, 77, 68
13, 130952, Note_off_c, 4, 77, 64
13, 130968, Note_on_c, 4, 74, 62
13, 131013, Note_off_c, 4, 74, 64
13, 131032, Note_on_c, 4, 76, 70
13, 131084, Note_off_c, 4, 76, 64
13, 131088, Note_on_c, 4, 79, 62
13, 131147, Note_off_c, 4, 79, 64
13, 131152, Note_on_c, 4, 77, 52
13, 131209, Note_on_c, 4, 79, 58
13, 131212, Note_off_c, 4, 77, 64
13, 131259, Note_off_c, 4, 79, 64
13, 131275, Note_on_c, 4, 81, 80
13, 131328, Note_on_c, 4, 79, 64
13, 131336, Note_off_c, 4, 81, 64
13, 131386, Note_off_c, 4, 79, 64
13, 131387, Note_on_c, 4, 77, 59
13, 131444, Note_on_c, 4, 76, 60
13, 131447, Note_off_c, 4, 77, 64
13, 131489, Note_off_c, 4, 76, 64
13, 131506, Note_on_c, 4, 74, 72
13, 131565, Note_on_c, 4, 77, 64
13, 131568, Note_off_c, 4, 74, 64
13, 131624, Note_off_c, 4, 77, 64
13, 131628, Note_on_c, 4, 76, 44
13, 131688, Note_on_c, 4, 77, 54
13, 131691, Note_off_c, 4, 76, 64
13, 131749, Note_off_c, 4, 77, 64
13, 131756, Note_on_c, 4, 79, 72
13, 131807, Note_on_c, 4, 77, 62
13, 131811, Note_off_c, 4, 79, 64
13, 131869, Note_off_c, 4, 77, 64
13, 131871, Note_on_c, 4, 76, 57
13, 131930, Note_on_c, 4, 74, 57
13, 131934, Note_off_c, 4, 76, 64
13, 131985, Note_off_c, 4, 74, 64
13, 131996, Note_on_c, 4, 72, 60
13, 132040, Note_off_c, 4, 72, 64
13, 132054, Note_on_c, 4, 76, 63
13, 132113, Note_on_c, 4, 74, 55
13, 132118, Note_off_c, 4, 76, 64
13, 132172, Note_on_c, 4, 76, 60
13, 132177, Note_off_c, 4, 74, 64
13, 132221, Note_off_c, 4, 76, 64
13, 132236, Note_on_c, 4, 77, 78
13, 132288, Note_on_c, 4, 76, 66
13, 132297, Note_off_c, 4, 77, 64
13, 132350, Note_on_c, 4, 74, 57
13, 132355, Note_off_c, 4, 76, 64
13, 132411, Note_off_c, 4, 74, 64
13, 132414, Note_on_c, 4, 72, 57
13, 132465, Note_off_c, 4, 72, 64
13, 132479, Note_on_c, 4, 71, 60
13, 132530, Note_off_c, 4, 71, 64
13, 132532, Note_on_c, 4, 74, 68
13, 132590, Note_on_c, 4, 72, 48
13, 132599, Note_off_c, 4, 74, 64
13, 132654, Note_on_c, 4, 74, 59
13, 132660, Note_off_c, 4, 72, 64
13, 132706, Note_off_c, 4, 74, 64
13, 132717, Note_on_c, 4, 76, 68
13, 132768, Note_on_c, 4, 74, 68
13, 132773, Note_off_c, 4, 76, 64
13, 132832, Note_on_c, 4, 72, 59
13, 132836, Note_off_c, 4, 74, 64
13, 132888, Note_on_c, 4, 71, 55
13, 132890, Note_off_c, 4, 72, 64
13, 132949, Note_off_c, 4, 71, 64
13, 132955, Note_on_c, 4, 69, 64
13, 133006, Note_off_c, 4, 69, 64
13, 133013, Note_on_c, 4, 72, 58
13, 133071, Note_off_c, 4, 72, 64
13, 133075, Note_on_c, 4, 71, 36
13, 133131, Note_on_c, 4, 72, 60
13, 133139, Note_off_c, 4, 71, 64
13, 133182, Note_off_c, 4, 72, 64
13, 133191, Note_on_c, 4, 74, 55
13, 133239, Note_on_c, 4, 72, 63
13, 133259, Note_off_c, 4, 74, 64
13, 133308, Note_on_c, 4, 71, 58
13, 133309, Note_off_c, 4, 72, 64
13, 133352, Note_off_c, 4, 71, 64
13, 133362, Note_on_c, 4, 69, 64
13, 133417, Note_off_c, 4, 69, 64
13, 133427, Note_on_c, 4, 71, 70
13, 133466, Note_off_c, 4, 71, 64
13, 133555, Note_on_c, 4, 79, 82
13, 133594, Note_off_c, 4, 79, 64
13, 133682, Note_on_c, 4, 79, 87
13, 133722, Note_off_c, 4, 79, 64
13, 133809, Note_on_c, 4, 79, 85
13, 133848, Note_off_c, 4, 79, 64
13, 133927, Note_on_c, 4, 76, 85
13, 134037, Note_off_c, 4, 76, 64
13, 134050, Note_on_c, 4, 77, 82
13, 134101, Note_off_c, 4, 77, 64
13, 134105, Note_on_c, 4, 79, 72
13, 134151, Note_off_c, 4, 79, 64
13, 134165, Note_on_c, 4, 81, 80
13, 134204, Note_off_c, 4, 81, 64
13, 134280, Note_on_c, 4, 77, 76
13, 134321, Note_off_c, 4, 77, 64
13, 134392, Note_on_c, 4, 74, 78
13, 134430, Note_off_c, 4, 74, 64
13, 134510, Note_on_c, 4, 79, 74
13, 134553, Note_off_c, 4, 79, 64
13, 134630, Note_on_c, 4, 67, 72
13, 134682, Note_off_c, 4, 67, 64
13, 134753, Note_on_c, 4, 77, 82
13, 134796, Note_off_c, 4, 77, 64
13, 134877, Note_on_c, 4, 76, 80
13, 135017, Note_off_c, 4, 76, 64
13, 135059, Note_on_c, 4, 74, 63
13, 135090, Note_off_c, 4, 74, 64
13, 135118, Note_on_c, 4, 76, 78
13, 135146, Note_on_c, 4, 74, 63
13, 135149, Note_off_c, 4, 76, 64
13, 135169, Note_on_c, 4, 76, 60
13, 135170, Note_off_c, 4, 74, 64
13, 135193, Note_on_c, 4, 74, 70
13, 135207, Note_off_c, 4, 76, 64
13, 135263, Note_off_c, 4, 74, 64
13, 135293, Note_on_c, 4, 72, 64
13, 135328, Note_off_c, 4, 72, 64
13, 135362, Note_on_c, 4, 72, 72
13, 135528, Note_off_c, 4, 72, 64
13, 136069, Note_on_c, 4, 81, 60
13, 136554, Note_on_c, 4, 80, 48
13, 136555, Note_off_c, 4, 81, 64
13, 136776, Note_off_c, 4, 80, 64
13, 136796, Note_on_c, 4, 81, 57
13, 136863, Note_off_c, 4, 81, 64
13, 136913, Note_on_c, 4, 76, 61
13, 136948, Note_off_c, 4, 76, 64
13, 137038, Note_on_c, 4, 76, 80
13, 137076, Note_off_c, 4, 76, 64
13, 137159, Note_on_c, 4, 76, 72
13, 137202, Note_off_c, 4, 76, 64
13, 137280, Note_on_c, 4, 72, 78
13, 137391, Note_off_c, 4, 72, 64
13, 137405, Note_on_c, 4, 74, 72
13, 137452, Note_on_c, 4, 76, 68
13, 137454, Note_off_c, 4, 74, 64
13, 137499, Note_off_c, 4, 76, 64
13, 137513, Note_on_c, 4, 77, 70
13, 137554, Note_off_c, 4, 77, 64
13, 137638, Note_on_c, 4, 74, 80
13, 137685, Note_off_c, 4, 74, 64
13, 137755, Note_on_c, 4, 71, 68
13, 137802, Note_off_c, 4, 71, 64
13, 137875, Note_on_c, 4, 76, 76
13, 137913, Note_off_c, 4, 76, 64
13, 137996, Note_on_c, 4, 64, 68
13, 138044, Note_off_c, 4, 64, 64
13, 138113, Note_on_c, 4, 74, 80
13, 138159, Note_off_c, 4, 74, 64
13, 138228, Note_on_c, 4, 72, 72
13, 138278, Note_on_c, 4, 71, 59
13, 138287, Note_off_c, 4, 72, 64
13, 138345, Note_off_c, 4, 71, 64
13, 138348, Note_on_c, 4, 69, 58
13, 138405, Note_on_c, 4, 71, 55
13, 138416, Note_off_c, 4, 69, 64
13, 138471, Note_off_c, 4, 71, 64
13, 138473, Note_on_c, 4, 72, 62
13, 138522, Note_off_c, 4, 72, 64
13, 138528, Note_on_c, 4, 71, 60
13, 138590, Note_off_c, 4, 71, 64
13, 138592, Note_on_c, 4, 72, 58
13, 138647, Note_off_c, 4, 72, 64
13, 138647, Note_on_c, 4, 74, 60
13, 138704, Note_off_c, 4, 74, 64
13, 138708, Note_on_c, 4, 71, 66
13, 138763, Note_on_c, 4, 74, 60
13, 138764, Note_off_c, 4, 71, 64
13, 138818, Note_off_c, 4, 74, 64
13, 138829, Note_on_c, 4, 72, 57
13, 138883, Note_on_c, 4, 74, 64
13, 138888, Note_off_c, 4, 72, 64
13, 138945, Note_on_c, 4, 76, 68
13, 138947, Note_off_c, 4, 74, 64
13, 139003, Note_on_c, 4, 79, 68
13, 139006, Note_off_c, 4, 76, 64
13, 139063, Note_on_c, 4, 78, 55
13, 139067, Note_off_c, 4, 79, 64
13, 139128, Note_off_c, 4, 78, 64
13, 139128, Note_on_c, 4, 79, 68
13, 139178, Note_off_c, 4, 79, 64
13, 139192, Note_on_c, 4, 81, 62
13, 139244, Note_on_c, 4, 79, 59
13, 139254, Note_off_c, 4, 81, 64
13, 139296, Note_off_c, 4, 79, 64
13, 139301, Note_on_c, 4, 78, 54
13, 139354, Note_on_c, 4, 79, 61
13, 139361, Note_off_c, 4, 78, 64
13, 139416, Note_on_c, 4, 81, 66
13, 139419, Note_off_c, 4, 79, 64
13, 139468, Note_off_c, 4, 81, 64
13, 139470, Note_on_c, 4, 83, 82
13, 139533, Note_on_c, 4, 80, 64
13, 139538, Note_off_c, 4, 83, 64
13, 139602, Note_on_c, 4, 81, 72
13, 139608, Note_off_c, 4, 80, 64
13, 139654, Note_off_c, 4, 81, 64
13, 139670, Note_on_c, 4, 83, 70
13, 139727, Note_on_c, 4, 81, 63
13, 139735, Note_off_c, 4, 83, 64
13, 139787, Note_off_c, 4, 81, 64
13, 139787, Note_on_c, 4, 80, 57
13, 139849, Note_on_c, 4, 78, 48
13, 139851, Note_off_c, 4, 80, 64
13, 139909, Note_off_c, 4, 78, 64
13, 139918, Note_on_c, 4, 76, 64
13, 139966, Note_off_c, 4, 76, 64
13, 139989, Note_on_c, 4, 74, 55
13, 140040, Note_off_c, 4, 74, 64
13, 140040, Note_on_c, 4, 76, 60
13, 140098, Note_on_c, 4, 77, 58
13, 140103, Note_off_c, 4, 76, 64
13, 140153, Note_off_c, 4, 77, 64
13, 140160, Note_on_c, 4, 72, 68
13, 140316, Note_off_c, 4, 72, 64
13, 140384, Note_on_c, 4, 72, 72
13, 140420, Note_on_c, 4, 71, 45
13, 140421, Note_off_c, 4, 72, 64
13, 140444, Note_on_c, 4, 72, 64
13, 140448, Note_off_c, 4, 71, 64
13, 140476, Note_on_c, 4, 71, 66
13, 140486, Note_off_c, 4, 72, 64
13, 140577, Note_off_c, 4, 71, 64
13, 140637, Note_on_c, 4, 69, 72
13, 140690, Note_on_c, 4, 72, 60
13, 140693, Note_off_c, 4, 69, 64
13, 140750, Note_on_c, 4, 74, 66
13, 140758, Note_off_c, 4, 72, 64
13, 140795, Note_on_c, 4, 76, 61
13, 140799, Note_off_c, 4, 74, 64
13, 140849, Note_off_c, 4, 76, 64
13, 140863, Note_on_c, 4, 77, 70
13, 140908, Note_off_c, 4, 77, 64
13, 140991, Note_on_c, 4, 74, 74
13, 141036, Note_off_c, 4, 74, 64
13, 141115, Note_on_c, 4, 71, 68
13, 141153, Note_off_c, 4, 71, 64
13, 141235, Note_on_c, 4, 76, 74
13, 141281, Note_off_c, 4, 76, 64
13, 141362, Note_on_c, 4, 64, 64
13, 141408, Note_off_c, 4, 64, 64
13, 141486, Note_on_c, 4, 76, 80
13, 141528, Note_off_c, 4, 76, 64
13, 141597, Note_on_c, 4, 69, 68
13, 141701, Note_off_c, 4, 69, 64
13, 141714, Note_on_c, 4, 71, 66
13, 141762, Note_on_c, 4, 72, 68
13, 141764, Note_off_c, 4, 71, 64
13, 141810, Note_off_c, 4, 72, 64
13, 141835, Note_on_c, 4, 74, 64
13, 142079, Note_off_c, 4, 74, 64
13, 142136, Note_on_c, 4, 77, 72
13, 142196, Note_on_c, 4, 76, 68
13, 142200, Note_off_c, 4, 77, 64
13, 142252, Note_off_c, 4, 76, 64
13, 142256, Note_on_c, 4, 74, 58
13, 142315, Note_on_c, 4, 72, 60
13, 142319, Note_off_c, 4, 74, 64
13, 142367, Note_off_c, 4, 72, 64
13, 142368, Note_on_c, 4, 71, 53
13, 142433, Note_off_c, 4, 71, 64
13, 142434, Note_on_c, 4, 72, 48
13, 142478, Note_off_c, 4, 72, 64
13, 142486, Note_on_c, 4, 69, 70
13, 142519, Note_off_c, 4, 69, 64
13, 142557, Note_on_c, 4, 81, 64
13, 142685, Note_off_c, 4, 81, 64
13, 142738, Note_on_c, 4, 83, 60
13, 142765, Note_off_c, 4, 83, 64
13, 142803, Note_on_c, 4, 81, 80
13, 142830, Note_on_c, 4, 80, 57
13, 142833, Note_off_c, 4, 81, 64
13, 142854, Note_on_c, 4, 81, 57
13, 142858, Note_off_c, 4, 80, 64
13, 142886, Note_on_c, 4, 80, 63
13, 142900, Note_off_c, 4, 81, 64
13, 142943, Note_off_c, 4, 80, 64
13, 142972, Note_on_c, 4, 81, 66
13, 143002, Note_off_c, 4, 81, 64
13, 143036, Note_on_c, 4, 81, 74
13, 143089, Note_on_c, 4, 83, 68
13, 143093, Note_off_c, 4, 81, 64
13, 143150, Note_off_c, 4, 83, 64
13, 143154, Note_on_c, 4, 84, 68
13, 143205, Note_off_c, 4, 84, 64
13, 143206, Note_on_c, 4, 83, 63
13, 143264, Note_off_c, 4, 83, 64
13, 143271, Note_on_c, 4, 81, 64
13, 143328, Note_off_c, 4, 81, 64
13, 143328, Note_on_c, 4, 79, 57
13, 143388, Note_on_c, 4, 81, 56
13, 143391, Note_off_c, 4, 79, 64
13, 143442, Note_on_c, 4, 78, 51
13, 143444, Note_off_c, 4, 81, 64
13, 143495, Note_off_c, 4, 78, 64
13, 143509, Note_on_c, 4, 83, 76
13, 143559, Note_off_c, 4, 83, 64
13, 143636, Note_on_c, 4, 71, 64
13, 143682, Note_off_c, 4, 71, 64
13, 143764, Note_on_c, 4, 76, 78
13, 143880, Note_off_c, 4, 76, 64
13, 143939, Note_on_c, 4, 76, 64
13, 143970, Note_off_c, 4, 76, 64
13, 144004, Note_on_c, 4, 76, 74
13, 144056, Note_off_c, 4, 76, 64
13, 144060, Note_on_c, 4, 79, 64
13, 144112, Note_on_c, 4, 78, 51
13, 144116, Note_off_c, 4, 79, 64
13, 144166, Note_on_c, 4, 76, 60
13, 144168, Note_off_c, 4, 78, 64
13, 144221, Note_off_c, 4, 76, 64
13, 144226, Note_on_c, 4, 75, 60
13, 144283, Note_on_c, 4, 73, 52
13, 144288, Note_off_c, 4, 75, 64
13, 144348, Note_off_c, 4, 73, 64
13, 144348, Note_on_c, 4, 75, 62
13, 144396, Note_off_c, 4, 75, 64
13, 144400, Note_on_c, 4, 71, 70
13, 144451, Note_off_c, 4, 71, 64
13, 144470, Note_on_c, 4, 83, 70
13, 144529, Note_on_c, 4, 81, 72
13, 144547, Note_off_c, 4, 83, 64
13, 144583, Note_off_c, 4, 81, 64
13, 144587, Note_on_c, 4, 79, 60
13, 144647, Note_on_c, 4, 78, 52
13, 144653, Note_off_c, 4, 79, 64
13, 144705, Note_off_c, 4, 78, 64
13, 144708, Note_on_c, 4, 76, 57
13, 144762, Note_on_c, 4, 74, 55
13, 144770, Note_off_c, 4, 76, 64
13, 144837, Note_on_c, 4, 72, 53
13, 144838, Note_off_c, 4, 74, 64
13, 144890, Note_on_c, 4, 71, 57
13, 144896, Note_off_c, 4, 72, 64
13, 144933, Note_off_c, 4, 71, 64
13, 144956, Note_on_c, 4, 69, 58
13, 145015, Note_on_c, 4, 72, 64
13, 145018, Note_off_c, 4, 69, 64
13, 145071, Note_off_c, 4, 72, 64
13, 145080, Note_on_c, 4, 74, 63
13, 145135, Note_on_c, 4, 76, 59
13, 145140, Note_off_c, 4, 74, 64
13, 145180, Note_off_c, 4, 76, 64
13, 145195, Note_on_c, 4, 74, 70
13, 145254, Note_on_c, 4, 72, 58
13, 145260, Note_off_c, 4, 74, 64
13, 145312, Note_off_c, 4, 72, 64
13, 145312, Note_on_c, 4, 71, 57
13, 145368, Note_on_c, 4, 69, 59
13, 145371, Note_off_c, 4, 71, 64
13, 145413, Note_off_c, 4, 69, 64
13, 145429, Note_on_c, 4, 74, 76
13, 145552, Note_off_c, 4, 74, 64
13, 145608, Note_on_c, 4, 76, 64
13, 145641, Note_off_c, 4, 76, 64
13, 145671, Note_on_c, 4, 74, 68
13, 145692, Note_on_c, 4, 72, 57
13, 145696, Note_off_c, 4, 74, 64
13, 145720, Note_on_c, 4, 74, 70
13, 145722, Note_off_c, 4, 72, 64
13, 145749, Note_on_c, 4, 72, 64
13, 145759, Note_off_c, 4, 74, 64
13, 145815, Note_off_c, 4, 72, 64
13, 145857, Note_on_c, 4, 71, 70
13, 145896, Note_off_c, 4, 71, 64
13, 145923, Note_on_c, 4, 72, 78
13, 146040, Note_off_c, 4, 72, 64
13, 146093, Note_on_c, 4, 74, 66
13, 146124, Note_off_c, 4, 74, 64
13, 146156, Note_on_c, 4, 72, 78
13, 146179, Note_off_c, 4, 72, 64
13, 146181, Note_on_c, 4, 71, 57
13, 146204, Note_on_c, 4, 72, 70
13, 146213, Note_off_c, 4, 71, 64
13, 146237, Note_on_c, 4, 71, 66
13, 146249, Note_off_c, 4, 72, 64
13, 146303, Note_off_c, 4, 71, 64
13, 146326, Note_on_c, 4, 69, 57
13, 146354, Note_off_c, 4, 69, 64
13, 146383, Note_on_c, 4, 69, 60
13, 146443, Note_on_c, 4, 76, 78
13, 146453, Note_off_c, 4, 69, 64
13, 146498, Note_off_c, 4, 76, 64
13, 146499, Note_on_c, 4, 78, 51
13, 146558, Note_on_c, 4, 80, 60
13, 146560, Note_off_c, 4, 78, 64
13, 146606, Note_off_c, 4, 80, 64
13, 146629, Note_on_c, 4, 81, 76
13, 146891, Note_off_c, 4, 81, 64
13, 146941, Note_on_c, 4, 84, 70
13, 146998, Note_on_c, 4, 83, 70
13, 147002, Note_off_c, 4, 84, 64
13, 147054, Note_on_c, 4, 81, 66
13, 147058, Note_off_c, 4, 83, 64
13, 147117, Note_off_c, 4, 81, 64
13, 147122, Note_on_c, 4, 80, 63
13, 147176, Note_on_c, 4, 81, 72
13, 147187, Note_off_c, 4, 80, 64
13, 147231, Note_off_c, 4, 81, 64
13, 147236, Note_on_c, 4, 83, 70
13, 147286, Note_off_c, 4, 83, 64
13, 147289, Note_on_c, 4, 80, 58
13, 147347, Note_off_c, 4, 80, 64
13, 147360, Note_on_c, 4, 76, 59
13, 147399, Note_off_c, 4, 76, 64
13, 147478, Note_on_c, 4, 76, 82
13, 147518, Note_off_c, 4, 76, 64
13, 147596, Note_on_c, 4, 76, 80
13, 147638, Note_off_c, 4, 76, 64
13, 147719, Note_on_c, 4, 76, 80
13, 147763, Note_off_c, 4, 76, 64
13, 147835, Note_on_c, 4, 72, 78
13, 147944, Note_off_c, 4, 72, 64
13, 147958, Note_on_c, 4, 74, 70
13, 148006, Note_on_c, 4, 76, 70
13, 148015, Note_off_c, 4, 74, 64
13, 148061, Note_off_c, 4, 76, 64
13, 148069, Note_on_c, 4, 77, 63
13, 148113, Note_off_c, 4, 77, 64
13, 148199, Note_on_c, 4, 74, 80
13, 148245, Note_off_c, 4, 74, 64
13, 148312, Note_on_c, 4, 71, 68
13, 148365, Note_off_c, 4, 71, 64
13, 148434, Note_on_c, 4, 76, 78
13, 148473, Note_off_c, 4, 76, 64
13, 148552, Note_on_c, 4, 64, 66
13, 148608, Note_off_c, 4, 64, 64
13, 148673, Note_on_c, 4, 74, 80
13, 148716, Note_off_c, 4, 74, 64
13, 148786, Note_on_c, 4, 72, 76
13, 148928, Note_off_c, 4, 72, 64
13, 148978, Note_on_c, 4, 71, 68
13, 149010, Note_off_c, 4, 71, 64
13, 149040, Note_on_c, 4, 72, 82
13, 149069, Note_off_c, 4, 72, 64
13, 149069, Note_on_c, 4, 71, 59
13, 149098, Note_on_c, 4, 72, 66
13, 149106, Note_off_c, 4, 71, 64
13, 149123, Note_on_c, 4, 71, 58
13, 149136, Note_off_c, 4, 72, 64
13, 149189, Note_off_c, 4, 71, 64
13, 149205, Note_on_c, 4, 69, 64
13, 149239, Note_off_c, 4, 69, 64
13, 149265, Note_on_c, 4, 69, 66
13, 149391, Note_off_c, 4, 69, 64
13, 162470, Note_on_c, 4, 79, 55
13, 162953, Note_on_c, 4, 78, 53
13, 162960, Note_off_c, 4, 79, 64
13, 163192, Note_off_c, 4, 78, 64
13, 163199, Note_on_c, 4, 79, 66
13, 163304, Note_off_c, 4, 79, 64
13, 163313, Note_on_c, 4, 74, 59
13, 163349, Note_off_c, 4, 74, 64
13, 163432, Note_on_c, 4, 74, 66
13, 163476, Note_off_c, 4, 74, 64
13, 163552, Note_on_c, 4, 74, 66
13, 163597, Note_off_c, 4, 74, 64
13, 163665, Note_on_c, 4, 71, 68
13, 163797, Note_off_c, 4, 71, 64
13, 163797, Note_on_c, 4, 72, 64
13, 163849, Note_on_c, 4, 74, 66
13, 163855, Note_off_c, 4, 72, 64
13, 163905, Note_off_c, 4, 74, 64
13, 163908, Note_on_c, 4, 76, 62
13, 163958, Note_off_c, 4, 76, 64
13, 164030, Note_on_c, 4, 72, 68
13, 164074, Note_off_c, 4, 72, 64
13, 164150, Note_on_c, 4, 69, 63
13, 164204, Note_off_c, 4, 69, 64
13, 164267, Note_on_c, 4, 74, 70
13, 164320, Note_off_c, 4, 74, 64
13, 164390, Note_on_c, 4, 62, 66
13, 164445, Note_off_c, 4, 62, 64
13, 164518, Note_on_c, 4, 72, 66
13, 164567, Note_off_c, 4, 72, 64
13, 164644, Note_on_c, 4, 71, 53
13, 164871, Note_off_c, 4, 71, 64
13, 165163, Note_on_c, 4, 84, 68
13, 165224, Note_on_c, 4, 83, 63
13, 165229, Note_off_c, 4, 84, 64
13, 165282, Note_on_c, 4, 81, 55
13, 165292, Note_off_c, 4, 83, 64
13, 165337, Note_off_c, 4, 81, 64
13, 165344, Note_on_c, 4, 79, 55
13, 165392, Note_on_c, 4, 78, 64
13, 165395, Note_off_c, 4, 79, 64
13, 165456, Note_off_c, 4, 78, 64
13, 165462, Note_on_c, 4, 79, 57
13, 165502, Note_off_c, 4, 79, 64
13, 165521, Note_on_c, 4, 76, 57
13, 165569, Note_off_c, 4, 76, 64
13, 165594, Note_on_c, 4, 81, 74
13, 165652, Note_on_c, 4, 83, 59
13, 165657, Note_off_c, 4, 81, 64
13, 165717, Note_on_c, 4, 81, 57
13, 165736, Note_off_c, 4, 83, 64
13, 165769, Note_off_c, 4, 81, 64
13, 165774, Note_on_c, 4, 79, 57
13, 165822, Note_off_c, 4, 79, 64
13, 165830, Note_on_c, 4, 78, 52
13, 165892, Note_off_c, 4, 78, 64
13, 165894, Note_on_c, 4, 76, 58
13, 165938, Note_off_c, 4, 76, 64
13, 165954, Note_on_c, 4, 78, 57
13, 166011, Note_off_c, 4, 78, 64
13, 166012, Note_on_c, 4, 71, 58
13, 166062, Note_off_c, 4, 71, 64
13, 166076, Note_on_c, 4, 83, 60
13, 166137, Note_on_c, 4, 81, 60
13, 166144, Note_off_c, 4, 83, 64
13, 166187, Note_off_c, 4, 81, 64
13, 166191, Note_on_c, 4, 79, 58
13, 166248, Note_on_c, 4, 78, 51
13, 166250, Note_off_c, 4, 79, 64
13, 166306, Note_off_c, 4, 78, 64
13, 166312, Note_on_c, 4, 76, 53
13, 167218, Note_off_c, 4, 76, 64
13, 167281, Note_on_c, 4, 76, 63
13, 167312, Note_on_c, 4, 75, 61
13, 167316, Note_off_c, 4, 76, 64
13, 167338, Note_on_c, 4, 76, 59
13, 167340, Note_off_c, 4, 75, 64
13, 167369, Note_on_c, 4, 75, 56
13, 167385, Note_off_c, 4, 76, 64
13, 167480, Note_off_c, 4, 75, 64
13, 167510, Note_on_c, 4, 76, 68
13, 167624, Note_off_c, 4, 76, 64
13, 167637, Note_on_c, 4, 71, 63
13, 167750, Note_off_c, 4, 71, 64
13, 167759, Note_on_c, 4, 76, 66
13, 167858, Note_off_c, 4, 76, 64
13, 167869, Note_on_c, 4, 78, 57
13, 167977, Note_off_c, 4, 78, 64
13, 167986, Note_on_c, 4, 79, 52
13, 168563, Note_off_c, 4, 79, 64
13, 168588, Note_on_c, 4, 69, 57
13, 168699, Note_off_c, 4, 69, 64
13, 168704, Note_on_c, 4, 76, 64
13, 168816, Note_off_c, 4, 76, 64
13, 168829, Note_on_c, 4, 79, 64
13, 168951, Note_off_c, 4, 79, 64
13, 168959, Note_on_c, 4, 78, 44
13, 169523, Note_off_c, 4, 78, 64
13, 169556, Note_on_c, 4, 83, 68
13, 169604, Note_off_c, 4, 83, 64
13, 169683, Note_on_c, 4, 83, 72
13, 169725, Note_off_c, 4, 83, 64
13, 169800, Note_on_c, 4, 83, 74
13, 169842, Note_off_c, 4, 83, 64
13, 169920, Note_on_c, 4, 76, 70
13, 170036, Note_on_c, 4, 78, 58
13, 170040, Note_off_c, 4, 76, 64
13, 170089, Note_on_c, 4, 79, 60
13, 170095, Note_off_c, 4, 78, 64
13, 170131, Note_off_c, 4, 79, 64
13, 170154, Note_on_c, 4, 81, 66
13, 170479, Note_off_c, 4, 81, 64
13, 170516, Note_on_c, 4, 79, 70
13, 170561, Note_on_c, 4, 78, 56
13, 170563, Note_off_c, 4, 79, 64
13, 170608, Note_off_c, 4, 78, 64
13, 170628, Note_on_c, 4, 79, 70
13, 170674, Note_off_c, 4, 79, 64
13, 170753, Note_on_c, 4, 84, 76
13, 170799, Note_off_c, 4, 84, 64
13, 170880, Note_on_c, 4, 78, 62
13, 171131, Note_off_c, 4, 78, 64
13, 171165, Note_on_c, 4, 78, 58
13, 171219, Note_on_c, 4, 80, 68
13, 171222, Note_off_c, 4, 78, 64
13, 171271, Note_on_c, 4, 81, 72
13, 171282, Note_off_c, 4, 80, 64
13, 171329, Note_off_c, 4, 81, 64
13, 171339, Note_on_c, 4, 83, 62
13, 171391, Note_on_c, 4, 81, 64
13, 171397, Note_off_c, 4, 83, 64
13, 171448, Note_off_c, 4, 81, 64
13, 171454, Note_on_c, 4, 80, 51
13, 171511, Note_on_c, 4, 78, 51
13, 171515, Note_off_c, 4, 80, 64
13, 171570, Note_off_c, 4, 78, 64
13, 171590, Note_on_c, 4, 76, 68
13, 171640, Note_off_c, 4, 76, 64
13, 171652, Note_on_c, 4, 81, 64
13, 171704, Note_off_c, 4, 81, 64
13, 171709, Note_on_c, 4, 83, 63
13, 171760, Note_on_c, 4, 84, 66
13, 171763, Note_off_c, 4, 83, 64
13, 171808, Note_off_c, 4, 84, 64
13, 171840, Note_on_c, 4, 74, 53
13, 172339, Note_off_c, 4, 74, 64
13, 172369, Note_on_c, 4, 77, 80
13, 172432, Note_on_c, 4, 76, 64
13, 172444, Note_off_c, 4, 77, 64
13, 172494, Note_on_c, 4, 74, 59
13, 172500, Note_off_c, 4, 76, 64
13, 172548, Note_on_c, 4, 72, 63
13, 172550, Note_off_c, 4, 74, 64
13, 172604, Note_off_c, 4, 72, 64
13, 172607, Note_on_c, 4, 71, 52
13, 172654, Note_off_c, 4, 71, 64
13, 172669, Note_on_c, 4, 72, 55
13, 172713, Note_off_c, 4, 72, 64
13, 172727, Note_on_c, 4, 69, 62
13, 172786, Note_off_c, 4, 69, 64
13, 172802, Note_on_c, 4, 81, 49
13, 173491, Note_off_c, 4, 81, 64
13, 173494, Note_on_c, 4, 80, 58
13, 173724, Note_off_c, 4, 80, 64
13, 173757, Note_on_c, 4, 81, 68
13, 174269, Note_off_c, 4, 81, 64
13, 174297, Note_on_c, 4, 82, 85
13, 174354, Note_on_c, 4, 81, 57
13, 174367, Note_off_c, 4, 82, 64
13, 174415, Note_off_c, 4, 81, 64
13, 174415, Note_on_c, 4, 79, 62
13, 174465, Note_off_c, 4, 79, 64
13, 174474, Note_on_c, 4, 78, 63
13, 174527, Note_off_c, 4, 78, 64
13, 174530, Note_on_c, 4, 76, 49
13, 174584, Note_off_c, 4, 76, 64
13, 174586, Note_on_c, 4, 78, 52
13, 174645, Note_on_c, 4, 74, 63
13, 174648, Note_off_c, 4, 78, 64
13, 174699, Note_off_c, 4, 74, 64
13, 174715, Note_on_c, 4, 79, 64
13, 175423, Note_off_c, 4, 79, 64
13, 175423, Note_on_c, 4, 78, 53
13, 175655, Note_off_c, 4, 78, 64
13, 175666, Note_on_c, 4, 79, 45
13, 176191, Note_off_c, 4, 79, 64
13, 176216, Note_on_c, 4, 81, 68
13, 176271, Note_on_c, 4, 79, 64
13, 176281, Note_off_c, 4, 81, 64
13, 176334, Note_on_c, 4, 77, 57
13, 176336, Note_off_c, 4, 79, 64
13, 176393, Note_off_c, 4, 77, 64
13, 176395, Note_on_c, 4, 76, 68
13, 176446, Note_off_c, 4, 76, 64
13, 176446, Note_on_c, 4, 74, 64
13, 176508, Note_off_c, 4, 74, 64
13, 176509, Note_on_c, 4, 76, 60
13, 176560, Note_off_c, 4, 76, 64
13, 176567, Note_on_c, 4, 72, 64
13, 176620, Note_off_c, 4, 72, 64
13, 176633, Note_on_c, 4, 77, 68
13, 177355, Note_on_c, 4, 76, 68
13, 177356, Note_off_c, 4, 77, 64
13, 177566, Note_off_c, 4, 76, 64
13, 177583, Note_on_c, 4, 77, 53
13, 177668, Note_off_c, 4, 77, 64
13, 177710, Note_on_c, 4, 65, 66
13, 177769, Note_on_c, 4, 67, 70
13, 177776, Note_off_c, 4, 65, 64
13, 177827, Note_off_c, 4, 67, 64
13, 177833, Note_on_c, 4, 69, 80
13, 177877, Note_off_c, 4, 69, 64
13, 177886, Note_on_c, 4, 67, 60
13, 177951, Note_off_c, 4, 67, 64
13, 177953, Note_on_c, 4, 69, 66
13, 178008, Note_on_c, 4, 71, 68
13, 178009, Note_off_c, 4, 69, 64
13, 178053, Note_off_c, 4, 71, 64
13, 178074, Note_on_c, 4, 72, 78
13, 178200, Note_off_c, 4, 72, 64
13, 178256, Note_on_c, 4, 67, 57
13, 178286, Note_off_c, 4, 67, 64
13, 178315, Note_on_c, 4, 72, 82
13, 178440, Note_off_c, 4, 72, 64
13, 178492, Note_on_c, 4, 72, 66
13, 178524, Note_off_c, 4, 72, 64
13, 178548, Note_on_c, 4, 72, 80
13, 178661, Note_off_c, 4, 72, 64
13, 178720, Note_on_c, 4, 71, 59
13, 178746, Note_on_c, 4, 69, 66
13, 178788, Note_off_c, 4, 69, 64
13, 178804, Note_on_c, 4, 72, 72
13, 178808, Note_off_c, 4, 71, 64
13, 178832, Note_on_c, 4, 71, 76
13, 178839, Note_off_c, 4, 72, 64
13, 178859, Note_on_c, 4, 72, 64
13, 178868, Note_off_c, 4, 71, 64
13, 178879, Note_on_c, 4, 71, 53
13, 178899, Note_off_c, 4, 72, 64
13, 178937, Note_off_c, 4, 71, 64
13, 178966, Note_on_c, 4, 72, 74
13, 178996, Note_off_c, 4, 72, 64
13, 179025, Note_on_c, 4, 72, 64
13, 179276, Note_off_c, 4, 72, 64
13, 194038, Note_on_c, 4, 79, 85
13, 194077, Note_off_c, 4, 79, 64
13, 194163, Note_on_c, 4, 79, 80
13, 194209, Note_off_c, 4, 79, 64
13, 194282, Note_on_c, 4, 79, 82
13, 194318, Note_off_c, 4, 79, 64
13, 194395, Note_on_c, 4, 76, 76
13, 194508, Note_off_c, 4, 76, 64
13, 194520, Note_on_c, 4, 77, 68
13, 194567, Note_off_c, 4, 77, 64
13, 194568, Note_on_c, 4, 79, 70
13, 194614, Note_off_c, 4, 79, 64
13, 194631, Note_on_c, 4, 81, 87
13, 194667, Note_off_c, 4, 81, 64
13, 194755, Note_on_c, 4, 77, 82
13, 194792, Note_off_c, 4, 77, 64
13, 194873, Note_on_c, 4, 74, 78
13, 194911, Note_off_c, 4, 74, 64
13, 194991, Note_on_c, 4, 79, 85
13, 195028, Note_off_c, 4, 79, 64
13, 195109, Note_on_c, 4, 67, 72
13, 195149, Note_off_c, 4, 67, 64
13, 195236, Note_on_c, 4, 77, 82
13, 195274, Note_off_c, 4, 77, 64
13, 195361, Note_on_c, 4, 76, 68
13, 195601, Note_off_c, 4, 76, 64
13, 196078, Note_on_c, 4, 72, 56
13, 196546, Note_off_c, 4, 72, 64
13, 196551, Note_on_c, 4, 71, 59
13, 196754, Note_off_c, 4, 71, 64
13, 196809, Note_on_c, 4, 72, 64
13, 196865, Note_on_c, 4, 79, 78
13, 196867, Note_off_c, 4, 72, 64
13, 196924, Note_off_c, 4, 79, 64
13, 196926, Note_on_c, 4, 77, 51
13, 196972, Note_on_c, 4, 79, 66
13, 196983, Note_off_c, 4, 77, 64
13, 197024, Note_off_c, 4, 79, 64
13, 197031, Note_on_c, 4, 81, 80
13, 197085, Note_on_c, 4, 79, 70
13, 197088, Note_off_c, 4, 81, 64
13, 197146, Note_off_c, 4, 79, 64
13, 197146, Note_on_c, 4, 77, 57
13, 197201, Note_off_c, 4, 77, 64
13, 197202, Note_on_c, 4, 76, 48
13, 197261, Note_off_c, 4, 76, 64
13, 197268, Note_on_c, 4, 74, 82
13, 197327, Note_on_c, 4, 77, 66
13, 197339, Note_off_c, 4, 74, 64
13, 197387, Note_off_c, 4, 77, 64
13, 197389, Note_on_c, 4, 76, 41
13, 197445, Note_off_c, 4, 76, 64
13, 197450, Note_on_c, 4, 77, 58
13, 197504, Note_off_c, 4, 77, 64
13, 197513, Note_on_c, 4, 79, 72
13, 197565, Note_on_c, 4, 77, 64
13, 197568, Note_off_c, 4, 79, 64
13, 197625, Note_off_c, 4, 77, 64
13, 197628, Note_on_c, 4, 76, 58
13, 197688, Note_off_c, 4, 76, 64
13, 197690, Note_on_c, 4, 74, 57
13, 197743, Note_off_c, 4, 74, 64
13, 197753, Note_on_c, 4, 72, 76
13, 197810, Note_on_c, 4, 76, 68
13, 197813, Note_off_c, 4, 72, 64
13, 197869, Note_off_c, 4, 76, 64
13, 197869, Note_on_c, 4, 74, 48
13, 197927, Note_on_c, 4, 76, 59
13, 197934, Note_off_c, 4, 74, 64
13, 197978, Note_off_c, 4, 76, 64
13, 197993, Note_on_c, 4, 77, 74
13, 198139, Note_off_c, 4, 77, 64
13, 198180, Note_on_c, 4, 77, 82
13, 198212, Note_off_c, 4, 77, 64
13, 198243, Note_on_c, 4, 77, 89
13, 198291, Note_on_c, 4, 76, 59
13, 198294, Note_off_c, 4, 77, 64
13, 198344, Note_off_c, 4, 76, 64
13, 198348, Note_on_c, 4, 77, 68
13, 198403, Note_off_c, 4, 77, 64
13, 198406, Note_on_c, 4, 74, 64
13, 198454, Note_off_c, 4, 74, 64
13, 198469, Note_on_c, 4, 76, 80
13, 198523, Note_on_c, 4, 79, 64
13, 198526, Note_off_c, 4, 76, 64
13, 198583, Note_on_c, 4, 77, 56
13, 198584, Note_off_c, 4, 79, 64
13, 198637, Note_on_c, 4, 79, 72
13, 198639, Note_off_c, 4, 77, 64
13, 198697, Note_off_c, 4, 79, 64
13, 198704, Note_on_c, 4, 81, 80
13, 199004, Note_off_c, 4, 81, 64
13, 199026, Note_on_c, 4, 74, 78
13, 199077, Note_off_c, 4, 74, 64
13, 199079, Note_on_c, 4, 76, 64
13, 199132, Note_off_c, 4, 76, 64
13, 199135, Note_on_c, 4, 77, 66
13, 199191, Note_off_c, 4, 77, 64
13, 199202, Note_on_c, 4, 79, 68
13, 199467, Note_off_c, 4, 79, 64
13, 199496, Note_on_c, 4, 72, 70
13, 199551, Note_on_c, 4, 74, 68
13, 199555, Note_off_c, 4, 72, 64
13, 199611, Note_on_c, 4, 76, 66
13, 199612, Note_off_c, 4, 74, 64
13, 199662, Note_off_c, 4, 76, 64
13, 199677, Note_on_c, 4, 77, 82
13, 199735, Note_on_c, 4, 76, 70
13, 199738, Note_off_c, 4, 77, 64
13, 199790, Note_on_c, 4, 74, 58
13, 199791, Note_off_c, 4, 76, 64
13, 199852, Note_on_c, 4, 72, 66
13, 199855, Note_off_c, 4, 74, 64
13, 199902, Note_off_c, 4, 72, 64
13, 199913, Note_on_c, 4, 71, 58
13, 199964, Note_off_c, 4, 71, 64
13, 199969, Note_on_c, 4, 74, 66
13, 200030, Note_off_c, 4, 74, 64
13, 200035, Note_on_c, 4, 76, 63
13, 200091, Note_on_c, 4, 77, 66
13, 200102, Note_off_c, 4, 76, 64
13, 200132, Note_off_c, 4, 77, 64
13, 200149, Note_on_c, 4, 76, 78
13, 200205, Note_on_c, 4, 79, 60
13, 200206, Note_off_c, 4, 76, 64
13, 200267, Note_off_c, 4, 79, 64
13, 200270, Note_on_c, 4, 77, 57
13, 200326, Note_on_c, 4, 79, 63
13, 200327, Note_off_c, 4, 77, 64
13, 200375, Note_off_c, 4, 79, 64
13, 200386, Note_on_c, 4, 81, 64
13, 200439, Note_on_c, 4, 79, 64
13, 200446, Note_off_c, 4, 81, 64
13, 200500, Note_off_c, 4, 79, 64
13, 200506, Note_on_c, 4, 77, 53
13, 200564, Note_on_c, 4, 76, 55
13, 200568, Note_off_c, 4, 77, 64
13, 200612, Note_off_c, 4, 76, 64
13, 200626, Note_on_c, 4, 74, 80
13, 200686, Note_on_c, 4, 77, 63
13, 200695, Note_off_c, 4, 74, 64
13, 200752, Note_on_c, 4, 76, 49
13, 200753, Note_off_c, 4, 77, 64
13, 200812, Note_on_c, 4, 77, 59
13, 200816, Note_off_c, 4, 76, 64
13, 200871, Note_off_c, 4, 77, 64
13, 200871, Note_on_c, 4, 79, 68
13, 200928, Note_on_c, 4, 77, 66
13, 200933, Note_off_c, 4, 79, 64
13, 200992, Note_on_c, 4, 76, 60
13, 200995, Note_off_c, 4, 77, 64
13, 201053, Note_on_c, 4, 74, 58
13, 201054, Note_off_c, 4, 76, 64
13, 201098, Note_off_c, 4, 74, 64
13, 201114, Note_on_c, 4, 72, 78
13, 201172, Note_on_c, 4, 76, 68
13, 201176, Note_off_c, 4, 72, 64
13, 201235, Note_on_c, 4, 74, 52
13, 201237, Note_off_c, 4, 76, 64
13, 201296, Note_off_c, 4, 74, 64
13, 201296, Note_on_c, 4, 76, 55
13, 201352, Note_off_c, 4, 76, 64
13, 201353, Note_on_c, 4, 77, 61
13, 201411, Note_off_c, 4, 77, 64
13, 201412, Note_on_c, 4, 76, 66
13, 201468, Note_off_c, 4, 76, 64
13, 201476, Note_on_c, 4, 74, 47
13, 201526, Note_off_c, 4, 74, 64
13, 201530, Note_on_c, 4, 72, 46
13, 201584, Note_off_c, 4, 72, 64
13, 201592, Note_on_c, 4, 71, 76
13, 201651, Note_on_c, 4, 74, 68
13, 201661, Note_off_c, 4, 71, 64
13, 201715, Note_off_c, 4, 74, 64
13, 201717, Note_on_c, 4, 72, 44
13, 201773, Note_off_c, 4, 72, 64
13, 201775, Note_on_c, 4, 74, 57
13, 201831, Note_off_c, 4, 74, 64
13, 201832, Note_on_c, 4, 76, 63
13, 201885, Note_on_c, 4, 74, 64
13, 201891, Note_off_c, 4, 76, 64
13, 201946, Note_off_c, 4, 74, 64
13, 201948, Note_on_c, 4, 72, 58
13, 202002, Note_off_c, 4, 72, 64
13, 202003, Note_on_c, 4, 71, 54
13, 202063, Note_off_c, 4, 71, 64
13, 202069, Note_on_c, 4, 69, 68
13, 202130, Note_on_c, 4, 72, 64
13, 202131, Note_off_c, 4, 69, 64
13, 202186, Note_off_c, 4, 72, 64
13, 202188, Note_on_c, 4, 71, 43
13, 202242, Note_on_c, 4, 72, 60
13, 202245, Note_off_c, 4, 71, 64
13, 202292, Note_off_c, 4, 72, 64
13, 202304, Note_on_c, 4, 74, 66
13, 202361, Note_on_c, 4, 72, 64
13, 202368, Note_off_c, 4, 74, 64
13, 202424, Note_on_c, 4, 71, 54
13, 202428, Note_off_c, 4, 72, 64
13, 202470, Note_off_c, 4, 71, 64
13, 202478, Note_on_c, 4, 69, 63
13, 202527, Note_off_c, 4, 69, 64
13, 202546, Note_on_c, 4, 71, 68
13, 202607, Note_off_c, 4, 71, 64
13, 202671, Note_on_c, 4, 79, 87
13, 202713, Note_off_c, 4, 79, 64
13, 202793, Note_on_c, 4, 79, 87
13, 202832, Note_off_c, 4, 79, 64
13, 202918, Note_on_c, 4, 79, 87
13, 202952, Note_off_c, 4, 79, 64
13, 203033, Note_on_c, 4, 76, 82
13, 203144, Note_off_c, 4, 76, 64
13, 203156, Note_on_c, 4, 77, 74
13, 203209, Note_on_c, 4, 79, 72
13, 203214, Note_off_c, 4, 77, 64
13, 203262, Note_off_c, 4, 79, 64
13, 203273, Note_on_c, 4, 81, 82
13, 203312, Note_off_c, 4, 81, 64
13, 203394, Note_on_c, 4, 77, 82
13, 203435, Note_off_c, 4, 77, 64
13, 203513, Note_on_c, 4, 74, 80
13, 203556, Note_off_c, 4, 74, 64
13, 203633, Note_on_c, 4, 79, 85
13, 203672, Note_off_c, 4, 79, 64
13, 203752, Note_on_c, 4, 67, 80
13, 203806, Note_off_c, 4, 67, 64
13, 203875, Note_on_c, 4, 77, 85
13, 203917, Note_off_c, 4, 77, 64
13, 203991, Note_on_c, 4, 76, 80
13, 204136, Note_off_c, 4, 76, 64
13, 204177, Note_on_c, 4, 74, 60
13, 204204, Note_off_c, 4, 74, 64
13, 204233, Note_on_c, 4, 76, 82
13, 204253, Note_on_c, 4, 74, 63
13, 204256, Note_off_c, 4, 76, 64
13, 204282, Note_on_c, 4, 76, 82
13, 204295, Note_off_c, 4, 74, 64
13, 204305, Note_on_c, 4, 74, 40
13, 204320, Note_off_c, 4, 76, 64
13, 204363, Note_off_c, 4, 74, 64
13, 204403, Note_on_c, 4, 72, 70
13, 204434, Note_off_c, 4, 72, 64
13, 204472, Note_on_c, 4, 72, 76
13, 204721, Note_off_c, 4, 72, 64
13, 218090, Note_on_c, 4, 76, 89
13, 218120, Note_on_c, 4, 74, 82
13, 218122, Note_off_c, 4, 76, 64
13, 218147, Note_off_c, 4, 74, 64
13, 218152, Note_on_c, 4, 76, 76
13, 218257, Note_off_c, 4, 76, 64
13, 218335, Note_on_c, 4, 77, 89
13, 218366, Note_off_c, 4, 77, 64
13, 218393, Note_on_c, 4, 76, 89
13, 218466, Note_on_c, 4, 74, 60
13, 218470, Note_off_c, 4, 76, 64
13, 218494, Note_off_c, 4, 74, 64
13, 218497, Note_on_c, 4, 76, 66
13, 218522, Note_on_c, 4, 74, 68
13, 218523, Note_off_c, 4, 76, 64
13, 218538, Note_off_c, 4, 74, 64
13, 218540, Note_on_c, 4, 76, 66
13, 218560, Note_on_c, 4, 74, 68
13, 218561, Note_off_c, 4, 76, 64
13, 218576, Note_off_c, 4, 74, 64
13, 218579, Note_on_c, 4, 76, 68
13, 218596, Note_off_c, 4, 76, 64
13, 218596, Note_on_c, 4, 74, 68
13, 218612, Note_on_c, 4, 76, 80
13, 218614, Note_off_c, 4, 74, 64
13, 218632, Note_on_c, 4, 74, 72
13, 218636, Note_off_c, 4, 76, 64
13, 218756, Note_off_c, 4, 74, 64
13, 218811, Note_on_c, 4, 72, 82
13, 218843, Note_off_c, 4, 72, 64
13, 218885, Note_on_c, 4, 72, 80
13, 219610, Note_off_c, 4, 72, 64
13, 219610, End_track
14, 0, Start_track
14, 0, Title_t, "Oboe2"
14, 0, Program_c, 5, 68
14, 0, Control_c, 5, 7, 100
14, 16318, Note_on_c, 5, 76, 95
14, 16820, Note_off_c, 5, 76, 64
14, 16854, Note_on_c, 5, 74, 68
14, 16905, Note_off_c, 5, 74, 64
14, 16910, Note_on_c, 5, 76, 68
14, 16957, Note_off_c, 5, 76, 64
14, 16965, Note_on_c, 5, 77, 70
14, 17007, Note_off_c, 5, 77, 64
14, 17025, Note_on_c, 5, 79, 76
14, 17065, Note_off_c, 5, 79, 64
14, 17084, Note_on_c, 5, 77, 68
14, 17124, Note_off_c, 5, 77, 64
14, 17144, Note_on_c, 5, 79, 70
14, 17180, Note_off_c, 5, 79, 64
14, 17204, Note_on_c, 5, 81, 78
14, 17239, Note_off_c, 5, 81, 64
14, 17269, Note_on_c, 5, 81, 76
14, 17387, Note_off_c, 5, 81, 64
14, 17390, Note_on_c, 5, 74, 52
14, 17546, Note_off_c, 5, 74, 64
14, 17567, Note_on_c, 5, 74, 68
14, 17608, Note_off_c, 5, 74, 64
14, 17626, Note_on_c, 5, 76, 68
14, 17673, Note_off_c, 5, 76, 64
14, 17685, Note_on_c, 5, 77, 72
14, 17722, Note_off_c, 5, 77, 64
14, 17747, Note_on_c, 5, 79, 78
14, 17792, Note_off_c, 5, 79, 64
14, 17811, Note_on_c, 5, 77, 72
14, 17845, Note_off_c, 5, 77, 64
14, 17871, Note_on_c, 5, 76, 60
14, 17906, Note_off_c, 5, 76, 64
14, 17926, Note_on_c, 5, 77, 63
14, 17964, Note_off_c, 5, 77, 64
14, 17988, Note_on_c, 5, 79, 68
14, 18030, Note_off_c, 5, 79, 64
14, 18051, Note_on_c, 5, 76, 54
14, 18083, Note_off_c, 5, 76, 64
14, 18111, Note_on_c, 5, 77, 60
14, 18150, Note_off_c, 5, 77, 64
14, 18167, Note_on_c, 5, 79, 72
14, 18213, Note_off_c, 5, 79, 64
14, 18233, Note_on_c, 5, 72, 66
14, 18369, Note_off_c, 5, 72, 64
14, 18410, Note_on_c, 5, 69, 63
14, 18434, Note_on_c, 5, 71, 66
14, 18440, Note_off_c, 5, 69, 64
14, 18460, Note_off_c, 5, 71, 64
14, 18470, Note_on_c, 5, 72, 66
14, 18588, Note_off_c, 5, 72, 64
14, 18647, Note_on_c, 5, 74, 66
14, 18670, Note_on_c, 5, 76, 70
14, 18678, Note_off_c, 5, 74, 64
14, 18703, Note_off_c, 5, 76, 64
14, 18707, Note_on_c, 5, 77, 57
14, 18737, Note_on_c, 5, 76, 64
14, 18742, Note_off_c, 5, 77, 64
14, 18767, Note_off_c, 5, 76, 64
14, 18768, Note_on_c, 5, 77, 61
14, 19082, Note_off_c, 5, 77, 64
14, 19123, Note_on_c, 5, 77, 76
14, 19161, Note_off_c, 5, 77, 64
14, 19192, Note_on_c, 5, 77, 80
14, 19235, Note_off_c, 5, 77, 64
14, 19251, Note_on_c, 5, 79, 72
14, 19285, Note_off_c, 5, 79, 64
14, 19307, Note_on_c, 5, 77, 64
14, 19357, Note_off_c, 5, 77, 64
14, 19364, Note_on_c, 5, 76, 58
14, 19405, Note_off_c, 5, 76, 64
14, 19426, Note_on_c, 5, 77, 78
14, 19477, Note_off_c, 5, 77, 64
14, 19487, Note_on_c, 5, 76, 66
14, 19526, Note_off_c, 5, 76, 64
14, 19547, Note_on_c, 5, 74, 70
14, 19590, Note_off_c, 5, 74, 64
14, 19609, Note_on_c, 5, 76, 68
14, 19649, Note_off_c, 5, 76, 64
14, 19672, Note_on_c, 5, 77, 64
14, 19728, Note_on_c, 5, 76, 52
14, 19735, Note_off_c, 5, 77, 64
14, 19758, Note_off_c, 5, 76, 64
14, 19758, Note_on_c, 5, 77, 58
14, 19785, Note_on_c, 5, 76, 57
14, 19788, Note_off_c, 5, 77, 64
14, 19806, Note_off_c, 5, 76, 64
14, 19807, Note_on_c, 5, 77, 60
14, 19828, Note_on_c, 5, 76, 59
14, 19830, Note_off_c, 5, 77, 64
14, 19846, Note_off_c, 5, 76, 64
14, 19848, Note_on_c, 5, 77, 72
14, 19865, Note_off_c, 5, 77, 64
14, 19866, Note_on_c, 5, 76, 51
14, 19878, Note_off_c, 5, 76, 64
14, 19881, Note_on_c, 5, 77, 66
14, 19894, Note_on_c, 5, 76, 60
14, 19901, Note_off_c, 5, 77, 64
14, 20035, Note_off_c, 5, 76, 64
14, 20076, Note_on_c, 5, 74, 66
14, 20108, Note_off_c, 5, 74, 64
14, 20143, Note_on_c, 5, 74, 68
14, 20423, Note_off_c, 5, 74, 64
14, 20455, Note_on_c, 5, 67, 68
14, 20478, Note_on_c, 5, 69, 60
14, 20492, Note_on_c, 5, 71, 61
14, 20508, Note_off_c, 5, 69, 64
14, 20510, Note_off_c, 5, 67, 64
14, 20514, Note_on_c, 5, 72, 59
14, 20533, Note_off_c, 5, 71, 64
14, 20539, Note_on_c, 5, 74, 82
14, 20547, Note_off_c, 5, 72, 64
14, 20554, Note_on_c, 5, 76, 58
14, 20565, Note_off_c, 5, 74, 64
14, 20573, Note_on_c, 5, 78, 58
14, 20588, Note_off_c, 5, 76, 64
14, 20595, Note_on_c, 5, 79, 66
14, 20607, Note_off_c, 5, 78, 64
14, 20611, Note_on_c, 5, 81, 66
14, 20619, Note_off_c, 5, 79, 64
14, 20637, Note_on_c, 5, 83, 72
14, 20645, Note_off_c, 5, 81, 64
14, 21007, Note_off_c, 5, 83, 64
14, 21058, Note_on_c, 5, 83, 85
14, 21089, Note_off_c, 5, 83, 64
14, 21115, Note_on_c, 5, 83, 82
14, 21219, Note_off_c, 5, 83, 64
14, 21293, Note_on_c, 5, 79, 80
14, 21316, Note_off_c, 5, 79, 64
14, 21349, Note_on_c, 5, 79, 72
14, 21370, Note_on_c, 5, 78, 70
14, 21377, Note_off_c, 5, 79, 64
14, 21390, Note_off_c, 5, 78, 64
14, 21390, Note_on_c, 5, 79, 76
14, 21411, Note_on_c, 5, 78, 63
14, 21420, Note_off_c, 5, 79, 64
14, 21473, Note_off_c, 5, 78, 64
14, 21534, Note_on_c, 5, 76, 76
14, 21563, Note_off_c, 5, 76, 64
14, 21593, Note_on_c, 5, 81, 66
14, 21617, Note_on_c, 5, 79, 78
14, 21622, Note_off_c, 5, 81, 64
14, 21648, Note_off_c, 5, 79, 64
14, 21648, Note_on_c, 5, 81, 62
14, 21969, Note_off_c, 5, 81, 64
14, 22015, Note_on_c, 5, 81, 74
14, 22044, Note_off_c, 5, 81, 64
14, 22076, Note_on_c, 5, 81, 66
14, 22203, Note_off_c, 5, 81, 64
14, 22254, Note_on_c, 5, 83, 66
14, 22276, Note_on_c, 5, 81, 66
14, 22288, Note_off_c, 5, 83, 64
14, 22306, Note_off_c, 5, 81, 64
14, 22316, Note_on_c, 5, 79, 87
14, 22424, Note_off_c, 5, 79, 64
14, 22483, Note_on_c, 5, 81, 63
14, 22511, Note_on_c, 5, 78, 74
14, 22518, Note_off_c, 5, 81, 64
14, 22531, Note_off_c, 5, 78, 64
14, 22551, Note_on_c, 5, 78, 89
14, 22672, Note_off_c, 5, 78, 64
14, 22674, Note_on_c, 5, 79, 57
14, 22928, Note_off_c, 5, 79, 64
14, 22970, Note_on_c, 5, 79, 82
14, 23007, Note_off_c, 5, 79, 64
14, 23030, Note_on_c, 5, 79, 74
14, 23299, Note_off_c, 5, 79, 64
14, 23334, Note_on_c, 5, 78, 68
14, 23373, Note_off_c, 5, 78, 64
14, 23394, Note_on_c, 5, 76, 70
14, 23436, Note_off_c, 5, 76, 64
14, 23448, Note_on_c, 5, 78, 68
14, 23480, Note_off_c, 5, 78, 64
14, 23505, Note_on_c, 5, 79, 78
14, 23544, Note_off_c, 5, 79, 64
14, 23566, Note_on_c, 5, 78, 59
14, 23604, Note_off_c, 5, 78, 64
14, 23626, Note_on_c, 5, 79, 68
14, 23664, Note_off_c, 5, 79, 64
14, 23683, Note_on_c, 5, 83, 68
14, 23721, Note_off_c, 5, 83, 64
14, 23746, Note_on_c, 5, 81, 68
14, 23789, Note_off_c, 5, 81, 64
14, 23805, Note_on_c, 5, 79, 72
14, 23845, Note_off_c, 5, 79, 64
14, 23865, Note_on_c, 5, 78, 70
14, 23900, Note_off_c, 5, 78, 64
14, 23926, Note_on_c, 5, 79, 66
14, 23957, Note_off_c, 5, 79, 64
14, 23993, Note_on_c, 5, 79, 66
14, 24018, Note_on_c, 5, 78, 46
14, 24024, Note_off_c, 5, 79, 64
14, 24042, Note_off_c, 5, 78, 64
14, 24042, Note_on_c, 5, 79, 70
14, 24061, Note_on_c, 5, 78, 62
14, 24069, Note_off_c, 5, 79, 64
14, 24155, Note_off_c, 5, 78, 64
14, 24187, Note_on_c, 5, 76, 60
14, 24204, Note_on_c, 5, 74, 66
14, 24210, Note_off_c, 5, 76, 64
14, 24235, Note_off_c, 5, 74, 64
14, 24243, Note_on_c, 5, 81, 70
14, 24348, Note_off_c, 5, 81, 64
14, 24404, Note_on_c, 5, 72, 59
14, 24434, Note_off_c, 5, 72, 64
14, 24466, Note_on_c, 5, 71, 70
14, 24607, Note_off_c, 5, 71, 64
14, 24633, Note_on_c, 5, 72, 59
14, 24652, Note_on_c, 5, 71, 66
14, 24660, Note_off_c, 5, 72, 64
14, 24682, Note_on_c, 5, 72, 63
14, 24687, Note_off_c, 5, 71, 64
14, 24710, Note_off_c, 5, 72, 64
14, 24710, Note_on_c, 5, 74, 58
14, 24738, Note_on_c, 5, 72, 56
14, 24744, Note_off_c, 5, 74, 64
14, 24759, Note_off_c, 5, 72, 64
14, 24762, Note_on_c, 5, 74, 58
14, 24780, Note_on_c, 5, 72, 60
14, 24784, Note_off_c, 5, 74, 64
14, 24798, Note_off_c, 5, 72, 64
14, 24800, Note_on_c, 5, 74, 59
14, 24815, Note_on_c, 5, 72, 54
14, 24817, Note_off_c, 5, 74, 64
14, 24828, Note_off_c, 5, 72, 64
14, 24830, Note_on_c, 5, 74, 66
14, 24848, Note_on_c, 5, 72, 64
14, 24857, Note_off_c, 5, 74, 64
14, 24875, Note_on_c, 5, 71, 64
14, 24876, Note_off_c, 5, 72, 64
14, 24902, Note_on_c, 5, 72, 59
14, 24913, Note_off_c, 5, 71, 64
14, 24934, Note_on_c, 5, 74, 78
14, 24935, Note_off_c, 5, 72, 64
14, 25214, Note_off_c, 5, 74, 64
14, 25242, Note_on_c, 5, 76, 66
14, 25263, Note_on_c, 5, 74, 68
14, 25279, Note_off_c, 5, 76, 64
14, 25290, Note_on_c, 5, 72, 60
14, 25309, Note_off_c, 5, 74, 64
14, 25310, Note_on_c, 5, 71, 60
14, 25323, Note_off_c, 5, 72, 64
14, 25330, Note_on_c, 5, 69, 68
14, 25332, Note_off_c, 5, 71, 64
14, 25349, Note_on_c, 5, 67, 64
14, 25356, Note_off_c, 5, 69, 64
14, 25372, Note_on_c, 5, 65, 68
14, 25379, Note_off_c, 5, 67, 64
14, 25402, Note_on_c, 5, 64, 66
14, 25405, Note_off_c, 5, 65, 64
14, 25430, Note_on_c, 5, 65, 60
14, 25434, Note_off_c, 5, 64, 64
14, 25804, Note_off_c, 5, 65, 64
14, 25856, Note_on_c, 5, 65, 63
14, 25886, Note_off_c, 5, 65, 64
14, 25923, Note_on_c, 5, 67, 74
14, 25941, Note_on_c, 5, 65, 61
14, 25948, Note_off_c, 5, 67, 64
14, 25961, Note_on_c, 5, 67, 66
14, 25962, Note_off_c, 5, 65, 64
14, 25980, Note_on_c, 5, 65, 66
14, 25992, Note_off_c, 5, 67, 64
14, 26034, Note_off_c, 5, 65, 64
14, 26097, Note_on_c, 5, 64, 59
14, 26119, Note_on_c, 5, 62, 66
14, 26128, Note_off_c, 5, 64, 64
14, 26151, Note_off_c, 5, 62, 64
14, 26155, Note_on_c, 5, 64, 72
14, 26259, Note_off_c, 5, 64, 64
14, 26333, Note_on_c, 5, 66, 70
14, 26364, Note_off_c, 5, 66, 64
14, 26398, Note_on_c, 5, 67, 68
14, 26775, Note_off_c, 5, 67, 64
14, 26821, Note_on_c, 5, 67, 85
14, 26847, Note_off_c, 5, 67, 64
14, 26879, Note_on_c, 5, 69, 66
14, 26897, Note_on_c, 5, 67, 63
14, 26902, Note_off_c, 5, 69, 64
14, 26919, Note_on_c, 5, 69, 72
14, 26920, Note_off_c, 5, 67, 64
14, 26942, Note_on_c, 5, 67, 66
14, 26952, Note_off_c, 5, 69, 64
14, 27011, Note_off_c, 5, 67, 64
14, 27056, Note_on_c, 5, 66, 60
14, 27081, Note_on_c, 5, 64, 68
14, 27096, Note_off_c, 5, 66, 64
14, 27114, Note_off_c, 5, 64, 64
14, 27118, Note_on_c, 5, 74, 78
14, 27140, Note_on_c, 5, 72, 68
14, 27143, Note_off_c, 5, 74, 64
14, 27160, Note_on_c, 5, 74, 59
14, 27163, Note_off_c, 5, 72, 64
14, 27181, Note_on_c, 5, 72, 70
14, 27189, Note_off_c, 5, 74, 64
14, 27251, Note_off_c, 5, 72, 64
14, 27297, Note_on_c, 5, 71, 80
14, 27320, Note_on_c, 5, 69, 82
14, 27334, Note_off_c, 5, 71, 64
14, 27347, Note_off_c, 5, 69, 64
14, 27355, Note_on_c, 5, 79, 66
14, 27374, Note_on_c, 5, 78, 51
14, 27383, Note_off_c, 5, 79, 64
14, 27394, Note_on_c, 5, 79, 70
14, 27397, Note_off_c, 5, 78, 64
14, 27419, Note_on_c, 5, 78, 57
14, 27431, Note_off_c, 5, 79, 64
14, 27490, Note_off_c, 5, 78, 64
14, 27539, Note_on_c, 5, 76, 76
14, 27561, Note_on_c, 5, 74, 85
14, 27570, Note_off_c, 5, 76, 64
14, 27588, Note_off_c, 5, 74, 64
14, 27597, Note_on_c, 5, 81, 76
14, 27703, Note_off_c, 5, 81, 64
14, 27767, Note_on_c, 5, 72, 80
14, 27792, Note_off_c, 5, 72, 64
14, 27832, Note_on_c, 5, 72, 89
14, 27948, Note_on_c, 5, 71, 58
14, 27952, Note_off_c, 5, 72, 64
14, 28118, Note_off_c, 5, 71, 64
14, 28132, Note_on_c, 5, 69, 66
14, 28183, Note_off_c, 5, 69, 64
14, 28189, Note_on_c, 5, 67, 64
14, 28231, Note_off_c, 5, 67, 64
14, 28244, Note_on_c, 5, 66, 64
14, 28287, Note_off_c, 5, 66, 64
14, 28305, Note_on_c, 5, 67, 68
14, 28351, Note_off_c, 5, 67, 64
14, 28367, Note_on_c, 5, 62, 60
14, 28408, Note_off_c, 5, 62, 64
14, 28428, Note_on_c, 5, 64, 59
14, 28472, Note_off_c, 5, 64, 64
14, 28484, Note_on_c, 5, 66, 60
14, 28533, Note_off_c, 5, 66, 64
14, 28547, Note_on_c, 5, 67, 72
14, 28602, Note_off_c, 5, 67, 64
14, 28610, Note_on_c, 5, 69, 76
14, 28653, Note_off_c, 5, 69, 64
14, 28672, Note_on_c, 5, 71, 72
14, 28716, Note_off_c, 5, 71, 64
14, 28732, Note_on_c, 5, 72, 72
14, 28771, Note_off_c, 5, 72, 64
14, 28795, Note_on_c, 5, 74, 76
14, 29072, Note_off_c, 5, 74, 64
14, 29089, Note_on_c, 5, 72, 80
14, 29131, Note_off_c, 5, 72, 64
14, 29145, Note_on_c, 5, 74, 74
14, 29180, Note_off_c, 5, 74, 64
14, 29197, Note_on_c, 5, 76, 78
14, 29230, Note_off_c, 5, 76, 64
14, 29262, Note_on_c, 5, 67, 64
14, 29317, Note_on_c, 5, 66, 49
14, 29320, Note_off_c, 5, 67, 64
14, 29336, Note_on_c, 5, 67, 68
14, 29337, Note_off_c, 5, 66, 64
14, 29357, Note_on_c, 5, 66, 60
14, 29363, Note_off_c, 5, 67, 64
14, 29376, Note_off_c, 5, 66, 64
14, 29377, Note_on_c, 5, 67, 74
14, 29391, Note_on_c, 5, 66, 64
14, 29400, Note_off_c, 5, 67, 64
14, 29535, Note_off_c, 5, 66, 64
14, 29573, Note_on_c, 5, 67, 68
14, 29609, Note_off_c, 5, 67, 64
14, 29633, Note_on_c, 5, 69, 68
14, 29674, Note_off_c, 5, 69, 64
14, 29690, Note_on_c, 5, 71, 78
14, 29724, Note_off_c, 5, 71, 64
14, 29751, Note_on_c, 5, 72, 74
14, 29884, Note_off_c, 5, 72, 64
14, 29933, Note_on_c, 5, 71, 72
14, 29957, Note_on_c, 5, 69, 72
14, 29966, Note_off_c, 5, 71, 64
14, 29988, Note_off_c, 5, 69, 64
14, 29994, Note_on_c, 5, 71, 70
14, 30094, Note_off_c, 5, 71, 64
14, 30173, Note_on_c, 5, 72, 82
14, 30204, Note_off_c, 5, 72, 64
14, 30231, Note_on_c, 5, 71, 87
14, 30296, Note_on_c, 5, 69, 56
14, 30302, Note_off_c, 5, 71, 64
14, 30325, Note_on_c, 5, 71, 64
14, 30327, Note_off_c, 5, 69, 64
14, 30356, Note_off_c, 5, 71, 64
14, 30356, Note_on_c, 5, 69, 49
14, 30372, Note_off_c, 5, 69, 64
14, 30373, Note_on_c, 5, 71, 61
14, 30396, Note_off_c, 5, 71, 64
14, 30396, Note_on_c, 5, 69, 58
14, 30411, Note_off_c, 5, 69, 64
14, 30412, Note_on_c, 5, 71, 64
14, 30428, Note_on_c, 5, 69, 64
14, 30432, Note_off_c, 5, 71, 64
14, 30445, Note_on_c, 5, 71, 74
14, 30447, Note_off_c, 5, 69, 64
14, 30463, Note_on_c, 5, 69, 80
14, 30470, Note_off_c, 5, 71, 64
14, 30593, Note_off_c, 5, 69, 64
14, 30642, Note_on_c, 5, 67, 70
14, 30677, Note_off_c, 5, 67, 64
14, 30720, Note_on_c, 5, 67, 82
14, 30785, Note_off_c, 5, 67, 64
14, 55255, Note_on_c, 5, 77, 78
14, 55297, Note_off_c, 5, 77, 64
14, 55315, Note_on_c, 5, 76, 78
14, 55354, Note_off_c, 5, 76, 64
14, 55374, Note_on_c, 5, 74, 76
14, 55425, Note_off_c, 5, 74, 64
14, 55436, Note_on_c, 5, 72, 66
14, 55475, Note_off_c, 5, 72, 64
14, 55494, Note_on_c, 5, 71, 63
14, 55534, Note_off_c, 5, 71, 64
14, 55553, Note_on_c, 5, 72, 62
14, 55587, Note_off_c, 5, 72, 64
14, 55609, Note_on_c, 5, 69, 57
14, 55664, Note_off_c, 5, 69, 64
14, 55679, Note_on_c, 5, 76, 70
14, 56383, Note_off_c, 5, 76, 64
14, 56386, Note_on_c, 5, 75, 53
14, 56604, Note_off_c, 5, 75, 64
14, 56626, Note_on_c, 5, 76, 66
14, 57134, Note_off_c, 5, 76, 64
14, 57167, Note_on_c, 5, 77, 72
14, 57214, Note_off_c, 5, 77, 64
14, 57224, Note_on_c, 5, 76, 62
14, 57275, Note_off_c, 5, 76, 64
14, 57284, Note_on_c, 5, 74, 68
14, 57324, Note_off_c, 5, 74, 64
14, 57345, Note_on_c, 5, 73, 60
14, 57398, Note_off_c, 5, 73, 64
14, 57407, Note_on_c, 5, 71, 42
14, 57447, Note_off_c, 5, 71, 64
14, 57466, Note_on_c, 5, 73, 33
14, 57515, Note_off_c, 5, 73, 64
14, 57531, Note_on_c, 5, 69, 58
14, 57576, Note_off_c, 5, 69, 64
14, 57599, Note_on_c, 5, 74, 61
14, 58309, Note_off_c, 5, 74, 64
14, 58318, Note_on_c, 5, 73, 55
14, 58540, Note_off_c, 5, 73, 64
14, 58559, Note_on_c, 5, 74, 60
14, 59055, Note_off_c, 5, 74, 64
14, 59083, Note_on_c, 5, 76, 68
14, 59139, Note_off_c, 5, 76, 64
14, 59142, Note_on_c, 5, 74, 66
14, 59185, Note_off_c, 5, 74, 64
14, 59200, Note_on_c, 5, 72, 64
14, 59243, Note_off_c, 5, 72, 64
14, 59258, Note_on_c, 5, 71, 60
14, 59307, Note_off_c, 5, 71, 64
14, 59312, Note_on_c, 5, 69, 59
14, 59370, Note_on_c, 5, 71, 53
14, 59371, Note_off_c, 5, 69, 64
14, 59420, Note_off_c, 5, 71, 64
14, 59435, Note_on_c, 5, 67, 60
14, 59484, Note_off_c, 5, 67, 64
14, 59496, Note_on_c, 5, 72, 64
14, 60211, Note_off_c, 5, 72, 64
14, 60229, Note_on_c, 5, 71, 60
14, 60449, Note_off_c, 5, 71, 64
14, 60485, Note_on_c, 5, 72, 62
14, 60539, Note_on_c, 5, 71, 68
14, 60541, Note_off_c, 5, 72, 64
14, 60598, Note_off_c, 5, 71, 64
14, 60598, Note_on_c, 5, 72, 63
14, 60652, Note_off_c, 5, 72, 64
14, 60656, Note_on_c, 5, 74, 59
14, 60716, Note_off_c, 5, 74, 64
14, 60717, Note_on_c, 5, 76, 62
14, 60763, Note_off_c, 5, 76, 64
14, 60770, Note_on_c, 5, 74, 66
14, 60828, Note_on_c, 5, 76, 70
14, 60829, Note_off_c, 5, 74, 64
14, 60880, Note_off_c, 5, 76, 64
14, 60880, Note_on_c, 5, 78, 68
14, 60928, Note_off_c, 5, 78, 64
14, 60946, Note_on_c, 5, 79, 76
14, 61082, Note_off_c, 5, 79, 64
14, 61133, Note_on_c, 5, 74, 66
14, 61166, Note_off_c, 5, 74, 64
14, 61190, Note_on_c, 5, 79, 85
14, 61319, Note_off_c, 5, 79, 64
14, 61375, Note_on_c, 5, 79, 76
14, 61400, Note_off_c, 5, 79, 64
14, 61430, Note_on_c, 5, 79, 91
14, 61541, Note_off_c, 5, 79, 64
14, 61583, Note_on_c, 5, 78, 66
14, 61619, Note_on_c, 5, 76, 63
14, 61622, Note_off_c, 5, 78, 64
14, 61647, Note_on_c, 5, 78, 57
14, 61658, Note_off_c, 5, 76, 64
14, 61669, Note_off_c, 5, 78, 64
14, 61673, Note_on_c, 5, 79, 68
14, 61701, Note_on_c, 5, 78, 91
14, 61712, Note_off_c, 5, 79, 64
14, 61729, Note_on_c, 5, 79, 70
14, 61730, Note_off_c, 5, 78, 64
14, 61750, Note_on_c, 5, 78, 78
14, 61767, Note_off_c, 5, 79, 64
14, 61822, Note_off_c, 5, 78, 64
14, 61850, Note_on_c, 5, 79, 78
14, 61886, Note_off_c, 5, 79, 64
14, 61915, Note_on_c, 5, 79, 80
14, 62154, Note_off_c, 5, 79, 64
14, 62267, Note_on_c, 5, 76, 68
14, 62435, Note_off_c, 5, 76, 64
14, 62456, Note_on_c, 5, 79, 80
14, 62508, Note_off_c, 5, 79, 64
14, 62510, Note_on_c, 5, 78, 70
14, 62557, Note_off_c, 5, 78, 64
14, 62563, Note_on_c, 5, 76, 62
14, 62620, Note_off_c, 5, 76, 64
14, 62623, Note_on_c, 5, 74, 59
14, 62682, Note_on_c, 5, 72, 49
14, 62684, Note_off_c, 5, 74, 64
14, 62735, Note_off_c, 5, 72, 64
14, 62743, Note_on_c, 5, 71, 52
14, 62791, Note_off_c, 5, 71, 64
14, 62792, Note_on_c, 5, 69, 58
14, 62857, Note_off_c, 5, 69, 64
14, 62860, Note_on_c, 5, 67, 49
14, 62909, Note_off_c, 5, 67, 64
14, 62922, Note_on_c, 5, 71, 66
14, 62976, Note_off_c, 5, 71, 64
14, 62978, Note_on_c, 5, 69, 57
14, 63026, Note_off_c, 5, 69, 64
14, 63042, Note_on_c, 5, 67, 56
14, 63083, Note_off_c, 5, 67, 64
14, 63104, Note_on_c, 5, 72, 66
14, 63161, Note_on_c, 5, 76, 68
14, 63166, Note_off_c, 5, 72, 64
14, 63216, Note_off_c, 5, 76, 64
14, 63224, Note_on_c, 5, 74, 66
14, 63281, Note_on_c, 5, 72, 60
14, 63282, Note_off_c, 5, 74, 64
14, 63323, Note_off_c, 5, 72, 64
14, 63351, Note_on_c, 5, 81, 87
14, 63411, Note_off_c, 5, 81, 64
14, 63467, Note_on_c, 5, 74, 70
14, 63526, Note_off_c, 5, 74, 64
14, 63603, Note_on_c, 5, 79, 82
14, 63749, Note_off_c, 5, 79, 64
14, 63784, Note_on_c, 5, 79, 78
14, 63811, Note_off_c, 5, 79, 64
14, 63843, Note_on_c, 5, 79, 87
14, 63893, Note_off_c, 5, 79, 64
14, 63897, Note_on_c, 5, 78, 72
14, 63937, Note_off_c, 5, 78, 64
14, 63954, Note_on_c, 5, 79, 80
14, 63992, Note_off_c, 5, 79, 64
14, 64009, Note_on_c, 5, 76, 66
14, 64045, Note_off_c, 5, 76, 64
14, 64068, Note_on_c, 5, 78, 63
14, 64211, Note_off_c, 5, 78, 64
14, 64248, Note_on_c, 5, 78, 89
14, 64280, Note_off_c, 5, 78, 64
14, 64306, Note_on_c, 5, 78, 91
14, 64350, Note_off_c, 5, 78, 64
14, 64433, Note_on_c, 5, 71, 72
14, 64480, Note_off_c, 5, 71, 64
14, 64560, Note_on_c, 5, 76, 78
14, 64706, Note_off_c, 5, 76, 64
14, 64740, Note_on_c, 5, 76, 70
14, 64767, Note_off_c, 5, 76, 64
14, 64803, Note_on_c, 5, 76, 85
14, 64850, Note_off_c, 5, 76, 64
14, 64856, Note_on_c, 5, 74, 78
14, 64894, Note_off_c, 5, 74, 64
14, 64913, Note_on_c, 5, 76, 87
14, 64950, Note_off_c, 5, 76, 64
14, 64966, Note_on_c, 5, 72, 76
14, 65004, Note_off_c, 5, 72, 64
14, 65032, Note_on_c, 5, 74, 70
14, 65170, Note_off_c, 5, 74, 64
14, 65202, Note_on_c, 5, 74, 82
14, 65238, Note_off_c, 5, 74, 64
14, 65266, Note_on_c, 5, 74, 87
14, 65309, Note_off_c, 5, 74, 64
14, 65391, Note_on_c, 5, 67, 78
14, 65446, Note_off_c, 5, 67, 64
14, 65510, Note_on_c, 5, 72, 80
14, 65657, Note_off_c, 5, 72, 64
14, 65697, Note_on_c, 5, 72, 78
14, 65731, Note_off_c, 5, 72, 64
14, 65758, Note_on_c, 5, 72, 87
14, 65804, Note_off_c, 5, 72, 64
14, 65813, Note_on_c, 5, 76, 66
14, 65859, Note_off_c, 5, 76, 64
14, 65871, Note_on_c, 5, 74, 74
14, 65922, Note_on_c, 5, 72, 60
14, 65923, Note_off_c, 5, 74, 64
14, 65979, Note_off_c, 5, 72, 64
14, 65985, Note_on_c, 5, 71, 66
14, 66036, Note_off_c, 5, 71, 64
14, 66039, Note_on_c, 5, 69, 57
14, 66091, Note_off_c, 5, 69, 64
14, 66108, Note_on_c, 5, 67, 64
14, 66161, Note_off_c, 5, 67, 64
14, 66167, Note_on_c, 5, 66, 85
14, 66224, Note_off_c, 5, 66, 64
14, 66227, Note_on_c, 5, 67, 72
14, 66283, Note_off_c, 5, 67, 64
14, 66284, Note_on_c, 5, 71, 60
14, 66332, Note_off_c, 5, 71, 64
14, 66346, Note_on_c, 5, 76, 78
14, 66397, Note_on_c, 5, 74, 70
14, 66400, Note_off_c, 5, 76, 64
14, 66449, Note_off_c, 5, 74, 64
14, 66464, Note_on_c, 5, 72, 58
14, 66512, Note_off_c, 5, 72, 64
14, 66514, Note_on_c, 5, 71, 56
14, 66569, Note_off_c, 5, 71, 64
14, 66580, Note_on_c, 5, 69, 57
14, 66627, Note_off_c, 5, 69, 64
14, 66637, Note_on_c, 5, 67, 63
14, 66665, Note_off_c, 5, 67, 64
14, 66709, Note_on_c, 5, 78, 82
14, 66764, Note_on_c, 5, 76, 62
14, 66765, Note_off_c, 5, 78, 64
14, 66825, Note_off_c, 5, 76, 64
14, 66833, Note_on_c, 5, 74, 58
14, 66877, Note_off_c, 5, 74, 64
14, 66885, Note_on_c, 5, 76, 59
14, 66932, Note_off_c, 5, 76, 64
14, 66947, Note_on_c, 5, 78, 80
14, 66999, Note_off_c, 5, 78, 64
14, 66999, Note_on_c, 5, 76, 70
14, 67045, Note_off_c, 5, 76, 64
14, 67062, Note_on_c, 5, 78, 72
14, 67106, Note_off_c, 5, 78, 64
14, 67118, Note_on_c, 5, 74, 70
14, 67159, Note_off_c, 5, 74, 64
14, 67185, Note_on_c, 5, 79, 85
14, 67322, Note_off_c, 5, 79, 64
14, 67363, Note_on_c, 5, 81, 66
14, 67390, Note_off_c, 5, 81, 64
14, 67435, Note_on_c, 5, 79, 85
14, 67456, Note_on_c, 5, 78, 82
14, 67463, Note_off_c, 5, 79, 64
14, 67481, Note_on_c, 5, 79, 63
14, 67484, Note_off_c, 5, 78, 64
14, 67511, Note_on_c, 5, 78, 68
14, 67525, Note_off_c, 5, 79, 64
14, 67572, Note_off_c, 5, 78, 64
14, 67608, Note_on_c, 5, 79, 70
14, 67645, Note_off_c, 5, 79, 64
14, 67680, Note_on_c, 5, 79, 87
14, 67752, Note_off_c, 5, 79, 64
14, 85304, Note_on_c, 5, 81, 70
14, 85460, Note_off_c, 5, 81, 64
14, 85492, Note_on_c, 5, 84, 66
14, 85550, Note_off_c, 5, 84, 64
14, 85551, Note_on_c, 5, 83, 62
14, 85596, Note_off_c, 5, 83, 64
14, 85608, Note_on_c, 5, 81, 64
14, 85667, Note_off_c, 5, 81, 64
14, 85670, Note_on_c, 5, 79, 61
14, 85724, Note_off_c, 5, 79, 64
14, 85727, Note_on_c, 5, 77, 60
14, 85781, Note_off_c, 5, 77, 64
14, 85783, Note_on_c, 5, 76, 58
14, 85840, Note_off_c, 5, 76, 64
14, 85847, Note_on_c, 5, 74, 53
14, 85904, Note_off_c, 5, 74, 64
14, 85916, Note_on_c, 5, 72, 66
14, 85969, Note_off_c, 5, 72, 64
14, 85975, Note_on_c, 5, 76, 61
14, 86033, Note_off_c, 5, 76, 64
14, 86033, Note_on_c, 5, 74, 52
14, 86091, Note_on_c, 5, 72, 60
14, 86093, Note_off_c, 5, 74, 64
14, 86138, Note_off_c, 5, 72, 64
14, 86155, Note_on_c, 5, 77, 74
14, 86299, Note_off_c, 5, 77, 64
14, 86338, Note_on_c, 5, 77, 80
14, 86370, Note_off_c, 5, 77, 64
14, 86405, Note_on_c, 5, 77, 82
14, 86460, Note_off_c, 5, 77, 64
14, 86460, Note_on_c, 5, 76, 66
14, 86509, Note_off_c, 5, 76, 64
14, 86520, Note_on_c, 5, 74, 68
14, 86571, Note_on_c, 5, 76, 58
14, 86572, Note_off_c, 5, 74, 64
14, 86601, Note_off_c, 5, 76, 64
14, 86636, Note_on_c, 5, 77, 76
14, 86662, Note_on_c, 5, 76, 64
14, 86664, Note_off_c, 5, 77, 64
14, 86693, Note_on_c, 5, 77, 72
14, 86694, Note_off_c, 5, 76, 64
14, 86717, Note_on_c, 5, 76, 72
14, 86729, Note_off_c, 5, 77, 64
14, 86778, Note_off_c, 5, 76, 64
14, 86812, Note_on_c, 5, 76, 78
14, 86847, Note_off_c, 5, 76, 64
14, 86874, Note_on_c, 5, 76, 85
14, 86927, Note_off_c, 5, 76, 64
14, 86933, Note_on_c, 5, 69, 66
14, 86990, Note_on_c, 5, 71, 53
14, 86991, Note_off_c, 5, 69, 64
14, 87035, Note_off_c, 5, 71, 64
14, 87047, Note_on_c, 5, 72, 64
14, 87090, Note_off_c, 5, 72, 64
14, 87118, Note_on_c, 5, 74, 74
14, 87256, Note_off_c, 5, 74, 64
14, 87298, Note_on_c, 5, 74, 82
14, 87331, Note_off_c, 5, 74, 64
14, 87368, Note_on_c, 5, 74, 87
14, 87419, Note_off_c, 5, 74, 64
14, 87420, Note_on_c, 5, 72, 66
14, 87465, Note_off_c, 5, 72, 64
14, 87476, Note_on_c, 5, 74, 60
14, 87531, Note_off_c, 5, 74, 64
14, 87536, Note_on_c, 5, 71, 64
14, 87586, Note_off_c, 5, 71, 64
14, 87602, Note_on_c, 5, 72, 66
14, 87653, Note_off_c, 5, 72, 64
14, 87661, Note_on_c, 5, 76, 68
14, 87707, Note_off_c, 5, 76, 64
14, 87714, Note_on_c, 5, 74, 55
14, 87769, Note_off_c, 5, 74, 64
14, 87775, Note_on_c, 5, 76, 64
14, 87818, Note_off_c, 5, 76, 64
14, 87837, Note_on_c, 5, 77, 82
14, 87895, Note_off_c, 5, 77, 64
14, 87895, Note_on_c, 5, 79, 72
14, 87950, Note_off_c, 5, 79, 64
14, 87958, Note_on_c, 5, 77, 70
14, 88012, Note_off_c, 5, 77, 64
14, 88014, Note_on_c, 5, 76, 70
14, 88069, Note_off_c, 5, 76, 64
14, 88075, Note_on_c, 5, 74, 70
14, 88124, Note_off_c, 5, 74, 64
14, 88131, Note_on_c, 5, 72, 58
14, 88184, Note_off_c, 5, 72, 64
14, 88191, Note_on_c, 5, 74, 63
14, 88247, Note_on_c, 5, 71, 60
14, 88250, Note_off_c, 5, 74, 64
14, 88290, Note_off_c, 5, 71, 64
14, 88312, Note_on_c, 5, 72, 66
14, 88372, Note_on_c, 5, 74, 70
14, 88373, Note_off_c, 5, 72, 64
14, 88436, Note_on_c, 5, 76, 64
14, 88439, Note_off_c, 5, 74, 64
14, 88482, Note_off_c, 5, 76, 64
14, 88487, Note_on_c, 5, 77, 72
14, 88545, Note_off_c, 5, 77, 64
14, 88549, Note_on_c, 5, 79, 57
14, 88605, Note_off_c, 5, 79, 64
14, 88609, Note_on_c, 5, 81, 72
14, 88670, Note_off_c, 5, 81, 64
14, 88671, Note_on_c, 5, 82, 68
14, 88721, Note_off_c, 5, 82, 64
14, 88725, Note_on_c, 5, 79, 58
14, 88769, Note_off_c, 5, 79, 64
14, 88792, Note_on_c, 5, 81, 82
14, 88848, Note_on_c, 5, 82, 59
14, 88855, Note_off_c, 5, 81, 64
14, 88901, Note_off_c, 5, 82, 64
14, 88911, Note_on_c, 5, 81, 64
14, 88968, Note_on_c, 5, 79, 66
14, 88976, Note_off_c, 5, 81, 64
14, 89024, Note_off_c, 5, 79, 64
14, 89027, Note_on_c, 5, 77, 59
14, 89077, Note_off_c, 5, 77, 64
14, 89083, Note_on_c, 5, 76, 57
14, 89144, Note_on_c, 5, 74, 56
14, 89149, Note_off_c, 5, 76, 64
14, 89198, Note_off_c, 5, 74, 64
14, 89200, Note_on_c, 5, 72, 60
14, 89242, Note_off_c, 5, 72, 64
14, 89270, Note_on_c, 5, 71, 72
14, 89319, Note_off_c, 5, 71, 64
14, 89325, Note_on_c, 5, 76, 60
14, 89387, Note_off_c, 5, 76, 64
14, 89388, Note_on_c, 5, 74, 70
14, 89441, Note_off_c, 5, 74, 64
14, 89451, Note_on_c, 5, 72, 56
14, 89496, Note_off_c, 5, 72, 64
14, 89511, Note_on_c, 5, 71, 70
14, 89556, Note_off_c, 5, 71, 64
14, 89560, Note_on_c, 5, 69, 63
14, 89626, Note_off_c, 5, 69, 64
14, 89628, Note_on_c, 5, 71, 63
14, 89678, Note_off_c, 5, 71, 64
14, 89688, Note_on_c, 5, 67, 60
14, 89734, Note_off_c, 5, 67, 64
14, 89751, Note_on_c, 5, 72, 63
14, 90474, Note_off_c, 5, 72, 64
14, 90480, Note_on_c, 5, 71, 68
14, 90678, Note_off_c, 5, 71, 64
14, 90717, Note_on_c, 5, 72, 76
14, 90773, Note_off_c, 5, 72, 64
14, 90776, Note_on_c, 5, 71, 59
14, 90843, Note_on_c, 5, 72, 64
14, 90848, Note_off_c, 5, 71, 64
14, 90903, Note_on_c, 5, 74, 68
14, 90909, Note_off_c, 5, 72, 64
14, 90968, Note_on_c, 5, 76, 76
14, 90973, Note_off_c, 5, 74, 64
14, 91014, Note_off_c, 5, 76, 64
14, 91025, Note_on_c, 5, 74, 66
14, 91078, Note_off_c, 5, 74, 64
14, 91090, Note_on_c, 5, 76, 59
14, 91134, Note_on_c, 5, 78, 56
14, 91141, Note_off_c, 5, 76, 64
14, 91177, Note_off_c, 5, 78, 64
14, 91196, Note_on_c, 5, 79, 80
14, 91328, Note_off_c, 5, 79, 64
14, 91382, Note_on_c, 5, 74, 68
14, 91414, Note_off_c, 5, 74, 64
14, 91447, Note_on_c, 5, 79, 87
14, 91571, Note_off_c, 5, 79, 64
14, 91619, Note_on_c, 5, 79, 82
14, 91645, Note_off_c, 5, 79, 64
14, 91676, Note_on_c, 5, 79, 91
14, 91792, Note_off_c, 5, 79, 64
14, 91836, Note_on_c, 5, 78, 64
14, 91871, Note_on_c, 5, 76, 64
14, 91872, Note_off_c, 5, 78, 64
14, 91901, Note_on_c, 5, 78, 53
14, 91910, Note_off_c, 5, 76, 64
14, 91921, Note_off_c, 5, 78, 64
14, 91925, Note_on_c, 5, 79, 66
14, 91949, Note_on_c, 5, 78, 64
14, 91960, Note_off_c, 5, 79, 64
14, 91974, Note_on_c, 5, 79, 72
14, 91983, Note_off_c, 5, 78, 64
14, 92015, Note_on_c, 5, 78, 66
14, 92026, Note_off_c, 5, 79, 64
14, 92066, Note_off_c, 5, 78, 64
14, 92098, Note_on_c, 5, 79, 87
14, 92132, Note_off_c, 5, 79, 64
14, 92163, Note_on_c, 5, 79, 93
14, 92262, Note_off_c, 5, 79, 64
14, 92279, Note_on_c, 5, 77, 70
14, 92328, Note_on_c, 5, 76, 66
14, 92329, Note_off_c, 5, 77, 64
14, 92366, Note_off_c, 5, 76, 64
14, 92384, Note_on_c, 5, 74, 66
14, 92437, Note_off_c, 5, 74, 64
14, 92439, Note_on_c, 5, 71, 66
14, 92493, Note_off_c, 5, 71, 64
14, 92504, Note_on_c, 5, 72, 60
14, 92550, Note_off_c, 5, 72, 64
14, 92557, Note_on_c, 5, 74, 64
14, 92600, Note_off_c, 5, 74, 64
14, 92628, Note_on_c, 5, 67, 68
14, 92670, Note_off_c, 5, 67, 64
14, 92755, Note_on_c, 5, 79, 80
14, 92798, Note_off_c, 5, 79, 64
14, 92883, Note_on_c, 5, 76, 68
14, 92925, Note_off_c, 5, 76, 64
14, 92996, Note_on_c, 5, 81, 85
14, 93043, Note_off_c, 5, 81, 64
14, 93119, Note_on_c, 5, 77, 87
14, 93177, Note_off_c, 5, 77, 64
14, 93177, Note_on_c, 5, 79, 72
14, 93224, Note_off_c, 5, 79, 64
14, 93240, Note_on_c, 5, 77, 60
14, 93293, Note_off_c, 5, 77, 64
14, 93296, Note_on_c, 5, 76, 58
14, 93345, Note_off_c, 5, 76, 64
14, 93361, Note_on_c, 5, 74, 68
14, 93412, Note_off_c, 5, 74, 64
14, 93419, Note_on_c, 5, 77, 72
14, 93477, Note_off_c, 5, 77, 64
14, 93480, Note_on_c, 5, 76, 59
14, 93530, Note_off_c, 5, 76, 64
14, 93535, Note_on_c, 5, 74, 66
14, 93572, Note_off_c, 5, 74, 64
14, 93598, Note_on_c, 5, 79, 87
14, 93650, Note_on_c, 5, 77, 80
14, 93656, Note_off_c, 5, 79, 64
14, 93707, Note_off_c, 5, 77, 64
14, 93715, Note_on_c, 5, 76, 62
14, 93770, Note_on_c, 5, 74, 61
14, 93776, Note_off_c, 5, 76, 64
14, 93831, Note_off_c, 5, 74, 64
14, 93833, Note_on_c, 5, 72, 66
14, 93878, Note_off_c, 5, 72, 64
14, 93892, Note_on_c, 5, 71, 52
14, 93943, Note_off_c, 5, 71, 64
14, 93953, Note_on_c, 5, 72, 57
14, 93996, Note_off_c, 5, 72, 64
14, 94008, Note_on_c, 5, 69, 58
14, 94049, Note_off_c, 5, 69, 64
14, 94078, Note_on_c, 5, 74, 74
14, 94172, Note_off_c, 5, 74, 64
14, 94197, Note_on_c, 5, 76, 66
14, 94238, Note_off_c, 5, 76, 64
14, 94251, Note_on_c, 5, 78, 61
14, 94291, Note_off_c, 5, 78, 64
14, 94316, Note_on_c, 5, 79, 78
14, 94409, Note_off_c, 5, 79, 64
14, 94433, Note_on_c, 5, 81, 72
14, 94473, Note_off_c, 5, 81, 64
14, 94487, Note_on_c, 5, 83, 80
14, 94525, Note_off_c, 5, 83, 64
14, 94554, Note_on_c, 5, 84, 85
14, 94677, Note_off_c, 5, 84, 64
14, 94724, Note_on_c, 5, 83, 57
14, 94744, Note_off_c, 5, 83, 64
14, 94784, Note_on_c, 5, 83, 87
14, 94806, Note_on_c, 5, 81, 78
14, 94808, Note_off_c, 5, 83, 64
14, 94830, Note_on_c, 5, 83, 57
14, 94835, Note_off_c, 5, 81, 64
14, 94862, Note_on_c, 5, 81, 66
14, 94873, Note_off_c, 5, 83, 64
14, 94925, Note_off_c, 5, 81, 64
14, 94967, Note_on_c, 5, 79, 70
14, 94999, Note_off_c, 5, 79, 64
14, 95032, Note_on_c, 5, 79, 74
14, 95132, Note_off_c, 5, 79, 64
14, 95151, Note_on_c, 5, 77, 60
14, 95212, Note_off_c, 5, 77, 64
14, 95216, Note_on_c, 5, 76, 52
14, 95267, Note_off_c, 5, 76, 64
14, 95277, Note_on_c, 5, 74, 64
14, 95328, Note_off_c, 5, 74, 64
14, 95333, Note_on_c, 5, 76, 57
14, 95378, Note_off_c, 5, 76, 64
14, 95390, Note_on_c, 5, 77, 59
14, 95441, Note_off_c, 5, 77, 64
14, 95444, Note_on_c, 5, 74, 60
14, 95490, Note_off_c, 5, 74, 64
14, 95508, Note_on_c, 5, 76, 80
14, 95552, Note_off_c, 5, 76, 64
14, 95634, Note_on_c, 5, 72, 68
14, 95678, Note_off_c, 5, 72, 64
14, 95763, Note_on_c, 5, 84, 85
14, 95903, Note_off_c, 5, 84, 64
14, 95947, Note_on_c, 5, 84, 76
14, 95973, Note_off_c, 5, 84, 64
14, 96003, Note_on_c, 5, 84, 87
14, 96048, Note_off_c, 5, 84, 64
14, 96062, Note_on_c, 5, 82, 80
14, 96107, Note_off_c, 5, 82, 64
14, 96123, Note_on_c, 5, 84, 87
14, 96161, Note_off_c, 5, 84, 64
14, 96172, Note_on_c, 5, 81, 68
14, 96210, Note_off_c, 5, 81, 64
14, 96235, Note_on_c, 5, 82, 85
14, 96362, Note_off_c, 5, 82, 64
14, 96417, Note_on_c, 5, 82, 76
14, 96446, Note_off_c, 5, 82, 64
14, 96474, Note_on_c, 5, 82, 85
14, 96516, Note_off_c, 5, 82, 64
14, 96599, Note_on_c, 5, 76, 66
14, 96641, Note_off_c, 5, 76, 64
14, 96718, Note_on_c, 5, 81, 82
14, 96850, Note_off_c, 5, 81, 64
14, 96904, Note_on_c, 5, 81, 85
14, 96935, Note_off_c, 5, 81, 64
14, 96962, Note_on_c, 5, 81, 82
14, 97008, Note_off_c, 5, 81, 64
14, 97018, Note_on_c, 5, 79, 72
14, 97058, Note_off_c, 5, 79, 64
14, 97074, Note_on_c, 5, 81, 78
14, 97121, Note_off_c, 5, 81, 64
14, 97132, Note_on_c, 5, 77, 70
14, 97167, Note_off_c, 5, 77, 64
14, 97193, Note_on_c, 5, 79, 80
14, 97324, Note_off_c, 5, 79, 64
14, 97367, Note_on_c, 5, 79, 68
14, 97402, Note_off_c, 5, 79, 64
14, 97427, Note_on_c, 5, 79, 80
14, 97470, Note_off_c, 5, 79, 64
14, 97555, Note_on_c, 5, 72, 76
14, 97596, Note_off_c, 5, 72, 64
14, 97668, Note_on_c, 5, 77, 80
14, 97809, Note_off_c, 5, 77, 64
14, 97860, Note_on_c, 5, 77, 72
14, 97893, Note_off_c, 5, 77, 64
14, 97923, Note_on_c, 5, 77, 85
14, 97978, Note_off_c, 5, 77, 64
14, 97980, Note_on_c, 5, 81, 76
14, 98032, Note_off_c, 5, 81, 64
14, 98037, Note_on_c, 5, 79, 70
14, 98083, Note_off_c, 5, 79, 64
14, 98093, Note_on_c, 5, 77, 64
14, 98151, Note_on_c, 5, 76, 57
14, 98163, Note_off_c, 5, 77, 64
14, 98208, Note_off_c, 5, 76, 64
14, 98209, Note_on_c, 5, 74, 58
14, 98263, Note_on_c, 5, 72, 54
14, 98267, Note_off_c, 5, 74, 64
14, 98322, Note_on_c, 5, 71, 49
14, 98327, Note_off_c, 5, 72, 64
14, 98374, Note_off_c, 5, 71, 64
14, 98389, Note_on_c, 5, 72, 70
14, 98440, Note_off_c, 5, 72, 64
14, 98445, Note_on_c, 5, 76, 52
14, 98498, Note_off_c, 5, 76, 64
14, 98513, Note_on_c, 5, 81, 82
14, 98569, Note_off_c, 5, 81, 64
14, 98573, Note_on_c, 5, 79, 66
14, 98621, Note_off_c, 5, 79, 64
14, 98636, Note_on_c, 5, 77, 60
14, 98692, Note_on_c, 5, 76, 60
14, 98704, Note_off_c, 5, 77, 64
14, 98751, Note_off_c, 5, 76, 64
14, 98757, Note_on_c, 5, 74, 64
14, 98806, Note_off_c, 5, 74, 64
14, 98815, Note_on_c, 5, 72, 47
14, 98846, Note_off_c, 5, 72, 64
14, 98876, Note_on_c, 5, 71, 74
14, 98931, Note_on_c, 5, 69, 61
14, 98942, Note_off_c, 5, 71, 64
14, 98989, Note_off_c, 5, 69, 64
14, 98996, Note_on_c, 5, 67, 60
14, 99049, Note_off_c, 5, 67, 64
14, 99052, Note_on_c, 5, 69, 63
14, 99102, Note_off_c, 5, 69, 64
14, 99118, Note_on_c, 5, 71, 78
14, 99167, Note_on_c, 5, 69, 58
14, 99171, Note_off_c, 5, 71, 64
14, 99222, Note_off_c, 5, 69, 64
14, 99228, Note_on_c, 5, 71, 64
14, 99272, Note_off_c, 5, 71, 64
14, 99284, Note_on_c, 5, 67, 63
14, 99325, Note_off_c, 5, 67, 64
14, 99345, Note_on_c, 5, 72, 78
14, 99487, Note_off_c, 5, 72, 64
14, 99529, Note_on_c, 5, 74, 66
14, 99555, Note_off_c, 5, 74, 64
14, 99594, Note_on_c, 5, 72, 82
14, 99618, Note_on_c, 5, 71, 80
14, 99622, Note_off_c, 5, 72, 64
14, 99646, Note_on_c, 5, 72, 76
14, 99647, Note_off_c, 5, 71, 64
14, 99676, Note_on_c, 5, 71, 66
14, 99687, Note_off_c, 5, 72, 64
14, 99728, Note_off_c, 5, 71, 64
14, 99763, Note_on_c, 5, 72, 76
14, 99792, Note_off_c, 5, 72, 64
14, 99833, Note_on_c, 5, 72, 72
14, 100074, Note_off_c, 5, 72, 64
14, 110687, Note_on_c, 5, 72, 85
14, 110725, Note_off_c, 5, 72, 64
14, 110747, Note_on_c, 5, 70, 78
14, 110787, Note_off_c, 5, 70, 64
14, 110808, Note_on_c, 5, 69, 82
14, 110843, Note_off_c, 5, 69, 64
14, 110874, Note_on_c, 5, 67, 76
14, 111245, Note_off_c, 5, 67, 64
14, 111299, Note_on_c, 5, 69, 72
14, 111342, Note_off_c, 5, 69, 64
14, 111358, Note_on_c, 5, 70, 70
14, 111448, Note_off_c, 5, 70, 64
14, 111539, Note_on_c, 5, 70, 66
14, 111587, Note_off_c, 5, 70, 64
14, 111600, Note_on_c, 5, 72, 82
14, 111679, Note_off_c, 5, 72, 64
14, 111779, Note_on_c, 5, 74, 85
14, 111820, Note_off_c, 5, 74, 64
14, 111839, Note_on_c, 5, 67, 85
14, 111934, Note_off_c, 5, 67, 64
14, 112014, Note_on_c, 5, 67, 82
14, 112057, Note_off_c, 5, 67, 64
14, 112075, Note_on_c, 5, 69, 85
14, 112170, Note_off_c, 5, 69, 64
14, 112256, Note_on_c, 5, 70, 72
14, 112295, Note_off_c, 5, 70, 64
14, 112317, Note_on_c, 5, 69, 80
14, 112562, Note_off_c, 5, 69, 64
14, 112604, Note_on_c, 5, 69, 82
14, 112649, Note_off_c, 5, 69, 64
14, 112670, Note_on_c, 5, 71, 70
14, 112715, Note_off_c, 5, 71, 64
14, 112727, Note_on_c, 5, 73, 57
14, 112770, Note_off_c, 5, 73, 64
14, 112789, Note_on_c, 5, 74, 72
14, 112836, Note_off_c, 5, 74, 64
14, 112853, Note_on_c, 5, 73, 76
14, 112896, Note_off_c, 5, 73, 64
14, 112910, Note_on_c, 5, 74, 70
14, 112960, Note_off_c, 5, 74, 64
14, 112971, Note_on_c, 5, 76, 70
14, 113013, Note_off_c, 5, 76, 64
14, 113033, Note_on_c, 5, 77, 85
14, 113080, Note_off_c, 5, 77, 64
14, 113091, Note_on_c, 5, 76, 82
14, 113137, Note_off_c, 5, 76, 64
14, 113151, Note_on_c, 5, 77, 85
14, 113197, Note_off_c, 5, 77, 64
14, 113208, Note_on_c, 5, 74, 80
14, 113256, Note_off_c, 5, 74, 64
14, 113274, Note_on_c, 5, 79, 85
14, 113613, Note_off_c, 5, 79, 64
14, 113689, Note_on_c, 5, 79, 72
14, 113723, Note_off_c, 5, 79, 64
14, 113748, Note_on_c, 5, 79, 74
14, 113886, Note_off_c, 5, 79, 64
14, 113942, Note_on_c, 5, 81, 82
14, 113968, Note_off_c, 5, 81, 64
14, 113969, Note_on_c, 5, 82, 59
14, 113988, Note_off_c, 5, 82, 64
14, 114001, Note_on_c, 5, 81, 87
14, 114111, Note_off_c, 5, 81, 64
14, 114175, Note_on_c, 5, 79, 70
14, 114193, Note_on_c, 5, 77, 55
14, 114204, Note_off_c, 5, 79, 64
14, 114213, Note_on_c, 5, 76, 72
14, 114220, Note_off_c, 5, 77, 64
14, 114238, Note_off_c, 5, 76, 64
14, 114247, Note_on_c, 5, 77, 61
14, 114354, Note_off_c, 5, 77, 64
14, 114420, Note_on_c, 5, 74, 74
14, 114460, Note_off_c, 5, 74, 64
14, 114472, Note_on_c, 5, 77, 87
14, 114586, Note_off_c, 5, 77, 64
14, 114652, Note_on_c, 5, 81, 76
14, 114684, Note_off_c, 5, 81, 64
14, 114712, Note_on_c, 5, 79, 85
14, 114770, Note_on_c, 5, 78, 55
14, 114779, Note_off_c, 5, 79, 64
14, 114804, Note_on_c, 5, 79, 63
14, 114808, Note_off_c, 5, 78, 64
14, 114837, Note_on_c, 5, 78, 64
14, 114842, Note_off_c, 5, 79, 64
14, 114862, Note_off_c, 5, 78, 64
14, 114863, Note_on_c, 5, 79, 60
14, 114885, Note_on_c, 5, 78, 66
14, 114889, Note_off_c, 5, 79, 64
14, 114903, Note_off_c, 5, 78, 64
14, 114908, Note_on_c, 5, 79, 59
14, 114926, Note_on_c, 5, 78, 57
14, 114928, Note_off_c, 5, 79, 64
14, 114942, Note_off_c, 5, 78, 64
14, 114945, Note_on_c, 5, 79, 63
14, 114966, Note_on_c, 5, 78, 63
14, 114968, Note_off_c, 5, 79, 64
14, 114980, Note_off_c, 5, 78, 64
14, 114984, Note_on_c, 5, 79, 70
14, 115004, Note_on_c, 5, 78, 70
14, 115007, Note_off_c, 5, 79, 64
14, 115022, Note_off_c, 5, 78, 64
14, 115024, Note_on_c, 5, 79, 66
14, 115043, Note_on_c, 5, 78, 74
14, 115045, Note_off_c, 5, 79, 64
14, 115061, Note_off_c, 5, 78, 64
14, 115063, Note_on_c, 5, 79, 64
14, 115082, Note_on_c, 5, 78, 80
14, 115090, Note_off_c, 5, 79, 64
14, 115112, Note_off_c, 5, 78, 64
14, 115112, Note_on_c, 5, 76, 60
14, 115142, Note_on_c, 5, 78, 66
14, 115153, Note_off_c, 5, 76, 64
14, 115172, Note_off_c, 5, 78, 64
14, 115184, Note_on_c, 5, 79, 70
14, 115688, Note_off_c, 5, 79, 64
14, 115731, Note_on_c, 5, 81, 74
14, 115775, Note_off_c, 5, 81, 64
14, 115789, Note_on_c, 5, 79, 72
14, 115830, Note_off_c, 5, 79, 64
14, 115847, Note_on_c, 5, 77, 76
14, 115886, Note_off_c, 5, 77, 64
14, 115910, Note_on_c, 5, 76, 72
14, 115948, Note_off_c, 5, 76, 64
14, 115964, Note_on_c, 5, 74, 68
14, 116023, Note_off_c, 5, 74, 64
14, 116028, Note_on_c, 5, 76, 74
14, 116071, Note_off_c, 5, 76, 64
14, 116092, Note_on_c, 5, 72, 78
14, 116138, Note_off_c, 5, 72, 64
14, 116162, Note_on_c, 5, 81, 80
14, 116648, Note_off_c, 5, 81, 64
14, 116694, Note_on_c, 5, 79, 87
14, 116737, Note_off_c, 5, 79, 64
14, 116751, Note_on_c, 5, 81, 78
14, 116794, Note_off_c, 5, 81, 64
14, 116807, Note_on_c, 5, 83, 80
14, 116846, Note_off_c, 5, 83, 64
14, 116866, Note_on_c, 5, 84, 80
14, 116906, Note_off_c, 5, 84, 64
14, 116927, Note_on_c, 5, 81, 64
14, 116967, Note_off_c, 5, 81, 64
14, 116989, Note_on_c, 5, 83, 72
14, 117025, Note_off_c, 5, 83, 64
14, 117049, Note_on_c, 5, 84, 70
14, 117080, Note_off_c, 5, 84, 64
14, 117112, Note_on_c, 5, 77, 78
14, 117155, Note_off_c, 5, 77, 64
14, 117168, Note_on_c, 5, 76, 66
14, 117210, Note_off_c, 5, 76, 64
14, 117232, Note_on_c, 5, 77, 80
14, 117275, Note_off_c, 5, 77, 64
14, 117289, Note_on_c, 5, 79, 76
14, 117326, Note_off_c, 5, 79, 64
14, 117349, Note_on_c, 5, 81, 70
14, 117392, Note_off_c, 5, 81, 64
14, 117410, Note_on_c, 5, 77, 63
14, 117454, Note_off_c, 5, 77, 64
14, 117470, Note_on_c, 5, 79, 70
14, 117507, Note_off_c, 5, 79, 64
14, 117530, Note_on_c, 5, 81, 70
14, 117573, Note_off_c, 5, 81, 64
14, 117601, Note_on_c, 5, 71, 70
14, 117972, Note_off_c, 5, 71, 64
14, 118010, Note_on_c, 5, 72, 82
14, 118044, Note_off_c, 5, 72, 64
14, 118070, Note_on_c, 5, 74, 87
14, 118123, Note_off_c, 5, 74, 64
14, 118131, Note_on_c, 5, 71, 61
14, 118171, Note_off_c, 5, 71, 64
14, 118190, Note_on_c, 5, 67, 76
14, 118238, Note_off_c, 5, 67, 64
14, 118249, Note_on_c, 5, 69, 68
14, 118286, Note_off_c, 5, 69, 64
14, 118311, Note_on_c, 5, 71, 64
14, 118357, Note_off_c, 5, 71, 64
14, 118370, Note_on_c, 5, 72, 76
14, 118409, Note_off_c, 5, 72, 64
14, 118429, Note_on_c, 5, 74, 58
14, 118478, Note_off_c, 5, 74, 64
14, 118490, Note_on_c, 5, 76, 70
14, 118532, Note_off_c, 5, 76, 64
14, 118555, Note_on_c, 5, 77, 82
14, 118915, Note_off_c, 5, 77, 64
14, 118974, Note_on_c, 5, 77, 85
14, 119013, Note_off_c, 5, 77, 64
14, 119031, Note_on_c, 5, 77, 82
14, 119148, Note_off_c, 5, 77, 64
14, 119216, Note_on_c, 5, 76, 60
14, 119231, Note_on_c, 5, 74, 74
14, 119243, Note_off_c, 5, 76, 64
14, 119265, Note_off_c, 5, 74, 64
14, 119273, Note_on_c, 5, 76, 70
14, 119370, Note_off_c, 5, 76, 64
14, 119452, Note_on_c, 5, 77, 70
14, 119476, Note_on_c, 5, 79, 72
14, 119481, Note_off_c, 5, 77, 64
14, 119508, Note_off_c, 5, 79, 64
14, 119517, Note_on_c, 5, 70, 58
14, 119861, Note_off_c, 5, 70, 64
14, 119934, Note_on_c, 5, 70, 74
14, 119968, Note_off_c, 5, 70, 64
14, 119988, Note_on_c, 5, 70, 85
14, 120104, Note_off_c, 5, 70, 64
14, 120172, Note_on_c, 5, 69, 70
14, 120193, Note_on_c, 5, 67, 70
14, 120204, Note_off_c, 5, 69, 64
14, 120225, Note_off_c, 5, 67, 64
14, 120235, Note_on_c, 5, 69, 64
14, 120341, Note_off_c, 5, 69, 64
14, 120414, Note_on_c, 5, 71, 78
14, 120452, Note_off_c, 5, 71, 64
14, 120471, Note_on_c, 5, 72, 78
14, 120818, Note_off_c, 5, 72, 64
14, 120899, Note_on_c, 5, 72, 82
14, 120934, Note_off_c, 5, 72, 64
14, 120957, Note_on_c, 5, 72, 80
14, 121059, Note_off_c, 5, 72, 64
14, 121129, Note_on_c, 5, 71, 64
14, 121154, Note_on_c, 5, 69, 70
14, 121161, Note_off_c, 5, 71, 64
14, 121186, Note_off_c, 5, 69, 64
14, 121193, Note_on_c, 5, 77, 82
14, 121294, Note_off_c, 5, 77, 64
14, 121364, Note_on_c, 5, 76, 70
14, 121389, Note_on_c, 5, 74, 68
14, 121398, Note_off_c, 5, 76, 64
14, 121420, Note_off_c, 5, 74, 64
14, 121427, Note_on_c, 5, 83, 80
14, 121525, Note_off_c, 5, 83, 64
14, 121608, Note_on_c, 5, 81, 63
14, 121626, Note_on_c, 5, 79, 66
14, 121640, Note_off_c, 5, 81, 64
14, 121659, Note_off_c, 5, 79, 64
14, 121669, Note_on_c, 5, 86, 87
14, 121764, Note_off_c, 5, 86, 64
14, 121858, Note_on_c, 5, 77, 70
14, 121890, Note_off_c, 5, 77, 64
14, 121918, Note_on_c, 5, 77, 68
14, 122173, Note_off_c, 5, 77, 64
14, 122217, Note_on_c, 5, 81, 80
14, 122252, Note_off_c, 5, 81, 64
14, 122271, Note_on_c, 5, 79, 85
14, 122312, Note_off_c, 5, 79, 64
14, 122331, Note_on_c, 5, 77, 74
14, 122364, Note_off_c, 5, 77, 64
14, 122395, Note_on_c, 5, 76, 64
14, 122438, Note_off_c, 5, 76, 64
14, 122456, Note_on_c, 5, 72, 64
14, 122492, Note_off_c, 5, 72, 64
14, 122515, Note_on_c, 5, 74, 63
14, 122551, Note_off_c, 5, 74, 64
14, 122569, Note_on_c, 5, 76, 63
14, 122608, Note_off_c, 5, 76, 64
14, 122631, Note_on_c, 5, 77, 66
14, 122672, Note_off_c, 5, 77, 64
14, 122685, Note_on_c, 5, 79, 61
14, 122731, Note_off_c, 5, 79, 64
14, 122753, Note_on_c, 5, 81, 70
14, 122793, Note_off_c, 5, 81, 64
14, 122814, Note_on_c, 5, 82, 70
14, 122848, Note_off_c, 5, 82, 64
14, 122873, Note_on_c, 5, 81, 68
14, 122920, Note_off_c, 5, 81, 64
14, 122936, Note_on_c, 5, 79, 61
14, 122973, Note_off_c, 5, 79, 64
14, 122992, Note_on_c, 5, 77, 66
14, 123033, Note_off_c, 5, 77, 64
14, 123050, Note_on_c, 5, 76, 63
14, 123094, Note_off_c, 5, 76, 64
14, 123114, Note_on_c, 5, 77, 72
14, 123153, Note_off_c, 5, 77, 64
14, 123167, Note_on_c, 5, 74, 78
14, 123207, Note_off_c, 5, 74, 64
14, 123227, Note_on_c, 5, 76, 80
14, 123264, Note_off_c, 5, 76, 64
14, 123283, Note_on_c, 5, 77, 66
14, 123320, Note_off_c, 5, 77, 64
14, 123351, Note_on_c, 5, 67, 64
14, 123640, Note_off_c, 5, 67, 64
14, 123710, Note_on_c, 5, 69, 66
14, 123732, Note_on_c, 5, 71, 72
14, 123747, Note_off_c, 5, 69, 64
14, 123761, Note_off_c, 5, 71, 64
14, 123763, Note_on_c, 5, 72, 70
14, 123786, Note_on_c, 5, 74, 72
14, 123796, Note_off_c, 5, 72, 64
14, 123804, Note_on_c, 5, 76, 80
14, 123814, Note_off_c, 5, 74, 64
14, 123827, Note_on_c, 5, 77, 85
14, 123834, Note_off_c, 5, 76, 64
14, 123935, Note_off_c, 5, 77, 64
14, 124915, Note_on_c, 5, 79, 72
14, 124944, Note_off_c, 5, 79, 64
14, 125033, Note_on_c, 5, 79, 72
14, 125068, Note_off_c, 5, 79, 64
14, 125157, Note_on_c, 5, 79, 76
14, 125190, Note_off_c, 5, 79, 64
14, 125276, Note_on_c, 5, 76, 62
14, 125384, Note_off_c, 5, 76, 64
14, 125388, Note_on_c, 5, 77, 56
14, 125433, Note_on_c, 5, 79, 68
14, 125436, Note_off_c, 5, 77, 64
14, 125483, Note_off_c, 5, 79, 64
14, 125498, Note_on_c, 5, 81, 76
14, 125540, Note_off_c, 5, 81, 64
14, 125624, Note_on_c, 5, 77, 78
14, 125669, Note_off_c, 5, 77, 64
14, 125748, Note_on_c, 5, 74, 68
14, 125789, Note_off_c, 5, 74, 64
14, 125871, Note_on_c, 5, 79, 82
14, 125909, Note_off_c, 5, 79, 64
14, 125987, Note_on_c, 5, 67, 66
14, 126045, Note_off_c, 5, 67, 64
14, 126115, Note_on_c, 5, 77, 80
14, 126163, Note_off_c, 5, 77, 64
14, 126243, Note_on_c, 5, 76, 72
14, 126298, Note_on_c, 5, 74, 63
14, 126305, Note_off_c, 5, 76, 64
14, 126352, Note_off_c, 5, 74, 64
14, 126358, Note_on_c, 5, 72, 64
14, 126410, Note_on_c, 5, 74, 63
14, 126420, Note_off_c, 5, 72, 64
14, 126465, Note_off_c, 5, 74, 64
14, 126476, Note_on_c, 5, 76, 68
14, 126525, Note_off_c, 5, 76, 64
14, 126529, Note_on_c, 5, 74, 68
14, 126583, Note_off_c, 5, 74, 64
14, 126595, Note_on_c, 5, 76, 57
14, 126641, Note_on_c, 5, 78, 58
14, 126648, Note_off_c, 5, 76, 64
14, 126682, Note_off_c, 5, 78, 64
14, 126710, Note_on_c, 5, 79, 74
14, 126817, Note_off_c, 5, 79, 64
14, 126894, Note_on_c, 5, 74, 64
14, 126925, Note_off_c, 5, 74, 64
14, 126959, Note_on_c, 5, 79, 85
14, 127070, Note_off_c, 5, 79, 64
14, 127131, Note_on_c, 5, 79, 61
14, 127159, Note_off_c, 5, 79, 64
14, 127196, Note_on_c, 5, 79, 87
14, 127297, Note_off_c, 5, 79, 64
14, 127356, Note_on_c, 5, 78, 61
14, 127388, Note_on_c, 5, 76, 61
14, 127392, Note_off_c, 5, 78, 64
14, 127416, Note_on_c, 5, 78, 58
14, 127429, Note_off_c, 5, 76, 64
14, 127443, Note_off_c, 5, 78, 64
14, 127448, Note_on_c, 5, 79, 70
14, 127473, Note_on_c, 5, 78, 68
14, 127487, Note_off_c, 5, 79, 64
14, 127500, Note_on_c, 5, 79, 72
14, 127502, Note_off_c, 5, 78, 64
14, 127531, Note_on_c, 5, 78, 50
14, 127546, Note_off_c, 5, 79, 64
14, 127575, Note_off_c, 5, 78, 64
14, 127608, Note_on_c, 5, 79, 72
14, 127640, Note_off_c, 5, 79, 64
14, 127670, Note_on_c, 5, 79, 82
14, 127760, Note_off_c, 5, 79, 64
14, 127788, Note_on_c, 5, 77, 64
14, 127840, Note_on_c, 5, 76, 58
14, 127845, Note_off_c, 5, 77, 64
14, 127895, Note_off_c, 5, 76, 64
14, 127901, Note_on_c, 5, 74, 62
14, 127946, Note_off_c, 5, 74, 64
14, 127954, Note_on_c, 5, 71, 57
14, 128004, Note_off_c, 5, 71, 64
14, 128009, Note_on_c, 5, 72, 64
14, 128061, Note_off_c, 5, 72, 64
14, 128067, Note_on_c, 5, 74, 68
14, 128112, Note_off_c, 5, 74, 64
14, 128130, Note_on_c, 5, 67, 64
14, 128189, Note_off_c, 5, 67, 64
14, 128268, Note_on_c, 5, 79, 70
14, 128306, Note_off_c, 5, 79, 64
14, 128390, Note_on_c, 5, 76, 74
14, 128425, Note_off_c, 5, 76, 64
14, 128510, Note_on_c, 5, 81, 80
14, 128556, Note_off_c, 5, 81, 64
14, 128638, Note_on_c, 5, 77, 82
14, 128693, Note_on_c, 5, 79, 60
14, 128699, Note_off_c, 5, 77, 64
14, 128746, Note_off_c, 5, 79, 64
14, 128755, Note_on_c, 5, 77, 52
14, 128813, Note_off_c, 5, 77, 64
14, 128816, Note_on_c, 5, 76, 49
14, 128866, Note_off_c, 5, 76, 64
14, 128877, Note_on_c, 5, 74, 58
14, 128937, Note_off_c, 5, 74, 64
14, 128939, Note_on_c, 5, 77, 59
14, 129001, Note_on_c, 5, 76, 51
14, 129007, Note_off_c, 5, 77, 64
14, 129056, Note_off_c, 5, 76, 64
14, 129056, Note_on_c, 5, 74, 59
14, 129099, Note_off_c, 5, 74, 64
14, 129117, Note_on_c, 5, 79, 70
14, 129175, Note_on_c, 5, 77, 57
14, 129188, Note_off_c, 5, 79, 64
14, 129234, Note_on_c, 5, 76, 57
14, 129250, Note_off_c, 5, 77, 64
14, 129289, Note_on_c, 5, 74, 58
14, 129292, Note_off_c, 5, 76, 64
14, 129330, Note_off_c, 5, 74, 64
14, 129352, Note_on_c, 5, 72, 68
14, 129408, Note_off_c, 5, 72, 64
14, 129408, Note_on_c, 5, 71, 51
14, 129461, Note_off_c, 5, 71, 64
14, 129466, Note_on_c, 5, 72, 66
14, 129519, Note_off_c, 5, 72, 64
14, 129531, Note_on_c, 5, 69, 68
14, 129576, Note_off_c, 5, 69, 64
14, 129596, Note_on_c, 5, 74, 64
14, 129697, Note_off_c, 5, 74, 64
14, 129718, Note_on_c, 5, 76, 59
14, 129764, Note_off_c, 5, 76, 64
14, 129768, Note_on_c, 5, 78, 62
14, 129810, Note_off_c, 5, 78, 64
14, 129829, Note_on_c, 5, 79, 82
14, 129915, Note_off_c, 5, 79, 64
14, 129949, Note_on_c, 5, 81, 63
14, 129995, Note_off_c, 5, 81, 64
14, 130001, Note_on_c, 5, 83, 66
14, 130040, Note_off_c, 5, 83, 64
14, 130063, Note_on_c, 5, 84, 76
14, 130182, Note_off_c, 5, 84, 64
14, 130242, Note_on_c, 5, 83, 78
14, 130270, Note_off_c, 5, 83, 64
14, 130301, Note_on_c, 5, 83, 85
14, 130329, Note_off_c, 5, 83, 64
14, 130329, Note_on_c, 5, 81, 61
14, 130355, Note_on_c, 5, 83, 72
14, 130362, Note_off_c, 5, 81, 64
14, 130386, Note_on_c, 5, 81, 62
14, 130398, Note_off_c, 5, 83, 64
14, 130459, Note_off_c, 5, 81, 64
14, 130488, Note_on_c, 5, 79, 74
14, 130517, Note_off_c, 5, 79, 64
14, 130554, Note_on_c, 5, 79, 85
14, 130669, Note_off_c, 5, 79, 64
14, 130678, Note_on_c, 5, 77, 60
14, 130727, Note_off_c, 5, 77, 64
14, 130732, Note_on_c, 5, 76, 58
14, 130767, Note_off_c, 5, 76, 64
14, 130793, Note_on_c, 5, 74, 60
14, 130839, Note_on_c, 5, 76, 66
14, 130846, Note_off_c, 5, 74, 64
14, 130905, Note_on_c, 5, 77, 64
14, 130913, Note_off_c, 5, 76, 64
14, 130954, Note_off_c, 5, 77, 64
14, 130959, Note_on_c, 5, 74, 60
14, 131009, Note_off_c, 5, 74, 64
14, 131029, Note_on_c, 5, 76, 64
14, 131079, Note_off_c, 5, 76, 64
14, 131084, Note_on_c, 5, 79, 55
14, 131148, Note_off_c, 5, 79, 64
14, 131149, Note_on_c, 5, 77, 44
14, 131201, Note_on_c, 5, 79, 70
14, 131205, Note_off_c, 5, 77, 64
14, 131256, Note_off_c, 5, 79, 64
14, 131269, Note_on_c, 5, 81, 74
14, 131325, Note_on_c, 5, 79, 61
14, 131331, Note_off_c, 5, 81, 64
14, 131387, Note_off_c, 5, 79, 64
14, 131392, Note_on_c, 5, 77, 50
14, 131455, Note_on_c, 5, 76, 52
14, 131456, Note_off_c, 5, 77, 64
14, 131512, Note_off_c, 5, 76, 64
14, 131517, Note_on_c, 5, 74, 61
14, 131572, Note_off_c, 5, 74, 64
14, 131573, Note_on_c, 5, 77, 58
14, 131640, Note_off_c, 5, 77, 64
14, 131640, Note_on_c, 5, 76, 44
14, 131696, Note_on_c, 5, 77, 59
14, 131699, Note_off_c, 5, 76, 64
14, 131746, Note_off_c, 5, 77, 64
14, 131760, Note_on_c, 5, 79, 57
14, 131811, Note_on_c, 5, 77, 64
14, 131821, Note_off_c, 5, 79, 64
14, 131874, Note_on_c, 5, 76, 63
14, 131875, Note_off_c, 5, 77, 64
14, 131930, Note_on_c, 5, 74, 59
14, 131931, Note_off_c, 5, 76, 64
14, 131976, Note_off_c, 5, 74, 64
14, 131995, Note_on_c, 5, 72, 59
14, 132043, Note_off_c, 5, 72, 64
14, 132049, Note_on_c, 5, 76, 58
14, 132109, Note_on_c, 5, 74, 52
14, 132115, Note_off_c, 5, 76, 64
14, 132169, Note_on_c, 5, 76, 60
14, 132172, Note_off_c, 5, 74, 64
14, 132229, Note_off_c, 5, 76, 64
14, 132229, Note_on_c, 5, 77, 60
14, 132288, Note_off_c, 5, 77, 64
14, 132288, Note_on_c, 5, 76, 58
14, 132349, Note_on_c, 5, 74, 58
14, 132353, Note_off_c, 5, 76, 64
14, 132406, Note_on_c, 5, 72, 53
14, 132408, Note_off_c, 5, 74, 64
14, 132465, Note_off_c, 5, 72, 64
14, 132471, Note_on_c, 5, 71, 52
14, 132514, Note_off_c, 5, 71, 64
14, 132526, Note_on_c, 5, 74, 62
14, 132585, Note_on_c, 5, 72, 52
14, 132594, Note_off_c, 5, 74, 64
14, 132647, Note_off_c, 5, 72, 64
14, 132648, Note_on_c, 5, 74, 60
14, 132700, Note_off_c, 5, 74, 64
14, 132709, Note_on_c, 5, 76, 53
14, 132763, Note_on_c, 5, 74, 58
14, 132764, Note_off_c, 5, 76, 64
14, 132826, Note_off_c, 5, 74, 64
14, 132833, Note_on_c, 5, 72, 55
14, 132885, Note_off_c, 5, 72, 64
14, 132886, Note_on_c, 5, 71, 52
14, 132944, Note_off_c, 5, 71, 64
14, 132957, Note_on_c, 5, 69, 56
14, 133005, Note_off_c, 5, 69, 64
14, 133014, Note_on_c, 5, 72, 60
14, 133067, Note_off_c, 5, 72, 64
14, 133069, Note_on_c, 5, 71, 41
14, 133131, Note_on_c, 5, 72, 53
14, 133135, Note_off_c, 5, 71, 64
14, 133176, Note_off_c, 5, 72, 64
14, 133195, Note_on_c, 5, 74, 56
14, 133244, Note_on_c, 5, 72, 63
14, 133252, Note_off_c, 5, 74, 64
14, 133305, Note_on_c, 5, 71, 55
14, 133316, Note_off_c, 5, 72, 64
14, 133352, Note_off_c, 5, 71, 64
14, 133362, Note_on_c, 5, 69, 68
14, 133421, Note_off_c, 5, 69, 64
14, 133431, Note_on_c, 5, 71, 60
14, 133483, Note_off_c, 5, 71, 64
14, 133551, Note_on_c, 5, 79, 72
14, 133583, Note_off_c, 5, 79, 64
14, 133678, Note_on_c, 5, 79, 78
14, 133711, Note_off_c, 5, 79, 64
14, 133798, Note_on_c, 5, 79, 68
14, 133835, Note_off_c, 5, 79, 64
14, 133923, Note_on_c, 5, 76, 64
14, 134033, Note_off_c, 5, 76, 64
14, 134042, Note_on_c, 5, 77, 57
14, 134088, Note_on_c, 5, 79, 66
14, 134092, Note_off_c, 5, 77, 64
14, 134134, Note_off_c, 5, 79, 64
14, 134155, Note_on_c, 5, 81, 64
14, 134195, Note_off_c, 5, 81, 64
14, 134285, Note_on_c, 5, 77, 66
14, 134318, Note_off_c, 5, 77, 64
14, 134399, Note_on_c, 5, 74, 63
14, 134434, Note_off_c, 5, 74, 64
14, 134507, Note_on_c, 5, 79, 72
14, 134548, Note_off_c, 5, 79, 64
14, 134627, Note_on_c, 5, 67, 59
14, 134680, Note_off_c, 5, 67, 64
14, 134752, Note_on_c, 5, 77, 72
14, 134804, Note_off_c, 5, 77, 64
14, 134874, Note_on_c, 5, 76, 68
14, 135011, Note_off_c, 5, 76, 64
14, 135054, Note_on_c, 5, 74, 59
14, 135079, Note_off_c, 5, 74, 64
14, 135116, Note_on_c, 5, 76, 66
14, 135144, Note_on_c, 5, 74, 55
14, 135152, Note_off_c, 5, 76, 64
14, 135174, Note_on_c, 5, 76, 63
14, 135212, Note_off_c, 5, 76, 64
14, 135264, Note_off_c, 5, 74, 64
14, 135285, Note_on_c, 5, 72, 66
14, 135318, Note_off_c, 5, 72, 64
14, 135353, Note_on_c, 5, 72, 70
14, 135432, Note_off_c, 5, 72, 64
14, 135479, Note_on_c, 5, 76, 66
14, 135517, Note_off_c, 5, 76, 64
14, 135594, Note_on_c, 5, 76, 64
14, 135637, Note_off_c, 5, 76, 64
14, 135717, Note_on_c, 5, 76, 78
14, 135751, Note_off_c, 5, 76, 64
14, 135834, Note_on_c, 5, 72, 68
14, 135950, Note_off_c, 5, 72, 64
14, 135955, Note_on_c, 5, 74, 66
14, 136008, Note_off_c, 5, 74, 64
14, 136009, Note_on_c, 5, 76, 68
14, 136060, Note_off_c, 5, 76, 64
14, 136070, Note_on_c, 5, 77, 64
14, 136108, Note_off_c, 5, 77, 64
14, 136194, Note_on_c, 5, 74, 66
14, 136234, Note_off_c, 5, 74, 64
14, 136313, Note_on_c, 5, 71, 68
14, 136358, Note_off_c, 5, 71, 64
14, 136430, Note_on_c, 5, 76, 72
14, 136466, Note_off_c, 5, 76, 64
14, 136549, Note_on_c, 5, 64, 66
14, 136600, Note_off_c, 5, 64, 64
14, 136672, Note_on_c, 5, 74, 74
14, 136709, Note_off_c, 5, 74, 64
14, 136804, Note_on_c, 5, 72, 53
14, 137047, Note_off_c, 5, 72, 64
14, 137512, Note_on_c, 5, 81, 57
14, 137984, Note_off_c, 5, 81, 64
14, 137987, Note_on_c, 5, 80, 52
14, 138220, Note_off_c, 5, 80, 64
14, 138241, Note_on_c, 5, 81, 57
14, 138403, Note_off_c, 5, 81, 64
14, 138467, Note_on_c, 5, 77, 60
14, 138912, Note_off_c, 5, 77, 64
14, 138949, Note_on_c, 5, 76, 51
14, 139376, Note_off_c, 5, 76, 64
14, 139422, Note_on_c, 5, 74, 53
14, 139886, Note_off_c, 5, 74, 64
14, 139905, Note_on_c, 5, 72, 64
14, 139968, Note_off_c, 5, 72, 64
14, 140033, Note_on_c, 5, 71, 57
14, 140088, Note_off_c, 5, 71, 64
14, 140160, Note_on_c, 5, 69, 68
14, 140323, Note_off_c, 5, 69, 64
14, 140383, Note_on_c, 5, 69, 60
14, 140409, Note_on_c, 5, 68, 58
14, 140423, Note_off_c, 5, 69, 64
14, 140436, Note_off_c, 5, 68, 64
14, 140440, Note_on_c, 5, 69, 60
14, 140467, Note_on_c, 5, 68, 64
14, 140479, Note_off_c, 5, 69, 64
14, 140575, Note_off_c, 5, 68, 64
14, 140639, Note_on_c, 5, 69, 68
14, 140696, Note_off_c, 5, 69, 64
14, 140698, Note_on_c, 5, 72, 64
14, 140753, Note_off_c, 5, 72, 64
14, 140759, Note_on_c, 5, 74, 62
14, 140805, Note_on_c, 5, 76, 60
14, 140812, Note_off_c, 5, 74, 64
14, 140859, Note_off_c, 5, 76, 64
14, 140870, Note_on_c, 5, 77, 68
14, 140913, Note_off_c, 5, 77, 64
14, 140983, Note_on_c, 5, 74, 72
14, 141029, Note_off_c, 5, 74, 64
14, 141107, Note_on_c, 5, 71, 66
14, 141142, Note_off_c, 5, 71, 64
14, 141227, Note_on_c, 5, 76, 66
14, 141273, Note_off_c, 5, 76, 64
14, 141351, Note_on_c, 5, 64, 68
14, 141401, Note_off_c, 5, 64, 64
14, 141477, Note_on_c, 5, 76, 78
14, 141513, Note_off_c, 5, 76, 64
14, 141591, Note_on_c, 5, 69, 68
14, 141704, Note_off_c, 5, 69, 64
14, 141723, Note_on_c, 5, 71, 63
14, 141769, Note_off_c, 5, 71, 64
14, 141769, Note_on_c, 5, 72, 60
14, 141809, Note_off_c, 5, 72, 64
14, 141838, Note_on_c, 5, 74, 68
14, 142098, Note_off_c, 5, 74, 64
14, 142134, Note_on_c, 5, 77, 76
14, 142189, Note_off_c, 5, 77, 64
14, 142192, Note_on_c, 5, 76, 60
14, 142251, Note_on_c, 5, 74, 59
14, 142256, Note_off_c, 5, 76, 64
14, 142305, Note_off_c, 5, 74, 64
14, 142312, Note_on_c, 5, 72, 63
14, 142364, Note_off_c, 5, 72, 64
14, 142364, Note_on_c, 5, 71, 55
14, 142417, Note_off_c, 5, 71, 64
14, 142424, Note_on_c, 5, 72, 58
14, 142464, Note_off_c, 5, 72, 64
14, 142479, Note_on_c, 5, 69, 66
14, 142514, Note_off_c, 5, 69, 64
14, 142548, Note_on_c, 5, 81, 58
14, 142685, Note_off_c, 5, 81, 64
14, 142732, Note_on_c, 5, 83, 59
14, 142760, Note_off_c, 5, 83, 64
14, 142795, Note_on_c, 5, 81, 66
14, 142823, Note_on_c, 5, 80, 76
14, 142826, Note_off_c, 5, 81, 64
14, 142852, Note_off_c, 5, 80, 64
14, 142853, Note_on_c, 5, 81, 61
14, 142879, Note_on_c, 5, 80, 66
14, 142898, Note_off_c, 5, 81, 64
14, 142937, Note_off_c, 5, 80, 64
14, 142979, Note_on_c, 5, 81, 60
14, 143004, Note_off_c, 5, 81, 64
14, 143038, Note_on_c, 5, 81, 68
14, 143088, Note_off_c, 5, 81, 64
14, 143089, Note_on_c, 5, 83, 66
14, 143153, Note_on_c, 5, 84, 64
14, 143156, Note_off_c, 5, 83, 64
14, 143207, Note_off_c, 5, 84, 64
14, 143208, Note_on_c, 5, 83, 68
14, 143256, Note_off_c, 5, 83, 64
14, 143274, Note_on_c, 5, 81, 63
14, 143323, Note_on_c, 5, 79, 61
14, 143325, Note_off_c, 5, 81, 64
14, 143379, Note_off_c, 5, 79, 64
14, 143391, Note_on_c, 5, 81, 57
14, 143442, Note_off_c, 5, 81, 64
14, 143443, Note_on_c, 5, 78, 52
14, 143489, Note_off_c, 5, 78, 64
14, 143506, Note_on_c, 5, 83, 76
14, 143568, Note_off_c, 5, 83, 64
14, 143616, Note_on_c, 5, 71, 68
14, 143679, Note_off_c, 5, 71, 64
14, 143752, Note_on_c, 5, 76, 72
14, 143874, Note_off_c, 5, 76, 64
14, 143932, Note_on_c, 5, 76, 64
14, 143961, Note_off_c, 5, 76, 64
14, 143995, Note_on_c, 5, 76, 63
14, 144043, Note_off_c, 5, 76, 64
14, 144050, Note_on_c, 5, 79, 68
14, 144106, Note_on_c, 5, 78, 53
14, 144107, Note_off_c, 5, 79, 64
14, 144163, Note_on_c, 5, 76, 61
14, 144167, Note_off_c, 5, 78, 64
14, 144200, Note_off_c, 5, 76, 64
14, 144226, Note_on_c, 5, 75, 82
14, 144277, Note_on_c, 5, 73, 48
14, 144282, Note_off_c, 5, 75, 64
14, 144338, Note_on_c, 5, 75, 61
14, 144345, Note_off_c, 5, 73, 64
14, 144383, Note_off_c, 5, 75, 64
14, 144390, Note_on_c, 5, 71, 66
14, 144435, Note_off_c, 5, 71, 64
14, 144457, Note_on_c, 5, 83, 68
14, 144518, Note_on_c, 5, 81, 68
14, 144536, Note_off_c, 5, 83, 64
14, 144569, Note_off_c, 5, 81, 64
14, 144575, Note_on_c, 5, 79, 55
14, 144630, Note_on_c, 5, 78, 52
14, 144637, Note_off_c, 5, 79, 64
14, 144689, Note_off_c, 5, 78, 64
14, 144696, Note_on_c, 5, 76, 57
14, 144740, Note_off_c, 5, 76, 64
14, 144751, Note_on_c, 5, 74, 43
14, 144817, Note_on_c, 5, 72, 53
14, 144820, Note_off_c, 5, 74, 64
14, 144880, Note_off_c, 5, 72, 64
14, 144884, Note_on_c, 5, 71, 60
14, 144915, Note_off_c, 5, 71, 64
14, 144948, Note_on_c, 5, 69, 66
14, 145003, Note_off_c, 5, 69, 64
14, 145009, Note_on_c, 5, 72, 66
14, 145060, Note_off_c, 5, 72, 64
14, 145071, Note_on_c, 5, 74, 64
14, 145125, Note_on_c, 5, 76, 68
14, 145131, Note_off_c, 5, 74, 64
14, 145166, Note_off_c, 5, 76, 64
14, 145188, Note_on_c, 5, 74, 78
14, 145247, Note_on_c, 5, 72, 61
14, 145248, Note_off_c, 5, 74, 64
14, 145302, Note_off_c, 5, 72, 64
14, 145307, Note_on_c, 5, 71, 59
14, 145363, Note_on_c, 5, 69, 58
14, 145365, Note_off_c, 5, 71, 64
14, 145400, Note_off_c, 5, 69, 64
14, 145424, Note_on_c, 5, 74, 82
14, 145551, Note_off_c, 5, 74, 64
14, 145598, Note_on_c, 5, 76, 61
14, 145628, Note_off_c, 5, 76, 64
14, 145665, Note_on_c, 5, 74, 68
14, 145691, Note_on_c, 5, 72, 68
14, 145694, Note_off_c, 5, 74, 64
14, 145721, Note_off_c, 5, 72, 64
14, 145721, Note_on_c, 5, 74, 62
14, 145752, Note_on_c, 5, 72, 62
14, 145764, Note_off_c, 5, 74, 64
14, 145809, Note_off_c, 5, 72, 64
14, 145848, Note_on_c, 5, 71, 66
14, 145887, Note_off_c, 5, 71, 64
14, 145910, Note_on_c, 5, 72, 80
14, 146040, Note_off_c, 5, 72, 64
14, 146089, Note_on_c, 5, 74, 66
14, 146120, Note_off_c, 5, 74, 64
14, 146156, Note_on_c, 5, 72, 80
14, 146180, Note_on_c, 5, 71, 66
14, 146181, Note_off_c, 5, 72, 64
14, 146211, Note_on_c, 5, 72, 63
14, 146216, Note_off_c, 5, 71, 64
14, 146236, Note_on_c, 5, 71, 66
14, 146257, Note_off_c, 5, 72, 64
14, 146307, Note_off_c, 5, 71, 64
14, 146320, Note_on_c, 5, 69, 64
14, 146347, Note_off_c, 5, 69, 64
14, 146390, Note_on_c, 5, 69, 68
14, 146446, Note_off_c, 5, 69, 64
14, 146450, Note_on_c, 5, 76, 53
14, 146505, Note_off_c, 5, 76, 64
14, 146507, Note_on_c, 5, 78, 51
14, 146552, Note_on_c, 5, 80, 58
14, 146554, Note_off_c, 5, 78, 64
14, 146602, Note_off_c, 5, 80, 64
14, 146625, Note_on_c, 5, 81, 70
14, 146884, Note_off_c, 5, 81, 64
14, 146930, Note_on_c, 5, 84, 68
14, 146993, Note_off_c, 5, 84, 64
14, 146993, Note_on_c, 5, 83, 68
14, 147050, Note_on_c, 5, 81, 60
14, 147072, Note_off_c, 5, 83, 64
14, 147112, Note_off_c, 5, 81, 64
14, 147117, Note_on_c, 5, 80, 62
14, 147168, Note_off_c, 5, 80, 64
14, 147170, Note_on_c, 5, 81, 62
14, 147220, Note_off_c, 5, 81, 64
14, 147230, Note_on_c, 5, 83, 57
14, 147282, Note_on_c, 5, 80, 58
14, 147285, Note_off_c, 5, 83, 64
14, 147336, Note_off_c, 5, 80, 64
14, 147358, Note_on_c, 5, 76, 58
14, 147393, Note_off_c, 5, 76, 64
14, 147474, Note_on_c, 5, 76, 68
14, 147512, Note_off_c, 5, 76, 64
14, 147599, Note_on_c, 5, 76, 76
14, 147637, Note_off_c, 5, 76, 64
14, 147718, Note_on_c, 5, 76, 72
14, 147764, Note_off_c, 5, 76, 64
14, 147835, Note_on_c, 5, 72, 70
14, 147949, Note_off_c, 5, 72, 64
14, 147956, Note_on_c, 5, 74, 59
14, 148008, Note_on_c, 5, 76, 63
14, 148010, Note_off_c, 5, 74, 64
14, 148066, Note_off_c, 5, 76, 64
14, 148072, Note_on_c, 5, 77, 64
14, 148106, Note_off_c, 5, 77, 64
14, 148193, Note_on_c, 5, 74, 74
14, 148231, Note_off_c, 5, 74, 64
14, 148308, Note_on_c, 5, 71, 66
14, 148357, Note_off_c, 5, 71, 64
14, 148427, Note_on_c, 5, 76, 74
14, 148462, Note_off_c, 5, 76, 64
14, 148548, Note_on_c, 5, 64, 63
14, 148595, Note_off_c, 5, 64, 64
14, 148673, Note_on_c, 5, 74, 78
14, 148713, Note_off_c, 5, 74, 64
14, 148791, Note_on_c, 5, 72, 64
14, 148926, Note_off_c, 5, 72, 64
14, 148971, Note_on_c, 5, 71, 58
14, 149002, Note_off_c, 5, 71, 64
14, 149031, Note_on_c, 5, 72, 64
14, 149057, Note_on_c, 5, 71, 48
14, 149059, Note_off_c, 5, 72, 64
14, 149086, Note_on_c, 5, 72, 66
14, 149088, Note_off_c, 5, 71, 64
14, 149113, Note_on_c, 5, 71, 54
14, 149124, Note_off_c, 5, 72, 64
14, 149186, Note_off_c, 5, 71, 64
14, 149208, Note_on_c, 5, 69, 66
14, 149246, Note_off_c, 5, 69, 64
14, 149278, Note_on_c, 5, 69, 68
14, 149336, Note_off_c, 5, 69, 64
14, 161864, Note_on_c, 5, 74, 66
14, 161901, Note_off_c, 5, 74, 64
14, 161989, Note_on_c, 5, 74, 66
14, 162029, Note_off_c, 5, 74, 64
14, 162112, Note_on_c, 5, 74, 78
14, 162151, Note_off_c, 5, 74, 64
14, 162223, Note_on_c, 5, 71, 66
14, 162340, Note_off_c, 5, 71, 64
14, 162356, Note_on_c, 5, 72, 80
14, 162399, Note_off_c, 5, 72, 64
14, 162408, Note_on_c, 5, 74, 66
14, 162447, Note_off_c, 5, 74, 64
14, 162469, Note_on_c, 5, 76, 76
14, 162505, Note_off_c, 5, 76, 64
14, 162591, Note_on_c, 5, 72, 66
14, 162626, Note_off_c, 5, 72, 64
14, 162714, Note_on_c, 5, 69, 63
14, 162753, Note_off_c, 5, 69, 64
14, 162831, Note_on_c, 5, 74, 70
14, 162868, Note_off_c, 5, 74, 64
14, 162945, Note_on_c, 5, 62, 64
14, 162998, Note_off_c, 5, 62, 64
14, 163078, Note_on_c, 5, 72, 64
14, 163112, Note_off_c, 5, 72, 64
14, 163196, Note_on_c, 5, 71, 60
14, 163436, Note_off_c, 5, 71, 64
14, 163909, Note_on_c, 5, 79, 63
14, 164382, Note_off_c, 5, 79, 64
14, 164399, Note_on_c, 5, 78, 57
14, 164583, Note_off_c, 5, 78, 64
14, 164635, Note_on_c, 5, 79, 80
14, 164682, Note_off_c, 5, 79, 64
14, 164693, Note_on_c, 5, 83, 74
14, 164737, Note_off_c, 5, 83, 64
14, 164747, Note_on_c, 5, 81, 72
14, 164796, Note_off_c, 5, 81, 64
14, 164799, Note_on_c, 5, 79, 59
14, 164844, Note_off_c, 5, 79, 64
14, 164859, Note_on_c, 5, 78, 60
14, 164914, Note_on_c, 5, 76, 59
14, 164915, Note_off_c, 5, 78, 64
14, 164963, Note_off_c, 5, 76, 64
14, 164973, Note_on_c, 5, 78, 48
14, 165024, Note_off_c, 5, 78, 64
14, 165027, Note_on_c, 5, 74, 58
14, 165080, Note_off_c, 5, 74, 64
14, 165096, Note_on_c, 5, 76, 60
14, 165804, Note_off_c, 5, 76, 64
14, 165826, Note_on_c, 5, 75, 66
14, 166020, Note_off_c, 5, 75, 64
14, 166064, Note_on_c, 5, 76, 60
14, 166148, Note_off_c, 5, 76, 64
14, 166190, Note_on_c, 5, 76, 82
14, 166235, Note_on_c, 5, 75, 63
14, 166238, Note_off_c, 5, 76, 64
14, 166284, Note_off_c, 5, 75, 64
14, 166301, Note_on_c, 5, 76, 76
14, 166333, Note_off_c, 5, 76, 64
14, 166429, Note_on_c, 5, 71, 66
14, 166472, Note_off_c, 5, 71, 64
14, 166553, Note_on_c, 5, 64, 66
14, 166678, Note_off_c, 5, 64, 64
14, 166688, Note_on_c, 5, 66, 64
14, 166731, Note_on_c, 5, 67, 62
14, 166736, Note_off_c, 5, 66, 64
14, 166781, Note_off_c, 5, 67, 64
14, 166794, Note_on_c, 5, 69, 70
14, 166846, Note_on_c, 5, 67, 64
14, 166858, Note_off_c, 5, 69, 64
14, 166898, Note_off_c, 5, 67, 64
14, 166902, Note_on_c, 5, 66, 57
14, 166954, Note_off_c, 5, 66, 64
14, 166955, Note_on_c, 5, 64, 64
14, 167004, Note_off_c, 5, 64, 64
14, 167025, Note_on_c, 5, 71, 70
14, 167120, Note_off_c, 5, 71, 64
14, 167149, Note_on_c, 5, 69, 60
14, 167226, Note_off_c, 5, 69, 64
14, 167268, Note_on_c, 5, 67, 57
14, 167352, Note_off_c, 5, 67, 64
14, 167389, Note_on_c, 5, 66, 55
14, 167478, Note_off_c, 5, 66, 64
14, 167514, Note_on_c, 5, 64, 58
14, 167772, Note_off_c, 5, 64, 64
14, 168124, Note_on_c, 5, 71, 53
14, 168227, Note_off_c, 5, 71, 64
14, 168243, Note_on_c, 5, 76, 70
14, 168363, Note_off_c, 5, 76, 64
14, 168363, Note_on_c, 5, 74, 64
14, 168459, Note_off_c, 5, 74, 64
14, 168481, Note_on_c, 5, 72, 59
14, 168966, Note_off_c, 5, 72, 64
14, 169067, Note_on_c, 5, 62, 66
14, 169186, Note_off_c, 5, 62, 64
14, 169193, Note_on_c, 5, 69, 60
14, 169303, Note_off_c, 5, 69, 64
14, 169317, Note_on_c, 5, 72, 62
14, 169433, Note_off_c, 5, 72, 64
14, 169439, Note_on_c, 5, 71, 53
14, 169883, Note_off_c, 5, 71, 64
14, 170030, Note_on_c, 5, 78, 61
14, 170065, Note_off_c, 5, 78, 64
14, 170150, Note_on_c, 5, 78, 66
14, 170190, Note_off_c, 5, 78, 64
14, 170270, Note_on_c, 5, 78, 68
14, 170315, Note_off_c, 5, 78, 64
14, 170396, Note_on_c, 5, 71, 64
14, 170514, Note_off_c, 5, 71, 64
14, 170520, Note_on_c, 5, 73, 55
14, 170565, Note_on_c, 5, 75, 64
14, 170573, Note_off_c, 5, 73, 64
14, 170610, Note_off_c, 5, 75, 64
14, 170627, Note_on_c, 5, 76, 70
14, 170978, Note_off_c, 5, 76, 64
14, 170990, Note_on_c, 5, 74, 70
14, 171040, Note_on_c, 5, 72, 53
14, 171041, Note_off_c, 5, 74, 64
14, 171085, Note_off_c, 5, 72, 64
14, 171100, Note_on_c, 5, 74, 64
14, 171575, Note_off_c, 5, 74, 64
14, 171590, Note_on_c, 5, 72, 60
14, 171854, Note_off_c, 5, 72, 64
14, 171888, Note_on_c, 5, 72, 72
14, 171944, Note_on_c, 5, 71, 58
14, 171951, Note_off_c, 5, 72, 64
14, 172000, Note_off_c, 5, 71, 64
14, 172000, Note_on_c, 5, 69, 59
14, 172047, Note_off_c, 5, 69, 64
14, 172063, Note_on_c, 5, 68, 53
14, 172117, Note_on_c, 5, 69, 68
14, 172118, Note_off_c, 5, 68, 64
14, 172173, Note_off_c, 5, 69, 64
14, 172177, Note_on_c, 5, 71, 57
14, 172232, Note_off_c, 5, 71, 64
14, 172232, Note_on_c, 5, 68, 59
14, 172287, Note_off_c, 5, 68, 64
14, 172294, Note_on_c, 5, 64, 59
14, 172349, Note_off_c, 5, 64, 64
14, 172421, Note_on_c, 5, 68, 62
14, 172469, Note_off_c, 5, 68, 64
14, 172553, Note_on_c, 5, 69, 60
14, 172815, Note_off_c, 5, 69, 64
14, 172851, Note_on_c, 5, 77, 72
14, 172912, Note_on_c, 5, 76, 66
14, 172928, Note_off_c, 5, 77, 64
14, 172969, Note_off_c, 5, 76, 64
14, 172970, Note_on_c, 5, 74, 62
14, 173027, Note_on_c, 5, 72, 59
14, 173029, Note_off_c, 5, 74, 64
14, 173077, Note_off_c, 5, 72, 64
14, 173077, Note_on_c, 5, 71, 56
14, 173139, Note_off_c, 5, 71, 64
14, 173141, Note_on_c, 5, 72, 53
14, 173192, Note_off_c, 5, 72, 64
14, 173192, Note_on_c, 5, 69, 60
14, 173240, Note_off_c, 5, 69, 64
14, 173257, Note_on_c, 5, 74, 72
14, 173310, Note_on_c, 5, 76, 66
14, 173319, Note_off_c, 5, 74, 64
14, 173375, Note_on_c, 5, 74, 66
14, 173382, Note_off_c, 5, 76, 64
14, 173431, Note_off_c, 5, 74, 64
14, 173433, Note_on_c, 5, 72, 60
14, 173491, Note_off_c, 5, 72, 64
14, 173498, Note_on_c, 5, 71, 57
14, 173547, Note_off_c, 5, 71, 64
14, 173549, Note_on_c, 5, 69, 58
14, 173606, Note_off_c, 5, 69, 64
14, 173614, Note_on_c, 5, 71, 58
14, 173670, Note_off_c, 5, 71, 64
14, 173672, Note_on_c, 5, 64, 53
14, 173746, Note_off_c, 5, 64, 64
14, 173748, Note_on_c, 5, 72, 57
14, 174479, Note_off_c, 5, 72, 64
14, 174764, Note_on_c, 5, 75, 64
14, 174821, Note_on_c, 5, 74, 58
14, 174841, Note_off_c, 5, 75, 64
14, 174879, Note_off_c, 5, 74, 64
14, 174881, Note_on_c, 5, 72, 59
14, 174926, Note_off_c, 5, 72, 64
14, 174936, Note_on_c, 5, 70, 62
14, 174990, Note_off_c, 5, 70, 64
14, 174997, Note_on_c, 5, 69, 34
14, 175049, Note_on_c, 5, 70, 53
14, 175050, Note_off_c, 5, 69, 64
14, 175112, Note_on_c, 5, 67, 58
14, 175115, Note_off_c, 5, 70, 64
14, 175160, Note_off_c, 5, 67, 64
14, 175176, Note_on_c, 5, 72, 72
14, 175228, Note_on_c, 5, 74, 66
14, 175234, Note_off_c, 5, 72, 64
14, 175294, Note_on_c, 5, 72, 61
14, 175299, Note_off_c, 5, 74, 64
14, 175353, Note_on_c, 5, 70, 55
14, 175356, Note_off_c, 5, 72, 64
14, 175424, Note_on_c, 5, 69, 59
14, 175426, Note_off_c, 5, 70, 64
14, 175471, Note_off_c, 5, 69, 64
14, 175472, Note_on_c, 5, 67, 53
14, 175534, Note_off_c, 5, 67, 64
14, 175538, Note_on_c, 5, 69, 57
14, 175590, Note_off_c, 5, 69, 64
14, 175597, Note_on_c, 5, 62, 48
14, 175666, Note_off_c, 5, 62, 64
14, 175670, Note_on_c, 5, 70, 51
14, 176401, Note_off_c, 5, 70, 64
14, 176691, Note_on_c, 5, 74, 64
14, 176745, Note_on_c, 5, 72, 63
14, 176761, Note_off_c, 5, 74, 64
14, 176801, Note_on_c, 5, 70, 56
14, 176805, Note_off_c, 5, 72, 64
14, 176864, Note_on_c, 5, 69, 52
14, 176865, Note_off_c, 5, 70, 64
14, 176915, Note_on_c, 5, 67, 58
14, 176918, Note_off_c, 5, 69, 64
14, 176981, Note_on_c, 5, 69, 57
14, 176983, Note_off_c, 5, 67, 64
14, 177036, Note_off_c, 5, 69, 64
14, 177038, Note_on_c, 5, 65, 57
14, 177101, Note_on_c, 5, 70, 64
14, 177102, Note_off_c, 5, 65, 64
14, 177163, Note_on_c, 5, 72, 66
14, 177173, Note_off_c, 5, 70, 64
14, 177222, Note_off_c, 5, 72, 64
14, 177224, Note_on_c, 5, 70, 60
14, 177288, Note_on_c, 5, 69, 59
14, 177294, Note_off_c, 5, 70, 64
14, 177341, Note_off_c, 5, 69, 64
14, 177345, Note_on_c, 5, 67, 56
14, 177397, Note_on_c, 5, 65, 57
14, 177399, Note_off_c, 5, 67, 64
14, 177461, Note_off_c, 5, 65, 64
14, 177461, Note_on_c, 5, 67, 61
14, 177518, Note_off_c, 5, 67, 64
14, 177521, Note_on_c, 5, 60, 64
14, 177576, Note_off_c, 5, 60, 64
14, 177587, Note_on_c, 5, 69, 63
14, 177642, Note_on_c, 5, 67, 51
14, 177650, Note_off_c, 5, 69, 64
14, 177713, Note_on_c, 5, 65, 59
14, 177715, Note_off_c, 5, 67, 64
14, 177772, Note_on_c, 5, 67, 64
14, 177776, Note_off_c, 5, 65, 64
14, 177834, Note_on_c, 5, 69, 63
14, 177836, Note_off_c, 5, 67, 64
14, 177878, Note_off_c, 5, 69, 64
14, 177886, Note_on_c, 5, 67, 55
14, 177951, Note_off_c, 5, 67, 64
14, 177951, Note_on_c, 5, 69, 59
14, 178000, Note_on_c, 5, 71, 58
14, 178002, Note_off_c, 5, 69, 64
14, 178053, Note_off_c, 5, 71, 64
14, 178071, Note_on_c, 5, 72, 76
14, 178193, Note_off_c, 5, 72, 64
14, 178256, Note_on_c, 5, 67, 57
14, 178293, Note_off_c, 5, 67, 64
14, 178318, Note_on_c, 5, 72, 82
14, 178428, Note_off_c, 5, 72, 64
14, 178497, Note_on_c, 5, 72, 68
14, 178530, Note_off_c, 5, 72, 64
14, 178549, Note_on_c, 5, 72, 82
14, 178655, Note_off_c, 5, 72, 64
14, 178709, Note_on_c, 5, 71, 60
14, 178740, Note_on_c, 5, 69, 64
14, 178747, Note_off_c, 5, 71, 64
14, 178772, Note_on_c, 5, 71, 59
14, 178782, Note_off_c, 5, 69, 64
14, 178797, Note_on_c, 5, 72, 72
14, 178800, Note_off_c, 5, 71, 64
14, 178827, Note_on_c, 5, 71, 76
14, 178832, Note_off_c, 5, 72, 64
14, 178855, Note_on_c, 5, 72, 80
14, 178857, Note_off_c, 5, 71, 64
14, 178879, Note_on_c, 5, 71, 78
14, 178893, Note_off_c, 5, 72, 64
14, 178937, Note_off_c, 5, 71, 64
14, 178962, Note_on_c, 5, 72, 70
14, 178990, Note_off_c, 5, 72, 64
14, 179025, Note_on_c, 5, 72, 72
14, 179274, Note_off_c, 5, 72, 64
14, 194637, Note_on_c, 5, 72, 66
14, 195113, Note_off_c, 5, 72, 64
14, 195118, Note_on_c, 5, 71, 62
14, 195349, Note_off_c, 5, 71, 64
14, 195359, Note_on_c, 5, 72, 44
14, 195450, Note_off_c, 5, 72, 64
14, 195481, Note_on_c, 5, 79, 62
14, 195530, Note_off_c, 5, 79, 64
14, 195604, Note_on_c, 5, 79, 85
14, 195645, Note_off_c, 5, 79, 64
14, 195723, Note_on_c, 5, 79, 85
14, 195763, Note_off_c, 5, 79, 64
14, 195843, Note_on_c, 5, 76, 78
14, 195968, Note_on_c, 5, 77, 78
14, 195970, Note_off_c, 5, 76, 64
14, 196015, Note_on_c, 5, 79, 72
14, 196017, Note_off_c, 5, 77, 64
14, 196065, Note_off_c, 5, 79, 64
14, 196074, Note_on_c, 5, 81, 72
14, 196112, Note_off_c, 5, 81, 64
14, 196198, Note_on_c, 5, 77, 76
14, 196241, Note_off_c, 5, 77, 64
14, 196322, Note_on_c, 5, 74, 66
14, 196364, Note_off_c, 5, 74, 64
14, 196440, Note_on_c, 5, 79, 76
14, 196476, Note_off_c, 5, 79, 64
14, 196559, Note_on_c, 5, 67, 62
14, 196605, Note_off_c, 5, 67, 64
14, 196683, Note_on_c, 5, 77, 76
14, 196717, Note_off_c, 5, 77, 64
14, 196800, Note_on_c, 5, 76, 72
14, 196852, Note_off_c, 5, 76, 64
14, 196862, Note_on_c, 5, 79, 66
14, 196919, Note_off_c, 5, 79, 64
14, 196926, Note_on_c, 5, 77, 50
14, 196972, Note_off_c, 5, 77, 64
14, 196976, Note_on_c, 5, 79, 53
14, 197022, Note_off_c, 5, 79, 64
14, 197034, Note_on_c, 5, 81, 74
14, 197088, Note_off_c, 5, 81, 64
14, 197088, Note_on_c, 5, 79, 61
14, 197143, Note_off_c, 5, 79, 64
14, 197157, Note_on_c, 5, 77, 53
14, 197206, Note_off_c, 5, 77, 64
14, 197212, Note_on_c, 5, 76, 49
14, 197256, Note_off_c, 5, 76, 64
14, 197271, Note_on_c, 5, 74, 72
14, 197330, Note_off_c, 5, 74, 64
14, 197332, Note_on_c, 5, 77, 62
14, 197384, Note_off_c, 5, 77, 64
14, 197396, Note_on_c, 5, 76, 46
14, 197442, Note_off_c, 5, 76, 64
14, 197448, Note_on_c, 5, 77, 57
14, 197498, Note_off_c, 5, 77, 64
14, 197508, Note_on_c, 5, 79, 68
14, 197558, Note_off_c, 5, 79, 64
14, 197562, Note_on_c, 5, 77, 60
14, 197620, Note_off_c, 5, 77, 64
14, 197627, Note_on_c, 5, 76, 59
14, 197684, Note_off_c, 5, 76, 64
14, 197687, Note_on_c, 5, 74, 57
14, 197735, Note_off_c, 5, 74, 64
14, 197751, Note_on_c, 5, 72, 63
14, 197797, Note_off_c, 5, 72, 64
14, 197809, Note_on_c, 5, 76, 64
14, 197867, Note_on_c, 5, 74, 44
14, 197869, Note_off_c, 5, 76, 64
14, 197925, Note_on_c, 5, 76, 61
14, 197928, Note_off_c, 5, 74, 64
14, 197973, Note_off_c, 5, 76, 64
14, 197991, Note_on_c, 5, 77, 70
14, 198123, Note_off_c, 5, 77, 64
14, 198171, Note_on_c, 5, 77, 78
14, 198202, Note_off_c, 5, 77, 64
14, 198232, Note_on_c, 5, 77, 74
14, 198286, Note_off_c, 5, 77, 64
14, 198286, Note_on_c, 5, 76, 58
14, 198341, Note_off_c, 5, 76, 64
14, 198344, Note_on_c, 5, 77, 60
14, 198394, Note_off_c, 5, 77, 64
14, 198403, Note_on_c, 5, 74, 64
14, 198457, Note_off_c, 5, 74, 64
14, 198469, Note_on_c, 5, 76, 66
14, 198522, Note_off_c, 5, 76, 64
14, 198530, Note_on_c, 5, 79, 60
14, 198585, Note_off_c, 5, 79, 64
14, 198589, Note_on_c, 5, 77, 41
14, 198644, Note_on_c, 5, 79, 60
14, 198648, Note_off_c, 5, 77, 64
14, 198697, Note_off_c, 5, 79, 64
14, 198710, Note_on_c, 5, 81, 66
14, 198988, Note_off_c, 5, 81, 64
14, 199008, Note_on_c, 5, 74, 64
14, 199066, Note_on_c, 5, 76, 68
14, 199068, Note_off_c, 5, 74, 64
14, 199120, Note_off_c, 5, 76, 64
14, 199123, Note_on_c, 5, 77, 63
14, 199174, Note_off_c, 5, 77, 64
14, 199191, Note_on_c, 5, 79, 76
14, 199477, Note_off_c, 5, 79, 64
14, 199493, Note_on_c, 5, 72, 70
14, 199550, Note_on_c, 5, 74, 63
14, 199551, Note_off_c, 5, 72, 64
14, 199609, Note_on_c, 5, 76, 60
14, 199612, Note_off_c, 5, 74, 64
14, 199662, Note_off_c, 5, 76, 64
14, 199676, Note_on_c, 5, 77, 72
14, 199733, Note_on_c, 5, 76, 60
14, 199735, Note_off_c, 5, 77, 64
14, 199789, Note_off_c, 5, 76, 64
14, 199789, Note_on_c, 5, 74, 52
14, 199845, Note_off_c, 5, 74, 64
14, 199849, Note_on_c, 5, 72, 57
14, 199891, Note_off_c, 5, 72, 64
14, 199912, Note_on_c, 5, 71, 58
14, 199966, Note_off_c, 5, 71, 64
14, 199972, Note_on_c, 5, 74, 59
14, 200031, Note_off_c, 5, 74, 64
14, 200033, Note_on_c, 5, 76, 63
14, 200091, Note_on_c, 5, 77, 63
14, 200109, Note_off_c, 5, 76, 64
14, 200136, Note_off_c, 5, 77, 64
14, 200152, Note_on_c, 5, 76, 66
14, 200208, Note_on_c, 5, 79, 63
14, 200209, Note_off_c, 5, 76, 64
14, 200266, Note_off_c, 5, 79, 64
14, 200275, Note_on_c, 5, 77, 41
14, 200330, Note_on_c, 5, 79, 58
14, 200334, Note_off_c, 5, 77, 64
14, 200378, Note_off_c, 5, 79, 64
14, 200392, Note_on_c, 5, 81, 70
14, 200451, Note_on_c, 5, 79, 59
14, 200452, Note_off_c, 5, 81, 64
14, 200507, Note_off_c, 5, 79, 64
14, 200511, Note_on_c, 5, 77, 53
14, 200574, Note_off_c, 5, 77, 64
14, 200576, Note_on_c, 5, 76, 56
14, 200630, Note_off_c, 5, 76, 64
14, 200640, Note_on_c, 5, 74, 70
14, 200696, Note_off_c, 5, 74, 64
14, 200696, Note_on_c, 5, 77, 62
14, 200753, Note_off_c, 5, 77, 64
14, 200759, Note_on_c, 5, 76, 49
14, 200814, Note_off_c, 5, 76, 64
14, 200815, Note_on_c, 5, 77, 59
14, 200864, Note_off_c, 5, 77, 64
14, 200876, Note_on_c, 5, 79, 66
14, 200931, Note_off_c, 5, 79, 64
14, 200933, Note_on_c, 5, 77, 60
14, 200992, Note_off_c, 5, 77, 64
14, 200995, Note_on_c, 5, 76, 58
14, 201051, Note_off_c, 5, 76, 64
14, 201051, Note_on_c, 5, 74, 58
14, 201104, Note_off_c, 5, 74, 64
14, 201113, Note_on_c, 5, 72, 59
14, 201164, Note_off_c, 5, 72, 64
14, 201168, Note_on_c, 5, 76, 63
14, 201227, Note_on_c, 5, 74, 45
14, 201231, Note_off_c, 5, 76, 64
14, 201291, Note_on_c, 5, 76, 53
14, 201293, Note_off_c, 5, 74, 64
14, 201344, Note_off_c, 5, 76, 64
14, 201348, Note_on_c, 5, 77, 57
14, 201403, Note_off_c, 5, 77, 64
14, 201405, Note_on_c, 5, 76, 60
14, 201466, Note_off_c, 5, 76, 64
14, 201471, Note_on_c, 5, 74, 51
14, 201532, Note_off_c, 5, 74, 64
14, 201535, Note_on_c, 5, 72, 52
14, 201580, Note_off_c, 5, 72, 64
14, 201594, Note_on_c, 5, 71, 68
14, 201651, Note_off_c, 5, 71, 64
14, 201653, Note_on_c, 5, 74, 64
14, 201713, Note_off_c, 5, 74, 64
14, 201718, Note_on_c, 5, 72, 33
14, 201776, Note_off_c, 5, 72, 64
14, 201776, Note_on_c, 5, 74, 53
14, 201832, Note_off_c, 5, 74, 64
14, 201832, Note_on_c, 5, 76, 55
14, 201892, Note_on_c, 5, 74, 58
14, 201894, Note_off_c, 5, 76, 64
14, 201951, Note_off_c, 5, 74, 64
14, 201953, Note_on_c, 5, 72, 55
14, 202010, Note_off_c, 5, 72, 64
14, 202014, Note_on_c, 5, 71, 43
14, 202054, Note_off_c, 5, 71, 64
14, 202070, Note_on_c, 5, 69, 68
14, 202130, Note_off_c, 5, 69, 64
14, 202130, Note_on_c, 5, 72, 59
14, 202185, Note_off_c, 5, 72, 64
14, 202191, Note_on_c, 5, 71, 36
14, 202242, Note_on_c, 5, 72, 64
14, 202246, Note_off_c, 5, 71, 64
14, 202295, Note_off_c, 5, 72, 64
14, 202307, Note_on_c, 5, 74, 59
14, 202362, Note_on_c, 5, 72, 64
14, 202368, Note_off_c, 5, 74, 64
14, 202422, Note_on_c, 5, 71, 59
14, 202425, Note_off_c, 5, 72, 64
14, 202463, Note_off_c, 5, 71, 64
14, 202474, Note_on_c, 5, 69, 60
14, 202541, Note_off_c, 5, 69, 64
14, 202544, Note_on_c, 5, 71, 57
14, 202609, Note_off_c, 5, 71, 64
14, 202673, Note_on_c, 5, 79, 80
14, 202705, Note_off_c, 5, 79, 64
14, 202792, Note_on_c, 5, 79, 82
14, 202825, Note_off_c, 5, 79, 64
14, 202912, Note_on_c, 5, 79, 85
14, 202951, Note_off_c, 5, 79, 64
14, 203039, Note_on_c, 5, 76, 78
14, 203149, Note_off_c, 5, 76, 64
14, 203160, Note_on_c, 5, 77, 70
14, 203209, Note_off_c, 5, 77, 64
14, 203214, Note_on_c, 5, 79, 68
14, 203261, Note_off_c, 5, 79, 64
14, 203275, Note_on_c, 5, 81, 78
14, 203310, Note_off_c, 5, 81, 64
14, 203396, Note_on_c, 5, 77, 70
14, 203435, Note_off_c, 5, 77, 64
14, 203514, Note_on_c, 5, 74, 70
14, 203558, Note_off_c, 5, 74, 64
14, 203632, Note_on_c, 5, 79, 82
14, 203673, Note_off_c, 5, 79, 64
14, 203749, Note_on_c, 5, 67, 64
14, 203800, Note_off_c, 5, 67, 64
14, 203873, Note_on_c, 5, 77, 80
14, 203914, Note_off_c, 5, 77, 64
14, 203995, Note_on_c, 5, 76, 78
14, 204136, Note_off_c, 5, 76, 64
14, 204172, Note_on_c, 5, 74, 64
14, 204200, Note_off_c, 5, 74, 64
14, 204229, Note_on_c, 5, 76, 78
14, 204257, Note_on_c, 5, 74, 63
14, 204258, Note_off_c, 5, 76, 64
14, 204287, Note_on_c, 5, 76, 82
14, 204293, Note_off_c, 5, 74, 64
14, 204315, Note_on_c, 5, 74, 63
14, 204324, Note_off_c, 5, 76, 64
14, 204379, Note_off_c, 5, 74, 64
14, 204412, Note_on_c, 5, 72, 70
14, 204442, Note_off_c, 5, 72, 64
14, 204485, Note_on_c, 5, 72, 57
14, 204709, Note_off_c, 5, 72, 64
14, 218093, Note_on_c, 5, 76, 87
14, 218119, Note_on_c, 5, 74, 85
14, 218126, Note_off_c, 5, 76, 64
14, 218148, Note_off_c, 5, 74, 64
14, 218152, Note_on_c, 5, 76, 89
14, 218256, Note_off_c, 5, 76, 64
14, 218333, Note_on_c, 5, 77, 87
14, 218368, Note_off_c, 5, 77, 64
14, 218397, Note_on_c, 5, 76, 85
14, 218473, Note_on_c, 5, 74, 52
14, 218482, Note_off_c, 5, 76, 64
14, 218510, Note_off_c, 5, 74, 64
14, 218511, Note_on_c, 5, 76, 63
14, 218540, Note_on_c, 5, 74, 64
14, 218543, Note_off_c, 5, 76, 64
14, 218560, Note_off_c, 5, 74, 64
14, 218563, Note_on_c, 5, 76, 64
14, 218583, Note_on_c, 5, 74, 66
14, 218585, Note_off_c, 5, 76, 64
14, 218599, Note_off_c, 5, 74, 64
14, 218602, Note_on_c, 5, 76, 74
14, 218618, Note_on_c, 5, 74, 66
14, 218622, Note_off_c, 5, 76, 64
14, 218634, Note_off_c, 5, 74, 64
14, 218634, Note_on_c, 5, 76, 85
14, 218651, Note_on_c, 5, 74, 78
14, 218660, Note_off_c, 5, 76, 64
14, 218766, Note_off_c, 5, 74, 64
14, 218815, Note_on_c, 5, 72, 85
14, 218848, Note_off_c, 5, 72, 64
14, 218885, Note_on_c, 5, 72, 72
14, 219608, Note_off_c, 5, 72, 64
14, 219608, End_track
15, 0, Start_track
15, 0, Title_t, "Bassoon"
15, 0, Program_c, 6, 70
15, 0, Control_c, 6, 7, 100
15, 15656, Note_on_c, 6, 42, 63
15, 15691, Note_off_c, 6, 42, 64
15, 15710, Note_on_c, 6, 43, 70
15, 15760, Note_off_c, 6, 43, 64
15, 15771, Note_on_c, 6, 45, 82
15, 15808, Note_off_c, 6, 45, 64
15, 15834, Note_on_c, 6, 47, 74
15, 15880, Note_off_c, 6, 47, 64
15, 15891, Note_on_c, 6, 45, 63
15, 15924, Note_off_c, 6, 45, 64
15, 15950, Note_on_c, 6, 43, 63
15, 15998, Note_off_c, 6, 43, 64
15, 16010, Note_on_c, 6, 45, 60
15, 16044, Note_off_c, 6, 45, 64
15, 16068, Note_on_c, 6, 47, 72
15, 16111, Note_off_c, 6, 47, 64
15, 16124, Note_on_c, 6, 43, 66
15, 16168, Note_off_c, 6, 43, 64
15, 16181, Note_on_c, 6, 45, 62
15, 16218, Note_off_c, 6, 45, 64
15, 16240, Note_on_c, 6, 47, 68
15, 16278, Note_off_c, 6, 47, 64
15, 16312, Note_on_c, 6, 48, 68
15, 16564, Note_off_c, 6, 48, 64
15, 16611, Note_on_c, 6, 55, 74
15, 16648, Note_off_c, 6, 55, 64
15, 16667, Note_on_c, 6, 57, 68
15, 16705, Note_off_c, 6, 57, 64
15, 16722, Note_on_c, 6, 59, 74
15, 16760, Note_off_c, 6, 59, 64
15, 16790, Note_on_c, 6, 60, 78
15, 17346, Note_off_c, 6, 60, 64
15, 17447, Note_on_c, 6, 60, 80
15, 17484, Note_off_c, 6, 60, 64
15, 17509, Note_on_c, 6, 59, 80
15, 17579, Note_off_c, 6, 59, 64
15, 17685, Note_on_c, 6, 57, 64
15, 17719, Note_off_c, 6, 57, 64
15, 17752, Note_on_c, 6, 59, 70
15, 17823, Note_off_c, 6, 59, 64
15, 17927, Note_on_c, 6, 57, 64
15, 17959, Note_off_c, 6, 57, 64
15, 17991, Note_on_c, 6, 59, 66
15, 18059, Note_off_c, 6, 59, 64
15, 18157, Note_on_c, 6, 55, 68
15, 18197, Note_off_c, 6, 55, 64
15, 18232, Note_on_c, 6, 57, 59
15, 18487, Note_off_c, 6, 57, 64
15, 18526, Note_on_c, 6, 57, 72
15, 18571, Note_off_c, 6, 57, 64
15, 18588, Note_on_c, 6, 59, 68
15, 18630, Note_off_c, 6, 59, 64
15, 18645, Note_on_c, 6, 60, 70
15, 18678, Note_off_c, 6, 60, 64
15, 18708, Note_on_c, 6, 62, 82
15, 18752, Note_off_c, 6, 62, 64
15, 18769, Note_on_c, 6, 60, 66
15, 18802, Note_off_c, 6, 60, 64
15, 18827, Note_on_c, 6, 59, 57
15, 18865, Note_off_c, 6, 59, 64
15, 18888, Note_on_c, 6, 60, 66
15, 18920, Note_off_c, 6, 60, 64
15, 18950, Note_on_c, 6, 62, 72
15, 18990, Note_off_c, 6, 62, 64
15, 19007, Note_on_c, 6, 59, 57
15, 19043, Note_off_c, 6, 59, 64
15, 19070, Note_on_c, 6, 60, 64
15, 19106, Note_off_c, 6, 60, 64
15, 19128, Note_on_c, 6, 62, 68
15, 19169, Note_off_c, 6, 62, 64
15, 19192, Note_on_c, 6, 55, 76
15, 19284, Note_off_c, 6, 55, 64
15, 19352, Note_on_c, 6, 57, 60
15, 19385, Note_off_c, 6, 57, 64
15, 19418, Note_on_c, 6, 59, 80
15, 19498, Note_off_c, 6, 59, 64
15, 19605, Note_on_c, 6, 55, 64
15, 19643, Note_off_c, 6, 55, 64
15, 19672, Note_on_c, 6, 60, 80
15, 19839, Note_off_c, 6, 60, 64
15, 19912, Note_on_c, 6, 48, 70
15, 20068, Note_off_c, 6, 48, 64
15, 20141, Note_on_c, 6, 55, 68
15, 20668, Note_off_c, 6, 55, 64
15, 20680, Note_on_c, 6, 54, 64
15, 20722, Note_off_c, 6, 54, 64
15, 20740, Note_on_c, 6, 55, 68
15, 20782, Note_off_c, 6, 55, 64
15, 20799, Note_on_c, 6, 57, 80
15, 20832, Note_off_c, 6, 57, 64
15, 20860, Note_on_c, 6, 59, 80
15, 20898, Note_off_c, 6, 59, 64
15, 20923, Note_on_c, 6, 55, 66
15, 20966, Note_off_c, 6, 55, 64
15, 20994, Note_on_c, 6, 57, 70
15, 21028, Note_off_c, 6, 57, 64
15, 21057, Note_on_c, 6, 59, 76
15, 21098, Note_off_c, 6, 59, 64
15, 21124, Note_on_c, 6, 48, 82
15, 21611, Note_off_c, 6, 48, 64
15, 21645, Note_on_c, 6, 47, 61
15, 21686, Note_off_c, 6, 47, 64
15, 21707, Note_on_c, 6, 45, 70
15, 21751, Note_off_c, 6, 45, 64
15, 21764, Note_on_c, 6, 47, 64
15, 21804, Note_off_c, 6, 47, 64
15, 21826, Note_on_c, 6, 48, 82
15, 21873, Note_off_c, 6, 48, 64
15, 21889, Note_on_c, 6, 45, 74
15, 21933, Note_off_c, 6, 45, 64
15, 21946, Note_on_c, 6, 47, 70
15, 21979, Note_off_c, 6, 47, 64
15, 22002, Note_on_c, 6, 48, 78
15, 22044, Note_off_c, 6, 48, 64
15, 22078, Note_on_c, 6, 40, 66
15, 22261, Note_off_c, 6, 40, 64
15, 22316, Note_on_c, 6, 52, 64
15, 22574, Note_off_c, 6, 52, 64
15, 22607, Note_on_c, 6, 50, 64
15, 22657, Note_off_c, 6, 50, 64
15, 22671, Note_on_c, 6, 52, 66
15, 22708, Note_off_c, 6, 52, 64
15, 22726, Note_on_c, 6, 54, 80
15, 22764, Note_off_c, 6, 54, 64
15, 22790, Note_on_c, 6, 55, 68
15, 22832, Note_off_c, 6, 55, 64
15, 22851, Note_on_c, 6, 54, 80
15, 22887, Note_off_c, 6, 54, 64
15, 22914, Note_on_c, 6, 55, 70
15, 22953, Note_off_c, 6, 55, 64
15, 22975, Note_on_c, 6, 52, 62
15, 23021, Note_off_c, 6, 52, 64
15, 23047, Note_on_c, 6, 61, 63
15, 23615, Note_off_c, 6, 61, 64
15, 23679, Note_on_c, 6, 59, 63
15, 23712, Note_off_c, 6, 59, 64
15, 23743, Note_on_c, 6, 61, 64
15, 23826, Note_off_c, 6, 61, 64
15, 23923, Note_on_c, 6, 57, 61
15, 23960, Note_off_c, 6, 57, 64
15, 23993, Note_on_c, 6, 62, 70
15, 24571, Note_off_c, 6, 62, 64
15, 24646, Note_on_c, 6, 64, 76
15, 24695, Note_off_c, 6, 64, 64
15, 24710, Note_on_c, 6, 62, 87
15, 24782, Note_off_c, 6, 62, 64
15, 24890, Note_on_c, 6, 60, 66
15, 24928, Note_off_c, 6, 60, 64
15, 24953, Note_on_c, 6, 59, 70
15, 25451, Note_off_c, 6, 59, 64
15, 25492, Note_on_c, 6, 57, 62
15, 25530, Note_off_c, 6, 57, 64
15, 25553, Note_on_c, 6, 55, 59
15, 25597, Note_off_c, 6, 55, 64
15, 25613, Note_on_c, 6, 57, 70
15, 25647, Note_off_c, 6, 57, 64
15, 25671, Note_on_c, 6, 59, 68
15, 25711, Note_off_c, 6, 59, 64
15, 25727, Note_on_c, 6, 55, 66
15, 25771, Note_off_c, 6, 55, 64
15, 25790, Note_on_c, 6, 57, 76
15, 25823, Note_off_c, 6, 57, 64
15, 25847, Note_on_c, 6, 59, 68
15, 25892, Note_off_c, 6, 59, 64
15, 25919, Note_on_c, 6, 48, 70
15, 26407, Note_off_c, 6, 48, 64
15, 26451, Note_on_c, 6, 47, 74
15, 26499, Note_off_c, 6, 47, 64
15, 26513, Note_on_c, 6, 48, 76
15, 26559, Note_off_c, 6, 48, 64
15, 26570, Note_on_c, 6, 50, 70
15, 26609, Note_off_c, 6, 50, 64
15, 26632, Note_on_c, 6, 52, 70
15, 26672, Note_off_c, 6, 52, 64
15, 26693, Note_on_c, 6, 48, 68
15, 26733, Note_off_c, 6, 48, 64
15, 26754, Note_on_c, 6, 50, 76
15, 26790, Note_off_c, 6, 50, 64
15, 26814, Note_on_c, 6, 52, 74
15, 26862, Note_off_c, 6, 52, 64
15, 26883, Note_on_c, 6, 45, 72
15, 27369, Note_off_c, 6, 45, 64
15, 27413, Note_on_c, 6, 43, 68
15, 27463, Note_off_c, 6, 43, 64
15, 27477, Note_on_c, 6, 45, 74
15, 27522, Note_off_c, 6, 45, 64
15, 27536, Note_on_c, 6, 47, 64
15, 27572, Note_off_c, 6, 47, 64
15, 27597, Note_on_c, 6, 48, 66
15, 27632, Note_off_c, 6, 48, 64
15, 27649, Note_on_c, 6, 47, 70
15, 27699, Note_off_c, 6, 47, 64
15, 27719, Note_on_c, 6, 48, 82
15, 27758, Note_off_c, 6, 48, 64
15, 27775, Note_on_c, 6, 50, 66
15, 27809, Note_off_c, 6, 50, 64
15, 27836, Note_on_c, 6, 52, 68
15, 27960, Note_off_c, 6, 52, 64
15, 28073, Note_on_c, 6, 64, 66
15, 28207, Note_off_c, 6, 64, 64
15, 28318, Note_on_c, 6, 62, 70
15, 28443, Note_off_c, 6, 62, 64
15, 28544, Note_on_c, 6, 60, 66
15, 28675, Note_off_c, 6, 60, 64
15, 28793, Note_on_c, 6, 59, 68
15, 28920, Note_off_c, 6, 59, 64
15, 29035, Note_on_c, 6, 47, 66
15, 29166, Note_off_c, 6, 47, 64
15, 29272, Note_on_c, 6, 45, 63
15, 29394, Note_off_c, 6, 45, 64
15, 29509, Note_on_c, 6, 43, 59
15, 29640, Note_off_c, 6, 43, 64
15, 29756, Note_on_c, 6, 42, 61
15, 29961, Note_off_c, 6, 42, 64
15, 29998, Note_on_c, 6, 43, 66
15, 30126, Note_off_c, 6, 43, 64
15, 30174, Note_on_c, 6, 48, 66
15, 30209, Note_off_c, 6, 48, 64
15, 30237, Note_on_c, 6, 50, 74
15, 30435, Note_off_c, 6, 50, 64
15, 30480, Note_on_c, 6, 38, 70
15, 30632, Note_off_c, 6, 38, 64
15, 30717, Note_on_c, 6, 43, 78
15, 30805, Note_off_c, 6, 43, 64
15, 56684, Note_on_c, 6, 60, 80
15, 56722, Note_off_c, 6, 60, 64
15, 56743, Note_on_c, 6, 59, 76
15, 56779, Note_off_c, 6, 59, 64
15, 56803, Note_on_c, 6, 57, 70
15, 56859, Note_off_c, 6, 57, 64
15, 56863, Note_on_c, 6, 55, 68
15, 56906, Note_off_c, 6, 55, 64
15, 56922, Note_on_c, 6, 54, 56
15, 56959, Note_off_c, 6, 54, 64
15, 56985, Note_on_c, 6, 55, 62
15, 57025, Note_off_c, 6, 55, 64
15, 57036, Note_on_c, 6, 52, 60
15, 57070, Note_off_c, 6, 52, 64
15, 57108, Note_on_c, 6, 57, 85
15, 57150, Note_off_c, 6, 57, 64
15, 57227, Note_on_c, 6, 45, 63
15, 57292, Note_off_c, 6, 45, 64
15, 58602, Note_on_c, 6, 58, 66
15, 58640, Note_off_c, 6, 58, 64
15, 58663, Note_on_c, 6, 57, 74
15, 58697, Note_off_c, 6, 57, 64
15, 58720, Note_on_c, 6, 55, 68
15, 58771, Note_off_c, 6, 55, 64
15, 58783, Note_on_c, 6, 53, 63
15, 58820, Note_off_c, 6, 53, 64
15, 58843, Note_on_c, 6, 52, 54
15, 58882, Note_off_c, 6, 52, 64
15, 58902, Note_on_c, 6, 53, 61
15, 58943, Note_off_c, 6, 53, 64
15, 58960, Note_on_c, 6, 50, 60
15, 59000, Note_off_c, 6, 50, 64
15, 59025, Note_on_c, 6, 55, 70
15, 59069, Note_off_c, 6, 55, 64
15, 59151, Note_on_c, 6, 43, 74
15, 59211, Note_off_c, 6, 43, 64
15, 61013, Note_on_c, 6, 53, 74
15, 61052, Note_off_c, 6, 53, 64
15, 61070, Note_on_c, 6, 52, 78
15, 61105, Note_off_c, 6, 52, 64
15, 61128, Note_on_c, 6, 50, 63
15, 61178, Note_off_c, 6, 50, 64
15, 61189, Note_on_c, 6, 48, 64
15, 61222, Note_off_c, 6, 48, 64
15, 61247, Note_on_c, 6, 47, 68
15, 61284, Note_off_c, 6, 47, 64
15, 61304, Note_on_c, 6, 48, 74
15, 61346, Note_off_c, 6, 48, 64
15, 61363, Note_on_c, 6, 45, 62
15, 61407, Note_off_c, 6, 45, 64
15, 61431, Note_on_c, 6, 50, 66
15, 61473, Note_off_c, 6, 50, 64
15, 61547, Note_on_c, 6, 38, 63
15, 61604, Note_off_c, 6, 38, 64
15, 62037, Note_on_c, 6, 55, 74
15, 62072, Note_off_c, 6, 55, 64
15, 62159, Note_on_c, 6, 55, 80
15, 62198, Note_off_c, 6, 55, 64
15, 62278, Note_on_c, 6, 55, 70
15, 62321, Note_off_c, 6, 55, 64
15, 62393, Note_on_c, 6, 54, 68
15, 62494, Note_off_c, 6, 54, 64
15, 62506, Note_on_c, 6, 55, 70
15, 62555, Note_off_c, 6, 55, 64
15, 62567, Note_on_c, 6, 57, 64
15, 62602, Note_off_c, 6, 57, 64
15, 62624, Note_on_c, 6, 59, 76
15, 62665, Note_off_c, 6, 59, 64
15, 62748, Note_on_c, 6, 55, 72
15, 62785, Note_off_c, 6, 55, 64
15, 62866, Note_on_c, 6, 52, 68
15, 62908, Note_off_c, 6, 52, 64
15, 62983, Note_on_c, 6, 57, 76
15, 63019, Note_off_c, 6, 57, 64
15, 63105, Note_on_c, 6, 45, 82
15, 63146, Note_off_c, 6, 45, 64
15, 63221, Note_on_c, 6, 55, 80
15, 63252, Note_off_c, 6, 55, 64
15, 63340, Note_on_c, 6, 54, 68
15, 63433, Note_off_c, 6, 54, 64
15, 63472, Note_on_c, 6, 55, 70
15, 63519, Note_off_c, 6, 55, 64
15, 63527, Note_on_c, 6, 57, 64
15, 63566, Note_off_c, 6, 57, 64
15, 63583, Note_on_c, 6, 59, 72
15, 63625, Note_off_c, 6, 59, 64
15, 63641, Note_on_c, 6, 60, 66
15, 63687, Note_off_c, 6, 60, 64
15, 63694, Note_on_c, 6, 62, 59
15, 63721, Note_off_c, 6, 62, 64
15, 63753, Note_on_c, 6, 64, 72
15, 63799, Note_off_c, 6, 64, 64
15, 63820, Note_on_c, 6, 57, 55
15, 63868, Note_off_c, 6, 57, 64
15, 63880, Note_on_c, 6, 60, 60
15, 63923, Note_off_c, 6, 60, 64
15, 63945, Note_on_c, 6, 59, 47
15, 63985, Note_off_c, 6, 59, 64
15, 64007, Note_on_c, 6, 60, 62
15, 64047, Note_off_c, 6, 60, 64
15, 64070, Note_on_c, 6, 62, 82
15, 64117, Note_off_c, 6, 62, 64
15, 64125, Note_on_c, 6, 60, 70
15, 64165, Note_off_c, 6, 60, 64
15, 64187, Note_on_c, 6, 59, 60
15, 64227, Note_off_c, 6, 59, 64
15, 64246, Note_on_c, 6, 57, 52
15, 64285, Note_off_c, 6, 57, 64
15, 64312, Note_on_c, 6, 55, 53
15, 64348, Note_off_c, 6, 55, 64
15, 64372, Note_on_c, 6, 59, 66
15, 64414, Note_off_c, 6, 59, 64
15, 64440, Note_on_c, 6, 57, 48
15, 64480, Note_off_c, 6, 57, 64
15, 64495, Note_on_c, 6, 59, 59
15, 64532, Note_off_c, 6, 59, 64
15, 64556, Note_on_c, 6, 60, 80
15, 64601, Note_off_c, 6, 60, 64
15, 64613, Note_on_c, 6, 59, 64
15, 64655, Note_off_c, 6, 59, 64
15, 64669, Note_on_c, 6, 57, 60
15, 64714, Note_off_c, 6, 57, 64
15, 64733, Note_on_c, 6, 55, 49
15, 64777, Note_off_c, 6, 55, 64
15, 64784, Note_on_c, 6, 54, 53
15, 64823, Note_off_c, 6, 54, 64
15, 64846, Note_on_c, 6, 57, 60
15, 64902, Note_off_c, 6, 57, 64
15, 64917, Note_on_c, 6, 55, 52
15, 64967, Note_off_c, 6, 55, 64
15, 64973, Note_on_c, 6, 57, 61
15, 65017, Note_off_c, 6, 57, 64
15, 65039, Note_on_c, 6, 59, 72
15, 65087, Note_off_c, 6, 59, 64
15, 65095, Note_on_c, 6, 57, 59
15, 65146, Note_off_c, 6, 57, 64
15, 65152, Note_on_c, 6, 55, 63
15, 65215, Note_on_c, 6, 54, 70
15, 65220, Note_off_c, 6, 55, 64
15, 65252, Note_off_c, 6, 54, 64
15, 65270, Note_on_c, 6, 52, 66
15, 65310, Note_off_c, 6, 52, 64
15, 65327, Note_on_c, 6, 55, 55
15, 65368, Note_off_c, 6, 55, 64
15, 65390, Note_on_c, 6, 54, 55
15, 65430, Note_off_c, 6, 54, 64
15, 65447, Note_on_c, 6, 55, 72
15, 65482, Note_off_c, 6, 55, 64
15, 65515, Note_on_c, 6, 57, 82
15, 65555, Note_off_c, 6, 57, 64
15, 65572, Note_on_c, 6, 55, 66
15, 65613, Note_off_c, 6, 55, 64
15, 65625, Note_on_c, 6, 54, 63
15, 65669, Note_off_c, 6, 54, 64
15, 65685, Note_on_c, 6, 52, 53
15, 65719, Note_off_c, 6, 52, 64
15, 65749, Note_on_c, 6, 50, 66
15, 65809, Note_off_c, 6, 50, 64
15, 65865, Note_on_c, 6, 62, 70
15, 65908, Note_off_c, 6, 62, 64
15, 65989, Note_on_c, 6, 62, 80
15, 66028, Note_off_c, 6, 62, 64
15, 66111, Note_on_c, 6, 62, 87
15, 66149, Note_off_c, 6, 62, 64
15, 66233, Note_on_c, 6, 59, 85
15, 66336, Note_off_c, 6, 59, 64
15, 66352, Note_on_c, 6, 60, 74
15, 66394, Note_off_c, 6, 60, 64
15, 66409, Note_on_c, 6, 62, 80
15, 66449, Note_off_c, 6, 62, 64
15, 66469, Note_on_c, 6, 64, 89
15, 66510, Note_off_c, 6, 64, 64
15, 66588, Note_on_c, 6, 60, 82
15, 66628, Note_off_c, 6, 60, 64
15, 66715, Note_on_c, 6, 57, 82
15, 66760, Note_off_c, 6, 57, 64
15, 66830, Note_on_c, 6, 62, 87
15, 66869, Note_off_c, 6, 62, 64
15, 66947, Note_on_c, 6, 50, 85
15, 66995, Note_off_c, 6, 50, 64
15, 67067, Note_on_c, 6, 60, 82
15, 67105, Note_off_c, 6, 60, 64
15, 67186, Note_on_c, 6, 59, 72
15, 67228, Note_off_c, 6, 59, 64
15, 67303, Note_on_c, 6, 55, 72
15, 67344, Note_off_c, 6, 55, 64
15, 67423, Note_on_c, 6, 62, 87
15, 67460, Note_off_c, 6, 62, 64
15, 67541, Note_on_c, 6, 50, 80
15, 67583, Note_off_c, 6, 50, 64
15, 67671, Note_on_c, 6, 43, 80
15, 67716, Note_off_c, 6, 43, 64
15, 85080, Note_on_c, 6, 60, 72
15, 85116, Note_off_c, 6, 60, 64
15, 85199, Note_on_c, 6, 60, 72
15, 85238, Note_off_c, 6, 60, 64
15, 85323, Note_on_c, 6, 60, 80
15, 85363, Note_off_c, 6, 60, 64
15, 85444, Note_on_c, 6, 59, 68
15, 85547, Note_off_c, 6, 59, 64
15, 85563, Note_on_c, 6, 60, 68
15, 85595, Note_off_c, 6, 60, 64
15, 85602, Note_on_c, 6, 62, 68
15, 85648, Note_off_c, 6, 62, 64
15, 85665, Note_on_c, 6, 64, 80
15, 85710, Note_off_c, 6, 64, 64
15, 85788, Note_on_c, 6, 60, 78
15, 85829, Note_off_c, 6, 60, 64
15, 85917, Note_on_c, 6, 57, 64
15, 85961, Note_off_c, 6, 57, 64
15, 86033, Note_on_c, 6, 62, 78
15, 86069, Note_off_c, 6, 62, 64
15, 86156, Note_on_c, 6, 50, 80
15, 86205, Note_off_c, 6, 50, 64
15, 86271, Note_on_c, 6, 60, 80
15, 86313, Note_off_c, 6, 60, 64
15, 86396, Note_on_c, 6, 59, 80
15, 86441, Note_off_c, 6, 59, 64
15, 86509, Note_on_c, 6, 55, 63
15, 86548, Note_off_c, 6, 55, 64
15, 86631, Note_on_c, 6, 60, 85
15, 86668, Note_off_c, 6, 60, 64
15, 86748, Note_on_c, 6, 48, 68
15, 86800, Note_off_c, 6, 48, 64
15, 86871, Note_on_c, 6, 41, 68
15, 86964, Note_off_c, 6, 41, 64
15, 86993, Note_on_c, 6, 53, 62
15, 87033, Note_off_c, 6, 53, 64
15, 87114, Note_on_c, 6, 53, 70
15, 87157, Note_off_c, 6, 53, 64
15, 87236, Note_on_c, 6, 53, 68
15, 87283, Note_off_c, 6, 53, 64
15, 87354, Note_on_c, 6, 52, 85
15, 87463, Note_off_c, 6, 52, 64
15, 87479, Note_on_c, 6, 53, 82
15, 87526, Note_off_c, 6, 53, 64
15, 87531, Note_on_c, 6, 55, 76
15, 87577, Note_off_c, 6, 55, 64
15, 87588, Note_on_c, 6, 57, 80
15, 87634, Note_off_c, 6, 57, 64
15, 87712, Note_on_c, 6, 53, 68
15, 87755, Note_off_c, 6, 53, 64
15, 87831, Note_on_c, 6, 50, 80
15, 87879, Note_off_c, 6, 50, 64
15, 87947, Note_on_c, 6, 55, 80
15, 87987, Note_off_c, 6, 55, 64
15, 88070, Note_on_c, 6, 43, 78
15, 88127, Note_off_c, 6, 43, 64
15, 88188, Note_on_c, 6, 53, 82
15, 88232, Note_off_c, 6, 53, 64
15, 88314, Note_on_c, 6, 52, 82
15, 88363, Note_off_c, 6, 52, 64
15, 88431, Note_on_c, 6, 55, 85
15, 88480, Note_off_c, 6, 55, 64
15, 88560, Note_on_c, 6, 52, 70
15, 88611, Note_off_c, 6, 52, 64
15, 88678, Note_on_c, 6, 48, 66
15, 88734, Note_off_c, 6, 48, 64
15, 88800, Note_on_c, 6, 53, 68
15, 88853, Note_off_c, 6, 53, 64
15, 88915, Note_on_c, 6, 50, 80
15, 88977, Note_off_c, 6, 50, 64
15, 89038, Note_on_c, 6, 52, 82
15, 89089, Note_off_c, 6, 52, 64
15, 89159, Note_on_c, 6, 53, 80
15, 89204, Note_off_c, 6, 53, 64
15, 89280, Note_on_c, 6, 55, 78
15, 89550, Note_off_c, 6, 55, 64
15, 93718, Note_on_c, 6, 60, 82
15, 93755, Note_off_c, 6, 60, 64
15, 93838, Note_on_c, 6, 60, 74
15, 93885, Note_off_c, 6, 60, 64
15, 93956, Note_on_c, 6, 60, 78
15, 94007, Note_off_c, 6, 60, 64
15, 94087, Note_on_c, 6, 59, 66
15, 94193, Note_off_c, 6, 59, 64
15, 94202, Note_on_c, 6, 60, 78
15, 94244, Note_off_c, 6, 60, 64
15, 94251, Note_on_c, 6, 62, 76
15, 94296, Note_off_c, 6, 62, 64
15, 94309, Note_on_c, 6, 64, 85
15, 94351, Note_off_c, 6, 64, 64
15, 94430, Note_on_c, 6, 60, 78
15, 94478, Note_off_c, 6, 60, 64
15, 94555, Note_on_c, 6, 57, 64
15, 94596, Note_off_c, 6, 57, 64
15, 94671, Note_on_c, 6, 62, 76
15, 94704, Note_off_c, 6, 62, 64
15, 94794, Note_on_c, 6, 50, 78
15, 94843, Note_off_c, 6, 50, 64
15, 94913, Note_on_c, 6, 60, 78
15, 94958, Note_off_c, 6, 60, 64
15, 95041, Note_on_c, 6, 59, 80
15, 95092, Note_on_c, 6, 57, 68
15, 95098, Note_off_c, 6, 59, 64
15, 95149, Note_off_c, 6, 57, 64
15, 95155, Note_on_c, 6, 55, 68
15, 95210, Note_on_c, 6, 57, 61
15, 95217, Note_off_c, 6, 55, 64
15, 95260, Note_off_c, 6, 57, 64
15, 95273, Note_on_c, 6, 59, 85
15, 95324, Note_on_c, 6, 55, 68
15, 95331, Note_off_c, 6, 59, 64
15, 95383, Note_off_c, 6, 55, 64
15, 95385, Note_on_c, 6, 57, 68
15, 95438, Note_off_c, 6, 57, 64
15, 95440, Note_on_c, 6, 59, 66
15, 95493, Note_off_c, 6, 59, 64
15, 95503, Note_on_c, 6, 60, 78
15, 95558, Note_off_c, 6, 60, 64
15, 95560, Note_on_c, 6, 62, 72
15, 95620, Note_off_c, 6, 62, 64
15, 95622, Note_on_c, 6, 60, 66
15, 95672, Note_off_c, 6, 60, 64
15, 95678, Note_on_c, 6, 59, 59
15, 95738, Note_on_c, 6, 57, 63
15, 95742, Note_off_c, 6, 59, 64
15, 95793, Note_off_c, 6, 57, 64
15, 95795, Note_on_c, 6, 55, 68
15, 95854, Note_on_c, 6, 53, 52
15, 95862, Note_off_c, 6, 55, 64
15, 95914, Note_off_c, 6, 53, 64
15, 95918, Note_on_c, 6, 52, 49
15, 95973, Note_off_c, 6, 52, 64
15, 95979, Note_on_c, 6, 50, 78
15, 96040, Note_on_c, 6, 53, 61
15, 96044, Note_off_c, 6, 50, 64
15, 96100, Note_off_c, 6, 53, 64
15, 96107, Note_on_c, 6, 52, 39
15, 96163, Note_on_c, 6, 53, 63
15, 96164, Note_off_c, 6, 52, 64
15, 96213, Note_off_c, 6, 53, 64
15, 96230, Note_on_c, 6, 55, 72
15, 96287, Note_off_c, 6, 55, 64
15, 96287, Note_on_c, 6, 53, 62
15, 96343, Note_on_c, 6, 52, 52
15, 96344, Note_off_c, 6, 53, 64
15, 96398, Note_off_c, 6, 52, 64
15, 96398, Note_on_c, 6, 50, 57
15, 96459, Note_off_c, 6, 50, 64
15, 96473, Note_on_c, 6, 48, 52
15, 96523, Note_off_c, 6, 48, 64
15, 96528, Note_on_c, 6, 52, 66
15, 96582, Note_off_c, 6, 52, 64
15, 96588, Note_on_c, 6, 50, 60
15, 96637, Note_off_c, 6, 50, 64
15, 96644, Note_on_c, 6, 52, 62
15, 96698, Note_off_c, 6, 52, 64
15, 96713, Note_on_c, 6, 53, 72
15, 96768, Note_on_c, 6, 52, 62
15, 96769, Note_off_c, 6, 53, 64
15, 96821, Note_off_c, 6, 52, 64
15, 96825, Note_on_c, 6, 50, 47
15, 96878, Note_off_c, 6, 50, 64
15, 96882, Note_on_c, 6, 48, 51
15, 96942, Note_off_c, 6, 48, 64
15, 96947, Note_on_c, 6, 47, 60
15, 97005, Note_on_c, 6, 50, 53
15, 97007, Note_off_c, 6, 47, 64
15, 97070, Note_off_c, 6, 50, 64
15, 97072, Note_on_c, 6, 48, 40
15, 97127, Note_on_c, 6, 50, 60
15, 97133, Note_off_c, 6, 48, 64
15, 97179, Note_off_c, 6, 50, 64
15, 97189, Note_on_c, 6, 52, 78
15, 97242, Note_on_c, 6, 50, 64
15, 97250, Note_off_c, 6, 52, 64
15, 97303, Note_on_c, 6, 48, 57
15, 97307, Note_off_c, 6, 50, 64
15, 97360, Note_on_c, 6, 47, 59
15, 97363, Note_off_c, 6, 48, 64
15, 97424, Note_off_c, 6, 47, 64
15, 97424, Note_on_c, 6, 45, 62
15, 97477, Note_on_c, 6, 48, 61
15, 97481, Note_off_c, 6, 45, 64
15, 97543, Note_on_c, 6, 47, 52
15, 97544, Note_off_c, 6, 48, 64
15, 97598, Note_on_c, 6, 48, 62
15, 97615, Note_off_c, 6, 47, 64
15, 97651, Note_off_c, 6, 48, 64
15, 97660, Note_on_c, 6, 50, 82
15, 97715, Note_on_c, 6, 48, 72
15, 97723, Note_off_c, 6, 50, 64
15, 97771, Note_off_c, 6, 48, 64
15, 97772, Note_on_c, 6, 47, 62
15, 97831, Note_on_c, 6, 45, 58
15, 97832, Note_off_c, 6, 47, 64
15, 97889, Note_off_c, 6, 45, 64
15, 97901, Note_on_c, 6, 43, 82
15, 97982, Note_off_c, 6, 43, 64
15, 98030, Note_on_c, 6, 55, 64
15, 98058, Note_off_c, 6, 55, 64
15, 98150, Note_on_c, 6, 55, 78
15, 98192, Note_off_c, 6, 55, 64
15, 98269, Note_on_c, 6, 55, 76
15, 98312, Note_off_c, 6, 55, 64
15, 98395, Note_on_c, 6, 52, 87
15, 98502, Note_off_c, 6, 52, 64
15, 98519, Note_on_c, 6, 53, 72
15, 98566, Note_off_c, 6, 53, 64
15, 98569, Note_on_c, 6, 55, 74
15, 98619, Note_off_c, 6, 55, 64
15, 98631, Note_on_c, 6, 57, 72
15, 98676, Note_off_c, 6, 57, 64
15, 98746, Note_on_c, 6, 53, 78
15, 98796, Note_off_c, 6, 53, 64
15, 98869, Note_on_c, 6, 50, 64
15, 98922, Note_off_c, 6, 50, 64
15, 98985, Note_on_c, 6, 55, 80
15, 99032, Note_off_c, 6, 55, 64
15, 99114, Note_on_c, 6, 43, 61
15, 99164, Note_off_c, 6, 43, 64
15, 99230, Note_on_c, 6, 53, 78
15, 99279, Note_off_c, 6, 53, 64
15, 99353, Note_on_c, 6, 52, 72
15, 99400, Note_off_c, 6, 52, 64
15, 99468, Note_on_c, 6, 48, 60
15, 99511, Note_off_c, 6, 48, 64
15, 99585, Note_on_c, 6, 55, 85
15, 99625, Note_off_c, 6, 55, 64
15, 99705, Note_on_c, 6, 43, 70
15, 99764, Note_off_c, 6, 43, 64
15, 99834, Note_on_c, 6, 48, 66
15, 100083, Note_off_c, 6, 48, 64
15, 110998, Note_on_c, 6, 48, 87
15, 111044, Note_off_c, 6, 48, 64
15, 111056, Note_on_c, 6, 50, 87
15, 111099, Note_off_c, 6, 50, 64
15, 111116, Note_on_c, 6, 52, 78
15, 111157, Note_off_c, 6, 52, 64
15, 111173, Note_on_c, 6, 50, 72
15, 111216, Note_off_c, 6, 50, 64
15, 111232, Note_on_c, 6, 52, 80
15, 111270, Note_off_c, 6, 52, 64
15, 111288, Note_on_c, 6, 53, 68
15, 111325, Note_off_c, 6, 53, 64
15, 111358, Note_on_c, 6, 55, 74
15, 111610, Note_off_c, 6, 55, 64
15, 111656, Note_on_c, 6, 55, 82
15, 111702, Note_off_c, 6, 55, 64
15, 111720, Note_on_c, 6, 57, 80
15, 111758, Note_off_c, 6, 57, 64
15, 111776, Note_on_c, 6, 58, 78
15, 111816, Note_off_c, 6, 58, 64
15, 111834, Note_on_c, 6, 60, 82
15, 111875, Note_off_c, 6, 60, 64
15, 111890, Note_on_c, 6, 58, 64
15, 111926, Note_off_c, 6, 58, 64
15, 111949, Note_on_c, 6, 57, 57
15, 111988, Note_off_c, 6, 57, 64
15, 112006, Note_on_c, 6, 58, 78
15, 112048, Note_off_c, 6, 58, 64
15, 112065, Note_on_c, 6, 60, 82
15, 112111, Note_off_c, 6, 60, 64
15, 112124, Note_on_c, 6, 57, 64
15, 112168, Note_off_c, 6, 57, 64
15, 112186, Note_on_c, 6, 58, 60
15, 112225, Note_off_c, 6, 58, 64
15, 112241, Note_on_c, 6, 60, 78
15, 112280, Note_off_c, 6, 60, 64
15, 112312, Note_on_c, 6, 53, 74
15, 112431, Note_off_c, 6, 53, 64
15, 112492, Note_on_c, 6, 50, 70
15, 112517, Note_on_c, 6, 52, 78
15, 112522, Note_off_c, 6, 50, 64
15, 112545, Note_off_c, 6, 52, 64
15, 112555, Note_on_c, 6, 53, 85
15, 112646, Note_off_c, 6, 53, 64
15, 112730, Note_on_c, 6, 55, 68
15, 112755, Note_on_c, 6, 57, 66
15, 112762, Note_off_c, 6, 55, 64
15, 112786, Note_off_c, 6, 57, 64
15, 112790, Note_on_c, 6, 58, 58
15, 113155, Note_off_c, 6, 58, 64
15, 113200, Note_on_c, 6, 58, 78
15, 113236, Note_off_c, 6, 58, 64
15, 113266, Note_on_c, 6, 58, 82
15, 113304, Note_off_c, 6, 58, 64
15, 113320, Note_on_c, 6, 60, 80
15, 113358, Note_off_c, 6, 60, 64
15, 113379, Note_on_c, 6, 58, 72
15, 113418, Note_off_c, 6, 58, 64
15, 113440, Note_on_c, 6, 57, 72
15, 113482, Note_off_c, 6, 57, 64
15, 113505, Note_on_c, 6, 58, 68
15, 113541, Note_off_c, 6, 58, 64
15, 113561, Note_on_c, 6, 55, 60
15, 113600, Note_off_c, 6, 55, 64
15, 113626, Note_on_c, 6, 57, 80
15, 113663, Note_off_c, 6, 57, 64
15, 113682, Note_on_c, 6, 58, 64
15, 113721, Note_off_c, 6, 58, 64
15, 113753, Note_on_c, 6, 57, 72
15, 113929, Note_off_c, 6, 57, 64
15, 114000, Note_on_c, 6, 45, 68
15, 114145, Note_off_c, 6, 45, 64
15, 114239, Note_on_c, 6, 50, 78
15, 114558, Note_off_c, 6, 50, 64
15, 114592, Note_on_c, 6, 52, 68
15, 114610, Note_on_c, 6, 53, 85
15, 114622, Note_off_c, 6, 52, 64
15, 114641, Note_on_c, 6, 55, 82
15, 114659, Note_off_c, 6, 53, 64
15, 114666, Note_on_c, 6, 57, 80
15, 114683, Note_off_c, 6, 55, 64
15, 114687, Note_on_c, 6, 59, 87
15, 114698, Note_off_c, 6, 57, 64
15, 114708, Note_on_c, 6, 60, 82
15, 114716, Note_off_c, 6, 59, 64
15, 114780, Note_off_c, 6, 60, 64
15, 114780, Note_on_c, 6, 59, 66
15, 114823, Note_off_c, 6, 59, 64
15, 114835, Note_on_c, 6, 60, 80
15, 114881, Note_off_c, 6, 60, 64
15, 114890, Note_on_c, 6, 64, 78
15, 114928, Note_off_c, 6, 64, 64
15, 114950, Note_on_c, 6, 62, 78
15, 114995, Note_off_c, 6, 62, 64
15, 115008, Note_on_c, 6, 60, 66
15, 115046, Note_off_c, 6, 60, 64
15, 115069, Note_on_c, 6, 59, 80
15, 115104, Note_off_c, 6, 59, 64
15, 115127, Note_on_c, 6, 60, 80
15, 115163, Note_off_c, 6, 60, 64
15, 115194, Note_on_c, 6, 59, 80
15, 115305, Note_off_c, 6, 59, 64
15, 115371, Note_on_c, 6, 57, 64
15, 115408, Note_off_c, 6, 57, 64
15, 115433, Note_on_c, 6, 59, 89
15, 115519, Note_off_c, 6, 59, 64
15, 115611, Note_on_c, 6, 55, 76
15, 115653, Note_off_c, 6, 55, 64
15, 115677, Note_on_c, 6, 64, 82
15, 116017, Note_off_c, 6, 64, 64
15, 116089, Note_on_c, 6, 64, 78
15, 116121, Note_off_c, 6, 64, 64
15, 116151, Note_on_c, 6, 64, 80
15, 116273, Note_off_c, 6, 64, 64
15, 116326, Note_on_c, 6, 65, 72
15, 116350, Note_on_c, 6, 64, 66
15, 116360, Note_off_c, 6, 65, 64
15, 116378, Note_off_c, 6, 64, 64
15, 116388, Note_on_c, 6, 62, 78
15, 116480, Note_off_c, 6, 62, 64
15, 116561, Note_on_c, 6, 64, 60
15, 116580, Note_on_c, 6, 60, 72
15, 116588, Note_off_c, 6, 64, 64
15, 116609, Note_off_c, 6, 60, 64
15, 116621, Note_on_c, 6, 62, 70
15, 116984, Note_off_c, 6, 62, 64
15, 117048, Note_on_c, 6, 62, 76
15, 117073, Note_off_c, 6, 62, 64
15, 117111, Note_on_c, 6, 62, 63
15, 117388, Note_off_c, 6, 62, 64
15, 117412, Note_on_c, 6, 60, 68
15, 117444, Note_off_c, 6, 60, 64
15, 117464, Note_on_c, 6, 59, 68
15, 117506, Note_off_c, 6, 59, 64
15, 117522, Note_on_c, 6, 60, 76
15, 117560, Note_off_c, 6, 60, 64
15, 117581, Note_on_c, 6, 62, 74
15, 117621, Note_off_c, 6, 62, 64
15, 117638, Note_on_c, 6, 60, 60
15, 117694, Note_off_c, 6, 60, 64
15, 117707, Note_on_c, 6, 62, 70
15, 117750, Note_off_c, 6, 62, 64
15, 117763, Note_on_c, 6, 65, 74
15, 117810, Note_off_c, 6, 65, 64
15, 117825, Note_on_c, 6, 64, 78
15, 117874, Note_off_c, 6, 64, 64
15, 117884, Note_on_c, 6, 62, 70
15, 117927, Note_off_c, 6, 62, 64
15, 117950, Note_on_c, 6, 60, 66
15, 117994, Note_off_c, 6, 60, 64
15, 118011, Note_on_c, 6, 62, 78
15, 118060, Note_off_c, 6, 62, 64
15, 118082, Note_on_c, 6, 59, 63
15, 118590, Note_off_c, 6, 59, 64
15, 118610, Note_on_c, 6, 60, 70
15, 118650, Note_off_c, 6, 60, 64
15, 118670, Note_on_c, 6, 59, 72
15, 118707, Note_off_c, 6, 59, 64
15, 118726, Note_on_c, 6, 57, 63
15, 118778, Note_off_c, 6, 57, 64
15, 118784, Note_on_c, 6, 55, 66
15, 118830, Note_off_c, 6, 55, 64
15, 118843, Note_on_c, 6, 53, 61
15, 118890, Note_off_c, 6, 53, 64
15, 118904, Note_on_c, 6, 52, 64
15, 118949, Note_off_c, 6, 52, 64
15, 118961, Note_on_c, 6, 50, 72
15, 119006, Note_off_c, 6, 50, 64
15, 119026, Note_on_c, 6, 48, 76
15, 119546, Note_off_c, 6, 48, 64
15, 119571, Note_on_c, 6, 46, 68
15, 119607, Note_off_c, 6, 46, 64
15, 119625, Note_on_c, 6, 45, 72
15, 119666, Note_off_c, 6, 45, 64
15, 119682, Note_on_c, 6, 46, 76
15, 119726, Note_off_c, 6, 46, 64
15, 119743, Note_on_c, 6, 48, 74
15, 119784, Note_off_c, 6, 48, 64
15, 119807, Note_on_c, 6, 45, 74
15, 119844, Note_off_c, 6, 45, 64
15, 119870, Note_on_c, 6, 46, 82
15, 119916, Note_off_c, 6, 46, 64
15, 119928, Note_on_c, 6, 48, 78
15, 119969, Note_off_c, 6, 48, 64
15, 119998, Note_on_c, 6, 41, 70
15, 120486, Note_off_c, 6, 41, 64
15, 120533, Note_on_c, 6, 40, 70
15, 120580, Note_off_c, 6, 40, 64
15, 120597, Note_on_c, 6, 41, 85
15, 120646, Note_off_c, 6, 41, 64
15, 120655, Note_on_c, 6, 43, 70
15, 120700, Note_off_c, 6, 43, 64
15, 120715, Note_on_c, 6, 45, 66
15, 120754, Note_off_c, 6, 45, 64
15, 120772, Note_on_c, 6, 41, 68
15, 120816, Note_off_c, 6, 41, 64
15, 120833, Note_on_c, 6, 43, 68
15, 120877, Note_off_c, 6, 43, 64
15, 120890, Note_on_c, 6, 45, 68
15, 120939, Note_off_c, 6, 45, 64
15, 120963, Note_on_c, 6, 38, 68
15, 121443, Note_off_c, 6, 38, 64
15, 121489, Note_on_c, 6, 36, 63
15, 121529, Note_off_c, 6, 36, 64
15, 121554, Note_on_c, 6, 38, 80
15, 121599, Note_off_c, 6, 38, 64
15, 121610, Note_on_c, 6, 40, 64
15, 121651, Note_off_c, 6, 40, 64
15, 121672, Note_on_c, 6, 41, 70
15, 121714, Note_off_c, 6, 41, 64
15, 121732, Note_on_c, 6, 40, 74
15, 121773, Note_off_c, 6, 40, 64
15, 121792, Note_on_c, 6, 41, 66
15, 121826, Note_off_c, 6, 41, 64
15, 121850, Note_on_c, 6, 38, 64
15, 121889, Note_off_c, 6, 38, 64
15, 121915, Note_on_c, 6, 43, 80
15, 122033, Note_off_c, 6, 43, 64
15, 122093, Note_on_c, 6, 43, 72
15, 122139, Note_off_c, 6, 43, 64
15, 122157, Note_on_c, 6, 45, 87
15, 122241, Note_off_c, 6, 45, 64
15, 122334, Note_on_c, 6, 47, 72
15, 122376, Note_off_c, 6, 47, 64
15, 122393, Note_on_c, 6, 48, 80
15, 122490, Note_off_c, 6, 48, 64
15, 122558, Note_on_c, 6, 48, 63
15, 122600, Note_off_c, 6, 48, 64
15, 122628, Note_on_c, 6, 50, 87
15, 122729, Note_off_c, 6, 50, 64
15, 122807, Note_on_c, 6, 52, 64
15, 122843, Note_off_c, 6, 52, 64
15, 122871, Note_on_c, 6, 53, 66
15, 123379, Note_off_c, 6, 53, 64
15, 123406, Note_on_c, 6, 55, 76
15, 123448, Note_off_c, 6, 55, 64
15, 123464, Note_on_c, 6, 53, 72
15, 123500, Note_off_c, 6, 53, 64
15, 123522, Note_on_c, 6, 52, 70
15, 123556, Note_off_c, 6, 52, 64
15, 123586, Note_on_c, 6, 50, 70
15, 123629, Note_off_c, 6, 50, 64
15, 123644, Note_on_c, 6, 48, 72
15, 123688, Note_off_c, 6, 48, 64
15, 123708, Note_on_c, 6, 47, 78
15, 123760, Note_off_c, 6, 47, 64
15, 123771, Note_on_c, 6, 45, 85
15, 123815, Note_off_c, 6, 45, 64
15, 123830, Note_on_c, 6, 43, 80
15, 123930, Note_off_c, 6, 43, 64
15, 129229, Note_on_c, 6, 60, 85
15, 129268, Note_off_c, 6, 60, 64
15, 129348, Note_on_c, 6, 60, 80
15, 129388, Note_off_c, 6, 60, 64
15, 129475, Note_on_c, 6, 60, 78
15, 129511, Note_off_c, 6, 60, 64
15, 129593, Note_on_c, 6, 59, 85
15, 129704, Note_off_c, 6, 59, 64
15, 129707, Note_on_c, 6, 60, 74
15, 129760, Note_off_c, 6, 60, 64
15, 129765, Note_on_c, 6, 62, 78
15, 129801, Note_off_c, 6, 62, 64
15, 129831, Note_on_c, 6, 64, 82
15, 129874, Note_off_c, 6, 64, 64
15, 129952, Note_on_c, 6, 60, 74
15, 129993, Note_off_c, 6, 60, 64
15, 130067, Note_on_c, 6, 57, 74
15, 130116, Note_off_c, 6, 57, 64
15, 130190, Note_on_c, 6, 62, 80
15, 130226, Note_off_c, 6, 62, 64
15, 130310, Note_on_c, 6, 50, 82
15, 130361, Note_off_c, 6, 50, 64
15, 130431, Note_on_c, 6, 60, 82
15, 130472, Note_off_c, 6, 60, 64
15, 130554, Note_on_c, 6, 59, 89
15, 130609, Note_off_c, 6, 59, 64
15, 130615, Note_on_c, 6, 57, 68
15, 130665, Note_off_c, 6, 57, 64
15, 130674, Note_on_c, 6, 55, 64
15, 130732, Note_on_c, 6, 57, 63
15, 130738, Note_off_c, 6, 55, 64
15, 130777, Note_off_c, 6, 57, 64
15, 130796, Note_on_c, 6, 59, 85
15, 130848, Note_on_c, 6, 55, 72
15, 130852, Note_off_c, 6, 59, 64
15, 130899, Note_off_c, 6, 55, 64
15, 130904, Note_on_c, 6, 57, 63
15, 130960, Note_off_c, 6, 57, 64
15, 130960, Note_on_c, 6, 59, 72
15, 131002, Note_off_c, 6, 59, 64
15, 131026, Note_on_c, 6, 60, 80
15, 131079, Note_off_c, 6, 60, 64
15, 131144, Note_on_c, 6, 55, 78
15, 131190, Note_off_c, 6, 55, 64
15, 131269, Note_on_c, 6, 60, 82
15, 131410, Note_off_c, 6, 60, 64
15, 131450, Note_on_c, 6, 60, 80
15, 131476, Note_off_c, 6, 60, 64
15, 131513, Note_on_c, 6, 60, 80
15, 131555, Note_off_c, 6, 60, 64
15, 131567, Note_on_c, 6, 59, 76
15, 131606, Note_off_c, 6, 59, 64
15, 131624, Note_on_c, 6, 60, 76
15, 131666, Note_off_c, 6, 60, 64
15, 131680, Note_on_c, 6, 57, 64
15, 131730, Note_off_c, 6, 57, 64
15, 131753, Note_on_c, 6, 59, 82
15, 131888, Note_off_c, 6, 59, 64
15, 131935, Note_on_c, 6, 59, 68
15, 131964, Note_off_c, 6, 59, 64
15, 131991, Note_on_c, 6, 59, 80
15, 132032, Note_off_c, 6, 59, 64
15, 132117, Note_on_c, 6, 52, 78
15, 132164, Note_off_c, 6, 52, 64
15, 132241, Note_on_c, 6, 57, 85
15, 132383, Note_off_c, 6, 57, 64
15, 132416, Note_on_c, 6, 57, 70
15, 132446, Note_off_c, 6, 57, 64
15, 132483, Note_on_c, 6, 57, 87
15, 132536, Note_on_c, 6, 55, 78
15, 132539, Note_off_c, 6, 57, 64
15, 132586, Note_off_c, 6, 55, 64
15, 132589, Note_on_c, 6, 57, 72
15, 132636, Note_off_c, 6, 57, 64
15, 132645, Note_on_c, 6, 53, 63
15, 132701, Note_off_c, 6, 53, 64
15, 132707, Note_on_c, 6, 55, 70
15, 132852, Note_off_c, 6, 55, 64
15, 132888, Note_on_c, 6, 55, 82
15, 132920, Note_off_c, 6, 55, 64
15, 132946, Note_on_c, 6, 55, 80
15, 132989, Note_off_c, 6, 55, 64
15, 133074, Note_on_c, 6, 48, 85
15, 133121, Note_off_c, 6, 48, 64
15, 133189, Note_on_c, 6, 53, 80
15, 133333, Note_off_c, 6, 53, 64
15, 133371, Note_on_c, 6, 53, 82
15, 133400, Note_off_c, 6, 53, 64
15, 133437, Note_on_c, 6, 53, 89
15, 133482, Note_on_c, 6, 52, 72
15, 133485, Note_off_c, 6, 53, 64
15, 133533, Note_off_c, 6, 52, 64
15, 133537, Note_on_c, 6, 53, 66
15, 133587, Note_off_c, 6, 53, 64
15, 133592, Note_on_c, 6, 50, 63
15, 133624, Note_off_c, 6, 50, 64
15, 133657, Note_on_c, 6, 52, 68
15, 133714, Note_on_c, 6, 53, 66
15, 133722, Note_off_c, 6, 52, 64
15, 133771, Note_on_c, 6, 55, 70
15, 133776, Note_off_c, 6, 53, 64
15, 133817, Note_off_c, 6, 55, 64
15, 133832, Note_on_c, 6, 52, 57
15, 133882, Note_off_c, 6, 52, 64
15, 133901, Note_on_c, 6, 57, 76
15, 133960, Note_on_c, 6, 58, 70
15, 133967, Note_off_c, 6, 57, 64
15, 134024, Note_on_c, 6, 57, 70
15, 134035, Note_off_c, 6, 58, 64
15, 134081, Note_on_c, 6, 55, 74
15, 134097, Note_off_c, 6, 57, 64
15, 134141, Note_off_c, 6, 55, 64
15, 134141, Note_on_c, 6, 53, 60
15, 134199, Note_on_c, 6, 52, 66
15, 134211, Note_off_c, 6, 53, 64
15, 134258, Note_on_c, 6, 50, 70
15, 134264, Note_off_c, 6, 52, 64
15, 134318, Note_on_c, 6, 48, 64
15, 134321, Note_off_c, 6, 50, 64
15, 134368, Note_off_c, 6, 48, 64
15, 134377, Note_on_c, 6, 47, 70
15, 134440, Note_on_c, 6, 45, 64
15, 134443, Note_off_c, 6, 47, 64
15, 134511, Note_off_c, 6, 45, 64
15, 134514, Note_on_c, 6, 43, 59
15, 134570, Note_off_c, 6, 43, 64
15, 134574, Note_on_c, 6, 45, 70
15, 134627, Note_off_c, 6, 45, 64
15, 134635, Note_on_c, 6, 47, 68
15, 134690, Note_on_c, 6, 45, 74
15, 134694, Note_off_c, 6, 47, 64
15, 134743, Note_off_c, 6, 45, 64
15, 134744, Note_on_c, 6, 47, 70
15, 134782, Note_off_c, 6, 47, 64
15, 134799, Note_on_c, 6, 43, 57
15, 134849, Note_off_c, 6, 43, 64
15, 134864, Note_on_c, 6, 48, 76
15, 134913, Note_off_c, 6, 48, 64
15, 134996, Note_on_c, 6, 53, 74
15, 135040, Note_off_c, 6, 53, 64
15, 135119, Note_on_c, 6, 55, 80
15, 135156, Note_off_c, 6, 55, 64
15, 135232, Note_on_c, 6, 43, 72
15, 135274, Note_off_c, 6, 43, 64
15, 135353, Note_on_c, 6, 48, 66
15, 135406, Note_on_c, 6, 47, 66
15, 135411, Note_off_c, 6, 48, 64
15, 135466, Note_on_c, 6, 48, 62
15, 135475, Note_off_c, 6, 47, 64
15, 135527, Note_off_c, 6, 48, 64
15, 135527, Note_on_c, 6, 50, 72
15, 135573, Note_off_c, 6, 50, 64
15, 135586, Note_on_c, 6, 48, 68
15, 135637, Note_off_c, 6, 48, 64
15, 135638, Note_on_c, 6, 50, 68
15, 135700, Note_off_c, 6, 50, 64
15, 135701, Note_on_c, 6, 52, 66
15, 135740, Note_off_c, 6, 52, 64
15, 135756, Note_on_c, 6, 48, 57
15, 135807, Note_off_c, 6, 48, 64
15, 135824, Note_on_c, 6, 53, 62
15, 135880, Note_off_c, 6, 53, 64
15, 135889, Note_on_c, 6, 55, 60
15, 135936, Note_off_c, 6, 55, 64
15, 135951, Note_on_c, 6, 53, 59
15, 136003, Note_off_c, 6, 53, 64
15, 136010, Note_on_c, 6, 52, 57
15, 136062, Note_off_c, 6, 52, 64
15, 136074, Note_on_c, 6, 50, 61
15, 136126, Note_off_c, 6, 50, 64
15, 136130, Note_on_c, 6, 52, 62
15, 136173, Note_off_c, 6, 52, 64
15, 136189, Note_on_c, 6, 53, 68
15, 136237, Note_off_c, 6, 53, 64
15, 136245, Note_on_c, 6, 50, 57
15, 136293, Note_off_c, 6, 50, 64
15, 136309, Note_on_c, 6, 52, 66
15, 136358, Note_off_c, 6, 52, 64
15, 136363, Note_on_c, 6, 50, 56
15, 136412, Note_off_c, 6, 50, 64
15, 136420, Note_on_c, 6, 52, 57
15, 136472, Note_off_c, 6, 52, 64
15, 136482, Note_on_c, 6, 53, 60
15, 136536, Note_off_c, 6, 53, 64
15, 136541, Note_on_c, 6, 52, 59
15, 136594, Note_off_c, 6, 52, 64
15, 136595, Note_on_c, 6, 50, 59
15, 136650, Note_off_c, 6, 50, 64
15, 136664, Note_on_c, 6, 48, 46
15, 136715, Note_off_c, 6, 48, 64
15, 136720, Note_on_c, 6, 47, 52
15, 136774, Note_off_c, 6, 47, 64
15, 136787, Note_on_c, 6, 45, 57
15, 136845, Note_off_c, 6, 45, 64
15, 136846, Note_on_c, 6, 47, 63
15, 136911, Note_on_c, 6, 48, 57
15, 136912, Note_off_c, 6, 47, 64
15, 136964, Note_on_c, 6, 50, 60
15, 136967, Note_off_c, 6, 48, 64
15, 137009, Note_off_c, 6, 50, 64
15, 137020, Note_on_c, 6, 52, 68
15, 137075, Note_on_c, 6, 54, 55
15, 137087, Note_off_c, 6, 52, 64
15, 137128, Note_off_c, 6, 54, 64
15, 137138, Note_on_c, 6, 56, 63
15, 137193, Note_off_c, 6, 56, 64
15, 137194, Note_on_c, 6, 52, 68
15, 137237, Note_off_c, 6, 52, 64
15, 137263, Note_on_c, 6, 57, 68
15, 137311, Note_off_c, 6, 57, 64
15, 137325, Note_on_c, 6, 55, 60
15, 137375, Note_off_c, 6, 55, 64
15, 137384, Note_on_c, 6, 53, 59
15, 137436, Note_off_c, 6, 53, 64
15, 137448, Note_on_c, 6, 52, 58
15, 137490, Note_off_c, 6, 52, 64
15, 137508, Note_on_c, 6, 50, 60
15, 137562, Note_off_c, 6, 50, 64
15, 137569, Note_on_c, 6, 52, 62
15, 137615, Note_off_c, 6, 52, 64
15, 137624, Note_on_c, 6, 53, 58
15, 137670, Note_off_c, 6, 53, 64
15, 137682, Note_on_c, 6, 50, 59
15, 137731, Note_off_c, 6, 50, 64
15, 137746, Note_on_c, 6, 52, 61
15, 137803, Note_off_c, 6, 52, 64
15, 137803, Note_on_c, 6, 50, 53
15, 137849, Note_off_c, 6, 50, 64
15, 137866, Note_on_c, 6, 52, 60
15, 137920, Note_off_c, 6, 52, 64
15, 137926, Note_on_c, 6, 53, 64
15, 137966, Note_off_c, 6, 53, 64
15, 137988, Note_on_c, 6, 52, 68
15, 138034, Note_off_c, 6, 52, 64
15, 138044, Note_on_c, 6, 50, 61
15, 138100, Note_off_c, 6, 50, 64
15, 138107, Note_on_c, 6, 48, 57
15, 138153, Note_off_c, 6, 48, 64
15, 138166, Note_on_c, 6, 47, 64
15, 138215, Note_off_c, 6, 47, 64
15, 138239, Note_on_c, 6, 45, 74
15, 138296, Note_off_c, 6, 45, 64
15, 138362, Note_on_c, 6, 57, 74
15, 138399, Note_off_c, 6, 57, 64
15, 138473, Note_on_c, 6, 57, 82
15, 138513, Note_off_c, 6, 57, 64
15, 138592, Note_on_c, 6, 57, 85
15, 138629, Note_off_c, 6, 57, 64
15, 138712, Note_on_c, 6, 55, 82
15, 138810, Note_off_c, 6, 55, 64
15, 138826, Note_on_c, 6, 57, 64
15, 138870, Note_off_c, 6, 57, 64
15, 138883, Note_on_c, 6, 59, 59
15, 138923, Note_off_c, 6, 59, 64
15, 138949, Note_on_c, 6, 60, 85
15, 138992, Note_off_c, 6, 60, 64
15, 139072, Note_on_c, 6, 57, 80
15, 139115, Note_off_c, 6, 57, 64
15, 139189, Note_on_c, 6, 54, 66
15, 139233, Note_off_c, 6, 54, 64
15, 139307, Note_on_c, 6, 59, 80
15, 139349, Note_off_c, 6, 59, 64
15, 139424, Note_on_c, 6, 47, 74
15, 139475, Note_off_c, 6, 47, 64
15, 139540, Note_on_c, 6, 59, 70
15, 139583, Note_off_c, 6, 59, 64
15, 139659, Note_on_c, 6, 56, 78
15, 139703, Note_off_c, 6, 56, 64
15, 139778, Note_on_c, 6, 52, 59
15, 139824, Note_off_c, 6, 52, 64
15, 139908, Note_on_c, 6, 57, 80
15, 139949, Note_off_c, 6, 57, 64
15, 140029, Note_on_c, 6, 50, 82
15, 140073, Note_off_c, 6, 50, 64
15, 140164, Note_on_c, 6, 52, 76
15, 140307, Note_off_c, 6, 52, 64
15, 140396, Note_on_c, 6, 40, 78
15, 140542, Note_off_c, 6, 40, 64
15, 140639, Note_on_c, 6, 45, 64
15, 140861, Note_off_c, 6, 45, 64
15, 141654, Note_on_c, 6, 60, 70
15, 141712, Note_on_c, 6, 59, 64
15, 141721, Note_off_c, 6, 60, 64
15, 141770, Note_off_c, 6, 59, 64
15, 141772, Note_on_c, 6, 57, 51
15, 141817, Note_off_c, 6, 57, 64
15, 141836, Note_on_c, 6, 56, 63
15, 141892, Note_off_c, 6, 56, 64
15, 141892, Note_on_c, 6, 57, 64
15, 141952, Note_on_c, 6, 56, 57
15, 141963, Note_off_c, 6, 57, 64
15, 142010, Note_on_c, 6, 54, 60
15, 142015, Note_off_c, 6, 56, 64
15, 142064, Note_off_c, 6, 54, 64
15, 142074, Note_on_c, 6, 52, 70
15, 142123, Note_off_c, 6, 52, 64
15, 142134, Note_on_c, 6, 62, 70
15, 142198, Note_on_c, 6, 60, 78
15, 142200, Note_off_c, 6, 62, 64
15, 142251, Note_off_c, 6, 60, 64
15, 142256, Note_on_c, 6, 59, 59
15, 142315, Note_off_c, 6, 59, 64
15, 142318, Note_on_c, 6, 57, 57
15, 142363, Note_off_c, 6, 57, 64
15, 142378, Note_on_c, 6, 59, 64
15, 142438, Note_on_c, 6, 57, 56
15, 142442, Note_off_c, 6, 59, 64
15, 142496, Note_on_c, 6, 55, 57
15, 142505, Note_off_c, 6, 57, 64
15, 142557, Note_off_c, 6, 55, 64
15, 142557, Note_on_c, 6, 53, 60
15, 142610, Note_off_c, 6, 53, 64
15, 142614, Note_on_c, 6, 52, 55
15, 142662, Note_off_c, 6, 52, 64
15, 142672, Note_on_c, 6, 53, 57
15, 142719, Note_off_c, 6, 53, 64
15, 142726, Note_on_c, 6, 50, 66
15, 142772, Note_off_c, 6, 50, 64
15, 142789, Note_on_c, 6, 52, 76
15, 142839, Note_off_c, 6, 52, 64
15, 142908, Note_on_c, 6, 40, 64
15, 142958, Note_off_c, 6, 40, 64
15, 143026, Note_on_c, 6, 45, 64
15, 143115, Note_off_c, 6, 45, 64
15, 143151, Note_on_c, 6, 57, 66
15, 143198, Note_off_c, 6, 57, 64
15, 143275, Note_on_c, 6, 57, 76
15, 143318, Note_off_c, 6, 57, 64
15, 143394, Note_on_c, 6, 57, 76
15, 143430, Note_off_c, 6, 57, 64
15, 143518, Note_on_c, 6, 55, 82
15, 143624, Note_off_c, 6, 55, 64
15, 143633, Note_on_c, 6, 57, 68
15, 143688, Note_on_c, 6, 59, 70
15, 143696, Note_off_c, 6, 57, 64
15, 143732, Note_off_c, 6, 59, 64
15, 143750, Note_on_c, 6, 60, 74
15, 143789, Note_off_c, 6, 60, 64
15, 143870, Note_on_c, 6, 57, 76
15, 143908, Note_off_c, 6, 57, 64
15, 143993, Note_on_c, 6, 54, 70
15, 144034, Note_off_c, 6, 54, 64
15, 144116, Note_on_c, 6, 59, 85
15, 144152, Note_off_c, 6, 59, 64
15, 144233, Note_on_c, 6, 47, 80
15, 144287, Note_off_c, 6, 47, 64
15, 144351, Note_on_c, 6, 59, 87
15, 144392, Note_off_c, 6, 59, 64
15, 144483, Note_on_c, 6, 52, 66
15, 144708, Note_off_c, 6, 52, 64
15, 146033, Note_on_c, 6, 52, 74
15, 146071, Note_off_c, 6, 52, 64
15, 146155, Note_on_c, 6, 52, 78
15, 146199, Note_off_c, 6, 52, 64
15, 146279, Note_on_c, 6, 52, 78
15, 146329, Note_off_c, 6, 52, 64
15, 146397, Note_on_c, 6, 48, 85
15, 146510, Note_off_c, 6, 48, 64
15, 146519, Note_on_c, 6, 50, 74
15, 146573, Note_on_c, 6, 52, 70
15, 146575, Note_off_c, 6, 50, 64
15, 146614, Note_off_c, 6, 52, 64
15, 146633, Note_on_c, 6, 53, 80
15, 146675, Note_off_c, 6, 53, 64
15, 146747, Note_on_c, 6, 50, 80
15, 146790, Note_off_c, 6, 50, 64
15, 146867, Note_on_c, 6, 47, 66
15, 146919, Note_off_c, 6, 47, 64
15, 146985, Note_on_c, 6, 52, 76
15, 147020, Note_off_c, 6, 52, 64
15, 147110, Note_on_c, 6, 40, 78
15, 147170, Note_off_c, 6, 40, 64
15, 147233, Note_on_c, 6, 50, 82
15, 147276, Note_off_c, 6, 50, 64
15, 147354, Note_on_c, 6, 48, 85
15, 147411, Note_off_c, 6, 48, 64
15, 147411, Note_on_c, 6, 47, 72
15, 147465, Note_off_c, 6, 47, 64
15, 147471, Note_on_c, 6, 45, 60
15, 147525, Note_on_c, 6, 47, 59
15, 147531, Note_off_c, 6, 45, 64
15, 147573, Note_off_c, 6, 47, 64
15, 147584, Note_on_c, 6, 48, 60
15, 147644, Note_off_c, 6, 48, 64
15, 147647, Note_on_c, 6, 50, 62
15, 147710, Note_on_c, 6, 52, 68
15, 147722, Note_off_c, 6, 50, 64
15, 147752, Note_off_c, 6, 52, 64
15, 147767, Note_on_c, 6, 48, 66
15, 147822, Note_off_c, 6, 48, 64
15, 147826, Note_on_c, 6, 53, 64
15, 147888, Note_off_c, 6, 53, 64
15, 147889, Note_on_c, 6, 55, 68
15, 147941, Note_off_c, 6, 55, 64
15, 147952, Note_on_c, 6, 53, 59
15, 148006, Note_on_c, 6, 52, 57
15, 148007, Note_off_c, 6, 53, 64
15, 148063, Note_off_c, 6, 52, 64
15, 148066, Note_on_c, 6, 50, 63
15, 148120, Note_on_c, 6, 48, 57
15, 148124, Note_off_c, 6, 50, 64
15, 148177, Note_off_c, 6, 48, 64
15, 148184, Note_on_c, 6, 50, 63
15, 148243, Note_off_c, 6, 50, 64
15, 148245, Note_on_c, 6, 47, 61
15, 148290, Note_off_c, 6, 47, 64
15, 148307, Note_on_c, 6, 52, 80
15, 148364, Note_on_c, 6, 53, 76
15, 148365, Note_off_c, 6, 52, 64
15, 148418, Note_off_c, 6, 53, 64
15, 148427, Note_on_c, 6, 52, 61
15, 148480, Note_off_c, 6, 52, 64
15, 148483, Note_on_c, 6, 50, 57
15, 148543, Note_off_c, 6, 50, 64
15, 148548, Note_on_c, 6, 48, 60
15, 148590, Note_off_c, 6, 48, 64
15, 148609, Note_on_c, 6, 50, 66
15, 148662, Note_off_c, 6, 50, 64
15, 148672, Note_on_c, 6, 48, 59
15, 148723, Note_off_c, 6, 48, 64
15, 148728, Note_on_c, 6, 47, 68
15, 148773, Note_off_c, 6, 47, 64
15, 148792, Note_on_c, 6, 45, 70
15, 148845, Note_off_c, 6, 45, 64
15, 148908, Note_on_c, 6, 50, 80
15, 148951, Note_off_c, 6, 50, 64
15, 149031, Note_on_c, 6, 52, 82
15, 149070, Note_off_c, 6, 52, 64
15, 149154, Note_on_c, 6, 40, 80
15, 149196, Note_off_c, 6, 40, 64
15, 149277, Note_on_c, 6, 45, 66
15, 149518, Note_off_c, 6, 45, 64
15, 161802, Note_on_c, 6, 59, 72
15, 161851, Note_off_c, 6, 59, 64
15, 161862, Note_on_c, 6, 57, 70
15, 161917, Note_off_c, 6, 57, 64
15, 161925, Note_on_c, 6, 55, 66
15, 161967, Note_off_c, 6, 55, 64
15, 161992, Note_on_c, 6, 54, 89
15, 162040, Note_off_c, 6, 54, 64
15, 162049, Note_on_c, 6, 52, 70
15, 162089, Note_off_c, 6, 52, 64
15, 162106, Note_on_c, 6, 54, 70
15, 162153, Note_off_c, 6, 54, 64
15, 162164, Note_on_c, 6, 50, 64
15, 162205, Note_off_c, 6, 50, 64
15, 162231, Note_on_c, 6, 52, 80
15, 162287, Note_off_c, 6, 52, 64
15, 162290, Note_on_c, 6, 54, 60
15, 162338, Note_off_c, 6, 54, 64
15, 162348, Note_on_c, 6, 52, 66
15, 162401, Note_off_c, 6, 52, 64
15, 162405, Note_on_c, 6, 50, 66
15, 162463, Note_off_c, 6, 50, 64
15, 162469, Note_on_c, 6, 48, 61
15, 162508, Note_off_c, 6, 48, 64
15, 162526, Note_on_c, 6, 47, 66
15, 162575, Note_off_c, 6, 47, 64
15, 162586, Note_on_c, 6, 48, 64
15, 162632, Note_off_c, 6, 48, 64
15, 162646, Note_on_c, 6, 45, 53
15, 162695, Note_off_c, 6, 45, 64
15, 162707, Note_on_c, 6, 50, 66
15, 162761, Note_off_c, 6, 50, 64
15, 162771, Note_on_c, 6, 48, 62
15, 162816, Note_off_c, 6, 48, 64
15, 162832, Note_on_c, 6, 50, 60
15, 162882, Note_off_c, 6, 50, 64
15, 162893, Note_on_c, 6, 52, 68
15, 162950, Note_off_c, 6, 52, 64
15, 162951, Note_on_c, 6, 50, 61
15, 163004, Note_off_c, 6, 50, 64
15, 163010, Note_on_c, 6, 48, 58
15, 163056, Note_off_c, 6, 48, 64
15, 163076, Note_on_c, 6, 47, 55
15, 163123, Note_off_c, 6, 47, 64
15, 163132, Note_on_c, 6, 45, 53
15, 163179, Note_off_c, 6, 45, 64
15, 163194, Note_on_c, 6, 43, 60
15, 163253, Note_off_c, 6, 43, 64
15, 163256, Note_on_c, 6, 45, 56
15, 163318, Note_on_c, 6, 47, 64
15, 163324, Note_off_c, 6, 45, 64
15, 163365, Note_off_c, 6, 47, 64
15, 163375, Note_on_c, 6, 48, 56
15, 163431, Note_off_c, 6, 48, 64
15, 163437, Note_on_c, 6, 50, 55
15, 163489, Note_off_c, 6, 50, 64
15, 163496, Note_on_c, 6, 52, 64
15, 163545, Note_off_c, 6, 52, 64
15, 163556, Note_on_c, 6, 54, 58
15, 163599, Note_off_c, 6, 54, 64
15, 163604, Note_on_c, 6, 50, 64
15, 163650, Note_off_c, 6, 50, 64
15, 163667, Note_on_c, 6, 55, 70
15, 163716, Note_off_c, 6, 55, 64
15, 163725, Note_on_c, 6, 54, 66
15, 163777, Note_off_c, 6, 54, 64
15, 163785, Note_on_c, 6, 52, 60
15, 163832, Note_off_c, 6, 52, 64
15, 163839, Note_on_c, 6, 50, 60
15, 163879, Note_off_c, 6, 50, 64
15, 163901, Note_on_c, 6, 48, 59
15, 163954, Note_off_c, 6, 48, 64
15, 163963, Note_on_c, 6, 50, 66
15, 164013, Note_off_c, 6, 50, 64
15, 164023, Note_on_c, 6, 52, 60
15, 164070, Note_off_c, 6, 52, 64
15, 164077, Note_on_c, 6, 48, 57
15, 164126, Note_off_c, 6, 48, 64
15, 164145, Note_on_c, 6, 50, 68
15, 164201, Note_on_c, 6, 48, 53
15, 164202, Note_off_c, 6, 50, 64
15, 164247, Note_off_c, 6, 48, 64
15, 164265, Note_on_c, 6, 50, 66
15, 164327, Note_on_c, 6, 52, 61
15, 164328, Note_off_c, 6, 50, 64
15, 164380, Note_off_c, 6, 52, 64
15, 164384, Note_on_c, 6, 50, 63
15, 164437, Note_off_c, 6, 50, 64
15, 164439, Note_on_c, 6, 48, 60
15, 164493, Note_off_c, 6, 48, 64
15, 164502, Note_on_c, 6, 47, 53
15, 164542, Note_off_c, 6, 47, 64
15, 164563, Note_on_c, 6, 45, 68
15, 164603, Note_off_c, 6, 45, 64
15, 164636, Note_on_c, 6, 43, 80
15, 164703, Note_off_c, 6, 43, 64
15, 164754, Note_on_c, 6, 59, 74
15, 164791, Note_off_c, 6, 59, 64
15, 164874, Note_on_c, 6, 59, 82
15, 164912, Note_off_c, 6, 59, 64
15, 164990, Note_on_c, 6, 59, 82
15, 165030, Note_off_c, 6, 59, 64
15, 165109, Note_on_c, 6, 55, 85
15, 165215, Note_off_c, 6, 55, 64
15, 165232, Note_on_c, 6, 57, 64
15, 165276, Note_off_c, 6, 57, 64
15, 165286, Note_on_c, 6, 59, 78
15, 165330, Note_off_c, 6, 59, 64
15, 165345, Note_on_c, 6, 60, 80
15, 165383, Note_off_c, 6, 60, 64
15, 165464, Note_on_c, 6, 57, 78
15, 165504, Note_off_c, 6, 57, 64
15, 165586, Note_on_c, 6, 54, 70
15, 165634, Note_off_c, 6, 54, 64
15, 165710, Note_on_c, 6, 59, 76
15, 165748, Note_off_c, 6, 59, 64
15, 165826, Note_on_c, 6, 47, 66
15, 165884, Note_off_c, 6, 47, 64
15, 165954, Note_on_c, 6, 57, 78
15, 165987, Note_off_c, 6, 57, 64
15, 166072, Note_on_c, 6, 55, 68
15, 166131, Note_on_c, 6, 54, 72
15, 166134, Note_off_c, 6, 55, 64
15, 166180, Note_off_c, 6, 54, 64
15, 166184, Note_on_c, 6, 52, 66
15, 166241, Note_off_c, 6, 52, 64
15, 166246, Note_on_c, 6, 54, 72
15, 166289, Note_off_c, 6, 54, 64
15, 166304, Note_on_c, 6, 55, 72
15, 166365, Note_on_c, 6, 57, 64
15, 166370, Note_off_c, 6, 55, 64
15, 166417, Note_off_c, 6, 57, 64
15, 166426, Note_on_c, 6, 59, 68
15, 166468, Note_off_c, 6, 59, 64
15, 166479, Note_on_c, 6, 55, 62
15, 166522, Note_off_c, 6, 55, 64
15, 166545, Note_on_c, 6, 60, 82
15, 166601, Note_off_c, 6, 60, 64
15, 166607, Note_on_c, 6, 62, 66
15, 166662, Note_off_c, 6, 62, 64
15, 166669, Note_on_c, 6, 60, 66
15, 166722, Note_off_c, 6, 60, 64
15, 166729, Note_on_c, 6, 59, 59
15, 166772, Note_off_c, 6, 59, 64
15, 166791, Note_on_c, 6, 57, 66
15, 166843, Note_off_c, 6, 57, 64
15, 166850, Note_on_c, 6, 59, 70
15, 166898, Note_off_c, 6, 59, 64
15, 166911, Note_on_c, 6, 60, 72
15, 166962, Note_off_c, 6, 60, 64
15, 166965, Note_on_c, 6, 57, 63
15, 167014, Note_off_c, 6, 57, 64
15, 167030, Note_on_c, 6, 59, 66
15, 167083, Note_off_c, 6, 59, 64
15, 167085, Note_on_c, 6, 57, 54
15, 167128, Note_off_c, 6, 57, 64
15, 167144, Note_on_c, 6, 59, 74
15, 167203, Note_on_c, 6, 60, 66
15, 167207, Note_off_c, 6, 59, 64
15, 167254, Note_off_c, 6, 60, 64
15, 167269, Note_on_c, 6, 59, 72
15, 167323, Note_off_c, 6, 59, 64
15, 167324, Note_on_c, 6, 57, 57
15, 167379, Note_off_c, 6, 57, 64
15, 167385, Note_on_c, 6, 55, 58
15, 167443, Note_on_c, 6, 54, 72
15, 167448, Note_off_c, 6, 55, 64
15, 167497, Note_off_c, 6, 54, 64
15, 167505, Note_on_c, 6, 55, 66
15, 167563, Note_on_c, 6, 54, 60
15, 167568, Note_off_c, 6, 55, 64
15, 167610, Note_off_c, 6, 54, 64
15, 167624, Note_on_c, 6, 55, 74
15, 167687, Note_on_c, 6, 57, 63
15, 167688, Note_off_c, 6, 55, 64
15, 167739, Note_off_c, 6, 57, 64
15, 167750, Note_on_c, 6, 55, 72
15, 167804, Note_off_c, 6, 55, 64
15, 167806, Note_on_c, 6, 54, 68
15, 167858, Note_off_c, 6, 54, 64
15, 167869, Note_on_c, 6, 52, 64
15, 167924, Note_off_c, 6, 52, 64
15, 167925, Note_on_c, 6, 51, 50
15, 167982, Note_off_c, 6, 51, 64
15, 167990, Note_on_c, 6, 52, 64
15, 168032, Note_off_c, 6, 52, 64
15, 168046, Note_on_c, 6, 51, 55
15, 168097, Note_off_c, 6, 51, 64
15, 168100, Note_on_c, 6, 52, 57
15, 168156, Note_off_c, 6, 52, 64
15, 168164, Note_on_c, 6, 54, 80
15, 168206, Note_off_c, 6, 54, 64
15, 168221, Note_on_c, 6, 55, 61
15, 168284, Note_off_c, 6, 55, 64
15, 168284, Note_on_c, 6, 57, 58
15, 168336, Note_off_c, 6, 57, 64
15, 168350, Note_on_c, 6, 59, 64
15, 168408, Note_off_c, 6, 59, 64
15, 168409, Note_on_c, 6, 55, 59
15, 168465, Note_off_c, 6, 55, 64
15, 168480, Note_on_c, 6, 57, 64
15, 168538, Note_on_c, 6, 55, 78
15, 168540, Note_off_c, 6, 57, 64
15, 168585, Note_off_c, 6, 55, 64
15, 168598, Note_on_c, 6, 57, 64
15, 168645, Note_off_c, 6, 57, 64
15, 168652, Note_on_c, 6, 59, 68
15, 168712, Note_off_c, 6, 59, 64
15, 168713, Note_on_c, 6, 57, 61
15, 168768, Note_off_c, 6, 57, 64
15, 168768, Note_on_c, 6, 55, 58
15, 168814, Note_off_c, 6, 55, 64
15, 168824, Note_on_c, 6, 54, 61
15, 168887, Note_on_c, 6, 52, 59
15, 168896, Note_off_c, 6, 54, 64
15, 168936, Note_off_c, 6, 52, 64
15, 168944, Note_on_c, 6, 50, 58
15, 169003, Note_on_c, 6, 48, 63
15, 169010, Note_off_c, 6, 50, 64
15, 169051, Note_off_c, 6, 48, 64
15, 169075, Note_on_c, 6, 50, 59
15, 169124, Note_off_c, 6, 50, 64
15, 169132, Note_on_c, 6, 52, 60
15, 169171, Note_off_c, 6, 52, 64
15, 169189, Note_on_c, 6, 54, 60
15, 169239, Note_off_c, 6, 54, 64
15, 169243, Note_on_c, 6, 55, 70
15, 169295, Note_off_c, 6, 55, 64
15, 169308, Note_on_c, 6, 57, 61
15, 169355, Note_off_c, 6, 57, 64
15, 169364, Note_on_c, 6, 54, 53
15, 169412, Note_off_c, 6, 54, 64
15, 169432, Note_on_c, 6, 55, 74
15, 169488, Note_on_c, 6, 54, 60
15, 169492, Note_off_c, 6, 55, 64
15, 169541, Note_off_c, 6, 54, 64
15, 169544, Note_on_c, 6, 55, 60
15, 169609, Note_off_c, 6, 55, 64
15, 169610, Note_on_c, 6, 57, 60
15, 169658, Note_off_c, 6, 57, 64
15, 169672, Note_on_c, 6, 55, 66
15, 169733, Note_on_c, 6, 54, 62
15, 169736, Note_off_c, 6, 55, 64
15, 169793, Note_off_c, 6, 54, 64
15, 169796, Note_on_c, 6, 52, 72
15, 169842, Note_off_c, 6, 52, 64
15, 169850, Note_on_c, 6, 50, 62
15, 169908, Note_off_c, 6, 50, 64
15, 169914, Note_on_c, 6, 48, 78
15, 169959, Note_off_c, 6, 48, 64
15, 169965, Note_on_c, 6, 50, 63
15, 170024, Note_on_c, 6, 48, 59
15, 170036, Note_off_c, 6, 50, 64
15, 170080, Note_on_c, 6, 47, 58
15, 170082, Note_off_c, 6, 48, 64
15, 170139, Note_on_c, 6, 45, 74
15, 170148, Note_off_c, 6, 47, 64
15, 170193, Note_off_c, 6, 45, 64
15, 170195, Note_on_c, 6, 43, 63
15, 170256, Note_off_c, 6, 43, 64
15, 170260, Note_on_c, 6, 42, 61
15, 170316, Note_off_c, 6, 42, 64
15, 170322, Note_on_c, 6, 40, 68
15, 170385, Note_off_c, 6, 40, 64
15, 170391, Note_on_c, 6, 39, 78
15, 170456, Note_off_c, 6, 39, 64
15, 170514, Note_on_c, 6, 47, 62
15, 170560, Note_off_c, 6, 47, 64
15, 170630, Note_on_c, 6, 48, 63
15, 170679, Note_off_c, 6, 48, 64
15, 170749, Note_on_c, 6, 47, 68
15, 170798, Note_off_c, 6, 47, 64
15, 170868, Note_on_c, 6, 45, 68
15, 170914, Note_off_c, 6, 45, 64
15, 170987, Note_on_c, 6, 42, 61
15, 171040, Note_off_c, 6, 42, 64
15, 171110, Note_on_c, 6, 47, 78
15, 171155, Note_off_c, 6, 47, 64
15, 171233, Note_on_c, 6, 45, 78
15, 171276, Note_off_c, 6, 45, 64
15, 171350, Note_on_c, 6, 44, 64
15, 171399, Note_off_c, 6, 44, 64
15, 171464, Note_on_c, 6, 52, 78
15, 171508, Note_off_c, 6, 52, 64
15, 171588, Note_on_c, 6, 57, 74
15, 171634, Note_off_c, 6, 57, 64
15, 171715, Note_on_c, 6, 55, 80
15, 171758, Note_off_c, 6, 55, 64
15, 171831, Note_on_c, 6, 54, 64
15, 171927, Note_off_c, 6, 54, 64
15, 171957, Note_on_c, 6, 62, 82
15, 172014, Note_on_c, 6, 60, 80
15, 172016, Note_off_c, 6, 62, 64
15, 172046, Note_off_c, 6, 60, 64
15, 172070, Note_on_c, 6, 59, 64
15, 172107, Note_off_c, 6, 59, 64
15, 172187, Note_on_c, 6, 57, 70
15, 172231, Note_off_c, 6, 57, 64
15, 172317, Note_on_c, 6, 56, 68
15, 172371, Note_off_c, 6, 56, 64
15, 172431, Note_on_c, 6, 52, 66
15, 172484, Note_off_c, 6, 52, 64
15, 172553, Note_on_c, 6, 57, 72
15, 172599, Note_off_c, 6, 57, 64
15, 172673, Note_on_c, 6, 60, 64
15, 172736, Note_off_c, 6, 60, 64
15, 172791, Note_on_c, 6, 65, 70
15, 172849, Note_off_c, 6, 65, 64
15, 172907, Note_on_c, 6, 56, 62
15, 172963, Note_off_c, 6, 56, 64
15, 173032, Note_on_c, 6, 57, 66
15, 173089, Note_off_c, 6, 57, 64
15, 173152, Note_on_c, 6, 53, 61
15, 173201, Note_off_c, 6, 53, 64
15, 173264, Note_on_c, 6, 50, 70
15, 173313, Note_off_c, 6, 50, 64
15, 173385, Note_on_c, 6, 47, 70
15, 173436, Note_off_c, 6, 47, 64
15, 173503, Note_on_c, 6, 52, 80
15, 173549, Note_off_c, 6, 52, 64
15, 173618, Note_on_c, 6, 40, 82
15, 173662, Note_off_c, 6, 40, 64
15, 173738, Note_on_c, 6, 45, 87
15, 173831, Note_off_c, 6, 45, 64
15, 173874, Note_on_c, 6, 64, 82
15, 173923, Note_off_c, 6, 64, 64
15, 173933, Note_on_c, 6, 62, 76
15, 173965, Note_off_c, 6, 62, 64
15, 173986, Note_on_c, 6, 60, 82
15, 174028, Note_off_c, 6, 60, 64
15, 174041, Note_on_c, 6, 59, 70
15, 174094, Note_off_c, 6, 59, 64
15, 174101, Note_on_c, 6, 60, 68
15, 174142, Note_off_c, 6, 60, 64
15, 174157, Note_on_c, 6, 57, 61
15, 174198, Note_off_c, 6, 57, 64
15, 174230, Note_on_c, 6, 62, 85
15, 174269, Note_off_c, 6, 62, 64
15, 174355, Note_on_c, 6, 50, 76
15, 174404, Note_off_c, 6, 50, 64
15, 174467, Note_on_c, 6, 62, 76
15, 174512, Note_off_c, 6, 62, 64
15, 174590, Note_on_c, 6, 58, 58
15, 174632, Note_off_c, 6, 58, 64
15, 174708, Note_on_c, 6, 63, 63
15, 174749, Note_off_c, 6, 63, 64
15, 174835, Note_on_c, 6, 54, 59
15, 174875, Note_off_c, 6, 54, 64
15, 174958, Note_on_c, 6, 55, 68
15, 174992, Note_off_c, 6, 55, 64
15, 175069, Note_on_c, 6, 51, 60
15, 175101, Note_off_c, 6, 51, 64
15, 175185, Note_on_c, 6, 48, 80
15, 175228, Note_off_c, 6, 48, 64
15, 175294, Note_on_c, 6, 45, 62
15, 175339, Note_off_c, 6, 45, 64
15, 175418, Note_on_c, 6, 50, 80
15, 175460, Note_off_c, 6, 50, 64
15, 175539, Note_on_c, 6, 38, 80
15, 175581, Note_off_c, 6, 38, 64
15, 175667, Note_on_c, 6, 43, 74
15, 175760, Note_off_c, 6, 43, 64
15, 175791, Note_on_c, 6, 62, 70
15, 175843, Note_off_c, 6, 62, 64
15, 175848, Note_on_c, 6, 60, 72
15, 175880, Note_off_c, 6, 60, 64
15, 175900, Note_on_c, 6, 58, 66
15, 175939, Note_off_c, 6, 58, 64
15, 175956, Note_on_c, 6, 57, 78
15, 175994, Note_off_c, 6, 57, 64
15, 176015, Note_on_c, 6, 58, 82
15, 176062, Note_off_c, 6, 58, 64
15, 176074, Note_on_c, 6, 55, 68
15, 176118, Note_off_c, 6, 55, 64
15, 176150, Note_on_c, 6, 60, 87
15, 176195, Note_off_c, 6, 60, 64
15, 176272, Note_on_c, 6, 48, 66
15, 176319, Note_off_c, 6, 48, 64
15, 176401, Note_on_c, 6, 60, 82
15, 176439, Note_off_c, 6, 60, 64
15, 176518, Note_on_c, 6, 57, 68
15, 176557, Note_off_c, 6, 57, 64
15, 176640, Note_on_c, 6, 62, 80
15, 176681, Note_off_c, 6, 62, 64
15, 176751, Note_on_c, 6, 52, 64
15, 176801, Note_off_c, 6, 52, 64
15, 176871, Note_on_c, 6, 53, 68
15, 176919, Note_off_c, 6, 53, 64
15, 176988, Note_on_c, 6, 50, 76
15, 177046, Note_off_c, 6, 50, 64
15, 177111, Note_on_c, 6, 46, 66
15, 177166, Note_off_c, 6, 46, 64
15, 177228, Note_on_c, 6, 43, 66
15, 177279, Note_off_c, 6, 43, 64
15, 177352, Note_on_c, 6, 48, 80
15, 177395, Note_off_c, 6, 48, 64
15, 177473, Note_on_c, 6, 36, 64
15, 177529, Note_off_c, 6, 36, 64
15, 177607, Note_on_c, 6, 41, 80
15, 177721, Note_off_c, 6, 41, 64
15, 178142, Note_on_c, 6, 58, 66
15, 178184, Note_off_c, 6, 58, 64
15, 178201, Note_on_c, 6, 57, 78
15, 178241, Note_off_c, 6, 57, 64
15, 178258, Note_on_c, 6, 55, 66
15, 178304, Note_off_c, 6, 55, 64
15, 178309, Note_on_c, 6, 53, 66
15, 178352, Note_off_c, 6, 53, 64
15, 178371, Note_on_c, 6, 52, 53
15, 178416, Note_off_c, 6, 52, 64
15, 178429, Note_on_c, 6, 53, 43
15, 178472, Note_off_c, 6, 53, 64
15, 178482, Note_on_c, 6, 50, 68
15, 178529, Note_off_c, 6, 50, 64
15, 178549, Note_on_c, 6, 55, 78
15, 178599, Note_off_c, 6, 55, 64
15, 178677, Note_on_c, 6, 43, 89
15, 178742, Note_off_c, 6, 43, 64
15, 194445, Note_on_c, 6, 58, 68
15, 194490, Note_off_c, 6, 58, 64
15, 194504, Note_on_c, 6, 57, 70
15, 194559, Note_off_c, 6, 57, 64
15, 194566, Note_on_c, 6, 55, 64
15, 194620, Note_off_c, 6, 55, 64
15, 194630, Note_on_c, 6, 53, 64
15, 194671, Note_off_c, 6, 53, 64
15, 194685, Note_on_c, 6, 52, 58
15, 194730, Note_off_c, 6, 52, 64
15, 194745, Note_on_c, 6, 53, 62
15, 194803, Note_on_c, 6, 50, 58
15, 194804, Note_off_c, 6, 53, 64
15, 194851, Note_off_c, 6, 50, 64
15, 194869, Note_on_c, 6, 55, 80
15, 194917, Note_off_c, 6, 55, 64
15, 194929, Note_on_c, 6, 53, 60
15, 194975, Note_off_c, 6, 53, 64
15, 194987, Note_on_c, 6, 55, 64
15, 195034, Note_off_c, 6, 55, 64
15, 195048, Note_on_c, 6, 57, 70
15, 195095, Note_off_c, 6, 57, 64
15, 195110, Note_on_c, 6, 55, 78
15, 195150, Note_off_c, 6, 55, 64
15, 195166, Note_on_c, 6, 53, 68
15, 195204, Note_off_c, 6, 53, 64
15, 195224, Note_on_c, 6, 52, 64
15, 195271, Note_off_c, 6, 52, 64
15, 195279, Note_on_c, 6, 50, 70
15, 195323, Note_off_c, 6, 50, 64
15, 195346, Note_on_c, 6, 48, 59
15, 195613, Note_off_c, 6, 48, 64
15, 196920, Note_on_c, 6, 60, 70
15, 196960, Note_off_c, 6, 60, 64
15, 197035, Note_on_c, 6, 60, 74
15, 197079, Note_off_c, 6, 60, 64
15, 197155, Note_on_c, 6, 60, 78
15, 197196, Note_off_c, 6, 60, 64
15, 197271, Note_on_c, 6, 59, 78
15, 197385, Note_off_c, 6, 59, 64
15, 197396, Note_on_c, 6, 60, 78
15, 197438, Note_on_c, 6, 62, 72
15, 197447, Note_off_c, 6, 60, 64
15, 197489, Note_off_c, 6, 62, 64
15, 197499, Note_on_c, 6, 64, 80
15, 197540, Note_off_c, 6, 64, 64
15, 197624, Note_on_c, 6, 60, 80
15, 197666, Note_off_c, 6, 60, 64
15, 197751, Note_on_c, 6, 57, 72
15, 197794, Note_off_c, 6, 57, 64
15, 197866, Note_on_c, 6, 62, 89
15, 197910, Note_off_c, 6, 62, 64
15, 197991, Note_on_c, 6, 50, 82
15, 198040, Note_off_c, 6, 50, 64
15, 198110, Note_on_c, 6, 60, 82
15, 198156, Note_off_c, 6, 60, 64
15, 198232, Note_on_c, 6, 59, 80
15, 198280, Note_off_c, 6, 59, 64
15, 198347, Note_on_c, 6, 55, 68
15, 198389, Note_off_c, 6, 55, 64
15, 198464, Note_on_c, 6, 60, 82
15, 198501, Note_off_c, 6, 60, 64
15, 198589, Note_on_c, 6, 48, 85
15, 198631, Note_off_c, 6, 48, 64
15, 198705, Note_on_c, 6, 53, 82
15, 198754, Note_off_c, 6, 53, 64
15, 198764, Note_on_c, 6, 57, 80
15, 198818, Note_off_c, 6, 57, 64
15, 198825, Note_on_c, 6, 55, 60
15, 198876, Note_on_c, 6, 57, 74
15, 198881, Note_off_c, 6, 55, 64
15, 198932, Note_off_c, 6, 57, 64
15, 198940, Note_on_c, 6, 58, 80
15, 198997, Note_off_c, 6, 58, 64
15, 198998, Note_on_c, 6, 57, 72
15, 199056, Note_off_c, 6, 57, 64
15, 199061, Note_on_c, 6, 55, 57
15, 199119, Note_off_c, 6, 55, 64
15, 199123, Note_on_c, 6, 53, 58
15, 199166, Note_off_c, 6, 53, 64
15, 199182, Note_on_c, 6, 52, 64
15, 199227, Note_off_c, 6, 52, 64
15, 199237, Note_on_c, 6, 55, 61
15, 199299, Note_off_c, 6, 55, 64
15, 199302, Note_on_c, 6, 53, 56
15, 199361, Note_on_c, 6, 55, 72
15, 199366, Note_off_c, 6, 53, 64
15, 199407, Note_off_c, 6, 55, 64
15, 199425, Note_on_c, 6, 57, 85
15, 199485, Note_off_c, 6, 57, 64
15, 199485, Note_on_c, 6, 55, 64
15, 199543, Note_off_c, 6, 55, 64
15, 199552, Note_on_c, 6, 53, 60
15, 199600, Note_off_c, 6, 53, 64
15, 199612, Note_on_c, 6, 52, 57
15, 199652, Note_off_c, 6, 52, 64
15, 199675, Note_on_c, 6, 50, 78
15, 199778, Note_off_c, 6, 50, 64
15, 199798, Note_on_c, 6, 52, 70
15, 199843, Note_off_c, 6, 52, 64
15, 199845, Note_on_c, 6, 53, 66
15, 199881, Note_off_c, 6, 53, 64
15, 199910, Note_on_c, 6, 55, 87
15, 199953, Note_off_c, 6, 55, 64
15, 200026, Note_on_c, 6, 43, 82
15, 200067, Note_off_c, 6, 43, 64
15, 200157, Note_on_c, 6, 48, 85
15, 200218, Note_off_c, 6, 48, 64
15, 200222, Note_on_c, 6, 55, 80
15, 200269, Note_off_c, 6, 55, 64
15, 200275, Note_on_c, 6, 57, 70
15, 200325, Note_off_c, 6, 57, 64
15, 200325, Note_on_c, 6, 59, 85
15, 200371, Note_off_c, 6, 59, 64
15, 200397, Note_on_c, 6, 60, 85
15, 200527, Note_off_c, 6, 60, 64
15, 200571, Note_on_c, 6, 60, 91
15, 200601, Note_off_c, 6, 60, 64
15, 200637, Note_on_c, 6, 60, 91
15, 200691, Note_on_c, 6, 59, 82
15, 200693, Note_off_c, 6, 60, 64
15, 200742, Note_off_c, 6, 59, 64
15, 200752, Note_on_c, 6, 60, 78
15, 200798, Note_off_c, 6, 60, 64
15, 200808, Note_on_c, 6, 57, 66
15, 200854, Note_off_c, 6, 57, 64
15, 200876, Note_on_c, 6, 59, 89
15, 201023, Note_off_c, 6, 59, 64
15, 201059, Note_on_c, 6, 59, 91
15, 201094, Note_off_c, 6, 59, 64
15, 201122, Note_on_c, 6, 59, 87
15, 201165, Note_off_c, 6, 59, 64
15, 201235, Note_on_c, 6, 52, 89
15, 201281, Note_off_c, 6, 52, 64
15, 201359, Note_on_c, 6, 57, 85
15, 201494, Note_off_c, 6, 57, 64
15, 201531, Note_on_c, 6, 57, 82
15, 201561, Note_off_c, 6, 57, 64
15, 201598, Note_on_c, 6, 57, 91
15, 201647, Note_on_c, 6, 55, 64
15, 201648, Note_off_c, 6, 57, 64
15, 201696, Note_off_c, 6, 55, 64
15, 201707, Note_on_c, 6, 57, 74
15, 201751, Note_off_c, 6, 57, 64
15, 201763, Note_on_c, 6, 53, 68
15, 201808, Note_off_c, 6, 53, 64
15, 201831, Note_on_c, 6, 55, 72
15, 201970, Note_off_c, 6, 55, 64
15, 202011, Note_on_c, 6, 55, 68
15, 202044, Note_off_c, 6, 55, 64
15, 202076, Note_on_c, 6, 55, 82
15, 202114, Note_off_c, 6, 55, 64
15, 202192, Note_on_c, 6, 48, 82
15, 202238, Note_off_c, 6, 48, 64
15, 202316, Note_on_c, 6, 53, 78
15, 202457, Note_off_c, 6, 53, 64
15, 202491, Note_on_c, 6, 53, 85
15, 202518, Note_off_c, 6, 53, 64
15, 202551, Note_on_c, 6, 53, 93
15, 202598, Note_off_c, 6, 53, 64
15, 202599, Note_on_c, 6, 52, 57
15, 202651, Note_off_c, 6, 52, 64
15, 202658, Note_on_c, 6, 53, 70
15, 202712, Note_off_c, 6, 53, 64
15, 202718, Note_on_c, 6, 50, 68
15, 202760, Note_off_c, 6, 50, 64
15, 202790, Note_on_c, 6, 52, 87
15, 202843, Note_on_c, 6, 53, 80
15, 202848, Note_off_c, 6, 52, 64
15, 202905, Note_on_c, 6, 55, 70
15, 202909, Note_off_c, 6, 53, 64
15, 202949, Note_off_c, 6, 55, 64
15, 202963, Note_on_c, 6, 52, 62
15, 203010, Note_off_c, 6, 52, 64
15, 203031, Note_on_c, 6, 57, 85
15, 203089, Note_on_c, 6, 58, 66
15, 203096, Note_off_c, 6, 57, 64
15, 203141, Note_off_c, 6, 58, 64
15, 203148, Note_on_c, 6, 57, 80
15, 203204, Note_on_c, 6, 55, 82
15, 203205, Note_off_c, 6, 57, 64
15, 203263, Note_off_c, 6, 55, 64
15, 203266, Note_on_c, 6, 53, 66
15, 203320, Note_on_c, 6, 52, 57
15, 203323, Note_off_c, 6, 53, 64
15, 203381, Note_on_c, 6, 50, 62
15, 203382, Note_off_c, 6, 52, 64
15, 203442, Note_on_c, 6, 48, 64
15, 203444, Note_off_c, 6, 50, 64
15, 203494, Note_off_c, 6, 48, 64
15, 203504, Note_on_c, 6, 47, 68
15, 203568, Note_off_c, 6, 47, 64
15, 203570, Note_on_c, 6, 45, 78
15, 203629, Note_off_c, 6, 45, 64
15, 203636, Note_on_c, 6, 43, 57
15, 203693, Note_on_c, 6, 45, 72
15, 203697, Note_off_c, 6, 43, 64
15, 203741, Note_off_c, 6, 45, 64
15, 203759, Note_on_c, 6, 47, 80
15, 203812, Note_off_c, 6, 47, 64
15, 203814, Note_on_c, 6, 45, 72
15, 203872, Note_on_c, 6, 47, 70
15, 203875, Note_off_c, 6, 45, 64
15, 203915, Note_off_c, 6, 47, 64
15, 203930, Note_on_c, 6, 43, 66
15, 203980, Note_off_c, 6, 43, 64
15, 204000, Note_on_c, 6, 48, 82
15, 204051, Note_off_c, 6, 48, 64
15, 204120, Note_on_c, 6, 53, 80
15, 204165, Note_off_c, 6, 53, 64
15, 204237, Note_on_c, 6, 55, 87
15, 204271, Note_off_c, 6, 55, 64
15, 204354, Note_on_c, 6, 43, 87
15, 204391, Note_off_c, 6, 43, 64
15, 204478, Note_on_c, 6, 36, 85
15, 205073, Note_off_c, 6, 36, 64
15, 218096, Note_on_c, 6, 47, 82
15, 218137, Note_off_c, 6, 47, 64
15, 218160, Note_on_c, 6, 48, 85
15, 218254, Note_off_c, 6, 48, 64
15, 218349, Note_on_c, 6, 41, 85
15, 218395, Note_off_c, 6, 41, 64
15, 218409, Note_on_c, 6, 43, 85
15, 218581, Note_off_c, 6, 43, 64
15, 218640, Note_on_c, 6, 43, 74
15, 218800, Note_off_c, 6, 43, 64
15, 218878, Note_on_c, 6, 36, 85
15, 219614, Note_off_c, 6, 36, 64
15, 219614, End_track
0, 0, End_of_file
