0, 0, Header, 1, 9, 1024
1, 0, Start_track
1, 0, Time_signature, 4, 2, 24, 8
1, 0, Key_signature, 1, "major"
1, 0, Tempo, 789473
1, 131073, End_track
2, 0, Start_track
2, 0, Title_t, "Instrument 1"
2, 15360, Note_on_c, 0, 62, 96
2, 16384, Note_off_c, 0, 62, 0
2, 16384, Note_on_c, 0, 67, 96
2, 17408, Note_off_c, 0, 67, 0
2, 17408, Note_on_c, 0, 69, 96
2, 18432, Note_off_c, 0, 69, 0
2, 18432, Note_on_c, 0, 71, 96
2, 19456, Note_off_c, 0, 71, 0
2, 19456, Note_on_c, 0, 76, 96
2, 20480, Note_off_c, 0, 76, 0
2, 20480, Note_on_c, 0, 74, 96
2, 22016, Note_off_c, 0, 74, 0
2, 22016, Note_on_c, 0, 72, 96
2, 22528, Note_off_c, 0, 72, 0
2, 22528, Note_on_c, 0, 71, 96
2, 23552, Note_off_c, 0, 71, 0
2, 29696, Note_on_c, 0, 76, 96
2, 30720, Note_off_c, 0, 76, 0
2, 30720, Note_on_c, 0, 74, 96
2, 32256, Note_off_c, 0, 74, 0
2, 32256, Note_on_c, 0, 72, 96
2, 32768, Note_off_c, 0, 72, 0
2, 32768, Note_on_c, 0, 71, 96
2, 33792, Note_off_c, 0, 71, 0
2, 33792, Note_on_c, 0, 71, 96
2, 34816, Note_off_c, 0, 71, 0
2, 34816, Note_on_c, 0, 69, 96
2, 36864, Note_off_c, 0, 69, 0
2, 36864, Note_on_c, 0, 67, 96
2, 37888, Note_off_c, 0, 67, 0
2, 52224, Note_on_c, 0, 62, 96
2, 53248, Note_off_c, 0, 62, 0
2, 53248, Note_on_c, 0, 67, 96
2, 54272, Note_off_c, 0, 67, 0
2, 54272, Note_on_c, 0, 69, 96
2, 55296, Note_off_c, 0, 69, 0
2, 55296, Note_on_c, 0, 71, 96
2, 56320, Note_off_c, 0, 71, 0
2, 56320, Note_on_c, 0, 76, 96
2, 57344, Note_off_c, 0, 76, 0
2, 57344, Note_on_c, 0, 74, 96
2, 58880, Note_off_c, 0, 74, 0
2, 58880, Note_on_c, 0, 72, 96
2, 59392, Note_off_c, 0, 72, 0
2, 59392, Note_on_c, 0, 71, 96
2, 60416, Note_off_c, 0, 71, 0
2, 66560, Note_on_c, 0, 76, 96
2, 67584, Note_off_c, 0, 76, 0
2, 67584, Note_on_c, 0, 74, 96
2, 69120, Note_off_c, 0, 74, 0
2, 69120, Note_on_c, 0, 72, 96
2, 69632, Note_off_c, 0, 72, 0
2, 69632, Note_on_c, 0, 71, 96
2, 70656, Note_off_c, 0, 71, 0
2, 70656, Note_on_c, 0, 71, 96
2, 71680, Note_off_c, 0, 71, 0
2, 71680, Note_on_c, 0, 69, 96
2, 73728, Note_off_c, 0, 69, 0
2, 73728, Note_on_c, 0, 67, 96
2, 74752, Note_off_c, 0, 67, 0
2, 82944, Note_on_c, 0, 74, 96
2, 83968, Note_off_c, 0, 74, 0
2, 83968, Note_on_c, 0, 76, 96
2, 84992, Note_off_c, 0, 76, 0
2, 84992, Note_on_c, 0, 76, 96
2, 86016, Note_off_c, 0, 76, 0
2, 86016, Note_on_c, 0, 69, 96
2, 87040, Note_off_c, 0, 69, 0
2, 87040, Note_on_c, 0, 69, 96
2, 88064, Note_off_c, 0, 69, 0
2, 88064, Note_on_c, 0, 74, 96
2, 89088, Note_off_c, 0, 74, 0
2, 89088, Note_on_c, 0, 74, 96
2, 90112, Note_off_c, 0, 74, 0
2, 90112, Note_on_c, 0, 67, 96
2, 91136, Note_off_c, 0, 67, 0
2, 91136, Note_on_c, 0, 71, 96
2, 92160, Note_off_c, 0, 71, 0
2, 92160, Note_on_c, 0, 69, 96
2, 93184, Note_off_c, 0, 69, 0
2, 93184, Note_on_c, 0, 67, 96
2, 94208, Note_off_c, 0, 67, 0
2, 94208, Note_on_c, 0, 66, 96
2, 95232, Note_off_c, 0, 66, 0
2, 95232, Note_on_c, 0, 66, 96
2, 96256, Note_off_c, 0, 66, 0
2, 96256, Note_on_c, 0, 64, 96
2, 98304, Note_off_c, 0, 64, 0
2, 98304, Note_on_c, 0, 62, 96
2, 99328, Note_off_c, 0, 62, 0
2, 107520, Note_on_c, 0, 74, 96
2, 108544, Note_off_c, 0, 74, 0
2, 108544, Note_on_c, 0, 76, 96
2, 109568, Note_off_c, 0, 76, 0
2, 109568, Note_on_c, 0, 74, 96
2, 110592, Note_off_c, 0, 74, 0
2, 110592, Note_on_c, 0, 72, 96
2, 111616, Note_off_c, 0, 72, 0
2, 111616, Note_on_c, 0, 71, 96
2, 112640, Note_off_c, 0, 71, 0
2, 112640, Note_on_c, 0, 69, 96
2, 114688, Note_off_c, 0, 69, 0
2, 114688, Note_on_c, 0, 67, 96
2, 116736, Note_off_c, 0, 67, 0
2, 131073, End_track
3, 0, Start_track
3, 0, Title_t, "Instrument 2"
3, 15360, Note_on_c, 1, 59, 96
3, 16384, Note_off_c, 1, 59, 0
3, 16384, Note_on_c, 1, 64, 96
3, 17920, Note_off_c, 1, 64, 0
3, 17920, Note_on_c, 1, 66, 96
3, 18432, Note_off_c, 1, 66, 0
3, 18432, Note_on_c, 1, 67, 96
3, 19456, Note_off_c, 1, 67, 0
3, 19456, Note_on_c, 1, 60, 96
3, 20480, Note_off_c, 1, 60, 0
3, 20480, Note_on_c, 1, 62, 96
3, 20736, Note_off_c, 1, 62, 0
3, 20736, Note_on_c, 1, 64, 96
3, 20992, Note_off_c, 1, 64, 0
3, 20992, Note_on_c, 1, 62, 96
3, 21248, Note_off_c, 1, 62, 0
3, 21248, Note_on_c, 1, 64, 96
3, 21504, Note_off_c, 1, 64, 0
3, 21504, Note_on_c, 1, 66, 96
3, 22016, Note_off_c, 1, 66, 0
3, 22016, Note_on_c, 1, 69, 96
3, 22528, Note_off_c, 1, 69, 0
3, 22528, Note_on_c, 1, 67, 96
3, 23552, Note_off_c, 1, 67, 0
3, 29696, Note_on_c, 1, 67, 96
3, 30208, Note_off_c, 1, 67, 0
3, 30208, Note_on_c, 1, 69, 96
3, 30720, Note_off_c, 1, 69, 0
3, 30720, Note_on_c, 1, 71, 96
3, 31232, Note_off_c, 1, 71, 0
3, 31232, Note_on_c, 1, 67, 96
3, 32256, Note_off_c, 1, 67, 0
3, 32256, Note_on_c, 1, 66, 96
3, 32768, Note_off_c, 1, 66, 0
3, 32768, Note_on_c, 1, 67, 96
3, 33792, Note_off_c, 1, 67, 0
3, 33792, Note_on_c, 1, 67, 96
3, 34816, Note_off_c, 1, 67, 0
3, 34816, Note_on_c, 1, 67, 96
3, 35840, Note_off_c, 1, 67, 0
3, 35840, Note_on_c, 1, 66, 96
3, 36864, Note_off_c, 1, 66, 0
3, 36864, Note_on_c, 1, 67, 96
3, 37888, Note_off_c, 1, 67, 0
3, 52224, Note_on_c, 1, 59, 96
3, 53248, Note_off_c, 1, 59, 0
3, 53248, Note_on_c, 1, 64, 96
3, 54784, Note_off_c, 1, 64, 0
3, 54784, Note_on_c, 1, 66, 96
3, 55296, Note_off_c, 1, 66, 0
3, 55296, Note_on_c, 1, 67, 96
3, 56320, Note_off_c, 1, 67, 0
3, 56320, Note_on_c, 1, 60, 96
3, 57344, Note_off_c, 1, 60, 0
3, 57344, Note_on_c, 1, 62, 96
3, 57600, Note_off_c, 1, 62, 0
3, 57600, Note_on_c, 1, 64, 96
3, 57856, Note_off_c, 1, 64, 0
3, 57856, Note_on_c, 1, 62, 96
3, 58112, Note_off_c, 1, 62, 0
3, 58112, Note_on_c, 1, 64, 96
3, 58368, Note_off_c, 1, 64, 0
3, 58368, Note_on_c, 1, 66, 96
3, 58880, Note_off_c, 1, 66, 0
3, 58880, Note_on_c, 1, 69, 96
3, 59392, Note_off_c, 1, 69, 0
3, 59392, Note_on_c, 1, 67, 96
3, 60416, Note_off_c, 1, 67, 0
3, 66560, Note_on_c, 1, 67, 96
3, 67072, Note_off_c, 1, 67, 0
3, 67072, Note_on_c, 1, 69, 96
3, 67584, Note_off_c, 1, 69, 0
3, 67584, Note_on_c, 1, 71, 96
3, 68096, Note_off_c, 1, 71, 0
3, 68096, Note_on_c, 1, 67, 96
3, 69120, Note_off_c, 1, 67, 0
3, 69120, Note_on_c, 1, 66, 96
3, 69632, Note_off_c, 1, 66, 0
3, 69632, Note_on_c, 1, 67, 96
3, 70656, Note_off_c, 1, 67, 0
3, 70656, Note_on_c, 1, 67, 96
3, 71680, Note_off_c, 1, 67, 0
3, 71680, Note_on_c, 1, 67, 96
3, 72704, Note_off_c, 1, 67, 0
3, 72704, Note_on_c, 1, 66, 96
3, 73728, Note_off_c, 1, 66, 0
3, 73728, Note_on_c, 1, 67, 96
3, 74752, Note_off_c, 1, 67, 0
3, 82944, Note_on_c, 1, 67, 96
3, 83968, Note_off_c, 1, 67, 0
3, 83968, Note_on_c, 1, 67, 96
3, 84992, Note_off_c, 1, 67, 0
3, 84992, Note_on_c, 1, 67, 96
3, 86016, Note_off_c, 1, 67, 0
3, 86016, Note_on_c, 1, 66, 96
3, 87040, Note_off_c, 1, 66, 0
3, 87040, Note_on_c, 1, 66, 96
3, 88064, Note_off_c, 1, 66, 0
3, 88064, Note_on_c, 1, 65, 96
3, 89088, Note_off_c, 1, 65, 0
3, 89088, Note_on_c, 1, 65, 96
3, 90112, Note_off_c, 1, 65, 0
3, 90112, Note_on_c, 1, 64, 96
3, 91136, Note_off_c, 1, 64, 0
3, 91136, Note_on_c, 1, 62, 96
3, 91648, Note_off_c, 1, 62, 0
3, 91648, Note_on_c, 1, 67, 96
3, 92160, Note_off_c, 1, 67, 0
3, 92160, Note_on_c, 1, 67, 96
3, 92672, Note_off_c, 1, 67, 0
3, 92672, Note_on_c, 1, 66, 96
3, 93184, Note_off_c, 1, 66, 0
3, 93184, Note_on_c, 1, 66, 96
3, 93696, Note_off_c, 1, 66, 0
3, 93696, Note_on_c, 1, 64, 96
3, 94208, Note_off_c, 1, 64, 0
3, 94208, Note_on_c, 1, 64, 96
3, 94464, Note_off_c, 1, 64, 0
3, 94464, Note_on_c, 1, 67, 96
3, 94720, Note_off_c, 1, 67, 0
3, 94720, Note_on_c, 1, 66, 96
3, 94976, Note_off_c, 1, 66, 0
3, 94976, Note_on_c, 1, 64, 96
3, 95232, Note_off_c, 1, 64, 0
3, 95232, Note_on_c, 1, 62, 96
3, 96256, Note_off_c, 1, 62, 0
3, 96256, Note_on_c, 1, 62, 96
3, 97280, Note_off_c, 1, 62, 0
3, 97280, Note_on_c, 1, 61, 96
3, 98304, Note_off_c, 1, 61, 0
3, 98304, Note_on_c, 1, 62, 96
3, 99328, Note_off_c, 1, 62, 0
3, 107520, Note_on_c, 1, 69, 96
3, 108544, Note_off_c, 1, 69, 0
3, 108544, Note_on_c, 1, 71, 96
3, 110080, Note_off_c, 1, 71, 0
3, 110080, Note_on_c, 1, 66, 96
3, 110592, Note_off_c, 1, 66, 0
3, 110592, Note_on_c, 1, 67, 96
3, 112128, Note_off_c, 1, 67, 0
3, 112128, Note_on_c, 1, 62, 96
3, 112640, Note_off_c, 1, 62, 0
3, 112640, Note_on_c, 1, 64, 96
3, 113664, Note_off_c, 1, 64, 0
3, 113664, Note_on_c, 1, 62, 96
3, 114688, Note_off_c, 1, 62, 0
3, 114688, Note_on_c, 1, 62, 96
3, 116736, Note_off_c, 1, 62, 0
3, 131073, End_track
4, 0, Start_track
4, 0, Title_t, "Instrument 3"
4, 15360, Note_on_c, 2, 55, 96
4, 15872, Note_off_c, 2, 55, 0
4, 15872, Note_on_c, 2, 57, 96
4, 16384, Note_off_c, 2, 57, 0
4, 16384, Note_on_c, 2, 59, 96
4, 17408, Note_off_c, 2, 59, 0
4, 17408, Note_on_c, 2, 57, 96
4, 18432, Note_off_c, 2, 57, 0
4, 18432, Note_on_c, 2, 55, 96
4, 19456, Note_off_c, 2, 55, 0
4, 19456, Note_on_c, 2, 55, 96
4, 20480, Note_off_c, 2, 55, 0
4, 20480, Note_on_c, 2, 55, 96
4, 20992, Note_off_c, 2, 55, 0
4, 20992, Note_on_c, 2, 50, 96
4, 21504, Note_off_c, 2, 50, 0
4, 21504, Note_on_c, 2, 62, 96
4, 22528, Note_off_c, 2, 62, 0
4, 22528, Note_on_c, 2, 62, 96
4, 23552, Note_off_c, 2, 62, 0
4, 29696, Note_on_c, 2, 55, 96
4, 30720, Note_off_c, 2, 55, 0
4, 30720, Note_on_c, 2, 55, 96
4, 31232, Note_off_c, 2, 55, 0
4, 31232, Note_on_c, 2, 59, 96
4, 31744, Note_off_c, 2, 59, 0
4, 31744, Note_on_c, 2, 64, 96
4, 32256, Note_off_c, 2, 64, 0
4, 32256, Note_on_c, 2, 57, 96
4, 32768, Note_off_c, 2, 57, 0
4, 32768, Note_on_c, 2, 55, 96
4, 33280, Note_off_c, 2, 55, 0
4, 33280, Note_on_c, 2, 57, 96
4, 33792, Note_off_c, 2, 57, 0
4, 33792, Note_on_c, 2, 59, 96
4, 34304, Note_off_c, 2, 59, 0
4, 34304, Note_on_c, 2, 60, 96
4, 34560, Note_off_c, 2, 60, 0
4, 34560, Note_on_c, 2, 62, 96
4, 34816, Note_off_c, 2, 62, 0
4, 34816, Note_on_c, 2, 64, 96
4, 35840, Note_off_c, 2, 64, 0
4, 35840, Note_on_c, 2, 62, 96
4, 36352, Note_off_c, 2, 62, 0
4, 36352, Note_on_c, 2, 60, 96
4, 36864, Note_off_c, 2, 60, 0
4, 36864, Note_on_c, 2, 59, 96
4, 37888, Note_off_c, 2, 59, 0
4, 52224, Note_on_c, 2, 55, 96
4, 52736, Note_off_c, 2, 55, 0
4, 52736, Note_on_c, 2, 57, 96
4, 53248, Note_off_c, 2, 57, 0
4, 53248, Note_on_c, 2, 59, 96
4, 54272, Note_off_c, 2, 59, 0
4, 54272, Note_on_c, 2, 57, 96
4, 55296, Note_off_c, 2, 57, 0
4, 55296, Note_on_c, 2, 55, 96
4, 56320, Note_off_c, 2, 55, 0
4, 56320, Note_on_c, 2, 55, 96
4, 57344, Note_off_c, 2, 55, 0
4, 57344, Note_on_c, 2, 55, 96
4, 57856, Note_off_c, 2, 55, 0
4, 57856, Note_on_c, 2, 50, 96
4, 58368, Note_off_c, 2, 50, 0
4, 58368, Note_on_c, 2, 62, 96
4, 59392, Note_off_c, 2, 62, 0
4, 59392, Note_on_c, 2, 62, 96
4, 60416, Note_off_c, 2, 62, 0
4, 66560, Note_on_c, 2, 55, 96
4, 67584, Note_off_c, 2, 55, 0
4, 67584, Note_on_c, 2, 55, 96
4, 68096, Note_off_c, 2, 55, 0
4, 68096, Note_on_c, 2, 59, 96
4, 68608, Note_off_c, 2, 59, 0
4, 68608, Note_on_c, 2, 64, 96
4, 69120, Note_off_c, 2, 64, 0
4, 69120, Note_on_c, 2, 57, 96
4, 69632, Note_off_c, 2, 57, 0
4, 69632, Note_on_c, 2, 55, 96
4, 70144, Note_off_c, 2, 55, 0
4, 70144, Note_on_c, 2, 57, 96
4, 70656, Note_off_c, 2, 57, 0
4, 70656, Note_on_c, 2, 59, 96
4, 71168, Note_off_c, 2, 59, 0
4, 71168, Note_on_c, 2, 60, 96
4, 71424, Note_off_c, 2, 60, 0
4, 71424, Note_on_c, 2, 62, 96
4, 71680, Note_off_c, 2, 62, 0
4, 71680, Note_on_c, 2, 64, 96
4, 72704, Note_off_c, 2, 64, 0
4, 72704, Note_on_c, 2, 62, 96
4, 73216, Note_off_c, 2, 62, 0
4, 73216, Note_on_c, 2, 60, 96
4, 73728, Note_off_c, 2, 60, 0
4, 73728, Note_on_c, 2, 59, 96
4, 74752, Note_off_c, 2, 59, 0
4, 82944, Note_on_c, 2, 62, 96
4, 83968, Note_off_c, 2, 62, 0
4, 83968, Note_on_c, 2, 60, 96
4, 84992, Note_off_c, 2, 60, 0
4, 84992, Note_on_c, 2, 59, 96
4, 85504, Note_off_c, 2, 59, 0
4, 85504, Note_on_c, 2, 57, 96
4, 86016, Note_off_c, 2, 57, 0
4, 86016, Note_on_c, 2, 57, 96
4, 87040, Note_off_c, 2, 57, 0
4, 87040, Note_on_c, 2, 62, 96
4, 88064, Note_off_c, 2, 62, 0
4, 88064, Note_on_c, 2, 55, 96
4, 88576, Note_off_c, 2, 55, 0
4, 88576, Note_on_c, 2, 57, 96
4, 89088, Note_off_c, 2, 57, 0
4, 89088, Note_on_c, 2, 59, 96
4, 89600, Note_off_c, 2, 59, 0
4, 89600, Note_on_c, 2, 60, 96
4, 89856, Note_off_c, 2, 60, 0
4, 89856, Note_on_c, 2, 62, 96
4, 90112, Note_off_c, 2, 62, 0
4, 90112, Note_on_c, 2, 60, 96
4, 91136, Note_off_c, 2, 60, 0
4, 91136, Note_on_c, 2, 59, 96
4, 92160, Note_off_c, 2, 59, 0
4, 92160, Note_on_c, 2, 64, 96
4, 92672, Note_off_c, 2, 64, 0
4, 92672, Note_on_c, 2, 62, 96
4, 93184, Note_off_c, 2, 62, 0
4, 93184, Note_on_c, 2, 62, 96
4, 93696, Note_off_c, 2, 62, 0
4, 93696, Note_on_c, 2, 57, 96
4, 94208, Note_off_c, 2, 57, 0
4, 94208, Note_on_c, 2, 57, 96
4, 95232, Note_off_c, 2, 57, 0
4, 95232, Note_on_c, 2, 57, 96
4, 96256, Note_off_c, 2, 57, 0
4, 96256, Note_on_c, 2, 57, 96
4, 98304, Note_off_c, 2, 57, 0
4, 98304, Note_on_c, 2, 57, 96
4, 99328, Note_off_c, 2, 57, 0
4, 107520, Note_on_c, 2, 66, 96
4, 108544, Note_off_c, 2, 66, 0
4, 108544, Note_on_c, 2, 59, 96
4, 109056, Note_off_c, 2, 59, 0
4, 109056, Note_on_c, 2, 60, 96
4, 109568, Note_off_c, 2, 60, 0
4, 109568, Note_on_c, 2, 62, 96
4, 110592, Note_off_c, 2, 62, 0
4, 110592, Note_on_c, 2, 55, 96
4, 111104, Note_off_c, 2, 55, 0
4, 111104, Note_on_c, 2, 57, 96
4, 111616, Note_off_c, 2, 57, 0
4, 111616, Note_on_c, 2, 59, 96
4, 112640, Note_off_c, 2, 59, 0
4, 112640, Note_on_c, 2, 60, 96
4, 113408, Note_off_c, 2, 60, 0
4, 113408, Note_on_c, 2, 59, 96
4, 113664, Note_off_c, 2, 59, 0
4, 113664, Note_on_c, 2, 57, 96
4, 114688, Note_off_c, 2, 57, 0
4, 114688, Note_on_c, 2, 59, 96
4, 116736, Note_off_c, 2, 59, 0
4, 131073, End_track
5, 0, Start_track
5, 0, Title_t, "Instrument 4"
5, 15360, Note_on_c, 3, 55, 96
5, 15872, Note_off_c, 3, 55, 0
5, 15872, Note_on_c, 3, 54, 96
5, 16384, Note_off_c, 3, 54, 0
5, 16384, Note_on_c, 3, 52, 96
5, 16896, Note_off_c, 3, 52, 0
5, 16896, Note_on_c, 3, 50, 96
5, 17408, Note_off_c, 3, 50, 0
5, 17408, Note_on_c, 3, 48, 96
5, 17920, Note_off_c, 3, 48, 0
5, 17920, Note_on_c, 3, 50, 96
5, 18432, Note_off_c, 3, 50, 0
5, 18432, Note_on_c, 3, 55, 96
5, 19456, Note_off_c, 3, 55, 0
5, 19968, Note_on_c, 3, 60, 96
5, 20480, Note_off_c, 3, 60, 0
5, 20480, Note_on_c, 3, 59, 96
5, 20736, Note_off_c, 3, 59, 0
5, 20736, Note_on_c, 3, 60, 96
5, 20992, Note_off_c, 3, 60, 0
5, 20992, Note_on_c, 3, 59, 96
5, 21248, Note_off_c, 3, 59, 0
5, 21248, Note_on_c, 3, 60, 96
5, 21504, Note_off_c, 3, 60, 0
5, 21504, Note_on_c, 3, 62, 96
5, 22016, Note_off_c, 3, 62, 0
5, 22016, Note_on_c, 3, 50, 96
5, 22528, Note_off_c, 3, 50, 0
5, 22528, Note_on_c, 3, 55, 96
5, 23552, Note_off_c, 3, 55, 0
5, 29696, Note_on_c, 3, 52, 96
5, 30208, Note_off_c, 3, 52, 0
5, 30208, Note_on_c, 3, 54, 96
5, 30720, Note_off_c, 3, 54, 0
5, 30720, Note_on_c, 3, 55, 96
5, 31744, Note_off_c, 3, 55, 0
5, 31744, Note_on_c, 3, 48, 96
5, 32256, Note_off_c, 3, 48, 0
5, 32256, Note_on_c, 3, 50, 96
5, 32768, Note_off_c, 3, 50, 0
5, 32768, Note_on_c, 3, 52, 96
5, 34304, Note_off_c, 3, 52, 0
5, 34304, Note_on_c, 3, 50, 96
5, 34816, Note_off_c, 3, 50, 0
5, 34816, Note_on_c, 3, 49, 96
5, 35840, Note_off_c, 3, 49, 0
5, 35840, Note_on_c, 3, 50, 96
5, 36864, Note_off_c, 3, 50, 0
5, 36864, Note_on_c, 3, 43, 96
5, 37888, Note_off_c, 3, 43, 0
5, 52224, Note_on_c, 3, 55, 96
5, 52736, Note_off_c, 3, 55, 0
5, 52736, Note_on_c, 3, 54, 96
5, 53248, Note_off_c, 3, 54, 0
5, 53248, Note_on_c, 3, 52, 96
5, 53760, Note_off_c, 3, 52, 0
5, 53760, Note_on_c, 3, 50, 96
5, 54272, Note_off_c, 3, 50, 0
5, 54272, Note_on_c, 3, 48, 96
5, 54784, Note_off_c, 3, 48, 0
5, 54784, Note_on_c, 3, 50, 96
5, 55296, Note_off_c, 3, 50, 0
5, 55296, Note_on_c, 3, 55, 96
5, 56320, Note_off_c, 3, 55, 0
5, 56832, Note_on_c, 3, 60, 96
5, 57344, Note_off_c, 3, 60, 0
5, 57344, Note_on_c, 3, 59, 96
5, 57600, Note_off_c, 3, 59, 0
5, 57600, Note_on_c, 3, 60, 96
5, 57856, Note_off_c, 3, 60, 0
5, 57856, Note_on_c, 3, 59, 96
5, 58112, Note_off_c, 3, 59, 0
5, 58112, Note_on_c, 3, 60, 96
5, 58368, Note_off_c, 3, 60, 0
5, 58368, Note_on_c, 3, 62, 96
5, 58880, Note_off_c, 3, 62, 0
5, 58880, Note_on_c, 3, 50, 96
5, 59392, Note_off_c, 3, 50, 0
5, 59392, Note_on_c, 3, 55, 96
5, 60416, Note_off_c, 3, 55, 0
5, 66560, Note_on_c, 3, 52, 96
5, 67072, Note_off_c, 3, 52, 0
5, 67072, Note_on_c, 3, 54, 96
5, 67584, Note_off_c, 3, 54, 0
5, 67584, Note_on_c, 3, 55, 96
5, 68608, Note_off_c, 3, 55, 0
5, 68608, Note_on_c, 3, 48, 96
5, 69120, Note_off_c, 3, 48, 0
5, 69120, Note_on_c, 3, 50, 96
5, 69632, Note_off_c, 3, 50, 0
5, 69632, Note_on_c, 3, 52, 96
5, 71168, Note_off_c, 3, 52, 0
5, 71168, Note_on_c, 3, 50, 96
5, 71680, Note_off_c, 3, 50, 0
5, 71680, Note_on_c, 3, 49, 96
5, 72704, Note_off_c, 3, 49, 0
5, 72704, Note_on_c, 3, 50, 96
5, 73728, Note_off_c, 3, 50, 0
5, 73728, Note_on_c, 3, 43, 96
5, 74752, Note_off_c, 3, 43, 0
5, 82944, Note_on_c, 3, 55, 96
5, 83968, Note_off_c, 3, 55, 0
5, 83968, Note_on_c, 3, 48, 96
5, 84480, Note_off_c, 3, 48, 0
5, 84480, Note_on_c, 3, 50, 96
5, 84992, Note_off_c, 3, 50, 0
5, 84992, Note_on_c, 3, 52, 96
5, 85504, Note_off_c, 3, 52, 0
5, 85504, Note_on_c, 3, 49, 96
5, 86016, Note_off_c, 3, 49, 0
5, 86016, Note_on_c, 3, 50, 96
5, 86528, Note_off_c, 3, 50, 0
5, 86528, Note_on_c, 3, 52, 96
5, 87040, Note_off_c, 3, 52, 0
5, 87040, Note_on_c, 3, 50, 96
5, 87552, Note_off_c, 3, 50, 0
5, 87552, Note_on_c, 3, 48, 96
5, 88064, Note_off_c, 3, 48, 0
5, 88064, Note_on_c, 3, 47, 96
5, 88576, Note_off_c, 3, 47, 0
5, 88576, Note_on_c, 3, 48, 96
5, 89088, Note_off_c, 3, 48, 0
5, 89088, Note_on_c, 3, 50, 96
5, 89600, Note_off_c, 3, 50, 0
5, 89600, Note_on_c, 3, 47, 96
5, 90112, Note_off_c, 3, 47, 0
5, 90112, Note_on_c, 3, 48, 96
5, 91136, Note_off_c, 3, 48, 0
5, 91136, Note_on_c, 3, 55, 96
5, 91648, Note_off_c, 3, 55, 0
5, 91648, Note_on_c, 3, 52, 96
5, 92160, Note_off_c, 3, 52, 0
5, 92160, Note_on_c, 3, 49, 96
5, 92672, Note_off_c, 3, 49, 0
5, 92672, Note_on_c, 3, 50, 96
5, 93184, Note_off_c, 3, 50, 0
5, 93184, Note_on_c, 3, 47, 96
5, 93696, Note_off_c, 3, 47, 0
5, 93696, Note_on_c, 3, 49, 96
5, 94208, Note_off_c, 3, 49, 0
5, 94208, Note_on_c, 3, 50, 96
5, 94720, Note_off_c, 3, 50, 0
5, 94720, Note_on_c, 3, 57, 96
5, 95232, Note_off_c, 3, 57, 0
5, 95232, Note_on_c, 3, 54, 96
5, 95744, Note_off_c, 3, 54, 0
5, 95744, Note_on_c, 3, 50, 96
5, 96256, Note_off_c, 3, 50, 0
5, 96256, Note_on_c, 3, 45, 96
5, 98304, Note_off_c, 3, 45, 0
5, 98304, Note_on_c, 3, 50, 96
5, 99328, Note_off_c, 3, 50, 0
5, 107520, Note_on_c, 3, 50, 96
5, 108544, Note_off_c, 3, 50, 0
5, 108544, Note_on_c, 3, 55, 96
5, 109056, Note_off_c, 3, 55, 0
5, 109056, Note_on_c, 3, 57, 96
5, 109568, Note_off_c, 3, 57, 0
5, 109568, Note_on_c, 3, 59, 96
5, 110592, Note_off_c, 3, 59, 0
5, 110592, Note_on_c, 3, 52, 96
5, 111104, Note_off_c, 3, 52, 0
5, 111104, Note_on_c, 3, 54, 96
5, 111616, Note_off_c, 3, 54, 0
5, 111616, Note_on_c, 3, 55, 96
5, 112640, Note_off_c, 3, 55, 0
5, 112640, Note_on_c, 3, 48, 96
5, 113664, Note_off_c, 3, 48, 0
5, 113664, Note_on_c, 3, 50, 96
5, 114688, Note_off_c, 3, 50, 0
5, 114688, Note_on_c, 3, 43, 96
5, 116736, Note_off_c, 3, 43, 0
5, 131073, End_track
6, 0, Start_track
6, 0, Title_t, "Instrument 5"
6, 0, Note_on_c, 4, 43, 96
6, 1024, Note_off_c, 4, 43, 0
6, 2560, Note_on_c, 4, 50, 96
6, 3072, Note_off_c, 4, 50, 0
6, 3072, Note_on_c, 4, 55, 96
6, 3584, Note_off_c, 4, 55, 0
6, 3584, Note_on_c, 4, 57, 96
6, 4096, Note_off_c, 4, 57, 0
6, 4096, Note_on_c, 4, 59, 96
6, 4608, Note_off_c, 4, 59, 0
6, 4608, Note_on_c, 4, 60, 96
6, 5120, Note_off_c, 4, 60, 0
6, 5120, Note_on_c, 4, 62, 96
6, 5632, Note_off_c, 4, 62, 0
6, 5632, Note_on_c, 4, 50, 96
6, 6144, Note_off_c, 4, 50, 0
6, 6144, Note_on_c, 4, 55, 96
6, 6656, Note_off_c, 4, 55, 0
6, 6656, Note_on_c, 4, 57, 96
6, 7168, Note_off_c, 4, 57, 0
6, 7168, Note_on_c, 4, 59, 96
6, 7680, Note_off_c, 4, 59, 0
6, 7680, Note_on_c, 4, 47, 96
6, 8192, Note_off_c, 4, 47, 0
6, 8192, Note_on_c, 4, 52, 96
6, 8704, Note_off_c, 4, 52, 0
6, 8704, Note_on_c, 4, 53, 96
6, 9216, Note_off_c, 4, 53, 0
6, 9216, Note_on_c, 4, 55, 96
6, 9728, Note_off_c, 4, 55, 0
6, 9728, Note_on_c, 4, 43, 96
6, 10240, Note_off_c, 4, 43, 0
6, 10240, Note_on_c, 4, 48, 96
6, 10752, Note_off_c, 4, 48, 0
6, 10752, Note_on_c, 4, 60, 96
6, 11264, Note_off_c, 4, 60, 0
6, 11264, Note_on_c, 4, 59, 96
6, 11776, Note_off_c, 4, 59, 0
6, 11776, Note_on_c, 4, 57, 96
6, 12288, Note_off_c, 4, 57, 0
6, 12288, Note_on_c, 4, 59, 96
6, 12800, Note_off_c, 4, 59, 0
6, 12800, Note_on_c, 4, 60, 96
6, 13312, Note_off_c, 4, 60, 0
6, 13312, Note_on_c, 4, 62, 96
6, 13824, Note_off_c, 4, 62, 0
6, 13824, Note_on_c, 4, 50, 96
6, 14336, Note_off_c, 4, 50, 0
6, 14336, Note_on_c, 4, 43, 96
6, 14848, Note_off_c, 4, 43, 0
6, 14848, Note_on_c, 4, 50, 96
6, 15360, Note_off_c, 4, 50, 0
6, 15360, Note_on_c, 4, 55, 96
6, 15872, Note_off_c, 4, 55, 0
6, 15872, Note_on_c, 4, 54, 96
6, 16384, Note_off_c, 4, 54, 0
6, 16384, Note_on_c, 4, 52, 96
6, 16896, Note_off_c, 4, 52, 0
6, 16896, Note_on_c, 4, 50, 96
6, 17408, Note_off_c, 4, 50, 0
6, 17408, Note_on_c, 4, 48, 96
6, 17920, Note_off_c, 4, 48, 0
6, 17920, Note_on_c, 4, 50, 96
6, 18432, Note_off_c, 4, 50, 0
6, 18432, Note_on_c, 4, 43, 96
6, 18944, Note_off_c, 4, 43, 0
6, 18944, Note_on_c, 4, 55, 96
6, 19456, Note_off_c, 4, 55, 0
6, 19456, Note_on_c, 4, 52, 96
6, 19968, Note_off_c, 4, 52, 0
6, 19968, Note_on_c, 4, 48, 96
6, 20480, Note_off_c, 4, 48, 0
6, 20480, Note_on_c, 4, 55, 96
6, 20992, Note_off_c, 4, 55, 0
6, 20992, Note_on_c, 4, 47, 96
6, 21248, Note_off_c, 4, 47, 0
6, 21248, Note_on_c, 4, 48, 96
6, 21504, Note_off_c, 4, 48, 0
6, 21504, Note_on_c, 4, 50, 96
6, 22016, Note_off_c, 4, 50, 0
6, 22016, Note_on_c, 4, 38, 96
6, 22528, Note_off_c, 4, 38, 0
6, 22528, Note_on_c, 4, 43, 96
6, 23040, Note_off_c, 4, 43, 0
6, 23040, Note_on_c, 4, 55, 96
6, 23552, Note_off_c, 4, 55, 0
6, 23552, Note_on_c, 4, 54, 96
6, 24064, Note_off_c, 4, 54, 0
6, 24064, Note_on_c, 4, 50, 96
6, 24576, Note_off_c, 4, 50, 0
6, 24576, Note_on_c, 4, 55, 96
6, 25088, Note_off_c, 4, 55, 0
6, 25088, Note_on_c, 4, 57, 96
6, 25600, Note_off_c, 4, 57, 0
6, 25600, Note_on_c, 4, 59, 96
6, 26112, Note_off_c, 4, 59, 0
6, 26112, Note_on_c, 4, 47, 96
6, 26624, Note_off_c, 4, 47, 0
6, 26624, Note_on_c, 4, 52, 96
6, 27136, Note_off_c, 4, 52, 0
6, 27136, Note_on_c, 4, 53, 96
6, 27648, Note_off_c, 4, 53, 0
6, 27648, Note_on_c, 4, 55, 96
6, 28160, Note_off_c, 4, 55, 0
6, 28160, Note_on_c, 4, 43, 96
6, 28672, Note_off_c, 4, 43, 0
6, 28672, Note_on_c, 4, 48, 96
6, 29184, Note_off_c, 4, 48, 0
6, 29184, Note_on_c, 4, 50, 96
6, 29696, Note_off_c, 4, 50, 0
6, 29696, Note_on_c, 4, 52, 96
6, 30208, Note_off_c, 4, 52, 0
6, 30208, Note_on_c, 4, 54, 96
6, 30720, Note_off_c, 4, 54, 0
6, 30720, Note_on_c, 4, 55, 96
6, 31232, Note_off_c, 4, 55, 0
6, 31232, Note_on_c, 4, 47, 96
6, 31744, Note_off_c, 4, 47, 0
6, 31744, Note_on_c, 4, 48, 96
6, 32256, Note_off_c, 4, 48, 0
6, 32256, Note_on_c, 4, 50, 96
6, 32768, Note_off_c, 4, 50, 0
6, 32768, Note_on_c, 4, 52, 96
6, 33280, Note_off_c, 4, 52, 0
6, 33280, Note_on_c, 4, 54, 96
6, 33792, Note_off_c, 4, 54, 0
6, 33792, Note_on_c, 4, 55, 96
6, 34304, Note_off_c, 4, 55, 0
6, 34304, Note_on_c, 4, 52, 96
6, 34816, Note_off_c, 4, 52, 0
6, 34816, Note_on_c, 4, 49, 96
6, 35328, Note_off_c, 4, 49, 0
6, 35328, Note_on_c, 4, 45, 96
6, 35840, Note_off_c, 4, 45, 0
6, 35840, Note_on_c, 4, 50, 96
6, 36352, Note_off_c, 4, 50, 0
6, 36352, Note_on_c, 4, 38, 96
6, 36864, Note_off_c, 4, 38, 0
6, 36864, Note_on_c, 4, 43, 96
6, 37888, Note_off_c, 4, 43, 0
6, 39424, Note_on_c, 4, 50, 96
6, 39936, Note_off_c, 4, 50, 0
6, 39936, Note_on_c, 4, 55, 96
6, 40448, Note_off_c, 4, 55, 0
6, 40448, Note_on_c, 4, 57, 96
6, 40960, Note_off_c, 4, 57, 0
6, 40960, Note_on_c, 4, 59, 96
6, 41472, Note_off_c, 4, 59, 0
6, 41472, Note_on_c, 4, 60, 96
6, 41984, Note_off_c, 4, 60, 0
6, 41984, Note_on_c, 4, 62, 96
6, 42496, Note_off_c, 4, 62, 0
6, 42496, Note_on_c, 4, 50, 96
6, 43008, Note_off_c, 4, 50, 0
6, 43008, Note_on_c, 4, 55, 96
6, 43520, Note_off_c, 4, 55, 0
6, 43520, Note_on_c, 4, 57, 96
6, 44032, Note_off_c, 4, 57, 0
6, 44032, Note_on_c, 4, 59, 96
6, 44544, Note_off_c, 4, 59, 0
6, 44544, Note_on_c, 4, 47, 96
6, 45056, Note_off_c, 4, 47, 0
6, 45056, Note_on_c, 4, 52, 96
6, 45568, Note_off_c, 4, 52, 0
6, 45568, Note_on_c, 4, 53, 96
6, 46080, Note_off_c, 4, 53, 0
6, 46080, Note_on_c, 4, 55, 96
6, 46592, Note_off_c, 4, 55, 0
6, 46592, Note_on_c, 4, 43, 96
6, 47104, Note_off_c, 4, 43, 0
6, 47104, Note_on_c, 4, 48, 96
6, 47616, Note_off_c, 4, 48, 0
6, 47616, Note_on_c, 4, 60, 96
6, 48128, Note_off_c, 4, 60, 0
6, 48128, Note_on_c, 4, 59, 96
6, 48640, Note_off_c, 4, 59, 0
6, 48640, Note_on_c, 4, 57, 96
6, 49152, Note_off_c, 4, 57, 0
6, 49152, Note_on_c, 4, 59, 96
6, 49664, Note_off_c, 4, 59, 0
6, 49664, Note_on_c, 4, 60, 96
6, 50176, Note_off_c, 4, 60, 0
6, 50176, Note_on_c, 4, 62, 96
6, 50688, Note_off_c, 4, 62, 0
6, 50688, Note_on_c, 4, 50, 96
6, 51200, Note_off_c, 4, 50, 0
6, 51200, Note_on_c, 4, 43, 96
6, 51712, Note_off_c, 4, 43, 0
6, 51712, Note_on_c, 4, 50, 96
6, 52224, Note_off_c, 4, 50, 0
6, 52224, Note_on_c, 4, 55, 96
6, 52736, Note_off_c, 4, 55, 0
6, 52736, Note_on_c, 4, 54, 96
6, 53248, Note_off_c, 4, 54, 0
6, 53248, Note_on_c, 4, 52, 96
6, 53760, Note_off_c, 4, 52, 0
6, 53760, Note_on_c, 4, 50, 96
6, 54272, Note_off_c, 4, 50, 0
6, 54272, Note_on_c, 4, 48, 96
6, 54784, Note_off_c, 4, 48, 0
6, 54784, Note_on_c, 4, 50, 96
6, 55296, Note_off_c, 4, 50, 0
6, 55296, Note_on_c, 4, 43, 96
6, 55808, Note_off_c, 4, 43, 0
6, 55808, Note_on_c, 4, 55, 96
6, 56320, Note_off_c, 4, 55, 0
6, 56320, Note_on_c, 4, 52, 96
6, 56832, Note_off_c, 4, 52, 0
6, 56832, Note_on_c, 4, 48, 96
6, 57344, Note_off_c, 4, 48, 0
6, 57344, Note_on_c, 4, 55, 96
6, 57856, Note_off_c, 4, 55, 0
6, 57856, Note_on_c, 4, 47, 96
6, 58112, Note_off_c, 4, 47, 0
6, 58112, Note_on_c, 4, 48, 96
6, 58368, Note_off_c, 4, 48, 0
6, 58368, Note_on_c, 4, 50, 96
6, 58880, Note_off_c, 4, 50, 0
6, 58880, Note_on_c, 4, 38, 96
6, 59392, Note_off_c, 4, 38, 0
6, 59392, Note_on_c, 4, 43, 96
6, 59904, Note_off_c, 4, 43, 0
6, 59904, Note_on_c, 4, 55, 96
6, 60416, Note_off_c, 4, 55, 0
6, 60416, Note_on_c, 4, 54, 96
6, 60928, Note_off_c, 4, 54, 0
6, 60928, Note_on_c, 4, 50, 96
6, 61440, Note_off_c, 4, 50, 0
6, 61440, Note_on_c, 4, 55, 96
6, 61952, Note_off_c, 4, 55, 0
6, 61952, Note_on_c, 4, 57, 96
6, 62464, Note_off_c, 4, 57, 0
6, 62464, Note_on_c, 4, 59, 96
6, 62976, Note_off_c, 4, 59, 0
6, 62976, Note_on_c, 4, 47, 96
6, 63488, Note_off_c, 4, 47, 0
6, 63488, Note_on_c, 4, 52, 96
6, 64000, Note_off_c, 4, 52, 0
6, 64000, Note_on_c, 4, 53, 96
6, 64512, Note_off_c, 4, 53, 0
6, 64512, Note_on_c, 4, 55, 96
6, 65024, Note_off_c, 4, 55, 0
6, 65024, Note_on_c, 4, 43, 96
6, 65536, Note_off_c, 4, 43, 0
6, 65536, Note_on_c, 4, 48, 96
6, 66048, Note_off_c, 4, 48, 0
6, 66048, Note_on_c, 4, 50, 96
6, 66560, Note_off_c, 4, 50, 0
6, 66560, Note_on_c, 4, 52, 96
6, 67072, Note_off_c, 4, 52, 0
6, 67072, Note_on_c, 4, 54, 96
6, 67584, Note_off_c, 4, 54, 0
6, 67584, Note_on_c, 4, 55, 96
6, 68096, Note_off_c, 4, 55, 0
6, 68096, Note_on_c, 4, 47, 96
6, 68608, Note_off_c, 4, 47, 0
6, 68608, Note_on_c, 4, 48, 96
6, 69120, Note_off_c, 4, 48, 0
6, 69120, Note_on_c, 4, 50, 96
6, 69632, Note_off_c, 4, 50, 0
6, 69632, Note_on_c, 4, 52, 96
6, 70144, Note_off_c, 4, 52, 0
6, 70144, Note_on_c, 4, 54, 96
6, 70656, Note_off_c, 4, 54, 0
6, 70656, Note_on_c, 4, 55, 96
6, 71168, Note_off_c, 4, 55, 0
6, 71168, Note_on_c, 4, 52, 96
6, 71680, Note_off_c, 4, 52, 0
6, 71680, Note_on_c, 4, 49, 96
6, 72192, Note_off_c, 4, 49, 0
6, 72192, Note_on_c, 4, 45, 96
6, 72704, Note_off_c, 4, 45, 0
6, 72704, Note_on_c, 4, 50, 96
6, 73216, Note_off_c, 4, 50, 0
6, 73216, Note_on_c, 4, 38, 96
6, 73728, Note_off_c, 4, 38, 0
6, 73728, Note_on_c, 4, 43, 96
6, 74752, Note_off_c, 4, 43, 0
6, 76288, Note_on_c, 4, 50, 96
6, 76800, Note_off_c, 4, 50, 0
6, 76800, Note_on_c, 4, 55, 96
6, 77312, Note_off_c, 4, 55, 0
6, 77312, Note_on_c, 4, 57, 96
6, 77824, Note_off_c, 4, 57, 0
6, 77824, Note_on_c, 4, 59, 96
6, 78336, Note_off_c, 4, 59, 0
6, 78336, Note_on_c, 4, 60, 96
6, 78848, Note_off_c, 4, 60, 0
6, 78848, Note_on_c, 4, 62, 96
6, 79360, Note_off_c, 4, 62, 0
6, 79360, Note_on_c, 4, 50, 96
6, 79872, Note_off_c, 4, 50, 0
6, 79872, Note_on_c, 4, 55, 96
6, 80384, Note_off_c, 4, 55, 0
6, 80384, Note_on_c, 4, 57, 96
6, 80896, Note_off_c, 4, 57, 0
6, 80896, Note_on_c, 4, 59, 96
6, 81408, Note_off_c, 4, 59, 0
6, 81408, Note_on_c, 4, 47, 96
6, 81920, Note_off_c, 4, 47, 0
6, 81920, Note_on_c, 4, 52, 96
6, 82432, Note_off_c, 4, 52, 0
6, 82432, Note_on_c, 4, 53, 96
6, 82944, Note_off_c, 4, 53, 0
6, 82944, Note_on_c, 4, 55, 96
6, 83456, Note_off_c, 4, 55, 0
6, 83456, Note_on_c, 4, 43, 96
6, 83968, Note_off_c, 4, 43, 0
6, 83968, Note_on_c, 4, 48, 96
6, 84480, Note_off_c, 4, 48, 0
6, 84480, Note_on_c, 4, 50, 96
6, 84992, Note_off_c, 4, 50, 0
6, 84992, Note_on_c, 4, 52, 96
6, 85504, Note_off_c, 4, 52, 0
6, 85504, Note_on_c, 4, 49, 96
6, 86016, Note_off_c, 4, 49, 0
6, 86016, Note_on_c, 4, 50, 96
6, 86528, Note_off_c, 4, 50, 0
6, 86528, Note_on_c, 4, 52, 96
6, 87040, Note_off_c, 4, 52, 0
6, 87040, Note_on_c, 4, 50, 96
6, 87552, Note_off_c, 4, 50, 0
6, 87552, Note_on_c, 4, 48, 96
6, 88064, Note_off_c, 4, 48, 0
6, 88064, Note_on_c, 4, 47, 96
6, 88576, Note_off_c, 4, 47, 0
6, 88576, Note_on_c, 4, 48, 96
6, 89088, Note_off_c, 4, 48, 0
6, 89088, Note_on_c, 4, 50, 96
6, 89600, Note_off_c, 4, 50, 0
6, 89600, Note_on_c, 4, 47, 96
6, 90112, Note_off_c, 4, 47, 0
6, 90112, Note_on_c, 4, 48, 96
6, 90624, Note_off_c, 4, 48, 0
6, 90624, Note_on_c, 4, 52, 96
6, 91136, Note_off_c, 4, 52, 0
6, 91136, Note_on_c, 4, 55, 96
6, 91648, Note_off_c, 4, 55, 0
6, 91648, Note_on_c, 4, 52, 96
6, 92160, Note_off_c, 4, 52, 0
6, 92160, Note_on_c, 4, 49, 96
6, 92672, Note_off_c, 4, 49, 0
6, 92672, Note_on_c, 4, 50, 96
6, 93184, Note_off_c, 4, 50, 0
6, 93184, Note_on_c, 4, 47, 96
6, 93696, Note_off_c, 4, 47, 0
6, 93696, Note_on_c, 4, 49, 96
6, 94208, Note_off_c, 4, 49, 0
6, 94208, Note_on_c, 4, 50, 96
6, 94720, Note_off_c, 4, 50, 0
6, 94720, Note_on_c, 4, 45, 96
6, 95232, Note_off_c, 4, 45, 0
6, 95232, Note_on_c, 4, 42, 96
6, 95744, Note_off_c, 4, 42, 0
6, 95744, Note_on_c, 4, 38, 96
6, 96256, Note_off_c, 4, 38, 0
6, 96256, Note_on_c, 4, 45, 96
6, 96768, Note_off_c, 4, 45, 0
6, 96768, Note_on_c, 4, 43, 96
6, 97280, Note_off_c, 4, 43, 0
6, 97280, Note_on_c, 4, 45, 96
6, 97792, Note_off_c, 4, 45, 0
6, 97792, Note_on_c, 4, 45, 96
6, 98304, Note_off_c, 4, 45, 0
6, 98304, Note_on_c, 4, 50, 96
6, 98816, Note_off_c, 4, 50, 0
6, 98816, Note_on_c, 4, 52, 96
6, 99328, Note_off_c, 4, 52, 0
6, 99328, Note_on_c, 4, 54, 96
6, 99840, Note_off_c, 4, 54, 0
6, 99840, Note_on_c, 4, 42, 96
6, 100352, Note_off_c, 4, 42, 0
6, 100352, Note_on_c, 4, 47, 96
6, 100864, Note_off_c, 4, 47, 0
6, 100864, Note_on_c, 4, 48, 96
6, 101376, Note_off_c, 4, 48, 0
6, 101376, Note_on_c, 4, 50, 96
6, 101888, Note_off_c, 4, 50, 0
6, 101888, Note_on_c, 4, 38, 96
6, 102400, Note_off_c, 4, 38, 0
6, 102400, Note_on_c, 4, 43, 96
6, 102912, Note_off_c, 4, 43, 0
6, 102912, Note_on_c, 4, 45, 96
6, 103424, Note_off_c, 4, 45, 0
6, 103424, Note_on_c, 4, 47, 96
6, 103936, Note_off_c, 4, 47, 0
6, 103936, Note_on_c, 4, 49, 96
6, 104448, Note_off_c, 4, 49, 0
6, 104448, Note_on_c, 4, 50, 96
6, 104960, Note_off_c, 4, 50, 0
6, 104960, Note_on_c, 4, 55, 96
6, 105472, Note_off_c, 4, 55, 0
6, 105472, Note_on_c, 4, 57, 96
6, 105984, Note_off_c, 4, 57, 0
6, 105984, Note_on_c, 4, 45, 96
6, 106496, Note_off_c, 4, 45, 0
6, 106496, Note_on_c, 4, 50, 96
6, 107008, Note_off_c, 4, 50, 0
6, 107008, Note_on_c, 4, 52, 96
6, 107520, Note_off_c, 4, 52, 0
6, 107520, Note_on_c, 4, 54, 96
6, 108032, Note_off_c, 4, 54, 0
6, 108032, Note_on_c, 4, 50, 96
6, 108544, Note_off_c, 4, 50, 0
6, 108544, Note_on_c, 4, 55, 96
6, 109056, Note_off_c, 4, 55, 0
6, 109056, Note_on_c, 4, 57, 96
6, 109568, Note_off_c, 4, 57, 0
6, 109568, Note_on_c, 4, 59, 96
6, 110080, Note_off_c, 4, 59, 0
6, 110080, Note_on_c, 4, 50, 96
6, 110592, Note_off_c, 4, 50, 0
6, 110592, Note_on_c, 4, 52, 96
6, 111104, Note_off_c, 4, 52, 0
6, 111104, Note_on_c, 4, 54, 96
6, 111616, Note_off_c, 4, 54, 0
6, 111616, Note_on_c, 4, 55, 96
6, 112128, Note_off_c, 4, 55, 0
6, 112128, Note_on_c, 4, 47, 96
6, 112640, Note_off_c, 4, 47, 0
6, 112640, Note_on_c, 4, 48, 96
6, 113152, Note_off_c, 4, 48, 0
6, 113152, Note_on_c, 4, 45, 96
6, 113664, Note_off_c, 4, 45, 0
6, 113664, Note_on_c, 4, 50, 96
6, 114176, Note_off_c, 4, 50, 0
6, 114176, Note_on_c, 4, 38, 96
6, 114688, Note_off_c, 4, 38, 0
6, 114688, Note_on_c, 4, 43, 96
6, 115712, Note_off_c, 4, 43, 0
6, 117248, Note_on_c, 4, 50, 96
6, 117760, Note_off_c, 4, 50, 0
6, 117760, Note_on_c, 4, 55, 96
6, 118272, Note_off_c, 4, 55, 0
6, 118272, Note_on_c, 4, 57, 96
6, 118784, Note_off_c, 4, 57, 0
6, 118784, Note_on_c, 4, 59, 96
6, 119296, Note_off_c, 4, 59, 0
6, 119296, Note_on_c, 4, 60, 96
6, 119808, Note_off_c, 4, 60, 0
6, 119808, Note_on_c, 4, 62, 96
6, 120320, Note_off_c, 4, 62, 0
6, 120320, Note_on_c, 4, 50, 96
6, 120832, Note_off_c, 4, 50, 0
6, 120832, Note_on_c, 4, 55, 96
6, 121344, Note_off_c, 4, 55, 0
6, 121344, Note_on_c, 4, 57, 96
6, 121856, Note_off_c, 4, 57, 0
6, 121856, Note_on_c, 4, 59, 96
6, 122368, Note_off_c, 4, 59, 0
6, 122368, Note_on_c, 4, 47, 96
6, 122880, Note_off_c, 4, 47, 0
6, 122880, Note_on_c, 4, 52, 96
6, 123392, Note_off_c, 4, 52, 0
6, 123392, Note_on_c, 4, 53, 96
6, 123904, Note_off_c, 4, 53, 0
6, 123904, Note_on_c, 4, 55, 96
6, 124416, Note_off_c, 4, 55, 0
6, 124416, Note_on_c, 4, 43, 96
6, 124928, Note_off_c, 4, 43, 0
6, 124928, Note_on_c, 4, 48, 96
6, 125440, Note_off_c, 4, 48, 0
6, 125440, Note_on_c, 4, 60, 96
6, 125952, Note_off_c, 4, 60, 0
6, 125952, Note_on_c, 4, 59, 96
6, 126464, Note_off_c, 4, 59, 0
6, 126464, Note_on_c, 4, 57, 96
6, 126976, Note_off_c, 4, 57, 0
6, 126976, Note_on_c, 4, 59, 96
6, 127488, Note_off_c, 4, 59, 0
6, 127488, Note_on_c, 4, 60, 96
6, 128000, Note_off_c, 4, 60, 0
6, 128000, Note_on_c, 4, 62, 96
6, 128512, Note_off_c, 4, 62, 0
6, 128512, Note_on_c, 4, 50, 96
6, 129024, Note_off_c, 4, 50, 0
6, 129024, Note_on_c, 4, 43, 96
6, 131072, Note_off_c, 4, 43, 0
6, 131073, End_track
7, 0, Start_track
7, 0, Title_t, "Instrument 6"
7, 512, Note_on_c, 5, 62, 96
7, 1024, Note_off_c, 5, 62, 0
7, 1024, Note_on_c, 5, 67, 96
7, 1536, Note_off_c, 5, 67, 0
7, 1536, Note_on_c, 5, 69, 96
7, 2048, Note_off_c, 5, 69, 0
7, 2048, Note_on_c, 5, 71, 96
7, 2304, Note_off_c, 5, 71, 0
7, 2304, Note_on_c, 5, 69, 96
7, 2560, Note_off_c, 5, 69, 0
7, 2560, Note_on_c, 5, 67, 96
7, 2816, Note_off_c, 5, 67, 0
7, 2816, Note_on_c, 5, 69, 96
7, 3072, Note_off_c, 5, 69, 0
7, 3072, Note_on_c, 5, 71, 96
7, 3328, Note_off_c, 5, 71, 0
7, 3328, Note_on_c, 5, 72, 96
7, 3584, Note_off_c, 5, 72, 0
7, 3584, Note_on_c, 5, 71, 96
7, 3840, Note_off_c, 5, 71, 0
7, 3840, Note_on_c, 5, 72, 96
7, 4096, Note_off_c, 5, 72, 0
7, 4096, Note_on_c, 5, 74, 96
7, 4352, Note_off_c, 5, 74, 0
7, 4352, Note_on_c, 5, 79, 96
7, 4608, Note_off_c, 5, 79, 0
7, 4608, Note_on_c, 5, 78, 96
7, 4864, Note_off_c, 5, 78, 0
7, 4864, Note_on_c, 5, 76, 96
7, 5120, Note_off_c, 5, 76, 0
7, 5120, Note_on_c, 5, 74, 96
7, 5376, Note_off_c, 5, 74, 0
7, 5376, Note_on_c, 5, 72, 96
7, 5632, Note_off_c, 5, 72, 0
7, 5632, Note_on_c, 5, 71, 96
7, 5888, Note_off_c, 5, 71, 0
7, 5888, Note_on_c, 5, 72, 96
7, 6144, Note_off_c, 5, 72, 0
7, 6144, Note_on_c, 5, 71, 96
7, 6400, Note_off_c, 5, 71, 0
7, 6400, Note_on_c, 5, 76, 96
7, 6656, Note_off_c, 5, 76, 0
7, 6656, Note_on_c, 5, 74, 96
7, 6912, Note_off_c, 5, 74, 0
7, 6912, Note_on_c, 5, 72, 96
7, 7168, Note_off_c, 5, 72, 0
7, 7168, Note_on_c, 5, 71, 96
7, 7424, Note_off_c, 5, 71, 0
7, 7424, Note_on_c, 5, 69, 96
7, 7680, Note_off_c, 5, 69, 0
7, 7680, Note_on_c, 5, 67, 96
7, 7936, Note_off_c, 5, 67, 0
7, 7936, Note_on_c, 5, 69, 96
7, 8192, Note_off_c, 5, 69, 0
7, 8192, Note_on_c, 5, 67, 96
7, 8448, Note_off_c, 5, 67, 0
7, 8448, Note_on_c, 5, 72, 96
7, 8704, Note_off_c, 5, 72, 0
7, 8704, Note_on_c, 5, 71, 96
7, 8960, Note_off_c, 5, 71, 0
7, 8960, Note_on_c, 5, 69, 96
7, 9216, Note_off_c, 5, 69, 0
7, 9216, Note_on_c, 5, 67, 96
7, 9472, Note_off_c, 5, 67, 0
7, 9472, Note_on_c, 5, 65, 96
7, 9728, Note_off_c, 5, 65, 0
7, 9728, Note_on_c, 5, 64, 96
7, 9984, Note_off_c, 5, 64, 0
7, 9984, Note_on_c, 5, 65, 96
7, 10240, Note_off_c, 5, 65, 0
7, 10240, Note_on_c, 5, 64, 96
7, 10496, Note_off_c, 5, 64, 0
7, 10496, Note_on_c, 5, 67, 96
7, 10752, Note_off_c, 5, 67, 0
7, 10752, Note_on_c, 5, 66, 96
7, 11008, Note_off_c, 5, 66, 0
7, 11008, Note_on_c, 5, 69, 96
7, 11264, Note_off_c, 5, 69, 0
7, 11264, Note_on_c, 5, 67, 96
7, 11520, Note_off_c, 5, 67, 0
7, 11520, Note_on_c, 5, 79, 96
7, 11776, Note_off_c, 5, 79, 0
7, 11776, Note_on_c, 5, 78, 96
7, 12032, Note_off_c, 5, 78, 0
7, 12032, Note_on_c, 5, 76, 96
7, 12288, Note_off_c, 5, 76, 0
7, 12288, Note_on_c, 5, 74, 96
7, 12544, Note_off_c, 5, 74, 0
7, 12544, Note_on_c, 5, 72, 96
7, 12800, Note_off_c, 5, 72, 0
7, 12800, Note_on_c, 5, 71, 96
7, 13056, Note_off_c, 5, 71, 0
7, 13056, Note_on_c, 5, 72, 96
7, 13184, Note_off_c, 5, 72, 0
7, 13184, Note_on_c, 5, 74, 96
7, 13312, Note_off_c, 5, 74, 0
7, 13312, Note_on_c, 5, 69, 96
7, 14080, Note_off_c, 5, 69, 0
7, 14080, Note_on_c, 5, 67, 96
7, 14336, Note_off_c, 5, 67, 0
7, 14336, Note_on_c, 5, 67, 96
7, 15360, Note_off_c, 5, 67, 0
7, 18944, Note_on_c, 5, 62, 96
7, 19456, Note_off_c, 5, 62, 0
7, 19456, Note_on_c, 5, 67, 96
7, 19968, Note_off_c, 5, 67, 0
7, 19968, Note_on_c, 5, 69, 96
7, 20480, Note_off_c, 5, 69, 0
7, 20480, Note_on_c, 5, 71, 96
7, 20736, Note_off_c, 5, 71, 0
7, 20736, Note_on_c, 5, 69, 96
7, 20992, Note_off_c, 5, 69, 0
7, 20992, Note_on_c, 5, 67, 96
7, 21248, Note_off_c, 5, 67, 0
7, 21248, Note_on_c, 5, 69, 96
7, 21504, Note_off_c, 5, 69, 0
7, 21504, Note_on_c, 5, 71, 96
7, 21760, Note_off_c, 5, 71, 0
7, 21760, Note_on_c, 5, 72, 96
7, 22016, Note_off_c, 5, 72, 0
7, 22016, Note_on_c, 5, 71, 96
7, 22272, Note_off_c, 5, 71, 0
7, 22272, Note_on_c, 5, 72, 96
7, 22528, Note_off_c, 5, 72, 0
7, 22528, Note_on_c, 5, 74, 96
7, 22784, Note_off_c, 5, 74, 0
7, 22784, Note_on_c, 5, 79, 96
7, 23040, Note_off_c, 5, 79, 0
7, 23040, Note_on_c, 5, 78, 96
7, 23296, Note_off_c, 5, 78, 0
7, 23296, Note_on_c, 5, 76, 96
7, 23552, Note_off_c, 5, 76, 0
7, 23552, Note_on_c, 5, 74, 96
7, 23808, Note_off_c, 5, 74, 0
7, 23808, Note_on_c, 5, 72, 96
7, 24064, Note_off_c, 5, 72, 0
7, 24064, Note_on_c, 5, 71, 96
7, 24320, Note_off_c, 5, 71, 0
7, 24320, Note_on_c, 5, 72, 96
7, 24576, Note_off_c, 5, 72, 0
7, 24576, Note_on_c, 5, 71, 96
7, 24832, Note_off_c, 5, 71, 0
7, 24832, Note_on_c, 5, 76, 96
7, 25088, Note_off_c, 5, 76, 0
7, 25088, Note_on_c, 5, 74, 96
7, 25344, Note_off_c, 5, 74, 0
7, 25344, Note_on_c, 5, 72, 96
7, 25600, Note_off_c, 5, 72, 0
7, 25600, Note_on_c, 5, 71, 96
7, 25856, Note_off_c, 5, 71, 0
7, 25856, Note_on_c, 5, 69, 96
7, 26112, Note_off_c, 5, 69, 0
7, 26112, Note_on_c, 5, 67, 96
7, 26368, Note_off_c, 5, 67, 0
7, 26368, Note_on_c, 5, 69, 96
7, 26624, Note_off_c, 5, 69, 0
7, 26624, Note_on_c, 5, 67, 96
7, 26880, Note_off_c, 5, 67, 0
7, 26880, Note_on_c, 5, 72, 96
7, 27136, Note_off_c, 5, 72, 0
7, 27136, Note_on_c, 5, 71, 96
7, 27392, Note_off_c, 5, 71, 0
7, 27392, Note_on_c, 5, 69, 96
7, 27648, Note_off_c, 5, 69, 0
7, 27648, Note_on_c, 5, 67, 96
7, 27904, Note_off_c, 5, 67, 0
7, 27904, Note_on_c, 5, 65, 96
7, 28160, Note_off_c, 5, 65, 0
7, 28160, Note_on_c, 5, 64, 96
7, 28416, Note_off_c, 5, 64, 0
7, 28416, Note_on_c, 5, 65, 96
7, 28672, Note_off_c, 5, 65, 0
7, 28672, Note_on_c, 5, 64, 96
7, 28928, Note_off_c, 5, 64, 0
7, 28928, Note_on_c, 5, 67, 96
7, 29184, Note_off_c, 5, 67, 0
7, 29184, Note_on_c, 5, 66, 96
7, 29440, Note_off_c, 5, 66, 0
7, 29440, Note_on_c, 5, 69, 96
7, 29696, Note_off_c, 5, 69, 0
7, 29696, Note_on_c, 5, 67, 96
7, 29952, Note_off_c, 5, 67, 0
7, 29952, Note_on_c, 5, 79, 96
7, 30208, Note_off_c, 5, 79, 0
7, 30208, Note_on_c, 5, 78, 96
7, 30464, Note_off_c, 5, 78, 0
7, 30464, Note_on_c, 5, 76, 96
7, 30720, Note_off_c, 5, 76, 0
7, 30720, Note_on_c, 5, 74, 96
7, 30976, Note_off_c, 5, 74, 0
7, 30976, Note_on_c, 5, 72, 96
7, 31232, Note_off_c, 5, 72, 0
7, 31232, Note_on_c, 5, 71, 96
7, 31488, Note_off_c, 5, 71, 0
7, 31488, Note_on_c, 5, 72, 96
7, 31616, Note_off_c, 5, 72, 0
7, 31616, Note_on_c, 5, 74, 96
7, 31744, Note_off_c, 5, 74, 0
7, 31744, Note_on_c, 5, 69, 96
7, 32512, Note_off_c, 5, 69, 0
7, 32512, Note_on_c, 5, 67, 96
7, 32768, Note_off_c, 5, 67, 0
7, 32768, Note_on_c, 5, 67, 96
7, 33792, Note_off_c, 5, 67, 0
7, 37376, Note_on_c, 5, 62, 96
7, 37888, Note_off_c, 5, 62, 0
7, 37888, Note_on_c, 5, 67, 96
7, 38400, Note_off_c, 5, 67, 0
7, 38400, Note_on_c, 5, 69, 96
7, 38912, Note_off_c, 5, 69, 0
7, 38912, Note_on_c, 5, 71, 96
7, 39168, Note_off_c, 5, 71, 0
7, 39168, Note_on_c, 5, 69, 96
7, 39424, Note_off_c, 5, 69, 0
7, 39424, Note_on_c, 5, 67, 96
7, 39680, Note_off_c, 5, 67, 0
7, 39680, Note_on_c, 5, 69, 96
7, 39936, Note_off_c, 5, 69, 0
7, 39936, Note_on_c, 5, 71, 96
7, 40192, Note_off_c, 5, 71, 0
7, 40192, Note_on_c, 5, 72, 96
7, 40448, Note_off_c, 5, 72, 0
7, 40448, Note_on_c, 5, 71, 96
7, 40704, Note_off_c, 5, 71, 0
7, 40704, Note_on_c, 5, 72, 96
7, 40960, Note_off_c, 5, 72, 0
7, 40960, Note_on_c, 5, 74, 96
7, 41216, Note_off_c, 5, 74, 0
7, 41216, Note_on_c, 5, 79, 96
7, 41472, Note_off_c, 5, 79, 0
7, 41472, Note_on_c, 5, 78, 96
7, 41728, Note_off_c, 5, 78, 0
7, 41728, Note_on_c, 5, 76, 96
7, 41984, Note_off_c, 5, 76, 0
7, 41984, Note_on_c, 5, 74, 96
7, 42240, Note_off_c, 5, 74, 0
7, 42240, Note_on_c, 5, 72, 96
7, 42496, Note_off_c, 5, 72, 0
7, 42496, Note_on_c, 5, 71, 96
7, 42752, Note_off_c, 5, 71, 0
7, 42752, Note_on_c, 5, 72, 96
7, 43008, Note_off_c, 5, 72, 0
7, 43008, Note_on_c, 5, 71, 96
7, 43264, Note_off_c, 5, 71, 0
7, 43264, Note_on_c, 5, 76, 96
7, 43520, Note_off_c, 5, 76, 0
7, 43520, Note_on_c, 5, 74, 96
7, 43776, Note_off_c, 5, 74, 0
7, 43776, Note_on_c, 5, 72, 96
7, 44032, Note_off_c, 5, 72, 0
7, 44032, Note_on_c, 5, 71, 96
7, 44288, Note_off_c, 5, 71, 0
7, 44288, Note_on_c, 5, 69, 96
7, 44544, Note_off_c, 5, 69, 0
7, 44544, Note_on_c, 5, 67, 96
7, 44800, Note_off_c, 5, 67, 0
7, 44800, Note_on_c, 5, 69, 96
7, 45056, Note_off_c, 5, 69, 0
7, 45056, Note_on_c, 5, 67, 96
7, 45312, Note_off_c, 5, 67, 0
7, 45312, Note_on_c, 5, 72, 96
7, 45568, Note_off_c, 5, 72, 0
7, 45568, Note_on_c, 5, 71, 96
7, 45824, Note_off_c, 5, 71, 0
7, 45824, Note_on_c, 5, 69, 96
7, 46080, Note_off_c, 5, 69, 0
7, 46080, Note_on_c, 5, 67, 96
7, 46336, Note_off_c, 5, 67, 0
7, 46336, Note_on_c, 5, 65, 96
7, 46592, Note_off_c, 5, 65, 0
7, 46592, Note_on_c, 5, 64, 96
7, 46848, Note_off_c, 5, 64, 0
7, 46848, Note_on_c, 5, 65, 96
7, 47104, Note_off_c, 5, 65, 0
7, 47104, Note_on_c, 5, 64, 96
7, 47360, Note_off_c, 5, 64, 0
7, 47360, Note_on_c, 5, 67, 96
7, 47616, Note_off_c, 5, 67, 0
7, 47616, Note_on_c, 5, 66, 96
7, 47872, Note_off_c, 5, 66, 0
7, 47872, Note_on_c, 5, 69, 96
7, 48128, Note_off_c, 5, 69, 0
7, 48128, Note_on_c, 5, 67, 96
7, 48384, Note_off_c, 5, 67, 0
7, 48384, Note_on_c, 5, 79, 96
7, 48640, Note_off_c, 5, 79, 0
7, 48640, Note_on_c, 5, 78, 96
7, 48896, Note_off_c, 5, 78, 0
7, 48896, Note_on_c, 5, 76, 96
7, 49152, Note_off_c, 5, 76, 0
7, 49152, Note_on_c, 5, 74, 96
7, 49408, Note_off_c, 5, 74, 0
7, 49408, Note_on_c, 5, 72, 96
7, 49664, Note_off_c, 5, 72, 0
7, 49664, Note_on_c, 5, 71, 96
7, 49920, Note_off_c, 5, 71, 0
7, 49920, Note_on_c, 5, 72, 96
7, 50048, Note_off_c, 5, 72, 0
7, 50048, Note_on_c, 5, 74, 96
7, 50176, Note_off_c, 5, 74, 0
7, 50176, Note_on_c, 5, 69, 96
7, 50944, Note_off_c, 5, 69, 0
7, 50944, Note_on_c, 5, 67, 96
7, 51200, Note_off_c, 5, 67, 0
7, 51200, Note_on_c, 5, 67, 96
7, 52224, Note_off_c, 5, 67, 0
7, 55808, Note_on_c, 5, 62, 96
7, 56320, Note_off_c, 5, 62, 0
7, 56320, Note_on_c, 5, 67, 96
7, 56832, Note_off_c, 5, 67, 0
7, 56832, Note_on_c, 5, 69, 96
7, 57344, Note_off_c, 5, 69, 0
7, 57344, Note_on_c, 5, 71, 96
7, 57600, Note_off_c, 5, 71, 0
7, 57600, Note_on_c, 5, 69, 96
7, 57856, Note_off_c, 5, 69, 0
7, 57856, Note_on_c, 5, 67, 96
7, 58112, Note_off_c, 5, 67, 0
7, 58112, Note_on_c, 5, 69, 96
7, 58368, Note_off_c, 5, 69, 0
7, 58368, Note_on_c, 5, 71, 96
7, 58624, Note_off_c, 5, 71, 0
7, 58624, Note_on_c, 5, 72, 96
7, 58880, Note_off_c, 5, 72, 0
7, 58880, Note_on_c, 5, 71, 96
7, 59136, Note_off_c, 5, 71, 0
7, 59136, Note_on_c, 5, 72, 96
7, 59392, Note_off_c, 5, 72, 0
7, 59392, Note_on_c, 5, 74, 96
7, 59648, Note_off_c, 5, 74, 0
7, 59648, Note_on_c, 5, 79, 96
7, 59904, Note_off_c, 5, 79, 0
7, 59904, Note_on_c, 5, 78, 96
7, 60160, Note_off_c, 5, 78, 0
7, 60160, Note_on_c, 5, 76, 96
7, 60416, Note_off_c, 5, 76, 0
7, 60416, Note_on_c, 5, 74, 96
7, 60672, Note_off_c, 5, 74, 0
7, 60672, Note_on_c, 5, 72, 96
7, 60928, Note_off_c, 5, 72, 0
7, 60928, Note_on_c, 5, 71, 96
7, 61184, Note_off_c, 5, 71, 0
7, 61184, Note_on_c, 5, 72, 96
7, 61440, Note_off_c, 5, 72, 0
7, 61440, Note_on_c, 5, 71, 96
7, 61696, Note_off_c, 5, 71, 0
7, 61696, Note_on_c, 5, 76, 96
7, 61952, Note_off_c, 5, 76, 0
7, 61952, Note_on_c, 5, 74, 96
7, 62208, Note_off_c, 5, 74, 0
7, 62208, Note_on_c, 5, 72, 96
7, 62464, Note_off_c, 5, 72, 0
7, 62464, Note_on_c, 5, 71, 96
7, 62720, Note_off_c, 5, 71, 0
7, 62720, Note_on_c, 5, 69, 96
7, 62976, Note_off_c, 5, 69, 0
7, 62976, Note_on_c, 5, 67, 96
7, 63232, Note_off_c, 5, 67, 0
7, 63232, Note_on_c, 5, 69, 96
7, 63488, Note_off_c, 5, 69, 0
7, 63488, Note_on_c, 5, 67, 96
7, 63744, Note_off_c, 5, 67, 0
7, 63744, Note_on_c, 5, 72, 96
7, 64000, Note_off_c, 5, 72, 0
7, 64000, Note_on_c, 5, 71, 96
7, 64256, Note_off_c, 5, 71, 0
7, 64256, Note_on_c, 5, 69, 96
7, 64512, Note_off_c, 5, 69, 0
7, 64512, Note_on_c, 5, 67, 96
7, 64768, Note_off_c, 5, 67, 0
7, 64768, Note_on_c, 5, 65, 96
7, 65024, Note_off_c, 5, 65, 0
7, 65024, Note_on_c, 5, 64, 96
7, 65280, Note_off_c, 5, 64, 0
7, 65280, Note_on_c, 5, 65, 96
7, 65536, Note_off_c, 5, 65, 0
7, 65536, Note_on_c, 5, 64, 96
7, 65792, Note_off_c, 5, 64, 0
7, 65792, Note_on_c, 5, 67, 96
7, 66048, Note_off_c, 5, 67, 0
7, 66048, Note_on_c, 5, 66, 96
7, 66304, Note_off_c, 5, 66, 0
7, 66304, Note_on_c, 5, 69, 96
7, 66560, Note_off_c, 5, 69, 0
7, 66560, Note_on_c, 5, 67, 96
7, 66816, Note_off_c, 5, 67, 0
7, 66816, Note_on_c, 5, 79, 96
7, 67072, Note_off_c, 5, 79, 0
7, 67072, Note_on_c, 5, 78, 96
7, 67328, Note_off_c, 5, 78, 0
7, 67328, Note_on_c, 5, 76, 96
7, 67584, Note_off_c, 5, 76, 0
7, 67584, Note_on_c, 5, 74, 96
7, 67840, Note_off_c, 5, 74, 0
7, 67840, Note_on_c, 5, 72, 96
7, 68096, Note_off_c, 5, 72, 0
7, 68096, Note_on_c, 5, 71, 96
7, 68352, Note_off_c, 5, 71, 0
7, 68352, Note_on_c, 5, 72, 96
7, 68480, Note_off_c, 5, 72, 0
7, 68480, Note_on_c, 5, 74, 96
7, 68608, Note_off_c, 5, 74, 0
7, 68608, Note_on_c, 5, 69, 96
7, 69376, Note_off_c, 5, 69, 0
7, 69376, Note_on_c, 5, 67, 96
7, 69632, Note_off_c, 5, 67, 0
7, 69632, Note_on_c, 5, 67, 96
7, 70656, Note_off_c, 5, 67, 0
7, 74240, Note_on_c, 5, 62, 96
7, 74752, Note_off_c, 5, 62, 0
7, 74752, Note_on_c, 5, 67, 96
7, 75264, Note_off_c, 5, 67, 0
7, 75264, Note_on_c, 5, 69, 96
7, 75776, Note_off_c, 5, 69, 0
7, 75776, Note_on_c, 5, 71, 96
7, 76032, Note_off_c, 5, 71, 0
7, 76032, Note_on_c, 5, 69, 96
7, 76288, Note_off_c, 5, 69, 0
7, 76288, Note_on_c, 5, 67, 96
7, 76544, Note_off_c, 5, 67, 0
7, 76544, Note_on_c, 5, 69, 96
7, 76800, Note_off_c, 5, 69, 0
7, 76800, Note_on_c, 5, 71, 96
7, 77056, Note_off_c, 5, 71, 0
7, 77056, Note_on_c, 5, 72, 96
7, 77312, Note_off_c, 5, 72, 0
7, 77312, Note_on_c, 5, 71, 96
7, 77568, Note_off_c, 5, 71, 0
7, 77568, Note_on_c, 5, 72, 96
7, 77824, Note_off_c, 5, 72, 0
7, 77824, Note_on_c, 5, 74, 96
7, 78080, Note_off_c, 5, 74, 0
7, 78080, Note_on_c, 5, 79, 96
7, 78336, Note_off_c, 5, 79, 0
7, 78336, Note_on_c, 5, 78, 96
7, 78592, Note_off_c, 5, 78, 0
7, 78592, Note_on_c, 5, 76, 96
7, 78848, Note_off_c, 5, 76, 0
7, 78848, Note_on_c, 5, 74, 96
7, 79104, Note_off_c, 5, 74, 0
7, 79104, Note_on_c, 5, 72, 96
7, 79360, Note_off_c, 5, 72, 0
7, 79360, Note_on_c, 5, 71, 96
7, 79616, Note_off_c, 5, 71, 0
7, 79616, Note_on_c, 5, 72, 96
7, 79872, Note_off_c, 5, 72, 0
7, 79872, Note_on_c, 5, 71, 96
7, 80128, Note_off_c, 5, 71, 0
7, 80128, Note_on_c, 5, 76, 96
7, 80384, Note_off_c, 5, 76, 0
7, 80384, Note_on_c, 5, 74, 96
7, 80640, Note_off_c, 5, 74, 0
7, 80640, Note_on_c, 5, 72, 96
7, 80896, Note_off_c, 5, 72, 0
7, 80896, Note_on_c, 5, 71, 96
7, 81152, Note_off_c, 5, 71, 0
7, 81152, Note_on_c, 5, 69, 96
7, 81408, Note_off_c, 5, 69, 0
7, 81408, Note_on_c, 5, 67, 96
7, 81664, Note_off_c, 5, 67, 0
7, 81664, Note_on_c, 5, 69, 96
7, 81920, Note_off_c, 5, 69, 0
7, 81920, Note_on_c, 5, 67, 96
7, 82176, Note_off_c, 5, 67, 0
7, 82176, Note_on_c, 5, 72, 96
7, 82432, Note_off_c, 5, 72, 0
7, 82432, Note_on_c, 5, 71, 96
7, 82688, Note_off_c, 5, 71, 0
7, 82688, Note_on_c, 5, 69, 96
7, 82944, Note_off_c, 5, 69, 0
7, 82944, Note_on_c, 5, 67, 96
7, 83200, Note_off_c, 5, 67, 0
7, 83200, Note_on_c, 5, 65, 96
7, 83456, Note_off_c, 5, 65, 0
7, 83456, Note_on_c, 5, 64, 96
7, 83712, Note_off_c, 5, 64, 0
7, 83712, Note_on_c, 5, 65, 96
7, 83968, Note_off_c, 5, 65, 0
7, 83968, Note_on_c, 5, 64, 96
7, 84224, Note_off_c, 5, 64, 0
7, 84224, Note_on_c, 5, 67, 96
7, 84480, Note_off_c, 5, 67, 0
7, 84480, Note_on_c, 5, 66, 96
7, 84736, Note_off_c, 5, 66, 0
7, 84736, Note_on_c, 5, 69, 96
7, 84992, Note_off_c, 5, 69, 0
7, 84992, Note_on_c, 5, 67, 96
7, 85248, Note_off_c, 5, 67, 0
7, 85248, Note_on_c, 5, 79, 96
7, 85504, Note_off_c, 5, 79, 0
7, 85504, Note_on_c, 5, 78, 96
7, 85760, Note_off_c, 5, 78, 0
7, 85760, Note_on_c, 5, 76, 96
7, 86016, Note_off_c, 5, 76, 0
7, 86016, Note_on_c, 5, 74, 96
7, 86272, Note_off_c, 5, 74, 0
7, 86272, Note_on_c, 5, 72, 96
7, 86528, Note_off_c, 5, 72, 0
7, 86528, Note_on_c, 5, 71, 96
7, 86784, Note_off_c, 5, 71, 0
7, 86784, Note_on_c, 5, 72, 96
7, 86912, Note_off_c, 5, 72, 0
7, 86912, Note_on_c, 5, 74, 96
7, 87040, Note_off_c, 5, 74, 0
7, 87040, Note_on_c, 5, 69, 96
7, 87808, Note_off_c, 5, 69, 0
7, 87808, Note_on_c, 5, 67, 96
7, 88064, Note_off_c, 5, 67, 0
7, 88064, Note_on_c, 5, 67, 96
7, 89088, Note_off_c, 5, 67, 0
7, 92672, Note_on_c, 5, 69, 96
7, 93184, Note_off_c, 5, 69, 0
7, 93184, Note_on_c, 5, 74, 96
7, 93696, Note_off_c, 5, 74, 0
7, 93696, Note_on_c, 5, 76, 96
7, 94208, Note_off_c, 5, 76, 0
7, 94208, Note_on_c, 5, 78, 96
7, 94464, Note_off_c, 5, 78, 0
7, 94464, Note_on_c, 5, 76, 96
7, 94720, Note_off_c, 5, 76, 0
7, 94720, Note_on_c, 5, 74, 96
7, 94976, Note_off_c, 5, 74, 0
7, 94976, Note_on_c, 5, 76, 96
7, 95232, Note_off_c, 5, 76, 0
7, 95232, Note_on_c, 5, 78, 96
7, 95488, Note_off_c, 5, 78, 0
7, 95488, Note_on_c, 5, 79, 96
7, 95744, Note_off_c, 5, 79, 0
7, 95744, Note_on_c, 5, 78, 96
7, 96000, Note_off_c, 5, 78, 0
7, 96000, Note_on_c, 5, 79, 96
7, 96256, Note_off_c, 5, 79, 0
7, 96256, Note_on_c, 5, 81, 96
7, 96512, Note_off_c, 5, 81, 0
7, 96512, Note_on_c, 5, 86, 96
7, 96768, Note_off_c, 5, 86, 0
7, 96768, Note_on_c, 5, 85, 96
7, 97024, Note_off_c, 5, 85, 0
7, 97024, Note_on_c, 5, 83, 96
7, 97280, Note_off_c, 5, 83, 0
7, 97280, Note_on_c, 5, 81, 96
7, 97536, Note_off_c, 5, 81, 0
7, 97536, Note_on_c, 5, 79, 96
7, 97792, Note_off_c, 5, 79, 0
7, 97792, Note_on_c, 5, 78, 96
7, 98048, Note_off_c, 5, 78, 0
7, 98048, Note_on_c, 5, 79, 96
7, 98304, Note_off_c, 5, 79, 0
7, 98304, Note_on_c, 5, 78, 96
7, 98560, Note_off_c, 5, 78, 0
7, 98560, Note_on_c, 5, 83, 96
7, 98816, Note_off_c, 5, 83, 0
7, 98816, Note_on_c, 5, 81, 96
7, 99072, Note_off_c, 5, 81, 0
7, 99072, Note_on_c, 5, 79, 96
7, 99328, Note_off_c, 5, 79, 0
7, 99328, Note_on_c, 5, 78, 96
7, 99584, Note_off_c, 5, 78, 0
7, 99584, Note_on_c, 5, 76, 96
7, 99840, Note_off_c, 5, 76, 0
7, 99840, Note_on_c, 5, 74, 96
7, 100096, Note_off_c, 5, 74, 0
7, 100096, Note_on_c, 5, 76, 96
7, 100352, Note_off_c, 5, 76, 0
7, 100352, Note_on_c, 5, 74, 96
7, 100608, Note_off_c, 5, 74, 0
7, 100608, Note_on_c, 5, 79, 96
7, 100864, Note_off_c, 5, 79, 0
7, 100864, Note_on_c, 5, 78, 96
7, 101120, Note_off_c, 5, 78, 0
7, 101120, Note_on_c, 5, 76, 96
7, 101376, Note_off_c, 5, 76, 0
7, 101376, Note_on_c, 5, 74, 96
7, 101632, Note_off_c, 5, 74, 0
7, 101632, Note_on_c, 5, 72, 96
7, 101888, Note_off_c, 5, 72, 0
7, 101888, Note_on_c, 5, 71, 96
7, 102144, Note_off_c, 5, 71, 0
7, 102144, Note_on_c, 5, 72, 96
7, 102400, Note_off_c, 5, 72, 0
7, 102400, Note_on_c, 5, 71, 96
7, 102656, Note_off_c, 5, 71, 0
7, 102656, Note_on_c, 5, 74, 96
7, 102912, Note_off_c, 5, 74, 0
7, 102912, Note_on_c, 5, 73, 96
7, 103168, Note_off_c, 5, 73, 0
7, 103168, Note_on_c, 5, 76, 96
7, 103424, Note_off_c, 5, 76, 0
7, 103424, Note_on_c, 5, 74, 96
7, 103680, Note_off_c, 5, 74, 0
7, 103680, Note_on_c, 5, 79, 96
7, 103936, Note_off_c, 5, 79, 0
7, 103936, Note_on_c, 5, 78, 96
7, 104192, Note_off_c, 5, 78, 0
7, 104192, Note_on_c, 5, 76, 96
7, 104448, Note_off_c, 5, 76, 0
7, 104448, Note_on_c, 5, 78, 96
7, 104704, Note_off_c, 5, 78, 0
7, 104704, Note_on_c, 5, 76, 96
7, 104960, Note_off_c, 5, 76, 0
7, 104960, Note_on_c, 5, 74, 96
7, 105216, Note_off_c, 5, 74, 0
7, 105216, Note_on_c, 5, 76, 96
7, 105344, Note_off_c, 5, 76, 0
7, 105344, Note_on_c, 5, 78, 96
7, 105472, Note_off_c, 5, 78, 0
7, 105472, Note_on_c, 5, 73, 96
7, 106240, Note_off_c, 5, 73, 0
7, 106240, Note_on_c, 5, 74, 96
7, 106496, Note_off_c, 5, 74, 0
7, 106496, Note_on_c, 5, 74, 96
7, 106752, Note_off_c, 5, 74, 0
7, 106752, Note_on_c, 5, 79, 96
7, 107008, Note_off_c, 5, 79, 0
7, 107008, Note_on_c, 5, 78, 96
7, 107264, Note_off_c, 5, 78, 0
7, 107264, Note_on_c, 5, 76, 96
7, 107520, Note_off_c, 5, 76, 0
7, 107520, Note_on_c, 5, 74, 96
7, 107776, Note_off_c, 5, 74, 0
7, 107776, Note_on_c, 5, 72, 96
7, 108032, Note_off_c, 5, 72, 0
7, 108032, Note_on_c, 5, 71, 96
7, 108288, Note_off_c, 5, 71, 0
7, 108288, Note_on_c, 5, 72, 96
7, 108544, Note_off_c, 5, 72, 0
7, 108544, Note_on_c, 5, 71, 96
7, 108800, Note_off_c, 5, 71, 0
7, 108800, Note_on_c, 5, 76, 96
7, 109056, Note_off_c, 5, 76, 0
7, 109056, Note_on_c, 5, 74, 96
7, 109312, Note_off_c, 5, 74, 0
7, 109312, Note_on_c, 5, 72, 96
7, 109568, Note_off_c, 5, 72, 0
7, 109568, Note_on_c, 5, 71, 96
7, 109824, Note_off_c, 5, 71, 0
7, 109824, Note_on_c, 5, 69, 96
7, 110080, Note_off_c, 5, 69, 0
7, 110080, Note_on_c, 5, 67, 96
7, 110336, Note_off_c, 5, 67, 0
7, 110336, Note_on_c, 5, 69, 96
7, 110592, Note_off_c, 5, 69, 0
7, 110592, Note_on_c, 5, 67, 96
7, 110848, Note_off_c, 5, 67, 0
7, 110848, Note_on_c, 5, 72, 96
7, 111104, Note_off_c, 5, 72, 0
7, 111104, Note_on_c, 5, 71, 96
7, 111360, Note_off_c, 5, 71, 0
7, 111360, Note_on_c, 5, 69, 96
7, 111616, Note_off_c, 5, 69, 0
7, 111616, Note_on_c, 5, 67, 96
7, 111872, Note_off_c, 5, 67, 0
7, 111872, Note_on_c, 5, 65, 96
7, 112128, Note_off_c, 5, 65, 0
7, 112128, Note_on_c, 5, 64, 96
7, 112384, Note_off_c, 5, 64, 0
7, 112384, Note_on_c, 5, 65, 96
7, 112640, Note_off_c, 5, 65, 0
7, 112640, Note_on_c, 5, 64, 96
7, 112896, Note_off_c, 5, 64, 0
7, 112896, Note_on_c, 5, 67, 96
7, 113152, Note_off_c, 5, 67, 0
7, 113152, Note_on_c, 5, 66, 96
7, 113408, Note_off_c, 5, 66, 0
7, 113408, Note_on_c, 5, 67, 96
7, 113536, Note_off_c, 5, 67, 0
7, 113536, Note_on_c, 5, 69, 96
7, 113664, Note_off_c, 5, 69, 0
7, 113664, Note_on_c, 5, 66, 96
7, 114432, Note_off_c, 5, 66, 0
7, 114432, Note_on_c, 5, 67, 96
7, 114688, Note_off_c, 5, 67, 0
7, 114688, Note_on_c, 5, 67, 96
7, 115200, Note_off_c, 5, 67, 0
7, 115200, Note_on_c, 5, 62, 96
7, 115712, Note_off_c, 5, 62, 0
7, 115712, Note_on_c, 5, 67, 96
7, 116224, Note_off_c, 5, 67, 0
7, 116224, Note_on_c, 5, 69, 96
7, 116736, Note_off_c, 5, 69, 0
7, 116736, Note_on_c, 5, 71, 96
7, 116992, Note_off_c, 5, 71, 0
7, 116992, Note_on_c, 5, 69, 96
7, 117248, Note_off_c, 5, 69, 0
7, 117248, Note_on_c, 5, 67, 96
7, 117504, Note_off_c, 5, 67, 0
7, 117504, Note_on_c, 5, 69, 96
7, 117760, Note_off_c, 5, 69, 0
7, 117760, Note_on_c, 5, 71, 96
7, 118016, Note_off_c, 5, 71, 0
7, 118016, Note_on_c, 5, 72, 96
7, 118272, Note_off_c, 5, 72, 0
7, 118272, Note_on_c, 5, 71, 96
7, 118528, Note_off_c, 5, 71, 0
7, 118528, Note_on_c, 5, 72, 96
7, 118784, Note_off_c, 5, 72, 0
7, 118784, Note_on_c, 5, 74, 96
7, 119040, Note_off_c, 5, 74, 0
7, 119040, Note_on_c, 5, 79, 96
7, 119296, Note_off_c, 5, 79, 0
7, 119296, Note_on_c, 5, 78, 96
7, 119552, Note_off_c, 5, 78, 0
7, 119552, Note_on_c, 5, 76, 96
7, 119808, Note_off_c, 5, 76, 0
7, 119808, Note_on_c, 5, 74, 96
7, 120064, Note_off_c, 5, 74, 0
7, 120064, Note_on_c, 5, 72, 96
7, 120320, Note_off_c, 5, 72, 0
7, 120320, Note_on_c, 5, 71, 96
7, 120576, Note_off_c, 5, 71, 0
7, 120576, Note_on_c, 5, 72, 96
7, 120832, Note_off_c, 5, 72, 0
7, 120832, Note_on_c, 5, 71, 96
7, 121088, Note_off_c, 5, 71, 0
7, 121088, Note_on_c, 5, 76, 96
7, 121344, Note_off_c, 5, 76, 0
7, 121344, Note_on_c, 5, 74, 96
7, 121600, Note_off_c, 5, 74, 0
7, 121600, Note_on_c, 5, 72, 96
7, 121856, Note_off_c, 5, 72, 0
7, 121856, Note_on_c, 5, 71, 96
7, 122112, Note_off_c, 5, 71, 0
7, 122112, Note_on_c, 5, 69, 96
7, 122368, Note_off_c, 5, 69, 0
7, 122368, Note_on_c, 5, 67, 96
7, 122624, Note_off_c, 5, 67, 0
7, 122624, Note_on_c, 5, 69, 96
7, 122880, Note_off_c, 5, 69, 0
7, 122880, Note_on_c, 5, 67, 96
7, 123136, Note_off_c, 5, 67, 0
7, 123136, Note_on_c, 5, 72, 96
7, 123392, Note_off_c, 5, 72, 0
7, 123392, Note_on_c, 5, 71, 96
7, 123648, Note_off_c, 5, 71, 0
7, 123648, Note_on_c, 5, 69, 96
7, 123904, Note_off_c, 5, 69, 0
7, 123904, Note_on_c, 5, 67, 96
7, 124160, Note_off_c, 5, 67, 0
7, 124160, Note_on_c, 5, 65, 96
7, 124416, Note_off_c, 5, 65, 0
7, 124416, Note_on_c, 5, 64, 96
7, 124672, Note_off_c, 5, 64, 0
7, 124672, Note_on_c, 5, 65, 96
7, 124928, Note_off_c, 5, 65, 0
7, 124928, Note_on_c, 5, 64, 96
7, 125184, Note_off_c, 5, 64, 0
7, 125184, Note_on_c, 5, 67, 96
7, 125440, Note_off_c, 5, 67, 0
7, 125440, Note_on_c, 5, 66, 96
7, 125696, Note_off_c, 5, 66, 0
7, 125696, Note_on_c, 5, 69, 96
7, 125952, Note_off_c, 5, 69, 0
7, 125952, Note_on_c, 5, 67, 96
7, 126208, Note_off_c, 5, 67, 0
7, 126208, Note_on_c, 5, 79, 96
7, 126464, Note_off_c, 5, 79, 0
7, 126464, Note_on_c, 5, 78, 96
7, 126720, Note_off_c, 5, 78, 0
7, 126720, Note_on_c, 5, 76, 96
7, 126976, Note_off_c, 5, 76, 0
7, 126976, Note_on_c, 5, 74, 96
7, 127232, Note_off_c, 5, 74, 0
7, 127232, Note_on_c, 5, 72, 96
7, 127488, Note_off_c, 5, 72, 0
7, 127488, Note_on_c, 5, 71, 96
7, 127744, Note_off_c, 5, 71, 0
7, 127744, Note_on_c, 5, 72, 96
7, 127872, Note_off_c, 5, 72, 0
7, 127872, Note_on_c, 5, 74, 96
7, 128000, Note_off_c, 5, 74, 0
7, 128000, Note_on_c, 5, 69, 96
7, 128768, Note_off_c, 5, 69, 0
7, 128768, Note_on_c, 5, 67, 96
7, 129024, Note_off_c, 5, 67, 0
7, 129024, Note_on_c, 5, 67, 96
7, 131072, Note_off_c, 5, 67, 0
7, 131073, End_track
8, 0, Start_track
8, 0, Title_t, "Instrument 7"
8, 2560, Note_on_c, 6, 66, 96
8, 3072, Note_off_c, 6, 66, 0
8, 3072, Note_on_c, 6, 67, 96
8, 3584, Note_off_c, 6, 67, 0
8, 3584, Note_on_c, 6, 66, 96
8, 4096, Note_off_c, 6, 66, 0
8, 4096, Note_on_c, 6, 67, 96
8, 5632, Note_off_c, 6, 67, 0
8, 5632, Note_on_c, 6, 66, 96
8, 6656, Note_off_c, 6, 66, 0
8, 6656, Note_on_c, 6, 64, 96
8, 7680, Note_off_c, 6, 64, 0
8, 7680, Note_on_c, 6, 63, 96
8, 8192, Note_off_c, 6, 63, 0
8, 8192, Note_on_c, 6, 64, 96
8, 8704, Note_off_c, 6, 64, 0
8, 8704, Note_on_c, 6, 72, 96
8, 9728, Note_off_c, 6, 72, 0
8, 9728, Note_on_c, 6, 71, 96
8, 10752, Note_off_c, 6, 71, 0
8, 10752, Note_on_c, 6, 69, 96
8, 11264, Note_off_c, 6, 69, 0
8, 11264, Note_on_c, 6, 74, 96
8, 11776, Note_off_c, 6, 74, 0
8, 11776, Note_on_c, 6, 72, 96
8, 12288, Note_off_c, 6, 72, 0
8, 12288, Note_on_c, 6, 71, 96
8, 12800, Note_off_c, 6, 71, 0
8, 12800, Note_on_c, 6, 67, 96
8, 13312, Note_off_c, 6, 67, 0
8, 13312, Note_on_c, 6, 67, 96
8, 13824, Note_off_c, 6, 67, 0
8, 13824, Note_on_c, 6, 66, 96
8, 14336, Note_off_c, 6, 66, 0
8, 14336, Note_on_c, 6, 62, 96
8, 15360, Note_off_c, 6, 62, 0
8, 18944, Note_on_c, 6, 67, 96
8, 19456, Note_off_c, 6, 67, 0
8, 19456, Note_on_c, 6, 67, 96
8, 19968, Note_off_c, 6, 67, 0
8, 19968, Note_on_c, 6, 60, 96
8, 20480, Note_off_c, 6, 60, 0
8, 20480, Note_on_c, 6, 62, 96
8, 20736, Note_off_c, 6, 62, 0
8, 20736, Note_on_c, 6, 64, 96
8, 20992, Note_off_c, 6, 64, 0
8, 20992, Note_on_c, 6, 62, 96
8, 21248, Note_off_c, 6, 62, 0
8, 21248, Note_on_c, 6, 64, 96
8, 21504, Note_off_c, 6, 64, 0
8, 21504, Note_on_c, 6, 66, 96
8, 22016, Note_off_c, 6, 66, 0
8, 22016, Note_on_c, 6, 69, 96
8, 22528, Note_off_c, 6, 69, 0
8, 22528, Note_on_c, 6, 67, 96
8, 23040, Note_off_c, 6, 67, 0
8, 23040, Note_on_c, 6, 71, 96
8, 23552, Note_off_c, 6, 71, 0
8, 23552, Note_on_c, 6, 69, 96
8, 24064, Note_off_c, 6, 69, 0
8, 24064, Note_on_c, 6, 66, 96
8, 24576, Note_off_c, 6, 66, 0
8, 24576, Note_on_c, 6, 67, 96
8, 25088, Note_off_c, 6, 67, 0
8, 25088, Note_on_c, 6, 64, 96
8, 26112, Note_off_c, 6, 64, 0
8, 26112, Note_on_c, 6, 63, 96
8, 26624, Note_off_c, 6, 63, 0
8, 26624, Note_on_c, 6, 64, 96
8, 27136, Note_off_c, 6, 64, 0
8, 27136, Note_on_c, 6, 72, 96
8, 28160, Note_off_c, 6, 72, 0
8, 28160, Note_on_c, 6, 71, 96
8, 29184, Note_off_c, 6, 71, 0
8, 29184, Note_on_c, 6, 69, 96
8, 29696, Note_off_c, 6, 69, 0
8, 29696, Note_on_c, 6, 67, 96
8, 30208, Note_off_c, 6, 67, 0
8, 30208, Note_on_c, 6, 69, 96
8, 30720, Note_off_c, 6, 69, 0
8, 30720, Note_on_c, 6, 71, 96
8, 31232, Note_off_c, 6, 71, 0
8, 31232, Note_on_c, 6, 67, 96
8, 32256, Note_off_c, 6, 67, 0
8, 32256, Note_on_c, 6, 66, 96
8, 32768, Note_off_c, 6, 66, 0
8, 32768, Note_on_c, 6, 67, 96
8, 33792, Note_off_c, 6, 67, 0
8, 39424, Note_on_c, 6, 66, 96
8, 39936, Note_off_c, 6, 66, 0
8, 39936, Note_on_c, 6, 67, 96
8, 40448, Note_off_c, 6, 67, 0
8, 40448, Note_on_c, 6, 66, 96
8, 40960, Note_off_c, 6, 66, 0
8, 40960, Note_on_c, 6, 67, 96
8, 42496, Note_off_c, 6, 67, 0
8, 42496, Note_on_c, 6, 66, 96
8, 43520, Note_off_c, 6, 66, 0
8, 43520, Note_on_c, 6, 64, 96
8, 44544, Note_off_c, 6, 64, 0
8, 44544, Note_on_c, 6, 63, 96
8, 45056, Note_off_c, 6, 63, 0
8, 45056, Note_on_c, 6, 64, 96
8, 45568, Note_off_c, 6, 64, 0
8, 45568, Note_on_c, 6, 72, 96
8, 46592, Note_off_c, 6, 72, 0
8, 46592, Note_on_c, 6, 71, 96
8, 47616, Note_off_c, 6, 71, 0
8, 47616, Note_on_c, 6, 69, 96
8, 48128, Note_off_c, 6, 69, 0
8, 48128, Note_on_c, 6, 74, 96
8, 48640, Note_off_c, 6, 74, 0
8, 48640, Note_on_c, 6, 72, 96
8, 49152, Note_off_c, 6, 72, 0
8, 49152, Note_on_c, 6, 71, 96
8, 49664, Note_off_c, 6, 71, 0
8, 49664, Note_on_c, 6, 67, 96
8, 50176, Note_off_c, 6, 67, 0
8, 50176, Note_on_c, 6, 67, 96
8, 50688, Note_off_c, 6, 67, 0
8, 50688, Note_on_c, 6, 66, 96
8, 51200, Note_off_c, 6, 66, 0
8, 51200, Note_on_c, 6, 62, 96
8, 52224, Note_off_c, 6, 62, 0
8, 55808, Note_on_c, 6, 67, 96
8, 56320, Note_off_c, 6, 67, 0
8, 56320, Note_on_c, 6, 67, 96
8, 56832, Note_off_c, 6, 67, 0
8, 56832, Note_on_c, 6, 60, 96
8, 57344, Note_off_c, 6, 60, 0
8, 57344, Note_on_c, 6, 62, 96
8, 57600, Note_off_c, 6, 62, 0
8, 57600, Note_on_c, 6, 64, 96
8, 57856, Note_off_c, 6, 64, 0
8, 57856, Note_on_c, 6, 62, 96
8, 58112, Note_off_c, 6, 62, 0
8, 58112, Note_on_c, 6, 64, 96
8, 58368, Note_off_c, 6, 64, 0
8, 58368, Note_on_c, 6, 66, 96
8, 58880, Note_off_c, 6, 66, 0
8, 58880, Note_on_c, 6, 69, 96
8, 59392, Note_off_c, 6, 69, 0
8, 59392, Note_on_c, 6, 67, 96
8, 59904, Note_off_c, 6, 67, 0
8, 59904, Note_on_c, 6, 71, 96
8, 60416, Note_off_c, 6, 71, 0
8, 60416, Note_on_c, 6, 69, 96
8, 60928, Note_off_c, 6, 69, 0
8, 60928, Note_on_c, 6, 66, 96
8, 61440, Note_off_c, 6, 66, 0
8, 61440, Note_on_c, 6, 67, 96
8, 61952, Note_off_c, 6, 67, 0
8, 61952, Note_on_c, 6, 64, 96
8, 62976, Note_off_c, 6, 64, 0
8, 62976, Note_on_c, 6, 63, 96
8, 63488, Note_off_c, 6, 63, 0
8, 63488, Note_on_c, 6, 64, 96
8, 64000, Note_off_c, 6, 64, 0
8, 64000, Note_on_c, 6, 72, 96
8, 65024, Note_off_c, 6, 72, 0
8, 65024, Note_on_c, 6, 71, 96
8, 66048, Note_off_c, 6, 71, 0
8, 66048, Note_on_c, 6, 69, 96
8, 66560, Note_off_c, 6, 69, 0
8, 66560, Note_on_c, 6, 67, 96
8, 67072, Note_off_c, 6, 67, 0
8, 67072, Note_on_c, 6, 69, 96
8, 67584, Note_off_c, 6, 69, 0
8, 67584, Note_on_c, 6, 71, 96
8, 68096, Note_off_c, 6, 71, 0
8, 68096, Note_on_c, 6, 67, 96
8, 69120, Note_off_c, 6, 67, 0
8, 69120, Note_on_c, 6, 66, 96
8, 69632, Note_off_c, 6, 66, 0
8, 69632, Note_on_c, 6, 67, 96
8, 70656, Note_off_c, 6, 67, 0
8, 76288, Note_on_c, 6, 66, 96
8, 76800, Note_off_c, 6, 66, 0
8, 76800, Note_on_c, 6, 67, 96
8, 77312, Note_off_c, 6, 67, 0
8, 77312, Note_on_c, 6, 66, 96
8, 77824, Note_off_c, 6, 66, 0
8, 77824, Note_on_c, 6, 67, 96
8, 79360, Note_off_c, 6, 67, 0
8, 79360, Note_on_c, 6, 66, 96
8, 80384, Note_off_c, 6, 66, 0
8, 80384, Note_on_c, 6, 64, 96
8, 81408, Note_off_c, 6, 64, 0
8, 81408, Note_on_c, 6, 63, 96
8, 81920, Note_off_c, 6, 63, 0
8, 81920, Note_on_c, 6, 64, 96
8, 82432, Note_off_c, 6, 64, 0
8, 82432, Note_on_c, 6, 72, 96
8, 83456, Note_off_c, 6, 72, 0
8, 83456, Note_on_c, 6, 71, 96
8, 83968, Note_off_c, 6, 71, 0
8, 83968, Note_on_c, 6, 72, 96
8, 84480, Note_off_c, 6, 72, 0
8, 84480, Note_on_c, 6, 66, 96
8, 84992, Note_off_c, 6, 66, 0
8, 84992, Note_on_c, 6, 64, 96
8, 85504, Note_off_c, 6, 64, 0
8, 85504, Note_on_c, 6, 67, 96
8, 86016, Note_off_c, 6, 67, 0
8, 86016, Note_on_c, 6, 66, 96
8, 86528, Note_off_c, 6, 66, 0
8, 86528, Note_on_c, 6, 67, 96
8, 87040, Note_off_c, 6, 67, 0
8, 87040, Note_on_c, 6, 66, 96
8, 87552, Note_off_c, 6, 66, 0
8, 87552, Note_on_c, 6, 64, 96
8, 88064, Note_off_c, 6, 64, 0
8, 88064, Note_on_c, 6, 62, 96
8, 89088, Note_off_c, 6, 62, 0
8, 92672, Note_on_c, 6, 66, 96
8, 93184, Note_off_c, 6, 66, 0
8, 93184, Note_on_c, 6, 66, 96
8, 93696, Note_off_c, 6, 66, 0
8, 93696, Note_on_c, 6, 69, 96
8, 94720, Note_off_c, 6, 69, 0
8, 94720, Note_on_c, 6, 74, 96
8, 94976, Note_off_c, 6, 74, 0
8, 94976, Note_on_c, 6, 73, 96
8, 95232, Note_off_c, 6, 73, 0
8, 95232, Note_on_c, 6, 74, 96
8, 96768, Note_off_c, 6, 74, 0
8, 96768, Note_on_c, 6, 76, 96
8, 97024, Note_off_c, 6, 76, 0
8, 97024, Note_on_c, 6, 78, 96
8, 97280, Note_off_c, 6, 78, 0
8, 97280, Note_on_c, 6, 76, 96
8, 97792, Note_off_c, 6, 76, 0
8, 97792, Note_on_c, 6, 72, 96
8, 98304, Note_off_c, 6, 72, 0
8, 98304, Note_on_c, 6, 69, 96
8, 98816, Note_off_c, 6, 69, 0
8, 98816, Note_on_c, 6, 71, 96
8, 99840, Note_off_c, 6, 71, 0
8, 99840, Note_on_c, 6, 70, 96
8, 100352, Note_off_c, 6, 70, 0
8, 100352, Note_on_c, 6, 71, 96
8, 100864, Note_off_c, 6, 71, 0
8, 100864, Note_on_c, 6, 79, 96
8, 101888, Note_off_c, 6, 79, 0
8, 101888, Note_on_c, 6, 78, 96
8, 102912, Note_off_c, 6, 78, 0
8, 102912, Note_on_c, 6, 76, 96
8, 103424, Note_off_c, 6, 76, 0
8, 103424, Note_on_c, 6, 71, 96
8, 103936, Note_off_c, 6, 71, 0
8, 103936, Note_on_c, 6, 69, 96
8, 104448, Note_off_c, 6, 69, 0
8, 104448, Note_on_c, 6, 69, 96
8, 104960, Note_off_c, 6, 69, 0
8, 104960, Note_on_c, 6, 71, 96
8, 105472, Note_off_c, 6, 71, 0
8, 105472, Note_on_c, 6, 69, 96
8, 105984, Note_off_c, 6, 69, 0
8, 105984, Note_on_c, 6, 69, 96
8, 106496, Note_off_c, 6, 69, 0
8, 106496, Note_on_c, 6, 69, 96
8, 107008, Note_off_c, 6, 69, 0
8, 107008, Note_on_c, 6, 67, 96
8, 107520, Note_off_c, 6, 67, 0
8, 107520, Note_on_c, 6, 69, 96
8, 108032, Note_off_c, 6, 69, 0
8, 108032, Note_on_c, 6, 66, 96
8, 108544, Note_off_c, 6, 66, 0
8, 108544, Note_on_c, 6, 67, 96
8, 109056, Note_off_c, 6, 67, 0
8, 109056, Note_on_c, 6, 66, 96
8, 110080, Note_off_c, 6, 66, 0
8, 110080, Note_on_c, 6, 71, 96
8, 110592, Note_off_c, 6, 71, 0
8, 110592, Note_on_c, 6, 64, 96
8, 111104, Note_off_c, 6, 64, 0
8, 111104, Note_on_c, 6, 62, 96
8, 112128, Note_off_c, 6, 62, 0
8, 112128, Note_on_c, 6, 67, 96
8, 112640, Note_off_c, 6, 67, 0
8, 112640, Note_on_c, 6, 64, 96
8, 113152, Note_off_c, 6, 64, 0
8, 113152, Note_on_c, 6, 60, 96
8, 113664, Note_off_c, 6, 60, 0
8, 113664, Note_on_c, 6, 62, 96
8, 114176, Note_off_c, 6, 62, 0
8, 114176, Note_on_c, 6, 62, 96
8, 114688, Note_off_c, 6, 62, 0
8, 114688, Note_on_c, 6, 62, 96
8, 115712, Note_off_c, 6, 62, 0
8, 117248, Note_on_c, 6, 66, 96
8, 117760, Note_off_c, 6, 66, 0
8, 117760, Note_on_c, 6, 67, 96
8, 118272, Note_off_c, 6, 67, 0
8, 118272, Note_on_c, 6, 66, 96
8, 118784, Note_off_c, 6, 66, 0
8, 118784, Note_on_c, 6, 67, 96
8, 120320, Note_off_c, 6, 67, 0
8, 120320, Note_on_c, 6, 66, 96
8, 121344, Note_off_c, 6, 66, 0
8, 121344, Note_on_c, 6, 64, 96
8, 122368, Note_off_c, 6, 64, 0
8, 122368, Note_on_c, 6, 63, 96
8, 122880, Note_off_c, 6, 63, 0
8, 122880, Note_on_c, 6, 64, 96
8, 123392, Note_off_c, 6, 64, 0
8, 123392, Note_on_c, 6, 72, 96
8, 124416, Note_off_c, 6, 72, 0
8, 124416, Note_on_c, 6, 71, 96
8, 125440, Note_off_c, 6, 71, 0
8, 125440, Note_on_c, 6, 69, 96
8, 125952, Note_off_c, 6, 69, 0
8, 125952, Note_on_c, 6, 74, 96
8, 126464, Note_off_c, 6, 74, 0
8, 126464, Note_on_c, 6, 72, 96
8, 126976, Note_off_c, 6, 72, 0
8, 126976, Note_on_c, 6, 71, 96
8, 127488, Note_off_c, 6, 71, 0
8, 127488, Note_on_c, 6, 67, 96
8, 128000, Note_off_c, 6, 67, 0
8, 128000, Note_on_c, 6, 67, 96
8, 128512, Note_off_c, 6, 67, 0
8, 128512, Note_on_c, 6, 66, 96
8, 129024, Note_off_c, 6, 66, 0
8, 129024, Note_on_c, 6, 62, 96
8, 131072, Note_off_c, 6, 62, 0
8, 131073, End_track
9, 0, Start_track
9, 0, Title_t, "Instrument 8"
9, 2560, Note_on_c, 7, 62, 96
9, 3072, Note_off_c, 7, 62, 0
9, 3072, Note_on_c, 7, 62, 96
9, 3584, Note_off_c, 7, 62, 0
9, 3584, Note_on_c, 7, 60, 96
9, 4096, Note_off_c, 7, 60, 0
9, 4096, Note_on_c, 7, 59, 96
9, 4608, Note_off_c, 7, 59, 0
9, 4608, Note_on_c, 7, 57, 96
9, 5120, Note_off_c, 7, 57, 0
9, 5120, Note_on_c, 7, 57, 96
9, 5632, Note_off_c, 7, 57, 0
9, 5632, Note_on_c, 7, 62, 96
9, 6656, Note_off_c, 7, 62, 0
9, 6656, Note_on_c, 7, 57, 96
9, 7168, Note_off_c, 7, 57, 0
9, 7168, Note_on_c, 7, 54, 96
9, 7680, Note_off_c, 7, 54, 0
9, 7680, Note_on_c, 7, 59, 96
9, 8704, Note_off_c, 7, 59, 0
9, 8704, Note_on_c, 7, 62, 96
9, 9216, Note_off_c, 7, 62, 0
9, 9216, Note_on_c, 7, 64, 96
9, 9728, Note_off_c, 7, 64, 0
9, 9728, Note_on_c, 7, 67, 96
9, 10752, Note_off_c, 7, 67, 0
9, 10752, Note_on_c, 7, 62, 96
9, 11264, Note_off_c, 7, 62, 0
9, 11264, Note_on_c, 7, 62, 96
9, 11776, Note_off_c, 7, 62, 0
9, 11776, Note_on_c, 7, 66, 96
9, 12288, Note_off_c, 7, 66, 0
9, 12288, Note_on_c, 7, 67, 96
9, 12800, Note_off_c, 7, 67, 0
9, 12800, Note_on_c, 7, 55, 96
9, 13312, Note_off_c, 7, 55, 0
9, 13312, Note_on_c, 7, 62, 96
9, 13824, Note_off_c, 7, 62, 0
9, 13824, Note_on_c, 7, 60, 96
9, 14336, Note_off_c, 7, 60, 0
9, 14336, Note_on_c, 7, 59, 96
9, 15360, Note_off_c, 7, 59, 0
9, 18944, Note_on_c, 7, 55, 96
9, 19456, Note_off_c, 7, 55, 0
9, 19456, Note_on_c, 7, 55, 96
9, 19968, Note_off_c, 7, 55, 0
9, 19968, Note_on_c, 7, 52, 96
9, 20480, Note_off_c, 7, 52, 0
9, 20480, Note_on_c, 7, 55, 96
9, 20992, Note_off_c, 7, 55, 0
9, 20992, Note_on_c, 7, 50, 96
9, 21504, Note_off_c, 7, 50, 0
9, 21504, Note_on_c, 7, 62, 96
9, 22016, Note_off_c, 7, 62, 0
9, 22016, Note_on_c, 7, 62, 96
9, 22528, Note_off_c, 7, 62, 0
9, 22528, Note_on_c, 7, 62, 96
9, 23040, Note_off_c, 7, 62, 0
9, 23040, Note_on_c, 7, 59, 96
9, 23296, Note_off_c, 7, 59, 0
9, 23296, Note_on_c, 7, 60, 96
9, 23552, Note_off_c, 7, 60, 0
9, 23552, Note_on_c, 7, 62, 96
9, 24064, Note_off_c, 7, 62, 0
9, 24064, Note_on_c, 7, 62, 96
9, 25088, Note_off_c, 7, 62, 0
9, 25088, Note_on_c, 7, 57, 96
9, 25600, Note_off_c, 7, 57, 0
9, 25600, Note_on_c, 7, 54, 96
9, 26112, Note_off_c, 7, 54, 0
9, 26112, Note_on_c, 7, 59, 96
9, 27136, Note_off_c, 7, 59, 0
9, 27136, Note_on_c, 7, 62, 96
9, 27648, Note_off_c, 7, 62, 0
9, 27648, Note_on_c, 7, 64, 96
9, 28160, Note_off_c, 7, 64, 0
9, 28160, Note_on_c, 7, 67, 96
9, 29184, Note_off_c, 7, 67, 0
9, 29184, Note_on_c, 7, 62, 96
9, 30208, Note_off_c, 7, 62, 0
9, 30208, Note_on_c, 7, 60, 96
9, 30720, Note_off_c, 7, 60, 0
9, 30720, Note_on_c, 7, 59, 96
9, 31232, Note_off_c, 7, 59, 0
9, 31232, Note_on_c, 7, 62, 96
9, 31744, Note_off_c, 7, 62, 0
9, 31744, Note_on_c, 7, 64, 96
9, 32256, Note_off_c, 7, 64, 0
9, 32256, Note_on_c, 7, 66, 96
9, 32768, Note_off_c, 7, 66, 0
9, 32768, Note_on_c, 7, 59, 96
9, 33792, Note_off_c, 7, 59, 0
9, 39424, Note_on_c, 7, 62, 96
9, 39936, Note_off_c, 7, 62, 0
9, 39936, Note_on_c, 7, 62, 96
9, 40448, Note_off_c, 7, 62, 0
9, 40448, Note_on_c, 7, 60, 96
9, 40960, Note_off_c, 7, 60, 0
9, 40960, Note_on_c, 7, 59, 96
9, 41472, Note_off_c, 7, 59, 0
9, 41472, Note_on_c, 7, 57, 96
9, 41984, Note_off_c, 7, 57, 0
9, 41984, Note_on_c, 7, 57, 96
9, 42496, Note_off_c, 7, 57, 0
9, 42496, Note_on_c, 7, 62, 96
9, 43520, Note_off_c, 7, 62, 0
9, 43520, Note_on_c, 7, 57, 96
9, 44032, Note_off_c, 7, 57, 0
9, 44032, Note_on_c, 7, 54, 96
9, 44544, Note_off_c, 7, 54, 0
9, 44544, Note_on_c, 7, 59, 96
9, 45568, Note_off_c, 7, 59, 0
9, 45568, Note_on_c, 7, 62, 96
9, 46080, Note_off_c, 7, 62, 0
9, 46080, Note_on_c, 7, 64, 96
9, 46592, Note_off_c, 7, 64, 0
9, 46592, Note_on_c, 7, 67, 96
9, 47616, Note_off_c, 7, 67, 0
9, 47616, Note_on_c, 7, 62, 96
9, 48128, Note_off_c, 7, 62, 0
9, 48128, Note_on_c, 7, 62, 96
9, 48640, Note_off_c, 7, 62, 0
9, 48640, Note_on_c, 7, 66, 96
9, 49152, Note_off_c, 7, 66, 0
9, 49152, Note_on_c, 7, 67, 96
9, 49664, Note_off_c, 7, 67, 0
9, 49664, Note_on_c, 7, 55, 96
9, 50176, Note_off_c, 7, 55, 0
9, 50176, Note_on_c, 7, 62, 96
9, 50688, Note_off_c, 7, 62, 0
9, 50688, Note_on_c, 7, 60, 96
9, 51200, Note_off_c, 7, 60, 0
9, 51200, Note_on_c, 7, 59, 96
9, 52224, Note_off_c, 7, 59, 0
9, 55808, Note_on_c, 7, 55, 96
9, 56320, Note_off_c, 7, 55, 0
9, 56320, Note_on_c, 7, 55, 96
9, 56832, Note_off_c, 7, 55, 0
9, 56832, Note_on_c, 7, 52, 96
9, 57344, Note_off_c, 7, 52, 0
9, 57344, Note_on_c, 7, 55, 96
9, 57856, Note_off_c, 7, 55, 0
9, 57856, Note_on_c, 7, 50, 96
9, 58368, Note_off_c, 7, 50, 0
9, 58368, Note_on_c, 7, 62, 96
9, 58880, Note_off_c, 7, 62, 0
9, 58880, Note_on_c, 7, 62, 96
9, 59392, Note_off_c, 7, 62, 0
9, 59392, Note_on_c, 7, 62, 96
9, 59904, Note_off_c, 7, 62, 0
9, 59904, Note_on_c, 7, 59, 96
9, 60160, Note_off_c, 7, 59, 0
9, 60160, Note_on_c, 7, 60, 96
9, 60416, Note_off_c, 7, 60, 0
9, 60416, Note_on_c, 7, 62, 96
9, 60928, Note_off_c, 7, 62, 0
9, 60928, Note_on_c, 7, 62, 96
9, 61952, Note_off_c, 7, 62, 0
9, 61952, Note_on_c, 7, 57, 96
9, 62464, Note_off_c, 7, 57, 0
9, 62464, Note_on_c, 7, 54, 96
9, 62976, Note_off_c, 7, 54, 0
9, 62976, Note_on_c, 7, 59, 96
9, 64000, Note_off_c, 7, 59, 0
9, 64000, Note_on_c, 7, 62, 96
9, 64512, Note_off_c, 7, 62, 0
9, 64512, Note_on_c, 7, 64, 96
9, 65024, Note_off_c, 7, 64, 0
9, 65024, Note_on_c, 7, 67, 96
9, 66048, Note_off_c, 7, 67, 0
9, 66048, Note_on_c, 7, 62, 96
9, 67072, Note_off_c, 7, 62, 0
9, 67072, Note_on_c, 7, 60, 96
9, 67584, Note_off_c, 7, 60, 0
9, 67584, Note_on_c, 7, 59, 96
9, 68096, Note_off_c, 7, 59, 0
9, 68096, Note_on_c, 7, 62, 96
9, 68608, Note_off_c, 7, 62, 0
9, 68608, Note_on_c, 7, 64, 96
9, 69120, Note_off_c, 7, 64, 0
9, 69120, Note_on_c, 7, 66, 96
9, 69632, Note_off_c, 7, 66, 0
9, 69632, Note_on_c, 7, 59, 96
9, 70656, Note_off_c, 7, 59, 0
9, 76288, Note_on_c, 7, 62, 96
9, 76800, Note_off_c, 7, 62, 0
9, 76800, Note_on_c, 7, 62, 96
9, 77312, Note_off_c, 7, 62, 0
9, 77312, Note_on_c, 7, 60, 96
9, 77824, Note_off_c, 7, 60, 0
9, 77824, Note_on_c, 7, 59, 96
9, 78336, Note_off_c, 7, 59, 0
9, 78336, Note_on_c, 7, 57, 96
9, 78848, Note_off_c, 7, 57, 0
9, 78848, Note_on_c, 7, 57, 96
9, 79360, Note_off_c, 7, 57, 0
9, 79360, Note_on_c, 7, 62, 96
9, 80384, Note_off_c, 7, 62, 0
9, 80384, Note_on_c, 7, 57, 96
9, 80896, Note_off_c, 7, 57, 0
9, 80896, Note_on_c, 7, 54, 96
9, 81408, Note_off_c, 7, 54, 0
9, 81408, Note_on_c, 7, 59, 96
9, 82432, Note_off_c, 7, 59, 0
9, 82432, Note_on_c, 7, 62, 96
9, 83456, Note_off_c, 7, 62, 0
9, 83456, Note_on_c, 7, 67, 96
9, 83968, Note_off_c, 7, 67, 0
9, 83968, Note_on_c, 7, 67, 96
9, 84480, Note_off_c, 7, 67, 0
9, 84480, Note_on_c, 7, 60, 96
9, 84992, Note_off_c, 7, 60, 0
9, 84992, Note_on_c, 7, 59, 96
9, 85504, Note_off_c, 7, 59, 0
9, 85504, Note_on_c, 7, 57, 96
9, 86016, Note_off_c, 7, 57, 0
9, 86016, Note_on_c, 7, 57, 96
9, 86528, Note_off_c, 7, 57, 0
9, 86528, Note_on_c, 7, 62, 96
9, 86784, Note_off_c, 7, 62, 0
9, 86784, Note_on_c, 7, 60, 96
9, 87040, Note_off_c, 7, 60, 0
9, 87040, Note_on_c, 7, 62, 96
9, 87552, Note_off_c, 7, 62, 0
9, 87552, Note_on_c, 7, 57, 96
9, 88064, Note_off_c, 7, 57, 0
9, 88064, Note_on_c, 7, 59, 96
9, 89088, Note_off_c, 7, 59, 0
9, 92672, Note_on_c, 7, 62, 96
9, 93184, Note_off_c, 7, 62, 0
9, 93184, Note_on_c, 7, 62, 96
9, 93696, Note_off_c, 7, 62, 0
9, 93696, Note_on_c, 7, 57, 96
9, 94464, Note_off_c, 7, 57, 0
9, 94464, Note_on_c, 7, 64, 96
9, 94720, Note_off_c, 7, 64, 0
9, 94720, Note_on_c, 7, 66, 96
9, 94976, Note_off_c, 7, 66, 0
9, 94976, Note_on_c, 7, 67, 96
9, 95232, Note_off_c, 7, 67, 0
9, 95232, Note_on_c, 7, 69, 96
9, 95744, Note_off_c, 7, 69, 0
9, 95744, Note_on_c, 7, 66, 96
9, 96256, Note_off_c, 7, 66, 0
9, 96256, Note_on_c, 7, 64, 96
9, 96768, Note_off_c, 7, 64, 0
9, 96768, Note_on_c, 7, 62, 96
9, 97280, Note_off_c, 7, 62, 0
9, 97280, Note_on_c, 7, 61, 96
9, 97792, Note_off_c, 7, 61, 0
9, 97792, Note_on_c, 7, 64, 96
9, 98304, Note_off_c, 7, 64, 0
9, 98304, Note_on_c, 7, 62, 96
9, 98816, Note_off_c, 7, 62, 0
9, 98816, Note_on_c, 7, 67, 96
9, 99328, Note_off_c, 7, 67, 0
9, 99328, Note_on_c, 7, 61, 96
9, 99840, Note_off_c, 7, 61, 0
9, 99840, Note_on_c, 7, 66, 96
9, 100864, Note_off_c, 7, 66, 0
9, 100864, Note_on_c, 7, 57, 96
9, 101376, Note_off_c, 7, 57, 0
9, 101376, Note_on_c, 7, 59, 96
9, 101888, Note_off_c, 7, 59, 0
9, 101888, Note_on_c, 7, 62, 96
9, 102400, Note_off_c, 7, 62, 0
9, 102400, Note_on_c, 7, 62, 96
9, 102912, Note_off_c, 7, 62, 0
9, 102912, Note_on_c, 7, 67, 96
9, 103424, Note_off_c, 7, 67, 0
9, 103424, Note_on_c, 7, 66, 96
9, 103936, Note_off_c, 7, 66, 0
9, 103936, Note_on_c, 7, 69, 96
9, 104448, Note_off_c, 7, 69, 0
9, 104448, Note_on_c, 7, 62, 96
9, 104960, Note_off_c, 7, 62, 0
9, 104960, Note_on_c, 7, 66, 96
9, 105472, Note_off_c, 7, 66, 0
9, 105472, Note_on_c, 7, 64, 96
9, 105984, Note_off_c, 7, 64, 0
9, 105984, Note_on_c, 7, 64, 96
9, 106496, Note_off_c, 7, 64, 0
9, 106496, Note_on_c, 7, 66, 96
9, 107520, Note_off_c, 7, 66, 0
9, 107520, Note_on_c, 7, 66, 96
9, 108544, Note_off_c, 7, 66, 0
9, 108544, Note_on_c, 7, 59, 96
9, 109056, Note_off_c, 7, 59, 0
9, 109056, Note_on_c, 7, 60, 96
9, 109568, Note_off_c, 7, 60, 0
9, 109568, Note_on_c, 7, 62, 96
9, 110592, Note_off_c, 7, 62, 0
9, 110592, Note_on_c, 7, 55, 96
9, 111104, Note_off_c, 7, 55, 0
9, 111104, Note_on_c, 7, 57, 96
9, 111616, Note_off_c, 7, 57, 0
9, 111616, Note_on_c, 7, 59, 96
9, 112640, Note_off_c, 7, 59, 0
9, 112640, Note_on_c, 7, 60, 96
9, 113408, Note_off_c, 7, 60, 0
9, 113408, Note_on_c, 7, 59, 96
9, 113664, Note_off_c, 7, 59, 0
9, 113664, Note_on_c, 7, 57, 96
9, 114688, Note_off_c, 7, 57, 0
9, 114688, Note_on_c, 7, 59, 96
9, 115712, Note_off_c, 7, 59, 0
9, 117248, Note_on_c, 7, 62, 96
9, 117760, Note_off_c, 7, 62, 0
9, 117760, Note_on_c, 7, 62, 96
9, 118272, Note_off_c, 7, 62, 0
9, 118272, Note_on_c, 7, 60, 96
9, 118784, Note_off_c, 7, 60, 0
9, 118784, Note_on_c, 7, 59, 96
9, 119296, Note_off_c, 7, 59, 0
9, 119296, Note_on_c, 7, 57, 96
9, 119808, Note_off_c, 7, 57, 0
9, 119808, Note_on_c, 7, 57, 96
9, 120320, Note_off_c, 7, 57, 0
9, 120320, Note_on_c, 7, 62, 96
9, 121344, Note_off_c, 7, 62, 0
9, 121344, Note_on_c, 7, 57, 96
9, 121856, Note_off_c, 7, 57, 0
9, 121856, Note_on_c, 7, 54, 96
9, 122368, Note_off_c, 7, 54, 0
9, 122368, Note_on_c, 7, 59, 96
9, 123392, Note_off_c, 7, 59, 0
9, 123392, Note_on_c, 7, 62, 96
9, 123904, Note_off_c, 7, 62, 0
9, 123904, Note_on_c, 7, 64, 96
9, 124416, Note_off_c, 7, 64, 0
9, 124416, Note_on_c, 7, 67, 96
9, 125440, Note_off_c, 7, 67, 0
9, 125440, Note_on_c, 7, 62, 96
9, 125952, Note_off_c, 7, 62, 0
9, 125952, Note_on_c, 7, 62, 96
9, 126464, Note_off_c, 7, 62, 0
9, 126464, Note_on_c, 7, 66, 96
9, 126976, Note_off_c, 7, 66, 0
9, 126976, Note_on_c, 7, 67, 96
9, 127488, Note_off_c, 7, 67, 0
9, 127488, Note_on_c, 7, 55, 96
9, 128000, Note_off_c, 7, 55, 0
9, 128000, Note_on_c, 7, 62, 96
9, 128512, Note_off_c, 7, 62, 0
9, 128512, Note_on_c, 7, 60, 96
9, 129024, Note_off_c, 7, 60, 0
9, 129024, Note_on_c, 7, 59, 96
9, 131072, Note_off_c, 7, 59, 0
9, 131073, End_track
0, 0, End_of_file
