0, 0, Header, 1, 5, 1024
1, 0, Start_track
1, 0, Time_signature, 1, 2, 24, 8
1, 0, Key_signature, -2, "major"
1, 0, Tempo, 625000
1, 0, Title_t, "Bach's B minor Mass: 22. Agnus Dei"
1, 0, Text_t, "seq. by David Siu   dss@po.cwru.edu"
1, 1024, Time_signature, 4, 2, 24, 8
1, 1024, Tempo, 1333333
1, 9248, Tempo, 1333333
1, 9404, Tempo, 1363636
1, 9560, Tempo, 1395348
1, 9716, Tempo, 1428571
1, 9872, Tempo, 1463414
1, 10028, Tempo, 1500000
1, 10106, Tempo, 1538461
1, 10816, Tempo, 1333333
1, 14688, Tempo, 1333333
1, 14844, Tempo, 1363636
1, 15000, Tempo, 1395348
1, 15156, Tempo, 1428571
1, 15312, Tempo, 1463414
1, 15392, Tempo, 1500000
1, 16416, Tempo, 1428571
1, 16572, Tempo, 1463414
1, 16728, Tempo, 1500000
1, 16884, Tempo, 1538461
1, 16962, Tempo, 1578947
1, 17118, Tempo, 1621621
1, 17274, Tempo, 1666666
1, 17472, Tempo, 1333333
1, 25536, Tempo, 1333333
1, 25770, Tempo, 1363636
1, 25926, Tempo, 1395348
1, 26082, Tempo, 1428571
1, 26238, Tempo, 1463414
1, 27264, Tempo, 1428571
1, 27810, Tempo, 1395348
1, 28278, Tempo, 1363636
1, 28746, Tempo, 1333333
1, 29214, Tempo, 1304347
1, 31296, Tempo, 1276595
1, 31374, Tempo, 1304347
1, 31452, Tempo, 1333333
1, 31530, Tempo, 1363636
1, 31608, Tempo, 1395348
1, 31686, Tempo, 1463414
1, 31744, Tempo, 1500000
1, 32056, Tempo, 1538461
1, 32368, Tempo, 1578947
1, 32680, Tempo, 1621621
1, 32914, Tempo, 1666666
1, 33226, Tempo, 1714285
1, 33248, Tempo, 1666666
1, 33326, Tempo, 1714285
1, 33404, Tempo, 1764705
1, 33482, Tempo, 1875000
1, 33560, Tempo, 1935483
1, 33638, Tempo, 2000000
1, 33792, Tempo, 1428571
1, 38304, Tempo, 1428571
1, 38460, Tempo, 1463414
1, 38538, Tempo, 1500000
1, 38616, Tempo, 1538461
1, 38694, Tempo, 1578947
1, 38772, Tempo, 1621621
1, 38928, Tempo, 1666666
1, 39456, Tempo, 1428571
1, 42560, Tempo, 1428571
1, 42716, Tempo, 1463414
1, 42794, Tempo, 1500000
1, 42872, Tempo, 1538461
1, 42950, Tempo, 1578947
1, 43028, Tempo, 1621621
1, 43520, Tempo, 1428571
1, 45888, Tempo, 1395348
1, 46044, Tempo, 1428571
1, 46122, Tempo, 1463414
1, 46278, Tempo, 1500000
1, 46356, Tempo, 1538461
1, 46434, Tempo, 1578947
1, 46590, Tempo, 1621621
1, 47104, Tempo, 1395348
1, 58208, Tempo, 1500000
1, 58520, Tempo, 1538461
1, 58754, Tempo, 1578947
1, 59066, Tempo, 1621621
1, 60032, Tempo, 1395348
1, 63968, Tempo, 1428571
1, 64358, Tempo, 1463414
1, 64748, Tempo, 1500000
1, 65138, Tempo, 1538461
1, 65450, Tempo, 1578947
1, 65840, Tempo, 1621621
1, 66230, Tempo, 1666666
1, 66688, Tempo, 1395348
1, 71648, Tempo, 1428571
1, 71882, Tempo, 1463414
1, 72038, Tempo, 1500000
1, 72194, Tempo, 1538461
1, 72428, Tempo, 1578947
1, 72584, Tempo, 1621621
1, 73312, Tempo, 1395348
1, 78912, Tempo, 1395348
1, 79224, Tempo, 1428571
1, 79458, Tempo, 1463414
1, 79692, Tempo, 1500000
1, 79926, Tempo, 1538461
1, 80160, Tempo, 1578947
1, 80394, Tempo, 1621621
1, 80628, Tempo, 1666666
1, 80896, Tempo, 1395348
1, 88928, Tempo, 1428571
1, 89037, Tempo, 1395348
1, 89271, Tempo, 1428571
1, 89505, Tempo, 1463414
1, 89739, Tempo, 1500000
1, 89973, Tempo, 1538461
1, 90207, Tempo, 1578947
1, 90441, Tempo, 1621621
1, 90675, Tempo, 1666666
1, 90878, Tempo, 2000000
1, 91168, Tempo, 1395348
1, 99136, Tempo, 1395348
1, 99373, Tempo, 1395348
1, 99529, Tempo, 1428571
1, 99685, Tempo, 1463414
1, 99841, Tempo, 1500000
1, 99997, Tempo, 1538461
1, 100153, Tempo, 1578947
1, 100231, Tempo, 1621621
1, 100992, Tempo, 1428571
1, 105472, Tempo, 1333333
1, 105706, Tempo, 1363636
1, 105862, Tempo, 1395348
1, 106096, Tempo, 1428571
1, 106252, Tempo, 1463414
1, 106408, Tempo, 1500000
1, 106642, Tempo, 1538461
1, 106798, Tempo, 1578947
1, 106954, Tempo, 1621621
1, 107188, Tempo, 1666666
1, 107264, Tempo, 2142857
1, 107520, Tempo, 1428571
1, 112096, Tempo, 1395348
1, 112252, Tempo, 1428571
1, 112330, Tempo, 1463414
1, 112486, Tempo, 1500000
1, 112564, Tempo, 1538461
1, 112720, Tempo, 1578947
1, 112798, Tempo, 1621621
1, 113216, Tempo, 1428571
1, 120448, Tempo, 1428571
1, 120838, Tempo, 1463414
1, 121228, Tempo, 1500000
1, 121540, Tempo, 1538461
1, 123936, Tempo, 1500000
1, 132096, Tempo, 1428571
1, 132642, Tempo, 1463414
1, 133188, Tempo, 1500000
1, 133656, Tempo, 1538461
1, 134112, Tempo, 1578947
1, 134580, Tempo, 1621621
1, 134970, Tempo, 1666666
1, 135360, Tempo, 1714285
1, 135828, Tempo, 1764705
1, 136176, Tempo, 2068965
1, 136704, Tempo, 2857142
1, 136720, Tempo, 5000000
1, 137296, Tempo, 2307692
1, 137792, Tempo, 1428571
1, 144368, Tempo, 1428571
1, 144680, Tempo, 1463414
1, 144914, Tempo, 1500000
1, 145148, Tempo, 1538461
1, 146448, Tempo, 1500000
1, 150512, Tempo, 1500000
1, 151292, Tempo, 1463414
1, 151994, Tempo, 1428571
1, 165200, Tempo, 1428571
1, 166136, Tempo, 1463414
1, 166994, Tempo, 1500000
1, 167852, Tempo, 1538461
1, 168944, Tempo, 1428571
1, 170992, Tempo, 1428571
1, 171304, Tempo, 1463414
1, 171616, Tempo, 1500000
1, 171928, Tempo, 1538461
1, 172162, Tempo, 1578947
1, 172474, Tempo, 1621621
1, 172784, Tempo, 2142857
1, 173040, Tempo, 1428571
1, 178679, Tempo, 1395348
1, 178757, Tempo, 1428571
1, 178835, Tempo, 1463414
1, 178913, Tempo, 1500000
1, 178991, Tempo, 1538461
1, 179069, Tempo, 1621621
1, 179147, Tempo, 1666666
1, 179216, Tempo, 1666666
1, 179472, Tempo, 1395348
1, 179628, Tempo, 1428571
1, 179784, Tempo, 1463414
1, 179940, Tempo, 1500000
1, 180018, Tempo, 1538461
1, 180174, Tempo, 1578947
1, 180215, Tempo, 1500000
1, 180293, Tempo, 1538461
1, 180371, Tempo, 1578947
1, 180449, Tempo, 1621621
1, 180527, Tempo, 1666666
1, 180605, Tempo, 1714285
1, 180683, Tempo, 1764705
1, 180761, Tempo, 1818181
1, 180839, Tempo, 1935483
1, 180917, Tempo, 2000000
1, 180995, Tempo, 2068965
1, 181047, Tempo, 3529411
1, 181264, Tempo, 2142857
1, 181328, Tempo, 2142857
1, 181484, Tempo, 2068965
1, 181527, Tempo, 1578947
1, 181917, Tempo, 1538461
1, 182264, Tempo, 1538461
1, 195536, Tempo, 1500000
1, 195614, Tempo, 1538461
1, 195692, Tempo, 1578947
1, 195770, Tempo, 1621621
1, 195848, Tempo, 1666666
1, 195926, Tempo, 1714285
1, 196004, Tempo, 1764705
1, 196624, Tempo, 1818181
1, 196780, Tempo, 1875000
1, 196858, Tempo, 1935483
1, 196936, Tempo, 2000000
1, 197014, Tempo, 2068965
1, 197092, Tempo, 2142857
1, 197170, Tempo, 2222222
1, 197248, Tempo, 2307692
1, 197326, Tempo, 2400000
1, 197404, Tempo, 2500000
1, 197482, Tempo, 2608695
1, 197520, Tempo, 4285714
1, 197584, Tempo, 4285714
1, 199099, Tempo, 1395348
1, 201728, End_track
2, 0, Start_track
2, 0, Title_t, "Violins"
2, 0, Program_c, 0, 49
2, 0, Control_c, 0, 121, 127
2, 0, Control_c, 0, 91, 80
2, 0, Control_c, 0, 1, 15
2, 0, Control_c, 0, 10, 30
2, 0, Control_c, 0, 11, 100
2, 2560, Note_on_c, 0, 62, 39
2, 3072, Note_on_c, 0, 62, 0
2, 3072, Note_on_c, 0, 70, 39
2, 3328, Note_on_c, 0, 70, 0
2, 3328, Note_on_c, 0, 67, 40
2, 3584, Note_on_c, 0, 67, 0
2, 3584, Note_on_c, 0, 60, 40
2, 4506, Note_on_c, 0, 60, 0
2, 4608, Note_on_c, 0, 67, 41
2, 4864, Note_on_c, 0, 67, 0
2, 4864, Note_on_c, 0, 70, 42
2, 5120, Note_on_c, 0, 70, 0
2, 5120, Note_on_c, 0, 69, 42
2, 5376, Note_on_c, 0, 69, 0
2, 5376, Note_on_c, 0, 66, 42
2, 5632, Note_on_c, 0, 66, 0
2, 5632, Note_on_c, 0, 72, 43
2, 6554, Note_on_c, 0, 72, 0
2, 6656, Note_on_c, 0, 70, 44
2, 6912, Note_on_c, 0, 70, 0
2, 6912, Note_on_c, 0, 69, 43
2, 7168, Note_on_c, 0, 69, 0
2, 7168, Note_on_c, 0, 70, 42
2, 7424, Note_on_c, 0, 70, 0
2, 7424, Note_on_c, 0, 67, 42
2, 7680, Note_on_c, 0, 67, 0
2, 7680, Note_on_c, 0, 68, 41
2, 8602, Note_on_c, 0, 68, 0
2, 8704, Note_on_c, 0, 67, 39
2, 9216, Note_on_c, 0, 67, 0
2, 9216, Note_on_c, 0, 66, 37
2, 9728, Note_on_c, 0, 66, 0
2, 9728, Note_on_c, 0, 64, 36
2, 10240, Note_on_c, 0, 64, 0
2, 10240, Note_on_c, 0, 62, 35
2, 10624, Note_on_c, 0, 62, 0
2, 10752, Note_on_c, 0, 69, 42
2, 11264, Note_on_c, 0, 69, 0
2, 11264, Note_on_c, 0, 70, 38
2, 11648, Note_on_c, 0, 70, 0
2, 11776, Note_on_c, 0, 66, 42
2, 12288, Note_on_c, 0, 66, 0
2, 12288, Note_on_c, 0, 67, 37
2, 12672, Note_on_c, 0, 67, 0
2, 12800, Note_on_c, 0, 62, 47
2, 13312, Note_on_c, 0, 62, 0
2, 13312, Note_on_c, 0, 61, 40
2, 13696, Note_on_c, 0, 61, 0
2, 13824, Note_on_c, 0, 70, 45
2, 14336, Note_on_c, 0, 70, 0
2, 14336, Note_on_c, 0, 69, 41
2, 14720, Note_on_c, 0, 69, 0
2, 14848, Note_on_c, 0, 73, 50
2, 15360, Note_on_c, 0, 73, 0
2, 15360, Note_on_c, 0, 74, 46
2, 15744, Note_on_c, 0, 74, 0
2, 15872, Note_on_c, 0, 69, 41
2, 16384, Note_on_c, 0, 69, 0
2, 16384, Note_on_c, 0, 67, 39
2, 16512, Note_on_c, 0, 67, 0
2, 16512, Note_on_c, 0, 65, 38
2, 16640, Note_on_c, 0, 65, 0
2, 16640, Note_on_c, 0, 67, 37
2, 16704, Note_on_c, 0, 67, 0
2, 16704, Note_on_c, 0, 65, 37
2, 16768, Note_on_c, 0, 65, 0
2, 16768, Note_on_c, 0, 67, 37
2, 16832, Note_on_c, 0, 67, 0
2, 16832, Note_on_c, 0, 65, 36
2, 16896, Note_on_c, 0, 65, 0
2, 16896, Note_on_c, 0, 64, 36
2, 17152, Note_on_c, 0, 64, 0
2, 17152, Note_on_c, 0, 62, 35
2, 17408, Note_on_c, 0, 62, 0
2, 17408, Note_on_c, 0, 62, 33
2, 18330, Note_on_c, 0, 62, 0
2, 18944, Note_on_c, 0, 72, 37
2, 19456, Note_on_c, 0, 72, 0
2, 19456, Note_on_c, 0, 71, 38
2, 19712, Note_on_c, 0, 71, 0
2, 19712, Note_on_c, 0, 74, 38
2, 19968, Note_on_c, 0, 74, 0
2, 19968, Note_on_c, 0, 77, 38
2, 20890, Note_on_c, 0, 77, 0
2, 20992, Note_on_c, 0, 75, 40
2, 21248, Note_on_c, 0, 75, 0
2, 21248, Note_on_c, 0, 74, 41
2, 21504, Note_on_c, 0, 74, 0
2, 21504, Note_on_c, 0, 75, 41
2, 21760, Note_on_c, 0, 75, 0
2, 21760, Note_on_c, 0, 72, 42
2, 22016, Note_on_c, 0, 72, 0
2, 22016, Note_on_c, 0, 69, 42
2, 22938, Note_on_c, 0, 69, 0
2, 23040, Note_on_c, 0, 67, 44
2, 23552, Note_on_c, 0, 67, 0
2, 23552, Note_on_c, 0, 66, 45
2, 23808, Note_on_c, 0, 66, 0
2, 23808, Note_on_c, 0, 69, 45
2, 24064, Note_on_c, 0, 69, 0
2, 24064, Note_on_c, 0, 72, 44
2, 24986, Note_on_c, 0, 72, 0
2, 25088, Note_on_c, 0, 70, 41
2, 25344, Note_on_c, 0, 70, 0
2, 25344, Note_on_c, 0, 69, 41
2, 25600, Note_on_c, 0, 69, 0
2, 25600, Note_on_c, 0, 70, 40
2, 25856, Note_on_c, 0, 70, 0
2, 25856, Note_on_c, 0, 67, 39
2, 26112, Note_on_c, 0, 67, 0
2, 26112, Note_on_c, 0, 61, 39
2, 27034, Note_on_c, 0, 61, 0
2, 27136, Note_on_c, 0, 62, 36
2, 27648, Note_on_c, 0, 62, 0
2, 27648, Note_on_c, 0, 64, 37
2, 27904, Note_on_c, 0, 64, 0
2, 27904, Note_on_c, 0, 67, 39
2, 28160, Note_on_c, 0, 67, 0
2, 28160, Note_on_c, 0, 70, 40
2, 29082, Note_on_c, 0, 70, 0
2, 29184, Note_on_c, 0, 69, 46
2, 29440, Note_on_c, 0, 69, 0
2, 29440, Note_on_c, 0, 67, 48
2, 29696, Note_on_c, 0, 67, 0
2, 29696, Note_on_c, 0, 66, 50
2, 29952, Note_on_c, 0, 66, 0
2, 29952, Note_on_c, 0, 69, 53
2, 30208, Note_on_c, 0, 69, 0
2, 30208, Note_on_c, 0, 75, 57
2, 31130, Note_on_c, 0, 75, 0
2, 31232, Note_on_c, 0, 74, 48
2, 31488, Note_on_c, 0, 74, 0
2, 31488, Note_on_c, 0, 72, 47
2, 31744, Note_on_c, 0, 72, 0
2, 31744, Note_on_c, 0, 70, 46
2, 32256, Note_on_c, 0, 70, 0
2, 32256, Note_on_c, 0, 69, 43
2, 32512, Note_on_c, 0, 69, 0
2, 32512, Note_on_c, 0, 67, 42
2, 32768, Note_on_c, 0, 67, 0
2, 32768, Note_on_c, 0, 62, 40
2, 33280, Note_on_c, 0, 62, 0
2, 33280, Note_on_c, 0, 66, 38
2, 33792, Note_on_c, 0, 66, 0
2, 33792, Note_on_c, 0, 67, 35
2, 34714, Note_on_c, 0, 67, 0
2, 35840, Note_on_c, 0, 67, 35
2, 36352, Note_on_c, 0, 67, 0
2, 36352, Note_on_c, 0, 65, 35
2, 36736, Note_on_c, 0, 65, 0
2, 36864, Note_on_c, 0, 62, 35
2, 37376, Note_on_c, 0, 62, 0
2, 37376, Note_on_c, 0, 63, 35
2, 37760, Note_on_c, 0, 63, 0
2, 37888, Note_on_c, 0, 63, 35
2, 40448, Note_on_c, 0, 63, 0
2, 40448, Note_on_c, 0, 62, 35
2, 40832, Note_on_c, 0, 62, 0
2, 40960, Note_on_c, 0, 59, 35
2, 41472, Note_on_c, 0, 59, 0
2, 41472, Note_on_c, 0, 60, 35
2, 41856, Note_on_c, 0, 60, 0
2, 41984, Note_on_c, 0, 60, 36
2, 44544, Note_on_c, 0, 60, 0
2, 44544, Note_on_c, 0, 58, 36
2, 44928, Note_on_c, 0, 58, 0
2, 45056, Note_on_c, 0, 55, 36
2, 45568, Note_on_c, 0, 55, 0
2, 45568, Note_on_c, 0, 57, 36
2, 45952, Note_on_c, 0, 57, 0
2, 46080, Note_on_c, 0, 57, 35
2, 47002, Note_on_c, 0, 57, 0
2, 47616, Note_on_c, 0, 72, 41
2, 48128, Note_on_c, 0, 72, 0
2, 48128, Note_on_c, 0, 70, 43
2, 48640, Note_on_c, 0, 70, 0
2, 48640, Note_on_c, 0, 67, 43
2, 49024, Note_on_c, 0, 67, 0
2, 49152, Note_on_c, 0, 66, 41
2, 49664, Note_on_c, 0, 66, 0
2, 49664, Note_on_c, 0, 67, 39
2, 50048, Note_on_c, 0, 67, 0
2, 50176, Note_on_c, 0, 66, 37
2, 51098, Note_on_c, 0, 66, 0
2, 53248, Note_on_c, 0, 70, 43
2, 53504, Note_on_c, 0, 70, 0
2, 53504, Note_on_c, 0, 67, 44
2, 53760, Note_on_c, 0, 67, 0
2, 53760, Note_on_c, 0, 60, 44
2, 54272, Note_on_c, 0, 60, 0
2, 55296, Note_on_c, 0, 69, 46
2, 55552, Note_on_c, 0, 69, 0
2, 55552, Note_on_c, 0, 66, 46
2, 55808, Note_on_c, 0, 66, 0
2, 55808, Note_on_c, 0, 72, 45
2, 56192, Note_on_c, 0, 72, 0
2, 57344, Note_on_c, 0, 63, 41
2, 57600, Note_on_c, 0, 63, 0
2, 57600, Note_on_c, 0, 60, 40
2, 57856, Note_on_c, 0, 60, 0
2, 57856, Note_on_c, 0, 57, 39
2, 58240, Note_on_c, 0, 57, 0
2, 61952, Note_on_c, 0, 62, 45
2, 62464, Note_on_c, 0, 62, 0
2, 62464, Note_on_c, 0, 61, 38
2, 62848, Note_on_c, 0, 61, 0
2, 62976, Note_on_c, 0, 70, 47
2, 63488, Note_on_c, 0, 70, 0
2, 63488, Note_on_c, 0, 69, 39
2, 63872, Note_on_c, 0, 69, 0
2, 64000, Note_on_c, 0, 73, 45
2, 64512, Note_on_c, 0, 73, 0
2, 64512, Note_on_c, 0, 74, 38
2, 64896, Note_on_c, 0, 74, 0
2, 68096, Note_on_c, 0, 69, 55
2, 68608, Note_on_c, 0, 69, 0
2, 68608, Note_on_c, 0, 77, 56
2, 68864, Note_on_c, 0, 77, 0
2, 68864, Note_on_c, 0, 74, 57
2, 69120, Note_on_c, 0, 74, 0
2, 69120, Note_on_c, 0, 67, 58
2, 70042, Note_on_c, 0, 67, 0
2, 70144, Note_on_c, 0, 74, 61
2, 70400, Note_on_c, 0, 74, 0
2, 70400, Note_on_c, 0, 77, 61
2, 70656, Note_on_c, 0, 77, 0
2, 70656, Note_on_c, 0, 76, 62
2, 70912, Note_on_c, 0, 76, 0
2, 70912, Note_on_c, 0, 73, 63
2, 71168, Note_on_c, 0, 73, 0
2, 71168, Note_on_c, 0, 79, 63
2, 72090, Note_on_c, 0, 79, 0
2, 72192, Note_on_c, 0, 77, 60
2, 72448, Note_on_c, 0, 77, 0
2, 72448, Note_on_c, 0, 76, 59
2, 72704, Note_on_c, 0, 76, 0
2, 72704, Note_on_c, 0, 77, 58
2, 72960, Note_on_c, 0, 77, 0
2, 72960, Note_on_c, 0, 74, 57
2, 73216, Note_on_c, 0, 74, 0
2, 73216, Note_on_c, 0, 75, 56
2, 74138, Note_on_c, 0, 75, 0
2, 74240, Note_on_c, 0, 74, 49
2, 74752, Note_on_c, 0, 74, 0
2, 74752, Note_on_c, 0, 73, 44
2, 75264, Note_on_c, 0, 73, 0
2, 75264, Note_on_c, 0, 71, 45
2, 75776, Note_on_c, 0, 71, 0
2, 75776, Note_on_c, 0, 69, 46
2, 76160, Note_on_c, 0, 69, 0
2, 77312, Note_on_c, 0, 67, 48
2, 77824, Note_on_c, 0, 67, 0
2, 77824, Note_on_c, 0, 66, 49
2, 78208, Note_on_c, 0, 66, 0
2, 78336, Note_on_c, 0, 72, 50
2, 78848, Note_on_c, 0, 72, 0
2, 78848, Note_on_c, 0, 70, 51
2, 79232, Note_on_c, 0, 70, 0
2, 79360, Note_on_c, 0, 69, 51
2, 79872, Note_on_c, 0, 69, 0
2, 79872, Note_on_c, 0, 67, 49
2, 80256, Note_on_c, 0, 67, 0
2, 80384, Note_on_c, 0, 62, 48
2, 80896, Note_on_c, 0, 62, 0
2, 80896, Note_on_c, 0, 61, 46
2, 81152, Note_on_c, 0, 61, 0
2, 81152, Note_on_c, 0, 64, 45
2, 81408, Note_on_c, 0, 64, 0
2, 81408, Note_on_c, 0, 67, 44
2, 82330, Note_on_c, 0, 67, 0
2, 82432, Note_on_c, 0, 65, 40
2, 82688, Note_on_c, 0, 65, 0
2, 82688, Note_on_c, 0, 64, 39
2, 82944, Note_on_c, 0, 64, 0
2, 82944, Note_on_c, 0, 65, 39
2, 83200, Note_on_c, 0, 65, 0
2, 83200, Note_on_c, 0, 62, 38
2, 83456, Note_on_c, 0, 62, 0
2, 83456, Note_on_c, 0, 68, 37
2, 83968, Note_on_c, 0, 68, 0
2, 85504, Note_on_c, 0, 69, 38
2, 86016, Note_on_c, 0, 69, 0
2, 86016, Note_on_c, 0, 68, 40
2, 86400, Note_on_c, 0, 68, 0
2, 86528, Note_on_c, 0, 77, 43
2, 87040, Note_on_c, 0, 77, 0
2, 87040, Note_on_c, 0, 76, 46
2, 87424, Note_on_c, 0, 76, 0
2, 87552, Note_on_c, 0, 70, 42
2, 88064, Note_on_c, 0, 70, 0
2, 88064, Note_on_c, 0, 69, 38
2, 88448, Note_on_c, 0, 69, 0
2, 92672, Note_on_c, 0, 57, 37
2, 93184, Note_on_c, 0, 57, 0
2, 93184, Note_on_c, 0, 65, 39
2, 93440, Note_on_c, 0, 65, 0
2, 93440, Note_on_c, 0, 62, 40
2, 93696, Note_on_c, 0, 62, 0
2, 93696, Note_on_c, 0, 55, 40
2, 94618, Note_on_c, 0, 55, 0
2, 94720, Note_on_c, 0, 62, 44
2, 94976, Note_on_c, 0, 62, 0
2, 94976, Note_on_c, 0, 65, 45
2, 95232, Note_on_c, 0, 65, 0
2, 95232, Note_on_c, 0, 64, 45
2, 95488, Note_on_c, 0, 64, 0
2, 95488, Note_on_c, 0, 61, 46
2, 95744, Note_on_c, 0, 61, 0
2, 95744, Note_on_c, 0, 67, 47
2, 96666, Note_on_c, 0, 67, 0
2, 96768, Note_on_c, 0, 65, 48
2, 97024, Note_on_c, 0, 65, 0
2, 97024, Note_on_c, 0, 64, 47
2, 97280, Note_on_c, 0, 64, 0
2, 97280, Note_on_c, 0, 65, 46
2, 97536, Note_on_c, 0, 65, 0
2, 97536, Note_on_c, 0, 62, 45
2, 97792, Note_on_c, 0, 62, 0
2, 97792, Note_on_c, 0, 63, 44
2, 98714, Note_on_c, 0, 63, 0
2, 98816, Note_on_c, 0, 62, 40
2, 99328, Note_on_c, 0, 62, 0
2, 99328, Note_on_c, 0, 61, 38
2, 99840, Note_on_c, 0, 61, 0
2, 99840, Note_on_c, 0, 59, 35
2, 100352, Note_on_c, 0, 59, 0
2, 100352, Note_on_c, 0, 57, 33
2, 100736, Note_on_c, 0, 57, 0
2, 100864, Note_on_c, 0, 64, 45
2, 101376, Note_on_c, 0, 64, 0
2, 101376, Note_on_c, 0, 65, 41
2, 101760, Note_on_c, 0, 65, 0
2, 101888, Note_on_c, 0, 61, 47
2, 102400, Note_on_c, 0, 61, 0
2, 102400, Note_on_c, 0, 62, 39
2, 102784, Note_on_c, 0, 62, 0
2, 102912, Note_on_c, 0, 72, 49
2, 103424, Note_on_c, 0, 72, 0
2, 103424, Note_on_c, 0, 70, 43
2, 103808, Note_on_c, 0, 70, 0
2, 103936, Note_on_c, 0, 66, 51
2, 104448, Note_on_c, 0, 66, 0
2, 104448, Note_on_c, 0, 67, 43
2, 104832, Note_on_c, 0, 67, 0
2, 104960, Note_on_c, 0, 73, 50
2, 105472, Note_on_c, 0, 73, 0
2, 105472, Note_on_c, 0, 74, 47
2, 105856, Note_on_c, 0, 74, 0
2, 105984, Note_on_c, 0, 69, 44
2, 106496, Note_on_c, 0, 69, 0
2, 106496, Note_on_c, 0, 65, 42
2, 107008, Note_on_c, 0, 65, 0
2, 107008, Note_on_c, 0, 64, 39
2, 107264, Note_on_c, 0, 64, 0
2, 107264, Note_on_c, 0, 62, 37
2, 107520, Note_on_c, 0, 62, 0
2, 107520, Note_on_c, 0, 62, 36
2, 108442, Note_on_c, 0, 62, 0
2, 109568, Note_on_c, 0, 74, 36
2, 110080, Note_on_c, 0, 74, 0
2, 110080, Note_on_c, 0, 72, 36
2, 110464, Note_on_c, 0, 72, 0
2, 110592, Note_on_c, 0, 69, 36
2, 111104, Note_on_c, 0, 69, 0
2, 111104, Note_on_c, 0, 71, 36
2, 111488, Note_on_c, 0, 71, 0
2, 111616, Note_on_c, 0, 71, 36
2, 112538, Note_on_c, 0, 71, 0
2, 112640, Note_on_c, 0, 70, 38
2, 114176, Note_on_c, 0, 70, 0
2, 114176, Note_on_c, 0, 69, 43
2, 114688, Note_on_c, 0, 69, 0
2, 114688, Note_on_c, 0, 64, 45
2, 115200, Note_on_c, 0, 64, 0
2, 115200, Note_on_c, 0, 66, 47
2, 115712, Note_on_c, 0, 66, 0
2, 115712, Note_on_c, 0, 67, 49
2, 116224, Note_on_c, 0, 67, 0
2, 117760, Note_on_c, 0, 67, 50
2, 118272, Note_on_c, 0, 67, 0
2, 118272, Note_on_c, 0, 63, 50
2, 118656, Note_on_c, 0, 63, 0
2, 118784, Note_on_c, 0, 61, 50
2, 119296, Note_on_c, 0, 61, 0
2, 119296, Note_on_c, 0, 62, 50
2, 119680, Note_on_c, 0, 62, 0
2, 119808, Note_on_c, 0, 61, 51
2, 121856, Note_on_c, 0, 61, 0
2, 121856, Note_on_c, 0, 62, 44
2, 122778, Note_on_c, 0, 62, 0
2, 125952, Note_on_c, 0, 67, 51
2, 126464, Note_on_c, 0, 67, 0
2, 126464, Note_on_c, 0, 65, 51
2, 126848, Note_on_c, 0, 65, 0
2, 126976, Note_on_c, 0, 62, 50
2, 127488, Note_on_c, 0, 62, 0
2, 127488, Note_on_c, 0, 63, 49
2, 127872, Note_on_c, 0, 63, 0
2, 128000, Note_on_c, 0, 63, 48
2, 130560, Note_on_c, 0, 63, 0
2, 130560, Note_on_c, 0, 62, 59
2, 130944, Note_on_c, 0, 62, 0
2, 131072, Note_on_c, 0, 59, 57
2, 131584, Note_on_c, 0, 59, 0
2, 131584, Note_on_c, 0, 60, 55
2, 131968, Note_on_c, 0, 60, 0
2, 132096, Note_on_c, 0, 60, 53
2, 134656, Note_on_c, 0, 60, 0
2, 134656, Note_on_c, 0, 58, 44
2, 135040, Note_on_c, 0, 58, 0
2, 135168, Note_on_c, 0, 55, 42
2, 135680, Note_on_c, 0, 55, 0
2, 135680, Note_on_c, 0, 57, 40
2, 136064, Note_on_c, 0, 57, 0
2, 136192, Note_on_c, 0, 57, 38
2, 137114, Note_on_c, 0, 57, 0
2, 139264, Note_on_c, 0, 70, 40
2, 139520, Note_on_c, 0, 70, 0
2, 139520, Note_on_c, 0, 67, 41
2, 139776, Note_on_c, 0, 67, 0
2, 139776, Note_on_c, 0, 60, 42
2, 140288, Note_on_c, 0, 60, 0
2, 141312, Note_on_c, 0, 69, 46
2, 141568, Note_on_c, 0, 69, 0
2, 141568, Note_on_c, 0, 66, 46
2, 141824, Note_on_c, 0, 66, 0
2, 141824, Note_on_c, 0, 72, 47
2, 142336, Note_on_c, 0, 72, 0
2, 143360, Note_on_c, 0, 63, 48
2, 143616, Note_on_c, 0, 63, 0
2, 143616, Note_on_c, 0, 60, 47
2, 143872, Note_on_c, 0, 60, 0
2, 143872, Note_on_c, 0, 57, 45
2, 144384, Note_on_c, 0, 57, 0
2, 146944, Note_on_c, 0, 60, 37
2, 147456, Note_on_c, 0, 60, 0
2, 147456, Note_on_c, 0, 59, 37
2, 147840, Note_on_c, 0, 59, 0
2, 147968, Note_on_c, 0, 68, 37
2, 148480, Note_on_c, 0, 68, 0
2, 148480, Note_on_c, 0, 67, 37
2, 148864, Note_on_c, 0, 67, 0
2, 148992, Note_on_c, 0, 65, 38
2, 149504, Note_on_c, 0, 65, 0
2, 149504, Note_on_c, 0, 63, 38
2, 149888, Note_on_c, 0, 63, 0
2, 150016, Note_on_c, 0, 60, 38
2, 150528, Note_on_c, 0, 60, 0
2, 150528, Note_on_c, 0, 59, 38
2, 150784, Note_on_c, 0, 59, 0
2, 150784, Note_on_c, 0, 62, 38
2, 151040, Note_on_c, 0, 62, 0
2, 151040, Note_on_c, 0, 65, 38
2, 151962, Note_on_c, 0, 65, 0
2, 152064, Note_on_c, 0, 63, 39
2, 152320, Note_on_c, 0, 63, 0
2, 152320, Note_on_c, 0, 62, 39
2, 152576, Note_on_c, 0, 62, 0
2, 152576, Note_on_c, 0, 67, 39
2, 152960, Note_on_c, 0, 67, 0
2, 153088, Note_on_c, 0, 59, 39
2, 153600, Note_on_c, 0, 59, 0
2, 153600, Note_on_c, 0, 60, 39
2, 153984, Note_on_c, 0, 60, 0
2, 155136, Note_on_c, 0, 65, 33
2, 155648, Note_on_c, 0, 65, 0
2, 155648, Note_on_c, 0, 64, 35
2, 156032, Note_on_c, 0, 64, 0
2, 156160, Note_on_c, 0, 70, 36
2, 156672, Note_on_c, 0, 70, 0
2, 156672, Note_on_c, 0, 69, 38
2, 157056, Note_on_c, 0, 69, 0
2, 157184, Note_on_c, 0, 67, 39
2, 157696, Note_on_c, 0, 67, 0
2, 157696, Note_on_c, 0, 65, 41
2, 158080, Note_on_c, 0, 65, 0
2, 158208, Note_on_c, 0, 62, 43
2, 158720, Note_on_c, 0, 62, 0
2, 158720, Note_on_c, 0, 61, 44
2, 158976, Note_on_c, 0, 61, 0
2, 158976, Note_on_c, 0, 64, 45
2, 159232, Note_on_c, 0, 64, 0
2, 159232, Note_on_c, 0, 67, 46
2, 160154, Note_on_c, 0, 67, 0
2, 160256, Note_on_c, 0, 65, 49
2, 160512, Note_on_c, 0, 65, 0
2, 160512, Note_on_c, 0, 64, 50
2, 160768, Note_on_c, 0, 64, 0
2, 160768, Note_on_c, 0, 69, 51
2, 161152, Note_on_c, 0, 69, 0
2, 161280, Note_on_c, 0, 61, 52
2, 161792, Note_on_c, 0, 61, 0
2, 161792, Note_on_c, 0, 62, 54
2, 162176, Note_on_c, 0, 62, 0
2, 162304, Note_on_c, 0, 84, 55
2, 163072, Note_on_c, 0, 84, 0
2, 163072, Note_on_c, 0, 81, 57
2, 163328, Note_on_c, 0, 81, 0
2, 163328, Note_on_c, 0, 74, 59
2, 164250, Note_on_c, 0, 74, 0
2, 164352, Note_on_c, 0, 79, 71
2, 164608, Note_on_c, 0, 79, 0
2, 164608, Note_on_c, 0, 82, 70
2, 164864, Note_on_c, 0, 82, 0
2, 164864, Note_on_c, 0, 81, 68
2, 165120, Note_on_c, 0, 81, 0
2, 165120, Note_on_c, 0, 78, 66
2, 165376, Note_on_c, 0, 78, 0
2, 165376, Note_on_c, 0, 72, 64
2, 166298, Note_on_c, 0, 72, 0
2, 166400, Note_on_c, 0, 70, 59
2, 166656, Note_on_c, 0, 70, 0
2, 166656, Note_on_c, 0, 69, 58
2, 166912, Note_on_c, 0, 69, 0
2, 166912, Note_on_c, 0, 70, 57
2, 167168, Note_on_c, 0, 70, 0
2, 167168, Note_on_c, 0, 67, 56
2, 167424, Note_on_c, 0, 67, 0
2, 167424, Note_on_c, 0, 68, 55
2, 168346, Note_on_c, 0, 68, 0
2, 168448, Note_on_c, 0, 67, 51
2, 168960, Note_on_c, 0, 67, 0
2, 168960, Note_on_c, 0, 66, 49
2, 169472, Note_on_c, 0, 66, 0
2, 169472, Note_on_c, 0, 64, 58
2, 169984, Note_on_c, 0, 64, 0
2, 169984, Note_on_c, 0, 62, 61
2, 170368, Note_on_c, 0, 62, 0
2, 173568, Note_on_c, 0, 63, 50
2, 174080, Note_on_c, 0, 63, 0
2, 174080, Note_on_c, 0, 62, 49
2, 174464, Note_on_c, 0, 62, 0
2, 174592, Note_on_c, 0, 71, 49
2, 175104, Note_on_c, 0, 71, 0
2, 175104, Note_on_c, 0, 72, 48
2, 175488, Note_on_c, 0, 72, 0
2, 177664, Note_on_c, 0, 75, 46
2, 178176, Note_on_c, 0, 75, 0
2, 178176, Note_on_c, 0, 74, 45
2, 178560, Note_on_c, 0, 74, 0
2, 178688, Note_on_c, 0, 78, 43
2, 179200, Note_on_c, 0, 78, 0
2, 179200, Note_on_c, 0, 79, 42
2, 179584, Note_on_c, 0, 79, 0
2, 182784, Note_on_c, 0, 60, 40
2, 183296, Note_on_c, 0, 60, 0
2, 183296, Note_on_c, 0, 59, 42
2, 183552, Note_on_c, 0, 59, 0
2, 183552, Note_on_c, 0, 62, 43
2, 183808, Note_on_c, 0, 62, 0
2, 183808, Note_on_c, 0, 65, 43
2, 184730, Note_on_c, 0, 65, 0
2, 184832, Note_on_c, 0, 63, 47
2, 185088, Note_on_c, 0, 63, 0
2, 185088, Note_on_c, 0, 62, 48
2, 185344, Note_on_c, 0, 62, 0
2, 185344, Note_on_c, 0, 63, 49
2, 185600, Note_on_c, 0, 63, 0
2, 185600, Note_on_c, 0, 60, 50
2, 185856, Note_on_c, 0, 60, 0
2, 185856, Note_on_c, 0, 57, 51
2, 186778, Note_on_c, 0, 57, 0
2, 186880, Note_on_c, 0, 67, 54
2, 187392, Note_on_c, 0, 67, 0
2, 187392, Note_on_c, 0, 66, 56
2, 187648, Note_on_c, 0, 66, 0
2, 187648, Note_on_c, 0, 69, 57
2, 187904, Note_on_c, 0, 69, 0
2, 187904, Note_on_c, 0, 72, 58
2, 188826, Note_on_c, 0, 72, 0
2, 188928, Note_on_c, 0, 70, 61
2, 189184, Note_on_c, 0, 70, 0
2, 189184, Note_on_c, 0, 69, 62
2, 189440, Note_on_c, 0, 69, 0
2, 189440, Note_on_c, 0, 70, 63
2, 189696, Note_on_c, 0, 70, 0
2, 189696, Note_on_c, 0, 67, 64
2, 189952, Note_on_c, 0, 67, 0
2, 189952, Note_on_c, 0, 73, 65
2, 190874, Note_on_c, 0, 73, 0
2, 190976, Note_on_c, 0, 74, 68
2, 191488, Note_on_c, 0, 74, 0
2, 191488, Note_on_c, 0, 76, 70
2, 191744, Note_on_c, 0, 76, 0
2, 191744, Note_on_c, 0, 79, 71
2, 192000, Note_on_c, 0, 79, 0
2, 192000, Note_on_c, 0, 82, 72
2, 192922, Note_on_c, 0, 82, 0
2, 193024, Note_on_c, 0, 81, 67
2, 193280, Note_on_c, 0, 81, 0
2, 193280, Note_on_c, 0, 79, 65
2, 193536, Note_on_c, 0, 79, 0
2, 193536, Note_on_c, 0, 78, 63
2, 193792, Note_on_c, 0, 78, 0
2, 193792, Note_on_c, 0, 69, 61
2, 194048, Note_on_c, 0, 69, 0
2, 194048, Note_on_c, 0, 63, 59
2, 194970, Note_on_c, 0, 63, 0
2, 195072, Note_on_c, 0, 62, 52
2, 195328, Note_on_c, 0, 62, 0
2, 195328, Note_on_c, 0, 60, 50
2, 195584, Note_on_c, 0, 60, 0
2, 195584, Note_on_c, 0, 58, 48
2, 195968, Note_on_c, 0, 58, 0
2, 196096, Note_on_c, 0, 74, 44
2, 196480, Note_on_c, 0, 74, 0
2, 196608, Note_on_c, 0, 62, 40
2, 196992, Note_on_c, 0, 62, 0
2, 197120, Note_on_c, 0, 66, 36
2, 197504, Note_on_c, 0, 66, 0
2, 197632, Note_on_c, 0, 55, 31
2, 198656, Note_on_c, 0, 55, 0
2, 199811, Control_c, 0, 121, 127
2, 201728, End_track
3, 0, Start_track
3, 0, Title_t, "Cello"
3, 0, Program_c, 1, 49
3, 0, Control_c, 1, 121, 127
3, 0, Control_c, 1, 91, 80
3, 0, Control_c, 1, 1, 15
3, 0, Control_c, 1, 10, 80
3, 0, Control_c, 1, 11, 90
3, 1024, Note_on_c, 1, 55, 37
3, 1408, Note_on_c, 1, 55, 0
3, 2048, Note_on_c, 1, 54, 38
3, 2432, Note_on_c, 1, 54, 0
3, 3072, Note_on_c, 1, 55, 39
3, 3456, Note_on_c, 1, 55, 0
3, 4096, Note_on_c, 1, 52, 41
3, 4480, Note_on_c, 1, 52, 0
3, 5120, Note_on_c, 1, 54, 42
3, 5504, Note_on_c, 1, 54, 0
3, 6144, Note_on_c, 1, 50, 43
3, 6528, Note_on_c, 1, 50, 0
3, 7168, Note_on_c, 1, 55, 42
3, 7552, Note_on_c, 1, 55, 0
3, 8192, Note_on_c, 1, 48, 40
3, 8576, Note_on_c, 1, 48, 0
3, 9216, Note_on_c, 1, 50, 37
3, 9600, Note_on_c, 1, 50, 0
3, 10240, Note_on_c, 1, 54, 35
3, 10624, Note_on_c, 1, 54, 0
3, 11264, Note_on_c, 1, 55, 38
3, 11648, Note_on_c, 1, 55, 0
3, 12288, Note_on_c, 1, 58, 37
3, 12672, Note_on_c, 1, 58, 0
3, 13312, Note_on_c, 1, 57, 40
3, 13696, Note_on_c, 1, 57, 0
3, 14336, Note_on_c, 1, 55, 41
3, 14720, Note_on_c, 1, 55, 0
3, 15360, Note_on_c, 1, 53, 46
3, 15744, Note_on_c, 1, 53, 0
3, 15872, Note_on_c, 1, 50, 41
3, 16256, Note_on_c, 1, 50, 0
3, 16384, Note_on_c, 1, 57, 39
3, 16768, Note_on_c, 1, 57, 0
3, 16896, Note_on_c, 1, 45, 36
3, 17280, Note_on_c, 1, 45, 0
3, 17408, Note_on_c, 1, 50, 33
3, 17920, Note_on_c, 1, 50, 0
3, 17920, Note_on_c, 1, 52, 35
3, 18432, Note_on_c, 1, 52, 0
3, 18432, Note_on_c, 1, 53, 36
3, 18944, Note_on_c, 1, 53, 0
3, 18944, Note_on_c, 1, 56, 37
3, 19456, Note_on_c, 1, 56, 0
3, 19456, Note_on_c, 1, 55, 38
3, 19840, Note_on_c, 1, 55, 0
3, 20480, Note_on_c, 1, 47, 39
3, 20864, Note_on_c, 1, 47, 0
3, 21504, Note_on_c, 1, 48, 41
3, 21888, Note_on_c, 1, 48, 0
3, 22528, Note_on_c, 1, 51, 43
3, 22912, Note_on_c, 1, 51, 0
3, 23552, Note_on_c, 1, 50, 45
3, 23936, Note_on_c, 1, 50, 0
3, 24576, Note_on_c, 1, 54, 43
3, 24960, Note_on_c, 1, 54, 0
3, 25600, Note_on_c, 1, 55, 40
3, 25984, Note_on_c, 1, 55, 0
3, 26624, Note_on_c, 1, 58, 37
3, 27008, Note_on_c, 1, 58, 0
3, 27648, Note_on_c, 1, 49, 37
3, 28032, Note_on_c, 1, 49, 0
3, 28672, Note_on_c, 1, 45, 43
3, 29056, Note_on_c, 1, 45, 0
3, 29696, Note_on_c, 1, 50, 50
3, 30080, Note_on_c, 1, 50, 0
3, 30720, Note_on_c, 1, 54, 51
3, 31104, Note_on_c, 1, 54, 0
3, 31744, Note_on_c, 1, 55, 46
3, 32128, Note_on_c, 1, 55, 0
3, 32256, Note_on_c, 1, 58, 43
3, 32640, Note_on_c, 1, 58, 0
3, 32768, Note_on_c, 1, 62, 40
3, 33152, Note_on_c, 1, 62, 0
3, 33280, Note_on_c, 1, 50, 38
3, 33664, Note_on_c, 1, 50, 0
3, 33792, Note_on_c, 1, 55, 35
3, 34176, Note_on_c, 1, 55, 0
3, 34816, Note_on_c, 1, 54, 35
3, 35200, Note_on_c, 1, 54, 0
3, 35840, Note_on_c, 1, 55, 35
3, 36224, Note_on_c, 1, 55, 0
3, 36864, Note_on_c, 1, 43, 35
3, 37248, Note_on_c, 1, 43, 0
3, 37888, Note_on_c, 1, 48, 35
3, 38272, Note_on_c, 1, 48, 0
3, 38912, Note_on_c, 1, 45, 35
3, 39296, Note_on_c, 1, 45, 0
3, 39936, Note_on_c, 1, 47, 35
3, 40320, Note_on_c, 1, 47, 0
3, 40960, Note_on_c, 1, 53, 35
3, 41344, Note_on_c, 1, 53, 0
3, 41984, Note_on_c, 1, 51, 36
3, 42368, Note_on_c, 1, 51, 0
3, 43008, Note_on_c, 1, 42, 36
3, 43392, Note_on_c, 1, 42, 0
3, 44032, Note_on_c, 1, 43, 36
3, 44416, Note_on_c, 1, 43, 0
3, 45056, Note_on_c, 1, 48, 36
3, 45440, Note_on_c, 1, 48, 0
3, 46080, Note_on_c, 1, 42, 35
3, 46464, Note_on_c, 1, 42, 0
3, 47104, Note_on_c, 1, 54, 39
3, 47488, Note_on_c, 1, 54, 0
3, 48128, Note_on_c, 1, 55, 43
3, 48512, Note_on_c, 1, 55, 0
3, 49152, Note_on_c, 1, 51, 41
3, 49536, Note_on_c, 1, 51, 0
3, 50176, Note_on_c, 1, 50, 37
3, 50560, Note_on_c, 1, 50, 0
3, 50688, Note_on_c, 1, 48, 39
3, 51072, Note_on_c, 1, 48, 0
3, 51200, Note_on_c, 1, 46, 40
3, 51584, Note_on_c, 1, 46, 0
3, 51712, Note_on_c, 1, 42, 41
3, 52096, Note_on_c, 1, 42, 0
3, 52224, Note_on_c, 1, 43, 41
3, 52608, Note_on_c, 1, 43, 0
3, 53248, Note_on_c, 1, 51, 43
3, 53632, Note_on_c, 1, 51, 0
3, 54272, Note_on_c, 1, 42, 45
3, 54656, Note_on_c, 1, 42, 0
3, 55296, Note_on_c, 1, 38, 46
3, 55680, Note_on_c, 1, 38, 0
3, 56320, Note_on_c, 1, 43, 44
3, 56704, Note_on_c, 1, 43, 0
3, 57344, Note_on_c, 1, 48, 41
3, 57728, Note_on_c, 1, 48, 0
3, 58368, Note_on_c, 1, 50, 38
3, 58752, Note_on_c, 1, 50, 0
3, 59392, Note_on_c, 1, 54, 35
3, 59776, Note_on_c, 1, 54, 0
3, 60416, Note_on_c, 1, 55, 41
3, 60800, Note_on_c, 1, 55, 0
3, 61440, Note_on_c, 1, 58, 42
3, 61824, Note_on_c, 1, 58, 0
3, 62464, Note_on_c, 1, 57, 38
3, 62848, Note_on_c, 1, 57, 0
3, 64000, Note_on_c, 1, 52, 45
3, 64512, Note_on_c, 1, 52, 0
3, 64512, Note_on_c, 1, 53, 38
3, 64896, Note_on_c, 1, 53, 0
3, 65024, Note_on_c, 1, 55, 36
3, 65408, Note_on_c, 1, 55, 0
3, 65536, Note_on_c, 1, 57, 35
3, 65920, Note_on_c, 1, 57, 0
3, 66048, Note_on_c, 1, 45, 34
3, 66432, Note_on_c, 1, 45, 0
3, 66560, Note_on_c, 1, 50, 32
3, 66944, Note_on_c, 1, 50, 0
3, 67584, Note_on_c, 1, 53, 50
3, 67968, Note_on_c, 1, 53, 0
3, 68608, Note_on_c, 1, 55, 56
3, 68992, Note_on_c, 1, 55, 0
3, 69632, Note_on_c, 1, 58, 59
3, 70016, Note_on_c, 1, 58, 0
3, 70656, Note_on_c, 1, 49, 62
3, 71040, Note_on_c, 1, 49, 0
3, 71680, Note_on_c, 1, 45, 62
3, 72064, Note_on_c, 1, 45, 0
3, 72704, Note_on_c, 1, 50, 58
3, 73088, Note_on_c, 1, 50, 0
3, 73728, Note_on_c, 1, 46, 54
3, 74112, Note_on_c, 1, 46, 0
3, 74752, Note_on_c, 1, 45, 44
3, 75136, Note_on_c, 1, 45, 0
3, 75776, Note_on_c, 1, 49, 46
3, 76160, Note_on_c, 1, 49, 0
3, 76800, Note_on_c, 1, 50, 47
3, 77184, Note_on_c, 1, 50, 0
3, 77824, Note_on_c, 1, 38, 49
3, 78208, Note_on_c, 1, 38, 0
3, 78848, Note_on_c, 1, 50, 51
3, 79232, Note_on_c, 1, 50, 0
3, 79872, Note_on_c, 1, 53, 49
3, 80256, Note_on_c, 1, 53, 0
3, 80896, Note_on_c, 1, 52, 46
3, 81280, Note_on_c, 1, 52, 0
3, 81920, Note_on_c, 1, 49, 42
3, 82304, Note_on_c, 1, 49, 0
3, 82944, Note_on_c, 1, 50, 39
3, 83328, Note_on_c, 1, 50, 0
3, 83968, Note_on_c, 1, 47, 35
3, 84352, Note_on_c, 1, 47, 0
3, 84992, Note_on_c, 1, 52, 35
3, 85376, Note_on_c, 1, 52, 0
3, 86016, Note_on_c, 1, 40, 40
3, 86400, Note_on_c, 1, 40, 0
3, 87040, Note_on_c, 1, 45, 46
3, 87424, Note_on_c, 1, 45, 0
3, 88064, Note_on_c, 1, 49, 38
3, 88448, Note_on_c, 1, 49, 0
3, 89088, Note_on_c, 1, 50, 39
3, 89472, Note_on_c, 1, 50, 0
3, 89600, Note_on_c, 1, 53, 38
3, 89984, Note_on_c, 1, 53, 0
3, 90112, Note_on_c, 1, 57, 38
3, 90496, Note_on_c, 1, 57, 0
3, 90624, Note_on_c, 1, 45, 37
3, 91008, Note_on_c, 1, 45, 0
3, 91136, Note_on_c, 1, 50, 36
3, 91520, Note_on_c, 1, 50, 0
3, 92160, Note_on_c, 1, 49, 35
3, 92544, Note_on_c, 1, 49, 0
3, 93184, Note_on_c, 1, 50, 39
3, 93568, Note_on_c, 1, 50, 0
3, 94208, Note_on_c, 1, 47, 42
3, 94592, Note_on_c, 1, 47, 0
3, 95232, Note_on_c, 1, 49, 45
3, 95616, Note_on_c, 1, 49, 0
3, 96256, Note_on_c, 1, 45, 50
3, 96640, Note_on_c, 1, 45, 0
3, 97280, Note_on_c, 1, 50, 46
3, 97664, Note_on_c, 1, 50, 0
3, 98304, Note_on_c, 1, 43, 42
3, 98688, Note_on_c, 1, 43, 0
3, 99328, Note_on_c, 1, 45, 38
3, 99712, Note_on_c, 1, 45, 0
3, 100352, Note_on_c, 1, 49, 33
3, 100736, Note_on_c, 1, 49, 0
3, 101376, Note_on_c, 1, 50, 41
3, 101760, Note_on_c, 1, 50, 0
3, 102400, Note_on_c, 1, 53, 39
3, 102784, Note_on_c, 1, 53, 0
3, 103424, Note_on_c, 1, 55, 43
3, 103808, Note_on_c, 1, 55, 0
3, 104448, Note_on_c, 1, 52, 43
3, 104832, Note_on_c, 1, 52, 0
3, 105472, Note_on_c, 1, 53, 47
3, 105856, Note_on_c, 1, 53, 0
3, 105984, Note_on_c, 1, 50, 44
3, 106368, Note_on_c, 1, 50, 0
3, 106496, Note_on_c, 1, 57, 42
3, 106880, Note_on_c, 1, 57, 0
3, 107008, Note_on_c, 1, 45, 39
3, 107392, Note_on_c, 1, 45, 0
3, 107520, Note_on_c, 1, 50, 36
3, 107904, Note_on_c, 1, 50, 0
3, 108544, Note_on_c, 1, 49, 36
3, 108928, Note_on_c, 1, 49, 0
3, 109568, Note_on_c, 1, 50, 36
3, 109952, Note_on_c, 1, 50, 0
3, 110592, Note_on_c, 1, 38, 36
3, 110976, Note_on_c, 1, 38, 0
3, 111616, Note_on_c, 1, 43, 36
3, 112000, Note_on_c, 1, 43, 0
3, 112640, Note_on_c, 1, 55, 38
3, 113024, Note_on_c, 1, 55, 0
3, 113664, Note_on_c, 1, 48, 41
3, 114048, Note_on_c, 1, 48, 0
3, 114176, Note_on_c, 1, 60, 43
3, 114560, Note_on_c, 1, 60, 0
3, 114688, Note_on_c, 1, 58, 45
3, 115072, Note_on_c, 1, 58, 0
3, 115200, Note_on_c, 1, 57, 47
3, 115584, Note_on_c, 1, 57, 0
3, 115712, Note_on_c, 1, 55, 49
3, 116096, Note_on_c, 1, 55, 0
3, 116736, Note_on_c, 1, 57, 50
3, 117120, Note_on_c, 1, 57, 0
3, 117760, Note_on_c, 1, 58, 50
3, 118144, Note_on_c, 1, 58, 0
3, 118784, Note_on_c, 1, 52, 50
3, 119168, Note_on_c, 1, 52, 0
3, 119808, Note_on_c, 1, 57, 51
3, 120192, Note_on_c, 1, 57, 0
3, 120832, Note_on_c, 1, 45, 47
3, 121216, Note_on_c, 1, 45, 0
3, 121856, Note_on_c, 1, 50, 44
3, 122240, Note_on_c, 1, 50, 0
3, 122368, Note_on_c, 1, 48, 42
3, 122752, Note_on_c, 1, 48, 0
3, 122880, Note_on_c, 1, 46, 40
3, 123264, Note_on_c, 1, 46, 0
3, 123392, Note_on_c, 1, 45, 38
3, 123776, Note_on_c, 1, 45, 0
3, 123904, Note_on_c, 1, 43, 41
3, 124288, Note_on_c, 1, 43, 0
3, 124928, Note_on_c, 1, 42, 46
3, 125312, Note_on_c, 1, 42, 0
3, 125952, Note_on_c, 1, 43, 51
3, 126336, Note_on_c, 1, 43, 0
3, 126976, Note_on_c, 1, 55, 50
3, 127360, Note_on_c, 1, 55, 0
3, 128000, Note_on_c, 1, 48, 48
3, 128384, Note_on_c, 1, 48, 0
3, 129024, Note_on_c, 1, 45, 53
3, 129408, Note_on_c, 1, 45, 0
3, 130048, Note_on_c, 1, 47, 59
3, 130432, Note_on_c, 1, 47, 0
3, 131072, Note_on_c, 1, 53, 57
3, 131456, Note_on_c, 1, 53, 0
3, 132096, Note_on_c, 1, 51, 53
3, 132480, Note_on_c, 1, 51, 0
3, 133120, Note_on_c, 1, 42, 50
3, 133504, Note_on_c, 1, 42, 0
3, 134144, Note_on_c, 1, 43, 46
3, 134528, Note_on_c, 1, 43, 0
3, 135168, Note_on_c, 1, 48, 42
3, 135552, Note_on_c, 1, 48, 0
3, 136192, Note_on_c, 1, 42, 38
3, 137114, Note_on_c, 1, 42, 0
3, 137728, Note_on_c, 1, 54, 36
3, 138240, Note_on_c, 1, 54, 0
3, 138240, Note_on_c, 1, 55, 38
3, 138624, Note_on_c, 1, 55, 0
3, 139264, Note_on_c, 1, 52, 40
3, 139648, Note_on_c, 1, 52, 0
3, 140288, Note_on_c, 1, 54, 43
3, 140672, Note_on_c, 1, 54, 0
3, 141312, Note_on_c, 1, 50, 46
3, 141696, Note_on_c, 1, 50, 0
3, 142336, Note_on_c, 1, 55, 48
3, 142720, Note_on_c, 1, 55, 0
3, 143360, Note_on_c, 1, 48, 48
3, 143744, Note_on_c, 1, 48, 0
3, 144384, Note_on_c, 1, 50, 42
3, 144768, Note_on_c, 1, 50, 0
3, 145408, Note_on_c, 1, 54, 36
3, 145792, Note_on_c, 1, 54, 0
3, 146432, Note_on_c, 1, 55, 37
3, 146816, Note_on_c, 1, 55, 0
3, 147456, Note_on_c, 1, 43, 37
3, 147840, Note_on_c, 1, 43, 0
3, 148480, Note_on_c, 1, 55, 37
3, 148864, Note_on_c, 1, 55, 0
3, 149504, Note_on_c, 1, 56, 38
3, 149888, Note_on_c, 1, 56, 0
3, 150528, Note_on_c, 1, 50, 38
3, 150912, Note_on_c, 1, 50, 0
3, 151552, Note_on_c, 1, 55, 38
3, 151936, Note_on_c, 1, 55, 0
3, 152576, Note_on_c, 1, 48, 39
3, 152960, Note_on_c, 1, 48, 0
3, 153088, Note_on_c, 1, 50, 39
3, 153472, Note_on_c, 1, 50, 0
3, 153600, Note_on_c, 1, 51, 39
3, 153984, Note_on_c, 1, 51, 0
3, 154112, Note_on_c, 1, 50, 39
3, 154496, Note_on_c, 1, 50, 0
3, 154624, Note_on_c, 1, 49, 32
3, 155008, Note_on_c, 1, 49, 0
3, 155136, Note_on_c, 1, 47, 33
3, 155520, Note_on_c, 1, 47, 0
3, 155648, Note_on_c, 1, 49, 35
3, 156032, Note_on_c, 1, 49, 0
3, 156160, Note_on_c, 1, 61, 36
3, 156544, Note_on_c, 1, 61, 0
3, 156672, Note_on_c, 1, 62, 38
3, 157056, Note_on_c, 1, 62, 0
3, 157184, Note_on_c, 1, 58, 39
3, 157568, Note_on_c, 1, 58, 0
3, 157696, Note_on_c, 1, 57, 41
3, 158080, Note_on_c, 1, 57, 0
3, 158208, Note_on_c, 1, 56, 43
3, 158592, Note_on_c, 1, 56, 0
3, 158720, Note_on_c, 1, 57, 44
3, 159104, Note_on_c, 1, 57, 0
3, 159744, Note_on_c, 1, 45, 47
3, 160128, Note_on_c, 1, 45, 0
3, 160768, Note_on_c, 1, 50, 51
3, 161152, Note_on_c, 1, 50, 0
3, 161280, Note_on_c, 1, 52, 52
3, 161664, Note_on_c, 1, 52, 0
3, 161792, Note_on_c, 1, 54, 54
3, 162176, Note_on_c, 1, 54, 0
3, 162304, Note_on_c, 1, 55, 55
3, 162688, Note_on_c, 1, 55, 0
3, 162816, Note_on_c, 1, 57, 57
3, 163200, Note_on_c, 1, 57, 0
3, 163328, Note_on_c, 1, 55, 59
3, 163712, Note_on_c, 1, 55, 0
3, 163840, Note_on_c, 1, 54, 65
3, 164224, Note_on_c, 1, 54, 0
3, 164352, Note_on_c, 1, 52, 71
3, 164736, Note_on_c, 1, 52, 0
3, 164864, Note_on_c, 1, 54, 68
3, 165248, Note_on_c, 1, 54, 0
3, 165888, Note_on_c, 1, 50, 61
3, 166272, Note_on_c, 1, 50, 0
3, 166912, Note_on_c, 1, 55, 57
3, 167296, Note_on_c, 1, 55, 0
3, 167936, Note_on_c, 1, 51, 53
3, 168320, Note_on_c, 1, 51, 0
3, 168960, Note_on_c, 1, 50, 49
3, 169344, Note_on_c, 1, 50, 0
3, 169984, Note_on_c, 1, 54, 61
3, 170368, Note_on_c, 1, 54, 0
3, 171008, Note_on_c, 1, 46, 56
3, 171392, Note_on_c, 1, 46, 0
3, 171520, Note_on_c, 1, 51, 54
3, 171904, Note_on_c, 1, 51, 0
3, 172032, Note_on_c, 1, 48, 52
3, 172416, Note_on_c, 1, 48, 0
3, 172544, Note_on_c, 1, 50, 49
3, 172928, Note_on_c, 1, 50, 0
3, 173056, Note_on_c, 1, 51, 47
3, 173440, Note_on_c, 1, 51, 0
3, 173568, Note_on_c, 1, 50, 50
3, 173824, Note_on_c, 1, 50, 0
3, 173824, Note_on_c, 1, 48, 50
3, 174080, Note_on_c, 1, 48, 0
3, 174080, Note_on_c, 1, 47, 49
3, 174464, Note_on_c, 1, 47, 0
3, 174592, Note_on_c, 1, 43, 49
3, 174976, Note_on_c, 1, 43, 0
3, 175104, Note_on_c, 1, 48, 48
3, 175488, Note_on_c, 1, 48, 0
3, 176128, Note_on_c, 1, 51, 46
3, 176512, Note_on_c, 1, 51, 0
3, 177152, Note_on_c, 1, 50, 45
3, 177536, Note_on_c, 1, 50, 0
3, 177664, Note_on_c, 1, 48, 46
3, 178176, Note_on_c, 1, 48, 0
3, 178176, Note_on_c, 1, 46, 45
3, 178560, Note_on_c, 1, 46, 0
3, 178688, Note_on_c, 1, 45, 43
3, 179200, Note_on_c, 1, 45, 0
3, 179200, Note_on_c, 1, 43, 42
3, 179584, Note_on_c, 1, 43, 0
3, 179712, Note_on_c, 1, 48, 41
3, 180224, Note_on_c, 1, 48, 0
3, 180224, Note_on_c, 1, 50, 40
3, 180608, Note_on_c, 1, 50, 0
3, 180736, Note_on_c, 1, 38, 39
3, 181248, Note_on_c, 1, 38, 0
3, 181248, Note_on_c, 1, 43, 38
3, 181632, Note_on_c, 1, 43, 0
3, 181760, Note_on_c, 1, 55, 36
3, 182144, Note_on_c, 1, 55, 0
3, 182272, Note_on_c, 1, 53, 38
3, 182656, Note_on_c, 1, 53, 0
3, 182784, Note_on_c, 1, 51, 40
3, 183168, Note_on_c, 1, 51, 0
3, 183296, Note_on_c, 1, 50, 42
3, 183680, Note_on_c, 1, 50, 0
3, 183808, Note_on_c, 1, 48, 43
3, 184192, Note_on_c, 1, 48, 0
3, 184320, Note_on_c, 1, 47, 45
3, 184704, Note_on_c, 1, 47, 0
3, 184832, Note_on_c, 1, 43, 47
3, 185216, Note_on_c, 1, 43, 0
3, 185344, Note_on_c, 1, 48, 49
3, 185728, Note_on_c, 1, 48, 0
3, 185856, Note_on_c, 1, 50, 51
3, 186240, Note_on_c, 1, 50, 0
3, 186368, Note_on_c, 1, 51, 52
3, 186752, Note_on_c, 1, 51, 0
3, 186880, Note_on_c, 1, 48, 54
3, 187264, Note_on_c, 1, 48, 0
3, 187392, Note_on_c, 1, 50, 56
3, 187776, Note_on_c, 1, 50, 0
3, 187904, Note_on_c, 1, 52, 58
3, 188288, Note_on_c, 1, 52, 0
3, 188416, Note_on_c, 1, 54, 59
3, 188800, Note_on_c, 1, 54, 0
3, 188928, Note_on_c, 1, 50, 61
3, 189312, Note_on_c, 1, 50, 0
3, 189440, Note_on_c, 1, 55, 63
3, 189824, Note_on_c, 1, 55, 0
3, 189952, Note_on_c, 1, 57, 65
3, 190336, Note_on_c, 1, 57, 0
3, 190464, Note_on_c, 1, 58, 67
3, 190848, Note_on_c, 1, 58, 0
3, 190976, Note_on_c, 1, 55, 68
3, 191360, Note_on_c, 1, 55, 0
3, 191488, Note_on_c, 1, 61, 70
3, 191872, Note_on_c, 1, 61, 0
3, 192000, Note_on_c, 1, 62, 72
3, 192384, Note_on_c, 1, 62, 0
3, 192512, Note_on_c, 1, 64, 71
3, 192896, Note_on_c, 1, 64, 0
3, 193024, Note_on_c, 1, 61, 67
3, 193408, Note_on_c, 1, 61, 0
3, 193536, Note_on_c, 1, 62, 63
3, 193920, Note_on_c, 1, 62, 0
3, 194048, Note_on_c, 1, 57, 59
3, 194432, Note_on_c, 1, 57, 0
3, 194560, Note_on_c, 1, 54, 55
3, 194944, Note_on_c, 1, 54, 0
3, 195072, Note_on_c, 1, 50, 52
3, 195456, Note_on_c, 1, 50, 0
3, 195584, Note_on_c, 1, 55, 48
3, 195968, Note_on_c, 1, 55, 0
3, 196096, Note_on_c, 1, 46, 44
3, 196352, Note_on_c, 1, 46, 0
3, 196352, Note_on_c, 1, 48, 42
3, 196608, Note_on_c, 1, 48, 0
3, 196608, Note_on_c, 1, 50, 40
3, 196992, Note_on_c, 1, 50, 0
3, 197120, Note_on_c, 1, 38, 36
3, 197504, Note_on_c, 1, 38, 0
3, 197632, Note_on_c, 1, 43, 31
3, 198656, Note_on_c, 1, 43, 0
3, 199811, Control_c, 1, 121, 127
3, 201728, End_track
4, 0, Start_track
4, 0, Title_t, "Alto"
4, 0, Program_c, 2, 79
4, 0, Control_c, 2, 121, 127
4, 0, Control_c, 2, 91, 80
4, 0, Control_c, 2, 1, 20
4, 0, Control_c, 2, 10, 60
4, 33792, Note_on_c, 2, 74, 35
4, 34304, Note_on_c, 2, 74, 0
4, 34304, Note_on_c, 2, 72, 35
4, 34688, Note_on_c, 2, 72, 0
4, 34816, Note_on_c, 2, 69, 35
4, 35328, Note_on_c, 2, 69, 0
4, 35328, Note_on_c, 2, 70, 35
4, 35712, Note_on_c, 2, 70, 0
4, 35840, Note_on_c, 2, 70, 35
4, 38400, Note_on_c, 2, 70, 0
4, 38400, Note_on_c, 2, 69, 35
4, 38784, Note_on_c, 2, 69, 0
4, 38912, Note_on_c, 2, 66, 35
4, 39424, Note_on_c, 2, 66, 0
4, 39424, Note_on_c, 2, 67, 35
4, 39808, Note_on_c, 2, 67, 0
4, 39936, Note_on_c, 2, 67, 35
4, 42496, Note_on_c, 2, 67, 0
4, 42496, Note_on_c, 2, 65, 36
4, 42880, Note_on_c, 2, 65, 0
4, 43008, Note_on_c, 2, 62, 36
4, 43520, Note_on_c, 2, 62, 0
4, 43520, Note_on_c, 2, 63, 36
4, 43904, Note_on_c, 2, 63, 0
4, 44032, Note_on_c, 2, 63, 36
4, 46592, Note_on_c, 2, 63, 0
4, 46592, Note_on_c, 2, 62, 37
4, 46976, Note_on_c, 2, 62, 0
4, 47104, Note_on_c, 2, 62, 39
4, 49152, Note_on_c, 2, 62, 0
4, 49152, Note_on_c, 2, 60, 41
4, 50176, Note_on_c, 2, 60, 0
4, 50176, Note_on_c, 2, 62, 37
4, 51200, Note_on_c, 2, 62, 0
4, 51712, Note_on_c, 2, 62, 41
4, 52224, Note_on_c, 2, 62, 0
4, 52224, Note_on_c, 2, 70, 41
4, 52480, Note_on_c, 2, 70, 0
4, 52480, Note_on_c, 2, 67, 42
4, 52736, Note_on_c, 2, 67, 0
4, 52736, Note_on_c, 2, 60, 42
4, 53760, Note_on_c, 2, 60, 0
4, 53760, Note_on_c, 2, 70, 44
4, 54272, Note_on_c, 2, 70, 0
4, 54272, Note_on_c, 2, 69, 45
4, 54528, Note_on_c, 2, 69, 0
4, 54528, Note_on_c, 2, 66, 46
4, 54784, Note_on_c, 2, 66, 0
4, 54784, Note_on_c, 2, 72, 46
4, 55296, Note_on_c, 2, 72, 0
4, 55808, Note_on_c, 2, 62, 45
4, 56320, Note_on_c, 2, 62, 0
4, 56320, Note_on_c, 2, 70, 44
4, 56576, Note_on_c, 2, 70, 0
4, 56576, Note_on_c, 2, 67, 43
4, 56832, Note_on_c, 2, 67, 0
4, 56832, Note_on_c, 2, 68, 42
4, 57754, Note_on_c, 2, 68, 0
4, 57856, Note_on_c, 2, 67, 39
4, 58368, Note_on_c, 2, 67, 0
4, 58368, Note_on_c, 2, 66, 38
4, 58880, Note_on_c, 2, 66, 0
4, 58880, Note_on_c, 2, 64, 36
4, 59392, Note_on_c, 2, 64, 0
4, 59392, Note_on_c, 2, 62, 35
4, 59776, Note_on_c, 2, 62, 0
4, 59904, Note_on_c, 2, 69, 48
4, 60416, Note_on_c, 2, 69, 0
4, 60416, Note_on_c, 2, 70, 41
4, 60800, Note_on_c, 2, 70, 0
4, 60928, Note_on_c, 2, 66, 48
4, 61440, Note_on_c, 2, 66, 0
4, 61440, Note_on_c, 2, 67, 42
4, 64000, Note_on_c, 2, 67, 0
4, 64000, Note_on_c, 2, 69, 45
4, 64256, Note_on_c, 2, 69, 0
4, 64256, Note_on_c, 2, 70, 42
4, 64512, Note_on_c, 2, 70, 0
4, 64512, Note_on_c, 2, 69, 38
4, 64768, Note_on_c, 2, 69, 0
4, 64768, Note_on_c, 2, 65, 37
4, 65024, Note_on_c, 2, 65, 0
4, 65024, Note_on_c, 2, 64, 36
4, 65280, Note_on_c, 2, 64, 0
4, 65280, Note_on_c, 2, 62, 36
4, 65536, Note_on_c, 2, 62, 0
4, 65536, Note_on_c, 2, 65, 35
4, 66048, Note_on_c, 2, 65, 0
4, 66048, Note_on_c, 2, 64, 34
4, 66560, Note_on_c, 2, 64, 0
4, 66560, Note_on_c, 2, 62, 32
4, 66944, Note_on_c, 2, 62, 0
4, 67072, Note_on_c, 2, 57, 44
4, 67584, Note_on_c, 2, 57, 0
4, 67584, Note_on_c, 2, 62, 50
4, 68096, Note_on_c, 2, 62, 0
4, 68096, Note_on_c, 2, 65, 55
4, 68608, Note_on_c, 2, 65, 0
4, 68608, Note_on_c, 2, 59, 56
4, 69120, Note_on_c, 2, 59, 0
4, 69120, Note_on_c, 2, 62, 58
4, 69632, Note_on_c, 2, 62, 0
4, 69632, Note_on_c, 2, 67, 59
4, 71168, Note_on_c, 2, 67, 0
4, 71168, Note_on_c, 2, 64, 63
4, 71552, Note_on_c, 2, 64, 0
4, 71680, Note_on_c, 2, 62, 62
4, 72192, Note_on_c, 2, 62, 0
4, 72192, Note_on_c, 2, 61, 60
4, 72704, Note_on_c, 2, 61, 0
4, 72704, Note_on_c, 2, 62, 58
4, 73216, Note_on_c, 2, 62, 0
4, 73216, Note_on_c, 2, 70, 56
4, 73728, Note_on_c, 2, 70, 0
4, 73728, Note_on_c, 2, 66, 54
4, 74240, Note_on_c, 2, 66, 0
4, 74240, Note_on_c, 2, 67, 49
4, 74752, Note_on_c, 2, 67, 0
4, 74752, Note_on_c, 2, 67, 44
4, 76288, Note_on_c, 2, 67, 0
4, 76288, Note_on_c, 2, 66, 46
4, 76544, Note_on_c, 2, 66, 0
4, 76544, Note_on_c, 2, 64, 47
4, 76800, Note_on_c, 2, 64, 0
4, 76800, Note_on_c, 2, 66, 47
4, 77056, Note_on_c, 2, 66, 0
4, 77056, Note_on_c, 2, 69, 48
4, 77312, Note_on_c, 2, 69, 0
4, 77312, Note_on_c, 2, 72, 48
4, 78336, Note_on_c, 2, 72, 0
4, 78336, Note_on_c, 2, 70, 50
4, 78592, Note_on_c, 2, 70, 0
4, 78592, Note_on_c, 2, 69, 51
4, 78848, Note_on_c, 2, 69, 0
4, 78848, Note_on_c, 2, 74, 51
4, 79360, Note_on_c, 2, 74, 0
4, 79360, Note_on_c, 2, 72, 51
4, 79872, Note_on_c, 2, 72, 0
4, 79872, Note_on_c, 2, 70, 49
4, 80333, Note_on_c, 2, 70, 0
4, 80384, Note_on_c, 2, 69, 48
4, 80896, Note_on_c, 2, 69, 0
4, 80896, Note_on_c, 2, 70, 46
4, 82432, Note_on_c, 2, 70, 0
4, 82432, Note_on_c, 2, 69, 40
4, 82688, Note_on_c, 2, 69, 0
4, 82688, Note_on_c, 2, 67, 39
4, 82944, Note_on_c, 2, 67, 0
4, 82944, Note_on_c, 2, 65, 39
4, 83456, Note_on_c, 2, 65, 0
4, 83456, Note_on_c, 2, 64, 37
4, 83968, Note_on_c, 2, 64, 0
4, 83968, Note_on_c, 2, 62, 35
4, 84352, Note_on_c, 2, 62, 0
4, 84480, Note_on_c, 2, 69, 32
4, 84992, Note_on_c, 2, 69, 0
4, 84992, Note_on_c, 2, 68, 35
4, 85248, Note_on_c, 2, 68, 0
4, 85248, Note_on_c, 2, 71, 36
4, 85504, Note_on_c, 2, 71, 0
4, 85504, Note_on_c, 2, 62, 38
4, 86528, Note_on_c, 2, 62, 0
4, 86528, Note_on_c, 2, 61, 43
4, 86784, Note_on_c, 2, 61, 0
4, 86784, Note_on_c, 2, 59, 44
4, 87040, Note_on_c, 2, 59, 0
4, 87040, Note_on_c, 2, 61, 46
4, 87296, Note_on_c, 2, 61, 0
4, 87296, Note_on_c, 2, 64, 44
4, 87552, Note_on_c, 2, 64, 0
4, 87552, Note_on_c, 2, 67, 42
4, 88064, Note_on_c, 2, 67, 0
4, 88576, Note_on_c, 2, 65, 40
4, 88832, Note_on_c, 2, 65, 0
4, 88832, Note_on_c, 2, 64, 40
4, 89088, Note_on_c, 2, 64, 0
4, 89088, Note_on_c, 2, 65, 39
4, 89600, Note_on_c, 2, 65, 0
4, 89600, Note_on_c, 2, 69, 38
4, 90112, Note_on_c, 2, 69, 0
4, 90112, Note_on_c, 2, 65, 38
4, 90624, Note_on_c, 2, 65, 0
4, 90624, Note_on_c, 2, 64, 37
4, 90880, Note_on_c, 2, 64, 0
4, 90880, Note_on_c, 2, 62, 36
4, 91136, Note_on_c, 2, 62, 0
4, 91136, Note_on_c, 2, 62, 36
4, 92160, Note_on_c, 2, 62, 0
4, 107520, Note_on_c, 2, 69, 36
4, 108032, Note_on_c, 2, 69, 0
4, 108032, Note_on_c, 2, 67, 36
4, 108416, Note_on_c, 2, 67, 0
4, 108544, Note_on_c, 2, 64, 36
4, 109056, Note_on_c, 2, 64, 0
4, 109056, Note_on_c, 2, 65, 36
4, 109440, Note_on_c, 2, 65, 0
4, 109568, Note_on_c, 2, 65, 36
4, 112128, Note_on_c, 2, 65, 0
4, 112128, Note_on_c, 2, 68, 36
4, 112640, Note_on_c, 2, 68, 0
4, 112640, Note_on_c, 2, 67, 38
4, 113024, Note_on_c, 2, 67, 0
4, 113152, Note_on_c, 2, 65, 39
4, 113664, Note_on_c, 2, 65, 0
4, 113664, Note_on_c, 2, 64, 41
4, 114176, Note_on_c, 2, 64, 0
4, 114176, Note_on_c, 2, 66, 43
4, 114688, Note_on_c, 2, 66, 0
4, 114688, Note_on_c, 2, 67, 45
4, 115200, Note_on_c, 2, 67, 0
4, 115200, Note_on_c, 2, 69, 47
4, 115712, Note_on_c, 2, 69, 0
4, 115712, Note_on_c, 2, 70, 49
4, 116224, Note_on_c, 2, 70, 0
4, 116224, Note_on_c, 2, 69, 50
4, 116608, Note_on_c, 2, 69, 0
4, 116736, Note_on_c, 2, 66, 50
4, 117248, Note_on_c, 2, 66, 0
4, 117248, Note_on_c, 2, 67, 50
4, 117632, Note_on_c, 2, 67, 0
4, 117760, Note_on_c, 2, 67, 50
4, 120320, Note_on_c, 2, 67, 0
4, 120320, Note_on_c, 2, 70, 49
4, 120832, Note_on_c, 2, 70, 0
4, 120832, Note_on_c, 2, 69, 47
4, 121344, Note_on_c, 2, 69, 0
4, 121344, Note_on_c, 2, 67, 46
4, 121856, Note_on_c, 2, 67, 0
4, 121856, Note_on_c, 2, 66, 44
4, 122368, Note_on_c, 2, 66, 0
4, 122368, Note_on_c, 2, 64, 42
4, 122880, Note_on_c, 2, 64, 0
4, 122880, Note_on_c, 2, 62, 40
4, 123904, Note_on_c, 2, 62, 0
4, 123904, Note_on_c, 2, 74, 41
4, 124416, Note_on_c, 2, 74, 0
4, 124416, Note_on_c, 2, 72, 43
4, 124800, Note_on_c, 2, 72, 0
4, 124928, Note_on_c, 2, 69, 46
4, 125440, Note_on_c, 2, 69, 0
4, 125440, Note_on_c, 2, 70, 48
4, 125824, Note_on_c, 2, 70, 0
4, 125952, Note_on_c, 2, 70, 51
4, 128512, Note_on_c, 2, 70, 0
4, 128512, Note_on_c, 2, 69, 51
4, 128896, Note_on_c, 2, 69, 0
4, 129024, Note_on_c, 2, 66, 53
4, 129536, Note_on_c, 2, 66, 0
4, 129536, Note_on_c, 2, 67, 56
4, 129920, Note_on_c, 2, 67, 0
4, 130048, Note_on_c, 2, 67, 59
4, 132608, Note_on_c, 2, 67, 0
4, 132608, Note_on_c, 2, 65, 52
4, 132992, Note_on_c, 2, 65, 0
4, 133120, Note_on_c, 2, 62, 50
4, 133632, Note_on_c, 2, 62, 0
4, 133632, Note_on_c, 2, 63, 48
4, 134016, Note_on_c, 2, 63, 0
4, 134144, Note_on_c, 2, 63, 46
4, 136704, Note_on_c, 2, 63, 0
4, 136704, Note_on_c, 2, 62, 36
4, 137088, Note_on_c, 2, 62, 0
4, 137728, Note_on_c, 2, 62, 36
4, 138240, Note_on_c, 2, 62, 0
4, 138240, Note_on_c, 2, 70, 38
4, 138496, Note_on_c, 2, 70, 0
4, 138496, Note_on_c, 2, 67, 38
4, 138752, Note_on_c, 2, 67, 0
4, 138752, Note_on_c, 2, 60, 39
4, 139674, Note_on_c, 2, 60, 0
4, 139776, Note_on_c, 2, 70, 42
4, 140288, Note_on_c, 2, 70, 0
4, 140288, Note_on_c, 2, 69, 43
4, 140544, Note_on_c, 2, 69, 0
4, 140544, Note_on_c, 2, 66, 44
4, 140800, Note_on_c, 2, 66, 0
4, 140800, Note_on_c, 2, 72, 44
4, 141312, Note_on_c, 2, 72, 0
4, 141824, Note_on_c, 2, 62, 47
4, 142336, Note_on_c, 2, 62, 0
4, 142336, Note_on_c, 2, 70, 48
4, 142592, Note_on_c, 2, 70, 0
4, 142592, Note_on_c, 2, 67, 49
4, 142848, Note_on_c, 2, 67, 0
4, 142848, Note_on_c, 2, 68, 52
4, 143770, Note_on_c, 2, 68, 0
4, 143872, Note_on_c, 2, 67, 45
4, 144384, Note_on_c, 2, 67, 0
4, 144384, Note_on_c, 2, 66, 42
4, 144896, Note_on_c, 2, 66, 0
4, 144896, Note_on_c, 2, 64, 39
4, 145408, Note_on_c, 2, 64, 0
4, 145408, Note_on_c, 2, 62, 36
4, 145792, Note_on_c, 2, 62, 0
4, 145920, Note_on_c, 2, 60, 37
4, 146432, Note_on_c, 2, 60, 0
4, 146432, Note_on_c, 2, 59, 37
4, 146688, Note_on_c, 2, 59, 0
4, 146688, Note_on_c, 2, 62, 37
4, 146944, Note_on_c, 2, 62, 0
4, 146944, Note_on_c, 2, 65, 37
4, 147866, Note_on_c, 2, 65, 0
4, 147968, Note_on_c, 2, 63, 37
4, 148224, Note_on_c, 2, 63, 0
4, 148224, Note_on_c, 2, 62, 37
4, 148480, Note_on_c, 2, 62, 0
4, 148480, Note_on_c, 2, 63, 37
4, 148736, Note_on_c, 2, 63, 0
4, 148736, Note_on_c, 2, 62, 38
4, 148992, Note_on_c, 2, 62, 0
4, 148992, Note_on_c, 2, 60, 38
4, 149504, Note_on_c, 2, 60, 0
4, 151040, Note_on_c, 2, 68, 38
4, 152064, Note_on_c, 2, 68, 0
4, 152064, Note_on_c, 2, 67, 39
4, 152320, Note_on_c, 2, 67, 0
4, 152320, Note_on_c, 2, 65, 39
4, 152576, Note_on_c, 2, 65, 0
4, 152576, Note_on_c, 2, 63, 39
4, 153088, Note_on_c, 2, 63, 0
4, 153088, Note_on_c, 2, 62, 39
4, 153600, Note_on_c, 2, 62, 0
4, 153600, Note_on_c, 2, 60, 39
4, 153984, Note_on_c, 2, 60, 0
4, 154112, Note_on_c, 2, 58, 39
4, 154624, Note_on_c, 2, 58, 0
4, 154624, Note_on_c, 2, 57, 32
4, 154880, Note_on_c, 2, 57, 0
4, 154880, Note_on_c, 2, 64, 32
4, 155136, Note_on_c, 2, 64, 0
4, 155136, Note_on_c, 2, 67, 33
4, 156058, Note_on_c, 2, 67, 0
4, 156160, Note_on_c, 2, 65, 36
4, 156416, Note_on_c, 2, 65, 0
4, 156416, Note_on_c, 2, 64, 37
4, 156672, Note_on_c, 2, 64, 0
4, 156672, Note_on_c, 2, 65, 38
4, 156928, Note_on_c, 2, 65, 0
4, 156928, Note_on_c, 2, 64, 39
4, 157184, Note_on_c, 2, 64, 0
4, 157184, Note_on_c, 2, 62, 39
4, 157696, Note_on_c, 2, 62, 0
4, 158208, Note_on_c, 2, 70, 43
4, 159232, Note_on_c, 2, 70, 0
4, 159232, Note_on_c, 2, 62, 46
4, 159744, Note_on_c, 2, 62, 0
4, 159744, Note_on_c, 2, 61, 47
4, 160000, Note_on_c, 2, 61, 0
4, 160000, Note_on_c, 2, 64, 48
4, 160256, Note_on_c, 2, 64, 0
4, 160256, Note_on_c, 2, 69, 49
4, 160512, Note_on_c, 2, 69, 0
4, 160512, Note_on_c, 2, 67, 50
4, 160768, Note_on_c, 2, 67, 0
4, 160768, Note_on_c, 2, 66, 51
4, 161280, Note_on_c, 2, 66, 0
4, 161280, Note_on_c, 2, 64, 52
4, 161792, Note_on_c, 2, 64, 0
4, 161792, Note_on_c, 2, 62, 54
4, 162176, Note_on_c, 2, 62, 0
4, 162304, Note_on_c, 2, 64, 55
4, 162816, Note_on_c, 2, 64, 0
4, 162816, Note_on_c, 2, 66, 57
4, 163328, Note_on_c, 2, 66, 0
4, 163328, Note_on_c, 2, 69, 59
4, 163840, Note_on_c, 2, 69, 0
4, 163840, Note_on_c, 2, 74, 65
4, 165376, Note_on_c, 2, 74, 0
4, 165376, Note_on_c, 2, 75, 64
4, 165760, Note_on_c, 2, 75, 0
4, 165888, Note_on_c, 2, 66, 61
4, 166400, Note_on_c, 2, 66, 0
4, 166400, Note_on_c, 2, 67, 59
4, 166784, Note_on_c, 2, 67, 0
4, 166912, Note_on_c, 2, 67, 57
4, 167424, Note_on_c, 2, 67, 0
4, 167424, Note_on_c, 2, 63, 55
4, 167808, Note_on_c, 2, 63, 0
4, 167936, Note_on_c, 2, 59, 53
4, 168448, Note_on_c, 2, 59, 0
4, 168448, Note_on_c, 2, 60, 51
4, 168832, Note_on_c, 2, 60, 0
4, 168960, Note_on_c, 2, 60, 49
4, 169472, Note_on_c, 2, 60, 0
4, 169472, Note_on_c, 2, 72, 58
4, 170496, Note_on_c, 2, 72, 0
4, 170496, Note_on_c, 2, 70, 58
4, 170752, Note_on_c, 2, 70, 0
4, 170752, Note_on_c, 2, 69, 57
4, 171008, Note_on_c, 2, 69, 0
4, 171008, Note_on_c, 2, 74, 56
4, 171264, Note_on_c, 2, 74, 0
4, 171264, Note_on_c, 2, 70, 55
4, 171520, Note_on_c, 2, 70, 0
4, 171520, Note_on_c, 2, 69, 54
4, 171776, Note_on_c, 2, 69, 0
4, 171776, Note_on_c, 2, 67, 53
4, 172032, Note_on_c, 2, 67, 0
4, 172032, Note_on_c, 2, 70, 52
4, 172544, Note_on_c, 2, 70, 0
4, 172544, Note_on_c, 2, 69, 49
4, 173056, Note_on_c, 2, 69, 0
4, 173056, Note_on_c, 2, 67, 47
4, 173568, Note_on_c, 2, 67, 0
4, 173568, Note_on_c, 2, 68, 50
4, 174490, Note_on_c, 2, 68, 0
4, 174592, Note_on_c, 2, 67, 49
4, 174848, Note_on_c, 2, 67, 0
4, 174848, Note_on_c, 2, 65, 48
4, 175104, Note_on_c, 2, 65, 0
4, 175104, Note_on_c, 2, 63, 48
4, 175616, Note_on_c, 2, 63, 0
4, 175616, Note_on_c, 2, 59, 47
4, 176128, Note_on_c, 2, 59, 0
4, 176128, Note_on_c, 2, 60, 46
4, 176512, Note_on_c, 2, 60, 0
4, 176640, Note_on_c, 2, 67, 46
4, 177152, Note_on_c, 2, 67, 0
4, 177152, Note_on_c, 2, 66, 45
4, 177408, Note_on_c, 2, 66, 0
4, 177408, Note_on_c, 2, 67, 46
4, 177664, Note_on_c, 2, 67, 0
4, 177664, Note_on_c, 2, 69, 46
4, 178048, Note_on_c, 2, 69, 0
4, 178688, Note_on_c, 2, 63, 43
4, 178944, Note_on_c, 2, 63, 0
4, 178944, Note_on_c, 2, 62, 43
4, 179200, Note_on_c, 2, 62, 0
4, 179200, Note_on_c, 2, 72, 42
4, 179456, Note_on_c, 2, 72, 0
4, 179456, Note_on_c, 2, 70, 42
4, 179712, Note_on_c, 2, 70, 0
4, 179712, Note_on_c, 2, 69, 41
4, 179968, Note_on_c, 2, 69, 0
4, 179968, Note_on_c, 2, 67, 41
4, 180224, Note_on_c, 2, 67, 0
4, 180224, Note_on_c, 2, 67, 40
4, 180352, Note_on_c, 2, 67, 0
4, 180352, Note_on_c, 2, 66, 40
4, 180480, Note_on_c, 2, 66, 0
4, 180480, Note_on_c, 2, 67, 40
4, 180544, Note_on_c, 2, 67, 0
4, 180544, Note_on_c, 2, 66, 39
4, 180608, Note_on_c, 2, 66, 0
4, 180608, Note_on_c, 2, 67, 39
4, 180672, Note_on_c, 2, 67, 0
4, 180672, Note_on_c, 2, 66, 39
4, 180736, Note_on_c, 2, 66, 0
4, 180736, Note_on_c, 2, 67, 39
4, 180800, Note_on_c, 2, 67, 0
4, 180800, Note_on_c, 2, 66, 39
4, 180864, Note_on_c, 2, 66, 0
4, 180864, Note_on_c, 2, 67, 39
4, 180928, Note_on_c, 2, 67, 0
4, 180928, Note_on_c, 2, 66, 39
4, 180992, Note_on_c, 2, 66, 0
4, 180992, Note_on_c, 2, 67, 38
4, 181184, Note_on_c, 2, 67, 0
4, 181248, Note_on_c, 2, 67, 38
4, 182272, Note_on_c, 2, 67, 0
4, 199811, Control_c, 2, 121, 127
4, 201728, End_track
5, 0, Start_track
5, 0, Title_t, "Continuo"
5, 0, Program_c, 3, 74
5, 0, Control_c, 3, 121, 127
5, 0, Control_c, 3, 91, 127
5, 0, Control_c, 3, 1, 10
5, 0, Control_c, 3, 10, 50
5, 0, Control_c, 3, 11, 80
5, 1024, Note_on_c, 3, 55, 37
5, 1024, Note_on_c, 3, 58, 37
5, 1408, Note_on_c, 3, 55, 0
5, 1408, Note_on_c, 3, 58, 0
5, 2048, Note_on_c, 3, 54, 38
5, 2048, Note_on_c, 3, 57, 38
5, 2432, Note_on_c, 3, 54, 0
5, 2432, Note_on_c, 3, 57, 0
5, 3072, Note_on_c, 3, 55, 39
5, 3072, Note_on_c, 3, 58, 39
5, 3456, Note_on_c, 3, 55, 0
5, 3456, Note_on_c, 3, 58, 0
5, 4096, Note_on_c, 3, 52, 41
5, 4096, Note_on_c, 3, 55, 41
5, 4480, Note_on_c, 3, 52, 0
5, 4480, Note_on_c, 3, 55, 0
5, 5120, Note_on_c, 3, 54, 42
5, 5120, Note_on_c, 3, 60, 42
5, 5504, Note_on_c, 3, 54, 0
5, 5504, Note_on_c, 3, 60, 0
5, 6144, Note_on_c, 3, 50, 43
5, 6144, Note_on_c, 3, 54, 43
5, 6144, Note_on_c, 3, 62, 43
5, 6528, Note_on_c, 3, 50, 0
5, 6528, Note_on_c, 3, 54, 0
5, 6528, Note_on_c, 3, 62, 0
5, 7168, Note_on_c, 3, 55, 42
5, 7168, Note_on_c, 3, 62, 42
5, 7552, Note_on_c, 3, 55, 0
5, 7552, Note_on_c, 3, 62, 0
5, 8192, Note_on_c, 3, 48, 40
5, 8192, Note_on_c, 3, 51, 40
5, 8576, Note_on_c, 3, 48, 0
5, 8576, Note_on_c, 3, 51, 0
5, 9216, Note_on_c, 3, 50, 37
5, 9216, Note_on_c, 3, 57, 37
5, 9600, Note_on_c, 3, 50, 0
5, 9600, Note_on_c, 3, 57, 0
5, 10240, Note_on_c, 3, 54, 35
5, 10240, Note_on_c, 3, 57, 35
5, 10624, Note_on_c, 3, 54, 0
5, 10624, Note_on_c, 3, 57, 0
5, 11264, Note_on_c, 3, 55, 38
5, 11264, Note_on_c, 3, 62, 38
5, 11648, Note_on_c, 3, 55, 0
5, 11648, Note_on_c, 3, 62, 0
5, 12288, Note_on_c, 3, 58, 37
5, 12288, Note_on_c, 3, 62, 37
5, 12672, Note_on_c, 3, 58, 0
5, 12672, Note_on_c, 3, 62, 0
5, 13312, Note_on_c, 3, 57, 40
5, 13312, Note_on_c, 3, 61, 40
5, 13696, Note_on_c, 3, 57, 0
5, 13696, Note_on_c, 3, 61, 0
5, 14336, Note_on_c, 3, 55, 41
5, 14336, Note_on_c, 3, 61, 41
5, 14336, Note_on_c, 3, 64, 41
5, 14720, Note_on_c, 3, 55, 0
5, 14720, Note_on_c, 3, 61, 0
5, 14720, Note_on_c, 3, 64, 0
5, 15360, Note_on_c, 3, 65, 46
5, 15360, Note_on_c, 3, 53, 46
5, 15360, Note_on_c, 3, 57, 46
5, 15744, Note_on_c, 3, 53, 0
5, 15744, Note_on_c, 3, 57, 0
5, 15872, Note_on_c, 3, 50, 41
5, 16256, Note_on_c, 3, 50, 0
5, 16282, Note_on_c, 3, 65, 0
5, 16384, Note_on_c, 3, 62, 39
5, 16384, Note_on_c, 3, 57, 39
5, 16768, Note_on_c, 3, 57, 0
5, 16896, Note_on_c, 3, 62, 0
5, 16896, Note_on_c, 3, 61, 36
5, 16896, Note_on_c, 3, 45, 36
5, 16896, Note_on_c, 3, 55, 36
5, 17280, Note_on_c, 3, 45, 0
5, 17280, Note_on_c, 3, 55, 0
5, 17408, Note_on_c, 3, 61, 0
5, 17408, Note_on_c, 3, 62, 33
5, 17408, Note_on_c, 3, 50, 33
5, 17408, Note_on_c, 3, 53, 33
5, 17920, Note_on_c, 3, 50, 0
5, 17920, Note_on_c, 3, 53, 0
5, 17920, Note_on_c, 3, 52, 35
5, 17920, Note_on_c, 3, 55, 35
5, 18432, Note_on_c, 3, 62, 0
5, 18432, Note_on_c, 3, 52, 0
5, 18432, Note_on_c, 3, 55, 0
5, 18432, Note_on_c, 3, 53, 36
5, 18432, Note_on_c, 3, 57, 36
5, 18944, Note_on_c, 3, 53, 0
5, 18944, Note_on_c, 3, 57, 0
5, 18944, Note_on_c, 3, 56, 37
5, 19456, Note_on_c, 3, 56, 0
5, 19456, Note_on_c, 3, 55, 38
5, 19456, Note_on_c, 3, 62, 38
5, 19840, Note_on_c, 3, 55, 0
5, 19840, Note_on_c, 3, 62, 0
5, 20480, Note_on_c, 3, 47, 39
5, 20480, Note_on_c, 3, 50, 39
5, 20480, Note_on_c, 3, 55, 39
5, 20864, Note_on_c, 3, 47, 0
5, 20864, Note_on_c, 3, 50, 0
5, 20864, Note_on_c, 3, 55, 0
5, 21504, Note_on_c, 3, 48, 41
5, 21504, Note_on_c, 3, 55, 41
5, 21888, Note_on_c, 3, 48, 0
5, 21888, Note_on_c, 3, 55, 0
5, 22528, Note_on_c, 3, 51, 43
5, 22528, Note_on_c, 3, 60, 43
5, 22912, Note_on_c, 3, 51, 0
5, 22912, Note_on_c, 3, 60, 0
5, 23552, Note_on_c, 3, 50, 45
5, 23552, Note_on_c, 3, 57, 45
5, 23552, Note_on_c, 3, 60, 45
5, 23936, Note_on_c, 3, 50, 0
5, 23936, Note_on_c, 3, 57, 0
5, 23936, Note_on_c, 3, 60, 0
5, 24576, Note_on_c, 3, 54, 43
5, 24576, Note_on_c, 3, 57, 43
5, 24576, Note_on_c, 3, 63, 43
5, 24960, Note_on_c, 3, 54, 0
5, 24960, Note_on_c, 3, 57, 0
5, 24960, Note_on_c, 3, 63, 0
5, 25600, Note_on_c, 3, 55, 40
5, 25600, Note_on_c, 3, 62, 40
5, 25984, Note_on_c, 3, 55, 0
5, 25984, Note_on_c, 3, 62, 0
5, 26624, Note_on_c, 3, 46, 37
5, 26624, Note_on_c, 3, 55, 37
5, 27008, Note_on_c, 3, 46, 0
5, 27008, Note_on_c, 3, 55, 0
5, 27648, Note_on_c, 3, 49, 37
5, 27648, Note_on_c, 3, 52, 37
5, 28032, Note_on_c, 3, 49, 0
5, 28032, Note_on_c, 3, 52, 0
5, 28672, Note_on_c, 3, 45, 43
5, 28672, Note_on_c, 3, 49, 43
5, 28672, Note_on_c, 3, 55, 43
5, 29056, Note_on_c, 3, 45, 0
5, 29056, Note_on_c, 3, 49, 0
5, 29056, Note_on_c, 3, 55, 0
5, 29696, Note_on_c, 3, 50, 50
5, 29696, Note_on_c, 3, 57, 50
5, 30080, Note_on_c, 3, 50, 0
5, 30080, Note_on_c, 3, 57, 0
5, 30720, Note_on_c, 3, 54, 51
5, 30720, Note_on_c, 3, 57, 51
5, 30720, Note_on_c, 3, 60, 51
5, 31104, Note_on_c, 3, 54, 0
5, 31104, Note_on_c, 3, 57, 0
5, 31104, Note_on_c, 3, 60, 0
5, 31744, Note_on_c, 3, 58, 46
5, 31744, Note_on_c, 3, 62, 46
5, 31744, Note_on_c, 3, 67, 46
5, 31744, Note_on_c, 3, 55, 46
5, 32128, Note_on_c, 3, 55, 0
5, 32256, Note_on_c, 3, 46, 43
5, 32640, Note_on_c, 3, 46, 0
5, 32666, Note_on_c, 3, 58, 0
5, 32666, Note_on_c, 3, 62, 0
5, 32666, Note_on_c, 3, 67, 0
5, 32768, Note_on_c, 3, 62, 40
5, 32768, Note_on_c, 3, 50, 40
5, 32768, Note_on_c, 3, 55, 40
5, 32768, Note_on_c, 3, 58, 40
5, 33152, Note_on_c, 3, 50, 0
5, 33152, Note_on_c, 3, 55, 0
5, 33152, Note_on_c, 3, 58, 0
5, 33280, Note_on_c, 3, 62, 0
5, 33280, Note_on_c, 3, 60, 38
5, 33280, Note_on_c, 3, 38, 38
5, 33280, Note_on_c, 3, 54, 38
5, 33280, Note_on_c, 3, 57, 38
5, 33664, Note_on_c, 3, 38, 0
5, 33664, Note_on_c, 3, 54, 0
5, 33664, Note_on_c, 3, 57, 0
5, 33792, Note_on_c, 3, 60, 0
5, 33792, Note_on_c, 3, 58, 35
5, 33792, Note_on_c, 3, 62, 35
5, 33792, Note_on_c, 3, 43, 35
5, 33792, Note_on_c, 3, 55, 35
5, 34176, Note_on_c, 3, 43, 0
5, 34176, Note_on_c, 3, 55, 0
5, 34714, Note_on_c, 3, 58, 0
5, 34714, Note_on_c, 3, 62, 0
5, 34816, Note_on_c, 3, 54, 35
5, 34816, Note_on_c, 3, 62, 35
5, 35200, Note_on_c, 3, 54, 0
5, 35200, Note_on_c, 3, 62, 0
5, 35840, Note_on_c, 3, 55, 35
5, 36224, Note_on_c, 3, 55, 0
5, 36864, Note_on_c, 3, 43, 35
5, 36864, Note_on_c, 3, 55, 35
5, 37248, Note_on_c, 3, 43, 0
5, 37248, Note_on_c, 3, 55, 0
5, 37888, Note_on_c, 3, 48, 35
5, 37888, Note_on_c, 3, 55, 35
5, 38272, Note_on_c, 3, 48, 0
5, 38272, Note_on_c, 3, 55, 0
5, 38912, Note_on_c, 3, 45, 35
5, 38912, Note_on_c, 3, 60, 35
5, 39296, Note_on_c, 3, 45, 0
5, 39296, Note_on_c, 3, 60, 0
5, 39936, Note_on_c, 3, 47, 35
5, 39936, Note_on_c, 3, 55, 35
5, 40320, Note_on_c, 3, 47, 0
5, 40320, Note_on_c, 3, 55, 0
5, 40960, Note_on_c, 3, 53, 35
5, 40960, Note_on_c, 3, 55, 35
5, 41344, Note_on_c, 3, 53, 0
5, 41344, Note_on_c, 3, 55, 0
5, 41984, Note_on_c, 3, 51, 36
5, 41984, Note_on_c, 3, 55, 36
5, 42368, Note_on_c, 3, 51, 0
5, 42368, Note_on_c, 3, 55, 0
5, 43008, Note_on_c, 3, 42, 36
5, 43008, Note_on_c, 3, 57, 36
5, 43392, Note_on_c, 3, 42, 0
5, 43392, Note_on_c, 3, 57, 0
5, 44032, Note_on_c, 3, 43, 36
5, 44032, Note_on_c, 3, 55, 36
5, 44416, Note_on_c, 3, 43, 0
5, 44416, Note_on_c, 3, 55, 0
5, 45056, Note_on_c, 3, 48, 36
5, 45440, Note_on_c, 3, 48, 0
5, 46080, Note_on_c, 3, 42, 35
5, 46464, Note_on_c, 3, 42, 0
5, 47104, Note_on_c, 3, 54, 39
5, 47104, Note_on_c, 3, 57, 39
5, 47488, Note_on_c, 3, 54, 0
5, 47488, Note_on_c, 3, 57, 0
5, 48128, Note_on_c, 3, 55, 43
5, 48512, Note_on_c, 3, 55, 0
5, 49152, Note_on_c, 3, 51, 41
5, 49536, Note_on_c, 3, 51, 0
5, 50176, Note_on_c, 3, 62, 37
5, 50176, Note_on_c, 3, 50, 37
5, 50560, Note_on_c, 3, 50, 0
5, 50688, Note_on_c, 3, 62, 0
5, 50688, Note_on_c, 3, 57, 39
5, 50688, Note_on_c, 3, 48, 39
5, 51072, Note_on_c, 3, 48, 0
5, 51200, Note_on_c, 3, 57, 0
5, 51200, Note_on_c, 3, 62, 40
5, 51200, Note_on_c, 3, 46, 40
5, 51200, Note_on_c, 3, 50, 40
5, 51584, Note_on_c, 3, 62, 0
5, 51584, Note_on_c, 3, 46, 0
5, 51712, Note_on_c, 3, 60, 41
5, 51712, Note_on_c, 3, 42, 41
5, 52096, Note_on_c, 3, 42, 0
5, 52224, Note_on_c, 3, 60, 0
5, 52224, Note_on_c, 3, 58, 41
5, 52224, Note_on_c, 3, 43, 41
5, 52608, Note_on_c, 3, 58, 0
5, 52608, Note_on_c, 3, 43, 0
5, 52608, Note_on_c, 3, 50, 0
5, 53248, Note_on_c, 3, 51, 43
5, 53248, Note_on_c, 3, 55, 43
5, 53632, Note_on_c, 3, 51, 0
5, 53632, Note_on_c, 3, 55, 0
5, 54272, Note_on_c, 3, 57, 45
5, 54272, Note_on_c, 3, 62, 45
5, 54272, Note_on_c, 3, 42, 45
5, 54272, Note_on_c, 3, 50, 45
5, 54656, Note_on_c, 3, 57, 0
5, 54656, Note_on_c, 3, 62, 0
5, 54656, Note_on_c, 3, 42, 0
5, 54656, Note_on_c, 3, 50, 0
5, 55296, Note_on_c, 3, 62, 46
5, 55296, Note_on_c, 3, 38, 46
5, 55296, Note_on_c, 3, 50, 46
5, 55680, Note_on_c, 3, 62, 0
5, 55680, Note_on_c, 3, 38, 0
5, 55680, Note_on_c, 3, 50, 0
5, 56320, Note_on_c, 3, 58, 44
5, 56320, Note_on_c, 3, 62, 44
5, 56320, Note_on_c, 3, 43, 44
5, 56320, Note_on_c, 3, 55, 44
5, 56704, Note_on_c, 3, 58, 0
5, 56704, Note_on_c, 3, 62, 0
5, 56704, Note_on_c, 3, 43, 0
5, 56704, Note_on_c, 3, 55, 0
5, 57344, Note_on_c, 3, 48, 41
5, 57344, Note_on_c, 3, 51, 41
5, 57728, Note_on_c, 3, 48, 0
5, 57728, Note_on_c, 3, 51, 0
5, 57856, Note_on_c, 3, 67, 39
5, 58368, Note_on_c, 3, 67, 0
5, 58368, Note_on_c, 3, 57, 38
5, 58368, Note_on_c, 3, 66, 38
5, 58368, Note_on_c, 3, 50, 38
5, 58752, Note_on_c, 3, 57, 0
5, 58752, Note_on_c, 3, 66, 0
5, 58752, Note_on_c, 3, 50, 0
5, 59392, Note_on_c, 3, 62, 35
5, 59392, Note_on_c, 3, 69, 35
5, 59392, Note_on_c, 3, 54, 35
5, 59776, Note_on_c, 3, 62, 0
5, 59776, Note_on_c, 3, 69, 0
5, 59776, Note_on_c, 3, 54, 0
5, 60416, Note_on_c, 3, 62, 41
5, 60416, Note_on_c, 3, 70, 41
5, 60416, Note_on_c, 3, 55, 41
5, 60800, Note_on_c, 3, 62, 0
5, 60800, Note_on_c, 3, 70, 0
5, 60800, Note_on_c, 3, 55, 0
5, 61440, Note_on_c, 3, 62, 42
5, 61440, Note_on_c, 3, 67, 42
5, 61440, Note_on_c, 3, 58, 42
5, 61824, Note_on_c, 3, 62, 0
5, 61824, Note_on_c, 3, 67, 0
5, 61824, Note_on_c, 3, 58, 0
5, 62464, Note_on_c, 3, 61, 38
5, 62464, Note_on_c, 3, 67, 38
5, 62464, Note_on_c, 3, 57, 38
5, 62848, Note_on_c, 3, 57, 0
5, 62976, Note_on_c, 3, 61, 0
5, 62976, Note_on_c, 3, 67, 0
5, 64000, Note_on_c, 3, 67, 45
5, 64000, Note_on_c, 3, 73, 45
5, 64000, Note_on_c, 3, 52, 45
5, 64512, Note_on_c, 3, 67, 0
5, 64512, Note_on_c, 3, 73, 0
5, 64512, Note_on_c, 3, 69, 38
5, 64512, Note_on_c, 3, 74, 38
5, 64512, Note_on_c, 3, 52, 0
5, 64512, Note_on_c, 3, 53, 38
5, 64896, Note_on_c, 3, 69, 0
5, 64896, Note_on_c, 3, 74, 0
5, 64896, Note_on_c, 3, 53, 0
5, 65024, Note_on_c, 3, 62, 36
5, 65024, Note_on_c, 3, 64, 36
5, 65024, Note_on_c, 3, 70, 36
5, 65024, Note_on_c, 3, 55, 36
5, 65408, Note_on_c, 3, 55, 0
5, 65536, Note_on_c, 3, 62, 0
5, 65536, Note_on_c, 3, 64, 0
5, 65536, Note_on_c, 3, 70, 0
5, 65536, Note_on_c, 3, 62, 35
5, 65536, Note_on_c, 3, 65, 35
5, 65536, Note_on_c, 3, 69, 35
5, 65536, Note_on_c, 3, 57, 35
5, 65920, Note_on_c, 3, 62, 0
5, 65920, Note_on_c, 3, 65, 0
5, 65920, Note_on_c, 3, 69, 0
5, 65920, Note_on_c, 3, 57, 0
5, 66048, Note_on_c, 3, 61, 34
5, 66048, Note_on_c, 3, 64, 34
5, 66048, Note_on_c, 3, 67, 34
5, 66048, Note_on_c, 3, 45, 34
5, 66432, Note_on_c, 3, 45, 0
5, 66560, Note_on_c, 3, 61, 0
5, 66560, Note_on_c, 3, 64, 0
5, 66560, Note_on_c, 3, 67, 0
5, 66560, Note_on_c, 3, 57, 32
5, 66560, Note_on_c, 3, 62, 32
5, 66560, Note_on_c, 3, 65, 32
5, 66560, Note_on_c, 3, 50, 32
5, 66944, Note_on_c, 3, 57, 0
5, 66944, Note_on_c, 3, 62, 0
5, 66944, Note_on_c, 3, 65, 0
5, 66944, Note_on_c, 3, 50, 0
5, 67584, Note_on_c, 3, 53, 50
5, 67584, Note_on_c, 3, 57, 50
5, 67584, Note_on_c, 3, 62, 50
5, 67968, Note_on_c, 3, 53, 0
5, 67968, Note_on_c, 3, 57, 0
5, 67968, Note_on_c, 3, 62, 0
5, 68608, Note_on_c, 3, 55, 56
5, 68608, Note_on_c, 3, 59, 56
5, 68608, Note_on_c, 3, 62, 56
5, 68992, Note_on_c, 3, 55, 0
5, 68992, Note_on_c, 3, 59, 0
5, 68992, Note_on_c, 3, 62, 0
5, 69632, Note_on_c, 3, 58, 59
5, 69632, Note_on_c, 3, 62, 59
5, 70016, Note_on_c, 3, 58, 0
5, 70016, Note_on_c, 3, 62, 0
5, 70656, Note_on_c, 3, 49, 62
5, 70656, Note_on_c, 3, 58, 62
5, 71040, Note_on_c, 3, 49, 0
5, 71040, Note_on_c, 3, 58, 0
5, 71680, Note_on_c, 3, 45, 62
5, 71680, Note_on_c, 3, 52, 62
5, 71680, Note_on_c, 3, 57, 62
5, 72064, Note_on_c, 3, 45, 0
5, 72064, Note_on_c, 3, 52, 0
5, 72064, Note_on_c, 3, 57, 0
5, 72704, Note_on_c, 3, 50, 58
5, 72704, Note_on_c, 3, 57, 58
5, 73088, Note_on_c, 3, 50, 0
5, 73088, Note_on_c, 3, 57, 0
5, 73728, Note_on_c, 3, 46, 54
5, 73728, Note_on_c, 3, 55, 54
5, 74112, Note_on_c, 3, 46, 0
5, 74112, Note_on_c, 3, 55, 0
5, 74752, Note_on_c, 3, 45, 44
5, 74752, Note_on_c, 3, 52, 44
5, 74752, Note_on_c, 3, 55, 44
5, 75136, Note_on_c, 3, 45, 0
5, 75136, Note_on_c, 3, 52, 0
5, 75136, Note_on_c, 3, 55, 0
5, 75776, Note_on_c, 3, 49, 46
5, 75776, Note_on_c, 3, 52, 46
5, 75776, Note_on_c, 3, 57, 46
5, 76160, Note_on_c, 3, 49, 0
5, 76160, Note_on_c, 3, 52, 0
5, 76160, Note_on_c, 3, 57, 0
5, 76800, Note_on_c, 3, 50, 47
5, 76800, Note_on_c, 3, 54, 47
5, 76800, Note_on_c, 3, 57, 47
5, 77184, Note_on_c, 3, 50, 0
5, 77184, Note_on_c, 3, 54, 0
5, 77184, Note_on_c, 3, 57, 0
5, 77824, Note_on_c, 3, 38, 49
5, 77824, Note_on_c, 3, 50, 49
5, 77824, Note_on_c, 3, 62, 49
5, 78208, Note_on_c, 3, 38, 0
5, 78208, Note_on_c, 3, 50, 0
5, 78208, Note_on_c, 3, 62, 0
5, 78848, Note_on_c, 3, 50, 51
5, 78848, Note_on_c, 3, 55, 51
5, 78848, Note_on_c, 3, 62, 51
5, 79232, Note_on_c, 3, 50, 0
5, 79232, Note_on_c, 3, 55, 0
5, 79232, Note_on_c, 3, 62, 0
5, 79872, Note_on_c, 3, 53, 49
5, 79872, Note_on_c, 3, 62, 49
5, 80256, Note_on_c, 3, 53, 0
5, 80256, Note_on_c, 3, 62, 0
5, 80896, Note_on_c, 3, 52, 46
5, 80896, Note_on_c, 3, 55, 46
5, 80896, Note_on_c, 3, 61, 46
5, 81280, Note_on_c, 3, 52, 0
5, 81280, Note_on_c, 3, 55, 0
5, 81280, Note_on_c, 3, 61, 0
5, 81920, Note_on_c, 3, 49, 42
5, 81920, Note_on_c, 3, 52, 42
5, 81920, Note_on_c, 3, 57, 42
5, 82304, Note_on_c, 3, 49, 0
5, 82304, Note_on_c, 3, 52, 0
5, 82304, Note_on_c, 3, 57, 0
5, 82944, Note_on_c, 3, 50, 39
5, 82944, Note_on_c, 3, 57, 39
5, 83328, Note_on_c, 3, 50, 0
5, 83328, Note_on_c, 3, 57, 0
5, 83968, Note_on_c, 3, 47, 35
5, 83968, Note_on_c, 3, 56, 35
5, 84352, Note_on_c, 3, 47, 0
5, 84352, Note_on_c, 3, 56, 0
5, 84992, Note_on_c, 3, 52, 35
5, 84992, Note_on_c, 3, 56, 35
5, 84992, Note_on_c, 3, 59, 35
5, 85376, Note_on_c, 3, 52, 0
5, 85376, Note_on_c, 3, 56, 0
5, 85376, Note_on_c, 3, 59, 0
5, 86016, Note_on_c, 3, 40, 40
5, 86016, Note_on_c, 3, 52, 40
5, 86016, Note_on_c, 3, 64, 40
5, 86400, Note_on_c, 3, 40, 0
5, 86400, Note_on_c, 3, 52, 0
5, 86400, Note_on_c, 3, 64, 0
5, 87040, Note_on_c, 3, 67, 46
5, 87040, Note_on_c, 3, 45, 46
5, 87040, Note_on_c, 3, 52, 46
5, 87424, Note_on_c, 3, 67, 0
5, 87424, Note_on_c, 3, 45, 0
5, 87424, Note_on_c, 3, 52, 0
5, 88064, Note_on_c, 3, 67, 38
5, 88064, Note_on_c, 3, 49, 38
5, 88064, Note_on_c, 3, 52, 38
5, 88448, Note_on_c, 3, 67, 0
5, 88448, Note_on_c, 3, 49, 0
5, 88448, Note_on_c, 3, 52, 0
5, 88576, Note_on_c, 3, 67, 40
5, 88576, Note_on_c, 3, 73, 40
5, 89088, Note_on_c, 3, 67, 0
5, 89088, Note_on_c, 3, 73, 0
5, 89088, Note_on_c, 3, 65, 39
5, 89088, Note_on_c, 3, 74, 39
5, 89088, Note_on_c, 3, 50, 39
5, 89472, Note_on_c, 3, 50, 0
5, 89600, Note_on_c, 3, 53, 38
5, 89984, Note_on_c, 3, 53, 0
5, 90010, Note_on_c, 3, 65, 0
5, 90010, Note_on_c, 3, 74, 0
5, 90112, Note_on_c, 3, 62, 38
5, 90112, Note_on_c, 3, 65, 38
5, 90112, Note_on_c, 3, 57, 38
5, 90496, Note_on_c, 3, 57, 0
5, 90624, Note_on_c, 3, 62, 0
5, 90624, Note_on_c, 3, 65, 0
5, 90624, Note_on_c, 3, 61, 37
5, 90624, Note_on_c, 3, 64, 37
5, 90624, Note_on_c, 3, 45, 37
5, 90624, Note_on_c, 3, 55, 37
5, 90880, Note_on_c, 3, 61, 0
5, 90880, Note_on_c, 3, 64, 0
5, 90880, Note_on_c, 3, 62, 36
5, 91008, Note_on_c, 3, 45, 0
5, 91008, Note_on_c, 3, 55, 0
5, 91136, Note_on_c, 3, 62, 0
5, 91136, Note_on_c, 3, 62, 36
5, 91136, Note_on_c, 3, 50, 36
5, 91136, Note_on_c, 3, 53, 36
5, 91520, Note_on_c, 3, 50, 0
5, 91520, Note_on_c, 3, 53, 0
5, 92160, Note_on_c, 3, 62, 0
5, 92160, Note_on_c, 3, 49, 35
5, 92160, Note_on_c, 3, 52, 35
5, 92544, Note_on_c, 3, 49, 0
5, 92544, Note_on_c, 3, 52, 0
5, 93184, Note_on_c, 3, 50, 39
5, 93568, Note_on_c, 3, 50, 0
5, 94208, Note_on_c, 3, 47, 42
5, 94208, Note_on_c, 3, 55, 42
5, 94592, Note_on_c, 3, 47, 0
5, 94592, Note_on_c, 3, 55, 0
5, 95232, Note_on_c, 3, 49, 45
5, 95232, Note_on_c, 3, 55, 45
5, 95616, Note_on_c, 3, 49, 0
5, 95616, Note_on_c, 3, 55, 0
5, 96256, Note_on_c, 3, 45, 50
5, 96256, Note_on_c, 3, 49, 50
5, 96256, Note_on_c, 3, 52, 50
5, 96256, Note_on_c, 3, 57, 50
5, 96640, Note_on_c, 3, 45, 0
5, 96640, Note_on_c, 3, 49, 0
5, 96640, Note_on_c, 3, 52, 0
5, 96640, Note_on_c, 3, 57, 0
5, 97280, Note_on_c, 3, 50, 46
5, 97280, Note_on_c, 3, 53, 46
5, 97280, Note_on_c, 3, 57, 46
5, 97664, Note_on_c, 3, 50, 0
5, 97664, Note_on_c, 3, 53, 0
5, 97664, Note_on_c, 3, 57, 0
5, 98304, Note_on_c, 3, 43, 42
5, 98304, Note_on_c, 3, 51, 42
5, 98304, Note_on_c, 3, 58, 42
5, 98688, Note_on_c, 3, 43, 0
5, 98688, Note_on_c, 3, 51, 0
5, 98688, Note_on_c, 3, 58, 0
5, 99328, Note_on_c, 3, 45, 38
5, 99328, Note_on_c, 3, 52, 38
5, 99328, Note_on_c, 3, 57, 38
5, 99712, Note_on_c, 3, 45, 0
5, 99712, Note_on_c, 3, 52, 0
5, 99712, Note_on_c, 3, 57, 0
5, 100352, Note_on_c, 3, 49, 33
5, 100352, Note_on_c, 3, 52, 33
5, 100736, Note_on_c, 3, 49, 0
5, 100736, Note_on_c, 3, 52, 0
5, 101376, Note_on_c, 3, 50, 41
5, 101376, Note_on_c, 3, 57, 41
5, 101760, Note_on_c, 3, 50, 0
5, 101760, Note_on_c, 3, 57, 0
5, 102400, Note_on_c, 3, 53, 39
5, 102400, Note_on_c, 3, 57, 39
5, 102784, Note_on_c, 3, 53, 0
5, 102784, Note_on_c, 3, 57, 0
5, 103424, Note_on_c, 3, 55, 43
5, 103424, Note_on_c, 3, 62, 43
5, 103808, Note_on_c, 3, 55, 0
5, 103808, Note_on_c, 3, 62, 0
5, 104448, Note_on_c, 3, 52, 43
5, 104448, Note_on_c, 3, 55, 43
5, 104448, Note_on_c, 3, 61, 43
5, 104832, Note_on_c, 3, 52, 0
5, 104832, Note_on_c, 3, 55, 0
5, 104832, Note_on_c, 3, 61, 0
5, 105472, Note_on_c, 3, 62, 47
5, 105472, Note_on_c, 3, 65, 47
5, 105472, Note_on_c, 3, 53, 47
5, 105856, Note_on_c, 3, 53, 0
5, 105984, Note_on_c, 3, 50, 44
5, 106368, Note_on_c, 3, 50, 0
5, 106394, Note_on_c, 3, 62, 0
5, 106394, Note_on_c, 3, 65, 0
5, 106496, Note_on_c, 3, 62, 42
5, 106496, Note_on_c, 3, 65, 42
5, 106496, Note_on_c, 3, 57, 42
5, 106880, Note_on_c, 3, 57, 0
5, 107008, Note_on_c, 3, 62, 0
5, 107008, Note_on_c, 3, 65, 0
5, 107008, Note_on_c, 3, 61, 39
5, 107008, Note_on_c, 3, 64, 39
5, 107008, Note_on_c, 3, 45, 39
5, 107008, Note_on_c, 3, 55, 39
5, 107264, Note_on_c, 3, 61, 0
5, 107264, Note_on_c, 3, 64, 0
5, 107264, Note_on_c, 3, 62, 37
5, 107392, Note_on_c, 3, 45, 0
5, 107392, Note_on_c, 3, 55, 0
5, 107520, Note_on_c, 3, 62, 0
5, 107520, Note_on_c, 3, 62, 36
5, 107520, Note_on_c, 3, 50, 36
5, 107520, Note_on_c, 3, 53, 36
5, 107904, Note_on_c, 3, 50, 0
5, 107904, Note_on_c, 3, 53, 0
5, 108032, Note_on_c, 3, 62, 0
5, 108544, Note_on_c, 3, 64, 36
5, 108544, Note_on_c, 3, 49, 36
5, 108544, Note_on_c, 3, 57, 36
5, 108928, Note_on_c, 3, 49, 0
5, 108928, Note_on_c, 3, 57, 0
5, 109056, Note_on_c, 3, 64, 0
5, 109568, Note_on_c, 3, 65, 36
5, 109568, Note_on_c, 3, 50, 36
5, 109568, Note_on_c, 3, 57, 36
5, 109952, Note_on_c, 3, 50, 0
5, 109952, Note_on_c, 3, 57, 0
5, 110080, Note_on_c, 3, 65, 0
5, 110592, Note_on_c, 3, 38, 36
5, 110592, Note_on_c, 3, 50, 36
5, 110976, Note_on_c, 3, 38, 0
5, 110976, Note_on_c, 3, 50, 0
5, 111616, Note_on_c, 3, 43, 36
5, 111616, Note_on_c, 3, 50, 36
5, 112000, Note_on_c, 3, 43, 0
5, 112000, Note_on_c, 3, 50, 0
5, 112640, Note_on_c, 3, 55, 38
5, 112640, Note_on_c, 3, 62, 38
5, 113024, Note_on_c, 3, 55, 0
5, 113024, Note_on_c, 3, 62, 0
5, 113664, Note_on_c, 3, 48, 41
5, 114048, Note_on_c, 3, 48, 0
5, 114176, Note_on_c, 3, 60, 43
5, 114560, Note_on_c, 3, 60, 0
5, 114688, Note_on_c, 3, 58, 45
5, 114688, Note_on_c, 3, 62, 45
5, 115072, Note_on_c, 3, 58, 0
5, 115072, Note_on_c, 3, 62, 0
5, 115200, Note_on_c, 3, 57, 47
5, 115200, Note_on_c, 3, 60, 47
5, 115584, Note_on_c, 3, 57, 0
5, 115584, Note_on_c, 3, 60, 0
5, 115712, Note_on_c, 3, 55, 49
5, 115712, Note_on_c, 3, 58, 49
5, 116096, Note_on_c, 3, 55, 0
5, 116096, Note_on_c, 3, 58, 0
5, 116736, Note_on_c, 3, 57, 50
5, 116736, Note_on_c, 3, 60, 50
5, 117120, Note_on_c, 3, 57, 0
5, 117120, Note_on_c, 3, 60, 0
5, 117760, Note_on_c, 3, 58, 50
5, 118144, Note_on_c, 3, 58, 0
5, 118784, Note_on_c, 3, 52, 50
5, 118784, Note_on_c, 3, 55, 50
5, 119168, Note_on_c, 3, 52, 0
5, 119168, Note_on_c, 3, 55, 0
5, 119808, Note_on_c, 3, 57, 51
5, 120192, Note_on_c, 3, 57, 0
5, 120832, Note_on_c, 3, 45, 47
5, 120832, Note_on_c, 3, 52, 47
5, 120832, Note_on_c, 3, 57, 47
5, 121216, Note_on_c, 3, 45, 0
5, 121216, Note_on_c, 3, 52, 0
5, 121216, Note_on_c, 3, 57, 0
5, 121856, Note_on_c, 3, 50, 44
5, 121856, Note_on_c, 3, 57, 44
5, 122240, Note_on_c, 3, 50, 0
5, 122240, Note_on_c, 3, 57, 0
5, 122368, Note_on_c, 3, 57, 42
5, 122368, Note_on_c, 3, 48, 42
5, 122752, Note_on_c, 3, 48, 0
5, 122880, Note_on_c, 3, 57, 0
5, 122880, Note_on_c, 3, 62, 40
5, 122880, Note_on_c, 3, 46, 40
5, 123264, Note_on_c, 3, 46, 0
5, 123392, Note_on_c, 3, 62, 0
5, 123392, Note_on_c, 3, 60, 38
5, 123392, Note_on_c, 3, 45, 38
5, 123776, Note_on_c, 3, 45, 0
5, 123904, Note_on_c, 3, 60, 0
5, 123904, Note_on_c, 3, 58, 41
5, 123904, Note_on_c, 3, 43, 41
5, 123904, Note_on_c, 3, 50, 41
5, 124288, Note_on_c, 3, 58, 0
5, 124288, Note_on_c, 3, 43, 0
5, 124288, Note_on_c, 3, 50, 0
5, 124928, Note_on_c, 3, 57, 46
5, 124928, Note_on_c, 3, 42, 46
5, 124928, Note_on_c, 3, 50, 46
5, 125312, Note_on_c, 3, 57, 0
5, 125312, Note_on_c, 3, 42, 0
5, 125312, Note_on_c, 3, 50, 0
5, 125952, Note_on_c, 3, 58, 51
5, 125952, Note_on_c, 3, 43, 51
5, 125952, Note_on_c, 3, 50, 51
5, 125952, Note_on_c, 3, 55, 51
5, 126336, Note_on_c, 3, 58, 0
5, 126336, Note_on_c, 3, 43, 0
5, 126336, Note_on_c, 3, 50, 0
5, 126336, Note_on_c, 3, 55, 0
5, 126976, Note_on_c, 3, 55, 50
5, 126976, Note_on_c, 3, 58, 50
5, 127360, Note_on_c, 3, 55, 0
5, 127360, Note_on_c, 3, 58, 0
5, 128000, Note_on_c, 3, 48, 48
5, 128000, Note_on_c, 3, 60, 48
5, 128384, Note_on_c, 3, 48, 0
5, 128384, Note_on_c, 3, 60, 0
5, 129024, Note_on_c, 3, 45, 53
5, 129024, Note_on_c, 3, 51, 53
5, 129408, Note_on_c, 3, 45, 0
5, 129408, Note_on_c, 3, 51, 0
5, 130048, Note_on_c, 3, 47, 59
5, 130048, Note_on_c, 3, 50, 59
5, 130432, Note_on_c, 3, 47, 0
5, 130432, Note_on_c, 3, 50, 0
5, 131072, Note_on_c, 3, 53, 57
5, 131072, Note_on_c, 3, 55, 57
5, 131456, Note_on_c, 3, 53, 0
5, 131456, Note_on_c, 3, 55, 0
5, 132096, Note_on_c, 3, 51, 53
5, 132096, Note_on_c, 3, 55, 53
5, 132480, Note_on_c, 3, 51, 0
5, 132480, Note_on_c, 3, 55, 0
5, 133120, Note_on_c, 3, 42, 50
5, 133120, Note_on_c, 3, 57, 50
5, 133504, Note_on_c, 3, 42, 0
5, 133504, Note_on_c, 3, 57, 0
5, 134144, Note_on_c, 3, 43, 46
5, 134144, Note_on_c, 3, 55, 46
5, 134528, Note_on_c, 3, 43, 0
5, 134528, Note_on_c, 3, 55, 0
5, 135168, Note_on_c, 3, 48, 42
5, 135552, Note_on_c, 3, 48, 0
5, 136192, Note_on_c, 3, 57, 38
5, 136192, Note_on_c, 3, 42, 38
5, 137114, Note_on_c, 3, 57, 0
5, 137114, Note_on_c, 3, 42, 0
5, 137728, Note_on_c, 3, 54, 36
5, 137728, Note_on_c, 3, 57, 36
5, 138240, Note_on_c, 3, 54, 0
5, 138240, Note_on_c, 3, 57, 0
5, 138240, Note_on_c, 3, 55, 38
5, 138240, Note_on_c, 3, 58, 38
5, 138624, Note_on_c, 3, 55, 0
5, 138624, Note_on_c, 3, 58, 0
5, 139264, Note_on_c, 3, 52, 40
5, 139264, Note_on_c, 3, 55, 40
5, 139648, Note_on_c, 3, 52, 0
5, 139648, Note_on_c, 3, 55, 0
5, 140288, Note_on_c, 3, 54, 43
5, 140288, Note_on_c, 3, 57, 43
5, 140672, Note_on_c, 3, 54, 0
5, 140672, Note_on_c, 3, 57, 0
5, 141312, Note_on_c, 3, 50, 46
5, 141312, Note_on_c, 3, 54, 46
5, 141312, Note_on_c, 3, 57, 46
5, 141696, Note_on_c, 3, 50, 0
5, 141696, Note_on_c, 3, 54, 0
5, 141696, Note_on_c, 3, 57, 0
5, 142336, Note_on_c, 3, 55, 48
5, 142336, Note_on_c, 3, 58, 48
5, 142720, Note_on_c, 3, 55, 0
5, 142720, Note_on_c, 3, 58, 0
5, 143360, Note_on_c, 3, 48, 48
5, 143360, Note_on_c, 3, 51, 48
5, 143744, Note_on_c, 3, 48, 0
5, 143744, Note_on_c, 3, 51, 0
5, 144384, Note_on_c, 3, 50, 42
5, 144384, Note_on_c, 3, 57, 42
5, 144768, Note_on_c, 3, 50, 0
5, 144768, Note_on_c, 3, 57, 0
5, 145408, Note_on_c, 3, 54, 36
5, 145408, Note_on_c, 3, 57, 36
5, 145792, Note_on_c, 3, 54, 0
5, 145792, Note_on_c, 3, 57, 0
5, 146432, Note_on_c, 3, 55, 37
5, 146432, Note_on_c, 3, 59, 37
5, 146816, Note_on_c, 3, 55, 0
5, 146816, Note_on_c, 3, 59, 0
5, 147456, Note_on_c, 3, 43, 37
5, 147456, Note_on_c, 3, 55, 37
5, 147840, Note_on_c, 3, 43, 0
5, 147840, Note_on_c, 3, 55, 0
5, 147968, Note_on_c, 3, 65, 37
5, 148480, Note_on_c, 3, 65, 0
5, 148480, Note_on_c, 3, 55, 37
5, 148480, Note_on_c, 3, 63, 37
5, 148864, Note_on_c, 3, 55, 0
5, 148864, Note_on_c, 3, 63, 0
5, 149504, Note_on_c, 3, 56, 38
5, 149888, Note_on_c, 3, 56, 0
5, 150528, Note_on_c, 3, 50, 38
5, 150528, Note_on_c, 3, 55, 38
5, 150912, Note_on_c, 3, 50, 0
5, 150912, Note_on_c, 3, 55, 0
5, 151552, Note_on_c, 3, 55, 38
5, 151552, Note_on_c, 3, 59, 38
5, 151936, Note_on_c, 3, 55, 0
5, 151936, Note_on_c, 3, 59, 0
5, 152576, Note_on_c, 3, 48, 39
5, 152576, Note_on_c, 3, 60, 39
5, 152960, Note_on_c, 3, 48, 0
5, 152960, Note_on_c, 3, 60, 0
5, 153088, Note_on_c, 3, 50, 39
5, 153088, Note_on_c, 3, 56, 39
5, 153472, Note_on_c, 3, 50, 0
5, 153472, Note_on_c, 3, 56, 0
5, 153600, Note_on_c, 3, 51, 39
5, 153600, Note_on_c, 3, 55, 39
5, 153984, Note_on_c, 3, 51, 0
5, 153984, Note_on_c, 3, 55, 0
5, 154112, Note_on_c, 3, 50, 39
5, 154112, Note_on_c, 3, 53, 39
5, 154496, Note_on_c, 3, 50, 0
5, 154496, Note_on_c, 3, 53, 0
5, 154624, Note_on_c, 3, 49, 32
5, 154624, Note_on_c, 3, 52, 32
5, 155008, Note_on_c, 3, 49, 0
5, 155008, Note_on_c, 3, 52, 0
5, 155136, Note_on_c, 3, 47, 33
5, 155136, Note_on_c, 3, 50, 33
5, 155520, Note_on_c, 3, 47, 0
5, 155520, Note_on_c, 3, 50, 0
5, 155648, Note_on_c, 3, 49, 35
5, 155648, Note_on_c, 3, 52, 35
5, 156032, Note_on_c, 3, 49, 0
5, 156032, Note_on_c, 3, 52, 0
5, 156160, Note_on_c, 3, 61, 36
5, 156544, Note_on_c, 3, 61, 0
5, 156672, Note_on_c, 3, 62, 38
5, 157056, Note_on_c, 3, 62, 0
5, 157184, Note_on_c, 3, 58, 39
5, 157568, Note_on_c, 3, 58, 0
5, 157696, Note_on_c, 3, 57, 41
5, 158080, Note_on_c, 3, 57, 0
5, 158208, Note_on_c, 3, 56, 43
5, 158592, Note_on_c, 3, 56, 0
5, 158720, Note_on_c, 3, 57, 44
5, 159104, Note_on_c, 3, 57, 0
5, 159744, Note_on_c, 3, 45, 47
5, 159744, Note_on_c, 3, 52, 47
5, 159744, Note_on_c, 3, 57, 47
5, 159744, Note_on_c, 3, 61, 47
5, 160128, Note_on_c, 3, 45, 0
5, 160128, Note_on_c, 3, 52, 0
5, 160128, Note_on_c, 3, 57, 0
5, 160128, Note_on_c, 3, 61, 0
5, 160768, Note_on_c, 3, 50, 51
5, 160768, Note_on_c, 3, 54, 51
5, 160768, Note_on_c, 3, 62, 51
5, 161152, Note_on_c, 3, 50, 0
5, 161152, Note_on_c, 3, 54, 0
5, 161152, Note_on_c, 3, 62, 0
5, 161280, Note_on_c, 3, 52, 52
5, 161280, Note_on_c, 3, 55, 52
5, 161664, Note_on_c, 3, 52, 0
5, 161664, Note_on_c, 3, 55, 0
5, 161792, Note_on_c, 3, 54, 54
5, 161792, Note_on_c, 3, 57, 54
5, 162176, Note_on_c, 3, 54, 0
5, 162176, Note_on_c, 3, 57, 0
5, 162304, Note_on_c, 3, 55, 55
5, 162304, Note_on_c, 3, 58, 55
5, 162688, Note_on_c, 3, 55, 0
5, 162688, Note_on_c, 3, 58, 0
5, 162816, Note_on_c, 3, 57, 57
5, 162816, Note_on_c, 3, 60, 57
5, 163200, Note_on_c, 3, 57, 0
5, 163200, Note_on_c, 3, 60, 0
5, 163328, Note_on_c, 3, 55, 59
5, 163328, Note_on_c, 3, 58, 59
5, 163712, Note_on_c, 3, 55, 0
5, 163712, Note_on_c, 3, 58, 0
5, 163840, Note_on_c, 3, 54, 65
5, 163840, Note_on_c, 3, 57, 65
5, 164224, Note_on_c, 3, 54, 0
5, 164224, Note_on_c, 3, 57, 0
5, 164352, Note_on_c, 3, 52, 71
5, 164352, Note_on_c, 3, 62, 71
5, 164736, Note_on_c, 3, 52, 0
5, 164736, Note_on_c, 3, 62, 0
5, 164864, Note_on_c, 3, 54, 68
5, 164864, Note_on_c, 3, 62, 68
5, 165248, Note_on_c, 3, 54, 0
5, 165248, Note_on_c, 3, 62, 0
5, 165888, Note_on_c, 3, 50, 61
5, 165888, Note_on_c, 3, 54, 61
5, 165888, Note_on_c, 3, 62, 61
5, 166272, Note_on_c, 3, 50, 0
5, 166272, Note_on_c, 3, 54, 0
5, 166272, Note_on_c, 3, 62, 0
5, 166912, Note_on_c, 3, 55, 57
5, 166912, Note_on_c, 3, 62, 57
5, 167296, Note_on_c, 3, 55, 0
5, 167296, Note_on_c, 3, 62, 0
5, 167936, Note_on_c, 3, 51, 53
5, 167936, Note_on_c, 3, 55, 53
5, 168320, Note_on_c, 3, 51, 0
5, 168320, Note_on_c, 3, 55, 0
5, 168960, Note_on_c, 3, 50, 49
5, 168960, Note_on_c, 3, 57, 49
5, 169344, Note_on_c, 3, 50, 0
5, 169344, Note_on_c, 3, 57, 0
5, 169984, Note_on_c, 3, 54, 61
5, 169984, Note_on_c, 3, 57, 61
5, 170368, Note_on_c, 3, 54, 0
5, 170368, Note_on_c, 3, 57, 0
5, 170496, Note_on_c, 3, 62, 58
5, 170880, Note_on_c, 3, 62, 0
5, 171008, Note_on_c, 3, 67, 56
5, 171008, Note_on_c, 3, 74, 56
5, 171008, Note_on_c, 3, 46, 56
5, 171008, Note_on_c, 3, 55, 56
5, 171392, Note_on_c, 3, 67, 0
5, 171392, Note_on_c, 3, 74, 0
5, 171392, Note_on_c, 3, 46, 0
5, 171392, Note_on_c, 3, 55, 0
5, 171520, Note_on_c, 3, 67, 54
5, 171520, Note_on_c, 3, 72, 54
5, 171520, Note_on_c, 3, 51, 54
5, 171520, Note_on_c, 3, 55, 54
5, 171904, Note_on_c, 3, 51, 0
5, 172032, Note_on_c, 3, 72, 0
5, 172032, Note_on_c, 3, 70, 52
5, 172032, Note_on_c, 3, 48, 52
5, 172416, Note_on_c, 3, 67, 0
5, 172416, Note_on_c, 3, 70, 0
5, 172416, Note_on_c, 3, 48, 0
5, 172416, Note_on_c, 3, 55, 0
5, 172544, Note_on_c, 3, 66, 49
5, 172544, Note_on_c, 3, 69, 49
5, 172544, Note_on_c, 3, 50, 49
5, 172544, Note_on_c, 3, 60, 49
5, 172928, Note_on_c, 3, 50, 0
5, 172928, Note_on_c, 3, 60, 0
5, 173056, Note_on_c, 3, 66, 0
5, 173056, Note_on_c, 3, 69, 0
5, 173056, Note_on_c, 3, 67, 47
5, 173056, Note_on_c, 3, 51, 47
5, 173056, Note_on_c, 3, 58, 47
5, 173440, Note_on_c, 3, 67, 0
5, 173440, Note_on_c, 3, 51, 0
5, 173440, Note_on_c, 3, 58, 0
5, 173568, Note_on_c, 3, 50, 50
5, 173568, Note_on_c, 3, 59, 50
5, 173824, Note_on_c, 3, 50, 0
5, 173824, Note_on_c, 3, 59, 0
5, 173824, Note_on_c, 3, 48, 50
5, 173824, Note_on_c, 3, 60, 50
5, 174080, Note_on_c, 3, 48, 0
5, 174080, Note_on_c, 3, 60, 0
5, 174080, Note_on_c, 3, 47, 49
5, 174080, Note_on_c, 3, 53, 49
5, 174464, Note_on_c, 3, 47, 0
5, 174464, Note_on_c, 3, 53, 0
5, 174592, Note_on_c, 3, 43, 49
5, 174592, Note_on_c, 3, 55, 49
5, 174976, Note_on_c, 3, 43, 0
5, 174976, Note_on_c, 3, 55, 0
5, 175104, Note_on_c, 3, 48, 48
5, 175104, Note_on_c, 3, 55, 48
5, 175488, Note_on_c, 3, 48, 0
5, 175488, Note_on_c, 3, 55, 0
5, 176128, Note_on_c, 3, 67, 46
5, 176128, Note_on_c, 3, 72, 46
5, 176128, Note_on_c, 3, 51, 46
5, 176128, Note_on_c, 3, 55, 46
5, 176512, Note_on_c, 3, 51, 0
5, 176512, Note_on_c, 3, 55, 0
5, 176640, Note_on_c, 3, 67, 0
5, 176640, Note_on_c, 3, 72, 0
5, 177152, Note_on_c, 3, 66, 45
5, 177152, Note_on_c, 3, 69, 45
5, 177152, Note_on_c, 3, 50, 45
5, 177152, Note_on_c, 3, 57, 45
5, 177536, Note_on_c, 3, 66, 0
5, 177536, Note_on_c, 3, 69, 0
5, 177536, Note_on_c, 3, 50, 0
5, 177536, Note_on_c, 3, 57, 0
5, 177664, Note_on_c, 3, 69, 46
5, 177664, Note_on_c, 3, 75, 46
5, 177664, Note_on_c, 3, 48, 46
5, 177664, Note_on_c, 3, 54, 46
5, 178176, Note_on_c, 3, 69, 0
5, 178176, Note_on_c, 3, 75, 0
5, 178176, Note_on_c, 3, 62, 45
5, 178176, Note_on_c, 3, 74, 45
5, 178176, Note_on_c, 3, 48, 0
5, 178176, Note_on_c, 3, 54, 0
5, 178176, Note_on_c, 3, 46, 45
5, 178176, Note_on_c, 3, 55, 45
5, 178560, Note_on_c, 3, 62, 0
5, 178560, Note_on_c, 3, 74, 0
5, 178560, Note_on_c, 3, 46, 0
5, 178560, Note_on_c, 3, 55, 0
5, 178688, Note_on_c, 3, 66, 43
5, 178688, Note_on_c, 3, 72, 43
5, 178688, Note_on_c, 3, 45, 43
5, 178688, Note_on_c, 3, 50, 43
5, 179200, Note_on_c, 3, 66, 0
5, 179200, Note_on_c, 3, 72, 0
5, 179200, Note_on_c, 3, 67, 42
5, 179200, Note_on_c, 3, 70, 42
5, 179200, Note_on_c, 3, 45, 0
5, 179200, Note_on_c, 3, 43, 42
5, 179584, Note_on_c, 3, 67, 0
5, 179584, Note_on_c, 3, 70, 0
5, 179584, Note_on_c, 3, 43, 0
5, 179584, Note_on_c, 3, 50, 0
5, 179712, Note_on_c, 3, 67, 41
5, 179712, Note_on_c, 3, 75, 41
5, 179712, Note_on_c, 3, 48, 41
5, 179712, Note_on_c, 3, 57, 41
5, 180224, Note_on_c, 3, 67, 0
5, 180224, Note_on_c, 3, 75, 0
5, 180224, Note_on_c, 3, 66, 40
5, 180224, Note_on_c, 3, 74, 40
5, 180224, Note_on_c, 3, 48, 0
5, 180224, Note_on_c, 3, 50, 40
5, 180608, Note_on_c, 3, 66, 0
5, 180608, Note_on_c, 3, 74, 0
5, 180608, Note_on_c, 3, 50, 0
5, 180608, Note_on_c, 3, 57, 0
5, 180736, Note_on_c, 3, 60, 39
5, 180736, Note_on_c, 3, 62, 39
5, 180736, Note_on_c, 3, 66, 39
5, 180736, Note_on_c, 3, 38, 39
5, 180736, Note_on_c, 3, 50, 39
5, 181248, Note_on_c, 3, 60, 0
5, 181248, Note_on_c, 3, 62, 0
5, 181248, Note_on_c, 3, 66, 0
5, 181248, Note_on_c, 3, 38, 0
5, 181248, Note_on_c, 3, 50, 0
5, 181248, Note_on_c, 3, 58, 38
5, 181248, Note_on_c, 3, 62, 38
5, 181248, Note_on_c, 3, 67, 38
5, 181248, Note_on_c, 3, 43, 38
5, 181248, Note_on_c, 3, 55, 38
5, 181632, Note_on_c, 3, 43, 0
5, 181632, Note_on_c, 3, 55, 0
5, 181760, Note_on_c, 3, 58, 0
5, 181760, Note_on_c, 3, 62, 0
5, 181760, Note_on_c, 3, 67, 0
5, 181760, Note_on_c, 3, 55, 36
5, 181760, Note_on_c, 3, 58, 36
5, 182144, Note_on_c, 3, 55, 0
5, 182144, Note_on_c, 3, 58, 0
5, 182272, Note_on_c, 3, 53, 38
5, 182272, Note_on_c, 3, 57, 38
5, 182656, Note_on_c, 3, 53, 0
5, 182656, Note_on_c, 3, 57, 0
5, 182784, Note_on_c, 3, 60, 40
5, 182784, Note_on_c, 3, 51, 40
5, 182784, Note_on_c, 3, 55, 40
5, 183168, Note_on_c, 3, 51, 0
5, 183168, Note_on_c, 3, 55, 0
5, 183296, Note_on_c, 3, 60, 0
5, 183296, Note_on_c, 3, 59, 42
5, 183296, Note_on_c, 3, 55, 42
5, 183296, Note_on_c, 3, 50, 42
5, 183680, Note_on_c, 3, 59, 0
5, 183808, Note_on_c, 3, 60, 43
5, 183808, Note_on_c, 3, 50, 0
5, 183808, Note_on_c, 3, 48, 43
5, 184320, Note_on_c, 3, 60, 0
5, 184320, Note_on_c, 3, 62, 45
5, 184320, Note_on_c, 3, 48, 0
5, 184320, Note_on_c, 3, 47, 45
5, 184704, Note_on_c, 3, 62, 0
5, 184832, Note_on_c, 3, 59, 47
5, 184832, Note_on_c, 3, 55, 0
5, 184832, Note_on_c, 3, 47, 0
5, 184832, Note_on_c, 3, 43, 47
5, 185216, Note_on_c, 3, 59, 0
5, 185344, Note_on_c, 3, 43, 0
5, 185344, Note_on_c, 3, 60, 49
5, 185344, Note_on_c, 3, 48, 49
5, 185344, Note_on_c, 3, 55, 49
5, 185728, Note_on_c, 3, 48, 0
5, 185728, Note_on_c, 3, 55, 0
5, 185856, Note_on_c, 3, 60, 0
5, 185856, Note_on_c, 3, 57, 51
5, 185856, Note_on_c, 3, 50, 51
5, 185856, Note_on_c, 3, 53, 51
5, 186240, Note_on_c, 3, 50, 0
5, 186240, Note_on_c, 3, 53, 0
5, 186368, Note_on_c, 3, 51, 52
5, 186368, Note_on_c, 3, 55, 52
5, 186752, Note_on_c, 3, 51, 0
5, 186752, Note_on_c, 3, 55, 0
5, 186778, Note_on_c, 3, 57, 0
5, 186880, Note_on_c, 3, 63, 54
5, 186880, Note_on_c, 3, 67, 54
5, 186880, Note_on_c, 3, 48, 54
5, 186880, Note_on_c, 3, 60, 54
5, 187264, Note_on_c, 3, 48, 0
5, 187264, Note_on_c, 3, 60, 0
5, 187392, Note_on_c, 3, 63, 0
5, 187392, Note_on_c, 3, 67, 0
5, 187392, Note_on_c, 3, 62, 56
5, 187392, Note_on_c, 3, 66, 56
5, 187392, Note_on_c, 3, 50, 56
5, 187392, Note_on_c, 3, 57, 56
5, 187776, Note_on_c, 3, 50, 0
5, 187776, Note_on_c, 3, 57, 0
5, 187904, Note_on_c, 3, 52, 58
5, 187904, Note_on_c, 3, 55, 58
5, 188288, Note_on_c, 3, 52, 0
5, 188288, Note_on_c, 3, 55, 0
5, 188416, Note_on_c, 3, 54, 59
5, 188416, Note_on_c, 3, 57, 59
5, 188800, Note_on_c, 3, 54, 0
5, 188800, Note_on_c, 3, 57, 0
5, 188928, Note_on_c, 3, 66, 0
5, 188928, Note_on_c, 3, 70, 61
5, 188928, Note_on_c, 3, 50, 61
5, 188928, Note_on_c, 3, 54, 61
5, 189184, Note_on_c, 3, 70, 0
5, 189184, Note_on_c, 3, 69, 62
5, 189312, Note_on_c, 3, 50, 0
5, 189312, Note_on_c, 3, 54, 0
5, 189440, Note_on_c, 3, 69, 0
5, 189440, Note_on_c, 3, 70, 63
5, 189440, Note_on_c, 3, 55, 63
5, 189440, Note_on_c, 3, 58, 63
5, 189824, Note_on_c, 3, 62, 0
5, 189824, Note_on_c, 3, 70, 0
5, 189824, Note_on_c, 3, 55, 0
5, 189824, Note_on_c, 3, 58, 0
5, 189952, Note_on_c, 3, 67, 65
5, 189952, Note_on_c, 3, 57, 65
5, 190336, Note_on_c, 3, 57, 0
5, 190464, Note_on_c, 3, 58, 67
5, 190848, Note_on_c, 3, 58, 0
5, 190874, Note_on_c, 3, 67, 0
5, 190976, Note_on_c, 3, 70, 68
5, 190976, Note_on_c, 3, 74, 68
5, 190976, Note_on_c, 3, 55, 68
5, 190976, Note_on_c, 3, 62, 68
5, 191360, Note_on_c, 3, 55, 0
5, 191360, Note_on_c, 3, 62, 0
5, 191488, Note_on_c, 3, 70, 0
5, 191488, Note_on_c, 3, 74, 0
5, 191488, Note_on_c, 3, 69, 70
5, 191488, Note_on_c, 3, 76, 70
5, 191488, Note_on_c, 3, 61, 70
5, 191488, Note_on_c, 3, 64, 70
5, 191872, Note_on_c, 3, 69, 0
5, 191872, Note_on_c, 3, 76, 0
5, 191872, Note_on_c, 3, 61, 0
5, 191872, Note_on_c, 3, 64, 0
5, 192000, Note_on_c, 3, 70, 72
5, 192000, Note_on_c, 3, 74, 72
5, 192000, Note_on_c, 3, 62, 72
5, 192000, Note_on_c, 3, 65, 72
5, 192384, Note_on_c, 3, 62, 0
5, 192384, Note_on_c, 3, 65, 0
5, 192512, Note_on_c, 3, 74, 0
5, 192512, Note_on_c, 3, 73, 71
5, 192512, Note_on_c, 3, 64, 71
5, 192512, Note_on_c, 3, 67, 71
5, 192896, Note_on_c, 3, 70, 0
5, 192896, Note_on_c, 3, 73, 0
5, 192896, Note_on_c, 3, 64, 0
5, 192896, Note_on_c, 3, 67, 0
5, 193024, Note_on_c, 3, 73, 67
5, 193024, Note_on_c, 3, 76, 67
5, 193024, Note_on_c, 3, 61, 67
5, 193024, Note_on_c, 3, 64, 67
5, 193408, Note_on_c, 3, 73, 0
5, 193408, Note_on_c, 3, 76, 0
5, 193408, Note_on_c, 3, 61, 0
5, 193408, Note_on_c, 3, 64, 0
5, 193536, Note_on_c, 3, 74, 63
5, 193536, Note_on_c, 3, 62, 63
5, 193920, Note_on_c, 3, 62, 0
5, 194048, Note_on_c, 3, 74, 0
5, 194048, Note_on_c, 3, 63, 59
5, 194048, Note_on_c, 3, 57, 59
5, 194048, Note_on_c, 3, 60, 59
5, 194432, Note_on_c, 3, 57, 0
5, 194432, Note_on_c, 3, 60, 0
5, 194560, Note_on_c, 3, 54, 55
5, 194560, Note_on_c, 3, 57, 55
5, 194944, Note_on_c, 3, 54, 0
5, 194944, Note_on_c, 3, 57, 0
5, 194970, Note_on_c, 3, 63, 0
5, 195072, Note_on_c, 3, 62, 52
5, 195072, Note_on_c, 3, 50, 52
5, 195072, Note_on_c, 3, 54, 52
5, 195072, Note_on_c, 3, 57, 52
5, 195328, Note_on_c, 3, 62, 0
5, 195328, Note_on_c, 3, 60, 50
5, 195456, Note_on_c, 3, 50, 0
5, 195456, Note_on_c, 3, 54, 0
5, 195456, Note_on_c, 3, 57, 0
5, 195584, Note_on_c, 3, 60, 0
5, 195584, Note_on_c, 3, 58, 48
5, 195584, Note_on_c, 3, 55, 48
5, 195968, Note_on_c, 3, 58, 0
5, 195968, Note_on_c, 3, 55, 0
5, 196096, Note_on_c, 3, 62, 44
5, 196096, Note_on_c, 3, 55, 44
5, 196096, Note_on_c, 3, 46, 44
5, 196352, Note_on_c, 3, 46, 0
5, 196352, Note_on_c, 3, 48, 42
5, 196608, Note_on_c, 3, 62, 0
5, 196608, Note_on_c, 3, 58, 40
5, 196608, Note_on_c, 3, 62, 40
5, 196608, Note_on_c, 3, 48, 0
5, 196608, Note_on_c, 3, 50, 40
5, 196992, Note_on_c, 3, 58, 0
5, 196992, Note_on_c, 3, 62, 0
5, 197120, Note_on_c, 3, 57, 36
5, 197120, Note_on_c, 3, 62, 36
5, 197120, Note_on_c, 3, 66, 36
5, 197120, Note_on_c, 3, 55, 0
5, 197120, Note_on_c, 3, 50, 0
5, 197120, Note_on_c, 3, 38, 36
5, 197120, Note_on_c, 3, 50, 36
5, 197504, Note_on_c, 3, 57, 0
5, 197504, Note_on_c, 3, 62, 0
5, 197504, Note_on_c, 3, 66, 0
5, 197504, Note_on_c, 3, 38, 0
5, 197504, Note_on_c, 3, 50, 0
5, 197632, Note_on_c, 3, 55, 31
5, 197632, Note_on_c, 3, 43, 31
5, 198656, Note_on_c, 3, 55, 0
5, 198656, Note_on_c, 3, 43, 0
5, 199811, Control_c, 3, 121, 127
5, 201728, End_track
0, 0, End_of_file
